<svg width="800.01" height="449.46" version="1.1" viewBox="0 0 211.67 118.92" xmlns="http://www.w3.org/2000/svg">
 <g stroke-width=".34569">
  <path d="m48.735 32.664c-17.082 0-22.317 10.781-22.317 16.744h11.786c0.40151-3.1513 3.3355-6.7734 10.931-6.7734 7.7333 0 10.759 4.8607 10.759 11.008h-5.747c-19.201 0-30.031 5.3211-30.031 17.133 0 8.4347 8.3054 15.945 19.099 15.945 6.7962 0 14.125-3.2354 16.646-5.2931l0.17284 3.9322h11.419v-29.038c0-14.621-5.8369-23.658-22.718-23.658zm7.1405 30.183h3.8122v2.9059c0 6.0626-5.5839 10.553-14.075 10.553-5.1842 0-9.1703-1.5382-9.1703-5.1842 0-5.0173 3.5996-8.275 19.433-8.275z"/>
  <path d="m78.15 85.354v-51.587h18.431l9.5354 37.476 9.5451-37.476h18.415v51.587h-12.019v-37.158l-10.488 37.158h-11.071l-10.397-37.078v37.078z"/>
  <path d="m177.02 66.002h11.73c-1.7387 9.7535-10.479 20.741-24.224 20.741-17.317 0-24.927-15.153-24.927-26.914 0-15.94 9.9595-27.13 24.835-27.13 13.067 0 22.241 9.5872 24.163 20.679h-11.517c-1.3432-4.2682-5.4726-10.031-12.647-10.031-8.0832 0-13.594 8.135-13.594 16.235 0 9.7283 6.559 16.451 13.563 16.451 6.4021 0 11.086-5.0156 12.616-10.031z"/>
  <path d="m-0.0024982 5.8299e-4v118.92h211.67v-118.92zm1.7912 1.7919h208.09v115.33h-208.09z"/>
 </g>
</svg>
