<?xml version="1.0" encoding="UTF-8"?>
<!-- Created with Inkscape (http://www.inkscape.org/) -->
<svg id="svg3952" width="1065.6" height="821.97" version="1.1" viewBox="0 0 999 770.6" xmlns="http://www.w3.org/2000/svg" xmlns:cc="http://creativecommons.org/ns#" xmlns:dc="http://purl.org/dc/elements/1.1/" xmlns:rdf="http://www.w3.org/1999/02/22-rdf-syntax-ns#">
 <metadata id="metadata3957">
  <rdf:RDF>
   <cc:Work rdf:about="">
    <dc:format>image/svg+xml</dc:format>
    <dc:type rdf:resource="http://purl.org/dc/dcmitype/StillImage"/>
    <dc:title/>
   </cc:Work>
  </rdf:RDF>
 </metadata>
 <g id="layer1" transform="translate(-45.527 124.84)">
  <g id="g3999" transform="matrix(1.5943 0 0 1.5943 1.4644 -992.23)">
   <g id="g4001" transform="matrix(.82302 0 0 -.82302 189.64 997.28)">
    <path id="path4003" d="m0 0c0-11.25-14-10.583-14-10.583h-14v20.333h14c14.417 0.083 14-9.75 14-9.75m-28 40.75h10.667c11.083-0.584 10.666-8.833 10.666-8.833 0-10.25-12.25-10.417-12.25-10.417h-9.083zm25.417-23.25s9.583 4.083 9.5 14.917c0 0 1.457 17.749-22.063 19.916h-26.104v-74.416h29.917s25-0.084 25 21c0 0 0.583 14.333-16.25 18.583m-67.545 49.416h109.88v-103.54h-109.88z"/>
   </g>
   <g id="g4005" transform="matrix(.82302 0 0 -.82302 85.355 997.28)">
    <path id="path4007" d="m0 0c0-11.25-14-10.583-14-10.583h-14v20.333h14c14.417 0.083 14-9.75 14-9.75m-28 40.75h10.667c11.083-0.584 10.666-8.833 10.666-8.833 0-10.25-12.25-10.417-12.25-10.417h-9.083zm25.417-23.25s9.583 4.083 9.5 14.917c0 0 1.457 17.749-22.063 19.916h-26.104v-74.416h29.917s25-0.084 25 21c0 0 0.583 14.333-16.25 18.583m-67.545 49.416h109.88v-103.54h-109.88z"/>
   </g>
   <g id="g4009" transform="matrix(.82302 0 0 -.82302 308.19 958.6)">
    <path id="path4011" d="m0 0v-13.75s-13.417 8.25-28.25 8.417c0 0-27.666 0.54-28.916-26.522 0 0-1-24.895 28.583-26.312 0 0 12.417-1.5 29.25 9.25v-14.25s-22.583-13.416-48.75-3.083c0 0-22 8.04-22.834 34.395 0 0-0.917 27.105 28.417 36.105 0 0 7.834 3 21.917 1.667 0 0 8.416-0.834 20.583-5.917m-87.461-83.627h109.88v103.54h-109.88z"/>
   </g>
  </g>
  <g id="flowRoot4024" transform="matrix(3.5918 0 0 3.5918 -721.1 -1922)">
   <path id="path4041" d="m366.92 698.23-2.9688-1.7969c-1.862-1.1328-3.1868-2.2493-3.9746-3.3496-0.78777-1.1002-1.1816-2.3665-1.1816-3.7988 0-2.1484 0.74545-3.8932 2.2363-5.2344 1.4909-1.3411 3.4277-2.0117 5.8106-2.0117 2.2786 3e-5 4.3685 0.63805 6.2695 1.9141v4.4336c-1.9662-1.888-4.082-2.832-6.3477-2.832-1.276 2e-5 -2.3242 0.29624-3.1445 0.88867-0.82031 0.59247-1.2305 1.3509-1.2305 2.2754 0 0.82033 0.29948 1.5886 0.89844 2.3047 0.59895 0.71616 1.569 1.4649 2.9102 2.2461l2.9883 1.7578c3.3333 1.9792 5 4.5052 5 7.5781-2e-5 2.1875-0.73244 3.9648-2.1973 5.332-1.4648 1.3672-3.3692 2.0508-5.7129 2.0508-2.6953 0-5.1497-0.82682-7.3633-2.4805v-4.9609c2.1094 2.6693 4.5508 4.0039 7.3242 4.0039 1.224 0 2.2428-0.34179 3.0566-1.0254 0.81379-0.68359 1.2207-1.5397 1.2207-2.5684-1e-5 -1.6667-1.1979-3.2422-3.5938-4.7266z"/>
   <path id="path4043" d="m391.51 705.48v3.5156c-1.7839 0.66406-3.5287 0.99609-5.2344 0.99609-2.8125 0-5.0553-0.83333-6.7285-2.5-1.6732-1.6667-2.5098-3.8997-2.5098-6.6992 0-2.8255 0.8138-5.1042 2.4414-6.8359 1.6276-1.7318 3.7695-2.5976 6.4258-2.5976 0.92447 2e-5 1.7546 0.0879 2.4902 0.26367 0.73567 0.1758 1.6439 0.50457 2.7246 0.98633v3.7891c-1.7969-1.1458-3.4636-1.7187-5-1.7188-1.6016 2e-5 -2.9167 0.56317-3.9453 1.6894-1.0286 1.1263-1.543 2.5619-1.543 4.3066 0 1.836 0.55664 3.2943 1.6699 4.375 1.1133 1.0807 2.6139 1.6211 4.502 1.6211 1.3672 0 2.9362-0.39713 4.707-1.1914z"/>
   <path id="path4045" d="m403.83 691.67c2.7344 2e-5 5.0065 0.88218 6.8164 2.6465 1.8099 1.7643 2.7148 3.9811 2.7148 6.6504-2e-5 2.5912-0.91799 4.7428-2.7539 6.4551-1.836 1.7122-4.1472 2.5684-6.9336 2.5684-2.6953 0-4.9479-0.86914-6.7578-2.6074s-2.7148-3.9095-2.7148-6.5137c0-2.6302 0.91471-4.821 2.7441-6.5723 1.8294-1.7513 4.1243-2.6269 6.8848-2.627zm-0.19532 3.2031c-1.7057 2e-5 -3.1055 0.55991-4.1992 1.6797-1.0938 1.1198-1.6406 2.5456-1.6406 4.2773-1e-5 1.7188 0.55989 3.1218 1.6797 4.209 1.1198 1.0872 2.5586 1.6309 4.3164 1.6309 1.7448 0 3.1738-0.55013 4.2871-1.6504 1.1133-1.1003 1.6699-2.5098 1.6699-4.2285-1e-5 -1.7057-0.57944-3.1185-1.7383-4.2383-1.1589-1.1198-2.6172-1.6797-4.375-1.6797z"/>
   <path id="path4047" d="m414.76 694.56 6.6797-6.5625v3.7109h5.6836v3.2031h-5.6836v8.8086c-1e-5 2.0573 0.85285 3.0859 2.5586 3.0859 1.276 0 2.6237-0.42969 4.043-1.2891v3.3203c-1.3672 0.76823-2.8581 1.1523-4.4727 1.1523-1.6276 0-2.9818-0.47526-4.0625-1.4258-0.33854-0.28646-0.61849-0.60872-0.83984-0.9668-0.22136-0.35807-0.4069-0.82682-0.55664-1.4062-0.14974-0.57942-0.22461-1.6829-0.22461-3.3105v-7.9688h-3.125z"/>
   <path id="path4049" d="m431.78 682.39h3.5547v27.285h-3.5547z"/>
   <path id="path4051" d="m451.87 698.87v7.6367c-2e-5 0.61198 0.20832 0.91797 0.625 0.91797 0.42967 0 1.1002-0.31901 2.0117-0.95703v2.168c-0.80731 0.52084-1.4551 0.87566-1.9434 1.0645-0.4883 0.1888-0.99936 0.2832-1.5332 0.2832-1.5234 0-2.4219-0.59896-2.6953-1.7969-1.5104 1.1719-3.1185 1.7578-4.8242 1.7578-1.25 0-2.2917-0.41341-3.125-1.2402-0.83333-0.82682-1.25-1.8652-1.25-3.1152 0-1.1328 0.4069-2.1452 1.2207-3.0371 0.8138-0.89192 1.9694-1.5983 3.4668-2.1191l4.5508-1.5625v-0.95703c-1e-5 -2.1614-1.0807-3.2422-3.2422-3.2422-1.9401 2e-5 -3.8281 1.0026-5.6641 3.0078v-3.8867c1.3802-1.6276 3.3659-2.4414 5.957-2.4414 1.9401 2e-5 3.4961 0.50783 4.668 1.5234 0.39062 0.32553 0.74218 0.75847 1.0547 1.2988 0.31249 0.54038 0.51106 1.0808 0.59571 1.6211 0.0846 0.54037 0.12693 1.5658 0.12695 3.0762zm-3.4961 7.2461v-5.332l-2.3828 0.91797c-1.2109 0.48178-2.0671 0.9668-2.5684 1.4551-0.5013 0.48829-0.75195 1.097-0.75195 1.8262 0 0.74219 0.23763 1.3477 0.71289 1.8164s1.0905 0.70312 1.8457 0.70312c1.1328 0 2.181-0.46224 3.1445-1.3867z"/>
   <path id="path4053" d="m461.11 691.71v2.2852c1.5885-1.7578 3.3919-2.6367 5.4102-2.6367 1.1198 2e-5 2.1614 0.28973 3.125 0.86914 0.96353 0.57944 1.696 1.3737 2.1973 2.3828 0.50129 1.0091 0.75194 2.6074 0.75195 4.7949v10.273h-3.5547v-10.234c-2e-5 -1.8359-0.27997-3.1478-0.83985-3.9356-0.55991-0.78775-1.4974-1.1816-2.8125-1.1816-1.6797 1e-5 -3.1055 0.83986-4.2773 2.5195v12.832h-3.6328v-17.969z"/>
   <path id="path4055" d="m488 682.39h3.5742v27.285h-7.5977c-2.6563 0-4.7754-0.83984-6.3574-2.5195-1.582-1.6797-2.373-3.9323-2.373-6.7578 0-2.6432 0.83008-4.8177 2.4902-6.5234 1.6602-1.7057 3.7793-2.5586 6.3574-2.5586 1.1979 1e-5 2.5 0.25392 3.9062 0.76171zm0 24.238v-11.387c-1.1068-0.55988-2.2266-0.83983-3.3594-0.83985-1.7708 2e-5 -3.1803 0.57944-4.2285 1.7383-1.0482 1.1589-1.5723 2.7214-1.5723 4.6875 0 1.849 0.45573 3.2748 1.3672 4.2774 0.54687 0.59896 1.1263 1.0026 1.7383 1.2109 0.61197 0.20833 1.7122 0.3125 3.3008 0.3125z"/>
  </g>
  <path id="path4032" d="m614.81-124.84-355.74 355.74 174.3 174.3-55.718 55.718h255.73l110.72-110.72-87.148-87.148 98.577-98.577-87.862-87.148 202.87-202.16zm21.43 58.575h95.72l-344.31 344.31-47.86-47.86zm-9.2863 183.58 47.86 47.146-200.01 200.73-47.86-47.86zm-10.001 185.73 47.146 47.146-56.432 56.432h-94.291z" fill="#4a2256"/>
 </g>
</svg>
