<svg height="345pt" viewBox="0 0 345 345" width="345pt" xmlns="http://www.w3.org/2000/svg"><path d="m0 0v460h460v-460z" fill="#11193f" stroke-width="1.333333" transform="scale(.75)"/><path d="m45.195 196.51h115.07v30.51h-38.645v91.735h-38.01v-91.735h-38.415z" fill="#11193f"/><path d="m165.09 196.515h39.34l27.285 87.415 27.285-87.415h38.66l-45.43 122.25h-41.12z" fill="#11193f"/><g fill="#fefefe"><path d="m12.50025 0h320.76v345h-6.42v-340.81l-308.1.05v340.76h-6.24z"/><path d="m72.5 37.45c8.18-8.8 20.34-14.11 32.42-12.95 12.26.8 23.99 7.69 30.37 18.24 3.43 5.27 5.01 11.4 6.46 17.44l-23.19 4.72c-2.09-5.58-3.65-11.97-8.68-15.72-4.51-3.54-11.15-3.18-15.75.01-5.9 4-8.74 10.95-10.46 17.61-2.19 10.56-2.6 21.42-2.01 32.17.8 9.49 2.38 19.38 7.79 27.45 3.75 5.61 11.18 8.28 17.64 6.23 8.45-2.14 13.95-10.83 13.83-19.31l-22.49.07v-23.125h46.92v64.945h-12.58l-5.62-10.36c-7.49 7.17-17.62 11.87-28.1 11.6-10.29.25-20.36-4.73-26.86-12.62-6.63-7.52-10.41-17.07-12.74-26.71-3.34-14.48-3.9-29.58-1.72-44.27 1.77-12.77 5.82-25.8 14.77-35.42z"/><path d="m173.3 26.44h27.85l37.32 83.6v-83.6h22.045v126.06h-27.675l-37.49-83.92v83.92h-22.05z"/><path d="m218.39062 230.12695c-18.85812.09167-37.71411.71279-56.55078 1.93946-24.23768 1.24375-48.3763 3.77333-72.449215 6.80273-6.64243.76847-13.303638 1.4726-19.894531 2.59766-.000632.0001-.001322-.00011-.001953 0-1.604034.33588-3.590739.45483-5.265625 1.01562-.591642.1257-1.185383.24168-1.775391.37696-.071454.15037-.13295.30423-.203125.45507-.060828.02526-.122972.04629-.183594.07227-.056748.16488-.109496.33113-.166015.49609-.456066.50493-.802609 1.13721-.980469 1.95703-.601058 1.76186-1.187849 3.52976-1.759766 5.30274-.404286 1.20962-.780843 2.42812-1.142578 3.65234-8.03109 25.93516-12.827878 52.96852-12.490234 80.1543-.000875.08919-.001089.17838-.001953.26758-.002769.76564-.022153 1.53111-.017579 2.29687-.001129.2409.003927.48177.003907.72266 0 .24089-.005021.48175-.003907.72265-.004575.76577.01481 1.53123.017579 2.29688.000876.08919.001063.17838.001953.26758-.337739 27.19382 4.460698 54.23555 12.496094 80.17773.359358 1.21526.735385 2.4261 1.136718 3.62695.572098 1.77358 1.158508 3.54225 1.759766 5.30469.177853.81983.524402 1.45211.980469 1.95703.056546.16496.109215.33122.166015.4961.060621.02598.122766.047.183594.07226.070135.15076.131713.30479.203125.45508.590008.13528 1.183749.25126 1.775391.37695 1.674885.5608 3.661591.67975 5.265625 1.01563.000631.00011.001321-.00011.001953 0 6.590891 1.12506 13.252102 1.82918 19.894531 2.59766 24.072905 3.02939 48.211525 5.55898 72.449215 6.80273 18.83667 1.22668 37.69267 1.84772 56.55078 1.93945 1.66396.00809 3.32807-.00495 4.99219-.00976.13087.00065.26171.00331.39258.0039 3.26909.01486 6.53954.01609 9.80859 0 .25719-.00117.51431-.00839.77149-.00976 20.39568-.00339 40.79172-.59717 61.16406-1.92383 24.23769-1.24376 48.37631-3.77334 72.44922-6.80273 6.64243-.76848 13.30364-1.4726 19.89453-2.59766.00064-.00009.00131.00009.00195 0 1.60404-.33589 3.59074-.45483 5.26563-1.01563.59164-.12569 1.18538-.24167 1.77539-.37695.07146-.15039.13295-.30422.20313-.45508.06082-.02526.12297-.04627.18359-.07226.05681-.16488.10948-.33114.16601-.4961.45607-.50494.80261-1.13721.98047-1.95703.59747-1.75134 1.17937-3.50915 1.74805-5.27148.39738-1.18782.76887-2.38591 1.125-3.58789 8.04894-25.96431 12.8576-53.03081 12.51953-80.25.00042-.0892.00163-.17839.00195-.26758.00277-.76565.02216-1.53111.01758-2.29688.00112-.2409-.0039-.48176-.0039-.72265-.00003-.24089.0051-.48176.0039-.72266.00458-.76576-.01481-1.53123-.01758-2.29687-.00032-.0892-.00153-.17839-.00195-.26758.33806-27.21919-4.47058-54.2857-12.51953-80.25-.35613-1.20198-.72763-2.40007-1.125-3.58789-.56868-1.76233-1.15058-3.52014-1.74805-5.27149-.17786-.81982-.5244-1.45209-.98047-1.95703-.05651-.16496-.10926-.33121-.16601-.49609-.06062-.02598-.12277-.04701-.18359-.07227-.07018-.15085-.13167-.30468-.20313-.45507-.59001-.13528-1.18375-.25126-1.77539-.37696-1.67489-.56079-3.66159-.67974-5.26563-1.01562-.00064-.00009-.00131.00008-.00195 0-6.59089-1.12506-13.2521-1.82919-19.89453-2.59766-24.07291-3.0294-48.21153-5.55898-72.44922-6.80273-20.37235-1.32667-40.76838-1.92045-61.16406-1.92383-.25718-.00138-.5143-.0086-.77149-.00977-3.26905-.01613-6.53951-.01493-9.80859 0-.13087.0006-.26171.00326-.39258.00391-1.66412-.00481-3.32823-.01786-4.99219-.00977z" stroke-width="1.333333" transform="scale(.75)"/></g><path d="m45.18 196.52c.12 10.08.05 20.17.03 30.26 11.25.08 22.5.09 33.75.05 1.47.22 3.33-.49 4.57.43.24 30.49-.09 60.99.16 91.47 12.63.18 25.25 0 37.86999.05.19001-30.6-.45-61.20001.12-91.79001 12.84001-.32 25.70001-.08 38.55001-.12.11999-10.13-.02-20.25.07-30.37-38.37-.01-76.75-.04-115.12.02m119.90999-.06c15.22001 40.8 30.73001 81.50001 46.02 122.27001 13.70001.1 27.41001-.04 41.12001.07 15.19999-40.73 30.21999-81.53001 45.42999-122.26001-12.89.02-25.77999-.21-38.66.06-1.06999 4.93-2.89999 9.64-4.29 14.48-7.57999 24.27-14.88 48.63-22.63 72.85001-9.12-29.20001-18.27999-58.39001-27.64999-87.50001-13.11.12-26.23001.06-39.34001.03z" fill="#11193f"/></svg>