<?xml version="1.0" encoding="UTF-8"?>
<!-- Created with Inkscape (http://www.inkscape.org/) -->
<svg id="svg4520" width="96.929mm" height="109.51mm" version="1.1" viewBox="0 0 96.929 109.51" xmlns="http://www.w3.org/2000/svg" xmlns:cc="http://creativecommons.org/ns#" xmlns:dc="http://purl.org/dc/elements/1.1/" xmlns:rdf="http://www.w3.org/1999/02/22-rdf-syntax-ns#">
 <metadata id="metadata4517">
  <rdf:RDF>
   <cc:Work rdf:about="">
    <dc:format>image/svg+xml</dc:format>
    <dc:type rdf:resource="http://purl.org/dc/dcmitype/StillImage"/>
    <dc:title/>
   </cc:Work>
  </rdf:RDF>
 </metadata>
 <g id="layer1" transform="translate(-50.565 -43.429)">
  <path id="path2" d="m54.469 104.17h40.594v10.763h-13.633v32.362h-13.409v-32.362h-13.552z" fill="#11193f" stroke-width=".35278"/>
  <path id="path4" d="m96.765 104.17h13.878l9.6256 30.838 9.6255-30.838h13.638l-16.027 43.127h-14.506z" fill="#11193f" stroke-width=".35278"/>
  <g id="g12" transform="matrix(.35278 0 0 .35278 50.565 43.429)" fill="#fefefe">
   <path id="path6" d="m38.37 13.108c8.18-8.8 20.34-14.11 32.42-12.95 12.26 0.8 23.99 7.69 30.37 18.24 3.43 5.27 5.01 11.4 6.46 17.44l-23.19 4.72c-2.09-5.58-3.65-11.97-8.68-15.72-4.51-3.54-11.15-3.18-15.75 0.01-5.9 4-8.74 10.95-10.46 17.61-2.19 10.56-2.6 21.42-2.01 32.17 0.8 9.49 2.38 19.38 7.79 27.45 3.75 5.61 11.18 8.28 17.64 6.23 8.45-2.14 13.95-10.83 13.83-19.31l-22.49 0.07v-23.125h46.92v64.945h-12.58l-5.62-10.36c-7.49 7.17-17.62 11.87-28.1 11.6-10.29 0.25-20.36-4.73-26.86-12.62-6.63-7.52-10.41-17.07-12.74-26.71-3.34-14.48-3.9-29.58-1.72-44.27 1.77-12.77 5.82-25.8 14.77-35.42z"/>
   <path id="path8" d="m139.17 2.0982h27.85l37.32 83.6v-83.6h22.045v126.06h-27.675l-37.49-83.92v83.92h-22.05z"/>
   <path id="path10" d="m129.66 148.25c-14.144 0.0688-28.286 0.53459-42.413 1.4546-18.178 0.93281-36.282 2.83-54.337 5.102-4.9818 0.57636-9.9777 1.1044-14.921 1.9482-4.74e-4 7e-5 -9.75e-4 -8e-5 -0.0015 0-1.203 0.25191-2.6931 0.34112-3.9492 0.76171-0.44373 0.0943-0.88904 0.18126-1.3315 0.28272-0.05359 0.11278-0.09971 0.22818-0.15234 0.34131-0.04562 0.019-0.09223 0.0347-0.1377 0.0542-0.04256 0.12366-0.08212 0.24835-0.12451 0.37207-0.34205 0.3787-0.60196 0.85291-0.73535 1.4678-0.45079 1.3214-0.89089 2.6473-1.3198 3.9771-0.30321 0.90721-0.58563 1.8211-0.85693 2.7392-6.0233 19.451-9.6209 39.726-9.3677 60.116-6.5625e-4 0.0669-8.25e-4 0.13378-0.0015 0.20068-0.0021 0.57423-0.016612 1.1483-0.013185 1.7226-8.25e-4 0.18068 0.002925 0.36133 0.002925 0.542s-0.00375 0.36131-0.002925 0.54199c-0.00345 0.57432 0.011108 1.1484 0.013185 1.7227 6.57e-4 0.0669 8.25e-4 0.13378 0.0015 0.20068-0.2533 20.395 3.3455 40.677 9.3721 60.133 0.26952 0.91144 0.55154 1.8196 0.85254 2.7202 0.42907 1.3302 0.86888 2.6567 1.3198 3.9785 0.13339 0.61487 0.3933 1.0891 0.73535 1.4678 0.04241 0.12372 0.08191 0.24842 0.12451 0.37208 0.04547 0.0195 0.09207 0.0352 0.1377 0.0542 0.0526 0.11307 0.09879 0.22859 0.15234 0.34131 0.44251 0.10146 0.88781 0.18845 1.3315 0.28271 1.2562 0.4206 2.7462 0.50982 3.9492 0.76173 4.73e-4 8e-5 9.75e-4 -9e-5 0.0015 0 4.9432 0.84379 9.9391 1.3719 14.921 1.9482 18.055 2.272 36.159 4.1692 54.337 5.102 14.128 0.92001 28.27 1.3858 42.413 1.4546 1.248 6e-3 2.496-4e-3 3.7441-7e-3 0.0982 4.8e-4 0.19628 2e-3 0.29444 3e-3 2.4518 0.0112 4.9046 0.0121 7.3564 0 0.19289-7.5e-4 0.38573-6e-3 0.57862-7e-3 15.297-2e-3 30.594-0.44788 45.873-1.4429 18.178-0.93282 36.282-2.83 54.337-5.102 4.9818-0.57636 9.9777-1.1044 14.921-1.9482 4.8e-4 -7e-5 7.5e-4 7e-5 2e-3 0 1.203-0.25192 2.6931-0.34112 3.9492-0.76172 0.44373-0.0943 0.88903-0.18125 1.3315-0.28271 0.0536-0.1128 0.0997-0.22817 0.15235-0.34131 0.0456-0.019 0.0922-0.0347 0.13769-0.0542 0.0426-0.12366 0.0821-0.24835 0.12451-0.37207 0.34205-0.37871 0.60195-0.85291 0.73535-1.4678 0.4481-1.3135 0.88453-2.6319 1.311-3.9536 0.29803-0.89086 0.57665-1.7894 0.84375-2.6909 6.0367-19.473 9.6432-39.773 9.3896-60.188 3.2e-4 -0.0669 2e-3 -0.1338 2e-3 -0.20069 2e-3 -0.57424 0.0166-1.1483 0.0132-1.7227 7.5e-4 -0.18067-3e-3 -0.36132-3e-3 -0.54199-2e-5 -0.18066 4e-3 -0.36132 3e-3 -0.54199 4e-3 -0.57432-0.0111-1.1484-0.0132-1.7226-2.4e-4 -0.0669-2e-3 -0.1338-2e-3 -0.20069 0.25355-20.414-3.3529-40.714-9.3896-60.188-0.2671-0.90148-0.54573-1.8-0.84375-2.6909-0.42651-1.3217-0.86294-2.6401-1.311-3.9536-0.1334-0.61487-0.3933-1.0891-0.73535-1.4678-0.0424-0.12372-0.082-0.2484-0.12451-0.37206-0.0455-0.0195-0.0921-0.0352-0.13769-0.0542-0.0526-0.11314-0.0988-0.22851-0.15235-0.3413-0.44251-0.10146-0.88781-0.18845-1.3315-0.28272-1.2562-0.42059-2.7462-0.50981-3.9492-0.76172-4.8e-4 -6e-5 -7.5e-4 6e-5 -2e-3 0-4.9432-0.84379-9.9391-1.3719-14.921-1.9482-18.055-2.272-36.159-4.1692-54.337-5.102-15.279-0.995-30.576-1.4403-45.873-1.4429-0.19289-7.5e-4 -0.38573-7e-3 -0.57862-7e-3 -2.4518-0.0121-4.9046-0.0112-7.3564 0-0.0982 4.5e-4 -0.19629 2e-3 -0.29444 3e-3 -1.2481-4e-3 -2.4962-0.0134-3.7441-7e-3z"/>
  </g>
  <path id="path14" d="m54.463 104.17c0.04233 3.556 0.01764 7.1155 0.01058 10.675 3.9688 0.0282 7.9375 0.0318 11.906 0.0177 0.51858 0.0776 1.1748-0.17286 1.6122 0.15169 0.08467 10.756-0.03175 21.516 0.05644 32.269 4.4556 0.0635 8.9076 0 13.36 0.0176 0.06703-10.795-0.15875-21.59 0.04233-32.381 4.5297-0.11289 9.0664-0.0282 13.6-0.0423 0.04233-3.5736-0.0071-7.1438 0.02469-10.714-13.536-4e-3 -27.076-0.0141-40.612 7e-3m42.302-0.0212c5.3693 14.393 10.841 28.751 16.235 43.134 4.8331 0.0353 9.6696-0.0141 14.506 0.0247 5.3622-14.369 10.661-28.762 16.027-43.131-4.5473 7e-3 -9.0946-0.0741-13.638 0.0212-0.37747 1.7392-1.023 3.4008-1.5134 5.1082-2.674 8.5619-5.2493 17.156-7.9834 25.7-3.2173-10.301-6.4488-20.599-9.7543-30.868-4.6249 0.0423-9.2534 0.0212-13.878 0.0106z" fill="#11193f" stroke-width=".35278"/>
 </g>
</svg>
