<svg height="310.42178pt" viewBox="0 0 274.75885 310.42178" width="274.75885pt" xmlns="http://www.w3.org/2000/svg"><path d="m11.064663 172.1682h115.069997v30.51h-38.644997v91.735h-38.01v-91.735h-38.415z" fill="#fff"/><path d="m130.95966 172.1732h39.34l27.285 87.415 27.285-87.415h38.66l-45.43 122.25h-41.12z" fill="#fff"/><g fill="#11193f"><path d="m38.369663 13.108198c8.18-8.8000004 20.34-14.1100004 32.42-12.9500004 12.26.8 23.99 7.69 30.369997 18.2400004 3.43 5.27 5.01 11.4 6.46 17.44l-23.189997 4.72c-2.09-5.58-3.65-11.97-8.68-15.72-4.51-3.54-11.15-3.18-15.75.01-5.9 4-8.74 10.95-10.46 17.61-2.19 10.56-2.6 21.42-2.01 32.17.8 9.49 2.38 19.38 7.79 27.450002 3.75 5.61 11.18 8.28 17.64 6.23 8.45-2.14 13.95-10.830002 13.83-19.310002l-22.49.07v-23.125h46.919997v64.945002h-12.579997l-5.62-10.36c-7.49 7.17-17.62 11.87-28.1 11.6-10.29.25-20.36-4.73-26.86-12.62-6.63-7.52-10.41-17.07-12.74-26.710002-3.34-14.48-3.9-29.58-1.72-44.27 1.77-12.77 5.82-25.8 14.77-35.42z"/><path d="m139.16966 2.0981976h27.85l37.32 83.6000004v-83.6000004h22.045v126.0600024h-27.675l-37.49-83.920002v83.920002h-22.05z"/><path d="m129.66263 148.25341c-14.14359.0688-28.28558.53459-42.413087 1.4546-18.17826.93281-36.282225 2.82999-54.336912 5.10204-4.981822.57636-9.977728 1.10445-14.920898 1.94825-.000474.00007-.000975-.00008-.0015 0-1.203025.25191-2.693054.34112-3.949219.76171-.443731.0943-.889037.18126-1.331543.28272-.05359.11278-.09971.22818-.152344.34131-.04562.019-.09223.0347-.137695.0542-.04256.12366-.08212.24835-.124511.37207-.34205.3787-.601957.85291-.735352 1.46777-.450794 1.3214-.890887 2.64732-1.319825 3.97706-.303214.90721-.5856318 1.82109-.856933 2.73925-6.0233175 19.45137-9.62090853 39.72639-9.36767553 60.11573-.00065625.0669-.000825.13378-.0015.20068-.0021.57423-.0166125 1.14833-.013185 1.72265-.000825.18068.002925.36133.002925.542s-.00375.36131-.002925.54199c-.00345.57432.0111075 1.14842.013185 1.72266.000657.0669.000825.13378.0015.20068-.25330425 20.39537 3.34552353 40.67666 9.37207053 60.1333.2695185.91144.5515387 1.81957.852538 2.72021.429074 1.33019.868881 2.65669 1.319825 3.97852.13339.61487.393301 1.08908.735352 1.46777.04241.12372.08191.24842.124511.37208.04547.0195.09207.0352.137695.0542.0526.11307.09879.22859.152344.34131.442506.10146.887812.18845 1.331543.28271 1.256164.4206 2.746194.50982 3.949219.76173.000473.00008.000975-.00009.0015 0 4.943168.84379 9.939077 1.37188 14.920898 1.94824 18.054679 2.27204 36.158644 4.16924 54.336912 5.10205 14.127507.92001 28.269507 1.38579 42.413087 1.45459 1.24797.006 2.49605-.004 3.74414-.007.0982.00048.19628.002.29444.003 2.45181.0112 4.90465.0121 7.35644 0 .19289-.00075.38573-.006.57862-.007 15.29676-.002 30.59379-.44788 45.87304-1.44288 18.17827-.93282 36.28223-2.83 54.33692-5.10204 4.98182-.57636 9.97773-1.10445 14.92089-1.94825.00048-.00007.00075.00007.002 0 1.20303-.25192 2.69306-.34112 3.94923-.76172.44373-.0943.88903-.18125 1.33154-.28271.0536-.1128.0997-.22817.15235-.34131.0456-.019.0922-.0347.13769-.0542.0426-.12366.0821-.24835.12451-.37207.34205-.37871.60195-.85291.73535-1.46778.4481-1.3135.88453-2.63186 1.31104-3.95361.29803-.89086.57665-1.78943.84375-2.69091 6.0367-19.47324 9.6432-39.77311 9.38964-60.1875.00032-.0669.002-.1338.002-.20069.002-.57424.0166-1.14833.0132-1.72266.00075-.18067-.003-.36132-.003-.54199-.00002-.18066.004-.36132.003-.54199.004-.57432-.0111-1.14842-.0132-1.72265-.00024-.0669-.002-.1338-.002-.20069.25355-20.41439-3.35293-40.71427-9.38964-60.1875-.2671-.90148-.54573-1.80005-.84375-2.69092-.42651-1.32174-.86294-2.6401-1.31104-3.95361-.1334-.61487-.3933-1.08907-.73535-1.46778-.0424-.12372-.082-.2484-.12451-.37206-.0455-.0195-.0921-.0352-.13769-.0542-.0526-.11314-.0988-.22851-.15235-.3413-.44251-.10146-.88781-.18845-1.33154-.28272-1.25617-.42059-2.7462-.50981-3.94923-.76172-.00048-.00006-.00075.00006-.002 0-4.94316-.84379-9.93907-1.37189-14.92089-1.94824-18.05469-2.27205-36.15865-4.16924-54.33692-5.10205-15.27926-.995-30.57628-1.44034-45.87304-1.44287-.19289-.00075-.38573-.007-.57862-.007-2.45179-.0121-4.90463-.0112-7.35644 0-.0982.00045-.19629.002-.29444.003-1.24809-.004-2.49617-.0134-3.74414-.007z"/></g><path d="m11.049663 172.1782c.12 10.08.05 20.17.03 30.26 11.25.08 22.5.09 33.75.05 1.47.22 3.33-.49 4.57.43.24 30.49-.09 60.99.16 91.47 12.63.18 25.25 0 37.86999.05.19001-30.6-.45-61.20001.12-91.79001 12.840007-.32 25.700007-.08 38.550007-.12.11999-10.13-.02-20.25.07-30.37-38.369997-.01-76.749997-.04-115.119997.02m119.909987-.06c15.22001 40.8 30.73001 81.50001 46.02 122.27001 13.70001.1 27.41001-.04 41.12001.07 15.19999-40.73 30.21999-81.53001 45.42999-122.26001-12.89.02-25.77999-.21-38.66.06-1.06999 4.93-2.89999 9.64-4.29 14.48-7.57999 24.27-14.88 48.63-22.63 72.85001-9.12-29.20001-18.27999-58.39001-27.64999-87.50001-13.11.12-26.23001.06-39.34001.03z" fill="#fff"/></svg>