<svg width="1919.9pt" height="554.52pt" version="1.1" viewBox="0 0 1919.9 554.52" xmlns="http://www.w3.org/2000/svg">
 <path d="m912.74 268.69c0-37.658 30.608-68.257 68.296-68.257 37.707 0 68.199 30.599 68.199 68.257v209.04h-204.71c-37.621-0.1371-68.267-30.599-68.267-68.257s30.56-68.219 68.267-68.267h68.209zm392.46-132.22c-38.38 0-73.779 12.678-102.35 34.139v-34.139h-68.296v409.53h68.296v-238.97c0-56.446 45.883-102.35 102.35-102.35zm-833.22 310.09 294.73-191.39c-33.09-74.866-108-127.19-195.19-127.19-117.79 0-213.26 95.46-213.26 213.25 0 117.83 95.47 213.3 213.26 213.3 62.919 0 119.56-27.251 158.62-70.575 24.308 37.303 66.535 61.976 114.39 62.063h273v-277.32c-0.096-75.414-61.177-136.48-136.5-136.48-75.357 0-136.5 61.062-136.5 136.48v4.2615c-65.189 0.088-119.64 45.806-133.18 106.83-16.892 61.38-73.02 106.47-139.84 106.47-38.524 0-73.605-15.122-99.539-39.699m-37.303-57.215c-5.3387-15.073-8.1474-31.233-8.1474-48.125 0-80.07 64.91-145.07 144.99-145.07 38.612 0 73.654 15.122 99.684 39.746-0.096 0-149.65 97.048-236.52 153.45m1092.3 156.67c-94.171 0-170.65-76.5-170.65-170.65v-170.66h-34.052v-68.219h34.052v-136.48h68.296v136.48h102.35v68.219h-102.35v170.66c0 56.444 45.883 102.39 102.35 102.39zm-1458.8-243.21c0.0441-56.493 45.86-102.35 102.35-102.35 56.503 0 102.31 45.854 102.4 102.35v243.21h68.219v-243.21c0-94.2-76.405-170.57-170.61-170.57-38.438 0-73.837 12.717-102.35 34.129v-166.35h-68.267v546.01h68.262v-243.21" fill="#ec1739" stroke-width="9.6192"/>
 <g transform="translate(6.4055 694.52)" fill="#ec1739">
  <path d="m1848.5-591.24c9.2201-9.8357 24.019-13.799 36.962-10.166 13.95 3.6415 24.688 16.861 25.018 31.337l-24.983-0.049c-0.8217-3.6503-2.9098-7.4261-6.6763-8.6306-3.3293-0.8124-7.2298-0.6606-9.9342 1.6687-3.1062 2.4459-4.4628 7.1583-2.4724 10.702 1.3838 2.4547 4.1414 3.5882 6.6317 4.6233 8.6132 3.3561 17.869 5.2124 25.91 9.943 5.6053 3.2043 10.452 8.1047 12.594 14.289 5.0876 14.763-0.4996 32.542-13.281 41.576-15.308 11.094-38.291 8.6307-51.714-4.356-6.9351-6.7386-9.7556-16.406-10.532-25.796l26.214 0.049c0.9189 3.5706 2.035 7.2836 4.6771 9.9968 4.8198 5.0518 14.21 4.9357 18.636-0.5979 3.4454-4.1772 3.0169-11.514-1.8834-14.406-6.6405-4.2664-14.476-5.9444-21.76-8.7384-7.3724-2.865-14.343-7.667-18.243-14.71-6.3908-11.612-4.3825-27.187 4.8377-36.738z" stroke-width=".89256"/>
  <path d="m1766.5-693.93c-35.948 0.0277-65.262 28.82-65.937 64.761h-0.07v73.655h0.029c-0.011 0.18879-0.02 0.37763-0.029 0.5665 0 36.45 29.552 65.996 66.002 65.995 36.447-2e-3 65.992-29.548 65.995-65.995-0.01-0.18887-0.018-0.37771-0.029-0.5665h0.029v-73.655h-0.039c-0.6744-35.948-29.999-64.743-65.954-64.761zm-0.015 34.112c15.986 1e-3 28.973 12.905 29.078 28.89h0.01v78.949h-0.01c-0.096 15.991-13.086 28.905-29.078 28.906-15.989-5e-3 -28.975-12.917-29.071-28.906h-0.01v-78.949h0.01c0.1047-15.983 13.088-28.885 29.071-28.89z" stroke-width="2.9795"/>
 </g>
 <path d="m1631.5 0.83778c-37.745-2.25e-4 -68.344 30.238-68.344 67.54-1e-4 37.301 30.598 67.54 68.344 67.54l-44.06 64.967h41.569l58.011-85.408c10.703-16.745 12.823-28.788 12.823-47.099 1e-4 -37.301-30.599-67.54-68.344-67.54zm0 35.216c18.064-3.38e-4 32.709 14.471 32.708 32.323 2e-4 17.852-14.644 32.324-32.708 32.323-18.064-4.8e-4 -32.707-14.472-32.707-32.323-1e-4 -17.851 14.643-32.323 32.707-32.323z" fill="#ec1739"/>
</svg>
