<?xml version="1.0" encoding="UTF-8"?>
<svg id="svg39" width="545.72pt" height="494.04pt" version="1.1" viewBox="0 0 545.72 494.04" xmlns="http://www.w3.org/2000/svg" xmlns:cc="http://creativecommons.org/ns#" xmlns:dc="http://purl.org/dc/elements/1.1/" xmlns:rdf="http://www.w3.org/1999/02/22-rdf-syntax-ns#">
 <metadata id="metadata45">
  <rdf:RDF>
   <cc:Work rdf:about="">
    <dc:format>image/svg+xml</dc:format>
    <dc:type rdf:resource="http://purl.org/dc/dcmitype/StillImage"/>
    <dc:title/>
   </cc:Work>
  </rdf:RDF>
 </metadata>
 <g id="#d40631ff" transform="translate(-87.259 -73.48)">
  <path id="path2" transform="scale(.75)" d="m116.35 189.88v474.91l310.99 91.906 310.99-91.906v-474.91l-310.99-91.908z" fill="#d40631" stroke-width="1.3333"/>
 </g>
 <g id="#000000ff" transform="translate(-87.259 -73.48)">
  <path id="path34" transform="scale(.75)" d="m630.57 321.35c-2.4057 0-3.8789 1.3097-3.8789 3.8262v104.31c0 2.5164 1.4718 3.8398 3.9062 3.8398h209.47c2.4344 0 3.9062-1.3234 3.9062-3.8398v-104.31c0-2.5164-1.4732-3.8262-3.8789-3.8262z" stroke-width="1.3333"/>
 </g>
 <path id="path5" d="m199.3 125.01c10.79-3.19 21.61-6.2 32.45-9.24 0.03 63.88 0.1 127.76 0 191.64l-32.45-9.16z" fill="#fff"/>
 <path id="path7" d="m233.62 115.71c21.58 6.12 43.16 12.22 64.73 18.36 9.36 2.69 18.07 8.75 22.47 17.62 3.83 7.32 4.39 15.77 4.16 23.88-0.01 35.34 0 70.68-0.01 106.02-11.05 3.13-22.1 6.24-33.13 9.4 0.04-35.82 0.01-71.65 0.01-107.48 0.19-4.15-1.91-8.65-6.02-10.09-3.33-1.05-7.15-2.04-10.57-2.72v1.308c3.7154 0.91165 6.73 1.462 10.26 2.832 3.39 1.35 5.06 5.13 4.98 8.61 0.05 35.98-0.02 71.97 0.03 107.95l-3.95-1.4292c0.04-34.7-0.01-70.771 0.03-105.48-0.01-2.05-0.03-4.63-2.04-5.82-1.8376-0.81328-3.7962-1.27-5.7518-1.7418l-3.5583-0.85852c-0.02 39.91 0.06 79.74-0.03 119.65-13.89 3.84-27.72 7.9-41.62 11.73 0.03-63.91 0.01-127.83 0.01-191.74z" fill="#fff"/>
 <path id="path9" d="m183.6 129.66 3.9195 1.08 0.0503 161.88-3.9698 1.3z" fill="#fff"/>
 <path id="path11" d="m140.54 142.08 41.18-11.92v163.1l-41.18-11.67z" fill="#fff"/>
 <g id="flowRoot834" transform="matrix(1.5428 0 0 1.5428 -455.83 882.23)" fill="#fff" stroke-width="1px" aria-label="HDR">
  <path id="path837" d="m558.13-422.42h6.2v-11.8h10.36v11.8h6.24v-28.52h-6.24v11.28h-10.36v-11.28h-6.2z"/>
  <path id="path839" d="m586.25-422.42h11.56c5.8 0 11.36-3.56 11.36-10.48v-7.8c0-6.52-5.16-10.24-11.44-10.24h-11.48zm6.2-5.24v-18.04h4.84c3.08 0 5.68 1.84 5.68 4.96v8.04c0 3.48-2.84 5.04-5.48 5.04z"/>
  <path id="path841" d="m613.83-422.42h6.2v-10.36h3.92l6.16 10.36h6.84l-6.84-11.2c3.76-1.44 5.52-4.92 5.52-8.32 0-5.6-4-9-9.92-9h-11.88zm6.2-15.28v-8.2h4.84c2.76 0 4.68 1.2 4.68 4.12 0 2.6-1.8 4.08-4.64 4.08z"/>
 </g>
 <path id="path19" d="m116.45 335.82 8.73-0.0398v40.1l-8.73-5e-5z" fill="#fff"/>
 <path id="path21" d="m140.65 335.82h8.65l16.89 25.1v-25.1h8.31v40.06h-8.4198l-17.12-25.47v25.47h-8.31z" fill="#fff"/>
 <path id="path23" d="m192.52 337.32c7.45-3.89 16.37-1.81 23.77 1.15l-3.45 6.76c-4.35-1.53-9.02-3.06-13.67-2.17-2.8 0.49-4.91 4.24-2.43 6.39 5.29 3.27 12.34 2.63 17.11 6.96 5.14 4.52 4.28 13.99-1.72 17.4-8.38 4.82-18.8 2.7-27.04-1.37l3.7-6.91c5.38 2.31 11.68 5.14 17.43 2.35 2.49-1.06 2.76-4.93 0.24-6.12-5.37-2.93-12.34-2.53-16.88-7.04-5-4.92-3.26-14.29 2.94-17.4z" fill="#fff"/>
 <path id="path27" d="m252.58 341.29c5.46-7.15 16.48-7.82 23.93-3.57 4.1 2.25 5.89 7.1 5.82 11.59h-8.19c0.28-8.37-13.42-9.3-15.24-1.7-0.61 4.95-0.26 10-0.23 14.99 0.26 6.47 9.52 8.72 13.67 4.47 1.38-1.41 1.35-3.5098 1.71-5.3198h-9.4498v-6.5505h17.56c-0.23001 5.58 1.2 12.21-3.16 16.63-6.81 6.66-19.36 6.35-25.89-0.54-3.56-3.68-3.23-9.08-3.14-13.8 0.19-5.43-0.99001-11.56 2.61-16.2z" fill="#fff"/>
 <path id="path29" d="m294.07 335.82v40.061h8.8095v-16.581h13.17v16.581h8.8097v-40.061h-8.8097v15.87h-13.17v-15.87h-0.019z" fill="#fff"/>
 <path id="path31" d="m334.96 335.82v7.2407h10.709v32.82h8.8594v-32.82h10.711v-7.2407h-30.271z" fill="#fff"/>
 <path id="path19-1" d="m229.12 335.82h8.73v40.06h-8.73z" fill="#fff"/>
</svg>
