<?xml version="1.0" encoding="UTF-8"?>
<!-- Generator: Adobe Illustrator 22.1.0, SVG Export Plug-In . SVG Version: 6.00 Build 0)  -->
<svg id="Layer_1" width="720" height="800" version="1.1" viewBox="0 0 720 800" xml:space="preserve" xmlns="http://www.w3.org/2000/svg" xmlns:cc="http://creativecommons.org/ns#" xmlns:dc="http://purl.org/dc/elements/1.1/" xmlns:rdf="http://www.w3.org/1999/02/22-rdf-syntax-ns#"><metadata id="metadata145"><rdf:RDF><cc:Work rdf:about=""><dc:format>image/svg+xml</dc:format><dc:type rdf:resource="http://purl.org/dc/dcmitype/StillImage"/><dc:title/></cc:Work></rdf:RDF></metadata>
<g id="g60" transform="matrix(8,0,0,8,-120,1040)">
	<path id="polygon54" d="m105-43.3v-73.4l-45-13.3-45 13.3v73.4l45 13.3z" fill="#d50032"/>
	<path id="path56" d="m81-55-1.6-8.4h1.6l0.9 5.4 0.9-5.4h1.5l-1.5 8.4zm-5.5 0v-6.9h-1.6v-1.4h4.8v1.4h-1.6v6.9zm-3.5 0v-1.8h1.4v1.8zm-3.7 0v-6.9h-1.6v-1.4h4.8v1.4h-1.5v6.9zm-7.6 0v-8.3h1.6v3.4h1.4v-3.4h1.6v8.3h-1.6v-3.5h-1.4v3.5zm-3.7 0.1c-1.4 0-2.4-0.7-2.4-2.2v-4.2c0-1.4 1.1-2.2 2.4-2.2s2.3 0.7 2.3 2v0.9h-1.5v-0.7c0-0.4-0.3-0.7-0.8-0.7s-0.7 0.3-0.7 0.8v4.2c0 0.5 0.3 0.8 0.7 0.8 0.5 0 0.7-0.3 0.7-0.7v-1.2h-0.8v-1.3h2.4v2.5c0 1.3-0.9 2-2.3 2zm-5.6-0.1v-8.3h1.6v8.3zm-3.5 0.1c-1.4 0-2.2-0.9-2.3-2.4h1.5c0 0.5 0.2 1.1 0.7 1.1s0.6-0.4 0.6-0.8c0-0.5-0.3-0.8-0.8-1.3l-0.7-0.7c-0.7-0.7-1.2-1.4-1.2-2.3 0-1.2 0.7-2.2 2.2-2.2 1 0 2 0.5 2.1 2.4h-1.4c-0.1-0.6-0.2-1.1-0.7-1.1-0.4 0-0.6 0.3-0.6 0.7s0.5 0.9 0.9 1.2l0.7 0.7c0.8 0.8 1.3 1.5 1.3 2.4-0.1 1.4-0.9 2.3-2.3 2.3zm-8.5-0.1v-8.3h1.7l1.8 4.5v-4.5h1.5v8.3h-1.5l-2-5v5zm-3.2 0v-8.3h1.6v8.3z" fill="#fff"/>
	<path id="path58" d="m60.3-70.1v-36.5l11.5 3.1c4.7 1.3 6.7 4.1 6.7 9.4v19l-6.7 1.8v-19.5c0-1.4-0.5-2.1-1.8-2.3l-1.7-0.2v22.9zm-0.6 0-8-2.2v-32.1l8-2.2zm-11.4-3.1-6.6-1.8v-26.7l6.7-1.8v30.3z" fill="#fff"/>
</g>
</svg>
