<?xml version="1.0" encoding="UTF-8" standalone="no"?>
<svg
   xmlns:dc="http://purl.org/dc/elements/1.1/"
   xmlns:cc="http://creativecommons.org/ns#"
   xmlns:rdf="http://www.w3.org/1999/02/22-rdf-syntax-ns#"
   xmlns:svg="http://www.w3.org/2000/svg"
   xmlns="http://www.w3.org/2000/svg"
   xmlns:sodipodi="http://sodipodi.sourceforge.net/DTD/sodipodi-0.dtd"
   xmlns:inkscape="http://www.inkscape.org/namespaces/inkscape"
   id="lifetime"
   data-name="lifetime"
   viewBox="0 0 350.00413 350.00413"
   height="350.00412"
   width="350.00412"
   version="1.1"
   sodipodi:docname="Lifetime.svg"
   inkscape:version="0.92.0 r15299">
  <metadata
     id="metadata13">
    <rdf:RDF>
      <cc:Work
         rdf:about="">
        <dc:format>image/svg+xml</dc:format>
        <dc:type
           rdf:resource="http://purl.org/dc/dcmitype/StillImage" />
        <dc:title></dc:title>
      </cc:Work>
    </rdf:RDF>
  </metadata>
  <defs
     id="defs11" />
  <sodipodi:namedview
     pagecolor="#ffffff"
     bordercolor="#666666"
     borderopacity="1"
     objecttolerance="10"
     gridtolerance="10"
     guidetolerance="10"
     inkscape:pageopacity="0"
     inkscape:pageshadow="2"
     inkscape:window-width="1920"
     inkscape:window-height="1017"
     id="namedview9"
     showgrid="false"
     fit-margin-top="0"
     fit-margin-left="0"
     fit-margin-right="0"
     fit-margin-bottom="0"
     inkscape:zoom="1.3333333"
     inkscape:cx="137.45609"
     inkscape:cy="217.0066"
     inkscape:window-x="-8"
     inkscape:window-y="-8"
     inkscape:window-maximized="1"
     inkscape:current-layer="lifetime" />
  <g
     transform="matrix(0.29167,0,0,0.29167,5.9273134e-5,0)"
     id="g6">
    <path
       d="M 600.49,1.8873e-4 C 269.12,-0.25981127 0.27,268.15019 0,599.51019 c -0.2698,331.36 268.14,600.19001 599.51,600.49001 331.37,0.27 600.22,-268.15001 600.49,-599.51001 C 1200.27,269.13019 931.85,0.27018873 600.49,1.8873e-4"
       class="cls-1"
       id="path2"
       inkscape:connector-curvature="0"
       style="fill:#ef3749" />
    <path
       d="m 92.061,520.93 -0.13086,157.31 100.73,0.0801 0.0195,-29.279 -70.1,-0.0508 0.10937,-128.03 -30.629,-0.0312 z m 135.96,0.13086 v 157.3 h 31.051 v -157.3 z m 68.4,0.0391 -0.1289,157.3 30.84,0.0195 0.0488,-61.219 61.021,0.0391 0.0195,-28.18 -61.23,-0.0508 0.0293,-38.83 68.771,0.0605 0.0195,-29.061 -99.391,-0.0801 z m 134.69,0.11133 -0.12891,157.3 98.51,0.0801 0.0195,-28.85 -67.879,-0.0508 0.0293,-36.389 61.439,0.0488 0.0312,-27.279 -61.451,-0.0508 0.0312,-35.949 67.889,0.0606 0.0215,-28.84 -98.512,-0.0801 z m 131.8,0.10937 -0.0195,29.061 49.68,0.0391 -0.0996,128.24 30.84,0.0195 0.10937,-128.24 49.701,0.0508 0.0195,-29.07 -130.23,-0.0996 z m 165.46,0.14063 v 157.3 h 31.059 v -157.3 z m 68.398,0.0488 -0.11914,157.3 29.279,0.0195 0.0898,-109.37 45.17,109.41 25.512,0.0195 45.359,-110.23 -0.0801,110.26 30.15,0.0293 0.12891,-157.3 -41.699,-0.0293 -46.25,113.55 -47.16,-113.63 -40.381,-0.0312 z m 212.77,0.16992 -0.1211,157.3 98.51,0.0801 0.022,-28.85 -67.881,-0.0508 0.029,-36.391 61.441,0.0508 0.02,-27.279 -61.439,-0.0508 0.029,-35.939 67.891,0.0488 0.02,-28.84 -98.52,-0.0801 z"
       id="path4"
       inkscape:connector-curvature="0"
       style="fill:#ffffff" />
  </g>
</svg>
