<?xml version="1.0" encoding="UTF-8"?>
<svg id="svg28" width="1542.9pt" height="323.98pt" version="1.1" viewBox="0 0 1542.9 323.98" xmlns="http://www.w3.org/2000/svg" xmlns:cc="http://creativecommons.org/ns#" xmlns:dc="http://purl.org/dc/elements/1.1/" xmlns:rdf="http://www.w3.org/1999/02/22-rdf-syntax-ns#">
 <metadata id="metadata34">
  <rdf:RDF>
   <cc:Work rdf:about="">
    <dc:format>image/svg+xml</dc:format>
    <dc:type rdf:resource="http://purl.org/dc/dcmitype/StillImage"/>
    <dc:title/>
   </cc:Work>
  </rdf:RDF>
 </metadata>
 <g id="g867" fill="#fff">
  <path id="path11" d="m0 10.955h203.03c13.94 0.33 28.12 3.54 39.95 11.13 16.29 10.26 28.06 27.79 30.46 46.99 2.69 16.79-1.61 34.65-12.36 47.92-11.37 15.07-29.06 23.97-47.22 27.85l66.45 99.07h-48.87l-66.45-95.775h-69.01l-27.94-39.955h135.05c6.27 0.17 13 0 18.32-3.78 13.05-8.34 16.5-27.45 8.59-40.42-4.24-7.39-12.34-12.68-20.96-12.76h-180.81z"/>
  <path id="path13" d="m1137.3 11.32h184.67v34.19h-71.605v198.57h-42.295v-198.57h-70.77z"/>
  <path id="path15" d="m1339.8 11.255h43.91l57.59 178.61 57.69-178.61h43.92l-81.26 232.8h-40.7z"/>
  <path id="path17" d="m350.06 72.915c19.75-1.69 40.55-0.62 58.63 8.22 13.09 6.38 23.52 17.87 28.62 31.51 4.2 10.56 5.47 22.02 5.65 33.31v98.115h-40.68l-0.08-24.775c-9.5 14.47-25.55 23.78-42.36 27.02-15.88 3.01-32.82 1.28-47.46-5.71-11.91-5.71-22.18-15.53-26.94-28.01-5.39-14.02-5.06-30.59 2.49-43.77 5.95-10.57 16.15-18.21 27.26-22.73 11.63-4.69 24.28-6.52 36.77-6.31 16.7 0.03 33.39 2.61 49.34 7.56 0.1-7.65-0.18-15.7-4.22-22.46-6.02-10.69-18.24-16.17-30-17.52-17.83-1.5-36.36 2.31-51.5 12.06-2.46 1.52-4.74 3.29-7.17 4.84l-15.07-27.09c14.81-15.19 36.07-22.11 56.72-24.26m-0.95 92.91c-7.37 0.95-14.92 3.67-19.95 9.37-6.47 6.93-8.46 18.04-3.99 26.53 3.17 6.22 9.31 10.47 15.89 12.42 22.32 5.88 47.675-3.22 61.505-21.62v-20.26c-11.03-2.94-22.205-5.02-33.545-6.24-6.61-0.71-13.31-1.23-19.91-0.2z"/>
  <path id="path19" d="m531.79 74.685c18.44-3.73 37.97-3.49 55.92 2.54 11.94 3.99 23.07 10.14 33.21 17.57l-18.84 29.16c-14.1-11.64-33.04-16.64-51.1-14.84-13.39 1.3-26.68 7.03-35.66 17.24-16.89 18.87-16.26 50.78 1.56 68.84 10.19 10.43 24.83 15.68 39.24 15.98 16.43 0.37 33.09-4.88 45.98-15.17l18.86 28.81c-15.75 11.79-34.29 20.45-54.03 22.38-18.79 1.75-38.19-0.79-55.5-8.49-15.58-6.93-29.13-18.6-37.7-33.4-9.72-16.53-13.09-36.35-10.95-55.29 1.65-16.33 7.73-32.33 18.07-45.15 12.52-15.89 31.26-26.16 50.94-30.18z"/>
  <path id="path21" d="m759.99 82.025c13.09-8.75 29.57-11.01 44.97-9.23 14.34 1.54 28.28 8.66 36.86 20.42 11.9 15.87 15.2 36.38 15.45 55.75v95.11h-40.565v-89.16c0.15-12-0.885-24.76-7.495-35.13-4.83-7.96-13.98-12.92-23.25-12.98-11.69-0.68-23.68 3.8-31.56 12.56-9.72 10.65-13.165 25.52-13.275 39.59v85.12h-40.575v-168.2h40.57l0.04 28.11c4.46-8.63 10.58-16.64 18.83-21.96z"/>
  <path id="path23" d="m916.4 83.305c14.62-8.7 32.06-12.07 48.93-10.8 15.26 1.09 30.22 7.22 41.39 17.74 3.53 3.08 6.24 6.92 9.29 10.45l-0.05-24.81 40.51-0.01v156.1c-0.42 17.24-3.54 34.73-11.29 50.28-6 12.14-15.41 22.64-27.13 29.5-15.86 9.49-34.75 12.42-52.98 12.21-14.06-0.37-28.22-1.98-41.59-6.49-11.54-3.77-22.27-9.79-31.67-17.44l16.21-31.87c12.08 10.36 27.29 16.84 42.95 19.33 13.88 1.96 28.69 0.97 41.4-5.34 9.84-4.79 17.51-13.75 20.75-24.2 3.5401-11.053 2.88-25.731 2.88-38.65-5.68 7.84-12.89 14.59-21.42 19.23-29.11 16.2-68.58 10.59-92.1-12.98-13.3-12.87-21.4-30.46-24.42-48.58-3.32-20.44-1-42.06 8.19-60.75 6.66-13.52 17.06-25.32 30.15-32.92m46.03 23.17c-10.14 0.61-20.19 4.33-27.79 11.15-10.35 9.14-15.84 22.82-16.83 36.41-1.53 17.17 3.64 35.69 16.65 47.54 18.62 17.01 50.43 15.72 68.2-1.92 10.03-10.13 14.5-24.67 14.27-38.71 0.03-15.41-5.25-31.47-16.91-41.99-10.01-9.29-24.12-13.33-37.59-12.48z"/>
  <g id="g855">
   <path id="path841" d="m688.1 25.733a26.714 25.733 0 0 1-26.714 25.733 26.714 25.733 0 0 1-26.714-25.733 26.714 25.733 0 0 1 26.714-25.733 26.714 25.733 0 0 1 26.714 25.733z" style="paint-order:stroke fill markers"/>
   <path id="path25" d="m640.66 75.865h40.515v168.23h-40.515z"/>
  </g>
 </g>
</svg>
