<svg enable-background="new 0 0 2500 1046" height="791" viewBox="0 0 1183.2825 791" width="1183.2825" xmlns="http://www.w3.org/2000/svg" xmlns:xlink="http://www.w3.org/1999/xlink"><linearGradient id="a" gradientTransform="matrix(3.4869971 0 0 -3.4869971 4603.637 2877.3667)" gradientUnits="userSpaceOnUse" x1="-1176.1934" x2="-1079.5637" y1="640.3396" y2="640.3396"><stop offset="0" stop-color="#1985c3"/><stop offset=".436" stop-color="#1983c1"/><stop offset=".593" stop-color="#197eba"/><stop offset=".705" stop-color="#1a73af"/><stop offset=".795" stop-color="#1a659e"/><stop offset=".873" stop-color="#1b5288"/><stop offset=".94" stop-color="#1c3b6d"/><stop offset=".955" stop-color="#1c3566"/><stop offset="1" stop-color="#1c3566"/></linearGradient><path d="m2202.63 1033.508c1.876-5.273 3.704-10.524 5.371-15.938l-4.99 14.41c-.094.537-.266 1.058-.381 1.528m-769.015 82.737c-4.528-3.049-9.423-5.517-14.566-7.347 0 .235 5.824 2.856 14.566 7.347m774.689-102.702.114-.651.188-.771c1.037-4.038 1.923-8.17 2.854-12.118-33.437 102.69-105.588 180.614-149.965 221.022 6.096-3.992 11.803-8.55 17.041-13.613-9.466 9.758-12.273 12.973-14.561 16.984 5.404-4.948 11.003-9.681 16.781-14.188-1.709 3.804-1.709 3.804-37.563 39.043 44.648-39.459 117.294-103.436 156.717-208.425l3.069-8.872c1.965-6.1 3.74-12.26 5.324-18.469m-7.293 24.732-.734 1.975c.198-.673.557-1.262.734-1.975m-742.939 89.667c-8.059-4.069-16.201-7.967-24.424-11.691 8.023 4.537 15.457 9.444 24.424 11.691" fill="#0a3064" transform="matrix(.47331374 0 0 .47331374 -186.61531 140.4527)"/><path d="m854.62997 633.1126-.1136.3995.2641-.7275.3479-.9348.5249-1.4298c.099-.3233.1851-.5103.2466-.789.057-.232.1358-.4658.1827-.7223z" fill="#e4e5e6"/><path d="m1037.5279 346.43316h-187.05264v34.00191h76.51164v209.85503h45.44092v-209.85503h76.53918v-33.99717l-11.4391-.005z" fill="#ccc"/><path d="m854.52397 633.532 1.1369-3.0974c.185-.505.3034-.9348.4288-1.5065zm-194.19359-139.5205c-2.0636.8235-3.3316 1.391-5.0426 2.5332.1528.039.3601.062.5154.1206 2.9076.471 2.9076.471 14.5956-3.9507.2513-.1155.612-.222.8855-.3848-5.1761.3526-7.7779.6981-10.9539 1.6817m-124.1407 96.1702.30103-.1306c-6.17816 3.4135-12.32414 6.8852-18.43747 10.4133 5.38585-3.2034 12.68718-7.2971 18.13644-10.2827m103.48629-113.0514c-.4298.2418-.9149.3677-1.4081.3649h-.052c.4657-.1283 1.0034-.239 1.4597-.3649m53.03852-11.7278c-.3601.072-.7814.1529-1.1392.3081-.6461.1065-1.3466.2367-2.0121.2367 1.0011-.2021 2.1209-.3843 3.1513-.5448m6.23121-.8335c-.5968 0-1.21311 0-1.81751-.034 8.90681-1.6273 16.96831-2.8655 24.23982-3.6692-2.08351.6116-4.16231 1.3537-6.16441 2.0414-.7152.232-2.4632.284-3.2673.7176-.1027.3559-.4194.6072-.789.6266.074-.044-1.117.2836-1.117.2836-2.1058.3573-4.3673.081-6.5838.081-1.127 0-2.2932-.052-3.4865-.052-.301.01-.6607.02-.9987.01m-169.54007-96.61121c-30.86575 11.28426-69.28414 31.08298-101.75489 60.57231-9.24713 8.4481-18.02048 16.361-33.0922 23.1843v-.077c-1.59791 3.6942-3.6199 8.8132-5.18799 12.4705-2.90284 7.8367-4.36964 11.9597-5.85679 17.1747 0 .3578.16045.8756.35025 1.2675 2.33533.2419 6.80058-2.2932 23.35472-12.3488 29.96029-18.2875 43.88802-26.4521 71.18308-39.4029-2.18482 7.9748-5.68924 12.6942-14.66705 19.8039-2.51282 1.6864-5.75028 4.0123-8.42356 5.4615-9.71098 5.6004-19.94165 10.2166-29.73641 15.7203-11.4736 6.589-22.4985 13.9869-34.02936 20.4249-1.03561.5722-2.4778 1.3191-3.52098 1.9112-4.55187 2.1082-7.19059.9741-6.97334-3.2403 0-.2513.0393-.5055.10129-.8581-.5817 2.2885-1.17619 4.7398-1.94816 7.6393-4.33745 19.3178-5.16858 35.8568-5.84874 49.0348-.0322 41.1527 8.06337 65.082 8.47752 66.0116.0762.444.35262.8629.49036 1.2851.85622.15 1.88662.3573 2.75184.5599 2.46076 11.3752 2.74001 12.5712 4.59683 17.8577 4.94376 3.5929 3.01312 9.8733 6.04611 14.1591 1.52643-.5769 3.6767-1.0209 5.35791-1.0209l-2.48537.8382c2.48537.9916 5.84211 1.7783 8.37386 2.3746-.28588 9.161-.28588 9.161.95231 11.2843.76393-.5055 1.76735-1.1837 2.50526-1.6968 14.13929 3.0581 14.13929 3.0581 21.33981-2.9142l5.84638-5.0479c-5.92306 6.9317-5.92306 6.9317-5.37542 11.972 4.27071.6068 4.27071.6068 89.78288-58.9346l-.0937-.072c38.09796-21.5372 74.3022-46.4676 112.075-68.5595-28.36048 8.4184-52.92547 24.9725-79.82104 36.4163-8.68247 5.0673-16.54611 9.6759-23.82046 13.8951-.13584-.1676-.33038-.3579-.47332-.5107-.15524-.3228-1.1563-2.51-1.81515-2.7789-.41936-.03-.76677-.03-1.12696-.03-.44871 0-.8851 0-1.38587-.1675-1.61258-.56-4.30573-.9765-5.99736-.56-.42882.077-1.07963.5055-1.41521.7275-.81836.3578-1.28978.6262-2.10577 1.0356-.82073.2073-1.40054.8184-2.26859 1.0309-.86285.2982-1.92308.1628-2.95159 0h-1.4791c-.34079 0-2.51992.1775-2.76463 0-.5817-.6513.28873-2.0665.52538-2.5426.25607-.515.39427-1.1611.49556-1.7333.1259-.3948.32091-.6361.78381-.6608.29582-.4335.29582-.611.52064-1.107.66312-1.5312 2.51993-2.9 3.88875-3.8717 1.73848-1.2676 3.76284-2.5815 5.55812-3.7851 2.04945-1.2846 4.2267-3.1736 6.60131-3.8348.8089-.1969 1.74322-.1969 2.54738-.3891 1.04034-.3602 1.00863-.6882 1.48715-1.623.22435-.505.56229-.5817.42598-1.1019 0-.274-2.90899-1.4895-3.361-1.5931.0942-.1141.21441-.205.35025-.2637-.13821.1259-.30813.1501-.47852.2637-.93905-.1406-.60631-.1576-1.39059.1065-1.06023.4439-1.94532.7743-2.85266 1.4057-1.04793.799-2.22695 1.2477-3.31652 1.9056-.79422.708-1.23772 1.3442-1.70914 2.0863-3.16836 2.0022-6.29507 3.8959-9.36498 5.9008-.16992.077-.40421.1875-.66311.1875-.77482.2267-1.40574.1259-2.08873.3034-2.05939.4392-4.20918 1.3096-6.21888 1.8937-1.3835.3573-3.34159.5916-4.55943 1.6031-.53295.4194-.89977.9391-1.38633 1.4692-.88226.9745-2.35947 2.0172-3.46182 2.6335-1.34658.7668-2.15263.5916-3.64167.5916h-.87753c-.61436.062-1.14968.1628-1.62536-.034-.15288-.044-.23665-.044-.38717.034-.19737-.034-.19737-.034-.4487-.4141-.027-.2173 0-.8903.14578-1.1218.45864-.7696 1.42988-1.1023 1.70156-2.1384-.72227-.8898-3.90578-.3574-5.00292 0-2.34149.5921-4.61434 1.4285-6.78117 2.4953-1.82936.8804-3.74297 1.1838-5.55576 2.0717-2.42384 1.1317-3.90057.2982-6.47303-.1827-.0317-.8681-.0317-1.2945.36256-1.9359.36019-.5599 1.07489-1.0554 1.44313-1.5979.15761-.1893.26174-.4179.30055-.6607.878-.905 1.80285-2.0021 2.70026-2.9095 1.83977-1.8639 4.5864-3.2034 6.54214-4.8604 2.35615-2.1531 4.65787-4.364 6.90423-6.6311.3867-.3574.86569-.6409 1.25475-1.1019.3034.1008.57745 0 .81174-.2736.3919-.3753.32564-1.0356.7147-1.4895.2395-.072.45107-.3081.60916-.4757 1.07489-1.0261 2.12565-1.7139 3.28242-2.4806.60632-.2466.97645-.7029 1.29452-1.0976.16282-.5003.16282-1.5506-.13821-2.0022-.7644 0-1.16388 1.1521-1.52407 1.5023-.94663.9765-2.23451 1.3954-3.4249 2.0807-3.0453 1.4351-6.95866 3.0875-10.4555 3.1736-1.00958.086-2.02484.076-3.033-.03-.55472-.044-1.20836-.044-1.76735-.044-.0767 0-2.58192.1974-2.83609 0-.55757-.7692 1.18139-3.1068 1.52643-3.4869.67873-.9765 1.42042-1.9406 2.17015-2.8257.38243-.4293.68535-.9764.91254-1.507.40942-.3896.0738-.2168.87043-.631 2.31497-1.3375 4.58877-2.7447 6.81855-4.2191.4558-.3606.97834-.7989 1.53592-.8434.52537-.1406.87326 0 1.34373-.2641.5552-.3579 1.14684-.9689 1.66701-1.3192 2.60891-1.6963 5.7678-2.8233 8.57124-4.3104 3.81254-2.0712 6.97333-4.976 10.92645-6.8252 1.18376-.6882 2.45129-1.2945 3.74817-1.7437.8851-.2882 1.67932-.4094 2.51519-.9196 1.73564-1.3442 3.59292-2.3131 5.63432-3.2844 1.99502-.9641 4.20681-1.6471 6.17958-2.712.57981-.338.99586-.8487 1.52407-1.1762.51024-.2073 1.06259-.328 1.59507-.3948.91019-.5154 1.889-.9636 2.79398-1.4398.77434-.434 2.19475-1.0654 3.02069-1.3243 1.12696-.4293 1.89893-.7668 2.84319-1.3783.98875-.4194 1.36646-.7374 1.81516-1.7877.17465-.5055.6385-1.5563.17465-2.0859-1.63198-.1359-3.46418.8534-4.91725 1.5264-1.52833.6409-3.09216 1.0456-4.55423 1.7087-.84817.3181-1.53354.8283-2.26623 1.3291-.4558.1921-.76914.1064-1.10708.067-.20968.044-.42598.044-.63613 0-.68016.017-1.34658.1893-1.94816.5055-.97645.1628-1.97751.5301-2.92697.8089-1.89894.6607-3.88638 1.7531-5.60025 2.8555-2.20943 1.2131-4.27828 2.6628-6.65289 3.6738-2.76464 1.3689-5.66463 2.9251-8.64083 3.734-2.31071.6409-4.60392 1.383-6.74661 2.1328-1.41521.4809-2.88011.9049-4.18977 1.4351-.71281.2981-.79422.5646-1.31912 1.0062-.76961.6608-1.65707 1.0702-2.7225 1.3636-2.69222 1.0309-5.39295 2.1579-8.07569 3.1315-.90261.1576-1.55105.7222-2.47401.8089-1.10708.1628-2.40159.062-3.67859 0-.66832 0-1.48905-.057-2.13559 0-1.6424-.087-2.66854-.2589-4.24136-.9249-.11076-.062-.58928-.1675-1.10235-.444 7.23412-5.0426 14.62823-9.852 22.17096-14.4204 8.20252-4.9764 16.57686-9.6632 25.10787-14.0532 9.04029-4.8604 18.18092-9.3678 27.47255-13.7398 9.62152-4.6039 19.40113-8.8718 29.19352-13.027 9.99923-4.2092 20.10495-8.15 30.30818-12.0061 10.14216-3.8324 20.36806-7.4376 30.67116-10.8133 10.0087-3.1731 20.24701-6.4012 30.45631-9.2988 9.75741-2.7769 19.58291-5.3096 29.46712-7.5953 9.2779-2.1781 18.61401-4.0984 27.99791-5.7602 4.2954-.7374 8.5788-1.3858 12.87701-1.9898 1.1416-.1259 2.2241-.2073 3.3165-.4761.6432-.1013 1.3561-.4241 1.9605-.6608l-.7644.5599c2.0717-.2565 4.0814-.5301 6.0683-.7691 1.8715.052 3.7482.052 5.578.2116.789.03 5.0304-.4189 5.1094 1.117.1482.9547-1.0801.8434-1.6821 1.0011-.8359.3578-1.6173.7573-2.3765 1.0876 2.2094-.1107 4.39901-.081 6.59841-.081 1.2255.03 2.3131.03 3.487.03.4217 0 2.056-.2267 2.1057.4341-.052.3895-.1874.5007-.683.5007-.9963.7744-2.0811 1.4891-3.1172 2.1427-1.161.7076-2.0192 1.0011-3.4419 1.3584-2.45561.6314-4.87281 1.4403-7.27161 2.0074-3.5683.8089-7.3018 1.5065-10.8795 1.844-.8851.1013-2.0149-.1628-1.6424 1.2084.7573.1528 1.472.1528 2.2491.087 2.927 0 5.8194.062 8.781.062 1.4914 0 3.0826.1728 4.5073-.15 1.0749-.2173 2.0466-.3432 3.139-.2268 1.24821.1259 2.58201.4857 3.84951.7697-15.23931 1.4649-31.76082 3.9725-47.22392 8.0805-12.69001 3.4864-15.17731 3.7141-21.42121 3.2994 1.0157-1.3835 2.4683-3.1787 3.652-4.3915-7.74531-1.1714-54.03533 14.82-57.17433 23.0462.1358 0 .2565 0 .3602-.081-.5179 1.2822.2021 1.6121 1.2968 2.0173 3.0359.6555 6.1105.895 9.21021.7663 3.7208.1311 7.3875.1311 11.05.057 2.7935.072 5.605.072 8.39851.072 5.2505 0 10.4976.3994 15.7325-.7616 4.2461-.9746 8.45291-2.6018 12.58821-3.9929 4.0932-1.2377 8.1722-2.8086 12.2953-3.8859.9348-.3479 1.9335-.55 2.8754-.8756.4439-.091 1.52121-.7668 2.02901-.7668.9765-.034 1.1194.5008.7943 1.2941-.8974 1.5415-5.59031 2.5057-6.82811 2.9052-2.0565.7696-4.2536 1.4918-6.3471 2.3944.079 1.926 2.9275 1.5861 5.1019 1.3338.8212-.15 1.6031-.2835 1.9874-.3573.2073.067.444-.03.799-.03.4387 0 .9584-.091 1.2675 0 .7989.4586.3891 2.2539.1922 2.8948-.3503.8997-1.021 1.6992-1.5118 2.3793-.6707.9589-1.2477 1.4351-2.4338 2.0121-.2144 1.6968 10.69221.7227 11.70791.5552 1.862-.3801 4.0587-1.7877 5.9945-2.0466.6953-.1108 1.2576.057 2.0911-.1529 1.0011-.2599 2.0201-.4464 3.0477-.56 1.2031-.2073 2.2686-.7989 3.546-.9196.8601-.1108 1.69641 0 2.51761.03.8184-.03 1.7432.1112 2.6922 0 2.138-.1458 4.2437-1.1757 6.4115-1.4497.5448-.071 1.0257-.071 1.5634-.071.5575 0 1.0796 0 1.5633-.044 1.8597-.2987 3.7482-.5921 5.4819-.9197 2.404-.6016 4.77391-.8803 7.15561-1.2481 3.2999-.6361 6.9714-.1354 10.3149-.049 3.1068.071 6.1427 1.1416 9.16811 1.4644 3.6374.4861-.656 2.8702-1.92311 3.5934-4.3175 2.6704-8.8789 4.9258-13.6215 6.7362-3.1366 1.3442-5.7105 2.2345-9.16571 2.0963-1.8715-.052-3.2696.116-5.0843.7422-1.1024.3796-2.1186.7468-3.2772.9149-.9888.03-2.0149-.1013-3.0723-.1013-1.4034 0-3.0306-.2641-4.4856-.091-.6707.1922-1.0157.4194-1.8071.567-.4984-.03-1.0408-.03-1.4379-.071-1.0749-.071-2.10581-.071-3.09741.328-1.0796.4392-1.0995.7667-2.3372.868h-1.3362c-1.0706-.1013-2.1701-.1013-3.228.3134-2.572 1.1515-5.2765 1.1714-8.0094 1.2377-.3597-.025-.6063-.072-.9637-.025-.1675.1581-.3947.2688-.6115.4856-1.6845.7275-3.4547 1.2993-5.20551 1.8298-3.7576 1.4744-7.2398 3.5925-11.2696 4.7393-.9419.2689-1.4744.1676-2.3154.3602-2.3969.5723-4.9911 1.4299-7.3388 2.022-1.05311.505-2.31781.7668-3.41021 1.0924-1.9557.4956-3.2427 1.5113-5.0597 2.3254-.8932.4809-1.8152.7938-2.6908 1.277-1.3863.6944-2.8839 1.1407-4.4241 1.3191-1.373.1728-2.5719.5922-3.9228.8189-1.3811.2115-1.7976 1.1563-2.7741 1.8147-.89971.5817-2.08591.38-2.97901.8903-1.8663.9863-3.6639 2.0664-5.5577 3.0774-.8955.4241-1.6821.7521-2.4806 1.1166-1.127.6565-2.6117 1.285-3.5366 2.2345-.7644.8728-.7644 2.8702-.515 4.1278-.087 0-.1386.071-.2466.071.1084 0 .1581-.052.2466-.052.046.1681.07.3418.071.5155 2.298.6607 4.3772.5722 6.8257.1628.886-.055 1.7631-.2149 2.6117-.4757 1.26-.2835 2.2611-.3133 3.4746-.4908 2.26861-.1974 4.33461-1.4251 6.45561-2.3254.318-.1008.6115-.3521.8827-.515 27.75601-6.1947 53.94832-19.1204 82.87343-21.1282.50551 0 48.34193-2.1526 80.55324 12.8301 9.99641 4.5788 58.38513 31.6273 33.46942 110.5358l2.3647-6.821c5.65-18.923 7.2692-28.8532 8.8827-39.9595l.133-1.0356c2.1398-19.6359 2.0835-23.4503 1.5927-44.25-2.2269-29.3985-4.7-39.2373-11.3013-61.6818l-.8652-1.489c-.9003-2.4953 7.7524-23.8111-39.38822-70.92899-20.12441-19.02389-49.06132-20.58488-71.87083-34.38198 3.3264-1.16151 3.3264-1.16151 8.1301-.18743-19.11571-12.04111-42.48982-9.30866-62.76663-17.07385 2.5252-2.09631 3.8982-3.32361 10.31491-3.06707-.1751-.90971-.3398-1.82179-.4931-2.73481 30.46101-3.61754 52.09192 2.80912 67.36813 11.04714-1.9463-1.42373-3.85041-2.90473-5.70861-4.4411 4.48551 2.0414 6.70441 3.10209 13.69291 8.15473l.6655.57176-1.8047-1.48905c-30.94481-23.58902-75.37763-53.6184-212.16294 1.60312l-10.33953-3.47745c-.0937-.20731-11.56022 6.37223-11.67382 6.22172" fill="#fad50a"/><path d="m441.75649 371.57748 4.76627-4.86046c-2.05418 2.06933-3.44714 3.49495-4.76627 4.86046m382.04466 19.68559c-.2253-.24044-.4369-.49319-.6338-.7573.1037.16756.1827.25654.3034.41415zm-62.90483-57.84746c-.15-.10129-.293-.13584-.3668-.22198v.0194zm-319.24632 38.32753v-.0298c.0582-.0265.10271-.0752.12353-.13584l-.12353.16566m301.00912 23.84034c-4.25651-2.02199-6.69741-3.11204-9.75031-3.84946-1.7139-.47095-3.0827-.66832-5.0848-.8141.1254.0667.2442.14436.355.23193 2.0442 1.17571 2.0442 1.17571 13.7157 4.25319.2428.10224.5007.16187.76441.17844m130.20855 125.0523c-3.1144-28.2317-4.8671-34.2707-11.0959-56.8359l-3.741-10.5863c-9.10851-23.9856-19.09071-39.36776-28.74012-54.30602-3.0893-4.41649-3.2427-4.63326-7.0107-9.50366-.1259-.13064-.2613-.33274-.4194-.4487h.077c-14.59321-18.1956-20.95791-23.5218-36.91472-37.10449 2.87021 1.84924 2.87021 1.84924 6.94921 5.0531l-1.8099-1.623c-41.07372-35.60265-81.93634-46.68435-130.66496-52.304 5.2178-.82357 53.61842.78381 101.02314 30.21208-46.09502-28.90763-88.92474-34.78618-111.83315-36.69032-5.4762-.22199-11.8039-.46574-18.96471-.49556-20.75571-.12591-48.99223 3.65445-85.99779 15.49297l.15288-.16282s-23.60842 7.13852-45.54273 17.64088c-.55236.30765-1.13643.55472-1.65944.80368l-.8974.44397-4.49033 2.28327c-.27594.16755-.52727.28351-.83587.4487-.93952.53011-1.90177 1.03087-2.83089 1.59033-2.16115 1.18754-4.28822 2.4371-6.37695 3.74818l.0251.0345c-1.52691.95894-3.08743 1.9013-4.69527 2.94165l-3.44479 2.47117c-3.0666 2.3694-6.11426 4.76437-9.1411 7.18584-5.9576 4.89217-6.18195 5.11889-16.17598 14.54825 16.9328-15.53227 64.48995-42.92151 141.03141-51.50459-3.68901 3.0775-8.06338 4.74924-19.32492 7.60947-39.76972 9.08431-99.79443 22.84875-127.40518 49.76705-.13395.15382-.29014.28683-.46338.39427-2.87254 2.9814-5.30158 5.89606-12.67724 14.62303-6.91179 8.51491-7.29612 9.15104-17.40184 24.44239l-4.98116 8.33698c-.25133.7942-.45344 2.0021-.63377 2.8304.73506.1159 1.65991.2073 2.3448.2788-5.69823 23.4929-5.69823 23.4929-5.74272 23.6283 9.03273-7.3582 9.03273-7.3582 9.4322-7.6147-5.3191 12.0875-5.3191 12.0875-6.24869 15.3254.0691 0 .0961-.1827.15809-.1827-.87327 2.1825-1.90604 5.154-2.55022 7.3682.58975.6981 1.30493 1.7086 1.80285 2.3845 4.33508-2.7793 7.90814-6.5129 12.58873-8.8629l-5.41281 3.7799c3.70368-1.5898 8.73642-3.5456 12.48743-5.0076-3.75101 4.8746-7.63455 9.3234-11.30651 14.164 3.822-2.298 7.24974-5.3016 11.49063-7.1291l1.66228 1.6372c5.70864-.7275 9.06491-2.5474 25.21626-11.9446l9.81133-5.6344c-10.10242 6.421-11.49585 7.2451-14.2406 11.876 3.61517-.3432 3.61517-.3432 23.9492-10.0092 26.70531-12.3909 43.98126-19.2066 96.34444-31.55582l-.1524-.0568c76.59537-12.62281 76.59537-12.62281 128.48009-11.04477-18.6297-3.75575-18.6297-3.75575-84.95463-2.86025-68.33469 7.63456-95.65719 17.98354-107.4072 22.41004-19.30268 7.3832-19.76653 7.235-23.37413 6.651 16.61047-12.2537 92.82582-38.85295 112.45698-41.65686-.52254 0-60.94719 8.65028-94.91692 26.21969-19.32256 9.85347-42.23094 16.59347-42.30004 16.61047 8.74872-8.1647 18.76072-15.01256 26.66128-24.00315-7.75052-1.91124-7.75052-1.91124-21.25557 1.17618 52.68833-66.94881 342.26028-85.20878 392.54271 49.02917-3.12671-4.5372-31.56142-44.54358-81.46574-65.61976-12.36111-5.22018-12.75351-5.64995-15.23881-8.09083.6607-.21725 1.4791-.67352 2.2241-.98638-6.5616-3.79031-40.26102-14.25527-53.58912-11.68376 47.94722 11.99189 122.53765 47.29113 120.56485 66.04383-20.20761-6.7712-34.98071-22.9453-54.95692-30.17753 22.55291 12.33453 60.33053 33.01603 66.29093 53.08793-.6565.39-1.6254.9693-2.2587 1.4104-2.4991-1.6059-4.88831-3.3772-7.15081-5.3016-.04.1628-.1235.2513-.1235.3526-4.5273-4.8927-31.04611-25.5788-48.52892-33.0629-24.71541-10.53167-51.76862-12.77328-77.34223-20.54037 27.78821 10.72624 58.08642 14.41527 84.28673 29.31187 31.27702 17.5746 54.59483 48.9232 54.88543 49.202 41.57262 56.1757 25.13721 113.537 19.01451 135.0174l-5.1184 13.6929 5.4369-14.2599c5.8866-18.0702 6.4063-21.027 10.5961-43.5179 2.7717-23.3348 2.616-28.1404 1.8246-51.2016m-286.17969-112.15984.25701.0194c-6.37459.78901-14.8895 2.21463-21.20966 3.15889 6.24159-1.07016 14.64953-2.31308 20.95975-3.1783m89.187-100.29045c-11.333-1.39438-22.73281-2.1834-34.14961-2.36515-.6091 0-1.5269-.0194-2.1384-.0194 19.71731-.54052 33.88881.65081 48.92592 3.95501-4.7175-.76677-6.9563-1.00106-12.65261-1.57045m-228.05344 57.25298c-.36777.47615-.79469.90355-1.2699 1.27227l.33037-.27879c.27642-.29298.63188-.61625.93953-.99348m374.54931 24.04765c-.1184-.15809-.2812-.34315-.417-.53532.1358.19737.2144.27878.3403.44397.03.054.047.0909.077.0914" fill="#f2940a"/><path d="m685.78329 757.7409c-.034.025-.057.025-.096.01.022 0 .046 0 .096-.01m108.24025-213.2373c.5325-.7128 1.0872-1.6968 1.5336-2.4858-2.36 8.6919-7.0112 19.2686-13.43981 30.9689-1.5236 2.3505-3.0969 4.7644-4.6872 7.2521-7.716 11.6563-22.87101 14.1842-31.32911 24.9725-2.022-1.1364-2.5815-1.5165-5.95241.3233-.8434-5.2108 7.59011-12.3691.8212-15.5844 6.81531-14.8204 18.85401-26.3507 29.05292-39.0597.6064 2.6728 2.3354 3.6639 4.5817 3.6639 6.9662.01 18.95051-9.462 19.41911-10.0508m-75.90054 46.9527c-39.44931 32.2341-5.2865 22.8294-4.8648 22.632 3.805-1.4602 7.25691-3.7089 8.83781-4.7819-37.24032 41.4296-143.49268 87.352-222.11246 54.5579-20.77516-8.6971-34.97599-13.8998 4.71989 10.6727-.4487 0-.84061-.1211-1.21311-.2513 16.89398 8.4724 37.83622 19.9048 27.24536 20.2769 0 .212 0 .5675-.0469.7989l-.48798-.1675.53011.2589c.36492.3133.36492.3133 29.07518 10.9908-1.79764.673-3.27958 6.934 20.76286 9.3626 28.03435 2.7301 53.20897-.4388 76.55618-7.1901-49.13763 34.1183-106.15675 55.7857-162.59563 44.7461 1.46443.5401 3.48643 1.3783 4.98353 1.9557 13.12072 4.5666 21.58595 6.2904 34.60586 7.2621-.0667.6361-.14578 1.4597-.16992 2.3079 9.17566 4.7965 21.33745 1.7583 23.34194.6735 5.25946-2.7078 7.24974-3.2327 41.0718-5.7015-7.50155 6.1502-18.07018 3.245-25.86991 8.6062.23192 1.0157 1.14684 2.4953 2.07406 3.1537 42.74165-5.8364 86.81427-11.8584 196.08492-100.7364 1.4767-1.1056 3.0874-2.0205 4.7937-2.7225l-.2617.2514c-7.9815 7.6047-7.9815 7.6047-76.04263 65.3268-16.25831 13.7644-39.70632 15.3306-54.87833 30.9003.2073.6016.4955 1.3636.6309 1.995l-.4785.3275.6934-.2267c3.6913.8487 7.1901.8534 10.56341.3602-6.68981 2.7249-14.85971 6.2141-24.88072 10.6922 0 .5447-.5249-.365-.1652 3.5366 19.24871-4.4312 57.46503-9.3631 82.67654-24.4467 37.50352-20.6128 108.24215-82.8962 141.10577-151.0259.7639-1.7338 2.2142-3.8963 3.7108-4.9812l.096 1.8048c1.2131 2.4214 1.2131 2.4214-2.2365 14.7461 2.6781-5.7503 4.6754-11.6024 6.3964-17.6092 6.2264-56.649-31.12701-77.5221-39.73752-81.48-4.4558-2.0712-9.2523-3.7799-14.15401-5.2694 0 .039-.052.086-.052.1576-.3355-.212-.7866-.3379-1.1837-.5301-7.9929-2.2326-16.1296-3.9143-24.35301-5.0327-16.4594 39.0346-37.86651 61.9032-64.73463 83.7907" fill="url(#a)"/><path d="m843.57576 533.9374c-9.5827 38.0241-21.02701 55.5684-37.90872 81.2826-9.4146 14.3144-28.03431 17.54-38.38851 30.666-2.4437-1.3443-3.21291-1.7731-7.28431.4586-1.0773-6.4432 9.26651-15.1702 1.0801-19.1399 13.79901-30.1827 45.16022-49.0291 54.83153-81.9414-3.7113 4.6631-6.421 10.1369-10.18621 14.8767 4.25841-14.4919 10.79341-28.2223 13.94711-43.0124-.7199-.3327-1.4819-.6214-2.2094-.9049-.8406 1.4545-1.9061 3.405-3.3809 6.0683-20.40741 50.3289-47.20922 79.1546-81.09334 106.852-48.38072 39.5945-6.5246 27.9681-6.0115 27.8024 4.7421-1.9254 8.8055-4.6673 10.8843-5.8904-57.69462 64.1573-250.69727 137.1456-339.46916 12.6895.84534 1.2283 1.84403 3.0529 2.69032 4.3399 21.54903 32.7543 21.54903 32.7543 70.26058 62.8703-9.11176-1.561-15.63402-8.6351-24.19296-11.3131.15004.2636 20.90864 27.3172 82.96481 34.4165 66.18961 7.6094 84.99156 2.5175 104.85697-2.9246 16.9976-4.5992 32.27861-6.1843 32.32781-6.1843l-.3034.1628c-48.88862 14.9311-48.88862 14.9311-103.45881 18.3882-10.61548.656-20.79693-1.5757-30.95377-3.8812-9.69583-2.1819-19.39214-4.3871-29.36627-4.0785 0 .2225 0 .6409-.0644.8733l-.60631-.067.66832.2173c.49556.4757.49556.4757 35.66134 13.5476-2.18954.8137-12.59108 2.2634-55.8619-16.307.36966.2641 51.85294 24.8167 81.28074 27.7314 96.46564 9.4393 165.80887-37.2351 232.9082-82.4252 0 .3081-.123.7673-.1429 1.1369.8184.1259 1.8639.2561 2.7296.3574-.5273 1.4895-.5273 1.4895-7.7818 10.1426 15.821-12.7733 23.93601-32.592 40.71452-44.6449-1.4673 7.04-53.79313 91.1858-170.37598 118.2172 5.6542-.762 7.3927-1.055 13.5382-2.6633-8.0094 2.2885-8.229 2.4854-11.6293 3.6024 2.111-.2788 2.111-.2788 13.01761-2.4807-6.34951 3.1343-13.70061 4.6092-31.41812 8.2215 100.91425-17.4733 174.94768-74.8399 208.3655-161.772 4.5717-15.0694 6.4583-21.2116 8.2929-30.7569 3.1565-31.8445-7.5309-52.2079-18.92071-64.5425" fill="#0a3064"/><path d="m598.91938 664.6017c-6.67704-3.7652-10.68695-9.6073-13.43881-14.3045-1.16908-2.0125-2.26385-4.1083-3.34396-6.1156l-1.25996-2.3401c-1.31675-2.5105-2.97146-5.3461-4.87749-7.8736-.78949-.9963-1.63767-1.9448-2.5398-2.8408l-2.7031-2.8456c-.8406-.93-1.62961-1.7678-2.29083-2.6117-.67306-.8283-1.13406-1.5804-1.34611-2.128-11.86124-30.2462-14.64764-47.4066-18.9529-77.5226-2.20943-15.4883-11.69843-28.0689-27.10526-46.9035-1.93349-2.3159-4.04684-5.0626-6.33484-7.9796-1.56382-2.0665-3.23036-4.1524-4.86282-6.2757-5.06209-6.3376-9.19506-11.057-12.43538-14.2136-5.51599-4.6801-10.37881-8.7833-14.82039-12.5415-6.27331-5.2793-11.57726-9.7625-16.44197-13.8311-9.2618-7.5702-16.36388-12.8969-24.54795-18.4427-11.43432-7.7406-23.69266-11.60656-36.34245-11.60656-12.93093.0199-22.47152 4.17976-25.68958 6.41626-10.90893 7.4594-19.13039 12.0458-28.38225 15.8782-6.67041 2.7935-13.64848 5.082-22.45448 7.9621-2.81101.9296-5.83122 1.9254-9.09899 2.9961-10.01153 3.3808-17.1259 9.1704-22.15866 13.9145-1.21073 1.1322-2.36467 2.2539-3.47175 3.3194-1.23772 1.2382-2.38455 2.34-3.52098 3.3416-2.28847 2.101-3.87454 3.2081-5.29212 3.7481-1.52833.5552-3.98009.915-7.51622 1.1616-1.84404.1154-3.73587.1826-5.59741.2735-1.35368.081-2.69505.1628-3.96022.2173-11.49063.6607-20.70842 7.1139-26.65608 11.9862-3.09973 2.5175-5.95996 5.1241-8.73879 7.6662l-1.3144 1.2382c-3.52098 3.1338-5.97984 5.2841-8.37386 6.8304-8.14762 5.2845-15.85081 6.049-24.33353 6.9165-4.33461.3848-8.84245.8435-13.63381 1.8691-5.74555 1.1838-11.17067 3.0065-16.57781 5.5487-6.10102 2.8702-12.25078 6.5492-19.94686 11.91-3.30136 2.3088-6.57528 4.656-9.82174 7.0401-2.81858 2.0518-5.64947 4.1575-8.48793 6.145-12.69665 8.9238-23.59374 14.8152-35.405289 14.8204-11.683755.044-19.961539-6.7665-21.09796-17.3578-1.00627-9.3035 3.757632-18.7305 13.391936-26.5648l5.284553-4.2536c3.967781-3.1835 7.69135-6.1152 11.00786-9.0252 5.61728-4.8358 9.42225-8.7018 12.36626-12.512 7.24029-9.5505 9.11177-19.3945 5.95287-31.83-2.79397-11.2417-11.43431-18.8786-26.367839-23.3348-5.336132-1.6121-10.751315-2.5275-15.843697-3.3705l-1.760261-.3133c-1.556251-.2267-2.971461-.4241-4.194502-.6608-1.622521-.3232-2.791131-.6214-3.437681-.8903-8.095554-3.5777-25.704722-15.36227-29.230914-17.72694l-1.44976-.94947-.974551 1.41047c-3.229891 4.638-5.740342 8.3024-7.653953 24.33534-2.085891 17.6953 12.489806 39.3387 37.621817 43.2591 1.415681.2272 2.564881 1.2671 2.931701 2.6534.3583 1.3684-.13205 2.8186-1.24813 3.6885-26.589342 20.921-32.204265 29.8888-33.597226 53.3964-.87326 14.5388 4.250832 28.8333 14.018607 39.2027 10.677485 11.3037 26.121242 17.2414 44.72105 17.2414 4.937139 0 10.171519-.4586 15.517589-1.2675.18554-.062.36304-.062.57981-.062.78902 0 1.58324.2637 2.19949.7838.77671.5817 1.28457 1.5165 1.33853 2.4859 1.25996 16.361 4.23142 29.6005 7.92044 35.5136.91728 1.4796.68299 3.3857-.57224 4.5718-1.12933 1.0455-2.94875 2.0712-5.23012 2.9908-5.68118 2.1924-14.27466 3.5783-22.84875 3.5783-5.340872.03-9.340374 3.7037-12.536185 11.6217-1.053121 2.5569-1.891361 5.3068-2.710671 7.9332l-.22198.7517c-.461011 1.3295-.823571 2.5573-1.227781 3.7188-.33084.9187-.72227 1.8151-1.171451 2.6827-1.07063 1.8838-2.660971 3.7799-4.865192 5.7456-.66074.5722-1.47957.868-2.345271.868-.17985 0-.42408-.025-.61625-.025-1.063541-.205-1.983661-.8638-2.520391-1.8048-2.628311-4.6953-6.768863-7.706-12.259776-8.9096l-.15288-.045h-.56466c-8.127274 0-22.25001 6.9321-27.410552 19.8901-.518281 1.1833-1.603111 2.066-2.936912 2.1919l-.65601.1212c-6.475883.6783-10.586135 3.6791-12.8793459 9.444-.9617704 2.4953-1.5832307 5.2453-2.0148909 7.6199l-.3497802 1.783c-.3725001 1.9756-.7596703 4.0468-1.2599605 5.9973-.4098902 1.5653-1.0181005 3.0714-1.8099508 4.4833-.4141502.7989-.8410804 1.4743-1.2154706 2.1526-.3057601.4757-.5996903.9296-.8931404 1.3953-1.41521067 2.6927-2.15784101 5.4422-.99586048 10.0508.51308028 2.1058 2.21701108 3.9877 4.98352228 5.4621 2.0835309 1.1269 4.7047425 2.0764 7.9005535 2.8602 5.701063 1.4256 11.256825 1.8005 12.354436 1.8005.79422 0 1.57566-.2513 2.315451-.6262.56703-.3081 1.05312-.7422 1.66938-1.1814.636131-.5348 1.528331-.799 2.342432-.799.1898 0 .40184 0 .54478.044l2.665701.4956c2.164941.3947 4.852892.9248 7.564973 1.489l.414631.1013c2.616001.4909 5.158172.9864 7.219923 1.3864 1.08768.2073 2.093471.3597 2.830891.5296.82593.087 1.464901.1406 1.863911.116l.0147.025c11.236945-.5666 15.976707-4.9215 19.085909-9.0966.92958-1.2325 1.69919-2.4509 2.477791-3.7652l1.29215-2.1726.924381-1.6376c.92485-1.5359 1.83977-2.971 2.838461-4.3644.66832-.9268 1.745111-1.4711 2.887691-1.4602.30102 0 .599211 0 .907341.087 1.29025.3526 2.594231.5921 3.691841.8089 2.581461.3995 4.993463.6262 6.011563.7076.73742.015 1.429881.087 2.142691.087 10.652878 0 18.558158-5.9382 25.107878-11.5503l2.15027-1.8c1.05738-.9002 2.00211-1.7044 2.97856-2.5227 1.31439-1.1365 3.02826-2.5275 4.84294-3.689 3.19108-2.1333 5.85915-3.1443 8.51207-3.122l.64087.025c2.57436.116 12.15707.8288 28.449 3.3421.71518.1628 1.40527.2115 2.10814.2115 3.68901 0 8.36203-1.3096 13.93009-3.7505 4.00472-1.8246 8.57882-4.3005 13.21209-7.1953 1.01573-.6735 2.20185-1.2084 3.66155-1.8838l.3725-.1628c1.42562-.6366 2.83893-1.2997 4.23852-1.9903 2.64866-1.339 6.57197-3.6469 9.73796-7.6493 1.86202-2.3354 4.33745-7.21 6.78874-12.1566l2.64061-5.4422c1.52881-3.1248 3.0543-6.2505 4.57695-9.3777.62288-1.2079 1.86155-1.9733 3.22043-1.9898l.0516.03h.95894c5.05025 0 11.08216-.8089 16.36386-1.5511 2.29321-.3602 4.57412-.683 6.75609-1.0602 4.85525-.7668 9.01804-1.4204 12.12724-1.5903.76961 0 2.82379.1628 5.66935.3748l6.46311.4341c8.10029.4539 14.76785.6929 20.2796.6408 2.85361.03 5.70816-.044 8.55656-.2219 4.32798-.3281 8.33221-.9642 11.55028-1.9752.89267-.2565 1.88332-.5722 2.83799-.9764.46337-.2116.95183-.2883 1.45497-.3474.87988 0 1.79764.3748 2.48773 1.0408 1.81611 1.7621 3.66534 3.4878 5.54866 5.178 1.13642.9149 1.54631 2.4362 1.05785 3.76-.44065 1.3788-1.67174 2.3533-3.1144 2.466-.70761.049-1.42562.1354-2.08116.2172-2.26575.3129-6.42855 1.2326-8.47989 3.9006-.66548.8889-1.7167 1.4043-2.82616 1.3864-.46858 0-.97645-.087-1.43793-.2736-.48751-.2248-.99348-.4085-1.51129-.55-.9897-.2542-2.00874-.3768-3.03015-.3649l-.46148.01-1.2131-.01-1.83457.052h-.98118c-3.23036 0-10.81569-.045-17.34316 1.055-4.03879.6877-7.23981 1.6618-9.50319 2.9563-2.14553 1.1719-4.61386 3.3908-4.41176 7.0083.36304 6.7467 9.84682 24.9059 16.29004 31.3051 1.23771 1.2822 5.49612 2.5867 10.18193 2.5867.47568 0 1.00105-.035 1.50419-.057.0738 0 .18506-.01.2589-.01 1.3338 0 2.53459.7521 3.15653 1.9406 6.61124 13.0228 18.03041 21.7393 28.42911 21.7393l.69057-.044c9.91734-.3649 36.7069-10.0461 55.48515-18.9647.2466-.072.49793-.1458.7663-.2073.5869-.1629 1.29451-.2514 2.0272-.3602 1.10187-.1676 2.36467-.3233 3.70084-.4591l1.88615-.2074c4.14291-.5206 8.8434-1.2131 12.2877-2.8356 3.17641-1.5463 7.78743-7.484 11.71073-15.1332.62572-1.1734 1.84119-1.9136 3.17072-1.9307h.33038c1.44976.1548 2.66524 1.1649 3.0827 2.5621.47805 1.5113 1.03088 2.8948 1.69635 4.1131 3.21286 6.0115 8.9338 9.0937 17.00237 9.0398.43924 0 .87989 0 1.33901-.025 5.55529-.2026 11.64163-2.057 16.93564-3.7757l3.01832-.9958c4.57174-1.5662 8.83772-2.9961 12.84479-3.6843 1.43509-.2513 3.06281-.3744 4.94139-.4141.85812 0 1.78061.04 2.70026.067 1.68405.096 3.38561.2419 5.10659.3649 1.14684.062 2.30598.2073 3.46986.2268 1.71245.1481 3.43152.2153 5.15107.2021 4.95654.04 8.77334-.6982 12.1864-2.35 5.00057-2.0566 8.90636-4.8506 11.46887-6.7244l.94947-.683c.63093-.4908 1.37308-.6508 2.08069-.7175.86285.071 1.68641.3426 2.37509.9097 12.26687 10.8436 28.09968 16.787 44.47208 16.6942h2.26623c5.29639-.1827 9.45634-1.9453 11.69842-5.0081 1.49899-1.9605 1.97277-4.3966 1.34374-6.7812-.25085-.9684-.097-1.9978.42646-2.8503.54999-.8235 1.4029-1.4152 2.41437-1.5856 3.60996-.6607 6.60083-1.9704 8.76383-3.8617 1.96051-1.7831 3.25741-4.2907 3.27731-6.4978 0-1.4848-.5254-2.7078-1.6547-3.7955-2.44521-2.2695-3.84381-3.0978-10.93548-7.0557m-158.31493-27.521700000001c-2.41911 3.0064-6.07356 3.9157-9.38298 9.807-6.65999-2.6113-7.82151-11.3799-9.06443-15.1848 5.33614-1.0011 17.90499-3.3856 24.48168-4.4066-2.71208 3.442-4.64368 5.7498-6.03901 9.7919" fill="#fff"/><g transform="matrix(.47331374 0 0 .47331374 -186.61531 140.4527)"><path d="m1648.667 1120.068c-26.169-15.223-36.692-44.069-52.941-66.811-5.669-8.425-15.713-13.738-20.938-21.96-18.876-51.082-35.021-102.071-39.913-160.64-3.959-14.51-6.949-29.254-14.879-42.872-23.627-38.35-54.245-73.344-83.904-108.636-2.678-2.667-2.71-2.959-8.357-8.356l-103.587-85.868c-12.707-9.648-27.102-15.75-41.507-22.252-21.887-8.304-51.572-6.46-72.906 2.699-22.324 11.806-42.419 28.889-65.946 36.792-34.015 15.332-72.479 18.417-101.759 44.57-17.021 14.884-31.457 38.006-56.771 34.14-28.362-1.313-53.729 9.17-75.027 26.805-19.281 17.338-37.625 37.995-62.523 42.799-21.829 9.227-48.436 4.835-70.697 13.187-35.385 8.679-63.357 36.745-93.418 58.215-30.133 17.442-58.938 36.234-96.512 35.369-24.518-1.688-48.082-18.692-55.949-42.246-7.465-27.107.771-55.021 22.252-73.396 22.178-26.69 57.61-42.471 75.031-73.068 9.129-16.119 7.852-42.341-4.345-57.693-23.21-23.935-56.443-24.768-86.562-32.166-19.234-5.272-34.098-20.068-51.15-29.186-6.538 9.931-8.674 20.934-7.84 33.108 3.531 27.472 24.486 52.422 50.738 61.998 15.249 6.554 32.791 1.75 48.514 5.209 4.402 1.782 8.701 6.148 9.164 10.951-.833 4.335-1.281 8.711-5.22 11.785-24.435 20.531-50.202 40.184-70.724 65.519-21.845 23.657-24.367 65.081-13.004 94.855 12.649 33.968 48.087 56.35 82.17 60.669 24.84 3.896 47.206-2.688 69.854-7.539 3.053 0 4.402 3.173 5.704 4.814 2.204 20.104-.87 37.984 3.554 56.391 3.902 16.995 9.602 28.759 15.796 45.352.829 5.68 0 11.806-3.96 16.26-12.695 9.566-25.83 16.131-39.797 22.252l-34.016 2.156-6.543 3.163c-12.666 14.806-13.051 30.097-20.913 46.805-10.461 17.401-29.686 25.784-45.831 35.829-5.215 8.262-10.94 17.035-18.344 23.584-5.668 5.101-12.649 6.617-20.078 7.346-11.759 13.624-14.375 32.453-17.448 50.807 19.214 1.751 39.329 12.244 58.11 1.751 16.15-7.491 19.646-27.159 31.843-38.979 9.581-10.473 24.054-2.626 35.406-.407 17.036.771 29.279-11.404 43.647-17.197 10.029-6.471 18.25-17.927 28.77-24.403 20.125-9.664 48.045-4.527 69.087-.5 16.536 4.283 34.005 1.626 48.462-4.824 13.504-8.403 26.195-18.886 41.434-22.387 13.541-6.96 20.142-22.251 25.727-34.974 4.397-11.753 15.807-20.959 14.91-34.557-3.558-3.032-7.465-9.648-12.732-9.117-6.585 9.117-11.398 18.745-18.776 27.575-31.562 43.102-56.36 47.207-120.524 47.264-47.649-1.75-90.4 12.78-123.135 49.9-2.193 1.375-5.267.438-7.007-1.313-1.225-5.22 3.073-13.962 5.235-17.901 29.223-41.506 74.704-51.092 122.739-52.088 26.179-1.75 51.119-6.116 73.344-17.541 24.877-12.67 41.882-32.488 52.411-56.943 5.616-27.492 7.736-57.204 14.733-83.389.896-2.699 7.361-4.611 9.508-3.746 2.694.542 7.925 2.84 7.956 5.871-4.835 27.086-13.483 58.934-2.99 85.119 20.979 27.586 59.887 12.629 88.249 11.273 29.69-2.615 53.625-.333 81.982 1.407 13.968-.375 24.309 3.042 35.229-5.752 3.059-4.845 4.283-11.378 3.387-16.614-.911-7.814-7.507-12.576-.073-19.12 2.251-1.803 8.753-.672 10.482 1.579 3.96 10.867 5.727 22.688 12.723 32.357 13.999 17.912 34.541 31.879 53.74 42.002 18.286 12.629 33.619 30.446 34.952 52.781.114 11.357-10.472 19.1-19.203 24.413-14.807 7.45-30.941 13.572-48.478 11.827-23.163-11.264-29.264-35.698-44.58-53.594-7.925-8.773-19.693-10.42-31.441-9.665-12.744 1.345-25.377 1.834-36.714 5.752-3.022 2.595-3.918 6.622-3.538 10.55 7.925 14.379 16.646 28.311 25.388 42.674 10.118 6.205 24.075-3.438 32.755 7.367 7.486 11.467 12.331 24.908 23.616 33.733 10.961 9.472 27.586 13.899 41.976 7.867 32.301-10.123 64.695-20.709 94.782-36.907h10.04c12.186-1.197 25.757-.479 34.468-9.664 9.587-13.899 17.474-27.008 24.856-41.871 7.439-10.045 3.985-25.356.854-36.203-14.874-18.469-23.199-39.012-31.051-60.018-7.476-2.188-13.952-6.48-22.319-6.054-3.918 1.698-9.611.886-11.8 5.157l34.546 68.275c2.215 5.272 4.851 12.77 3.568 19.688-4.865 14.422-12.242 28.41-24.012 38.902-2.172 1.281-4.788 2.521-6.512-.448 3.886-14.806 10.841-31.034 9.971-48.071l-33.697-60.788c-3.912-8.221-10.914-15.733-10.519-25.325-.057-4.407 3.949-7.46 7.445-9.18 14.812-4.793 32.676-4.017 44.044-15.812 14.879-23.101 17.938-45.852 21.86-73.282.865-1.792 4.371-5.137 7.018-5.137 2.595-.958 5.563 2.881 6.908 4.262 4.407 30.076-1.667 60.555-19.188 84.243-.798 3.043-2.146 6.981 1.339 9.128 16.619 5.319 34.088 0 48.04-7.439 17.958.416 34.494-3.96 50.671-6.575 1.756.854 3.559 2.616 3.559 4.407-10.941 12.202-17.063 25.727-20.095 41.528-13.098 13.566-31.858 25.45-33.146 45.028 2.179 9.648 10.529.438 16.172 1.407 2.605.333 4.371 2.563 4.371 5.137l-13.093 19.239c-7.002 11.368 1.313 24.481 1.313 35.35 3.105 8.794 13.603 13.134 22.735 13.134 19.714-.834 37.136-8.336 54.62-14.479 19.198-8.335 43.169-7.825 64.181-4.438 20.521-1.281 35.828-14.916 51.056-28.472 8.347.083 15.807 5.757 21.424 11.806 23.595 25.346 54.213 36.192 88.77 35.275l2.99-1.709c2.24-2.219 1.34-6.137-1.333-7.814l-20.475-10.482c-14.426-9.227-32.302-21.381-37.142-37.547-4.449-14.457-12.295-30.139-21.006-44.143-3.1-7.061-10.039-12.671-13.113-19.73.781-.896 1.72-2.178 3.074-1.792 22.699 7.847 36.193 30.223 46.686 50.38 16.718 23.09 40.699 42.757 72.15 37.547l2.616-2.282c1.344-1.708.933-3.948 0-5.21l-15.708-7.897m-343.11-307.393c-.356-.101-.712-.203-1.067-.307 0 0-.115.307-.162.489-.103.069-.191.156-.266.255-1.25 1.24-3.454 2.105-5.694.62 0 0-.266-.183-.542-.354-.063-.317-.156-.713-.156-.713-3.355-17.391-7.294-35.828-14.358-52.953.052 0-4.022-6.981-4.022-6.981l-1.594-2.188-3.434-5.006c-2.818-4.387-5.47-10.379-1.818-17.37l.392-.62c3.162-3.115 8.794-3.438 12.634-1.975l.51.266c7.461 5.069 12.244 13.666 15.803 19.845 4.354 10.269 6.674 23.09 6.674 36.458 0 10.123-1.313 20.485-3.955 30.223 0 .003.56.154 1.055.311m166.757 287.995s-.146.172-.109.224c-.146-.052-.406 0-.406 0-8.06 2.563-17.328 3.652-27.242 3.146l-.542-.094c.052 0-1.845-.791-1.845-.791l-1.891-1.173c-.979-.864-2.454-2.423-1.62-4.954 3.798-11.326 14.963-24.502 29.175-27.425.354 0 1.209-.083 1.209-.083l1.995.083 3.188.427c1.563.448 4.147 1.688 4.835 5.486.261 1.995.364 4.376.364 6.788-.01 6.675-1.355 13.968-7.111 18.366m53.354-119.134c-.063.287-1.287 3.621-1.287 3.621-.058.286-1.167 3.834-1.167 3.834-1.229 3.47-3.184 5.34-6.215 6.075-1.809.531-3.48.266-4.762-.745-1.365-.995-2.105-2.626-2.105-4.496l-.292-3.835-1.359-13.44c-1.084-6.216-2.97-11.029-5.814-15.141-1.981-2.255-3.945-4.524-5.892-6.809-.225-.214-6.721-7.519-6.721-7.519-5.101-5.147-9.738-7.518-14.5-7.752-3.771 1.193-7.121 3.621-10.836 7.611l-4.605 5.768-4.105 5.527c-1.501 2.464-4.777 1.017-4.893 1.017 0 0-.224-.151-.525-.245-.146-.308-.256-.725-.256-.725-.943-2.374-1.422-4.906-1.412-7.46 0-4.143 1.204-7.966 2.496-10.988l3.558-7.314 4.022-8.528.614-.823c1.178-1.172 2.339-3.256 3.621-6.83l1.178-3.001 2.308-6.054c3.684-7.794 8.986-9.889 16.885-6.554 6.169 3.245 9.904 8.456 12.765 13.108l1.959 3.266 2.495 4.059 5.152 6.502c14.15 15.791 20.986 30.759 20.986 46.175.019 3.935-.415 7.86-1.293 11.696" fill="#db0a40"/><path d="m488.962 1169.583c13.582-7.897 22.251-22.762 29.311-35.484-1.344-4.751-6.127-8.231-10.097-11.806-2.604-2.146-6.513-.364-9.628.469-9.633 8.357-19.568 14.817-30.061 21.471-4.449 2.979-2.631 9.575-3.553 14.348 0 4.387 5.267 7.481 7.882 10.055 5.088 2.266 10.828 2.604 16.146.947m-45.826 1.334c-7.007 3.532-14.436 10.086-16.145 17.938-2.225 13.993.9 27.044-9.957 37.214-.453 2.646-3.203 5.679-.453 8.356 9.545 2.928 18.725 6.897 30.499 8.169 5.262-17.072 9.133-35.911 15.307-50.676v-4.377c-5.226-6.543-10.53-14.864-19.251-16.624m662.552-46.941c8.769 9.658 8.31 24.402 18.38 31.857 13.098 2.22 24.83-3.043 34.964-10.898 5.657-4.877-2.668-10.967-3.507-16.677-5.735-8.19-1.828-24.897-15.754-25.278-14.062 2.125-28.003 2.595-41.976 2.678l-3.96 2.657c-2.573 8.232 9.654 8.232 11.853 15.661" fill="#db0a40"/></g><path d="m2532.397 950.181c.016 0 .031-.042.047-.042-.089.011-.135.032-.047.042m359.307-441.383v-.021c-13.446-63.717-68.67-69.671-89-70.109-10.289-.213-14.165 3.726-14.165 3.726-2.433 4.012 5.372 9.222 9.133 11.446 54.688 32.645 11.946 127.63-41.522 211.149-78.647 108.234-117.763 157.097-117.763 157.097-9.497 13.155-17.234 8.362-17.234-10.653v-261.69 2.229h-88.771v-2.229 365.819c0 18.917 21.563 34.588 37.292 34.608l30.228.011c27.144 0 43.393-14.004 51.646-26.413l211.374-314.695c7.98-11.562 40.668-57.429 28.769-100.279" fill="#ccc" transform="matrix(.47331374 0 0 .47331374 -186.61531 140.4527)"/><path d="m274.19071 107.22772c-47.97029 0-86.06435 39.50495-86.06435 87.47525s38.09406 87.47525 86.06435 87.47525c36.68317 0 64.90099-16.93069 79.00991-42.32673l-42.32674-19.75248c-5.64356 11.28713-18.34158 19.75248-32.45049 19.75248-19.75248 0-35.27228-14.10891-35.27228-32.4505 0-1.41089 0-1.41089 0-1.41089h115.69307c0-4.23267 0-7.05445 0-11.28713 0-56.43564-36.68317-87.47525-84.65347-87.47525m-31.0396 69.13367c0-16.9307 14.10891-32.4505 32.45049-32.4505 16.9307 0 32.4505 14.10891 32.4505 32.4505zm-63.4901-84.653468c0-42.326733-35.27228-77.599011-79.0099-77.599011-1.410891 0-7.054455 0-8.465347 0h-91.70792102v261.014849h55.02475302v-214.455443h32.450495c21.16336 0 36.68317 15.519802 36.68317 33.861387 0 18.341586-16.9307 33.861386-36.68317 33.861386h-12.69802v62.07921l55.02475 86.06436h64.90099l-76.18812-108.63862c35.27228-8.46535 60.66832-39.50495 60.66832-76.188119m335.79208 38.094059c-14.10891-14.10891-32.45049-22.57426-52.20297-22.57426-43.73762 0-77.59901 38.09406-77.59901 84.65347s35.27228 84.65347 77.59901 84.65347c19.75248 0 38.09406-8.46535 52.20297-22.57426v21.16336h52.20297v-275.12376h-52.20297zm-39.50495 105.81683c-21.16337 0-38.09406-18.34158-38.09406-42.32673 0-22.57426 16.93069-42.32673 38.09406-42.32673s38.09406 18.34158 38.09406 42.32673c1.41089 23.98515-16.93069 42.32673-38.09406 42.32673m654.65356 40.91585h52.2029v-275.1237689h-52.2029zm-167.89613-66.31189c0 15.51981-12.69802 28.21783-29.62871 28.21783-16.9307 0-29.62872-12.69802-29.62872-28.21783v-93.11881h-52.20297v104.40594c0 35.27228 36.68317 63.4901 81.83169 63.4901 45.14851 0 81.83174-28.21782 81.83174-63.4901v-104.40594h-50.79214zm80.42083 66.31189h52.203v-275.1237689h-52.203zm-255.37133-142.50001c14.10891-12.69802 22.57426-31.0396 22.57426-50.792075 0-18.341584-7.05445-33.861387-18.34158-46.559406-12.69802-14.108911-33.86139-19.752476-64.90099-19.752476h-88.88614v259.603967h115.69307c43.73762 0 79.0099-33.86139 79.0099-74.77723 0-29.62872-9.87624-50.79208-45.14852-67.72278m-43.73762 97.35149h-49.38119v-169.306932h35.27228c15.5198 0 28.21782 12.69802 28.21782 28.217822 0 15.5198-12.69802 28.21782-28.21782 28.21782h-18.34159v46.55941h32.4505c18.34158 0 32.4505 15.5198 32.4505 33.86139 0 16.93069-12.69802 31.0396-32.4505 32.45049" fill="#db0a40"/></svg>