<?xml version="1.0" encoding="UTF-8"?>
<!-- Generator: Adobe Illustrator 16.0.0, SVG Export Plug-In . SVG Version: 6.00 Build 0)  -->
<svg id="Layer_1" width="1183.3" height="791" enable-background="new 0 0 2500 1046" version="1.1" viewBox="0 0 1183.3 791" xml:space="preserve" xmlns="http://www.w3.org/2000/svg" xmlns:cc="http://creativecommons.org/ns#" xmlns:dc="http://purl.org/dc/elements/1.1/" xmlns:rdf="http://www.w3.org/1999/02/22-rdf-syntax-ns#"><metadata id="metadata83"><rdf:RDF><cc:Work rdf:about=""><dc:format>image/svg+xml</dc:format><dc:type rdf:resource="http://purl.org/dc/dcmitype/StillImage"/><dc:title/></cc:Work></rdf:RDF></metadata><linearGradient id="SVGID_1_" x1="-1176.2" x2="-1079.6" y1="640.34" y2="640.34" gradientTransform="matrix(3.487 0 0 -3.487 4603.6 2877.4)" gradientUnits="userSpaceOnUse"><stop id="stop16" stop-color="#1985C3" offset="0"/><stop id="stop18" stop-color="#1983C1" offset=".436"/><stop id="stop20" stop-color="#197EBA" offset=".593"/><stop id="stop22" stop-color="#1A73AF" offset=".705"/><stop id="stop24" stop-color="#1A659E" offset=".795"/><stop id="stop26" stop-color="#1B5288" offset=".873"/><stop id="stop28" stop-color="#1C3B6D" offset=".94"/><stop id="stop30" stop-color="#1C3566" offset=".955"/><stop id="stop32" stop-color="#1C3566" offset="1"/></linearGradient><g id="g4175"><g id="g3" transform="matrix(.47331 0 0 .47331 -186.62 140.45)"><path id="path5" d="m2202.6 1033.5c1.876-5.273 3.704-10.524 5.371-15.938l-4.99 14.41c-0.094 0.537-0.266 1.058-0.381 1.528m-769.02 82.737c-4.528-3.049-9.423-5.517-14.566-7.347 0 0.235 5.824 2.856 14.566 7.347m774.69-102.7 0.114-0.651 0.188-0.771c1.037-4.038 1.923-8.17 2.854-12.118-33.437 102.69-105.59 180.61-149.96 221.02 6.096-3.992 11.803-8.55 17.041-13.613-9.466 9.758-12.273 12.973-14.561 16.984 5.404-4.948 11.003-9.681 16.781-14.188-1.709 3.804-1.709 3.804-37.563 39.043 44.648-39.459 117.29-103.44 156.72-208.42l3.069-8.872c1.965-6.1 3.74-12.26 5.324-18.469m-7.293 24.732-0.734 1.975c0.198-0.673 0.557-1.262 0.734-1.975m-742.94 89.667c-8.059-4.069-16.201-7.967-24.424-11.691 8.023 4.537 15.457 9.444 24.424 11.691" fill="#0a3064"/></g><path id="path7" d="m854.63 633.11-0.1136 0.3995 0.2641-0.7275 0.3479-0.9348 0.5249-1.4298c0.099-0.3233 0.1851-0.5103 0.2466-0.789 0.057-0.232 0.1358-0.4658 0.1827-0.7223l-1.4526 4.2039" fill="#e4e5e6"/><path id="path9" d="m1037.5 346.43h-187.05v34.002h76.512v209.86h45.441v-209.86h76.539v-33.997l-11.439-5e-3z" fill="#ccc"/><path id="path11" d="m854.52 633.53 1.1369-3.0974c0.185-0.505 0.3034-0.9348 0.4288-1.5065l-1.5657 4.6039m-194.19-139.52c-2.0636 0.8235-3.3316 1.391-5.0426 2.5332 0.1528 0.039 0.3601 0.062 0.5154 0.1206 2.9076 0.471 2.9076 0.471 14.596-3.9507 0.2513-0.1155 0.612-0.222 0.8855-0.3848-5.1761 0.3526-7.7779 0.6981-10.954 1.6817m-124.14 96.17 0.30103-0.1306c-6.1782 3.4135-12.324 6.8852-18.437 10.413 5.3858-3.2034 12.687-7.2971 18.136-10.283m103.49-113.05c-0.4298 0.2418-0.9149 0.3677-1.4081 0.3649h-0.052c0.4657-0.1283 1.0034-0.239 1.4597-0.3649m53.039-11.728c-0.3601 0.072-0.7814 0.1529-1.1392 0.3081-0.6461 0.1065-1.3466 0.2367-2.0121 0.2367 1.0011-0.2021 2.1209-0.3843 3.1513-0.5448m6.2312-0.8335c-0.5968 0-1.2131 0-1.8175-0.034 8.9068-1.6273 16.968-2.8655 24.24-3.6692-2.0835 0.6116-4.1623 1.3537-6.1644 2.0414-0.7152 0.232-2.4632 0.284-3.2673 0.7176-0.1027 0.3559-0.4194 0.6072-0.789 0.6266 0.074-0.044-1.117 0.2836-1.117 0.2836-2.1058 0.3573-4.3673 0.081-6.5838 0.081-1.127 0-2.2932-0.052-3.4865-0.052-0.301 0.01-0.6607 0.02-0.9987 0.01m-169.54-96.611c-30.866 11.284-69.284 31.083-101.75 60.572-9.2471 8.4481-18.02 16.361-33.092 23.184v-0.077c-1.5979 3.6942-3.6199 8.8132-5.188 12.47-2.9028 7.8367-4.3696 11.96-5.8568 17.175 0 0.3578 0.16045 0.8756 0.35025 1.2675 2.3353 0.2419 6.8006-2.2932 23.355-12.349 29.96-18.288 43.888-26.452 71.183-39.403-2.1848 7.9748-5.6892 12.694-14.667 19.804-2.5128 1.6864-5.7503 4.0123-8.4236 5.4615-9.711 5.6004-19.942 10.217-29.736 15.72-11.474 6.589-22.498 13.987-34.029 20.425-1.0356 0.5722-2.4778 1.3191-3.521 1.9112-4.5519 2.1082-7.1906 0.9741-6.9733-3.2403 0-0.2513 0.0393-0.5055 0.10129-0.8581-0.5817 2.2885-1.1762 4.7398-1.9482 7.6393-4.3374 19.318-5.1686 35.857-5.8487 49.035-0.0322 41.153 8.0634 65.082 8.4775 66.012 0.0762 0.444 0.35262 0.8629 0.49036 1.2851 0.85622 0.15 1.8866 0.3573 2.7518 0.5599 2.4608 11.375 2.74 12.571 4.5968 17.858 4.9438 3.5929 3.0131 9.8733 6.0461 14.159 1.5264-0.5769 3.6767-1.0209 5.3579-1.0209l-2.4854 0.8382c2.4854 0.9916 5.8421 1.7783 8.3739 2.3746-0.28588 9.161-0.28588 9.161 0.95231 11.284 0.76393-0.5055 1.7674-1.1837 2.5053-1.6968 14.139 3.0581 14.139 3.0581 21.34-2.9142l5.8464-5.0479c-5.9231 6.9317-5.9231 6.9317-5.3754 11.972 4.2707 0.6068 4.2707 0.6068 89.783-58.935l-0.0937-0.072c38.098-21.537 74.302-46.468 112.08-68.56-28.36 8.4184-52.925 24.972-79.821 36.416-8.6825 5.0673-16.546 9.6759-23.82 13.895-0.13584-0.1676-0.33038-0.3579-0.47332-0.5107-0.15524-0.3228-1.1563-2.51-1.8152-2.7789-0.41936-0.03-0.76677-0.03-1.127-0.03-0.44871 0-0.8851 0-1.3859-0.1675-1.6126-0.56-4.3057-0.9765-5.9974-0.56-0.42882 0.077-1.0796 0.5055-1.4152 0.7275-0.81836 0.3578-1.2898 0.6262-2.1058 1.0356-0.82073 0.2073-1.4005 0.8184-2.2686 1.0309-0.86285 0.2982-1.9231 0.1628-2.9516 0h-1.4791c-0.34079 0-2.5199 0.1775-2.7646 0-0.5817-0.6513 0.28873-2.0665 0.52538-2.5426 0.25607-0.515 0.39427-1.1611 0.49556-1.7333 0.1259-0.3948 0.32091-0.6361 0.78381-0.6608 0.29582-0.4335 0.29582-0.611 0.52064-1.107 0.66312-1.5312 2.5199-2.9 3.8888-3.8717 1.7385-1.2676 3.7628-2.5815 5.5581-3.7851 2.0494-1.2846 4.2267-3.1736 6.6013-3.8348 0.8089-0.1969 1.7432-0.1969 2.5474-0.3891 1.0403-0.3602 1.0086-0.6882 1.4872-1.623 0.22435-0.505 0.56229-0.5817 0.42598-1.1019 0-0.274-2.909-1.4895-3.361-1.5931 0.0942-0.1141 0.21441-0.205 0.35025-0.2637-0.13821 0.1259-0.30813 0.1501-0.47852 0.2637-0.93905-0.1406-0.60631-0.1576-1.3906 0.1065-1.0602 0.4439-1.9453 0.7743-2.8527 1.4057-1.0479 0.799-2.227 1.2477-3.3165 1.9056-0.79422 0.708-1.2377 1.3442-1.7091 2.0863-3.1684 2.0022-6.2951 3.8959-9.365 5.9008-0.16992 0.077-0.40421 0.1875-0.66311 0.1875-0.77482 0.2267-1.4057 0.1259-2.0887 0.3034-2.0594 0.4392-4.2092 1.3096-6.2189 1.8937-1.3835 0.3573-3.3416 0.5916-4.5594 1.6031-0.53295 0.4194-0.89977 0.9391-1.3863 1.4692-0.88226 0.9745-2.3595 2.0172-3.4618 2.6335-1.3466 0.7668-2.1526 0.5916-3.6417 0.5916h-0.87753c-0.61436 0.062-1.1497 0.1628-1.6254-0.034-0.15288-0.044-0.23665-0.044-0.38717 0.034-0.19737-0.034-0.19737-0.034-0.4487-0.4141-0.027-0.2173 0-0.8903 0.14578-1.1218 0.45864-0.7696 1.4299-1.1023 1.7016-2.1384-0.72227-0.8898-3.9058-0.3574-5.0029 0-2.3415 0.5921-4.6143 1.4285-6.7812 2.4953-1.8294 0.8804-3.743 1.1838-5.5558 2.0717-2.4238 1.1317-3.9006 0.2982-6.473-0.1827-0.0317-0.8681-0.0317-1.2945 0.36256-1.9359 0.36019-0.5599 1.0749-1.0554 1.4431-1.5979 0.15761-0.1893 0.26174-0.4179 0.30055-0.6607 0.878-0.905 1.8028-2.0021 2.7003-2.9095 1.8398-1.8639 4.5864-3.2034 6.5421-4.8604 2.3562-2.1531 4.6579-4.364 6.9042-6.6311 0.3867-0.3574 0.86569-0.6409 1.2548-1.1019 0.3034 0.1008 0.57745 0 0.81174-0.2736 0.3919-0.3753 0.32564-1.0356 0.7147-1.4895 0.2395-0.072 0.45107-0.3081 0.60916-0.4757 1.0749-1.0261 2.1256-1.7139 3.2824-2.4806 0.60632-0.2466 0.97645-0.7029 1.2945-1.0976 0.16282-0.5003 0.16282-1.5506-0.13821-2.0022-0.7644 0-1.1639 1.1521-1.5241 1.5023-0.94663 0.9765-2.2345 1.3954-3.4249 2.0807-3.0453 1.4351-6.9587 3.0875-10.456 3.1736-1.0096 0.086-2.0248 0.076-3.033-0.03-0.55472-0.044-1.2084-0.044-1.7674-0.044-0.0767 0-2.5819 0.1974-2.8361 0-0.55757-0.7692 1.1814-3.1068 1.5264-3.4869 0.67873-0.9765 1.4204-1.9406 2.1702-2.8257 0.38243-0.4293 0.68535-0.9764 0.91254-1.507 0.40942-0.3896 0.0738-0.2168 0.87043-0.631 2.315-1.3375 4.5888-2.7447 6.8186-4.2191 0.4558-0.3606 0.97834-0.7989 1.5359-0.8434 0.52537-0.1406 0.87326 0 1.3437-0.2641 0.5552-0.3579 1.1468-0.9689 1.667-1.3192 2.6089-1.6963 5.7678-2.8233 8.5712-4.3104 3.8125-2.0712 6.9733-4.976 10.926-6.8252 1.1838-0.6882 2.4513-1.2945 3.7482-1.7437 0.8851-0.2882 1.6793-0.4094 2.5152-0.9196 1.7356-1.3442 3.5929-2.3131 5.6343-3.2844 1.995-0.9641 4.2068-1.6471 6.1796-2.712 0.57981-0.338 0.99586-0.8487 1.5241-1.1762 0.51024-0.2073 1.0626-0.328 1.5951-0.3948 0.91019-0.5154 1.889-0.9636 2.794-1.4398 0.77434-0.434 2.1948-1.0654 3.0207-1.3243 1.127-0.4293 1.8989-0.7668 2.8432-1.3783 0.98875-0.4194 1.3665-0.7374 1.8152-1.7877 0.17465-0.5055 0.6385-1.5563 0.17465-2.0859-1.632-0.1359-3.4642 0.8534-4.9172 1.5264-1.5283 0.6409-3.0922 1.0456-4.5542 1.7087-0.84817 0.3181-1.5335 0.8283-2.2662 1.3291-0.4558 0.1921-0.76914 0.1064-1.1071 0.067-0.20968 0.044-0.42598 0.044-0.63613 0-0.68016 0.017-1.3466 0.1893-1.9482 0.5055-0.97645 0.1628-1.9775 0.5301-2.927 0.8089-1.8989 0.6607-3.8864 1.7531-5.6002 2.8555-2.2094 1.2131-4.2783 2.6628-6.6529 3.6738-2.7646 1.3689-5.6646 2.9251-8.6408 3.734-2.3107 0.6409-4.6039 1.383-6.7466 2.1328-1.4152 0.4809-2.8801 0.9049-4.1898 1.4351-0.71281 0.2981-0.79422 0.5646-1.3191 1.0062-0.76961 0.6608-1.6571 1.0702-2.7225 1.3636-2.6922 1.0309-5.393 2.1579-8.0757 3.1315-0.90261 0.1576-1.551 0.7222-2.474 0.8089-1.1071 0.1628-2.4016 0.062-3.6786 0-0.66832 0-1.489-0.057-2.1356 0-1.6424-0.087-2.6685-0.2589-4.2414-0.9249-0.11076-0.062-0.58928-0.1675-1.1024-0.444 7.2341-5.0426 14.628-9.852 22.171-14.42 8.2025-4.9764 16.577-9.6632 25.108-14.053 9.0403-4.8604 18.181-9.3678 27.473-13.74 9.6215-4.6039 19.401-8.8718 29.194-13.027 9.9992-4.2092 20.105-8.15 30.308-12.006 10.142-3.8324 20.368-7.4376 30.671-10.813 10.009-3.1731 20.247-6.4012 30.456-9.2988 9.7574-2.7769 19.583-5.3096 29.467-7.5953 9.2779-2.1781 18.614-4.0984 27.998-5.7602 4.2954-0.7374 8.5788-1.3858 12.877-1.9898 1.1416-0.1259 2.2241-0.2073 3.3165-0.4761 0.6432-0.1013 1.3561-0.4241 1.9605-0.6608l-0.7644 0.5599c2.0717-0.2565 4.0814-0.5301 6.0683-0.7691 1.8715 0.052 3.7482 0.052 5.578 0.2116 0.789 0.03 5.0304-0.4189 5.1094 1.117 0.1482 0.9547-1.0801 0.8434-1.6821 1.0011-0.8359 0.3578-1.6173 0.7573-2.3765 1.0876 2.2094-0.1107 4.399-0.081 6.5984-0.081 1.2255 0.03 2.3131 0.03 3.487 0.03 0.4217 0 2.056-0.2267 2.1057 0.4341-0.052 0.3895-0.1874 0.5007-0.683 0.5007-0.9963 0.7744-2.0811 1.4891-3.1172 2.1427-1.161 0.7076-2.0192 1.0011-3.4419 1.3584-2.4556 0.6314-4.8728 1.4403-7.2716 2.0074-3.5683 0.8089-7.3018 1.5065-10.88 1.844-0.8851 0.1013-2.0149-0.1628-1.6424 1.2084 0.7573 0.1528 1.472 0.1528 2.2491 0.087 2.927 0 5.8194 0.062 8.781 0.062 1.4914 0 3.0826 0.1728 4.5073-0.15 1.0749-0.2173 2.0466-0.3432 3.139-0.2268 1.2482 0.1259 2.582 0.4857 3.8495 0.7697-15.239 1.4649-31.761 3.9725-47.224 8.0805-12.69 3.4864-15.177 3.7141-21.421 3.2994 1.0157-1.3835 2.4683-3.1787 3.652-4.3915-7.7453-1.1714-54.035 14.82-57.174 23.046 0.1358 0 0.2565 0 0.3602-0.081-0.5179 1.2822 0.2021 1.6121 1.2968 2.0173 3.0359 0.6555 6.1105 0.895 9.2102 0.7663 3.7208 0.1311 7.3875 0.1311 11.05 0.057 2.7935 0.072 5.605 0.072 8.3985 0.072 5.2505 0 10.498 0.3994 15.732-0.7616 4.2461-0.9746 8.4529-2.6018 12.588-3.9929 4.0932-1.2377 8.1722-2.8086 12.295-3.8859 0.9348-0.3479 1.9335-0.55 2.8754-0.8756 0.4439-0.091 1.5212-0.7668 2.029-0.7668 0.9765-0.034 1.1194 0.5008 0.7943 1.2941-0.8974 1.5415-5.5903 2.5057-6.8281 2.9052-2.0565 0.7696-4.2536 1.4918-6.3471 2.3944 0.079 1.926 2.9275 1.5861 5.1019 1.3338 0.8212-0.15 1.6031-0.2835 1.9874-0.3573 0.2073 0.067 0.444-0.03 0.799-0.03 0.4387 0 0.9584-0.091 1.2675 0 0.7989 0.4586 0.3891 2.2539 0.1922 2.8948-0.3503 0.8997-1.021 1.6992-1.5118 2.3793-0.6707 0.9589-1.2477 1.4351-2.4338 2.0121-0.2144 1.6968 10.692 0.7227 11.708 0.5552 1.862-0.3801 4.0587-1.7877 5.9945-2.0466 0.6953-0.1108 1.2576 0.057 2.0911-0.1529 1.0011-0.2599 2.0201-0.4464 3.0477-0.56 1.2031-0.2073 2.2686-0.7989 3.546-0.9196 0.8601-0.1108 1.6964 0 2.5176 0.03 0.8184-0.03 1.7432 0.1112 2.6922 0 2.138-0.1458 4.2437-1.1757 6.4115-1.4497 0.5448-0.071 1.0257-0.071 1.5634-0.071 0.5575 0 1.0796 0 1.5633-0.044 1.8597-0.2987 3.7482-0.5921 5.4819-0.9197 2.404-0.6016 4.7739-0.8803 7.1556-1.2481 3.2999-0.6361 6.9714-0.1354 10.315-0.049 3.1068 0.071 6.1427 1.1416 9.1681 1.4644 3.6374 0.4861-0.656 2.8702-1.9231 3.5934-4.3175 2.6704-8.8789 4.9258-13.622 6.7362-3.1366 1.3442-5.7105 2.2345-9.1657 2.0963-1.8715-0.052-3.2696 0.116-5.0843 0.7422-1.1024 0.3796-2.1186 0.7468-3.2772 0.9149-0.9888 0.03-2.0149-0.1013-3.0723-0.1013-1.4034 0-3.0306-0.2641-4.4856-0.091-0.6707 0.1922-1.0157 0.4194-1.8071 0.567-0.4984-0.03-1.0408-0.03-1.4379-0.071-1.0749-0.071-2.1058-0.071-3.0974 0.328-1.0796 0.4392-1.0995 0.7667-2.3372 0.868h-1.3362c-1.0706-0.1013-2.1701-0.1013-3.228 0.3134-2.572 1.1515-5.2765 1.1714-8.0094 1.2377-0.3597-0.025-0.6063-0.072-0.9637-0.025-0.1675 0.1581-0.3947 0.2688-0.6115 0.4856-1.6845 0.7275-3.4547 1.2993-5.2055 1.8298-3.7576 1.4744-7.2398 3.5925-11.27 4.7393-0.9419 0.2689-1.4744 0.1676-2.3154 0.3602-2.3969 0.5723-4.9911 1.4299-7.3388 2.022-1.0531 0.505-2.3178 0.7668-3.4102 1.0924-1.9557 0.4956-3.2427 1.5113-5.0597 2.3254-0.8932 0.4809-1.8152 0.7938-2.6908 1.277-1.3863 0.6944-2.8839 1.1407-4.4241 1.3191-1.373 0.1728-2.5719 0.5922-3.9228 0.8189-1.3811 0.2115-1.7976 1.1563-2.7741 1.8147-0.89971 0.5817-2.0859 0.38-2.979 0.8903-1.8663 0.9863-3.6639 2.0664-5.5577 3.0774-0.8955 0.4241-1.6821 0.7521-2.4806 1.1166-1.127 0.6565-2.6117 1.285-3.5366 2.2345-0.7644 0.8728-0.7644 2.8702-0.515 4.1278-0.087 0-0.1386 0.071-0.2466 0.071 0.1084 0 0.1581-0.052 0.2466-0.052 0.046 0.1681 0.07 0.3418 0.071 0.5155 2.298 0.6607 4.3772 0.5722 6.8257 0.1628 0.886-0.055 1.7631-0.2149 2.6117-0.4757 1.26-0.2835 2.2611-0.3133 3.4746-0.4908 2.2686-0.1974 4.3346-1.4251 6.4556-2.3254 0.318-0.1008 0.6115-0.3521 0.8827-0.515 27.756-6.1947 53.948-19.12 82.873-21.128 0.50551 0 48.342-2.1526 80.553 12.83 9.9964 4.5788 58.385 31.627 33.469 110.54l2.3647-6.821c5.65-18.923 7.2692-28.853 8.8827-39.96l0.133-1.0356c2.1398-19.636 2.0835-23.45 1.5927-44.25-2.2269-29.398-4.7-39.237-11.301-61.682l-0.8652-1.489c-0.9003-2.4953 7.7524-23.811-39.388-70.929-20.124-19.024-49.061-20.585-71.871-34.382 3.3264-1.1615 3.3264-1.1615 8.1301-0.18743-19.116-12.041-42.49-9.3087-62.767-17.074 2.5252-2.0963 3.8982-3.3236 10.315-3.0671-0.1751-0.90971-0.3398-1.8218-0.4931-2.7348 30.461-3.6175 52.092 2.8091 67.368 11.047-1.9463-1.4237-3.8504-2.9047-5.7086-4.4411 4.4855 2.0414 6.7044 3.1021 13.693 8.1547l0.6655 0.57176-1.8047-1.489c-30.945-23.589-75.378-53.618-212.16 1.6031l-10.34-3.4774c-0.0937-0.20731-11.56 6.3722-11.674 6.2217" fill="#fad50a"/><path id="path13" d="m441.76 371.58 4.7663-4.8605c-2.0542 2.0693-3.4471 3.495-4.7663 4.8605m382.04 19.686c-0.2253-0.24044-0.4369-0.49319-0.6338-0.7573 0.1037 0.16756 0.1827 0.25654 0.3034 0.41415l0.3304 0.34315zm-62.905-57.847c-0.15-0.10129-0.293-0.13584-0.3668-0.22198v0.0194l0.3668 0.20258m-319.25 38.328v-0.0298c0.0582-0.0265 0.10271-0.0752 0.12353-0.13584l-0.12353 0.16566m301.01 23.84c-4.2565-2.022-6.6974-3.112-9.7503-3.8495-1.7139-0.47095-3.0827-0.66832-5.0848-0.8141 0.1254 0.0667 0.2442 0.14436 0.355 0.23193 2.0442 1.1757 2.0442 1.1757 13.716 4.2532 0.2428 0.10224 0.5007 0.16187 0.76441 0.17844m130.21 125.05c-3.1144-28.232-4.8671-34.271-11.096-56.836l-3.741-10.586c-9.1085-23.986-19.091-39.368-28.74-54.306-3.0893-4.4165-3.2427-4.6333-7.0107-9.5037-0.1259-0.13064-0.2613-0.33274-0.4194-0.4487h0.077c-14.593-18.196-20.958-23.522-36.915-37.104 2.8702 1.8492 2.8702 1.8492 6.9492 5.0531l-1.8099-1.623c-41.074-35.603-81.936-46.684-130.66-52.304 5.2178-0.82357 53.618 0.78381 101.02 30.212-46.095-28.908-88.925-34.786-111.83-36.69-5.4762-0.22199-11.804-0.46574-18.965-0.49556-20.756-0.12591-48.992 3.6544-85.998 15.493l0.15288-0.16282s-23.608 7.1385-45.543 17.641c-0.55236 0.30765-1.1364 0.55472-1.6594 0.80368l-0.8974 0.44397-4.4903 2.2833c-0.27594 0.16755-0.52727 0.28351-0.83587 0.4487-0.93952 0.53011-1.9018 1.0309-2.8309 1.5903-2.1612 1.1875-4.2882 2.4371-6.377 3.7482l0.0251 0.0345c-1.5269 0.95894-3.0874 1.9013-4.6953 2.9416l-3.4448 2.4712c-3.0666 2.3694-6.1143 4.7644-9.1411 7.1858-5.9576 4.8922-6.182 5.1189-16.176 14.548 16.933-15.532 64.49-42.922 141.03-51.505-3.689 3.0775-8.0634 4.7492-19.325 7.6095-39.77 9.0843-99.794 22.849-127.41 49.767-0.13395 0.15382-0.29014 0.28683-0.46338 0.39427-2.8725 2.9814-5.3016 5.8961-12.677 14.623-6.9118 8.5149-7.2961 9.151-17.402 24.442l-4.9812 8.337c-0.25133 0.7942-0.45344 2.0021-0.63377 2.8304 0.73506 0.1159 1.6599 0.2073 2.3448 0.2788-5.6982 23.493-5.6982 23.493-5.7427 23.628 9.0327-7.3582 9.0327-7.3582 9.4322-7.6147-5.3191 12.088-5.3191 12.088-6.2487 15.325 0.0691 0 0.0961-0.1827 0.15809-0.1827-0.87327 2.1825-1.906 5.154-2.5502 7.3682 0.58975 0.6981 1.3049 1.7086 1.8028 2.3845 4.3351-2.7793 7.9081-6.5129 12.589-8.8629l-5.4128 3.7799c3.7037-1.5898 8.7364-3.5456 12.487-5.0076-3.751 4.8746-7.6346 9.3234-11.307 14.164 3.822-2.298 7.2497-5.3016 11.491-7.1291l1.6623 1.6372c5.7086-0.7275 9.0649-2.5474 25.216-11.945l9.8113-5.6344c-10.102 6.421-11.496 7.2451-14.241 11.876 3.6152-0.3432 3.6152-0.3432 23.949-10.009 26.705-12.391 43.981-19.207 96.344-31.556l-0.1524-0.0568c76.595-12.623 76.595-12.623 128.48-11.045-18.63-3.7558-18.63-3.7558-84.955-2.8602-68.335 7.6346-95.657 17.984-107.41 22.41-19.303 7.3832-19.767 7.235-23.374 6.651 16.61-12.254 92.826-38.853 112.46-41.657-0.52254 0-60.947 8.6503-94.917 26.22-19.323 9.8535-42.231 16.593-42.3 16.61 8.7487-8.1647 18.761-15.013 26.661-24.003-7.7505-1.9112-7.7505-1.9112-21.256 1.1762 52.688-66.949 342.26-85.209 392.54 49.029-3.1267-4.5372-31.561-44.544-81.466-65.62-12.361-5.2202-12.754-5.65-15.239-8.0908 0.6607-0.21725 1.4791-0.67352 2.2241-0.98638-6.5616-3.7903-40.261-14.255-53.589-11.684 47.947 11.992 122.54 47.291 120.56 66.044-20.208-6.7712-34.981-22.945-54.957-30.178 22.553 12.335 60.331 33.016 66.291 53.088-0.6565 0.39-1.6254 0.9693-2.2587 1.4104-2.4991-1.6059-4.8883-3.3772-7.1508-5.3016-0.04 0.1628-0.1235 0.2513-0.1235 0.3526-4.5273-4.8927-31.046-25.579-48.529-33.063-24.715-10.532-51.769-12.773-77.342-20.54 27.788 10.726 58.086 14.415 84.287 29.312 31.277 17.575 54.595 48.923 54.885 49.202 41.573 56.176 25.137 113.54 19.015 135.02l-5.1184 13.693 5.4369-14.26c5.8866-18.07 6.4063-21.027 10.596-43.518 2.7717-23.335 2.616-28.14 1.8246-51.202m-286.18-112.16 0.25701 0.0194c-6.3746 0.78901-14.89 2.2146-21.21 3.1589 6.2416-1.0702 14.65-2.3131 20.96-3.1783m89.187-100.29c-11.333-1.3944-22.733-2.1834-34.15-2.3652-0.6091 0-1.5269-0.0194-2.1384-0.0194 19.717-0.54052 33.889 0.65081 48.926 3.955-4.7175-0.76677-6.9563-1.0011-12.653-1.5704m-228.05 57.253c-0.36777 0.47615-0.79469 0.90355-1.2699 1.2723l0.33037-0.27879c0.27642-0.29298 0.63188-0.61625 0.93953-0.99348m374.55 24.048c-0.1184-0.15809-0.2812-0.34315-0.417-0.53532 0.1358 0.19737 0.2144 0.27878 0.3403 0.44397 0.03 0.054 0.047 0.0909 0.077 0.0914" fill="#f2940a"/><path id="path34" d="m685.78 757.74c-0.034 0.025-0.057 0.025-0.096 0.01 0.022 0 0.046 0 0.096-0.01m108.24-213.24c0.5325-0.7128 1.0872-1.6968 1.5336-2.4858-2.36 8.6919-7.0112 19.269-13.44 30.969-1.5236 2.3505-3.0969 4.7644-4.6872 7.2521-7.716 11.656-22.871 14.184-31.329 24.972-2.022-1.1364-2.5815-1.5165-5.9524 0.3233-0.8434-5.2108 7.5901-12.369 0.8212-15.584 6.8153-14.82 18.854-26.351 29.053-39.06 0.6064 2.6728 2.3354 3.6639 4.5817 3.6639 6.9662 0.01 18.951-9.462 19.419-10.051m-75.901 46.953c-39.449 32.234-5.2865 22.829-4.8648 22.632 3.805-1.4602 7.2569-3.7089 8.8378-4.7819-37.24 41.43-143.49 87.352-222.11 54.558-20.775-8.6971-34.976-13.9 4.7199 10.673-0.4487 0-0.84061-0.1211-1.2131-0.2513 16.894 8.4724 37.836 19.905 27.245 20.277 0 0.212 0 0.5675-0.0469 0.7989l-0.48798-0.1675 0.53011 0.2589c0.36492 0.3133 0.36492 0.3133 29.075 10.991-1.7976 0.673-3.2796 6.934 20.763 9.3626 28.034 2.7301 53.209-0.4388 76.556-7.1901-49.138 34.118-106.16 55.786-162.6 44.746 1.4644 0.5401 3.4864 1.3783 4.9835 1.9557 13.121 4.5666 21.586 6.2904 34.606 7.2621-0.0667 0.6361-0.14578 1.4597-0.16992 2.3079 9.1757 4.7965 21.337 1.7583 23.342 0.6735 5.2595-2.7078 7.2497-3.2327 41.072-5.7015-7.5016 6.1502-18.07 3.245-25.87 8.6062 0.23192 1.0157 1.1468 2.4953 2.0741 3.1537 42.742-5.8364 86.814-11.858 196.08-100.74 1.4767-1.1056 3.0874-2.0205 4.7937-2.7225l-0.2617 0.2514c-7.9815 7.6047-7.9815 7.6047-76.043 65.327-16.258 13.764-39.706 15.331-54.878 30.9 0.2073 0.6016 0.4955 1.3636 0.6309 1.995l-0.4785 0.3275 0.6934-0.2267c3.6913 0.8487 7.1901 0.8534 10.563 0.3602-6.6898 2.7249-14.86 6.2141-24.881 10.692 0 0.5447-0.5249-0.365-0.1652 3.5366 19.249-4.4312 57.465-9.3631 82.677-24.447 37.504-20.613 108.24-82.896 141.11-151.03 0.7639-1.7338 2.2142-3.8963 3.7108-4.9812l0.096 1.8048c1.2131 2.4214 1.2131 2.4214-2.2365 14.746 2.6781-5.7503 4.6754-11.602 6.3964-17.609 6.2264-56.649-31.127-77.522-39.738-81.48-4.4558-2.0712-9.2523-3.7799-14.154-5.2694 0 0.039-0.052 0.086-0.052 0.1576-0.3355-0.212-0.7866-0.3379-1.1837-0.5301-7.9929-2.2326-16.13-3.9143-24.353-5.0327-16.459 39.035-37.867 61.903-64.735 83.791" fill="url(#SVGID_1_)"/><path id="path65" d="m843.58 533.94c-9.5827 38.024-21.027 55.568-37.909 81.283-9.4146 14.314-28.034 17.54-38.389 30.666-2.4437-1.3443-3.2129-1.7731-7.2843 0.4586-1.0773-6.4432 9.2665-15.17 1.0801-19.14 13.799-30.183 45.16-49.029 54.832-81.941-3.7113 4.6631-6.421 10.137-10.186 14.877 4.2584-14.492 10.793-28.222 13.947-43.012-0.7199-0.3327-1.4819-0.6214-2.2094-0.9049-0.8406 1.4545-1.9061 3.405-3.3809 6.0683-20.407 50.329-47.209 79.155-81.093 106.85-48.381 39.594-6.5246 27.968-6.0115 27.802 4.7421-1.9254 8.8055-4.6673 10.884-5.8904-57.695 64.157-250.7 137.15-339.47 12.69 0.84534 1.2283 1.844 3.0529 2.6903 4.3399 21.549 32.754 21.549 32.754 70.261 62.87-9.1118-1.561-15.634-8.6351-24.193-11.313 0.15004 0.2636 20.909 27.317 82.965 34.416 66.19 7.6094 84.992 2.5175 104.86-2.9246 16.998-4.5992 32.279-6.1843 32.328-6.1843l-0.3034 0.1628c-48.889 14.931-48.889 14.931-103.46 18.388-10.615 0.656-20.797-1.5757-30.954-3.8812-9.6958-2.1819-19.392-4.3871-29.366-4.0785 0 0.2225 0 0.6409-0.0644 0.8733l-0.60631-0.067 0.66832 0.2173c0.49556 0.4757 0.49556 0.4757 35.661 13.548-2.1895 0.8137-12.591 2.2634-55.862-16.307 0.36966 0.2641 51.853 24.817 81.281 27.731 96.466 9.4393 165.81-37.235 232.91-82.425 0 0.3081-0.123 0.7673-0.1429 1.1369 0.8184 0.1259 1.8639 0.2561 2.7296 0.3574-0.5273 1.4895-0.5273 1.4895-7.7818 10.143 15.821-12.773 23.936-32.592 40.715-44.645-1.4673 7.04-53.793 91.186-170.38 118.22 5.6542-0.762 7.3927-1.055 13.538-2.6633-8.0094 2.2885-8.229 2.4854-11.629 3.6024 2.111-0.2788 2.111-0.2788 13.018-2.4807-6.3495 3.1343-13.701 4.6092-31.418 8.2215 100.91-17.473 174.95-74.84 208.37-161.77 4.5717-15.069 6.4583-21.212 8.2929-30.757 3.1565-31.844-7.5309-52.208-18.921-64.542" fill="#0a3064"/><path id="path67" d="m598.92 664.6c-6.677-3.7652-10.687-9.6073-13.439-14.304-1.1691-2.0125-2.2638-4.1083-3.344-6.1156l-1.26-2.3401c-1.3168-2.5105-2.9715-5.3461-4.8775-7.8736-0.78949-0.9963-1.6377-1.9448-2.5398-2.8408l-2.7031-2.8456c-0.8406-0.93-1.6296-1.7678-2.2908-2.6117-0.67306-0.8283-1.1341-1.5804-1.3461-2.128-11.861-30.246-14.648-47.407-18.953-77.523-2.2094-15.488-11.698-28.069-27.105-46.904-1.9335-2.3159-4.0468-5.0626-6.3348-7.9796-1.5638-2.0665-3.2304-4.1524-4.8628-6.2757-5.0621-6.3376-9.1951-11.057-12.435-14.214-5.516-4.6801-10.379-8.7833-14.82-12.542-6.2733-5.2793-11.577-9.7625-16.442-13.831-9.2618-7.5702-16.364-12.897-24.548-18.443-11.434-7.7406-23.693-11.607-36.342-11.607-12.931 0.0199-22.472 4.1798-25.69 6.4163-10.909 7.4594-19.13 12.046-28.382 15.878-6.6704 2.7935-13.648 5.082-22.454 7.9621-2.811 0.9296-5.8312 1.9254-9.099 2.9961-10.012 3.3808-17.126 9.1704-22.159 13.914-1.2107 1.1322-2.3647 2.2539-3.4718 3.3194-1.2377 1.2382-2.3846 2.34-3.521 3.3416-2.2885 2.101-3.8745 3.2081-5.2921 3.7481-1.5283 0.5552-3.9801 0.915-7.5162 1.1616-1.844 0.1154-3.7359 0.1826-5.5974 0.2735-1.3537 0.081-2.695 0.1628-3.9602 0.2173-11.491 0.6607-20.708 7.1139-26.656 11.986-3.0997 2.5175-5.96 5.1241-8.7388 7.6662l-1.3144 1.2382c-3.521 3.1338-5.9798 5.2841-8.3739 6.8304-8.1476 5.2845-15.851 6.049-24.334 6.9165-4.3346 0.3848-8.8424 0.8435-13.634 1.8691-5.7456 1.1838-11.171 3.0065-16.578 5.5487-6.101 2.8702-12.251 6.5492-19.947 11.91-3.3014 2.3088-6.5753 4.656-9.8217 7.0401-2.8186 2.0518-5.6495 4.1575-8.4879 6.145-12.697 8.9238-23.594 14.815-35.405 14.82-11.684 0.044-19.962-6.7665-21.098-17.358-1.0063-9.3035 3.7576-18.73 13.392-26.565l5.2846-4.2536c3.9678-3.1835 7.6914-6.1152 11.008-9.0252 5.6173-4.8358 9.4222-8.7018 12.366-12.512 7.2403-9.5505 9.1118-19.394 5.9529-31.83-2.794-11.242-11.434-18.879-26.368-23.335-5.3361-1.6121-10.751-2.5275-15.844-3.3705l-1.7603-0.3133c-1.5563-0.2267-2.9715-0.4241-4.1945-0.6608-1.6225-0.3232-2.7911-0.6214-3.4377-0.8903-8.0956-3.5777-25.705-15.362-29.231-17.727l-1.4498-0.94947-0.97455 1.4105c-3.2299 4.638-5.7403 8.3024-7.654 24.335-2.0859 17.695 12.49 39.339 37.622 43.259 1.4157 0.2272 2.5649 1.2671 2.9317 2.6534 0.3583 1.3684-0.13205 2.8186-1.2481 3.6885-26.589 20.921-32.204 29.889-33.597 53.396-0.87326 14.539 4.2508 28.833 14.019 39.203 10.677 11.304 26.121 17.241 44.721 17.241 4.9371 0 10.172-0.4586 15.518-1.2675 0.18554-0.062 0.36304-0.062 0.57981-0.062 0.78902 0 1.5832 0.2637 2.1995 0.7838 0.77671 0.5817 1.2846 1.5165 1.3385 2.4859 1.26 16.361 4.2314 29.6 7.9204 35.514 0.91728 1.4796 0.68299 3.3857-0.57224 4.5718-1.1293 1.0455-2.9488 2.0712-5.2301 2.9908-5.6812 2.1924-14.275 3.5783-22.849 3.5783-5.3409 0.03-9.3404 3.7037-12.536 11.622-1.0531 2.5569-1.8914 5.3068-2.7107 7.9332l-0.22198 0.7517c-0.46101 1.3295-0.82357 2.5573-1.2278 3.7188-0.33084 0.9187-0.72227 1.8151-1.1715 2.6827-1.0706 1.8838-2.661 3.7799-4.8652 5.7456-0.66074 0.5722-1.4796 0.868-2.3453 0.868-0.17985 0-0.42408-0.025-0.61625-0.025-1.0635-0.205-1.9837-0.8638-2.5204-1.8048-2.6283-4.6953-6.7689-7.706-12.26-8.9096l-0.15288-0.045h-0.56466c-8.1273 0-22.25 6.9321-27.411 19.89-0.51828 1.1833-1.6031 2.066-2.9369 2.1919l-0.65601 0.1212c-6.4759 0.6783-10.586 3.6791-12.879 9.444-0.96177 2.4953-1.5832 5.2453-2.0149 7.6199l-0.34978 1.783c-0.3725 1.9756-0.75967 4.0468-1.26 5.9973-0.40989 1.5653-1.0181 3.0714-1.81 4.4833-0.41415 0.7989-0.84108 1.4743-1.2155 2.1526-0.30576 0.4757-0.59969 0.9296-0.89314 1.3953-1.4152 2.6927-2.1578 5.4422-0.99586 10.051 0.51308 2.1058 2.217 3.9877 4.9835 5.4621 2.0835 1.1269 4.7047 2.0764 7.9006 2.8602 5.7011 1.4256 11.257 1.8005 12.354 1.8005 0.79422 0 1.5757-0.2513 2.3155-0.6262 0.56703-0.3081 1.0531-0.7422 1.6694-1.1814 0.63613-0.5348 1.5283-0.799 2.3424-0.799 0.1898 0 0.40184 0 0.54478 0.044l2.6657 0.4956c2.1649 0.3947 4.8529 0.9248 7.565 1.489l0.41463 0.1013c2.616 0.4909 5.1582 0.9864 7.2199 1.3864 1.0877 0.2073 2.0935 0.3597 2.8309 0.5296 0.82593 0.087 1.4649 0.1406 1.8639 0.116l0.0147 0.025c11.237-0.5666 15.977-4.9215 19.086-9.0966 0.92958-1.2325 1.6992-2.4509 2.4778-3.7652l1.2922-2.1726 0.92438-1.6376c0.92485-1.5359 1.8398-2.971 2.8385-4.3644 0.66832-0.9268 1.7451-1.4711 2.8877-1.4602 0.30102 0 0.59921 0 0.90734 0.087 1.2902 0.3526 2.5942 0.5921 3.6918 0.8089 2.5815 0.3995 4.9935 0.6262 6.0116 0.7076 0.73742 0.015 1.4299 0.087 2.1427 0.087 10.653 0 18.558-5.9382 25.108-11.55l2.1503-1.8c1.0574-0.9002 2.0021-1.7044 2.9786-2.5227 1.3144-1.1365 3.0283-2.5275 4.8429-3.689 3.1911-2.1333 5.8592-3.1443 8.5121-3.122l0.64087 0.025c2.5744 0.116 12.157 0.8288 28.449 3.3421 0.71518 0.1628 1.4053 0.2115 2.1081 0.2115 3.689 0 8.362-1.3096 13.93-3.7505 4.0047-1.8246 8.5788-4.3005 13.212-7.1953 1.0157-0.6735 2.2018-1.2084 3.6616-1.8838l0.3725-0.1628c1.4256-0.6366 2.8389-1.2997 4.2385-1.9903 2.6487-1.339 6.572-3.6469 9.738-7.6493 1.862-2.3354 4.3374-7.21 6.7887-12.157l2.6406-5.4422c1.5288-3.1248 3.0543-6.2505 4.577-9.3777 0.62288-1.2079 1.8616-1.9733 3.2204-1.9898l0.0516 0.03h0.95894c5.0502 0 11.082-0.8089 16.364-1.5511 2.2932-0.3602 4.5741-0.683 6.7561-1.0602 4.8552-0.7668 9.018-1.4204 12.127-1.5903 0.76961 0 2.8238 0.1628 5.6694 0.3748l6.4631 0.4341c8.1003 0.4539 14.768 0.6929 20.28 0.6408 2.8536 0.03 5.7082-0.044 8.5566-0.2219 4.328-0.3281 8.3322-0.9642 11.55-1.9752 0.89267-0.2565 1.8833-0.5722 2.838-0.9764 0.46337-0.2116 0.95183-0.2883 1.455-0.3474 0.87988 0 1.7976 0.3748 2.4877 1.0408 1.8161 1.7621 3.6653 3.4878 5.5487 5.178 1.1364 0.9149 1.5463 2.4362 1.0578 3.76-0.44065 1.3788-1.6717 2.3533-3.1144 2.466-0.70761 0.049-1.4256 0.1354-2.0812 0.2172-2.2658 0.3129-6.4286 1.2326-8.4799 3.9006-0.66548 0.8889-1.7167 1.4043-2.8262 1.3864-0.46858 0-0.97645-0.087-1.4379-0.2736-0.48751-0.2248-0.99348-0.4085-1.5113-0.55-0.9897-0.2542-2.0087-0.3768-3.0302-0.3649l-0.46148 0.01-1.2131-0.01-1.8346 0.052h-0.98118c-3.2304 0-10.816-0.045-17.343 1.055-4.0388 0.6877-7.2398 1.6618-9.5032 2.9563-2.1455 1.1719-4.6139 3.3908-4.4118 7.0083 0.36304 6.7467 9.8468 24.906 16.29 31.305 1.2377 1.2822 5.4961 2.5867 10.182 2.5867 0.47568 0 1.001-0.035 1.5042-0.057 0.0738 0 0.18506-0.01 0.2589-0.01 1.3338 0 2.5346 0.7521 3.1565 1.9406 6.6112 13.023 18.03 21.739 28.429 21.739l0.69057-0.044c9.9173-0.3649 36.707-10.046 55.485-18.965 0.2466-0.072 0.49793-0.1458 0.7663-0.2073 0.5869-0.1629 1.2945-0.2514 2.0272-0.3602 1.1019-0.1676 2.3647-0.3233 3.7008-0.4591l1.8862-0.2074c4.1429-0.5206 8.8434-1.2131 12.288-2.8356 3.1764-1.5463 7.7874-7.484 11.711-15.133 0.62572-1.1734 1.8412-1.9136 3.1707-1.9307h0.33038c1.4498 0.1548 2.6652 1.1649 3.0827 2.5621 0.47805 1.5113 1.0309 2.8948 1.6964 4.1131 3.2129 6.0115 8.9338 9.0937 17.002 9.0398 0.43924 0 0.87989 0 1.339-0.025 5.5553-0.2026 11.642-2.057 16.936-3.7757l3.0183-0.9958c4.5717-1.5662 8.8377-2.9961 12.845-3.6843 1.4351-0.2513 3.0628-0.3744 4.9414-0.4141 0.85812 0 1.7806 0.04 2.7003 0.067 1.684 0.096 3.3856 0.2419 5.1066 0.3649 1.1468 0.062 2.306 0.2073 3.4699 0.2268 1.7124 0.1481 3.4315 0.2153 5.1511 0.2021 4.9565 0.04 8.7733-0.6982 12.186-2.35 5.0006-2.0566 8.9064-4.8506 11.469-6.7244l0.94947-0.683c0.63093-0.4908 1.3731-0.6508 2.0807-0.7175 0.86285 0.071 1.6864 0.3426 2.3751 0.9097 12.267 10.844 28.1 16.787 44.472 16.694h2.2662c5.2964-0.1827 9.4563-1.9453 11.698-5.0081 1.499-1.9605 1.9728-4.3966 1.3437-6.7812-0.25085-0.9684-0.097-1.9978 0.42646-2.8503 0.54999-0.8235 1.4029-1.4152 2.4144-1.5856 3.61-0.6607 6.6008-1.9704 8.7638-3.8617 1.9605-1.7831 3.2574-4.2907 3.2773-6.4978 0-1.4848-0.5254-2.7078-1.6547-3.7955-2.4452-2.2695-3.8438-3.0978-10.935-7.0557m-158.31-27.522c-2.4191 3.0064-6.0736 3.9157-9.383 9.807-6.66-2.6113-7.8215-11.38-9.0644-15.185 5.3361-1.0011 17.905-3.3856 24.482-4.4066-2.7121 3.442-4.6437 5.7498-6.039 9.7919" fill="#fff"/><g id="g69" transform="matrix(.47331 0 0 .47331 -186.62 140.45)" fill="#db0a40"><path id="path71" d="m1648.7 1120.1c-26.169-15.223-36.692-44.069-52.941-66.811-5.669-8.425-15.713-13.738-20.938-21.96-18.876-51.082-35.021-102.07-39.913-160.64-3.959-14.51-6.949-29.254-14.879-42.872-23.627-38.35-54.245-73.344-83.904-108.64-2.678-2.667-2.71-2.959-8.357-8.356l-103.59-85.868c-12.707-9.648-27.102-15.75-41.507-22.252-21.887-8.304-51.572-6.46-72.906 2.699-22.324 11.806-42.419 28.889-65.946 36.792-34.015 15.332-72.479 18.417-101.76 44.57-17.021 14.884-31.457 38.006-56.771 34.14-28.362-1.313-53.729 9.17-75.027 26.805-19.281 17.338-37.625 37.995-62.523 42.799-21.829 9.227-48.436 4.835-70.697 13.187-35.385 8.679-63.357 36.745-93.418 58.215-30.133 17.442-58.938 36.234-96.512 35.369-24.518-1.688-48.082-18.692-55.949-42.246-7.465-27.107 0.771-55.021 22.252-73.396 22.178-26.69 57.61-42.471 75.031-73.068 9.129-16.119 7.852-42.341-4.345-57.693-23.21-23.935-56.443-24.768-86.562-32.166-19.234-5.272-34.098-20.068-51.15-29.186-6.538 9.931-8.674 20.934-7.84 33.108 3.531 27.472 24.486 52.422 50.738 61.998 15.249 6.554 32.791 1.75 48.514 5.209 4.402 1.782 8.701 6.148 9.164 10.951-0.833 4.335-1.281 8.711-5.22 11.785-24.435 20.531-50.202 40.184-70.724 65.519-21.845 23.657-24.367 65.081-13.004 94.855 12.649 33.968 48.087 56.35 82.17 60.669 24.84 3.896 47.206-2.688 69.854-7.539 3.053 0 4.402 3.173 5.704 4.814 2.204 20.104-0.87 37.984 3.554 56.391 3.902 16.995 9.602 28.759 15.796 45.352 0.829 5.68 0 11.806-3.96 16.26-12.695 9.566-25.83 16.131-39.797 22.252l-34.016 2.156-6.543 3.163c-12.666 14.806-13.051 30.097-20.913 46.805-10.461 17.401-29.686 25.784-45.831 35.829-5.215 8.262-10.94 17.035-18.344 23.584-5.668 5.101-12.649 6.617-20.078 7.346-11.759 13.624-14.375 32.453-17.448 50.807 19.214 1.751 39.329 12.244 58.11 1.751 16.15-7.491 19.646-27.159 31.843-38.979 9.581-10.473 24.054-2.626 35.406-0.407 17.036 0.771 29.279-11.404 43.647-17.197 10.029-6.471 18.25-17.927 28.77-24.403 20.125-9.664 48.045-4.527 69.087-0.5 16.536 4.283 34.005 1.626 48.462-4.824 13.504-8.403 26.195-18.886 41.434-22.387 13.541-6.96 20.142-22.251 25.727-34.974 4.397-11.753 15.807-20.959 14.91-34.557-3.558-3.032-7.465-9.648-12.732-9.117-6.585 9.117-11.398 18.745-18.776 27.575-31.562 43.102-56.36 47.207-120.52 47.264-47.649-1.75-90.4 12.78-123.14 49.9-2.193 1.375-5.267 0.438-7.007-1.313-1.225-5.22 3.073-13.962 5.235-17.901 29.223-41.506 74.704-51.092 122.74-52.088 26.179-1.75 51.119-6.116 73.344-17.541 24.877-12.67 41.882-32.488 52.411-56.943 5.616-27.492 7.736-57.204 14.733-83.389 0.896-2.699 7.361-4.611 9.508-3.746 2.694 0.542 7.925 2.84 7.956 5.871-4.835 27.086-13.483 58.934-2.99 85.119 20.979 27.586 59.887 12.629 88.249 11.273 29.69-2.615 53.625-0.333 81.982 1.407 13.968-0.375 24.309 3.042 35.229-5.752 3.059-4.845 4.283-11.378 3.387-16.614-0.911-7.814-7.507-12.576-0.073-19.12 2.251-1.803 8.753-0.672 10.482 1.579 3.96 10.867 5.727 22.688 12.723 32.357 13.999 17.912 34.541 31.879 53.74 42.002 18.286 12.629 33.619 30.446 34.952 52.781 0.114 11.357-10.472 19.1-19.203 24.413-14.807 7.45-30.941 13.572-48.478 11.827-23.163-11.264-29.264-35.698-44.58-53.594-7.925-8.773-19.693-10.42-31.441-9.665-12.744 1.345-25.377 1.834-36.714 5.752-3.022 2.595-3.918 6.622-3.538 10.55 7.925 14.379 16.646 28.311 25.388 42.674 10.118 6.205 24.075-3.438 32.755 7.367 7.486 11.467 12.331 24.908 23.616 33.733 10.961 9.472 27.586 13.899 41.976 7.867 32.301-10.123 64.695-20.709 94.782-36.907h10.04c12.186-1.197 25.757-0.479 34.468-9.664 9.587-13.899 17.474-27.008 24.856-41.871 7.439-10.045 3.985-25.356 0.854-36.203-14.874-18.469-23.199-39.012-31.051-60.018-7.476-2.188-13.952-6.48-22.319-6.054-3.918 1.698-9.611 0.886-11.8 5.157l34.546 68.275c2.215 5.272 4.851 12.77 3.568 19.688-4.865 14.422-12.242 28.41-24.012 38.902-2.172 1.281-4.788 2.521-6.512-0.448 3.886-14.806 10.841-31.034 9.971-48.071l-33.697-60.788c-3.912-8.221-10.914-15.733-10.519-25.325-0.057-4.407 3.949-7.46 7.445-9.18 14.812-4.793 32.676-4.017 44.044-15.812 14.879-23.101 17.938-45.852 21.86-73.282 0.865-1.792 4.371-5.137 7.018-5.137 2.595-0.958 5.563 2.881 6.908 4.262 4.407 30.076-1.667 60.555-19.188 84.243-0.798 3.043-2.146 6.981 1.339 9.128 16.619 5.319 34.088 0 48.04-7.439 17.958 0.416 34.494-3.96 50.671-6.575 1.756 0.854 3.559 2.616 3.559 4.407-10.941 12.202-17.063 25.727-20.095 41.528-13.098 13.566-31.858 25.45-33.146 45.028 2.179 9.648 10.529 0.438 16.172 1.407 2.605 0.333 4.371 2.563 4.371 5.137l-13.093 19.239c-7.002 11.368 1.313 24.481 1.313 35.35 3.105 8.794 13.603 13.134 22.735 13.134 19.714-0.834 37.136-8.336 54.62-14.479 19.198-8.335 43.169-7.825 64.181-4.438 20.521-1.281 35.828-14.916 51.056-28.472 8.347 0.083 15.807 5.757 21.424 11.806 23.595 25.346 54.213 36.192 88.77 35.275l2.99-1.709c2.24-2.219 1.34-6.137-1.333-7.814l-20.475-10.482c-14.426-9.227-32.302-21.381-37.142-37.547-4.449-14.457-12.295-30.139-21.006-44.143-3.1-7.061-10.039-12.671-13.113-19.73 0.781-0.896 1.72-2.178 3.074-1.792 22.699 7.847 36.193 30.223 46.686 50.38 16.718 23.09 40.699 42.757 72.15 37.547l2.616-2.282c1.344-1.708 0.933-3.948 0-5.21l-15.708-7.897m-343.11-307.39c-0.356-0.101-0.712-0.203-1.067-0.307 0 0-0.115 0.307-0.162 0.489-0.103 0.069-0.191 0.156-0.266 0.255-1.25 1.24-3.454 2.105-5.694 0.62 0 0-0.266-0.183-0.542-0.354-0.063-0.317-0.156-0.713-0.156-0.713-3.355-17.391-7.294-35.828-14.358-52.953 0.052 0-4.022-6.981-4.022-6.981l-1.594-2.188-3.434-5.006c-2.818-4.387-5.47-10.379-1.818-17.37l0.392-0.62c3.162-3.115 8.794-3.438 12.634-1.975l0.51 0.266c7.461 5.069 12.244 13.666 15.803 19.845 4.354 10.269 6.674 23.09 6.674 36.458 0 10.123-1.313 20.485-3.955 30.223 0 3e-3 0.56 0.154 1.055 0.311m166.76 288s-0.146 0.172-0.109 0.224c-0.146-0.052-0.406 0-0.406 0-8.06 2.563-17.328 3.652-27.242 3.146l-0.542-0.094c0.052 0-1.845-0.791-1.845-0.791l-1.891-1.173c-0.979-0.864-2.454-2.423-1.62-4.954 3.798-11.326 14.963-24.502 29.175-27.425 0.354 0 1.209-0.083 1.209-0.083l1.995 0.083 3.188 0.427c1.563 0.448 4.147 1.688 4.835 5.486 0.261 1.995 0.364 4.376 0.364 6.788-0.01 6.675-1.355 13.968-7.111 18.366m53.354-119.13c-0.063 0.287-1.287 3.621-1.287 3.621-0.058 0.286-1.167 3.834-1.167 3.834-1.229 3.47-3.184 5.34-6.215 6.075-1.809 0.531-3.48 0.266-4.762-0.745-1.365-0.995-2.105-2.626-2.105-4.496l-0.292-3.835-1.359-13.44c-1.084-6.216-2.97-11.029-5.814-15.141-1.981-2.255-3.945-4.524-5.892-6.809-0.225-0.214-6.721-7.519-6.721-7.519-5.101-5.147-9.738-7.518-14.5-7.752-3.771 1.193-7.121 3.621-10.836 7.611l-4.605 5.768-4.105 5.527c-1.501 2.464-4.777 1.017-4.893 1.017 0 0-0.224-0.151-0.525-0.245-0.146-0.308-0.256-0.725-0.256-0.725-0.943-2.374-1.422-4.906-1.412-7.46 0-4.143 1.204-7.966 2.496-10.988l3.558-7.314 4.022-8.528 0.614-0.823c1.178-1.172 2.339-3.256 3.621-6.83l1.178-3.001 2.308-6.054c3.684-7.794 8.986-9.889 16.885-6.554 6.169 3.245 9.904 8.456 12.765 13.108l1.959 3.266 2.495 4.059 5.152 6.502c14.15 15.791 20.986 30.759 20.986 46.175 0.019 3.935-0.415 7.86-1.293 11.696"/><path id="path73" d="m488.96 1169.6c13.582-7.897 22.251-22.762 29.311-35.484-1.344-4.751-6.127-8.231-10.097-11.806-2.604-2.146-6.513-0.364-9.628 0.469-9.633 8.357-19.568 14.817-30.061 21.471-4.449 2.979-2.631 9.575-3.553 14.348 0 4.387 5.267 7.481 7.882 10.055 5.088 2.266 10.828 2.604 16.146 0.947m-45.826 1.334c-7.007 3.532-14.436 10.086-16.145 17.938-2.225 13.993 0.9 27.044-9.957 37.214-0.453 2.646-3.203 5.679-0.453 8.356 9.545 2.928 18.725 6.897 30.499 8.169 5.262-17.072 9.133-35.911 15.307-50.676v-4.377c-5.226-6.543-10.53-14.864-19.251-16.624m662.55-46.941c8.769 9.658 8.31 24.402 18.38 31.857 13.098 2.22 24.83-3.043 34.964-10.898 5.657-4.877-2.668-10.967-3.507-16.677-5.735-8.19-1.828-24.897-15.754-25.278-14.062 2.125-28.003 2.595-41.976 2.678l-3.96 2.657c-2.573 8.232 9.654 8.232 11.853 15.661"/></g><g id="g75" transform="matrix(.47331 0 0 .47331 -186.62 140.45)"><path id="path77" d="m2532.4 950.18c0.016 0 0.031-0.042 0.047-0.042-0.089 0.011-0.135 0.032-0.047 0.042m359.31-441.38v-0.021c-13.446-63.717-68.67-69.671-89-70.109-10.289-0.213-14.165 3.726-14.165 3.726-2.433 4.012 5.372 9.222 9.133 11.446 54.688 32.645 11.946 127.63-41.522 211.15-78.647 108.23-117.76 157.1-117.76 157.1-9.497 13.155-17.234 8.362-17.234-10.653v-261.69 2.229h-88.771v-2.229 365.82c0 18.917 21.563 34.588 37.292 34.608l30.228 0.011c27.144 0 43.393-14.004 51.646-26.413l211.37-314.7c7.98-11.562 40.668-57.429 28.769-100.28" fill="#ccc"/></g></g><path id="path13-9" d="m274.19 107.23c-47.97 0-86.064 39.505-86.064 87.475s38.094 87.475 86.064 87.475c36.683 0 64.901-16.931 79.01-42.327l-42.327-19.752c-5.6436 11.287-18.342 19.752-32.45 19.752-19.752 0-35.272-14.109-35.272-32.45v-1.4109h115.69v-11.287c0-56.436-36.683-87.475-84.653-87.475m-31.04 69.134c0-16.931 14.109-32.45 32.45-32.45 16.931 0 32.45 14.109 32.45 32.45h-64.901zm-63.49-84.653c0-42.327-35.272-77.599-79.01-77.599h-8.4653-91.708v261.01h55.025v-214.46h32.45c21.163 0 36.683 15.52 36.683 33.861 0 18.342-16.931 33.861-36.683 33.861h-12.698v62.079l55.025 86.064h64.901l-76.188-108.64c35.272-8.4654 60.668-39.505 60.668-76.188m335.79 38.094c-14.109-14.109-32.45-22.574-52.203-22.574-43.738 0-77.599 38.094-77.599 84.653s35.272 84.653 77.599 84.653c19.752 0 38.094-8.4654 52.203-22.574v21.163h52.203v-275.12h-52.203v129.8zm-39.505 105.82c-21.163 0-38.094-18.342-38.094-42.327 0-22.574 16.931-42.327 38.094-42.327s38.094 18.342 38.094 42.327c1.4109 23.985-16.931 42.327-38.094 42.327m654.65 40.916h52.203v-275.12h-52.203v275.12zm-167.9-66.312c0 15.52-12.698 28.218-29.629 28.218-16.931 0-29.629-12.698-29.629-28.218v-93.119h-52.203v104.41c0 35.272 36.683 63.49 81.832 63.49 45.149 0 81.832-28.218 81.832-63.49v-104.41h-50.792l-1.4109 93.119zm80.421 66.312h52.203v-275.12h-52.203v275.12zm-255.37-142.5c14.109-12.698 22.574-31.04 22.574-50.792 0-18.342-7.0544-33.861-18.342-46.559-12.698-14.109-33.861-19.752-64.901-19.752h-88.886v259.6h115.69c43.738 0 79.01-33.861 79.01-74.777 0-29.629-9.8762-50.792-45.149-67.723m-43.738 97.351h-49.381v-169.31h35.272c15.52 0 28.218 12.698 28.218 28.218 0 15.52-12.698 28.218-28.218 28.218h-18.342v46.559h32.45c18.342 0 32.45 15.52 32.45 33.861 0 16.931-12.698 31.04-32.45 32.45" fill="#db0a40"/></svg>
