<svg width="746.6" height="103.58" enable-background="new 0 0 228 55" version="1.1" viewBox="0 0 746.6 103.58" xml:space="preserve" xmlns="http://www.w3.org/2000/svg">
<g transform="translate(-29.043 -28.022)"><path d="m775.65 113.65a17.731 17.731 0 0 1-17.731 17.731 17.731 17.731 0 0 1-17.731-17.731 17.731 17.731 0 0 1 17.731-17.731 17.731 17.731 0 0 1 17.731 17.731z" clip-rule="evenodd" fill="#e60000" fill-rule="evenodd" stroke-width="3.5089"/><g transform="matrix(3.5089 0 0 3.5089 -.03158 0)" fill="#e60000">
				<path d="m8.286 8.554h13.421c4.338 0 7.339 1.135 9.244 3.081 1.662 1.622 2.514 3.811 2.514 6.609v0.081c0 4.338-2.311 7.217-5.839 8.717l6.771 9.893h-9.082l-5.717-8.596h-3.446v8.596h-7.866zm13.055 13.623c2.676 0 4.217-1.297 4.217-3.365v-0.081c0-2.23-1.622-3.365-4.257-3.365h-5.149v6.812h5.189z" clip-rule="evenodd" fill="#e60000" fill-rule="evenodd"/>
			</g><g transform="matrix(3.5089 0 0 3.5089 -.03158 0)" fill="#e60000">
				<path d="m59.982 8.554v6.69h-15.043v4.298h13.624v6.203h-13.624v4.501h15.245v6.69h-23.03v-28.382z" clip-rule="evenodd" fill="#e60000" fill-rule="evenodd"/>
			</g><g transform="matrix(3.5089 0 0 3.5089 -.03158 0)" fill="#e60000">
				<path d="m62.739 8.554h12.164c7.177 0 11.799 3.69 11.799 9.974v0.081c0 6.69-5.149 10.217-12.204 10.217h-3.892v8.109h-7.866v-28.381zm11.596 14.11c2.798 0 4.501-1.46 4.501-3.69v-0.081c0-2.433-1.703-3.73-4.541-3.73h-3.69v7.501z" clip-rule="evenodd" fill="#e60000" fill-rule="evenodd"/>
			</g><g transform="matrix(3.5089 0 0 3.5089 -.03158 0)" fill="#e60000">
				<path d="m88.851 24.488v-15.934h7.988v15.772c0 4.095 2.068 6.041 5.23 6.041 3.163 0 5.23-1.865 5.23-5.839v-15.974h7.988v15.732c0 9.163-5.23 13.177-13.299 13.177s-13.137-4.095-13.137-12.975z" clip-rule="evenodd" fill="#e60000" fill-rule="evenodd"/>
			</g><g transform="matrix(3.5089 0 0 3.5089 -.03158 0)" fill="#e60000">
				<path d="m118.04 8.554h14.556c3.568 0 6.082 0.892 7.744 2.554 1.135 1.135 1.825 2.636 1.825 4.582v0.081c0 3.284-1.865 5.23-4.379 6.325 3.446 1.135 5.636 3.081 5.636 6.933v0.081c0 4.866-3.973 7.825-10.745 7.825h-14.637zm12.609 11.312c2.392 0 3.73-0.811 3.73-2.473v-0.081c0-1.541-1.216-2.433-3.568-2.433h-5.109v4.987zm1.136 10.744c2.392 0 3.771-0.933 3.771-2.595v-0.081c0-1.541-1.216-2.554-3.852-2.554h-6.001v5.23z" clip-rule="evenodd" fill="#e60000" fill-rule="evenodd"/>
			</g><g transform="matrix(3.5089 0 0 3.5089 -.03158 0)" fill="#e60000">
				<path d="m153.72 8.554v21.489h13.745v6.893h-21.611v-28.382z" clip-rule="evenodd" fill="#e60000" fill-rule="evenodd"/>
			</g><g transform="matrix(3.5089 0 0 3.5089 -.03158 0)" fill="#e60000">
				<path d="m170.51 8.554h7.906v28.382h-7.906z" clip-rule="evenodd" fill="#e60000" fill-rule="evenodd"/>
			</g><g transform="matrix(3.5089 0 0 3.5089 -.03158 0)" fill="#e60000">
				<path d="m181.13 22.826v-0.081c0-8.271 6.366-14.759 14.961-14.759 5.798 0 9.528 2.433 12.042 5.92l-5.92 4.582c-1.622-2.027-3.487-3.325-6.204-3.325-3.973 0-6.771 3.365-6.771 7.501v0.081c0 4.257 2.798 7.582 6.771 7.582 2.96 0 4.703-1.378 6.406-3.446l5.92 4.217c-2.676 3.69-6.285 6.406-12.569 6.406-8.108-1e-3 -14.636-6.204-14.636-14.678z" clip-rule="evenodd" fill="#e60000" fill-rule="evenodd"/>
			</g><g transform="matrix(3.5089 0 0 3.5089 -.03158 0)" clip-rule="evenodd" fill="#fff" fill-rule="evenodd">
				<path d="m212.11 31.621v-0.85h3.47v0.85h-1.274v3.338h-0.921v-3.338z"/>
				<path d="m216.79 30.771 1.094 2.949 1.095-2.949h0.993l-1.693 4.218h-0.813l-1.693-4.218z"/>
			</g></g>
</svg>
