<?xml version="1.0" encoding="UTF-8" standalone="no"?>
<!-- Creator: CorelDRAW X5 -->

<svg
   xmlns:dc="http://purl.org/dc/elements/1.1/"
   xmlns:cc="http://creativecommons.org/ns#"
   xmlns:rdf="http://www.w3.org/1999/02/22-rdf-syntax-ns#"
   xmlns:svg="http://www.w3.org/2000/svg"
   xmlns="http://www.w3.org/2000/svg"
   xmlns:sodipodi="http://sodipodi.sourceforge.net/DTD/sodipodi-0.dtd"
   xmlns:inkscape="http://www.inkscape.org/namespaces/inkscape"
   xml:space="preserve"
   height="711.33099"
   width="518.02795"
   version="1.1"
   viewBox="0 0 5396.1248 7409.6579"
   id="svg2"
   inkscape:version="0.92.0 r15299"
   sodipodi:docname="Sony Max HD.svg"
   style="fill-rule:evenodd"><sodipodi:namedview
     pagecolor="#ffffff"
     bordercolor="#666666"
     borderopacity="1"
     objecttolerance="10"
     gridtolerance="10"
     guidetolerance="10"
     inkscape:pageopacity="0"
     inkscape:pageshadow="2"
     inkscape:window-width="1920"
     inkscape:window-height="1017"
     id="namedview38"
     showgrid="false"
     fit-margin-top="0"
     fit-margin-left="0"
     fit-margin-right="0"
     fit-margin-bottom="0"
     inkscape:zoom="0.7077735"
     inkscape:cx="73.934397"
     inkscape:cy="332.12081"
     inkscape:window-x="-8"
     inkscape:window-y="-8"
     inkscape:window-maximized="1"
     inkscape:current-layer="svg2" /><metadata
     id="metadata4"><rdf:RDF><cc:Work
         rdf:about=""><dc:format>image/svg+xml</dc:format><dc:type
           rdf:resource="http://purl.org/dc/dcmitype/StillImage" /><dc:title></dc:title></cc:Work></rdf:RDF></metadata><defs
     id="defs6"><style
       type="text/css"
       id="style8">
    .fil0 {fill:black}
    .fil4 {fill:#1C31A0}
    .fil2 {fill:#54D344}
    .fil3 {fill:#F93C30}
    .fil6 {fill:white}
    .fil1 {fill:black;fill-rule:nonzero}
    .fil5 {fill:white;fill-rule:nonzero}
   </style></defs><g
     id="g841"
     transform="matrix(0.87677713,0,0,0.87677713,0,0.00587502)"><path
       style="fill:#000000;fill-rule:nonzero"
       inkscape:connector-curvature="0"
       id="path10"
       d="M 6154.5,7409.6797 H 0 v -5937.4 h 6154.5 z" /><path
       style="fill:#000000;fill-rule:nonzero"
       inkscape:connector-curvature="0"
       id="path12"
       d="M 6154.5,1430.0797 H 0 V -0.02034505 h 6154.5 z" /><path
       style="fill:#ffffff;fill-rule:nonzero"
       inkscape:connector-curvature="0"
       id="path14"
       d="m 140.67,1610.0797 h 5888.5 v 4312.7 H 140.67 Z" /><path
       style="fill:#e63329;fill-rule:nonzero"
       inkscape:connector-curvature="0"
       id="path16"
       d="m 858.94,5922.8797 h 2236.5 v -615.59 H 858.94 Z" /><path
       style="fill:#fdc600;fill-rule:nonzero"
       inkscape:connector-curvature="0"
       id="path18"
       d="m 3101.7,2524.9797 c 2.1856,-257.16 231.66,-403.6 747.45,-399.22 228.02,2.1855 469.88,64.837 637.45,155.18 167.55,90.336 264.45,285.58 261.53,522.34 l 1280.8,2.9141 v -1196.2 h -4909.4 c -165.38,290.67 -257.9,632.35 -260.81,1026.5 -24.041,2718.8 4088.4,2012.9 4079,3090.3 -0.7288,72.851 -19.67,137.69 -53.909,195.96 h 1145.2 v -2119.3 c -1208,-606.11 -2933.2,-586.41 -2927.3,-1278.5" /><path
       style="fill:#fdc600;fill-rule:nonzero"
       inkscape:connector-curvature="0"
       id="path20"
       d="m 4128.4,7129.8797 v -7.2852 l 10.199,15.299 h -10.199 649.1 l 182.13,-210.54 c 18.213,-21.855 28.412,-36.425 35.698,-47.353 2.914,-3.6424 8.0135,-10.928 18.213,-31.326 2.914,10.199 8.742,20.399 16.755,32.054 8.0135,11.657 19.67,26.955 34.24,46.625 l 184.31,210.54 h 659.3 l -568.97,-469.16 499.76,-462.61 h -654.93 l -121.67,152.25 c -11.657,16.755 -22.584,30.597 -29.869,42.982 -7.2851,11.656 -13.842,23.312 -18.941,34.24 -8.0137,-17.484 -23.312,-40.068 -44.44,-68.48 -3.6425,-5.0996 -5.828,-7.2852 -7.285,-8.7421 l -118.02,-152.25 h -657.85 l 501.94,462.61 -559.49,461.15 z" /><path
       style="fill:#fdc600;fill-rule:nonzero"
       inkscape:connector-curvature="0"
       id="path22"
       d="m 3281.6,6786.9797 h -11.656 -152.25 l 67.023,-144.24 c 33.512,-73.579 56.824,-131.13 68.48,-169.74 10.928,-40.796 18.941,-48.082 22.584,-87.421 h 1.457 c 5.0996,38.611 11.656,46.625 23.312,87.421 10.928,38.611 34.24,96.163 67.023,169.74 l 67.752,144.24 h -153.72 z m 319.09,-581.35 h -320.54 -8.7421 -302.33 l -564.59,920.84 3.6426,11.656 h 608.31 l 48.811,-116.57 h 206.16 8.7421 210.54 l 50.996,116.57 h 600.29 l 10.199,-8.0136 v -7.2851 l -551.48,-917.19 z" /><path
       style="fill:#fdc600;fill-rule:nonzero"
       inkscape:connector-curvature="0"
       id="path24"
       d="m 1849.3,7137.8797 -69.21,-369.36 c -4.371,-28.412 -9.4707,-56.824 -13.113,-84.507 -4.3711,-28.412 -8.0135,-56.824 -11.656,-85.236 -6.5566,26.955 -15.299,55.367 -27.683,85.236 -11.656,29.869 -26.955,61.924 -44.44,95.435 l -184.31,358.43 h -342.36 l -184.31,-358.4 c -17.484,-33.512 -32.783,-65.566 -44.44,-95.435 -11.657,-29.869 -21.126,-58.28 -26.955,-85.236 -3.6425,28.412 -7.2852,56.824 -11.657,85.236 -3.6425,27.683 -8.0136,56.095 -13.113,84.507 l -69.937,369.35 h -564.6 l 273.92,-931.7 h 593.74 l 114.38,230.94 c 3.6425,7.2851 59.738,131.13 67.752,145.7 8.7421,17.484 26.955,72.852 42.982,126.77 8.7422,-39.34 32.054,-87.421 43.711,-126.77 17.484,-44.44 40.796,-93.978 69.208,-150.08 l 120.18,-226.55 h 593.01 l 249.15,914.28 v 9.4707 l -5.0995,8.0136 h 5.0995 -560.23 z" /><path
       style="fill:#fdc300;fill-rule:nonzero"
       inkscape:connector-curvature="0"
       id="path26"
       d="m 2402.3,7129.8797 2.1855,-2.914 -2.1855,-6.5567 z" /><path
       style="fill:#ffffff;fill-rule:nonzero"
       inkscape:connector-curvature="0"
       id="path28"
       d="m 2211.4,1252.9797 c -214.91,0 -413.8,-64.109 -547.12,-183.59 -99.806,-90.33605 -148.62,-212.72005 -148.62,-338.75005 0,-124.58 50.267,-248.42 148.62,-338.03 123.84,-112.19 341.67,-182.85 547.12,-182.85 227.3,0 409.42,56.824 548.57,183.59 98.349,89.607 146.43,212 146.43,337.3 0,120.93 -50.996,249.15 -146.43,338.75005 -129.68,120.2 -332.93,183.59 -548.57,183.59 v -137.7 c 113.64,0 220.01,-39.34 293.59,-112.92 73.579,-72.85205 107.09,-162.45005 107.09,-271.73005 0,-104.91 -36.425,-203.25 -107.09,-273.19 -72.852,-71.394 -181.4,-112.19 -293.59,-112.19 -112.92,0 -220.74,40.068 -293.59,112.19 -70.666,69.937 -107.09,168.29 -107.09,273.19 0,104.18 37.154,202.53 107.09,271.73005 72.851,72.851 180.68,112.92 293.59,112.92 z" /><path
       style="fill:#ffffff;fill-rule:nonzero"
       inkscape:connector-curvature="0"
       id="path30"
       d="m 724.38,210.19965 c -115.11,0 -245.51,21.126 -356.24,70.666 -101.99,45.896 -185.76,119.48 -185.76,241.86 0,110.73 69.937,174.84 67.752,173.39 29.869,26.955 77.95,74.308 203.25,101.26 56.095,12.384 176.3,31.326 295.04,43.711 118.74,12.384 235.31,24.77 282.66,36.425 37.883,9.4707 101.26,22.584 101.26,93.978 0,70.66605 -67.023,92.52105 -78.679,96.89205 -11.657,4.3711 -91.793,41.525 -235.31,41.525 -106.36,0 -233.85,-32.054 -280.47,-48.811 -53.909,-18.941 -110.01,-44.44 -162.45,-108.55005 -13.113,-16.028 -34.24,-59.738 -34.24,-102.72 h -130.44 v 364.99005 h 144.98 v -49.538 c 0,-5.828 7.2852,-28.412 32.054,-17.484 29.869,13.842 118.74,48.811 211.26,68.48 76.494,15.299 125.3,26.955 220.01,26.955 154.44,0 237.5,-24.77 294.32,-41.525 54.638,-15.299 120.93,-42.982 175.58,-86.692 29.141,-23.312 93.249,-83.05 93.249,-191.60005 0,-104.91 -56.095,-169.01 -75.765,-189.41 -26.226,-26.226 -59.009,-47.353 -93.249,-63.38 -29.869,-13.842 -77.223,-31.326 -115.11,-40.068 -75.037,-18.941 -244.05,-41.525 -324.92,-49.538 -84.507,-8.7421 -230.94,-21.126 -289.95,-39.34 -17.484,-5.8282 -53.909,-22.584 -53.909,-64.837 0,-29.869 16.755,-55.367 49.538,-75.765 51.724,-32.783 156.63,-53.182 266.63,-53.182 128.94,0 238.95,29.869 308.16,60.466 24.041,10.928 51.724,26.226 73.579,43.711 25.498,20.399 59.738,62.652 72.851,121.67 h 116.57 v -318.43 h -130.4 v 37.154 c 0,12.384 -12.384,27.683 -35.698,14.57 -58.28,-30.597 -223.65,-96.892 -426.17,-96.892" /><path
       style="fill:#ffffff;fill-rule:nonzero"
       inkscape:connector-curvature="0"
       id="path32"
       d="m 3422.7,267.86965 637.45,574.79 -6.5566,-386.84 c -0.7289,-50.996 -10.199,-72.123 -65.566,-72.123 h -119.41 v -115.83 h 544.93 v 115.83 h -117.27 c -55.367,0 -59.009,18.213 -59.738,72.123 l 9.4706,739.44005 H 4059.48 L 3325.91,540.30965 v 464.78005 c 0.7289,50.996 2.914,74.308 55.367,74.308 h 130.4 v 115.83 h -534.73 v -115.83 h 125.3 c 46.625,0 44.44,-44.44 44.44,-76.494 V 460.21365 c 0,-34.969 -5.0997,-76.494 -77.95,-76.494 h -101.38 v -115.84 h 455.32 z" /><path
       style="fill:#ffffff;fill-rule:nonzero"
       inkscape:connector-curvature="0"
       id="path34"
       d="m 5036,1079.4797 c 5.0996,0 27.683,-0.7289 32.054,-2.1856 12.384,-3.6425 21.126,-13.113 25.498,-21.855 1.4572,-4.371 2.1856,-21.855 2.1856,-25.497 V 847.19205 c 0,-4.3711 0,-6.5566 -8.0137,-16.028 -8.0135,-10.928 -333.66,-379.55 -348.23,-395.58 -18.213,-20.399 -50.996,-51.724 -100.53,-51.724 h -112.92 v -115.84 h 638.9 v 115.83 h -77.223 c -17.484,0 -29.869,16.755 -14.57,35.697 0,0 214.91,257.16 217.1,259.35 2.1855,2.914 3.6426,3.6425 6.5566,1.457 2.914,-2.9141 220.01,-258.62 222.2,-260.81 10.199,-12.384 3.6426,-35.697 -18.941,-35.697 h -79.408 v -115.83 h 523.79 v 115.83 h -117.29 c -42.254,0 -59.738,8.0136 -91.063,43.711 -15.299,16.755 -343.85,391.94 -352.6,402.14 -5.0997,5.8282 -4.3712,13.113 -4.3712,17.484 v 182.85005 c 0,3.6425 0.7289,21.126 2.1856,25.498 4.3711,8.7422 12.384,18.213 25.498,21.855 4.371,1.457 26.955,2.1856 31.326,2.1856 h 120.2 v 115.83 h -636.21 v -115.83 h 113.64 z" /></g><g
     id="g865"><g
       transform="matrix(17.437226,0,0,17.437226,3091.9699,6534.342)"
       id="#000000ff"><path
         sodipodi:nodetypes="ccccc"
         style="opacity:1;fill:#000000"
         inkscape:connector-curvature="0"
         id="path9"
         d="m 42.78,3.8797501 h 89.36 V 50.199751 H 42.77 L 42.78,3.8797501" /><path
         style="opacity:1;fill:#000000"
         inkscape:connector-curvature="0"
         id="path11"
         d="m 104.24,20.05 c 2.75,0.14 6.19,0.3 7.68,3.06 1.37,2.76 1.36,6.66 -0.91,8.97 -1.78,1.78 -4.45,1.64 -6.76,1.97 -0.04,-4.67 -0.03,-9.34 -0.01,-14 z" /></g><path
       sodipodi:nodetypes="cccccccccccccccsccccsccccccc"
       inkscape:connector-curvature="0"
       id="path9-5"
       d="m 4316.485,6693.448 v 208.8936 H 4175.2566 V 6693.448 h -235.9388 v 624.7845 h 235.9388 v -218.4928 h 141.2284 v 218.4928 h 233.6632 V 6693.448 Z m 355.7325,0 c -0.3491,207.8517 2.2668,416.9328 0,624.7845 h 201.5065 c 38.9673,0 77.9016,-2.435 116.8815,-5.0592 107.239,-5.58 213.4359,-64.3632 265.7475,-159.7448 53.0092,-92.5917 50.5584,-213.4136 -5.4151,-304.0872 -53.3579,-88.9298 -153.4336,-143.6933 -255.9645,-150.3194 -43.9958,-2.9116 -84.8852,-5.5739 -124.5546,-5.5739 z m 234.1735,191.2701 c 47.9523,2.4412 107.7605,5.2322 133.7419,53.3589 23.8891,48.1268 23.7205,116.1442 -15.8621,156.4242 -31.0382,31.0383 -77.6,28.6008 -117.88,34.3551 -0.6971,-81.4318 -0.3479,-162.8807 -2e-4,-244.1382 z"
       style="opacity:1;fill:#ffffff;fill-opacity:1;stroke-width:17.43722725" /></g></svg>