<?xml version="1.0" encoding="UTF-8" standalone="no"?>
<!-- Creator: CorelDRAW X5 -->

<svg
   xmlns:dc="http://purl.org/dc/elements/1.1/"
   xmlns:cc="http://creativecommons.org/ns#"
   xmlns:rdf="http://www.w3.org/1999/02/22-rdf-syntax-ns#"
   xmlns:svg="http://www.w3.org/2000/svg"
   xmlns="http://www.w3.org/2000/svg"
   xmlns:xlink="http://www.w3.org/1999/xlink"
   xmlns:sodipodi="http://sodipodi.sourceforge.net/DTD/sodipodi-0.dtd"
   xmlns:inkscape="http://www.inkscape.org/namespaces/inkscape"
   xml:space="preserve"
   height="126"
   width="104.65565"
   version="1.1"
   viewBox="0 0 1090.1631 1312.4929"
   id="svg2"
   inkscape:version="0.92.0 r15299"
   sodipodi:docname="Sony Max 2.svg"
   style="fill-rule:evenodd"><sodipodi:namedview
     pagecolor="#ffffff"
     bordercolor="#666666"
     borderopacity="1"
     objecttolerance="10"
     gridtolerance="10"
     guidetolerance="10"
     inkscape:pageopacity="0"
     inkscape:pageshadow="2"
     inkscape:window-width="1920"
     inkscape:window-height="1017"
     id="namedview38"
     showgrid="false"
     fit-margin-top="0"
     fit-margin-left="0"
     fit-margin-right="0"
     fit-margin-bottom="0"
     inkscape:zoom="5.6568543"
     inkscape:cx="60.913188"
     inkscape:cy="60.437548"
     inkscape:window-x="-8"
     inkscape:window-y="-8"
     inkscape:window-maximized="1"
     inkscape:current-layer="svg2" /><metadata
     id="metadata4"><rdf:RDF><cc:Work
         rdf:about=""><dc:format>image/svg+xml</dc:format><dc:type
           rdf:resource="http://purl.org/dc/dcmitype/StillImage" /><dc:title /></cc:Work></rdf:RDF></metadata><defs
     id="defs6"><linearGradient
       id="linearGradient4512"
       inkscape:collect="always"><stop
         id="stop4506"
         offset="0"
         style="stop-color:#9701e5;stop-opacity:1;" /><stop
         style="stop-color:#9d00ec;stop-opacity:1"
         offset="0.4743591"
         id="stop4508" /><stop
         id="stop4510"
         offset="1"
         style="stop-color:#41014d;stop-opacity:1" /></linearGradient><linearGradient
       inkscape:collect="always"
       id="linearGradient836"><stop
         style="stop-color:#9701e5;stop-opacity:1;"
         offset="0"
         id="stop832" /><stop
         id="stop840"
         offset="0.38406572"
         style="stop-color:#9d00ec;stop-opacity:1" /><stop
         style="stop-color:#41014d;stop-opacity:1"
         offset="1"
         id="stop834" /></linearGradient><style
       type="text/css"
       id="style8">
    .fil0 {fill:black}
    .fil4 {fill:#1C31A0}
    .fil2 {fill:#54D344}
    .fil3 {fill:#F93C30}
    .fil6 {fill:white}
    .fil1 {fill:black;fill-rule:nonzero}
    .fil5 {fill:white;fill-rule:nonzero}
   </style><radialGradient
       inkscape:collect="always"
       xlink:href="#linearGradient836"
       id="radialGradient838"
       cx="1289.1953"
       cy="2438.0562"
       fx="1289.1953"
       fy="2438.0562"
       r="2585.198"
       gradientTransform="matrix(1.6114165,1.1103692,-0.94139028,1.3661869,2085.7465,-1717.0971)"
       gradientUnits="userSpaceOnUse" /><radialGradient
       inkscape:collect="always"
       xlink:href="#linearGradient836"
       id="radialGradient842"
       gradientUnits="userSpaceOnUse"
       gradientTransform="matrix(1.6114165,1.1103692,-0.94139028,1.3661869,2085.7465,-1717.0971)"
       cx="1289.1953"
       cy="2438.0562"
       fx="1289.1953"
       fy="2438.0562"
       r="2585.198" /><radialGradient
       inkscape:collect="always"
       xlink:href="#linearGradient4512"
       id="radialGradient844"
       gradientUnits="userSpaceOnUse"
       gradientTransform="matrix(1.4185782,0.94163567,-0.91755833,1.3823057,2276.249,-1538.8651)"
       cx="1289.1953"
       cy="2438.0562"
       fx="1289.1953"
       fy="2438.0562"
       r="2585.198" /></defs><path
     d="M 1090.1631,1312.4799 H 0 V 260.7723 h 1090.1631 z"
     id="path10"
     inkscape:connector-curvature="0"
     style="fill:#000000;fill-rule:nonzero;stroke-width:0.17713268" /><path
     d="M 1090.1631,253.2973 H 0 V -0.02019783 h 1090.1631 z"
     id="path12"
     inkscape:connector-curvature="0"
     style="fill:#000000;fill-rule:nonzero;stroke-width:0.17713268" /><path
     d="M 24.917255,285.1812 H 1067.9631 v 763.9201 H 24.917255 Z"
     id="path14"
     inkscape:connector-curvature="0"
     style="fill:#ffffff;fill-rule:nonzero;stroke-width:0.17713268" /><g
     id="g830"
     style="fill:url(#radialGradient838);fill-opacity:1"
     transform="matrix(0.17713269,0,0,0.17713269,0,-0.01659783)"><path
       style="fill:url(#radialGradient842);fill-opacity:1;fill-rule:nonzero"
       inkscape:connector-curvature="0"
       id="path16"
       d="m 858.94,5922.8797 h 2236.5 v -615.59 H 858.94 Z" /><path
       style="fill:url(#radialGradient844);fill-opacity:1;fill-rule:nonzero"
       inkscape:connector-curvature="0"
       id="path18"
       d="m 3101.7,2524.9797 c 2.1856,-257.16 231.66,-403.6 747.45,-399.22 228.02,2.1855 469.88,64.837 637.45,155.18 167.55,90.336 264.45,285.58 261.53,522.34 l 1280.8,2.9141 v -1196.2 h -4909.4 c -165.38,290.67 -257.9,632.35 -260.81,1026.5 -24.041,2718.8 4088.4,2012.9 4079,3090.3 -0.7288,72.851 -19.67,137.69 -53.909,195.96 h 1145.2 v -2119.3 c -1208,-606.11 -2933.2,-586.41 -2927.3,-1278.5" /></g><path
     d="m 604.16673,1270.2882 h 91.97944 l 32.9894,-51.2307 32.88653,51.2307 h 92.14465 l -79.52021,-83.0996 69.85029,-81.9489 h -91.53685 l -23.82651,40.6473 -23.72378,-40.6474 h -91.94197 l 70.15179,81.9442 z"
     id="path20"
     inkscape:connector-curvature="0"
     style="fill:#ffffff;fill-opacity:1;fill-rule:nonzero;stroke-width:0.15734209"
     sodipodi:nodetypes="ccccccccccccc" /><path
     d="m 443.94693,1208.1298 22.45971,-71.102 h 0.20701 l 22.45971,71.102 z m 68.62016,-102.9771 h -89.73433 l -81.21298,165.1771 h 87.94187 l 6.93468,-20.6485 h 60.44336 l 7.2451,20.6485 H 591.6198 L 512.5683,1105.154 Z"
     id="path22"
     inkscape:connector-curvature="0"
     style="fill:#ffffff;fill-opacity:1;fill-rule:nonzero;stroke-width:0.15863737"
     sodipodi:nodetypes="ccccccccccccccc" /><path
     d="m 248.93761,1270.2849 c -4.83258,-31.653 -9.97339,-65.369 -13.09459,-95.4937 -7.84077,32.4861 -22.61972,63.0807 -35.73014,95.4934 h -47.70281 c -11.9763,-31.7132 -28.36933,-63.735 -35.62871,-95.4881 -2.99986,31.3753 -8.34101,62.896 -13.19602,95.492 H 24.916668 l 38.166704,-165.0361 h 82.728898 c 11.21312,28.8699 24.65463,60.5858 31.36631,89.1711 7.44139,-32.1315 19.60336,-58.3134 32.4789,-89.1694 h 82.62718 c 11.80023,54.8626 23.4525,110.1981 35.32572,165.0445 h -78.67012 z"
     id="path24"
     inkscape:connector-curvature="0"
     style="fill:#ffffff;fill-opacity:1;fill-rule:nonzero;stroke-width:0.15710208"
     sodipodi:nodetypes="ccccccccccccccc" /><path
     d="m 346.65314,1268.8678 0.32542,-0.5162 -0.32542,-1.1614 z"
     id="path26"
     inkscape:connector-curvature="0"
     style="fill:#ffffff;fill-opacity:1;fill-rule:nonzero;stroke-width:0.1624037" /><path
     d="m 391.71122,221.9271 c -38.06759,0 -73.2975,-11.3558 -96.91283,-32.5198 -17.67891,-16.0015 -26.32546,-37.6797 -26.32546,-60.0037 0,-22.0672 8.90392,-44.003298 26.32546,-59.876198 21.93611,-19.8725 60.52092,-32.3887 96.91283,-32.3887 40.26226,0 72.52166,10.0654 97.16968,32.5198 17.42082,15.8723 25.93754,37.552098 25.93754,59.746898 0,21.4206 -9.03306,44.1326 -25.93754,60.0037 -22.97057,21.2913 -58.97279,32.5198 -97.16968,32.5198 v -24.3912 c 20.12936,0 38.97096,-6.9684 52.00439,-20.0018 13.03324,-12.9045 18.96913,-28.7752 18.96913,-48.1323 0,-18.583 -6.45205,-36.002198 -18.96913,-48.390898 -12.90448,-12.6462 -32.13187,-19.8725 -52.00439,-19.8725 -20.00182,0 -39.10027,7.0974 -52.00438,19.8725 -12.51726,12.3882 -18.96914,29.809698 -18.96914,48.390898 0,18.4537 6.58118,35.8747 18.96914,48.1323 12.90429,12.9043 32.00433,20.0018 52.00438,20.0018 z"
     id="path28"
     inkscape:connector-curvature="0"
     style="fill:#ffffff;fill-rule:nonzero;stroke-width:0.17713268" /><path
     d="m 128.31137,37.216702 c -20.38974,0 -43.487841,3.7421 -63.101743,12.5172 -18.065763,8.1297 -32.904168,21.1638 -32.904168,42.8413 0,19.613898 12.388129,30.969898 12.001094,30.713098 5.290776,4.7746 13.807493,13.1623 36.002218,17.9364 9.936258,2.1936 31.228489,5.5489 52.261229,7.7427 21.03273,2.1936 41.68109,4.3876 50.06832,6.452 6.71032,1.6776 17.93646,4.0004 17.93646,16.6466 0,12.5173 -11.87196,16.3885 -13.93662,17.1628 -2.06484,0.7742 -16.25954,7.3554 -41.6811,7.3554 -18.83983,0 -41.42247,-5.6778 -49.6804,-8.646 -9.549046,-3.3551 -19.486367,-7.8718 -28.775205,-19.2278 -2.32274,-2.8391 -6.065023,-10.5815 -6.065023,-18.1951 H 37.331245 v 64.6517 h 25.680697 v -8.7748 c 0,-1.0323 1.290447,-5.0327 5.677811,-3.097 5.290776,2.4519 21.032735,8.646 37.421047,12.1301 13.54959,2.7099 22.19473,4.7746 38.97097,4.7746 27.35637,0 42.06901,-4.3876 52.13369,-7.3555 9.67817,-2.7099 21.42065,-7.6135 31.10095,-15.3559 5.16183,-4.1294 16.51745,-14.7109 16.51745,-33.9387 0,-18.583 -9.93626,-29.9372 -13.42046,-33.5507 -4.64548,-4.6455 -10.45242,-8.3877 -16.51744,-11.2266 -5.29078,-2.4519 -13.67872,-5.5489 -20.38975,-7.0974 -13.2915,-3.3551 -43.22923,-7.3554 -57.55395,-8.7748 -14.96895,-1.5485 -40.907021,-3.742098 -51.359621,-6.968398 -3.096988,-1.0324 -9.549046,-4.0004 -9.549046,-11.4848 0,-5.2907 2.967858,-9.8073 8.774799,-13.4204 9.162011,-5.807 27.744288,-9.4203 47.228888,-9.4203 22.83949,0 42.32586,5.2908 54.58521,10.7105 4.25845,1.9357 9.16201,4.6455 13.03324,7.7427 4.51653,3.6133 10.58156,11.0977 12.9043,21.551698 h 20.64835 V 45.206902 h -23.0981 v 6.5812 c 0,2.1936 -2.19361,4.9036 -6.32328,2.5809 -10.32329,-5.4198 -39.61573,-17.1628 -75.48864,-17.1628"
     id="path30"
     inkscape:connector-curvature="0"
     style="fill:#ffffff;fill-rule:nonzero;stroke-width:0.17713268" /><path
     d="M 606.27204,47.431902 719.18527,149.246 718.02388,80.724002 c -0.12911,-9.0331 -1.80657,-12.7753 -11.61388,-12.7753 h -21.15141 v -20.5173 h 96.52491 v 20.5173 h -20.77235 c -9.8073,0 -10.45242,3.2261 -10.58155,12.7753 L 752.10715,211.703 H 719.06659 L 589.12737,95.689902 V 178.0177 c 0.12911,9.033 0.51616,13.1624 9.8073,13.1624 h 23.09811 v 20.5172 h -94.71816 v -20.5172 h 22.19472 c 8.25881,0 7.87178,-7.8718 7.87178,-13.5496 V 81.502302 c 0,-6.1941 -0.90333,-13.5496 -13.80749,-13.5496 h -17.95772 v -20.519 h 80.65206 z"
     id="path32"
     inkscape:connector-curvature="0"
     style="fill:#ffffff;fill-rule:nonzero;stroke-width:0.17713268" /><path
     d="m 892.0402,191.1946 c 0.90331,0 4.90357,-0.1291 5.67781,-0.3872 2.19362,-0.6452 3.74211,-2.3227 4.51653,-3.8712 0.25812,-0.7742 0.38714,-3.8712 0.38714,-4.5164 v -32.371 c 0,-0.7742 0,-1.1613 -1.41948,-2.839 -1.41946,-1.9357 -59.1021,-67.230798 -61.68292,-70.070198 -3.22612,-3.6133 -9.03306,-9.162 -17.80715,-9.162 h -20.00182 v -20.5191 h 113.17007 v 20.5173 h -13.67871 c -3.09699,0 -5.29078,2.9679 -2.58083,6.3231 0,0 38.06759,45.551498 38.45551,45.939398 0.38712,0.5162 0.64522,0.6452 1.16139,0.2581 0.51616,-0.5162 38.97096,-45.810098 39.35888,-46.197998 1.80657,-2.1936 0.64522,-6.3231 -3.35507,-6.3231 H 960.1758 v -20.5173 h 92.7803 v 20.5173 h -20.7759 c -7.4845,0 -10.5815,1.4195 -16.1302,7.7426 -2.71,2.9679 -60.90707,69.425398 -62.45699,71.232198 -0.90332,1.0323 -0.77428,2.3227 -0.77428,3.097 v 32.3887 c 0,0.6452 0.12911,3.7421 0.38714,4.5165 0.77427,1.5485 2.19361,3.2261 4.51653,3.8713 0.77425,0.258 4.77461,0.3871 5.54886,0.3871 h 21.29135 V 211.728 H 871.86902 v -20.5173 h 20.12936 z"
     id="path34"
     inkscape:connector-curvature="0"
     style="fill:#ffffff;fill-rule:nonzero;stroke-width:0.17713268" /><path
     sodipodi:nodetypes="ccccc"
     style="opacity:1;fill:#ffffff;stroke-width:3.39403844;fill-opacity:1"
     inkscape:connector-curvature="0"
     id="path42"
     d="M 1067.9349,1105.2399 V 1270.292 H 899.91671 l -84.71875,-83.1042 74.41667,-81.9479" /><g
     transform="matrix(2.375874,0,0,2.375874,1099.6978,1111.18)"
     id="#904098ff"><path
       d="m -71.86179,8.6 c 7.23,-6.23 17.3,-7.14 26.45,-6.64 8.26,0.32 16.79,3.28 22.42,9.56 4.99,6.14 5.63,15.98 0.29,22.11 -3.67,4.93 -9.41,7.499749 -13.93,11.479749 h 17.300249 v 16.49025 H -82.55179 l 34.1,-32.609999 c 1.83,-1.84 4.083103,-4.638628 2.44,-7.34 -1.309335,-2.152636 -4.20432,-2.096277 -6.09,-1.24 -2.233358,1.014155 -2.63,6.33 -2.63,6.33 l -24.66,0.02 c -0.24,-6.75 2.06,-13.89 7.53,-18.16 z"
       id="path5"
       inkscape:connector-curvature="0"
       style="opacity:1;fill:#9422b1;fill-opacity:1"
       sodipodi:nodetypes="cccccccccssccc" /></g></svg>