<svg id="a" width="800" height="117.54" version="1.1" viewBox="0 0 211.67 31.098" xmlns="http://www.w3.org/2000/svg">
 <g id="b" transform="translate(257.16 75.395)">
  <g id="c" transform="matrix(.19455 0 0 .19455 -68.066 -11.725)" fill="#adadad" stroke-width="1px" aria-label="SPOTLIGHT TV">
   <path id="d" d="m-927.31-167.52q-22.125 0-33-11.719-10.781-11.812-11.625-37.594l29.438-4.5q0.1875 14.625 3.4688 21.281 3.375 6.5625 10.031 6.5625 8.7188 0 8.7188-11.25 0-6.2812-2.25-11.531-2.25-5.3438-5.5312-9.0938t-9.1875-8.8125l-13.781-11.906q-4.9688-4.3125-8.25-7.875t-6.4688-8.4375q-3.0938-4.9688-4.5938-10.969t-1.5-13.219q0-19.406 11.625-30t31.875-10.688q6.9375 0 12.562 1.5 5.7188 1.5 9.5625 3.9375 3.9375 2.4375 6.8438 6.1875 3 3.6562 4.6875 7.4062 1.7812 3.6562 2.9062 8.3438 1.2188 4.5938 1.5938 8.4375 0.46875 3.8438 0.65625 8.25l-29.719 3.8438q-0.0937-3.9375-0.28125-6.4688-0.0937-2.625-0.46875-5.5312-0.375-2.9062-1.0312-4.6875t-1.7812-3.2812q-1.0312-1.5938-2.7188-2.25-1.5938-0.65625-3.8438-0.5625-4.5 0.0937-6.9375 3.8438-2.3438 3.6562-2.3438 8.25 0 4.4062 1.0312 8.0625 1.125 3.5625 3.75 6.9375 2.7188 3.375 4.4062 5.0625t5.625 5.25l13.219 11.625q5.4375 4.875 9.375 9.375 3.9375 4.4062 7.5 10.125 3.5625 5.625 5.3438 12.469 1.875 6.75 1.875 14.531 0 16.875-11.25 28.031-11.25 11.062-29.531 11.062z"/>
   <path id="e" d="m-835.62-259.77h10.969q9.2812 0 12.281-4.6875 3.0938-4.7812 3.0938-16.125 0-4.0312-0.28125-6.75-0.1875-2.7188-1.125-5.5312-0.84375-2.8125-2.5312-4.4062-1.5938-1.6875-4.5-2.7188t-7.0312-1.0312h-10.875zm-34.312 90.094v-155.44h51.844q20.625 0 30.844 11.531t10.219 33.562q0 8.7188-1.5938 15.656-1.5 6.9375-4.5 11.719t-6.9375 8.1562q-3.9375 3.2812-9.1875 5.1562t-10.781 2.7188q-5.4375 0.75-12.094 0.75h-13.5v66.188z"/>
   <path id="f" d="m-716.19-167.52q-12.938 0-22.125-3.375-9.0938-3.4688-14.531-10.219-5.3438-6.8438-7.7812-16.031-2.3438-9.1875-2.3438-21.656v-57.375q0-12.562 2.3438-21.656 2.4375-9.1875 7.7812-15.938 5.4375-6.75 14.531-10.125 9.1875-3.375 22.125-3.375 25.219 0 36.094 12.938 10.969 12.844 10.969 38.156v57.375q0 25.312-10.969 38.344-10.875 12.938-36.094 12.938zm-5.3438-25.406q2.25 1.125 5.3438 1.125t5.3438-1.0312q2.25-1.125 3.4688-2.7188 1.2188-1.6875 1.875-4.3125 0.75-2.625 0.9375-4.875 0.1875-2.3438 0.1875-5.5312v-74.531q0-3.0938-0.1875-5.3438-0.1875-2.3438-0.9375-4.875-0.65625-2.625-1.875-4.2188t-3.4688-2.625q-2.25-1.125-5.3438-1.125t-5.3438 1.125q-2.1562 1.0312-3.375 2.625-1.2188 1.5-1.875 4.2188-0.65625 2.625-0.84375 4.7812-0.0937 2.1562-0.0937 5.4375v74.531q0 3.2812 0.0937 5.5312 0.1875 2.1562 0.84375 4.875 0.65625 2.625 1.875 4.2188t3.375 2.7188z"/>
   <path id="g" d="m-633.97-169.67v-130.03h-23.906v-25.406h81.938v25.406h-23.625v130.03z"/>
   <path id="h" d="m-562.44-169.67v-155.44h34.312v132.19h35.625v23.25z"/>
   <path id="i" d="m-477.03-169.67v-155.44h34.312v155.44z"/>
   <path id="j" d="m-378.97-167.42q-11.812 0-20.25-3.75-8.3438-3.8438-13.219-11.156t-7.125-16.875q-2.1562-9.5625-2.1562-22.125v-51.656q0-10.312 1.4062-18.469 1.5-8.1562 4.7812-15 3.375-6.8438 8.7188-11.344t13.312-6.9375q7.9688-2.5312 18.469-2.5312 10.125 0 17.906 2.1562t12.938 6q5.25 3.8438 8.5312 9.6562 3.2812 5.7188 4.6875 12.562 1.4062 6.75 1.4062 15.188v9.8438h-33.562v-12.469q0-3.5625-0.1875-5.8125-0.0937-2.25-0.75-4.9688-0.5625-2.7188-1.7812-4.2188-1.125-1.5-3.375-2.5312-2.1562-1.125-5.3438-1.125-3.2812 0-5.625 1.2188-2.25 1.2188-3.4688 3-1.2188 1.6875-1.9688 4.5938-0.65625 2.9062-0.84375 5.3438-0.0937 2.3438-0.0937 5.8125v71.156q0 9.2812 2.7188 14.719 2.8125 5.3438 10.125 5.3438 13.5 0 13.5-20.719v-17.438h-14.062v-20.531h45.094v80.812h-22.781l-1.9688-13.031q-6.8438 15.281-25.031 15.281z"/>
   <path id="k" d="m-307.16-169.67v-155.44h34.406v62.812h23.906v-62.812h34.406v155.44h-34.406v-68.062h-23.906v68.062z"/>
   <path id="l" d="m-176.47-169.67v-130.03h-23.906v-25.406h81.938v25.406h-23.625v130.03z"/>
   <path id="m" d="m-41.094-169.67v-130.03h-23.906v-25.406h81.938v25.406h-23.625v130.03z"/>
   <path id="n" d="m51.438-169.67-28.125-155.44h29.344l16.688 104.81 15.469-104.81h31.219l-28.5 155.44z"/>
  </g>
 </g>
</svg>
