<?xml version="1.0" encoding="UTF-8"?>
<!-- Generator: Adobe Illustrator 22.1.0, SVG Export Plug-In . SVG Version: 6.00 Build 0)  -->
<svg id="Layer_2" width="471.2" height="171.3" version="1.1" viewBox="0 0 471.2 171.3" xml:space="preserve" xmlns="http://www.w3.org/2000/svg" xmlns:cc="http://creativecommons.org/ns#" xmlns:dc="http://purl.org/dc/elements/1.1/" xmlns:rdf="http://www.w3.org/1999/02/22-rdf-syntax-ns#"><metadata id="metadata39"><rdf:RDF><cc:Work rdf:about=""><dc:format>image/svg+xml</dc:format><dc:type rdf:resource="http://purl.org/dc/dcmitype/StillImage"/><dc:title/></cc:Work></rdf:RDF></metadata>
<g id="g20" transform="translate(-120.9,-229.2)">
	<polygon id="polygon4" points="412.8 258.5 418.4 258.5 418.4 235 426.7 235 426.7 229.8 404.5 229.8 404.5 235 412.8 235"/>
	<rect id="rect6" x="432.5" y="229.8" width="5.7" height="28.7"/>
	<polygon id="polygon8" points="446.1 229.8 446.1 258.5 451.6 258.5 451.6 239.8 465.7 258.5 471.1 258.5 471.1 229.8 465.5 229.8 465.5 248.5 451.5 229.8"/>
	<path id="path10" d="m494 248.8h5.3c-0.9 3.2-3.6 5-7.4 5-6.4 0-9.3-5-9.3-9.6 0-4.7 3.1-9.8 9-9.8 3.3 0 6 1.7 6.6 4.1l0.2 0.8h5.6l-0.2-1.2c-0.8-5.2-6-8.9-12.3-8.9-9.5 0-14.6 7.8-14.6 15.1 0 7.4 5.1 14.8 14.9 14.8 6.9 0 12-3.9 13.4-10.3h3v-5.2h-14.2z"/>
	<polygon id="polygon12" points="569.2 229.8 562.6 229.8 573.3 246.9 567.5 258.5 573.7 258.5 588.1 229.8 582 229.8 576.3 241.1"/>
	<path id="path14" d="m528.9 247.6c2.9-1.7 4.7-4.8 4.7-8.2 0-5.2-4.3-9.5-9.5-9.6h-11.1v28.7h5.6v-9.5h4.6l4.4 9.5h6.3zm-4.9-3.9h-5.5v-8.7h5.4c2.4 0 4.3 1.9 4.3 4.3 0.1 2.4-1.8 4.4-4.2 4.4z"/>
	<path id="path16" d="m552.9 230-0.1-0.2h-5l-9.9 28.7h6.1l2.1-6.4h8.4l2.1 6.4h6.1zm-5.6 17.4 3-9.1 3 9.1z"/>
	<path id="path18" d="m393.9 242-5.2-1.2c-2.1-0.5-3.2-1.5-3.2-3.1 0-2 1.8-3.3 4.5-3.3 3 0 4.6 1.5 5.2 3.4h5.9c-0.9-4.8-4.7-8.2-11.1-8.2-6 0-10.2 3.6-10.2 8.7 0 4.7 3.1 6.8 7.2 7.8l5.1 1.2c2.5 0.6 3.5 1.5 3.5 3.2 0 2.3-1.9 3.6-4.8 3.6-2.8 0-4.9-1.2-5.6-3.6h-6.2c1 5.4 5.5 8.5 11.8 8.5 6 0 10.5-3.3 10.5-8.8 0-4.5-2.8-7.2-7.4-8.2z"/>
</g>
<g id="g30" transform="translate(-120.9,-229.2)">
	<g id="g28">
		<path id="path22" d="m139.4 277.8h27.8l-2 10.6c4.3-4.8 12.2-14 30-14 33.6 0 31.9 27.3 29.4 40.7l-11.5 62.3h-29.8l10.1-54.4c2-10.9 1.4-20.6-11.8-20.6-14.7 0-18.8 10.6-20.8 20.8l-10.1 54.2h-29.8z"/>
		<path id="path24" d="m216.9 327.3c4.5-24.2 27.1-52.8 63.4-52.8s48.5 28.5 44 52.9c-4.7 24.4-27.3 53-63.5 53s-48.5-28.5-43.8-53v-0.1zm29.6 0.4c-2.5 14.4 6.5 24.9 19.4 24.9s25.8-10.6 28.5-25.1-6.5-25.1-19.4-25.1-25.7 10.6-28.4 25.1z"/>
		<path id="path26" d="m316.4 277.8h30.9l3.8 61.9 27.8-61.9h25.1l5.4 61.9 26.4-61.9h30.7l-49 99.6h-27.6l-5-64.4-28.7 64.4h-27.6z"/>
	</g>
</g>
<path id="path32" class="st0" d="m471.2 94.3h-30.4l-25.8 24.4 10.1-50.4h-23.8l-11.9 59.8h-7.7l12.6-59.8h-22.5l-59 59-4.2 21h46l-5 23h22.8l5-23h7.8l-4.8 23h23.6l5.1-24.7 8.1-6.9 11.6 31.6h26l-19.4-46.8zm-136.2 33.8 30.5-31.2-6.6 31.2z" fill="#49f990"/>
</svg>
