<svg height="251.11137pt" viewBox="0 0 687.13 251.11137" width="687.13pt" xmlns="http://www.w3.org/2000/svg"><path d="m112.37 109.53c11.3-5.44 24.32-6.18 36.58-4.4 9.63 1.45 19.29 5.77 25.19 13.77 6.51 8.58 8.03 19.73 7.9 30.21 12.94-20.75 33.88-36.72 57.87-42.15 15.64-3.5 32.38-3.5 47.65 1.7 12 4.16 22.84 12.28 29.34 23.29l-2.81-22.7h45.07l5.49 90.61975 40.52-90.6195h36.68l7.85 90.6195 38.42-90.6195 44.83-.00025-71.5 146.05975h-40.34l-7.31-94.29975-41.82 94.29975-40.34.00025-7.86-66.39c-6.01 22.33-20.47 42.26-39.54 55.28-19.98 13.69-45.6 18.59-69.28 13.76-14.04-2.85-27.26-10.61-35.61-22.38-4.05-5.8-7.5-12.23-8.87-19.21-1.94 13.04-4.68 25.94975-6.96 38.93975h-43.51l14.32-77.81975c1.23-7.07 2.57-14.51.55-21.56-1.25-4.75-5.21-8.52-9.97-9.65-10.45-2.48-23.05-.13-29.72 8.92-6.04 7.92-7.62 18.04-9.34 27.57l-13.39 72.53975-43.5.00025 26.97-146.05975h40.63l-2.85 15.37975c5.25-6.09 11.32-11.66 18.66-15.1m133.79 36.68c-19.81 4.32-34.45 23.74-34.56 43.78.03 8.63 3.65 17.42 10.53 22.82 7.16 5.8 17.1 7.26 25.94 5.25 20.18-4.42 35.48-24.48 34.53-45.09-.31-8.33-4.11-16.64-10.82-21.73-7.15-5.6-16.9-6.97-25.62-5.03z" transform="translate(-28.96 -37.878627)"/><path d="m571.04 138.12h32.93l-18.41 87.54975h11.16l17.33-87.54975h34.74l-14.63 73.71 37.32-35.42025h44.61l-52.01 43.95025 28.26 68.63h-38.06l-16.89-46.17-11.63 10.04-7.64 36.13h-34.54l6.98-33.68025h-11.3l-7.24 33.68025h-33.31l7.22-33.68025h-67.01l6.08418-29.64zm-53.45 87.54975h34.67l9.56-45.46975z" fill="#00fe84" transform="translate(-28.96 -37.878627)"/><g transform="matrix(5.946198825 0 0 5.946198825 97.392976000938 -.000013291948)"><path d="m58.6 7.5h1.4v-5.8h2v-1.3h-5.4v1.3h2z" transform="translate(-3.4 -.2)"/><path d="m60.099998.2h1.4v7h-1.4z"/><path d="m66.8.4v7.1h1.4v-4.6l3.4 4.6h1.3v-7.1h-1.3v4.6l-3.5-4.6z" transform="translate(-3.4 -.2)"/><path d="m75.1 4.9h1.3c-.2.8-.8 1.2-1.8 1.2-1.6 0-2.3-1.2-2.3-2.4s.8-2.4 2.2-2.4c.8 0 1.5.4 1.6 1l .1.2h1.4v-.3c-.2-1.3-1.5-2.2-3-2.2-2.3 0-3.6 1.9-3.6 3.7s1.3 3.6 3.6 3.6c1.7 0 2.9-1 3.3-2.5h.7v-1.2h-3.5z"/><path d="m97 .4h-1.6l2.6 4.2-1.4 2.9h1.5l3.5-7.1h-1.5l-1.4 2.8z" transform="translate(-3.4 -.2)"/><path d="m83.7 4.6c.7-.4 1.1-1.2 1.1-2 0-1.3-1-2.3-2.3-2.3h-2.7v7h1.4v-2.4h1.1l1.1 2.3h1.5zm-1.2-.9h-1.3v-2.2h1.3c.6 0 1.1.5 1.1 1.1-.1.6-.5 1.1-1.1 1.1"/><path d="m89.6.3-1.2-.1-2.4 7h1.5l.5-1.6h2.1l.5 1.6h1.5zm-1.4 4.3.7-2.2.7 2.2z"/><path d="m50.6 3.2-1.3-.3c-.5-.1-.7-.3-.7-.7 0-.5.4-.8 1.1-.8s1.1.4 1.3.8h1.4c-.2-1.2-1.1-2-2.7-2-1.5 0-2.5.9-2.5 2.1 0 1.1.8 1.7 1.8 1.9l1.2.3c.6.1.8.4.8.8 0 .6-.5.9-1.2.9s-1.2-.3-1.4-.9h-1.5c.2 1.3 1.3 2.1 2.9 2.1 1.5 0 2.6-.8 2.6-2.2 0-1.1-.7-1.7-1.8-2"/></g></svg>