<?xml version="1.0" encoding="UTF-8"?>
<svg id="svg2" width="1007.5pt" height="316.48pt" version="1.1" viewBox="0 0 1007.5 316.48" xmlns="http://www.w3.org/2000/svg" xmlns:cc="http://creativecommons.org/ns#" xmlns:dc="http://purl.org/dc/elements/1.1/" xmlns:rdf="http://www.w3.org/1999/02/22-rdf-syntax-ns#">
 <metadata id="metadata30">
  <rdf:RDF>
   <cc:Work rdf:about="">
    <dc:format>image/svg+xml</dc:format>
    <dc:type rdf:resource="http://purl.org/dc/dcmitype/StillImage"/>
    <dc:title/>
   </cc:Work>
  </rdf:RDF>
 </metadata>
 <path id="path18" d="m690.15 1.174c6.95-1.73 14.31-1.44 21.18 0.57 6.71 1.92 14.11 2.42 19.95 6.61 2.72 1.9 5.51 3.72 8.14 5.76 3.08 2.39 5.06 5.81 7.35 8.9 4.95-1.02 9.95-2.47 15.06-1.66 6.01 1.02 11.88 2.67 17.84 3.91 4.16 0.92 8.18 2.57 11.56 5.22 3.87 3.07 8.58 5.32 11.34 9.6 2.76 4.07 6.34 7.84 7.32 12.83 1.14 5.92 3.41 11.68 3.32 17.78 0.05 6.43-0.18 12.86 0.17 19.28 4.24-0.04 8.63 0.2 12.53 2.05 7.47-0.63 14.5-3.95 22.04-4.13 3.57-0.14 7.04 0.81 10.49 1.62 5.24 1.43 10.99 1.91 15.43 5.36 3.7 2.88 8.27 4.94 10.87 9.01 2.65 3.81 5.77 7.36 7.5 11.73 1.46 4.38 3.21 8.67 4.93 12.96 0.93-2.26 1.71-4.59 2.87-6.75 1.7-5.77 4.29-11.21 8.16-15.84 2.99-5.31 8.36-8.34 13.13-11.81 2.2-1.53 4.72-2.61 7.36-3.12 7.18-1.35 14.38-4.41 21.79-2.66 7.15 1.69 14.43 2.98 21.38 5.4 6.45 2.4 11.82 6.78 17.42 10.64 2.94 2.1 5.51 4.72 7.6 7.67 2.76 3.99 6.04 7.77 7.35 12.55 0.41 2.41 0.93 4.8 1.51 7.18 1.09 3.41 2.15 7 1.56 10.63-0.62 3.77-1.88 7.39-2.61 11.14-1.07 6.09-4.19 11.51-6.44 17.19-2.87 6.58-5.55 13.25-8.48 19.8-3.21 7.36-6.38 14.74-9.54 22.11-2.03 4.66-4.06 9.31-5.97 14.01-4.13 9.29-8.15 18.64-12.03 28.04-1.42 3.01-2.78 6.05-4.03 9.12-2.07 4.64-4.1 9.29-5.96 14.01-2.68 5.33-4.21 11.26-7.9 16.06-0.88 1.16-1.73 2.34-2.56 3.53-1.12 1.53-2.32 2.98-3.49 4.46-5.44 3.42-10.2 8.22-16.6 9.83-5.81 1.44-11.67 2.73-17.49 4.12-10.71 2.06-21.16-1.74-31.49-3.99-3.42-0.82-6.53-2.54-9.29-4.68-3.03-2.36-6.59-4.16-8.91-7.3-1.49-1.95-2.96-3.91-4.44-5.85-1.9 3.27-4.86 5.67-7.88 7.85-3.1 2-5.87 4.56-9.29 6.03-5.07 1.83-10.46 2.47-15.64 3.9-3.99 1.05-8.15 1.1-12.23 0.89-6.7-0.35-13.42 0.13-20.1-0.47-7.75-0.91-15.31-2.86-22.88-4.67-7.93-1.69-15.78-4.43-22.35-9.29-4.2 2.01-7.52 5.39-11.57 7.64-4.35 2.35-9.32 2.98-14.02 4.26-4.67 1-9.28 2.61-14.12 2.41-5.43 0.31-10.57-1.71-15.81-2.77-2.74-0.88-5.8-0.97-8.26-2.55-4.25-0.6-7.83 2.42-11.91 3.12-9.89 2.17-19.71 5.49-29.96 5.09-8.32-0.17-16.26-2.93-24.32-4.66-9.78-2.15-17.96-8.21-25.88-14-1.82-1.63-3.68 0.59-5.22 1.49-8.38 6.2-18.39 9.76-28.49 12-7.84 1.71-15.59 4.02-23.62 4.64-12.88 1.18-26.01 0.54-38.59-2.55-10.45-2.55-21.24-4.46-30.82-9.59-7.65-3.72-14.38-8.97-21.21-13.96-0.52 0.06-1.55 0.18-2.07 0.24-2.04 2.19-4.19 4.3-6.65 6.03-6.55 4.7-12.79 10.04-20.33 13.14-3.97 1.76-8.22 2.66-12.41 3.73-7.08 1.59-14.14 3.76-21.48 3.52-7.49 0.1-14.68-2.1-21.92-3.67-4.15-1-8.34-1.93-12.28-3.59-1.51-0.45-3.06-1.65-4.68-0.99-5.19 1.71-10.56 2.82-15.87 4.09-6.19 1.82-12.91 1.67-19.07-0.18-7.03-1.79-14.66-2.48-20.69-6.9-4.26-3.19-9.04-5.84-12.48-10-5.72 4.26-11.68 8.28-18.19 11.23-9.33 4.81-19.91 5.96-29.94 8.64-7.21 1.02-14.58 2.46-21.86 1.18-8.26-0.56-16.14-3.22-24.21-4.88-4.82-0.93-9.43-2.68-13.95-4.55-3.97-2.04-7.95-4.09-11.65-6.6-1.27-0.83-2.41 0.77-3.44 1.3-3.41 2.71-6.97 5.21-10.74 7.38-6.28 1.67-12.6 3.25-18.97 4.52-7.99 0.64-16.05 0.41-24.06 0.13-9.82-0.11-19.34-2.81-28.83-5.1-2.68-0.55-5.37-1.14-7.93-2.14-1.57-0.49-3.15-0.96-4.73-1.39l-0.01-0.61c-1.24-0.45-2.47-0.9-3.71-1.33-4.26-2.84-8.48-5.72-12.7-8.61-0.73-0.59-1.47-1.17-2.21-1.75-0.92-0.74-1.85-1.48-2.78-2.21-1.33-1.3-2.6-2.66-3.84-4.04-0.84-1.17-1.69-2.33-2.56-3.47-3.08-4.45-6.54-8.67-8.92-13.55-3.85-7.41-4.51-15.88-6.88-23.78-1.06-4.92-1.79-9.92-2.31-14.92 0.11-53.01 0.12-106.03 0.15-159.05-0.36-1.49 0.98-4.25-1.7-4.18 3.31 1.89 2.48-0.41 2.6-1.74 0.14-2.06 0.78-4.05 1.23-6.05 1.21-4.07 1.45-8.56 4.1-12.07 3.16-4.1 5.54-9.02 10.04-11.86 4.71-3.13 9.08-7.03 14.57-8.75 6.08-1.91 12.44-2.77 18.52-4.63 9.25-1.65 18.14 1.89 27.07 3.67 7.05 1.32 12.78 5.81 18.35 10.03 3.64 2.8 6.14 6.72 8.8 10.4 1.6 2.23 3.07 4.65 3.52 7.41 0.88 4.59 2.4 9.07 2.95 13.72 0.47 7.78-0.38 15.6 0.56 23.35 7.44-0.34 14.45 2.52 21.66 3.88 8.75-2.42 17.98-5.33 27.07-2.83 7.95 2.31 16.78 2.82 23.6 7.97 3.46 2.53 7.17 4.77 10.28 7.74 8.7982 14.163 8.9801 3.7253 17.77-2.42 5.41-3.82 10.61-8.51 17.3-9.87 8.35-1.79 16.57-4.72 25.21-4.55-0.06-13.4 0.11-26.8-0.05-40.2-0.34-6.14 2.04-11.92 3.19-17.86 1.08-6.37 5.94-11.05 9.57-16.09 6.03-4.91 12.38-10.24 20.25-11.71 9.76-2.3 19.84-5.78 29.92-3.06 8.02 2.35 16.86 2.8 23.92 7.71 4.4 3.11 9.28 5.88 12.35 10.46 2.59 3.83 6.04 7.33 6.99 12.01 1.1 4.86 2.54 9.66 3.39 14.55 0.1 14.18 0.03 28.36 0.08 42.54 12.69-1.79 24.92 2.37 37.12 5.13 30.45 19.856 32.166 16.369 60.13 4.42 8.12-3.68 16.93-5.26 25.52-7.38 11.59-3 23.86-3.34 35.58-0.92 10.39 2.67 21.16 4.35 30.9 9.06 8.02 3.47 14.64 9.3 21.88 14.06 9.67-7.96 19.88-16.08 32.2-19.4 5.68-1.41 11.36-2.88 17.07-4.21 6.32-1.39 12.83-1.27 19.24-0.71 0.21-13.54 0.11-27.09 0.13-40.64 0.23-5.45 2.27-10.59 3.29-15.92 0.89-5.03 4.48-8.83 7.28-12.9 1.76-2.55 4.08-4.66 6.65-6.39 4.16-2.85 8.15-6.26 13.15-7.52 5.04-1.37 10.15-2.44 15.2-3.77" fill="#c752d4"/>
 <g id="#ffffffff" transform="translate(-17.01 -10.306)" fill="#fff">
  <path id="path5" d="m311.13 46.2c6.55-4.05 14.62-3.93 22.01-3.15 5.55 1.07 11.37 3.36 14.67 8.2 2.58 3.75 1.8 8.49 1.93 12.77 0.06 28.88-0.16 57.76 0.11 86.63 8.11-10.37 19.87-18.36 33.18-19.73 6.84-0.42 13.88-0.59 20.52 1.42 15.11 4.11 27.76 15.07 35.64 28.42 6.67 11.6 9.92 24.96 10.19 38.27-0.06 7.33-0.04 14.65-0.03 21.98 0.39 15.26-3.71 30.62-11.72 43.63-7.27 11.23-17.61 20.88-30.22 25.71-21.09 7.8-46.59 0.01-60.11-17.88-0.21 3.48-0.44 7.33-2.91 10.06-5.41 6.96-15.07 9.21-23.44 7.55-6.81-1.08-14.06-4.92-16.2-11.91-0.62-3.02-0.25-6.12-0.31-9.17 0.02-70.7 0-141.39 0.01-212.09-0.19-4.55 3.14-8.29 6.68-10.71m58.3 125.35c-11.01 3.19-19.89 13.78-19.66 25.49 0.11 11.99-0.42 24.03 0.27 36 3.98 11.07 15.02 20.06 26.99 20.39 14.47 0.22 26.55-13.38 26.86-27.41 0.04-9.01-0.03-18.02 0.02-27.03 0.43-10.82-6.45-21.12-15.95-25.94-5.66-2.96-12.44-3.03-18.53-1.5z"/>
  <path id="path7" d="m695.41 51.43c4.16-6.4 12.41-8.7 19.67-8.77 7.34-0.37 15.46 1.05 20.74 6.59 2.54 2.54 3.43 6.22 3.38 9.72-0.03 69.68-0.01 139.36-0.01 209.04-0.05 4.44 0.56 9.29-1.95 13.23-3.65 5.36-10.01 8.28-16.31 9.03-7.82 1.17-16.73-0.9-21.87-7.26-2.62-2.76-3.2-6.62-3.47-10.25-8.87 11.26-22.31 18.75-36.56 20.28-4.71 0.18-9.44 0.29-14.13-0.13-15.63-2.63-29.16-12.88-37.86-25.87-7.79-10.76-11.85-23.82-13.14-36.95-0.21-10.05 0.04-20.1-0.14-30.14-0.13-16.72 4.7-33.82 15.36-46.91 10.42-13.28 26.7-22.89 43.92-22.39 9.71-0.4 19.42 2.54 27.46 7.95 4.96 3.42 9.21 7.73 13.15 12.27 0.22-29.64-0.01-59.28 0.09-88.91 0.07-3.55-0.6-7.47 1.67-10.53m-36.96 120.2c-11.22 3.85-19.95 15.26-19.4 27.31 0.14 9.74-0.13 19.48 0.13 29.21 1.48 13.4 13.73 26.03 27.71 25.23 9.56-0.38 17.9-6.62 23.24-14.21 1.79-2.76 3.69-5.75 3.62-9.16 0.03-10.35 0-20.7 0-31.05 0.07-4.43-0.84-8.88-2.74-12.88-5.52-11.83-20.06-18.35-32.56-14.45z"/>
  <path id="path9" d="m62.76 65.86c8.81-3.5 19.12-2.61 27.27 2.18 3.59 2.06 6.59 5.74 6.42 10.07 0.22 18.21-0.17 36.44 0.19 54.66 12.46 0.09 24.92-0.05 37.37 0.05 3.45-0.15 6.41 2.18 8.27 4.88 4.82 7.15 4.75 17.31-0.26 24.34-1.87 2.61-4.9 4.51-8.17 4.58-12.44 0.18-24.89-0.2-37.33 0.17-0.1 23.08-0.05 46.15-0.01 69.22 0.11 5.23 0.68 11.88 6.24 14.22 9.89 3.75 20.86-0.25 30.85 2.92 10.12 3.38 14.4 16.32 10.4 25.73-2.44 6.78-9.13 11.5-16.32 11.64-16.74 0.18-34.37 0.91-49.92-6.36-11.86-5.48-21.23-16.29-24.02-29.17-2.74-9.41-1.91-19.27-2.03-28.94-0.01-48.01 0.03-96.03-0.02-144.05 0.09-2.78-0.36-5.8 1.07-8.34 1.89-4.04 6.08-6.16 10-7.8z"/>
  <path id="path11" d="m764.1 65.83c5.27-1.69 11-2.96 16.5-1.6 6.12 1.08 12.75 3.61 16.07 9.21 1.71 2.88 1.34 6.39 1.41 9.61-0.05 16.57 0 33.14-0.02 49.71 12.65 0.13 25.3-0.09 37.95 0.09 3.39-0.02 5.77 2.71 8.12 4.77 6.96-4.64 15.32-7.61 23.77-6.88 4.44 0.1 8.8 2.66 10.94 6.58 9.28 23.24 17.76 46.81 26.98 70.08 2.81 7.22 5.12 14.63 8.37 21.67 10.63-27.36 21.17-54.76 31.65-82.18 2.25-5.54 3.6-12.63 9.82-15.1 6.9-2.58 14.6-0.52 21.1 2.36 5.96 2.81 12.13 6.82 14.69 13.17 1.84 4.67-1.06 9.14-2.8 13.31-5.28 12.6-10.65 25.15-16.25 37.6-6.27 15.59-13.48 30.78-19.81 46.35-5.77 13.25-11.61 26.47-17.15 39.83-2.26 5.94-8.86 8.15-14.6 9.04-6.06 1.46-12.34 0.55-18.27-0.98-3.72-1.14-7.44-3.38-8.92-7.15-11.99-27.31-23.64-54.77-35.68-82.06-5.42-12.93-11.03-25.77-16.82-38.53-2.26 1.02-4.6 2.06-7.13 1.93-11.98-0.01-23.97 0.02-35.94 0.01-0.05 23.78-0.09 47.55 0.01 71.33-0.07 4.55 1.21 10.09 5.75 12.18 10.59 4.24 22.72-1.04 33.12 3.89 10.34 5.18 12.75 20.01 6.13 29.02-3.52 5.19-9.96 7.61-16.06 7.51-17.55 0.09-36.44 0.68-52.05-8.65-8.74-4.86-15.29-13.07-18.66-22.43-3.73-9.71-3.83-20.28-3.68-30.54 0.01-49.98-0.02-99.97 0.01-149.95-0.34-6.71 5.88-11.05 11.45-13.2z"/>
  <path id="path13" d="m463.66 160.58c11.73-16.22 30.54-26.84 50.3-29.45 11.34-0.99 23-0.73 33.89 2.95 13.05 4.49 25.44 12.25 33.5 23.66 10.41 13.75 14.23 32.23 10.25 48.99-1.49 5.97-5.37 11.4-10.96 14.15-4.77 2.62-10.31 2.91-15.61 3.35-22.71 0.04-45.42-0.05-68.12 0.05-1.09 9.51 2.77 19.59 10.53 25.39 8.19 5.93 18.66 7.82 28.6 7.29 9.47 0 18.17-4.36 26.37-8.63 4.36-2.22 9.31-4.74 14.31-3.11 8.18 2.82 13.79 11.23 14.14 19.76-0.18 4.87-3.28 8.97-6.76 12.11-9.16 8.34-21.2 12.71-33.24 14.75-9.14 1.93-18.54 1.28-27.81 1.26-16.89-1.06-33.84-6.35-47.24-16.96-15.26-11.75-24.57-30.85-24.27-50.12 0.01-9.69 0-19.38 0-29.07-0.21-13.05 4.72-25.77 12.12-36.37m38.7 12.85c-5.52 6.1-6.01 14.73-5.59 22.53 14.37 0.71 28.79 0.07 43.18 0.36 3.35 0.19 6.75-0.22 9.76-1.8 2.4-7.56-0.18-16.01-5.59-21.62-10.93-11.1-31.12-10.82-41.76 0.53z"/>
  <path id="path15" d="m164.24 133.19c7.56-1.2 15.83-0.23 22.09 4.48 2.99 2.43 6.34 5.5 6.15 9.71 0.15 26.2-0.01 52.41 0.07 78.62 0.34 8.34 4.64 16.19 10.86 21.64 5.17 4.1 11.89 6.32 18.49 5.65 13.67-0.78 24.51-13.96 24.61-27.29 0.05-26.01-0.07-52.03 0.06-78.04-0.29-4.87 3.44-8.71 7.21-11.2 6.51-4.1 14.58-4.61 22.01-3.55 5.54 1.14 11.3 3.67 14.34 8.69 2.18 3.65 1.63 8.04 1.68 12.1 0.04 22.68 0.01 45.37 0.03 68.05 0.02 8.93-1.1 17.98-4.42 26.32-9.79 24.55-34.12 42.48-60.43 44.71-7.56 0.03-15.26 0.61-22.68-1.25-25.55-5.12-47.69-25.08-54.78-50.25-2.02-6.67-2.02-13.69-2.07-20.59 0.02-24.01-0.01-48.02-0.01-72.02-0.34-9.02 9.14-14.11 16.79-15.78z"/>
 </g>
 <path id="path20" d="m485.35 163.12c10.64-11.35 30.83-11.63 41.76-0.53 5.41 5.61 7.99 14.06 5.59 21.62-3.01 1.58-6.41 1.99-9.76 1.8-14.39-0.29-28.81 0.35-43.18-0.36-0.42-7.8 0.07-16.43 5.59-22.53z" fill="#c752d4"/>
 <path id="path22" d="m352.42 161.24c6.09-1.53 12.87-1.46 18.53 1.5 9.5 4.82 16.38 15.12 15.95 25.94-0.05 9.01 0.02 18.02-0.02 27.03-0.31 14.03-12.39 27.63-26.86 27.41-11.97-0.33-23.01-9.32-26.99-20.39-0.69-11.97-0.16-24.01-0.27-36-0.23-11.71 8.65-22.3 19.66-25.49z" fill="#c752d4"/>
 <path id="path24" d="m641.44 161.32c12.5-3.9 27.04 2.62 32.56 14.45 1.9 4 2.81 8.45 2.74 12.88 0 10.35 0.03 20.7 0 31.05 0.07 3.41-1.83 6.4-3.62 9.16-5.34 7.59-13.68 13.83-23.24 14.21-13.98 0.8-26.23-11.83-27.71-25.23-0.26-9.73 0.01-19.47-0.13-29.21-0.55-12.05 8.18-23.46 19.4-27.31z" fill="#c752d4"/>
</svg>
