<svg height="178.89674pt" viewBox="0 0 383.14893 178.89674" width="383.14893pt" xmlns="http://www.w3.org/2000/svg" xmlns:xlink="http://www.w3.org/1999/xlink"><radialGradient id="a" cx="199.81445" cy="453.07025" gradientTransform="matrix(1.0943072 .93154439 -.86606346 1.0173851 216.55233 -513.71197)" gradientUnits="userSpaceOnUse" r="358.33105"><stop offset="0" stop-color="#fdc943"/><stop offset=".14683419" stop-color="#fbbe40"/><stop offset=".29366839" stop-color="#f8a63a"/><stop offset=".59529912" stop-color="#f37c2e"/><stop offset=".8855406" stop-color="#f05027"/><stop offset="1" stop-color="#ee3c25"/></radialGradient><g transform="scale(.33249096)"><path d="m537.49653 269.025a268.74826 269.02499 0 0 1 -268.74827 269.02499 268.74826 269.02499 0 0 1 -268.74826-269.02499 268.74826 269.02499 0 0 1 268.74826-269.025 268.74826 269.02499 0 0 1 268.74827 269.025z" fill="url(#a)"/><g fill="#fff"><path d="m155.48144 200.77558h109.94532v22.80762l-74.74512 86.79491h74.80957l.0366 25.56738h-112.34911v-22.82079l74.53126-86.74219h-72.22852z"/><path d="m349.28319 201.46991 51.49513.0586v25.52049h-73.72852v28.93066h73.72852v25.6245h-73.72852v29.14746h73.72852v25.88966h-102.87598v-135.1128z"/><path d="m488.54152 200.52219-51.38088.0571v135.1128h91.60691c2.1843-8.53801 3.94815-17.17832 5.28517-25.88965h-67.74462v-29.14746h70.60692c.27765-3.87181.47153-7.74919.58155-11.6294-.0435-4.66806-.2088-9.33419-.49507-13.99365h-70.6934v-28.93212h67.61862c-1.39867-8.59382-3.2133-17.11459-5.4375-25.53223z"/></g></g><g fill="#f0572b" transform="translate(-8.417249 -10.035135)"><path d="m296.02315 61.842421c3.22584-3.049347 7.74523-4.536441 12.14654-4.364646 4.68041-.171795 9.49501 1.428039 12.8604 4.745814 3.86457 3.768735 5.56605 9.26078 5.86126 14.538083.10734 13.491212-.0537 26.987788.0859 40.484368l-10.48799.0215c-.19859-13.33015.0107-26.6603-.10198-39.990455.0268-3.575467-1.47068-7.53747-5.02393-8.92793-3.26878-1.057607-7.34804-.214742-9.26421 2.818499-1.98059 2.839972-1.47605 6.442282-1.41701 9.701003 8.86702 5.776579 10.72953 19.04768 4.72872 27.513903-3.47274 5.11088-9.50575 7.79516-15.45288 8.70782-11.82986.35969-23.67581.0483-35.51103.16106l-.0107-40.586372 10.43969.05905-.0268 30.917582h10.87982l-.0268-31.019585c4.83607.05905 9.68824-.209374 14.50821.284534-.22007-5.513519 1.67464-11.295467 5.81294-15.064202m-9.84926 24.292771.0107 21.554792c2.936-.0966 5.99544-.82139 8.24977-2.81312 3.79479-3.37146 4.59454-9.475523 2.21139-13.877749-1.15937-2.152796-3.28488-3.537886-5.55531-4.268012-1.6156-.370431-3.25267-.649596-4.91658-.595911z" stroke-width=".536801"/><g transform="translate(1.129544 -.00001)"><path d="m368.31076 64.419389a6.6055836 6.6941349 0 0 1 -6.60558 6.694137 6.6055836 6.6941349 0 0 1 -6.60559-6.694137 6.6055836 6.6941349 0 0 1 6.60559-6.694132 6.6055836 6.6941349 0 0 1 6.60558 6.694132z" fill="#f0572b"/><path d="m336.21821 76.671906 10.35917-.05905.005 31.019584 10.85821.0107v-31.014183c4.90048.06442 9.80647-.230848 14.69621.209375 6.398.579805 12.72622 4.026426 15.86081 9.770794 2.5549 4.305592 2.72129 9.491629 2.20065 14.334074-.7246 4.0479-2.64078 7.94012-5.70023 10.73177-2.49586 2.46417-5.78074 3.91369-9.10319 4.8854-2.35631.48854-4.73409.84823-7.14407.68181.77828 1.26698 1.70685 2.55007 3.12385 3.15671 4.16514 1.98637 8.93144 1.2133 13.38642 1.28309l.0751 9.07825c-2.64078.0537-5.28693-.0376-7.92235.0698-1.62097.34359-3.25804.60128-4.84681 1.05761-1.03055.44022-2.06646.86434-3.09165 1.30456-3.81088 1.75552-7.60567 3.73653-11.80838 4.35928-4.61601.35969-9.57553.34896-13.62258-2.21722-4.48182-2.53396-7.14408-7.61263-7.29436-12.68593l10.3699-.0322c.31132 2.48028 1.98596 4.83171 4.55697 5.28804 4.62674 1.40657 9.09245-1.00392 13.20392-2.8346-3.43517-1.10593-5.98471-4.26264-6.52145-7.8059l-21.65765-.005.0161-40.586374m31.69491 9.496997v21.527957c3.55862-.0913 7.24592-1.44951 9.41437-4.40222 2.43146-3.21578 2.77497-7.752217 1.32039-11.45116-1.34723-3.237247-4.71262-5.132351-8.08337-5.51352-.8749-.06979-1.78723-.118108-2.65139-.161057z" fill="#f0572b" stroke-width=".536801"/></g><path d="m207.74298 76.61822 31.03995-.0054-.005 9.432574-20.77739-.0054-.005 3.237246c7.26216-.354325 15.03959 1.138137 20.6271 6.071851 8.84555 7.247569 10.02103 21.694389 2.90916 30.525679-2.36705 3.26946-5.79685 5.56184-9.36083 7.34957-4.1061 1.76626-8.55035 2.85071-13.03753 2.80777-6.73078-.005-13.46156-.0161-20.19234 0l-.0322-9.23931c6.40336-.102 12.80673.005 19.21009-.0483 5.64656-.31674 11.83522-1.94879 15.41531-6.67313 4.41204-5.74973 3.27951-14.80651-2.52807-19.19263.0161 3.90832.23617 8.07433-1.85177 11.56927-1.89471 3.90294-5.81831 6.24901-9.8761 7.36567-1.27745.11811-2.54954.24695-3.80552.51538-.44013.005-1.32576.0107-1.77126.0161-1.40627-.27917-2.83401-.41338-4.26175-.52612-3.4298-1.00392-6.8274-2.62523-9.06025-5.51889-3.86993-4.5096-4.26176-11.42968-1.46532-16.578142 1.90008-3.511043 5.19569-6.087956 8.89386-7.494521l-.0644-13.609321m-.11271 25.022904c-1.26135 2.55544-.89637 5.99669 1.21304 8.00453 3.22584 2.88292 9.02805 2.70039 11.55612-1.03076 2.16845-3.1084 1.35259-7.04356 1.49215-10.581455-2.52807-.03758-5.06151-.02684-7.58957-.02684-2.63005-.04295-5.42649 1.218665-6.67174 3.634525z" stroke-width=".536801"/></g></svg>