<?xml version="1.0" encoding="UTF-8"?>
<!-- Created with Inkscape (http://www.inkscape.org/) -->
<svg id="svg4555" width="135.17mm" height="63.111mm" version="1.1" viewBox="0 0 135.17 63.111" xmlns="http://www.w3.org/2000/svg" xmlns:cc="http://creativecommons.org/ns#" xmlns:dc="http://purl.org/dc/elements/1.1/" xmlns:rdf="http://www.w3.org/1999/02/22-rdf-syntax-ns#">
 <defs id="defs4549">
  <radialGradient id="a" cx="199.81" cy="453.07" r="358.33" gradientTransform="matrix(1.0943 .93154 -.86606 1.0174 216.55 -513.71)" gradientUnits="userSpaceOnUse">
   <stop id="stop2" stop-color="#fdc943" offset="0"/>
   <stop id="stop4" stop-color="#fbbe40" offset=".14683"/>
   <stop id="stop6" stop-color="#f8a63a" offset=".29367"/>
   <stop id="stop8" stop-color="#f37c2e" offset=".5953"/>
   <stop id="stop10" stop-color="#f05027" offset=".88554"/>
   <stop id="stop12" stop-color="#ee3c25" offset="1"/>
  </radialGradient>
 </defs>
 <metadata id="metadata4552">
  <rdf:RDF>
   <cc:Work rdf:about="">
    <dc:format>image/svg+xml</dc:format>
    <dc:type rdf:resource="http://purl.org/dc/dcmitype/StillImage"/>
    <dc:title/>
   </cc:Work>
  </rdf:RDF>
 </metadata>
 <g id="layer1" transform="translate(-16.327 -77.968)">
  <g id="g25" transform="matrix(.1173 0 0 .1173 16.327 77.968)">
   <path id="path15" d="m537.5 269.02a268.75 269.02 0 0 1-268.75 269.02 268.75 269.02 0 0 1-268.75-269.02 268.75 269.02 0 0 1 268.75-269.02 268.75 269.02 0 0 1 268.75 269.02z" fill="url(#a)"/>
   <g id="g23" fill="#fff">
    <path id="path17" d="m155.48 200.78h109.95v22.808l-74.745 86.795h74.81l0.0366 25.567h-112.35v-22.821l74.531-86.742h-72.229z"/>
    <path id="path19" d="m349.28 201.47 51.495 0.0586v25.52h-73.729v28.931h73.729v25.624h-73.729v29.147h73.729v25.89h-102.88v-135.11z"/>
    <path id="path21" d="m488.54 200.52-51.381 0.0571v135.11h91.607c2.1843-8.538 3.9482-17.178 5.2852-25.89h-67.745v-29.147h70.607c0.27765-3.8718 0.47153-7.7492 0.58155-11.629-0.0435-4.6681-0.2088-9.3342-0.49507-13.994h-70.693v-28.932h67.619c-1.3987-8.5938-3.2133-17.115-5.4375-25.532z"/>
   </g>
  </g>
  <g id="g37" transform="matrix(.35278 0 0 .35278 13.358 74.428)" fill="#f0572b">
   <path id="path27" d="m296.02 61.842c3.2258-3.0493 7.7452-4.5364 12.147-4.3646 4.6804-0.1718 9.495 1.428 12.86 4.7458 3.8646 3.7687 5.566 9.2608 5.8613 14.538 0.10734 13.491-0.0537 26.988 0.0859 40.484l-10.488 0.0215c-0.19859-13.33 0.0107-26.66-0.10198-39.99 0.0268-3.5755-1.4707-7.5375-5.0239-8.9279-3.2688-1.0576-7.348-0.21474-9.2642 2.8185-1.9806 2.84-1.476 6.4423-1.417 9.701 8.867 5.7766 10.73 19.048 4.7287 27.514-3.4727 5.1109-9.5058 7.7952-15.453 8.7078-11.83 0.35969-23.676 0.0483-35.511 0.16106l-0.0107-40.586 10.44 0.05905-0.0268 30.918h10.88l-0.0268-31.02c4.8361 0.05905 9.6882-0.20937 14.508 0.28453-0.22007-5.5135 1.6746-11.295 5.8129-15.064m-9.8493 24.293 0.0107 21.555c2.936-0.0966 5.9954-0.82139 8.2498-2.8131 3.7948-3.3715 4.5945-9.4755 2.2114-13.878-1.1594-2.1528-3.2849-3.5379-5.5553-4.268-1.6156-0.37043-3.2527-0.6496-4.9166-0.59591z" stroke-width=".5368"/>
   <g id="g33" transform="translate(1.1295 -1e-5)" fill="#f0572b">
    <path id="path29" d="m368.31 64.419a6.6056 6.6941 0 0 1-6.6056 6.6941 6.6056 6.6941 0 0 1-6.6056-6.6941 6.6056 6.6941 0 0 1 6.6056-6.6941 6.6056 6.6941 0 0 1 6.6056 6.6941z"/>
    <path id="path31" d="m336.22 76.672 10.359-0.05905 5e-3 31.02 10.858 0.0107v-31.014c4.9005 0.06442 9.8065-0.23085 14.696 0.20938 6.398 0.5798 12.726 4.0264 15.861 9.7708 2.5549 4.3056 2.7213 9.4916 2.2006 14.334-0.7246 4.0479-2.6408 7.9401-5.7002 10.732-2.4959 2.4642-5.7807 3.9137-9.1032 4.8854-2.3563 0.48854-4.7341 0.84823-7.1441 0.68181 0.77828 1.267 1.7068 2.5501 3.1238 3.1567 4.1651 1.9864 8.9314 1.2133 13.386 1.2831l0.0751 9.0782c-2.6408 0.0537-5.2869-0.0376-7.9224 0.0698-1.621 0.34359-3.258 0.60128-4.8468 1.0576-1.0306 0.44022-2.0665 0.86434-3.0916 1.3046-3.8109 1.7555-7.6057 3.7365-11.808 4.3593-4.616 0.35969-9.5755 0.34896-13.623-2.2172-4.4818-2.534-7.1441-7.6126-7.2944-12.686l10.37-0.0322c0.31132 2.4803 1.986 4.8317 4.557 5.288 4.6267 1.4066 9.0924-1.0039 13.204-2.8346-3.4352-1.1059-5.9847-4.2626-6.5214-7.8059l-21.658-5e-3 0.0161-40.586m31.695 9.497v21.528c3.5586-0.0913 7.2459-1.4495 9.4144-4.4022 2.4315-3.2158 2.775-7.7522 1.3204-11.451-1.3472-3.2372-4.7126-5.1324-8.0834-5.5135-0.8749-0.06979-1.7872-0.11811-2.6514-0.16106z" stroke-width=".5368"/>
   </g>
   <path id="path35" d="m207.74 76.618 31.04-0.0054-5e-3 9.4326-20.777-0.0054-5e-3 3.2372c7.2622-0.35432 15.04 1.1381 20.627 6.0719 8.8456 7.2476 10.021 21.694 2.9092 30.526-2.367 3.2695-5.7968 5.5618-9.3608 7.3496-4.1061 1.7663-8.5504 2.8507-13.038 2.8078-6.7308-5e-3 -13.462-0.0161-20.192 0l-0.0322-9.2393c6.4034-0.102 12.807 5e-3 19.21-0.0483 5.6466-0.31674 11.835-1.9488 15.415-6.6731 4.412-5.7497 3.2795-14.807-2.5281-19.193 0.0161 3.9083 0.23617 8.0743-1.8518 11.569-1.8947 3.9029-5.8183 6.249-9.8761 7.3657-1.2774 0.11811-2.5495 0.24695-3.8055 0.51538-0.44013 5e-3 -1.3258 0.0107-1.7713 0.0161-1.4063-0.27917-2.834-0.41338-4.2618-0.52612-3.4298-1.0039-6.8274-2.6252-9.0602-5.5189-3.8699-4.5096-4.2618-11.43-1.4653-16.578 1.9001-3.511 5.1957-6.088 8.8939-7.4945l-0.0644-13.609m-0.11271 25.023c-1.2614 2.5554-0.89637 5.9967 1.213 8.0045 3.2258 2.8829 9.028 2.7004 11.556-1.0308 2.1684-3.1084 1.3526-7.0436 1.4922-10.581-2.5281-0.03758-5.0615-0.02684-7.5896-0.02684-2.63-0.04295-5.4265 1.2187-6.6717 3.6345z" stroke-width=".5368"/>
  </g>
 </g>
</svg>
