<?xml version="1.0" encoding="UTF-8"?>
<svg id="svg17" width="600pt" height="126.98pt" version="1.1" viewBox="0 0 600 126.98" xmlns="http://www.w3.org/2000/svg" xmlns:cc="http://creativecommons.org/ns#" xmlns:dc="http://purl.org/dc/elements/1.1/" xmlns:rdf="http://www.w3.org/1999/02/22-rdf-syntax-ns#">
 <metadata id="metadata23">
  <rdf:RDF>
   <cc:Work rdf:about="">
    <dc:format>image/svg+xml</dc:format>
    <dc:type rdf:resource="http://purl.org/dc/dcmitype/StillImage"/>
    <dc:title/>
   </cc:Work>
  </rdf:RDF>
 </metadata>
 <path id="path2" d="m176.9 0.63664c2.3305-0.29071 4.69-0.15989 7.0399-0.18411 17.767-0.64924 35.461 7.1804 47.458 20.204 8.6339 9.4334 14.409 21.493 16.076 34.197 0.41668 4.5641 1.0805 9.1766 0.35369 13.75-1.0901 20.882-13.871 40.602-32.317 50.379-12.825 7.1659-28.145 9.5545-42.579 7.006-11.023-1.8266-21.493-6.754-30.059-13.901-12.021-10.121-20.117-24.918-21.735-40.578-2.3644-17.927 3.4836-36.692 15.504-50.185 10.17-11.652 24.913-19.041 40.258-20.689m3.8082 28.261c-4.9032 0.66378-9.7144 2.3789-13.741 5.2811-6.7395 4.6804-11.124 12.171-13.019 20.059-1.0078 4.7433-1.628 9.6708-0.87696 14.501 0.99324 9.9518 6.2259 19.719 14.782 25.141 4.942 3.0233 10.746 4.7821 16.57 4.5592 7.883 0.25679 15.674-3.0863 21.309-8.5273 6.2986-6.1823 9.8694-14.937 10.063-23.726 0.79459-11.74-3.8034-24.332-13.464-31.464-6.0854-4.6658-14.022-6.8122-21.624-5.8238z" fill="#cd1f3a" stroke-width=".48451"/>
 <path id="path2-3" d="m317.39 0.63663c2.3305-0.2907 4.69-0.15989 7.0399-0.18411 17.767-0.64924 35.461 7.1804 47.458 20.204 8.6339 9.4334 14.409 21.493 16.076 34.197 0.41667 4.5641 1.0804 9.1766 0.35369 13.75-1.0902 20.882-13.871 40.602-32.317 50.379-12.825 7.1659-28.145 9.5545-42.579 7.006-11.023-1.8266-21.493-6.754-30.059-13.901-12.021-10.121-20.117-24.918-21.735-40.578-2.3644-17.927 3.4836-36.692 15.504-50.185 10.17-11.652 24.913-19.041 40.258-20.689m3.8082 28.261c-4.9032 0.66378-9.7144 2.3789-13.741 5.2811-6.7395 4.6804-11.124 12.171-13.019 20.059-1.0078 4.7433-1.6279 9.6708-0.87696 14.501 0.99325 9.9518 6.2259 19.719 14.782 25.141 4.942 3.0233 10.746 4.7821 16.57 4.5592 7.883 0.25679 15.674-3.0863 21.309-8.5274 6.2986-6.1823 9.8694-14.937 10.063-23.726 0.7946-11.74-3.8034-24.332-13.464-31.464-6.0854-4.6658-14.022-6.8122-21.624-5.8238z" fill="#cd1f3a" stroke-width=".48451"/>
 <path id="path6" d="m447.65 1.5088c7.1223-1.376 14.472-1.9623 21.696-1.0659 14.341 1.0514 28.707 7.3015 37.874 18.629 8.1834 9.9857 11.844 23.179 11.374 35.965v69.151h-32.169v-69.641c0.0872-2.6648-0.41183-5.2908-0.86243-7.9023-1.4584-7.3936-7.3112-13.75-14.656-15.572-5.7172-1.4051-11.832-1.4002-17.515 0.16958-6.444 1.6812-11.967 6.5118-14.574 12.631-1.0659 2.941-1.7539 6.0757-1.6328 9.2202v71.094h-32.426v-70.135c0.2907-5.097 0.52084-10.243 2.0034-15.16 2.4662-8.9392 7.2773-17.282 14.08-23.62 7.3645-7.0351 16.866-11.696 26.808-13.765z" fill="#cd1f3a" stroke-width=".48451"/>
 <path id="path8" d="m534.13 0.76261c5.1697-0.66862 10.427-1.1095 15.621-0.40214 10.616 0.65893 21.173 4.036 29.846 10.272 7.4324 5.2715 13.145 12.839 16.449 21.309 2.3886 5.7705 3.4642 12.016 3.9197 18.218 0.12597 24.676-0.11144 49.354 0 74.03h-32.154c0.0727-21.924-0.0242-43.841 0-65.765 0.11628-4.5834-0.1284-9.2396-1.4172-13.663-1.7055-5.7075-6.0612-10.538-11.551-12.839-4.5302-1.7927-9.4915-2.0398-14.303-1.7491-4.753 0.49904-9.569 1.8605-13.348 4.8984-2.2917-9.8065-7.476-18.838-14.312-26.193 6.2841-4.3945 13.712-6.9479 21.251-8.1155z" fill="#cd1f3a" stroke-width=".48451"/>
 <path id="path14" d="m1.8872 3.8005 105.72 0.033916v26.667l-65.678 66.126h67.754v27.556h-109.68v-26.505l66.465-66.514h-64.577z" fill="#cd1f3a" stroke-width=".48451"/>
</svg>
