<svg width="800" height="299.29" version="1.1" viewBox="0 0 800 299.29" xmlns="http://www.w3.org/2000/svg">
 <path d="m69.637 8.4432e-6v91.081h91.081v-91.081zm63.236 64.277c-1.5614 2.3421-3.9035 4.1637-6.766 5.2046-3.383 1.3012-6.766 1.8216-10.409 1.8216h-20.298v-51.526h19.257c4.424-0.26022 9.1082 1.0409 13.012 3.6433 3.1228 2.3421 4.9444 5.9853 4.6842 9.8888 0 2.3421-0.52047 4.4239-1.5614 6.2456-1.3012 1.8216-2.8625 3.383-4.9444 4.1637 2.8626 0.7807 5.2046 2.6023 7.0263 4.6842 1.5614 2.3421 2.6023 5.2046 2.3421 7.807 0 2.8626-0.7807 5.7251-2.3421 8.0672zm-13.012-24.982c1.5614-1.3012 2.3421-3.1228 2.0819-4.9444 0-4.1637-2.8626-5.9854-8.3274-5.9854h-7.807v12.751h7.807c2.0818 0 4.4239-0.52046 6.2456-1.8216zm-4.9444 9.6286h-9.1081v13.792h9.1081c2.6023 0.26023 4.9444-0.52047 7.2865-1.8216 1.5614-1.0409 2.6023-3.1228 2.6023-4.9444-0.26024-4.6842-3.6432-7.0263-9.8888-7.0263zm68.701-48.924v91.081h91.081v-91.081zm62.976 64.277c-1.5614 2.3421-3.9035 4.1637-6.766 5.2046-3.383 1.3012-6.766 1.8216-10.409 1.8216h-20.298v-51.526h19.257c4.6842-0.26022 9.1081 0.7807 13.272 3.383 3.1228 2.3421 4.9444 5.9853 4.6842 9.8888 0 2.3421-0.52045 4.424-1.5614 6.2456-1.3011 1.8216-2.8625 3.383-4.9444 4.1637 2.8625 0.7807 5.2046 2.6023 7.0263 4.6842 1.5614 2.3421 2.6023 5.2046 2.3421 7.807-0.2602 3.1228-1.0409 5.9853-2.6023 8.3274zm-13.012-24.982c1.5614-1.3012 2.3421-3.1228 2.0818-4.9444 0-4.1637-2.8626-5.9854-8.3274-5.9854h-7.807v12.751h7.807c2.0818 0 4.4239-0.52046 6.2456-1.8216zm-4.9444 9.6286h-9.1081v13.792h9.1081c2.6023 0.26023 4.9444-0.52047 7.2865-1.8216 1.5614-1.0409 2.6023-3.1228 2.6023-4.9444-0.26023-4.6842-3.6433-7.0263-9.8888-7.0263zm68.701 42.158h91.081v-91.081h-91.081zm65.318-23.161c-2.3421 1.3012-4.6842 2.0819-7.2865 2.8626-2.8625 0.7807-5.7251 1.0409-8.8479 1.0409-3.6432 0-7.5467-0.52046-10.93-1.8216-3.1228-1.0409-5.9853-2.8626-8.3274-5.2046-2.3421-2.3421-4.1637-5.2046-5.2046-8.3274-1.3012-3.6432-1.8216-7.2865-1.8216-10.93 0-3.6432 0.52047-7.2865 1.8216-10.67 1.3012-3.1228 3.1228-5.9853 5.4649-8.3274s5.2047-4.1637 8.5877-5.2047c3.6432-1.3012 7.2865-1.8216 11.19-1.8216 2.6023 0 5.4649 0.26022 8.0672 0.78069 2.3421 0.52047 4.6842 1.3012 7.0263 2.6023v9.8888c-2.0819-1.3012-4.1637-2.3421-6.5058-2.8626-2.3421-0.78069-4.9444-1.0409-7.2865-1.0409-3.1228 0-6.2456 0.52045-9.1082 2.0818-2.3421 1.3012-4.4239 3.1228-5.7251 5.7251-1.3011 2.8626-2.0818 5.9853-2.0818 9.1081s0.52047 6.2456 1.8216 9.1081c1.3011 2.3421 3.1228 4.4239 5.4649 5.7251 2.8626 1.3012 5.7251 2.0819 8.8479 2.0819 5.2047 0 10.149-1.3012 14.573-4.1637zm76.508-13.012v24.722h-14.573v-68.181h24.982c8.8479 0 15.874 1.8216 20.558 5.7251 4.9444 3.9035 7.5468 9.8888 7.2865 16.134 0 4.1637-1.0409 8.0672-3.1228 11.45-2.3421 3.383-5.4649 5.7251-9.1081 7.2865 2.8626 4.4239 5.7251 9.1081 8.5877 13.532s5.7251 9.1081 8.3274 14.053h-16.915c-4.6842-8.3274-9.3684-16.655-14.313-24.722zm0-11.71h9.6286c3.6432 0.26024 7.2865-0.52046 10.409-2.3421 2.3421-1.8216 3.6433-4.6842 3.6433-7.807 0.26024-3.1228-1.0409-5.9853-3.383-7.807-3.1228-1.8216-6.766-2.6023-10.149-2.6023h-9.6286zm100.71 36.433c-1.5614-4.9444-3.383-9.8888-4.9444-14.833h-27.585c-1.5614 4.9444-3.383 9.8888-4.9444 14.833h-15.614c4.424-11.971 8.8479-23.681 13.272-35.131 4.4239-11.45 9.1081-22.38 13.532-33.31h15.874c4.6842 11.45 9.3683 22.64 13.792 34.09 4.424 11.45 8.8479 22.9 13.012 34.09zm-28.365-27.064h19.257l-4.6842-13.272c-1.5614-4.4239-3.1228-8.8479-4.9444-13.012-3.383 8.8479-6.5058 17.436-9.6286 26.283zm52.827-41.117h26.023c6.5058-0.26024 12.751 1.3012 18.476 3.9035 4.9444 2.6023 9.1081 6.5058 11.71 11.71 2.8625 5.7251 4.1637 11.971 3.9035 18.476 0.26024 6.5058-1.3012 12.751-4.1637 18.476-2.6023 4.9444-6.766 9.1081-11.71 11.71-5.7251 2.8626-11.971 4.1637-18.476 4.1637h-26.023zm25.243 55.69c5.4649 0.26024 10.93-1.5614 14.573-5.4649 3.6433-4.4239 5.4649-10.149 5.2046-16.134 0.52047-5.7251-1.3012-11.45-4.9444-15.874-3.9035-3.9035-9.1081-5.9853-14.573-5.4649h-10.67v42.938zm46.582-55.69h14.573v68.181h-14.573zm60.374-1.5614c4.6842 0 9.6286 0.78069 14.053 2.6023 4.1637 1.5614 7.807 3.9035 10.67 7.0263 3.1228 3.1228 5.4649 7.0263 6.766 11.19 1.5614 4.6842 2.3421 9.6286 2.3421 14.833 0 4.9444-0.7807 9.8888-2.3421 14.573-1.5614 4.1637-3.9035 8.0672-6.766 11.19-3.1228 3.1228-6.766 5.4649-10.67 7.0263-9.1081 3.383-18.997 3.383-27.845 0-4.1637-1.5614-7.807-3.9035-10.67-7.0263-3.1228-3.1228-5.4649-7.0263-6.766-11.19-1.5614-4.6842-2.3421-9.6286-2.3421-14.573s0.7807-9.8888 2.3421-14.833c1.5614-4.1637 3.9035-8.0672 6.766-11.19 3.1228-3.1228 6.766-5.4649 10.67-7.0263 4.1637-1.8216 8.8479-2.6023 13.792-2.6023zm0 58.292c3.6432 0 7.0263-0.7807 9.8888-2.6023 2.8626-1.8216 5.2046-4.6842 6.5058-7.807 1.5614-3.9035 2.3421-8.0672 2.0819-12.231 0-4.1637-0.52047-8.3274-2.0819-12.231-1.3012-3.1228-3.6432-5.9853-6.5058-7.807-6.2456-3.6432-13.792-3.6432-20.038 0-2.8626 1.8216-5.2046 4.6842-6.5058 7.807-1.5614 3.9035-2.3421 8.0672-2.0818 12.231 0 4.1637 0.52044 8.3274 2.0818 12.231 1.3012 3.1228 3.6432 5.9853 6.5058 7.807 3.1228 1.8216 6.5058 2.8626 10.149 2.6023z" stroke-width="1.8852"/>
 <path d="m81.475 299.27c-11.711 0.26023-23.161-1.8216-34.091-5.7252-9.6287-3.383-18.477-9.1082-25.763-16.395-7.2866-7.5468-12.751-16.395-16.135-26.284-3.6433-11.19-5.7252-22.901-5.4649-34.871-0.26023-11.711 1.8216-23.161 5.7252-34.091 7.2866-20.038 22.901-35.652 42.939-42.939 10.93-3.9035 22.64-5.9854 34.091-5.7252 8.3275 0 16.655 0.7807 24.982 2.8626 7.5468 1.8216 14.833 4.424 21.86 8.0673v31.749c-5.9854-4.1638-12.751-7.2866-19.778-9.3684-7.2866-2.0819-14.833-3.383-22.64-3.1228-9.6287-0.26024-19.257 1.8216-27.845 6.2456-7.5468 4.1638-13.792 10.409-17.696 17.956-4.424 8.848-6.5059 18.737-6.2456 28.886-0.26024 9.8889 1.8216 19.778 5.9854 28.886 3.6433 7.807 9.6287 14.053 17.175 18.216 8.3275 4.424 17.696 6.5059 27.325 6.2456 16.135 0 31.749-4.424 45.281-13.272v30.968c-7.0263 3.9035-14.833 7.0263-22.64 8.848-8.848 1.8216-17.956 2.8626-27.064 2.8626zm158.74-63.757v60.374h-34.351v-60.374c-10.409-16.395-20.559-32.79-30.447-49.184-9.8889-16.395-19.778-33.05-29.146-49.705h39.035c5.9854 11.711 12.491 23.421 18.737 35.132 6.5059 11.711 13.012 23.421 19.518 34.871 6.7661-11.711 13.272-23.161 19.518-34.871 6.5059-11.711 12.751-23.421 18.997-35.132h37.994c-9.6287 16.655-19.518 33.31-29.406 49.705-9.8889 16.395-20.038 32.79-30.447 49.184zm146.25 30.708c-6.5058-13.012-13.012-26.284-19.257-39.295-6.2456-13.272-12.491-26.284-18.477-39.295v108.26h-32.79v-159.52h41.117c7.0263 16.395 14.053 32.79 21.339 48.924 7.2866 16.395 14.833 32.269 22.38 48.143 7.5468-15.874 14.833-32.009 22.12-48.143 7.2866-16.135 14.313-32.529 21.079-49.184h40.076v159.26h-32.79v-108.26c-5.9854 13.272-12.231 26.544-18.737 39.816-6.2456 13.272-12.751 26.284-18.997 39.295zm161.61-28.366v58.032h-33.83v-159.52h58.292c21.079 0 36.953 4.424 48.143 13.272s16.915 21.339 16.915 37.734c0.7807 19.257-10.67 37.214-28.886 44.24 6.7661 10.67 13.272 21.079 19.778 31.749s13.012 21.599 19.518 32.79h-39.556c-10.67-19.518-21.86-39.035-33.31-58.032zm0-27.064h22.38c10.67 0 18.477-1.8216 24.202-5.7252 5.4649-3.9035 8.3275-9.8889 8.3275-17.956 0-8.0673-2.6023-14.313-8.0673-17.956-5.4649-3.9035-13.532-5.7252-23.942-5.7252h-22.64zm183.73 88.48c-12.751 0.26023-25.243-2.3421-36.693-8.0673-10.149-5.2047-18.216-13.532-23.421-23.421-5.7252-11.45-8.5877-24.202-8.0673-36.953v-94.465h34.351v97.848c0 11.19 2.8626 20.038 8.848 26.023s14.313 9.1082 24.982 9.1082c10.93 0 19.257-3.1228 24.982-9.1082 5.9854-5.9854 8.848-14.573 8.848-26.023v-97.848h34.351v94.205c0.26024 12.751-2.3421 25.503-8.0673 36.953-5.2047 10.149-13.532 18.216-23.421 23.421-11.45 5.7252-23.942 8.5877-36.693 8.3275z" fill="#2b6ecc" stroke-width="1.5625"/>
</svg>
