<svg width="1e3" height="330.04" version="1.1" viewBox="0 0 1e3 330.04" xmlns="http://www.w3.org/2000/svg">
 <path d="m139.66 191.38a60.341 60.341 0 0 0-21.601 14.367 63.681 63.681 0 0 0-13.79 22.565 94.183 94.183 0 0 0 0 59.496 64.473 64.473 0 0 0 13.79 22.756 59.685 59.685 0 0 0 21.599 14.464 82.109 82.109 0 0 0 56.507 0 59.722 59.722 0 0 0 21.599-14.464 64.512 64.512 0 0 0 13.788-22.756 94.183 94.183 0 0 0 0-59.496 63.72 63.72 0 0 0-13.79-22.565 60.375 60.375 0 0 0-21.599-14.367 82.089 82.089 0 0 0-56.504 0zm8.0006 107.32a34.476 34.476 0 0 1-12.919-15.716 71.97 71.97 0 0 1 0-49.756 33.905 33.905 0 0 1 12.919-15.623 40.66 40.66 0 0 1 40.499 0 33.958 33.958 0 0 1 12.923 15.623 72.011 72.011 0 0 1 0 49.756 34.53 34.53 0 0 1-12.921 15.716 40.049 40.049 0 0 1-40.499 0zm219.08 28.447q-11.384-18.124-23.339-36.063-11.957-17.937-24.299-35.678 11.378-16.389 22.275-32.979 10.897-16.585 21.506-33.17h-34.524q-6.3641 11.571-13.114 22.854-6.7516 11.281-13.692 22.081-7.1392-10.991-13.788-22.275-6.6543-11.281-13.018-22.659h-35.292q10.414 16.587 21.407 33.363 10.993 16.78 22.564 33.17-12.728 17.935-24.494 35.678-11.764 17.748-23.333 35.679h34.52q6.9427-12.728 14.657-25.456 7.7086-12.728 16.007-25.456 8.0998 12.539 15.814 25.264 7.7086 12.728 14.85 25.649zm19.092 0h29.697v-54.577h54.963v-24.685h-54.963v-33.942h62.291v-24.685h-91.988zm144.54-135.77a60.339 60.339 0 0 0-21.601 14.367 63.681 63.681 0 0 0-13.79 22.564 94.183 94.183 0 0 0 0 59.496 64.473 64.473 0 0 0 13.79 22.756 59.685 59.685 0 0 0 21.599 14.464 82.109 82.109 0 0 0 56.507 0 59.722 59.722 0 0 0 21.599-14.464 64.479 64.479 0 0 0 13.79-22.756 94.183 94.183 0 0 0 0-59.496 63.687 63.687 0 0 0-13.792-22.565 60.375 60.375 0 0 0-21.599-14.367 82.089 82.089 0 0 0-56.504 0zm8.0006 107.32a34.476 34.476 0 0 1-12.919-15.716 71.97 71.97 0 0 1 0-49.756 33.905 33.905 0 0 1 12.919-15.623 40.66 40.66 0 0 1 40.499 0 33.958 33.958 0 0 1 12.923 15.623 72.011 72.011 0 0 1 0 49.756 34.531 34.531 0 0 1-12.921 15.716 40.049 40.049 0 0 1-40.499 0zm157.37-21.697h2.8964q14.846 24.689 28.733 50.141h34.135q-8.4873-14.462-16.969-28.252-8.491-13.786-17.166-27.48a41.369 41.369 0 0 0 18.416-14.851 40.941 40.941 0 0 0 6.4633-23.333q0-21.216-14.561-32.594-14.565-11.376-41.753-11.378h-50.332v137.89h29.313v-50.141zm-20.826-64.412h19.48q13.689 0 20.729 5.0141 7.0382 5.016 7.0418 15.623 0 10.607-7.1374 15.524-7.1355 4.9168-20.828 4.9186h-19.285zm103.95 114.55h52.456q21.983 0 37.413-8.1953a55.725 55.725 0 0 0 23.625-23.721q8.1971-15.52 8.1989-37.316 0-21.79-8.0998-37.127a54.729 54.729 0 0 0-23.629-23.431q-15.525-8.0998-37.316-8.0998h-52.648zm29.699-25.456v-86.976h21.407q19.476 0 29.604 11.09 10.126 11.094 10.124 32.111 0 21.214-10.318 32.495-10.318 11.283-29.602 11.281z" fill="#542582" stroke-width="1.8367"/>
 <path d="m0 0.0018367v137.75h137.75v-137.75zm95.373 97.216a22.507 22.507 0 0 1-10.061 7.692 40.91 40.91 0 0 1-15.7 2.7091h-30.869v-77.484h29.078q12.853 0 19.913 5.1464a17.197 17.197 0 0 1 7.0602 14.793 17.779 17.779 0 0 1-2.5291 9.5912 17.415 17.415 0 0 1-7.4808 6.4486 20.655 20.655 0 0 1 10.484 7.2071 19.623 19.623 0 0 1 3.6348 11.975 20.093 20.093 0 0 1-3.5301 11.92zm-19.702-37.88a9.0971 9.0971 0 0 0 3.2142-7.4239q0-9.2091-12.539-9.211h-11.905v19.291h11.905a14.308 14.308 0 0 0 9.3248-2.6558zm-7.3228 14.793h-13.907v20.916h13.696a18.784 18.784 0 0 0 10.853-2.6558 8.7555 8.7555 0 0 0 3.7927-7.6406q0-10.618-14.436-10.62zm103.84-74.13v137.75h137.75v-137.75zm95.373 97.216a22.507 22.507 0 0 1-10.061 7.692 40.91 40.91 0 0 1-15.7 2.7091h-30.869v-77.482h29.078q12.853 0 19.913 5.1464a17.197 17.197 0 0 1 7.0602 14.793 17.779 17.779 0 0 1-2.5291 9.5912 17.415 17.415 0 0 1-7.4808 6.4486 20.655 20.655 0 0 1 10.484 7.2071 19.623 19.623 0 0 1 3.6348 11.975 20.093 20.093 0 0 1-3.5301 11.92zm-19.702-37.878a9.0971 9.0971 0 0 0 3.2142-7.4239q0-9.2091-12.539-9.211h-11.905v19.291h11.905a14.308 14.308 0 0 0 9.3248-2.6558zm-7.3229 14.793h-13.907v20.916h13.696a18.784 18.784 0 0 0 10.853-2.6558 8.7555 8.7555 0 0 0 3.7928-7.6406q0-10.618-14.436-10.62zm103.84 63.621h137.75v-137.75h-137.75zm98.935-35.044a44.953 44.953 0 0 1-11.156 4.195 56.434 56.434 0 0 1-13.344 1.541 48.65 48.65 0 0 1-16.732-2.7091 34.177 34.177 0 0 1-12.579-7.8059 33.828 33.828 0 0 1-7.8738-12.482 47.601 47.601 0 0 1-2.7367-16.624 44.457 44.457 0 0 1 2.8469-16.306 34.827 34.827 0 0 1 8.2008-12.48 36.128 36.128 0 0 1 12.851-7.9675 48.274 48.274 0 0 1 16.787-2.7624 54.055 54.055 0 0 1 12.196 1.3279 45.296 45.296 0 0 1 10.664 3.8772v15.085a35.738 35.738 0 0 0-9.7344-4.5146 39.068 39.068 0 0 0-11.046-1.541 28.838 28.838 0 0 0-13.617 2.9754 20.369 20.369 0 0 0-8.6398 8.603 28.744 28.744 0 0 0-3.0066 13.702 29.971 29.971 0 0 0 2.8983 13.757 19.799 19.799 0 0 0 8.4212 8.6581 27.918 27.918 0 0 0 13.399 2.9736 41.518 41.518 0 0 0 22.202-6.2668zm116-19.722v37.555h-21.956v-103.28h37.7q20.367 0 31.273 8.5222 10.903 8.5259 10.904 24.411a29.286 29.286 0 0 1-18.633 28.599q6.5 10.26 12.857 20.584 6.3549 10.329 12.71 21.16h-25.567q-10.399-19.065-21.522-37.555zm0-17.476h14.446q10.254 0 15.599-3.6844 5.3429-3.6825 5.3447-11.628 0-7.9418-5.2731-11.7-5.2731-3.7542-15.527-3.7542h-14.589zm152.53 55.033q-3.7578-11.409-7.512-22.389h-41.887q-3.7579 11.125-7.512 22.389h-23.833q9.8207-27.155 20.007-53.012 10.183-25.853 20.582-50.266h23.978q10.688 25.714 20.872 51.64 10.181 25.928 19.717 51.638zm-43.043-40.877h29.032q-3.4677-10.109-7.1502-20.15-3.6844-10.037-7.2953-19.717-7.512 19.79-14.587 39.865zm80.019-62.399h39.434a59.747 59.747 0 0 1 27.949 6.0666 40.995 40.995 0 0 1 17.695 17.549 58.858 58.858 0 0 1 6.0666 27.806 59.165 59.165 0 0 1-6.1382 27.949 41.74 41.74 0 0 1-17.695 17.766 59.042 59.042 0 0 1-28.022 6.14h-39.288zm38.133 84.21q14.442 0 22.172-8.4506 7.7232-8.4487 7.7269-24.338 0-15.742-7.5837-24.051-7.5818-8.3036-22.172-8.3055h-16.031v65.145zm70.63-84.212h22.246v103.28h-22.246zm91.145-2.1654a56.937 56.937 0 0 1 21.159 3.756 45.237 45.237 0 0 1 16.181 10.759 47.745 47.745 0 0 1 10.324 16.901 70.547 70.547 0 0 1 0 44.562 48.323 48.323 0 0 1-10.326 17.044 44.736 44.736 0 0 1-16.178 10.831 61.492 61.492 0 0 1-42.321 0 44.71 44.71 0 0 1-16.179-10.833 48.294 48.294 0 0 1-10.328-17.044 70.547 70.547 0 0 1 0-44.56 47.717 47.717 0 0 1 10.328-16.901 45.212 45.212 0 0 1 16.179-10.759 56.922 56.922 0 0 1 21.158-3.756zm0 88.254a27.297 27.297 0 0 0 15.166-4.116 25.868 25.868 0 0 0 9.6793-11.773 53.929 53.929 0 0 0 0-37.266 25.436 25.436 0 0 0-9.6793-11.7 30.456 30.456 0 0 0-30.333 0 25.401 25.401 0 0 0-9.6775 11.7 53.907 53.907 0 0 0 0 37.266 25.831 25.831 0 0 0 9.6775 11.773 27.284 27.284 0 0 0 15.167 4.116z" stroke-width="1.8367"/>
</svg>
