<svg width="800" height="248.06" version="1.1" viewBox="0 0 800 248.06" xmlns="http://www.w3.org/2000/svg">
 <path d="m126.19 5.2407e-6v75.49h75.49v-75.49zm52.412 53.275c-1.2941 1.9412-3.2353 3.451-5.6079 4.3137-2.8039 1.0784-5.6079 1.5098-8.6275 1.5098h-16.824v-42.706h15.961c3.6667-0.21568 7.549 0.86275 10.784 3.0196 2.5882 1.9412 4.098 4.9608 3.8824 8.1961 0 1.9412-0.43138 3.6667-1.2941 5.1765-1.0784 1.5098-2.3725 2.8039-4.098 3.451 2.3726 0.64706 4.3137 2.1569 5.8235 3.8824 1.2941 1.9412 2.1569 4.3137 1.9412 6.4706 0 2.3726-0.64706 4.7451-1.9412 6.6863zm-10.784-20.706c1.2941-1.0784 1.9412-2.5882 1.7255-4.098 0-3.451-2.3726-4.9608-6.902-4.9608h-6.4706v10.569h6.4706c1.7255 0 3.6667-0.43137 5.1765-1.5098zm-4.098 7.9804h-7.549v11.431h7.549c2.1569 0.21569 4.098-0.43137 6.0392-1.5098 1.2941-0.86275 2.1569-2.5882 2.1569-4.098-0.21569-3.8824-3.0196-5.8235-8.1961-5.8235zm56.941-40.549v75.49h75.49v-75.49zm52.196 53.275c-1.2941 1.9412-3.2353 3.451-5.6079 4.3137-2.8039 1.0784-5.6078 1.5098-8.6275 1.5098h-16.824v-42.706h15.961c3.8824-0.21568 7.549 0.64706 11 2.8039 2.5882 1.9412 4.098 4.9608 3.8824 8.1961 0 1.9412-0.43137 3.6667-1.2941 5.1765-1.0784 1.5098-2.3726 2.8039-4.098 3.451 2.3726 0.64706 4.3137 2.1569 5.8236 3.8824 1.2941 1.9412 2.1569 4.3137 1.9412 6.4706-0.21567 2.5882-0.86273 4.9608-2.1569 6.902zm-10.784-20.706c1.2941-1.0784 1.9412-2.5882 1.7255-4.098 0-3.451-2.3726-4.9608-6.902-4.9608h-6.4706v10.569h6.4706c1.7255 0 3.6667-0.43137 5.1765-1.5098zm-4.098 7.9804h-7.549v11.431h7.549c2.1568 0.21569 4.098-0.43137 6.0392-1.5098 1.2941-0.86275 2.1569-2.5882 2.1569-4.098-0.21569-3.8824-3.0196-5.8235-8.1961-5.8235zm56.941 34.941h75.49v-75.49h-75.49zm54.137-19.196c-1.9412 1.0784-3.8824 1.7255-6.0392 2.3726-2.3726 0.64706-4.7451 0.86275-7.3333 0.86275-3.0196 0-6.2549-0.43137-9.0588-1.5098-2.5882-0.86275-4.9608-2.3726-6.902-4.3137-1.9412-1.9412-3.451-4.3137-4.3137-6.902-1.0784-3.0196-1.5098-6.0392-1.5098-9.0588s0.43137-6.0392 1.5098-8.8432c1.0784-2.5882 2.5882-4.9608 4.5294-6.902s4.3137-3.451 7.1177-4.3137c3.0196-1.0784 6.0392-1.5098 9.2745-1.5098 2.1569 0 4.5294 0.21568 6.6863 0.64706 1.9412 0.43137 3.8824 1.0784 5.8236 2.1569v8.1961c-1.7255-1.0784-3.451-1.9412-5.3922-2.3726-1.9412-0.64706-4.098-0.86275-6.0392-0.86275-2.5882 0-5.1765 0.43137-7.549 1.7255-1.9412 1.0784-3.6667 2.5882-4.7451 4.7451-1.0784 2.3726-1.7255 4.9608-1.7255 7.549s0.43137 5.1765 1.5098 7.549c1.0784 1.9412 2.5882 3.6667 4.5294 4.7451 2.3726 1.0784 4.7451 1.7255 7.3334 1.7255 4.3137 0 8.4118-1.0784 12.078-3.451zm63.412-10.784v20.49h-12.078v-56.51h20.706c7.3334 0 13.157 1.5098 17.039 4.7451 4.098 3.2353 6.2549 8.1961 6.0392 13.373 0 3.451-0.86275 6.6863-2.5882 9.4902-1.9412 2.8039-4.5294 4.7451-7.549 6.0392 2.3726 3.6667 4.7451 7.549 7.1177 11.216 2.3726 3.6667 4.7451 7.549 6.902 11.647h-14.02c-3.8824-6.902-7.7647-13.804-11.863-20.49zm0-9.7059h7.9804c3.0196 0.21569 6.0392-0.43137 8.6275-1.9412 1.9412-1.5098 3.0196-3.8824 3.0196-6.4706 0.21569-2.5882-0.86275-4.9608-2.8039-6.4706-2.5882-1.5098-5.6078-2.1569-8.4118-2.1569h-7.9804zm83.471 30.196c-1.2941-4.098-2.8039-8.1961-4.098-12.294h-22.863c-1.2941 4.098-2.8039 8.1961-4.098 12.294h-12.941c3.6667-9.9216 7.3334-19.627 11-29.118s7.549-18.549 11.216-27.608h13.157c3.8824 9.4902 7.7647 18.765 11.431 28.255 3.6667 9.4902 7.3334 18.98 10.784 28.255zm-23.51-22.431h15.961l-3.8824-11c-1.2941-3.6667-2.5882-7.3333-4.098-10.784-2.8039 7.3333-5.3922 14.451-7.9804 21.784zm43.784-34.078h21.569c5.3922-0.21569 10.569 1.0784 15.314 3.2353 4.098 2.1569 7.549 5.3922 9.7059 9.7059 2.3725 4.7451 3.451 9.9216 3.2353 15.314 0.21569 5.3922-1.0784 10.569-3.451 15.314-2.1569 4.098-5.6079 7.549-9.7059 9.7059-4.7451 2.3726-9.9216 3.451-15.314 3.451h-21.569zm20.922 46.157c4.5294 0.21569 9.0588-1.2941 12.078-4.5294 3.0196-3.6667 4.5294-8.4118 4.3137-13.373 0.43138-4.7451-1.0784-9.4902-4.098-13.157-3.2353-3.2353-7.549-4.9608-12.078-4.5294h-8.8432v35.588zm38.608-46.157h12.078v56.51h-12.078zm50.039-1.2941c3.8824 0 7.9804 0.64706 11.647 2.1569 3.451 1.2941 6.4706 3.2353 8.8432 5.8235 2.5882 2.5882 4.5294 5.8235 5.6078 9.2745 1.2941 3.8824 1.9412 7.9804 1.9412 12.294 0 4.098-0.64707 8.1961-1.9412 12.078-1.2941 3.451-3.2353 6.6863-5.6078 9.2745-2.5882 2.5882-5.6079 4.5294-8.8432 5.8235-7.549 2.8039-15.745 2.8039-23.078 0-3.451-1.2941-6.4706-3.2353-8.8432-5.8235-2.5882-2.5882-4.5294-5.8235-5.6079-9.2745-1.2941-3.8824-1.9412-7.9804-1.9412-12.078s0.64706-8.1961 1.9412-12.294c1.2941-3.451 3.2353-6.6863 5.6079-9.2745 2.5882-2.5882 5.6078-4.5294 8.8432-5.8235 3.451-1.5098 7.3333-2.1569 11.431-2.1569zm0 48.314c3.0196 0 5.8235-0.64706 8.1961-2.1569 2.3726-1.5098 4.3137-3.8824 5.3922-6.4706 1.2941-3.2353 1.9412-6.6863 1.7255-10.137 0-3.451-0.43137-6.902-1.7255-10.137-1.0784-2.5882-3.0196-4.9608-5.3922-6.4706-5.1765-3.0196-11.431-3.0196-16.608 0-2.3726 1.5098-4.3137 3.8824-5.3922 6.4706-1.2941 3.2353-1.9412 6.6863-1.7255 10.137 0 3.451 0.43136 6.902 1.7255 10.137 1.0784 2.5882 3.0196 4.9608 5.3922 6.4706 2.5882 1.5098 5.3922 2.3726 8.4118 2.1569z" fill="#fff" stroke-width="1.5625"/>
 <path d="m67.528 248.04c-9.7059 0.21569-19.196-1.5098-28.255-4.7451-7.9804-2.8039-15.314-7.549-21.353-13.588-6.0392-6.2549-10.569-13.588-13.373-21.784-3.0196-9.2745-4.7451-18.98-4.5294-28.902-0.21569-9.7059 1.5098-19.196 4.7451-28.255 6.0392-16.608 18.98-29.549 35.588-35.588 9.0588-3.2353 18.765-4.9608 28.255-4.7451 6.902 0 13.804 0.64706 20.706 2.3726 6.2549 1.5098 12.294 3.6667 18.118 6.6863v26.314c-4.9608-3.451-10.569-6.0392-16.392-7.7647-6.0392-1.7255-12.294-2.8039-18.765-2.5882-7.9804-0.21568-15.961 1.5098-23.078 5.1765-6.2549 3.451-11.431 8.6275-14.667 14.882-3.6667 7.3334-5.3922 15.529-5.1765 23.941-0.21569 8.1961 1.5098 16.392 4.9608 23.941 3.0196 6.4706 7.9804 11.647 14.235 15.098 6.902 3.6667 14.667 5.3922 22.647 5.1765 13.373 0 26.314-3.6667 37.529-11v25.667c-5.8235 3.2353-12.294 5.8235-18.765 7.3334-7.3333 1.5098-14.882 2.3725-22.431 2.3725zm131.57-52.843v50.039h-28.471v-50.039c-8.6275-13.588-17.039-27.177-25.235-40.765-8.1961-13.588-16.392-27.392-24.157-41.196h32.353c4.9608 9.7059 10.353 19.412 15.529 29.118 5.3922 9.7059 10.784 19.412 16.176 28.902 5.6079-9.7059 11-19.196 16.176-28.902 5.3922-9.7059 10.569-19.412 15.745-29.118h31.49c-7.9804 13.804-16.176 27.608-24.373 41.196s-16.608 27.177-25.235 40.765zm121.22 25.451c-5.3922-10.784-10.784-21.784-15.961-32.569-5.1765-11-10.353-21.784-15.314-32.569v89.726h-27.177v-132.22h34.078c5.8236 13.588 11.647 27.177 17.686 40.549 6.0392 13.588 12.294 26.745 18.549 39.902 6.2549-13.157 12.294-26.529 18.333-39.902 6.0392-13.373 11.863-26.961 17.471-40.765h33.216v132h-27.177v-89.726c-4.9608 11-10.137 22-15.529 33-5.1765 11-10.569 21.784-15.745 32.569zm133.94-23.51v48.098h-28.039v-132.22h48.314c17.471 0 30.628 3.6667 39.902 11 9.2745 7.3334 14.02 17.686 14.02 31.275 0.64706 15.961-8.8432 30.843-23.941 36.667 5.6079 8.8431 11 17.471 16.392 26.314 5.3922 8.8432 10.784 17.902 16.176 27.177h-32.784c-8.8432-16.176-18.118-32.353-27.608-48.098zm0-22.431h18.549c8.8431 0 15.314-1.5098 20.059-4.7451 4.5294-3.2353 6.902-8.1961 6.902-14.882s-2.1569-11.863-6.6863-14.882c-4.5294-3.2353-11.216-4.7451-19.843-4.7451h-18.765zm152.27 73.333c-10.569 0.21569-20.922-1.9412-30.412-6.6863-8.4118-4.3137-15.098-11.216-19.412-19.412-4.7451-9.4902-7.1176-20.059-6.6863-30.628v-78.294h28.471v81.098c0 9.2745 2.3726 16.608 7.3333 21.569 4.9608 4.9608 11.863 7.549 20.706 7.549 9.0588 0 15.961-2.5882 20.706-7.549 4.9608-4.9608 7.3333-12.078 7.3333-21.569v-81.098h28.471v78.079c0.21569 10.569-1.9412 21.137-6.6863 30.628-4.3137 8.4118-11.216 15.098-19.412 19.412-9.4902 4.7451-19.843 7.1177-30.412 6.902zm193.47-26.961v23.941h-90.588v-5.1765c0-6.0392 0.43138-11.863 1.7255-17.902 1.0784-5.1765 3.0196-10.137 5.6079-14.667 3.0196-4.9608 6.4706-9.2745 10.784-13.157 5.1765-4.7451 10.784-9.0588 16.824-12.941 4.9608-3.2353 9.7059-6.6863 14.235-10.569 3.0196-2.3726 5.3922-5.1765 7.3334-8.4118 1.5098-2.5882 2.1568-5.6079 2.1568-8.6275 0-11.216-7.1176-16.824-21.569-16.824-6.0392 0-11.863 0.86275-17.471 2.8039-6.0392 2.1569-11.431 5.1765-16.608 9.0588v-24.157c6.0392-3.451 12.294-6.2549 18.98-8.1961 6.902-1.7255 13.804-2.5882 20.922-2.5882 7.9804-0.21569 15.961 1.2941 23.51 4.5294 6.2549 2.5882 11.647 6.902 15.529 12.51 3.8824 5.6078 5.6078 12.294 5.6078 19.196 0 4.3137-0.43137 8.8432-1.5098 13.157-1.0784 3.8824-2.5882 7.7647-4.9608 11-2.8039 3.8824-6.0392 7.3334-9.7059 10.353-4.7451 3.8824-9.9216 7.549-15.098 11-4.5294 2.8039-9.0588 5.8235-13.157 9.2745-3.2353 2.3726-6.0392 5.1765-8.6275 8.4118-2.1569 2.5882-3.8824 5.3922-4.9608 8.4118z" fill="#00caa4" stroke-width="1.5625"/>
</svg>
