<svg width="1e3" height="399.38" version="1.1" viewBox="0 0 264.58 105.67" xmlns="http://www.w3.org/2000/svg">
 <g transform="translate(-534.32 -2963)" fill="#fff">
  <path d="m608.45 2988.2c0 4.2371-5.2727 3.9858-5.2727 3.9858h-5.2726v-7.6554h5.2726c5.4262-.035 5.2727 3.6696 5.2727 3.6696m-10.545-15.347h4.0177c4.1721.2251 4.0145 3.3268 4.0145 3.3268 0 3.8611-4.613 3.9228-4.613 3.9228h-3.4192zm9.57 8.7559s3.6089-1.5389 3.5767-5.6172c0 0 .54892-6.6844-8.3081-7.5001h-9.8279v28.024h11.265s9.4126.046 9.4126-7.9062c-.00018 0 .22074-5.4004-6.1186-7.0002m-25.435-18.61h41.377v38.993h-41.377zm-21.306 25.2c0 4.2369-5.2726 3.9858-5.2726 3.9858h-5.2731v-7.6549h5.2731c5.4265-.033 5.2726 3.6691 5.2726 3.6691m-10.546-15.347h4.0186c4.1723.2276 4.0145 3.3271 4.0145 3.3271 0 3.86-4.613 3.9228-4.613 3.9228h-3.42zm9.5709 8.7561s3.6095-1.5386 3.577-5.6171c0 0 .54844-6.6855-8.3084-7.5007h-9.8284v28.025h11.266s9.4126.046 9.4126-7.9077c0 0 .22049-5.4002-6.1187-7.0003m-25.435-18.609h41.377v38.992h-41.377zm128.37 7.5004v5.1777s-5.0539-3.1046-10.639-3.1683c0 0-10.42-.2099-10.889 9.9875 0 0-.3764 9.3725 10.764 9.9068 0 0 4.674.5633 11.015-3.4798v5.363s-8.5057 5.0528-18.359 1.1609c0 0-8.283-3.0252-8.5984-12.951 0 0-.34452-10.208 10.703-13.596 0 0 2.9502-1.1317 8.2514-.627 2e-4 0 3.1685.3132 7.7533 2.2256m-32.937 31.494h41.377v-38.993h-41.377z"/>
  <path d="m685.18 2985.1v11.302h-3.8459v-28.061h9.0653q5.3371 0 8.1627 2.1993 2.8647 2.1581 2.8647 6.199 0 2.8264-1.5305 4.7888-1.5303 1.9624-4.356 2.8643 3.9244 5.8483 7.574 12.01h-4.5131q-1.6483-2.9047-3.3748-5.6919-1.6876-2.8244-3.5319-5.6503-.62799.045-1.3344.045zm0-3.1387h4.9053q3.7281 0 5.5726-1.2964 1.8447-1.2941 1.8447-3.9255 0-5.2568-7.378-5.2568h-4.9446z"/>
  <path d="m728.23 2996.4q-.70642-1.9242-1.4128-3.8074-.66726-1.8835-1.3735-3.7673h-13.186q-1.4128 3.7278-2.7862 7.5747h-4.042q2.7862-7.3782 5.6117-14.403 2.8648-7.0245 5.808-13.658h4.0814q3.061 7.0253 5.8866 14.05 2.8646 7.025 5.5725 14.011zm-14.717-10.871h10.674q-1.3343-3.4156-2.6684-6.7502-1.3344-3.3364-2.6687-6.6339-1.3736 3.3367-2.7078 6.6731-1.3344 3.3354-2.6294 6.711z"/>
  <path d="m735.45 2968.4h9.7717q4.3167 0 7.417 1.6484 3.1394 1.6109 4.7877 4.7109 1.6876 3.1005 1.6876 7.574 0 4.4719-1.6876 7.6516-1.6483 3.1397-4.7877 4.828-3.1003 1.6475-7.4563 1.6475h-9.7324zm9.4577 24.764q4.8662 0 7.4955-2.7468 2.6685-2.7485 2.6685-8.0839 0-5.2604-2.6294-7.9273-2.5901-2.7083-7.4955-2.7083h-5.6118v21.466z"/>
  <path d="m763.5 2968.4h3.8851v28.061h-3.8851z"/>
  <path d="m785.41 2967.8q3.0609 0 5.5332 1.0213 2.5117 1.0205 4.2776 2.9427 1.8051 1.9225 2.747 4.6318.94183 2.6678.94183 6.0035 0 3.3364-.98107 6.0439-.94186 2.6677-2.7078 4.5906-1.766 1.9232-4.2776 2.9824-2.4723 1.021-5.5332 1.021-3.0611 0-5.5726-1.021-2.4724-1.0592-4.2383-2.9824-1.766-1.9229-2.7472-4.5906-.94181-2.7075-.94181-6.0439 0-3.3357.94181-6.0035.94185-2.7093 2.7079-4.6318 1.805-1.9222 4.2775-2.9427 2.5114-1.0213 5.5726-1.0213zm0 25.863q2.9432 0 5.0623-1.3351 2.1192-1.3735 3.2573-3.8851 1.138-2.5515 1.138-6.0439 0-3.4912-1.138-6.0035-1.1381-2.5111-3.2573-3.8457-2.1191-1.3742-5.0623-1.3742-2.9433 0-5.0625 1.3742-2.1192 1.3346-3.2572 3.8457-1.1381 2.5123-1.1381 6.0035 0 3.4924 1.1381 6.0439 1.138 2.5116 3.2572 3.8851 2.1192 1.3351 5.0625 1.3351z"/>
  <g transform="matrix(1.6673 0 0 1.6673 -521.91 1542.8)" aria-label="WM">
   <path d="m699.98 915.2q-1.16-4.4-2.28-8.8-1.12-4.44-2.16-8.88-1.08 4.44-2.16 8.88-1.08 4.4-2.24 8.8h-8.08q-2-7-3.8-14.16t-3.44-14.44h8.36q.76 5.16 1.64 10.32t1.84 10.16q1.16-4.84 2.24-9.64 1.08-4.84 2.08-9.64h7.48q1 4.72 2.04 9.4 1.08 4.64 2.16 9.28.96-4.88 1.8-9.88.88-5 1.64-10h8.2q-1.6 7.28-3.44 14.44t-3.8 14.16z"/>
   <path d="m731.25 910q-1.4-3.04-2.8-6.08-1.36-3.04-2.68-6.08v17.36h-7.28v-28.6h9.4q1.56 3.96 3.16 7.92 1.64 3.96 3.32 7.84 1.6-3.84 3.16-7.76 1.56-3.96 3.08-8h9.28v28.6h-7.28v-17.48q-1.32 3.12-2.68 6.2-1.32 3.04-2.68 6.08z"/>
  </g>
 </g>
</svg>
