<svg width="800" height="342.83" version="1.1" viewBox="0 0 800 342.83" xmlns="http://www.w3.org/2000/svg">
 <path d="m19.175 253.01v32.797h-19.175v-90.196h32.924c11.857 0 20.961 2.4817 27.312 7.445 6.348 4.9624 9.5229 12.069 9.5248 21.319 0.49166 10.953-6.0547 21-16.273 24.975 3.7835 5.9709 7.526 11.963 11.228 17.977 3.6997 6.0138 7.4003 12.174 11.102 18.48h-22.328c-6.0556-11.102-12.321-22.034-18.795-32.797zm0-15.264h12.615c5.9699 0 10.511-1.0718 13.624-3.2154 3.1102-2.1484 4.6658-5.5333 4.6667-10.155 0-4.6272-1.5346-8.0345-4.6039-10.222-3.0712-2.1855-7.5917-3.2783-13.562-3.2783h-12.74zm132.58 48.061c-2.1884-6.6404-4.3748-13.157-6.5594-19.551h-36.582c-2.1884 6.4737-4.3748 12.991-6.5594 19.551h-20.815c5.7185-15.808 11.543-31.24 17.473-46.297 5.928-15.05 11.92-29.683 17.976-43.899h20.94c6.2223 14.97 12.298 30.003 18.228 45.1 5.929 15.096 11.669 30.128 17.22 45.096zm-37.591-35.7h25.356c-2.0189-5.888-4.1001-11.753-6.2437-17.596-2.1446-5.8452-4.2682-11.585-6.3708-17.22-4.3758 11.52-8.623 23.125-12.742 34.815zm69.885-54.496h34.438c9.502 0 17.638 1.7656 24.409 5.2967 6.6163 3.383 12.016 8.7406 15.451 15.33 3.533 6.6832 5.2986 14.776 5.2966 24.279 0 9.5058-1.7865 17.642-5.3595 24.409-3.4396 6.6332-8.8332 12.05-15.451 15.519-6.7289 3.5768-14.886 5.3633-24.472 5.3595h-34.313zm33.304 73.546c8.4068 0 14.862-2.4607 19.364-7.3822 4.4967-4.9167 6.7461-12.002 6.748-21.257 0-9.162-2.2074-16.162-6.6223-21.001-4.4148-4.8367-10.869-7.2541-19.364-7.2522h-14.003v56.892zm61.683-73.546h19.427v90.196h-19.427zm79.6-1.8927c6.3124-0.0888 12.584 1.0253 18.48 3.2826 5.3352 2.0706 10.156 5.2768 14.129 9.3963 4.0053 4.2345 7.0782 9.2617 9.0206 14.757 4.2034 12.633 4.2034 26.287 0 38.919-1.94 5.5339-5.0122 10.603-9.0206 14.883-3.9565 4.155-8.7806 7.3862-14.129 9.4634-11.933 4.3711-25.028 4.3711-36.961 0-5.3476-2.0775-10.171-5.3087-14.127-9.4634-4.0094-4.2795-7.0817-9.3485-9.0206-14.883-4.2035-12.633-4.2035-26.287 0-38.919 1.9405-5.4964 5.0137-10.524 9.0206-14.757 3.9714-4.1201 8.7922-7.3264 14.127-9.3963 5.8962-2.2574 12.168-3.3714 18.481-3.2826zm0 77.076c4.6719 0.12625 9.278-1.123 13.246-3.5925 3.7848-2.5014 6.7297-6.0834 8.4521-10.28 3.8663-10.504 3.8663-22.042 0-32.546-1.7115-4.188-4.6602-7.7541-8.4521-10.222-8.2036-4.7062-18.288-4.7062-26.492 0-3.7934 2.4662-6.7424 6.0328-8.4521 10.222-3.8701 10.503-3.8701 22.042 0 32.546 1.7214 4.1976 4.6666 7.7798 8.4521 10.28 3.9678 2.4698 8.574 3.7191 13.246 3.5925zm-358.63-213.56v114.34h114.34v-114.34zm79.736 80.691c-2.1155 2.8842-5.0143 5.1008-8.3521 6.3866-4.154 1.5963-8.5814 2.3603-13.03 2.2484h-25.623v-64.316h24.136c7.1127 0 12.622 1.4242 16.528 4.2725 3.9035 2.839 6.1079 7.4585 5.8595 12.279 0.06939 2.7988-0.65836 5.5597-2.0984 7.9607-1.5103 2.3457-3.6667 4.2045-6.2094 5.3524 3.4578 1.0289 6.503 3.1224 8.7021 5.9823 2.0634 2.8955 3.1229 6.3866 3.0169 9.9405 0.09359 3.5246-0.93207 6.9881-2.9297 9.8934zm-16.354-31.439c1.804-1.5238 2.7909-3.8041 2.6669-6.1623 0-5.0967-3.4692-7.645-10.408-7.645h-9.882v16.011h9.882c2.7581 0.18866 5.4957-0.59082 7.7407-2.2041zm-6.078 12.279h-11.543v17.361h11.369c3.1566 0.19583 6.2982-0.57287 9.0078-2.2041 2.0777-1.4249 3.269-3.8244 3.1483-6.3408 0-5.8785-3.9939-8.8173-11.982-8.8163zm85.619-61.532v114.34h114.34v-114.34zm79.736 80.691c-2.1155 2.8842-5.0143 5.1008-8.3521 6.3866-4.154 1.5963-8.5814 2.3603-13.03 2.2484h-25.623v-64.316h24.136c7.1127 0 12.622 1.4242 16.528 4.2725 3.9036 2.839 6.1079 7.4585 5.8595 12.279 0.0694 2.7988-0.65837 5.5597-2.0984 7.9607-1.5103 2.3457-3.6667 4.2045-6.2094 5.3524 3.4578 1.0289 6.503 3.1224 8.7021 5.9823 2.0634 2.8955 3.1229 6.3866 3.0169 9.9405 0.0936 3.5246-0.93206 6.9881-2.9297 9.8934zm-16.354-31.439c1.804-1.5238 2.7908-3.8041 2.6669-6.1623 0-5.0967-3.4692-7.645-10.408-7.645h-9.882v16.011h9.882c2.7581 0.18866 5.4957-0.59082 7.7407-2.2041zm-6.078 12.279h-11.543v17.361h11.369c3.1566 0.19583 6.2982-0.57287 9.0078-2.2041 2.0777-1.4249 3.269-3.8244 3.1483-6.3408 0-5.8785-3.9939-8.8173-11.982-8.8163zm85.619 52.807h114.34v-114.34h-114.34zm82.118-29.087c-2.9182 1.5665-6.0319 2.7376-9.2592 3.4825-3.628 0.86544-7.3464 1.2946-11.076 1.2785-4.7255 0.069-9.4264-0.69198-13.889-2.2484-7.9425-2.7123-14.2-8.9206-16.976-16.841-1.5709-4.4281-2.3395-9.1008-2.2698-13.799-0.0675-4.6191 0.73341-9.2098 2.3612-13.533 1.4936-3.9054 3.8169-7.4402 6.8094-10.36 3.0488-2.9322 6.6839-5.1857 10.666-6.6123 4.4725-1.5828 9.1906-2.359 13.934-2.2926 3.4049-0.01777 6.8007 0.3522 10.122 1.1028 3.0736 0.69711 6.0471 1.7784 8.8506 3.2183v12.52c-2.4895-1.6479-5.2132-2.911-8.0793-3.7468-2.9795-0.86242-6.0674-1.293-9.1692-1.2785-3.9124-0.11328-7.7929 0.73424-11.302 2.4683-3.0637 1.5922-5.5666 4.0841-7.1722 7.1408-1.7589 3.5266-2.6168 7.4341-2.4969 11.373-0.11437 3.9427 0.71003 7.8562 2.4055 11.418 1.5245 3.065 3.968 5.5774 6.9894 7.1865 3.4438 1.735 7.266 2.5834 11.12 2.4683 6.5109 0.0418 12.9-1.762 18.428-5.2024z" fill="#cd1f2b" stroke-width="1.5625"/>
 <path d="m628.59-1.4284e-5c-69.33 0-131.83 41.764-158.36 105.82-26.53 64.051-11.861 137.78 37.163 186.8 49.023 49.024 122.75 63.693 186.8 37.163 64.051-26.53 105.82-89.034 105.82-158.36 0-94.669-76.744-171.41-171.41-171.41zm77.703 260.44c-7.5698 10.199-18.319 18.042-32.247 23.528-13.933 5.4814-30.551 8.2231-49.853 8.225-11.753 0.0477-23.486-0.99861-35.045-3.1254-11.324-2.1605-22.326-5.7543-32.741-10.695v-41.789c9.8871 4.6725 20.187 8.4173 30.766 11.186 11.141 2.744 22.585 4.0706 34.058 3.9482 14.916 0 26.269-2.6869 34.058-8.0607 7.7831-5.3719 11.677-13.105 11.68-23.199 0-10.31-3.8392-18.097-11.518-23.364-7.6812-5.2633-18.869-7.896-33.564-7.8978h-34.88v-38.826h33.236c14.036 0 24.73-2.6331 32.083-7.8993 7.3469-5.2633 11.021-12.612 11.023-22.045 0.23804-7.8945-3.7826-15.309-10.529-19.415-7.0232-4.6081-17.005-6.9113-29.946-6.9094-7.3875-0.04008-14.764 0.5655-22.047 1.8098-6.7038 1.1845-13.305 2.8895-19.744 5.0995-6.6856 2.3388-13.177 5.1997-19.414 8.5564v-40.803c20.401-10.086 42.996-15.131 67.785-15.136 17.112 0 31.919 2.4674 44.423 7.4022 12.504 4.9357 22.101 11.956 28.792 21.061 6.6889 9.1068 10.034 19.911 10.036 32.413 0.21292 11.396-3.3121 22.549-10.036 31.753-6.6946 9.1068-16.073 16.072-28.135 20.897 13.599 4.6053 24.184 11.735 31.754 21.389 7.5679 9.6534 11.352 21.389 11.352 35.207 3e-3 14.264-3.7801 26.495-11.349 36.691z" fill="#cd1f2b" stroke-width="1.5625"/>
</svg>
