<svg width="400" height="400" version="1.0" viewBox="0 0 400 400" xmlns="http://www.w3.org/2000/svg">
 <link href="" rel="stylesheet" type="text/css"/>
 <path d="m0 0h400v400h-400z" fill="#ff7c10" stroke-width=".5" style="paint-order:stroke fill markers"/>
 <style type="text/css"/>
 <path d="m121.86 314.83c-2.9966-9.933-5.811-19.92-8.4417-29.956-2.7442 10.02-5.6115 20.006-8.6013 29.956h-13.278c-2.3426-7.6824-4.5862-15.395-6.7303-23.135-2.1452-7.7536-4.2063-15.53-6.183-23.328h13.997c1.9739 11.224 4.1837 22.406 6.6278 33.538 1.4374-5.2476 2.8291-10.518 4.1752-15.777s2.6466-10.586 3.9015-15.971h12.377c1.2548 5.2702 2.5439 10.495 3.8557 15.697 1.3233 5.2019 2.6922 10.381 4.1297 15.514 2.5048-10.945 4.7489-21.949 6.7303-33.001h13.632c-3.9559 15.583-8.2614 31.075-12.913 46.464zm100.27 0.79851c-8.1907 0-12.286-4.4488-12.286-13.347v-54.277h13.267v53.103c0 1.4944 0.28519 2.5553 0.85559 3.1942 0.57038 0.61598 1.54 0.9354 2.9203 0.9354 0.66431 0 1.3263-0.0787 1.9735-0.2282 0.67897-0.15679 1.3402-0.38225 1.9735-0.673v9.7764c-2.3386 1.0266-5.2475 1.5285-8.7041 1.5285zm-18.48-1.5173c-2.3271 1.0267-5.236 1.5286-8.6926 1.5286-5.4872 0-9.0919-2.0533-10.906-6.0461-3.1639 3.9841-7.9518 6.334-13.039 6.3996-3.8329 0-7.1639-0.95821-10.004-2.8633-2.9298-2.0206-5.2183-4.8396-6.5935-8.1222-1.5514-3.4906-2.3271-7.6657-2.3271-12.514 0-5.316 0.99246-9.8675 3.0002-13.632 2.0078-3.7646 4.894-6.6505 8.6583-8.6582 3.7646-1.9964 8.3048-3.0002 13.632-3.0002 5.9205 0 12.103 1.4374 18.56 4.3008v29.66c0.0114 1.4602 0.28519 2.5097 0.85557 3.1257 0.57038 0.62744 1.54 0.94676 2.9089 0.94676 0.6643 0 1.3263-0.0787 1.9735-0.2281 0.67912-0.1563 1.3404-0.38186 1.9736-0.6731zm-23.944-35.923c-1.0383-0.15611-2.0871-0.23237-3.1371-0.22809-3.4679 0-6.1602 1.2206-8.0651 3.639-1.9165 2.4185-2.8747 5.875-2.8747 10.358 0 4.3008 0.77571 7.5975 2.3271 9.8675 1.4868 2.2422 4.0429 3.5376 6.7303 3.4109 1.4856 0.0146 2.9566-0.29308 4.312-0.90129 1.4122-0.67505 2.6615-1.6479 3.6618-2.8518v-22.439c-0.94819-0.39926-1.9398-0.68641-2.9546-0.85554zm96.554 34.315c-4.6088 2.3272-10.039 3.4906-16.324 3.4906-5.0879 0-9.4454-0.95822-13.096-2.8633-3.5787-1.8453-6.5052-4.744-8.3846-8.3048-1.9393-3.6162-2.9203-7.9626-2.9203-13.05 0-3.7646 0.52474-7.1527 1.5742-10.175 1.0495-3.0231 2.5553-5.6014 4.529-7.7572 1.9735-2.1561 4.3348-3.7987 7.0841-4.9395 2.7492-1.1407 5.8292-1.7112 9.2403-1.7112 6.5137 0 11.51 2.0306 14.978 6.0689 3.4679 4.0383 5.202 9.8104 5.202 17.351v3.8557h-29.603c0.47912 3.7646 1.8138 6.5479 3.9928 8.3387 2.1903 1.8025 5.3388 2.6922 9.4682 2.6922 2.7378 0 5.2475-0.29658 7.4834-0.88973 2.2473-0.60462 4.5059-1.5628 6.7762-2.8748zm-18.48-35.704c-2.307-0.0826-4.534 0.85146-6.0916 2.5552-1.5629 1.7112-2.5781 4.1409-3.0574 7.3123h17.226c-0.23957-3.4109-1.0267-5.8977-2.3272-7.4834-1.3233-1.5971-3.2397-2.3843-5.7494-2.3843zm43.405 39.197c-2.8063 0-5.5327-0.28521-8.168-0.84417-2.5731-0.54915-5.0704-1.4071-7.4376-2.5554v-10.586c2.0876 1.3689 4.4034 2.4527 6.9585 3.2286 2.5325 0.77568 5.0193 1.1636 7.4834 1.1636 5.4984 0 8.2478-1.597 8.2478-4.7684 0-1.3689-0.52474-2.3956-1.5628-3.0801-1.0495-0.68448-2.8519-1.369-5.4302-2.0534-3.2787-0.714-6.4582-1.8249-9.4682-3.3083-2.1071-1.019-3.8799-2.6178-5.1107-4.6088-1.0992-2.0399-1.6384-4.3345-1.5628-6.6505 0-3.0343 0.78711-5.6468 2.3728-7.8485 1.5856-2.2016 3.8217-3.9015 6.7303-5.0879 2.8975-1.1979 6.3884-1.791 10.449-1.791 2.7378 0 5.4071 0.28521 7.9853 0.85553 2.5667 0.57042 4.8709 1.4146 6.9015 2.5553v10.495c-1.8774-1.4212-3.9893-2.5023-6.24-3.1942-2.305-0.73682-4.7098-1.1139-7.1297-1.1179-2.5097 0-4.4831 0.37643-5.9205 1.1293-1.426 0.74149-2.1446 1.8709-2.1446 3.3653-0.0424 0.79764 0.17809 1.587 0.62743 2.2474 0.41066 0.57034 1.1408 1.0609 2.1902 1.4944 1.0495 0.44492 2.5325 0.91266 4.4489 1.4031 3.8217 0.95822 6.9015 2.0534 9.2403 3.3083 2.3271 1.2548 4.0268 2.7834 5.1106 4.5972 1.0723 1.8252 1.6085 4.0383 1.6085 6.6506 0 3.1598-0.79854 5.8634-2.4184 8.1337-1.7435 2.3596-4.1501 4.1466-6.913 5.1334-3.4799 1.236-7.1569 1.8237-10.849 1.7339z" fill="#fff" stroke-width="11.408"/>
 <path d="m118.72 183.31c2.5828 0 4.8144 0.4078 6.627 1.2234l0.44178 0.19258v6.944l-1.1555-0.77031c-0.85805-0.56078-1.8095-0.96359-2.8093-1.1894-1.141-0.2582-2.308-0.38365-3.4777-0.37384-2.2882 0-4.5085 0.62305-6.6156 1.8578-2.1924 1.3322-4.0828 3.107-5.5508 5.2109v34.437h-6.74v-46.739h5.7773l0.50977 5.46c1.5519-1.8804 3.2852-3.3304 5.1428-4.3386 2.3562-1.2687 4.9843-1.9258 7.8389-1.9258zm123.2-9.1192c-1.2243 0.0422-2.4122-0.42061-3.2852-1.2801-0.86247-0.87182-1.3293-2.0594-1.2914-3.2852 0-1.3367 0.44179-2.4355 1.3027-3.2626 0.8886-0.82876 2.071-1.2691 3.2852-1.2234 1.3594 0 2.4922 0.40779 3.353 1.2234 0.86094 0.82695 1.3027 1.9258 1.3027 3.2512 0.0393 1.226-0.4278 2.4141-1.2914 3.2852-0.90118 0.87428-2.1213 1.341-3.3759 1.2914zm51.723 33.099c0-3.7836-0.62305-7.1028-1.8578-9.8553-1.0962-2.5593-2.905-4.7495-5.2109-6.3098-2.3688-1.5216-5.1374-2.3025-7.9522-2.243-3.0472 0-5.7318 0.75897-7.9636 2.243-2.3084 1.5623-4.1176 3.7569-5.2109 6.3209-1.3046 3.1181-1.9376 6.4762-1.8578 9.8553 0 3.795 0.62306 7.1594 1.8578 9.9912 1.2121 2.7867 2.9453 4.9843 5.1657 6.4908 2.209 1.5066 4.905 2.2656 8.0088 2.2656 3.0926 0 5.7773-0.75897 7.9977-2.2656 2.209-1.518 3.9535-3.7043 5.1657-6.4908 1.2973-3.1719 1.9297-6.5764 1.8578-10.003zm4.2141-12.801c1.7898 3.6588 2.6961 7.9636 2.6961 12.801 0 3.6929-0.52107 7.0799-1.5519 10.082-0.95225 2.8671-2.4527 5.5217-4.4178 7.8163-1.9057 2.1845-4.2791 3.9114-6.944 5.0524-2.8542 1.1949-5.923 1.7924-9.017 1.7558-3.2963 0-6.3324-0.58906-9.0285-1.7558-2.6643-1.1367-5.0379-2.8598-6.944-5.0409-1.9668-2.2934-3.4674-4.9484-4.4178-7.8163-1.0698-3.252-1.5942-6.6586-1.5519-10.082 0-4.8484 0.90625-9.1529 2.6961-12.801 1.6815-3.5321 4.3489-6.5024 7.6804-8.5527 3.2852-1.9937 7.1706-3.0019 11.555-3.0019 4.3952 0 8.2921 1.0195 11.566 3.0019 3.2852 1.9937 5.868 4.871 7.6804 8.5527zm-146.33 31.571c2.4922 0 4.8484-0.54375 7.0232-1.6199 2.107-1.0422 4.0553-2.6054 5.7773-4.6785v-28.739c-1.4667-0.70308-3.0048-1.2462-4.5878-1.6199-1.7017-0.36057-3.4374-0.53529-5.1768-0.52109-5.46 0-9.6627 1.6312-12.495 4.837-2.866 3.2286-4.3045 7.9748-4.3045 14.115 0 5.8566 1.2121 10.422 3.6251 13.571 2.3902 3.1378 5.7092 4.6444 10.139 4.6444zm25.443-0.47577c0.71366-0.19258 1.4726-0.4871 2.2656-0.87227l1.0648-0.54374v5.7773l-0.32852 0.22656c-0.86244 0.55604-1.824 0.94066-2.832 1.1328-1.1041 0.21877-2.2275 0.32505-3.353 0.3172-3.1605 0-5.5508-0.87227-7.114-2.6054-0.76627-0.88341-1.3307-1.9233-1.6539-3.0472-3.7836 3.9987-8.4961 6.0265-14.024 6.0265-4.1008 0-7.7145-0.98554-10.728-2.9226-3.0906-2.024-5.5236-4.9058-7.0006-8.2921-1.6086-3.5118-2.4355-7.7256-2.4355-12.506 0-5.1428 0.94022-9.6627 2.798-13.424 1.8691-3.795 4.5766-6.7629 8.0429-8.813 3.4437-2.0504 7.6123-3.0926 12.347-3.0926 2.6621 0 5.3582 0.32851 8.0203 0.96286 2.9524 0.7314 5.8278 1.7442 8.5868 3.0246l0.44179 0.19258v34.437c0 1.5746 0.29452 2.7074 0.88359 3.3644 0.56641 0.62305 1.5293 0.95153 2.9 0.95153 0.71603-4e-3 1.4284-0.10301 2.1183-0.29453zm40.623-33.644c-3.2203-2.0196-6.949-3.0805-10.75-3.0586-3.5796 0-6.6608 0.75897-9.1418 2.2656-2.5116 1.5278-4.508 3.7728-5.7318 6.4456-1.3367 2.832-2.0164 6.2983-2.0164 10.32 0 5.868 1.2461 10.422 3.7155 13.526 2.4582 3.1038 5.9247 4.6218 10.592 4.6218 5.075 0 9.5609-2.1523 13.333-6.4004zm12.631 33.644c0.72496-0.19258 1.4726-0.4871 2.2656-0.87227l1.0762-0.54374v5.7773l-0.33985 0.22656c-0.86259 0.55579-1.8241 0.94038-2.832 1.1328-1.1041 0.21877-2.2275 0.32505-3.353 0.3172-3.1604 0-5.5508-0.87227-7.114-2.6054-0.78794-0.90814-1.3644-1.9799-1.6879-3.1378-3.9876 4.0554-8.8697 6.1172-14.511 6.1172-4.2253 0-7.9296-0.98554-11.033-2.9226-3.148-1.9835-5.6451-4.8469-7.1821-8.2354-1.6426-3.5003-2.4808-7.703-2.4808-12.472 0-3.8062 0.55508-7.3065 1.6426-10.399 1.0988-3.1038 2.6734-5.8114 4.7011-8.0429 2.0164-2.243 4.4859-3.9876 7.3405-5.1768 6.7775-2.7432 14.422-2.345 20.878 1.0875v-22.837h6.74v58.611c0 1.5633 0.29453 2.6734 0.87226 3.3192 0.5664 0.62306 1.5406 0.95154 2.9113 0.95154 0.71226-5e-3 1.4207-0.104 2.107-0.29452zm21.013 0c0.72498-0.18125 1.4726-0.4871 2.2656-0.87227l1.0762-0.54374v5.7773l-0.33985 0.22656c-0.86232 0.5563-1.8239 0.94093-2.832 1.1328-1.1004 0.21803-2.2201 0.3243-3.3419 0.3172-3.1719 0-5.5622-0.87227-7.1254-2.6054-1.5406-1.6992-2.3222-4.3045-2.3222-7.7256v-37.191h6.7174v37.45c0 1.5859 0.29453 2.7187 0.8836 3.3759 0.5664 0.62306 1.5406 0.95154 2.9113 0.95154 0.71225-5e-3 1.4207-0.104 2.107-0.29453z" fill="#fff" stroke-width="11.328"/>
 <g transform="matrix(.39795 0 0 .39795 2.001 -57.981)" fill="#fff">
  <g transform="matrix(1.8491,0,0,1.8282,170,-1373.3)" fill="#fff">
   <g transform="matrix(.82302 0 0 -.82302 189.64 997.28)">
    <path d="m0 0c0-11.25-14-10.583-14-10.583h-14v20.333h14c14.417 0.083 14-9.75 14-9.75m-28 40.75h10.667c11.083-0.584 10.666-8.833 10.666-8.833 0-10.25-12.25-10.417-12.25-10.417h-9.083zm25.417-23.25s9.583 4.083 9.5 14.917c0 0 1.457 17.749-22.063 19.916h-26.104v-74.416h29.917s25-0.084 25 21c0 0 0.583 14.333-16.25 18.583m-67.545 49.416h109.88v-103.54h-109.88z" fill="#fff"/>
   </g>
   <g transform="matrix(.82302 0 0 -.82302 85.355 997.28)">
    <path d="m0 0c0-11.25-14-10.583-14-10.583h-14v20.333h14c14.417 0.083 14-9.75 14-9.75m-28 40.75h10.667c11.083-0.584 10.666-8.833 10.666-8.833 0-10.25-12.25-10.417-12.25-10.417h-9.083zm25.417-23.25s9.583 4.083 9.5 14.917c0 0 1.457 17.749-22.063 19.916h-26.104v-74.416h29.917s25-0.084 25 21c0 0 0.583 14.333-16.25 18.583m-67.545 49.416h109.88v-103.54h-109.88z" fill="#fff"/>
   </g>
   <g transform="matrix(.82302 0 0 -.82302 308.19 958.6)">
    <path d="m0 0v-13.75s-13.417 8.25-28.25 8.417c0 0-27.666 0.54-28.916-26.522 0 0-1-24.895 28.583-26.312 0 0 12.417-1.5 29.25 9.25v-14.25s-22.583-13.416-48.75-3.083c0 0-22 8.04-22.834 34.395 0 0-0.917 27.105 28.417 36.105 0 0 7.834 3 21.917 1.667 0 0 8.416-0.834 20.583-5.917m-87.461-83.627h109.88v103.54h-109.88z" fill="#fff"/>
   </g>
  </g>
 </g>
</svg>
