<svg width="800" height="774.48" version="1.0" viewBox="0 0 800 774.48" xmlns="http://www.w3.org/2000/svg">
 <link href="" rel="stylesheet" type="text/css"/>
 <style type="text/css"/>
 <path d="m142.49 770.61c-9.8757-32.736-19.151-65.65-27.821-98.726-9.0439 33.024-18.494 65.934-28.347 98.726h-43.761c-7.7205-25.318-15.115-50.735-22.181-76.244-7.0699-25.553-13.863-51.182-20.377-76.883h46.13c6.5054 36.992 13.788 73.844 21.843 110.53 4.737-17.294 9.3237-34.663 13.76-51.995s8.7222-34.889 12.858-52.634h40.791c4.1355 17.369 8.3838 34.588 12.707 51.732 4.3611 17.144 8.8726 34.212 13.61 51.13 8.2551-36.072 15.651-72.335 22.181-108.76h44.927c-13.037 51.356-27.227 102.41-42.558 153.13zm330.47 2.6316c-26.994 0-40.491-14.662-40.491-43.987v-178.88h43.724v175.01c0 4.9252 0.93989 8.4216 2.8197 10.527 1.8798 2.0301 5.0754 3.0828 9.6245 3.0828 2.1893 0 4.371-0.25936 6.5041-0.75207 2.2377-0.51673 4.4169-1.2598 6.5041-2.218v32.22c-7.7071 3.3834-17.294 5.0376-28.686 5.0376zm-60.905-5.0004c-7.6695 3.3837-17.256 5.0379-28.648 5.0379-18.084 0-29.964-6.767-35.942-19.926-10.427 13.13-26.206 20.875-42.972 21.091-12.632 0-23.61-3.1579-32.971-9.4364-9.6558-6.6592-17.198-15.95-21.73-26.768-5.113-11.504-7.6694-25.264-7.6694-41.243 0-17.52 3.2708-32.52 9.8877-44.927s16.129-21.918 28.535-28.535c12.407-6.5794 27.37-9.8878 44.927-9.8878 19.512 0 39.889 4.7373 61.168 14.174v97.749c0.0376 4.8125 0.93991 8.2711 2.8197 10.301 1.8798 2.0678 5.0754 3.1202 9.5869 3.1202 2.1893 0 4.3709-0.25937 6.504-0.75174 2.2382-0.51512 4.4176-1.2585 6.5042-2.2183zm-78.913-118.39c-3.422-0.51448-6.8785-0.76581-10.339-0.7517-11.429 0-20.302 4.0227-26.58 11.993-6.3161 7.9705-9.4741 19.362-9.4741 34.137 0 14.174 2.5565 25.039 7.6695 32.52 4.8999 7.3897 13.324 11.659 22.181 11.241 4.8959 0.0481 9.744-0.9659 14.211-2.9704 4.6542-2.2247 8.7713-5.431 12.068-9.3986v-73.951c-3.1249-1.3158-6.3928-2.2622-9.7373-2.8196zm318.21 113.09c-15.189 7.6695-33.084 11.504-53.8 11.504-16.768 0-31.129-3.158-43.16-9.4364-11.794-6.0816-21.439-15.635-27.633-27.37-6.3913-11.918-9.6245-26.242-9.6245-43.01 0-12.407 1.7294-23.573 5.1881-33.535 3.4588-9.9631 8.4214-18.46 14.926-25.565 6.5041-7.1057 14.286-12.519 23.347-16.279 9.0606-3.7595 19.211-5.6394 30.453-5.6394 21.467 0 37.934 6.6921 49.363 20.001 11.429 13.309 17.144 32.332 17.144 57.183v12.707h-97.561c1.579 12.407 5.9777 21.58 13.159 27.482 7.2184 5.9404 17.595 8.8727 31.204 8.8727 9.023 0 17.294-0.97743 24.663-2.9322 7.4064-1.9926 14.85-5.1506 22.332-9.4742zm-60.905-117.67c-7.6031-0.27222-14.943 2.8061-20.076 8.4213-5.1507 5.6394-8.4967 13.647-10.076 24.099h56.77c-0.78954-11.241-3.3836-19.437-7.6695-24.663-4.3611-5.2636-10.677-7.8578-18.948-7.8578zm143.05 129.18c-9.2485 0-18.234-0.93995-26.919-2.7821-8.48-1.8098-16.71-4.6374-24.512-8.4216v-34.889c6.88 4.5116 14.512 8.0832 22.933 10.64 8.3462 2.5564 16.542 3.8347 24.663 3.8347 18.121 0 27.182-5.2632 27.182-15.715 0-4.5116-1.7294-7.8952-5.1506-10.151-3.4588-2.2558-9.3989-4.5116-17.896-6.7674-10.806-2.3531-21.284-6.0143-31.204-10.903-6.9443-3.3584-12.787-8.6274-16.843-15.189-3.6224-6.7228-5.3995-14.285-5.1505-21.918 0-10 2.594-18.61 7.8199-25.866 5.2257-7.2559 12.595-12.858 22.181-16.768 9.5493-3.9478 21.054-5.9026 34.438-5.9026 9.023 0 17.82 0.93995 26.317 2.8195 8.459 1.8799 16.053 4.662 22.745 8.4216v34.588c-6.1872-4.6838-13.147-8.2468-20.565-10.527-7.5964-2.4283-15.522-3.6712-23.497-3.6843-8.2711 0-14.775 1.2406-19.512 3.7217-4.6995 2.4437-7.068 6.1658-7.068 11.091-0.13974 2.6288 0.58692 5.2303 2.0678 7.4067 1.3534 1.8797 3.7596 3.4964 7.2183 4.9249 3.4588 1.4663 8.3463 3.0078 14.662 4.6242 12.595 3.158 22.745 6.7674 30.453 10.903 7.6695 4.1354 13.271 9.1733 16.843 15.151 3.534 6.0154 5.301 13.309 5.301 21.918 0 10.414-2.6317 19.324-7.9703 26.806-5.7459 7.7765-13.677 13.666-22.783 16.918-11.469 4.0733-23.587 6.0102-35.754 5.7144z" fill="#ff7c10" stroke-width="37.596"/>
 <path d="m132.13 337.19c8.512 0 15.867 1.344 21.84 4.032l1.456 0.63468v22.885l-3.808-2.5387c-2.8279-1.8481-5.9635-3.1757-9.2586-3.92-3.7603-0.85094-7.6063-1.2644-11.461-1.232-7.5413 0-14.859 2.0534-21.803 6.1227-7.2253 4.3906-13.456 10.24-18.293 17.173v113.49h-22.213v-154.04h19.04l1.68 17.995c5.1146-6.1973 10.827-10.976 16.949-14.298 7.7653-4.1813 16.427-6.3467 25.834-6.3467zm406.04-30.054c-4.035 0.13908-7.9498-1.3862-10.827-4.2186-2.8424-2.8732-4.381-6.7872-4.256-10.827 0-4.4053 1.456-8.0267 4.2933-10.752 2.9285-2.7313 6.8252-4.1824 10.827-4.032 4.48 0 8.2134 1.3439 11.05 4.032 2.8374 2.7254 4.2933 6.3467 4.2933 10.715 0.12952 4.0405-1.4099 7.9561-4.256 10.827-2.97 2.8813-6.9911 4.4196-11.126 4.256zm170.46 109.08c0-12.469-2.0534-23.408-6.1227-32.48-3.6128-8.4345-9.5739-15.653-17.173-20.795-7.8068-5.0146-16.931-7.5882-26.208-7.392-10.042 0-18.89 2.5013-26.246 7.392-7.6077 5.1489-13.57 12.381-17.173 20.832-4.2997 10.276-6.3859 21.343-6.1227 32.48 0 12.507 2.0534 23.595 6.1227 32.928 3.9947 9.184 9.7067 16.427 17.024 21.392 7.28 4.9653 16.165 7.4667 26.394 7.4667 10.192 0 19.04-2.5013 26.358-7.4667 7.2801-5.0027 13.029-12.208 17.024-21.392 4.2756-10.454 6.3596-21.674 6.1227-32.965zm13.888-42.186c5.8986 12.058 8.8853 26.246 8.8853 42.186 0 12.17-1.7173 23.333-5.1146 33.226-3.1383 9.4489-8.0832 18.198-14.56 25.76-6.2804 7.1992-14.103 12.891-22.885 16.651-9.4066 3.938-19.52 5.9073-29.717 5.7866-10.864 0-20.869-1.9414-29.755-5.7866-8.7808-3.7461-16.603-9.4248-22.885-16.613-6.4819-7.5583-11.427-16.308-14.56-25.76-3.5256-10.718-5.2539-21.945-5.1146-33.226 0-15.979 2.9867-30.165 8.8854-42.187 5.5418-11.641 14.332-21.43 25.312-28.187 10.827-6.5706 23.632-9.8934 38.08-9.8934 14.485 0 27.328 3.36 38.117 9.8934 10.827 6.5706 19.339 16.053 25.312 28.187zm-482.27 104.05c8.2134 0 15.979-1.792 23.146-5.3387 6.944-3.4347 13.365-8.5867 19.04-15.419v-94.714c-4.8337-2.3171-9.9028-4.107-15.12-5.3387-5.6081-1.1883-11.329-1.7641-17.061-1.7173-17.995 0-31.845 5.376-41.179 15.941-9.4453 10.64-14.186 26.282-14.186 46.517 0 19.301 3.9946 34.347 11.947 44.726 7.8773 10.341 18.816 15.306 33.413 15.306zm83.851-1.568c2.352-0.63468 4.8533-1.6053 7.4667-2.8747l3.5093-1.792v19.04l-1.0827 0.74667c-2.8423 1.8325-6.0112 3.1001-9.3333 3.7334-3.6386 0.72099-7.341 1.0712-11.05 1.0454-10.416 0-18.293-2.8747-23.445-8.5867-2.5254-2.9114-4.3855-6.3385-5.4507-10.042-12.469 13.178-28 19.861-46.219 19.861-13.515 0-25.424-3.248-35.355-9.632-10.186-6.6705-18.204-16.168-23.072-27.328-5.3014-11.574-8.0267-25.461-8.0267-41.216 0-16.949 3.0987-31.845 9.2214-44.24 6.16-12.507 15.083-22.288 26.507-29.045 11.349-6.7573 25.088-10.192 40.693-10.192 8.7733 0 17.659 1.0827 26.432 3.1733 9.73 2.4104 19.206 5.7483 28.299 9.968l1.456 0.63468v113.49c0 5.1893 0.97064 8.9227 2.912 11.088 1.8667 2.0534 5.04 3.1359 9.5573 3.1359 2.3598-0.0132 4.7074-0.33949 6.9814-0.97067zm133.88-110.88c-10.613-6.6559-22.902-10.152-35.429-10.08-11.797 0-21.952 2.5013-30.128 7.4667-8.2773 5.035-14.857 12.434-18.89 21.243-4.4053 9.3333-6.6453 20.757-6.6453 34.011 0 19.339 4.1067 34.347 12.245 44.576 8.1014 10.229 19.526 15.232 34.907 15.232 16.725 0 31.51-7.0933 43.941-21.094zm41.626 110.88c2.3892-0.63468 4.8533-1.6053 7.4667-2.8747l3.5467-1.792v19.04l-1.12 0.74667c-2.8428 1.8317-6.0115 3.0992-9.3333 3.7334-3.6387 0.72099-7.3411 1.0712-11.05 1.0454-10.416 0-18.293-2.8747-23.445-8.5867-2.5968-2.9929-4.4967-6.525-5.5627-10.341-13.142 13.365-29.232 20.16-47.824 20.16-13.925 0-26.133-3.248-36.362-9.632-10.375-6.5371-18.604-15.974-23.67-27.141-5.4133-11.536-8.176-25.387-8.176-41.104 0-12.544 1.8294-24.08 5.4134-34.272 3.6214-10.229 8.8107-19.152 15.493-26.507 6.6452-7.3921 14.784-13.142 24.192-17.061 22.336-9.0406 47.529-7.7283 68.805 3.584v-75.264h22.213v193.16c0 5.152 0.97067 8.8107 2.8747 10.939 1.8667 2.0534 5.0773 3.136 9.5946 3.136 2.3474-0.0165 4.6822-0.34275 6.944-0.97064zm69.253 0c2.3893-0.59734 4.8533-1.6053 7.4667-2.8747l3.5466-1.792v19.04l-1.12 0.74667c-2.8419 1.8334-6.0109 3.101-9.3333 3.7334-3.6266 0.71855-7.3166 1.0688-11.014 1.0454-10.454 0-18.331-2.8747-23.483-8.5867-5.0773-5.6001-7.6533-14.186-7.6533-25.461v-122.57h22.138v123.42c0 5.2267 0.97067 8.96 2.912 11.126 1.8667 2.0534 5.0773 3.136 9.5946 3.136 2.3473-0.0165 4.6822-0.34275 6.9439-0.97067z" fill="#ff7c10" stroke-width="37.334"/>
 <g transform="matrix(1.3115 0 0 1.3115 -252.54 -458.03)" fill="#ff7c10">
  <g transform="matrix(1.8491,0,0,1.8282,170,-1373.3)" fill="#ff7c10">
   <g transform="matrix(.82302 0 0 -.82302 189.64 997.28)">
    <path d="m0 0c0-11.25-14-10.583-14-10.583h-14v20.333h14c14.417 0.083 14-9.75 14-9.75m-28 40.75h10.667c11.083-0.584 10.666-8.833 10.666-8.833 0-10.25-12.25-10.417-12.25-10.417h-9.083zm25.417-23.25s9.583 4.083 9.5 14.917c0 0 1.457 17.749-22.063 19.916h-26.104v-74.416h29.917s25-0.084 25 21c0 0 0.583 14.333-16.25 18.583m-67.545 49.416h109.88v-103.54h-109.88z" fill="#ff7c10"/>
   </g>
   <g transform="matrix(.82302 0 0 -.82302 85.355 997.28)">
    <path d="m0 0c0-11.25-14-10.583-14-10.583h-14v20.333h14c14.417 0.083 14-9.75 14-9.75m-28 40.75h10.667c11.083-0.584 10.666-8.833 10.666-8.833 0-10.25-12.25-10.417-12.25-10.417h-9.083zm25.417-23.25s9.583 4.083 9.5 14.917c0 0 1.457 17.749-22.063 19.916h-26.104v-74.416h29.917s25-0.084 25 21c0 0 0.583 14.333-16.25 18.583m-67.545 49.416h109.88v-103.54h-109.88z" fill="#ff7c10"/>
   </g>
   <g transform="matrix(.82302 0 0 -.82302 308.19 958.6)">
    <path d="m0 0v-13.75s-13.417 8.25-28.25 8.417c0 0-27.666 0.54-28.916-26.522 0 0-1-24.895 28.583-26.312 0 0 12.417-1.5 29.25 9.25v-14.25s-22.583-13.416-48.75-3.083c0 0-22 8.04-22.834 34.395 0 0-0.917 27.105 28.417 36.105 0 0 7.834 3 21.917 1.667 0 0 8.416-0.834 20.583-5.917m-87.461-83.627h109.88v103.54h-109.88z" fill="#ff7c10"/>
   </g>
  </g>
 </g>
</svg>
