<svg width="1e3" height="330.07" version="1.1" viewBox="0 0 1e3 330.07" xmlns="http://www.w3.org/2000/svg">
 <path d="m212.55 324.93a41.913 41.913 0 0 0 19.48-14.85 40.109 40.109 0 0 0 6.7498-23.431 39.024 39.024 0 0 0-3.5668-17.55 31.745 31.745 0 0 0-10.03-11.766 59.494 59.494 0 0 0-14.945-7.6167q-8.4873-2.9901-18.323-5.4972-7.7122-1.9248-13.4-3.9544a22.527 22.527 0 0 1-8.7775-5.2033 11.803 11.803 0 0 1-3.0856-8.5828 12.894 12.894 0 0 1 6.4633-11.575q6.4559-4.0517 18.222-4.048a82.192 82.192 0 0 1 21.506 2.8909 72.848 72.848 0 0 1 19.188 8.0998v-26.228a87.959 87.959 0 0 0-19.092-6.748 93.645 93.645 0 0 0-21.599-2.5071 74.432 74.432 0 0 0-28.928 5.1096 42.426 42.426 0 0 0-18.802 14.561 38.181 38.181 0 0 0-6.6543 22.564 37.597 37.597 0 0 0 3.0838 15.911 30.955 30.955 0 0 0 9.064 11.376 58.498 58.498 0 0 0 14.657 8.1971 143.23 143.23 0 0 0 20.057 6.1712 129.45 129.45 0 0 1 12.537 3.7597 24.059 24.059 0 0 1 8.9667 5.4017 12.646 12.646 0 0 1 3.3758 9.3524 13.946 13.946 0 0 1-6.8472 12.342q-6.8472 4.4411-19.959 4.4356a82.926 82.926 0 0 1-43.777-12.535v26.614a85.797 85.797 0 0 0 21.309 7.9088 101.77 101.77 0 0 0 22.468 2.5071 82.307 82.307 0 0 0 30.662-5.1115zm134.03-1.9285a47.8 47.8 0 0 0 20.345-20.347q7.0382-13.305 7.0418-32.013v-81.383h-29.703v84.664q0 14.657-7.6167 22.468-7.6222 7.8077-21.697 7.8059-14.08 0-21.695-7.8059-7.6222-7.8132-7.6204-22.468v-84.664h-29.697v81.383q0 18.708 7.0382 32.013a47.947 47.947 0 0 0 20.249 20.349q13.208 7.0345 31.725 7.0382a66.82 66.82 0 0 0 31.63-7.0382zm121.5 1.9285a41.913 41.913 0 0 0 19.478-14.85 40.109 40.109 0 0 0 6.7498-23.431 39.024 39.024 0 0 0-3.5668-17.55 31.745 31.745 0 0 0-10.03-11.766 59.494 59.494 0 0 0-14.945-7.6167q-8.4873-2.9901-18.323-5.4972-7.7122-1.9248-13.4-3.9544a22.527 22.527 0 0 1-8.7775-5.2033 11.803 11.803 0 0 1-3.0856-8.5828 12.894 12.894 0 0 1 6.4633-11.575q6.4559-4.0517 18.222-4.048a82.192 82.192 0 0 1 21.506 2.8909 72.848 72.848 0 0 1 19.188 8.0998v-26.228a87.959 87.959 0 0 0-19.092-6.748 93.645 93.645 0 0 0-21.599-2.5071 74.432 74.432 0 0 0-28.928 5.1096 42.426 42.426 0 0 0-18.802 14.561 38.181 38.181 0 0 0-6.6543 22.564 37.597 37.597 0 0 0 3.0838 15.911 30.955 30.955 0 0 0 9.064 11.376 58.498 58.498 0 0 0 14.657 8.1971 143.23 143.23 0 0 0 20.057 6.1712 129.45 129.45 0 0 1 12.537 3.7597 24.059 24.059 0 0 1 8.9667 5.4017 12.646 12.646 0 0 1 3.3758 9.3524 13.946 13.946 0 0 1-6.8472 12.342q-6.8472 4.4411-19.959 4.4356a82.926 82.926 0 0 1-43.777-12.535v26.614a85.797 85.797 0 0 0 21.309 7.9088 101.77 101.77 0 0 0 22.468 2.5071 82.307 82.307 0 0 0 30.662-5.1115zm116.67 0a41.913 41.913 0 0 0 19.478-14.85 40.109 40.109 0 0 0 6.7516-23.431 39.024 39.024 0 0 0-3.5687-17.55 31.745 31.745 0 0 0-10.028-11.766 59.494 59.494 0 0 0-14.947-7.6167q-8.4855-2.9901-18.323-5.4972-7.7122-1.9248-13.4-3.9544a22.527 22.527 0 0 1-8.7757-5.2033 11.803 11.803 0 0 1-3.0856-8.5828 12.894 12.894 0 0 1 6.4614-11.575q6.4578-4.0517 18.224-4.048a82.192 82.192 0 0 1 21.504 2.8909 72.848 72.848 0 0 1 19.188 8.0998v-26.228a87.959 87.959 0 0 0-19.09-6.748 93.645 93.645 0 0 0-21.601-2.5071 74.432 74.432 0 0 0-28.928 5.1096 42.426 42.426 0 0 0-18.802 14.561 38.181 38.181 0 0 0-6.6525 22.564 37.597 37.597 0 0 0 3.082 15.911 30.955 30.955 0 0 0 9.064 11.376 58.498 58.498 0 0 0 14.657 8.1971 143.23 143.23 0 0 0 20.058 6.1712 129.45 129.45 0 0 1 12.535 3.7597 24.059 24.059 0 0 1 8.9667 5.4017 12.646 12.646 0 0 1 3.3776 9.3524 13.946 13.946 0 0 1-6.8472 12.342q-6.849 4.4411-19.961 4.4356a82.926 82.926 0 0 1-43.775-12.535v26.614a85.797 85.797 0 0 0 21.307 7.9088 101.77 101.77 0 0 0 22.468 2.5071 82.307 82.307 0 0 0 30.663-5.1115zm45.513 2.2169h98.547v-24.683h-68.848v-33.942h57.855v-24.689h-57.855v-29.89h65.184v-24.685h-94.883zm239.71 0q-11.384-18.121-23.337-36.063-11.957-17.935-24.297-35.676 11.376-16.392 22.275-32.979 10.891-16.585 21.502-33.17h-34.522q-6.3641 11.571-13.114 22.852-6.7498 11.281-13.691 22.081-7.1392-10.989-13.788-22.273-6.6561-11.281-13.02-22.659h-35.29q10.412 16.585 21.405 33.363 10.994 16.782 22.565 33.17-12.728 17.935-24.494 35.679-11.764 17.744-23.335 35.676h34.522q6.9427-12.728 14.657-25.456 7.7086-12.726 16.007-25.456 8.0998 12.539 15.814 25.264 7.7086 12.728 14.848 25.649z" fill="#542582" stroke-width="1.8367"/>
 <path d="m0 0.0018367v137.75h137.75v-137.75zm95.373 97.216a22.507 22.507 0 0 1-10.061 7.6939 40.91 40.91 0 0 1-15.7 2.7091h-30.869v-77.486h29.078q12.853 0 19.913 5.1482a17.197 17.197 0 0 1 7.0602 14.793 17.779 17.779 0 0 1-2.5291 9.5912 17.415 17.415 0 0 1-7.4808 6.4468 20.655 20.655 0 0 1 10.484 7.2071 19.623 19.623 0 0 1 3.6348 11.975 20.093 20.093 0 0 1-3.5301 11.92zm-19.702-37.878a9.0971 9.0971 0 0 0 3.2142-7.4239q0-9.2091-12.539-9.211h-11.905v19.289h11.905a14.308 14.308 0 0 0 9.3248-2.654zm-7.3228 14.793h-13.907v20.916h13.696a18.784 18.784 0 0 0 10.853-2.6558 8.7555 8.7555 0 0 0 3.7927-7.6406q0-10.62-14.436-10.62zm103.84-74.132v137.75h137.75v-137.75zm95.373 97.216a22.507 22.507 0 0 1-10.061 7.6939 40.91 40.91 0 0 1-15.7 2.7091h-30.869v-77.486h29.078q12.853 0 19.913 5.1482a17.197 17.197 0 0 1 7.0602 14.793 17.779 17.779 0 0 1-2.5291 9.5912 17.415 17.415 0 0 1-7.4808 6.4468 20.655 20.655 0 0 1 10.484 7.2071 19.623 19.623 0 0 1 3.6348 11.975 20.093 20.093 0 0 1-3.5301 11.92zm-19.702-37.876a9.0971 9.0971 0 0 0 3.2142-7.4239q0-9.2091-12.539-9.211h-11.905v19.289h11.905a14.308 14.308 0 0 0 9.3248-2.654zm-7.3229 14.793h-13.907v20.916h13.696a18.784 18.784 0 0 0 10.853-2.6558 8.7555 8.7555 0 0 0 3.7928-7.6406q0-10.62-14.436-10.62zm103.84 63.619h137.75v-137.75h-137.75zm98.935-35.044a44.953 44.953 0 0 1-11.156 4.195 56.434 56.434 0 0 1-13.344 1.5428 48.65 48.65 0 0 1-16.732-2.7109 34.177 34.177 0 0 1-12.579-7.8059 33.828 33.828 0 0 1-7.8738-12.482 47.601 47.601 0 0 1-2.7367-16.622 44.457 44.457 0 0 1 2.8469-16.306 34.827 34.827 0 0 1 8.2008-12.482 36.128 36.128 0 0 1 12.851-7.9657 48.274 48.274 0 0 1 16.787-2.7624 54.055 54.055 0 0 1 12.196 1.3279 45.296 45.296 0 0 1 10.664 3.8754v15.085a35.738 35.738 0 0 0-9.7344-4.5146 39.068 39.068 0 0 0-11.046-1.5391 28.838 28.838 0 0 0-13.617 2.9754 20.369 20.369 0 0 0-8.6398 8.603 28.744 28.744 0 0 0-3.0066 13.702 29.971 29.971 0 0 0 2.8983 13.757 19.799 19.799 0 0 0 8.4212 8.6563 27.918 27.918 0 0 0 13.397 2.9754 41.518 41.518 0 0 0 22.202-6.2686zm116-19.72v37.555h-21.956v-103.28h37.7q20.367 0 31.273 8.5222 10.903 8.524 10.904 24.41a29.286 29.286 0 0 1-18.633 28.601q6.5 10.258 12.857 20.584 6.3549 10.328 12.71 21.16h-25.567q-10.399-19.065-21.522-37.555zm0-17.478h14.446q10.254 0 15.599-3.6844 5.3429-3.6825 5.3447-11.626 0-7.9418-5.2731-11.7-5.2731-3.7542-15.527-3.756h-14.589zm152.53 55.033q-3.7578-11.408-7.512-22.389h-41.887q-3.7579 11.125-7.512 22.389h-23.833q9.8207-27.154 20.007-53.01 10.183-25.853 20.582-50.266h23.978q10.688 25.714 20.872 51.638 10.181 25.928 19.717 51.638zm-43.043-40.877h29.032q-3.4677-10.109-7.1502-20.148-3.6844-10.039-7.2953-19.719-7.512 19.792-14.587 39.867zm80.019-62.399h39.434a59.747 59.747 0 0 1 27.949 6.0666 40.995 40.995 0 0 1 17.695 17.549 58.858 58.858 0 0 1 6.0666 27.807 59.165 59.165 0 0 1-6.1382 27.949 41.74 41.74 0 0 1-17.695 17.766 59.042 59.042 0 0 1-28.022 6.1382h-39.288zm38.133 84.212q14.442 0 22.172-8.4524 7.7232-8.4487 7.7269-24.336 0-15.744-7.5837-24.051-7.5818-8.3036-22.172-8.3055h-16.031v65.143zm70.63-84.212h22.246v103.28h-22.246zm91.145-2.1673a56.937 56.937 0 0 1 21.159 3.756 45.237 45.237 0 0 1 16.181 10.761 47.745 47.745 0 0 1 10.324 16.899 70.547 70.547 0 0 1 0 44.562 48.323 48.323 0 0 1-10.326 17.044 44.736 44.736 0 0 1-16.178 10.833 61.492 61.492 0 0 1-42.321 0 44.71 44.71 0 0 1-16.179-10.833 48.294 48.294 0 0 1-10.328-17.044 70.547 70.547 0 0 1 0-44.562 47.717 47.717 0 0 1 10.328-16.899 45.212 45.212 0 0 1 16.179-10.761 56.922 56.922 0 0 1 21.158-3.756zm0 88.256a27.297 27.297 0 0 0 15.166-4.1178 25.868 25.868 0 0 0 9.6793-11.773 53.929 53.929 0 0 0 0-37.266 25.436 25.436 0 0 0-9.6793-11.7 30.456 30.456 0 0 0-30.333 0 25.401 25.401 0 0 0-9.6775 11.7 53.907 53.907 0 0 0 0 37.266 25.831 25.831 0 0 0 9.6775 11.773 27.284 27.284 0 0 0 15.167 4.1178z" stroke-width="1.8367"/>
</svg>
