<svg width="1e3" height="330.04" version="1.1" viewBox="0 0 1e3 330.04" xmlns="http://www.w3.org/2000/svg">
 <path d="m336.37 232.27q12.917-21.408 25.456-43.006h-32.979q-8.0998 15.235-16.392 30.373-8.2945 15.145-16.971 30.184-8.4873-14.848-16.875-30.089-8.3863-15.23-16.293-30.471h-33.749q12.337 21.605 25.264 43.008 12.917 21.407 26.421 42.62v52.263h29.697v-52.263q13.5-21.212 26.423-42.62zm64.124-40.885a60.287 60.287 0 0 0-21.601 14.368 63.681 63.681 0 0 0-13.79 22.562 94.187 94.187 0 0 0 0 59.497 64.473 64.473 0 0 0 13.79 22.756 59.685 59.685 0 0 0 21.599 14.462 82.089 82.089 0 0 0 56.507 0 59.722 59.722 0 0 0 21.599-14.464 64.512 64.512 0 0 0 13.788-22.756 94.187 94.187 0 0 0 0-59.496 63.72 63.72 0 0 0-13.79-22.562 60.324 60.324 0 0 0-21.599-14.367 82.089 82.089 0 0 0-56.504 0zm8.0006 107.32a34.487 34.487 0 0 1-12.919-15.716 71.974 71.974 0 0 1 0-49.758 33.909 33.909 0 0 1 12.919-15.621 40.651 40.651 0 0 1 40.499 0 33.96 33.96 0 0 1 12.923 15.621 72.014 72.014 0 0 1 0 49.756 34.542 34.542 0 0 1-12.921 15.718 40.065 40.065 0 0 1-40.499 0zm157.37-21.695h2.8946q14.848 24.685 28.735 50.14h34.137q-8.4873-14.464-16.971-28.25-8.4928-13.786-17.166-27.484a41.399 41.399 0 0 0 18.418-14.848 40.954 40.954 0 0 0 6.4633-23.337q0-21.212-14.565-32.592-14.565-11.376-41.753-11.378h-50.331v137.89h29.313v-50.141zm-20.828-64.416h19.48q13.689 0 20.731 5.0141 7.0382 5.0178 7.04 15.623 0 10.609-7.1374 15.524-7.1355 4.9186-20.828 4.9186h-19.285zm165.47 85.051q12.151 14.464 24.301 29.504h37.799q-15.818-18.896-31.339-36.93-15.525-18.031-31.337-35.966 14.846-16.392 29.121-32.498 14.271-16.099 28.156-32.495h-35.679q-10.989 13.5-22.273 26.516-11.279 13.02-23.622 26.902h-7.7177v-53.418h-29.697v137.89h29.699v-59.398h7.1374q13.305 15.428 25.453 29.894z" fill="#fff" stroke-width="1.8367"/>
 <path d="m0 0.0018367v137.75h137.75v-137.75zm95.373 97.216a22.507 22.507 0 0 1-10.061 7.6939 40.91 40.91 0 0 1-15.7 2.7091h-30.869v-77.486h29.078q12.853 0 19.913 5.1482a17.197 17.197 0 0 1 7.0602 14.793 17.779 17.779 0 0 1-2.5291 9.5912 17.415 17.415 0 0 1-7.4808 6.4468 20.655 20.655 0 0 1 10.484 7.2071 19.623 19.623 0 0 1 3.6348 11.975 20.093 20.093 0 0 1-3.5301 11.92zm-19.702-37.878a9.0971 9.0971 0 0 0 3.2142-7.4239q0-9.2091-12.539-9.211h-11.905v19.289h11.905a14.308 14.308 0 0 0 9.3248-2.654zm-7.3228 14.793h-13.907v20.916h13.696a18.784 18.784 0 0 0 10.853-2.6558 8.7555 8.7555 0 0 0 3.7927-7.6406q0-10.62-14.436-10.62zm103.84-74.132v137.75h137.75v-137.75zm95.373 97.216a22.507 22.507 0 0 1-10.061 7.6939 40.91 40.91 0 0 1-15.7 2.7091h-30.869v-77.486h29.078q12.853 0 19.913 5.1482a17.197 17.197 0 0 1 7.0602 14.793 17.779 17.779 0 0 1-2.5291 9.5912 17.415 17.415 0 0 1-7.4808 6.4468 20.655 20.655 0 0 1 10.484 7.2071 19.623 19.623 0 0 1 3.6348 11.975 20.093 20.093 0 0 1-3.5301 11.92zm-19.702-37.876a9.0971 9.0971 0 0 0 3.2142-7.4239q0-9.2091-12.539-9.211h-11.905v19.289h11.905a14.308 14.308 0 0 0 9.3248-2.654zm-7.3229 14.793h-13.907v20.916h13.696a18.784 18.784 0 0 0 10.853-2.6558 8.7555 8.7555 0 0 0 3.7928-7.6406q0-10.62-14.436-10.62zm103.84 63.619h137.75v-137.75h-137.75zm98.935-35.044a44.953 44.953 0 0 1-11.156 4.195 56.434 56.434 0 0 1-13.344 1.5428 48.65 48.65 0 0 1-16.732-2.7109 34.177 34.177 0 0 1-12.579-7.8059 33.828 33.828 0 0 1-7.8738-12.482 47.601 47.601 0 0 1-2.7367-16.622 44.457 44.457 0 0 1 2.8469-16.306 34.827 34.827 0 0 1 8.2008-12.482 36.128 36.128 0 0 1 12.851-7.9657 48.274 48.274 0 0 1 16.787-2.7624 54.055 54.055 0 0 1 12.196 1.3279 45.296 45.296 0 0 1 10.664 3.8754v15.085a35.738 35.738 0 0 0-9.7344-4.5146 39.068 39.068 0 0 0-11.046-1.5391 28.838 28.838 0 0 0-13.617 2.9754 20.369 20.369 0 0 0-8.6398 8.603 28.744 28.744 0 0 0-3.0066 13.702 29.971 29.971 0 0 0 2.8983 13.757 19.799 19.799 0 0 0 8.4212 8.6563 27.918 27.918 0 0 0 13.397 2.9754 41.518 41.518 0 0 0 22.202-6.2686zm116-19.72v37.555h-21.956v-103.28h37.7q20.367 0 31.273 8.5222 10.903 8.524 10.904 24.41a29.286 29.286 0 0 1-18.633 28.601q6.5 10.258 12.857 20.584 6.3549 10.328 12.71 21.16h-25.567q-10.399-19.065-21.522-37.555zm0-17.478h14.446q10.254 0 15.599-3.6844 5.3429-3.6825 5.3447-11.626 0-7.9418-5.2731-11.7-5.2731-3.7542-15.527-3.756h-14.589zm152.53 55.033q-3.7578-11.408-7.512-22.389h-41.887q-3.7579 11.125-7.512 22.389h-23.833q9.8207-27.154 20.007-53.01 10.183-25.853 20.582-50.266h23.978q10.688 25.714 20.872 51.638 10.181 25.928 19.717 51.638zm-43.043-40.877h29.032q-3.4677-10.109-7.1502-20.148-3.6844-10.039-7.2953-19.719-7.512 19.792-14.587 39.867zm80.019-62.399h39.434a59.747 59.747 0 0 1 27.949 6.0666 40.995 40.995 0 0 1 17.695 17.55 58.858 58.858 0 0 1 6.0666 27.807 59.165 59.165 0 0 1-6.1382 27.949 41.74 41.74 0 0 1-17.695 17.766 59.042 59.042 0 0 1-28.022 6.1382h-39.288zm38.133 84.212q14.442 0 22.172-8.4524 7.7232-8.4487 7.7269-24.336 0-15.744-7.5837-24.051-7.5818-8.3036-22.172-8.3055h-16.031v65.143zm70.63-84.212h22.246v103.28h-22.246zm91.145-2.1673a56.937 56.937 0 0 1 21.159 3.756 45.237 45.237 0 0 1 16.181 10.761 47.745 47.745 0 0 1 10.324 16.899 70.547 70.547 0 0 1 0 44.562 48.323 48.323 0 0 1-10.326 17.044 44.736 44.736 0 0 1-16.178 10.833 61.492 61.492 0 0 1-42.321 0 44.71 44.71 0 0 1-16.179-10.833 48.294 48.294 0 0 1-10.328-17.044 70.547 70.547 0 0 1 0-44.562 47.717 47.717 0 0 1 10.328-16.899 45.212 45.212 0 0 1 16.179-10.761 56.922 56.922 0 0 1 21.158-3.756zm0 88.256a27.297 27.297 0 0 0 15.166-4.1178 25.868 25.868 0 0 0 9.6793-11.773 53.929 53.929 0 0 0 0-37.266 25.436 25.436 0 0 0-9.6793-11.7 30.456 30.456 0 0 0-30.333 0 25.401 25.401 0 0 0-9.6775 11.7 53.907 53.907 0 0 0 0 37.266 25.831 25.831 0 0 0 9.6775 11.773 27.284 27.284 0 0 0 15.167 4.1178z" fill="#fff" stroke-width="1.8367"/>
</svg>
