<svg width="1e3" height="322.99" version="1.1" viewBox="0 0 264.58 85.458" xmlns="http://www.w3.org/2000/svg">
 <g transform="translate(225.83 -980.8)" fill="#542583">
  <path d="m-143.64 1002.6c0 3.6583-4.5525 3.4411-4.5525 3.4411h-4.5525v-6.6103h4.5525c4.685-.0327 4.5525 3.1692 4.5525 3.1692m-9.1046-13.251h3.469c3.6023.1902 3.4663 2.8721 3.4663 2.8721 0 3.3329-3.9831 3.3872-3.9831 3.3872h-2.9522zm8.2629 7.5593s3.116-1.3276 3.0883-4.8497c0 0 .47389-5.7719-7.1734-6.4757h-8.4856v24.197h9.7262s8.1271.023 8.1271-6.8274c-.00013 0 .19182-4.6626-5.2829-6.0441m-21.961-16.067h35.726v33.666h-35.726zm-18.396 21.758c0 3.6583-4.5525 3.4411-4.5525 3.4411h-4.5528v-6.6103h4.5528c4.6854-.0344 4.5525 3.1692 4.5525 3.1692m-9.1054-13.251h3.4697c3.6024.1902 3.4661 2.8721 3.4661 2.8721 0 3.333-3.983 3.3872-3.983 3.3872h-2.9528zm8.2636 7.5594s3.1166-1.3278 3.0885-4.8497c0 0 .47355-5.772-7.1737-6.476h-8.486v24.197h9.7272s8.1269.023 8.1269-6.8273c0 0 .19095-4.6626-5.2829-6.0442m-21.961-16.067h35.726v33.666h-35.726zm110.84 6.4762v4.4703s-4.3637-2.6816-9.1858-2.7356c0 0-8.9967-.17629-9.4016 8.6234 0 0-.32492 8.0931 9.2938 8.5543 0 0 4.0356.486 9.5103-3.0053v4.6299s-7.344 4.3632-15.851 1.0025c0 0-7.1517-2.6115-7.424-11.181 0 0-.29748-8.8142 9.241-11.74 0 0 2.5471-.97505 7.1243-.54162.00013-.00017 2.7358.27073 6.6944 1.9232m-28.438 27.19h35.726v-33.666h-35.726z"/>
  <path d="m-77.384 999.88v9.7582h-3.3206v-24.227h7.827q4.6082 0 7.0479 1.8972 2.4735 1.8638 2.4735 5.3537 0 2.4397-1.3214 4.1339-1.3214 1.6943-3.7611 2.4734 3.3883 5.0488 6.5396 10.369h-3.8966q-1.4232-2.5075-2.914-4.9133-1.457-2.4395-3.0496-4.8791-.54211.0344-1.152.0344zm0-2.7106h4.2354q3.219 0 4.8115-1.1183 1.5926-1.1181 1.5926-3.3884 0-4.5404-6.3701-4.5404h-4.2693z"/>
  <path d="m-40.214 1009.6q-.60988-1.6603-1.2198-3.2866-.57604-1.6265-1.1859-3.2528h-11.385q-1.2198 3.2189-2.4057 6.5394h-3.49q2.4057-6.3702 4.8453-12.436 2.4735-6.0652 5.0147-11.791h3.5239q2.6429 6.065 5.0825 12.13 2.4735 6.0652 4.8115 12.097zm-12.707-9.386h9.2159q-1.152-2.9477-2.304-5.828-1.152-2.8801-2.3041-5.7264-1.1859 2.8801-2.3379 5.7604-1.1521 2.88-2.2703 5.794z"/>
  <path d="m-33.977 985.42h8.437q3.7272 0 6.4039 1.4229 2.7106 1.3893 4.1338 4.066 1.457 2.6768 1.457 6.5396 0 3.8627-1.457 6.6075-1.4232 2.7105-4.1338 4.1676-2.6768 1.4229-6.4379 1.4229h-8.403zm8.1659 21.38q4.2016 0 6.4718-2.3717 2.3041-2.3719 2.3041-6.9802 0-4.5402-2.2702-6.8443-2.2363-2.338-6.4718-2.338h-4.8453v18.534z"/>
  <path d="m-9.7592 985.42h3.3545v24.227h-3.3545z"/>
  <path d="m9.1537 984.91q2.6429 0 4.7775.88109 2.1686.88094 3.6933 2.5412 1.5586 1.6604 2.3719 3.9984.81319 2.304.81319 5.1841 0 2.8801-.84707 5.2178-.81319 2.3041-2.3379 3.9645-1.5248 1.6604-3.6933 2.5752-2.1347.8811-4.7775.8811-2.6429 0-4.8114-.8811-2.1347-.9148-3.6595-2.5752-1.5247-1.6604-2.3718-3.9645-.81323-2.3377-.81323-5.2178 0-2.8801.81323-5.1841.81317-2.338 2.338-3.9984 1.5586-1.6602 3.6933-2.5412 2.1685-.88109 4.8114-.88109zm0 22.33q2.5413 0 4.371-1.1522 1.8297-1.1859 2.8124-3.3545.98263-2.2025.98263-5.218 0-3.0157-.98263-5.1841-.9827-2.1686-2.8124-3.3206-1.8297-1.1859-4.371-1.1859-2.5413 0-4.371 1.1859-1.8297 1.152-2.8123 3.3206-.98263 2.1684-.98263 5.1841 0 3.0155.98263 5.218.98261 2.1686 2.8123 3.3545 1.8297 1.1522 4.371 1.1522z"/>
  <g transform="matrix(1.3112 0 0 1.3112 -1410.3 236.28)" aria-label="Lancashire">
   <path d="m903.32 603.85h7.8v21.88h12.72v6.72h-20.52z"/>
   <path d="m943.88 632.85q-3.56 0-4.64-2.08-1.24 1.08-2.68 1.64t-3.16.56q-2.08 0-3.56-.76-1.44-.76-2.24-2.12-.8-1.4-.8-3.36 0-3.2 2.44-4.92 2.48-1.72 7.12-1.72.52 0 1.08.04t1.12.12v-.32q0-1.64-.92-2.4-.88-.76-2.92-.76-1.76 0-3.32.48-1.52.48-3 1.48v-6q3.6-1.64 7.48-1.64 4.84 0 7.32 2.28 2.48 2.24 2.48 6.64v6.64q0 .68.2 1t.76.32 1-.28v4.32q-.76.4-1.76.6-.96.24-2 .24zm-10-6.84q0 1.92 2.16 1.92 1.4 0 2.52-1.12v-2.8q-.8-.16-1.64-.16-1.56 0-2.32.52-.72.52-.72 1.64z"/>
   <path d="m960.45 617.13q-1.68 0-2.76 1.36v13.96h-7.48v-20.84h6.4l.36 2.44q2.48-2.96 6.08-2.96 3.4 0 5.2 2.12 1.84 2.12 1.84 6.12v13.12h-7.48v-12.88q0-2.44-2.16-2.44z"/>
   <path d="m983.99 632.97q-3.6 0-6.12-1.28-2.48-1.28-3.8-3.72-1.32-2.48-1.32-5.96 0-2.48.8-4.48.8-2.04 2.32-3.48t3.6-2.2q2.12-.76 4.76-.76 1.48 0 2.84.32 1.4.28 2.6.8v6.24q-1-.68-2.12-1-1.08-.32-2.28-.32-2.36 0-3.68 1.28-1.28 1.28-1.28 3.6 0 2.36 1.28 3.64t3.56 1.28q1.28 0 2.44-.28 1.16-.32 2.36-1.08v6.12q-1.28.68-2.8.96-1.48.32-3.16.32z"/>
   <path d="m1009.3 632.85q-3.56 0-4.64-2.08-1.24 1.08-2.68 1.64t-3.16.56q-2.08 0-3.56-.76-1.44-.76-2.24-2.12-.8-1.4-.8-3.36 0-3.2 2.44-4.92 2.48-1.72 7.12-1.72.52 0 1.08.04t1.12.12v-.32q0-1.64-.92-2.4-.88-.76-2.92-.76-1.76 0-3.32.48-1.52.48-3 1.48v-6q3.6-1.64 7.48-1.64 4.84 0 7.32 2.28 2.48 2.24 2.48 6.64v6.64q0 .68.2 1t.76.32 1-.28v4.32q-.76.4-1.76.6-.96.24-2 .24zm-10-6.84q0 1.92 2.16 1.92 1.4 0 2.52-1.12v-2.8q-.8-.16-1.64-.16-1.56 0-2.32.52-.71996.52-.71996 1.64z"/>
   <path d="m1022.4 632.97q-3.84 0-7.2-1.4v-5.68q1.52.88 3.2 1.36t3.2.48q1.56 0 2.28-.36.76-.36.76-1.08 0-.68-.68-.96-.68-.32-1.68-.56-2.68-.64-4.32-1.48-1.6-.84-2.32-2.12t-.72-3.16q0-2.12 1.08-3.68 1.12-1.56 3.2-2.4t4.96-.84q1.88 0 3.68.4 1.8.36 3.28 1.08v5.64q-1.28-.88-2.92-1.36-1.6-.52-3.12-.52-1.4 0-2.2.36-.76.36-.76 1.04 0 .4.2.68.24.24.76.44.56.16 1.52.4 2.6.56 4.2 1.44 1.64.84 2.36 2.12.76 1.28.76 3.12 0 2.28-1.16 3.88-1.12 1.56-3.24 2.36t-5.12.8z"/>
   <path d="m1044.9 617.13q-1.68 0-2.76 1.36v13.96h-7.48v-29.8h7.48v10.64q2.24-2.2 5.36-2.2 3.4 0 5.2 2.12 1.84 2.12 1.84 6.12v13.12h-7.48v-12.88q0-2.44-2.16-2.44z"/>
   <path d="m1062 602.13q1.96 0 3.08.96 1.12.92 1.12 2.64t-1.12 2.68q-1.12.92-3.08.92t-3.08-.92q-1.08-.96-1.08-2.68t1.08-2.64q1.12-.96 3.08-.96zm-3.72 9.48h7.48v20.84h-7.48z"/>
   <path d="m1081.7 617.65q-1.44 0-2.52.52t-2 1.64v12.64h-7.48v-20.84h6.4l.48 3.32q2.04-3.68 5.32-3.68 1.36 0 2.4.52v6.56q-.52-.36-1.2-.52-.64-.16-1.4-.16z"/>
   <path d="m1104.2 631.61q-1.6.68-3.44 1-1.8.36-3.96.36-3.64 0-6.2-1.28-2.52-1.28-3.84-3.68-1.32-2.44-1.32-5.96 0-2.52.72-4.52.72-2.04 2.08-3.48t3.24-2.2q1.92-.76 4.28-.76 3 0 5.08 1.24 2.12 1.24 3.2 3.64t1.08 5.8v1.76h-12.6q.32 2.12 1.6 3 1.28.84 3.88.84 1.8 0 3.24-.32 1.48-.36 2.96-1.16zm-8.52-15.44q-2.6 0-3.12 3.48h5.84q-.16-1.84-.84-2.64-.64-.84-1.88-.84z"/>
  </g>
 </g>
</svg>
