<svg width="1e3" height="391.34" version="1.1" viewBox="0 0 264.58 103.54" xmlns="http://www.w3.org/2000/svg">
 <g transform="translate(-292.18 -2282.7)" fill="#542583">
  <path d="m366.3 2307.9c0 4.2374-5.2727 3.9858-5.2727 3.9858h-5.2726v-7.6556h5.2726c5.4261-.038 5.2727 3.6698 5.2727 3.6698m-10.545-15.347h4.0177c4.1721.2224 4.0146 3.3273 4.0146 3.3273 0 3.8607-4.6131 3.9228-4.6131 3.9228h-3.4192zm9.5701 8.7562s3.6089-1.5384 3.5767-5.6176c0 0 .54888-6.6846-8.3081-7.4997h-9.8279v28.024h11.265s9.4127.046 9.4127-7.9062c-.00015 0 .22133-5.4003-6.1186-7.0002m-25.435-18.61h41.377v38.992h-41.377zm-21.306 25.2c0 4.2369-5.2726 3.9857-5.2726 3.9857h-5.273v-7.6553h5.273c5.4265-.038 5.2726 3.6696 5.2726 3.6696m-10.546-15.348h4.0185c4.1724.2223 4.0145 3.3273 4.0145 3.3273 0 3.8598-4.613 3.923-4.613 3.923h-3.42zm9.5709 8.7559s3.6095-1.5377 3.577-5.6171c0 0 .54843-6.6851-8.3084-7.5007h-9.8284v28.025h11.266s9.4125.046 9.4125-7.907c0 0 .22083-5.4004-6.1186-7.0007m-25.435-18.609h41.377v38.992h-41.377zm128.37 7.5002v5.178s-5.0539-3.1054-10.639-3.1681c0 0-10.42-.2072-10.889 9.9871 0 0-.37636 9.3725 10.764 9.9068 0 0 4.674.5635 11.015-3.4798v5.3627s-8.5057 5.0526-18.359 1.1604c0 0-8.283-3.0246-8.5985-12.95 0 0-.34452-10.209 10.703-13.596 0 0 2.9501-1.1309 8.2514-.6274 2e-4 0 3.1686.3136 7.7533 2.2262m-32.936 31.493h41.377v-38.992h-41.377z"/>
  <path d="m443.03 2304.8v11.302h-3.8459v-28.06h9.0652q5.3371 0 8.1627 2.1989 2.8647 2.158 2.8647 6.1993 0 2.8257-1.5304 4.7881t-4.3561 2.8652q3.9243 5.8473 7.574 12.009h-4.5131q-1.6483-2.9041-3.3748-5.6914-1.6876-2.8245-3.532-5.6502-0.62788 0.045-1.3344 0.045zm0-3.1393h4.9053q3.7282 0 5.5727-1.2961 1.8445-1.2949 1.8445-3.9253 0-5.2569-7.3779-5.2569h-4.9446z"/>
  <path d="m486.08 2316.1q-.70631-1.9235-1.4127-3.8068-.6672-1.8836-1.3735-3.7674h-13.186q-1.4128 3.7277-2.7862 7.5742h-4.042q2.7862-7.3777 5.6117-14.402 2.8648-7.0247 5.808-13.658h4.0813q3.061 7.0247 5.8865 14.049 2.8647 7.0245 5.5726 14.01zm-14.717-10.871h10.674q-1.3342-3.4147-2.6684-6.7503-1.3344-3.3356-2.6687-6.6328-1.3735 3.3361-2.7077 6.6722-1.3344 3.3362-2.6294 6.7109z"/>
  <path d="m493.31 2288.1h9.7716q4.3167 0 7.417 1.6484 3.1394 1.6107 4.7877 4.7106 1.6875 3.1009 1.6875 7.574 0 4.4728-1.6875 7.652-1.6484 3.1393-4.7877 4.8271-3.1003 1.6478-7.4564 1.6478h-9.7323zm9.4576 24.764q4.8662 0 7.4955-2.7467 2.6686-2.7484 2.6686-8.0843 0-5.2597-2.6294-7.927-2.5902-2.7083-7.4956-2.7083h-5.6118v21.466z"/>
  <path d="m521.35 2288.1h3.8851v28.061h-3.8851z"/>
  <path d="m543.26 2287.5q3.061 0 5.5332 1.0207 2.5117 1.0208 4.2776 2.9428 1.8051 1.923 2.747 4.6312.94177 2.6686.94177 6.0042 0 3.3359-.98105 6.0439-.94184 2.6676-2.7078 4.5903-1.766 1.9238-4.2776 2.9824-2.4723 1.021-5.5332 1.021-3.061 0-5.5726-1.021-2.4724-1.0586-4.2383-2.9824-1.766-1.9227-2.7471-4.5903-.94179-2.708-.94179-6.0439 0-3.3356.94179-6.0042.94186-2.7082 2.7079-4.6312 1.8051-1.922 4.2775-2.9428 2.5115-1.0207 5.5726-1.0207zm0 25.863q2.9432 0 5.0624-1.3353 2.1192-1.3735 3.2573-3.8849 1.138-2.5516 1.138-6.0439 0-3.4917-1.138-6.0042-1.1381-2.5107-3.2573-3.845-2.1191-1.3742-5.0624-1.3742-2.9433 0-5.0624 1.3742-2.1192 1.3343-3.2572 3.845-1.1381 2.5125-1.1381 6.0042 0 3.4923 1.1381 6.0439 1.138 2.5114 3.2572 3.8849 2.1192 1.3353 5.0624 1.3353z"/>
  <g transform="matrix(1.6863 0 0 1.6863 -1484.6 790.67)" aria-label="Stoke">
   <path d="m1088.4 946.23q-2.48 0-4.76-.52t-4.6-1.64v-6.76q2.24 1.28 4.56 1.96 2.36.64 4.68.64 2.28 0 3.44-.64t1.16-1.8q0-.8-.52-1.32t-1.44-.88-2.16-.64q-2.72-.64-4.64-1.44t-3.12-1.84q-1.2-1.08-1.76-2.48t-.56-3.28q0-2.84 1.44-4.88 1.44-2.08 4.08-3.16 2.68-1.12 6.36-1.12 2.32 0 4.6.52t4.16 1.44v6.68q-1.32-.8-2.8-1.28-1.48-.52-3-.76-1.52-.28-2.88-.28-2 0-3.12.6-1.08.56-1.08 1.68 0 1.16 1.12 1.76 1.16.56 3.28 1.08 2.2.56 4 1.24 1.8.64 3.12 1.64 1.32.96 2.04 2.48t.72 3.72q0 2.96-1.48 5.04-1.44 2.08-4.2 3.16-2.72 1.08-6.64 1.08z"/>
   <path d="m1117.5 945.23q-1.16.44-2.44.68-1.24.24-2.6.24-3.76 0-5.72-1.88-1.92-1.92-1.92-5.56v-7.84h-3.16v-5.76h3.16v-4.88l7.48-1.64v6.52h4.8v5.76h-4.8v6.84q0 2.48 2.52 2.48 1.28 0 2.68-.6z"/>
   <path d="m1130.3 924.27q3.28 0 5.68 1.36 2.4 1.32 3.68 3.8 1.32 2.44 1.32 5.8 0 2.48-.76 4.52-.72 2-2.12 3.44t-3.4 2.2q-1.96.76-4.4.76t-4.44-.76q-1.96-.76-3.36-2.2t-2.16-3.44q-.72-2.04-.72-4.52 0-3.36 1.28-5.8 1.32-2.48 3.72-3.8 2.4-1.36 5.68-1.36zm0 15.92q1.48 0 2.28-1.28.84-1.28.84-3.64 0-2.44-.84-3.72-.8-1.32-2.28-1.32t-2.32 1.32q-.8 1.28-.8 3.72 0 2.36.8 3.64.84 1.28 2.32 1.28z"/>
   <path d="m1152.6 937.39h-1.28v8.24h-7.48v-29.8h7.48v15.96h1.32q1.28-1.8 2.36-3.48 1.12-1.72 2.24-3.52h7.92q-1.68 2.4-3.32 4.76-1.64 2.32-3.36 4.6 1.92 2.84 3.8 5.72 1.88 2.84 3.76 5.76h-8.44q-1.32-2.32-2.56-4.32-1.2-2-2.44-3.92z"/>
   <path d="m1184.5 944.79q-1.6.68-3.44 1-1.8.36-3.96.36-3.64 0-6.2-1.28-2.52-1.28-3.84-3.68-1.32-2.44-1.32-5.96 0-2.52.72-4.52.72-2.04 2.08-3.48t3.24-2.2q1.92-.76 4.28-.76 3 0 5.08 1.24 2.12 1.24 3.2 3.64t1.08 5.8v1.76h-12.6q.32 2.12 1.6 3 1.28.84 3.88.84 1.8 0 3.24-.32 1.48-.36 2.96-1.16zm-8.52-15.44q-2.6 0-3.12 3.48h5.84q-.16-1.84-.84-2.64-.64-.84-1.88-.84z"/>
  </g>
 </g>
</svg>
