<svg width="1e3" height="374.64" version="1.1" viewBox="0 0 264.58 99.124" xmlns="http://www.w3.org/2000/svg">
 <g transform="translate(-860.06 -3772.3)" fill="#fff">
  <path d="m934.19 3797.5c0 4.2365-5.2727 3.9848-5.2727 3.9848h-5.2726v-7.655h5.2726c5.4262-.049 5.2727 3.6702 5.2727 3.6702m-10.545-15.347h4.0178c4.172.224 4.0144 3.3266 4.0144 3.3266 0 3.8619-4.6129 3.923-4.6129 3.923h-3.4193zm9.57 8.7563s3.6088-1.5382 3.5768-5.6172c0 0 .54885-6.6851-8.3081-7.5005h-9.8279v28.024h11.265s9.4126.049 9.4126-7.9063c-.00011 0 .22132-5.4005-6.1185-7.0002m-25.435-18.61h41.377v38.993h-41.377zm-21.306 25.201c0 4.2369-5.2727 3.9852-5.2727 3.9852h-5.2731v-7.655h5.2731c5.4265-.049 5.2727 3.6698 5.2727 3.6698m-10.546-15.348h4.0186c4.1723.224 4.0145 3.327 4.0145 3.327 0 3.8595-4.613 3.9229-4.613 3.9229h-3.4201zm9.5709 8.7563s3.6094-1.5382 3.577-5.6173c0 0 .54843-6.685-8.3084-7.5008h-9.8284v28.025h11.266s9.4125.049 9.4125-7.9074c0 0 .22056-5.4005-6.1187-7.0006m-25.435-18.609h41.377v38.991h-41.377zm128.37 7.5005v5.1776s-5.0539-3.1049-10.639-3.1686c0 0-10.42-.2088-10.889 9.9874 0 0-.37658 9.3727 10.764 9.9076 0 0 4.6741.5622 11.015-3.4799v5.3632s-8.5056 5.0516-18.359 1.1605c0 0-8.283-3.0248-8.5984-12.951 0 0-.34431-10.209 10.703-13.595 0 0 2.9502-1.1321 8.2515-.6264.00019 0 3.1686.3151 7.7532 2.2253m-32.936 31.494h41.377v-38.993h-41.377z"/>
  <path d="m1010.9 3794.4v11.302h-3.8459v-28.062h9.0653q5.337 0 8.1626 2.2003 2.8647 2.1573 2.8647 6.1995 0 2.8252-1.5304 4.787-1.5303 1.9626-4.356 2.8654 3.9244 5.8476 7.574 12.01h-4.5131q-1.6483-2.9045-3.3748-5.6924-1.6876-2.8247-3.532-5.6499-.6279.049-1.3344.049zm0-3.1395h4.9054q3.728 0 5.5725-1.296 1.8447-1.2945 1.8447-3.9245 0-5.2584-7.3781-5.2584h-4.9445z"/>
  <path d="m1054 3805.7q-.7064-1.9243-1.4128-3.8084-.6672-1.8829-1.3735-3.7658h-13.186q-1.4129 3.7267-2.7862 7.5742h-4.0421q2.7862-7.3791 5.6117-14.404 2.8648-7.0237 5.808-13.659h4.0813q3.061 7.026 5.8867 14.05 2.8646 7.0252 5.5724 14.011zm-14.717-10.871h10.674q-1.3342-3.4143-2.6683-6.7496-1.3344-3.3365-2.6686-6.6338-1.3737 3.3361-2.7079 6.6729-1.3343 3.3353-2.6293 6.7105z"/>
  <path d="m1061.2 3777.6h9.7718q4.3166 0 7.4169 1.6494 3.1394 1.6104 4.7877 4.7107 1.6875 3.1003 1.6875 7.5738 0 4.4723-1.6875 7.6516-1.6483 3.1394-4.7877 4.8283-3.1003 1.6476-7.4562 1.6476h-9.7325zm9.4578 24.764q4.8661 0 7.4954-2.7466 2.6686-2.7476 2.6686-8.0839 0-5.2612-2.6294-7.9265-2.5901-2.7089-7.4955-2.7089h-5.6118v21.466z"/>
  <path d="m1089.2 3777.6h3.8851v28.061h-3.8851z"/>
  <path d="m1111.1 3777q3.0608 0 5.5331 1.0219 2.5116 1.02 4.2776 2.9428 1.8052 1.922 2.7472 4.6317.9418 2.668.9418 6.0033 0 3.3373-.9811 6.0439-.9419 2.6676-2.7079 4.5904-1.766 1.9235-4.2776 2.983-2.4723 1.0208-5.5331 1.0208-3.0611 0-5.5727-1.0208-2.4723-1.0595-4.2381-2.983-1.7661-1.9228-2.7472-4.5904-.9419-2.7066-.9419-6.0439 0-3.3353.9419-6.0033.9416-2.7097 2.7079-4.6317 1.8049-1.9228 4.2774-2.9428 2.5115-1.0219 5.5727-1.0219zm0 25.864q2.9432 0 5.0622-1.3348 2.1193-1.3746 3.2574-3.8854 1.1381-2.5518 1.1381-6.0439 0-3.4909-1.1381-6.0033-1.1381-2.5111-3.2574-3.8459-2.119-1.3742-5.0622-1.3742-2.9434 0-5.0626 1.3742-2.1191 1.3348-3.2571 3.8459-1.1381 2.5124-1.1381 6.0033 0 3.4921 1.1381 6.0439 1.138 2.5108 3.2571 3.8854 2.1192 1.3348 5.0626 1.3348z"/>
  <g transform="matrix(1.5254 0 0 1.5254 13.827 2896.5)" aria-label="Sussex">
   <path d="m586.24 639.16q-2.48 0-4.76-.52t-4.6-1.64v-6.76q2.24 1.28 4.56 1.96 2.36.64 4.68.64 2.28 0 3.44-.64t1.16-1.8q0-.8-.52-1.32t-1.44-.88-2.16-.64q-2.72-.64-4.64-1.44t-3.12-1.84q-1.2-1.08-1.76-2.48t-.56-3.28q0-2.84 1.44-4.88 1.44-2.08 4.08-3.16 2.68-1.12 6.36-1.12 2.32 0 4.6.52t4.16 1.44v6.68q-1.32-.8-2.8-1.28-1.48-.52-3-.76-1.52-.28-2.88-.28-2 0-3.12.6-1.08.56-1.08 1.68 0 1.16 1.12 1.76 1.16.56 3.28 1.08 2.2.56 4 1.24 1.8.64 3.12 1.64 1.32.96 2.04 2.48t.72 3.72q0 2.96-1.48 5.04-1.44 2.08-4.2 3.16-2.72 1.08-6.64 1.08z"/>
   <path d="m615.1 638.56-.36-2.4q-2.44 2.92-6.04 2.92-3.4 0-5.2-2.08-1.76-2.12-1.76-6.08v-13.2h7.48v12.96q0 1.16.52 1.76.56.6 1.56.6 1.6 0 2.72-1.36v-13.96h7.48v20.84z"/>
   <path d="m632.31 639.08q-3.84 0-7.2-1.4v-5.68q1.52.88 3.2 1.36t3.2.48q1.56 0 2.28-.36.76-.36.76-1.08 0-.68-.68-.96-.68-.32-1.68-.56-2.68-.64-4.32-1.48-1.6-.84-2.32-2.12t-.72-3.16q0-2.12 1.08-3.68 1.12-1.56 3.2-2.4t4.96-.84q1.88 0 3.68.4 1.8.36 3.28 1.08v5.64q-1.28-.88-2.92-1.36-1.6-.52-3.12-.52-1.4 0-2.2.36-.76.36-.76 1.04 0 .4.2.68.24.24.76.44.56.16 1.52.4 2.6.56 4.2 1.44 1.64.84 2.36 2.12.76 1.28.76 3.12 0 2.28-1.16 3.88-1.12 1.56-3.24 2.36t-5.12.8z"/>
   <path d="m651.55 639.08q-3.84 0-7.2-1.4v-5.68q1.52.88 3.2 1.36t3.2.48q1.56 0 2.28-.36.76-.36.76-1.08 0-.68-.68-.96-.68-.32-1.68-.56-2.68-.64-4.32-1.48-1.6-.84-2.32-2.12t-.72-3.16q0-2.12 1.08-3.68 1.12-1.56 3.2-2.4t4.96-.84q1.88 0 3.68.4 1.8.36 3.28 1.08v5.64q-1.28-.88-2.92-1.36-1.6-.52-3.12-.52-1.4 0-2.2.36-.76.36-.76 1.04 0 .4.2.68.24.24.76.44.56.16 1.52.4 2.6.56 4.2 1.44 1.64.84 2.36 2.12.76 1.28.76 3.12 0 2.28-1.16 3.88-1.12 1.56-3.24 2.36t-5.12.8z"/>
   <path d="m682.11 637.72q-1.6.68-3.44 1-1.8.36-3.96.36-3.64 0-6.2-1.28-2.52-1.28-3.84-3.68-1.32-2.44-1.32-5.96 0-2.52.72-4.52.72-2.04 2.08-3.48t3.24-2.2q1.92-.76 4.28-.76 3 0 5.08 1.24 2.12 1.24 3.2 3.64t1.08 5.8v1.76h-12.6q.32 2.12 1.6 3 1.28.84 3.88.84 1.8 0 3.24-.32 1.48-.36 2.96-1.16zm-8.52-15.44q-2.6 0-3.12 3.48h5.84q-.16-1.84-.84-2.64-.64-.84-1.88-.84z"/>
   <path d="m698.63 638.56q-.76-1.52-1.64-3.04-.84-1.56-1.72-3.12-.84 1.52-1.68 3.08-.8 1.52-1.6 3.08h-7.92q1.72-2.68 3.48-5.32t3.56-5.2q-1.68-2.56-3.28-5.12-1.6-2.6-3.16-5.2h8.08q.64 1.44 1.32 2.88.72 1.44 1.44 2.88.72-1.44 1.4-2.88t1.32-2.88h7.88q-1.52 2.52-3.12 5.12-1.6 2.56-3.28 5.12 1.76 2.56 3.52 5.24 1.8 2.64 3.52 5.36z"/>
  </g>
 </g>
</svg>
