<svg version="1.1" viewBox="0 0 161.2 41.345" xmlns="http://www.w3.org/2000/svg">
 <style type="text/css">.st0{fill:#ffffff;}</style>
 <g transform="translate(176 -118.16)">
  <g fill="#fff">
   <path class="st0" d="m-159.5 142.9v16.4h-3.4l-9-10.5v10.5h-4.1v-16.4h3.7l8.7 10v-10h4.1z"/>
   <path class="st0" d="m-143.5 156.3v3h-12v-16.4h11.9v3h-7.8v3.4h7.5v3h-7.5v3.9h7.9v0.1z"/>
   <path class="st0" d="m-127.9 148.8-5.1 10.7h-1.8l-7.1-16.6h4.3l3.9 9 4.2-9h3.3l4.2 9 3.8-9h4.3l-7.2 16.6h-1.8l-5-10.7z"/>
   <path class="st0" d="m-96.6 154.3v3.6c-2 1.1-4.2 1.6-6.4 1.6-2.9 0-5.2-0.8-6.9-2.4s-2.6-3.6-2.6-5.9 0.9-4.3 2.7-6 4.2-2.5 7.1-2.5c2.3 0 4.3 0.5 5.9 1.4v3.6c-2-1.1-3.9-1.7-5.6-1.7s-3.2 0.5-4.3 1.4-1.7 2.1-1.7 3.6 0.5 2.7 1.6 3.6 2.5 1.4 4.2 1.4c0.8 0 1.7-0.1 2.4-0.3s2.1-0.7 3.6-1.4z"/>
   <path class="st0" d="m-83.5 142.9 7.3 16.4h-4.4l-1.4-3.3h-7.3l-1.2 3.2h-4.4l6.6-16.4h4.8v0.1zm0.3 10.3-2.7-6.4-2.4 6.4h5.1z"/>
   <path class="st0" d="m-63 143.9v3.2c-2.2-1-3.9-1.5-5.2-1.5-0.7 0-1.3 0.1-1.8 0.4s-0.7 0.6-0.7 1c0 0.3 0.2 0.6 0.5 0.9s1.1 0.6 2.3 1.1 2.2 0.9 2.9 1.2 1.4 0.9 1.9 1.6 0.8 1.6 0.8 2.6c0 1.5-0.6 2.7-1.7 3.6s-2.7 1.3-4.6 1.3c-2 0-4-0.5-5.9-1.6v-3.5c1.1 0.7 2.1 1.3 2.9 1.6s1.7 0.5 2.7 0.5c1.6 0 2.4-0.5 2.4-1.5 0-0.3-0.2-0.7-0.5-1s-1.1-0.7-2.3-1.1-2.2-0.8-2.9-1.2-1.3-0.9-1.9-1.6c-0.5-0.7-0.8-1.6-0.8-2.7 0-1.4 0.6-2.5 1.7-3.4s2.6-1.3 4.5-1.3c1.9 0.2 3.7 0.6 5.7 1.4z"/>
   <path class="st0" d="m-44.6 142.9v3h-5.9v13.4h-4.1v-13.4h-5.9v-3h15.9z"/>
   <path class="st0" d="m-29.4 156.3v3h-12.5v-16.4h4.1v13.4h8.4z"/>
   <path class="st0" d="m-14.8 156.3v3h-12.1v-16.4h12v3h-7.8v3.4h7.5v3h-7.5v3.9h7.9v0.1z"/>
  </g>
 </g>
 <g transform="matrix(.19532 0 0 .19532 -5.3982 -184.03)" fill="#fff">
  <g transform="matrix(.82302 0 0 -.82302 189.64 997.28)">
   <path d="m0 0c0-11.25-14-10.583-14-10.583h-14v20.333h14c14.417 0.083 14-9.75 14-9.75m-28 40.75h10.667c11.083-0.584 10.666-8.833 10.666-8.833 0-10.25-12.25-10.417-12.25-10.417h-9.083v19.25zm25.417-23.25s9.583 4.083 9.5 14.917c0 0 1.457 17.749-22.063 19.916h-26.104v-74.416h29.917s25-0.084 25 21c0 0 0.583 14.333-16.25 18.583m-67.545 49.416h109.88v-103.54h-109.88v103.54z" fill="#fff"/>
  </g>
  <g transform="matrix(.82302 0 0 -.82302 85.355 997.28)">
   <path d="m0 0c0-11.25-14-10.583-14-10.583h-14v20.333h14c14.417 0.083 14-9.75 14-9.75m-28 40.75h10.667c11.083-0.584 10.666-8.833 10.666-8.833 0-10.25-12.25-10.417-12.25-10.417h-9.083v19.25zm25.417-23.25s9.583 4.083 9.5 14.917c0 0 1.457 17.749-22.063 19.916h-26.104v-74.416h29.917s25-0.084 25 21c0 0 0.583 14.333-16.25 18.583m-67.545 49.416h109.88v-103.54h-109.88v103.54z" fill="#fff"/>
  </g>
  <g transform="matrix(.82302 0 0 -.82302 308.19 958.6)">
   <path d="m0 0v-13.75s-13.417 8.25-28.25 8.417c0 0-27.666 0.54-28.916-26.522 0 0-1-24.895 28.583-26.312 0 0 12.417-1.5 29.25 9.25v-14.25s-22.583-13.416-48.75-3.083c0 0-22 8.04-22.834 34.395 0 0-0.917 27.105 28.417 36.105 0 0 7.834 3 21.917 1.667 0 0 8.416-0.834 20.583-5.917m-87.461-83.627h109.88v103.54h-109.88v-103.54z" fill="#fff"/>
  </g>
 </g>
</svg>
