<svg width="1e3" height="219.6" version="1.1" viewBox="0 0 1e3 219.6" xmlns="http://www.w3.org/2000/svg">
 <path d="m79.56 217.68v-91.75h-18.99v62.751q-10.011-16.04-20.083-31.633-10.077-15.592-20.468-31.118h-20.02v91.75h18.99v-63.393q10.011 15.144 20.275 31.247 10.266 16.106 20.275 32.144zm38.561-90.337a40.15 40.15 0 0 0-14.373 9.5584 42.373 42.373 0 0 0-9.1739 15.014 62.669 62.669 0 0 0 0 39.588 42.899 42.899 0 0 0 9.1739 15.141 39.713 39.713 0 0 0 14.372 9.6236 54.634 54.634 0 0 0 37.598 0 39.738 39.738 0 0 0 14.372-9.6236 42.925 42.925 0 0 0 9.1739-15.141 62.669 62.669 0 0 0 0-39.588 42.399 42.399 0 0 0-9.1739-15.014 40.173 40.173 0 0 0-14.372-9.5601 54.62 54.62 0 0 0-37.597 0zm5.3235 71.41a22.94 22.94 0 0 1-8.597-10.458 47.887 47.887 0 0 1 0-33.106 22.56 22.56 0 0 1 8.597-10.396 27.054 27.054 0 0 1 26.948 0 22.596 22.596 0 0 1 8.5987 10.396 47.914 47.914 0 0 1 0 33.106 22.975 22.975 0 0 1-8.5987 10.458 26.648 26.648 0 0 1-26.948 0zm105.22-14.437h1.9277q9.8778 16.428 19.118 33.365h22.711q-5.6461-9.6252-11.291-18.799-5.6494-9.1739-11.423-18.286a27.527 27.527 0 0 0 12.255-9.8811 27.243 27.243 0 0 0 4.3002-15.526q0-14.118-9.6888-21.688-9.6904-7.5689-27.782-7.5705h-33.492v91.75h19.505v-33.363zm-13.859-42.858h12.962q9.1087 0 13.793 3.3355 4.6831 3.3388 4.6847 10.396 0 7.0572-4.7499 10.329-4.7466 3.272-13.857 3.272h-12.834zm57.875 1.6686h28.871v74.554h19.762v-74.554h28.872v-17.196h-77.505zm167.46 74.554v-91.75h-19.762v35.161h-39.91v-35.161h-19.761v91.75h19.761v-39.396h39.91v39.396zm102.27 0q-8.47-22.84-17.517-45.874-9.0468-23.032-18.543-45.876h-21.3q-9.2391 21.687-18.286 44.657-9.0468 22.971-17.773 47.091h21.173q3.3355-10.008 6.6726-19.889h37.212q3.3355 9.7556 6.6743 19.891zm-46.966-71.732q3.2068 8.6003 6.4787 17.517 3.2736 8.9197 6.3533 17.9h-25.794q6.2881-17.833 12.962-35.416zm112.15 54.665q5.5157-11.291 10.973-22.65 5.4506-11.356 10.714-22.904v62.62h18.863v-91.75h-23.096q-5.9052 14.372-12.192 28.296-6.2897 13.925-12.703 27.652-6.5439-13.728-12.832-27.781-6.2897-14.052-12.322-28.167h-23.738v91.75h18.864v-62.366q5.2599 11.292 10.652 22.65 5.3886 11.356 11.036 22.648zm75.195 17.067v-31.31h13.345a50.634 50.634 0 0 0 20.018-3.5294 27.005 27.005 0 0 0 12.513-10.266 29.803 29.803 0 0 0 4.2985-16.36q0-14.633-9.4965-22.457-9.4965-7.8263-27.204-7.828h-32.977v91.75zm0-76.223h12.447q8.5954 0 13.153 3.593 4.5544 3.593 4.556 11.165 0 7.5721-4.556 11.098-4.5576 3.531-13.282 3.5294h-12.319zm55.05 1.6686h28.874v74.554h19.762v-74.554h28.872v-17.196h-77.509zm105.93-15.785a40.15 40.15 0 0 0-14.374 9.5601 42.373 42.373 0 0 0-9.1739 15.014 62.669 62.669 0 0 0 0 39.588 42.899 42.899 0 0 0 9.1739 15.141 39.713 39.713 0 0 0 14.372 9.6236 54.634 54.634 0 0 0 37.598 0 39.738 39.738 0 0 0 14.372-9.6236 42.925 42.925 0 0 0 9.1739-15.141 62.669 62.669 0 0 0 0-39.588 42.399 42.399 0 0 0-9.1739-15.014 40.173 40.173 0 0 0-14.372-9.5601 54.62 54.62 0 0 0-37.597 0zm5.3234 71.411a22.94 22.94 0 0 1-8.597-10.458 47.887 47.887 0 0 1 0-33.106 22.56 22.56 0 0 1 8.597-10.396 27.054 27.054 0 0 1 26.948 0 22.596 22.596 0 0 1 8.597 10.396 47.914 47.914 0 0 1 0 33.106 22.975 22.975 0 0 1-8.597 10.458 26.648 26.648 0 0 1-26.948 0zm150.9 18.928v-91.75h-18.99v62.751q-10.011-16.04-20.083-31.633-10.075-15.592-20.466-31.118h-20.02v91.75h18.991v-63.393q10.012 15.144 20.276 31.247 10.264 16.106 20.274 32.144z" fill="#542582" stroke-width="1.6295"/>
 <path d="m167.31 0v91.657h91.657v-91.657zm63.461 64.685a14.975 14.975 0 0 1-6.6955 5.1198 27.22 27.22 0 0 1-10.445 1.8038h-20.541v-51.558h19.348q8.553 0 13.251 3.4251a11.442 11.442 0 0 1 4.6961 9.842 11.83 11.83 0 0 1-1.6816 6.3826 11.587 11.587 0 0 1-4.978 4.2904 13.743 13.743 0 0 1 6.9741 4.7955 13.057 13.057 0 0 1 2.4198 7.9681 13.368 13.368 0 0 1-2.3481 7.9306zm-13.111-25.201a6.0518 6.0518 0 0 0 2.1395-4.9389q0-6.1284-8.3429-6.13h-7.9224v12.835h7.9224a9.5193 9.5193 0 0 0 6.2034-1.7663zm-4.8721 9.842h-9.2537v13.917h9.1136a12.498 12.498 0 0 0 7.2218-1.7663 5.8253 5.8253 0 0 0 2.524-5.0839q0-7.0654-9.6057-7.067zm69.094-49.324v91.657h91.657v-91.657zm63.459 64.683a14.975 14.975 0 0 1-6.6938 5.1198 27.22 27.22 0 0 1-10.445 1.8038h-20.543v-51.558h19.35q8.5514 0 13.249 3.4251a11.442 11.442 0 0 1 4.6977 9.842 11.83 11.83 0 0 1-1.6832 6.3826 11.587 11.587 0 0 1-4.978 4.2904 13.743 13.743 0 0 1 6.9757 4.7955 13.057 13.057 0 0 1 2.4198 7.9681 13.368 13.368 0 0 1-2.3497 7.9306zm-13.109-25.201a6.0518 6.0518 0 0 0 2.1379-4.9389q0-6.1284-8.3428-6.13h-7.9208v12.835h7.9208a9.5193 9.5193 0 0 0 6.205-1.7663zm-4.8721 9.842h-9.2554v13.917h9.1152a12.498 12.498 0 0 0 7.2202-1.7663 5.8253 5.8253 0 0 0 2.524-5.0839q0-7.0654-9.604-7.067zm69.092 42.333h91.657v-91.657h-91.657zm65.83-23.318a29.91 29.91 0 0 1-7.4238 2.7896 37.549 37.549 0 0 1-8.8773 1.0266 32.371 32.371 0 0 1-11.134-1.8038 22.741 22.741 0 0 1-8.3689-5.1947 22.508 22.508 0 0 1-5.2404-8.3037 31.674 31.674 0 0 1-1.8201-11.062 29.581 29.581 0 0 1 1.8934-10.849 23.174 23.174 0 0 1 5.4587-8.3037 24.039 24.039 0 0 1 8.5498-5.3006 32.12 32.12 0 0 1 11.17-1.838 35.967 35.967 0 0 1 8.1147 0.88317 30.139 30.139 0 0 1 7.0947 2.5794v10.037a23.78 23.78 0 0 0-6.4771-3.0047 25.996 25.996 0 0 0-7.3489-1.0249 19.189 19.189 0 0 0-9.0598 1.9798 13.554 13.554 0 0 0-5.7504 5.7243 19.127 19.127 0 0 0-2.001 9.1168 19.941 19.941 0 0 0 1.9293 9.1543 13.174 13.174 0 0 0 5.6037 5.7602 18.576 18.576 0 0 0 8.9132 1.9782 27.626 27.626 0 0 0 14.774-4.1698zm77.183-13.124v24.989h-14.608v-68.719h25.084q13.552 0 20.808 5.6705t7.256 16.242a19.485 19.485 0 0 1-12.399 19.03q4.3246 6.8258 8.5547 13.696 4.2285 6.8714 8.4569 14.079h-17.012q-6.9203-12.685-14.32-24.988zm0-11.629h9.6106a18.263 18.263 0 0 0 10.38-2.4507 8.7339 8.7339 0 0 0 3.5571-7.7367 8.9066 8.9066 0 0 0-3.5082-7.784q-3.5082-2.498-10.331-2.4996h-9.7083zm101.49 36.619q-2.4996-7.5933-4.9976-14.898h-27.872q-2.4996 7.4026-4.9976 14.898h-15.858q6.5342-18.067 13.313-35.273 6.7753-17.202 13.694-33.446h15.954q7.111 17.109 13.888 34.359 6.7753 17.253 13.119 34.36zm-28.639-27.199h19.317q-2.3073-6.7264-4.758-13.407-2.4507-6.6808-4.8526-13.12-4.9992 13.169-9.7067 26.528zm53.243-41.519h26.239a39.756 39.756 0 0 1 18.597 4.0346 27.277 27.277 0 0 1 11.773 11.678 44.4 44.4 0 0 1-0.0489 37.098 27.773 27.773 0 0 1-11.773 11.822 39.286 39.286 0 0 1-18.644 4.0851h-26.143zm25.374 56.031q9.6089 0 14.753-5.6216 5.1393-5.6233 5.141-16.197 0-10.473-5.0464-16.001-5.0448-5.5239-14.753-5.5255h-10.666v43.345zm46.995-56.032h14.802v68.719h-14.802zm60.645-1.4421a37.885 37.885 0 0 1 14.08 2.4996 30.099 30.099 0 0 1 10.766 7.1599 31.768 31.768 0 0 1 6.8698 11.245 46.94 46.94 0 0 1 0 29.65 32.153 32.153 0 0 1-6.8698 11.341 29.765 29.765 0 0 1-10.766 7.2087 40.916 40.916 0 0 1-28.159 0 29.749 29.749 0 0 1-10.766-7.2087 32.133 32.133 0 0 1-6.8714-11.341 46.94 46.94 0 0 1 0-29.65 31.75 31.75 0 0 1 6.8714-11.243 30.083 30.083 0 0 1 10.766-7.1615 37.875 37.875 0 0 1 14.079-2.4996zm0 58.724a18.164 18.164 0 0 0 10.093-2.7391 17.212 17.212 0 0 0 6.4396-7.8328 35.882 35.882 0 0 0 0-24.797 16.925 16.925 0 0 0-6.4396-7.784 20.266 20.266 0 0 0-20.184 0 16.901 16.901 0 0 0-6.4396 7.784 35.868 35.868 0 0 0 0 24.797 17.188 17.188 0 0 0 6.4396 7.8328 18.154 18.154 0 0 0 10.093 2.7375z" stroke-width="1.6295"/>
</svg>
