<svg width="1e3" height="330.06" version="1.1" viewBox="0 0 1e3 330.06" xmlns="http://www.w3.org/2000/svg">
 <path d="m143.9 324.93a41.897 41.897 0 0 0 19.478-14.85 40.111 40.111 0 0 0 6.7516-23.432 39.017 39.017 0 0 0-3.5687-17.548 31.72 31.72 0 0 0-10.028-11.764 59.453 59.453 0 0 0-14.947-7.6186q-8.4855-2.9883-18.321-5.4954-7.7141-1.9267-13.402-3.9544a22.529 22.529 0 0 1-8.7757-5.2052 11.799 11.799 0 0 1-3.0856-8.5828 12.89 12.89 0 0 1 6.4614-11.573q6.4578-4.0499 18.224-4.0499a82.135 82.135 0 0 1 21.504 2.8928 72.85 72.85 0 0 1 19.188 8.0998v-26.228a87.959 87.959 0 0 0-19.09-6.7498 93.719 93.719 0 0 0-21.601-2.5071 74.406 74.406 0 0 0-28.928 5.1096 42.448 42.448 0 0 0-18.804 14.561 38.185 38.185 0 0 0-6.6543 22.565 37.584 37.584 0 0 0 3.0856 15.909 30.922 30.922 0 0 0 9.0659 11.378 58.498 58.498 0 0 0 14.657 8.1953 143.23 143.23 0 0 0 20.057 6.1712 129.07 129.07 0 0 1 12.535 3.7615 24.072 24.072 0 0 1 8.9685 5.3998 12.651 12.651 0 0 1 3.3758 9.3524 13.94 13.94 0 0 1-6.8472 12.342q-6.849 4.4393-19.961 4.4374a82.945 82.945 0 0 1-43.779-12.535v26.614a85.924 85.924 0 0 0 21.311 7.9069 101.68 101.68 0 0 0 22.468 2.5052 82.307 82.307 0 0 0 30.663-5.1096zm134.8-1.9285a47.79 47.79 0 0 0 20.345-20.347q7.0382-13.305 7.04-32.012v-81.383h-29.699v84.662q0 14.657-7.6167 22.466-7.6222 7.8114-21.697 7.8114-14.08 0-21.695-7.8114-7.6222-7.8114-7.6204-22.466v-84.664h-29.697v81.385q0 18.707 7.0382 32.013a47.937 47.937 0 0 0 20.249 20.345q13.208 7.0363 31.725 7.0382a66.787 66.787 0 0 0 31.628-7.0382zm52.647 4.1472h29.699v-54.577h54.963v-24.685h-54.963v-33.942h62.293v-24.685h-91.992zm110.89 0h29.697v-54.577h54.963v-24.685h-54.963v-33.942h62.293v-24.685h-91.99zm143.77-135.77a60.339 60.339 0 0 0-21.601 14.367 63.681 63.681 0 0 0-13.79 22.564 94.183 94.183 0 0 0 0 59.496 64.473 64.473 0 0 0 13.79 22.756 59.685 59.685 0 0 0 21.599 14.464 82.118 82.118 0 0 0 56.509 0 59.722 59.722 0 0 0 21.599-14.464 64.512 64.512 0 0 0 13.788-22.756 94.183 94.183 0 0 0 0-59.496 63.72 63.72 0 0 0-13.788-22.565 60.375 60.375 0 0 0-21.599-14.367 82.096 82.096 0 0 0-56.507 0zm8.0006 107.32a34.476 34.476 0 0 1-12.919-15.716 71.97 71.97 0 0 1 0-49.756 33.905 33.905 0 0 1 12.919-15.623 40.664 40.664 0 0 1 40.503 0 33.958 33.958 0 0 1 12.923 15.623 72.011 72.011 0 0 1 0 49.756 34.531 34.531 0 0 1-12.923 15.716 40.054 40.054 0 0 1-40.503 0zm108 28.447h95.076v-25.842h-65.379v-112.05h-29.695zm174.72-29.506q12.155 14.464 24.303 29.506h37.799q-15.816-18.898-31.339-36.932-15.525-18.031-31.341-35.966 14.851-16.389 29.124-32.496 14.271-16.1 28.156-32.496h-35.679q-10.989 13.5-22.277 26.518-11.277 13.018-23.62 26.902h-7.7177v-53.42h-29.697v137.89h29.697v-59.398h7.1374q13.307 15.428 25.456 29.892z" fill="#542582" stroke-width="1.8367"/>
 <path d="m0 0.0018367v137.75h137.75v-137.75zm95.373 97.216a22.507 22.507 0 0 1-10.061 7.692 40.91 40.91 0 0 1-15.7 2.7091h-30.869v-77.484h29.078q12.853 0 19.913 5.1464a17.197 17.197 0 0 1 7.0602 14.793 17.779 17.779 0 0 1-2.5291 9.5912 17.415 17.415 0 0 1-7.4808 6.4486 20.655 20.655 0 0 1 10.484 7.2071 19.623 19.623 0 0 1 3.6348 11.975 20.093 20.093 0 0 1-3.5301 11.92zm-19.702-37.88a9.0971 9.0971 0 0 0 3.2142-7.4239q0-9.2091-12.539-9.211h-11.905v19.291h11.905a14.308 14.308 0 0 0 9.3248-2.6558zm-7.3228 14.793h-13.907v20.916h13.696a18.784 18.784 0 0 0 10.853-2.6558 8.7555 8.7555 0 0 0 3.7927-7.6406q0-10.618-14.436-10.62zm103.84-74.13v137.75h137.75v-137.75zm95.373 97.216a22.507 22.507 0 0 1-10.061 7.692 40.91 40.91 0 0 1-15.7 2.7091h-30.869v-77.482h29.078q12.853 0 19.913 5.1464a17.197 17.197 0 0 1 7.0602 14.793 17.779 17.779 0 0 1-2.5291 9.5912 17.415 17.415 0 0 1-7.4808 6.4486 20.655 20.655 0 0 1 10.484 7.2071 19.623 19.623 0 0 1 3.6348 11.975 20.093 20.093 0 0 1-3.5301 11.92zm-19.702-37.878a9.0971 9.0971 0 0 0 3.2142-7.4239q0-9.2091-12.539-9.211h-11.905v19.291h11.905a14.308 14.308 0 0 0 9.3248-2.6558zm-7.3229 14.793h-13.907v20.916h13.696a18.784 18.784 0 0 0 10.853-2.6558 8.7555 8.7555 0 0 0 3.7928-7.6406q0-10.618-14.436-10.62zm103.84 63.621h137.75v-137.75h-137.75zm98.935-35.044a44.953 44.953 0 0 1-11.156 4.195 56.434 56.434 0 0 1-13.344 1.541 48.65 48.65 0 0 1-16.732-2.7091 34.177 34.177 0 0 1-12.579-7.8059 33.828 33.828 0 0 1-7.8738-12.482 47.601 47.601 0 0 1-2.7367-16.624 44.457 44.457 0 0 1 2.8469-16.306 34.827 34.827 0 0 1 8.2008-12.48 36.128 36.128 0 0 1 12.851-7.9675 48.274 48.274 0 0 1 16.787-2.7624 54.055 54.055 0 0 1 12.196 1.3279 45.296 45.296 0 0 1 10.664 3.8772v15.085a35.738 35.738 0 0 0-9.7344-4.5146 39.068 39.068 0 0 0-11.046-1.541 28.838 28.838 0 0 0-13.617 2.9754 20.369 20.369 0 0 0-8.6398 8.603 28.744 28.744 0 0 0-3.0066 13.702 29.971 29.971 0 0 0 2.8983 13.757 19.799 19.799 0 0 0 8.4212 8.6581 27.918 27.918 0 0 0 13.399 2.9736 41.518 41.518 0 0 0 22.202-6.2668zm116-19.722v37.555h-21.956v-103.28h37.7q20.367 0 31.273 8.5222 10.903 8.5259 10.904 24.411a29.286 29.286 0 0 1-18.633 28.599q6.5 10.26 12.857 20.584 6.3549 10.33 12.71 21.16h-25.567q-10.399-19.065-21.522-37.555zm0-17.476h14.446q10.254 0 15.599-3.6844 5.3429-3.6825 5.3447-11.628 0-7.9418-5.2731-11.7-5.2731-3.7542-15.527-3.7542h-14.589zm152.53 55.033q-3.7578-11.409-7.512-22.389h-41.887q-3.7579 11.125-7.512 22.389h-23.833q9.8207-27.155 20.007-53.012 10.183-25.853 20.582-50.266h23.978q10.688 25.714 20.872 51.64 10.181 25.928 19.717 51.638zm-43.043-40.877h29.032q-3.4677-10.109-7.1502-20.15-3.6844-10.037-7.2953-19.717-7.512 19.79-14.587 39.865zm80.019-62.399h39.434a59.747 59.747 0 0 1 27.949 6.0666 40.995 40.995 0 0 1 17.695 17.549 58.858 58.858 0 0 1 6.0666 27.806 59.165 59.165 0 0 1-6.1382 27.949 41.74 41.74 0 0 1-17.695 17.766 59.042 59.042 0 0 1-28.022 6.14h-39.288zm38.133 84.21q14.442 0 22.172-8.4506 7.7232-8.4487 7.7269-24.338 0-15.742-7.5837-24.051-7.5818-8.3036-22.172-8.3055h-16.031v65.145zm70.63-84.212h22.246v103.28h-22.246zm91.145-2.1654a56.937 56.937 0 0 1 21.159 3.756 45.237 45.237 0 0 1 16.181 10.759 47.745 47.745 0 0 1 10.324 16.901 70.547 70.547 0 0 1 0 44.562 48.323 48.323 0 0 1-10.326 17.044 44.736 44.736 0 0 1-16.178 10.831 61.492 61.492 0 0 1-42.321 0 44.71 44.71 0 0 1-16.179-10.833 48.294 48.294 0 0 1-10.328-17.044 70.547 70.547 0 0 1 0-44.56 47.717 47.717 0 0 1 10.328-16.901 45.212 45.212 0 0 1 16.179-10.759 56.922 56.922 0 0 1 21.158-3.756zm0 88.254a27.297 27.297 0 0 0 15.166-4.116 25.868 25.868 0 0 0 9.6793-11.773 53.929 53.929 0 0 0 0-37.266 25.436 25.436 0 0 0-9.6793-11.7 30.456 30.456 0 0 0-30.333 0 25.401 25.401 0 0 0-9.6775 11.7 53.907 53.907 0 0 0 0 37.266 25.831 25.831 0 0 0 9.6775 11.773 27.284 27.284 0 0 0 15.167 4.116z" stroke-width="1.8367"/>
</svg>
