<svg width="1e3" height="320.26" version="1.1" viewBox="0 0 1e3 320.26" xmlns="http://www.w3.org/2000/svg">
 <path d="m118.84 242.96h-50.901v22.642h23.955v26.946a66.602 66.602 0 0 1-9.9211 2.2455 68.899 68.899 0 0 1-10.105 0.74849q-20.209 0-31.061-11.694-10.853-11.693-10.853-33.402a51.147 51.147 0 0 1 5.2394-24.139 35.541 35.541 0 0 1 15.155-15.157 51.131 51.131 0 0 1 24.141-5.243 85.407 85.407 0 0 1 21.988 2.716 71.217 71.217 0 0 1 18.807 7.9518v-26.572a89.976 89.976 0 0 0-20.491-6.8309 113.14 113.14 0 0 0-23.298-2.3382 84.71 84.71 0 0 0-29.475 4.8652 61.364 61.364 0 0 0-36.954 36.022 77.731 77.731 0 0 0-5.0541 28.724 83.822 83.822 0 0 0 4.7725 29.191 58.498 58.498 0 0 0 35.928 35.835 84.598 84.598 0 0 0 29.286 4.769 128.63 128.63 0 0 0 17.593-1.2118 110.93 110.93 0 0 0 16.841-3.6516 80.712 80.712 0 0 0 14.407-5.8008zm108.72 70.451a46.374 46.374 0 0 0 19.741-19.741q6.8291-12.91 6.8309-31.062v-78.966h-28.817v82.149q0 14.221-7.3905 21.797-7.3958 7.5812-21.05 7.5776-13.664 0-21.052-7.5776-7.3958-7.5776-7.3923-21.797v-82.149h-28.817v78.966q0 18.153 6.8309 31.062a46.517 46.517 0 0 0 19.646 19.741q12.817 6.8291 30.784 6.8291a64.787 64.787 0 0 0 30.686-6.8291zm50.336 4.024h95.622v-23.952h-66.807v-32.934h56.139v-23.952h-56.139v-29.004h63.251v-23.952h-92.066zm161.3-48.652h2.8086q14.407 23.955 27.88 48.652h33.121q-8.2334-14.034-16.465-27.414-8.2388-13.377-16.656-26.664a40.151 40.151 0 0 0 17.869-14.41 39.724 39.724 0 0 0 6.2713-22.64q0-20.585-14.129-31.624-14.132-11.038-40.513-11.04h-48.837v133.79h28.443v-48.652zm-20.209-62.499h18.901q13.282 0 20.115 4.8652 6.8291 4.867 6.8309 15.157 0 10.294-6.9253 15.063-6.9236 4.7725-20.209 4.7725h-18.712zm213.89 111.15v-133.79h-27.696v91.505q-14.597-23.39-29.286-46.129-14.692-22.736-29.845-45.376h-29.191v133.79h27.692v-92.439q14.597 22.084 29.565 45.564 14.968 23.487 29.565 46.875zm91.125-2.151a40.668 40.668 0 0 0 18.899-14.408 38.927 38.927 0 0 0 6.5511-22.738 37.852 37.852 0 0 0-3.4627-17.025 30.783 30.783 0 0 0-9.7304-11.416 57.639 57.639 0 0 0-14.503-7.3905q-8.2334-2.9013-17.778-5.3339-7.4832-1.8677-13.002-3.8369a21.827 21.827 0 0 1-8.515-5.0523 11.443 11.443 0 0 1-2.994-8.3279 12.505 12.505 0 0 1 6.2695-11.227q6.266-3.9314 17.68-3.9278a79.64 79.64 0 0 1 20.867 2.8051 70.684 70.684 0 0 1 18.618 7.8592v-25.449a85.346 85.346 0 0 0-18.523-6.5493 91.006 91.006 0 0 0-20.96-2.4326 72.171 72.171 0 0 0-28.068 4.9597 41.165 41.165 0 0 0-18.244 14.129 37.047 37.047 0 0 0-6.4549 21.893 36.459 36.459 0 0 0 2.9904 15.437 30.023 30.023 0 0 0 8.7948 11.04 56.761 56.761 0 0 0 14.221 7.9536 139.32 139.32 0 0 0 19.463 5.988 125.61 125.61 0 0 1 12.163 3.648 23.374 23.374 0 0 1 8.7003 5.2394 12.277 12.277 0 0 1 3.2773 9.0764 13.525 13.525 0 0 1-6.6438 11.976q-6.6473 4.3056-19.368 4.3038a80.463 80.463 0 0 1-42.475-12.163v25.823a83.457 83.457 0 0 0 20.674 7.672 98.74 98.74 0 0 0 21.801 2.4308 79.864 79.864 0 0 0 29.753-4.9561zm43.413 2.151h95.618v-23.952h-66.803v-32.934h56.137v-23.952h-56.137v-29.004h63.248v-23.952h-92.063zm207.9-92.065q12.534-20.772 24.698-41.728h-31.998q-7.8592 14.783-15.906 29.469-8.0463 14.697-16.467 29.289-8.2352-14.41-16.374-29.195-8.1372-14.777-15.807-29.565h-32.748q11.971 20.958 24.513 41.73 12.534 20.771 25.636 41.354v50.71h28.815v-50.71q13.099-20.582 25.638-41.354z" fill="#fff" stroke-width="1.7821"/>
 <path d="m14.857 0.0017821v133.66h133.66v-133.66zm92.54 94.328a21.838 21.838 0 0 1-9.7625 7.4635 39.695 39.695 0 0 1-15.234 2.6304h-29.952v-75.184h28.215q12.471 0 19.322 4.9953a16.686 16.686 0 0 1 6.8505 14.353 17.251 17.251 0 0 1-2.454 9.3045 16.898 16.898 0 0 1-7.2586 6.257 20.042 20.042 0 0 1 10.172 6.9931 19.04 19.04 0 0 1 3.5268 11.619 19.496 19.496 0 0 1-3.4252 11.566zm-19.117-36.755a8.8269 8.8269 0 0 0 3.1187-7.2016q0-8.9374-12.167-8.9391h-11.552v18.718h11.552a13.883 13.883 0 0 0 9.0478-2.577zm-7.1053 14.353h-13.494v20.295h13.289a18.226 18.226 0 0 0 10.531-2.5752 8.4954 8.4954 0 0 0 3.6801-7.4136q0-10.304-14.008-10.306zm100.76-71.928v133.66h133.66v-133.66zm92.54 94.328a21.838 21.838 0 0 1-9.7625 7.4635 39.695 39.695 0 0 1-15.234 2.6304h-29.952v-75.183h28.215q12.471 0 19.322 4.9953a16.686 16.686 0 0 1 6.8505 14.353 17.251 17.251 0 0 1-2.454 9.3045 16.898 16.898 0 0 1-7.2586 6.257 20.042 20.042 0 0 1 10.172 6.9931 19.04 19.04 0 0 1 3.5268 11.619 19.496 19.496 0 0 1-3.4252 11.566zm-19.117-36.753a8.8269 8.8269 0 0 0 3.1187-7.2016q0-8.9374-12.167-8.9391h-11.552v18.718h11.552a13.883 13.883 0 0 0 9.0478-2.577zm-7.1053 14.353h-13.494v20.295h13.289a18.226 18.226 0 0 0 10.531-2.5752 8.4954 8.4954 0 0 0 3.6801-7.4136q0-10.304-14.008-10.306zm100.76 61.731h133.66v-133.66h-133.66zm95.996-34.003a43.618 43.618 0 0 1-10.825 4.0704 54.758 54.758 0 0 1-12.947 1.4952 47.205 47.205 0 0 1-16.237-2.6286 33.162 33.162 0 0 1-12.204-7.574 32.823 32.823 0 0 1-7.64-12.111 46.187 46.187 0 0 1-2.6554-16.13 43.136 43.136 0 0 1 2.7623-15.822 33.794 33.794 0 0 1 7.9572-12.11 35.054 35.054 0 0 1 12.47-7.7309 46.84 46.84 0 0 1 16.289-2.6785 52.45 52.45 0 0 1 11.833 1.2867 43.949 43.949 0 0 1 10.347 3.7621v14.637a34.677 34.677 0 0 0-9.4453-4.3805 37.908 37.908 0 0 0-10.718-1.4952 27.981 27.981 0 0 0-13.213 2.887 19.764 19.764 0 0 0-8.3831 8.3475 27.89 27.89 0 0 0-2.9174 13.295 29.081 29.081 0 0 0 2.8122 13.348 19.211 19.211 0 0 0 8.171 8.4009 27.088 27.088 0 0 0 12.999 2.887 40.285 40.285 0 0 0 21.542-6.0824zm112.55-19.136v36.441h-21.304v-100.21h36.58q19.762 0 30.344 8.2691 10.579 8.2691 10.58 23.684a28.416 28.416 0 0 1-18.08 27.751q6.3069 9.9532 12.475 19.971 6.1662 10.023 12.332 20.534h-24.807q-10.09-18.5-20.883-36.441zm0-16.957h14.016q9.9496 0 15.136-3.5749 5.1842-3.5732 5.186-11.281 0-7.7077-5.1165-11.352-5.1165-3.6444-15.066-3.6444h-14.155zm148 53.398q-3.6462-11.071-7.2889-21.724h-40.643q-3.6462 10.794-7.2889 21.724h-23.125q9.529-26.345 19.413-51.438 9.8801-25.085 19.97-48.771h23.266q10.37 24.948 20.252 50.104 9.8783 25.158 19.131 50.104zm-41.764-39.663h28.17q-3.3647-9.8088-6.9378-19.552-3.5749-9.7393-7.0786-19.131-7.2889 19.204-14.154 38.683zm77.642-60.546h38.262a57.973 57.973 0 0 1 27.119 5.8864 39.777 39.777 0 0 1 17.169 17.028 57.11 57.11 0 0 1 5.8864 26.98 57.408 57.408 0 0 1-5.9559 27.119 40.501 40.501 0 0 1-17.169 17.239 57.288 57.288 0 0 1-27.19 5.9576h-38.121zm37 81.709q14.013 0 21.514-8.1996 7.4938-8.1978 7.4974-23.615 0-15.275-7.3584-23.335-7.3566-8.0588-21.514-8.0588h-15.554v63.208zm68.532-81.71h21.585v100.21h-21.585zm88.438-2.1011a55.246 55.246 0 0 1 20.53 3.6444 43.894 43.894 0 0 1 15.7 10.441 46.325 46.325 0 0 1 10.017 16.396 68.451 68.451 0 0 1 0 43.24 46.886 46.886 0 0 1-10.019 16.538 43.407 43.407 0 0 1-15.697 10.509 59.666 59.666 0 0 1-41.064 0 43.382 43.382 0 0 1-15.699-10.511 46.859 46.859 0 0 1-10.021-16.538 68.451 68.451 0 0 1 0-43.236 46.3 46.3 0 0 1 10.021-16.397 43.869 43.869 0 0 1 15.699-10.443 55.232 55.232 0 0 1 20.53-3.6427zm0 85.633a26.486 26.486 0 0 0 14.715-3.9937 25.099 25.099 0 0 0 9.3918-11.423 52.327 52.327 0 0 0 0-36.159 24.681 24.681 0 0 0-9.3918-11.352 29.551 29.551 0 0 0-29.432 0 24.647 24.647 0 0 0-9.39 11.352 52.305 52.305 0 0 0 0 36.159 25.064 25.064 0 0 0 9.39 11.423 26.473 26.473 0 0 0 14.717 3.9937z" fill="#fff" stroke-width="1.7821"/>
</svg>
