<svg width="1e3" height="250.84" version="1.1" viewBox="0 0 1e3 250.84" xmlns="http://www.w3.org/2000/svg">
 <path d="m64.341 229.13q6.3008-12.896 12.532-25.869 6.2254-12.97 12.239-26.162v71.523h21.545v-104.79h-26.381q-6.7447 16.416-13.923 32.318-7.183 15.906-14.51 31.585-7.4747-15.682-14.656-31.732-7.183-16.049-14.07-32.171h-27.115v104.79h21.545v-71.229q6.0091 12.898 12.165 25.868 6.1556 12.97 12.604 25.869zm164.89 19.493q-9.6731-26.088-20.007-52.397-10.333-26.306-21.179-52.397h-24.329q-10.553 24.769-20.887 51.004-10.332 26.238-20.3 53.79h24.186q3.8092-11.432 7.6213-22.717h42.503q3.8106 11.14 7.6226 22.717zm-53.642-81.93q3.6627 9.8225 7.3993 20.007 3.7394 10.19 7.2583 20.446h-29.463q7.1802-20.371 14.806-40.451zm155.79 81.93v-104.79h-21.691v71.671q-11.432-18.319-22.936-36.128-11.507-17.809-23.376-35.542h-22.864v104.79h21.69v-72.402q11.433 17.296 23.157 35.687 11.724 18.397 23.157 36.715zm85.445 0.0726a59.234 59.234 0 0 0 14.951-5.7885v-20.372a54.454 54.454 0 0 1-29.752 8.6472 36.514 36.514 0 0 1-17.953-4.1038 26.955 26.955 0 0 1-11.287-11.946 42.386 42.386 0 0 1-3.886-18.979 40.637 40.637 0 0 1 4.0312-18.907 27.716 27.716 0 0 1 11.58-11.873 37.724 37.724 0 0 1 18.248-4.1038 50.993 50.993 0 0 1 14.803 2.1245 47.252 47.252 0 0 1 13.043 6.2296v-20.812a59.557 59.557 0 0 0-14.288-5.3502 70.434 70.434 0 0 0-16.342-1.8313 63.008 63.008 0 0 0-22.501 3.8106 47.384 47.384 0 0 0-28.211 28.214 62.981 62.981 0 0 0-3.8106 22.498 67.429 67.429 0 0 0 3.6627 22.936 46.894 46.894 0 0 0 10.553 17.222 45.63 45.63 0 0 0 16.855 10.772 63.52 63.52 0 0 0 22.425 3.7366 73.576 73.576 0 0 0 17.881-2.1245zm122.09-0.0726v-104.79h-22.571v40.158h-45.582v-40.158h-22.569v104.79h22.569v-44.996h45.582v44.996zm19.053 0h74.894v-18.76h-52.324v-25.795h43.97v-18.76h-43.97v-22.719h49.54v-18.76h-72.109zm141.73-1.6862a31.84 31.84 0 0 0 14.804-11.285 30.484 30.484 0 0 0 5.1297-17.808 29.653 29.653 0 0 0-2.7107-13.336 24.106 24.106 0 0 0-7.6227-8.9403 45.183 45.183 0 0 0-11.359-5.7899q-6.4488-2.271-13.923-4.1763-5.8625-1.4642-10.185-3.0052a17.121 17.121 0 0 1-6.6693-3.9558 8.9668 8.9668 0 0 1-2.345-6.5227 9.796 9.796 0 0 1 4.9119-8.7952q4.9064-3.0778 13.847-3.0778a62.42 62.42 0 0 1 16.345 2.1984 55.364 55.364 0 0 1 14.582 6.1556v-19.933a66.847 66.847 0 0 0-14.51-5.1297 71.224 71.224 0 0 0-16.416-1.9053 56.545 56.545 0 0 0-21.984 3.8832 32.242 32.242 0 0 0-14.288 11.066 29.019 29.019 0 0 0-5.0571 17.149 28.563 28.563 0 0 0 2.3436 12.091 23.516 23.516 0 0 0 6.8884 8.6472 44.457 44.457 0 0 0 11.139 6.2296 108.85 108.85 0 0 0 15.243 4.69 98.087 98.087 0 0 1 9.5266 2.8573 18.294 18.294 0 0 1 6.8159 4.1038 9.6145 9.6145 0 0 1 2.5656 7.109 10.594 10.594 0 0 1-5.2037 9.38q-5.2051 3.3737-15.17 3.3709a63.022 63.022 0 0 1-33.268-9.5266v20.226a65.285 65.285 0 0 0 16.194 6.0091 77.278 77.278 0 0 0 17.074 1.9053 62.552 62.552 0 0 0 23.303-3.8846zm24.036-83.468h32.975v85.154h22.571v-85.154h32.979v-19.639h-88.527zm99.37 85.154h74.894v-18.76h-52.323v-25.795h43.969v-18.76h-43.969v-22.719h49.538v-18.76h-72.109zm126.92-38.106h2.1999q11.284 18.761 21.838 38.106h25.943q-6.4502-10.992-12.898-21.472-6.453-10.477-13.046-20.884a31.44 31.44 0 0 0 13.996-11.287 31.099 31.099 0 0 0 4.9134-17.733q0-16.123-11.069-24.77-11.069-8.6458-31.73-8.6472h-38.253v104.79h22.278v-38.106zm-15.829-48.953h14.804q10.403 0 15.755 3.8106 5.3488 3.812 5.3502 11.873 0 8.061-5.4242 11.798-5.4228 3.7366-15.829 3.738h-14.656z" fill="#fff" stroke-width="1.3958"/>
 <path d="m120.01 0.001396v104.69h104.69v-104.69zm72.482 73.882a17.105 17.105 0 0 1-7.6464 5.8458 31.091 31.091 0 0 1-11.932 2.0589h-23.46v-58.886h22.099q9.7681 0 15.134 3.9111a13.069 13.069 0 0 1 5.3656 11.242 13.512 13.512 0 0 1-1.9221 7.289 13.235 13.235 0 0 1-5.6852 4.9008 15.698 15.698 0 0 1 7.9674 5.4773 14.913 14.913 0 0 1 2.7624 9.1008 15.27 15.27 0 0 1-2.6828 9.059zm-14.973-28.788a6.9136 6.9136 0 0 0 2.4427-5.642q0-6.9987-9.5294-7.0001h-9.0478v14.66h9.0478a10.874 10.874 0 0 0 7.0866-2.0184zm-5.5652 11.242h-10.569v15.896h10.409a14.275 14.275 0 0 0 8.248-2.0184 6.6539 6.6539 0 0 0 2.8824-5.8067q0-8.0693-10.971-8.0707zm78.916-56.337v104.69h104.69v-104.69zm72.482 73.882a17.105 17.105 0 0 1-7.6464 5.8458 31.091 31.091 0 0 1-11.932 2.0588h-23.46v-58.885h22.099q9.768 0 15.134 3.9111a13.069 13.069 0 0 1 5.3656 11.242 13.512 13.512 0 0 1-1.9221 7.289 13.235 13.235 0 0 1-5.6852 4.9008 15.698 15.698 0 0 1 7.9674 5.4773 14.913 14.913 0 0 1 2.7624 9.1008 15.27 15.27 0 0 1-2.6828 9.059zm-14.973-28.786a6.9136 6.9136 0 0 0 2.4427-5.642q0-6.9987-9.5294-7.0001h-9.0478v14.66h9.0478a10.874 10.874 0 0 0 7.0866-2.0184zm-5.5652 11.242h-10.569v15.896h10.409a14.275 14.275 0 0 0 8.248-2.0184 6.6539 6.6539 0 0 0 2.8824-5.8067q0-8.0693-10.971-8.0707zm78.916 48.35h104.69v-104.69h-104.69zm75.188-26.633a34.163 34.163 0 0 1-8.4783 3.1881 42.888 42.888 0 0 1-10.141 1.1711 36.973 36.973 0 0 1-12.716-2.0589 25.974 25.974 0 0 1-9.5601-5.9323 25.708 25.708 0 0 1-5.984-9.4861 36.176 36.176 0 0 1-2.0798-12.634 33.786 33.786 0 0 1 2.1635-12.392 26.468 26.468 0 0 1 6.2324-9.4847 27.456 27.456 0 0 1 9.7667-6.0551 36.687 36.687 0 0 1 12.758-2.0993 41.081 41.081 0 0 1 9.2683 1.0092 34.424 34.424 0 0 1 8.1042 2.9466v11.464a27.16 27.16 0 0 0-7.3979-3.431 29.691 29.691 0 0 0-8.3946-1.1711 21.916 21.916 0 0 0-10.349 2.2612 15.48 15.48 0 0 0-6.566 6.5381 21.845 21.845 0 0 0-2.285 10.413 22.777 22.777 0 0 0 2.2026 10.455 15.047 15.047 0 0 0 6.3999 6.58 21.217 21.217 0 0 0 10.183 2.2599 31.553 31.553 0 0 0 16.873-4.7626zm88.155-14.988v28.541h-16.686v-78.488h28.651q15.478 0 23.767 6.4767 8.2857 6.4795 8.2871 18.552a22.257 22.257 0 0 1-14.161 21.735q4.9399 7.7971 9.7708 15.643 4.8296 7.8502 9.6592 16.081h-19.43q-7.9032-14.489-16.356-28.541zm0-13.281h10.978q7.793 0 11.855-2.8 4.0605-2.7986 4.0619-8.837 0-6.0356-4.0074-8.8915-4.0074-2.8531-11.8-2.8531h-11.087zm115.92 41.823q-2.8559-8.6709-5.709-17.015h-31.833q-2.8559 8.4546-5.709 17.015h-18.112q7.4635-20.637 15.205-40.288 7.7385-19.648 15.642-38.201h18.223q8.1224 19.542 15.862 39.245 7.7371 19.705 14.984 39.244zm-32.711-31.066h22.064q-2.6353-7.6827-5.434-15.314-2.8-7.6282-5.5443-14.984-5.709 15.04-11.086 30.297zm60.812-47.422h29.969a45.407 45.407 0 0 1 21.24 4.6104 31.155 31.155 0 0 1 13.447 13.337 44.731 44.731 0 0 1 4.6104 21.132 44.964 44.964 0 0 1-4.6649 21.24 31.722 31.722 0 0 1-13.447 13.502 44.871 44.871 0 0 1-21.296 4.6663h-29.858zm28.98 63.998q10.975 0 16.851-6.4222 5.8695-6.4208 5.8723-18.496 0-11.964-5.7634-18.278-5.762-6.3106-16.851-6.312h-12.183v49.509zm53.677-63.999h16.906v78.488h-16.906zm69.268-1.6457a43.271 43.271 0 0 1 16.08 2.8545 34.379 34.379 0 0 1 12.297 8.1768 36.285 36.285 0 0 1 7.846 12.844 53.614 53.614 0 0 1 0 33.866 36.724 36.724 0 0 1-7.8474 12.953 33.998 33.998 0 0 1-12.295 8.2312 46.733 46.733 0 0 1-32.163 0 33.979 33.979 0 0 1-12.296-8.2326 36.702 36.702 0 0 1-7.8488-12.953 53.614 53.614 0 0 1 0-33.864 36.264 36.264 0 0 1 7.8488-12.844 34.36 34.36 0 0 1 12.296-8.1768 43.26 43.26 0 0 1 16.08-2.8545zm0 67.071a20.745 20.745 0 0 0 11.525-3.1281 19.659 19.659 0 0 0 7.356-8.9473 40.985 40.985 0 0 0 0-28.322 19.331 19.331 0 0 0-7.356-8.8915 23.146 23.146 0 0 0-23.052 0 19.304 19.304 0 0 0-7.3546 8.8915 40.968 40.968 0 0 0 0 28.322 19.631 19.631 0 0 0 7.3546 8.9473 20.735 20.735 0 0 0 11.527 3.1281z" fill="#fff" stroke-width="1.3958"/>
</svg>
