<svg width="1e3" height="311.13" version="1.1" viewBox="0 0 1e3 311.13" xmlns="http://www.w3.org/2000/svg">
 <path d="m97.528 250.84a35.682 35.682 0 0 0-18.088-12.09 29.821 29.821 0 0 0 12.907-10.817 29.193 29.193 0 0 0 4.3628-16.087q0-16.179-12.18-24.816-12.181-8.6304-34.359-8.6339h-50.171v129.98h53.263a72.371 72.371 0 0 0 27.084-4.5446 38.731 38.731 0 0 0 17.365-12.908 33.047 33.047 0 0 0 6.0889-19.996 32.276 32.276 0 0 0-6.2707-20.085zm-70.442-51.357h20.542q21.631 0 21.632 15.453a15.073 15.073 0 0 1-5.5436 12.451q-5.5505 4.4563-16.089 4.4529h-20.542zm0 52.719h23.996q24.901 0 24.905 17.815a14.555 14.555 0 0 1-6.5442 12.815q-6.5442 4.4563-18.726 4.4546h-23.632zm93.076 56.172h92.89v-23.268h-64.897v-31.994h54.535v-23.268h-54.535v-28.178h61.443v-23.268h-89.436zm158.15-47.264h2.7268q13.996 23.27 27.086 47.264h32.174q-7.9985-13.634-15.994-26.632-8.0037-12.993-16.181-25.903a38.995 38.995 0 0 0 17.36-13.997 38.592 38.592 0 0 0 6.0906-21.996q0-19.998-13.726-30.723-13.729-10.724-39.356-10.725h-47.446v129.98h27.631v-47.264zm-19.633-60.718h18.36q12.903 0 19.541 4.7264 6.6343 4.7299 6.636 14.726 0 9.9999-6.7278 14.633-6.726 4.6364-19.633 4.6364h-18.178zm154.52 80.169q11.454 13.634 22.905 27.813h35.63q-14.908-17.813-29.541-34.811-14.635-16.998-29.539-33.904 13.996-15.448 27.45-30.632 13.452-15.176 26.541-30.632h-33.63q-10.36 12.725-20.997 24.996-10.632 12.271-22.266 25.36h-7.2731v-50.356h-27.995v129.98h27.995v-55.99h6.7278q12.541 14.543 23.994 28.177zm138.34 25.722a39.492 39.492 0 0 0 18.362-13.996 37.81 37.81 0 0 0 6.3625-22.088 36.779 36.779 0 0 0-3.3639-16.542 29.899 29.899 0 0 0-9.4528-11.089 56.04 56.04 0 0 0-14.089-7.1814q-7.9985-2.8168-17.27-5.18-7.2714-1.8144-12.633-3.7275a21.236 21.236 0 0 1-8.2721-4.9065 11.122 11.122 0 0 1-2.9086-8.0903 12.15 12.15 0 0 1 6.0907-10.909q6.0872-3.8175 17.178-3.8175a77.42 77.42 0 0 1 20.27 2.7268 68.67 68.67 0 0 1 18.088 7.635v-24.723a82.911 82.911 0 0 0-17.997-6.3625 88.34 88.34 0 0 0-20.362-2.3632 70.134 70.134 0 0 0-27.268 4.8164 39.991 39.991 0 0 0-17.723 13.726 35.993 35.993 0 0 0-6.2707 21.271 35.427 35.427 0 0 0 2.9068 14.996 29.167 29.167 0 0 0 8.5439 10.725 55.14 55.14 0 0 0 13.816 7.7267 135.01 135.01 0 0 0 18.906 5.8171 121.65 121.65 0 0 1 11.816 3.5439 22.69 22.69 0 0 1 8.4538 5.09 11.925 11.925 0 0 1 3.1821 8.8174 13.14 13.14 0 0 1-6.4542 11.634q-6.456 4.1845-18.816 4.181a78.167 78.167 0 0 1-41.263-11.816v25.086a80.976 80.976 0 0 0 20.085 7.4532 95.849 95.849 0 0 0 21.179 2.3632 77.586 77.586 0 0 0 28.904-4.8182zm155.43 2.0914v-129.98h-27.995v49.809h-56.537v-49.809h-27.995v129.98h27.995v-55.81h56.537v55.81zm25.086 0h27.995v-129.98h-27.995zm98.889-47.264h2.7285q13.996 23.27 27.088 47.264h32.174q-7.9985-13.634-15.994-26.632-8.0037-12.993-16.181-25.903a38.995 38.995 0 0 0 17.36-13.997 38.592 38.592 0 0 0 6.0907-21.996q0-19.998-13.724-30.723-13.729-10.724-39.361-10.725h-47.444v129.98h27.631v-47.264zm-19.633-60.718h18.362q12.903 0 19.541 4.7264 6.6343 4.7299 6.636 14.726 0 9.9999-6.7278 14.633-6.726 4.6364-19.633 4.6364h-18.178zm95.802 107.98h92.892v-23.268h-64.899v-31.992h54.535v-23.268h-54.535v-28.178h61.443v-23.268h-89.436z" fill="#542582" stroke-width="1.7313"/>
 <path d="m28.693 0.001731v129.85h129.85v-129.85zm89.9 91.635a21.215 21.215 0 0 1-9.484 7.2541 38.563 38.563 0 0 1-14.799 2.5519h-29.098v-73.038h27.41q12.116 0 18.771 4.8511a16.21 16.21 0 0 1 6.6551 13.944 16.759 16.759 0 0 1-2.384 9.0408 16.416 16.416 0 0 1-7.0515 6.0768 19.47 19.47 0 0 1 9.8822 6.7953 18.497 18.497 0 0 1 3.4262 11.288 18.94 18.94 0 0 1-3.3275 11.236zm-18.571-35.704a8.575 8.575 0 0 0 3.0297-6.9978q0-8.6807-11.819-8.6824h-11.222v18.184h11.222a13.487 13.487 0 0 0 8.7897-2.5034zm-6.9026 13.944h-13.109v19.716h12.91a17.706 17.706 0 0 0 10.23-2.5034 8.253 8.253 0 0 0 3.5751-7.2021q0-10.009-13.608-10.01zm97.882-69.876v129.85h129.85v-129.85zm89.9 91.635a21.215 21.215 0 0 1-9.484 7.2541 38.563 38.563 0 0 1-14.799 2.5519h-29.098v-73.036h27.41q12.116 0 18.771 4.8511a16.21 16.21 0 0 1 6.6551 13.944 16.759 16.759 0 0 1-2.384 9.0408 16.416 16.416 0 0 1-7.0515 6.0768 19.47 19.47 0 0 1 9.8822 6.7953 18.497 18.497 0 0 1 3.4262 11.288 18.94 18.94 0 0 1-3.3275 11.236zm-18.571-35.703a8.575 8.575 0 0 0 3.0298-6.9978q0-8.6807-11.819-8.6824h-11.222v18.184h11.222a13.487 13.487 0 0 0 8.7897-2.5034zm-6.9026 13.944h-13.109v19.716h12.91a17.706 17.706 0 0 0 10.23-2.5034 8.253 8.253 0 0 0 3.5751-7.2021q0-10.009-13.608-10.01zm97.882 59.97h129.85v-129.85h-129.85zm93.257-33.033a42.373 42.373 0 0 1-10.516 3.9543 53.195 53.195 0 0 1-12.578 1.4508 45.858 45.858 0 0 1-15.774-2.5519 32.216 32.216 0 0 1-11.856-7.3597 31.887 31.887 0 0 1-7.422-11.766 44.87 44.87 0 0 1-2.5796-15.668 41.906 41.906 0 0 1 2.6835-15.37 32.829 32.829 0 0 1 7.7302-11.766 34.054 34.054 0 0 1 12.114-7.5086 45.503 45.503 0 0 1 15.824-2.6039 50.953 50.953 0 0 1 11.496 1.2517 42.697 42.697 0 0 1 10.052 3.6547v14.217a33.687 33.687 0 0 0-9.1758-4.2538 36.826 36.826 0 0 0-10.412-1.4525 27.183 27.183 0 0 0-12.836 2.8047 19.2 19.2 0 0 0-8.144 8.1093 27.095 27.095 0 0 0-2.8341 12.915 28.251 28.251 0 0 0 2.732 12.967 18.663 18.663 0 0 0 7.9379 8.1595 26.316 26.316 0 0 0 12.628 2.8047 39.136 39.136 0 0 0 20.928-5.9089zm109.34-18.591v35.4h-20.696v-97.35h35.536q19.198 0 29.479 8.0332 10.277 8.0349 10.279 23.009a27.605 27.605 0 0 1-17.564 26.96q6.127 9.671 12.119 19.402 5.9902 9.7367 11.98 19.946h-24.099q-9.8025-17.971-20.287-35.4zm0-16.475h13.617q9.6658 0 14.704-3.4712 5.0363-3.473 5.038-10.961 0-7.4861-4.9705-11.028-4.9705-3.5387-14.636-3.5405h-13.752zm143.78 51.874q-3.5422-10.753-7.081-21.104h-39.484q-3.5422 10.488-7.081 21.104h-22.465q9.2572-25.595 18.859-49.968 9.5982-24.37 19.401-47.382h22.602q10.074 24.238 19.674 48.677 9.5965 24.439 18.585 48.673zm-40.573-38.531h27.366q-3.2687-9.5273-6.7399-18.992-3.473-9.4615-6.8767-18.585-7.081 18.655-13.75 37.578zm75.427-58.819h37.171a56.319 56.319 0 0 1 26.345 5.7184 38.642 38.642 0 0 1 16.679 16.544 55.481 55.481 0 0 1 5.7184 26.208 55.77 55.77 0 0 1-5.786 26.347 39.345 39.345 0 0 1-16.679 16.747 55.654 55.654 0 0 1-26.414 5.786h-37.034zm35.945 79.379q13.611 0 20.9-7.9656 7.28-7.9639 7.2835-22.943 0-14.837-7.1485-22.669-7.1467-7.8271-20.9-7.8289h-15.112v61.407zm66.577-79.379h20.969v97.35h-20.969zm85.915-2.0429a53.67 53.67 0 0 1 19.944 3.5422 42.642 42.642 0 0 1 15.253 10.142 45.003 45.003 0 0 1 9.7315 15.931 66.499 66.499 0 0 1 0 42.003 45.55 45.55 0 0 1-9.7333 16.066 42.169 42.169 0 0 1-15.249 10.211 57.963 57.963 0 0 1-39.892 0 42.145 42.145 0 0 1-15.251-10.211 45.522 45.522 0 0 1-9.735-16.066 66.499 66.499 0 0 1 0-42.003 44.979 44.979 0 0 1 9.735-15.931 42.617 42.617 0 0 1 15.251-10.142 53.656 53.656 0 0 1 19.944-3.5405zm0 83.192a25.73 25.73 0 0 0 14.295-3.8798 24.383 24.383 0 0 0 9.1239-11.098 50.834 50.834 0 0 0 0-35.128 23.977 23.977 0 0 0-9.1239-11.028 28.708 28.708 0 0 0-28.592 0 23.944 23.944 0 0 0-9.1221 11.028 50.813 50.813 0 0 0 0 35.128 24.349 24.349 0 0 0 9.1221 11.098 25.718 25.718 0 0 0 14.297 3.8781z" stroke-width="1.7313"/>
</svg>
