<svg width="1e3" height="327.15" version="1.1" viewBox="0 0 1e3 327.15" xmlns="http://www.w3.org/2000/svg">
 <path d="m0 0v137.75h137.75v-137.75zm95.373 97.216a22.507 22.507 0 0 1-10.061 7.6957 40.91 40.91 0 0 1-15.7 2.7073h-30.869v-77.484h29.078q12.853 0 19.913 5.1464a17.197 17.197 0 0 1 7.0602 14.793 17.779 17.779 0 0 1-2.5291 9.5912 17.415 17.415 0 0 1-7.4808 6.4468 20.655 20.655 0 0 1 10.484 7.209 19.623 19.623 0 0 1 3.6348 11.975 20.093 20.093 0 0 1-3.5301 11.92zm-19.702-37.876a9.0971 9.0971 0 0 0 3.2142-7.4239q0-9.2091-12.539-9.211h-11.905v19.291h11.905a14.308 14.308 0 0 0 9.3248-2.6558zm-7.3228 14.793h-13.907v20.916h13.696a18.784 18.784 0 0 0 10.853-2.6558 8.7555 8.7555 0 0 0 3.7927-7.6406q0-10.618-14.436-10.62zm103.84-74.132v137.75h137.75v-137.75zm95.373 97.216a22.507 22.507 0 0 1-10.061 7.6957 40.91 40.91 0 0 1-15.7 2.7073h-30.869v-77.484h29.078q12.853 0 19.913 5.1464a17.197 17.197 0 0 1 7.0602 14.793 17.779 17.779 0 0 1-2.5291 9.5912 17.415 17.415 0 0 1-7.4808 6.4468 20.655 20.655 0 0 1 10.484 7.209 19.623 19.623 0 0 1 3.6348 11.975 20.093 20.093 0 0 1-3.5301 11.92zm-19.702-37.876a9.0971 9.0971 0 0 0 3.2142-7.4239q0-9.2091-12.539-9.211h-11.905v19.291h11.905a14.308 14.308 0 0 0 9.3248-2.6558zm-7.3229 14.793h-13.907v20.916h13.696a18.784 18.784 0 0 0 10.853-2.6558 8.7555 8.7555 0 0 0 3.7928-7.6406q0-10.618-14.436-10.62zm103.84 63.619h137.75v-137.75h-137.75zm98.935-35.044a44.953 44.953 0 0 1-11.156 4.1968 56.434 56.434 0 0 1-13.344 1.541 48.65 48.65 0 0 1-16.734-2.7091 34.177 34.177 0 0 1-12.578-7.8077 33.828 33.828 0 0 1-7.8738-12.482 47.601 47.601 0 0 1-2.7367-16.622 44.457 44.457 0 0 1 2.8469-16.306 34.827 34.827 0 0 1 8.2008-12.48 36.128 36.128 0 0 1 12.851-7.9675 48.274 48.274 0 0 1 16.787-2.7624 54.055 54.055 0 0 1 12.196 1.3279 45.296 45.296 0 0 1 10.664 3.8772v15.083a35.738 35.738 0 0 0-9.7344-4.5127 39.068 39.068 0 0 0-11.046-1.541 28.838 28.838 0 0 0-13.617 2.9754 20.369 20.369 0 0 0-8.6398 8.603 28.744 28.744 0 0 0-3.0066 13.702 29.971 29.971 0 0 0 2.8983 13.757 19.799 19.799 0 0 0 8.4212 8.6581 27.918 27.918 0 0 0 13.397 2.9736 41.518 41.518 0 0 0 22.202-6.2668zm116-19.72v37.555h-21.956v-103.28h37.7q20.367 0 31.273 8.5222 10.903 8.524 10.904 24.41a29.286 29.286 0 0 1-18.633 28.601q6.5 10.26 12.857 20.584 6.3549 10.329 12.71 21.16h-25.567q-10.399-19.065-21.522-37.555zm0-17.478h14.446q10.254 0 15.599-3.6825 5.3429-3.6825 5.3447-11.628 0-7.9418-5.2731-11.7-5.2731-3.7542-15.527-3.756h-14.589zm152.53 55.033q-3.7578-11.408-7.512-22.389h-41.887q-3.7579 11.127-7.512 22.389h-23.833q9.8207-27.154 20.007-53.01 10.183-25.853 20.582-50.266h23.978q10.688 25.714 20.872 51.64 10.181 25.927 19.717 51.636zm-43.043-40.877h29.032q-3.4677-10.107-7.1502-20.148-3.6844-10.037-7.2953-19.717-7.512 19.79-14.587 39.865zm80.017-62.399h39.434a59.747 59.747 0 0 1 27.951 6.0666 40.995 40.995 0 0 1 17.695 17.549 58.858 58.858 0 0 1 6.0666 27.807 59.165 59.165 0 0 1-6.1382 27.949 41.74 41.74 0 0 1-17.695 17.766 59.042 59.042 0 0 1-28.022 6.1382h-39.288zm38.135 84.212q14.44 0 22.172-8.4506 7.7232-8.4487 7.7269-24.34 0-15.74-7.5837-24.05-7.5818-8.3036-22.172-8.3055h-16.032v65.145zm70.63-84.212h22.246v103.28h-22.246zm91.145-2.1673a56.939 56.939 0 0 1 21.159 3.756 45.237 45.237 0 0 1 16.181 10.763 47.743 47.743 0 0 1 10.324 16.897 70.547 70.547 0 0 1 0 44.562 48.323 48.323 0 0 1-10.326 17.044 44.736 44.736 0 0 1-16.178 10.833 61.492 61.492 0 0 1-42.321 0 44.71 44.71 0 0 1-16.179-10.833 48.294 48.294 0 0 1-10.328-17.044 70.547 70.547 0 0 1 0-44.56 47.717 47.717 0 0 1 10.328-16.901 45.212 45.212 0 0 1 16.179-10.759 56.922 56.922 0 0 1 21.158-3.756zm0 88.256a27.297 27.297 0 0 0 15.166-4.116 25.868 25.868 0 0 0 9.6793-11.773 53.929 53.929 0 0 0 0-37.266 25.436 25.436 0 0 0-9.6793-11.7 30.456 30.456 0 0 0-30.333 0 25.401 25.401 0 0 0-9.6775 11.7 53.907 53.907 0 0 0 0 37.266 25.831 25.831 0 0 0 9.6775 11.773 27.284 27.284 0 0 0 15.167 4.1142z" stroke-width="1.8367"/>
 <path d="m438.39 327.15q-6.557-23.335-12.824-46.672-6.2704-23.331-12.247-46.67-5.7855 23.337-11.957 46.67-6.1731 23.339-12.728 46.67h-31.433q-9.8354-33.745-18.903-68.269-9.064-34.517-17.162-69.621h32.401q4.8195 26.806 10.221 53.616 5.3962 26.805 11.378 52.647 12.917-50.334 24.494-100.48h28.928q5.7819 24.691 11.859 49.275 6.0739 24.59 12.438 49.084 5.7856-25.456 11.185-51.684 5.3962-26.228 10.028-52.459h31.821q-8.0998 35.103-17.164 69.621-9.0677 34.526-18.899 68.269zm144.25-25.651q-8.491-16.967-16.585-34.041-8.0998-17.063-16.007-34.036v93.726h-28.349v-137.89h35.676q9.064 21.216 18.516 42.332 9.4479 21.114 19.285 41.753 9.6426-20.635 19.094-41.559 9.4479-20.925 18.323-42.527h34.711v137.89h-28.349v-94.112q-7.9106 17.353-16.102 34.421-8.2008 17.072-16.493 34.041z" fill="#542582" stroke-width="1.8367"/>
</svg>
