<svg width="800" height="199.01" version="1.1" viewBox="0 0 800 199.01" xmlns="http://www.w3.org/2000/svg">
 <path d="m11.131 146.87v19.039h-11.131v-52.359h19.112c6.883 0 12.168 1.4406 15.854 4.3218 3.685 2.8807 5.5281 7.006 5.5292 12.376 0.28541 6.3582-3.5148 12.191-9.4464 14.498 2.1969 3.4661 4.3691 6.9446 6.5168 10.436 2.1477 3.491 4.2959 7.0668 6.4446 10.727h-12.961c-3.5153-6.4446-7.1522-12.791-10.911-19.039zm0-8.8601h7.3227c3.4655 0 6.1019-0.62218 7.909-1.8666 1.8055-1.2471 2.7085-3.2121 2.709-5.8948 0-2.6861-0.89085-4.664-2.6725-5.9338-1.7828-1.2687-4.407-1.903-7.8725-1.903h-7.3957zm76.961 27.899c-1.2703-3.8547-2.5396-7.6378-3.8077-11.349h-21.236c-1.2703 3.758-2.5396 7.5411-3.8077 11.349h-12.082c3.3196-9.1766 6.7006-18.135 10.143-26.876 3.4412-8.7366 6.9195-17.231 10.435-25.482h12.155c3.612 8.6901 7.1392 17.417 10.582 26.181 3.4423 8.7631 6.7744 17.489 9.9961 26.178h-12.377zm-21.821-20.723h14.719c-1.1719-3.418-2.3801-6.8227-3.6245-10.214-1.2449-3.3931-2.4777-6.7252-3.6983-9.9961-2.5396 6.6868-5.0051 13.424-7.3965 20.21zm40.569-31.636h19.991c5.5159 0 10.239 1.0249 14.17 3.0747 3.8407 1.9639 6.9754 5.0739 8.9696 8.8991 2.0509 3.8796 3.0758 8.5776 3.0747 14.094 0 5.5181-1.0371 10.241-3.1112 14.17-1.9967 3.8506-5.1277 6.9952-8.9696 9.0085-3.9061 2.0763-8.6415 3.1134-14.206 3.1112h-19.918zm19.332 42.694c4.8802 0 8.6268-1.4284 11.24-4.2854 2.6104-2.8541 3.9161-6.9673 3.9172-12.339 0-5.3186-1.2814-9.3822-3.8442-12.191-2.5634-2.8077-6.3103-4.211-11.241-4.2099h-8.1287v33.026zm35.807-42.694h11.276v52.359h-11.276zm46.207-1.0987c3.6644-0.0514 7.305 0.59526 10.727 1.9055 3.0971 1.202 5.8957 3.0632 8.2017 5.4546 2.325 2.4581 4.1089 5.3764 5.2365 8.5666 2.4401 7.3329 2.4401 15.259 0 22.592-1.1259 3.2126-2.9093 6.1551-5.2365 8.6395-2.2967 2.412-5.0971 4.2877-8.2017 5.4935-6.9269 2.5374-14.529 2.5374-21.456 0-3.1043-1.206-5.9044-3.0817-8.2009-5.4935-2.3274-2.4842-4.1109-5.4268-5.2365-8.6395-2.4401-7.3329-2.4401-15.259 0-22.592 1.1265-3.1906 2.9105-6.1091 5.2365-8.5666 2.3054-2.3917 5.1038-4.253 8.2009-5.4546 3.4227-1.3104 7.0637-1.957 10.728-1.9055zm0 44.742c2.7118 0.0735 5.3854-0.65178 7.6884-2.0854 2.1968-1.4524 3.9063-3.5316 4.9064-5.9678 2.2444-6.0976 2.2444-12.795 0-18.893-0.99353-2.4312-2.7052-4.5013-4.9064-5.9338-4.7616-2.732-10.615-2.732-15.377 0-2.202 1.4316-3.914 3.502-4.9064 5.9338-2.2466 6.0972-2.2466 12.796 0 18.893 0.99934 2.4367 2.709 4.5162 4.9064 5.9678 2.3029 1.434 4.9766 2.1592 7.6884 2.0854zm-208.19-123.99v66.373h66.373v-66.373zm46.286 46.841c-1.2281 1.6742-2.9108 2.961-4.8484 3.7074-2.4114 0.92665-4.9815 1.3701-7.564 1.3052h-14.874v-37.335h14.011c4.1289 0 7.3272 0.82672 9.5948 2.4802 2.266 1.6481 3.5457 4.3297 3.4014 7.1279 0.04028 1.6247-0.38218 3.2274-1.2181 4.6212-0.87671 1.3617-2.1285 2.4407-3.6046 3.107 2.0073 0.59729 3.775 1.8125 5.0515 3.4727 1.1978 1.6808 1.8129 3.7074 1.7513 5.7705 0.05433 2.046-0.54107 4.0566-1.7007 5.7431zm-9.4936-18.25c1.0472-0.88458 1.6201-2.2083 1.5481-3.5772 0-2.9586-2.0139-4.4379-6.0416-4.4379h-5.7365v9.2946h5.7365c1.6011 0.10952 3.1902-0.34297 4.4935-1.2795zm-3.5283 7.1279h-6.7008v10.078h6.5997c1.8324 0.11368 3.6561-0.33255 5.229-1.2795 1.2061-0.82717 1.8977-2.22 1.8276-3.6809 0-3.4119-2.3185-5.1179-6.9554-5.1179zm49.702-35.719v66.373h66.373v-66.373zm46.286 46.841c-1.2281 1.6742-2.9108 2.961-4.8484 3.7074-2.4114 0.92667-4.9815 1.3701-7.564 1.3052h-14.874v-37.335h14.011c4.1284 0 7.3266 0.82672 9.5948 2.4802 2.266 1.6481 3.5456 4.3297 3.4014 7.1279 0.0403 1.6247-0.38218 3.2274-1.2181 4.6212-0.87672 1.3617-2.1285 2.4407-3.6046 3.107 2.0073 0.59729 3.775 1.8125 5.0515 3.4727 1.1978 1.6808 1.8129 3.7074 1.7513 5.7705 0.0543 2.046-0.54106 4.0566-1.7007 5.7431zm-9.4936-18.25c1.0472-0.88458 1.6201-2.2083 1.5481-3.5772 0-2.9586-2.0139-4.4379-6.0416-4.4379h-5.7365v9.2946h5.7365c1.6011 0.10952 3.1902-0.34297 4.4935-1.2795zm-3.5283 7.1279h-6.7008v10.078h6.5997c1.8324 0.11368 3.6561-0.33255 5.229-1.2795 1.2061-0.82717 1.8977-2.22 1.8276-3.6809 0-3.4125-2.3185-5.1184-6.9554-5.1179zm49.702 30.654h66.373v-66.373h-66.373zm47.67-16.886c-1.694 0.90935-3.5015 1.5892-5.3749 2.0216-2.1061 0.50239-4.2646 0.75153-6.4297 0.74215-2.7431 0.0401-5.472-0.40169-8.0624-1.3052-4.6106-1.5745-8.2432-5.1784-9.8543-9.7764-0.9119-2.5705-1.3581-5.283-1.3176-8.0102-0.0393-2.6814 0.42574-5.3463 1.3707-7.8559 0.86703-2.2671 2.2157-4.3191 3.9528-6.0143 1.7698-1.7021 3.88-3.0103 6.1917-3.8384 2.5963-0.91882 5.3351-1.3694 8.0889-1.3309 1.9765-0.01031 3.9478 0.20445 5.8758 0.64015 1.7842 0.40467 3.5104 1.0323 5.1378 1.8682v7.268c-1.4451-0.9566-3.0262-1.6899-4.69-2.175-1.7296-0.50064-3.5221-0.75056-5.3227-0.74214-2.2711-0.06576-4.5238 0.42622-6.5607 1.4329-1.7785 0.92424-3.2314 2.3708-4.1635 4.1452-1.021 2.0472-1.519 4.3155-1.4495 6.6022-0.0665 2.2887 0.41217 4.5605 1.3964 6.6279 0.88495 1.7792 2.3034 3.2377 4.0573 4.1718 1.9991 1.0072 4.2179 1.4997 6.4554 1.4329 3.7796 0.02424 7.4887-1.0229 10.698-3.02z" stroke-width=".90677"/>
 <path d="m364.76-5.5314e-6c-40.246 0-76.529 24.244-91.93 61.426s-6.8852 79.979 21.573 108.44 71.255 36.973 108.44 21.573c37.182-15.401 61.426-51.684 61.426-91.93 0-54.955-44.55-99.505-99.505-99.505zm42.288 149.61c-4.3832 6.4789-10.703 11.433-18.96 14.864-8.2578 3.4296-18.23 5.1444-29.916 5.1444-6.8691 0.0215-13.726-0.58438-20.485-1.8102-6.5796-1.2168-13.003-3.1657-19.149-5.8103v-24.01c11.942 5.5341 24.947 8.3951 38.109 8.3833 9.1478 0 16.103-1.7469 20.866-5.2406 4.7646-3.4915 7.1458-8.4776 7.1436-14.958 0-13.21-10.162-19.816-30.487-19.817-4.9537 0-9.8767 0.22278-14.769 0.66834-4.8912 0.44612-10.449 1.1761-16.672 2.1899l6.4786-75.266h77.702v23.423h-53.82l-2.3699 28.406c2.8778-0.4931 5.7784-0.8429 8.691-1.0481 2.7309-0.19071 5.24-0.2858 7.5276-0.28525 9.6526 0 17.972 1.6512 24.959 4.9537 6.7034 3.05 12.32 8.0683 16.102 14.388 3.7447 6.2882 5.6184 13.814 5.6212 22.579 5.6e-4 9.0229-2.1902 16.772-6.5723 23.248z" fill="#00e5df" stroke-width=".90677"/>
 <path d="m497.22 109.59v56.923h40.681v-10.191h-28.42v-14.012h23.882v-10.191h-23.882v-12.339h26.907v-10.191zm44.483 0c2.866 4.5644 5.8123 9.1559 8.8375 13.773 3.0252 4.6175 6.1295 9.1805 9.3139 13.692-3.5028 4.936-6.8734 9.8469-10.111 14.73-3.2375 4.8829-6.4483 9.792-9.6327 14.728h14.25c1.9106-3.5029 3.9287-7.0064 6.0516-10.509 2.1229-3.5029 4.3256-7.0064 6.6078-10.509 2.2291 3.4499 4.4051 6.9267 6.5281 10.43 2.1229 3.5029 4.1659 7.033 6.1296 10.589h14.569c-3.1313-4.989-6.3422-9.9514-9.6327-14.887-3.2905-4.936-6.6345-9.8468-10.031-14.73 3.1313-4.5114 6.1824-9.0478 9.1545-13.612 3.0252-4.5644 5.9982-9.1292 8.9172-13.694h-14.25c-1.7514 3.1845-3.5565 6.3419-5.4141 9.4733-1.8576 3.0784-3.7425 6.1044-5.6532 9.0766-1.9637-3.0253-3.8735-6.0779-5.7311-9.1563-1.8045-3.1314-3.583-6.2622-5.3344-9.3936zm53.4 0v10.667h17.912v46.256h12.259v-46.256h17.912v-10.667zm54.274 0v56.923h12.102v-20.7h9.7921c4.0866 6.7936 8.0412 13.694 11.862 20.7h14.09c-2.3352-3.9806-4.671-7.855-7.0062-11.623-2.3352-3.8214-4.6959-7.6159-7.0842-11.384 3.2905-1.433 5.8109-3.4776 7.5623-6.1313 1.8045-2.6537 2.7062-5.8644 2.7062-9.6327 0-5.8382-2.0163-10.323-6.0499-13.455-3.9805-3.1314-9.7117-4.6968-17.195-4.6968zm72.506 0c-3.8213 8.9697-7.6161 18.204-11.384 27.704-3.7151 9.5004-7.3768 19.241-10.986 29.219h13.136c1.3799-4.1398 2.759-8.2538 4.1389-12.341h23.087c1.3799 4.0337 2.759 8.1477 4.139 12.341h13.455c-3.5029-9.4473-7.1379-18.921-10.906-28.422-3.7151-9.5535-7.5365-19.054-11.464-28.501zm-60.405 9.6327h8.0405c3.7682 0 6.6081 0.6904 8.5187 2.0704 1.9637 1.38 2.9452 3.5292 2.9452 6.4484s-0.98154 5.0684-2.9452 6.4484c-1.9637 1.3269-4.8302 1.9906-8.5984 1.9906h-7.9608zm66.853 2.7858c1.3268 3.556 2.6527 7.1926 3.9795 10.908 1.3799 3.6622 2.7075 7.3502 3.9813 11.065h-16.001c2.6006-7.3774 5.2807-14.702 8.0405-21.973z" fill="#00e5df" stroke-width=".90677"/>
 <path d="m519.35 32.467c-4.6174 0-8.5985 0.71525-11.942 2.1483-3.3436 1.3799-5.9439 3.3713-7.8014 5.9719-1.8045 2.6007-2.7079 5.7048-2.7079 9.3139 0 2.5476 0.42598 4.7501 1.2752 6.6078 0.84917 1.8045 2.0952 3.3717 3.7404 4.6986 1.6453 1.2738 3.6633 2.3884 6.0516 3.3437 2.3883 0.95535 5.1483 1.8037 8.2796 2.5468 1.9106 0.47767 3.6341 1.0083 5.1732 1.5922 1.5391 0.53075 2.7603 1.2744 3.6625 2.2297 0.95532 0.90227 1.4328 2.1748 1.4328 3.8201 0 2.1761-0.95492 3.8746-2.8656 5.0953-1.8576 1.2207-4.5909 1.8313-8.1999 1.8313-6.3688 0-12.393-1.7251-18.072-5.175v10.988c2.8129 1.4861 5.7326 2.5741 8.7578 3.264 3.0782 0.68998 6.1826 1.0343 9.3139 1.0343 4.9358 0 9.1548-0.6904 12.658-2.0704 3.5028-1.433 6.183-3.4758 8.0405-6.1296 1.8576-2.7068 2.7876-5.9441 2.7876-9.7124 0-2.866-0.50584-5.2816-1.5142-7.2453-0.95531-1.9638-2.3344-3.5824-4.1389-4.8562-1.7514-1.2738-3.7943-2.3085-6.1296-3.1046-2.3352-0.8492-4.8574-1.6195-7.5641-2.3094-2.1229-0.53075-3.9795-1.0614-5.5717-1.5922-1.5391-0.58382-2.7336-1.2991-3.5828-2.1483-0.84917-0.90228-1.2734-2.0967-1.2734-3.5828 0-2.0699 0.87504-3.6619 2.6265-4.7765 1.8045-1.1146 4.3266-1.6719 7.5641-1.6719 2.9721 0 5.9167 0.39756 8.8357 1.1937 2.9721 0.79612 5.6256 1.9107 7.9608 3.3437v-10.828c-2.3352-1.1676-4.9621-2.0959-7.8811-2.7858-2.919-0.68997-5.8903-1.0343-8.9154-1.0343zm103.98 0c-4.2989 0-8.1984 0.68863-11.701 2.0686-3.4498 1.3799-6.4228 3.3713-8.9172 5.9719-2.4414 2.5476-4.3246 5.6517-5.6514 9.3139-1.3268 3.6091-1.9906 7.6965-1.9906 12.261 0 4.5114 0.66382 8.5987 1.9906 12.261 1.3268 3.6622 3.21 6.7929 5.6514 9.3936 2.4944 2.6007 5.4674 4.5902 8.9172 5.9702 3.5028 1.38 7.4023 2.0704 11.701 2.0704 4.2989 0 8.1736-0.6904 11.623-2.0704 3.5028-1.38 6.4758-3.3695 8.9172-5.9702 2.4944-2.6007 4.4043-5.7314 5.7311-9.3936s1.9906-7.7495 1.9906-12.261c0-4.5644-0.66383-8.6518-1.9906-12.261-1.3268-3.6622-3.2366-6.7663-5.7311-9.3139-2.4414-2.6007-5.4144-4.592-8.9172-5.9719-3.4498-1.38-7.3244-2.0686-11.623-2.0686zm157.09 0c-4.6173 0-8.5967 0.71525-11.94 2.1483-3.3436 1.3799-5.9438 3.3713-7.8014 5.9719-1.8045 2.6007-2.7079 5.7048-2.7079 9.3139 0 2.5476 0.42419 4.7501 1.2734 6.6078 0.84919 1.8045 2.0969 3.3717 3.7422 4.6986 1.6453 1.2738 3.6616 2.3884 6.0499 3.3437 2.3883 0.95535 5.1483 1.8037 8.2796 2.5468 1.9106 0.47767 3.6359 1.0083 5.175 1.5922 1.5392 0.53075 2.7603 1.2744 3.6624 2.2297 0.95538 0.90227 1.4328 2.1748 1.4328 3.8201 0 2.1761-0.95493 3.8746-2.8656 5.0953-1.8575 1.2207-4.5909 1.8313-8.1998 1.8313-6.3688 0-12.393-1.7251-18.072-5.175v10.988c2.8129 1.4861 5.7326 2.5741 8.7578 3.264 3.0783 0.68998 6.1827 1.0343 9.314 1.0343 4.9358 0 9.1548-0.6904 12.658-2.0704 3.5028-1.433 6.1829-3.4758 8.0404-6.1296 1.8576-2.7068 2.7859-5.9441 2.7859-9.7124 0-2.866-0.50398-5.2816-1.5125-7.2453-0.95528-1.9638-2.3344-3.5824-4.1389-4.8562-1.7514-1.2738-3.7943-2.3085-6.1296-3.1046-2.3351-0.8492-4.8573-1.6195-7.5641-2.3094-2.1228-0.53075-3.9795-1.0614-5.5717-1.5922-1.5391-0.58382-2.7336-1.2991-3.5828-2.1483-0.84913-0.90228-1.2733-2.0967-1.2733-3.5828 0-2.0699 0.87503-3.6619 2.6264-4.7765 1.8045-1.1146 4.3249-1.6719 7.5624-1.6719 2.9721 0 5.9184 0.39756 8.8375 1.1937 2.972 0.79612 5.6256 1.9107 7.9607 3.3437v-10.828c-2.3351-1.1676-4.962-2.0959-7.8811-2.7858-2.919-0.68997-5.8919-1.0343-8.9171-1.0343zm-233.67 1.1937v56.923h12.1v-19.425h8.2796c4.8827 0 9.0218-0.71702 12.419-2.15 3.3967-1.4861 5.9721-3.6088 7.7235-6.3687 1.8045-2.813 2.7061-6.2099 2.7061-10.191 0-6.0505-1.9631-10.695-5.8905-13.933-3.9274-3.2376-9.5539-4.8562-16.878-4.8562zm112.98 0v56.923h12.1v-20.7h9.7921c4.0866 6.7936 8.0412 13.694 11.862 20.7h14.09c-2.3352-3.9806-4.6692-7.855-7.0045-11.623-2.3352-3.8214-4.6976-7.6159-7.0859-11.384 3.2905-1.433 5.8109-3.4776 7.5624-6.1313 1.8045-2.6537 2.7079-5.8644 2.7079-9.6327 0-5.8382-2.0181-10.323-6.0516-13.455-3.9805-3.1314-9.7117-4.6968-17.195-4.6968zm46.895 0v10.669h17.912v46.254h12.259v-46.254h17.912v-10.669zm-83.283 9.4733c3.2375 0 6.0241 0.74364 8.3593 2.2297 2.3352 1.4861 4.1137 3.6354 5.3344 6.4484s1.8312 6.2366 1.8312 10.27-0.61056 7.4573-1.8312 10.27c-1.2207 2.813-2.9992 4.9889-5.3344 6.5281-2.3352 1.4861-5.1218 2.2297-8.3593 2.2297s-6.0223-0.74364-8.3576-2.2297c-2.3352-1.5392-4.1137-3.7151-5.3344-6.5281s-1.8312-6.2366-1.8312-10.27 0.61057-7.4573 1.8312-10.27c1.2207-2.813 2.9992-4.9623 5.3344-6.4484s5.1201-2.2297 8.3576-2.2297zm-64.489 0.15939h7.7217c3.5559 0 6.2627 0.74364 8.1202 2.2297 1.9106 1.4861 2.8673 3.7951 2.8673 6.9265s-0.95668 5.4404-2.8673 6.9265c-1.8576 1.433-4.5892 2.1483-8.1981 2.1483h-7.6438zm112.98 0h8.0405c3.7682 0 6.6081 0.6904 8.5187 2.0703 1.9637 1.3799 2.9452 3.5292 2.9452 6.4484 0 2.9191-0.98154 5.0684-2.9452 6.4484-1.9637 1.3269-4.8284 1.9906-8.5966 1.9906h-7.9626z" fill="#00e5df" stroke-width=".90677"/>
</svg>
