<svg width="800" height="182.04" version="1.1" viewBox="0 0 800 182.04" xmlns="http://www.w3.org/2000/svg">
 <path d="m10.182 134.34v17.414h-10.182v-47.892h17.482c6.2958 0 11.13 1.3177 14.502 3.9531 3.3706 2.6344 5.0564 6.4078 5.0574 11.32 0.26073 5.8154-3.2152 11.15-8.6404 13.26 2.0089 3.1704 3.9958 6.3521 5.9608 9.5453 1.9644 3.1931 3.9293 6.4639 5.8948 9.8122h-11.856c-3.2154-5.8948-6.542-11.7-9.9799-17.414h-8.2392zm0-8.1049h6.698c3.1699 0 5.5813-0.5691 7.2342-1.7073 1.6514-1.1407 2.4774-2.9383 2.4779-5.3927 0-2.4564-0.81484-4.2653-2.4445-5.4268-1.6307-1.1604-4.031-1.7407-7.2009-1.7407h-6.7647zm70.395 25.519c-1.162-3.5264-2.3229-6.9867-3.4829-10.381h-19.424c-1.162 3.4374-2.3229 6.8977-3.4829 10.381h-11.052c3.0364-8.3937 6.1289-16.588 9.2775-24.583 3.1476-7.9912 6.3291-15.761 9.5445-23.308h11.118c3.3039 7.9487 6.5301 15.931 9.6788 23.947 3.1481 8.0154 6.1959 15.997 9.1433 23.945h-11.321zm-19.96-18.956h13.463c-1.072-3.1264-2.177-6.2406-3.3152-9.3428-1.1387-3.1036-2.2663-6.1514-3.3827-9.1433-2.3229 6.1168-4.5781 12.279-6.7655 18.486zm37.108-28.936h18.286c5.0453 0 9.3655 0.93745 12.961 2.8124 3.5131 1.7963 6.3803 4.641 8.2043 8.1398 1.8759 3.5486 2.8134 7.8458 2.8124 12.892 0 5.0473-0.94859 9.3675-2.8458 12.961-1.8263 3.5221-4.6902 6.3984-8.2043 8.24-3.5734 1.8992-7.9047 2.8478-12.994 2.8458h-18.219zm17.683 39.051c4.4638 0 7.8908-1.3066 10.281-3.9197 2.3876-2.6106 3.582-6.3729 3.583-11.287 0-4.8648-1.1721-8.5818-3.5162-11.151-2.3447-2.5687-5.7716-3.8522-10.281-3.8507h-7.4352v30.208zm32.752-39.051h10.314v47.892h-10.314zm42.265-1.005c3.3517-0.047 6.6818 0.54447 9.8122 1.743 2.8328 1.0994 5.3927 2.8018 7.502 4.9892 2.1266 2.2482 3.7582 4.9172 4.7897 7.8349 2.2321 6.7075 2.2321 13.958 0 20.665-1.0298 2.9385-2.6611 5.6299-4.7897 7.9024-2.1008 2.2062-4.6623 3.9218-7.502 5.0248-6.3359 2.3209-13.289 2.3209-19.625 0-2.8394-1.1031-5.4006-2.8187-7.5012-5.0248-2.129-2.2725-3.7603-4.9643-4.7897-7.9032-2.2318-6.7071-2.2318-13.957 0-20.664 1.0301-2.9186 2.6619-5.5881 4.7897-7.8357 2.1087-2.1877 4.6684-3.8901 7.5012-4.9892 3.1307-1.1986 6.461-1.7901 9.813-1.743zm0 40.925c2.4804 0.0671 4.9259-0.59618 7.0325-1.9075 2.0094-1.3284 3.573-3.2303 4.4878-5.4587 2.0529-5.5774 2.0529-11.703 0-17.281-0.90877-2.2237-2.4744-4.1172-4.4878-5.4276-4.3553-2.4989-9.7096-2.4989-14.065 0-2.0142 1.3095-3.58 3.2032-4.4878 5.4276-2.0549 5.577-2.0549 11.704 0 17.281 0.91404 2.2288 2.4778 4.1309 4.4878 5.4587 2.1064 1.3116 4.552 1.975 7.0325 1.9075zm-190.42-113.41v60.711h60.71v-60.71zm42.337 42.846c-1.1234 1.5312-2.6625 2.7078-4.4347 3.3903-2.2056 0.84787-4.5565 1.2538-6.9187 1.1946h-13.605v-34.15h12.816c3.7766 0 6.702 0.75594 8.7762 2.2678 2.0729 1.5076 3.2434 3.9608 3.1112 6.5205 0.03685 1.4861-0.34957 2.9521-1.1142 4.2269-0.80191 1.2455-1.9469 2.2325-3.297 2.842 1.836 0.54633 3.4529 1.6579 4.6206 3.1764 1.0956 1.5374 1.6582 3.3911 1.6019 5.2782 0.04981 1.8714-0.49481 3.7105-1.5556 5.2531zm-8.6836-16.692c0.95787-0.80911 1.4819-2.0199 1.4161-3.272 0-2.7062-1.8421-4.0593-5.5262-4.0593h-5.247v8.5009h5.247c1.4645 0.09979 2.9179-0.31406 4.1101-1.1703zm-3.2273 6.519h-6.1291v9.2184h6.0366c1.6761 0.10398 3.3442-0.30418 4.7829-1.1703 1.1034-0.75674 1.736-2.0311 1.6717-3.3676 0-3.1198-2.1207-4.68-6.362-4.6805zm45.462-32.672v60.71h60.71v-60.71zm42.337 42.845c-1.1234 1.5311-2.6626 2.7078-4.4347 3.3903-2.2056 0.84787-4.5565 1.2538-6.9187 1.1946h-13.605v-34.15h12.816c3.7761 0 6.7015 0.75594 8.7762 2.2678 2.0729 1.5076 3.2434 3.9608 3.1112 6.5205 0.0368 1.4861-0.34957 2.9521-1.1142 4.2269-0.80191 1.2455-1.9469 2.2325-3.297 2.842 1.836 0.54633 3.4529 1.6579 4.6206 3.1764 1.0956 1.5374 1.6582 3.3911 1.6019 5.2782 0.0499 1.8715-0.49476 3.7106-1.5556 5.2531zm-8.6836-16.692c0.95788-0.8091 1.4819-2.0199 1.4161-3.272 0-2.7062-1.8421-4.0593-5.5262-4.0593h-5.247v8.5009h5.247c1.4644 0.09979 2.9179-0.31406 4.1101-1.1703zm-3.2273 6.519h-6.1291v9.2184h6.0366c1.6761 0.10398 3.3442-0.30418 4.7829-1.1703 1.1034-0.75674 1.736-2.0311 1.6716-3.3676 0-3.1198-2.1207-4.68-6.362-4.6805zm45.462 28.039h60.71v-60.71h-60.71zm43.603-15.445c-1.5495 0.83176-3.2028 1.4536-4.9164 1.8491-1.9264 0.45952-3.9007 0.68741-5.8811 0.67883-2.5091 0.0366-5.0052-0.36742-7.3745-1.1938-4.2172-1.4402-7.54-4.7366-9.0136-8.9423-0.83409-2.3512-1.2422-4.8323-1.2052-7.3268-0.0358-2.4526 0.38942-4.8901 1.2537-7.1857 0.79306-2.0737 2.0266-3.9506 3.6156-5.5011 1.6188-1.5572 3.5489-2.754 5.6634-3.5117 2.3748-0.84016 4.88-1.2521 7.3988-1.2166 1.8079-0.0094 3.611 0.18702 5.3745 0.58553 1.632 0.37015 3.2109 0.94426 4.6994 1.7088v6.6479c-1.3218-0.87499-2.7681-1.5457-4.2899-1.9894-1.5821-0.45791-3.2216-0.68652-4.8686-0.67882-2.0774-0.06015-4.1378 0.38986-6.001 1.3106-1.6268 0.84538-2.9557 2.1685-3.8082 3.7916-0.93395 1.8726-1.3894 3.9473-1.3258 6.0389-0.0607 2.0935 0.37703 4.1714 1.2772 6.0624 0.80959 1.6271 2.107 2.9609 3.7112 3.8151 1.8285 0.92154 3.858 1.3723 5.9046 1.3114 3.4571 0.0222 6.8498-0.93559 9.7849-2.7623z" fill="#004be1" stroke-width=".82968"/>
 <path d="m333.78-3.074e-6c-36.814 0-70.002 22.177-84.089 56.188s-6.2988 73.158 19.732 99.189c26.031 26.031 65.18 33.82 99.191 19.732 34.011-14.087 56.187-47.276 56.187-84.089 0-50.269-40.751-91.02-91.02-91.02zm5.3427 31.047h26.841v78.256l13.072 8e-3v22.447l-13.072-8e-3v21.126h-24.748v-21.126h-59.087v-22.62c8.9458-13.131 18.039-26.028 27.277-38.694 9.2376-12.663 19.143-25.793 29.716-39.389zm2.0936 28.932c-6.1618 8.3674-12.205 16.645-18.128 24.835-5.9261 8.1914-11.678 16.355-17.255 24.489h35.383z" fill="#004be1" stroke-width=".82968"/>
 <path d="m454.77 53.16v75.694h54.106v-13.552h-1.9057v-0.63522h-35.893v-17.997h31.764v-13.55h-31.764v-16.409h35.788v-13.55h-35.788zm59.011 0c3.8118 6.0696 7.7297 12.174 11.753 18.315 4.0236 6.1402 8.1532 12.21 12.388 18.209-4.6588 6.5636-9.1424 13.092-13.448 19.585s-8.5761 13.021-12.811 19.585h18.953c2.5412-4.6581 5.2237-9.3169 8.0472-13.975 2.8236-4.658 5.7525-9.3169 8.7878-13.975 2.9647 4.5875 5.8589 9.2116 8.6825 13.87 2.8236 4.6581 5.5424 9.3516 8.1542 14.08h19.376c-4.1647-6.6342-8.4349-13.234-12.811-19.797s-8.8236-13.092-13.341-19.585c4.1647-5.999 8.2232-12.033 12.176-18.102 4.0236-6.0696 7.9762-12.14 11.859-18.209h-18.953c-2.3294 4.2346-4.7291 8.4335-7.1998 12.598-2.4706 4.0934-4.9762 8.117-7.5174 12.069-2.6118-4.0229-5.1537-8.0812-7.6243-12.175-2.4-4.164-4.765-8.3282-7.0944-12.492zm70.988 0v14.186h23.824v61.508h16.307v-61.508h23.823v-14.186zm70.795 0v75.694h16.258v-27.525h13.155c5.4903 9.0338 10.802 18.209 15.936 27.525h18.93c-3.1373-5.2932-6.2744-10.447-9.4117-15.458-3.1373-5.0815-6.31-10.128-9.5186-15.138 4.4208-1.9056 7.8074-4.6221 10.16-8.151 2.4243-3.5288 3.6363-7.7989 3.6363-12.81 0-7.7634-2.7093-13.728-8.1283-17.892-5.3477-4.164-13.048-6.2453-23.101-6.2453zm97.11 0c-5.0824 11.927-10.13 24.208-15.142 36.841-4.9412 12.633-9.8118 25.584-14.612 38.852h17.47c1.8353-5.505 3.671-10.976 5.5064-16.41h30.706c1.8353 5.3638 3.6694 10.835 5.5047 16.41h17.895c-4.6588-12.563-9.4946-25.161-14.506-37.794-4.9412-12.704-10.023-25.337-15.247-37.9zm-80.852 12.81h10.802c5.0625 0 8.8769 0.91658 11.444 2.7516 2.6382 1.835 3.9572 4.6938 3.9572 8.5755s-1.319 6.7405-3.9572 8.5755c-2.6382 1.7644-6.4882 2.6462-11.551 2.6462h-10.695zm89.427 3.7044c1.7647 4.7286 3.5294 9.5628 5.2941 14.503 1.8353 4.8698 3.5999 9.7751 5.2941 14.715h-21.282c3.4588-9.8101 7.0229-19.55 10.693-29.219z" fill="#004be1" stroke-width=".82968"/>
</svg>
