<svg width="1e3" height="330.06" version="1.1" viewBox="0 0 1e3 330.06" xmlns="http://www.w3.org/2000/svg">
 <path d="m194.72 324.93a41.88 41.88 0 0 0 19.478-14.848 40.113 40.113 0 0 0 6.7498-23.434 39.011 39.011 0 0 0-3.5668-17.548 31.696 31.696 0 0 0-10.03-11.762 59.411 59.411 0 0 0-14.945-7.6186q-8.4873-2.9864-18.323-5.4972-7.7122-1.9248-13.4-3.9525a22.531 22.531 0 0 1-8.7775-5.2088 11.793 11.793 0 0 1-3.0856-8.5828 12.888 12.888 0 0 1 6.4633-11.571q6.4559-4.048 18.222-4.0499a82.076 82.076 0 0 1 21.506 2.8928 72.852 72.852 0 0 1 19.188 8.0998v-26.228a87.959 87.959 0 0 0-19.092-6.7498 93.79 93.79 0 0 0-21.599-2.5089 74.38 74.38 0 0 0-28.928 5.1133 42.426 42.426 0 0 0-18.802 14.559 38.186 38.186 0 0 0-6.6543 22.565 37.575 37.575 0 0 0 3.0838 15.909 30.93 30.93 0 0 0 9.064 11.38 58.495 58.495 0 0 0 14.657 8.1953 143.23 143.23 0 0 0 20.058 6.1712 128.67 128.67 0 0 1 12.535 3.7615 24.086 24.086 0 0 1 8.9667 5.398 12.657 12.657 0 0 1 3.3758 9.3542 13.939 13.939 0 0 1-6.8472 12.343q-6.8472 4.4374-19.959 4.4374a82.928 82.928 0 0 1-43.777-12.537v26.614a86.012 86.012 0 0 0 21.309 7.9069 101.6 101.6 0 0 0 22.468 2.5052 82.309 82.309 0 0 0 30.663-5.1096zm137.12-1.9285a47.785 47.785 0 0 0 20.347-20.345q7.0382-13.305 7.0418-32.012v-81.385h-29.703v84.662q0 14.657-7.6167 22.466-7.6222 7.8132-21.695 7.8132-14.082 0-21.697-7.8132-7.6222-7.8096-7.6186-22.466v-84.662h-29.699v81.385q0 18.707 7.04 32.012a47.926 47.926 0 0 0 20.248 20.345q13.209 7.0382 31.727 7.0382a66.771 66.771 0 0 0 31.626-7.0382zm104.33-45.996h2.8946q14.848 24.691 28.735 50.145h34.133q-8.4855-14.464-16.969-28.256-8.491-13.786-17.164-27.48a41.362 41.362 0 0 0 18.416-14.851 40.93 40.93 0 0 0 6.4614-23.331q0-21.219-14.561-32.596-14.565-11.376-41.753-11.376h-50.332v137.89h29.313v-50.147zm-20.828-64.412h19.48q13.689 0 20.731 5.0142 7.0382 5.0178 7.04 15.625 0 10.605-7.1374 15.524-7.1355 4.915-20.828 4.9186h-19.285zm151.77 64.412h2.8946q14.848 24.691 28.735 50.145h34.137q-8.4873-14.464-16.971-28.256-8.4928-13.786-17.166-27.48a41.386 41.386 0 0 0 18.418-14.851 40.93 40.93 0 0 0 6.4633-23.331q0-21.219-14.565-32.596t-41.753-11.376h-50.332v137.89h29.313v-50.147zm-20.828-64.412h19.48q13.689 0 20.731 5.0142 7.0382 5.0178 7.04 15.625 0 10.605-7.1374 15.524-7.1355 4.915-20.828 4.9186h-19.285zm101.64 114.56h98.545v-24.691h-68.848v-33.94h57.855v-24.685h-57.855v-29.892h65.184v-24.685h-94.881zm213.48-94.883q12.917-21.41 25.456-43.008h-32.98q-8.0998 15.239-16.392 30.375-8.2945 15.142-16.971 30.18-8.4873-14.851-16.875-30.087-8.3863-15.23-16.293-30.471h-33.749q12.337 21.599 25.264 43.008 12.917 21.41 26.421 42.62v52.265h29.697v-52.265q13.5-21.212 26.422-42.62z" fill="#542582" stroke-width="1.8367"/>
 <path d="m0 0v137.75h137.75v-137.75zm95.373 97.216a22.507 22.507 0 0 1-10.061 7.6939 40.91 40.91 0 0 1-15.7 2.7091h-30.869v-77.486h29.078q12.853 0 19.913 5.1482a17.197 17.197 0 0 1 7.0602 14.793 17.779 17.779 0 0 1-2.5291 9.5912 17.415 17.415 0 0 1-7.4808 6.4468 20.655 20.655 0 0 1 10.484 7.2071 19.623 19.623 0 0 1 3.6348 11.975 20.093 20.093 0 0 1-3.5301 11.92zm-19.702-37.876a9.0971 9.0971 0 0 0 3.2142-7.4239q0-9.2091-12.539-9.211h-11.905v19.289h11.905a14.308 14.308 0 0 0 9.3248-2.654zm-7.3228 14.791h-13.907v20.916h13.696a18.784 18.784 0 0 0 10.853-2.654 8.7555 8.7555 0 0 0 3.7927-7.6406q0-10.62-14.436-10.622zm103.84-74.13v137.75h137.75v-137.75zm95.373 97.216a22.507 22.507 0 0 1-10.061 7.6939 40.91 40.91 0 0 1-15.7 2.7091h-30.869v-77.486h29.078q12.853 0 19.913 5.1482a17.197 17.197 0 0 1 7.0602 14.793 17.779 17.779 0 0 1-2.5291 9.5912 17.415 17.415 0 0 1-7.4808 6.4468 20.655 20.655 0 0 1 10.484 7.2071 19.623 19.623 0 0 1 3.6348 11.975 20.093 20.093 0 0 1-3.5301 11.92zm-19.702-37.876a9.0971 9.0971 0 0 0 3.2142-7.4239q0-9.2091-12.539-9.211h-11.905v19.289h11.905a14.308 14.308 0 0 0 9.3248-2.654zm-7.3229 14.791h-13.907v20.916h13.696a18.784 18.784 0 0 0 10.853-2.654 8.7555 8.7555 0 0 0 3.7928-7.6406q0-10.62-14.436-10.622zm103.84 63.621h137.75v-137.75h-137.75zm98.933-35.044a44.953 44.953 0 0 1-11.154 4.195 56.434 56.434 0 0 1-13.344 1.541 48.65 48.65 0 0 1-16.734-2.7091 34.177 34.177 0 0 1-12.578-7.8059 33.828 33.828 0 0 1-7.8738-12.482 47.601 47.601 0 0 1-2.7367-16.624 44.457 44.457 0 0 1 2.8469-16.306 34.827 34.827 0 0 1 8.2008-12.48 36.128 36.128 0 0 1 12.851-7.9675 48.274 48.274 0 0 1 16.787-2.7605 54.055 54.055 0 0 1 12.196 1.3279 45.296 45.296 0 0 1 10.664 3.8754v15.085a35.738 35.738 0 0 0-9.7344-4.5146 39.07 39.07 0 0 0-11.046-1.5391 28.838 28.838 0 0 0-13.617 2.9736 20.369 20.369 0 0 0-8.6398 8.603 28.744 28.744 0 0 0-3.0066 13.702 29.971 29.971 0 0 0 2.8983 13.757 19.799 19.799 0 0 0 8.4212 8.6581 27.918 27.918 0 0 0 13.397 2.9754 41.518 41.518 0 0 0 22.202-6.2686zm116-19.72v37.555h-21.956v-103.28h37.7q20.367 0 31.273 8.5222 10.903 8.5222 10.904 24.41a29.286 29.286 0 0 1-18.633 28.601q6.5 10.258 12.857 20.582 6.3549 10.33 12.71 21.162h-25.567q-10.399-19.067-21.522-37.556h-17.766zm0-17.478h14.446q10.254 0 15.599-3.6844 5.3429-3.6825 5.3447-11.626 0-7.9437-5.2731-11.7-5.2731-3.756-15.527-3.756h-14.589zm152.53 55.033q-3.7578-11.409-7.512-22.389h-41.887q-3.7579 11.125-7.512 22.389h-23.833q9.8207-27.154 20.007-53.01 10.183-25.853 20.582-50.266h23.978q10.688 25.714 20.872 51.638 10.181 25.928 19.717 51.638zm-43.043-40.877h29.032q-3.4677-10.109-7.1502-20.148-3.6844-10.039-7.2953-19.719-7.512 19.792-14.587 39.867zm80.019-62.399h39.434a59.747 59.747 0 0 1 27.949 6.0666 40.995 40.995 0 0 1 17.695 17.549 58.858 58.858 0 0 1 6.0666 27.806 59.165 59.165 0 0 1-6.1382 27.951 41.74 41.74 0 0 1-17.695 17.764 59.042 59.042 0 0 1-28.022 6.14h-39.288zm38.133 84.212q14.44 0 22.172-8.4524 7.7232-8.4487 7.7269-24.338 0-15.74-7.5837-24.05-7.5818-8.3055-22.172-8.3055h-16.032v65.143zm70.63-84.212h22.246v103.28h-22.246zm91.145-2.1673a56.939 56.939 0 0 1 21.159 3.756 45.237 45.237 0 0 1 16.181 10.761 47.743 47.743 0 0 1 10.324 16.899 70.547 70.547 0 0 1 0 44.562 48.323 48.323 0 0 1-10.326 17.044 44.736 44.736 0 0 1-16.178 10.833 61.492 61.492 0 0 1-42.321 0 44.71 44.71 0 0 1-16.179-10.833 48.294 48.294 0 0 1-10.328-17.044 70.547 70.547 0 0 1 0-44.562 47.717 47.717 0 0 1 10.328-16.899 45.212 45.212 0 0 1 16.179-10.761 56.922 56.922 0 0 1 21.158-3.756zm0 88.254a27.297 27.297 0 0 0 15.166-4.1142 25.868 25.868 0 0 0 9.6793-11.773 53.929 53.929 0 0 0 0-37.266 25.436 25.436 0 0 0-9.6793-11.7 30.456 30.456 0 0 0-30.333 0 25.401 25.401 0 0 0-9.6775 11.7 53.907 53.907 0 0 0 0 37.266 25.831 25.831 0 0 0 9.6775 11.773 27.284 27.284 0 0 0 15.167 4.1142z" stroke-width="1.8367"/>
</svg>
