<svg width="1e3" height="304.52" version="1.1" viewBox="0 0 1e3 304.52" xmlns="http://www.w3.org/2000/svg">
 <path d="m86.661 301.93a71.913 71.913 0 0 0 18.151-7.0276v-24.733a66.11 66.11 0 0 1-36.121 10.498 44.329 44.329 0 0 1-21.796-4.9822 32.72 32.72 0 0 1-13.701-14.502 51.459 51.459 0 0 1-4.7161-23.042 49.335 49.335 0 0 1 4.8924-22.954 33.643 33.643 0 0 1 14.059-14.414 45.799 45.799 0 0 1 22.152-4.9822 61.908 61.908 0 0 1 17.971 2.5792 57.366 57.366 0 0 1 15.836 7.5631v-25.267a72.306 72.306 0 0 0-17.348-6.4954 85.51 85.51 0 0 0-19.841-2.2233 76.471 76.471 0 0 0-27.314 4.6263 57.527 57.527 0 0 0-34.252 34.253 76.463 76.463 0 0 0-4.6263 27.314 81.862 81.862 0 0 0 4.4484 27.846 56.932 56.932 0 0 0 12.811 20.908 55.397 55.397 0 0 0 20.461 13.077 77.093 77.093 0 0 0 27.224 4.5365 89.325 89.325 0 0 0 21.708-2.5792zm65.217-125.36a55.671 55.671 0 0 0-19.93 13.257 58.756 58.756 0 0 0-12.723 20.818 86.898 86.898 0 0 0 0 54.894 59.486 59.486 0 0 0 12.723 20.996 55.068 55.068 0 0 0 19.929 13.345 75.758 75.758 0 0 0 52.135 0 55.102 55.102 0 0 0 19.929-13.345 59.522 59.522 0 0 0 12.723-20.996 86.898 86.898 0 0 0 0-54.894 58.791 58.791 0 0 0-12.723-20.82 55.705 55.705 0 0 0-19.929-13.255 75.739 75.739 0 0 0-52.133 0zm7.3817 99.021a31.81 31.81 0 0 1-11.92-14.501 66.403 66.403 0 0 1 0-45.907 31.283 31.283 0 0 1 11.92-14.414 37.515 37.515 0 0 1 37.366 0 31.332 31.332 0 0 1 11.923 14.414 66.441 66.441 0 0 1 0 45.907 31.86 31.86 0 0 1-11.922 14.501 36.951 36.951 0 0 1-37.366 0zm145.19-20.018h2.6707q13.699 22.779 26.512 46.263h31.496q-7.8308-13.343-15.658-26.067-7.8359-12.72-15.838-25.355a38.169 38.169 0 0 0 16.992-13.703 37.776 37.776 0 0 0 5.965-21.528q0-19.574-13.438-30.073-13.438-10.496-38.524-10.498h-46.439v127.22h27.046v-46.263zm-19.217-59.43h17.973q12.63 0 19.127 4.6263 6.4938 4.628 6.4954 14.414 0 9.7864-6.5853 14.323-6.5836 4.5365-19.217 4.5382h-17.793zm202.67 105.69v-127.22h-26.333v87.012q-13.881-22.24-27.846-43.862-13.97-21.622-28.381-43.15h-27.758v127.22h26.334v-87.9q13.879 20.998 28.114 43.326 14.231 22.335 28.114 44.573zm151.78 0q9.0746-31.135 17.438-62.987 8.3612-31.849 15.836-64.236h-29.359q-4.2704 24.199-9.2526 48.4-4.9839 24.199-10.32 47.686-5.8718-22.594-11.476-45.285-5.6041-22.687-10.944-45.463h-26.69q-10.679 46.268-22.599 92.706-5.516-23.843-10.498-48.576-4.9822-24.731-9.4305-49.466h-29.893q7.4732 32.384 15.834 64.234 8.3646 31.854 17.439 62.989h29.003q6.0481-21.528 11.744-43.06 5.6939-21.528 11.032-43.06 5.5143 21.532 11.3 43.06 5.7786 21.53 11.833 43.06zm153.74 0q-11.744-31.669-24.291-63.611-12.545-31.937-25.712-63.612h-29.534q-12.811 30.071-25.356 61.921-12.544 31.854-24.645 65.304h29.361q4.6263-13.879 9.2526-27.58h51.601q4.6229 13.525 9.2526 27.58zm-65.124-99.465q4.445 11.925 8.9814 24.289 4.5416 12.371 8.812 24.823h-35.766q8.7171-24.731 17.971-49.11zm80.248 99.467h87.723v-23.843h-60.323v-103.38h-27.402zm103.74 0h87.72v-23.843h-60.32v-103.38h-27.402z" fill="#542582" stroke-width="1.6946"/>
 <path d="m38.68 0.001695v127.1h127.1v-127.1zm87.996 89.696a20.766 20.766 0 0 1-9.2831 7.097 37.746 37.746 0 0 1-14.486 2.4996h-28.481v-71.491h26.829q11.859 0 18.373 4.7483a15.867 15.867 0 0 1 6.5141 13.648 16.404 16.404 0 0 1-2.3335 8.8493 16.068 16.068 0 0 1-6.9022 5.9498 19.058 19.058 0 0 1 9.6728 6.6497 18.105 18.105 0 0 1 3.3536 11.049 18.539 18.539 0 0 1-3.257 10.998zm-18.178-34.95a8.3934 8.3934 0 0 0 2.9656-6.8496q0-8.4968-11.569-8.4985h-10.984v17.799h10.984a13.201 13.201 0 0 0 8.6036-2.4504zm-6.7564 13.648h-12.832v19.298h12.637a17.331 17.331 0 0 0 10.013-2.4504 8.0782 8.0782 0 0 0 3.4994-7.0496q0-9.7966-13.32-9.7983zm95.808-68.396v127.1h127.1v-127.1zm87.996 89.696a20.766 20.766 0 0 1-9.2831 7.097 37.746 37.746 0 0 1-14.486 2.4996h-28.481v-71.489h26.829q11.859 0 18.373 4.7483a15.867 15.867 0 0 1 6.5141 13.648 16.404 16.404 0 0 1-2.3335 8.8493 16.068 16.068 0 0 1-6.9022 5.9498 19.058 19.058 0 0 1 9.6728 6.6497 18.105 18.105 0 0 1 3.3536 11.049 18.539 18.539 0 0 1-3.257 10.998zm-18.178-34.948a8.3934 8.3934 0 0 0 2.9656-6.8496q0-8.4968-11.569-8.4985h-10.984v17.799h10.984a13.201 13.201 0 0 0 8.6036-2.4504zm-6.7564 13.648h-12.832v19.298h12.637a17.331 17.331 0 0 0 10.013-2.4504 8.0782 8.0782 0 0 0 3.4994-7.0496q0-9.7966-13.32-9.7983zm95.808 58.7h127.1v-127.1h-127.1zm91.282-32.333a41.476 41.476 0 0 1-10.293 3.8705 52.069 52.069 0 0 1-12.311 1.4218 44.887 44.887 0 0 1-15.438-2.4996 31.533 31.533 0 0 1-11.606-7.2021 31.211 31.211 0 0 1-7.2648-11.517 43.919 43.919 0 0 1-2.525-15.338 41.018 41.018 0 0 1 2.6266-15.045 32.133 32.133 0 0 1 7.5664-11.515 33.333 33.333 0 0 1 11.857-7.3512 44.54 44.54 0 0 1 15.489-2.5487 49.874 49.874 0 0 1 11.252 1.2252 41.793 41.793 0 0 1 9.8389 3.5773v13.918a32.974 32.974 0 0 0-8.9814-4.1654 36.046 36.046 0 0 0-10.191-1.4218 26.607 26.607 0 0 0-12.564 2.7453 18.793 18.793 0 0 0-7.9715 7.9376 26.521 26.521 0 0 0-2.7741 12.642 27.653 27.653 0 0 0 2.6741 12.693 18.268 18.268 0 0 0 7.7698 7.9884 25.758 25.758 0 0 0 12.362 2.7436 38.307 38.307 0 0 0 20.484-5.782zm107.02-18.197v34.65h-20.257v-95.288h34.784q18.792 0 28.854 7.863 10.059 7.8664 10.061 22.523a27.021 27.021 0 0 1-17.192 26.387q5.9972 9.4661 11.862 18.992 5.8634 9.5305 11.727 19.524h-23.589q-9.5949-17.59-19.857-34.65zm0-16.124h13.328q9.461 0 14.392-3.3994 4.9296-3.3977 4.9313-10.729 0-7.3275-4.8652-10.795-4.8652-3.4638-14.326-3.4638h-13.46zm140.73 50.776q-3.4672-10.527-6.931-20.657h-38.647q-3.4672 10.264-6.931 20.657h-21.989q9.0611-25.055 18.459-48.912 9.3949-23.853 18.99-46.378h22.123q9.861 23.725 19.258 47.646 9.3932 23.923 18.192 47.644zm-39.713-37.715h26.787q-3.1994-9.3272-6.5971-18.592-3.3994-9.2611-6.731-18.192-6.931 18.259-13.459 36.782zm73.829-57.573h36.383a55.126 55.126 0 0 1 25.787 5.5973 37.824 37.824 0 0 1 16.326 16.192 54.306 54.306 0 0 1 5.5973 25.655 54.589 54.589 0 0 1-5.6634 25.787 38.512 38.512 0 0 1-16.326 16.392 54.475 54.475 0 0 1-25.855 5.6651h-36.249zm35.184 77.696q13.325 0 20.457-7.7969 7.1258-7.7952 7.1292-22.455 0-14.525-6.997-22.191-6.9954-7.6613-20.457-7.663h-14.791v60.106zm65.166-77.698h20.525v95.288h-20.525zm84.095-1.9979a52.533 52.533 0 0 1 19.522 3.4655 41.738 41.738 0 0 1 14.93 9.927 44.051 44.051 0 0 1 9.5254 15.594 65.09 65.09 0 0 1 0 41.115 44.585 44.585 0 0 1-9.5271 15.726 41.276 41.276 0 0 1-14.926 9.9931 56.736 56.736 0 0 1-39.047 0 41.252 41.252 0 0 1-14.928-9.9948 44.558 44.558 0 0 1-9.5288-15.726 65.09 65.09 0 0 1 0-41.113 44.026 44.026 0 0 1 9.5288-15.594 41.715 41.715 0 0 1 14.928-9.927 52.519 52.519 0 0 1 19.522-3.4655zm0 81.428a25.185 25.185 0 0 0 13.992-3.7976 23.867 23.867 0 0 0 8.9306-10.862 49.757 49.757 0 0 0 0-34.384 23.469 23.469 0 0 0-8.9306-10.795 28.1 28.1 0 0 0-27.986 0 23.436 23.436 0 0 0-8.9289 10.795 49.737 49.737 0 0 0 0 34.384 23.833 23.833 0 0 0 8.9289 10.862 25.173 25.173 0 0 0 13.994 3.7976z" stroke-width="1.6946"/>
</svg>
