<svg width="800" height="286.8" version="1.1" viewBox="0 0 800 286.8" xmlns="http://www.w3.org/2000/svg">
 <path d="m83.556-8.1515e-6v87.28h87.28v-87.28zm60.348 61.595c-1.4962 2.2443-3.7406 3.9899-6.4836 4.9874-3.2418 1.2469-6.4837 1.7456-9.9748 1.7456h-19.451v-49.376h18.453c4.4887-0.24937 8.9774 0.99749 12.718 3.4912 2.9924 2.2443 4.738 5.7355 4.4887 9.4761 0 2.2443-0.49874 4.2393-1.4962 5.9849-1.2468 1.7456-2.7431 3.2418-4.738 3.9899 2.7431 0.74811 4.9874 2.4937 6.733 4.4887 1.4962 2.2443 2.4937 4.9874 2.2443 7.4811 0 2.7431-0.74811 5.4862-2.4937 7.7305zm-12.469-23.94c1.4962-1.2469 2.2443-2.9925 1.995-4.7381 0-3.9899-2.7431-5.7355-7.9799-5.7355h-7.4811v12.219h7.4811c2.2443 0 4.4887-0.49874 5.9849-1.7456zm-4.4887 9.2267h-8.728v13.217h8.728c2.4937 0.24937 4.7381-0.49874 6.9824-1.7456 1.4962-0.99749 2.4937-2.9925 2.4937-4.7381-0.49874-4.4887-3.4912-6.733-9.4761-6.733zm65.585-46.882v87.28h87.28v-87.28zm60.348 61.595c-1.4962 2.2443-3.7406 3.9899-6.4836 4.9874-3.2418 1.2469-6.4837 1.7456-9.9749 1.7456h-19.451v-49.376h18.453c4.4887-0.24937 8.9774 0.99749 12.718 3.4912 2.9924 2.2443 4.738 5.7355 4.4887 9.4761 0 2.2443-0.49875 4.2393-1.4962 5.9849-1.2469 1.7456-2.7431 3.2418-4.738 3.9899 2.7431 0.74811 4.9874 2.4937 6.733 4.4887 1.4962 2.2443 2.4937 4.9874 2.2444 7.4811 0 2.7431-0.74811 5.4862-2.4937 7.7305zm-12.469-23.94c1.4962-1.2469 2.2443-2.9925 1.995-4.7381 0-3.9899-2.7431-5.7355-7.9799-5.7355h-7.4811v12.219h7.4811c2.2443 0 4.4887-0.49874 5.9849-1.7456zm-4.4887 9.2267h-8.728v13.217h8.728c2.4937 0.24937 4.738-0.49874 6.9824-1.7456 1.4962-0.99749 2.4937-2.9925 2.4937-4.7381-0.24937-4.4887-3.4912-6.733-9.4761-6.733zm65.585 40.398h87.28v-87.28h-87.28zm62.842-22.194c-2.2444 1.2469-4.4887 1.995-6.9824 2.7431-2.7431 0.74811-5.4862 0.99748-8.4786 0.99748-3.4912 0-7.2318-0.49874-10.474-1.7456-2.9924-0.99748-5.7355-2.7431-7.9799-4.9874s-3.9899-4.9874-4.9874-7.9799c-1.2469-3.4912-1.7456-6.9824-1.7456-10.474 0-3.4912 0.49873-6.9824 1.7456-10.224 1.2469-2.9925 2.9925-5.7355 5.2368-7.9799 2.2443-2.2443 4.9874-3.9899 8.2292-4.9874 3.4912-1.2469 6.9824-1.7456 10.723-1.7456 2.4937 0 5.2368 0.24937 7.7305 0.74811 2.2443 0.49874 4.4887 1.2469 6.733 2.4937v9.4761c-1.995-1.2469-3.9899-2.2443-6.2343-2.7431-2.2443-0.74811-4.7381-0.99748-6.9824-0.99748-2.9925 0-5.9849 0.49874-8.728 1.995-2.2443 1.2469-4.2393 2.9925-5.4862 5.4862-1.2469 2.7431-1.995 5.7355-1.995 8.728s0.49875 5.9849 1.7456 8.728c1.2469 2.2443 2.9925 4.2393 5.2368 5.4862 2.7431 1.2469 5.4862 1.995 8.4786 1.995 4.9874 0 9.7255-1.2469 13.965-3.9899zm73.315-12.469v23.69h-13.965v-65.335h23.94c8.4786 0 15.212 1.7456 19.7 5.4862 4.738 3.7406 7.2318 9.4761 6.9824 15.461 0 3.9899-0.99748 7.7305-2.9924 10.972-2.2443 3.2418-5.2368 5.4862-8.728 6.9824 2.7431 4.2393 5.4862 8.728 8.2293 12.967 2.7431 4.2393 5.4862 8.728 7.9799 13.466h-16.209c-4.4887-7.9799-8.9774-15.96-13.715-23.69zm0-11.222h9.2268c3.4912 0.24937 6.9824-0.49874 9.9748-2.2443 2.2443-1.7456 3.4912-4.4887 3.4912-7.4811 0.24936-2.9925-0.99748-5.7355-3.2418-7.4811-2.9925-1.7456-6.4837-2.4937-9.7255-2.4937h-9.2267zm96.507 34.912c-1.4962-4.7381-3.2418-9.4761-4.7381-14.214h-26.433c-1.4962 4.7381-3.2418 9.4761-4.7381 14.214h-14.962c4.2393-11.471 8.4786-22.693 12.718-33.665 4.2393-10.972 8.728-21.446 12.967-31.92h15.212c4.4887 10.972 8.9774 21.695 13.217 32.668s8.4786 21.945 12.469 32.668h-15.71zm-27.181-25.935h18.453l-4.4887-12.718c-1.4962-4.2393-2.9925-8.4786-4.7381-12.469-3.2418 8.4786-6.2343 16.708-9.2267 25.186zm50.622-39.401h24.937c6.2343-0.24937 12.219 1.2469 17.705 3.7406 4.738 2.4937 8.728 6.2343 11.222 11.222 2.7431 5.4862 3.9899 11.471 3.7406 17.705 0.24938 6.2343-1.2469 12.219-3.9899 17.705-2.4937 4.7381-6.4836 8.728-11.222 11.222-5.4862 2.7431-11.471 3.9899-17.705 3.9899h-24.937v-65.585zm24.189 53.365c5.2368 0.24937 10.474-1.4962 13.965-5.2368 3.4912-4.2393 5.2368-9.7255 4.9874-15.461 0.49875-5.4862-1.2469-10.972-4.738-15.212-3.7406-3.7406-8.728-5.7355-13.965-5.2368h-10.224v41.146zm44.637-53.365h13.965v65.335h-13.965zm57.605-1.4962c4.4887 0 9.2267 0.74811 13.466 2.4937 3.99 1.4962 7.4811 3.7406 10.224 6.733 2.9924 2.9925 5.2368 6.733 6.4836 10.723 1.4962 4.4887 2.2443 9.2267 2.2443 14.214 0 4.7381-0.7481 9.4761-2.2443 13.965-1.4962 3.9899-3.7406 7.7305-6.4836 10.723-2.9925 2.9925-6.4837 5.2368-10.224 6.733-8.728 3.2418-18.204 3.2418-26.683 0-3.9899-1.4962-7.4811-3.7406-10.224-6.733-2.9924-2.9925-5.2368-6.733-6.4837-10.723-1.4962-4.4887-2.2443-9.2267-2.2443-13.965 0-4.7381 0.74811-9.4761 2.2443-14.214 1.4962-3.9899 3.7406-7.7305 6.4837-10.723 2.9924-2.9925 6.4836-5.2368 10.224-6.733 4.2393-1.7456 8.728-2.4937 13.217-2.4937zm0 55.859c3.4912 0 6.733-0.74811 9.4761-2.4937 2.7431-1.7456 4.9874-4.4887 6.2343-7.4811 1.4962-3.7406 2.2443-7.7305 1.995-11.72 0-3.9899-0.49874-7.9799-1.995-11.72-1.2469-2.9925-3.4912-5.7355-6.2343-7.4811-5.9849-3.4912-13.217-3.4912-19.202 0-2.7431 1.7456-4.9874 4.4887-6.2343 7.4811-1.4962 3.7406-2.2443 7.7305-1.995 11.72 0 3.9899 0.49875 7.9799 1.995 11.72 1.2468 2.9925 3.4912 5.7355 6.2343 7.4811 2.9924 1.7456 6.4836 2.7431 9.7255 2.4937z" fill="#fff" stroke-width="1.5625"/>
 <path d="m65.352 286.78c-12.219 0.24937-24.189-2.2443-35.161-7.7305-9.7255-4.9874-17.456-12.967-22.443-22.443-5.4862-11.222-7.9799-23.441-7.7305-35.66v-90.272h32.917v93.764c0 10.723 2.7431 19.202 8.4786 24.937 5.7355 5.7356 13.715 8.728 23.94 8.728 10.474 0 18.453-2.9924 23.94-8.728 5.7355-5.7355 8.4786-13.965 8.4786-24.937v-93.764h32.917v90.272c0.24937 12.219-2.2443 24.438-7.7305 35.411-4.9874 9.7255-12.967 17.456-22.443 22.443-10.972 5.4862-22.942 8.2292-35.161 7.9799zm89.524-156.11h32.917v124.19h72.318v28.678h-105.23zm169.82 156.11c-8.4786 0-16.708-0.99749-24.937-2.7431-8.2293-1.7456-16.209-4.7381-23.69-8.728v-29.675c14.464 8.9774 31.421 13.965 48.378 13.965 9.7255 0 16.957-1.7456 22.194-4.9874 4.738-2.7431 7.7305-7.9799 7.4811-13.715 0.24938-3.7406-1.2468-7.4811-3.7406-10.474-2.7431-2.7431-6.2343-4.738-9.9748-5.9849-4.4887-1.7456-9.2268-2.9925-13.965-4.2393-7.4811-1.7456-14.962-3.9899-22.194-6.733-5.7355-2.2443-11.222-5.2368-16.209-8.9774-4.2393-3.2418-7.7305-7.7305-9.9749-12.718-2.4937-5.4862-3.4912-11.471-3.4912-17.705-0.24937-8.9774 2.2443-17.705 7.4811-24.937 5.2368-7.2318 12.469-12.967 20.947-16.209 10.224-3.9899 21.197-5.9849 31.92-5.7355 7.9799 0 15.96 0.99749 23.94 2.7431 7.2318 1.7456 14.464 4.2393 21.197 7.4811v28.927c-6.733-3.99-13.715-6.9824-21.197-8.9774-7.7305-1.995-15.71-3.2418-23.94-3.2418-8.728 0-15.461 1.4962-20.199 4.4887-4.4887 2.7431-7.2318 7.4811-7.2318 12.718-0.24938 3.4912 0.99748 6.9824 3.4912 9.4761 2.7431 2.7431 5.9849 4.4887 9.7255 5.7355 4.2393 1.4962 9.2268 2.9924 14.962 4.4887 7.2318 1.7456 13.965 3.9899 20.199 5.9849 5.9849 1.995 11.471 4.7381 16.458 8.4786 4.738 3.2418 8.4786 7.7305 11.222 12.967 2.7431 5.9849 4.2393 12.718 3.9899 19.451 0.24938 9.2267-2.2443 18.204-7.4811 25.935-5.4862 7.4811-12.967 13.217-21.695 16.458-10.474 4.7381-22.194 6.733-33.665 6.4837zm72.816-156.11h128.92v28.678h-48.129v124.19h-32.917v-124.19h-48.129v-28.678zm146.13 0h104.99v27.431h-72.318v33.166h64.088v27.431h-64.088v37.655h76.308v27.431h-108.98zm160.6 97.255v55.61h-32.418v-152.86h55.859c20.199 0 35.411 4.2393 46.134 12.718 10.723 8.4786 16.209 20.448 16.209 36.159 0.74811 18.453-10.224 35.66-27.68 42.393 6.4836 10.224 12.718 20.199 18.952 30.423 6.2343 10.224 12.469 20.698 18.703 31.421h-37.904c-10.224-18.703-20.947-37.406-31.92-55.61zm0-25.935h21.446c10.224 0 17.705-1.7456 23.192-5.4862 5.2368-3.7406 7.9799-9.4761 7.9799-17.207 0-7.7305-2.4937-13.715-7.7305-17.207-5.2368-3.7406-12.967-5.4862-22.942-5.4862h-21.695z" fill="#28a000" stroke-width="1.5625"/>
</svg>
