<svg width="1e3" height="330.3" version="1.1" viewBox="0 0 1e3 330.3" xmlns="http://www.w3.org/2000/svg">
 <path d="m212.36 316.71c8.6342-9.0016 13.043-21.677 13.043-38.394v-88.913h-29.76v88.362c0 17.819-8.6342 26.637-25.719 26.637-9.0016 0.1837-18.003-2.2045-25.719-6.9808v25.902c4.4089 2.3882 9.0016 4.0415 13.778 5.1438 5.5112 1.2859 11.206 1.837 16.901 1.837 16.35-0.18371 28.842-4.5926 37.476-13.594zm38.211 10.655h98.65v-24.617h-68.89v-33.985h57.867v-24.617h-57.867v-29.944h65.215v-24.617h-94.976zm169.38-50.152h2.9393c9.9201 16.533 19.473 33.251 28.658 50.152h34.169c-5.6949-9.5527-11.39-19.105-16.901-28.291l-17.085-27.556c7.5319-3.123 13.778-8.2667 18.371-14.88 4.4089-6.9808 6.7971-15.064 6.4297-23.331 0-14.145-4.7763-24.984-14.513-32.516s-23.698-11.39-41.701-11.39h-50.335v137.96h29.393v-50.152zm-20.759-64.481h19.473c9.1853 0 15.982 1.6534 20.759 4.96 4.7763 3.3067 6.9808 8.6342 6.9808 15.615 0 7.1645-2.3882 12.308-7.1645 15.615-4.7763 3.3067-11.757 4.96-20.759 4.96h-19.289zm171.21 112.43c7.8993-2.9393 14.696-8.083 19.473-14.88 4.5926-6.9808 6.9808-15.064 6.7971-23.514 0.18371-6.0623-1.1022-12.125-3.4904-17.636-2.3882-4.7763-5.6949-8.8178-10.104-11.757-4.5926-3.3067-9.5527-5.8786-14.88-7.5319-5.6949-2.0208-11.757-3.8578-18.371-5.5112-5.1438-1.2859-9.5527-2.5719-13.41-4.0415-3.3067-1.1022-6.246-2.7556-8.8178-5.1438-2.2045-2.3882-3.3067-5.5112-3.123-8.6342-0.18371-4.7763 2.3882-9.1853 6.4297-11.573 4.2252-2.7556 10.471-4.0415 18.187-4.0415 7.3482 0 14.513 0.91853 21.494 2.9393 6.7971 1.837 13.227 4.4089 19.105 8.083v-26.27c-6.0623-2.9393-12.492-5.3275-19.105-6.7971-7.1645-1.6534-14.329-2.5719-21.677-2.5719-9.9201-0.18371-19.656 1.4696-29.025 5.1438-7.5319 2.9393-13.962 8.083-18.738 14.513-4.5926 6.6134-6.7971 14.513-6.6134 22.596-0.18371 5.5112 0.91852 10.839 3.123 15.982 2.0208 4.4089 5.1438 8.4504 9.0016 11.39 4.4089 3.4904 9.369 6.246 14.696 8.2667 6.6134 2.5719 13.227 4.5926 20.024 6.246 4.2252 1.1022 8.4504 2.2045 12.492 3.6741 3.3067 1.1022 6.4297 2.9393 9.0016 5.3274 2.3882 2.5719 3.4904 5.8786 3.3067 9.369 0.1837 4.96-2.5719 9.7364-6.7971 12.308-4.5926 2.9393-11.206 4.4089-20.024 4.4089-15.431 0-30.679-4.4089-43.722-12.492v26.637c6.7971 3.4904 13.962 6.246 21.31 7.8993 7.3482 1.6534 14.88 2.5719 22.412 2.5719 10.839 0.36742 21.31-1.4696 31.046-4.96zm46.294 2.2045h98.65v-24.617h-68.89v-33.985h57.867v-24.617h-57.867v-29.944h65.215v-24.617h-94.976zm213.65-94.976c8.6342-14.329 17.085-28.658 25.535-42.987h-33.067c-5.3274 10.104-10.839 20.208-16.35 30.311-5.5112 10.104-11.206 20.208-16.901 30.128-5.6949-9.9201-11.206-20.024-16.901-30.128-5.5112-10.104-11.022-20.391-16.35-30.495h-33.802c8.2667 14.329 16.717 28.658 25.351 42.987 8.6342 14.329 17.452 28.474 26.454 42.62v52.356h29.76v-52.356c8.8178-13.962 17.636-28.107 26.27-42.436z" fill="#542582" stroke-width="1.8371"/>
 <path d="m0 0v137.78h137.78v-137.78zm95.343 97.364c-2.5719 3.4904-6.0623 6.0623-10.104 7.7156-4.96 1.8371-10.288 2.7556-15.615 2.7556h-30.862v-77.524h29.025c8.6342 0 15.248 1.6533 19.84 5.1438 4.7763 3.4904 7.3482 9.0016 6.9808 14.88 0 3.3067-0.73482 6.6134-2.5719 9.5527-1.837 2.7556-4.4089 5.1438-7.5319 6.4297 4.2252 1.2859 7.8993 3.6741 10.471 7.1645 2.5719 3.4904 3.6741 7.7156 3.6741 11.941 0.36741 4.2252-0.91853 8.4504-3.3067 11.941zm-19.656-37.843c2.2045-1.8371 3.3067-4.5926 3.123-7.3482 0-6.0623-4.2252-9.1853-12.492-9.1853h-11.941v19.289h11.941c3.3067 0 6.6134-0.91853 9.369-2.7556zm-7.3482 14.696h-13.962v20.942h13.778c3.8578 0.1837 7.5319-0.73482 10.839-2.5719 2.5719-1.6533 3.8578-4.5926 3.8578-7.7156-0.18371-7.1645-4.96-10.655-14.513-10.655zm103.79-74.217v137.78h137.78v-137.78zm95.343 97.364c-2.5719 3.4904-6.0623 6.0623-10.104 7.7156-4.96 1.8371-10.288 2.7556-15.615 2.7556h-30.862v-77.524h29.025c8.6342 0 15.248 1.6533 19.84 5.1438 4.7763 3.4904 7.3482 9.0016 6.9808 14.88 0 3.3067-0.73482 6.6134-2.5719 9.5527-1.837 2.7556-4.4089 5.1438-7.5319 6.4297 4.2252 1.2859 7.8993 3.6741 10.471 7.1645 2.5719 3.4904 3.6741 7.7156 3.6741 11.941 0.36741 4.2252-0.73483 8.4504-3.3067 11.941zm-19.656-37.843c2.2045-1.8371 3.3067-4.5926 3.123-7.3482 0-6.0623-4.2252-9.1853-12.492-9.1853h-11.941v19.289h11.941c3.4904 0 6.6134-0.91853 9.369-2.7556zm-7.3482 14.696h-13.962v20.942h13.778c3.8578 0.1837 7.5319-0.73482 10.839-2.5719 2.5719-1.6533 3.8578-4.5926 3.8578-7.7156 0-7.1645-4.7763-10.655-14.513-10.655zm103.98 63.562h137.78v-137.78h-137.78zm98.833-34.904c-3.4904 1.837-7.3482 3.3067-11.206 4.2252-4.4089 1.1022-8.8178 1.4696-13.41 1.4696-5.6949 0-11.39-0.91853-16.717-2.7556-4.7763-1.6533-9.0016-4.4089-12.492-7.8993s-6.246-7.7156-7.8993-12.492c-1.837-5.3275-2.7556-11.022-2.7556-16.717 0-5.5112 0.91853-11.022 2.7556-16.35 1.8371-4.7763 4.5926-9.0016 8.2667-12.492s8.083-6.246 12.859-7.8993c5.3274-1.8371 11.022-2.7556 16.717-2.7556 4.0415 0 8.2667 0.36741 12.125 1.2859 3.6741 0.91853 7.3482 2.2045 10.655 3.8578v15.064c-2.9393-2.0208-6.246-3.4904-9.7364-4.5926-3.6741-1.1022-7.3482-1.4696-11.022-1.4696-4.7763-0.1837-9.369 0.91853-13.594 2.9393-3.6741 1.8371-6.7971 4.96-8.6342 8.6342-2.2045 4.2252-3.123 9.0016-2.9393 13.778-0.1837 4.7763 0.91853 9.5527 2.9393 13.778 1.837 3.6741 4.7763 6.7971 8.4504 8.6342 4.2252 2.0208 8.8179 3.123 13.41 2.9393 7.8993 0 15.615-2.2045 22.228-6.246zm116.1-19.84v37.476h-22.045v-103.24h37.66c13.594 0 24.065 2.7556 31.23 8.4504 7.3482 5.6949 10.839 13.778 10.839 24.433 0.55111 12.492-6.9808 24.065-18.554 28.658 4.4089 6.7971 8.6342 13.778 12.859 20.575 4.2252 6.7971 8.4504 13.962 12.676 21.126h-25.535c-6.9808-12.676-14.145-25.168-21.494-37.476zm0-17.452h14.513c6.7971 0 12.125-1.2859 15.615-3.6741 3.4904-2.3882 5.3274-6.246 5.3274-11.573s-1.837-9.1853-5.3274-11.757c-3.4904-2.5719-8.6342-3.6741-15.615-3.6741h-14.513zm152.48 55.112c-2.5719-7.5319-4.96-15.064-7.5319-22.412h-41.885c-2.5719 7.3482-4.96 14.88-7.5319 22.412h-23.882c6.6134-18.187 13.227-35.823 20.024-53.091 6.7971-17.268 13.594-33.985 20.575-50.335h24.065c7.1645 17.085 14.145 34.353 20.942 51.621s13.41 34.537 19.656 51.621zm-42.987-40.966h29.025c-2.3882-6.7971-4.7763-13.41-7.1645-20.208-2.3882-6.6134-4.96-13.227-7.3482-19.656-4.96 13.227-9.7364 26.454-14.513 39.864zm80.096-62.46h39.497c9.7364-0.1837 19.289 1.8371 27.923 6.0623 7.5319 3.8578 13.778 9.9201 17.636 17.636 4.2252 8.6342 6.4297 18.187 6.0623 27.74 0.18371 9.7364-1.837 19.289-6.0623 27.923-3.8578 7.5319-10.104 13.778-17.636 17.819-8.6342 4.4089-18.371 6.4297-28.107 6.0623h-39.313zm38.027 84.321c9.5527 0 17.085-2.7556 22.228-8.4504 5.1438-5.6949 7.7156-13.778 7.7156-24.433 0-10.471-2.5719-18.554-7.5319-24.065-5.1438-5.5112-12.492-8.2667-22.228-8.2667h-15.982v65.215zm70.727-84.321h22.228v103.24h-22.228zm91.118-2.0208c7.1645-0.1837 14.329 1.1022 21.126 3.6741 6.0623 2.3882 11.573 6.0623 16.166 10.839 4.5927 4.7763 8.0831 10.655 10.288 16.901 4.7764 14.513 4.7764 30.128 0 44.64-2.2044 6.4297-5.6948 12.125-10.288 17.085-4.5926 4.7763-10.104 8.4504-16.166 10.839-13.594 4.96-28.658 4.96-42.252 0-6.0623-2.3882-11.574-6.0623-16.166-10.839-4.5927-4.96-8.0831-10.655-10.288-17.085-4.7764-14.513-4.7764-30.128 0-44.64 2.2044-6.246 5.6948-12.125 10.288-16.901 4.5926-4.7763 10.104-8.4504 16.166-10.839 6.797-2.5719 13.962-3.8578 21.126-3.6741zm0 88.179c5.3274 0.18371 10.655-1.2859 15.248-4.0415 4.4089-2.9393 7.7156-6.9808 9.7364-11.757 4.4089-11.941 4.4089-25.168 0-37.292-2.0208-4.7763-5.3275-8.8179-9.7364-11.757-9.369-5.3275-20.942-5.3275-30.311 0-4.4089 2.7556-7.7156 6.9808-9.7364 11.757-4.4089 11.941-4.4089 25.168 0 37.292 2.0208 4.7763 5.3275 9.0016 9.7364 11.757 4.409 2.7556 9.7364 4.2252 15.064 4.0415z" stroke-width="1.8371"/>
</svg>
