<svg width="800" height="342.83" version="1.1" viewBox="0 0 800 342.83" xmlns="http://www.w3.org/2000/svg">
 <path d="m19.175 253.01v32.797h-19.175v-90.196h32.924c11.857 0 20.961 2.4817 27.312 7.4451 6.348 4.9614 9.523 12.068 9.5249 21.32 0.49167 10.953-6.0547 21-16.273 24.975 3.7835 5.9709 7.5255 11.963 11.226 17.977 3.6997 6.0138 7.4003 12.174 11.102 18.48h-22.328c-6.0556-11.102-12.321-22.034-18.795-32.797zm0-15.263h12.615c5.9699 0 10.511-1.0718 13.624-3.2154 3.1092-2.1484 4.6648-5.5338 4.6667-10.156 0-4.6263-1.5346-8.0331-4.6039-10.221-3.0712-2.1855-7.5917-3.2783-13.562-3.2783h-12.74zm132.58 48.06c-2.1884-6.6413-4.3748-13.158-6.5594-19.551h-36.582c-2.1884 6.4737-4.3748 12.991-6.5594 19.551h-20.814c5.7185-15.808 11.543-31.241 17.473-46.297 5.928-15.05 11.92-29.683 17.976-43.898h20.94c6.2223 14.97 12.298 30.004 18.228 45.1s11.67 30.128 17.22 45.096h-21.321zm-37.592-35.7h25.356c-2.0189-5.888-4.1001-11.753-6.2437-17.596-2.1446-5.8452-4.2682-11.585-6.3709-17.22-4.3739 11.519-8.6211 23.124-12.742 34.815zm69.887-54.497h34.438c9.502 0 17.638 1.7656 24.409 5.2967 6.6163 3.3831 12.016 8.7406 15.451 15.33 3.533 6.6832 5.2986 14.776 5.2967 24.279 0 9.5058-1.7865 17.642-5.3595 24.409-3.4396 6.6332-8.8332 12.05-15.451 15.519-6.7299 3.5768-14.887 5.3633-24.472 5.3595h-34.313zm33.304 73.545c8.4069 0 14.862-2.4607 19.364-7.3822 4.4968-4.9167 6.7461-12.002 6.748-21.257 0-9.162-2.2074-16.162-6.6223-21.001-4.4158-4.8377-10.87-7.2551-19.364-7.2522h-14.003v56.892zm61.683-73.545h19.425v90.196h-19.425zm79.599-1.8941c6.3124-0.0888 12.584 1.0253 18.48 3.2826 5.3352 2.0705 10.156 5.2767 14.129 9.3963 4.0051 4.2341 7.0781 9.2608 9.0206 14.756 4.2038 12.633 4.2038 26.287 0 38.919-1.94 5.5339-5.0122 10.603-9.0206 14.883-3.9565 4.155-8.7806 7.3862-14.129 9.4634-11.933 4.3711-25.028 4.3711-36.961 0-5.3476-2.0775-10.171-5.3087-14.127-9.4634-4.0096-4.2799-7.0819-9.3494-9.0206-14.884-4.2031-12.632-4.2031-26.285 0-38.917 1.9405-5.4964 5.0137-10.524 9.0206-14.757 3.9715-4.1201 8.7922-7.3264 14.127-9.3963 5.8964-2.2566 12.168-3.3706 18.481-3.2826zm0 77.077c4.672 0.12625 9.278-1.123 13.246-3.5925 3.7844-2.5019 6.7292-6.0838 8.4521-10.28 3.8663-10.504 3.8663-22.042 0-32.546-1.7115-4.188-4.6602-7.7541-8.4521-10.222-8.2031-4.7063-18.287-4.7063-26.49 0-3.7934 2.4662-6.7424 6.0328-8.4521 10.222-3.8701 10.503-3.8701 22.042 0 32.546 1.7215 4.1976 4.6666 7.7798 8.4521 10.28 3.9672 2.47 8.573 3.7193 13.245 3.5925zm-358.63-213.59v114.34h114.34v-114.34zm79.736 80.691c-2.1158 2.8836-5.0145 5.0997-8.3521 6.3851-4.154 1.5968-8.5814 2.3613-13.03 2.2498h-25.623v-64.316h24.136c7.1117 0 12.621 1.4237 16.529 4.271 3.904 2.8393 6.1084 7.4594 5.8595 12.28 0.06939 2.7988-0.65836 5.5597-2.0984 7.9607-1.5103 2.3457-3.6667 4.2045-6.2094 5.3524 3.4578 1.0289 6.503 3.1224 8.7021 5.9823 2.0634 2.8955 3.1229 6.3866 3.0169 9.9405 0.09359 3.5246-0.93207 6.9881-2.9297 9.8934zm-16.353-31.44c1.8036-1.5235 2.7904-3.8032 2.6669-6.1609 0-5.0967-3.4692-7.645-10.408-7.645h-9.882v16.011h9.882c2.7581 0.18818 5.4955-0.59125 7.7407-2.2041zm-6.0795 12.28h-11.543v17.361h11.369c3.1568 0.19539 6.2983-0.57381 9.0078-2.2055 2.0781-1.4252 3.2695-3.8253 3.1483-6.3423 0-5.8776-3.9939-8.8159-11.982-8.8149zm85.621-61.532v114.34h114.34v-114.34zm79.734 80.691c-2.1157 2.8837-5.0145 5.0998-8.3521 6.3851-4.154 1.5968-8.5814 2.3613-13.03 2.2498h-25.623v-64.316h24.136c7.1118 0 12.621 1.4237 16.529 4.271 3.904 2.8393 6.1084 7.4594 5.8595 12.28 0.0694 2.7988-0.65837 5.5597-2.0984 7.9607-1.5103 2.3457-3.6667 4.2045-6.2094 5.3524 3.4578 1.0289 6.503 3.1224 8.7021 5.9823 2.0634 2.8955 3.1229 6.3866 3.0169 9.9405 0.0938 3.5246-0.93198 6.9882-2.9297 9.8934zm-16.353-31.44c1.8036-1.5235 2.7904-3.8032 2.6669-6.1609 0-5.0967-3.4692-7.645-10.408-7.645h-9.882v16.011h9.882c2.7581 0.18818 5.4955-0.59125 7.7407-2.2041zm-6.0794 12.28h-11.543v17.361h11.369c3.1566 0.19582 6.2982-0.57288 9.0078-2.2041 2.0781-1.4252 3.2695-3.8253 3.1483-6.3423 0-5.8776-3.9939-8.8159-11.982-8.8149zm85.621 52.807h114.34v-114.34h-114.34zm82.118-29.087c-2.9182 1.5665-6.032 2.7376-9.2592 3.4826-3.628 0.86543-7.3464 1.2946-11.076 1.2784-4.7255 0.069-9.4264-0.69197-13.889-2.2484-7.9425-2.7123-14.2-8.9206-16.976-16.841-1.5709-4.4281-2.3395-9.1008-2.2698-13.799-0.0675-4.6191 0.73341-9.2098 2.3612-13.533 1.4936-3.9054 3.8168-7.4403 6.8094-10.36 3.0487-2.9327 6.6838-5.1867 10.666-6.6137 4.4726-1.5823 9.1907-2.3581 13.934-2.2912 3.4049-0.01775 6.8008 0.35222 10.122 1.1028 3.0736 0.69711 6.0472 1.7784 8.8506 3.2183v12.52c-2.4895-1.6479-5.2132-2.911-8.0793-3.7468-2.9795-0.86242-6.0674-1.293-9.1692-1.2785-3.9124-0.11328-7.7929 0.73424-11.302 2.4684-3.0638 1.5921-5.5666 4.0841-7.1722 7.1408-1.7589 3.5267-2.6168 7.4341-2.4969 11.373-0.11437 3.9427 0.71008 7.8561 2.4055 11.418 1.5247 3.0644 3.9682 5.5763 6.9894 7.1851 3.4436 1.7355 7.2659 2.5844 11.12 2.4698 6.5109 0.0418 12.9-1.762 18.428-5.2024z" stroke-width="1.5625"/>
 <path d="m628.59-3.1825e-6c-69.33 0-131.83 41.764-158.36 105.82-26.53 64.051-11.861 137.78 37.163 186.8 49.024 49.024 122.75 63.693 186.8 37.163 64.052-26.53 105.82-89.034 105.82-158.36 0-94.669-76.744-171.41-171.41-171.41zm38.274 287.93h-49.237v-179.55c-8.9763 4.5948-18.003 9.2992-27.08 14.113-9.084 4.8167-17.673 9.522-25.768 14.116v-45.297c8.7497-5.0329 18.488-10.34 29.215-15.921 10.719-5.5805 21.989-11.216 33.81-16.906h39.061z" stroke-width="1.5625"/>
</svg>
