<svg width="800" height="306.05" version="1.1" viewBox="0 0 800 306.05" xmlns="http://www.w3.org/2000/svg">
 <path d="m787.05 156.26-4.4389-28.516-39.377 1.6114-12.43-82.421-25.017 0.35004 16.579 112.23zm-239.98 12.1-14.999-118.63-28.358 0.39831 14.716 119.67zm28.069-89.385 11.471 87.388 27.478-1.3881-11.658-86.639 25.083-0.5854 5.3858-29.439-92.372 1.2975 3.8358 30.073zm44.407 85.728 23.551-116.53 20.337-0.28364 54.479 111.86-27.725 1.4001-7.4122-15.939-31.742 1.4364-3.0698 16.633zm34.389-43.199 19.191-0.71817-13.757-29.294zm-195.96-70.725c22.502-0.31382 40.686 16.174 43.514 39.318 2.8648 23.47-11.296 41.214-33.955 42.083l-12.864 0.49487 4.6439 40.109-30.21 1.5208-13.787-122.93zm3.3834 28.842-14.643 0.33193 2.714 23.458 14.674-0.43453c6.8332-0.20518 11.085-5.341 10.277-12.167-0.79009-6.6446-6.2-11.346-13.021-11.189zm-217.34 5.4738c14.39-0.3259 27.405 9.288 32.508 22.716l32.091-0.9475c-7.3278-31.4-35.71-55.227-67.602-54.792-35.565 0.48281-62.542 30.869-59.461 68.027 3.106 37.496 35.511 66.736 71.535 64.901 31.102-1.5812 54.431-25.896 57.114-56.313l-32.809 1.1708c-3.691 11.98-14.185 20.767-27.375 21.316-17.762 0.73628-33.653-13.712-35.252-32.143-1.5982-18.341 11.598-33.537 29.251-33.935zm95.725 93.719-34.245 1.726 34.751-128.1 24.39-0.344 59.147 122.48-33.268 1.6778-8.0153-17.472-38.153 1.726zm9.4688-45.939 23.057-0.86301-14.885-32.101zm188.5 88.559-6.0673-8.5396-275.95 18.003c-36.946 1.5631-73.422-17.695-95.291-47.134-34.685-45.722-32.767-115.71 13.395-152.98 31.47-25.408 69.961-21.72 107.85-21.931 22.924-0.12675 45.854-0.22331 68.779-0.31382 45.559-0.18106 91.721 1.8467 137.22-0.59747 0 0-248.43-9.6803-265.3-7.6525-16.869 2.0278-23.262 3.6271-32.598 7.2602-13.359 5.1358-25.421 13.144-35.614 23.108l-127.77 116.46c-16.32 16.868-26.362 39.85-26.362 65.179 0 51.763 41.934 93.725 93.663 93.725 18.003 0-7.6414 2.4925 228.46-36.222 68.501-11.231 142.28-23.314 209.46-34.303l6.0371-13.941zm42.163-1.8709 17.038-41.902-24.45 1.3458-8.7873 22.45-14.475-21.171-25.18 1.3881 28.232 39.753-0.0904 0.12675-17.991 41.539 23.992-1.9192 10.223-23.03 15.777 20.948 23.377-1.8648-27.55-37.562zm131.49 2.4201 17.4 25.571-21.555 1.72-12.979-19.626-0.75991 0.0543-10.241 0.74835 2.7984 20.513-19.426 1.551-10.548-78.112 29.613-1.6295c17.43-0.95958 29.462 8.6724 31.898 26.216 1.2786 9.2397-0.90467 17.363-6.1999 22.994zm-12.961-21.998c-0.69961-5.0936-5.042-8.1413-10.277-7.8215l-10.042 0.61558 2.3642 17.327 10.042-0.66989c5.241-0.344 8.6486-4.122 7.9128-9.4509zm101.59 41.877-19.215 1.5329-4.7947-10.537-23.817 1.8166-1.6887 11.141-19.945 1.5933 15.391-77.955 17.949-0.98976zm-31.935-26.615-9.6316-21.225-3.4136 22.143zm-116.48-40.598-49.208 2.7098-8.534 21.056 20.614-1.2674 7.7801 58.914 20.071-1.6053-7.8103-58.54 19.794-1.213z" fill="#ff0080"/>
</svg>
