<svg width="800" height="310.1" version="1.1" viewBox="0 0 800 310.1" xmlns="http://www.w3.org/2000/svg">
 <path d="m799.99 158.32-65.741 3.3021-16.852-113.71 25.428-0.35468 12.634 83.512 40.025-1.6327 4.5119 28.893zm-429.35-105.54 60.12 124.1-33.815 1.7-8.1471-17.703-38.78 1.7489-4.6835 18.547-34.814 1.7489 35.323-129.8 24.791-0.34854zm7.7609 80.981-15.13-32.532-8.3065 33.4 23.436-0.87444zm-96.435-2.183c-3.7517 12.138-14.418 21.042-27.825 21.598-18.054 0.74603-34.207-13.893-35.831-32.568-1.6184-18.59 11.795-33.987 29.732-34.391 14.627-0.33022 27.856 9.4109 33.042 23.017l32.619-0.96005c-7.4483-31.816-36.297-55.958-68.714-55.518-36.15 0.4892-63.571 31.278-60.438 68.928 3.1571 37.992 36.095 67.619 72.711 65.76 31.614-1.6021 55.326-26.239 58.054-57.059l-33.349 1.1863zm392.38-83.06 55.375 113.34-28.181 1.4187-7.5341-16.15-32.264 1.4554-3.1203 16.853-28.886 1.4492 23.939-118.07 20.671-0.28742zm9.8575 73.869-13.983-29.682-5.5295 30.41 19.507-0.72768zm-46.369-43.6 5.4743-29.829-93.891 1.3147 3.8988 30.471 31.289-0.72768 11.66 88.545 27.929-1.4064-11.85-87.787 25.496-0.59315zm-128.1 12.505c2.9118 23.781-11.482 41.759-34.513 42.64l-13.076 0.50143 4.7203 40.64-30.706 1.541-14.014-124.56 43.359-0.60538c22.872-0.31798 41.355 16.388 44.23 39.839zm-27.556 0.71545c-0.80304-6.7265-6.2958-11.49-13.229-11.337l-14.884 0.33631 2.7586 23.769 14.915-0.44028c6.9456-0.2079 11.267-5.4118 10.446-12.328zm29.818-41.209 14.958 121.25 29.113-1.4615-15.246-120.2-28.824 0.4036z" fill="#ff6130"/>
 <path d="m259.9 233.95c-37.554 1.5838-74.63-17.929-96.858-47.758-35.255-46.327-33.306-117.24 13.615-155.01 31.988-25.744 71.111-22.008 109.63-22.222 23.301-0.12841 46.608-0.22627 69.91-0.31798 46.308-0.18344 93.229 1.8712 139.48-0.60539 0 0-252.52-9.8084-269.66-7.7538-17.146 2.0546-23.644 3.6751-33.134 7.3563-13.579 5.2038-25.839 13.318-36.199 23.414l-129.88 118.01c-16.589 17.091-26.795 40.377-26.795 66.042 0 52.448 42.624 94.966 95.203 94.966 18.299 0-7.7732 2.5255 232.22-36.702 200.96-32.844 446.65-72.866 446.65-72.866l-514.16 33.443z" fill="#2e6bf6"/>
</svg>
