<svg version="1.1" viewBox="0 0 191.35 119.26" xmlns="http://www.w3.org/2000/svg" xmlns:xlink="http://www.w3.org/1999/xlink">
 <defs>
  <style>.cls-1{isolation:isolate;}.cls-2{fill:#223170;}.cls-3{fill:#fa3135;}.cls-4{fill:url(#b);}.cls-5{fill:url(#u);}.cls-6{fill:#eb282d;}.cls-10,.cls-11,.cls-12,.cls-13,.cls-7,.cls-8,.cls-9{opacity:0.21;}.cls-7{fill:url(#a);}.cls-8{fill:url(#k);}.cls-9{fill:url(#j);}.cls-10{fill:url(#i);}.cls-11{fill:url(#h);}.cls-12{fill:url(#g);}.cls-13{fill:url(#f);}.cls-14{fill:url(#d);}.cls-15{opacity:0.5;fill:url(#e);}.cls-16{opacity:0.58;fill:url(#c);}.cls-17{fill:url(#w);}.cls-18{fill:url(#n);}.cls-19{fill:#19285a;opacity:0.4;mix-blend-mode:multiply;}.cls-20{fill:url(#v);}.cls-21{fill:url(#m);}.cls-22{fill:url(#l);}.cls-23{fill:url(#t);}.cls-24{fill:url(#s);}.cls-25{fill:url(#r);}.cls-26{fill:url(#q);}.cls-27{fill:url(#p);}.cls-28{fill:url(#o);}</style>
  <linearGradient id="b" x1="99.99" x2="243.9" y1="75.12" y2="107.31" gradientUnits="userSpaceOnUse">
   <stop stop-color="#283287" offset="0"/>
   <stop stop-color="#2d378c" offset=".25"/>
   <stop stop-color="#3b469a" offset=".56"/>
   <stop stop-color="#525fb1" offset=".9"/>
   <stop stop-color="#5a68b9" offset="1"/>
  </linearGradient>
  <linearGradient id="u" x1="99" x2="242.91" y1="79.55" y2="111.74" xlink:href="#b"/>
  <linearGradient id="a" x1="163.85" x2="170.37" y1="38.06" y2="50.6" gradientUnits="userSpaceOnUse">
   <stop stop-color="#fff" stop-opacity="0" offset="0"/>
   <stop stop-color="#fff" offset="1"/>
  </linearGradient>
  <linearGradient id="k" x1="97.69" x2="104.22" y1="72.67" y2="85.21" xlink:href="#a"/>
  <linearGradient id="j" x1="151.99" x2="158.51" y1="44.24" y2="56.78" xlink:href="#a"/>
  <linearGradient id="i" x1="190.04" x2="196.57" y1="24.42" y2="36.96" xlink:href="#a"/>
  <linearGradient id="h" x1="113.86" x2="120.39" y1="64.08" y2="76.62" xlink:href="#a"/>
  <linearGradient id="g" x1="176.15" x2="182.68" y1="31.66" y2="44.2" xlink:href="#a"/>
  <linearGradient id="f" x1="137.33" x2="143.86" y1="51.86" y2="64.4" xlink:href="#a"/>
  <linearGradient id="d" x1="82.21" x2="82.21" y1="3.4" y2="38.02" gradientUnits="userSpaceOnUse">
   <stop stop-color="#4b50b4" offset="0"/>
   <stop stop-color="#3646a0" offset=".5"/>
   <stop stop-color="#19285a" offset="1"/>
  </linearGradient>
  <linearGradient id="e" x1="56.2" x2="106.22" y1="17.45" y2="17.45" gradientUnits="userSpaceOnUse">
   <stop stop-color="#fff" stop-opacity="0" offset="0"/>
   <stop stop-color="#fff" stop-opacity=".01" offset=".14"/>
   <stop stop-color="#fff" stop-opacity=".06" offset=".27"/>
   <stop stop-color="#fff" stop-opacity=".13" offset=".39"/>
   <stop stop-color="#fff" stop-opacity=".23" offset=".51"/>
   <stop stop-color="#fff" stop-opacity=".36" offset=".63"/>
   <stop stop-color="#fff" stop-opacity=".53" offset=".74"/>
   <stop stop-color="#fff" stop-opacity=".72" offset=".86"/>
   <stop stop-color="#fff" stop-opacity=".93" offset=".97"/>
   <stop stop-color="#fff" offset="1"/>
  </linearGradient>
  <linearGradient id="c" x1="66.21" x2="67.26" y1="17.56" y2="35.11" gradientUnits="userSpaceOnUse">
   <stop stop-color="#fff" stop-opacity="0" offset=".01"/>
   <stop stop-color="#fff" stop-opacity=".04" offset=".09"/>
   <stop stop-color="#fff" stop-opacity=".15" offset=".23"/>
   <stop stop-color="#fff" stop-opacity=".32" offset=".4"/>
   <stop stop-color="#fff" stop-opacity=".57" offset=".61"/>
   <stop stop-color="#fff" stop-opacity=".87" offset=".85"/>
   <stop stop-color="#fff" offset=".94"/>
  </linearGradient>
  <linearGradient id="w" x1="116.32" x2="120.35" y1="85.28" y2="113.98" xlink:href="#d"/>
  <linearGradient id="n" x1="119.81" x2="119.81" y1="125.64" y2="48.06" xlink:href="#a"/>
  <linearGradient id="v" x1="71.89" x2="77.31" y1="56.21" y2="78.88" xlink:href="#d"/>
  <linearGradient id="m" x1="45.35" x2="45.35" y1="65.4" y2="21.73" xlink:href="#c"/>
  <linearGradient id="l" x1="57.85" x2="55.39" y1="96.23" y2="79.89" xlink:href="#c"/>
  <linearGradient id="t" x1="113.89" x2="257.8" y1="12.99" y2="45.18" xlink:href="#b"/>
  <linearGradient id="s" x1="113.35" x2="257.26" y1="15.4" y2="47.58" xlink:href="#b"/>
  <linearGradient id="r" x1="112.95" x2="256.86" y1="17.16" y2="49.35" xlink:href="#b"/>
  <linearGradient id="q" x1="112.07" x2="255.98" y1="21.12" y2="53.3" xlink:href="#b"/>
  <linearGradient id="p" x1="111.43" x2="255.34" y1="23.99" y2="56.17" xlink:href="#b"/>
  <linearGradient id="o" x1="112.08" x2="255.99" y1="21.08" y2="53.26" xlink:href="#b"/>
  <linearGradient id="aa" x1="99.99" x2="243.9" y1="75.12" y2="107.31" gradientUnits="userSpaceOnUse" xlink:href="#b"/>
  <linearGradient id="z" x1="163.85" x2="170.37" y1="38.06" y2="50.6" gradientUnits="userSpaceOnUse" xlink:href="#a"/>
  <linearGradient id="y" x1="82.21" x2="82.21" y1="3.4" y2="38.02" gradientUnits="userSpaceOnUse" xlink:href="#d"/>
  <linearGradient id="x" x1="66.21" x2="67.26" y1="17.56" y2="35.11" gradientUnits="userSpaceOnUse" xlink:href="#c"/>
 </defs>
 <g transform="translate(-21.833)" style="isolation:isolate" data-name="NEW 3D">
  <path class="cls-4" d="m185.86 79.49-4 18-5.26-18.05-7.81-0.03 0.86 27.78 5.63-0.12-0.87-20.72 0.08-0.07 5.72 20.67 3.96-0.08 4.23-20.62 0.07 0.07 0.54 20.43 5.41-0.12-1-27.1-7.56-0.04z" fill="url(#aa)"/>
  <path class="cls-5" d="m167.52 90.34-7.04 0.04-0.13-4.76 7.27-0.01-0.19-6.21-13.25-0.07 0.76 28.2 6.03-0.14-0.31-10.72 7.04-0.08-0.18-6.25z" fill="url(#u)"/>
  <path class="cls-6" d="m161.12 51.07 5.03 0.15 0.74 23.63h6.44l-0.72-23.43 4.89 0.14-0.21-5.92-16.35-0.7 0.18 6.13zm-55.55 11.66-7.87-0.15a11 11 0 0 1-0.63 1.31 9.49 9.49 0 0 1-1.3 1.79 7.09 7.09 0 0 1-2.11 1.56 6.76 6.76 0 0 1-3.06 0.64 7.31 7.31 0 0 1-3.37-0.88 8.16 8.16 0 0 1-2.59-2.2 10.44 10.44 0 0 1-1.64-3.08 11.58 11.58 0 0 1-0.61-3.57 10.92 10.92 0 0 1 0.5-3.4 9.39 9.39 0 0 1 1.53-3 7.24 7.24 0 0 1 2.5-2.08 7 7 0 0 1 3.4-0.67 7.17 7.17 0 0 1 2.75 0.62 7.54 7.54 0 0 1 2.1 1.38 9.14 9.14 0 0 1 1.49 1.84 10 10 0 0 1 0.92 1.89l7.86 0.2a14.88 14.88 0 0 0-1.44-4.08 17.71 17.71 0 0 0-3-4.18 15.85 15.85 0 0 0-4.57-3.33 15.43 15.43 0 0 0-6.18-1.5 14.93 14.93 0 0 0-6.56 1.16 14.3 14.3 0 0 0-5 3.62 16.31 16.31 0 0 0-3.11 5.27 17.38 17.38 0 0 0-1 6.09 18.07 18.07 0 0 0 1.23 6.38 17.76 17.76 0 0 0 3.36 5.46 16.06 16.06 0 0 0 5.11 3.81 15.54 15.54 0 0 0 6.5 1.46 14.71 14.71 0 0 0 5.15-0.86 14.27 14.27 0 0 0 4.37-2.51 15.07 15.07 0 0 0 3.3-3.91 17 17 0 0 0 1.97-5.08zm54.11-17.82-6.82-0.31 0.82 30.25h6.83l-0.83-29.94zm53.25 23.72-6.96-0.11-0.85-21.74-6.07-0.22 1.1 28.35 13.03-0.01-0.25-6.27zm-93.29-25.38-5.74-0.25-11.16 31.6 8 0.07 1.48-4.84 10 0.13 1.6 4.72h7.74zm-5.49 20.25 2.76-10.66h0.09l3.13 10.77zm74.38-17.38-4.64-0.25-9.19 29h6.85l1.21-4.3 8.49 0.11 1.38 4.22h6.62zm-4.24 18.65 2.19-9.68h0.09l2.83 9.77zm-32.45-12.41a12.09 12.09 0 0 0-0.65-2.17 11 11 0 0 0-1-2 9.69 9.69 0 0 0-1.43-1.7 7.57 7.57 0 0 0-1.23-1 7.74 7.74 0 0 0-1.64-0.75 13.55 13.55 0 0 0-2.3-0.52 32 32 0 0 0-3.23-0.19l-9-0.36 0.76 31 6.81 0.06-0.38-9.73h3a19.55 19.55 0 0 0 2.78-0.12 9.94 9.94 0 0 0 2.08-0.46 7.36 7.36 0 0 0 1.62-0.8 10 10 0 0 0 1.4-1.14 6.9 6.9 0 0 0 1.13-1.49 10.39 10.39 0 0 0 0.85-1.93 13.42 13.42 0 0 0 0.66-4.5 13 13 0 0 0-0.23-2.2zm-6.78 4.34a2.6 2.6 0 0 1-1.16 1.07 4.26 4.26 0 0 1-1.42 0.37 10.29 10.29 0 0 1-1.24 0l-2.86-0.07-0.17-7.31 2.59 0.08a11.49 11.49 0 0 1 1.35 0.1 5 5 0 0 1 1.52 0.44 3 3 0 0 1 1.25 1.1 4.68 4.68 0 0 1 0.14 4.21z" fill="#eb282d"/>
  <path class="cls-7" d="m172.61 51.42 4.89 0.15-0.21-5.92-16.36-0.7 0.19 6.13 5 0.15 0.16 5.18q3.18-1 6.39-1.91z" fill="url(#z)" opacity=".21"/>
  <path class="cls-8" d="m79.18 69.84a16.06 16.06 0 0 0 5.11 3.81 15.54 15.54 0 0 0 6.5 1.46 14.71 14.71 0 0 0 5.15-0.86 14.27 14.27 0 0 0 4.37-2.51 15.07 15.07 0 0 0 3.3-3.91 17 17 0 0 0 2-5.09l-7.87-0.15a11 11 0 0 1-0.63 1.31 9.49 9.49 0 0 1-1.3 1.79 7.09 7.09 0 0 1-2.11 1.56 6.76 6.76 0 0 1-3.06 0.64 7.31 7.31 0 0 1-3.41-0.89 8.16 8.16 0 0 1-2.59-2.2 10.44 10.44 0 0 1-1.64-3.08 11.58 11.58 0 0 1-0.61-3.57 10.92 10.92 0 0 1 0.5-3.4 9.39 9.39 0 0 1 1.53-3 7.24 7.24 0 0 1 2.5-2.08 7 7 0 0 1 3.4-0.67 7.17 7.17 0 0 1 2.75 0.62 7.54 7.54 0 0 1 2.1 1.38 9.14 9.14 0 0 1 1.49 1.84 10 10 0 0 1 0.92 1.89l7.86 0.2a14.89 14.89 0 0 0-1.44-4.08 17.71 17.71 0 0 0-3-4.18 15.84 15.84 0 0 0-4.57-3.33 15.42 15.42 0 0 0-6.18-1.5 14.93 14.93 0 0 0-6.56 1.16 14.3 14.3 0 0 0-5 3.62 16.31 16.31 0 0 0-3.11 5.27 17.38 17.38 0 0 0-1 6.09 18.07 18.07 0 0 0 1.23 6.38 17.76 17.76 0 0 0 3.37 5.48z" fill="url(#k)" opacity=".21"/>
  <path class="cls-9" d="m159.68 44.92-6.81-0.31 0.44 16.25q3.36-1.25 6.75-2.42z" fill="url(#j)" opacity=".21"/>
  <path class="cls-10" d="m205.12 46.78-6.06-0.22 0.07 1.91q3-0.52 6-1z" fill="url(#i)" opacity=".21"/>
  <path class="cls-11" d="m119.64 43.25-5.74-0.25-11.16 31.6 8 0.07 1.48-4.84 10 0.13 1.4 4.11q3.21-1.68 6.48-3.29zm-5.49 20.25 2.76-10.66h0.09l3.13 10.77z" fill="url(#h)" opacity=".21"/>
  <path class="cls-12" d="m188.53 46.12-4.64-0.24-2 6.19q4-1 8.13-1.86z" fill="url(#g)" opacity=".21"/>
  <path class="cls-13" d="m138.55 65h4.12c2.34-1 4.7-1.94 7.08-2.87a7.19 7.19 0 0 0 0.81-1.12 10.39 10.39 0 0 0 0.85-1.93 13.42 13.42 0 0 0 0.66-4.5 13 13 0 0 0-0.26-2.28 12.08 12.08 0 0 0-0.65-2.17 11 11 0 0 0-1-2 9.69 9.69 0 0 0-1.43-1.7 7.57 7.57 0 0 0-1.23-1 7.74 7.74 0 0 0-1.64-0.75 13.55 13.55 0 0 0-2.3-0.52 32 32 0 0 0-3.23-0.19l-9-0.36 0.64 26.2q3.3-1.58 6.66-3.07zm-0.33-14.23 2.59 0.08a11.49 11.49 0 0 1 1.35 0.1 5 5 0 0 1 1.52 0.44 3 3 0 0 1 1.25 1.1 4.68 4.68 0 0 1 0.12 4.2 2.6 2.6 0 0 1-1.16 1.07 4.26 4.26 0 0 1-1.42 0.37 10.28 10.28 0 0 1-1.24 0l-2.86-0.07z" fill="url(#f)" opacity=".21"/>
  <path class="cls-14" d="m52.61 44.33v-0.18c-0.26-19.83 14.83-25.65 14.83-25.65l44.38-18.5c-0.7 0.43-1.82 1.25-1.82 1.25l-0.18 0.12a20.59 20.59 0 0 0-1.69 1.45l-0.23 0.24-0.18 0.16c-0.12 0.12-0.22 0.27-0.35 0.4q-0.64 0.68-1.21 1.41l-0.52 0.68c-0.39 0.53-0.75 1.09-1.09 1.66-0.09 0.14-0.2 0.27-0.27 0.42s0 0.09-0.07 0.14a22.9 22.9 0 0 0-1.09 2.24s0 0.11-0.05 0.16-0.13 0.38-0.2 0.57c-0.25 0.66-0.47 1.34-0.66 2 0 0.13-0.09 0.25-0.12 0.38s0 0.34-0.09 0.5q-0.22 1-0.36 2c0 0.29-0.09 0.57-0.12 0.86a24.77 24.77 0 0 0-0.14 2.9l0.19 12-9.45-0.44a26.16 26.16 0 0 0-10.35 1.6z" fill="url(#y)"/>
  <path class="cls-15" d="m67.44 18.5h-0.21l-0.23 0.19a25.29 25.29 0 0 0-12.87 15q-0.18 0.55-0.34 1.13a69.6 69.6 0 0 1 11.93-6.19s22.15-9.36 28.75-10.86a54.26 54.26 0 0 1 7.08-0.93v-0.28c0-0.29 0.08-0.57 0.12-0.86q0.14-1 0.36-2c0-0.16 0-0.34 0.09-0.5s0.09-0.25 0.12-0.38c0.19-0.7 0.41-1.37 0.65-2 0.07-0.19 0.13-0.38 0.2-0.57s0-0.11 0.05-0.16a22.9 22.9 0 0 1 1.09-2.24s0-0.1 0.07-0.14 0.19-0.27 0.27-0.42c0.34-0.57 0.7-1.13 1.09-1.66l0.51-0.63q0.57-0.73 1.21-1.41c0.12-0.13 0.22-0.27 0.35-0.4l0.18-0.16 0.23-0.24a20.58 20.58 0 0 1 1.69-1.45l0.17-0.09s1.12-0.82 1.82-1.25z" fill="url(#e)" opacity=".5"/>
  <path class="cls-16" d="m53.73 35a66.71 66.71 0 0 1 12.84-6.62c0.46-3.26 2.14-8 12.92-14.86l-12 5a25.13 25.13 0 0 0-13.76 16.48z" fill="url(#x)" opacity=".58"/>
  <path class="cls-17" d="m80 92.64c0.1 6.43 0.91 25.28 19.69 25.81 19.35 0.55 56.42 0.78 59.18 0.8a22 22 0 0 1-7.26-1.59 8.17 8.17 0 0 0-0.84-0.41 26.18 26.18 0 0 1-8.48-5.83 28.72 28.72 0 0 1-5.9-8.9 30.17 30.17 0 0 1-2.36-11l-0.14-5.92z" fill="url(#w)"/>
  <path class="cls-18" d="m151.63 117.66a8.16 8.16 0 0 0-0.84-0.41 26.18 26.18 0 0 1-8.48-5.83c-0.39-0.4-0.76-0.81-1.13-1.23-20.15 0.26-38.59-0.78-49.33-3.17-7.68-1.71-9.56-4-11.13-5.65 1.41 7.59 5.7 16.71 19 17.09 19.35 0.5 56.42 0.78 59.18 0.8a22 22 0 0 1-7.27-1.6z" fill="url(#n)"/>
  <path class="cls-19" d="m150.8 117.25a26.18 26.18 0 0 1-8.48-5.83c-0.39-0.4-0.76-0.81-1.13-1.24-16.47 0.21-31.19-0.47-42.56-2 0.1 1.51 1.95 3.7 11.74 6 7.21 1.68 13.65 3.42 21 4.81 13.83 0.16 26 0.24 27.55 0.25a22 22 0 0 1-7.26-1.59 8.16 8.16 0 0 0-0.86-0.4z" fill="#19285a" opacity=".4" style="mix-blend-mode:multiply"/>
  <path class="cls-20" d="m52.67 44.29-17.29 7.65s-15.3 6.3-13.38 24.66a22.41 22.41 0 0 0 2.89 9.51 22.15 22.15 0 0 0 4.11 5.37 22.74 22.74 0 0 0 7.28 4.72 18.53 18.53 0 0 0 8.81 1.65c7.82-0.15 88.91-12.26 88.91-12.26l-41.07 0.07a27.22 27.22 0 0 1-10.67-2.18 28.36 28.36 0 0 1-8.9-6 28.77 28.77 0 0 1-6.1-9 28.18 28.18 0 0 1-2.3-10.93c0-0.86 0-1.7 0.12-2.54l0.06-0.65c0.08-0.74 0.19-1.46 0.32-2.18v-0.29q0.2-1 0.46-1.91c0-0.12 0.08-0.24 0.12-0.36 0.1-0.35 0.22-0.69 0.34-1s0.15-0.48 0.24-0.72c0.13-0.36 0.24-0.73 0.39-1.08a26 26 0 0 1 5.99-8.59 25.68 25.68 0 0 1 8.69-5.5z" fill="url(#v)"/>
  <path class="cls-21" d="m36.74 55.5c10.77-4.19 23.14-9 23.14-9a29.11 29.11 0 0 1 7.87-8.26l-15.07 6-17.3 7.7a23.81 23.81 0 0 0-12.38 14c3.77-5.49 6.61-7.67 13.74-10.44z" fill="url(#m)"/>
  <path class="cls-22" d="m84.67 92.78c-5.41-0.24-17.8-0.79-22.61-5.85-30 6.8-31.85 4.78-34.72 2.79a21.83 21.83 0 0 0 1.66 1.76 22.74 22.74 0 0 0 7.28 4.72 18.53 18.53 0 0 0 8.81 1.65c3.58-0.07 22.36-2.62 41.74-5.38z" fill="url(#l)"/>
  <path class="cls-23" d="m191.71 25.92a5.44 5.44 0 0 1 2.07 0.6 6.53 6.53 0 0 1 1.9 1.48 7.58 7.58 0 0 1 1.4 2.34 9.46 9.46 0 0 1 0.59 3.2 9.26 9.26 0 0 1-0.5 3.29 7 7 0 0 1-1.5 2.48 6.22 6.22 0 0 1-2.25 1.54 6.63 6.63 0 0 1-2.78 0.45 7.94 7.94 0 0 1-1.72-0.27 7.5 7.5 0 0 1-1.61-0.63 7.08 7.08 0 0 1-2.57-2.32 7 7 0 0 1-0.78-1.31 9.47 9.47 0 0 1-0.53-1.44 11.67 11.67 0 0 1-0.3-1.45 11.09 11.09 0 0 1-0.11-1.35 9.19 9.19 0 0 1 0.11-1.59 10.31 10.31 0 0 1 0.35-1.48 11.85 11.85 0 0 1 0.52-1.36c0.2-0.44 0.42-0.86 0.65-1.26l4.54-7.47 5.51 0.44-4 6.11 0.12 0.08a0.56 0.56 0 0 1 0.18-0.06h0.45zm-1.31 10.54a2.45 2.45 0 0 0 1-0.15 2.3 2.3 0 0 0 0.83-0.55 2.52 2.52 0 0 0 0.55-0.88 3.18 3.18 0 0 0 0.19-1.16 3.59 3.59 0 0 0-0.19-1.06 3.46 3.46 0 0 0-0.52-1 2.83 2.83 0 0 0-0.84-0.74 2.6 2.6 0 0 0-1.14-0.34 2.18 2.18 0 0 0-1.83 0.75 2.66 2.66 0 0 0-0.5 0.88 3.21 3.21 0 0 0-0.16 1.08 3.75 3.75 0 0 0 0.26 1.33 3 3 0 0 0 0.62 1 2.72 2.72 0 0 0 0.83 0.61 2.36 2.36 0 0 0 0.89 0.24" fill="url(#t)"/>
  <path class="cls-24" d="m174.77 17.78a7.33 7.33 0 0 1 2.18 0.56 8.24 8.24 0 0 1 2.36 1.51 8 8 0 0 1 1.9 2.67 10.27 10.27 0 0 1 0.83 4l0.11 6.06a9.81 9.81 0 0 1-0.62 3.8 6.48 6.48 0 0 1-1.69 2.47 6.33 6.33 0 0 1-2.29 1.31 6.82 6.82 0 0 1-2.41 0.32 7.5 7.5 0 0 1-2.38-0.55 8.23 8.23 0 0 1-2.45-1.55 8.05 8.05 0 0 1-1.93-2.7 10.2 10.2 0 0 1-0.82-4l-0.09-6.18a9.36 9.36 0 0 1 0.71-3.95 6.29 6.29 0 0 1 1.82-2.37 6.53 6.53 0 0 1 2.4-1.18 7 7 0 0 1 2.37-0.22zm2.43 14.68-0.1-6.36a6.72 6.72 0 0 0 0-0.8 4.46 4.46 0 0 0-0.27-1.11 2.49 2.49 0 0 0-0.69-1 2.25 2.25 0 0 0-1.32-0.51 1.93 1.93 0 0 0-1.19 0.25 1.88 1.88 0 0 0-0.69 0.79 3.52 3.52 0 0 0-0.32 1 5.58 5.58 0 0 0-0.07 1l0.1 6.4a6.21 6.21 0 0 0 0.1 1.08 4.07 4.07 0 0 0 0.36 1.09 2.35 2.35 0 0 0 0.72 0.86 2.21 2.21 0 0 0 1.19 0.39 2 2 0 0 0 1.32-0.34 2 2 0 0 0 0.66-0.93 4.07 4.07 0 0 0 0.23-1.08 6.23 6.23 0 0 0 0-0.79" fill="url(#s)"/>
  <path class="cls-25" d="m165.81 17.48 0.31 22.18-5.18-0.26-0.23-17.57-3.32-0.24-0.06-4.79 8.48 0.68z" fill="url(#r)"/>
  <path class="cls-26" d="m158.75 28.09 0.07 4.96-12.07-0.71-0.06-5.04 12.06 0.79z" fill="url(#q)"/>
  <path class="cls-27" d="m126.19 16.9a6.82 6.82 0 0 1 0.92 1.35 7.78 7.78 0 0 1 0.58 1.48 10.23 10.23 0 0 1 0.31 1.55 13.1 13.1 0 0 1 0.09 1.56 9.83 9.83 0 0 1-0.18 1.78 10.44 10.44 0 0 1-0.45 1.62 12.44 12.44 0 0 1-0.66 1.48c-0.25 0.47-0.52 0.92-0.8 1.36l-5.55 8.31-6.78-0.39 5-6.91v-0.07h-1.11a6.86 6.86 0 0 1-2.51-0.66 8.17 8.17 0 0 1-2.35-1.68 8.37 8.37 0 0 1-1.74-2.64 9.3 9.3 0 0 1-0.69-3.55 9.13 9.13 0 0 1 0.7-3.65 7.65 7.65 0 0 1 1.93-2.69 7.74 7.74 0 0 1 2.83-1.59 8.85 8.85 0 0 1 3.4-0.37 11.4 11.4 0 0 1 2.08 0.36 10.38 10.38 0 0 1 1.92 0.73 9.12 9.12 0 0 1 1.69 1.09 8.47 8.47 0 0 1 1.37 1.53zm-6.92 8a3.16 3.16 0 0 0 1.29-0.17 2.65 2.65 0 0 0 1-0.61 2.8 2.8 0 0 0 0.62-0.95 3.16 3.16 0 0 0 0.21-1.16 3.64 3.64 0 0 0-0.29-1.44 3.28 3.28 0 0 0-0.73-1.07 3.39 3.39 0 0 0-1-0.68 3.3 3.3 0 0 0-1.11-0.29 3.07 3.07 0 0 0-1.18 0.14 2.74 2.74 0 0 0-1 0.57 2.71 2.71 0 0 0-0.68 0.95 3.2 3.2 0 0 0-0.25 1.27 3.63 3.63 0 0 0 0.21 1.17 3.56 3.56 0 0 0 0.6 1.07 3.24 3.24 0 0 0 1 0.81 3.4 3.4 0 0 0 1.35 0.37" fill="url(#p)"/>
  <path class="cls-28" d="m142.63 15.62v4.91l-7.63-0.59-0.41 3.06c0.15-0.07 0.3-0.15 0.47-0.22a3.37 3.37 0 0 1 0.58-0.17 4.55 4.55 0 0 1 0.78-0.1 9.74 9.74 0 0 1 1.08 0 7.22 7.22 0 0 1 5.5 3.12 9.32 9.32 0 0 1 1.71 5.14 8.63 8.63 0 0 1-0.44 2.75 8.16 8.16 0 0 1-1.43 2.62 6.92 6.92 0 0 1-2.52 1.93 8.07 8.07 0 0 1-3.72 0.63 9.59 9.59 0 0 1-3.19-0.69 8.47 8.47 0 0 1-2.51-1.58 8.56 8.56 0 0 1-1.76-2.24 9.12 9.12 0 0 1-0.94-2.68l5.65 0.34a4.16 4.16 0 0 0 0.39 0.5 4.67 4.67 0 0 0 0.39 0.39 3.44 3.44 0 0 0 0.4 0.28 2.14 2.14 0 0 0 0.38 0.18 1.93 1.93 0 0 0 0.32 0.13l0.27 0.05h0.41a2.7 2.7 0 0 0 1.13-0.18 2.66 2.66 0 0 0 0.92-0.6 2.77 2.77 0 0 0 0.62-0.93 2.89 2.89 0 0 0 0.22-1.17 3.36 3.36 0 0 0-0.2-1.12 3.16 3.16 0 0 0-0.57-1 3 3 0 0 0-0.92-0.75 3.21 3.21 0 0 0-1.27-0.35 3.27 3.27 0 0 0-0.81 0 2.36 2.36 0 0 0-0.77 0.26 2.42 2.42 0 0 0-0.69 0.57 3.57 3.57 0 0 0-0.55 0.94l-4.56-1.49 1.79-13z" fill="url(#o)"/>
 </g>
</svg>
