<svg width="800" height="315.9" version="1.0" viewBox="0 0 800 315.9" xmlns="http://www.w3.org/2000/svg">
 <g transform="matrix(.030226 0 0 -.030226 -27.238 345.22)" fill="#ff2600">
  <path d="m27134 11388c-17-18-36-42-42-53-10-17-11-17-12-3 0 20-29 38-59 38-26 0-26-5-1-37 26-34 25-45-6-74-26-25-54-70-54-89 0-5 8-10 17-10s14-3 11-6c-7-6-201-34-206-29-2 1 12 17 30 34l33 31h-37c-20 0-39 4-42 9-3 4 6 6 19 3 25-4 55 12 55 29 0 5-44 6-100 3-99-7-99-7-109 18-8 20-15 24-50 23-36-1-45-6-61-33-15-25-27-32-51-32h-31l3-102c2-65-1-103-8-105-6-2-13 13-17 34-9 55-20 70-40 54-22-18-20-44 5-67l21-19-24-6c-12-4-121-7-240-8-120-1-218-3-218-6s5-13 11-23 71-715 148-1622l136-1605 333-3 334-2-7 32c-6 27-3 35 21 54s26 25 14 39c-10 12-11 38-5 118 5 56 9 188 10 292 2 168 4 197 23 248 12 32 22 67 22 78s11 24 25 31c30 14 32 24 5 38-18 10-20 21-20 105 0 86 2 95 22 109 17 12 20 18 10 28-17 17-15 98 8 298 12 96 27 231 34 298 12 119 17 132 51 146 6 2 0 11-12 21-21 15-23 24-23 109 0 86 2 95 22 108 19 13 21 18 9 31-10 12-11 41-7 119 7 114 7 146 4 216-2 34 5 63 25 106 24 52 27 70 27 166 0 104 1 107 25 120 14 7 25 16 25 20s-11 12-25 18c-23 10-25 17-25 70 0 52 3 60 25 72 27 14 31 25 15 35-6 3-10 49-10 104v97l53-7c28-4 61-10 72-14 14-4 26 0 38 13 16 18 15 19-18 35-47 22-45 48 4 80 56 37 62 64 22 96-37 31-38 37-7 45 26 6 42 38 30 57-6 10-22 9-103-7-32-6-38-3-66 30l-30 37z"/>
  <path d="m18237 11332c-16-17-17-103-17-1033 0-1e3 0-1014 20-1047 15-24 27-32 43-30 18 2 22 9 20 36 0 18-8 41-17 51-14 16-16 115-16 1008v990l25 11c14 6 25 16 25 22 0 18-66 11-83-8z"/>
  <path d="m1681 11197c-6-8-29-22-51-32-44-20-47-26-25-45 33-28 8-143-39-175-28-20-36-19-36 8 0 41-9 44-132 39l-118-5-4-442-6 205c-4 113-8 213-9 223-1 11-9 17-26 17h-25l2-390 3-390h-26c-26 0-69-36-69-59 0-10-10-12-37-7-21 4-58 10-82 13l-44 6 6-48c4-26 7-63 7-81 0-30 7-38 56-71 48-32 53-39 40-49-9-6-16-14-16-17 0-10 89-48 126-54 34-6 44-18 22-26-10-3-10-9 0-26 7-12 12-57 12-108 0-67 5-99 21-132l20-45-21-47c-20-47-20-61-20-1454 0-1261-2-1409-16-1437l-16-30-22 21c-25 23-74 28-98 9-8-7-28-37-43-65-24-46-27-60-22-110 9-82-18-143-63-143-34 0-37-6-14-38 20-29 66-52 104-52 23 0 33-5 37-20 7-28 18-25 43 10 25 36 40 38 40 8 0-13 9-34 20-48l20-25 17 23c18 21 18 20 15-51l-3-73 305 4 305 5 37-37c36-36 54-39 54-9 0 10 6 13 16 9 9-3 24-6 34-6s20-10 24-22c14-56 190-107 254-74 17 9 42 16 57 16 27 0 33 21 15 50-8 12-3 16 22 20 45 7 49 30 5 30-21 0-41 7-52 20-18 20-17 20 35 20 45 0 51 2 40 15-6 8-9 23-5 34 4 14 0 21-15 26-18 6-20 15-20 81v74h-90v2034l183-245c100-134 221-292 268-349 47-58 123-157 169-220s104-137 130-165c26-27 68-81 93-120 25-38 87-122 137-185s119-153 153-199 114-149 177-230c64-80 127-166 141-191s65-94 113-155c48-60 104-131 124-157l37-47 2453-1h2452v1970h323c300 0 325-1 340-18 20-22 292-576 437-887 56-121 117-248 136-282 40-72 42-87 13-78-12 4-32 1-45-6-21-11-24-20-24-66v-53h68c52 0 73-4 87-17 10-10 79-139 154-288l136-270 681-3c375-1 699 1 720 6 36 7 39 11 42 45 3 31 7 37 26 37 30 0 86 20 86 30 0 5-8 14-17 19-14 8-4 10 40 11h57v-64c0-56 3-67 22-80 12-9 39-16 59-16 47 0 46-3 55 234 6 155 9 181 25 197 15 15 19 34 19 83 0 79 18 101 53 67 13-11 29-21 35-21 23 0 12 53-20 92-28 36-30 44-21 69 10 27 9 30-33 54-43 26-44 27-44 80 0 39 8 70 27 111 27 54 27 56 9 69-17 13-17 15 9 41l26 26 23-21c28-27 36-26 36 2 0 12-9 28-21 35l-20 13 20 34c11 18 17 43 14 54-4 15 3 25 26 39l32 19-36 22c-32 19-36 25-30 48 3 15 17 37 31 50 13 12 24 27 24 33 0 5 6 10 13 10 6 0 19 5 27 10 12 8 11 12-8 31-29 26-22 36 10 16 22-15 25-13 80 38l57 53-33 36c-23 26-41 36-62 36-35 0-54 16-54 45 0 12-9 30-20 40-19 17-20 17-37-4l-18-22-33 25c-18 13-47 30-63 36l-29 12v187l270-1c283-1 294-3 250-43-33-30-26-48 18-42 20 3 45 8 55 12 14 6 17 1 17-30 0-30 3-35 18-32 9 3 33 8 53 11l36 6 448-919c246-506 454-922 462-925s356-6 774-6h759v24c0 37 58 153 87 171l25 17-22 15c-21 14-21 16-3 35 10 12 16 31 15 48-4 37 18 79 63 119l36 32-22 18-23 18 21 14c17 10 19 17 12 31-14 26 44 151 78 169l25 13-23 19c-24 19-24 19-4 36 12 9 19 25 17 39-8 54-51 52 893 52h873l6-43c4-24 20-72 37-107 37-78 40-138 10-203-24-52-26-71-10-116 10-27 15-31 49-31 50 0 72-28 64-81-5-32-3-38 15-44 13-4 21-15 21-29 0-13 7-29 15-36 12-10 15-36 15-114 0-101 0-103 30-131 23-22 30-37 28-61-1-17 6-43 15-57 23-35 22-37-18-37s-46-17-15-45c12-11 20-31 20-50 0-22 9-40 30-60 23-22 30-38 30-67 0-21 4-38 8-38 14 0 60 53 95 108l33 52 18-31c11-19 16-39 12-55-8-32 1-30 39 9 17 17 50 47 73 65 25 19 42 42 42 53 0 18-5 20-40 17-48-4-56 15-9 23 36 6 80 26 90 41 3 5 28-1 55-12 40-18 55-20 88-11 28 7 44 7 53-1 10-8 13-6 15 8 0 11 2 25 2 32 1 8 9 18 19 23 17 10 17 12-3 45-18 29-19 34-6 34 9 0 25-9 35-19 18-18 20-19 35-2 11 12 14 28 10 47l-6 30 893-8-3 388-3 389-37 55c-38 57-64 127-37 103 7-7 28-13 46-13h33l2 1068 3 1067 54-90c30-49 122-193 204-320 238-365 489-755 1007-1565 266-415 532-828 592-917l108-163h100v-35c0-19 4-35 8-35 15 0 42 36 42 54 0 30 34 14 45-21 17-52 53-83 97-83 29 0 41-6 54-25 16-24 43-33 57-18 4 3 1 13-5 22-8 10-4 9 9-3 13-10 20-22 17-27s1-36 8-69c11-56 14-60 40-60 27 0 28 1 28 55v55h44c24 0 51 3 60 6 31 12 15 24-31 24-93 0-116 18-64 48 24 14 31 26 36 64l7 48h328v31c0 17-12 58-27 91l-26 60 29 23c20 17 24 24 13 25-9 0-36 17-60 39-30 26-58 41-89 46-56 10-80 24-80 50 0 29 19 45 51 45 33 0 46 15 51 57 3 31 4 32 28 20 23-12 25-19 28-90l3-77h79v439l-31 16c-28 15-30 20-27 63 2 39 8 49 30 62 23 12 31 13 48 2 19-11 20-10 20 28v41l60-41c64-43 77-74 44-101-9-7-20-22-24-34-8-19-9-19-9 3-1 18-7 22-31 22h-30v-70c0-62 2-71 24-85 13-9 27-26 30-38 5-22 199-216 267-268 42-31 292-190 336-213 18-9 92-35 165-57s140-44 148-48c10-5 13-22 11-57-2-41 2-54 23-76 30-33 69-44 102-29 41 18 64 13 75-16 12-31 37-63 51-63 4 0 8 11 8 24 0 15 10 31 28 42 24 17 54 19 295 22l267 4v53c0 63-5 61 134 71 71 5 114 13 150 30 28 12 91 33 139 45 49 12 104 32 123 45s43 24 53 24 26 9 36 20 28 20 40 20c13 0 28 7 36 16 7 9 33 30 58 47s61 44 80 60c26 22 40 28 62 23 26-5 29-3 29 19 0 19 11 32 45 53 25 15 48 36 51 47 10 29 111 131 145 145 24 10 29 18 29 46 0 23 5 34 19 39 37 11 72 46 66 65-4 13 9 33 45 69 44 44 49 54 40 71-9 18-4 28 42 76 42 44 49 57 38 64-13 8-12 11 4 23 12 9 15 16 8 21-14 8 51 117 79 132l22 11-24 16c-22 16-22 17-5 36 10 11 15 25 11 31-3 6 8 53 25 105 22 66 39 100 56 113l25 18-25 14c-25 13-26 16-26 116 0 98 1 102 26 119 24 15 24 18 10 34-9 10-16 32-16 49 0 30 2 32 34 32s34 2 40 43c4 24 4 51 1 59-5 13 1 15 39 11 25-3 46-2 46 1 0 4-13 21-30 37-37 38-50 83-43 159l6 60h-91l-4 238c-2 130-8 245-12 255-8 16-64 17-977 17h-969v-820h902l-5-212c-5-244-15-295-94-458-40-84-57-107-147-195-116-115-200-164-371-216-185-56-309-59-505-12-83 20-218 85-278 134-56 46-66 48-57 11 4-20 1-33-12-44-18-15-77-48-88-48-3 0-5 34-5 74v75l47 3c55 4 73 28 21 28-32 0-35 4-93 112-71 132-105 249-134 456-21 152-20 166 24 253 23 44 22 44 39 30 12-10 18-7 30 18 9 16 16 37 16 47 0 12 7 15 28 12 15-3 35-9 45-13 22-9 24 27 2 45-14 12-14 15 1 31 9 10 13 26 10 37-4 12 1 25 14 37 24 22 21 27-45 69-40 26-55 42-60 66-9 42-47 67-81 52-22-11-26-9-36 14-11 23-9 28 11 44 20 14 31 15 63 7 54-13 68 2 34 36-21 21-26 36-26 77v50h-90v43c0 35 4 46 23 56s22 19 21 64c-1 30-10 71-22 97-20 41-22 63-22 227 0 179 0 183 23 194 12 6 23 13 25 14 1 1-4 15-12 31-30 60 20 283 75 334l29 25-44 28 23 18c12 10 20 23 17 28-4 5 16 32 43 59 39 39 48 54 44 75s1 28 26 41c17 9 78 52 135 96s112 80 122 80 29 11 43 24c68 63 466 61 651-2 143-49 269-147 358-275 79-115 131-235 150-348l8-44 497-3c429-2 497 0 497 12 0 8-4 18-10 21-5 3-10 43-10 89 0 66-5 96-26 146-14 35-39 115-55 177-17 68-43 139-64 177-19 35-35 72-35 84s-13 36-29 54c-15 18-46 60-67 93-47 75-171 230-215 271-19 17-50 40-69 52-20 12-48 35-64 52-38 43-150 114-265 167-177 83-404 147-656 184-139 21-533 18-667-4-133-22-268-58-363-97-114-45-403-215-460-269-27-27-58-53-67-57-10-5-60-49-112-97-106-98-116-100-160-34l-26 38v499h-462c-255 0-473-3-486-6-12-4-29-19-38-35-12-24-21-29-49-29h-35v-119l-37-3c-50-4-54-30-13-86 16-23 30-53 30-66s3-32 6-41c9-22 74-47 104-40 20 5 23 4 13-6-17-17-19-1729-2-1746 7-7 3-15-14-26-15-10-27-30-31-52-4-20-10-44-13-52-6-14 1-15 49-10 47 6 57 4 62-10 4-9 1-20-6-25-27-16-35-24-56-61-17-29-19-43-12-63 6-14 10-92 10-173 0-101 4-151 12-159 7-7 8-12 3-12-6 0-16-4-24-9-12-7-10-14 8-36 24-31 26-52 9-107l-11-38-25 22c-13 13-33 42-43 66-10 23-34 59-54 79-20 21-42 58-52 89-10 32-24 57-38 64-24 13-55 60-55 84 0 8-18 33-39 54-23 22-44 55-50 78-7 27-20 45-41 57-20 12-35 33-47 69-11 31-26 54-40 61-12 5-27 24-34 41s-45 78-85 136c-75 111-107 168-117 211-4 14-18 31-32 39-23 12-65 82-65 107 0 6-11 18-25 27s-34 35-46 59c-12 23-82 132-155 243-84 126-134 211-134 226 0 19-7 27-23 32-16 4-32 24-53 68-16 34-46 83-66 110-25 30-38 58-38 77 0 21-6 32-20 36-33 11-73 71-66 100 4 14 2 25-3 25-26 0-71 54-77 91-5 30-14 43-34 54-15 8-37 34-48 59-12 24-75 125-141 223-65 98-125 198-133 221-10 28-27 51-56 72-42 30-42 30-181 30h-139l-8 58 360 6c405 8 397 8 614 5 154-2 276 11 296 31 7 7-252 10-822 10-458 0-832-4-832-8 0-25 39-42 98-42h62v-60h-350v-1897c0-2106-2-2177-56-2255-45-64-54-67-54-18 0 26 7 51 17 62 15 17 15 18-13 18-42 0-54-17-54-71 0-43-4-51-33-73-19-15-43-26-55-26-25 0-46-34-39-61 3-13-2-24-14-32-10-6-19-20-19-30 0-26-39-56-72-57-17 0-34 9-48 28l-22 27 24 3c49 6 54 13 25 28-24 13-28 20-25 52 2 31 7 37 28 40 37 5 113 31 133 46 18 14 18 16-2 54l-20 39-68-4c-63-5-71-3-100 21-22 19-42 26-72 26h-41v42c0 57 21 80 60 65 25-10 33-8 53 11 13 12 38 27 55 32 30 8 33 6 48-22l16-30 21 20c12 11 32 25 45 32 22 11 22 13 8 29-20 22-20 30 4 61 11 14 20 41 20 61 0 48 35 73 88 64 50-8 83 14 64 44-6 12-12 31-12 44s-86 261-191 551c-130 359-189 535-185 551s-2 32-19 53c-33 39-75 130-75 163 0 15-20 70-45 123-28 61-45 111-45 135 0 25-7 44-20 56-26 24-69 161-63 201 4 23-2 38-22 62-14 17-41 75-59 129s-47 126-65 161l-32 63 21 26c12 15 20 41 20 63 0 29 5 39 25 50 45 24 36 28-87 46-45 6-48 8-48 35v29h65c60 0 68 3 103 34l37 34-21 24c-17 18-23 40-26 93-3 39-8 77-12 87-5 11-2 18 11 22s18 16 19 41c0 34-1 35-37 35-57 0-69-8-69-45 0-19 5-37 10-40 6-3 10-14 10-23-1-22-56 40-76 87-13 27-19 32-40 28-13-2-27 0-30 4-12 20-22 7-26-35-3-24-13-54-22-67l-16-23v31c0 17 7 36 15 43 26 22 18 40-19 40-33 0-33 0-51 72-10 40-37 123-61 185s-47 134-51 160c-4 32-16 59-34 81-16 18-38 52-50 75s-31 52-42 65l-20 22h36c36 0 37 1 37 40v40h-130c-90 0-143 5-175 15-27 10-59 13-78 10-24-5-37-2-46 9-8 9-26 16-42 16-18 0-32 7-39 20-6 11-20 20-30 20-15 0-20 7-20 24 0 14 5 28 10 31 6 3 10 13 10 21 0 13-8 14-39 9-22-4-55-8-73-9-42-4-81-24-72-38 10-16-28-116-58-151l-27-32-1 48c0 51-16 62-38 26-27-43-233-624-229-645 3-16-3-25-20-33-35-16-43-14-43 12 0 12-4 28-9 36-7 11-14 4-30-27-12-23-21-53-21-66 0-18-9-30-29-40-27-15-29-14-35 7l-6 22-20-24c-11-13-20-29-20-37 0-21-43-104-54-104-5 0-24 11-42 25-47 36-64 33-64-11 0-43-34-104-59-104-22 0-61-41-61-63 0-25 45-44 64-28 16 13 56 6 56-10 0-5-11-9-24-9-33 0-74-63-56-85 22-27 48-18 52 16 2 25 11 36 43 53 22 11 42 22 45 24 2 2-2 7-10 13-13 8-13 10 0 19 20 13 50 13 50 0 0-6-7-21-16-35-21-33-6-58 46-74 46-14 64-7 57 20-3 10-1 22 4 25s9-19 9-50c0-46-3-56-20-61-13-4-20-15-20-30 0-19-10-30-42-46-72-36-98-66-98-116 0-41 1-43 30-43 17 0 30-1 30-2 0-2-15-45-33-96-47-132-47-132-161-132-105 0-120-8-110-59 6-30 6-31-30-31h-36v-47c0-37 3-44 12-35 12 12 48 17 48 7 0-4-7-19-15-35-11-21-23-30-40-30-29 0-33-15-7-29 11-6 17-22 17-43 0-29 4-33 28-36 17-2 36 3 47 13 12 11 20 13 25 6 14-24 33-10 40 29 9 52 22 52 17-1-3-25-11-44-23-52-14-9-15-14-6-25s7-16-8-25c-11-6-33-26-49-44-22-25-38-33-63-33-26 0-36-6-47-28-15-29-20-59-18-99 2-30 43-31 84-2 16 12 31 19 34 16 7-6-146-439-334-942-207-556-299-819-349-995-6-21-28 9-60 80-13 30-28 62-33 70-6 8-21 34-36 58-14 23-28 60-31 83-4 31-12 44-30 52-27 12-63 74-63 108 0 12-13 36-29 54-15 18-41 65-56 104-14 39-31 73-36 77-13 8-55 93-63 129-4 17-18 41-32 55-13 14-33 52-44 84s-37 86-58 120c-80 128-132 233-132 268 0 30 5 38 30 48 17 7 49 26 70 41 22 16 49 29 60 29s38 16 60 36c28 25 46 35 61 31 12-3 22 0 26 9 3 8 25 26 49 40 26 16 44 33 44 44s18 29 45 44c29 17 45 34 45 46 0 26 52 54 69 37 8-8 11-1 11 30 0 40 2 42 50 64 52 23 61 35 35 45-8 4-12 10-9 15 11 18 41 8 70-22 48-50 78-62 145-54 39 5 59 11 59 20 0 8-4 17-10 20-5 3-10 16-10 28-1 14-15 32-41 50s-42 37-46 57c-3 17-14 35-24 40-23 13-49 39-49 51s35 11 81-3c33-9 45-8 78 7l40 18-42 49c-35 42-46 49-68 44l-27-5 25 67c14 37 29 78 34 91 8 20 15 23 44 18 33-5 35-4 35 23 0 17 7 31 18 35 24 11 92 26 122 28 36 3 41 16 19 56-10 20-19 41-19 47 0 13-22 24-48 24-9 0-37-21-63-46-50-49-86-54-49-7 23 29 26 53 8 71-9 9-4 12 25 12 45 0 47 10 7 33-28 17-30 21-24 60 9 54 14 60 14 14 0-36 1-37 40-37 41 0 53 13 23 25-17 6-17 7 0 16 20 12 23 29 4 29-8 0-33 13-55 30-38 27-41 32-31 54 6 13 23 29 38 36l26 12-24 17c-64 42-67 47-48 68 9 11 14 23 10 27s-8 32-8 61c-1 62-31 105-72 105-44 0-23 34 32 52 31 10 41 19 43 38 2 14 8 37 14 53 10 25 14 27 68 27 57 0 59 1 65 31 9 39-5 55-34 40-12-7-21-16-21-21 0-4-14 5-31 22-26 27-28 33-15 40 26 15 18 28-18 28-30 0-33 2-28 25 2 14-3 36-13 51-16 25-16 27 4 48 12 12 21 25 21 29 0 13-65 6-84-8-29-22-49-18-81 15-34 36-75 39-112 10-49-38-74-28-158 65-89 98-108 104-158 51-21-23-50-40-86-50-30-9-56-16-58-16s-3 15-3 34c0 39-11 46-73 47-60 0-120 12-121 24-2 14 75 55 104 55 14 0 36 7 48 16 19 13 22 24 22 80 0 64 0 64-29 64-15 0-40 9-54 20s-28 20-31 20c-4 0-64 22-134 49-94 36-170 57-293 80l-166 31h-645c-628 0-708 3-708 31 0 5 9 9 20 9 27 0 25 11-8 43-22 21-38 27-74 27h-47l10-32c13-48 12-49-27-31-37 18-41 36-19 86 5 12 3 16-6 13-8-3-33-10-57-16-39-10-43-14-40-38 2-20-4-31-24-44-22-14-28-25-28-53 0-27-10-49-41-88-23-29-49-52-58-52-26 0-37 49-23 102 7 25 11 47 9 49s-85 1-185-3l-181-6-4-91-3-91-2 93c-2 91-2 92-27 92h-25l-2-377-3-378-29 45c-16 25-41 62-54 83-65 98-329 357-364 357-10 0-39 16-65 36-117 89-302 160-534 204l-162 30h-732c-716 0-733 0-782-21l-49-20-48 20c-39 17-69 21-162 21h-114l11-24c9-18 8-31-2-52-12-25-21-29-60-32-31-2-53-10-64-23-23-24-42-24-80 1-19 13-47 20-77 20-41 0-48 3-48 20 0 10 9 24 20 30 27 14 25 28-5 42-16 7-25 18-23 29 2 9-14 33-34 53-45 44-74 46-152 10-55-25-58-25-77-8-10 9-24 35-31 56-10 35-14 38-46 38-24 0-45-9-69-30-25-23-43-30-74-30-53 0-79-15-79-45 0-33-25-55-63-55-18 0-75 9-127 20-116 24-163 25-196 4-23-16-27-16-58 1-33 18-34 18-68-3-32-20-49-22-191-22h-155l-46 35c-26 20-58 35-73 35h-27l58 60h-35c-19 0-49-9-66-20-27-16-33-26-33-53 0-18-5-38-12-45-9-9-94-12-320-12h-308v90h-190v-90h-1396l-31-32c-17-18-77-91-134-163-107-136-204-252-287-345-27-30-68-82-92-115s-69-88-102-122c-32-34-58-67-58-73s-26-39-58-73c-33-34-77-89-100-122-22-33-66-85-97-115s-80-86-108-125c-53-71-150-190-231-280-25-28-56-67-70-87-13-20-96-123-184-230-106-129-162-204-165-224-2-16-5 451-6 1037l-1 1066-67 6c-38 4-109 9-158 13-90 6-91 7-113 41-23 34-22 53 2 53 7 0 13 12 13 28 0 26-2 27-56 29-37 1-59 7-67 18-6 8-23 15-37 15s-29 5-32 10c-8 14-20 13-34-3zm3375-579c-3-13-9-65-13-115-6-90-7-93-30-93-20 0-29-11-50-56-14-30-27-73-30-95l-6-39h133v-418l-80-41c-46-25-80-48-80-57 0-36 20-52 72-59 29-4 61-11 71-17 16-8 17-93 17-1564 0-1383-2-1559-16-1592-15-37-61-92-76-92-4 0-19 22-33 50-14 27-34 54-45 60-10 6-34 32-51 58-18 26-67 91-111 144-43 53-78 105-78 116s-16 30-40 46-42 37-46 54c-4 15-27 44-51 65-28 26-43 47-43 63 0 13-4 24-10 24-21 0-80 63-80 86 0 13-4 24-10 24-19 0-80 63-80 84-1 13-15 31-40 48-23 16-42 39-46 55-4 15-27 45-51 66-23 21-43 46-43 56 0 9-13 27-30 39-16 13-30 29-30 38 0 8-20 35-45 59-24 25-51 58-60 75-8 16-35 46-60 67-25 20-45 46-45 56 0 11-20 37-45 59s-45 48-45 58-11 25-25 34c-26 17-49 59-60 109-4 20-11 27-28 27-16 0-33 14-54 43-17 23-65 85-107 137s-97 130-122 173c-50 84-64 91-108 56-36-29-59-19-45 18 9 23 7 30-6 38-40 24-45 31-39 53 6 21 8 22 30 7 55-36 99-1 51 41-25 21-27 29-27 97 0 71 1 74 27 86l27 13-24 19-25 20 25-7c32-8 48-21 55-45 5-14 16-19 46-19 38 0 39-1 39-35 0-28 4-35 19-35 10 0 24 7 31 15 34 41 71 57 138 60 50 2 71-1 85-13 25-22 53-4 49 32-2 14 1 26 7 26s11-4 11-9c0-13 50-71 61-71 5 0 9 14 9 30 0 23 6 33 25 42 33 15 32 32-5 55l-30 19 45 22c48 23 58 50 31 87-12 16-9 24 20 62 18 24 36 59 40 78 4 23 17 43 36 57 27 18 28 22 13 30-15 9-15 12 6 35 13 13 38 33 56 44 37 23 45 66 18 89-21 17-19 36 6 54 21 14 20 15-19 35-22 11-43 24-46 29-3 4 41 34 96 67 101 59 152 71 183 45 6-5 29-9 51-9 21 1 65-2 97-6 61-8 76 3 32 23-22 10-25 18-25 62 0 49-1 50-30 50-30 0-40 13-19 26 6 3 16 1 22-5 21-21 29-11 22 27-16 90 3 163 58 219 26 28 31 40 30 83 0 28 3 53 8 56s9 12 9 21c0 21 47 75 55 63 3-5 16-10 28-10 15 0 29-11 40-30 24-41 40-38 35 5-4 31-1 35 20 35 36 0 82 28 82 50 0 14 14 27 45 42 47 23 55 35 30 45-14 5-14 8 1 24 9 10 39 33 65 50 44 28 48 33 37 52-9 17-8 23 7 32 9 5 31 20 49 32 40 28 50 28 42 1zm5047-444c166-27 248-56 290-102 10-11 30-25 45-32 41-17 129-154 158-244 20-63 24-98 24-191 0-70 4-116 11-120 6-5 3-13-10-22-16-11-21-25-21-58 0-63-59-170-154-277-69-78-90-95-167-134-71-35-99-44-142-44-49 0-53 2-69 33-11 21-17 57-17 106 0 41-4 77-8 81-15 12-203 52-219 46-30-11-47-75-39-148 6-67 6-68-19-68-17 0-31-10-46-35-12-19-30-40-40-45-11-6-175-10-419-10h-401v174c0 165 1 176 21 189 11 8 19 21 18 28-1 8 1 26 5 41 6 19 0 45-18 92l-26 64v669l23 11c12 6 29 13 37 15 8 3 241 6 518 6 495 1 505 1 665-25zm3207-26c0-53 19-88 47-88 18 0-41-51-76-66-25-10-24-11 29-30l55-19-37-3c-38-3-50-21-25-38 17-13 164-9 181 5 11 9 17 6 30-14 25-38 64-33 111 15 21 22 37 41 34 43-2 3-14 10-27 16-25 13-21 34 4 24 13-5 15-1 10 15-4 12-4 38 0 58 6 34 8 36 38 30 21-4 57-32 109-84 77-76 102-120 122-209 6-30 4-33-17-33-14 0-42-15-64-34-31-26-46-33-67-29-24 5-27 2-27-21 0-33-32-66-65-66-25 0-25-1-25-80 0-87 10-102 53-83 17 8 25 5 42-15 26-30 55-24 55 11 0 14 7 30 15 37 13 10 15 9 15-12 0-32 19-88 31-88 5 0 18 18 29 40 23 46 26 47 39 21 13-23-21-130-71-223-33-63-106-145-165-187l-33-22v25c0 24-23 56-40 56-5 0-25-8-45-17-31-15-37-15-45-3-6 8-10 21-10 29 0 11 3 11 15 1 13-11 15-4 15 54v66h-33c-26 0-36-6-44-23-6-13-26-31-45-40-38-18-98-95-98-125 0-12 4-32 10-46 7-21 6-27-8-35-41-22-524-51-840-51h-312v1290h1130zm-6720-69c0-49 13-87 33-101 16-10 39 3 33 18-6 16 6 28 59 58 32 17 40 28 40 49l-1 27h1086v-1180h-1800v1180h550zm4660-2329c0-940-1-970-19-970-15 0-20 13-30 74-10 63-16 75-37 85-23 10-63 79-64 109 0 7-13 31-30 53-16 23-38 65-49 94s-33 73-49 98-37 68-47 94-58 116-107 199c-48 82-88 157-88 165s-11 30-25 49c-13 18-32 56-41 84s-29 70-45 93c-37 53-56 98-61 143-3 34-1 36 43 50 25 8 58 25 74 38 15 12 37 22 48 22 10 0 35 14 54 30 18 17 44 30 56 30 27 0 47 17 47 41 0 19 24 32 60 33 19 1 25 6 24 24 0 17 11 29 47 49 27 14 51 35 55 47 9 31 93 115 138 138l40 20-24 13-23 13 22 7c17 5 19 10 11 20-10 12-7 17 18 24 1 1 2-435 2-969zm-3410-270v-610l-262-2c-310-3-599 0-683 8l-61 5-24-37c-37-56-54-63-83-35-16 14-23 29-20 42 5 18-4 19-331 19h-336v1220h1800z"/>
  <path d="m6360 10082c0-5 6-15 14-21 8-7 18-38 21-69 10-90 11-92 56-92h39l-6 38c-3 20-9 62-12 92l-7 55-52 3c-29 2-53-1-53-6z"/>
  <path d="m6470 7370c-8-5-29-10-47-10-37 0-52-16-23-25 11-3 20-13 20-21 0-17-47-67-70-76-12-5-11-9 6-21 19-15 21-23 16-91l-5-75 41-11c23-6 44-15 48-21 4-7 16-1 33 14 41 38 65 42 85 12 9-13 30-32 46-40 30-15 30-15 30 13 0 15-7 37-15 48-8 10-15 29-15 42 0 19 5 22 38 22 32 0 41-5 56-31 15-25 17-42 11-96-7-66-7-66 17-60 12 4 40 7 61 7 33 0 37 3 37 25 0 17 8 29 25 37 18 8 23 16 19 32-4 18 2 25 32 39 20 10 35 20 33 22-6 5-199 38-224 38-36 0-65 60-65 133 0 68-12 81-44 48-11-10-25-14-44-9-25 5-28 10-24 35 4 28 2 30-29 30-19 0-41-5-49-10z"/>
  <path d="m15179 8924c-13-14-38-32-56-39-17-7-44-32-59-54-19-29-34-41-50-41-21 0-24-5-26-42-1-37-2-39-5-10-4 28-8 32-34 32s-29-3-29-34c0-28 6-38 33-54 17-12 45-34 61-51 23-24 28-36 23-60-6-31-6-31 39-31 25 0 59 7 76 16l32 16-27 20c-23 17-27 27-27 67 0 35 6 56 23 77 12 16 22 40 22 54 0 18 10 30 43 48 34 19 42 29 42 52 0 16 3 35 6 44 11 29-58 21-87-10z"/>
  <path d="m14737 8482c-10-10-17-28-17-39s-9-28-20-38c-16-14-20-31-20-76 0-32 5-61 10-64 6-4 23 5 37 19s41 36 60 47c30 19 34 25 27 48-10 34-10 81 0 104 7 14 3 17-26 17-21 0-42-7-51-18z"/>
  <path d="m26070 7145c-7-8-10-21-7-30 8-19-11-31-26-16-6 6-24 11-39 11-27 0-28-1-28-55v-55l-45-22c-50-24-55-33-24-43 11-4 24-18 30-32 7-19 5-30-12-51l-21-27 38-33c36-31 37-33 18-47s-24-16-53-19c-23-2-24-24-2-42 11-10 18-21 15-26-8-12 14-46 41-64 22-14 26-14 50 2 14 9 28 14 31 11 3-2 5-145 4-316l-1-311h1021v1020h-291c-190 0-305 4-330 11-27 9-53 9-91 1-29-5-55-8-58-5s-5 26-5 51v47l-50 6c-27 4-72 16-98 28-58 25-52 24-67 6z"/>
  <path d="m16355 6808c-6-17-25-139-25-160 0-16 10-18 73-18h73l44 104-35 36-36 35-20-24-19-23v31c0 27-4 31-25 31-14 0-28-6-30-12z"/>
  <path d="m2490 6492c0-41-5-63-15-72-18-15-10-30 17-30 18 0 19-4 13-48-5-37-3-51 9-61 13-11 16-9 21 12 8 31 40 61 54 52 6-3 11-26 11-50s3-50 6-59c11-29 24-16 24 24 0 39 1 40 35 40 19 0 35 5 35 10 0 6-4 10-10 10-5 0-10 18-10 39 0 38-1 39-41 46-22 4-45 14-52 22s-22 26-34 39c-13 14-21 35-20 51 2 22-3 29-20 31-22 3-23 0-23-56z"/>
  <path d="m18550 5694v-75l58 7c31 3 58 7 59 8s-3 32-10 69l-11 67h-96z"/>
  <path d="m18295 5720c-8-16-15-54-15-85 0-55 0-55 30-55 58 0 113 45 80 65-5 3-10 28-10 56v49h-35c-28 0-37-5-50-30z"/>
  <path d="m26680 5522c0-37 99-112 149-112 32 0 33 1 27 32-8 42-56 102-85 106-15 2-24-4-30-20l-10-23v23c-1 17-7 22-26 22-21 0-25-5-25-28z"/>
  <path d="m1355 5340c23-24 37-30 69-30 23 0 47-7 58-17 12-11 42-18 96-21 69-4 79-2 96 17 18 20 28 21 270 21 138 1 313 7 389 13 107 10 160 10 240 1 100-11 181-7 331 16 165 26 65 30-749 30h-829z"/>
  <path d="m19950 5352c0-22 39-42 83-42 40 0 47-3 47-20 0-19-7-20-140-20h-140v-1512c0-961-4-1553-10-1622-10-107-24-150-54-175-14-12-16-9-16 17 0 17 5 34 10 37 20 12 9 26-17 23-25-3-28-8-31-43-4-44-32-82-65-87-12-2-26-12-32-24-6-11-16-19-23-16-7 2-12-5-12-16 0-24-25-46-44-39-8 3-20 16-26 28-7 12-8 19-2 15 25-15 40 5 34 46l-5 41 36-6c21-3 41-1 50 6 12 11 67 99 67 110 0 2-23 2-51-1-45-4-51-2-56 17-4 15-13 21-34 21-26 0-29 3-29 34 0 40 13 51 53 47 22-2 30 2 34 18 7 26 19 27 33 1 13-25 18-25 54 5 25 20 27 26 17 39-17 20 2 54 34 62 28 7 34 24 8 24-15 0-14 2 3 14 15 12 17 17 7 27-7 7-13 21-13 32 0 10-66 199-146 420s-146 414-146 429c1 16-14 50-32 77s-36 67-39 89c-4 22-20 70-37 107-16 37-30 81-30 99 0 20-8 40-19 50-26 23-51 99-51 151 0 29-6 47-20 60-10 9-31 54-46 99-15 44-38 103-51 129-22 45-23 50-9 66 9 10 16 32 16 49 0 22 6 32 20 37 34 11 22 23-27 30-72 10-83 15-83 36 0 16 8 19 58 20 51 0 59 3 81 30 21 27 22 32 8 47-17 20-31 152-16 152 6 0 9 6 6 13-2 6 0 20 5 30 8 15 4 17-30 17-50 0-70-20-53-56 6-14 11-27 11-30 0-12-48 53-54 74-4 12-15 22-26 22-10 0-25 2-33 6-10 4-16-6-20-36-6-44-13-58-24-46-4 4-2 16 5 26 18 29 15 40-12 40-20 0-25 7-31 38-4 20-27 90-51 155s-44 127-44 138c0 18-42 89-90 152l-22 27h26c22 0 26 4 26 30 0 36-3 36-144 14-62-10-120-13-151-9-27 4-64 7-82 8s-38 8-45 15c-6 6-22 12-34 12s-24 7-28 15c-3 8-13 15-22 15-13 0-15 7-10 34l6 33-45-8c-26-5-49-8-53-7-15 4-52-14-46-23 9-15-25-105-46-124-20-18-20-17-20 18 0 38-10 47-27 25-12-16-162-426-178-487-8-30-19-47-33-52-19-7-22-5-22 16 0 14-4 25-8 25-11 0-32-46-32-70 0-23-42-50-48-31-8 24-24 9-49-49-14-33-29-60-33-60s-19 9-33 20c-34 27-47 25-47-7s-26-69-59-86c-38-19-49-43-28-64 15-15 21-16 38-5 11 7 25 10 31 6 7-5 5-10-8-14-30-12-50-55-34-75 17-21 30-19 30 6 0 22 36 58 58 59 7 0 12 8 10 17-2 10 4 19 15 21 19 4 23-18 7-34-6-6-8-18-4-27 7-18 68-42 84-32 6 4 10-5 10-19s-5-26-10-26c-6 0-15-11-20-25-5-13-26-33-47-44-63-32-85-102-35-109 18-3 22-8 17-20-4-9-16-44-27-77-12-33-25-66-31-72-6-8-34-13-71-13-93 0-106-6-106-46 0-30-3-34-25-34-21 0-25-5-25-30 0-28 2-30 25-24 25 6 25 5 14-20-8-17-20-26-36-26-26 0-31-15-8-24 9-3 15-18 15-36 0-27 3-30 29-30 17 0 32 4 35 9s15 7 26 4c16-4 20 0 21 18 0 22 1 23 8 4 6-14 3-24-11-33-10-7-16-17-13-21 9-16-63-81-89-81-31 0-46-25-46-79 0-35 3-41 22-41 12 0 30 7 40 17 10 9 21 14 24 11 6-7-107-326-285-807-141-379-215-587-235-664l-13-49-28 59c-33 68-39 78-65 118-11 17-23 47-26 67-4 23-13 40-23 43-16 5-51 64-51 86 0 6-11 25-24 42-13 18-30 50-37 72-8 22-26 57-41 78s-30 53-33 70c-4 18-16 41-26 52s-25 41-34 65-40 85-69 135c-69 117-86 150-86 172 0 19 100 93 125 93 7 0 29 13 50 30 20 16 42 27 47 24s19 3 31 14 32 25 45 31c12 6 22 20 22 29 0 11 14 25 35 35 22 10 35 24 35 36 0 21 22 33 46 24 12-4 14 1 12 23-3 24 3 31 41 53 25 14 40 26 33 29-7 2-12 8-12 13 0 18 24 8 63-27 37-34 43-36 90-31 57 7 66 12 49 29-7 7-12 19-12 27 0 9-16 29-35 44s-35 36-35 46-11 26-25 35c-38 25-32 40 13 30 50-10 80-8 97 6 12 10 10 17-13 46-17 21-36 34-51 34-18 0-22 4-16 18 4 9 15 37 23 62 17 50 29 62 55 54 12-4 17 0 17 16 0 12 9 24 23 29 59 22 90 29 103 24 18-7 18 2-2 54-21 54-41 55-97 8-45-39-57-40-33-2 9 13 14 32 10 41-4 12 0 16 15 16 27 0 27 16 1 30-11 6-20 18-20 27 0 12 3 13 15 3 9-7 25-10 42-5 26 6 27 8 10 20s-17 13 0 20c15 5 12 10-18 25-59 31-65 45-33 75 24 22 26 28 14 35-43 25-54 38-44 51 15 19 2 128-17 140-8 5-22 9-31 9-34 0-13 34 26 41 21 4 32 21 41 62 5 25 9 27 55 27 49 0 50 0 50 31 0 29-2 31-27 26-17-3-33 1-46 14-12 10-15 19-9 19 7 0 12 7 12 15s-9 15-20 15c-12 0-20 7-20 18 0 10-7 27-15 39-14 20-14 23 5 33 49 26 5 40-57 18-29-11-35-10-56 10-27 25-73 28-101 7-33-25-50-17-107 49-45 54-59 65-86 65-23 1-36-5-43-19-11-20-35-33-85-46-22-5-25-3-25 19 0 29-15 37-73 38-23 1-53 4-67 8l-25 7 35 22c19 12 43 22 53 22 42 0 57 19 57 70 0 40-3 50-17 50-9 0-24 6-32 14-32 28-239 98-361 122-122 23-136 24-632 24-361 0-515 3-535 12-22 9-24 12-10 15 23 6 22 15-6 41-15 14-36 22-59 22-36 0-36-1-28-30 10-34 10-34-25-18-28 12-30 20-15 49 9 16 7 19-9 19-41 0-71-19-71-44 0-16-7-27-20-31-14-4-20-15-20-36 0-37-60-121-79-110-14 9-18 56-8 95l8 29-92-6c-51-4-121-7-156-7h-63v-293c0-215 3-296 12-305s5-12-19-12c-22 0-38-8-52-26-20-25-22-26-71-14-28 7-53 10-56 7s-2-33 2-67c6-58 10-64 45-89 38-26 48-41 29-41-5 0-10-4-10-8 0-9 48-32 105-51 17-5 26-10 20-10-7-1-9-427-8-1263 2-785-1-1269-7-1278-7-12-12-12-22-2-6 6-29 12-49 12-34 0-40-4-64-47-22-39-25-56-20-91 4-25 1-56-6-77-10-27-19-35-43-37l-31-3 32-32c22-23 41-33 63-33s33-6 39-21c7-21 8-21 28 5 25 32 31 32 35 4 2-13 13-27 26-33 18-8 22-18 22-52 0-50-30-46 245-33 241 12 255 14 255 50 0 24 5 28 39 34 44 7 61 23 40 37-9 6 0 9 29 9h42v-54c0-59 7-66 64-66h33l6 98c4 53 7 125 7 159 0 41 5 66 15 77 9 8 15 33 15 58 0 24 4 50 10 58 8 12 11 12 28-3 46-41 60 8 15 55-23 24-25 31-15 53 11 24 9 27-23 42s-35 20-35 62c0 28 9 62 22 89 18 33 20 44 10 51-15 9-7 37 13 45 7 2 19-2 25-10 7-8 16-14 21-14 16 0 10 32-8 45-16 12-16 14 0 38 9 14 14 33 11 41-3 9 4 20 21 29l27 14-26 16c-14 10-26 26-26 35 0 21 51 82 68 82s15 10-5 34c-16 19-16 19-1 7 22-16 26-14 77 32l42 38-23 29c-14 18-33 29-48 29-30 1-50 18-50 42 0 9-7 22-15 29-13 11-18 10-28-4-12-17-16-16-60 11l-46 28-1 67v67l203 3c111 2 205 2 210 0 4-2-2-15-13-29s-20-30-20-35c0-11 42-6 73 7 14 6 17 2 17-20 0-26 1-27 43-21l42 7 339-698c186-384 345-708 353-720l13-23h600c583 0 600 1 600 19 0 28 45 120 66 136 18 13 18 14-1 29-19 14-19 15-2 22 10 4 16 13 13 21-8 21 19 79 50 108 26 25 27 26 8 39-18 14-18 15-1 21 11 5 16 14 12 25-7 22 32 111 59 132 21 17 21 17 1 32-19 14-19 15-2 21 11 5 16 14 12 24-3 9 1 24 7 33 11 14 100 19 733 36 396 11 723 18 726 16s9-19 12-37c3-19 15-55 26-80 24-53 27-111 6-147-31-54-13-120 33-120 37 0 52-17 52-56 0-18 5-36 10-39 6-3 10-14 10-24s7-24 15-31c11-9 15-34 15-96 0-73 2-85 20-94 13-7 20-21 20-41 0-16 7-41 16-54 16-25 16-25-15-25-34 0-39-11-16-30 8-7 15-23 15-35 0-13 11-37 25-53 14-17 25-42 25-56s4-26 8-26c12 0 52 44 77 86 22 36 23 36 34 16 6-11 11-30 11-42 0-19 6-16 53 22 81 67 89 88 31 88-20 0-33 4-29 10 3 5 12 7 20 4 8-4 31 4 51 15 35 21 39 21 75 7 26-11 46-13 62-7 14 5 30 5 40 0 14-8 17-6 17 14 0 12 6 29 12 35 10 10 10 17 0 32-6 11-12 22-12 25 0 11 19 4 35-11 20-20 32-10 37 30l3 28 410-1 410-2 140-31c77-17 150-37 162-44 32-20 43-17 43 10 0 36 43 46 199 46 173 0 224 13 296 74 54 47 92 64 196 91 60 16 154 59 164 75 3 6 13 10 21 10s47 25 87 56c51 39 79 54 95 51 17-3 22 0 22 18 0 15 11 28 35 41 19 10 39 31 46 46 13 32 77 93 108 103 15 4 21 15 21 33 0 21 8 32 35 46 24 13 34 24 30 36-3 10 10 30 35 55 28 28 38 44 34 59-3 15 6 32 35 60 30 29 38 42 28 49-9 6-9 10 0 13 7 3 10 11 7 18-6 16 52 106 68 106 6 0 3 9-7 20-16 18-16 20-1 26 11 4 15 13 11 25-9 27 34 150 58 170l21 16-22 12c-20 11-22 20-22 91 0 70 2 81 22 94 17 12 20 18 10 28-7 7-12 25-12 40 0 23 4 28 25 28 20 0 25 6 31 34 3 19 3 40-1 46-5 8 3 9 29 5 39-8 47 3 19 26-28 24-43 74-37 123l7 46h-69l4 288c5 322-7 454-58 657-44 174-144 425-170 425-5 0-28 37-51 83-34 67-61 102-155 198-63 63-114 122-114 131s-17 30-38 47c-50 39-193 123-199 117-3-2-26 2-51 10-427 133-661 170-1011 161-188-5-250-3-380 13-206 26-211 26-204-2 5-19-2-15-39 20l-44 42h-102c-56 0-102-4-102-8zm771-747c98-6 109-9 109-26 0-14 7-19 25-19 16 0 25 6 25 15 0 10 10 15 34 15 18 0 39-7 46-15 18-22 57-19 63 5 3 11 14 20 24 20s24 5 31 12c9 9 12 3 12-27v-39l35 34c50 49 92 46 230-14 81-35 130-50 185-56 41-4 83-11 93-15 14-6 20-2 24 14 7 26 20 27 28 1 5-15-7-32-50-72l-56-53 19-47c23-62 26-64 47-31 31 50 68 83 92 83 19 0 31-16 67-87 24-49 53-126 65-173s23-85 24-85c1-1 14-10 29-21l26-20-22-55c-16-41-26-53-40-51-14 3-16-1-11-17 11-37-14-32-41 8-21 32-64 61-90 61-11 0-2-29 11-40 12-10 13-15 3-21s-9-22 4-76c15-59 15-69 2-79-20-16-19-19 30-55 29-20 47-42 51-60 7-30 33-44 64-34 23 7 37-21 19-42-9-11-25-13-70-8-62 7-73-2-43-35 17-19 25-133 25-340-1-160-4-180-31-173s-24-9 7-38c24-22 26-29 20-82-3-32-16-90-30-130-13-40-36-115-50-167-15-52-43-123-62-158-40-70-151-183-222-225-56-32-212-94-262-103-20-4-51-22-72-42l-37-35 6 36 6 37h-79c-44 1-106 7-139 15-81 20-89 19-124-11-27-22-36-24-76-19-51 8-62 17-40 35 23 19 21 168-1 177-15 6-15 7 1 19 26 19 15 116-30 274-20 69-39 157-42 197-6 71-6 71-42 86l-36 15 43 1c23 1 42 3 42 6 0 12-83 171-99 189-12 14-13 20-3 23 6 3 12 11 12 18s19 37 42 66l42 53-3 131c-1 71 3 173 8 227 9 77 8 103-3 130-7 18-16 71-20 118-7 92 10 772 21 805 6 20 6 20 16-1 8-20 20-23 118-29zm-4981-80c0-22 8-43 21-56 20-20 20-22 3-40-9-10-25-19-36-19-30 0-20-16 20-33 35-14 36-15 10-16-29-1-37-14-16-27 16-10 121-10 137 1 9 5 17 2 23-9 15-26 61-20 93 14 25 26 27 32 15 40-8 5-19 10-23 10-5 0-5 5-2 10 4 6 11 8 16 5 5-4 9 11 9 33 0 48 5 53 41 40 47-16 136-120 154-180 19-64 19-68-2-68-9 0-31-11-48-24-21-16-40-23-54-19-17 4-21 1-21-19 0-30-17-48-47-48-22 0-23-4-23-71v-72l34 6c25 4 36 1 40-9 11-28 43-16 51 19l7 32 7-30c4-17 12-39 18-50 10-17 12-16 28 14 21 42 40 28 31-23-13-70-74-172-139-232-54-51-62-55-65-37-5 34-28 48-58 34-33-15-41-14-48 5-5 14-4 15 9 4s15-5 15 44c0 53-1 56-24 56s-52-21-124-92c-30-30-33-37-27-75s4-43-17-47c-69-15-444-36-645-36h-233v1e3h870z"/>
  <path d="m20640 3465v-225h60v450h-60z"/>
  <path d="m25321 5324c-185-27-342-82-406-143-22-20-74-53-115-71-98-43-147-75-154-98-4-10-27-26-55-36-49-17-49-18-44-54 4-20 13-47 20-59 11-17 12-26 3-43-20-38-65-45-142-24-12 4-23-7-39-38-12-24-32-57-45-74-29-38-30-46-4-69 30-27 24-38-11-20-50 26-70 17-86-40-8-27-21-57-28-65-26-31-55-100-55-134 0-26-5-36-20-41-24-8-25-18-3-36 15-13 13-15-18-20-19-3-40 0-48 5-22 17-4-44 21-71 20-21 20-21 0-27-24-8-26-19-52-326-11-141-15-229-9-235s1-16-13-26c-19-15-20-19-9-33 12-14 11-19-5-31-23-16-92-35-130-35-18 0-40-11-59-30-21-20-37-28-51-24-24 6-27 32-40 329-4 94-11 147-20 163-13 20-13 22 5 22 11 0 43 5 72 12 44 10 54 17 65 44 21 50 28 112 15 128-7 9-13 57-14 124-2 107-3 111-29 132-26 20-28 27-28 90 0 87 4 97 51 120 21 11 41 25 44 31 4 6-10 29-31 50-29 30-44 39-61 34-17-4-26 1-36 21-13 24-12 29 4 45 10 10 23 37 30 61 6 24 20 60 30 81l20 37-40 58c-22 31-46 80-52 107-6 28-13 55-15 61-1 7-36 32-77 58l-74 46-329-32-329-33v-1382c0-1370 0-1382-20-1398-19-14-19-16-2-29 13-10 17-28 17-85 0-48-4-73-12-76-10-4-13-45-12-163 1-145 0-161-22-211-19-41-24-71-24-132 0-64-3-80-17-88-17-9-17-10 0-28 21-23 24-101 4-109-10-3-12-27-9-95l5-91-24 7c-35 11-184 9-205-3s-24-11 89-32c36-7 57-16 54-23-2-7-39-19-82-29-72-15-94-28-95-54 0-5 34-16 75-23 54-9 75-16 75-27 0-12-13-15-67-13s-69-1-77-15c-23-35 39-46 150-25l59 11 26-31 26-32 31 35c26 30 32 33 42 20 12-13 50-20 50-9 0 3-7 17-16 30-16 24-15 26 15 60s35 46 32 71c-1 10 70 24 123 24 18 0 18-2-3-24l-23-25 33-4 34-4-32-1c-22-1-33-7-33-17 0-12 13-13 79-8 70 5 79 4 82-12 3-12 15-18 41-20 29-1 38 3 47 22 7 15 19 23 36 23 25 0 25 1 25 84v84l36 21c45 27 47 26 42-4-3-14-4-25-2-25s29 7 61 15c83 22 102 20 95-7-5-21-4-22 11-9 9 7 17 23 17 35 0 11 5 28 10 36 7 11 10 5 10-22 0-21 4-38 8-38 20 0 52 48 52 77 0 22 8 38 25 51l25 20v432l24 16 25 16-22 45c-22 45-22 45-2 61 30 25 30 101 0 192-22 67-24 88-21 200 2 69 5 171 5 228l1 102h141l-3 138c-5 168-21 233-72 279-39 36-44 57-20 91 11 16 25 22 53 22 21 0 57 7 80 15 32 11 43 12 46 2 9-29 25-172 25-222 0-29 11-105 25-169s25-132 25-151c0-28 8-44 38-74 53-55 112-124 124-144 7-13 5-19-9-24-35-12-63-46-63-76 0-27 33-93 76-155 15-21 15-22-2-22-17-1-16-3 5-20 40-34 63-26 109 37 46 62 50 64 28 11-11-26-12-45-5-78 8-34 6-52-6-82-8-21-15-47-15-57 0-9-11-24-25-31-19-10-24-19-19-34 12-36 37-68 77-97l40-29-44-18c-24-11-54-22-66-26-13-4-23-11-23-15s54-31 121-61c91-41 124-62 135-82 14-27 81-86 122-107 53-28 9-18-89 19-57 22-108 40-113 40-26 0 87-65 172-99 53-22 115-49 137-60 21-12 46-21 55-21s41-18 71-41c30-22 68-47 86-54 29-12 32-16 26-49-5-30-1-40 26-67 32-31 39-32 97-14 17 5 25-1 42-29 23-40 42-47 42-16 0 39 31 44 350 50 185 4 315 10 330 17 14 6 39 25 55 43 39 42 86 65 182 91 43 11 90 29 105 40 15 10 34 19 41 19 8 0 20 7 27 15s20 15 29 15 52 27 95 60c64 47 83 57 98 49s18-6 18 15c0 17 10 30 35 45 19 11 39 31 44 43 10 26 75 90 109 107 13 7 22 21 22 34s14 33 36 50c22 19 33 34 30 44-4 9 9 30 33 54 27 28 37 45 34 59-4 14 7 32 35 60 32 33 37 42 25 49-13 7-13 9 2 14 9 4 14 11 10 17-8 13 42 97 63 105 16 6 15 8-3 21-18 14-18 16-4 27 9 7 14 18 11 26-8 25 40 160 60 167 24 7 23 21-2 29-18 6-20 15-20 88 0 72 3 84 20 95 16 10 18 16 10 32-18 34-12 60 14 60 20 0 25 6 31 40 4 21 4 43 2 48-3 4 10 6 29 4 37-5 44 7 17 29-27 23-42 71-36 122l6 47h-71l6 278c5 304-3 434-44 644-39 203-152 528-183 528-5 0-29 37-53 83-33 63-67 107-149 192-58 61-109 120-113 133-10 31-189 155-243 167-10 3-70 22-133 44-125 43-264 74-405 91-122 14-370 11-484-6zm500-664c48-10 116-34 150-52 35-18 67-34 71-36 3-2 10 10 15 25l10 28 12-24c12-22 9-27-45-82-43-43-55-61-47-71 6-7 16-31 23-53l13-39 16 24c40 61 74 91 100 88 20-2 34-19 69-82 24-44 55-118 68-165 17-58 35-96 54-116l28-30-20-52c-14-40-24-53-39-53-16 0-19-5-14-19 10-34-10-31-35 5-28 42-77 71-93 55-7-7-6-15 4-27 7-9 12-30 11-48-2-17 4-52 12-78 12-40 12-49 0-59-21-17-17-25 26-51 22-13 48-39 58-58 14-30 22-35 51-35 38 0 50-17 30-41-10-12-24-15-61-10-63 9-73 1-48-34 11-15 20-42 20-59 0-31 1-31 50-31h50v-35c0-23-6-38-18-44-14-7-17-19-14-53 2-23 6-120 8-214l5-171-27 5c-30 5-28-4 9-45 17-19 19-32 15-85-3-35-17-102-31-148-14-47-34-116-43-154-38-155-145-302-275-379-35-20-113-53-174-73-92-30-125-36-200-36-152-1-319 50-403 123-38 34-66 39-57 10 4-13-2-25-21-40-44-34-54-28-54 34v55h35c19 0 35 5 35 10 0 6-10 10-22 10-19 0-32 18-71 90-54 101-89 223-107 372-12 93-11 101 9 152 18 44 26 53 42 49 15-4 20 1 25 26 6 27 12 33 34 33 3 0 15-3 28-7 27-8 30 10 5 37-9 11-11 18-5 18 7 0 12 10 12 22s7 29 16 39c15 16 13 20-28 49-23 17-50 46-58 63-13 27-21 32-50 33-26 0-36 5-38 18-5 24 16 38 46 31 21-5 22-3 22 65v70h-35c-33 0-35 2-35 34 0 22 6 36 16 40 9 3 14 12 11 20-3 7-1 18 5 24 7 7 3 25-11 57-18 41-21 67-21 196 0 122 3 150 15 157 13 7 13 14 4 41-9 26-8 39 4 64 8 18 24 73 36 122 32 139 86 238 173 321 89 84 151 118 288 161 127 39 229 43 361 13z"/>
  <path d="m24020 4987c0-32 6-49 21-62 16-15 19-26 14-56-6-37-6-38 29-41l35-3-18-41c-38-84-38-84 13-84h45l-1 43c0 23 1 55 2 70s-5 36-14 46c-22 24-20 39 5 60 16 12 20 23 15 39-9 27-83 72-119 72-25 0-27-3-27-43z"/>
  <path d="m17205 3580c-4-6-24-22-46-36-22-13-45-36-51-49-7-16-19-25-35-25-12 0-23-4-23-10 0-5-11-10-25-10-43 0-33-41 20-84 35-29 45-44 45-67 0-25 4-29 30-29 33 0 80 19 80 32 0 5-7 11-15 14-23 9-21 100 3 115 12 7 17 20 15 33-4 17 3 25 30 38 28 13 35 23 39 52 4 35 3 36-28 36-18 0-36-5-39-10z"/>
  <path d="m18111 1890c-6-28-11-62-11-75 0-24 3-25 58-25 57 0 58 0 75 37l17 38-30 30c-29 29-30 29-45 10-14-19-14-19-15 8 0 20-5 27-19 27-15 0-22-11-30-50z"/>
 </g>
</svg>
