<svg width="800" height="217.24" data-name="Layer 1" version="1.1" viewBox="0 0 800 217.24" xmlns="http://www.w3.org/2000/svg">
 <defs>
  <radialGradient id="radialGradient30" cx="0" cy="0" r="1" gradientTransform="matrix(18.009 0 0 18.009 296.52 421.78)" gradientUnits="userSpaceOnUse">
   <stop stop-color="#fff" offset="0"/>
   <stop stop-color="#fff" offset=".1573"/>
   <stop stop-color="#008bcb" offset=".9949"/>
   <stop stop-color="#008bcb" offset="1"/>
  </radialGradient>
 </defs>
 <g transform="matrix(.99713 0 0 .99713 251.6 142.7)" fill="#129aa6" style="shape-inside:url(#rect998-9-6);white-space:pre" aria-label="IRELAND">
  <path d="m16.267 74.752h12.12v-1.92c-3-0.12-3.64-0.64-3.72-1.64s-0.08-2-0.08-3.8v-13.4c0-1.8 0-2.8 0.08-3.8s0.72-1.52 3.72-1.64v-1.92h-12.12v1.92c3 0.12 3.64 0.64 3.72 1.64s0.08 2 0.08 3.8v13.4c0 1.8 0 2.8-0.08 3.8s-0.72 1.52-3.72 1.64z"/>
  <path d="m45.05 74.752h12.16v-1.92c-3.04-0.12-3.64-0.64-3.72-1.64s-0.08-2-0.08-3.8v-5.04h3.92l3.84 7.64c2.32 4.56 3.88 4.76 8.08 4.76h2.28v-1.92c-2.48-0.2-3.36-0.56-6.12-5.16l-3.84-6.48c3.08-1.12 5.28-3.52 5.28-7.04 0-5.32-4.4-7.52-9.84-7.52-3.12 0-4.84 0.04-6.68 0.04-2.6 0-5.68-0.04-5.68-0.04v1.92c3.52 0.12 4.04 0.64 4.12 1.64s0.08 2 0.08 3.8v13.4c0 1.8 0 2.8-0.08 3.8s-0.72 1.52-3.72 1.64zm11.68-14.84c-0.96 0-1.8 0-3.32-0.2v-10.36c0.72-0.08 1.44-0.16 2.44-0.16 3.56 0 6.2 1.72 6.2 5.36 0 3.12-2.04 5.36-5.32 5.36z"/>
  <path d="m86.392 74.752h22.28v-6.84h-2.4c-0.24 3.64-1.04 4.32-6.32 4.32-4.64 0-5.2-0.48-5.2-1.96v-8.6h5.4c2 0 2.52 0.4 2.68 3.12h2.12v-8.6h-2.12c-0.16 2.72-0.68 3.12-2.68 3.12h-5.4v-10.2h4.6c5 0 5.72 0.4 5.88 4.24h2.28v-6.72h-21.52v1.92c3.52 0.12 4.04 0.64 4.12 1.64s0.08 2 0.08 3.8v13.4c0 1.8 0 2.8-0.08 3.8s-0.72 1.52-3.72 1.64z"/>
  <path d="m126.09 74.752h21.52v-6.84h-2.24c-0.24 3.64-1.08 4.32-5.92 4.32-4.28 0-5-0.48-5-1.92v-16.32c0-1.8 0-2.8 0.08-3.8s0.68-1.52 3.72-1.64v-1.92h-12.16v1.92c3 0.12 3.64 0.64 3.72 1.64s0.08 2 0.08 3.8v13.4c0 1.8 0 2.8-0.08 3.8s-0.72 1.52-3.72 1.64z"/>
  <path d="m162.4 74.752h10.08v-1.92c-2.56-0.04-3.32-0.44-3.32-1.4 0-0.28 0.08-0.68 0.68-2.8l1.04-3.56h9.48l1.28 3.68c0.68 1.92 0.76 2.36 0.76 2.72 0 0.8-0.64 1.32-3.04 1.36v1.92h11.28v-1.92c-2.28-0.04-2.76-0.56-3.68-3.12l-8.52-23.08h-4.8l-7.6 23.48c-0.56 1.8-1.12 2.68-3.64 2.72zm9.2-12.24 3.6-12.12 4.28 12.12z"/>
  <path d="m206.54 74.752h10.84v-1.92c-3.36-0.12-3.96-0.64-4.04-1.64s-0.08-2-0.08-3.8v-15.24l16.52 22.6h3.56v-20.76c0-1.8 0-2.8 0.08-3.8s0.68-1.52 3.72-1.64v-1.92h-10.6v1.92c3.08 0.12 3.72 0.64 3.8 1.64s0.08 2 0.08 3.8v13.72l-15.44-21.08h-8.84v1.92c3.4 0.12 4.04 0.64 4.12 1.64s0.08 2 0.08 3.8v13.4c0 1.8 0 2.8-0.08 3.8s-0.72 1.52-3.72 1.64z"/>
  <path d="m281.4 60.112c0-10.56-6.6-13.48-15.32-13.48h-12.68v1.92c3.48 0.12 4.04 0.64 4.12 1.64s0.08 2 0.08 3.8v13.4c0 1.8 0 2.8-0.08 3.8s-0.72 1.52-3.72 1.64v1.92h12.4c8.36 0 15.2-4.92 15.2-14.64zm-4.92 0.96c0 7.24-3.96 10.88-9.64 10.88-1.76 0-3.04-0.16-4.72-0.52v-21.8c0.64-0.08 1.96-0.2 3.24-0.2 7.08 0 11.12 3.24 11.12 11.64z"/>
 </g>
 <g transform="matrix(4.6944 0 0 -4.6944 -1002 2062.5)">
  <path d="m296.52 404.86c10.512 0 19.039 7.571 19.039 16.917 0 9.345-8.527 16.921-19.039 16.921s-19.035-7.576-19.035-16.921c0-9.346 8.523-16.917 19.035-16.917z" fill="url(#radialGradient30)"/>
 </g>
 <path d="m389.97 0.039261c-23.151 0-44.305 7.7111-60.409 20.436h-1e-3l-0.10546 0.084c-0.12374 0.0981-0.24988 0.19428-0.37307 0.29299l-3.795 3.043h0.20312c-5.4948 4.9008-10.279 10.442-14.223 16.467h-0.0176l-0.50391 0.78908c-0.11548 0.1803-0.22784 0.3618-0.34181 0.54297l-1.336 2.0879h0.0684c-2.9611 5.055-5.3306 10.423-7.0372 16.035h-8e-3l-0.35743 1.2285c-9.1e-4 3e-3 -1e-3 7e-3 -1e-3 9e-3 -0.0107 0.0364-0.0208 0.0729-0.0312 0.10933l-0.59181 2.0645h0.0332c-1.2138 4.7849-1.9222 9.7438-2.1465 14.817h-0.0585v1.713l-0.0469 1.7071h0.0215c0.022 5.4003 0.64509 10.686 1.8008 15.797h-0.0429l0.55861 2.1446c0.0133 0.0503 0.0277 0.10014 0.0411 0.1504l0.28905 1.125h0.0156c1.5448 5.5211 3.698 10.806 6.4161 15.817h-0.0781l1.3828 2.3106c0.0535 0.0909 0.1044 0.18274 0.1582 0.27345l0.49611 0.83399h0.0156c3.342 5.4581 7.3576 10.536 11.946 15.129h-0.14454l2.6211 2.379c0.21744 0.20077 0.43265 0.4029 0.65237 0.60157l0.48632 0.43947h0.0195c16.501 14.741 39.291 23.848 64.427 23.848 25.14 0 47.94-9.1078 64.454-23.848h0.012l0.48633-0.43947 3.2911-2.9805h-0.16602c4.5874-4.5948 8.5996-9.6698 11.932-15.129h0.0156l0.49415-0.83399c0.0755-0.1264 0.14805-0.25411 0.22267-0.38088l1.3086-2.2051h-0.0585c2.7263-5.0094 4.8697-10.3 6.4064-15.815h0.0176l0.33008-1.2832c0.0136-0.0525 0.0256-0.1056 0.0391-0.1582l0.51953-1.9786h-0.0411c1.1862-5.2024 1.8282-10.587 1.8282-16.092 0-0.5905-0.0469-1.0685-0.0469-1.4122v-1.7129h-0.0644c-0.21364-5.0783-0.9286-10.033-2.1368-14.817h0.0469l-0.62306-2.1836c-0.0691-0.2398-0.14139-0.47787-0.21291-0.71681l-0.14452-0.51173h-9e-3c-1.7235-5.6119-4.0992-10.98-7.0509-16.035h0.0743l-1.6778-2.6309-0.5039-0.78909h-0.012c-3.946-6.0287-8.7373-11.566-14.237-16.467h0.19142l-3.795-3.043-0.4668-0.37697h-0.0137c-16.08-12.724-37.225-20.426-60.4-20.428h-9e-3zm-0.0156 3.42c3e-3 -6e-5 5e-3 2e-5 8e-3 0h0.012c0.0325 1.6e-4 0.0665 3e-3 0.10346 8e-3h1e-3c0.0379 5e-3 0.0784 0.0133 0.12107 0.0253h1e-3c0.0864 0.0245 0.1827 0.0651 0.29102 0.12693h1e-3c0.0541 0.0309 0.10986 0.0667 0.16994 0.10935h1e-3c0.0603 0.0428 0.12294 0.0941 0.18946 0.15038h1e-3c0.13364 0.11307 0.28029 0.2547 0.44141 0.43165 0.64604 0.70956 1.4057 1.9301 2.1368 3.586 1.2594 2.8525 2.4176 7.4797 3.4922 12.578h-13.906c1.0775-5.0937 2.2344-9.7272 3.4923-12.578 0.73073-1.6564 1.4924-2.8762 2.1368-3.586 0.63245-0.69687 1.0429-0.84626 1.3047-0.85158zm-5.6017 1.0957c-0.33323 0.60405-0.65293 1.2598-0.96488 1.9668-0.0935 0.2119-0.18758 0.42865-0.27929 0.65235-1.4071 3.3843-2.6445 7.8774-3.7344 13.301h-12.582c5.1405-8.1318 11.075-13.909 17.561-15.92zm11.25 1e-3c6.4887 2.013 12.415 7.7918 17.573 15.918h-12.608c-1.157-5.7807-2.4813-10.51-4.0059-13.963-0.31053-0.70331-0.62822-1.3555-0.959-1.9551zm-21.039 1.1485c-4.6058 3.5382-8.7611 8.596-12.313 14.77h-14.237c7.7129-7.003 16.685-12.129 26.549-14.77zm30.821 0c9.8704 2.6406 18.841 7.7658 26.551 14.77h-14.221c-3.5684-6.1733-7.7242-11.231-12.33-14.77zm-48.231 3.4571c-5.2327 3.0961-10.083 6.9056-14.449 11.313h-6.9297c6.4988-4.5684 13.594-8.4907 21.379-11.313zm65.693 0.0235c7.7716 2.82 14.85 6.7284 21.33 11.289h-6.9298c-4.354-4.395-9.1865-8.1976-14.401-11.289zm-91.967 14.709h8.631c-4.2921 4.9072-8.0309 10.446-11.11 16.467h-12.395c4.2274-6.008 8.9954-11.716 14.873-16.467zm13.395 0h16.118c-2.5052 4.9093-4.6909 10.448-6.4689 16.467h-21.205c3.2798-6.0281 7.0208-11.715 11.557-16.467zm20.098 0h14.354c-0.86289 4.8839-1.6242 10.431-2.2618 16.467h-18.741c1.8684-6.0582 4.0595-11.699 6.6486-16.467zm17.887 0h15.422c0.89779 4.8182 1.6671 10.39 2.3008 16.467h-20.014c0.65309-6.0734 1.4159-11.647 2.2911-16.467zm18.967 0h14.481c2.5992 4.8047 4.8761 10.362 6.7638 16.477h-18.987c-0.61695-6.0373-1.3746-11.588-2.2579-16.477zm18.01 0h16.44c4.5536 4.7546 8.3016 10.444 11.59 16.477h-21.364c-1.8273-6.0848-4.1144-11.528-6.6661-16.477zm21.204 0h8.6232c5.8795 4.752 10.659 10.46 14.889 16.467h-12.377c-3.0859-6.0203-6.8299-11.56-11.135-16.467zm-127.17 19.887h13.469c-2.3169 5.0538-4.1866 10.422-5.5157 16.028h-15.215c1.8078-5.6008 4.1324-11.016 7.2618-16.028zm17.373 0h22.329c-1.338 5.0539-2.421 10.42-3.1973 16.028h-24.788c1.3962-5.6102 3.2351-11.013 5.6564-16.028zm25.948 0h19.537c-0.46588 5.0455-0.84651 10.412-1.0996 16.028h-21.674c0.80057-5.6172 1.8656-11.007 3.2364-16.028zm23.004 0h20.758c0.4647 5.0442 0.85252 10.415 1.1192 16.035h-22.987c0.25763-5.6212 0.63765-10.996 1.1094-16.035zm24.217 0h19.555c1.3707 5.026 2.4496 10.417 3.2462 16.035h-21.678c-0.26274-5.6264-0.66245-10.986-1.1231-16.035zm23.184 0h22.336c2.408 5.0168 4.2513 10.421 5.6661 16.035h-24.803c-0.77153-5.6118-1.8625-10.982-3.1993-16.035zm26.239 0h13.453c3.1165 5.0138 5.4577 10.424 7.2814 16.028h-15.219c-1.3478-5.6075-3.2107-10.972-5.5157-16.028zm-148.4 19.456h15.639c-0.95534 4.7812-1.5087 9.7338-1.666 14.809h-16.192c0.24027-5.0929 0.93996-10.053 2.2188-14.809zm19.264 0h25.241c-0.54728 4.7789-0.87542 9.7291-0.97854 14.809h-25.987c0.16765-5.0907 0.72836-10.05 1.7246-14.809zm28.762 0h22.016c-0.20318 4.7775-0.30495 9.7352-0.35158 14.809h-22.664c0.10813-5.0886 0.4387-10.045 1-14.809zm25.469 0h23.307c0.18262 4.773 0.31517 9.7249 0.35743 14.809h-24.022c0.0475-5.0923 0.15181-10.045 0.35742-14.809zm26.756 0h22.022c0.56469 4.7658 0.88195 9.7196 0.98049 14.809h-22.661c-0.0412-5.0873-0.16176-10.036-0.3418-14.809zm25.547 0h25.254c0.97269 4.7624 1.5388 9.722 1.7246 14.809h-26.01c-0.0937-5.0797-0.41903-10.031-0.96878-14.809zm28.866 0h15.635c1.2707 4.7585 1.9799 9.719 2.209 14.809h-16.168c-0.17515-5.0771-0.74197-10.032-1.6758-14.809zm-157.13 18.229h16.342c0.0183 5.4065 0.53821 10.691 1.4473 15.797h-15.782c-1.2182-5.1147-1.9844-10.378-2.0079-15.797zm19.787 0h26.168c0.0107 5.4009 0.29657 10.686 0.82619 15.797h-25.391c-0.94842-5.1206-1.5848-10.384-1.6036-15.797zm29.596 0h22.766c4e-3 5.4213 0.13678 10.676 0.32033 15.797h-22.18c-0.54389-5.1161-0.89693-10.376-0.90627-15.797zm26.178 0h24.1c-4e-3 5.4087-0.1068 10.689-0.28907 15.797h-23.512c-0.18405-5.1114-0.295-10.391-0.29882-15.797zm27.51 0h22.768c-0.0107 5.4194-0.36776 10.678-0.90626 15.797h-22.163c0.18119-5.1255 0.29663-10.379 0.30078-15.797zm26.206 0h26.141c-0.0183 5.4228-0.61977 10.683-1.5762 15.797h-25.393c0.52438-5.1093 0.81777-10.395 0.82813-15.797zm29.585 0h16.379c-0.0241 5.4161-0.80726 10.681-2.0352 15.797h-15.764c0.91573-5.1127 1.4027-10.4 1.42-15.797zm-155.79 19.217h15.385c1.1894 5.5187 2.8815 10.803 5.0235 15.815h-13.807c-2.8656-4.9713-4.9706-10.3-6.6017-15.815zm19.125 0h24.983c0.7005 5.5193 1.6738 10.803 2.9102 15.815h-22.748c-2.2361-4.9738-3.8976-10.292-5.1446-15.815zm28.543 0h21.842c0.24361 5.5178 0.5667 10.809 0.99611 15.815h-19.869c-1.269-4.9808-2.2458-10.284-2.9688-15.815zm25.286 0h23.17c-0.2473 5.5304-0.58617 10.82-1.0176 15.815h-21.135c-0.43428-4.9899-0.77068-10.28-1.0176-15.815zm26.639 0h21.948c-0.75233 5.8526-1.839 11.433-3.2032 16.668h-19.838l0.0723-0.85354h-1e-3c0.42824-5.0047 0.77897-10.288 1.0234-15.815zm25.293 0h25.084c-1.2394 5.5187-2.9113 10.842-5.1427 15.815h-22.885c1.2387-5.0197 2.2472-10.282 2.9434-15.815zm28.819 0h15.373c-1.6245 5.5182-3.7288 10.845-6.6095 15.815h-13.774c2.136-5.0084 3.8295-10.296 5.0098-15.815zm-55.355 18.373h19.52c-1.723 6.2003-3.8252 11.875-6.2853 16.844h-15.36l0.14453-0.85354h-0.0156c0.7773-4.8162 1.4734-10.19 1.9961-15.991zm-89.275 0.86134h12.877c2.6036 5.4542 5.7406 10.53 9.342 15.129h-9.7677c-4.8894-4.4846-8.8821-9.6914-12.451-15.129zm17.063 0h21.773c1.5089 5.4512 3.3203 10.526 5.4103 15.129h-17.51c-3.7952-4.483-6.9128-9.6773-9.674-15.129zm25.526 0h19.159c0.53236 5.4674 1.1637 10.548 1.8828 15.129h-15.502c-2.1549-4.4942-3.9642-9.6493-5.5392-15.129zm22.647 0h20.455c-0.52472 5.485-1.1778 10.585-1.9258 15.129h-16.621c-0.72979-4.5385-1.364-9.6413-1.9082-15.129zm46.761 0h21.877c-2.7619 5.4508-5.884 10.642-9.6838 15.129h-17.758c2.128-4.6331 4.0336-9.6329 5.5646-15.129zm26.073 0h12.848c-3.5593 5.4371-7.5512 10.64-12.442 15.129h-9.7638c3.6069-4.6004 6.7525-9.6744 9.3576-15.129zm-51.214 17.696h14.782c-5.7176 10.908-12.921 18.148-20.717 20.475 0.54409-0.95164 1.0512-2.0349 1.543-3.2559 1.6283-4.0429 3.0408-9.5966 4.2423-16.366h4e-3l0.0723-0.43165c0.0248-0.14153 0.0496-0.27932 0.0743-0.42188zm-70.048 0.85353h8.2521c4.9585 5.6632 10.656 10.504 16.916 14.315-9.3547-3.4633-17.78-8.358-25.168-14.315zm13.268 0h15.821c4.0393 7.911 8.9568 14.296 14.52 18.461-11.553-3.0184-21.84-9.6012-30.34-18.461zm20.207 0h13.934c1.1348 6.3385 2.4474 11.615 3.9474 15.576 0.10213 0.27321 0.20445 0.54048 0.3086 0.79884 0.0351 0.0869 0.0715 0.16748 0.10747 0.25001 0.39165 0.95167 0.79472 1.8221 1.2188 2.6036-7.3393-2.3008-13.994-9.2392-19.516-19.229zm17.549 0h15.256c-1.1365 6.1386-2.4008 11.626-3.797 15.092-0.7901 1.9618-1.6144 3.4318-2.3379 4.2989-0.72358 0.86733-1.2045 1.0469-1.4942 1.0469-0.0343 0-0.0725-3e-3 -0.11334-9e-3 -0.0405-7e-3 -0.0837-0.0184-0.1308-0.0332h-1e-3c-0.2846-0.0909-0.69068-0.35411-1.2305-1.0039-0.72105-0.86805-1.5472-2.3363-2.3379-4.2989-1.3965-3.4661-2.667-8.9572-3.8126-15.092zm36.985 0h16.045c-8.6936 9.0586-19.258 15.737-31.135 18.659 5.8012-4.107 10.898-10.522 15.09-18.659zm21.061 0h8.2521c-7.3923 5.9532-15.817 10.852-25.172 14.315 6.2612-3.811 11.96-8.6512 16.92-14.315z" color="#000000" fill="#fff" style="-inkscape-stroke:none"/>
 <g transform="matrix(4.6944 0 0 -4.6944 -1002 2062.5)" fill="#003a78">
  <path d="m223.4 421.89c3.273-0.69 3.095-5.203 3.095-5.203 0.136-2.719 2.289-2.994 2.289-2.994v-0.784h-3.01c-1.121 0.184-2.152 1.981-2.152 5.019 0 3.041-2.11 3.547-2.11 3.547l-3.195-0.046v-5.511c0-1.843 0.262-2.362 2.346-2.472v-0.523h-7.215v0.523c2.109 0.137 2.216 0.713 2.216 2.775v11.895c0 2.03-0.391 2.274-2.216 2.469v0.523h7.187c2.32 0 6.709-0.249 6.579-4.475 0.044-2.856-2.219-4.117-3.772-4.515zm-5.083 0.456c2.189 0.026 6.095 0.08 6.095 4.008 0 3.658-3.41 3.737-4.477 3.737-1.383 0-1.618-0.191-1.618-0.99z"/>
  <path d="m352.76 422.26c3.728-0.693 3.526-5.203 3.526-5.203 0.151-2.716 2.603-2.994 2.603-2.994v-0.788h-3.423c-1.755-0.086-3.598 1.525-3.822 4.653-0.217 3.031-1.658 3.548-1.658 3.548l-2.067-0.046-0.041-5.248c0-1.841-0.231-2.167 1.928-2.213v-0.694h-7.958l-3e-3 0.773c2.401 0.135 2.114 0.481 2.114 2.541v11.896c0 2.03 0.062 2.101-2.01 2.289v0.739l7.669-0.038c2.638 0 7.427-0.247 7.28-4.476 0.05-2.852-2.322-4.114-4.09-4.508zm-4.882 0.642c2.486 0.031 4.666-0.102 4.666 3.822 0 3.655-2.521 3.904-3.726 3.734-1.346-0.186-0.94-0.403-0.94-1.203z"/>
  <path d="m245.89 412.86h-6.28l0.031 0.779c0.912 0 1.691-0.231 1.691 0.775 0 0.437-0.319 1.339-0.469 1.72l-1.489 3.906-5.613-0.048-1.49-4.431c-0.121-0.354-0.197-0.736-0.197-1.037 0-1.143 1.218-0.885 1.732-0.885l-0.055-0.779h-4.877l0.037 0.779c0.4 0.026 0.773-0.175 1.214 0.339 0.571 0.682 1.333 2.673 1.802 3.871l4.215 13.295h2.019l5.515-15.391c0.783-1.991 0.185-2.068 2.296-2.161zm-6.741 8.055-2.648 7.41-2.514-7.364z"/>
  <path d="m340.25 414.59c0.242-0.451 0.607-0.542 1.596-0.542l1e-3 -0.774h-7.977l-6e-3 0.782c0.911 0 1.981-0.111 1.981 0.744 0 0.434-0.302 1.368-0.451 1.748l-0.988 3.087h-5.073l-1.12-3.775c-0.124-0.356-0.113-0.593-0.113-0.894 0.017-1.097 1.616-0.962 2.134-0.962l-9e-3 -0.73h-5.691v0.782c0.39 0.028 0.439-0.178 0.88 0.341 0.568 0.679 1.333 2.672 1.8 3.87l4.213 13.293h3.437l4.598-14.482zm-6.202 6.379-2.153 6.815-2.291-6.862z"/>
  <path d="m382.27 414.59c0.239-0.451 0.602-0.542 1.591-0.542l5e-3 -0.774h-7.983l-3e-3 0.782c0.91 0 1.983-0.111 1.983 0.744 0 0.434-0.306 1.368-0.45 1.748l-0.989 3.087h-5.072l-1.123-3.775c-0.123-0.356-0.11-0.593-0.11-0.894 0.015-1.097 1.614-0.962 2.132-0.962l-7e-3 -0.73h-5.694v0.782c0.394 0.028 0.44-0.178 0.885 0.341 0.564 0.679 1.329 2.672 1.799 3.87l4.213 13.293h3.435l4.599-14.482zm-6.203 6.379-2.157 6.815-2.288-6.862z"/>
  <path d="m245.98 413.6c2.03 0.112 2.292 0.342 2.292 2.262v12.195c0 2.034-0.295 2.31-2.349 2.475v0.524h7.209c7.928 0.088 10.622-2.582 10.659-9.149-0.037-4.394-1.741-9.045-10.283-9.039h-7.585zm4.667 16.53-0.046-1.151 0.046-13.719c0-0.936 0.67-1.373 1.952-1.373 1.712 0 8.28 0 8.28 7.993 0 2.309-0.4 4.843-2.013 6.453-1.283 1.182-1.978 1.846-6.69 1.846z"/>
  <path d="m264.14 413.54c2.131 0.053 2.433 0.319 2.433 2.273v12.226c0 2.038-0.353 2.368-2.433 2.479v0.525h7.446v-0.525c-1.831-0.085-2.458-0.275-2.458-2.479v-12.226c0-2.149 0.603-2.168 2.458-2.229v-0.771h-7.446z"/>
  <path d="m358.87 414c1.657 0 1.867 0.318 1.867 2.271v12.227c0 2.037 0.288 2.267-2.092 2.267v0.736h7.991l0.047-0.824c-2.199 0-2.034 0.024-2.034-2.179v-12.227c0-2.147 0.523-2.232 1.823-2.232v-0.773h-7.571z"/>
  <path d="m272.43 422.19c0 6.271 4.331 9.437 8.689 9.437 4.356 0 8.692-3.166 8.692-9.437 0-5.807-3.882-9.374-8.692-9.374-4.812 0-8.689 3.567-8.689 9.374m14.35 0.03c0 6.212-2.948 8.422-5.661 8.422-2.711 0-5.657-2.21-5.657-8.422 0-6.001 2.71-8.427 5.657-8.427 2.952 0 5.661 2.426 5.661 8.427"/>
  <path d="m324.94 430.76c-1.674-0.137-2.307 0.186-2.307-2.024v-12.415c0-2.15 0.203-2.071 1.904-2.184v-0.865h-7.858v0.819c2.076 0.115 1.886 0.425 1.886 2.718l-0.047 10.542v1.062l-5.25-14.598h-1.709l-5.432 14.725h-0.056v-11.155c0-2.879 0.56-3.497 2.503-3.577v-0.536h-6.246l0.03 0.91c2.019 0.142 2.158 0.252 2.158 3.275v11.279c0 2.181-0.19 1.915-2.158 2.024l0.024 1.023h6.798l4.581-12.12 4.131 12.12h7.048z"/>
 </g>
</svg>
