<svg width="800" height="217.24" data-name="Layer 1" version="1.1" viewBox="0 0 800 217.24" xmlns="http://www.w3.org/2000/svg">
 <defs>
  <clipPath id="b" transform="translate(.01 -.66)">
   <path class="cls-1" d="m76.28 21.33c0 11.13 10.15 20.15 22.68 20.15s22.68-9 22.68-20.15-10.16-20.16-22.64-20.16-22.68 9-22.68 20.16" fill="none"/>
  </clipPath>
  <radialGradient id="Degradado_sin_nombre_3" cx="189.13" cy="834.83" r=".95" gradientTransform="matrix(22.7 0 0 -22.7 -4194.1 18970)" gradientUnits="userSpaceOnUse">
   <stop stop-color="#fff" offset="0"/>
   <stop stop-color="#fff" offset=".16"/>
   <stop stop-color="#f2f9fc" offset=".23"/>
   <stop stop-color="#d1eaf5" offset=".37"/>
   <stop stop-color="#9bd1ea" offset=".56"/>
   <stop stop-color="#51aedb" offset=".78"/>
   <stop stop-color="#0089ca" offset="1"/>
  </radialGradient>
 </defs>
 <g transform="matrix(.6042 0 0 .6042 -22.96 -896.27)">
  <g class="cls-2" transform="matrix(6.5222 0 0 6.5222 37.935 1483.4)" clip-path="url(#b)">
   <rect class="cls-3" x="76.29" y=".51" width="45.36" height="40.31" fill="url(#Degradado_sin_nombre_3)"/>
  </g>
  <path class="cls-5" d="m568.58 1617.7v-2.348h-32.611v2.348a117.92 117.92 0 0 0 3.7828 29.48h31.959a150.86 150.86 0 0 1-3.1306-29.48z" fill="none" stroke="#fff" stroke-width="5.6743px"/>
  <path class="cls-5" d="m572.17 1585.2h-31.959a117.4 117.4 0 0 0-4.5003 30.132h32.611a145.44 145.44 0 0 1 3.8481-30.132z" fill="none" stroke="#fff" stroke-width="5.6743px"/>
  <path class="cls-5" d="m571.58 1647.1h-32.024a122.81 122.81 0 0 0 13.044 31.828h29.024a139.44 139.44 0 0 1-10.044-31.828z" fill="none" stroke="#fff" stroke-width="5.6743px"/>
  <path class="cls-5" d="m581.88 1679h-29.024a133.38 133.38 0 0 0 25.241 30.719h23.415a132.4 132.4 0 0 1-19.632-30.719z" fill="none" stroke="#fff" stroke-width="5.6743px"/>
  <path class="cls-5" d="m683.69 1486.2a158.16 158.16 0 0 0-99.006 33.785h21.98a107.22 107.22 0 0 1 77.027-33.785z" fill="none" stroke="#fff" stroke-width="5.6743px"/>
  <path class="cls-5" d="m782.77 1520a157.97 157.97 0 0 0-99.072-33.785 107.22 107.22 0 0 1 77.092 33.85z" fill="none" stroke="#fff" stroke-width="5.6743px"/>
  <path class="cls-5" d="m601.58 1709.7h-23.415a157.05 157.05 0 0 0 105.53 39.459 108.27 108.27 0 0 1-82.114-39.459z" fill="none" stroke="#fff" stroke-width="5.6743px"/>
  <path class="cls-5" d="m583.51 1553h-28.567a120.66 120.66 0 0 0-14.74 32.22h31.959a138.07 138.07 0 0 1 11.349-32.22z" fill="none" stroke="#fff" stroke-width="5.6743px"/>
  <path class="cls-5" d="m606.67 1520h-21.98a135.66 135.66 0 0 0-29.741 32.937h28.567a130.44 130.44 0 0 1 23.154-32.937z" fill="none" stroke="#fff" stroke-width="5.6743px"/>
  <path class="cls-5" d="m783.94 1553h28.567a135.47 135.47 0 0 0-29.741-32.937h-21.914a130.44 130.44 0 0 1 23.088 32.937z" fill="none" stroke="#fff" stroke-width="5.6743px"/>
  <path class="cls-5" d="m785.57 1679h29.024a121.31 121.31 0 0 0 13.044-31.828h-31.959a141.14 141.14 0 0 1-10.109 31.828z" fill="none" stroke="#fff" stroke-width="5.6743px"/>
  <path class="cls-5" d="m683.69 1749.2a157.12 157.12 0 0 0 105.59-39.459h-23.415a108.2 108.2 0 0 1-82.179 39.459z" fill="none" stroke="#fff" stroke-width="5.6743px"/>
  <path class="cls-5" d="m798.81 1617.7a147.14 147.14 0 0 1-2.935 29.48h31.959a116.68 116.68 0 0 0 3.7829-29.48v-2.348h-32.611c-0.19567 0.7174-0.19567 1.5653-0.19567 2.348z" fill="none" stroke="#fff" stroke-width="5.6743px"/>
  <path class="cls-5" d="m798.81 1615.3h32.611a118.25 118.25 0 0 0-4.5003-30.198h-31.763a150.01 150.01 0 0 1 3.6524 30.198z" fill="none" stroke="#fff" stroke-width="5.6743px"/>
  <path class="cls-5" d="m765.87 1709.7h23.415a133.38 133.38 0 0 0 25.241-30.719h-29.024a130.83 130.83 0 0 1-19.632 30.719z" fill="none" stroke="#fff" stroke-width="5.6743px"/>
  <path class="cls-5" d="m783.94 1553a142.12 142.12 0 0 1 11.349 32.22h31.893a121.38 121.38 0 0 0-14.61-32.22z" fill="none" stroke="#fff" stroke-width="5.6743px"/>
  <path class="cls-5" d="m581.88 1679a132.4 132.4 0 0 0 19.566 30.719h34.959a165.79 165.79 0 0 1-11.414-30.719z" fill="none" stroke="#fff" stroke-width="5.6743px"/>
  <path class="cls-5" d="m760.79 1520h-32.611a155.16 155.16 0 0 1 13.044 32.937h42.655a130.44 130.44 0 0 0-23.088-32.937z" fill="none" stroke="#fff" stroke-width="5.6743px"/>
  <path class="cls-5" d="m749.83 1615.3h48.981a150.01 150.01 0 0 0-3.522-30.198h-47.481a244.26 244.26 0 0 1 2.0219 30.198z" fill="none" stroke="#fff" stroke-width="5.6743px"/>
  <path class="cls-5" d="m747.81 1585.2h47.547a141.86 141.86 0 0 0-11.349-32.22h-42.655a216.28 216.28 0 0 1 6.4569 32.22z" fill="none" stroke="#fff" stroke-width="5.6743px"/>
  <path class="cls-5" d="m639.47 1520h-32.611a130.44 130.44 0 0 0-23.154 32.937h42.655a154.58 154.58 0 0 1 13.11-32.937z" fill="none" stroke="#fff" stroke-width="5.6743px"/>
  <path class="cls-5" d="m742.39 1679h43.307a141.14 141.14 0 0 0 10.305-31.828h-47.742a223.71 223.71 0 0 1-5.87 31.828z" fill="none" stroke="#fff" stroke-width="5.6743px"/>
  <path class="cls-5" d="m730.92 1709.7h34.959a130.9 130.9 0 0 0 19.566-30.719h-43.046a162.4 162.4 0 0 1-11.479 30.719z" fill="none" stroke="#fff" stroke-width="5.6743px"/>
  <path class="cls-5" d="m749.83 1617.7a263.82 263.82 0 0 1-1.6958 29.48h47.742a147.92 147.92 0 0 0 2.935-29.48v-2.348h-48.981v2.348z" fill="none" stroke="#fff" stroke-width="5.6743px"/>
  <path class="cls-5" d="m619.65 1585.2h-47.481a145.05 145.05 0 0 0-3.522 30.132h48.981a251.95 251.95 0 0 1 2.0219-30.132z" fill="none" stroke="#fff" stroke-width="5.6743px"/>
  <path class="cls-5" d="m639.47 1520c11.609-21.001 27.263-33.785 44.22-33.785a107.22 107.22 0 0 0-77.027 33.785z" fill="none" stroke="#fff" stroke-width="5.6743px"/>
  <path class="cls-5" d="m765.87 1709.7h-34.959c-12.001 24.328-28.698 39.459-47.22 39.459a108.2 108.2 0 0 0 82.179-39.459z" fill="none" stroke="#fff" stroke-width="5.6743px"/>
  <path class="cls-5" d="m626.17 1553h-42.655a139.31 139.31 0 0 0-11.349 32.22h47.481a216.21 216.21 0 0 1 6.5222-32.22z" fill="none" stroke="#fff" stroke-width="5.6743px"/>
  <path class="cls-5" d="m727.98 1520h32.611a107.22 107.22 0 0 0-76.896-33.785c17.088 0 32.611 12.783 44.286 33.785z" fill="none" stroke="#fff" stroke-width="5.6743px"/>
  <path class="cls-5" d="m619.26 1647.1h-47.677a140.23 140.23 0 0 0 10.37 31.828h43.046a227.56 227.56 0 0 1-5.7395-31.828z" fill="none" stroke="#fff" stroke-width="5.6743px"/>
  <path class="cls-5" d="m636.54 1709.7h-34.959a108.27 108.27 0 0 0 82.114 39.459c-18.458 0-35.154-15.132-47.155-39.459z" fill="none" stroke="#fff" stroke-width="5.6743px"/>
  <path class="cls-5" d="m617.63 1617.7v-2.348h-48.981v2.348a151.31 151.31 0 0 0 3.0002 29.48h47.742a253.78 253.78 0 0 1-1.761-29.48z" fill="none" stroke="#fff" stroke-width="5.6743px"/>
  <path class="cls-5" d="m664.13 1553c1.2392-12.392 2.8045-23.48 4.5655-32.937h-29.219a154.51 154.51 0 0 0-13.044 32.937z" fill="none" stroke="#fff" stroke-width="5.6743px"/>
  <path class="cls-5" d="m741.29 1553a155.75 155.75 0 0 0-13.044-32.937h-29.024c1.8262 9.4572 3.3915 20.545 4.5655 32.937z" fill="none" stroke="#fff" stroke-width="5.6743px"/>
  <path class="cls-5" d="m661.65 1585.2h-42.003a249.8 249.8 0 0 0-2.0219 30.132h43.307c0.0652-10.37 0.32611-20.48 0.71744-30.132z" fill="none" stroke="#fff" stroke-width="5.6743px"/>
  <path class="cls-5" d="m619.26 1647.1a227.56 227.56 0 0 0 5.7395 31.828h38.35c-0.91311-9.9137-1.5653-20.61-2.0219-31.828z" fill="none" stroke="#fff" stroke-width="5.6743px"/>
  <path class="cls-5" d="m703.91 1679h38.481a223.71 223.71 0 0 0 5.9352-31.828h-42.264c-0.58699 11.283-1.3044 21.914-2.1523 31.828z" fill="none" stroke="#fff" stroke-width="5.6743px"/>
  <path class="cls-5" d="m705.8 1585.2h42.003a217.84 217.84 0 0 0-6.5222-32.22h-38.024c1.2392 9.9789 2.0871 20.806 2.5436 32.22z" fill="none" stroke="#fff" stroke-width="5.6743px"/>
  <path class="cls-5" d="m664.13 1553h-37.959a216.21 216.21 0 0 0-6.5222 32.22h42.003c0.52178-11.414 1.3044-22.241 2.4784-32.22z" fill="none" stroke="#fff" stroke-width="5.6743px"/>
  <path class="cls-5" d="m706.46 1617.7c0 10.174 0 20.023-0.58699 29.48h42.264a262.58 262.58 0 0 0 1.6958-29.48v-2.348h-43.372z" fill="none" stroke="#fff" stroke-width="5.6743px"/>
  <path class="cls-5" d="m706.46 1615.3h43.372a245.3 245.3 0 0 0-2.0219-30.198h-42.003c0.39133 9.7181 0.65221 19.827 0.65221 30.198z" fill="none" stroke="#fff" stroke-width="5.6743px"/>
  <path class="cls-5" d="m639.47 1520h29.024c4.0437-21.001 9.3919-33.785 15.197-33.785-16.958 0-32.611 12.783-44.22 33.785z" fill="none" stroke="#fff" stroke-width="5.6743px"/>
  <path class="cls-5" d="m698.96 1520h29.024c-11.675-21.001-27.197-33.785-44.286-33.785 5.87 0 11.283 12.783 15.262 33.785z" fill="none" stroke="#fff" stroke-width="5.6743px"/>
  <path class="cls-5" d="m730.92 1709.7h-30.915c-4.109 24.328-9.9137 39.459-16.24 39.459 18.458 0 35.154-15.132 47.155-39.459z" fill="none" stroke="#fff" stroke-width="5.6743px"/>
  <path class="cls-5" d="m667.45 1709.7h-30.915c12.001 24.328 28.698 39.459 47.22 39.459-6.5874 0-12.131-15.132-16.305-39.459z" fill="none" stroke="#fff" stroke-width="5.6743px"/>
  <path class="cls-5" d="m625 1679a165.79 165.79 0 0 0 11.283 30.719h30.98c-1.5001-9.0658-2.8698-19.566-3.9133-30.719z" fill="none" stroke="#fff" stroke-width="5.6743px"/>
  <path class="cls-5" d="m703.91 1679c-1.0436 11.283-2.348 21.654-3.9133 30.719h30.98a163.05 163.05 0 0 0 11.414-30.719z" fill="none" stroke="#fff" stroke-width="5.6743px"/>
  <path class="cls-5" d="m660.93 1617.7v-2.348h-43.307v2.348a255.02 255.02 0 0 0 1.6958 29.48h42.198c-0.32611-9.4572-0.587-19.306-0.587-29.48z" fill="none" stroke="#fff" stroke-width="5.6743px"/>
  <path class="cls-5" d="m705.8 1585.2c-0.45656-11.414-1.3044-22.241-2.2828-32.22h-39.394c-0.97833 9.9789-1.761 20.74-2.2175 32.22z" fill="none" stroke="#fff" stroke-width="5.6743px"/>
  <path class="cls-5" d="m660.93 1615.3h45.655c0-10.436 0-20.545-0.71744-30.198h-44.22c-0.45655 9.7181-0.65221 19.827-0.71744 30.198z" fill="none" stroke="#fff" stroke-width="5.6743px"/>
  <path class="cls-5" d="m660.93 1617.7c0 10.174 0 20.023 0.587 29.48h44.351c0.39133-9.4572 0.58699-19.566 0.58699-29.48v-2.348h-45.655z" fill="none" stroke="#fff" stroke-width="5.6743px"/>
  <path class="cls-5" d="m700 1709.7h-32.611c4.109 24.328 9.9137 39.459 16.24 39.459 6.3265 0 12.196-15.132 16.371-39.459z" fill="none" stroke="#fff" stroke-width="5.6743px"/>
  <path class="cls-5" d="m668.5 1520h30.459c-3.9785-21.001-9.3919-33.785-15.262-33.785s-11.153 12.783-15.197 33.785z" fill="none" stroke="#fff" stroke-width="5.6743px"/>
  <path class="cls-5" d="m661.58 1647.1c0.45655 11.218 1.1088 21.914 2.0219 31.828h40.307c0.9131-9.9137 1.5653-20.61 2.0219-31.828z" fill="none" stroke="#fff" stroke-width="5.6743px"/>
  <path class="cls-5" d="m703.26 1553c-1.174-12.392-2.7393-23.48-4.5655-32.937h-30.198c-1.761 9.4572-3.3263 20.545-4.5655 32.937z" fill="none" stroke="#fff" stroke-width="5.6743px"/>
  <path class="cls-5" d="m663.61 1679c1.0436 11.283 2.348 21.654 3.9133 30.719h32.611c1.5001-9.0658 2.8698-19.566 3.9133-30.719z" fill="none" stroke="#fff" stroke-width="5.6743px"/>
 </g>
 <g transform="matrix(.6042 0 0 .6042 -22.96 -896.27)" fill="#003a79" stroke-width="6.5222">
  <path class="cls-6" d="m75.763 1613.8c16.958 0 47.351-0.6523 47.351-31.176 0-28.371-26.48-29.024-34.828-29.024-10.696 0-12.523 1.5001-12.523 7.6961zm39.459 3.5219c25.436 5.4134 24.067 40.438 24.067 40.438 1.0435 21.132 17.806 23.219 17.806 23.219v6.0656h-23.349c-8.7397-1.4349-16.762-15.392-16.762-39.133s-16.371-27.328-16.371-27.328l-24.849 0.3261v42.785c0 14.284 2.0219 18.392 18.197 19.24v4.0438h-55.96v-4.0438c16.371-1.0435 17.219-5.5438 17.219-21.588v-92.354c0-15.784-3.0654-17.675-17.219-19.175v-4.0437h55.765c18.001 0 52.177 1.9566 51.069 34.763 0.32611 22.175-17.219 32.024-29.285 35.089z"/>
  <path class="cls-6" d="m1082.5 1609.5c19.566 0 36.263 0.8479 36.263-29.676 0-28.437-19.566-30.328-28.958-29.024-10.501 1.4349-7.3048 3.1307-7.3048 9.3267zm37.959 5.0221c28.958 5.4134 27.393 40.438 27.393 40.438a23.675 23.675 0 0 0 20.219 23.219v6.1308h-26.61c-13.631 0.7174-27.915-11.805-29.676-36.133s-13.044-27.524-13.044-27.524l-16.045 0.3261v40.764c0 14.349-1.7609 16.827 15.001 17.218v5.4134h-61.765v-6.0004c18.653-1.0435 16.436-3.7176 16.436-19.566v-92.745c0-15.784 0.5217-16.371-15.653-17.806v-5.7395h59.613c20.48 0 57.721 1.8914 56.547 34.763 0.3913 22.175-18.001 31.959-31.763 35.024z"/>
  <path class="cls-6" d="m237.64 1624.8-20.545-57.591-19.566 57.265zm52.177 62.548h-48.59v-6.0656c7.1092 0 13.044 1.8262 13.044-6.0004a52.569 52.569 0 0 0-3.2611-13.631l-11.544-30.328-43.633 0.3913-11.609 34.437a26.089 26.089 0 0 0-1.5653 8.544c0 8.8702 9.4571 6.9135 13.501 6.9135l-0.45656 6.0656h-37.894v-6.0656c3.0654 0 6.0004 1.3697 9.4571-2.6741a150.66 150.66 0 0 0 14.218-30.328l32.611-103.31h15.718l42.981 119.62c6.1308 15.458 1.4349 16.044 17.871 16.762z"/>
  <path class="cls-6" d="m974.97 1624.5-16.762-52.96-17.806 53.351zm48.199 49.503c1.8914 3.5219 4.6959 4.2394 12.392 4.2394v6.0004h-61.961v-6.0657c7.0439 0 15.392 0.8479 15.392-5.7395a54.395 54.395 0 0 0-3.522-13.631l-7.6962-24.002h-39.133l-8.7397 29.35a18.393 18.393 0 0 0-0.84788 6.9787c0 8.544 12.588 7.4353 16.566 7.4353v5.6743h-44.22v-6.0657c3.0654 0 3.3915 1.3697 6.5222-2.6088a152.55 152.55 0 0 0 13.957-30.067l32.611-103.31h26.676l35.676 112.51z"/>
  <path class="cls-6" d="m1301.5 1624.5-16.762-52.96-17.74 53.351zm48.199 49.503c1.8914 3.5219 4.6959 4.2394 12.392 4.2394v6.0004h-62.026v-6.0657c7.0439 0 15.392 0.8479 15.392-5.7395a55.112 55.112 0 0 0-3.522-13.631l-7.6961-24.002h-39.133l-8.7397 29.35a18.327 18.327 0 0 0-0.8479 6.9787c0 8.544 12.522 7.4353 16.566 7.4353v5.6743h-44.22v-6.0657c3.0654 0 3.3915 1.3697 6.8483-2.6088a153.79 153.79 0 0 0 13.957-30.067l32.611-103.31h26.676l35.742 112.51z"/>
  <path class="cls-6" d="m326.93 1553.3-0.39133 8.9353 0.39133 106.64c0 7.3048 5.1525 10.696 15.131 10.696 13.044 0 64.309 0 64.309-62.091 0-17.936-3.0654-37.633-15.653-50.156-9.9789-9.1962-15.327-14.284-52.177-14.284zm-36.263 128.42c15.784-0.8478 17.806-2.674 17.806-17.61v-94.767c0-15.784-2.2828-17.936-18.262-19.24v-4.0437h56.025c61.634-0.7175 82.571 20.023 82.832 71.092 0 34.111-13.501 70.244-79.897 70.244h-58.7z"/>
  <path class="cls-6" d="m431.76 1682.1c16.566-0.3914 18.914-2.4785 18.914-17.675v-94.963c0-15.849-2.7393-18.392-18.914-19.566v-4.0437h57.852v4.0437c-14.218 0.6523-19.11 2.1524-19.11 19.566v94.963c0 16.697 4.696 16.892 19.11 17.349v6.0004h-57.852z"/>
  <path class="cls-6" d="m1167.9 1678.5c13.044 0 14.479-2.4784 14.479-17.61v-95.028c0-15.849 2.2827-17.61-16.24-17.61v-5.6743h62.091l0.3261 6.5222c-17.088 0-15.784 0-15.784 16.958v94.832c0 16.697 4.0437 17.349 14.218 17.349v6.0004h-58.7"/>
  <path class="cls-6" d="m607.78 1614.7c0-48.264-22.893-65.222-43.959-65.222s-43.959 17.153-43.959 65.222c0 46.634 21.067 65.222 43.959 65.222s43.959-18.849 43.959-65.222m-111.46 0c0-48.721 33.654-73.309 67.504-73.309s67.7 24.784 67.7 73.505c0 45.133-30.393 72.853-67.765 72.853s-67.504-27.719-67.504-72.853"/>
  <path class="cls-6" d="m904.21 1548.3c-13.044 1.0436-17.936-1.4349-17.936 15.718v96.463c0 16.697 1.5653 16.11 14.805 16.958v6.5222h-60.852v-6.5222c16.11-0.8478 14.675-3.2611 14.675-21.132l-0.39133-81.918v-7.8266l-40.764 113.42h-13.044l-42.655-114.4h-0.45655v86.68c0 22.371 4.3698 27.132 19.566 27.784v4.1742h-48.525v-7.044c15.653-1.1087 16.762-1.9566 16.762-25.436v-87.919c0-16.958-1.4349-14.871-16.762-15.718v-7.9571h52.895l35.546 94.18 32.089-94.18h54.786z"/>
 </g>
 <g transform="matrix(.99713 0 0 .99713 256.65 142.7)" fill="#129aa6" style="shape-inside:url(#rect998-9-6);white-space:pre" aria-label="IRELAND">
  <path d="m16.267 74.752h12.12v-1.92c-3-0.12-3.64-0.64-3.72-1.64s-0.08-2-0.08-3.8v-13.4c0-1.8 0-2.8 0.08-3.8s0.72-1.52 3.72-1.64v-1.92h-12.12v1.92c3 0.12 3.64 0.64 3.72 1.64s0.08 2 0.08 3.8v13.4c0 1.8 0 2.8-0.08 3.8s-0.72 1.52-3.72 1.64z"/>
  <path d="m45.05 74.752h12.16v-1.92c-3.04-0.12-3.64-0.64-3.72-1.64s-0.08-2-0.08-3.8v-5.04h3.92l3.84 7.64c2.32 4.56 3.88 4.76 8.08 4.76h2.28v-1.92c-2.48-0.2-3.36-0.56-6.12-5.16l-3.84-6.48c3.08-1.12 5.28-3.52 5.28-7.04 0-5.32-4.4-7.52-9.84-7.52-3.12 0-4.84 0.04-6.68 0.04-2.6 0-5.68-0.04-5.68-0.04v1.92c3.52 0.12 4.04 0.64 4.12 1.64s0.08 2 0.08 3.8v13.4c0 1.8 0 2.8-0.08 3.8s-0.72 1.52-3.72 1.64zm11.68-14.84c-0.96 0-1.8 0-3.32-0.2v-10.36c0.72-0.08 1.44-0.16 2.44-0.16 3.56 0 6.2 1.72 6.2 5.36 0 3.12-2.04 5.36-5.32 5.36z"/>
  <path d="m86.392 74.752h22.28v-6.84h-2.4c-0.24 3.64-1.04 4.32-6.32 4.32-4.64 0-5.2-0.48-5.2-1.96v-8.6h5.4c2 0 2.52 0.4 2.68 3.12h2.12v-8.6h-2.12c-0.16 2.72-0.68 3.12-2.68 3.12h-5.4v-10.2h4.6c5 0 5.72 0.4 5.88 4.24h2.28v-6.72h-21.52v1.92c3.52 0.12 4.04 0.64 4.12 1.64s0.08 2 0.08 3.8v13.4c0 1.8 0 2.8-0.08 3.8s-0.72 1.52-3.72 1.64z"/>
  <path d="m126.09 74.752h21.52v-6.84h-2.24c-0.24 3.64-1.08 4.32-5.92 4.32-4.28 0-5-0.48-5-1.92v-16.32c0-1.8 0-2.8 0.08-3.8s0.68-1.52 3.72-1.64v-1.92h-12.16v1.92c3 0.12 3.64 0.64 3.72 1.64s0.08 2 0.08 3.8v13.4c0 1.8 0 2.8-0.08 3.8s-0.72 1.52-3.72 1.64z"/>
  <path d="m162.4 74.752h10.08v-1.92c-2.56-0.04-3.32-0.44-3.32-1.4 0-0.28 0.08-0.68 0.68-2.8l1.04-3.56h9.48l1.28 3.68c0.68 1.92 0.76 2.36 0.76 2.72 0 0.8-0.64 1.32-3.04 1.36v1.92h11.28v-1.92c-2.28-0.04-2.76-0.56-3.68-3.12l-8.52-23.08h-4.8l-7.6 23.48c-0.56 1.8-1.12 2.68-3.64 2.72zm9.2-12.24 3.6-12.12 4.28 12.12z"/>
  <path d="m206.54 74.752h10.84v-1.92c-3.36-0.12-3.96-0.64-4.04-1.64s-0.08-2-0.08-3.8v-15.24l16.52 22.6h3.56v-20.76c0-1.8 0-2.8 0.08-3.8s0.68-1.52 3.72-1.64v-1.92h-10.6v1.92c3.08 0.12 3.72 0.64 3.8 1.64s0.08 2 0.08 3.8v13.72l-15.44-21.08h-8.84v1.92c3.4 0.12 4.04 0.64 4.12 1.64s0.08 2 0.08 3.8v13.4c0 1.8 0 2.8-0.08 3.8s-0.72 1.52-3.72 1.64z"/>
  <path d="m281.4 60.112c0-10.56-6.6-13.48-15.32-13.48h-12.68v1.92c3.48 0.12 4.04 0.64 4.12 1.64s0.08 2 0.08 3.8v13.4c0 1.8 0 2.8-0.08 3.8s-0.72 1.52-3.72 1.64v1.92h12.4c8.36 0 15.2-4.92 15.2-14.64zm-4.92 0.96c0 7.24-3.96 10.88-9.64 10.88-1.76 0-3.04-0.16-4.72-0.52v-21.8c0.64-0.08 1.96-0.2 3.24-0.2 7.08 0 11.12 3.24 11.12 11.64z"/>
 </g>
</svg>
