<svg width="40.83pt" height="30.4pt" version="1.1" viewBox="0 0 40.83 30.4" xmlns="http://www.w3.org/2000/svg">
 <g transform="matrix(.12661 0 0 .12661 -31.06 15.174)" fill="#df7a5d">
  <path d="m445.5 12.43v-5.9096h18.24v5.9096z" fill="#df7a5d"/>
 </g>
 <path d="m12.649 16.223 2.3208 4e-3 4e-3 4.4909c1.256-1.8574 4.1503-2.1372 5.8229-0.69763 1.0446 0.8445 1.608 2.184 1.6257 3.5135 0 2.1828-4e-3 4.3744 1e-3 6.5572h-2.3524c3e-3 -2.0562 0-4.1199 3e-3 -6.1773 0.0101-0.89768-0.40642-1.8966-1.2876-2.2474-0.98251-0.39376-2.2322-0.30893-3.0336 0.43175-0.5305 0.49125-0.78246 1.2281-0.77993 1.9397l1e-3 6.0532h-2.3309z" fill="#fff"/>
 <path d="m30.642 16.223 2.3208 5e-3c0.0139 3.3185-1e-3 6.6382 9e-3 9.958 0.0152 0.52924 0.16586 1.1104 0.60774 1.4459 0.49505 0.35957 1.0559 0.6128 1.57 0.94325l-0.98504 1.7738c-0.38996-0.0329-0.71155-0.27601-1.0521-0.44314-0.85589-0.4596-1.7333-1.0408-2.1499-1.9562-0.28994-0.58621-0.32919-1.2522-0.32539-1.8954 5e-3 -3.278-5e-3 -6.5547 5e-3 -9.8314z" fill="#fff"/>
 <path d="m36.369 16.222h2.3069c4e-3 3.2387 0 6.4787 3e-3 9.7187 0.0329 0.59507 0.11395 1.2788 0.61787 1.6738 0.47859 0.35198 1.0129 0.6204 1.5333 0.90274l-0.96098 1.8663c-0.81917-0.31273-1.5928-0.75967-2.2841-1.299-0.79385-0.62546-1.2155-1.6346-1.2117-2.6348-8e-3 -3.4096-3e-3 -6.818-4e-3 -10.228z" fill="#fff"/>
 <path d="m25.346 17.898h2.3094v0.76737h-2.3094z" fill="#fff"/>
 <path d="m2.1076 20.354c1.2028-0.97238 2.7968-1.3434 4.32-1.2269 1.7548 0.0734 3.3324 1.137 4.2921 2.5728l-2.0283 1.2218c-0.40389-0.56849-0.89514-1.1066-1.5535-1.3763-1.3206-0.54949-2.9741-0.1418-3.8794 0.96858-1.1116 1.299-1.0509 3.4248 0.15194 4.6454 1.0952 1.1864 3.1172 1.418 4.3985 0.40262 0.35325-0.26335 0.62293-0.6166 0.87362-0.97364l2.0384 1.2205c-0.96605 1.4902-2.6538 2.4677-4.4251 2.5778-1.399 0.0861-2.8602-0.24815-3.9996-1.0888-1.351-0.97365-2.2081-2.5842-2.2866-4.244-0.10762-1.7814 0.6913-3.597 2.098-4.6998z" fill="#fff"/>
 <path d="m25.346 19.393h2.3094l6e-3 10.697h-2.317z" fill="#fff"/>
 <g transform="matrix(.12661 0 0 .12661 -31.06 15.174)" fill="#efc0a6">
  <path d="m445.5 14.19h18.24v5.7392h-18.24z" fill="#efc0a6"/>
 </g>
 <g transform="matrix(1.2549 0 0 1.2549 347 -481.63)" fill="#e51937">
  <g class="st0" display="none">
   <path class="st4" d="m-254.5 392.1c-1.1 0-2.1-0.8-2.2-1.9h2.1c0.2 0 0.7 0.1 0.7 0.1v-0.9h-2.9c0.2-1.1 1.1-1.9 2.2-1.9 0.6 0 1.3 0.3 1.3 0.3v-1s-0.5-0.2-1.3-0.2c-1.9 0-3.5 1.4-3.5 3.2 0 2 1.6 3.3 3.5 3.3 0.9 0 1.4-0.2 1.4-0.2v-1c0.1-0.1-0.5 0.2-1.3 0.2" display="inline"/>
   <path class="st4" d="m-260.8 393s0.1-0.5 0.1-0.9v-4.5h-1.8v-1h5v1h-2v4.5c0 0.4 0.1 0.9 0.1 0.9h-1.4z" display="inline"/>
   <path class="st4" d="m-253.1 386.1c-0.4-0.1-0.8-0.2-1.2-0.2-1.1 0-2 0.3-2.8 1v-0.8c0.8-0.6 1.8-0.8 2.8-0.8 0.5 0 0.8 0.1 1.3 0.2l-0.1 0.6z" display="inline"/>
   <path class="st4" d="m-263.1 392.1-1.7-1.7c1.1-0.1 2-0.9 2-1.9 0-1.1-0.6-2-2.5-2.1h-0.2c-1.3 0-2.2 0.1-2.2 0.1s0.1 0.6 0.1 0.9v4.7c0 0.4-0.1 0.9-0.1 0.9h1.3s-0.1-0.4-0.1-1v-1.9l1.2 1.3 0.6 0.6c0.4 0.4 1 0.9 1 0.9h1.7c0.1 0.1-0.7-0.4-1.1-0.8m-2.5-2.4h-0.9v-2.3h1.2c0.9 0.1 1.2 0.5 1.2 1.1s-0.5 1.1-1.2 1.2h-0.3" display="inline"/>
  </g>
  <g class="st0" display="none">
   <path class="st4" d="m-279.1 399.1h0.3c1.2 0 2.2 0.1 2.2 1.6 0 1.4-1.1 1.6-2.2 1.6h-0.3v-3.2zm0 4.1h0.2l2.7 3.9h1.2l-2.8-4c1.3-0.1 2.2-1.1 2.2-2.4 0-2-1.5-2.4-3.2-2.4h-1.3v8.8h1v-3.9z" display="inline"/>
   <path class="st4" d="m-264.6 406.1v-7h0.7c1 0 1.9 0.1 2.7 0.9 0.8 0.7 1.1 1.6 1.1 2.6s-0.4 1.9-1.1 2.6c-0.8 0.8-1.7 0.9-2.8 0.9h-0.6zm-1 0.9h1.6c1.4 0 2.4-0.2 3.5-1.1 1-0.9 1.4-2 1.4-3.3s-0.5-2.5-1.5-3.4-2.1-1.1-3.4-1.1h-1.6v8.9z" display="inline"/>
   <polygon class="st4" points="-256.8 398.2 -256.8 407 -256.8 407 -257.7 407 -257.7 398.2" display="inline"/>
   <path class="st4" d="m-250.9 399c2 0 3.6 1.6 3.6 3.6s-1.6 3.6-3.6 3.6-3.6-1.7-3.6-3.6c0-2 1.6-3.6 3.6-3.6zm0-0.9c-2.5 0-4.6 2-4.6 4.6 0 2.5 2.1 4.5 4.6 4.5s4.6-2 4.6-4.5c0-2.6-2.1-4.6-4.6-4.6z" display="inline"/>
   <polygon class="st4" points="-241.4 407 -241.4 399.2 -242.9 399.2 -242.9 399.2 -242.4 398.2 -240.5 398.2 -240.5 407" display="inline"/>
   <path class="st4" d="m-270.3 398.2h-0.4l-3.9 8.8h1.1l1.1-2.5h3.7l1 2.5h1.1l-3.7-8.8zm-1.7 5.4 1.5-3.5 1.5 3.5h-3z" display="inline"/>
  </g>
  <path class="st3" d="m-252.4 392.6c-1.5 0-2.7-1.1-3-2.6h2.8c0.3 0 1 0.1 1 0.1v-1.2h-3.8c0.3-1.5 1.5-2.5 3-2.5 0.8 0 1.7 0.4 1.7 0.4v-1.3s-0.7-0.3-1.7-0.3c-2.5 0-4.6 1.9-4.6 4.3 0 2.6 2.2 4.4 4.6 4.4 1.2 0 1.9-0.3 1.9-0.3v-1.4c-0.1 0-0.9 0.4-1.9 0.4"/>
  <path class="st3" d="m-260.8 393.9s0.1-0.6 0.1-1.2v-6h-0.4c-0.6 0-1.4 0-2 0.1l-0.1-1.4h6.6v1.4c-0.7-0.1-1.5-0.1-2.1-0.1h-0.5v6c0 0.6 0.1 1.2 0.1 1.2h-1.7z"/>
  <path class="st3" d="m-250.6 384.7c-0.5-0.1-1.1-0.2-1.6-0.2-1.4 0-2.7 0.4-3.7 1.4v-1c1.1-0.7 2.3-1.1 3.7-1.1 0.6 0 1.1 0.1 1.7 0.2l-0.1 0.7z"/>
  <path class="st3" d="m-267.1 389.5h-1.2v-3.1h1.6c1.1 0.1 1.6 0.7 1.6 1.5s-0.7 1.5-1.6 1.6h-0.4m3.3 3.2-2.3-2.2c1.4-0.1 2.6-1.2 2.6-2.5 0-1.4-0.8-2.7-3.3-2.8h-0.3c-1.7 0-2.9 0.1-2.9 0.1s0.1 0.8 0.1 1.3v6.2c0 0.6-0.1 1.2-0.1 1.2h1.7s-0.1-0.6-0.1-1.3v-2.5l1.6 1.7 0.8 0.8c0.5 0.5 1.4 1.3 1.4 1.3h2.3c0-0.1-1-0.8-1.5-1.3"/>
 </g>
</svg>
