<svg width="7.366mm" height="7.5071mm" version="1.1" viewBox="0 0 7.366 7.5071" xmlns="http://www.w3.org/2000/svg">
 <g transform="translate(20.692 -145.08)">
  <g transform="matrix(.28222 0 0 .28222 56.411 36.763)" fill="#fff">
   <g fill="#fff">
    <polygon class="st3" points="-259 403.8 -257.8 403.8 -257.8 401.5 -255.2 401.5 -255.2 400.3 -257.8 400.3 -257.8 399 -254.9 399 -254.9 397.8 -259 397.8"/>
    <polygon class="st3" points="-248.4 403.8 -247.1 403.8 -247.1 397.8 -248.9 397.8 -250.5 401.2 -252.1 397.8 -253.9 397.8 -253.9 403.8 -252.6 403.8 -252.6 399.8 -250.8 403.3 -250.1 403.3 -248.4 399.8"/>
    <polygon class="st3" points="-262.2 407.4 -260.9 408.7 -267.7 408.7 -266.2 407.4"/>
    <polygon class="st3" points="-259 410.4 -269.8 410.4 -268.3 409.1 -260.3 409.1"/>
    <path class="st3" d="m-261.2 400.9c0 1.7-1.7 3.2-2.7 4s-6.6 5.4-6.6 5.4l-1.2-1.1 5-4.1s2.2-1.6 3.4-3.3 0.7-2.9 0.7-3.1c0.1-0.1 1.4 0.9 1.4 2.2z"/>
    <path class="st3" d="m-272 408.8-1.2-1.1 5.6-4.5s2.2-1.6 3.1-3.5c0.3-0.7 0.4-1.2 0.4-1.5 0-0.5-0.1-0.8-0.1-0.8s1.3 0.8 1.2 2.2c-0.1 1.5-1.6 3.1-2.3 3.7s-1.9 1.6-2.1 1.8-4.6 3.7-4.6 3.7z"/>
    <path class="st3" d="m-268.7 401.2-1.2-1.1s1-1.9 2.5-2.6 2.6-0.4 2.7-0.3c0 0 0.2 0.4 0.2 0.8 0 0-1 0-2.3 0.9-0.4 0.3-0.7 0.6-1 1-0.5 0.5-0.8 1.2-0.9 1.3z"/>
    <path class="st3" d="m-270.2 399.7-1.2-1.1s0.8-1.7 2.2-2.5c1.4-0.7 3.2-0.6 4.2 0.4 0 0-1.5-0.2-2.9 0.7-0.6 0.3-1 0.8-1.4 1.2-0.6 0.7-0.9 1.3-0.9 1.3z"/>
   </g>
  </g>
  <g transform="matrix(.28222 0 0 .28222 56.411 36.763)" fill="#f05a28">
   <g class="st0" display="none">
    <path class="st4" d="m-254.5 392.1c-1.1 0-2.1-0.8-2.2-1.9h2.1c0.2 0 0.7 0.1 0.7 0.1v-0.9h-2.9c0.2-1.1 1.1-1.9 2.2-1.9 0.6 0 1.3 0.3 1.3 0.3v-1s-0.5-0.2-1.3-0.2c-1.9 0-3.5 1.4-3.5 3.2 0 2 1.6 3.3 3.5 3.3 0.9 0 1.4-0.2 1.4-0.2v-1c0.1-0.1-0.5 0.2-1.3 0.2" display="inline"/>
    <path class="st4" d="m-260.8 393s0.1-0.5 0.1-0.9v-4.5h-1.8v-1h5v1h-2v4.5c0 0.4 0.1 0.9 0.1 0.9z" display="inline"/>
    <path class="st4" d="m-253.1 386.1c-0.4-0.1-0.8-0.2-1.2-0.2-1.1 0-2 0.3-2.8 1v-0.8c0.8-0.6 1.8-0.8 2.8-0.8 0.5 0 0.8 0.1 1.3 0.2z" display="inline"/>
    <path class="st4" d="m-263.1 392.1-1.7-1.7c1.1-0.1 2-0.9 2-1.9 0-1.1-0.6-2-2.5-2.1h-0.2c-1.3 0-2.2 0.1-2.2 0.1s0.1 0.6 0.1 0.9v4.7c0 0.4-0.1 0.9-0.1 0.9h1.3s-0.1-0.4-0.1-1v-1.9l1.2 1.3 0.6 0.6c0.4 0.4 1 0.9 1 0.9h1.7c0.1 0.1-0.7-0.4-1.1-0.8m-2.5-2.4h-0.9v-2.3h1.2c0.9 0.1 1.2 0.5 1.2 1.1s-0.5 1.1-1.2 1.2h-0.3" display="inline"/>
   </g>
   <g class="st0" display="none">
    <path class="st4" d="m-279.1 399.1h0.3c1.2 0 2.2 0.1 2.2 1.6 0 1.4-1.1 1.6-2.2 1.6h-0.3zm0 4.1h0.2l2.7 3.9h1.2l-2.8-4c1.3-0.1 2.2-1.1 2.2-2.4 0-2-1.5-2.4-3.2-2.4h-1.3v8.8h1z" display="inline"/>
    <path class="st4" d="m-264.6 406.1v-7h0.7c1 0 1.9 0.1 2.7 0.9 0.8 0.7 1.1 1.6 1.1 2.6s-0.4 1.9-1.1 2.6c-0.8 0.8-1.7 0.9-2.8 0.9zm-1 0.9h1.6c1.4 0 2.4-0.2 3.5-1.1 1-0.9 1.4-2 1.4-3.3s-0.5-2.5-1.5-3.4-2.1-1.1-3.4-1.1h-1.6z" display="inline"/>
    <polygon class="st4" points="-257.7 407 -257.7 398.2 -256.8 398.2 -256.8 407" display="inline"/>
    <path class="st4" d="m-250.9 399c2 0 3.6 1.6 3.6 3.6s-1.6 3.6-3.6 3.6-3.6-1.7-3.6-3.6c0-2 1.6-3.6 3.6-3.6zm0-0.9c-2.5 0-4.6 2-4.6 4.6 0 2.5 2.1 4.5 4.6 4.5s4.6-2 4.6-4.5c0-2.6-2.1-4.6-4.6-4.6z" display="inline"/>
    <polygon class="st4" points="-240.5 407 -241.4 407 -241.4 399.2 -242.9 399.2 -242.4 398.2 -240.5 398.2" display="inline"/>
    <path class="st4" d="m-270.3 398.2h-0.4l-3.9 8.8h1.1l1.1-2.5h3.7l1 2.5h1.1zm-1.7 5.4 1.5-3.5 1.5 3.5z" display="inline"/>
   </g>
   <path class="st3" d="m-252.4 392.6c-1.5 0-2.7-1.1-3-2.6h2.8c0.3 0 1 0.1 1 0.1v-1.2h-3.8c0.3-1.5 1.5-2.5 3-2.5 0.8 0 1.7 0.4 1.7 0.4v-1.3s-0.7-0.3-1.7-0.3c-2.5 0-4.6 1.9-4.6 4.3 0 2.6 2.2 4.4 4.6 4.4 1.2 0 1.9-0.3 1.9-0.3v-1.4c-0.1 0-0.9 0.4-1.9 0.4"/>
   <path class="st3" d="m-260.8 393.9s0.1-0.6 0.1-1.2v-6h-0.4c-0.6 0-1.4 0-2 0.1l-0.1-1.4h6.6v1.4c-0.7-0.1-1.5-0.1-2.1-0.1h-0.5v6c0 0.6 0.1 1.2 0.1 1.2z"/>
   <path class="st3" d="m-250.6 384.7c-0.5-0.1-1.1-0.2-1.6-0.2-1.4 0-2.7 0.4-3.7 1.4v-1c1.1-0.7 2.3-1.1 3.7-1.1 0.6 0 1.1 0.1 1.7 0.2z"/>
   <path class="st3" d="m-267.1 389.5h-1.2v-3.1h1.6c1.1 0.1 1.6 0.7 1.6 1.5s-0.7 1.5-1.6 1.6h-0.4m3.3 3.2-2.3-2.2c1.4-0.1 2.6-1.2 2.6-2.5 0-1.4-0.8-2.7-3.3-2.8h-0.3c-1.7 0-2.9 0.1-2.9 0.1s0.1 0.8 0.1 1.3v6.2c0 0.6-0.1 1.2-0.1 1.2h1.7s-0.1-0.6-0.1-1.3v-2.5l1.6 1.7 0.8 0.8c0.5 0.5 1.4 1.3 1.4 1.3h2.3c0-0.1-1-0.8-1.5-1.3"/>
  </g>
 </g>
</svg>
