<svg enable-background="new 0 0 45 45" version="1.1" viewBox="0 0 32.9 22.701" xml:space="preserve" xmlns="http://www.w3.org/2000/svg"><g transform="translate(276.3 -383.8)" display="none"><circle cx="-260.5" cy="396.5" r="22.5" display="inline" fill="#48a0d2"/></g><g transform="translate(276.3 -383.8)" display="none"><g display="inline" fill="#fff"><path d="m-274.5 402h0.2l2.2 3.1h1l-2.2-3.199c1.1-0.101 1.7-0.801 1.7-1.9 0-1.6-1.2-1.9-2.6-1.9h-1.1v7.101h0.7l0.1-3.202zm0-3.3h0.2c0.9 0 1.8 0.1 1.8 1.2s-0.9 1.199-1.7 1.199h-0.3v-2.399z"/><path d="m-263.7 405.1h1.3c1.1 0 1.9-0.199 2.8-0.899 0.7-0.7 1.2-1.601 1.2-2.7s-0.3-2-1.2-2.7c-0.8-0.7-1.7-0.8-2.7-0.8h-1.3l-0.1 7.099zm0.8-0.8v-5.6h0.5c0.8 0 1.6 0.1 2.2 0.7 0.6 0.5 0.9 1.3 0.9 2.199 0 0.7-0.3 1.5-0.9 2.101-0.7 0.6-1.3 0.7-2.2 0.7l-0.5-0.1z"/><rect x="-257.4" y="398" width=".7" height="7.1"/><path d="m-251.8 397.9c-2 0-3.7 1.699-3.7 3.699s1.7 3.7 3.7 3.7 3.7-1.6 3.7-3.7c-0.1-2.099-1.7-3.699-3.7-3.699m0 0.7c1.6 0 2.9 1.301 2.9 2.9s-1.2 2.9-2.9 2.9c-1.6 0-2.9-1.301-2.9-2.9s1.2-2.9 2.9-2.9"/><polygon points="-245 398 -245.4 398.7 -244.2 398.7 -244.2 405.1 -243.4 405.1 -243.4 398"/><path d="m-267.6 399.5 1.2 2.8h-2.4l1.2-2.8zm-0.2-1.5-3.1 7.1h0.8l0.8-2h3l0.8 2h0.8l-3-7.1h-0.1z"/></g></g><g transform="translate(276.3 -383.8)" fill="#fff"><path d="m-274.2 403.7c0 0.1 0.1 0.2 0.1 0.5v1.399l-0.9-1.1-0.3-0.4-0.2-0.3c-0.1-0.1-0.1-0.1-0.2-0.1h-0.6l0.1 0.1c0.1 0.101 0.1 0.3 0.1 0.5v0.9c0 0.399 0 0.8-0.1 1.2v0.1h0.7v-0.1c-0.1-0.301-0.1-0.601-0.1-0.9v-1.1c0.1 0.1 1.5 2.1 1.5 2.1h0.4v-2.099c0-0.2 0-0.4 0.1-0.601l0.1-0.1h-0.7zm1.8 1.2c0.1-0.101 0.3-0.801 0.3-0.801s0.2 0.601 0.3 0.801zm0.8-1-0.1-0.301h-0.6v0.2c0 0.3-0.9 2-1.1 2.3l-0.2 0.2h0.7v-0.2c0-0.199 0.2-0.6 0.4-0.899h0.9c0 0.1 0.5 1.1 0.5 1.1h0.6l-0.1-0.2c-0.5-0.7-0.7-1.4-1-2.2m14.1 0.1c0.3 0 0.5-0.1 0.6-0.2v-0.1h-2.3l-0.2 0.5 0.2-0.101c0.1-0.1 0.2-0.1 0.3-0.1h0.5v1.8c0 0.2 0 0.399-0.1 0.5l-0.1 0.101h0.8l-0.1-0.101c-0.1-0.101-0.1-0.3-0.1-0.5v-1.799zm8.5-0.3-0.8-0.101 0.1 0.101c0.1 0.1 0.1 0.3 0.1 0.5v0.5h-1.1v-0.5c0-0.2 0-0.4 0.1-0.5l0.1-0.101h-0.8l0.1 0.101c0.1 0.1 0.1 0.3 0.1 0.5v1.5c0 0.2 0 0.399-0.1 0.5l-0.1 0.1h0.8l-0.1-0.1c-0.1-0.101-0.1-0.3-0.1-0.5v-0.7h1.1v0.7c0 0.2 0 0.3-0.1 0.5l-0.1 0.1h0.8l-0.1-0.1c-0.1-0.101-0.1-0.3-0.1-0.5v-1.5c0.1-0.2 0.1-0.3 0.2-0.5m2.2 0.3c0.3 0 0.5-0.1 0.6-0.2v-0.1h-2.3l-0.2 0.5 0.2-0.101c0.1-0.1 0.2-0.1 0.3-0.1h0.5v1.8c0 0.2 0 0.399-0.1 0.5l-0.1 0.101h0.8l-0.1-0.101c-0.1-0.101-0.1-0.3-0.1-0.5v-1.799zm-5.8 2c-0.3 0-0.6-0.1-0.7-0.3-0.2-0.2-0.2-0.4-0.2-0.8 0-0.2 0.1-1 0.9-1 0.4 0 0.5 0.199 0.6 0.3l0.1 0.2v-0.8h-0.7c-0.9 0-1.5 0.601-1.5 1.5 0 0.4 0.1 0.801 0.4 1 0.2 0.2 0.6 0.4 0.9 0.4 0.7 0 1-0.4 1-0.6v-0.2l-0.1 0.1c-0.1 0-0.3 0.2-0.7 0.2m7.2-1.1c0.1-0.101 0.3-0.801 0.3-0.801s0.2 0.601 0.3 0.801zm0.9-0.9-0.1-0.3h-0.6v0.2c0 0.3-0.9 2-1.1 2.3l-0.2 0.2h0.7v-0.2c0-0.2 0.2-0.7 0.4-0.9h0.9c0 0.101 0.5 1.101 0.5 1.101h0.6l-0.1-0.2c-0.5-0.801-0.8-1.501-1-2.201m-17.7 2.1h-0.4v-1c0.3 0 0.8 0 1-0.3l0.1-0.1h-1v-0.8h0.3c0.2 0 0.4 0 0.6 0.1l0.1 0.1v-0.5h-1.7l0.1 0.101c0.1 0.101 0.1 0.3 0.1 0.5v1.5c0 0.2 0 0.399-0.1 0.5l-0.1 0.101h1.8l0.1-0.601-0.1 0.101c-0.3 0.198-0.6 0.298-0.8 0.298m-3.2-1.2c0.1-0.101 0.3-0.801 0.3-0.801s0.2 0.601 0.3 0.801zm0.9-0.9-0.1-0.3h-0.6v0.2c0 0.3-0.9 2-1.1 2.3l-0.2 0.2h0.7v-0.2c0-0.2 0.2-0.601 0.4-0.9h0.9c0 0.101 0.5 1.101 0.5 1.101h0.6l-0.1-0.2c-0.5-0.801-0.8-1.501-1-2.201m4.4 2.1h-0.3v-1.8c0-0.2 0-0.399 0.1-0.5l0.1-0.1h-0.8l0.1 0.1c0.1 0.101 0.1 0.3 0.1 0.5v1.101c0 0.3 0 0.8-0.1 0.899l-0.1 0.101h1.6l0.1-0.601-0.2 0.101c-0.1 0.099-0.3 0.199-0.6 0.199m-7.2-1.1c0.1 0.1 0.1 0.3 0.1 0.5v0.599h-0.3c-0.9 0-1.1-0.6-1.1-1.199 0-0.5 0.3-1.101 1-1.101 0.3 0 0.5 0.101 0.8 0.3l0.1 0.101v-0.6h-0.7c-1.1 0-1.8 0.601-1.8 1.5 0 0.9 0.5 1.4 1.6 1.4 0.3 0 0.7 0 0.9-0.1h0.1v-0.8c0-0.199 0-0.399 0.1-0.5l0.1-0.1h-0.8zm11.3-0.1c0.1-0.101 0.3-0.801 0.3-0.801s0.2 0.601 0.3 0.801zm0.8-0.9-0.1-0.3h-0.6v0.2c0 0.3-0.9 2-1.1 2.3l-0.2 0.2h0.7v-0.2c0-0.2 0.2-0.601 0.4-0.9h0.9c0 0.101 0.5 1.101 0.5 1.101h0.6l-0.1-0.2c-0.5-0.801-0.8-1.501-1-2.201m10-4.4v0.101c0.1-1e-3 0-0.101 0-0.101m0.5-1.8v-0.1c-0.1 0-0.1 0 0 0.1-0.1 0-0.1 0 0 0-0.1 0-0.1 0 0 0m1.1 1.6v0.1h0.2c-0.1 0-0.2-0.1-0.2-0.1m-2.4-1.5m-3.9 1.9v0.2-0.2m-0.3 0.2v0.3s0.3 0.5 0.4 0.5c0 0.101-0.1-0.1-0.1-0.1 0.1 0 0.4 0.6 0.6 0.7 0.3 0.199 0.7 0.699 1.1 0.8 0.2 0 0.2 0.399 0.4 0.399h-0.1 0.8v-0.1h-0.1 0.3c0.3 0 0.1 0.1 0.3 0.1 0.4 0 0.8 0 1-0.199 0.2-0.101 0.2-0.301 0.4-0.4 0 0.1 0 0 0.1 0s0.2-0.1 0.3-0.2c0-0.101 0.2-0.101 0.2-0.101 0.1-0.1 0.2-0.1 0.2-0.1 0-0.3 0.2-0.3 0.3-0.6h0.2c0-0.1 0-0.2-0.1-0.301 0 0 0.1 0 0.1-0.1v-0.699h-0.1l0.3-0.101h-0.1s-0.1-0.3-0.1-0.399c-0.1 0-0.1 0-0.1-0.101v-0.3c-0.1-0.301-0.3-0.5-0.4-0.801 0-0.1 0-0.299-0.1-0.399l-0.1-0.101c-0.2-0.199-0.1-0.299-0.4-0.299 0 0 0.2 0.199 0.2 0.299 0.1 0 0 0.101 0 0.101 0.1 0 0.1 0.101 0.1 0.101h-0.1c0-0.101-0.3-0.5-0.4-0.601s-0.1-0.2-0.2-0.3c0-0.1-0.1 0-0.1-0.1 0-0.101 0-0.101-0.1-0.201v-0.1l-0.1 0.1c-0.1 0-0.4-0.199-0.5-0.199s-0.3-0.1-0.4 0c-0.4 0-0.6 0-0.9 0.199-0.1 0.101-0.1 0.101-0.1 0.201 0 0.299 0.8 0.199 1.1 0.199v0.6c0.1 0 0.1 0 0.2 0.101v-0.101l0.1 0.101v-0.101h0.1c0.2 0 0.2 0.301 0.1 0.301v0.3h0.1v-0.101c0-0.299 0.2-0.299 0.4-0.299 0 0.1 0.1 0.199 0.1 0.199 0 0.1 0 0.1 0.1 0.2 0 0.101 0.1 0.2 0.1 0.2s0 0.1 0.1 0.1c0 0 0.1 0.5 0 0.601v0.201c0 0.199 0 0.5-0.1 0.6 0 0 0-0.1-0.1-0.1-0.1 0.1-0.2 0.199-0.2 0.3-0.1 0.2-0.3 0.3-0.4 0.5l-0.3 0.3c0.2 0 0.7-0.6 0.8-0.8 0 0.2-0.4 0.6-0.4 0.7h-0.3v0.1c0 0.1-0.3 0.2-0.4 0.2-0.1 0.1-0.2 0.1-0.3 0.1s-0.2 0.101-0.4 0.101c-0.1 0-0.1 0.1-0.1 0.199h-0.1c-0.2 0-0.5 0.101-0.7 0-0.1 0-0.3-0.1-0.3 0-0.2 0-0.2-0.5-0.3-0.5v0.201h-0.1v0.1c0.1 0 0.1 0.1 0.2 0.1-0.1 0-0.5-0.1-0.6-0.199-0.2-0.201-0.3-0.5-0.5-0.601-0.2-0.3-0.3-0.5-0.4-0.8v0.1c0.1 0.1 0.1 0.2 0.1 0.301 0 0.1 0.1 0.199 0.1 0.299 0.1 0.201 0.4 0.5 0.6 0.601v0.101-0.101c-0.1-0.101-0.1-0.2-0.2-0.2-0.3-0.3-0.5-0.6-0.6-1-0.1-0.2 0-0.5-0.1-0.6-0.1-0.2 0-0.601-0.1-0.801-0.1-0.1 0-0.199 0-0.399-0.1 0 0 0.5 0 0.5h-0.1v-0.101h-0.1v0.101c0 0.399-0.1 0.601-0.1 1 0.3 0.099 0.4 0.199 0.4 0.299m5 2.4c-0.1 0 0 0 0 0m-0.2 0.3c0-0.101 0.1-0.2 0.2-0.2v-0.1h-0.1l-0.1 0.1v0.2m-22.1-5s0.1-0.2 0.2-0.2 0.2 0.2 0.2 0.2l0.7 2h-1.9zm-1.1 2.4h2.2l1.1 2.601h1.1l-0.2-0.3c-1-1.7-1.6-3.801-2.3-5.7h-1.2v0.3c0 0.8-2.1 4.8-2.6 5.5l-0.2 0.3h1.2v-0.399c0.1-0.602 0.5-1.502 0.9-2.302m-6.4-3.2h0.5c0.9 0 1.5 0.1 1.5 1.1 0 0.9-0.5 1.4-1.5 1.4h-0.5zm0.2 5.8c-0.2-0.3-0.2-0.8-0.2-1.2v-1.7c0.6 0 0.6 0.2 1.1 0.8l1.2 1.601c0.2 0.3 0.4 0.5 0.8 0.5h0.8c-0.4-0.4-0.5-0.5-0.8-0.9l-1.7-2.3c0.7-0.3 1.5-0.8 1.5-1.7 0-0.7-0.5-1.3-1.5-1.3-0.8 0-1.6 0.1-2.4 0.1 0.2 0.301 0.2 0.801 0.2 1.2v3.5c0 0.4 0 0.9-0.3 1.3h1.3zm23.3-6h-1.3c0.2 0.3 0.2 0.8 0.2 1.2v3.5c0 0.399 0 0.899-0.2 1.199h1.3c-0.2-0.299-0.2-0.799-0.2-1.199v-3.5c0-0.4 0-0.9 0.2-1.2m-11.5 6h1.3c-0.2-0.3-0.2-0.8-0.2-1.2v-3.5c0-0.4 0-0.9 0.2-1.2h-1.3c0.2 0.3 0.2 0.8 0.2 1.2v3.5c0 0.4 0 0.9-0.2 1.2m17.2-1.6m-13.1-4c0.2 0 0.7-0.1 1-0.1 1.8 0 2.7 1 2.7 2.7 0 1.5-0.6 2.7-2.4 2.7-1.1 0-1.3 0-1.3-0.7zm-1 5.6h2.4c1.9 0 3.4-1.2 3.4-3.3 0-1.7-1.1-2.9-2.8-2.9-1 0-2 0.1-3 0.1 0.2 0.301 0.2 0.801 0.2 1.201v3.5c0 0.599 0 1.099-0.2 1.399m14.1-1.6c0-0.1 0.1-0.1 0 0 0.1-0.1 0-0.1 0 0m-1.3-6.7m-0.8 1h0.2v-0.101h0.1c0.1 0 0.1 0 0.2 0.101v0.1-0.3h0.1c0-0.101 0.1-0.101 0.2-0.101h0.2v-0.1c0.1 0 0.2 0.1 0.3 0.2h0.4c0.2 0.1 0.3 0.1 0.5 0.1h0.4v-0.1s0.1 0 0.1-0.101c0.1 0 0.2 0.101 0.3 0.2h0.1s0 0.101 0.1 0.101c0.1 0.1 0.3 0.199 0.5 0.199 0-0.1-0.1-0.1-0.2-0.199 0 0-0.1 0-0.1-0.101 0 0 0-0.1-0.1-0.1-0.1-0.101-0.2-0.101-0.3-0.2 0-0.1-0.2-0.1-0.3-0.1v-0.098h-0.1v-0.1h-0.1c0 0.1 0 0.1-0.1 0.1 0 0 0-0.1-0.1-0.1v0.1c0-0.1 0-0.2 0.1-0.3-0.1 0-0.1-0.1-0.1-0.1h-0.2v0.1-0.1 0.1l-0.1-0.1v0.1h-0.1v-0.1l-0.1-0.101v-0.1h-0.1s-0.1 0-0.1 0.1h-0.1c-0.1 0-0.1 0.101-0.2 0.101v-0.101h-0.1c0 0.101-0.1 0.101-0.1 0.101h-0.3c-0.2 0.1-0.5 0.199-0.6 0.399v0.2c-0.4 0.301-0.3 0.401-0.2 0.401m2.4 1.4m0.7-1.6zm-0.3 2.1m0.2-2.2h0.1c0 0.1-0.1 0-0.1 0-0.1-0.1-0.1-0.1-0.2-0.1 0.1 0.1 0.2 0.1 0.2 0.1 0.1 0.1 0 0.1 0 0m0.8 0.8m-3.2 4.8c0.1 0 0.7-0.101 0.8-0.2 0.2-0.2 0.4-0.7 0.5-1v-0.6c-0.2-0.4-0.7-0.9-1.1-0.601-0.1 0.101-0.2 0.101-0.2 0.2s0.1 0.2 0.1 0.3h-0.1c0 0.101-0.1 0-0.1 0v0.101c-0.1 0-0.1 0.199-0.2 0.199 0.1 0 0.1 0.201 0.1 0.201h0.2c0 0.199-0.2 0.1-0.4 0.1h-0.2c0-0.1-0.3-0.1-0.4-0.1 0-0.101-0.1-0.101-0.1-0.201-0.1-0.199-0.1-0.299-0.1-0.5 0-0.299 0.2-0.5 0.3-0.799 0-0.101 0.1-0.201 0.1-0.4 0.1-0.1 0.2-0.2 0.3-0.301v-0.1c0-0.1-0.1-0.1-0.1-0.1-0.4 0.199-0.5 0.4-0.7 0.8-0.1 0.2-0.2 0.399-0.3 0.601v1.1c0.2 1 1 1.4 1.6 1.3m3.4-4.7c-0.1 0-0.1 0 0 0zm-0.7-0.9s-0.1 0 0 0c-0.1 0-0.1 0 0 0 0 0-0.1 0 0 0m0.4 0.8s-0.1 0 0 0c-0.1 0-0.1 0 0 0m0.5 3.5c0.1 0.1 0.1 0 0 0 0.1 0 0 0 0 0m-5.2 1.9m3.6-1.5s0.1 0.101 0.1 0.2c0.1-0.1 0-0.2-0.1-0.2m0.8 1.9m-4.4-0.5s-0.1 0 0 0m4.2-3.4m-1.3 3.5c-0.1-0.1-0.1-0.1 0 0-0.1-0.1-0.1 0 0 0-0.1 0 0 0 0 0m-3.9-4.1c0.1-0.101 0.2-0.3 0.2-0.5-0.1 0.2-0.2 0.399-0.3 0.6 0.1 0 0.1 0 0.1-0.1m3.7 0.7c0 0.1-0.1 0.1 0 0v0.1h0.1c-0.1 0-0.1 0-0.1-0.1m-1.6 1.7s-0.1 0 0 0c-0.1 0 0 0 0 0m0.5 2h-0.2 0.2m-0.8-0.5c0-0.1-0.1-0.1-0.2-0.1 0.1 0 0.1 0 0.2 0.1" fill="#fff"/></g><g transform="translate(276.3 -383.8)" fill="#5b8523"><g display="none"><path d="m-254.5 392.1c-1.1 0-2.1-0.8-2.2-1.899h2.1c0.2 0 0.7 0.1 0.7 0.1v-0.901h-2.9c0.2-1.101 1.1-1.9 2.2-1.9 0.6 0 1.3 0.3 1.3 0.3v-1s-0.5-0.2-1.3-0.2c-1.9 0-3.5 1.4-3.5 3.2 0 2 1.6 3.3 3.5 3.3 0.9 0 1.4-0.199 1.4-0.199v-1c0.1-0.101-0.5 0.199-1.3 0.199" display="inline"/><path d="m-260.8 393s0.1-0.5 0.1-0.9v-4.5h-1.8v-1h5v1h-2v4.5c0 0.4 0.1 0.9 0.1 0.9h-1.4z" display="inline"/><path d="m-253.1 386.1c-0.4-0.1-0.8-0.199-1.2-0.199-1.1 0-2 0.3-2.8 1v-0.801c0.8-0.6 1.8-0.8 2.8-0.8 0.5 0 0.8 0.101 1.3 0.2l-0.1 0.6z" display="inline"/><path d="m-263.1 392.1-1.7-1.699c1.1-0.101 2-0.9 2-1.9 0-1.1-0.6-2-2.5-2.1h-0.2c-1.3 0-2.2 0.1-2.2 0.1s0.1 0.6 0.1 0.9v4.699c0 0.4-0.1 0.9-0.1 0.9h1.3s-0.1-0.4-0.1-1v-1.9l1.2 1.301 0.6 0.6c0.4 0.4 1 0.9 1 0.9h1.7c0.1 0.099-0.7-0.401-1.1-0.801m-2.5-2.4h-0.9v-2.3h1.2c0.9 0.1 1.2 0.5 1.2 1.1s-0.5 1.1-1.2 1.2h-0.3" display="inline"/></g><g display="none"><path d="m-279.1 399.1h0.3c1.2 0 2.2 0.101 2.2 1.601 0 1.399-1.1 1.6-2.2 1.6h-0.3v-3.201zm0 4.1h0.2l2.7 3.899h1.2l-2.8-4c1.3-0.1 2.2-1.1 2.2-2.399 0-2-1.5-2.4-3.2-2.4h-1.3v8.8h1v-3.9z" display="inline"/><path d="m-264.6 406.1v-7h0.7c1 0 1.9 0.101 2.7 0.9 0.8 0.7 1.1 1.6 1.1 2.6s-0.4 1.9-1.1 2.601c-0.8 0.8-1.7 0.899-2.8 0.899h-0.6zm-1 0.9h1.6c1.4 0 2.4-0.2 3.5-1.1 1-0.9 1.4-2 1.4-3.301 0-1.3-0.5-2.5-1.5-3.399-1-0.9-2.1-1.101-3.4-1.101h-1.6v8.901z" display="inline"/><polygon points="-257.7 398.2 -256.8 398.2 -256.8 407 -257.7 407" display="inline"/><path d="m-250.9 399c2 0 3.6 1.6 3.6 3.6s-1.6 3.601-3.6 3.601-3.6-1.7-3.6-3.601c0-2 1.6-3.6 3.6-3.6zm0-0.9c-2.5 0-4.6 2-4.6 4.601 0 2.5 2.1 4.5 4.6 4.5s4.6-2 4.6-4.5c0-2.601-2.1-4.601-4.6-4.601z" display="inline"/><polygon points="-242.9 399.2 -242.4 398.2 -240.5 398.2 -240.5 407 -241.4 407 -241.4 399.2" display="inline"/><path d="m-270.3 398.2h-0.4l-3.9 8.8h1.1l1.1-2.5h3.7l1 2.5h1.1l-3.7-8.8zm-1.7 5.4 1.5-3.5 1.5 3.5h-3z" display="inline"/></g><path d="m-252.4 392.6c-1.5 0-2.7-1.1-3-2.6h2.8c0.3 0 1 0.1 1 0.1v-1.2h-3.8c0.3-1.5 1.5-2.5 3-2.5 0.8 0 1.7 0.399 1.7 0.399v-1.3s-0.7-0.3-1.7-0.3c-2.5 0-4.6 1.899-4.6 4.3 0 2.6 2.2 4.4 4.6 4.4 1.2 0 1.9-0.301 1.9-0.301v-1.398c-0.1 0-0.9 0.4-1.9 0.4"/><path d="m-260.8 393.9s0.1-0.601 0.1-1.2v-6h-0.4c-0.6 0-1.4 0-2 0.1l-0.1-1.399h6.6v1.399c-0.7-0.1-1.5-0.1-2.1-0.1h-0.5v6c0 0.6 0.1 1.2 0.1 1.2h-1.7z"/><path d="m-250.6 384.7c-0.5-0.101-1.1-0.2-1.6-0.2-1.4 0-2.7 0.4-3.7 1.4v-1c1.1-0.7 2.3-1.101 3.7-1.101 0.6 0 1.1 0.101 1.7 0.2l-0.1 0.701z"/><path d="m-267.1 389.5h-1.2v-3.1h1.6c1.1 0.1 1.6 0.699 1.6 1.5 0 0.8-0.7 1.5-1.6 1.6h-0.4m3.3 3.2-2.3-2.2c1.4-0.1 2.6-1.2 2.6-2.5 0-1.4-0.8-2.7-3.3-2.8h-0.3c-1.7 0-2.9 0.1-2.9 0.1s0.1 0.8 0.1 1.3v6.2c0 0.601-0.1 1.2-0.1 1.2h1.7s-0.1-0.6-0.1-1.3v-2.5l1.6 1.7 0.8 0.8c0.5 0.5 1.4 1.3 1.4 1.3h2.3c0-0.1-1-0.8-1.5-1.3"/></g></svg>
