<svg width="16.785mm" height="10.582mm" data-name="Layer 1" version="1.1" viewBox="0 0 47.58 29.993" xmlns="http://www.w3.org/2000/svg">
 <defs>
  <style>.cls-1{fill:#70ad51;}.cls-2{fill:#fff;}.cls-3{fill:#84b740;}.cls-4{fill:#7ac143;}.cls-5{fill:#c1d82f;}.cls-6{fill:#19398a;}.cls-7{fill:#ef5091;}.cls-8{fill:#9c9fc9;}.cls-9{fill:#cdc928;}.cls-10{fill:#d74b7a;}.cls-11{fill:#00abe4;}.cls-12{fill:#ffce29;}.cls-13{fill:none;stroke:#19398a;stroke-width:0.06px;}</style>
 </defs>
 <path class="cls-1" d="m27.236 26.321a1.67 1.67 0 0 1-1.64 1.69h-17.69a1.67 1.67 0 0 1-1.64-1.69v-3.85a1.67 1.67 0 0 1 1.64-1.74h17.69a1.67 1.67 0 0 1 1.64 1.69v3.86z" fill="#70ad51"/>
 <path class="cls-2" d="m29.19 22.546c0.02783-2.0867-1.6532-3.7946-3.74-3.8h-17.4c-2.0868 0.0054-3.7681 1.7133-3.7403 3.8l2.857e-4 3.7c1.596e-4 2.0672 1.6728 3.7445 3.74 3.75h17.4c2.0672-0.0055 3.74-1.6828 3.74-3.75z" fill="#fff"/>
 <path d="m45.456 11.505c-0.77958-0.77928-1.7702-1.1926-2.865-1.1926h-0.71873c-0.66179 0-1.3041 0.11539-1.9062 0.34228-0.14236-0.20621-0.30512-0.40103-0.48045-0.57846-0.77928-0.77928-1.7701-1.1917-2.8639-1.1917-0.33299 0-0.66808 0.04227-0.99487 0.12558-0.17837-1.3619-0.76603-2.5629-1.7588-3.5742l-0.0082-0.0063c-0.17118-0.17714-0.37326-0.35577-0.59181-0.52991-0.01855-0.22149-0.05155-0.4331-0.10104-0.62372-0.19899-0.74751-0.56174-1.3937-1.0785-1.9227-0.82993-0.84731-1.8948-1.2888-3.0814-1.2732-1.1566 0.0081-2.1661 0.43699-2.9969 1.2783h0.0051c-0.02576 0.01978-0.05066 0.04226-0.07223 0.06384l-0.18344 0.17953-0.55688 0.5443-0.81434 0.79486-0.0063 0.0072-0.02788 0.02996c-0.1948 0.2104-0.36054 0.44449-0.49362 0.69176-1.0176-0.95881-2.2425-1.4474-3.6446-1.4474h-0.20081c-0.35487-0.49814-0.78258-0.93423-1.2858-1.2879-0.92584-0.66388-1.9617-1.002-3.0751-1.002-1.4722 0-2.7476 0.52901-3.7879 1.5732-0.28024 0.27634-0.52361 0.58356-0.73312 0.91655-0.46577-0.12978-0.94412-0.19992-1.4288-0.19992h-1.1557c-2.0825 0-3.891 0.7526-5.3776 2.2413-1.4836 1.4824-2.2389 3.2978-2.2389 5.3938v2.2722c0 1.4857 0.52451 2.7601 1.5526 3.7909 1.031 1.031 2.3079 1.5538 3.7927 1.5538 1.4734 0 2.7404-0.52272 3.7735-1.5538 0.62882-0.62972 1.0691-1.3556 1.3206-2.164 0.3258 0.5413 0.72263 1.0454 1.1878 1.5052 1.4968 1.468 3.3029 2.2125 5.3671 2.2125h1.1524c1.4608 0 2.7332-0.52781 3.7744-1.5711 0.14327-0.14447 0.27724-0.30122 0.40732-0.46397 1.4123 1.3577 3.1216 2.0465 5.0827 2.0402l2.1742-3e-3c0.21341 0 0.4331-0.01978 0.65249-0.04855-0.0061 0.07313-0.0082 0.14536-0.0082 0.2113 0 1.0868 0.40822 2.0693 1.1794 2.8426 0.78042 0.77838 1.767 1.1896 2.8516 1.1896 1.5 0 2.8022-0.5371 3.8673-1.5969l0.0051-0.0072 0.0021-0.0021s0.02026-0.02367 0.03296-0.03417c0.4328 0.15466 0.88747 0.23618 1.3556 0.23618 1.1012 0 2.0909-0.40822 2.865-1.1815 0.57936-0.58236 0.95971-1.3083 1.1105-2.1052 0.37615-0.19062 0.72473-0.43909 1.0248-0.73822 0.77718-0.78018 1.1917-1.7741 1.1917-2.874 0-1.0949-0.41451-2.0858-1.1917-2.8632" fill="#88b94c"/>
 <path d="m44.722 12.236c-0.58866-0.58985-1.3053-0.88987-2.131-0.88987h-0.71873c-0.87099 0-1.6659 0.23528-2.369 0.69086-0.13937-0.45768-0.39174-0.87009-0.7505-1.2301-0.59084-0.58746-1.3063-0.88748-2.1321-0.88748-0.77838 0-1.4588 0.26496-2.0279 0.78347 0.0433-0.26705 0.06392-0.5362 0.06392-0.80326v-0.0111c-3e-3 -1.4486-0.52269-2.7044-1.5351-3.7333h-1e-3c-0.25875-0.27095-0.55252-0.51432-0.86813-0.72563 0.0012-0.01439 0.0085-0.13518 0.0085-0.13518 0-0.26076-0.03296-0.51642-0.095-0.76069-0.15151-0.56617-0.42785-1.0577-0.81869-1.4578-0.63301-0.6495-1.4186-0.9702-2.3246-0.96181h-0.01049c-0.87728 0.0081-1.6422 0.33689-2.2764 0.97919l-1.6083 1.5723-0.01648 0.01557c-0.31531 0.3411-0.51013 0.73703-0.58236 1.1803-0.20921 0.16185-0.41152 0.34018-0.60124 0.52571-0.18643-0.30931-0.40912-0.59884-0.67108-0.8608-0.84132-0.84342-1.8628-1.2681-3.0413-1.2681h-0.76489c-0.31441-0.58656-0.7559-1.0835-1.3197-1.4782-0.74841-0.5392-1.5837-0.81255-2.4763-0.81255-1.1887 0-2.2167 0.4259-3.059 1.2693-0.4298 0.4307-0.7547 0.92674-0.9651 1.4752-0.58656-0.30212-1.2328-0.45378-1.9257-0.45378h-1.1566c-1.7959 0-3.3569 0.6507-4.6457 1.9362-1.2858 1.2837-1.9362 2.8528-1.9362 4.6631v2.2722c0 1.2001 0.42261 2.2299 1.2528 3.0599 0.82723 0.82993 1.8583 1.2495 3.0578 1.2495 1.1887 0 2.2125-0.41961 3.0404-1.2495 0.84132-0.84132 1.2699-1.8721 1.2699-3.0599v-0.34228c0.33299-0.06504 0.6528-0.16994 0.95372-0.31141 0.27724 1.1515 0.8608 2.1784 1.7435 3.0506 1.2978 1.2681 2.8587 1.9125 4.6433 1.9125h1.1515c1.1776 0 2.2024-0.4256 3.0434-1.2681 0.44239-0.44119 0.77028-0.94233 0.98369-1.4896 0.2176 0.30931 0.46397 0.60724 0.73492 0.88238 1.2402 1.2546 2.7547 1.8876 4.4982 1.8838l2.1754-0.0063c0.89797-0.0021 1.6949-0.25566 2.3815-0.74631-0.04847 0.05755-0.09588 0.11419-0.14021 0.17414-0.37009 0.51642-0.55892 1.1114-0.55892 1.7693 0 0.81854 0.29614 1.5289 0.87645 2.1103 0.58868 0.58865 1.3011 0.88748 2.1197 0.88748 1.2186 0 2.2764-0.43699 3.1414-1.3011 0.18033-0.17624 0.34219-0.37016 0.48876-0.57217 0.47836 0.30931 1.0265 0.46817 1.6329 0.46817 0.83293 0 1.5496-0.29493 2.131-0.87639 0.57846-0.57846 0.87639-1.2825 0.88568-2.0948 0.46907-0.14027 0.89167-0.39084 1.2495-0.7487 0.59075-0.59165 0.89077-1.3113 0.89077-2.1433 0-0.82573-0.30001-1.5412-0.89077-2.1319" fill="#cfcb3a"/>
 <path d="m27.195 6.3564c0.01139 0.011389 0.02278 0.024577 0.02278 0.024577s1.8082-0.08662 1.8205-0.088418c0.38994 0.00929 0.69296-0.17024 0.88058-0.52182l3e-3 -0.00719 0.0021-3e-3c0.19601-0.41571 0.13517-0.80206-0.17714-1.1207-0.17654-0.18373-0.39713-0.28144-0.65489-0.29702-0.25866-0.013487-0.48645 0.067138-0.68037 0.24218l-0.0051 0.0054-1.3535 1.3041-0.01049 0.013488c-0.03926 0.055449-0.05875 0.11539-0.05875 0.17294 0 0.072233 0.02997 0.14147 0.08752 0.20021 0.04046 0.044359 0.08362 0.06474 0.12378 0.07523" fill="#fff"/>
 <path d="m9.7044 7.2286h-1.1566c-0.98668 0-1.8484 0.35967-2.5578 1.0691-0.70884 0.71034-1.0685 1.5711-1.0685 2.5599v2.2722c0 0.36686 0.13487 0.68666 0.40163 0.95372 0.26675 0.26675 0.58746 0.40193 0.95461 0.40193 0.36596 0 0.68666-0.13518 0.94622-0.40403 0.25776-0.26495 0.39174-0.58566 0.39174-0.95162v-2.2722c0-0.27125 0.089917-0.49394 0.27335-0.67737 0.18553-0.18373 0.40313-0.27544 0.65879-0.27544h1.1566c0.36716 0 0.68456-0.13098 0.94442-0.39174 0.26076-0.26166 0.39294-0.57816 0.39294-0.94622 0-0.36506-0.13218-0.68456-0.39294-0.94562-0.25986-0.25956-0.57726-0.39264-0.94442-0.39264" fill="#fff"/>
 <path d="m20.217 7.2286h-3.225v-0.95162c0-0.36716-0.12978-0.68456-0.39384-0.94532-0.25956-0.26196-0.57726-0.39294-0.94322-0.39294s-0.68546 0.13098-0.95461 0.39084c-0.26495 0.26076-0.40223 0.58026-0.40223 0.94742v4.4134h-0.0039s0.0039 0.20111 0.0039 0.20531v0.01139c0.02907 0.98459 0.39294 1.834 1.0868 2.5288 0.69895 0.69596 1.5517 1.0496 2.5422 1.0496h1.1515c0.37016 0 0.68996-0.13518 0.95072-0.40403 0.25656-0.26495 0.38964-0.58566 0.38964-0.95162 0-0.36716-0.13308-0.68456-0.39384-0.94532-0.25866-0.26196-0.57846-0.39294-0.94652-0.39294h-1.1515c-0.59285-0.03507-0.88148-0.30632-0.93513-0.91146v-0.97529h3.225c0.36596 0 0.68666-0.13098 0.94532-0.39174 0.26076-0.26166 0.39174-0.57816 0.39174-0.94622 0-0.36506-0.13098-0.68456-0.39174-0.94562-0.25866-0.25956-0.57936-0.39264-0.94532-0.39264" fill="#fff"/>
 <path d="m31.812 13.343v-0.18433s-0.01559-0.02488-0.01738-0.03297c0-0.0033-0.0021-0.17744-0.0021-0.17744s-0.01049-0.0093-0.01768-0.01738v-0.12378s-0.02458-0.0051-0.03507-0.0093v-0.04226s-0.01948-0.01768-0.03387-0.03507v-0.03507l-0.05874-0.05994c-0.11959-0.22989-0.30512-0.41751-0.54849-0.55568-0.0033 0-0.06414-0.06264-0.06414-0.06264s-0.01948 0.0018-0.03687 0.0018c-0.01439-0.01828-0.03297-0.03597-0.03297-0.03597h-0.08662c-0.01978-0.0072-0.03716-0.01019-0.05695-0.01019-0.02038-0.01259-0.04406-0.01558-0.06894-0.01978 0.52481-0.3258 0.8578-0.84012 0.99178-1.5403 0.01229-0.01139 0.02578-0.02458 0.02578-0.02458s-0.0021-0.13727-0.0021-0.14117c0.01049-0.02698 0.01648-0.05994 0.01648-0.09711v-0.05365l0.0051-0.05665 0.01349-0.13607c-0.002099-0.66088-0.23918-1.231-0.70105-1.7-0.46607-0.46906-1.0349-0.70525-1.6979-0.70525l-1.0877 0.0033c-0.94862 0.0018-1.7732 0.35457-2.4517 1.0484-0.67827 0.69056-1.0215 1.5298-1.0176 2.4919 0 0.96271 0.34738 1.801 1.0289 2.4895 0.68157 0.68786 1.5103 1.0382 2.4559 1.0343l2.1751-0.0033c0.43819-0.0021 0.77838-0.18253 1.023-0.53081h0.1103v-0.03417h0.01738v-0.05245h0.03297v-0.08782h0.03627v-0.13607c0-0.0018 0-0.0018 8.99e-4 -0.0039h0.04856v-0.19092c0.0072-0.0072 0.01858-0.01648 0.01858-0.01648v-0.13907l0.01738-0.01768" fill="#fff"/>
 <path d="m44.099 12.859c-0.41961-0.41961-0.92164-0.62792-1.5073-0.62792h-0.71873c-0.972 0-1.8103 0.34738-2.5072 1.0454-0.327 0.3267-0.57637 0.68546-0.74853 1.0763-0.04227-0.1103-0.09174-0.2197-0.15052-0.3237 0.19485-0.34438 0.2897-0.70824 0.2897-1.0907 0-0.58476-0.2093-1.0868-0.62993-1.5043-0.41754-0.42171-0.92065-0.63092-1.5052-0.63092-0.59279 0-1.098 0.20921-1.5176 0.63092-0.41236 0.41152-0.61856 0.91235-0.61856 1.5043 0 0.40612 0.10205 0.76789 0.30311 1.0907-0.20105 0.33089-0.30311 0.69476-0.30311 1.0919v1.5061c-0.41134 0.14327-0.74952 0.39593-1.0114 0.7589-0.26288 0.36476-0.39279 0.78018-0.39279 1.2534 0 0.57756 0.20516 1.0724 0.61653 1.4848 0.41958 0.41931 0.91859 0.62972 1.4949 0.62972 0.98249 0 1.8227-0.34738 2.5186-1.0463 0.42785-0.41541 0.72167-0.88868 0.88766-1.4144 0.08971 0.15346 0.20301 0.30092 0.33908 0.437 0.41242 0.41332 0.91985 0.61743 1.5178 0.61743 0.59255 0 1.0979-0.20411 1.5073-0.61743 0.41931-0.42051 0.62882-0.92674 0.62882-1.5187v-0.70824c0.59375 0 1.0949-0.20711 1.5073-0.61952 0.42051-0.41751 0.62972-0.92464 0.62972-1.5154 0-0.58686-0.20921-1.0877-0.62972-1.5094" fill="#354b7e"/>
 <path d="m35.913 17.211c0 0.36926-0.17217 0.59705-0.51651 0.68666-0.0433 0.01557-0.11339 0.02697-0.20413 0.03417-0.17937 0-0.3433 0.06684-0.48765 0.20201-0.14846 0.13607-0.21961 0.30302-0.21961 0.50413 0 0.19572 0.06909 0.36386 0.20622 0.50114 0.13915 0.13997 0.30619 0.20921 0.50104 0.20921 0.57115 0 1.066-0.20321 1.4856-0.60724 0.42579-0.41242 0.64437-0.90306 0.64953-1.4743v-2.1475c0-0.20201-0.067-0.37315-0.20622-0.50923-0.13815-0.14027-0.3062-0.20921-0.50003-0.20921-0.18762 0-0.35154 0.06684-0.49382 0.20201-0.14329 0.13398-0.21444 0.30002-0.21444 0.49364z" fill="#d7557f"/>
 <path d="m41.164 15.795c0-0.20321 0.07012-0.37315 0.2083-0.51043 0.13788-0.14117 0.30602-0.20921 0.50084-0.20921h0.71873c0.19482 0 0.36386-0.07014 0.50084-0.20921 0.13936-0.13607 0.2083-0.30332 0.2083-0.49904 0-0.19482-0.06894-0.36086-0.2083-0.50114-0.13697-0.13907-0.30602-0.2083-0.50084-0.2083h-0.71873c-0.58356 0-1.0865 0.2104-1.5061 0.63091-0.41961 0.41961-0.63092 0.92284-0.63092 1.5064v1.4165c0 0.19482 0.07015 0.36296 0.21429 0.50623 0.14326 0.14327 0.31231 0.2143 0.50623 0.2143 0.19391 0 0.36086-0.07103 0.49994-0.2143 0.13936-0.14327 0.2074-0.31141 0.2074-0.50623z" fill="#dde0eb"/>
 <path d="m37.511 14.093-0.84024-0.45258-0.84642 0.4373 0.17217-0.93843-0.67632-0.67318 0.94436-0.12678 0.42684-0.85151 0.41548 0.8587 0.94331 0.14657-0.69176 0.65879z" fill="#fff"/>
 <path d="m33.415 11.677c0.24023-0.57337 0.35982-1.1704 0.35775-1.7878-0.0021-1.2154-0.43094-2.2548-1.2826-3.1198-0.36087-0.37315-0.7565-0.66478-1.1875-0.87938 0.09262-0.37735 0.1019-0.77208 0.0082-1.1318-0.11131-0.41781-0.30942-0.77238-0.59595-1.0661-0.46067-0.47116-1.0256-0.70315-1.6886-0.69386-0.6465 3e-3 -1.2043 0.24547-1.6712 0.72593l-1.5855 1.5505-0.01049 0.0081c-0.23288 0.25057-0.35967 0.54549-0.37615 0.88268-0.0042 0.05755-0.0042 0.1112 0 0.16605-0.3288 0.21519-0.63721 0.47505-0.93094 0.77417-0.3279 0.33509-0.60514 0.68966-0.82993 1.064-0.08242-0.77028-0.41242-1.4426-0.98968-2.0186-0.67108-0.67318-1.4785-1.0095-2.4158-1.0095h-1.335c-0.24008-0.67617-0.66089-1.2205-1.2618-1.6422-0.60124-0.4331-1.2567-0.6486-1.965-0.6486-0.95072 0-1.7621 0.33599-2.434 1.0104-0.65789 0.65789-0.98878 1.4599-0.99298 2.4041-0.03507-0.03896-0.07013-0.07823-0.1073-0.11419-0.67408-0.67318-1.4803-1.0095-2.4164-1.0095h-1.1569c-1.5598 0-2.9007 0.55868-4.0187 1.6763-1.121 1.1186-1.6784 2.464-1.6784 4.0394v2.2722c0 0.96181 0.32969 1.7732 0.99208 2.4352 0.66238 0.65969 1.4746 0.99268 2.4349 0.99268 0.94862 0 1.7546-0.33299 2.4155-0.99268 0.67228-0.67318 1.0116-1.4857 1.0116-2.4352v-1.135c0.94952 0 1.7537-0.33089 2.4164-0.99268 0.03716-0.03627 0.07223-0.07553 0.1073-0.1124v0.0039c0.0114 1.5765 0.57007 2.9094 1.6763 4.0043 1.132 1.1063 2.4724 1.6599 4.0229 1.6599h1.1515c0.93933 0 1.7453-0.33898 2.4188-1.0113 0.67198-0.67437 1.0083-1.4785 1.0083-2.4167 0-0.60094-0.14956-1.1599-0.45048-1.6772 0.31021-0.20111 0.57726-0.44029 0.80805-0.71754-0.0051 0.09891-0.0081 0.20081-0.0081 0.30182 0.0042 1.5187 0.5422 2.821 1.6143 3.9054 1.0733 1.0856 2.3642 1.6248 3.8682 1.6206l2.1745-0.0051c0.91835-0.0021 1.6958-0.3246 2.3247-0.969 0.63302-0.6465 0.94643-1.4363 0.94538-2.3702-3e-3 -0.5383-0.1237-1.0505-0.36701-1.5412m-22.91-2.3085c-0.2215 0.22359-0.49064 0.33509-0.80086 0.33509h-1.1569c-0.31231 0-0.57816 0.1103-0.80086 0.33299-0.22179 0.22269-0.33299 0.49574-0.33299 0.82064v2.2722c0 0.31351-0.1115 0.58446-0.33509 0.81255-0.2218 0.22779-0.48765 0.34228-0.80116 0.34228-0.31231 0-0.58266-0.1145-0.81045-0.34228-0.23079-0.22809-0.34468-0.49904-0.34468-0.81255v-2.2722c0-0.93933 0.33868-1.7435 1.0098-2.4167 0.67437-0.67198 1.4803-1.0092 2.4155-1.0092h1.1569c0.31021 0 0.57936 0.1103 0.80086 0.33179 0.22389 0.22269 0.33419 0.49304 0.33419 0.80326 0 0.31441-0.1103 0.58026-0.33419 0.80206m10.514 0c-0.22269 0.22359-0.48765 0.33509-0.80236 0.33509h-3.4267v1.1896c0.06084 0.71034 0.44119 1.064 1.1371 1.064l1.1515 0.03716c0.31561 0 0.58146 0.1103 0.80505 0.33209 0.2218 0.22269 0.33299 0.48945 0.33299 0.80296s-0.1112 0.58446-0.33299 0.81255c-0.22359 0.22779-0.48945 0.34228-0.80505 0.34228h-1.1515c-0.93933 1e-6 -1.7381-0.33119-2.4002-0.99298-0.66089-0.66089-1.0032-1.4617-1.0289-2.3981v-4.6166c0-0.31141 0.11659-0.57936 0.34438-0.80296 0.22899-0.22269 0.49904-0.33209 0.81255-0.33209 0.31231 0 0.57816 0.1094 0.80206 0.33209 0.22269 0.22359 0.33299 0.49154 0.33299 0.80296v1.1548h3.4267c0.31471 0 0.57966 0.1103 0.80236 0.33179 0.22359 0.22269 0.33299 0.49304 0.33299 0.80326 0 0.31441-0.1094 0.58026-0.33299 0.80206m6.1878-3.3413c0.22269-0.2164 0.44539-0.434 0.67018-0.6465 0.22359-0.2143 0.44719-0.4289 0.67198-0.6474 0.14866-0.13518 0.3291-0.19992 0.53321-0.18852 0.20411 0.01228 0.37825 0.08962 0.52152 0.23708 0.25057 0.25656 0.29493 0.55449 0.13607 0.89077-0.15256 0.28863-0.38874 0.4277-0.70525 0.41841l-1.7351 0.08572c-6e-3 -0.0063-0.01738-0.0114-0.03297-0.0114-0.01738 0-0.03506-0.0084-0.05155-0.02697-0.03597-0.03387-0.03806-0.07313-0.0081-0.1112m3.3578 6.096c0.56798 0 1.0277 0.49694 1.0277 1.1123 0 0.61353-0.45977 1.1126-1.0277 1.1126l-2.232 0.0051c-0.89586 3e-3 -1.667-0.32281-2.3144-0.9762-0.6444-0.6516-0.9693-1.4333-0.9702-2.3465-3e-3 -0.91026 0.3186-1.694 0.96181-2.3495 0.6402-0.65789 1.4093-0.98579 2.3073-0.98878l1.0889-0.0021c0.60814-0.0021 1.1246 0.2134 1.5505 0.6444 0.4298 0.4319 0.6432 0.95162 0.6432 1.5589 0 0.23408-0.04947 0.45468-0.04947 0.45468-0.18224 0.9711-0.76699 1.5517-1.7567 1.7411 0 0-0.07613 0.01349-0.104 0.01648l-0.11869 0.01978s0.93513-0.0021 0.99388-0.0021" fill="#354b7e"/>
 <path d="m28.323 9.9019c0.29792 0 0.55478 0.1082 0.76819 0.3237 0.2122 0.2134 0.3204 0.48045 0.3204 0.79606 0 0.30392-0.1052 0.56288-0.3174 0.78018-0.2125 0.2155-0.46817 0.327-0.76609 0.327-0.31141 0-0.57217-0.1073-0.78437-0.3237-0.2146-0.2146-0.3219-0.47446-0.3228-0.77748 0-0.31531 0.104-0.58236 0.31651-0.79996 0.2155-0.2155 0.47416-0.3258 0.78557-0.3258" fill="#354b7e"/>
 <path d="m46.118 10.844c-0.95971-0.95761-2.1793-1.465-3.5259-1.465h-0.71843c-0.5371 0-1.0628 0.06803-1.5744 0.19812-0.05334-0.05575-0.10402-0.11239-0.15345-0.15975-0.95971-0.96001-2.1774-1.4671-3.5238-1.4671-0.08143 0-0.166 0.0021-0.25054 0.0063-0.31546-1.1836-0.92992-2.2497-1.8361-3.1723l-0.0051-0.0063h-0.0021c-0.11031-0.1133-0.2361-0.23198-0.37733-0.35577-0.02268-0.13098-0.04741-0.25866-0.07835-0.38155 0-8.96e-4 -3e-3 -0.0072-3e-3 -0.0072-0.23826-0.90096-0.6826-1.6865-1.3136-2.3318-1.0092-1.034-2.3073-1.5693-3.7507-1.5538h-0.0093c-1.3823 0.01019-2.639 0.5413-3.6329 1.5394l-0.0021-0.0021-1.6413 1.605s-0.03087 0.03207-0.04227 0.04226c-0.94231-0.63901-2.0135-0.98549-3.1887-1.0319-0.35158-0.42171-0.7559-0.80086-1.2145-1.1216v-0.0021l-0.0051-0.0042c-1.0889-0.77927-2.3054-1.1743-3.6146-1.1743-1.7279 0-3.2268 0.62162-4.4518 1.8454-0.16485 0.16814-0.3237 0.34858-0.47116 0.53201-0.34828-0.05545-0.69266-0.08662-1.0256-0.08662h-1.1569c-2.339 0-4.3702 0.84552-6.0367 2.5126-1.6665 1.6671-2.5117 3.7043-2.5117 6.0559v2.2722c0 1.7414 0.61443 3.2403 1.8253 4.4518 1.2139 1.2124 2.7095 1.8277 4.4521 1.8277 1.7279 0 3.2196-0.61533 4.4341-1.8277 0.3174-0.3198 0.59795-0.66209 0.83712-1.0259 0.1133 0.12588 0.23079 0.24967 0.35038 0.36926 1.6847 1.6485 3.7106 2.4844 6.0283 2.4844h1.1515c1.6371 0 3.0659-0.56288 4.2546-1.673 1.4444 1.1174 3.1291 1.6844 5.0146 1.6802 0 0 1.3856-0.0039 1.9425-6e-3 0.15766 1.031 0.63811 1.9671 1.3916 2.7311 0.15466 0.15466 0.39713 0.46277 0.68247 0.66268 2.3847 1.6455 6.0796 0.45375 7.0312-0.82873 1.7165 0.45558 3.8619-0.44748 4.5848-1.228 0.65369-0.70614 1.0361-1.3443 1.2648-2.1568 0.3216-0.19992 0.61353-0.431 0.87219-0.68846 0.95581-0.95881 1.462-2.1796 1.462-3.5331 0-1.3487-0.50623-2.5671-1.462-3.525" fill="#fff"/>
 <path d="m45.456 11.505c-0.77958-0.77928-1.7702-1.1926-2.865-1.1926h-0.71873c-0.66179 0-1.3041 0.11539-1.9062 0.34228-0.14236-0.20621-0.30512-0.40103-0.48045-0.57846-0.77928-0.77928-1.7701-1.1917-2.8639-1.1917-0.33299 0-0.66808 0.04227-0.99487 0.12558-0.17837-1.3619-0.76603-2.5629-1.7588-3.5742l-0.0082-0.0063c-0.17118-0.17714-0.37326-0.35577-0.59181-0.52991-0.01855-0.22149-0.05155-0.4331-0.10104-0.62372-0.19899-0.74751-0.56174-1.3937-1.0785-1.9227-0.82993-0.84731-1.8948-1.2888-3.0814-1.2732-1.1566 0.0081-2.1661 0.43699-2.9969 1.2783h0.0051c-0.02576 0.01978-0.05066 0.04226-0.07223 0.06384l-0.18344 0.17953-0.55688 0.5443-0.81434 0.79486-0.0063 0.0072-0.02788 0.02996c-0.1948 0.2104-0.36054 0.44449-0.49362 0.69176-1.0176-0.95881-2.2425-1.4474-3.6446-1.4474h-0.20081c-0.35487-0.49814-0.78258-0.93423-1.2858-1.2879-0.92584-0.66388-1.9617-1.002-3.0751-1.002-1.4722 0-2.7476 0.52901-3.7879 1.5732-0.28024 0.27634-0.52361 0.58356-0.73312 0.91655-0.46577-0.12978-0.94412-0.19992-1.4288-0.19992h-1.1557c-2.0825 0-3.891 0.7526-5.3776 2.2413-1.4836 1.4824-2.2389 3.2978-2.2389 5.3938v2.2722c0 1.4857 0.52451 2.7601 1.5526 3.7909 1.031 1.031 2.3079 1.5538 3.7927 1.5538 1.4734 0 2.7404-0.52272 3.7735-1.5538 0.62882-0.62972 1.0691-1.3556 1.3206-2.164 0.3258 0.5413 0.72263 1.0454 1.1878 1.5052 1.4968 1.468 3.3029 2.2125 5.3671 2.2125h1.1524c1.4608 0 2.7332-0.52781 3.7744-1.5711 0.14327-0.14447 0.27724-0.30122 0.40732-0.46397 1.4123 1.3577 3.1216 2.0465 5.0827 2.0402l2.1742-3e-3c0.21341 0 0.4331-0.01978 0.65249-0.04855-0.0061 0.07313-0.0082 0.14536-0.0082 0.2113 0 1.0868 0.40822 2.0693 1.1794 2.8426 0.78042 0.77838 1.767 1.1896 2.8516 1.1896 1.5 0 2.8022-0.5371 3.8673-1.5969l0.0051-0.0072 0.0021-0.0021s0.02026-0.02367 0.03296-0.03417c0.4328 0.15466 0.88747 0.23618 1.3556 0.23618 1.1012 0 2.0909-0.40822 2.865-1.1815 0.57936-0.58236 0.95971-1.3083 1.1105-2.1052 0.37615-0.19062 0.72473-0.43909 1.0248-0.73822 0.77718-0.78018 1.1917-1.7741 1.1917-2.874 0-1.0949-0.41451-2.0858-1.1917-2.8632" fill="#7ac041"/>
 <path d="m44.722 12.236c-0.58866-0.58985-1.3053-0.88987-2.131-0.88987h-0.71873c-0.87099 0-1.6659 0.23528-2.369 0.69086-0.13937-0.45768-0.39174-0.87009-0.7505-1.2301-0.59084-0.58746-1.3063-0.88748-2.1321-0.88748-0.77838 0-1.4588 0.26496-2.0279 0.78347 0.0433-0.26705 0.06392-0.5362 0.06392-0.80326v-0.0111c-3e-3 -1.4486-0.52269-2.7044-1.5351-3.7333h-1e-3c-0.25875-0.27095-0.55252-0.51432-0.86813-0.72563 0.0012-0.01439 0.0085-0.13518 0.0085-0.13518 0-0.26076-0.03296-0.51642-0.095-0.76069-0.15151-0.56617-0.42785-1.0577-0.81869-1.4578-0.63301-0.6495-1.4186-0.9702-2.3246-0.96181h-0.01049c-0.87728 0.0081-1.6422 0.33689-2.2764 0.97919l-1.6083 1.5723-0.01648 0.01557c-0.31531 0.3411-0.51013 0.73703-0.58236 1.1803-0.20921 0.16185-0.41152 0.34018-0.60124 0.52571-0.18643-0.30931-0.40912-0.59884-0.67108-0.8608-0.84132-0.84342-1.8628-1.2681-3.0413-1.2681h-0.76489c-0.31441-0.58656-0.7559-1.0835-1.3197-1.4782-0.74841-0.5392-1.5837-0.81255-2.4763-0.81255-1.1887 0-2.2167 0.4259-3.059 1.2693-0.4298 0.4307-0.7547 0.92674-0.9651 1.4752-0.58656-0.30212-1.2328-0.45378-1.9257-0.45378h-1.1566c-1.7959 0-3.3569 0.6507-4.6457 1.9362-1.2858 1.2837-1.9362 2.8528-1.9362 4.6631v2.2722c0 1.2001 0.42261 2.2299 1.2528 3.0599 0.82723 0.82993 1.8583 1.2495 3.0578 1.2495 1.1887 0 2.2125-0.41961 3.0404-1.2495 0.84132-0.84132 1.2699-1.8721 1.2699-3.0599v-0.34228c0.33299-0.06504 0.6528-0.16994 0.95372-0.31141 0.27724 1.1515 0.8608 2.1784 1.7435 3.0506 1.2978 1.2681 2.8587 1.9125 4.6433 1.9125h1.1515c1.1776 0 2.2024-0.4256 3.0434-1.2681 0.44239-0.44119 0.77028-0.94233 0.98369-1.4896 0.2176 0.30931 0.46397 0.60724 0.73492 0.88238 1.2402 1.2546 2.7547 1.8876 4.4982 1.8838l2.1754-0.0063c0.89797-0.0021 1.6949-0.25566 2.3815-0.74631-0.04847 0.05755-0.09588 0.11419-0.14021 0.17414-0.37009 0.51642-0.55892 1.1114-0.55892 1.7693 0 0.81854 0.29614 1.5289 0.87645 2.1103 0.58868 0.58865 1.3011 0.88748 2.1197 0.88748 1.2186 0 2.2764-0.43699 3.1414-1.3011 0.18033-0.17624 0.34219-0.37016 0.48876-0.57217 0.47836 0.30931 1.0265 0.46817 1.6329 0.46817 0.83293 0 1.5496-0.29493 2.131-0.87639 0.57846-0.57846 0.87639-1.2825 0.88568-2.0948 0.46907-0.14027 0.89167-0.39084 1.2495-0.7487 0.59075-0.59165 0.89077-1.3113 0.89077-2.1433 0-0.82573-0.30001-1.5412-0.89077-2.1319" fill="#c1d72d"/>
 <path d="m27.195 6.3564c0.01139 0.011389 0.02278 0.024577 0.02278 0.024577s1.8082-0.08662 1.8205-0.088418c0.38994 0.00929 0.69296-0.17024 0.88058-0.52182l3e-3 -0.00719 0.0021-3e-3c0.19601-0.41571 0.13517-0.80206-0.17714-1.1207-0.17654-0.18373-0.39713-0.28144-0.65489-0.29702-0.25866-0.013487-0.48645 0.067138-0.68037 0.24218l-0.0051 0.0054-1.3535 1.3041-0.01049 0.013488c-0.03926 0.055449-0.05875 0.11539-0.05875 0.17294 0 0.072233 0.02997 0.14147 0.08752 0.20021 0.04046 0.044359 0.08362 0.06474 0.12378 0.07523" fill="#fff"/>
 <path d="m9.7044 7.2286h-1.1566c-0.98668 0-1.8484 0.35967-2.5578 1.0691-0.70884 0.71034-1.0685 1.5711-1.0685 2.5599v2.2722c0 0.36686 0.13487 0.68666 0.40163 0.95372 0.26675 0.26675 0.58746 0.40193 0.95461 0.40193 0.36596 0 0.68666-0.13518 0.94622-0.40403 0.25776-0.26495 0.39174-0.58566 0.39174-0.95162v-2.2722c0-0.27125 0.089917-0.49394 0.27335-0.67737 0.18553-0.18373 0.40313-0.27544 0.65879-0.27544h1.1566c0.36716 0 0.68456-0.13098 0.94442-0.39174 0.26076-0.26166 0.39294-0.57816 0.39294-0.94622 0-0.36506-0.13218-0.68456-0.39294-0.94562-0.25986-0.25956-0.57726-0.39264-0.94442-0.39264" fill="#fff"/>
 <path d="m20.217 7.2286h-3.225v-0.95162c0-0.36716-0.12978-0.68456-0.39384-0.94532-0.25956-0.26196-0.57726-0.39294-0.94322-0.39294s-0.68546 0.13098-0.95461 0.39084c-0.26495 0.26076-0.40223 0.58026-0.40223 0.94742v4.4134h-0.0039s0.0039 0.20111 0.0039 0.20531v0.01139c0.02907 0.98459 0.39294 1.834 1.0868 2.5288 0.69895 0.69596 1.5517 1.0496 2.5422 1.0496h1.1515c0.37016 0 0.68996-0.13518 0.95072-0.40403 0.25656-0.26495 0.38964-0.58566 0.38964-0.95162 0-0.36716-0.13308-0.68456-0.39384-0.94532-0.25866-0.26196-0.57846-0.39294-0.94652-0.39294h-1.1515c-0.59285-0.03507-0.88148-0.30632-0.93513-0.91146v-0.97529h3.225c0.36596 0 0.68666-0.13098 0.94532-0.39174 0.26076-0.26166 0.39174-0.57816 0.39174-0.94622 0-0.36506-0.13098-0.68456-0.39174-0.94562-0.25866-0.25956-0.57936-0.39264-0.94532-0.39264" fill="#fff"/>
 <path d="m31.812 13.343v-0.18433s-0.01559-0.02488-0.01738-0.03297c0-0.0033-0.0021-0.17744-0.0021-0.17744s-0.01049-0.0093-0.01768-0.01738v-0.12378s-0.02458-0.0051-0.03507-0.0093v-0.04226s-0.01948-0.01768-0.03387-0.03507v-0.03507l-0.05874-0.05994c-0.11959-0.22989-0.30512-0.41751-0.54849-0.55568-0.0033 0-0.06414-0.06264-0.06414-0.06264s-0.01948 0.0018-0.03687 0.0018c-0.01439-0.01828-0.03297-0.03597-0.03297-0.03597h-0.08662c-0.01978-0.0072-0.03716-0.01019-0.05695-0.01019-0.02038-0.01259-0.04406-0.01558-0.06894-0.01978 0.52481-0.3258 0.8578-0.84012 0.99178-1.5403 0.01229-0.01139 0.02578-0.02458 0.02578-0.02458s-0.0021-0.13727-0.0021-0.14117c0.01049-0.02698 0.01648-0.05994 0.01648-0.09711v-0.05365l0.0051-0.05665 0.01349-0.13607c-0.002099-0.66088-0.23918-1.231-0.70105-1.7-0.46607-0.46906-1.0349-0.70525-1.6979-0.70525l-1.0877 0.0033c-0.94862 0.0018-1.7732 0.35457-2.4517 1.0484-0.67827 0.69056-1.0215 1.5298-1.0176 2.4919 0 0.96271 0.34738 1.801 1.0289 2.4895 0.68157 0.68786 1.5103 1.0382 2.4559 1.0343l2.1751-0.0033c0.43819-0.0021 0.77838-0.18253 1.023-0.53081h0.1103v-0.03417h0.01738v-0.05245h0.03297v-0.08782h0.03627v-0.13607c0-0.0018 0-0.0018 8.99e-4 -0.0039h0.04856v-0.19092c0.0072-0.0072 0.01858-0.01648 0.01858-0.01648v-0.13907l0.01738-0.01768" fill="#fff"/>
 <path d="m44.099 12.859c-0.41961-0.41961-0.92164-0.62792-1.5073-0.62792h-0.71873c-0.972 0-1.8103 0.34738-2.5072 1.0454-0.327 0.3267-0.57637 0.68546-0.74853 1.0763-0.04227-0.1103-0.09174-0.2197-0.15052-0.3237 0.19485-0.34438 0.2897-0.70824 0.2897-1.0907 0-0.58476-0.2093-1.0868-0.62993-1.5043-0.41754-0.42171-0.92065-0.63092-1.5052-0.63092-0.59279 0-1.098 0.20921-1.5176 0.63092-0.41236 0.41152-0.61856 0.91235-0.61856 1.5043 0 0.40612 0.10205 0.76789 0.30311 1.0907-0.20105 0.33089-0.30311 0.69476-0.30311 1.0919v1.5061c-0.41134 0.14327-0.74952 0.39593-1.0114 0.7589-0.26288 0.36476-0.39279 0.78018-0.39279 1.2534 0 0.57756 0.20516 1.0724 0.61653 1.4848 0.41958 0.41931 0.91859 0.62972 1.4949 0.62972 0.98249 0 1.8227-0.34738 2.5186-1.0463 0.42785-0.41541 0.72167-0.88868 0.88766-1.4144 0.08971 0.15346 0.20301 0.30092 0.33908 0.437 0.41242 0.41332 0.91985 0.61743 1.5178 0.61743 0.59255 0 1.0979-0.20411 1.5073-0.61743 0.41931-0.42051 0.62882-0.92674 0.62882-1.5187v-0.70824c0.59375 0 1.0949-0.20711 1.5073-0.61952 0.42051-0.41751 0.62972-0.92464 0.62972-1.5154 0-0.58686-0.20921-1.0877-0.62972-1.5094" fill="#19388a"/>
 <path d="m35.913 17.211c0 0.36926-0.17217 0.59705-0.51651 0.68666-0.0433 0.01557-0.11339 0.02697-0.20413 0.03417-0.17937 0-0.3433 0.06684-0.48765 0.20201-0.14846 0.13607-0.21961 0.30302-0.21961 0.50413 0 0.19572 0.06909 0.36386 0.20622 0.50114 0.13915 0.13997 0.30619 0.20921 0.50104 0.20921 0.57115 0 1.066-0.20321 1.4856-0.60724 0.42579-0.41242 0.64437-0.90306 0.64953-1.4743v-2.1475c0-0.20201-0.067-0.37315-0.20622-0.50923-0.13815-0.14027-0.3062-0.20921-0.50003-0.20921-0.18762 0-0.35154 0.06684-0.49382 0.20201-0.14329 0.13398-0.21444 0.30002-0.21444 0.49364z" fill="#ec4f8f"/>
 <path d="m41.164 15.795c0-0.20321 0.07012-0.37315 0.2083-0.51043 0.13788-0.14117 0.30602-0.20921 0.50084-0.20921h0.71873c0.19482 0 0.36386-0.07014 0.50084-0.20921 0.13936-0.13607 0.2083-0.30332 0.2083-0.49904 0-0.19482-0.06894-0.36086-0.2083-0.50114-0.13697-0.13907-0.30602-0.2083-0.50084-0.2083h-0.71873c-0.58356 0-1.0865 0.2104-1.5061 0.63091-0.41961 0.41961-0.63092 0.92284-0.63092 1.5064v1.4165c0 0.19482 0.07015 0.36296 0.21429 0.50623 0.14326 0.14327 0.31231 0.2143 0.50623 0.2143 0.19391 0 0.36086-0.07103 0.49994-0.2143 0.13936-0.14327 0.2074-0.31141 0.2074-0.50623z" fill="#78bde6"/>
 <path d="m37.511 14.093-0.84024-0.45258-0.84642 0.4373 0.17217-0.93843-0.67632-0.67318 0.94436-0.12678 0.42684-0.85151 0.41548 0.8587 0.94331 0.14657-0.69176 0.65879z" fill="#ffcf3b"/>
 <path d="m33.415 11.677c0.24023-0.57337 0.35982-1.1704 0.35775-1.7878-0.0021-1.2154-0.43094-2.2548-1.2826-3.1198-0.36087-0.37315-0.7565-0.66478-1.1875-0.87938 0.09262-0.37735 0.1019-0.77208 0.0082-1.1318-0.11131-0.41781-0.30942-0.77238-0.59595-1.0661-0.46067-0.47116-1.0256-0.70315-1.6886-0.69386-0.6465 3e-3 -1.2043 0.24547-1.6712 0.72593l-1.5855 1.5505-0.01049 0.0081c-0.23288 0.25057-0.35967 0.54549-0.37615 0.88268-0.0042 0.05755-0.0042 0.1112 0 0.16605-0.3288 0.21519-0.63721 0.47505-0.93094 0.77417-0.3279 0.33509-0.60514 0.68966-0.82993 1.064-0.08242-0.77028-0.41242-1.4426-0.98968-2.0186-0.67108-0.67318-1.4785-1.0095-2.4158-1.0095h-1.335c-0.24008-0.67617-0.66089-1.2205-1.2618-1.6422-0.60124-0.4331-1.2567-0.6486-1.965-0.6486-0.95072 0-1.7621 0.33599-2.434 1.0104-0.65789 0.65789-0.98878 1.4599-0.99298 2.4041-0.03507-0.03896-0.07013-0.07823-0.1073-0.11419-0.67408-0.67318-1.4803-1.0095-2.4164-1.0095h-1.1569c-1.5598 0-2.9007 0.55868-4.0187 1.6763-1.121 1.1186-1.6784 2.464-1.6784 4.0394v2.2722c0 0.96181 0.32969 1.7732 0.99208 2.4352 0.66238 0.65969 1.4746 0.99268 2.4349 0.99268 0.94862 0 1.7546-0.33299 2.4155-0.99268 0.67228-0.67318 1.0116-1.4857 1.0116-2.4352v-1.135c0.94952 0 1.7537-0.33089 2.4164-0.99268 0.03716-0.03627 0.07223-0.07553 0.1073-0.1124v0.0039c0.0114 1.5765 0.57007 2.9094 1.6763 4.0043 1.132 1.1063 2.4724 1.6599 4.0229 1.6599h1.1515c0.93933 0 1.7453-0.33898 2.4188-1.0113 0.67198-0.67437 1.0083-1.4785 1.0083-2.4167 0-0.60094-0.14956-1.1599-0.45048-1.6772 0.31021-0.20111 0.57726-0.44029 0.80805-0.71754-0.0051 0.09891-0.0081 0.20081-0.0081 0.30182 0.0042 1.5187 0.5422 2.821 1.6143 3.9054 1.0733 1.0856 2.3642 1.6248 3.8682 1.6206l2.1745-0.0051c0.91835-0.0021 1.6958-0.3246 2.3247-0.969 0.63302-0.6465 0.94643-1.4363 0.94538-2.3702-3e-3 -0.5383-0.1237-1.0505-0.36701-1.5412m-22.91-2.3085c-0.2215 0.22359-0.49064 0.33509-0.80086 0.33509h-1.1569c-0.31231 0-0.57816 0.1103-0.80086 0.33299-0.22179 0.22269-0.33299 0.49574-0.33299 0.82064v2.2722c0 0.31351-0.1115 0.58446-0.33509 0.81255-0.2218 0.22779-0.48765 0.34228-0.80116 0.34228-0.31231 0-0.58266-0.1145-0.81045-0.34228-0.23079-0.22809-0.34468-0.49904-0.34468-0.81255v-2.2722c0-0.93933 0.33868-1.7435 1.0098-2.4167 0.67437-0.67198 1.4803-1.0092 2.4155-1.0092h1.1569c0.31021 0 0.57936 0.1103 0.80086 0.33179 0.22389 0.22269 0.33419 0.49304 0.33419 0.80326 0 0.31441-0.1103 0.58026-0.33419 0.80206m10.514 0c-0.22269 0.22359-0.48765 0.33509-0.80236 0.33509h-3.4267v1.1896c0.06084 0.71034 0.44119 1.064 1.1371 1.064l1.1515 0.03716c0.31561 0 0.58146 0.1103 0.80505 0.33209 0.2218 0.22269 0.33299 0.48945 0.33299 0.80296s-0.1112 0.58446-0.33299 0.81255c-0.22359 0.22779-0.48945 0.34228-0.80505 0.34228h-1.1515c-0.93933 1e-6 -1.7381-0.33119-2.4002-0.99298-0.66089-0.66089-1.0032-1.4617-1.0289-2.3981v-4.6166c0-0.31141 0.11659-0.57936 0.34438-0.80296 0.22899-0.22269 0.49904-0.33209 0.81255-0.33209 0.31231 0 0.57816 0.1094 0.80206 0.33209 0.22269 0.22359 0.33299 0.49154 0.33299 0.80296v1.1548h3.4267c0.31471 0 0.57966 0.1103 0.80236 0.33179 0.22359 0.22269 0.33299 0.49304 0.33299 0.80326 0 0.31441-0.1094 0.58026-0.33299 0.80206m6.1878-3.3413c0.22269-0.2164 0.44539-0.434 0.67018-0.6465 0.22359-0.2143 0.44719-0.4289 0.67198-0.6474 0.14866-0.13518 0.3291-0.19992 0.53321-0.18852 0.20411 0.01228 0.37825 0.08962 0.52152 0.23708 0.25057 0.25656 0.29493 0.55449 0.13607 0.89077-0.15256 0.28863-0.38874 0.4277-0.70525 0.41841l-1.7351 0.08572c-6e-3 -0.0063-0.01738-0.0114-0.03297-0.0114-0.01738 0-0.03506-0.0084-0.05155-0.02697-0.03597-0.03387-0.03806-0.07313-0.0081-0.1112m3.3578 6.096c0.56798 0 1.0277 0.49694 1.0277 1.1123 0 0.61353-0.45977 1.1126-1.0277 1.1126l-2.232 0.0051c-0.89586 3e-3 -1.667-0.32281-2.3144-0.9762-0.6444-0.6516-0.9693-1.4333-0.9702-2.3465-3e-3 -0.91026 0.3186-1.694 0.96181-2.3495 0.6402-0.65789 1.4093-0.98579 2.3073-0.98878l1.0889-0.0021c0.60814-0.0021 1.1246 0.2134 1.5505 0.6444 0.4298 0.4319 0.6432 0.95162 0.6432 1.5589 0 0.23408-0.04947 0.45468-0.04947 0.45468-0.18224 0.9711-0.76699 1.5517-1.7567 1.7411 0 0-0.07613 0.01349-0.104 0.01648l-0.11869 0.01978s0.93513-0.0021 0.99388-0.0021" fill="#19388a"/>
 <path d="m28.323 9.9019c0.29792 0 0.55478 0.1082 0.76819 0.3237 0.2122 0.2134 0.3204 0.48045 0.3204 0.79606 0 0.30392-0.1052 0.56288-0.3174 0.78018-0.2125 0.2155-0.46817 0.327-0.76609 0.327-0.31141 0-0.57217-0.1073-0.78437-0.3237-0.2146-0.2146-0.3219-0.47446-0.3228-0.77748 0-0.31531 0.104-0.58236 0.31651-0.79996 0.2155-0.2155 0.47416-0.3258 0.78557-0.3258" fill="#19388a"/>
 <path class="cls-2" d="m28.258 22.848c0.02575-1.7409-1.5293-3.1658-3.4598-3.1703h-16.096c-1.9305 0.0045-3.4858 1.4294-3.46 3.1703l2.643e-4 3.0869c1.476e-4 1.7246 1.5475 3.124 3.4598 3.1286h16.096c1.9123-0.0046 3.4598-1.404 3.4598-3.1286z" fill="#7ac041"/>
 <g transform="translate(-.73562 .75139)" fill="#fff">
  <path d="m8.4951 21.93c0-0.23344 0.22928-0.42782 0.45939-0.39792 0.53415-4e-3 1.0824-0.0806 1.6074 0.054 0.74765 0.20685 1.2585 1.0102 1.1265 1.7752-0.04984 0.47102-0.3597 0.86395-0.7302 1.1381 0.18442 0.18109 0.38878 0.34558 0.55077 0.54827 0.20685 0.27414-0.04403 0.72024-0.38462 0.69365-0.23426-8.3e-4 -0.37881-0.21266-0.53665-0.35388-0.23509-0.21516-0.4353-0.47185-0.69697-0.65461-0.16781-0.0133-0.33561-5e-3 -0.50342-2e-3 8.31e-4 0.23011 0.01744 0.46105-0.0066 0.69033-0.06895 0.33228-0.54578 0.44443-0.7626 0.18857-0.14704-0.13126-0.11547-0.34143-0.12046-0.51754 0.01246-1.0542-0.01994-2.1084-0.0025-3.1617m0.89386 0.48265c0.0033 0.47268 0.0017 0.94452 8.3e-4 1.4172 0.39708-0.0332 0.87475 0.11797 1.1971-0.19023 0.31235-0.26998 0.29241-0.79915-0.02741-1.055-0.32481-0.27829-0.78254-0.14371-1.1705-0.17195z"/>
  <path d="m13.668 21.661c0.29574-0.14288 0.63467-0.15368 0.95533-0.1163 0.71359 0.098 1.3125 0.74516 1.3217 1.4712 0.01495 0.77672 0.01828 1.5543 0.0025 2.331-0.03738 0.39875-0.64132 0.50508-0.81411 0.14538-0.09886-0.30571-0.02492-0.64215-0.04569-0.96032-0.49096 2e-3 -0.98108-2e-3 -1.4712 4e-3 -0.02908 0.33893 0.11215 0.741-0.11049 1.0342-0.21931 0.28992-0.75346 0.13125-0.76426-0.23427-0.01246-0.74598-0.0017-1.4928-0.0042-2.2388 0.0017-0.60476 0.37881-1.1879 0.93041-1.4363m0.16947 0.91961c-0.31152 0.27331-0.21848 0.72356-0.22928 1.0907 0.49262 2e-3 0.98523-0.01 1.4779-3e-3 -0.01329-0.34475 0.0731-0.74848-0.18276-1.0293-0.26002-0.31235-0.77506-0.34807-1.0658-0.0581z"/>
  <path d="m17.296 21.552c0.42284-0.10218 0.86976-0.0224 1.3026-0.0482 0.6056-0.0291 1.2062 0.32398 1.4646 0.87392 0.18608 0.35056 0.14205 0.75844 0.14454 1.1406-0.0058 0.30321 0.01578 0.60725-0.01329 0.90963-0.09969 0.68618-0.72106 1.2718-1.4205 1.2926-0.42034 8e-3 -0.83986 3e-3 -1.2594 3e-3 -0.25088 0.0224-0.49428-0.20519-0.46936-0.46022 0.0025-1.0833-0.01163-2.1674-0.0075-3.2514-0.01994-0.18941 0.0839-0.38047 0.25835-0.46022m0.63135 0.8598c5e-3 0.8033 0.02908 1.6058 0.01661 2.4082 0.38047-0.039 0.83155 0.11547 1.1555-0.14454 0.31567-0.26915 0.17528-0.72107 0.20186-1.0799-0.02492-0.33893 0.09803-0.75761-0.18442-1.0185-0.32647-0.28577-0.79666-0.12793-1.1896-0.16531z"/>
  <path d="m21.534 21.56c0.27081-0.17529 0.66541 0.0615 0.65793 0.37714 8.3e-4 1.1082 0.01246 2.2164 0.01 3.3246 0.01662 0.24257-0.2002 0.46354-0.44194 0.45772-0.24756 0.0108-0.46936-0.21515-0.45191-0.46354-0.0091-1.0774 0.0075-2.1566-0.01-3.234-0.01744-0.18442 0.06895-0.37383 0.23592-0.46188z"/>
  <path d="m24.363 21.569c0.7111-0.23758 1.5684 0.0681 1.9273 0.73602 0.24008 0.38878 0.18276 0.85814 0.18774 1.2926-0.01 0.35971 0.0432 0.73436-0.09304 1.0774-0.22097 0.63301-0.88056 1.0725-1.5501 1.0351-0.78586 6e-3 -1.5244-0.64797-1.5576-1.443-0.01329-0.41868-0.0083-0.83736-0.0042-1.256 0.01578-0.64547 0.47102-1.2536 1.0899-1.4421m0.25171 0.82989c-0.2542 0.0964-0.4652 0.33894-0.47102 0.61889-0.0066 0.38629-0.0066 0.77257 0 1.1597 0.0091 0.4436 0.51172 0.77506 0.92792 0.64796 0.31983-0.0822 0.56323-0.39625 0.54246-0.7302 0-0.38546 0.0216-0.77174-0.01246-1.1555-0.07975-0.4328-0.58067-0.69531-0.9869-0.5408z"/>
 </g>
</svg>
