<svg width="680.36pt" height="522.42pt" version="1.1" viewBox="0 0 680.36 522.42" xmlns="http://www.w3.org/2000/svg">
 <path d="m20.62 262.55c7.85-2.34 14.67-6.98 22.12-10.19 2.32-1.26 5.05 0.81 5.22 3.23 0.44 7.64-0.95 15.22-0.91 22.86 0.1 6.37-0.78 12.7-0.62 19.07 0.05 42.67-0.02 85.33 0.04 127.99 0.44 5.48 0.12 11.77 4.19 16.07 3.66 4.48 9.82 4.87 14.61 7.5 2.34 2.11 0.82 5.63-0.52 7.9-6.69 1.44-13.4-0.74-20.1-1.04-12.3-1.5-24.69 0.11-36.9 1.66-2.35 0.62-4.19-1.19-5.98-2.37-0.4-4.72 4.32-6.76 7.39-9.27 5.44-4.01 8-10.89 7.85-17.49-0.02-45.33 0-90.65-0.01-135.98-0.27-4.72 0.13-10.22-3.38-13.92-3.48-3.05-8.48-1.88-12.47-3.56-1.87-2.4-1.57-7.19 1.72-8.27 5.72-2.16 12.05-1.91 17.75-4.19z" fill="#512f90"/>
 <path d="m321.51 279.46c3.89-4.49 7.56-9.51 13.01-12.21 5.88 3.38 10.07 8.92 14.03 14.28 2.53 3.63 5.32 8.41 2.93 12.82-3.21 6.07-8.15 11.06-13.29 15.53-1.77 1.44-4.17 2.84-6.45 1.67-4.68-2.02-7.93-6.23-11.2-9.98-2.34-3.01-5.02-6.19-5.51-10.1 0.49-4.67 3.77-8.39 6.48-12.01z" fill="#512f90"/>
 <path d="m310.7 345.56c12.78-2.07 24.58-7.74 36.03-13.54 0.59 0.32 1.78 0.97 2.37 1.3 0.55 2.36 1.01 4.78 0.74 7.23-0.86 9.28-0.54 18.62-0.6 27.94 0.01 18.65 0 37.3 0.01 55.95 0.27 5.89 0.22 12.52 4.35 17.23 3.4 4.18 9.14 4.67 13.61 7.16 2.71 1.27 3.24 5.25 1.1 7.28-1.76 1.57-4.3 1.81-6.54 1.49-8.67-1.01-17.34-2.44-26.08-2.31-6.63 0.61-13.32 0.58-19.9 1.66-3.13 0.49-6.34 0.87-9.43-0.08-0.97-2.1-2.29-5.06-0.12-6.9 3.2-2.48 7.27-3.94 9.7-7.36 2.8-3.71 3.59-8.53 3.57-13.08-0.03-17.02-0.02-34.05-0.01-51.08-0.03-4.94 0.3-9.96-0.89-14.81-0.76-2.85-2.82-5.41-5.73-6.23-3.83-1.06-7.88-1.18-11.63-2.56 0-2.11-0.68-4.43 0.36-6.37 2.58-2.02 5.97-2.33 9.09-2.92z" fill="#512f90"/>
 <path d="m237.45 335.24c3.09-1.31 7.42-4.14 9.7-0.14-0.22 8.9-0.79 17.78-0.88 26.69 6.64-8.16 12.91-17.09 22.19-22.49 4.73-2.8 10.79-1.67 15.23 1.2 4.97 3.15 10.2 6.98 12.36 12.68 1.48 6.56-2.5 12.67-5.56 18.15-2.05 2.97-4.6 7.43-8.84 6.62-5.57-2.22-9.42-7.25-14.92-9.64-4.96-2.67-11.89-1.92-15.41 2.72-4.04 5.62-4.68 12.81-5.04 19.51-0.01 12.29-0.04 24.59 0.02 36.89 0.1 5.85 1.37 12.5 6.74 15.83 4.57 3.9 11.43 2.96 15.88 6.89 3.04 3.65-1.29 7.99-5.23 7.56-10.36-0.53-20.64-2.6-31.04-2.45-8.24 0.59-16.52 0.92-24.67 2.34-2.63 0.58-5.93-1.16-5.93-4.09-0.71-3.1 2.49-4.66 4.64-5.99 3.33-1.8 6.35-4.46 7.87-7.99 1.84-4.08 1.76-8.65 1.76-13.03-0.07-18.31 0.06-36.63-0.06-54.94-0.17-3.99 0.12-8.67-3.02-11.66-3.91-4.11-10.18-2.73-15.03-4.85-0.31-2.16-1.06-4.64 0.42-6.54 2.68-1.86 6.05-2.19 9.15-2.93 10.32-2.04 20.17-5.88 29.67-10.34z" fill="#512f90"/>
 <path d="m429.3 337.78c11.96-2.01 24.88-1.49 35.79 4.28 6.27 3.25 12.8 7.93 14.08 15.39-2.33 7.93-9.58 13.12-16.63 16.62-2.36 1.32-5.73 1.23-6.87-1.59-2.31-5.78-3.37-12.34-7.84-17.02-5.56-6.68-15.12-8.1-23.27-6.7-6.33 0.98-12.11 4.72-15.56 10.11-4.96 7.51-5.99 16.79-6.01 25.58 0.09 14.39 2.86 29.38 11.38 41.3 5.37 7.87 13.69 14.04 23.22 15.61 7.33 1.37 14.96 0.39 21.96-2.07 7.54-2.59 14.03-7.36 21.11-10.9 1.53-0.82 3.33-0.61 5.02-0.77 1.73 4.69-0.6 9.52-4.14 12.65-12.58 11.34-28.82 18.89-45.8 20.04-15.66 1.69-32.8-2.16-44.09-13.73-8.63-8.14-13.75-19.48-15.3-31.15-2.5-16.58 0.54-34.28 9.93-48.34 9.99-14.64 25.29-26.29 43.02-29.31z" fill="#512f90"/>
 <path d="m93.75 341.2c9.02 0.39 17.96-0.99 26.94-1.45 3.05-0.48 6.06 2.54 5.15 5.61-3.11 4.7-9.52 4.48-13.78 7.54-2.53 3.36-0.94 8.15 0.49 11.7 7.8 15.2 15.39 30.51 23.13 45.75 1.51 3.38 3.36 6.65 5.98 9.33 2.54-2.3 4.84-4.95 5.97-8.24 4.68-12.33 9.45-24.62 14.03-36.98 1.95-6.65 3.92-14.6-0.06-20.89-3.26-5.03-10.35-2.88-14.54-6.43-1.52-1.79-0.1-4.08 0.14-6.06 10.31-3.25 20.98 1.74 31.44-0.36 4.3-0.28 10.41-2.52 13.34 1.87 1.3 3.19-2.6 4.91-4.54 6.65-4.33 2.77-6.97 7.34-8.94 11.96-20.9 50.41-42.15 100.67-63 151.09-1.47 3.5-3.05 7.68-7.03 8.94-4.49 1.49-9.49 1.44-14.09 0.6-3.25-0.92-1.94-5.07-0.58-7.07 9.43-14.99 18.57-30.15 27.86-45.22 2.28-3.62 4.89-7.51 4.51-12-0.48-4.85-3.31-8.99-5.33-13.3-13.26-26.7-26.96-53.17-40.13-79.91-2.71-5.54-6.1-11.03-11.35-14.49-2-1.78-5.24-3.04-5.5-6.04 0.54-1.86 2.26-2.92 3.61-4.15 8.75 0.72 17.47 1.96 26.28 1.55z" fill="#512f90"/>
 <path d="m549.71 360.44c5.41-4.81 12.48-9.06 20.01-7.71 2.34 0.42 5.33 1.97 5.05 4.77-0.25 5.23-2.15 10.6-6.12 14.16-2.13-2.36-3.51-5.23-5.25-7.85-2.19-3.43-7.72-2.52-9.6 0.76-2.75 4.45-2.59 9.92-3.15 14.95-0.15 5.82-0.53 11.71 0.39 17.5 3.88-0.29 8.21 0.84 11.68-1.42 1.16-0.65 2.32-1.27 3.5-1.88 0.06 2.43-0.43 4.82-1.27 7.1-0.53 0.8-1.05 1.62-1.56 2.45-4.09 0.82-8.27 0.64-12.41 0.62-1.03 11.18-0.19 22.43-0.49 33.64 0.11 3.75-0.28 7.94 1.95 11.2 1.93 2.41 5.21 2.83 7.84 4.15 0.13 1.39 0.06 2.79 0.04 4.19-5.6 0.46-11.09-1.12-16.68-0.95-5.22-0.11-10.34 1.28-15.56 0.98-1.33-3.73 2.86-5.1 4.81-7.39 3.34-3.59 2.13-8.85 2.35-13.28-0.26-10.83 0.5-21.7-0.41-32.49-3.21-0.3-6.83 0.65-9.75-0.81 0.02-1.98-0.4-4.59 1.53-5.83 2.44-0.46 4.94-0.22 7.4-0.53 2.06-3.43 1.41-7.63 1.99-11.42 0.94-9.75 6.39-18.6 13.71-24.91z" fill="#512f90"/>
 <path d="m569.7 400.77c7.81-1.53 15.13-4.6 22.33-7.88 2.22 3.69 0.68 8.11 0.52 12.12 5.79-5.28 12.71-10.77 21.06-10.02 7.24-0.14 12.81 5.52 15.54 11.74 4.91-4.49 9.98-9.34 16.58-11.13 5.4-1.3 11.67-0.85 16.18 2.68 4.36 3.47 6.32 8.99 7.3 14.29 1.64 9.86 0.56 19.88 1.01 29.81 0.22 2.68 0.69 5.76 3.03 7.48 2.11 1.38 4.61 2.01 6.78 3.3 0.73 1.1 0.01 2.53 0.08 3.78-5.51 0.71-10.93-0.93-16.42-0.83-5.14-0.03-10.2 1.05-15.34 1.1-1.85-4.1 3.12-5.44 4.96-8.15 2.14-3.44 1.47-7.73 1.61-11.57-0.24-8.97 0.89-18.35-2.47-26.89-3.18-8.74-18.45-8.02-20.68 1.03-1.2 5.22-0.51 10.62-0.69 15.93 0.17 6.29-0.53 12.69 0.85 18.88 1.17 4.42 6.26 5.02 9.72 6.9-0.55 1.46-0.25 4.01-2.5 3.81-4.2 0.23-8.33-1.01-12.53-1-5.4-0.34-10.7 1.11-16.08 0.89l-0.8-2.6c2.4-2.52 6.02-4.57 6.35-8.38 0.76-7.49 0.46-15.04 0.24-22.54-0.15-5.19-0.6-10.73-3.65-15.11-3.12-4.33-9.4-4.62-14.04-3-4.47 1.58-5.92 6.69-6.05 10.98-0.12 7.68-0.05 15.37-0.05 23.06 0.25 3.46 0.07 7.63 2.98 10.1 2.35 1.72 5.24 2.47 7.88 3.67-0.12 1.27-0.24 2.54-0.35 3.83-5.83 0.56-11.55-1.14-17.36-0.93-5.21-0.14-10.32 1.31-15.53 0.89-0.1-1.08-0.15-2.15-0.13-3.21 1.74-1.63 3.94-2.7 5.53-4.48 1.82-2.53 1.67-5.81 1.71-8.77-0.05-9.04 0.01-18.08-0.02-27.12-0.16-2.41-0.13-5.51-2.5-6.88-2.1-0.86-4.41-1.01-6.56-1.67-0.7-1.58-0.7-3.97 1.51-4.11z" fill="#512f90"/>
 <g transform="matrix(20.87 0 0 20.87 5771.6 -8009.9)" fill="#512f90">
  <g class="st0" display="none">
   <path class="st4" d="m-254.5 392.1c-1.1 0-2.1-0.8-2.2-1.9h2.1c0.2 0 0.7 0.1 0.7 0.1v-0.9h-2.9c0.2-1.1 1.1-1.9 2.2-1.9 0.6 0 1.3 0.3 1.3 0.3v-1s-0.5-0.2-1.3-0.2c-1.9 0-3.5 1.4-3.5 3.2 0 2 1.6 3.3 3.5 3.3 0.9 0 1.4-0.2 1.4-0.2v-1c0.1-0.1-0.5 0.2-1.3 0.2" display="inline"/>
   <path class="st4" d="m-260.8 393s0.1-0.5 0.1-0.9v-4.5h-1.8v-1h5v1h-2v4.5c0 0.4 0.1 0.9 0.1 0.9h-1.4z" display="inline"/>
   <path class="st4" d="m-253.1 386.1c-0.4-0.1-0.8-0.2-1.2-0.2-1.1 0-2 0.3-2.8 1v-0.8c0.8-0.6 1.8-0.8 2.8-0.8 0.5 0 0.8 0.1 1.3 0.2l-0.1 0.6z" display="inline"/>
   <path class="st4" d="m-263.1 392.1-1.7-1.7c1.1-0.1 2-0.9 2-1.9 0-1.1-0.6-2-2.5-2.1h-0.2c-1.3 0-2.2 0.1-2.2 0.1s0.1 0.6 0.1 0.9v4.7c0 0.4-0.1 0.9-0.1 0.9h1.3s-0.1-0.4-0.1-1v-1.9l1.2 1.3 0.6 0.6c0.4 0.4 1 0.9 1 0.9h1.7c0.1 0.1-0.7-0.4-1.1-0.8m-2.5-2.4h-0.9v-2.3h1.2c0.9 0.1 1.2 0.5 1.2 1.1s-0.5 1.1-1.2 1.2h-0.3" display="inline"/>
  </g>
  <g class="st0" display="none">
   <path class="st4" d="m-279.1 399.1h0.3c1.2 0 2.2 0.1 2.2 1.6 0 1.4-1.1 1.6-2.2 1.6h-0.3v-3.2zm0 4.1h0.2l2.7 3.9h1.2l-2.8-4c1.3-0.1 2.2-1.1 2.2-2.4 0-2-1.5-2.4-3.2-2.4h-1.3v8.8h1v-3.9z" display="inline"/>
   <path class="st4" d="m-264.6 406.1v-7h0.7c1 0 1.9 0.1 2.7 0.9 0.8 0.7 1.1 1.6 1.1 2.6s-0.4 1.9-1.1 2.6c-0.8 0.8-1.7 0.9-2.8 0.9h-0.6zm-1 0.9h1.6c1.4 0 2.4-0.2 3.5-1.1 1-0.9 1.4-2 1.4-3.3s-0.5-2.5-1.5-3.4-2.1-1.1-3.4-1.1h-1.6v8.9z" display="inline"/>
   <polygon class="st4" points="-257.7 398.2 -256.8 398.2 -256.8 407 -256.8 407 -257.7 407" display="inline"/>
   <path class="st4" d="m-250.9 399c2 0 3.6 1.6 3.6 3.6s-1.6 3.6-3.6 3.6-3.6-1.7-3.6-3.6c0-2 1.6-3.6 3.6-3.6zm0-0.9c-2.5 0-4.6 2-4.6 4.6 0 2.5 2.1 4.5 4.6 4.5s4.6-2 4.6-4.5c0-2.6-2.1-4.6-4.6-4.6z" display="inline"/>
   <polygon class="st4" points="-240.5 407 -241.4 407 -241.4 399.2 -242.9 399.2 -242.9 399.2 -242.4 398.2 -240.5 398.2" display="inline"/>
   <path class="st4" d="m-270.3 398.2h-0.4l-3.9 8.8h1.1l1.1-2.5h3.7l1 2.5h1.1l-3.7-8.8zm-1.7 5.4 1.5-3.5 1.5 3.5h-3z" display="inline"/>
  </g>
  <path class="st3" d="m-252.4 392.6c-1.5 0-2.7-1.1-3-2.6h2.8c0.3 0 1 0.1 1 0.1v-1.2h-3.8c0.3-1.5 1.5-2.5 3-2.5 0.8 0 1.7 0.4 1.7 0.4v-1.3s-0.7-0.3-1.7-0.3c-2.5 0-4.6 1.9-4.6 4.3 0 2.6 2.2 4.4 4.6 4.4 1.2 0 1.9-0.3 1.9-0.3v-1.4c-0.1 0-0.9 0.4-1.9 0.4"/>
  <path class="st3" d="m-260.8 393.9s0.1-0.6 0.1-1.2v-6h-0.4c-0.6 0-1.4 0-2 0.1l-0.1-1.4h6.6v1.4c-0.7-0.1-1.5-0.1-2.1-0.1h-0.5v6c0 0.6 0.1 1.2 0.1 1.2h-1.7z"/>
  <path class="st3" d="m-250.6 384.7c-0.5-0.1-1.1-0.2-1.6-0.2-1.4 0-2.7 0.4-3.7 1.4v-1c1.1-0.7 2.3-1.1 3.7-1.1 0.6 0 1.1 0.1 1.7 0.2l-0.1 0.7z"/>
  <path class="st3" d="m-267.1 389.5h-1.2v-3.1h1.6c1.1 0.1 1.6 0.7 1.6 1.5s-0.7 1.5-1.6 1.6h-0.4m3.3 3.2-2.3-2.2c1.4-0.1 2.6-1.2 2.6-2.5 0-1.4-0.8-2.7-3.3-2.8h-0.3c-1.7 0-2.9 0.1-2.9 0.1s0.1 0.8 0.1 1.3v6.2c0 0.6-0.1 1.2-0.1 1.2h1.7s-0.1-0.6-0.1-1.3v-2.5l1.6 1.7 0.8 0.8c0.5 0.5 1.4 1.3 1.4 1.3h2.3c0-0.1-1-0.8-1.5-1.3"/>
 </g>
</svg>
