<svg width="499.68pt" height="274.58pt" version="1.1" viewBox="0 0 499.68 274.58" xmlns="http://www.w3.org/2000/svg">
 <path d="m360.06 160.39c13.8-1.97 28.31 1.11 39.84 9.02 14.35 9.3 24.03 25.34 25.58 42.36 1.37 13.29-2.17 27.04-9.83 37.99-8.85 13.07-23.39 21.93-38.96 24.23-12.3 1.7-25.26-0.28-36.12-6.45-14.16-7.47-24.78-21.33-28.36-36.93-3.47-14.62-1.07-30.67 7-43.4 8.81-14.32 24.1-24.66 40.85-26.82m-1.15 11.9c-9.87 2.14-19 7.6-25.36 15.47-8.61 10.44-12.43 24.8-9.69 38.1 2.5 13.16 10.96 25.17 22.81 31.52 10.34 5.96 23.19 7.25 34.57 3.74 19.59-5.9 33.53-26.07 32.07-46.48-0.66-15.14-9.46-29.62-22.56-37.2-9.48-5.59-21.08-7.48-31.84-5.15z" fill="#54a0d4"/>
 <path d="m0 161.65c11.86-0.14 24-0.83 35.59 2.21 8.87 2.21 17.07 8.65 19.48 17.74 2.89 10.44 1.69 22.67-5.41 31.21-5.08 6.21-12.93 9.51-20.8 10.19 11.84 16.56 23.46 33.34 35.31 49.88h-14.92c-11.61-16.07-22.57-32.57-33.82-48.9-1.08 0.07-2.15 0.16-3.22 0.24l0.09 48.66h-12.27l-0.03-111.23m12.24 11.48 0.02 39.87c8.24 0.23 17.03 0.13 24.35-4.17 6.41-3.81 8.29-12.09 7.4-19.03-0.35-5.68-3.54-11.29-8.8-13.72-7.15-3.35-15.28-2.88-22.97-2.95z" fill="#54a0d4"/>
 <path d="m69.39 272.82 48.9-111.37h4.52l47.55 111.43h-13.9l-12.86-31.64-47.29-0.02-13.48 31.66h-13.44m50.8-87.34-18.67 44.02 36.96 0.01z" fill="#54a0d4"/>
 <path d="m181.92 161.84c11.18 0.01 22.4-0.55 33.56 0.43 12.42 1.03 24.35 6.48 33.2 15.25 20.57 20.4 20.95 57.44 0.74 78.23-7.8 8.17-18.17 14.01-29.38 15.79-12.58 1.83-25.36 1.27-38.03 1.2l-0.09-110.9m12.4 11.42 0.14 88.02c9.65-0.06 19.57 0.44 28.87-2.66 14.1-4.58 24.74-17.56 27.62-31.96 2.71-13-0.32-27.25-8.62-37.68-5.88-7.45-14.47-12.66-23.79-14.44-7.95-1.84-16.14-1.09-24.22-1.28z" fill="#54a0d4"/>
 <path d="m281.62 161.54h12.11l0.16 111.31-12.17 0.03z" fill="#54a0d4"/>
 <path d="m475.06 161.8h24.62v111.1h-12.38v-99.47h-18.51z" fill="#54a0d4"/>
 <g transform="matrix(13.253 0 0 13.253 3698.9 -5086.4)" fill="#54a0d4">
  <g class="st0" display="none">
   <path class="st4" d="m-254.5 392.1c-1.1 0-2.1-0.8-2.2-1.9h2.1c0.2 0 0.7 0.1 0.7 0.1v-0.9h-2.9c0.2-1.1 1.1-1.9 2.2-1.9 0.6 0 1.3 0.3 1.3 0.3v-1s-0.5-0.2-1.3-0.2c-1.9 0-3.5 1.4-3.5 3.2 0 2 1.6 3.3 3.5 3.3 0.9 0 1.4-0.2 1.4-0.2v-1c0.1-0.1-0.5 0.2-1.3 0.2" display="inline"/>
   <path class="st4" d="m-260.8 393s0.1-0.5 0.1-0.9v-4.5h-1.8v-1h5v1h-2v4.5c0 0.4 0.1 0.9 0.1 0.9h-1.4z" display="inline"/>
   <path class="st4" d="m-253.1 386.1c-0.4-0.1-0.8-0.2-1.2-0.2-1.1 0-2 0.3-2.8 1v-0.8c0.8-0.6 1.8-0.8 2.8-0.8 0.5 0 0.8 0.1 1.3 0.2l-0.1 0.6z" display="inline"/>
   <path class="st4" d="m-263.1 392.1-1.7-1.7c1.1-0.1 2-0.9 2-1.9 0-1.1-0.6-2-2.5-2.1h-0.2c-1.3 0-2.2 0.1-2.2 0.1s0.1 0.6 0.1 0.9v4.7c0 0.4-0.1 0.9-0.1 0.9h1.3s-0.1-0.4-0.1-1v-1.9l1.2 1.3 0.6 0.6c0.4 0.4 1 0.9 1 0.9h1.7c0.1 0.1-0.7-0.4-1.1-0.8m-2.5-2.4h-0.9v-2.3h1.2c0.9 0.1 1.2 0.5 1.2 1.1s-0.5 1.1-1.2 1.2h-0.3" display="inline"/>
  </g>
  <g class="st0" display="none">
   <path class="st4" d="m-279.1 399.1h0.3c1.2 0 2.2 0.1 2.2 1.6 0 1.4-1.1 1.6-2.2 1.6h-0.3v-3.2zm0 4.1h0.2l2.7 3.9h1.2l-2.8-4c1.3-0.1 2.2-1.1 2.2-2.4 0-2-1.5-2.4-3.2-2.4h-1.3v8.8h1v-3.9z" display="inline"/>
   <path class="st4" d="m-264.6 406.1v-7h0.7c1 0 1.9 0.1 2.7 0.9 0.8 0.7 1.1 1.6 1.1 2.6s-0.4 1.9-1.1 2.6c-0.8 0.8-1.7 0.9-2.8 0.9h-0.6zm-1 0.9h1.6c1.4 0 2.4-0.2 3.5-1.1 1-0.9 1.4-2 1.4-3.3s-0.5-2.5-1.5-3.4-2.1-1.1-3.4-1.1h-1.6v8.9z" display="inline"/>
   <polygon class="st4" points="-257.7 398.2 -256.8 398.2 -256.8 407 -256.8 407 -257.7 407" display="inline"/>
   <path class="st4" d="m-250.9 399c2 0 3.6 1.6 3.6 3.6s-1.6 3.6-3.6 3.6-3.6-1.7-3.6-3.6c0-2 1.6-3.6 3.6-3.6zm0-0.9c-2.5 0-4.6 2-4.6 4.6 0 2.5 2.1 4.5 4.6 4.5s4.6-2 4.6-4.5c0-2.6-2.1-4.6-4.6-4.6z" display="inline"/>
   <polygon class="st4" points="-240.5 407 -241.4 407 -241.4 399.2 -242.9 399.2 -242.9 399.2 -242.4 398.2 -240.5 398.2" display="inline"/>
   <path class="st4" d="m-270.3 398.2h-0.4l-3.9 8.8h1.1l1.1-2.5h3.7l1 2.5h1.1l-3.7-8.8zm-1.7 5.4 1.5-3.5 1.5 3.5h-3z" display="inline"/>
  </g>
  <path class="st3" d="m-252.4 392.6c-1.5 0-2.7-1.1-3-2.6h2.8c0.3 0 1 0.1 1 0.1v-1.2h-3.8c0.3-1.5 1.5-2.5 3-2.5 0.8 0 1.7 0.4 1.7 0.4v-1.3s-0.7-0.3-1.7-0.3c-2.5 0-4.6 1.9-4.6 4.3 0 2.6 2.2 4.4 4.6 4.4 1.2 0 1.9-0.3 1.9-0.3v-1.4c-0.1 0-0.9 0.4-1.9 0.4"/>
  <path class="st3" d="m-260.8 393.9s0.1-0.6 0.1-1.2v-6h-0.4c-0.6 0-1.4 0-2 0.1l-0.1-1.4h6.6v1.4c-0.7-0.1-1.5-0.1-2.1-0.1h-0.5v6c0 0.6 0.1 1.2 0.1 1.2h-1.7z"/>
  <path class="st3" d="m-250.6 384.7c-0.5-0.1-1.1-0.2-1.6-0.2-1.4 0-2.7 0.4-3.7 1.4v-1c1.1-0.7 2.3-1.1 3.7-1.1 0.6 0 1.1 0.1 1.7 0.2l-0.1 0.7z"/>
  <path class="st3" d="m-267.1 389.5h-1.2v-3.1h1.6c1.1 0.1 1.6 0.7 1.6 1.5s-0.7 1.5-1.6 1.6h-0.4m3.3 3.2-2.3-2.2c1.4-0.1 2.6-1.2 2.6-2.5 0-1.4-0.8-2.7-3.3-2.8h-0.3c-1.7 0-2.9 0.1-2.9 0.1s0.1 0.8 0.1 1.3v6.2c0 0.6-0.1 1.2-0.1 1.2h1.7s-0.1-0.6-0.1-1.3v-2.5l1.6 1.7 0.8 0.8c0.5 0.5 1.4 1.3 1.4 1.3h2.3c0-0.1-1-0.8-1.5-1.3"/>
 </g>
</svg>
