<svg width="800" height="504.38" data-name="Layer 1" version="1.1" viewBox="0 0 600.01 378.24" xmlns="http://www.w3.org/2000/svg">
 <path class="cls-1" d="m343.45 331.94a21.06 21.06 0 0 1-20.681 21.312h-223.08a21.06 21.06 0 0 1-20.681-21.312v-48.551a21.06 21.06 0 0 1 20.681-21.942h223.08a21.06 21.06 0 0 1 20.681 21.312v48.677z" fill="#70ad51" stroke-width="12.611"/>
 <path class="cls-2" d="m368.1 284.34c0.35096-26.314-20.848-47.852-47.164-47.92h-219.42c-26.316 0.0681-47.518 21.606-47.167 47.92l0.0036 46.659c2e-3 26.069 21.095 47.22 47.164 47.29h219.42c26.069-0.0694 47.164-21.221 47.164-47.29z" fill="#fff" stroke-width="12.611"/>
 <path d="m573.22 145.1c-9.831-9.8272-22.323-15.039-36.129-15.039h-9.0636c-8.3456 0-16.445 1.4551-24.038 4.3164-1.7952-2.6004-3.8477-5.0572-6.0588-7.2947-9.8272-9.8272-22.322-15.028-36.115-15.028-4.1992 0-8.4249 0.53305-12.546 1.5836-2.2494-17.174-9.6601-32.32-22.179-45.073l-0.10341-0.0794c-2.1587-2.2338-4.707-4.4865-7.4631-6.6825-0.23392-2.7931-0.65007-5.4616-1.2742-7.8655-2.5094-9.4265-7.0839-17.575-13.601-24.246-10.466-10.685-23.895-16.253-38.858-16.056-14.585 0.10215-27.316 5.5107-37.793 16.12h0.0643c-0.32485 0.24943-0.63885 0.53292-0.91086 0.80506l-2.3133 2.264-7.0226 6.8639-10.269 10.024-0.0795 0.0908-0.35158 0.37781c-2.4565 2.6533-4.5466 5.6053-6.2248 8.7235-12.833-12.091-28.279-18.253-45.961-18.253h-2.5323c-4.4751-6.2818-9.8688-11.781-16.215-16.241-11.675-8.3719-24.738-12.636-38.779-12.636-18.565 0-34.649 6.6711-47.768 19.839-3.534 3.4848-6.603 7.359-9.2451 11.558-5.8736-1.6366-11.906-2.5211-18.018-2.5211h-14.574c-26.262 0-49.068 9.4907-67.815 28.264-18.709 18.694-28.234 41.587-28.234 68.019v28.654c0 18.736 6.6144 34.806 19.579 47.805 13.002 13.002 29.104 19.594 47.828 19.594 18.58 0 34.558-6.5918 47.586-19.594 7.9298-7.9411 13.482-17.095 16.654-27.289 4.1085 6.8261 9.1128 13.183 14.979 18.981 18.876 18.512 41.651 27.901 67.682 27.901h14.532c18.422 0 34.467-6.656 47.597-19.812 1.8067-1.8219 3.4962-3.7986 5.1365-5.8509 17.81 17.121 39.365 25.808 64.096 25.728l27.418-0.0378c2.6912 0 5.4616-0.24944 8.2283-0.61224-0.0769 0.92221-0.1034 1.8331-0.1034 2.6646 0 13.705 5.1479 26.095 14.873 35.847 9.8416 9.8158 22.283 15.002 35.96 15.002 18.916 0 35.337-6.7732 48.769-20.138l0.0643-0.0908 0.0265-0.0265s0.25549-0.29849 0.41564-0.4309c5.4579 1.9504 11.192 2.9784 17.095 2.9784 13.887 0 26.367-5.1479 36.129-14.899 7.3061-7.3439 12.102-16.498 14.004-26.548 4.7435-2.4038 9.1393-5.5372 12.923-9.3094 9.8007-9.8385 15.028-22.372 15.028-36.243 0-13.807-5.2272-26.303-15.028-36.107" fill="#88b94c" stroke-width="12.611"/>
 <path d="m563.96 154.32c-7.4233-7.4384-16.461-11.222-26.873-11.222h-9.0636c-10.984 0-21.008 2.967-29.874 8.7121-1.7575-5.7716-4.9401-10.972-9.4642-15.512-7.4508-7.4082-16.473-11.192-26.887-11.192-9.8158 0-18.396 3.3413-25.573 9.88 0.54604-3.3677 0.80607-6.7618 0.80607-10.13v-0.13998c-0.0378-18.268-6.5914-34.104-19.359-47.079h-0.0126c-3.263-3.4168-6.9676-6.4859-10.948-9.1506 0.0151-0.18147 0.10719-1.7047 0.10719-1.7047 0-3.2883-0.41565-6.5124-1.198-9.5927-1.9106-7.1397-5.3954-13.338-10.324-18.384-7.9826-8.1906-17.889-12.235-29.315-12.129h-0.13229c-11.063 0.10214-20.709 4.2484-28.707 12.348l-20.282 19.828-0.20782 0.19635c-3.9762 4.3015-6.433 9.2944-7.3439 14.884-2.6383 2.041-5.1895 4.2899-7.582 6.6295-2.351-3.9006-5.1592-7.5517-8.4627-10.855-10.61-10.636-23.491-15.991-38.353-15.991h-9.6457c-3.9649-7.3969-9.5323-13.664-16.642-18.641-9.4379-6.7996-19.971-10.247-31.228-10.247-14.99 0-27.954 5.3708-38.576 16.007-5.42 5.4314-9.5172 11.687-12.17 18.603-7.3969-3.8099-15.546-5.7224-24.284-5.7224h-14.585c-22.647 0-42.332 8.2057-58.585 24.417-16.215 16.188-24.417 35.975-24.417 58.804v28.654c0 15.134 5.3294 28.12 15.799 38.587 10.432 10.466 23.434 15.757 38.561 15.757 14.99 0 27.901-5.2915 38.341-15.757 10.61-10.61 16.014-23.608 16.014-38.587v-4.3164c4.1992-0.82019 8.2322-2.143 12.027-3.9271 3.4962 14.521 10.855 27.471 21.987 38.47 16.366 15.991 36.05 24.118 58.555 24.118h14.521c14.85 0 27.774-5.3671 38.379-15.991 5.5788-5.5637 9.7137-11.883 12.405-18.785 2.7441 3.9006 5.8509 7.6576 9.2678 11.127 15.64 15.821 34.738 23.804 56.725 23.756l27.433-0.0795c11.324-0.0265 21.374-3.224 30.032-9.4114-0.61124 0.72574-1.2091 1.44-1.7681 2.196-4.667 6.5124-7.0483 14.015-7.0483 22.312 0 10.322 3.7345 19.28 11.053 26.612 7.4236 7.4232 16.408 11.192 26.731 11.192 15.367 0 28.707-5.5107 39.615-16.408 2.2741-2.2225 4.3152-4.6679 6.1636-7.2154 6.0324 3.9006 12.945 5.9039 20.592 5.9039 10.504 0 19.541-3.7192 26.873-11.052 7.2947-7.2947 11.052-16.173 11.169-26.417 5.9152-1.7689 11.244-4.9287 15.757-9.4416 7.4497-7.461 11.233-16.536 11.233-27.028 0-10.413-3.7833-19.435-11.233-26.884" fill="#cfcb3a" stroke-width="12.611"/>
 <path d="m342.94 80.178c0.14364 0.14363 0.28727 0.30993 0.28727 0.30993s22.802-1.0923 22.958-1.115c4.9174 0.11715 8.7386-2.1468 11.105-6.5804l0.0378-0.0907 0.0265-0.0378c2.4718-5.2424 1.7046-10.114-2.2338-14.133-2.2263-2.317-5.008-3.5491-8.2586-3.7456-3.2618-0.17008-6.1344 0.84665-8.5799 3.054l-0.0643 0.0681-17.068 16.445-0.13229 0.17009c-0.49509 0.69925-0.74087 1.4551-0.74087 2.1809 0 0.9109 0.37794 1.784 1.1037 2.5248 0.51022 0.55939 1.0545 0.81641 1.5609 0.94869" fill="#fff" stroke-width="12.611"/>
 <path d="m122.37 91.177h-14.585c-12.443 0-23.309 4.5356-32.255 13.482-8.9389 8.9578-13.474 19.812-13.474 32.282v28.654c0 4.6263 1.7008 8.6592 5.0648 12.027 3.3639 3.3639 7.4082 5.0686 12.038 5.0686 4.615 0 8.6592-1.7047 11.932-5.095 3.2505-3.3412 4.9401-7.3855 4.9401-12v-28.654c0-3.4206 1.1339-6.2289 3.4471-8.542 2.3396-2.3169 5.0837-3.4735 8.3077-3.4735h14.585c4.6301 0 8.6327-1.6517 11.91-4.9401 3.2883-3.2997 4.9552-7.2909 4.9552-11.932 0-4.6036-1.6669-8.6327-4.9552-11.925-3.277-3.2732-7.2796-4.9514-11.91-4.9514" fill="#fff" stroke-width="12.611"/>
 <path d="m254.94 91.177h-40.669v-12c0-4.6301-1.6366-8.6327-4.9666-11.921-3.2732-3.3035-7.2796-4.9552-11.895-4.9552-4.615 0-8.644 1.6517-12.038 4.9287-3.3412 3.2883-5.0724 7.3174-5.0724 11.948v55.656h-0.0492s0.0492 2.5361 0.0492 2.5891v0.14363c0.36659 12.416 4.9552 23.128 13.705 31.89 8.8142 8.7765 19.568 13.236 32.059 13.236h14.521c4.6679 0 8.7008-1.7047 11.989-5.0951 3.2354-3.3412 4.9136-7.3855 4.9136-12 0-4.6301-1.6782-8.6327-4.9666-11.921-3.2618-3.3035-7.2947-4.9552-11.936-4.9552h-14.521c-7.4762-0.44225-11.116-3.8629-11.793-11.494v-12.299h40.669c4.615 0 8.6592-1.6517 11.921-4.9401 3.2883-3.2997 4.9401-7.2909 4.9401-11.932 0-4.6036-1.6517-8.6327-4.9401-11.925-3.2619-3.2732-7.3061-4.9514-11.921-4.9514" fill="#fff" stroke-width="12.611"/>
 <path d="m401.16 168.28v-2.3245s-0.1966-0.31375-0.21917-0.41577c0-0.0416-0.0265-2.2376-0.0265-2.2376s-0.13229-0.11728-0.22296-0.21917v-1.5609s-0.30997-0.0643-0.44225-0.11728v-0.53292s-0.24565-0.22296-0.42712-0.44226v-0.44225l-0.74075-0.75588c-1.5081-2.899-3.8477-5.265-6.9168-7.0074-0.0416 0-0.80885-0.78992-0.80885-0.78992s-0.24565 0.0227-0.46495 0.0227c-0.18147-0.23053-0.41577-0.45361-0.41577-0.45361h-1.0923c-0.24944-0.0908-0.46861-0.1285-0.71817-0.1285-0.25701-0.15877-0.55562-0.19647-0.86938-0.24944 6.6182-4.1085 10.817-10.594 12.507-19.424 0.15498-0.14363 0.3251-0.30996 0.3251-0.30996s-0.0265-1.7311-0.0265-1.7802c0.13228-0.34023 0.20782-0.75588 0.20782-1.2246v-0.67656l0.0643-0.71439 0.17012-1.7159c-0.0265-8.3341-3.0162-15.524-8.8406-21.438-5.8774-5.9151-13.051-8.8936-21.412-8.8936l-13.717 0.0416c-11.963 0.0227-22.361 4.4713-30.917 13.221-8.5534 8.7084-12.882 19.292-12.833 31.424 0 12.14 4.3807 22.712 12.975 31.394 8.595 8.6743 19.046 13.092 30.97 13.043l27.429-0.0416c5.5258-0.0265 9.8158-2.3018 12.901-6.6938h1.391v-0.43091h0.21917v-0.66142h0.41577v-1.1075h0.45739v-1.7159c0-0.0227 0-0.0227 0.0113-0.0492h0.61237v-2.4076c0.0908-0.0908 0.23431-0.20782 0.23431-0.20782v-1.7538l0.21917-0.22295" fill="#fff" stroke-width="12.611"/>
 <path d="m556.11 162.18c-5.2915-5.2915-11.622-7.9184-19.008-7.9184h-9.0636c-12.257 0-22.829 4.3807-31.617 13.183-4.1237 4.1199-7.2684 8.644-9.4394 13.573-0.53305-1.3909-1.1569-2.7705-1.8981-4.082 2.4572-4.3428 3.6533-8.9313 3.6533-13.754 0-7.3742-2.6394-13.705-7.9438-18.97-5.2654-5.318-11.61-7.9563-18.981-7.9563-7.4754 0-13.846 2.6383-19.138 7.9563-5.2001 5.1895-7.8004 11.505-7.8004 18.97 0 5.1214 1.2869 9.6835 3.8224 13.754-2.5354 4.1727-3.8224 8.7613-3.8224 13.769v18.993c-5.1872 1.8067-9.4519 4.9929-12.754 9.5702-3.3151 4.5998-4.9533 9.8385-4.9533 15.806 0 7.2834 2.5872 13.524 7.7748 18.724 5.2912 5.2878 11.584 7.9411 18.852 7.9411 12.39 0 22.985-4.3807 31.761-13.194 5.3954-5.2386 9.1007-11.207 11.194-17.836 1.1313 1.9352 2.5601 3.7948 4.276 5.5108 5.2008 5.2122 11.6 7.7862 19.14 7.7862 7.4724 0 13.845-2.5739 19.008-7.7862 5.2877-5.3029 7.9298-11.687 7.9298-19.152v-8.9313c7.4875 0 13.807-2.6118 19.008-7.8125 5.3029-5.265 7.9411-11.66 7.9411-19.11 0-7.4006-2.6383-13.717-7.9411-19.034" fill="#354b7e" stroke-width="12.611"/>
 <path d="m452.88 217.06c0 4.6566-2.1712 7.5292-6.5135 8.6592-0.54604 0.19634-1.4299 0.3401-2.5742 0.4309-2.262 0-4.3292 0.84289-6.1496 2.5475-1.8722 1.7159-2.7694 3.8213-2.7694 6.3574 0 2.4681 0.87127 4.5885 2.6006 6.3197 1.7548 1.7651 3.8612 2.6383 6.3184 2.6383 7.2025 0 13.443-2.5626 18.734-7.6576 5.3695-5.2008 8.1259-11.388 8.191-18.592v-27.081c0-2.5475-0.84491-4.7056-2.6006-6.4217-1.7422-1.7689-3.8614-2.6383-6.3057-2.6383-2.366 0-4.4331 0.84289-6.2274 2.5475-1.807 1.6896-2.7042 3.7834-2.7042 6.2251z" fill="#d7557f" stroke-width="12.611"/>
 <path d="m519.09 199.2c0-2.5626 0.88425-4.7056 2.6268-6.4368 1.7388-1.7802 3.8591-2.6383 6.3159-2.6383h9.0636c2.4568 0 4.5885-0.88451 6.3159-2.6383 1.7574-1.7159 2.6268-3.825 2.6268-6.2932 0-2.4568-0.86937-4.5506-2.6268-6.3197-1.7273-1.7538-3.8591-2.6268-6.3159-2.6268h-9.0636c-7.359 0-13.701 2.6533-18.993 7.9561-5.2915 5.2915-7.9563 11.638-7.9563 18.997v17.863c0 2.4568 0.88463 4.5771 2.7023 6.3838 1.8066 1.8067 3.9384 2.7024 6.3839 2.7024 2.4453 0 4.5506-0.89573 6.3045-2.7024 1.7574-1.8067 2.6154-3.9271 2.6154-6.3838z" fill="#dde0eb" stroke-width="12.611"/>
 <path d="m473.03 177.74-10.596-5.7073-10.674 5.5146 2.1712-11.834-8.5288-8.4892 11.909-1.5988 5.3827-10.738 5.2394 10.829 11.896 1.8483-8.7235 8.3077z" fill="#fff" stroke-width="12.611"/>
 <path d="m421.38 147.27c3.0294-7.2305 4.5375-14.759 4.5114-22.545-0.0265-15.327-5.4344-28.434-16.174-39.342-4.5508-4.7056-9.5399-8.3833-14.975-11.089 1.168-4.7586 1.285-9.7364 0.10341-14.273-1.4037-5.2688-3.902-9.7402-7.5153-13.444-5.8093-5.9416-12.933-8.8671-21.294-8.75-8.1527 0.0378-15.187 3.0955-21.075 9.1544l-19.994 19.553-0.13229 0.10215c-2.9368 3.1598-4.5356 6.8789-4.7435 11.131-0.053 0.72573-0.053 1.4023 0 2.094-4.1464 2.7137-8.0356 5.9907-11.74 9.7627-4.135 4.2257-7.6312 8.697-10.466 13.418-1.0394-9.7137-5.2009-18.192-12.48-25.456-8.4627-8.4892-18.645-12.73-30.465-12.73h-16.835c-3.0276-8.5269-8.3342-15.391-15.912-20.709-7.582-5.4616-15.848-8.1792-24.78-8.1792-11.989 0-22.221 4.237-30.694 12.742-8.2964 8.2964-12.469 18.41-12.522 30.317-0.44225-0.4913-0.88438-0.98652-1.3531-1.44-8.5006-8.4892-18.667-12.73-30.472-12.73h-14.589c-19.67 0-36.58 7.0453-50.678 21.139-14.136 14.106-21.166 31.072-21.166 50.939v28.654c0 12.129 4.1576 22.361 12.511 30.709 8.353 8.3191 18.596 12.518 30.706 12.518 11.963 0 22.127-4.1992 30.461-12.518 8.4778-8.4892 12.757-18.736 12.757-30.709v-14.313c11.974 0 22.115-4.1727 30.472-12.518 0.46861-0.45739 0.91087-0.95248 1.3531-1.4174v0.0492c0.14376 19.881 7.1889 36.689 21.139 50.497 14.275 13.951 31.178 20.932 50.731 20.932h14.521c11.846 0 22.009-4.2747 30.502-12.753 8.4741-8.5042 12.715-18.645 12.715-30.476 0-7.5782-1.886-14.627-5.6808-21.15 3.9119-2.5361 7.2796-5.5523 10.19-9.0486-0.0643 1.2473-0.10215 2.5323-0.10215 3.8061 0.053 19.152 6.8375 35.574 20.357 49.249 13.535 13.69 29.814 20.49 48.78 20.437l27.422-0.0643c11.581-0.0265 21.385-4.0934 29.316-12.22 7.9828-8.1527 11.935-18.113 11.922-29.89-0.0378-6.7883-1.5599-13.247-4.6282-19.435m-288.91-29.112c-2.7932 2.8196-6.1872 4.2257-10.099 4.2257h-14.589c-3.9384 0-7.2909 1.391-10.099 4.1992-2.7969 2.8082-4.1992 6.2516-4.1992 10.349v28.654c0 3.9536-1.4061 7.3704-4.2257 10.247-2.797 2.8726-6.1496 4.3164-10.103 4.3164-3.9384 0-7.3477-1.4439-10.22-4.3164-2.9104-2.8764-4.3466-6.2932-4.3466-10.247v-28.654c0-11.846 4.271-21.987 12.734-30.476 8.5042-8.4741 18.667-12.727 30.461-12.727h14.589c3.9119 0 7.3061 1.391 10.099 4.1841 2.8234 2.8082 4.2143 6.2175 4.2143 10.13 0 3.9649-1.391 7.3174-4.2143 10.114m132.59 0c-2.8082 2.8196-6.1496 4.2257-10.118 4.2257h-43.213v15.002c0.76723 8.9578 5.5637 13.418 14.339 13.418l14.521 0.46861c3.98 0 7.3326 1.3909 10.152 4.1878 2.797 2.8083 4.1992 6.1722 4.1992 10.126 0 3.9535-1.4023 7.3704-4.1992 10.247-2.8196 2.8726-6.1722 4.3164-10.152 4.3164h-14.521c-11.845 1e-5 -21.918-4.1765-30.268-12.522-8.3342-8.3342-12.651-18.433-12.975-30.241v-58.218c0-3.9271 1.4703-7.3061 4.3428-10.126 2.8877-2.8082 6.2932-4.1878 10.247-4.1878 3.9384 0 7.2909 1.3796 10.114 4.1878 2.8082 2.8196 4.1992 6.1986 4.1992 10.126v14.563h43.213c3.9687 0 7.3098 1.391 10.118 4.1841 2.8196 2.8082 4.1992 6.2175 4.1992 10.13 0 3.9649-1.3796 7.3174-4.1992 10.114m78.032-42.136c2.8082-2.7289 5.6166-5.473 8.4514-8.1527 2.8196-2.7024 5.6393-5.4087 8.4741-8.1641 1.8747-1.7047 4.1501-2.5211 6.7241-2.3774 2.5739 0.15486 4.77 1.1302 6.5767 2.9897 3.1598 3.2354 3.7192 6.9924 1.7159 11.233-1.9239 3.6398-4.9022 5.3936-8.8936 5.2764l-21.881 1.081c-0.0757-0.0794-0.21918-0.14376-0.41577-0.14376-0.21918 0-0.44213-0.10593-0.65008-0.3401-0.4536-0.42713-0.47996-0.92222-0.10215-1.4023m42.344 76.874c7.1626 0 12.96 6.2667 12.96 14.027 0 7.737-5.798 14.031-12.96 14.031l-28.147 0.0643c-11.297 0.0378-21.022-4.0708-29.186-12.31-8.1263-8.2171-12.223-18.075-12.235-29.591-0.0378-11.479 4.0177-21.362 12.129-29.629 8.0733-8.2964 17.772-12.431 29.096-12.469l13.732-0.0265c7.669-0.0265 14.182 2.6911 19.553 8.1263 5.42 5.4465 8.1111 12 8.1111 19.659 0 2.9519-0.62385 5.7338-0.62385 5.7338-2.2982 12.246-9.6722 19.568-22.153 21.956 0 0-0.96004 0.17012-1.3115 0.20782l-1.4968 0.24944s11.793-0.0265 12.533-0.0265" fill="#354b7e" stroke-width="12.611"/>
 <path d="m357.16 124.89c3.7569 0 6.9961 1.3645 9.6873 4.082 2.676 2.6911 4.0404 6.0588 4.0404 10.039 0 3.8326-1.3266 7.0982-4.0026 9.8385-2.6797 2.7176-5.9039 4.1237-9.6608 4.1237-3.9271 0-7.2154-1.3531-9.8914-4.082-2.7062-2.7062-4.0594-5.9832-4.0707-9.8045 0-3.9762 1.3115-7.3439 3.9914-10.088 2.7176-2.7176 5.9794-4.1085 9.9065-4.1085" fill="#354b7e" stroke-width="12.611"/>
 <path d="m581.57 136.77c-12.103-12.076-27.482-18.474-44.464-18.474h-9.0598c-6.7731 0-13.403 0.8579-19.854 2.4984-0.67265-0.70304-1.3118-1.4173-1.9351-2.0145-12.103-12.106-27.458-18.501-44.437-18.501-1.0269 0-2.0934 0.0265-3.1595 0.0794-3.9781-14.926-11.727-28.37-23.154-40.005l-0.0643-0.0795h-0.0265c-1.3911-1.4288-2.9774-2.9254-4.7584-4.4865-0.28601-1.6517-0.59786-3.2619-0.98804-4.8116 0-0.0113-0.0378-0.0908-0.0378-0.0908-3.0046-11.362-8.608-21.268-16.565-29.405-12.727-13.039-29.096-19.79-47.299-19.594h-0.11728c-17.432 0.1285-33.279 6.8261-45.813 19.413l-0.0265-0.0265-20.698 20.24s-0.38928 0.40442-0.53305 0.53292c-11.883-8.0583-25.391-12.428-40.211-13.013-4.4336-5.318-9.5323-10.099-15.316-14.144v-0.0265l-0.0643-0.053c-13.732-9.8271-29.072-14.809-45.582-14.809-21.79 0-40.692 7.839-56.14 23.272-2.0788 2.1204-4.082 4.3958-5.9416 6.709-4.392-0.69926-8.7348-1.0923-12.933-1.0923h-14.589c-29.496 0-55.111 10.662-76.126 31.685-21.016 21.023-31.674 46.713-31.674 76.368v28.654c0 21.96 7.7483 40.862 23.018 56.14 15.308 15.289 34.168 23.048 56.144 23.048 21.79 0 40.601-7.7597 55.917-23.048 4.0026-4.0329 7.5405-8.3493 10.557-12.937 1.4288 1.5874 2.9104 3.1485 4.4185 4.6566 21.245 20.789 46.793 31.33 76.02 31.33h14.521c20.645 0 38.663-7.0982 53.653-21.098 18.215 14.091 39.46 21.241 63.237 21.188 0 0 17.473-0.0492 24.496-0.0757 1.9882 13.002 8.0469 24.806 17.549 34.441 1.9504 1.9504 5.008 5.8358 8.6063 8.3568 30.072 20.751 76.667 5.722 88.668-10.451 21.646 5.7451 48.701-5.643 57.817-15.486 8.2434-8.9048 13.066-16.952 15.95-27.199 4.0556-2.5211 7.737-5.4352 10.999-8.6819 12.053-12.091 18.437-27.486 18.437-44.554 0-17.008-6.3839-32.373-18.437-44.452" fill="#fff" stroke-width="12.611"/>
 <path d="m573.22 145.1c-9.831-9.8272-22.323-15.039-36.129-15.039h-9.0636c-8.3456 0-16.445 1.4551-24.038 4.3164-1.7952-2.6004-3.8477-5.0572-6.0588-7.2947-9.8272-9.8272-22.322-15.028-36.115-15.028-4.1992 0-8.4249 0.53305-12.546 1.5836-2.2494-17.174-9.6601-32.32-22.179-45.073l-0.10341-0.0794c-2.1587-2.2338-4.707-4.4865-7.4631-6.6825-0.23392-2.7931-0.65007-5.4616-1.2742-7.8655-2.5094-9.4265-7.0839-17.575-13.601-24.246-10.466-10.685-23.895-16.253-38.858-16.056-14.585 0.10215-27.316 5.5107-37.793 16.12h0.0643c-0.32485 0.24943-0.63885 0.53292-0.91086 0.80506l-2.3133 2.264-7.0226 6.8639-10.269 10.024-0.0795 0.0908-0.35158 0.37781c-2.4565 2.6533-4.5466 5.6053-6.2248 8.7235-12.833-12.091-28.279-18.253-45.961-18.253h-2.5323c-4.4751-6.2818-9.8688-11.781-16.215-16.241-11.675-8.3719-24.738-12.636-38.779-12.636-18.565 0-34.649 6.6711-47.768 19.839-3.534 3.4848-6.603 7.359-9.2451 11.558-5.8736-1.6366-11.906-2.5211-18.018-2.5211h-14.574c-26.262 0-49.068 9.4907-67.815 28.264-18.709 18.694-28.234 41.587-28.234 68.019v28.654c0 18.736 6.6144 34.806 19.579 47.805 13.002 13.002 29.104 19.594 47.828 19.594 18.58 0 34.558-6.5918 47.586-19.594 7.9298-7.9411 13.482-17.095 16.654-27.289 4.1085 6.8261 9.1128 13.183 14.979 18.981 18.876 18.512 41.651 27.901 67.682 27.901h14.532c18.422 0 34.467-6.656 47.597-19.812 1.8067-1.8219 3.4962-3.7986 5.1365-5.8509 17.81 17.121 39.365 25.808 64.096 25.728l27.418-0.0378c2.6912 0 5.4616-0.24944 8.2283-0.61224-0.0769 0.92221-0.1034 1.8331-0.1034 2.6646 0 13.705 5.1479 26.095 14.873 35.847 9.8416 9.8158 22.283 15.002 35.96 15.002 18.916 0 35.337-6.7732 48.769-20.138l0.0643-0.0908 0.0265-0.0265s0.25549-0.29849 0.41564-0.4309c5.4579 1.9504 11.192 2.9784 17.095 2.9784 13.887 0 26.367-5.1479 36.129-14.899 7.3061-7.3439 12.102-16.498 14.004-26.548 4.7435-2.4038 9.1393-5.5372 12.923-9.3094 9.8007-9.8385 15.028-22.372 15.028-36.243 0-13.807-5.2272-26.303-15.028-36.107" fill="#7ac041" stroke-width="12.611"/>
 <path d="m563.96 154.32c-7.4233-7.4384-16.461-11.222-26.873-11.222h-9.0636c-10.984 0-21.008 2.967-29.874 8.7121-1.7575-5.7716-4.9401-10.972-9.4642-15.512-7.4508-7.4082-16.473-11.192-26.887-11.192-9.8158 0-18.396 3.3413-25.573 9.88 0.54604-3.3677 0.80607-6.7618 0.80607-10.13v-0.13998c-0.0378-18.268-6.5914-34.104-19.359-47.079h-0.0126c-3.263-3.4168-6.9676-6.4859-10.948-9.1506 0.0151-0.18147 0.10719-1.7047 0.10719-1.7047 0-3.2883-0.41565-6.5124-1.198-9.5927-1.9106-7.1397-5.3954-13.338-10.324-18.384-7.9826-8.1906-17.889-12.235-29.315-12.129h-0.13229c-11.063 0.10214-20.709 4.2484-28.707 12.348l-20.282 19.828-0.20782 0.19635c-3.9762 4.3015-6.433 9.2944-7.3439 14.884-2.6383 2.041-5.1895 4.2899-7.582 6.6295-2.351-3.9006-5.1592-7.5517-8.4627-10.855-10.61-10.636-23.491-15.991-38.353-15.991h-9.6457c-3.9649-7.3969-9.5323-13.664-16.642-18.641-9.4379-6.7996-19.971-10.247-31.228-10.247-14.99 0-27.954 5.3708-38.576 16.007-5.42 5.4314-9.5172 11.687-12.17 18.603-7.3969-3.8099-15.546-5.7224-24.284-5.7224h-14.585c-22.647 0-42.332 8.2057-58.585 24.417-16.215 16.188-24.417 35.975-24.417 58.804v28.654c0 15.134 5.3294 28.12 15.799 38.587 10.432 10.466 23.434 15.757 38.561 15.757 14.99 0 27.901-5.2915 38.341-15.757 10.61-10.61 16.014-23.608 16.014-38.587v-4.3164c4.1992-0.82019 8.2322-2.143 12.027-3.9271 3.4962 14.521 10.855 27.471 21.987 38.47 16.366 15.991 36.05 24.118 58.555 24.118h14.521c14.85 0 27.774-5.3671 38.379-15.991 5.5788-5.5637 9.7137-11.883 12.405-18.785 2.7441 3.9006 5.8509 7.6576 9.2678 11.127 15.64 15.821 34.738 23.804 56.725 23.756l27.433-0.0795c11.324-0.0265 21.374-3.224 30.032-9.4114-0.61124 0.72574-1.2091 1.44-1.7681 2.196-4.667 6.5124-7.0483 14.015-7.0483 22.312 0 10.322 3.7345 19.28 11.053 26.612 7.4236 7.4232 16.408 11.192 26.731 11.192 15.367 0 28.707-5.5107 39.615-16.408 2.2741-2.2225 4.3152-4.6679 6.1636-7.2154 6.0324 3.9006 12.945 5.9039 20.592 5.9039 10.504 0 19.541-3.7192 26.873-11.052 7.2947-7.2947 11.052-16.173 11.169-26.417 5.9152-1.7689 11.244-4.9287 15.757-9.4416 7.4497-7.461 11.233-16.536 11.233-27.028 0-10.413-3.7833-19.435-11.233-26.884" fill="#c1d72d" stroke-width="12.611"/>
 <path d="m342.94 80.178c0.14364 0.14363 0.28727 0.30993 0.28727 0.30993s22.802-1.0923 22.958-1.115c4.9174 0.11715 8.7386-2.1468 11.105-6.5804l0.0378-0.0907 0.0265-0.0378c2.4718-5.2424 1.7046-10.114-2.2338-14.133-2.2263-2.317-5.008-3.5491-8.2586-3.7456-3.2618-0.17008-6.1344 0.84665-8.5799 3.054l-0.0643 0.0681-17.068 16.445-0.13229 0.17009c-0.49509 0.69925-0.74087 1.4551-0.74087 2.1809 0 0.9109 0.37794 1.784 1.1037 2.5248 0.51022 0.55939 1.0545 0.81641 1.5609 0.94869" fill="#fff" stroke-width="12.611"/>
 <path d="m122.37 91.177h-14.585c-12.443 0-23.309 4.5356-32.255 13.482-8.9389 8.9578-13.474 19.812-13.474 32.282v28.654c0 4.6263 1.7008 8.6592 5.0648 12.027 3.3639 3.3639 7.4082 5.0686 12.038 5.0686 4.615 0 8.6592-1.7047 11.932-5.095 3.2505-3.3412 4.9401-7.3855 4.9401-12v-28.654c0-3.4206 1.1339-6.2289 3.4471-8.542 2.3396-2.3169 5.0837-3.4735 8.3077-3.4735h14.585c4.6301 0 8.6327-1.6517 11.91-4.9401 3.2883-3.2997 4.9552-7.2909 4.9552-11.932 0-4.6036-1.6669-8.6327-4.9552-11.925-3.277-3.2732-7.2796-4.9514-11.91-4.9514" fill="#fff" stroke-width="12.611"/>
 <path d="m254.94 91.177h-40.669v-12c0-4.6301-1.6366-8.6327-4.9666-11.921-3.2732-3.3035-7.2796-4.9552-11.895-4.9552-4.615 0-8.644 1.6517-12.038 4.9287-3.3412 3.2883-5.0724 7.3174-5.0724 11.948v55.656h-0.0492s0.0492 2.5361 0.0492 2.5891v0.14363c0.36659 12.416 4.9552 23.128 13.705 31.89 8.8142 8.7765 19.568 13.236 32.059 13.236h14.521c4.6679 0 8.7008-1.7047 11.989-5.0951 3.2354-3.3412 4.9136-7.3855 4.9136-12 0-4.6301-1.6782-8.6327-4.9666-11.921-3.2618-3.3035-7.2947-4.9552-11.936-4.9552h-14.521c-7.4762-0.44225-11.116-3.8629-11.793-11.494v-12.299h40.669c4.615 0 8.6592-1.6517 11.921-4.9401 3.2883-3.2997 4.9401-7.2909 4.9401-11.932 0-4.6036-1.6517-8.6327-4.9401-11.925-3.2619-3.2732-7.3061-4.9514-11.921-4.9514" fill="#fff" stroke-width="12.611"/>
 <path d="m401.16 168.28v-2.3245s-0.1966-0.31375-0.21917-0.41577c0-0.0416-0.0265-2.2376-0.0265-2.2376s-0.13229-0.11728-0.22296-0.21917v-1.5609s-0.30997-0.0643-0.44225-0.11728v-0.53292s-0.24565-0.22296-0.42712-0.44226v-0.44225l-0.74075-0.75588c-1.5081-2.899-3.8477-5.265-6.9168-7.0074-0.0416 0-0.80885-0.78992-0.80885-0.78992s-0.24565 0.0227-0.46495 0.0227c-0.18147-0.23053-0.41577-0.45361-0.41577-0.45361h-1.0923c-0.24944-0.0908-0.46861-0.1285-0.71817-0.1285-0.25701-0.15877-0.55562-0.19647-0.86938-0.24944 6.6182-4.1085 10.817-10.594 12.507-19.424 0.15498-0.14363 0.3251-0.30996 0.3251-0.30996s-0.0265-1.7311-0.0265-1.7802c0.13228-0.34023 0.20782-0.75588 0.20782-1.2246v-0.67656l0.0643-0.71439 0.17012-1.7159c-0.0265-8.3341-3.0162-15.524-8.8406-21.438-5.8774-5.9151-13.051-8.8936-21.412-8.8936l-13.717 0.0416c-11.963 0.0227-22.361 4.4713-30.917 13.221-8.5534 8.7084-12.882 19.292-12.833 31.424 0 12.14 4.3807 22.712 12.975 31.394 8.595 8.6743 19.046 13.092 30.97 13.043l27.429-0.0416c5.5258-0.0265 9.8158-2.3018 12.901-6.6938h1.391v-0.43091h0.21917v-0.66142h0.41577v-1.1075h0.45739v-1.7159c0-0.0227 0-0.0227 0.0113-0.0492h0.61237v-2.4076c0.0908-0.0908 0.23431-0.20782 0.23431-0.20782v-1.7538l0.21917-0.22295" fill="#fff" stroke-width="12.611"/>
 <path d="m556.11 162.18c-5.2915-5.2915-11.622-7.9184-19.008-7.9184h-9.0636c-12.257 0-22.829 4.3807-31.617 13.183-4.1237 4.1199-7.2684 8.644-9.4394 13.573-0.53305-1.3909-1.1569-2.7705-1.8981-4.082 2.4572-4.3428 3.6533-8.9313 3.6533-13.754 0-7.3742-2.6394-13.705-7.9438-18.97-5.2654-5.318-11.61-7.9563-18.981-7.9563-7.4754 0-13.846 2.6383-19.138 7.9563-5.2001 5.1895-7.8004 11.505-7.8004 18.97 0 5.1214 1.2869 9.6835 3.8224 13.754-2.5354 4.1727-3.8224 8.7613-3.8224 13.769v18.993c-5.1872 1.8067-9.4519 4.9929-12.754 9.5702-3.3151 4.5998-4.9533 9.8385-4.9533 15.806 0 7.2834 2.5872 13.524 7.7748 18.724 5.2912 5.2878 11.584 7.9411 18.852 7.9411 12.39 0 22.985-4.3807 31.761-13.194 5.3954-5.2386 9.1007-11.207 11.194-17.836 1.1313 1.9352 2.5601 3.7948 4.276 5.5108 5.2008 5.2122 11.6 7.7862 19.14 7.7862 7.4724 0 13.845-2.5739 19.008-7.7862 5.2877-5.3029 7.9298-11.687 7.9298-19.152v-8.9313c7.4875 0 13.807-2.6118 19.008-7.8125 5.3029-5.265 7.9411-11.66 7.9411-19.11 0-7.4006-2.6383-13.717-7.9411-19.034" fill="#19388a" stroke-width="12.611"/>
 <path d="m452.88 217.06c0 4.6566-2.1712 7.5292-6.5135 8.6592-0.54604 0.19634-1.4299 0.3401-2.5742 0.4309-2.262 0-4.3292 0.84289-6.1496 2.5475-1.8722 1.7159-2.7694 3.8213-2.7694 6.3574 0 2.4681 0.87127 4.5885 2.6006 6.3197 1.7548 1.7651 3.8612 2.6383 6.3184 2.6383 7.2025 0 13.443-2.5626 18.734-7.6576 5.3695-5.2008 8.1259-11.388 8.191-18.592v-27.081c0-2.5475-0.84491-4.7056-2.6006-6.4217-1.7422-1.7689-3.8614-2.6383-6.3057-2.6383-2.366 0-4.4331 0.84289-6.2274 2.5475-1.807 1.6896-2.7042 3.7834-2.7042 6.2251z" fill="#ec4f8f" stroke-width="12.611"/>
 <path d="m519.09 199.2c0-2.5626 0.88425-4.7056 2.6268-6.4368 1.7388-1.7802 3.8591-2.6383 6.3159-2.6383h9.0636c2.4568 0 4.5885-0.88451 6.3159-2.6383 1.7574-1.7159 2.6268-3.825 2.6268-6.2932 0-2.4568-0.86937-4.5506-2.6268-6.3197-1.7273-1.7538-3.8591-2.6268-6.3159-2.6268h-9.0636c-7.359 0-13.701 2.6533-18.993 7.9561-5.2915 5.2915-7.9563 11.638-7.9563 18.997v17.863c0 2.4568 0.88463 4.5771 2.7023 6.3838 1.8066 1.8067 3.9384 2.7024 6.3839 2.7024 2.4453 0 4.5506-0.89573 6.3045-2.7024 1.7574-1.8067 2.6154-3.9271 2.6154-6.3838z" fill="#78bde6" stroke-width="12.611"/>
 <path d="m473.03 177.74-10.596-5.7073-10.674 5.5146 2.1712-11.834-8.5288-8.4892 11.909-1.5988 5.3827-10.738 5.2394 10.829 11.896 1.8483-8.7235 8.3077z" fill="#ffcf3b" stroke-width="12.611"/>
 <path d="m421.38 147.27c3.0294-7.2305 4.5375-14.759 4.5114-22.545-0.0265-15.327-5.4344-28.434-16.174-39.342-4.5508-4.7056-9.5399-8.3833-14.975-11.089 1.168-4.7586 1.285-9.7364 0.10341-14.273-1.4037-5.2688-3.902-9.7402-7.5153-13.444-5.8093-5.9416-12.933-8.8671-21.294-8.75-8.1527 0.0378-15.187 3.0955-21.075 9.1544l-19.994 19.553-0.13229 0.10215c-2.9368 3.1598-4.5356 6.8789-4.7435 11.131-0.053 0.72573-0.053 1.4023 0 2.094-4.1464 2.7137-8.0356 5.9907-11.74 9.7627-4.135 4.2257-7.6312 8.697-10.466 13.418-1.0394-9.7137-5.2009-18.192-12.48-25.456-8.4627-8.4892-18.645-12.73-30.465-12.73h-16.835c-3.0276-8.5269-8.3342-15.391-15.912-20.709-7.582-5.4616-15.848-8.1792-24.78-8.1792-11.989 0-22.221 4.237-30.694 12.742-8.2964 8.2964-12.469 18.41-12.522 30.317-0.44225-0.4913-0.88438-0.98652-1.3531-1.44-8.5006-8.4892-18.667-12.73-30.472-12.73h-14.589c-19.67 0-36.58 7.0453-50.678 21.139-14.136 14.106-21.166 31.072-21.166 50.939v28.654c0 12.129 4.1576 22.361 12.511 30.709 8.353 8.3191 18.596 12.518 30.706 12.518 11.963 0 22.127-4.1992 30.461-12.518 8.4778-8.4892 12.757-18.736 12.757-30.709v-14.313c11.974 0 22.115-4.1727 30.472-12.518 0.46861-0.45739 0.91087-0.95248 1.3531-1.4174v0.0492c0.14376 19.881 7.1889 36.689 21.139 50.497 14.275 13.951 31.178 20.932 50.731 20.932h14.521c11.846 0 22.009-4.2747 30.502-12.753 8.4741-8.5042 12.715-18.645 12.715-30.476 0-7.5782-1.886-14.627-5.6808-21.15 3.9119-2.5361 7.2796-5.5523 10.19-9.0486-0.0643 1.2473-0.10215 2.5323-0.10215 3.8061 0.053 19.152 6.8375 35.574 20.357 49.249 13.535 13.69 29.814 20.49 48.78 20.437l27.422-0.0643c11.581-0.0265 21.385-4.0934 29.316-12.22 7.9828-8.1527 11.935-18.113 11.922-29.89-0.0378-6.7883-1.5599-13.247-4.6282-19.435m-288.91-29.112c-2.7932 2.8196-6.1872 4.2257-10.099 4.2257h-14.589c-3.9384 0-7.2909 1.391-10.099 4.1992-2.7969 2.8082-4.1992 6.2516-4.1992 10.349v28.654c0 3.9536-1.4061 7.3704-4.2257 10.247-2.797 2.8726-6.1496 4.3164-10.103 4.3164-3.9384 0-7.3477-1.4439-10.22-4.3164-2.9104-2.8764-4.3466-6.2932-4.3466-10.247v-28.654c0-11.846 4.271-21.987 12.734-30.476 8.5042-8.4741 18.667-12.727 30.461-12.727h14.589c3.9119 0 7.3061 1.391 10.099 4.1841 2.8234 2.8082 4.2143 6.2175 4.2143 10.13 0 3.9649-1.391 7.3174-4.2143 10.114m132.59 0c-2.8082 2.8196-6.1496 4.2257-10.118 4.2257h-43.213v15.002c0.76723 8.9578 5.5637 13.418 14.339 13.418l14.521 0.46861c3.98 0 7.3326 1.3909 10.152 4.1878 2.797 2.8083 4.1992 6.1722 4.1992 10.126 0 3.9535-1.4023 7.3704-4.1992 10.247-2.8196 2.8726-6.1722 4.3164-10.152 4.3164h-14.521c-11.845 1e-5 -21.918-4.1765-30.268-12.522-8.3342-8.3342-12.651-18.433-12.975-30.241v-58.218c0-3.9271 1.4703-7.3061 4.3428-10.126 2.8877-2.8082 6.2932-4.1878 10.247-4.1878 3.9384 0 7.2909 1.3796 10.114 4.1878 2.8082 2.8196 4.1992 6.1986 4.1992 10.126v14.563h43.213c3.9687 0 7.3098 1.391 10.118 4.1841 2.8196 2.8082 4.1992 6.2175 4.1992 10.13 0 3.9649-1.3796 7.3174-4.1992 10.114m78.032-42.136c2.8082-2.7289 5.6166-5.473 8.4514-8.1527 2.8196-2.7024 5.6393-5.4087 8.4741-8.1641 1.8747-1.7047 4.1501-2.5211 6.7241-2.3774 2.5739 0.15486 4.77 1.1302 6.5767 2.9897 3.1598 3.2354 3.7192 6.9924 1.7159 11.233-1.9239 3.6398-4.9022 5.3936-8.8936 5.2764l-21.881 1.081c-0.0757-0.0794-0.21918-0.14376-0.41577-0.14376-0.21918 0-0.44213-0.10593-0.65008-0.3401-0.4536-0.42713-0.47996-0.92222-0.10215-1.4023m42.344 76.874c7.1626 0 12.96 6.2667 12.96 14.027 0 7.737-5.798 14.031-12.96 14.031l-28.147 0.0643c-11.297 0.0378-21.022-4.0708-29.186-12.31-8.1263-8.2171-12.223-18.075-12.235-29.591-0.0378-11.479 4.0177-21.362 12.129-29.629 8.0733-8.2964 17.772-12.431 29.096-12.469l13.732-0.0265c7.669-0.0265 14.182 2.6911 19.553 8.1263 5.42 5.4465 8.1111 12 8.1111 19.659 0 2.9519-0.62385 5.7338-0.62385 5.7338-2.2982 12.246-9.6722 19.568-22.153 21.956 0 0-0.96004 0.17012-1.3115 0.20782l-1.4968 0.24944s11.793-0.0265 12.533-0.0265" fill="#19388a" stroke-width="12.611"/>
 <path d="m357.16 124.89c3.7569 0 6.9961 1.3645 9.6873 4.082 2.676 2.6911 4.0404 6.0588 4.0404 10.039 0 3.8326-1.3266 7.0982-4.0026 9.8385-2.6797 2.7176-5.9039 4.1237-9.6608 4.1237-3.9271 0-7.2154-1.3531-9.8914-4.082-2.7062-2.7062-4.0594-5.9832-4.0707-9.8045 0-3.9762 1.3115-7.3439 3.9914-10.088 2.7176-2.7176 5.9794-4.1085 9.9065-4.1085" fill="#19388a" stroke-width="12.611"/>
 <path class="cls-2" d="m356.34 288.15c0.32472-21.954-19.285-39.923-43.63-39.979h-202.98c-24.345 0.0567-43.958 18.026-43.633 39.979l0.0033 38.928c0.0019 21.748 19.515 39.395 43.63 39.453h202.98c24.115-0.058 43.63-17.705 43.63-39.453z" fill="#7ac041" stroke-width="12.611"/>
 <g transform="matrix(12.611 0 0 12.611 -9.2838 9.4952)" fill="#fff">
  <path d="m8.4951 21.93c0-0.23344 0.22928-0.42782 0.45939-0.39792 0.53415-4e-3 1.0824-0.0806 1.6074 0.054 0.74765 0.20685 1.2585 1.0102 1.1265 1.7752-0.04984 0.47102-0.3597 0.86395-0.7302 1.1381 0.18442 0.18109 0.38878 0.34558 0.55077 0.54827 0.20685 0.27414-0.04403 0.72024-0.38462 0.69365-0.23426-8.3e-4 -0.37881-0.21266-0.53665-0.35388-0.23509-0.21516-0.4353-0.47185-0.69697-0.65461-0.16781-0.0133-0.33561-5e-3 -0.50342-2e-3 8.31e-4 0.23011 0.01744 0.46105-0.0066 0.69033-0.06895 0.33228-0.54578 0.44443-0.7626 0.18857-0.14704-0.13126-0.11547-0.34143-0.12046-0.51754 0.01246-1.0542-0.01994-2.1084-0.0025-3.1617m0.89386 0.48265c0.0033 0.47268 0.0017 0.94452 8.3e-4 1.4172 0.39708-0.0332 0.87475 0.11797 1.1971-0.19023 0.31235-0.26998 0.29241-0.79915-0.02741-1.055-0.32481-0.27829-0.78254-0.14371-1.1705-0.17195z"/>
  <path d="m13.668 21.661c0.29574-0.14288 0.63467-0.15368 0.95533-0.1163 0.71359 0.098 1.3125 0.74516 1.3217 1.4712 0.01495 0.77672 0.01828 1.5543 0.0025 2.331-0.03738 0.39875-0.64132 0.50508-0.81411 0.14538-0.09886-0.30571-0.02492-0.64215-0.04569-0.96032-0.49096 2e-3 -0.98108-2e-3 -1.4712 4e-3 -0.02908 0.33893 0.11215 0.741-0.11049 1.0342-0.21931 0.28992-0.75346 0.13125-0.76426-0.23427-0.01246-0.74598-0.0017-1.4928-0.0042-2.2388 0.0017-0.60476 0.37881-1.1879 0.93041-1.4363m0.16947 0.91961c-0.31152 0.27331-0.21848 0.72356-0.22928 1.0907 0.49262 2e-3 0.98523-0.01 1.4779-3e-3 -0.01329-0.34475 0.0731-0.74848-0.18276-1.0293-0.26002-0.31235-0.77506-0.34807-1.0658-0.0581z"/>
  <path d="m17.296 21.552c0.42284-0.10218 0.86976-0.0224 1.3026-0.0482 0.6056-0.0291 1.2062 0.32398 1.4646 0.87392 0.18608 0.35056 0.14205 0.75844 0.14454 1.1406-0.0058 0.30321 0.01578 0.60725-0.01329 0.90963-0.09969 0.68618-0.72106 1.2718-1.4205 1.2926-0.42034 8e-3 -0.83986 3e-3 -1.2594 3e-3 -0.25088 0.0224-0.49428-0.20519-0.46936-0.46022 0.0025-1.0833-0.01163-2.1674-0.0075-3.2514-0.01994-0.18941 0.0839-0.38047 0.25835-0.46022m0.63135 0.8598c5e-3 0.8033 0.02908 1.6058 0.01661 2.4082 0.38047-0.039 0.83155 0.11547 1.1555-0.14454 0.31567-0.26915 0.17528-0.72107 0.20186-1.0799-0.02492-0.33893 0.09803-0.75761-0.18442-1.0185-0.32647-0.28577-0.79666-0.12793-1.1896-0.16531z"/>
  <path d="m21.534 21.56c0.27081-0.17529 0.66541 0.0615 0.65793 0.37714 8.3e-4 1.1082 0.01246 2.2164 0.01 3.3246 0.01662 0.24257-0.2002 0.46354-0.44194 0.45772-0.24756 0.0108-0.46936-0.21515-0.45191-0.46354-0.0091-1.0774 0.0075-2.1566-0.01-3.234-0.01744-0.18442 0.06895-0.37383 0.23592-0.46188z"/>
  <path d="m24.363 21.569c0.7111-0.23758 1.5684 0.0681 1.9273 0.73602 0.24008 0.38878 0.18276 0.85814 0.18774 1.2926-0.01 0.35971 0.0432 0.73436-0.09304 1.0774-0.22097 0.63301-0.88056 1.0725-1.5501 1.0351-0.78586 6e-3 -1.5244-0.64797-1.5576-1.443-0.01329-0.41868-0.0083-0.83736-0.0042-1.256 0.01578-0.64547 0.47102-1.2536 1.0899-1.4421m0.25171 0.82989c-0.2542 0.0964-0.4652 0.33894-0.47102 0.61889-0.0066 0.38629-0.0066 0.77257 0 1.1597 0.0091 0.4436 0.51172 0.77506 0.92792 0.64796 0.31983-0.0822 0.56323-0.39625 0.54246-0.7302 0-0.38546 0.0216-0.77174-0.01246-1.1555-0.07975-0.4328-0.58067-0.69531-0.9869-0.5408z"/>
 </g>
</svg>
