<svg width="800" height="227.74" version="1.1" viewBox="0 0 800 227.74" xml:space="preserve" xmlns="http://www.w3.org/2000/svg"><g transform="matrix(1.3333 0 0 -1.3333 -2324.3 562.06)"><g transform="matrix(3.8838 0 0 3.8838 752.8 -1259.6)"><g clip-path="url(#clipPath420)"><g transform="translate(257.76 389.05)"><path d="m0 0c-1.416 0-2.568 1.151-2.568 2.567v38.501c0 1.415 1.152 2.567 2.568 2.567h149.01c1.416 0 2.568-1.152 2.568-2.567v-38.5c0-1.417-1.152-2.568-2.568-2.568z" fill="#140e0c"/></g><g transform="translate(406.76 432.86)"><path d="m0 0h-149.01c-1.511 0-2.74-1.229-2.74-2.739v-38.5c0-1.511 1.229-2.741 2.74-2.741h149.01c1.511 0 2.74 1.23 2.74 2.741v38.5c0 1.51-1.229 2.739-2.74 2.739m0-0.344c1.317 0 2.395-1.078 2.395-2.395v-38.5c0-1.318-1.078-2.395-2.395-2.395h-149.01c-1.318 0-2.396 1.077-2.396 2.395v38.5c0 1.317 1.078 2.395 2.396 2.395h149.01" fill="#fff"/></g><g transform="translate(269.35 402.72)"><path d="m0 0c-0.378 0.222-0.567 0.611-0.567 1.168v8.598h2.502v3.237h-2.502v6.939h-4.636v-6.939h-2.068v-3.237h2.068v-8.609c0-1.952 0.228-3.2 0.684-3.743 0.455-0.544 1.684-0.817 3.685-0.817h2.935v3.17h-0.867c-0.556 0-0.967 0.077-1.234 0.233" fill="#fff200"/></g><g transform="translate(279.06 403.25)"><path d="m0 0c0-0.289-0.072-0.506-0.217-0.651-0.144-0.145-0.327-0.216-0.55-0.216-0.267 0-0.473 0.071-0.617 0.216-0.145 0.145-0.216 0.362-0.216 0.651v1.43c0 0.355 0.111 0.645 0.333 0.867 0.222 0.223 0.645 0.412 1.267 0.567zm3.169 12.269c-0.823 0.556-2.057 0.834-3.702 0.834-1.646 0-2.925-0.256-3.835-0.767-1.135-0.645-1.702-1.668-1.702-3.068v-1.764h4.503v1.73c0 0.312 0.076 0.545 0.228 0.7 0.152 0.156 0.338 0.234 0.556 0.234 0.26 0 0.457-0.078 0.588-0.234 0.13-0.155 0.195-0.388 0.195-0.7v-1.595c0-1.164-1.038-1.505-3.118-2.507-2.08-0.999-3.119-2.457-3.119-3.969v-2.398c0-1.001 0.289-1.746 0.868-2.234 0.577-0.49 1.556-0.735 2.934-0.735 0.846 0 1.496 0.063 1.952 0.184 0.455 0.122 0.794 0.394 1.018 0.816v-0.733h4.102v13.038c0 1.467-0.49 2.523-1.468 3.168" fill="#fff200"/></g><path d="m286.1 399.32h4.636v23.349h-4.636z" fill="#fff200"/><g transform="translate(305.78 415.72)"><path d="m0 0h-5.071l-2.702-6.071v13.014h-4.636v-23.349h4.636v6.037l2.869-6.037h5.437l-4.269 8.314z" fill="#fff200"/></g><g transform="translate(315.67 411.89)"><path d="m0 0c-0.827 0.845-1.709 1.746-2.648 2.702-0.671 0.717-1.005 1.455-1.005 2.216v2.182c0 0.246 0.068 0.426 0.208 0.537 0.139 0.113 0.347 0.168 0.626 0.168 0.232 0 0.423-0.061 0.573-0.185 0.151-0.122 0.226-0.297 0.226-0.52v-3.328h4.637v3.032c0 1.223-0.389 2.191-1.167 2.903-0.912 0.822-2.291 1.234-4.136 1.234-2.135 0-3.692-0.412-4.671-1.234-0.845-0.712-1.267-1.813-1.267-3.302v-2.637c0-0.866 0.392-1.8 1.174-2.8 0.179-0.223 1.005-1.113 2.48-2.669 0.895-0.961 1.732-1.843 2.515-2.647 0.291-0.378 0.435-0.892 0.435-1.539v-2.781c0-0.268-0.08-0.47-0.241-0.603-0.161-0.134-0.404-0.202-0.725-0.202-0.276 0-0.512 0.073-0.708 0.219-0.195 0.144-0.293 0.34-0.293 0.586v4.397h-4.637v-4.334c0-1.09 0.368-2.001 1.101-2.735 0.978-1.001 2.524-1.501 4.636-1.501 2.224 0 3.803 0.422 4.737 1.267 0.801 0.733 1.202 1.868 1.202 3.403v2.968c0 1.001-0.325 1.957-0.973 2.868-0.314 0.445-1.007 1.223-2.079 2.335" fill="#fff200"/></g><g transform="translate(327.56 412.47)"><path d="m0 0c0-0.583-0.22-0.965-0.658-1.143-0.162-0.069-0.533-0.102-1.109-0.102v8.138c0.531 0 0.912-0.044 1.144-0.133 0.416-0.18 0.623-0.55 0.623-1.111zm2.769 9.729c-0.8 0.311-2.302 0.467-4.503 0.467h-5.003v-23.349h4.97v8.606c6.273 0 6.737 2.713 6.737 4.136v6.471c0 1.89-0.734 3.113-2.201 3.669" fill="#fff200"/></g><g transform="translate(341.07 402.99)"><path d="m0 0c0-0.223-0.069-0.396-0.208-0.518-0.138-0.123-0.359-0.184-0.658-0.184-0.301 0-0.526 0.061-0.677 0.184-0.15 0.122-0.224 0.295-0.224 0.518v15.972c0 0.246 0.074 0.425 0.224 0.536 0.151 0.112 0.376 0.168 0.677 0.168 0.299 0 0.52-0.056 0.658-0.168 0.139-0.111 0.208-0.29 0.208-0.536zm3.537 18.677c-0.957 0.778-2.413 1.168-4.37 1.168-2.135 0-3.681-0.413-4.637-1.235-0.845-0.712-1.267-1.812-1.267-3.302v-15.043c0-1.379 0.545-2.424 1.634-3.135 1.089-0.713 2.502-1.068 4.237-1.068 1.734 0 3.14 0.366 4.219 1.101 1.078 0.734 1.617 1.778 1.617 3.135v15.043c0 1.445-0.478 2.557-1.433 3.336" fill="#fff200"/></g><g transform="translate(372.29 422.67)"><path d="m0 0h-10.841v-3.603h2.87v-19.746h5.102v19.746h2.869z" fill="#fff200"/></g><g transform="translate(355.24 414.66)"><path d="m0 0c0-0.576-0.198-0.952-0.591-1.129-0.163-0.066-0.51-0.1-1.044-0.1v6.272c0.51 0 0.91-0.061 1.2-0.183s0.435-0.47 0.435-1.045zm3.552 6.883c-0.945 0.751-2.264 1.128-3.952 1.128h-6.338v-23.349h5.103v9.647c0.51 0 0.91-0.062 1.2-0.184s0.435-0.473 0.435-1.051v-4.142c0-0.189 1e-3 -0.371 4e-3 -0.548v-3.719h0.762c0-1e-3 1e-3 -2e-3 1e-3 -2e-3l1.936-1e-3c-1e-3 1e-3 -2e-3 2e-3 -2e-3 3e-3h2.265v4.106c4e-3 0.044 6e-3 0.089 4e-3 0.134v4.442c0 0.824-0.155 1.469-0.464 1.937-0.486 0.713-1.08 1.236-2.383 1.57 1.413 0.465 2.041 1.084 2.483 1.859 0.242 0.42 0.364 1.017 0.364 1.793v3.39c0 1.238-0.473 2.234-1.418 2.987" fill="#fff200"/></g><g transform="translate(401.31 405.53)"><path d="m0 0c3.024 6.923-0.136 14.989-7.061 18.014-6.924 3.024-14.989-0.137-18.014-7.061s0.137-14.989 7.06-18.014c0.211-0.092 0.422-0.178 0.635-0.258l-3.519-5.113 13.07 5.061 8e-3 5e-3c3.379 1.241 6.266 3.806 7.821 7.366" fill="#fff"/></g><g transform="translate(386.66 406.96)"><path d="m0 0s-1.521-1.093-1.693-2.336c0 0 0.999-1.583 1.929-2.42 0.151-0.067 1.5-0.851 4.52 0.042l1.328 1.864s-3.482-0.589-6.084 2.85" fill="#e9e9e9"/></g><g transform="translate(379.67 410.61)"><path d="m0 0s-0.107-2.635 1.436-4.221l2.849-0.835s1.307 0.749 1.692 2.378c0 0-3.746-0.47-4.67 4.863z" fill="#e9e9e9"/></g><g transform="translate(377.53 410.71)"><path d="m0 0 0.792-0.663s1.195-2.113 1.436-4.2l-0.343-0.813s-1.62 1.991-1.885 5.676" fill="#e9e9e9"/></g><g transform="translate(386.7 400.78)"><path d="m0 0-0.557-0.45s1.736-0.685 6.091 0.096c0 0-0.472 0.43-1.193 0.51-0.874 0.097-1.846-0.587-4.341-0.156" fill="#e9e9e9"/></g><g transform="translate(400.17 408.35)"><path d="m0 0c-0.524-1.473-1.322-2.825-1.712-3.381-0.275 0.369-0.291 0.929-0.291 0.929 0.069 0.686 0.177 1.306 0.303 1.856 1e-3 3e-3 1e-3 4e-3 1e-3 7e-3 0 0.016-0.013 0.029-0.03 0.029-0.014 0-0.027-9e-3 -0.03-0.022-0.394-0.912-0.954-1.39-0.952-1.413-1.44-0.747-3.27-1.073-3.296-1.073-0.45 0.262-0.804 0.539-1.082 0.816 0 0-0.021 0.03-0.056 0.028-0.039-1e-3 -0.071-0.032-0.071-0.072 0-0.015 4e-3 -0.023 0.012-0.04 0.351-0.73 0.504-1.411 0.509-1.415-0.732-1.281-1.871-2.531-1.861-2.54-0.636-0.291-1.271-0.443-1.864-0.508v-1e-3c-0.018 0-0.032-0.015-0.032-0.032 0-0.019 0.014-0.033 0.032-0.033h2e-3c1.2-0.031 1.957-0.285 1.957-0.285s0.591-0.365 1.168-0.843c-4.041-1.336-7.384-0.095-7.384-0.095s0.722 0.4 1.039 0.742c0.728 0.239 1.415 0.372 2.035 0.435v1e-3c0.023 1e-3 0.041 0.019 0.041 0.041 0 0.023-0.018 0.042-0.041 0.042h-2e-3c-1.097 0.067-1.86 0.364-1.865 0.374-1.052 0.764-2.072 2.643-2.075 2.681 0.094 0.401 0.252 0.773 0.439 1.11 2e-3 2e-3 3e-3 5e-3 4e-3 8e-3h1e-3l-1e-3 1e-3c2e-3 2e-3 3e-3 6e-3 3e-3 9e-3 0 0.018-0.014 0.031-0.032 0.031-7e-3 0-0.014-2e-3 -0.019-7e-3h-1e-3c-1e-3 -1e-3 -2e-3 -3e-3 -4e-3 -4e-3 -0.617-0.64-1.253-0.567-1.26-0.56-1.107 0.268-2.876 0.805-2.876 0.805-0.508 0.544-0.862 1.086-1.105 1.603 0 1e-3 -1e-3 2e-3 -2e-3 3e-3l-1e-3 1e-3c-4e-3 8e-3 -0.014 0.014-0.026 0.014-0.017 0-0.032-0.012-0.032-0.028 0-4e-3 2e-3 -8e-3 4e-3 -0.011 0.193-0.653 0.325-1.357 0.311-2.042l-0.489-1.136s-2.239 2.733-2.257 6.806l1.142-0.772s0.46-0.713 0.888-1.73c6e-3 -0.017 0.021-0.029 0.038-0.029 0.023 0 0.042 0.019 0.042 0.043 0 4e-3 -1e-3 9e-3 -2e-3 0.012-0.274 1.286 0.058 2.213 0.065 2.237 0.694 1.416 1.355 2.277 1.392 2.319 0.512 0.147 1.012 0.162 1.475 0.101h3e-3c0.02 0 0.035 0.017 0.035 0.036 0 0.014-0.01 0.027-0.022 0.032-0.845 0.36-1.026 0.917-1.026 0.925-0.307 1.85 0.153 3.11 0.153 3.11 0.309 0.623 0.934 1.395 1.059 1.5 0.078 0.066 0.051 0.107-0.033 0.044s-1.525-1.12-1.525-1.12l-1.254 0.217c0.529 0.863 1.448 1.771 2.282 2.454 0.15 0.122 0.09 0.187-0.057 0.086-3.164-2.263-5.141-6.042-4.923-10.213 0.341-6.503 5.889-11.498 12.392-11.157 5.364 0.281 9.702 4.106 10.865 9.087 0.023 0.181-0.07 0.075-0.101-0.013" fill="#140e0c"/></g><g transform="translate(383.45 419.7)"><path d="m0 0c3e-3 0 5e-3 1e-3 7e-3 3e-3 1.045 0.643 1.976 0.682 1.982 0.69 1.247-0.28 2.536-0.625 2.875-0.743 0.294-0.4 0.458-0.825 0.538-1.243h1e-3c3e-3 -0.027 0.026-0.049 0.054-0.049 0.03 0 0.053 0.023 0.055 0.052 0.158 0.869 0.654 1.293 0.654 1.293 1.377 0.527 2.758 0.86 2.758 0.86 0.742-0.139 1.35-0.357 1.846-0.612 1e-3 0 1e-3 0 2e-3 -1e-3 4e-3 -1e-3 7e-3 -2e-3 0.011-2e-3 0.016 0 0.029 0.013 0.029 0.03 0 0.012-0.012 0.023-0.012 0.023-0.842 0.554-1.532 1.02-1.532 1.02s-0.071 0.454-0.165 1.207c-1.369 0.46-2.846 0.676-4.376 0.596-0.998-0.052-1.959-0.227-2.871-0.508l-0.242-1.207c-0.32-0.337-0.951-0.856-1.626-1.381h1e-3c-3e-3 -3e-3 -6e-3 -7e-3 -6e-3 -0.011 0-0.01 8e-3 -0.017 0.017-0.017" fill="#140e0c"/></g><g transform="translate(395.21 419.29)"><path d="m0 0c0.884-0.76 1.114-1.536 1.12-1.536 0.252-1.268 0.227-2.807 0.203-3.301-0.428-0.309-0.819-0.545-1.175-0.723-2e-3 -1e-3 -3e-3 -2e-3 -4e-3 -2e-3 -1e-3 -1e-3 -2e-3 -1e-3 -3e-3 -1e-3h1e-3c-0.022-0.012-0.036-0.034-0.036-0.059 0-0.038 0.03-0.068 0.067-0.068 4e-3 0 7e-3 0 0.012 1e-3 0 0 0 1e-3 1e-3 1e-3h2e-3c0.893 0.142 1.543-0.118 1.56-0.124 1.047-1.021 1.635-2.397 1.635-2.397 0.222-0.831 0.239-1.557 0.147-2.173v-1e-3c-1e-3 -5e-3 -6e-3 -0.027 0.026-0.027 0.011 0 0.019 7e-3 0.023 0.016 0.391 1.206 0.799 1.861 0.799 1.861s0.143 0.385 0.981 0.86c-1e-3 0.017-1e-3 0.033-3e-3 0.049-0.132 2.531-1.054 4.833-2.513 6.681-0.28-0.041-0.676-0.1-0.883-0.137-0.283 0.111-1.078 0.6-1.919 1.14-2e-3 0-3e-3 2e-3 -5e-3 2e-3l-1e-3 1e-3c-5e-3 2e-3 -0.01 4e-3 -0.015 4e-3 -0.02 0-0.036-0.016-0.036-0.036 0-0.013 6e-3 -0.024 0.016-0.031" fill="#140e0c"/></g><g transform="translate(394.24 413.31)"><path d="m0 0h-1e-3c-1e-3 -1e-3 -3e-3 -1e-3 -4e-3 -1e-3 -1.013-0.24-1.518 0.063-1.518 0.063s-3.26 2.42-3.248 2.421c-0.269 0.532-0.424 1.008-0.499 1.43-3e-3 0.023-0.023 0.04-0.046 0.04-0.024 0-0.042-0.017-0.045-0.041-0.104-0.844-0.423-1.467-0.416-1.467-1.803-1.091-3.346-2.552-3.346-2.552-0.641-0.082-1.177-0.088-1.624-0.046h-6e-3c-0.03 0-0.055-0.024-0.055-0.054 0-0.025 0.016-0.045 0.037-0.052 0.783-0.32 1.294-0.746 1.294-0.746 0.293-1.598 0.974-3.45 1.301-3.966-0.095-0.661-0.24-1.184-0.411-1.6-5e-3 -9e-3 -8e-3 -0.018-8e-3 -0.029 0-0.036 0.029-0.065 0.066-0.065 0.031 0 0.045 0.018 0.045 0.018 0.51 0.591 0.986 0.934 0.986 0.934 2.407-0.519 4.561 0.124 4.562 0.114 0.404-0.107 0.745-0.367 1.027-0.694 8e-3 -0.011 0.02-0.018 0.035-0.018 0.023 0 0.041 0.018 0.041 0.041 0 7e-3 -1e-3 0.012-2e-3 0.017-0.394 0.784-0.319 1.39-0.319 1.39 1.04 1.722 1.233 4.066 1.233 4.066 0.316 0.307 0.636 0.535 0.946 0.702 0.019 8e-3 0.032 0.025 0.032 0.047 0 0.027-0.023 0.049-0.049 0.049-4e-3 0-6e-3 0-8e-3 -1e-3" fill="#140e0c"/></g></g></g></g></svg>
