<svg width="48.949mm" height="13.857mm" version="1.1" viewBox="0 0 173.44 49.099" xmlns="http://www.w3.org/2000/svg">
 <g transform="translate(-227.57 -273.53)">
  <path d="m230.45 322.63c-1.5925 0-2.8888-1.2962-2.8888-2.8888v-43.32c0-1.5938 1.2962-2.89 2.8888-2.89h167.66c1.5925 0 2.8888 1.2962 2.8888 2.89v43.32c0 1.5925-1.2962 2.8888-2.8888 2.8888h-167.66z" fill="#020000"/>
  <path d="m243.5 306.8c-0.42625-0.25-0.63875-0.6875-0.63875-1.3138v-9.675h2.8162v-3.6425h-2.8162v-7.8075h-5.2162v7.8075h-2.3262v3.6425h2.3262v9.6862c0 2.1975 0.25625 3.6012 0.77 4.2125 0.5125 0.6125 1.895 0.91875 4.1462 0.91875h3.3025v-3.5662h-0.975c-0.62625 0-1.0888-0.0863-1.3888-0.2625" fill="#fff200"/>
  <path d="m257.99 292.39c-0.925-0.625-2.315-0.9375-4.1662-0.9375s-3.29 0.2875-4.315 0.8625c-1.2762 0.72625-1.915 1.8762-1.915 3.4525v1.985h5.0675v-1.9475c0-0.35 0.085-0.6125 0.25625-0.7875 0.17125-0.17625 0.38-0.26375 0.62625-0.26375 0.2925 0 0.51375 0.0875 0.66125 0.26375 0.14625 0.175 0.22 0.4375 0.22 0.7875v1.7938c0 1.3112-1.17 1.695-3.5088 2.8212-2.3412 1.125-3.51 2.765-3.51 4.4662v2.6988c0 1.1262 0.325 1.9638 0.97625 2.5138 0.65 0.55125 1.7512 0.82625 3.3025 0.82625 0.95125 0 1.6825-0.0687 2.1962-0.20625 0.51125-0.1375 0.89375-0.44375 1.1438-0.91875v0.825h4.6175v-14.67c0-1.6512-0.55125-2.8388-1.6525-3.565m-3.565 13.805c0 0.325-0.0813 0.57-0.24375 0.7325-0.16375 0.16375-0.37 0.24375-0.62 0.24375-0.3 0-0.53125-0.08-0.69375-0.24375-0.16375-0.1625-0.24375-0.4075-0.24375-0.7325v-1.6088c0-0.4 0.125-0.725 0.375-0.975 0.25-0.25125 0.725-0.46375 1.4262-0.63875v3.2225z" fill="#fff200"/>
  <path d="m262.34 310.63h5.2162v-26.272h-5.2162v26.272z" fill="#fff200"/>
  <path d="m284.49 292.17h-5.705l-3.0412 6.8312v-14.644h-5.2162v26.272h5.2162v-6.7912l3.2288 6.7912h6.1175l-4.8038-9.355 4.2038-9.105z" fill="#fff200"/>
  <path d="m295.62 296.48c-0.93-0.95125-1.9238-1.965-2.9788-3.04-0.755-0.80625-1.1325-1.6375-1.1325-2.4938v-2.455c0-0.2775 0.0775-0.47875 0.235-0.605 0.15625-0.12625 0.39-0.18875 0.70375-0.18875 0.26125 0 0.47625 0.07 0.645 0.2075 0.17 0.13875 0.255 0.335 0.255 0.58625v3.745h5.2175v-3.4125c0-1.3762-0.43875-2.4638-1.3138-3.2662-1.0262-0.92375-2.5775-1.3888-4.6538-1.3888-2.4025 0-4.1538 0.465-5.255 1.3888-0.95125 0.8025-1.4262 2.04-1.4262 3.7162v2.965c0 0.97625 0.44125 2.0262 1.3212 3.1525 0.2 0.25 1.1312 1.2512 2.7912 3.0038 1.005 1.08 1.9475 2.0725 2.8288 2.9762 0.3275 0.4275 0.49 1.005 0.49 1.7338v3.1288c0 0.30125-0.09 0.52875-0.2725 0.67875-0.18 0.15-0.4525 0.22625-0.815 0.22625-0.31125 0-0.57625-0.0825-0.79625-0.245-0.22-0.16375-0.33-0.385-0.33-0.66125v-4.9475h-5.2175v4.8775c0 1.2262 0.41375 2.2512 1.2388 3.0775 1.1012 1.1262 2.84 1.6888 5.2162 1.6888 2.5025 0 4.2788-0.475 5.33-1.4262 0.90125-0.825 1.3512-2.1012 1.3512-3.8275v-3.34c0-1.1262-0.365-2.2012-1.0938-3.2275-0.3525-0.50125-1.1325-1.3762-2.3388-2.6275" fill="#fff200"/>
  <path d="m312.11 284.88c-0.90125-0.35-2.59-0.525-5.0675-0.525h-5.6288v26.271h5.5925v-9.6838c7.0575 0 7.58-3.0512 7.58-4.6538v-7.2812c0-2.1262-0.825-3.5012-2.4762-4.1275m-3.1162 10.946c0 0.6575-0.24625 1.0862-0.74 1.2875-0.18125 0.0775-0.59875 0.11375-1.2475 0.11375v-9.1575c0.5975 0 1.0262 0.05 1.2875 0.15125 0.4675 0.2025 0.7 0.61875 0.7 1.2488v6.3562z" fill="#fff200"/>
  <path d="m328.17 285.48c-1.0762-0.875-2.715-1.3138-4.9162-1.3138-2.4038 0-4.1425 0.46375-5.2175 1.3888-0.95125 0.80126-1.4262 2.04-1.4262 3.715v16.928c0 1.5512 0.6125 2.7275 1.8388 3.5275 1.2262 0.80125 2.815 1.2012 4.7675 1.2012 1.9512 0 3.5325-0.4125 4.7462-1.2388s1.82-2.0012 1.82-3.5275v-16.928c0-1.625-0.5375-2.8762-1.6125-3.7525m-3.9788 21.015c0 0.25-0.0775 0.445-0.23375 0.58375-0.155 0.13875-0.40375 0.20625-0.74125 0.20625-0.33875 0-0.5925-0.0675-0.76125-0.20625s-0.2525-0.33375-0.2525-0.58375v-17.972c0-0.27625 0.0838-0.47625 0.2525-0.6025 0.16875-0.125 0.4225-0.1875 0.76125-0.1875 0.3375 0 0.58625 0.0625 0.74125 0.1875 0.15625 0.12625 0.23375 0.32625 0.23375 0.6025v17.972z" fill="#fff200"/>
  <path d="m359.32 284.36h-12.198v4.0538h3.2288v22.219h5.7412v-22.219h3.2275v-4.0538z" fill="#fff200"/>
  <path d="m344.14 285.63c-1.0638-0.84625-2.5475-1.27-4.4475-1.27h-7.1312v26.272h5.7412v-10.855c0.57375 0 1.025 0.07 1.3512 0.20625 0.32625 0.13875 0.48875 0.5325 0.48875 1.1838v4.66c0 0.21375 1e-3 0.41875 5e-3 0.6175v4.1838h0.8575v4e-3h2.18c-1e-3 -1e-3 -2e-3 -2e-3 -2e-3 -4e-3h2.5487v-4.62c4e-3 -0.0487 6e-3 -0.0987 4e-3 -0.15v-4.9987c0-0.92625-0.17375-1.6538-0.52125-2.18-0.5475-0.80125-1.2162-1.39-2.6825-1.7662 1.5912-0.5225 2.2962-1.22 2.7938-2.0912 0.2725-0.47249 0.41-1.145 0.41-2.0175v-3.8138c0-1.395-0.5325-2.515-1.595-3.3612m-3.9975 7.745c0 0.6475-0.2225 1.07-0.665 1.27-0.1825 0.0738-0.575 0.11125-1.175 0.11125v-7.0562c0.57375 0 1.025 0.0688 1.3512 0.205 0.32625 0.13751 0.48875 0.53 0.48875 1.1762v4.2938z" fill="#fff200"/>
  <path d="m391.98 303.63c3.4038-7.7912-0.15375-16.865-7.945-20.269-7.79-3.4038-16.865 0.1525-20.269 7.9438s0.15375 16.866 7.945 20.27c0.23625 0.10375 0.47375 0.2 0.7125 0.29125l-3.9588 5.7525 14.706-5.695 9e-3 -5e-3c3.8012-1.3975 7.05-4.2838 8.8-8.2888" fill="#fff"/>
  <path d="m375.49 302.02s-1.7112 1.23-1.9038 2.6275c0 0 1.1225 1.7825 2.17 2.7238 0.17 0.0763 1.6875 0.95875 5.0862-0.0475l1.4938-2.0975s-3.9175 0.6625-6.8462-3.2062" fill="#dbd9d9"/>
  <path d="m367.63 297.93s-0.12 2.965 1.615 4.7488l3.2062 0.94s1.47-0.8425 1.905-2.675c0 0-4.215 0.5275-5.2562-5.4725l-1.47 2.4588z" fill="#dbd9d9"/>
  <path d="m365.22 297.81 0.8925 0.7475s1.3438 2.3762 1.615 4.725l-0.38625 0.915s-1.8225-2.24-2.1212-6.3875" fill="#dbd9d9"/>
  <path d="m375.55 308.98-0.6275 0.50625s1.9538 0.77125 6.855-0.10875c0 0-0.5325-0.4825-1.3425-0.5725-0.98375-0.11-2.0775 0.66-4.885 0.175" fill="#dbd9d9"/>
  <path d="m390.7 300.47c-0.59 1.6575-1.4875 3.1775-1.9275 3.805-0.30875-0.415-0.3275-1.0462-0.3275-1.0462 0.0787-0.77125 0.2-1.4688 0.3425-2.0875 1e-3 -2e-3 1e-3 -5e-3 1e-3 -7e-3 0-0.0188-0.0163-0.035-0.035-0.035-0.0163 0-0.03 0.0125-0.0337 0.0275-0.4425 1.0238-1.0738 1.5625-1.0712 1.59-1.62 0.84-3.6788 1.205-3.7088 1.2062-0.50625-0.295-0.90375-0.60625-1.2175-0.91875 0 0-0.0238-0.0325-0.0625-0.0312-0.0437 1e-3 -0.08 0.0362-0.08 0.0812 0 0.0163 5e-3 0.0263 0.0138 0.045 0.39375 0.82125 0.5675 1.5875 0.57375 1.5925-0.825 1.4412-2.1075 2.8475-2.0962 2.8575-0.715 0.3275-1.43 0.49875-2.0962 0.5725-0.02 0-0.0362 0.0162-0.0362 0.0362s0.0163 0.0375 0.0362 0.0375c0 0 1e-3 -1e-3 2e-3 -1e-3 1.35 0.0337 2.2012 0.32125 2.2012 0.32125s0.66625 0.41125 1.315 0.94875c-4.5462 1.505-8.3088 0.1075-8.3088 0.1075s0.8125-0.45 1.17-0.835c0.8175-0.27 1.59-0.41875 2.29-0.49 0.025-1e-3 0.045-0.0213 0.045-0.0475 0-0.025-0.0213-0.0462-0.0475-0.0462-1.2362-0.0763-2.0938-0.41-2.1-0.42125-1.1825-0.86-2.3312-2.9738-2.3338-3.0162 0.105-0.4525 0.2825-0.87125 0.49375-1.25 2e-3 -2e-3 4e-3 -5e-3 4e-3 -8e-3l1e-3 -1e-3c1e-3 -4e-3 2e-3 -7e-3 2e-3 -0.0113 0-0.02-0.0163-0.035-0.0362-0.035-7e-3 0-0.015 2e-3 -0.0213 7e-3 0 0 0 1e-3 -1e-3 1e-3l-4e-3 4e-3c-0.695 0.72-1.4088 0.63875-1.4188 0.63-1.245-0.30125-3.235-0.905-3.235-0.905-0.5725-0.6125-0.97-1.2238-1.2438-1.8038-1e-3 -1e-3 -1e-3 -2e-3 -3e-3 -4e-3v-1e-3c-6e-3 -0.01-0.0175-0.0163-0.03-0.0163-0.02 0-0.035 0.015-0.035 0.0312 0 5e-3 1e-3 0.01 4e-3 0.0138 0.2175 0.73375 0.365 1.5262 0.35 2.2975l-0.55125 1.2775s-2.5188-3.075-2.5388-7.6575l1.285 0.8675s0.5175 0.80251 0.9975 1.9475c7e-3 0.0188 0.025 0.0325 0.045 0.0325 0.025 0 0.0463-0.0213 0.0463-0.0475 0-5e-3 -1e-3 -0.01-2e-3 -0.015-0.3075-1.445 0.0662-2.4888 0.0737-2.5162 0.78-1.5925 1.5238-2.5625 1.5662-2.6088 0.57625-0.16626 1.1388-0.1825 1.6588-0.115h4e-3c0.0213 0 0.0388-0.0175 0.0388-0.0388 0-0.0175-0.01-0.0312-0.0238-0.0362-0.95-0.405-1.1538-1.0325-1.155-1.0412-0.345-2.0825 0.1725-3.5 0.1725-3.5 0.3475-0.70124 1.05-1.5687 1.1912-1.6875 0.0875-0.0737 0.0587-0.12125-0.0363-0.05-0.0937 0.0725-1.7175 1.2612-1.7175 1.2612l-1.4088-0.245c0.595-0.97125 1.6288-1.9925 2.5662-2.76 0.16875-0.1375 0.1025-0.21125-0.065-0.0975-3.5588 2.5463-5.7838 6.7975-5.5375 11.491 0.3825 7.3175 6.625 12.938 13.941 12.554 6.0375-0.31624 10.919-4.62 12.226-10.225 0.0275-0.2025-0.0775-0.0838-0.1125 0.015" fill="#020000"/>
  <path d="m371.88 287.7c2e-3 0 6e-3 -1e-3 9e-3 -2e-3 1.175-0.72375 2.2225-0.7675 2.23-0.77625 1.4025 0.315 2.8525 0.7025 3.2338 0.835 0.33125 0.45 0.51625 0.92875 0.60625 1.3988 4e-3 0.0312 0.03 0.055 0.0612 0.055 0.0337 0 0.06-0.0263 0.0625-0.0575 0.17875-0.97875 0.73625-1.455 0.73625-1.455 1.5488-0.595 3.1025-0.96875 3.1025-0.96875 0.835 0.1575 1.5188 0.4025 2.0775 0.68875 0 0 1e-3 1e-3 2e-3 1e-3 4e-3 1e-3 7e-3 2e-3 0.0113 2e-3 0.0188 0 0.0325-0.015 0.0325-0.0337 1e-3 -0.0138-0.0125-0.0263-0.0125-0.0263-0.9475-0.6225-1.7238-1.1475-1.7238-1.1475s-0.08-0.51125-0.18625-1.3575c-1.54-0.51875-3.2025-0.76125-4.9238-0.67125-1.1225 0.0587-2.2038 0.25625-3.23 0.5725l-0.27375 1.3588c-0.35875 0.3775-1.07 0.9625-1.8275 1.5525-4e-3 4e-3 -6e-3 7e-3 -6e-3 0.0125 0 0.0113 9e-3 0.0188 0.0188 0.0188" fill="#020000"/>
  <path d="m385.12 288.16c0.995 0.855 1.2525 1.7288 1.2612 1.7288 0.2825 1.4275 0.25375 3.1588 0.2275 3.7138-0.48125 0.3475-0.9225 0.61375-1.3225 0.81375-1e-3 1e-3 -4e-3 2e-3 -5e-3 2e-3s-1e-3 1e-3 -2e-3 1e-3c-0.0238 0.0137-0.04 0.0375-0.04 0.0662 0 0.0425 0.0337 0.0763 0.0763 0.0763 5e-3 0 9e-3 0 0.0125-1e-3h3e-3c1.005-0.16 1.7362 0.13125 1.755 0.14 1.1788 1.1475 1.8412 2.695 1.8412 2.695 0.24875 0.93625 0.2675 1.7525 0.165 2.445v1e-3c-1e-3 6e-3 -6e-3 0.0312 0.0288 0.0312 0.0125 0 0.0213-7e-3 0.0263-0.0175 0.44-1.3575 0.89875-2.0938 0.89875-2.0938s0.16-0.43375 1.1038-0.96875c-1e-3 -0.0188-1e-3 -0.0362-2e-3 -0.055-0.15-2.8475-1.1862-5.4375-2.8275-7.5175-0.31625 0.0462-0.76125 0.1125-0.995 0.15251-0.31875-0.12376-1.2125-0.67251-2.1575-1.28-2e-3 -1e-3 -5e-3 -2e-3 -8e-3 -4e-3 0 0 0-1e-3 -1e-3 -1e-3 -5e-3 -2e-3 -0.01-4e-3 -0.0163-4e-3 -0.0225 0-0.0412 0.0188-0.0412 0.0413 0 0.0137 7e-3 0.0262 0.0188 0.0337" fill="#020000"/>
  <path d="m384.03 294.88h-1e-3c-1e-3 0-2e-3 1e-3 -5e-3 1e-3 -1.14 0.27-1.7075-0.0712-1.7075-0.0712s-3.6688-2.7225-3.655-2.7238c-0.3025-0.59875-0.47625-1.1338-0.56125-1.6088-4e-3 -0.025-0.025-0.045-0.0513-0.045s-0.0475 0.02-0.0512 0.045c-0.1175 0.95-0.475 1.6525-0.4675 1.6512-2.0288 1.2288-3.765 2.8725-3.765 2.8725-0.7225 0.0913-1.325 0.0987-1.8275 0.0513h-7e-3c-0.0337 0-0.0612 0.0275-0.0612 0.0612 0 0.0275 0.0175 0.05 0.0425 0.0575 0.88 0.36 1.4562 0.84 1.4562 0.84 0.32875 1.7975 1.095 3.8825 1.4625 4.4638-0.10625 0.7425-0.27 1.3312-0.4625 1.7988-5e-3 0.01-9e-3 0.0212-9e-3 0.0325 0 0.0412 0.0325 0.0738 0.0738 0.0738 0.0362 0 0.0512-0.02 0.0512-0.02 0.57375-0.665 1.11-1.0512 1.11-1.0512 2.7075 0.58375 5.1312-0.14 5.1312-0.12875 0.45625 0.12 0.83875 0.4125 1.1575 0.78 7e-3 0.0125 0.0225 0.0213 0.0387 0.0213 0.0263 0 0.0463-0.0213 0.0463-0.0475 0-6e-3 -1e-3 -0.0125-4e-3 -0.0175h1e-3c-0.4425-0.8825-0.36-1.5638-0.36-1.5638 1.17-1.9375 1.3888-4.5762 1.3888-4.5762 0.35625-0.345 0.715-0.60125 1.065-0.78875 0.02-9e-3 0.035-0.0288 0.035-0.0525 0-0.0312-0.025-0.0563-0.055-0.0563-4e-3 0-6e-3 1e-3 -9e-3 1e-3" fill="#020000"/>
 </g>
</svg>
