<svg height="174.12" viewBox="0 0 158.75 46.068091" width="600" xmlns="http://www.w3.org/2000/svg"><g transform="translate(12.562 1.7221)"><path d="m27.781 10.064c-1.3418 0-2.4693-1.1482-2.4693-2.5678 0-1.4385 1.1076-2.5868 2.4693-2.5868 1.3634 0 2.4702 1.1482 2.4702 2.5868 0 1.4195-1.1068 2.5678-2.4702 2.5678m-.068-8.0727c-1.4213 0-2.7993.58579-3.8508 1.6364-1.0316 1.0299-1.5949 2.3725-1.5949 3.8318 0 1.4558.52617 2.8019 1.537 3.85 1.0688 1.1275 2.3535 1.6727 3.9493 1.6727 1.5751 0 2.897-.56419 3.9683-1.6338 1.048-1.0498 1.5751-2.3535 1.5751-3.9294 0-1.4187-.6022-2.859-1.7124-3.9104-1.049-.9903-2.353-1.5174-3.872-1.5174"/><path d="m17.497 6.0167c.25661.11491.60048.21945.97286.34128 2.1522.70675 3.2002 1.5431 3.1009 3.2642-.12269 2.0883-1.8999 3.4992-4.4841 3.3488-1.9846-.11491-3.2935-1.1007-3.7074-2.5566l2.788-.7971c.108.6251.479 1.0391 1.052 1.0721.616.036 1.138-.357 1.169-.8742.047-.8139-.81-.8338-2.12-1.3176-1.815-.6679-2.677-1.69-2.585-3.2547.1175-2.0338 1.7548-3.3739 4.301-3.227 1.8377.10627 3.0784 1.0791 3.4283 2.4468l-2.6749.76291c-.08122-.5616-.40003-.95558-.88386-.98409-.24019-.014688-.48297.061343-.67737.22723-.38793.33609-.4199.9141-.0743 1.2908.11146.12269.24624.20736.39484.25747"/><path d="m47.641 2.2669h-3.0611v5.946c0 1.0221-.7007 1.8541-1.563 1.8541-.86572 0-1.5638-.83202-1.5638-1.8541v-5.946h-3.0611v4.4055c0 1.5923.09245 2.687.30326 3.3557.28685.9141.79746 1.6511 1.518 2.1729.73439.52963 1.6796.78364 2.8037.78364.99446 0 1.8127-.18835 2.5056-.6048l.97113.34819h1.1474"/><path d="m-7.3983 7.4198h3.2296l-1.665-4.326zm3.2028-8.6192 5.355 13.928h-3.2875l-1.023-2.662h-5.1745l-.95298 2.662h-3.2832l4.7092-12.615"/><path d="m34.311 12.728h3.0611v-14.351l-3.0611 1.0973"/><path d="m7.5176 10.064c-1.3418 0-2.4702-1.1482-2.4702-2.5678 0-1.4385 1.1085-2.5868 2.4702-2.5868 1.3608 0 2.4702 1.1482 2.4702 2.5868 0 1.4195-1.1094 2.5678-2.4702 2.5678m.4726-8.0723c-.63158 0-1.2303.13824-1.7876.38016-.36028.15293-.70415.36201-1.029.61343v-4.6077l-3.0611 1.0973v13.253h1.1474l1.9137-.68515c.34301.26179.68687.4631 1.0411.61171.52704.21773 1.0973.32745 1.7012.32745h.016416c1.347 0 2.5419-.54 3.5121-1.5759.98322-1.042 1.48-2.3596 1.4774-3.8932.002-1.5783-.474-2.9166-1.432-3.9483-.945-1.0264-2.1364-1.5767-3.4998-1.5733"/><path d="m54.254 2.2669h-1.2657v-3.8897l-3.0611 1.0981v2.7916h-1.2692v2.643h1.2692v7.8183h3.0611v-7.8181h1.2657"/><path d="m62.13 6.2733-.0864-.15206c-.44928-.78191-1.2683-1.3038-2.204-1.3038-.93743 0-1.7565.52185-2.2049 1.3038l-.08726.15206zm-.51667 3.1631 2.8823 1.0342c-.20217.31104-.4415.60912-.71884.88559-1.0679 1.0696-2.3924 1.6338-3.9675 1.6338-1.5941 0-2.878-.54604-3.9484-1.6736-1.0109-1.048-1.5362-2.3924-1.5362-3.8517 0-1.4567.56592-2.7985 1.5949-3.8309 1.0498-1.0506 2.4321-1.6338 3.85-1.6338 1.518 0 2.8209.52444 3.8733 1.5172.78019.73958 1.3072 1.6718 1.5517 2.6568.10454.41126.15811.83375.15811 1.2528 0 .48988-.05098.95298-.15293 1.3893h-7.5936l.03024.053567c.45014.77932 1.2735 1.3055 2.2032 1.3055.68688 0 1.3133-.28339 1.7738-.73871"/><path d="m32.222 27.375c-1.3435 0-2.4719-1.1491-2.4719-2.5678 0-1.4394 1.1102-2.5877 2.4719-2.5877 1.3634 0 2.4702 1.1482 2.4702 2.5877 0 1.4187-1.1068 2.5678-2.4702 2.5678m-.06912-8.074c-1.4204 0-2.7993.58579-3.8508 1.6381-1.0299 1.0282-1.5949 2.3708-1.5949 3.8301 0 1.4567.52531 2.8028 1.5362 3.8508 1.0705 1.1266 2.3544 1.6718 3.9502 1.6718 1.5759 0 2.897-.56419 3.9692-1.6329 1.0472-1.0506 1.5742-2.3544 1.5742-3.9286 0-1.4204-.60134-2.8607-1.7124-3.9104-1.048-.991-2.3518-1.5189-3.8716-1.5189"/><path d="m-7.7984 22.947c1.4947 0 2.3933-.74908 2.3933-1.9889 0-1.2813-.81215-1.9639-2.3509-1.9639h-1.3228v3.9528zm-4.7641-7.1582h4.5074c2.3708 0 3.4188.23501 4.3796 1.0256 1.0895.89682 1.753 2.3501 1.753 3.8888 0 2.3708-1.3893 4.123-3.5476 4.4867l3.8681 4.8496h-4.1665l-3.3108-4.615v4.6146h-3.4836"/><path d="m25.649 30.039h-3.204v-10.682h3.2046zm0-11.837h-3.2046v-2.414h3.2046z"/><path d="m15.578 27.375c-1.3625 0-2.4727-1.1491-2.4727-2.5678 0-1.4394 1.1102-2.5877 2.4727-2.5877 1.3608 0 2.4693 1.1482 2.4693 2.5877 0 1.4187-1.1292 2.5678-2.4693 2.5678m2.342-10.592v3.5113c-.32486-.25056-.66787-.45964-1.0282-.6143-.559-.24019-1.156-.37929-1.7867-.37929-1.3642-.0026-2.5557.54777-3.5026 1.5742-.95558 1.0333-1.4325 2.3708-1.4308 3.9484-.0017 1.5327.4942 2.8512 1.4783 3.8923.97113 1.0368 2.1652 1.5759 3.5113 1.5759h.01728c.6022 0 1.1742-.10886 1.7012-.32659.35424-.14861.69811-.34992 1.0402-.61257l1.9155.68687h1.1457v-14.352"/><path d="m3.8465 27.375c-1.3608 0-2.4693-1.1491-2.4693-2.5678 0-1.4394 1.1085-2.5877 2.4693-2.5877 1.3625 0 2.471 1.1482 2.471 2.5877 0 1.4187-1.1292 2.5678-2.471 2.5678m2.3449-8.0179v.93743c-.3257-.25-.6687-.459-1.0299-.614-.5581-.24-1.1551-.379-1.7867-.379-1.3634-.0026-2.5548.54777-3.5018 1.5742-.95644 1.0333-1.4334 2.3708-1.4308 3.9484-.00259 1.5327.49507 2.8512 1.4774 3.8923.97113 1.0368 2.166 1.5759 3.5113 1.5759h.01728c.60307 0 1.175-.10886 1.7003-.32659.3552-.149.6999-.35 1.0429-.613l1.9137.687h1.1457v-10.682"/><path d="m54.897 24.81-14.466-9.021v28.557l14.467-9.0235v9.0235l22.905-14.28-22.906-14.277" fill="#942c97"/><path d="m89.112 3.0255c-3.8033 0-6.0782 2.5358-6.0782 5.7291 0 3.2357 2.4486 5.5105 6.2519 5.5105 3.8932 0 6.2121-2.5375 6.2121-5.5537 0-3.2365-2.4935-5.6859-6.3858-5.6859m-.96076 27.027c-4.2431 0-7.2169-1.5319-9.7968-3.6737l2.9289-4.11c2.319 1.9682 4.3744 2.8849 6.9975 2.8849 4.5049 0 7.2169-3.9796 7.3923-9.6214-1.531 1.8386-3.8932 3.2374-7.1737 3.2374-6.5162 0-10.846-3.8042-10.846-9.7519 0-6.0359 4.6362-10.627 11.415-10.627 3.8482 0 6.3408 1.093 8.4844 3.2365 2.274 2.2732 3.7178 5.6401 3.7178 11.719 0 9.8832-4.9006 16.706-13.12 16.706"/><path d="m115.74 3.156c-4.7891 0-7.7759 4.8323-7.7759 10.982 0 6.1499 3.0767 11.071 7.8649 11.071 4.7874 0 7.7759-4.8755 7.7759-10.983 0-6.1076-3.0758-11.07-7.8649-11.07m0 26.932c-8.0826 0-13.356-7.0303-13.356-15.861 0-8.8309 5.3602-15.948 13.445-15.948 8.0818 0 13.356 7.0294 13.356 15.86 0 8.8317-5.3602 15.949-13.445 15.949"/><path d="m138.38 29.553c-2.9903 0-6.2976-1.0757-8.9285-3.1493l2.1531-3.2676c2.2714 1.7142 4.7416 2.5911 6.8955 2.5911 2.0701 0 3.2659-.87695 3.2659-2.2732v-.07862c0-1.6347-2.2282-2.1928-4.7018-2.9488-3.1104-.87609-6.5758-2.1531-6.5758-6.1784v-.07949c0-3.9856 3.3082-6.4177 7.4917-6.4177 2.6309 0 5.501.91756 7.7319 2.3915l-1.912 3.4275c-2.0338-1.2346-4.1843-1.9915-5.9391-1.9915-1.8723 0-2.9488.87609-2.9488 2.1125v.07862c0 1.5146 2.2714 2.1522 4.7425 2.9497 3.0689.95558 6.5378 2.3518 6.5378 6.1361v.08122c0 4.4245-3.43 6.6165-7.8122 6.6165"/></g></svg>