<svg version="1.1" viewBox="0 0 236.6 66.345" xmlns="http://www.w3.org/2000/svg">
 <style type="text/css">.st0{fill:#ffffff;}</style>
 <g transform="translate(176 -105.26)">
  <g fill="#fff">
   <path class="st0" d="m-175.3 130.6h7c1.5 0 2.8 0.4 3.7 1.3 1 0.9 1.4 1.9 1.4 3.2 0 1.7-0.9 3-2.7 3.8 0.8 0.4 1.5 1.3 2.2 2.9s1.4 3.1 2.1 4.4h-4.3c-0.3-0.5-0.7-1.5-1.3-3s-1.2-2.4-1.6-2.8c-0.5-0.4-0.9-0.6-1.5-0.6h-1.1v6.4h-3.9v-15.6zm3.9 2.9v3.6h2.1c0.7 0 1.2-0.2 1.6-0.5s0.6-0.8 0.6-1.3c0-1.2-0.7-1.8-2.2-1.8h-2.1z"/>
   <path class="st0" d="m-150.4 130.6 7 15.7h-4.2l-1.3-3.1h-7l-1.2 3.1h-4.1l6.3-15.7h4.5zm0.4 9.9-2.5-6.1-2.3 6.1h4.8z"/>
   <path class="st0" d="m-141.4 130.6h6.9c2.7 0 4.8 0.7 6.3 2.2 1.6 1.5 2.3 3.4 2.3 5.7 0 2.4-0.8 4.3-2.4 5.7s-3.8 2.1-6.7 2.1h-6.5v-15.7h0.1zm3.9 2.9v9.9h2.5c1.7 0 2.9-0.5 3.8-1.4s1.3-2.1 1.3-3.6-0.4-2.8-1.3-3.6c-0.9-0.9-2.2-1.3-3.8-1.3h-2.5z"/>
   <path class="st0" d="m-118.7 130.6v15.7h-3.9v-15.7h3.9z"/>
   <path class="st0" d="m-106.5 130.4c2.7 0 4.8 0.8 6.5 2.4s2.5 3.5 2.5 5.6c0 2.2-0.8 4.1-2.5 5.6s-3.8 2.4-6.5 2.4-4.8-0.8-6.5-2.4-2.5-3.5-2.5-5.7c0-2.1 0.8-4 2.5-5.6 1.7-1.4 3.8-2.3 6.5-2.3zm0 12.9c1.5 0 2.7-0.4 3.6-1.3s1.4-2 1.4-3.5c0-1.4-0.5-2.6-1.4-3.5s-2.1-1.3-3.6-1.3-2.7 0.4-3.6 1.3-1.4 2-1.4 3.5c0 1.4 0.5 2.6 1.4 3.5 0.9 0.8 2.1 1.3 3.6 1.3z"/>
   <path class="st0" d="m-160.4 156.7v3.4c-2-1-4-1.4-5.9-1.4-1.8 0-3.3 0.5-4.3 1.4s-1.5 2.1-1.5 3.5 0.5 2.5 1.5 3.3 2.3 1.3 3.9 1.3c0.9 0 1.7-0.2 2.6-0.6v-1.8h-2.3v-2.9h6.3v6.4c-0.6 0.6-1.6 1.1-2.8 1.5-1.3 0.4-2.5 0.6-3.8 0.6-2.7 0-5-0.8-6.7-2.3-1.7-1.3-2.6-3.2-2.6-5.6s0.9-4.3 2.6-5.8c1.8-1.5 4-2.3 6.8-2.3 2.3 0 4.4 0.5 6.2 1.3z"/>
   <path class="st0" d="m-144.5 168.5v2.9h-12v-15.8h3.9v12.8l8.1 0.1z"/>
   <path class="st0" d="m-133.7 155.4c2.7 0 4.8 0.8 6.5 2.4s2.5 3.5 2.5 5.6c0 2.2-0.8 4.1-2.5 5.6s-3.8 2.4-6.5 2.4-4.8-0.8-6.5-2.4-2.5-3.5-2.5-5.7c0-2.1 0.8-4 2.5-5.6 1.6-1.4 3.8-2.3 6.5-2.3zm0 12.9c1.5 0 2.7-0.4 3.6-1.3s1.4-2 1.4-3.5c0-1.4-0.5-2.6-1.4-3.5s-2.1-1.3-3.6-1.3-2.7 0.4-3.6 1.3-1.4 2-1.4 3.5c0 1.4 0.5 2.6 1.4 3.5 0.9 0.8 2.1 1.3 3.6 1.3z"/>
   <path class="st0" d="m-110 155.6h3.9v8.9c0 2.3-0.7 4-2 5.2s-3.3 1.8-5.8 1.8-4.4-0.6-5.8-1.8-2.1-2.9-2.1-5.2v-8.9h3.9v9c0 1.1 0.4 2 1.1 2.6 0.7 0.7 1.7 1 2.8 1 1.2 0 2.2-0.3 2.9-1s1.1-1.6 1.1-2.9v-8.7z"/>
   <path class="st0" d="m-87.9 166.6v3.4c-2 1-4 1.6-6.2 1.6-2.8 0-5-0.8-6.7-2.3s-2.5-3.4-2.5-5.7 0.9-4.2 2.6-5.7c1.7-1.6 4-2.4 6.8-2.4 2.2 0 4.1 0.5 5.7 1.4v3.5c-1.9-1.1-3.7-1.6-5.4-1.6s-3 0.4-4.1 1.3-1.6 2-1.6 3.4 0.5 2.5 1.6 3.4c1 0.9 2.4 1.4 4 1.4 0.8 0 1.6-0.1 2.3-0.3 0.9-0.2 2-0.7 3.5-1.4z"/>
   <path class="st0" d="m-72.9 168.5v2.9h-11.6v-15.8h11.4v2.9h-7.5v3.3h7.2v2.9h-7.2v3.8h7.7z"/>
   <path class="st0" d="m-59.1 156.7v3.1c-2.1-0.9-3.7-1.4-5-1.4-0.7 0-1.3 0.1-1.7 0.4-0.4 0.2-0.6 0.5-0.6 0.9 0 0.3 0.1 0.6 0.4 0.9s1 0.6 2.2 1 2.1 0.8 2.8 1.2 1.3 0.9 1.8 1.5c0.5 0.7 0.8 1.5 0.8 2.5 0 1.5-0.6 2.6-1.7 3.5s-2.6 1.3-4.4 1.3c-1.9 0-3.8-0.5-5.7-1.5v-3.4c1 0.7 2 1.2 2.8 1.5s1.7 0.5 2.6 0.5c1.5 0 2.3-0.5 2.3-1.4 0-0.3-0.2-0.6-0.5-0.9s-1-0.6-2.2-1.1c-1.2-0.4-2.1-0.8-2.8-1.2s-1.3-0.9-1.8-1.5-0.7-1.5-0.7-2.6c0-1.3 0.5-2.4 1.6-3.3s2.5-1.2 4.4-1.2c1.8-0.1 3.6 0.4 5.4 1.2z"/>
   <path class="st0" d="m-41.4 155.6v2.9h-5.7v12.8h-3.9v-12.8h-5.7v-2.9h15.3z"/>
   <path class="st0" d="m-27.2 168.5v2.9h-11.6v-15.8h11.4v2.9h-7.5v3.3h7.2v2.9h-7.2v3.8h7.7z"/>
   <path class="st0" d="m-24 155.6h7c1.5 0 2.8 0.4 3.7 1.3 1 0.9 1.4 1.9 1.4 3.2 0 1.7-0.9 3-2.7 3.8 0.8 0.4 1.5 1.3 2.2 2.9s1.4 3.1 2.1 4.4h-4.3c-0.3-0.5-0.7-1.5-1.3-3s-1.2-2.4-1.6-2.8c-0.5-0.4-0.9-0.6-1.5-0.6h-1.1v6.4h-3.9v-15.6zm3.9 2.9v3.6h2.1c0.7 0 1.2-0.2 1.6-0.5s0.6-0.8 0.6-1.3c0-1.2-0.7-1.8-2.2-1.8h-2.1z"/>
   <path class="st0" d="m2.4 156.7v3.1c-2.1-0.9-3.7-1.4-5-1.4-0.7 0-1.3 0.1-1.7 0.4-0.4 0.2-0.6 0.5-0.6 0.9 0 0.3 0.1 0.6 0.4 0.9s1 0.6 2.2 1 2.1 0.8 2.8 1.2 1.3 0.9 1.8 1.5c0.5 0.7 0.8 1.5 0.8 2.5 0 1.5-0.6 2.6-1.7 3.5s-2.6 1.3-4.4 1.3c-1.9 0-3.8-0.5-5.7-1.5v-3.4c1 0.7 2 1.2 2.8 1.5s1.7 0.5 2.6 0.5c1.5 0 2.3-0.5 2.3-1.4 0-0.3-0.2-0.6-0.5-0.9s-1-0.6-2.2-1.1c-1.2-0.4-2.1-0.8-2.8-1.2s-1.3-0.9-1.8-1.5-0.7-1.5-0.7-2.6c0-1.3 0.5-2.4 1.6-3.3s2.5-1.2 4.4-1.2c1.8-0.1 3.6 0.4 5.4 1.2z"/>
   <path class="st0" d="m21.6 155.6v15.7h-3.9v-6.3h-7.8v6.3h-4v-15.7h3.9v6.3h7.8v-6.3h4z"/>
   <path class="st0" d="m29.3 155.6v15.7h-3.9v-15.7h3.9z"/>
   <path class="st0" d="m33.2 155.6h7c1.5 0 2.8 0.4 3.7 1.3 1 0.9 1.4 1.9 1.4 3.2 0 1.7-0.9 3-2.7 3.8 0.8 0.4 1.5 1.3 2.2 2.9s1.4 3.1 2.1 4.4h-4.3c-0.3-0.5-0.7-1.5-1.3-3s-1.2-2.4-1.6-2.8c-0.5-0.4-0.9-0.6-1.5-0.6h-1.1v6.4h-3.9v-15.6zm3.9 2.9v3.6h2.1c0.7 0 1.2-0.2 1.6-0.5s0.6-0.8 0.6-1.3c0-1.2-0.7-1.8-2.2-1.8h-2.1z"/>
   <path class="st0" d="m60.6 168.5v2.9h-11.6v-15.8h11.4v2.9h-7.5v3.3h7.2v2.9h-7.2v3.8h7.7z"/>
  </g>
 </g>
 <g transform="matrix(.19532 0 0 .19532 -5.3982 -184.03)" fill="#fff">
  <g transform="matrix(.82302 0 0 -.82302 189.64 997.28)">
   <path d="m0 0c0-11.25-14-10.583-14-10.583h-14v20.333h14c14.417 0.083 14-9.75 14-9.75m-28 40.75h10.667c11.083-0.584 10.666-8.833 10.666-8.833 0-10.25-12.25-10.417-12.25-10.417h-9.083v19.25zm25.417-23.25s9.583 4.083 9.5 14.917c0 0 1.457 17.749-22.063 19.916h-26.104v-74.416h29.917s25-0.084 25 21c0 0 0.583 14.333-16.25 18.583m-67.545 49.416h109.88v-103.54h-109.88v103.54z" fill="#fff"/>
  </g>
  <g transform="matrix(.82302 0 0 -.82302 85.355 997.28)">
   <path d="m0 0c0-11.25-14-10.583-14-10.583h-14v20.333h14c14.417 0.083 14-9.75 14-9.75m-28 40.75h10.667c11.083-0.584 10.666-8.833 10.666-8.833 0-10.25-12.25-10.417-12.25-10.417h-9.083v19.25zm25.417-23.25s9.583 4.083 9.5 14.917c0 0 1.457 17.749-22.063 19.916h-26.104v-74.416h29.917s25-0.084 25 21c0 0 0.583 14.333-16.25 18.583m-67.545 49.416h109.88v-103.54h-109.88v103.54z" fill="#fff"/>
  </g>
  <g transform="matrix(.82302 0 0 -.82302 308.19 958.6)">
   <path d="m0 0v-13.75s-13.417 8.25-28.25 8.417c0 0-27.666 0.54-28.916-26.522 0 0-1-24.895 28.583-26.312 0 0 12.417-1.5 29.25 9.25v-14.25s-22.583-13.416-48.75-3.083c0 0-22 8.04-22.834 34.395 0 0-0.917 27.105 28.417 36.105 0 0 7.834 3 21.917 1.667 0 0 8.416-0.834 20.583-5.917m-87.461-83.627h109.88v103.54h-109.88v-103.54z" fill="#fff"/>
  </g>
 </g>
</svg>
