<svg height="252.74" viewBox="0 0 158.75 66.869503" width="600" xmlns="http://www.w3.org/2000/svg"><g transform="translate(114.9 -115.4)"><path d="m-83.211 117.35h13.749v12.945h-13.749zm8.6622 1.8032c-.05819-.0127-.12084-.0169-.18519-.034l-.07329-.008c-.10463-.0148-.20701-.0252-.3189-.0364-.07274-.008-.14491-.0106-.21931-.0148-.1326-.0106-.25456-.0127-.37988-.0127-.05595 0-.0912.002-.14715.002-.10854 0-.20701.0106-.30211.0148-.05819.002-.11581.008-.17288.0106-.08056.008-.15834.0148-.23777.0319l-.0705.004-.07553.008-.08784.0169c-.04028.004-.08056.0106-.11805.0235-.05371.006-.10854.0148-.16225.0302-.32281.0683-.6294.15838-.90018.268-.14713.056-.28868.11926-.4168.18417-.1119.0514-.21316.10742-.31666.16663-.10014.0537-.18743.11354-.28365.16958-.05092.0391-.10126.0734-.15609.10974-.03861.0319-.08056.0598-.12309.0918-.08504.0643-.17288.13766-.25232.20596-.07162.067-.14098.13321-.21204.19749-.05595.056-.11693.11355-.16673.18016-.05931.0594-.11357.122-.16561.18967-.05819.0672-.10966.13765-.16225.21426-.04531.0537-.07944.10975-.11693.16959-.02965.0404-.05259.0765-.07329.11355-.1477.2372-.27022.48841-.37652.75416-.12924.33623-.22155.69654-.27302 1.073-.01353.12412-.02406.24617-.03301.37317-.0072.0962-.01015.19242-.01015.28867 0 .0755 0 .14886.0023.21932.0072.0744.01565.14484.02406.22435l.0023.0537c.01353.0877.02573.1717.04252.25678.0089.0364.01332.0643.01967.10129.01459.0683.03301.13533.04643.20595.02573.0877.05092.17508.08393.26461.03022.10361.07162.20807.1119.3094.06714.15224.13985.30546.21539.45204.04644.0829.09623.16345.14267.24617.04028.0581.0828.12137.11917.18121.05371.0755.11078.14886.16673.21932.05595.0789.11805.14379.17792.21651.07162.0829.14379.15943.21819.22938l.03637.0374c.06098.056.12421.11799.1947.18629.05371.0391.10518.084.16337.1292.0498.0402.10463.0829.16337.12539.07162.0499.14267.0952.21931.15225.08672.0453.17176.10128.25791.15499.18519.0985.38491.20088.60758.28867.07944.0341.16561.0622.25679.0901.08505.034.1751.0622.26463.0877.16058.0431.32897.0877.50296.12095.1393.0258.29036.051.43862.066.15106.019.30323.033.46436.0425.08168.004.16058.004.24001.008h.11581c.28477 0 .55275-.008.80171-.0319l.05092-.006c.09847-.004.19246-.0148.28253-.0279.1477-.019.27526-.0387.40449-.0643.08168-.008.16058-.0279.23609-.0453.12196-.0258.22882-.0537.34239-.0816.07553-.0212.15218-.0425.22882-.066.08896-.0218.16952-.051.25344-.0816l.07889-.0258c.04028-.0127.09399-.034.15497-.0598.0828-.0302.18128-.067.29204-.12032.07274-.0258.14603-.0622.22267-.0935.0621-.034.13539-.067.20701-.10128.02798-.0127.06098-.0341.08896-.0425v-1.769c-.02072.0148-.0414.0292-.06043.0425l-.12084.0683c-.1203.0795-.2361.14379-.35414.20976-.12812.067-.25623.13364-.37876.1975-.21819.0952-.43023.1829-.62884.2596-.38883.13533-.73794.22043-1.049.27636-.04028.006-.07441.0148-.11078.0211-.08672.0106-.16952.0218-.24952.0302-.12197.0148-.23274.019-.33512.0224-.07329.004-.12812.0106-.1891.0106-.12421 0-.2568-.006-.38715-.0127-.1533-.0127-.30659-.0309-.46883-.056-.25456-.0452-.51079-.1108-.7564-.19855-.04252-.0127-.07665-.0279-.11357-.0452-.02573-.006-.04756-.0148-.07553-.0307-.03916-.0169-.08056-.0302-.12084-.051-.08896-.0425-.17176-.0878-.25791-.13533-.03637-.0258-.07665-.0476-.12196-.0704-.04252-.0279-.0828-.0537-.127-.085-.04868-.0302-.10014-.0727-.14994-.10974-.04868-.0364-.09623-.0816-.14154-.11588l-.05483-.0537-.03189-.0258-.01565-.0127-.01967-.023c-.08168-.0765-.1533-.15837-.22267-.23777-.03525-.0414-.06714-.0901-.10575-.13533-.0291-.0452-.05819-.085-.0828-.13026-.03301-.0425-.06322-.0816-.08056-.12708-.03749-.0594-.0705-.11926-.10575-.18417-.02072-.0537-.04364-.10467-.06826-.15838-.03637-.0877-.06826-.18016-.09344-.26182-.02349-.0622-.0414-.1366-.05931-.20088-.0414-.18121-.06714-.34743-.0828-.49232-.0095-.0581-.0095-.10974-.01332-.15436-.0011-.0704-.0011-.13046-.0011-.17783v-.1108c.0011-.10129.01459-.23162.03022-.37484.01734-.0901.03301-.18417.05986-.28478.01565-.0683.03413-.13026.0498-.20088.02294-.0622.04252-.12412.07441-.19517.01353-.0387.03022-.0839.05204-.12645.02685-.0598.05259-.11926.08559-.17783.02294-.0476.05092-.0928.07553-.13935.06098-.0985.12309-.19982.19974-.29594.02461-.0425.05259-.0734.08168-.1108.03637-.0425.07553-.0928.11805-.13258.01967-.0218.04252-.0442.06435-.0704.32561-.32394.68702-.56115 1.0607-.73458.05819-.0245.12029-.0537.17622-.0755.0649-.0252.12084-.0452.18407-.0683.05819-.019.12645-.0341.19468-.056.05819-.019.12812-.034.18631-.0486.06322-.0127.12924-.0279.18855-.0391.0649-.0106.13036-.019.20086-.0319.06826-.006.13539-.0127.20477-.019.12812-.0106.25232-.019.37372-.019.04868 0 .08672 0 .12421.006.09623 0 .18183.002.26798.006.05986.006.12084.006.18016.0127.10854.0106.22043.0258.32057.0452.08896.008.17904.0258.26183.0391.12588.0258.24113.0537.34855.085.06322.0169.12421.0307.18407.051.08168.0247.15721.0476.21427.0649.09511.0364.15218.056.15218.056.08393.0319.17064.0683.25344.10234.11581.0425.22043.0877.32281.13765.08392.0402.16449.0766.24281.1108.0621.0364.12196.0643.17622.0928.09623.051.17904.10023.24728.13047l.17567.0985v-1.7321s-.10742-.0476-.29148-.11799c-.08392-.0292-.18183-.0632-.29372-.10234-.0621-.0258-.12533-.0486-.1975-.0704-.05483-.0169-.10854-.0387-.16671-.0537-.06826-.0258-.13036-.0476-.20477-.0734-.05092-.008-.10238-.0279-.15946-.0448l-.04868-.0106c-.04756-.0148-.09847-.0268-.14994-.0465-.06434-.0106-.1326-.0307-.19134-.051-.04252-.004-.08784-.0148-.13036-.0224-.06826-.0169-.13539-.0364-.20589-.051-.06601-.0106-.13594-.0252-.21316-.0385" stroke-width=".55946"/><path d="m-93.778 124.5v2.5431h1.6492s.03288-.002.08014-.002c.06371-.002.13975-.006.23839-.0127.17468-.0169.41306-.0453.64426-.12645.20551-.0679.40587-.17255.55897-.32777.05959-.0596.10993-.12222.15208-.18396.12433-.20765.15825-.41305.16645-.53123.001-.0482.001-.0791.001-.0791s.0021-.0216 0-.0596c0-.0514-.0032-.14591-.03288-.24764-.02774-.12327-.08631-.26099-.19111-.39148-.02051-.019-.04521-.0452-.0668-.0708-.04417-.0452-.09145-.0873-.14489-.13258-.09247-.0586-.19625-.12116-.30826-.16641-.1459-.0647-.31442-.11207-.5004-.14908-.08837-.0169-.19111-.0338-.29079-.0381-.06062-.0106-.12228-.0106-.18804-.0148-.05549-.006-.11816-.006-.17673-.006z" stroke-width="1.0275"/><path d="m-93.778 120.64v2.4065h.92065c.05961 0 .11714 0 .17777-.008.16645-.0127.39457-.037.61857-.0966.04726-.0148.0935-.0277.13357-.0421.17878-.0668.3473-.15521.48704-.28772.10378-.10488.17263-.2209.21784-.33086.05857-.14188.07913-.27023.08426-.36683.0082-.0873.0082-.13257.0082-.13257s0-.0421-.0021-.10488c-.0051-.10573-.02465-.27743-.10687-.43773-.04111-.0812-.09659-.15817-.17159-.23325-.09145-.0842-.19728-.15711-.31339-.20849-.22605-.10277-.48704-.13766-.70077-.15013-.09555-.006-.18392-.006-.25483-.006z" stroke-width="1.0275"/><path d="m-99.057 117.35h13.752v12.945h-13.752zm3.6063 1.8166v9.3235h3.5118s1.7114.0425 2.6541-.89738c.7687-.77095.71388-1.6616.71388-1.6616s.05483-.92478-.65681-1.6437c-.6087-.60143-1.3813-.7648-1.3813-.7648s.34967-.16112.61765-.4347c.12533-.12708.57345-.52869.57345-1.5078 0-.99137-.66017-1.5626-.66017-1.5626s-.72227-.85039-2.3475-.85039h-3.025z" stroke-width=".55946"/><path d="m-109.63 124.5v2.5421h1.6512s.0319-.002.0853-.002c.0534-.002.13562-.006.23325-.0127.17673-.0169.411-.0452.6422-.12645.20551-.0679.40792-.17254.56616-.32777.0575-.0596.10378-.12222.1459-.18396.12434-.20765.15823-.41307.16646-.53123.005-.0482.005-.0791.005-.0791v-.0596c-.005-.0514-.009-.1459-.0329-.24763-.0329-.12328-.0904-.261-.19318-.3915-.0184-.019-.0411-.0452-.0637-.0708-.0483-.0452-.0966-.0873-.14694-.13258-.0935-.0586-.19728-.12116-.30825-.16641-.14899-.0636-.31442-.11207-.49938-.14802-.0873-.0169-.18597-.0338-.29079-.0381-.0586-.0106-.12433-.0106-.187-.0148-.0565-.006-.1192-.006-.17572-.006h-1.5978z" stroke-width="1.0275"/><path d="m-109.63 120.64v2.4065h.92374c.0534 0 .12433 0 .17982-.008.16235-.0127.39354-.037.61856-.0966.0452-.0148.0853-.0277.13256-.0421.17673-.0668.34833-.15521.47986-.28772.10583-.10488.17571-.2209.22399-.33086.0534-.14188.0781-.27023.0843-.36683.009-.0884.009-.13363.009-.13363v-.10488c-.008-.10488-.0277-.27639-.11097-.43669-.0411-.0812-.0997-.15817-.1685-.23325-.0935-.0833-.20346-.15627-.3247-.20765-.22194-.10276-.4778-.13765-.69769-.14992-.0915-.008-.17673-.008-.2466-.008z" stroke-width="1.0275"/><path d="m-114.9 117.35h13.752v12.945h-13.752zm3.608 1.8166v9.3235h3.509s1.7114.0425 2.6569-.89738c.76759-.77095.71108-1.6616.71108-1.6616s.0559-.92478-.65513-1.6437c-.61038-.60143-1.3824-.7648-1.3824-.7648s.35079-.16112.61877-.4347c.127-.12708.57625-.52869.57625-1.5078 0-.99137-.66017-1.5626-.66017-1.5626s-.71779-.85039-2.3447-.85039h-3.0295z" stroke-width=".55946"/><g stroke-width="1.0275"><path d="m-113.37 134.81h.99053c1.4858 0 2.0879.6124 2.1013 1.6153.0133.89702-.4552 1.7427-2.1013 1.7427h-.99053zm-1.5351-1.3152v10.699h1.5351v-4.6413h.64425c.78708 0 1.4262.24662 2.8421 2.4465l1.4118 2.1948h1.8321c-.73468-1.0172-1.0029-1.381-1.4611-2.1157-.81379-1.3368-1.4118-2.3242-2.3797-2.9664 1.1436-.45724 1.7879-1.38 1.7879-2.6202 0-1.8526-1.3512-2.9963-3.5141-2.9963z"/><path d="m-101.61 135.79 1.7273 3.8696h-3.3261zm.56719-2.3561h-1.0882l-4.5951 10.761h1.568l1.3532-3.1514h4.5468l1.4283 3.1514h1.5639z"/><path d="m-93.449 134.88h2.3633c3.0014 0 4.3649 1.8228 4.3649 3.9714 0 1.3163-.79941 3.9662-4.2807 3.9662h-2.4476zm-1.5372 9.3176h4.1717c3.5295 0 5.676-2.6037 5.676-5.3462 0-2.5277-1.7406-5.3524-5.6925-5.3524h-4.1563v10.699z"/></g><path d="m-83.476 144.2h1.759v-10.7h-1.759z" stroke-width=".55946"/><g stroke-width="1.0275"><path d="m-78.472 138.85c0-2.3561 1.7745-4.0782 4.1604-4.0782 2.3993 0 4.1717 1.7221 4.1717 4.0782 0 2.3325-1.7725 4.0762-4.1717 4.0762-2.3859-.001-4.1604-1.7437-4.1604-4.0762m-1.5844 0c0 2.8976 2.2133 5.488 5.712 5.488 3.621 0 5.787-2.6068 5.787-5.488 0-2.9819-2.2256-5.4941-5.7551-5.4941-3.4669 0-5.7438 2.5256-5.7438 5.4941"/><path d="m-21.702 140.68c2.2965 0 4.1666-1.8701 4.1666-4.1656 0-2.3027-1.8701-4.1686-4.1666-4.1686-2.2975 0-4.1707 1.866-4.1707 4.1686 0 2.2955 1.8732 4.1656 4.1707 4.1656m14.985 9.9012c-.028778-2.799-.38737-5.4448-1.045-7.8626-.37093-1.3553-.84462-2.6325-1.3995-3.8018-1.2556-2.6263-2.9613-4.6968-5.0626-6.2021.075.14696.16337.28464.23736.43568.46855.99052.71721 2.091.71721 3.2161 0 .12433-.0021.25484-.01226.38532-.08735 1.6666-.68536 3.25-1.7416 4.5838-.53328.67199-1.1642 1.2505-1.8721 1.7304-1.3337.90114-2.8781 1.3758-4.4636 1.3758-.71618 0-1.4344-.10488-2.1496-.31648-3.3631-1.0029-6.1004-4.1204-8.7534-7.132l-.29079-.33394c-2.0818-2.3664-4.444-5.0523-6.6018-5.0975-.21578-.008-.44492.0106-.65761.0617-.7018.15817-1.383.59287-2.0941 1.3276-.25482.25995-.51787.56512-.77167.90114l-.66584.95354c-.64426.98847-1.5947 2.6294-2.4589 4.8386-.32675.82612-.61138 1.6636-.84565 2.4948-.53534 1.8269-.85901 3.66-.97717 5.4428-.02364.47779-.04624.95971-.04624 1.4314 0 .12222.0061.24968.0061.37093.01649.7542.0668 1.5094.15823 2.2431l.16544 1.0789c.23119 1.3327.60829 2.6469 1.1077 3.9036.31648.78812.68844 1.5752 1.1107 2.3356l.45519.7881c.26818.43876.55383.86723.85079 1.2854.35347.50657.7357 1.0029 1.1467 1.4909l.9145 1.0347c.81071.86723 1.7088 1.7129 2.7312 2.5616-.97204-1.7232-2.2852-4.1317-3.0815-6.7673-.46033-1.5135-.68947-2.9141-.68947-4.2036 0-2.951 1.2032-5.2948 3.5922-7.0036 2.1013-1.5022 4.407-1.9359 6.8556-1.2936 2.4722.64734 5.116 2.3952 8.102 5.3369.87134.86516 1.7817 1.8362 2.7784 2.9726 1.2104 1.3758 2.3551 2.7661 3.4607 4.106 1.5495 1.8783 3.0034 3.6498 4.2252 4.8468.37196.35756.70077.64939 1.007.88674.4778.36991.87442.58466 1.1847.64425.53123.0985 1.0707-.37503 1.344-.66789.17777-.19115.36066-.42231.54459-.68842l.46444-.76858.2764-.55077c.26818-.56718.52198-1.2114.7542-1.9143.4069-1.2063.73468-2.5565.98539-4.0084l.19215-1.2628c.12021-.91449.21065-1.8567.26305-2.7908.039055-.65761.055485-1.3255.055485-1.9852-.00103-.1347-.00613-.27434-.00613-.41305" fill="#a7be0f"/><path d="m6.241 148.61c-.1223-18.46-15.191-33.33-33.655-33.21-18.465.12328-33.335 15.192-33.212 33.657.12433 18.464 15.192 33.334 33.656 33.211 7.5482-.0503 14.494-2.6006 20.062-6.8577.11406-.0844.19318-.2127.19111-.36477-.00103-.25381-.2086-.45725-.46136-.45519-.18187.001-.28873.0977-.28873.0977-5.1859 3.9169-11.629 6.2627-18.628 6.309-17.278.11503-31.377-13.798-31.491-31.075-.11714-17.281 13.797-31.379 31.073-31.496 17.278-.11503 31.378 13.799 31.494 31.076.02364 3.5408-.54356 6.9481-1.606 10.129h.00206c-.016493.0503-.027742.10382-.026706.16028.00103.28053.23119.50761.51273.50556.33805-.002.48396-.34012.48396-.34012 1.2505-3.548 1.9215-7.3673 1.8937-11.346" fill="#a7be0f"/></g><g stroke-width=".55946"><path d="m5.5997 165.09h-4.3527v3.0927h4.3527v1.44h-4.3527v5.1874h-1.604v-11.16h5.9567z"/><path d="m18.806 169.22c0 3.2074-2.4549 5.7446-6.1043 5.7446-3.5022 0-5.8912-2.5859-5.8912-5.6954 0-2.9624 2.1601-5.7608 5.9734-5.7608 3.7143 0 6.0221 2.7173 6.0221 5.7116zm-10.343.0493c0 2.5366 1.9962 4.206 4.337 4.206 1.1945 0 2.4874-.4912 3.2561-1.3254.7038-.76928 1.1128-1.9805 1.1128-2.9462 0-1.8496-1.4076-4.1893-4.3202-4.1893-3.1252 0-4.3856 2.3889-4.3856 4.2547z"/><path d="m23.995 168.91v5.908h-1.637v-5.908l-4.1238-5.2534h1.9307l2.9954 3.8458 3.0273-3.8458h1.9313z"/><path d="m30.95 173.36h5.024v1.4569h-6.6442v-11.161h1.6202z"/><path d="m43.698 165.08h-4.7292v3.4038h4.5658v1.4238h-4.5658v3.4692h4.8769v1.4401h-6.4808v-11.161h6.3331z"/></g></g></svg>