<?xml version="1.0" encoding="UTF-8" standalone="no"?>
<!-- Created with Inkscape (http://www.inkscape.org/) -->

<svg
   xmlns:dc="http://purl.org/dc/elements/1.1/"
   xmlns:cc="http://creativecommons.org/ns#"
   xmlns:rdf="http://www.w3.org/1999/02/22-rdf-syntax-ns#"
   xmlns:svg="http://www.w3.org/2000/svg"
   xmlns="http://www.w3.org/2000/svg"
   xmlns:xlink="http://www.w3.org/1999/xlink"
   xmlns:sodipodi="http://sodipodi.sourceforge.net/DTD/sodipodi-0.dtd"
   xmlns:inkscape="http://www.inkscape.org/namespaces/inkscape"
   version="1.1"
   width="231.09549"
   height="68.869476"
   id="svg7091"
   inkscape:version="0.91 r13725"
   sodipodi:docname="BBC Radio Cymru.svg">
  <sodipodi:namedview
     pagecolor="#ffffff"
     bordercolor="#666666"
     borderopacity="1"
     objecttolerance="10"
     gridtolerance="10"
     guidetolerance="10"
     inkscape:pageopacity="0"
     inkscape:pageshadow="2"
     inkscape:window-width="1920"
     inkscape:window-height="1017"
     id="namedview142"
     showgrid="false"
     fit-margin-top="0"
     fit-margin-left="0"
     fit-margin-right="0"
     fit-margin-bottom="0"
     inkscape:zoom="0.96"
     inkscape:cx="111.21145"
     inkscape:cy="35.059225"
     inkscape:window-x="-8"
     inkscape:window-y="-8"
     inkscape:window-maximized="1"
     inkscape:current-layer="svg7091" />
  <defs
     id="defs7093">
    <clipPath
       id="clip10">
      <path
         d="m 122.24219,105.60547 66.61718,0 0,-29.070314 -66.61718,0 z"
         id="path403"
         inkscape:connector-curvature="0" />
    </clipPath>
    <linearGradient
       x1="0.15523"
       y1="0"
       x2="1.37578"
       y2="0"
       id="linear0"
       gradientUnits="userSpaceOnUse"
       gradientTransform="matrix(49.780243,-31.416855,31.416855,49.780243,117.72578,115.56679)">
      <stop
         id="stop406"
         style="stop-color:#007bc1;stop-opacity:1"
         offset="0" />
      <stop
         id="stop408"
         style="stop-color:#007bc1;stop-opacity:1"
         offset="0.015625" />
      <stop
         id="stop410"
         style="stop-color:#007bc2;stop-opacity:1"
         offset="0.0234375" />
      <stop
         id="stop412"
         style="stop-color:#007cc2;stop-opacity:1"
         offset="0.03125" />
      <stop
         id="stop414"
         style="stop-color:#007dc3;stop-opacity:1"
         offset="0.046875" />
      <stop
         id="stop416"
         style="stop-color:#007dc3;stop-opacity:1"
         offset="0.0546875" />
      <stop
         id="stop418"
         style="stop-color:#007ec3;stop-opacity:1"
         offset="0.0585938" />
      <stop
         id="stop420"
         style="stop-color:#007ec4;stop-opacity:1"
         offset="0.0625" />
      <stop
         id="stop422"
         style="stop-color:#007fc4;stop-opacity:1"
         offset="0.078125" />
      <stop
         id="stop424"
         style="stop-color:#007fc4;stop-opacity:1"
         offset="0.09375" />
      <stop
         id="stop426"
         style="stop-color:#0080c5;stop-opacity:1"
         offset="0.101563" />
      <stop
         id="stop428"
         style="stop-color:#0081c6;stop-opacity:1"
         offset="0.109375" />
      <stop
         id="stop430"
         style="stop-color:#0081c6;stop-opacity:1"
         offset="0.125" />
      <stop
         id="stop432"
         style="stop-color:#0082c7;stop-opacity:1"
         offset="0.128906" />
      <stop
         id="stop434"
         style="stop-color:#0083c7;stop-opacity:1"
         offset="0.13281301" />
      <stop
         id="stop436"
         style="stop-color:#0083c7;stop-opacity:1"
         offset="0.140625" />
      <stop
         id="stop438"
         style="stop-color:#0083c7;stop-opacity:1"
         offset="0.15625" />
      <stop
         id="stop440"
         style="stop-color:#0084c8;stop-opacity:1"
         offset="0.16406301" />
      <stop
         id="stop442"
         style="stop-color:#0085c9;stop-opacity:1"
         offset="0.171875" />
      <stop
         id="stop444"
         style="stop-color:#0085c9;stop-opacity:1"
         offset="0.17968801" />
      <stop
         id="stop446"
         style="stop-color:#0086c9;stop-opacity:1"
         offset="0.1875" />
      <stop
         id="stop448"
         style="stop-color:#0087ca;stop-opacity:1"
         offset="0.203125" />
      <stop
         id="stop450"
         style="stop-color:#0087ca;stop-opacity:1"
         offset="0.21093801" />
      <stop
         id="stop452"
         style="stop-color:#0088ca;stop-opacity:1"
         offset="0.214844" />
      <stop
         id="stop454"
         style="stop-color:#0088cb;stop-opacity:1"
         offset="0.21875" />
      <stop
         id="stop456"
         style="stop-color:#0089cb;stop-opacity:1"
         offset="0.234375" />
      <stop
         id="stop458"
         style="stop-color:#0089cb;stop-opacity:1"
         offset="0.24218801" />
      <stop
         id="stop460"
         style="stop-color:#008acc;stop-opacity:1"
         offset="0.25" />
      <stop
         id="stop462"
         style="stop-color:#008acc;stop-opacity:1"
         offset="0.25781301" />
      <stop
         id="stop464"
         style="stop-color:#008bcd;stop-opacity:1"
         offset="0.265625" />
      <stop
         id="stop466"
         style="stop-color:#008ccd;stop-opacity:1"
         offset="0.27343801" />
      <stop
         id="stop468"
         style="stop-color:#008ccd;stop-opacity:1"
         offset="0.28125" />
      <stop
         id="stop470"
         style="stop-color:#008dce;stop-opacity:1"
         offset="0.28906301" />
      <stop
         id="stop472"
         style="stop-color:#008dce;stop-opacity:1"
         offset="0.296875" />
      <stop
         id="stop474"
         style="stop-color:#008ece;stop-opacity:1"
         offset="0.30468801" />
      <stop
         id="stop476"
         style="stop-color:#008fcf;stop-opacity:1"
         offset="0.3125" />
      <stop
         id="stop478"
         style="stop-color:#008fcf;stop-opacity:1"
         offset="0.32031301" />
      <stop
         id="stop480"
         style="stop-color:#008fd0;stop-opacity:1"
         offset="0.328125" />
      <stop
         id="stop482"
         style="stop-color:#0090d0;stop-opacity:1"
         offset="0.33203101" />
      <stop
         id="stop484"
         style="stop-color:#0090d1;stop-opacity:1"
         offset="0.33593801" />
      <stop
         id="stop486"
         style="stop-color:#0091d1;stop-opacity:1"
         offset="0.34375" />
      <stop
         id="stop488"
         style="stop-color:#0091d1;stop-opacity:1"
         offset="0.359375" />
      <stop
         id="stop490"
         style="stop-color:#0092d2;stop-opacity:1"
         offset="0.36718801" />
      <stop
         id="stop492"
         style="stop-color:#0092d2;stop-opacity:1"
         offset="0.375" />
      <stop
         id="stop494"
         style="stop-color:#0093d2;stop-opacity:1"
         offset="0.38281301" />
      <stop
         id="stop496"
         style="stop-color:#0094d3;stop-opacity:1"
         offset="0.390625" />
      <stop
         id="stop498"
         style="stop-color:#0094d3;stop-opacity:1"
         offset="0.39843801" />
      <stop
         id="stop500"
         style="stop-color:#0095d4;stop-opacity:1"
         offset="0.40625" />
      <stop
         id="stop502"
         style="stop-color:#0095d4;stop-opacity:1"
         offset="0.41406301" />
      <stop
         id="stop504"
         style="stop-color:#0096d4;stop-opacity:1"
         offset="0.421875" />
      <stop
         id="stop506"
         style="stop-color:#0097d5;stop-opacity:1"
         offset="0.42968801" />
      <stop
         id="stop508"
         style="stop-color:#0097d5;stop-opacity:1"
         offset="0.4375" />
      <stop
         id="stop510"
         style="stop-color:#0098d5;stop-opacity:1"
         offset="0.44531301" />
      <stop
         id="stop512"
         style="stop-color:#0098d5;stop-opacity:1"
         offset="0.453125" />
      <stop
         id="stop514"
         style="stop-color:#0099d6;stop-opacity:1"
         offset="0.46093801" />
      <stop
         id="stop516"
         style="stop-color:#009ad7;stop-opacity:1"
         offset="0.46875" />
      <stop
         id="stop518"
         style="stop-color:#009ad7;stop-opacity:1"
         offset="0.484375" />
      <stop
         id="stop520"
         style="stop-color:#009bd7;stop-opacity:1"
         offset="0.48828101" />
      <stop
         id="stop522"
         style="stop-color:#009bd8;stop-opacity:1"
         offset="0.49218801" />
      <stop
         id="stop524"
         style="stop-color:#009cd8;stop-opacity:1"
         offset="0.5" />
      <stop
         id="stop526"
         style="stop-color:#029cd9;stop-opacity:1"
         offset="0.50390601" />
      <stop
         id="stop528"
         style="stop-color:#039cd9;stop-opacity:1"
         offset="0.50781298" />
      <stop
         id="stop530"
         style="stop-color:#059cd9;stop-opacity:1"
         offset="0.51171899" />
      <stop
         id="stop532"
         style="stop-color:#069cd9;stop-opacity:1"
         offset="0.515625" />
      <stop
         id="stop534"
         style="stop-color:#089dd9;stop-opacity:1"
         offset="0.51953101" />
      <stop
         id="stop536"
         style="stop-color:#099dd9;stop-opacity:1"
         offset="0.52343798" />
      <stop
         id="stop538"
         style="stop-color:#0a9dd9;stop-opacity:1"
         offset="0.52734399" />
      <stop
         id="stop540"
         style="stop-color:#0a9eda;stop-opacity:1"
         offset="0.53125" />
      <stop
         id="stop542"
         style="stop-color:#0b9eda;stop-opacity:1"
         offset="0.53515601" />
      <stop
         id="stop544"
         style="stop-color:#0c9eda;stop-opacity:1"
         offset="0.53906298" />
      <stop
         id="stop546"
         style="stop-color:#0e9fda;stop-opacity:1"
         offset="0.54296899" />
      <stop
         id="stop548"
         style="stop-color:#0e9fda;stop-opacity:1"
         offset="0.546875" />
      <stop
         id="stop550"
         style="stop-color:#0f9fda;stop-opacity:1"
         offset="0.55078101" />
      <stop
         id="stop552"
         style="stop-color:#0f9fda;stop-opacity:1"
         offset="0.55468798" />
      <stop
         id="stop554"
         style="stop-color:#10a0db;stop-opacity:1"
         offset="0.5625" />
      <stop
         id="stop556"
         style="stop-color:#11a0db;stop-opacity:1"
         offset="0.56640601" />
      <stop
         id="stop558"
         style="stop-color:#14a1dc;stop-opacity:1"
         offset="0.57031298" />
      <stop
         id="stop560"
         style="stop-color:#15a1dc;stop-opacity:1"
         offset="0.57421899" />
      <stop
         id="stop562"
         style="stop-color:#16a1dc;stop-opacity:1"
         offset="0.578125" />
      <stop
         id="stop564"
         style="stop-color:#17a2dc;stop-opacity:1"
         offset="0.58203101" />
      <stop
         id="stop566"
         style="stop-color:#18a2dc;stop-opacity:1"
         offset="0.58593798" />
      <stop
         id="stop568"
         style="stop-color:#18a2dc;stop-opacity:1"
         offset="0.59375" />
      <stop
         id="stop570"
         style="stop-color:#19a3dd;stop-opacity:1"
         offset="0.60156298" />
      <stop
         id="stop572"
         style="stop-color:#1aa3dd;stop-opacity:1"
         offset="0.60546899" />
      <stop
         id="stop574"
         style="stop-color:#1ba4dd;stop-opacity:1"
         offset="0.609375" />
      <stop
         id="stop576"
         style="stop-color:#1ca4dd;stop-opacity:1"
         offset="0.61328101" />
      <stop
         id="stop578"
         style="stop-color:#1ca4dd;stop-opacity:1"
         offset="0.61718798" />
      <stop
         id="stop580"
         style="stop-color:#1da5de;stop-opacity:1"
         offset="0.625" />
      <stop
         id="stop582"
         style="stop-color:#1da5de;stop-opacity:1"
         offset="0.62890601" />
      <stop
         id="stop584"
         style="stop-color:#1ea5de;stop-opacity:1"
         offset="0.63281298" />
      <stop
         id="stop586"
         style="stop-color:#1ea6df;stop-opacity:1"
         offset="0.63671899" />
      <stop
         id="stop588"
         style="stop-color:#1fa6df;stop-opacity:1"
         offset="0.640625" />
      <stop
         id="stop590"
         style="stop-color:#1fa6df;stop-opacity:1"
         offset="0.64843798" />
      <stop
         id="stop592"
         style="stop-color:#20a7e0;stop-opacity:1"
         offset="0.65234399" />
      <stop
         id="stop594"
         style="stop-color:#21a7e0;stop-opacity:1"
         offset="0.65625" />
      <stop
         id="stop596"
         style="stop-color:#22a8e0;stop-opacity:1"
         offset="0.66015601" />
      <stop
         id="stop598"
         style="stop-color:#23a8e0;stop-opacity:1"
         offset="0.66406298" />
      <stop
         id="stop600"
         style="stop-color:#23a8e0;stop-opacity:1"
         offset="0.66796899" />
      <stop
         id="stop602"
         style="stop-color:#24a8e0;stop-opacity:1"
         offset="0.671875" />
      <stop
         id="stop604"
         style="stop-color:#25a9e1;stop-opacity:1"
         offset="0.67578101" />
      <stop
         id="stop606"
         style="stop-color:#25a9e1;stop-opacity:1"
         offset="0.67968798" />
      <stop
         id="stop608"
         style="stop-color:#26a9e1;stop-opacity:1"
         offset="0.68359399" />
      <stop
         id="stop610"
         style="stop-color:#28aae2;stop-opacity:1"
         offset="0.6875" />
      <stop
         id="stop612"
         style="stop-color:#28aae2;stop-opacity:1"
         offset="0.69140601" />
      <stop
         id="stop614"
         style="stop-color:#29aae2;stop-opacity:1"
         offset="0.69531298" />
      <stop
         id="stop616"
         style="stop-color:#29aae2;stop-opacity:1"
         offset="0.703125" />
      <stop
         id="stop618"
         style="stop-color:#29aae2;stop-opacity:1"
         offset="0.71875" />
      <stop
         id="stop620"
         style="stop-color:#29aae2;stop-opacity:1"
         offset="0.75" />
      <stop
         id="stop622"
         style="stop-color:#29aae2;stop-opacity:1"
         offset="1" />
    </linearGradient>
    <clipPath
       id="clip11">
      <path
         d="m 122.24219,105.60547 66.61718,0 0,-29.070314 -66.61718,0 z"
         id="path625"
         inkscape:connector-curvature="0" />
    </clipPath>
    <linearGradient
       inkscape:collect="always"
       xlink:href="#linear0"
       id="linearGradient4345"
       x1="38.788548"
       y1="65.448006"
       x2="134.34386"
       y2="65.448006"
       gradientUnits="userSpaceOnUse" />
    <linearGradient
       inkscape:collect="always"
       xlink:href="#linear0"
       id="linearGradient4349"
       gradientUnits="userSpaceOnUse"
       x1="38.788548"
       y1="65.448006"
       x2="134.34386"
       y2="65.448006" />
    <linearGradient
       inkscape:collect="always"
       xlink:href="#linear0"
       id="linearGradient4351"
       gradientUnits="userSpaceOnUse"
       x1="38.788548"
       y1="65.448006"
       x2="134.34386"
       y2="65.448006" />
    <linearGradient
       inkscape:collect="always"
       xlink:href="#linear0"
       id="linearGradient4353"
       gradientUnits="userSpaceOnUse"
       x1="38.788548"
       y1="65.448006"
       x2="134.34386"
       y2="65.448006" />
    <linearGradient
       inkscape:collect="always"
       xlink:href="#linear0"
       id="linearGradient4355"
       gradientUnits="userSpaceOnUse"
       x1="38.788548"
       y1="65.448006"
       x2="134.34386"
       y2="65.448006" />
    <linearGradient
       inkscape:collect="always"
       xlink:href="#linear0"
       id="linearGradient4357"
       gradientUnits="userSpaceOnUse"
       x1="38.788548"
       y1="65.448006"
       x2="134.34386"
       y2="65.448006" />
    <linearGradient
       inkscape:collect="always"
       xlink:href="#linear0"
       id="linearGradient4359"
       gradientUnits="userSpaceOnUse"
       x1="38.788548"
       y1="65.448006"
       x2="134.34386"
       y2="65.448006" />
    <linearGradient
       inkscape:collect="always"
       xlink:href="#linear0"
       id="linearGradient4361"
       gradientUnits="userSpaceOnUse"
       x1="38.788548"
       y1="65.448006"
       x2="134.34386"
       y2="65.448006" />
  </defs>
  <metadata
     id="metadata7096">
    <rdf:RDF>
      <cc:Work
         rdf:about="">
        <dc:format>image/svg+xml</dc:format>
        <dc:type
           rdf:resource="http://purl.org/dc/dcmitype/StillImage" />
        <cc:license
           rdf:resource="" />
        <dc:title></dc:title>
      </cc:Work>
    </rdf:RDF>
  </metadata>
  <path
     d="m 108.71349,66.75854 2.51556,0 0,-65.896573 -2.51556,0 z"
     id="path4560"
     style="fill:#ffffff;fill-opacity:1;fill-rule:nonzero;stroke:none"
     inkscape:connector-curvature="0" />
  <path
     inkscape:connector-curvature="0"
     style="clip-rule:nonzero;fill:#ffffff;fill-opacity:1;fill-rule:nonzero;stroke:none"
     id="path4564"
     d="m 127.72957,13.562803 c 0,-2.146127 0,-2.937729 -0.15852,-4.362614 l 2.41001,0 0,3.764511 0.0878,0 c 0.87955,-2.198896 2.53313,-4.221884 5.01348,-4.221884 0.58053,0 1.26656,0.105559 1.68875,0.22868 l 0,2.533131 c -0.49253,-0.158338 -1.1434,-0.22868 -1.75909,-0.22868 -3.83491,0 -4.87275,4.292248 -4.87275,7.810485 l 0,9.657563 -2.41001,0 z" />
  <path
     inkscape:connector-curvature="0"
     style="clip-rule:nonzero;fill:#ffffff;fill-opacity:1;fill-rule:nonzero;stroke:none"
     id="path4566"
     d="m 151.49524,18.892932 -0.68604,0 c -4.18671,0 -9.16502,0.422189 -9.16502,4.714437 0,2.568311 1.84709,3.535827 4.06359,3.535827 5.68196,0 5.78747,-4.943121 5.78747,-7.054063 z m 0.22877,6.71983 -0.0703,0 c -1.07306,2.339626 -3.7997,3.588601 -6.2097,3.588601 -5.5588,0 -6.43834,-3.746921 -6.43834,-5.506039 0,-6.56151 6.96608,-6.860563 12.03234,-6.860563 l 0.45736,0 0,-1.002697 c 0,-3.342322 -1.19618,-5.031076 -4.45056,-5.031076 -2.02299,0 -3.94043,0.474959 -5.7523,1.618389 l 0,-2.339631 c 1.49524,-0.721237 4.02837,-1.33693 5.7523,-1.33693 4.83758,0 6.86057,2.181307 6.86057,7.282752 l 0,8.619678 c 0,1.565618 0,2.761819 0.19365,4.098749 l -2.37484,0 z" />
  <path
     inkscape:connector-curvature="0"
     style="clip-rule:nonzero;fill:#ffffff;fill-opacity:1;fill-rule:nonzero;stroke:none"
     id="path4568"
     d="m 166.94031,27.143196 c 4.29227,0 5.78752,-4.608892 5.78752,-8.162309 0,-3.571011 -1.49525,-8.179899 -5.78752,-8.179899 -4.59129,0 -5.78751,4.380204 -5.78751,8.179899 0,3.782106 1.19622,8.162309 5.78751,8.162309 m 8.19748,1.600799 -2.40996,0 0,-3.096048 -0.0702,0 c -1.30174,2.497945 -3.30712,3.553416 -6.10415,3.553416 -5.36528,0 -8.03914,-4.432978 -8.03914,-10.220476 0,-5.945822 2.30445,-10.238071 8.03914,-10.238071 3.83491,0 5.75235,2.797 6.10415,3.746926 l 0.0702,0 0,-12.489742 2.40996,0 z" />
  <path
     inkscape:connector-curvature="0"
     style="clip-rule:nonzero;fill:#ffffff;fill-opacity:1;fill-rule:nonzero;stroke:none"
     id="path4570"
     d="m 180.97809,9.200189 2.40996,0 0,19.543806 -2.40996,0 z m 2.40996,-5.20699 -2.40996,0 0,-3.236777 2.40996,0 z" />
  <path
     inkscape:connector-curvature="0"
     style="clip-rule:nonzero;fill:#ffffff;fill-opacity:1;fill-rule:nonzero;stroke:none"
     id="path4572"
     d="m 196.33516,27.143196 c 4.22189,0 6.49117,-3.641376 6.49117,-8.162309 0,-4.520933 -2.26928,-8.179899 -6.49117,-8.179899 -4.20427,0 -6.47355,3.658966 -6.47355,8.179899 0,4.520933 2.26928,8.162309 6.47355,8.162309 m 0,-18.40038 c 6.33283,0 9.12985,4.907942 9.12985,10.238071 0,5.312535 -2.79702,10.220476 -9.12985,10.220476 -6.31522,0 -9.1122,-4.907941 -9.1122,-10.220476 0,-5.330129 2.79698,-10.238071 9.1122,-10.238071" />
  <path
     inkscape:connector-curvature="0"
     style="clip-rule:nonzero;fill:#ffffff;fill-opacity:1;fill-rule:nonzero;stroke:none"
     id="path4574"
     d="m 138.6713,44.875108 c -0.91477,-0.422188 -1.91743,-0.721237 -3.48307,-0.721237 -3.184,0 -5.2246,2.515536 -5.2246,6.244866 0,3.641376 1.72397,6.438376 5.33016,6.438376 1.46008,0 3.07844,-0.545328 3.95799,-0.914742 l 0.22877,4.239474 c -1.49525,0.474963 -3.02566,0.650873 -5.1366,0.650873 -6.47356,0 -9.74551,-4.397794 -9.74551,-10.413981 0,-5.717133 3.37751,-10.238066 9.552,-10.238066 2.07577,0 3.57101,0.22868 4.97831,0.650873 z" />
  <path
     inkscape:connector-curvature="0"
     style="clip-rule:nonzero;fill:#ffffff;fill-opacity:1;fill-rule:nonzero;stroke:none"
     id="path4576"
     d="m 151.86465,55.02522 0.0703,0 4.74963,-14.40718 5.22456,0 -7.40588,19.59658 c -1.65359,4.362613 -2.83216,8.654857 -8.19748,8.654857 -1.2314,0 -2.46279,-0.1935 -3.64136,-0.527733 l 0.33415,-3.799696 c 0.65091,0.22868 1.38973,0.351847 2.65629,0.351847 2.05816,0 3.32473,-1.424885 3.32473,-3.535827 l -7.54661,-20.740006 5.68196,0 z" />
  <path
     inkscape:connector-curvature="0"
     style="clip-rule:nonzero;fill:#ffffff;fill-opacity:1;fill-rule:nonzero;stroke:none"
     id="path4578"
     d="m 164.89976,40.61804 4.7848,0 0,2.761819 0.0703,0 c 1.61841,-2.409996 3.95803,-3.219188 5.87547,-3.219188 2.76181,0 4.71441,1.037881 5.82268,3.483052 1.17862,-2.374806 3.76448,-3.483052 6.17449,-3.483052 4.87276,0 6.24488,3.342323 6.24488,7.740121 l 0,12.454557 -5.13665,0 0,-11.7685 c 0,-1.829483 0,-4.432978 -2.95532,-4.432978 -3.41268,0 -3.83486,4.06356 -3.83486,6.614285 l 0,9.587193 -5.13661,0 0,-11.7685 c 0,-1.829483 0,-4.432978 -2.93775,-4.432978 -3.43029,0 -3.83487,4.06356 -3.83487,6.614285 l 0,9.587193 -5.1366,0 z" />
  <path
     inkscape:connector-curvature="0"
     style="clip-rule:nonzero;fill:#ffffff;fill-opacity:1;fill-rule:nonzero;stroke:none"
     id="path4580"
     d="m 198.02392,40.61804 4.55612,0 0,4.485752 0.0702,0 c 0.22877,-1.847073 2.33962,-4.943121 5.41806,-4.943121 0.49258,0 1.02032,0 1.56563,0.158338 l 0,5.17181 c -0.45736,-0.263851 -1.37212,-0.422189 -2.30445,-0.422189 -4.1691,0 -4.1691,5.20699 -4.1691,8.05676 l 0,7.229977 -5.13665,0 z" />
  <path
     inkscape:connector-curvature="0"
     style="clip-rule:nonzero;fill:#ffffff;fill-opacity:1;fill-rule:nonzero;stroke:none"
     id="path4582"
     d="m 231.09534,60.355349 -4.85514,0 0,-2.67386 -0.0878,0 c -1.56563,1.917438 -3.78213,3.131229 -6.47356,3.131229 -4.67924,0 -6.70223,-3.289548 -6.70223,-7.740121 l 0,-12.454557 5.1366,0 0,10.537119 c 0,2.427586 0.036,5.681954 3.32473,5.681954 3.72935,0 4.52095,-4.02838 4.52095,-6.561511 l 0,-9.657562 5.1366,0 z" />
  <g
     id="g4330"
     style="fill:url(#linearGradient4345);fill-opacity:1"
     transform="translate(-38.788549,-31.646543)">
    <path
       d="m 94.148007,69.889776 c 0.01801,-2.48036 -1.635975,-4.345023 -4.274663,-5.083855 0.72121,-0.351846 1.266565,-0.791602 1.688753,-1.33693 0.562918,-0.721237 0.809206,-1.618389 0.809206,-2.656265 0,-1.28416 -0.492576,-2.568315 -1.565632,-3.535831 -1.090665,-0.985106 -2.726639,-1.618389 -4.94314,-1.618389 l -6.174488,0 0,19.61417 7.247545,0 c 2.568346,0 4.380221,-0.703647 5.558836,-1.741528 1.161007,-1.037877 1.653583,-2.392401 1.653583,-3.641372 m 6.878133,9.165006 -28.937488,0 0,-27.213561 28.937488,0 z"
       id="path4584"
       style="clip-rule:nonzero;fill:url(#linearGradient4349);fill-opacity:1;fill-rule:nonzero;stroke:none"
       inkscape:connector-curvature="0" />
    <path
       d="m 90.559383,69.502768 c 0,0.650873 -0.211207,1.30175 -0.791598,1.811893 -0.580526,0.510143 -1.565632,0.897152 -3.236777,0.897152 l -3.324728,0 0,-5.34772 3.183998,0 c 1.477682,0 2.53313,0.299067 3.201607,0.756417 0.650868,0.474964 0.949935,1.090656 0.967498,1.882258"
       id="path4586"
       style="clip-rule:nonzero;fill:url(#linearGradient4351);fill-opacity:1;fill-rule:nonzero;stroke:none"
       inkscape:connector-curvature="0" />
    <path
       d="m 87.850352,63.099578 c 0.615697,-0.457369 0.914719,-1.073061 0.914719,-2.022988 0,-0.668462 -0.176081,-1.23138 -0.650868,-1.635978 -0.45736,-0.422189 -1.266565,-0.721238 -2.568302,-0.721238 l -2.339621,0 0,5.066261 1.618366,0 c 1.407295,0 2.392401,-0.246288 3.025706,-0.686057"
       id="path4588"
       style="clip-rule:nonzero;fill:url(#linearGradient4353);fill-opacity:1;fill-rule:nonzero;stroke:none"
       inkscape:connector-curvature="0" />
    <path
       d="m 60.830295,69.889776 c 0.01801,-2.48036 -1.635974,-4.345023 -4.274663,-5.083855 0.721255,-0.351846 1.284173,-0.791602 1.688754,-1.33693 0.545309,-0.721237 0.809205,-1.618389 0.809205,-2.656265 0,-1.28416 -0.510138,-2.568315 -1.583195,-3.535831 -1.073101,-0.985106 -2.709076,-1.618389 -4.925531,-1.618389 l -6.174533,0 0,19.61417 7.229981,0 c 2.58591,0 4.397785,-0.703647 5.558837,-1.741528 1.178569,-1.037877 1.671145,-2.392401 1.671145,-3.641372 m 6.860573,9.165006 -28.902319,0 0,-27.213561 28.902319,0 z"
       id="path4590"
       style="clip-rule:nonzero;fill:url(#linearGradient4355);fill-opacity:1;fill-rule:nonzero;stroke:none"
       inkscape:connector-curvature="0" />
    <path
       d="m 54.53264,63.099578 c 0.615697,-0.457369 0.914764,-1.073061 0.914764,-2.022988 0,-0.668462 -0.193643,-1.23138 -0.650868,-1.635978 -0.474967,-0.422189 -1.266565,-0.721238 -2.550738,-0.721238 l -2.35723,0 0,5.066261 1.618411,0 c 1.389687,0 2.392401,-0.246288 3.025661,-0.686057"
       id="path4592"
       style="clip-rule:nonzero;fill:url(#linearGradient4357);fill-opacity:1;fill-rule:nonzero;stroke:none"
       inkscape:connector-curvature="0" />
    <path
       d="m 56.274173,67.62051 c -0.668476,-0.474958 -1.723925,-0.774012 -3.201606,-0.774012 l -3.183999,0 0,5.365315 3.324728,0 c 1.653582,0 2.656297,-0.387018 3.236778,-0.897152 0.580526,-0.510143 0.774034,-1.16102 0.774034,-1.811893 0,-0.774012 -0.299022,-1.407294 -0.949935,-1.882258"
       id="path4594"
       style="clip-rule:nonzero;fill:url(#linearGradient4359);fill-opacity:1;fill-rule:nonzero;stroke:none"
       inkscape:connector-curvature="0" />
    <path
       d="m 128.59151,70.012911 -0.45736,0.299067 c -2.23406,1.35452 -4.66164,2.093348 -6.87814,2.093348 -4.73202,-0.01756 -7.86328,-2.83218 -7.88085,-6.913334 0.018,-3.9932 3.27195,-6.948518 7.74012,-6.966108 2.30445,0 4.36262,0.598102 6.82536,1.935032 l 0.45741,0.263851 0,-3.658966 -0.19365,-0.07039 c -2.77942,-1.090652 -4.92553,-1.583205 -7.05408,-1.583205 -3.27195,0 -6.12171,1.090651 -8.1447,2.920134 -2.02299,1.847078 -3.21922,4.432978 -3.21922,7.405892 0,2.075757 0.84438,4.520933 2.69147,6.45596 1.82949,1.917443 4.64407,3.324737 8.49655,3.324737 l 0.018,0 c 3.21922,0 5.41811,-0.703647 7.42349,-1.706348 l 0.17608,-0.07039 z m 5.75234,9.041871 -28.91992,0 0,-27.213561 28.91992,0 z"
       id="path4596"
       style="clip-rule:nonzero;fill:url(#linearGradient4361);fill-opacity:1;fill-rule:nonzero;stroke:none"
       inkscape:connector-curvature="0" />
  </g>
</svg>
