<svg height="329.99057" viewBox="0 0 158.751 87.308819" width="600.00378" xmlns="http://www.w3.org/2000/svg"><g fill="#fff"><path d="m115.121-.00059347c-24.1 0-43.63 19.55000047-43.63 43.65000047 0 24.12 19.53 43.66 43.63 43.66s43.63-19.54 43.63-43.66c0-24.1-19.53-43.65000047-43.63-43.65000047"/><path d="m40.783 2.6894065h17.7v16.6500005h-17.7zm11.15 2.32-.237-.04-.1-.01-.41-.05-.279-.02-.494-.02h-.189l-.389.02-.216.02-.315.03-.084.01-.095.02-.121.02-.147.02-.205.04-1.172.35-.526.23-.41.22-.363.22-.194.14-.168.12-.321.26-.273.26-.216.22-.21.25-.21.28-.153.22-.094.15-.484.97c-.163.42-.279.89-.347 1.3800005l-.047.48-.011.36v.29l.032.28.01.08.053.33.026.12.053.27.11.34.142.39.284.59.179.32.157.23.211.28.236.28.273.3.048.04.252.24.21.17.211.16.278.19.337.2.778.38.331.12.342.1.646.16.568.09.594.05.31.01h.147l1.036-.04h.063l.363-.05.52-.07.305-.06.442-.11.294-.08.326-.11.1-.03.194-.08.389-.15.279-.13.268-.12.121-.06v-2.27l-.084.05-.158.09-.457.27-.489.25-.804.33c-.5.18-.952.29-1.351.36l-.142.03-.321.04-.431.03-.242.01-.499-.02-.605-.07-.972-.26-.148-.05-.094-.04-.158-.07-.331-.17-.158-.09-.157-.12-.195-.13-.179-.15-.079-.07-.031-.04-.021-.01-.037-.03-.279-.31-.136-.17-.111-.17-.105-.16-.131-.24-.079-.2-.137-.34-.073-.26-.1-.63-.016-.2-.01-.23v-.14l.047-.49.073-.36.069-.2600005.084-.25.074-.16.11-.23.095-.18.257-.39.1-.14.163-.17.079-.09c.415-.41.883-.73 1.367-.94l.231-.1.231-.09.253-.07.241-.06.237-.05.263-.04.263-.02.483-.03h.158l.342.01.231.02.41.05.336.06.452.11.237.06.273.09.2.07.326.12.415.19.311.14.231.12.315.17.226.13v-2.24l-.373-.15-.384-.13-.242-.09-.226-.07-.257-.08-.205-.07-.058-.02-.2-.05-.247-.06-.163-.04-.268-.06z"/><path d="m27.188 11.899407v3.28h2.119l.11-.01.3-.02.831-.16.725-.42.189-.24.221-.68.005-.11v-.08l-.042-.31-.247-.51-.089-.09-.189-.16-.405-.23-.636-.18-.368-.05-.253-.02-.22-.01z"/><path d="m27.188 6.9194065v3.1100005h1.02l.168-.01.226-.01.8-.1300005.173-.05.62-.37.284-.43.116-.46v-.32l-.142-.55-.216-.3-.41-.26-.893-.2-.332-.02z"/><path d="m20.397 2.6894065h17.694v16.6500005h-17.694zm4.636 2.33v12.0000005h4.521s2.203.06 3.417-1.15c.988-.99.915-2.14.915-2.14s.073-1.19-.847-2.11c-.778-.78-1.776-.99-1.776-.99l.799-.56c.157-.1600005.736-.6800005.736-1.9400005 0-1.28-.847-2.01-.847-2.01s-.93-1.1-3.023-1.1z"/><path d="m6.797 11.899407v3.28h2.119l.115-.01.295-.02.835-.16.721-.42.189-.24.221-.68.005-.11v-.08l-.042-.31-.258-.51-.073-.09-.19-.16-.399-.23-.636-.18-.379-.05-.247-.02-.221-.01z"/><path d="m6.797 6.9194065v3.1100005h1.025l.163-.01.231-.01.794-.1300005.174-.05.615-.37.284-.43.12-.46.006-.18v-.14l-.142-.55-.221-.3-.415-.26-.899-.2-.316-.02z"/><path d="m0 2.6894065h17.7v16.6500005h-17.7zm4.647 2.33v12.0000005h4.516s2.197.06 3.417-1.15c.988-.99.92-2.14.92-2.14s.068-1.19-.852-2.11c-.778-.78-1.777-.99-1.777-.99l.799-.56c.163-.1600005.741-.6800005.741-1.9400005 0-1.28-.851-2.01-.851-2.01s-.925-1.1-3.018-1.1z"/><path d="m1.979 25.169407h1.272c1.914 0 2.687.78 2.702 2.08.021 1.15-.583 2.24-2.702 2.24h-1.272zm-1.976-1.7v13.76h1.976v-5.97h.831c1.014 0 1.834.33 3.653 3.16l1.814 2.81h2.36c-.946-1.3-1.288-1.77-1.876-2.72-1.052-1.71-1.819-2.98-3.071-3.81 1.478-.59 2.308-1.78 2.308-3.37 0-2.38-1.74-3.86-4.526-3.86z"/><path d="m17.105 26.419407 2.224 4.98h-4.279zm.726-3.03h-1.388l-5.919 13.84h2.013l1.745-4.04h5.856l1.835 4.04h2.019z"/><path d="m27.609 25.249407h3.044c3.858 0 5.619 2.34 5.619 5.11 0 1.69-1.035 5.11-5.509 5.11h-3.154zm-1.977 11.99h5.368c4.547 0 7.307-3.36 7.307-6.88 0-3.25-2.24-6.89-7.328-6.89h-5.347z"/><path d="m40.588 37.239407h1.977v-13.76h-1.977z"/><path d="m46.883 30.359407c0-3.03 2.287-5.25 5.352-5.25 3.091 0 5.372 2.22 5.372 5.25 0 3-2.281 5.24-5.372 5.24-3.065 0-5.352-2.24-5.352-5.24m-2.039 0c0 3.73 2.854 7.06 7.349 7.06 4.668 0 7.454-3.35 7.454-7.06 0-3.84-2.87-7.07-7.412-7.07-4.463 0-7.391 3.25-7.391 7.07"/></g><path d="m123.14095 72.919462h-15.36001v-41.760004h-6.57l9.07-16.829999h12.86001z"/></svg>