<svg id="b" version="1.1" viewBox="0 0 222.24 66.604" xmlns="http://www.w3.org/2000/svg" xmlns:xlink="http://www.w3.org/1999/xlink">
 <defs id="c">
  <linearGradient id="a" x1="38.668" x2="134" y1="65.293" y2="65.293" gradientTransform="matrix(-34.381 30.635 -30.635 -34.381 73.66 81.141)" gradientUnits="userSpaceOnUse">
   <stop id="d" stop-color="#e33231" offset=".25"/>
   <stop id="e" stop-color="#e33231" offset=".27478"/>
   <stop id="f" stop-color="#e33231" offset=".28125"/>
   <stop id="g" stop-color="#e23131" offset=".28906"/>
   <stop id="h" stop-color="#e13131" offset=".29688"/>
   <stop id="i" stop-color="#e13131" offset=".30469"/>
   <stop id="j" stop-color="#e03130" offset=".3125"/>
   <stop id="k" stop-color="#df3030" offset=".32031"/>
   <stop id="l" stop-color="#de3030" offset=".32812"/>
   <stop id="m" stop-color="#de3030" offset=".33594"/>
   <stop id="n" stop-color="#dd2f30" offset=".34375"/>
   <stop id="o" stop-color="#dc2f30" offset=".35156"/>
   <stop id="p" stop-color="#db2f30" offset=".35938"/>
   <stop id="q" stop-color="#db2f30" offset=".36719"/>
   <stop id="r" stop-color="#db2e30" offset=".375"/>
   <stop id="s" stop-color="#da2e30" offset=".38281"/>
   <stop id="t" stop-color="#d92d2f" offset=".39062"/>
   <stop id="u" stop-color="#d92d2f" offset=".39844"/>
   <stop id="v" stop-color="#d82d2f" offset=".40625"/>
   <stop id="w" stop-color="#d82d2f" offset=".42188"/>
   <stop id="x" stop-color="#d72c2f" offset=".42969"/>
   <stop id="y" stop-color="#d62c2f" offset=".4375"/>
   <stop id="z" stop-color="#d62c2f" offset=".45312"/>
   <stop id="aa" stop-color="#d52b2f" offset=".46094"/>
   <stop id="ab" stop-color="#d42b2f" offset=".46875"/>
   <stop id="ac" stop-color="#d32b2f" offset=".48438"/>
   <stop id="ad" stop-color="#d32a2f" offset=".49219"/>
   <stop id="ae" stop-color="#d22a2f" offset=".5"/>
   <stop id="af" stop-color="#d1292e" offset=".51562"/>
   <stop id="ag" stop-color="#d1292e" offset=".52344"/>
   <stop id="ah" stop-color="#d0292e" offset=".53125"/>
   <stop id="ai" stop-color="#cf282e" offset=".54688"/>
   <stop id="aj" stop-color="#cf282e" offset=".55469"/>
   <stop id="ak" stop-color="#ce282e" offset=".5625"/>
   <stop id="al" stop-color="#cd272e" offset=".57812"/>
   <stop id="am" stop-color="#cd272e" offset=".58594"/>
   <stop id="an" stop-color="#cc272e" offset=".59375"/>
   <stop id="ao" stop-color="#cb262e" offset=".60938"/>
   <stop id="ap" stop-color="#cb262e" offset=".61719"/>
   <stop id="aq" stop-color="#ca262d" offset=".625"/>
   <stop id="ar" stop-color="#ca262d" offset=".63281"/>
   <stop id="as" stop-color="#c9252d" offset=".64062"/>
   <stop id="at" stop-color="#c8252d" offset=".65625"/>
   <stop id="au" stop-color="#c8252d" offset=".66406"/>
   <stop id="av" stop-color="#c7242d" offset=".67188"/>
   <stop id="aw" stop-color="#c6242d" offset=".6875"/>
   <stop id="ax" stop-color="#c6242d" offset=".69531"/>
   <stop id="ay" stop-color="#c5232d" offset=".70312"/>
   <stop id="az" stop-color="#c4232d" offset=".71875"/>
   <stop id="ba" stop-color="#c4232d" offset=".72656"/>
   <stop id="bb" stop-color="#c3222c" offset=".73438"/>
   <stop id="bc" stop-color="#c2222c" offset=".75"/>
   <stop id="bd" stop-color="#c2222c" offset=".75781"/>
   <stop id="be" stop-color="#c1222c" offset=".76562"/>
   <stop id="bf" stop-color="#c0212c" offset=".78125"/>
   <stop id="bg" stop-color="#c0212c" offset=".78906"/>
   <stop id="bh" stop-color="#bf212c" offset=".79688"/>
   <stop id="bi" stop-color="#be202c" offset=".8125"/>
   <stop id="bj" stop-color="#be202c" offset=".82031"/>
   <stop id="bk" stop-color="#bd202c" offset=".82812"/>
   <stop id="bl" stop-color="#bc1f2b" offset=".84375"/>
   <stop id="bm" stop-color="#bc1f2b" offset=".85156"/>
   <stop id="bn" stop-color="#bb1f2b" offset=".85938"/>
   <stop id="bo" stop-color="#ba1e2b" offset=".875"/>
   <stop id="bp" stop-color="#ba1e2b" offset=".88281"/>
   <stop id="bq" stop-color="#b91e2b" offset=".89062"/>
   <stop id="br" stop-color="#b91d2b" offset=".90625"/>
   <stop id="bs" stop-color="#b81d2b" offset=".91406"/>
   <stop id="bt" stop-color="#b71d2b" offset=".92188"/>
   <stop id="bu" stop-color="#b71c2a" offset=".9375"/>
   <stop id="bv" stop-color="#b61c2a" offset="1"/>
  </linearGradient>
 </defs>
 <path id="bw" d="m108.47 66.604h2.4981v-65.76h-2.4981z" fill="#fff"/>
 <path id="bx" d="m127.44 13.528c0-2.1462 0-2.9555-0.15835-4.3629h2.4101v3.7471h0.0704c0.87961-2.1814 2.5333-4.2045 5.0138-4.2045 0.58055 0 1.2666 0.12313 1.6889 0.22869v2.5333c-0.49259-0.15835-1.1435-0.22869-1.7592-0.22869-3.8351 0-4.8554 4.2749-4.8554 7.7934v9.6405h-2.4101z" fill="#fff"/>
 <path id="by" d="m151.15 18.841h-0.70369c-4.1518 0-9.1304 0.42221-9.1304 4.7147 0 2.5509 1.8296 3.5184 4.0462 3.5184 5.6647 0 5.7878-4.9434 5.7878-7.0545zm0.22869 6.7026h-0.0879c-1.0731 2.3222-3.7823 3.5888-6.1925 3.5888-5.5416 0-6.4212-3.7471-6.4212-5.5064 0-6.5443 6.9665-6.8434 11.998-6.8434h0.47499v-1.0028c0-3.3249-1.1963-5.0138-4.4508-5.0138-2.0231 0-3.9406 0.47499-5.7351 1.6185v-2.3398c1.4953-0.72128 4.0286-1.337 5.7351-1.337 4.8203 0 6.8434 2.1814 6.8434 7.2656v8.6026c0 1.5657 0 2.762 0.21109 4.099h-2.375z" fill="#fff"/>
 <path id="bz" d="m166.56 27.074c4.2749 0 5.7702-4.5916 5.7702-8.1628 0-3.5536-1.4953-8.1452-5.7702-8.1452-4.5916 0-5.7878 4.3629-5.7878 8.1452 0 3.7999 1.1963 8.1628 5.7878 8.1628m8.1804 1.6009h-2.4101v-3.0962h-0.088c-1.2842 2.4805-3.2722 3.5536-6.0693 3.5536-5.348 0-8.0396-4.4332-8.0396-10.221 0-5.9286 2.3046-10.203 8.0396-10.203 3.8175 0 5.7351 2.7972 6.0693 3.7471h0.088v-12.455h2.4101z" fill="#fff"/>
 <path id="ca" d="m180.55 9.1655h2.4101v19.51h-2.4101zm2.4101-5.1897h-2.4101v-3.2194h2.4101z" fill="#fff"/>
 <path id="cb" d="m195.89 27.074c4.2045 0 6.4563-3.6416 6.4563-8.1628 0-4.5036-2.2518-8.1452-6.4563-8.1452s-6.4739 3.6416-6.4739 8.1452c0 4.5212 2.2694 8.1628 6.4739 8.1628m0-18.366c6.298 0 9.0952 4.8906 9.0952 10.203 0 5.3304-2.7972 10.221-9.0952 10.221-6.3156 0-9.0952-4.8906-9.0952-10.221 0-5.3129 2.7796-10.203 9.0952-10.203" fill="#fff"/>
 <g id="cc" transform="translate(-38.668 -31.578)" fill="url(#a)">
  <path id="cd" d="m93.907 69.718c0.01756-2.4629-1.6361-4.3453-4.2573-5.0666 0.70369-0.36943 1.2666-0.80924 1.6889-1.337 0.54536-0.73887 0.80924-1.6185 0.80924-2.6564 0-1.2666-0.51017-2.5685-1.5833-3.536-1.0731-0.96757-2.7092-1.6009-4.9258-1.6009h-6.1573v19.563h7.2304c2.5685 0 4.3805-0.70369 5.5415-1.7416 1.1611-1.0204 1.6537-2.375 1.6537-3.624m6.861 9.148h-28.851v-27.145h28.851z"/>
  <path id="ce" d="m90.318 69.331c0 0.63332-0.19352 1.2842-0.77406 1.7944-0.58054 0.51017-1.5833 0.8972-3.237 0.8972h-3.3249v-5.3304h3.1842c1.4777 0 2.5333 0.29908 3.2018 0.75647 0.65092 0.47499 0.94998 1.1083 0.94998 1.8824"/>
  <path id="cf" d="m87.627 62.927c0.61572-0.43982 0.9148-1.0731 0.9148-2.0055 0-0.6685-0.17591-1.2139-0.65092-1.6361-0.4574-0.4046-1.2666-0.70369-2.5509-0.70369h-2.3574v5.049h1.6185c1.3898 0 2.3925-0.2463 3.0259-0.70369"/>
  <path id="cg" d="m60.676 69.718c0-2.4629-1.6361-4.3453-4.2749-5.0666 0.72128-0.36943 1.2666-0.80924 1.6889-1.337 0.54536-0.73887 0.80924-1.6185 0.80924-2.6564 0-1.2666-0.51017-2.5685-1.5833-3.536-1.0555-0.96757-2.6916-1.6009-4.9258-1.6009h-6.1397v19.563h7.2128c2.5685 0 4.3805-0.70369 5.5415-1.7416 1.1787-1.0204 1.6713-2.375 1.6713-3.624m6.8434 9.148h-28.851v-27.145h28.851z"/>
  <path id="ch" d="m54.378 62.927c0.63332-0.43981 0.9148-1.0731 0.93239-2.0055 0-0.6685-0.19352-1.2139-0.65091-1.6361-0.47499-0.4046-1.2842-0.70369-2.5685-0.70369h-2.3398v5.049h1.6185c1.3898 0 2.3925-0.2463 3.0083-0.70369"/>
  <path id="ci" d="m56.119 67.449c-0.66851-0.47499-1.7064-0.75647-3.2018-0.75647h-3.1666v5.3304h3.3249c1.6537 0 2.6564-0.38704 3.2194-0.8972 0.58055-0.51017 0.79165-1.1611 0.79165-1.7944-0.01756-0.79165-0.29908-1.4074-0.96757-1.8824"/>
  <path id="cj" d="m128.28 69.841-0.47499 0.28148c-2.2166 1.3722-4.6619 2.0935-6.861 2.0935-4.7147-0.01756-7.8461-2.8148-7.8637-6.8961 0.0176-3.9758 3.2722-6.9313 7.7406-6.9313 2.287 0 4.3453 0.58054 6.7906 1.9351l0.45739 0.22869v-3.624l-0.19352-0.07039c-2.7796-1.0907-4.9082-1.5833-7.0369-1.5833-3.2546 0-6.1045 1.0731-8.1276 2.9027-2.0055 1.8472-3.2018 4.4332-3.2018 7.4063 0 2.0583 0.84443 4.486 2.674 6.4212 1.8296 1.9351 4.6268 3.3249 8.497 3.3249h0.0176c3.1842 0 5.4008-0.70369 7.4063-1.7064l0.17591-0.07039zm5.7175 9.0248h-28.851v-27.145h28.851z"/>
 </g>
 <path id="ck" d="m123.32 40.62h5.4184l4.3629 14.566h0.0879l3.9758-14.566h5.9638l4.2749 14.566h0.088l4.0814-14.566h4.8906l-6.0341 19.686h-6.0341l-4.2925-15.024h-0.0704l-4.2045 15.024h-5.8582z" fill="#fff"/>
 <path id="cl" d="m165.42 57.016c1.5657 0 2.7972-0.68609 3.5888-1.7592 0.84442-1.1083 1.0731-2.5157 1.0731-4.0462h-2.2166c-2.287 0-5.6823 0.38704-5.6823 3.3953 0 1.6889 1.4074 2.4101 3.237 2.4101m-5.999-15.358c1.9879-0.93239 4.6619-1.4953 6.8434-1.4953 6.0165 0 8.497 2.4805 8.497 8.2859v2.5333c0 1.9879 0.0351 3.4833 0.0704 4.9258 0.0351 1.4953 0.12313 2.8675 0.22869 4.398h-4.5036c-0.19353-1.0203-0.19353-2.3222-0.24631-2.9379h-0.0704c-1.1787 2.1814-3.7471 3.3953-6.0693 3.3953-3.4833 0-6.8961-2.0935-6.8961-5.8582 0-2.9379 1.425-4.6443 3.3777-5.6119 1.9351-0.94998 4.4684-1.1435 6.6147-1.1435h2.8148c0-3.1666-1.4074-4.2397-4.4332-4.2397-2.1814 0-4.3629 0.84443-6.0693 2.1287z" fill="#fff"/>
 <path id="cm" d="m178.63 33.355h5.1193v26.951h-5.1193z" fill="#fff"/>
 <path id="cn" d="m200.41 48.537c-0.15835-2.4981-1.3018-4.6268-4.1694-4.6268s-4.3277 1.9879-4.5564 4.6268zm3.4305 10.661c-1.8648 1.0379-4.011 1.5657-6.7554 1.5657-6.5091 0-10.291-3.7471-10.291-10.203 0-5.6999 3.0259-10.397 9.148-10.397 7.3008 0 9.3591 5.0138 9.3591 11.892h-13.616c0.22869 3.1666 2.4453 4.961 5.6295 4.961 2.4805 0 4.6268-0.9148 6.5267-1.9879z" fill="#fff"/>
 <path id="co" d="m220.94 44.755c-1.5833-0.54536-2.7268-0.84443-4.5916-0.84443-1.3722 0-3.0259 0.49258-3.0259 2.1814 0 3.1314 8.9192 1.1435 8.9192 8.2507 0 4.5916-4.099 6.4388-8.2683 6.4388-1.9527 0-3.9406-0.35187-5.8054-0.86202l0.29908-4.1869c1.6185 0.79165 3.2898 1.2842 5.049 1.2842 1.3018 0 3.3601-0.49258 3.3601-2.3925 0-3.8703-8.9017-1.2315-8.9017-8.3563 0-4.2397 3.712-6.1045 7.723-6.1045 2.4101 0 3.9758 0.38704 5.5767 0.72128z" fill="#fff"/>
</svg>
