<?xml version="1.0" encoding="UTF-8" standalone="no"?>
<!-- Created with Inkscape (http://www.inkscape.org/) -->

<svg
   xmlns:dc="http://purl.org/dc/elements/1.1/"
   xmlns:cc="http://creativecommons.org/ns#"
   xmlns:rdf="http://www.w3.org/1999/02/22-rdf-syntax-ns#"
   xmlns:svg="http://www.w3.org/2000/svg"
   xmlns="http://www.w3.org/2000/svg"
   xmlns:xlink="http://www.w3.org/1999/xlink"
   xmlns:sodipodi="http://sodipodi.sourceforge.net/DTD/sodipodi-0.dtd"
   xmlns:inkscape="http://www.inkscape.org/namespaces/inkscape"
   version="1.1"
   width="231.09549"
   height="106.51405"
   id="svg7091"
   inkscape:version="0.91 r13725"
   sodipodi:docname="BBC Radio Cymru Mwy.svg">
  <sodipodi:namedview
     pagecolor="#ffffff"
     bordercolor="#666666"
     borderopacity="1"
     objecttolerance="10"
     gridtolerance="10"
     guidetolerance="10"
     inkscape:pageopacity="0"
     inkscape:pageshadow="2"
     inkscape:window-width="1920"
     inkscape:window-height="1017"
     id="namedview142"
     showgrid="false"
     fit-margin-top="0"
     fit-margin-left="0"
     fit-margin-right="0"
     fit-margin-bottom="0"
     inkscape:zoom="0.96"
     inkscape:cx="33.633"
     inkscape:cy="-225.73724"
     inkscape:window-x="-8"
     inkscape:window-y="-8"
     inkscape:window-maximized="1"
     inkscape:current-layer="svg7091" />
  <defs
     id="defs7093">
    <linearGradient
       inkscape:collect="always"
       id="linearGradient5004">
      <stop
         style="stop-color:#0097d6;stop-opacity:1"
         offset="0"
         id="stop5006" />
      <stop
         style="stop-color:#00a3a8;stop-opacity:1"
         offset="1"
         id="stop5008" />
    </linearGradient>
    <linearGradient
       inkscape:collect="always"
       xlink:href="#linearGradient5004"
       id="linearGradient4687"
       x1="0"
       y1="33.801456"
       x2="95.555298"
       y2="33.801456"
       gradientUnits="userSpaceOnUse" />
    <linearGradient
       inkscape:collect="always"
       xlink:href="#linearGradient5004"
       id="linearGradient4689"
       gradientUnits="userSpaceOnUse"
       x1="0"
       y1="33.801456"
       x2="95.555298"
       y2="33.801456" />
    <linearGradient
       inkscape:collect="always"
       xlink:href="#linearGradient5004"
       id="linearGradient4691"
       gradientUnits="userSpaceOnUse"
       x1="0"
       y1="33.801456"
       x2="95.555298"
       y2="33.801456" />
    <linearGradient
       inkscape:collect="always"
       xlink:href="#linearGradient5004"
       id="linearGradient4693"
       gradientUnits="userSpaceOnUse"
       x1="0"
       y1="33.801456"
       x2="95.555298"
       y2="33.801456" />
    <linearGradient
       inkscape:collect="always"
       xlink:href="#linearGradient5004"
       id="linearGradient4695"
       gradientUnits="userSpaceOnUse"
       x1="0"
       y1="33.801456"
       x2="95.555298"
       y2="33.801456" />
    <linearGradient
       inkscape:collect="always"
       xlink:href="#linearGradient5004"
       id="linearGradient4697"
       gradientUnits="userSpaceOnUse"
       x1="0"
       y1="33.801456"
       x2="95.555298"
       y2="33.801456" />
    <linearGradient
       inkscape:collect="always"
       xlink:href="#linearGradient5004"
       id="linearGradient4699"
       gradientUnits="userSpaceOnUse"
       x1="0"
       y1="33.801456"
       x2="95.555298"
       y2="33.801456" />
    <linearGradient
       inkscape:collect="always"
       xlink:href="#linearGradient5004"
       id="linearGradient4701"
       gradientUnits="userSpaceOnUse"
       x1="0"
       y1="33.801456"
       x2="95.555298"
       y2="33.801456" />
  </defs>
  <metadata
     id="metadata7096">
    <rdf:RDF>
      <cc:Work
         rdf:about="">
        <dc:format>image/svg+xml</dc:format>
        <dc:type
           rdf:resource="http://purl.org/dc/dcmitype/StillImage" />
        <cc:license
           rdf:resource="" />
        <dc:title></dc:title>
      </cc:Work>
    </rdf:RDF>
  </metadata>
  <path
     d="m 108.71349,106.51405 2.51556,0 0,-105.651876 -2.51556,-1.28e-4 z"
     id="path4560-8"
     style="fill:#ffffff;fill-opacity:1;fill-rule:nonzero;stroke:none"
     inkscape:connector-curvature="0"
     sodipodi:nodetypes="ccccc" />
  <path
     inkscape:connector-curvature="0"
     style="clip-rule:nonzero;fill:#ffffff;fill-opacity:1;fill-rule:nonzero;stroke:none"
     id="path4564-6"
     d="m 127.72957,13.562803 c 0,-2.146127 0,-2.937729 -0.15852,-4.362614 l 2.41001,0 0,3.764511 0.0878,0 c 0.87955,-2.198896 2.53313,-4.221884 5.01348,-4.221884 0.58053,0 1.26656,0.105559 1.68875,0.22868 l 0,2.533131 c -0.49253,-0.158338 -1.1434,-0.22868 -1.75909,-0.22868 -3.83491,0 -4.87275,4.292248 -4.87275,7.810485 l 0,9.657563 -2.41001,0 z" />
  <path
     inkscape:connector-curvature="0"
     style="clip-rule:nonzero;fill:#ffffff;fill-opacity:1;fill-rule:nonzero;stroke:none"
     id="path4566-3"
     d="m 151.49524,18.892932 -0.68604,0 c -4.18671,0 -9.16502,0.422189 -9.16502,4.714437 0,2.568311 1.84709,3.535827 4.06359,3.535827 5.68196,0 5.78747,-4.943121 5.78747,-7.054063 z m 0.22877,6.71983 -0.0703,0 c -1.07306,2.339626 -3.7997,3.588601 -6.2097,3.588601 -5.5588,0 -6.43834,-3.746921 -6.43834,-5.506039 0,-6.56151 6.96608,-6.860563 12.03234,-6.860563 l 0.45736,0 0,-1.002697 c 0,-3.342322 -1.19618,-5.031076 -4.45056,-5.031076 -2.02299,0 -3.94043,0.474959 -5.7523,1.618389 l 0,-2.339631 c 1.49524,-0.721237 4.02837,-1.33693 5.7523,-1.33693 4.83758,0 6.86057,2.181307 6.86057,7.282752 l 0,8.619678 c 0,1.565618 0,2.761819 0.19365,4.098749 l -2.37484,0 z" />
  <path
     inkscape:connector-curvature="0"
     style="clip-rule:nonzero;fill:#ffffff;fill-opacity:1;fill-rule:nonzero;stroke:none"
     id="path4568-9"
     d="m 166.94031,27.143196 c 4.29227,0 5.78752,-4.608892 5.78752,-8.162309 0,-3.571011 -1.49525,-8.179899 -5.78752,-8.179899 -4.59129,0 -5.78751,4.380204 -5.78751,8.179899 0,3.782106 1.19622,8.162309 5.78751,8.162309 m 8.19748,1.600799 -2.40996,0 0,-3.096048 -0.0702,0 c -1.30174,2.497945 -3.30712,3.553416 -6.10415,3.553416 -5.36528,0 -8.03914,-4.432978 -8.03914,-10.220476 0,-5.945822 2.30445,-10.238071 8.03914,-10.238071 3.83491,0 5.75235,2.797 6.10415,3.746926 l 0.0702,0 0,-12.489696 L 175.13779,0 Z"
     sodipodi:nodetypes="cssscccccsssccccc" />
  <path
     inkscape:connector-curvature="0"
     style="clip-rule:nonzero;fill:#ffffff;fill-opacity:1;fill-rule:nonzero;stroke:none"
     id="path4570-8"
     d="m 180.97809,9.200189 2.40996,0 0,19.543806 -2.40996,0 z m 2.40996,-5.20699 -2.40996,0 0,-3.236777 2.40996,0 z" />
  <path
     inkscape:connector-curvature="0"
     style="clip-rule:nonzero;fill:#ffffff;fill-opacity:1;fill-rule:nonzero;stroke:none"
     id="path4572-7"
     d="m 196.33516,27.143196 c 4.22189,0 6.49117,-3.641376 6.49117,-8.162309 0,-4.520933 -2.26928,-8.179899 -6.49117,-8.179899 -4.20427,0 -6.47355,3.658966 -6.47355,8.179899 0,4.520933 2.26928,8.162309 6.47355,8.162309 m 0,-18.40038 c 6.33283,0 9.12985,4.907942 9.12985,10.238071 0,5.312535 -2.79702,10.220476 -9.12985,10.220476 -6.31522,0 -9.1122,-4.907941 -9.1122,-10.220476 0,-5.330129 2.79698,-10.238071 9.1122,-10.238071" />
  <path
     inkscape:connector-curvature="0"
     style="clip-rule:nonzero;fill:#ffffff;fill-opacity:1;fill-rule:nonzero;stroke:none"
     id="path4574-6"
     d="m 138.6713,44.875108 c -0.91477,-0.422188 -1.91743,-0.721237 -3.48307,-0.721237 -3.184,0 -5.2246,2.515536 -5.2246,6.244866 0,3.641376 1.72397,6.438376 5.33016,6.438376 1.46008,0 3.07844,-0.545328 3.95799,-0.914742 l 0.22877,4.239474 c -1.49525,0.474963 -3.02566,0.650873 -5.1366,0.650873 -6.47356,0 -9.74551,-4.397794 -9.74551,-10.413981 0,-5.717133 3.37751,-10.238066 9.552,-10.238066 2.07577,0 3.57101,0.22868 4.97831,0.650873 z" />
  <path
     inkscape:connector-curvature="0"
     style="clip-rule:nonzero;fill:#ffffff;fill-opacity:1;fill-rule:nonzero;stroke:none"
     id="path4576-3"
     d="m 151.86465,55.02522 0.0703,0 4.74963,-14.40718 5.22456,0 -7.40588,19.59658 c -1.65359,4.362613 -2.83216,8.654859 -8.19748,8.654859 -1.2314,0 -2.46279,-0.1935 -3.64136,-0.527735 l 0.33415,-3.799696 c 0.65091,0.22868 1.38973,0.351847 2.65629,0.351847 2.05816,0 3.32473,-1.424885 3.32473,-3.535827 l -7.54661,-20.740006 5.68196,0 z" />
  <path
     inkscape:connector-curvature="0"
     style="clip-rule:nonzero;fill:#ffffff;fill-opacity:1;fill-rule:nonzero;stroke:none"
     id="path4578-3"
     d="m 164.89976,40.61804 4.7848,0 0,2.761819 0.0703,0 c 1.61841,-2.409996 3.95803,-3.219188 5.87547,-3.219188 2.76181,0 4.71441,1.037881 5.82268,3.483052 1.17862,-2.374806 3.76448,-3.483052 6.17449,-3.483052 4.87276,0 6.24488,3.342323 6.24488,7.740121 l 0,12.454557 -5.13665,0 0,-11.7685 c 0,-1.829483 0,-4.432978 -2.95532,-4.432978 -3.41268,0 -3.83486,4.06356 -3.83486,6.614285 l 0,9.587193 -5.13661,0 0,-11.7685 c 0,-1.829483 0,-4.432978 -2.93775,-4.432978 -3.43029,0 -3.83487,4.06356 -3.83487,6.614285 l 0,9.587193 -5.1366,0 z" />
  <path
     inkscape:connector-curvature="0"
     style="clip-rule:nonzero;fill:#ffffff;fill-opacity:1;fill-rule:nonzero;stroke:none"
     id="path4580-6"
     d="m 198.02392,40.61804 4.55612,0 0,4.485752 0.0702,0 c 0.22877,-1.847073 2.33962,-4.943121 5.41806,-4.943121 0.49258,0 1.02032,0 1.56563,0.158338 l 0,5.17181 c -0.45736,-0.263851 -1.37212,-0.422189 -2.30445,-0.422189 -4.1691,0 -4.1691,5.20699 -4.1691,8.05676 l 0,7.229977 -5.13665,0 z" />
  <path
     inkscape:connector-curvature="0"
     style="clip-rule:nonzero;fill:#ffffff;fill-opacity:1;fill-rule:nonzero;stroke:none"
     id="path4582-4"
     d="m 231.09534,60.355349 -4.85514,0 0,-2.67386 -0.0878,0 c -1.56563,1.917438 -3.78213,3.131229 -6.47356,3.131229 -4.67924,0 -6.70223,-3.289548 -6.70223,-7.740121 l 0,-12.454557 5.1366,0 0,10.537119 c 0,2.427586 0.036,5.681954 3.32473,5.681954 3.72935,0 4.52095,-4.02838 4.52095,-6.561511 l 0,-9.657562 5.1366,0 z" />
  <g
     id="g4356"
     transform="translate(0,19.455568)"
     style="fill:url(#linearGradient4687);fill-opacity:1">
    <path
       d="m 55.359458,38.243233 c 0.01801,-2.48036 -1.635975,-4.345023 -4.274663,-5.083855 0.72121,-0.351846 1.266565,-0.791602 1.688753,-1.33693 0.562918,-0.721237 0.809206,-1.618389 0.809206,-2.656265 0,-1.28416 -0.492576,-2.568315 -1.565632,-3.535831 -1.090665,-0.985106 -2.726639,-1.618389 -4.94314,-1.618389 l -6.174488,0 0,19.61417 7.247545,0 c 2.568346,0 4.380221,-0.703647 5.558836,-1.741528 1.161007,-1.037877 1.653583,-2.392401 1.653583,-3.641372 m 6.878133,9.165006 -28.937488,0 0,-27.213561 28.937488,0 z"
       id="path4584-7"
       style="clip-rule:nonzero;fill:url(#linearGradient4689);fill-opacity:1;fill-rule:nonzero;stroke:none"
       inkscape:connector-curvature="0" />
    <path
       d="m 51.770834,37.856225 c 0,0.650873 -0.211207,1.30175 -0.791598,1.811893 -0.580526,0.510143 -1.565632,0.897152 -3.236777,0.897152 l -3.324728,0 0,-5.34772 3.183998,0 c 1.477682,0 2.53313,0.299067 3.201607,0.756417 0.650868,0.474964 0.949935,1.090656 0.967498,1.882258"
       id="path4586-2"
       style="clip-rule:nonzero;fill:url(#linearGradient4691);fill-opacity:1;fill-rule:nonzero;stroke:none"
       inkscape:connector-curvature="0" />
    <path
       d="m 49.061803,31.453035 c 0.615697,-0.457369 0.914719,-1.073061 0.914719,-2.022988 0,-0.668462 -0.176081,-1.23138 -0.650868,-1.635978 -0.45736,-0.422189 -1.266565,-0.721238 -2.568302,-0.721238 l -2.339621,0 0,5.066261 1.618366,0 c 1.407295,0 2.392401,-0.246288 3.025706,-0.686057"
       id="path4588-4"
       style="clip-rule:nonzero;fill:url(#linearGradient4693);fill-opacity:1;fill-rule:nonzero;stroke:none"
       inkscape:connector-curvature="0" />
    <path
       d="m 22.041746,38.243233 c 0.01801,-2.48036 -1.635974,-4.345023 -4.274663,-5.083855 0.721255,-0.351846 1.284173,-0.791602 1.688754,-1.33693 0.545309,-0.721237 0.809205,-1.618389 0.809205,-2.656265 0,-1.28416 -0.510138,-2.568315 -1.583195,-3.535831 -1.073101,-0.985106 -2.709076,-1.618389 -4.925531,-1.618389 l -6.174533,0 0,19.61417 7.229981,0 c 2.58591,0 4.397785,-0.703647 5.558837,-1.741528 1.178569,-1.037877 1.671145,-2.392401 1.671145,-3.641372 m 6.860573,9.165006 -28.902319,0 0,-27.213561 28.902319,0 z"
       id="path4590-1"
       style="clip-rule:nonzero;fill:url(#linearGradient4695);fill-opacity:1;fill-rule:nonzero;stroke:none"
       inkscape:connector-curvature="0" />
    <path
       d="m 15.744091,31.453035 c 0.615697,-0.457369 0.914764,-1.073061 0.914764,-2.022988 0,-0.668462 -0.193643,-1.23138 -0.650868,-1.635978 -0.474967,-0.422189 -1.266565,-0.721238 -2.550738,-0.721238 l -2.35723,0 0,5.066261 1.618411,0 c 1.389687,0 2.392401,-0.246288 3.025661,-0.686057"
       id="path4592-3"
       style="clip-rule:nonzero;fill:url(#linearGradient4697);fill-opacity:1;fill-rule:nonzero;stroke:none"
       inkscape:connector-curvature="0" />
    <path
       d="m 17.485624,35.973967 c -0.668476,-0.474958 -1.723925,-0.774012 -3.201606,-0.774012 l -3.183999,0 0,5.365315 3.324728,0 c 1.653582,0 2.656297,-0.387018 3.236778,-0.897152 0.580526,-0.510143 0.774034,-1.16102 0.774034,-1.811893 0,-0.774012 -0.299022,-1.407294 -0.949935,-1.882258"
       id="path4594-4"
       style="clip-rule:nonzero;fill:url(#linearGradient4699);fill-opacity:1;fill-rule:nonzero;stroke:none"
       inkscape:connector-curvature="0" />
    <path
       d="m 89.802961,38.366368 -0.45736,0.299067 c -2.23406,1.35452 -4.66164,2.093348 -6.87814,2.093348 -4.73202,-0.01756 -7.86328,-2.83218 -7.88085,-6.913334 0.018,-3.9932 3.27195,-6.948518 7.74012,-6.966108 2.30445,0 4.36262,0.598102 6.82536,1.935032 l 0.45741,0.263851 0,-3.658966 -0.19365,-0.07039 c -2.77942,-1.090652 -4.92553,-1.583205 -7.05408,-1.583205 -3.27195,0 -6.12171,1.090651 -8.1447,2.920134 -2.02299,1.847078 -3.21922,4.432978 -3.21922,7.405892 0,2.075757 0.84438,4.520933 2.69147,6.45596 1.82949,1.917443 4.64407,3.324737 8.49655,3.324737 l 0.018,0 c 3.21922,0 5.41811,-0.703647 7.42349,-1.706348 l 0.17608,-0.07039 z m 5.75234,9.041871 -28.91992,0 0,-27.213561 28.91992,0 z"
       id="path4596-9"
       style="clip-rule:nonzero;fill:url(#linearGradient4701);fill-opacity:1;fill-rule:nonzero;stroke:none"
       inkscape:connector-curvature="0" />
  </g>
  <path
     inkscape:connector-curvature="0"
     d="m 127.571,97.626049 0,-19.77756 2.9983,0 0,2.77482 q 0.93114,-1.45259 2.47685,-2.32787 1.5457,-0.8939 3.51973,-0.8939 2.19751,0 3.59423,0.91252 1.41534,0.91253 1.99265,2.55134 2.3465,-3.46386 6.10833,-3.46386 2.94242,0 4.52537,1.63882 1.58295,1.62019 1.58295,5.00957 l 0,13.57612 -3.3335,0 0,-12.45875 q 0,-2.01127 -0.33522,-2.88655 -0.31659,-0.8939 -1.17324,-1.43397 -0.85666,-0.54006 -2.01128,-0.54006 -2.08577,0 -3.46387,1.39672 -1.37809,1.37809 -1.37809,4.43226 l 0,11.49035 -3.35213,0 0,-12.84983 q 0,-2.23475 -0.81941,-3.35213 -0.81941,-1.11737 -2.68171,-1.11737 -1.41534,0 -2.62583,0.74491 -1.19187,0.74492 -1.73193,2.17889 -0.54007,1.43396 -0.54007,4.13429 l 0,10.26124 -3.35213,0 z"
     style="font-style:normal;font-variant:normal;font-weight:normal;font-stretch:normal;font-size:40px;line-height:125%;font-family:Arial;-inkscape-font-specification:Arial;letter-spacing:0px;word-spacing:0px;fill:#ffffff;fill-opacity:1;stroke:none;stroke-width:1px;stroke-linecap:butt;stroke-linejoin:miter;stroke-opacity:1"
     id="path4274-9-5" />
  <path
     inkscape:connector-curvature="0"
     d="m 163.10445,97.626049 -6.05245,-19.77757 3.46386,0 3.14728,11.41586 1.17325,4.24603 q 0.0745,-0.31659 1.02426,-4.07842 l 3.14727,-11.58347 3.44525,0 2.96105,11.47173 0.98701,3.78046 1.136,-3.8177 3.38938,-11.43449 3.25901,0 -6.18282,19.77757 -3.48249,0 -3.14727,-11.8442 -0.76354,-3.37075 -4.00394,15.21495 -3.50111,0 z"
     style="font-style:normal;font-variant:normal;font-weight:normal;font-stretch:normal;font-size:40px;line-height:125%;font-family:Arial;-inkscape-font-specification:Arial;letter-spacing:0px;word-spacing:0px;fill:#ffffff;fill-opacity:1;stroke:none;stroke-width:1px;stroke-linecap:butt;stroke-linejoin:miter;stroke-opacity:1"
     id="path4276-9-9" />
  <path
     inkscape:connector-curvature="0"
     d="m 186.94155,105.24234 -0.37246,-3.14727 q 1.09876,0.29797 1.91817,0.29797 1.11737,0 1.7878,-0.37247 0.67043,-0.37245 1.09875,-1.04288 0.31659,-0.50282 1.02427,-2.495471 0.0931,-0.27934 0.29796,-0.81941 l -7.50504,-19.81481 3.61285,0 4.11567,11.45311 q 0.80078,2.17889 1.43396,4.58124 0.57732,-2.30925 1.3781,-4.50675 l 4.22741,-11.5276 3.35213,0 -7.52367,20.11277 q -1.21049,3.259021 -1.88092,4.488131 -0.8939,1.65744 -2.04852,2.42099 -1.15462,0.78216 -2.7562,0.78216 -0.96839,0 -2.16026,-0.40971 z"
     style="font-style:normal;font-variant:normal;font-weight:normal;font-stretch:normal;font-size:40px;line-height:125%;font-family:Arial;-inkscape-font-specification:Arial;letter-spacing:0px;word-spacing:0px;fill:#ffffff;fill-opacity:1;stroke:none;stroke-width:1px;stroke-linecap:butt;stroke-linejoin:miter;stroke-opacity:1"
     id="path4278-7-7" />
</svg>
