<svg id="c" version="1.1" viewBox="0 0 231.1 68.869" xmlns="http://www.w3.org/2000/svg" xmlns:xlink="http://www.w3.org/1999/xlink">
 <defs id="d">
  <clipPath id="b">
   <path id="e" d="m122.24 105.61h66.617v-29.07h-66.617z"/>
  </clipPath>
  <linearGradient id="a" x1="38.789" x2="269.88" y1="66.081" y2="66.081" gradientTransform="matrix(49.78 -31.417 31.417 49.78 117.73 115.57)" gradientUnits="userSpaceOnUse">
   <stop id="f" stop-color="#007bc1" offset="0"/>
   <stop id="g" stop-color="#007bc1" offset=".015625"/>
   <stop id="h" stop-color="#007bc2" offset=".023438"/>
   <stop id="i" stop-color="#007cc2" offset=".03125"/>
   <stop id="j" stop-color="#007dc3" offset=".046875"/>
   <stop id="k" stop-color="#007dc3" offset=".054688"/>
   <stop id="l" stop-color="#007ec3" offset=".058594"/>
   <stop id="m" stop-color="#007ec4" offset=".0625"/>
   <stop id="n" stop-color="#007fc4" offset=".078125"/>
   <stop id="o" stop-color="#007fc4" offset=".09375"/>
   <stop id="p" stop-color="#0080c5" offset=".10156"/>
   <stop id="q" stop-color="#0081c6" offset=".10938"/>
   <stop id="r" stop-color="#0081c6" offset=".125"/>
   <stop id="s" stop-color="#0082c7" offset=".12891"/>
   <stop id="t" stop-color="#0083c7" offset=".13281"/>
   <stop id="u" stop-color="#0083c7" offset=".14062"/>
   <stop id="v" stop-color="#0083c7" offset=".15625"/>
   <stop id="w" stop-color="#0084c8" offset=".16406"/>
   <stop id="x" stop-color="#0085c9" offset=".17188"/>
   <stop id="y" stop-color="#0085c9" offset=".17969"/>
   <stop id="z" stop-color="#0086c9" offset=".1875"/>
   <stop id="aa" stop-color="#0087ca" offset=".20312"/>
   <stop id="ab" stop-color="#0087ca" offset=".21094"/>
   <stop id="ac" stop-color="#0088ca" offset=".21484"/>
   <stop id="ad" stop-color="#0088cb" offset=".21875"/>
   <stop id="ae" stop-color="#0089cb" offset=".23438"/>
   <stop id="af" stop-color="#0089cb" offset=".24219"/>
   <stop id="ag" stop-color="#008acc" offset=".25"/>
   <stop id="ah" stop-color="#008acc" offset=".25781"/>
   <stop id="ai" stop-color="#008bcd" offset=".26562"/>
   <stop id="aj" stop-color="#008ccd" offset=".27344"/>
   <stop id="ak" stop-color="#008ccd" offset=".28125"/>
   <stop id="al" stop-color="#008dce" offset=".28906"/>
   <stop id="am" stop-color="#008dce" offset=".29688"/>
   <stop id="an" stop-color="#008ece" offset=".30469"/>
   <stop id="ao" stop-color="#008fcf" offset=".3125"/>
   <stop id="ap" stop-color="#008fcf" offset=".32031"/>
   <stop id="aq" stop-color="#008fd0" offset=".32812"/>
   <stop id="ar" stop-color="#0090d0" offset=".33203"/>
   <stop id="as" stop-color="#0090d1" offset=".33594"/>
   <stop id="at" stop-color="#0091d1" offset=".34375"/>
   <stop id="au" stop-color="#0091d1" offset=".35938"/>
   <stop id="av" stop-color="#0092d2" offset=".36719"/>
   <stop id="aw" stop-color="#0092d2" offset=".375"/>
   <stop id="ax" stop-color="#0093d2" offset=".38281"/>
   <stop id="ay" stop-color="#0094d3" offset=".39062"/>
   <stop id="az" stop-color="#0094d3" offset=".39844"/>
   <stop id="ba" stop-color="#0095d4" offset=".40625"/>
   <stop id="bb" stop-color="#0095d4" offset=".41406"/>
   <stop id="bc" stop-color="#0096d4" offset=".42188"/>
   <stop id="bd" stop-color="#0097d5" offset=".42969"/>
   <stop id="be" stop-color="#0097d5" offset=".4375"/>
   <stop id="bf" stop-color="#0098d5" offset=".44531"/>
   <stop id="bg" stop-color="#0098d5" offset=".45312"/>
   <stop id="bh" stop-color="#0099d6" offset=".46094"/>
   <stop id="bi" stop-color="#009ad7" offset=".46875"/>
   <stop id="bj" stop-color="#009ad7" offset=".48438"/>
   <stop id="bk" stop-color="#009bd7" offset=".48828"/>
   <stop id="bl" stop-color="#009bd8" offset=".49219"/>
   <stop id="bm" stop-color="#009cd8" offset=".5"/>
   <stop id="bn" stop-color="#029cd9" offset=".50391"/>
   <stop id="bo" stop-color="#039cd9" offset=".50781"/>
   <stop id="bp" stop-color="#059cd9" offset=".51172"/>
   <stop id="bq" stop-color="#069cd9" offset=".51562"/>
   <stop id="br" stop-color="#089dd9" offset=".51953"/>
   <stop id="bs" stop-color="#099dd9" offset=".52344"/>
   <stop id="bt" stop-color="#0a9dd9" offset=".52734"/>
   <stop id="bu" stop-color="#0a9eda" offset=".53125"/>
   <stop id="bv" stop-color="#0b9eda" offset=".53516"/>
   <stop id="bw" stop-color="#0c9eda" offset=".53906"/>
   <stop id="bx" stop-color="#0e9fda" offset=".54297"/>
   <stop id="by" stop-color="#0e9fda" offset=".54688"/>
   <stop id="bz" stop-color="#0f9fda" offset=".55078"/>
   <stop id="ca" stop-color="#0f9fda" offset=".55469"/>
   <stop id="cb" stop-color="#10a0db" offset=".5625"/>
   <stop id="cc" stop-color="#11a0db" offset=".56641"/>
   <stop id="cd" stop-color="#14a1dc" offset=".57031"/>
   <stop id="ce" stop-color="#15a1dc" offset=".57422"/>
   <stop id="cf" stop-color="#16a1dc" offset=".57812"/>
   <stop id="cg" stop-color="#17a2dc" offset=".58203"/>
   <stop id="ch" stop-color="#18a2dc" offset=".58594"/>
   <stop id="ci" stop-color="#18a2dc" offset=".59375"/>
   <stop id="cj" stop-color="#19a3dd" offset=".60156"/>
   <stop id="ck" stop-color="#1aa3dd" offset=".60547"/>
   <stop id="cl" stop-color="#1ba4dd" offset=".60938"/>
   <stop id="cm" stop-color="#1ca4dd" offset=".61328"/>
   <stop id="cn" stop-color="#1ca4dd" offset=".61719"/>
   <stop id="co" stop-color="#1da5de" offset=".625"/>
   <stop id="cp" stop-color="#1da5de" offset=".62891"/>
   <stop id="cq" stop-color="#1ea5de" offset=".63281"/>
   <stop id="cr" stop-color="#1ea6df" offset=".63672"/>
   <stop id="cs" stop-color="#1fa6df" offset=".64062"/>
   <stop id="ct" stop-color="#1fa6df" offset=".64844"/>
   <stop id="cu" stop-color="#20a7e0" offset=".65234"/>
   <stop id="cv" stop-color="#21a7e0" offset=".65625"/>
   <stop id="cw" stop-color="#22a8e0" offset=".66016"/>
   <stop id="cx" stop-color="#23a8e0" offset=".66406"/>
   <stop id="cy" stop-color="#23a8e0" offset=".66797"/>
   <stop id="cz" stop-color="#24a8e0" offset=".67188"/>
   <stop id="da" stop-color="#25a9e1" offset=".67578"/>
   <stop id="db" stop-color="#25a9e1" offset=".67969"/>
   <stop id="dc" stop-color="#26a9e1" offset=".68359"/>
   <stop id="dd" stop-color="#28aae2" offset=".6875"/>
   <stop id="de" stop-color="#28aae2" offset=".69141"/>
   <stop id="df" stop-color="#29aae2" offset=".69531"/>
   <stop id="dg" stop-color="#29aae2" offset=".70312"/>
   <stop id="dh" stop-color="#29aae2" offset=".71875"/>
   <stop id="di" stop-color="#29aae2" offset=".75"/>
   <stop id="dj" stop-color="#29aae2" offset="1"/>
  </linearGradient>
 </defs>
 <g id="dk" transform="translate(-38.789 -31.647)" fill="url(#a)">
  <path id="dl" d="m147.5 98.405h2.5156v-65.897h-2.5156z"/>
  <g id="dm" transform="matrix(4.5033 0 0 4.5033 -550.5 -344.66)" clip-path="url(#b)">
   <path id="dn" d="m159.22 86.574c0-0.47656 0-0.65234-0.0352-0.96875h0.53516v0.83594h0.0195c0.19531-0.48828 0.5625-0.9375 1.1133-0.9375 0.12891 0 0.28125 0.02344 0.375 0.05078v0.5625c-0.10937-0.03516-0.2539-0.05078-0.39062-0.05078-0.85157 0-1.082 0.95312-1.082 1.7344v2.1445h-0.53516z"/>
   <path id="do" d="m164.5 87.758h-0.15234c-0.92969 0-2.0352 0.09375-2.0352 1.0469 0 0.57031 0.41016 0.78516 0.90235 0.78516 1.2617 0 1.2852-1.0977 1.2852-1.5664zm0.0508 1.4922h-0.0156c-0.23828 0.51953-0.84375 0.79688-1.3789 0.79688-1.2344 0-1.4297-0.83203-1.4297-1.2227 0-1.457 1.5469-1.5234 2.6719-1.5234h0.10156v-0.22266c0-0.74219-0.26562-1.1172-0.98828-1.1172-0.44922 0-0.875 0.10547-1.2773 0.35938v-0.51953c0.33203-0.16016 0.89453-0.29688 1.2773-0.29688 1.0742 0 1.5234 0.48438 1.5234 1.6172v1.9141c0 0.34766 0 0.61328 0.043 0.91016h-0.52735z"/>
   <path id="dp" d="m167.93 89.59c0.95313 0 1.2852-1.0234 1.2852-1.8125 0-0.79297-0.33203-1.8164-1.2852-1.8164-1.0195 0-1.2852 0.97266-1.2852 1.8164 0 0.83984 0.26563 1.8125 1.2852 1.8125m1.8203 0.35547h-0.53515v-0.6875h-0.0156c-0.28906 0.55469-0.73437 0.78906-1.3555 0.78906-1.1914 0-1.7852-0.98438-1.7852-2.2695 0-1.3203 0.51172-2.2734 1.7852-2.2734 0.85157 0 1.2774 0.62109 1.3555 0.83203h0.0156v-2.7734h0.53515z"/>
   <path id="dq" d="m171.04 85.605h0.53515v4.3398h-0.53515zm0.53515-1.1562h-0.53515v-0.71875h0.53515z"/>
   <path id="dr" d="m174.45 89.59c0.9375 0 1.4414-0.80859 1.4414-1.8125s-0.50391-1.8164-1.4414-1.8164c-0.93359 0-1.4375 0.8125-1.4375 1.8164s0.50391 1.8125 1.4375 1.8125m0-4.0859c1.4062 0 2.0274 1.0898 2.0274 2.2734 0 1.1797-0.6211 2.2695-2.0274 2.2695-1.4023 0-2.0234-1.0898-2.0234-2.2695 0-1.1836 0.62109-2.2734 2.0234-2.2734"/>
   <path id="ds" d="m161.65 93.527c-0.20313-0.09375-0.42578-0.16016-0.77344-0.16016-0.70703 0-1.1602 0.55859-1.1602 1.3867 0 0.80859 0.38282 1.4297 1.1836 1.4297 0.32422 0 0.68359-0.12109 0.8789-0.20312l0.0508 0.94141c-0.33203 0.10547-0.67187 0.14453-1.1406 0.14453-1.4375 0-2.1641-0.97656-2.1641-2.3125 0-1.2695 0.75-2.2734 2.1211-2.2734 0.46094 0 0.79297 0.05078 1.1055 0.14453z"/>
   <path id="dt" d="m164.58 95.781h0.0156l1.0547-3.1992h1.1602l-1.6445 4.3516c-0.36719 0.96875-0.6289 1.9219-1.8203 1.9219-0.27344 0-0.54688-0.04297-0.80859-0.11719l0.0742-0.84375c0.14454 0.05078 0.3086 0.07813 0.58985 0.07813 0.45703 0 0.73828-0.31641 0.73828-0.78516l-1.6758-4.6055h1.2617z"/>
   <path id="du" d="m167.47 92.582h1.0625v0.61328h0.0156c0.35938-0.53516 0.87891-0.71484 1.3047-0.71484 0.61328 0 1.0469 0.23047 1.293 0.77344 0.26172-0.52734 0.83593-0.77344 1.3711-0.77344 1.082 0 1.3867 0.74219 1.3867 1.7188v2.7656h-1.1406v-2.6133c0-0.40625 0-0.98438-0.65625-0.98438-0.75781 0-0.85156 0.90234-0.85156 1.4688v2.1289h-1.1406v-2.6133c0-0.40625 0-0.98438-0.65235-0.98438-0.76172 0-0.85156 0.90234-0.85156 1.4688v2.1289h-1.1406z"/>
   <path id="dv" d="m174.83 92.582h1.0117v0.99609h0.0156c0.0508-0.41016 0.51953-1.0977 1.2031-1.0977 0.10938 0 0.22657 0 0.34766 0.03516v1.1484c-0.10156-0.05859-0.30469-0.09375-0.51172-0.09375-0.92578 0-0.92578 1.1562-0.92578 1.7891v1.6055h-1.1406z"/>
   <path id="dw" d="m182.17 96.965h-1.0781v-0.59375h-0.0195c-0.34766 0.42578-0.83985 0.69531-1.4375 0.69531-1.0391 0-1.4883-0.73047-1.4883-1.7188v-2.7656h1.1406v2.3398c0 0.53906 8e-3 1.2617 0.73828 1.2617 0.82813 0 1.0039-0.89453 1.0039-1.457v-2.1445h1.1406z"/>
   <path id="dx" d="m143.15 92.055c4e-3 -0.55078-0.36328-0.96484-0.94922-1.1289 0.16015-0.07813 0.28125-0.17578 0.375-0.29688 0.125-0.16016 0.17969-0.35938 0.17969-0.58984 0-0.28516-0.10938-0.57031-0.34766-0.78516-0.24219-0.21875-0.60547-0.35938-1.0977-0.35938h-1.3711v4.3555h1.6094c0.57032 0 0.97266-0.15625 1.2344-0.38672 0.25781-0.23047 0.36719-0.53125 0.36719-0.80859m1.5273 2.0352h-6.4258v-6.043h6.4258z"/>
   <path id="dy" d="m142.35 91.969c0 0.14453-0.0469 0.28906-0.17578 0.40234-0.12891 0.11328-0.34766 0.19922-0.71875 0.19922h-0.73828v-1.1875h0.70703c0.32813 0 0.5625 0.06641 0.71094 0.16797 0.14453 0.10547 0.21094 0.24219 0.21484 0.41797"/>
   <path id="dz" d="m141.75 90.547c0.13672-0.10156 0.20312-0.23828 0.20312-0.44922 0-0.14844-0.0391-0.27344-0.14453-0.36328-0.10156-0.09375-0.28125-0.16016-0.57031-0.16016h-0.51953v1.125h0.35937c0.3125 0 0.53125-0.05469 0.67188-0.15234"/>
   <path id="ea" d="m135.75 92.055c4e-3 -0.55078-0.36328-0.96484-0.94922-1.1289 0.16016-0.07813 0.28516-0.17578 0.375-0.29688 0.12109-0.16016 0.17969-0.35938 0.17969-0.58984 0-0.28516-0.11328-0.57031-0.35156-0.78516-0.23829-0.21875-0.60157-0.35938-1.0938-0.35938h-1.3711v4.3555h1.6055c0.57422 0 0.97656-0.15625 1.2344-0.38672 0.26171-0.23047 0.37109-0.53125 0.37109-0.80859m1.5234 2.0352h-6.418v-6.043h6.418z"/>
   <path id="eb" d="m134.35 90.547c0.13672-0.10156 0.20313-0.23828 0.20313-0.44922 0-0.14844-0.043-0.27344-0.14453-0.36328-0.10547-0.09375-0.28125-0.16016-0.56641-0.16016h-0.52344v1.125h0.35938c0.30859 0 0.53125-0.05469 0.67187-0.15234"/>
   <path id="ec" d="m134.74 91.551c-0.14844-0.10547-0.38281-0.17188-0.71094-0.17188h-0.70703v1.1914h0.73828c0.36719 0 0.58985-0.08594 0.71875-0.19922 0.12891-0.11328 0.17188-0.25781 0.17188-0.40234 0-0.17188-0.0664-0.3125-0.21094-0.41797"/>
   <path id="ed" d="m150.8 92.082-0.10156 0.06641c-0.49609 0.30078-1.0352 0.46484-1.5273 0.46484-1.0508-0.0039-1.7461-0.62891-1.75-1.5352 4e-3 -0.88672 0.72656-1.543 1.7188-1.5469 0.51172 0 0.96875 0.13281 1.5156 0.42969l0.10157 0.05859v-0.8125l-0.043-0.01563c-0.61719-0.24219-1.0938-0.35156-1.5664-0.35156-0.72656 0-1.3594 0.24219-1.8086 0.64844-0.44922 0.41016-0.71485 0.98438-0.71485 1.6445 0 0.46094 0.1875 1.0039 0.59766 1.4336 0.40625 0.42578 1.0312 0.73828 1.8867 0.73828h4e-3c0.71485 0 1.2031-0.15625 1.6484-0.37891l0.0391-0.01563zm1.2774 2.0078h-6.4219v-6.043h6.4219z"/>
  </g>
 </g>
</svg>
