<?xml version="1.0" encoding="UTF-8" standalone="no"?>
<!-- Created with Inkscape (http://www.inkscape.org/) -->

<svg
   xmlns:dc="http://purl.org/dc/elements/1.1/"
   xmlns:cc="http://creativecommons.org/ns#"
   xmlns:rdf="http://www.w3.org/1999/02/22-rdf-syntax-ns#"
   xmlns:svg="http://www.w3.org/2000/svg"
   xmlns="http://www.w3.org/2000/svg"
   xmlns:sodipodi="http://sodipodi.sourceforge.net/DTD/sodipodi-0.dtd"
   xmlns:inkscape="http://www.inkscape.org/namespaces/inkscape"
   width="61.435116"
   height="43.615871"
   id="svg3309"
   version="1.1"
   inkscape:version="0.91 r13725"
   sodipodi:docname="BBC World Service - Dark.svg">
  <defs
     id="defs3311">
    <clipPath
       id="clipPath3015"
       clipPathUnits="userSpaceOnUse">
      <path
         inkscape:connector-curvature="0"
         id="path3017"
         d="m 28.346,28.346 71.765,0 0,54.047 -71.765,0 0,-54.047 z" />
    </clipPath>
  </defs>
  <sodipodi:namedview
     id="base"
     pagecolor="#ffffff"
     bordercolor="#666666"
     borderopacity="1.0"
     inkscape:pageopacity="0.0"
     inkscape:pageshadow="2"
     inkscape:zoom="7.919596"
     inkscape:cx="17.899024"
     inkscape:cy="42.846319"
     inkscape:document-units="px"
     inkscape:current-layer="layer1"
     showgrid="false"
     fit-margin-top="0"
     fit-margin-left="0"
     fit-margin-right="0"
     fit-margin-bottom="0"
     inkscape:window-width="1920"
     inkscape:window-height="1017"
     inkscape:window-x="-8"
     inkscape:window-y="-8"
     inkscape:window-maximized="1" />
  <metadata
     id="metadata3314">
    <rdf:RDF>
      <cc:Work
         rdf:about="">
        <dc:format>image/svg+xml</dc:format>
        <dc:type
           rdf:resource="http://purl.org/dc/dcmitype/StillImage" />
        <dc:title />
      </cc:Work>
    </rdf:RDF>
  </metadata>
  <g
     inkscape:label="Layer 1"
     inkscape:groupmode="layer"
     id="layer1"
     transform="translate(-83.713965,-324.77102)">
    <path
       id="path3019"
       style="fill:#c0311a;fill-opacity:1;fill-rule:nonzero;stroke:none"
       d="m 123.38384,324.77102 13.7275,0 0,12.9175 -13.7275,0 0,-12.9175 z m 8.64875,1.7975 c -0.06,-0.01 -0.12125,-0.02 -0.185,-0.03 l -0.075,-0.01 c -0.105,-0.015 -0.21125,-0.0263 -0.3175,-0.0375 -0.075,-0.006 -0.1475,-0.0113 -0.21875,-0.0163 -0.13125,-0.007 -0.26,-0.0112 -0.3825,-0.0112 -0.0575,0 -0.0888,10e-4 -0.145,0.002 -0.1025,10e-4 -0.2025,0.006 -0.305,0.0112 -0.055,0.004 -0.11125,0.01 -0.16625,0.0138 -0.0813,0.007 -0.16125,0.0163 -0.2425,0.0275 l -0.065,0.009 -0.075,0.01 -0.09,0.0138 c -0.04,0.007 -0.0787,0.0138 -0.11875,0.0213 -0.055,0.01 -0.10625,0.02 -0.16,0.0325 -0.32625,0.0688 -0.6275,0.16 -0.905,0.26875 -0.14375,0.055 -0.28125,0.115 -0.41125,0.18 -0.11125,0.0538 -0.21625,0.1075 -0.31625,0.1675 -0.0975,0.0562 -0.19125,0.1125 -0.28125,0.17375 -0.0525,0.0337 -0.10375,0.0688 -0.15375,0.105 -0.0425,0.0312 -0.085,0.0625 -0.125,0.0925 -0.0875,0.0688 -0.17125,0.13625 -0.25125,0.20625 -0.0725,0.065 -0.145,0.13125 -0.21125,0.1975 -0.0575,0.0563 -0.115,0.115 -0.16875,0.17625 -0.055,0.0612 -0.11,0.12375 -0.1625,0.18875 -0.055,0.07 -0.1125,0.1425 -0.16625,0.21625 -0.04,0.0562 -0.0775,0.1125 -0.115,0.17 -0.0263,0.0375 -0.0512,0.0775 -0.0775,0.1175 -0.14125,0.23375 -0.26625,0.485 -0.37,0.75125 -0.12875,0.33375 -0.22125,0.6925 -0.2725,1.07375 -0.015,0.12 -0.0288,0.2425 -0.035,0.36625 -0.006,0.0962 -0.01,0.1925 -0.01,0.29125 0,0.0738 0.001,0.14625 0.005,0.2175 0.005,0.075 0.0113,0.15 0.02,0.2225 l 0.005,0.0525 c 0.0113,0.0863 0.025,0.1725 0.0413,0.2575 0.007,0.0337 0.0125,0.0663 0.02,0.0987 0.0162,0.0713 0.0312,0.14 0.0512,0.21 0.0238,0.0875 0.0487,0.175 0.0775,0.26 0.0362,0.10625 0.0738,0.2075 0.11375,0.3075 0.0675,0.1575 0.14,0.31 0.2175,0.4525 0.0475,0.0838 0.0937,0.16625 0.14375,0.24375 0.0387,0.0625 0.0775,0.12375 0.11875,0.1825 0.0538,0.0775 0.11,0.15125 0.16375,0.2225 0.0575,0.075 0.11875,0.14625 0.17625,0.2125 0.0738,0.085 0.1475,0.16125 0.21875,0.2325 l 0.0387,0.0375 c 0.0588,0.0562 0.1225,0.11875 0.19625,0.18 0.0512,0.0425 0.10125,0.0875 0.15875,0.1325 0.0512,0.0412 0.1075,0.0838 0.165,0.12625 0.0687,0.0488 0.1425,0.0987 0.22,0.15 0.0812,0.0525 0.16875,0.105 0.26,0.155 0.18125,0.10125 0.38125,0.2 0.60125,0.28875 0.0813,0.0325 0.16625,0.0638 0.25625,0.0937 0.0863,0.03 0.175,0.0575 0.26875,0.085 0.1575,0.045 0.3225,0.085 0.4975,0.11875 0.14125,0.0275 0.2875,0.05 0.43875,0.0688 0.15,0.0175 0.30375,0.0312 0.465,0.04 0.08,0.004 0.15875,0.006 0.24,0.009 0.0362,0 0.075,0 0.11125,0 0.28875,0 0.55625,-0.01 0.80375,-0.0312 l 0.0475,-0.004 c 0.0987,-0.009 0.19375,-0.0187 0.28625,-0.0312 0.14125,-0.0162 0.2775,-0.0375 0.40375,-0.0612 0.0825,-0.0138 0.16,-0.03 0.23625,-0.0462 0.1175,-0.025 0.23125,-0.0525 0.3375,-0.0813 0.08,-0.02 0.15625,-0.0425 0.22875,-0.0663 0.0888,-0.0263 0.17375,-0.0537 0.255,-0.0813 l 0.0775,-0.0275 c 0.0388,-0.0138 0.0913,-0.0337 0.155,-0.0575 0.0825,-0.0325 0.1825,-0.0713 0.29625,-0.12 0.0675,-0.0288 0.14125,-0.0612 0.21625,-0.0962 0.0675,-0.03 0.13625,-0.065 0.2075,-0.1 0.03,-0.0138 0.0588,-0.0288 0.09,-0.0438 l 0,-1.76125 c -0.0187,0.0137 -0.0412,0.0263 -0.0613,0.0387 l -0.1225,0.0737 c -0.12,0.0725 -0.23625,0.14125 -0.3525,0.20375 -0.1275,0.07 -0.2525,0.13375 -0.3775,0.1925 -0.2175,0.1025 -0.42625,0.18875 -0.6275,0.26125 -0.38375,0.13875 -0.7375,0.22625 -1.04875,0.28 -0.0362,0.006 -0.0725,0.0125 -0.10875,0.0175 -0.085,0.0137 -0.1675,0.025 -0.24625,0.0325 -0.12375,0.0138 -0.23625,0.0213 -0.34,0.025 -0.0662,0.004 -0.13,0.005 -0.18625,0.005 -0.12625,0 -0.255,-0.004 -0.385,-0.0125 -0.15375,-0.0125 -0.30875,-0.0288 -0.4675,-0.0538 -0.255,-0.0437 -0.51125,-0.10875 -0.76,-0.2 -0.0363,-0.0125 -0.075,-0.0275 -0.10875,-0.0412 -0.0263,-0.01 -0.05,-0.02 -0.0737,-0.03 -0.0413,-0.0175 -0.0825,-0.035 -0.1225,-0.0537 -0.0875,-0.04 -0.1725,-0.085 -0.255,-0.1325 -0.0413,-0.0238 -0.0825,-0.0475 -0.12375,-0.0738 -0.0425,-0.0263 -0.085,-0.0537 -0.125,-0.0825 -0.0525,-0.0362 -0.1025,-0.0725 -0.1525,-0.11125 -0.0475,-0.0388 -0.0962,-0.0788 -0.13875,-0.11375 l -0.0575,-0.0525 -0.0288,-0.0275 -0.0175,-0.015 -0.0213,-0.0225 c -0.0787,-0.0775 -0.15125,-0.1575 -0.2175,-0.23625 -0.0375,-0.045 -0.0713,-0.09 -0.105,-0.135 -0.0325,-0.0425 -0.0625,-0.0875 -0.0913,-0.13 -0.0262,-0.0412 -0.0512,-0.0825 -0.0762,-0.125 -0.0363,-0.0613 -0.0688,-0.12375 -0.1,-0.185 -0.0263,-0.0525 -0.0512,-0.105 -0.0725,-0.1575 -0.0375,-0.0888 -0.07,-0.17875 -0.0962,-0.26375 -0.0225,-0.0663 -0.04,-0.13125 -0.055,-0.195 -0.0487,-0.18375 -0.0713,-0.3525 -0.085,-0.495 -0.004,-0.055 -0.007,-0.10625 -0.01,-0.1525 -0.005,-0.0712 -0.005,-0.1325 -0.005,-0.18125 0,-0.0325 0,-0.0688 10e-4,-0.11125 0.005,-0.10125 0.0125,-0.22875 0.035,-0.37375 0.0125,-0.0888 0.03,-0.1825 0.0525,-0.2825 0.0175,-0.065 0.035,-0.1325 0.0563,-0.20125 0.02,-0.0625 0.0425,-0.125 0.0662,-0.19 0.0175,-0.045 0.035,-0.0875 0.055,-0.13125 0.025,-0.06 0.0538,-0.11875 0.085,-0.18 0.0225,-0.045 0.0487,-0.09 0.075,-0.13625 0.0587,-0.1 0.1225,-0.2 0.19875,-0.29875 0.0263,-0.0362 0.0538,-0.0712 0.0838,-0.10625 0.0362,-0.045 0.075,-0.0913 0.1175,-0.135 0.02,-0.0225 0.0413,-0.045 0.0638,-0.0675 0.32125,-0.3225 0.685,-0.56375 1.06125,-0.735 0.0575,-0.0275 0.1175,-0.0512 0.1775,-0.0738 0.0588,-0.025 0.1175,-0.045 0.17875,-0.0662 0.0637,-0.0213 0.13125,-0.0412 0.19625,-0.06 0.0613,-0.0175 0.12375,-0.0325 0.18625,-0.0475 0.0613,-0.0138 0.125,-0.0263 0.18625,-0.0387 0.0675,-0.0113 0.13625,-0.0225 0.2025,-0.0312 0.0687,-0.009 0.1375,-0.0163 0.2025,-0.0213 0.12875,-0.0113 0.255,-0.0163 0.37875,-0.0163 0.04,0 0.08,-10e-4 0.12125,0 0.0913,0.002 0.18125,0.005 0.2675,0.0113 0.0625,0.004 0.12,0.007 0.1775,0.0138 0.1125,0.01 0.21875,0.0225 0.31875,0.04 0.0925,0.0125 0.17875,0.0288 0.2625,0.0438 0.12625,0.0263 0.2425,0.055 0.345,0.0812 0.0675,0.0175 0.13,0.0363 0.185,0.0525 0.0863,0.025 0.16,0.0475 0.21625,0.0675 0.0975,0.035 0.15125,0.0538 0.15125,0.0538 0.0863,0.0312 0.17125,0.065 0.255,0.0975 0.1125,0.045 0.21875,0.095 0.32125,0.14125 0.085,0.0375 0.16625,0.0775 0.2425,0.11625 0.0625,0.03 0.12125,0.06 0.17625,0.0888 0.0962,0.05 0.1775,0.095 0.245,0.13125 l 0.17875,0.0975 0,-1.73 c 0,0 -0.1075,-0.0437 -0.29375,-0.115 -0.0825,-0.03 -0.18,-0.0675 -0.29,-0.10625 -0.0625,-0.0225 -0.12625,-0.045 -0.195,-0.07 -0.055,-0.0175 -0.11125,-0.0375 -0.17,-0.0563 -0.0662,-0.0213 -0.135,-0.0437 -0.205,-0.065 -0.05,-0.015 -0.1025,-0.0312 -0.15625,-0.0462 l -0.0462,-0.0138 c -0.0513,-0.0137 -0.10375,-0.0288 -0.15625,-0.0425 -0.0637,-0.0175 -0.1275,-0.0337 -0.1925,-0.05 -0.0413,-0.01 -0.0813,-0.02 -0.125,-0.03 -0.0675,-0.015 -0.13625,-0.0312 -0.20625,-0.045 -0.0712,-0.015 -0.145,-0.0275 -0.2175,-0.0413"
       inkscape:connector-curvature="0" />
    <path
       inkscape:connector-curvature="0"
       d="m 112.83521,331.89453 0,2.53875 1.64875,0 c 0,0 0.0325,-0.001 0.0863,-0.002 0.0562,-0.001 0.135,-0.005 0.22875,-0.0138 0.18,-0.0163 0.415,-0.0487 0.64375,-0.12625 0.2075,-0.07 0.40875,-0.17375 0.56125,-0.32875 0.06,-0.0588 0.11,-0.12 0.14875,-0.1825 0.13,-0.20375 0.1625,-0.41125 0.1675,-0.52875 0.006,-0.05 0.005,-0.08 0.005,-0.08 0,0 0.001,-0.0225 0,-0.0625 -0.001,-0.0487 -0.007,-0.14375 -0.0337,-0.24625 -0.0312,-0.12 -0.0888,-0.26 -0.1925,-0.3875 -0.02,-0.0238 -0.0413,-0.0475 -0.0625,-0.0713 -0.0463,-0.045 -0.095,-0.0888 -0.15,-0.12875 -0.0888,-0.0663 -0.1925,-0.12375 -0.305,-0.17125 -0.1475,-0.065 -0.3125,-0.1125 -0.495,-0.14625 -0.0937,-0.0175 -0.1925,-0.0325 -0.29375,-0.0425 -0.0613,-0.005 -0.125,-0.01 -0.19,-0.0125 -0.0563,-0.004 -0.11625,-0.006 -0.175,-0.006 -0.58375,0 -1.5925,-0.001 -1.5925,-0.001"
       style="fill:#c0311a;fill-opacity:1;fill-rule:nonzero;stroke:none"
       id="path3023" />
    <path
       inkscape:connector-curvature="0"
       d="m 112.83521,328.03552 0,2.40625 0.79875,0 c 0,0 0.0525,0 0.1225,-0.001 0.0562,-0.004 0.12125,-0.006 0.18,-0.009 0.165,-0.0125 0.39125,-0.035 0.6175,-0.0987 0.045,-0.0125 0.09,-0.0263 0.13375,-0.0425 0.17875,-0.0625 0.34875,-0.155 0.48125,-0.28625 0.10625,-0.10375 0.175,-0.22 0.22125,-0.33125 0.0563,-0.13875 0.0775,-0.27 0.085,-0.3625 0.006,-0.0838 0.006,-0.1375 0.006,-0.1375 0,0 10e-4,-0.04 -0.001,-0.1025 -0.005,-0.10375 -0.0263,-0.275 -0.11,-0.43875 -0.04,-0.0788 -0.0937,-0.15375 -0.16875,-0.2275 -0.09,-0.0888 -0.19875,-0.15625 -0.315,-0.2075 -0.225,-0.1 -0.4825,-0.14 -0.7,-0.15375 -0.0925,-0.006 -0.17875,-0.007 -0.2525,-0.007 l -1.09875,0 z"
       style="fill:#c0311a;fill-opacity:1;fill-rule:nonzero;stroke:none"
       id="path3027" />
    <path
       id="path3029"
       style="fill:#c0311a;fill-opacity:1;fill-rule:nonzero;stroke:none"
       d="m 107.56759,324.77102 13.7275,0 0,12.9175 -13.7275,0 0,-12.9175 z m 3.6025,1.81125 0,9.30375 3.50125,0 c 0,0 1.7075,0.0475 2.65125,-0.89625 0.76625,-0.76625 0.7125,-1.655 0.7125,-1.655 0,0 0.0538,-0.9275 -0.65625,-1.6375 -0.605,-0.60625 -1.3775,-0.7675 -1.3775,-0.7675 0,0 0.3475,-0.16375 0.61625,-0.43125 0.12625,-0.12625 0.57375,-0.53 0.57375,-1.51 0,-0.9875 -0.6575,-1.555 -0.6575,-1.555 0,0 -0.72,-0.85125 -2.345,-0.85125 l -3.01875,0 z"
       inkscape:connector-curvature="0" />
    <path
       inkscape:connector-curvature="0"
       d="m 97.018583,331.89453 0,2.53875 1.6475,0 c 0,0 0.03375,-0.001 0.0875,-0.002 0.05625,-0.001 0.13375,-0.005 0.22875,-0.0138 0.18,-0.0163 0.415,-0.0487 0.64375,-0.12625 0.2075,-0.07 0.407497,-0.17375 0.562497,-0.32875 0.0588,-0.0588 0.1075,-0.12 0.1475,-0.1825 0.13,-0.20375 0.16125,-0.41125 0.16875,-0.52875 0.004,-0.05 0.004,-0.08 0.004,-0.08 0,0 0,-0.0225 0,-0.0625 -0.002,-0.0487 -0.009,-0.14375 -0.0337,-0.24625 -0.03,-0.12 -0.0887,-0.26 -0.1925,-0.3875 -0.0187,-0.0238 -0.04,-0.0475 -0.065,-0.0713 -0.045,-0.045 -0.0925,-0.0888 -0.14625,-0.12875 -0.09125,-0.0663 -0.194997,-0.12375 -0.304997,-0.17125 -0.14875,-0.065 -0.31625,-0.1125 -0.4975,-0.14625 -0.0925,-0.0175 -0.1925,-0.0325 -0.2925,-0.0425 -0.0625,-0.005 -0.12625,-0.01 -0.19,-0.0125 -0.05625,-0.004 -0.11625,-0.006 -0.17375,-0.006 -0.58625,0 -1.59375,-0.001 -1.59375,-0.001"
       style="fill:#c0311a;fill-opacity:1;fill-rule:nonzero;stroke:none"
       id="path3033" />
    <path
       inkscape:connector-curvature="0"
       d="m 97.018583,328.03552 0,2.40625 0.7975,0 c 0,0 0.05375,0 0.12375,-0.001 0.05625,-0.004 0.12125,-0.006 0.18,-0.009 0.16375,-0.0125 0.39125,-0.035 0.61875,-0.0987 0.04375,-0.0125 0.08875,-0.0263 0.13125,-0.0425 0.17875,-0.0625 0.35,-0.155 0.4825,-0.28625 0.105,-0.10375 0.175,-0.22 0.2225,-0.33125 0.055,-0.13875 0.075,-0.27 0.08375,-0.3625 0.0075,-0.0838 0.0063,-0.1375 0.0063,-0.1375 0,0 0.0025,-0.04 -0.0012,-0.1025 -0.005,-0.10375 -0.0275,-0.275 -0.11,-0.43875 -0.04,-0.0788 -0.095,-0.15375 -0.16875,-0.2275 -0.09,-0.0888 -0.19875,-0.15625 -0.315,-0.2075 -0.225,-0.1 -0.4825,-0.14 -0.69875,-0.15375 -0.09375,-0.006 -0.18125,-0.007 -0.2525,-0.007 l -1.1,0 z"
       style="fill:#c0311a;fill-opacity:1;fill-rule:nonzero;stroke:none"
       id="path3037" />
    <path
       id="path3039"
       style="fill:#c0311a;fill-opacity:1;fill-rule:nonzero;stroke:none"
       d="m 91.751339,324.77102 13.727501,0 0,12.9175 -13.727501,0 0,-12.9175 z m 3.60125,1.81125 0,9.30375 3.50125,0 c 0,0 1.708751,0.0475 2.651251,-0.89625 0.7675,-0.76625 0.7125,-1.655 0.7125,-1.655 0,0 0.055,-0.9275 -0.655,-1.6375 -0.60625,-0.60625 -1.38,-0.7675 -1.38,-0.7675 0,0 0.35,-0.16375 0.61875,-0.43125 0.125,-0.12625 0.5725,-0.53 0.5725,-1.51 0,-0.9875 -0.6575,-1.555 -0.6575,-1.555 0,0 -0.720001,-0.85125 -2.345001,-0.85125 l -3.01875,0 z"
       inkscape:connector-curvature="0" />
    <path
       inkscape:connector-curvature="0"
       d="m 96.668965,353.65077 -0.3225,0 -3.7975,-9.46125 -3.8325,9.46125 -0.3225,0 -4.68,-11.66625 1.6625,0 3.1875,7.97 3.205,-7.97 1.57625,0 3.2225,7.97 3.15375,-7.97 1.645005,0 -4.697505,11.66625 z"
       style="fill:#c0311a;fill-opacity:1;fill-rule:nonzero;stroke:none"
       id="path3043" />
    <path
       inkscape:connector-curvature="0"
       d="m 107.67685,352.17502 c 2.59375,0 4.51,-1.88125 4.51,-4.40875 0,-2.5425 -1.91625,-4.4075 -4.51,-4.4075 -2.5775,0 -4.49375,1.865 -4.49375,4.4075 0,2.5275 1.91625,4.40875 4.49375,4.40875 m 0,-10.3425 c 3.815,0 6.2225,2.7125 6.2225,5.93375 0,3.12125 -2.34,5.935 -6.25625,5.935 -3.78125,0 -6.1725,-2.7975 -6.1725,-5.935 0,-3.20375 2.45875,-5.93375 6.20625,-5.93375"
       style="fill:#c0311a;fill-opacity:1;fill-rule:nonzero;stroke:none"
       id="path3047" />
    <path
       inkscape:connector-curvature="0"
       d="m 117.62996,347.03777 1.06875,0 c 1.78,0 2.28875,-0.915 2.2725,-1.8825 -0.0175,-1.085 -0.6625,-1.74625 -2.2725,-1.74625 l -1.06875,0 0,3.62875 z m 1.255,-5.0525 c 2.34,0 3.79875,1.2375 3.79875,3.23875 0,1.33875 -0.69625,2.34 -1.93375,2.83125 1.05125,0.695 1.695,1.76375 2.5775,3.205 0.49125,0.79625 0.78,1.18625 1.5775,2.28875 l -1.985,0 -1.52625,-2.37375 c -1.525,-2.37375 -2.22,-2.645 -3.06875,-2.645 l -0.695,0 0,5.01875 -1.66125,0 0,-11.56375 2.91625,0 z"
       style="fill:#c0311a;fill-opacity:1;fill-rule:nonzero;stroke:none"
       id="path3051" />
    <path
       inkscape:connector-curvature="0"
       d="m 127.82097,352.05677 5.2225,0 0,1.4925 -6.885,0 0,-11.565 1.6625,0 0,10.0725 z"
       style="fill:#c0311a;fill-opacity:1;fill-rule:nonzero;stroke:none"
       id="path3055" />
    <path
       inkscape:connector-curvature="0"
       d="m 136.16283,352.05677 2.645,0 c 3.76375,0 4.62875,-2.865 4.62875,-4.29 0,-2.3225 -1.475,-4.29 -4.71375,-4.29 l -2.56,0 0,8.58 z m -1.6625,-10.0725 4.49375,0 c 4.27375,0 6.155,3.0525 6.155,5.7825 0,2.9675 -2.3225,5.7825 -6.1375,5.7825 l -4.51125,0 0,-11.565 z"
       style="fill:#c0311a;fill-opacity:1;fill-rule:nonzero;stroke:none"
       id="path3059" />
    <path
       inkscape:connector-curvature="0"
       d="m 91.370084,359.21314 c -0.98375,-0.9325 -1.9325,-1.20375 -2.7125,-1.20375 -1.06875,0 -1.83125,0.55875 -1.83125,1.37375 0,2.22125 5.00125,2.1875 5.00125,5.86625 0,1.815 -1.3725,3.1375 -3.23875,3.1375 -1.25375,0 -2.27125,-0.34 -3.23875,-1.06875 l 0,-2.1025 c 0.84875,1.085 1.91625,1.67875 3.0525,1.67875 1.28875,0 1.8825,-0.81375 1.8825,-1.4575 0,-2.39125 -5.0025,-2.6625 -5.0025,-5.83375 0,-1.8825 1.39,-3.08625 3.51,-3.08625 0.88125,0 1.76375,0.27125 2.5775,0.81375 l 0,1.8825 z"
       style="fill:#c0311a;fill-opacity:1;fill-rule:nonzero;stroke:none"
       id="path3063" />
    <path
       inkscape:connector-curvature="0"
       d="m 100.20397,358.16152 -4.9,0 0,3.49375 4.73,0 0,1.49125 -4.73,0 0,3.595 5.0525,0 0,1.4925 -6.715,0 0,-11.565 6.5625,0 0,1.4925 z"
       style="fill:#c0311a;fill-opacity:1;fill-rule:nonzero;stroke:none"
       id="path3067" />
    <path
       inkscape:connector-curvature="0"
       d="m 103.81571,361.72239 1.06875,0 c 1.78,0 2.28875,-0.915 2.27125,-1.88125 -0.0162,-1.08625 -0.66125,-1.7475 -2.27125,-1.7475 l -1.06875,0 0,3.62875 z m 1.255,-5.0525 c 2.34,0 3.7975,1.2375 3.7975,3.23875 0,1.33875 -0.695,2.34 -1.9325,2.83125 1.05125,0.69625 1.695,1.76375 2.5775,3.205 0.49125,0.79625 0.78,1.1875 1.57625,2.28875 l -1.98375,0 -1.52625,-2.37375 c -1.525,-2.37375 -2.22125,-2.645 -3.06875,-2.645 l -0.695,0 0,5.01875 -1.66125,0 0,-11.56375 2.91625,0 z"
       style="fill:#c0311a;fill-opacity:1;fill-rule:nonzero;stroke:none"
       id="path3071" />
    <path
       inkscape:connector-curvature="0"
       d="m 115.07746,368.33564 -0.34,0 -5.00125,-11.66625 1.66125,0 3.47625,8.1225 3.45875,-8.1225 1.645,0 -4.9,11.66625 z"
       style="fill:#c0311a;fill-opacity:1;fill-rule:nonzero;stroke:none"
       id="path3075" />
    <path
       id="path3077"
       style="fill:#c0311a;fill-opacity:1;fill-rule:nonzero;stroke:none"
       d="m 122.92759,368.23352 -1.66125,0 0,-11.565 1.66125,0 0,11.565 z"
       inkscape:connector-curvature="0" />
    <path
       inkscape:connector-curvature="0"
       d="m 135.33958,359.24739 c -1.42375,-0.83125 -2.645,-1.20375 -3.985,-1.20375 -2.645,0 -4.61125,1.88125 -4.61125,4.425 0,2.595 1.89875,4.39125 4.67875,4.39125 1.30625,0 2.73125,-0.4575 4.03625,-1.305 l 0,1.815 c -1.13625,0.59375 -2.37375,1.01625 -4.1875,1.01625 -4.34125,0 -6.24,-3.34 -6.24,-5.765 0,-3.52625 2.66125,-6.10375 6.34125,-6.10375 1.18625,0 2.39,0.2875 3.9675,0.94875 l 0,1.78125 z"
       style="fill:#c0311a;fill-opacity:1;fill-rule:nonzero;stroke:none"
       id="path3081" />
    <path
       inkscape:connector-curvature="0"
       d="m 144.05496,358.16152 -4.9,0 0,3.49375 4.73,0 0,1.49125 -4.73,0 0,3.595 5.0525,0 0,1.4925 -6.715,0 0,-11.565 6.5625,0 0,1.4925 z"
       style="fill:#c0311a;fill-opacity:1;fill-rule:nonzero;stroke:none"
       id="path3085" />
  </g>
</svg>
