<?xml version="1.0" encoding="UTF-8" standalone="no"?>
<svg
   xmlns:dc="http://purl.org/dc/elements/1.1/"
   xmlns:cc="http://creativecommons.org/ns#"
   xmlns:rdf="http://www.w3.org/1999/02/22-rdf-syntax-ns#"
   xmlns:svg="http://www.w3.org/2000/svg"
   xmlns="http://www.w3.org/2000/svg"
   xmlns:sodipodi="http://sodipodi.sourceforge.net/DTD/sodipodi-0.dtd"
   xmlns:inkscape="http://www.inkscape.org/namespaces/inkscape"
   xml:space="preserve"
   enable-background="new 0 0 600 250.05"
   viewBox="0 0 599.99925 249.94126"
   height="266.604"
   width="639.99921"
   y="0px"
   x="0px"
   id="svg2"
   version="1.1"
   inkscape:version="0.92.0 r15299"
   sodipodi:docname="BBC Radio 1Xtra.svg"><sodipodi:namedview
     pagecolor="#ffffff"
     bordercolor="#666666"
     borderopacity="1"
     objecttolerance="10"
     gridtolerance="10"
     guidetolerance="10"
     inkscape:pageopacity="0"
     inkscape:pageshadow="2"
     inkscape:window-width="1920"
     inkscape:window-height="1017"
     id="namedview6"
     showgrid="false"
     showguides="true"
     inkscape:zoom="1.4142136"
     inkscape:cx="304.4374"
     inkscape:cy="75.179579"
     inkscape:window-x="-8"
     inkscape:window-y="-8"
     inkscape:window-maximized="1"
     inkscape:current-layer="svg2"
     fit-margin-top="0"
     fit-margin-left="0"
     fit-margin-right="0"
     fit-margin-bottom="0" /><metadata
     id="metadata7"><rdf:RDF><cc:Work
         rdf:about=""><dc:format>image/svg+xml</dc:format><dc:type
           rdf:resource="http://purl.org/dc/dcmitype/StillImage" /><dc:title></dc:title></cc:Work></rdf:RDF></metadata><defs
     id="defs5" /><path
     d="m 149.594,101.85825 c -8.783,0 -15.329,-6.402005 -15.329,-15.023005 0,-8.67 6.546,-15.04 15.329,-15.04 8.847,0 15.378,6.37 15.378,15.04 0,8.621 -6.531,15.023005 -15.378,15.023005 m 0,-35.243005 c -12.788,0 -21.168,9.297 -21.168,20.22 0,10.697 8.155,20.235005 21.04,20.235005 13.351,0 21.345,-9.587005 21.345,-20.235005 0,-10.971 -8.204,-20.22 -21.217,-20.22 m -33.377,0.499 h 5.662 v 39.441005 h -5.662 z M 88.099,101.47325 H 79.075 V 72.213245 h 8.702 c 11.051,0 16.085,6.708 16.085,14.622 0.001,4.857 -2.942,14.638005 -15.763,14.638005 m 0.628,-34.359005 h -15.33 v 39.425005 h 15.378 c 13.013,0 20.927,-9.587005 20.927,-19.705005 0,-9.297 -6.418,-19.72 -20.975,-19.72 M 30.449,106.53925 h -0.322 l 0.128,-0.273 z m 0,0 h -0.322 l 0.128,-0.273 z m 12.644,-16.712005 5.903,-14.268 6.354,14.268 z m 3.973,-22.938 -16.81,39.377005 0.193,0.273 h -0.322 5.791 L 40.889,94.941245 H 57.65 l 5.26,11.598005 h 5.774 L 51.055,66.889245 Z m -37.753,17.452 H 5.662 v -12.37 h 3.651 c 5.469,0 7.688,2.252 7.737,5.952 0.048,3.298 -1.673,6.418 -7.737,6.418 m 15.764,14.397 c -3.008,-4.906 -5.196,-8.541 -8.783,-10.906 4.214,-1.689 6.595,-5.099 6.595,-9.667 0,-6.82 -4.97,-11.05 -12.949,-11.05 H 0 V 106.54025 H 5.662 V 89.440245 h 2.365 c 2.912,0 5.244,0.917 10.472,9.008 l 5.196,8.091005 h 6.434 l 0.128,-0.273 c -2.559,-3.523 -3.539,-4.874 -5.18,-7.528005 m 10.938,-53.404 c -3.475,3.49 -9.78,3.313 -9.78,3.313 H 13.286 v -34.358 H 24.45 c 6,0 8.638,3.137 8.638,3.137 0,0 2.429,2.091 2.429,5.742 0,3.62 -1.641,5.115 -2.091,5.582 l -2.284,1.577 c 0,0 2.847,0.611 5.067,2.847 2.638,2.638 2.429,6.032 2.429,6.032 0,0 0.208,3.281 -2.623,6.128 M 50.685,7.5982455 H 0.015 V 55.307245 H 50.684 V 7.5982455 Z M 22.406,28.605245 h -2.959 v -8.896 h 4.069 l 0.917,0.048 2.59,0.547 1.158,0.788 0.611,0.836 0.435,1.608 v 0.386 l -0.032,0.499 -0.306,1.351 -0.82,1.223 -1.77,1.045 -0.499,0.161 -2.284,0.354 -0.675,0.048 h -0.435 z m 9.796,8.944 0.145,0.901 v 0.241 l -0.032,0.29 -0.611,1.946 -0.547,0.676 -2.075,1.223 -2.38,0.45 -0.853,0.048 -0.306,0.016 h -6.096 v -9.362 h 6.53 l 0.708,0.081 1.062,0.145 1.85,0.547 1.126,0.627 0.547,0.483 0.225,0.241 z m 62.219,7.785 c -3.491,3.49 -9.812,3.313 -9.812,3.313 H 71.692 v -34.358 H 82.84 c 6,0 8.67,3.137 8.67,3.137 0,0 2.413,2.091 2.413,5.742 0,3.62 -1.641,5.115 -2.107,5.582 l -2.268,1.577 c 0,0 2.831,0.611 5.083,2.847 2.622,2.638 2.429,6.032 2.429,6.032 0,0 0.192,3.281 -2.639,6.128 M 109.075,7.5982455 H 58.39 V 55.307245 h 50.685 z M 80.797,28.605245 h -2.943 v -8.896 h 4.053 l 0.933,0.048 2.574,0.547 1.158,0.788 0.643,0.836 0.386,1.608 0.016,0.386 -0.016,0.499 -0.322,1.351 -0.804,1.223 -1.786,1.045 -0.482,0.161 -2.284,0.354 -0.675,0.048 h -0.451 z m 9.828,8.944 0.113,0.901 v 0.241 l -0.016,0.29 -0.627,1.946 -0.547,0.676 -2.075,1.223 -2.365,0.45 -0.852,0.048 -0.322,0.016 h -6.081 v -9.362 h 6.531 l 0.692,0.081 1.062,0.145 1.85,0.547 1.126,0.627 0.547,0.483 0.257,0.241 z m 66.802,8.413 -0.337,0.161 -0.756,0.37 -0.82,0.337 -1.078,0.467 -0.579,0.209 -0.29,0.081 -0.933,0.306 -0.869,0.241 -1.238,0.306 -0.869,0.177 -1.496,0.209 -1.045,0.129 -0.177,0.016 -2.976,0.129 h -0.402 l -0.884,-0.064 -1.705,-0.129 -1.641,-0.257 -1.833,-0.434 -0.998,-0.322 -0.933,-0.338 -2.236,-1.062 -0.965,-0.579 -0.804,-0.563 -0.595,-0.45 -0.595,-0.483 -0.74,-0.675 -0.113,-0.129 -0.804,-0.869 -0.675,-0.788 -0.595,-0.82 -0.436,-0.662 -0.531,-0.917 -0.804,-1.673 -0.418,-1.126 -0.305,-0.965 -0.161,-0.772 -0.081,-0.386 -0.145,-0.933 -0.016,-0.209 -0.097,-0.804 -0.016,-0.804 0.048,-1.078 0.128,-1.368 0.998,-3.973 1.383,-2.75 0.273,-0.435 0.435,-0.627 0.595,-0.789 0.611,-0.691 0.627,-0.676 0.756,-0.708 0.949,-0.772 0.451,-0.338 0.563,-0.402 1.045,-0.627 1.174,-0.627 1.512,-0.676 3.33,-0.981 0.611,-0.113 0.418,-0.064 0.338,-0.081 0.29,-0.032 0.241,-0.032 0.901,-0.097 0.611,-0.032 1.126,-0.064 h 0.531 l 1.399,0.048 0.82,0.048 1.174,0.128 0.273,0.032 0.691,0.145 0.788,0.128 0.756,0.177 0.466,0.096 0.74,0.193 0.547,0.161 0.161,0.032 0.611,0.177 0.724,0.257 0.627,0.193 0.724,0.273 1.078,0.386 1.078,0.418 v 6.386 l -0.66,-0.354 -0.901,-0.483 -0.643,-0.354 -0.885,-0.402 -1.207,-0.515 -0.933,-0.386 -0.563,-0.177 -0.804,-0.257 -0.659,-0.193 -1.287,-0.306 -0.965,-0.161 -1.158,-0.145 -0.692,-0.064 -0.965,-0.016 -0.466,-0.016 -1.399,0.081 -0.74,0.064 -0.74,0.113 -0.691,0.145 -0.692,0.177 -0.724,0.225 -0.66,0.241 -0.659,0.273 -3.909,2.719 -0.241,0.241 -0.45,0.499 -0.306,0.402 -0.724,1.094 -0.273,0.515 -0.322,0.66 -0.193,0.45 -0.257,0.724 -0.193,0.756 -0.193,1.045 -0.145,1.383 v 0.402 l 0.016,0.659 0.048,0.563 0.306,1.818 0.209,0.724 0.354,0.981 0.257,0.579 0.386,0.691 0.29,0.451 0.322,0.499 0.386,0.482 0.805,0.885 0.08,0.064 0.064,0.081 0.113,0.096 0.209,0.193 0.531,0.402 0.531,0.418 0.466,0.305 0.451,0.273 0.965,0.499 0.435,0.209 0.257,0.081 0.434,0.161 2.783,0.74 1.737,0.209 1.416,0.048 0.708,-0.017 1.238,-0.096 0.933,-0.129 0.386,-0.064 3.86,-1.029 2.316,-0.949 1.416,-0.724 1.303,-0.772 0.451,-0.273 0.225,-0.129 z M 167.481,7.5982455 H 116.78 V 55.307245 h 50.701 z"
     id="path6"
     inkscape:connector-curvature="0"
     sodipodi:nodetypes="csssccssscccccccccscccccsscccccccccccccccccccccccccccsccccssccccscccccccccscsccccccccccccccccccccccccccccccccccccccccccccccccccccccscscccccccccccccccccccccccccccccccccccccccccccccccccccccccccccccccccccccccccccccccccccccccccccccccccccccccccccccccccccccccccccccccccccccccccccccccccccccccccccccccccccccccccccccccccccccccccccccccccccccccccccccccccccccc"
     style="fill:#ffffff;fill-opacity:1" /><g
     transform="matrix(0.93750001,0,0,0.93750001,369.735,42.75375)"
     id="g4506"><path
       sodipodi:nodetypes="cscccccccccccssscccccscscccccccccsssccccccssscsccccccccccccc"
       inkscape:connector-curvature="0"
       style="fill:#ffffff;fill-opacity:1;stroke-width:1.90431428"
       id="path4"
       d="M 75.559917,26.569511 C 85.081489,44.850929 90.413569,65.607954 90.413569,87.698 v 2.856471 C 81.463291,76.843409 64.705326,51.135166 62.039286,47.136106 63.562737,44.850929 69.27568,36.091083 75.559917,26.569511 Z M 45.471751,72.653917 c -5.712942,8.759846 -17.32926,26.6604 -17.32926,26.6604 H -5.37344 c 0,0 30.469029,-46.465268 34.087226,-52.178211 C 25.095589,41.613594 -3.6595571,-1.9952029 -3.6595571,-1.9952029 H 29.665943 c 0,0 10.283297,15.6153769 15.615377,23.8039289 C 49.089949,16.095783 55.374186,6.5742114 58.61152,1.4325629 34.426729,-27.322583 -2.1361057,-45.604 -42.698,-45.604 -116.20453,-45.604 -176,14.001037 -176,87.698 -176,161.39496 -116.39496,221 -42.698,221 26.999903,221 84.129331,167.48877 90.032706,99.314317 H 62.801011 c 0,0 -11.806748,-17.900554 -17.32926,-26.6604 z M 174.01297,25.236491 168.30002,41.0423 c -1.33302,-0.761726 -3.42776,-1.523451 -5.33208,-1.523451 -5.33208,0 -9.52157,6.093805 -9.90243,16.948397 -0.19043,3.99906 -0.19043,8.569414 -0.19043,12.568474 V 98.933454 H 134.40323 V 25.04606 h 15.99624 v 9.33114 c 3.42776,-7.617257 9.52157,-11.235454 15.61538,-11.235454 3.99906,0.190431 6.28423,1.142588 7.99812,2.094745 z m 52.93993,0 v 7.99812 c -6.6651,-6.6651 -14.28235,-10.092865 -23.23263,-10.092865 -19.23358,0 -34.65852,15.805808 -34.65852,38.848011 0,22.66134 16.3771,38.848013 35.22981,38.848013 9.33114,0 16.18667,-3.427767 22.85177,-9.712004 v 7.807688 h 18.47185 V 25.04606 H 226.9529 Z m -19.424,58.843312 c -11.61632,0 -19.80487,-9.33114 -19.80487,-21.899614 0,-11.99718 7.61726,-21.899615 19.80487,-21.899615 11.61631,0 20.37616,8.759846 20.37616,21.709183 -0.19043,13.3302 -8.95028,22.090046 -20.37616,22.090046 z M 117.07397,25.236491 h 11.04502 V 41.0423 H 117.07397 V 99.123886 H 98.60212 V 41.232731 H 89.080549 V 25.426923 H 98.60212 V -1.8047714 h 18.47185 z"
       class="st0" /><path
       sodipodi:nodetypes="ccccccc"
       inkscape:connector-curvature="0"
       style="fill:#000000;fill-opacity:1;stroke-width:1.90431428"
       id="path4-0"
       d="M -18.32278,177.01034 H -65.16891 V 49.42128 h -19.9953 L -57.55165,-1.9952 h 39.22887 z"
       class="st0" /></g></svg>