<svg id="a" width="600" height="329.99" version="1.1" viewBox="0 0 158.75 87.309" xmlns="http://www.w3.org/2000/svg">
 <path id="b" d="m115.12-5.9347e-4c-24.1 0-43.63 19.55-43.63 43.65 0 24.12 19.53 43.66 43.63 43.66s43.63-19.54 43.63-43.66c0-24.1-19.53-43.65-43.63-43.65"/>
 <path id="c" d="m40.783 2.6894h17.7v16.65h-17.7zm11.15 2.32-0.237-0.04-0.1-0.01-0.41-0.05-0.279-0.02-0.494-0.02h-0.189l-0.389 0.02-0.216 0.02-0.315 0.03-0.084 0.01-0.095 0.02-0.121 0.02-0.147 0.02-0.205 0.04-1.172 0.35-0.526 0.23-0.41 0.22-0.363 0.22-0.194 0.14-0.168 0.12-0.321 0.26-0.273 0.26-0.216 0.22-0.21 0.25-0.21 0.28-0.153 0.22-0.094 0.15-0.484 0.97c-0.163 0.42-0.279 0.89-0.347 1.38l-0.047 0.48-0.011 0.36v0.29l0.032 0.28 0.01 0.08 0.053 0.33 0.026 0.12 0.053 0.27 0.11 0.34 0.142 0.39 0.284 0.59 0.179 0.32 0.157 0.23 0.211 0.28 0.236 0.28 0.273 0.3 0.048 0.04 0.252 0.24 0.21 0.17 0.211 0.16 0.278 0.19 0.337 0.2 0.778 0.38 0.331 0.12 0.342 0.1 0.646 0.16 0.568 0.09 0.594 0.05 0.31 0.01h0.147l1.036-0.04h0.063l0.363-0.05 0.52-0.07 0.305-0.06 0.442-0.11 0.294-0.08 0.326-0.11 0.1-0.03 0.194-0.08 0.389-0.15 0.279-0.13 0.268-0.12 0.121-0.06v-2.27l-0.084 0.05-0.158 0.09-0.457 0.27-0.489 0.25-0.804 0.33c-0.5 0.18-0.952 0.29-1.351 0.36l-0.142 0.03-0.321 0.04-0.431 0.03-0.242 0.01-0.499-0.02-0.605-0.07-0.972-0.26-0.148-0.05-0.094-0.04-0.158-0.07-0.331-0.17-0.158-0.09-0.157-0.12-0.195-0.13-0.179-0.15-0.079-0.07-0.031-0.04-0.021-0.01-0.037-0.03-0.279-0.31-0.136-0.17-0.111-0.17-0.105-0.16-0.131-0.24-0.079-0.2-0.137-0.34-0.073-0.26-0.1-0.63-0.016-0.2-0.01-0.23v-0.14l0.047-0.49 0.073-0.36 0.069-0.26 0.084-0.25 0.074-0.16 0.11-0.23 0.095-0.18 0.257-0.39 0.1-0.14 0.163-0.17 0.079-0.09c0.415-0.41 0.883-0.73 1.367-0.94l0.231-0.1 0.231-0.09 0.253-0.07 0.241-0.06 0.237-0.05 0.263-0.04 0.263-0.02 0.483-0.03h0.158l0.342 0.01 0.231 0.02 0.41 0.05 0.336 0.06 0.452 0.11 0.237 0.06 0.273 0.09 0.2 0.07 0.326 0.12 0.415 0.19 0.311 0.14 0.231 0.12 0.315 0.17 0.226 0.13v-2.24l-0.373-0.15-0.384-0.13-0.242-0.09-0.226-0.07-0.257-0.08-0.205-0.07-0.058-0.02-0.2-0.05-0.247-0.06-0.163-0.04-0.268-0.06z"/>
 <path id="d" d="m27.188 11.899v3.28h2.119l0.11-0.01 0.3-0.02 0.831-0.16 0.725-0.42 0.189-0.24 0.221-0.68 5e-3 -0.11v-0.08l-0.042-0.31-0.247-0.51-0.089-0.09-0.189-0.16-0.405-0.23-0.636-0.18-0.368-0.05-0.253-0.02-0.22-0.01z"/>
 <path id="e" d="m27.188 6.9194v3.11h1.02l0.168-0.01 0.226-0.01 0.8-0.13 0.173-0.05 0.62-0.37 0.284-0.43 0.116-0.46v-0.32l-0.142-0.55-0.216-0.3-0.41-0.26-0.893-0.2-0.332-0.02z"/>
 <path id="f" d="m20.397 2.6894h17.694v16.65h-17.694zm4.636 2.33v12h4.521s2.203 0.06 3.417-1.15c0.988-0.99 0.915-2.14 0.915-2.14s0.073-1.19-0.847-2.11c-0.778-0.78-1.776-0.99-1.776-0.99l0.799-0.56c0.157-0.16 0.736-0.68 0.736-1.94 0-1.28-0.847-2.01-0.847-2.01s-0.93-1.1-3.023-1.1z"/>
 <path id="g" d="m6.797 11.899v3.28h2.119l0.115-0.01 0.295-0.02 0.835-0.16 0.721-0.42 0.189-0.24 0.221-0.68 5e-3 -0.11v-0.08l-0.042-0.31-0.258-0.51-0.073-0.09-0.19-0.16-0.399-0.23-0.636-0.18-0.379-0.05-0.247-0.02-0.221-0.01z"/>
 <path id="h" d="m6.797 6.9194v3.11h1.025l0.163-0.01 0.231-0.01 0.794-0.13 0.174-0.05 0.615-0.37 0.284-0.43 0.12-0.46 6e-3 -0.18v-0.14l-0.142-0.55-0.221-0.3-0.415-0.26-0.899-0.2-0.316-0.02z"/>
 <path id="i" d="m0 2.6894h17.7v16.65h-17.7zm4.647 2.33v12h4.516s2.197 0.06 3.417-1.15c0.988-0.99 0.92-2.14 0.92-2.14s0.068-1.19-0.852-2.11c-0.778-0.78-1.777-0.99-1.777-0.99l0.799-0.56c0.163-0.16 0.741-0.68 0.741-1.94 0-1.28-0.851-2.01-0.851-2.01s-0.925-1.1-3.018-1.1z"/>
 <path id="j" d="m1.979 25.169h1.272c1.914 0 2.687 0.78 2.702 2.08 0.021 1.15-0.583 2.24-2.702 2.24h-1.272zm-1.976-1.7v13.76h1.976v-5.97h0.831c1.014 0 1.834 0.33 3.653 3.16l1.814 2.81h2.36c-0.946-1.3-1.288-1.77-1.876-2.72-1.052-1.71-1.819-2.98-3.071-3.81 1.478-0.59 2.308-1.78 2.308-3.37 0-2.38-1.74-3.86-4.526-3.86z"/>
 <path id="k" d="m17.105 26.419 2.224 4.98h-4.279zm0.726-3.03h-1.388l-5.919 13.84h2.013l1.745-4.04h5.856l1.835 4.04h2.019z"/>
 <path id="l" d="m27.609 25.249h3.044c3.858 0 5.619 2.34 5.619 5.11 0 1.69-1.035 5.11-5.509 5.11h-3.154zm-1.977 11.99h5.368c4.547 0 7.307-3.36 7.307-6.88 0-3.25-2.24-6.89-7.328-6.89h-5.347z"/>
 <path id="m" d="m40.588 37.239h1.977v-13.76h-1.977z"/>
 <path id="n" d="m46.883 30.359c0-3.03 2.287-5.25 5.352-5.25 3.091 0 5.372 2.22 5.372 5.25 0 3-2.281 5.24-5.372 5.24-3.065 0-5.352-2.24-5.352-5.24m-2.039 0c0 3.73 2.854 7.06 7.349 7.06 4.668 0 7.454-3.35 7.454-7.06 0-3.84-2.87-7.07-7.412-7.07-4.463 0-7.391 3.25-7.391 7.07"/>
 <path id="o" d="m123.14 72.919h-15.36v-41.76h-6.57l9.07-16.83h12.86z" fill="#fff"/>
</svg>
