<svg height="239.05" viewBox="0 0 158.75 63.247853" width="600" xmlns="http://www.w3.org/2000/svg"><g transform="translate(-48.904 -87.392)"><g fill="#fff"><g fill-rule="evenodd"><path d="m78.881 89.234h13.005v12.246h-13.005zm8.1928 1.7052c-.0552-.012-.114-.016-.1752-.0322l-.0692-.008c-.099-.014-.1958-.0242-.30186-.0346-.0692-.008-.1372-.01-.20738-.014-.1256-.01-.2408-.012-.35946-.012-.053 0-.0864.002-.1394.002-.1026 0-.1958.01-.28574.014-.0552.002-.1094.008-.1636.01-.076.008-.1498.014-.22466.03l-.0668.004-.0714.008-.083.016c-.038.004-.076.01-.1118.0218-.0508.006-.1026.014-.1532.0288-.30532.0646-.59566.1498-.85142.25346-.1394.053-.27306.1128-.39404.174-.106.0484-.20162.1014-.29954.1578-.0944.0506-.1774.1072-.26846.1602-.0484.0368-.0956.0692-.1474.1038-.0368.03-.076.0564-.1164.0864-.0806.061-.1636.1302-.2385.1948-.068.0634-.1336.1256-.20046.1866-.053.053-.1106.1072-.1578.1706-.0564.0564-.1072.1152-.1568.1798-.0552.0634-.1038.1302-.1532.20278-.0426.0508-.0748.1038-.1106.1602-.0276.038-.0496.0726-.0692.1072-.1394.22466-.25578.462-.35602.71318-.1222.31798-.20968.65902-.25808 1.015-.012.1176-.023.23274-.0312.35256-.008.091-.01.182-.01.27306 0 .0714 0 .1406.002.20738.008.0702.016.137.023.21198l.002.0508c.012.083.0242.1624.0404.2431.008.0346.012.061.018.0956.014.0646.0312.128.0438.1948.0242.083.0484.166.0796.25002.0288.098.068.197.106.29264.0634.144.1326.28918.20392.42744.0438.0784.091.1544.1348.23272.038.0554.0784.1152.113.1716.0508.0714.1048.1406.1578.20738.053.0748.1118.136.1682.20508.068.0784.136.151.20624.2166l.0346.0358c.0576.053.1176.1118.1844.1762.0508.0368.099.0794.1544.1222.0472.038.099.0784.1544.1186.068.0472.1348.0898.20738.144.0818.0426.1624.0956.24426.1464.1752.0934.36408.1902.57492.27306.0748.0322.1568.0588.2431.0852.0806.0322.166.0588.25.083.152.0404.31108.083.47584.114.1314.0242.2742.0484.41476.0622.1428.018.28688.031.43898.0404.0772.004.152.004.22696.008h.1094c.2696 0 .52308-.008.7581-.03l.0484-.006c.0934-.004.182-.014.2673-.0264.1394-.018.26038-.0368.3825-.061.0772-.008.152-.0264.22352-.0426.1152-.0242.2166-.0508.32376-.0772.0714-.02.144-.0404.2166-.0622.084-.0208.1602-.0484.23964-.0772l.0748-.0242c.038-.012.0888-.0322.1464-.0564.0784-.0288.1716-.0634.27652-.114.0692-.0242.1382-.0588.21084-.0888.0588-.0322.1278-.0634.1958-.0956.0266-.012.0576-.0322.0842-.0404v-1.6729c-.02.014-.0392.0276-.0576.0404l-.114.0646c-.114.075-.22352.136-.33528.1982-.121.0634-.24194.1268-.35832.1866-.20622.0898-.4067.1728-.5945.2454-.36752.1278-.69818.20854-.99198.26154-.038.006-.0702.014-.1048.02-.0818.01-.1602.0208-.23618.0288-.1152.014-.22006.018-.31684.0208-.0692.004-.121.01-.1786.01-.1176 0-.2431-.006-.36638-.012-.1452-.012-.29034-.0288-.44358-.053-.2408-.0426-.48274-.1048-.71546-.1878-.0404-.012-.0726-.0264-.1072-.0426-.0242-.006-.045-.014-.0714-.0288-.0368-.016-.076-.0288-.114-.0484-.0842-.0404-.1624-.083-.24426-.128-.0346-.0242-.0726-.045-.1152-.0668-.0404-.0264-.0784-.0506-.1198-.0806-.0462-.0288-.0944-.0692-.1418-.1038-.046-.0346-.091-.0772-.1336-.1094l-.0518-.0508-.03-.0242-.014-.012-.018-.0218c-.0772-.0726-.1452-.1498-.21084-.22468-.0334-.0392-.0634-.0852-.1002-.1278-.0276-.0426-.0552-.0806-.0784-.1232-.0312-.0404-.06-.0772-.076-.1198-.0358-.0564-.0668-.1128-.1002-.174-.02-.0506-.0414-.099-.0646-.1498-.0346-.083-.0646-.1706-.0888-.24772-.022-.0588-.0392-.129-.0564-.19-.0392-.1716-.0634-.32836-.0784-.46546-.01-.0552-.01-.1038-.012-.1464-.001-.0668-.001-.1232-.001-.1682v-.1048c.001-.0956.014-.2189.0288-.35486.016-.0852.0312-.174.0564-.2696.014-.0646.0322-.1232.0472-.1902.022-.0588.0404-.1176.0702-.1844.012-.0368.0288-.0794.0496-.1198.0254-.0564.0496-.113.0806-.1682.0218-.045.0484-.0876.0714-.1314.0576-.0934.1164-.189.189-.27996.023-.0404.0496-.0692.0772-.1048.0346-.0404.0714-.0876.1118-.1256.018-.0208.0404-.0414.061-.0668.30762-.30646.6498-.53114 1.0035-.69474.0552-.023.114-.0506.167-.0714.061-.0242.114-.0426.174-.0646.0552-.018.1198-.0322.1844-.053.0554-.018.121-.0322.1762-.046.06-.012.1222-.0264.1786-.0368.061-.01.1232-.018.1902-.03.0646-.006.1278-.012.1936-.018.121-.01.23848-.018.3537-.018.046 0 .0818 0 .1176.006.091 0 .1716.002.25346.006.0564.006.114.006.1706.012.1026.01.20854.0242.30302.0426.084.008.1694.0242.2477.0368.1186.0242.22812.0508.32952.0806.06.016.1176.0288.174.0484.0772.023.1486.045.20278.061.0898.0346.144.053.144.053.0796.03.1614.0646.23964.0968.1094.0404.20854.083.30532.1302.0794.038.1556.0726.22926.1048.0588.0346.1152.061.167.0876.091.0484.1694.0944.2339.1232l.1658.0934v-1.6372s-.1014-.045-.27536-.1118c-.0796-.0276-.1716-.06-.27766-.0968-.0588-.0242-.1186-.046-.1866-.0668-.0518-.016-.1026-.0368-.1578-.0508-.0646-.0242-.1232-.045-.1936-.0692-.0484-.008-.0968-.0264-.151-.0426l-.046-.01c-.045-.014-.0934-.0254-.1418-.0438-.061-.01-.1256-.0288-.1808-.0484-.0404-.004-.083-.014-.1232-.0208-.0646-.016-.1278-.0346-.1948-.0484-.0668-.01-.1336-.0242-.20624-.0368"/><path d="m68.887 96.004v2.4045h1.56s.0312-.004.076-.004c.06-.002.1324-.006.22582-.012.1648-.016.39056-.0426.60948-.1198.1948-.0646.38366-.1636.52882-.30992.0564-.0564.1038-.1152.144-.174.1176-.1958.1498-.39056.1578-.50232.001-.046.001-.0748.001-.0748s.002-.0208 0-.0564c0-.0484-.004-.1382-.0312-.23388-.0266-.1164-.0818-.24656-.1808-.36984-.02-.018-.0426-.0426-.0634-.0668-.0414-.0426-.0864-.083-.1372-.1256-.0876-.0552-.1854-.114-.29148-.1578-.1382-.061-.29726-.106-.47354-.1406-.0842-.016-.1808-.0322-.27536-.0358-.0576-.01-.1152-.01-.1774-.014-.0542-.006-.113-.006-.1682-.006z"/><path d="m68.887 92.346v2.2766h.87094c.0564 0 .1106 0 .1682-.008.1578-.012.3733-.0346.5853-.091.045-.014.0888-.0264.1268-.0404.1694-.0634.32836-.1464.46084-.2719.098-.099.1636-.20854.20624-.31338.0554-.1336.075-.25578.0796-.3468.008-.083.008-.1256.008-.1256s0-.0404-.002-.099c-.006-.099-.0242-.26154-.1026-.41362-.0392-.0772-.091-.1498-.1624-.22006-.0864-.0794-.1866-.1486-.2961-.197-.2143-.0968-.46086-.1302-.66248-.1418-.091-.008-.174-.008-.2408-.008z"/><path d="m63.893 89.234h13.008v12.246h-13.008zm3.4115 1.7178v8.8184h3.3216s1.6188.0404 2.5105-.84912c.72698-.7293.67514-1.5715.67514-1.5715s.0518-.87446-.621-1.5542c-.57606-.56916-1.3065-.72354-1.3065-.72354s.33066-.152.58414-.41132c.1186-.1198.54264-.50002.54264-1.4263 0-.93784-.62446-1.4782-.62446-1.4782s-.6832-.80418-2.2202-.80418z"/><path d="m53.897 96.004v2.4045h1.5623s.03-.004.0806-.004c.0508-.002.1278-.006.22006-.012.167-.016.38826-.0426.60718-.1198.1948-.0646.38596-.1636.53574-.30992.0542-.0564.098-.1152.1382-.174.1176-.1958.1498-.39056.1578-.50232.004-.046.004-.0748.004-.0748v-.0564c-.004-.0484-.01-.1382-.0312-.23388-.0312-.1164-.0852-.24656-.1832-.36984-.018-.018-.0392-.0426-.06-.0668-.046-.0426-.091-.083-.1394-.1256-.0888-.0552-.1866-.114-.29148-.1578-.1406-.061-.29726-.106-.47238-.1406-.083-.016-.1762-.0322-.27536-.0358-.0552-.01-.1176-.01-.1762-.014-.053-.006-.1128-.006-.1658-.006z"/><path d="m53.897 92.346v2.2766h.8734c.0506 0 .1176 0 .1706-.008.1532-.012.37216-.0346.5853-.091.0426-.014.0806-.0264.1256-.0404.167-.0634.3295-.1464.45394-.2719.1002-.099.1658-.20854.212-.31338.0506-.1336.0738-.25578.0794-.3468.008-.083.008-.1256.008-.1256v-.099c-.008-.099-.0266-.26152-.1048-.4136-.0392-.0772-.0944-.1498-.159-.22006-.0888-.0794-.1924-.1486-.30762-.197-.2097-.0968-.45164-.1302-.66018-.1418-.0864-.008-.167-.008-.23274-.008z"/><path d="m48.904 89.234h13.008v12.246h-13.008zm3.4126 1.7178v8.8184h3.3193s1.6188.0404 2.5128-.84912c.72586-.7293.67286-1.5715.67286-1.5715s.053-.87446-.61986-1.5542c-.5772-.56916-1.3077-.72354-1.3077-.72354s.3318-.152.58528-.41132c.1198-.1198.54496-.50002.54496-1.4263 0-.93784-.62446-1.4782-.62446-1.4782s-.6786-.80418-2.2179-.80418z"/><path d="m50.356 105.76h.93668c1.4056 0 1.9748.57952 1.9874 1.5277.012.84796-.4309 1.6487-1.9874 1.6487h-.93668zm-1.4517-1.2443v10.119h1.4517v-4.3896h.60948c.74428 0 1.3492.23274 2.6879 2.3135l1.3353 2.0762h1.7328c-.69474-.96204-.9482-1.3065-1.3814-2.0013-.76964-1.2639-1.3353-2.1983-2.2513-2.8055 1.0819-.43204 1.6913-1.3054 1.6913-2.4782 0-1.7524-1.2777-2.8342-3.3239-2.8342z"/><path d="m61.477 106.68 1.6337 3.6603h-3.1465zm.53576-2.2282h-1.0289l-4.3459 10.178h1.4828l1.28-2.9806h4.3009l1.3515 2.9806h1.4793z"/><path d="m69.198 105.82h2.2351c2.8389 0 4.1281 1.7236 4.1281 3.7559 0 1.2455-.7558 3.7514-4.0486 3.7514h-2.3146zm-1.454 8.8127h3.9461c3.3389 0 5.369-2.4633 5.369-5.0567 0-2.3907-1.6464-5.0625-5.3839-5.0625h-3.9311z"/></g><path d="m78.63 114.63h1.6637v-10.119h-1.6637z"/><path d="m83.362 109.57c0-2.2282 1.6787-3.8573 3.9345-3.8573 2.2697 0 3.9461 1.6291 3.9461 3.8573 0 2.2063-1.6764 3.8551-3.9461 3.8551-2.2559 0-3.9345-1.6487-3.9345-3.8551m-1.4978 0c0 2.7409 2.0934 5.1904 5.4024 5.1904 3.4253 0 5.4738-2.4656 5.4738-5.1904 0-2.8204-2.105-5.1961-5.4438-5.1961-3.279 0-5.4323 2.3884-5.4323 5.1961" fill-rule="evenodd"/></g><path d="m137.06 111.3c2.1729 0 3.9415-1.7685 3.9415-3.9403 0-2.1775-1.7685-3.9426-3.9415-3.9426-2.1729 0-3.9449 1.7651-3.9449 3.9426 0 2.1718 1.772 3.9403 3.9449 3.9403m14.174 9.3657c-.0276-2.6476-.36638-5.15-.98852-7.437-.35026-1.2823-.79844-2.4898-1.3238-3.5958-1.1878-2.484-2.8008-4.4426-4.7883-5.8667.0714.1394.1544.2696.22466.41248.44242.93668.67862 1.9782.67862 3.0416 0 .1176-.002.2408-.012.36408-.083 1.5761-.64866 3.0739-1.6476 4.3355-.50464.63598-1.1003 1.1832-1.7708 1.6372-1.2616.85258-2.7225 1.3019-4.2214 1.3019-.67746 0-1.3572-.099-2.0335-.29956-3.181-.9482-5.7699-3.8977-8.2792-6.7457l-.27528-.31568c-1.969-2.2386-4.203-4.7791-6.2446-4.8217-.20392-.008-.42054.01-.62216.0588-.66362.1498-1.3077.5611-1.9805 1.2558-.24078.2454-.48966.53458-.7293.85258l-.63022.90212c-.60946.93552-1.5081 2.4875-2.3262 4.5763-.30876.78114-.57836 1.5738-.79958 2.3596-.50578 1.7282-.81226 3.4622-.924 5.1477-.0218.45164-.0438.90788-.0438 1.3538 0 .1152.006.2362.006.35026.016.71316.0634 1.4275.1498 2.1211l.1568 1.0208c.2189 1.2604.57492 2.5036 1.0473 3.6926.29956.74542.65096 1.4897 1.0508 2.2086l.4309.74542c.25346.41478.52422.82032.80418 1.2155.33412.47928.6959.9482 1.0842 1.4102l.86526.97816c.76616.82032 1.6164 1.6199 2.5831 2.4229-.9194-1.6291-2.1614-3.908-2.9149-6.4001-.4355-1.4321-.6521-2.7571-.6521-3.976 0-2.7916 1.1383-5.0083 3.3976-6.6248 1.9874-1.4206 4.1684-1.8307 6.4842-1.2236 2.3388.61178 4.839 2.2651 7.6628 5.0487.82378.818 1.6856 1.7363 2.628 2.8112 1.1452 1.3008 2.2282 2.6153 3.2732 3.8838 1.4655 1.7766 2.8412 3.4518 3.9967 4.5844.3514.33872.66248.61408.95282.83874.45164.35026.82724.55302 1.121.60948.50232.0934 1.0127-.35486 1.2708-.63136.1682-.1808.34102-.3998.515-.65096l.43896-.727.26154-.52076c.25346-.5369.49426-1.1464.71316-1.8112.38482-1.1406.69474-2.4183.93208-3.7905l.182-1.1948c.114-.86526.1994-1.7559.24886-2.6395.0368-.62216.053-1.2535.053-1.878 0-.1278-.006-.25924-.006-.39058" fill="#a7be0f"/><path d="m163.49 118.81c-.1164-17.465-14.369-31.529-31.833-31.413-17.465.1164-31.529 14.369-31.413 31.835.1176 17.464 14.369 31.528 31.833 31.412 7.1398-.0484 13.709-2.4598 18.976-6.4865.1084-.0794.182-.20162.1808-.34564-.001-.23964-.197-.43204-.43666-.43088-.1716.001-.27306.0922-.27306.0922-4.9046 3.7053-10.999 5.9231-17.62 5.9669-16.342.1094-29.678-13.05-29.786-29.392-.1094-16.343 13.05-29.679 29.392-29.788 16.342-.1082 29.678 13.051 29.787 29.393.0218 3.3493-.51384 6.5718-1.5185 9.58h.001c-.016.0484-.0266.099-.0254.152.001.26614.21892.48044.48506.47814.31914-.001.4574-.32144.4574-.32144 1.1832-3.355 1.8181-6.9681 1.7927-10.731" fill="#a7be0f"/><g fill="#fff"><path d="m161.69 143.72c-.78344 0-2.7259-.1832-3.8331-1.8791-.55648-.85258-.727-1.6003-.727-3.2006v-5.6939h1.5785v5.7549c0 1.4056.1912 2.0819.7604 2.6776.5346.56224 1.3238.87102 2.2213.87102 1.7801 0 2.4759-1.159 2.6465-1.5151.1982-.4021.30532-1.1245.30532-2.0335v-5.7549h1.5773v5.6939c0 1.469-.1498 2.2248-.5945 2.9956-.27996.4885-1.3918 2.0842-3.9345 2.0842"/><path d="m174.24 143.59h-6.3852v-10.642h1.5773v9.1998h4.8079v1.2132z"/><path d="m178.1 143.72c-.93208 0-1.901-.33412-2.8031-.96548l-.0968-.068v-2.0485l.39056.39172c.45624.45624 1.3849 1.2201 2.4806 1.2201 1.3664 0 1.666-1.0634 1.666-1.4736 0-.45394 0-1.0185-2.1533-2.0335-1.7317-.8134-2.4713-1.7098-2.4713-2.999 0-1.6983 1.3641-2.9287 3.2444-2.9287 1.2316 0 2.0589.49082 2.4126.69936l.113.068v1.856l-.3664-.27306c-.3848-.28574-1.1844-.88138-2.1752-.88138-1.651 0-1.6694 1.3249-1.6694 1.3388 0 .89406.95626 1.3756 1.7996 1.7985 1.9252.95396 2.8308 1.5888 2.8308 3.2778 0 1.9621-1.6499 3.0209-3.2018 3.0209"/><path d="m187.12 143.59h-1.5773v-9.1987h-3.673v-1.4437h8.9256v1.4436h-3.6753v8.9694z"/><path d="m197.99 143.59h-6.2504v-10.642h6.1317v1.4436h-4.5544v3.1119h4.4196v1.4425h-4.4196v3.2018h4.6731v1.2132z"/><path d="m200.77 137.49h1.083c.7846 0 2.1026-.20278 2.1026-1.56 0-.9897-.74774-1.5347-2.1026-1.5347h-1.083zm6.8886 6.104h-1.9161l-.0668-.1072-.96664-1.5393c-.4286-.6717-.8664-1.2985-1.3031-1.8619-.59796-.76156-1.0934-1.1498-2.1338-1.1498h-.50234v4.6581h-1.5773v-10.642h2.8262c3.3285 0 3.5878 2.2674 3.5878 2.9621 0 1.1464-.5634 2.0393-1.5969 2.5497.63252.5415 1.1901 1.4206 2.2351 3.0624.38134.61062.60372.924 1.007 1.492l.151.21428z"/></g></g></svg>