<?xml version="1.0" encoding="UTF-8" standalone="no"?>
<!-- Created with Inkscape (http://www.inkscape.org/) -->

<svg
   xmlns:dc="http://purl.org/dc/elements/1.1/"
   xmlns:cc="http://creativecommons.org/ns#"
   xmlns:rdf="http://www.w3.org/1999/02/22-rdf-syntax-ns#"
   xmlns:svg="http://www.w3.org/2000/svg"
   xmlns="http://www.w3.org/2000/svg"
   xmlns:sodipodi="http://sodipodi.sourceforge.net/DTD/sodipodi-0.dtd"
   xmlns:inkscape="http://www.inkscape.org/namespaces/inkscape"
   width="89.706253"
   height="67.558746"
   id="svg3309"
   version="1.1"
   inkscape:version="0.48.0 r9654"
   sodipodi:docname="New document 5">
  <defs
     id="defs3311">
    <clipPath
       id="clipPath3015"
       clipPathUnits="userSpaceOnUse">
      <path
         inkscape:connector-curvature="0"
         id="path3017"
         d="m 28.346,28.346 71.765,0 0,54.047 -71.765,0 0,-54.047 z" />
    </clipPath>
  </defs>
  <sodipodi:namedview
     id="base"
     pagecolor="#ffffff"
     bordercolor="#666666"
     borderopacity="1.0"
     inkscape:pageopacity="0.0"
     inkscape:pageshadow="2"
     inkscape:zoom="1.979899"
     inkscape:cx="10.293352"
     inkscape:cy="71.069664"
     inkscape:document-units="px"
     inkscape:current-layer="layer1"
     showgrid="false"
     fit-margin-top="0"
     fit-margin-left="0"
     fit-margin-right="0"
     fit-margin-bottom="0"
     inkscape:window-width="469"
     inkscape:window-height="455"
     inkscape:window-x="87"
     inkscape:window-y="25"
     inkscape:window-maximized="0" />
  <metadata
     id="metadata3314">
    <rdf:RDF>
      <cc:Work
         rdf:about="">
        <dc:format>image/svg+xml</dc:format>
        <dc:type
           rdf:resource="http://purl.org/dc/dcmitype/StillImage" />
        <dc:title></dc:title>
      </cc:Work>
    </rdf:RDF>
  </metadata>
  <g
     inkscape:label="Layer 1"
     inkscape:groupmode="layer"
     id="layer1"
     transform="translate(-69.432589,-312.86852)">
    <path
       id="path3009"
       style="fill:#c0311a;fill-opacity:1;fill-rule:nonzero;stroke:none"
       d="m 69.432589,380.42727 89.706251,0 0,-67.55875 -89.706251,0 0,67.55875 z"
       inkscape:connector-curvature="0" />
    <g
       transform="matrix(1.25,0,0,-1.25,34.000089,415.85977)"
       id="g3011">
      <g
         clip-path="url(#clipPath3015)"
         id="g3013">
        <path
           id="path3019"
           style="fill:#ffffff;fill-opacity:1;fill-rule:nonzero;stroke:none"
           d="m 71.507,72.871 10.982,0 0,-10.334 -10.982,0 0,10.334 z m 6.919,-1.438 c -0.048,0.008 -0.097,0.016 -0.148,0.024 l -0.06,0.008 c -0.084,0.012 -0.169,0.021 -0.254,0.03 -0.06,0.005 -0.118,0.009 -0.175,0.013 -0.105,0.006 -0.208,0.009 -0.306,0.009 -0.046,0 -0.071,-10e-4 -0.116,-0.002 -0.082,-0.001 -0.162,-0.005 -0.244,-0.009 -0.044,-0.003 -0.089,-0.008 -0.133,-0.011 -0.065,-0.006 -0.129,-0.013 -0.194,-0.022 l -0.052,-0.007 -0.06,-0.008 -0.072,-0.011 C 76.58,71.441 76.549,71.436 76.517,71.43 76.473,71.422 76.432,71.414 76.389,71.404 76.128,71.349 75.887,71.276 75.665,71.189 75.55,71.145 75.44,71.097 75.336,71.045 75.247,71.002 75.163,70.959 75.083,70.911 75.005,70.866 74.93,70.821 74.858,70.772 74.816,70.745 74.775,70.717 74.735,70.688 74.701,70.663 74.667,70.638 74.635,70.614 74.565,70.559 74.498,70.505 74.434,70.449 74.376,70.397 74.318,70.344 74.265,70.291 74.219,70.246 74.173,70.199 74.13,70.15 74.086,70.101 74.042,70.051 74,69.999 73.956,69.943 73.91,69.885 73.867,69.826 73.835,69.781 73.805,69.736 73.775,69.69 73.754,69.66 73.734,69.628 73.713,69.596 73.6,69.409 73.5,69.208 73.417,68.995 73.314,68.728 73.24,68.441 73.199,68.136 73.187,68.04 73.176,67.942 73.171,67.843 73.166,67.766 73.163,67.689 73.163,67.61 c 0,-0.059 0.001,-0.117 0.004,-0.174 0.004,-0.06 0.009,-0.12 0.016,-0.178 l 0.004,-0.042 c 0.009,-0.069 0.02,-0.138 0.033,-0.206 0.006,-0.027 0.01,-0.053 0.016,-0.079 0.013,-0.057 0.025,-0.112 0.041,-0.168 0.019,-0.07 0.039,-0.14 0.062,-0.208 0.029,-0.085 0.059,-0.166 0.091,-0.246 0.054,-0.126 0.112,-0.248 0.174,-0.362 0.038,-0.067 0.075,-0.133 0.115,-0.195 0.031,-0.05 0.062,-0.099 0.095,-0.146 0.043,-0.062 0.088,-0.121 0.131,-0.178 0.046,-0.06 0.095,-0.117 0.141,-0.17 0.059,-0.068 0.118,-0.129 0.175,-0.186 l 0.031,-0.03 c 0.047,-0.045 0.098,-0.095 0.157,-0.144 0.041,-0.034 0.081,-0.07 0.127,-0.106 0.041,-0.033 0.086,-0.067 0.132,-0.101 0.055,-0.039 0.114,-0.079 0.176,-0.12 0.065,-0.042 0.135,-0.084 0.208,-0.124 0.145,-0.081 0.305,-0.16 0.481,-0.231 0.065,-0.026 0.133,-0.051 0.205,-0.075 0.069,-0.024 0.14,-0.046 0.215,-0.068 0.126,-0.036 0.258,-0.068 0.398,-0.095 0.113,-0.022 0.23,-0.04 0.351,-0.055 0.12,-0.014 0.243,-0.025 0.372,-0.032 0.064,-0.003 0.127,-0.005 0.192,-0.007 0.029,0 0.06,0 0.089,0 0.231,0 0.445,0.008 0.643,0.025 l 0.038,0.003 c 0.079,0.007 0.155,0.015 0.229,0.025 0.113,0.013 0.222,0.03 0.323,0.049 0.066,0.011 0.128,0.024 0.189,0.037 0.094,0.02 0.185,0.042 0.27,0.065 0.064,0.016 0.125,0.034 0.183,0.053 0.071,0.021 0.139,0.043 0.204,0.065 l 0.062,0.022 c 0.031,0.011 0.073,0.027 0.124,0.046 0.066,0.026 0.146,0.057 0.237,0.096 0.054,0.023 0.113,0.049 0.173,0.077 0.054,0.024 0.109,0.052 0.166,0.08 0.024,0.011 0.047,0.023 0.072,0.035 l 0,1.409 C 80.293,65.96 80.275,65.95 80.259,65.94 l -0.098,-0.059 c -0.096,-0.058 -0.189,-0.113 -0.282,-0.163 -0.102,-0.056 -0.202,-0.107 -0.302,-0.154 -0.174,-0.082 -0.341,-0.151 -0.502,-0.209 -0.307,-0.111 -0.59,-0.181 -0.839,-0.224 -0.029,-0.005 -0.058,-0.01 -0.087,-0.014 -0.068,-0.011 -0.134,-0.02 -0.197,-0.026 -0.099,-0.011 -0.189,-0.017 -0.272,-0.02 -0.053,-0.003 -0.104,-0.004 -0.149,-0.004 -0.101,0 -0.204,0.003 -0.308,0.01 -0.123,0.01 -0.247,0.023 -0.374,0.043 -0.204,0.035 -0.409,0.087 -0.608,0.16 -0.029,0.01 -0.06,0.022 -0.087,0.033 -0.021,0.008 -0.04,0.016 -0.059,0.024 -0.033,0.014 -0.066,0.028 -0.098,0.043 -0.07,0.032 -0.138,0.068 -0.204,0.106 -0.033,0.019 -0.066,0.038 -0.099,0.059 -0.034,0.021 -0.068,0.043 -0.1,0.066 -0.042,0.029 -0.082,0.058 -0.122,0.089 -0.038,0.031 -0.077,0.063 -0.111,0.091 l -0.046,0.042 -0.023,0.022 -0.014,0.012 -0.017,0.018 c -0.063,0.062 -0.121,0.126 -0.174,0.189 -0.03,0.036 -0.057,0.072 -0.084,0.108 -0.026,0.034 -0.05,0.07 -0.073,0.104 -0.021,0.033 -0.041,0.066 -0.061,0.1 -0.029,0.049 -0.055,0.099 -0.08,0.148 -0.021,0.042 -0.041,0.084 -0.058,0.126 -0.03,0.071 -0.056,0.143 -0.077,0.211 -0.018,0.053 -0.032,0.105 -0.044,0.156 -0.039,0.147 -0.057,0.282 -0.068,0.396 -0.003,0.044 -0.006,0.085 -0.008,0.122 -0.004,0.057 -0.004,0.106 -0.004,0.145 0,0.026 0,0.055 0.001,0.089 0.004,0.081 0.01,0.183 0.028,0.299 0.01,0.071 0.024,0.146 0.042,0.226 0.014,0.052 0.028,0.106 0.045,0.161 0.016,0.05 0.034,0.1 0.053,0.152 0.014,0.036 0.028,0.07 0.044,0.105 0.02,0.048 0.043,0.095 0.068,0.144 0.018,0.036 0.039,0.072 0.06,0.109 0.047,0.08 0.098,0.16 0.159,0.239 0.021,0.029 0.043,0.057 0.067,0.085 0.029,0.036 0.06,0.073 0.094,0.108 0.016,0.018 0.033,0.036 0.051,0.054 0.257,0.258 0.548,0.451 0.849,0.588 0.046,0.022 0.094,0.041 0.142,0.059 0.047,0.02 0.094,0.036 0.143,0.053 0.051,0.017 0.105,0.033 0.157,0.048 0.049,0.014 0.099,0.026 0.149,0.038 0.049,0.011 0.1,0.021 0.149,0.031 0.054,0.009 0.109,0.018 0.162,0.025 0.055,0.007 0.11,0.013 0.162,0.017 0.103,0.009 0.204,0.013 0.303,0.013 0.032,0 0.064,0.001 0.097,0 0.073,-0.002 0.145,-0.004 0.214,-0.009 0.05,-0.003 0.096,-0.006 0.142,-0.011 0.09,-0.008 0.175,-0.018 0.255,-0.032 0.074,-0.01 0.143,-0.023 0.21,-0.035 0.101,-0.021 0.194,-0.044 0.276,-0.065 0.054,-0.014 0.104,-0.029 0.148,-0.042 0.069,-0.02 0.128,-0.038 0.173,-0.054 0.078,-0.028 0.121,-0.043 0.121,-0.043 0.069,-0.025 0.137,-0.052 0.204,-0.078 0.09,-0.036 0.175,-0.076 0.257,-0.113 0.068,-0.03 0.133,-0.062 0.194,-0.093 0.05,-0.024 0.097,-0.048 0.141,-0.071 0.077,-0.04 0.142,-0.076 0.196,-0.105 l 0.143,-0.078 0,1.384 c 0,0 -0.086,0.035 -0.235,0.092 -0.066,0.024 -0.144,0.054 -0.232,0.085 -0.05,0.018 -0.101,0.036 -0.156,0.056 -0.044,0.014 -0.089,0.03 -0.136,0.045 -0.053,0.017 -0.108,0.035 -0.164,0.052 -0.04,0.012 -0.082,0.025 -0.125,0.037 l -0.037,0.011 c -0.041,0.011 -0.083,0.023 -0.125,0.034 -0.051,0.014 -0.102,0.027 -0.154,0.04 -0.033,0.008 -0.065,0.016 -0.1,0.024 -0.054,0.012 -0.109,0.025 -0.165,0.036 -0.057,0.012 -0.116,0.022 -0.174,0.033"
           inkscape:connector-curvature="0" />
        <g
           transform="translate(63.0681,67.172195)"
           id="g3021">
          <path
             id="path3023"
             style="fill:#ffffff;fill-opacity:1;fill-rule:nonzero;stroke:none"
             d="m 0,0 0,-2.031 1.319,0 c 0,0 0.026,0.001 0.069,0.002 0.045,10e-4 0.108,0.004 0.183,0.011 0.144,0.013 0.332,0.039 0.515,0.101 0.166,0.056 0.327,0.139 0.449,0.263 0.048,0.047 0.088,0.096 0.119,0.146 0.104,0.163 0.13,0.329 0.134,0.423 0.005,0.04 0.004,0.064 0.004,0.064 0,0 0.001,0.018 0,0.05 -10e-4,0.039 -0.006,0.115 -0.027,0.197 -0.025,0.096 -0.071,0.208 -0.154,0.31 -0.016,0.019 -0.033,0.038 -0.05,0.057 -0.037,0.036 -0.076,0.071 -0.12,0.103 -0.071,0.053 -0.154,0.099 -0.244,0.137 -0.118,0.052 -0.25,0.09 -0.396,0.117 -0.075,0.014 -0.154,0.026 -0.235,0.034 -0.049,0.004 -0.1,0.008 -0.152,0.01 -0.045,0.003 -0.093,0.005 -0.14,0.005 C 0.807,-0.001 0,0 0,0"
             inkscape:connector-curvature="0" />
        </g>
        <g
           transform="translate(63.0681,70.259399)"
           id="g3025">
          <path
             id="path3027"
             style="fill:#ffffff;fill-opacity:1;fill-rule:nonzero;stroke:none"
             d="m 0,0 0,-1.925 0.639,0 c 0,0 0.042,0 0.098,0.001 0.045,0.003 0.097,0.005 0.144,0.007 0.132,0.01 0.313,0.028 0.494,0.079 0.036,0.01 0.072,0.021 0.107,0.034 0.143,0.05 0.279,0.124 0.385,0.229 0.085,0.083 0.14,0.176 0.177,0.265 0.045,0.111 0.062,0.216 0.068,0.29 0.005,0.067 0.005,0.11 0.005,0.11 0,0 10e-4,0.032 -10e-4,0.082 -0.004,0.083 -0.021,0.22 -0.088,0.351 -0.032,0.063 -0.075,0.123 -0.135,0.182 -0.072,0.071 -0.159,0.125 -0.252,0.166 -0.18,0.08 -0.386,0.112 -0.56,0.123 C 1.007,-0.001 0.938,0 0.879,0 L 0,0 z"
             inkscape:connector-curvature="0" />
        </g>
        <path
           id="path3029"
           style="fill:#ffffff;fill-opacity:1;fill-rule:nonzero;stroke:none"
           d="m 58.854,72.871 10.982,0 0,-10.334 -10.982,0 0,10.334 z m 2.882,-1.449 0,-7.443 2.801,0 c 0,0 1.366,-0.038 2.121,0.717 0.613,0.613 0.57,1.324 0.57,1.324 0,0 0.043,0.742 -0.525,1.31 -0.484,0.485 -1.102,0.614 -1.102,0.614 0,0 0.278,0.131 0.493,0.345 0.101,0.101 0.459,0.424 0.459,1.208 0,0.79 -0.526,1.244 -0.526,1.244 0,0 -0.576,0.681 -1.876,0.681 l -2.415,0 z"
           inkscape:connector-curvature="0" />
        <g
           transform="translate(50.414795,67.172195)"
           id="g3031">
          <path
             id="path3033"
             style="fill:#ffffff;fill-opacity:1;fill-rule:nonzero;stroke:none"
             d="m 0,0 0,-2.031 1.318,0 c 0,0 0.027,0.001 0.07,0.002 0.045,10e-4 0.107,0.004 0.183,0.011 0.144,0.013 0.332,0.039 0.515,0.101 0.166,0.056 0.326,0.139 0.45,0.263 0.047,0.047 0.086,0.096 0.118,0.146 0.104,0.163 0.129,0.329 0.135,0.423 0.003,0.04 0.003,0.064 0.003,0.064 0,0 0,0.018 0,0.05 C 2.79,-0.932 2.785,-0.856 2.765,-0.774 2.741,-0.678 2.694,-0.566 2.611,-0.464 2.596,-0.445 2.579,-0.426 2.559,-0.407 2.523,-0.371 2.485,-0.336 2.442,-0.304 2.369,-0.251 2.286,-0.205 2.198,-0.167 2.079,-0.115 1.945,-0.077 1.8,-0.05 1.726,-0.036 1.646,-0.024 1.566,-0.016 1.516,-0.012 1.465,-0.008 1.414,-0.006 1.369,-0.003 1.321,-0.001 1.275,-0.001 0.806,-0.001 0,0 0,0"
             inkscape:connector-curvature="0" />
        </g>
        <g
           transform="translate(50.414795,70.259399)"
           id="g3035">
          <path
             id="path3037"
             style="fill:#ffffff;fill-opacity:1;fill-rule:nonzero;stroke:none"
             d="m 0,0 0,-1.925 0.638,0 c 0,0 0.043,0 0.099,0.001 0.045,0.003 0.097,0.005 0.144,0.007 0.131,0.01 0.313,0.028 0.495,0.079 0.035,0.01 0.071,0.021 0.105,0.034 0.143,0.05 0.28,0.124 0.386,0.229 0.084,0.083 0.14,0.176 0.178,0.265 0.044,0.111 0.06,0.216 0.067,0.29 0.006,0.067 0.005,0.11 0.005,0.11 0,0 0.002,0.032 -10e-4,0.082 -0.004,0.083 -0.022,0.22 -0.088,0.351 -0.032,0.063 -0.076,0.123 -0.135,0.182 -0.072,0.071 -0.159,0.125 -0.252,0.166 -0.18,0.08 -0.386,0.112 -0.559,0.123 C 1.007,-0.001 0.937,0 0.88,0 L 0,0 z"
             inkscape:connector-curvature="0" />
        </g>
        <path
           id="path3039"
           style="fill:#ffffff;fill-opacity:1;fill-rule:nonzero;stroke:none"
           d="m 46.201,72.871 10.982,0 0,-10.334 -10.982,0 0,10.334 z m 2.881,-1.449 0,-7.443 2.801,0 c 0,0 1.367,-0.038 2.121,0.717 0.614,0.613 0.57,1.324 0.57,1.324 0,0 0.044,0.742 -0.524,1.31 -0.485,0.485 -1.104,0.614 -1.104,0.614 0,0 0.28,0.131 0.495,0.345 0.1,0.101 0.458,0.424 0.458,1.208 0,0.79 -0.526,1.244 -0.526,1.244 0,0 -0.576,0.681 -1.876,0.681 l -2.415,0 z"
           inkscape:connector-curvature="0" />
        <g
           transform="translate(50.135101,49.767197)"
           id="g3041">
          <path
             id="path3043"
             style="fill:#ffffff;fill-opacity:1;fill-rule:nonzero;stroke:none"
             d="M 0,0 -0.258,0 -3.296,7.569 -6.362,0 -6.62,0 l -3.744,9.333 1.33,0 2.55,-6.376 2.564,6.376 1.261,0 2.578,-6.376 2.523,6.376 1.316,0 L 0,0 z"
             inkscape:connector-curvature="0" />
        </g>
        <g
           transform="translate(58.941406,50.9478)"
           id="g3045">
          <path
             id="path3047"
             style="fill:#ffffff;fill-opacity:1;fill-rule:nonzero;stroke:none"
             d="M 0,0 C 2.075,0 3.608,1.505 3.608,3.527 3.608,5.561 2.075,7.053 0,7.053 -2.062,7.053 -3.595,5.561 -3.595,3.527 -3.595,1.505 -2.062,0 0,0 m 0,8.274 c 3.052,0 4.978,-2.17 4.978,-4.747 0,-2.497 -1.872,-4.748 -5.005,-4.748 -3.025,0 -4.938,2.238 -4.938,4.748 0,2.563 1.967,4.747 4.965,4.747"
             inkscape:connector-curvature="0" />
        </g>
        <g
           transform="translate(66.9039,55.057602)"
           id="g3049">
          <path
             id="path3051"
             style="fill:#ffffff;fill-opacity:1;fill-rule:nonzero;stroke:none"
             d="M 0,0 0.855,0 C 2.279,0 2.686,0.732 2.673,1.506 2.659,2.374 2.143,2.903 0.855,2.903 L 0,2.903 0,0 z m 1.004,4.042 c 1.872,0 3.039,-0.99 3.039,-2.591 0,-1.071 -0.557,-1.872 -1.547,-2.265 0.841,-0.556 1.356,-1.411 2.062,-2.564 0.393,-0.637 0.624,-0.949 1.262,-1.831 l -1.588,0 -1.221,1.899 c -1.22,1.899 -1.776,2.116 -2.455,2.116 l -0.556,0 0,-4.015 -1.329,0 0,9.251 2.333,0 z"
             inkscape:connector-curvature="0" />
        </g>
        <g
           transform="translate(75.056702,51.042404)"
           id="g3053">
          <path
             id="path3055"
             style="fill:#ffffff;fill-opacity:1;fill-rule:nonzero;stroke:none"
             d="m 0,0 4.178,0 0,-1.194 -5.508,0 0,9.252 1.33,0 L 0,0 z"
             inkscape:connector-curvature="0" />
        </g>
        <g
           transform="translate(81.730194,51.042404)"
           id="g3057">
          <path
             id="path3059"
             style="fill:#ffffff;fill-opacity:1;fill-rule:nonzero;stroke:none"
             d="m 0,0 2.116,0 c 3.011,0 3.703,2.292 3.703,3.432 0,1.858 -1.18,3.432 -3.771,3.432 L 0,6.864 0,0 z m -1.33,8.058 3.595,0 c 3.419,0 4.924,-2.442 4.924,-4.626 0,-2.374 -1.858,-4.626 -4.91,-4.626 l -3.609,0 0,9.252 z"
             inkscape:connector-curvature="0" />
        </g>
        <g
           transform="translate(45.895996,45.317306)"
           id="g3061">
          <path
             id="path3063"
             style="fill:#ffffff;fill-opacity:1;fill-rule:nonzero;stroke:none"
             d="m 0,0 c -0.787,0.746 -1.546,0.963 -2.17,0.963 -0.855,0 -1.465,-0.447 -1.465,-1.099 0,-1.777 4.001,-1.75 4.001,-4.693 0,-1.452 -1.098,-2.51 -2.591,-2.51 -1.003,0 -1.817,0.272 -2.591,0.855 l 0,1.682 c 0.679,-0.868 1.533,-1.343 2.442,-1.343 1.031,0 1.506,0.651 1.506,1.166 0,1.913 -4.002,2.13 -4.002,4.667 0,1.506 1.112,2.469 2.808,2.469 0.705,0 1.411,-0.217 2.062,-0.651 L 0,0 z"
             inkscape:connector-curvature="0" />
        </g>
        <g
           transform="translate(52.963104,46.1586)"
           id="g3065">
          <path
             id="path3067"
             style="fill:#ffffff;fill-opacity:1;fill-rule:nonzero;stroke:none"
             d="m 0,0 -3.92,0 0,-2.795 3.784,0 0,-1.193 -3.784,0 0,-2.876 4.042,0 0,-1.194 -5.372,0 0,9.252 5.25,0 L 0,0 z"
             inkscape:connector-curvature="0" />
        </g>
        <g
           transform="translate(55.852493,43.309906)"
           id="g3069">
          <path
             id="path3071"
             style="fill:#ffffff;fill-opacity:1;fill-rule:nonzero;stroke:none"
             d="M 0,0 0.855,0 C 2.279,0 2.686,0.732 2.672,1.505 2.659,2.374 2.143,2.903 0.855,2.903 L 0,2.903 0,0 z m 1.004,4.042 c 1.872,0 3.038,-0.99 3.038,-2.591 0,-1.071 -0.556,-1.872 -1.546,-2.265 0.841,-0.557 1.356,-1.411 2.062,-2.564 0.393,-0.637 0.624,-0.95 1.261,-1.831 l -1.587,0 -1.221,1.899 c -1.22,1.899 -1.777,2.116 -2.455,2.116 l -0.556,0 0,-4.015 -1.329,0 0,9.251 2.333,0 z"
             inkscape:connector-curvature="0" />
        </g>
        <g
           transform="translate(64.861893,38.019302)"
           id="g3073">
          <path
             id="path3075"
             style="fill:#ffffff;fill-opacity:1;fill-rule:nonzero;stroke:none"
             d="m 0,0 -0.272,0 -4.001,9.333 1.329,0 2.781,-6.498 2.767,6.498 1.316,0 L 0,0 z"
             inkscape:connector-curvature="0" />
        </g>
        <path
           id="path3077"
           style="fill:#ffffff;fill-opacity:1;fill-rule:nonzero;stroke:none"
           d="m 71.142,38.101 -1.329,0 0,9.252 1.329,0 0,-9.252 z"
           inkscape:connector-curvature="0" />
        <g
           transform="translate(81.071594,45.289902)"
           id="g3079">
          <path
             id="path3081"
             style="fill:#ffffff;fill-opacity:1;fill-rule:nonzero;stroke:none"
             d="m 0,0 c -1.139,0.665 -2.116,0.963 -3.188,0.963 -2.116,0 -3.689,-1.505 -3.689,-3.54 0,-2.076 1.519,-3.513 3.743,-3.513 1.045,0 2.185,0.366 3.229,1.044 l 0,-1.452 c -0.909,-0.475 -1.899,-0.813 -3.35,-0.813 -3.473,0 -4.992,2.672 -4.992,4.612 0,2.821 2.129,4.883 5.073,4.883 0.949,0 1.912,-0.23 3.174,-0.759 L 0,0 z"
             inkscape:connector-curvature="0" />
        </g>
        <g
           transform="translate(88.0439,46.1586)"
           id="g3083">
          <path
             id="path3085"
             style="fill:#ffffff;fill-opacity:1;fill-rule:nonzero;stroke:none"
             d="m 0,0 -3.92,0 0,-2.795 3.784,0 0,-1.193 -3.784,0 0,-2.876 4.042,0 0,-1.194 -5.372,0 0,9.252 5.25,0 L 0,0 z"
             inkscape:connector-curvature="0" />
        </g>
      </g>
    </g>
  </g>
</svg>
