<svg height="130.6046" width="300" xmlns="http://www.w3.org/2000/svg" xmlns:xlink="http://www.w3.org/1999/xlink"><clipPath id="a"><path d="m28.347656 105.53516h66.613282v-29.000004h-66.613282z"/></clipPath><linearGradient id="b" gradientTransform="matrix(-34.381424 30.634781 -30.634781 -34.381424 73.659821 81.141189)" gradientUnits="userSpaceOnUse" x1="-.411874" x2="1.087076" y1="0" y2="0"><stop offset=".25" stop-color="#e33231"/><stop offset=".274775" stop-color="#e33231"/><stop offset=".28125" stop-color="#e33231"/><stop offset=".28906301" stop-color="#e23131"/><stop offset=".296875" stop-color="#e13131"/><stop offset=".30468801" stop-color="#e13131"/><stop offset=".3125" stop-color="#e03130"/><stop offset=".32031301" stop-color="#df3030"/><stop offset=".328125" stop-color="#de3030"/><stop offset=".33593801" stop-color="#de3030"/><stop offset=".34375" stop-color="#dd2f30"/><stop offset=".35156301" stop-color="#dc2f30"/><stop offset=".359375" stop-color="#db2f30"/><stop offset=".36718801" stop-color="#db2f30"/><stop offset=".375" stop-color="#db2e30"/><stop offset=".38281301" stop-color="#da2e30"/><stop offset=".390625" stop-color="#d92d2f"/><stop offset=".39843801" stop-color="#d92d2f"/><stop offset=".40625" stop-color="#d82d2f"/><stop offset=".421875" stop-color="#d82d2f"/><stop offset=".42968801" stop-color="#d72c2f"/><stop offset=".4375" stop-color="#d62c2f"/><stop offset=".453125" stop-color="#d62c2f"/><stop offset=".46093801" stop-color="#d52b2f"/><stop offset=".46875" stop-color="#d42b2f"/><stop offset=".484375" stop-color="#d32b2f"/><stop offset=".49218801" stop-color="#d32a2f"/><stop offset=".5" stop-color="#d22a2f"/><stop offset=".515625" stop-color="#d1292e"/><stop offset=".52343798" stop-color="#d1292e"/><stop offset=".53125" stop-color="#d0292e"/><stop offset=".546875" stop-color="#cf282e"/><stop offset=".55468798" stop-color="#cf282e"/><stop offset=".5625" stop-color="#ce282e"/><stop offset=".578125" stop-color="#cd272e"/><stop offset=".58593798" stop-color="#cd272e"/><stop offset=".59375" stop-color="#cc272e"/><stop offset=".609375" stop-color="#cb262e"/><stop offset=".61718798" stop-color="#cb262e"/><stop offset=".625" stop-color="#ca262d"/><stop offset=".63281298" stop-color="#ca262d"/><stop offset=".640625" stop-color="#c9252d"/><stop offset=".65625" stop-color="#c8252d"/><stop offset=".66406298" stop-color="#c8252d"/><stop offset=".671875" stop-color="#c7242d"/><stop offset=".6875" stop-color="#c6242d"/><stop offset=".69531298" stop-color="#c6242d"/><stop offset=".703125" stop-color="#c5232d"/><stop offset=".71875" stop-color="#c4232d"/><stop offset=".72656298" stop-color="#c4232d"/><stop offset=".734375" stop-color="#c3222c"/><stop offset=".75" stop-color="#c2222c"/><stop offset=".75781298" stop-color="#c2222c"/><stop offset=".765625" stop-color="#c1222c"/><stop offset=".78125" stop-color="#c0212c"/><stop offset=".78906298" stop-color="#c0212c"/><stop offset=".796875" stop-color="#bf212c"/><stop offset=".8125" stop-color="#be202c"/><stop offset=".82031298" stop-color="#be202c"/><stop offset=".828125" stop-color="#bd202c"/><stop offset=".84375" stop-color="#bc1f2b"/><stop offset=".85156298" stop-color="#bc1f2b"/><stop offset=".859375" stop-color="#bb1f2b"/><stop offset=".875" stop-color="#ba1e2b"/><stop offset=".88281298" stop-color="#ba1e2b"/><stop offset=".890625" stop-color="#b91e2b"/><stop offset=".90625" stop-color="#b91d2b"/><stop offset=".91406298" stop-color="#b81d2b"/><stop offset=".921875" stop-color="#b71d2b"/><stop offset=".9375" stop-color="#b71c2a"/><stop offset="1" stop-color="#b61c2a"/></linearGradient><clipPath id="c"><path d="m28.347656 105.57813h66.613282v-29.042974h-66.613282z"/></clipPath><g transform="matrix(4.5036064 0 0 4.5036064 -127.66668 -344.684217)"><g clip-path="url(#a)"><path d="m109.36328 92.699219-43.882811-49.25-51.539063 45.921875 43.886719 49.249996z" fill="url(#b)"/></g><path d="m61.019531 98.335938h.554688v-14.601563h-.554688z" fill="#fff"/><g clip-path="url(#c)" fill="#fff"><path d="m65.230469 86.550781c0-.476562 0-.65625-.03516-.96875h.535156v.832032h.01563c.195312-.484375.5625-.933594 1.113281-.933594.128906 0 .28125.02734.375.05078v.5625c-.109375-.03516-.253906-.05078-.390625-.05078-.851562 0-1.078125.949219-1.078125 1.730469v2.140625h-.535156z"/><path d="m70.496094 87.730469h-.15625c-.921875 0-2.027344.09375-2.027344 1.046875 0 .566406.40625.78125.898438.78125 1.257812 0 1.285156-1.097656 1.285156-1.566406zm.05078 1.488281h-.01953c-.238281.515625-.839844.796875-1.375.796875-1.230469 0-1.425781-.832031-1.425781-1.222656 0-1.453125 1.546875-1.519531 2.664062-1.519531h.105469v-.222657c0-.738281-.265625-1.113281-.988281-1.113281-.449219 0-.875.105469-1.273438.359375v-.519531c.332031-.160156.894531-.296875 1.273438-.296875 1.070312 0 1.519531.484375 1.519531 1.613281v1.910156c0 .347657 0 .613282.04687.910157h-.527344z"/><path d="m73.917969 89.558594c.949219 0 1.28125-1.019531 1.28125-1.8125 0-.789063-.332031-1.808594-1.28125-1.808594-1.019531 0-1.285156.96875-1.285156 1.808594 0 .84375.265625 1.8125 1.285156 1.8125m1.816406.355469h-.535156v-.6875h-.01953c-.285157.550781-.726563.789062-1.347657.789062-1.1875 0-1.785156-.984375-1.785156-2.269531 0-1.316406.511719-2.265625 1.785156-2.265625.847657 0 1.273438.621094 1.347657.832031h.01953v-2.765625h.535156z"/><path d="m77.023438 85.582031h.535156v4.332032h-.535156zm.535156-1.152343h-.535156v-.714844h.535156z"/><path d="m80.429688 89.558594c.933593 0 1.433593-.808594 1.433593-1.8125 0-1-.5-1.808594-1.433593-1.808594-.933594 0-1.4375.808594-1.4375 1.808594 0 1.003906.503906 1.8125 1.4375 1.8125m0-4.078125c1.398437 0 2.019531 1.085937 2.019531 2.265625 0 1.183594-.621094 2.269531-2.019531 2.269531-1.402344 0-2.019532-1.085937-2.019532-2.269531 0-1.179688.617188-2.265625 2.019532-2.265625"/><path d="m49.199219 92.015625c.0039-.546875-.363281-.964844-.945313-1.125.15625-.08203.28125-.179687.375-.296875.121094-.164062.179688-.359375.179688-.589844 0-.28125-.113281-.570312-.351563-.785156-.238281-.214844-.601562-.355469-1.09375-.355469h-1.367187v4.34375h1.605469c.570312 0 .972656-.15625 1.230468-.386718.257813-.226563.367188-.527344.367188-.804688m1.523437 2.03125h-6.40625v-6.027344h6.40625z"/><path d="m48.402344 91.929688c0 .140625-.04297.285156-.171875.398437-.128906.113281-.351563.199219-.71875.199219h-.738281v-1.183594h.707031c.328125 0 .5625.06641.710937.167969.144532.105469.210938.246094.210938.417969"/><path d="m47.804688 90.507813c.136718-.09766.203125-.238282.203125-.445313 0-.148437-.03906-.269531-.144532-.363281-.101562-.08984-.28125-.15625-.566406-.15625h-.523437v1.121094h.359375c.308593 0 .53125-.05469.671875-.15625"/><path d="m41.820313 92.015625c0-.546875-.363282-.964844-.949219-1.125.160156-.08203.28125-.179687.375-.296875.121094-.164062.179687-.359375.179687-.589844 0-.28125-.113281-.570312-.351562-.785156-.234375-.214844-.597656-.355469-1.09375-.355469h-1.363281v4.34375h1.601562c.570313 0 .972656-.15625 1.230469-.386718.261719-.226563.371094-.527344.371094-.804688m1.519531 2.03125h-6.40625v-6.027344h6.40625z"/><path d="m40.421875 90.507813c.140625-.097657.203125-.238282.207031-.445313 0-.148437-.04297-.269531-.144531-.363281-.105469-.08984-.285156-.15625-.570312-.15625h-.519532v1.121094h.359375c.308594 0 .53125-.05469.667969-.15625"/><path d="m40.808594 91.511719c-.148438-.105469-.378906-.167969-.710938-.167969h-.703125v1.183594h.738282c.367187 0 .589843-.08594.714843-.199219.128907-.113281.175782-.257812.175782-.398437-.0039-.175782-.06641-.3125-.214844-.417969"/><path d="m56.832031 92.042969-.105468.0625c-.492188.304687-1.035157.464844-1.523438.464844-1.046875-.0039-1.742187-.625-1.746094-1.53125.003907-.882813.726563-1.539063 1.71875-1.539063.507813 0 .964844.128906 1.507813.429688l.101562.05078v-.804688l-.04297-.01563c-.617188-.242187-1.089844-.351562-1.5625-.351562-.722657 0-1.355469.238281-1.804688.644531-.445312.410156-.710937.984375-.710937 1.644531 0 .457032.1875.996094.59375 1.425782.40625.429687 1.027343.738281 1.886718.738281h.0039c.707031 0 1.199218-.15625 1.644531-.378906l.03906-.01563zm1.269532 2.003906h-6.40625v-6.027344h6.40625z"/><path d="m64.316406 92.566406h1.203125l.96875 3.234375h.01953l.882812-3.234375h1.324219l.949219 3.234375h.01953l.90625-3.234375h1.085937l-1.339843 4.371094h-1.339844l-.953125-3.335937h-.01563l-.933594 3.335937h-1.300781z"/><path d="m73.664063 96.207031c.347656 0 .621093-.152343.796875-.390625.1875-.246093.238281-.558593.238281-.898437h-.492188c-.507812 0-1.261718.08594-1.261718.753906 0 .375.3125.535156.71875.535156m-1.332032-3.410156c.441407-.207031 1.035157-.332031 1.519532-.332031 1.335937 0 1.886718.550781 1.886718 1.839844v.5625c0 .441406.0078.773437.01563 1.09375.0078.332031.02734.636718.05078.976562h-1c-.042972-.226562-.042972-.515625-.054691-.652344h-.01563c-.261719.484375-.832031.753907-1.347656.753907-.773438 0-1.53125-.464844-1.53125-1.300782 0-.652343.316406-1.03125.75-1.246093.429687-.210938.992187-.253907 1.46875-.253907h.625c0-.703125-.3125-.941406-.984375-.941406-.484375 0-.96875.1875-1.347656.472656z"/><path d="m76.597656 90.953125h1.136719v5.984375h-1.136719z"/><path d="m81.433594 94.324219c-.03516-.554688-.289063-1.027344-.925781-1.027344-.636719 0-.960938.441406-1.011719 1.027344zm.761719 2.367187c-.414063.230469-.890625.347657-1.5.347657-1.445313 0-2.285157-.832032-2.285157-2.265625 0-1.265625.671875-2.308594 2.03125-2.308594 1.621094 0 2.078125 1.113281 2.078125 2.640625h-3.023437c.05078.703125.542969 1.101562 1.25 1.101562.550781 0 1.027344-.203125 1.449219-.441406z"/><path d="m85.992188 93.484375c-.351563-.121094-.605469-.1875-1.019532-.1875-.304687 0-.671875.109375-.671875.484375 0 .695313 1.980469.253906 1.980469 1.832031 0 1.019532-.910156 1.429688-1.835937 1.429688-.433594 0-.875-.07813-1.289063-.191406l.06641-.929688c.359375.175781.730469.285156 1.121094.285156.289063 0 .746094-.109375.746094-.53125 0-.859375-1.976563-.273437-1.976563-1.855468 0-.941407.824219-1.355469 1.714844-1.355469.535156 0 .882813.08594 1.238281.160156z"/></g></g></svg>