<svg height="68.869476" width="231.09549" xmlns="http://www.w3.org/2000/svg" xmlns:xlink="http://www.w3.org/1999/xlink"><linearGradient id="a" gradientTransform="matrix(49.780243 -31.416855 31.416855 49.780243 117.72578 115.56679)" gradientUnits="userSpaceOnUse" x1="38.788548" x2="134.34386" y1="65.448006" y2="65.448006"><stop offset="0" stop-color="#007bc1"/><stop offset=".015625" stop-color="#007bc1"/><stop offset=".0234375" stop-color="#007bc2"/><stop offset=".03125" stop-color="#007cc2"/><stop offset=".046875" stop-color="#007dc3"/><stop offset=".0546875" stop-color="#007dc3"/><stop offset=".0585938" stop-color="#007ec3"/><stop offset=".0625" stop-color="#007ec4"/><stop offset=".078125" stop-color="#007fc4"/><stop offset=".09375" stop-color="#007fc4"/><stop offset=".101563" stop-color="#0080c5"/><stop offset=".109375" stop-color="#0081c6"/><stop offset=".125" stop-color="#0081c6"/><stop offset=".128906" stop-color="#0082c7"/><stop offset=".13281301" stop-color="#0083c7"/><stop offset=".140625" stop-color="#0083c7"/><stop offset=".15625" stop-color="#0083c7"/><stop offset=".16406301" stop-color="#0084c8"/><stop offset=".171875" stop-color="#0085c9"/><stop offset=".17968801" stop-color="#0085c9"/><stop offset=".1875" stop-color="#0086c9"/><stop offset=".203125" stop-color="#0087ca"/><stop offset=".21093801" stop-color="#0087ca"/><stop offset=".214844" stop-color="#0088ca"/><stop offset=".21875" stop-color="#0088cb"/><stop offset=".234375" stop-color="#0089cb"/><stop offset=".24218801" stop-color="#0089cb"/><stop offset=".25" stop-color="#008acc"/><stop offset=".25781301" stop-color="#008acc"/><stop offset=".265625" stop-color="#008bcd"/><stop offset=".27343801" stop-color="#008ccd"/><stop offset=".28125" stop-color="#008ccd"/><stop offset=".28906301" stop-color="#008dce"/><stop offset=".296875" stop-color="#008dce"/><stop offset=".30468801" stop-color="#008ece"/><stop offset=".3125" stop-color="#008fcf"/><stop offset=".32031301" stop-color="#008fcf"/><stop offset=".328125" stop-color="#008fd0"/><stop offset=".33203101" stop-color="#0090d0"/><stop offset=".33593801" stop-color="#0090d1"/><stop offset=".34375" stop-color="#0091d1"/><stop offset=".359375" stop-color="#0091d1"/><stop offset=".36718801" stop-color="#0092d2"/><stop offset=".375" stop-color="#0092d2"/><stop offset=".38281301" stop-color="#0093d2"/><stop offset=".390625" stop-color="#0094d3"/><stop offset=".39843801" stop-color="#0094d3"/><stop offset=".40625" stop-color="#0095d4"/><stop offset=".41406301" stop-color="#0095d4"/><stop offset=".421875" stop-color="#0096d4"/><stop offset=".42968801" stop-color="#0097d5"/><stop offset=".4375" stop-color="#0097d5"/><stop offset=".44531301" stop-color="#0098d5"/><stop offset=".453125" stop-color="#0098d5"/><stop offset=".46093801" stop-color="#0099d6"/><stop offset=".46875" stop-color="#009ad7"/><stop offset=".484375" stop-color="#009ad7"/><stop offset=".48828101" stop-color="#009bd7"/><stop offset=".49218801" stop-color="#009bd8"/><stop offset=".5" stop-color="#009cd8"/><stop offset=".50390601" stop-color="#029cd9"/><stop offset=".50781298" stop-color="#039cd9"/><stop offset=".51171899" stop-color="#059cd9"/><stop offset=".515625" stop-color="#069cd9"/><stop offset=".51953101" stop-color="#089dd9"/><stop offset=".52343798" stop-color="#099dd9"/><stop offset=".52734399" stop-color="#0a9dd9"/><stop offset=".53125" stop-color="#0a9eda"/><stop offset=".53515601" stop-color="#0b9eda"/><stop offset=".53906298" stop-color="#0c9eda"/><stop offset=".54296899" stop-color="#0e9fda"/><stop offset=".546875" stop-color="#0e9fda"/><stop offset=".55078101" stop-color="#0f9fda"/><stop offset=".55468798" stop-color="#0f9fda"/><stop offset=".5625" stop-color="#10a0db"/><stop offset=".56640601" stop-color="#11a0db"/><stop offset=".57031298" stop-color="#14a1dc"/><stop offset=".57421899" stop-color="#15a1dc"/><stop offset=".578125" stop-color="#16a1dc"/><stop offset=".58203101" stop-color="#17a2dc"/><stop offset=".58593798" stop-color="#18a2dc"/><stop offset=".59375" stop-color="#18a2dc"/><stop offset=".60156298" stop-color="#19a3dd"/><stop offset=".60546899" stop-color="#1aa3dd"/><stop offset=".609375" stop-color="#1ba4dd"/><stop offset=".61328101" stop-color="#1ca4dd"/><stop offset=".61718798" stop-color="#1ca4dd"/><stop offset=".625" stop-color="#1da5de"/><stop offset=".62890601" stop-color="#1da5de"/><stop offset=".63281298" stop-color="#1ea5de"/><stop offset=".63671899" stop-color="#1ea6df"/><stop offset=".640625" stop-color="#1fa6df"/><stop offset=".64843798" stop-color="#1fa6df"/><stop offset=".65234399" stop-color="#20a7e0"/><stop offset=".65625" stop-color="#21a7e0"/><stop offset=".66015601" stop-color="#22a8e0"/><stop offset=".66406298" stop-color="#23a8e0"/><stop offset=".66796899" stop-color="#23a8e0"/><stop offset=".671875" stop-color="#24a8e0"/><stop offset=".67578101" stop-color="#25a9e1"/><stop offset=".67968798" stop-color="#25a9e1"/><stop offset=".68359399" stop-color="#26a9e1"/><stop offset=".6875" stop-color="#28aae2"/><stop offset=".69140601" stop-color="#28aae2"/><stop offset=".69531298" stop-color="#29aae2"/><stop offset=".703125" stop-color="#29aae2"/><stop offset=".71875" stop-color="#29aae2"/><stop offset=".75" stop-color="#29aae2"/><stop offset="1" stop-color="#29aae2"/></linearGradient><g fill="#fff"><path d="m108.71349 66.75854h2.51556v-65.896573h-2.51556z"/><path d="m127.72957 13.562803c0-2.146127 0-2.937729-.15852-4.362614h2.41001v3.764511h.0878c.87955-2.198896 2.53313-4.221884 5.01348-4.221884.58053 0 1.26656.105559 1.68875.22868v2.533131c-.49253-.158338-1.1434-.22868-1.75909-.22868-3.83491 0-4.87275 4.292248-4.87275 7.810485v9.657563h-2.41001z"/><path d="m151.49524 18.892932h-.68604c-4.18671 0-9.16502.422189-9.16502 4.714437 0 2.568311 1.84709 3.535827 4.06359 3.535827 5.68196 0 5.78747-4.943121 5.78747-7.054063zm.22877 6.71983h-.0703c-1.07306 2.339626-3.7997 3.588601-6.2097 3.588601-5.5588 0-6.43834-3.746921-6.43834-5.506039 0-6.56151 6.96608-6.860563 12.03234-6.860563h.45736v-1.002697c0-3.342322-1.19618-5.031076-4.45056-5.031076-2.02299 0-3.94043.474959-5.7523 1.618389v-2.339631c1.49524-.721237 4.02837-1.33693 5.7523-1.33693 4.83758 0 6.86057 2.181307 6.86057 7.282752v8.619678c0 1.565618 0 2.761819.19365 4.098749h-2.37484z"/><path d="m166.94031 27.143196c4.29227 0 5.78752-4.608892 5.78752-8.162309 0-3.571011-1.49525-8.179899-5.78752-8.179899-4.59129 0-5.78751 4.380204-5.78751 8.179899 0 3.782106 1.19622 8.162309 5.78751 8.162309m8.19748 1.600799h-2.40996v-3.096048h-.0702c-1.30174 2.497945-3.30712 3.553416-6.10415 3.553416-5.36528 0-8.03914-4.432978-8.03914-10.220476 0-5.945822 2.30445-10.238071 8.03914-10.238071 3.83491 0 5.75235 2.797 6.10415 3.746926h.0702v-12.489742h2.40996z"/><path d="m180.97809 9.200189h2.40996v19.543806h-2.40996zm2.40996-5.20699h-2.40996v-3.236777h2.40996z"/><path d="m196.33516 27.143196c4.22189 0 6.49117-3.641376 6.49117-8.162309s-2.26928-8.179899-6.49117-8.179899c-4.20427 0-6.47355 3.658966-6.47355 8.179899s2.26928 8.162309 6.47355 8.162309m0-18.40038c6.33283 0 9.12985 4.907942 9.12985 10.238071 0 5.312535-2.79702 10.220476-9.12985 10.220476-6.31522 0-9.1122-4.907941-9.1122-10.220476 0-5.330129 2.79698-10.238071 9.1122-10.238071"/><path d="m138.6713 44.875108c-.91477-.422188-1.91743-.721237-3.48307-.721237-3.184 0-5.2246 2.515536-5.2246 6.244866 0 3.641376 1.72397 6.438376 5.33016 6.438376 1.46008 0 3.07844-.545328 3.95799-.914742l.22877 4.239474c-1.49525.474963-3.02566.650873-5.1366.650873-6.47356 0-9.74551-4.397794-9.74551-10.413981 0-5.717133 3.37751-10.238066 9.552-10.238066 2.07577 0 3.57101.22868 4.97831.650873z"/><path d="m151.86465 55.02522h.0703l4.74963-14.40718h5.22456l-7.40588 19.59658c-1.65359 4.362613-2.83216 8.654857-8.19748 8.654857-1.2314 0-2.46279-.1935-3.64136-.527733l.33415-3.799696c.65091.22868 1.38973.351847 2.65629.351847 2.05816 0 3.32473-1.424885 3.32473-3.535827l-7.54661-20.740006h5.68196z"/><path d="m164.89976 40.61804h4.7848v2.761819h.0703c1.61841-2.409996 3.95803-3.219188 5.87547-3.219188 2.76181 0 4.71441 1.037881 5.82268 3.483052 1.17862-2.374806 3.76448-3.483052 6.17449-3.483052 4.87276 0 6.24488 3.342323 6.24488 7.740121v12.454557h-5.13665v-11.7685c0-1.829483 0-4.432978-2.95532-4.432978-3.41268 0-3.83486 4.06356-3.83486 6.614285v9.587193h-5.13661v-11.7685c0-1.829483 0-4.432978-2.93775-4.432978-3.43029 0-3.83487 4.06356-3.83487 6.614285v9.587193h-5.1366z"/><path d="m198.02392 40.61804h4.55612v4.485752h.0702c.22877-1.847073 2.33962-4.943121 5.41806-4.943121.49258 0 1.02032 0 1.56563.158338v5.17181c-.45736-.263851-1.37212-.422189-2.30445-.422189-4.1691 0-4.1691 5.20699-4.1691 8.05676v7.229977h-5.13665z"/><path d="m231.09534 60.355349h-4.85514v-2.67386h-.0878c-1.56563 1.917438-3.78213 3.131229-6.47356 3.131229-4.67924 0-6.70223-3.289548-6.70223-7.740121v-12.454557h5.1366v10.537119c0 2.427586.036 5.681954 3.32473 5.681954 3.72935 0 4.52095-4.02838 4.52095-6.561511v-9.657562h5.1366z"/></g><g fill="url(#a)" transform="translate(-38.788549 -31.646543)"><path d="m94.148007 69.889776c.01801-2.48036-1.635975-4.345023-4.274663-5.083855.72121-.351846 1.266565-.791602 1.688753-1.33693.562918-.721237.809206-1.618389.809206-2.656265 0-1.28416-.492576-2.568315-1.565632-3.535831-1.090665-.985106-2.726639-1.618389-4.94314-1.618389h-6.174488v19.61417h7.247545c2.568346 0 4.380221-.703647 5.558836-1.741528 1.161007-1.037877 1.653583-2.392401 1.653583-3.641372m6.878133 9.165006h-28.937488v-27.213561h28.937488z"/><path d="m90.559383 69.502768c0 .650873-.211207 1.30175-.791598 1.811893-.580526.510143-1.565632.897152-3.236777.897152h-3.324728v-5.34772h3.183998c1.477682 0 2.53313.299067 3.201607.756417.650868.474964.949935 1.090656.967498 1.882258"/><path d="m87.850352 63.099578c.615697-.457369.914719-1.073061.914719-2.022988 0-.668462-.176081-1.23138-.650868-1.635978-.45736-.422189-1.266565-.721238-2.568302-.721238h-2.339621v5.066261h1.618366c1.407295 0 2.392401-.246288 3.025706-.686057"/><path d="m60.830295 69.889776c.01801-2.48036-1.635974-4.345023-4.274663-5.083855.721255-.351846 1.284173-.791602 1.688754-1.33693.545309-.721237.809205-1.618389.809205-2.656265 0-1.28416-.510138-2.568315-1.583195-3.535831-1.073101-.985106-2.709076-1.618389-4.925531-1.618389h-6.174533v19.61417h7.229981c2.58591 0 4.397785-.703647 5.558837-1.741528 1.178569-1.037877 1.671145-2.392401 1.671145-3.641372m6.860573 9.165006h-28.902319v-27.213561h28.902319z"/><path d="m54.53264 63.099578c.615697-.457369.914764-1.073061.914764-2.022988 0-.668462-.193643-1.23138-.650868-1.635978-.474967-.422189-1.266565-.721238-2.550738-.721238h-2.35723v5.066261h1.618411c1.389687 0 2.392401-.246288 3.025661-.686057"/><path d="m56.274173 67.62051c-.668476-.474958-1.723925-.774012-3.201606-.774012h-3.183999v5.365315h3.324728c1.653582 0 2.656297-.387018 3.236778-.897152.580526-.510143.774034-1.16102.774034-1.811893 0-.774012-.299022-1.407294-.949935-1.882258"/><path d="m128.59151 70.012911-.45736.299067c-2.23406 1.35452-4.66164 2.093348-6.87814 2.093348-4.73202-.01756-7.86328-2.83218-7.88085-6.913334.018-3.9932 3.27195-6.948518 7.74012-6.966108 2.30445 0 4.36262.598102 6.82536 1.935032l.45741.263851v-3.658966l-.19365-.07039c-2.77942-1.090652-4.92553-1.583205-7.05408-1.583205-3.27195 0-6.12171 1.090651-8.1447 2.920134-2.02299 1.847078-3.21922 4.432978-3.21922 7.405892 0 2.075757.84438 4.520933 2.69147 6.45596 1.82949 1.917443 4.64407 3.324737 8.49655 3.324737h.018c3.21922 0 5.41811-.703647 7.42349-1.706348l.17608-.07039zm5.75234 9.041871h-28.91992v-27.213561h28.91992z"/></g></svg>