<?xml version="1.0" encoding="UTF-8" standalone="no"?>
<svg
   xmlns:dc="http://purl.org/dc/elements/1.1/"
   xmlns:cc="http://creativecommons.org/ns#"
   xmlns:rdf="http://www.w3.org/1999/02/22-rdf-syntax-ns#"
   xmlns:svg="http://www.w3.org/2000/svg"
   xmlns="http://www.w3.org/2000/svg"
   xmlns:sodipodi="http://sodipodi.sourceforge.net/DTD/sodipodi-0.dtd"
   xmlns:inkscape="http://www.inkscape.org/namespaces/inkscape"
   height="329.96881"
   width="599.99487"
   version="1.1"
   viewBox="0 0 158.74864 87.304999"
   id="svg2"
   inkscape:version="0.91 r13725"
   sodipodi:docname="BBC Radio 4.svg">
  <metadata
     id="metadata38">
    <rdf:RDF>
      <cc:Work
         rdf:about="">
        <dc:format>image/svg+xml</dc:format>
        <dc:type
           rdf:resource="http://purl.org/dc/dcmitype/StillImage" />
        <dc:title></dc:title>
      </cc:Work>
    </rdf:RDF>
  </metadata>
  <defs
     id="defs36" />
  <sodipodi:namedview
     pagecolor="#ffffff"
     bordercolor="#666666"
     borderopacity="1"
     objecttolerance="10"
     gridtolerance="10"
     guidetolerance="10"
     inkscape:pageopacity="0"
     inkscape:pageshadow="2"
     inkscape:window-width="1920"
     inkscape:window-height="1017"
     id="namedview34"
     showgrid="false"
     fit-margin-top="0"
     fit-margin-left="0"
     fit-margin-right="0"
     fit-margin-bottom="0"
     inkscape:zoom="1.357645"
     inkscape:cx="313.02249"
     inkscape:cy="199.21809"
     inkscape:window-x="-8"
     inkscape:window-y="-8"
     inkscape:window-maximized="1"
     inkscape:current-layer="svg2" />
  <path
     d="M 115.11932,0 C 91.020322,0 71.492322,19.544 71.492322,43.653 c 0,24.113 19.528,43.652 43.626998,43.652 24.1,0 43.63,-19.539 43.63,-43.652 0,-24.109 -19.53,-43.653 -43.63,-43.653"
     id="path30"
     inkscape:connector-curvature="0"
     style="fill:#1e2f57"
     sodipodi:nodetypes="csssc" />
  <path
     inkscape:connector-curvature="0"
     style="fill:#ffffff;fill-opacity:1"
     d="m 138.79931,60.998051 -8.87999,0 0.03,11.235998 -15.9,0.02199 -0.02,-10.109999 c 0,0 -0.02,-1.121002 -1.35,-1.164002 l -22.737002,0.01601 0,-9.327 c 0.011,-1.362002 0.681,-3.363002 1.491,-4.452002 L 115.73931,14.61505 c 0.82,-1.083 2.59001,-1.973 3.95,-1.968 l 10.26,0 -0.02,35.263999 8.88001,-0.02101 z"
     id="path30-3"
     sodipodi:nodetypes="ccccccccccccccc" />
  <path
     d="m 115.38932,38.057 c -3.45,0.07 -6.2,2.939 -6.13,6.388 0.08,2.993 2.32,5.454 5.25,5.98 l 2.24,0.402 c -0.58,3.975 -2.07,6.957 -5.41,9.413 4.51,-1.995 7.97,-6.323 9.57,-10.893 1.6,-4.586 0.69,-11.419 -5.52,-11.29"
     id="path32"
     inkscape:connector-curvature="0"
     style="fill:#1e2f57" />
  <g
     id="g4"
     style="fill:#ffffff;fill-opacity:1"
     transform="translate(-6.7825897e-4,0)">
    <path
       d="m 40.783,2.6903 17.694,0 0,16.654 -17.694,0 z M 51.934,5.0126 51.692,4.9697 51.601,4.959 51.194,4.9107 50.909,4.8893 50.416,4.8732 50.228,4.8785 49.837,4.8893 49.622,4.9107 49.306,4.9429 49.22,4.9536 49.118,4.9697 49.005,4.9912 48.86,5.0126 48.646,5.0555 47.487,5.3988 46.956,5.6294 46.544,5.8493 46.179,6.0799 45.98,6.2087 45.825,6.3266 45.498,6.6002 45.229,6.8469 45.015,7.0775 44.8,7.3242 44.591,7.6031 44.436,7.8177 44.339,7.9732 43.862,8.9333 c -0.166,0.4344 -0.29,0.8956 -0.354,1.3887 l -0.043,0.472 -0.011,0.376 0.006,0.284 0.026,0.284 0.006,0.065 0.059,0.332 0.021,0.134 0.059,0.263 0.107,0.338 0.145,0.397 0.279,0.584 0.183,0.317 0.155,0.231 0.209,0.289 0.236,0.274 0.279,0.3 0.043,0.048 0.257,0.236 0.204,0.167 0.215,0.16 0.273,0.199 0.344,0.193 0.777,0.375 0.327,0.118 0.349,0.113 0.638,0.15 0.569,0.086 0.595,0.059 0.311,0.011 0.14,0 1.04,-0.043 0.059,-0.005 0.37,-0.043 0.521,-0.075 0.305,-0.059 0.435,-0.108 0.3,-0.086 0.322,-0.101 0.102,-0.033 0.198,-0.08 0.381,-0.156 0.284,-0.123 0.268,-0.123 0.118,-0.059 0,-2.274 -0.085,0.053 -0.156,0.091 -0.45,0.269 -0.494,0.246 -0.81,0.344 c -0.493,0.171 -0.949,0.284 -1.346,0.354 l -0.139,0.021 -0.322,0.043 -0.429,0.032 -0.252,0.005 -0.494,-0.016 -0.601,-0.069 -0.981,-0.258 -0.139,-0.053 -0.097,-0.038 -0.156,-0.07 -0.332,-0.171 -0.161,-0.097 -0.156,-0.107 -0.187,-0.14 -0.188,-0.15 -0.075,-0.064 -0.038,-0.038 -0.016,-0.021 -0.032,-0.022 -0.284,-0.305 -0.134,-0.177 -0.113,-0.167 -0.102,-0.16 -0.128,-0.242 -0.092,-0.198 -0.123,-0.344 -0.08,-0.257 -0.102,-0.633 -0.016,-0.198 -0.006,-0.231 0,-0.139 0.048,-0.483 0.065,-0.365 0.07,-0.2572 0.091,-0.2521 0.069,-0.1663 0.108,-0.2306 0.102,-0.177 0.252,-0.3862 0.107,-0.134 0.15,-0.177 0.086,-0.0859 1.368,-0.9493 0.23,-0.0912 0.231,-0.0858 0.252,-0.0751 0.236,-0.0697 0.247,-0.0483 0.257,-0.0321 0.263,-0.0268 0.483,-0.0269 0.161,0.0054 0.343,0.0054 0.236,0.0214 0.407,0.0483 0.333,0.0536 0.45,0.1127 0.236,0.0643 0.279,0.0858 0.199,0.0698 0.327,0.1287 0.413,0.177 0.311,0.1555 0.231,0.1126 0.316,0.1717 0.231,0.1233 0,-2.2312 L 54.46,5.742 54.084,5.6026 53.832,5.5168 53.612,5.4417 53.35,5.3505 53.146,5.2969 53.087,5.2754 52.888,5.2218 52.636,5.1521 52.481,5.1199 52.207,5.0609 Z"
       id="path6"
       inkscape:connector-curvature="0"
       style="fill:#ffffff;fill-opacity:1" />
    <path
       d="m 27.189,11.899 0,3.272 2.124,0 0.107,-0.005 0.301,-0.011 0.826,-0.172 0.724,-0.413 0.193,-0.241 0.22,-0.676 0.005,-0.113 0,-0.075 -0.043,-0.321 -0.247,-0.499 -0.085,-0.091 -0.193,-0.172 -0.392,-0.215 -0.654,-0.187 -0.36,-0.054 -0.252,-0.016 -0.225,-0.011 z"
       id="path8"
       inkscape:connector-curvature="0"
       style="fill:#ffffff;fill-opacity:1" />
    <path
       d="m 27.189,6.9225 0,3.1055 1.025,0 0.155,-0.005 0.241,-0.017 0.784,-0.1175 0.176,-0.0537 0.633,-0.3701 0.274,-0.429 0.113,-0.4666 0.005,-0.177 0,-0.1341 L 30.45,7.6948 30.236,7.3998 29.828,7.1263 28.932,6.9332 28.605,6.9225 Z"
       id="path10"
       inkscape:connector-curvature="0"
       style="fill:#ffffff;fill-opacity:1" />
    <path
       d="m 20.397,2.6903 17.694,0 0,16.654 -17.694,0 z m 4.645,2.3331 0,11.998 4.51,0 c 0,0 2.205,0.059 3.422,-1.153 0.987,-0.992 0.917,-2.14 0.917,-2.14 0,0 0.07,-1.191 -0.847,-2.113 -0.783,-0.772 -1.775,-0.987 -1.775,-0.987 l 0.799,-0.552 c 0.155,-0.1666 0.735,-0.6868 0.735,-1.9472 0,-1.2712 -0.848,-2.006 -0.848,-2.006 0,0 -0.933,-1.0994 -3.019,-1.0994 z"
       id="path12"
       inkscape:connector-curvature="0"
       style="fill:#ffffff;fill-opacity:1" />
    <path
       d="m 6.7949,11.899 0,3.272 2.1292,0 0.1127,-0.005 0.2949,-0.011 0.8203,-0.172 0.73,-0.413 0.193,-0.241 0.214,-0.676 0.006,-0.113 0,-0.075 L 11.257,13.144 11,12.645 10.925,12.554 10.732,12.382 10.34,12.167 9.6964,11.98 9.3264,11.926 9.0743,11.91 8.849,11.899 Z"
       id="path14"
       inkscape:connector-curvature="0"
       style="fill:#ffffff;fill-opacity:1" />
    <path
       d="m 6.7949,6.9225 0,3.1055 1.0351,0 0.1502,-0.005 0.236,-0.017 0.7937,-0.1175 0.177,-0.0537 0.6115,-0.3701 0.2896,-0.429 0.113,-0.4666 0.005,-0.177 0,-0.1341 L 10.061,7.6948 9.8466,7.3998 9.439,7.1263 8.5326,6.9332 8.2162,6.9225 Z"
       id="path16"
       inkscape:connector-curvature="0"
       style="fill:#ffffff;fill-opacity:1" />
    <path
       d="m 0,2.6903 17.699,0 0,16.654 -17.699,0 z m 4.6447,2.3331 0,11.998 4.516,0 c 0,0 2.2043,0.059 3.4163,-1.153 0.992,-0.992 0.917,-2.14 0.917,-2.14 0,0 0.075,-1.191 -0.842,-2.113 -0.783,-0.772 -1.775,-0.987 -1.775,-0.987 l 0.794,-0.552 c 0.166,-0.1666 0.735,-0.6868 0.735,-1.9472 0,-1.2712 -0.848,-2.006 -0.848,-2.006 0,0 -0.922,-1.0994 -3.0141,-1.0994 z"
       id="path18"
       inkscape:connector-curvature="0"
       style="fill:#ffffff;fill-opacity:1" />
    <path
       d="m 1.9796,25.167 1.2765,0 c 1.9147,0 2.6871,0.789 2.7032,2.081 0.0161,1.153 -0.59,2.242 -2.7032,2.242 l -1.2765,0 z M 5e-4,23.472 l 0,13.768 1.9791,0 0,-5.975 0.826,0 c 1.0137,0 1.8343,0.322 3.6578,3.149 l 1.8182,2.826 2.3604,0 C 9.6922,35.932 9.3489,35.465 8.7536,34.516 7.7077,32.805 6.9461,31.534 5.6965,30.702 7.166,30.118 7.9974,28.927 7.9974,27.329 c 0,-2.382 -1.7378,-3.857 -4.5214,-3.857 z"
       id="path20"
       inkscape:connector-curvature="0"
       style="fill:#ffffff;fill-opacity:1" />
    <path
       d="m 17.11,26.419 2.221,4.988 -4.286,0 z m 0.724,-3.025 -1.394,0 -5.916,13.843 2.022,0 1.738,-4.055 5.851,0 1.84,4.055 2.016,0 z"
       id="path22"
       inkscape:connector-curvature="0"
       style="fill:#ffffff;fill-opacity:1" />
    <path
       d="m 27.611,25.25 3.041,0 c 3.861,0 5.621,2.344 5.621,5.106 0,1.7 -1.036,5.111 -5.509,5.111 l -3.153,0 z m -1.979,11.992 5.368,0 c 4.543,0 7.305,-3.346 7.305,-6.886 0,-3.25 -2.236,-6.882 -7.321,-6.882 l -5.352,0 z"
       id="path24"
       inkscape:connector-curvature="0"
       style="fill:#ffffff;fill-opacity:1" />
    <path
       d="m 40.585,37.241 1.974,0 0,-13.768 -1.974,0 z"
       id="path26"
       inkscape:connector-curvature="0"
       style="fill:#ffffff;fill-opacity:1" />
    <path
       d="m 46.883,30.357 c 0,-3.025 2.285,-5.24 5.353,-5.24 3.089,0 5.368,2.215 5.368,5.24 0,3.009 -2.279,5.251 -5.368,5.251 -3.068,0 -5.353,-2.242 -5.353,-5.251 m -2.038,0 c 0,3.733 2.848,7.058 7.348,7.058 4.666,0 7.45,-3.347 7.45,-7.058 0,-3.835 -2.865,-7.069 -7.407,-7.069 -4.463,0 -7.391,3.255 -7.391,7.069"
       id="path28"
       inkscape:connector-curvature="0"
       style="fill:#ffffff;fill-opacity:1" />
  </g>
</svg>
