<?xml version="1.0" encoding="UTF-8"?>
<!-- Created with Inkscape (http://www.inkscape.org/) -->
<svg id="svg3309" width="61.435" height="43.616" version="1.1" xmlns="http://www.w3.org/2000/svg" xmlns:cc="http://creativecommons.org/ns#" xmlns:dc="http://purl.org/dc/elements/1.1/" xmlns:rdf="http://www.w3.org/1999/02/22-rdf-syntax-ns#">
 <metadata id="metadata3314">
  <rdf:RDF>
   <cc:Work rdf:about="">
    <dc:format>image/svg+xml</dc:format>
    <dc:type rdf:resource="http://purl.org/dc/dcmitype/StillImage"/>
    <dc:title/>
   </cc:Work>
  </rdf:RDF>
 </metadata>
 <g id="layer1" transform="translate(-83.714 -324.77)">
  <path id="path3019" d="m123.38 324.77h13.728v12.918h-13.728v-12.918zm8.6488 1.7975c-0.06-0.01-0.12125-0.02-0.185-0.03l-0.075-0.01c-0.105-0.015-0.21125-0.0263-0.3175-0.0375-0.075-6e-3 -0.1475-0.0113-0.21875-0.0163-0.13125-7e-3 -0.26-0.0112-0.3825-0.0112-0.0575 0-0.0888 1e-3 -0.145 2e-3 -0.1025 1e-3 -0.2025 6e-3 -0.305 0.0112-0.055 4e-3 -0.11125 0.01-0.16625 0.0138-0.0813 7e-3 -0.16125 0.0163-0.2425 0.0275l-0.065 9e-3 -0.075 0.01-0.09 0.0138c-0.04 7e-3 -0.0787 0.0138-0.11875 0.0213-0.055 0.01-0.10625 0.02-0.16 0.0325-0.32625 0.0688-0.6275 0.16-0.905 0.26875-0.14375 0.055-0.28125 0.115-0.41125 0.18-0.11125 0.0538-0.21625 0.1075-0.31625 0.1675-0.0975 0.0562-0.19125 0.1125-0.28125 0.17375-0.0525 0.0337-0.10375 0.0688-0.15375 0.105-0.0425 0.0312-0.085 0.0625-0.125 0.0925-0.0875 0.0688-0.17125 0.13625-0.25125 0.20625-0.0725 0.065-0.145 0.13125-0.21125 0.1975-0.0575 0.0563-0.115 0.115-0.16875 0.17625-0.055 0.0612-0.11 0.12375-0.1625 0.18875-0.055 0.07-0.1125 0.1425-0.16625 0.21625-0.04 0.0562-0.0775 0.1125-0.115 0.17-0.0263 0.0375-0.0512 0.0775-0.0775 0.1175-0.14125 0.23375-0.26625 0.485-0.37 0.75125-0.12875 0.33375-0.22125 0.6925-0.2725 1.0738-0.015 0.12-0.0288 0.2425-0.035 0.36625-6e-3 0.0962-0.01 0.1925-0.01 0.29125 0 0.0738 1e-3 0.14625 5e-3 0.2175 5e-3 0.075 0.0113 0.15 0.02 0.2225l5e-3 0.0525c0.0113 0.0863 0.025 0.1725 0.0413 0.2575 7e-3 0.0337 0.0125 0.0663 0.02 0.0987 0.0162 0.0713 0.0312 0.14 0.0512 0.21 0.0238 0.0875 0.0487 0.175 0.0775 0.26 0.0362 0.10625 0.0738 0.2075 0.11375 0.3075 0.0675 0.1575 0.14 0.31 0.2175 0.4525 0.0475 0.0838 0.0937 0.16625 0.14375 0.24375 0.0387 0.0625 0.0775 0.12375 0.11875 0.1825 0.0538 0.0775 0.11 0.15125 0.16375 0.2225 0.0575 0.075 0.11875 0.14625 0.17625 0.2125 0.0738 0.085 0.1475 0.16125 0.21875 0.2325l0.0387 0.0375c0.0588 0.0562 0.1225 0.11875 0.19625 0.18 0.0512 0.0425 0.10125 0.0875 0.15875 0.1325 0.0512 0.0412 0.1075 0.0838 0.165 0.12625 0.0687 0.0488 0.1425 0.0987 0.22 0.15 0.0812 0.0525 0.16875 0.105 0.26 0.155 0.18125 0.10125 0.38125 0.2 0.60125 0.28875 0.0813 0.0325 0.16625 0.0638 0.25625 0.0937 0.0863 0.03 0.175 0.0575 0.26875 0.085 0.1575 0.045 0.3225 0.085 0.4975 0.11875 0.14125 0.0275 0.2875 0.05 0.43875 0.0688 0.15 0.0175 0.30375 0.0312 0.465 0.04 0.08 4e-3 0.15875 6e-3 0.24 9e-3h0.11125c0.28875 0 0.55625-0.01 0.80375-0.0312l0.0475-4e-3c0.0987-9e-3 0.19375-0.0187 0.28625-0.0312 0.14125-0.0162 0.2775-0.0375 0.40375-0.0612 0.0825-0.0138 0.16-0.03 0.23625-0.0462 0.1175-0.025 0.23125-0.0525 0.3375-0.0813 0.08-0.02 0.15625-0.0425 0.22875-0.0663 0.0888-0.0263 0.17375-0.0537 0.255-0.0813l0.0775-0.0275c0.0388-0.0138 0.0913-0.0337 0.155-0.0575 0.0825-0.0325 0.1825-0.0713 0.29625-0.12 0.0675-0.0288 0.14125-0.0612 0.21625-0.0962 0.0675-0.03 0.13625-0.065 0.2075-0.1 0.03-0.0138 0.0588-0.0288 0.09-0.0438v-1.7612c-0.0187 0.0137-0.0412 0.0263-0.0613 0.0387l-0.1225 0.0737c-0.12 0.0725-0.23625 0.14125-0.3525 0.20375-0.1275 0.07-0.2525 0.13375-0.3775 0.1925-0.2175 0.1025-0.42625 0.18875-0.6275 0.26125-0.38375 0.13875-0.7375 0.22625-1.0488 0.28-0.0362 6e-3 -0.0725 0.0125-0.10875 0.0175-0.085 0.0137-0.1675 0.025-0.24625 0.0325-0.12375 0.0138-0.23625 0.0213-0.34 0.025-0.0662 4e-3 -0.13 5e-3 -0.18625 5e-3 -0.12625 0-0.255-4e-3 -0.385-0.0125-0.15375-0.0125-0.30875-0.0288-0.4675-0.0538-0.255-0.0437-0.51125-0.10875-0.76-0.2-0.0363-0.0125-0.075-0.0275-0.10875-0.0412-0.0263-0.01-0.05-0.02-0.0737-0.03-0.0413-0.0175-0.0825-0.035-0.1225-0.0537-0.0875-0.04-0.1725-0.085-0.255-0.1325-0.0413-0.0238-0.0825-0.0475-0.12375-0.0738-0.0425-0.0263-0.085-0.0537-0.125-0.0825-0.0525-0.0362-0.1025-0.0725-0.1525-0.11125-0.0475-0.0388-0.0962-0.0788-0.13875-0.11375l-0.0575-0.0525-0.0288-0.0275-0.0175-0.015-0.0213-0.0225c-0.0787-0.0775-0.15125-0.1575-0.2175-0.23625-0.0375-0.045-0.0713-0.09-0.105-0.135-0.0325-0.0425-0.0625-0.0875-0.0913-0.13-0.0262-0.0412-0.0512-0.0825-0.0762-0.125-0.0363-0.0613-0.0688-0.12375-0.1-0.185-0.0263-0.0525-0.0512-0.105-0.0725-0.1575-0.0375-0.0888-0.07-0.17875-0.0962-0.26375-0.0225-0.0663-0.04-0.13125-0.055-0.195-0.0487-0.18375-0.0713-0.3525-0.085-0.495-4e-3 -0.055-7e-3 -0.10625-0.01-0.1525-5e-3 -0.0712-5e-3 -0.1325-5e-3 -0.18125 0-0.0325 0-0.0688 1e-3 -0.11125 5e-3 -0.10125 0.0125-0.22875 0.035-0.37375 0.0125-0.0888 0.03-0.1825 0.0525-0.2825 0.0175-0.065 0.035-0.1325 0.0563-0.20125 0.02-0.0625 0.0425-0.125 0.0662-0.19 0.0175-0.045 0.035-0.0875 0.055-0.13125 0.025-0.06 0.0538-0.11875 0.085-0.18 0.0225-0.045 0.0487-0.09 0.075-0.13625 0.0587-0.1 0.1225-0.2 0.19875-0.29875 0.0263-0.0362 0.0538-0.0712 0.0838-0.10625 0.0362-0.045 0.075-0.0913 0.1175-0.135 0.02-0.0225 0.0413-0.045 0.0638-0.0675 0.32125-0.3225 0.685-0.56375 1.0612-0.735 0.0575-0.0275 0.1175-0.0512 0.1775-0.0738 0.0588-0.025 0.1175-0.045 0.17875-0.0662 0.0637-0.0213 0.13125-0.0412 0.19625-0.06 0.0613-0.0175 0.12375-0.0325 0.18625-0.0475 0.0613-0.0138 0.125-0.0263 0.18625-0.0387 0.0675-0.0113 0.13625-0.0225 0.2025-0.0312 0.0687-9e-3 0.1375-0.0163 0.2025-0.0213 0.12875-0.0113 0.255-0.0163 0.37875-0.0163 0.04 0 0.08-1e-3 0.12125 0 0.0913 2e-3 0.18125 5e-3 0.2675 0.0113 0.0625 4e-3 0.12 7e-3 0.1775 0.0138 0.1125 0.01 0.21875 0.0225 0.31875 0.04 0.0925 0.0125 0.17875 0.0288 0.2625 0.0438 0.12625 0.0263 0.2425 0.055 0.345 0.0812 0.0675 0.0175 0.13 0.0363 0.185 0.0525 0.0863 0.025 0.16 0.0475 0.21625 0.0675 0.0975 0.035 0.15125 0.0538 0.15125 0.0538 0.0863 0.0312 0.17125 0.065 0.255 0.0975 0.1125 0.045 0.21875 0.095 0.32125 0.14125 0.085 0.0375 0.16625 0.0775 0.2425 0.11625 0.0625 0.03 0.12125 0.06 0.17625 0.0888 0.0962 0.05 0.1775 0.095 0.245 0.13125l0.17875 0.0975v-1.73s-0.1075-0.0437-0.29375-0.115c-0.0825-0.03-0.18-0.0675-0.29-0.10625-0.0625-0.0225-0.12625-0.045-0.195-0.07-0.055-0.0175-0.11125-0.0375-0.17-0.0563-0.0662-0.0213-0.135-0.0437-0.205-0.065-0.05-0.015-0.1025-0.0312-0.15625-0.0462l-0.0462-0.0138c-0.0513-0.0137-0.10375-0.0288-0.15625-0.0425-0.0637-0.0175-0.1275-0.0337-0.1925-0.05-0.0413-0.01-0.0813-0.02-0.125-0.03-0.0675-0.015-0.13625-0.0312-0.20625-0.045-0.0712-0.015-0.145-0.0275-0.2175-0.0413" fill="#c0311a"/>
  <path id="path3023" d="m112.84 331.89v2.5388h1.6488s0.0325-1e-3 0.0863-2e-3c0.0562-1e-3 0.135-5e-3 0.22875-0.0138 0.18-0.0163 0.415-0.0487 0.64375-0.12625 0.2075-0.07 0.40875-0.17375 0.56125-0.32875 0.06-0.0588 0.11-0.12 0.14875-0.1825 0.13-0.20375 0.1625-0.41125 0.1675-0.52875 6e-3 -0.05 5e-3 -0.08 5e-3 -0.08s1e-3 -0.0225 0-0.0625c-1e-3 -0.0487-7e-3 -0.14375-0.0337-0.24625-0.0312-0.12-0.0888-0.26-0.1925-0.3875-0.02-0.0238-0.0413-0.0475-0.0625-0.0713-0.0463-0.045-0.095-0.0888-0.15-0.12875-0.0888-0.0663-0.1925-0.12375-0.305-0.17125-0.1475-0.065-0.3125-0.1125-0.495-0.14625-0.0937-0.0175-0.1925-0.0325-0.29375-0.0425-0.0613-5e-3 -0.125-0.01-0.19-0.0125-0.0563-4e-3 -0.11625-6e-3 -0.175-6e-3 -0.58375 0-1.5925-1e-3 -1.5925-1e-3" fill="#c0311a"/>
  <path id="path3027" d="m112.84 328.04v2.4062h0.79875s0.0525 0 0.1225-1e-3c0.0562-4e-3 0.12125-6e-3 0.18-9e-3 0.165-0.0125 0.39125-0.035 0.6175-0.0987 0.045-0.0125 0.09-0.0263 0.13375-0.0425 0.17875-0.0625 0.34875-0.155 0.48125-0.28625 0.10625-0.10375 0.175-0.22 0.22125-0.33125 0.0563-0.13875 0.0775-0.27 0.085-0.3625 6e-3 -0.0838 6e-3 -0.1375 6e-3 -0.1375s1e-3 -0.04-1e-3 -0.1025c-5e-3 -0.10375-0.0263-0.275-0.11-0.43875-0.04-0.0788-0.0937-0.15375-0.16875-0.2275-0.09-0.0888-0.19875-0.15625-0.315-0.2075-0.225-0.1-0.4825-0.14-0.7-0.15375-0.0925-6e-3 -0.17875-7e-3 -0.2525-7e-3h-1.0988z" fill="#c0311a"/>
  <path id="path3029" d="m107.57 324.77h13.728v12.918h-13.728v-12.918zm3.6025 1.8112v9.3038h3.5012s1.7075 0.0475 2.6512-0.89625c0.76625-0.76625 0.7125-1.655 0.7125-1.655s0.0538-0.9275-0.65625-1.6375c-0.605-0.60625-1.3775-0.7675-1.3775-0.7675s0.3475-0.16375 0.61625-0.43125c0.12625-0.12625 0.57375-0.53 0.57375-1.51 0-0.9875-0.6575-1.555-0.6575-1.555s-0.72-0.85125-2.345-0.85125h-3.0188z" fill="#c0311a"/>
  <path id="path3033" d="m97.019 331.89v2.5388h1.6475s0.03375-1e-3 0.0875-2e-3c0.05625-1e-3 0.13375-5e-3 0.22875-0.0138 0.18-0.0163 0.415-0.0487 0.64375-0.12625 0.2075-0.07 0.4075-0.17375 0.5625-0.32875 0.0588-0.0588 0.1075-0.12 0.1475-0.1825 0.13-0.20375 0.16125-0.41125 0.16875-0.52875 4e-3 -0.05 4e-3 -0.08 4e-3 -0.08v-0.0625c-2e-3 -0.0487-9e-3 -0.14375-0.0337-0.24625-0.03-0.12-0.0887-0.26-0.1925-0.3875-0.0187-0.0238-0.04-0.0475-0.065-0.0713-0.045-0.045-0.0925-0.0888-0.14625-0.12875-0.09125-0.0663-0.195-0.12375-0.305-0.17125-0.14875-0.065-0.31625-0.1125-0.4975-0.14625-0.0925-0.0175-0.1925-0.0325-0.2925-0.0425-0.0625-5e-3 -0.12625-0.01-0.19-0.0125-0.05625-4e-3 -0.11625-6e-3 -0.17375-6e-3 -0.58625 0-1.5938-1e-3 -1.5938-1e-3" fill="#c0311a"/>
  <path id="path3037" d="m97.019 328.04v2.4062h0.7975s0.05375 0 0.12375-1e-3c0.05625-4e-3 0.12125-6e-3 0.18-9e-3 0.16375-0.0125 0.39125-0.035 0.61875-0.0987 0.04375-0.0125 0.08875-0.0263 0.13125-0.0425 0.17875-0.0625 0.35-0.155 0.4825-0.28625 0.105-0.10375 0.175-0.22 0.2225-0.33125 0.055-0.13875 0.075-0.27 0.08375-0.3625 0.0075-0.0838 0.0063-0.1375 0.0063-0.1375s0.0025-0.04-0.0012-0.1025c-5e-3 -0.10375-0.0275-0.275-0.11-0.43875-0.04-0.0788-0.095-0.15375-0.16875-0.2275-0.09-0.0888-0.19875-0.15625-0.315-0.2075-0.225-0.1-0.4825-0.14-0.69875-0.15375-0.09375-6e-3 -0.18125-7e-3 -0.2525-7e-3h-1.1z" fill="#c0311a"/>
  <path id="path3039" d="m91.751 324.77h13.728v12.918h-13.728v-12.918zm3.6012 1.8112v9.3038h3.5012s1.7088 0.0475 2.6513-0.89625c0.7675-0.76625 0.7125-1.655 0.7125-1.655s0.055-0.9275-0.655-1.6375c-0.60625-0.60625-1.38-0.7675-1.38-0.7675s0.35-0.16375 0.61875-0.43125c0.125-0.12625 0.5725-0.53 0.5725-1.51 0-0.9875-0.6575-1.555-0.6575-1.555s-0.72-0.85125-2.345-0.85125h-3.0188z" fill="#c0311a"/>
  <path id="path3043" d="m96.669 353.65h-0.3225l-3.7975-9.4612-3.8325 9.4612h-0.3225l-4.68-11.666h1.6625l3.1875 7.97 3.205-7.97h1.5762l3.2225 7.97 3.1538-7.97h1.645l-4.6975 11.666z" fill="#fff"/>
  <path id="path3047" d="m107.68 352.18c2.5938 0 4.51-1.8812 4.51-4.4088 0-2.5425-1.9162-4.4075-4.51-4.4075-2.5775 0-4.4938 1.865-4.4938 4.4075 0 2.5275 1.9162 4.4088 4.4938 4.4088m0-10.342c3.815 0 6.2225 2.7125 6.2225 5.9338 0 3.1212-2.34 5.935-6.2562 5.935-3.7812 0-6.1725-2.7975-6.1725-5.935 0-3.2038 2.4588-5.9338 6.2062-5.9338" fill="#fff"/>
  <path id="path3051" d="m117.63 347.04h1.0688c1.78 0 2.2888-0.915 2.2725-1.8825-0.0175-1.085-0.6625-1.7462-2.2725-1.7462h-1.0688v3.6288zm1.255-5.0525c2.34 0 3.7988 1.2375 3.7988 3.2388 0 1.3388-0.69625 2.34-1.9338 2.8312 1.0512 0.695 1.695 1.7638 2.5775 3.205 0.49125 0.79625 0.78 1.1862 1.5775 2.2888h-1.985l-1.5262-2.3738c-1.525-2.3738-2.22-2.645-3.0688-2.645h-0.695v5.0188h-1.6612v-11.564h2.9162z" fill="#fff"/>
  <path id="path3055" d="m127.82 352.06h5.2225v1.4925h-6.885v-11.565h1.6625v10.072z" fill="#fff"/>
  <path id="path3059" d="m136.16 352.06h2.645c3.7638 0 4.6288-2.865 4.6288-4.29 0-2.3225-1.475-4.29-4.7138-4.29h-2.56v8.58zm-1.6625-10.072h4.4938c4.2738 0 6.155 3.0525 6.155 5.7825 0 2.9675-2.3225 5.7825-6.1375 5.7825h-4.5112v-11.565z" fill="#fff"/>
  <path id="path3063" d="m91.37 359.21c-0.98375-0.9325-1.9325-1.2038-2.7125-1.2038-1.0688 0-1.8312 0.55875-1.8312 1.3738 0 2.2212 5.0012 2.1875 5.0012 5.8662 0 1.815-1.3725 3.1375-3.2388 3.1375-1.2538 0-2.2712-0.34-3.2388-1.0688v-2.1025c0.84875 1.085 1.9162 1.6788 3.0525 1.6788 1.2888 0 1.8825-0.81375 1.8825-1.4575 0-2.3912-5.0025-2.6625-5.0025-5.8338 0-1.8825 1.39-3.0862 3.51-3.0862 0.88125 0 1.7638 0.27125 2.5775 0.81375v1.8825z" fill="#fff"/>
  <path id="path3067" d="m100.2 358.16h-4.9v3.4938h4.73v1.4912h-4.73v3.595h5.0525v1.4925h-6.715v-11.565h6.5625v1.4925z" fill="#fff"/>
  <path id="path3071" d="m103.82 361.72h1.0688c1.78 0 2.2888-0.915 2.2712-1.8812-0.0162-1.0862-0.66125-1.7475-2.2712-1.7475h-1.0688v3.6288zm1.255-5.0525c2.34 0 3.7975 1.2375 3.7975 3.2388 0 1.3388-0.695 2.34-1.9325 2.8312 1.0512 0.69625 1.695 1.7638 2.5775 3.205 0.49125 0.79625 0.78 1.1875 1.5762 2.2888h-1.9838l-1.5262-2.3738c-1.525-2.3738-2.2212-2.645-3.0688-2.645h-0.695v5.0188h-1.6612v-11.564h2.9162z" fill="#fff"/>
  <path id="path3075" d="m115.08 368.34h-0.34l-5.0012-11.666h1.6612l3.4762 8.1225 3.4588-8.1225h1.645l-4.9 11.666z" fill="#fff"/>
  <path id="path3077" d="m122.93 368.23h-1.6612v-11.565h1.6612v11.565z" fill="#fff"/>
  <path id="path3081" d="m135.34 359.25c-1.4238-0.83125-2.645-1.2038-3.985-1.2038-2.645 0-4.6112 1.8812-4.6112 4.425 0 2.595 1.8988 4.3912 4.6788 4.3912 1.3062 0 2.7312-0.4575 4.0362-1.305v1.815c-1.1362 0.59375-2.3738 1.0162-4.1875 1.0162-4.3412 0-6.24-3.34-6.24-5.765 0-3.5262 2.6612-6.1038 6.3412-6.1038 1.1862 0 2.39 0.2875 3.9675 0.94875v1.7812z" fill="#fff"/>
  <path id="path3085" d="m144.05 358.16h-4.9v3.4938h4.73v1.4912h-4.73v3.595h5.0525v1.4925h-6.715v-11.565h6.5625v1.4925z" fill="#fff"/>
 </g>
</svg>
