<svg height="66.344795" width="236.60001" xmlns="http://www.w3.org/2000/svg"><g fill="#fff"><g transform="translate(176 -105.25521)"><path d="m-175.3 130.6h7c1.5 0 2.8.4 3.7 1.3 1 .9 1.4 1.9 1.4 3.2 0 1.7-.9 3-2.7 3.8.8.4 1.5 1.3 2.2 2.9s1.4 3.1 2.1 4.4h-4.3c-.3-.5-.7-1.5-1.3-3s-1.2-2.4-1.6-2.8c-.5-.4-.9-.6-1.5-.6h-1.1v6.4h-3.9zm3.9 2.9v3.6h2.1c.7 0 1.2-.2 1.6-.5s.6-.8.6-1.3c0-1.2-.7-1.8-2.2-1.8z"/><path d="m-150.4 130.6 7 15.7h-4.2l-1.3-3.1h-7l-1.2 3.1h-4.1l6.3-15.7zm.4 9.9-2.5-6.1-2.3 6.1z"/><path d="m-141.4 130.6h6.9c2.7 0 4.8.7 6.3 2.2 1.6 1.5 2.3 3.4 2.3 5.7 0 2.4-.8 4.3-2.4 5.7s-3.8 2.1-6.7 2.1h-6.5v-15.7zm3.9 2.9v9.9h2.5c1.7 0 2.9-.5 3.8-1.4s1.3-2.1 1.3-3.6-.4-2.8-1.3-3.6c-.9-.9-2.2-1.3-3.8-1.3z"/><path d="m-118.7 130.6v15.7h-3.9v-15.7z"/><path d="m-106.5 130.4c2.7 0 4.8.8 6.5 2.4s2.5 3.5 2.5 5.6c0 2.2-.8 4.1-2.5 5.6s-3.8 2.4-6.5 2.4-4.8-.8-6.5-2.4-2.5-3.5-2.5-5.7c0-2.1.8-4 2.5-5.6 1.7-1.4 3.8-2.3 6.5-2.3zm0 12.9c1.5 0 2.7-.4 3.6-1.3s1.4-2 1.4-3.5c0-1.4-.5-2.6-1.4-3.5s-2.1-1.3-3.6-1.3-2.7.4-3.6 1.3-1.4 2-1.4 3.5c0 1.4.5 2.6 1.4 3.5.9.8 2.1 1.3 3.6 1.3z"/><path d="m-160.4 156.7v3.4c-2-1-4-1.4-5.9-1.4-1.8 0-3.3.5-4.3 1.4s-1.5 2.1-1.5 3.5.5 2.5 1.5 3.3 2.3 1.3 3.9 1.3c.9 0 1.7-.2 2.6-.6v-1.8h-2.3v-2.9h6.3v6.4c-.6.6-1.6 1.1-2.8 1.5-1.3.4-2.5.6-3.8.6-2.7 0-5-.8-6.7-2.3-1.7-1.3-2.6-3.2-2.6-5.6s.9-4.3 2.6-5.8c1.8-1.5 4-2.3 6.8-2.3 2.3 0 4.4.5 6.2 1.3z"/><path d="m-144.5 168.5v2.9h-12v-15.8h3.9v12.8z"/><path d="m-133.7 155.4c2.7 0 4.8.8 6.5 2.4s2.5 3.5 2.5 5.6c0 2.2-.8 4.1-2.5 5.6s-3.8 2.4-6.5 2.4-4.8-.8-6.5-2.4-2.5-3.5-2.5-5.7c0-2.1.8-4 2.5-5.6 1.6-1.4 3.8-2.3 6.5-2.3zm0 12.9c1.5 0 2.7-.4 3.6-1.3s1.4-2 1.4-3.5c0-1.4-.5-2.6-1.4-3.5s-2.1-1.3-3.6-1.3-2.7.4-3.6 1.3-1.4 2-1.4 3.5c0 1.4.5 2.6 1.4 3.5.9.8 2.1 1.3 3.6 1.3z"/><path d="m-110 155.6h3.9v8.9c0 2.3-.7 4-2 5.2s-3.3 1.8-5.8 1.8-4.4-.6-5.8-1.8-2.1-2.9-2.1-5.2v-8.9h3.9v9c0 1.1.4 2 1.1 2.6.7.7 1.7 1 2.8 1 1.2 0 2.2-.3 2.9-1s1.1-1.6 1.1-2.9z"/><path d="m-87.9 166.6v3.4c-2 1-4 1.6-6.2 1.6-2.8 0-5-.8-6.7-2.3s-2.5-3.4-2.5-5.7.9-4.2 2.6-5.7c1.7-1.6 4-2.4 6.8-2.4 2.2 0 4.1.5 5.7 1.4v3.5c-1.9-1.1-3.7-1.6-5.4-1.6s-3 .4-4.1 1.3-1.6 2-1.6 3.4.5 2.5 1.6 3.4c1 .9 2.4 1.4 4 1.4.8 0 1.6-.1 2.3-.3.9-.2 2-.7 3.5-1.4z"/><path d="m-72.9 168.5v2.9h-11.6v-15.8h11.4v2.9h-7.5v3.3h7.2v2.9h-7.2v3.8z"/><path d="m-59.1 156.7v3.1c-2.1-.9-3.7-1.4-5-1.4-.7 0-1.3.1-1.7.4-.4.2-.6.5-.6.9 0 .3.1.6.4.9s1 .6 2.2 1 2.1.8 2.8 1.2 1.3.9 1.8 1.5c.5.7.8 1.5.8 2.5 0 1.5-.6 2.6-1.7 3.5s-2.6 1.3-4.4 1.3c-1.9 0-3.8-.5-5.7-1.5v-3.4c1 .7 2 1.2 2.8 1.5s1.7.5 2.6.5c1.5 0 2.3-.5 2.3-1.4 0-.3-.2-.6-.5-.9s-1-.6-2.2-1.1c-1.2-.4-2.1-.8-2.8-1.2s-1.3-.9-1.8-1.5-.7-1.5-.7-2.6c0-1.3.5-2.4 1.6-3.3s2.5-1.2 4.4-1.2c1.8-.1 3.6.4 5.4 1.2z"/><path d="m-41.4 155.6v2.9h-5.7v12.8h-3.9v-12.8h-5.7v-2.9z"/><path d="m-27.2 168.5v2.9h-11.6v-15.8h11.4v2.9h-7.5v3.3h7.2v2.9h-7.2v3.8z"/><path d="m-24 155.6h7c1.5 0 2.8.4 3.7 1.3 1 .9 1.4 1.9 1.4 3.2 0 1.7-.9 3-2.7 3.8.8.4 1.5 1.3 2.2 2.9s1.4 3.1 2.1 4.4h-4.3c-.3-.5-.7-1.5-1.3-3s-1.2-2.4-1.6-2.8c-.5-.4-.9-.6-1.5-.6h-1.1v6.4h-3.9zm3.9 2.9v3.6h2.1c.7 0 1.2-.2 1.6-.5s.6-.8.6-1.3c0-1.2-.7-1.8-2.2-1.8z"/><path d="m2.4 156.7v3.1c-2.1-.9-3.7-1.4-5-1.4-.7 0-1.3.1-1.7.4-.4.2-.6.5-.6.9 0 .3.1.6.4.9s1 .6 2.2 1 2.1.8 2.8 1.2 1.3.9 1.8 1.5c.5.7.8 1.5.8 2.5 0 1.5-.6 2.6-1.7 3.5s-2.6 1.3-4.4 1.3c-1.9 0-3.8-.5-5.7-1.5v-3.4c1 .7 2 1.2 2.8 1.5s1.7.5 2.6.5c1.5 0 2.3-.5 2.3-1.4 0-.3-.2-.6-.5-.9s-1-.6-2.2-1.1c-1.2-.4-2.1-.8-2.8-1.2s-1.3-.9-1.8-1.5-.7-1.5-.7-2.6c0-1.3.5-2.4 1.6-3.3s2.5-1.2 4.4-1.2c1.8-.1 3.6.4 5.4 1.2z"/><path d="m21.6 155.6v15.7h-3.9v-6.3h-7.8v6.3h-4v-15.7h3.9v6.3h7.8v-6.3z"/><path d="m29.3 155.6v15.7h-3.9v-15.7z"/><path d="m33.2 155.6h7c1.5 0 2.8.4 3.7 1.3 1 .9 1.4 1.9 1.4 3.2 0 1.7-.9 3-2.7 3.8.8.4 1.5 1.3 2.2 2.9s1.4 3.1 2.1 4.4h-4.3c-.3-.5-.7-1.5-1.3-3s-1.2-2.4-1.6-2.8c-.5-.4-.9-.6-1.5-.6h-1.1v6.4h-3.9zm3.9 2.9v3.6h2.1c.7 0 1.2-.2 1.6-.5s.6-.8.6-1.3c0-1.2-.7-1.8-2.2-1.8z"/><path d="m60.6 168.5v2.9h-11.6v-15.8h11.4v2.9h-7.5v3.3h7.2v2.9h-7.2v3.8z"/></g><path d="m0 0c0-11.25-14-10.583-14-10.583h-14v20.333h14c14.417.083 14-9.75 14-9.75m-28 40.75h10.667c11.083-.584 10.666-8.833 10.666-8.833 0-10.25-12.25-10.417-12.25-10.417h-9.083zm25.417-23.25s9.583 4.083 9.5 14.917c0 0 1.457 17.749-22.063 19.916h-26.104v-74.416h29.917s25-.084 25 21c0 0 .583 14.333-16.25 18.583m-67.545 49.4156h109.878v-103.544h-109.878z" transform="matrix(.160750907924 0 0 -.160750907924 31.641654390775 10.756741774387)"/><path d="m0 0c0-11.25-14-10.583-14-10.583h-14v20.333h14c14.417.083 14-9.75 14-9.75m-28 40.75h10.667c11.083-.584 10.666-8.833 10.666-8.833 0-10.25-12.25-10.417-12.25-10.417h-9.083zm25.417-23.25s9.583 4.083 9.5 14.917c0 0 1.457 17.749-22.063 19.916h-26.104v-74.416h29.917s25-.084 25 21c0 0 .583 14.333-16.25 18.583m-67.545 49.4156h109.878v-103.544h-109.878z" transform="matrix(.160750907924 0 0 -.160750907924 11.273140040137 10.756741774387)"/><path d="m0 0v-13.75s-13.417 8.25-28.25 8.417c0 0-27.666.54-28.916-26.522 0 0-1-24.895 28.583-26.312 0 0 12.417-1.5 29.25 9.25v-14.25s-22.583-13.416-48.75-3.083c0 0-22 8.04-22.834 34.395 0 0-.917 27.105 28.417 36.105 0 0 7.834 3 21.917 1.667 0 0 8.416-.834 20.583-5.917m-87.461-83.627h109.878v103.544h-109.878z" transform="matrix(.160750907924 0 0 -.160750907924 54.796448232105 3.201674238853)"/></g></svg>