<svg height="41.344791" width="77.900002" xmlns="http://www.w3.org/2000/svg"><g fill="#fff"><g transform="translate(176 -118.05521)"><path d="m-164 156.4v3h-12v-16.4h11.9v3h-7.8v3.4h7.5v3h-7.5v3.9z"/><path d="m-149.5 144v3.2c-2.2-1-3.9-1.5-5.2-1.5-.7 0-1.3.1-1.8.4s-.7.6-.7 1c0 .3.2.6.5.9s1.1.6 2.3 1.1 2.2.9 2.9 1.2 1.4.9 1.9 1.6.8 1.6.8 2.6c0 1.5-.6 2.7-1.7 3.6s-2.7 1.3-4.6 1.3c-2 0-4-.5-5.9-1.6v-3.5c1.1.7 2.1 1.3 2.9 1.6s1.7.5 2.7.5c1.6 0 2.4-.5 2.4-1.5 0-.3-.2-.7-.5-1s-1.1-.7-2.3-1.1-2.2-.8-2.9-1.2-1.3-.9-1.9-1.6c-.5-.7-.8-1.6-.8-2.7 0-1.4.6-2.5 1.7-3.4s2.6-1.3 4.5-1.3c1.9.2 3.8.6 5.7 1.4z"/><path d="m-134.8 144v3.2c-2.2-1-3.9-1.5-5.2-1.5-.7 0-1.3.1-1.8.4s-.7.6-.7 1c0 .3.2.6.5.9s1.1.6 2.3 1.1 2.2.9 2.9 1.2 1.4.9 1.9 1.6.8 1.6.8 2.6c0 1.5-.6 2.7-1.7 3.6s-2.7 1.3-4.6 1.3c-2 0-4-.5-5.9-1.6v-3.5c1.1.7 2.1 1.3 2.9 1.6s1.7.5 2.7.5c1.6 0 2.4-.5 2.4-1.5 0-.3-.2-.7-.5-1s-1.1-.7-2.3-1.1-2.2-.8-2.9-1.2-1.3-.9-1.9-1.6c-.5-.7-.8-1.6-.8-2.7 0-1.4.6-2.5 1.7-3.4s2.6-1.3 4.5-1.3c2 .2 3.8.6 5.7 1.4z"/><path d="m-119 156.4v3h-12.1v-16.4h11.9v3h-7.8v3.4h7.5v3h-7.5v3.9z"/><path d="m-98.8 143-6.4 7.9 7.1 8.5h-5.3l-4.4-5.4-4.4 5.4h-5.2l7-8.5-6.6-7.9h5.3l3.9 4.8 3.8-4.8z"/></g><path d="m0 0c0-11.25-14-10.583-14-10.583h-14v20.333h14c14.417.083 14-9.75 14-9.75m-28 40.75h10.667c11.083-.584 10.666-8.833 10.666-8.833 0-10.25-12.25-10.417-12.25-10.417h-9.083zm25.417-23.25s9.583 4.083 9.5 14.917c0 0 1.457 17.749-22.063 19.916h-26.104v-74.416h29.917s25-.084 25 21c0 0 .583 14.333-16.25 18.583m-67.545 49.4156h109.878v-103.544h-109.878z" transform="matrix(.160750907924 0 0 -.160750907924 31.641654390775 10.756741774387)"/><path d="m0 0c0-11.25-14-10.583-14-10.583h-14v20.333h14c14.417.083 14-9.75 14-9.75m-28 40.75h10.667c11.083-.584 10.666-8.833 10.666-8.833 0-10.25-12.25-10.417-12.25-10.417h-9.083zm25.417-23.25s9.583 4.083 9.5 14.917c0 0 1.457 17.749-22.063 19.916h-26.104v-74.416h29.917s25-.084 25 21c0 0 .583 14.333-16.25 18.583m-67.545 49.4156h109.878v-103.544h-109.878z" transform="matrix(.160750907924 0 0 -.160750907924 11.273140040137 10.756741774387)"/><path d="m0 0v-13.75s-13.417 8.25-28.25 8.417c0 0-27.666.54-28.916-26.522 0 0-1-24.895 28.583-26.312 0 0 12.417-1.5 29.25 9.25v-14.25s-22.583-13.416-48.75-3.083c0 0-22 8.04-22.834 34.395 0 0-.917 27.105 28.417 36.105 0 0 7.834 3 21.917 1.667 0 0 8.416-.834 20.583-5.917m-87.461-83.627h109.878v103.544h-109.878z" transform="matrix(.160750907924 0 0 -.160750907924 54.796448232105 3.201674238853)"/></g></svg>