<svg height="66.344795" width="152.39999" xmlns="http://www.w3.org/2000/svg"><g fill="#fff"><g transform="translate(176 -105.55521)"><path d="m-175.3 130.3h7.3c1.6 0 2.9.5 3.9 1.4s1.5 2 1.5 3.3c0 1.8-.9 3.1-2.8 4 .8.4 1.6 1.4 2.3 3s1.5 3.2 2.1 4.6h-4.5c-.3-.5-.7-1.6-1.4-3.1s-1.2-2.5-1.7-2.9-1-.6-1.5-.6h-1.1v6.6h-4.1zm4.1 3v3.7h2.2c.7 0 1.2-.2 1.6-.5s.6-.8.6-1.4c0-1.2-.8-1.9-2.3-1.9h-2.1z"/><path d="m-149.2 130.3 7.3 16.4h-4.4l-1.3-3.2h-7.3l-1.2 3.2h-4.3l6.6-16.4zm.3 10.3-2.7-6.4-2.4 6.4z"/><path d="m-139.8 130.3h7.2c2.8 0 5 .8 6.6 2.3s2.4 3.5 2.4 5.9c0 2.5-.8 4.5-2.5 6s-4 2.2-7 2.2h-6.8zm4 3v10.4h2.7c1.7 0 3-.5 4-1.4s1.4-2.2 1.4-3.8-.5-2.9-1.4-3.8-2.3-1.4-4-1.4z"/><path d="m-116.1 130.3v16.4h-4.1v-16.4z"/><path d="m-103.4 130.1c2.8 0 5 .8 6.8 2.5s2.6 3.6 2.6 5.9-.9 4.2-2.6 5.9-4 2.5-6.7 2.5c-2.8 0-5-.8-6.8-2.5s-2.6-3.6-2.6-5.9c0-2.2.9-4.2 2.6-5.9s3.9-2.5 6.7-2.5zm0 13.4c1.5 0 2.8-.5 3.7-1.4s1.4-2.1 1.4-3.6-.5-2.7-1.4-3.6-2.2-1.4-3.7-1.4c-1.6 0-2.8.5-3.8 1.4s-1.4 2.1-1.4 3.6.5 2.7 1.4 3.6 2.2 1.4 3.8 1.4z"/><path d="m-160 166.7v3.6c-2 1.1-4.2 1.6-6.4 1.6-2.9 0-5.2-.8-6.9-2.4s-2.7-3.6-2.7-6 .9-4.3 2.7-6 4.2-2.4 7.2-2.4c2.3 0 4.3.5 5.9 1.4v3.6c-2-1.1-3.9-1.7-5.6-1.7s-3.2.5-4.3 1.4-1.7 2.1-1.7 3.6.5 2.7 1.6 3.6 2.5 1.4 4.2 1.4c.8 0 1.7-.1 2.4-.3s2-.7 3.6-1.4z"/><path d="m-147.8 155.1c2.8 0 5 .8 6.8 2.5s2.6 3.6 2.6 5.9-.9 4.2-2.6 5.9-4.1 2.5-6.8 2.5c-2.8 0-5-.8-6.8-2.5s-2.6-3.6-2.6-5.9c0-2.2.9-4.2 2.6-5.9s4-2.5 6.8-2.5zm0 13.4c1.5 0 2.8-.5 3.7-1.4s1.4-2.1 1.4-3.6-.5-2.7-1.4-3.6-2.2-1.4-3.7-1.4c-1.6 0-2.8.5-3.8 1.4s-1.4 2.1-1.4 3.6.5 2.7 1.4 3.6 2.2 1.4 3.8 1.4z"/><path d="m-135.3 155.3h7.3c1.6 0 2.9.5 3.9 1.4s1.5 2 1.5 3.3c0 1.8-.9 3.1-2.8 4 .8.4 1.6 1.4 2.3 3s1.5 3.2 2.1 4.6h-4.5c-.3-.5-.7-1.6-1.4-3.1s-1.2-2.5-1.7-2.9-1-.6-1.5-.6h-1.2v6.6h-4.1v-16.3zm4.1 3v3.7h2.1c.7 0 1.2-.2 1.6-.5s.6-.8.6-1.4c0-1.2-.8-1.9-2.3-1.9h-2z"/><path d="m-102.2 155.3v16.4h-3.4l-9-10.5v10.5h-4.1v-16.4h3.7l8.7 10v-10z"/><path d="m-86.1 161.2-5.1 10.7h-1.8l-7.2-16.6h4.3l3.9 9 4.2-9h3.3l4.2 9 3.8-9h4.3l-7.1 16.6h-1.8z"/><path d="m-60.5 155.3 7.3 16.4h-4.4l-1.3-3.2h-7.3l-1.2 3.2h-4.3l6.6-16.4zm.4 10.3-2.7-6.4-2.4 6.4z"/><path d="m-38.6 168.7v3h-12.5v-16.4h4.1v13.4z"/><path d="m-23.6 168.7v3h-12.5v-16.4h4.1v13.4z"/></g><path d="m0 0c0-11.25-14-10.583-14-10.583h-14v20.333h14c14.417.083 14-9.75 14-9.75m-28 40.75h10.667c11.083-.584 10.666-8.833 10.666-8.833 0-10.25-12.25-10.417-12.25-10.417h-9.083zm25.417-23.25s9.583 4.083 9.5 14.917c0 0 1.457 17.749-22.063 19.916h-26.104v-74.416h29.917s25-.084 25 21c0 0 .583 14.333-16.25 18.583m-67.545 49.4156h109.878v-103.544h-109.878z" transform="matrix(.160750907924 0 0 -.160750907924 31.641654390775 10.756741774387)"/><path d="m0 0c0-11.25-14-10.583-14-10.583h-14v20.333h14c14.417.083 14-9.75 14-9.75m-28 40.75h10.667c11.083-.584 10.666-8.833 10.666-8.833 0-10.25-12.25-10.417-12.25-10.417h-9.083zm25.417-23.25s9.583 4.083 9.5 14.917c0 0 1.457 17.749-22.063 19.916h-26.104v-74.416h29.917s25-.084 25 21c0 0 .583 14.333-16.25 18.583m-67.545 49.4156h109.878v-103.544h-109.878z" transform="matrix(.160750907924 0 0 -.160750907924 11.273140040137 10.756741774387)"/><path d="m0 0v-13.75s-13.417 8.25-28.25 8.417c0 0-27.666.54-28.916-26.522 0 0-1-24.895 28.583-26.312 0 0 12.417-1.5 29.25 9.25v-14.25s-22.583-13.416-48.75-3.083c0 0-22 8.04-22.834 34.395 0 0-.917 27.105 28.417 36.105 0 0 7.834 3 21.917 1.667 0 0 8.416-.834 20.583-5.917m-87.461-83.627h109.878v103.544h-109.878z" transform="matrix(.160750907924 0 0 -.160750907924 54.796448232105 3.201674238853)"/></g></svg>