<svg height="329.98782" viewBox="0 0 158.76537 87.308141" width="600.05811" xmlns="http://www.w3.org/2000/svg" xmlns:xlink="http://www.w3.org/1999/xlink"><clipPath id="a"><path d="m0 0h419.53v595.28h-419.53z"/></clipPath><clipPath id="b"><path d="m0 0h419.53v595.28h-419.53z"/></clipPath><clipPath id="c"><path d="m0 0h419.53v595.28h-419.53z"/></clipPath><path d="m-4.45 13.474c-4.578 0-8.289-3.713-8.289-8.294 0-4.581 3.711-8.294 8.289-8.294 4.579 0 8.29 3.713 8.29 8.294s-3.711 8.294-8.29 8.294" fill="#f46b17" transform="matrix(5.2634 0 0 -5.2634 138.55392 70.918482)"/><path d="m40.79992 2.6874824h17.696v16.6529996h-17.696zm11.148 2.3212-.242-.0421-.089-.0106-.416-.0473-.279-.0211-.49-.0158h-.189l-.395.0211-.216.0158-.31.0368-.09.0105-.094.0106-.116.021-.153.0263-.2.0369-1.168.3473-.532.2369-.41.2211-.364.2158-.194.1421-.164.1158-.321.2631-.279.2527-.21.2316-.216.2421-.211.2789-.147.2158-.095.1579-.484.9632c-.163.4316-.284.9001-.347 1.3793996l-.048.479-.015.373.005.285.031.284.006.068.052.332.027.131.063.269.105.337.147.394.274.585.184.315.153.232.216.284.231.279.274.3.053.048.258.231.194.169.221.163.274.189.342.205.774.374.332.116.342.111.647.157.563.079.6.058.306.011h.147l1.037-.042.058-.006.368-.042.521-.073.305-.058.437-.106.3-.089.321-.1.106-.037.194-.074.385-.157.279-.122.268-.126.121-.058v-2.273l-.084.047-.153.095-.458.268-.489.247-.811.337c-.494.179-.947.29-1.347.363l-.142.022-.321.036-.432.037-.247.005-.49-.015-.605-.074-.974-.253-.147-.058-.1-.036-.153-.064-.331-.173-.158-.095-.158-.116-.195-.137-.184-.147-.069-.068-.036-.032-.027-.021-.026-.026-.284-.306-.137-.173-.111-.174-.1-.158-.137-.237-.084-.205-.126-.337-.079-.258-.1-.631-.016-.2-.005-.232v-.142l.042-.479.069-.369.078-.2573996.085-.2474.068-.1685.111-.2315.1-.1737.252-.3895.106-.1316.152-.179.079-.0894c.421-.4106.89-.7264 1.374-.9422l.226-.1.232-.0842.247-.0737.248-.0631.242-.0474.258-.0421.263-.0263.484-.0264h.163l.337.0158.232.0211.415.0474.332.0579.447.1052.237.0685.279.0894.2.0685.326.1263.411.1789.316.1474.226.1158.316.1684.231.1316v-2.2317l-.378-.1473-.374-.1369-.258-.0895-.216-.0736-.263-.0895-.205-.0579-.058-.0158-.195-.0579-.253-.0632-.157-.0315-.269-.0632z"/><path d="m27.19892 11.903482v3.268571h2.126414l.110531-.0053.300014-.01579.826354-.163166.731612-.421072.189483-.242116.210536-.673715.0053-.110532v-.07369l-.03684-.315804-.257906-.51055-.07369-.08948-.189482-.157902-.400019-.231589-.636871-.184219-.378965-.05263-.242116-.01579-.23159-.0053z"/><path d="m27.19892 6.9244824v3.1001426h1.194792l.226326-.01579.794773-.1263218.173693-.052634.621081-.368438.284223-.4263354.110532-.473706.0053-.1684288v-.131585l-.147412-.5684472-.210536-.289487-.410545-.2736968-.900042-.1947458-.32633-.0105268z"/><g clip-path="url(#c)" transform="matrix(5.2634 0 0 -5.2634 -841.58608 2552.1995)"><path d="m163.77 484.38h3.37v-3.16h-3.37zm.88-.44v-2.28h.86s.42-.01.65.22c.19.19.18.41.18.41s.01.22-.16.4c-.15.15-.34.19-.34.19l.15.1c.03.03.14.13.14.37s-.16.38-.16.38-.18.21-.58.21z"/></g><path d="m6.8057204 11.903482v3.268571h2.131677l.1157948-.0053.289487-.01579.8263538-.163166.731613-.421072.189482-.242116.210536-.673715.01579-.110532v-.07369l-.04737-.315804-.257907-.51055-.07369-.08948-.184217-.15786-.405281-.231589-.6368718-.184219-.3737014-.052634-.2473798-.015791-.2210628-.005263z"/><path d="m6.8057204 6.9244824v3.1001426h1.1947918l.2263262-.01579.7947734-.1263218.1736922-.052634.6210812-.368438.2894868-.4263354.105268-.473706.0053-.1684288v-.131585l-.142148-.5684472-.2105362-.289487-.4158086-.2736968-.894778-.1947458-.3263308-.0105268z"/><g clip-path="url(#b)" transform="matrix(5.2634 0 0 -5.2634 -841.58608 2552.1995)"><path d="m159.9 484.38h3.36v-3.16h-3.36zm.88-.44v-2.28h.86s.42-.01.65.22c.19.19.17.41.17.41s.02.22-.16.4c-.15.15-.34.19-.34.19l.15.1c.03.03.15.13.15.37s-.17.38-.17.38-.17.21-.57.21z"/><g transform="translate(160.27 480.11)"><path d="m0 0h .243c.363 0 .509-.15.512-.396.005-.218-.11-.425-.512-.425h-.243zm-.376.323v-2.617h.376v1.136h.157c.193 0 .349-.062.695-.599l.346-.537h.447c-.18.249-.245.338-.357.519-.199.325-.344.567-.582.724.28.112.438.337.438.641 0 .452-.33.733-.859.733z"/></g></g><path d="m17.12492 26.417482 2.221155 4.98444h-4.284408zm.721086-3.026455h-1.394801l-5.916062 13.848005h2.021146l1.736922-4.052818h5.858164l1.836927 4.052818h2.015882z"/><g clip-path="url(#a)" transform="matrix(5.2634 0 0 -5.2634 -841.58608 2552.1995)"><g transform="translate(165.14 480.1)"><path d="m0 0h .578c.733 0 1.067-.446 1.067-.971 0-.321-.196-.97-1.046-.97h-.599zm-.376-2.278h1.02c.863 0 1.388.637 1.388 1.307 0 .618-.425 1.309-1.391 1.309h-1.017z"/></g></g><path d="m40.60592 37.236482h1.979v-13.764h-1.979z"/><path d="m46.89992 30.357482c0-3.031718 2.279052-5.24761 5.352878-5.24761 3.089616 0 5.368668 2.215892 5.368668 5.24761 0 3.005401-2.279052 5.24761-5.368668 5.24761-3.073826 0-5.352878-2.242209-5.352878-5.24761m-2.042199 0c0 3.737014 2.852763 7.063483 7.35297 7.063483 4.663372 0 7.447711-3.352786 7.447711-7.063483 0-3.831755-2.86329-7.063483-7.405604-7.063483-4.463363 0-7.395077 3.247518-7.395077 7.063483"/><path d="m0 0h-9.154l4.725 5.547c.673.76 1.038 1.277 1.038 1.829 0 .498-.341 1.034-.891 1.034-.659 0-.991-.652-1.017-1.114l-.023-.437h-3.032l.025.487c.045.854.189 1.323.59 1.934.813 1.235 1.951 1.837 3.481 1.837 2.576 0 4.177-1.359 4.177-3.548 0-.923-.318-1.669-1.05-2.48l-1.88-2.147h3.011z" fill="#fff" transform="matrix(5.2634 0 0 -5.2634001 138.55399 70.91854)"/></svg>