<svg height="249.56219" viewBox="0 0 158.75 66.029472" width="600" xmlns="http://www.w3.org/2000/svg"><path d="m68.809998 10.469745h37.132999v43.921001h-37.132999z" fill="#fff" stroke="#fff" stroke-width="3.1942"/><g fill="#fff" transform="translate(-278.69 -143.41026)"><g stroke-width="3.1942"><path d="m317.97 147.21c-.06-.02-.12-.03-.18-.04l-.07-.01c-.1-.01-.2-.02-.31-.03-.07-.01-.14-.01-.21-.02-.14-.01-.26-.01-.37-.01h-.15c-.1 0-.2.01-.3.01-.05.01-.1.01-.16.02-.08 0-.15.01-.23.02l-.07.01-.08.01-.08.01c-.04.01-.08.02-.11.03-.06 0-.11.01-.16.02-.32.07-.61.16-.88.26-.14.06-.28.12-.4.18-.11.06-.21.11-.31.17-.1.05-.19.11-.28.16-.05.04-.1.07-.15.11l-.12.09c-.09.07-.17.14-.25.2-.07.06-.13.13-.2.19-.05.06-.12.11-.16.18-.06.06-.12.12-.16.18-.06.07-.11.14-.16.21-.05.05-.08.11-.12.17-.03.04-.05.07-.07.11-.14.23-.26.47-.37.73-.12.33-.21.68-.26 1.05-.01.12-.02.23-.03.36-.01.09-.01.19-.01.28v.21c.01.08.02.15.02.22l.01.05c.01.09.02.17.04.25 0 .04.01.07.02.1.01.07.03.14.04.2.03.09.05.17.08.26.04.1.08.2.11.29.07.16.14.3.21.44.05.09.1.17.14.24s.08.12.12.18c.05.08.11.15.16.22s.11.14.18.2c.06.08.14.16.21.23l.03.04c.06.05.12.12.19.18.05.03.1.08.16.12.05.04.11.09.16.12.07.06.14.1.21.15.09.05.17.1.26.16.17.09.37.19.58.28.08.03.17.06.25.09.09.03.18.05.26.08.16.04.32.08.49.12.14.02.28.04.43.06s.3.03.45.04c.08.01.16.01.23.01h.12c.28 0 .54-.01.78-.03h.04c.1-.01.19-.02.28-.04.14-.01.27-.03.39-.06.08-.01.16-.02.23-.04.12-.02.23-.05.34-.08.07-.02.15-.04.22-.06.09-.03.17-.06.25-.08l.07-.03c.04-.01.09-.03.15-.05.08-.04.18-.07.29-.12l.21-.09c.07-.04.14-.07.21-.1.02-.02.06-.03.09-.05v-1.71c-.02.01-.05.02-.07.04l-.11.07c-.12.07-.23.14-.35.2s-.24.13-.37.19c-.21.1-.41.18-.61.25-.37.13-.72.22-1.02.27-.04.01-.07.02-.11.02-.08.01-.16.03-.24.03-.12.02-.23.02-.33.02-.06.01-.12.01-.18.01-.12 0-.25 0-.38-.01-.15-.01-.29-.03-.45-.05-.25-.05-.5-.11-.74-.2-.04-.01-.08-.03-.11-.04-.02-.01-.05-.02-.07-.03-.04-.02-.08-.03-.12-.05-.09-.04-.17-.08-.25-.13-.04-.02-.08-.05-.12-.07-.04-.03-.08-.05-.12-.08-.05-.03-.1-.07-.14-.11-.06-.03-.1-.08-.15-.11l-.05-.05-.03-.03-.01-.02-.03-.02c-.07-.07-.14-.15-.21-.23-.03-.04-.07-.09-.1-.13s-.06-.09-.09-.13-.05-.08-.07-.12c-.04-.06-.07-.12-.1-.18-.03-.05-.05-.1-.07-.15-.04-.09-.07-.18-.09-.26-.03-.06-.05-.13-.06-.19-.04-.18-.07-.34-.08-.48-.01-.06-.01-.11-.01-.15-.01-.07-.01-.13-.01-.18v-.11c.01-.09.02-.22.04-.36.01-.09.03-.18.05-.28.01-.06.03-.12.05-.19.03-.06.04-.12.07-.19.01-.04.03-.08.05-.13.03-.06.06-.11.08-.17.03-.05.05-.09.08-.13.06-.1.12-.2.19-.3.03-.03.05-.07.08-.1.04-.04.08-.09.12-.13.02-.02.04-.05.06-.07.31-.31.67-.55 1.03-.71.06-.03.12-.06.18-.08s.11-.04.17-.06.13-.04.19-.06c.06-.01.13-.03.18-.05.07-.01.13-.02.19-.03s.13-.02.19-.03c.07-.01.14-.02.2-.02.13-.01.25-.02.37-.02h.12c.09 0 .17.01.26.01.06.01.12.01.18.01.1.02.21.03.31.04.08.02.17.03.25.04.12.03.23.06.34.09.06.01.12.03.18.05.08.02.15.05.21.06.09.04.15.05.15.05.08.03.16.07.24.1.11.05.22.09.32.14.08.04.16.08.23.11s.12.06.17.09c.1.04.18.09.24.12l.18.1v-1.68s-.11-.04-.29-.11c-.08-.03-.17-.07-.28-.11-.06-.02-.13-.04-.19-.07-.05-.02-.11-.04-.17-.05-.06-.02-.13-.05-.19-.07-.06-.01-.11-.03-.16-.04l-.05-.02c-.04-.01-.1-.02-.14-.04-.07-.01-.13-.03-.19-.05-.04-.01-.08-.01-.13-.02-.06-.02-.13-.04-.2-.05-.07-.02-.14-.03-.21-.03m-8.43-1.76h13.38v12.59h-13.38z"/><path d="m299.25 152.41v2.48h1.61s.03-.01.08-.01c.06 0 .13 0 .23-.01.17-.02.4-.05.63-.13.2-.06.39-.16.54-.31.06-.06.11-.12.15-.18.12-.2.16-.4.16-.52.01-.05.01-.08.01-.08v-.06c0-.04-.01-.14-.04-.24-.03-.11-.08-.25-.18-.38-.02-.02-.05-.04-.07-.06-.04-.05-.09-.09-.14-.13-.09-.06-.19-.12-.3-.17-.14-.06-.31-.11-.49-.14-.08-.02-.18-.03-.28-.04-.06-.01-.12-.01-.18-.01-.06-.01-.12-.01-.18-.01z"/><path d="m299.25 148.65v2.34h.78.12c.06 0 .12 0 .18-.01.16-.01.38-.03.6-.09.05-.01.09-.03.13-.04.17-.07.34-.15.47-.28.1-.1.17-.22.21-.33.06-.13.08-.26.09-.35v-.13-.1c0-.1-.02-.27-.11-.43-.04-.08-.09-.15-.16-.22-.09-.09-.19-.16-.31-.21-.22-.09-.47-.13-.68-.14-.09-.01-.18-.01-.25-.01z"/><path d="m297.63 147.21v9.08h3.41s1.67.04 2.59-.88c.75-.75.69-1.61.69-1.61s.06-.91-.64-1.6c-.59-.59-1.34-.75-1.34-.75s.34-.16.6-.42c.12-.12.56-.51.56-1.47s-.64-1.51-.64-1.51-.7-.84-2.29-.84zm-3.51-1.76h13.38v12.59h-13.38z"/><path d="m283.83 152.41v2.48h1.61s.03-.01.08-.01c.06 0 .14 0 .23-.01.17-.02.4-.05.62-.13.21-.06.4-.16.55-.31.06-.06.11-.12.15-.18.12-.2.15-.4.16-.52.01-.05.01-.08.01-.08v-.06c-.01-.04-.02-.14-.04-.24-.03-.11-.08-.25-.19-.38-.01-.02-.03-.04-.06-.06-.04-.05-.09-.09-.14-.13-.09-.06-.19-.12-.3-.17-.14-.06-.31-.11-.48-.14-.09-.02-.19-.03-.29-.04-.06-.01-.12-.01-.18-.01-.06-.01-.12-.01-.17-.01z"/><path d="m283.83 148.65v2.34h.78.12c.05 0 .12 0 .18-.01.15-.01.38-.03.6-.09.04-.01.09-.03.13-.04.17-.07.34-.15.47-.28.1-.1.17-.22.21-.33.06-.13.08-.26.09-.35v-.13-.1c-.01-.1-.03-.27-.11-.43-.03-.08-.09-.15-.16-.22-.09-.09-.19-.16-.31-.21-.22-.09-.47-.13-.68-.14-.09-.01-.18-.01-.24-.01z"/><path d="m282.21 147.21v9.08h3.41s1.67.04 2.58-.88c.75-.75.7-1.61.7-1.61s.05-.91-.64-1.6c-.59-.59-1.34-.75-1.34-.75s.34-.16.6-.42c.12-.12.56-.52.56-1.47 0-.96-.64-1.52-.64-1.52s-.7-.83-2.29-.83zm-3.52-1.76h13.39v12.59h-13.39z"/><path d="m278.69 161.16v10.42h1.5v-4.53h.62c.77 0 1.39.25 2.77 2.39l1.37 2.13h1.79c-.72-.99-.98-1.34-1.42-2.06-.79-1.29-1.37-2.25-2.32-2.88 1.11-.44 1.74-1.34 1.74-2.55 0-1.8-1.31-2.92-3.42-2.92zm1.5 1.29h.97c1.44 0 2.03.59 2.04 1.57.01.87-.44 1.69-2.04 1.69h-.97z"/><path d="m292.18 161.11h-1.05l-4.48 10.46h1.53l1.32-3.06h4.42l1.39 3.06h1.53zm-.55 2.28 1.68 3.77h-3.24z"/><path d="m298.08 171.58h4.06c3.44 0 5.52-2.54 5.52-5.21 0-2.46-1.69-5.21-5.53-5.21h-4.05zm1.5-9.07h2.3c2.92 0 4.24 1.77 4.24 3.86 0 1.29-.77 3.87-4.16 3.87h-2.38z"/></g><path d="m309.39 161.16v10.41h1.49v-10.41z"/><path d="m312.61 166.37c0 2.82 2.16 5.34 5.56 5.34 3.52 0 5.63-2.53 5.63-5.34 0-2.9-2.16-5.34-5.6-5.34-3.38 0-5.59 2.46-5.59 5.34m1.54 0c0-2.29 1.73-3.97 4.05-3.97 2.33 0 4.06 1.68 4.06 3.97 0 2.28-1.73 3.97-4.06 3.97-2.32 0-4.05-1.69-4.05-3.97" stroke-width="3.1942"/></g><g fill="#853f98" transform="translate(-278.69 -143.41026)"><path d="m365.76 143.41c-18.23 0-33 14.78-33 33.02 0 18.23 14.77 33.01 33 33.01 18.22 0 33-14.78 33-33.01 0-18.24-14.78-33.02-33-33.02m17.91 46.13h-6.72l.02 8.51-12.02.01-.02-7.65s-.01-.85-1.02-.88l-17.2.01.01-7.05c0-1.03.51-2.54 1.12-3.37l18.39-24.65c.62-.83 1.96-1.5 2.99-1.5h7.76l-.01 26.68 6.71-.02z" stroke-width="3.1942"/><path d="m365.96 172.19c-2.6.06-4.69 2.22-4.63 4.83.06 2.27 1.76 4.13 3.97 4.53l1.7.3c-.45 3.01-1.57 5.26-4.1 7.12 3.41-1.51 6.03-4.78 7.24-8.24 1.2-3.46.52-8.63-4.18-8.54" stroke-width="3.1942"/><path d="m390.5 153.41 5.78.01 2.7 4.55 2.82-4.53 4.19-.03-4.87 7.17 5.14 7.61h-4.16l-3.13-5.11-3.09 5.11-2.34-.44z"/></g><path d="m110.07 9.75974c-5.98 0-7.82 4.94-7.82 7.63 0 4.53 3.42 7.83 7.82 7.83 5.81 0 7.12-5.22 7.12-5.22h-4.08s-1.13 1.74-3.15 1.74c-2.91 0-3.37-2.61-3.37-2.61h10.87v-1.74c0-3.03-1.88-7.63-7.39-7.63zm-.11 3.26c2.84 0 3.37 2.64 3.37 2.64l-6.74-.03s.46-2.61 3.37-2.61z" fill="#fff"/><g fill="#853f98" transform="translate(-278.69 -143.41026)"><path d="m414.41 164.71v3.48h-1.31c-2.97 0-5.21-2.49-5.21-4.78v-6.52h-1.74v-3.48h1.74v-3.48h3.47v3.48h2.61v3.48h-2.61v5.21c0 1.69.68 2.61 2.18 2.61z"/><path d="m415.28 168.19v-14.78h3.47v1.52s.78-1.71 4.78-1.71v3.67h-1.76c-1.85 0-3.02 1.86-3.02 3.37v7.93z"/><path d="m430.84 153.17c-3.44 0-6.95 2.01-6.95 5l3.56.03c0-.87 1.25-2.01 3.36-2.01 1.53 0 2.72.73 2.72 1.41 0 .96-1.24 1.46-4.4 1.82-2.29.21-5.84.89-5.84 4.21 0 1.9 1.43 4.86 5.92 4.86 3.4 0 4.76-2.14 4.76-2.14 0 1.15.13 1.84.13 1.84h3.34s-.43-1.5-.43-2.82v-7.66c0-1.94-1.84-4.54-6.17-4.54zm2.69 8.12v1.25c0 .99-.78 2.61-3.83 2.61-2.14 0-2.69-.83-2.69-1.52 0-1.21 1.73-1.39 2.8-1.55 1.34-.13 2.22-.29 3.72-.79z"/></g></svg>