<svg version="1.1" viewBox="0 0 102.2 41.345" xmlns="http://www.w3.org/2000/svg">
 <style type="text/css">.st0{fill:#ffffff;}</style>
 <g transform="translate(176 -118.16)">
  <g fill="#fff">
   <path class="st0" d="m-162 148.6-5 10.7h-1.8l-7.2-16.6h4.3l3.9 9 4.2-9h3.3l4.2 9 3.8-9h4.3l-7.2 16.6h-1.8l-5-10.7z"/>
   <path class="st0" d="m-137.1 148.8 5.3-6.1h3.5v16.4h-4.1v-10.3l-4.4 5.1h-0.6l-4.4-5.1v10.2h-4.1v-16.3h3.5l5.3 6.1z"/>
   <path class="st0" d="m-116.3 159.3 3.8-6.1c-0.4 0.1-0.7 0.2-1.1 0.2-1.2 0-2.3-0.5-3.1-1.5s-1.3-2.2-1.3-3.6c0-1.6 0.5-2.9 1.6-4s2.3-1.6 3.9-1.6c1.5 0 2.8 0.5 3.9 1.6s1.5 2.4 1.5 4.1c0 1.9-0.7 4.1-2.2 6.4l-2.9 4.7h-4.1v-0.2zm3.5-8.8c0.5 0 1-0.2 1.3-0.7s0.5-1 0.5-1.8-0.2-1.4-0.5-1.8-0.8-0.7-1.3-0.7-1 0.2-1.3 0.7-0.5 1.1-0.5 1.8 0.2 1.3 0.5 1.8 0.8 0.7 1.3 0.7z"/>
   <path class="st0" d="m-95 142.7v3.3h-5.2v3c1.8-0.1 3.2 0.3 4.2 1.3s1.6 2.2 1.6 3.7c0 1.6-0.5 2.8-1.6 3.8s-2.5 1.4-4.3 1.4c-1.6 0-2.9-0.3-4-0.9v-3c1.3 0.7 2.4 1.1 3.5 1.1 0.8 0 1.4-0.2 1.9-0.7s0.7-1 0.7-1.6c0-0.7-0.3-1.3-0.9-1.7s-1.5-0.6-2.5-0.6c-0.6 0-1.2 0.1-1.9 0.2v-9.3h8.5z"/>
   <path class="st0" d="m-91.2 157.2c0-0.6 0.2-1.1 0.6-1.5s0.9-0.6 1.5-0.6 1.1 0.2 1.5 0.6 0.6 0.9 0.6 1.5-0.2 1.1-0.6 1.5-0.9 0.6-1.5 0.6-1.1-0.2-1.5-0.6-0.6-0.9-0.6-1.5z"/>
   <path class="st0" d="m-75.5 142.5-3.8 6.2c0.4-0.1 0.7-0.1 1.1-0.1 1.2 0 2.3 0.5 3.1 1.4 0.9 0.9 1.3 2.2 1.3 3.7 0 1.6-0.5 2.9-1.5 4s-2.3 1.6-3.9 1.6-2.9-0.5-3.9-1.6-1.5-2.5-1.5-4.2c0-1.9 0.7-4 2.2-6.4l2.8-4.6h4.1zm-3.6 13.7c0.6 0 1-0.2 1.3-0.7s0.5-1 0.5-1.8c0-0.7-0.2-1.3-0.5-1.8s-0.8-0.7-1.4-0.7-1 0.2-1.3 0.7-0.5 1.1-0.5 1.8c0 0.8 0.2 1.3 0.5 1.7s0.8 0.8 1.4 0.8z"/>
  </g>
 </g>
 <g transform="matrix(.19532 0 0 .19532 -5.3982 -184.03)" fill="#fff">
  <g transform="matrix(.82302 0 0 -.82302 189.64 997.28)">
   <path d="m0 0c0-11.25-14-10.583-14-10.583h-14v20.333h14c14.417 0.083 14-9.75 14-9.75m-28 40.75h10.667c11.083-0.584 10.666-8.833 10.666-8.833 0-10.25-12.25-10.417-12.25-10.417h-9.083v19.25zm25.417-23.25s9.583 4.083 9.5 14.917c0 0 1.457 17.749-22.063 19.916h-26.104v-74.416h29.917s25-0.084 25 21c0 0 0.583 14.333-16.25 18.583m-67.545 49.416h109.88v-103.54h-109.88v103.54z" fill="#fff"/>
  </g>
  <g transform="matrix(.82302 0 0 -.82302 85.355 997.28)">
   <path d="m0 0c0-11.25-14-10.583-14-10.583h-14v20.333h14c14.417 0.083 14-9.75 14-9.75m-28 40.75h10.667c11.083-0.584 10.666-8.833 10.666-8.833 0-10.25-12.25-10.417-12.25-10.417h-9.083v19.25zm25.417-23.25s9.583 4.083 9.5 14.917c0 0 1.457 17.749-22.063 19.916h-26.104v-74.416h29.917s25-0.084 25 21c0 0 0.583 14.333-16.25 18.583m-67.545 49.416h109.88v-103.54h-109.88v103.54z" fill="#fff"/>
  </g>
  <g transform="matrix(.82302 0 0 -.82302 308.19 958.6)">
   <path d="m0 0v-13.75s-13.417 8.25-28.25 8.417c0 0-27.666 0.54-28.916-26.522 0 0-1-24.895 28.583-26.312 0 0 12.417-1.5 29.25 9.25v-14.25s-22.583-13.416-48.75-3.083c0 0-22 8.04-22.834 34.395 0 0-0.917 27.105 28.417 36.105 0 0 7.834 3 21.917 1.667 0 0 8.416-0.834 20.583-5.917m-87.461-83.627h109.88v103.54h-109.88v-103.54z" fill="#fff"/>
  </g>
 </g>
</svg>
