<?xml version="1.0" encoding="UTF-8" standalone="no"?>
<svg
   xmlns:dc="http://purl.org/dc/elements/1.1/"
   xmlns:cc="http://creativecommons.org/ns#"
   xmlns:rdf="http://www.w3.org/1999/02/22-rdf-syntax-ns#"
   xmlns:svg="http://www.w3.org/2000/svg"
   xmlns="http://www.w3.org/2000/svg"
   xmlns:sodipodi="http://sodipodi.sourceforge.net/DTD/sodipodi-0.dtd"
   xmlns:inkscape="http://www.inkscape.org/namespaces/inkscape"
   height="249.56219"
   width="600"
   version="1.1"
   viewBox="0 0 158.75 66.029472"
   id="svg2"
   inkscape:version="0.91 r13725"
   sodipodi:docname="BBC Radio 4 Extra.svg">
  <metadata
     id="metadata58">
    <rdf:RDF>
      <cc:Work
         rdf:about="">
        <dc:format>image/svg+xml</dc:format>
        <dc:type
           rdf:resource="http://purl.org/dc/dcmitype/StillImage" />
        <dc:title></dc:title>
      </cc:Work>
    </rdf:RDF>
  </metadata>
  <defs
     id="defs56" />
  <sodipodi:namedview
     pagecolor="#ffffff"
     bordercolor="#666666"
     borderopacity="1"
     objecttolerance="10"
     gridtolerance="10"
     guidetolerance="10"
     inkscape:pageopacity="0"
     inkscape:pageshadow="2"
     inkscape:window-width="1920"
     inkscape:window-height="1017"
     id="namedview54"
     showgrid="false"
     fit-margin-top="0"
     fit-margin-left="0"
     fit-margin-right="0"
     fit-margin-bottom="0"
     inkscape:zoom="1.357645"
     inkscape:cx="270.04237"
     inkscape:cy="96.030911"
     inkscape:window-x="-8"
     inkscape:window-y="-8"
     inkscape:window-maximized="1"
     inkscape:current-layer="svg2" />
  <rect
     style="fill:#ffffff;stroke:#ffffff;stroke-width:3.19420004"
     id="rect6"
     x="68.809998"
     y="10.469745"
     width="37.132999"
     height="43.921001" />
  <g
     id="g8"
     transform="translate(-278.69,-143.41026)"
     style="fill:#ffffff;fill-opacity:1">
    <g
       style="stroke-width:3.19420004;fill:#ffffff;fill-opacity:1"
       id="g10">
      <path
         inkscape:connector-curvature="0"
         id="path12"
         d="m 317.97,147.21 c -0.06,-0.02 -0.12,-0.03 -0.18,-0.04 l -0.07,-0.01 c -0.1,-0.01 -0.2,-0.02 -0.31,-0.03 -0.07,-0.01 -0.14,-0.01 -0.21,-0.02 -0.14,-0.01 -0.26,-0.01 -0.37,-0.01 l -0.15,0 c -0.1,0 -0.2,0.01 -0.3,0.01 -0.05,0.01 -0.1,0.01 -0.16,0.02 -0.08,0 -0.15,0.01 -0.23,0.02 l -0.07,0.01 -0.08,0.01 -0.08,0.01 c -0.04,0.01 -0.08,0.02 -0.11,0.03 -0.06,0 -0.11,0.01 -0.16,0.02 -0.32,0.07 -0.61,0.16 -0.88,0.26 -0.14,0.06 -0.28,0.12 -0.4,0.18 -0.11,0.06 -0.21,0.11 -0.31,0.17 -0.1,0.05 -0.19,0.11 -0.28,0.16 -0.05,0.04 -0.1,0.07 -0.15,0.11 l -0.12,0.09 c -0.09,0.07 -0.17,0.14 -0.25,0.2 -0.07,0.06 -0.13,0.13 -0.2,0.19 -0.05,0.06 -0.12,0.11 -0.16,0.18 -0.06,0.06 -0.12,0.12 -0.16,0.18 -0.06,0.07 -0.11,0.14 -0.16,0.21 -0.05,0.05 -0.08,0.11 -0.12,0.17 -0.03,0.04 -0.05,0.07 -0.07,0.11 -0.14,0.23 -0.26,0.47 -0.37,0.73 -0.12,0.33 -0.21,0.68 -0.26,1.05 -0.01,0.12 -0.02,0.23 -0.03,0.36 -0.01,0.09 -0.01,0.19 -0.01,0.28 l 0,0.21 c 0.01,0.08 0.02,0.15 0.02,0.22 l 0.01,0.05 c 0.01,0.09 0.02,0.17 0.04,0.25 0,0.04 0.01,0.07 0.02,0.1 0.01,0.07 0.03,0.14 0.04,0.2 0.03,0.09 0.05,0.17 0.08,0.26 0.04,0.1 0.08,0.2 0.11,0.29 0.07,0.16 0.14,0.3 0.21,0.44 0.05,0.09 0.1,0.17 0.14,0.24 0.04,0.07 0.08,0.12 0.12,0.18 0.05,0.08 0.11,0.15 0.16,0.22 0.05,0.07 0.11,0.14 0.18,0.2 0.06,0.08 0.14,0.16 0.21,0.23 l 0.03,0.04 c 0.06,0.05 0.12,0.12 0.19,0.18 0.05,0.03 0.1,0.08 0.16,0.12 0.05,0.04 0.11,0.09 0.16,0.12 0.07,0.06 0.14,0.1 0.21,0.15 0.09,0.05 0.17,0.1 0.26,0.16 0.17,0.09 0.37,0.19 0.58,0.28 0.08,0.03 0.17,0.06 0.25,0.09 0.09,0.03 0.18,0.05 0.26,0.08 0.16,0.04 0.32,0.08 0.49,0.12 0.14,0.02 0.28,0.04 0.43,0.06 0.15,0.02 0.3,0.03 0.45,0.04 0.08,0.01 0.16,0.01 0.23,0.01 l 0.12,0 c 0.28,0 0.54,-0.01 0.78,-0.03 l 0.04,0 c 0.1,-0.01 0.19,-0.02 0.28,-0.04 0.14,-0.01 0.27,-0.03 0.39,-0.06 0.08,-0.01 0.16,-0.02 0.23,-0.04 0.12,-0.02 0.23,-0.05 0.34,-0.08 0.07,-0.02 0.15,-0.04 0.22,-0.06 0.09,-0.03 0.17,-0.06 0.25,-0.08 l 0.07,-0.03 c 0.04,-0.01 0.09,-0.03 0.15,-0.05 0.08,-0.04 0.18,-0.07 0.29,-0.12 l 0.21,-0.09 c 0.07,-0.04 0.14,-0.07 0.21,-0.1 0.02,-0.02 0.06,-0.03 0.09,-0.05 l 0,-1.71 c -0.02,0.01 -0.05,0.02 -0.07,0.04 l -0.11,0.07 c -0.12,0.07 -0.23,0.14 -0.35,0.2 -0.12,0.06 -0.24,0.13 -0.37,0.19 -0.21,0.1 -0.41,0.18 -0.61,0.25 -0.37,0.13 -0.72,0.22 -1.02,0.27 -0.04,0.01 -0.07,0.02 -0.11,0.02 -0.08,0.01 -0.16,0.03 -0.24,0.03 -0.12,0.02 -0.23,0.02 -0.33,0.02 -0.06,0.01 -0.12,0.01 -0.18,0.01 -0.12,0 -0.25,0 -0.38,-0.01 -0.15,-0.01 -0.29,-0.03 -0.45,-0.05 -0.25,-0.05 -0.5,-0.11 -0.74,-0.2 -0.04,-0.01 -0.08,-0.03 -0.11,-0.04 -0.02,-0.01 -0.05,-0.02 -0.07,-0.03 -0.04,-0.02 -0.08,-0.03 -0.12,-0.05 -0.09,-0.04 -0.17,-0.08 -0.25,-0.13 -0.04,-0.02 -0.08,-0.05 -0.12,-0.07 -0.04,-0.03 -0.08,-0.05 -0.12,-0.08 -0.05,-0.03 -0.1,-0.07 -0.14,-0.11 -0.06,-0.03 -0.1,-0.08 -0.15,-0.11 l -0.05,-0.05 -0.03,-0.03 -0.01,-0.02 -0.03,-0.02 c -0.07,-0.07 -0.14,-0.15 -0.21,-0.23 -0.03,-0.04 -0.07,-0.09 -0.1,-0.13 -0.03,-0.04 -0.06,-0.09 -0.09,-0.13 -0.03,-0.04 -0.05,-0.08 -0.07,-0.12 -0.04,-0.06 -0.07,-0.12 -0.1,-0.18 -0.03,-0.05 -0.05,-0.1 -0.07,-0.15 -0.04,-0.09 -0.07,-0.18 -0.09,-0.26 -0.03,-0.06 -0.05,-0.13 -0.06,-0.19 -0.04,-0.18 -0.07,-0.34 -0.08,-0.48 -0.01,-0.06 -0.01,-0.11 -0.01,-0.15 -0.01,-0.07 -0.01,-0.13 -0.01,-0.18 l 0,-0.11 c 0.01,-0.09 0.02,-0.22 0.04,-0.36 0.01,-0.09 0.03,-0.18 0.05,-0.28 0.01,-0.06 0.03,-0.12 0.05,-0.19 0.03,-0.06 0.04,-0.12 0.07,-0.19 0.01,-0.04 0.03,-0.08 0.05,-0.13 0.03,-0.06 0.06,-0.11 0.08,-0.17 0.03,-0.05 0.05,-0.09 0.08,-0.13 0.06,-0.1 0.12,-0.2 0.19,-0.3 0.03,-0.03 0.05,-0.07 0.08,-0.1 0.04,-0.04 0.08,-0.09 0.12,-0.13 0.02,-0.02 0.04,-0.05 0.06,-0.07 0.31,-0.31 0.67,-0.55 1.03,-0.71 0.06,-0.03 0.12,-0.06 0.18,-0.08 0.06,-0.02 0.11,-0.04 0.17,-0.06 0.06,-0.02 0.13,-0.04 0.19,-0.06 0.06,-0.01 0.13,-0.03 0.18,-0.05 0.07,-0.01 0.13,-0.02 0.19,-0.03 0.06,-0.01 0.13,-0.02 0.19,-0.03 0.07,-0.01 0.14,-0.02 0.2,-0.02 0.13,-0.01 0.25,-0.02 0.37,-0.02 l 0.12,0 c 0.09,0 0.17,0.01 0.26,0.01 0.06,0.01 0.12,0.01 0.18,0.01 0.1,0.02 0.21,0.03 0.31,0.04 0.08,0.02 0.17,0.03 0.25,0.04 0.12,0.03 0.23,0.06 0.34,0.09 0.06,0.01 0.12,0.03 0.18,0.05 0.08,0.02 0.15,0.05 0.21,0.06 0.09,0.04 0.15,0.05 0.15,0.05 0.08,0.03 0.16,0.07 0.24,0.1 0.11,0.05 0.22,0.09 0.32,0.14 0.08,0.04 0.16,0.08 0.23,0.11 0.07,0.03 0.12,0.06 0.17,0.09 0.1,0.04 0.18,0.09 0.24,0.12 l 0.18,0.1 0,-1.68 c 0,0 -0.11,-0.04 -0.29,-0.11 -0.08,-0.03 -0.17,-0.07 -0.28,-0.11 -0.06,-0.02 -0.13,-0.04 -0.19,-0.07 -0.05,-0.02 -0.11,-0.04 -0.17,-0.05 -0.06,-0.02 -0.13,-0.05 -0.19,-0.07 -0.06,-0.01 -0.11,-0.03 -0.16,-0.04 l -0.05,-0.02 c -0.04,-0.01 -0.1,-0.02 -0.14,-0.04 -0.07,-0.01 -0.13,-0.03 -0.19,-0.05 -0.04,-0.01 -0.08,-0.01 -0.13,-0.02 -0.06,-0.02 -0.13,-0.04 -0.2,-0.05 -0.07,-0.02 -0.14,-0.03 -0.21,-0.03 m -8.43,-1.76 13.38,0 0,12.59 -13.38,0 z"
         style="fill:#ffffff;fill-opacity:1" />
      <path
         inkscape:connector-curvature="0"
         id="path14"
         d="m 299.25,152.41 0,2.48 1.61,0 c 0,0 0.03,-0.01 0.08,-0.01 0.06,0 0.13,0 0.23,-0.01 0.17,-0.02 0.4,-0.05 0.63,-0.13 0.2,-0.06 0.39,-0.16 0.54,-0.31 0.06,-0.06 0.11,-0.12 0.15,-0.18 0.12,-0.2 0.16,-0.4 0.16,-0.52 0.01,-0.05 0.01,-0.08 0.01,-0.08 l 0,-0.06 c 0,-0.04 -0.01,-0.14 -0.04,-0.24 -0.03,-0.11 -0.08,-0.25 -0.18,-0.38 -0.02,-0.02 -0.05,-0.04 -0.07,-0.06 -0.04,-0.05 -0.09,-0.09 -0.14,-0.13 -0.09,-0.06 -0.19,-0.12 -0.3,-0.17 -0.14,-0.06 -0.31,-0.11 -0.49,-0.14 -0.08,-0.02 -0.18,-0.03 -0.28,-0.04 -0.06,-0.01 -0.12,-0.01 -0.18,-0.01 -0.06,-0.01 -0.12,-0.01 -0.18,-0.01 z"
         style="fill:#ffffff;fill-opacity:1" />
      <path
         inkscape:connector-curvature="0"
         id="path16"
         d="m 299.25,148.65 0,2.34 0.78,0 0.12,0 c 0.06,0 0.12,0 0.18,-0.01 0.16,-0.01 0.38,-0.03 0.6,-0.09 0.05,-0.01 0.09,-0.03 0.13,-0.04 0.17,-0.07 0.34,-0.15 0.47,-0.28 0.1,-0.1 0.17,-0.22 0.21,-0.33 0.06,-0.13 0.08,-0.26 0.09,-0.35 l 0,-0.13 0,-0.1 c 0,-0.1 -0.02,-0.27 -0.11,-0.43 -0.04,-0.08 -0.09,-0.15 -0.16,-0.22 -0.09,-0.09 -0.19,-0.16 -0.31,-0.21 -0.22,-0.09 -0.47,-0.13 -0.68,-0.14 -0.09,-0.01 -0.18,-0.01 -0.25,-0.01 z"
         style="fill:#ffffff;fill-opacity:1" />
      <path
         inkscape:connector-curvature="0"
         id="path18"
         d="m 297.63,147.21 0,9.08 3.41,0 c 0,0 1.67,0.04 2.59,-0.88 0.75,-0.75 0.69,-1.61 0.69,-1.61 0,0 0.06,-0.91 -0.64,-1.6 -0.59,-0.59 -1.34,-0.75 -1.34,-0.75 0,0 0.34,-0.16 0.6,-0.42 0.12,-0.12 0.56,-0.51 0.56,-1.47 0,-0.96 -0.64,-1.51 -0.64,-1.51 0,0 -0.7,-0.84 -2.29,-0.84 z m -3.51,-1.76 13.38,0 0,12.59 -13.38,0 z"
         style="fill:#ffffff;fill-opacity:1" />
      <path
         inkscape:connector-curvature="0"
         id="path20"
         d="m 283.83,152.41 0,2.48 1.61,0 c 0,0 0.03,-0.01 0.08,-0.01 0.06,0 0.14,0 0.23,-0.01 0.17,-0.02 0.4,-0.05 0.62,-0.13 0.21,-0.06 0.4,-0.16 0.55,-0.31 0.06,-0.06 0.11,-0.12 0.15,-0.18 0.12,-0.2 0.15,-0.4 0.16,-0.52 0.01,-0.05 0.01,-0.08 0.01,-0.08 l 0,-0.06 c -0.01,-0.04 -0.02,-0.14 -0.04,-0.24 -0.03,-0.11 -0.08,-0.25 -0.19,-0.38 -0.01,-0.02 -0.03,-0.04 -0.06,-0.06 -0.04,-0.05 -0.09,-0.09 -0.14,-0.13 -0.09,-0.06 -0.19,-0.12 -0.3,-0.17 -0.14,-0.06 -0.31,-0.11 -0.48,-0.14 -0.09,-0.02 -0.19,-0.03 -0.29,-0.04 -0.06,-0.01 -0.12,-0.01 -0.18,-0.01 -0.06,-0.01 -0.12,-0.01 -0.17,-0.01 z"
         style="fill:#ffffff;fill-opacity:1" />
      <path
         inkscape:connector-curvature="0"
         id="path22"
         d="m 283.83,148.65 0,2.34 0.78,0 0.12,0 c 0.05,0 0.12,0 0.18,-0.01 0.15,-0.01 0.38,-0.03 0.6,-0.09 0.04,-0.01 0.09,-0.03 0.13,-0.04 0.17,-0.07 0.34,-0.15 0.47,-0.28 0.1,-0.1 0.17,-0.22 0.21,-0.33 0.06,-0.13 0.08,-0.26 0.09,-0.35 l 0,-0.13 0,-0.1 c -0.01,-0.1 -0.03,-0.27 -0.11,-0.43 -0.03,-0.08 -0.09,-0.15 -0.16,-0.22 -0.09,-0.09 -0.19,-0.16 -0.31,-0.21 -0.22,-0.09 -0.47,-0.13 -0.68,-0.14 -0.09,-0.01 -0.18,-0.01 -0.24,-0.01 z"
         style="fill:#ffffff;fill-opacity:1" />
      <path
         inkscape:connector-curvature="0"
         id="path24"
         d="m 282.21,147.21 0,9.08 3.41,0 c 0,0 1.67,0.04 2.58,-0.88 0.75,-0.75 0.7,-1.61 0.7,-1.61 0,0 0.05,-0.91 -0.64,-1.6 -0.59,-0.59 -1.34,-0.75 -1.34,-0.75 0,0 0.34,-0.16 0.6,-0.42 0.12,-0.12 0.56,-0.52 0.56,-1.47 0,-0.96 -0.64,-1.52 -0.64,-1.52 0,0 -0.7,-0.83 -2.29,-0.83 z m -3.52,-1.76 13.39,0 0,12.59 -13.39,0 z"
         style="fill:#ffffff;fill-opacity:1" />
      <path
         inkscape:connector-curvature="0"
         id="path26"
         d="m 278.69,161.16 0,10.42 1.5,0 0,-4.53 0.62,0 c 0.77,0 1.39,0.25 2.77,2.39 l 1.37,2.13 1.79,0 c -0.72,-0.99 -0.98,-1.34 -1.42,-2.06 -0.79,-1.29 -1.37,-2.25 -2.32,-2.88 1.11,-0.44 1.74,-1.34 1.74,-2.55 0,-1.8 -1.31,-2.92 -3.42,-2.92 z m 1.5,1.29 0.97,0 c 1.44,0 2.03,0.59 2.04,1.57 0.01,0.87 -0.44,1.69 -2.04,1.69 l -0.97,0 z"
         style="fill:#ffffff;fill-opacity:1" />
      <path
         inkscape:connector-curvature="0"
         id="path28"
         d="m 292.18,161.11 -1.05,0 -4.48,10.46 1.53,0 1.32,-3.06 4.42,0 1.39,3.06 1.53,0 z m -0.55,2.28 1.68,3.77 -3.24,0 z"
         style="fill:#ffffff;fill-opacity:1" />
      <path
         inkscape:connector-curvature="0"
         id="path30"
         d="m 298.08,171.58 4.06,0 c 3.44,0 5.52,-2.54 5.52,-5.21 0,-2.46 -1.69,-5.21 -5.53,-5.21 l -4.05,0 z m 1.5,-9.07 2.3,0 c 2.92,0 4.24,1.77 4.24,3.86 0,1.29 -0.77,3.87 -4.16,3.87 l -2.38,0 z"
         style="fill:#ffffff;fill-opacity:1" />
    </g>
    <path
       inkscape:connector-curvature="0"
       id="path32"
       d="m 309.39,161.16 0,10.41 1.49,0 0,-10.41 z"
       style="color:#000000;text-indent:0;text-decoration:none;text-decoration-line:none;text-decoration-style:solid;text-decoration-color:#000000;text-transform:none;block-progression:tb;white-space:normal;isolation:auto;mix-blend-mode:normal;solid-color:#000000;color-rendering:auto;image-rendering:auto;shape-rendering:auto;fill:#ffffff;fill-opacity:1" />
    <path
       style="stroke-width:3.19420004;fill:#ffffff;fill-opacity:1"
       inkscape:connector-curvature="0"
       id="path34"
       d="m 312.61,166.37 c 0,2.82 2.16,5.34 5.56,5.34 3.52,0 5.63,-2.53 5.63,-5.34 0,-2.9 -2.16,-5.34 -5.6,-5.34 -3.38,0 -5.59,2.46 -5.59,5.34 m 1.54,0 c 0,-2.29 1.73,-3.97 4.05,-3.97 2.33,0 4.06,1.68 4.06,3.97 0,2.28 -1.73,3.97 -4.06,3.97 -2.32,0 -4.05,-1.69 -4.05,-3.97" />
  </g>
  <g
     style="fill:#853f98"
     id="g36"
     transform="translate(-278.69,-143.41026)">
    <path
       style="stroke-width:3.19420004"
       inkscape:connector-curvature="0"
       id="path38"
       d="m 365.76,143.41 c -18.23,0 -33,14.78 -33,33.02 0,18.23 14.77,33.01 33,33.01 18.22,0 33,-14.78 33,-33.01 0,-18.24 -14.78,-33.02 -33,-33.02 m 17.91,46.13 -6.72,0 0.02,8.51 -12.02,0.01 -0.02,-7.65 c 0,0 -0.01,-0.85 -1.02,-0.88 l -17.2,0.01 0.01,-7.05 c 0,-1.03 0.51,-2.54 1.12,-3.37 l 18.39,-24.65 c 0.62,-0.83 1.96,-1.5 2.99,-1.5 l 7.76,0 -0.01,26.68 6.71,-0.02 z" />
    <path
       style="stroke-width:3.19420004"
       inkscape:connector-curvature="0"
       id="path40"
       d="m 365.96,172.19 c -2.6,0.06 -4.69,2.22 -4.63,4.83 0.06,2.27 1.76,4.13 3.97,4.53 l 1.7,0.3 c -0.45,3.01 -1.57,5.26 -4.1,7.12 3.41,-1.51 6.03,-4.78 7.24,-8.24 1.2,-3.46 0.52,-8.63 -4.18,-8.54" />
    <path
       inkscape:connector-curvature="0"
       id="path42"
       d="m 390.5,153.41 5.78,0.01 2.7,4.55 2.82,-4.53 4.19,-0.03 -4.87,7.17 5.14,7.61 -4.16,0 -3.13,-5.11 -3.09,5.11 -2.34,-0.44 -3.04,-14.34 z" />
  </g>
  <path
     style="fill:#ffffff"
     inkscape:connector-curvature="0"
     id="path44"
     d="m 110.07,9.75974 c -5.98,0 -7.82,4.94 -7.82,7.63 0,4.53 3.42,7.83 7.82,7.83 5.81,0 7.12,-5.22 7.12,-5.22 l -4.08,0 c 0,0 -1.13,1.74 -3.15,1.74 -2.91,0 -3.37,-2.61 -3.37,-2.61 l 10.87,0 0,-1.74 c 0,-3.03 -1.88,-7.63 -7.39,-7.63 z m -0.11,3.26 c 2.84,0 3.37,2.64 3.37,2.64 l -6.74,-0.03 c 0,0 0.46,-2.61 3.37,-2.61 z" />
  <g
     style="fill:#853f98"
     id="g46"
     transform="translate(-278.69,-143.41026)">
    <path
       inkscape:connector-curvature="0"
       id="path48"
       d="m 414.41,164.71 0,3.48 -1.31,0 c -2.97,0 -5.21,-2.49 -5.21,-4.78 l 0,-6.52 -1.74,0 0,-3.48 1.74,0 0,-3.48 3.47,0 0,3.48 2.61,0 0,3.48 -2.61,0 0,5.21 c 0,1.69 0.68,2.61 2.18,2.61 l 0.87,0 z" />
    <path
       inkscape:connector-curvature="0"
       id="path50"
       d="m 415.28,168.19 0,-14.78 3.47,0 0,1.52 c 0,0 0.78,-1.71 4.78,-1.71 l 0,3.67 -1.76,0 c -1.85,0 -3.02,1.86 -3.02,3.37 l 0,7.93 z" />
    <path
       inkscape:connector-curvature="0"
       id="path52"
       d="m 430.84,153.17 c -3.44,0 -6.95,2.01 -6.95,5 l 3.56,0.03 c 0,-0.87 1.25,-2.01 3.36,-2.01 1.53,0 2.72,0.73 2.72,1.41 0,0.96 -1.24,1.46 -4.4,1.82 -2.29,0.21 -5.84,0.89 -5.84,4.21 0,1.9 1.43,4.86 5.92,4.86 3.4,0 4.76,-2.14 4.76,-2.14 0,1.15 0.13,1.84 0.13,1.84 l 3.34,0 c 0,0 -0.43,-1.5 -0.43,-2.82 l 0,-7.66 c 0,-1.94 -1.84,-4.54 -6.17,-4.54 z m 2.69,8.12 0,1.25 c 0,0.99 -0.78,2.61 -3.83,2.61 -2.14,0 -2.69,-0.83 -2.69,-1.52 0,-1.21 1.73,-1.39 2.8,-1.55 1.34,-0.13 2.22,-0.29 3.72,-0.79 z" />
  </g>
</svg>
