<?xml version="1.0" encoding="UTF-8" standalone="no"?>
<!-- Generator: Adobe Illustrator 19.1.0, SVG Export Plug-In . SVG Version: 6.00 Build 0)  -->

<svg
   xmlns:dc="http://purl.org/dc/elements/1.1/"
   xmlns:cc="http://creativecommons.org/ns#"
   xmlns:rdf="http://www.w3.org/1999/02/22-rdf-syntax-ns#"
   xmlns:svg="http://www.w3.org/2000/svg"
   xmlns="http://www.w3.org/2000/svg"
   xmlns:sodipodi="http://sodipodi.sourceforge.net/DTD/sodipodi-0.dtd"
   xmlns:inkscape="http://www.inkscape.org/namespaces/inkscape"
   version="1.1"
   id="Layer_1"
   inkscape:version="0.91 r13725"
   sodipodi:docname="BBC Radio Gloucestershire.svg"
   width="236.60001"
   height="66.344795">
  <metadata
     id="metadata51">
    <rdf:RDF>
      <cc:Work
         rdf:about="">
        <dc:format>image/svg+xml</dc:format>
        <dc:type
           rdf:resource="http://purl.org/dc/dcmitype/StillImage" />
        <dc:title></dc:title>
      </cc:Work>
    </rdf:RDF>
  </metadata>
  <defs
     id="defs49" />
  <sodipodi:namedview
     pagecolor="#ffffff"
     bordercolor="#666666"
     borderopacity="1"
     objecttolerance="10"
     gridtolerance="10"
     guidetolerance="10"
     inkscape:pageopacity="0"
     inkscape:pageshadow="2"
     inkscape:window-width="640"
     inkscape:window-height="480"
     id="namedview47"
     showgrid="false"
     fit-margin-top="0"
     fit-margin-left="0"
     fit-margin-right="0"
     fit-margin-bottom="0"
     inkscape:zoom="2.36"
     inkscape:cx="226"
     inkscape:cy="121.6"
     inkscape:current-layer="Layer_1" />
  <style
     type="text/css"
     id="style3">
	.st0{fill:#000000;}
</style>
  <g
     id="Local_-_WHITE"
     transform="translate(176,-105.25521)">
    <g
       id="Radio_Gloucestershire">
      <path
         class="st0"
         d="m -175.3,130.6 7,0 c 1.5,0 2.8,0.4 3.7,1.3 1,0.9 1.4,1.9 1.4,3.2 0,1.7 -0.9,3 -2.7,3.8 0.8,0.4 1.5,1.3 2.2,2.9 0.7,1.6 1.4,3.1 2.1,4.4 l -4.3,0 c -0.3,-0.5 -0.7,-1.5 -1.3,-3 -0.6,-1.5 -1.2,-2.4 -1.6,-2.8 -0.5,-0.4 -0.9,-0.6 -1.5,-0.6 l -1.1,0 0,6.4 -3.9,0 0,-15.6 z m 3.9,2.9 0,3.6 2.1,0 c 0.7,0 1.2,-0.2 1.6,-0.5 0.4,-0.3 0.6,-0.8 0.6,-1.3 0,-1.2 -0.7,-1.8 -2.2,-1.8 l -2.1,0 z"
         id="path7"
         inkscape:connector-curvature="0"
         style="fill:#000000" />
      <path
         class="st0"
         d="m -150.4,130.6 7,15.7 -4.2,0 -1.3,-3.1 -7,0 -1.2,3.1 -4.1,0 6.3,-15.7 4.5,0 z m 0.4,9.9 -2.5,-6.1 -2.3,6.1 4.8,0 z"
         id="path9"
         inkscape:connector-curvature="0"
         style="fill:#000000" />
      <path
         class="st0"
         d="m -141.4,130.6 6.9,0 c 2.7,0 4.8,0.7 6.3,2.2 1.6,1.5 2.3,3.4 2.3,5.7 0,2.4 -0.8,4.3 -2.4,5.7 -1.6,1.4 -3.8,2.1 -6.7,2.1 l -6.5,0 0,-15.7 0.1,0 z m 3.9,2.9 0,9.9 2.5,0 c 1.7,0 2.9,-0.5 3.8,-1.4 0.9,-0.9 1.3,-2.1 1.3,-3.6 0,-1.5 -0.4,-2.8 -1.3,-3.6 -0.9,-0.9 -2.2,-1.3 -3.8,-1.3 l -2.5,0 z"
         id="path11"
         inkscape:connector-curvature="0"
         style="fill:#000000" />
      <path
         class="st0"
         d="m -118.7,130.6 0,15.7 -3.9,0 0,-15.7 3.9,0 z"
         id="path13"
         inkscape:connector-curvature="0"
         style="fill:#000000" />
      <path
         class="st0"
         d="m -106.5,130.4 c 2.7,0 4.8,0.8 6.5,2.4 1.7,1.6 2.5,3.5 2.5,5.6 0,2.2 -0.8,4.1 -2.5,5.6 -1.7,1.5 -3.8,2.4 -6.5,2.4 -2.7,0 -4.8,-0.8 -6.5,-2.4 -1.7,-1.6 -2.5,-3.5 -2.5,-5.7 0,-2.1 0.8,-4 2.5,-5.6 1.7,-1.4 3.8,-2.3 6.5,-2.3 z m 0,12.9 c 1.5,0 2.7,-0.4 3.6,-1.3 0.9,-0.9 1.4,-2 1.4,-3.5 0,-1.4 -0.5,-2.6 -1.4,-3.5 -0.9,-0.9 -2.1,-1.3 -3.6,-1.3 -1.5,0 -2.7,0.4 -3.6,1.3 -0.9,0.9 -1.4,2 -1.4,3.5 0,1.4 0.5,2.6 1.4,3.5 0.9,0.8 2.1,1.3 3.6,1.3 z"
         id="path15"
         inkscape:connector-curvature="0"
         style="fill:#000000" />
      <path
         class="st0"
         d="m -160.4,156.7 0,3.4 c -2,-1 -4,-1.4 -5.9,-1.4 -1.8,0 -3.3,0.5 -4.3,1.4 -1,0.9 -1.5,2.1 -1.5,3.5 0,1.4 0.5,2.5 1.5,3.3 1,0.8 2.3,1.3 3.9,1.3 0.9,0 1.7,-0.2 2.6,-0.6 l 0,-1.8 -2.3,0 0,-2.9 6.3,0 0,6.4 c -0.6,0.6 -1.6,1.1 -2.8,1.5 -1.3,0.4 -2.5,0.6 -3.8,0.6 -2.7,0 -5,-0.8 -6.7,-2.3 -1.7,-1.3 -2.6,-3.2 -2.6,-5.6 0,-2.4 0.9,-4.3 2.6,-5.8 1.8,-1.5 4,-2.3 6.8,-2.3 2.3,0 4.4,0.5 6.2,1.3 z"
         id="path17"
         inkscape:connector-curvature="0"
         style="fill:#000000" />
      <path
         class="st0"
         d="m -144.5,168.5 0,2.9 -12,0 0,-15.8 3.9,0 0,12.8 8.1,0.1 0,0 z"
         id="path19"
         inkscape:connector-curvature="0"
         style="fill:#000000" />
      <path
         class="st0"
         d="m -133.7,155.4 c 2.7,0 4.8,0.8 6.5,2.4 1.7,1.6 2.5,3.5 2.5,5.6 0,2.2 -0.8,4.1 -2.5,5.6 -1.7,1.5 -3.8,2.4 -6.5,2.4 -2.7,0 -4.8,-0.8 -6.5,-2.4 -1.7,-1.6 -2.5,-3.5 -2.5,-5.7 0,-2.1 0.8,-4 2.5,-5.6 1.6,-1.4 3.8,-2.3 6.5,-2.3 z m 0,12.9 c 1.5,0 2.7,-0.4 3.6,-1.3 0.9,-0.9 1.4,-2 1.4,-3.5 0,-1.4 -0.5,-2.6 -1.4,-3.5 -0.9,-0.9 -2.1,-1.3 -3.6,-1.3 -1.5,0 -2.7,0.4 -3.6,1.3 -0.9,0.9 -1.4,2 -1.4,3.5 0,1.4 0.5,2.6 1.4,3.5 0.9,0.8 2.1,1.3 3.6,1.3 z"
         id="path21"
         inkscape:connector-curvature="0"
         style="fill:#000000" />
      <path
         class="st0"
         d="m -110,155.6 3.9,0 0,8.9 c 0,2.3 -0.7,4 -2,5.2 -1.3,1.2 -3.3,1.8 -5.8,1.8 -2.5,0 -4.4,-0.6 -5.8,-1.8 -1.4,-1.2 -2.1,-2.9 -2.1,-5.2 l 0,-8.9 3.9,0 0,9 c 0,1.1 0.4,2 1.1,2.6 0.7,0.7 1.7,1 2.8,1 1.2,0 2.2,-0.3 2.9,-1 0.7,-0.7 1.1,-1.6 1.1,-2.9 l 0,-8.7 z"
         id="path23"
         inkscape:connector-curvature="0"
         style="fill:#000000" />
      <path
         class="st0"
         d="m -87.9,166.6 0,3.4 c -2,1 -4,1.6 -6.2,1.6 -2.8,0 -5,-0.8 -6.7,-2.3 -1.7,-1.5 -2.5,-3.4 -2.5,-5.7 0,-2.3 0.9,-4.2 2.6,-5.7 1.7,-1.6 4,-2.4 6.8,-2.4 2.2,0 4.1,0.5 5.7,1.4 l 0,3.5 c -1.9,-1.1 -3.7,-1.6 -5.4,-1.6 -1.7,0 -3,0.4 -4.1,1.3 -1.1,0.9 -1.6,2 -1.6,3.4 0,1.4 0.5,2.5 1.6,3.4 1,0.9 2.4,1.4 4,1.4 0.8,0 1.6,-0.1 2.3,-0.3 0.9,-0.2 2,-0.7 3.5,-1.4 z"
         id="path25"
         inkscape:connector-curvature="0"
         style="fill:#000000" />
      <path
         class="st0"
         d="m -72.9,168.5 0,2.9 -11.6,0 0,-15.8 11.4,0 0,2.9 -7.5,0 0,3.3 7.2,0 0,2.9 -7.2,0 0,3.8 c 0,0 7.7,0 7.7,0 z"
         id="path27"
         inkscape:connector-curvature="0"
         style="fill:#000000" />
      <path
         class="st0"
         d="m -59.1,156.7 0,3.1 c -2.1,-0.9 -3.7,-1.4 -5,-1.4 -0.7,0 -1.3,0.1 -1.7,0.4 -0.4,0.2 -0.6,0.5 -0.6,0.9 0,0.3 0.1,0.6 0.4,0.9 0.3,0.3 1,0.6 2.2,1 1.2,0.4 2.1,0.8 2.8,1.2 0.7,0.4 1.3,0.9 1.8,1.5 0.5,0.7 0.8,1.5 0.8,2.5 0,1.5 -0.6,2.6 -1.7,3.5 -1.1,0.9 -2.6,1.3 -4.4,1.3 -1.9,0 -3.8,-0.5 -5.7,-1.5 l 0,-3.4 c 1,0.7 2,1.2 2.8,1.5 0.8,0.3 1.7,0.5 2.6,0.5 1.5,0 2.3,-0.5 2.3,-1.4 0,-0.3 -0.2,-0.6 -0.5,-0.9 -0.3,-0.3 -1,-0.6 -2.2,-1.1 -1.2,-0.4 -2.1,-0.8 -2.8,-1.2 -0.7,-0.4 -1.3,-0.9 -1.8,-1.5 -0.5,-0.6 -0.7,-1.5 -0.7,-2.6 0,-1.3 0.5,-2.4 1.6,-3.3 1.1,-0.9 2.5,-1.2 4.4,-1.2 1.8,-0.1 3.6,0.4 5.4,1.2 z"
         id="path29"
         inkscape:connector-curvature="0"
         style="fill:#000000" />
      <path
         class="st0"
         d="m -41.4,155.6 0,2.9 -5.7,0 0,12.8 -3.9,0 0,-12.8 -5.7,0 0,-2.9 c 0,0 15.3,0 15.3,0 z"
         id="path31"
         inkscape:connector-curvature="0"
         style="fill:#000000" />
      <path
         class="st0"
         d="m -27.2,168.5 0,2.9 -11.6,0 0,-15.8 11.4,0 0,2.9 -7.5,0 0,3.3 7.2,0 0,2.9 -7.2,0 0,3.8 c 0,0 7.7,0 7.7,0 z"
         id="path33"
         inkscape:connector-curvature="0"
         style="fill:#000000" />
      <path
         class="st0"
         d="m -24,155.6 7,0 c 1.5,0 2.8,0.4 3.7,1.3 1,0.9 1.4,1.9 1.4,3.2 0,1.7 -0.9,3 -2.7,3.8 0.8,0.4 1.5,1.3 2.2,2.9 0.7,1.6 1.4,3.1 2.1,4.4 l -4.3,0 c -0.3,-0.5 -0.7,-1.5 -1.3,-3 -0.6,-1.5 -1.2,-2.4 -1.6,-2.8 -0.5,-0.4 -0.9,-0.6 -1.5,-0.6 l -1.1,0 0,6.4 -3.9,0 0,-15.6 z m 3.9,2.9 0,3.6 2.1,0 c 0.7,0 1.2,-0.2 1.6,-0.5 0.4,-0.3 0.6,-0.8 0.6,-1.3 0,-1.2 -0.7,-1.8 -2.2,-1.8 0,0 -2.1,0 -2.1,0 z"
         id="path35"
         inkscape:connector-curvature="0"
         style="fill:#000000" />
      <path
         class="st0"
         d="m 2.4,156.7 0,3.1 c -2.1,-0.9 -3.7,-1.4 -5,-1.4 -0.7,0 -1.3,0.1 -1.7,0.4 -0.4,0.2 -0.6,0.5 -0.6,0.9 0,0.3 0.1,0.6 0.4,0.9 0.3,0.3 1,0.6 2.2,1 1.2,0.4 2.1,0.8 2.8,1.2 0.7,0.4 1.3,0.9 1.8,1.5 0.5,0.7 0.8,1.5 0.8,2.5 0,1.5 -0.6,2.6 -1.7,3.5 -1.1,0.9 -2.6,1.3 -4.4,1.3 -1.9,0 -3.8,-0.5 -5.7,-1.5 l 0,-3.4 c 1,0.7 2,1.2 2.8,1.5 0.8,0.3 1.7,0.5 2.6,0.5 1.5,0 2.3,-0.5 2.3,-1.4 0,-0.3 -0.2,-0.6 -0.5,-0.9 -0.3,-0.3 -1,-0.6 -2.2,-1.1 -1.2,-0.4 -2.1,-0.8 -2.8,-1.2 -0.7,-0.4 -1.3,-0.9 -1.8,-1.5 C -8.8,162 -9,161.1 -9,160 c 0,-1.3 0.5,-2.4 1.6,-3.3 1.1,-0.9 2.5,-1.2 4.4,-1.2 1.8,-0.1 3.6,0.4 5.4,1.2 z"
         id="path37"
         inkscape:connector-curvature="0"
         style="fill:#000000" />
      <path
         class="st0"
         d="m 21.6,155.6 0,15.7 -3.9,0 0,-6.3 -7.8,0 0,6.3 -4,0 0,-15.7 3.9,0 0,6.3 7.8,0 0,-6.3 4,0 z"
         id="path39"
         inkscape:connector-curvature="0"
         style="fill:#000000" />
      <path
         class="st0"
         d="m 29.3,155.6 0,15.7 -3.9,0 0,-15.7 3.9,0 z"
         id="path41"
         inkscape:connector-curvature="0"
         style="fill:#000000" />
      <path
         class="st0"
         d="m 33.2,155.6 7,0 c 1.5,0 2.8,0.4 3.7,1.3 1,0.9 1.4,1.9 1.4,3.2 0,1.7 -0.9,3 -2.7,3.8 0.8,0.4 1.5,1.3 2.2,2.9 0.7,1.6 1.4,3.1 2.1,4.4 l -4.3,0 c -0.3,-0.5 -0.7,-1.5 -1.3,-3 -0.6,-1.5 -1.2,-2.4 -1.6,-2.8 -0.5,-0.4 -0.9,-0.6 -1.5,-0.6 l -1.1,0 0,6.4 -3.9,0 0,-15.6 0,0 z m 3.9,2.9 0,3.6 2.1,0 c 0.7,0 1.2,-0.2 1.6,-0.5 0.4,-0.3 0.6,-0.8 0.6,-1.3 0,-1.2 -0.7,-1.8 -2.2,-1.8 0,0 -2.1,0 -2.1,0 z"
         id="path43"
         inkscape:connector-curvature="0"
         style="fill:#000000" />
      <path
         class="st0"
         d="m 60.6,168.5 0,2.9 -11.6,0 0,-15.8 11.4,0 0,2.9 -7.5,0 0,3.3 7.2,0 0,2.9 -7.2,0 0,3.8 c 0,0 7.7,0 7.7,0 z"
         id="path45"
         inkscape:connector-curvature="0"
         style="fill:#000000" />
    </g>
  </g>
  <g
     transform="matrix(0.19531773,0,0,0.19531773,-5.3982304,-184.02914)"
     id="g6">
    <g
       transform="matrix(0.82302261,0,0,-0.82302261,189.63913,997.27701)"
       style="fill:#000000"
       id="g8">
      <path
         style="fill:#000000;fill-rule:nonzero"
         d="m 0,0 c 0,-11.25 -14,-10.583 -14,-10.583 l -14,0 0,20.333 14,0 C 0.417,9.833 0,0 0,0 m -28,40.75 10.667,0 c 11.083,-0.584 10.666,-8.833 10.666,-8.833 0,-10.25 -12.25,-10.417 -12.25,-10.417 l -9.083,0 0,19.25 z M -2.583,17.5 c 0,0 9.583,4.083 9.5,14.917 0,0 1.457,17.749 -22.063,19.916 l -26.104,0 0,-74.416 29.917,0 c 0,0 25,-0.084 25,21 0,0 0.583,14.333 -16.25,18.583 m -67.545,49.4156 109.878,0 0,-103.544 -109.878,0 0,103.544 z"
         id="path10"
         inkscape:connector-curvature="0" />
    </g>
    <g
       transform="matrix(0.82302261,0,0,-0.82302261,85.355129,997.27701)"
       style="fill:#000000"
       id="g12">
      <path
         d="m 0,0 c 0,-11.25 -14,-10.583 -14,-10.583 l -14,0 0,20.333 14,0 C 0.417,9.833 0,0 0,0 m -28,40.75 10.667,0 c 11.083,-0.584 10.666,-8.833 10.666,-8.833 0,-10.25 -12.25,-10.417 -12.25,-10.417 l -9.083,0 0,19.25 z M -2.583,17.5 c 0,0 9.583,4.083 9.5,14.917 0,0 1.457,17.749 -22.063,19.916 l -26.104,0 0,-74.416 29.917,0 c 0,0 25,-0.084 25,21 0,0 0.583,14.333 -16.25,18.583 m -67.545,49.4156 109.878,0 0,-103.544 -109.878,0 0,103.544 z"
         style="fill:#000000;fill-rule:nonzero"
         id="path14"
         inkscape:connector-curvature="0" />
    </g>
    <g
       transform="matrix(0.82302261,0,0,-0.82302261,308.1885,958.5961)"
       style="fill:#000000"
       id="g16">
      <path
         d="m 0,0 0,-13.75 c 0,0 -13.417,8.25 -28.25,8.417 0,0 -27.666,0.54 -28.916,-26.522 0,0 -1,-24.895 28.583,-26.312 0,0 12.417,-1.5 29.25,9.25 l 0,-14.25 c 0,0 -22.583,-13.416 -48.75,-3.083 0,0 -22,8.04 -22.834,34.395 0,0 -0.917,27.105 28.417,36.105 0,0 7.834,3 21.917,1.667 0,0 8.416,-0.834 20.583,-5.917 m -87.461,-83.627 109.878,0 0,103.544 -109.878,0 0,-103.544 z"
         style="fill:#000000;fill-rule:nonzero"
         id="path18"
         inkscape:connector-curvature="0" />
    </g>
  </g>
</svg>
