<?xml version="1.0" encoding="UTF-8" standalone="no"?>
<svg
   xmlns:dc="http://purl.org/dc/elements/1.1/"
   xmlns:cc="http://creativecommons.org/ns#"
   xmlns:rdf="http://www.w3.org/1999/02/22-rdf-syntax-ns#"
   xmlns:svg="http://www.w3.org/2000/svg"
   xmlns="http://www.w3.org/2000/svg"
   xmlns:sodipodi="http://sodipodi.sourceforge.net/DTD/sodipodi-0.dtd"
   xmlns:inkscape="http://www.inkscape.org/namespaces/inkscape"
   height="243.78178"
   width="599.99628"
   version="1.1"
   viewBox="0 0 158.74901 64.500997"
   id="svg2"
   inkscape:version="0.91 r13725"
   sodipodi:docname="BBC Radio 5 Live - Dark.svg">
  <metadata
     id="metadata48">
    <rdf:RDF>
      <cc:Work
         rdf:about="">
        <dc:format>image/svg+xml</dc:format>
        <dc:type
           rdf:resource="http://purl.org/dc/dcmitype/StillImage" />
        <dc:title></dc:title>
      </cc:Work>
    </rdf:RDF>
  </metadata>
  <defs
     id="defs46" />
  <sodipodi:namedview
     pagecolor="#ffffff"
     bordercolor="#666666"
     borderopacity="1"
     objecttolerance="10"
     gridtolerance="10"
     guidetolerance="10"
     inkscape:pageopacity="0"
     inkscape:pageshadow="2"
     inkscape:window-width="1920"
     inkscape:window-height="1017"
     id="namedview44"
     showgrid="false"
     inkscape:zoom="1.92"
     inkscape:cx="325.70892"
     inkscape:cy="149.4041"
     inkscape:window-x="-8"
     inkscape:window-y="-8"
     inkscape:window-maximized="1"
     inkscape:current-layer="svg2"
     fit-margin-top="0"
     fit-margin-left="0"
     fit-margin-right="0"
     fit-margin-bottom="0" />
  <path
     style="fill:#4ab7e1"
     inkscape:connector-curvature="0"
     id="path32"
     d="m 83.956507,0 c -17.574,0 -31.819,14.439 -31.819,32.25 0,17.812 14.245,32.251 31.819,32.251 17.573003,0 31.823003,-14.439 31.823003,-32.251 0,-17.811 -14.25,-32.25 -31.823003,-32.25"
     sodipodi:nodetypes="csssc" />
  <g
     id="g4"
     style="fill:#000000;fill-opacity:1"
     transform="translate(-4.9254406e-4,0)">
    <path
       d="m 29.74,1.987 12.905,0 0,12.302 -12.905,0 z M 37.874,3.7017 37.698,3.671 37.632,3.6622 37.329,3.627 37.127,3.6094 36.766,3.6006 l -0.132,0 -0.29,0.0132 L 36.19,3.627 35.962,3.6534 35.896,3.6578 35.83,3.671 35.737,3.6886 35.632,3.7061 35.478,3.7325 34.629,3.9875 34.247,4.159 33.943,4.3217 33.68,4.4888 l -0.145,0.1011 -0.119,0.0835 -0.233,0.1979 -0.198,0.189 -0.158,0.1715 -0.159,0.1759 -0.154,0.2066 -0.105,0.1627 -0.066,0.1099 -0.352,0.7123 -0.255,1.0245 -0.039,0.3517 -0.009,0.277 0.004,0.2066 0.018,0.2111 0.009,0.0484 0.039,0.2462 0.018,0.0967 0.044,0.1979 0.075,0.2506 0.105,0.2902 0.207,0.4309 0.136,0.233 0.11,0.171 0.154,0.216 0.171,0.202 0.203,0.22 0.035,0.035 0.189,0.176 0.14,0.123 0.163,0.119 0.198,0.145 0.246,0.145 0.567,0.277 0.242,0.088 0.251,0.079 0.47,0.114 0.414,0.066 0.435,0.04 0.229,0.009 0.101,0 0.76,-0.031 0.04,-0.004 0.272,-0.031 0.374,-0.057 0.224,-0.044 0.317,-0.079 0.22,-0.062 0.237,-0.079 0.071,-0.022 0.145,-0.053 0.281,-0.119 0.207,-0.092 0.193,-0.092 0.088,-0.044 0,-1.68 -0.061,0.04 -0.115,0.066 -0.33,0.198 -0.36,0.184 -0.589,0.251 -0.985,0.264 -0.101,0.017 -0.233,0.031 -0.317,0.022 -0.18,0.009 -0.361,-0.013 -0.439,-0.053 -0.713,-0.189 -0.105,-0.044 -0.07,-0.027 L 35.016,10.908 34.774,10.781 34.665,10.71 34.55,10.627 34.405,10.526 34.269,10.42 34.216,10.367 34.19,10.341 34.181,10.328 34.154,10.306 33.948,10.077 33.847,9.9539 33.768,9.8264 33.697,9.7077 33.596,9.5319 33.53,9.3824 33.442,9.1318 33.385,8.9471 33.31,8.4722 33.297,8.3271 l 0,-0.277 0.031,-0.3561 0.048,-0.2682 0.053,-0.1891 0.066,-0.189 0.048,-0.1231 0.088,-0.1671 0.066,-0.1319 0.189,-0.2814 0.071,-0.1055 0.114,-0.1275 0.061,-0.0616 0.994,-0.7035 0.167,-0.0703 0.176,-0.0616 0.18,-0.0571 0.181,-0.0484 0.167,-0.0352 0.193,-0.0263 0.189,-0.022 0.361,-0.0176 0.11,0.0044 0.25,0.0088 0.172,0.0132 0.294,0.0351 0.247,0.0396 0.329,0.0836 0.172,0.0483 0.206,0.066 0.137,0.0483 0.242,0.0924 0.303,0.1363 0.229,0.1055 0.162,0.0879 0.229,0.1275 0.171,0.0924 0,-1.6488 L 39.716,4.2382 39.439,4.1414 39.259,4.0711 39.101,4.0183 38.907,3.9568 38.758,3.9128 38.714,3.8996 38.569,3.86 38.389,3.8073 38.274,3.7853 38.076,3.7369 Z"
       id="path6"
       style="fill:#000000;fill-opacity:1"
       inkscape:connector-curvature="0" />
    <path
       d="m 19.828,8.7919 0,2.4181 1.548,0 0.079,-0.004 0.215,-0.013 0.607,-0.124 0.528,-0.307 0.14,-0.172 0.159,-0.505 0.004,-0.08 0,-0.0524 L 23.077,9.7152 22.893,9.3415 22.835,9.2799 22.695,9.1524 22.409,8.9897 21.938,8.849 21.666,8.8095 21.49,8.7963 21.323,8.7919 Z"
       id="path8"
       style="fill:#000000;fill-opacity:1"
       inkscape:connector-curvature="0" />
    <path
       d="m 19.828,5.1118 0,2.2907 0.862,0 0.171,-0.0088 0.581,-0.0879 0.123,-0.0396 0.457,-0.277 L 22.224,6.6726 22.303,6.3297 22.317,6.1978 22.312,6.101 22.211,5.6834 22.048,5.4635 21.749,5.2657 21.099,5.125 20.861,5.1118 Z"
       id="path10"
       style="fill:#000000;fill-opacity:1"
       inkscape:connector-curvature="0" />
    <path
       d="m 14.87,1.9913 12.905,0 0,12.302 -12.905,0 z m 3.386,1.7235 0,8.8642 3.293,0 c 0,0 1.609,0.039 2.493,-0.858 0.721,-0.73 0.673,-1.574 0.673,-1.574 0,0 0.048,-0.8835 -0.62,-1.565 C 23.523,8.0105 22.802,7.8522 22.802,7.8522 l 0.58,-0.4089 c 0.115,-0.1187 0.537,-0.5056 0.537,-1.4378 0,-0.9365 -0.616,-1.4817 -0.616,-1.4817 0,0 -0.681,-0.809 -2.207,-0.809 z"
       id="path12"
       style="fill:#000000;fill-opacity:1"
       inkscape:connector-curvature="0" />
    <path
       d="m 4.9534,8.7919 0,2.4181 1.552,0 0.0792,-0.004 0.2154,-0.013 0.6068,-0.124 0.5276,-0.307 0.1407,-0.172 0.1538,-0.505 0.0088,-0.08 0,-0.0524 L 8.2026,9.7152 8.0223,9.3415 7.9651,9.2799 7.8244,9.1524 7.5387,8.9897 7.0682,8.849 6.7956,8.8095 6.6197,8.7963 6.4527,8.7919 Z"
       id="path14"
       style="fill:#000000;fill-opacity:1"
       inkscape:connector-curvature="0" />
    <path
       d="m 4.9534,5.1118 0,2.2907 0.8661,0 L 5.9866,7.3937 6.5714,7.3058 6.6989,7.2662 7.1473,6.9892 7.3584,6.6726 7.4375,6.3297 7.4419,6.1978 7.4419,6.101 7.3408,5.6834 7.1825,5.4635 6.8835,5.2657 6.224,5.125 5.9866,5.1118 Z"
       id="path16"
       style="fill:#000000;fill-opacity:1"
       inkscape:connector-curvature="0" />
    <path
       d="m 4.397e-4,1.9913 12.9050003,0 0,12.302 -12.9050003,0 z m 3.3855,1.7235 0,8.8642 3.2932,0 c 0,0 1.6048,0.039 2.493,-0.858 0.7211,-0.73 0.6683,-1.574 0.6683,-1.574 0,0 0.0528,-0.8835 -0.6155,-1.565 -0.5716,-0.5715 -1.2971,-0.7298 -1.2971,-0.7298 l 0.5804,-0.4089 c 0.1187,-0.1187 0.5408,-0.5056 0.5408,-1.4378 0,-0.9365 -0.62,-1.4817 -0.62,-1.4817 0,0 -0.6727,-0.809 -2.2027,-0.809 z"
       id="path18"
       style="fill:#000000;fill-opacity:1"
       inkscape:connector-curvature="0" />
    <path
       d="m 1.4421,18.597 0.9322,0 c 1.3937,0 1.9565,0.576 1.9697,1.534 0.0132,0.849 -0.4265,1.653 -1.9697,1.653 l -0.9322,0 z M 0,17.339 l 0,10.174 1.4421,0 0,-4.414 0.6024,0 c 0.743,0 1.341,0.237 2.6688,2.326 l 1.3235,2.088 1.7191,0 C 7.0656,26.546 6.8194,26.203 6.3885,25.499 5.6235,24.233 5.0651,23.292 4.1505,22.681 c 1.0729,-0.435 1.6796,-1.31 1.6796,-2.493 0,-1.759 -1.2663,-2.849 -3.2976,-2.849 z"
       id="path20"
       style="fill:#000000;fill-opacity:1"
       inkscape:connector-curvature="0" />
    <path
       d="m 12.478,19.521 1.618,3.68 -3.122,0 z m 0.527,-2.238 -1.015,0 -4.3137,10.227 1.4685,0 1.2702,-2.994 4.27,0 1.336,2.994 1.473,0 z"
       id="path22"
       style="fill:#000000;fill-opacity:1"
       inkscape:connector-curvature="0" />
    <path
       d="m 20.135,18.656 2.22,0 c 2.814,0 4.098,1.728 4.098,3.772 0,1.253 -0.752,3.773 -4.019,3.773 l -2.299,0 z m -1.443,8.855 3.918,0 c 3.311,0 5.329,-2.475 5.329,-5.083 0,-2.4 -1.636,-5.087 -5.347,-5.087 l -3.9,0 z"
       id="path24"
       style="fill:#000000;fill-opacity:1"
       inkscape:connector-curvature="0" />
    <path
       d="m 29.599,27.515 1.443,0 0,-10.17 -1.443,0 z"
       id="path26"
       style="fill:#000000;fill-opacity:1"
       inkscape:connector-curvature="0" />
    <path
       d="m 34.191,22.427 c 0,-2.238 1.666,-3.873 3.904,-3.873 2.251,0 3.918,1.635 3.918,3.873 0,2.221 -1.667,3.878 -3.918,3.878 -2.238,0 -3.904,-1.657 -3.904,-3.878 m -1.486,0 c 0,2.762 2.08,5.219 5.36,5.219 3.403,0 5.434,-2.475 5.434,-5.219 0,-2.831 -2.089,-5.219 -5.404,-5.219 -3.253,0 -5.39,2.401 -5.39,5.219"
       id="path28"
       style="fill:#000000;fill-opacity:1"
       inkscape:connector-curvature="0" />
  </g>
  <path
     style="fill:#4ab7e1"
     inkscape:connector-curvature="0"
     id="path34"
     d="m 126.68951,20.18 -0.43,2.946 4.02,0 0.43,-2.946 z" />
  <path
     style="fill:#4ab7e1"
     inkscape:connector-curvature="0"
     id="path36"
     d="m 127.91951,41.909 2.13,-16.497 -4.02,0 -2.13,16.497 z" />
  <path
     style="fill:#4ab7e1"
     inkscape:connector-curvature="0"
     id="path38"
     d="m 138.40951,41.909 8.11,-16.497 -4.31,0 c 0,0 -3.72,8.09 -4.59,9.976 -0.41,-2.009 -2.01,-9.976 -2.01,-9.976 l -4.23,0 3.84,16.497 z" />
  <path
     style="fill:#4ab7e1"
     inkscape:connector-curvature="0"
     id="path40"
     d="m 154.69951,31.799 -5.47,0 c 0.44,-1.671 1.59,-2.691 3.13,-2.691 0.73,0 1.33,0.233 1.73,0.677 0.4,0.448 0.61,1.112 0.61,1.943 z m 2.64,-4.591 c -1.11,-1.275 -2.74,-1.978 -4.6,-1.978 -3.25,0 -7.02,2.212 -7.82,8.42 -0.38,2.875 0.07,5.069 1.33,6.516 1.09,1.262 2.79,1.926 4.92,1.926 2.35,0 4.49,-0.915 6.2,-2.656 l 0.33,-0.334 -2.65,-2.564 -0.31,0.295 c -0.93,0.849 -2.17,1.381 -3.25,1.381 -0.96,0 -1.71,-0.286 -2.18,-0.827 -0.38,-0.444 -0.58,-1.068 -0.58,-1.829 l 0.02,-0.251 9.55,0 0.38,-2.981 0.07,-1.046 c 0,-1.583 -0.49,-3.003 -1.41,-4.072" />
  <path
     style="fill:#4ab7e1"
     inkscape:connector-curvature="0"
     id="path42"
     d="m 124.06951,20.18 -4.02,0 -2.82,21.716 4.02,0 z" />
  <path
     style="fill:#ffffff;fill-opacity:1"
     inkscape:connector-curvature="0"
     id="path32-1"
     d="m 85.803606,24.677997 c 8.059,0 13.687,6.221001 13.687,15.134001 0,4.308999 -1.66701,8.335999 -4.696,11.338999 -3.086,3.060002 -7.17501,4.691001 -11.493,4.599 -7.281,0 -14.659005,-3.671 -15.982005,-11.782999 l 11.589995,0 c 0.905,1.367 2.39101,2.172 4.22,2.172 3.544,0 5.457,-3.263 5.457,-6.327 0,-3.038001 -1.688,-6.099001 -5.457,-6.099001 -2.25499,0 -3.49899,0.664 -4.93299,2.634002 l -0.343,0.469998 -10.156005,0 5.223,-26.27 27.119009,0 -1.881004,9.576 -17.095,0 c 0,0 -0.80501,3.75 -1.178,5.887 1.701,-0.901 3.636,-1.332 5.918,-1.332"
     sodipodi:nodetypes="csccccsssccccccccc" />
</svg>
