<svg height="141.90269pt" viewBox="0 0 708.87659 141.90269" width="708.87659pt" xmlns="http://www.w3.org/2000/svg"><path d="m64.135907.151592c191.200003-.28 382.420003-.03 573.630003-.13 11.69-.29 23.56 2.34 33.84 7.96 14.16 7.37 25.26 20 31.58 34.59 5.95 14.53 7.49 31 3.4 46.24-3.12 12.909998-10.11 24.839998-19.71 34.009998-11.51 11.15-27.07 18.02-43.08 18.89-6 .34-12.02.11-18.02.17-185.31 0-370.62.01-555.930003 0-5.73-.07-11.5-.55-17.05-2.07-20.35-4.77-37.66-19.8-46.26-38.73-6.64-14.689998-8.42-31.659998-4.42-47.329998 3.72-16.22 13.57-30.91 27.02-40.69 10.12-7.54 22.45-11.89 35-12.91" fill="#003478"/><g fill="#fff"><path d="m462.06591 30.651592c3.1.01 6.21.01 9.32-.01-.01 21.59-.01 43.17 0 64.76-3.11-.03-6.23-.03-9.34-.02.01-2.35.02-4.7.05-7.05-8.36 9.84-24.64 11.01-34.32 2.5-9.31-8.45-9.84-24.98-.46-33.61 9.07-8.98 25.7-9.77 34.75-.37-.01-8.74 0-17.47 0-26.2m-20.81 25.75c-6.05 1.41-9.98 7.38-10.44 13.34-.71 6.22.92 13.05 5.47 17.55 3.87 3.71 9.79 4.47 14.76 2.81 13.02-4.41 15.15-25.8 2.98-32.44-3.84-2.23-8.55-1.8-12.77-1.26z"/><path d="m482.99591 32.911592c3.41-1.53 9.13-.62 9.49 3.89.2 5.79-8.74 7.46-11.34 2.73-1.6-2.24-.53-5.45 1.85-6.62z"/><path d="m268.64591 56.711592c9.85-6.05 21.95-6.48 33.18-6.05 6.37.36 12.79 1.25 18.73 3.72-2.27 1.53-4.58 2.98-6.75 4.63-8.22-2.52-17.41-4.01-25.69-.98-2.71.61-4 4.34-.94 5.5 9.71 5.43 21.12 7.16 30.64 13.05 2.89 1.76 5.79 4.72 5.26 8.41-.74 2.38-2.55 4.31-4.73 5.47-6.88 3.8-14.79 5.12-22.55 5.57-11.28.57-22.78-.5-33.49-4.25 2.54-1.44 4.61-4.32 7.47-4.81 9.43 2.72 19.62 4.98 29.26 1.9 2.21-.74 5.07-2.2 4.63-5.01.18-1.95-1.56-3.14-3.07-3.92-10.36-5.47-22.65-6.56-32.25-13.6-2.77-2.55-3.03-7.42.3-9.63z"/><path d="m345.17591 51.271592c3.04.02 6.08.02 9.12 0 .03 1.86.05 3.71.11 5.57 3.22-2.97 6.7-6.48 11.4-6.6 3.62-.19 6.52 2.31 9.26 4.31-1.55 1.65-3.07 3.35-4.53 5.09-3.38-1.3-7.38-2.77-10.82-.88-4.01 2.48-4.97 7.65-5.13 12.01-.06 8.2.02 16.41-.01 24.61-3.14-.01-6.27-.01-9.4.01 0-14.71 0-29.41 0-44.12z"/><path d="m376.38591 56.191592c7.53-6.1 17.91-7.25 27.08-4.87 3.91 1.2 7.73 3.67 9.34 7.59 2 4.69 1.03 9.92 1.24 14.87.21 7.24-1.01 14.88 2.3 21.63-3.46-.11-6.92.13-10.37-.15-1.38-2.03-1.07-4.9-1.48-7.3-5.46 4.57-11.92 9.83-19.57 8.34-7.03-.71-12.8-7.26-11.9-14.43.7-6.93 7.55-10.48 13.34-12.69 6.13-1.91 12.45-3.16 18.59-5.08-1.12-3.25-3.05-6.49-6.41-7.78-6.33-1.96-13.28-.06-18.45 3.88-1.23-1.34-2.47-2.68-3.71-4.01m12.6 17.83c-3.66 1.7-6.92 5.54-6.22 9.81.71 4.85 6.42 7.98 10.91 5.97 8.26-2.73 11.91-12.18 11.04-20.29-5.28 1.34-10.69 2.38-15.73 4.51z"/><path d="m481.68591 51.281592c3.15.02 6.31.01 9.47 0-.02 14.7-.02 29.41 0 44.12-3.18-.03-6.35-.02-9.52-.07.08-14.68-.01-29.37.05-44.05z"/><path d="m515.16591 51.431592c7.71-2.16 16.41-1.55 23.4 2.55 5.18 2.85 9.69 7.7 10.77 13.67 1.33 5.71.54 12.06-2.43 17.15-8.72 14.08-30.77 15.489998-42.43 4.39-6.21-6.27-8.31-16.36-4.92-24.53 2.53-6.75 8.98-11.11 15.61-13.23m4.12 4.93c-5.85 1.33-9.91 6.84-10.86 12.56-.86 5.46-.13 11.46 3.1 16.06 4.55 6.62 14.55 7.64 21.12 3.61 5.07-2.98 6.94-9.22 7.06-14.77.25-5.68-1.51-12.12-6.51-15.39-3.97-2.98-9.27-2.66-13.91-2.07z"/><path d="m68.175907 95.391592c0-14.69.01-29.37 0-44.06 12.85.1 25.71-.09 38.570003.09 6.67.45 13.85.98 19.56 4.85 3.3 1.96 3.17 7.04.23 9.28-4.47 3.79-10.56 4.6-16.01 6.21 6.33.23 12.83 1.01 18.66 3.63 3.32 1.62 7.14 5.28 5.25 9.3-2.75 6.42-10.34 7.86-16.44 9.2-16.47 2.62-33.220003 1.03-49.820003 1.5m19.38-38.72c-.01 4.33-.01 8.66 0 12.99 5.76-.03 11.69.3 17.230003-1.56 2.65-.81 5.61-2.35 6.36-5.24.24-2.93-2.78-4.61-5.22-5.25-6.010003-1.43-12.250003-.83-18.370003-.94m0 18.4c-.02 4.99-.01 9.98 0 14.97 7.53-.11 15.370003.68 22.560003-2.08 2.22-.97 4.68-2.54 5.02-5.16.16-3.01-2.69-5.05-5.22-5.97-7.2-2.42-14.900003-1.61-22.360003-1.76z"/><path d="m139.52591 51.331592c16.82.05 33.63 0 50.44.03v5.82c-10.33 0-20.67.01-31-.01-.01 4.85-.01 9.69 0 14.54 10.15-.05 20.31-.01 30.47-.03.01 2 .01 4 .02 6-10.16-.03-20.32 0-30.48-.01-.03 5.89-.02 11.79 0 17.69-6.49.03-12.97-.02-19.45.03.02-14.68.01-29.37 0-44.06z"/><path d="m195.65591 51.361592c12.71.02 25.43-.08 38.14.04 6.77.34 13.93.96 19.86 4.55 3.62 2.02 3.44 7.61.26 9.96-4.61 3.43-10.47 4.44-15.92 5.79 5.78.18 11.57 1.01 17.06 2.86 3.22 1.29 6.88 3.41 7.34 7.23.32 4.38-3.27 7.82-7.05 9.34-9.02 3.6-18.89 4.13-28.49 4.24-10.41-.02-20.81.05-31.22-.04.06-14.66.02-29.32.02-43.97m19.49 5.32c0 4.33-.01 8.66 0 13 5.63-.07 11.41.3 16.86-1.44 2.56-.71 5.47-1.88 6.44-4.6.91-2.56-1.32-5.1-3.73-5.68-6.33-1.93-13.05-1.14-19.57-1.28m0 18.38c-.01 5-.02 10 .02 15 7.61-.17 15.57.73 22.8-2.18 2.07-1.03 4.85-2.41 4.8-5.1.45-3.08-2.6-4.95-5.05-5.91-7.25-2.5-15.04-1.62-22.57-1.81z"/></g><path d="m624.14591 9.351592c11.27-1.71 23.17-1.07 33.76 3.4 13.97 5.32 25.7 16.08 32.65 29.27 7.32 14.04 9.17 30.93 4.61 46.13-3.81 13.609998-12.48 25.839998-24.11 33.869998-12.91 9.36-29.54 13.08-45.26 10.71-26.3-3.47-48.8-25.72-52.48-52.009998-.72-7.31-.7-14.71.32-22 2.93-14.05 10.66-27.14 21.84-36.19 8.27-6.64 18.17-11.47 28.67-13.18m1.02 14.8c-11.8 2.61-22.55 9.72-29.32 19.75-7.76 11.37-10.61 26.25-6.66 39.53 3.45 13.4 13.29 24.789998 25.69 30.759998 8.99 3.97 19.22 6 28.95 3.79 12.74-2.18 24.29-9.9 31.4-20.649998 6.99-10.59 9.86-24.15 6.81-36.55-2.54-12.89-11.02-24.33-22.27-31-10.28-6.21-22.89-8.04-34.6-5.63z" fill="#81308d"/><path d="m631.13591 46.291592c14.18-2.68 29.3 8.88 29.39 23.5.88 9.06-3.78 18.35-11.55 23.06-10.88 7.169998-27.21 4.18-34.44-6.81-7.01-9.51-5.84-23.75 2.35-32.2 3.79-3.91 8.91-6.53 14.25-7.55z" fill="#81308d"/></svg>