<?xml version="1.0" encoding="utf-8"?>
<!-- Generator: Adobe Illustrator 16.0.0, SVG Export Plug-In . SVG Version: 6.00 Build 0)  -->
<!DOCTYPE svg PUBLIC "-//W3C//DTD SVG 1.1//EN" "http://www.w3.org/Graphics/SVG/1.1/DTD/svg11.dtd">
<svg version="1.1"
	 id="svg2" xmlns:dc="http://purl.org/dc/elements/1.1/" xmlns:cc="http://creativecommons.org/ns#" xmlns:rdf="http://www.w3.org/1999/02/22-rdf-syntax-ns#" xmlns:svg="http://www.w3.org/2000/svg"
	 xmlns="http://www.w3.org/2000/svg" xmlns:xlink="http://www.w3.org/1999/xlink" x="0px" y="0px" width="191.347px"
	 height="119.26px" viewBox="0 0 191.347 119.26" enable-background="new 0 0 191.347 119.26" xml:space="preserve">
<title  id="title85">network</title>
<g id="g4318">
	<path id="path97" fill="#FFFFFF" d="M164.027,79.49l-4,18l-5.26-18.05l-7.811-0.029l0.86,27.779l5.63-0.12l-0.87-20.72l0.08-0.07
		l5.72,20.671l3.961-0.08l4.229-20.62l0.069,0.069l0.541,20.431l5.41-0.12l-1-27.101L164.027,79.49L164.027,79.49z"/>
	<path id="path99" fill="#FFFFFF" d="M145.687,90.34l-7.041,0.04l-0.129-4.76l7.27-0.011l-0.189-6.21l-13.25-0.069l0.76,28.199
		l6.029-0.14l-0.31-10.72l7.04-0.08L145.687,90.34z"/>
</g>
<path id="path101" fill="#FFFFFF" d="M139.287,51.07l5.03,0.15l0.739,23.63h6.44l-0.72-23.43l4.89,0.14l-0.21-5.92l-16.35-0.7
	L139.287,51.07L139.287,51.07z M83.737,62.73l-7.87-0.149c-0.181,0.45-0.391,0.888-0.63,1.31c-0.362,0.646-0.798,1.246-1.3,1.79
	c-0.6,0.646-1.315,1.176-2.11,1.56c-0.956,0.45-2.004,0.669-3.06,0.641c-1.178-0.018-2.334-0.319-3.37-0.88
	c-1.008-0.544-1.891-1.293-2.59-2.2c-0.715-0.928-1.27-1.969-1.64-3.08c-0.389-1.15-0.595-2.355-0.61-3.57
	c-0.014-1.152,0.155-2.3,0.5-3.399c0.325-1.084,0.843-2.101,1.53-3c0.665-0.874,1.52-1.586,2.5-2.08
	c1.059-0.505,2.228-0.735,3.4-0.67c0.949,0.022,1.883,0.233,2.75,0.62c0.772,0.339,1.482,0.806,2.1,1.38
	c0.574,0.546,1.075,1.164,1.49,1.84c0.372,0.596,0.681,1.229,0.92,1.89l7.86,0.2c-0.278-1.423-0.764-2.798-1.44-4.08
	c-0.791-1.532-1.802-2.94-3-4.18c-1.311-1.375-2.859-2.503-4.57-3.33c-1.934-0.924-4.038-1.435-6.18-1.5
	c-2.246-0.112-4.488,0.284-6.56,1.16c-1.91,0.828-3.617,2.063-5,3.62c-1.36,1.544-2.415,3.332-3.11,5.27
	c-0.694,1.954-1.033,4.017-1,6.09c0.021,2.184,0.438,4.346,1.23,6.38c0.78,2.009,1.918,3.859,3.36,5.46
	c1.432,1.599,3.169,2.895,5.11,3.811c2.036,0.95,4.253,1.449,6.5,1.46c1.754,0.022,3.498-0.269,5.15-0.86
	c1.594-0.57,3.074-1.421,4.37-2.51c1.315-1.105,2.431-2.428,3.3-3.91C82.692,66.234,83.357,64.518,83.737,62.73z M137.847,44.91
	l-6.82-0.311l0.82,30.25h6.83L137.847,44.91z M191.097,68.63l-6.961-0.11l-0.85-21.74l-6.07-0.22l1.101,28.351l13.03-0.011
	L191.097,68.63L191.097,68.63z M97.806,43.25L92.067,43l-11.16,31.6l8,0.07l1.48-4.84l10,0.13l1.601,4.72h7.739L97.806,43.25z
	 M92.317,63.5l2.76-10.66h0.09l3.13,10.77L92.317,63.5z M166.697,46.12l-4.641-0.25l-9.189,29h6.85l1.211-4.301l8.489,0.11
	l1.38,4.22h6.62L166.697,46.12z M162.457,64.77l2.189-9.68h0.091l2.83,9.77L162.457,64.77z M130.007,52.36
	c-0.148-0.742-0.367-1.468-0.65-2.17c-0.265-0.698-0.6-1.369-1-2c-0.41-0.619-0.891-1.189-1.43-1.7c-0.375-0.375-0.787-0.71-1.23-1
	c-0.516-0.313-1.066-0.564-1.641-0.75c-0.75-0.239-1.52-0.413-2.299-0.52c-1.073-0.118-2.151-0.182-3.23-0.19l-9-0.359l0.76,31
	l6.811,0.06L116.716,65h3c0.929,0.025,1.857-0.015,2.78-0.12c0.708-0.078,1.405-0.232,2.08-0.46c0.571-0.199,1.114-0.468,1.62-0.8
	c0.5-0.338,0.969-0.719,1.4-1.141c0.441-0.442,0.822-0.944,1.129-1.49c0.349-0.612,0.633-1.259,0.851-1.93
	c0.475-1.451,0.698-2.974,0.66-4.5C130.222,53.822,130.146,53.085,130.007,52.36L130.007,52.36z M123.226,56.7
	c-0.266,0.468-0.672,0.842-1.159,1.069c-0.448,0.205-0.929,0.33-1.421,0.37c-0.412,0.025-0.826,0.025-1.239,0l-2.86-0.07l-0.17-7.31
	l2.59,0.08c0.452,0.007,0.902,0.04,1.351,0.1c0.526,0.065,1.04,0.214,1.521,0.44c0.512,0.241,0.945,0.623,1.25,1.1
	c0.711,1.302,0.763,2.864,0.139,4.21V56.7z"/>
<linearGradient id="path103_1_" gradientUnits="userSpaceOnUse" x1="163.8081" y1="80.3547" x2="170.3286" y2="67.8139" gradientTransform="matrix(1 0 0 -1 -21.7935 118.4146)">
	<stop  offset="0" style="stop-color:#FFFFFF"/>
	<stop  offset="1" style="stop-color:#323232"/>
</linearGradient>
<path id="path103" opacity="0.21" fill="url(#path103_1_)" enable-background="new    " d="M150.777,51.42l4.89,0.149l-0.21-5.92
	l-16.359-0.699l0.189,6.13l5,0.149l0.16,5.181c2.12-0.667,4.25-1.304,6.391-1.91L150.777,51.42z"/>
<linearGradient id="path105_1_" gradientUnits="userSpaceOnUse" x1="97.6489" y1="45.7444" x2="104.1789" y2="33.2044" gradientTransform="matrix(1 0 0 -1 -21.7935 118.4146)">
	<stop  offset="0" style="stop-color:#FFFFFF"/>
	<stop  offset="1" style="stop-color:#323232"/>
</linearGradient>
<path id="path105" opacity="0.21" fill="url(#path105_1_)" enable-background="new    " d="M57.347,69.84
	c1.432,1.599,3.169,2.894,5.11,3.81c2.036,0.951,4.253,1.449,6.5,1.46c1.754,0.023,3.499-0.269,5.15-0.859
	c1.594-0.571,3.074-1.421,4.37-2.511c1.315-1.105,2.431-2.428,3.3-3.909c0.937-1.578,1.612-3.297,2-5.091l-7.87-0.149
	c-0.181,0.45-0.392,0.888-0.63,1.31c-0.362,0.646-0.798,1.246-1.3,1.79c-0.6,0.647-1.315,1.176-2.11,1.561
	c-0.956,0.449-2.004,0.668-3.06,0.64c-1.192-0.014-2.363-0.319-3.41-0.89c-1.008-0.544-1.891-1.293-2.59-2.2
	c-0.715-0.928-1.27-1.969-1.64-3.08c-0.389-1.15-0.595-2.355-0.61-3.57c-0.014-1.152,0.155-2.3,0.5-3.399
	c0.325-1.084,0.843-2.101,1.53-3c0.665-0.874,1.52-1.586,2.5-2.08c1.059-0.505,2.228-0.735,3.4-0.67
	c0.949,0.022,1.883,0.233,2.75,0.62c0.772,0.339,1.482,0.806,2.1,1.38c0.574,0.546,1.075,1.164,1.49,1.84
	c0.372,0.596,0.681,1.229,0.92,1.89l7.86,0.2c-0.279-1.423-0.764-2.797-1.44-4.08c-0.791-1.532-1.802-2.94-3-4.18
	c-1.311-1.375-2.859-2.503-4.57-3.33c-1.934-0.924-4.038-1.435-6.18-1.5c-2.246-0.112-4.488,0.284-6.56,1.16
	c-1.911,0.828-3.617,2.063-5,3.62c-1.36,1.544-2.416,3.332-3.11,5.27c-0.694,1.954-1.033,4.017-1,6.09
	c0.021,2.184,0.438,4.346,1.23,6.38C54.757,66.376,55.899,68.234,57.347,69.84z"/>
<linearGradient id="path107_1_" gradientUnits="userSpaceOnUse" x1="151.9565" y1="74.179" x2="158.4761" y2="61.6397" gradientTransform="matrix(1 0 0 -1 -21.7935 118.4146)">
	<stop  offset="0" style="stop-color:#FFFFFF"/>
	<stop  offset="1" style="stop-color:#323232"/>
</linearGradient>
<path id="path107" opacity="0.21" fill="url(#path107_1_)" enable-background="new    " d="M137.847,44.92l-6.811-0.311l0.439,16.25
	c2.24-0.833,4.49-1.64,6.75-2.42L137.847,44.92z"/>
<linearGradient id="path109_1_" gradientUnits="userSpaceOnUse" x1="190.0034" y1="93.9895" x2="196.5317" y2="81.4529" gradientTransform="matrix(1 0 0 -1 -21.7935 118.4146)">
	<stop  offset="0" style="stop-color:#FFFFFF"/>
	<stop  offset="1" style="stop-color:#323232"/>
</linearGradient>
<path id="path109" opacity="0.21" fill="url(#path109_1_)" enable-background="new    " d="M183.287,46.78l-6.061-0.22l0.07,1.91
	c2-0.347,4-0.68,6-1L183.287,46.78z"/>
<linearGradient id="path111_1_" gradientUnits="userSpaceOnUse" x1="113.8306" y1="54.3411" x2="120.3604" y2="41.8014" gradientTransform="matrix(1 0 0 -1 -21.7935 118.4146)">
	<stop  offset="0" style="stop-color:#FFFFFF"/>
	<stop  offset="1" style="stop-color:#323232"/>
</linearGradient>
<path id="path111" opacity="0.21" fill="url(#path111_1_)" enable-background="new    " d="M97.806,43.25L92.067,43l-11.16,31.6
	l8,0.07l1.48-4.84l10,0.13l1.4,4.109c2.141-1.119,4.301-2.216,6.48-3.29L97.806,43.25z M92.317,63.5l2.76-10.66h0.09l3.13,10.77
	L92.317,63.5z"/>
<linearGradient id="path113_1_" gradientUnits="userSpaceOnUse" x1="176.0942" y1="86.7493" x2="182.6252" y2="74.2074" gradientTransform="matrix(1 0 0 -1 -21.7935 118.4146)">
	<stop  offset="0" style="stop-color:#FFFFFF"/>
	<stop  offset="1" style="stop-color:#323232"/>
</linearGradient>
<path id="path113" opacity="0.21" fill="url(#path113_1_)" enable-background="new    " d="M166.697,46.12l-4.641-0.24l-2,6.189
	c2.667-0.666,5.377-1.286,8.131-1.859L166.697,46.12z"/>
<linearGradient id="path115_1_" gradientUnits="userSpaceOnUse" x1="137.3345" y1="66.5774" x2="143.8647" y2="54.0369" gradientTransform="matrix(1 0 0 -1 -21.7935 118.4146)">
	<stop  offset="0" style="stop-color:#FFFFFF"/>
	<stop  offset="1" style="stop-color:#323232"/>
</linearGradient>
<path id="path115" opacity="0.21" fill="url(#path115_1_)" enable-background="new    " d="M116.716,65h4.121
	c2.34-1,4.699-1.94,7.079-2.87c0.306-0.347,0.577-0.722,0.81-1.12c0.349-0.613,0.633-1.26,0.851-1.93
	c0.475-1.452,0.698-2.974,0.66-4.5c-0.02-0.767-0.106-1.529-0.261-2.28c-0.147-0.742-0.365-1.469-0.649-2.17
	c-0.265-0.699-0.6-1.369-1-2c-0.409-0.62-0.89-1.19-1.431-1.7c-0.373-0.375-0.785-0.711-1.229-1c-0.515-0.313-1.065-0.564-1.64-0.75
	c-0.75-0.24-1.52-0.414-2.301-0.52c-1.072-0.118-2.15-0.182-3.229-0.19l-9-0.36l0.64,26.2c2.201-1.053,4.42-2.076,6.66-3.07
	L116.716,65z M116.386,50.77l2.59,0.08c0.452,0.007,0.902,0.04,1.351,0.101c0.526,0.064,1.04,0.213,1.521,0.439
	c0.512,0.241,0.945,0.623,1.25,1.1c0.701,1.303,0.746,2.86,0.119,4.2c-0.266,0.469-0.672,0.843-1.16,1.07
	c-0.447,0.204-0.928,0.33-1.42,0.37c-0.412,0.024-0.826,0.024-1.24,0l-2.859-0.07L116.386,50.77z"/>
<linearGradient id="path117_1_" gradientUnits="userSpaceOnUse" x1="82.1738" y1="115.0149" x2="82.1738" y2="80.3949" gradientTransform="matrix(1 0 0 -1 -21.7935 118.4146)">
	<stop  offset="0" style="stop-color:#E8E9E9"/>
	<stop  offset="0.5" style="stop-color:#BBBDBE"/>
	<stop  offset="1" style="stop-color:#A8ABAB"/>
</linearGradient>
<path id="path117" fill="url(#path117_1_)" d="M30.777,44.33V44.15C30.517,24.32,45.606,18.5,45.606,18.5L89.987,0
	c-0.7,0.43-1.82,1.25-1.82,1.25l-0.18,0.12c-0.589,0.452-1.153,0.937-1.69,1.449l-0.23,0.24l-0.18,0.16
	c-0.12,0.12-0.22,0.27-0.35,0.4c-0.427,0.453-0.83,0.923-1.21,1.409l-0.52,0.681c-0.39,0.529-0.75,1.09-1.09,1.66
	c-0.09,0.14-0.2,0.27-0.27,0.42c-0.07,0.149,0,0.09-0.07,0.14c-0.403,0.727-0.768,1.475-1.09,2.24c0,0,0,0.109-0.05,0.16
	c-0.05,0.05-0.13,0.38-0.2,0.569c-0.25,0.66-0.47,1.34-0.66,2c0,0.13-0.09,0.25-0.12,0.38c-0.03,0.131,0,0.341-0.09,0.5
	c-0.146,0.667-0.267,1.334-0.36,2c0,0.29-0.09,0.57-0.12,0.86c-0.103,0.963-0.15,1.932-0.14,2.9l0.19,12l-9.45-0.44
	c-3.522-0.17-7.043,0.375-10.35,1.601L30.777,44.33z"/>
<linearGradient id="path119_1_" gradientUnits="userSpaceOnUse" x1="56.1602" y1="101.0051" x2="106.1806" y2="101.0051" gradientTransform="matrix(1 0 0 -1 -21.7935 118.4146)">
	<stop  offset="0" style="stop-color:#FFFFFF;stop-opacity:0"/>
	<stop  offset="0.14" style="stop-color:#FFFFFF;stop-opacity:0.01"/>
	<stop  offset="0.27" style="stop-color:#FFFFFF;stop-opacity:0.06"/>
	<stop  offset="0.39" style="stop-color:#FFFFFF;stop-opacity:0.13"/>
	<stop  offset="0.51" style="stop-color:#FFFFFF;stop-opacity:0.23"/>
	<stop  offset="0.63" style="stop-color:#FFFFFF;stop-opacity:0.36"/>
	<stop  offset="0.74" style="stop-color:#FFFFFF;stop-opacity:0.53"/>
	<stop  offset="0.86" style="stop-color:#FFFFFF;stop-opacity:0.72"/>
	<stop  offset="0.97" style="stop-color:#FFFFFF;stop-opacity:0.93"/>
	<stop  offset="1" style="stop-color:#FFFFFF"/>
</linearGradient>
<path id="path119" opacity="0.5" fill="url(#path119_1_)" enable-background="new    " d="M45.606,18.5h-0.21l-0.23,0.189
	c-6.147,3.048-10.792,8.462-12.87,15c-0.12,0.367-0.233,0.743-0.34,1.13c3.768-2.443,7.763-4.516,11.93-6.189
	c0,0,22.15-9.36,28.75-10.86c2.337-0.465,4.702-0.775,7.08-0.93v-0.28c0-0.29,0.08-0.57,0.12-0.859c0.093-0.667,0.213-1.334,0.36-2
	c0-0.16,0-0.341,0.09-0.5c0.09-0.16,0.09-0.25,0.12-0.381c0.19-0.699,0.41-1.369,0.65-2c0.07-0.189,0.13-0.38,0.2-0.569
	c0.07-0.19,0-0.11,0.05-0.16c0.322-0.766,0.687-1.514,1.09-2.24c0,0,0-0.1,0.07-0.14c0.07-0.04,0.19-0.271,0.27-0.42
	c0.34-0.57,0.7-1.13,1.09-1.66L84.337,5c0.38-0.487,0.783-0.957,1.21-1.41c0.12-0.13,0.22-0.271,0.35-0.4l0.18-0.16l0.23-0.239
	c0.537-0.514,1.101-0.998,1.69-1.45l0.17-0.09c0,0,1.12-0.82,1.82-1.25L45.606,18.5z"/>
<linearGradient id="path121_1_" gradientUnits="userSpaceOnUse" x1="66.1699" y1="100.8557" x2="67.2199" y2="83.3057" gradientTransform="matrix(1 0 0 -1 -21.7935 118.4146)">
	<stop  offset="0.01" style="stop-color:#FFFFFF;stop-opacity:0"/>
	<stop  offset="0.09" style="stop-color:#FFFFFF;stop-opacity:0.04"/>
	<stop  offset="0.23" style="stop-color:#FFFFFF;stop-opacity:0.15"/>
	<stop  offset="0.4" style="stop-color:#FFFFFF;stop-opacity:0.32"/>
	<stop  offset="0.61" style="stop-color:#FFFFFF;stop-opacity:0.57"/>
	<stop  offset="0.85" style="stop-color:#FFFFFF;stop-opacity:0.87"/>
	<stop  offset="0.94" style="stop-color:#FFFFFF"/>
</linearGradient>
<path id="path121" opacity="0.58" fill="url(#path121_1_)" enable-background="new    " d="M31.896,35
	c4.028-2.665,8.333-4.885,12.84-6.62c0.46-3.26,2.14-8,12.92-14.86l-12,5C38.836,21.679,33.788,27.725,31.896,35z"/>
<linearGradient id="path123_1_" gradientUnits="userSpaceOnUse" x1="116.2642" y1="33.1321" x2="120.2943" y2="4.4313" gradientTransform="matrix(1 0 0 -1 -21.7935 118.4146)">
	<stop  offset="0" style="stop-color:#F3F3F2"/>
	<stop  offset="0.5" style="stop-color:#D1D3D1"/>
	<stop  offset="1" style="stop-color:#B4B6B6"/>
</linearGradient>
<path id="path123" fill="url(#path123_1_)" d="M58.167,92.64c0.1,6.43,0.91,25.28,19.69,25.811c19.35,0.55,56.42,0.779,59.18,0.8
	c-2.492-0.114-4.947-0.652-7.26-1.59c-0.271-0.153-0.553-0.29-0.84-0.41c-3.186-1.363-6.067-3.345-8.48-5.83
	c-2.506-2.572-4.507-5.591-5.9-8.9c-1.469-3.486-2.27-7.218-2.359-11l-0.141-5.92L58.167,92.64z"/>
<linearGradient id="path125_1_" gradientUnits="userSpaceOnUse" x1="119.771" y1="-7.2224" x2="119.771" y2="70.3534" gradientTransform="matrix(1 0 0 -1 -21.7935 118.4146)">
	<stop  offset="0" style="stop-color:#FFFFFF;stop-opacity:0"/>
	<stop  offset="1" style="stop-color:#FFFFFF"/>
</linearGradient>
<path id="path125" fill="url(#path125_1_)" d="M129.796,117.66c-0.271-0.153-0.553-0.29-0.84-0.41
	c-3.185-1.363-6.066-3.345-8.48-5.83c-0.389-0.4-0.76-0.811-1.129-1.23c-20.15,0.261-38.59-0.779-49.331-3.17
	c-7.68-1.71-9.56-4-11.13-5.649c1.41,7.59,5.7,16.71,19,17.09c19.35,0.5,56.419,0.779,59.18,0.8
	C134.57,119.144,132.111,118.603,129.796,117.66L129.796,117.66z"/>
<path id="path127" opacity="0.4" fill="#A1A4A5" enable-background="new    " d="M128.966,117.25
	c-3.184-1.363-6.066-3.345-8.479-5.83c-0.39-0.4-0.761-0.811-1.13-1.24c-16.471,0.21-31.19-0.47-42.56-2c0.1,1.51,1.95,3.7,11.74,6
	c7.21,1.68,13.65,3.42,21,4.81c13.83,0.16,26,0.24,27.551,0.25c-2.493-0.114-4.948-0.651-7.261-1.59
	C129.548,117.5,129.261,117.366,128.966,117.25L128.966,117.25z"/>
<linearGradient id="path129_1_" gradientUnits="userSpaceOnUse" x1="71.8574" y1="62.2083" x2="77.2775" y2="39.5379" gradientTransform="matrix(1 0 0 -1 -21.7935 118.4146)">
	<stop  offset="0" style="stop-color:#E8E9E9"/>
	<stop  offset="0.5" style="stop-color:#BBBDBE"/>
	<stop  offset="1" style="stop-color:#A8ABAB"/>
</linearGradient>
<path id="path129" fill="url(#path129_1_)" d="M30.837,44.29l-17.29,7.649c0,0-15.3,6.3-13.38,24.66
	c0.24,3.347,1.227,6.597,2.89,9.51c1.087,1.99,2.473,3.801,4.11,5.37c2.102,2.026,4.573,3.629,7.28,4.721
	c2.757,1.262,5.783,1.829,8.81,1.649c7.82-0.149,88.91-12.26,88.91-12.26l-41.07,0.07c-3.667-0.001-7.296-0.742-10.67-2.181
	c-3.322-1.415-6.342-3.451-8.9-6c-2.587-2.585-4.657-5.64-6.1-9c-1.488-3.453-2.271-7.17-2.3-10.93c0-0.86,0-1.7,0.12-2.54
	l0.06-0.65c0.08-0.739,0.19-1.46,0.32-2.18v-0.29c0.134-0.667,0.287-1.304,0.46-1.91c0-0.12,0.08-0.24,0.12-0.359
	c0.1-0.351,0.22-0.69,0.34-1c0.12-0.311,0.15-0.48,0.24-0.721c0.13-0.359,0.24-0.729,0.39-1.08c1.394-3.239,3.431-6.162,5.99-8.59
	c2.497-2.4,5.452-4.271,8.69-5.5L30.837,44.29z"/>
<linearGradient id="path131_1_" gradientUnits="userSpaceOnUse" x1="45.3345" y1="53.0164" x2="45.3345" y2="96.6848" gradientTransform="matrix(1 0 0 -1 -21.7935 118.4146)">
	<stop  offset="0.01" style="stop-color:#FFFFFF;stop-opacity:0"/>
	<stop  offset="0.09" style="stop-color:#FFFFFF;stop-opacity:0.04"/>
	<stop  offset="0.23" style="stop-color:#FFFFFF;stop-opacity:0.15"/>
	<stop  offset="0.4" style="stop-color:#FFFFFF;stop-opacity:0.32"/>
	<stop  offset="0.61" style="stop-color:#FFFFFF;stop-opacity:0.57"/>
	<stop  offset="0.85" style="stop-color:#FFFFFF;stop-opacity:0.87"/>
	<stop  offset="0.94" style="stop-color:#FFFFFF"/>
</linearGradient>
<path id="path131" fill="url(#path131_1_)" d="M14.907,55.5c10.77-4.19,23.14-9,23.14-9c2.053-3.246,4.728-6.053,7.87-8.261
	l-15.07,6l-17.3,7.7c-5.862,2.785-10.334,7.842-12.38,14C4.937,60.45,7.777,58.27,14.907,55.5z"/>
<linearGradient id="path133_1_" gradientUnits="userSpaceOnUse" x1="57.8188" y1="22.1858" x2="55.3588" y2="38.5258" gradientTransform="matrix(1 0 0 -1 -21.7935 118.4146)">
	<stop  offset="0.01" style="stop-color:#FFFFFF;stop-opacity:0"/>
	<stop  offset="0.09" style="stop-color:#FFFFFF;stop-opacity:0.04"/>
	<stop  offset="0.23" style="stop-color:#FFFFFF;stop-opacity:0.15"/>
	<stop  offset="0.4" style="stop-color:#FFFFFF;stop-opacity:0.32"/>
	<stop  offset="0.61" style="stop-color:#FFFFFF;stop-opacity:0.57"/>
	<stop  offset="0.85" style="stop-color:#FFFFFF;stop-opacity:0.87"/>
	<stop  offset="0.94" style="stop-color:#FFFFFF"/>
</linearGradient>
<path id="path133" fill="url(#path133_1_)" d="M62.837,92.78c-5.41-0.239-17.8-0.79-22.61-5.85c-30,6.8-31.85,4.78-34.72,2.79
	c0.52,0.617,1.074,1.204,1.66,1.76c2.102,2.026,4.573,3.629,7.28,4.721c2.757,1.262,5.783,1.829,8.81,1.649
	c3.58-0.07,22.36-2.62,41.74-5.38L62.837,92.78z"/>
<g id="g4261">
	<path id="path135" fill="#FFFFFF" d="M169.876,25.92c0.723,0.06,1.428,0.264,2.07,0.6c0.72,0.371,1.363,0.873,1.9,1.48
		c0.604,0.688,1.078,1.481,1.399,2.34c0.38,1.024,0.579,2.107,0.591,3.2c0.033,1.117-0.137,2.232-0.5,3.29
		c-0.322,0.922-0.833,1.767-1.5,2.479c-0.627,0.674-1.396,1.199-2.25,1.54c-0.885,0.348-1.832,0.501-2.781,0.45
		c-0.581-0.026-1.158-0.117-1.719-0.271c-0.561-0.146-1.1-0.358-1.611-0.63c-1.035-0.549-1.918-1.346-2.569-2.319
		c-0.308-0.407-0.568-0.847-0.78-1.311c-0.215-0.465-0.393-0.946-0.529-1.439c-0.131-0.477-0.231-0.961-0.301-1.45
		c-0.064-0.447-0.101-0.898-0.109-1.351c-0.01-0.532,0.027-1.063,0.109-1.59c0.08-0.501,0.197-0.996,0.35-1.479
		c0.146-0.464,0.32-0.918,0.521-1.36c0.2-0.439,0.421-0.86,0.65-1.26l4.54-7.47l5.51,0.439l-4,6.11l0.12,0.08
		c0.056-0.03,0.116-0.051,0.18-0.061h0.45L169.876,25.92z M168.567,36.46c0.34,0.02,0.681-0.031,1-0.15
		c0.313-0.12,0.597-0.309,0.829-0.55c0.243-0.252,0.43-0.552,0.551-0.88c0.135-0.372,0.199-0.765,0.189-1.16
		c-0.01-0.361-0.073-0.718-0.189-1.06c-0.117-0.36-0.293-0.698-0.52-1c-0.229-0.301-0.514-0.552-0.84-0.74
		c-0.35-0.2-0.74-0.316-1.141-0.34c-0.695-0.058-1.375,0.222-1.83,0.75c-0.222,0.258-0.391,0.557-0.5,0.88
		c-0.115,0.348-0.169,0.713-0.16,1.08c0.006,0.455,0.094,0.906,0.26,1.33c0.139,0.37,0.35,0.711,0.621,1
		c0.234,0.254,0.516,0.461,0.829,0.609c0.278,0.138,0.581,0.22,0.89,0.24"/>
	<path id="path137" fill="#FFFFFF" d="M152.937,17.78c0.751,0.074,1.486,0.263,2.18,0.561c0.867,0.365,1.666,0.876,2.359,1.51
		c0.812,0.749,1.459,1.658,1.9,2.67c0.542,1.265,0.824,2.625,0.83,4l0.11,6.061c0.046,1.295-0.165,2.586-0.62,3.8
		c-0.363,0.943-0.941,1.79-1.689,2.47c-0.664,0.593-1.443,1.039-2.291,1.311c-0.777,0.25-1.594,0.358-2.41,0.319
		c-0.817-0.052-1.621-0.237-2.379-0.55c-0.902-0.367-1.732-0.893-2.451-1.55c-0.823-0.756-1.48-1.676-1.93-2.7
		c-0.54-1.265-0.818-2.625-0.82-4l-0.09-6.18c-0.051-1.353,0.191-2.7,0.711-3.95c0.407-0.925,1.031-1.737,1.819-2.37
		c0.71-0.555,1.527-0.956,2.4-1.18C151.338,17.792,152.14,17.717,152.937,17.78z M155.367,32.46l-0.1-6.36
		c0.016-0.267,0.016-0.533,0-0.8c-0.043-0.38-0.133-0.753-0.271-1.11c-0.144-0.385-0.381-0.729-0.69-1
		c-0.373-0.308-0.836-0.486-1.319-0.51c-0.413-0.047-0.831,0.041-1.19,0.25c-0.3,0.192-0.539,0.467-0.689,0.79
		c-0.156,0.315-0.264,0.652-0.32,1c-0.053,0.33-0.076,0.665-0.07,1l0.1,6.4c0.002,0.362,0.036,0.724,0.101,1.08
		c0.067,0.378,0.189,0.745,0.36,1.09c0.167,0.34,0.414,0.636,0.72,0.859c0.351,0.242,0.765,0.378,1.19,0.391
		c0.466,0.044,0.934-0.076,1.32-0.34c0.305-0.24,0.534-0.563,0.659-0.931c0.126-0.348,0.203-0.711,0.229-1.08
		c0.018-0.263,0.018-0.526,0-0.79"/>
	<path id="path139" fill="#FFFFFF" d="M143.976,17.48l0.311,22.181l-5.18-0.261l-0.23-17.569l-3.32-0.24l-0.06-4.79L143.976,17.48z"
		/>
	<path id="path141" fill="#FFFFFF" d="M136.917,28.09l0.07,4.96l-12.07-0.71l-0.06-5.04L136.917,28.09L136.917,28.09z"/>
	<path id="path143" fill="#FFFFFF" d="M104.357,16.9c0.359,0.412,0.668,0.865,0.92,1.351c0.243,0.472,0.438,0.968,0.58,1.479
		c0.143,0.508,0.246,1.026,0.31,1.55c0.062,0.519,0.091,1.039,0.091,1.561c-0.006,0.598-0.066,1.193-0.181,1.78
		c-0.106,0.551-0.257,1.093-0.45,1.619c-0.188,0.508-0.408,1.002-0.66,1.48c-0.25,0.47-0.52,0.92-0.8,1.36l-5.55,8.31L91.837,37
		l5-6.91v-0.07h-1.111c-0.871-0.058-1.723-0.282-2.51-0.66c-0.877-0.416-1.673-0.984-2.35-1.68c-0.743-0.762-1.333-1.657-1.74-2.64
		c-0.46-1.127-0.694-2.333-0.69-3.551c-0.019-1.251,0.219-2.494,0.7-3.649c0.439-1.027,1.098-1.945,1.93-2.69
		c0.82-0.724,1.785-1.266,2.83-1.59c1.099-0.343,2.253-0.469,3.4-0.37c0.703,0.056,1.399,0.176,2.08,0.36
		c0.662,0.179,1.307,0.424,1.92,0.729c0.602,0.301,1.169,0.666,1.69,1.091C103.503,15.823,103.964,16.336,104.357,16.9z
		 M97.437,24.9c0.438,0.034,0.876-0.024,1.289-0.17c0.375-0.126,0.717-0.334,1-0.609c0.27-0.271,0.48-0.595,0.621-0.95
		c0.142-0.37,0.213-0.764,0.209-1.16c0.003-0.495-0.096-0.984-0.289-1.44c-0.17-0.401-0.418-0.765-0.73-1.069
		c-0.29-0.285-0.629-0.516-1-0.681c-0.35-0.16-0.727-0.259-1.109-0.29c-0.399-0.03-0.801,0.018-1.181,0.141
		c-0.37,0.117-0.71,0.312-1,0.569c-0.293,0.264-0.525,0.588-0.68,0.95c-0.169,0.402-0.254,0.834-0.25,1.271
		c0.005,0.398,0.076,0.794,0.21,1.17c0.136,0.389,0.339,0.751,0.6,1.07c0.276,0.334,0.616,0.609,1,0.81
		c0.42,0.216,0.879,0.342,1.35,0.37"/>
	<path id="path145" fill="#FFFFFF" d="M120.796,15.62v4.909l-7.63-0.59L112.757,23c0.149-0.07,0.299-0.15,0.469-0.221
		c0.188-0.073,0.383-0.131,0.58-0.17c0.258-0.056,0.518-0.089,0.781-0.1c0.359-0.02,0.72-0.02,1.079,0
		c2.216,0.139,4.244,1.29,5.5,3.12c1.066,1.506,1.661,3.295,1.71,5.14c0.004,0.935-0.145,1.863-0.439,2.75
		c-0.313,0.954-0.797,1.842-1.43,2.62c-0.68,0.83-1.543,1.49-2.521,1.93c-1.173,0.501-2.448,0.717-3.72,0.631
		c-1.096-0.047-2.174-0.28-3.19-0.69c-0.923-0.375-1.772-0.91-2.51-1.58c-0.708-0.644-1.303-1.4-1.761-2.24
		c-0.451-0.839-0.768-1.743-0.939-2.68l5.65,0.34c0.117,0.177,0.247,0.344,0.39,0.5c0.122,0.138,0.253,0.268,0.39,0.39
		c0.127,0.104,0.26,0.196,0.4,0.28c0.121,0.072,0.248,0.133,0.38,0.181c0.103,0.053,0.21,0.096,0.319,0.13l0.271,0.05h0.41
		c0.386,0.021,0.771-0.04,1.13-0.18c0.346-0.135,0.658-0.339,0.92-0.601c0.268-0.265,0.479-0.581,0.62-0.93
		c0.153-0.371,0.229-0.77,0.22-1.17c-0.002-0.382-0.07-0.761-0.199-1.12c-0.127-0.365-0.32-0.704-0.57-1
		c-0.254-0.309-0.566-0.563-0.92-0.75c-0.395-0.203-0.827-0.322-1.27-0.351c-0.27-0.033-0.541-0.033-0.811,0
		c-0.27,0.042-0.53,0.13-0.77,0.261c-0.264,0.146-0.498,0.339-0.69,0.569c-0.23,0.284-0.416,0.601-0.55,0.94l-4.561-1.49l1.79-13
		L120.796,15.62z"/>
</g>
</svg>
