<svg height="119.26" viewBox="0 0 191.34669 119.26" width="191.34669" xmlns="http://www.w3.org/2000/svg" xmlns:xlink="http://www.w3.org/1999/xlink"><linearGradient id="a" gradientUnits="userSpaceOnUse" x1="99.989998" x2="243.89999" y1="75.120003" y2="107.31"><stop offset="0" stop-color="#283287"/><stop offset=".25" stop-color="#2d378c"/><stop offset=".56" stop-color="#3b469a"/><stop offset=".9" stop-color="#525fb1"/><stop offset="1" stop-color="#5a68b9"/></linearGradient><linearGradient id="b" x1="99" x2="242.91" xlink:href="#a" y1="79.550003" y2="111.74"/><linearGradient id="c" gradientUnits="userSpaceOnUse" x1="163.85001" x2="170.37" y1="38.060001" y2="50.599998"><stop offset="0" stop-color="#fff" stop-opacity="0"/><stop offset="1" stop-color="#fff"/></linearGradient><linearGradient id="d" x1="97.690002" x2="104.22" xlink:href="#c" y1="72.669998" y2="85.209999"/><linearGradient id="e" x1="151.99001" x2="158.50999" xlink:href="#c" y1="44.240002" y2="56.779999"/><linearGradient id="f" x1="190.03999" x2="196.57001" xlink:href="#c" y1="24.42" y2="36.959999"/><linearGradient id="g" x1="113.86" x2="120.39" xlink:href="#c" y1="64.080002" y2="76.620003"/><linearGradient id="h" x1="176.14999" x2="182.67999" xlink:href="#c" y1="31.66" y2="44.200001"/><linearGradient id="i" x1="137.33" x2="143.86" xlink:href="#c" y1="51.860001" y2="64.400002"/><linearGradient id="j" gradientUnits="userSpaceOnUse" x1="82.209999" x2="82.209999" y1="3.4" y2="38.02"><stop offset="0" stop-color="#4b50b4"/><stop offset=".5" stop-color="#3646a0"/><stop offset="1" stop-color="#19285a"/></linearGradient><linearGradient id="k" gradientUnits="userSpaceOnUse" x1="56.200001" x2="106.22" y1="17.450001" y2="17.450001"><stop offset="0" stop-color="#fff" stop-opacity="0"/><stop offset=".14" stop-color="#fff" stop-opacity=".01"/><stop offset=".27" stop-color="#fff" stop-opacity=".06"/><stop offset=".39" stop-color="#fff" stop-opacity=".13"/><stop offset=".51" stop-color="#fff" stop-opacity=".23"/><stop offset=".63" stop-color="#fff" stop-opacity=".36"/><stop offset=".74" stop-color="#fff" stop-opacity=".53"/><stop offset=".86" stop-color="#fff" stop-opacity=".72"/><stop offset=".97" stop-color="#fff" stop-opacity=".93"/><stop offset="1" stop-color="#fff"/></linearGradient><linearGradient id="l" gradientUnits="userSpaceOnUse" x1="66.209999" x2="67.260002" y1="17.559999" y2="35.110001"><stop offset=".01" stop-color="#fff" stop-opacity="0"/><stop offset=".09" stop-color="#fff" stop-opacity=".04"/><stop offset=".23" stop-color="#fff" stop-opacity=".15"/><stop offset=".4" stop-color="#fff" stop-opacity=".32"/><stop offset=".61" stop-color="#fff" stop-opacity=".57"/><stop offset=".85" stop-color="#fff" stop-opacity=".87"/><stop offset=".94" stop-color="#fff"/></linearGradient><linearGradient id="m" x1="116.32" x2="120.35" xlink:href="#j" y1="85.279999" y2="113.98"/><linearGradient id="n" x1="119.81" x2="119.81" xlink:href="#c" y1="125.64" y2="48.060001"/><linearGradient id="o" x1="71.889999" x2="77.309998" xlink:href="#j" y1="56.209999" y2="78.879997"/><linearGradient id="p" x1="45.349998" x2="45.349998" xlink:href="#l" y1="65.400002" y2="21.73"/><linearGradient id="q" x1="57.849998" x2="55.389999" xlink:href="#l" y1="96.230003" y2="79.889999"/><linearGradient id="r" x1="113.89" x2="257.79999" xlink:href="#a" y1="12.99" y2="45.18"/><linearGradient id="s" x1="113.35" x2="257.26001" xlink:href="#a" y1="15.4" y2="47.580002"/><linearGradient id="t" x1="112.95" x2="256.85999" xlink:href="#a" y1="17.16" y2="49.349998"/><linearGradient id="u" x1="112.07" x2="255.98" xlink:href="#a" y1="21.120001" y2="53.299999"/><linearGradient id="v" x1="111.43" x2="255.34" xlink:href="#a" y1="23.99" y2="56.169998"/><linearGradient id="w" x1="112.08" x2="255.99001" xlink:href="#a" y1="21.08" y2="53.259998"/><linearGradient id="x" gradientUnits="userSpaceOnUse" x1="99.989998" x2="243.89999" xlink:href="#a" y1="75.120003" y2="107.31"/><linearGradient id="y" gradientUnits="userSpaceOnUse" x1="163.85001" x2="170.37" xlink:href="#c" y1="38.060001" y2="50.599998"/><linearGradient id="z" gradientUnits="userSpaceOnUse" x1="82.209999" x2="82.209999" xlink:href="#j" y1="3.4" y2="38.02"/><linearGradient id="A" gradientUnits="userSpaceOnUse" x1="66.209999" x2="67.260002" xlink:href="#l" y1="17.559999" y2="35.110001"/><g transform="translate(-21.833309)"><path d="m185.86 79.49-4 18-5.26-18.05-7.81-.03.86 27.78 5.63-.12-.87-20.72.08-.07 5.72 20.67 3.96-.08 4.23-20.62.07.07.54 20.43 5.41-.12-1-27.1z" fill="url(#x)"/><path d="m167.52 90.34-7.04.04-.13-4.76 7.27-.01-.19-6.21-13.25-.07.76 28.2 6.03-.14-.31-10.72 7.04-.08z" fill="url(#b)"/><path d="m161.12 51.07 5.03.15.74 23.63h6.44l-.72-23.43 4.89.14-.21-5.92-16.35-.7zm-55.55 11.66-7.87-.15a11 11 0 0 1 -.63 1.31 9.49 9.49 0 0 1 -1.3 1.79 7.09 7.09 0 0 1 -2.11 1.56 6.76 6.76 0 0 1 -3.06.64 7.31 7.31 0 0 1 -3.37-.88 8.16 8.16 0 0 1 -2.59-2.2 10.44 10.44 0 0 1 -1.64-3.08 11.58 11.58 0 0 1 -.61-3.57 10.92 10.92 0 0 1  .5-3.4 9.39 9.39 0 0 1 1.53-3 7.24 7.24 0 0 1 2.5-2.08 7 7 0 0 1 3.4-.67 7.17 7.17 0 0 1 2.75.62 7.54 7.54 0 0 1 2.1 1.38 9.14 9.14 0 0 1 1.49 1.84 10 10 0 0 1  .92 1.89l7.86.2a14.88 14.88 0 0 0 -1.44-4.08 17.71 17.71 0 0 0 -3-4.18 15.85 15.85 0 0 0 -4.57-3.33 15.43 15.43 0 0 0 -6.18-1.5 14.93 14.93 0 0 0 -6.56 1.16 14.3 14.3 0 0 0 -5 3.62 16.31 16.31 0 0 0 -3.11 5.27 17.38 17.38 0 0 0 -1 6.09 18.07 18.07 0 0 0 1.23 6.38 17.76 17.76 0 0 0 3.36 5.46 16.06 16.06 0 0 0 5.11 3.81 15.54 15.54 0 0 0 6.5 1.46 14.71 14.71 0 0 0 5.15-.86 14.27 14.27 0 0 0 4.37-2.51 15.07 15.07 0 0 0 3.3-3.91 17 17 0 0 0 1.97-5.08zm54.11-17.82-6.82-.31.82 30.25h6.83zm53.25 23.72-6.96-.11-.85-21.74-6.07-.22 1.1 28.35 13.03-.01zm-93.29-25.38-5.74-.25-11.16 31.6 8 .07 1.48-4.84 10 .13 1.6 4.72h7.74zm-5.49 20.25 2.76-10.66h.09l3.13 10.77zm74.38-17.38-4.64-.25-9.19 29h6.85l1.21-4.3 8.49.11 1.38 4.22h6.62zm-4.24 18.65 2.19-9.68h.09l2.83 9.77zm-32.45-12.41a12.09 12.09 0 0 0 -.65-2.17 11 11 0 0 0 -1-2 9.69 9.69 0 0 0 -1.43-1.7 7.57 7.57 0 0 0 -1.23-1 7.74 7.74 0 0 0 -1.64-.75 13.55 13.55 0 0 0 -2.3-.52 32 32 0 0 0 -3.23-.19l-9-.36.76 31 6.81.06-.38-9.73h3a19.55 19.55 0 0 0 2.78-.12 9.94 9.94 0 0 0 2.08-.46 7.36 7.36 0 0 0 1.62-.8 10 10 0 0 0 1.4-1.14 6.9 6.9 0 0 0 1.13-1.49 10.39 10.39 0 0 0  .85-1.93 13.42 13.42 0 0 0  .66-4.5 13 13 0 0 0 -.23-2.2zm-6.78 4.34a2.6 2.6 0 0 1 -1.16 1.07 4.26 4.26 0 0 1 -1.42.37 10.29 10.29 0 0 1 -1.24 0l-2.86-.07-.17-7.31 2.59.08a11.49 11.49 0 0 1 1.35.1 5 5 0 0 1 1.52.44 3 3 0 0 1 1.25 1.1 4.68 4.68 0 0 1  .14 4.21z" fill="#eb282d"/><path d="m172.61 51.42 4.89.15-.21-5.92-16.36-.7.19 6.13 5 .15.16 5.18q3.18-1 6.39-1.91z" fill="url(#y)" opacity=".21"/><path d="m79.18 69.84a16.06 16.06 0 0 0 5.11 3.81 15.54 15.54 0 0 0 6.5 1.46 14.71 14.71 0 0 0 5.15-.86 14.27 14.27 0 0 0 4.37-2.51 15.07 15.07 0 0 0 3.3-3.91 17 17 0 0 0 2-5.09l-7.87-.15a11 11 0 0 1 -.63 1.31 9.49 9.49 0 0 1 -1.3 1.79 7.09 7.09 0 0 1 -2.11 1.56 6.76 6.76 0 0 1 -3.06.64 7.31 7.31 0 0 1 -3.41-.89 8.16 8.16 0 0 1 -2.59-2.2 10.44 10.44 0 0 1 -1.64-3.08 11.58 11.58 0 0 1 -.61-3.57 10.92 10.92 0 0 1  .5-3.4 9.39 9.39 0 0 1 1.53-3 7.24 7.24 0 0 1 2.5-2.08 7 7 0 0 1 3.4-.67 7.17 7.17 0 0 1 2.75.62 7.54 7.54 0 0 1 2.1 1.38 9.14 9.14 0 0 1 1.49 1.84 10 10 0 0 1  .92 1.89l7.86.2a14.89 14.89 0 0 0 -1.44-4.08 17.71 17.71 0 0 0 -3-4.18 15.84 15.84 0 0 0 -4.57-3.33 15.42 15.42 0 0 0 -6.18-1.5 14.93 14.93 0 0 0 -6.56 1.16 14.3 14.3 0 0 0 -5 3.62 16.31 16.31 0 0 0 -3.11 5.27 17.38 17.38 0 0 0 -1 6.09 18.07 18.07 0 0 0 1.23 6.38 17.76 17.76 0 0 0 3.37 5.48z" fill="url(#d)" opacity=".21"/><path d="m159.68 44.92-6.81-.31.44 16.25q3.36-1.25 6.75-2.42z" fill="url(#e)" opacity=".21"/><path d="m205.12 46.78-6.06-.22.07 1.91q3-.52 6-1z" fill="url(#f)" opacity=".21"/><path d="m119.64 43.25-5.74-.25-11.16 31.6 8 .07 1.48-4.84 10 .13 1.4 4.11q3.21-1.68 6.48-3.29zm-5.49 20.25 2.76-10.66h.09l3.13 10.77z" fill="url(#g)" opacity=".21"/><path d="m188.53 46.12-4.64-.24-2 6.19q4-1 8.13-1.86z" fill="url(#h)" opacity=".21"/><path d="m138.55 65h4.12c2.34-1 4.7-1.94 7.08-2.87a7.19 7.19 0 0 0  .81-1.12 10.39 10.39 0 0 0  .85-1.93 13.42 13.42 0 0 0  .66-4.5 13 13 0 0 0 -.26-2.28 12.08 12.08 0 0 0 -.65-2.17 11 11 0 0 0 -1-2 9.69 9.69 0 0 0 -1.43-1.7 7.57 7.57 0 0 0 -1.23-1 7.74 7.74 0 0 0 -1.64-.75 13.55 13.55 0 0 0 -2.3-.52 32 32 0 0 0 -3.23-.19l-9-.36.64 26.2q3.3-1.58 6.66-3.07zm-.33-14.23 2.59.08a11.49 11.49 0 0 1 1.35.1 5 5 0 0 1 1.52.44 3 3 0 0 1 1.25 1.1 4.68 4.68 0 0 1  .12 4.2 2.6 2.6 0 0 1 -1.16 1.07 4.26 4.26 0 0 1 -1.42.37 10.28 10.28 0 0 1 -1.24 0l-2.86-.07z" fill="url(#i)" opacity=".21"/><path d="m52.61 44.33v-.18c-.26-19.83 14.83-25.65 14.83-25.65l44.38-18.5c-.7.43-1.82 1.25-1.82 1.25l-.18.12a20.59 20.59 0 0 0 -1.69 1.45l-.23.24-.18.16c-.12.12-.22.27-.35.4q-.64.68-1.21 1.41l-.52.68c-.39.53-.75 1.09-1.09 1.66-.09.14-.2.27-.27.42s0 .09-.07.14a22.9 22.9 0 0 0 -1.09 2.24s0 .11-.05.16-.13.38-.2.57c-.25.66-.47 1.34-.66 2 0 .13-.09.25-.12.38s0 .34-.09.5q-.22 1-.36 2c0 .29-.09.57-.12.86a24.77 24.77 0 0 0 -.14 2.9l.19 12-9.45-.44a26.16 26.16 0 0 0 -10.35 1.6z" fill="url(#z)"/><path d="m67.44 18.5h-.21l-.23.19a25.29 25.29 0 0 0 -12.87 15q-.18.55-.34 1.13a69.6 69.6 0 0 1 11.93-6.19s22.15-9.36 28.75-10.86a54.26 54.26 0 0 1 7.08-.93v-.28c0-.29.08-.57.12-.86q.14-1 .36-2c0-.16 0-.34.09-.5s.09-.25.12-.38c.19-.7.41-1.37.65-2 .07-.19.13-.38.2-.57s0-.11.05-.16a22.9 22.9 0 0 1 1.09-2.24s0-.1.07-.14.19-.27.27-.42c.34-.57.7-1.13 1.09-1.66l.51-.63q.57-.73 1.21-1.41c.12-.13.22-.27.35-.4l.18-.16.23-.24a20.58 20.58 0 0 1 1.69-1.45l.17-.09s1.12-.82 1.82-1.25z" fill="url(#k)" opacity=".5"/><path d="m53.73 35a66.71 66.71 0 0 1 12.84-6.62c.46-3.26 2.14-8 12.92-14.86l-12 5a25.13 25.13 0 0 0 -13.76 16.48z" fill="url(#A)" opacity=".58"/><path d="m80 92.64c.1 6.43.91 25.28 19.69 25.81 19.35.55 56.42.78 59.18.8a22 22 0 0 1 -7.26-1.59 8.17 8.17 0 0 0 -.84-.41 26.18 26.18 0 0 1 -8.48-5.83 28.72 28.72 0 0 1 -5.9-8.9 30.17 30.17 0 0 1 -2.36-11l-.14-5.92z" fill="url(#m)"/><path d="m151.63 117.66a8.16 8.16 0 0 0 -.84-.41 26.18 26.18 0 0 1 -8.48-5.83c-.39-.4-.76-.81-1.13-1.23-20.15.26-38.59-.78-49.33-3.17-7.68-1.71-9.56-4-11.13-5.65 1.41 7.59 5.7 16.71 19 17.09 19.35.5 56.42.78 59.18.8a22 22 0 0 1 -7.27-1.6z" fill="url(#n)"/><path d="m150.8 117.25a26.18 26.18 0 0 1 -8.48-5.83c-.39-.4-.76-.81-1.13-1.24-16.47.21-31.19-.47-42.56-2 .1 1.51 1.95 3.7 11.74 6 7.21 1.68 13.65 3.42 21 4.81 13.83.16 26 .24 27.55.25a22 22 0 0 1 -7.26-1.59 8.16 8.16 0 0 0 -.86-.4z" fill="#19285a" opacity=".4"/><path d="m52.67 44.29-17.29 7.65s-15.3 6.3-13.38 24.66a22.41 22.41 0 0 0 2.89 9.51 22.15 22.15 0 0 0 4.11 5.37 22.74 22.74 0 0 0 7.28 4.72 18.53 18.53 0 0 0 8.81 1.65c7.82-.15 88.91-12.26 88.91-12.26l-41.07.07a27.22 27.22 0 0 1 -10.67-2.18 28.36 28.36 0 0 1 -8.9-6 28.77 28.77 0 0 1 -6.1-9 28.18 28.18 0 0 1 -2.3-10.93c0-.86 0-1.7.12-2.54l.06-.65c.08-.74.19-1.46.32-2.18v-.29q.2-1 .46-1.91c0-.12.08-.24.12-.36.1-.35.22-.69.34-1s .15-.48.24-.72c.13-.36.24-.73.39-1.08a26 26 0 0 1 5.99-8.59 25.68 25.68 0 0 1 8.69-5.5z" fill="url(#o)"/><path d="m36.74 55.5c10.77-4.19 23.14-9 23.14-9a29.11 29.11 0 0 1 7.87-8.26l-15.07 6-17.3 7.7a23.81 23.81 0 0 0 -12.38 14c3.77-5.49 6.61-7.67 13.74-10.44z" fill="url(#p)"/><path d="m84.67 92.78c-5.41-.24-17.8-.79-22.61-5.85-30 6.8-31.85 4.78-34.72 2.79a21.83 21.83 0 0 0 1.66 1.76 22.74 22.74 0 0 0 7.28 4.72 18.53 18.53 0 0 0 8.81 1.65c3.58-.07 22.36-2.62 41.74-5.38z" fill="url(#q)"/><path d="m191.71 25.92a5.44 5.44 0 0 1 2.07.6 6.53 6.53 0 0 1 1.9 1.48 7.58 7.58 0 0 1 1.4 2.34 9.46 9.46 0 0 1  .59 3.2 9.26 9.26 0 0 1 -.5 3.29 7 7 0 0 1 -1.5 2.48 6.22 6.22 0 0 1 -2.25 1.54 6.63 6.63 0 0 1 -2.78.45 7.94 7.94 0 0 1 -1.72-.27 7.5 7.5 0 0 1 -1.61-.63 7.08 7.08 0 0 1 -2.57-2.32 7 7 0 0 1 -.78-1.31 9.47 9.47 0 0 1 -.53-1.44 11.67 11.67 0 0 1 -.3-1.45 11.09 11.09 0 0 1 -.11-1.35 9.19 9.19 0 0 1  .11-1.59 10.31 10.31 0 0 1  .35-1.48 11.85 11.85 0 0 1  .52-1.36c.2-.44.42-.86.65-1.26l4.54-7.47 5.51.44-4 6.11.12.08a.56.56 0 0 1  .18-.06h.45zm-1.31 10.54a2.45 2.45 0 0 0 1-.15 2.3 2.3 0 0 0  .83-.55 2.52 2.52 0 0 0  .55-.88 3.18 3.18 0 0 0  .19-1.16 3.59 3.59 0 0 0 -.19-1.06 3.46 3.46 0 0 0 -.52-1 2.83 2.83 0 0 0 -.84-.74 2.6 2.6 0 0 0 -1.14-.34 2.18 2.18 0 0 0 -1.83.75 2.66 2.66 0 0 0 -.5.88 3.21 3.21 0 0 0 -.16 1.08 3.75 3.75 0 0 0  .26 1.33 3 3 0 0 0  .62 1 2.72 2.72 0 0 0  .83.61 2.36 2.36 0 0 0  .89.24" fill="url(#r)"/><path d="m174.77 17.78a7.33 7.33 0 0 1 2.18.56 8.24 8.24 0 0 1 2.36 1.51 8 8 0 0 1 1.9 2.67 10.27 10.27 0 0 1  .83 4l .11 6.06a9.81 9.81 0 0 1 -.62 3.8 6.48 6.48 0 0 1 -1.69 2.47 6.33 6.33 0 0 1 -2.29 1.31 6.82 6.82 0 0 1 -2.41.32 7.5 7.5 0 0 1 -2.38-.55 8.23 8.23 0 0 1 -2.45-1.55 8.05 8.05 0 0 1 -1.93-2.7 10.2 10.2 0 0 1 -.82-4l-.09-6.18a9.36 9.36 0 0 1  .71-3.95 6.29 6.29 0 0 1 1.82-2.37 6.53 6.53 0 0 1 2.4-1.18 7 7 0 0 1 2.37-.22zm2.43 14.68-.1-6.36a6.72 6.72 0 0 0 0-.8 4.46 4.46 0 0 0 -.27-1.11 2.49 2.49 0 0 0 -.69-1 2.25 2.25 0 0 0 -1.32-.51 1.93 1.93 0 0 0 -1.19.25 1.88 1.88 0 0 0 -.69.79 3.52 3.52 0 0 0 -.32 1 5.58 5.58 0 0 0 -.07 1l .1 6.4a6.21 6.21 0 0 0  .1 1.08 4.07 4.07 0 0 0  .36 1.09 2.35 2.35 0 0 0  .72.86 2.21 2.21 0 0 0 1.19.39 2 2 0 0 0 1.32-.34 2 2 0 0 0  .66-.93 4.07 4.07 0 0 0  .23-1.08 6.23 6.23 0 0 0 0-.79" fill="url(#s)"/><path d="m165.81 17.48.31 22.18-5.18-.26-.23-17.57-3.32-.24-.06-4.79z" fill="url(#t)"/><path d="m158.75 28.09.07 4.96-12.07-.71-.06-5.04z" fill="url(#u)"/><path d="m126.19 16.9a6.82 6.82 0 0 1  .92 1.35 7.78 7.78 0 0 1  .58 1.48 10.23 10.23 0 0 1  .31 1.55 13.1 13.1 0 0 1  .09 1.56 9.83 9.83 0 0 1 -.18 1.78 10.44 10.44 0 0 1 -.45 1.62 12.44 12.44 0 0 1 -.66 1.48c-.25.47-.52.92-.8 1.36l-5.55 8.31-6.78-.39 5-6.91v-.07h-1.11a6.86 6.86 0 0 1 -2.51-.66 8.17 8.17 0 0 1 -2.35-1.68 8.37 8.37 0 0 1 -1.74-2.64 9.3 9.3 0 0 1 -.69-3.55 9.13 9.13 0 0 1  .7-3.65 7.65 7.65 0 0 1 1.93-2.69 7.74 7.74 0 0 1 2.83-1.59 8.85 8.85 0 0 1 3.4-.37 11.4 11.4 0 0 1 2.08.36 10.38 10.38 0 0 1 1.92.73 9.12 9.12 0 0 1 1.69 1.09 8.47 8.47 0 0 1 1.37 1.53zm-6.92 8a3.16 3.16 0 0 0 1.29-.17 2.65 2.65 0 0 0 1-.61 2.8 2.8 0 0 0  .62-.95 3.16 3.16 0 0 0  .21-1.16 3.64 3.64 0 0 0 -.29-1.44 3.28 3.28 0 0 0 -.73-1.07 3.39 3.39 0 0 0 -1-.68 3.3 3.3 0 0 0 -1.11-.29 3.07 3.07 0 0 0 -1.18.14 2.74 2.74 0 0 0 -1 .57 2.71 2.71 0 0 0 -.68.95 3.2 3.2 0 0 0 -.25 1.27 3.63 3.63 0 0 0  .21 1.17 3.56 3.56 0 0 0  .6 1.07 3.24 3.24 0 0 0 1 .81 3.4 3.4 0 0 0 1.35.37" fill="url(#v)"/><path d="m142.63 15.62v4.91l-7.63-.59-.41 3.06c.15-.07.3-.15.47-.22a3.37 3.37 0 0 1  .58-.17 4.55 4.55 0 0 1  .78-.1 9.74 9.74 0 0 1 1.08 0 7.22 7.22 0 0 1 5.5 3.12 9.32 9.32 0 0 1 1.71 5.14 8.63 8.63 0 0 1 -.44 2.75 8.16 8.16 0 0 1 -1.43 2.62 6.92 6.92 0 0 1 -2.52 1.93 8.07 8.07 0 0 1 -3.72.63 9.59 9.59 0 0 1 -3.19-.69 8.47 8.47 0 0 1 -2.51-1.58 8.56 8.56 0 0 1 -1.76-2.24 9.12 9.12 0 0 1 -.94-2.68l5.65.34a4.16 4.16 0 0 0  .39.5 4.67 4.67 0 0 0  .39.39 3.44 3.44 0 0 0  .4.28 2.14 2.14 0 0 0  .38.18 1.93 1.93 0 0 0  .32.13l.27.05h.41a2.7 2.7 0 0 0 1.13-.18 2.66 2.66 0 0 0  .92-.6 2.77 2.77 0 0 0  .62-.93 2.89 2.89 0 0 0  .22-1.17 3.36 3.36 0 0 0 -.2-1.12 3.16 3.16 0 0 0 -.57-1 3 3 0 0 0 -.92-.75 3.21 3.21 0 0 0 -1.27-.35 3.27 3.27 0 0 0 -.81 0 2.36 2.36 0 0 0 -.77.26 2.42 2.42 0 0 0 -.69.57 3.57 3.57 0 0 0 -.55.94l-4.56-1.49 1.79-13z" fill="url(#w)"/></g></svg>