<?xml version="1.0" encoding="UTF-8" standalone="no"?>
<!-- Created with Inkscape (http://www.inkscape.org/) -->

<svg
   xmlns:dc="http://purl.org/dc/elements/1.1/"
   xmlns:cc="http://creativecommons.org/ns#"
   xmlns:rdf="http://www.w3.org/1999/02/22-rdf-syntax-ns#"
   xmlns:svg="http://www.w3.org/2000/svg"
   xmlns="http://www.w3.org/2000/svg"
   xmlns:sodipodi="http://sodipodi.sourceforge.net/DTD/sodipodi-0.dtd"
   xmlns:inkscape="http://www.inkscape.org/namespaces/inkscape"
   width="30.939037mm"
   height="7.2872953mm"
   viewBox="0 0 109.62651 25.821125"
   id="svg5280"
   version="1.1"
   inkscape:version="0.91 r13725"
   sodipodi:docname="Freesat - Dark.svg">
  <defs
     id="defs5282">
    <clipPath
       clipPathUnits="userSpaceOnUse"
       id="clipPath1048">
      <path
         d="m 39.685,648.425 517.613,0 0,153.78 -517.613,0 0,-153.78 z"
         id="path1050"
         inkscape:connector-curvature="0" />
    </clipPath>
  </defs>
  <sodipodi:namedview
     id="base"
     pagecolor="#ffffff"
     bordercolor="#666666"
     borderopacity="1.0"
     inkscape:pageopacity="0.0"
     inkscape:pageshadow="2"
     inkscape:zoom="3.959798"
     inkscape:cx="31.535675"
     inkscape:cy="-1.6760639"
     inkscape:document-units="px"
     inkscape:current-layer="layer1"
     showgrid="false"
     fit-margin-top="0"
     fit-margin-left="0"
     fit-margin-right="0"
     fit-margin-bottom="0"
     inkscape:window-width="1920"
     inkscape:window-height="1017"
     inkscape:window-x="-8"
     inkscape:window-y="-8"
     inkscape:window-maximized="1" />
  <metadata
     id="metadata5285">
    <rdf:RDF>
      <cc:Work
         rdf:about="">
        <dc:format>image/svg+xml</dc:format>
        <dc:type
           rdf:resource="http://purl.org/dc/dcmitype/StillImage" />
        <dc:title></dc:title>
      </cc:Work>
    </rdf:RDF>
  </metadata>
  <g
     inkscape:label="Layer 1"
     inkscape:groupmode="layer"
     id="layer1"
     transform="translate(-102.3296,-416.59445)">
    <path
       inkscape:connector-curvature="0"
       id="path1054"
       style="fill:#787878;fill-opacity:1;fill-rule:nonzero;stroke:none"
       d="m 166.54723,430.62745 -5.0525,0 0,-0.79625 c 0,-1.80375 0.77375,-2.57375 2.5925,-2.57375 1.79375,0 2.46,0.69625 2.46,2.57375 l 0,0.79625 z m -2.46,-5.7725 c -3.5175,0 -5.3725,1.78 -5.3725,5.1325 l 0,3.9025 c 0,3.4 1.77375,5.05125 5.42625,5.05125 1.6425,0 3.3875,-0.285 4.6925,-0.76375 l 0.205,-0.0725 -0.37625,-2.3025 -0.285,0.075 c -1.52125,0.40125 -2.8825,0.6075 -4.0525,0.6075 -2.435,0 -2.83,-0.7775 -2.83,-2.61875 l 0,-0.8325 7.7475,0 0,-2.9925 c 0,-3.4425 -1.73,-5.18625 -5.155,-5.18625" />
    <path
       inkscape:connector-curvature="0"
       id="path1058"
       style="fill:#787878;fill-opacity:1;fill-rule:nonzero;stroke:none"
       d="m 156.60661,425.1637 c -0.99125,0.135 -1.57875,0.6325 -1.72,0.7175 -0.002,-0.0837 0,-0.76125 0,-0.76125 l -2.4675,0 0,13.55 2.7825,0 0,-7.73625 c -0.004,-2.23125 0.36625,-3.04625 1.73125,-3.36625 0.50625,-0.12 1.2725,-0.055 1.2725,-0.055 l 0.2475,-2.3925 c 0,0 -0.89375,-0.0863 -1.84625,0.0437" />
    <path
       inkscape:connector-curvature="0"
       id="path1062"
       style="fill:#787878;fill-opacity:1;fill-rule:nonzero;stroke:none"
       d="m 186.88261,430.63283 c -2.06875,-0.18375 -2.0175,-0.58125 -2.0175,-1.8075 0,-0.90625 0.0725,-1.51125 1.9275,-1.51125 0.99375,0 2.36125,0.20125 3.49375,0.4225 l 0.28875,0.0587 0.20375,-2.31 -0.2075,-0.0587 c -1.07875,-0.29625 -2.38125,-0.5725 -3.7,-0.5725 -3.38,0 -4.76125,1.1575 -4.76125,3.82875 0,2.70375 0.28375,3.99 3.7325,4.33 2.4775,0.245 2.5225,0.68625 2.5225,1.88625 0,0.92875 -0.0962,1.585 -2.1325,1.585 -1.1,0 -2.36125,-0.28 -3.47125,-0.59875 l -0.2875,-0.0825 -0.385,2.2975 0.20375,0.0825 c 1.08125,0.40625 2.68625,0.7575 4.0725,0.7575 3.97875,0 4.755,-1.4825 4.755,-4.0325 0,-2.82375 -0.48,-3.94 -4.2375,-4.275" />
    <path
       inkscape:connector-curvature="0"
       id="path1066"
       style="fill:#787878;fill-opacity:1;fill-rule:nonzero;stroke:none"
       d="m 199.64661,435.52945 c -0.9675,0.59625 -2.11625,0.955 -3.1,0.955 -1.45,0 -1.57875,-0.415 -1.57875,-1.605 0,-1.145 0.365,-1.84375 1.6325,-1.84375 l 3.04625,0 0,2.49375 z m -2.43375,-10.67375 c -1.335,0 -3,0.2175 -4.34625,0.575 l -0.22875,0.055 0.31125,2.30875 0.28375,-0.0537 c 0.97,-0.20875 2.58,-0.42625 3.84625,-0.42625 2.18,0 2.5675,0.62125 2.5675,1.925 l 0,1.3875 -3.21125,0 c -2.93625,0 -4.24375,1.58875 -4.24375,4.30375 0,2.62375 1.2825,4.01 3.71125,4.01 1.47875,0 2.88625,-0.37125 4.01875,-1.04875 0.0325,0.26875 0.1025,0.78375 0.1025,0.78375 l 2.4,0 0,-9.32875 c 0,-3.14625 -1.5575,-4.49125 -5.21125,-4.49125" />
    <path
       inkscape:connector-curvature="0"
       id="path1070"
       style="fill:#787878;fill-opacity:1;fill-rule:nonzero;stroke:none"
       d="m 178.24198,430.62745 -5.05125,0 0,-0.79625 c 0,-1.80375 0.77375,-2.57375 2.595,-2.57375 1.7925,0 2.45625,0.69625 2.45625,2.57375 l 0,0.79625 z m -2.45625,-5.7725 c -3.52,0 -5.37375,1.78 -5.37375,5.1325 l 0,3.9025 c 0,3.4 1.7725,5.05125 5.42375,5.05125 1.64375,0 3.395,-0.285 4.6925,-0.76375 l 0.20875,-0.0725 -0.37875,-2.3025 -0.28625,0.075 c -1.5225,0.40125 -2.87875,0.6075 -4.04875,0.6075 -2.4375,0 -2.8325,-0.7775 -2.8325,-2.61875 l 0,-0.8325 7.75375,0 0,-2.9925 c 0,-3.4425 -1.73875,-5.18625 -5.15875,-5.18625" />
    <path
       inkscape:connector-curvature="0"
       id="path1074"
       style="fill:#787878;fill-opacity:1;fill-rule:nonzero;stroke:none"
       d="m 211.57861,436.12545 -0.28375,0.0688 c -0.845,0.22125 -1.45,0.3125 -2.0175,0.3125 -0.98125,0 -1.07125,-0.2875 -1.07125,-1.1725 l 0,-7.80375 2.64375,0 0.24,-2.41 -2.88375,0 0,-3.56875 -2.77375,0.39625 0,3.1725 -2.3025,0 0,2.41 2.3025,0 0,8.1775 c 0,2.2375 1.075,3.23125 3.4975,3.23125 0.94125,0 1.9475,-0.17375 2.82,-0.49125 l 0.20625,-0.08 -0.3775,-2.2425 z" />
    <path
       inkscape:connector-curvature="0"
       id="path1078"
       style="fill:#787878;fill-opacity:1;fill-rule:nonzero;stroke:none"
       d="m 151.22424,428.29533 -6.59125,0 0,-5.29125 7.1375,0 0.27875,-2.68625 -8.97,0 c -0.8675,0 -1.37375,0.6525 -1.37375,1.3725 l 0,17.03 2.9275,0 0,-7.7375 6.31375,0 0.2775,-2.6875 z" />
    <path
       inkscape:connector-curvature="0"
       id="path1082"
       style="fill:#f7980f;fill-opacity:1;fill-rule:nonzero;stroke:none"
       d="m 132.90123,436.51133 c 3.00625,-3.215 4.09,-6.0175 3.45375,-7.39625 -0.635,-1.38 -3.47,-2.3775 -7.86625,-2.18125 -4.3975,0.1975 -7.48,1.88875 -4.68125,7.9625 2.79875,6.075 6.0875,4.83 9.09375,1.615" />
    <path
       inkscape:connector-curvature="0"
       id="path1086"
       style="fill:#ffffff;fill-opacity:1;fill-rule:nonzero;stroke:none"
       d="m 129.57248,427.42145 c -0.345,0 -0.70125,0.007 -1.06125,0.0238 -2.575,0.115 -4.16125,0.7225 -4.85375,1.8575 -0.70375,1.15625 -0.4975,2.96625 0.615,5.38 1.22,2.65 2.59875,3.99375 4.0975,3.99375 1.1975,0 2.5975,-0.845 4.15625,-2.515 2.99875,-3.20375 3.84625,-5.7875 3.365,-6.8325 -0.4375,-0.95 -2.56125,-1.9075 -6.31875,-1.9075 m -1.2025,12.27875 0,0 c -1.93375,0 -3.625,-1.54375 -5.0275,-4.59 -1.28125,-2.78 -1.46375,-4.85375 -0.55875,-6.34 0.8825,-1.4475 2.74125,-2.21625 5.68125,-2.3475 0.375,-0.0163 0.7475,-0.025 1.1075,-0.025 3.81625,0 6.52625,0.93625 7.24875,2.5025 0.7925,1.72375 -0.565,4.77375 -3.54625,7.96125 -1.78625,1.91 -3.39125,2.83875 -4.905,2.83875" />
    <path
       inkscape:connector-curvature="0"
       id="path1090"
       style="fill:#00adef;fill-opacity:1;fill-rule:nonzero;stroke:none"
       d="m 129.61824,434.40883 c 2.485,-6.8975 2.30125,-11.89875 0.42125,-13.5925 -1.8825,-1.69375 -6.875,-1.35375 -13.475,1.83875 -6.59875,3.1925 -10.205,7.81 -1.92625,15.265 8.28,7.455 12.495,3.38625 14.98,-3.51125" />
    <path
       inkscape:connector-curvature="0"
       id="path1094"
       style="fill:#ffffff;fill-opacity:1;fill-rule:nonzero;stroke:none"
       d="m 126.55124,420.32308 c -2.57375,0 -6.04125,0.99125 -9.76375,2.79375 -3.97375,1.9225 -6.06625,3.98125 -6.39375,6.2925 -0.33375,2.3525 1.20875,5.0875 4.5875,8.13 2.83875,2.55625 5.33375,3.8525 7.415,3.8525 2.79875,0 5.005,-2.34 6.74125,-7.15625 2.545,-7.06375 2.11375,-11.63875 0.55875,-13.03875 -0.635,-0.57125 -1.7225,-0.87375 -3.145,-0.87375 m -4.155,22.0925 0,0 c -2.37625,0 -5.02375,-1.34625 -8.1,-4.115 -3.69875,-3.33125 -5.3075,-6.28625 -4.91625,-9.035 0.38125,-2.675 2.6575,-4.98875 6.96125,-7.07125 3.86,-1.86625 7.485,-2.895 10.21,-2.895 1.68,0 3.005,0.3925 3.83,1.13625 2.2425,2.02 2.13625,7.44125 -0.28125,14.1475 -1.9,5.27 -4.42,7.8325 -7.70375,7.8325" />
    <path
       inkscape:connector-curvature="0"
       id="path1098"
       style="fill:#5e2590;fill-opacity:1;fill-rule:nonzero;stroke:none"
       d="m 126.38986,426.3877 c -2.5425,-6.09 -5.70625,-9.3 -7.985,-9.28125 -2.27875,0.02 -5.3875,3.28125 -7.8275,9.41375 -2.44125,6.13125 -2.02875,11.39 8,11.305 10.03125,-0.0838 10.355,-5.3475 7.8125,-11.4375" />
    <path
       inkscape:connector-curvature="0"
       id="path1102"
       style="fill:#ffffff;fill-opacity:1;fill-rule:nonzero;stroke:none"
       d="m 118.53223,417.6182 -0.0362,0 c -1.86875,-0.001 -4.89125,2.79 -7.4375,9.025 -1.48375,3.64 -1.6525,6.25125 -0.515,7.98125 1.1225,1.7075 3.6225,2.61 7.43125,2.68375 l 0.001,0.001 c 0.16875,0.002 0.33875,0.005 0.51125,0.005 4.075,0.001 6.7425,-0.89 7.92625,-2.65125 1.16375,-1.72875 1.00375,-4.35 -0.48875,-8.01375 -2.52,-6.18875 -5.52875,-8.995 -7.3925,-9.03125 m -0.57625,20.71375 -0.001,0 c -4.22375,-0.0825 -6.92875,-1.11 -8.26625,-3.145 -1.33875,-2.03375 -1.19875,-4.955 0.42375,-8.93 2.4325,-5.96125 5.645,-9.66375 8.38375,-9.6625 l 0.0562,0 c 2.725,0.0537 5.91375,3.7575 8.32,9.66875 1.63125,4.005 1.75875,6.93875 0.39125,8.97125 -1.40625,2.09 -4.27625,3.105 -8.77625,3.10375 -0.18125,0 -0.35625,-0.002 -0.53125,-0.006" />
    <path
       inkscape:connector-curvature="0"
       id="path1106"
       style="fill:#ec008c;fill-opacity:1;fill-rule:nonzero;stroke:none"
       d="m 115.19548,422.9747 c -5.99125,-1.87125 -10.26375,-1.5275 -11.64125,0.14375 -1.38,1.67125 -0.90375,5.93 2.07,11.4575 2.97625,5.52625 7.05875,8.43875 13.12875,1.08125 6.07,-7.3575 2.43375,-10.81125 -3.5575,-12.6825" />
    <path
       inkscape:connector-curvature="0"
       id="path1110"
       style="fill:#ffffff;fill-opacity:1;fill-rule:nonzero;stroke:none"
       d="m 118.30911,435.39708 c -0.1075,0.1275 -0.21125,0.24875 -0.3175,0.37125 -2.375,2.71875 -4.56,3.98875 -6.48,3.765 -1.94875,-0.22625 -3.7425,-1.9425 -5.4825,-5.2425 -2.9825,-5.65875 -3.17,-9.5575 -2.0325,-10.9125 l 0.0225,-0.0263 c 0.6525,-0.74875 2.0725,-1.16 3.99625,-1.16 1.9875,0 4.43625,0.45125 7.08,1.3025 3.57375,1.15 5.57875,2.63125 6.12375,4.5275 0.55625,1.93125 -0.4225,4.41375 -2.91,7.375 m 3.885,-7.65625 c -0.64625,-2.24625 -2.8675,-3.95125 -6.7875,-5.21375 -2.75625,-0.8875 -5.32375,-1.35625 -7.425,-1.35625 -2.22875,0 -3.8625,0.52375 -4.7275,1.51375 l -0.0337,0.0412 c -1.68125,2 -0.94875,6.61375 1.91125,12.0375 1.9075,3.61875 3.95625,5.51 6.2625,5.77875 0.19125,0.0225 0.38625,0.0337 0.58,0.0337 2.1325,0 4.35,-1.355 6.78375,-4.14125 0.11,-0.12625 0.2175,-0.2525 0.32875,-0.385 2.75625,-3.28125 3.77375,-6 3.1075,-8.30875" />
  </g>
</svg>
