<?xml version="1.0" encoding="UTF-8"?>
<!-- Created with Inkscape (http://www.inkscape.org/) -->
<svg id="svg5280" width="30.939mm" height="7.2873mm" version="1.1" viewBox="0 0 109.63 25.821" xmlns="http://www.w3.org/2000/svg" xmlns:cc="http://creativecommons.org/ns#" xmlns:dc="http://purl.org/dc/elements/1.1/" xmlns:rdf="http://www.w3.org/1999/02/22-rdf-syntax-ns#">
 <metadata id="metadata5285">
  <rdf:RDF>
   <cc:Work rdf:about="">
    <dc:format>image/svg+xml</dc:format>
    <dc:type rdf:resource="http://purl.org/dc/dcmitype/StillImage"/>
    <dc:title/>
   </cc:Work>
  </rdf:RDF>
 </metadata>
 <g id="layer1" transform="translate(-102.33 -416.59)">
  <path id="path1054" d="m166.55 430.63h-5.0525v-0.79625c0-1.8038 0.77375-2.5738 2.5925-2.5738 1.7938 0 2.46 0.69625 2.46 2.5738v0.79625zm-2.46-5.7725c-3.5175 0-5.3725 1.78-5.3725 5.1325v3.9025c0 3.4 1.7738 5.0512 5.4262 5.0512 1.6425 0 3.3875-0.285 4.6925-0.76375l0.205-0.0725-0.37625-2.3025-0.285 0.075c-1.5212 0.40125-2.8825 0.6075-4.0525 0.6075-2.435 0-2.83-0.7775-2.83-2.6188v-0.8325h7.7475v-2.9925c0-3.4425-1.73-5.1862-5.155-5.1862" fill="#787878"/>
  <path id="path1058" d="m156.61 425.16c-0.99125 0.135-1.5788 0.6325-1.72 0.7175-2e-3 -0.0837 0-0.76125 0-0.76125h-2.4675v13.55h2.7825v-7.7362c-4e-3 -2.2312 0.36625-3.0462 1.7312-3.3662 0.50625-0.12 1.2725-0.055 1.2725-0.055l0.2475-2.3925s-0.89375-0.0863-1.8462 0.0437" fill="#787878"/>
  <path id="path1062" d="m186.88 430.63c-2.0688-0.18375-2.0175-0.58125-2.0175-1.8075 0-0.90625 0.0725-1.5112 1.9275-1.5112 0.99375 0 2.3612 0.20125 3.4938 0.4225l0.28875 0.0587 0.20375-2.31-0.2075-0.0587c-1.0788-0.29625-2.3812-0.5725-3.7-0.5725-3.38 0-4.7612 1.1575-4.7612 3.8288 0 2.7038 0.28375 3.99 3.7325 4.33 2.4775 0.245 2.5225 0.68625 2.5225 1.8862 0 0.92875-0.0962 1.585-2.1325 1.585-1.1 0-2.3612-0.28-3.4712-0.59875l-0.2875-0.0825-0.385 2.2975 0.20375 0.0825c1.0812 0.40625 2.6862 0.7575 4.0725 0.7575 3.9788 0 4.755-1.4825 4.755-4.0325 0-2.8238-0.48-3.94-4.2375-4.275" fill="#787878"/>
  <path id="path1066" d="m199.65 435.53c-0.9675 0.59625-2.1162 0.955-3.1 0.955-1.45 0-1.5788-0.415-1.5788-1.605 0-1.145 0.365-1.8438 1.6325-1.8438h3.0462v2.4938zm-2.4338-10.674c-1.335 0-3 0.2175-4.3462 0.575l-0.22875 0.055 0.31125 2.3088 0.28375-0.0537c0.97-0.20875 2.58-0.42625 3.8462-0.42625 2.18 0 2.5675 0.62125 2.5675 1.925v1.3875h-3.2112c-2.9362 0-4.2438 1.5888-4.2438 4.3038 0 2.6238 1.2825 4.01 3.7112 4.01 1.4788 0 2.8862-0.37125 4.0188-1.0488 0.0325 0.26875 0.1025 0.78375 0.1025 0.78375h2.4v-9.3288c0-3.1462-1.5575-4.4912-5.2112-4.4912" fill="#787878"/>
  <path id="path1070" d="m178.24 430.63h-5.0512v-0.79625c0-1.8038 0.77375-2.5738 2.595-2.5738 1.7925 0 2.4562 0.69625 2.4562 2.5738v0.79625zm-2.4562-5.7725c-3.52 0-5.3738 1.78-5.3738 5.1325v3.9025c0 3.4 1.7725 5.0512 5.4238 5.0512 1.6438 0 3.395-0.285 4.6925-0.76375l0.20875-0.0725-0.37875-2.3025-0.28625 0.075c-1.5225 0.40125-2.8788 0.6075-4.0488 0.6075-2.4375 0-2.8325-0.7775-2.8325-2.6188v-0.8325h7.7538v-2.9925c0-3.4425-1.7388-5.1862-5.1588-5.1862" fill="#787878"/>
  <path id="path1074" d="m211.58 436.13-0.28375 0.0688c-0.845 0.22125-1.45 0.3125-2.0175 0.3125-0.98125 0-1.0712-0.2875-1.0712-1.1725v-7.8038h2.6438l0.24-2.41h-2.8838v-3.5688l-2.7738 0.39625v3.1725h-2.3025v2.41h2.3025v8.1775c0 2.2375 1.075 3.2312 3.4975 3.2312 0.94125 0 1.9475-0.17375 2.82-0.49125l0.20625-0.08-0.3775-2.2425z" fill="#787878"/>
  <path id="path1078" d="m151.22 428.3h-6.5912v-5.2912h7.1375l0.27875-2.6862h-8.97c-0.8675 0-1.3738 0.6525-1.3738 1.3725v17.03h2.9275v-7.7375h6.3138l0.2775-2.6875z" fill="#787878"/>
  <path id="path1082" d="m132.9 436.51c3.0062-3.215 4.09-6.0175 3.4538-7.3962-0.635-1.38-3.47-2.3775-7.8662-2.1812-4.3975 0.1975-7.48 1.8888-4.6812 7.9625 2.7988 6.075 6.0875 4.83 9.0938 1.615" fill="#f7980f"/>
  <path id="path1086" d="m129.57 427.42c-0.345 0-0.70125 7e-3 -1.0612 0.0238-2.575 0.115-4.1612 0.7225-4.8538 1.8575-0.70375 1.1562-0.4975 2.9662 0.615 5.38 1.22 2.65 2.5988 3.9938 4.0975 3.9938 1.1975 0 2.5975-0.845 4.1562-2.515 2.9988-3.2038 3.8462-5.7875 3.365-6.8325-0.4375-0.95-2.5612-1.9075-6.3188-1.9075m-1.2025 12.279c-1.9338 0-3.625-1.5438-5.0275-4.59-1.2812-2.78-1.4638-4.8538-0.55875-6.34 0.8825-1.4475 2.7412-2.2162 5.6812-2.3475 0.375-0.0163 0.7475-0.025 1.1075-0.025 3.8162 0 6.5262 0.93625 7.2488 2.5025 0.7925 1.7238-0.565 4.7738-3.5462 7.9612-1.7862 1.91-3.3912 2.8388-4.905 2.8388" fill="#fff"/>
  <path id="path1090" d="m129.62 434.41c2.485-6.8975 2.3012-11.899 0.42125-13.592-1.8825-1.6938-6.875-1.3538-13.475 1.8388-6.5988 3.1925-10.205 7.81-1.9262 15.265 8.28 7.455 12.495 3.3862 14.98-3.5112" fill="#00adef"/>
  <path id="path1094" d="m126.55 420.32c-2.5738 0-6.0412 0.99125-9.7638 2.7938-3.9738 1.9225-6.0662 3.9812-6.3938 6.2925-0.33375 2.3525 1.2088 5.0875 4.5875 8.13 2.8388 2.5562 5.3338 3.8525 7.415 3.8525 2.7988 0 5.005-2.34 6.7412-7.1562 2.545-7.0638 2.1138-11.639 0.55875-13.039-0.635-0.57125-1.7225-0.87375-3.145-0.87375m-4.155 22.092c-2.3762 0-5.0238-1.3462-8.1-4.115-3.6988-3.3312-5.3075-6.2862-4.9162-9.035 0.38125-2.675 2.6575-4.9888 6.9612-7.0712 3.86-1.8662 7.485-2.895 10.21-2.895 1.68 0 3.005 0.3925 3.83 1.1362 2.2425 2.02 2.1362 7.4412-0.28125 14.148-1.9 5.27-4.42 7.8325-7.7038 7.8325" fill="#fff"/>
  <path id="path1098" d="m126.39 426.39c-2.5425-6.09-5.7062-9.3-7.985-9.2812-2.2788 0.02-5.3875 3.2812-7.8275 9.4138-2.4412 6.1312-2.0288 11.39 8 11.305 10.031-0.0838 10.355-5.3475 7.8125-11.438" fill="#5e2590"/>
  <path id="path1102" d="m118.53 417.62h-0.0362c-1.8688-1e-3 -4.8912 2.79-7.4375 9.025-1.4838 3.64-1.6525 6.2512-0.515 7.9812 1.1225 1.7075 3.6225 2.61 7.4312 2.6838l1e-3 1e-3c0.16875 2e-3 0.33875 5e-3 0.51125 5e-3 4.075 1e-3 6.7425-0.89 7.9262-2.6512 1.1638-1.7288 1.0038-4.35-0.48875-8.0138-2.52-6.1888-5.5288-8.995-7.3925-9.0312m-0.57625 20.714h-1e-3c-4.2238-0.0825-6.9288-1.11-8.2662-3.145-1.3388-2.0338-1.1988-4.955 0.42375-8.93 2.4325-5.9612 5.645-9.6638 8.3838-9.6625h0.0562c2.725 0.0537 5.9138 3.7575 8.32 9.6688 1.6312 4.005 1.7588 6.9388 0.39125 8.9712-1.4062 2.09-4.2762 3.105-8.7762 3.1038-0.18125 0-0.35625-2e-3 -0.53125-6e-3" fill="#fff"/>
  <path id="path1106" d="m115.2 422.97c-5.9912-1.8712-10.264-1.5275-11.641 0.14375-1.38 1.6712-0.90375 5.93 2.07 11.458 2.9762 5.5262 7.0588 8.4388 13.129 1.0812s2.4338-10.811-3.5575-12.682" fill="#ec008c"/>
  <path id="path1110" d="m118.31 435.4c-0.1075 0.1275-0.21125 0.24875-0.3175 0.37125-2.375 2.7188-4.56 3.9888-6.48 3.765-1.9488-0.22625-3.7425-1.9425-5.4825-5.2425-2.9825-5.6588-3.17-9.5575-2.0325-10.912l0.0225-0.0263c0.6525-0.74875 2.0725-1.16 3.9962-1.16 1.9875 0 4.4362 0.45125 7.08 1.3025 3.5738 1.15 5.5788 2.6312 6.1238 4.5275 0.55625 1.9312-0.4225 4.4138-2.91 7.375m3.885-7.6562c-0.64625-2.2462-2.8675-3.9512-6.7875-5.2138-2.7562-0.8875-5.3238-1.3562-7.425-1.3562-2.2288 0-3.8625 0.52375-4.7275 1.5138l-0.0337 0.0412c-1.6812 2-0.94875 6.6138 1.9112 12.038 1.9075 3.6188 3.9562 5.51 6.2625 5.7788 0.19125 0.0225 0.38625 0.0337 0.58 0.0337 2.1325 0 4.35-1.355 6.7838-4.1412 0.11-0.12625 0.2175-0.2525 0.32875-0.385 2.7562-3.2812 3.7738-6 3.1075-8.3088" fill="#fff"/>
 </g>
</svg>
