<svg height="1000.5479pt" viewBox="0 0 1457.3543 1000.5479" width="1457.3544pt" xmlns="http://www.w3.org/2000/svg" xmlns:xlink="http://www.w3.org/1999/xlink"><linearGradient id="a" gradientUnits="userSpaceOnUse" x1="0" x2="1451.7546" y1="500.27396" y2="500.27396"><stop offset="0" stop-color="#af9568"/><stop offset=".1465794" stop-color="#ba9c69"/><stop offset=".2558929" stop-color="#eacc92"/><stop offset=".38259718" stop-color="#b39666"/><stop offset=".55029404" stop-color="#d4b57b"/><stop offset=".61240399" stop-color="#dcbd83"/><stop offset=".71302211" stop-color="#eacc92"/><stop offset=".79624939" stop-color="#e3c181"/><stop offset=".87947673" stop-color="#d2b166"/><stop offset="1" stop-color="#cea859"/></linearGradient><g transform="translate(1.750677 4.000115)"><path d="m396.55 0c14.53065-1.6916553 29.0749-4 43.70369-4 17.12409 0 34.28171 1.4595647 51.21631 4 18.89831 2.8350196 38.25 5.57 56.99 10.39 80 18.25 154.58 56.06 220.1 105.01 33.4 23.19 66.38 48.65 105.4 61.72 42.38 15.21 87.59.78 126.45-17.66 28.9-13.29 55.83-30.57 85.24-42.82 46.39-19.55 96.72-32.16 147.39-27.85 46.91 2.31 92 22.22 127.37 52.74 31.75 28.59 55.25 65.55 70.96 105.11 14.0914 36.88122 23.3883 76.00968 23.9574 115.56868.099 6.8742.4826 13.60004.1307 19.66442-.1483 2.55526-1.5492 5.00774-3.7784 5.9069-7.323 2.95381-13.26-5.21-14.98-11.6-10.04-33.84-22.83-67.03-39.88-97.98-23.69-43.97-57.44-84.54-102.6-107.45-41.86-22.02-91.78-22.82-136.65-10.21-41.06 10.39-76.42 34.23-113.63 53.35-36.49 17.83-74.99 34.24-115.93 37.09-40.72 3.6-80.96-8.17-116.42-27.5-52.9797-28.03-98.0197-68.56-150.4097-97.54-45.63-24.64-94.6-44.26-145.84-53.27-83.67-16.04-173.43-2.74-247.38 40.3-50.91 29.74-95.01 71.21-127.82 120.17-27.99 42.56-48.89 89.83-60.85 139.36-18.22 69.55-19.9 142.31-13.29 213.51 6.25 57.75 16.52 115.55 36.82 170.18 6.47 19.64 17.68 37.49 22.25 57.76 1.96 7.88 1.34 23.9-10.66 20.72-13.58-5.7-20.75-19.9-28.4-31.67-47.81-80.63-75.72-172.82-81.73-266.31-.17-43.91-2.26-88.18 4.59-131.74 4.48-32.15 11.86-63.84 21.23-94.92 12.24-36.49 25.99-73.07 47.88-105.05 28.02-44.89 64.41-84.37 106.04-116.94 60.82-48.49 135.54751-79.0777123 212.53-88.04z"/><path d="m859 303.0496h74.4696v282.3404c2.17 30.4 29.5704 56.9396 60.5304 55.6396h7.02v67.8704c-32.5-.43-68.15-4.64-95.85-23.02-24.43-15.16-39.61-42.19-43.99-70.07-4.02-23.84-1.47-48.6-2.18-72.81z"/><path d="m1319.96 303.06.09 269.94c.014 42.09371-25.128 81.87059-58.86 107.14-29.0099 21.73196-65.5392 30.53309-101.19 30.91-40.0193.42309-80.7479-13.1708-110.22-40.84-40.1688-37.71159-53.24105-98.03336-42.09-150.52 8.3295-39.2061 35.0988-73.35708 69.53-93.44 52.8704-30.83801 122.76-27.71 174.69 3.94l.06-127.13m-101.56 163.48c-41.226 6.30545-69.5233 46.24244-69.46 86.46.057 36.05599 14.3011 77.95047 49.86 92.15 29.5187 11.7875 68.7107 7.77249 89.94-18.4 23.5207-28.99752 28.0836-70.70487 17.15-105.66-11.2964-36.11488-48.9187-60.44942-87.49-54.55z"/><path d="m662.41 405.59c28.7-2.05 57.73494 3.29566 84 14.94 35.06564 15.54598 63.7399 45.22458 76.83 81.33 9.40995 25.95474 11.13604 54.00717 7.92 81.24-5.48437 46.44063-35.69341 88.81861-77.29 109.7-38.50612 19.32997-84.59948 23.0976-126.21 12.61-35.51964-8.95244-67.74919-31.31454-87.47-62.63-10.14313-16.10667-16.7086-34.18166-20.38-52.66-5.70956-28.73648-4.65169-59.12712 5.38-86.99 20.34977-56.52118 77.4-96.81 137.22-97.54m-.01 60.94c-48.10867 5.76564-75.406 59.81571-68.12 105.17 4.96314 30.89486 21.3292 63.37457 51.72 74.29 24.97593 8.97058 56.14903 7.67259 77.42-9.57 32.80683-26.59374 38.8329-75.10427 27.78-113.55-5.80794-20.20198-19.91391-38.18229-38.75-48.45-15.33057-8.35682-33.15647-9.91462-50.05-7.89z"/><path d="m446.29 406.24c18.22 7.62 33.25 23.82 43.33 41.1.55 1.24 2.16 2.85.98 4.19-11.86 11.83-23.36 24.02-35.38 35.7-1.36.9-1.66 2.84-.59 4.11 19.58 28.43 26.13 64.09 23.85 98.04-1.28 34.82-16.51 69.04-41.21 93.89-24.09 25.32-57.9379 38.24166-92.25 43.84-28.77628 4.69512-73.3489-.86732-89.24 18.67-6.81149 8.37439-.58 21.25 9.34 24.01 17.93 6.07 37.49 2.82 55.3-2.18 35.28-9.19 73.59-10.99 108.23 1.84 31.61 9.75 59.00146 34.46858 67.93 66.93 10.01171 36.39951 5.59367 80.41318-23.51 105.7-69.05779 60.0011-171.309 72.2807-244.74 27.58-28.67-17.88-50.95-46.18-58.89-79.22-8.64-32.52-6.21-67.9 7.2-98.78 13.15-31.13 31.89-63.33 63.49-78.47 1.5-1.07 6.73-.74 3.65-3-35.3-17.32-63.75873-49.04205-74.02-87.11-11.73039-43.5182-9.25193-93.41012 16.71-131.69 27.48821-40.53032 75.04758-66.55933 124.53-67.42 33.39347-.58083 66.74 5.79 95.83 21.85 13.58-12.71 25.32-27.59 39.46-39.58m-131.94 72.3c-30.6 1.8-56.07442 24.54609-67.43 52.42-7.06005 17.32991-7.21007 36.29667-5.42 54.44 3.08215 31.23917 22.83 63.07 53.44 73.76 22.04 7.52 47.51285 6.98124 67.66-4.69 38.15056-22.10061 47.05902-73.57758 37.68-113.78-8.81107-37.76794-46.1-68.56-85.93-62.15m37.06 346.99c-15.88 1.66-31.64 4.52-47.21 7.68-26.32 5.92-54.45 5.61-80.15-3.02-6.05 15.43-4.92 33.71.72 49 15.12 33.1 53.57 45.74 86.89 50.19 30.47 3.23 62.92 0 89.73-15.97 15.55-8.84 29.18-25.51 26.59-44.41-.9-17.1-12.57-32.79-28.83-38.24-14.75-7.26-31.8-6.36-47.74-5.23z"/></g><g fill="url(#a)" transform="translate(-3.849226 4)"><path d="m396.55 0c14.53065-1.6916553 29.0749-4 43.70369-4 17.12409 0 34.28171 1.4595647 51.21631 4 18.89831 2.8350196 38.25 5.57 56.99 10.39 80 18.25 154.58 56.06 220.1 105.01 33.4 23.19 66.38 48.65 105.4 61.72 42.38 15.21 87.59.78 126.45-17.66 28.9-13.29 55.83-30.57 85.24-42.82 46.39-19.55 96.72-32.16 147.39-27.85 46.91 2.31 92 22.22 127.37 52.74 31.75 28.59 55.25 65.55 70.96 105.11 14.0914 36.88122 23.3883 76.00968 23.9574 115.56868.099 6.8742.4826 13.60004.1307 19.66442-.1483 2.55526-1.5492 5.00774-3.7784 5.9069-7.323 2.95381-13.26-5.21-14.98-11.6-10.04-33.84-22.83-67.03-39.88-97.98-23.69-43.97-57.44-84.54-102.6-107.45-41.86-22.02-91.78-22.82-136.65-10.21-41.06 10.39-76.42 34.23-113.63 53.35-36.49 17.83-74.99 34.24-115.93 37.09-40.72 3.6-80.96-8.17-116.42-27.5-52.9797-28.03-98.0197-68.56-150.4097-97.54-45.63-24.64-94.6-44.26-145.84-53.27-83.67-16.04-173.43-2.74-247.38 40.3-50.91 29.74-95.01 71.21-127.82 120.17-27.99 42.56-48.89 89.83-60.85 139.36-18.22 69.55-19.9 142.31-13.29 213.51 6.25 57.75 16.52 115.55 36.82 170.18 6.47 19.64 17.68 37.49 22.25 57.76 1.96 7.88 1.34 23.9-10.66 20.72-13.58-5.7-20.75-19.9-28.4-31.67-47.81-80.63-75.72-172.82-81.73-266.31-.17-43.91-2.26-88.18 4.59-131.74 4.48-32.15 11.86-63.84 21.23-94.92 12.24-36.49 25.99-73.07 47.88-105.05 28.02-44.89 64.41-84.37 106.04-116.94 60.82-48.49 135.54751-79.0777123 212.53-88.04z"/><path d="m859 303.0496h74.4696v282.3404c2.17 30.4 29.5704 56.9396 60.5304 55.6396h7.02v67.8704c-32.5-.43-68.15-4.64-95.85-23.02-24.43-15.16-39.61-42.19-43.99-70.07-4.02-23.84-1.47-48.6-2.18-72.81z"/><path d="m1319.96 303.06.09 269.94c.014 42.09371-25.128 81.87059-58.86 107.14-29.0099 21.73196-65.5392 30.53309-101.19 30.91-40.0193.42309-80.7479-13.1708-110.22-40.84-40.1688-37.71159-53.24105-98.03336-42.09-150.52 8.3295-39.2061 35.0988-73.35708 69.53-93.44 52.8704-30.83801 122.76-27.71 174.69 3.94l.06-127.13m-101.56 163.48c-41.226 6.30545-69.5233 46.24244-69.46 86.46.057 36.05599 14.3011 77.95047 49.86 92.15 29.5187 11.7875 68.7107 7.77249 89.94-18.4 23.5207-28.99752 28.0836-70.70487 17.15-105.66-11.2964-36.11488-48.9187-60.44942-87.49-54.55z"/><path d="m662.41 405.59c28.7-2.05 57.73494 3.29566 84 14.94 35.06564 15.54598 63.7399 45.22458 76.83 81.33 9.40995 25.95474 11.13604 54.00717 7.92 81.24-5.48437 46.44063-35.69341 88.81861-77.29 109.7-38.50612 19.32997-84.59948 23.0976-126.21 12.61-35.51964-8.95244-67.74919-31.31454-87.47-62.63-10.14313-16.10667-16.7086-34.18166-20.38-52.66-5.70956-28.73648-4.65169-59.12712 5.38-86.99 20.34977-56.52118 77.4-96.81 137.22-97.54m-.01 60.94c-48.10867 5.76564-75.406 59.81571-68.12 105.17 4.96314 30.89486 21.3292 63.37457 51.72 74.29 24.97593 8.97058 56.14903 7.67259 77.42-9.57 32.80683-26.59374 38.8329-75.10427 27.78-113.55-5.80794-20.20198-19.91391-38.18229-38.75-48.45-15.33057-8.35682-33.15647-9.91462-50.05-7.89z"/><path d="m446.29 406.24c18.22 7.62 33.25 23.82 43.33 41.1.55 1.24 2.16 2.85.98 4.19-11.86 11.83-23.36 24.02-35.38 35.7-1.36.9-1.66 2.84-.59 4.11 19.58 28.43 26.13 64.09 23.85 98.04-1.28 34.82-16.51 69.04-41.21 93.89-24.09 25.32-57.9379 38.24166-92.25 43.84-28.77628 4.69512-73.3489-.86732-89.24 18.67-6.81149 8.37439-.58 21.25 9.34 24.01 17.93 6.07 37.49 2.82 55.3-2.18 35.28-9.19 73.59-10.99 108.23 1.84 31.61 9.75 59.00146 34.46858 67.93 66.93 10.01171 36.39951 5.59367 80.41318-23.51 105.7-69.05779 60.0011-171.309 72.2807-244.74 27.58-28.67-17.88-50.95-46.18-58.89-79.22-8.64-32.52-6.21-67.9 7.2-98.78 13.15-31.13 31.89-63.33 63.49-78.47 1.5-1.07 6.73-.74 3.65-3-35.3-17.32-63.75873-49.04205-74.02-87.11-11.73039-43.5182-9.25193-93.41012 16.71-131.69 27.48821-40.53032 75.04758-66.55933 124.53-67.42 33.39347-.58083 66.74 5.79 95.83 21.85 13.58-12.71 25.32-27.59 39.46-39.58m-131.94 72.3c-30.6 1.8-56.07442 24.54609-67.43 52.42-7.06005 17.32991-7.21007 36.29667-5.42 54.44 3.08215 31.23917 22.83 63.07 53.44 73.76 22.04 7.52 47.51285 6.98124 67.66-4.69 38.15056-22.10061 47.05902-73.57758 37.68-113.78-8.81107-37.76794-46.1-68.56-85.93-62.15m37.06 346.99c-15.88 1.66-31.64 4.52-47.21 7.68-26.32 5.92-54.45 5.61-80.15-3.02-6.05 15.43-4.92 33.71.72 49 15.12 33.1 53.57 45.74 86.89 50.19 30.47 3.23 62.92 0 89.73-15.97 15.55-8.84 29.18-25.51 26.59-44.41-.9-17.1-12.57-32.79-28.83-38.24-14.75-7.26-31.8-6.36-47.74-5.23z"/></g></svg>