<svg width="800" height="549.31" version="1.1" viewBox="0 0 800 549.31" xmlns="http://www.w3.org/2000/svg">
 <g transform="matrix(4.576 0 0 4.576 -.00027353 -4.3914)" fill="#1a1918" fill-rule="evenodd">
  <path d="m163.28 18.145c-1.8285-1.5344-3.7022-2.834-5.7358-3.7879-9.9344-4.8781-21.742-2.3363-32.11 3.4186-7.9166 4.394-12.976 6.0893-17.506 5.4112-2.5779-0.35535-5.1849-1.4549-8.2162-3.226-2.4537-1.5088-5.1503-3.4088-8.3778-5.7465-3.2844-2.3916-6.6144-4.4953-10.044-6.194-3.4889-1.8107-7.024-3.2763-10.657-4.3926-18.807-5.8405-38.782-2.4553-54.146 13.776l-0.05541 0.0586c-1.5293 1.6702-3.053 3.4516-4.4577 5.4023-1.4005 2.0088-2.6896 4.0107-3.862 6.066-10.597 21.49-9.2044 49.382 3.5194 69.874 2.74 4.4837 5.7191 3.5019 2.2441-3.6479-3.2677-7.6749-5.1632-16.724-5.859-27.022-0.016623-0.46093-0.033245-0.86047-0.049868-1.3214-0.64228-13.287 1.9749-24.871 7.0194-34.085 1.0652-1.8781 2.1342-3.6423 3.2673-5.2405 1.1908-1.5953 2.4962-3.1409 3.8606-4.6298l0.05864-0.0033c13.01-13.838 30.1-16.708 46.193-11.732 3.1749 1.0195 6.3032 2.3298 9.3844 3.8684 3.1403 1.5953 6.1781 3.4823 8.998 5.607l0.05679-0.0023c5.1618 3.7507 9.317 6.5693 13.264 8.3605 2.2602 0.9986 4.4535 1.714 6.8047 2.0214 6.414 0.88837 12.889-1.0353 22.308-6.2935 21.748-13.273 36.878-1.0284 43.533 21.661 0.46683 1.646 2.2399 1.9167 2.0982-0.25581-0.34953-10.202-3.7983-21.026-11.534-27.944"/>
  <path d="m112.07 70.163v-32.493h-8.5514v33.893c0 9.8042 5.5608 14.706 16.685 14.706v-7.7028c-2.4334 0-4.3792-0.7707-5.8383-2.2409-1.5311-1.54-2.2949-3.5726-2.2949-6.1619m-23.427 6.2326c-1.6692 2.2386-4.1007 3.2893-7.0914 3.2893h-0.21055c-2.9875-0.06977-5.4208-1.1888-7.1588-3.36-1.8774-2.2423-2.7797-5.0437-2.7797-8.4047 0-3.0795 0.9715-5.6014 2.8489-7.7721 1.8086-2.0302 4.1718-3.1502 7.0896-3.1502h0.21055c2.782 0 5.0755 1.0479 6.9515 3.1502 1.8096 2.1707 2.7109 4.6926 2.7109 7.7721 0 3.5014-0.83114 6.373-2.571 8.4753m-7.302-26.401h-0.41557c-5.1443 0-9.523 1.7507-13.068 5.1121-3.4774 3.4302-5.2828 7.6316-5.2828 12.743 0 12.186 8.4794 18.771 18.767 18.698 0.76788 0 1.5297-0.0693 2.2939-0.14 4.9365-0.48884 8.9001-2.3781 11.959-5.7433 3.0609-3.2902 4.5195-7.4214 4.5195-12.393 0-11.063-8.1359-18.069-18.773-18.278m65.697 26.401c-1.7398 2.2386-4.1007 3.2893-7.1607 3.2893h-0.21056c-2.9884-0.06977-5.4199-1.1888-7.1598-3.36-1.8059-2.2423-2.7095-5.0437-2.7095-8.4047 0-3.0795 0.90363-5.6014 2.7783-7.7721 1.8788-2.0302 4.2416-3.1502 7.091-3.1502h0.21056c2.7792 0 5.0759 1.0479 6.9497 3.1502 1.8072 2.1707 2.7815 4.6926 2.7815 7.7721 0 3.5014-0.90271 6.373-2.5705 8.4753m11.469-38.726h-7.924v15.476c-3.0549-1.9595-6.7978-3.0702-10.916-3.1512h-0.34492c-5.2172 0-9.5243 1.7507-13.071 5.1121-3.5466 3.4302-5.2828 7.6316-5.2828 12.743 0 12.186 8.4125 18.771 18.699 18.698 0.76834 0 1.5298-0.0693 2.2944-0.14 4.936-0.48884 8.9001-2.3781 11.956-5.7433 3.0609-3.2902 4.5902-7.4214 4.5902-12.393 0-0.07302-9e-3 -0.14-0.0106-0.2107h0.0106v-30.392m-109.88 73.653c-2.2224 1.3312-5.2865 2.2214-9.1753 2.0321-5.2745-0.25581-15.05-2.8758-12.205-12.483 0 0 1.4536 0.82559 5.1129 0.93024s6.0096-1.1302 11.124-1.4726c5.1138-0.3414 8.4831 2.0288 8.4831 5.9516 0 2.0312-1.1156 3.6414-3.3393 5.0414m-19.467-41.858c0-3.0823 0.97427-5.6037 2.8499-7.7735 1.8082-2.0312 4.2416-3.1507 7.0919-3.1507h0.20732c2.7811 0 5.0745 1.0479 6.9515 3.1507 1.8073 2.1698 2.7834 4.6912 2.7834 7.7735 0 3.5-0.90548 6.3009-2.5737 8.4716-1.738 2.1726-4.1021 3.2935-7.1611 3.2935h-0.20732c-2.9907-0.071628-5.4245-1.194-7.1607-3.3633-1.8068-2.2405-2.7811-5.0423-2.7811-8.4019m10.083 51.523c6.4515 0.16046 11.124-1.4014 15.155-4.1307 3.9631-2.8037 5.9772-6.374 5.9772-10.925 0-4.0623-1.3903-7.2149-4.0292-9.5251-2.6439-2.2391-8.9656-4.9386-17.381-2.6586-10.291 2.7879-9.8023-4.1307-4.7952-4.414l4.7952-0.48977 2.2944-0.20744c4.9346-0.49349 8.8964-2.3828 11.955-5.7437 3.0613-3.3619 4.5214-7.4247 4.5214-12.395 0-4.0944-1.1197-7.6251-3.059-10.468 1.4997-1.546 3.0022-3.0921 4.5195-4.6581-0.90686-1.8893-2.7811-3.9893-5.1443-5.2512-1.6004 1.6102-3.1966 3.2423-4.797 4.8809-2.9279-1.7265-6.4408-2.7033-10.29-2.7809h-0.41834c-5.1438 0-9.523 1.7502-13.001 5.1126-3.5443 3.4321-5.2814 7.634-5.2814 12.745 0 7.9135 3.4058 13.514 10.149 16.736-5.1429 1.2628-9.1633 9.3237-9.8457 14.35-0.16715 1.2246-1.4711 10.695 6.9298 16.336 1.8257 1.2265 5.2934 3.3265 11.745 3.487"/>
 </g>
 <g transform="matrix(4.576 0 0 4.576 -.00027353 -4.3914)" fill="#b59859" fill-rule="evenodd">
  <path d="m162.25 18.145c-1.829-1.5344-3.7032-2.834-5.7362-3.7879-9.9344-4.8781-21.743-2.3363-32.11 3.4186-7.9166 4.394-12.975 6.0893-17.506 5.4112-2.5779-0.35535-5.1849-1.4549-8.2167-3.226-2.4537-1.5088-5.1498-3.4088-8.3769-5.7465-3.2848-2.3916-6.6149-4.4953-10.045-6.194-3.4885-1.8107-7.024-3.2763-10.657-4.3926-18.806-5.8405-38.781-2.4553-54.146 13.776l-0.05495 0.0586c-1.5293 1.6702-3.053 3.4516-4.4577 5.4023-1.4005 2.0088-2.6892 4.0107-3.8629 6.066-10.596 21.49-9.2039 49.382 3.5203 69.874 2.7404 4.4837 5.7191 3.5019 2.2445-3.6479-3.2682-7.6749-5.1632-16.724-5.8595-27.022-0.016623-0.46093-0.033707-0.86047-0.05033-1.3214-0.64182-13.287 1.9758-24.871 7.0203-34.085 1.0652-1.8781 2.1337-3.6423 3.2668-5.2405 1.1908-1.5953 2.4962-3.1409 3.8611-4.6298l0.05818-0.0033c13.01-13.838 30.1-16.708 46.194-11.732 3.1749 1.0195 6.3018 2.3298 9.384 3.8684 3.1394 1.5953 6.1786 3.4823 8.998 5.607l0.05725-0.0023c5.1609 3.7507 9.3166 6.5693 13.264 8.3605 2.2602 0.9986 4.4535 1.714 6.8042 2.0214 6.414 0.88837 12.89-1.0353 22.309-6.2935 21.749-13.273 36.878-1.0284 43.533 21.661 0.46636 1.646 2.2399 1.9167 2.0982-0.25581-0.34953-10.202-3.7983-21.026-11.533-27.944z"/>
  <path d="m111.03 70.163v-32.493h-8.5519v33.893c0 9.8042 5.5617 14.706 16.685 14.706v-7.7028c-2.4329 0-4.3796-0.7707-5.8378-2.2409-1.532-1.54-2.2958-3.5726-2.2958-6.1619m-23.426 6.2326c-1.6701 2.2386-4.1016 3.2893-7.091 3.2893h-0.21102c-2.9879-0.06977-5.4204-1.1888-7.1593-3.36-1.8765-2.2423-2.7797-5.0437-2.7797-8.4047 0-3.0795 0.97197-5.6014 2.8489-7.7721 1.8082-2.0302 4.1728-3.1502 7.09-3.1502h0.21102c2.7806 0 5.0741 1.0479 6.9506 3.1502 1.8091 2.1707 2.7113 4.6926 2.7113 7.7721 0 3.5014-0.8316 6.373-2.571 8.4753m-7.302-26.401h-0.41603c-5.1438 0-9.523 1.7507-13.067 5.1121-3.4788 3.4302-5.2842 7.6316-5.2842 12.743 0 12.186 8.4799 18.771 18.767 18.698 0.76741 0 1.5288-0.0693 2.2939-0.14 4.9356-0.48884 8.9001-2.3781 11.959-5.7433 3.0604-3.2902 4.5195-7.4214 4.5195-12.393 0-11.063-8.1359-18.069-18.773-18.278m65.697 26.401c-1.7394 2.2386-4.1012 3.2893-7.1602 3.2893h-0.21055c-2.9888-0.06977-5.4208-1.1888-7.1602-3.36-1.8054-2.2423-2.7095-5.0437-2.7095-8.4047 0-3.0795 0.90409-5.6014 2.7783-7.7721 1.8784-2.0302 4.2411-3.1502 7.0914-3.1502h0.21055c2.7778 0 5.075 1.0479 6.9497 3.1502 1.8068 2.1707 2.7811 4.6926 2.7811 7.7721 0 3.5014-0.90224 6.373-2.5705 8.4753m11.469-38.726h-7.9244v15.476c-3.0549-1.9595-6.7968-3.0702-10.916-3.1512h-0.34538c-5.2172 0-9.5244 1.7507-13.071 5.1121-3.5462 3.4302-5.2828 7.6316-5.2828 12.743 0 12.186 8.4125 18.771 18.699 18.698 0.76834 0 1.5284-0.0693 2.2944-0.14 4.936-0.48884 8.8996-2.3781 11.956-5.7433 3.0604-3.2902 4.5897-7.4214 4.5897-12.393 0-0.07302-9e-3 -0.14-0.0102-0.2107h0.0102v-30.392m-116.99 83.302c5.3032-0.21934 9.34-1.7161 12.881-4.114 3.9636-2.8037 5.9777-6.374 5.9777-10.925 0-4.0623-1.3912-7.2149-4.0296-9.5251-2.6439-2.2391-8.9656-4.9386-17.38-2.6586-10.291 2.7879-9.8032-4.1307-4.7956-4.414l4.7956-0.48977 2.2944-0.20744c4.9346-0.49349 8.8968-2.3828 11.954-5.7437 3.0623-3.3619 4.5209-7.4247 4.5209-12.395 0-4.0944-1.1193-7.6251-3.0581-10.468 1.4997-1.546 3.0027-3.0921 4.5191-4.6581-0.90686-1.8893-2.7815-3.9893-5.1433-5.2512-1.6009 1.6102-3.1976 3.2423-4.7975 4.8809-2.9274-1.7265-6.4422-2.7033-10.29-2.7809h-0.41834c-5.1443 0-9.523 1.7502-13.001 5.1126-3.5448 3.4321-5.2823 7.634-5.2823 12.745 0 7.9135 3.4058 13.514 10.15 16.736-5.1433 1.2628-9.1628 9.3237-9.8462 14.35-0.16669 1.2246-1.4706 10.695 6.9303 16.336 1.7775 1.1941 5.1112 3.2161 11.239 3.4702zm7.1112-9.6484c-2.2224 1.3312-5.2879 2.2214-9.1762 2.0321-5.2749-0.25581-15.051-2.8758-12.205-12.483 0 0 1.4536 0.82559 5.1138 0.93024 3.6588 0.10465 6.0082-1.1302 11.123-1.4726 5.1138-0.3414 8.4831 2.0288 8.4831 5.9516 0 2.0312-1.1146 3.6414-3.3384 5.0414zm-19.467-41.858c0-3.0823 0.97335-5.6037 2.8499-7.7735 1.8082-2.0312 4.2406-3.1507 7.0914-3.1507h0.20778c2.7811 0 5.0741 1.0479 6.9506 3.1507 1.8073 2.1698 2.7838 4.6912 2.7838 7.7735 0 3.5-0.90548 6.3009-2.5742 8.4716-1.7366 2.1726-4.1016 3.2935-7.1602 3.2935h-0.20778c-2.9907-0.07163-5.425-1.194-7.1607-3.3633-1.8073-2.2405-2.7806-5.0423-2.7806-8.4019z"/>
 </g>
</svg>
