<svg height="151.00111" viewBox="0 0 137.853 39.952576" width="521.01923" xmlns="http://www.w3.org/2000/svg"><g fill="#ec1739"><path d="m65.75823 19.359633c0-2.713245 2.205248-4.917801 4.920573-4.917801 2.716711 0 4.913643 2.204556 4.913643 4.917801v15.061112h-14.748552c-2.710473-.0097-4.918494-2.204555-4.918494-4.917801 0-2.713245 2.201783-4.915029 4.918494-4.918494h4.914336zm28.275969-9.5265058c-2.765224 0-5.315605.9134238-7.373929 2.4595928v-2.4595928h-4.920573v29.5061118h4.920573v-17.217154c0-4.06675 3.305793-7.37393 7.373929-7.37393zm-60.031684 22.3407868 21.234698-13.789386c-2.384052-5.393918-7.781436-9.1640468-14.063136-9.1640468-8.486256 0-15.364663 6.8777128-15.364663 15.3639688 0 8.489721 6.878407 15.368128 15.364663 15.368128 4.533164 0 8.613775-1.963378 11.428204-5.084823 1.751308 2.687603 4.793747 4.465247 8.241613 4.471484h19.669125v-19.979606c-.0069-5.433421-4.407725-9.8328288-9.834216-9.8328288-5.429263 0-9.834909 4.3994078-9.834909 9.8328288v.307016c-4.696721.0062-8.620012 3.300249-9.595117 7.696885-1.216976 4.422279-5.260855 7.67055-10.0747 7.67055-2.775619 0-5.303131-1.089456-7.171562-2.86017m-2.687603-4.122192c-.384637-1.085992-.587004-2.250296-.587004-3.467272 0-5.768852 4.676624-10.452406 10.446169-10.452406 2.781856 0 5.306595 1.089457 7.181957 2.863635-.0069 0-10.782292 6.992065-17.041122 11.056043m78.701448 11.287517c-6.78484 0-12.294504-5.511735-12.294504-12.295195v-12.295889h-2.453356v-4.9150278h2.453356v-9.83282992h4.920574v9.83282992h7.37393v4.9150278h-7.37393v12.295889c0 4.066749 3.3058 7.376701 7.37393 7.376701zm-105.0992836-17.523477c.00333-4.070215 3.3040608-7.37393 7.3739296-7.37393 4.070908 0 7.371157 3.303715 7.377394 7.37393v17.523477h4.915029v-17.523477c0-6.786926-5.504804-12.2889578-12.29173-12.2889578-2.7693821 0-5.3197636.9161968-7.3739296 2.4588998v-11.98540672h-4.91849386v39.33894172h4.91814736v-17.523477" stroke-width=".693038"/><path d="m133.17569 7.4427202c.66429-.70866 1.7305-.994181 2.66295-.732453 1.00512.262371 1.77873 1.214753 1.80252 2.257807l-1.79995-.0019c-.0592-.263015-.20964-.535032-.48101-.621846-.23987-.05852-.52089-.04759-.71574.120253-.22379.176201-.32153.51574-.17813.771037.0997.176844.29838.258514.4778.333109.62056.241794 1.28742.375551 1.86683.7163768.40385.23086.75303.583904.90737 1.029549.36655 1.063633-.036 2.344622-.95689 2.995406-1.10286.799332-2.75876.621846-3.72594-.313817-.49966-.485515-.70287-1.181957-.75882-1.858463l1.88869.0019c.0662.257227.14662.524742.33697.720235.34726.363975 1.02377.355616 1.34273-.04309.24823-.300955.21736-.829556-.13569-1.03791-.47844-.307385-1.04305-.428283-1.5678-.629562-.53117-.206424-1.03341-.552394-1.31443-1.059774-.46044-.8366308-.31575-1.9587818.34854-2.6468628z" stroke-width=".064307"/><path d="m117.34531-.00000014a3.803313 3.803313 0 0 0 -3.80333 3.80332524 3.803313 3.803313 0 0 0 1.00113 2.5644619 4.6832595 4.6832595 0 0 0 -1.88088 3.745416 4.6832595 4.6832595 0 0 0 4.68308 4.68336 4.6832595 4.6832595 0 0 0 4.68337-4.68336 4.6832595 4.6832595 0 0 0 -1.88006-3.7459737 3.803313 3.803313 0 0 0 1.00001-2.5639042 3.803313 3.803313 0 0 0 -3.80332-3.80332524zm0 2.45888994a1.4526035 1.4526035 0 0 1 1.45278 1.4525006 1.4526035 1.4526035 0 0 1 -1.45278 1.4527793 1.4526035 1.4526035 0 0 1 -1.4525-1.4527793 1.4526035 1.4526035 0 0 1 1.4525-1.4525006zm0 5.4772218a2.1210225 2.1210225 0 0 1 2.12111 2.1208384 2.1210225 2.1210225 0 0 1 -2.12111 2.121118 2.1210225 2.1210225 0 0 1 -2.12084-2.121118 2.1210225 2.1210225 0 0 1 2.12084-2.1208384z" stroke-width=".148739"/><path d="m127.2728.04411345a4.7551149 4.7551149 0 0 0 -4.75064 4.66588805h-.005v.089401 5.2172775h.002a4.7551144 4.7551144 0 0 0 -.002.04082 4.7551144 4.7551144 0 0 0 4.75529 4.754772 4.7551144 4.7551144 0 0 0 4.75477-4.754772 4.7551144 4.7551144 0 0 0 -.002-.04082h.002v-5.2172778-.0894007h-.003a4.7551149 4.7551149 0 0 0 -4.75167-4.66588805zm-.001 2.45774325a2.0952458 2.0952458 0 0 1 2.09497 2.081537h.00052v5.6751333.01292h-.00052a2.0952458 2.0952458 0 0 1 -2.09497 2.082571 2.0952458 2.0952458 0 0 1 -2.09446-2.082571h-.00052v-.01292-5.6751333h.00052a2.0952458 2.0952458 0 0 1 2.09446-2.081537z" stroke-width=".214666"/></g></svg>