<svg height="4.760383mm" viewBox="0 0 73.132876 16.867499" width="20.639723mm" xmlns="http://www.w3.org/2000/svg"><g transform="translate(-263.43356 -403.92845)"><path d="m0 0c-.287.261-.64.444-1.045.444-.706 0-1.164-.3-1.164-1.49v-3.711h-1.804v6.861h1.804v-.457c.314.327.772.601 1.412.601.588 0 1.032-.235 1.268-.484z" transform="matrix(1.25 0 0 -1.25 304.72869 410.8852)"/><path d="m0 0c-.314.196-.614.288-1.255.288-.679 0-1.045-.314-1.045-.863 0-.484.274-.915 1.045-.915.588 0 1.059.301 1.255.627zm0-2.875v.457c-.327-.34-.902-.601-1.542-.601-1.281 0-2.562.784-2.562 2.444 0 1.516 1.229 2.274 2.784 2.274.627 0 1.032-.131 1.32-.274l0 .339c0 .484-.327.876-.98.876-.824 0-1.255-.118-1.882-.457l-.693 1.254c.797.458 1.464.693 2.575.693 1.66 0 2.784-.863 2.784-2.405v-4.6h-1.804z" transform="matrix(1.25 0 0 -1.25 310.11381 413.2377)"/><path d="m0 0c-.275.379-.693.588-1.216.588-.692 0-1.071-.601-1.071-1.751 0-1.412.47-2 1.176-2 .562 0 .849.235 1.111.575zm0-4.718v.431c-.34-.3-.797-.575-1.451-.575-1.464 0-2.666 1.098-2.666 3.66 0 2.052.967 3.489 2.666 3.489.601 0 1.124-.235 1.451-.536v2.157l1.803.902v-9.528z" transform="matrix(1.25 0 0 -1.25 318.12119 410.9342)"/><path d="m321.49981 408.2547h2.25375v8.5775h-2.25375zm1.1275-.7025c-.7025 0-1.29125-.5875-1.29125-1.29s.58875-1.29125 1.29125-1.29125 1.29.58875 1.29 1.29125-.5875 1.29-1.29 1.29"/><path d="m0 0c-.863 0-1.268-.784-1.268-1.843s.405-1.83 1.268-1.83c.862 0 1.28.876 1.28 1.83 0 1.046-.418 1.843-1.28 1.843m0-5.411c-1.791 0-3.098 1.464-3.098 3.568s1.307 3.581 3.098 3.581c1.79 0 3.11-1.477 3.11-3.581s-1.32-3.568-3.11-3.568" transform="matrix(1.25 0 0 -1.25 328.24906 410.24795)"/><path d="m0 0c-.111 0-.217.061-.27.167-.074.149-.013.329.136.403 1.455.724 2.324 2.333 2.324 4.305 0 1.976-.869 3.591-2.325 4.32-.149.075-.209.255-.134.404.074.149.255.209.403.134 1.665-.833 2.658-2.649 2.658-4.858 0-2.205-.994-4.016-2.658-4.843-.043-.022-.089-.032-.134-.032" fill="#ec2227" transform="matrix(1.25 0 0 -1.25 330.75406 418.64845)"/><path d="m0 0c-.127 0-.245.081-.286.208-.051.158.035.328.193.379 2.329.757 3.776 3.058 3.776 6.004 0 2.953-1.447 5.262-3.776 6.025-.158.052-.244.222-.193.38.052.157.222.244.38.192 2.585-.847 4.191-3.375 4.191-6.597 0-3.216-1.606-5.736-4.192-6.576-.031-.01-.062-.015-.093-.015" fill="#ec2227" transform="matrix(1.25 0 0 -1.25 331.21019 420.79645)"/><path d="m0 0v-.027c.641-.328.804-.546.804-1.487v-7.212c0-.9-.027-1.049-.6-1.459v-.027h3.927v.027c-.573.41-.6.559-.6 1.459v2.536c0 1.159.409 1.623.995 1.623.546 0 .805-.423.805-.968v-3.191c0-.9-.027-1.049-.6-1.459v-.027h3.926v.027c-.572.41-.599.559-.599 1.459v3.068c0 1.268-.641 2.358-2.168 2.358-1.159 0-2.032-.667-2.359-1.881v5.181zm11.957-3.3c-2.004 0-3.668-1.363-3.668-3.531 0-2.236 1.636-3.517 3.641-3.517 1.554 0 2.822.845 3.245 2.29l-.082.041c-.437-.777-1.118-1.091-1.909-1.091-1.254 0-2.14.928-2.14 2.605h4.226c0 1.772-1.063 3.203-3.313 3.203m-.913-2.931c.027 1.609.272 2.7.913 2.7.654 0 .736-1.132.736-2.7zm12.175-3.449c-.096-.027-.205-.027-.287-.027-.695 0-.763.504-.763 1.431 0 1.009.027 1.827.027 2.577 0 1.718-1.186 2.399-3.531 2.399-1.772 0-3-.654-3-1.745 0-.722.628-1.172 1.377-1.172.723 0 1.296.273 1.609.845-.095-.027-.191-.041-.272-.041-.423 0-.668.273-.668.859 0 .573.327 1.009.886 1.009.695 0 .9-.641.9-1.268v-1.445l-1.037-.191c-1.636-.3-3.135-.586-3.135-2.14 0-1.173.968-1.718 2.031-1.718 1.159 0 1.936.559 2.182 1.472 0-.041.013-.232.027-.286.136-.75.709-1.227 1.909-1.227.681 0 1.376.259 1.745.641zm-3.722 3.177v-1.514c-.014-.668-.26-1.281-.846-1.281-.491 0-.709.463-.709 1.118 0 .859.3 1.39 1.064 1.554zm8.166-1.105c-.177-.941-.586-1.472-1.186-1.472-.545 0-.804.381-.804 1.022v4.281h1.963l.068.341h-2.031v2.386h-.137c-.559-1.391-1.772-2.25-3.231-2.563v-.164h.682l-.041-4.199c-.014-1.622.982-2.372 2.277-2.372 1.759 0 2.413 1.35 2.618 2.672z" fill="#ed1d24" transform="matrix(1.25 0 0 -1.25 263.43343 403.92845)"/></g></svg>