<?xml version="1.0" encoding="UTF-8"?>
<svg id="svg33" width="532.14pt" height="512.17pt" version="1.1" viewBox="0 0 532.14 512.17" xmlns="http://www.w3.org/2000/svg" xmlns:cc="http://creativecommons.org/ns#" xmlns:dc="http://purl.org/dc/elements/1.1/" xmlns:rdf="http://www.w3.org/1999/02/22-rdf-syntax-ns#" xmlns:xlink="http://www.w3.org/1999/xlink">
 <metadata id="metadata39">
  <rdf:RDF>
   <cc:Work rdf:about="">
    <dc:format>image/svg+xml</dc:format>
    <dc:type rdf:resource="http://purl.org/dc/dcmitype/StillImage"/>
    <dc:title/>
   </cc:Work>
  </rdf:RDF>
 </metadata>
 <defs id="defs37">
  <linearGradient id="linearGradient852" x1="308.25" x2="499.96" y1="292.32" y2="326.74" gradientUnits="userSpaceOnUse">
   <stop id="stop846" offset="0"/>
   <stop id="stop854" stop-color="#64c194" offset=".49729"/>
   <stop id="stop868" stop-color="#64c194" offset=".64368"/>
   <stop id="stop848" offset="1"/>
  </linearGradient>
  <linearGradient id="linearGradient890" x1="324.45" x2="509.64" y1="314.15" y2="343.64" gradientUnits="userSpaceOnUse">
   <stop id="stop892" stop-color="#61bc45" offset="0"/>
   <stop id="stop902" stop-color="#65bf77" offset=".22263"/>
   <stop id="stop894" stop-color="#64c194" offset=".39963"/>
   <stop id="stop896" stop-color="#64c194" offset=".6415"/>
   <stop id="stop904" stop-color="#65bf77" offset=".82568"/>
   <stop id="stop898" stop-color="#61bc45" offset="1"/>
  </linearGradient>
 </defs>
 <g id="#a2a2a2ff" transform="translate(-114.92,-43.91)" fill="url(#linearGradient852)">
  <path id="path3" d="m605.46 43.91-0.08 300.64 41.68 2.91-14.71 208.62-478.26-33.34 5.62-81.92-44.79 7.69 0.01-318.2" fill="url(#linearGradient890)"/>
 </g>
 <g id="#121212ff" transform="translate(-114.92,-43.91)" fill="#0b103a">
  <path id="path14" d="m209.64 135.95 71.02-18.73-12.16 136.85 18.75-4.97 7.37-86.52 71.61-19.27-20.7 234.09-71.14 19.24 8.5-101.51-18.31 4.71-8.95 101.69-71.26 19.14z"/>
  <path id="path16" d="m378.27 178.66 55.35-14.8-17.11 194.54-55.33 14.73z"/>
  <path id="path18" d="m441.67 206.55 66.11-18.34-2.38 33.12-11.96 3.45-10.19 116.1-42.02 11.04 10.07-115.77-12.16 3.45z"/>
  <path id="path20" d="m545.1 208.05c7.1-1.66 14.45-4.97 21.8-2.72 5.25 1.55 8.79 6.59 9.51 11.88 0.79 6.01 0.1 12.12-0.72 18.1l-25.61 6.61 0.89-13.72-10.11 2.58c-0.34 4.41-0.91 8.82-0.72 13.24 0.06 3.09 2.62 5.3 4.95 6.94 7.04 4.39 15.74 6.18 21.61 12.37 4.73 4.64 5.94 11.77 5.11 18.12-0.98 8.27-0.46 17.13-4.6 24.65-3.6 7.11-9.88 12.53-16.88 16.14-6.07 3.15-12.87 4.3-19.38 6.21-5.97 1.63-12.55 3.26-18.55 0.97-6.57-2.92-9.04-10.69-8.74-17.39 0.47-5.64 0.97-11.28 1.61-16.9l25.5-6.89-1.46 16.38 10.18-2.55c0.55-4.99 1.45-10.02 1.06-15.05-0.65-4.79-5.42-7.24-9.28-9.22-7.15-3.37-15.41-6.25-19.64-13.44-4.23-7.13-2.32-15.63-1.71-23.39 0.87-9.32 5.93-18.11 13.5-23.61 6.2-5.08 13.99-7.51 21.68-9.31z"/>
  <path id="path22" d="m536.4 350.68c5.23-0.69 11.22-1.17 15.64 2.32 5.34 4.21 6.89 11.61 6.21 18.09-3.3 35.39-6 70.83-9.31 106.21-2.09 14.7-14.73 25.72-28.36 29.96-11.15 3.1-22.36 5.98-33.52 9.02-6.42 1.79-14.22 1.98-19.4-2.84-3.82-4.11-5.17-10.02-4.93-15.5 3.2-35.76 6.13-71.55 9.34-107.31 2.11-15.21 15.23-26.54 29.43-30.59 11.62-3.16 23.22-6.43 34.9-9.36m-30.85 36.2c-3.39 32.84-5.41 65.82-8.86 98.64 6.4-1.62 12.76-3.43 19.12-5.22 2.65-32.7 5.42-65.41 8.48-98.07-6.35 1.11-12.44 3.32-18.74 4.65z"/>
  <path id="path24" d="m425.55 380.42 33.11-9.05-11.97 137.1-33.24 8.63z"/>
  <path id="path26" d="m391.56 389.44c4.78-1.44 10.68-1.2 14.31 2.63 2.91 3.59 3.86 8.42 3.47 12.94l-6.75 75.9c-0.94 11.74-10.51 21.15-21.41 24.47l-44.87 12.13 10.08-115.87 45.17-12.2m-21.81 26.61-6.27 73.4 14.05-3.97 6.29-73.19z"/>
  <path id="path28" d="m313.86 410.06c3.44-0.82 7.24-2.23 10.66-0.53 4.24 1.44 5.48 6.42 5.58 10.42l-6.89 82.19-22.61 5.84 2.79-29.78-12.58 3.39-2.52 29.8-22.1 6.19 6.56-80.66c0.52-8.96 6.95-16.91 15.36-19.81l25.75-7.05m-19.098 24.139-2.3416 28.841 12.13-3.41 2.89-28.67z"/>
  <path id="path30" d="m249.01 427.72c3.01-0.59 6.15 1.09 7.57 3.76 1.86 3.52 2 7.63 1.53 11.51-0.85 6.6-0.48 13.4-2.45 19.83-1.01 3.47-3.32 6.32-5.54 9.1 3.93 3.55 4.91 9.05 4.26 14.11-0.7 6.08-0.97 12.2-1.78 18.27l-19.37 5.3 2.25-27.47-10.19 2.69-2.73 27.45-19.27 5.3 6.39-79.38m17.96 14.916-1.24 16.554 10.03-2.73 1.37-16.7z"/>
 </g>
</svg>
