<svg height="165" viewBox="0 0 420.73901 165" width="420.73901" xmlns="http://www.w3.org/2000/svg"><path d="m0 0v165h420.73828v-101h-12v-45l12-4v-15z" fill="#f10"/><g transform="translate(10 -92.52219)"><path d="m15.198649 190.81973h139.08884v52.620026h-139.08884z" stroke-width=".605524"/><g fill="#fff"><path d="m330.31327 245.07467c0 .0606-.0605.0606-.0605.1211z" stroke-width=".605524"/><path d="m364.34372 161.57292v1.63492l-.66608.30276-.66608.30276.66608.30276c.0605.12111.1211.54497.18166.66608.1211.42387-.60553.72663-.48442.90829.36331.42386.78718.66607 1.2716.84773-.48442.1211-.84774.60552-1.33215.72663-.12111-.42387-.30277 0-.30277.0606.0606.24221.36332.42387.60553.54497-.24221.12111-.24221.30276-.12111.48442.0606.12111.48442.54497.66608.66608.30276.1211.48442-.24221.72663-.36332-.30276-.0605-.60553-.36331-.54497-.60552.0605-.24221.30276-.48442.54497-.36332v.96884l.66607.18166c-.0605.0605-.30276.30276-.30276.36331v8.59844h14.65368v-14.59312h-8.47733c-.24221 0-.96884-.42387-1.1505-.30276-.42387.18165-.96884.24221-1.45326.30276l-.30276-.66608.30276-.66608-.30276-.30276h-.30276-.66608l-1.63491-.66607-.30276.30276c.0605.18166.1211.36331.30276.48442l-.66608.18165c-.24221-.18165-.54497-.42386-.90828-.30276z" stroke-width=".605524"/><path d="m241.72513 117.67244c0-.0605 0-.0605 0 0-.0606-.0605 0-.0605 0 0z" stroke-width=".605524"/><path d="m211.93336 122.15332c.18165.18166.36331.48442.66607.36331v-.72663c.24221-.1211.48442-.30276.66608-.54497h-.78718z" stroke-width=".605524"/><path d="m330.61604 244.59025c-.0606 0-.0606 0-.12111 0l-.18166.48442c.12111-.12111.36332-.24221.30277-.48442z" stroke-width=".605524"/><path d="m310.5732 166.11435v1.69547c0 .24221.36331.48442.66607.54497v-2.30099h-.66607z" stroke-width=".605524"/><path d="m211.08562 176.52936.78718-1.75602c.0606-.1211.54498-.30276.66608-.36331-.30276-.0606-.48442-.30276-.66608-.48442.0606-.0606.24221-.30276.36332-.36331.0606-.0606.48442-.12111.1211-.24221 0-1.21105.66608-1.99823 1.45326-2.48265-.24221-.0605-.42387-.30276-.60552-.48442.18165-.18166.36331-.42387.60552-.48442-.24221-.18166-.24221-.60552-.1211-.84773l.78718-1.75602c.0606-.12111.54497-.30276.66607-.36332-.30276-.0606-.48442-.30276-.66607-.48442.18165-.18165.36331-.42386.60552-.48442-.24221-.18165-.1211-.54497-.1211-.84773 0-.0606.24221-.30276.36331-.30276h25.49256c.0606.72663.2422 1.3927.60552 2.17989.48442.54497.78718 2.05878.24221 3.02761-.24221.42387-.42387.84774-.30276 1.2716.1211.30277.18165.66608.48442.78719.18165.0606.78718 0 .96883.0606.0606 0 .30277.30276.30277.36331.0606.24221 0 .96884 0 1.21105.18165.12111.78718.24221.54497.54497-.30276.36332.42386.54497.42386.78718v2.84597c0 .18165.72663.66607.78719.84773.0606.18166-.12111.84773 0 1.02939.18165.24221.54497.54497.48441.96884-.30276 0-1.15049-.24221-.96883.18165.1211.36332.42386.54498.66607.60553-.24221.18166-.18165.54497-.0606.84773.0606.18166.66608.66608.78718.90829.12111.30276-.1211 1.2716.12111 1.08994.54497-.42387.96883-.78718 1.15049-1.33215l.66608-.96884c.36331.24221.48442.60552.66607.96884l-.1211.60552c.18166-.18166.42387-.36331.48442-.66607.18166-.12111.78718-.48442.96884-.66608.24221-.30276.72663-.48442.66607-1.02939-.42386 0-1.3927.18166-1.33215-.12111.0605-.42386.42387-.66607.66608-.30276.42386-.0605.84773-.42386 1.2716-.54497v-.30276l1.63491.66608c.36332-.12111.66608-.12111.96884-.36332.18166.12111.36331.18166.48442.30276 0-.24221.1211-.60552-.12111-.78718l.60553-.30276c-.24221-.24221-.30276-.60552-.60553-.84773l.30277-.30277c.30276.18166.78718.18166.84773.66608.0605-.0606.30276-.24221.30276-.30276.12111-.30276-.1211-.66608-.18166-.96884.12111-.0606.54498-.1211.48442-.1211 4.05701.24221 8.41678.0605 12.53435.1211v-10.41506c0-.60552-.36332-1.1505-.66608-1.57436-.30276-.42387-.66608-.96884-.60552-1.69547.24221 0 .36331.30276.54497.36332.1211.0606.60552 0 .78718 0v-31.18448c.90829 1.15049 1.3927 2.24043 2.05878 3.20927 7.6296 11.62606 15.07755 23.37322 22.58604 35.12039 1.33215 2.11933 2.72486 4.17811 4.11756 6.23689.12111.18166 1.2716 0 1.51381 0v .96884c.24221.0606.36332-.18166.42387-.36331.0605-.12111.0605-.36332-.1211-.48442l.66607-.18166.30276.30276c0 .12111.0606.54497.18166.66608.12111.18166.60552.72663.78718.78718.18166.0606.78718-.0606.96884 0s .24221.30276.36331.48442c.18166.24221.36332.42387.66608.1211-.24221-.0605-.42387-.48442 0-.42386.0605 0 .36331.36331.54497.54497.0605-.0606.18166-.12111.24221-.12111.30276-.42386.60553-.84773 1.02939-.96883.0606-.54498.36332-1.0294.12111-1.39271l4.84419-.0606c0-.18166.0606-.66608 0-.84774-.18166-.60552-.60553-1.15049-.72663-1.81657l.72663-.42386c-.66608-.24221-1.08995-.72663-1.51381-1.1505l-1.57436-.36331c-.0606 0-.36332-.24221-.36332-.30277-.0606-.1211-.0606-.54497 0-.66607.0605-.0606.30276-.30276.36332-.30276.1211-.0606.42386.0606.54497 0 .24221-.0606.42386-.30277.54497-.54498.0605-.1211 0-.60552 0-.72662.42387-.0606.96884.24221.96884.60552v1.99823h.96884v-6.29745c0-.18166-.78719-.30276-.72663-.48442.0605-.54497-.12111-1.08994-.0606-1.21105.36332-.60552 1.1505-.78718 1.51381-.36331 0-.42387-.1211-1.33215.24221-1.08994.54498.48442 1.21105.72663 1.69547 1.15049.0606.0606.0606.48442 0 .60553-.0605.18165-.60552.60552-.66608.78718l-.30276 2.05878c.0606.1211.0606.54497.18166.66607l3.08817 3.08818c.54497.18165.90829.54497 1.1505.84773l3.75424 2.36154c.66608.36332 1.2716.78718 2.11934.90829.96884.36331 1.87712.72663 3.02762.90828l.30276.36332c-.12111.42387-.24221.84773-.12111 1.2716.0606.18166.54498.66607.72663.78718.12111.0606.54497.1211.66608.18166l.66608-.30277h.36331.30276c.12111.18166.36332.78719.48442.96884.12111.12111.24221.36332.48442.36332 0-.18166-.0605-.66608 0-.78718.0605-.12111.54497-.30277.60552-.36332 2.24044-.36331 5.32861-.1211 7.87181-.18166v-1.63491l3.51204-.30276c.84774-.42387 1.75602-.78718 2.78541-.96884.84774-.18166 1.63492-.30276 2.05878-.96884.0606-.0605.48442 0 .54498 0 .18165-.0605.60552-.54497.78718-.66607.0605-.0606.48442.0606.54497 0 .60552-.72663 1.57436-1.08995 2.24044-1.75602.30276-.30277.90828-.54497 1.2716-.18166 0-.18166-.0606-.78718 0-.78718l1.33215-.78718c.1211-.0606.24221-.66608.30276-.78718l1.33215-1.2716c.18166-.12111.78718-.42387.96884-.54498v-.90828c.48442-.24221.96884-.48442 1.33215-.84773-.1211-.18166-.30276-.54498-.1211-.66608.54497-.30276.96884-.84773 1.3927-1.33215-.1211-.18166-.30276-.42387-.1211-.72663.30276-.48442.84773-1.02939 1.3927-1.39271l-.60552-.30276.66608-.30276c-.18166-.0606-.24221-.36332-.12111-.60552.24221-.30277.60553-.72663.72663-1.2716 0-.12111.54497-.30277.66608-.42387-.30276-.0605-.48442-.30276-.66608-.48442.18166-.18166.36332-.42387.60552-.48442-.2422-.18166-.18165-.54497-.1211-.78718.24221-.78718.54497-1.57436.78718-2.4221 0-.1211.54497-.30276.66608-.36331-.12111-.0606-.66608-.30276-.66608-.36331v-3.14873c0-.0605.54497-.30276.66608-.36331-.0606-.0606-.30276-.30277-.30276-.36332-.0606-.18165 0-.84773 0-1.08994h.96883c-.1211-.60552.36332-1.08994-.0605-1.63492.0605.0606-1.15049-.18165-.24221-.30276.24221.0606.90829.30276 1.1505.30276.18165 0 .54497.12111.54497-.1211-.54497-.18166-.84774-.66608-1.02939-1.1505-.12111-.30276-.12111-.66607-.36332-.96883l.30277-.30277v-.96883h-1.33216v-5.87359l-.30276-1.63491h-27.9752v11.74716h13.01876v5.32861c-.30276 2.48265-1.15049 4.72309-2.42209 6.41856l-2.11934 2.11933c-.84773.66608-1.87712 1.21105-2.90651 1.63491-.90829.36332-2.05878.54498-2.96707.96884-1.08994.0606-1.93768.30276-3.14872.18166-1.2716-.1211-2.4221-.36331-3.57259-.66608-.96884-.30276-1.81658-.84773-2.78541-1.2716-.30277-.36331-.72663-.72662-1.2716-.96883 0 .18165.0605.72662 0 .84773-.36332.42387-.96884.78718-1.63492.90828v-2.36154c.42387 0 1.2716.18166 1.39271-.30276h-.90829l-1.81657-3.33038c-.18166-1.1505-.54497-2.17989-.84773-3.20928l-.48442-3.75425c0-.24221.24221-.90828.30276-1.15049.18166-.42387.36331-.90829.66607-1.2716.18166.0606.36332.18166.48442.30276.0606-.1211.30277-.54497.30277-.66608.0606-.18165.0606-.36331-.18166-.48442l.66607-.18165c.12111.0606.60553.0606.66608.18165.18166.30277.30276-.0606.30276-.18165-.0606-.12111-.48442-.48442-.60552-.60553.0605-.0606.24221-.1211.30276-.18165.30276-.18166.18166-.60553 0-.78718.18166-.24221.36331-.42387.66608-.48442-.18166-.18166-.36332-.42387-.66608-.48442l-.96884-.66608-.30276-.96884c-.1211-.0606-.36331-.30276-.48442-.36331-.30276-.12111-.54497.24221-.78718.36331-.24221-.30276-.42387-.66607-.30276-1.08994.0606-.1211.48442-.42387.66607-.42387.24221 0 .96884.42387 1.2716.0606-.18165-.18166-.60552-.54498-.66607-.72663-.0606-.24221 0-1.1505 0-1.39271h-1.33215c0-.30276-.0606-1.15049 0-1.3927.0605-.12111.54497-.30276.66607-.36332-.24221-.1211-.24221-.54497.0606-.72663-.1211-.66607-.54497-1.2716-.72662-1.93767v-5.44972c0-.0606.54497-.30276.66607-.36331-.0605-.0605-.30276-.30276-.30276-.36332-.1211-1.99822.36331-3.45148.96884-4.78363.0605-.12111.48442-.30277.66607-.36332-.30276-.0605-.48441-.30276-.66607-.48442.18166-.18165.36331-.42386.66607-.48442-.2422-.1211-.2422-.42386-.1211-.48442.54497-.30276.96884-.84773 1.3927-1.33215-.1211-.18166-.2422-.42387-.1211-.66607.24221-.30277.72663-.36332 1.02939-.66608.90829-.78718 1.93768-1.39271 2.84596-2.24044.0606-.0605.42387.0606.54497 0 .18166-.0605.60553-.60552.72663-.60552 3.99646-.84774 9.08286-.36332 11.62606 1.51381.24221.30276.66608.72663 1.1505.84773 1.93767 1.99823 3.45148 4.35977 3.9359 7.69015h14.35092c0-.24221-.36332-.36331-.36332-.54497v-2.24044c-.48442-1.15049-1.02939-2.36154-1.21104-3.75424-.18166-1.33216-.90829-2.301-1.39271-3.26983-.0605-.12111.0606-.48442 0-.54498-.60552-.72662-1.2716-1.3927-1.63491-2.36154l-1.57437-1.99823c-.54497-.84773-1.2716-1.45325-1.99822-2.05878-.66608-.30276-1.21105-.78718-1.33216-1.08994-6.60021-5.26806-21.01168-7.14518-29.61011-2.84596l-4.60199 2.6643-1.2716 1.2716c-.1211.12111-.54497.24221-.66607.30276l-2.48265 2.4221c-.0605.0606-.66608 0-.90829 0-.18165-.48442-.48442-.84773-.84773-1.1505v-7.26628h-13.26097c-.18166 0-.66608.24221-.78718.30276-.12111.1211-.24221.54497-.30277.66608h-.96883v.96883.96884c-.30277-.24221-.84774-.24221-1.1505 0 0 .72663.54497 1.1505.84773 1.63492 0 .18165-.0606.66607 0 .78718.12111.24221.36332.48442.66608.54497.36332.24221.84773.1211 1.33215.1211-.0605.12111-.36331.30277-.36331.42387v24.94758c0 .0606.24221.30277.30276.36332-.1211.0606-.60552.30276-.66608.36331-.1211.48442-.30276.96884-.36331 1.39271.36331 0 .72663.1211 1.08994-.12111.30277-.18165.66608.36332.60553.66608-.0606.1211-.54497.36331-.66608.48442-.18166.36331-.30276.72663-.66608.96884.0606.18165.30277.60552.30277.78718v4.23866c0 .0606.24221.30277.30276.36332l-.66608.30276c.12111.12111.48442.36332.48442.48442.0605.24221.12111 1.08994 0 1.2716-.18166.30276 0 .90829-.30276 1.02939-.18166-.48442-.60552-.66608-.78718-.96884-.18166-.24221-.48442-1.15049-.72663-1.33215-.66608-.48442-1.1505-1.33215-1.2716-2.36154-.78718-.24221-1.21105-.96884-1.2716-1.93768-.78718-.24221-1.2716-.96884-1.2716-1.93768-.84773-.24221-1.33215-.96883-1.33215-1.93767 0-.12111-.66608-.30276-.72663-.48442-.48442-1.33215-1.51381-2.4221-2.24044-3.63314-.36331-.60553-.78718-1.21105-.90829-2.11934-.78718-.24221-1.2716-.96884-1.33215-1.87712 0-.12111-.60552-.24221-.72663-.48442-.30276-.48442-.54497-1.1505-.90828-1.69547-1.21105-1.63491-2.24044-3.51204-3.51204-5.2075-.0605-.0606.0606-.60553 0-.78718-.0605-.12111-.66608-.24221-.78718-.48442-.42387-1.02939-1.02939-2.05878-1.81657-2.90652-.0606-.0606 0-.72663 0-.90828-.54498-.24221-.96884-.60553-1.33216-1.08995-.0605-.0605 0-.66607 0-.84773-.78718-.24221-1.2716-.96884-1.2716-1.87712 0-.12111-.60552-.24221-.72663-.48442-.30276-.48442-.54497-1.1505-.90828-1.69547l-2.60375-3.87535c-.42387-.60553-.78718-1.21105-.90829-2.11934-.48442-.24221-.84773-.48442-1.21105-.84773h-4.35977c.30276-.24221.18166-.78718-.0605-.96884h7.69015l3.8148-.30276 2.90652.30276c.24221 0 1.02939-.1211 1.33215-.18166.78718-.1211 2.17988 0 3.08817-.48441h-24.09985c.30276.2422.60552.66607.72663.66607h1.75602v.96884h-5.20751v55.34488l-.30276 3.93591c0 .18165-.24221.60552-.30276.72663-.18166.24221-.78718.78718-.96884 1.02939 0-.36332-.0606-1.21105 0-1.45326 0-.0605.24221-.30276.30276-.36332-.1211 0-.54497-.0606-.66607 0-.0606.0606-.30277.30277-.30277.36332-.0606.24221.12111.96884 0 1.21105-.1211.36331-.54497.60552-.90828.84773-.0605.0606-.42387 0-.54497 0-.0606.0606-.36332.24221-.36332.30276-.0606.30276-.1211.66608.12111.84774-.12111.0606-.54497.24221-.60553.36331-.0606.0605 0 .42387 0 .54497-.36331.18166-.72662.60553-.96883.60553-.66608.0606-1.08995-.60553-1.2716-1.08995.36331 0 .90828.12111 1.02939-.1211-.18166-.12111-.66608-.30276-.72663-.42387-.0606-.18166 0-.84773 0-1.08994 1.08994-.12111 1.99823-.36332 2.60375-.90829l-.60552-1.08994c-.54498.24221-1.51381.30276-2.17989 0-.1211-.0605-.54497-.54497-.66608-.60552-.18165-.0606-.84773 0-1.08994 0 0-.30277-.0606-1.1505 0-1.39271 0-.0606.24221-.36331.36332-.42387.36331-.1211.78718.42387 1.02939.12111.36331-.36332.90828-.66608 1.51381-.72663.24221 0 .36331.48442.48441.78718.30277-.42387.66608-.66608 1.1505-.84773-.0605-.12111-.30276-.30276-.36331-.42387-.0606-.1211-.0606-.42387 0-.54497.0606-.12111.42386-.42387.48442-.54497.0606-.18166-.0606-.78718 0-.96884s.54497-.54497.78718-.72663c.54497.18166 1.21104.36332 1.63491-.1211-.0606-.0606-.30276-.24221-.30276-.36332-.0606-.18166-.0606-.90828-.12111-1.08994l-5.38916-14.89589c-.0606-.24221.12111-.90828 0-.96884-.54497-.54497-.96884-1.2716-1.2716-2.24044 0-.0605.0606-.60552 0-.78718l-1.2716-2.72485c-.0605-.18166.0606-.90829 0-1.08995-.1211-.30276-.48442-.48442-.66608-.78718-.2422-.60552-.42386-1.2716-.60552-1.93767-.0606-.24221.0605-.96884 0-1.1505-.1211-.30276-.54497-.48442-.66608-.84773-.36331-.90829-.60552-1.93768-.96883-2.84597l-.96884-1.93767c.24221-.24221.48442-.48442.60552-.78718.0606-.18166-.0606-.84774.0606-.96884.12111-.18166.60553-.24221.66608-.54497l-2.30099-.30276v-.96884l2.11933-.0606c.12111-.30277.48442-.54498.78718-.84774-.2422-.24221-.72662-.54497-.66607-.84773.1211-.54497.18166-1.21105-.18166-2.05878 0 .0606-.1211-.12111-.1211-.18166l.66607-.30276c-.30276-.18166-.1211-.60553.12111-.84774h-1.08995c-.0606 0-.24221.12111-.30276.18166-.30276.18166-.18165.60553 0 .78718.24221.30276.12111.66608.12111 1.02939-.36332-.48442-.66608-.96883-1.1505-1.33215 0-.1211-.0606-.54497-.18166-.66608-.1211-.2422-.60552-.18165-.78718.0606-.1211-.12111-.0606-.42387-.36331-.36332.1211.84774-.24221 1.57436-.60552 2.05878 0-.30276-.0606-1.02939 0-1.21104.0606-.18166.36331-.30277.36331-.54498h-1.02939c-.24221-1.33215-.60552-2.42209-1.02939-3.57259-.36332-.90828-.84773-1.87712-.90829-3.20927-.54497-.54497-1.02939-1.21105-1.33215-1.99823-.1211-.36332-.72663-.54497-.66608-.96884h1.02939v-.96884h-3.26982c-.54498-.0606-1.1505-.18166-1.81658-.48442-.18165-.1211-.48441.36332-.90828.18166-.12111-.0606-.42387-.42387-.54497-.48442-.24221-.1211-.48442 0-.66608.18166l-.36331-.66608c-.24221-.24221-.42387-.0606-.66608.0606 0-.18165-.0605-.66607 0-.84773.0606-.18166.36331-.30276.36331-.60552-.60552.0606-1.21104.30276-1.93767.18165-.12111 0-.54497.24221-.66608.30277.24221.18165.18166.60552 0 .78718l-.30276.96884c-.24221.36331-.42387.96883-.96884 1.02939-.0606-.48442.12111-1.21105-.1211-1.39271-.12111.12111-.42387.48442-.42387.48442l-3.14872 8.65899c-.0606.24221-.12111.60553.1211.78718-.36331.24221-.78718.42387-1.2716.48442 0-.30276.0606-.84773-.1211-1.02939l-.48442 1.02939v.66608c-.24221.36331-.60553.48442-.96884.66607l-.18166-.60552c-.36331.18166-.42387.60552-.48442.96884-.1211.24221-.42386 1.15049-.66607 1.33215-.30277.18166-.66608-.24221-.96884-.36331-.18166-.18166-.36332-.42387-.66608-.30277v.96884l-.66607.96884c-.12111.0605-.54498.12111-.66608.18166-.12111.0606-.42387.36331-.48442.48442-.18166.30276.1211.54497.48442.66607.18166.12111.42387-.24221.66608-.36331l.66607.30276v.30276l.66608-.18165c-.12111-.12111-.36332-.24221-.36332-.48442l.96884-.30276.18166.66607c-.18166.18166-.48442.36332-.42387.60553.12111.42386.66608.48441 1.08995.66607.18165.0606.72662 0 .36331-.30276-.30276-.30276.18166-.60552.42387-.66608l-.0606 1.87713s-.48442.18165-.54497.30276c-.0606.0606.0606.48442 0 .54497-.42386.30276-.84773.48442-1.2716.72663-.18166.0605-.60552.54497-.66607.72663-.0606.18166 0 .84773 0 1.08994h.96883c-.42386.78718-.72662 1.75602-1.08994 2.84596-.0606.24221-.48442.78718-.78718.72663h-1.75602c-.1211 0-.60552 0-.72663.0606-.24221.12111-.54497.36332-.24221.60553v.66607h-.96884v1.1505c.24221-.30276.72663-.36331.96884-.0606l-.54497.96884c-.24221 0-.72663-.12111-.78718.1211.30276.12111.54497.30276.72663.48442-.12111.18166-.24221.42387-.12111.66608.12111.24221.48442.1211.78718.0606.0606 0 .24221-.24221.30277-.30276.24221-.12111.42386.18165.66607.18165l.36332-1.33215.30276.36332c-.24221.2422-.24221.72662 0 .96883-.18166.24221-.36331.42387-.66608.48442.24221.12111.18166.30276.18166.54497-.54497.24221-.96884.78718-1.2716 1.21105-.1211.12111-.78718-.0606-.90829.0606-.30276.24221-.42386.72663-.54497 1.08995-.0606.1211 0 .66607 0 .84773.18166 0 .60553.0606.78718 0 .12111-.0606.42387-.42387.54498-.48442.1211-.0606.60552-.18166.48441.24221-.84773 2.4221-1.69546 4.9653-2.60375 7.38739-2.42209 6.60021-4.96529 13.07932-7.20573 19.86119-.12111.30276-.18166 1.2716-.36332.96883-.48442-.60552-.90828-1.33215-1.15049-2.30099-.48442-.42386-.90829-1.21104-1.21105-2.17988 0 0 .0606-.48442 0-.54497-.18166-.24221-.66608-.24221-.72663-.48442-.24221-.54498-.60552-.96884-.60552-1.63492-.60553-.60552-1.1505-1.45326-1.39271-2.6643-.54497-.54497-1.08994-1.39271-1.33215-2.60376-.0606-.18165-.36331-.36331-.54497-.66607-.48442-.66608-.48442-1.63492-.96884-2.30099-.90829-1.21105-1.51381-2.60376-2.30099-3.93591-.1211-.18166 0-.84773 0-1.08994.66608-.36332 1.3927-.60553 1.87712-1.21105.78718 0 1.2716-.48442 1.69547-.90828.18166-.18166.60552-.30277.78718-.0606.24221-.54497.90829-.84773 1.45326-1.15049 0-.12111-.0606-.54497 0-.60553l1.33215-.78718c.0606 0-.0605-.48442 0-.54497.0606-.1211.54497-.30276.66608-.36331.18166-.0606.36331-.0606.48442.18165 0-.24221-.12111-.96883 0-1.02939.42386-.30276.96884-.48442 1.45325-.78718l-.66607-.30276c.30276-.1211.72663-.54497.96884-.30276.42386.48442.96883 1.02939 1.63491 1.2716.60552.0606 1.1505-.0606 1.69547-.18166 0-.24221-.24221-.36331-.36332-.48442-.0606-.1211 0-.42386 0-.54497-.54497-.24221-.96884-.66608-1.2716-1.08994-.0605-.0606.0606-.42387 0-.48442-.0605-.12111-.54497-.30276-.66607-.36332-.24221-.18165-.42387-.48441-.30277-.84773.60553 0 1.1505.18166 1.63492.30276.36331.12111.84773-.30276 1.21105-.48442-.48442-.24221-.72663-.78718-1.08995-1.15049-.1211-.12111-.66607 0-.96883 0 .30276-.78718.72662-1.51381.78718-2.24044.0606-.42387.84773-.66608 1.2716-.30276 0-.18166-.0606-.66608 0-.78718.0605-.12111.54497-.42387.66607-.36332.66608.12111 1.1505-.30276 1.63492-.42386.1211.42386.30276 0 .24221-.0606-.30276-.36331-.48442-.84773-.54497-1.33215-.18166 0-.72663-.0605-.78719 0-.48441.42387-.90828.96884-1.45325 1.33215l-.36332-.36331c.30277-.24221.48442-.48442.66608-.90829.1211-.24221-.36331-.42386-.42387-.72663.36332 0 .90829.12111 1.08995-.1211-.18166-.0606-.54498-.30276-.66608-.36331-.24221-.12111-.18166-.54498 0-.72663.1211-.12111-.24221-.90829.36331-.72663v.96884c.30277 0 .84774.1211 1.02939-.12111l-.72662-.36331.66607-.36332c-.72663-.24221-1.2716-.60552-1.63491-1.15049l.30276-.66608.66608-.36331-1.33216-.96884c.18166-.24221.36332-.42387.66608-.48442l-.42387-.48442c.36332-.60552.24221-1.63491-.54497-1.93768-.0605 0-.54497 0-.66608 0-.0606-.42386.18166-.78718.60553-.96883h.48442c.0605-.0606.36331-.24221.36331-.30277.0606-.1211-.0606-.54497 0-.66607.0606-.12111.30276-.66608.36332-.66608h1.69546c0-.30276.24221-1.15049-.18165-.96884-.36332.12111-.54498.42387-.60553.72663-.18165-.42386-.30276-.90828-.78718-1.02939v.96884c-.24221 0-.90828.0605-1.08994 0-.12111-.0606-.42387-.36331-.54497-.48442.30276-.0606.48442-.30276.66607-.48442h.96884v-.30276c.12111-.0605.42387-.0605.36332-.30276h-1.02939c.30276-.24221.30276-.66608.18165-.96884-.0606-.18166-.30276-.36331-.42386-.66608.18165-.24221.60552-.36331.72662-.66607-.18165 0-.66607-.0606-.84773 0-.1211 0-.42387.24221-.54497.30276-.18166 0-.66608.0606-.78718 0-.18166-.12111-.66608-.72663-.84774-.78718-.1211-.0606-.54497-.0606-.66607 0-.12111.0605-.42387.42386-.54497.48442-.24221.0605-1.08995.1211-1.21105 0l-1.99823-2.30099c-.1211-.12111-.72663 0-.90829 0-.18165.36331-.36331.84773-.72662.90828-.54498.12111-1.08995.36332-1.75602.42387v-.78718c-.90829-.12111-2.30099-.18166-3.14873-.42387.48442-.60552 1.02939-.78718 1.51381-1.02939.0606-.0605.48442 0 .60553 0 .1211-.0605.66607-.30276.66607-.36331v-1.75602c-.18165 0-.60552.0606-.78718 0s-.60552-.54497-.66607-.60553c-1.63492-.42386-2.90652-1.15049-4.42033-1.51381l-4.35977-.78718h-18.83179c-.24221 0-.84774-.24221-1.08995-.36331v-.30276l.66608-.18166c-.30276-.30276-.54497-.66608-.96884-.78718h-1.02939l.36332 1.2716-1.2716-.66608v-.30276-.30276c.0606-.18166.1211-.36332.30276-.48442l-.60553.1211c-.1211 0-.54497.0606-.66607.18166-.24221.12111-.18166.60552.0606.78718l-.96884.54497c0 .24221.12111 1.08995 0 1.21105-.48442.42387-.90828.96884-1.2716 1.51381-.36331-.0606-.60552-.30276-.66608-.54497-.1211-.72663-.0606-1.2716.24221-1.87712l-5.14695.1211c0 3.63314.0606 7.5085-.18166 11.08109l-.1211-11.08109h-.66608c0 3.51204.0606 7.32684-.0606 11.08109-.72663-.72663-.90829-1.39271-1.2716-1.93768-1.3927-1.99823-3.26983-3.57259-5.0864-5.2075-.0605-.0606-.42387.0606-.48442 0-.1211-.0606-.42387-.36332-.54497-.48442-1.69547-1.1505-3.6937-1.99823-5.87358-2.60376l-4.35977-.84773h-21.13286c-.54497.18166-1.08994.36331-1.57436.66608-.48442-.24221-.96884-.48442-1.57436-.66608h-3.14873c.30277.24221.24221.66608.18166 1.02939 0 .0606-.24221.54497-.36331.60552-.18166.0606-.96884-.1211-1.21105 0-.36331.12111-.60552.72663-.90829.60553-.42386-.18166-.78718-.48442-1.21104-.60553-.24221-.0606-1.02939 0-1.2716 0 0-.18165-.0606-.66607 0-.78718.0605-.1211.54497-.30276.66607-.36331-.1211-.0606-.54497-.30276-.66607-.30276-.18166-.12111-.18166-.30276-.12111-.48442.36332-.12111-.1211-.18166-.18166-.30276-.24221-.42387-.84773-1.08995-1.574358-.78718l-1.634915.78718c-.121104-.12111-.544971-.48442-.666076-.66608s-.24221-.78718-.302762-.96884c-.181657 0-.847733-.1211-.968838 0-.363314.48442-.968838 1.08994-1.877124.78718-.121105-.0606-.605524.24221-.726629.36332-.06055.0605.06055.42386 0 .54497-.06055.24221-.363314.54497-.605524.54497-1.574362 0-2.785409-.48442-4.117562-.60552-.544971-.0606-.968838.36331-1.332153.66607l-.968838-.66607c-.363314.24221-.726628.66607-1.150495.66607h-4.117562c-.666077-.0606-1.089943-.54497-1.574363-.96884-.181657-.18165-1.02939.24221-.847733-.18165.181657-.42387.605524-.48442.726629-.78718-.726629-.0606-1.2716.30276-1.695467.60552-.06055.0606.06055.66608 0 .78718-.06055.24221-.363314.54497-.544972.54497h-8.901201v-1.33215h-2.603752v1.2716h-20.345603c-.666076.54497-1.211047 1.1505-1.695466 1.93768l-2.603753 3.26983-1.2716 1.33215c-.121105.1211-.24221.54497-.302762.66607l-1.2716 1.33216-1.756019 2.24044-1.271601 1.33215c-.121104.1211-.242209.54497-.302762.66607l-1.2716 1.2716-1.332152 1.93768-1.937677 1.99823-1.634914 2.24044-1.2716 1.33215c-.121105.1211-.24221.54497-.302762.66608l-1.392705 1.2716c-.121105.1211-.24221.54497-.363314.66607l-5.086401 6.17635c-.06055.0605.302762.84773-.24221.66607v-30.94232l-4.541429-.30276-.666076-1.02939v-.30276l.666076-.18166c-.242209-.1211-.242209-.54497 0-.66608l-.666076.18166c-.302762-.24221-.666076-.1211-.968838-.1211.242209.0606.06055.30276 0 .48442l-.302762-.96884c-.181657 0-.605524.0606-.787181 0-.06055 0-.302762-.24221-.363314-.30276-.06055.42386-.544972.42386-.787181.66607l-.666077.36332.302762.18165c.06055.0606.121105.24221.121105.24221.181657 1.45326-.484419 2.36155-1.3927049 2.72486 0-.18166.060552-.66608 0-.78718 0-.0606-.2422095-.30276-.3633143-.36331-.787181.30276-2.1193336.18165-3.2698289.18165 0 3.75425.060552 7.75071-.1816572 11.4444l-.1211048-11.4444h-.6660762v10.89943c0 .18166.3633143.30276.3633143.54497h-1.089943c-.1211047.24221-.3027619.48442-.5449715.66608v.30276h-.6660762c-.4844191-.18166-.9688382-.36331-1.63491449-.30276l.0605524 2.11933 1.75601919 1.2716c.060552.0606-1.1504953.36332-.2422095.48442.4844191.30276 1.1504954.60553 1.9376764.60553l.4238667.18165-.6660763.30277c.060552.0605.302762.30276.302762.36331v2.48265c.1816571.54497.3633143 1.08994.6660762 1.51381-.2422095.48442-.4844191.96884-.6660762 1.51381v40.6912c0 .24221-.3633143.84774-.4844191 1.08994-.1211048-.1211-.5449715-.60552-.7266287-.66607-.1211047-.0606-.7266286-.0606-.9082858 0-.4238667.30276-.6055239.78718-.8477334 1.33215l-.3027619.36332v.30276c.060552.24221.1211047.84773.1816571 1.02939.1211048.78718-.42386669 1.33215-.48441908 1.93767-.30276194-.30276-.66607627-.18165-.90828582-.18165.18165716.54497.72662865.96884 1.3321525 1.08994.1816572.0605.6660763 0 .8477335 0l .1816571.66608c.1816572-.18166.4238667-.36332.4844191-.66608.1816572-.18166.3633143-.42387.6660763-.30276v.72663c.1816571.0606.4844191 1.02939.6660762.30276.060552-.30276.3633144-.48442.6055239-.24221-.060552.0605-.3027619.30276-.3027619.36331v1.69547l8.8406483-.0606c.302762 0 .908286.84773 1.089943 1.02939l.181657-.66608h.302762c.302762.24221.666077.12111 1.029391.12111-.24221.1211-.24221.36331-.181657.54497.121105.24221.544971.24221.726628.54497.24221.30276.726629.36331.968839.1211l.363314.30277c.423867.18165.847733.18165 1.2716 0 .121105-.0606.423867-.30277.544972-.30277.121104-.0605.605523 0 .787181 0 .121104-.36331-.24221-.72662-.423867-1.02939.423867 0 1.150495.24221 1.089943-.30276-.24221 0-.726629.0606-.787181 0-.24221-.1211-.544972-.36331-.605524-.66607h1.51381c-.181658-.18166-.363315-.60553-.121105-.84774-.121105-.0606-.666076-.30276-.666076-.36331v-2.05878h-1.332153v-29.91288c1.877124 2.42209 3.451486 4.60198 5.086401 6.78187l3.209276 3.9359 2.300991 3.20928 1.211048 1.2716c.544971 1.15049 1.392705 1.99823 2.058781 2.96706l2.906514 3.63315 1.332153 1.93767 2.906515 3.63315c.181657.24221.484419 1.02939.605523 1.15049 1.392705 1.51381 2.422096 3.20928 3.754248 4.66254h71.027948v-28.52018h9.56728c.0606 0 .36331.24221.36331.30276 2.66431 5.32861 5.26806 10.77833 7.81126 16.2886.18166.42386.54497.78718.72663 1.2716.0606.1211.36332 1.08994-.42387.54497-.18165-.12111-.48441.24221-.78718.42386v1.39271h2.05878c.0606 0 .36332.24221.36332.30276l3.9359 7.81126c.0606.0606.30277.30276.36332.30276h19.01345l1.63491-.30276v-1.02939c.66608-.0606 1.21105-.18166 1.63492-.48442-.24221-.12111-.60553-.18166-.72663-.48442h1.99823v1.75602c0 .24221.30276.42387.54497.54497.18166.0606.84773 0 1.08994 0l .30276-6.17634c.18166-.0606.48442-.18166.48442-.30276v-1.63492c0-.30276.30276-.48442.48442-.66608.30276.24221.48442.72663.96884.66608 0-.1211.0605-.42387 0-.48442-.24221-.48442-.60552-.78718-.96884-1.15049.12111-.36332.12111-.72663.30276-.96884l-.66607-.30276-.66608-.30277v-1.75601c0-.12111.24221-.42387.30276-.54498l.30277-.66607c.0606-.0606.18165-.30276.18165-.30276-.0606-.18166-.30276-.24221-.48442-.30277l.30277-.66607.66607-.30276c.18166.18165.42387.36331.48442.66607.24221 0 .18166-.36331.12111-.54497-.0606-.1211-.48442-.36331-.60553-.48442.18166-.36331.30276-.72663.66608-.96884-.12111-.18165-.24221-.42386-.12111-.66607.12111-.24221.48442-.30277.78718-.48442-.42386-.18166-.90828-.30276-1.02939-.78718l.30277-.96884h.30276l.30276-.66608.66608-.18166c-.24221-.2422-.60553-.42386-.66608-.78718l.30276-.18165c.18166.18165.36332.42386.66608.48442.48442-.48442.96884-1.08995 1.57436-1.45326-.42387-.12111-.66608-.60553-.84773-.96884-.24221 0-.84774.0606-1.02939 0-.0606 0-.30277-.30276-.30277-.36331-.0606-.12111.0606-.42387 0-.54498-.0606-.1211-.36331-.42386-.48442-.54497-.0606.24221-.30276.48442-.54497.66608-.54497-.48442-1.21104-.90829-1.93767-1.21105v-2.72486c2.5432-.0606 5.51026.18166 7.87181-.1211.1211 0 .18165.24221.30276.48442-.24221.30276-.72663.48442-.66608.96884.60553.0606 1.1505-.36332 1.63492-.42387v1.02939l1.51381-.24221 12.95821 26.64305c.0606.12111.36331.36332.42386.36332h21.91997c.24221-.30277.30276-.90829.36331-1.08995zm92.28184 2.78541-.30276.12111c-.0606-.0606-.30276-.24221-.30276-.30276 0-.72663.48442.1211.60552.18165zm-40.32789-48.38136c.30276.0606.54497.36332.66608.60553.1211.24221 0 1.08994 0 1.3927h-.66608zm-9.80949 47.59418-.30276.30276-.30276.66608-.30276-.66608c.0606-.54497.60552-.48442.90828-.30276zm-.60552 1.2716c.18166.18166.18166.42387 0 .66608-.24221-.0606-.48442-.30276-.66608-.48442zm-38.75353-59.58355h-.30276l.30276-.66607zm-19.86118 17.86296c.48442.1211.90829-.0606 1.2716-.18166l.18166.18166.36331-.72663c.24221.18166.18166.78718.0605 1.15049-.0605.18166-.24221.48442-.48442.54497-.18165.0606-.72662 0-.78718 0-.42386-.1211-.66607-.54497-.60552-.96883zm-133.820777-24.40262c-.181657 0-.726628-.0605-.787181 0-.423866.72663-.787181 1.57437-.908286 2.60376h1.877124l.06055 6.05524c-.605524.54497-1.51381.84773-2.300991 1.2716-.06055.0606 0 .66607 0 .78718l1.695467.30276c.242209.0605.544971.30276.544971.54497v44.50601c0 .90828-.423866 1.63491-.968838 2.11933-.06055.0606-.242209.30276-.302762.36331-.181657-.0606-.484419-.1211-.544971-.48442-.121105-.54497-.605524-1.21104-1.089943-1.3927-.968838-1.63492-2.179886-2.84596-3.209277-4.23867-.06055-.0606 0-.42386 0-.54497-.544971-.24221-.968838-.60552-1.332152-1.08994-.06055-.0606 0-.42387 0-.54497-.544972-.24221-.968838-.60553-1.332153-1.08995-.06055-.0605 0-.42386 0-.54497-.544971-.24221-.968838-.60552-1.332152-1.08994-.06055-.0606 0-.42387 0-.54497-.544972-.24221-.968839-.60553-1.332153-1.08995-.06055-.0606 0-.42386 0-.54497-.544971-.24221-.968838-.60552-1.332152-1.08994-.06055-.0606 0-.42387 0-.54497-.544972-.24221-.968839-.60553-1.332153-1.08994-.06055-.0606 0-.42387 0-.48442-.242209-.24221-.726629-.30277-.787181-.60553-.181657-.66607-.666076-1.2716-1.2716-1.51381-.302762-1.08994-1.150495-1.57436-1.756019-2.11933-.121105-.0606 0-.54497 0-.66608-.544972-.24221-.968839-.60552-1.332153-1.08994-.06055-.0606 0-.42387 0-.48442-.242209-.24221-.605524-.30276-.787181-.54497-.302762-.42387-.423867-.96884-.484419-1.63492-.181657 0-.666076.0606-.726629 0-.968838-1.51381-2.179886-2.72485-3.209276-4.11756l-1.211048-2.05878c-.06055-.0605-.423867 0-.605524 0-.181657.36332-.726628.72663-1.089943.30276.06055-.24221.06055-.60552.302762-.78718l-.968838-.48442.302762-.96884c.242209.36332.605524.48442.968838.66608.06055-.0606.302762-.24221.302762-.30276 0-.30276-.302762-.60552-.666076-.66608v-2.36154c0-.0606.544971-.30276.666076-.36331l-.666076-.36332c.06055-.24221.544971-.18166.787181-.0606.363314.1211.544971.54497.726628.90828h1.089943v1.0294c.48442.0606.666077-.48442.908286-.60553.484419-.30276.908286-.66608 1.392705-.54497.181657.0606.363315.18166.484419.1211.181657-.0606.666077-.24221.847734-.30276l.666076.66608.363314-.36332c-.302762-.24221-.242209-.78718.181657-.90828.181658.42387.423867.90828.847734 1.2716.363314.36331.121105-.60553.181657-.72663.121105-.18166.544972-.30276.726629-.42387-.181657-.30276-.666077-.54497-1.029391-.78718.423867-.30276.847734-.48442 1.332153-.66607.302762-.42387-.181658-.90829-.363315-1.2716.423867-.42387.726629-.84774.968839-1.33216.121104-.18165.242209-.90828.302761-1.08994.06055-.1211.544972-.30276.666077-.36331l-.605524-.30277c.544971-.48441 1.089943-1.08994 1.877124-1.3927 0-.12111.06055-.48442 0-.60552-.181657-.30277-.605524-.48442-.605524-.84774.06055-.24221.302762-.42386.605524-.48442-.484419-.24221-1.029391-.42386-1.392705-.84773l2.967067-1.75602c.181657-.1211 1.089943-.0606 1.332152.0605.181658.0606.363315.42387.666077.24221.121104-.0605.302762-.1211.484419-.1211.544971.1211 1.089943.42386 1.816571.30276-.06055-.24221-.605523-.30276-.726628-.54497s0-1.1505 0-1.45326h-.968838c-.121105-.30276.121104-.48442.302762-.66608.242209.0606.423866.30277.605523.36332.121105-.42387-.06055-.72663-.302762-1.02939 0-.18166 0-.60553 0-.78718.06055-.12111.24221-.42387.302762-.54497.121105-.30277.121105-.66608.302762-.96884.181658-.18166.726629-.78718.787181-.96884.06055-.42387.121105-.90829-.121104-1.33215.181657-.0606.423866-.12111.484419-.30277 0-.0605-.121105-.2422-.181657-.30276.302761-.30276.666076-.54497.847733-.96884.06055.0606.302762.30277.363314.30277.121105.0606.423867 0 .544972 0 .181657.36331.363314.72663.666076.96883 0-.30276.06055-.72662-.242209-.96883.787181 0 1.332152-.18166 1.695466-.54498.06055-.0606 0-.42386 0-.54497l1.332153-.72663-.544972-.30276c.544972-.54497 1.211048-1.02939 1.937677-1.45325-.24221-.24221-.363315-.78719 0-.90829.544971-.12111 1.211048-.66608 1.574362-1.1505.242209 1.45326-.121105 2.60376.06055 4.05701zm37.421376-2.60375h1.332152v.96884h-1.332152zm-15.138097-.36331c.121105-.12111-.121105-.66608.121105-.72663.363314-.12111.787181-.12111 1.02939.18166 0-.24221-.06055-.66608 0-.84774 0-.0605.24221-.30276.363315-.42386.787181.24221 1.513809.1211 2.240438.1211v-2.17989l2.603753-.2422v.90828l1.937676-.36331v1.63491c.24221 0 .363314-.30276.544971-.36331.24221-.0606.908286 0 1.089943 0v .96883c-.121104 0-.605523-.0606-.787181 0-.484419.18166-.484419.84774-.787181 1.08995-.181657.18165-.605523.30276-.787181.42386.121105.24221.666077.12111 1.089943.12111-.242209.42387-.726628.78718-.908285 1.33215-.06055-.0605-.302762-.30276-.363315-.30276-.121105-.0606-.484419.0605-.544971 0-.121105-.0606-.302762-.54497-.363315-.66608-.181657.18166-.726628.66608-.787181.84774-.06055.1211 0 .60552 0 .78718h-.968838c-.121105.30276.121105.60552.302762.78718l-.666076.30276.302762.30276c-.423867.24221-.908286.54497-1.634915.48442.06055-.24221.484419-.36331.726629-.48442l-.968838-.48442c-.302762.18166-.363315.66608-.605524.78718-.181657.12111-.847734-.0606-1.029391.0606-.242209.1211-.363314.48442-.484419.78718-.06055-.0606-.302762-.30276-.363314-.30276h-1.51381c-.181657-.30277-.605524-.66608-.363314-.90829.242209-.24221-.121105-.30276-.181657-.30276-.24221-.24221-.847734-.84773-1.089943-1.08994 1.089943-.60553 1.998228-1.39271 2.845962-2.24044zm18.407928 54.43659c-4.844193-.0606-10.112251.18166-14.714232-.18165-.24221.48442-.48442.96883-.968839 1.2716-.181657.1211-.423866 0-.605524-.12111l-.666076-.66607c.121105-.12111.423867-.12111.302762-.42387l-9.748934.0606v-17.86295h26.400843v17.9235zm0-30.27619h-26.400843v-17.25743h8.11402c0 .24221-.06055.96884 0 1.15049.121104.42387.242209.90829.605524 1.08995.121104.0606.544971-.12111.181657-.24221 0-.18166-.06055-.36332.121104-.48442.423867-.30276.908286-.42387 1.271601-.72663.06055-.0605 0-.60552 0-.78718h15.985827zm36.45254-1.1505c-.78719.42387-1.57437.78719-2.36155 1.1505-.18166.0606-.72663 0-.90828 0h-.72663l-.54497-.96884v-.66607c.18165-.18166.18165-.42387 0-.60553v-.96884c-1.08995-.1211-2.05879-.48442-2.96707-.72663-.66608.42387-.84773 1.33216-.66608 2.301.0606.30276.0606.66607.0606 1.02939h-.78719c-.24221.54497-.60552.96883-1.08994 1.33215h-11.80771v-5.32861c0-.0605.54497-.30276.60552-.36332-.36331-.42386.30276-.84773.0605-1.33215-.30276-.60552-.60552-1.21105-.66607-1.93767v-9.44618c0-.18165.66607-.54497 1.08994-.54497h15.19865l4.11756.66608 1.75602.84773c.30276.48442.90829.78718 1.33215.96884l1.45326 2.05878c.36331.84773.66608 1.69547.78718 2.60375v3.02762c0 .0606.24221.30276.30276.36332-.1211.0606-.60552.24221-.66607.36331-.0606.24221.0606 1.02939 0 1.2716-.30277.96884-.90829 1.69547-1.2716 2.5432zm13.01876 32.75885h-.66608l-.30276-2.05878c-.0606-.18166-.60552-.24221-.78718-.54498-.36332-.54497-.42387-1.2716-.60552-1.63491-.90829-.96884-1.1505-1.93768-1.33216-2.66431-.84773-.90828-1.02939-1.93767-1.51381-2.84596l-2.36154-3.9359c-.18166-.30277-.0606-.72663-.30276-.96884-.60553-.66608-.90829-1.63492-1.08994-2.36154-.66608-.66608-.90829-1.33216-1.1505-1.99823-.0606-.12111.0606-.54497 0-.66608 0-.0605-.24221-.30276-.30276-.36331.36331-.24221.84773-.42387 1.3927-.48442.18166 0 .60553-.54497.78718-.66608.30277-.1211.78718-.0606 1.02939-.36331.30277-.36332.66608-.66608 1.1505-.66608.72663 0 .36331-.60552.42387-.66608.30276-.24221.60552-.60552.84773-.48442.78718.54498.36331-.54497.48442-.54497l1.33215-.78718c.12111-.0606.24221-.66607.30276-.78718l1.2716-1.33215c.12111-.12111.78718-.36332.96884-.48442l-.66607-.30276.66607-.30276-.30276-.30277c.18166-.1211.42387-.18165.66608-.18165l.0606 28.39907zm15.01699-9.44618h.96884v.96884c-.12111-.0605-.54497-.1211-.66608-.18166-.24221-.18165-.42386-.48441-.30276-.78718zm23.97875-28.82293c-.66608 2.6643-1.99823 4.48087-4.05701 5.69192-.24221-.18166.1211-.96884-.42387-1.15049-.24221-.0606-.42387 0-.66608.1211l-.66607.30276c-.24221-.30276-.42387-.60552-.30277-.96884.18166 0 .30277.24221.48442.36332v-1.69547c0-.18165-.84773-.24221-.90828 0-.18166.54497-.72663.84774-1.21105 1.02939-.36331.42387-.60552.84774-.96884 1.21105-.1211.60552.12111 1.02939.30276 1.39271l-.66607.36331-8.29568.66608h-8.29568v-18.89235h16.59136c0 .30276-.0606 1.1505 0 1.39271.1211.42386.60552.54497.96884.72662-.42387.18166-.66608.54498-.96884.84774l-.66608.18166.30276.18165 1.1505.24221c.0606.48442-.72663.24221-1.08994.24221.0606.30276.30276.72663.66607.48442.42387-.24221 1.02939-.0605 1.63492-.1211.0606.30276.18165.30276.24221.0606.0606-.12111.30276-.30276.36331-.36332.30276.18166.36331.66608.60552.78719.12111.0606.60553.0606.66608 0 .36331-.36332.78718-.66608 1.02939-1.08995l-.66608-.30276.18166-.66608.36332.36332c-.0606-.60553 0-1.1505.1211-1.63492.48442.0606.96884.18166 1.2716.48442l1.81657 1.81657c.54497.72663.72663 1.69547.96884 2.60376.0605.18165-.54497.0606-.66608.1211-.48441.42387-1.08994.60553-1.2716 1.1505-.18165-.18166-.48441-.42387-.78718-.30276 0 .1211.0606.60552 0 .72662-.1211.24221-.30276.48442-.54497.54498-.1211.0606-.60552 0-.78718 0v2.30099c.18166 0 .60553.0606.78718 0 .0606 0 .30276-.24221.36332-.30277.1211.30277.24221.66608.48442.78719.18165.1211.42386.1211.48441-.12111 0-.1211 0-.54497 0-.60552.12111-.18166.24221-.42387.48442-.36332.0606.66608.18166 1.21105.48442 1.63492l.60553-1.21105c.48442.0605.78718.60552.48442.96884z" stroke-width=".605524"/><path d="m240.33243 202.8091c.1211.18166.24221.36331.48442.24221v-.60553c.18165-.1211.36331-.2422.48441-.42386h-.60552z" stroke-width=".605524"/><path d="m2.5432003 245.55908h176.3285497v-56.01095h-176.3285497zm148.4744497-54.73935v50.80345h-3.57259v-50.80345zm-3.87535 0v50.80345h-3.26983v-50.80345zm-4.23867 0v50.80345h-1.2716v-50.80345zm-4.60198 0h2.30099v50.80345h-2.30099zm-4.17811 0h2.60375v50.80345h-2.60375zm-6.2369 0h4.90475v50.80345h-4.90475zm-3.87535 0h1.93768v50.80345h-1.93768zm-2.5432 0h .84773v50.80345h-.84773zm-5.26806 0h3.57259v50.80345h-3.57259zm-5.0864 0h3.02762v50.80345h-3.02762zm-2.6643 0h .78718v50.80345h-.78718zm-6.90298 0h5.20751v50.80345h-5.20751zm-3.572587 0h1.937677v50.80345h-1.937677zm-4.601981 0h2.603752v50.80345h-2.603752zm-6.176344 0h4.904744v50.80345h-4.904744zm-4.238667 0h2.300991v50.80345h-2.300991zm-3.269829 0h1.2716v50.80345h-1.2716zm-4.178115 0h3.572591v50.80345h-3.572591zm-6.236896 0h4.238668v50.80345h-4.238668zm-2.240438 0h1.634915v50.864h-1.634915zm-5.813029 0h4.844191v50.80345h-4.844191zm-2.664305 0h1.392705v50.80345h-1.392705zm-4.238667 0h2.30099v50.80345h-2.30099zm-4.844191 0h3.935905v50.80345h-3.935905zm-4.904744 0h3.875353v50.80345h-3.935905v-50.80345zm-7.87181 0h5.57082v50.80345h-5.57082zm-5.207505 0h2.724857v50.80345h-2.724857zm-5.510268 0h3.875353v50.80345h-3.875353zm-8.780096 0h7.205734v50.80345h-7.205734z" stroke-width=".605524"/><path d="m339.45668 227.15116c-.0605-.12111-.0605 0 0 0z" stroke-width=".605524"/><path d="m339.45668 231.32927s-.0605-.0606-.0605-.0606c-.0606.0606-.0606.0606.0605.0606z" stroke-width=".605524"/><path d="m314.81186 230.36044c.12111-.18166.30277-.30277.48442-.36332-.18165-.1211-.1211-.42387-.0606-.60552.18166-.60553.42387-1.21105.60552-1.87713 0-.0605.42387-.24221.48442-.30276-.1211-.0606-.48442-.24221-.48442-.30276v-2.48265c0-.0606.42387-.36331.48442-.42387-.0605-.0606-.24221-.24221-.24221-.30276-.0605-.18165 0-.66607 0-.84773h.72663c-.1211-.42387.30276-.84773-.0605-1.2716 0 .0606-.90829-.12111-.18166-.24221.18166.0606.72663.24221.90829.24221.1211 0 .42386.0606.42386-.12111-.42386-.1211-.66607-.48441-.78718-.90828-.0605-.24221-.1211-.54497-.24221-.78718l.24221-.24221v-.78718h-1.02939c.12111-1.1505.0606-2.24044.12111-3.39094.42386-6.4791-.78718-11.74716-3.08817-16.34914-.12111-.24221-.24221.1211-.36332-.0606-.36331-.66608-.78718-1.63492-1.21105-2.30099-.48441-.66608-.18165-.24221-.66607-.90829-.24221-.30276-2.5432-2.4221-2.78541-2.66431 0 0 .42386-.0606-.0606-.54497-.96884-.84773-2.11934-1.45325-3.14873-2.05878l.0606.18166c-5.14695-1.63492-11.26274-3.33038-17.98406-2.4221l-5.99468-.72663c.24221.18166.30276.54498.0606.78719l-.72663-.60553-.66607-.66607h-2.84597c.24221.18165.48442.48441.54498.48441h1.33215v.78719h-4.05701v44.02158l-.24221 3.02762c0 .12111-.18166.48442-.24221.60552-.12111.18166-.60553.66608-.78718.84774 0-.24221-.0606-.90829 0-1.1505 0-.0606.18165-.24221.24221-.30276-.12111 0-.42387-.0606-.48442 0-.0606 0-.24221.24221-.24221.30276-.0606.18166.0605.78718 0 .96884-.12111.30276-.42387.48442-.66608.66608-.0605.0606-.30276 0-.42386 0-.0606 0-.30277.18165-.30277.24221 0 .24221-.1211.48442.12111.66607-.0605.0606-.42387-.48442-.48442-.36331-.0605.0606 0 .36331 0 .42387-.24221.1211-.24221.48441-.42387.48441-.54497.0606-.78718-.42386-.96884-.84773.24221 0 .60553.0606.72663-.1211-.1211-.0606-.1211-.24221-.1211-.30277-.0605-.1211 0-.66607 0-.84773.84773-.0606.78718.36332 1.33215-.0606l.84773-1.51381c-.42386.18166-1.21104.24221-1.69546 0-.0606-.0605.24221-.42387.1211-.48442-.1211-.0605-.66607 0-.84773 0 0-.24221-.0605-.90829 0-1.08994 0-.0606.18166-.30276.30276-.30276.24221-.0606.60552.36331.78718.1211.24221-.30276 0-.54497.54497-.54497.18166 0 .24221.36331.36332.60552.24221-.30276.54497-.54497.90828-.66607-.0606-.0606-.24221-.24221-.24221-.30277 0-.0605-.0606-.36331 0-.42386.0606-.12111.36332-.30276.36332-.42387.0605-.1211.48442-.0606.54497-.18166.0606-.1211-1.45326-.30276-1.2716-.48442.42387.12111.90829.30277 1.2716-.1211-.0605-.0606-.24221-.18166-.24221-.30276-.0605-.18166-.0605-.66608-.1211-.84774l-4.17812-11.62605c-.0605-.18166.0605-.66608 0-.78719-.42387-.42386-.78718-1.02939-1.02939-1.75601 0-.0606.0605-.48442 0-.60553l-1.02939-2.11933c-.0605-.12111.0606-.72663 0-.84774-.12111-.2422-.42387-.36331-.48442-.60552-.18166-.48442-.36331-.96884-.48442-1.51381-.0605-.18166.0606-.78718 0-.90828-.0605-.24221-.42387-.36332-.54497-.66608-.24221-.72663-.48442-1.51381-.78718-2.24044l-.72663-1.51381c.18166-.18166.36331-.36331.48442-.60552.0605-.12111-.0606-.66608 0-.72663.1211-.18166.48442-.18166.54497-.42387l-1.81657-.24221v-.78718l1.69547-.0606c.0606-.24221.42386-.42387.60552-.66608-.18166-.18165-.54497-.42386-.48442-.66607.12111-.42387.12111-.90829-.18166-1.57437 0 0-.0605-.1211-.1211-.18165l.48442-.24221c-.24221-.18166-.0606-.48442.0605-.66608h-.84773c-.0606 0-.18166.0605-.24221.12111-.24221.1211-.12111.48442 0 .60552.18165.24221.1211.48442.1211.78718-.30276-.36331-.54497-.78718-.90828-1.02939 0-.1211-.0606-.42387-.12111-.54497-.1211-.18166-.48442-.12111-.60552 0-.0606-.12111-.0606-.36332-.30276-.24221.1211.66608-.18166 1.21105-.48442 1.63491 0-.24221-.0606-.78718 0-.96883.0606-.12111.30276-.24221.24221-.42387h-.78719c-.18165-1.02939-.48441-1.87713-.78718-2.78541-.30276-.72663-.66607-1.45326-.72662-2.48265-.42387-.42387-.78719-.96884-1.0294-1.57436-.1211-.30276-.60552-.42387-.54497-.78718h.78718v-.78718l-3.87535.60552c-.42387-.0606-.90828-.1211-1.3927-.42387-.12111-.0606-.36332.24221-.66608.12111-.1211-.0606-.36331-.30276-.42387-.36332-.18165-.0606-.36331 0-.48442.12111l-.24221-.48442c-.18165-.18166-.36331-.0606-.48441.0606 0-.18165-.0606-.54497 0-.66607.0605-.12111.30276-.24221.24221-.42387-.48442.0606-.96884.24221-1.51381.18166-.12111 0-.42387.24221-.54498.24221.18166.1211.12111.48442 0 .60552l-.24221.78718c-.18165.24221-.36331.72663-.78718.84773 0-.36331.12111-.96883-.0605-1.08994-.1211.12111-.36331.36332-.36331.36332l-2.48265 6.78186c-.0605.18166-.12111.48442.1211.60553-.30276.18165-.60552.30276-.96883.36331 0-.24221.0606-.66607-.12111-.78718l-.42387.78718v.48442c-.18165.24221-.48442.36332-.78718.48442l-.1211-.48442c-.30276.12111-.30276.48442-.36332.72663-.1211.18166-.36331.90829-.54497 1.02939-.24221.18166-.48442-.18166-.78718-.24221-.1211-.1211-.30276-.36331-.48442-.24221v.72663l-.48442.78718c-.1211 0-.42386.0606-.48442.12111-.0606.0605-.30276.30276-.36331.36331-.12111.24221.1211.42387.36331.54497.12111.0606.30277-.18166.48442-.30276l.48442.24221v.24221l.54497-.12111c-.1211-.1211-.30276-.18165-.30276-.36331l.78718-.24221.12111.54497c-.18166.12111-.36332.30276-.30276.48442.0606.36331.54497.36331.84773.48442.1211.0606.54497 0 .30276-.24221s.12111-.48442.30276-.48442l-.0605 1.45326s-.36331.18166-.42387.24221c-.0605.0606.0606.42386 0 .42386-.30276.24221-.66607.36332-1.02939.54498-.1211.0606-.48442.42386-.54497.54497-.0606.1211 0 .66607 0 .84773h.78718c-.36331.60552-.54497 1.39271-.84773 2.17989-.0606.18165-.36332.60552-.60552.60552h-1.33216c-.1211 0-.48442 0-.60552.0606-.18166.0606-.42387.30276-.18166.48442v.54497h-.78718v.84774c.18166-.24221.54497-.30277.72663-.0606l-.42387.78719c-.18165 0-.54497-.0606-.60552.1211.24221.0606.42387.24221.54497.42387-.1211.1211-.18166.30276-.0605.54497.0605.18166.36331.0606.60552.0606.0606 0 .18166-.18166.24221-.24221.18166-.1211.30276.12111.48442.12111l.24221-1.02939.24221.24221c-.18166.18165-.18166.54497 0 .72662-.12111.18166-.30276.30277-.54497.42387.18166.0606.1211.24221.1211.42387-.42386.18165-.72663.60552-1.02939.96884-.0606.1211-.60552-.0606-.72663 0-.24221.18165-.30276.54497-.42386.84773-.0606.1211 0 .54497 0 .66608.1211 0 .48442.0606.60552 0 .12111-.0606.30276-.36332.42387-.36332.1211-.0606.48442-.1211.36331.18166-.66607 1.87712-1.33215 3.87535-2.05878 5.75247-1.87712 5.14696-3.87535 10.17281-5.57082 15.50142-.0606.24221-.1211.96883-.30276.78718-.36332-.48442-.72663-1.02939-.90829-1.81657-.36331-.36332-.72663-.96884-.96883-1.69547 0 0 .0606-.36332 0-.42387-.18166-.18166-.48442-.18166-.60553-.36331-.18166-.42387-.48442-.78718-.42387-1.2716-.48441-.42387-.90828-1.1505-1.08994-2.05878-.42387-.42387-.84773-1.08995-1.02939-1.99823 0-.12111-.30276-.30276-.42387-.48442-.36331-.54497-.42386-1.2716-.78718-1.75602-.66607-.96884-1.21104-2.05878-1.75602-3.08817-.0606-.18166 0-.66608 0-.84774.48442-.24221 1.08995-.48442 1.45326-.90828.60553 0 .96884-.36332 1.33215-.72663.18166-.18166.48442-.24221.60553-.0606.18165-.42387.72663-.66608 1.15049-.84774 0-.1211-.0606-.42386 0-.42386l1.02939-.60553c.0606 0-.0606-.36331 0-.42386.0606-.0606.42387-.24221.48442-.30277.12111-.0606.30276-.0606.36332.12111 0-.18166-.0606-.72663 0-.78718.36331-.24221.78718-.42387 1.15049-.60553l-.48442-.24221c.24221-.1211.54497-.42386.72663-.2422.36332.36331.72663.78718 1.2716.96883.48442.0606.90829-.0606 1.2716-.1211 0-.18166-.18165-.24221-.24221-.42387-.0606-.0605 0-.36331 0-.42386-.42386-.18166-.72663-.48442-1.02939-.84774 0-.0606.0606-.30276 0-.36331-.0605-.0606-.42386-.24221-.48442-.30276-.18165-.12111-.30276-.36332-.24221-.66608.48442 0 .90829.1211 1.2716.24221.30277.0606.66608-.24221.96884-.36332-.36331-.18165-.54497-.60552-.84773-.90828-.0606-.0605-.54497 0-.72663 0 .24221-.60553.60552-1.1505.60552-1.75602 0-.36332.66608-.54497.96884-.24221 0-.12111-.0606-.54497 0-.60552.0606-.0606.42387-.30277.48442-.30277.48442.12111.90829-.24221 1.2716-.30276.12111.36332.24221 0 .18166-.0606-.24221-.30276-.36332-.66608-.42387-1.02939-.1211 0-.54497-.0606-.60552 0-.36332.36331-.72663.78718-1.1505 1.02939l-.30276-.30276c.24221-.18166.36331-.42387.54497-.72663.0606-.18166-.30276-.30276-.30276-.54497.30276 0 .72663.0606.84773-.12111-.1211-.0606-.42386-.24221-.54497-.30276-.18166-.1211-.18166-.42387 0-.60552.12111-.12111-.18166-.72663.24221-.60553v.78718c.24221 0 .66608.0606.78718-.1211l-.54497-.24221.54497-.24221c-.54497-.18166-.96884-.48442-1.2716-.84773l.24221-.48442.54497-.24221-1.02939-.72663c.18166-.18166.30276-.30276.54497-.42387l-.30276-.36331c.30276-.48442.18166-1.2716-.42386-1.51381-.0606 0-.42387 0-.54498 0-.0606-.30276.18166-.60553.48442-.72663h.36332c.0605 0 .30276-.18166.30276-.24221.0606-.0606 0-.42387 0-.48442.0606-.1211.24221-.48442.30276-.48442h1.33215c0-.24221.18166-.90828-.1211-.78718-.24221.12111-.42387.30276-.48442.54497-.1211-.30276-.24221-.72663-.60552-.78718v.78718c-.18166 0-.66608.0606-.84774 0-.1211-.0606-.36331-.30276-.42386-.36331.24221-.0606.36331-.24221.48442-.36332h.78718v-.24221c.0605-.0606.36331-.0606.24221-.2422h-.84774c.24221-.18166.24221-.54498.12111-.78719-.0606-.1211-.24221-.30276-.30276-.48442.1211-.2422.48441-.30276.54497-.48441-.18166 0-.54497 0-.66608 0-.0605 0-.36331.18165-.42387.24221-.1211 0-.48442.0606-.60552 0-.18166-.0606-.54497-.54498-.66608-.60553-.0605-.0606-.42386-.0606-.48442 0-.1211.0606-.30276.36332-.42386.36332-.18166.0606-.84774.1211-.96884 0l-1.57436-1.75602c-.0606-.0606-.60553 0-.72663 0-.12111.30276-.24221.66607-.60553.72663-.42386.0605-.84773.30276-1.33215.30276v-.96884c-.72663-.12111-1.81657-.12111-2.42209-.36332.42386-.48441.78718-.60552 1.21104-.78718h.48442c.12111-.0606.48442-.24221.48442-.30276v-1.33215c-.1211 0-.48442.0606-.60552 0-.12111-.0606-.48442-.42387-.54497-.42387-1.2716-.30276-2.24044-.90828-3.45149-1.21105l-3.39093-.60552h-14.53258c-.18165 0-.66607-.18166-.84773-.24221v-.24221l.48442-.1211c-.24221-.24221-.42387-.54497-.72663-.66608h-.78718l.30276 1.02939-1.02939-.48442v-.30276-.24221c.0606-.1211.12111-.30276.24221-.36331l-.48442.1211c-.1211 0-.42386.0606-.54497.12111-.18166.1211-.1211.48441 0 .60552l-.78718.42387c0 .18165.1211.84773 0 .96883-.36331.36332-.66608.78719-.96884 1.1505-.24221-.0606-.48442-.24221-.48442-.42387-.1211-.54497-.0605-1.02939.18166-1.45325l-4.05701.1211c0 2.84596.60552 4.78364.42387 7.56905l-.66608-7.56905v8.47734c0 .1211.30276.2422.24221.42386h-.84773c-.12111.18166-.24221.36332-.42387.48442v.24221h-.48442c-.36331-.1211-.72663-.30276-1.2716-.24221l.0605 1.69547 1.39271.96884c.0605.0606-.90829.30276-.18166.36331.42387.24221.90829.48442 1.51381.48442l.24221.1211-.48442.24221c.0606.0606.24221.24221.24221.30277v36.02867c0 .18165-.30276.66607-.36331.84773-.12111-.12111-.42387-.48442-.54498-.48442-.1211-.0606-.60552-.0606-.66607 0-.36332.24221-.48442.60552-.66608 1.02939l-.24221.24221v.24221c0 .18166.12111.66608.12111.78718.1211.60553-.30276 1.02939-.36332 1.51381-.18165-.18166-.48442-.1211-.66607-.1211.1211.42386.54497.78718 1.02939.84773h.66607l.12111.48442c.18166-.12111.30276-.30276.36331-.48442.12111-.12111.24221-.36331.48442-.24221v.60552c.12111.0606.36332.78718.54497.24221.0606-.24221.30276-.42386.48442-.18165-.0606.0606-.24221.24221-.24221.30276v1.33215l5.81303-.24221 1.2716-.24221v-.78718c.48442-.0606.90829-.1211 1.2716-.36331-.18166-.12111-.48442-.18166-.54497-.36332h1.57436v1.33215c0 .18166.24221.36332.42387.42387.1211.0606.66608 0 .84773 0l .24221-4.84419c.12111-.0605.36332-.1211.36332-.24221v-1.2716c0-.24221.24221-.36331.42386-.54497.24221.18166.36332.60552.72663.54497 0-.1211 0-.36331 0-.42387-.18166-.36331-.48442-.60552-.78718-.90828.0606-.24221.12111-.54497.24221-.78718l-.48442-.24221-.48442-.24221v-1.33215c0-.0606.18166-.36332.24221-.42387l.24221-.48442c0-.0605.12111-.24221.12111-.24221-.0606-.1211-.24221-.18166-.36332-.24221l.24221-.48442.48442-.24221c.18166.12111.30276.30276.36331.54497.18166 0 .18166-.30276.12111-.42386-.0606-.0606-.36331-.30277-.48442-.36332.12111-.24221.24221-.60552.48442-.78718-.12111-.1211-.18166-.36331-.12111-.54497.12111-.18166.36332-.24221.60553-.36331-.30276-.12111-.72663-.24221-.78718-.60553l.24221-.78718h.24221l.24221-.48442.54497-.1211c-.18166-.18166-.42387-.36332-.48442-.60553l.24221-.1211c.1211.18166.30276.30276.48442.36331.42386-.36331.78718-.84773 1.21105-1.15049-.30277-.12111-.54498-.48442-.66608-.72663-.18166 0-.66608.0606-.78718 0-.0606 0-.24221-.24221-.24221-.30276 0-.0606.0606-.36332 0-.42387-.0606-.12111-.30276-.36331-.36332-.42387-.0606.24221-.24221.36332-.42386.54497-.42387-.36331-.90829-.66607-1.51381-.90828v-2.11934c1.99823-.0606 4.29922.12111 6.11579-.0606.0606 0 .1211.18166.24221.36332-.18166.24221-.60553.36331-.54497.72663.48442.0605.90828-.24221 1.2716-.30277v.78718l1.15049-.18165 10.11225 20.70891c.0606.12111.24221.30277.30276.30277h17.07578c0-.12111.0605-.60553.1211-.78719l.60552-1.33215c.0606-.0606.42387-.24221.48442-.30276-.24221-.0606-.36331-.24221-.48442-.36331.0606-.0606.18166-.24221.30277-.30277.0606 0 .36331-.1211.0606-.18165 0-.96884.54497-1.57436 1.15049-1.93768-.18165-.0605-.36331-.24221-.48441-.36331.1211-.18166.30276-.30277.48441-.36332-.18165-.1211-.18165-.48442-.1211-.66607l.60552-1.33216c.0606-.0606.42387-.24221.48442-.30276-.24221-.0606-.36331-.24221-.48442-.36331.12111-.18166.30277-.30276.48442-.36332-.18165-.1211-.1211-.42386-.0606-.66607 0-.0606.18166-.24221.24221-.24221l21.19334-.60553c.0605.54497.18165 1.08995.48441 1.69547.36332.42387.60553 1.57436.18166 2.36154-.18166.30276-.36331.66608-.24221 1.02939.0605.24221.12111.48442.36332.60553.1211.0605.60552 0 .78718.0605.0605 0 .24221.24221.24221.30276.0605.18166 0 .72663 0 .96884.1211.0606.60552.18166.42386.42387-.24221.24221.30277.42386.30277.60552v2.24044c0 .1211.54497.54497.60552.66608.0606.1211-.0605.66607 0 .78718.1211.18165.42387.42386.36331.78718-.24221 0-.90828-.18166-.78718.1211.12111.24221.30276.42387.48442.48442-.18166.12111-.1211.42387-.0606.66608.0606.1211.54497.48442.60552.72663.0606.24221-.1211.96883.0606.84773.42386-.30276.72662-.60552.90828-1.02939l.48442-.72663c.24221.18166.36332.48442.48442.78718l-.1211.48442c.1211-.1211.30276-.30276.36331-.48442.18166-.1211.60552-.36331.78718-.48442.18166-.24221.60552-.42386.54497-.78718-.30276 0-1.08994.12111-1.02939-.0606.0606-.30276.30276-.48442.48442-.24221.36331-.0606.66608-.30276 1.02939-.42387v-.24221l1.2716.54497c.24221-.0606.54497-.1211.78718-.24221.12111.0606.30276.12111.36332.24221 0-.18165.1211-.48441-.12111-.60552l.48442-.24221c-.18166-.18166-.24221-.48442-.48442-.66608l.24221-.2422c.24221.1211.60553.1211.66608.48441.0606-.0606.24221-.18165.24221-.24221.0606-.2422-.0606-.48441-.12111-.78718.12111 0 .42387-.1211.36332-.1211 3.14872.18166 8.65899.0605 11.80771.1211l4.48088 1.02939c.0606.12111.18166.30277.36331.24221 0-.1211-.0605-.54497 0-.60552.0606-.0605.42387-.24221.48442-.24221 1.75602-.30276 2.66431-.1211 4.60198-.18166l1.39271-.36331 1.33215-1.21105c.66608-.36331 1.39271-.60552 2.17989-.78718.66607-.1211 1.2716-.24221 1.63491-.72663.0605-.0606.36332 0 .42387 0 .1211-.0606.48442-.42387.60552-.48442.0606-.0606.36332.0606.42387 0 .48442-.54497 1.21105-.84773 1.75602-1.3927.24221-.24221.72663-.42387.96884-.12111 0-.1211-.0606-.60552 0-.60552l1.02939-.60553c.0605-.0606.18165-.48441.24221-.60552l1.02939-1.02939c.1211-.1211.60552-.36331.78718-.42387v-.66607c.36331-.18166.72663-.36332 1.02939-.66608-.12111-.18166-.24221-.42387-.12111-.48442.42387-.24221.78719-.66607 1.08995-1.02939-.12111-.1211-.24221-.36331-.0606-.54497.24221-.36331.66608-.78718 1.08995-1.08994l-.48442-.24221.48442-.24221c-.18166-.0606-.18166-.30276-.0605-.48442.18165-.24221.48441-.60553.54497-1.02939 0-.0606.42386-.24221.54497-.30276.42387-.48442.24221-.66608.1211-.78718zm-72.96562-29.06515h-.24221l.24221-.48442zm-15.44086 13.92705c.36331.0606.66607-.0606.96884-.12111l.18165.18166.24221-.54497c.18166.1211.12111.60552.0606.90829-.0606.18165-.18165.36331-.36331.42386-.1211.0606-.54497 0-.60552 0-.36332-.18166-.54498-.48442-.48442-.84773zm-22.34383 14.77478h.72662v.78718c-.1211 0-.42386-.0606-.48441-.1211-.18166-.18166-.30277-.42387-.24221-.66608zm18.71068-22.46493c-.54497 2.05878-1.57436 3.51203-3.14872 4.42032-.18166-.12111.1211-.72663-.36331-.90829-.18166-.0606-.36332 0-.48442.12111l-.48442.24221c-.18166-.24221-.30276-.48442-.24221-.78718.18165 0 .24221.18165.36331.30276v-1.33215c0-.12111-.66607-.18166-.72663 0-.18165.42386-.54497.66607-.96883.78718-.30277.30276-.42387.66607-.72663.90828-.0606.48442.0605.84774.24221 1.08995l-.54498.24221-6.4791.48441h-6.47911v-14.71423h12.95821c0 .24221-.0606.90829 0 1.08995.12111.30276.48442.42386.78719.54497-.36332.1211-.54498.42387-.78719.66608l-.48441.1211.24221.1211.78718.24221c.0605.42387-.54498.18166-.84774.18166.0606.24221.24221.54497.54497.36332.30277-.18166.84774-.0606 1.2716-.12111 0 .24221.12111.24221.18166.0606.0606-.1211.24221-.24221.30276-.30276.24221.18166.30277.48442.48442.60553.0605.0606.48442.0606.48442 0 .30276-.30277.60553-.54498.78718-.84774l-.54497-.24221.12111-.48442.24221.24221c-.0606-.48442 0-.90828.1211-1.2716.36331.0606.72663.12111 1.02939.36332l1.39271 1.3927c.42386.54497.54497 1.33215.72662 2.05878.0606.18166-.42386.0606-.48441.12111-.36332.30276-.84774.48442-.96884.90828-.12111-.18165-.36332-.30276-.60553-.24221 0 .12111.0606.48442 0 .60553-.0606.18166-.24221.36331-.42386.42386-.12111.0606-.48442 0-.60553 0v1.75602c.12111 0 .48442.0606.60553 0 .0606 0 .24221-.18165.30276-.24221.1211.24221.18166.48442.36331.60553.12111.0606.36332.0606.42387-.12111 0-.0606 0-.42386 0-.48442.0606-.1211.18166-.30276.36331-.30276 0 .54497.12111.96884.36332 1.2716l.48442-.96884c.42386.30277.66607.78719.42386 1.0294zm50.6218 40.08568c-.18166-.0606-.36331-.24221-.48442-.36332l.48442-.1211c.1211.1211.1211.36331 0 .48442zm.24221-1.2716-.24221.48441-.24221-.48441c.0606-.42387.48442-.36332.72663-.24221zm8.35623-35.72591h-.48442v-1.57437c.24221.0606.42387.24221.48442.48442.0605.18166 0 .84774 0 1.08995zm22.94935-1.87713c0 .12111-.36331.24221-.36331.30276v.0606s-.0605 0 0-.0606l-.90829-1.2716c-.1211 0-.48442-.0606-.54497-.1211-.18165-.24221-.24221.0606-.24221.1211 0 .12111.36332.36332.48442.48442-.0605 0-.18166.0606-.24221.12111-.24221.1211.30276 1.87712.42387 2.05878-.18166.18166-.30276.30276-.54497.36331.1211.18166.30276.30277.48442.42387l.72663.54497.2422.78718c.0606.0606.30277.24221.36332.30277.24221.0605.42387-.18166.60552-.24221.18166.24221.36332.54497.18166.84773-.0605.0606-.36331.30276-.54497.30276s-1.21105-.36331-1.45326-.1211c.12111.1211.48442.48442.54497.60552.0606.18166 0 .90829 0 1.08994h.0606.0606l1.3927.0606c0 .24221.0605.90828 0 1.08994-.0606.0605-1.15049-1.02939-1.3927-1.1505.18165.12111.1211.54497-.0606.66608.0606.54497.36331 1.02939.18165 1.51381l-.1211 4.23867c.0605.0606.1211.0606 0 .0606v-.0606c-.18166-.0606-.54497-.18166-.60553-.18166.0606.0606.66608.72663.66608.78718.0605 1.57436-.36331 2.84596-.84773 3.87535-.30277 1.93768-1.02939 3.63315-2.05878 4.90475l-1.69547 1.63491c-.66608.48442-1.45326.90829-2.30099 1.21105-.72663.30276-1.08995.36331-1.75602.66607-.84773.0606 0 .24221-.90829.12111l-1.2716 1.2716.18166-1.2716h-1.75602l-2.48265-.54497-.66607.42386-.18166.42387-1.57436-.36331c0-.0606-.18166-.24221-.24221-.30276.1211-.0606.48442-.24221.48442-.30277v-2.24044c0-.0605-.42387-.2422-.48442-.30276.1211-.0606.48442-.24221.48442-.30276.18165-2.78541-1.39271-4.78364-1.2716-7.56905 0-.0606-1.63492-.72663-1.69547-.78718.1211-.0605 1.93768.24221 1.93768.18166l-1.39271-2.72486c0-.0606-.42387-.24221-.48442-.30276.12111-.0606.54497-.24221.54497-.30276.0606-.72663.96884-1.33216 1.33216-1.87713-.36332-1.75602-.0606-3.99645.0606-5.75247 0-.18166.0605-.78718 0-.96884 0-.0606-.18166-.24221-.24221-.30276.1211-.0606-.30276-2.84597-.24221-2.96707.0605-.12111.30276-10.23335.30276-10.23335l.36332-.60553.30276.78718 2.60375.0606h.60552v.72662h.60553v-.48441h.96884l.48442.48441h.42386l.18166-.60552.66608-.1211.36331-.36332v1.08994l.84773-.84773c.84774-.0606 0-.24221.90829-.1211.96884.1211 2.78541 1.15049 3.69369 1.45325.78719.24221 1.75602 0 2.48265.36332.24221.30276.12111-.84774.54497-.60553 0-.1211.30277.72663.42387.78718.0605-.0606.0605-.0606 0 0-.30276.18166-2.05878 1.75602-1.63491 1.69547l.42386 1.2716c.12111-.36331 1.45326-1.87712 1.33216-1.57436h.66607l1.33215 2.60375c.12111.90829.42387 1.57436.60553 2.36155l.84773.60552c0 .18166-.24221.72663-.30276.90829-.12111.36331-.30276.72662-.54497 1.02939-.12111-.0606-.30276-.12111-.36332-.24221-.30276 0 0 .30276 0 .42386z" stroke-width=".605524"/><path d="m384.2049 100.47556c.24221-.1211.48442-.544968.30276-.666072-.36331-.24221-.84773 0-1.21105.242212h-.66607c-.54497-.121108-.54497-.726632-.96884-1.029393l-.66608.666076c-.30276.423867-.48442.847737-.66607 1.332157v-.66608-.30276c-.24221-.242212-.60553-.484422-.96884-.242212-.18166.121104.18166.181657.30276.242212l.30276.66607v.30277c-.60552.2422-.96884.90828-1.21105 1.51381.18166.1211.54498.18165.60553.42386-.96884.0606-1.63492.24221-2.5432.30276-.24221 0-.96884.30277-.78718-.18165.18165-.36332.60552-.48442.78718-.78718-.42387 0-1.1505.24221-1.08995-.30277.36332 0 1.1505.24221 1.08995-.30276-1.02939 0-1.57436.24221-2.66431.18166-.24221 0-.30276-.48442-.42386-.72663-.24221.18166-.72663.18166-1.02939 0-.12111.36331-.30277.78718-.66608.96884-.12111.0606-.60552 0-.72663 0-.0605 1.02939-.1211 2.24044.18166 2.90651-.0605.0606-.30276.24221-.30276.24221l-7.3874.0605c0 .24221.24221.36332.24221.42387l3.99646 46.807h9.44617c0-.24221-.0606-.90829 0-1.08995.0606-.1211.54498-.30276.66608-.36331-.0605-.0606-.30276-.30276-.30276-.36331-.0605-.24221 0-1.0294 0-1.2716.18166-2.24044.54497-5.08641.1211-7.32684.48442-.66608.72663-1.51381.84774-2.4221 0-.1211.54497-.30276.66607-.42387-.1211-.0605-.66607-.30276-.66607-.36331v-2.84596c0-.0605.54497-.30276.66607-.36332-.0605-.0606-.36331-.30276-.36331-.42386.1211-3.57259.78718-6.78187 1.02939-10.29391 0-.0605.54497-.30276.66608-.36331-.12111-.0606-.66608-.30277-.66608-.36332v-2.84596c0-.0605.54497-.30276.66608-.36331-.0606-.0606-.30277-.30277-.30277-.36332v-2.36154c0-.24221.36332-.90829.30277-1.1505-.0606-.42386-.36332-.90828-.30277-1.33215.12111-.96884.54498-1.63491.96884-2.36154v-3.08817c0-.0606.54497-.30277.66608-.36332-.12111-.0605-.66608-.30276-.66608-.36331v-1.87713c0-.0606.54497-.30276.66608-.36331-.0605-.0605-.30276-.30276-.30276-.36332v-3.02762c.1211.0606.42386.30277.54497.30277.18165.0605.84773 0 1.08994 0 .0605.0605.24221.1211.30276.18165.30276.12111.48442-.1211.60553-.30276l-.96884-.48442v-.78718l.96884-.66607c.1211-.24221.48442-.42387.30276-.72663-.0606-.12111-.48442-.30277-.60553-.42387-.30276-.18166-.1211-.54497-.1211-.78718-.18166.18166.0605.18166.24221.1211zm-12.41324 10.0517c-.1211.24221-.24221.48442-.54497.54497-.24221.0605-.96884.0605-1.1505-.0606-.24221-.12111-.48442-.24221-.54497-.48442-.0605-.18166-.0605-.72663 0-.84773.0605-.12111.54497-.30277.66608-.36332-.0606-.0605-.30276-.30276-.30276-.36331-.0606-.12111 0-.60553 0-.78718.30276.0606.48441.36331.66607.60552.0606.12111 0 .60552 0 .72663.12111 0 .60553-.0606.72663 0 .24221.1211.48442.30276.54497.54497 0 .0606 0 .42387-.0606.48442zm7.5085 7.44794c-.54498-.24221-.84774-.96883-.90829-1.63491-.30276-.48442-.48442-.96884-.36331-1.63492.18165 0 .84773-.0606 1.02939 0 .24221.12111.54497.30277.54497.60553-.0605.84773-.24221 1.69547-.30276 2.6643zm-.30277-12.716c-.1211-.42386.0606-.72663.30277-1.02939l.66607.30276c.24221.0606.66608.0606.72663.30277-.66608.1211-1.21105.30276-1.69547.42386zm3.57259-2.30099h-1.33215c.12111-.0605.54497-.30276.66608-.30276.24221 0 .90828-.30276.66607.30276z" stroke-width=".605524"/><path d="m381.90391 220.6115c-.0605-.24221-.12111-.54497-.24221-.78718l.24221-.24221v-.78718h-1.02939c.1211-1.1505.0605-2.24044.1211-3.45149.42387-6.4791-.84773-12.95821-3.08817-17.49964-.1211-.24221-.24221.12111-.36331-.0605-.36332-.66608-.78718-1.63491-1.21105-2.30099-.48442-.66608-.18166-.24221-.66608-.90829-.24221-.30276-2.11933-2.05878-2.36154-2.30099 0 0 0-.48442-.54497-.90828-.96884-.84774-2.11934-1.45326-3.14873-2.05878l.0606.18165c-5.75248-2.6643-14.65368-3.20927-20.2245-.36331-.24221.24221-1.1505 1.3927-1.39271 1.08994 0 .12111-1.69546.84774-1.75602.84774l-1.02939.60552c-.0605.0606-.18165.48442-.24221.60552l-1.45325.60553c.30276.24221.0605.66607.1211.90828.0605.12111.30276.30277.30276.30277.36332.78718-.30276 1.21104-.78718 1.33215-.54497.1211-1.02939-.12111-1.57436-.18166-.36331.84773-.84773 1.57436-1.33215 2.17989.18166.18165.66607.60552.72663.72663.0606.1211-.18166.60552-.30277.18165-.48441 0-.96883-.66607-1.2716-.30276-.1211.12111-.1211.60552-.18165.72663l-.36332.96884c-.42386.36331-.60552.90828-.84773 1.45325-.1211.24221-.18166.66608.1211.90829l-.66607.36331.72663.72663c-.48442 0-1.02939-.1211-1.45326.12111-.36331-.90829.0606.24221 0 .36331.24221.24221.42387.42387.72663.54497-.12111.0606-.72663.30277-.72663.42387-.18166 1.02939-.30276 2.17989-.36331 3.33038l-.36332 4.29922c.12111.18166.18166.42387.36332.54497l-.72663.36332c.18165.1211.24221.36331.36331.54497-.42387.42387-1.75602.84773-2.5432.66607-.18166 0-.72663.78719-.96884.90829-.1211.0605-.54497-.1211-.72663-.18166l-.36331-6.78186c-.0606-.24221-.36331-.42387-.42387-.72663.72663.0606 1.21105-.30276 1.93768-.30276.30276 0 .84773-1.93768.60552-2.24044-.0605-.0606-.30276-.30276-.36331-.36332.36331-.42386.1211-3.87535-.18166-3.20927-.1211-.12111-.48442-.48442-.48442-.54498-.1211-.96883 0-1.63491.0606-2.30099 0-.30276.72662-.48441.90828-.60552.18166-.1211.36332-.36331.42387-.42387l-1.08995-1.08994c-.18165.0606-.42386.18166-.54497.36331l-.54497-1.08994c.30276-.24221.60553-.54497.60553-.78718.0606-.84773.54497-1.45326.84773-2.05878-.66608-.66608-1.21105-1.45326-1.45326-2.5432v-.72663l-2.24044-1.45326-9.50672.96884s.18166 37.48193 0 40.20679c0 .0605-.42387.24221-.48442.30276.1211.0606.48442.24221.48442.30276v2.17989c0 .0606-.42387.24221-.48442.30276.0606.0606.24221.24221.24221.30276v1.87712c0 .18166-.30276.72663-.24221.90829.0606.36331.30276.66608.24221 1.02939-.12111.72663-.42387 1.2716-.72663 1.81657v2.4221c0 .0605-.42387.24221-.48442.30276.12111.0606.48442.24221.48442.30276v1.45326c0 .0606-.42387.24221-.48442.30276.0606.0606.24221.24221.24221.30276v2.36155c-.0605-.0606-.36331-.24221-.42387-.24221-.18165-.0606-.66607 0-.84773 0-.0605 0-.18166-.12111-.24221-.12111-.24221-.0605-1.87712.0606-1.99823.24221l2.24044.42387v.48442l-2.24044.48442c-.1211.18165-.36331.36331-.24221.54497.0606.1211 1.87713.30276 1.99823.36331.24221.12111.12111.42387.12111.60553-.0606-.12111-1.75602-.18166-1.87713-.12111-.18165.12111-.36331.42387-.24221.54497.30276.18166 2.17989.0606 2.48265-.1211h.54497c.42387.0606.42387.54497.72663.78718l.54497-.54497c.24221-.30276.36332-.66608.48442-1.02939v.48442.24221c.18166.18165.48442.36331.72663.18165.1211-.0606-.1211-.1211-.24221-.18165l-.24221-.48442v-.24221c.48442-.18166.72663-.72663.96884-1.21105-.12111-.0605-.42387-.12111-.48442-.30276.72663-.0606 1.2716-.18166 1.99823-.24221.18166 0 .78718-.24221.60552.1211-.1211.30276-.48442.36332-.60552.60553.30276 0 .90828-.18166.84773.24221-.30276 0-.90828-.18166-.84773.24221.78718 0 1.2716-.18166 2.05878-.12111.18166 0 .24221.36332.36331.54497.18166-.18165.60553-.18165.78719 0 .1211-.24221.2422-.60552.54497-.72663.1211-.0606.48442 0 .54497 0 0-.78718.0606-1.75602-.12111-2.30099.0606-.0605.24221-.18165.24221-.18165l1.21105-.72663-.1211.96884.1211-.12111c.72663-.18166 1.39271-.42387 2.36154-.36331l.54498-1.2716v1.45325c.30276-.0605.54497-.36331.72662-.66607.0606-.12111 0-.66608 0-.84774.24221-.24221.42387-.42386.72663-.60552v-6.358c0-.0606.54497-.36332.66608-.42387-.30276-.36331-.48442-.84773-.66608-1.2716.18166-.24221.42387-.42386.66608-.54497-.30276-.24221-.18166-.66608 0-.90828.18166-.24221-.72663-2.48265-.72663-2.48265 0-.24221-.0605-.96884 0-1.21105.0606-.12111.18166-2.05878-.0605-2.17989 0 0 .24221-.72663.0605-.90828.18166-.24221.18166-.96884.12111-1.08995-.12111-.42386.18165-1.02939-.18166-1.3927h2.17988v-3.6937c0-.1211-.30276-.48441-.30276-.60552.0605-.96884-.60552-1.81657-1.33215-2.05878-.0605-.54497.18166-1.08994.54497-1.33215.12111-.12111.90829.0606 1.08994-.0606.24221-.1211 1.08995-.36331 1.39271-.48441l.36331 2.48264c0 .30276-.0606 1.2716 0 1.57437l.72663 3.33038c.0605.24221-.0606 1.08994.0605 1.2716.18166.24221.60553.36331.84774.66607.24221.36332.36331.84774.78718 1.02939.1211.0606.66607.84774.90828.84774-.1211.0606-.18165.1211-.18165.1211s.0605.0605.0605.0605c.24221.36332-.48442.42387-.54497.48442-.18166.12111-.42387.42387-.42387.48442-.0605.18166-.0605.78718 0 .90829.36332.60552.90829 1.75602 1.51381 2.11933-.18166 0-.42387.0606-.60552.12111.30276.18165.60552.42386.96884.30276l1.33215-1.81657c.42386.18165-.60553 1.33215-.24221 1.69546-.12111.48442.36331.84774.18166 1.1505-.30277.48442-.48442.96884-.54498 1.57436 0 .12111-.60552.36332-.66607.36332.30276.96883.96884 1.63491 1.87712 1.93767 0 .24221-2.05878.96884-1.99823 1.02939l3.57259 1.63492s0 .48442.54498.90828c.96883.84774 2.11933 1.45326 3.14872 2.05878l-4.78364-1.81657c.42387.12111.72663.42387.90829.66608l2.90651 1.15049c.48442.30277.96884.60553 1.69547.66608.72663.30276 1.45326 1.2716 2.36154 1.45326l.24221.24221c-.1211.30276-.18166.66607-.0606 1.02939.0606.1211.42387.54497.60552.60552.0605.0606.42387.12111.48442.12111l.48442-.24221h.24221.24221c.0605.18165.30276.60552.36331.72663.0606.1211.18166.30276.36332.2422 0-.1211-.0605-.54497 0-.60552.0605-.0605.42387-.24221.48442-.24221 1.75602-.30276 6.11579-.1211 8.11402-.1211l1.3927-.36332 1.33215-1.21105c.66608-.36331 1.39271-.60552 2.17989-.78718.66608-.1211 1.2716-.24221 1.63492-.72663.0605-.0606.36331 0 .42386 0 .12111-.0606.48442-.42386.60553-.48441.0606-.0606.36331.0605.42386 0 .48442-.54498 1.21105-.84774 1.75602-1.39271.24221-.24221.72663-.42387.96884-.1211 0-.12111-.0606-.60553 0-.60553l1.02939-.60552c.0606-.0606.18166-.48442.24221-.60553l1.02939-1.02939c.12111-.1211.60552-.36331.78718-.42386v-.42387c.36332-.18166.72663-.54497 1.02939-.84773-.1211-.18166-.24221-.42387-.1211-.48442.42386-.24221.78718-.66608 1.08994-1.02939-.1211-.12111-.24221-.36332-.0605-.54497.24221-.36332.66607-.78719 1.08994-1.08995l-.48442-.24221.48442-.24221c-.18166-.0605-.18166-.30276-.0606-.42386.18166-.24221.48442-.60553.54497-1.02939 0-.0606.42387-.24221.54497-.30277-.24221-.0606-.36331-.24221-.48442-.36331.12111-.18166.30276-.30276.48442-.36331-.18166-.12111-.1211-.42387-.0605-.60553.18166-.60552.42387-1.21105.60552-1.87712 0-.0606.42387-.24221.48442-.30276-.1211-.0606-.48442-.24221-.48442-.30277v-2.48264c0-.0606.42387-.36332.48442-.42387-.0605-.0605-.24221-.24221-.24221-.30276-.0605-.18166 0-.66608 0-.84774h.72663c-.1211-.42386.30276-.84773-.0605-1.2716 0 0-.90829-.1211-.18166-.24221.18166.0606.72663.24221.90829.24221.1211 0 .42386.0606.42386-.1211-.54497-.18166-.78718-.54497-.90828-.96884zm-48.62357-15.1381c.0605.54498-.78718.24221-1.21105.24221-.0606-.54497.78718-.24221 1.21105-.24221zm-14.77478 41.29673c-.18166 0-.72663.24221-.48442-.24221h1.02939c-.1211.0606-.48442.30276-.54497.24221zm1.99823-1.21105-.48442-.24221c-.18166-.0606-.48442-.0606-.54497-.2422.48442 0 .90828-.18166 1.2716-.30277.1211.30277-.0606.54497-.24221.78718zm1.02939-8.11402c-.12111 0-.66608.0606-.84774 0-.18165-.0606-.42386-.2422-.42386-.48441.0606-.66608.18166-1.33216.24221-2.11934.42386.18166.66607.78718.72663 1.2716.24221.36332.36331.78718.30276 1.33215zm6.60021 3.87536c-.0606.0605-.42387.24221-.48442.30276.0605.0606.24221.24221.24221.30276.0605.12111 0 .48442 0 .60553-.24221-.0606-.42387-.30277-.48442-.48442-.0606-.0606 0-.48442 0-.60553-.12111 0-.48442.0606-.60552 0-.18166-.0606-.36332-.24221-.42387-.42386 0-.0606 0-.36332 0-.42387.1211-.18166.24221-.36332.42387-.42387.18165-.0605.72662-.0605.90828.0606.18166.0606.36332.18166.42387.36332.0605.18166.0605.60552 0 .72663zm41.8417-25.91642c-.0606.0606-.42387.24221-.48442.30276.18166.1211.18166.42386-.0606.54497.0606.54497.42386 1.02939.18165 1.51381v4.23867c.0606.0606.12111.0606 0 .0606v-.12111c-.18165-.0605-.54497-.18165-.60552-.1211.0605.0606.72663.72663.72663.72663.0605 1.51381-.30276 2.84596-.78718 3.87535-.24221 1.93768-.90829 3.6937-1.87713 4.9653l-1.63491 1.63491c-.66608.48442-1.45326.90829-2.30099 1.2716-.72663.30276-1.63492.42387-2.30099.72663-.84774.0606-1.51381.24221-2.4221.1211-.96884-.1211-1.87712-.30276-2.78541-.54497-.78718-.24221-1.3927-.66607-2.17988-1.02939-.24221-.30276-.60553-.60552-.96884-.78718 0 .18166.0605.54497 0 .66608-.30276.36331-.72663.60552-1.2716.66607v-1.81657c.30276 0 .96884.12111 1.08994-.24221h-.66608l-1.3927-2.60375c-.18166-.90829-.42387-1.69547-.66608-2.48265l-.36331-2.90651c0-.18166.18166-.72663.24221-.90829.1211-.36331.30276-.72663.48442-1.02939.1211.0605.30276.12111.36331.24221.0605-.1211.24221-.42387.24221-.48442.0605-.1211.0605-.30276-.1211-.36331l.54497-.12111c.1211 0 .48442.0605.54497.12111.18166.24221.24221-.0606.24221-.18166 0-.12111-.36331-.36331-.48442-.48442.0605 0 .18166-.1211.24221-.1211.24221-.12111.1211-.48442 0-.60553.1211-.18166.30276-.30276.48442-.36331-.12111-.18166-.30276-.30276-.48442-.36332l-.78718-.48442-.24221-.78718c-.0605-.0606-.30276-.24221-.42387-.24221-.24221-.0606-.42386.18166-.60552.24221-.18166-.24221-.36332-.54497-.24221-.84773.0605-.0605.36331-.30276.54497-.36331.18166 0 .30276.30276.48442.0606-.1211-.12111 0-.42387-.0605-.54497-.0606-.18166 0-.90829 0-1.08995h-1.02939c0-.24221-.0606-.90828 0-1.08994.0606-.0606.42386-.24221.48442-.30276-.18166-.12111-.18166-.42387.0606-.54497-.0606-.54497-.42387-1.02939-.54497-1.51381v-4.23867c0-.0606.42386-.24221.48442-.30276-.0606-.0605-.24221-.24221-.24221-.30276-.0606-1.51381-.18166-.36332.30276-1.39271.24221-1.93768.90828-3.9359 1.87712-5.26806l1.63492-1.63491c.66607-.48442 1.45325-.90829 2.30099-1.2716.72663-.30276 1.63491-.42387 2.30099-.72663.84773-.0606 1.51381-.24221 2.42209-.1211.96884.1211 1.87713.30276 2.78541.54497.78718.24221 1.39271.66607 2.17989 1.02939.24221.30276.1211-.84774.48442-.66608 0-.1211.36331.72663.42387.78718.0605-.0605.0605-.0605 0 0-.30277.24221-1.99823 1.81657-1.57437 1.69547l.48442 1.21105c.0605-.36332 1.39271-1.93768 1.2716-1.57437h.66608l1.3927 2.60376c.18166.90828.42387 1.57436.66608 2.36154l.84773.84773c0 .18166-.18165.72663-.24221.90829-.1211.36331-.30276.72663-.48442 1.02939-.1211-.0606-.30276-.1211-.36331-.24221-.0606.12111.24221.42387.24221.48442 0 .1211-.36331.24221-.36331.36331l.0605.0606s-.0605 0-.0605-.0606l-.96884-1.2716c-.12111 0-.48442-.0606-.54497-.1211-.18166-.24221-.24221.0606-.24221.18166 0 .1211.36331.36331.48442.48442-.0606 0-.18166.1211-.24221.1211-.24221.12111.36331 1.87712.48442 2.05878-.18166.18166-.30277.30276-.48442.36332.1211.18165.30276.30276.48442.36331l.78718.48442.24221.78718c.0605.0606.30276.24221.42386.24221.24221.0606.42387-.18166.60553-.24221.18165.24221.36331.54497.24221.84773-.0606.0606-.36332.30277-.54498.36332-.18165 0-1.21104-.30276-1.45325-.0605.1211.1211.48442.42386.54497.54497.0606.18165 0 .90828 0 1.08994h1.51381c0 .24221.0605.90829 0 1.1505z" stroke-width=".605524"/><path d="m84.591685 163.87391c.666077 0 1.211048-.36331 1.634915-.0606 0-.1211-.06055-.60552 0-.72663.06055-.1211.544971-.30276.666076-.36331-.242209-.12111-.242209-.54497 0-.60553.121105-.0605.544972-.24221.847734-.42386-1.089943-.18166-2.361543-.30276-3.088172-.54497-.06055 0-.302762.1211-.363314.18165.121104.18166.484419.78718.484419.96884.06055.48442-.181658 1.02939-.181658 1.57436z" stroke-width=".605524"/><path d="m79.020866 159.8169c.242209.12111.544971.24221.544971.48442v1.99823c0 .24221.544972.18166.787181.30276l.484419.30277.48442-.66608c.302761-.12111.605523-.0606.847733-.30276.06055.1211.24221.54497.363314.66607.121105.12111.787181.48442.968838.60553 0-.12111.06055-.54497 0-.60553-.06055-.1211-.423866-.42386-.484419-.54497-.06055-.1211 0-.60552 0-.78718h1.271601c-.181658-.36331-.302762-.72663-.666077-.96884v-.66607-1.2716c-.242209-.0606-.484419.0606-.666076.18165l.302762.30277-.666076-.18166h-.302762l-.666077-.18166c.24221-.18166.48442-.54497.302762-.72663-.363314-.24221-.847733 0-1.211047.24221-.363315 0-.908286-.1211-1.029391.12111l.726629.18165c-.121105.18166-.363315.78719-.484419 1.02939-.24221.24221-.605524.30277-.908286.48442z" stroke-width=".605524"/><path d="m252.68511 130.75176c.24221-.12111.12111-.48442.0606-.78718 0-.12111-.42387-.42387-.42387-.54497v-28.88349c0-.12111.60552-.24221.66608-.544975-.36332 0-.78719-.121105-1.0294.121105-.0606.0605-.30276.30276-.30276.36331v29.0046c0 .24221.42387.84773.48442 1.08994.12111.24221.30276.24221.54497.18166z" stroke-width=".605524"/><path d="m6.9635246 187.5499c.2422095.0605.9688382 0 1.2110477 0 .1211048.18165.302762.54497.6055239.54497.5449715 0 1.2110478.18166 1.9982288.0606.181657 0 .605524-.60552.726629-.60552h7.387391l3.8148-.30276 2.906515.30276c.24221 0 1.029391-.12111 1.332152-.18166.787182-.1211 2.179886 0 3.088172-.48442h-23.7365357c.2422096.30276.5449715.66608.6660763.66608z" stroke-width=".605524"/><path d="m204.72762 137.17031c0 .42387.18166 1.2716-.30276 1.39271v-1.08995h-.66608c0 .18166-.1211.78718 0 .84774.54498.42386 1.21105.72662 1.63492 1.33215.0606.1211 0 .84773 0 1.08994.18166 0 .72663.0606.84773 0 .24221-.0605.84774-.36331 1.08995-.48442-.12111-.0605-.66608-.30276-.66608-.36331v-1.63492c0-.30276.42387-.54497.66608-.78718-.18166-.18165-.30277-.60552 0-.78718.30276-.18166 1.2716-.54497 1.21104-.78718-.0606-.36331-.1211-.78718.18166-1.02939-.24221 0-.72663-.0605-.84773 0-.18166.1211-.66608.72663-.90829.78718-.66608.18166-1.21105.78718-1.45326 1.45326.0606.0606-.78718.0606-.78718.0606z" stroke-width=".605524"/><path d="m23.07046 169.7475v1.69546c0 .0606-.24221.30276-.302762.36332l.666076.18165v.66608c-.06055.1211-.181657.54497-.181657.66608 0 .0606.242209.24221.302762.30276l.181657-.66608c.06055-.0606.242209-.24221.363314-.30276.181657-.18166.423867-.18166.666077 0 .06055.48442-.181658 1.57436.302761 1.69547v-1.08995h.968839c.121104-.24221-.24221-.24221-.363315-.30276v-.96884l-1.332152-.30276c-.181657-.30276-.181657-.72663-.666076-.84773-.24221-.0605-.181658-.54497 0-.72663-.121105-.24221-.302762-.48442-.605524-.36331z" stroke-width=".605524"/><path d="m224.64936 165.81159c-.18166.84773-.36332 1.57436-.36332 2.60375h1.99823c.12111-.48442.24221-1.02939.60553-1.33215l-.96884-.96884c-.24221.18166-.36332.60553-.66608.72663v-1.02939z" stroke-width=".605524"/><path d="m200.24675 143.165c0 .42386-.18166 1.3927.24221 1.51381.48441-.66608 1.15049-.90829 1.75601-1.33216-.24221-.42386-.42386-.84773-.36331-1.51381 0-.1211.30276-.2422.30276-.48441-.36331 0-.72663-.12111-1.02939.1211-.0606.0606-.30276.30276-.30276.42387-.0606.1211 0 .42386 0 .54497-.0606.18166-.60552.60552-.60552.72663z" stroke-width=".605524"/><path d="m253.95671 182.82681c-.0605-.24221 0-1.15049 0-1.3927h-.96883l-.30277.66607v1.63492c.66608.0606 1.21105-.24221 1.63492-.48442-.12111-.12111-.36332-.30276-.36332-.42387z" stroke-width=".605524"/><path d="m79.323628 118.39907c.121105.12111.363314.36331.363314.42387.181657.66607.24221 1.33215.302762 2.05878h1.029391l-.363315-2.60375c-.363314 0-1.089943-.12111-1.332152.1211z" stroke-width=".605524"/><path d="m258.01372 183.00847c0-.54497-.30276-1.1505-.18165-1.87713h-1.2716v1.93768c.54497.12111 1.08994-.36331 1.45325-.0606z" stroke-width=".605524"/><path d="m76.477666 158.4242c.181657.0605.847733-.0606 1.02939 0 .24221.1211.302762.60552.605524.78718l.302762-.30276c-.121105-.18166-.363314-.78718-.484419-.96884-.181657-.30276-.605524-.18166-.787181 0l-.363315-.36331c.06055-.24221.302762-.42387.363315-.66608h-1.029391c0 .24221-.06055.90828 0 1.08994s.24221.42387.363315.42387z" stroke-width=".605524"/><path d="m136.36398 126.21033c-.12111-.0605-.54497-.0605-.66608 0-.1211.0606-.54497.30276-.60552.42387-.0606.0605-.0606.42386 0 .54497.0606.1211.48442.36331.66607.36331.12111.0606.54497.0606.60553 0 .24221-.18166.72663-.42387.54497-.78718-.12111-.1211-.42387-.48442-.54497-.54497z" stroke-width=".605524"/><path d="m303.36746 180.40472c-.1211.0606-.18166.18165-.18166.24221 0 .54497.36332 1.02939.30277 1.63491h.66607v-1.69547c.48442-.0605 1.63492.24221 1.75602-.36331-.96884.18166-1.51381-.0606-2.11933-.0606-.0606 0-.12111 0-.18166.0606-.0605.0606-.1211.18166-.18166.24221 0 0 0-.0606-.0605-.0606z" stroke-width=".605524"/><path d="m227.97974 173.25953c-.24221 0-.72663.0606-.84773 0-.12111-.0606-.30277-.54497-.36332-.60552-.42387.30276-.78718.72663-.96884 1.2716-.1211.36331.18166.66608.30277.96884.1211-.12111.54497-.48442.60552-.60553.1211-.24221-.18166-.42386-.18166-.66607.42387-.0606 1.33215.1211 1.45326-.36332z" stroke-width=".605524"/><path d="m251.95848 133.53717h.968838v1.937676h-.968838z" stroke-width=".605524"/><path d="m207.57358 124.091c.42387-.18166.60553-.66608 1.0294-.84774-.18166-.0606-.84774-.42387-1.0294-.48442-.18165-.0606-.66607 0-.84773 0v1.2716c.18166.0606.72663.12111.84773.0606z" stroke-width=".605524"/><path d="m202.18442 110.10339c-.1211-.66607-.48442-1.33215-1.08994-1.63491-.36332-.18166-.42387.66608-.60552.96884.18165.1211.60552.60552.78718.66607.18165.0606.72662 0 .90828 0z" stroke-width=".605524"/><path d="m202.91105 110.46671c-.1211-.0606-.60552 0-.72663 0 0 .18165-.0605.66607 0 .78718.24221.30276.72663.42387 1.08995.48442.36331.0606 1.21104.18166 1.2716-.24221h-.84774c-.24221-.42387-.36331-.90829-.78718-1.02939z" stroke-width=".605524"/><path d="m88.164284 162.84453h1.2716v1.332153h-1.2716z" stroke-width=".605524"/><path d="m180.38556 125.30204c.0606.54497-.18165 1.57436.24221 1.75602.30276.12111.54497-.60552.72663-.96884-.1211-.42386-.18166-1.08994-.42387-1.33215-.18165.12111-.54497.42387-.54497.54497z" stroke-width=".605524"/><path d="m76.780427 122.57719c.121105.42386.544972.66607.968839.60552v-1.63492h-.968839c0 .18166-.06055.84774 0 1.0294z" stroke-width=".605524"/><path d="m87.195435 148.85692h.968838v1.332153h-.968838z" stroke-width=".605524"/><path d="m84.288925 154.7305h1.332153v.968838h-1.332153z" stroke-width=".605524"/><path d="m198.24852 110.76947h.968838v1.332153h-.968838z" stroke-width=".605524"/><path d="m168.27509 158.66641h1.2716v.968838h-1.2716z" stroke-width=".605524"/><path d="m22.101621 173.25953v1.02939c.181658.0606.847734.18166 1.029391.36332.181657.1211.363314.42387.544972.1211-.302762-.18165-.06055-.60552.121104-.78718-.242209 0-.726628.0605-.847733 0-.302762-.18165-.544972-.60552-.847734-.72663z" stroke-width=".605524"/><path d="m256.68157 179.79919c-.0606-.0606-.24221-.30276-.36331-.30276-.12111-.0606-.60553 0-.78718 0v .96884c.18165 0 .60552.0606.72662 0 .24221-.12111.60553-.36332.42387-.66608z" stroke-width=".605524"/><path d="m217.44362 108.52903c-.1211-.18166-.30276-.42387-.60552-.30276v1.2716h.96884c.0606-.42387-.18166-.72663-.36332-.96884z" stroke-width=".605524"/><path d="m168.82006 150.18907c-.0606 0-.30277.24221-.36332.30277v.30276c.0606.0606.30276.30276.36332.36331.1211.0606.60552 0 .84773 0-.36331-.18165-.36331-.78718 0-.96884-.24221 0-.72663-.0605-.84773 0z" stroke-width=".605524"/><path d="m203.45602 106.59136c-.1211-.48442-.54497-.72663-.96884-.66608v.90828c.30277 0 1.08995.24221.96884-.2422z" stroke-width=".605524"/><path d="m204.1221 115.3109h.66607c.0606-.66608-.30276-1.33215-.66607-1.75602z" stroke-width=".605524"/><path d="m2.8459622 185.61222v-1.63491c-.2422095-.0606-.2422095.24221-.3027619.36331l-.302762.48442.302762.48442c.060552.0606.060552.42387.3027619.30276z" stroke-width=".605524"/><path d="m178.50844 128.0269c.0606.1211.18166.30276.24221.36331.1211.18166.42386.42387.60552.18166-.30276-.18166-.0605-.60552.0606-.72663-.30276-.1211-1.3927-.36331-.90828.18166z" stroke-width=".605524"/><path d="m181.29385 125.12039v.96883c.1211-.1211.54497-.36331.66607-.48442.0606-.0605 0-.36331 0-.48441z" stroke-width=".605524"/><path d="m200.54951 109.43732v-.96884h-.66608c0 .1211-.0606.42387 0 .48442.0606.1211.48442.42386.66608.48442z" stroke-width=".605524"/><path d="m370.64116 104.89589c.12111-.42387-.0606-.90829-.30276-1.2716-.0605.0605-.24221.24221-.30276.30276 0 .0606-.0605.30276 0 .30276.0605.18166.48442.54497.60552.66608z" stroke-width=".605524"/><path d="m34.030442 137.77583c.242209 0 .726628-.0606.847733 0 .06055 0 .302762.24221.363315.30277.121104-.18166.181657-.42387.181657-.60553-.363315 0-1.2716-.18165-1.392705.30276z" stroke-width=".605524"/><path d="m87.973595 234.1857h.484416v.484416h-.484416z" stroke-width=".60552" transform="matrix(.70870499 -.70550495 .70550495 .70870499 0 0)"/><path d="m-102.63004 138.81262h.484415v.484415h-.484415z" stroke-width=".605518" transform="matrix(.70680671 -.70740672 .70740672 .70680671 0 0)"/><path d="m170.21276 152.42951v1.02939c.24221.0606.36332-.18165.48442-.36331.24221-.36332-.24221-.60553-.48442-.66608z" stroke-width=".605524"/><path d="m244.44999 179.98085c-.12111-.0606-.60553-.96884-.60553-.18166 0 .0605.24221.24221.30277.30276z" stroke-width=".605524"/><path d="m362.34549 166.11435c0 .0606.24221.24221.30276.30276l.30276-.1211c-.0605-.0606-.60552-.90829-.60552-.18166z" stroke-width=".605524"/><path d="m253.29064 100.95998v1.02939h.30276c-.0606-.36331.24221-1.08994-.30276-1.02939z" stroke-width=".605524"/><path d="m237.1837 212.73969c-.18165.0606-.54497.60552-.72663.60552-.54497.12111-.90828.60553-1.15049 1.1505h-.66608c0 .30276.12111.96884-.24221 1.08994v-.84773h-.48442c0 .1211-.1211.60552 0 .66608.42387.30276.96884.54497 1.2716 1.02939.0606.1211 0 .66607 0 .84773.12111 0 .54497.0606.66608 0 .18166-.0605.66608-.30276.84773-.36331-.1211-.0606-.48442-.24221-.48442-.30277v-1.2716c0-.24221.30277-.42386.54498-.60552-.18166-.18166-.24221-.48442 0-.60552.24221-.12111.96883-.42387.96883-.60553-.0606-.30276-.1211-.60552.12111-.78718-.18166 0-.54497-.0606-.66608 0z" stroke-width=".605524"/><path d="m250.26302 236.83954c-.12111.66608-.30276 1.21105-.24221 2.05878h1.57436c.12111-.36331.18166-.78718.48442-1.02939l-.78718-.78718c-.24221.12111-.30276.48442-.48442.54497v-.78718z" stroke-width=".605524"/><path d="m231.24957 219.2188c0 .36331-.12111 1.08994.18166 1.21104.36331-.48442.90828-.72662 1.33215-1.02939-.18166-.30276-.36332-.66607-.24221-1.15049 0-.12111.24221-.18166.24221-.36332-.24221 0-.60553-.1211-.78718.12111-.0606.0606-.24221.24221-.24221.30276v.42387c-.0606.0606-.48442.36331-.48442.48442z" stroke-width=".605524"/><path d="m274.36287 248.40505h-.78718l-.24221.48442v1.2716c.54497.0606.90828-.18166 1.2716-.42387-.0605-.0606-.24221-.24221-.24221-.30276 0-.18166 0-.84774 0-1.02939z" stroke-width=".605524"/><path d="m276.42165 248.16284v1.51381c.42387.1211.84773-.24221 1.15049-.0606 0-.42386-.2422-.90828-.18165-1.45325h-.96884z" stroke-width=".605524"/><path d="m252.20069 242.65257c-.0606-.0606-.24221-.42387-.30276-.48442-.30276.24221-.60552.60552-.78718 1.02939-.1211.30276.18166.48442.24221.72663.12111-.1211.42387-.36331.48442-.48442.1211-.18166-.1211-.36331-.18166-.54497.36332 0 1.02939.1211 1.1505-.24221-.18166 0-.54497.0606-.60553 0z" stroke-width=".605524"/><path d="m236.94149 203.35407c-.1211-.0606-.54497 0-.66607 0v1.02939c.1211 0 .54497.0605.66607 0 .30276-.1211.48442-.48442.78718-.66608-.1211-.0605-.60552-.36331-.78718-.36331z" stroke-width=".605524"/><path d="m231.91564 192.15188c-.30276-.18166-.30276.48442-.48441.78718.1211.1211.48441.42387.60552.48442.1211.0605.48442 0 .66608 0 0-.48442-.30277-1.02939-.78719-1.2716z" stroke-width=".605524"/><path d="m233.61111 194.69508c.30276.0606.90829.18166.96884-.18166h-.66608c-.1211-.30276-.24221-.60552-.60552-.78718-.12111-.0605-.48442 0-.60552 0 0 .12111-.0606.54497 0 .60552.24221.18166.60552.30277.90828.36332z" stroke-width=".605524"/><path d="m215.74816 205.23119c0 .42387-.12111 1.2716.18165 1.33216.24221.0605.42387-.48442.54498-.72663-.12111-.30276-.12111-.84774-.36332-1.02939-.0606.1211-.36331.42386-.36331.42386z" stroke-width=".605524"/><path d="m229.6752 193.96844h.787181v1.029391h-.787181z" stroke-width=".605524"/><path d="m206.36253 231.20818h1.029391v.787181h-1.029391z" stroke-width=".605524"/><path d="m276.54275 247.13345c0-.0606-.18165-.24221-.24221-.24221-.1211-.0606-.48441 0-.60552 0v .78718c.12111 0 .48442.0606.54497 0 .18166-.12111.42387-.30276.30276-.54497z" stroke-width=".605524"/><path d="m244.63165 192.21243c-.12111-.18166-.24221-.36331-.48442-.24221v1.02939h.78718c.0605-.36331-.18166-.60552-.30276-.78718z" stroke-width=".605524"/><path d="m206.7864 224.66851c-.0605 0-.24221.18166-.30276.24221v.24221c.0605.0606.24221.24221.30276.24221.12111.0606.48442 0 .66608 0-.30276-.18166-.30276-.60552 0-.78718-.18166.0606-.54497 0-.66608.0606z" stroke-width=".605524"/><path d="m233.73222 190.69862c-.0606-.36331-.42387-.60552-.78718-.54497v.72663c.30276 0 .90828.18166.78718-.18166z" stroke-width=".605524"/><path d="m234.27719 196.14834v1.33215h.48442c.0606-.48442-.24221-1.02939-.48442-1.33215z" stroke-width=".605524"/><path d="m214.2949 207.35053c.0605.0606.1211.24221.18166.24221.1211.18165.30276.36331.48442.1211-.24221-.1211-.0606-.48442.0606-.60552-.24221.0606-1.08994-.12111-.72663.24221z" stroke-width=".605524"/><path d="m216.47479 205.11009v.78718c.1211-.0605.42386-.30276.54497-.36331.0606-.0606 0-.30277 0-.36332l-.54497-.0605z" stroke-width=".605524"/><path d="m230.94681 192.15188c0 .0606-.0606.30276 0 .36331.0606.12111.42386.30276.54497.36332v-.78718h-.54497z" stroke-width=".605524"/><path d="m44.78484 311.97955h.363311v.363311h-.363311z" stroke-width=".605518" transform="matrix(.70630633 -.70790633 .70790633 .70630633 0 0)"/><path d="m207.87635 226.42453v.78718c.18165 0 .30276-.18166.36331-.30276.18166-.24221-.18166-.48442-.36331-.48442z" stroke-width=".605524"/><path d="m266.55161 247.13345c0 .0605.18166.18165.24221.24221l.24221-.12111c-.12111-.0606-.54497-.72663-.48442-.1211z" stroke-width=".605524"/><path d="m273.57569 184.03786v2.6643h.72663c0-.84773.66607-2.78541-.72663-2.6643z" stroke-width=".605524"/><path d="m327.28565 245.01411c-.0605.36332.0606.72663.24221.96884.0606-.0605.18166-.18166.24221-.24221 0-.0605 0-.24221 0-.24221-.1211-.0605-.42386-.36331-.48442-.48442z" stroke-width=".605524"/><path d="m337.88232 192.69685c-.36331-.42387-1.02939-.90829-1.81657-.96884 0 .24221-.0605 1.02939 0 1.21105.0606.1211.54497.48442.54497.60552.0605.18166-.18165.84774-.18165 1.02939h1.15049l-.78718 1.81658h1.08994c0-.24221-.1211-1.02939 0-1.1505.36332-.54497-.1211-.90829-.30276-1.21105-.1211-.1211-.0606-.54497-.0606-.60552 0-.12111.84773-.0606.36331-.72663z" stroke-width=".605524"/><path d="m336.06575 197.48049c-.18166.0606-1.2716.1211-1.45326.24221-.24221.1211-.1211.60552-.0605.90828.0605.30277 1.21105 0 1.51381-.0606l.66608-.30276c-.12111-.30276-.48442-1.45326-.66608-.78718z" stroke-width=".605524"/><path d="m334.24918 241.74428c-.24221-.18165-.30276-.54497-.48442-.90828-.0606.18166-.30276.54497-.36331.72663v.36331c.1211.48442.48442 1.1505 1.21104.84773l-.30276-.30276 1.39271-.36331c-.18166-.0605-1.2716-.24221-1.45326-.36332z" stroke-width=".605524"/><path d="m336.73183 227.27226v.72663c.1211.0606.60552.18166.72663.18166.1211 0 .54497-.30276.72662-.36332-.1211-.0606-.60552-.2422-.78718-.36331-.1211-.24221-.36331-.54497-.66607-.18166z" stroke-width=".605524"/><path d="m336.55017 241.62318c-.18166.42387-.54497.84773-.54497 1.3927h1.51381c0-.72662-.60553-1.08994-.96884-1.3927z" stroke-width=".605524"/><path d="m336.36851 199.96314v1.15049h.30276c0-.36331.30277-1.21105-.30276-1.15049z" stroke-width=".605524"/><path d="m295.79841 208.86434c-.30276-.18166-.30276.48442-.48442.78718.12111.1211.48442.42387.60553.48442.1211.0606.48442 0 .66607 0-.0606-.48442-.36331-1.02939-.78718-1.2716z" stroke-width=".605524"/><path d="m297.19112 210.37815c-.12111-.0606-.48442 0-.60553 0 0 .1211-.0606.54497 0 .60552.18166.24221.54498.30276.84774.36332.30276.0606.90828.18165.96884-.18166h-.66608c-.1211-.30276-.24221-.66608-.54497-.78718z" stroke-width=".605524"/><path d="m293.55795 210.62036h.787181v1.029391h-.787181z" stroke-width=".605524"/><path d="m297.61499 207.35053c-.0606-.36332-.42387-.60553-.78719-.54497v.72663c.24221.0605.84774.2422.78719-.18166z" stroke-width=".605524"/><path d="m294.82958 208.86434c0 .0606-.0606.30276 0 .36331.0605.12111.42386.30276.54497.36332v-.78718h-.54497z" stroke-width=".605524"/><path d="m286.83667 211.34698h.787181v6.358001h-.787181z" stroke-width=".605524"/><path d="m382.08557 200.02369v1.45326c.18165 0 .78718.0606.96883 0 .42387-.18166.66608-.72663 1.1505-.90829-.18166-.1211-.90829-.48442-1.1505-.54497-.18165 0-.78718 0-.96883 0z" stroke-width=".605524"/><path d="m375.96977 184.28007c-.42386-.24221-.48441.72663-.66607 1.08994.18166.12111.66607.60553.90828.72663.18166.0606.72663 0 .90829 0-.1211-.72663-.54497-1.45326-1.1505-1.81657z" stroke-width=".605524"/><path d="m378.27077 187.85266c.42386.0606 1.33215.24221 1.3927-.30276h-.96884c-.18166-.36332-.36331-.90829-.84773-1.08995-.12111-.0605-.66608 0-.84773 0 0 .18166-.0606.72663 0 .84774.36331.36331.84773.42386 1.2716.54497z" stroke-width=".605524"/><path d="m372.7605 186.82327h1.089943v1.453257h-1.089943z" stroke-width=".605524"/><path d="m382.99385 202.44578v1.39271h1.08994c.12111-.42387-.24221-.72663-.42386-1.02939-.12111-.24221-.30276-.48442-.66608-.36332z" stroke-width=".605524"/><path d="m348.47899 244.46914v1.45326c.18166 0 .78718.0605.96884 0 .42387-.18166.66608-.72663 1.15049-.90829-.18165-.1211-.90828-.48442-1.15049-.54497-.24221-.0606-.78718 0-.96884 0z" stroke-width=".605524"/><path d="m349.38728 246.83068v1.39271h1.08994c.1211-.42387-.24221-.72663-.42387-1.02939-.1211-.18166-.36331-.48442-.66607-.36332z" stroke-width=".605524"/><path d="m378.51297 182.22129c-.1211-.48442-.60552-.84774-1.08994-.72663v1.02939c.36332-.0605 1.21105.24221 1.08994-.30276z" stroke-width=".605524"/><path d="m341.81823 193.36293v1.02939c.36331 0 1.21105.30276 1.08994-.30276-.1211-.48442-.66608-.84774-1.08994-.72663z" stroke-width=".605524"/><path d="m382.14612 216.97836v1.02939c.36331 0 1.21105.30276 1.08994-.30276-.0606-.48442-.60552-.78718-1.08994-.72663z" stroke-width=".605524"/><path d="m374.57707 184.34062c0 .12111-.0605.48442 0 .54497.1211.12111.54497.42387.72663.54497v-1.08994z" stroke-width=".605524"/></g></g></svg>