<svg height="340.82" viewBox="0 0 158.75 90.176026" width="600" xmlns="http://www.w3.org/2000/svg"><g fill="#5d266b"><path d="m96.894 44.59 8.7911-11.01c.30665-.40792.45998-.86174.45998-1.3565 0-.61419-.21245-1.1189-.63304-1.5133-.42285-.39255-.93767-.59018-1.5466-.59018-.67039 0-1.2093.26229-1.6167.78435l-12.255 15.354v-14.002c0-.58042-.20819-1.0826-.62654-1.5045-.41847-.4206-.91355-.63136-1.4896-.63136-.57404 0-1.0735.21079-1.4897.63136-.41623.42196-.62429.92412-.62429 1.5045v31.143c0 .58043.20806 1.0835.62429 1.505.41623.4206.91568.63305 1.4897.63305.57606 0 1.0711-.21238 1.4896-.63305.41836-.4206.62654-.9223.62654-1.505v-10.29l3.8774-4.8557 8.7714 16.147c.40535.75797 1.0471 1.137 1.9212 1.137.5783 0 1.0734-.21461 1.4809-.6353.40535-.42283.61117-.92667.61117-1.5094 0-.3505-.081-.68563-.24529-1.0077l-9.617-17.795"/><path d="m110.8774 30.12c-.57617 0-1.0735.21079-1.4896.63136-.41623.42196-.6244.92412-.6244 1.5045v31.143c0 .58043.20819 1.0835.6244 1.505.41612.4206.91345.63305 1.4896.63305.57606 0 1.0734-.21238 1.4902-.63305.41612-.42152.62586-.92456.62586-1.505v-31.143c0-.58042-.20974-1.0826-.62586-1.5045-.41679-.4206-.91412-.63136-1.4902-.63136"/><path d="m133.014 48.42c-1.2248-1.0779-3.1158-2.1556-5.672-3.233-2.3285-.98847-3.8382-1.732-4.5369-2.2262-1.6555-1.1655-2.4844-2.5188-2.4844-4.0619 0-2.999 1.7699-4.4991 5.3187-4.4991 3.2269 0 5.1336 1.2026 5.7158 3.608.26134 1.0252.93094 1.5374 2.0043 1.5374.17611 0 .36452-.0254.56754-.0859 1.1059-.20221 1.6589-.85824 1.6589-1.9637 0-.92971-.42285-2.0053-1.2641-3.2277-1.9213-2.7615-4.8151-4.1426-8.6824-4.1426-2.7614 0-5.0293.77157-6.8037 2.3117-1.8899 1.6277-2.8343 3.7933-2.8343 6.4996 0 2.6152 1.0184 4.7972 3.053 6.5413 1.337 1.134 3.5185 2.3572 6.5413 3.6629 2.2701.99016 3.8404 1.8905 4.713 2.7054 1.1317 1.0756 1.6992 2.471 1.6992 4.1863 0 1.6277-.68306 2.9224-2.0503 3.8818-1.1912.8448-2.6459 1.2641-4.362 1.2641-3.634 0-5.6541-1.3648-6.0612-4.0987-.0875-.61117-.37013-1.0822-.85018-1.416-.47893-.33647-1.0252-.46133-1.6364-.3737-.57987.089-1.0532.36585-1.4144.83019-.36901.46582-.50473.98803-.41612 1.5707.37574 2.5004 1.5837 4.4632 3.6183 5.8876 1.8596 1.3087 4.1141 1.9638 6.76 1.9638 2.9947 0 5.4836-.83024 7.4599-2.4908 2.1221-1.7459 3.1854-4.0908 3.1854-7.032 0-3.2028-1.0779-5.7352-3.2269-7.5994"/><path d="m155.516 48.42c-1.2226-1.0779-3.1102-2.1556-5.6686-3.233-2.3296-.98847-3.8382-1.732-4.5369-2.2262-1.6566-1.1655-2.4844-2.5188-2.4844-4.0619 0-2.999 1.7699-4.4991 5.3209-4.4991 3.2246 0 5.1303 1.2026 5.7135 3.608.26023 1.0252.9287 1.5374 2.0043 1.5374.17496 0 .3634-.0254.56754-.0859 1.1059-.20221 1.6555-.85824 1.6555-1.9637 0-.92971-.42061-2.0053-1.2618-3.2277-1.9191-2.7615-4.8151-4.1426-8.6791-4.1426-2.7648 0-5.0316.77157-6.806 2.3117-1.891 1.6277-2.8332 3.7933-2.8332 6.4996 0 2.6152 1.0162 4.7972 3.0519 6.5413 1.3358 1.134 3.5208 2.3572 6.5413 3.6629 2.269.99016 3.8404 1.8905 4.7119 2.7054 1.1328 1.0756 1.7004 2.471 1.7004 4.1863 0 1.6277-.68419 2.9224-2.0481 3.8818-1.1945.8448-2.6493 1.2641-4.3642 1.2641-3.634 0-5.6541-1.3648-6.0612-4.0987-.0863-.61117-.37013-1.0822-.85019-1.416-.48005-.33647-1.0252-.46133-1.6342-.3737-.58324.089-1.0566.36585-1.42.83019-.3634.46582-.49912.98803-.41388 1.5707.37911 2.5004 1.5837 4.4632 3.6195 5.8876 1.8596 1.3087 4.1141 1.9638 6.76 1.9638 2.997 0 5.4836-.83024 7.4587-2.4908 2.1232-1.7459 3.1854-4.0908 3.1854-7.032 0-3.2028-1.0779-5.7352-3.2291-7.5994"/><path d="m100.156 5.26-70.721-5.2668-29.44 72.725 95.845 17.451-37.281-49.74 41.596-35.17"/></g></svg>