<svg version="1.1" viewBox="0 0 405.04 271.57" xmlns="http://www.w3.org/2000/svg">
 <link href="" rel="stylesheet" type="text/css"/>
 <style type="text/css"/>
 <path d="M275.91,242a14.06,14.06,0,0,1,5.19-5.62,13.68,13.68,0,0,1,7.33-2.08A12.57,12.57,0,0,1,294.8,236a13.69,13.69,0,0,1,4.78,4.64,15.16,15.16,0,0,1,.79,14.4,13.69,13.69,0,0,1-5.06,5.69,13.43,13.43,0,0,1-7.27,2.07A12.71,12.71,0,0,1,281.6,261a14.47,14.47,0,0,1-7.15-11.31,13.89,13.89,0,0,1,1.46-7.76m-9.28-4.22a22.11,22.11,0,0,0-2.47,12.68,22.76,22.76,0,0,0,3.73,10.83,22.43,22.43,0,0,0,8.42,7.57,24.43,24.43,0,0,0,11.55,2.75,25.51,25.51,0,0,0,12.93-3.32,22.55,22.55,0,0,0,8.85-9.11,22.87,22.87,0,0,0-9.74-31,24.48,24.48,0,0,0-11.48-2.71,25.59,25.59,0,0,0-12.93,3.29,22.37,22.37,0,0,0-8.86,9m-19-11.59-5,44.72h10.16l5-44.72Zm-45.06,36.22,3.13-27.73h8a12.13,12.13,0,0,1,8.62,3.23,12.7,12.7,0,0,1,3.9,8.47,15.56,15.56,0,0,1-1.36,8.2,13.42,13.42,0,0,1-5.09,5.75,13.79,13.79,0,0,1-7.48,2.08Zm-6.11-36.22-5,44.72h19.68a28,28,0,0,0,13.3-3.13,22.46,22.46,0,0,0,9.11-8.72,23.48,23.48,0,0,0,3-12.68,21,21,0,0,0-3-10.51,19.49,19.49,0,0,0-7.78-7.13,24.41,24.41,0,0,0-11.34-2.55ZM152.55,251.7l.73-7a11.71,11.71,0,0,1,3.52-7.57,10.7,10.7,0,0,1,7.58-2.78,9.15,9.15,0,0,1,6.18,2,7.89,7.89,0,0,1,2.66,5.59,13.78,13.78,0,0,1-.07,2.75l-.74,7Zm-9.36-7-2.77,26.13h10.1l1.14-11.06h19.93l-1.14,11.06h10.09l2.7-26.13a22.92,22.92,0,0,0,0-4.54,14.88,14.88,0,0,0-5.38-10.73q-4.78-3.9-12.77-3.9a23.87,23.87,0,0,0-10.81,2.37,19.61,19.61,0,0,0-7.65,6.67,21.46,21.46,0,0,0-3.49,10.13m-37.84,4.92L107,234.52h9.39A9.33,9.33,0,0,1,122,236a5.71,5.71,0,0,1,2.3,4.37q.39,4.41-2.18,6.84c-1.71,1.62-4.22,2.43-7.55,2.43Zm-7.49-23.51-5,44.72H103l1.44-12.78h10.22l5.65,12.78h11.44L124,256.3a16,16,0,0,0,8-6.8A18,18,0,0,0,134,238.67a12.31,12.31,0,0,0-4.87-9.26q-4.34-3.27-11.88-3.26ZM389.17,23.94,17.72,1.35l-.49,0L0,0,3.35,30.77,19.71,185.26s1.88,17.55,19.59,17.55H387.57L405,42.84s1.84-17.55-15.82-18.9" fill="#003c82"/>
 <g fill="#fff">
  <path d="M344.58,93.89a10,10,0,0,0,9.95,10,10.07,10.07,0,0,0,10-10c.68-11-11.15-18-21.68-18-16.05,0-34.26,10.9-35.68,34.22-.8,13.27,5,27.5,26.53,27.5,17.78,0,25.47-10.34,26.34-21.6-4.19,2.71-12,6.74-20.44,5.93-6.25-.58-9.7-6.22-9.21-14.47.63-10.26,5.18-17.63,11.24-17.63,2.72,0,3.36,1,3.17,2.21A13.83,13.83,0,0,0,344.58,93.89Z"/>
  <path d="m296.48 68.42a12.79 12.79 0 1 0-12.79-12.79 12.79 12.79 0 0 0 12.79 12.79z"/>
  <path d="m287 137.6c5.89 0 9.25-1.27 13.4-2.87-1.63-3.47-1.44-9.41-1-13.43 1.67-14.07 3.77-27.62 5.07-35.46 0.86-5.33-2.1-14-22-7.85-3.9 21.53-6.65 43.45-7 50.28 0.01 2.73 1.08 9.33 11.53 9.33z"/>
  <path d="m320 145.77c-14 0-30.94-1.84-54.2-2.85 0.1-0.6 0.19-1.19 0.27-1.78 3.93-30.1 6.5-48.84 8.23-59.62-4.46-2.62-14.87-5.52-25.13-5.52-27.36 0-39.23 18.51-39.23 35.81s9.25 25.86 19.3 25.86c7.46 0 12-3.42 15.29-8.13-0.54 5-1 9.51-1.3 12.79h-6.4c-20.68 0-33.47 9.08-33.89 20.58-0.53 15 16.61 19 25.45 19 20 0 29.69-11.92 34.4-26 24.61 2.76 46.58 9 69.28 9 17.27 0 23.82-8.83 25.16-15.48a22.27 22.27 0 0 0-0.25-8.62c-4.84 2.74-9.22 4.96-36.98 4.96zm-91.12 25.54c-3.18 0-7.85-2.68-7-7.93 1.2-8 11.72-8.78 19.4-8.78h0.63c-2.47 13.93-7.08 16.71-13.06 16.71zm17-53.1c-1.91 1.82-3.85 2.94-5.72 2.94-4 0-6.67-5.33-6.42-12 0.48-14.31 8.69-20.73 16.26-18.15-1.41 6.1-2.91 16.75-4.17 27.21z"/>
  <path d="m203.71 118.4c2.23-16.73 4-29.81 5.18-36.88-4.42-2.62-14.84-5.52-25.1-5.52-27.36 0-39.23 18.52-39.23 35.81s9.27 25.86 19.31 25.86c8 0 12.66-3.93 16-9.17 0.87 5.42 4.79 9.24 13.2 9.24 2.37 0 8.52-1.15 11.14-2.82-2.11-5.34-1.27-10.81-0.5-16.52zm-23.18-0.29c-1.92 1.89-3.9 3-5.8 3-4 0-6.66-5.34-6.42-12 0.53-14.38 8.78-20.79 16.39-18.22-1.3 6.11-2.7 16.53-4.17 27.22z"/>
  <path d="M142.74,61.32c-5.18-2-24.24-6.37-30.87,4.59-3.78,6.28-11,21.42-16.86,37.68-3.46-15.31-5.53-34.51-6.25-42.27-5.19-2.68-26-7.86-31.67,7.19-3.67,9.75-12,42.05-14.56,58.71-.63,4.22-.22,10.46,12.55,10.5a29.08,29.08,0,0,0,12.64-2.65c-1.5-5.41.3-13.29,1.39-19.78a217.67,217.67,0,0,1,5.43-24.22,284.7,284.7,0,0,0,4.72,33.63c1.11,5,4.15,10,21.74,6.77,5.91-17.18,13.24-32.68,18-42.7-3.31,13.7-5.06,30.4-5,36.07,0,4.86-.37,12.8,14.15,12.8,3.88,0,8.78-.71,11.93-2.57-1.87-4.44-1.56-10.95-1.2-17.19C140.22,93.19,142,70.84,142.74,61.32Z"/>
 </g>
</svg>
