<?xml version="1.0" encoding="UTF-8" standalone="no"?>
<svg
   xmlns:dc="http://purl.org/dc/elements/1.1/"
   xmlns:cc="http://creativecommons.org/ns#"
   xmlns:rdf="http://www.w3.org/1999/02/22-rdf-syntax-ns#"
   xmlns:svg="http://www.w3.org/2000/svg"
   xmlns="http://www.w3.org/2000/svg"
   xmlns:sodipodi="http://sodipodi.sourceforge.net/DTD/sodipodi-0.dtd"
   xmlns:inkscape="http://www.inkscape.org/namespaces/inkscape"
   viewBox="0 0 641.56128 203.18"
   version="1.1"
   id="svg32"
   sodipodi:docname="Magic Radio - Dark.svg"
   width="641.56128"
   height="203.17999"
   inkscape:version="0.92.1 r15371">
  <metadata
     id="metadata36">
    <rdf:RDF>
      <cc:Work
         rdf:about="">
        <dc:format>image/svg+xml</dc:format>
        <dc:type
           rdf:resource="http://purl.org/dc/dcmitype/StillImage" />
        <dc:title>Web Header Logo</dc:title>
      </cc:Work>
    </rdf:RDF>
  </metadata>
  <sodipodi:namedview
     pagecolor="#ffffff"
     bordercolor="#666666"
     borderopacity="1"
     objecttolerance="10"
     gridtolerance="10"
     guidetolerance="10"
     inkscape:pageopacity="0"
     inkscape:pageshadow="2"
     inkscape:window-width="1920"
     inkscape:window-height="1017"
     id="namedview34"
     showgrid="false"
     fit-margin-top="0"
     fit-margin-left="0"
     fit-margin-right="0"
     fit-margin-bottom="0"
     inkscape:zoom="0.88534198"
     inkscape:cx="352.67928"
     inkscape:cy="84.480726"
     inkscape:window-x="-8"
     inkscape:window-y="-8"
     inkscape:window-maximized="1"
     inkscape:current-layer="svg32" />
  <defs
     id="defs4">
    <style
       id="style2">.a{fill:#fff;}.b{fill:#003c82;}</style>
  </defs>
  <title
     id="title6">Web Header Logo</title>
  <path
     class="a"
     d="M 389.89,24 17.76,1.36 h -0.5 L 0,0 3.36,30.83 19.74,185.6 c 0,0 1.88,17.58 19.63,17.58 H 388.28 L 405.73,42.92 c 0,0 1.85,-17.58 -15.84,-18.92 z"
     id="path8"
     inkscape:connector-curvature="0"
     style="fill:#003c82;fill-opacity:1" />
  <path
     class="b"
     d="m 345.22,94.06 a 10,10 0 0 0 10,10 c 5.51,0 9.71,-4.41 10,-10 0.67,-11 -11.17,-18 -21.72,-18 -16.09,0 -34.33,10.92 -35.75,34.29 -0.8,13.29 5,27.54 26.57,27.54 17.81,0 25.52,-10.35 26.39,-21.63 -4.2,2.71 -12,6.75 -20.48,5.94 -6.26,-0.59 -9.72,-6.23 -9.22,-14.5 0.57,-10.3 5.13,-17.7 11.2,-17.7 2.72,0 3.36,1 3.17,2.22 a 14.56,14.56 0 0 0 -0.16,1.84 z"
     id="path10"
     inkscape:connector-curvature="0"
     style="fill:#ffffff;fill-opacity:1" />
  <circle
     class="b"
     cx="297.01999"
     cy="55.740002"
     r="12.81"
     id="circle12"
     style="fill:#ffffff;fill-opacity:1" />
  <path
     class="b"
     d="m 287.56,137.85 c 5.9,0 9.27,-1.27 13.43,-2.88 -1.63,-3.47 -1.44,-9.42 -1,-13.45 1.67,-14.1 3.78,-27.67 5.08,-35.53 C 306,80.66 303,72 283,78.13 c -3.91,21.57 -6.66,43.53 -7,50.37 0,2.72 1.07,9.35 11.56,9.35 z"
     id="path14"
     inkscape:connector-curvature="0"
     style="fill:#ffffff;fill-opacity:1" />
  <path
     class="b"
     d="m 320.56,146 c -14.06,0 -31,-1.84 -54.29,-2.86 q 0.15,-0.91 0.26,-1.79 c 3.94,-30.16 6.51,-48.93 8.24,-59.73 -4.44,-2.62 -14.87,-5.54 -25.15,-5.54 -27.41,0 -39.3,18.55 -39.3,35.87 0,17.32 9.27,25.91 19.34,25.91 7.47,0 12,-3.43 15.31,-8.14 -0.54,5 -1,9.52 -1.3,12.81 q -3.15,0 -6.42,0 c -20.71,0 -33.53,9.1 -34,20.62 -0.53,15 16.64,19.06 25.5,19.06 20,0 29.74,-11.94 34.46,-26.07 24.66,2.76 46.67,9 69.41,9 17.31,0 23.86,-8.85 25.21,-15.51 a 22.48,22.48 0 0 0 -0.25,-8.64 c -4.8,2.82 -9.17,5.01 -37.02,5.01 z m -91.28,25.58 c -3.19,0 -7.87,-2.69 -7.06,-7.95 1.21,-8 11.74,-8.8 19.44,-8.8 h 0.62 c -2.4,14.02 -7.02,16.8 -13,16.8 z m 17,-53.2 c -1.91,1.83 -3.86,3 -5.73,3 -4,0 -6.68,-5.35 -6.44,-12 0.54,-14.38 8.76,-20.81 16.38,-18.26 -1.49,6.16 -2.95,16.88 -4.2,27.31 z"
     id="path16"
     inkscape:connector-curvature="0"
     style="fill:#ffffff;fill-opacity:1" />
  <path
     class="b"
     d="m 204.08,118.62 c 2.24,-16.76 4,-29.87 5.19,-36.95 -4.43,-2.62 -14.87,-5.54 -25.14,-5.54 -27.41,0 -39.3,18.55 -39.3,35.87 0,17.32 9.28,25.9 19.35,25.9 8,0 12.68,-3.94 16,-9.19 0.82,5.45 4.82,9.29 13.22,9.29 2.38,0 8.54,-1.15 11.16,-2.82 -2.09,-5.36 -1.25,-10.83 -0.48,-16.56 z m -23.22,-0.29 c -1.92,1.9 -3.9,3.05 -5.81,3.05 -4,0 -6.67,-5.35 -6.43,-12 0.53,-14.4 8.79,-20.83 16.42,-18.25 -1.3,6 -2.72,16.49 -4.18,27.2 z"
     id="path18"
     inkscape:connector-curvature="0"
     style="fill:#ffffff;fill-opacity:1" />
  <path
     class="b"
     d="m 143,61.44 c -5.19,-2 -24.28,-6.39 -30.93,4.59 -3.79,6.29 -11,21.46 -16.89,37.75 -3.47,-15.34 -5.54,-34.57 -6.26,-42.34 -5.2,-2.69 -26.07,-7.88 -31.73,7.2 -3.68,9.77 -12,42.12 -14.58,58.82 -0.63,4.23 -0.23,10.47 12.57,10.52 a 29.19,29.19 0 0 0 12.66,-2.66 c -1.5,-5.42 0.3,-13.32 1.39,-19.82 a 217.25,217.25 0 0 1 5.44,-24.27 283.58,283.58 0 0 0 4.73,33.69 c 1.11,5.05 4.15,10 21.78,6.78 5.92,-17.21 13.27,-32.74 18,-42.78 -3.32,13.73 -5.07,30.46 -5.06,36.14 0,4.87 -0.37,12.83 14.17,12.83 3.89,0 8.8,-0.71 12,-2.57 -1.87,-4.45 -1.56,-11 -1.2,-17.22 1.39,-24.74 3.19,-47.1 3.91,-56.66 z"
     id="path20"
     inkscape:connector-curvature="0"
     style="fill:#ffffff;fill-opacity:1" />
  <path
     class="a"
     d="m 458.51,96.75 q -4.34,-3.26 -11.88,-3.26 h -19.42 l -5,44.72 h 10.16 l 1.44,-12.78 H 444 l 5.65,12.78 h 11.43 l -7.79,-14.56 a 16,16 0 0 0 8,-6.8 18,18 0 0 0 2.09,-10.85 12.33,12.33 0 0 0 -4.87,-9.25 z m -7,17.82 Q 448.95,117 444,117 h -9.3 l 1.68,-15.14 h 9.39 a 9.35,9.35 0 0 1 5.63,1.5 5.76,5.76 0 0 1 2.3,4.38 q 0.38,4.4 -2.19,6.83 z"
     id="path22"
     inkscape:connector-curvature="0"
     style="fill:#003c82;fill-opacity:1" />
  <path
     class="a"
     d="m 555.07,96 a 24.4,24.4 0 0 0 -11.34,-2.55 h -17.95 l -5,44.72 h 19.68 a 27.88,27.88 0 0 0 13.3,-3.13 22.35,22.35 0 0 0 9.11,-8.72 23.36,23.36 0 0 0 3,-12.68 21,21 0 0 0 -3,-10.51 19.43,19.43 0 0 0 -7.8,-7.13 z m -0.9,25.84 a 13.44,13.44 0 0 1 -5.09,5.75 13.87,13.87 0 0 1 -7.48,2.08 h -9.71 L 535,102 h 8 a 12.13,12.13 0 0 1 8.62,3.23 12.66,12.66 0 0 1 3.9,8.46 15.58,15.58 0 0 1 -1.35,8.19 z"
     id="path24"
     inkscape:connector-curvature="0"
     style="fill:#003c82;fill-opacity:1" />
  <path
     class="a"
     d="m 641.46,113.8 a 22.54,22.54 0 0 0 -12.21,-18.3 24.5,24.5 0 0 0 -11.48,-2.72 25.7,25.7 0 0 0 -12.94,3.29 22.44,22.44 0 0 0 -8.86,9 22.11,22.11 0 0 0 -2.47,12.68 22.85,22.85 0 0 0 3.73,10.83 22.49,22.49 0 0 0 8.42,7.57 24.42,24.42 0 0 0 11.55,2.75 25.48,25.48 0 0 0 12.93,-3.32 22.43,22.43 0 0 0 11.32,-21.78 z m -11.74,8.53 a 13.64,13.64 0 0 1 -5.06,5.69 13.38,13.38 0 0 1 -7.26,2.08 12.68,12.68 0 0 1 -6.44,-1.73 14.44,14.44 0 0 1 -7.15,-11.31 14.07,14.07 0 0 1 6.65,-13.38 13.68,13.68 0 0 1 7.32,-2.08 12.53,12.53 0 0 1 6.38,1.69 13.71,13.71 0 0 1 4.78,4.63 15.18,15.18 0 0 1 0.78,14.41 z"
     id="path26"
     inkscape:connector-curvature="0"
     style="fill:#003c82;fill-opacity:1" />
  <polygon
     class="a"
     points="571.92,138.21 582.08,138.21 587.11,93.49 576.95,93.49 "
     id="polygon28"
     style="fill:#003c82;fill-opacity:1" />
  <path
     class="a"
     d="m 507.26,96.81 q -4.78,-3.9 -12.77,-3.9 a 23.92,23.92 0 0 0 -10.81,2.36 19.63,19.63 0 0 0 -7.68,6.73 21.59,21.59 0 0 0 -3.49,10.12 l -2.76,26.13 h 10.09 l 1.16,-11.1 h 19.93 l -1.14,11.05 h 10.09 l 2.7,-26.13 a 22.71,22.71 0 0 0 0.05,-4.53 14.87,14.87 0 0 0 -5.37,-10.73 z m -4.76,15.27 -0.73,7 H 481.9 l 0.73,-7 a 11.74,11.74 0 0 1 3.52,-7.57 10.69,10.69 0 0 1 7.58,-2.78 9.17,9.17 0 0 1 6.18,2 7.94,7.94 0 0 1 2.66,5.59 14.12,14.12 0 0 1 -0.08,2.76 z"
     id="path30"
     inkscape:connector-curvature="0"
     style="fill:#003c82;fill-opacity:1" />
</svg>
