<svg width="405" height="155" version="1.1" viewBox="0 0 107.16 41.01" xmlns="http://www.w3.org/2000/svg">
 <g transform="translate(-39.955 -81.056)" fill="#f69324">
  <g transform="matrix(.22107 0 0 .26458 32.452 88.976)">
   <g transform="skewX(-18.433)" aria-label="P">
    <path d="m83.45 122.07h-8.8235l-16.324-129.53 1.9412-17.471 6.9706 17.471 1.4118 10.765q16.588-11.824 35.647-11.824 13.059 0 21.706 6.1765t8.647 15.529q0 3.3529-0.97058 8.3824l-2.2059 11.382q23.206 18.088 57.618 18.088 21.529 0 37.765-10.941-18.353 25.147-42.529 38.206-24.176 12.971-52.588 12.971-12.618 0-20.471-3.5294-7.9412-3.5294-7.1471-8.8235l4.4118-31.765q-17.206 0-32.647 13.853zm-8.8235-70.676q16.5-13.059 33.882-13.059 10.324 0 16.588 5.0294l3.2647-16.059q1.1471-5.7353 1.1471-9.2647 0-7.6765-7.4118-12.618-7.4118-4.9412-18.971-4.9412-13.765 0-33.441 11.647zm35.824 14.647q1.7647-0.97059 2.7353-1.4118 9.7941-4.9412 9.7941-9.5294 0-5.4706-10.147-7.5zm19.324-23.735-3.7059 17.294q-0.88235 4.0588-10.765 8.9118-1.2353 0.61765-3.7059 1.9412-1.3235 1.5-1.3235 3 0 4.4118 4.9412 6.6176 5.0294 2.2059 14.912 2.2059 39 0 66.706-22.676-6.6176 0.44118-9.4412 0.44118-34.853 0-57.618-17.735z" fill="#f69324" stroke-width=".85679"/>
   </g>
   <g stroke-width=".79898" aria-label="PANJAB">
    <path d="m69.383 28.257v-8.0299h2.6018q1.4789 0 1.928 0.1205 0.69015 0.18076 1.1557 0.78875 0.46558 0.60252 0.46558 1.5611 0 0.73945-0.26839 1.2434-0.26839 0.50392-0.68468 0.79422-0.41081 0.28482-0.83804 0.37794-0.5806 0.11503-1.6816 0.11503h-1.0571v3.029zm1.6213-6.6715v2.2786h0.88734q0.95855 0 1.2817-0.12598 0.32317-0.12598 0.50392-0.39437 0.18623-0.26839 0.18623-0.62442 0-0.43819-0.25744-0.72302t-0.65181-0.35603q-0.2903-0.05477-1.1667-0.05477z"/>
    <path d="m83.285 28.257h-1.7637l-0.70111-1.824h-3.2098l-0.66277 1.824h-1.7199l3.1276-8.0299h1.7144zm-2.9852-3.1769-1.1064-2.9797-1.0845 2.9797z"/>
    <path d="m84.189 28.257v-8.0299h1.5775l3.2864 5.3624v-5.3624h1.5063v8.0299h-1.6268l-3.2371-5.2364v5.2364z"/>
    <path d="m95.177 20.227h1.6158v5.083q0 0.99689-0.17528 1.5337-0.23553 0.70111-0.85448 1.1283-0.61895 0.42176-1.6323 0.42176-1.1886 0-1.8295-0.66277-0.64086-0.66824-0.64633-1.9554l1.5282-0.17528q0.02739 0.69015 0.20266 0.97498 0.26292 0.43272 0.7997 0.43272 0.54226 0 0.76684-0.30674 0.22457-0.31221 0.22457-1.2872z"/>
    <path d="m105.76 28.257h-1.7637l-0.70111-1.824h-3.2098l-0.66276 1.824h-1.7199l3.1276-8.0299h1.7144zm-2.9852-3.1769-1.1064-2.9797-1.0845 2.9797z"/>
    <path d="m106.66 20.227h3.2098q0.95307 0 1.4186 0.08216 0.47106 0.07668 0.83804 0.32864 0.37247 0.25196 0.61895 0.67372 0.24648 0.41628 0.24648 0.93664 0 0.56417-0.30673 1.0352-0.30126 0.47106-0.82161 0.70658 0.73397 0.21362 1.1283 0.7285 0.39438 0.51488 0.39438 1.2105 0 0.54774-0.25744 1.0681-0.25196 0.51488-0.69563 0.82709-0.43819 0.30674-1.0845 0.37794-0.40533 0.04382-1.9554 0.05477h-2.7332zm1.6213 1.3365v1.8568h1.0626q0.94759 0 1.1776-0.02739 0.41629-0.0493 0.65182-0.28482 0.241-0.24101 0.241-0.6299 0-0.37246-0.20814-0.60251-0.20266-0.23553-0.60799-0.28482-0.24101-0.02739-1.3858-0.02739zm0 3.1933v2.1471h1.5008q0.87639 0 1.1119-0.0493 0.36151-0.06573 0.58608-0.31769 0.23005-0.25744 0.23005-0.68468 0-0.36151-0.17528-0.61347-0.17527-0.25196-0.50939-0.36699-0.32865-0.11503-1.4351-0.11503z"/>
   </g>
   <g stroke-width=".84688" aria-label="RADIO">
    <path d="m111.23 70.508v-8.5112h3.617q1.3644 0 1.9798 0.23223 0.62121 0.22642 0.99278 0.8128t0.37157 1.3411q0 0.95795-0.56316 1.585-0.56315 0.62121-1.6837 0.78378 0.55735 0.32512 0.9173 0.71411 0.36577 0.38898 0.98118 1.3818l1.0392 1.6604h-2.0552l-1.2424-1.852q-0.66185-0.99278-0.90569-1.2482-0.24385-0.26126-0.51672-0.35415-0.27287-0.0987-0.86505-0.0987h-0.34835v3.5531zm1.7185-4.9117h1.2715q1.2366 0 1.5443-0.1045t0.48188-0.35996q0.17417-0.25545 0.17417-0.63863 0-0.42962-0.23223-0.69088-0.22643-0.26706-0.64444-0.33673-0.20901-0.02903-1.254-0.02903h-1.3411z"/>
    <path d="m127.49 70.508h-1.8694l-0.74313-1.9333h-3.4022l-0.70249 1.9333h-1.823l3.3151-8.5112h1.8172zm-3.1641-3.3673-1.1728-3.1583-1.1495 3.1583z"/>
    <path d="m128.43 61.997h3.1409q1.0624 0 1.6198 0.16256 0.74894 0.22062 1.2831 0.78378t0.81281 1.3818q0.27867 0.8128 0.27867 2.0088 0 1.0508-0.26126 1.8114-0.31931 0.92892-0.9115 1.5037-0.44704 0.43543-1.2076 0.67927-0.56897 0.17998-1.5211 0.17998h-3.2338zm1.7185 1.4398v5.6374h1.2831q0.71992 0 1.0392-0.08128 0.41801-0.1045 0.69088-0.35415 0.27868-0.24965 0.45285-0.81861 0.17417-0.57477 0.17417-1.5617t-0.17417-1.5153q-0.17417-0.52832-0.48768-0.82442t-0.79539-0.4006q-0.35995-0.08128-1.4108-0.08128z"/>
    <path d="m136.98 70.508v-8.5112h1.7185v8.5112z"/>
    <path d="m139.98 66.305q0-1.3005 0.38898-2.183 0.29029-0.65024 0.78958-1.167 0.5051-0.51671 1.1031-0.76636 0.79538-0.33673 1.8346-0.33673 1.8811 0 3.0074 1.167 1.1321 1.167 1.1321 3.2454 0 2.061-1.1205 3.228-1.1205 1.1611-2.9958 1.1611-1.8985 0-3.019-1.1553-1.1205-1.1611-1.1205-3.1932zm1.7708-0.05806q0 1.4456 0.66766 2.1946 0.66766 0.74314 1.6953 0.74314 1.0276 0 1.6837-0.73733 0.66186-0.74314 0.66186-2.2236 0-1.463-0.64444-2.183-0.63863-0.71991-1.7011-0.71991t-1.7127 0.73152q-0.65024 0.72572-0.65024 2.1946z"/>
   </g>
  </g>
  <g transform="matrix(1.5079 0 0 1.2849 -625.98 184.91)">
   <g transform="matrix(.35278 0 0 -.35278 475.69 -75.218)">
    <path d="m0 0c-0.18-0.799-0.492-1.491-1.209-1.78-0.669-0.269-0.867-0.06-0.769 0.74 0.327 2.62 0.654 5.239 0.943 7.863 0.056 0.516 0.258 0.577 0.599 0.53 0.667-0.093 1.026-0.533 1.064-1.328" fill="#f69324" fill-rule="evenodd"/>
   </g>
   <g transform="matrix(.35278 0 0 -.35278 510.77 -76.899)">
    <path d="m0 0c-3e-3 -0.775-0.185-1.489-0.522-2.15-0.179-0.346-0.397-0.646-0.693-0.855-0.202-0.142-0.465-0.324-0.658-0.192-0.204 0.139-0.047 0.467-0.014 0.711 0.175 1.414 0.369 2.828 0.528 4.248 0.043 0.383 0.158 0.41 0.424 0.295 0.617-0.272 0.946-0.979 0.935-2.057" fill="#f69324" fill-rule="evenodd"/>
   </g>
   <g transform="matrix(.35278 0 0 -.35278 470.05 -67.19)">
    <path transform="matrix(.75 0 0 -.75 -185.82 -69.297)" d="m253.62-143.92c-0.60533-0.0227-1.0538 0.22346-1.2578 0.93946-0.21467 0.752-0.56762 1.5487 0.12305 2.1914 0.72666 0.67734 0.76986 1.5048 0.64453 2.4941-0.42134 3.344-0.7924 6.6931-1.1777 10.037-0.56533 4.9027-1.1268 9.8038-1.6894 14.705-0.60933 5.2973-1.2067 10.597-1.832 15.891-0.19636 1.659-0.31253 3.3355-0.61099 4.9763-0.0353 0.28615-0.055 0.47248-0.055 0.73363 0 0.78989 0.37008 1.5083 0.66936 2.0817 0.32039 0.55884 0.79504 0.89298 1.4029 0.96229 3.392 0.368 6.7908 0.15467 10.189 0.13867 0.41733-0.0013 0.84984-0.17456 0.95117-0.72656 0.17467-0.94533 0.45924-1.9437-0.38476-2.709-0.18667-0.16533-0.24606-0.42446-0.27539-0.70312-0.076-0.66133-0.10418-1.3236-0.0762-1.9902 0.16934-3.9907 0.5774-7.9481 1.1641-11.883 0.12666-0.84134 0.44149-1.1705 1.1602-1.1465 1.6427 0.0507 3.2857 0.0393 4.9297 0.0566 1.276 0.012 2.4287-0.46243 3.498-1.2598 2.284-1.7027 3.6898-4.2385 4.7324-7.0918 2.0093-5.4933 2.6942-11.28 2.5195-17.227-0.064-2.24-0.38044-4.4376-1.1484-6.5176-0.91066-2.4653-2.7019-3.8756-4.9766-3.877-6.168-3e-3 -12.333 0.13982-18.5-0.0762zm11.355 11.596c0.0904-0.01 0.19102-4e-3 0.30469 0.0117 0.888 0.124 1.3686 0.71281 1.418 1.7715l-0.83789 8.0332c-0.23867 1.0653-0.654 1.9877-1.6113 2.373-0.892 0.35867-1.1574 0.0803-1.0254-0.98633 0.436-3.4933 0.86981-6.9857 1.2578-10.484 0.056-0.516 0.22308-0.69006 0.49414-0.71875z" fill="#f69324" fill-rule="evenodd"/>
   </g>
   <g transform="matrix(.35278 0 0 -.35278 487.9 -72.015)">
    <path d="m0 0c-0.533-4.037-1.033-7.921-1.572-11.798-0.113-0.802 8e-3 -1.474 0.455-2.047 0.478-0.617 0.482-1.259 0.223-1.983-0.137-0.38-0.34-0.58-0.684-0.58-1.84 0-3.681-3e-3 -5.522 9e-3 -0.302 3e-3 -0.604 0.073-0.88 0.241-0.499 0.304-0.798 0.723-0.801 1.452-0.012 2.205 0.234 4.381 0.468 6.559 0.581 5.402 1.314 10.778 1.995 16.163 0.459 3.63 0.923 7.259 1.265 10.907 0.059 0.655 0.071 1.318 0.14 1.97 0.068 0.657-0.14 1.155-0.524 1.6-0.357 0.412-0.397 1.707-0.085 2.156 0.139 0.204 0.329 0.263 0.54 0.263 2.565-0.011 5.133 7e-3 7.699-0.047 1.115-0.024 1.508-0.486 1.79-1.771 0.91-4.167 1.821-8.332 2.731-12.499 0.03-0.128 4e-3 -0.288 0.174-0.365 0.304 1.66 0.425 3.342 0.619 5.009 0.203 1.738 0.381 3.481 0.567 5.222 0.086 0.791-0.035 1.466-0.58 2.051-0.516 0.554-0.264 1.318-0.122 1.972 0.113 0.516 0.563 0.414 0.909 0.407 1.94-0.047 3.883 0.077 5.822-0.075 0.656-0.05 1.029-0.456 1.216-1.136 0.185-0.69 0.242-1.407 0.182-2.132-0.239-2.921-0.664-5.809-1.027-8.711-0.552-4.399-1.114-8.795-1.674-13.193-0.522-4.102-1.049-8.203-1.566-12.309-0.124-0.984-0.19-1.977-0.342-2.961-0.075-0.494-0.27-0.646-0.658-0.706-1.112-0.17-2.225-0.108-3.339-0.103-0.792 2e-3 -1.585 0.029-2.377 0.082-1.022 0.068-1.659 0.76-2.062 1.833-0.376 0.995-0.468 2.075-0.681 3.118-0.735 3.602-1.438 7.214-2.154 10.823-0.03 0.151-0.075 0.299-0.145 0.579" fill="#f69324" fill-rule="evenodd"/>
   </g>
   <g transform="matrix(.35278 0 0 -.35278 508.98 -80.804)">
    <path transform="matrix(.75 0 0 -.75 -296.16 -107.89)" d="m385.84-143.88c-0.24683-2e-3 -0.49175 0.0198-0.73242 0.11914-0.13867 0.056-0.3042 0.024-0.4082 0.22265-0.448 0.856-0.38621 2.2886 0.20312 3.0566 0.53733 0.7 0.7622 1.4841 0.6582 2.4121-0.13733 1.1867-0.26882 2.3746-0.41015 3.5586-0.65067 5.4213-1.3024 10.844-1.957 16.268-0.65334 5.42-1.303 10.844-1.959 16.266-0.35866 2.948-0.74265 5.8905-1.084 8.8398-0.332 2.82 0.71834 4.4372 2.9023 4.3945 2.0693-0.04 4.1403 0.02682 6.2109 0.02148 3.5987-0.0093 7.2041 0.06685 10.803-0.14648 2.0653-0.12267 3.46-1.2969 4.3066-3.4609 0.25467-0.64667 0.46506-1.3259 0.65039-2.0059 1.0387-3.8947 1.5604-7.912 2.0098-11.945 0.352-3.1653 0.71835-6.3411 0.67969-9.5371-0.0213-2.0053-0.6643-3.8121-2.043-5.0801-0.44533-0.40533-0.37364-0.63992-0.043-0.91992 1.1173-0.96267 1.6269-2.3839 2.0723-3.8359 1.4213-4.6573 1.4879-9.4216 0.75585-14.24-0.11866-0.76401-0.42083-1.3847-0.82617-1.9727-1.0293-1.4947-2.4381-1.9579-3.9688-1.9766-2.9213-0.04-5.8487-0.0117-8.7754-0.0117-2.7667-1e-3 -5.5334-3e-3 -8.3027 2e-3 -0.24667 0-0.49536-0.0252-0.74219-0.0273zm11.111 12.193c0.0651 0.0102 0.1418 0.0378 0.23047 0.0762 0.82266 0.36266 1.2608 1.3048 1.2461 2.7422-4e-3 1.0333-0.24598 1.9839-0.69531 2.8652-0.23867 0.46133-0.52916 0.86196-0.92383 1.1406-0.26933 0.19068-0.61962 0.43186-0.87695 0.25586-0.27067-0.18533-0.0635-0.61997-0.0195-0.94531 0.23333-1.8867 0.49307-3.7727 0.70507-5.666 0.043-0.383 0.13855-0.49938 0.33399-0.46875zm-1.6289 17.854c1.1108-0.10788 1.6404 0.78998 1.5938 3.0078-0.20533 1.964-0.52034 4.3253-1.0137 6.6387-0.296 1.4053-1.2054 2.1097-2.4414 2.1777-0.572 0.0293-0.35026-0.42874-0.32226-0.69141 0.22533-2.1053 0.47013-4.2085 0.7168-6.3125 0.15333-1.34 0.33489-2.6775 0.46289-4.0215 0.04-0.40933 0.14818-0.58741 0.49218-0.69141 0.1825-0.0555 0.35303-0.092 0.51172-0.10742z" fill="#f69324" fill-rule="evenodd"/>
   </g>
   <g transform="matrix(.35278 0 0 -.35278 481.67 -80.818)">
    <path transform="matrix(.75 0 0 -.75 -218.77 -107.93)" d="m291.69-143.9c-1.6467 0.0587-3.4724-0.0598-5.291 0.18555-0.184 0.0267-0.39587-0.0526-0.5332 0.2207-0.39067 0.76134-0.3538 1.9304 0.1582 2.5957 0.31067 0.40133 0.36253 0.78468 0.25586 1.3047-0.45466 2.1947-1.0212 4.3492-1.5879 6.5039-3.36 12.781-6.9613 25.472-10.529 38.172-0.32667 1.1627-0.44946 2.3318-0.32813 3.5371 0.15333 1.4707 0.8409 2.3622 1.9902 2.4902 2.3573 0.26133 4.7233 0.17538 7.0859 0.13672 0.44134-0.0067 0.88958-0.17738 1.0176-0.74805 0.16-0.70933 0.43718-1.6283-0.0215-2.127-0.74667-0.81067-0.63482-1.6678-0.52149-2.6211 0.23467-1.9587 0.98955-3.7497 1.3242-5.6777 0.088-0.51867 0.42627-0.61852 0.82227-0.61719 1.1693 1e-3 2.3471 0.0605 3.5098-0.0488 0.588-0.056 0.7381 0.18929 0.7461 0.75196 0.0133 1.0653 0.0178 2.1326 0.01 3.1953-0.0133 1.8613-0.0815 3.7221 0.33984 5.5527 0.32267 1.4213 0.82384 2.048 2.0625 2.2227 3.1213 0.43333 6.2536 0.01858 9.3789 0.14258 0.52 0.02 0.86753-0.37309 1.0195-0.98242 0.176-0.708 0.34416-1.4757-0.20117-2.0117-0.66133-0.65333-0.88486-1.4911-1.0195-2.4258-0.31733-2.1827-0.41467-4.389-0.5-6.5957-0.292-7.4493-0.37626-14.905-0.43359-22.361-0.0387-4.7933-0.0824-9.5875-0.15039-14.381-0.02-1.5453-0.13231-3.0914-0.68165-4.5274-0.396-1.048-1.0341-1.6377-2.0781-1.707-1.8893-0.124-3.7798-0.13035-5.8438-0.17969zm-2.1582 24.66c0.20266 0.24667 0.14257 0.4999 0.14257 0.72656 8e-3 1.9413-9e-3 3.8829 0.0137 5.8242 9e-3 0.61067-0.14546 0.84118-0.68946 0.83984-1.4773-4e-3 -1.4883 0.0198-1.0723-1.6562 0.42533-1.7053 0.87169-3.4009 1.3184-5.0996 0.0547-0.21333 0.0538-0.47609 0.28711-0.63476z" fill="#f69324" fill-rule="evenodd"/>
   </g>
   <g transform="matrix(.35278 0 0 -.35278 502.09 -80.814)">
    <path transform="matrix(.75 0 0 -.75 -276.64 -107.91)" d="m368.85-143.89c-1.5933 0.0453-3.6252-0.0835-5.6426 0.17383-0.168 0.0213-0.35476-0.04-0.49609 0.16797-0.34133 0.51866-0.38571 2.0098 0.0156 2.4805 0.45466 0.528 0.46635 1.0669 0.31836 1.7402-0.48667 2.212-1.0497 4.3948-1.623 6.5762-3.356 12.752-6.958 25.411-10.502 38.09-0.332 1.1827-0.44285 2.3846-0.21485 3.6152 0.22667 1.24 0.82565 2.0062 1.8203 2.1289 2.4227 0.3 4.8564 0.20301 7.2871 0.15234 0.51734-0.01333 0.95476-0.33504 0.9961-0.98438 0.052-0.83067 0.3461-1.7642-0.47657-2.3789-0.18133-0.13867-0.18393-0.41101-0.19726-0.65234-0.0253-0.56 7e-3 -1.1146 0.0898-1.668 0.25867-1.7907 0.931-3.4403 1.2363-5.2109 0.12-0.68933 0.42757-0.90653 0.99023-0.89453 1.1467 0.02 2.2981 0.0631 3.4395-0.0449 0.55733-0.0547 0.70123 0.21369 0.72656 0.70703 0.0373 0.71733 0.018 1.4389 0.0273 2.1562 0.0333 2.176-0.17456 4.3602 0.27344 6.5176 0.308 1.492 0.81967 2.1638 2.125 2.3438 3.1187 0.428 6.251 0.02934 9.375 0.13867 0.524 0.01867 0.85457-0.39991 1.0039-1.0039 0.176-0.71067 0.33263-1.4547-0.22071-2-0.59866-0.59067-0.8307-1.3446-0.9707-2.1992-0.19066-1.1533-0.29013-2.3171-0.35547-3.4824-0.39866-6.8573-0.47574-13.726-0.5664-20.594-0.092-6.8947-0.0456-13.791-0.26563-20.686-0.036-1.2267-0.2256-2.433-0.71094-3.541-0.4-0.91733-1.0071-1.4119-1.9258-1.4746-1.708-0.11733-3.4166-0.15116-5.5566-0.17383zm-2.5039 24.666c0.24 0.152 0.15296 0.42196 0.15429 0.64062 7e-3 1.9693-0.0137 3.9402 0.0156 5.9082 8e-3 0.64-0.18517 0.82422-0.70117 0.82422-1.456-1e-3 -1.4703 0.0164-1.0703-1.5996 0.432-1.7587 0.89771-3.5039 1.3457-5.2558 0.052-0.19467 0.0505-0.42692 0.25586-0.51758z" fill="#f69324" fill-rule="evenodd"/>
   </g>
   <g transform="matrix(.35278 0 0 -.35278 496.43 -80.802)">
    <path d="m0 0c1.004 0 2.473 0.021 3.942-5e-3 1.173-0.022 1.827-0.832 1.817-2.229-0.014-2.182-0.3-4.334-0.555-6.486-0.78-6.617-1.754-13.197-2.699-19.781-0.468-3.264-0.861-6.546-1.469-9.772-0.227-1.208-0.996-2.264-2.109-2.691-0.741-0.286-1.521-0.355-2.301-0.356-2.094-2e-3 -4.185-2e-3 -6.279 0-1.188 2e-3 -1.826 0.671-2.021 2.079-0.229 1.649 0.031 3.263 0.24 4.878 0.159 1.221 0.399 2.426 0.511 3.659 0.024 0.254 0.074 0.511 0.141 0.756 0.108 0.394 0.265 0.752 0.689 0.734 0.41-0.016 0.643-0.299 0.758-0.743 0.035-0.134 0.074-0.267 0.092-0.404 0.08-0.6 0.388-0.811 0.885-0.828 1.589-0.056 1.738 0.043 2.054 1.895 0.381 2.23 0.547 4.5 0.809 6.751 0.439 3.754 0.848 7.512 1.268 11.27 0.035 0.297 0.06 0.595 0.101 0.89 0.104 0.775-0.211 1.229-0.896 1.282-1.169 0.091-1.54 0.541-1.462 1.913 0.112 2.008 0.184 4.027 0.588 5.997 0.048 0.23 0.127 0.451 0.191 0.678 0.116 0.425 0.362 0.579 0.734 0.546 1.503-0.134 3.005-0.068 4.971-0.033" fill="#f69324" fill-rule="evenodd"/>
   </g>
  </g>
  <g transform="matrix(1.8359 0 0 1.3789 -864.87 213.2)">
   <g transform="matrix(.35278 0 0 -.35278 521.45 -77.083)">
    <path d="m0 0c-0.06-1.258-0.2-2.5-0.568-3.688-0.283-0.9-1.064-1.263-1.802-0.885-0.173 0.086-0.162 0.214-0.141 0.377 0.239 1.811 0.486 3.619 0.714 5.432 0.059 0.479 0.357 0.468 0.632 0.487 0.425 0.029 0.873 0.071 1.061-0.538 0.118-0.381 0.104-0.786 0.104-1.185" fill="#f69324" fill-rule="evenodd"/>
   </g>
   <g transform="matrix(.35278 0 0 -.35278 545.07 -66.128)">
    <path transform="matrix(.75 0 0 -.75 -398.47 -66.285)" d="m538.07-144.81c-1.0867 0-1.9647 0.14484-2.924 0.27906-1.0415 0.17955-2.0593 0.50474-3.0623 0.89087-0.97867 0.37866-1.8644 0.9747-2.4844 1.9707-1.0253 1.6587-1.8757 3.4495-2.3477 5.4375-0.88933 3.7373-1.4549 7.5621-2.0176 11.385-0.96133 6.5547-1.7921 13.133-2.2188 19.768-0.224 3.5147-0.61832 7.049 0.29102 10.541 0.50666 1.9347 1.3685 3.4946 2.8418 4.5586 1.3813 0.99515 2.8723 1.4959 4.4561 1.5859 1.0168 0.07027 2.0158 0.15234 2.87 0.15234h5.4023c1.1139 0 2.156-0.04795 3.1302-0.0791 0.76593-0.03506 1.3885-0.4685 1.9596-1.0713 0.98934-1.0467 1.7127-2.3269 2.3047-3.7109 1.6613-3.8587 2.5685-8.0072 3.3418-12.199 0.86133-4.6613 1.4572-9.3734 1.9238-14.109 0.29916-3.031 0.57058-6.0622 0.70064-9.1053 0.0715-2.0893 0.15091-3.9719 0.15091-5.7462v-2.877c-0.132-2.6093-1.2862-4.4469-3.1289-5.7402-1.3875-0.97284-2.8365-1.7012-4.4145-1.856-1.0092-0.14624-2.0088-0.0737-2.9937-0.0737zm1.082 13.5c0.0532-4e-3 0.11054 8.4e-4 0.17187 0.0137 0.436 0.0893 0.55787 0.56025 0.64454 1.0176 0.22933 1.2107 0.18017 2.4436 0.0762 3.6543l-2.1191 19.373c-0.17067 1.2573-0.39335 2.5084-0.77735 3.707-0.1 0.32-0.21661 0.64078-0.36328 0.93945-0.18133 0.37067-0.40217 0.74403-0.82617 0.69336-0.47333-0.056-0.60483-0.52813-0.6875-0.9668-0.15867-0.864-0.17728-1.743-0.11328-2.623 0.324-4.8533 1.0072-9.6544 1.5059-14.482 0.31067-3.0053 0.60572-6.0184 1.2617-8.957 0.12133-0.54 0.2608-1.0745 0.49414-1.5625 0.175-0.3675 0.36014-0.77856 0.73242-0.80664z" fill="#f69324" fill-rule="evenodd"/>
   </g>
   <g transform="matrix(.35278 0 0 -.35278 519.22 -71.228)">
    <path transform="matrix(.75 0 0 -.75 -325.21 -80.743)" d="m465.3-143.91c-1.9338-0.013-3.8674 0.0486-5.8027 0.19922-0.14933 9e-3 -0.31155-0.0287-0.43555 0.14062-0.304 0.42134-0.43598 1.9962-0.084 2.3535 0.66667 0.67733 0.53656 1.4347 0.33789 2.248-0.11867 0.484-0.22499 0.97365-0.34766 1.459-2.7973 11.205-5.9674 22.273-9.0527 33.373-0.26933 0.96933-0.54565 1.9356-0.82031 2.9062-0.13867-0.916-0.58233-1.1366-1.2637-1.0606-0.84666 0.096-1.2028-0.65754-1.4375-1.4082-0.96266-3.0947-1.6852-6.2762-2.3945-9.4629-0.06-0.27867-0.0509-0.4124 0.20508-0.53907 1.8493-0.92133 3.0978-2.612 4.0644-4.6094 2.364-4.868 3.1252-10.15 2.7559-15.688-0.15333-2.264-0.656-4.436-1.5-6.5-0.69466-1.688-1.8005-2.6489-3.3125-3.0742-1.22-0.34133-2.456-0.33055-3.6934-0.31055-5.4453 0.0827-10.892 0.10924-16.34 4e-3 -0.336-8e-3 -0.67634 2e-3 -1.0137 0.041-0.336 0.0387-0.51929 0.25249-0.64063 0.67382-0.33866 1.1813-0.28433 2.222 0.48633 3.166 0.45734 0.55733 0.62806 1.2599 0.52539 2.0586-0.43466 3.3653-0.85405 6.7336-1.2754 10.102-0.74266 5.9427-1.4831 11.889-2.2324 17.832-0.56 4.4707-1.1511 8.9388-1.7031 13.412-0.21334 1.736-0.39466 3.4867-0.22266 5.248 0.152 1.5707 0.69835 2.2598 2.041 2.4824 1.7214 0.28533 3.4588 0.07495 5.1895 0.12695 1.62 0.048 3.2447 0.0809 4.8594-0.14844 0.264-0.04133 0.56442-0.02255 0.73243-0.31055 0.35466-0.60533 0.27082-2.5258-0.20118-3.0352-0.68133-0.73867-0.77683-1.6245-0.6875-2.6191 0.38134-4.3 1.2487-8.5152 1.582-12.812 0.13467-0.0347 0.20722 0.0747 0.19922 0.16406-0.084 1.0173 0.32543 1.9054 0.4961 2.8574 0.48 2.6467 0.87596 5.3202 1.3906 7.9629 0.40267 2.0627 0.64383 4.1789 1.4238 6.1309 0.42 1.056 1.0726 1.5804 2.0312 1.6777 1.8 0.18 3.6024 0.1748 5.3984 0.10547 0.92-0.036 1.8656-0.11288 2.5176-1.0742 0.18666-0.276 0.3156-0.18869 0.46093 0.05664 0.37867 0.656 0.95217 0.84296 1.5762 0.9043 2.292 0.228 4.5901 0.145 6.8848 0.125 0.43733-0.0027 0.89326-0.11116 1.0586-0.67383 0.212-0.73467 0.4432-1.7184 6e-3 -2.2051-0.79733-0.88-0.60632-1.8071-0.48632-2.7871 0.22133-1.8 0.91989-3.4442 1.2266-5.2148 0.11866-0.67333 0.39603-0.93449 0.9707-0.92382 1.148 0.0253 2.3015 0.0717 3.4375-0.043 0.6-0.06 0.73676 0.21834 0.74609 0.76367 0.0187 1.0893 0.0138 2.1828 0.01 3.2734-3e-3 1.808-0.0813 3.6177 0.30273 5.4004 0.31601 1.4667 0.83028 2.1111 2.0996 2.2871 3.12 0.432 6.2522 0.02391 9.3789 0.14258 0.48667 0.01733 0.83628-0.33211 0.98828-0.91211 0.18934-0.70133 0.40862-1.4863-0.13672-2.0156-0.792-0.77333-0.98714-1.8068-1.1191-2.8828-0.132-1.0507-0.22649-2.1125-0.28515-3.1738-0.4-7.2573-0.47931-14.526-0.55664-21.795-0.06-5.9373-0.10174-11.878-0.17774-17.814-0.0187-1.572-0.11092-3.1466-0.65625-4.6133-0.328-0.88533-0.80179-1.6579-1.7031-1.7246-1.9333-0.14666-3.867-0.23309-5.8008-0.24609zm-27.639 12.031c0.41882 6e-3 0.80224 0.12537 0.99024 0.73438 0.15733 0.50799 0.13867 1.0481 0.13867 1.5801-0.08 1.6773-0.26715 3.334-0.75781 4.918-0.37734 1.2-1.4177 1.6843-2.4004 1.1816-0.232-0.116-0.21746-0.28657-0.18946-0.5039 0.32-2.4147 0.64851-4.8249 0.95117-7.2422 0.0787-0.63867 0.47841-0.62373 0.84376-0.65039 0.14166-0.01 0.28422-0.0196 0.42382-0.0176zm24.971 12.623c0.296 0.17333 0.20569 0.44673 0.20703 0.66406 7e-3 1.9947-7e-3 3.991 0.0117 5.9883 7e-3 0.556-0.157 0.738-0.625 0.75-1.5427 0.0387-1.5562 0.052-1.1309-1.668 0.42933-1.732 0.88784-3.4551 1.3398-5.1777 0.0493-0.192 0.13193-0.36998 0.19727-0.55664z" fill="#f69324" fill-rule="evenodd"/>
   </g>
   <g transform="matrix(.35278 0 0 -.35278 534.25 -80.804)">
    <path transform="matrix(.75 0 0 -.75 -367.82 -107.89)" d="m490.43-143.85c-2.0893 0-4.6796-2e-3 -7.2676 2e-3 -0.63067 0-1.2595-0.0329-1.8809 0.12305-0.15067 0.0373-0.31645 9e-3 -0.42578 0.1914-0.29867 0.504-0.28364 2.3334 0.0684 2.748 0.81199 0.95333 0.99988 2.0818 0.81054 3.3711-0.90133 6.0747-1.5173 12.203-2.2773 18.305-0.864 6.944-1.6616 13.898-2.5176 20.844-0.25867 2.1-0.72258 4.1537-0.64258 6.3164 0.0893 2.392 1.1415 3.1414 2.8828 3.1934 1.168 0.03467 2.3358 0.03144 3.5078 0.02344 4.2747-0.02133 8.5515 0.12043 12.826-0.12891 2.852-0.16267 4.8159-1.8159 5.9492-4.8652 0.908-2.4387 1.4946-5.0073 2.0293-7.5859 1.7133-8.28 2.8488-16.674 3.3301-25.182 0.19734-3.5053 0.26677-7.0197-0.22656-10.512-0.61467-4.3373-2.4166-6.3942-6.0859-6.7129-3.188-0.27334-6.3881-0.0229-10.08-0.13086zm3.5215 13.082c0.40933 0.0773 0.60681 0.43265 0.74414 0.83398 0.12 0.35067 0.17101 0.7189 0.15234 1.1016-0.28533 2.5827-0.55023 5.1693-0.85156 7.752-0.60267 5.16-1.2011 10.323-1.9824 15.451-0.0973 0.628-0.18283 1.2582-0.29883 1.8809-0.1 0.544-0.34782 0.98904-0.78516 1.2344-0.80133 0.44533-1.555-0.11631-1.4844-1.1816 0.096-1.4587 0.26417-2.9088 0.4375-4.3555 0.60933-5.1347 1.2252-10.269 1.8652-15.398 0.22534-1.8133 0.51921-3.6139 0.78321-5.4219 0.0693-0.47866 0.21774-0.92174 0.45508-1.3164 0.23199-0.388 0.52884-0.66141 0.96484-0.58008z" fill="#f69324" fill-rule="evenodd"/>
   </g>
   <g transform="matrix(.35278 0 0 -.35278 541.17 -80.8)">
    <path d="m0 0c1.148 0 2.296 0.024 3.444-6e-3 1.231-0.032 1.801-0.794 1.843-2.252 0.075-2.456-0.361-4.845-0.645-7.249-0.596-4.996-1.248-9.981-1.883-14.97-0.488-3.825-0.988-7.648-1.476-11.473-0.082-0.656-0.073-1.311 0.058-1.963 0.057-0.279 0.167-0.515 0.353-0.704 0.48-0.491 0.562-1.809 0.153-2.372-0.182-0.246-0.419-0.32-0.679-0.32-2.331-1e-3 -4.662-0.024-6.991 0.01-1.242 0.02-1.924 0.918-1.968 2.409-0.045 1.414 0.3 2.763 0.458 4.143 0.459 3.991 0.913 7.983 1.387 11.974 0.511 4.325 1.034 8.648 1.573 12.969 0.231 1.872 0.43 3.751 0.769 5.604 0.134 0.742-0.202 1.308-0.599 1.818-0.398 0.511-0.455 1.518-0.107 2.081 0.195 0.312 0.47 0.366 0.767 0.356 0.59-0.017 1.18-0.045 1.769-0.055 0.592-9e-3 1.182-1e-3 1.774-1e-3z" fill="#f69324" fill-rule="evenodd"/>
   </g>
  </g>
  <g transform="matrix(.9493 0 0 1.0267 1.7438 -2.1809)">
   <g transform="matrix(.61877 0 0 -.61877 66.126 81.586)">
    <path d="m0 0c0.378-0.187 0.812-0.156 1.213-0.258 3.724-0.956 6.07-3.289 7.446-6.523 1.122-2.64 1.252-5.313-0.12-7.939-0.221-0.422-0.452-0.853-0.954-1.25 0.838 3.434 0.397 6.622-1.333 9.628-1.74 3.025-4.366 5.103-7.906 6.156 0.028 0.224 0.219 0.096 0.334 0.133 0.254 0.027 0.517-0.06 0.765 0.053z" fill="#f69324" fill-rule="evenodd"/>
   </g>
   <g transform="matrix(.61877 0 0 -.61877 65.298 81.644)">
    <path d="m0 0c-0.11-0.015-0.233 9e-3 -0.316-0.092-0.162-0.016-0.243 0.101-0.345 0.186h0.666c0.037-0.023 0.05-0.043 0.036-0.064s-0.027-0.03-0.041-0.03" fill="#f69324" fill-rule="evenodd"/>
   </g>
   <g transform="matrix(.61877 0 0 -.61877 65.298 81.644)">
    <path d="m0 0c3e-3 0.032 5e-3 0.062 5e-3 0.094h0.779c-0.238-0.196-0.521-0.069-0.784-0.094" fill="#f69324" fill-rule="evenodd"/>
   </g>
   <g transform="matrix(.61877 0 0 -.61877 64.208 84.001)">
    <path d="m0 0c1.96-0.189 3.563-1.025 4.776-2.432 2.034-2.36 2.751-5.006 1.76-7.951-0.242-0.719-0.641-1.367-1.267-1.955 1.162 5.401-0.255 9.675-5.809 12.243 0.131 0.277 0.358 0.082 0.54 0.095" fill="#f69324" fill-rule="evenodd"/>
   </g>
   <g transform="matrix(.61877 0 0 -.61877 62.776 85.976)">
    <path d="m0 0c1.489-0.255 2.542-1.081 3.263-2.264 0.969-1.59 1.192-3.263 0.396-4.985-0.194-0.42-0.461-0.801-0.88-1.114 1 3.918-1e-3 6.549-3.122 8.27 0.052 0.228 0.22 0.093 0.343 0.093" fill="#f69324" fill-rule="evenodd"/>
   </g>
   <g transform="matrix(.61877 0 0 -.61877 64.208 84.001)">
    <path d="m0 0c-0.169-0.073-0.385 0.059-0.54-0.095-0.048 0.019-0.107 0.028-0.144 0.057-0.081 0.068-0.038 0.126 0.049 0.124 0.215-2e-3 0.44 0.038 0.635-0.086" fill="#f69324" fill-rule="evenodd"/>
   </g>
   <g transform="matrix(.61877 0 0 -.61877 62.776 85.976)">
    <path d="m0 0c-0.109-0.046-0.251 0.013-0.343-0.093-0.109 0.035-0.219 0.071-0.473 0.153 0.39 0.046 0.61 0.066 0.816-0.06" fill="#f69324" fill-rule="evenodd"/>
   </g>
  </g>
 </g>
</svg>
