<svg height="127.25" viewBox="0 0 158.75 33.668873" width="600" xmlns="http://www.w3.org/2000/svg"><g fill="#fff"><path d="m122.02 27.952c-.5-.227-1.07-.377-1.93-.377-.93 0-1.4.501-1.4 1.404 0 .828.42 1.433 1.4 1.433.75 0 1.51-.302 1.93-.654zm0 5.367v-.878c-.85.654-2 1.155-3.21 1.155-2.56 0-4.26-1.578-4.26-4.539 0-2.836 1.95-4.293 4.74-4.293 1.2 0 2.01.227 2.73.554v-.654c0-1.155-.62-1.557-1.85-1.557-1.36 0-2.39.253-3.67.957l-1.18-2.986c1.61-.779 3.39-1.205 5.68-1.205 3.68 0 5.29 1.83 5.29 4.891v8.555z"/><path d="m134.75 24.213c-.45-.377-.91-.629-1.61-.629-.93 0-1.43.579-1.43 3.039 0 2.634.5 3.259 1.46 3.259.65 0 1.13-.248 1.58-.625zm0 9.106v-.927c-.88.704-1.73 1.205-3.11 1.205-2.46 0-4.37-1.934-4.37-6.825 0-4.716 1.68-6.899 4.54-6.899 1.33 0 2.21.601 2.94 1.152v-4.187l4.54-1.809v18.29z"/><path d="m140.72 20.147h4.52v13.173h-4.52zm2.26-.952c-1.48 0-2.58-.853-2.58-2.236 0-1.276 1.1-2.182 2.58-2.182 1.55 0 2.63.906 2.63 2.182 0 1.383-1.08 2.236-2.63 2.236"/><path d="m152.48 23.536c-1.18 0-1.78.953-1.78 3.185 0 2.186.6 3.213 1.78 3.213s1.78-1.027 1.78-3.213c0-2.232-.6-3.185-1.78-3.185m0 10.062c-3.64 0-6.25-2.335-6.25-6.877 0-4.592 2.61-6.85 6.25-6.85s6.27 2.258 6.27 6.85c0 4.542-2.63 6.877-6.27 6.877"/><path d="m107.13 19.921h-2.95v3.86h2.87c1.59 0 2.22-.708 2.22-1.97 0-1.109-.6-1.89-2.14-1.89m1.89 13.677-2.88-5.954h-1.96v5.954h-4.824v-17.665h7.894c4.14 0 6.9 1.567 6.9 5.754 0 2.648-1.24 4.29-3.19 5.172l3.53 6.739z"/></g><g fill="#f03a1f"><path d="m8.0045 33.667c-5.2179 0-8.0045-3.864-8.0045-9.06 0-5.644 3.3091-9.057 8.0293-9.057 4.3147 0 6.0207 1.856 7.2257 5.168l-4.414 1.731c-.629-1.627-1.23-2.658-2.8365-2.658-2.0331 0-2.9111 2.033-2.9111 4.816 0 2.687.8531 4.82 2.9608 4.82 1.5284 0 2.1828-.828 3.1348-2.485l4.116 2.183c-1.18 2.306-3.135 4.542-7.3005 4.542"/><path d="m23.611 33.392v-7.479c0-1.706-.576-2.157-1.504-2.157-.956 0-1.532.451-1.532 2.107v7.529h-4.517v-16.486l4.517-1.805v5.996c.828-.629 1.756-1.155 3.313-1.155 2.886 0 4.265 1.933 4.265 5.395v8.055z"/><path d="m37.762 25.186c-.576-.629-1.227-1.105-2.108-1.105-1.102 0-1.781.53-1.781 2.133v7.179h-4.517v-13.176h4.517v.953c.779-.75 1.657-1.226 2.812-1.226.952 0 1.606.224 2.132.551z"/><path d="m39.722 20.218h4.514v13.173h-4.514zm2.257-.956c-1.483 0-2.584-.853-2.584-2.232 0-1.279 1.101-2.182 2.584-2.182 1.556 0 2.633.903 2.633 2.182 0 1.379-1.077 2.232-2.633 2.232"/><path d="m50.835 33.667c-1.933 0-3.813-.426-5.495-1.08l1.052-3.413c1.582.704 3.391 1.156 4.543 1.156.878 0 1.205-.203 1.205-.601 0-.43-.199-.604-1.052-.828-4.066-1.081-5.47-1.909-5.47-4.642 0-2.712 1.78-4.315 5.367-4.315 1.983 0 3.312.323 5.068.952l-1.002 3.487c-1.731-.753-3.035-1.105-4.191-1.105-.878 0-1.105.177-1.105.579s.153.551 1.308.903c3.714.977 5.218 1.855 5.218 4.464 0 3.039-2.083 4.443-5.446 4.443"/><path d="m65.615 32.965c-.878.427-1.983.704-3.263.704-2.381 0-3.486-1.205-3.486-4.191v-5.722h-2.009v-3.537h2.009v-3.341l4.393-1.777v5.118h2.857v3.537h-2.857v4.766c0 1.006.373 1.305 1.126 1.305.605 0 1.106-.224 1.806-.701z"/><path d="m67.201 20.218h4.517v13.173h-4.517zm2.257-.956c-1.483 0-2.588-.853-2.588-2.232 0-1.279 1.105-2.182 2.588-2.182 1.553 0 2.633.903 2.633 2.182 0 1.379-1.08 2.232-2.633 2.232"/><path d="m80.173 28.021c-.505-.224-1.081-.377-1.934-.377-.928 0-1.404.501-1.404 1.408 0 .828.427 1.429 1.404 1.429.754 0 1.507-.303 1.934-.654zm0 5.371v-.878c-.853.65-2.009 1.155-3.214 1.155-2.559 0-4.265-1.582-4.265-4.543 0-2.836 1.959-4.293 4.742-4.293 1.205 0 2.008.227 2.737.554v-.654c0-1.151-.63-1.557-1.859-1.557-1.355 0-2.385.253-3.661.956l-1.18-2.985c1.603-.779 3.383-1.205 5.669-1.205 3.689 0 5.296 1.83 5.296 4.891v8.559z"/><path d="m93.195 33.392v-7.479c0-1.706-.579-2.157-1.507-2.157-.952 0-1.532.451-1.532 2.107v7.529h-4.514v-13.173h4.514v.878c.832-.629 1.76-1.155 3.316-1.155 2.887 0 4.262 1.933 4.262 5.395v8.055z"/></g><path d="m73.265 0h-35.128v12.714h9.714v4.838l3.497-4.838h21.917z" fill="#fff" fill-rule="evenodd"/><g><path d="m42.026 3.7449v2.1326h.565c.306 0 .64 0 .871-.2452.206-.2204.263-.5332.263-.8282 0-.2879-.074-.6327-.298-.8211-.26-.2381-.505-.2381-.836-.2381zm-1.812 5.1361v-.7393h.689v-4.4039h-.689v-.7322h2.772c.54 0 1.002.0569 1.404.4763.334.3519.49.8388.49 1.3222 0 .59-.163 1.0805-.614 1.4751-.395.3376-.978.3376-1.468.3376h-.772v1.5249h.86v.7393z"/><path d="m46.855 5.4435c.17-.7642.689-1.0734 1.453-1.0023v1.0663c-.124-.032-.256-.064-.387-.064-.402 0-.754.2453-.896.6149-.103.2951-.103.6967-.103 1.0024v1.1232h.697v.6966h-2.364v-.6966h.576v-2.9715h-.576v-.6967h1.6z"/><path d="m51.354 6.2888c-.007-.4941-.206-1.1979-.828-1.1979-.69 0-.91.6221-.96 1.1979zm-1.813.6326c-.007.6221.252 1.3436 1.002 1.3436.434 0 .736-.295.811-.7144h1.041c-.071.9597-1.024 1.4288-1.912 1.4288-.277 0-.654-.0888-.91-.2061-.288-.1315-.476-.295-.665-.5474-.344-.4443-.476-1.0165-.476-1.5675 0-1.1978.682-2.2499 2.005-2.2499.579 0 1.13.1564 1.532.5829.355.3768.458.9917.483 1.4857.007.1316.025.2524.007.3768 0 .0249-.007.0427-.007.0675z"/><path d="m54.254 5.2303c.277-.5581.739-.8211 1.369-.8211.582 0 1.012.2239 1.215.8211.238-.5581.704-.8211 1.273-.8211.622 0 1.066.2879 1.279.8211.107.2701.075.4691.075.6789v2.2748h.533v.6966h-2.143v-.6966h.515v-1.9443c0-.4443-.053-1.0272-.647-1.0272-.32 0-.547.1493-.686.4443-.142.2879-.142.5332-.142.8459v1.6813h.508v.6966h-2.1v-.6966h.501v-2.0189c0-.2453 0-.4337-.107-.6647-.082-.1706-.295-.2879-.483-.2879-.459 0-.704.2808-.828.6895-.057.2133-.057.4195-.057.6398v1.6422h.526v.6966h-2.193v-.6966h.576v-2.9715h-.576v-.6967h1.592z"/><path d="m61.976 3.8505h-1.092v-.9988h1.092zm-1.671 5.0294v-.6966h.579v-2.968h-.579v-.7002h1.671v3.6682h.508v.6966z"/><path d="m65.58 6.2888c-.007-.4941-.206-1.1979-.828-1.1979-.69 0-.91.6221-.96 1.1979zm-1.813.6326c-.007.6221.252 1.3436.999 1.3436.437 0 .739-.295.814-.7144h1.041c-.074.9632-1.027 1.4288-1.912 1.4288-.277 0-.658-.0888-.91-.2061-.288-.1315-.476-.295-.665-.5474-.344-.4443-.476-1.0165-.476-1.5675 0-1.1978.682-2.2499 2.005-2.2499.579 0 1.13.1564 1.532.5829.352.3803.458.9917.483 1.4857.007.1316.025.2524.007.3768 0 .0249-.007.0427-.007.0675z"/><path d="m68.481 5.4435c.171-.7642.686-1.0734 1.45-1.0023v1.0699c-.12-.0356-.252-.0676-.384-.0676-.401 0-.753.2453-.895.6149-.107.2951-.107.6967-.107 1.0024v1.1232h.697v.6966h-2.36v-.6966h.572v-2.9715h-.572v-.6967h1.599z"/><path d="m70.072 7.7994h1.117v1.0841h-1.117z"/></g></svg>