<svg height="256.79001pt" viewBox="0 0 582.4566 256.79001" width="582.4566pt" xmlns="http://www.w3.org/2000/svg"><g fill="#44ac45" transform="translate(-20.763027 -46.96)"><path d="m361.28 47.08c3.11-.04 6.22-.04 9.34.02-.02 2.95-.02 5.9-.01 8.86-3.1.2-6.21.21-9.31.08-.01-2.99-.02-5.98-.02-8.96z"/><path d="m377.71 47.1c3.22-.06 6.44-.05 9.67-.03.09 8.72.11 17.44-.01 26.15-3.22.06-6.43.06-9.64.01-.13-8.71-.1-17.42-.02-26.13z"/><path d="m394.4 47.12c3.08-.08 6.17-.13 9.25-.16.2 16.78.11 33.57.04 50.35-3.1 0-6.2-.01-9.29-.13 0-16.68.03-33.37 0-50.06z"/><path d="m410.71 47.24c3.28-.22 6.58-.23 9.87-.15-.02 24.9-.02 49.79-.01 74.68-3.28.05-6.57.04-9.84-.13.07-24.8.07-49.6-.02-74.4z"/><path d="m427.54 47.15c3.24-.11 6.49-.11 9.73-.04.06 32.04.09 64.08-.02 96.12-3.24.06-6.48.05-9.7-.12.04-31.99.03-63.98-.01-95.96z"/><path d="m494.36 46.96c3.07.04 6.15.08 9.22.17-.01 32-.02 64 0 96.01-3.08.12-6.16.14-9.24.14-.11-32.11-.16-64.22.02-96.32z"/><path d="m510.59 47.15c3.27-.13 6.56-.13 9.84.03-.09 24.75-.02 49.5-.05 74.26-3.25.05-6.5.06-9.74-.01-.04-24.76.03-49.52-.05-74.28z"/><path d="m527.4 47.12c3.07-.08 6.15-.12 9.23-.16.18 16.78.11 33.57.03 50.36-3.09-.01-6.18-.02-9.26-.14 0-16.69.02-33.38 0-50.06z"/><path d="m544.04 47.12c3.18-.09 6.36-.09 9.55-.02-.03 8.68-.02 17.37-.01 26.05-3.17.13-6.34.12-9.5.03-.52-8.67-.47-17.39-.04-26.06z"/><path d="m560.59 47.06c3.23-.02 6.46-.01 9.69.07.02 2.92.02 5.84-.01 8.76-3.22.25-6.45.29-9.67.24-.06-3.02-.06-6.05-.01-9.07z"/><path d="m444.45 72.86c3.05-.04 6.1-.04 9.15-.01.16 50.11.11 100.21.02 150.32-3.06.01-6.13.01-9.18-.03-.1-50.09-.15-100.19.01-150.28z"/><path d="m477.58 72.84c3.24-.06 6.49-.02 9.72.36-.06 49.88-.09 99.76-.01 149.64-3.23.36-6.48.38-9.72.32-.06-50.11-.12-100.21.01-150.32z"/><path d="m460.66 91.24c3.22-.35 6.46-.44 9.71-.34.1 38.1.08 76.2-.01 114.3-3.23.07-6.47.05-9.68-.32.06-37.88.04-75.76-.02-113.64z"/><path d="m349.4 106.74c12.16-2.49 25.34.18 35.45 7.42 16.08 11.27 21.45 34.65 12.26 51.92-5.69 11.62-17.3 19.83-29.92 22.18-12.05 2.39-25.15-.11-35.15-7.34-8.43-6.01-14.31-15.36-16.23-25.51-1.18-8.8-.68-18.13 3.52-26.13 5.71-11.74 17.3-20.15 30.07-22.54m3.95 19.68c-11.27 2.47-17.96 15.58-14.88 26.37 1.54 6.66 6.26 12.71 12.8 15.02 7.35 2.89 16.31.92 21.71-4.86 7.87-8.47 7.58-23.16-.57-31.36-4.9-4.87-12.38-6.81-19.06-5.17z"/><path d="m129.28 107.13c7.14-.5 14.33-.51 21.47 0 11.57 26.7 22.76 53.58 34.11 80.37-7.89.08-15.78.01-23.67.04-2.18-4.55-3.61-9.42-5.82-13.94-1.67-.71-3.55-.41-5.31-.51-8.59.12-17.19-.08-25.78.13-1.98 4.78-3.68 9.67-5.93 14.34-7.64-.08-15.28.09-22.92-.11 11.15-26.83 22.46-53.6 33.85-80.32m1.73 48.59c5.94.12 11.87.12 17.81-.01-3-7.3-5.78-14.68-8.84-21.96-3.45 7.13-6.16 14.58-8.97 21.97z"/><path d="m20.83 107.56c12.72-.13 25.44-.03 38.15-.05 7.87-.07 16.02 1.4 22.65 5.84 6.71 4.46 10.48 12.64 10.1 20.62.42 6.47-1.35 13.16-5.69 18.09-2.83 3.34-6.65 5.59-10.37 7.79 6.11 9.26 12.64 18.25 18.69 27.56-8.46.23-16.92.14-25.37.06-5.54-7.98-10.64-16.25-16.25-24.17-3.23-.04-6.46-.04-9.69 0-.66 8.07-.15 16.16-.33 24.24-7.27 0-14.53-.01-21.79.01-.28-26.66-.13-53.33-.1-79.99m21.99 19.1c-.09 6.35-.26 12.71.13 19.06 5.35.08 10.71.17 16.07.04 3.51-.09 7.33-1.37 9.31-4.45 1.65-2.4 1.45-5.5 1-8.22-1.37-3.87-5.32-6.18-9.29-6.41-5.73-.37-11.49-.15-17.22-.02z"/><path d="m192.65 107.58c10.44-.17 20.89-.05 31.33-.07 11.84-.03 24.37 3.03 33.21 11.29 7.8 7.06 11.93 17.74 11.49 28.19.52 10.06-3.28 20.19-10.21 27.48-8.61 8.92-21.26 12.78-33.41 13.03-10.76.08-21.52.02-32.29.03-.32-26.65-.09-53.3-.12-79.95m21.99 19.67c.06 13.47.06 26.95 0 40.42 7.85.12 16.53 1.1 23.38-3.6 11.27-7.37 10.98-26.58-.55-33.57-6.77-4.42-15.17-3.37-22.83-3.25z"/><path d="m281.22 107.59c7.35-.14 14.71-.16 22.06.01-.05 26.64.23 53.29-.16 79.92-7.29.04-14.57 0-21.86.03-.03-26.66.04-53.31-.04-79.96z"/><path d="m427.61 152.57c3.25-.12 6.52-.07 9.78.24-.17 34.88-.11 69.77-.04 104.66-3.25.08-6.5.08-9.74.01-.05-34.97-.05-69.94 0-104.91z"/><path d="m494.23 152.64c3 .21 6.64-.99 9.24.59.2 34.76.05 69.54.08 104.31-3.09 0-6.17 0-9.25.01-.1-34.97.03-69.94-.07-104.91z"/><path d="m411.24 172.38c3.11-.01 6.21 0 9.32.02-.02 28.4-.01 56.8 0 85.19-3.11.02-6.21.03-9.31.03-.04-28.41-.02-56.83-.01-85.24z"/><path d="m510.77 172.37c3.21 0 6.42.01 9.63.06-.03 33.41-.04 66.83.01 100.25-3.24.08-6.47.08-9.69.07-.1-33.46-.21-66.93.05-100.38z"/><path d="m394.41 196.25c3.11-.04 6.22-.04 9.33-.02-.01 20.46.04 40.93-.02 61.39-3.1 0-6.2-.01-9.29-.02-.01-20.45.01-40.9-.02-61.35z"/><path d="m527.41 196.17c3.09-.03 6.19-.04 9.3-.01 0 35.86.02 71.71-.01 107.57-3.1.02-6.19.01-9.28-.01-.01-35.85.02-71.7-.01-107.55z"/><path d="m377.61 223.57c3.21-.28 6.44-.34 9.67-.29.31 11.42.11 22.86.11 34.28-3.23.07-6.46.06-9.69-.02-.11-11.32.05-22.65-.09-33.97z"/><path d="m544.23 223.2c3.11-.03 6.22-.03 9.34.02-.02 26.83 0 53.66-.01 80.49-3.11.03-6.21.04-9.31.03-.06-26.85-.02-53.69-.02-80.54z"/><path d="m560.64 245.19c3.19-.01 6.37 0 9.57.06.13 19.48.19 38.97-.04 58.45-3.17.05-6.33.05-9.49.05-.21-19.52-.15-39.04-.04-58.56z"/><path d="m361.26 248.77c3.12-.1 6.25-.1 9.37.05-.03 2.86-.05 5.73-.08 8.6-3.07.01-6.15.02-9.22.04-.03-2.9-.04-5.79-.07-8.69z"/><path d="m577.35 272.78c3.1-.14 6.22-.14 9.34-.02-.04 10.32 0 20.64-.02 30.96-3.1.02-6.2.03-9.29 0-.04-10.31.01-20.62-.03-30.94z"/><path d="m593.73 294.78c3.15-.05 6.32-.06 9.48-.02.02 3 .01 5.99-.04 8.99-3.13 0-6.26 0-9.38-.05-.08-2.97-.1-5.95-.06-8.92z"/></g></svg>