<svg height="180.01021pt" viewBox="0 0 702 180.01021" width="702pt" xmlns="http://www.w3.org/2000/svg"><g fill="#fff" transform="translate(0 -109.99424)"><path d="m119.68 155.67c3.12-2.58 7.85-2.76 11.33-.77 2.25 1.46 3.59 3.89 4.95 6.12 10.57 18.46 21.36 36.79 31.88 55.27.26-18.43-.02-36.88.14-55.32-.04-2.54.76-5.57 3.39-6.56 3.27-1.26 7.39-1.3 10.29.89 2.02 1.55 2.12 4.33 2.16 6.66-.02 24.7-.03 49.41 0 74.12-.04 2.4-.09 5.11-1.77 7.02-2.33 2.29-6.01 2.46-9.01 1.66-3.03-.91-5-3.57-6.58-6.14-11.01-17.86-22.02-35.72-33.01-53.58-.06 17.32 0 34.65-.03 51.97.07 3.07-1.04 7.03-4.46 7.8-4.52 1.27-11.51-.02-11.44-5.91-.21-24.95 0-49.92-.11-74.88 0-2.88-.07-6.25 2.27-8.35z"/><path d="m206.24 154.21c4.53-1.81 12.08-.19 11.94 5.81.17 25.64.04 51.29.06 76.94.15 3.1-1.16 6.84-4.43 7.78-2.9.73-6.15.67-8.88-.63-2.85-1.6-2.97-5.22-2.94-8.1.05-25.03-.03-50.06.04-75.09-.18-2.86 1.3-5.89 4.21-6.71z"/><path d="m42.85 160.99c-.41-3.97 3.31-7.11 7.15-6.51 10.35.28 20.77-.59 31.08.61 7.9.96 15.75 5.48 18.66 13.2 3.65 9.9 3.66 21.98-2.64 30.83-1.92 2.83-4.55 5.06-7.18 7.2 4.48 9.1 8.97 18.2 13.45 27.3 1.27 2.44 1.92 5.55.3 8-3.35 4.24-11.46 5.35-14.29-.04-5.38-10.16-10.29-20.59-15.48-30.85-5.08.04-10.15 0-15.23.03 0 9.1.08 18.22-.02 27.32-.01 2.87-1.59 6.15-4.66 6.73-2.88.63-6.18.63-8.77-.93-2.48-1.8-2.38-5.18-2.42-7.92.06-24.99-.04-49.98.05-74.97m15.8 8.04c.06 9.16.07 18.33-.01 27.49 5.06.01 10.13.21 15.19-.11 4.41-.25 8.86-2.8 10.52-7.03 1.46-3.9 1.54-8.29.5-12.31-1.14-4.37-5.41-7.26-9.75-7.77-5.46-.6-10.97-.21-16.45-.27z"/><path d="m236.48 160.91c-.17-3.11 2.19-6.36 5.5-6.29 8.01-.29 16.03-.05 24.04-.12 7.97.03 16.57 1.32 22.86 6.63 6.04 5.44 6.93 14.38 6 22.01-.62 6.03-4.56 11.25-9.68 14.3 4.34 1.72 8.41 4.68 10.24 9.13 3.68 8.41 3.4 18.75-1.17 26.76-5.11 8.04-15.33 10.5-24.27 10.89-9.33.13-18.67.16-28 0-3.84.19-5.91-3.81-5.55-7.19-.02-25.37-.06-50.75.03-76.12m15.84 8.1c.01 7.51-.06 15.02.02 22.53 6.24-.27 12.54.46 18.72-.47 9.79-2.21 10.12-18.8.49-21.49-6.33-1.19-12.83-.33-19.23-.57m-.01 36.44c-.01 8.13-.01 16.27.01 24.42 5.59-.03 11.19.1 16.78-.04 4.29.03 8.78-2.03 10.82-5.94 1.83-3.74 1.67-8.26.23-12.1-1.58-4.04-5.97-6.15-10.11-6.26-5.91-.21-11.82-.07-17.73-.08z"/></g><g fill="#00a3ac" transform="translate(0 -109.99424)"><path d="m22.35 127.32c12.08-10.98 28.28-17.29 44.61-17.32 91.28.01 182.57-.03 273.85.02.01 37.66.03 75.33-.01 113-.01 19.63-9.22 38.92-24.35 51.39-11.8 9.89-27.08 15.51-42.47 15.59-91.33.01-182.65 0-273.98 0v-117.21c1.4-17.26 9.37-33.94 22.35-45.47m97.33 28.35c-2.34 2.1-2.27 5.47-2.27 8.35.11 24.96-.1 49.93.11 74.88-.07 5.89 6.92 7.18 11.44 5.91 3.42-.77 4.53-4.73 4.46-7.8.03-17.32-.03-34.65.03-51.97 10.99 17.86 22 35.72 33.01 53.58 1.58 2.57 3.55 5.23 6.58 6.14 3 .8 6.68.63 9.01-1.66 1.68-1.91 1.73-4.62 1.77-7.02-.03-24.71-.02-49.42 0-74.12-.04-2.33-.14-5.11-2.16-6.66-2.9-2.19-7.02-2.15-10.29-.89-2.63.99-3.43 4.02-3.39 6.56-.16 18.44.12 36.89-.14 55.32-10.52-18.48-21.31-36.81-31.88-55.27-1.36-2.23-2.7-4.66-4.95-6.12-3.48-1.99-8.21-1.81-11.33.77m86.56-1.46c-2.91.82-4.39 3.85-4.21 6.71-.07 25.03.01 50.06-.04 75.09-.03 2.88.09 6.5 2.94 8.1 2.73 1.3 5.98 1.36 8.88.63 3.27-.94 4.58-4.68 4.43-7.78-.02-25.65.11-51.3-.06-76.94.14-6-7.41-7.62-11.94-5.81m-163.39 6.78c-.09 24.99.01 49.98-.05 74.97.04 2.74-.06 6.12 2.42 7.92 2.59 1.56 5.89 1.56 8.77.93 3.07-.58 4.65-3.86 4.66-6.73.1-9.1.02-18.22.02-27.32 5.08-.03 10.15.01 15.23-.03 5.19 10.26 10.1 20.69 15.48 30.85 2.83 5.39 10.94 4.28 14.29.04 1.62-2.45.97-5.56-.3-8-4.48-9.1-8.97-18.2-13.45-27.3 2.63-2.14 5.26-4.37 7.18-7.2 6.3-8.85 6.29-20.93 2.64-30.83-2.91-7.72-10.76-12.24-18.66-13.2-10.31-1.2-20.73-.33-31.08-.61-3.84-.6-7.56 2.54-7.15 6.51m193.63-.08c-.09 25.37-.05 50.75-.03 76.12-.36 3.38 1.71 7.38 5.55 7.19 9.33.16 18.67.13 28 0 8.94-.39 19.16-2.85 24.27-10.89 4.57-8.01 4.85-18.35 1.17-26.76-1.83-4.45-5.9-7.41-10.24-9.13 5.12-3.05 9.06-8.27 9.68-14.3.93-7.63.04-16.57-6-22.01-6.29-5.31-14.89-6.6-22.86-6.63-8.01.07-16.03-.17-24.04.12-3.31-.07-5.67 3.18-5.5 6.29z"/><path d="m403.54 121.73c8.21-1.35 17.35.28 23.6 6.08 2.26 2.24 4.48 4.95 4.89 8.21.42 3.8-4.93 6.15-7.58 3.59-2.8-2.9-4.96-6.63-8.76-8.38-7.79-3.69-18.16-.26-21.73 7.74-3.97 8.82-3.94 19.82.81 28.34 4.96 9.08 19.55 10.72 26 2.44 2.26-2.04 3.67-6.04 7.22-5.86 3.03-.08 5.45 3.25 4.17 6.1-2.36 6.75-9.14 10.84-15.75 12.58-8.54 1.99-18.33.98-25.32-4.68-5.77-4.55-8.84-11.72-9.88-18.85-1.14-8.86-.14-18.41 4.79-26.05 3.82-6.11 10.46-10.18 17.54-11.26z"/><path d="m679.4 128.2c1.39-3.05 5.96-4.08 8.71-2.31 1.05 4.15.36 8.5.49 12.72 3.05.14 6.27-.45 9.24.48 2.08 1.48.88 4.48.89 6.61-3.36.4-6.74.5-10.12.47.04 7.29.01 14.57-.01 21.86.1 2.11-.12 4.44 1.12 6.29 2.94 1.92 6.21-.52 9.27-.83 1.65.09 2.23 1.85 3.01 3.01v3.24c-4.03 4.1-10.42 4.38-15.7 3.15-4.39-1.07-7.13-5.47-7.1-9.84-.25-8.92.01-17.84-.1-26.77-1.91-.18-3.88-.1-5.69-.75-1.53-2.06-.63-4.63.04-6.82 1.89-.04 3.78-.09 5.68-.13.03-3.46-.29-6.95.27-10.38z"/><path d="m455.44 137.63c7.37-1.38 15.77.17 21.01 5.86 5.61 5.95 6.61 14.82 5.3 22.58-1.18 7.34-6.36 14.12-13.61 16.29-7.27 2.17-15.94 1.47-21.9-3.57-4.45-3.6-6.87-9.21-7.41-14.82-.62-6.26.19-13.01 3.92-18.26 2.9-4.29 7.64-7.14 12.69-8.08m-.15 8.76c-4.45 2.03-6.39 7.12-6.71 11.71-.3 4.55.15 9.54 3.05 13.26 4.58 6.09 15.59 5.09 18.83-1.9 2.63-5.56 2.6-12.41.14-18.02-2.53-5.66-9.93-7.53-15.31-5.05z"/><path d="m498.65 144.27c5.01-7.45 16.03-9.36 23.41-4.43 4.28 2.85 5.78 8.2 5.74 13.1 0 8.66.07 17.33-.02 26 .05 4.42-6.49 4.74-8.91 2.17-1.16-3.21-.35-6.75-.56-10.08-.22-6.72.51-13.5-.47-20.16-1.04-5.44-8-6.03-12.21-4.2-5.06 2.26-6.69 8.27-6.71 13.36-.18 6.33.12 12.66-.1 18.99.15 5.06-9.73 5.04-9.39-.13-.09-12.33-.07-24.66-.01-36.98-.4-4.65 7.06-5.4 8.95-1.9.19 1.41.28 2.83.28 4.26z"/><path d="m546.55 144.22c5.04-7.47 16.16-9.33 23.49-4.29 4.21 2.87 5.66 8.16 5.63 13.01.01 8.7.09 17.41-.04 26.11.1 4.99-9.43 4.92-9.45.01-.23-8.7.17-17.41-.16-26.11.01-3.39-2.29-6.93-5.95-7.01-5.7-1.33-11.43 2.77-12.55 8.38-1.65 8.38-.22 17.01-.92 25.48-.85 4.28-9.55 3.96-9.3-.85-.1-12.34-.07-24.69-.02-37.03-.36-4.17 5.22-4.95 7.95-3.14 1.7 1.26 1.04 3.63 1.32 5.44z"/><path d="m597.31 138.26c7.1-2.15 15.83-1.39 21.25 4.13 4.64 4.51 6.36 11.3 6.01 17.61.09 2.33-2.61 3.06-4.45 2.99-9.03.08-18.06-.09-27.09.07.41 3.98 1.58 8.44 5.3 10.6 4.39 2.5 10.48 2.51 14.49-.8 1.94-1.27 3.59-3.5 6.14-3.36 2.9.27 5.08 4.03 2.92 6.38-7.18 9.14-21.91 10-30.97 3.25-6.9-5.37-8.52-14.94-7.35-23.14.88-7.81 6.04-15.38 13.75-17.73m-.89 10.13c-1.82 1.89-2.43 4.5-2.99 6.96 7.22.03 14.44.04 21.66-.01-.53-2.39-1.01-4.93-2.64-6.85-3.81-4.87-12.09-4.71-16.03-.1z"/><path d="m646.46 137.66c8.12-1.7 18.17.78 22.24 8.6 1.57 2.49.47 6.31-2.64 6.81-3.21.9-4.87-2.51-6.9-4.25-4.5-5.25-14.16-4.15-17.11 2.2-2.62 5.66-2.64 12.57-.24 18.31 2.63 6.36 12 8.07 16.89 3.39 1.6-1.43 2.9-3.17 4.59-4.51 2.59-1.3 6.06.93 6.06 3.8-.07 2.66-1.99 4.76-3.84 6.46-6.13 5.25-15.14 6.41-22.64 3.75-5.81-2.07-10.12-7.36-11.57-13.29-1.69-6.64-1.53-13.99 1.31-20.3 2.47-5.63 7.8-9.86 13.85-10.97z"/><path d="m58.65 169.03c5.48.06 10.99-.33 16.45.27 4.34.51 8.61 3.4 9.75 7.77 1.04 4.02.96 8.41-.5 12.31-1.66 4.23-6.11 6.78-10.52 7.03-5.06.32-10.13.12-15.19.11.08-9.16.07-18.33.01-27.49z"/><path d="m252.32 169.01c6.4.24 12.9-.62 19.23.57 9.63 2.69 9.3 19.28-.49 21.49-6.18.93-12.48.2-18.72.47-.08-7.51-.01-15.02-.02-22.53z"/><path d="m252.31 205.45c5.91.01 11.82-.13 17.73.08 4.14.11 8.53 2.22 10.11 6.26 1.44 3.84 1.6 8.36-.23 12.1-2.04 3.91-6.53 5.97-10.82 5.94-5.59.14-11.19.01-16.78.04-.02-8.15-.02-16.29-.01-24.42z"/><path d="m534.19 207.23c3.52-2.12 9.1.29 8.64 4.77.4 4.03-4.2 6.67-7.74 5.28-4.3-1.19-4.88-8.11-.9-10.05z"/><path d="m386.18 208.31c6.26-.44 12.55-.1 18.83-.16 6.43.16 13.83 1.37 17.92 6.88 5.85 8.6 3.32 22.61-6.91 26.71 3.45 6.92 7.52 13.53 10.94 20.47 1.87 3.28-1.85 6.42-5.03 5.91-2.49.1-3.85-2.23-4.89-4.11-3.62-6.76-7.25-13.5-10.9-20.24-4.43.08-8.85.04-13.28.04-.01 6.75.13 13.51-.03 20.27.45 5.49-9.95 5.46-9.53 0-.13-17.04-.02-34.09-.05-51.14-.15-1.97.65-4.41 2.93-4.63m6.74 7.98c-.1 6.45-.01 12.89-.04 19.33 5.91-.23 12.04.73 17.76-1.12 7.17-2.42 7.14-14.57-.01-17.02-5.69-1.93-11.83-.9-17.71-1.19z"/><path d="m512.67 211.02c.24-5.17 10.26-4.61 9.41.87.14 16.7-.01 33.4.07 50.1-.14 1.72.2 3.8-1.07 5.18-2.17 1.32-5.08 1.18-7.28.03-1.11-1.41-.85-3.34-1.1-5-5.7 9-20.18 8.76-26.74.89-4.73-5.43-5.9-13.04-5.45-20.01.32-5.61 2.1-11.38 6.16-15.43 6.83-7.14 20.26-6.92 25.97 1.54-.06-6.06-.24-12.13.03-18.17m-14.5 20.31c-4.59 1.4-7.06 6.28-7.52 10.77-.63 5.34-.29 11.52 3.58 15.65 3.9 4.16 11.48 4 15.13-.43 2.7-3.07 3.51-7.34 3.55-11.32.02-4.27-.8-8.9-3.83-12.11-2.72-2.95-7.19-3.65-10.91-2.56z"/><path d="m439.87 226.85c5.45-3.95 12.55-4.86 19.08-3.98 4.23.56 8.71 2.29 11.06 6.06 2.69 4.17 2.29 9.35 2.31 14.09-.12 7.34.18 14.7-.13 22.03-.14 3.37-4.57 3.43-6.96 2.66-2.49-.83-2.02-3.94-2.16-5.98-5.1 7.33-16 8.79-23.5 4.57-7.79-4.56-7.2-17.82.86-21.79 6.92-3.65 15.01-3.64 22.63-4.08-.13-2.81-.09-6.12-2.5-8.06-2.69-2.07-6.44-2.18-9.64-1.51-3.27.56-5.54 3.14-8.21 4.84-2.58 1.6-6.52-.52-6.41-3.61.03-2.31 1.88-3.94 3.57-5.24m6.73 22.81c-4.24 1.78-4.41 9.07.11 10.6 5 1.64 11.14.17 14.5-4 2.15-2.63 1.71-6.22 1.83-9.38-5.5.59-11.36.31-16.44 2.78z"/><path d="m564.41 223.62c7.38-2.07 16.12-1.26 22.02 4.01 8.27 7.45 8.95 20.67 4.48 30.32-6.58 13.8-28.79 14.8-37.05 2.17-4.08-6.12-4.58-13.98-3.24-21.04 1.42-7.12 6.75-13.4 13.79-15.46m2.88 7.88c-8.23 3.63-8.75 14.85-6.07 22.26 2.38 7.18 12.4 9.17 17.93 4.46 3.2-2.73 4.38-7.08 4.54-11.15.21-4.57-.5-9.58-3.75-13.05-3.14-3.43-8.44-3.98-12.65-2.52z"/><path d="m534.21 224.09c2.58-1.37 7.5-.92 7.69 2.74.21 12.41.11 24.83.05 37.24.5 5.53-10.06 5.49-9.54-.01-.1-11.71 0-23.43-.05-35.14.03-1.71.05-3.98 1.85-4.83z"/></g></svg>