<svg enable-background="new 0 0 45 45" height="22.701" viewBox="0 0 32.900002 22.701" width="32.900002" xmlns="http://www.w3.org/2000/svg"><path d="m-274.2 403.7c0 .1.1.2.1.5v1.399l-.9-1.1-.3-.4-.2-.3c-.1-.1-.1-.1-.2-.1h-.6l.1.1c.1.101.1.3.1.5v.9c0 .399 0 .8-.1 1.2v.1h.7v-.1c-.1-.301-.1-.601-.1-.9v-1.1c.1.1 1.5 2.1 1.5 2.1h.4v-.2-.299-1.6c0-.2 0-.4.1-.601l.1-.1h-.7zm1.8 1.2c.1-.101.3-.801.3-.801s.2.601.3.801zm.8-1-.1-.301h-.6v.2c0 .3-.9 2-1.1 2.3l-.2.2h.7v-.2c0-.199.2-.6.4-.899h.9c0 .1.5 1.1.5 1.1h.6l-.1-.2c-.5-.7-.7-1.4-1-2.2m14.1.1c.3 0 .5-.1.6-.2v-.1h-2.3l-.2.5.2-.101c.1-.1.2-.1.3-.1h.5v1.8c0 .2 0 .399-.1.5l-.1.101h.8l-.1-.101c-.1-.101-.1-.3-.1-.5v-1.799zm8.5-.3-.8-.101.1.101c.1.1.1.3.1.5v.5h-1.1v-.5c0-.2 0-.4.1-.5l.1-.101h-.8l.1.101c.1.1.1.3.1.5v1.5c0 .2 0 .399-.1.5l-.1.1h.8l-.1-.1c-.1-.101-.1-.3-.1-.5v-.7h1.1v.7c0 .2 0 .3-.1.5l-.1.1h.8l-.1-.1c-.1-.101-.1-.3-.1-.5v-1.5c.1-.2.1-.3.2-.5m2.2.3c.3 0 .5-.1.6-.2v-.1h-2.3l-.2.5.2-.101c.1-.1.2-.1.3-.1h.5v1.8c0 .2 0 .399-.1.5l-.1.101h.8l-.1-.101c-.1-.101-.1-.3-.1-.5v-1.799zm-5.8 2c-.3 0-.6-.1-.7-.3-.2-.2-.2-.4-.2-.8 0-.2.1-1 .9-1 .4 0 .5.199.6.3l.1.2v-.2-.6h-.4-.3c-.9 0-1.5.601-1.5 1.5 0 .4.1.801.4 1 .2.2.6.4.9.4.7 0 1-.4 1-.6v-.2l-.1.1c-.1 0-.3.2-.7.2m7.2-1.1c.1-.101.3-.801.3-.801s.2.601.3.801zm.9-.9-.1-.3h-.6v.2c0 .3-.9 2-1.1 2.3l-.2.2h.7v-.2c0-.2.2-.7.4-.9h.9c0 .101.5 1.101.5 1.101h.6l-.1-.2c-.5-.801-.8-1.501-1-2.201m-17.7 2.1h-.4v-1c .3 0 .8 0 1-.3l.1-.1h-.1-.9v-.8h.3c.2 0 .4 0 .6.1l.1.1v-.5h-1.7l.1.101c.1.101.1.3.1.5v1.5c0 .2 0 .399-.1.5l-.1.101h1.4.3.1l.1-.601-.1.101c-.3.198-.6.298-.8.298m-3.2-1.2c.1-.101.3-.801.3-.801s.2.601.3.801zm.9-.9-.1-.3h-.6v.2c0 .3-.9 2-1.1 2.3l-.2.2h.7v-.2c0-.2.2-.601.4-.9h.9c0 .101.5 1.101.5 1.101h.6l-.1-.2c-.5-.801-.8-1.501-1-2.201m4.4 2.1h-.3v-1.8c0-.2 0-.399.1-.5l.1-.1h-.8l.1.1c.1.101.1.3.1.5v1.101c0 .3 0 .8-.1.899l-.1.101h1.3.3l.1-.601-.2.101c-.1.099-.3.199-.6.199m-7.2-1.1c.1.1.1.3.1.5v.2.399h-.3c-.9 0-1.1-.6-1.1-1.199 0-.5.3-1.101 1-1.101.3 0 .5.101.8.3l.1.101v-.6h-.2-.5c-1.1 0-1.8.601-1.8 1.5 0 .9.5 1.4 1.6 1.4.3 0 .7 0 .9-.1h.1v-.4-.4c0-.199 0-.399.1-.5l.1-.1h-.8zm11.3-.1c.1-.101.3-.801.3-.801s.2.601.3.801zm.8-.9-.1-.3h-.6v.2c0 .3-.9 2-1.1 2.3l-.2.2h.7v-.2c0-.2.2-.601.4-.9h.9c0 .101.5 1.101.5 1.101h.6l-.1-.2c-.5-.801-.8-1.501-1-2.201m10-4.4v.101c.1-.001 0-.101 0-.101m.5-1.8v-.1c-.1 0-.1 0 0 .1-.1 0-.1 0 0 0m1.1 1.6v.1h.2c-.1 0-.2-.1-.2-.1m-6.3.4v.2-.2c0-.1 0-.1 0 0m-.3.2v.3s.3.5.4.5c0 .101-.1-.1-.1-.1.1 0 .4.6.6.7.3.199.7.699 1.1.8.2 0 .2.399.4.399h-.1.7.1v-.1h-.1.3c.3 0 .1.1.3.1.4 0 .8 0 1-.199.2-.101.2-.301.4-.4 0 .1 0 0 .1 0s .2-.1.3-.2c0-.101.2-.101.2-.101.1-.1.2-.1.2-.1 0-.3.2-.3.3-.6h.2c0-.1 0-.2-.1-.301 0 0 .1 0 .1-.1v-.199-.201-.299h-.1l.3-.101h-.1s-.1-.3-.1-.399c-.1 0-.1 0-.1-.101v-.101-.199c-.1-.301-.3-.5-.4-.801 0-.1 0-.299-.1-.399l-.1-.101c-.2-.199-.1-.299-.4-.299 0 0 .2.199.2.299.1 0 0 .101 0 .101.1 0 .1.101.1.101h-.1c0-.101-.3-.5-.4-.601s-.1-.2-.2-.3c0-.1-.1 0-.1-.1 0-.101 0-.101-.1-.201v-.1l-.1.1c-.1 0-.4-.199-.5-.199-.1 0-.3-.1-.4 0-.4 0-.6 0-.9.199-.1.101-.1.101-.1.201 0 .299.8.199 1.1.199v.1.5c.1 0 .1 0 .2.101v-.101l.1.101v-.101h.1c.2 0 .2.301.1.301v.3h.1v-.101c0-.299.2-.299.4-.299 0 .1.1.199.1.199 0 .1 0 .1.1.2 0 .101.1.2.1.2s0 .1.1.1.1.5 0 .601v.1.101c0 .199 0 .5-.1.6 0 0 0-.1-.1-.1-.1.1-.2.199-.2.3-.1.2-.3.3-.4.5l-.3.3c.2 0 .7-.6.8-.8 0 .2-.4.6-.4.7h-.1-.1-.1v.1c0 .1-.3.2-.4.2-.1.1-.2.1-.3.1s-.2.101-.4.101c-.1 0-.1.1-.1.199h-.1c-.2 0-.5.101-.7 0-.1 0-.3-.1-.3 0-.2 0-.2-.5-.3-.5v.201h-.1v.1c.1 0 .1.1.2.1-.1 0-.5-.1-.6-.199-.2-.201-.3-.5-.5-.601-.2-.3-.3-.5-.4-.8v.1c.1.1.1.2.1.301 0 .1.1.199.1.299.1.201.4.5.6.601v.101-.101c-.1-.101-.1-.2-.2-.2-.3-.3-.5-.6-.6-1-.1-.2 0-.5-.1-.6-.1-.2 0-.601-.1-.801-.1-.1 0-.199 0-.399-.1 0 0 .5 0 .5h-.1v-.101h-.1v.101c0 .399-.1.601-.1 1 .3.099.4.199.4.299m5 2.4c-.1 0 0 0 0 0zm-.2.3c0-.101.1-.2.2-.2v-.1h-.1l-.1.1zm-22.1-5s .1-.2.2-.2.2.2.2.2l.7 2h-1.9zm-1.1 2.4h2.2l1.1 2.601h1.1l-.2-.3c-1-1.7-1.6-3.801-2.3-5.7h-1.2v.3c0 .8-2.1 4.8-2.6 5.5l-.2.3h1.2v-.399c.1-.602.5-1.502.9-2.302m-6.4-3.2h.5c.9 0 1.5.1 1.5 1.1 0 .9-.5 1.4-1.5 1.4h-.5zm.2 5.8c-.2-.3-.2-.8-.2-1.2v-1.7c.6 0 .6.2 1.1.8l1.2 1.601c.2.3.4.5.8.5h.8c-.4-.4-.5-.5-.8-.9l-1.7-2.3c.7-.3 1.5-.8 1.5-1.7 0-.7-.5-1.3-1.5-1.3-.8 0-1.6.1-2.4.1.2.301.2.801.2 1.2v3.5c0 .4 0 .9-.3 1.3h1.3zm23.3-6h-1.3c.2.3.2.8.2 1.2v3.5c0 .399 0 .899-.2 1.199h1.3c-.2-.299-.2-.799-.2-1.199v-3.5c0-.4 0-.9.2-1.2m-11.5 6h1.3c-.2-.3-.2-.8-.2-1.2v-3.5c0-.4 0-.9.2-1.2h-1.3c.2.3.2.8.2 1.2v3.5c0 .4 0 .9-.2 1.2m4.1-5.6c.2 0 .7-.1 1-.1 1.8 0 2.7 1 2.7 2.7 0 1.5-.6 2.7-2.4 2.7-1.1 0-1.3 0-1.3-.7zm-1 5.6h2.4c1.9 0 3.4-1.2 3.4-3.3 0-1.7-1.1-2.9-2.8-2.9-1 0-2 .1-3 .1.2.301.2.801.2 1.201v3.5c0 .599 0 1.099-.2 1.399m14.1-1.6c0-.1.1-.1 0 0 .1-.1 0-.1 0 0m-2.1-5.7h.2v-.101h.1c.1 0 .1 0 .2.101v.1-.3h.1c0-.101.1-.101.2-.101h.1.1v-.1c.1 0 .2.1.3.2h.1.1.2c.2.1.3.1.5.1h.4v-.1s.1 0 .1-.101c.1 0 .2.101.3.2h.1s0 .101.1.101c.1.1.3.199.5.199 0-.1-.1-.1-.2-.199 0 0-.1 0-.1-.101 0 0 0-.1-.1-.1-.1-.101-.2-.101-.3-.2 0-.1-.2-.1-.3-.1v-.098h-.1v-.1h-.1c0 .1 0 .1-.1.1s0-.1-.1-.1v.1c0-.1 0-.2.1-.3-.1 0-.1-.1-.1-.1h-.1-.1v.1-.1.1l-.1-.1v.1h-.1v-.1l-.1-.101v-.1h-.1s-.1 0-.1.1h-.1c-.1 0-.1.101-.2.101v-.101h-.1c0 .101-.1.101-.1.101h-.3c-.2.1-.5.199-.6.399v.2c-.4.301-.3.401-.2.401m3.1-.2c0 .1 0 .1 0 0zm-.3 2.1c0-.1 0-.1 0 0 0-.1 0 0 0 0m .2-2.2h.1c0 .1-.1 0-.1 0-.1-.1-.1-.1-.2-.1.1.1.2.1.2.1.1.1 0 .1 0 0m-2.4 5.6c.1 0 .7-.101.8-.2.2-.2.4-.7.5-1v-.3-.3c-.2-.4-.7-.9-1.1-.601-.1.101-.2.101-.2.2s.1.2.1.3h-.1c0 .101-.1 0-.1 0v .101c-.1 0-.1.199-.2.199.1 0 .1.201.1.201h.1.1c0 .199-.2.1-.4.1h-.1-.1c0-.1-.3-.1-.4-.1 0-.101-.1-.101-.1-.201-.1-.199-.1-.299-.1-.5 0-.299.2-.5.3-.799 0-.101.1-.201.1-.4.1-.1.2-.2.3-.301v-.1c0-.1-.1-.1-.1-.1-.4.199-.5.4-.7.8-.1.2-.2.399-.3.601v.5.6c.2 1 1 1.4 1.6 1.3m3.4-4.7c-.1 0-.1 0 0 0zm-.7-.9c-.1 0-.1 0 0 0zm .4.8c-.1 0-.1 0 0 0zm .5 3.5c.1.1.1 0 0 0zm-1.6.4s.1.101.1.2c.1-.1 0-.2-.1-.2m-3.6 1.4c0 .1 0 .1 0 0zm2.9.1c-.1-.1-.1-.1 0 0-.1-.1-.1 0 0 0-.1 0 0 0 0 0m-3.9-4.1c.1-.101.2-.3.2-.5-.1.2-.2.399-.3.6.1 0 .1 0 .1-.1m3.7.7c0 .1 0 .1 0 0 0 .1-.1.1 0 0v .1h.1c-.1 0-.1 0-.1-.1zm-1.6 1.7c-.1 0 0 0 0 0zm .5 2h-.2zm-.8-.5c0-.1-.1-.1-.2-.1.1 0 .1 0 .2.1" fill="#fff" transform="translate(276.3 -383.799)"/><g fill="#5b8523" transform="translate(276.3 -383.799)"><path d="m-252.4 392.6c-1.5 0-2.7-1.1-3-2.6h2.8c.3 0 1 .1 1 .1v-1.2s-.7 0-1 0h-2.8c.3-1.5 1.5-2.5 3-2.5.8 0 1.7.399 1.7.399v-1.3s-.7-.3-1.7-.3c-2.5 0-4.6 1.899-4.6 4.3 0 2.6 2.2 4.4 4.6 4.4 1.2 0 1.9-.301 1.9-.301v-1.398c-.1 0-.9.4-1.9.4"/><path d="m-260.8 393.9s.1-.601.1-1.2v-6h-.4c-.6 0-1.4 0-2 .1l-.1-1.399h6.6v1.399c-.7-.1-1.5-.1-2.1-.1h-.5v6c0 .6.1 1.2.1 1.2z"/><path d="m-250.6 384.7c-.5-.101-1.1-.2-1.6-.2-1.4 0-2.7.4-3.7 1.4v-1c1.1-.7 2.3-1.101 3.7-1.101.6 0 1.1.101 1.7.2z"/><path d="m-267.1 389.5h-1.2v-3.1h1.3.3c1.1.1 1.6.699 1.6 1.5 0 .8-.7 1.5-1.6 1.6-.2 0-.3 0-.4 0m3.3 3.2-2.3-2.2c1.4-.1 2.6-1.2 2.6-2.5 0-1.4-.8-2.7-3.3-2.8-.1 0-.2 0-.3 0-1.7 0-2.9.1-2.9.1s.1.8.1 1.3v6.2c0 .601-.1 1.2-.1 1.2h1.7s-.1-.6-.1-1.3v-2.5l1.6 1.7.8.8c.5.5 1.4 1.3 1.4 1.3h2.3c0-.1-1-.8-1.5-1.3"/></g></svg>