<svg height="24.1" viewBox="-283 374 37 24.1" width="37" xmlns="http://www.w3.org/2000/svg"><g fill="#a07600" transform="translate(-4.6 -9.8)"><path d="m-265.4 407.9c1.4 0 2.5-.4 3.3-1.2s1.2-1.9 1.2-3.4c0-1.4-.4-2.6-1.2-3.4s-1.9-1.2-3.3-1.2-2.5.4-3.2 1.2c-.8.8-1.2 1.9-1.2 3.4 0 1.4.4 2.6 1.2 3.4s1.9 1.2 3.2 1.2zm.4-2.6c0 .1 0 .2-.1.3s-.1.1-.2.1-.2 0-.2-.1c-.1-.1-.1-.2-.1-.3v-4c0-.1 0-.2.1-.3s.1-.1.2-.1.2 0 .2.1c.1.1.1.2.1.3z"/><path d="m-254 405.1v2.5h-6.5v-8.7h3.6v6.2z"/><path d="m-270.1 402.7v-.3c0-1.2-.3-2.1-1-2.7s-1.7-1-2.9-1c-1.4 0-2.5.4-3.2 1.2-.8.8-1.2 1.9-1.2 3.4 0 .8.1 1.4.3 2s .6 1 1 1.4c.4.3 1 .6 1.6.7.6.2 1.6.2 2.9.2h2.5v-4.5h-3.6v2h .4c.2 0 .3.1.3.3s-.1.3-.3.3h-.4-.1c-.2 0-.4 0-.4-.1-.1-.1-.1-.3-.1-.5v-4.2c0-.1 0-.2.1-.3s.1-.1.2-.1.2 0 .2.1c.1.1.1.2.1.3v1.7h3.6z"/><path d="m-241.4 398.2s-2.6-.6-2.9-.7c0-.3-.4-3.2-.4-3.2s-1.5 2.5-1.7 2.8c-.3-.1-2.9-.7-2.9-.7s1.8 1.9 2 2.2c0 .1-.2.3-.3.6-.7-.2-1.6-.4-2.7-.4h-3.2v8.8h4.2c1.5 0 2.5-.4 3.2-1.1s1-1.9 1-3.5c0-1.3-.3-2.2-.9-2.9h.1c.2.2 2.1 2.1 2.1 2.1s-.2-2.6-.3-2.9c.3-.1 2.7-1.1 2.7-1.1zm-7.9 7.7c0 .3-.2.5-.4.5h-.3v-5.6h.3c.2 0 .4.2.4.5zm3.5-6.4s-1 .4-1.7.6c.4-.6.9-1.6.9-1.6s-.6-.7-1.1-1.2c.7.1 1.6.4 1.6.4s.6-1.1 1.1-1.7l.2 2s .9.2 1.6.4c-.6.3-1.5.6-1.5.6s.1 1.1.2 1.8c-.6-.5-1.3-1.3-1.3-1.3z"/></g><g fill="#a07600" transform="translate(-4.6 -9.8)"><path d="m-252.4 392.6c-1.5 0-2.7-1.1-3-2.6h2.8c.3 0 1 .1 1 .1v-1.2s-.7 0-1 0h-2.8c.3-1.5 1.5-2.5 3-2.5.8 0 1.7.4 1.7.4v-1.3s-.7-.3-1.7-.3c-2.5 0-4.6 1.9-4.6 4.3 0 2.6 2.2 4.4 4.6 4.4 1.2 0 1.9-.3 1.9-.3v-1.4c-.1 0-.9.4-1.9.4"/><path d="m-260.8 393.9s.1-.6.1-1.2v-6h-.4c-.6 0-1.4 0-2 .1l-.1-1.4h6.6v1.4c-.7-.1-1.5-.1-2.1-.1h-.5v6c0 .6.1 1.2.1 1.2z"/><path d="m-250.6 384.7c-.5-.1-1.1-.2-1.6-.2-1.4 0-2.7.4-3.7 1.4v-1c1.1-.7 2.3-1.1 3.7-1.1.6 0 1.1.1 1.7.2z"/><path d="m-267.1 389.5h-1.2v-3.1h1.3.3c1.1.1 1.6.7 1.6 1.5s-.7 1.5-1.6 1.6c-.2 0-.3 0-.4 0m3.3 3.2-2.3-2.2c1.4-.1 2.6-1.2 2.6-2.5 0-1.4-.8-2.7-3.3-2.8-.1 0-.2 0-.3 0-1.7 0-2.9.1-2.9.1s.1.8.1 1.3v6.2c0 .6-.1 1.2-.1 1.2h1.7s-.1-.6-.1-1.3v-2.5l1.6 1.7.8.8c.5.5 1.4 1.3 1.4 1.3h2.3c0-.1-1-.8-1.5-1.3"/></g></svg>