<svg height="522.4184pt" viewBox="0 0 680.35975 522.41839" width="680.35974pt" xmlns="http://www.w3.org/2000/svg"><g fill="#fff"><path d="m20.619922 262.55229c7.85-2.34 14.67-6.98 22.119996-10.19 2.32-1.26 5.05.81 5.22 3.23.44 7.64-.95 15.22-.91 22.86.1 6.37-.78 12.7-.62 19.07.05 42.67-.02 85.33.04 127.99.44 5.48.12 11.77 4.19 16.07 3.66 4.48 9.82 4.87 14.61 7.5 2.34 2.11.82 5.63-.52 7.9-6.69 1.44-13.4-.74-20.1-1.04-12.299996-1.5-24.689996.11-36.8999956 1.66-2.35.62-4.19-1.19-5.98-2.37-.4-4.72 4.32-6.76 7.39-9.27 5.4399996-4.01 7.9999996-10.89 7.8499996-17.49-.02-45.33 0-90.65-.01-135.98-.27-4.72.13-10.22-3.38-13.92-3.48-3.05-8.4799996-1.88-12.4699996-3.56-1.87000005-2.4-1.57000005-7.19 1.72-8.27 5.72-2.16 12.0499996-1.91 17.7499996-4.19z"/><path d="m321.50992 279.46229c3.89-4.49 7.56-9.51 13.01-12.21 5.88 3.38 10.07 8.92 14.03 14.28 2.53 3.63 5.32 8.41 2.93 12.82-3.21 6.07-8.15 11.06-13.29 15.53-1.77 1.44-4.17 2.84-6.45 1.67-4.68-2.02-7.93-6.23-11.2-9.98-2.34-3.01-5.02-6.19-5.51-10.1.49-4.67 3.77-8.39 6.48-12.01z"/><path d="m310.69992 345.56229c12.78-2.07 24.58-7.74 36.03-13.54.59.32 1.78.97 2.37 1.3.55 2.36 1.01 4.78.74 7.23-.86 9.28-.54 18.62-.6 27.94.01 18.65 0 37.3.01 55.95.27 5.89.22 12.52 4.35 17.23 3.4 4.18 9.14 4.67 13.61 7.16 2.71 1.27 3.24 5.25 1.1 7.28-1.76 1.57-4.3 1.81-6.54 1.49-8.67-1.01-17.34-2.44-26.08-2.31-6.63.61-13.32.58-19.9 1.66-3.13.49-6.34.87-9.43-.08-.97-2.1-2.29-5.06-.12-6.9 3.2-2.48 7.27-3.94 9.7-7.36 2.8-3.71 3.59-8.53 3.57-13.08-.03-17.02-.02-34.05-.01-51.08-.03-4.94.3-9.96-.89-14.81-.76-2.85-2.82-5.41-5.73-6.23-3.83-1.06-7.88-1.18-11.63-2.56 0-2.11-.68-4.43.36-6.37 2.58-2.02 5.97-2.33 9.09-2.92z"/><path d="m237.44992 335.24229c3.09-1.31 7.42-4.14 9.7-.14-.22 8.9-.79 17.78-.88 26.69 6.64-8.16 12.91-17.09 22.19-22.49 4.73-2.8 10.79-1.67 15.23 1.2 4.97 3.15 10.2 6.98 12.36 12.68 1.48 6.56-2.5 12.67-5.56 18.15-2.05 2.97-4.6 7.43-8.84 6.62-5.57-2.22-9.42-7.25-14.92-9.64-4.96-2.67-11.89-1.92-15.41 2.72-4.04 5.62-4.68 12.81-5.04 19.51-.01 12.29-.04 24.59.02 36.89.1 5.85 1.37 12.5 6.74 15.83 4.57 3.9 11.43 2.96 15.88 6.89 3.04 3.65-1.29 7.99-5.23 7.56-10.36-.53-20.64-2.6-31.04-2.45-8.24.59-16.52.92-24.67 2.34-2.63.58-5.93-1.16-5.93-4.09-.71-3.1 2.49-4.66 4.64-5.99 3.33-1.8 6.35-4.46 7.87-7.99 1.84-4.08 1.76-8.65 1.76-13.03-.07-18.31.06-36.63-.06-54.94-.17-3.99.12-8.67-3.02-11.66-3.91-4.11-10.18-2.73-15.03-4.85-.31-2.16-1.06-4.64.42-6.54 2.68-1.86 6.05-2.19 9.15-2.93 10.32-2.04 20.17-5.88 29.67-10.34z"/><path d="m429.29992 337.78229c11.96-2.01 24.88-1.49 35.79 4.28 6.27 3.25 12.8 7.93 14.08 15.39-2.33 7.93-9.58 13.12-16.63 16.62-2.36 1.32-5.73 1.23-6.87-1.59-2.31-5.78-3.37-12.34-7.84-17.02-5.56-6.68-15.12-8.1-23.27-6.7-6.33.98-12.11 4.72-15.56 10.11-4.96 7.51-5.99 16.79-6.01 25.58.09 14.39 2.86 29.38 11.38 41.3 5.37 7.87 13.69 14.04 23.22 15.61 7.33 1.37 14.96.39 21.96-2.07 7.54-2.59 14.03-7.36 21.11-10.9 1.53-.82 3.33-.61 5.02-.77 1.73 4.69-.6 9.52-4.14 12.65-12.58 11.34-28.82 18.89-45.8 20.04-15.66 1.69-32.8-2.16-44.09-13.73-8.63-8.14-13.75-19.48-15.3-31.15-2.5-16.58.54-34.28 9.93-48.34 9.99-14.64 25.29-26.29 43.02-29.31z"/><path d="m93.749918 341.20229c9.020002.39 17.960002-.99 26.940002-1.45 3.05-.48 6.06 2.54 5.15 5.61-3.11 4.7-9.52 4.48-13.78 7.54-2.53 3.36-.94 8.15.49 11.7 7.8 15.2 15.39 30.51 23.13 45.75 1.51 3.38 3.36 6.65 5.98 9.33 2.54-2.3 4.84-4.95 5.97-8.24 4.68-12.33 9.45-24.62 14.03-36.98 1.95-6.65 3.92-14.6-.06-20.89-3.26-5.03-10.35-2.88-14.54-6.43-1.52-1.79-.1-4.08.14-6.06 10.31-3.25 20.98 1.74 31.44-.36 4.3-.28 10.41-2.52 13.34 1.87 1.3 3.19-2.6 4.91-4.54 6.65-4.33 2.77-6.97 7.34-8.94 11.96-20.9 50.41-42.15 100.67-63 151.09-1.47 3.5-3.05 7.68-7.03 8.94-4.49 1.49-9.490002 1.44-14.090002.6-3.25-.92-1.94-5.07-.58-7.07 9.430002-14.99 18.570002-30.15 27.860002-45.22 2.28-3.62 4.89-7.51 4.51-12-.48-4.85-3.31-8.99-5.33-13.3-13.26-26.7-26.960002-53.17-40.130002-79.91-2.71-5.54-6.1-11.03-11.35-14.49-2-1.78-5.24-3.04-5.5-6.04.54-1.86 2.26-2.92 3.61-4.15 8.75.72 17.47 1.96 26.28 1.55z"/><path d="m549.70992 360.44229c5.41-4.81 12.48-9.06 20.01-7.71 2.34.42 5.33 1.97 5.05 4.77-.25 5.23-2.15 10.6-6.12 14.16-2.13-2.36-3.51-5.23-5.25-7.85-2.19-3.43-7.72-2.52-9.6.76-2.75 4.45-2.59 9.92-3.15 14.95-.15 5.82-.53 11.71.39 17.5 3.88-.29 8.21.84 11.68-1.42 1.16-.65 2.32-1.27 3.5-1.88.06 2.43-.43 4.82-1.27 7.1-.53.8-1.05 1.62-1.56 2.45-4.09.82-8.27.64-12.41.62-1.03 11.18-.19 22.43-.49 33.64.11 3.75-.28 7.94 1.95 11.2 1.93 2.41 5.21 2.83 7.84 4.15.13 1.39.06 2.79.04 4.19-5.6.46-11.09-1.12-16.68-.95-5.22-.11-10.34 1.28-15.56.98-1.33-3.73 2.86-5.1 4.81-7.39 3.34-3.59 2.13-8.85 2.35-13.28-.26-10.83.5-21.7-.41-32.49-3.21-.3-6.83.65-9.75-.81.02-1.98-.4-4.59 1.53-5.83 2.44-.46 4.94-.22 7.4-.53 2.06-3.43 1.41-7.63 1.99-11.42.94-9.75 6.39-18.6 13.71-24.91z"/><path d="m569.69992 400.77229c7.81-1.53 15.13-4.6 22.33-7.88 2.22 3.69.68 8.11.52 12.12 5.79-5.28 12.71-10.77 21.06-10.02 7.24-.14 12.81 5.52 15.54 11.74 4.91-4.49 9.98-9.34 16.58-11.13 5.4-1.3 11.67-.85 16.18 2.68 4.36 3.47 6.32 8.99 7.3 14.29 1.64 9.86.56 19.88 1.01 29.81.22 2.68.69 5.76 3.03 7.48 2.11 1.38 4.61 2.01 6.78 3.3.73 1.1.01 2.53.08 3.78-5.51.71-10.93-.93-16.42-.83-5.14-.03-10.2 1.05-15.34 1.1-1.85-4.1 3.12-5.44 4.96-8.15 2.14-3.44 1.47-7.73 1.61-11.57-.24-8.97.89-18.35-2.47-26.89-3.18-8.74-18.45-8.02-20.68 1.03-1.2 5.22-.51 10.62-.69 15.93.17 6.29-.53 12.69.85 18.88 1.17 4.42 6.26 5.02 9.72 6.9-.55 1.46-.25 4.01-2.5 3.81-4.2.23-8.33-1.01-12.53-1-5.4-.34-10.7 1.11-16.08.89-.2-.65-.6-1.95-.8-2.6 2.4-2.52 6.02-4.57 6.35-8.38.76-7.49.46-15.04.24-22.54-.15-5.19-.6-10.73-3.65-15.11-3.12-4.33-9.4-4.62-14.04-3-4.47 1.58-5.92 6.69-6.05 10.98-.12 7.68-.05 15.37-.05 23.06.25 3.46.07 7.63 2.98 10.1 2.35 1.72 5.24 2.47 7.88 3.67-.12 1.27-.24 2.54-.35 3.83-5.83.56-11.55-1.14-17.36-.93-5.21-.14-10.32 1.31-15.53.89-.1-1.08-.15-2.15-.13-3.21 1.74-1.63 3.94-2.7 5.53-4.48 1.82-2.53 1.67-5.81 1.71-8.77-.05-9.04.01-18.08-.02-27.12-.16-2.41-.13-5.51-2.5-6.88-2.1-.86-4.41-1.01-6.56-1.67-.7-1.58-.7-3.97 1.51-4.11z"/></g><g fill="#512f90" transform="matrix(20.869882 0 0 20.869882 5771.5667 -8009.8607)"><path d="m-252.4 392.6c-1.5 0-2.7-1.1-3-2.6h2.8c.3 0 1 .1 1 .1v-1.2s-.7 0-1 0h-2.8c.3-1.5 1.5-2.5 3-2.5.8 0 1.7.4 1.7.4v-1.3s-.7-.3-1.7-.3c-2.5 0-4.6 1.9-4.6 4.3 0 2.6 2.2 4.4 4.6 4.4 1.2 0 1.9-.3 1.9-.3v-1.4c-.1 0-.9.4-1.9.4"/><path d="m-260.8 393.9s.1-.6.1-1.2v-6h-.4c-.6 0-1.4 0-2 .1l-.1-1.4h6.6v1.4c-.7-.1-1.5-.1-2.1-.1h-.5v6c0 .6.1 1.2.1 1.2z"/><path d="m-250.6 384.7c-.5-.1-1.1-.2-1.6-.2-1.4 0-2.7.4-3.7 1.4v-1c1.1-.7 2.3-1.1 3.7-1.1.6 0 1.1.1 1.7.2z"/><path d="m-267.1 389.5h-1.2v-3.1h1.3.3c1.1.1 1.6.7 1.6 1.5s-.7 1.5-1.6 1.6c-.2 0-.3 0-.4 0m3.3 3.2-2.3-2.2c1.4-.1 2.6-1.2 2.6-2.5 0-1.4-.8-2.7-3.3-2.8-.1 0-.2 0-.3 0-1.7 0-2.9.1-2.9.1s.1.8.1 1.3v6.2c0 .6-.1 1.2-.1 1.2h1.7s-.1-.6-.1-1.3v-2.5l1.6 1.7.8.8c.5.5 1.4 1.3 1.4 1.3h2.3c0-.1-1-.8-1.5-1.3"/></g></svg>