<svg height="26.6" viewBox="-283 374 26.1 26.6" width="26.1" xmlns="http://www.w3.org/2000/svg"><g fill="#fff" transform="translate(-9.8 -9.8)"><g fill="#fff"><path d="m-255.2 401.5v-1.2h-2.6v-1.3h2.9v-1.2h-4.1v6h1.2v-2.3z" fill="#fff"/><path d="m-253.9 397.8v6h1.3v-4l1.8 3.5h.7l1.7-3.5v4h1.3v-6h-1.8l-1.6 3.4-1.6-3.4z" fill="#fff"/></g><g fill="#fff"><path d="m-260.9 408.7h-6.8l1.5-1.3h4z"/><path d="m-269.8 410.4 1.5-1.3h8l1.3 1.3z"/><path d="m-261.2 400.9c0 1.7-1.7 3.2-2.7 4s-6.6 5.4-6.6 5.4l-1.2-1.1 5-4.1s2.2-1.6 3.4-3.3.7-2.9.7-3.1c.1-.1 1.4.9 1.4 2.2z"/><path d="m-272 408.8-1.2-1.1 5.6-4.5s2.2-1.6 3.1-3.5c.3-.7.4-1.2.4-1.5 0-.5-.1-.8-.1-.8s1.3.8 1.2 2.2c-.1 1.5-1.6 3.1-2.3 3.7s-1.9 1.6-2.1 1.8-4.6 3.7-4.6 3.7z"/><path d="m-268.7 401.2-1.2-1.1s1-1.9 2.5-2.6 2.6-.4 2.7-.3c0 0 .2.4.2.8 0 0-1 0-2.3.9-.4.3-.7.6-1 1-.5.5-.8 1.2-.9 1.3z"/><path d="m-270.2 399.7-1.2-1.1s.8-1.7 2.2-2.5c1.4-.7 3.2-.6 4.2.4 0 0-1.5-.2-2.9.7-.6.3-1 .8-1.4 1.2-.6.7-.9 1.3-.9 1.3z"/></g></g><g fill="#f05a28" transform="translate(-9.8 -9.8)"><path d="m-252.4 392.6c-1.5 0-2.7-1.1-3-2.6h2.8c.3 0 1 .1 1 .1v-1.2s-.7 0-1 0h-2.8c.3-1.5 1.5-2.5 3-2.5.8 0 1.7.4 1.7.4v-1.3s-.7-.3-1.7-.3c-2.5 0-4.6 1.9-4.6 4.3 0 2.6 2.2 4.4 4.6 4.4 1.2 0 1.9-.3 1.9-.3v-1.4c-.1 0-.9.4-1.9.4"/><path d="m-260.8 393.9s.1-.6.1-1.2v-6h-.4c-.6 0-1.4 0-2 .1l-.1-1.4h6.6v1.4c-.7-.1-1.5-.1-2.1-.1h-.5v6c0 .6.1 1.2.1 1.2z"/><path d="m-250.6 384.7c-.5-.1-1.1-.2-1.6-.2-1.4 0-2.7.4-3.7 1.4v-1c1.1-.7 2.3-1.1 3.7-1.1.6 0 1.1.1 1.7.2z"/><path d="m-267.1 389.5h-1.2v-3.1h1.3.3c1.1.1 1.6.7 1.6 1.5s-.7 1.5-1.6 1.6c-.2 0-.3 0-.4 0m3.3 3.2-2.3-2.2c1.4-.1 2.6-1.2 2.6-2.5 0-1.4-.8-2.7-3.3-2.8-.1 0-.2 0-.3 0-1.7 0-2.9.1-2.9.1s.1.8.1 1.3v6.2c0 .6-.1 1.2-.1 1.2h1.7s-.1-.6-.1-1.3v-2.5l1.6 1.7.8.8c.5.5 1.4 1.3 1.4 1.3h2.3c0-.1-1-.8-1.5-1.3"/></g></svg>