<?xml version="1.0" encoding="UTF-8" standalone="no"?>
<svg
   xmlns:dc="http://purl.org/dc/elements/1.1/"
   xmlns:cc="http://creativecommons.org/ns#"
   xmlns:rdf="http://www.w3.org/1999/02/22-rdf-syntax-ns#"
   xmlns:svg="http://www.w3.org/2000/svg"
   xmlns="http://www.w3.org/2000/svg"
   xmlns:sodipodi="http://sodipodi.sourceforge.net/DTD/sodipodi-0.dtd"
   xmlns:inkscape="http://www.inkscape.org/namespaces/inkscape"
   width="499.68039pt"
   height="274.57718pt"
   viewBox="0 0 499.68039 274.57718"
   version="1.1"
   id="svg2"
   inkscape:version="0.91 r13725"
   sodipodi:docname="RTE Radio 1.svg">
  <metadata
     id="metadata44">
    <rdf:RDF>
      <cc:Work
         rdf:about="">
        <dc:format>image/svg+xml</dc:format>
        <dc:type
           rdf:resource="http://purl.org/dc/dcmitype/StillImage" />
        <dc:title></dc:title>
      </cc:Work>
    </rdf:RDF>
  </metadata>
  <defs
     id="defs42" />
  <sodipodi:namedview
     pagecolor="#ffffff"
     bordercolor="#666666"
     borderopacity="1"
     objecttolerance="10"
     gridtolerance="10"
     guidetolerance="10"
     inkscape:pageopacity="0"
     inkscape:pageshadow="2"
     inkscape:window-width="1920"
     inkscape:window-height="1017"
     id="namedview40"
     showgrid="false"
     fit-margin-top="0"
     fit-margin-left="0"
     fit-margin-right="0"
     fit-margin-bottom="0"
     inkscape:zoom="0.83911111"
     inkscape:cx="185.60736"
     inkscape:cy="197.31598"
     inkscape:window-x="-8"
     inkscape:window-y="-8"
     inkscape:window-maximized="1"
     inkscape:current-layer="svg2" />
  <path
     inkscape:connector-curvature="0"
     style="opacity:1;fill:#ffffff;fill-opacity:1"
     id="path13"
     d="m 360.06,160.39431 c 13.8,-1.97 28.31,1.11 39.84,9.02 14.35,9.3 24.03,25.34 25.58,42.36 1.37,13.29 -2.17,27.04 -9.83,37.99 -8.85,13.07 -23.39,21.93 -38.96,24.23 -12.3,1.7 -25.26,-0.28 -36.12,-6.45 -14.16,-7.47 -24.78,-21.33 -28.36,-36.93 -3.47,-14.62 -1.07,-30.67 7,-43.4 8.81,-14.32 24.1,-24.66 40.85,-26.82 m -1.15,11.9 c -9.87,2.14 -19,7.6 -25.36,15.47 -8.61,10.44 -12.43,24.8 -9.69,38.1 2.5,13.16 10.96,25.17 22.81,31.52 10.34,5.96 23.19,7.25 34.57,3.74 19.59,-5.9 33.53,-26.07 32.07,-46.48 -0.66,-15.14 -9.46,-29.62 -22.56,-37.2 -9.48,-5.59 -21.08,-7.48 -31.84,-5.15 z" />
  <path
     inkscape:connector-curvature="0"
     style="opacity:1;fill:#ffffff;fill-opacity:1"
     id="path15"
     d="m 0,161.65431 c 11.86,-0.14 24,-0.83 35.59,2.21 8.87,2.21 17.07,8.65 19.48,17.74 2.89,10.44 1.69,22.67 -5.41,31.21 -5.08,6.21 -12.93,9.51 -20.8,10.19 11.84,16.56 23.46,33.3396 35.31,49.8796 l -14.92,0 c -11.61,-16.07 -22.57,-32.5696 -33.82,-48.8996 -1.08,0.07 -2.15,0.16 -3.22,0.24 l 0.09,48.6596 -12.27,0 L 0,161.65431 m 12.24,11.48 0.02,39.87 c 8.24,0.23 17.03,0.13 24.35,-4.17 6.41,-3.81 8.29,-12.09 7.4,-19.03 -0.35,-5.68 -3.54,-11.29 -8.8,-13.72 -7.15,-3.35 -15.28,-2.88 -22.97,-2.95 z"
     sodipodi:nodetypes="cccccccccccccccccc" />
  <path
     inkscape:connector-curvature="0"
     style="opacity:1;fill:#ffffff;fill-opacity:1"
     id="path17"
     d="m 69.39,272.82431 48.9,-111.37 4.52,0 47.55,111.4296 -13.9,0 -12.86,-31.6396 -47.289996,-0.02 -13.480004,31.6596 -13.44,0 m 50.8,-87.3396 -18.67,44.02 36.96,0.01 z"
     sodipodi:nodetypes="ccccccccccccc" />
  <path
     inkscape:connector-curvature="0"
     style="opacity:1;fill:#ffffff;fill-opacity:1"
     id="path19"
     d="m 181.92,161.84431 c 11.18,0.01 22.4,-0.55 33.56,0.43 12.42,1.03 24.35,6.48 33.2,15.25 20.57,20.4 20.95,57.44 0.74,78.23 -7.8,8.17 -18.17,14.01 -29.38,15.79 -12.58,1.83 -25.36,1.27 -38.03,1.2 l -0.09,-110.9 m 12.4,11.42 0.14,88.02 c 9.65,-0.06 19.57,0.44 28.87,-2.66 14.1,-4.58 24.74,-17.56 27.62,-31.96 2.71,-13 -0.32,-27.25 -8.62,-37.68 -5.88,-7.45 -14.47,-12.66 -23.79,-14.44 -7.95,-1.84 -16.14,-1.09 -24.22,-1.28 z"
     sodipodi:nodetypes="cccccccccccccc" />
  <path
     inkscape:connector-curvature="0"
     style="opacity:1;fill:#ffffff;fill-opacity:1"
     id="path21"
     d="m 281.62,161.54471 12.11,0 0.16,111.3096 -12.17,0.03 z"
     sodipodi:nodetypes="ccccc" />
  <path
     inkscape:connector-curvature="0"
     style="opacity:1;fill:#ffffff;fill-opacity:1"
     id="path23"
     d="m 475.06,161.80471 24.6204,0 0,111.1 -12.38,0 0,-99.4704 -18.5104,0 z"
     sodipodi:nodetypes="ccccccc" />
  <g
     id="RTE"
     style="fill:#54a0d4;fill-opacity:1"
     transform="matrix(13.252784,0,0,13.252784,3698.8746,-5086.4185)">
    <g
       class="st0"
       id="g53"
       style="display:none;fill:#54a0d4;fill-opacity:1">
      <path
         class="st4"
         d="m -254.5,392.1 c -1.1,0 -2.1,-0.8 -2.2,-1.9 l 2.1,0 c 0.2,0 0.7,0.1 0.7,0.1 l 0,-0.9 c 0,0 -0.5,0 -0.8,0 l -2.1,0 c 0.2,-1.1 1.1,-1.9 2.2,-1.9 0.6,0 1.3,0.3 1.3,0.3 l 0,-1 c 0,0 -0.5,-0.2 -1.3,-0.2 -1.9,0 -3.5,1.4 -3.5,3.2 0,2 1.6,3.3 3.5,3.3 0.9,0 1.4,-0.2 1.4,-0.2 l 0,-1 c 0.1,-0.1 -0.5,0.2 -1.3,0.2"
         id="path55"
         style="display:inline;fill:#54a0d4;fill-opacity:1"
         inkscape:connector-curvature="0" />
      <path
         class="st4"
         d="m -260.8,393 c 0,0 0.1,-0.5 0.1,-0.9 l 0,-4.5 -0.3,0 c -0.4,0 -1.1,0 -1.5,0 l 0,-1 5,0 0,1 c -0.5,0 -1.1,0 -1.6,0 l -0.4,0 0,4.5 c 0,0.4 0.1,0.9 0.1,0.9 l -1.4,0 z"
         id="path57"
         style="display:inline;fill:#54a0d4;fill-opacity:1"
         inkscape:connector-curvature="0" />
      <path
         class="st4"
         d="m -253.1,386.1 c -0.4,-0.1 -0.8,-0.2 -1.2,-0.2 -1.1,0 -2,0.3 -2.8,1 l 0,-0.8 c 0.8,-0.6 1.8,-0.8 2.8,-0.8 0.5,0 0.8,0.1 1.3,0.2 l -0.1,0.6 z"
         id="path59"
         style="display:inline;fill:#54a0d4;fill-opacity:1"
         inkscape:connector-curvature="0" />
      <path
         class="st4"
         d="m -263.1,392.1 -1.7,-1.7 c 1.1,-0.1 2,-0.9 2,-1.9 0,-1.1 -0.6,-2 -2.5,-2.1 -0.1,0 -0.2,0 -0.2,0 -1.3,0 -2.2,0.1 -2.2,0.1 0,0 0.1,0.6 0.1,0.9 l 0,4.7 c 0,0.4 -0.1,0.9 -0.1,0.9 l 1.3,0 c 0,0 -0.1,-0.4 -0.1,-1 l 0,-1.9 1.2,1.3 0.6,0.6 c 0.4,0.4 1,0.9 1,0.9 l 1.7,0 c 0.1,0.1 -0.7,-0.4 -1.1,-0.8 m -2.5,-2.4 -0.9,0 0,-2.3 c 0,0 0.5,0 1,0 0.1,0 0.2,0 0.2,0 0.9,0.1 1.2,0.5 1.2,1.1 0,0.6 -0.5,1.1 -1.2,1.2 -0.1,0 -0.2,0 -0.3,0"
         id="path61"
         style="display:inline;fill:#54a0d4;fill-opacity:1"
         inkscape:connector-curvature="0" />
    </g>
    <g
       class="st0"
       id="g63"
       style="display:none;fill:#54a0d4;fill-opacity:1">
      <path
         class="st4"
         d="m -279.1,399.1 0.3,0 c 1.2,0 2.2,0.1 2.2,1.6 0,1.4 -1.1,1.6 -2.2,1.6 l -0.3,0 0,-3.2 0,0 z m 0,4.1 0.2,0 2.7,3.9 1.2,0 -2.8,-4 c 1.3,-0.1 2.2,-1.1 2.2,-2.4 0,-2 -1.5,-2.4 -3.2,-2.4 l -1.3,0 0,8.8 1,0 0,-3.9 0,0 z"
         id="path65"
         style="display:inline;fill:#54a0d4;fill-opacity:1"
         inkscape:connector-curvature="0" />
      <path
         class="st4"
         d="m -264.6,406.1 0,-7 0.7,0 c 1,0 1.9,0.1 2.7,0.9 0.8,0.7 1.1,1.6 1.1,2.6 0,1 -0.4,1.9 -1.1,2.6 -0.8,0.8 -1.7,0.9 -2.8,0.9 l -0.6,0 0,0 z m -1,0.9 1.6,0 c 1.4,0 2.4,-0.2 3.5,-1.1 1,-0.9 1.4,-2 1.4,-3.3 0,-1.3 -0.5,-2.5 -1.5,-3.4 -1,-0.9 -2.1,-1.1 -3.4,-1.1 l -1.6,0 0,8.9 0,0 z"
         id="path67"
         style="display:inline;fill:#54a0d4;fill-opacity:1"
         inkscape:connector-curvature="0" />
      <polygon
         class="st4"
         points="-257.7,398.2 -256.8,398.2 -256.8,407 -256.8,407 -257.7,407 "
         id="polygon69"
         style="display:inline;fill:#54a0d4;fill-opacity:1" />
      <path
         class="st4"
         d="m -250.9,399 c 2,0 3.6,1.6 3.6,3.6 0,2 -1.6,3.6 -3.6,3.6 -2,0 -3.6,-1.7 -3.6,-3.6 0,-2 1.6,-3.6 3.6,-3.6 l 0,0 z m 0,-0.9 c -2.5,0 -4.6,2 -4.6,4.6 0,2.5 2.1,4.5 4.6,4.5 2.5,0 4.6,-2 4.6,-4.5 0,-2.6 -2.1,-4.6 -4.6,-4.6 l 0,0 z"
         id="path71"
         style="display:inline;fill:#54a0d4;fill-opacity:1"
         inkscape:connector-curvature="0" />
      <polygon
         class="st4"
         points="-240.5,407 -241.4,407 -241.4,399.2 -242.9,399.2 -242.9,399.2 -242.4,398.2 -240.5,398.2 "
         id="polygon73"
         style="display:inline;fill:#54a0d4;fill-opacity:1" />
      <path
         class="st4"
         d="m -270.3,398.2 -0.4,0 -3.9,8.8 1.1,0 1.1,-2.5 3.7,0 1,2.5 1.1,0 -3.7,-8.8 0,0 z m -1.7,5.4 1.5,-3.5 1.5,3.5 -3,0 0,0 z"
         id="path75"
         style="display:inline;fill:#54a0d4;fill-opacity:1"
         inkscape:connector-curvature="0" />
    </g>
    <g
       id="g77"
       style="fill:#54a0d4;fill-opacity:1">
      <path
         class="st3"
         d="m -252.4,392.6 c -1.5,0 -2.7,-1.1 -3,-2.6 l 2.8,0 c 0.3,0 1,0.1 1,0.1 l 0,-1.2 c 0,0 -0.7,0 -1,0 l -2.8,0 c 0.3,-1.5 1.5,-2.5 3,-2.5 0.8,0 1.7,0.4 1.7,0.4 l 0,-1.3 c 0,0 -0.7,-0.3 -1.7,-0.3 -2.5,0 -4.6,1.9 -4.6,4.3 0,2.6 2.2,4.4 4.6,4.4 1.2,0 1.9,-0.3 1.9,-0.3 l 0,-1.4 c -0.1,0 -0.9,0.4 -1.9,0.4"
         id="path79"
         style="fill:#54a0d4;fill-opacity:1"
         inkscape:connector-curvature="0" />
      <path
         class="st3"
         d="m -260.8,393.9 c 0,0 0.1,-0.6 0.1,-1.2 l 0,-6 -0.4,0 c -0.6,0 -1.4,0 -2,0.1 l -0.1,-1.4 6.6,0 0,1.4 c -0.7,-0.1 -1.5,-0.1 -2.1,-0.1 l -0.5,0 0,6 c 0,0.6 0.1,1.2 0.1,1.2 l -1.7,0 z"
         id="path81"
         style="fill:#54a0d4;fill-opacity:1"
         inkscape:connector-curvature="0" />
      <path
         class="st3"
         d="m -250.6,384.7 c -0.5,-0.1 -1.1,-0.2 -1.6,-0.2 -1.4,0 -2.7,0.4 -3.7,1.4 l 0,-1 c 1.1,-0.7 2.3,-1.1 3.7,-1.1 0.6,0 1.1,0.1 1.7,0.2 l -0.1,0.7 z"
         id="path83"
         style="fill:#54a0d4;fill-opacity:1"
         inkscape:connector-curvature="0" />
      <path
         class="st3"
         d="m -267.1,389.5 -1.2,0 0,-3.1 c 0,0 0.6,0 1.3,0 0.1,0 0.2,0 0.3,0 1.1,0.1 1.6,0.7 1.6,1.5 0,0.8 -0.7,1.5 -1.6,1.6 -0.2,0 -0.3,0 -0.4,0 m 3.3,3.2 -2.3,-2.2 c 1.4,-0.1 2.6,-1.2 2.6,-2.5 0,-1.4 -0.8,-2.7 -3.3,-2.8 -0.1,0 -0.2,0 -0.3,0 -1.7,0 -2.9,0.1 -2.9,0.1 0,0 0.1,0.8 0.1,1.3 l 0,6.2 c 0,0.6 -0.1,1.2 -0.1,1.2 l 1.7,0 c 0,0 -0.1,-0.6 -0.1,-1.3 l 0,-2.5 1.6,1.7 0.8,0.8 c 0.5,0.5 1.4,1.3 1.4,1.3 l 2.3,0 c 0,-0.1 -1,-0.8 -1.5,-1.3"
         id="path85"
         style="fill:#54a0d4;fill-opacity:1"
         inkscape:connector-curvature="0" />
    </g>
  </g>
</svg>
