<svg height="23.299999" viewBox="-283 374 31.5 23.3" width="31.5" xmlns="http://www.w3.org/2000/svg"><path d="m-276.2 400.2c0-.4 0-.8-.1-1.3h1l .1.5c0-.4.3-.5.8-.5h3.1c1.2 0 1.6.4 1.6 1.5v2.9c0 1.2-.4 1.5-1.5 1.5h-3.1c-.30781-.002-.7-.1-.8-.4v1.4c0 .4 0 .8.1 1.3h-1.3c.1-.4.1-.8.1-1.3zm1.1 3.4c0 .5.1.7.5.7h3.3c.4 0 .5-.1.5-.7v-3.5c0-.5-.1-.7-.5-.7h-3.3c-.4 0-.5.1-.5.7zm6.4-3.4c0-.4 0-.8-.1-1.3h1.2v4.7c0 .5.1.7.5.7h3.4c.4 0 .5-.1.5-.7v-3.4c0-.4 0-.8-.1-1.3h1.2v4.7c0 .4 0 .8.1 1.2h-1.1l-.1-.4c0 .1-.1.2-.2.3s-.3.1-.4.1h-3.4c-1.1 0-1.5-.4-1.5-1.5zm9-3.4v6.8c0 .4 0 .8.1 1.3h-1.3c.1-.4.1-.8.1-1.2v-5.7c0-.4 0-.8-.1-1.3zm5.8 4.4c1.1 0 1.5.4 1.5 1.5v1.1c0 .7-.4 1-1.4 1h-4.7l-.1-.7c.4.1.8.1 1.3.1h3.5c.4 0 .5-.1.5-.7v-.7c0-.5-.1-.7-.5-.7h-3.2c-1.1 0-1.5-.4-1.5-1.5v-.3c0-1.2.4-1.5 1.5-1.5h4.6l.1.7c-.4-.1-.8-.1-1.3-.1h-3.4c-.4 0-.5.1-.5.7v.4c0 .5.1.7.5.7zm3.5 1v1.4c0 .5.1.7.5.7h3.8c.4 0 .8 0 1.3-.1l-.1.7h-5c-1.1 0-1.5-.4-1.5-1.5v-2.9c0-1.2.4-1.5 1.5-1.5h3.6c1.1 0 1.5.4 1.5 1.5v1.8zm4.5-.5v-1.5c0-.5-.1-.7-.5-.7h-3.4c-.4 0-.5.1-.5.7v1.5z" fill="#fff" transform="translate(-6.7 -9.8)"/><g fill="#e31836" transform="translate(-6.7 -9.8)"><path d="m-252.4 392.6c-1.5 0-2.7-1.1-3-2.6h2.8c.3 0 1 .1 1 .1v-1.2s-.7 0-1 0h-2.8c.3-1.5 1.5-2.5 3-2.5.8 0 1.7.4 1.7.4v-1.3s-.7-.3-1.7-.3c-2.5 0-4.6 1.9-4.6 4.3 0 2.6 2.2 4.4 4.6 4.4 1.2 0 1.9-.3 1.9-.3v-1.4c-.1 0-.9.4-1.9.4"/><path d="m-260.8 393.9s.1-.6.1-1.2v-6h-.4c-.6 0-1.4 0-2 .1l-.1-1.4h6.6v1.4c-.7-.1-1.5-.1-2.1-.1h-.5v6c0 .6.1 1.2.1 1.2z"/><path d="m-250.6 384.7c-.5-.1-1.1-.2-1.6-.2-1.4 0-2.7.4-3.7 1.4v-1c1.1-.7 2.3-1.1 3.7-1.1.6 0 1.1.1 1.7.2z"/><path d="m-267.1 389.5h-1.2v-3.1h1.3.3c1.1.1 1.6.7 1.6 1.5s-.7 1.5-1.6 1.6c-.2 0-.3 0-.4 0m3.3 3.2-2.3-2.2c1.4-.1 2.6-1.2 2.6-2.5 0-1.4-.8-2.7-3.3-2.8-.1 0-.2 0-.3 0-1.7 0-2.9.1-2.9.1s.1.8.1 1.3v6.2c0 .6-.1 1.2-.1 1.2h1.7s-.1-.6-.1-1.3v-2.5l1.6 1.7.8.8c.5.5 1.4 1.3 1.4 1.3h2.3c0-.1-1-.8-1.5-1.3"/></g></svg>