<svg height="369.99756pt" viewBox="0 0 514.21704 369.99756" width="514.21704pt" xmlns="http://www.w3.org/2000/svg"><g fill="#263b68"><path d="m33.781006 292.68431c15.99-.65 32.03-.1 48.04-.28 131.330004-.01 262.660004.01 393.990004-.01 8.34.07 16.71 2.77 23.27 8 10.98 8.29 16.88 22.82 14.68 36.41-1.78 13.38-11.31 25.34-23.84 30.29-5.09 2.17-10.68 2.91-16.18 2.87-143.29-.02-286.59.01-429.890004 0-5.28.12-10.64-.02-15.75-1.52-9.18-2.48-17.14-8.74-22.2199999-16.71-6.53000008-10.25-7.66-23.63-3.2-34.91 5.01-12.87 17.3399999-22.57 31.0999999-24.14"/><path d="m367.33101 160.39431c13.8-1.97 28.31 1.11 39.84 9.02 14.35 9.3 24.03 25.34 25.58 42.36 1.37 13.29-2.17 27.04-9.83 37.99-8.85 13.07-23.39 21.93-38.96 24.23-12.3 1.7-25.26-.28-36.12-6.45-14.16-7.47-24.78-21.33-28.36-36.93-3.47-14.62-1.07-30.67 7-43.4 8.81-14.32 24.1-24.66 40.85-26.82m-1.15 11.9c-9.87 2.14-19 7.6-25.36 15.47-8.61 10.44-12.43 24.8-9.69 38.1 2.5 13.16 10.96 25.17 22.81 31.52 10.34 5.96 23.19 7.25 34.57 3.74 19.59-5.9 33.53-26.07 32.07-46.48-.66-15.14-9.46-29.62-22.56-37.2-9.48-5.59-21.08-7.48-31.84-5.15z"/><path d="m7.2710061 161.65431c11.8599999-.14 23.9999999-.83 35.5899999 2.21 8.87 2.21 17.07 8.65 19.48 17.74 2.89 10.44 1.69 22.67-5.41 31.21-5.08 6.21-12.93 9.51-20.8 10.19 11.84 16.56 23.46 33.3396 35.31 49.8796h-14.92c-11.61-16.07-22.57-32.5696-33.82-48.8996-1.08.07-2.15.16-3.22.24l.09 48.6596h-12.2699999l-.03-111.2296m12.2399999 11.48.02 39.87c8.24.23 17.03.13 24.35-4.17 6.41-3.81 8.29-12.09 7.4-19.03-.35-5.68-3.54-11.29-8.8-13.72-7.15-3.35-15.28-2.88-22.97-2.95z"/><path d="m76.661006 272.82431 48.900004-111.37h4.52l47.55 111.4296h-13.9l-12.86-31.6396-47.29-.02-13.480004 31.6596h-13.44m50.800004-87.3396-18.67 44.02 36.96.01z"/><path d="m189.19101 161.84431c11.18.01 22.4-.55 33.56.43 12.42 1.03 24.35 6.48 33.2 15.25 20.57 20.4 20.95 57.44.74 78.23-7.8 8.17-18.17 14.01-29.38 15.79-12.58 1.83-25.36 1.27-38.03 1.2zm12.4 11.42.14 88.02c9.65-.06 19.57.44 28.87-2.66 14.1-4.58 24.74-17.56 27.62-31.96 2.71-13-.32-27.25-8.62-37.68-5.88-7.45-14.47-12.66-23.79-14.44-7.95-1.84-16.14-1.09-24.22-1.28z"/><path d="m288.89101 161.54471h12.11l.16 111.3096-12.17.03z"/><path d="m482.33101 161.80471h24.6204v111.1h-12.38v-99.4704h-18.5104z"/></g><g fill="#fff" transform="translate(-177.17899 -252.28569)"><path d="m434.52 557.39c10.93-.03 21.86-.09 32.79.03-.08 3.96 0 7.93-.08 11.9-6.02-.23-12.05-.08-18.07-.12-.05 3.02-.07 6.05-.09 9.08 5.78.03 11.56-.17 17.34.11-.16 3.8-.15 7.6-.06 11.4-5.74-.06-11.48.14-17.21-.05-.06 2.93-.05 5.86.01 8.8 6.05-.03 12.1-.1 18.16.01-.04 4-.13 8.02.13 12.03-10.97.2-21.94.15-32.91.03.09-17.74.11-35.48-.01-53.22z"/><path d="m473.19 557.38c5.84-.08 11.69.03 17.53-.03 2.53 5.33 5.59 10.39 7.98 15.78 2.88-5.24 5.29-10.73 8.35-15.87 5.75.18 11.49.06 17.24.12-5.8 8.59-11.75 17.1-17.74 25.56 6.41 9.34 13.46 18.26 19.48 27.84-5.42-.14-10.84-.09-16.25-.1l-.71-.51c-3.12-6.52-7.49-12.4-10.26-19.09-3.02 6.83-7.39 12.95-10.77 19.6-5.61-.09-11.22.16-16.83-.1 6.63-9.29 13.18-18.62 19.79-27.92-5.93-8.44-12.06-16.73-17.81-25.28z"/><path d="m527.49 557.42c12.9-.09 25.81-.16 38.71.08-.1 4.25-.03 8.5-.05 12.76-3.98-.02-7.96-.11-11.93.01.12 13.42-.07 26.85.11 40.27-4.98.24-9.97.18-14.95.07.29-13.43-.01-26.86.15-40.28-3.97-.13-7.95-.14-11.93-.04-.09-4.29 0-8.58-.11-12.87z"/><path d="m574.14 557.38c7.98.05 15.97-.25 23.94.2 5.6.25 11.51 2.87 14.04 8.14 2.49 5.3 2.67 11.95-.26 17.12-2.04 3.46-5.75 5.4-9.49 6.48 3.07 4.71 6.32 9.29 9.43 13.96 1.67 2.39 2.98 5.11 5.35 6.92 5.88-17.66 12.26-35.15 18.1-52.82 6.17.01 12.36-.06 18.54-.01 5.89 17.85 12.42 35.49 18.2 53.37-4.83-.08-9.65-.13-14.47.01-.97-3.12-1.86-6.26-2.66-9.42-6.86-.13-13.72-.22-20.57-.05-.91 3.11-1.79 6.23-2.54 9.39-10.57-.02-21.13-.03-31.7.02-3.87-6.77-7.8-13.49-11.82-20.17 0 6.68-.11 13.36.03 20.05-4.7.18-9.41.12-14.11.06.11-17.75.15-35.5-.01-53.25m70.57 9.28c-2.25 8.04-4.65 16.04-7.23 23.98 4.74.04 9.48.05 14.22.02-2.31-8.01-5.33-15.82-6.99-24m-56.49 1.81c0 4.64.03 9.29-.08 13.93 2.99-.05 6.34.39 8.93-1.45 3.3-2.11 3.01-7.08 1.01-9.98-2.52-2.61-6.56-2.11-9.86-2.5z"/></g><g fill="#263b68" transform="matrix(13.252784 0 0 13.252784 3706.1456 -5086.4185)"><path d="m-252.4 392.6c-1.5 0-2.7-1.1-3-2.6h2.8c.3 0 1 .1 1 .1v-1.2s-.7 0-1 0h-2.8c.3-1.5 1.5-2.5 3-2.5.8 0 1.7.4 1.7.4v-1.3s-.7-.3-1.7-.3c-2.5 0-4.6 1.9-4.6 4.3 0 2.6 2.2 4.4 4.6 4.4 1.2 0 1.9-.3 1.9-.3v-1.4c-.1 0-.9.4-1.9.4"/><path d="m-260.8 393.9s.1-.6.1-1.2v-6h-.4c-.6 0-1.4 0-2 .1l-.1-1.4h6.6v1.4c-.7-.1-1.5-.1-2.1-.1h-.5v6c0 .6.1 1.2.1 1.2z"/><path d="m-250.6 384.7c-.5-.1-1.1-.2-1.6-.2-1.4 0-2.7.4-3.7 1.4v-1c1.1-.7 2.3-1.1 3.7-1.1.6 0 1.1.1 1.7.2z"/><path d="m-267.1 389.5h-1.2v-3.1h1.3.3c1.1.1 1.6.7 1.6 1.5s-.7 1.5-1.6 1.6c-.2 0-.3 0-.4 0m3.3 3.2-2.3-2.2c1.4-.1 2.6-1.2 2.6-2.5 0-1.4-.8-2.7-3.3-2.8-.1 0-.2 0-.3 0-1.7 0-2.9.1-2.9.1s.1.8.1 1.3v6.2c0 .6-.1 1.2-.1 1.2h1.7s-.1-.6-.1-1.3v-2.5l1.6 1.7.8.8c.5.5 1.4 1.3 1.4 1.3h2.3c0-.1-1-.8-1.5-1.3"/></g></svg>