<?xml version="1.0" encoding="UTF-8" standalone="no"?>
<svg
   xmlns:ns="&amp;#38;ns_sfw;"
   xmlns:dc="http://purl.org/dc/elements/1.1/"
   xmlns:cc="http://creativecommons.org/ns#"
   xmlns:rdf="http://www.w3.org/1999/02/22-rdf-syntax-ns#"
   xmlns:svg="http://www.w3.org/2000/svg"
   xmlns="http://www.w3.org/2000/svg"
   xmlns:sodipodi="http://sodipodi.sourceforge.net/DTD/sodipodi-0.dtd"
   xmlns:inkscape="http://www.inkscape.org/namespaces/inkscape"
   version="1.1"
   x="0px"
   y="0px"
   width="31.5"
   height="23.299999"
   viewBox="-283 374 31.5 23.3"
   xml:space="preserve"
   id="svg2"
   inkscape:version="0.91 r13725"
   sodipodi:docname="RTE Pulse.svg"><defs
     id="defs161" /><sodipodi:namedview
     pagecolor="#ffffff"
     bordercolor="#666666"
     borderopacity="1"
     objecttolerance="10"
     gridtolerance="10"
     guidetolerance="10"
     inkscape:pageopacity="0"
     inkscape:pageshadow="2"
     inkscape:window-width="1920"
     inkscape:window-height="1017"
     id="namedview159"
     showgrid="false"
     inkscape:zoom="22.627417"
     inkscape:cx="10.12544"
     inkscape:cy="10.899866"
     inkscape:window-x="-8"
     inkscape:window-y="-8"
     inkscape:window-maximized="1"
     inkscape:current-layer="svg2"
     fit-margin-top="0"
     fit-margin-left="0"
     fit-margin-right="0"
     fit-margin-bottom="0" /><style
     type="text/css"
     id="style4"> .st0{display:none;} .st1{display:inline;fill:#48A0D2;} .st2{display:inline;} .st3{fill:#FFFFFF;} .st4{display:inline;fill:#FFFFFF;}</style><metadata
     id="metadata6"><ns:sfw><ns:slices /><ns:sliceSourceBounds
         width="51.7"
         height="45"
         bottomLeftOrigin="true"
         y="0"
         x="0" /></ns:sfw><rdf:RDF><cc:Work
         rdf:about=""><dc:format>image/svg+xml</dc:format><dc:type
           rdf:resource="http://purl.org/dc/dcmitype/StillImage" /><dc:title></dc:title></cc:Work></rdf:RDF></metadata><g
     id="Layer_2"
     class="st0"
     style="display:none"
     transform="translate(-6.7,-9.8)"><circle
       class="st1"
       cx="-260.5"
       cy="396.5"
       r="22.5"
       id="circle9"
       style="display:inline;fill:#48a0d2" /></g><g
     id="Radio1"
     class="st0"
     style="display:none"
     transform="translate(-6.7,-9.8)"><g
       class="st2"
       id="g12"
       style="display:inline"><path
         class="st3"
         d="m -274.5,402 0.2,0 2.2,3.1 1,0 -2.2,-3.2 c 1.1,-0.1 1.7,-0.8 1.7,-1.9 0,-1.6 -1.2,-1.9 -2.6,-1.9 l -1.1,0 0,7.1 0.7,0 0.1,-3.2 0,0 z m 0,-3.3 0.2,0 c 0.9,0 1.8,0.1 1.8,1.2 0,1.1 -0.9,1.2 -1.7,1.2 l -0.3,0 0,-2.4 z"
         id="path14"
         inkscape:connector-curvature="0"
         style="fill:#ffffff" /><path
         class="st3"
         d="m -263.7,405.1 1.3,0 c 1.1,0 1.9,-0.2 2.8,-0.9 0.7,-0.7 1.2,-1.6 1.2,-2.7 0,-1.1 -0.3,-2 -1.2,-2.7 -0.8,-0.7 -1.7,-0.8 -2.7,-0.8 l -1.3,0 -0.1,7.1 0,0 z m 0.8,-0.8 0,-5.6 0.5,0 c 0.8,0 1.6,0.1 2.2,0.7 0.6,0.5 0.9,1.3 0.9,2.2 0,0.7 -0.3,1.5 -0.9,2.1 -0.7,0.6 -1.3,0.7 -2.2,0.7 l -0.5,-0.1 0,0 z"
         id="path16"
         inkscape:connector-curvature="0"
         style="fill:#ffffff" /><rect
         x="-257.39999"
         y="398"
         class="st3"
         width="0.69999999"
         height="7.0999999"
         id="rect18"
         style="fill:#ffffff" /><path
         class="st3"
         d="m -251.8,397.9 c -2,0 -3.7,1.7 -3.7,3.7 0,2 1.7,3.7 3.7,3.7 2,0 3.7,-1.6 3.7,-3.7 -0.1,-2.1 -1.7,-3.7 -3.7,-3.7 m 0,0.7 c 1.6,0 2.9,1.3 2.9,2.9 0,1.6 -1.2,2.9 -2.9,2.9 -1.6,0 -2.9,-1.3 -2.9,-2.9 0,-1.6 1.2,-2.9 2.9,-2.9"
         id="path20"
         inkscape:connector-curvature="0"
         style="fill:#ffffff" /><polygon
         class="st3"
         points="-245,398 -245.4,398.7 -244.2,398.7 -244.2,405.1 -243.4,405.1 -243.4,398 "
         id="polygon22"
         style="fill:#ffffff" /><path
         class="st3"
         d="m -267.6,399.5 1.2,2.8 -2.4,0 1.2,-2.8 z m -0.2,-1.5 -3.1,7.1 0.8,0 0.8,-2 3,0 0.8,2 0.8,0 -3,-7.1 -0.1,0 z"
         id="path24"
         inkscape:connector-curvature="0"
         style="fill:#ffffff" /></g></g><g
     id="rnag"
     class="st0"
     style="display:none"
     transform="translate(-6.7,-9.8)"><path
       class="st4"
       d="m -274.2,403.7 c 0,0.1 0.1,0.2 0.1,0.5 l 0,1.4 c 0,0 -0.9,-1.1 -0.9,-1.1 l -0.3,-0.4 -0.2,-0.3 c -0.1,-0.1 -0.1,-0.1 -0.2,-0.1 l -0.6,0 0.1,0.1 c 0.1,0.1 0.1,0.3 0.1,0.5 l 0,0.9 c 0,0.4 0,0.8 -0.1,1.2 l 0,0.1 0.7,0 0,-0.1 c -0.1,-0.3 -0.1,-0.6 -0.1,-0.9 0,0 0,-0.9 0,-1.1 0.1,0.1 1.5,2.1 1.5,2.1 l 0.4,0 0,-0.2 0,-0.3 0,-1.6 c 0,-0.2 0,-0.4 0.1,-0.6 l 0.1,-0.1 -0.7,0 0,0 z m 1.8,1.2 c 0.1,-0.1 0.3,-0.8 0.3,-0.8 0,0 0,0 0,0 0,0 0,0 0,0 0,0 0.2,0.6 0.3,0.8 l -0.6,0 z m 0.8,-1 -0.1,-0.3 -0.6,0 0,0.2 c 0,0.3 -0.9,2 -1.1,2.3 l -0.2,0.2 0.7,0 0,-0.2 c 0,-0.2 0.2,-0.6 0.4,-0.9 l 0.9,0 c 0,0.1 0.5,1.1 0.5,1.1 l 0.6,0 -0.1,-0.2 c -0.5,-0.7 -0.7,-1.4 -1,-2.2 m 14.1,0.1 c 0.3,0 0.5,-0.1 0.6,-0.2 l 0,-0.1 -2.3,0 -0.2,0.5 0.2,-0.1 c 0.1,-0.1 0.2,-0.1 0.3,-0.1 l 0.5,0 0,1.8 c 0,0.2 0,0.4 -0.1,0.5 l -0.1,0.1 0.8,0 -0.1,-0.1 c -0.1,-0.1 -0.1,-0.3 -0.1,-0.5 l 0,-1.8 0.5,0 z m 8.5,-0.3 0,0 -0.8,-0.1 0.1,0.1 c 0.1,0.1 0.1,0.3 0.1,0.5 l 0,0.5 -1.1,0 0,-0.5 c 0,-0.2 0,-0.4 0.1,-0.5 l 0.1,-0.1 -0.8,0 0.1,0.1 c 0.1,0.1 0.1,0.3 0.1,0.5 l 0,1.5 c 0,0.2 0,0.4 -0.1,0.5 l -0.1,0.1 0.8,0 -0.1,-0.1 c -0.1,-0.1 -0.1,-0.3 -0.1,-0.5 l 0,-0.7 1.1,0 0,0.7 c 0,0.2 0,0.3 -0.1,0.5 l -0.1,0.1 0.8,0 -0.1,-0.1 c -0.1,-0.1 -0.1,-0.3 -0.1,-0.5 l 0,-1.5 c 0.1,-0.2 0.1,-0.3 0.2,-0.5 m 2.2,0.3 c 0.3,0 0.5,-0.1 0.6,-0.2 l 0,-0.1 -2.3,0 -0.2,0.5 0.2,-0.1 c 0.1,-0.1 0.2,-0.1 0.3,-0.1 l 0.5,0 0,1.8 c 0,0.2 0,0.4 -0.1,0.5 l -0.1,0.1 0.8,0 -0.1,-0.1 c -0.1,-0.1 -0.1,-0.3 -0.1,-0.5 l 0,-1.8 0.5,0 z m -5.8,2 c -0.3,0 -0.6,-0.1 -0.7,-0.3 -0.2,-0.2 -0.2,-0.4 -0.2,-0.8 0,-0.2 0.1,-1 0.9,-1 0.4,0 0.5,0.2 0.6,0.3 l 0.1,0.2 0,-0.2 0,-0.6 -0.4,0 -0.3,0 c -0.9,0 -1.5,0.6 -1.5,1.5 0,0.4 0.1,0.8 0.4,1 0.2,0.2 0.6,0.4 0.9,0.4 0.7,0 1,-0.4 1,-0.6 l 0,-0.2 -0.1,0.1 c -0.1,0 -0.3,0.2 -0.7,0.2 m 7.2,-1.1 c 0.1,-0.1 0.3,-0.8 0.3,-0.8 0,0 0,0 0,0 0,0 0,0 0,0 0,0 0.2,0.6 0.3,0.8 l -0.6,0 z m 0.9,-0.9 -0.1,-0.3 -0.6,0 0,0.2 c 0,0.3 -0.9,2 -1.1,2.3 l -0.2,0.2 0.7,0 0,-0.2 c 0,-0.2 0.2,-0.7 0.4,-0.9 l 0.9,0 c 0,0.1 0.5,1.1 0.5,1.1 l 0.6,0 -0.1,-0.2 c -0.5,-0.8 -0.8,-1.5 -1,-2.2 m -17.7,2.1 -0.4,0 0,-1 0,0 c 0.3,0 0.8,0 1,-0.3 l 0.1,-0.1 -0.1,0 c -0.3,0 -0.6,0 -0.9,0 l 0,-0.8 0.3,0 c 0.2,0 0.4,0 0.6,0.1 l 0.1,0.1 0,-0.5 -1.7,0 0.1,0.1 c 0.1,0.1 0.1,0.3 0.1,0.5 l 0,1.5 c 0,0.2 0,0.4 -0.1,0.5 l -0.1,0.1 1.4,0 0.3,0 0.1,0 0.1,-0.6 -0.1,0.1 c -0.3,0.2 -0.6,0.3 -0.8,0.3 m -3.2,-1.2 c 0.1,-0.1 0.3,-0.8 0.3,-0.8 0,0 0,0 0,0 0,0 0,0 0,0 0,0 0.2,0.6 0.3,0.8 l -0.6,0 z m 0.9,-0.9 -0.1,-0.3 -0.6,0 0,0.2 c 0,0.3 -0.9,2 -1.1,2.3 l -0.2,0.2 0.7,0 0,-0.2 c 0,-0.2 0.2,-0.6 0.4,-0.9 l 0.9,0 c 0,0.1 0.5,1.1 0.5,1.1 l 0.6,0 -0.1,-0.2 c -0.5,-0.8 -0.8,-1.5 -1,-2.2 m 4.4,2.1 -0.3,0 0,-1.8 c 0,-0.2 0,-0.4 0.1,-0.5 l 0.1,-0.1 -0.8,0 0.1,0.1 c 0.1,0.1 0.1,0.3 0.1,0.5 l 0,1.1 c 0,0.3 0,0.8 -0.1,0.9 l -0.1,0.1 1.3,0 0.3,0 0,0 0.1,-0.6 -0.2,0.1 c -0.1,0.1 -0.3,0.2 -0.6,0.2 m -7.2,-1.1 c 0.1,0.1 0.1,0.3 0.1,0.5 l 0,0.2 c 0,0.1 0,0.2 0,0.4 -0.1,0 -0.3,0 -0.3,0 -0.9,0 -1.1,-0.6 -1.1,-1.2 0,-0.5 0.3,-1.1 1,-1.1 0.3,0 0.5,0.1 0.8,0.3 l 0.1,0.1 0,-0.6 -0.2,0 -0.5,0 c -1.1,0 -1.8,0.6 -1.8,1.5 0,0.9 0.5,1.4 1.6,1.4 0.3,0 0.7,0 0.9,-0.1 l 0.1,0 0,-0.4 0,-0.4 c 0,-0.2 0,-0.4 0.1,-0.5 l 0.1,-0.1 -0.8,0 -0.1,0 z m 11.3,-0.1 c 0.1,-0.1 0.3,-0.8 0.3,-0.8 0,0 0,0 0,0 0,0 0,0 0,0 0,0 0.2,0.6 0.3,0.8 l -0.6,0 z m 0.8,-0.9 -0.1,-0.3 -0.6,0 0,0.2 c 0,0.3 -0.9,2 -1.1,2.3 l -0.2,0.2 0.7,0 0,-0.2 c 0,-0.2 0.2,-0.6 0.4,-0.9 l 0.9,0 c 0,0.1 0.5,1.1 0.5,1.1 l 0.6,0 -0.1,-0.2 c -0.5,-0.8 -0.8,-1.5 -1,-2.2 m 10,-4.4 c 0,0 0,0 0,0 0,0.1 0,0.1 0,0.1 0.1,0 0,-0.1 0,-0.1 m 0.5,-1.8 c 0,0 0,-0.1 0,-0.1 -0.1,0 -0.1,0 0,0.1 -0.1,0 -0.1,0 0,0 -0.1,0 -0.1,0 0,0 m 1.1,1.6 c 0,0 0,0.1 0,0.1 0.1,0 0.1,0 0.2,0 0,0 0,0 0,0 -0.1,0 -0.2,-0.1 -0.2,-0.1 m -2.4,-1.5 c 0,0 0,0 0,0 0,0 0,0 0,0 0,0.1 0,0 0,0 m -3.9,1.9 c 0,0.1 0,0.1 0,0.2 0,-0.1 0,-0.2 0,-0.2 0,-0.1 0,-0.1 0,0 m -0.3,0.2 c 0,0.1 0,0.2 0,0.3 0,0 0.3,0.5 0.4,0.5 0,0.1 -0.1,-0.1 -0.1,-0.1 0,0 0,0 0,0 0,0 0,0 0,0 0,0 0,0 0,0 0.1,0 0.4,0.6 0.6,0.7 0.3,0.2 0.7,0.7 1.1,0.8 0.2,0 0.2,0.4 0.4,0.4 0,0 0,0 0,0 0,0 -0.1,0 -0.1,0 0,0 0,0 0,0 0.2,0 0.5,0 0.7,0 0,0 0,0 0.1,0 0,0 0,0 0,-0.1 0,0 0,0 0,0 0,0 -0.1,0 -0.1,0 0,0 0,0 0,0 0,0 0,0 0,0 0,0 0.3,0 0.3,0 0.3,0 0.1,0.1 0.3,0.1 0.4,0 0.8,0 1,-0.2 0.2,-0.1 0.2,-0.3 0.4,-0.4 0,0.1 0,0 0.1,0 0.1,0 0.2,-0.1 0.3,-0.2 0,-0.1 0.2,-0.1 0.2,-0.1 0.1,-0.1 0.2,-0.1 0.2,-0.1 l 0,0 c 0,0 0,0 0,0 0,0 0,0 0,0 0,-0.3 0.2,-0.3 0.3,-0.6 0,0 0,0 0,0 0.1,0 0.1,0 0.2,0 0,-0.1 0,-0.2 -0.1,-0.3 0,0 0.1,0 0.1,-0.1 0,0 0,0 0,0 0,0 0,0 0,0 0,0 0,0 0,0 0,-0.1 0,-0.1 0,-0.2 0,-0.1 0,-0.1 0,-0.2 0,-0.1 0,-0.2 0,-0.3 0,0 0,0 0,0 0,0 -0.1,0 -0.1,0 0,0 0.3,-0.1 0.3,-0.1 0,0 -0.1,0 -0.1,0 0,0 -0.1,-0.3 -0.1,-0.4 -0.1,0 -0.1,0 -0.1,-0.1 0,0 0,0 0,0 0,0 0,0 0,0 0,0 0,0 0,-0.1 0,0 0,0 0,0 0,-0.1 0,-0.1 0,-0.2 -0.1,-0.3 -0.3,-0.5 -0.4,-0.8 0,-0.1 0,-0.3 -0.1,-0.4 0,0 -0.1,-0.1 -0.1,-0.1 -0.2,-0.2 -0.1,-0.3 -0.4,-0.3 0,0 0.2,0.2 0.2,0.3 0.1,0 0,0.1 0,0.1 0.1,0 0.1,0.1 0.1,0.1 0,0 0,0 0,0 0,0 0,0 -0.1,0 0,-0.1 -0.3,-0.5 -0.4,-0.6 -0.1,-0.1 -0.1,-0.2 -0.2,-0.3 0,0 0,0 0,0 0,-0.1 -0.1,0 -0.1,-0.1 0,-0.1 0,-0.1 -0.1,-0.2 0,0 0,0 0,-0.1 0,0 0,0 0,0 0,0 0,0 0,0 0,0 0,0 -0.1,0.1 -0.1,0 -0.4,-0.2 -0.5,-0.2 0,0 0,0 0,0 0,0 0,0 0,0 -0.1,0 -0.3,-0.1 -0.4,0 -0.4,0 -0.6,0 -0.9,0.2 -0.1,0.1 -0.1,0.1 -0.1,0.2 0,0.3 0.8,0.2 1.1,0.2 0,0 0,0 0,0.1 0,0 0,0.4 0,0.5 0.1,0 0.1,0 0.2,0.1 0,0 0,0 0,0 0,0 0,0 0,0 0,0 0,0 0,0 0,0 0,0 0,-0.1 0,0 0,0 0.1,0.1 0,0 0,0 0,0 0,0 0,0 0,0 0,0 0,0 0,-0.1 0,0 0,0 0.1,0 0.2,0 0.2,0.3 0.1,0.3 0,0 0,0.2 0,0.3 0,0 0.1,0 0.1,0 0,0 0,0 0,0 0,0 0,0 0,-0.1 0,-0.3 0.2,-0.3 0.4,-0.3 0,0.1 0.1,0.2 0.1,0.2 0,0.1 0,0.1 0.1,0.2 0,0.1 0.1,0.2 0.1,0.2 0,0 0,0.1 0.1,0.1 0,0 0,0 0,0 0,0 0.1,0.5 0,0.6 0,0 0,0 0,0.1 0,0 0,0 0,0.1 0,0.2 0,0.5 -0.1,0.6 0,0 0,-0.1 -0.1,-0.1 -0.1,0.1 -0.2,0.2 -0.2,0.3 -0.1,0.2 -0.3,0.3 -0.4,0.5 -0.1,0.1 -0.2,0.2 -0.3,0.3 0,0 0,0 0,0 0.2,0 0.7,-0.6 0.8,-0.8 0,0 0,0 0,0 0,0.2 -0.4,0.6 -0.4,0.7 0,0 0,0 -0.1,0 0,0 -0.1,0 -0.1,0 0,0 0,0 0,0 0,0 0,0 0,0 0,0 0,0 0,0 0,0 0,0 0,0 0,0 0,0 0,0 0,0 0,0 0,0 0,0 0,0 0,0 0,0 -0.1,0 -0.1,0 0,0 0,0.1 0,0.1 0,0.1 -0.3,0.2 -0.4,0.2 -0.1,0.1 -0.2,0.1 -0.3,0.1 -0.1,0 -0.2,0.1 -0.4,0.1 0,0 0,0 0,0 -0.1,0 -0.1,0.1 -0.1,0.2 0,0 0,0 0,0 0,0 -0.1,0 -0.1,0 -0.2,0 -0.5,0.1 -0.7,0 0,0 0,0 0,0 -0.1,0 -0.3,-0.1 -0.3,0 -0.2,0 -0.2,-0.5 -0.3,-0.5 0,0.1 0,0.2 0,0.2 0,0 0,0 -0.1,0 0,0 0,0 0,0 0,0 0,0 0,0.1 0.1,0 0.1,0.1 0.2,0.1 0,0 0,0 0,0 -0.1,0 -0.5,-0.1 -0.6,-0.2 -0.2,-0.2 -0.3,-0.5 -0.5,-0.6 -0.2,-0.3 -0.3,-0.5 -0.4,-0.8 0,0 0,0 0,0.1 0.1,0.1 0.1,0.2 0.1,0.3 0,0.1 0.1,0.2 0.1,0.3 0.1,0.2 0.4,0.5 0.6,0.6 0,0 0,0.1 0,0.1 0,0 0,0 0,-0.1 -0.1,-0.1 -0.1,-0.2 -0.2,-0.2 -0.3,-0.3 -0.5,-0.6 -0.6,-1 -0.1,-0.2 0,-0.5 -0.1,-0.6 -0.1,-0.2 0,-0.6 -0.1,-0.8 -0.1,-0.1 0,-0.2 0,-0.4 -0.1,0 0,0.5 0,0.5 0,0 0,0 -0.1,0 0,0 0,-0.1 0,-0.1 0,0 0,0 0,0 0,0 0,0 -0.1,0 0,0.1 0,0.1 0,0.1 0,0.4 -0.1,0.6 -0.1,1 0.3,0.1 0.4,0.2 0.4,0.3 m 5,2.4 c 0,0 0,0 0,0 -0.1,0 0,0 0,0 0,0 0,0 0,0 m -0.2,0.3 c 0,-0.1 0.1,-0.2 0.2,-0.2 0,0 0,0 0,-0.1 0,0 -0.1,0 -0.1,0 0,0 -0.1,0.1 -0.1,0.1 0,0.1 0,0.1 0,0.2 0,0 0,0 0,0 0,0 0,0 0,0 0,0 0,0 0,0 m -22.1,-5 c 0,0 0.1,-0.2 0.2,-0.2 0.1,0 0.2,0.2 0.2,0.2 l 0.7,2 -1.9,0 0.8,-2 z m -1.1,2.4 2.2,0 1.1,2.6 1.1,0 -0.2,-0.3 c -1,-1.7 -1.6,-3.8 -2.3,-5.7 l -1.2,0 0,0.3 c 0,0.8 -2.1,4.8 -2.6,5.5 l -0.2,0.3 1.2,0 c 0,-0.1 0,-0.2 0,-0.4 0.1,-0.6 0.5,-1.5 0.9,-2.3 m -6.4,-2.7 c 0,-0.2 0,-0.3 0,-0.5 l 0.5,0 c 0.9,0 1.5,0.1 1.5,1.1 0,0.9 -0.5,1.4 -1.5,1.4 -0.1,0 -0.3,0 -0.4,0 l 0,-2 z m 0.2,5.3 c -0.2,-0.3 -0.2,-0.8 -0.2,-1.2 l 0,-1.7 c 0.6,0 0.6,0.2 1.1,0.8 l 1.2,1.6 c 0.2,0.3 0.4,0.5 0.8,0.5 l 0.8,0 c -0.4,-0.4 -0.5,-0.5 -0.8,-0.9 l -1.7,-2.3 c 0.7,-0.3 1.5,-0.8 1.5,-1.7 0,-0.7 -0.5,-1.3 -1.5,-1.3 -0.8,0 -1.6,0.1 -2.4,0.1 0.2,0.3 0.2,0.8 0.2,1.2 l 0,3.5 c 0,0.4 0,0.9 -0.3,1.3 l 1.3,0 z m 23.3,-6 -1.3,0 c 0.2,0.3 0.2,0.8 0.2,1.2 l 0,3.5 c 0,0.4 0,0.9 -0.2,1.2 l 1.3,0 c -0.2,-0.3 -0.2,-0.8 -0.2,-1.2 l 0,-3.5 c 0,-0.4 0,-0.9 0.2,-1.2 m -11.5,6 1.3,0 c -0.2,-0.3 -0.2,-0.8 -0.2,-1.2 l 0,-3.5 c 0,-0.4 0,-0.9 0.2,-1.2 l -1.3,0 c 0.2,0.3 0.2,0.8 0.2,1.2 l 0,3.5 c 0,0.4 0,0.9 -0.2,1.2 m 17.2,-1.6 c 0,0 0,0 0,0 0,0 0,0 0,0 0,0 0,0 0,0 m -13,-3.6 c 0,-0.1 0,-0.3 0,-0.4 0.2,0 0.6,-0.1 0.9,-0.1 1.8,0 2.7,1 2.7,2.7 0,1.5 -0.6,2.7 -2.4,2.7 -1.1,0 -1.3,0 -1.3,-0.7 l 0,-4.2 z m -1.1,5.2 c 0.7,0 1.4,0 2.4,0 1.9,0 3.4,-1.2 3.4,-3.3 0,-1.7 -1.1,-2.9 -2.8,-2.9 -1,0 -2,0.1 -3,0.1 0.2,0.3 0.2,0.8 0.2,1.2 l 0,3.5 c 0,0.6 0,1.1 -0.2,1.4 m 14.1,-1.6 c 0,-0.1 0.1,-0.1 0,0 0.1,-0.1 0,-0.1 0,0 m -1.3,-6.7 0,0 c 0,0.1 0,0 0,0 m -0.8,1 0,0 0,0 c 0,0 0,0 0,0 0,0 0,0 0,0 0.1,0 0.1,0 0.2,0 0,0 0,0 0,-0.1 0,0 0,0 0,0 0,0 0,0 0.1,0 0.1,0 0.1,0 0.2,0.1 l 0,0 c 0,0 0,0 0,0 l 0,0 0,0 c 0,0 0,0.1 0,0.1 l 0,0 0,0 c 0,0 0,-0.2 0,-0.3 0,0 0.1,0 0.1,0 l 0,0 c 0,-0.1 0.1,-0.1 0.2,-0.1 0,0 0.1,0 0.1,0 0,0 0.1,0 0.1,0 0,0 0,0 0,-0.1 0.1,0 0.2,0.1 0.3,0.2 0,0 0,0 0,0 0,0 0,0 0,0 l 0,0 c 0,0 0,0 0,0 0,0 0.1,0 0.1,0 0,0 0,0 0,0 0,0 0.1,0 0.1,0 0.1,0 0.1,0 0.2,0 0.2,0.1 0.3,0.1 0.5,0.1 0.1,0 0.2,0 0.4,0 0,0 0,0 0,-0.1 0,0 0.1,0 0.1,-0.1 l 0,0 c 0,0 0,0 0,0 0.1,0 0.2,0.1 0.3,0.2 0,0 0,0 0.1,0 0,0 0,0.1 0.1,0.1 0.1,0.1 0.3,0.2 0.5,0.2 l 0,0 c 0,0 0,0 0,0 0,-0.1 -0.1,-0.1 -0.2,-0.2 0,0 -0.1,0 -0.1,-0.1 0,0 0,-0.1 -0.1,-0.1 -0.1,-0.1 -0.2,-0.1 -0.3,-0.2 0,-0.1 -0.2,-0.1 -0.3,-0.1 l 0,0 c 0,0 0,0 0,0 l 0,0 0,0 c 0,0 0,-0.1 0,-0.1 0,0 0,0 0,0 0,0 -0.1,0 -0.1,0 l 0,0 c 0,0 0,-0.1 0,-0.1 0,0 0,0 -0.1,0 l 0,0 0,0 c 0,0.1 0,0.1 -0.1,0.1 l 0,0 c 0,0 0,-0.1 -0.1,-0.1 0,0 0,0.1 0,0.1 l 0,0 c 0,-0.1 0,-0.2 0.1,-0.3 l 0,0 c -0.1,0 -0.1,-0.1 -0.1,-0.1 0,0 -0.1,0 -0.1,0 0,0 -0.1,0 -0.1,0 0,0 0,0 0,0.1 l 0,0 c 0,0 0,0 0,-0.1 l 0,0 c 0,0 0,0.1 0,0.1 0,0 -0.1,-0.1 -0.1,-0.1 0,0 0,0 0,0.1 0,0 0,0 0,0 0,0 0,0 -0.1,0 l 0,0 0,0 c 0,0 0,0 0,-0.1 0,0 0,0 -0.1,-0.1 0,0 0,0 0,-0.1 l 0,0 c 0,0 -0.1,0 -0.1,0 0,0 -0.1,0 -0.1,0.1 0,0 -0.1,0 -0.1,0 l 0,0 c 0,0 0,0 0,0 l 0,0 0,0 c 0,0 0,0 0,0 -0.1,0 -0.1,0.1 -0.2,0.1 l 0,0 0,0 c 0,0 0,0 0,-0.1 l 0,0 0,0 c 0,0 0,0 0,0 l -0.1,0 0,0 0,0 c 0,0.1 -0.1,0.1 -0.1,0.1 -0.1,0 -0.2,0 -0.3,0 -0.2,0.1 -0.5,0.2 -0.6,0.4 0,0.1 0,0.1 0,0.2 l 0,0 c -0.4,0.3 -0.3,0.4 -0.2,0.4 m 2.4,1.4 c 0,0 0,0 0,0 0,0 0,0 0,0 m 0.7,-1.6 0,0 c 0,0.1 0,0.1 0,0 0,0 0,0 0,0 l 0,0 z m -0.3,2.1 c 0,0 0,0 0,0 0,-0.1 0,-0.1 0,0 0,-0.1 0,0 0,0 m 0.2,-2.2 0,0 c 0,0 0.1,0 0.1,0 l 0,0 c 0,0.1 -0.1,0 -0.1,0 -0.1,-0.1 -0.1,-0.1 -0.2,-0.1 0.1,0.1 0.2,0.1 0.2,0.1 0.1,0.1 0,0.1 0,0 m 0.8,0.8 c 0,0 0,0 0,0 0,0 0,0 0,0 0,0 0,0 0,0 m -3.2,4.8 c 0.1,0 0.7,-0.1 0.8,-0.2 0.2,-0.2 0.4,-0.7 0.5,-1 0,-0.1 0,-0.2 0,-0.3 0,-0.1 0,-0.2 0,-0.3 -0.2,-0.4 -0.7,-0.9 -1.1,-0.6 -0.1,0.1 -0.2,0.1 -0.2,0.2 0,0.1 0.1,0.2 0.1,0.3 0,0 -0.1,0 -0.1,0 0,0 0,0 0,0 0,0.1 -0.1,0 -0.1,0 0,0 0,0.1 0,0.1 -0.1,0 -0.1,0.2 -0.2,0.2 0.1,0 0.1,0.2 0.1,0.2 0,0 0,0 0,0 0,0 0,0 0.1,0 0,0 0,0 0,0 0,0 0,0 0.1,0 0,0.2 -0.2,0.1 -0.4,0.1 0,0 -0.1,0 -0.1,0 0,0 0,0 0,0 0,0 0,0 -0.1,0 0,-0.1 -0.3,-0.1 -0.4,-0.1 0,-0.1 -0.1,-0.1 -0.1,-0.2 -0.1,-0.2 -0.1,-0.3 -0.1,-0.5 0,-0.3 0.2,-0.5 0.3,-0.8 0,-0.1 0.1,-0.2 0.1,-0.4 0.1,-0.1 0.2,-0.2 0.3,-0.3 0,0 0,0 0,-0.1 0,-0.1 -0.1,-0.1 -0.1,-0.1 -0.4,0.2 -0.5,0.4 -0.7,0.8 -0.1,0.2 -0.2,0.4 -0.3,0.6 0,0.2 0,0.3 0,0.5 0,0.2 0,0.4 0,0.6 0.2,1 1,1.4 1.6,1.3 m 3.4,-4.7 0,0 c -0.1,0 -0.1,0 0,0 l 0,0 0,0 0,0 0,0 0,0 z m -0.7,-0.9 0,0 0,0 0,0 0,0 0,0 c 0,0 -0.1,0 0,0 -0.1,0 -0.1,0 0,0 0,0 -0.1,0 0,0 m 0.4,0.8 c 0,0 -0.1,0 0,0 -0.1,0 -0.1,0 0,0 0,0 0,0 0,0 m 0.5,3.5 c 0.1,0.1 0.1,0 0,0 0,0 0,0 0,0 0.1,0 0,0 0,0 m -5.2,1.9 c 0,0 0,0 0,0 0,0 0,0 0,0 m 3.6,-1.5 c 0,0 0.1,0.1 0.1,0.2 0,0 0,0 0,0 0.1,-0.1 0,-0.2 -0.1,-0.2 m 0.8,1.9 c 0,0 0,0 0,0 0,0 0,0 0,0 0,0 0,0 0,0 m -4.4,-0.5 c 0,0 0,0 0,0 0,0 -0.1,0 0,0 0,0.1 0,0.1 0,0 0,0.1 0,0 0,0 m 4.2,-3.4 c 0,0 0,0 0,0 0,0 0,0 0,0 m -1.3,3.5 c -0.1,-0.1 -0.1,-0.1 0,0 -0.1,-0.1 -0.1,0 0,0 -0.1,0 0,0 0,0 m -3.9,-4.1 c 0.1,-0.1 0.2,-0.3 0.2,-0.5 -0.1,0.2 -0.2,0.4 -0.3,0.6 0,0 0,0 0,0 0.1,0 0.1,0 0.1,-0.1 m 3.7,0.7 c 0,0.1 0,0.1 0,0 0,0.1 0,0.1 0,0 0,0.1 -0.1,0.1 0,0 0,0.1 0,0.1 0,0.1 0,0 0,0 0.1,0 -0.1,0 -0.1,0 -0.1,-0.1 0,0.1 0,0.1 0,0 0,0.1 0,0.1 0,0 0,0 0,0 0,0 m -1.6,1.7 c 0,0 -0.1,0 0,0 -0.1,0 0,0 0,0 0,0 0,0 0,0 0,0 0,0 0,0 m 0.5,2 c 0,0 0,0 0,0 0,0 -0.1,0 -0.2,0 0,0 0,0 0,0 0,0 0.2,0 0.2,0 0,0 0,0 0,0 0,0 0,0 0,0 m -0.8,-0.5 c 0,0 0,0 0,0 0,-0.1 -0.1,-0.1 -0.2,-0.1 0.1,0 0.1,0 0.2,0.1"
       id="path27"
       inkscape:connector-curvature="0"
       style="display:inline;fill:#ffffff" /></g><g
     id="_x32_fm"
     class="st0"
     style="display:none"
     transform="translate(-6.7,-9.8)"><g
       class="st2"
       id="g30"
       style="display:inline"><g
         id="g32"><polygon
           class="st3"
           points="-257.8,399 -254.9,399 -254.9,397.8 -259,397.8 -259,403.8 -257.8,403.8 -257.8,401.5 -255.2,401.5 -255.2,400.3 -257.8,400.3 "
           id="polygon34"
           style="fill:#ffffff" /><polygon
           class="st3"
           points="-252.6,399.8 -250.8,403.3 -250.1,403.3 -248.4,399.8 -248.4,403.8 -247.1,403.8 -247.1,397.8 -248.9,397.8 -250.5,401.2 -252.1,397.8 -253.9,397.8 -253.9,403.8 -252.6,403.8 "
           id="polygon36"
           style="fill:#ffffff" /></g><g
         id="g38"><polygon
           class="st3"
           points="-262.2,407.4 -260.9,408.7 -267.7,408.7 -266.2,407.4 "
           id="polygon40"
           style="fill:#ffffff" /><polygon
           class="st3"
           points="-259,410.4 -269.8,410.4 -268.3,409.1 -260.3,409.1 "
           id="polygon42"
           style="fill:#ffffff" /><path
           class="st3"
           d="m -261.2,400.9 c 0,1.7 -1.7,3.2 -2.7,4 -1,0.8 -6.6,5.4 -6.6,5.4 l -1.2,-1.1 5,-4.1 c 0,0 2.2,-1.6 3.4,-3.3 1.2,-1.7 0.7,-2.9 0.7,-3.1 0.1,-0.1 1.4,0.9 1.4,2.2 z"
           id="path44"
           inkscape:connector-curvature="0"
           style="fill:#ffffff" /><path
           class="st3"
           d="m -272,408.8 -1.2,-1.1 5.6,-4.5 c 0,0 2.2,-1.6 3.1,-3.5 0.3,-0.7 0.4,-1.2 0.4,-1.5 0,-0.5 -0.1,-0.8 -0.1,-0.8 0,0 1.3,0.8 1.2,2.2 -0.1,1.5 -1.6,3.1 -2.3,3.7 -0.7,0.6 -1.9,1.6 -2.1,1.8 -0.2,0.2 -4.6,3.7 -4.6,3.7 z"
           id="path46"
           inkscape:connector-curvature="0"
           style="fill:#ffffff" /><path
           class="st3"
           d="m -268.7,401.2 -1.2,-1.1 c 0,0 1,-1.9 2.5,-2.6 1.5,-0.7 2.6,-0.4 2.7,-0.3 0,0 0.2,0.4 0.2,0.8 0,0 -1,0 -2.3,0.9 -0.4,0.3 -0.7,0.6 -1,1 -0.5,0.5 -0.8,1.2 -0.9,1.3 z"
           id="path48"
           inkscape:connector-curvature="0"
           style="fill:#ffffff" /><path
           class="st3"
           d="m -270.2,399.7 -1.2,-1.1 c 0,0 0.8,-1.7 2.2,-2.5 1.4,-0.7 3.2,-0.6 4.2,0.4 0,0 -1.5,-0.2 -2.9,0.7 -0.6,0.3 -1,0.8 -1.4,1.2 -0.6,0.7 -0.9,1.3 -0.9,1.3 z"
           id="path50"
           inkscape:connector-curvature="0"
           style="fill:#ffffff" /></g></g></g><g
     id="lyric"
     class="st0"
     style="display:none"
     transform="translate(-6.7,-9.8)"><g
       class="st2"
       id="g53"
       style="display:inline"><g
         id="g55"><path
           class="st3"
           d="m -276.1,398.2 0,-0.1 c 0,-0.3 0,-0.4 -0.1,-0.5 0,-0.1 -0.1,-0.2 -0.2,-0.2 -0.1,0 -0.2,-0.1 -0.3,-0.1 0,0 0,0 0,0 -0.1,0 -0.2,0 -0.2,-0.1 0,0 -0.1,-0.1 -0.1,-0.2 0,-0.1 0,-0.2 0.1,-0.2 0,0 0.2,-0.1 0.4,-0.1 0.1,0 0.2,0 0.3,0 0.1,0 0.2,-0.1 0.3,-0.1 0.2,-0.1 0.4,-0.2 0.6,-0.3 0.2,-0.1 0.4,-0.2 0.4,-0.2 0.1,0 0.1,0 0.1,0.1 0,0 0.1,0.1 0.1,0.2 0,0 0,0.2 0,0.7 0,0.5 0,1 0,1.4 l 0,5.9 c 0,0.4 0,0.6 0.1,0.7 0,0.1 0.1,0.2 0.2,0.3 0.1,0.1 0.2,0.1 0.4,0.2 0,0 0,0 0,0 0.1,0 0.2,0.1 0.2,0.1 0,0 0,0.1 0,0.1 0,0.1 0,0.1 -0.1,0.2 0,0 -0.1,0.1 -0.2,0.1 0,0 -0.2,0 -0.5,-0.1 -0.3,0 -0.5,-0.1 -0.7,-0.1 -0.4,0 -0.8,0 -1.2,0.1 -0.1,0 -0.1,0 -0.1,0 -0.1,0 -0.1,0 -0.2,-0.1 0,0 -0.1,-0.1 -0.1,-0.1 0,-0.1 0.1,-0.2 0.2,-0.3 l 0,0 0,0 c 0.3,-0.2 0.5,-0.5 0.5,-0.9 l 0,-0.2 0,-6.2 z"
           id="path57"
           inkscape:connector-curvature="0"
           style="fill:#ffffff" /><path
           class="st3"
           d="m -270.9,405.8 -2.1,-4.2 c -0.2,-0.3 -0.3,-0.5 -0.5,-0.7 -0.2,-0.1 -0.3,-0.2 -0.3,-0.3 0,-0.1 0,-0.1 0.1,-0.2 0.1,0 0.1,-0.1 0.2,-0.1 0,0 0.1,0 0.1,0 0,0 0.1,0 0.1,0 0.1,0 0.2,0 0.4,0 0.2,0 0.3,0 0.5,0 0.2,0 0.4,0 0.6,0 0.2,0 0.3,0 0.5,0 0,0 0.1,0 0.1,0 0.1,0 0.1,0 0.2,0 0.1,0 0.2,0 0.2,0 0,0 0.1,0.1 0.1,0.2 0,0.1 -0.1,0.2 -0.3,0.3 0,0 0,0 0,0 -0.2,0 -0.3,0.1 -0.3,0.1 0,0 -0.1,0.1 -0.1,0.2 0,0.1 0,0.2 0,0.2 0,0.1 0,0.1 0.1,0.2 l 1.2,2.3 c 0.1,0.1 0.1,0.2 0.1,0.3 0,0 0.1,0.1 0.1,0.1 0,0 0.1,0 0.1,-0.1 0.1,-0.1 0.1,-0.2 0.1,-0.2 l 0.6,-1.7 c 0,-0.1 0.1,-0.2 0.1,-0.4 0,-0.1 0,-0.2 0,-0.4 0,-0.2 0,-0.3 -0.1,-0.4 0,-0.1 -0.1,-0.2 -0.2,-0.2 0,0 -0.1,0 -0.2,-0.1 -0.2,0 -0.3,-0.1 -0.3,-0.2 0,-0.1 0,-0.2 0.1,-0.2 0.1,0 0.2,-0.1 0.3,-0.1 0,0 0.1,0 0.1,0 0,0 0.1,0 0.2,0 0,0 0.1,0 0.2,0 0.1,0 0.2,0 0.2,0 0.1,0 0.1,0 0.2,0 0.1,0 0.2,0 0.3,0 0,0 0.1,0 0.1,0 0,0 0.1,0 0.1,0 0.1,0 0.2,0 0.2,0.1 0.1,0 0.1,0.1 0.1,0.1 0,0.1 -0.1,0.1 -0.3,0.3 -0.2,0.1 -0.3,0.3 -0.4,0.6 l -3.1,7.4 c -0.1,0.1 -0.1,0.2 -0.2,0.3 -0.1,0 -0.3,0.1 -0.5,0.1 -0.1,0 -0.2,0 -0.3,0 0,0 -0.1,-0.1 -0.1,-0.1 0,-0.1 0,-0.2 0.1,-0.3 0,0 0,-0.1 0.1,-0.1 l 1.4,-2.2 c 0,-0.1 0.1,-0.1 0.1,-0.2 0,-0.1 0,-0.1 0,-0.2 0,-0.1 0,-0.1 0,-0.2 0.1,0.1 0.1,0.1 0,0 z"
           id="path59"
           inkscape:connector-curvature="0"
           style="fill:#ffffff" /><path
           class="st3"
           d="m -266.4,404.5 0,-2.4 c 0,-0.3 0,-0.5 -0.1,-0.6 0,-0.1 -0.1,-0.2 -0.2,-0.2 -0.1,0 -0.2,-0.1 -0.3,-0.1 l 0,0 c -0.1,0 -0.2,0 -0.3,-0.1 0,0 -0.1,-0.1 -0.1,-0.1 0,-0.1 0,-0.1 0.1,-0.2 0,0 0.2,-0.1 0.3,-0.1 0,0 0.1,0 0.1,0 0.2,-0.1 0.4,-0.1 0.6,-0.2 0.2,-0.1 0.5,-0.2 0.7,-0.3 0.2,-0.1 0.4,-0.2 0.4,-0.2 0,0 0.1,0 0.1,0 0,0 0,0.1 0,0.1 l 0,0.2 0,1.1 c 0.3,-0.4 0.5,-0.7 0.8,-0.9 0.2,-0.2 0.4,-0.3 0.6,-0.3 0.2,0 0.4,0.1 0.7,0.3 0.3,0.2 0.4,0.4 0.4,0.6 0,0.2 -0.1,0.4 -0.2,0.7 -0.2,0.3 -0.3,0.4 -0.4,0.4 -0.1,0 -0.2,-0.1 -0.5,-0.3 -0.2,-0.2 -0.4,-0.3 -0.6,-0.3 -0.2,0 -0.4,0.1 -0.5,0.3 -0.1,0.2 -0.2,0.6 -0.2,1 l 0,1.3 c 0,0.3 0,0.6 0.1,0.7 0.1,0.1 0.1,0.2 0.3,0.3 0.1,0 0.1,0.1 0.2,0.1 0.1,0 0.2,0.1 0.3,0.1 0,0 0,0 0,0 0.2,0.1 0.3,0.1 0.3,0.3 0,0.1 0,0.1 -0.1,0.2 -0.1,0 -0.1,0.1 -0.2,0.1 -0.1,0 -0.3,0 -0.6,-0.1 -0.3,0 -0.6,-0.1 -0.8,-0.1 -0.4,0 -0.9,0 -1.3,0.1 -0.1,0 -0.1,0 -0.1,0 -0.1,0 -0.1,0 -0.2,-0.1 0,0 -0.1,-0.1 -0.1,-0.2 0,0 0,-0.1 0,-0.1 0,0 0.1,-0.1 0.2,-0.1 0.2,-0.1 0.3,-0.2 0.4,-0.4 0.1,-0.1 0.1,-0.3 0.1,-0.5 l 0,0 z"
           id="path61"
           inkscape:connector-curvature="0"
           style="fill:#ffffff" /><path
           class="st3"
           d="m -261.3,404.5 0,-2.4 c 0,-0.3 0,-0.5 -0.1,-0.6 0,-0.1 -0.1,-0.2 -0.2,-0.2 -0.1,0 -0.2,-0.1 -0.3,-0.1 l 0,0 c -0.1,0 -0.2,0 -0.3,-0.1 0,0 -0.1,-0.1 -0.1,-0.1 0,-0.1 0,-0.1 0.1,-0.2 0,0 0.2,-0.1 0.3,-0.1 0.1,0 0.3,0 0.4,-0.1 0.1,0 0.2,-0.1 0.3,-0.1 0.3,-0.1 0.5,-0.2 0.7,-0.3 0.2,-0.1 0.4,-0.2 0.4,-0.2 0.1,0 0.1,0 0.1,0.1 0,0 0,0.1 0,0.2 0,0 0,0 0,0.1 0,0.3 0,0.6 0,0.9 l 0,3.1 c 0,0.3 0,0.6 0.1,0.7 0,0.1 0.1,0.2 0.2,0.3 0.1,0.1 0.2,0.1 0.4,0.2 0,0 0,0 0,0 0,0 0,0 0,0 0.2,0.1 0.3,0.1 0.3,0.3 0,0.1 0,0.1 -0.1,0.2 -0.1,0 -0.1,0.1 -0.2,0.1 0,0 -0.2,0 -0.5,-0.1 -0.3,0 -0.5,-0.1 -0.7,-0.1 -0.4,0 -0.9,0 -1.3,0.1 -0.1,0 -0.1,0 -0.1,0 -0.1,0 -0.1,0 -0.2,-0.1 0,0 -0.1,-0.1 -0.1,-0.2 0,0 0,-0.1 0,-0.1 0,0 0.1,-0.1 0.2,-0.1 0.2,-0.1 0.3,-0.2 0.4,-0.4 0.1,-0.1 0.1,-0.3 0.1,-0.6 l 0,-0.1 z m -0.3,-6.5 c 0,-0.1 0.1,-0.4 0.4,-0.7 0.3,-0.3 0.4,-0.5 0.5,-0.5 0.1,0 0.3,0.1 0.5,0.4 0.2,0.3 0.4,0.5 0.4,0.7 0,0.1 -0.1,0.4 -0.4,0.6 -0.2,0.3 -0.4,0.4 -0.5,0.4 -0.1,0 -0.3,-0.1 -0.5,-0.4 -0.2,-0.1 -0.4,-0.3 -0.4,-0.5 z"
           id="path63"
           inkscape:connector-curvature="0"
           style="fill:#ffffff" /><path
           class="st3"
           d="m -258.6,403.5 c 0,-0.9 0.3,-1.7 1,-2.3 0.6,-0.6 1.4,-1 2.3,-1 0.5,0 0.9,0.1 1.3,0.3 0.4,0.2 0.5,0.4 0.5,0.7 0,0.2 -0.1,0.3 -0.4,0.5 -0.3,0.2 -0.4,0.3 -0.6,0.3 -0.1,0 -0.2,-0.1 -0.2,-0.3 0,-0.1 -0.1,-0.2 -0.1,-0.2 -0.1,-0.3 -0.2,-0.4 -0.4,-0.6 -0.2,-0.1 -0.4,-0.2 -0.7,-0.2 -0.4,0 -0.8,0.1 -1,0.4 -0.2,0.3 -0.3,0.7 -0.3,1.3 0,0.9 0.2,1.5 0.6,2.1 0.4,0.5 0.9,0.8 1.5,0.8 0.4,0 0.8,-0.1 1.2,-0.4 0.4,-0.2 0.6,-0.4 0.7,-0.4 0.1,0 0.1,0 0.1,0 0,0 0,0.1 0,0.1 0,0.2 -0.3,0.5 -0.9,0.9 -0.6,0.3 -1.2,0.5 -1.9,0.5 -0.8,0 -1.4,-0.3 -1.9,-0.8 -0.6,-0.2 -0.8,-0.8 -0.8,-1.7 z"
           id="path65"
           inkscape:connector-curvature="0"
           style="fill:#ffffff" /></g><g
         id="g67"><path
           class="st3"
           d="m -250.8,403.7 c 0,-0.1 0,-0.1 0,-0.1 0,0 0,0 -0.1,0 l -0.3,0 c 0,0 0,0 -0.1,0 0,0 0,0 0,0 0,-0.1 0,-0.2 0,-0.2 0,0 0.1,-0.1 0.1,-0.1 l 0.2,0 c 0.1,0 0.1,-0.1 0.1,-0.4 0,-0.2 0.1,-0.5 0.1,-0.6 0.1,-0.3 0.3,-0.6 0.6,-0.8 0.3,-0.2 0.5,-0.3 0.8,-0.3 0.1,0 0.2,0 0.3,0.1 0.1,0 0.1,0.1 0.1,0.2 0,0.1 0,0.3 -0.1,0.4 -0.1,0.2 -0.1,0.2 -0.2,0.2 0,0 -0.1,-0.1 -0.2,-0.2 -0.1,-0.2 -0.2,-0.2 -0.3,-0.2 -0.1,0 -0.3,0.1 -0.3,0.2 -0.1,0.2 -0.1,0.4 -0.1,0.8 l 0,0.6 c 0,0 0,0.1 0,0.1 0,0 0.1,0 0.1,0 l 0.3,0 c 0.1,0 0.1,0 0.2,-0.1 0.1,0 0.1,-0.1 0.1,-0.1 0,0 0,0 0,0 0,0 0,0 0,0 0,0 0,0.1 0,0.1 0,0.1 -0.1,0.1 -0.1,0.2 0,0 0,0 -0.1,0 0,0 -0.1,0 -0.1,0 l -0.3,0 c 0,0 -0.1,0 -0.1,0 0,0 0,0 0,0.1 l 0,1.6 c 0,0.2 0,0.3 0,0.4 0,0.1 0.1,0.1 0.1,0.2 0,0 0.1,0.1 0.2,0.1 0,0 0,0 0,0 0.1,0 0.1,0 0.1,0 0,0 0,0 0,0.1 0,0 0,0.1 0,0.1 0,0 -0.1,0 -0.1,0 0,0 -0.1,0 -0.2,0 -0.1,0 -0.3,0 -0.4,0 -0.2,0 -0.4,0 -0.6,0 0,0 -0.1,0 -0.1,0 0,0 -0.1,0 -0.1,0 0,0 0,0 0,-0.1 0,0 0,0 0,-0.1 0,0 0,0 0.1,-0.1 l 0,0 c 0.2,-0.1 0.2,-0.3 0.2,-0.5 l 0,-0.1 0,-1.5 z"
           id="path69"
           inkscape:connector-curvature="0"
           style="fill:#ffffff" /><path
           class="st3"
           d="m -248.8,405.3 0,-1.2 c 0,-0.2 0,-0.3 0,-0.3 0,-0.1 -0.1,-0.1 -0.1,-0.1 0,0 -0.1,0 -0.2,0 l 0,0 c -0.1,0 -0.1,0 -0.1,0 0,0 0,0 0,-0.1 0,0 0,-0.1 0,-0.1 0,0 0.1,0 0.2,-0.1 0,0 0,0 0.1,0 0.1,0 0.2,-0.1 0.3,-0.1 0.1,0 0.2,-0.1 0.4,-0.1 0.1,-0.1 0.2,-0.1 0.2,-0.1 0,0 0,0 0.1,0 0,0 0,0 0,0 l 0,0.1 0,0.4 c 0.2,-0.2 0.3,-0.3 0.5,-0.4 0.2,-0.1 0.3,-0.1 0.5,-0.1 0.2,0 0.3,0.1 0.5,0.1 0.1,0.1 0.2,0.2 0.3,0.4 0.2,-0.2 0.4,-0.4 0.6,-0.5 0.2,-0.1 0.3,-0.1 0.5,-0.1 0.3,0 0.5,0.1 0.7,0.3 0.2,0.2 0.2,0.6 0.2,1.1 l 0,0.7 c 0,0.2 0,0.3 0,0.3 0,0.1 0.1,0.1 0.1,0.2 0,0 0.1,0.1 0.2,0.1 0,0 0,0 0,0 0,0 0,0 0,0 0.1,0 0.1,0.1 0.1,0.1 0,0 0,0.1 0,0.1 0,0 -0.1,0 -0.1,0 0,0 -0.1,0 -0.2,0 -0.1,0 -0.3,0 -0.4,0 -0.2,0 -0.4,0 -0.6,0 0,0 0,0 -0.1,0 0,0 -0.1,0 -0.1,0 0,0 0,0 0,-0.1 0,0 0,-0.1 0.1,-0.1 0.1,0 0.1,-0.1 0.1,-0.1 0,0 0.1,-0.1 0.1,-0.2 0,-0.1 0,-0.1 0,-0.3 l 0,-0.1 0,-0.7 c 0,-0.4 0,-0.7 -0.1,-0.8 -0.1,-0.2 -0.2,-0.2 -0.5,-0.2 -0.2,0 -0.3,0.1 -0.4,0.1 -0.1,0.1 -0.1,0.2 -0.1,0.4 l 0,1.1 c 0,0.2 0,0.3 0,0.4 0,0.1 0.1,0.1 0.1,0.2 0,0 0.1,0.1 0.2,0.1 0,0 0,0 0,0 0,0 0,0 0,0 0.1,0 0.1,0.1 0.1,0.1 0,0 0,0.1 0,0.1 0,0 -0.1,0 -0.1,0 0,0 -0.1,0 -0.2,0 -0.1,0 -0.3,0 -0.4,0 -0.2,0 -0.4,0 -0.6,0 0,0 0,0 0,0 0,0 -0.1,0 -0.1,0 0,0 0,0 0,-0.1 0,0 0,0 0,-0.1 0,0 0,0 0.1,-0.1 0,0 0,0 0,0 0,0 0.1,-0.1 0.1,-0.1 0,0 0.1,-0.1 0.1,-0.2 0,-0.1 0,-0.1 0,-0.3 l 0,-0.1 0,-0.7 c 0,-0.4 0,-0.7 -0.1,-0.8 -0.1,-0.2 -0.3,-0.3 -0.5,-0.3 -0.2,0 -0.3,0.1 -0.4,0.1 -0.1,0.1 -0.1,0.2 -0.1,0.4 l 0,1.1 c 0,0.2 0,0.3 0,0.4 0,0.1 0.1,0.1 0.1,0.2 0,0 0.1,0.1 0.2,0.1 0,0 0,0 0,0 l 0,0 c 0.1,0 0.1,0.1 0.1,0.1 0,0 0,0.1 0,0.1 0,0 -0.1,0 -0.1,0 0,0 -0.1,0 -0.3,0 -0.1,0 -0.3,0 -0.4,0 -0.2,0 -0.4,0 -0.6,0 0,0 -0.1,0 -0.1,0 0,0 -0.1,0 -0.1,0 0,0 0,0 0,-0.1 0,0 0,0 0,-0.1 0,0 0,0 0.1,-0.1 0.1,-0.1 0.2,-0.1 0.2,-0.2 0,-0.1 0.1,-0.2 0.1,-0.3 l 0,0.6 z"
           id="path71"
           inkscape:connector-curvature="0"
           style="fill:#ffffff" /></g></g></g><g
     id="_x32_xm"
     class="st0"
     style="display:none"
     transform="translate(-6.7,-9.8)"><g
       class="st2"
       id="g74"
       style="display:inline"><path
         class="st3"
         d="m -279.3,404.8 c 0.1,-1.1 0.4,-1.9 1.1,-2.5 0.7,-0.6 1.7,-1 3.3,-1.3 0.3,-0.1 0.7,-0.1 1.3,-0.2 1.2,-0.2 1.8,-0.4 1.8,-0.7 0,-0.2 -0.1,-0.3 -0.4,-0.4 -0.2,-0.1 -0.6,-0.1 -1.1,-0.1 -0.7,0 -1.1,0.1 -1.4,0.2 -0.3,0.2 -0.5,0.4 -0.5,0.7 l 0,0 -3.7,0 c 0,-0.9 0.5,-1.6 1.4,-2 0.9,-0.4 2.2,-0.7 3.9,-0.7 1.8,0 3.1,0.2 4,0.6 0.9,0.4 1.3,0.9 1.3,1.7 0,0.6 -0.2,1 -0.7,1.3 -0.4,0.3 -1.2,0.6 -2.3,0.8 -0.4,0.1 -0.9,0.1 -1.6,0.2 -1.5,0.2 -2.4,0.4 -2.7,0.7 l 7,0 0,1.7 -10.7,0"
         id="path76"
         inkscape:connector-curvature="0"
         style="fill:#ffffff" /><polyline
         class="st3"
         points="-252.9,404.8 -252.9,397.8 -248.9,397.8 -247.7,402.1 -246.5,397.8 -242.5,397.8 -242.5,404.8    -245,404.8 -245,399.3 -246.7,404.8 -248.8,404.8 -250.4,399.3 -250.4,404.8 -252.9,404.8   "
         id="polyline78"
         style="fill:#ffffff" /><path
         class="st3"
         d="m -267.6,399.6 c 0,0 3.3,1.4 4.1,1.7 -0.8,0.3 -4.1,1.7 -4.1,1.7 l 0,2.1 6.6,-2.7 0,-2.1 -6.6,-2.8 0,2.1 z m 13.9,-2.2 -6.6,2.7 0,2.1 6.6,2.7 0,-2.1 c 0,0 -3.3,-1.4 -4.1,-1.7 0.8,-0.3 4.1,-1.7 4.1,-1.7 l 0,-2 z"
         id="path80"
         inkscape:connector-curvature="0"
         style="fill:#ffffff" /></g></g><g
     id="Layer_8"
     class="st0"
     style="display:none"
     transform="translate(-6.7,-9.8)" /><g
     id="gold"
     class="st0"
     style="display:none"
     transform="translate(-6.7,-9.8)"><g
       class="st2"
       id="g84"
       style="display:inline"><path
         class="st3"
         d="m -265.4,407.9 c 1.4,0 2.5,-0.4 3.3,-1.2 0.8,-0.8 1.2,-1.9 1.2,-3.4 0,-1.4 -0.4,-2.6 -1.2,-3.4 -0.8,-0.8 -1.9,-1.2 -3.3,-1.2 -1.4,0 -2.5,0.4 -3.2,1.2 -0.8,0.8 -1.2,1.9 -1.2,3.4 0,1.4 0.4,2.6 1.2,3.4 0.8,0.8 1.9,1.2 3.2,1.2 z m 0.4,-2.6 c 0,0.1 0,0.2 -0.1,0.3 -0.1,0.1 -0.1,0.1 -0.2,0.1 -0.1,0 -0.2,0 -0.2,-0.1 -0.1,-0.1 -0.1,-0.2 -0.1,-0.3 l 0,-4 c 0,-0.1 0,-0.2 0.1,-0.3 0.1,-0.1 0.1,-0.1 0.2,-0.1 0.1,0 0.2,0 0.2,0.1 0.1,0.1 0.1,0.2 0.1,0.3 l 0,4 z"
         id="path86"
         inkscape:connector-curvature="0"
         style="fill:#ffffff" /><polyline
         class="st3"
         points="-254,405.1 -254,407.6 -260.5,407.6 -260.5,398.9 -256.9,398.9 -256.9,405.1 -254,405.1   "
         id="polyline88"
         style="fill:#ffffff" /><path
         class="st3"
         d="m -270.1,402.7 0,-0.3 c 0,-1.2 -0.3,-2.1 -1,-2.7 -0.7,-0.6 -1.7,-1 -2.9,-1 -1.4,0 -2.5,0.4 -3.2,1.2 -0.8,0.8 -1.2,1.9 -1.2,3.4 0,0.8 0.1,1.4 0.3,2 0.2,0.6 0.6,1 1,1.4 0.4,0.3 1,0.6 1.6,0.7 0.6,0.2 1.6,0.2 2.9,0.2 l 2.5,0 0,-4.5 -3.6,0 0,2 0.4,0 0,0 c 0.2,0 0.3,0.1 0.3,0.3 0,0.2 -0.1,0.3 -0.3,0.3 l 0,0 -0.4,0 0,0 -0.1,0 c -0.2,0 -0.4,0 -0.4,-0.1 -0.1,-0.1 -0.1,-0.3 -0.1,-0.5 l 0,-4.2 c 0,-0.1 0,-0.2 0.1,-0.3 0.1,-0.1 0.1,-0.1 0.2,-0.1 0.1,0 0.2,0 0.2,0.1 0.1,0.1 0.1,0.2 0.1,0.3 l 0,1.7 3.6,0 z"
         id="path90"
         inkscape:connector-curvature="0"
         style="fill:#ffffff" /><path
         class="st3"
         d="m -241.4,398.2 c 0,0 -2.6,-0.6 -2.9,-0.7 0,-0.3 -0.4,-3.2 -0.4,-3.2 0,0 -1.5,2.5 -1.7,2.8 -0.3,-0.1 -2.9,-0.7 -2.9,-0.7 0,0 1.8,1.9 2,2.2 0,0.1 -0.2,0.3 -0.3,0.6 -0.7,-0.2 -1.6,-0.4 -2.7,-0.4 l -3.2,0 0,8.8 4.2,0 c 1.5,0 2.5,-0.4 3.2,-1.1 0.7,-0.7 1,-1.9 1,-3.5 0,-1.3 -0.3,-2.2 -0.9,-2.9 0.1,0 0.1,0 0.1,0 0.2,0.2 2.1,2.1 2.1,2.1 0,0 -0.2,-2.6 -0.3,-2.9 0.3,-0.1 2.7,-1.1 2.7,-1.1 z m -7.9,7.7 c 0,0.3 -0.2,0.5 -0.4,0.5 l -0.3,0 0,-5.6 0.3,0 c 0.2,0 0.4,0.2 0.4,0.5 l 0,4.6 z m 3.5,-6.4 c 0,0 -1,0.4 -1.7,0.6 0.4,-0.6 0.9,-1.6 0.9,-1.6 0,0 -0.6,-0.7 -1.1,-1.2 0.7,0.1 1.6,0.4 1.6,0.4 0,0 0.6,-1.1 1.1,-1.7 l 0.2,2 c 0,0 0.9,0.2 1.6,0.4 -0.6,0.3 -1.5,0.6 -1.5,0.6 0,0 0.1,1.1 0.2,1.8 -0.6,-0.5 -1.3,-1.3 -1.3,-1.3 z"
         id="path92"
         inkscape:connector-curvature="0"
         style="fill:#ffffff" /></g></g><g
     id="extra"
     class="st0"
     style="display:none"
     transform="translate(-6.7,-9.8)"><g
       class="st2"
       id="g95"
       style="display:inline"><g
         id="g97"><path
           class="st3"
           d="m -275.7,398.2 0.2,0 c 1,0 1.8,0.1 1.8,1.3 0,1.1 -0.9,1.3 -1.8,1.3 l -0.2,0 0,-2.6 0,0 z m 0,3.3 0.2,0 2.2,3.2 1,0 -2.3,-3.3 c 1.1,-0.1 1.8,-0.9 1.8,-2 0,-1.6 -1.3,-2 -2.6,-2 l -1,0 0,7.3 0.8,0 0,-3.2 -0.1,0 z"
           id="path99"
           inkscape:connector-curvature="0"
           style="fill:#ffffff" /><path
           class="st3"
           d="m -263.8,403.9 0,-5.7 0.6,0 c 0.9,0 1.6,0.1 2.2,0.7 0.6,0.5 0.9,1.3 0.9,2.2 0,0.8 -0.3,1.6 -0.9,2.1 -0.7,0.6 -1.4,0.7 -2.3,0.7 l -0.5,0 0,0 z m -0.8,0.8 1.3,0 c 1.1,0 2,-0.1 2.8,-0.9 0.8,-0.7 1.2,-1.6 1.2,-2.7 0,-1.1 -0.4,-2 -1.2,-2.8 -0.8,-0.7 -1.7,-0.9 -2.8,-0.9 l -1.4,0 0,7.3 0.1,0 z"
           id="path101"
           inkscape:connector-curvature="0"
           style="fill:#ffffff" /><polygon
           class="st3"
           points="-258.1,404.7 -258.1,397.4 -257.3,397.4 -257.3,404.7 -257.3,404.7 "
           id="polygon103"
           style="fill:#ffffff" /><path
           class="st3"
           d="m -252.4,398.1 c 1.7,0 3,1.4 3,3 0,1.6 -1.3,3 -3,3 -1.6,0 -2.9,-1.4 -2.9,-3 -0.1,-1.7 1.2,-3 2.9,-3 l 0,0 z m 0,-0.8 c -2.1,0 -3.8,1.7 -3.8,3.8 0,2.1 1.7,3.7 3.8,3.7 2.1,0 3.8,-1.7 3.8,-3.7 -0.1,-2.1 -1.8,-3.8 -3.8,-3.8 l 0,0 z"
           id="path105"
           inkscape:connector-curvature="0"
           style="fill:#ffffff" /><polygon
           class="st3"
           points="-245.9,398.2 -245.9,398.2 -245.4,397.4 -243.9,397.4 -243.9,404.7 -244.7,404.7 -244.7,398.2 "
           id="polygon107"
           style="fill:#ffffff" /><path
           class="st3"
           d="m -268.5,397.4 -0.3,0 -3.2,7.3 0.9,0 0.9,-2.1 3.1,0 0.9,2.1 0.9,0 -3.2,-7.3 0,0 z m -1.4,4.5 1.2,-2.9 1.2,2.9 -2.4,0 0,0 z"
           id="path109"
           inkscape:connector-curvature="0"
           style="fill:#ffffff" /></g><g
         id="g111"><path
           class="st3"
           d="m -249.9,407.5 -0.2,0 0,0.9 0.2,0 c 0.2,0 0.4,0 0.4,-0.1 0.1,-0.1 0.1,-0.2 0.1,-0.3 0,-0.2 0,-0.3 -0.1,-0.4 -0.1,0 -0.2,-0.1 -0.4,-0.1 z"
           id="path113"
           inkscape:connector-curvature="0"
           style="fill:#ffffff" /><path
           class="st3"
           d="m -246.4,407.7 c 0,-0.1 0,-0.2 -0.1,-0.3 0,0.1 0,0.2 -0.1,0.2 0,0.1 0,0.2 -0.1,0.2 l -0.3,1.1 0.9,0 -0.4,-1.1 c 0.2,0 0.1,-0.1 0.1,-0.1 z"
           id="path115"
           inkscape:connector-curvature="0"
           style="fill:#ffffff" /><path
           class="st3"
           d="m -245.9,406 -28.5,0 c -1.4,0 -2.5,1.1 -2.5,2.5 0,1.4 1.1,2.5 2.5,2.5 l 28.5,0 c 1.4,0 2.5,-1.1 2.5,-2.5 0,-1.4 -1.1,-2.5 -2.5,-2.5 z m -12.1,1.6 -1.2,0 0,0.6 1.1,0 0,0.7 -1.1,0 0,0.6 1.2,0 0,0.8 -2.1,0 0,-3.5 2.1,0 0,0.8 z m 2.7,2.7 -0.6,-1 c 0,0 -0.1,-0.1 -0.1,-0.1 0,0 0,-0.1 0,-0.1 0,0.1 0,0.1 -0.1,0.2 0,0 0,0.1 -0.1,0.1 l -0.6,1 -1.1,0 1.3,-1.8 -1.2,-1.6 1.1,0 0.4,0.8 0,0 c 0.1,0.1 0.1,0.2 0.1,0.3 0,-0.1 0.1,-0.2 0.1,-0.3 0,0 0,0 0,0 l 0.4,-0.8 1.1,0 -1.2,1.7 1.3,1.8 -0.8,0 z m 3.7,-2.7 -0.8,0 0,2.6 -0.9,0 0,-2.6 -0.8,0 0,-0.8 2.5,0 0,0.8 z m 2.3,2.7 -0.8,-1.4 0,1.4 -0.9,0 0,-3.5 1,0 c 0.4,0 0.7,0 0.8,0.1 0.2,0 0.3,0.1 0.4,0.2 0.1,0.1 0.2,0.2 0.3,0.4 0.1,0.1 0.1,0.3 0.1,0.5 0,0.3 -0.1,0.5 -0.2,0.7 -0.1,0.2 -0.3,0.3 -0.6,0.3 l 0.9,1.4 -1,0 z m 3.7,0 -0.2,-0.6 -1.3,0 -0.2,0.6 -0.9,0 1.2,-3.5 1.2,0 1.2,3.5 -1,0 z"
           id="path117"
           inkscape:connector-curvature="0"
           style="fill:#ffffff" /></g></g><path
       class="st4"
       d="m -272.9,401.4 c 0,-0.6 0,-1.1 -0.1,-1.7 l 1.4,0 0.1,0.7 0,0 c 0.1,-0.5 0.4,-0.7 1.1,-0.7 l 4.1,0 c 1.6,0 2.1,0.5 2.1,2 l 0,3.8 c 0,1.6 -0.5,2 -2,2 l -4.1,0 c -0.4,0.1 -0.9,-0.1 -1.1,-0.5 l 0,0 0,1.8 c 0,0.6 0,1.1 0.1,1.7 l -1.7,0 c 0.1,-0.5 0.2,-1.1 0.1,-1.7 l 0,-7.4 m 1.5,4.6 c 0,0.7 0.1,0.9 0.7,0.9 l 4.4,0 c 0.6,0 0.7,-0.2 0.7,-0.9 l 0,-4.6 c 0,-0.7 -0.1,-0.9 -0.7,-0.9 l -4.4,0 c -0.6,0 -0.7,0.2 -0.7,0.9 l 0,4.6 z m 8.5,-4.5 c 0,-0.6 0,-1.1 -0.1,-1.7 l 1.6,0 0,6.2 c 0,0.7 0.1,0.9 0.7,0.9 l 4.5,0 c 0.6,0 0.7,-0.2 0.7,-0.9 l 0,-4.6 c 0,-0.6 0,-1.1 -0.1,-1.7 l 1.5,0 0,6.2 c 0,0.5 0,1.1 0.2,1.6 l -1.4,0 -0.1,-0.6 0,0 c 0,0.2 -0.1,0.3 -0.3,0.4 -0.2,0.1 -0.4,0.1 -0.6,0.1 l -4.5,0 c -1.5,0 -2,-0.5 -2,-2 l -0.1,-3.9 0,0 z m 11.9,-4.6 0,9 c 0,0.6 0,1.1 0.1,1.7 l -1.7,0 c 0.1,-0.5 0.2,-1.1 0.1,-1.6 l 0,-7.4 c 0,-0.6 0,-1.1 -0.1,-1.7 l 1.6,0 0,0 z m 7.7,5.9 c 1.5,0 2,0.5 2,2 l 0,1.4 c 0,0.9 -0.5,1.3 -1.9,1.3 l -6.2,0 -0.1,-0.9 c 0.5,0.1 1.1,0.2 1.7,0.1 l 4.6,0 c 0.6,0 0.7,-0.2 0.7,-0.9 l 0,-0.9 c 0,-0.7 -0.1,-0.9 -0.7,-0.9 l -4.2,0 c -1.5,0 -2,-0.5 -2,-2 l 0,-0.4 c 0,-1.6 0.5,-2 2,-2 l 6.1,0 0.1,0.9 c -0.5,-0.1 -1.1,-0.2 -1.7,-0.1 l -4.5,0 c -0.6,0 -0.7,0.2 -0.7,0.9 l 0,0.5 c 0,0.7 0.1,0.9 0.7,0.9 l 4.1,0.1 0,0 z m 4.6,1.4 0,1.8 c 0,0.7 0.1,0.9 0.7,0.9 l 5,0 c 0.6,0 1.1,0 1.7,-0.1 l -0.2,0.9 -6.6,0 c -1.5,0 -2,-0.5 -2,-2 l 0,-3.8 c 0,-1.6 0.5,-2 2,-2 l 4.7,0 c 1.5,0 2,0.5 2,2 l 0,2.4 -7.3,-0.1 0,0 z m 6,-0.8 0,-2 c 0,-0.7 -0.1,-0.9 -0.7,-0.9 l -4.5,0 c -0.6,0 -0.7,0.2 -0.7,0.9 l 0,2 5.9,0 0,0 z"
       id="path119"
       inkscape:connector-curvature="0"
       style="display:inline;fill:#ffffff" /></g><g
     id="pulse"
     style="fill:#ffffff;fill-opacity:1"
     transform="translate(-6.7,-9.8)"><path
       class="st3"
       d="m -276.2,400.2 c 0,-0.4 0,-0.8 -0.1,-1.3 l 1,0 0.1,0.5 0,0 c 0,-0.4 0.3,-0.5 0.8,-0.5 l 3.1,0 c 1.2,0 1.6,0.4 1.6,1.5 l 0,2.9 c 0,1.2 -0.4,1.5 -1.5,1.5 l -3.1,0 c -0.30781,-0.002 -0.7,-0.1 -0.8,-0.4 l 0,0 0,1.4 c 0,0.4 0,0.8 0.1,1.3 l -1.3,0 c 0.1,-0.4 0.1,-0.8 0.1,-1.3 l 0,-5.6 m 1.1,3.4 c 0,0.5 0.1,0.7 0.5,0.7 l 3.3,0 c 0.4,0 0.5,-0.1 0.5,-0.7 l 0,-3.5 c 0,-0.5 -0.1,-0.7 -0.5,-0.7 l -3.3,0 c -0.4,0 -0.5,0.1 -0.5,0.7 z m 6.4,-3.4 c 0,-0.4 0,-0.8 -0.1,-1.3 l 1.2,0 0,4.7 c 0,0.5 0.1,0.7 0.5,0.7 l 3.4,0 c 0.4,0 0.5,-0.1 0.5,-0.7 l 0,-3.4 c 0,-0.4 0,-0.8 -0.1,-1.3 l 1.2,0 0,4.7 c 0,0.4 0,0.8 0.1,1.2 l -1.1,0 -0.1,-0.4 0,0 c 0,0.1 -0.1,0.2 -0.2,0.3 -0.1,0.1 -0.3,0.1 -0.4,0.1 l -3.4,0 c -1.1,0 -1.5,-0.4 -1.5,-1.5 l 0,-3.1 z m 9,-3.4 0,6.8 c 0,0.4 0,0.8 0.1,1.3 l -1.3,0 c 0.1,-0.4 0.1,-0.8 0.1,-1.2 l 0,-5.7 c 0,-0.4 0,-0.8 -0.1,-1.3 l 1.2,0.1 z m 5.8,4.4 c 1.1,0 1.5,0.4 1.5,1.5 l 0,1.1 c 0,0.7 -0.4,1 -1.4,1 l -4.7,0 -0.1,-0.7 c 0.4,0.1 0.8,0.1 1.3,0.1 l 3.5,0 c 0.4,0 0.5,-0.1 0.5,-0.7 l 0,-0.7 c 0,-0.5 -0.1,-0.7 -0.5,-0.7 l -3.2,0 c -1.1,0 -1.5,-0.4 -1.5,-1.5 l 0,-0.3 c 0,-1.2 0.4,-1.5 1.5,-1.5 l 4.6,0 0.1,0.7 c -0.4,-0.1 -0.8,-0.1 -1.3,-0.1 l -3.4,0 c -0.4,0 -0.5,0.1 -0.5,0.7 l 0,0.4 c 0,0.5 0.1,0.7 0.5,0.7 l 3.1,0 z m 3.5,1 0,1.4 c 0,0.5 0.1,0.7 0.5,0.7 l 3.8,0 c 0.4,0 0.8,0 1.3,-0.1 l -0.1,0.7 -5,0 c -1.1,0 -1.5,-0.4 -1.5,-1.5 l 0,-2.9 c 0,-1.2 0.4,-1.5 1.5,-1.5 l 3.6,0 c 1.1,0 1.5,0.4 1.5,1.5 l 0,1.8 -5.6,-0.1 z m 4.5,-0.5 0,-1.5 c 0,-0.5 -0.1,-0.7 -0.5,-0.7 l -3.4,0 c -0.4,0 -0.5,0.1 -0.5,0.7 l 0,1.5 4.4,0 z"
       id="path122"
       style="fill:#ffffff;fill-opacity:1"
       inkscape:connector-curvature="0"
       sodipodi:nodetypes="cccccssssscccsccscssssssssscccsssssccsccccsssscccsccssccccsssccsssssssssccssssscccsssccssssssccccssssccc" /></g><g
     id="RTE"
     style="fill:#e31836;fill-opacity:1"
     transform="translate(-6.7,-9.8)"><g
       class="st0"
       id="g125"
       style="display:none;fill:#e31836;fill-opacity:1"><path
         class="st4"
         d="m -254.5,392.1 c -1.1,0 -2.1,-0.8 -2.2,-1.9 l 2.1,0 c 0.2,0 0.7,0.1 0.7,0.1 l 0,-0.9 c 0,0 -0.5,0 -0.8,0 l -2.1,0 c 0.2,-1.1 1.1,-1.9 2.2,-1.9 0.6,0 1.3,0.3 1.3,0.3 l 0,-1 c 0,0 -0.5,-0.2 -1.3,-0.2 -1.9,0 -3.5,1.4 -3.5,3.2 0,2 1.6,3.3 3.5,3.3 0.9,0 1.4,-0.2 1.4,-0.2 l 0,-1 c 0.1,-0.1 -0.5,0.2 -1.3,0.2"
         id="path127"
         style="display:inline;fill:#e31836;fill-opacity:1"
         inkscape:connector-curvature="0" /><path
         class="st4"
         d="m -260.8,393 c 0,0 0.1,-0.5 0.1,-0.9 l 0,-4.5 -0.3,0 c -0.4,0 -1.1,0 -1.5,0 l 0,-1 5,0 0,1 c -0.5,0 -1.1,0 -1.6,0 l -0.4,0 0,4.5 c 0,0.4 0.1,0.9 0.1,0.9 l -1.4,0 z"
         id="path129"
         style="display:inline;fill:#e31836;fill-opacity:1"
         inkscape:connector-curvature="0" /><path
         class="st4"
         d="m -253.1,386.1 c -0.4,-0.1 -0.8,-0.2 -1.2,-0.2 -1.1,0 -2,0.3 -2.8,1 l 0,-0.8 c 0.8,-0.6 1.8,-0.8 2.8,-0.8 0.5,0 0.8,0.1 1.3,0.2 l -0.1,0.6 z"
         id="path131"
         style="display:inline;fill:#e31836;fill-opacity:1"
         inkscape:connector-curvature="0" /><path
         class="st4"
         d="m -263.1,392.1 -1.7,-1.7 c 1.1,-0.1 2,-0.9 2,-1.9 0,-1.1 -0.6,-2 -2.5,-2.1 -0.1,0 -0.2,0 -0.2,0 -1.3,0 -2.2,0.1 -2.2,0.1 0,0 0.1,0.6 0.1,0.9 l 0,4.7 c 0,0.4 -0.1,0.9 -0.1,0.9 l 1.3,0 c 0,0 -0.1,-0.4 -0.1,-1 l 0,-1.9 1.2,1.3 0.6,0.6 c 0.4,0.4 1,0.9 1,0.9 l 1.7,0 c 0.1,0.1 -0.7,-0.4 -1.1,-0.8 m -2.5,-2.4 -0.9,0 0,-2.3 c 0,0 0.5,0 1,0 0.1,0 0.2,0 0.2,0 0.9,0.1 1.2,0.5 1.2,1.1 0,0.6 -0.5,1.1 -1.2,1.2 -0.1,0 -0.2,0 -0.3,0"
         id="path133"
         style="display:inline;fill:#e31836;fill-opacity:1"
         inkscape:connector-curvature="0" /></g><g
       class="st0"
       id="g135"
       style="display:none;fill:#e31836;fill-opacity:1"><path
         class="st4"
         d="m -279.1,399.1 0.3,0 c 1.2,0 2.2,0.1 2.2,1.6 0,1.4 -1.1,1.6 -2.2,1.6 l -0.3,0 0,-3.2 0,0 z m 0,4.1 0.2,0 2.7,3.9 1.2,0 -2.8,-4 c 1.3,-0.1 2.2,-1.1 2.2,-2.4 0,-2 -1.5,-2.4 -3.2,-2.4 l -1.3,0 0,8.8 1,0 0,-3.9 0,0 z"
         id="path137"
         style="display:inline;fill:#e31836;fill-opacity:1"
         inkscape:connector-curvature="0" /><path
         class="st4"
         d="m -264.6,406.1 0,-7 0.7,0 c 1,0 1.9,0.1 2.7,0.9 0.8,0.7 1.1,1.6 1.1,2.6 0,1 -0.4,1.9 -1.1,2.6 -0.8,0.8 -1.7,0.9 -2.8,0.9 l -0.6,0 0,0 z m -1,0.9 1.6,0 c 1.4,0 2.4,-0.2 3.5,-1.1 1,-0.9 1.4,-2 1.4,-3.3 0,-1.3 -0.5,-2.5 -1.5,-3.4 -1,-0.9 -2.1,-1.1 -3.4,-1.1 l -1.6,0 0,8.9 0,0 z"
         id="path139"
         style="display:inline;fill:#e31836;fill-opacity:1"
         inkscape:connector-curvature="0" /><polygon
         class="st4"
         points="-257.7,407 -257.7,398.2 -256.8,398.2 -256.8,407 -256.8,407 "
         id="polygon141"
         style="display:inline;fill:#e31836;fill-opacity:1" /><path
         class="st4"
         d="m -250.9,399 c 2,0 3.6,1.6 3.6,3.6 0,2 -1.6,3.6 -3.6,3.6 -2,0 -3.6,-1.7 -3.6,-3.6 0,-2 1.6,-3.6 3.6,-3.6 l 0,0 z m 0,-0.9 c -2.5,0 -4.6,2 -4.6,4.6 0,2.5 2.1,4.5 4.6,4.5 2.5,0 4.6,-2 4.6,-4.5 0,-2.6 -2.1,-4.6 -4.6,-4.6 l 0,0 z"
         id="path143"
         style="display:inline;fill:#e31836;fill-opacity:1"
         inkscape:connector-curvature="0" /><polygon
         class="st4"
         points="-242.9,399.2 -242.9,399.2 -242.4,398.2 -240.5,398.2 -240.5,407 -241.4,407 -241.4,399.2 "
         id="polygon145"
         style="display:inline;fill:#e31836;fill-opacity:1" /><path
         class="st4"
         d="m -270.3,398.2 -0.4,0 -3.9,8.8 1.1,0 1.1,-2.5 3.7,0 1,2.5 1.1,0 -3.7,-8.8 0,0 z m -1.7,5.4 1.5,-3.5 1.5,3.5 -3,0 0,0 z"
         id="path147"
         style="display:inline;fill:#e31836;fill-opacity:1"
         inkscape:connector-curvature="0" /></g><g
       id="g149"
       style="fill:#e31836;fill-opacity:1"><path
         class="st3"
         d="m -252.4,392.6 c -1.5,0 -2.7,-1.1 -3,-2.6 l 2.8,0 c 0.3,0 1,0.1 1,0.1 l 0,-1.2 c 0,0 -0.7,0 -1,0 l -2.8,0 c 0.3,-1.5 1.5,-2.5 3,-2.5 0.8,0 1.7,0.4 1.7,0.4 l 0,-1.3 c 0,0 -0.7,-0.3 -1.7,-0.3 -2.5,0 -4.6,1.9 -4.6,4.3 0,2.6 2.2,4.4 4.6,4.4 1.2,0 1.9,-0.3 1.9,-0.3 l 0,-1.4 c -0.1,0 -0.9,0.4 -1.9,0.4"
         id="path151"
         style="fill:#e31836;fill-opacity:1"
         inkscape:connector-curvature="0" /><path
         class="st3"
         d="m -260.8,393.9 c 0,0 0.1,-0.6 0.1,-1.2 l 0,-6 -0.4,0 c -0.6,0 -1.4,0 -2,0.1 l -0.1,-1.4 6.6,0 0,1.4 c -0.7,-0.1 -1.5,-0.1 -2.1,-0.1 l -0.5,0 0,6 c 0,0.6 0.1,1.2 0.1,1.2 l -1.7,0 z"
         id="path153"
         style="fill:#e31836;fill-opacity:1"
         inkscape:connector-curvature="0" /><path
         class="st3"
         d="m -250.6,384.7 c -0.5,-0.1 -1.1,-0.2 -1.6,-0.2 -1.4,0 -2.7,0.4 -3.7,1.4 l 0,-1 c 1.1,-0.7 2.3,-1.1 3.7,-1.1 0.6,0 1.1,0.1 1.7,0.2 l -0.1,0.7 z"
         id="path155"
         style="fill:#e31836;fill-opacity:1"
         inkscape:connector-curvature="0" /><path
         class="st3"
         d="m -267.1,389.5 -1.2,0 0,-3.1 c 0,0 0.6,0 1.3,0 0.1,0 0.2,0 0.3,0 1.1,0.1 1.6,0.7 1.6,1.5 0,0.8 -0.7,1.5 -1.6,1.6 -0.2,0 -0.3,0 -0.4,0 m 3.3,3.2 -2.3,-2.2 c 1.4,-0.1 2.6,-1.2 2.6,-2.5 0,-1.4 -0.8,-2.7 -3.3,-2.8 -0.1,0 -0.2,0 -0.3,0 -1.7,0 -2.9,0.1 -2.9,0.1 0,0 0.1,0.8 0.1,1.3 l 0,6.2 c 0,0.6 -0.1,1.2 -0.1,1.2 l 1.7,0 c 0,0 -0.1,-0.6 -0.1,-1.3 l 0,-2.5 1.6,1.7 0.8,0.8 c 0.5,0.5 1.4,1.3 1.4,1.3 l 2.3,0 c 0,-0.1 -1,-0.8 -1.5,-1.3"
         id="path157"
         style="fill:#e31836;fill-opacity:1"
         inkscape:connector-curvature="0" /></g></g></svg>