<svg height="153.01125pt" viewBox="0 0 533.19824 153.01124" width="533.19824pt" xmlns="http://www.w3.org/2000/svg" xmlns:xlink="http://www.w3.org/1999/xlink"><linearGradient id="a" gradientUnits="userSpaceOnUse" x1=".06" x2="710.99103" y1="102.4075" y2="102.4075"><stop offset="0" stop-color="#3fc0f0"/><stop offset=".24016455" stop-color="#4cbfcc"/><stop offset=".48769987" stop-color="#63be8a"/><stop offset=".72793257" stop-color="#78bd4c"/><stop offset="1" stop-color="#86bc24"/></linearGradient><path d="m170.033 149.917c17.089 32.408 51.11 54.498 90.293 54.498 37.592 0 70.435-20.34 88.129-50.616 14.035 29.793 45.613 50.562 82.33 50.562 37.105 0 68.967-21.219 82.771-51.523v47.414h80.865v-47.303l33.086 47.303h83.364l-34.649-51.73c20.971-14.075 34.769-37.99 34.769-65.132 0-43.308-35.107-78.595-78.405-78.595h-85.076l-26.637 38.252v-38.255h-80.465v38.899l-27.096-38.899h-72.622v34.793c-18.67-23.853-47.729-39.185-80.364-39.185-32.4 0-61.27 15.108-79.959 38.659v-34.267h-85.877v39.568l-27.462-39.568h-66.968v65.646l39.497 58.656h-39.497v71.463h87.499c38.071 0 67.701-21.748 82.474-50.64z" fill="url(#a)" transform="matrix(.74999997 0 0 .74999997 -.045 -.3)"/><path d="m575.934 106.706c-17.286-3.524-32.48-8.478-32.48-24.774v-.221c0-14.644 11.451-25.985 32.702-25.985 14.864 0 25.875 3.523 34.794 10.57l-12.552 17.398c-7.269-5.286-15.968-7.598-23.123-7.598-3.854 0-5.615 1.321-5.615 3.193v.22c0 2.092 2.092 3.414 10.238 4.955 19.711 3.634 32.924 9.359 32.924 24.884v.22c0 16.186-13.323 26.096-34.023 26.096-15.636 0-29.729-4.404-39.528-12.993l13.764-16.406c8.368 6.386 17.947 9.029 26.977 9.029 4.625 0 6.606-1.211 6.606-3.303v-.22c-.004-2.203-2.427-3.413-10.684-5.065zm-112.532-49.549h71.129v21.802h-22.681v55.274h-25.766v-55.274h-22.682zm-37.877 0h25.765v77.076h-25.765zm-92.162 0h25.766v27.197h23.562v-27.197h25.766v77.076h-25.766v-27.637h-23.562v27.637h-25.766zm-83.133 0h57.146v12.112h-43.603v20.04h38.648v12.112h-38.648v20.7h44.153v12.112h-57.696zm-82.582 0h13.543v32.041h36.776v-32.041h13.543v77.076h-13.543v-32.482h-36.776v32.482h-13.543zm-78.177 0h62.541v12.553h-24.444v64.523h-13.654v-64.523h-24.443z" fill="#fff" transform="matrix(.74999997 0 0 .74999997 -.045 -.3)"/></svg>