<?xml version="1.0" encoding="UTF-8" standalone="no"?>
<svg
   xmlns:dc="http://purl.org/dc/elements/1.1/"
   xmlns:cc="http://creativecommons.org/ns#"
   xmlns:rdf="http://www.w3.org/1999/02/22-rdf-syntax-ns#"
   xmlns:svg="http://www.w3.org/2000/svg"
   xmlns="http://www.w3.org/2000/svg"
   xmlns:xlink="http://www.w3.org/1999/xlink"
   xmlns:sodipodi="http://sodipodi.sourceforge.net/DTD/sodipodi-0.dtd"
   xmlns:inkscape="http://www.inkscape.org/namespaces/inkscape"
   width="704.51379pt"
   height="202.24261pt"
   viewBox="0 0 704.51379 202.24261"
   version="1.1"
   id="svg2"
   inkscape:version="0.91 r13725"
   sodipodi:docname="The Hits Radio.svg">
  <metadata
     id="metadata26">
    <rdf:RDF>
      <cc:Work
         rdf:about="">
        <dc:format>image/svg+xml</dc:format>
        <dc:type
           rdf:resource="http://purl.org/dc/dcmitype/StillImage" />
        <dc:title></dc:title>
      </cc:Work>
    </rdf:RDF>
  </metadata>
  <defs
     id="defs24">
    <linearGradient
       inkscape:collect="always"
       id="linearGradient4162">
      <stop
         style="stop-color:#3fc0f0;stop-opacity:1"
         offset="0"
         id="stop4164" />
      <stop
         id="stop4170"
         offset="0.24016455"
         style="stop-color:#4cbfcc;stop-opacity:1" />
      <stop
         style="stop-color:#63be8a;stop-opacity:1"
         offset="0.48769987"
         id="stop4172" />
      <stop
         id="stop4174"
         offset="0.72793257"
         style="stop-color:#78bd4c;stop-opacity:1" />
      <stop
         style="stop-color:#86bc24;stop-opacity:1"
         offset="1"
         id="stop4166" />
    </linearGradient>
    <linearGradient
       inkscape:collect="always"
       xlink:href="#linearGradient4162"
       id="linearGradient4168"
       x1="0"
       y1="101.55128"
       x2="704.51379"
       y2="101.55128"
       gradientUnits="userSpaceOnUse"
       gradientTransform="translate(0,-0.42996929)" />
  </defs>
  <sodipodi:namedview
     pagecolor="#ffffff"
     bordercolor="#666666"
     borderopacity="1"
     objecttolerance="10"
     gridtolerance="10"
     guidetolerance="10"
     inkscape:pageopacity="0"
     inkscape:pageshadow="2"
     inkscape:window-width="1920"
     inkscape:window-height="1017"
     id="namedview22"
     showgrid="false"
     fit-margin-top="0"
     fit-margin-left="0"
     fit-margin-right="0"
     fit-margin-bottom="0"
     inkscape:zoom="1.307234"
     inkscape:cx="489.35688"
     inkscape:cy="186.8255"
     inkscape:window-x="-8"
     inkscape:window-y="-8"
     inkscape:window-maximized="1"
     inkscape:current-layer="svg2" />
  <path
     style="opacity:1;fill:url(#linearGradient4168);fill-opacity:1"
     inkscape:connector-curvature="0"
     id="path5"
     d="m 216.45,8.9700307 c 21.28,-9.73999999 45.98,-11.55 68.54,-5.42 20.77,5.59 39.38,18.1800003 52.77,34.9500003 -0.01,-11.39 -0.01,-22.78 0,-34.1700003 24.01,0 48.02,-0.04 72.04,0.02 8.9,12.7700003 17.81,25.5400003 26.69,38.3400003 0.03,-12.79 0,-25.58 0.02,-38.3600003 26.58,-0.01 53.15,-0.01 79.73,0 0.02,12.5300003 -0.01,25.0700003 0.02,37.6000003 8.73,-12.54 17.44,-25.1 26.21,-37.6200003 28.17,0.02 56.34,0.01 84.51,0 8.79,0.06 17.57,1.58 25.87,4.5 19.88,7.0300003 36.5,22.5200003 45,41.8100003 8.6,19.26 8.9,42.04 0.76,61.499999 -5.71,14.08 -15.91,26.1 -28.35,34.73 11.37,17.1 22.87,34.12 34.24,51.22 -27.64,0 -55.28,-0.01 -82.92,0.01 -10.81,-15.58 -21.78,-31.05 -32.57,-46.64 -0.04,15.54 0,31.09 -0.03,46.63 -26.74,-0.01 -53.48,0.01 -80.23,-0.01 0,-15.4 0,-30.79 0.01,-46.19 -10.79,23.18 -32.49,40.54 -57.09,47.06 -20.76,5.54 -43.48,4 -63.08,-4.91 -18.65,-8.27 -34.28,-23.18 -43.17,-41.58 -11.42,19.43 -29.49,34.85 -50.52,42.97 -20.55,8.01 -43.73,9 -64.9,2.85 -26.03,-7.41 -48.54,-25.85 -61.21,-49.74 -6.69,13.15 -16.57,24.68 -28.6,33.23 -15.62,11.22 -34.95,17.07 -54.15,16.57 -25.35,-0.01 -50.69,0.01 -76.04,0 -3.33,-0.02 -6.69,0.2 -10,-0.35 l 0,-61.97 0.74,-8.57 c 12.86,-0.26 25.72,-0.04 38.58,-0.11 -12.86,-19.24 -26.03,-38.309999 -38.69,-57.679999 -0.31,-21.76 -0.05,-43.54 -0.13,-65.3200003 22.16,-0.01 44.31,0 66.46,0 C 75.97,17.310031 85,30.290031 94,43.290031 L 94,4.3200307 c 28.42,0 56.83,0 85.24,0.01 0.03,11.1600003 -0.03,22.3200003 0.03,33.4900003 9.94,-12.33 22.73,-22.35 37.18,-28.8500003"
     sodipodi:nodetypes="cccccccccccccccccccccccccccccccccccccccccc" />
  <path
     style="opacity:1;fill:#ffffff"
     inkscape:connector-curvature="0"
     id="path8"
     d="m 566.82,54.250031 c 14.32,-1.41 29.8,1.1 41.3,10.28 -4.26,5.86 -8.37,11.82 -12.75,17.58 -7.13,-4.92 -15.79,-7.95 -24.52,-7.5 -2.36,-0.19 -5.56,2.31 -3.56,4.7 2.67,2.22 6.35,2.53 9.62,3.33 9.34,1.91 19.42,3.77 26.81,10.26 6.12,5.23 7.31,14.189999 5.35,21.629999 -1.76,7.51 -7.82,13.36 -14.8,16.23 -9.24,3.8 -19.54,3.89 -29.31,2.6 -10.5,-1.44 -20.93,-5.27 -28.96,-12.34 4.6,-5.57 9.23,-11.13 13.95,-16.6 8.56,6.27 19.38,9.96 30.04,8.79 2.59,0.05 4.96,-3.26 2.37,-5.12 -4.35,-2.47 -9.51,-2.71 -14.26,-3.97 -7.99,-1.93 -16.45,-4.199999 -22.52,-10.079999 -6.6,-6.63 -6.64,-17.5 -2.67,-25.51 4.52,-8.8 14.43,-13.34 23.91,-14.28 z" />
  <path
     style="opacity:1;fill:#ffffff"
     inkscape:connector-curvature="0"
     id="path10"
     d="m 86.25,55.330031 c 20.91,-0.04 41.82,-0.03 62.74,0 0.02,4.25 0.03,8.5 -0.02,12.74 -8.07,0.01 -16.14,-0.01 -24.21,0.03 -0.03,21.49 0,42.969999 -0.01,64.459999 -4.67,0.04 -9.33,0.03 -14,0 -0.06,-21.5 0.06,-42.999999 -0.06,-64.499999 -8.14,0.04 -16.28,0.02 -24.42,0.02 -0.04,-4.25 -0.02,-8.5 -0.02,-12.75 z" />
  <path
     style="opacity:1;fill:#ffffff"
     inkscape:connector-curvature="0"
     id="path12"
     d="m 164.52,132.57003 c 0.06,-25.77 -0.24,-51.549999 0.16,-77.309999 4.51,0.12 9.03,0.02 13.55,0.07 0.05,10.66 -0.01,21.32 0.03,31.98 12.16,0.02 24.32,0.02 36.48,0 0.04,-10.66 -0.03,-21.32 0.03,-31.97 4.57,-0.03 9.14,-0.03 13.71,-0.01 0.04,25.75 0.02,51.489999 0.01,77.229999 -4.58,0.02 -9.15,0.03 -13.73,-0.01 -0.01,-10.8 -0.04,-21.59 0.02,-32.39 -12.18,-0.169999 -24.37,-0.11 -36.55,-0.03 0.03,10.81 0.03,21.62 0.01,32.43 -4.57,0.02 -9.15,0.01 -13.72,0.01 z" />
  <path
     style="opacity:1;fill:#ffffff"
     inkscape:connector-curvature="0"
     id="path14"
     d="m 247.01,55.330031 c 19.16,-0.02 38.32,-0.02 57.47,0.01 0.03,4.07 0.03,8.15 0.01,12.22 -14.58,0.03 -29.15,-0.02 -43.73,0.03 -0.02,6.65 -0.02,13.3 0,19.96 12.92,0.08 25.85,-0.08 38.77,0.09 -0.07,4.06 0.05,8.13 -0.11,12.19 -12.88,-0.02 -25.76,-0.02 -38.64,0 -0.05,6.829999 -0.05,13.649999 0,20.479999 14.73,0.03 29.47,-0.01 44.21,0.02 0.02,4.08 0.02,8.15 0,12.23 -19.33,0.01 -38.65,0.03 -57.98,0 -0.01,-25.74 -0.03,-51.489999 0,-77.229999 z" />
  <path
     style="opacity:1;fill:#ffffff"
     inkscape:connector-curvature="0"
     id="path16"
     d="m 330.26,55.340031 c 8.66,-0.04 17.31,-0.03 25.97,0 0.05,9.07 0.01,18.14 0.02,27.21 7.74,0.04 15.49,0.02 23.24,0.01 0.09,-9.09 -0.13,-18.18 0.11,-27.26 8.62,0.04 17.24,0.01 25.86,0.02 0.1,25.74 0,51.479999 0.05,77.219999 -8.67,0.06 -17.35,0.05 -26.02,0 0,-9.15 0.03,-18.31 -0.01,-27.46 -7.68,-0.07 -15.37,0.09 -23.05,-0.09 -0.43,9.18 -0.05,18.38 -0.19,27.57 -8.67,0.02 -17.33,0.03 -25.99,-0.01 0.01,-25.74 -0.01,-51.469999 0.01,-77.209999 z" />
  <path
     style="opacity:1;fill:#ffffff"
     inkscape:connector-curvature="0"
     id="path18"
     d="m 422.26,55.350031 c 8.66,-0.06 17.31,-0.04 25.97,-0.01 0.03,25.74 0.02,51.479999 0.01,77.209999 -8.67,0.03 -17.33,0.04 -25.99,0 0.01,-25.73 -0.02,-51.469999 0.01,-77.199999 z" />
  <path
     style="opacity:1;fill:#ffffff"
     inkscape:connector-curvature="0"
     id="path20"
     d="m 460.26,55.350031 c 23.74,-0.05 47.48,-0.04 71.22,-0.01 0.08,7.28 -0.06,14.56 0.08,21.84 -7.51,0.33 -15.04,0.03 -22.55,0.15 -0.03,18.41 0.01,36.819999 -0.02,55.229999 -8.66,0.02 -17.32,0.02 -25.98,0 -0.03,-18.41 0.01,-36.819999 -0.02,-55.229999 -7.58,-0.04 -15.15,0.02 -22.73,-0.02 -0.03,-7.32 -0.02,-14.64 0,-21.96 z" />
</svg>
