<?xml version="1.0" encoding="UTF-8" standalone="no"?>
<svg
   xmlns:dc="http://purl.org/dc/elements/1.1/"
   xmlns:cc="http://creativecommons.org/ns#"
   xmlns:rdf="http://www.w3.org/1999/02/22-rdf-syntax-ns#"
   xmlns:svg="http://www.w3.org/2000/svg"
   xmlns="http://www.w3.org/2000/svg"
   xmlns:sodipodi="http://sodipodi.sourceforge.net/DTD/sodipodi-0.dtd"
   xmlns:inkscape="http://www.inkscape.org/namespaces/inkscape"
   width="275.74634pt"
   height="154.58617pt"
   viewBox="0 0 275.74634 154.58617"
   version="1.1"
   id="svg2"
   inkscape:version="0.91 r13725"
   sodipodi:docname="UCB Ireland - Dark.svg">
  <metadata
     id="metadata31">
    <rdf:RDF>
      <cc:Work
         rdf:about="">
        <dc:format>image/svg+xml</dc:format>
        <dc:type
           rdf:resource="http://purl.org/dc/dcmitype/StillImage" />
        <dc:title></dc:title>
      </cc:Work>
    </rdf:RDF>
  </metadata>
  <defs
     id="defs29" />
  <sodipodi:namedview
     pagecolor="#ffffff"
     bordercolor="#666666"
     borderopacity="1"
     objecttolerance="10"
     gridtolerance="10"
     guidetolerance="10"
     inkscape:pageopacity="0"
     inkscape:pageshadow="2"
     inkscape:window-width="1920"
     inkscape:window-height="1017"
     id="namedview27"
     showgrid="false"
     fit-margin-top="0"
     fit-margin-left="0"
     fit-margin-right="0"
     fit-margin-bottom="0"
     inkscape:zoom="1.6130436"
     inkscape:cx="209.20963"
     inkscape:cy="177.82646"
     inkscape:window-x="-8"
     inkscape:window-y="-8"
     inkscape:window-maximized="1"
     inkscape:current-layer="svg2" />
  <g
     id="#ecbebeff"
     transform="translate(-73.59,-14.51136)" />
  <g
     id="#171314ff"
     transform="translate(-73.59,-14.51136)">
    <path
       d="m 172.24,42.25 c 6.84,-14.36 21.03,-24.98 36.83,-27.16 21.26,-3.49 44.63,9.11 51.96,29.62 l -26.89,11.13 c -2.22,-5.76 -7,-10.7 -13.15,-12.04 -8.04,-2 -16.51,3.19 -19.6,10.62 -4.88,10.01 -0.05,23.8 10.74,27.49 9.08,3.32 19.29,-2.89 22.02,-11.82 l 27.07,11.24 c -5.33,13.12 -16.75,23.48 -30.27,27.65 -12.81,4.11 -27.28,2.59 -38.93,-4.13 -12.08,-6.92 -21.11,-19.15 -23.55,-32.92 -2.04,-9.96 -0.53,-20.51 3.77,-29.68 z"
       id="path6"
       inkscape:connector-curvature="0"
       style="opacity:1;fill:#171314"
       sodipodi:nodetypes="ccccccccccccc" />
    <path
       d="m 73.59,17.38 31.05,0.04 c -0.04,17.85 -0.03,35.7 0,53.55 -0.03,4.65 2.68,9.38 7.1,11.13 5.17,2.07 11.46,1.94 16.22,-1.12 3.26,-2.18 5.07,-6.12 4.91,-10.01 0.07,-17.87 -0.13,-35.74 0.09,-53.6 l 31.01,-0.02 c 0.01,18.23 0.1,36.47 -0.02,54.7 -0.08,9.01 -2.66,18.29 -8.73,25.14 -7.01,8.14 -17.7,12.09 -28.15,13.22 -12.94,1.07 -26.87,0.04 -37.97,-7.35 C 79.14,96.6 73.76,84.68 73.63,73.03 73.57,54.48 73.65,35.93 73.59,17.38 Z"
       id="path8"
       inkscape:connector-curvature="0"
       style="opacity:1;fill:#171314"
       sodipodi:nodetypes="cccccccccccccc" />
    <path
       d="m 264.56,17.34 c 15.8,0.08 31.61,0.01 47.41,0.03 5.37,0.06 10.83,-0.36 16.1,0.94 8.47,1.79 16.02,8.18 18.51,16.58 2.87,9.59 -0.48,21.36 -9.58,26.36 5.02,2.86 9.1,7.41 10.88,12.96 3.33,9.3 0.84,20.45 -6.35,27.27 -5.28,4.77 -12.51,6.83 -19.51,6.93 -19.16,0.08 -38.33,-0.08 -57.49,0.08 l 0.03,-91.15 m 30.72,22.94 -0.06,11.49 c 4.94,-0.01 9.88,0.02 14.82,0.01 1.56,-0.09 3.49,0.13 4.51,-1.35 3.06,-2.99 1.68,-9.45 -2.85,-9.99 -5.47,-0.29 -10.95,0.03 -16.42,-0.16 m -0.12,32.91 0.01,12.61 c 6.19,-0.07 12.39,0.22 18.57,-0.1 6.06,-0.94 5.99,-11.37 0,-12.39 -6.18,-0.33 -12.39,0 -18.58,-0.12 z"
       id="path10"
       inkscape:connector-curvature="0"
       style="opacity:1;fill:#171314"
       sodipodi:nodetypes="ccccccccccccccccccccc" />
    <path
       d="m 75.77,122.74 5.93,0 0,46.3096 -5.92,0 z"
       id="path12"
       inkscape:connector-curvature="0"
       style="opacity:1;fill:#171314"
       sodipodi:nodetypes="ccccc" />
    <path
       d="m 92.61,122.74 18.35,0 c 3.35,-0.04 6.84,0.71 9.51,2.83 7.08,4.97 7.24,17.09 0.13,22.1 -1.94,1.47 -4.36,2.04 -6.65,2.76 l 12.53,18.42 -7.15,0.08 -11.64,-18.33 c -3.1,0.03 -6.1,0.02 -9.19,-0.03 l 0,18.44 -5.92,0.0396 0.03,-46.3096 m 5.89,22.85 c 5.31959,0.0211 10.32657,0.28122 15.58,-0.64 7.11,-1.94 7.79,-13.39 0.97,-16.16 -5.3265,-1.38655 -10.97251,-1.13747 -16.55,-1.13 z"
       id="path14"
       inkscape:connector-curvature="0"
       style="opacity:1;fill:#171314"
       sodipodi:nodetypes="ccccccccccccccccc" />
    <path
       d="m 135.18,122.6096 30.2504,0 0,5.0304 -24.58,0 0,15.1304 23.7,0 0,5.4592 -23.7,0 0,15.5804 24.58,-0.13 -0.0204,5.4 -30.23,0 z"
       id="path16"
       inkscape:connector-curvature="0"
       style="opacity:1;fill:#171314"
       sodipodi:nodetypes="ccccccccccccc" />
    <path
       d="m 174.27,122.73 5.62,-0.05 0.07,41.05 21.55,-0.09 0.2,5.24 -27.46,0.11 z"
       id="path18"
       inkscape:connector-curvature="0"
       style="opacity:1;fill:#171314"
       sodipodi:nodetypes="ccccccc" />
    <path
       d="m 224.09,122.69 7.15,0.1 18.69,46.13 -6.82,-0.13 -3.9,-10.04 -23.07,-0.01 -4.06,10.18 -6.58,0.11 18.59,-46.34 m 3.55,6.25 -9.78,24.62 19.67,0 z"
       id="path20"
       inkscape:connector-curvature="0"
       style="opacity:1;fill:#171314"
       sodipodi:nodetypes="ccccccccccccc" />
    <path
       d="m 255.79,122.71 6.01,0.04 26.66,36.07 -0.01,-36.07 5.83,-0.01 -0.04,46.21 -5.37,0.12 -27.18,-37.08 -0.1,37.05 -5.82,-0.04 z"
       id="path22"
       inkscape:connector-curvature="0"
       style="opacity:1;fill:#171314"
       sodipodi:nodetypes="ccccccccccc" />
    <path
       d="m 304.6,122.74 c 10.45343,0.022 21.98041,-0.73571 30.88,4.67 12.18,8.81 11.65,29.87 -1.23,37.77 -9.27837,4.70367 -19.46506,3.83796 -29.64,3.88 m 5.81,-5.34 c 6.99261,-0.003 13.48163,0.50326 19.86,-2.42 10.5,-6.24 10.73,-23.53 0.77,-30.4 -6.43396,-3.70504 -13.74,-3.20698 -20.63,-3.22 z"
       id="path24"
       inkscape:connector-curvature="0"
       style="opacity:1;fill:#171314"
       sodipodi:nodetypes="ccccccccc" />
  </g>
  <g
     id="#ffffffff"
     transform="translate(-73.59,-14.51136)" />
</svg>
