<svg height="403.61975pt" viewBox="0 0 708 403.61975" width="708pt" xmlns="http://www.w3.org/2000/svg"><g fill="#007dc0"><path d="m0 0h54.61l30.86 137.7696 37-137.7696h52.11l35.18 137.7696 17.52-75.8096 14.53-61.96h53.19l-54.4 201.75-57.54.02-36.03-130.93-35.06 130.97-57.74-.04-54.23-201.16z"/><path d="m313.57 0h99.08c11.23.81 22.8 1.33 33.28 5.88 14.4 5.65 27.54 16.79 32.03 32.01 3.57 13.1 2.99 27.24-.88 40.21-5.58 17.22-20.53 29.52-36.44 37.01l67.29 86.7-63.77-.02-55.04-74.21-23.64-.06-.12 74.29-51.71.03zm51.81 37.3.1 54.21c9.83-.29 19.7.4 29.51-.65 5.8-.49 11.73-1.25 17.03-3.82 6.64-3.42 12.27-9.57 13.56-17.11 1.33-7.66 1.43-16.48-3.54-22.94-5.21-6.7-14.09-8.76-22.13-9.41-11.5-.53-23.02-.19-34.53-.28z"/><path d="m522.56 0h62.24l72.94 114.27.03-114.27h48.08l-.01 201.79-50.39-.07-84.95-137.86.03 137.78-47.93.2z"/><path d="m207.34 249.45c8.07-.65 16.58-.03 23.73 4.12 8.28 4.46 13.58 13.27 14.81 22.47 1.6 10.78.18 23.01-7.38 31.41-5.11 5.94-12.73 9.33-20.46 10.03-8.73.72-18.13.09-25.6-4.95-7.78-4.89-12.34-13.67-13.48-22.62-1.13-9.61.01-20.06 5.79-28.1 5.13-7.31 13.81-11.57 22.59-12.36m2.68 12.55c-6.56.79-11.13 6.51-12.58 12.62-1.86 7.98-1.61 17.03 2.81 24.17 4.65 7.28 15.96 8.56 22.23 2.68 4.86-4.36 6.1-11.26 6.19-17.49.02-6.13-1.01-12.77-5.23-17.5-3.2-3.83-8.62-5.23-13.42-4.48z"/><path d="m446.11 252.06c12.21-4.75 26.5-3.35 38.02 2.72-.09 5.46.06 10.92-.11 16.38-3.55-.58-5.73-3.71-8.77-5.32-5.9-3.82-13.84-4.98-20.25-1.79-5.91 2.93-9.28 9.44-9.72 15.85-.61 7.03.21 15.07 5.62 20.18 6.48 6.24 17.15 5.91 24.44 1.25 3.04-1.6 5.22-4.66 8.68-5.43.14 5.39.08 10.79.07 16.19-10.67 5.53-23.34 7.22-34.98 4.06-7.37-2.01-13.94-6.94-17.58-13.7-4.51-8.1-4.86-17.83-3.62-26.82 1.51-10.28 8.31-19.88 18.2-23.57z"/><path d="m601.13 250.26c11.18-2.14 22.78-.35 33.41 3.47.03 5.03.14 10.07.02 15.1-1.57.79-2.85-.5-4.13-1.22-7.76-5.14-17.8-7.47-26.85-4.78-5.18449 1.7421-6.38635 7.73525-1.93 9.48 6.29 2.88 13.41 2.92 19.9 5.2 5.32 1.76 10.94 4.34 13.73 9.5 3.78 7.48 2.02 17.37-4.29 22.94-6.46 5.83-15.45 7.72-23.94 7.56-9.04.29-18.18-1.35-26.38-5.21.14-5.27.03-10.54.07-15.81 3.34.23 5.68 2.9 8.58 4.24 7.51 3.78 16.33 5.77 24.64 3.75 2.96-.7 6.21-2.96 5.64-6.43-.76-3.42-4.41-4.62-7.4-5.36-8.39-2.05-17.56-2.84-24.64-8.3-6.01-4.62-7.54-13.25-5.27-20.19 2.94-7.85 11.05-12.23 18.84-13.94z"/><path d="m25.16 250.71c9.27-.23 18.55-.03 27.82-.11 6.33-.12 13.08.3 18.49 3.94 5.98 3.91 7.3 12.73 3.82 18.72-1.63 3.1-4.61 5.1-7.45 6.99 5.23 1.23 10.48 4.28 12.49 9.5 2.3 6.31 1.24 14.06-3.55 18.97-5.29 5.72-13.33 7.71-20.87 7.74-10.26.05-20.52.11-30.78-.04.17-21.9.11-43.81.03-65.71m17.14 11.91c-.14 4.57-.03 9.15-.16 13.72 4.53-.1 9.24.72 13.61-.75 4.99-1.6 5.33-9.96.41-11.83-4.44-1.55-9.24-.91-13.86-1.14m-.09 25.53c.01 5.33.06 10.65-.04 15.98 5.84-.19 12.06 1.01 17.58-1.41 5.64-2.42 5.48-12.29-.75-13.81-5.47-1.42-11.21-.53-16.79-.76z"/><path d="m102.79 250.63c10.75-.04 21.49-.02 32.24-.02 6.66.01 13.8 1.82 18.46 6.88 4.49 5.05 4.66 12.6 2.74 18.78-1.77 5.56-6.64 9.4-11.66 11.94 7.01 9.59 14.83 18.59 21.64 28.32-6.91-.04-13.82-.04-20.73-.02-6-8-11.91-16.07-17.87-24.1-2.65-.05-5.31-.01-7.95.14.18 7.95-.06 15.91.15 23.87-5.68.15-11.36.08-17.03.05.03-21.95 0-43.89.01-65.84m17.26 12.53c-.82 5.62-.07 11.45-.33 17.15 5.08-.09 10.48.72 15.29-1.33 5.88-2.67 6.62-13.01 0-15.18-4.82-1.33-10.05-1.32-14.96-.64z"/><path d="m284.99 250.67 19.88.03 24.27 65.71-17.98-.05-4.28-13.05-24.33-.02-4.39 13.22-17.37-.05zm9.39 17.98-7.51 22.2 15.71.06z"/><path d="m347.14 316.4c.31-21.96-.16-43.92.24-65.88 9.51.24 19.04-.06 28.56.15 8.45.53 17.4 2.64 23.66 8.72 13.21 12.09 13.06 35.14.39 47.58-6.71 6.93-16.66 9.31-26 9.46-8.95.1-17.9.15-26.85-.03m17.2-53.16c.03 13.56.08 27.11-.02 40.67 7.36.11 15.88.6 21.65-4.86 6.27-5.96 6.9-15.86 4.53-23.74-1.74-6.19-7.4-10.65-13.6-11.78-4.16-.56-8.38-.26-12.56-.29z"/><path d="m522.6 250.53 19.42.09 24.44 65.85-17.75.06-4.82-13.18-23.93-.13-4.71 13.35-17.12-.07m33.78-48.47-7.87 22.69h15.85z"/><path d="m650.94 250.62h57.06v12.87l-19.48.06-.02 53-17.06.03-.04-53.02-20.47-.06z"/></g><path d="m533.30975 365.60526 169.75975-.045v38.05949h-169.75975z" fill="#1462ad"/><path d="m24.50025 365.56026h169.6395v38.05949h-169.6395z" fill="#ee3348"/><path d="m194.13975 365.56026h169.59v38.05949h-169.59z" fill="#a0cd56"/><path d="m363.72975 365.56026h169.58025v38.05949h-169.58025z" fill="#ee2690"/></svg>