<svg width="800" height="340.74" version="1.1" xmlns="http://www.w3.org/2000/svg">
 <link href="" rel="stylesheet" type="text/css"/>
 <style type="text/css"/>
 <path d="m0 340.45v-25.563c99.346-95.861 149.02-140.89 149.02-198.11s-47.349-60.712-59.259-60.712-34.858 2.9049-58.097 19.463l-23.82-22.948c24.11-19.753 49.964-31.373 88.889-31.373s94.408 22.077 94.408 89.179-57.807 126.36-133.91 195.79h141.76l-33.696 34.277zm248.66 0 37.182-37.182v-74.365c0-48.511 39.216-87.727 87.727-87.727h46.478v-37.473h-47.64c-68.264 0-123.75 55.483-123.75 123.75zm315.76-236.75h-2.6144c-68.264 0-123.75 55.483-123.75 123.75v113.29l37.182-37.182v-74.655c0-48.511 39.216-87.727 87.727-87.727s91.794 39.216 91.794 87.727v103.41l37.182-37.182v-67.974c0-68.264-55.773-123.46-127.52-123.46z" fill="#386fb6" stroke-width="2.9049"/>
 <path d="m800 145.24h-24.11c-16.267-61.002-63.617-106.61-126.36-121.42v-23.82c76.107 15.686 133.33 70.879 150.47 145.24z" fill="#ce0538" stroke-width="2.9049"/>
 <path d="m761.66 145.24h-24.401c-13.653-40.668-45.316-70.879-87.727-83.66v-24.11c55.773 13.943 97.023 53.74 112.13 107.77z" fill="#eb5d40" stroke-width="2.9049"/>
 <path d="m718.37 145.24h-24.691c-8.4241-20.915-22.658-35.149-44.154-43.863v-24.691c35.149 11.329 57.807 33.987 68.845 68.555z" fill="#f3ce00" stroke-width="2.9049"/>
</svg>
