<svg enable-background="new 0 0 856.979 238.851" version="1.1" viewBox="0 0 227.58 74.001" xml:space="preserve" xmlns="http://www.w3.org/2000/svg"><g transform="matrix(.34718 0 0 .34718 -.00012234 0)"><path d="m110.72 0c-17.252 0-33.484 4.362-47.657 12.038-7.077 5.834-15.854 15.552-16.363 28.729-0.161 6.719 2.955 10.984 3.828 11.716 15.858-18.618 39.468-30.433 65.84-30.433 47.746 0 86.452 38.707 86.452 86.453 0 22.631-8.701 43.23-22.936 58.641l-0.803 6.358c19.6-18.294 31.859-44.354 31.859-73.278 0-55.354-44.871-100.22-100.22-100.22z" fill="#054482"/><path d="m138.26 130.23c-18.366-23.745-19.093-24.677-28.688-37.669-23.407 0.675-111.02-29.779-53.21-80.06-7.798 2.137-22.005 13.89-27.219 29.388-11.432 33.985 18.75 85.696 109.12 88.341z" fill="#054482"/><path d="m143.97 143.66c-39.854 3.257-93.559-16.989-114.21-50.939-10.912-17.939-13.971-43.061 2.363-63.673 0 0-8.864 5.382-15.202 18.581-23.961 50.818 18.262 126.46 119.27 138.47 0.022 0 6.789-4.124 25.984-18.658-6.266-8.505-8.794-11.748-18.2-23.783z" fill="#027eb3"/><path d="m10.352 57.707c-0.786 0.757-7.635 11.16-9.703 28.123-5.605 45.061 24.981 105.4 96.967 127.32 0.013 0 7.354-3.673 27.126-16.035-64.93-9.44-138.06-74.541-114.39-139.41z" fill="#8cb6e7"/></g><g transform="matrix(.16206 0 0 .16206 77.662 -3.8681)" fill="#014d7b"><path d="m39.14 54.8 126.96-0.04 4.41 25.62-51.02 0.17-0.15 130.77-30.75-0.02-0.1-130.85-49.33-0.05z"/><path d="m193.07 54.8 49.94-0.01c13.36-0.04 27.11 2.56 38.58 9.68 9.76 5.95 16.48 16.37 18.33 27.6 2.4 11.54 0.97 23.95-4.22 34.54-5.89 11.86-17.69 19.79-30.15 23.43-13.3 4.07-27.38 3.78-41.14 3.69l-0.02 57.56h-31.29l-0.03-156.49m31.27 74.74c7.2-0.05 14.43 0.32 21.61-0.4 7.18-0.6 14.47-3.43 19.22-9.01 5.17-6.09 5.99-14.74 4.8-22.35-1.07-7.41-6.46-13.72-13.36-16.42-10.23-4.12-21.46-2.37-32.19-2.74z"/><path d="m325.43 211.32-0.01-156.6 30.46 0.07v107.43l70.93-107.44 31.53-0.04 0.04 156.58h-30.56l-0.2-109.72-72.3 109.73z"/><path d="m88.44 258.05 33.2-0.04 60.1 153.69-31.03 5.59-16.22-41.76-61.79 0.04-14.7 39.93-31.24-0.04 61.68-157.41m-7.53 93.33 45.05-0.05-22.17-60.98z"/><path d="m830.9 257.95 33.25-0.06 60.89 153.64-31.94 5.69-15.77-41.56-62.36 0.1-14.44 39.82-31.28-0.05 61.65-157.58m-7.49 93.44 45.02-0.01-22.32-60.72z"/><path d="m204.82 258.77 31.36 0.01-0.04 61.93 70.16 0.07 0.03-62.02 31.22-0.09 0.15 156.91-31.33 0.01-0.06-68.16-70.09-0.06 0.08 68.17-31.44 0.04z"/><path d="m372.61 258.64 88.99-0.01 4.34 26.96-61.82 0.11-0.07 129.89-31.34-0.34z"/><path d="m489.37 415.58-0.02-157.03 95.54 0.2-0.03 25.1-64.4 0.37-0.09 37.51 49.67 0.16 4.31 24.81-53.88 0.01 0.04 43.74 66.55-0.04 0.03 25.14z"/><path d="m649.13 258.78 97.47-0.19-0.05 157.08-31.37-0.09v-131l-38.55-0.02c-3.12 21.81-4.95 43.81-8.89 65.5-3.82 18.27-8.64 37.8-22.4 51.33-10.61 10.73-25.7 14.95-40.16 17.39l-4.28-25.98c7.21-2 14.53-4.54 20.12-9.74 8.78-7.91 12.49-19.67 15.24-30.8 3.98-17.94 5.45-36.29 8.09-54.44 1.35-13.05 3.48-25.99 4.78-39.04z"/></g></svg>
