<svg width="800" height="290.1" version="1.1" xmlns="http://www.w3.org/2000/svg"><g transform="matrix(0 1.3333 1.3333 0 -995.72 127.13)"><g transform="matrix(6.863 0 0 6.863 -716.63 -4378.5)"><g transform="translate(93.937 771.05)"><path d="m0 0c-8e-3 0.109-0.032 0.21-0.072 0.304s-0.097 0.171-0.172 0.232c-0.076 0.06-0.176 0.091-0.301 0.091-0.188 0-0.332-0.063-0.433-0.189-0.1-0.125-0.15-0.269-0.15-0.432 0-0.226 0.074-0.396 0.223-0.51 0.148-0.116 0.335-0.171 0.56-0.167v-0.846c-0.225 9e-3 -0.431 0.049-0.617 0.122s-0.346 0.176-0.48 0.308c-0.133 0.131-0.237 0.289-0.31 0.473s-0.109 0.388-0.109 0.614c0 0.175 0.026 0.351 0.078 0.526 0.052 0.176 0.131 0.333 0.235 0.474 0.104 0.139 0.232 0.253 0.382 0.341 0.151 0.088 0.324 0.132 0.52 0.132 0.214 0 0.402-0.052 0.564-0.154 0.163-0.102 0.274-0.256 0.333-0.461h0.012c0.055 0.243 0.172 0.433 0.351 0.571 0.18 0.138 0.395 0.207 0.646 0.207 0.229 0 0.434-0.045 0.614-0.135 0.179-0.09 0.33-0.21 0.451-0.36 0.121-0.151 0.213-0.324 0.276-0.521 0.063-0.196 0.094-0.401 0.094-0.614 0-0.246-0.036-0.471-0.107-0.674-0.071-0.202-0.174-0.375-0.31-0.517s-0.302-0.251-0.498-0.329c-0.196-0.077-0.422-0.113-0.677-0.109v0.846c0.117 4e-3 0.229 0.023 0.335 0.056 0.107 0.034 0.199 0.082 0.276 0.144 0.077 0.063 0.139 0.141 0.185 0.235s0.069 0.206 0.069 0.336c0 0.2-0.062 0.369-0.185 0.507s-0.291 0.207-0.505 0.207c-0.167 0-0.294-0.032-0.382-0.097-0.087-0.065-0.151-0.147-0.191-0.248-0.04-0.1-0.063-0.209-0.069-0.329-6e-3 -0.119-9e-3 -0.232-9e-3 -0.341h-0.627c9e-3 0.096 9e-3 0.198 0 0.307" fill="#068cce"/></g><path d="m92.076 775.46 4.475 1.673v-1.021l-0.997-0.339v-1.673l0.997-0.351v-0.99l-4.475 1.692zm2.745 0.056-1.642-0.564v-0.012l1.642-0.583z" fill="#068cce"/><g transform="translate(92.076 779.63)"><path d="m0 0c0 0.213 0.019 0.407 0.057 0.583 0.037 0.175 0.099 0.326 0.184 0.451 0.086 0.125 0.2 0.223 0.342 0.292 0.142 0.068 0.317 0.103 0.526 0.103 0.226 0 0.414-0.051 0.564-0.153 0.151-0.103 0.274-0.255 0.37-0.455 0.08 0.276 0.218 0.482 0.417 0.617 0.198 0.136 0.438 0.204 0.718 0.204 0.225 0 0.42-0.044 0.586-0.131 0.165-0.088 0.299-0.206 0.404-0.355 0.104-0.148 0.182-0.317 0.232-0.507s0.075-0.386 0.075-0.586v-2.169h-4.475zm1.811-0.125c0 0.175-0.041 0.319-0.125 0.432s-0.22 0.169-0.408 0.169c-0.104 0-0.19-0.018-0.256-0.056-0.067-0.037-0.12-0.088-0.157-0.15-0.038-0.063-0.064-0.135-0.079-0.217-0.014-0.081-0.021-0.166-0.021-0.254v-0.921h1.046zm1.899 0.056c0 0.096-9e-3 0.188-0.028 0.276s-0.05 0.165-0.094 0.232c-0.044 0.066-0.103 0.12-0.179 0.16-0.075 0.039-0.171 0.059-0.288 0.059-0.23 0-0.393-0.065-0.492-0.194-0.098-0.13-0.147-0.301-0.147-0.514v-1.072h1.228z" fill="#068cce"/></g><path d="m92.076 782.91 3.002 1.868v0.012h-3.002v0.921h4.475v-0.984l-2.996-1.861v-0.012h2.996v-0.921h-4.475z" fill="#068cce"/><g transform="matrix(-.098652 .99512 1.0014 .035081 155.02 534.09)"><g transform="translate(229.46 -18.547)"><path d="m0 0c0.585 0 2.157 0.047 2.292 0.53 0.063 0.63-1.834 0.678-2.46 0.724-6.937 0.827-10.839 4.987-12.402 4.987-0.978 0-2.405-1.983-2.578-2.949-0.077-0.435 0.088-0.873 0.34-1.115 0.987-2.128 2.205-4.065 3.53-6.24 3.75-6.098 7.862-10.985 11.785-17.228 0.167-0.436 0.21-0.725 0.16-1.016-0.035-0.193-0.166-0.388-0.211-0.629 0.024-0.145 0.153-0.242 0.25-0.242 0.292 0 0.669 0.193 0.793 0.337 1.221 0.534 2.525 1.55 2.708 2.565 0.283 1.598-1.729 3.485-1.729 3.485-6.023 6.775-12.372 15.291-14.038 19.115 3.621-1.357 7.309-2.324 11.56-2.324" fill="#f1491c"/></g><g transform="translate(248.67 -27.792)"><path d="m0 0c0.299 0.291 0.397 0.58 0.466 0.967 0.214 1.211-0.198 2.178-0.588 2.178-0.106-0.049-0.124-0.145-0.133-0.194-0.033-0.194 0.046-0.29 0.149-0.531 0.048-0.291 0.116-0.726 0.082-0.92-0.182-1.016-1.477-1.16-2.16-1.16-3.18 0-7.233 3.289-9.124 6.388-0.763 1.21-1.734 3.435-1.584 4.836 1.995-2.804 7.395-6.772 7.395-6.772 0.33-0.34 0.759-0.679 1.295-0.679 0.785 0 2.253 1.403 2.305 1.694-0.028 0.097-0.175 0.097-0.175 0.097-0.859 0.676-1.229 2.999-1.218 3.048-0.13 0.918-0.153 1.888-0.058 2.42 0.577 2.42 1.608 1.887 1.696 2.371-0.034 0.097-0.269 0.143-0.466 0.143-2.11-0.046-3.275-2.467-3.508-3.773-0.345-1.935 0.175-3.968 0.175-3.968-0.965 0.632-1.793 1.452-3.567 3.291-2.957 3.146-3.347 5.083-4.029 5.083-0.834 0-2.077-1.501-2.445-2.47l-0.076-0.436c-0.985-5.514 6.497-14.273 12.117-14.274 0.437 0 0.838 0.05 1.13 0.339 1.56 1.066 2.321 2.322 2.321 2.322" fill="#f1491c"/></g><g transform="translate(259.12 -27.938)"><path d="m0 0c-2.54 3.292-5.243 6.774-6.904 10.888 0.798-0.727 4.129-3.436 4.991-3.533 0.097 0 0.205 0.048 0.222 0.144 0.035 0.193-0.168 0.437-0.475 0.629-0.767 0.628-1.528 1.308-2.277 2.033-1.041 1.017-1.917 2.13-2.41 3.484-0.108 0.484-0.424 0.63-0.913 0.63-1.26-0.484-1.713-1.114-1.878-2.032-0.466-2.613 3.564-9.34 5.253-11.662-1.26 0.34-2.103 0.531-2.446 0.531-0.832 0-1.399-0.724-1.76-1.644 0.206 0.048 0.557 0.389 1.682 0.389 0.978 0 3.139-0.485 3.139-0.485 0.909-1.211 1.434-1.547 4.278-6.147 0.194-0.29 0.225-0.385 0.097-1.112-0.036-0.193-0.182-0.484-0.199-0.58s0.167-0.145 0.266-0.145c0.937 0.049 3.176 1.109 3.426 2.516 0.294 1.645-0.981 2.175-3.296 5.08 0.871-0.048 2.449-0.244 2.55-0.244 0.292 0 1.318 0 1.386 0.389 0.01 0.047-0.022 0.146-0.299 0.242-2.106 0.242-3.567 0.533-4.433 0.629" fill="#f1491c"/></g><g transform="translate(274.98 -29.295)"><path d="m0 0c0.736 0 2.372 0.967 2.527 1.84 0.086 1.304-3.777 5.95-4.708 7.594 1.116-1.157 7.168-7.499 9.058-8.127 0.238-0.05 0.472-0.098 0.669-0.098 0.732 0 2.133 1.015 2.281 1.84 0.036 0.193 0.059 0.339-0.695 1.306-1.47 2.176-3.955 6.048-3.572 8.469 0.129 0.723 0.39 1.933 1.468 1.933 0.048 0 0.107 0.05 0.116 0.098 0.068 0.386-0.446 0.53-0.884 0.53-1.515 1e-3 -3.012-1.546-3.323-3.289-0.509-2.854 0.737-5.175 2.86-8.904-0.645 0.486-1.535 1.259-2.535 2.228-2.34 2.225-5.219 5.273-6.512 7.064-1.09 1.547-1.451 2.274-1.381 2.66 0.025 0.146 0.095 0.242 0.16 0.34-0.029 0.097-0.178 0.097-0.328 0.097-0.681 0-2.007-0.581-2.24-1.887-0.146-0.822 0.3-1.597 0.3-1.597 1.087-2.129 2.294-4.692 5.842-10.839-1.322 0.823-2.412 1.552-2.609 1.552-0.243 0-0.37-0.149-0.386-0.244-0.096-0.532 2.83-2.226 3.184-2.421 0.228-0.096 0.463-0.145 0.708-0.145" fill="#f1491c"/></g><g transform="translate(287.47 -18.876)"><path d="m0 0c-0.343 0.822-0.797 2.372-0.591 3.533 0.139 0.774 0.544 1.403 1.536 1.499 2.963-0.097 5.973-4.597 7.099-7.064 0.46-0.969 0.623-1.984 0.433-3.05-0.186-0.772-0.77-0.482-0.88-0.821-0.038-0.485 0.94-0.485 1.281-0.485 1.077 0 2.163 1.162 2.345 2.179 0.491 2.756-1.57 5.999-3.912 8.224-1.639 1.501-3.435 2.662-5.341 2.662-0.927 0-1.801-0.24-2.742-0.871-1.117-0.774-1.941-1.836-2.193-3.24-0.973-5.47 4.747-11.758 9.778-12.339 0.879 0 1.572 0.336 2.146 0.822 0.689 0.58 1.437 1.209 1.892 1.837 0.106 0.048 0.139 0.243 0.148 0.29 8e-3 0.049-0.019 0.435-0.117 0.435-0.048 0-0.146 0-0.201-0.047-0.619-0.435-1.335-0.63-1.922-0.63-0.88 0-1.569 0.242-1.807 0.291-2.117 0.728-5.574 3.534-6.952 6.775" fill="#f1491c"/></g><g transform="translate(265.86 -28.567)"><path d="m0 0c0.071-0.145 0.135-0.341 0.119-0.435-7e-3 -0.049-0.086-0.194-0.102-0.29-0.017-0.099-0.026-0.146 0.075-0.146 0.339 0 0.658 0.146 1.029 0.291 0.751 0.387 1.759 1.111 1.924 2.031 0.026 0.145-0.029 0.389-0.141 0.58-0.248 0.533-0.908 1.212-1.567 2.18-2.162 2.949-3.694 5.321-4.67 7.788-0.295 0.824-0.425 1.453-0.314 2.081 0.034 0.195 0.299 0.049 0.452 0.339-0.074 0.145-0.171 0.145-0.317 0.145-1.853-0.24-2.139-1.016-2.339-1.886-0.622-3.485 5.691-12.193 5.851-12.678" fill="#f1491c"/></g></g><g transform="matrix(-.098652 .99512 1.0049 0 155.02 534.09)"><g transform="translate(267.83 -34.548)"><path d="m0 0c-0.689 1e-3 -2.643 0.827-2.273 2.034 0.372 1.209 1.885 1.997 2.649 1.715 0.761-0.282 2.029-1.599 1.882-2.404-0.16-0.867-1.355-1.349-2.258-1.345" fill="#f1491c"/></g></g></g><g transform="matrix(6.863 0 0 6.863 121.42 1031.3)"><path d="m0 0v0.619h-3.948v0.014l3.948 2.571v0.716h-4.919v-0.62h3.99v-0.013l-3.99-2.592v-0.695zm0 7.049v3.417h-0.55v-2.764h-1.703v2.557h-0.551v-2.557h-1.565v2.743h-0.55v-3.396zm0 7.393v0.654h-4.369v1.64h-0.55v-3.934h0.55v1.64zm-4.919 10.666v-0.655l4.093-0.999v-0.014l-4.093-1.088v-0.71l4.093-1.102v-0.014l-4.093-0.965v-0.668l4.919 1.261v0.682l-4.134 1.137v0.014l4.134 1.123v0.682zm2.46 3.066c-0.993 0-2.027 0.503-2.027 1.702s1.034 1.702 2.027 1.702c0.992 0 2.026-0.503 2.026-1.702s-1.034-1.702-2.026-1.702m0-0.654c1.343 0 2.576 0.792 2.576 2.356 0 1.565-1.233 2.356-2.576 2.356-1.344 0-2.577-0.791-2.577-2.356 0-1.564 1.233-2.356 2.577-2.356m2.459 7.579v0.654h-2.102v1.599c0 0.634 0.414 0.745 0.889 0.82 0.483 0.097 1.013-6e-3 1.213 0.18v0.729c-0.331-0.275-0.882-0.255-1.357-0.289-0.476-0.055-0.903-0.165-1.013-0.737h-0.014c-0.165 0.599-0.647 0.854-1.247 0.854-0.793 0-1.288-0.564-1.288-1.495v-2.315zm-2.652 0.654h-1.717v1.627c0 0.613 0.352 0.875 0.842 0.875 0.716 0 0.875-0.531 0.875-1.137zm2.652 6.133v0.654h-1.722l-0.765 0.82 2.487 1.778v0.827l-2.935-2.157-1.984 2.074v-0.848l2.453-2.494h-2.453v-0.654z" fill="#068cce"/></g></g></svg>
