<svg width="385.2" height="88.276" data-name="Layer 1" version="1.1" viewBox="0 0 385.2 88.276" xmlns="http://www.w3.org/2000/svg">
 <defs>
  <linearGradient id="linear-gradient" x1="8.12" x2="43.99" y1="3.01" y2="57.87" gradientUnits="userSpaceOnUse">
   <stop stop-color="#7f3f98" offset="0"/>
   <stop stop-color="#3c1351" offset="1"/>
  </linearGradient>
  <linearGradient id="linear-gradient-2" x1="110.45" x2="553.37" y1="-51.55" y2="293.14" gradientUnits="userSpaceOnUse">
   <stop stop-color="#fff" offset="0"/>
   <stop offset="1"/>
  </linearGradient>
 </defs>
 <path class="cls-1" d="m325 77.56a3.86 3.86 0 0 0 1.21-0.29 2.32 2.32 0 0 0 0.92-0.69 1.86 1.86 0 0 0 0.36-1.2 2.08 2.08 0 0 0-0.75-1.72 2.68 2.68 0 0 0-1.73-0.6 2.42 2.42 0 0 0-2 0.89 3.43 3.43 0 0 0-0.66 2.24h-3.38a7.45 7.45 0 0 1 0.49-2.46 5.63 5.63 0 0 1 1.23-1.91 5.42 5.42 0 0 1 1.89-1.24 6.59 6.59 0 0 1 2.45-0.44 7.31 7.31 0 0 1 2.1 0.31 6 6 0 0 1 1.89 0.94 5.09 5.09 0 0 1 1.36 1.53 4 4 0 0 1 0.52 2.08 4.14 4.14 0 0 1-0.61 2.25 3.07 3.07 0 0 1-1.84 1.32v0.05a3.81 3.81 0 0 1 2.25 1.38 4.1 4.1 0 0 1 0.83 2.57 5.41 5.41 0 0 1-0.53 2.43 5.34 5.34 0 0 1-1.44 1.8 6.35 6.35 0 0 1-2.08 1.1 8.45 8.45 0 0 1-5.14-0.05 5.63 5.63 0 0 1-2.06-1.24 5.5 5.5 0 0 1-1.31-2 7 7 0 0 1-0.44-2.7h3.37a5 5 0 0 0 0.23 1.34 3.28 3.28 0 0 0 0.58 1.1 2.73 2.73 0 0 0 0.94 0.74 3 3 0 0 0 1.34 0.28 2.93 2.93 0 0 0 2-0.74 3 3 0 0 0 0.44-3.54 2.23 2.23 0 0 0-1-0.76 4.12 4.12 0 0 0-1.31-0.27h-1.36v-2.5a7.53 7.53 0 0 0 1.24 0z" fill="#939598"/>
 <path class="cls-1" d="m342.6 70.13 6.67 17.87h-4.07l-1.35-4h-6.68l-1.4 4h-4l6.75-17.85zm0.22 11-2.25-6.55-2.33 6.55z" fill="#939598"/>
 <path class="cls-1" d="m359.23 70.13a11.1 11.1 0 0 1 2.33 0.22 5 5 0 0 1 1.8 0.74 3.44 3.44 0 0 1 1.16 1.36 4.79 4.79 0 0 1 0.41 2.1 3.91 3.91 0 0 1-0.61 2.25 4.45 4.45 0 0 1-1.81 1.47 4.3 4.3 0 0 1 2.49 1.67 5.46 5.46 0 0 1 0.29 5.2 4.55 4.55 0 0 1-1.41 1.61 6.25 6.25 0 0 1-2 0.93 9.17 9.17 0 0 1-2.34 0.3h-8.65v-17.85zm-0.5 7.23a2.82 2.82 0 0 0 1.72-0.5 1.89 1.89 0 0 0 0.68-1.62 2.07 2.07 0 0 0-0.23-1 1.66 1.66 0 0 0-0.6-0.62 2.55 2.55 0 0 0-0.86-0.31 5.79 5.79 0 0 0-1-0.09h-3.67v4.18zm0.22 7.58a5.24 5.24 0 0 0 1.1-0.11 2.67 2.67 0 0 0 0.92-0.37 1.89 1.89 0 0 0 0.64-0.71 2.46 2.46 0 0 0 0.24-1.15 2.31 2.31 0 0 0-0.78-2 3.31 3.31 0 0 0-2-0.59h-4.28v4.9z" fill="#939598"/>
 <path class="cls-1" d="m372.33 70.13 7.45 12v-12h3.68v17.87h-3.93l-7.43-12h-0.05v12h-3.67v-17.87z" fill="#939598"/>
 <path class="cls-2" d="m38.87 0h-26.81l15.1 36.38v-18h7.28c14.66 0 19.32 10.12 19.32 20.35 0 13.86-6.25 20.34-19.44 20.34h-7.16v-11.63l-27.16-34.33v64.4h43.76c26.37 0 37.17-20.12 37.17-37.73 0-17.96-12.05-39.78-42.06-39.78z" fill="url(#linear-gradient)"/>
 <rect class="cls-3" x="97.21" y="39.79" width="287.99" height="20.83" fill="url(#linear-gradient-2)"/>
 <g fill="url(#linear-gradient-2)" style="font-variant-east_asian:normal">
  <path class="cls-4" d="m96.92 8.9h11.87c9.16 0 12.84 6.66 12.84 12.15s-3.3 11.52-11.35 11.52h-13.36zm10.48 18.1c4 0 5.94-2 5.94-6.21 0-3.12-1.42-6.21-5.9-6.21h-2.22v12.42z" style="font-variant-east_asian:normal"/>
  <path class="cls-4" d="m132.78 8.9h8.68l10.8 23.67h-8.26l-1.56-3.85h-10.67l-1.56 3.85h-8.21zm7.95 15.55-3.61-9.37-3.64 9.37z" style="font-variant-east_asian:normal"/>
  <path class="cls-4" d="m155.2 8.9h13.5c6.39 0 9.13 3.05 9.13 6.77a5.72 5.72 0 0 1-3.83 5.48c1.7 0.73 2.6 2.36 3.89 5.17l2.81 6.25h-8.16l-1.49-3.51c-1.74-4.06-3.05-6.39-5.31-6.39h-2.24v9.89h-8.3zm10.55 10.1c2.67 0 4.24-1.11 4.24-3.19s-1.46-3.12-4.06-3.12h-2.43v6.31z" style="font-variant-east_asian:normal"/>
  <path class="cls-4" d="m183.38 8.9h17.74v5h-9.44v4.17h8.64v5h-8.64v4.51h9.58v5h-17.88z" style="font-variant-east_asian:normal"/>
  <path class="cls-4" d="m220.37 31.53a6.12 6.12 0 0 1-3.81 1.24 4.92 4.92 0 0 1-3.44-1.17c-0.63-0.63-0.86-1.42-0.86-2.93v-4.39h-1.93v-1.36l5.3-4.71h1v3.31h3.5v2.77h-3.5v3.31c0 1 0.4 1.47 1.3 1.47a4.56 4.56 0 0 0 2.45-0.86z" style="font-variant-east_asian:normal"/>
  <path class="cls-4" d="m228.65 21.32c4.71 0 6.52 3 6.52 5.72 0 2.93-2.07 5.72-6.47 5.72-4.71 0-6.56-3-6.56-5.72s1.94-5.72 6.51-5.72zm0 7.86a2.14 2.14 0 1 0-2.16-2.18 2.05 2.05 0 0 0 2.16 2.18z" style="font-variant-east_asian:normal"/>
  <path class="cls-4" d="m245.86 8.9h11.87c9.16 0 12.84 6.66 12.84 12.15s-3.3 11.52-11.35 11.52h-13.36zm10.48 18.1c4 0 5.94-2 5.94-6.21 0-3.12-1.42-6.21-5.9-6.21h-2.22v12.42z" style="font-variant-east_asian:normal"/>
  <path class="cls-4" d="m274.77 8.9h13.5c6.39 0 9.13 3.05 9.13 6.77a5.72 5.72 0 0 1-3.82 5.48c1.7 0.73 2.6 2.36 3.89 5.17l2.81 6.25h-8.16l-1.49-3.51c-1.74-4.06-3.05-6.39-5.31-6.39h-2.26v9.89h-8.3zm10.55 10.1c2.67 0 4.24-1.11 4.24-3.19s-1.46-3.12-4.06-3.12h-2.43v6.31z" style="font-variant-east_asian:normal"/>
  <path class="cls-4" d="m303 8.9h17.74v5h-9.44v4.17h8.64v5h-8.64v4.51h9.58v5h-17.88z" style="font-variant-east_asian:normal"/>
  <path class="cls-4" d="m333.71 8.9h8.68l10.8 23.67h-8.19l-1.56-3.85h-10.74l-1.56 3.85h-8.23zm7.95 15.55-3.66-9.37-3.64 9.37z" style="font-variant-east_asian:normal"/>
  <path class="cls-4" d="m364.39 32.57h-8.3v-23.67h7.43l7.08 9.58 7.08-9.58h7.43v23.67h-8.3l0.19-12.7v-0.07l-6.35 8.68-6.35-8.68-0.07 0.07z" style="font-variant-east_asian:normal"/>
 </g>
 <path class="cls-5" d="m123.61 43h4.84l8.69 11.77v-11.77h3.1v15.37h-4.63l-8.9-12v12h-3.1z" fill="#231f20"/>
 <path class="cls-5" d="m173.15 45.54h-8.71v3.61h8.39v2.51h-8.39v4.2h9.09v2.51h-12.53v-15.37h12.15z" fill="#231f20"/>
 <path class="cls-5" d="m207.33 43v2.51h-5.84v12.86h-3.49v-12.83h-5.84v-2.54z" fill="#231f20"/>
 <path class="cls-5" d="m236.71 43h4.29l4.14 12 4-12h3.44l-5.44 15.34h-4.14l-4.27-12.23-4.12 12.23h-4.14l-5.54-15.34h3.7l4.06 12z" fill="#231f20"/>
 <path class="cls-5" d="m279.8 42.63c5.65 0 8.94 2.7 8.94 8.07s-3.29 8.07-8.94 8.07-8.94-2.7-8.94-8.07 3.29-8.07 8.94-8.07zm0 13.64c3.33 0 5.37-2 5.37-5.57s-2-5.56-5.37-5.56-5.37 2-5.37 5.56 2.06 5.57 5.37 5.57z" fill="#231f20"/>
 <path class="cls-5" d="m309.12 43h9.2c3.38 0 5.91 1.08 5.91 4.12 0 2.68-1.87 3.78-4.23 4 3.5 0.15 3.78 1.72 4 4.57a8.29 8.29 0 0 0 0.47 2.66h-3.7a9.42 9.42 0 0 1-0.34-2.42c-0.15-3-0.83-3.63-4.18-3.63h-3.63v6.05h-3.44zm3.44 6.9h4.44c2 0 3.63-0.45 3.63-2.29s-1.66-2.1-3.48-2.1h-4.61z" fill="#231f20"/>
 <path class="cls-5" d="m348.33 43v6.69l6.48-6.69h4.19l-6.75 6.9 7.56 8.43h-4.51l-7-8.07v8.07h-3.44v-15.33z" fill="#231f20"/>
</svg>
