<svg width="834.61" height="238.85" enable-background="new 0 0 856.979 238.851" version="1.1" viewBox="0 0 834.61 238.85" xml:space="preserve" xmlns="http://www.w3.org/2000/svg">
	<g transform="translate(-.00035239)" fill="#008ecb">
		<path d="m266.32 203.93v2.204h-9.462v24.93h-2.584v-24.93h-9.424v-2.204z"/>
		<path d="m270.77 203.93v10.906h0.076c0.456-1.19 1.267-2.146 2.432-2.869 1.165-0.722 2.445-1.083 3.838-1.083 1.368 0 2.514 0.178 3.439 0.532 0.925 0.355 1.666 0.855 2.223 1.501s0.95 1.438 1.178 2.375c0.228 0.938 0.342 1.989 0.342 3.154v12.617h-2.395v-12.237c0-0.836-0.076-1.614-0.228-2.337-0.152-0.722-0.418-1.349-0.798-1.881s-0.893-0.95-1.539-1.254c-0.646-0.305-1.451-0.456-2.413-0.456-0.963 0-1.818 0.171-2.565 0.513-0.748 0.342-1.381 0.812-1.9 1.406-0.52 0.596-0.925 1.305-1.216 2.128-0.292 0.824-0.45 1.717-0.475 2.68v11.438h-2.394v-27.134h2.395z"/>
		<path d="m291.02 211.45v4.599h0.076c0.608-1.597 1.551-2.825 2.831-3.687 1.279-0.861 2.806-1.254 4.579-1.178v2.394c-1.089-0.05-2.078 0.095-2.964 0.438-0.887 0.342-1.653 0.83-2.299 1.463-0.646 0.634-1.146 1.387-1.501 2.261s-0.532 1.831-0.532 2.869v10.451h-2.394v-19.61z"/>
		<path d="m301.87 224.58c0.24 0.925 0.627 1.755 1.159 2.489 0.532 0.735 1.203 1.343 2.014 1.824s1.786 0.722 2.926 0.722c1.749 0 3.117-0.456 4.104-1.368 0.988-0.912 1.672-2.128 2.052-3.648h2.394c-0.507 2.23-1.438 3.953-2.793 5.169-1.356 1.216-3.275 1.824-5.758 1.824-1.545 0-2.882-0.272-4.009-0.817-1.127-0.544-2.046-1.292-2.755-2.242s-1.235-2.052-1.577-3.306c-0.342-1.255-0.513-2.578-0.513-3.972 0-1.292 0.171-2.559 0.513-3.8s0.868-2.351 1.577-3.326 1.627-1.76 2.755-2.355 2.464-0.894 4.009-0.894c1.571 0 2.914 0.317 4.028 0.95 1.115 0.634 2.021 1.463 2.717 2.489s1.197 2.204 1.501 3.534 0.43 2.68 0.38 4.048h-15.086c0 0.862 0.12 1.754 0.362 2.679zm11.857-7.315c-0.292-0.836-0.703-1.577-1.235-2.224-0.532-0.646-1.178-1.165-1.938-1.558s-1.622-0.589-2.584-0.589c-0.988 0-1.862 0.196-2.622 0.589s-1.406 0.912-1.938 1.558-0.957 1.394-1.273 2.242c-0.317 0.85-0.526 1.717-0.627 2.604h12.693c-0.027-0.912-0.185-1.786-0.476-2.622z"/>
		<path d="m321.6 224.58c0.24 0.925 0.627 1.755 1.159 2.489 0.532 0.735 1.203 1.343 2.014 1.824s1.786 0.722 2.926 0.722c1.749 0 3.117-0.456 4.104-1.368 0.988-0.912 1.672-2.128 2.052-3.648h2.394c-0.507 2.23-1.438 3.953-2.793 5.169-1.356 1.216-3.275 1.824-5.758 1.824-1.545 0-2.882-0.272-4.009-0.817-1.127-0.544-2.046-1.292-2.755-2.242s-1.235-2.052-1.577-3.306c-0.342-1.255-0.513-2.578-0.513-3.972 0-1.292 0.171-2.559 0.513-3.8s0.868-2.351 1.577-3.326 1.627-1.76 2.755-2.355 2.464-0.894 4.009-0.894c1.571 0 2.914 0.317 4.028 0.95 1.115 0.634 2.021 1.463 2.717 2.489s1.197 2.204 1.501 3.534 0.43 2.68 0.38 4.048h-15.087c1e-3 0.862 0.122 1.754 0.363 2.679zm11.857-7.315c-0.292-0.836-0.703-1.577-1.235-2.224-0.532-0.646-1.178-1.165-1.938-1.558s-1.622-0.589-2.584-0.589c-0.988 0-1.862 0.196-2.622 0.589s-1.406 0.912-1.938 1.558-0.957 1.394-1.273 2.242c-0.317 0.85-0.526 1.717-0.627 2.604h12.693c-0.027-0.912-0.185-1.786-0.476-2.622z"/>
		<path d="m361.4 203.93 10.641 27.134h-2.774l-3.306-8.437h-12.351l-3.268 8.437h-2.736l10.907-27.134zm3.687 16.493-5.245-13.909-5.434 13.909z"/>
		<path d="m376.41 211.45v3.382h0.076c0.456-1.19 1.267-2.146 2.432-2.869 1.165-0.722 2.445-1.083 3.838-1.083 1.368 0 2.514 0.178 3.439 0.532 0.925 0.355 1.666 0.855 2.223 1.501s0.95 1.438 1.178 2.375c0.228 0.938 0.342 1.989 0.342 3.154v12.617h-2.395v-12.237c0-0.836-0.076-1.614-0.228-2.337-0.152-0.722-0.418-1.349-0.798-1.881s-0.893-0.95-1.539-1.254c-0.646-0.305-1.451-0.456-2.413-0.456-0.963 0-1.818 0.171-2.565 0.513-0.748 0.342-1.381 0.812-1.9 1.406-0.52 0.596-0.925 1.305-1.216 2.128-0.292 0.824-0.45 1.717-0.475 2.68v11.438h-2.394v-19.609z"/>
		<path d="m410.56 233.38c-0.317 1.165-0.817 2.153-1.501 2.964s-1.577 1.432-2.679 1.862-2.451 0.646-4.047 0.646c-0.988 0-1.951-0.114-2.888-0.343-0.938-0.228-1.78-0.583-2.527-1.063-0.748-0.481-1.368-1.097-1.862-1.844s-0.779-1.641-0.855-2.679h2.394c0.126 0.734 0.374 1.349 0.741 1.843s0.811 0.894 1.33 1.197c0.519 0.304 1.096 0.525 1.729 0.665 0.633 0.139 1.279 0.209 1.938 0.209 2.229 0 3.838-0.634 4.827-1.9 0.988-1.267 1.482-3.091 1.482-5.472v-2.66h-0.076c-0.558 1.216-1.375 2.191-2.451 2.926-1.077 0.735-2.337 1.103-3.782 1.103-1.571 0-2.914-0.26-4.028-0.779-1.115-0.52-2.033-1.235-2.755-2.147s-1.248-1.982-1.577-3.211c-0.33-1.229-0.494-2.54-0.494-3.934 0-1.343 0.196-2.615 0.589-3.819 0.392-1.203 0.962-2.255 1.71-3.154 0.747-0.898 1.672-1.608 2.774-2.128 1.103-0.519 2.362-0.779 3.781-0.779 0.735 0 1.425 0.102 2.071 0.305s1.235 0.487 1.767 0.854c0.532 0.368 1.007 0.792 1.425 1.273s0.741 0.988 0.969 1.52h0.076v-3.382h2.394v18.014c0 1.442-0.158 2.747-0.475 3.913zm-5.492-5.226c0.785-0.443 1.444-1.026 1.976-1.748s0.931-1.552 1.197-2.489 0.399-1.9 0.399-2.889c0-0.962-0.114-1.925-0.342-2.888s-0.596-1.837-1.102-2.622c-0.507-0.785-1.159-1.419-1.958-1.9-0.798-0.48-1.767-0.722-2.907-0.722s-2.115 0.234-2.926 0.703c-0.812 0.469-1.482 1.083-2.014 1.843s-0.919 1.628-1.159 2.604c-0.241 0.976-0.361 1.97-0.361 2.982 0 0.988 0.126 1.952 0.38 2.889 0.253 0.938 0.646 1.768 1.178 2.489 0.532 0.722 1.203 1.305 2.014 1.748s1.773 0.665 2.888 0.665c1.04 0 1.952-0.221 2.737-0.665z"/>
		<path d="m417.36 224.58c0.24 0.925 0.627 1.755 1.159 2.489 0.532 0.735 1.203 1.343 2.014 1.824s1.786 0.722 2.926 0.722c1.749 0 3.117-0.456 4.104-1.368 0.988-0.912 1.672-2.128 2.052-3.648h2.394c-0.507 2.23-1.438 3.953-2.793 5.169-1.356 1.216-3.275 1.824-5.758 1.824-1.545 0-2.882-0.272-4.009-0.817-1.127-0.544-2.046-1.292-2.755-2.242s-1.235-2.052-1.577-3.306c-0.342-1.255-0.513-2.578-0.513-3.972 0-1.292 0.171-2.559 0.513-3.8s0.868-2.351 1.577-3.326 1.627-1.76 2.755-2.355 2.464-0.894 4.009-0.894c1.571 0 2.914 0.317 4.028 0.95 1.115 0.634 2.021 1.463 2.717 2.489s1.197 2.204 1.501 3.534 0.43 2.68 0.38 4.048h-15.087c2e-3 0.862 0.122 1.754 0.363 2.679zm11.857-7.315c-0.292-0.836-0.703-1.577-1.235-2.224-0.532-0.646-1.178-1.165-1.938-1.558s-1.622-0.589-2.584-0.589c-0.988 0-1.862 0.196-2.622 0.589s-1.406 0.912-1.938 1.558-0.957 1.394-1.273 2.242c-0.317 0.85-0.526 1.717-0.627 2.604h12.693c-0.026-0.912-0.185-1.786-0.476-2.622z"/>
		<path d="m437.75 203.93v27.134h-2.394v-27.134z"/>
		<path d="m453.63 215.27c-0.279-0.545-0.652-0.994-1.121-1.35-0.469-0.354-1.007-0.613-1.615-0.778-0.607-0.165-1.254-0.247-1.938-0.247-0.532 0-1.07 0.057-1.615 0.171s-1.045 0.304-1.502 0.57c-0.455 0.266-0.823 0.614-1.102 1.045s-0.418 0.963-0.418 1.596c0 0.532 0.133 0.982 0.398 1.35 0.267 0.367 0.602 0.678 1.008 0.931 0.404 0.254 0.848 0.463 1.33 0.627 0.48 0.165 0.924 0.298 1.33 0.399l3.191 0.722c0.685 0.102 1.362 0.285 2.033 0.551 0.672 0.267 1.268 0.615 1.787 1.046s0.943 0.963 1.273 1.596c0.328 0.634 0.493 1.381 0.493 2.242 0 1.064-0.241 1.97-0.722 2.717-0.482 0.748-1.096 1.356-1.844 1.824-0.747 0.47-1.59 0.805-2.527 1.007-0.938 0.203-1.861 0.305-2.773 0.305-2.306 0-4.175-0.545-5.605-1.635-1.432-1.089-2.249-2.837-2.451-5.244h2.395c0.101 1.622 0.689 2.845 1.767 3.668s2.413 1.234 4.009 1.234c0.583 0 1.185-0.062 1.806-0.189 0.62-0.127 1.197-0.343 1.729-0.646 0.531-0.304 0.969-0.689 1.311-1.159 0.342-0.469 0.514-1.045 0.514-1.729 0-0.583-0.121-1.07-0.361-1.464-0.241-0.393-0.564-0.722-0.969-0.987-0.406-0.267-0.869-0.488-1.388-0.665-0.52-0.178-1.045-0.329-1.577-0.456l-3.078-0.685c-0.785-0.202-1.508-0.437-2.166-0.703-0.659-0.266-1.235-0.595-1.729-0.988-0.494-0.392-0.881-0.874-1.16-1.443-0.279-0.57-0.418-1.273-0.418-2.109 0-0.988 0.222-1.837 0.666-2.546 0.442-0.709 1.02-1.279 1.729-1.711 0.709-0.43 1.501-0.746 2.375-0.949s1.742-0.305 2.604-0.305c0.988 0 1.906 0.127 2.755 0.38 0.849 0.254 1.597 0.646 2.242 1.179s1.159 1.19 1.539 1.976 0.595 1.71 0.646 2.774h-2.394c-0.026-0.738-0.177-1.378-0.457-1.922z"/>
		<path d="m483.12 203.93c1.14 0 2.235 0.108 3.287 0.323 1.051 0.215 1.977 0.583 2.773 1.102 0.799 0.52 1.438 1.204 1.92 2.053 0.48 0.849 0.722 1.906 0.722 3.173 0 0.71-0.114 1.4-0.342 2.071s-0.552 1.279-0.97 1.824-0.912 1.007-1.481 1.387c-0.57 0.38-1.21 0.646-1.919 0.798v0.076c1.748 0.229 3.141 0.944 4.18 2.147s1.559 2.692 1.559 4.465c0 0.432-0.038 0.919-0.114 1.464s-0.228 1.102-0.456 1.672c-0.229 0.569-0.558 1.134-0.988 1.69-0.431 0.558-1.007 1.046-1.729 1.464-0.723 0.418-1.609 0.76-2.66 1.025-1.052 0.267-2.312 0.399-3.781 0.399h-11.477v-27.134h11.476zm0 11.894c1.038 0 1.938-0.12 2.697-0.361 0.761-0.24 1.394-0.569 1.9-0.987s0.887-0.906 1.141-1.464c0.253-0.557 0.38-1.152 0.38-1.786 0-3.395-2.04-5.092-6.118-5.092h-8.893v9.69zm0 13.035c0.963 0 1.874-0.082 2.736-0.247 0.86-0.164 1.621-0.462 2.279-0.894 0.658-0.43 1.178-1.007 1.559-1.729 0.38-0.723 0.57-1.628 0.57-2.718 0-1.748-0.615-3.059-1.844-3.933s-2.996-1.312-5.301-1.312h-8.893v10.831h8.894z"/>
		<path d="m498.74 211.45v4.599h0.076c0.607-1.597 1.551-2.825 2.83-3.687s2.807-1.254 4.58-1.178v2.394c-1.09-0.05-2.078 0.095-2.965 0.438-0.887 0.342-1.652 0.83-2.299 1.463-0.646 0.634-1.146 1.387-1.501 2.261s-0.532 1.831-0.532 2.869v10.451h-2.395v-19.61z"/>
		<path d="m520.08 211.72c1.152 0.558 2.121 1.306 2.907 2.242 0.784 0.938 1.38 2.033 1.786 3.287 0.404 1.255 0.607 2.591 0.607 4.01s-0.203 2.755-0.607 4.009c-0.406 1.255-1.002 2.351-1.786 3.288-0.786 0.938-1.755 1.679-2.907 2.223-1.153 0.545-2.477 0.817-3.971 0.817-1.496 0-2.819-0.272-3.973-0.817-1.152-0.544-2.121-1.285-2.906-2.223s-1.381-2.033-1.787-3.288c-0.404-1.254-0.607-2.59-0.607-4.009s0.203-2.755 0.607-4.01c0.406-1.254 1.002-2.35 1.787-3.287s1.754-1.685 2.906-2.242c1.153-0.557 2.477-0.836 3.973-0.836 1.494 0 2.817 0.279 3.971 0.836zm-6.974 1.9c-0.861 0.481-1.577 1.115-2.147 1.9s-1.001 1.679-1.291 2.679c-0.293 1.002-0.438 2.021-0.438 3.06s0.145 2.059 0.438 3.06c0.29 1.001 0.721 1.894 1.291 2.679 0.57 0.786 1.286 1.419 2.147 1.9 0.86 0.481 1.862 0.722 3.003 0.722 1.14 0 2.141-0.24 3.002-0.722 0.86-0.481 1.576-1.114 2.146-1.9 0.57-0.785 1.001-1.678 1.293-2.679 0.291-1.001 0.437-2.021 0.437-3.06 0-1.038-0.146-2.058-0.437-3.06-0.292-1-0.723-1.894-1.293-2.679s-1.286-1.419-2.146-1.9c-0.861-0.48-1.862-0.722-3.002-0.722-1.141 1e-3 -2.143 0.242-3.003 0.722z"/>
		<path d="m529.45 214.49c0.405-0.836 0.956-1.52 1.653-2.052 0.696-0.532 1.514-0.925 2.451-1.179 0.937-0.253 1.976-0.38 3.116-0.38 0.861 0 1.723 0.083 2.584 0.247 0.861 0.165 1.635 0.476 2.318 0.932s1.241 1.096 1.672 1.919 0.646 1.894 0.646 3.211v10.413c0 0.963 0.469 1.444 1.406 1.444 0.278 0 0.531-0.051 0.76-0.152v2.014c-0.279 0.052-0.525 0.09-0.741 0.114-0.216 0.025-0.487 0.038-0.817 0.038-0.607 0-1.096-0.082-1.463-0.247-0.367-0.164-0.652-0.399-0.855-0.703-0.202-0.304-0.336-0.665-0.398-1.083-0.063-0.418-0.095-0.88-0.095-1.387h-0.076c-0.431 0.633-0.868 1.196-1.312 1.69s-0.938 0.906-1.481 1.235c-0.546 0.33-1.166 0.583-1.862 0.76-0.697 0.178-1.527 0.267-2.489 0.267-0.912 0-1.767-0.108-2.565-0.323s-1.495-0.557-2.09-1.026c-0.596-0.468-1.064-1.063-1.406-1.786-0.342-0.722-0.513-1.577-0.513-2.564 0-1.368 0.304-2.438 0.911-3.212 0.609-0.772 1.412-1.361 2.414-1.767 1-0.405 2.128-0.69 3.382-0.855 1.255-0.164 2.527-0.323 3.819-0.475 0.507-0.051 0.95-0.114 1.33-0.19 0.381-0.076 0.697-0.209 0.95-0.398 0.253-0.19 0.45-0.45 0.589-0.779s0.209-0.76 0.209-1.292c0-0.811-0.133-1.476-0.398-1.995s-0.634-0.932-1.103-1.235-1.014-0.513-1.634-0.627c-0.621-0.114-1.286-0.171-1.995-0.171-1.521 0-2.762 0.36-3.725 1.083-0.963 0.722-1.47 1.881-1.521 3.478h-2.394c0.076-1.143 0.317-2.131 0.723-2.967zm11.97 5.853c-0.151 0.279-0.443 0.481-0.873 0.608-0.432 0.127-0.812 0.215-1.141 0.266-1.014 0.178-2.059 0.336-3.135 0.476-1.078 0.139-2.059 0.348-2.945 0.627-0.888 0.278-1.615 0.678-2.186 1.196-0.57 0.52-0.855 1.261-0.855 2.224 0 0.608 0.12 1.146 0.361 1.615 0.24 0.469 0.563 0.874 0.969 1.216s0.875 0.603 1.406 0.779c0.532 0.178 1.076 0.266 1.635 0.266 0.912 0 1.785-0.139 2.621-0.418 0.837-0.278 1.564-0.684 2.186-1.216s1.115-1.178 1.482-1.938 0.551-1.621 0.551-2.584v-3.116h-0.076z"/>
		<path d="m563.73 231.06v-3.725h-0.076c-0.253 0.634-0.627 1.217-1.121 1.748-0.494 0.532-1.058 0.982-1.69 1.35-0.634 0.367-1.312 0.652-2.033 0.854-0.723 0.203-1.438 0.305-2.147 0.305-1.495 0-2.793-0.272-3.896-0.817-1.102-0.544-2.021-1.292-2.755-2.242-0.735-0.95-1.28-2.052-1.634-3.306-0.355-1.255-0.532-2.578-0.532-3.972 0-1.393 0.177-2.717 0.532-3.972 0.354-1.254 0.898-2.355 1.634-3.306 0.734-0.95 1.653-1.704 2.755-2.262 1.103-0.557 2.4-0.836 3.896-0.836 0.734 0 1.45 0.089 2.147 0.267 0.696 0.177 1.349 0.45 1.957 0.816 0.607 0.368 1.146 0.817 1.615 1.35 0.468 0.532 0.829 1.153 1.083 1.862h0.076v-11.249h2.394v27.134h-2.205zm-13.13-6.784c0.24 1.001 0.621 1.894 1.141 2.679 0.519 0.786 1.184 1.426 1.995 1.919 0.811 0.494 1.786 0.741 2.926 0.741 1.267 0 2.337-0.247 3.211-0.741 0.874-0.493 1.583-1.133 2.129-1.919 0.544-0.785 0.937-1.678 1.178-2.679 0.24-1.001 0.361-2.008 0.361-3.021s-0.121-2.021-0.361-3.021c-0.241-1-0.634-1.894-1.178-2.679-0.546-0.785-1.255-1.426-2.129-1.919-0.874-0.494-1.944-0.741-3.211-0.741-1.14 0-2.115 0.247-2.926 0.741-0.812 0.493-1.477 1.134-1.995 1.919-0.52 0.785-0.9 1.679-1.141 2.679-0.241 1.001-0.361 2.009-0.361 3.021 0 1.014 0.12 2.02 0.361 3.021z"/>
		<path d="m582.5 214.15c-0.887-0.836-2.128-1.254-3.725-1.254-1.14 0-2.141 0.241-3.002 0.722s-1.577 1.115-2.147 1.9c-0.569 0.785-1.001 1.679-1.292 2.679-0.291 1.002-0.437 2.021-0.437 3.06s0.146 2.059 0.437 3.06 0.723 1.894 1.292 2.679c0.57 0.786 1.286 1.419 2.147 1.9s1.862 0.722 3.002 0.722c0.734 0 1.432-0.139 2.091-0.418 0.658-0.278 1.24-0.665 1.748-1.159 0.506-0.494 0.924-1.083 1.254-1.767 0.329-0.685 0.532-1.432 0.608-2.242h2.394c-0.329 2.382-1.203 4.237-2.622 5.567s-3.243 1.995-5.473 1.995c-1.495 0-2.818-0.272-3.971-0.817-1.153-0.544-2.122-1.285-2.907-2.223-0.786-0.938-1.382-2.033-1.786-3.288-0.406-1.254-0.608-2.59-0.608-4.009s0.202-2.755 0.608-4.01c0.404-1.254 1-2.35 1.786-3.287 0.785-0.937 1.754-1.685 2.907-2.242 1.152-0.557 2.476-0.836 3.971-0.836 2.103 0 3.883 0.558 5.34 1.672 1.456 1.115 2.324 2.8 2.604 5.055h-2.395c-0.33-1.469-0.938-2.623-1.824-3.459z"/>
		<path d="m590.71 214.49c0.404-0.836 0.956-1.52 1.653-2.052 0.696-0.532 1.513-0.925 2.451-1.179 0.937-0.253 1.976-0.38 3.116-0.38 0.86 0 1.723 0.083 2.584 0.247 0.86 0.165 1.634 0.476 2.318 0.932s1.24 1.096 1.672 1.919c0.431 0.823 0.646 1.894 0.646 3.211v10.413c0 0.963 0.469 1.444 1.406 1.444 0.278 0 0.532-0.051 0.761-0.152v2.014c-0.279 0.052-0.526 0.09-0.741 0.114-0.216 0.025-0.488 0.038-0.817 0.038-0.608 0-1.096-0.082-1.463-0.247-0.368-0.164-0.652-0.399-0.855-0.703s-0.336-0.665-0.398-1.083c-0.063-0.418-0.096-0.88-0.096-1.387h-0.075c-0.432 0.633-0.868 1.196-1.312 1.69s-0.938 0.906-1.482 1.235c-0.545 0.33-1.165 0.583-1.862 0.76-0.696 0.178-1.526 0.267-2.488 0.267-0.912 0-1.768-0.108-2.565-0.323s-1.495-0.557-2.091-1.026c-0.595-0.468-1.063-1.063-1.405-1.786-0.343-0.722-0.514-1.577-0.514-2.564 0-1.368 0.305-2.438 0.912-3.212 0.608-0.772 1.412-1.361 2.413-1.767s2.129-0.69 3.383-0.855c1.254-0.164 2.527-0.323 3.819-0.475 0.506-0.051 0.95-0.114 1.33-0.19s0.696-0.209 0.95-0.398c0.253-0.19 0.449-0.45 0.589-0.779 0.139-0.329 0.209-0.76 0.209-1.292 0-0.811-0.133-1.476-0.399-1.995-0.266-0.52-0.634-0.932-1.102-1.235-0.47-0.304-1.014-0.513-1.635-0.627s-1.286-0.171-1.995-0.171c-1.52 0-2.762 0.36-3.724 1.083-0.964 0.722-1.47 1.881-1.521 3.478h-2.395c0.077-1.143 0.317-2.131 0.723-2.967zm11.971 5.853c-0.152 0.279-0.443 0.481-0.874 0.608-0.432 0.127-0.812 0.215-1.141 0.266-1.013 0.178-2.059 0.336-3.135 0.476-1.077 0.139-2.059 0.348-2.945 0.627-0.887 0.278-1.615 0.678-2.186 1.196-0.569 0.52-0.854 1.261-0.854 2.224 0 0.608 0.12 1.146 0.361 1.615 0.24 0.469 0.563 0.874 0.969 1.216s0.874 0.603 1.406 0.779c0.532 0.178 1.076 0.266 1.634 0.266 0.912 0 1.786-0.139 2.622-0.418 0.836-0.278 1.564-0.684 2.186-1.216 0.62-0.532 1.114-1.178 1.482-1.938 0.366-0.76 0.551-1.621 0.551-2.584v-3.116h-0.076z"/>
		<path d="m621.22 215.27c-0.279-0.545-0.653-0.994-1.121-1.35-0.47-0.354-1.008-0.613-1.615-0.778-0.608-0.165-1.254-0.247-1.938-0.247-0.532 0-1.07 0.057-1.615 0.171s-1.045 0.304-1.501 0.57-0.823 0.614-1.102 1.045-0.419 0.963-0.419 1.596c0 0.532 0.134 0.982 0.399 1.35s0.602 0.678 1.007 0.931c0.405 0.254 0.849 0.463 1.33 0.627 0.481 0.165 0.925 0.298 1.33 0.399l3.192 0.722c0.685 0.102 1.361 0.285 2.033 0.551 0.671 0.267 1.267 0.615 1.786 1.046s0.943 0.963 1.273 1.596c0.329 0.634 0.494 1.381 0.494 2.242 0 1.064-0.241 1.97-0.723 2.717-0.481 0.748-1.096 1.356-1.843 1.824-0.748 0.47-1.59 0.805-2.527 1.007-0.938 0.203-1.862 0.305-2.774 0.305-2.306 0-4.174-0.545-5.605-1.635-1.432-1.089-2.248-2.837-2.451-5.244h2.395c0.101 1.622 0.69 2.845 1.768 3.668 1.076 0.823 2.413 1.234 4.009 1.234 0.583 0 1.184-0.062 1.805-0.189s1.197-0.343 1.729-0.646 0.969-0.689 1.312-1.159c0.342-0.469 0.513-1.045 0.513-1.729 0-0.583-0.12-1.07-0.361-1.464-0.241-0.393-0.563-0.722-0.969-0.987-0.405-0.267-0.868-0.488-1.387-0.665-0.52-0.178-1.046-0.329-1.577-0.456l-3.078-0.685c-0.786-0.202-1.508-0.437-2.167-0.703s-1.234-0.595-1.729-0.988c-0.494-0.392-0.881-0.874-1.159-1.443-0.279-0.57-0.418-1.273-0.418-2.109 0-0.988 0.222-1.837 0.665-2.546 0.442-0.709 1.02-1.279 1.729-1.711 0.709-0.43 1.502-0.746 2.376-0.949s1.741-0.305 2.603-0.305c0.988 0 1.906 0.127 2.756 0.38 0.849 0.254 1.596 0.646 2.242 1.179 0.646 0.532 1.158 1.19 1.539 1.976 0.38 0.786 0.595 1.71 0.646 2.774h-2.394c-0.028-0.738-0.18-1.378-0.458-1.922z"/>
		<path d="m636.01 211.45v2.014h-3.99v13.226c0 0.785 0.107 1.4 0.323 1.843 0.215 0.443 0.754 0.69 1.615 0.741 0.684 0 1.368-0.038 2.052-0.114v2.015c-0.354 0-0.709 0.013-1.063 0.038-0.355 0.024-0.71 0.038-1.064 0.038-1.596 0-2.711-0.311-3.344-0.932-0.634-0.62-0.938-1.767-0.912-3.439v-13.415h-3.421v-2.014h3.421v-5.891h2.394v5.891h3.989z"/>
		<path d="m641.9 203.93v3.838h-2.394v-3.838zm0 7.524v19.609h-2.394v-19.609z"/>
		<path d="m648.85 211.45v3.382h0.075c0.456-1.19 1.267-2.146 2.433-2.869 1.165-0.722 2.444-1.083 3.838-1.083 1.368 0 2.515 0.178 3.439 0.532 0.925 0.355 1.666 0.855 2.224 1.501 0.557 0.646 0.95 1.438 1.178 2.375 0.229 0.938 0.342 1.989 0.342 3.154v12.617h-2.394v-12.237c0-0.836-0.076-1.614-0.229-2.337-0.152-0.722-0.418-1.349-0.798-1.881s-0.894-0.95-1.539-1.254c-0.646-0.305-1.451-0.456-2.413-0.456-0.963 0-1.818 0.171-2.565 0.513s-1.381 0.812-1.9 1.406c-0.52 0.596-0.925 1.305-1.216 2.128-0.292 0.824-0.45 1.717-0.475 2.68v11.438h-2.395v-19.609z"/>
		<path d="m683 233.38c-0.316 1.165-0.816 2.153-1.501 2.964-0.684 0.811-1.577 1.432-2.679 1.862-1.103 0.431-2.451 0.646-4.048 0.646-0.988 0-1.951-0.114-2.888-0.343-0.938-0.228-1.78-0.583-2.527-1.063-0.748-0.481-1.368-1.097-1.862-1.844s-0.779-1.641-0.855-2.679h2.395c0.127 0.734 0.374 1.349 0.741 1.843s0.811 0.894 1.33 1.197c0.519 0.304 1.096 0.525 1.729 0.665 0.633 0.139 1.278 0.209 1.938 0.209 2.229 0 3.839-0.634 4.826-1.9 0.988-1.267 1.482-3.091 1.482-5.472v-2.66h-0.076c-0.558 1.216-1.374 2.191-2.451 2.926s-2.337 1.103-3.781 1.103c-1.571 0-2.913-0.26-4.028-0.779s-2.033-1.235-2.755-2.147-1.248-1.982-1.577-3.211-0.494-2.54-0.494-3.934c0-1.343 0.196-2.615 0.589-3.819 0.393-1.203 0.963-2.255 1.71-3.154 0.747-0.898 1.673-1.608 2.774-2.128 1.103-0.519 2.362-0.779 3.781-0.779 0.734 0 1.426 0.102 2.071 0.305 0.646 0.203 1.235 0.487 1.768 0.854 0.531 0.368 1.007 0.792 1.425 1.273s0.741 0.988 0.969 1.52h0.076v-3.382h2.395v18.014c-2e-3 1.442-0.161 2.747-0.477 3.913zm-5.492-5.226c0.785-0.443 1.444-1.026 1.977-1.748 0.531-0.722 0.931-1.552 1.196-2.489 0.267-0.937 0.399-1.9 0.399-2.889 0-0.962-0.114-1.925-0.342-2.888-0.229-0.963-0.596-1.837-1.103-2.622s-1.159-1.419-1.957-1.9c-0.798-0.48-1.767-0.722-2.907-0.722s-2.115 0.234-2.926 0.703c-0.812 0.469-1.482 1.083-2.015 1.843-0.531 0.76-0.918 1.628-1.159 2.604-0.24 0.976-0.36 1.97-0.36 2.982 0 0.988 0.126 1.952 0.38 2.889 0.253 0.938 0.646 1.768 1.178 2.489s1.203 1.305 2.015 1.748c0.811 0.443 1.772 0.665 2.888 0.665 1.039 0 1.951-0.221 2.736-0.665z"/>
		<path d="m701.9 203.93 15.81 22.953h0.076v-22.953h2.584v27.134h-2.888l-15.81-22.954h-0.076v22.954h-2.584v-27.134z"/>
		<path d="m727.12 224.58c0.241 0.925 0.628 1.755 1.159 2.489 0.532 0.735 1.203 1.343 2.015 1.824 0.811 0.481 1.786 0.722 2.926 0.722 1.748 0 3.116-0.456 4.104-1.368s1.672-2.128 2.052-3.648h2.395c-0.507 2.23-1.438 3.953-2.793 5.169s-3.275 1.824-5.758 1.824c-1.545 0-2.882-0.272-4.009-0.817-1.128-0.544-2.047-1.292-2.756-2.242s-1.234-2.052-1.577-3.306c-0.342-1.255-0.513-2.578-0.513-3.972 0-1.292 0.171-2.559 0.513-3.8 0.343-1.241 0.868-2.351 1.577-3.326s1.628-1.76 2.756-2.355c1.127-0.596 2.464-0.894 4.009-0.894 1.571 0 2.913 0.317 4.028 0.95 1.115 0.634 2.021 1.463 2.718 2.489 0.696 1.026 1.196 2.204 1.501 3.534 0.304 1.33 0.431 2.68 0.38 4.048h-15.087c-1e-3 0.862 0.119 1.754 0.36 2.679zm11.857-7.315c-0.292-0.836-0.703-1.577-1.235-2.224-0.532-0.646-1.178-1.165-1.938-1.558s-1.621-0.589-2.584-0.589c-0.988 0-1.862 0.196-2.622 0.589s-1.406 0.912-1.938 1.558c-0.531 0.646-0.956 1.394-1.272 2.242-0.317 0.85-0.526 1.717-0.627 2.604h12.692c-0.027-0.912-0.185-1.786-0.476-2.622z"/>
		<path d="m752.86 211.45v2.014h-3.99v13.226c0 0.785 0.107 1.4 0.323 1.843 0.215 0.443 0.754 0.69 1.615 0.741 0.684 0 1.368-0.038 2.052-0.114v2.015c-0.354 0-0.709 0.013-1.063 0.038-0.355 0.024-0.71 0.038-1.064 0.038-1.596 0-2.711-0.311-3.344-0.932-0.634-0.62-0.938-1.767-0.912-3.439v-13.415h-3.421v-2.014h3.421v-5.891h2.394v5.891h3.989z"/>
		<path d="m756.89 211.45 5.016 16.797h0.076l4.788-16.797h2.698l4.789 16.797h0.075l5.017-16.797h2.547l-6.309 19.609h-2.622l-4.827-16.493h-0.075l-4.789 16.493h-2.622l-6.309-19.609z"/>
		<path d="m796.74 211.72c1.152 0.558 2.121 1.306 2.907 2.242 0.785 0.938 1.381 2.033 1.786 3.287 0.405 1.255 0.608 2.591 0.608 4.01s-0.203 2.755-0.608 4.009c-0.405 1.255-1.001 2.351-1.786 3.288-0.786 0.938-1.755 1.679-2.907 2.223-1.153 0.545-2.477 0.817-3.972 0.817s-2.818-0.272-3.971-0.817c-1.153-0.544-2.122-1.285-2.907-2.223-0.786-0.938-1.382-2.033-1.786-3.288-0.406-1.254-0.608-2.59-0.608-4.009s0.202-2.755 0.608-4.01c0.404-1.254 1-2.35 1.786-3.287 0.785-0.937 1.754-1.685 2.907-2.242 1.152-0.557 2.476-0.836 3.971-0.836s2.818 0.279 3.972 0.836zm-6.974 1.9c-0.861 0.481-1.577 1.115-2.147 1.9-0.569 0.785-1.001 1.679-1.292 2.679-0.291 1.002-0.437 2.021-0.437 3.06s0.146 2.059 0.437 3.06 0.723 1.894 1.292 2.679c0.57 0.786 1.286 1.419 2.147 1.9s1.862 0.722 3.002 0.722c1.141 0 2.141-0.24 3.003-0.722 0.86-0.481 1.577-1.114 2.146-1.9 0.57-0.785 1.001-1.678 1.292-2.679s0.438-2.021 0.438-3.06c0-1.038-0.146-2.058-0.438-3.06-0.291-1-0.722-1.894-1.292-2.679-0.569-0.785-1.286-1.419-2.146-1.9-0.862-0.48-1.862-0.722-3.003-0.722-1.14 1e-3 -2.141 0.242-3.002 0.722z"/>
		<path d="m807.82 211.45v4.599h0.076c0.607-1.597 1.552-2.825 2.831-3.687s2.806-1.254 4.579-1.178v2.394c-1.09-0.05-2.077 0.095-2.964 0.438-0.888 0.342-1.653 0.83-2.3 1.463-0.646 0.634-1.146 1.387-1.501 2.261s-0.531 1.831-0.531 2.869v10.451h-2.395v-19.61z"/>
		<path d="m819.98 203.93v17.025l10.868-9.501h3.192l-8.36 7.259 8.931 12.351h-3.003l-7.752-10.679-3.876 3.23v7.448h-2.395v-27.134h2.395z"/>
	</g>
			<path d="m110.72 0c-17.252 0-33.484 4.362-47.657 12.038-7.077 5.834-15.854 15.552-16.363 28.729-0.161 6.719 2.955 10.984 3.828 11.716 15.858-18.618 39.468-30.433 65.84-30.433 47.746 0 86.452 38.707 86.452 86.453 0 22.631-8.701 43.23-22.936 58.641l-0.803 6.358c19.6-18.294 31.859-44.354 31.859-73.278 0-55.354-44.871-100.22-100.22-100.22z" fill="#008ecb"/>
			<path d="m138.26 130.23c-18.366-23.745-19.093-24.677-28.688-37.669-23.407 0.675-111.02-29.779-53.21-80.06-7.798 2.137-22.005 13.89-27.219 29.388-11.432 33.985 18.75 85.696 109.12 88.341z" fill="#008ecb"/>
			<path d="m143.97 143.66c-39.854 3.257-93.559-16.989-114.21-50.939-10.912-17.939-13.971-43.061 2.363-63.673 0 0-8.864 5.382-15.202 18.581-23.961 50.818 18.262 126.46 119.27 138.47 0.022 0 6.789-4.124 25.984-18.658-6.266-8.505-8.794-11.748-18.2-23.783z" fill="#00b6f1"/>
			<path d="m10.352 57.707c-0.786 0.757-7.635 11.16-9.703 28.123-5.605 45.061 24.981 105.4 96.967 127.32 0.013 0 7.354-3.673 27.126-16.035-64.93-9.44-138.06-74.541-114.39-139.41z" fill="#8ed8f8"/>
			<g transform="translate(-.00035239)" fill="#008ecb">
				<path d="m304.45 85.295c3.911-0.3 7.561-1.164 10.945-2.596 3.385-1.428 6.167-3.498 8.35-6.206 2.179-2.708 3.272-6.319 3.272-10.833 0-6.77-2.257-11.961-6.771-15.571-4.513-3.61-9.704-5.417-15.572-5.417-8.124 0-14.256 2.674-18.393 8.012-4.14 5.343-6.132 12.074-5.98 20.199h-30.466c0.299-8.125 1.767-15.533 4.4-22.23 2.631-6.691 6.319-12.447 11.059-17.264 4.739-4.813 10.416-8.537 17.039-11.171 6.619-2.631 13.992-3.95 22.116-3.95 6.319 0 12.638 0.942 18.957 2.822 6.319 1.883 11.996 4.703 17.039 8.463 5.039 3.762 9.14 8.35 12.3 13.766 3.159 5.416 4.739 11.661 4.739 18.731 0 7.673-1.844 14.443-5.529 20.312-3.688 5.867-9.218 9.855-16.587 11.961v0.451c8.724 1.957 15.572 6.17 20.537 12.638 4.965 6.471 7.447 14.218 7.447 23.245 0 8.275-1.618 15.648-4.852 22.116-3.237 6.471-7.56 11.887-12.976 16.249-5.417 4.365-11.662 7.673-18.731 9.93-7.074 2.257-14.443 3.385-22.117 3.385-8.879 0-16.964-1.28-24.26-3.836-7.299-2.557-13.505-6.28-18.618-11.172-5.117-4.887-9.066-10.867-11.848-17.941-2.786-7.07-4.101-15.193-3.95-24.373h30.467c0.148 4.214 0.825 8.237 2.031 12.074 1.202 3.836 2.934 7.147 5.19 9.93 2.257 2.785 5.078 5.004 8.463 6.658 3.385 1.656 7.409 2.482 12.074 2.482 7.222 0 13.315-2.219 18.28-6.658 4.965-4.436 7.448-10.494 7.448-18.167 0-6.016-1.167-10.606-3.498-13.767-2.334-3.159-5.304-5.451-8.915-6.883-3.611-1.428-7.56-2.257-11.848-2.482-4.288-0.227-8.389-0.339-12.299-0.339v-22.568c3.458 0.303 7.143 0.303 11.057 0z"/>
				<path d="m463.33 18.268 60.256 161.14h-36.785l-12.188-35.883h-60.255l-12.638 35.883h-35.657l60.933-161.14zm2.031 98.847-20.312-59.127h-0.451l-20.987 59.127z"/>
				<path d="m613.4 18.268c7.672 0 14.668 0.678 20.988 2.031 6.318 1.354 11.734 3.576 16.248 6.658 4.514 3.086 8.012 7.186 10.494 12.299 2.482 5.117 3.725 11.436 3.725 18.957 0 8.125-1.846 14.895-5.529 20.312-3.689 5.416-9.141 9.855-16.361 13.315 9.93 2.859 17.338 7.863 22.229 15.007 4.887 7.147 7.334 15.763 7.334 25.841 0 8.124-1.58 15.158-4.738 21.101-3.16 5.945-7.412 10.797-12.752 14.556-5.342 3.763-11.436 6.545-18.279 8.351-6.848 1.806-13.879 2.708-21.102 2.708h-78.084v-161.14h75.827zm-4.514 65.221c6.318 0 11.51-1.503 15.572-4.514 4.061-3.008 6.092-7.899 6.092-14.669 0-3.759-0.676-6.844-2.031-9.253-1.354-2.405-3.158-4.288-5.416-5.642-2.256-1.354-4.852-2.293-7.785-2.821-2.934-0.525-5.98-0.79-9.141-0.79h-33.174v37.688h35.883zm2.031 68.38c3.459 0 6.77-0.338 9.93-1.016 3.16-0.676 5.941-1.805 8.35-3.385 2.404-1.58 4.324-3.724 5.756-6.432 1.428-2.708 2.143-6.168 2.143-10.381 0-8.273-2.334-14.18-6.996-17.717-4.664-3.533-10.832-5.303-18.506-5.303h-38.59v44.232h37.913z"/>
				<path d="m731.66 18.268 67.252 108.1h0.451v-108.1h33.174v161.14h-35.43l-67.027-107.88h-0.451v107.87h-33.174v-161.13z"/>
			</g>
</svg>
