<svg width="800" height="556.19" version="1.1" xmlns="http://www.w3.org/2000/svg"><defs><linearGradient id="linearGradient314" x2="1" gradientTransform="matrix(8.8758 -63.154 -63.154 -8.8758 609.89 529.05)" gradientUnits="userSpaceOnUse"><stop stop-color="#f5d210" offset="0"/><stop stop-color="#f6891b" offset="1"/></linearGradient></defs><g transform="matrix(1.3333 0 0 -1.3333 -816.13 1189.5)"><g transform="matrix(3.7998 0 0 3.7998 1175.5 629.47)"><path d="m0 0c0.169 0.02 2.104-5.085 0.114-8.072-3e-3 -3e-3 -0.33-2.146-0.333-2.149-0.622-0.932 0.239-0.061-0.56-0.891-6.246-6.682-10.895-6.417-15.287-6.519-11.383-0.136-20.011 8.344-20.518 16.827-0.274 5.209 2.261 11.557 6.31 16.168 3.63 4.109 7.902 7.471 11.214 11.912 5.232 7.119 5.979 11.277 6.721 15.752 0.156 0.989 0.261 1.956 0.316 2.906 0.217 3.59-0.196 7.872-1.459 11.789-0.315 0.979-0.682 1.935-1.101 2.85-2.24 5.116-7.828 10.797-12.01 7.653-6.415-4.892-5.844-14.879-4.716-22.664 0.15-0.86 0.327-1.717 0.529-2.568 0.811-3.404 2.03-6.716 3.653-9.727 1.452 2.194 2.448 3.252 3.296 4.544-0.619 1.153-1.203 2.413-1.718 3.701-0.258 0.644-0.498 1.295-0.717 1.943-1.345 5.053-2.321 11.164-0.587 16.14 1.79 5.251 6.663 7.018 9.156-0.061 1.304-3.825 0.832-7.667 0.329-11.416-0.122-0.912-0.377-1.747-0.598-2.522-0.254-0.784-0.557-1.569-0.908-2.357-1.051-2.364-2.524-4.759-4.371-7.274-2.741-3.726-5.67-6.929-8.753-10.921-4.649-6.021-8.211-11.817-8.645-18.197-0.518-7.203 1.158-15.007 9.792-21.248 6.503-4.703 14.145-6.837 22.236-3.969 0.902 0.318 1.975 0.909 2.809 1.379 9.328 5.116 7.629 14.246 6.592 15.111" fill="#068cce"/></g><g transform="matrix(3.7998 0 0 3.7998 1109 716.76)"><path d="m0 0c-0.878-0.647-2.877-1.932-6.356-7.138 12.74 5.057 24.308-0.013 27.815-12.157 1.191-4.488 0.129-12.386-4.473-16.826 0 0 1.892 1.042 3.987 3.988 8.559 12.741-0.583 32.678-16.896 32.75-4e-3 0-3.36-0.215-4.077-0.617" fill="#26b9f1"/></g><g transform="matrix(3.7998 0 0 3.7998 1194.1 598.06)"><path d="m0 0c0.206 0.155 1.974 2.75 3.397 6.624 3.891 10.816-0.677 27.03-14.883 29.391-3e-3 0-4.083 0.309-7.54-2.48 17.622 1.848 27.031-19.784 19.026-33.535" fill="#80d6f7"/></g><g transform="matrix(3.7998 0 0 3.7998 1138.5 550.7)"><path d="m0 0c0.891-3.193 1.007-3.585 1.431-6.649 0.521-3.749 0.272-7.6-3.958-10.136-2.596-1.558-6.981-1.999-9.955-0.457 3.96-0.253 6.868 2.267 7.086 5.745 0.221 3.497-2.62 6.391-6.951 6.58-1.176 0.058-2.283-0.085-3.265-0.389-0.602-0.152-1.188-0.399-1.758-0.758-2.606-1.637-3.48-4.046-2.686-6.735 1.626-5.073 9.505-9.21 17.495-5.986 4.297 1.732 7 6.273 6.775 10.856-0.217 4.067-0.691 4.839-1.428 9.251-0.93-0.446-1.859-0.887-2.786-1.322" fill="#068cce"/></g><g transform="matrix(3.7998 0 0 3.7998 1076.5 639.08)"><path d="m0 0s-0.611 1.054-0.672 3.388c-0.042 1.581 0.408 4.636 1.94 6.155 5.121 5.081 23 6.415 27.126-10.126 2.363-9.478-4.089-15.789-3.933-15.685 0.156 0.103-2.4-1.832-2.4-1.832l-2.8-0.367s8.015 3.478 6.874 13.488c-1.265 11.087-12.154 12.952-16.396 12.044-8.113-1.735-9.739-7.065-9.739-7.065" fill="#068cce"/></g><g transform="matrix(3.7998 0 0 3.7998 821.35 824.93)"><path d="m0 0c0.25 0.019 0.484 0.074 0.701 0.166s0.395 0.224 0.535 0.398c0.139 0.173 0.21 0.404 0.21 0.693 0 0.434-0.145 0.767-0.434 0.998s-0.622 0.347-0.997 0.347c-0.521 0-0.914-0.171-1.179-0.513-0.265-0.343-0.392-0.774-0.383-1.294h-1.951c0.019 0.52 0.113 0.995 0.282 1.424 0.168 0.428 0.405 0.797 0.708 1.105 0.304 0.309 0.667 0.547 1.091 0.716 0.424 0.168 0.897 0.253 1.417 0.253 0.405 0 0.809-0.06 1.214-0.181 0.405-0.12 0.769-0.301 1.092-0.542 0.322-0.241 0.585-0.535 0.787-0.882 0.203-0.346 0.304-0.746 0.304-1.199 0-0.492-0.118-0.925-0.354-1.301-0.237-0.376-0.591-0.631-1.063-0.766v-0.029c0.559-0.125 0.998-0.395 1.316-0.81 0.318-0.414 0.477-0.91 0.477-1.488 0-0.53-0.104-1.003-0.311-1.417s-0.484-0.761-0.831-1.041c-0.347-0.279-0.747-0.491-1.2-0.636-0.453-0.144-0.925-0.216-1.416-0.216-0.569 0-1.087 0.081-1.554 0.245-0.468 0.164-0.865 0.402-1.193 0.716-0.328 0.313-0.581 0.696-0.759 1.149s-0.262 0.973-0.253 1.561h1.952c9e-3 -0.27 0.053-0.528 0.13-0.773 0.077-0.246 0.188-0.458 0.332-0.636 0.145-0.179 0.325-0.321 0.542-0.427s0.475-0.159 0.774-0.159c0.462 0 0.852 0.142 1.17 0.427 0.318 0.284 0.477 0.672 0.477 1.163 0 0.386-0.074 0.68-0.224 0.882-0.149 0.202-0.339 0.349-0.571 0.441-0.231 0.091-0.484 0.144-0.758 0.159-0.275 0.014-0.538 0.021-0.788 0.021v1.446c0.221-0.019 0.457-0.019 0.708 0" fill="#068cce"/></g><g transform="matrix(3.7998 0 0 3.7998 860.02 841.24)"><path d="m0 0 3.859-10.321h-2.356l-0.78 2.299h-3.86l-0.809-2.299h-2.284l3.903 10.321zm0.13-6.331-1.301 3.787h-0.029l-1.344-3.787z" fill="#068cce"/></g><g transform="matrix(3.7998 0 0 3.7998 -1713.7 -1329.9)"><g clip-path="url(#clipPath284)"><g transform="translate(686.95 571.38)"><path d="m0 0c0.492 0 0.94-0.043 1.344-0.13 0.405-0.087 0.752-0.229 1.041-0.427 0.289-0.197 0.513-0.46 0.672-0.787 0.159-0.328 0.239-0.733 0.239-1.214 0-0.521-0.118-0.954-0.354-1.301-0.237-0.347-0.586-0.632-1.048-0.853 0.636-0.183 1.11-0.504 1.423-0.961 0.313-0.458 0.47-1.01 0.47-1.655 0-0.521-0.101-0.971-0.303-1.352-0.203-0.381-0.475-0.691-0.817-0.932s-0.733-0.419-1.171-0.535c-0.439-0.116-0.889-0.174-1.351-0.174h-5.002v10.321zm-0.289-4.177c0.405 0 0.737 0.096 0.997 0.289 0.261 0.192 0.391 0.506 0.391 0.939 0 0.241-0.044 0.439-0.13 0.593-0.087 0.154-0.203 0.275-0.347 0.361-0.145 0.087-0.311 0.147-0.499 0.181s-0.383 0.051-0.586 0.051h-2.124v-2.414zm0.13-4.38c0.222 0 0.434 0.022 0.636 0.065s0.381 0.116 0.535 0.217 0.277 0.238 0.368 0.412c0.092 0.173 0.138 0.395 0.138 0.665 0 0.529-0.15 0.908-0.448 1.134-0.299 0.227-0.694 0.34-1.186 0.34h-2.471v-2.833z" fill="#068cce"/></g></g></g><g transform="matrix(3.7998 0 0 3.7998 925.32 841.24)"><path d="m0 0 4.307-6.924h0.029v6.924h2.125v-10.321h-2.269l-4.293 6.91h-0.029v-6.91h-2.125v10.321z" fill="#068cce"/></g><g transform="matrix(3.7998 0 0 3.7998 1044 537.58)"><path d="m0 0v38.588h-8.41l-12.198-16.593-12.198 16.593h-8.466v-38.588h7.352v28.059l12.421-16.813h1.448l12.699 16.758v-28.004zm-55.531 0.055h7.296v38.588h-7.296zm-14.258-0.055h7.296v38.588h-7.296v-16.262h-19.16v16.262h-7.352v-38.588h7.352v15.601h19.16z" fill="#fa9627"/></g><g transform="matrix(3.7998 0 0 3.7998 -1713.7 -1329.9)"><path d="m670.23 491.52h7.296v38.588h-7.296zm47.121 38.533-12.199-16.594-12.197 16.594h-8.466v-38.589h7.352v28.06l12.42-16.813h1.448l12.699 16.758v-28.005h7.352v38.589zm-61.379 0v-16.262h-19.16v16.262h-7.352v-38.589h7.352v15.601h19.16v-15.601h7.296v38.589z" fill="url(#linearGradient314)"/></g><g transform="matrix(3.7998 0 0 3.7998 679.41 488.56)"><path d="m0 0h0.948v5.988h0.02l2.361-5.988h0.632l2.36 5.988h0.02v-5.988h0.948v7.284h-1.412l-2.203-5.514h-0.039l-2.223 5.514h-1.412zm9.976 7.284v-4.619c0-0.426 0.069-0.811 0.207-1.158 0.138-0.346 0.329-0.646 0.573-0.9s0.53-0.449 0.859-0.586c0.33-0.138 0.685-0.206 1.067-0.206s0.737 0.068 1.067 0.206c0.329 0.137 0.615 0.332 0.859 0.586s0.435 0.554 0.573 0.9c0.138 0.347 0.207 0.732 0.207 1.158v4.619h-0.948v-4.465c0-0.226-0.029-0.461-0.089-0.705-0.059-0.243-0.158-0.468-0.296-0.674-0.138-0.205-0.319-0.374-0.543-0.504s-0.501-0.195-0.83-0.195-0.606 0.065-0.83 0.195-0.405 0.299-0.543 0.504c-0.138 0.206-0.237 0.431-0.296 0.674-0.059 0.244-0.089 0.479-0.089 0.705v4.465zm7.595-6.461c0.237-0.343 0.557-0.597 0.958-0.761 0.402-0.165 0.826-0.247 1.274-0.247 0.336 0 0.652 0.051 0.949 0.154 0.296 0.103 0.553 0.25 0.77 0.443 0.217 0.192 0.39 0.428 0.519 0.709 0.128 0.282 0.192 0.597 0.192 0.947 0 0.439-0.086 0.784-0.257 1.034s-0.383 0.449-0.637 0.597c-0.253 0.147-0.53 0.262-0.829 0.344-0.3 0.083-0.577 0.175-0.83 0.278-0.254 0.103-0.466 0.237-0.637 0.401-0.171 0.165-0.257 0.402-0.257 0.71 0 0.11 0.021 0.23 0.064 0.36 0.043 0.131 0.117 0.253 0.222 0.366 0.106 0.113 0.246 0.205 0.42 0.278 0.175 0.072 0.394 0.108 0.657 0.108 0.277 0 0.524-0.059 0.741-0.175 0.217-0.117 0.385-0.271 0.504-0.463l0.77 0.73c-0.263 0.336-0.57 0.559-0.919 0.669s-0.714 0.165-1.096 0.165c-0.421 0-0.782-0.067-1.081-0.201-0.3-0.134-0.545-0.3-0.736-0.499s-0.331-0.419-0.42-0.659-0.133-0.466-0.133-0.679c0-0.473 0.085-0.848 0.256-1.126 0.172-0.278 0.384-0.499 0.637-0.664 0.254-0.164 0.53-0.293 0.83-0.386 0.3-0.092 0.576-0.188 0.83-0.288 0.253-0.099 0.466-0.223 0.637-0.37 0.171-0.148 0.257-0.362 0.257-0.643 0-0.199-0.043-0.374-0.129-0.525-0.085-0.151-0.196-0.278-0.331-0.381-0.135-0.102-0.285-0.18-0.449-0.231-0.165-0.051-0.326-0.077-0.484-0.077-0.283 0-0.558 0.063-0.825 0.19-0.266 0.127-0.485 0.324-0.657 0.592zm7.151-0.823h0.948v7.284h-0.948zm9.492 6.338c-0.283 0.384-0.647 0.669-1.091 0.854-0.445 0.185-0.898 0.278-1.359 0.278-0.54 0-1.033-0.097-1.481-0.289s-0.831-0.461-1.151-0.807c-0.319-0.347-0.568-0.758-0.746-1.235-0.177-0.477-0.266-0.996-0.266-1.559 0-0.459 0.082-0.914 0.247-1.363 0.164-0.449 0.403-0.852 0.716-1.209 0.313-0.356 0.691-0.645 1.136-0.864 0.444-0.219 0.943-0.329 1.496-0.329 0.402 0 0.756 0.053 1.062 0.159 0.306 0.107 0.568 0.23 0.785 0.371 0.217 0.14 0.392 0.281 0.524 0.422 0.131 0.14 0.223 0.248 0.276 0.324l-0.8 0.627c-0.211-0.308-0.468-0.549-0.77-0.72-0.303-0.172-0.656-0.257-1.057-0.257-0.409 0-0.774 0.075-1.097 0.226-0.322 0.151-0.596 0.357-0.819 0.617-0.224 0.261-0.395 0.563-0.514 0.906-0.118 0.343-0.178 0.706-0.178 1.09 0 0.412 0.063 0.798 0.188 1.158s0.301 0.674 0.528 0.941c0.228 0.268 0.501 0.479 0.82 0.633s0.677 0.232 1.072 0.232c0.322 0 0.635-0.072 0.938-0.217 0.303-0.144 0.553-0.349 0.751-0.617zm6.213-6.338h0.948v5.988h0.02l3.891-5.988h1.205v7.284h-0.948v-5.988h-0.02l-3.852 5.988h-1.244zm8.948 0h4.692v0.926h-3.744v2.336h3.319v0.925h-3.319v2.171h3.566v0.926h-4.514zm8.583 0h0.948v6.358h2.252v0.926h-5.452v-0.926h2.252zm6.45 0h1.007l1.679 5.947h0.02l1.689-5.947h1.007l2.035 7.284h-0.988l-1.545-5.823h-0.02l-1.645 5.823h-1.086l-1.645-5.823h-0.02l-1.545 5.823h-0.988zm14.114 0.108c0.448 0.196 0.831 0.465 1.151 0.808 0.319 0.343 0.569 0.747 0.75 1.214 0.181 0.466 0.272 0.97 0.272 1.512s-0.091 1.046-0.272 1.513c-0.181 0.466-0.431 0.871-0.75 1.214-0.32 0.343-0.703 0.612-1.151 0.807-0.448 0.196-0.938 0.294-1.472 0.294-0.533 0-1.024-0.098-1.471-0.294-0.448-0.195-0.832-0.464-1.151-0.807-0.32-0.343-0.57-0.748-0.751-1.214-0.181-0.467-0.271-0.971-0.271-1.513s0.09-1.046 0.271-1.512c0.181-0.467 0.431-0.871 0.751-1.214 0.319-0.343 0.703-0.612 1.151-0.808 0.447-0.195 0.938-0.293 1.471-0.293 0.534 0 1.024 0.098 1.472 0.293m-2.558 0.864c-0.323 0.155-0.599 0.362-0.83 0.623-0.23 0.26-0.408 0.567-0.533 0.921-0.125 0.353-0.188 0.728-0.188 1.126s0.063 0.773 0.188 1.127c0.125 0.353 0.303 0.66 0.533 0.921 0.231 0.26 0.507 0.468 0.83 0.622 0.322 0.154 0.685 0.232 1.086 0.232 0.402 0 0.764-0.078 1.087-0.232 0.322-0.154 0.599-0.362 0.829-0.622 0.231-0.261 0.409-0.568 0.534-0.921 0.125-0.354 0.187-0.729 0.187-1.127s-0.062-0.773-0.187-1.126c-0.125-0.354-0.303-0.661-0.534-0.921-0.23-0.261-0.507-0.468-0.829-0.623-0.323-0.154-0.685-0.231-1.087-0.231-0.401 0-0.764 0.077-1.086 0.231m7.18-0.972h0.948v3.21h1.057l1.778-3.21h1.185l-1.985 3.323c0.263 0.028 0.502 0.101 0.716 0.221s0.395 0.268 0.543 0.443c0.149 0.175 0.262 0.37 0.341 0.586s0.119 0.441 0.119 0.674c0 0.227-0.033 0.461-0.099 0.705-0.066 0.243-0.183 0.463-0.351 0.658-0.168 0.196-0.396 0.357-0.686 0.484s-0.659 0.19-1.106 0.19h-2.46zm0.948 6.42h1.245c0.184 0 0.367-0.015 0.548-0.046s0.342-0.088 0.484-0.17 0.255-0.201 0.341-0.355c0.085-0.154 0.128-0.355 0.128-0.602s-0.043-0.447-0.128-0.602c-0.086-0.154-0.199-0.272-0.341-0.355-0.142-0.082-0.303-0.139-0.484-0.169-0.181-0.031-0.364-0.047-0.548-0.047h-1.245zm6.174-6.42h0.948v3.642h0.079l3.259-3.642h1.383l-3.605 3.92 3.378 3.364h-1.324l-3.091-3.148h-0.079v3.148h-0.948z" fill="#068cce"/></g><g transform="matrix(3.7998 0 .46655 -3.7998 227.86 683.57)"><g transform="translate(111.37 1.336)"><path d="m0 0c0 1.596 0.676 2.675 1.75 2.675 0.159 0 0.437-0.043 0.636-0.13-0.716-0.129-0.676-0.776-0.676-1.596 0-1.769 2.744-6.73 6.482-12.382 10.856-2.2 33.164-11.692 33.164-23.039 0-7.075-9.544-8.887-13.838-8.887-20.559 0-34.875 12.813-34.875 18.681 0 3.236 2.188 4.099 5.011 4.099 0.636 0 0.636-0.044 0.636-0.044-1.034-0.086-2.943-1.164-2.943-2.933 0-5.609 17.855-18.552 31.892-18.552 7.039 0 12.168 2.287 12.168 6.385 0 6.903-16.542 16.438-28.67 20.537 6.799-9.837 15.349-20.278 17.695-20.278 0.358 0 0.795 0.13 1.114 0.604-0.239-1.769-1.83-3.279-3.261-3.279-3.022 0-13.6 13.073-20.36 24.333-1.67 0.388-3.102 0.561-4.295 0.561-0.755 0-0.994-0.259-0.994-0.475 0-1.898 4.176-4.702 5.408-5.479-0.039-0.043-0.079-0.043-0.119-0.043-0.994 0-6.76 3.452-6.76 5.781 0 1.597 1.988 2.503 5.09 2.503-2.545 4.573-4.255 8.628-4.255 10.958m34.079-18.552c-1.591 2.46-3.38 5.436-4.375 7.896-0.477 0.992-0.676 1.812-0.596 2.2 0.278 1.208 1.233 2.545 2.386 2.243-0.875-0.431 1.511-4.228 3.539-6.601 2.704-3.235 4.573-4.961 8.231-7.291-1.034 1.294-2.306 3.797-2.306 5.005 0 0.518 1.193 2.028 1.909 2.028 2.744 0 7.515-4.833 8.231-5.868-0.04-0.086-0.278-0.043-0.318 0-2.465 2.373-5.209 4.314-7.118 4.487 1.312-3.365 4.613-6.515 5.488-7.507 0.278-0.345-1.352-2.2-1.79-2.157-0.835 0.086-2.028 0.82-3.579 2.028-3.419 2.674-7.396 6.299-9.504 9.275 0.836-1.596 2.227-3.624 3.301-5.177 1.193-1.726 2.585-3.408 3.181-3.365 0.318 0.043 0.438 0.259 0.438 0.086 0-1.078-1.511-2.761-2.466-2.761-0.159 0-0.318 0.043-0.557 0.216-0.994 0.863-2.704 3.063-4.095 5.263m21.393 7.896c-0.159 0.647-0.318 1.164-0.318 1.596 0 0.776 0.756 1.682 1.312 2.028 0.279 0.172 0.478 0.258 0.676 0.258 2.386 0 8.868-7.204 12.328-11.303 0.119-0.13-0.08-0.475-0.279-0.259-2.465 2.502-8.152 8.413-10.657 9.19 0-0.346 0.159-0.863 0.398-1.467 1.193-2.761 4.772-7.464 4.97-7.033 0.16-0.517-1.192-2.89-1.988-2.459-0.994 0.604-3.579 3.322-4.294 4.013-2.068 1.898-7.635 6.255-8.948 6.73-0.119 0.043-0.198 0.043-0.278 0-0.358-0.216 2.625-5.652 6.402-9.147 2.585-2.372 5.488-4.184 7.794-4.314 1.193-0.086 1.949 0.561 1.949 1.855 0 0.647-0.239 1.165-0.438 1.553-0.039 0.044 0.04 0.087 0.12 0.044 0.397-0.561 0.755-1.295 0.755-2.028 0-2.028-1.988-2.718-3.499-2.718-7.317 0-16.423 9.621-16.423 14.323 0 0.863 1.034 2.503 1.749 2.891 0.08 0.043 0.279 0.129 0.358 0.129 1.67 0 9.425-7.248 10.618-8.542-0.756 1.079-1.83 3.063-2.307 4.66m10.498 3.882c2.466-0.215 8.788-7.248 12.248-11.303 0.119-0.13-0.08-0.475-0.358-0.259-2.426 2.546-8.231 8.542-10.657 9.233 0.477-1.769 5.925-11.606 7.555-11.433 0.318 0.043 0.517 0.259 0.517 0.086 0-1.079-1.59-2.804-2.505-2.804-0.159 0-0.398 0.043-0.597 0.259-2.544 2.2-8.31 11.605-8.31 14.107 0 0.777 0.994 1.856 1.63 2.071 0.199 0.043 0.318 0.043 0.477 0.043m10.498-23.081c-1.034 0.345-2.545 3.149-2.505 4.4 0.04 0.777 0.875 1.683 1.431 0.906 0.478-0.733 2.307-2.502 2.983-2.804 0.437-0.216 0.755-0.043 0.835-0.043 0.159 0-0.08-0.647-0.437-1.079-0.517-0.647-1.392-1.51-2.307-1.38m11.015 7.464c-0.08 0.862-2.744 3.882-2.863 3.882-0.04 0 0.039 0.173 0.079 0.173 1.074 0 3.579-2.589 3.619-3.193 0.119-1.251-0.398-3.235-1.511-3.235-3.5 0-9.226 3.235-9.862 6.514-0.358 1.899 1.988 3.452 2.426 4.056-1.392 0.604-7.238 4.228-7.357 6.083 0.199 0.949 0.636 1.726 1.511 1.726 2.585 0 7.834-2.287 8.391-5.091 0.119-0.906-0.875-2.157-1.392-2.589 4.334-2.804 12.208-5.048 11.85-5.177 0-0.129-0.159-0.216-0.239-0.216-0.517 0-5.607 0.949-11.969 4.832-0.398-0.388-1.352-1.078-1.193-1.812 0.517-2.027 6.681-6.126 8.51-5.953m-7.953 8.93c0 1.64-4.931 4.401-6.482 4.875 1.153-1.251 4.096-3.408 6.482-4.875m9.662 0.561c4.454-0.129 12.089-6.342 12.089-9.017 0-1.208-1.829-2.2-2.426-2.2-1.71 0-5.249 1.337-8.549 4.314-2.506 2.287-4.534 5.005-5.488 7.464-0.318 0.949-0.557 1.812-0.557 2.847 0 1.165 1.591 2.718 2.824 2.718 5.288 0 13.202-8.24 16.184-11.26 0.119-0.129-0.159-0.345-0.278-0.259-4.016 3.624-11.294 9.621-14.196 9.621-0.875 0-1.233-0.302-1.193-0.82 0.119-1.121 0.874-2.502 1.59-3.408m10.816-9.923c-0.238 1.64-6.839 8.629-10.299 9.06 1.312-2.286 5.885-7.507 10.299-9.06" fill="#f4d210"/></g></g></g></svg>
