<svg width="800" height="294" version="1.1" viewBox="0 0 800 294" xml:space="preserve" xmlns="http://www.w3.org/2000/svg"><defs><clipPath id="clipPath966"><path d="m0 0h792v612h-792z"/></clipPath></defs><g transform="matrix(1.3333 0 0 -1.3333 403.02 1057.1)"><g transform="scale(1,-1)" fill="#fff" stroke-width="3.8302" aria-label="3ABN"><path d="m-108.54-765.69q1.3534 1.16 2.1543 2.7067 0.80097 1.5467 0.80097 4.1153 0 2.9001-1.16 5.4135-1.1324 2.5134-3.5077 4.3087-2.32 1.74-5.4687 2.6791-3.121 0.91145-7.5954 0.91145-5.1096 0-8.7831-0.80097-3.6458-0.80098-5.9382-1.7953v-9.0316h1.0772q2.3753 1.4362 5.662 2.4858 3.3144 1.0496 6.0487 1.0496 1.6019 0 3.4801-0.24857 1.8781-0.2762 3.1763-1.16 1.0219-0.69049 1.6296-1.6572 0.60764-0.99431 0.60764-2.8448 0-1.7953-0.82859-2.762-0.82859-0.9943-2.182-1.4086-1.3534-0.44192-3.2591-0.46954-1.9058-0.0552-3.5353-0.0552h-2.2648v-7.3468h2.3477q2.1543 0 3.8115-0.1381 1.6572-0.13809 2.8172-0.63525 1.2153-0.52477 1.8229-1.381 0.60763-0.88384 0.60763-2.5686 0-1.2429-0.63525-1.9886-0.63525-0.77335-1.6019-1.2153-1.0772-0.49716-2.541-0.66288-1.4638-0.16571-2.5134-0.16571-2.5962 0-5.6344 0.91145-3.0382 0.88383-5.883 2.5686h-1.0219v-8.9212q2.2648-0.91145 6.1592-1.74 3.8944-0.85621 7.8992-0.85621 3.8944 0 6.8221 0.69049 2.9277 0.66288 4.8334 1.7953 2.2648 1.3534 3.3696 3.2868t1.1048 4.5296q0 3.4248-2.1267 6.1316-2.1267 2.6791-5.6068 3.4248v0.38668q1.4086 0.19333 2.9829 0.77335 1.5743 0.58001 2.8724 1.6848z"/><path d="m-67.198-746.42h-10.965l-2.8448-8.3135h-15.246l-2.8448 8.3135h-10.689l15.191-41.126h12.208zm-16.378-15.854-5.0544-14.749-5.0544 14.749z"/><path d="m-31.268-759.01q0 2.9829-1.2153 5.3306-1.1876 2.3477-3.2867 3.8944-2.4305 1.8229-5.3582 2.5962-2.9001 0.77336-7.3745 0.77336h-17.953v-41.126h15.964q4.9715 0 7.264 0.33144 2.3201 0.33143 4.5849 1.4638 2.3477 1.1876 3.4801 3.2039 1.16 1.9886 1.16 4.5572 0 2.9829-1.5743 5.2754-1.5743 2.2648-4.4468 3.5353v0.22095q4.0325 0.80098 6.3802 3.3144 2.3753 2.5134 2.3753 6.6287zm-13.589-16.903q0-1.0219-0.52477-2.0439-0.49716-1.0219-1.7953-1.5191-1.16-0.44192-2.9001-0.46954-1.7124-0.0552-4.8334-0.0552h-0.99431v8.7002h1.6572q2.5134 0 4.2811-0.0829t2.7896-0.55239q1.4362-0.63526 1.8781-1.6296 0.44192-1.0219 0.44192-2.3477zm2.5963 16.738q0-1.961-0.77335-3.0106-0.74573-1.0772-2.5686-1.6019-1.2429-0.35906-3.4248-0.38668-2.182-0.0276-4.5573-0.0276h-2.3201v10.247h0.77335q4.4744 0 6.4078-0.0276t3.5629-0.71812q1.6572-0.69049 2.2648-1.8229 0.63525-1.16 0.63525-2.6515z"/><path d="m10.763-746.42h-10.219l-17.456-28.227v28.227h-9.7221v-41.126h12.677l14.998 23.56v-23.56h9.7221z"/></g><g transform="matrix(3.8302 0 0 3.8302 -371.21 -1366.5)"><g clip-path="url(#clipPath966)"><g transform="translate(55.089 535.7)"><path d="m0 0c-0.403-0.464-1.156-0.299-1.362-1.098 0.053-0.127 0.059-0.214 0.065-0.3 0.015-0.217-0.063-0.354-0.277-0.412-0.424-0.16-1.076-0.816-1.076-0.816-2.32-1.732-4.352-3.225-7.451-3.79-0.245-0.235-1.199-0.302-1.305-0.658-0.242-0.278-0.72-0.311-1.197-0.345l-0.434-0.03c-0.477-0.033-0.951-0.111-1.153-0.343-0.378-0.2-0.719-0.311-1.066-0.336-0.347-0.024-0.657 0.042-0.874 0.027-0.086-6e-3 -0.127-0.053-0.17-0.056-0.248-0.191-0.546-0.299-0.849-0.321-0.434-0.03-0.877 0.07-1.268 0.043-0.173-0.012-0.344-0.068-0.471-0.121l-1.264-1e-3c-0.55-1.477-1.63-2.249-2.076-3.981-0.177-0.579-1.023-0.943-0.981-1.55 9e-3 -0.131 0.065-0.301 0.207-0.465-0.38-1.422-2.122-1.456-1.994-3.278-0.351-0.591-0.822-0.712-0.947-1.418-0.163-0.796-0.671-1.006-1.1-1.733-0.748-1.142-1.768-1.518-2.619-2.449-0.372-0.288-1.02-0.988-1.628-1.03 0 0-1.24-0.958-2.232-1.115-0.85-0.32-1.392-0.664-2.068-0.972-0.087-7e-3 -0.177 0.031-0.264 0.025-0.216-0.016-0.474-0.077-0.69-0.092-0.261-0.018-0.481 0.01-0.545 0.311 2.151 2.896 5.438 4.521 7.296 7.876 1.772 2.085 2.786 4.423 4.389 7.063 0.849 0.321 0.656 1.834 1.506 2.154 0.034 0.134 0.028 0.22 0.022 0.307-0.076 1.085-1.539 0.808-1.99 1.648-0.145 0.208-0.473 0.534-0.5 0.924-9e-3 0.131 0.028 0.22 0.062 0.353-0.015 0.217 0.051 0.527 0.354 0.548 1.06-0.187 1.536-0.764 2.577-0.692 0.173 0.012 0.347 0.025 0.561 0.083 0.406 0.421 0.537 1.04 0.805 1.582 0.303 0.022 0.369 0.331 0.53 0.517-0.052 0.127-0.105 0.254-0.117 0.428-9e-3 0.129 0.022 0.306 0.147 0.402 0.592 0.259 0.679 0.875 0.94 1.504 0.877 1.805 2.34 3.956 3.294 5.897 1.22 1.873 2.327 4.129 3.805 6.064 0.122 0.749 0.72 0.922 1.111 1.559 0.792 1.145 2.195 2.9 2.295 3.342-0.018 0.261-0.328 0.326-1.369 0.254-0.564-0.04-1.168-0.125-1.472-0.147l-0.173-0.012c-0.205-0.188-0.893-0.324-1.408-0.447-0.52-0.036-0.744-0.575-1.178-0.605-0.13-9e-3 -0.263 0.025-0.446 0.143-1.822-0.127-5.63-2.399-5.745-4.499 0.1-1.431 0.473-3.018 1.779-3.624 0.192-0.249 0.991-0.454 1.03-1.018-0.248-0.192-0.592-0.26-0.982-0.287-0.694-0.048-1.577 0.108-2.153 0.242-0.588 0.308-0.957 0.587-1.343 1.127-0.434-0.03-0.507 0.4-0.774 0.469-0.049 0.083-0.099 0.167-0.105 0.254-0.015 0.217 0.103 0.4 0.091 0.573-1.174-0.038-0.95 1.111-1.521 1.812-0.056 0.171-0.068 0.344-0.08 0.517-0.094 1.345 0.561 2.568 1.594 3.381 0.98 0.33 1.613 1.246 2.602 1.446 0.465 0.207 0.881 0.497 1.302 0.701 1.975 0.443 3.699 1.348 5.954 1.506l0.347 0.024s1.556 0.196 2.51 0.263c0.347 0.024 0.651 0.045 0.741 8e-3 0.313-0.109 1.781 0.081 2.221 0.024 0.679 0.266 1.738 1.952 3.006 2.521 0.661 0.525 1.132 0.645 1.932 1.05 0.149 0.359 0.84 0.451 0.751 0.488 0.434 0.031 0.979 0.33 0.942 0.241 0.04 0.046 0.124 0.095 0.211 0.101 0.13 9e-3 0.223-0.071 0.321-0.239-0.677-1.529-2.556-2.096-3.265-3.802-0.186-0.449-0.899-0.238-0.899-0.848 9e-3 -0.13 0.368-0.279 0.368-0.279 0.867 0.06 2.159-0.329 2.159-0.329 1.477-0.55 3.102-1.352 4.315-2.488 0.012-0.174 0.594-0.395 0.624-0.828 6e-3 -0.087-0.031-0.177-0.068-0.267-0.041-0.046-0.035-0.133-0.029-0.22 0.016-0.216 0.158-0.381 0.294-0.459 0.34-0.499 0.786-0.642 0.825-1.206 0.013-0.174 0.025-0.347-0.047-0.57-0.078-0.136-0.115-0.226-0.106-0.356 0.021-0.304 0.349-0.63 0.377-1.02-0.151-0.97 0.179-1.949-0.234-2.894-0.5-2.214-2.015-4.238-2.897-5.956m-0.741 9.364c-0.146 2.082-1.227 3.837-2.714 4.518-0.844 0.857-3.046 1.182-3.307 1.164-0.911-0.064-3.819-5.236-3.648-5.181-0.619-1.133-0.908-1.981-1.668-2.95 0 0 0.101-0.821-1.084-1.339-0.121-0.139-0.149-0.359-0.134-0.576 0.012-0.174 0.068-0.344 0.117-0.428-0.065-0.31-0.292-0.805-0.68-0.876-0.375-0.244-0.388-0.681-0.444-1.121 3e-3 -0.043-0.038-0.09-0.035-0.133-0.856-0.844-1.453-2.281-1.948-3.318-0.38-1.421-1.193-2.263-1.799-3.57 0.048-0.694-0.627-1.002-0.585-1.61l0.012-0.173c0.053-0.127 0.486-0.097 0.964-0.063 0.824 0.057 1.902 0.22 1.902 0.22l0.174 0.012c0.477 0.033 0.899 0.237 1.32 0.441 0.139-0.121 0.273-0.156 0.446-0.144 0.477 0.034 0.968 0.504 1.048 0.597 2.564 0.746 4.679 2.288 4.679 2.288 0.869 0.671 1.623 1.726 2.327 2.255 1.87 1.308 2.874 3.165 3.952 5.202l0.153 0.316c0.876 1.805 0.679 2.75 0.954 3.815-0.016 0.217 0.013 0.437-2e-3 0.654m12.67-9.793c6e-3 -0.087 0.058-0.214 0.157-0.381-0.103-0.4-0.24-0.932-0.622-1.09-0.474-0.076-0.344-0.678-0.618-1.133-0.884-1.064-1.667-2.339-1.697-3.78-0.168-0.099-0.298-0.108-0.428-0.117-0.521-0.036-0.774 0.469-1.182 0.702-0.319 0.196-0.465 0.404-0.48 0.62-0.024 0.348 0.296 0.762 0.269 1.152-7e-3 0.087-0.01 0.131-0.059 0.214-3e-3 0.044-0.053 0.128-0.056 0.171-0.054 0.781 1.368 2.885 2.163 3.987 0.034 0.133 0.069 0.266 0.063 0.353-9e-3 0.13-0.105 0.254-0.279 0.242-0.173-0.012-0.425-0.16-0.843-0.407-3.008-1.867-4.323-4.269-4.757-4.299-0.433-0.031-3.406-3.028-4.128-5.171-0.289-0.238-0.401-0.507-0.748-0.532-0.27-0.498-0.244-1.499-0.764-1.535-0.961-0.591-2.41-5.443-3.573-6.265-0.704-0.529-0.834-0.539-1.094-0.557-0.13-9e-3 -0.304-0.021-0.561-0.082-0.232 0.201-1.088-0.033-1.242 0.305-0.088 1.258 0.957 1.898 1.191 2.917 0.966 1.767 1.83 3.135 2.772 5.25 0.728 0.182 0.841 1.062 1.053 1.774 2.151 2.897 1.986 4.018 2.293 3.996 0.393-0.016 1.06 2.297 1.889 3.532-0.082 1.171 1.213 1.349 1.147 2.303l-0.022 0.304c-0.051 0.737 0.327 0.938 0.864 1.368 0.744 0.575 1.476 0.713 1.909 0.744 0.261 0.018 0.394-0.016 0.524-7e-3 0.477 0.033 0.759-0.252 0.789-0.686 9e-3 -0.13-0.025-0.264-0.056-0.44-0.389-0.681-0.476-1.297-1.221-1.873 0.058-0.824-0.516-1.343-0.879-1.761l-1.358-2.405 0.151-0.295c2.281 2.295 4.025 4.161 6.429 5.942 0.623 0.436 1.497 0.409 1.876 1.221 0.803 0.361 1.377 0.88 2.028 0.926 0.347 0.024 0.66-0.085 1.074-0.405 0.18-0.074 0.594-0.394 0.619-0.741 6e-3 -0.087-0.031-0.176-0.069-0.267-0.169-1.319-1.297-1.398-1.454-2.891-0.265-0.585-1.104-0.425-1.07-0.903m11.754-2.926c-0.062-0.353-0.557-0.126-0.573-0.52 6e-3 -0.087 0.058-0.214 0.064-0.301 0.088-1.257-1.274-2.355-1.502-3.461-0.087-0.616-0.89-0.978-1.251-1.439 0.085-1.214-0.957-1.898-1.417-2.801-0.488-1.124-1.545-1.591-1.906-2.662-0.057-0.44-0.62-0.479-1.054-0.51-0.395-0.594-1.184-1.782-2.675-2.279-0.303-0.021-0.554-0.169-0.815-0.187-0.13-9e-3 -0.263 0.025-0.405 0.189-0.827-0.014-1.39 0.557-2.028 0.948-0.383 0.497-1.42 0.991-1.49 1.989-9e-3 0.13-0.018 0.26 0.016 0.393-0.059 0.214-0.077 0.474-0.092 0.691-0.082 1.171 0.177 2.454 0.405 3.559 1.056 3.605 2.38 5.877 4.169 8.966 0.248 0.192 0.213 1.323 1.037 1.38 1.917 1.878 3.403 4.946 6.657 5.173 0.217 0.016 0.434 0.031 0.653 2e-3 1.307-0.606 1.822-2.357 2.821-2.941 0.322-0.239 0.48-0.62 0.51-1.054 0.036-0.521-0.098-1.097-0.151-1.58l0.638 0.219 0.217 0.015c0.477 0.033 1.079 0.163 1.556 0.196 0.39 0.027 0.697 5e-3 0.715-0.255 6e-3 -0.087-0.031-0.177-0.069-0.267-1.457-0.973-2.989-2.127-4.03-3.463m-1.602 3.593c-0.039 0.564 0.163 1.406 0.121 2.014-0.027 0.39-0.138 0.731-0.494 0.837-0.937-0.327-1.833-1.218-2.779-2.025-0.695-0.049-0.523-1.257-1.072-1.513-0.133 0.034-0.22 0.028-0.306 0.022-0.955-0.067-0.898-1.502-1.766-1.562-0.763-0.925-1.512-2.067-1.925-3.012-0.388-0.071-0.459-0.294-0.441-0.554 0.012-0.173 0.071-0.387 0.083-0.56 0.012-0.174-0.02-0.351-0.23-0.452-1.16-0.866-1.166-2.654-2.03-4.022 0.067-0.954-0.433-1.904-0.367-2.859 0.024-0.347 0.132-0.645 0.33-0.979 0.22-0.029 0.483-0.054 0.657-0.042 1.041 0.073 1.467 0.844 2.484 1.263 2.205 1.506 4.102 4.297 5.782 6.464-0.056 0.17-0.149 0.251-0.322 0.239-0.47 0.49-0.773 1.079-0.818 1.73-0.025 0.347 0.035 0.743 0.184 1.102 0.63 0.96 1.605 1.987 2.517 2.661zm14.356 3.532c-0.521-0.037-0.704-0.529-1.529-0.586l-0.217-0.015c-0.022-0.307-0.236-0.365-0.409-0.378l-0.174-0.012c-0.13-9e-3 -0.303-0.021-0.335-0.198-1.187-0.475-1.561-1.983-2.888-2.337-0.323-0.372-0.088-1.227-0.718-1.576-0.607-0.043-0.924-0.501-1.11-0.949-0.764-0.926-0.431-1.949-1.516-2.635-0.747-1.795-2.163-3.987-2.009-6.199 0.037-0.521 0.163-1.079 0.416-1.584 0.105-0.254 0.464-0.404 0.681-0.388 0 0 0.862 0.147 1.234 0.435 1.383 0.794 2.953 2.037 3.04 2.653 0.088 0.616 1.523 0.673 1.459 1.584 1.009 1.16 1.849 1.611 3.074 2.176l0.372 0.288c0.254 0.105 0.725 0.225 1.029 0.246 0.174 0.012 0.35-0.019 0.356-0.106 0.042-0.607-2.387-2.651-2.362-2.998 0.024-0.347-1.807-2.219-2.317-3.649-0.385-0.114-0.718-0.966-1.151-0.996-0.044-3e-3 -0.09 0.037-0.133 0.034-0.862-2.022-4.312-3.178-4.861-3.434-1.518-0.106-1.652 1.192-2.245 2.197-0.052 0.737-0.773 1.079-0.816 1.686-0.012 0.174 0.016 0.394 0.215 0.669 0.345 4.427 1.644 8.921 3.91 12.043 1.034 1.424 3.036 3.961 3.219 3.843 0.434 0.03 1.759 1.648 2.736 2.022l0.303 0.021c1.172 0.082 1.083 0.73 1.991 0.836 0.161 0.186 0.766 0.272 1.193 0.389l0.304 0.021c0.607 0.043 1.292 0.221 1.899 0.264 0.651 0.045 1.181-0.048 1.573-0.675 0.1-1.431-0.385-2.599-1.189-3.571-0.246-0.845-1.144-2.346-1.881-2.397-0.087-7e-3 -0.13-0.01-0.22 0.028-0.046 0.04-0.096 0.124-0.105 0.254-0.033 0.477 0.253 1.369 0.205 2.063-0.028 0.391-0.179 0.685-0.495 0.837-0.223 0.072-0.399 0.103-0.529 0.094m24.006 19.507c-0.357-0.505-1.642-0.202-1.59-0.939 6e-3 -0.087 0.052-0.128 0.058-0.214-0.542-0.344-1.6-0.81-1.53-1.807-1.691-1.383-2.905-3.342-4.039-5.208-0.115-0.226-0.039-0.7-0.29-0.849-0.481-0.6-1.19-0.432-1.163-1.432-2.127-2.634-3.784-6.368-5.722-9.205-0.37-0.942-1.304-1.922-1.306-3.143-1.292-0.221-0.505-2.128-1.485-2.458 0.034-0.477-0.441-0.554-0.55-0.866-0.777-1.973-2.525-4.405-2.39-6.968 0.093-0.081 0.183-0.118 0.27-0.112 0.217 0.015 0.496 0.384 0.617 0.523 0.978 0.984 2.12 2.11 3.746 2.529 0.171 0.055 0.342 0.11 0.471 0.119 0.261 0.019 0.31-0.065 0.357-0.105-0.079-0.747-1.886-1.701-2.586-2.927-1.28-2.269-2.772-3.376-4.472-5.238-0.589-0.303-0.866-0.715-1.517-0.76-0.173-0.012-0.35 0.019-0.57 0.047-0.383 0.497-0.552 1.052-0.598 1.702-0.082 1.171 0.302 2.549 0.579 3.571-3e-3 0.044 0.034 0.134 0.031 0.177 0.292 0.195 0.673 0.352 0.729 0.792-0.052 0.127-0.064 0.301-0.073 0.431-0.064 0.911 0.579 1.697 0.958 2.508 1.532 3.027 3.076 5.881 4.432 8.94 1.141 0.516 0.474 1.952 1.441 2.455 0.825 1.932 2.876 4.385 3.667 6.795 0.478 0.643 1.414 0.97 1.345 1.968 1.988 3.365 3.988 6.556 6.235 9.329-0.027 0.39 0.311 0.544 0.475 0.687 1.681 0.901 2.333 2.168 4.29 2.871 0.462 0.25 1.019 0.376 1.475 0.713 0.344 0.068 0.908 0.107 0.98 0.33l0.217 0.016c0.911 0.063 1.581 0.458 2.274 0.507 0.348 0.024 0.701-0.038 1.066-0.274 2e-3 -0.654-3.002-1.953-3.542-2.34-0.874-0.584-1.931-1.05-2.29-2.165m-4.953-28.941c-6e-3 0.086-0.049 0.083-0.136 0.077-0.13-9e-3 -0.341-0.111-0.341-0.111-0.962-1.2-2.3-2.645-3.222-3.799 0.05-0.084 0.053-0.128 0.056-0.171 0.021-0.303-0.46-0.293-0.568-0.606-0.729-0.182-0.725-1.489-1.375-1.535-0.087-6e-3 -0.177 0.032-0.31 0.066 0.012-0.174-0.257-0.062-0.421-0.204-0.39-1.292-1.564-1.33-2.325-2.298-0.297-0.108-0.418-0.248-0.679-0.266-0.043-3e-3 -0.133 0.035-0.219 0.029-1.023 0.277-1.405 1.383-1.81 2.183 0.073 2.708 1.257 5.101 2.286 7.222 1.531 2.417 2.973 5.482 4.807 7.31 0.251 0.148 0.648 0.089 0.806 0.318 0.219 1.236 1.561 1.373 1.934 2.271 1.812 1.522 3.049 2.524 5.405 3.124l0.118 0.183c0.086 6e-3 0.214 0.058 0.3 0.064 0.432 0.074 0.862 0.148 1.296 0.178 0.824 0.057 1.574-0.065 2.022-0.862 0.142-2.038-1.062-3.517-2.427-4.572-0.04-0.046-0.084-0.049-0.127-0.052-0.174-0.012-0.316 0.152-0.415 0.319 0.037 0.09 0.031 0.177 0.025 0.264-0.027 0.39-0.305 0.633-0.339 1.11l-0.015 0.217c-0.269 0.112-0.533 0.137-0.793 0.119-0.694-0.049-1.318-0.485-1.82-0.781-1.078-0.163-1.108-1.603-2.323-1.688-0.311-0.545-0.596-0.827-1.139-1.17-0.701-0.572-0.73-1.402-1.941-1.53-0.21-1.366-1.776-2.042-2.345-3.259-0.286-0.892-1.238-1.613-1.169-2.61 6e-3 -0.087 0.059-0.214 0.065-0.301-1.036-0.77-0.971-2.334-1.332-3.406 0.152-0.294 0.288-0.372 0.418-0.363 0.304 0.021 0.667 0.439 1.057 0.466l0.252 0.149c1.253 0.785 2.794 1.808 3.716 2.962 2.563 2.62 4.347 4.532 6.599 7.872 0.17 0.055 0.084 0.659 1.126 0.732 0.043 3e-3 0.083 0.049 0.127 0.052 0.301 0.065 0.598 0.173 0.901 0.194 0.391 0.028 0.744-0.035 1.026-0.32 0.052-0.128 0.102-0.211 0.11-0.342 0.046-0.65-0.794-1.101-0.935-1.59-0.534-1.084-1.58-2.334-1.535-2.985 0.012-0.173-0.651-0.655-0.797-1.058 0.049-0.084 0.052-0.127 0.058-0.214 0.036-0.521-0.717-0.965-0.854-1.498-0.405-1.075-1.035-2.034-0.951-3.249 0.177-0.031 0.31-0.065 0.44-0.056 0.738 0.051 0.903 0.804 1.582 1.069 1.049 0.597 1.521 1.327 2.467 2.135 0.216 0.015 0.356-0.107 0.374-0.367 6e-3 -0.087 0.012-0.173-0.025-0.263-0.473-1.341-1.717-2.256-2.326-3.519-0.438-0.598-1.22-1.262-1.719-1.602-1.297-0.788-3.136-2.53-3.486-2.511-0.22 0.029-0.75 0.122-0.783 0.599-0.251 0.463-0.374 0.977-0.407 1.454-0.149 2.126 1.311 4.32 1.965 6.197 0.08 0.092 0.074 0.179 0.071 0.223m15.474 9.364c0.049-0.084 0.099-0.167 0.105-0.254 0.018-0.261-0.224-0.539-0.302-0.675-1.395-0.621-1.542-1.634-2.377-2.782 6e-3 -0.086 0.055-0.17 0.061-0.257 0.067-0.955-1.603-0.766-1.533-1.764 6e-3 -0.086 0.053-0.127 0.059-0.213-0.399-1.162-1.326-1.619-1.728-2.737-0.704-1.139-1.447-2.368-1.555-3.944 0.173 0.012 0.356-0.106 0.53-0.094 0.087 6e-3 0.127 0.053 0.208 0.145 0.606 1.307 2.801 2.332 3.877 3.148 0.391 0.027 0.292 0.195 0.509 0.21 0.043 3e-3 0.13 9e-3 0.22-0.028l0.024-0.347c-0.968-1.114-1.806-1.608-2.093-3.11-1.495-1.064-2.557-2.707-3.979-4.202-0.21-0.102-0.424-0.16-0.598-0.172-0.434-0.03-0.839 0.159-1.21 0.482-0.328 0.326-0.445 0.753-0.473 1.144-0.081 1.171 0.742 2.493 0.753 3.583 0.547 1.521 1.153 2.827 1.971 4.235 0.04 1.921 1.433 3.196 2.315 4.914 1.032 2.077 2.268 3.732 3.458 6.039 0.608 0.652 1.591 0.939 2.545 1.006 0.521 0.036 0.957 0.023 1.401-0.076 0.226-0.116 0.324-0.283 0.337-0.457 0.03-0.434-0.327-0.938-0.557-1.39zm21.431-19.121c-0.391-0.027-0.979 0.28-0.979 0.28-1.356 0.69-2.088 1.816-2.414 3.363-0.068 0.343-0.089 0.647-0.107 0.908-0.161 2.299 0.93 2.898 0.903 3.288-3e-3 0.044-0.052 0.128-0.099 0.168-0.046 0.04-0.049 0.083-0.055 0.17-0.073 1.042 2.314 5.567 3.062 6.709 0.674 0.963 1.637 2.774 1.637 2.774 0.084 0.049 0.164 0.142 0.158 0.229s-0.098 0.167-0.402 0.146c-1.647-1.379-3.27-2.495-4.527-4.457-0.902-0.194-0.526-1.214-1.561-1.374-1.884-2.354-3.811-4.102-5.2-6.684-0.341-0.111-4e-3 -0.566-1.215-0.695l-0.304-0.021c-0.824-0.057-1.313 0.083-1.75 0.706l-0.014 0.217c-0.076 1.085 0.703 1.793 0.633 2.79-9e-3 0.131-0.019 0.261-0.071 0.388 1.011 2.381 2.378 4.656 3.376 7.21-0.046 0.041-0.093 0.081-0.18 0.075-0.303-0.021-0.753-0.445-0.911-0.674-1.145-1.082-2.768-2.199-3.767-3.489-0.702-1.182-2.002-1.927-2.437-3.178-0.276-0.412-0.481-0.6-0.984-0.897-1.84-1.741-3.16-4.057-5.198-5.463-0.344-0.068-0.644-0.132-0.948-0.154-0.564-0.039-1.094 0.055-1.347 0.56-0.139 1.996 1.64 2.73 1.693 4.477 2.02 4.152 4.77 9.095 6.718 13.024 0.165 0.142 0.391 0.638 0.825 0.668 0.933 1.634 1.81 4.05 3.806 4.189 0.129 9e-3 0.219-0.028 0.349-0.019 0.087 6e-3 0.171 0.055 0.257 0.061 0.478 0.034 0.803-0.249 1.208-0.438 0.09-0.038 0.142-0.165 0.152-0.295 0.051-0.737-0.918-2.462-2.004-3.148-0.899-0.847-0.96-1.854-2.228-2.422-0.242-0.279-0.243-0.889-0.389-1.291-1.298-1.399-2.276-2.993-2.985-4.699-0.357-0.504-0.928-1.067-0.871-1.891-0.821-0.712-1.18-1.826-1.481-2.501 0.052-0.127 0.142-0.165 0.229-0.159s0.171 0.056 0.297 0.108c1.313 1.182 2.009 2.451 3.532 3.734 1.424 1.451 3.253 3.976 5.306 5.166 1.046 1.25 1.924 1.791 3.242 2.886 0.822 0.711 1.472 2.02 2.643 2.102 0.13 9e-3 0.304 0.021 0.48-0.01 0.617-0.088 0.66-0.085 0.66-0.085 0.434 0.031 0.824-0.552 0.836-0.726 0.075-1.084-0.935-1.591-1.337-2.709-1.077-1.426-1.879-3.052-2.61-4.454 6e-3 -0.087 0.056-0.171 0.059-0.214 0.055-0.781-1.129-0.689-1.068-1.557 6e-3 -0.086 0.012-0.173 0.065-0.3-0.144-0.446-0.709-1.096-0.672-1.617 6e-3 -0.086 9e-3 -0.129 0.058-0.213l0.511 0.166c3.29 3.456 5.964 7.61 9.461 10.6 0.292 0.805 1.163 0.822 1.62 1.769 1.036 0.77 1.531 2.418 2.962 2.518 0.261 0.018 0.524-7e-3 0.88-0.113 0.446-0.143 0.832-0.683 0.996-1.151 0.112-1.605-0.964-2.422-1.66-3.69 0.027-0.391-0.296-0.762-0.581-1.044-0.862-0.147-0.848-0.974-1.019-1.64-1.375-1.535-2.06-3.588-3.147-5.495-0.221-0.582-0.584-0.999-0.535-1.694l0.014-0.216c-0.881-1.108-2.346-4.48-2.197-6.605 0.027-0.39 0.095-0.735 0.246-1.03-0.121-0.138-0.112-0.269-0.1-0.442l0.037-0.521c0.519-0.574-0.033-0.787 0.754-1.429 0.03-0.434-0.138-0.533-0.311-0.545m-17.693 28.624c-0.173-0.013-0.396 0.059-0.625 0.217-0.188 0.205-0.38 0.453-0.401 0.757 0.131 0.619 0.172 1.276 0.358 1.725 0.268 0.542 0.656 1.223 1.437 1.277 0.27 0.499 0.757 1.012 1.278 1.048 0.276-0.198 0.75-0.121 1.149-0.224 0 0-0.037-0.09-0.034-0.134 0.275-0.198 0.334-0.412 0.355-0.716 0.012-0.173-0.019-0.35-0.053-0.483-0.372-1.551-1.125-1.996-2.189-2.986-0.434-0.031-0.797-0.448-1.275-0.481m24.521-23.437c-0.121-0.139-0.334-0.198-0.595-0.216-0.52-0.036-1.14 0.095-1.14 0.095-0.461 0.36-0.736 0.559-0.779 1.166l-0.018 0.26c0.26 1.892 1.418 3.412 2.758 4.203 0 0 0.731 0.138 1.295 0.178 0.304 0.021 0.524-7e-3 0.613-0.045 0.536-0.18 0.687-0.475 0.718-0.908 0.024-0.348-0.076-0.791-0.045-1.224-0.365-1.028-0.89-2.242-1.421-2.758 0 0-0.867-0.061-1.386-0.751m16.851 29.598c-0.71-0.442 0.205-1.685-0.914-1.894-0.514-0.124-0.638-0.219-0.868-0.671 6e-3 -0.087 0.059-0.214 0.065-0.301 0.078-1.128-1.125-1.997-1.591-2.814-1.455-1.017-1.45-3.588-2.991-4.611-0.052-1.748-2.132-2.547-2.504-4.098-1.241-1.569-1.961-3.755-3.344-5.16-0.249-0.192-0.503-0.296-0.763-0.315-0.391-0.027-0.836 0.116-1.233 0.176-0.18 0.074-0.232 0.202-0.241 0.332-0.024 0.347 0.162 0.796 0.364 1.028 1.087 1.907 2.309 4.389 3.572 6.265 1.124 3.26 2.994 6.442 4.644 9.042 1.46 2.805 2.514 5.189 4.136 8.179 0.546 0.3 1.209 0.782 2.251 0.855 0.201 0.232 0.415 0.291 0.589 0.303 0.173 0.012 0.35-0.019 0.524-7e-3 0.086 6e-3 0.173 0.012 0.257 0.061 0.622-0.174 1.138-0.705 1.51-1.028l0.018-0.26c0.079-1.128-0.854-1.498-1.323-2.272-0.748-0.532-1.011-2.381-2.158-2.81" fill="#b0151f"/></g></g></g><g transform="scale(1,-1)" fill="#fff" stroke-width="3.8302" aria-label="NETWORK"><path d="m-77.341-572.8v-28.184h5.5368l11.535 18.821v-18.821h5.2869v28.184h-5.7098l-11.362-18.379v18.379z"/><path d="m-33.223-572.8v-28.184h20.898v4.7678h-15.207v6.2481h14.15v4.7486h-14.15v7.6708h15.745v4.7486z"/><path d="m15.132-572.8v-23.416h-8.3629v-4.7678h22.397v4.7678h-8.3437v23.416z"/><path d="m52.593-572.8-6.7288-28.184h5.8252l4.2487 19.36 5.1523-19.36h6.7672l4.9408 19.686 4.3256-19.686h5.7291l-6.8441 28.184h-6.0367l-5.6137-21.071-5.5945 21.071z"/><path d="m100.36-586.72q0-4.3064 1.2881-7.2286 0.96125-2.1532 2.6146-3.8642 1.6726-1.711 3.6528-2.5377 2.6338-1.115 6.0751-1.115 6.2289 0 9.9586 3.8642 3.7489 3.8642 3.7489 10.747 0 6.8249-3.7104 10.689-3.7104 3.845-9.9201 3.845-6.2866 0-9.997-3.8258-3.7104-3.845-3.7104-10.574zm5.8636-0.19225q0 4.787 2.2109 7.267 2.2109 2.4608 5.6137 2.4608t5.5752-2.4416q2.1916-2.4608 2.1916-7.3632 0-4.8447-2.134-7.2286-2.1148-2.3839-5.6329-2.3839-3.5182 0-5.6714 2.4224-2.1532 2.4031-2.1532 7.267z"/><path d="m147.91-572.8v-28.184h11.977q4.5179 0 6.5557 0.769 2.0571 0.74978 3.2875 2.6915 1.2304 1.9417 1.2304 4.441 0 3.1721-1.8648 5.2484-1.8648 2.0571-5.5752 2.5954 1.8456 1.0766 3.0376 2.3647 1.2112 1.2881 3.249 4.5756l3.4413 5.4984h-6.8056l-4.1142-6.1328q-2.1916-3.2875-2.9991-4.1334-0.80745-0.86513-1.711-1.1727-0.90358-0.32682-2.8645-0.32682h-1.1535v11.766zm5.6906-16.264h4.2103q4.0949 0 5.1138-0.34605t1.5957-1.192 0.57675-2.1148q0-1.4226-0.769-2.2878-0.74977-0.88435-2.134-1.115-0.6921-0.0961-4.1526-0.0961h-4.441z"/><path d="m192.15-572.8v-28.184h5.6906v12.515l11.497-12.515h7.6516l-10.612 10.977 11.189 17.206h-7.3632l-7.7477-13.227-4.614 4.7101v8.5167z"/></g></g></svg>
