<svg width="800" height="260.65" version="1.1" viewBox="0 0 800 260.65" xmlns="http://www.w3.org/2000/svg">
 <path class="st0" d="m197.08 222.14c15.993-17.059 28.85-37.338 35.216-58.683-22.014 12.01-49.192 20.164-78.617 20.164-73.338 0-135.3-41.206-134.69-99.512 0.10453-10.035 2.885-19.714 6.6376-28.829 0.39721-0.89896-0.05227-1.0558-0.67944-0.01045-9.3554 12.366-15.763 32.383-15.763 50.404 0 65.655 70.035 118.88 156.42 118.88 10.777-0.0105 21.303-0.83624 31.474-2.4146z" fill="#027eb3" stroke-width="1.0453"/>
 <path class="st0" d="m145.66 260.3c14.32-6.7735 28.714-16.589 41.676-28.515-9.1463 1.7143-17.749 2.8118-25.369 2.6446-68.299-1.4948-122.56-33.376-145.93-79.39-7.5261-14.812-13.84-32.738-9.7421-56.414 0.48083-2.101 0.20906-3.0418-1.0871 0.61672-3.0522 10.097-5.2055 21.711-5.2055 32.603 0 68.351 63.972 124.3 144.91 128.81 0.0523 0 0.75261-0.3554 0.75261-0.3554z" fill="#8cb6e7" stroke-width="1.0453"/>
 <g transform="translate(-.00752)" fill="#054482" stroke-width="1.0453">
  <path class="st0" d="m235.49 149.41c1.0035-6.439 1.3693-12.93 1.0035-19.422-0.56446-10.056-1.2648-19.882-3.0418-29.331-18.554 19.505-51.721 33.031-89.54 33.031-58.14 0-102.23-36.92-105.27-69.596-1.5261-16.369 6.0732-27.659 18.052-37.349 0.5122-0.44948 0.11498-0.73171-0.24042-0.5122-21.073 13.934-30.554 32.822-30.554 55.965 0 49.39 55.714 90.471 125.09 90.471 32.54 0.0105 62.195-8.8014 84.502-23.258z"/>
  <path class="st1" d="m137.74 0c71.498 0 129.44 58.745 129.44 131.11 0 51.47-29.31 96.062-71.926 117.49 0.42857-2.0906 0.95121-4.5156 1.3066-6.7735 27.334-17.519 59.79-48.93 59.79-103.51 0-61.526-49.191-111.32-109.85-111.32-32.885 0-66.208 17.404-86.341 40.568-4.7874-17.467-0.72125-35.874 4.9442-44.885 20.665-14.341 45.742-22.672 72.637-22.672z"/>
 </g>
 <g transform="translate(-.00752)">
  <g fill="#054482" stroke-width="1.0453">
   <path class="st0" d="m343.85 41.917v74.237h-17.77v-74.237h-28.004v-14.843h72.147l2.561 14.843z"/>
   <path class="st0" d="m411.16 83.364h-7.9443v32.791h-17.77v-89.08h27.188c21.272 0 34.056 9.4286 34.056 27.366 0.0105 19.244-14.258 28.923-35.53 28.923zm0.5331-42.606h-8.4774v28.788h7.8084c11.446 0 18.167-4.5157 18.167-14.718 0.0105-9.2927-6.0523-14.07-17.498-14.07z"/>
   <path class="st0" d="m460.29 116.15v-89.08h17.498v61.328l40.119-61.328h18.042v89.08h-17.634v-62.613l-40.923 62.613z"/>
   <path class="st0" d="m326.05 142.31h19.045l34.171 87.272-17.969 3.0941-8.9164-23.498h-35.258l-8.1011 22.599h-17.969zm-4.0453 52.934h25.39l-12.565-34.474z"/>
   <path class="st0" d="m449.51 231.78v-38.603h-39.575v38.603h-17.969v-89.08h17.969v35.248h39.575v-35.248h17.969v89.08z"/>
   <path class="st0" d="m537.7 142.69 2.5714 15.491h-35.122v73.589h-17.969v-89.08z"/>
   <path class="st0" d="m553.37 231.78v-89.08h54.167v14.456h-36.471v21.303h28.098l2.4356 14.331h-30.533v24.533h37.819v14.456z"/>
   <path class="st0" d="m699.25 231.78h-17.969v-74.237h-21.742l-3.1045 24.92c-4.5889 35.896-13.369 47.383-37.558 51.126l-2.4251-14.979c14.718-3.3554 19.317-12.01 22.693-38.728l4.7248-37.181h55.38z"/>
   <path class="st0" d="m746.79 142.31h19.045l34.171 87.272-17.969 3.0941-8.9164-23.498h-35.258l-8.1011 22.599h-17.969zm-4.0558 52.934h25.39l-12.565-34.474z"/>
  </g>
 </g>
</svg>
