<svg width="800" height="659.63" version="1.1" xmlns="http://www.w3.org/2000/svg"><g transform="matrix(1.3333 0 0 -1.3333 7.3501 1267.8)"><g transform="matrix(4.6573 0 0 4.6573 584.6 771.09)"><path d="m0 0c-0.701 0.692-2.636 2.324-5.087 2.232-0.844-0.033-1.51-0.079-2.352-0.136l-0.169-0.012c-0.286-0.019-0.555-0.059-0.802-0.101 0.26 0.571 0.711 1.115 1.309 1.557 0.918 0.684 1.377 0.701 1.534 0.706 0.283 0.012 0.625-0.063 0.958-0.146l1.224-0.302c0.528-0.13 1.067 0.169 1.244 0.691l0.418 1.236c0.699 2.066 1.177 3.694 1.683 5.416 0.39 1.329 0.794 2.702 1.318 4.334 3e-3 0.011 7e-3 0.023 0.01 0.034l0.32 1.124c0.156 0.546-0.136 1.121-0.665 1.308-1.265 0.446-1.747 0.602-1.984 0.657l-4.447 1.386c-0.095 0.03-0.193 0.045-0.292 0.047-0.091 1e-3 -0.182 2e-3 -0.273 2e-3 -6.42 0-11.065-3.639-13.877-7.936v8.244c0 0.487-0.323 0.912-0.787 1.035l-4.003 1.061c-0.25 0.066-0.514 0.037-0.743-0.082-2.126-1.099-11.586-5.707-12.978-6.064-0.468-0.12-0.796-0.549-0.794-1.04l0.043-13.122c-2.153-0.613-5.391-1.87-8.275-3.494-2.36-1.328-4.138-2.688-5.325-4.068l-0.249 1.61c-0.045 0.292-0.206 0.551-0.446 0.718-0.24 0.166-0.538 0.225-0.821 0.16-4.104-0.924-10.606-1.454-17.839-1.454-2.65 0-5.254 0.074-7.531 0.214-0.372 0.023-0.729-0.156-0.937-0.47l-2.464-3.724v17.768c0 0.494-0.333 0.924-0.806 1.039-3.245 0.794-6.692 2.146-9.266 3.268 2.387 6.008 7.15 10.977 13.831 14.413 6.407 3.294 14.528 5.109 22.868 5.109 0.684 0 1.377-0.012 2.06-0.036 6.304-0.222 11.926-1.559 16.71-3.976 0.163-0.082 0.335-0.116 0.507-0.111 0.565 0.019 1.017 0.49 1.017 1.069 0 0.396-0.212 0.742-0.527 0.927-6.977 4.715-16.184 7.378-25.933 7.5-7.493 0.095-15.13-1.337-22.053-4.126-4.489-1.809-8.601-4.159-12.148-6.924-0.02 0.107-0.056 0.212-0.11 0.312-0.264 0.49-0.854 0.692-1.355 0.463-5.168-2.364-10.294-6.876-14.129-12.424 5e-3 0.295-0.105 0.589-0.331 0.804-0.384 0.365-0.976 0.385-1.384 0.047-0.157-0.131-3.894-3.272-7.277-9.516-3.108-5.734-6.481-15.288-4.902-28.235 2e-3 -0.019 5e-3 -0.037 8e-3 -0.056 1.002-5.727 2.982-14.294 8.594-22.522 6.523-9.564 16.548-16.63 29.796-21.002 8e-3 -3e-3 0.017-6e-3 0.025-8e-3 6.855-2.07 14.069-3.034 22.703-3.034 14.819 0 28.397 3.289 41.509 10.055 1.072 0.522 2.004 1.132 2.043 1.158 0.138 0.09 0.254 0.213 0.337 0.358l6.94 12.053c0.156 0.271 0.187 0.598 0.085 0.894-0.102 0.297-0.327 0.532-0.616 0.645l-10.129 3.951c-0.185 0.072-1.533 0.548-1.533 0.548 2.129 1.368 4.06 2.949 5.89 4.807l0.416 0.42c0.066 0.067 0.122 0.142 0.168 0.223 0.69-0.088 1.381-0.119 2.085-0.091 2.755 0.107 5.565 1.054 8.128 2.74 8.812 5.811 11.96 16.017 11.979 22.982 0.032 3.192-0.661 5.445-2.121 6.887" fill="#fff"/></g><g transform="matrix(4.657 .047346 0 -4.6575 122.32 375.33)"><g transform="translate(22.046 -86.061)"><path d="m0 0c0.14-2e-3 0.28 0.033 0.421 0.03 0.468 0.024 1.061-0.076 1.07-0.652 7e-3 -0.431-0.411-0.685-0.926-0.705-0.646-0.027-1.026 0.295-1.026 0.895-0.497-0.027-0.993-0.055-1.488-0.088 0.061-1.467 1.13-2.171 2.526-2.124 1.133 0.041 2.428 0.555 2.406 1.925-0.01 0.588-0.329 1.197-0.93 1.28v0.019c0.745 0.229 1.102 0.789 1.09 1.582-0.025 1.527-1.385 2.102-2.676 2.013-1.526-0.102-2.748-0.994-2.627-2.67 0.496 0.036 0.992 0.071 1.488 0.102-0.032 0.785 0.345 1.203 1.15 1.251 0.544 0.033 1.062-0.18 1.071-0.764 0.013-0.739-0.509-0.934-1.146-0.967-0.14-8e-3 -0.281-6e-3 -0.421-4e-3 6e-3 -0.375 0.012-0.749 0.018-1.123" fill="#1b54a2"/></g><g transform="translate(27.779 -88.662)"><path d="m0 0c0.6-0.012 1.201-0.027 1.801-0.047 0.849 2.275 1.697 4.567 2.546 6.876-0.617 0.012-1.233 0.021-1.85 0.025-0.14-0.412-0.28-0.825-0.419-1.235-0.791 7e-3 -1.582 9e-3 -2.373 3e-3 -0.144 0.408-0.287 0.815-0.43 1.221-0.606-9e-3 -1.213-0.022-1.82-0.038 0.848-2.237 1.696-4.505 2.545-6.805m0.114 4.299c0.515-1e-3 1.029-5e-3 1.544-0.012-0.251-0.802-0.502-1.602-0.753-2.4h-0.019c-0.257 0.807-0.514 1.611-0.772 2.412" fill="#1b54a2"/></g><g transform="translate(32.446 -88.829)"><path d="m0 0c1.061-0.055 2.122-0.121 3.183-0.201 1.17-0.105 2.455 0.097 2.455 1.591 0 0.641-0.362 1.191-0.894 1.509 0.723 0.167 1.17 0.793 1.17 1.607 0 1.706-1.19 2.307-2.646 2.371-1.089 0.049-2.178 0.086-3.268 0.111zm1.772 2.668c0.458-0.024 0.915-0.05 1.373-0.079 0.304-0.019 0.723-0.216 0.723-0.723 0-0.517-0.352-0.661-0.723-0.636-0.458 0.032-0.915 0.06-1.373 0.087zm0 2.8c0.474-0.019 0.946-0.041 1.419-0.065 0.562-0.029 0.952-0.262 0.952-0.849 0-0.628-0.417-0.81-0.952-0.778-0.473 0.028-0.945 0.053-1.419 0.075z" fill="#1b54a2"/></g><g transform="translate(38.729 -89.453)"><path d="m0 0c0.605-0.073 1.211-0.149 1.817-0.231 0.785 1.38 1.569 2.766 2.355 4.161 8e-3 -1e-3 0.014-2e-3 0.02-2e-3v-4.495c0.554-0.084 1.108-0.17 1.662-0.26v7.342c-0.605 0.081-1.209 0.157-1.814 0.23-0.785-1.421-1.572-2.833-2.357-4.236-6e-3 0-0.013 1e-3 -0.018 2e-3v4.499c-0.556 0.058-1.109 0.112-1.665 0.162z" fill="#1b54a2"/></g></g><g transform="matrix(4.6573 0 0 4.6573 513.31 568.53)"><path d="m0 0-10.105 3.956c-21.876-9.433-34.227-9.699-40.471-9.737-20.881-0.127-29.765 4.731-33.212 6.593-11.197 6.048-23.05 18.402-21.419 38.644 0.876 10.855 7.239 20.003 7.239 20.003s-14.756-12.293-11.773-36.84c2.069-11.875 7.809-32.887 37.589-42.751 6.935-2.102 14.179-2.994 22.35-2.994 16.125 0 29.247 3.897 40.945 9.959 1.027 0.5 1.933 1.097 1.933 1.097z" fill="#068cce"/></g><g transform="matrix(4.6573 0 0 4.6573 129.57 898.73)"><path d="m0 0c-9.944-4.564-20.471-17.812-20.385-32.864 0.064-11.029 4.22-20.488 12.512-28.096 4.671-4.286 9.801-7.462 16.488-9.407 2.894-0.842 6.086-1.526 7.991-1.649 0 0 0.365 5.702 1.173 13.629-19.983 2.175-32.22 13.22-32.22 31.406 0 10.671 4.895 20.642 14.441 26.981" fill="#26b9f1"/></g><g transform="matrix(4.6573 0 0 4.6573 411.3 911.9)"><path d="m0 0c-6.799 4.63-15.916 7.249-25.356 7.368-24.101 0.305-48.037-15.457-46.791-37.785 0.814-14.605 10.725-22.118 25.024-25.901-6.782 10.28-11.154 21.649-11.501 28.041-1.229 22.694 20.502 33.11 41.523 32.369 6.126-0.216 11.93-1.471 17.101-4.092" fill="#80d6f7"/></g><g transform="matrix(4.6573 0 0 4.6573 432.88 552.75)"><path d="m0 0v-9.575l1.014 0.469v3.178l0.87 1.375 3.477-2.544 1.317 0.61c-1.232 0.918-2.814 2.134-4.069 3.081l4.117 6.516-1.34-0.62c-1.462-2.258-2.923-4.584-4.372-6.835v4.814zm-7.115-7.217v3.476l2.348 0.814c1.155 0.427 1.971 0.278 1.971-1.049 0-1.311-0.766-2.009-1.971-2.427zm2.675-0.114c1.519 0.608 2.699 1.815 2.699 3.721-0.038 2.03-1.331 2.406-3.038 1.815l-3.389-1.175v-9.575l1.053 0.365v3.908l1.369 0.475 2.875-2.912 1.292 0.448zm-12.135-0.456c0 1.298 1.281 2.165 2.577 2.466 1.295 0.288 2.604 0.011 2.604-1.314v-4.017c-0.013-1.261-1.296-2.181-2.592-2.469-1.308-0.291-2.589 0.059-2.589 1.317zm-1.076-0.239v-4.017c0-2.002 1.827-2.61 3.665-2.201 1.828 0.406 3.668 1.83 3.668 3.831v4.017c0 2.002-1.84 2.594-3.668 2.187-1.838-0.409-3.665-1.816-3.665-3.817m-6.93 0.712-0.977-0.084-2.154-7.206-2.246 8.03-1.15-0.099 2.708-9.342 1.348 0.116c0.648 2.139 1.335 4.389 1.982 6.541l1.968-6.2 1.348 0.116 2.708 9.809-1.136-0.098-2.259-8.404zm-14.592 0.661v-1.088l2.882-0.109v-8.101l1.066-0.04v8.1l2.883-0.109v1.089zm-0.991 0.111-5.727 0.712v-9.19l5.727-0.71v1.088l-4.667 0.579v2.955l4.301-0.534v1.089l-4.301 0.534v2.968l4.667-0.579zm-14.672 2.581v-9.177l1.042-0.234v7.271l4.318-8.242 1.315-0.295v9.177l-1.042 0.234v-7.582l-4.517 8.597z" fill="#fff"/></g><g transform="matrix(4.6573 0 0 4.6573 580.8 767.65)"><path d="m0 0c-0.98 0.972-2.554 2.001-4.304 1.933-0.882-0.035-1.577-0.084-2.485-0.146-0.639-0.044-1.232-0.217-1.694-0.235-0.253-0.01-0.393 0.01-0.462 0.026-6e-3 0.026-0.011 0.062-0.015 0.111 0.014 1.271 0.753 2.572 1.987 3.488 1.052 0.787 1.707 0.898 2.107 0.914 0.388 0.015 0.779-0.06 1.248-0.176l1.221-0.303 0.417 1.237c1.236 3.667 1.795 6.017 2.988 9.747l0.567 1.087-1.808 0.67c-0.11-1e-3 -0.218-2e-3 -0.326-3e-3l-4.492 1.406c-7.607 0.122-12.852-5.255-15.15-11.231v12.611l-3.993 1.063c-1.909-0.991-11.594-5.751-13.166-6.156l0.046-13.971c-3.887-0.923-14.482-5.268-15.29-10.285v0.983l-0.616 4.004c-6.737-1.523-18.19-1.723-25.6-1.265l-4.379-6.643v21.303c-6.063 1.489-12.8 4.905-12.8 4.905l-5.171-1.777 5.353-2.475c-1.184 0.537-2.36 1.087-3.523 1.626l-1.83 0.849 0.025-49.359 0.772-0.518c3.775-2.354 7.716-4.386 12.147-5.711l1.756-0.57 1.978 5.114c0.874-1.865 1.736-3.7 2.594-5.512l0.309-0.655 0.705-0.107c4.352-0.666 8.785-1.053 13.19-1.172v-0.019l1.145-0.017 2.112-0.041-0.019 0.032c3.543 0.012 7.12 0.503 10.641 1.008l1.211 0.174v8.828c0.606-1.139 1.33-2.158 2.197-3.011 2.367-2.326 5.634-3.477 9.448-3.328 1.855 0.073 3.84 0.45 5.915 1.126 6.017 2.025 10.467 4.727 14.429 8.762l0.414 0.422v0.709c0.94-0.21 1.925-0.306 2.949-0.266 2.561 0.1 5.182 0.989 7.578 2.572 7.774 5.146 11.451 14.44 11.472 22.125 0.029 2.888-0.559 4.888-1.798 6.117m-20.201-10.083c1.882-3.068 5.353-2.942 7.327-2.865h0.012l0.231 0.01c0.109-2.179-4.832-3.322-6.68-2.453l-0.89-2.657zm-19.641-12.469c-3e-3 5.356 1.121 8.137 2.56 9.683l-0.07-13.56s-0.94-1.422-2.111-0.659c-0.252 1.206-0.379 2.722-0.379 4.536m-34.197 1.51c2.131 3.007 4.254 6.084 6.345 9.202v-19.416z" fill="#1b54a2"/></g><g transform="matrix(4.6573 0 0 4.6573 266.23 563.44)"><path d="m0 0c-3.79 6.321-6.906 12.758-10.675 19.31 3.271 4.489 6.557 9.194 9.845 14.116-4.094-0.035-8.184 0.17-12.247 0.615-2.411-3.751-4.811-7.372-7.198-10.877v27.035c-4.055 1.06-8.065 3.022-12.005 4.849v-46.565c2.821-1.905 7.95-4.3 12.005-5.616v13.604c2.366-5.132 4.743-10.233 7.133-15.285 4.581-0.701 8.524-1.096 13.142-1.186" fill="#ed1c24"/></g><g transform="matrix(4.6573 0 0 4.6573 271.81 563.39)"><path d="m 0,0 v 33.472 c 4.139,0.115 8.279,0.75 12.395,1.515 V 0.989 C 8.279,0.399 4.139,-0.06 0,0" fill="#fff200"/></g><g transform="matrix(4.6573 0 0 4.6573 415.84 585.38)"><path d="m0 0c-10.538-3.434-17.229 1.512-17.207 13.344-0.013 10.672 5.863 18.469 14.617 21.547 2.091 0.73 3.786 1.201 4.787 1.279v16.056c3.965 1.672 7.864 3.585 11.675 5.738v-49.553c-3.375-3.437-7.392-6.231-13.872-8.411m2.197 29.696c-0.501-0.067-1.128-0.181-1.883-0.462-4.284-1.579-6.087-5.77-6.083-12.704-3e-3 -7.159 1.925-10.145 5.895-8.804 0.881 0.302 1.57 0.616 2.071 1.058z" fill="#63c439"/></g><g transform="matrix(4.6573 0 0 4.6573 565.65 801.42)"><path d="m0 0c-1.301 0.323-2.547 0.475-4.489-0.976-1.676-1.244-2.568-2.998-2.566-4.681 0.245-4.62 10.873 3.769 10.758-7.751-0.021-7.722-3.76-16.263-10.827-20.941-3.672-2.425-7.621-2.889-10.639-1.782 1.483 3.266 2.953 6.583 4.407 9.952 1.477-0.504 2.943-0.766 4.866 0.477 1.51 0.978 2.791 3.097 2.791 5.088 0.235 5.008-11.11-3.284-11.203 8.979-6e-3 7.222 4.1 15.55 10.949 19.368 3.72 2.074 6.341 1.968 8.934 1.992-1.201-3.752-1.745-6.061-2.981-9.725" fill="#26b9f1"/></g></g></svg>
