<svg width="592.8" height="800" version="1.1" viewBox="0 0 592.8 800" xml:space="preserve" xmlns="http://www.w3.org/2000/svg" xmlns:xlink="http://www.w3.org/1999/xlink"><g transform="matrix(1.3333 0 0 -1.3333 -222.8 1394.2)"><g transform="matrix(22.883 0 0 22.883 438.45 692.65)"><path d="m0 0v-2.128h5.442l-5.442-6.721v-1.946h1.164l6.407 7.913v2.882z" fill="#00c8c8"/></g><g transform="matrix(22.883 0 0 22.883 445.66 1045.6)" fill="#fff"><path d="m0 0-0.315-0.389v-3.382l1.969 2.432zm-3.811-4.707v-9.35h2.128v11.979zm3.496-1.238v-8.112h2.129v10.741zm-11.068-8.112h2.738l3.465 4.278v3.382zm-0.79-3.497h10.49v2.128h-10.49zm8.362-8.666h2.128v7.297h-2.128zm-3.497 0h2.129v2.128h-2.129z" fill="#fff"/></g></g></svg>
