<svg width="800" height="225.82" fill="#7ebaeb" data-name="5Select-logo" version="1.1" viewBox="0 0 800 225.82" xmlns="http://www.w3.org/2000/svg">
 <g transform="translate(.012307 195.77)" stroke-width="7.5144">
  <path d="m434.49-193.43a6.3121 6.3121 0 0 0-8.6416 4.5838q-14.728 45.688-29.682 91.6-6.0115 18.711-12.098 37.572c-0.82659 2.63 0 3.4566 2.5549 3.6069h1.2774c3.6069 0 4.9595-0.82658 5.9364-3.9826q21.191-65.225 42.081-130.22a2.1792 2.1792 0 0 0-1.6532-3.156m22.543 3.2312c0.67629-1.9537 0-2.7803-1.8786-3.3063a6.0115 6.0115 0 0 0-8.2658 4.6589l-41.404 128.35c-1.3526 4.1329-1.1272 4.5086 3.3063 4.5086s5.1098-0.75144 6.3872-4.5838l16.457-50.797 25.474-78.826"/>
  <path d="m434.94-84.469c-1.3526 0-1.8034 0.52601-2.1792 1.7283-2.7052 8.4161-5.4855 16.907-8.1907 25.399 0 0.52601 0 1.1272-0.52601 1.8035h50.271a1.9537 1.9537 0 0 0 2.1792-1.6532c2.7052-8.5664 5.4855-17.058 8.2658-25.549v-1.7283h-49.82"/>
  <path d="m49.375-130.31c1.578 0 1.8035-0.82659 2.1792-1.9538q7.5144-22.543 15.029-45.537c1.6532-5.1849 3.3815-10.445 5.2601-16.006h-40.427c-4.8844 0-6.3121 1.052-7.5144 5.5607-6.3872 18.561-12.549 37.121-18.636 55.682 0 0.67629 0 1.3526-0.60115 2.104h44.711"/>
  <path d="m64.253-150.67h68.682a6.6127 6.6127 0 0 0 7.5144-7.5144v-28.404c0-5.4104-2.4046-7.5144-7.5144-7.5144h-52.225a2.4798 2.4798 0 0 0-2.7803 2.0289c-3.4566 10.445-7.0635 21.266-10.67 32.086l-3.0058 9.3178"/>
  <path d="m94.311-72.221c-1.578-0.52601-3.2312-0.82658-4.8844-1.2774a28.63 28.63 0 0 1 15.029 31.786 27.878 27.878 0 0 1-25.023 22.994v48.393a12.023 12.023 0 0 0 1.6532 0 75.895 75.895 0 0 0 32.462-9.2427 44.185 44.185 0 0 0 21.792-50.422 60.115 60.115 0 0 0-40.878-42.231"/>
  <path d="m48.172-46.897a6.4624 6.4624 0 0 0-6.9884-6.8381h-34.04a6.4624 6.4624 0 0 0-7.0635 7.5144 76.346 76.346 0 0 0 61.768 74.618c3.9075 0.75144 7.5144 1.1272 12.023 1.6532v-48.768h-1.5029a28.404 28.404 0 0 1-24.196-27.803"/>
  <path d="m795.03-193.73h-76.421a2.104 2.104 0 0 0-2.4046 1.8034c-2.7052 8.4913-5.4855 16.983-8.1907 25.399a13.977 13.977 0 0 0-0.60115 1.8786h29.081v104.15c0 3.6821 1.3526 5.0346 5.0346 5.0346h20.89c4.5086 0 5.5606-1.1272 5.5606-5.7109v-103.4h27.578c3.0809 0 4.4335-1.4277 4.4335-4.5086v-20.063c0-3.2312-1.3526-4.5838-4.5838-4.5838"/>
  <path d="m76.051-124.07h-72.664c0 0.90173 0.6763 1.5029 0.97687 2.104 5.4855 11.347 11.121 22.543 16.532 33.965a12.023 12.023 0 0 0 11.873 7.5144h45.086a65.826 65.826 0 0 1 61.768 44.485 73.04 73.04 0 0 1 4.0578 27.052c0.60115-0.97687 1.2023-1.9537 1.7283-2.9306a75.144 75.144 0 0 0 7.5144-49.445 76.647 76.647 0 0 0-76.872-62.745"/>
  <path d="m700.05-93.036c-2.7803-3.0058-4.3584-3.156-7.5144-0.60115a39.3 39.3 0 0 1-58.988-11.572 41.029 41.029 0 0 1-3.7572-30.058 38.248 38.248 0 0 1 43.208-30.058c2.3295 0 4.5086 0.90172 6.8381 1.4277l9.0924-28.329-2.0289-0.75144a75.895 75.895 0 0 0-33.063-1.6532 71.086 71.086 0 0 0 18.26 140.89 66.352 66.352 0 0 0 41.329-18.26 3.9826 3.9826 0 0 0 0-6.6127c-4.5086-4.8844-9.0924-9.6184-13.601-14.428"/>
  <path d="m259.25-126.1a92.878 92.878 0 0 0-22.543-12.624 137.59 137.59 0 0 1-14.578-7.5144 21.641 21.641 0 0 1-6.5375-6.0115 9.6936 9.6936 0 0 1 4.8092-15.555 19.087 19.087 0 0 1 7.9653-0.90173 45.086 45.086 0 0 1 19.838 7.5144l7.5144 4.7341c3.156-9.6184 6.1618-18.936 9.2427-28.254-1.9537-1.1272-3.682-2.1792-5.4855-3.0809a64.398 64.398 0 0 0-47.416-5.8612 37.572 37.572 0 0 0-29.156 28.78 36.971 36.971 0 0 0 13.601 38.399 83.485 83.485 0 0 0 22.543 13.451 73.641 73.641 0 0 1 11.196 5.4855 27.277 27.277 0 0 1 7.5144 6.8381 11.948 11.948 0 0 1-8.1907 19.537 13.751 13.751 0 0 1-3.5318 0 45.086 45.086 0 0 1-16.607-4.4335c-4.7341-2.0289-9.3178-4.4335-13.902-6.6878a5.4855 5.4855 0 0 0-8.2658 2.7803c-2.0289 5.8612-3.9075 11.873-5.7861 17.809a3.9826 3.9826 0 0 0 1.7283 5.1098 105.73 105.73 0 0 0 9.393 5.4855 79.953 79.953 0 0 0 33.89 7.5144 50.572 50.572 0 0 0 25.474-5.3352 39.526 39.526 0 0 0 22.919-33.965 38.549 38.549 0 0 0-15.78-33.364"/>
  <path d="m582.6-84.469h-52.601v-26.601h27.127a2.104 2.104 0 0 0 2.4046-1.8034c2.7052-8.4913 5.4855-16.907 8.1907-25.399 0-0.60115 0-1.1272 0.52601-1.9537h-38.549v-24.347h39.826c2.104 0 4.8092 0.60115 6.237-0.45087 1.4277-1.052 1.6532-3.8323 2.3295-5.8612 2.4046-7.5144 4.8092-15.029 7.5144-22.543h-72.739a2.1792 2.1792 0 0 0-2.4798 1.8035l-11.272 34.942a8.5664 8.5664 0 0 0-0.52601 3.0809v93.103c0 3.6069 1.2023 4.7341 4.8092 4.8092h79.803c3.5318 0 4.7341-1.2774 4.7341-4.8092v-18.561c0-4.3584-0.97687-5.4104-5.3352-5.4104"/>
  <path d="m383.31-189.14v19.913c0 3.3063-1.4277 4.5838-4.8092 4.5838h-53.878v24.422h43.208c4.2832 0 5.4104 1.2023 5.4104 5.4855v19.011c0 3.3063-1.3526 4.6589-4.7341 4.6589h-43.884v26.526h49.82a19.162 19.162 0 0 1-0.60115 2.104c-2.7052 8.4161-5.4855 16.832-8.1156 25.248a2.1792 2.1792 0 0 1-2.4798 1.8035h-65.15c-3.3815 0-4.7341-1.3526-4.7341-4.6589q-0.22543-64.549-0.22543-129.1c0-3.2312 1.3526-4.5838 4.5838-4.5838h80.404c3.156 0 4.5086 1.4277 4.5838 4.5838"/>
 </g>
</svg>
