<svg width="984.17" height="797.23" version="1.1" viewBox="0 0 260.39 210.94" xmlns="http://www.w3.org/2000/svg">
 <g transform="matrix(1.4447 0 0 1.4447 -86.041 -232.62)" fill="#fff">
  <path d="m135.59 283.23v-3.98h-10.76v3.42h5.53l-5.7 8.19v4h11.05v-3.45h-5.8zm37.91 1.89c-0.23 0.28-0.56 0.41-1.33 0.48h-1.53v-2.93h1.19c0.09 0 0.19 0.02 0.28 0.02 0.61 0.02 0.87 0.09 1.14 0.26 0.68 0.39 0.83 1.46 0.25 2.17m3.35 4.08c-0.58-1.39-0.8-1.67-1.36-1.93 0.09-0.02 0.19-0.07 0.27-0.11 1.74-0.81 2.58-2.82 1.93-5.05-0.55-1.85-1.97-2.86-4.66-2.86h-6.32v15.61h4v-5.84h0.93c0.65 0 1.03 0.28 1.37 1.11l0.22 0.5 0.11 0.28 1.52 3.95h4.15l-1.94-5.12c-0.08-0.2-0.13-0.36-0.22-0.54m9.36-0.76 1.47-4.96 1.48 4.96zm3.69-9.19h-4.43l-5.32 15.61h4.02l0.9-2.86h5.13l0.88 2.86h4.25zm-76.93 9.19 1.47-4.96 1.48 4.96zm-0.73-9.19-5.32 15.61h4.01l0.91-2.86h5.12l0.87 2.86h4.27l-5.44-15.61zm-35.896 9.19 1.475-4.96 1.483 4.96zm-0.725-9.19-5.315 15.61h4.004l0.907-2.86h5.134l0.865 2.86h4.26l-5.422-15.61zm81.301 9.58h5.22v-3.33h-5.22v-2.83h6.06v-3.42h-10.06v15.61h10.6v-3.32h-6.6zm-13.82 0h5.23v-3.33h-5.23v-2.83h6.07v-3.42h-10.06v15.61h10.6v-3.32h-6.61zm-42.56 5.04c0 2.38-0.867 3.25-2.787 2.7-0.116-0.02-0.206-0.06-0.322-0.11l-0.947 3.39c0.214 0.11 0.428 0.19 0.659 0.28 4.467 1.67 7.397-0.81 7.397-5.14v-15.74h-4zm-3.57-2.5h-4.912v-12.12h-4.029v15.61h8.941z"/>
  <path d="m202.12 279.25h2.1l-1.43 6.71h8.18l1.39-6.71h2.08l-3.27 15.6h-2.08l1.51-7.14h-8.18l-1.51 7.14h-2.07z"/>
  <path d="m216.8 293.1h3.6c4.44 0 6.58-3.89 6.58-7.66 0-2.3-0.85-4.44-4.3-4.44h-3.33zm0.9-13.85h5.45c3.88 0 5.9 2.28 5.9 5.97 0 5.87-3.52 9.63-8.67 9.63h-5.99z"/>
 </g>
 <path d="m106.65 1.0169c-2.1772 1.551-3.9915 5.0646-3.976 10.427 0.0155 3.2966 0.91874 7.2496 3.4279 11.666-3.3584 4.6554-3.976 8.9403-2.5555 13.048 1.0809 3.1113 1.6444 3.922 2.1308 5.7903 1.2353 4.748-0.13125 10.446-3.8216 19.216-2.9878 7.1569-6.8713 14.646-6.8713 23.771 0.0154 2.0845 0.19301 4.115 0.48639 6.1146 0.34743-0.33969 1.0809-1.0423 1.9841-1.8838-0.44006-7.1492 2.3624-14.329 5.798-20.783 5.0106-9.419 5.6359-19.008 4.6631-24.258 3.5205 3.8139 9.4422 9.5117 12.909 15.364 1.1735 1.9687 1.8683 3.8371 2.0459 5.7286 0.16213 4.6245-1.2662 7.9367-4.0609 11.187-2.3702 2.7485-1.5518 5.165-1.4514 5.636 0.17758 0.78749 1.1426 3.7753 1.822 5.7286 2.6249-5.2114 9.8591-8.1451 13.14-12.476 0.7566 5.3348-3.204 10.407-6.1378 13.812-0.69485 0.76433-1.4592 1.5518-2.3238 2.3933-5.5588 5.3889-9.2028 9.0947-11.141 12.53-0.49412 0.76433-1.297 2.4705-1.6985 3.7907-0.56359 1.6445-1.2816 4.4392-1.8915 9.3727-0.45551 2.8952-0.97278 6.3694-1.1426 7.9135-0.38603 3.5205-1.4283 9.1025-5.6822 10.7-0.23161 0.0927-0.46322 0.1467-0.70257 0.20074v0.0154c-4.0532 0.9033-8.2146-2.5477-11.233-8.7473-0.62536 0.47094-1.3048 0.90329-2.0459 1.2353 4.0918 9.8127 10.26 14.321 15.657 14.321 4.0841 0 7.3191-2.0845 8.3536-8.1837 0.53272-3.0727 0.91102-6.4775 1.2507-9.7819 0.16212-1.5904 0.93418-10.577 2.3624-13.843 1.7525-3.6518 5.6128-7.1878 11.357-13.179 3.5514-3.7367 5.4815-6.8327 6.493-9.3341 3.343-6.2072-0.80293-20.976-1.6058-23.624-0.0232-0.10031-0.0386-0.12355-0.0849-0.12355-0.0849 0-0.10809 0.0231-0.16985 0.1312-8e-3 0.0231-0.0154 0.0463-0.0309 0.0618-1.4823 2.4474-4.1227 4.6786-6.5778 6.493 1.382-3.8448 1.0114-6.7632 0.46322-9.226v-0.01544c-0.0309-0.13899-0.0772-0.28566-0.10809-0.42463l-8e-3 0.01544c-2.4856-9.7973-12.368-18.521-16.822-23.547-5.7903-6.5161-3.8139-10.708-1.683-13.379 0.40146 0.60218 0.81837 1.2275 1.2816 1.8683 7.8749 10.832 22.713 28.017 30.488 44.377 1.9687 4.1382 3.4819 8.2069 4.3157 12.075 3.0573 16.954-8.6006 34.194-26.103 29.345h-8e-3c-0.11582-0.0309-0.23162-0.0618-0.33198-0.0927-0.47867 1.4978-0.92646 3.9065-1.3665 7.1878 2.6558 1.1349 5.5278 1.8298 8.315 1.9533 0.20846 8e-3 0.40919 0.0154 0.61764 0.0154 14.375 0.16212 25.632-10.755 23.555-33.653 0 0-0.8647-9.5271-5.7208-19.564-7.7823-17.626-22.165-35.066-30.997-46.33-2.8025-3.59-4.447-6.6783-5.273-9.3572-1.6599-5.2036-0.60993-9.2384 1.5209-11.008 0.44779-0.38757 1.0191-0.82378 1.5364-1.0901 0.31655-0.16985 0.20074-0.5412-0.0309-0.58136-0.0463 0-0.11582-0.01621-0.19301-0.01621-0.30882 0-0.91101 0.13665-2.1231 1.0176m-10.639 30.67c-2.347 0.06943-4.1845 2.0691-4.1227 4.447 0.0772 2.3933 2.0305 4.2771 4.3698 4.2076 1.2893-0.03854 2.3933-0.66397 3.1499-1.5672l0.0926-0.1081c0.50183 3.4433-1.1117 6.1919-4.8947 9.3727-3.8598 3.3043-12.893 7.6202-19.315 12.777-9.0477 7.265-11.181 15.171-11.73 21.579-0.2347 2.8566 0.17757 6.6088 0.94499 9.7201 0.96119 3.8988 2.3509 6.8944 2.3509 6.8944s0.0726 0.12355 0.18607 0.33969c-0.23471 4.2385 0.18529 11.635 2.5362 17.224 3.1584 7.211 8.8377 13.109 16.983 11.372 8.2223-1.961 9.1411-15.541 10.083-25.454 0.23933-1.6213 0.4864-1.8992 0.97278-2.3238 1.3279-1.1349 4.5242-4.1922 6.0528-5.5588 0.9419-0.84153 1.768-1.6831 2.3007-2.7716 0.6794-1.3048 0.32425-3.0496 0.32425-3.0496l-0.92646-6.5393c-0.23161 0.93417-1.3434 2.2312-2.9183 3.837-1.6367 1.6831-6.0066 5.4816-6.4002 5.8984-0.39375 0.40147-1.8066 1.4592-2.4242 6.4389-1.575 13.565-4.1999 19.965-8.9249 22.127-1.243 0.58675-2.6404 0.87241-4.1922 0.91102-8.6516-0.0849-10.93-10.793-10.89-16.653 8e-3 -0.34741 0.0162-0.70257 0.0324-1.0268 2.0119 2.7562 4.9766 5.4738 8.6439 4.9102 5.842-0.9033 4.0123-10.917 3.1631-13.233-0.81837-2.3316-3.082-9.2955-7.9861-8.9558-3.4649 0.23933-5.0808 4.3698-5.8158 7.8672-0.6709-2.7639-1.026-6.0066-0.80834-8.5312 0.50956-6.0606 2.5531-13.619 11.229-21.069 6.1764-5.2962 13.186-9.0793 17.078-12.206 2.4783-1.9764 4.0223-4.1999 4.887-6.2845-0.23933 2.0227-0.73345 4.2076-1.6908 6.7632-3.59 9.612-14.507 25.477-14.653 47.905 0 6.8866 0.6408 12.847 1.7139 17.935 0.60219-0.40147 1.1503-0.94189 1.6831-1.5904-0.76432-3.644-1.2044-7.6819-1.2044-11.974 0-22.381 10.839-38.232 14.368-47.82 1.8529-5.0492 1.8992-8.7319 1.8992-12.368 0-4.4547-0.97278-9.1102-1.8915-10.924-0.98822-1.7371-2.208-2.5169-4.0532-2.5169zm-25.681 68.087c0.67091-2.1463 1.8745-4.0841 3.983-5.2962 3.4487-1.6367 4.7982 2.5555 4.7982 2.5555-0.24243 2.8334-2.3586 4.3312-4.7257 4.3312-1.3812 0-2.8596-0.52499-4.0555-1.5904m20.177-60.676c-2.3393 0.06943-4.1922 2.0614-4.1073 4.4547 0.054 2.3779 2.015 4.2462 4.362 4.1768 2.347-0.06177 4.1922-2.0691 4.115-4.4392-0.0695-2.3393-1.9533-4.1922-4.2308-4.1922zm25.377 25.439c-0.40918 0.44008-2.3547 2.6095-4.2231 4.694-1.6753 1.8452-3.2657 3.6131-3.6132 4.0069-0.80294 0.90329-1.2198 1.7911-1.1117 2.2698l0.47866 2.4165c0.13124-0.4478 0.64081-1.2739 1.2044-1.907 0.40146-0.44778 2.347-2.6172 4.2154-4.6786 1.6676-1.8606 3.258-3.6209 3.6132-4.0301 0.81065-0.88013 1.2198-1.7834 1.1195-2.2466l-0.49411-2.4397c-0.12354 0.4555-0.62536 1.2739-1.189 1.9147m-33.615 3.6054s-3.4163 2.4705-4.7897 5.7208c-0.83998 1.9996-0.78362 4.1536-0.3065 5.1958 0.48407 1.0423 1.6236 2.0382 3.1021 0.84152 1.0369-0.84152 1.4846-2.015 1.7085-3.0187 0.13896-0.59447 0.19301-0.97278 0.19301-1.2661 0-0.36286-0.12353-0.67941-0.46322-0.58677-0.98823 0.33198-0.40147 1.6831-1.104 2.3316-0.53658 0.33198-1.9262 0.14668-2.2011-1.243-0.27408-1.3897 0.78363-3.1808 1.7371-4.3698 0.9581-1.1967 2.6489-2.7485 2.6489-2.7485s1.2044-1.0036 0.7952-1.5055c-0.0154-0.0309-0.0695-0.0463-0.11581-0.0463-0.34742 0-1.2044 0.69484-1.2044 0.69484m26.412 26.033 5.4738 2.6249 3.0187-6.5392-5.4583-2.6249zm-10.384 7.0102c2.3084 5.4892 5.8135 10.26 9.8514 13.766 0.4169-2.8797 0.8724-4.9025 1.297-6.354-4.115-2.9878-7.0489-6.215-8.9403-9.4499zm28.318 4.5782 5.4738 2.6404 3.0187-6.5316-5.4583-2.6249zm-29.747 13.696 4.6554 3.9065 4.5396-5.5355-4.6631-3.9297zm-1.0423 9.7201 4.6631 3.9065 4.5319-5.5587-4.6554-3.9143zm21.926-4.1073c-0.21617 0.10032-0.28567 0.46324-0.14669 0.95734 0.14669 0.48639 0.95733 2.5941 0.95733 2.5941 0.57904 1.5827 1.5441 3.4202 2.8488 4.362 1.3974 0.99594 2.1154 0.64852 2.3933 0.54043 0.20845-0.11576 1.104-0.66397 0.78748-2.1154-0.34742-1.5209-0.53271-1.9378-0.81065-2.4937-0.27021-0.55588-0.6408-0.90331-0.86469-0.81838-0.12354 0.0231-0.0232 0.53271-0.0232 0.84926-8e-3 0.54815-0.20073 0.97278-0.66396 1.1812-0.40146 0.17757-1.4051 0.54042-2.1694-0.84925-0.64081-1.1118-1.1967-2.5864-1.4283-3.1885-0.18529-0.47097-0.47866-1.0423-0.77204-1.0423-0.0309 0-0.054 0.0154-0.10809 0.0231" fill="#d4a00e" stroke-width=".77205"/>
 <path d="m-0.0019096 153.51v57.427h260.4v-57.427zm5.5219 5.5218h249.36v46.383h-249.36z" fill="#fff" stop-color="#000000" stroke-miterlimit="10" stroke-opacity=".39216" stroke-width=".10015" style="-inkscape-stroke:none;paint-order:stroke fill markers"/>
</svg>
