<svg width="567.73" height="800" version="1.1" viewBox="0 0 567.73 800" xmlns="http://www.w3.org/2000/svg">
 <defs>
  <linearGradient id="linearGradient-1" x1="94.782" x2="91.444" y1="20.046" y2="20.95" gradientTransform="scale(.65286 1.5317)" gradientUnits="userSpaceOnUse">
   <stop stop-color="#1B1B1B" offset=".14"/>
   <stop stop-color="#5B5B5B" offset=".44"/>
   <stop stop-color="#8B8B8B" offset=".69"/>
   <stop stop-color="#A9A9A9" offset=".89"/>
   <stop stop-color="#B4B4B4" offset="1"/>
  </linearGradient>
  <linearGradient id="linearGradient-2" x1="51.194" x2="44.058" y1="96.835" y2="114.28" gradientTransform="scale(1.0274 .97333)" gradientUnits="userSpaceOnUse">
   <stop stop-color="#1E6576" offset="0"/>
   <stop stop-color="#2B7A89" offset=".43"/>
   <stop stop-color="#71C3BB" offset="1"/>
  </linearGradient>
  <linearGradient id="linearGradient-3" x1="26.097" x2="12.623" y1="127.53" y2="126.64" gradientTransform="scale(2.1213 .4714)" gradientUnits="userSpaceOnUse">
   <stop stop-color="#D89D70" offset="0"/>
   <stop stop-color="#FFDE95" offset="1"/>
  </linearGradient>
  <linearGradient id="linearGradient-4" x1="65.352" x2="60.765" y1="35.128" y2="34.226" gradientTransform="scale(1.0766 .92884)" gradientUnits="userSpaceOnUse">
   <stop stop-color="#343434" offset=".14"/>
   <stop stop-color="#5C5C5C" offset=".35"/>
   <stop stop-color="#8B8B8B" offset=".65"/>
   <stop stop-color="#A9A9A9" offset=".87"/>
   <stop stop-color="#B4B4B4" offset="1"/>
  </linearGradient>
  <linearGradient id="linearGradient-5" x1="81.239" x2="90.05" y1="43.009" y2="35.596" gradientTransform="scale(1.0675 .93678)" gradientUnits="userSpaceOnUse">
   <stop stop-color="#1B1B1B" offset=".14"/>
   <stop stop-color="#5B5B5B" offset=".44"/>
   <stop stop-color="#8B8B8B" offset=".69"/>
   <stop stop-color="#A9A9A9" offset=".89"/>
   <stop stop-color="#B4B4B4" offset="1"/>
  </linearGradient>
  <linearGradient id="linearGradient-6" x1="77.298" x2="65.378" y1="44.466" y2="34.645" gradientTransform="scale(.83666 1.1952)" gradientUnits="userSpaceOnUse">
   <stop stop-color="#1B1B1B" offset=".14"/>
   <stop stop-color="#5B5B5B" offset=".44"/>
   <stop stop-color="#8B8B8B" offset=".69"/>
   <stop stop-color="#A9A9A9" offset=".89"/>
   <stop stop-color="#B4B4B4" offset="1"/>
  </linearGradient>
  <linearGradient id="linearGradient-7" x1="70.169" x2="85.398" y1="57.103" y2="39.939" gradientTransform="scale(.95071 1.0518)" gradientUnits="userSpaceOnUse">
   <stop stop-color="#1B1B1B" offset=".14"/>
   <stop stop-color="#5B5B5B" offset=".44"/>
   <stop stop-color="#8B8B8B" offset=".69"/>
   <stop stop-color="#A9A9A9" offset=".89"/>
   <stop stop-color="#B4B4B4" offset="1"/>
  </linearGradient>
  <linearGradient id="linearGradient-8" x1="73.389" x2="89.778" y1="72.889" y2="83.39" gradientTransform="scale(1.0847 .92195)" gradientUnits="userSpaceOnUse">
   <stop stop-color="#1B1B1B" offset=".14"/>
   <stop stop-color="#5B5B5B" offset=".44"/>
   <stop stop-color="#8B8B8B" offset=".69"/>
   <stop stop-color="#A9A9A9" offset=".89"/>
   <stop stop-color="#B4B4B4" offset="1"/>
  </linearGradient>
  <linearGradient id="linearGradient-9" x1="88.338" x2="85.729" y1="68.433" y2="81.106" gradientTransform="scale(.97014 1.0308)" gradientUnits="userSpaceOnUse">
   <stop stop-color="#1B1B1B" offset=".14"/>
   <stop stop-color="#5B5B5B" offset=".44"/>
   <stop stop-color="#8B8B8B" offset=".69"/>
   <stop stop-color="#A9A9A9" offset=".89"/>
   <stop stop-color="#B4B4B4" offset="1"/>
  </linearGradient>
  <linearGradient id="linearGradient-10" x1="43.426" x2="23.523" y1="78.221" y2="73.573" gradientTransform="scale(1.4616 .68417)" gradientUnits="userSpaceOnUse">
   <stop stop-color="#1B1B1B" offset=".14"/>
   <stop stop-color="#5B5B5B" offset=".44"/>
   <stop stop-color="#8B8B8B" offset=".69"/>
   <stop stop-color="#A9A9A9" offset=".89"/>
   <stop stop-color="#B4B4B4" offset="1"/>
  </linearGradient>
  <linearGradient id="linearGradient-11" x1="41.303" x2="28.577" y1="65.995" y2="71.616" gradientTransform="scale(1.2517 .79894)" gradientUnits="userSpaceOnUse">
   <stop stop-color="#1B1B1B" offset=".14"/>
   <stop stop-color="#5B5B5B" offset=".44"/>
   <stop stop-color="#8B8B8B" offset=".69"/>
   <stop stop-color="#A9A9A9" offset=".89"/>
   <stop stop-color="#B4B4B4" offset="1"/>
  </linearGradient>
  <linearGradient id="linearGradient-12" x1="24.91" x2="13.061" y1="105.48" y2="108.07" gradientTransform="scale(1.3817 .72375)" gradientUnits="userSpaceOnUse">
   <stop stop-color="#1B1B1B" offset=".14"/>
   <stop stop-color="#5B5B5B" offset=".44"/>
   <stop stop-color="#8B8B8B" offset=".69"/>
   <stop stop-color="#A9A9A9" offset=".89"/>
   <stop stop-color="#B4B4B4" offset="1"/>
  </linearGradient>
  <linearGradient id="linearGradient-13" x1="29.668" x2="9.1047" y1="77.976" y2="76.553" gradientTransform="scale(1.1456 .87287)" gradientUnits="userSpaceOnUse">
   <stop stop-color="#1B1B1B" offset=".14"/>
   <stop stop-color="#5B5B5B" offset=".44"/>
   <stop stop-color="#8B8B8B" offset=".69"/>
   <stop stop-color="#A9A9A9" offset=".89"/>
   <stop stop-color="#B4B4B4" offset="1"/>
  </linearGradient>
  <linearGradient id="linearGradient-14" x1="8.3666" x2="8.3666" y1="104.32" y2="97.654" gradientTransform="scale(1.6733 .59761)" gradientUnits="userSpaceOnUse">
   <stop stop-color="#1B1B1B" offset=".14"/>
   <stop stop-color="#5B5B5B" offset=".44"/>
   <stop stop-color="#8B8B8B" offset=".69"/>
   <stop stop-color="#A9A9A9" offset=".89"/>
   <stop stop-color="#B4B4B4" offset="1"/>
  </linearGradient>
  <linearGradient id="linearGradient-15" x1="41.06" x2="31.788" y1="102.34" y2="96.561" gradientTransform="scale(1.1271 .88726)" gradientUnits="userSpaceOnUse">
   <stop stop-color="#1B1B1B" offset=".14"/>
   <stop stop-color="#5B5B5B" offset=".44"/>
   <stop stop-color="#8B8B8B" offset=".69"/>
   <stop stop-color="#A9A9A9" offset=".89"/>
   <stop stop-color="#B4B4B4" offset="1"/>
  </linearGradient>
  <linearGradient id="linearGradient-16" x1="106.83" x2="105.05" y1="55.719" y2="68" gradientTransform="scale(.66667 1.5)" gradientUnits="userSpaceOnUse">
   <stop stop-color="#1B1B1B" offset=".14"/>
   <stop stop-color="#5B5B5B" offset=".44"/>
   <stop stop-color="#8B8B8B" offset=".69"/>
   <stop stop-color="#A9A9A9" offset=".89"/>
   <stop stop-color="#B4B4B4" offset="1"/>
  </linearGradient>
  <linearGradient id="linearGradient-17" x1="38.24" x2="46.512" y1="99.394" y2="109.57" gradientTransform="scale(1.0274 .97333)" gradientUnits="userSpaceOnUse">
   <stop stop-color="#1B1B1B" offset=".14"/>
   <stop stop-color="#5B5B5B" offset=".44"/>
   <stop stop-color="#8B8B8B" offset=".69"/>
   <stop stop-color="#A9A9A9" offset=".89"/>
   <stop stop-color="#B4B4B4" offset="1"/>
  </linearGradient>
  <linearGradient id="linearGradient-18" x1="55.812" x2="34.986" y1="85.576" y2="101.7" gradientTransform="scale(1.1094 .90139)" gradientUnits="userSpaceOnUse">
   <stop stop-color="#1B1B1B" offset=".14"/>
   <stop stop-color="#5B5B5B" offset=".44"/>
   <stop stop-color="#8B8B8B" offset=".69"/>
   <stop stop-color="#A9A9A9" offset=".89"/>
   <stop stop-color="#B4B4B4" offset="1"/>
  </linearGradient>
  <linearGradient id="linearGradient-19" x1="62.705" x2="56.138" y1="68.868" y2="78.973" gradientTransform="scale(.7746 1.291)" gradientUnits="userSpaceOnUse">
   <stop stop-color="#1B1B1B" offset=".14"/>
   <stop stop-color="#5B5B5B" offset=".44"/>
   <stop stop-color="#8B8B8B" offset=".69"/>
   <stop stop-color="#A9A9A9" offset=".89"/>
   <stop stop-color="#B4B4B4" offset="1"/>
  </linearGradient>
  <linearGradient id="linearGradient-20" x1="35.734" x2="27.346" y1="102.9" y2="110.56" gradientTransform="scale(1.0541 .94868)" gradientUnits="userSpaceOnUse">
   <stop stop-color="#1B1B1B" offset=".14"/>
   <stop stop-color="#5B5B5B" offset=".44"/>
   <stop stop-color="#8B8B8B" offset=".69"/>
   <stop stop-color="#A9A9A9" offset=".89"/>
   <stop stop-color="#B4B4B4" offset="1"/>
  </linearGradient>
  <linearGradient id="linearGradient-21" x1="46.409" x2="42.059" y1="79.505" y2="87.365" gradientTransform="scale(.7746 1.291)" gradientUnits="userSpaceOnUse">
   <stop stop-color="#1B1B1B" offset=".14"/>
   <stop stop-color="#5B5B5B" offset=".44"/>
   <stop stop-color="#8B8B8B" offset=".69"/>
   <stop stop-color="#A9A9A9" offset=".89"/>
   <stop stop-color="#B4B4B4" offset="1"/>
  </linearGradient>
  <linearGradient id="linearGradient-22" x1="57.622" x2="76.33" y1="102.9" y2="102.9" gradientTransform="scale(1.3363 .74833)" gradientUnits="userSpaceOnUse">
   <stop stop-color="#fff" stop-opacity="0" offset="0"/>
   <stop stop-color="#929292" stop-opacity=".61" offset=".32"/>
   <stop stop-color="#4E4D4D" offset=".54"/>
   <stop stop-color="#565656" stop-opacity=".95" offset=".65"/>
   <stop stop-color="#707070" stop-opacity=".81" offset=".75"/>
   <stop stop-color="#9C9B9B" stop-opacity=".56" offset=".85"/>
   <stop stop-color="#D8D8D8" stop-opacity=".22" offset=".95"/>
   <stop stop-color="#fff" stop-opacity="0" offset="1"/>
  </linearGradient>
  <linearGradient id="linearGradient-23" x1="21.291" x2="23.219" y1="35.715" y2="46.025" gradientTransform="scale(.56408 1.7728)" gradientUnits="userSpaceOnUse">
   <stop stop-color="#fff" stop-opacity="0" offset="0"/>
   <stop stop-color="#939393" stop-opacity=".71" offset=".33"/>
   <stop stop-color="#676767" offset=".48"/>
   <stop stop-color="#6D6D6D" stop-opacity=".96" offset=".59"/>
   <stop stop-color="#7D7D7D" stop-opacity=".85" offset=".69"/>
   <stop stop-color="#999" stop-opacity=".67" offset=".79"/>
   <stop stop-color="#C1C1C1" stop-opacity=".41" offset=".89"/>
   <stop stop-color="#F3F3F3" stop-opacity=".08" offset=".98"/>
   <stop stop-color="#fff" stop-opacity="0" offset="1"/>
  </linearGradient>
  <linearGradient id="linearGradient-24" x1="94.221" x2="94.221" y1="46.546" y2="88.229" gradientTransform="scale(.83319 1.2002)" gradientUnits="userSpaceOnUse">
   <stop stop-color="#fff" offset="0"/>
   <stop stop-color="#E3E3E2" offset="1"/>
  </linearGradient>
  <linearGradient id="linearGradient-25" x1="44.327" x2="44.327" y1="51.431" y2="102.66" gradientTransform="scale(.91361 1.0946)" gradientUnits="userSpaceOnUse">
   <stop stop-color="#fff" offset="0"/>
   <stop stop-color="#E3E3E2" offset="1"/>
  </linearGradient>
  <linearGradient id="linearGradient-26" x1="30.443" x2="30.443" y1="44.641" y2="96.177" gradientTransform="scale(.91985 1.0871)" gradientUnits="userSpaceOnUse">
   <stop stop-color="#fff" offset="0"/>
   <stop stop-color="#E3E3E2" offset="1"/>
  </linearGradient>
  <linearGradient id="linearGradient-27" x1="44.691" x2="44.691" y1="43.492" y2="86.227" gradientTransform="scale(.81673 1.2244)" gradientUnits="userSpaceOnUse">
   <stop stop-color="#fff" offset="0"/>
   <stop stop-color="#E3E3E2" offset="1"/>
  </linearGradient>
  <linearGradient id="linearGradient-28" x1="37.479" x2="37.479" y1="40.413" y2="76.497" gradientTransform="scale(.72022 1.3885)" gradientUnits="userSpaceOnUse">
   <stop stop-color="#fff" offset="0"/>
   <stop stop-color="#E3E3E2" offset="1"/>
  </linearGradient>
 </defs>
 <g fill="#fff" fill-rule="evenodd">
  <path d="m350.18 687.24h19.287v-19.277h-19.287z" stroke-width="4.6921"/>
  <path d="m445.12 762.87h14.835v-102.33h-14.835z" stroke-width="4.6921"/>
  <path d="m96.495 594.95v9.3842h373.85v-9.3842z" color="#000000" stroke-width="4.6921"/>
  <path d="m135.29 700.6-11.126 15.321c3.3484 6.7477 6.2707 13.697 8.749 20.806 2.2824 6.9037 3.7088 12.294 4.1843 16.172-2.3461 5.8635-7.4814 11.822-15.406 17.874-7.9882 5.958-18.639 11.349-32.238 15.984l-0.38039 0.85021 12.458 12.39c9.2806-3.8992 17.958-9.0902 25.772-15.416 7.0372-5.8625 12.268-11.916 15.881-18.252 3.6137-6.3364 5.2304-12.484 5.2304-18.536-0.13977-6.2644-0.87204-12.501-2.1872-18.631-1.5216-7.2821-4.9451-16.834-10.175-28.561z"/>
  <path d="m270.9 776.26-9.7365 9.6485 9.5399 9.6374h0.0188l9.7272-9.6374z" stroke-width="4.6921"/>
  <path d="m172.15 657.13v105.78h247.98l5.6986-14.105-0.37991-0.38006c-2.9443-0.57277-6.0785-2.3824-9.4977-5.3375-3.4192-2.9532-7.5981-7.5275-12.727-13.341-5.1287-5.8121-10.163-11.149-14.057-14.865-3.8931-3.8004-8.2677-7.0671-13.012-9.7211-9.5357-5.6024-21.377-5.4557-30.772 0.38194l-3.2292 13.722 0.94976 0.76331c2.3868-1.4218 4.9378-2.5415 7.5981-3.3354 2.3773-0.68899 4.8391-1.0416 7.3132-1.0492 3.8788 0.0953 7.6694 1.1769 11.017 3.1448 3.8788 2.1613 7.4823 4.7857 10.732 7.8142 3.4192 3.0505 7.5032 7.0529 12.347 11.912 2.3744 2.5739 5.6986 5.814 10.068 9.9117h-123.75v-48.221l-1.2347-0.57084-13.772 4.0024v44.789h-76.171v-94.725l-1.2347-0.57083z"/>
  <path d="m447.38 619.68c-2.786 1.4923-5.1634 3.6109-6.936 6.1789-1.8419 2.788-2.7811 6.0497-2.6973 9.3619 0.0465 1.732 0.4046 3.4433 1.0606 5.0555 0.8275 1.7348 1.8621 3.3684 3.0817 4.8682-2.1116 0.55611-4.1722 1.276-6.1653 2.1532l-3.9496 1.6852 2.6983 7.1151c10.283-3.3581 21.037-5.1584 31.885-5.3363l2.5046-8.9875-0.38522-0.37443c-3.757 0-8.2846 0.18722-13.583 0.65535-2.0798-0.10464-4.0864-0.7864-5.78-1.966-1.4036-0.99421-2.5297-2.3133-3.2753-3.8384-0.6464-1.2423-0.84966-2.6588-0.578-4.0256 1.9912-3.5575 5.3628-5.3363 10.115-5.3363 3.0961 0.0328 6.1489 0.704 8.9599 1.966l0.57703-0.56169-1.156-9.1748-3.468-1.0298c-1.4768-0.38194-2.9998-0.57202-4.5276-0.56169-2.9314 0.0516-5.806 0.79014-8.381 2.1532"/>
 </g>
 <g transform="matrix(4.6921 0 0 4.6921 2.3422 2.346)">
  <polygon points="74 50.175 63.915 23.86 48.921 1 48 6.6365 53.601 32.026 68.996 62" fill="url(#linearGradient-1)"/>
  <polygon points="56 107.2 50.21 93 37 111" fill="url(#linearGradient-2)"/>
  <polygon points="38 58 54.54 62 56 61.816 44.895 59.216" fill="url(#linearGradient-3)"/>
  <polygon points="70.929 14 69 20.05 109.61 58 120 51.06" fill="url(#linearGradient-4)"/>
  <polygon points="101.39 28.51 71 15 72.618 23.538 74.083 25.756 97.609 47.306 109.41 58 120 51.009 110.19 40.282" fill="url(#linearGradient-5)"/>
  <polygon points="67.349 62 69 61.741 53.529 32 48 45.281" fill="url(#linearGradient-6)"/>
  <polygon points="82.923 68.404 103 70 56.456 18 56 18.228 67.684 62.948" fill="url(#linearGradient-7)"/>
  <polygon points="103 69.57 92.438 85 83 68" fill="url(#linearGradient-8)"/>
  <polygon points="76 73.635 82.45 68 92 85 76 75.076" fill="url(#linearGradient-9)"/>
  <polygon points="20 42.371 67 63 47.927 46.028 20.908 41" fill="url(#linearGradient-10)"/>
  <polygon points="20 42 23.657 46.205 43.956 72 57.645 67.715 55.137 59.369 67 62.364" fill="url(#linearGradient-11)"/>
  <polygon points="29.077 74.32 30 73 9 75.2 16.846 84" fill="url(#linearGradient-12)"/>
  <polygon points="12 59 9 75 30 72.647 21.231 59.235" fill="url(#linearGradient-13)"/>
  <polygon points="7 55 11.516 59.762 21 60 17.838 55.476" fill="url(#linearGradient-14)"/>
  <polygon points="17.691 105 17 104.55 43.726 72.06 56.628 68 64 73.189" fill="url(#linearGradient-15)"/>
  <polygon points="75.972 118.55 62 89.566 68.31 83 78 90.925 76.873 119" fill="url(#linearGradient-16)"/>
  <polygon points="56 107 50.481 93 37 110.85 37.367 111" fill="url(#linearGradient-17)"/>
  <polygon points="49.107 90.47 65 73.757 64.494 73 33 94.046 37.95 97.044 40.562 99" fill="url(#linearGradient-18)"/>
  <polygon points="39 105.02 39.143 108 50.501 93.507 51 88 39.676 98.955" fill="url(#linearGradient-19)"/>
  <polygon points="25 103.34 26.71 104.15 32.963 107 35 105.17 32.657 98" fill="url(#linearGradient-20)"/>
  <polygon points="34.479 105 32.477 106.92 31 115 37 106.57" fill="url(#linearGradient-21)"/>
  <path d="m91.538 84c-0.10993 0-0.21745-0.03117-0.30902-0.08998l-14.229-9.0476 0.05727-0.08537 14.229 9.0488c0.20626 0.1319 0.48368 0.08072 0.62521-0.11536l10.002-13.71 0.08591 0.058833-10.002 13.71c-0.10519 0.14457-0.27654 0.23072-0.45936 0.23072z" fill="url(#linearGradient-22)"/>
  <path d="m15.919 83-6.7246-7.6762c-0.16046-0.18257-0.2264-0.42755-0.17876-0.66417l2.7275-13.66 0.10579 0.02031-2.7275 13.66c-0.041764 0.20505 0.015235 0.41756 0.15443 0.57577l6.7246 7.675z" fill="url(#linearGradient-23)"/>
  <path d="m63.322 0.49095c-0.21792 0.46705-7.3106 16.221-7.5454 16.753-0.25163 0.5662-0.25163 0.93172 0.25164 1.5803 0.40334 0.53275 45.764 50.123 46.098 50.539 0.20107 0.2389 0.25164 0.43241 0.0169 0.78241-0.18421 0.26518-9.7848 13.916-10.104 14.215-0.28414 0.26638-0.4527 0.25085-0.84279 0.01792-0.53702-0.29982-13.878-9.0783-14.207-9.273-0.40213-0.2389-0.58634-0.51603-0.1204-1.0141 0.20227-0.21621 7.0602-6.4886 7.295-6.7215 0.35157-0.34999 0.31785-0.49931 0.16856-1.1145-0.10114-0.39897-3.4555-11.596-3.5891-11.945-0.25164-0.76449-0.58634-0.83616-1.0908-0.74896-0.33471 0.05017-23.827 4.7589-24.817 5.0074-1.1558 0.2831-1.0728 0.54948-1.0222 1.5803 0.01686 0.28429 0.7537 11.496 0.77056 11.762 0.03492 0.44914 0.13485 0.68207 0.602 0.78241 0.28414 0.05017 7.0084 1.2638 7.2938 1.314 0.28535 0.05017 0.3022 0.19948 0.08428 0.39897-0.26849 0.24965-14.405 11.213-14.638 11.412-0.33591 0.2831-0.43705 0.49931-0.2408 1.0655 0.08428 0.23293 7.2878 18.461 7.4046 18.754 0.40334 1.0321 0.53698 1.314-0.36842 1.5146-0.28535 0.0669-16.76 3.4856-17.229 3.5835-0.55384 0.11945-0.602 0.58292-0.33471 1.0309 0.21792 0.35118 4.6101 7.0882 4.8292 7.3713 0.65377 0.8481 0.78741 0.89827 1.7602 0.8481 0.33471-0.0167 31.813-0.15409 32.281-0.2389 1.0402-0.19948 0.67062-0.86483 0.3022-1.5314-1.1233-2.0617-13.67-27.115-13.856-27.666-0.18542-0.55067 0-0.78121 0.18542-0.96517s4.828-4.8402 5.1302-5.1364c0.53698-0.49931 0.78741-0.68207 1.7109 0.06689 0.25163 0.19948 27.426 22.328 27.933 22.677 0.77056 0.53275 1.157 0.58292 1.7939-0.11945 0.28414-0.31655 20.308-37.508 20.527-37.883 0.21913-0.37508 0.41899-0.73224 0-1.1479-1.0836-0.99025-51.131-47.919-50.771-47.463-0.18421-0.2389-0.28535-0.41569-0.23478-0.74896s0.80427-2.2791 1.5423-4.2596c0.25163-0.68087 0.58634-0.54828 1.0908-0.19829 0.25043 0.16604 46.887 35.195 47.239 35.462 1.1414 0.8481 1.0571-0.06689 0.92346-0.40016s-10.777-24.095-10.89-24.379c-0.16856-0.38224-0.28535-0.76449-0.85604-1.1802-0.57069-0.41569-42.598-24.267-43.286-24.666-0.17886-0.12056-0.38639-0.19262-0.602-0.20904-0.27571 0-0.43946 0.1959-0.58875 0.49095" fill="url(#linearGradient-24)" stroke="#e3e3e2"/>
  <path d="m36.999 49.122c-0.23811 0.22371-0.2894 0.63652-0.32237 0.94675l-0.64108 7.1093c-0.03419 0.30899-0.08426 0.68843 0.06838 0.96406 0.15264 0.27562 0.42494 0.30899 1.0367 0.49439 0.35778 0.1236 6.2081 1.273 6.5646 1.325 0.66428 0.10382 0.73266 0.0173 0.76563-0.49439 0.03419-0.41281 0.51042-8.0906 0.51042-8.5035 0-0.72304 0.16973-0.80832-0.52751-0.96406-0.61055-0.13719-5.5096-0.80956-5.9516-0.86518-0.3637-0.06386-0.73058-0.10759-1.099-0.13101-0.1411-0.0157-0.28266 0.02512-0.39441 0.11371" fill="url(#linearGradient-25)" stroke="#e3e3e2"/>
  <path d="m24.069 103.1c-0.15537 0.13946-0.25978 0.31254-0.31074 0.81559-0.05221 0.32872-0.69358 5.6879-0.74578 6.0528-0.05221 0.36484 0.05096 0.53667 0.36295 0.71099 0.31199 0.15565 6.6735 4.0829 6.9346 4.1863 0.7607 0.32997 0.89867 0.0349 1.0553-0.57154 0.13921-0.55534 1.5661-6.9456 1.6159-7.2046 0.03334-0.16199 0.02129-0.33006-0.0348-0.48562-0.04103-0.11423-0.12943-0.20505-0.24238-0.24903l-8.1813-3.3234c-0.05483-0.0188-0.11235-0.0284-0.17029-0.0288-0.10176-2e-3 -0.20086 0.0328-0.27967 0.0973" fill="url(#linearGradient-26)" stroke="#e3e3e2"/>
  <path d="m32.886 94.328s-0.85334 8.5839-0.87016 8.8096c-0.05048 0.57383 0 0.72081 0.45191 1.016 0.18389 0.11758 6.7786 3.6193 6.9805 3.7169 0.65262 0.3116 0.73555 0.0165 0.78603-0.42567 0.03365-0.29397 0.72113-7.7608 0.73676-8.0241 0.04327-0.41861 0.03966-0.67142-0.02163-0.85133-0.08053-0.23517-0.26081-0.34688-0.56368-0.5409-0.26802-0.16345-6.7306-3.8651-6.9301-3.9792-0.05517-0.0334-0.11902-0.05055-0.18389-0.04939-0.19646-6e-3 -0.36455 0.1369-0.3858 0.32807" fill="url(#linearGradient-27)" stroke="#e3e3e2"/>
  <path d="m47.802 1.0669c-0.38524 0.11949-7.204 2.1615-7.5844 2.3456-0.95588 0.41582-0.90531 0.64882-0.93902 1.7135-0.01685 0.31664 0.63083 23.715 0.60194 24.598-0.03371 0.69781-0.23355 0.93201-1.24 0.8651-0.50322-0.033457-29.062-3.1784-29.582-3.262-0.62-0.099175-0.88846-0.016728-1.3411 0.63209-0.20225 0.29992-3.6333 6.3078-3.8343 6.6567-0.33588 0.56637-0.31903 0.8161 0.13363 1.6645 0.16854 0.31664 24.814 35.48 25.066 35.846 0.46951 0.71693 0.63805 1.0156-0.26846 1.6979-0.06862 0.05258-8.4861 6.8264-11.118 9.4802-0.18929 0.19105-0.45462 0.28828-0.72358 0.26517s-0.5135-0.16416-0.6669-0.38466l-6.6382-7.6472c-0.13864-0.19754-0.19075-0.44238-0.14446-0.67869 0.4358-2.2308 2.7039-13.845 2.7954-14.327 0.08427-0.43255 0.03251-0.76592-0.26846-1.0324-0.24078-0.21627-4.5747-3.9598-4.795-4.1271-0.36959-0.26646-0.65491-0.11949-0.82225 0.43374-0.077048 0.22464-6.2469 21.925-6.3468 22.257-0.20105 0.66555-0.033709 0.99892 0.31782 1.3311 0.52007 0.49946 16.149 25.858 16.459 26.177 0.51165 0.53292 0.85475 0.58191 1.2737 0.0657 0.40209-0.47795 26.143-32.023 26.395-32.336 0.77168-0.94874 0.77168-1.2487 0-2.2297-0.45266-0.58308-22.769-27.192-23.255-27.707-0.58629-0.61536-0.16734-1.0157 0.48155-0.89855 0.48155 0.08245 23.957 3.8774 24.92 4.0112 2.1128 0.29872 2.1959-0.53411 2.6485-1.582 0.08427-0.18282 3.8729-9.2006 4.2593-10.151 0.50202-1.1817 0.45266-1.2654 0.33588-2.048-0.20225-1.2642-5.1478-30.52-5.2826-31.186-0.083068-0.37639-0.22392-0.51141-0.47192-0.51141-0.1226 0.00502-0.24401 0.02591-0.36116 0.062134" fill="url(#linearGradient-28)" stroke="#e3e3e2"/>
 </g>
</svg>
