<svg width="193.36mm" height="40.562mm" version="1.1" viewBox="0 0 685.12 143.72" xmlns="http://www.w3.org/2000/svg">
 <g transform="translate(213.99 -480.5)">
  <g transform="matrix(1.25 0 0 1.25 -217.69 474.19)" fill="#d70202">
   <path d="m395.93 5.05 132.63 0.05 22.5 114.93h-132.92l-22.21-114.93"/>
   <path d="m492.99 52.99c-2.72-5.96 3.09-6.63 6.89-6.07l0.74 0.33c1.67 2.08 3.82 3.73 6.08 5.12 0.43 1.22 0.86 2.44 1.23 3.69 0.01 3.28 0.1 6.58 0.08 9.88l-0.17 0.81c-1.86 2.23-3.66 4.52-5.19 6.99-0.58 1.66-2.45 1.28-3.84 1.46-1.92-0.21-3.85-0.41-5.72-0.91-0.02-0.56-0.07-1.67-0.09-2.22 0-6.36-0.08-12.72-0.01-19.08z"/>
  </g>
  <g transform="matrix(.99946 0 0 .99946 314.99 518.38)" fill="#fff">
   <path d="m-1.0681e-4 0h15.651v24.779h19.78v-24.779h15.843v65.424h-15.555v-28.255h-19.972v28.255h-15.747v-65.424"/>
   <path d="m82.331 53.74h4.8555c1.6888 1e-5 3.3425-0.11881 4.961-0.35645 1.6888-0.23762 3.1666-0.802 4.4333-1.6931 1.337-0.95051 2.3925-2.3169 3.1666-4.0991 0.84438-1.8416 1.2666-4.3367 1.2666-7.4852-5e-5 -1.1287 0.0352-2.4654 0.10554-4.01 0.0704-1.5445 0.10554-2.8812 0.10554-4.01-5e-5 -3.9209-0.14078-7.2479-0.42222-9.9802-0.28152-2.7327-1.0908-4.9011-2.4278-6.5051-0.8445-1.0099-1.7241-1.7822-2.6389-2.3169-0.91487-0.53462-2.0056-0.92076-3.2722-1.1584-1.1963-0.29699-2.6389-0.44551-4.3278-0.44556-1.6185-0.05935-3.5537-0.08906-5.8055-0.08911v42.15m-17.311-53.734h18.789c4.7147 6.6e-5 8.7255 0.20799 12.033 0.62379 3.3073 0.35651 6.087 0.89116 8.3389 1.604 2.3222 0.71295 4.2222 1.6041 5.6999 2.6733 1.4777 1.01 2.7795 2.1981 3.9055 3.5644 0.84438 1.0694 1.5481 2.1981 2.1111 3.3862 0.63327 1.1882 1.1258 2.6734 1.4778 4.4556 0.35178 1.7229 0.59808 3.8319 0.73889 6.327 0.21105 2.4952 0.31661 5.5842 0.31668 9.2678l-0.10554 11.139c-6e-5 1.8417-0.17599 3.713-0.52777 5.614-0.28155 1.8417-0.80932 3.5942-1.5833 5.2576-0.77414 1.6634-1.8649 3.208-3.2722 4.6338-1.4074 1.3664-3.1667 2.4951-5.2778 3.3862-2.8148 1.1882-5.5241 1.9902-8.128 2.406-2.5333 0.35645-5.3481 0.65349-8.4444 0.89111-0.56299 0.0594-1.6537 0.11882-3.2722 0.17822h-22.8v-65.409"/>
  </g>
  <path d="m-213.99 480.5 473.64 0.0625 27.438 143.66h-472.21l-28.862-143.66" fill="#bb233e"/>
  <g transform="matrix(.5352 0 0 .5352 -163.91 499.66)" fill="#fff">
   <path d="m68.228 91.015 19.175 19.397s-12.939 30.991-55.294 32.552c-35.601 0.132-32.008-36.343-32.008-36.343s4.808-61.537 78.607-71.793c0 0 49.498-9.587 52.619 39.241 0 0-0.154 39.73-14.891 68.936h-29.75s16.77-50.652 15.655-70.719-12.708-22.742-22.965-21.627-54.904 12.506-56.855 50.389c0 0-1.561 12.04 8.026 11.817 1e-3 0 15.378 1.632 37.681-21.85z"/>
   <path d="m445.23 91.015 19.175 19.397s-12.939 30.991-55.295 32.552c-35.6 0.132-32.008-36.343-32.008-36.343s4.808-61.537 78.607-71.793c0 0 49.498-9.587 52.619 39.241 0 0-0.154 39.73-14.892 68.936h-29.749s16.77-50.652 15.655-70.719-12.708-22.742-22.965-21.627-54.904 12.506-56.854 50.389c0 0-1.562 12.04 8.025 11.817 1e-3 0 15.378 1.632 37.682-21.85z"/>
   <path d="m138.78 143.01s15.063-64.701 22.421-80.085 34.113-18.283 44.146-18.283h45.261s2.453 16.053-32.106 14.938-36.193 12.68-36.193 12.68l-16.125 70.75h-27.404z"/>
   <path d="m281.78 143.01s15.063-64.701 22.421-80.085c7.357-15.384 34.112-18.283 44.146-18.283h45.261s2.453 16.053-32.105 14.938c-34.56-1.115-36.193 12.679-36.193 12.679l-16.125 70.75h-27.405z"/>
   <path d="m261.31 44.638s-26.984 96.584-27.876 98.368h29.001s21.172-76.072 25.631-98.368h-26.756z"/>
   <path d="m284.72 0s-14.716 0.27-18.506 18.553c-0.446 11.371 11.371 11.148 11.371 11.148s13.601 0.445 17.837-10.256 5.797-19.445-10.702-19.445z"/>
   <path d="m508.2 143.01 23.733-98.368h59s37.228 0.259 34.525 19.002-16.381 74.975-19.082 79.365h-26.511s17.224-69.74 17.393-73.455 0-8.95-18.237-9.119-22.966-0.337-24.316 5.235-17.562 68.558-17.562 68.558-2.194 8.612-10.807 8.781-18.136 1e-3 -18.136 1e-3z"/>
   <path d="m707.06 45.506s-63.913 2.092-71.344 65.415c-2.026 34.279 32.111 32.085 33.969 32.085 0 0 28.171 1.687 39.654-13.173 0 0-7.183 53.043-40.279 50.173l-13.146-0.122-4.663 15.116s37.993 4.067 56.399-12.819 37.304-39.176 41.448-101.49c1e-3 -1e-3 1.022-41.606-42.038-35.189zm15.972 33.853c-6.404 43.161-41.908 42.326-41.908 42.326s-26.314 2.228-22.973-20.606c7.24-42.326 45.945-42.883 45.945-42.883s20.885-2.506 18.936 21.163z"/>
  </g>
 </g>
</svg>
