<svg width="800" height="303.54" version="1.1" viewBox="0 0 800 303.54" xmlns="http://www.w3.org/2000/svg">
 <path d="m0-1.0125e-5h626.63a173.37 173.37 0 0 1 173.37 173.37v130.17h-626.63a173.37 173.37 0 0 1-173.37-173.33z" fill="#c62326" stroke-width="6.5176"/>
 <g fill="#fff" stroke-width="6.5176">
  <path d="m499.57 235.32c-4.7839 0-12.859 1.486-12.859 11.451 0 6.9738 4.1452 10.624 12.331 10.813h2.1512v9.9589h7.9315v-32.223zm-0.2216 16.294c-3.3761 0-4.8882-1.5642-4.8882-5.1293 0-3.2584 1.7572-5.1293 4.8882-5.1293h1.7532v10.259z"/>
  <path d="m465.95 254.28v-11.08c0.17213-2.5455-1.0833-4.9761-3.2588-6.309-0.8788-0.54024-1.8518-0.90956-2.8677-1.0884-1.3842-0.25334-2.7905-0.36472-4.1973-0.33239-1.5105-0.0222-3.0157 0.18464-4.4645 0.61265-1.1427 0.34582-2.2074 0.91029-3.135 1.662-0.80164 0.65418-1.4455 1.4807-1.8836 2.418-0.37744 0.83929-0.59832 1.7405-0.65176 2.6592h7.0585c0.14104-0.67523 0.4632-1.2993 0.93201-1.8054 0.64912-0.70673 1.4418-0.88224 2.327-0.87245 1.0178 0 1.6912 0.26738 2.1612 0.80471 0.40073 0.45809 0.62903 1.0725 0.5759 1.7428 7e-3 0.39699-0.10878 0.78641-0.3324 1.1145-0.31656 0.34621-0.71903 0.60261-1.1666 0.743-0.62868 0.25379-1.2849 0.43322-1.9553 0.53444-0.96532 0.18562-1.9401 0.31832-2.9199 0.39757-1.0244 0.0997-2.0384 0.28723-3.0307 0.56052-0.87039 0.23469-1.6961 0.61128-2.4441 1.1145-0.68235 0.49064-1.2385 1.1362-1.6229 1.8836-0.44346 0.89803-0.65414 1.8931-0.61266 2.8938-0.0169 0.91465 0.16561 1.822 0.53444 2.6592 0.32732 0.74985 0.81708 1.4177 1.4339 1.9553 0.65242 0.52701 1.4004 0.92312 2.2029 1.1666 0.9174 0.29687 1.8776 0.44 2.8417 0.42364 1.2739 0.0169 2.5386-0.21775 3.7215-0.69086 1.324-0.57704 2.4429-1.4292 3.1936-2.4376v0.3324c0 0.7893 0.30984 1.4468 0.58658 2.0987h7.2541c-0.33311-1.048-0.28026-1.8313-0.28026-3.161zm-7.1693-4.4906c0 1.4386-0.37776 2.399-1.3035 3.1871-0.80345 0.62803-1.7958 0.96574-2.8156 0.95808-0.70493 9e-3 -1.3975-0.18529-1.9944-0.56051-0.64165-0.43733-0.95808-1.1098-0.95808-1.9553 0-0.7041 0.25229-1.3814 0.76907-1.8575 0.66124-0.54696 1.6847-0.76969 2.6592-1.0363l1.7793-0.47578c0.57761-0.17369 0.88189-0.32634 1.3035-0.53444l0.58658-0.29329z"/>
  <path d="m412.4 245.34c-0.874-0.51163-1.8247-0.87915-2.8156-1.0884l-3.0307-0.56051-1.7793-0.26722c-0.50332-0.0715-1.0002-0.18261-1.486-0.3324-0.40736-0.11812-0.78651-0.31767-1.1145-0.58658-0.31668-0.25971-0.48117-0.6102-0.47578-1.0624 0.01-0.66198 0.32265-1.2824 0.90594-1.5968 1.1317-0.55782 2.5717-0.53048 3.7737 0 0.6109 0.31727 1.0274 0.91396 1.1145 1.5968h6.9738c-0.18726-1.7667-1.1651-3.3533-2.6592-4.3146-2.2658-1.2973-4.0902-1.7524-7.4691-1.7524-1.2694 0-2.5213 0.17364-3.7476 0.47496-1.0949 0.25406-2.1378 0.69503-3.0828 1.3035-0.83474 0.53255-1.5351 1.2508-2.0465 2.0987-0.50511 0.85099-0.74301 1.7386-0.74301 2.8156 0 1.3993 0.16941 2.1799 0.65176 3.161 0.43096 0.77458 1.03 1.4427 1.7532 1.9553 0.75903 0.4823 1.5942 0.83268 2.4702 1.0363 0.87633 0.23173 1.7639 0.41881 2.6592 0.56052l2.0726 0.33239c0.59272 0.0928 1.1785 0.22559 1.7532 0.39757 0.47986 0.15792 0.92313 0.41059 1.3035 0.74301 0.39278 0.34935 0.60808 0.8565 0.58658 1.3817 0.0387 0.73581-0.34936 1.4282-0.99719 1.7793-0.66832 0.35725-1.4196 0.53045-2.1769 0.50186-0.96114 0.0599-1.9099-0.24238-2.6592-0.84729-0.58205-0.53403-0.95032-1.2613-1.0363-2.0465h-7.0585c0.029 0.97473 0.28329 1.9295 0.743 2.7895 0.53043 0.93755 1.2767 1.7352 2.1769 2.3268 1.0286 0.68544 2.1722 1.18 3.3761 1.4599 1.4438 0.35246 2.9263 0.52108 4.4124 0.50185 1.4071 0.0459 2.815-0.0656 4.1973-0.3324 1.1847-0.23395 2.3188-0.67522 3.35-1.3035 0.89023-0.5622 1.6359-1.3257 2.1769-2.229 0.55422-0.97806 0.79514-1.9729 0.79514-3.2132 0-1.6525-0.22134-2.4222-0.82121-3.4804-0.49069-0.88581-1.1977-1.6508-2.0465-2.203z"/>
  <path d="m631.52 247.44a6.1917 6.1917 0 0 0-2.0465-2.0987 9.7047 9.7047 0 0 0-2.8156-1.0884l-3.1089-0.56051-1.7793-0.26722a10.787 10.787 0 0 1-1.5121-0.3324 2.9916 2.9916 0 0 1-1.0884-0.58658 1.3035 1.3035 0 0 1-0.47578-1.0624 1.7272 1.7272 0 0 1 0.90594-1.5968 4.6731 4.6731 0 0 1 3.7737 0 2.0987 2.0987 0 0 1 1.1145 1.5968h6.9738a5.8658 5.8658 0 0 0-2.6592-4.3146 13.283 13.283 0 0 0-7.4691-1.7272 15.564 15.564 0 0 0-3.7476 0.44971 9.7764 9.7764 0 0 0-3.0828 1.3035 6.5176 6.5176 0 0 0-2.0726 2.0987 5.5008 5.5008 0 0 0-0.743 2.8156 6.4068 6.4068 0 0 0 0.69086 3.161 5.6442 5.6442 0 0 0 1.7532 1.9553 7.3583 7.3583 0 0 0 2.4702 1.0363 26.794 26.794 0 0 0 2.6592 0.56052l2.0465 0.33239a12.774 12.774 0 0 1 1.7793 0.39757 3.7737 3.7737 0 0 1 1.3035 0.74301 1.8314 1.8314 0 0 1 0.58659 1.3817 1.9097 1.9097 0 0 1-0.99719 1.7793 4.3146 4.3146 0 0 1-2.2029 0.50186 3.9105 3.9105 0 0 1-2.6592-0.84729 3.2132 3.2132 0 0 1-0.99719-2.0465h-6.9542a6.309 6.309 0 0 0 0.743 2.7895 6.7783 6.7783 0 0 0 2.1769 2.3268 10.311 10.311 0 0 0 3.3761 1.4599 17.65 17.65 0 0 0 4.4124 0.50185 18.901 18.901 0 0 0 4.1452-0.42364 10.624 10.624 0 0 0 3.35-1.3035 6.7261 6.7261 0 0 0 2.1769-2.229 6.1396 6.1396 0 0 0 0.79515-3.2132 6.6219 6.6219 0 0 0-0.82122-3.4804z"/>
  <path d="m470.15 257.75h7.971v-11.686a4.0409 4.0409 0 0 1 4.0409-4.0409h1.662v-5.5269h-4.3146a9.3788 9.3788 0 0 0-9.3527 9.3527z"/>
  <path d="m429.8 235.31c-0.72199 6e-3 -1.455 0.0909-2.1638 0.22812l-0.44971 0.1211v-11.123h-8.3034v33.24h8.3425v-13.843c-0.18438-3.721 5.4962-3.721 5.3118 0v13.804h8.3425v-11.471c3.9e-4 -6.0996-4.9807-11.025-11.08-10.956z"/>
  <path d="m367.68 235.99v22.108h7.8211v-11.732h6.6414v11.732h7.971v-33.292h-9.4896c-4.81 0-12.814 1.4339-12.944 11.184zm14.482 4.81h-6.6414v-5.7355a4.3863 4.3863 0 0 1 4.836-4.2234h1.7532z"/>
  <path d="m564.83 237.93c-1.0194-0.92294-2.1989-1.6518-3.4804-2.1508-1.4613-0.53177-3.0074-0.7924-4.5623-0.76908-1.6087-0.0147-3.2048 0.28413-4.6992 0.87988-1.3713 0.54385-2.6143 1.3674-3.6498 2.418-1.0314 1.046-1.8445 2.2867-2.392 3.6498-1.134 2.9785-1.134 6.2699 0 9.2484 0.53866 1.374 1.3628 2.618 2.418 3.6498 1.0792 1.0494 2.3641 1.8638 3.7737 2.392 1.5629 0.58259 3.2204 0.86989 4.8882 0.84728 1.2794 0.0201 2.5562-0.12222 3.7998-0.42364 1.14-0.26912 2.2204-0.74638 3.1871-1.4078 1.013-0.64427 1.9116-1.4526 2.6592-2.392 0.56692-0.6936 1.0081-1.4811 1.3035-2.3268h-7.3323c-0.72649 1.1274-2.0128 1.7656-3.35 1.662-1.2069 0.0542-2.3837-0.38596-3.2588-1.2188-0.81642-0.91509-1.3506-2.0469-1.5382-3.2588v-0.45623h16.131c0.0399-1.9372-0.24649-3.8673-0.84729-5.7094-0.58949-1.7689-1.6189-3.359-2.9916-4.621zm-12.383 6.7001v-0.47578c0.19687-1.1442 0.69139-2.2164 1.4339-3.1089 0.77044-0.82497 1.864-1.2702 2.9916-1.2185 1.0588-0.026 2.0768 0.4089 2.7895 1.1924 0.75759 0.89455 1.2298 1.9956 1.3556 3.161v0.44971z"/>
  <path d="m594.4 249.42v-13.752h-8.4142v13.752c-0.16698 3.3701-5.1448 3.3701-5.3118 0v-13.752h-8.3034v11.451c-0.0411 9.0653 10.379 14.196 17.539 8.6358l0.24115-0.15642 0.24115 0.15642c1.877 1.4559 4.1878 2.2407 6.5632 2.229 6.0125-0.0143 10.883-4.8849 10.897-10.897v-11.419h-8.3034v13.752c-0.16698 3.3701-4.9819 3.3701-5.1489 0z"/>
  <path d="m518.94 225.22 0.01953 32.262h7.8203v-14.801l6.6406 14.801h7.8223l-0.01367-0.03125 0.05274 0.03906v-32.262h-7.8223v14.916l-6.6992-14.924h-7.8203z"/>
 </g>
 <g fill="#fff">
  <path d="m596.9 61.943h35.449v147.21h-35.449z" stroke-width="6.5176"/>
  <path d="m543.46 61.917v118.88h-5.6442c-6.4589 0-12.383-1.9553-12.383-11.321v-61.409h-35.41v61.102c0 9.633-3.3761 12.436-9.0073 12.436s-9.0138-2.8091-9.0138-12.383v-61.154h-35.417v61.102c0 9.633-3.3761 12.436-9.0073 12.436s-9.0073-2.8156-9.0073-12.436v-61.102h-35.443v61.435c0 9.3527-5.8658 11.321-12.383 11.321h-5.6442v-72.756h-35.436v75.604c0 27.185-4.4906 31.408-15.727 31.408h-5.9245v28.325h5.9114c33.774 0 45.825-12.618 49.612-34.387a43.935 43.935 0 0 0 29.225-10.233 42.416 42.416 0 0 0 31.877 11.243 36.844 36.844 0 0 0 30.854-13.283 37.378 37.378 0 0 0 31.037 13.283 38.16 38.16 0 0 0 29.707-10.624 48.882 48.882 0 0 0 33.298 9.7764h29.225v-147.26z" stroke-width="6.5176"/>
  <path d="m265 108.07c-30.958 0-54.578 13.869-54.578 48.706 0 30.548 19.136 45.16 52.323 46.131h3.1089c-5.3118 9.8611-15.701 12.09-29.811 12.09-27.028 0-43.342-8.7727-43.342-42.742v-27.374h-35.423v33.996c0 43.87 28.964 64.524 78.465 64.524 38.819 0 69.738-14.456 69.738-68.239v-67.092zm-19.136 47.578c0-11.621 5.6442-19.553 18.595-19.553h5.6051v39.06h-5.6377c-12.95 0-18.562-5.5986-18.562-19.507" stroke-width="6.5176"/>
  <path d="m258.2 78.922a20.087 20.087 0 0 1-20.087 20.087 20.087 20.087 0 0 1-20.087-20.087 20.087 20.087 0 0 1 20.087-20.087 20.087 20.087 0 0 1 20.087 20.087z" stop-color="#000000" stroke-miterlimit="10" stroke-opacity=".39216" stroke-width="3.5019" style="paint-order:stroke fill markers"/>
  <path d="m307.2 78.922a20.087 20.087 0 0 1-20.087 20.087 20.087 20.087 0 0 1-20.087-20.087 20.087 20.087 0 0 1 20.087-20.087 20.087 20.087 0 0 1 20.087 20.087z" stop-color="#000000" stroke-miterlimit="10" stroke-opacity=".39216" stroke-width="3.5019" style="paint-order:stroke fill markers"/>
  <path d="m420.08 78.922a20.087 20.087 0 0 1-20.087 20.087 20.087 20.087 0 0 1-20.087-20.087 20.087 20.087 0 0 1 20.087-20.087 20.087 20.087 0 0 1 20.087 20.087z" stop-color="#000000" stroke-miterlimit="10" stroke-opacity=".39216" stroke-width="3.5019" style="paint-order:stroke fill markers"/>
  <path d="m471.95 78.922a20.087 20.087 0 0 1-20.087 20.087 20.087 20.087 0 0 1-20.087-20.087 20.087 20.087 0 0 1 20.087-20.087 20.087 20.087 0 0 1 20.087 20.087z" stop-color="#000000" stroke-miterlimit="10" stroke-opacity=".39216" stroke-width="3.5019" style="paint-order:stroke fill markers"/>
  <path d="m525.68 78.922a20.087 20.087 0 0 1-20.087 20.087 20.087 20.087 0 0 1-20.087-20.087 20.087 20.087 0 0 1 20.087-20.087 20.087 20.087 0 0 1 20.087 20.087z" stop-color="#000000" stroke-miterlimit="10" stroke-opacity=".39216" stroke-width="3.5019" style="paint-order:stroke fill markers"/>
 </g>
</svg>
