<svg width="1993.2pt" height="433.23pt" version="1.1" viewBox="0 0 1993.2 433.23" xmlns="http://www.w3.org/2000/svg">
 <path d="m75.84 0.054891h479.33c20.47 1.71 41.51 5.5 59.25 16.46 11.19 6.78 20.41 17.42 23.71 30.26 2.4 8.23 1.61 16.87 1.48 25.31-0.55 20.51-2.22 41.08-6.69 61.14-3.99 17.71-10.43 35.1-20.83 50.09-8.86 12.87-20.89 23.5-34.72 30.76 9.08 3.66 17.97 8.56 24.19 16.33 9.99 12.05 12.46 28.41 11.96 43.61-0.93 25.9-8.8 50.79-13.18 76.18-2.12 11.26-6.42 22.1-12.49 31.82-17.35 27.65-48.06 45.17-79.95 50-5.2746 0.90053-10.594 1.2196-15.925 1.2196h-491.98l75.84-433.18m116.48 171.7h286.33l9.58-48.97h-286.71l-9.2 48.97m-14.81 89.78-10.23 47.65h294.89l7.38-47.65-33.73-0.28z"/>
 <path d="m1922.6 0.054891h70.6l-263.11 210.19 209.5 222.99h-215.78l-112.88-123.88-167.6 123.88h-81.13z"/>
 <path d="m735.23 23.385c21.43-15.54 48.4-24.16 74.64-23.33h454.52l-20.31 121.5h-404.76l-12.34 52.18h344.76c19.44 1.6 37.89 12.32 48.85 28.47 8.22 11.74 12.11 26.52 10.32 40.79-5.28 42.13-10.94 84.55-24.09 125.08-5.39 16.31-16.22 30.61-30.05 40.71-19.48 14.43-43.8 23.63-67.83 24.45h-474.43c8.34-39.92 15.46-83.52 21.9-123.79h416.47l9.23-50.51h-331.25c-17.56 0.31-35.39-6.67-48.87-18.04-10.9-9.2-18.84-22.41-20.08-36.77-0.77-45.48 8.16-90.52 20.57-134.07 4.74-18.89 17.01-35.42 32.75-46.67z"/>
 <g transform="translate(-.14 .054891)">
  <path d="m1314.3 0h204.74l108.49 114.62 154.34-114.62h80.73l-555.72 433.18h-78.09l278.09-219.32z" fill="#d54799"/>
 </g>
</svg>
