<svg width="800" height="164.64" version="1.1" viewBox="0 0 800 164.64" xmlns="http://www.w3.org/2000/svg">
 <defs>
  <linearGradient id="linearGradient18562" x1="736.33" x2="1059.8" y1="-196.5" y2="-196.5" gradientTransform="matrix(.44541 0 0 .44541 -1.7443e-5 89.29)" gradientUnits="userSpaceOnUse">
   <stop stop-color="#b7b9bb" offset="0"/>
   <stop stop-color="#fff" offset=".5"/>
   <stop stop-color="#b7b9bb" offset="1"/>
  </linearGradient>
  <radialGradient id="radialGradient20611" cx="945.3" cy="398.6" r="141.41" gradientTransform="matrix(-.74372 -4.3919e-8 2.3429e-8 -.6325 1155.6 274.15)" gradientUnits="userSpaceOnUse">
   <stop stop-color="#fb3bf1" offset="0"/>
   <stop stop-color="#e000ab" offset="1"/>
  </radialGradient>
  <radialGradient id="radialGradient21128" cx="617.01" cy="8.6108" r="138.99" gradientTransform="matrix(-.3793 .23349 -1.1793 -1.9157 618.36 -111.99)" gradientUnits="userSpaceOnUse">
   <stop stop-color="#e58dd3" offset="0"/>
   <stop stop-color="#fdd7fe" offset="1"/>
  </radialGradient>
  <linearGradient id="linearGradient1603" x1="549.88" x2="550.18" y1="-460.61" y2="-530.09" gradientUnits="userSpaceOnUse">
   <stop stop-color="#999a9c" offset="0"/>
   <stop stop-color="#fff" offset="1"/>
  </linearGradient>
 </defs>
 <g transform="matrix(.97786 0 0 .97786 -2.917 7.2008)">
  <path d="m319.2-7.3638-0.44541 58.433c-0.0711 5.9623 0.19585 11.925 0.80035 17.863 1.1894 11.669 4.4926 23.093 9.7833 33.834 10.488 19.979 39.53 49.178 70.66 58.233 31.129-9.0553 60.171-38.254 70.66-58.233 5.2907-10.742 8.5939-22.166 9.7833-33.834 0.60451-5.9387 0.87229-11.901 0.8012-17.863l-0.44541-58.433z" stroke-width="1.1763"/>
  <path d="m327.97 1.7671-0.3971 52.095c-0.0634 5.3156 0.17461 10.631 0.71355 15.926 1.0604 10.403 4.0053 20.588 8.7221 30.165 9.3507 17.812 35.242 43.844 62.995 51.917 27.753-8.0731 53.645-34.105 62.995-51.917 4.7169-9.5767 7.6618-19.761 8.7221-30.165 0.53894-5.2946 0.77768-10.61 0.7143-15.926l-0.39708-52.095z" fill="url(#linearGradient18562)" stop-color="#000000" stroke-width="2.5735" style="-inkscape-stroke:none;font-variation-settings:normal"/>
  <path d="m337.37 11.566-0.34525 45.293c-0.0551 4.6216 0.15181 9.2431 0.62038 13.846 0.92192 9.0448 3.4823 17.9 7.5833 26.226 8.1299 15.486 30.641 38.12 54.771 45.139 24.129-7.019 46.641-29.652 54.771-45.139 4.101-8.3263 6.6614-17.181 7.5834-26.226 0.46856-4.6033 0.67612-9.2247 0.62103-13.846l-0.34528-45.293z" fill="#bf6bae" stroke-width=".91181"/>
  <path d="m338.44 12.68-0.33935 44.52c-0.0542 4.5427 0.14921 9.0853 0.60978 13.61 0.90619 8.8905 3.4229 17.594 7.4539 25.779 7.9911 15.222 30.118 37.469 53.836 44.368 23.718-6.8993 45.845-29.146 53.836-44.368 4.0311-8.1842 6.5478-16.888 7.454-25.779 0.46055-4.5247 0.66455-9.0673 0.61043-13.61l-0.3394-44.52z" fill="url(#radialGradient21128)" stroke-width=".89625"/>
  <path d="m344.21 18.693-0.30754 40.346c-0.0491 4.1169 0.13522 8.2336 0.55262 12.334 0.82123 8.057 3.102 15.945 6.7551 23.362 7.242 13.795 27.295 33.956 48.789 40.209 21.494-6.2525 41.547-26.414 48.789-40.209 3.6531-7.4169 5.9339-15.305 6.7551-23.362 0.41739-4.1005 0.60228-8.2173 0.55319-12.334l-0.30755-40.346z" fill="#d200ac" stroke-width=".81223"/>
  <path d="m347.42 22.033-0.28986 38.028c-0.0463 3.8803 0.12745 7.7604 0.52086 11.625 0.77403 7.5939 2.9237 15.029 6.3669 22.019 6.8258 13.002 25.726 32.005 45.985 37.898 20.259-5.8931 39.159-24.896 45.985-37.898 3.4432-6.9907 5.5928-14.425 6.3669-22.019 0.39338-3.8649 0.56767-7.745 0.52139-11.625l-0.28987-38.028z" fill="url(#radialGradient20611)" stroke-width=".76555"/>
 </g>
 <g transform="matrix(.97786 0 0 .97786 -171.45 559.3)" fill="#444">
  <path d="m234.07-460.61h-56.513l22.543-69.483h54.145q9.3673 0 13.794 3.4999 4.4263 3.4999 4.4263 9.2644 0 6.1763-3.4999 11.735-4.0146 6.2792-8.9556 8.6468 5.5586 2.7793 5.5586 9.2644 0 7.8233-5.8674 15.852-8.338 11.22-25.632 11.22zm9.0585-54.042h-26.146l-4.0146 12.455h24.087q7.6174 0 10.294-4.7351 1.647-2.3676 1.647-5.2498 0-1.3382-1.3382-1.8529-1.2353-0.61762-4.5293-0.61762zm-6.588 24.705h-27.587l-4.2204 12.97h25.529q7.6174 0 10.603-4.6322 1.9558-2.5734 1.9558-5.5586 0-1.5441-1.4411-2.1617-1.3382-0.61763-4.8381-0.61763z" stroke-width="2.5734" style="white-space:pre"/>
  <path d="m338.66-460.61h-49.307q-11.323 0-16.367-2.9852-4.941-3.0881-4.941-9.4703 0-8.235 5.044-16.779 3.9116-6.7939 11.014-9.985 7.1027-3.1911 18.941-3.1911h26.97q1.3382-4.0146 1.3382-6.0733 0-3.9116-5.6616-3.9116h-44.057l5.5586-17.088h43.851q11.632 0 17.294 4.0146 5.7645 3.9116 5.7645 12.353 0 5.3528-2.5734 13.382zm-17.191-15.955 4.1175-12.867h-22.955q-7.1027 0-9.6762 4.941-1.5441 3.0881-1.5441 5.1469 0 2.7793 5.2498 2.7793z" stroke-width="2.5734" style="white-space:pre"/>
  <path d="m402.27-460.61h-56.513l22.543-69.483h54.145q9.3673 0 13.794 3.4999 4.4263 3.4999 4.4263 9.2644 0 6.1763-3.4999 11.735-4.0146 6.2792-8.9556 8.6468 5.5586 2.7793 5.5586 9.2644 0 7.8233-5.8675 15.852-8.338 11.22-25.632 11.22zm9.0585-54.042h-26.146l-4.0146 12.455h24.087q7.6174 0 10.294-4.7351 1.647-2.3676 1.647-5.2498 0-1.3382-1.3382-1.8529-1.2352-0.61762-4.5293-0.61762zm-6.588 24.705h-27.587l-4.2204 12.97h25.529q7.6174 0 10.603-4.6322 1.9558-2.5734 1.9558-5.5586 0-1.5441-1.4411-2.1617-1.3382-0.61763-4.8381-0.61763z" stroke-width="2.5734" style="white-space:pre"/>
  <path d="m514.36-460.61h-53.311q-13.157 0-19.187-3.7003-6.0301-3.8373-6.0301-12.882 0-7.1265 3.7003-18.227 6.4412-19.872 15.623-27.272 9.3192-7.4006 27.958-7.4006h32.48q19.461 0 19.461 12.745 0 3.5632-1.5075 8.4969-6.8524 20.557-24.943 20.557h-43.17q-0.68523 3.4262-0.68523 4.9337 0 2.6039 1.5075 3.5632 1.5075 0.95932 5.2078 0.95932h48.789zm-11.238-52.352h-16.309q-12.745 0-16.72 10.416h25.902q7.2635 0 9.3192-5.893 0.54819-1.5075 0.54819-2.6039 0-1.9187-2.741-1.9187z" stroke-width="3.4262" style="white-space:pre"/>
  <path d="m604.43-460.61h-22.029l14.514-44.984q0.72057-2.5734 0.72057-3.6028 0-3.294-4.941-3.294h-26.043l-16.779 51.881h-22.235l22.543-69.483h51.469q19.867 0 19.867 13.279 0 3.6028-1.3382 7.6174z" stroke-width="2.5734" style="white-space:pre"/>
  <path d="m686.27-460.61h-49.307q-11.323 0-16.367-2.9852-4.941-3.0881-4.941-9.4703 0-8.235 5.044-16.779 3.9116-6.7939 11.014-9.985 7.1027-3.1911 18.941-3.1911h26.97q1.3382-4.0146 1.3382-6.0733 0-3.9116-5.6616-3.9116h-44.057l5.5586-17.088h43.851q11.632 0 17.294 4.0146 5.7645 3.9116 5.7645 12.353 0 5.3528-2.5734 13.382zm-17.191-15.955 4.1175-12.867h-22.955q-7.1027 0-9.6762 4.941-1.5441 3.0881-1.5441 5.1469 0 2.7793 5.2498 2.7793z" stroke-width="2.5734" style="white-space:pre"/>
  <path d="m741.86-460.61h-22.337l16.882-52.189h-28.72l5.6616-17.294h79.777l-5.6616 17.294h-28.72z" stroke-width="2.5734" style="white-space:pre"/>
  <path d="m798.16-460.61h-22.235l22.543-69.483h22.235z" stroke-width="2.5734" style="white-space:pre"/>
  <path d="m857.66-460.61h-17.705q-26.867 0-26.867-19.661 0-6.3822 2.7793-15.029 11.22-34.793 46.631-34.793h17.705q26.764 0 26.764 19.661 0 13.382-8.0292 27.381-12.558 22.44-41.278 22.44zm-8.9556-16.676h7.8233q16.367 0 23.264-13.588 4.2204-8.235 4.2204-14.514 0-4.0146-3.0881-5.8675-3.0881-1.9558-10.603-1.9558h-7.8233q-18.529 0-24.705 19.352-1.9558 6.0733-1.9558 8.9556 0 3.8087 2.8822 5.7645 2.9852 1.8529 9.985 1.8529z" stroke-width="2.5734" style="white-space:pre"/>
  <path d="m976.35-460.61h-22.029l14.514-44.984q0.72056-2.5734 0.72056-3.6028 0-3.294-4.941-3.294h-26.043l-16.779 51.881h-22.235l22.543-69.483h51.469q19.867 0 19.867 13.279 0 3.6028-1.3382 7.6174z" stroke-width="2.5734" style="white-space:pre"/>
 </g>
 <g transform="matrix(.97786 0 0 .97786 -173.63 557.12)" fill="url(#linearGradient1603)">
  <path d="m234.07-460.61h-56.513l22.543-69.483h54.145q9.3673 0 13.794 3.4999 4.4263 3.4999 4.4263 9.2644 0 6.1763-3.4999 11.735-4.0146 6.2792-8.9556 8.6468 5.5586 2.7793 5.5586 9.2644 0 7.8233-5.8674 15.852-8.338 11.22-25.632 11.22zm9.0585-54.042h-26.146l-4.0146 12.455h24.087q7.6174 0 10.294-4.7351 1.647-2.3676 1.647-5.2498 0-1.3382-1.3382-1.8529-1.2353-0.61762-4.5293-0.61762zm-6.588 24.705h-27.587l-4.2204 12.97h25.529q7.6174 0 10.603-4.6322 1.9558-2.5734 1.9558-5.5586 0-1.5441-1.4411-2.1617-1.3382-0.61763-4.8381-0.61763z" stroke-width="2.5734" style="white-space:pre"/>
  <path d="m338.66-460.61h-49.307q-11.323 0-16.367-2.9852-4.941-3.0881-4.941-9.4703 0-8.235 5.044-16.779 3.9116-6.7939 11.014-9.985 7.1027-3.1911 18.941-3.1911h26.97q1.3382-4.0146 1.3382-6.0733 0-3.9116-5.6616-3.9116h-44.057l5.5586-17.088h43.851q11.632 0 17.294 4.0146 5.7645 3.9116 5.7645 12.353 0 5.3528-2.5734 13.382zm-17.191-15.955 4.1175-12.867h-22.955q-7.1027 0-9.6762 4.941-1.5441 3.0881-1.5441 5.1469 0 2.7793 5.2498 2.7793z" stroke-width="2.5734" style="white-space:pre"/>
  <path d="m402.27-460.61h-56.513l22.543-69.483h54.145q9.3673 0 13.794 3.4999 4.4263 3.4999 4.4263 9.2644 0 6.1763-3.4999 11.735-4.0146 6.2792-8.9556 8.6468 5.5586 2.7793 5.5586 9.2644 0 7.8233-5.8675 15.852-8.338 11.22-25.632 11.22zm9.0585-54.042h-26.146l-4.0146 12.455h24.087q7.6174 0 10.294-4.7351 1.647-2.3676 1.647-5.2498 0-1.3382-1.3382-1.8529-1.2352-0.61762-4.5293-0.61762zm-6.588 24.705h-27.587l-4.2204 12.97h25.529q7.6174 0 10.603-4.6322 1.9558-2.5734 1.9558-5.5586 0-1.5441-1.4411-2.1617-1.3382-0.61763-4.8381-0.61763z" stroke-width="2.5734" style="white-space:pre"/>
  <path d="m514.36-460.61h-53.311q-13.157 0-19.187-3.7003-6.0301-3.8373-6.0301-12.882 0-7.1265 3.7003-18.227 6.4412-19.872 15.623-27.272 9.3192-7.4006 27.958-7.4006h32.48q19.461 0 19.461 12.745 0 3.5632-1.5075 8.4969-6.8524 20.557-24.943 20.557h-43.17q-0.68523 3.4262-0.68523 4.9337 0 2.6039 1.5075 3.5632 1.5075 0.95932 5.2078 0.95932h48.789zm-11.238-52.352h-16.309q-12.745 0-16.72 10.416h25.902q7.2635 0 9.3192-5.893 0.54819-1.5075 0.54819-2.6039 0-1.9187-2.741-1.9187z" stroke-width="3.4262" style="white-space:pre"/>
  <path d="m604.43-460.61h-22.029l14.514-44.984q0.72057-2.5734 0.72057-3.6028 0-3.294-4.941-3.294h-26.043l-16.779 51.881h-22.235l22.543-69.483h51.469q19.867 0 19.867 13.279 0 3.6028-1.3382 7.6174z" stroke-width="2.5734" style="white-space:pre"/>
  <path d="m686.27-460.61h-49.307q-11.323 0-16.367-2.9852-4.941-3.0881-4.941-9.4703 0-8.235 5.044-16.779 3.9116-6.7939 11.014-9.985 7.1027-3.1911 18.941-3.1911h26.97q1.3382-4.0146 1.3382-6.0733 0-3.9116-5.6616-3.9116h-44.057l5.5586-17.088h43.851q11.632 0 17.294 4.0146 5.7645 3.9116 5.7645 12.353 0 5.3528-2.5734 13.382zm-17.191-15.955 4.1175-12.867h-22.955q-7.1027 0-9.6762 4.941-1.5441 3.0881-1.5441 5.1469 0 2.7793 5.2498 2.7793z" stroke-width="2.5734" style="white-space:pre"/>
  <path d="m741.86-460.61h-22.337l16.882-52.189h-28.72l5.6616-17.294h79.777l-5.6616 17.294h-28.72z" stroke-width="2.5734" style="white-space:pre"/>
  <path d="m798.16-460.61h-22.235l22.543-69.483h22.235z" stroke-width="2.5734" style="white-space:pre"/>
  <path d="m857.66-460.61h-17.705q-26.867 0-26.867-19.661 0-6.3822 2.7793-15.029 11.22-34.793 46.631-34.793h17.705q26.764 0 26.764 19.661 0 13.382-8.0292 27.381-12.558 22.44-41.278 22.44zm-8.9556-16.676h7.8233q16.367 0 23.264-13.588 4.2204-8.235 4.2204-14.514 0-4.0146-3.0881-5.8675-3.0881-1.9558-10.603-1.9558h-7.8233q-18.529 0-24.705 19.352-1.9558 6.0733-1.9558 8.9556 0 3.8087 2.8822 5.7645 2.9852 1.8529 9.985 1.8529z" stroke-width="2.5734" style="white-space:pre"/>
  <path d="m976.35-460.61h-22.029l14.514-44.984q0.72056-2.5734 0.72056-3.6028 0-3.294-4.941-3.294h-26.043l-16.779 51.881h-22.235l22.543-69.483h51.469q19.867 0 19.867 13.279 0 3.6028-1.3382 7.6174z" stroke-width="2.5734" style="white-space:pre"/>
 </g>
</svg>
