<svg width="1186.1pt" height="749.77pt" version="1.1" viewBox="0 0 1186.1 749.77" xmlns="http://www.w3.org/2000/svg">
 <defs>
  <radialGradient id="c" cx="270.78" cy="312.43" r="206.99" gradientTransform="matrix(3.1033 -1.1447 .1778 .48199 -719.4 342.42)" gradientUnits="userSpaceOnUse">
   <stop stop-color="#fee203" offset="0"/>
   <stop stop-color="#f4c619" offset=".18636"/>
   <stop stop-color="#e99d23" offset=".52782"/>
   <stop stop-color="#d27d2a" offset="1"/>
  </radialGradient>
  <radialGradient id="b" cx="369.92" cy="508.41" r="335.99" gradientTransform="matrix(6.8191 -.89284 .054511 .41633 -2283.9 411.22)" gradientUnits="userSpaceOnUse">
   <stop stop-color="#f9e40f" offset="0"/>
   <stop stop-color="#f9e40f" offset=".1687"/>
   <stop stop-color="#dda218" offset="1"/>
  </radialGradient>
  <linearGradient id="d" x1="212.59" x2="655" y1="571.86" y2="571.86" gradientTransform="translate(-103.56 -25.2)" gradientUnits="userSpaceOnUse">
   <stop stop-color="#f6d222" offset="0"/>
   <stop stop-color="#e99f24" offset="1"/>
  </linearGradient>
  <radialGradient id="a" cx="561.04" cy="761.82" r="287.96" gradientTransform="matrix(.1282 .35683 -1.4435 .51861 1455.9 80.739)" gradientUnits="userSpaceOnUse">
   <stop stop-color="#c67027" offset="0"/>
   <stop stop-color="#f9e306" offset="1"/>
  </radialGradient>
 </defs>
 <path d="m957.43 303.47c-11.28 0.15002-22.38 5.0205-30.11 13.23-7.9602 8.23-12.121 19.672-11.801 31.102l-0.012 165.24h223.85c7.12 0.28999 14.361-0.77136 20.921-3.6314 15.46-6.56 26.069-22.8 25.789-39.62l0.01-166.32z" fill="#910000"/>
 <path d="m464.42 1e-5c-16.53 20.91-35.88 39.74-57.75 55.03-16.67 11.29-35.429 20.85-55.819 22.33-0.5-0.04-1.4905-0.12992-1.9805-0.16992 0.16-1.28 0.30041-2.5594 0.42041-3.8394 1.42-6.24 3.789-12.24 6.769-17.9 7.9-16.21 18.46-30.97 26.24-47.25-32 6.68-63.26 17.21-92.48 31.89-4.62 1.66-9.0896 4.1707-13.31 6.7207-2.57 3.51-4.42 7.5093-7.04 10.989-16.54 24.33-39.93 43.61-66.06 56.9-8.49 4.58-17.569 7.93-26.389 11.77-19.65 22.2-36.411 46.89-50.571 72.92 21.68-0.42999 43.35-1.0694 65.03-1.6494 20.71-0.53001 41.49-2.3502 61.68-7.2202 25.59-6.41 49.96-16.82 73.66-28.26 16.65-7.7 32.79-16.45 49.14-24.76 17.82-9.61 35.99-18.87 52.16-31.14l0.12012 0.0996c40.47-28.55 77.97-61.24 112.2-97-14.21-2.88-28.579-5.0494-42.999-6.6694-10.98-1.29-22.06-1.3105-33.02-2.7905z" fill="url(#c)"/>
 <path d="m641.36 48.611c-5.96 28.22-11.55 57.06-25.34 82.73-9.22 17.49-19.91 34.249-32.35 49.639-19.28 24.01-41.81 45.821-68.38 61.641-20.99 12.19-44.89 18.47-68.83 21.45-22.23 2.92-44.689 2.65-67.059 2.54-25-0.14-50.01-1.3997-75-0.21972-14.33 0.39999-28.591 2.029-42.891 2.959-25.54 2.4-51.349 4.3114-76.179 11.131-16.8 4.49-31.551 13.939-46.191 22.969h551.47c12.69-14.18 26.18-27.849 41.73-38.909 13.12-8.93 28.08-16.031 44.12-17.111 11.72-1.36 23.321 1.6012 34.661 4.2012-13.71-40.7-34.501-79.231-62.341-112.03-6.2-7.61-12.87-14.809-19.43-22.109-2.79 1.97-4.6102 4.9095-6.7002 7.5396-4.9105 7.143-9.5252 13.203-13.4 19.67-4.39 8.05-8.1202 16.45-12.53 24.48-3.48 6.35-9.4895 11.49-16.77 12.7-0.59003-12 0.43972-24.011 1.2598-35.921 2.45-20.91 5.8803-41.73 10.86-62.19 0.68003-1.35-1.0997-1.9302-1.7798-2.7202-15.52-11.95-31.9-22.769-48.93-32.439z" fill="url(#b)"/>
 <path d="m662.18 512.95c37.97 0.1 75.94 0.08 113.91 0-14.51 26.55-34.04 49.94-53.6 72.86-4.09 4.89-8.22 9.77-12.94 14.06-10.19 10.3-19.29 21.66-27.54 33.55-4.41 6.7-9.12 13.46-11.22 21.31 6.57-1.83 11.78-6.43 17.17-10.38 18.55-14.97 35.69-31.66 51.74-49.27 18.12-19.82 32.95-42.33 46.85-65.22 3.74-5.85 7.5-11.86 12.31-16.91 2.15 0.03 4.32 0.04 6.49 0-3.29 10.56-8.42 20.53-13.15 30.5-21.04 41.99-50.34 79.54-84.25 111.91-45.29 42.8-102.78 72.04-163.54 85.36-81.11 17.89-168.01 9.13-243.73-25.15-25.35-11.65-49.62-25.99-71.26-43.66 15.05-3.55 30.61-4 46-3.66 22.36 0.32 44.59 3.09 66.93 3.83 25.45 1.24 50.85-1.43 76.14-3.87 41.99-4.75 84.36-11.91 123.3-28.96 20.39-8.95 39.41-21.19 55.52-36.6 26.97-25.61 45.7-58.21 64.87-89.7z" fill="url(#a)"/>
 <path d="m109.46 512.95 0.42048 1.0997c5.69 14.54 12.571 28.58 19.821 42.4 2.16 5.1 5.7793 10.601 11.739 11.391 5.3448 0.66378 10.537-0.30803 15.666-1.6715 6.6364-1.6328 12.282-3.702 18.669-5.1609 2.9267-0.66453 5.886-1.181 8.8662-1.5377 8.54-1.43 17.13 0.21974 25.66 0.73975 23.59 2.9 46.82 7.9705 70.22 12.02 5.19 0.76 10.309 2.2691 15.539 2.5591 42.8 7.93 87 7.5799 129.88 0.3999 38.56-6.9 77.22-19.919 107.94-44.969 6.16-5.34 12.591-10.76 17.561-17.27z" fill="url(#d)"/>
 <g transform="matrix(1.3968 0 0 1.3968 -1920 1173.5)">
  <path d="m2017.6-622.93v119.12c-0.086 7.6606-2.8852 15.35-8.1903 20.948-5.4985 6.0211-13.452 9.7155-21.607 9.9231h-613.19c0.064-39.649 0.014-79.305 0.029-118.95 0.2578-7.095 2.5345-14.24 7.1236-19.738 4.8684-6.0067 12.078-10.102 19.774-11.011 2.8495-0.39377 5.7275-0.2794 8.5985-0.28656" fill="#910000" stroke-width=".71594"/>
  <g transform="matrix(.77042 0 0 .77042 1486.3 -608.39)" fill="#fbfdfc">
   <path d="m282.43 13.79c10.6-1.33 21.95-0.52 31.08 5.54 5.89 2.97 8.66 9.52 9.76 15.68 1.29 7.99-2.32 15.81-7.26 21.88-7.42 8.83-18.39 13.63-29.18 16.94-9.25 2.91-19.15 3.86-28.74 2.35-9.86-1.76-18.59-9.48-20.56-19.44-2.14-8.61 1.58-17.55 7.1-24.09 9.6-10.81 23.88-16.28 37.8-18.86m1.09 18.9c-9.8 1.9-18.82 7.01-26.09 13.77-1.99 1.57-2.91 4.42-1.82 6.79 1.75 1.79 4.21 2.66 6.62 3.12 10.76 1.3 21.56-1.6 31.32-5.99 4.42-2.26 9.31-4.83 11.6-9.49 1.12-2.43-0.58-5.08-2.72-6.24-5.71-3.3-12.63-3.47-18.91-1.96z"/>
   <path d="m231.17 16.59 0.01 13.77-21.94 0.33v112.63l-19.03-0.01-0.48-112.83-39.5-0.03-0.31 112.85-18.03 0.07c-2.17-4.62-5-9.01-9.09-12.17-12.75-10.54-27.86-17.83-43.22-23.72-14.68-5-29.57-9.34-44.46-13.67-2.43-0.8-5.21-0.96-7.28-2.59l-8.31-16.49 111.66-44.1c-37.2-0.39-74.42-0.04-111.62-0.19-0.09-4.61-0.11-9.2304 0.01-13.85m35.31 62.44 75.9 29.2-0.07-57.24z"/>
   <path d="m354.57 16.62 233.76 0.03v13.83h-17.61v112.8l-18.92-0.02-0.09-112.78-37.41-4.44e-4v112.71l-18.99 0.07-0.07-60.32c0.01-3.47-2.87-5.82-5.32-7.82-7.95-5.92-18.45-8.09-28.14-6.18-4.47 1.11-8.68 3.72-11.1 7.7-1.45 2.36-2.16 5.07-3.31 7.57-2.12 4.82-8.96 6.85-13.28 3.76-4.22-3.07-7.63-7.13-11.99-10.02-7.32-5.1-16.03-8.89-25.09-8.67-9.08-0.38-18.05 3.08-25.26 8.46-4.15 3.13-7.75 7.85-7.42 13.3 4.87-2.95 10.04-5.69 15.85-6.04 10.83-0.78 23.03 3.09 28.89 12.84 2.92 4.2 3.24 9.62 2.16 14.48-2.47 5.66-7.9 9.42-13.53 11.53-7.87 3.01-16.8 3.95-24.94 1.52-12.32-4.51-22.49-15.23-25.35-28.16-4.13-17.27 6.7-34.96 21.69-43.05 15.37-7.95 34.07-5.59 49.48 1.03 6.1 2.3 11.34 6.25 17.22 8.98 10.66-12.97 29.49-17.19 45.25-12.52 5.13 1.27 9.4601 4.41 14.19 6.63v-27.81l-140.67-0.02z"/>
   <path d="m244.75 96.72c17.13-0.91 34.46 0.65 51 5.25 12.31 3.47 24.44 9.69 32.09 20.26 4.31 6.2 6.14 14 6.53 21.46h-20.79c-1.3-3.38-1.98-7.0995-4.24-10.03-4.4-5.87-11.11-9.45-17.87-11.92-14.96-5.08-30.94-6.36-46.65-6.1z"/>
  </g>
 </g>
 <path d="m975.38 400.88-0.014 16.192 17.213-0.0205-0.027 76.963 17.206 7e-3v-76.957l17.287-0.0141-0.02-16.145-51.651-0.0272m64.674 0.0272 36.159 93.129 14.139-0.0141 35.853-93.135-17.92-0.0141-25.027 70.897-25.047-70.856-18.158-7e-3z" fill="#fff" stroke-width=".68007"/>
 <g transform="matrix(.23884 0 0 .23884 438.34 418.51)" fill="#fff">
  <path d="m2614.8-392.28c14.12-7.86 30.84-11.29 46.87-8.79 15.33 2.41 30.14 9.36 41.01 20.56 6.21 6.01 11.34 13.22 14.38 21.35l-29.88 0.07c-6.52-9.31-16.48-16.1-27.68-18.25-11.73-2.09-24.44-0.32-34.51 6.28-11.48 7.39-18.75 20.21-20.89 33.52-2.3 13.58 2.43 27.77 11.34 38.1 14.72 17.2 42.64 20.86 61.39 8.23 6.39-4.28 12-10.14 15-17.29l-56.88-0.06v-23.49l88.97 0.06c0.37 14.71-3.99 29.47-12.62 41.42-12.23 17.33-32.6 28.37-53.62 30.26-17.75 1.61-35.77-3.84-50.3-13.97-22.46-15.71-33.81-45.51-27.4-72.17 4.46-19.26 17.53-36.28 34.82-45.83z"/>
  <path d="m2131.2-399.19c15.77 0.39 31.62-0.79 47.32 1.01 10.61 1.27 21.12 6.63 27.03 15.76 5.42 7.81 7.7 17.93 5.3 27.22-1.64 7.8-7.3 14.27-14.19 18.04 7.05 2.8 13.86 7.01 17.95 13.58 5.89 9.4 6.56 21.37 3.8 31.92-2.75 10.41-10.77 18.83-20.29 23.51-8.27 3.89-17.52 5.05-26.56 5.37-13.44 0.15-26.87-0.01-40.31 0.08l-0.05-136.49m25.25 23.54v29.69c7.8947 0 15.68 0.73 22.92-2.35 8.54-4.05 10.04-17.58 2.32-23.25-7.18-5.35-16.879-4.09-25.24-4.09m0 53.47v35.87c11.128 0 23.428 0.95629 31.65-4.53 9.26-6.1 8.62-21.79-0.93-27.28-8.0872-4.9917-20.856-4.06-30.72-4.06z"/>
  <path d="m2308.1-399.16 19.82 0.03 57.01 136.36-27.91 0.04-14.47-35.09-48.39-0.02-15 35.1-27.91-0.01 56.85-136.41m-4.67 77.62 29.04 0.01-14.79-41.9z"/>
  <path d="m2423.1-399.2 28.88 0.08 56.29 98.85 0.2-98.87h25.41l-0.04 136.4-28.46-0.05-57.1-99.21 0.03 99.29-25.21-0.04z"/>
  <path d="m2768.2-399.1 25.51 0.03 0.1 112.85 41.1-0.35 0.05 23.83-66.76-0.03z"/>
  <path d="m2863.9-262.81 56.63-136.29 19.99-0.04 56.98 136.38h-27.92l-14.54-35.08-48.36 0.05-14.87 35-27.91-0.02m52.18-58.69 29.1-0.13-14.62-41.95z"/>
 </g>
 <path d="m915.52 375.46h270.56v6.3525h-270.56z" fill="#fff"/>
</svg>
