<svg width="1276" height="665.56" version="1.1" viewBox="0 0 1276 665.56" xml:space="preserve" xmlns="http://www.w3.org/2000/svg"><path d="m503.51 316.93c-6.467-17.69-15.708-32.815-27.715-45.357s-26.497-22.154-43.429-28.871-35.853-10.079-56.789-10.079-39.864 3.362-56.789 10.086c-16.925 6.7241-31.402 16.343-43.416 28.871s-21.254 27.667-27.715 45.357c-6.4603 17.69-9.6937 37.672-9.6937 59.894 0 21.972 3.2334 41.873 9.6937 59.705 6.4602 17.832 15.708 33.086 27.715 45.742 12.007 12.657 26.49 22.357 43.416 29.074s35.859 10.073 56.789 10.073 39.864-3.3553 56.789-10.073 31.408-16.411 43.429-29.074 21.248-27.911 27.715-45.742c6.467-17.832 9.687-37.726 9.687-59.705 0-22.222-3.2335-42.178-9.687-59.894zm-61.254 109.9c-5.9461 13.705-14.605 24.231-25.969 31.598-11.365 7.3667-24.948 11.04-40.71 11.04s-29.331-3.6732-40.696-11.04c-11.365-7.3667-20.037-17.892-25.976-31.598-5.9393-13.705-8.9225-30.36-8.9225-50.011s2.9764-36.299 8.9225-50.004c5.9462-13.705 14.598-24.163 25.976-31.401 11.378-7.2382 24.928-10.85 40.696-10.85s29.331 3.6258 40.71 10.85c11.378 7.2246 20.016 17.71 25.969 31.401 5.9529 13.692 8.9158 30.373 8.9158 50.004s-2.9764 36.319-8.9158 50.011zm288.55 88.772-61.247-97.113-61.247-94.387v191.5h-57.378v-277.17h60.483l61.829 94.008 60.672 95.551v-189.56h57.364v277.17h-60.469zm109.07-277.17h190.72v49.619h-131.02v60.084h116.3v49.619h-116.3v68.228h138.39v49.619h-198.08zm-780.95 425.26-14.483-22.377-14.733-22.384-14.551-21.512v66.273h-15.166v-88.901h15.917l22.073 32.578 21.694 33.323v-65.901h15.166v88.901zm75.033-90.768c6.6293 0 12.596 1.0756 17.906 3.2335a38.829 38.829 0 0 1 13.739 9.3284c3.8558 4.0656 6.7984 8.9496 8.8278 14.673 2.0294 5.7229 3.0441 12.102 3.0441 19.151 0 7.0488-1.0147 13.408-3.0441 19.083-2.0294 5.6755-4.9517 10.546-8.767 14.612-3.8152 4.0655-8.3949 7.1705-13.746 9.3217-5.3508 2.1511-11.338 3.2335-17.967 3.2335-6.6294 0-12.602-1.0756-17.906-3.2335a38.964 38.964 0 0 1-13.739-9.3217c-3.8558-4.0588-6.7985-8.9496-8.8279-14.672-2.0293-5.7229-3.044-12.102-3.044-19.151 0-7.0488 1.0147-13.408 3.044-19.09 2.0294-5.6823 4.9518-10.546 8.767-14.612 3.8153-4.0656 8.3949-7.1705 13.739-9.3284s11.338-3.2335 17.974-3.2335zm0 78.957c5.6349 0 10.485-1.3056 14.544-3.9168 4.0588-2.6111 7.1706-6.3384 9.3285-11.189 2.1579-4.8502 3.2335-10.675 3.2335-17.466 0-6.8796-1.0756-12.745-3.2335-17.595-2.1579-4.8502-5.2629-8.5776-9.3285-11.189-4.0655-2.6112-8.909-3.9167-14.551-3.9167s-10.485 1.3056-14.551 3.9167c-4.0656 2.6112-7.1706 6.3385-9.3285 11.189-2.1579 4.8502-3.2335 10.675-3.2335 17.473 0 6.7985 1.0756 12.643 3.2335 17.534s5.2629 8.6452 9.3285 11.25c4.0655 2.6044 8.909 3.9167 14.551 3.9167zm74.661-22.262v34.067h-15.538v-88.894h30.583c11.52 0 20.348 2.3812 26.484 7.1435 6.1356 4.7623 9.1999 11.547 9.1999 20.328 0 5.8853-1.4882 10.925-4.4781 15.105-2.99 4.1805-7.2517 7.3125-12.806 9.3825l11.561 18.156 11.317 18.779h-18.156l-9.8831-17.162-10.262-17.033-3.105 0.1218h-14.923zm0-42.272v29.717h14.05c6.8796 0 12.061-1.1839 15.545-3.5447 3.4838-2.3609 5.2223-6.1085 5.2223-11.25 0-5.1411-1.7385-8.909-5.2223-11.317s-8.6249-3.6056-15.417-3.6056h-14.172zm61.403-12.555h73.734v13.678h-28.966v75.223h-15.795v-75.223h-28.973zm145.85 88.901v-39.668h-43.273v39.668h-15.789v-88.901h15.789v35.562h43.273v-35.562h15.789v88.901zm33.945-88.901h59.427v13.306h-43.639v23h38.917v13.306h-38.917v25.983h46.006v13.306h-61.795zm92.743 54.827v34.067h-15.538v-88.894h30.59c11.52 0 20.348 2.3812 26.484 7.1435 6.1355 4.7623 9.1999 11.547 9.1999 20.328 0 5.8853-1.4882 10.925-4.4782 15.105-2.9899 4.1805-7.2517 7.3125-12.805 9.3825l11.561 18.156 11.317 18.779h-18.156l-9.8832-17.162-10.262-17.033-3.105 0.1218h-14.923zm0-42.272v29.717h14.05c6.8796 0 12.061-1.1839 15.545-3.5447 3.4838-2.3609 5.2223-6.1085 5.2223-11.25 0-5.1411-1.7385-8.909-5.2223-11.317s-8.6249-3.6056-15.417-3.6056h-14.172zm127.93 76.346-14.483-22.377-14.733-22.384-14.544-21.512v66.273h-15.166v-88.901h15.917l22.073 32.578 21.694 33.323v-65.901h15.166v88.901h-15.917zm68.81-88.901h15.789v88.901h-15.789zm49.49 54.834v34.067h-15.545v-88.901h30.59c11.52 0 20.348 2.3812 26.484 7.1435 6.1355 4.7623 9.1999 11.547 9.1999 20.328 0 5.8853-1.4882 10.925-4.4782 15.105-2.99 4.1805-7.2517 7.3125-12.806 9.3825l11.561 18.156 11.317 18.779h-18.156l-9.8832-17.162-10.262-17.033-3.105 0.1218h-14.923zm0-42.272v29.717h14.05c6.8797 0 12.061-1.1838 15.545-3.5446 3.4838-2.3609 5.2223-6.1085 5.2223-11.25 0-5.1411-1.7385-8.909-5.2223-11.317-3.4838-2.4082-8.6182-3.6056-15.417-3.6056h-14.172zm70.542-12.562h59.434v13.306h-43.639v23h38.917v13.306h-38.917v25.99h46.006v13.299h-61.795v-88.901zm80.303 0h15.795v75.223h43.767v13.678h-59.563zm138.69 88.901-3.795-10.878-3.9167-10.756h-38.917l-3.8559 10.756-3.7273 10.878h-16.661l17.473-45.634 18.089-43.267h16.79l18.339 44.511 17.223 44.39zm-41.778-34.818h29.216l-7.2111-19.401-7.3329-19.022-7.5222 19.083zm128.62 34.818-14.483-22.377-14.733-22.384-14.544-21.512v66.273h-15.166v-88.901h15.91l22.073 32.578 21.701 33.323v-65.901h15.166v88.901h-15.917zm34.067 0v-88.901h32.45c9.2811 0 17.223 1.7385 23.812 5.2223a35.853 35.853 0 0 1 15.173 15.105c3.5243 6.5888 5.2832 14.571 5.2832 23.933 0 9.4502-1.7589 17.493-5.2832 24.123a36.056 36.056 0 0 1-15.173 15.234c-6.5888 3.5244-14.571 5.2832-23.933 5.2832zm15.789-75.473v62.045h15.667c9.2811 0 16.411-2.6517 21.383-7.9552s7.4614-13.056 7.4614-23.25c0-10.032-2.4488-17.676-7.3329-22.939s-12.021-7.8943-21.383-7.8943h-15.789z" fill="#e8504b" stroke-width="6.7646"/><path class="st0" d="m382.11 1.5156e-5v158.93h158.93v-158.93zm198.63 0v158.93h158.93v-158.93zm198.47 0v158.93h158.93v-158.93zm86.648 33.826c4.9425 0 9.5785 0.46334 14.058 1.5445 4.4792 1.0812 8.4949 2.4718 12.356 4.4798v17.298c-3.398-2.3168-7.2605-4.0164-11.276-5.252-4.1702-1.2356-8.4937-1.8528-12.664-1.6984-6.1781 0-11.431 1.08-15.756 3.3968-4.3247 2.1624-7.7233 5.7154-9.8856 9.8856-2.3168 4.3247-3.3968 9.5779-3.3968 15.756s1.08 11.582 3.3968 15.907c2.1624 4.3247 5.5615 7.7227 9.7318 10.039 4.3247 2.3168 9.4216 3.3998 15.445 3.3998 9.2672 0 17.762-2.4731 25.639-7.2611v17.059l-0.15389 0.0845c-3.7069 2.0079-8.0328 3.7093-12.821 4.7905-4.9425 1.2356-10.039 1.6984-15.445 1.6984-7.1048 0-13.592-1.0812-19.307-3.0891-5.7148-2.1624-10.5-5.0982-14.516-8.9595-4.0158-3.8613-6.951-8.6476-9.1134-14.362-2.1623-5.7148-3.0891-12.048-3.0891-19.153 0-6.9504 1.0806-13.13 3.2429-18.845 2.1623-5.5603 5.4052-10.347 9.421-14.362 4.1702-4.0158 9.1121-7.1055 14.827-9.1134 5.7148-2.1623 12.202-3.2429 19.307-3.2429zm-439.11 0.9261h33.515c9.885 0 17.608 2.0091 23.014 5.8704 5.4058 4.0158 8.1872 9.5761 8.1872 16.99 0 4.3247-0.92732 7.8759-2.9352 11.119-2.0079 3.0891-4.7874 5.5615-8.6488 7.415 5.2514 1.699 9.2654 4.4767 12.046 8.338 2.7802 3.7069 4.172 8.3411 4.172 13.747 0.15454 5.4059-1.238 10.039-4.0182 13.901s-6.6415 6.7978-11.584 8.8056c-5.097 2.0079-11.119 3.0891-18.07 3.0891h-35.678zm198.78 0h33.518c9.885 0 17.605 2.0091 23.011 5.8704 5.4059 4.0158 8.1872 9.5761 8.1872 16.99 0 4.3247-0.92733 7.8759-2.9352 11.119-2.0079 3.0891-4.7874 5.5615-8.6488 7.415 5.2514 1.699 9.2684 4.4767 12.049 8.338 2.7802 3.7069 4.169 8.3411 4.169 13.747-0.15453 5.4059-1.5433 10.039-4.169 13.901-2.7802 3.8613-6.6415 6.7978-11.584 8.8056-5.097 2.0079-11.122 3.0891-18.073 3.0891h-35.524zm-180.71 14.519v22.242h13.747c4.788 0 8.3404-1.0812 10.812-3.0891 2.4713-2.0079 3.7075-4.9425 3.7075-8.4949 0-7.1048-4.7886-10.658-14.519-10.658zm198.63 0v22.242h13.747c4.788 0 8.3405-1.0812 10.812-3.0891 2.4712-2.0079 3.7075-4.9425 3.7075-8.4949 0-7.1048-4.7886-10.658-14.519-10.658zm-198.63 36.296v24.094h15.756c5.4059 0 9.5755-1.0812 12.51-3.0891 2.9346-2.0079 4.3229-4.9413 4.3229-8.8026 0.15454-8.186-5.4046-12.202-16.525-12.202zm198.63 0v24.094h15.756c5.4058 0 9.5755-1.0812 12.51-3.0891 2.9346-2.0079 4.3259-4.9413 4.3259-8.8026 0.15453-8.186-5.4077-12.202-16.528-12.202z" clip-rule="evenodd" fill="#e8504b" fill-rule="evenodd" stroke-width="1.5445"/><link rel="stylesheet" type="text/css"/><link rel="stylesheet" type="text/css"/><style lang="en" type="text/css"/><style lang="en" type="text/css"/>

</svg>
