<svg width="901.35" height="675.68" version="1.1" viewBox="0 0 901.35 675.68" xml:space="preserve" xmlns="http://www.w3.org/2000/svg"><path d="m69.29 675.66c-5.3388-7.2e-4 -10.661-0.60213-15.865-1.7929-5.1474-1.1592-10.113-3.0153-14.758-5.517v-16.004c9.2502 5.8233 19.97 8.8872 30.9 8.8321 6.8948 0 12.207-1.2875 15.931-3.8625 3.5935-2.3172 5.7135-6.345 5.5892-10.619 0-2.575-0.55351-4.7108-1.6545-6.4135-1.1515-1.7464-2.684-3.2089-4.4822-4.2777-2.0314-1.2174-4.2113-2.1678-6.4857-2.8277l-7.6589-2.0696c-4.5165-1.0838-8.9628-2.442-13.314-4.0671-3.6779-1.3454-7.1583-3.1787-10.348-5.4509-2.8346-2.04-5.1306-4.7386-6.6902-7.8634-1.5643-3.1225-2.3464-6.9429-2.3464-11.449 0-6.0705 1.5161-11.287 4.5544-15.655 3.0383-4.3679 7.358-7.7491 12.965-10.138s12.273-3.5858 20.005-3.5858c5.0648 3e-3 10.112 0.6048 15.035 1.7929 4.5956 1.0579 9.0432 2.6785 13.242 4.8251v15.588c-3.682-2.2983-7.9777-4.1573-12.899-5.5892s-10.138-2.1358-15.655-2.1358c-6.257 0-11.13 1.1732-14.626 3.5196-3.4955 2.3464-5.2403 5.6795-5.2403 9.9992 0 3.1285 0.83027 5.5892 2.4848 7.3821 1.6545 1.7929 4.0009 3.2188 7.0332 4.2776 3.4932 1.194 7.0385 2.2299 10.625 3.1045l12.622 3.7242c3.771 1.2647 7.3456 3.053 10.619 5.3125 3.0387 2.1139 5.5233 4.9288 7.2437 8.2064 1.7448 3.309 2.6231 7.4483 2.6231 12.418 0 6.3413-1.5643 11.774-4.6928 16.28-3.1285 4.5063-7.6529 7.9777-13.585 10.414-5.9322 2.4366-12.989 3.658-21.178 3.658zm101.05 0c-7.725 0-14.644-1.1732-20.763-3.5196-6.1187-2.3464-11.287-5.7216-15.516-10.138-4.2295-4.416-7.4724-9.8127-9.7285-16.208s-3.3812-13.585-3.3812-21.587c0-7.8153 1.1732-14.873 3.5196-21.172 2.3464-6.2992 5.7035-11.702 10.071-16.208 4.3679-4.5063 9.6322-7.9537 15.793-10.348 6.1608-2.3945 13.104-3.5858 20.829-3.5858 5.517 0 10.691 0.61969 15.522 1.8651 4.7484 1.2116 9.3161 3.0443 13.585 5.4508v16.407c-3.8936-2.772-8.2002-4.912-12.761-6.3413-4.7548-1.4867-9.7103-2.2314-14.692-2.208-7.0813 0-13.128 1.4259-18.139 4.2777-5.0117 2.8518-8.8501 6.991-11.521 12.418-2.6713 5.4268-4.0009 11.912-4.0009 19.451 0 7.725 1.3116 14.277 3.9347 19.656s6.3894 9.4999 11.311 12.346c4.9214 2.8458 10.872 4.2777 17.863 4.2777 10.667 0 20.372-2.8939 29.107-8.6877v16.004c-4.049 2.4848-8.7839 4.416-14.211 5.7938-5.5012 1.3881-11.154 2.0834-16.828 2.0696zm90.288-102.77c7.3581 0 13.976 1.1973 19.866 3.5858 5.7689 2.3093 10.97 5.8394 15.246 10.348 4.2776 4.5063 7.5385 9.9331 9.7947 16.28s3.3812 13.429 3.3812 21.244-1.1251 14.873-3.3812 21.172c-2.2562 6.2992-5.499 11.702-9.7285 16.208-4.261 4.5264-9.4662 8.0593-15.246 10.348-5.9322 2.3945-12.574 3.5858-19.932 3.5858s-13.982-1.1973-19.866-3.5858c-5.768-2.311-10.969-5.8409-15.246-10.348-4.2777-4.5063-7.5446-9.9331-9.7947-16.28-2.2501-6.3473-3.3812-13.429-3.3812-21.244 0-7.8153 1.1251-14.873 3.3812-21.178s5.493-11.702 9.7285-16.208 9.3134-7.9537 15.24-10.348c5.9261-2.3945 12.574-3.5858 19.932-3.5858zm0 87.599c6.251 0 11.63-1.45 16.142-4.3438 4.5123-2.8939 7.9537-7.0332 10.348-12.418 2.3945-5.3847 3.5858-11.84 3.5858-19.379 0-7.6348-1.1973-14.139-3.5858-19.517-2.3885-5.3787-5.8419-9.5179-10.348-12.418-4.5063-2.8999-9.8849-4.3438-16.142-4.3438s-11.636 1.45-16.142 4.3438c-4.5063 2.8939-7.9537 7.0332-10.348 12.418-2.3945 5.3847-3.5858 11.84-3.5858 19.379 0 7.5386 1.1973 14.024 3.5858 19.451s5.8359 9.5841 10.348 12.484c4.5123 2.8999 9.885 4.3498 16.142 4.3498zm52.343-85.529h81.805v15.173h-32.146v83.459h-17.52v-83.459h-32.14zm99.042 0h17.52v83.459h48.558v15.173h-66.078zm154.22 98.633-4.2055-12.069-4.3438-11.931h-43.18l-4.2777 11.931-4.1393 12.069h-18.488l19.379-50.628 20.071-48.005h18.621l20.347 49.383 19.102 49.244h-18.897zm-46.35-38.625h32.416l-8.0018-21.521-8.1402-21.106-8.3447 21.172-7.9356 21.448zm143.76 38.625-16.07-24.83-16.347-24.83-16.142-23.861v73.526h-16.828v-98.639h17.658l24.487 36.14 24.072 36.971v-73.111h16.828v98.633zm37.783 0v-98.633h36.002c10.3 0 19.108 1.9313 26.418 5.7938s12.917 9.4518 16.828 16.762c3.9106 7.3099 5.86 16.166 5.86 26.556 0 10.481-1.9554 19.403-5.86 26.761-3.9047 7.358-9.5179 12.989-16.828 16.9-7.3099 3.9107-16.166 5.86-26.556 5.86zm17.52-83.736v68.834h17.381c10.3 0 18.212-2.942 23.729-8.826s8.2786-14.481 8.2786-25.792c0-11.124-2.7134-19.613-8.1402-25.455s-13.338-8.7599-23.729-8.7599z" fill="#e8504b" stroke-width="6.0164"/><link rel="stylesheet" type="text/css"/><link rel="stylesheet" type="text/css"/><style lang="en" type="text/css"/><style lang="en" type="text/css"/>

<g transform="translate(-643.14 -70.568)" fill="#e8504b"><g transform="matrix(3.0162 0 0 3.0162 2303.5 -2060.1)" style="shape-inside:url(#rect2233-6-2-9);white-space:pre" aria-label="HD"><path d="m-288.14 779.29v-12.76h-13.92v12.76h-5.08v-28.6h5.08v11.44h13.92v-11.44h5.08v28.6z"/><path d="m-276.33 779.29v-28.6h10.44q4.48 0 7.64 1.68 3.2 1.68 4.88 4.88 1.72 3.16 1.72 7.68 0 4.56-1.72 7.76-1.68 3.2-4.88 4.92-3.16 1.68-7.68 1.68zm5.08-24.28v19.96h5.04q4.48 0 6.88-2.56t2.4-7.48q0-4.84-2.36-7.36-2.36-2.56-6.88-2.56z"/></g><g transform="matrix(1.1489 0 0 1.1489 15818 4442.7)"><path d="m-12977-3529.7c-5.63-15.396-13.669-28.562-24.127-39.481s-23.063-19.282-37.799-25.132c-14.737-5.8496-31.207-8.7717-49.431-8.7717-18.225 0-34.7 2.9273-49.431 8.777-14.731 5.8496-27.331 14.223-37.795 25.132-10.463 10.908-18.501 24.079-24.126 39.481-5.624 15.402-8.431 32.783-8.431 52.128 0 19.125 2.817 36.444 8.436 51.966 5.62 15.522 13.668 28.798 24.127 39.816 10.458 11.018 23.052 19.455 37.794 25.304s31.212 8.7665 49.426 8.7665 34.699-2.9221 49.431-8.7665c14.731-5.8443 27.341-14.286 37.799-25.304s18.492-24.299 24.127-39.816c5.634-15.517 8.431-32.84 8.431-51.966 0-19.345-2.817-36.716-8.431-52.133zm-53.312 95.662c-5.179 11.93-12.715 21.089-22.602 27.504s-21.717 9.6097-35.438 9.6097-25.53-3.1997-35.422-9.6097c-9.893-6.4099-17.439-15.574-22.613-27.504s-7.766-26.425-7.766-43.529 2.592-31.594 7.766-43.529 12.705-21.031 22.613-27.331c9.908-6.2999 21.701-9.4473 35.422-9.4473s25.53 3.1526 35.438 9.4473 17.423 15.417 22.602 27.331c5.18 11.914 7.761 26.436 7.761 43.529s-2.592 31.615-7.761 43.529zm251.17 77.27-53.311-84.528-53.312-82.156v166.68h-49.939v-241.25h52.647l53.819 81.826 52.809 83.172v-165h49.933v241.25h-52.635zm94.939-241.25h166v43.188h-114.05v52.296h101.23v43.188h-101.23v59.386h120.46v43.188h-172.42v-241.25z" stroke-width="5.2369"/><path class="st0" d="m-13083-3805.6v138.34h138.34v-138.34zm172.89 0v138.34h138.34v-138.34zm172.76 0v138.34h138.34v-138.34zm75.421 29.443c4.302 0 8.337 0.4033 12.236 1.3444s7.394 2.1516 10.755 3.8993v15.056c-2.957-2.0166-6.319-3.496-9.815-4.5715-3.63-1.0756-7.393-1.6128-11.023-1.4783-5.378 0-9.95 0.94-13.715 2.9566-3.764 1.8822-6.722 4.9749-8.604 8.6048-2.017 3.7643-2.957 8.337-2.957 13.715s0.94 10.082 2.957 13.846c1.882 3.7644 4.84 6.7221 8.47 8.7387 3.765 2.0166 8.201 2.9593 13.445 2.9593 8.066 0 15.46-2.1527 22.316-6.3203v14.849l-0.134 0.073c-3.226 1.7478-6.992 3.2287-11.159 4.1698-4.302 1.0756-8.739 1.4783-13.444 1.4783-6.185 0-11.831-0.941-16.806-2.6888-4.974-1.8822-9.14-4.4376-12.635-7.7986-3.496-3.3611-6.05-7.5272-7.933-12.501-1.882-4.9744-2.688-10.487-2.688-16.671 0-6.0499 0.94-11.429 2.822-16.403 1.883-4.84 4.705-9.006 8.201-12.502 3.63-3.4955 7.931-6.1848 12.906-7.9326 4.974-1.8822 10.62-2.8227 16.805-2.8227zm-382.22 0.8061h29.172c8.605 0 15.327 1.7488 20.033 5.1099 4.705 3.4954 7.126 8.3353 7.126 14.788 0 3.7643-0.807 6.8554-2.555 9.6787-1.748 2.6888-4.167 4.841-7.528 6.4542 4.571 1.4789 8.065 3.8967 10.485 7.2578 2.42 3.2266 3.631 7.2603 3.631 11.966 0.135 4.7054-1.077 8.7387-3.497 12.1s-5.781 5.9169-10.083 7.6647c-4.437 1.7477-9.679 2.6888-15.729 2.6888h-31.055zm173.02 0h29.175c8.604 0 15.324 1.7488 20.03 5.1099 4.705 3.4954 7.126 8.3353 7.126 14.788 0 3.7643-0.807 6.8554-2.555 9.6787-1.748 2.6888-4.167 4.841-7.528 6.4542 4.571 1.4789 8.067 3.8967 10.487 7.2578 2.42 3.2266 3.629 7.2603 3.629 11.966-0.134 4.7054-1.343 8.7387-3.629 12.1-2.42 3.361-5.781 5.9169-10.083 7.6647-4.436 1.7477-9.681 2.6888-15.731 2.6888h-30.921zm-157.3 12.638v19.36h11.966c4.168 0 7.26-0.9411 9.411-2.6889 2.151-1.7476 3.227-4.302 3.227-7.3942 0-6.1843-4.168-9.2769-12.638-9.2769zm172.89 0v19.36h11.966c4.168 0 7.26-0.9411 9.411-2.6889 2.151-1.7476 3.227-4.302 3.227-7.3942 0-6.1843-4.168-9.2769-12.638-9.2769zm-172.89 31.594v20.972h13.715c4.705 0 8.335-0.9411 10.889-2.6889 2.554-1.7477 3.763-4.301 3.763-7.6621 0.134-7.1254-4.705-10.621-14.384-10.621zm172.89 0v20.972h13.715c4.705 0 8.335-0.9411 10.889-2.6889 2.554-1.7477 3.766-4.301 3.766-7.6621 0.134-7.1254-4.708-10.621-14.387-10.621z" clip-rule="evenodd" fill-rule="evenodd" stroke-width="1.3444"/></g></g></svg>
