<svg width="919.09" height="787.15" version="1.1" viewBox="0 0 919.09 787.15" xml:space="preserve" xmlns="http://www.w3.org/2000/svg"><link rel="stylesheet" type="text/css"/><link rel="stylesheet" type="text/css"/><style lang="en" type="text/css"/><style lang="en" type="text/css"/>

<path d="m3e-3 238.43h234.12v51.945h-87.214v225.21h-59.7v-225.21h-87.213zm497.72 277.16-25.775-93.814-24.607-93.801-24.03 93.801-25.587 93.814h-63.184l-37.994-137.22-34.492-139.93h65.121l20.547 107.76 22.874 105.82 49.226-201.97h58.143l23.843 99.041 24.998 98.656 22.483-103.88 20.167-105.44h63.954c-10.796 46.814-22.294 93.462-34.492 139.93l-37.988 137.22h-63.196zm411.67-198.67c-6.456-17.688-15.691-32.813-27.717-45.352-12.028-12.538-26.496-22.152-43.414-28.873-16.918-6.7202-35.853-10.083-56.784-10.083-20.929 0-39.865 3.3632-56.794 10.083-16.931 6.7203-31.388 16.34-43.409 28.873-12.02 12.532-21.26 27.663-27.71 45.352-6.45 17.688-9.704 37.668-9.704 59.893 0 21.972 3.23 41.868 9.704 59.7s15.697 33.085 27.71 45.743c12.015 12.658 26.478 22.351 43.409 29.072 16.93 6.7204 35.858 10.072 56.794 10.072 20.937 0 39.864-3.3572 56.789-10.072 16.924-6.7143 31.4-16.412 43.414-29.072 12.015-12.659 21.256-27.91 27.718-45.743 6.461-17.832 9.692-37.728 9.692-59.7 0-22.224-3.237-42.181-9.692-59.887zm-61.235 109.9c-5.95 13.706-14.614 24.228-25.979 31.598-11.365 7.3701-24.938 11.04-40.701 11.04-15.762 0-29.341-3.676-40.7-11.04s-20.029-17.892-25.979-31.598-8.916-30.358-8.916-50.008 2.966-36.297 8.916-50.008c5.951-13.711 14.596-24.161 25.979-31.399 11.384-7.2377 24.938-10.854 40.7-10.854 15.763 0 29.324 3.6218 40.701 10.854s20.029 17.712 25.979 31.399 8.905 30.371 8.905 50.008-2.978 36.321-8.905 50.008z" fill="#10a88d" stroke-width="6.0164"/><path d="m181.3 1.0812e-5v158.93h158.93v-158.93zm110.83 112.16c-2.938 4.0096-6.968 7.0907-11.61 8.8773-5.773 2.2186-11.926 3.2803-18.11 3.1252h-35.616v-89.397h33.55c9.886 0 17.544 1.979 22.974 5.9367 5.424 3.9463 8.49 10.368 8.145 17.068 0.103 3.8907-0.918 7.7285-2.92 11.065-2.097 3.2606-5.094 5.8445-8.628 7.4399 4.804 1.4303 9.035 4.3404 12.093 8.3154 2.867 4.0237 4.342 8.8757 4.196 13.815 0.13 4.9-1.296 9.715-4.074 13.754zm-22.734-43.7c2.507-2.1179 3.877-5.2864 3.707-8.5635 0-7.0844-4.82-10.627-14.463-10.629h-13.737v22.258h13.737c3.833 0.2614 7.637-0.8228 10.756-3.0656zm-8.449 17.068h-16.044v24.132h15.804c4.385 0.2724 8.752-0.7961 12.519-3.0637 2.889-1.9813 4.545-5.3172 4.376-8.8156 0-8.1672-5.55-12.251-16.655-12.253zm119.01-85.529v158.93h158.93v-158.93zm110.83 112.16c-2.941 4.0096-6.97 7.0907-11.61 8.8773-5.774 2.2186-11.928 3.2803-18.111 3.1252h-35.618v-89.397h33.548c9.887 0 17.547 1.979 22.976 5.9367 5.428 3.9463 8.49 10.368 8.145 17.068 0.103 3.8907-0.915 7.7285-2.919 11.065-2.097 3.2606-5.095 5.8445-8.63 7.4399 4.807 1.4303 9.038 4.3404 12.094 8.3154 2.869 4.0237 4.344 8.8757 4.196 13.815 0.131 4.9-1.295 9.715-4.071 13.754zm-22.733-43.7c2.507-2.1174 3.88-5.2863 3.71-8.5635 0-7.0844-4.823-10.627-14.469-10.629h-13.736v22.258h13.736c3.834 0.2614 7.638-0.8228 10.759-3.0656zm-8.449 17.068h-16.045v24.132h15.802c4.388 0.2724 8.755-0.7961 12.522-3.0637 2.887-1.9813 4.543-5.3172 4.375-8.8156 0-8.1672-5.551-12.251-16.654-12.253zm119.01 73.401h158.93v-158.93h-158.93zm114.14-40.431c-4.055 2.1775-8.384 3.8053-12.868 4.8406-5.043 1.2033-10.212 1.7997-15.398 1.777-6.568 0.095-13.102-0.9618-19.305-3.1252-5.437-1.9068-10.388-4.9814-14.509-9.0084-4.052-4.0724-7.155-8.9893-9.086-14.399-2.184-6.1548-3.255-12.65-3.158-19.18-0.09-6.4205 1.022-12.801 3.283-18.811 2.077-5.4283 5.305-10.342 9.463-14.401 4.24-4.0758 9.292-7.2087 14.828-9.193 6.217-2.2001 12.775-3.2784 19.369-3.1848 4.734-0.027 9.455 0.4882 14.072 1.5308 4.271 0.9695 8.405 2.4726 12.302 4.4734v17.403c-3.461-2.2912-7.246-4.0471-11.23-5.208-4.142-1.1988-8.433-1.7973-12.746-1.7771-5.437-0.1588-10.831 1.0202-15.709 3.4311-4.259 2.2137-7.736 5.6783-9.967 9.9277-2.445 4.9018-3.64 10.333-3.473 15.809-0.159 5.4805 0.988 10.92 3.345 15.87 2.12 4.2596 5.517 7.7511 9.716 9.9872 4.787 2.4126 10.099 3.5926 15.458 3.433 9.049 0.059 17.931-2.4494 25.614-7.2313z" fill="#10a88d" stroke-width="1.9856"/><g transform="matrix(2.47 0 0 2.47 -168 572.33)" fill="#10a88d"><g transform="matrix(1.1194 0 0 1.1194 566.73 -785.36)" style="shape-inside:url(#rect2233-6-2-9);white-space:pre" aria-label="HD"><path d="m-288.14 779.29v-12.76h-13.92v12.76h-5.08v-28.6h5.08v11.44h13.92v-11.44h5.08v28.6z"/><path d="m-276.33 779.29v-28.6h10.44q4.48 0 7.64 1.68 3.2 1.68 4.88 4.88 1.72 3.16 1.72 7.68 0 4.56-1.72 7.76-1.68 3.2-4.88 4.92-3.16 1.68-7.68 1.68zm5.08-24.28v19.96h5.04q4.48 0 6.88-2.56t2.4-7.48q0-4.84-2.36-7.36-2.36-2.56-6.88-2.56z"/></g><path d="m243.4 86.973v-13.746h-13.925v13.746h-6.8955v-32.015h6.8955v12.269h13.925v-12.269h6.8955v32.015z" font-family="'BBC Reith Sans'" font-size="40px" font-weight="bold" stroke-width="1.1194" style="white-space:pre"/><path d="m257.2 54.958h12.224q5.0597 0 8.6418 1.8806 3.6268 1.8806 5.5074 5.4627 1.8806 3.5373 1.8806 8.597t-1.9254 8.6865q-1.8806 3.5821-5.4626 5.5074-3.5821 1.8806-8.6865 1.8806h-12.179zm11.821 26.104q4.4776 0 6.8507-2.597 2.4179-2.6418 2.4179-7.5671 0-4.8806-2.3731-7.4328-2.3283-2.597-6.8507-2.597h-4.9701v20.194z" font-family="'BBC Reith Sans'" font-size="40px" font-weight="bold" stroke-width="1.1194" style="white-space:pre"/></g><g transform="translate(-16362 -193.82)" fill="#10a88d" font-family="'BBC Reith Sans'" font-size="40px" font-weight="500" stroke-width="2.7649"><path d="m16701 847.27q-4.092-14.156-8.074-28.423-3.981-14.267-7.741-28.534-3.761 14.156-7.742 28.534-3.871 14.267-7.963 28.423h-14.82q-5.862-19.354-11.17-39.151-5.309-19.797-10.065-39.925h15.152q3.207 16.147 6.746 32.405 3.65 16.147 7.632 31.631 4.202-15.262 8.073-30.414 3.982-15.152 7.631-30.304h13.825q3.65 15.041 7.521 29.972 3.87 14.931 7.963 29.861 3.981-15.373 7.52-31.299t6.747-31.852h14.82q-4.867 20.129-10.175 39.925-5.309 19.797-11.06 39.151z" style="white-space:pre"/><path d="m16799 847.27q-1.659-4.8663-3.428-9.6219-1.659-4.8663-3.429-9.6219h-34.617q-1.769 4.7557-3.428 9.6219-1.659 4.7557-3.318 9.6219h-14.82q7.631-20.792 15.484-40.589 7.962-19.797 16.147-38.488h14.93q8.406 19.797 16.258 39.594 7.963 19.797 15.373 39.483zm-37.16-30.967h25.99q-3.207-8.7372-6.415-17.253-3.207-8.516-6.525-16.921-3.428 8.4054-6.746 17.032-3.208 8.516-6.304 17.143z" style="white-space:pre"/><path d="m16824 768.19h14.046v66.911h38.93v12.166h-52.976z" style="white-space:pre"/><path d="m16888 768.19h52.866v11.834h-38.82v20.46h34.617v11.834h-34.617v23.115h40.921v11.834h-54.967z" style="white-space:pre"/><path d="m16978 848.93q-6.415 0-12.719-1.4378t-11.834-4.4239v-12.829q11.392 7.0782 24.774 7.0782 8.295 0 12.718-3.0967 4.535-3.0967 4.535-8.516 0-3.0967-1.327-5.0875-1.327-2.1013-3.65-3.4285-2.212-1.4378-5.198-2.3225-2.875-0.88477-6.083-1.659-5.861-1.4378-10.728-3.2073-4.755-1.8802-8.294-4.4239-3.429-2.5437-5.309-6.304t-1.88-9.1795q0-7.2994 3.649-12.497 3.65-5.3086 10.397-8.1842 6.746-2.8755 16.036-2.8755 6.083 0 12.055 1.4378t10.617 3.8709v12.497q-4.423-2.7649-10.396-4.4239-5.861-1.7696-12.497-1.7696-7.521 0-11.723 2.8755-4.203 2.7649-4.203 7.963 0 3.7603 1.991 5.9722 1.99 2.1013 5.64 3.4285 3.65 1.2166 8.516 2.4331 5.309 1.3272 10.064 2.9861 4.867 1.659 8.516 4.3133 3.761 2.5437 5.862 6.5252t2.101 9.9537q0 7.6312-3.76 13.05t-10.949 8.4054q-7.078 2.8755-16.921 2.8755z" style="white-space:pre"/></g></svg>
