<svg width="1301.1" height="675.67" version="1.1" viewBox="0 0 1301.1 675.67" xml:space="preserve" xmlns="http://www.w3.org/2000/svg"><path d="m503.76 316.93c-6.4676-17.688-15.703-32.813-27.718-45.358s-26.496-22.152-43.426-28.873c-16.93-6.7203-35.852-10.077-56.789-10.077s-39.865 3.3632-56.789 10.083c-16.924 6.7203-31.4 16.341-43.42 28.873-12.021 12.532-21.256 27.663-27.718 45.358-6.4616 17.694-9.6864 37.663-9.6864 59.887 0 21.972 3.2368 41.868 9.6924 59.701s15.703 33.084 27.718 45.743 26.484 22.351 43.42 29.071 35.858 10.071 56.783 10.071 39.865-3.3571 56.789-10.071c16.924-6.7143 31.412-16.413 43.426-29.071s21.244-27.916 27.718-45.743c6.4736-17.827 9.6864-37.729 9.6864-59.701 0-22.225-3.2368-42.181-9.6864-59.893zm-61.247 109.9c-5.9502 13.705-14.608 24.228-25.967 31.598-11.359 7.3701-24.95 11.04-40.713 11.04s-29.33-3.676-40.695-11.04c-11.365-7.3641-20.035-17.893-25.979-31.598-5.9442-13.705-8.9223-30.359-8.9223-50.008 0-19.65 2.9781-36.297 8.9223-50.008s14.596-24.162 25.979-31.4c11.383-7.2377 24.932-10.854 40.695-10.854s29.33 3.6219 40.713 10.854c11.383 7.2317 20.017 17.712 25.967 31.4 5.9502 13.687 8.9163 30.371 8.9163 50.008s-2.9781 36.321-8.9163 50.008zm288.55 88.772-61.247-97.111-61.247-94.385v191.5h-57.372v-277.16h60.483l61.83 94.006 60.669 95.552v-189.56h57.366v277.16h-60.471zm109.07-277.16h190.71v49.617h-131.03v60.08h116.3v49.617h-116.3v68.226h138.39v49.617h-198.08v-277.16z" fill="#e8504b" stroke-width="6.0164"/><path class="st0" d="m382.36-2.2246e-5v158.93h158.93v-158.93zm198.63 0v158.93h158.93v-158.93zm198.47 0v158.93h158.93v-158.93zm86.648 33.826c4.9425 0 9.5785 0.46334 14.058 1.5445 4.4792 1.0812 8.4949 2.4718 12.356 4.4798v17.298c-3.398-2.3168-7.2605-4.0164-11.276-5.252-4.1702-1.2356-8.4937-1.8528-12.664-1.6984-6.1781 0-11.431 1.08-15.756 3.3968-4.3247 2.1624-7.7233 5.7154-9.8856 9.8856-2.3168 4.3247-3.3968 9.5779-3.3968 15.756s1.08 11.582 3.3968 15.907c2.1624 4.3247 5.5615 7.7227 9.7318 10.039 4.3247 2.3168 9.4216 3.3998 15.445 3.3998 9.2672 0 17.762-2.4731 25.639-7.2611v17.059l-0.15389 0.0845c-3.7069 2.0079-8.0328 3.7093-12.821 4.7905-4.9425 1.2356-10.039 1.6984-15.445 1.6984-7.1048 0-13.592-1.0812-19.307-3.0891-5.7148-2.1624-10.5-5.0982-14.516-8.9595-4.0158-3.8613-6.951-8.6476-9.1134-14.362-2.1623-5.7148-3.0891-12.048-3.0891-19.153 0-6.9504 1.0806-13.13 3.2429-18.845 2.1623-5.5603 5.4052-10.347 9.421-14.362 4.1702-4.0158 9.1121-7.1055 14.827-9.1134 5.7148-2.1623 12.202-3.2429 19.307-3.2429zm-439.11 0.9261h33.515c9.885 0 17.608 2.0091 23.014 5.8704 5.4058 4.0158 8.1872 9.5761 8.1872 16.99 0 4.3247-0.92732 7.8759-2.9352 11.119-2.0079 3.0891-4.7874 5.5615-8.6488 7.415 5.2514 1.699 9.2654 4.4767 12.046 8.338 2.7802 3.7069 4.172 8.3411 4.172 13.747 0.15454 5.4059-1.238 10.039-4.0182 13.901-2.7801 3.8613-6.6415 6.7978-11.584 8.8056-5.097 2.0079-11.119 3.0891-18.07 3.0891h-35.678zm198.78 0h33.518c9.885 0 17.605 2.0091 23.011 5.8704 5.4058 4.0158 8.1872 9.5761 8.1872 16.99 0 4.3247-0.92733 7.8759-2.9352 11.119-2.0079 3.0891-4.7875 5.5615-8.6488 7.415 5.2514 1.699 9.2684 4.4767 12.049 8.338 2.7802 3.7069 4.169 8.3411 4.169 13.747-0.15454 5.4059-1.5433 10.039-4.169 13.901-2.7802 3.8613-6.6415 6.7978-11.584 8.8056-5.097 2.0079-11.122 3.0891-18.073 3.0891h-35.524zm-180.71 14.519v22.242h13.747c4.788 0 8.3404-1.0812 10.812-3.0891 2.4713-2.0079 3.7075-4.9425 3.7075-8.4949 0-7.1048-4.7886-10.658-14.519-10.658zm198.63 0v22.242h13.747c4.788 0 8.3405-1.0812 10.812-3.0891 2.4712-2.0079 3.7075-4.9425 3.7075-8.4949 0-7.1048-4.7886-10.658-14.519-10.658zm-198.63 36.296v24.094h15.756c5.4059 0 9.5755-1.0812 12.51-3.0891 2.9346-2.0079 4.3229-4.9413 4.3229-8.8026 0.15454-8.186-5.4046-12.202-16.525-12.202zm198.63 0v24.094h15.756c5.4058 0 9.5755-1.0812 12.51-3.0891 2.9346-2.0079 4.3259-4.9413 4.3259-8.8026 0.15453-8.186-5.4077-12.202-16.528-12.202z" clip-rule="evenodd" fill="#e8504b" fill-rule="evenodd" stroke-width="1.5445"/><link rel="stylesheet" type="text/css"/><link rel="stylesheet" type="text/css"/><style lang="en" type="text/css"/><style lang="en" type="text/css"/>

<g transform="translate(-38.252)" fill="#e8504b" font-family="'BBC Reith Sans'" font-size="40px" font-weight="500" letter-spacing=".092766px" stroke-width="3.4495"><path d="m87.649 675.67q-11.59 0-20.835-3.4495-9.1068-3.5875-15.454-10.211-6.3471-6.6231-9.7967-16.144-3.3115-9.6587-3.3115-21.663 0-11.728 3.4495-21.111 3.5875-9.5207 10.073-16.282 6.6231-6.7611 15.868-10.349 9.2447-3.5875 20.835-3.5875 8.2789 0 15.454 1.9317 7.313 1.7938 13.66 5.3813v16.42q-5.7952-4.1394-12.832-6.3471-6.8991-2.2077-14.626-2.2077-10.625 0-18.214 4.2774-7.451 4.2774-11.452 12.418-4.0015 8.1409-4.0015 19.455 0 11.59 3.8635 19.731 4.0015 8.0029 11.314 12.28 7.451 4.2774 17.938 4.2774 16.006 0 29.114-8.6928v16.006q-6.0712 3.7255-14.212 5.7952-8.1409 2.0697-16.834 2.0697z" style="white-space:pre"/><path d="m201.11 673.6v-44.016h-48.017v44.016h-17.524v-98.657h17.524v39.463h48.017v-39.463h17.524v98.657z" style="white-space:pre"/><path d="m310.71 673.6q-2.0697-6.0712-4.2774-12.004-2.0697-6.0712-4.2774-12.004h-43.188q-2.2077 5.9332-4.2774 12.004-2.0697 5.9332-4.1394 12.004h-18.489q9.5207-25.94 19.317-50.639 9.9346-24.699 20.145-48.017h18.627q10.487 24.699 20.283 49.397 9.9346 24.699 19.179 49.259zm-46.362-38.635h32.426q-4.0014-10.901-8.0029-21.525-4.0014-10.625-8.1409-21.111-4.2774 10.487-8.4168 21.249-4.0015 10.625-7.8649 21.387z" style="white-space:pre"/><path d="m408.45 673.6q-7.8649-12.28-16.144-24.837-8.1409-12.556-16.282-24.837t-16.144-23.871v73.544h-16.834v-98.657h17.662q12.418 17.938 24.423 36.151 12.142 18.214 24.147 36.979v-73.13h16.834v98.657z" style="white-space:pre"/><path d="m514.74 673.6q-7.8649-12.28-16.144-24.837-8.1409-12.556-16.282-24.837t-16.144-23.871v73.544h-16.834v-98.657h17.662q12.418 17.938 24.423 36.151 12.142 18.214 24.147 36.979v-73.13h16.834v98.657z" style="white-space:pre"/><path d="m555.63 574.94h65.955v14.764h-48.431v25.527h43.188v14.764h-43.188v28.838h51.053v14.764h-68.577z" style="white-space:pre"/><path d="m640.94 574.94h17.524v83.479h48.569v15.178h-66.093z" style="white-space:pre"/><path d="m754.31 574.94h17.524v98.657h-17.524z" style="white-space:pre"/><path d="m821.55 675.67q-8.0029 0-15.868-1.7938-7.8649-1.7938-14.764-5.5192v-16.006q14.212 8.8308 30.908 8.8308 10.349 0 15.868-3.8635 5.6572-3.8635 5.6572-10.625 0-3.8635-1.6558-6.3471-1.6558-2.6216-4.5534-4.2774-2.7596-1.7938-6.4851-2.8976-3.5875-1.1038-7.589-2.0697-7.313-1.7938-13.384-4.0014-5.9332-2.3457-10.349-5.5192-4.2774-3.1736-6.6231-7.8649t-2.3457-11.452q0-9.1068 4.5534-15.592 4.5534-6.6231 12.97-10.211 8.4168-3.5875 20.007-3.5875 7.589 0 15.04 1.7938t13.246 4.8293v15.592q-5.5192-3.4495-12.97-5.5192-7.313-2.2077-15.592-2.2077-9.3827 0-14.626 3.5875-5.2433 3.4495-5.2433 9.9346 0 4.6914 2.4837 7.451 2.4837 2.6216 7.037 4.2774 4.5534 1.5178 10.625 3.0356 6.6231 1.6558 12.556 3.7255 6.0712 2.0697 10.625 5.3813 4.6914 3.1736 7.313 8.1409t2.6216 12.418q0 9.5207-4.6914 16.282-4.6914 6.7611-13.66 10.487-8.8308 3.5875-21.111 3.5875z" style="white-space:pre"/><path d="m879.13 574.94h17.524v83.479h48.569v15.178h-66.093z" style="white-space:pre"/><path d="m1031 673.6q-2.0697-6.0712-4.2774-12.004-2.0697-6.0712-4.2774-12.004h-43.188q-2.2077 5.9332-4.2774 12.004-2.0697 5.9332-4.1394 12.004h-18.489q9.5207-25.94 19.317-50.639 9.9346-24.699 20.145-48.017h18.627q10.487 24.699 20.283 49.397 9.9346 24.699 19.179 49.259zm-46.362-38.635h32.426q-4.0014-10.901-8.0029-21.525-4.0014-10.625-8.1409-21.111-4.2774 10.487-8.4168 21.249-4.0015 10.625-7.8649 21.387z" style="white-space:pre"/><path d="m1128.7 673.6q-7.865-12.28-16.144-24.837-8.1409-12.556-16.282-24.837t-16.144-23.871v73.544h-16.834v-98.657h17.662q12.418 17.938 24.423 36.151 12.142 18.214 24.147 36.979v-73.13h16.834v98.657z" style="white-space:pre"/><path d="m1169.6 673.6v-98.657h36.013q15.454 0 26.354 5.7952 11.038 5.7952 16.834 16.834 5.9332 10.901 5.9332 26.492 0 15.73-5.9332 26.768-5.7952 11.038-16.834 16.972-10.901 5.7952-26.492 5.7952zm17.524-83.755v68.853h17.386q15.454 0 23.733-8.8308 8.2788-8.8308 8.2788-25.802 0-16.696-8.1409-25.389-8.1408-8.8308-23.733-8.8308z" style="white-space:pre"/><path d="m1299.9 675.67q-8.003 0-15.868-1.7938-7.8649-1.7938-14.764-5.5192v-16.006q14.212 8.8308 30.908 8.8308 10.349 0 15.868-3.8635 5.6572-3.8635 5.6572-10.625 0-3.8635-1.6558-6.3471-1.6558-2.6216-4.5534-4.2774-2.7596-1.7938-6.4851-2.8976-3.5875-1.1038-7.5889-2.0697-7.3131-1.7938-13.384-4.0014-5.9332-2.3457-10.349-5.5192-4.2774-3.1736-6.6231-7.8649t-2.3457-11.452q0-9.1068 4.5534-15.592 4.5534-6.6231 12.97-10.211 8.4169-3.5875 20.007-3.5875 7.589 0 15.04 1.7938t13.246 4.8293v15.592q-5.5192-3.4495-12.97-5.5192-7.313-2.2077-15.592-2.2077-9.3827 0-14.626 3.5875-5.2433 3.4495-5.2433 9.9346 0 4.6914 2.4837 7.451 2.4837 2.6216 7.037 4.2774 4.5534 1.5178 10.625 3.0356 6.6231 1.6558 12.556 3.7255 6.0712 2.0697 10.624 5.3813 4.6914 3.1736 7.313 8.1409 2.6217 4.9673 2.6217 12.418 0 9.5207-4.6914 16.282-4.6913 6.7611-13.66 10.487-8.8308 3.5875-21.111 3.5875z" style="white-space:pre"/></g></svg>
