<svg hola_ext_inject="disabled" version="1.1" viewBox="0 0 999 296.19" xml:space="preserve" xmlns="http://www.w3.org/2000/svg"><defs><style type="text/css">
    .fil0 {fill:#C90302}
  </style></defs><g transform="matrix(1.25 0 0 -1.25 -1543.8 -811.2)" fill="#c80201"><g transform="matrix(2.0655 0 0 -2.0655 1624.6 -608.11)"><path d="m-10.59 126.75c1.1789-1.3524 1.7683-3.2425 1.7684-5.6702-1.3e-5 -2.4276-0.58947-4.3177-1.7684-5.6702-1.1789-1.2826-2.7912-1.9239-4.8368-1.9239-2.0456 3e-5 -3.6579 0.64133-4.8368 1.9239-1.18 1.3525-1.77 3.2425-1.77 5.6702s0.58998 4.3177 1.77 5.6702c1.1789 1.2826 2.7912 1.9239 4.8368 1.9239s3.6579-0.6413 4.8368-1.9239zm-14.382 4.005c-2.4446-2.4964-3.6669-5.7212-3.6669-9.6744 0-3.9531 1.2223-7.1782 3.6669-9.6752s5.6262-3.7454 9.545-3.7455c3.9187 3e-5 7.1004 1.2485 9.545 3.7455s3.6668 5.722 3.6668 9.6752c-2.6e-5 3.9532-1.2222 7.178-3.6668 9.6744s-5.6263 3.7447-9.545 3.7447c-3.9188 0-7.1004-1.2482-9.545-3.7447z"/><path d="m74.951 114.03-0.48096 4.3994c-0.93344-0.18634-1.7599-0.27952-2.4792-0.27954-1.4673 2e-5 -2.6672 0.54648-3.5999 1.6394-0.82683 0.98716-1.2402 2.8406-1.2402 5.5603v8.4802h-4.8804v-14.16c-1e-5 -2.2664-0.13347-4.1064-0.40039-5.52h4.7607c0.2661 0.93345 0.43944 1.9336 0.52002 3.0005h0.0403c1.2793-2.2933 3.1592-3.4399 5.6396-3.4399 0.90656 2e-5 1.6134 0.10663 2.1204 0.31983z"/><path d="m93.321 108.22v8.5257c-1.238-1.7425-3.4523-2.9197-5.9563-2.9197-2.2938 0-3.7514 0.71006-5.2556 1.8686-2.4013 1.7892-3.7373 4.8445-3.7373 8.5257 0 3.3729 1.1445 6.3254 3.1534 8.1754 1.607 1.4295 3.2841 2.1022 5.8395 2.1022 2.0088 0 4.4801-0.99037 6.0731-3.0366 0.046 0.93899 0.12156 1.8687 0.23342 2.5694h4.9052c-0.26611-1.4809-0.35039-3.6158-0.35039-5.4891v-20.322h-4.9052zm-5.9563 10.161c0.3606-0.0659 0.7591 0 1.1679 0 1.6304 0 2.8637 0.48114 3.7373 1.4015 0.8829 1.0091 1.4015 2.5367 1.4015 4.438 0 1.9294-0.51858 3.3262-1.4015 4.3213-0.87362 0.9203-2.1069 1.5182-3.7373 1.5182-1.6351 0-2.901-0.59795-3.7373-1.5182-0.87362-0.99507-1.2847-2.4059-1.2847-4.3213 0-1.92 0.41117-3.429 1.2847-4.438 0.62711-0.69024 1.4869-1.2046 2.5694-1.4015z"/><path d="m52.007 128.54c0.90656-1.04 1.3598-2.4935 1.3599-4.3604-1e-5 -1.8669-0.4533-3.3203-1.3599-4.3604-0.9066-0.98631-2.1464-1.4795-3.7195-1.4795-1.5731 2e-5 -2.8129 0.49318-3.7195 1.4795-0.9074 1.0401-1.3611 2.4935-1.3611 4.3604-1e-5 1.8669 0.45369 3.3203 1.3611 4.3604 0.90657 0.98634 2.1464 1.4795 3.7195 1.4795s2.8129-0.49317 3.7195-1.4795zm-11.06 3.0798c-1.8799-1.9198-2.8198-4.3996-2.8198-7.4396s0.93994-5.52 2.8198-7.4402c1.8799-1.9202 4.3266-2.8802 7.3401-2.8803 3.0135 2e-5 5.4602 0.96011 7.3401 2.8803 1.8799 1.9202 2.8199 4.4003 2.82 7.4402-2e-5 3.04-0.94008 5.5198-2.82 7.4396-1.8799 1.9198-4.3266 2.8796-7.3401 2.8796s-5.4602-0.95988-7.3401-2.8796z"/><path d="m2.7645 115.2 3.5294-0.01 3.9941 6.415 3.9457-6.415 3.0646 0.0243-5.5627 8.7241 6.2115 9.1114h-3.4906l-4.3911-6.8649-4.1829 6.8649h-3.2437l5.9549-9.1065z" stroke="#c80201" stroke-width="1.9366"/><path d="m27.915 109.22c2.0624-1.8058 5.0786-1.6218 7.5525-0.91985-0.15493 0.73589-0.3147 1.4718-0.46961 2.2125-1.6025-0.25175-3.4713-0.62453-4.8559 0.46961-1.1958 1.0264-0.92954 2.7935-1.1474 4.2023 1.6896 0.0145 3.3841 0.0145 5.0738 0.0145-5e-3 0.75041-5e-3 1.5008 0 2.2561-1.6751 0-3.3502 5e-3 -5.0205 0.01 0.0145 5.1851 5e-3 10.375 5e-3 15.565-0.93438 5e-3 -1.8688 0.01-2.7983 0.0145v-15.589c-1.0361 5e-3 -2.0673 0.01-3.1033 0.0194 5e-3 -0.76493 5e-3 -1.5299 0.01-2.29 1.0167 5e-3 2.0431 0.01 3.0646 0.0194 0.28193-2.6073 0.15627-4.571 1.6892-5.9843z" stroke="#c80201" stroke-width="1.9366"/></g><g transform="matrix(7.4206 0 0 7.4206 -1885.9 2826.5)"><g transform="matrix(1.2104 0 0 1.2104 -58.316 -65.858)" fill="#c80201"><g transform="matrix(.40174 0 0 -.40174 363.77 -324.66)" fill="#c80201"><g transform="translate(27.667 -18.445)" fill="#c80201"><path transform="matrix(.34004 0 0 .34004 -17.938 -275.55)" d="m523.94 922.28c-1.1542-0.0146-2.3265-4e-3 -3.5 0.0312-14.885 0.45302-28.005 5.0417-38.781 13.562-5.9047 4.6687-12.061 12.326-15.625 19.406-9.6047 19.084-9.7657 44.961-0.40625 64.094 3.2103 6.5627 6.4381 11.085 11.5 16.156 10.246 10.265 22.988 15.984 39.406 17.656 2.5213 0.2568 13.983-0.07 16.531-0.4687 14.102-2.2101 25.431-7.5786 34.469-16.313 10.512-10.159 16.56-22.666 18.75-38.781 0.56228-4.1395 0.62726-14.575 0.125-18.688-1.9791-16.205-8.2766-29.509-18.719-39.594-11.354-10.965-26.437-16.843-43.75-17.062zm-0.53125 23.531c3.2018 0.0287 6.3931 0.34319 9.2812 0.9375 15.03 3.0923 24.62 13.544 27.406 29.875 1.1101 6.5034 1.1098 15.765 0 22.344-3.03 17.961-14.401 28.792-32.094 30.625-2.7973 0.2898-7.8402 0.269-10.688-0.031-9.0773-0.9578-16.256-4.1745-21.875-9.8125-5.5332-5.5522-8.7497-12.493-10.281-22.25-0.64654-4.1203-0.64201-15.008 0-19.281 0.55029-3.6684 1.6478-7.9767 2.6875-10.594 3.8611-9.7197 10.887-16.471 20.562-19.719 4.2558-1.4289 9.6636-2.1416 15-2.0938z"/><path transform="matrix(.34004 0 0 .34004 -17.938 -275.55)" d="m794.38 922.38c-6.9922-0.0197-8.892 0.13973-14.031 1.1562-21.755 4.303-38.527 19.208-45.562 40.438-3.2528 9.8154-4.5201 20.158-3.6875 30.375 1.8239 22.38 11.847 39.754 28.812 50 8.0003 4.8312 16.194 7.4286 28.031 8.8437 0.48641 0.058 4.1897 0.071 8.2188 0.031 5.7677-0.057 8.1874-0.1904 11.469-0.625 14.747-1.9512 27.555-6.3905 37.875-13.094 2.7465-1.7838 5.5938-3.8902 5.5938-4.1562 0-0.1141-2.1282-4.1223-4.7188-8.9063l-4.7188-8.6875-1.375 0.9062c-19.001 12.154-46.946 15.431-63.688 7.5-10.435-4.9432-16.505-13.51-18.812-26.562l-0.15625-0.8125h97.5l0.125-0.5625c0.75164-3.2196 1.0864-12.064 0.65625-17.25-0.61107-7.358-1.606-12.393-3.6875-18.719-6.4844-19.707-20.894-33.076-40.938-38-5.9242-1.4554-9.3743-1.8539-16.906-1.875zm-2.0625 23.25c3.7003-0.0689 7.905 0.14657 10.406 0.59375 7.2966 1.3043 12.805 3.901 17.469 8.2188 5.5534 5.1413 9.1034 12.955 9.5938 21.156l0.15625 2.7188h-72.376l0.15625-1.5c0.57764-5.526 2.8189-11.731 6-16.562 1.8413-2.7967 6.0976-7.012 9-8.9062 3.9794-2.5962 8.6613-4.3608 13.938-5.2812 1.3741-0.23987 3.436-0.39614 5.6562-0.4375z"/><path d="m194.16 70.955c0-6.4887 0.0341-10.979 0.0886-11.66 0.34852-4.3491 1.4572-7.1538 3.7335-9.4446 2.4196-2.435 5.6738-3.591 9.7058-3.448 3.2316 0.11464 5.4849 1.0034 7.2592 2.8629 1.3929 1.4599 2.2209 3.166 2.7043 5.5717 0.35303 1.7579 0.38803 2.564 0.43441 10.05 0.0606 9.753 0.22282 12.919 0.82622 16.126l0.0931 0.49397h8.3647l-0.1566-0.96635c-0.16275-1.0031-0.34126-2.6243-0.50811-4.6167-0.0581-0.6946-0.12395-4.9472-0.16408-10.608-0.066-9.3396-0.0889-10.056-0.39059-12.197-0.44945-3.1916-1.5215-6.0984-3.0231-8.1975-1.2342-1.7254-3.2792-3.5865-5.0413-4.5885-4.4188-2.5126-10.403-2.9908-15.509-1.2392-1.8512 0.63492-3.545 1.57-5.0329 2.7782-0.93329 0.75785-2.3188 2.1784-2.9072 2.9807-0.23336 0.31843-0.44719 0.57893-0.47514 0.57893-0.0278 0-0.0969-0.43492-0.15343-0.96635-0.1609-1.5138-0.50789-3.3986-0.88559-4.8099l-0.0864-0.32212h-8.2142l0.10829 0.62274c0.36624 2.1086 0.61128 4.9852 0.72572 8.5237 0.0459 1.4177 0.084 9.4287 0.0848 17.802l1e-3 15.224h8.4174v-10.552z"/><path transform="matrix(1.9914 0 0 1.9914 -933.17 -2271.5)" d="m494.56 1160.4v10.688h11.375v-10.688h-11.375zm2.9688 1.5h1.5c1.3553 0 1.5433 0.017 1.8438 0.094 0.97214 0.2486 1.603 0.9247 1.6562 1.7812 0.0453 0.7275-0.20813 1.2313-0.78125 1.5938l-0.1875 0.125 0.21875 0.062c0.55564 0.1957 1.0114 0.6109 1.25 1.0938 0.15923 0.3222 0.1875 0.3209 0.1875 0.8125 0 0.4908-0.0299 0.525-0.1875 0.8437-0.35502 0.7184-0.97389 1.1001-1.9688 1.25-0.30069 0.045-0.82817 0.062-1.9688 0.063h-1.5625v-7.7188zm1.375 1.2188v1.9687h0.5c0.26687-4e-4 0.5924-0.029 0.75-0.062 0.69401-0.1471 0.98232-0.4735 0.9375-1.0938-0.0248-0.3414-0.13516-0.5456-0.4375-0.6874-0.2258-0.1058-0.30306-0.1116-1-0.125h-0.75zm0 3.1874v2.0938h0.75c0.40925-5e-4 0.8678-0.01 1.0312-0.031 0.71945-0.104 1.125-0.4676 1.125-1.0313 0-0.3566-0.14015-0.5707-0.4375-0.75-0.35821-0.216-0.68092-0.2813-1.625-0.2813h-0.84375z"/><path transform="matrix(1.9914 0 0 1.9914 -933.17 -2271.5)" d="m507.66 1160.4v10.688h11.438v-10.688h-11.438zm3.0312 1.5h1.4688c1.6657 9e-4 1.8807 0.022 2.4062 0.2812 0.79316 0.3919 1.2218 1.1747 1.0938 2-0.0268 0.1729-0.0801 0.3987-0.125 0.5-0.099 0.2239-0.41791 0.5761-0.625 0.6876-0.15682 0.084-0.19815 0.1562-0.0937 0.1562 0.14444 0 0.74737 0.3498 0.96875 0.5625 0.48764 0.4686 0.69846 1.2158 0.53125 1.8437-0.20822 0.7823-0.81127 1.3193-1.75 1.5626-0.32753 0.085-0.50557 0.1077-2.125 0.125h-1.75v-7.7188zm1.375 1.2188v2l0.625-0.031c0.3652-0.014 0.68826-0.055 0.8125-0.094 0.50655-0.1594 0.75519-0.4627 0.75-0.9688-3e-3 -0.3177-0.0806-0.4875-0.28125-0.6562-0.22416-0.1887-0.51605-0.25-1.25-0.25h-0.65625zm0 3.1874v2.125l0.9375-0.031c0.79435-0.017 0.93158-0.011 1.1875-0.094 0.72989-0.2364 0.99452-1.0348 0.53125-1.5624-0.30393-0.3461-0.71041-0.4365-1.8438-0.4376h-0.8125z"/><path transform="matrix(1.9914 0 0 1.9914 -933.17 -2271.5)" d="m520.81 1160.4v10.688h11.406v-10.688h-11.406zm5.9375 1.4062c0.82889-0.046 1.6455 0.079 2.6562 0.4376l0.46875 0.1874v0.7188c0 0.3889 9e-3 0.6875 0 0.6875s-0.26144-0.09-0.53125-0.2187c-0.95914-0.4564-1.5903-0.6264-2.4688-0.5938-0.45988 0.017-0.62123 0.039-0.96875 0.1562-0.52537 0.1776-0.86336 0.3915-1.2188 0.75-0.48178 0.486-0.71993 1.1206-0.71875 1.8438 2e-3 0.768 0.23851 1.3405 0.75 1.8438 0.57394 0.5645 1.3203 0.8393 2.2812 0.8437 0.85161 0 1.5671-0.1856 2.4688-0.6563l0.5-0.25v1.4376l-0.28125 0.1562c-0.809 0.3728-1.5026 0.5083-2.5 0.5312-0.40334 0.01-0.85073 0.021-1 0-1.5549-0.219-2.8126-1.1353-3.375-2.4687-0.33734-0.8-0.36936-1.7362-0.0937-2.5937 0.43999-1.3691 1.6746-2.4154 3.1875-2.7188 0.28557-0.057 0.56745-0.079 0.84375-0.094z"/></g></g></g></g></g></svg>
