<svg width="1110.6" height="579.31" version="1.1" viewBox="0 0 1110.6 579.31" xml:space="preserve" xmlns="http://www.w3.org/2000/svg"><link rel="stylesheet" type="text/css"/><link rel="stylesheet" type="text/css"/><path class="st0" d="m313.2-1.3801e-5v138.34h138.34v-138.34zm172.89 0v138.34h138.34v-138.34zm172.75 0v138.34h138.34v-138.34zm75.42 29.443c4.3021 0 8.3373 0.40332 12.236 1.3444 3.8988 0.94107 7.3942 2.1516 10.755 3.8992v15.056c-2.9577-2.0166-6.3197-3.4959-9.8151-4.5714-3.6299-1.0755-7.3931-1.6128-11.023-1.4783-5.3776 0-9.9501 0.94002-13.714 2.9566-3.7643 1.8822-6.7225 4.9748-8.6046 8.6046-2.0166 3.7643-2.9566 8.3368-2.9566 13.714 0 5.3776 0.94002 10.081 2.9566 13.846 1.8821 3.7643 4.8408 6.722 8.4707 8.7385 3.7643 2.0166 8.2008 2.9592 13.444 2.9592 8.0664 0 15.46-2.1526 22.316-6.3202v14.849l-0.13394 0.0735c-3.2265 1.7477-6.9919 3.2286-11.159 4.1697-4.3021 1.0755-8.7386 1.4783-13.444 1.4783-6.1842 0-11.831-0.94107-16.805-2.6888-4.9742-1.8822-9.1397-4.4376-12.635-7.7985-3.4954-3.361-6.0503-7.527-7.9324-12.501-1.8822-4.9742-2.6888-10.487-2.6888-16.671 0-6.0498 0.94056-11.429 2.8227-16.403 1.8822-4.8398 4.7048-9.0058 8.2003-12.501 3.6299-3.4954 7.9314-6.1847 12.906-7.9324 4.9743-1.8821 10.621-2.8227 16.805-2.8227zm-382.21 0.80611h29.172c8.6041 0 15.327 1.7488 20.032 5.1097 4.7054 3.4954 7.1263 8.3352 7.1263 14.788 0 3.7643-0.80717 6.8554-2.5549 9.6786-1.7477 2.6888-4.1671 4.8409-7.5281 6.4541 4.571 1.4788 8.0648 3.8966 10.485 7.2576 2.4199 3.2265 3.6314 7.2602 3.6314 11.966 0.13451 4.7054-1.0776 8.7385-3.4975 12.1-2.4199 3.361-5.7809 5.9169-10.083 7.6646-4.4365 1.7477-9.6786 2.6888-15.728 2.6888h-31.055zm173.02 0h29.175c8.6041 0 15.324 1.7488 20.029 5.1097 4.7054 3.4954 7.1263 8.3352 7.1263 14.788 0 3.7643-0.80716 6.8554-2.5549 9.6786-1.7477 2.6888-4.1671 4.8409-7.5281 6.4541 4.5709 1.4788 8.0674 3.8966 10.487 7.2576 2.4199 3.2265 3.6288 7.2602 3.6288 11.966-0.13451 4.7054-1.3434 8.7385-3.6288 12.1-2.4199 3.361-5.7809 5.9169-10.083 7.6646-4.4365 1.7477-9.6812 2.6888-15.731 2.6888h-30.921zm-157.29 12.638v19.36h11.966c4.1676 0 7.2597-0.94108 9.4107-2.6888 2.151-1.7477 3.2271-4.302 3.2271-7.3942 0-6.1842-4.1682-9.2768-12.638-9.2768zm172.89 0v19.36h11.966c4.1676 0 7.2597-0.94108 9.4108-2.6888s3.2271-4.302 3.2271-7.3942c0-6.1842-4.1681-9.2768-12.638-9.2768zm-172.89 31.593v20.972h13.714c4.7054 0 8.3347-0.94107 10.889-2.6888 2.5543-1.7477 3.7627-4.301 3.7627-7.662 0.13451-7.1253-4.7043-10.621-14.384-10.621zm172.89 0v20.972h13.714c4.7054 0 8.3347-0.94107 10.889-2.6888 2.5544-1.7477 3.7654-4.301 3.7654-7.662 0.13451-7.1253-4.707-10.621-14.387-10.621z" clip-rule="evenodd" fill="#10a88d" fill-rule="evenodd" stroke-width="1.3444"/><style lang="en" type="text/css"/><style lang="en" type="text/css"/>

<g fill="#10a88d" stroke-width="5.8881"><path d="m155.3 207.54h203.8v45.214h-75.915v196.03h-51.968v-196.04h-75.915zm433.23 241.25-22.439-81.662-21.421-81.65-20.914 81.65-22.275 81.662h-55l-33.073-119.45-30.023-121.81h56.684l17.882 93.797 19.908 92.113 42.853-175.79h50.608l20.75 86.213 21.762 85.872 19.572-90.429 17.552-91.777h55.666c-9.3991 40.75-19.408 81.356-30.023 121.81l-33.067 119.44h-55.006zm358.34-172.93c-5.6231-15.397-13.66-28.563-24.123-39.479s-23.064-19.283-37.79-25.13c-14.726-5.8468-31.207-8.7791-49.43-8.7791s-34.698 2.9264-49.436 8.7791-27.321 14.226-37.784 25.13-18.512 24.082-24.123 39.479c-5.6113 15.397-8.4494 32.785-8.4494 52.133 0 19.124 2.8145 36.447 8.4494 51.968s13.66 28.799 24.123 39.815c10.463 11.017 23.046 19.454 37.784 25.307 14.738 5.8527 31.213 8.7673 49.436 8.7673s34.698-2.9205 49.43-8.7673 27.327-14.284 37.79-25.307c10.463-11.022 18.5-24.294 24.123-39.815 5.6231-15.521 8.4376-32.838 8.4376-51.968 0-19.342-2.8145-36.718-8.4376-52.133zm-53.305 95.658c-5.1756 11.929-12.724 21.091-22.61 27.503-9.8861 6.4121-21.709 9.6093-35.428 9.6093s-25.542-3.1972-35.428-9.6093c-9.8861-6.4121-17.429-15.574-22.61-27.503-5.1815-11.929-7.7605-26.426-7.7605-43.525s2.579-31.595 7.7605-43.525c5.1815-11.929 12.706-21.032 22.61-27.332 9.9037-6.3002 21.709-9.4445 35.428-9.4445s25.525 3.156 35.428 9.4445c9.9037 6.2884 17.429 15.415 22.61 27.332s7.7487 26.437 7.7487 43.525c0 17.087-2.5908 31.613-7.7487 43.525z"/><path d="m181.59 548.03v29.652h-13.525v-77.375h26.626c10.027 0 17.711 2.0726 23.052 6.2178 5.3405 4.1452 8.0078 10.051 8.0078 17.694 0 5.1226-1.2954 9.5092-3.8979 13.148s-6.312 6.365-11.146 8.1668l10.063 15.804 9.8507 16.345h-15.804l-8.6025-14.938-8.9322-14.826-2.7026 0.10598h-12.989zm0-36.795v25.866h12.23c5.9882 0 10.498-1.0304 13.531-3.0853 3.0324-2.0549 4.5456-5.3169 4.5456-9.7919s-1.5132-7.7546-4.5456-9.8507c-3.0324-2.0962-7.5073-3.1383-13.419-3.1383h-12.336z"/><path d="m235.04 500.31h64.18v11.906h-25.219v65.475h-13.743v-65.475h-25.219zm126.95 77.381v-34.528h-37.666v34.528h-13.743v-77.381h13.743v30.954h37.666v-30.954h13.743v77.381zm29.546-77.381h51.727v11.582h-37.984v20.019h33.874v11.582h-33.874v22.616h40.045v11.582h-53.788z"/><path d="m472.26 548.03v29.652h-13.525v-77.375h26.626c10.027 0 17.711 2.0726 23.052 6.2178 5.3405 4.1452 8.0078 10.051 8.0078 17.694 0 5.1226-1.2954 9.5092-3.8979 13.148s-6.312 6.365-11.146 8.1668l10.063 15.804 9.8507 16.345h-15.804l-8.6025-14.938-8.9322-14.826-2.7026 0.10598h-12.989zm0-36.795v25.866h12.23c5.9882 0 10.498-1.0304 13.531-3.0853 3.0324-2.0549 4.5456-5.3169 4.5456-9.7919s-1.5132-7.7546-4.5456-9.8507c-3.0324-2.0962-7.5073-3.1383-13.419-3.1383h-12.335z"/><path d="m583.61 577.69-12.606-19.478-12.824-19.484-12.659-18.724v57.685h-13.201v-77.381h13.855l19.213 28.357 18.883 29.005v-57.362h13.201v77.381h-13.855zm59.893-77.381h13.743v77.381h-13.743z"/><path d="m686.58 548.04v29.652h-13.525v-77.375h26.626c10.027 0 17.711 2.0726 23.052 6.2178 5.3405 4.1452 8.0078 10.051 8.0078 17.694 0 5.1226-1.2954 9.5092-3.8979 13.148s-6.312 6.365-11.146 8.1668l10.063 15.804 9.8507 16.345h-15.804l-8.6025-14.938-8.9322-14.826-2.7026 0.10599h-12.989zm0-36.795v25.866h12.23c5.9882 0 10.498-1.0304 13.531-3.0853 3.0324-2.0549 4.5456-5.3169 4.5456-9.7919s-1.5132-7.7546-4.5456-9.8507c-3.0324-2.0962-7.5073-3.1383-13.419-3.1383h-12.336z"/><path d="m747.98 500.31h51.733v11.582h-37.984v20.019h33.874v11.582h-33.874v22.622h40.045v11.576h-53.788v-77.381zm69.897 0h13.749v65.475h38.096v11.906h-51.844zm120.72 77.381-3.3032-9.468-3.4092-9.362h-33.874l-3.3562 9.362-3.2443 9.468h-14.502l15.209-39.721 15.745-37.66h14.614l15.963 38.743 14.991 38.638zm-36.365-30.306h25.431l-6.2767-16.887-6.3827-16.557-6.5475 16.61zm111.96 30.306-12.606-19.478-12.824-19.484-12.659-18.724v57.685h-13.201v-77.381h13.849l19.213 28.357 18.889 29.005v-57.362h13.201v77.381h-13.855zm29.652 0v-77.381h28.245c8.0784 0 14.991 1.5132 20.726 4.5456a31.207 31.207 0 0 1 13.207 13.148c3.0677 5.735 4.5986 12.683 4.5986 20.832 0 8.2256-1.5309 15.227-4.5986 20.997a31.383 31.383 0 0 1-13.207 13.26c-5.735 3.0677-12.683 4.5986-20.832 4.5986zm13.743-65.693v54.005h13.637c8.0784 0 14.284-2.3081 18.612-6.9244 4.3278-4.6162 6.4946-11.364 6.4946-20.237 0-8.732-2.1315-15.386-6.3827-19.966-4.2512-4.5809-10.463-6.8714-18.612-6.8714h-13.743z"/><path d="m116.61 498.68c5.7703 0 10.964 0.9362 15.586 2.8145 4.5251 1.8125 8.6046 4.5824 11.959 8.1196 3.3562 3.5387 5.9175 7.7899 7.6839 12.771 1.7664 4.9813 2.6496 10.534 2.6496 16.669 0 6.1354-0.88321 11.67-2.6496 16.61-1.7664 4.9401-4.3101 9.1795-7.6309 12.718s-7.3071 6.2414-11.965 8.1138c-4.6575 1.8724-9.8684 2.8145-15.639 2.8145-5.7703 0-10.969-0.9362-15.586-2.8145-4.5228-1.8141-8.6016-4.5814-11.959-8.1138-3.3562-3.5328-5.9175-7.7899-7.6839-12.771-1.7664-4.9813-2.6496-10.534-2.6496-16.669s0.88321-11.67 2.6496-16.616c1.7664-4.946 4.3101-9.1795 7.6309-12.718 3.3209-3.5387 7.3071-6.2414 11.959-8.1196 4.6516-1.8783 9.8684-2.8145 15.645-2.8145zm0 68.726c4.9048 0 9.1265-1.1364 12.659-3.4092 3.5328-2.2728 6.2414-5.5171 8.1196-9.7389 1.8783-4.2217 2.8145-9.2914 2.8145-15.203 0-5.9882-0.9362-11.093-2.8145-15.315-1.8783-4.2218-4.5809-7.4661-8.1196-9.7389s-7.7546-3.4092-12.665-3.4092-9.1265 1.1364-12.665 3.4092c-3.5387 2.2728-6.2413 5.5171-8.1196 9.7389-1.8783 4.2217-2.8145 9.2914-2.8145 15.209s0.9362 11.005 2.8145 15.262c1.8783 4.2571 4.5809 7.525 8.1196 9.7919s7.7546 3.4092 12.665 3.4092z"/><path d="m181.59 548.03v29.652h-13.525v-77.375h26.626c10.027 0 17.711 2.0726 23.052 6.2178 5.3405 4.1452 8.0078 10.051 8.0078 17.694 0 5.1226-1.2954 9.5092-3.8979 13.148s-6.312 6.365-11.146 8.1668l10.063 15.804 9.8507 16.345h-15.804l-8.6025-14.938-8.9322-14.826-2.7026 0.10598h-12.989zm0-36.795v25.866h12.23c5.9882 0 10.498-1.0304 13.531-3.0853 3.0324-2.0549 4.5456-5.3169 4.5456-9.7919s-1.5132-7.7546-4.5456-9.8507c-3.0324-2.0962-7.5073-3.1383-13.419-3.1383h-12.336z"/><path d="m235.04 500.31h64.18v11.906h-25.219v65.475h-13.743v-65.475h-25.219zm126.95 77.381v-34.528h-37.666v34.528h-13.743v-77.381h13.743v30.954h37.666v-30.954h13.743v77.381zm29.546-77.381h51.727v11.582h-37.984v20.019h33.874v11.582h-33.874v22.616h40.045v11.582h-53.788z"/><path d="m472.26 548.03v29.652h-13.525v-77.375h26.626c10.027 0 17.711 2.0726 23.052 6.2178 5.3405 4.1452 8.0078 10.051 8.0078 17.694 0 5.1226-1.2954 9.5092-3.8979 13.148s-6.312 6.365-11.146 8.1668l10.063 15.804 9.8507 16.345h-15.804l-8.6025-14.938-8.9322-14.826-2.7026 0.10598h-12.989zm0-36.795v25.866h12.23c5.9882 0 10.498-1.0304 13.531-3.0853 3.0324-2.0549 4.5456-5.3169 4.5456-9.7919s-1.5132-7.7546-4.5456-9.8507c-3.0324-2.0962-7.5073-3.1383-13.419-3.1383h-12.335z"/><path d="m583.61 577.69-12.606-19.478-12.824-19.484-12.659-18.724v57.685h-13.201v-77.381h13.855l19.213 28.357 18.883 29.005v-57.362h13.201v77.381h-13.855zm59.893-77.381h13.743v77.381h-13.743z"/><path d="m686.58 548.04v29.652h-13.525v-77.375h26.626c10.027 0 17.711 2.0726 23.052 6.2178 5.3405 4.1452 8.0078 10.051 8.0078 17.694 0 5.1226-1.2954 9.5092-3.8979 13.148s-6.312 6.365-11.146 8.1668l10.063 15.804 9.8507 16.345h-15.804l-8.6025-14.938-8.9322-14.826-2.7026 0.10599h-12.989zm0-36.795v25.866h12.23c5.9882 0 10.498-1.0304 13.531-3.0853 3.0324-2.0549 4.5456-5.3169 4.5456-9.7919s-1.5132-7.7546-4.5456-9.8507c-3.0324-2.0962-7.5073-3.1383-13.419-3.1383h-12.336z"/><path d="m747.98 500.31h51.733v11.582h-37.984v20.019h33.874v11.582h-33.874v22.622h40.045v11.576h-53.788v-77.381zm69.897 0h13.749v65.475h38.096v11.906h-51.844zm120.72 77.381-3.3032-9.468-3.4092-9.362h-33.874l-3.3562 9.362-3.2443 9.468h-14.502l15.209-39.721 15.745-37.66h14.614l15.963 38.743 14.991 38.638zm-36.365-30.306h25.431l-6.2767-16.887-6.3827-16.557-6.5475 16.61zm111.96 30.306-12.606-19.478-12.824-19.484-12.659-18.724v57.685h-13.201v-77.381h13.849l19.213 28.357 18.889 29.005v-57.362h13.201v77.381h-13.855zm29.652 0v-77.381h28.245c8.0784 0 14.991 1.5132 20.726 4.5456a31.207 31.207 0 0 1 13.207 13.148c3.0677 5.735 4.5986 12.683 4.5986 20.832 0 8.2256-1.5309 15.227-4.5986 20.997a31.383 31.383 0 0 1-13.207 13.26c-5.735 3.0677-12.683 4.5986-20.832 4.5986zm13.743-65.693v54.005h13.637c8.0784 0 14.284-2.3081 18.612-6.9244 4.3278-4.6162 6.4946-11.364 6.4946-20.237 0-8.732-2.1315-15.386-6.3827-19.966-4.2512-4.5809-10.463-6.8714-18.612-6.8714h-13.743z"/><path d="m51.297 577.69-12.606-19.478-12.824-19.484-12.665-18.724v57.685h-13.201v-77.381h13.855l19.213 28.357 18.883 29.005v-57.362h13.201v77.381z"/><path d="m181.59 548.03v29.652h-13.525v-77.375h26.626c10.027 0 17.711 2.0726 23.052 6.2178 5.3405 4.1452 8.0078 10.051 8.0078 17.694 0 5.1226-1.2954 9.5092-3.8979 13.148s-6.312 6.365-11.146 8.1668l10.063 15.804 9.8507 16.345h-15.804l-8.6025-14.938-8.9322-14.826-2.7026 0.10598h-12.989zm0-36.795v25.866h12.23c5.9882 0 10.498-1.0304 13.531-3.0853 3.0324-2.0549 4.5456-5.3169 4.5456-9.7919s-1.5132-7.7546-4.5456-9.8507c-3.0324-2.0962-7.5073-3.1383-13.419-3.1383h-12.336z"/><path d="m235.04 500.31h64.18v11.906h-25.219v65.475h-13.743v-65.475h-25.219zm126.95 77.381v-34.528h-37.666v34.528h-13.743v-77.381h13.743v30.954h37.666v-30.954h13.743v77.381zm29.546-77.381h51.727v11.582h-37.984v20.019h33.874v11.582h-33.874v22.616h40.045v11.582h-53.788z"/><path d="m472.26 548.03v29.652h-13.525v-77.375h26.626c10.027 0 17.711 2.0726 23.052 6.2178 5.3405 4.1452 8.0078 10.051 8.0078 17.694 0 5.1226-1.2954 9.5092-3.8979 13.148s-6.312 6.365-11.146 8.1668l10.063 15.804 9.8507 16.345h-15.804l-8.6025-14.938-8.9322-14.826-2.7026 0.10598h-12.989zm0-36.795v25.866h12.23c5.9882 0 10.498-1.0304 13.531-3.0853 3.0324-2.0549 4.5456-5.3169 4.5456-9.7919s-1.5132-7.7546-4.5456-9.8507c-3.0324-2.0962-7.5073-3.1383-13.419-3.1383h-12.335z"/><path d="m583.61 577.69-12.606-19.478-12.824-19.484-12.659-18.724v57.685h-13.201v-77.381h13.855l19.213 28.357 18.883 29.005v-57.362h13.201v77.381h-13.855zm59.893-77.381h13.743v77.381h-13.743z"/><path d="m686.58 548.04v29.652h-13.525v-77.375h26.626c10.027 0 17.711 2.0726 23.052 6.2178 5.3405 4.1452 8.0078 10.051 8.0078 17.694 0 5.1226-1.2954 9.5092-3.8979 13.148s-6.312 6.365-11.146 8.1668l10.063 15.804 9.8507 16.345h-15.804l-8.6025-14.938-8.9322-14.826-2.7026 0.10599h-12.989zm0-36.795v25.866h12.23c5.9882 0 10.498-1.0304 13.531-3.0853 3.0324-2.0549 4.5456-5.3169 4.5456-9.7919s-1.5132-7.7546-4.5456-9.8507c-3.0324-2.0962-7.5073-3.1383-13.419-3.1383h-12.336z"/><path d="m747.98 500.31h51.733v11.582h-37.984v20.019h33.874v11.582h-33.874v22.622h40.045v11.576h-53.788v-77.381zm69.897 0h13.749v65.475h38.096v11.906h-51.844zm120.72 77.381-3.3032-9.468-3.4092-9.362h-33.874l-3.3562 9.362-3.2443 9.468h-14.502l15.209-39.721 15.745-37.66h14.614l15.963 38.743 14.991 38.638zm-36.365-30.306h25.431l-6.2767-16.887-6.3827-16.557-6.5475 16.61zm111.96 30.306-12.606-19.478-12.824-19.484-12.659-18.724v57.685h-13.201v-77.381h13.849l19.213 28.357 18.889 29.005v-57.362h13.201v77.381h-13.855zm29.652 0v-77.381h28.245c8.0784 0 14.991 1.5132 20.726 4.5456a31.207 31.207 0 0 1 13.207 13.148c3.0677 5.735 4.5986 12.683 4.5986 20.832 0 8.2256-1.5309 15.227-4.5986 20.997a31.383 31.383 0 0 1-13.207 13.26c-5.735 3.0677-12.683 4.5986-20.832 4.5986zm13.743-65.693v54.005h13.637c8.0784 0 14.284-2.3081 18.612-6.9244 4.3278-4.6162 6.4946-11.364 6.4946-20.237 0-8.732-2.1315-15.386-6.3827-19.966-4.2512-4.5809-10.463-6.8714-18.612-6.8714h-13.743z"/></g></svg>
