<svg width="865.84" height="453.85" version="1.1" viewBox="0 0 865.84 453.85" xml:space="preserve" xmlns="http://www.w3.org/2000/svg"><link rel="stylesheet" type="text/css"/><link rel="stylesheet" type="text/css"/><style lang="en" type="text/css"/><style lang="en" type="text/css"/>

<g transform="translate(14111 3805.6)" fill="#10a88d"><path d="m-14111-3598.1h203.79v45.215h-75.914v196.03h-51.965v-196.03h-75.913zm433.23 241.25-22.435-81.659-21.419-81.648-20.916 81.648-22.272 81.659h-54.998l-33.071-119.44-30.023-121.8h56.684l17.884 93.798 19.911 92.111 42.848-175.8h50.609l20.754 86.209 21.759 85.874 19.57-90.425 17.554-91.776h55.668c-9.397 40.748-19.406 81.353-30.023 121.8l-33.066 119.44h-55.008zm358.33-172.93c-5.619-15.396-13.658-28.562-24.126-39.476-10.469-10.914-23.063-19.282-37.789-25.132-14.726-5.8495-31.207-8.7769-49.426-8.7769-18.218 0-34.7 2.9274-49.436 8.7769-14.737 5.8496-27.321 14.223-37.784 25.132-10.463 10.908-18.506 24.079-24.12 39.476-5.614 15.396-8.447 32.788-8.447 52.133 0 19.125 2.812 36.443 8.447 51.965s13.663 28.798 24.12 39.816c10.458 11.018 23.047 19.455 37.784 25.305 14.737 5.8496 31.212 8.7665 49.436 8.7665s34.699-2.9222 49.431-8.7665c14.731-5.8444 27.331-14.286 37.789-25.305s18.502-24.294 24.126-39.816 8.437-32.84 8.437-51.965c0-19.345-2.818-36.716-8.437-52.128zm-53.301 95.657c-5.179 11.93-12.72 21.089-22.613 27.504-9.892 6.4152-21.707 9.6096-35.427 9.6096s-25.54-3.1997-35.427-9.6096-17.434-15.574-22.613-27.504-7.761-26.425-7.761-43.529 2.582-31.594 7.761-43.529c5.18-11.935 12.705-21.031 22.613-27.331 9.909-6.3 21.707-9.4473 35.427-9.4473s25.524 3.1526 35.427 9.4473 17.434 15.417 22.613 27.331 7.751 26.436 7.751 43.529-2.592 31.615-7.751 43.529z" stroke-width="5.2369"/><path class="st0" d="m-13953-3805.6v138.34h138.34v-138.34zm172.89 0v138.34h138.34v-138.34zm172.75 0v138.34h138.34v-138.34zm75.42 29.443c4.302 0 8.337 0.4033 12.236 1.3444 3.899 0.941 7.394 2.1516 10.755 3.8992v15.056c-2.958-2.0166-6.32-3.4959-9.815-4.5714-3.63-1.0755-7.393-1.6128-11.023-1.4783-5.378 0-9.95 0.9401-13.714 2.9566-3.764 1.8822-6.723 4.9748-8.605 8.6046-2.016 3.7643-2.956 8.3368-2.956 13.714 0 5.3776 0.94 10.081 2.956 13.846 1.882 3.7643 4.841 6.722 8.471 8.7385 3.764 2.0166 8.201 2.9592 13.444 2.9592 8.066 0 15.46-2.1526 22.316-6.3202v14.849l-0.134 0.074c-3.226 1.7477-6.992 3.2286-11.159 4.1697-4.302 1.0755-8.738 1.4783-13.444 1.4783-6.184 0-11.831-0.9411-16.805-2.6888-4.974-1.8822-9.14-4.4376-12.635-7.7985-3.495-3.361-6.05-7.527-7.932-12.501-1.883-4.9742-2.689-10.487-2.689-16.671 0-6.0498 0.94-11.429 2.823-16.403 1.882-4.8398 4.704-9.0058 8.2-12.501 3.63-3.4954 7.931-6.1847 12.906-7.9324 4.974-1.8821 10.621-2.8227 16.805-2.8227zm-382.21 0.8061h29.172c8.604 0 15.327 1.7488 20.032 5.1097 4.706 3.4954 7.127 8.3352 7.127 14.788 0 3.7643-0.808 6.8554-2.555 9.6786-1.748 2.6888-4.167 4.8409-7.528 6.4541 4.571 1.4788 8.064 3.8966 10.485 7.2576 2.419 3.2265 3.631 7.2602 3.631 11.966 0.134 4.7054-1.078 8.7385-3.498 12.1-2.419 3.361-5.78 5.9169-10.083 7.6646-4.436 1.7477-9.678 2.6888-15.727 2.6888h-31.055zm173.02 0h29.175c8.604 0 15.324 1.7488 20.029 5.1097 4.706 3.4954 7.126 8.3352 7.126 14.788 0 3.7643-0.807 6.8554-2.554 9.6786-1.748 2.6888-4.168 4.8409-7.529 6.4541 4.571 1.4788 8.068 3.8966 10.487 7.2576 2.42 3.2265 3.629 7.2602 3.629 11.966-0.134 4.7054-1.343 8.7385-3.629 12.1-2.42 3.361-5.781 5.9169-10.083 7.6646-4.436 1.7477-9.681 2.6888-15.73 2.6888h-30.921zm-157.29 12.638v19.36h11.966c4.168 0 7.26-0.941 9.411-2.6888 2.151-1.7477 3.227-4.302 3.227-7.3942 0-6.1841-4.168-9.2767-12.638-9.2767zm172.89 0v19.36h11.966c4.168 0 7.26-0.941 9.411-2.6888 2.151-1.7477 3.227-4.302 3.227-7.3942 0-6.1841-4.168-9.2767-12.638-9.2767zm-172.89 31.593v20.972h13.714c4.706 0 8.335-0.9411 10.889-2.6888 2.555-1.7477 3.763-4.301 3.763-7.662 0.134-7.1253-4.704-10.621-14.384-10.621zm172.89 0v20.972h13.714c4.706 0 8.335-0.9411 10.889-2.6888s3.766-4.301 3.766-7.662c0.134-7.1253-4.708-10.621-14.387-10.621z" clip-rule="evenodd" fill-rule="evenodd" stroke-width="1.3444"/></g><g transform="matrix(2.6254 0 0 2.6254 1526.5 -1854.6)" fill="#10a88d" style="shape-inside:url(#rect2233-6-2-9);white-space:pre" aria-label="HD"><path d="m-288.14 779.29v-12.76h-13.92v12.76h-5.08v-28.6h5.08v11.44h13.92v-11.44h5.08v28.6z"/><path d="m-276.33 779.29v-28.6h10.44q4.48 0 7.64 1.68 3.2 1.68 4.88 4.88 1.72 3.16 1.72 7.68 0 4.56-1.72 7.76-1.68 3.2-4.88 4.92-3.16 1.68-7.68 1.68zm5.08-24.28v19.96h5.04q4.48 0 6.88-2.56t2.4-7.48q0-4.84-2.36-7.36-2.36-2.56-6.88-2.56z"/></g></svg>
