<svg width="820.51" height="416.26" version="1.1" viewBox="0 0 217.09 110.13" xmlns="http://www.w3.org/2000/svg">
 <link href="" rel="stylesheet" type="text/css"/>
 <style type="text/css"/>
 <path d="m104.06 28.282c0 4.7554-5.9197 4.4732-5.9197 4.4732h-5.9197v-8.5929h5.9197c6.0903-0.0469 5.9197 4.1197 5.9197 4.1197m-11.839-17.224h4.5152c4.6858 0.24689 4.5021 3.7336 4.5021 3.7336 0 4.3324-5.1715 4.403-5.1715 4.403h-3.8458zm10.75 9.8265s4.0427-1.7259 4.0165-6.3041c0 0 0.65628-7.5029-9.3323-8.418h-11.026v31.454h12.64s10.566 0.0312 10.566-8.8748c0 0 0.26255-6.0608-6.8647-7.8567m-28.548-20.885h46.439v43.762h-46.439zm-23.915 28.283c0 4.7554-5.9197 4.4732-5.9197 4.4732h-5.9197v-8.5929h5.9197c6.0903-0.0469 5.9197 4.1197 5.9197 4.1197m-11.839-17.224h4.5152c4.6859 0.24688 4.5021 3.7336 4.5021 3.7336 0 4.3324-5.1715 4.403-5.1715 4.403h-3.8458zm10.75 9.8265s4.0427-1.7259 4.0164-6.3041c0 0 0.65628-7.5029-9.3323-8.418h-11.026v31.454h12.64s10.566 0.0312 10.566-8.8748c0 0 0.26255-6.0608-6.8647-7.8567m-28.548-20.885h46.439v43.762h-46.439zm144.07 8.4181v5.8111s-5.6703-3.4858-11.931-3.556c0 0-11.695-0.22918-12.22 11.21 0 0-0.39375 10.52 12.076 11.119 0 0 5.2503 0.63162 12.364-3.9063v6.0182s-9.5555 5.6718-20.607 1.3034c0 0-9.293-3.3947-9.6474-14.534 0 0-0.39375-11.457 12.01-15.261 0 0 3.3077-1.2674 9.2536-0.70422 0-2.1e-4 3.557 0.35208 8.7023 2.5002m-36.962 35.344h46.439v-43.762h-46.439z" fill="#b90005" stroke-width=".15355"/>
 <g transform="matrix(1.6997 0 0 1.6997 -243.6 -1283)" fill="#fff" font-size="40px" font-weight="500" letter-spacing="0px" word-spacing="0px" aria-label="NEWS">
  <path d="m162.28 819.01q-2.28-3.56-4.68-7.2-2.36-3.64-4.72-7.2t-4.68-6.92v21.32h-4.88v-28.6h5.12q3.6 5.2 7.08 10.48 3.52 5.28 7 10.72v-21.2h4.88v28.6z"/>
  <path d="m174.02 790.41h19.12v4.28h-14.04v7.4h12.52v4.28h-12.52v8.36h14.8v4.28h-19.88z"/>
  <path d="m221.56 819.01q-1.48-5.12-2.92-10.28t-2.8-10.32q-1.36 5.12-2.8 10.32-1.4 5.16-2.88 10.28h-5.36q-2.12-7-4.04-14.16t-3.64-14.44h5.48q1.16 5.84 2.44 11.72 1.32 5.84 2.76 11.44 1.52-5.52 2.92-11 1.44-5.48 2.76-10.96h5q1.32 5.44 2.72 10.84t2.88 10.8q1.44-5.56 2.72-11.32t2.44-11.52h5.36q-1.76 7.28-3.68 14.44t-4 14.16z"/>
  <path d="m246.37 819.61q-2.32 0-4.6-0.52t-4.28-1.6v-4.64q4.12 2.56 8.96 2.56 3 0 4.6-1.12 1.64-1.12 1.64-3.08 0-1.12-0.48-1.84-0.47999-0.76-1.32-1.24-0.8-0.52-1.88-0.84-1.04-0.32-2.2-0.6-2.12-0.52-3.88-1.16-1.72-0.68-3-1.6-1.24-0.92-1.92-2.28t-0.68-3.32q0-2.64 1.32-4.52 1.32-1.92 3.76-2.96t5.8-1.04q2.2 0 4.36 0.52t3.84 1.4v4.52q-1.6-1-3.76-1.6-2.12-0.64-4.52-0.64-2.72 0-4.24 1.04-1.52 1-1.52 2.88 0 1.36 0.72 2.16 0.72 0.76 2.04 1.24 1.32 0.44 3.08 0.88 1.92 0.48 3.64 1.08 1.76 0.6 3.08 1.56 1.36 0.92 2.12 2.36t0.76 3.6q0 2.76-1.36 4.72t-3.96 3.04q-2.56 1.04-6.12 1.04z"/>
 </g>
 <g transform="matrix(1.193 0 0 1.193 -149.59 -84.847)">
  <path d="m292.78 116.99 2.271-2.0186v-11.791l-2.271-2.0344z" fill="#e48081" stroke-width="4.2055"/>
  <path d="m290.55 103.28 2.271-2.1028-0.0105 15.855-2.2605-2.3866v-4.5052h-8.9209v6.9128l-2.271-2.3919v-11.376l2.271-2.108v6.8655h8.9209z" fill="#fff" fill-rule="evenodd" stroke-width="5.2569"/>
  <path d="m292.78 116.99 2.2762-2.0186h2.8913c1.1355 0 2.0186-0.0736 2.6495-0.22583 0.62557-0.16276 1.1513-0.35747 1.5666-0.59404 0.42055-0.24181 0.80956-0.5362 1.1565-0.88315 1.125-1.1355 1.6822-2.5706 1.6822-4.3056 0-1.7085-0.57826-3.0963-1.7243-4.174-0.42581-0.39952-0.9147-0.7307-1.4667-0.98829-0.54672-0.25738-1.0619-0.42581-1.5613-0.50992-0.48889-0.0841-1.2774-0.12616-2.3709-0.12616h-2.8387l-2.2552-2.0186 5.3305-4e-3c2.1606 0 3.8691 0.32593 5.1257 0.97779 1.2564 0.64659 2.2552 1.5981 2.9964 2.8545 0.74648 1.2564 1.1197 2.6284 1.1197 4.1109 0 1.0619-0.20481 2.0765-0.61506 3.049-0.41003 0.96727-0.99355 1.8189-1.7505 2.5548-0.77277 0.75699-1.6717 1.33-2.6915 1.7138-0.59929 0.23635-1.1513 0.39952-1.6507 0.47837-0.49941 0.0791-1.4562 0.11565-2.8598 0.11565l-5.0096-4e-3z" fill="#fff" fill-rule="evenodd" stroke-width="4.2055"/>
  <path d="m281.63 117.03v-6.892l2.2605 4e-3 4e-3 4.8469-2.2657 2.0397z" fill="#e48081" stroke-width="4.2055"/>
  <path d="m283.91 108.03h-2.271v-6.86l2.271 2.1028z" fill="#e48081" stroke-width="4.2055"/>
 </g>
</svg>
