<svg width="873.05" height="200.48" version="1.1" viewBox="0 0 873.05 200.48" xml:space="preserve" xmlns="http://www.w3.org/2000/svg"><link rel="stylesheet" type="text/css"/><link rel="stylesheet" type="text/css"/><style lang="en" type="text/css"/><style lang="en" type="text/css"/>
<path class="st0" d="m303.7-4.271e-6v88.465h88.465v-88.465zm110.56 0v88.465h88.465v-88.465zm110.47 0v88.465h88.465v-88.465zm48.23 18.828c2.7511 0 5.3316 0.25791 7.8247 0.85971s4.7284 1.3759 6.8777 2.4935v9.6281c-1.8914-1.2896-4.0413-2.2356-6.2766-2.9234-2.3212-0.68777-4.7278-1.0313-7.049-0.94535-3.4389 0-6.3629 0.60112-8.7701 1.8907-2.4072 1.2036-4.2989 3.1813-5.5025 5.5025-1.2896 2.4072-1.8907 5.3312-1.8907 8.7701 0 3.4388 0.60113 6.4468 1.8907 8.854 1.2036 2.4072 3.0957 4.2986 5.4169 5.5881 2.4072 1.2896 5.2443 1.8924 8.5971 1.8924 5.1583 0 9.8864-1.3766 14.271-4.0417v9.4955l-0.0856 0.0471c-2.0633 1.1176-4.4712 2.0647-7.1363 2.6665-2.7511 0.68777-5.5882 0.94535-8.5972 0.94535-3.9547 0-7.5655-0.60181-10.746-1.7194-3.181-1.2036-5.8447-2.8377-8.08-4.987s-3.869-4.8134-5.0726-7.9943c-1.2036-3.181-1.7194-6.7061-1.7194-10.661 0-3.8687 0.60148-7.3086 1.8051-10.49 1.2036-3.095 3.0087-5.7591 5.2439-7.9943 2.3212-2.2353 5.072-3.955 8.2529-5.0726 3.181-1.2036 6.7917-1.8051 10.746-1.8051zm-244.42 0.5155h18.655c5.5022 0 9.8011 1.1183 12.81 3.2676 3.009 2.2353 4.5572 5.3302 4.5572 9.4568 0 2.4072-0.51617 4.3839-1.6338 6.1893-1.1176 1.7194-2.6648 3.0956-4.8141 4.1273 2.923 0.94568 5.1573 2.4918 6.7048 4.6411 1.5475 2.0633 2.3222 4.6428 2.3222 7.6518 0.086 3.009-0.68912 5.5882-2.2366 7.7374-1.5475 2.1493-3.6968 3.7837-6.4478 4.9014-2.8371 1.1176-6.1893 1.7194-10.058 1.7194h-19.859zm110.64 0h18.657c5.5022 0 9.7994 1.1183 12.808 3.2676 3.009 2.2353 4.5572 5.3302 4.5572 9.4568 0 2.4072-0.51616 4.3839-1.6338 6.1893-1.1176 1.7194-2.6648 3.0956-4.8141 4.1273 2.923 0.94568 5.159 2.4918 6.7064 4.6411 1.5475 2.0633 2.3206 4.6428 2.3206 7.6518-0.086 3.009-0.85904 5.5882-2.3206 7.7374-1.5475 2.1493-3.6968 3.7837-6.4479 4.9014-2.837 1.1176-6.1909 1.7194-10.06 1.7194h-19.773zm-100.59 8.0816v12.38h7.6518c2.6651 0 4.6425-0.6018 6.018-1.7194s2.0636-2.7511 2.0636-4.7284c0-3.9547-2.6654-5.9324-8.0816-5.9324zm110.56 0v12.38h7.6518c2.6651 0 4.6424-0.6018 6.018-1.7194 1.3755-1.1176 2.0636-2.7511 2.0636-4.7284 0-3.9547-2.6654-5.9324-8.0816-5.9324zm-110.56 20.203v13.411h8.7701c3.009 0 5.3299-0.60179 6.9634-1.7194s2.4062-2.7504 2.4062-4.8997c0.086-4.5565-3.0083-6.7921-9.1983-6.7921zm110.56 0v13.411h8.7701c3.009 0 5.3299-0.60179 6.9634-1.7194 1.6335-1.1176 2.4079-2.7504 2.4079-4.8997 0.086-4.5565-3.01-6.7921-9.2-6.7921z" clip-rule="evenodd" fill-rule="evenodd" stroke-width=".85971"/><g transform="matrix(1.6 0 0 1.6 .00017362 118.7)"><path d="m489.43 49.77c-3.5221-5.6443-7.0894-11.289-10.702-16.933-3.6123-5.6895-7.1797-11.198-10.702-16.527v33.459h-10.024v-48.428h10.566c3.6575 5.4637 7.2472 10.95 10.769 16.459 3.5672 5.4637 7.1119 11.018 10.634 16.662v-33.121h10.024l-2e-5 48.428z"/><path d="m427.73 0.32639q5.4863 0 9.8888 1.761 4.4703 1.761 7.5859 5.0799 3.1834 3.2511 4.8767 7.9246 1.6933 4.6058 1.6933 10.431 0 5.7572-1.6933 10.431-1.6933 4.6735-4.8767 7.9923-3.1156 3.3188-7.5859 5.0799-4.4026 1.761-9.8888 1.761t-9.9566-1.761q-4.4026-1.761-7.5859-5.0799-3.1157-3.3189-4.809-7.9923-1.6933-4.6735-1.6933-10.431 0-5.8249 1.6933-10.431 1.6933-4.6735 4.809-7.9246 3.1834-3.3188 7.5859-5.0799 4.4703-1.761 9.9566-1.761zm0 41.384q4.1316 0 7.1118-1.8965 2.9802-1.9642 4.538-5.554t1.5578-8.7374-1.5578-8.7374-4.538-5.4863-7.1118-1.8965-7.1118 1.8965-4.538 5.4863-1.5578 8.7374 1.5578 8.7374 4.538 5.554q2.9802 1.8965 7.1118 1.8965z"/><path d="m361.4 1.3424h40.91v9.076h-15.24v39.352h-10.431v-39.352h-15.24z"/><path d="m316.81 1.3424h40.91v9.076h-15.24v39.352h-10.431v-39.352h-15.24z"/><path d="m290.61 50.786q-6.5022 0-11.176-2.4383-4.6058-2.5061-7.1118-7.1795-2.4384-4.6735-2.4384-11.243v-28.583h10.431v29.734q0 5.1476 2.6415 7.9246 2.7093 2.7093 7.6537 2.7093t7.5859-2.7093q2.7093-2.777 2.7093-7.9246v-29.734h10.431v28.583q0 6.57-2.5061 11.243-2.4383 4.6735-7.1118 7.1795-4.6735 2.4383-11.108 2.4383z"/><path d="m264.24 35.818q0 4.3348-2.3029 7.4505-2.2352 3.1157-6.4345 4.809-4.1994 1.6933-10.092 1.6933h-19.845v-48.428h18.694q8.2632 0 12.801 3.2511 4.538 3.1834 4.538 9.2115 0 3.4543-1.6256 6.0281-1.6256 2.5061-4.809 3.9962 4.4026 1.4224 6.7054 4.538 2.3706 3.0479 2.3706 7.4505zm-28.583-14.562h7.6537q3.9284 0 5.9604-1.6256 2.0997-1.6933 2.0997-4.6735 0-5.7572-8.0601-5.7572h-7.6537zm0 20.658h8.8051q4.538 0 6.9764-1.6256 2.4383-1.6933 2.4383-4.8089 0-6.6377-9.2792-6.6377h-8.9406z"/><path d="m160.94 1.3424h18.491q7.6537 0 13.072 2.8447 5.4862 2.8447 8.331 8.2633 2.8447 5.3508 2.8447 13.004t-2.9125 13.14q-2.8447 5.4185-8.2633 8.331-5.4185 2.8447-13.14 2.8447h-18.423zm17.881 39.488q6.7732 0 10.363-3.9284 3.6575-3.9962 3.6575-11.447 0-7.3827-3.5898-11.243-3.522-3.9284-10.363-3.9284h-7.5182v30.547z"/><path d="m119.21 1.3424h33.324v8.6697h-22.893v10.498h20.32v8.6697h-20.32v11.921h24.18v8.6697h-34.611z"/><path d="m83.353 32.16v17.61h-10.295v-48.428h17.678q9.5502 0 14.63 3.9962 5.1476 3.9962 5.1476 11.447 0 4.809-2.3029 8.1955-2.2351 3.3866-6.4345 5.2153 3.0479 4.8089 6.0281 9.6856 2.9802 4.8089 5.9604 9.8888h-11.988q-4.8767-8.9406-10.092-17.61-0.54185 0-1.016 0zm0-8.1955h6.7732q4.8089 0 7.315-1.6933 2.5061-1.761 2.5061-5.4863 0-3.7252-2.5061-5.4863-2.4383-1.761-7.2473-1.761h-6.8409z"/></g><circle cx="40.89" cy="159.59" r="40.89" fill="#e8100d" stroke-width="1.6"/><path d="m873.05 122.58v75.752h-16.256v-59.279q-4.4432 2.2758-8.9949 4.66-4.4432 2.3842-8.453 4.66v-14.955q4.3349-2.4926 9.6451-5.2018 5.3102-2.8177 11.162-5.6353z" stroke-width="2.7093" style="white-space:pre"/></svg>
