<svg width="800" height="787.16" version="1.1" viewBox="0 0 800 787.16" xml:space="preserve" xmlns="http://www.w3.org/2000/svg"><link rel="stylesheet" type="text/css"/><link rel="stylesheet" type="text/css"/><style lang="en" type="text/css"/><style lang="en" type="text/css"/>

<path d="m265.55 316.93c-6.4681-17.688-15.704-32.813-27.718-45.358s-26.496-22.152-43.426-28.873c-16.931-6.7203-35.852-10.077-56.789-10.077-20.938 0-39.865 3.363-56.789 10.084-16.924 6.7203-31.399 16.34-43.421 28.873-12.02 12.532-21.255 27.663-27.717 45.358-6.4612 17.694-9.686 37.663-9.686 59.887 0 21.972 3.2363 41.868 9.6917 59.701 6.4566 17.833 15.702 33.084 27.718 45.743 12.015 12.658 26.483 22.351 43.42 29.071s35.858 10.071 56.783 10.071 39.864-3.357 56.789-10.071c16.924-6.7142 31.411-16.413 43.426-29.071s21.245-27.916 27.718-45.743c6.4726-17.827 9.6859-37.729 9.6859-59.701 0-22.224-3.2363-42.181-9.6859-59.893zm-61.248 109.9c-5.9499 13.705-14.608 24.228-25.966 31.598s-24.95 11.04-40.713 11.04-29.33-3.676-40.695-11.04c-11.366-7.364-20.035-17.893-25.979-31.598-5.9442-13.705-8.922-30.359-8.922-50.008s2.9778-36.297 8.922-50.008 14.596-24.162 25.979-31.4 24.931-10.854 40.695-10.854 29.33 3.6219 40.713 10.854c11.383 7.2316 20.016 17.712 25.966 31.4 5.9511 13.687 8.9163 30.371 8.9163 50.008s-2.9778 36.321-8.9163 50.008zm288.55 88.772-61.246-97.111-61.248-94.385v191.5h-57.372v-277.16h60.484l61.83 94.006 60.67 95.552v-189.56h57.366v277.16h-60.47zm109.07-277.16h190.71v49.617h-131.03v60.08h116.3v49.617h-116.3v68.226h138.39v49.617h-198.08v-277.16z" fill="#e8504b" stroke-width="6.0164"/><path d="m144.03 6.3012e-6v158.93h158.93v-158.93zm110.84 112.16c-2.9422 4.0096-6.9701 7.0908-11.61 8.8774-5.7764 2.2185-11.93 3.2803-18.112 3.1252h-35.617v-89.398h33.548c9.8871 0 17.545 1.979 22.975 5.9368 5.426 3.9463 8.49 10.368 8.1454 17.068 0.1034 3.8907-0.9168 7.7285-2.9181 11.065-2.099 3.2607-5.0963 5.8446-8.6302 7.44 4.8045 1.4303 9.038 4.3404 12.095 8.3154 2.8664 4.0239 4.3404 8.8758 4.1945 13.815 0.1309 4.9001-1.2959 9.7152-4.0704 13.754zm-22.737-43.7c2.509-2.1179 3.8773-5.2864 3.7061-8.5635 0-7.0845-4.8205-10.627-14.464-10.629h-13.736v22.258h13.736c3.8337 0.2614 7.6376-0.8229 10.758-3.0657zm-8.4464 17.068h-16.047v24.132h15.802c4.3874 0.2724 8.7542-0.7962 12.52-3.0638 2.8893-1.9813 4.546-5.3172 4.3771-8.8157 0-8.1672-5.5513-12.252-16.653-12.253zm119.01-85.53v158.93h158.93v-158.93zm110.83 112.16c-2.9387 4.0096-6.9701 7.0908-11.61 8.8774-5.7718 2.2185-11.926 3.2803-18.112 3.1252h-35.618v-89.398h33.552c9.887 0 17.545 1.979 22.976 5.9368 5.4238 3.9463 8.4877 10.368 8.1442 17.068 0.1034 3.8907-0.9179 7.7285-2.9204 11.065-2.0978 3.2607-5.0951 5.8446-8.629 7.44 4.8057 1.4303 9.0369 4.3404 12.093 8.3154 2.8687 4.0239 4.3439 8.8758 4.1968 13.815 0.1298 4.9001-1.2948 9.7152-4.0727 13.754zm-22.734-43.7c2.5068-2.1174 3.8797-5.2863 3.7097-8.5635 0-7.0845-4.8229-10.627-14.468-10.629h-13.736v22.258h13.736c3.8337 0.2614 7.6375-0.8229 10.758-3.0657zm-8.4486 17.068h-16.045v24.132h15.802c4.3886 0.2724 8.7554-0.7962 12.521-3.0638 2.8882-1.9813 4.5437-5.3172 4.376-8.8157 0-8.1672-5.5513-12.252-16.655-12.253zm119.02 73.402h158.93v-158.93h-158.93zm114.14-40.432c-4.0555 2.1776-8.3843 3.8054-12.87 4.8406-5.0434 1.2034-10.212 1.7997-15.395 1.7771-6.5703 0.095-13.105-0.9618-19.305-3.1252-5.4364-1.9068-10.391-4.9816-14.512-9.0085-4.0486-4.0725-7.1516-8.9893-9.0863-14.399-2.1817-6.1547-3.2512-12.65-3.157-19.18-0.092-6.4205 1.0213-12.801 3.2822-18.811 2.0795-5.4284 5.3077-10.342 9.4666-14.401 4.237-4.0758 9.2919-7.2088 14.825-9.1931 6.2187-2.2001 12.776-3.2784 19.371-3.1849 4.7333-0.026 9.4527 0.4883 14.072 1.5309 4.2714 0.9695 8.405 2.4725 12.302 4.4735v17.403c-3.4604-2.2913-7.2458-4.0472-11.23-5.2081-4.1417-1.1988-8.4326-1.7973-12.745-1.7771-5.4375-0.1589-10.831 1.0202-15.709 3.4311-4.2588 2.2138-7.7364 5.6784-9.9675 9.9278-2.4447 4.9018-3.6395 10.333-3.473 15.809-0.1585 5.4805 0.9881 10.92 3.3455 15.871 2.1196 4.2596 5.5168 7.7511 9.7159 9.9873 4.7872 2.4126 10.1 3.5926 15.458 3.433 9.0495 0.059 17.931-2.4495 25.615-7.2314z" fill="#eb504a" stroke-width="1.9856"/><g transform="matrix(2.47 0 0 2.47 -205.27 572.33)" fill="#e8504b"><g transform="matrix(1.1194 0 0 1.1194 566.73 -785.36)" style="shape-inside:url(#rect2233-6-2-9);white-space:pre" aria-label="HD"><path d="m-288.14 779.29v-12.76h-13.92v12.76h-5.08v-28.6h5.08v11.44h13.92v-11.44h5.08v28.6z"/><path d="m-276.33 779.29v-28.6h10.44q4.48 0 7.64 1.68 3.2 1.68 4.88 4.88 1.72 3.16 1.72 7.68 0 4.56-1.72 7.76-1.68 3.2-4.88 4.92-3.16 1.68-7.68 1.68zm5.08-24.28v19.96h5.04q4.48 0 6.88-2.56t2.4-7.48q0-4.84-2.36-7.36-2.36-2.56-6.88-2.56z"/></g><path d="m243.4 86.973v-13.746h-13.925v13.746h-6.8955v-32.015h6.8955v12.269h13.925v-12.269h6.8955v32.015z" font-family="'BBC Reith Sans'" font-size="40px" font-weight="bold" stroke-width="1.1194" style="white-space:pre"/><path d="m257.2 54.958h12.224q5.0597 0 8.6418 1.8806 3.6268 1.8806 5.5074 5.4627 1.8806 3.5373 1.8806 8.597t-1.9254 8.6865q-1.8806 3.5821-5.4626 5.5074-3.5821 1.8806-8.6865 1.8806h-12.179zm11.821 26.104q4.4776 0 6.8507-2.597 2.4179-2.6418 2.4179-7.5671 0-4.8806-2.3731-7.4328-2.3283-2.597-6.8507-2.597h-4.9701v20.194z" font-family="'BBC Reith Sans'" font-size="40px" font-weight="bold" stroke-width="1.1194" style="white-space:pre"/></g><g transform="translate(-8208.1 -193.82)" fill="#eb504a" font-family="'BBC Reith Sans'" font-size="40px" font-weight="500" stroke-width="2.7649"><path d="m8356.2 848.93q-6.4146 0-12.719-1.4378-6.3041-1.4378-11.834-4.4239v-12.829q11.392 7.0782 24.774 7.0782 8.2948 0 12.719-3.0967 4.5345-3.0967 4.5345-8.516 0-3.0967-1.3272-5.0875-1.3271-2.1013-3.6497-3.4285-2.2119-1.4378-5.198-2.3225-2.8755-0.88477-6.0828-1.659-5.8617-1.4378-10.728-3.2073-4.7557-1.8802-8.2948-4.4239-3.4285-2.5437-5.3087-6.304-1.8801-3.7603-1.8801-9.1795 0-7.2994 3.6497-12.497 3.6497-5.3086 10.396-8.1842t16.037-2.8755q6.0828 0 12.055 1.4378t10.617 3.8709v12.497q-4.4239-2.7649-10.396-4.4239-5.8616-1.7696-12.497-1.7696-7.5206 0-11.723 2.8755-4.2027 2.7649-4.2027 7.963 0 3.7603 1.9907 5.9722 1.9908 2.1013 5.6405 3.4285 3.6497 1.2166 8.516 2.4331 5.3086 1.3272 10.064 2.9861 4.8662 1.659 8.5159 4.3133 3.7603 2.5437 5.8617 6.5252 2.1013 3.9815 2.1013 9.9537 0 7.6312-3.7603 13.05t-10.949 8.4054q-7.0782 2.8755-16.921 2.8755z" style="white-space:pre"/><path d="m8438.1 848.93q-9.2901 0-16.7-2.7649-7.2994-2.8755-12.387-8.1842-5.0874-5.3086-7.8523-12.94-2.6544-7.7418-2.6544-17.364 0-9.4007 2.765-16.921 2.8755-7.6312 8.0735-13.05 5.3087-5.4192 12.719-8.2948t16.7-2.8755q6.6358 0 12.387 1.5484 5.8616 1.4378 10.949 4.3133v13.161q-4.645-3.3179-10.286-5.0875-5.5298-1.7696-11.723-1.7696-8.516 0-14.599 3.4285-5.9723 3.4285-9.1796 9.9537t-3.2073 15.594q0 9.2901 3.0967 15.815 3.2073 6.4146 9.069 9.8431 5.9722 3.4285 14.378 3.4285 12.829 0 23.336-6.9676v12.829q-4.8662 2.9861-11.392 4.6451-6.5252 1.659-13.493 1.659z" style="white-space:pre"/><path d="m8510.2 766.54q8.8477 0 15.926 2.8755t12.166 8.2948q5.198 5.4192 7.8524 13.05 2.7649 7.6312 2.7649 17.032 0 9.4007-2.7649 17.032-2.6544 7.5206-7.7418 12.94-5.0875 5.4192-12.276 8.2948-7.0782 2.8755-15.926 2.8755t-15.926-2.8755-12.276-8.2948q-5.0875-5.4192-7.8524-13.05-2.6543-7.6312-2.6543-17.032 0-9.4007 2.6543-16.921 2.7649-7.6312 7.8524-13.05 5.0874-5.4192 12.166-8.2948 7.1888-2.8755 16.037-2.8755zm0 70.229q7.5206 0 12.94-3.4285 5.4193-3.5391 8.2948-9.9537 2.8755-6.5252 2.8755-15.594 0-9.1795-2.8755-15.594-2.8755-6.5252-8.2948-9.9537-5.4192-3.5391-12.94-3.5391t-12.94 3.5391q-5.4192 3.4285-8.2947 9.9537-2.8756 6.4146-2.8756 15.484 0 9.069 2.8756 15.594 2.8755 6.5252 8.2947 10.064 5.4193 3.4285 12.94 3.4285z" style="white-space:pre"/><path d="m8552.4 768.19h65.584v12.166h-25.769v66.911h-14.046v-66.911h-25.769z" style="white-space:pre"/><path d="m8629.1 768.19h14.046v66.911h38.93v12.166h-52.976z" style="white-space:pre"/><path d="m8750.5 847.27q-1.659-4.8663-3.4286-9.6219-1.6589-4.8663-3.4285-9.6219h-34.617q-1.7695 4.7557-3.4285 9.6219-1.6589 4.7557-3.3179 9.6219h-14.82q7.6312-20.792 15.484-40.589 7.963-19.797 16.147-38.488h14.931q8.4054 19.797 16.258 39.594 7.9629 19.797 15.373 39.483zm-37.161-30.967h25.99q-3.2073-8.7372-6.4147-17.253-3.2073-8.516-6.5252-16.921-3.4285 8.4054-6.7464 17.032-3.2073 8.516-6.304 17.143z" style="white-space:pre"/><path d="m8828.6 847.27q-6.3041-9.8431-12.94-19.907-6.5252-10.064-13.05-19.907t-12.94-19.133v58.948h-13.493v-79.077h14.156q9.9538 14.378 19.576 28.976 9.7325 14.599 19.354 29.64v-58.616h13.493v79.077z" style="white-space:pre"/><path d="m8861.1 847.27v-79.077h28.866q12.387 0 21.124 4.6451 8.8477 4.6451 13.493 13.493 4.7557 8.7372 4.7557 21.235 0 12.608-4.7557 21.456-4.6451 8.8478-13.493 13.603-8.7372 4.6451-21.235 4.6451zm14.046-67.132v55.188h13.935q12.387 0 19.023-7.0782t6.6358-20.682q0-13.382-6.5252-20.35-6.5252-7.0782-19.023-7.0782z" style="white-space:pre"/></g></svg>
