<svg width="1028" height="653.45" version="1.1" viewBox="0 0 1028 653.45" xml:space="preserve" xmlns="http://www.w3.org/2000/svg"><link rel="stylesheet" type="text/css"/><link rel="stylesheet" type="text/css"/><style lang="en" type="text/css"/><style lang="en" type="text/css"/>

<path d="m0.0069 238.44h184.89v49.619h-125.2v68.213h110.48v49.625h-110.48v109.69h-59.693v-277.15zm343.45-5.8217c20.924 0 39.853 3.367 56.787 10.081 16.934 6.7143 31.399 16.343 43.411 28.872 12.011 12.53 21.265 27.664 27.717 45.352 6.4508 17.688 9.6998 37.667 9.6998 59.891 0 21.974-3.2352 41.868-9.6998 59.701-6.4657 17.832-15.693 33.086-27.717 45.74s-26.483 22.354-43.411 29.069-35.862 10.081-56.787 10.081c-20.924 0-39.873-3.354-56.794-10.075-16.92-6.7208-31.399-16.415-43.417-29.069-12.017-12.654-21.265-27.915-27.716-45.74-6.452-17.826-9.694-37.726-9.694-59.701 0-22.223 3.2225-42.176 9.694-59.891 6.4715-17.714 15.692-32.817 27.716-45.353s26.483-22.151 43.417-28.872 35.85-10.088 56.794-10.088zm0 236.84c15.752 0 29.319-3.6755 40.692-11.04 11.375-7.364 20.024-17.891 25.978-31.596 5.9534-13.705 8.914-30.363 8.914-50.007s-2.9733-36.302-8.914-50.007c-5.9395-13.705-14.603-24.16-25.978-31.4-11.374-7.2392-24.94-10.849-40.692-10.849s-29.345 3.6231-40.713 10.849c-11.367 7.2263-20.024 17.708-25.978 31.4-5.9533 13.691-8.9059 30.369-8.9059 50.007s2.9664 36.321 8.9059 50.007c5.9396 13.684 14.603 24.232 25.978 31.596 11.375 7.3641 24.942 11.04 40.713 11.04zm290.72 51.942c-24.796 0-46.061-4.7125-63.762-14.144-17.702-9.4315-31.267-23.064-40.699-40.89-9.4321-17.826-14.145-39.288-14.145-64.354v-163.58h59.688v170.16c0 19.644 5.1124 34.694 15.312 45.162 10.2 10.469 24.737 15.693 43.607 15.693s33.401-5.231 43.608-15.693c10.205-10.462 15.312-25.518 15.312-45.162v-170.16h59.701v163.58c0 25.072-4.7126 46.522-14.145 64.354-9.431 17.832-23.07 31.465-40.903 40.89-17.831 9.425-39.012 14.144-63.573 14.144zm219.79-106.59v100.78h-58.92v-277.15h101.17c36.439 0 64.413 7.6136 83.92 22.861 19.506 15.247 29.273 37.09 29.273 65.509 0 18.358-4.3323 33.992-12.976 46.909s-21.002 22.874-37.018 29.85l34.491 55.237 34.116 56.787h-68.607c-18.541-33.998-37.801-67.599-57.766-100.78h-47.676zm0-46.915h38.762c18.339 0 32.299-3.2948 41.862-9.8845 9.563-6.5896 14.347-16.993 14.347-31.209s-4.7194-24.671-14.145-31.4c-9.4241-6.7275-23.318-10.075-41.67-10.075h-39.157v82.56z" fill="#7831eb" stroke-width="6.5634"/><path d="m235.88-1.454e-5v158.93h158.93v-158.93zm110.83 112.16c-2.9399 4.0096-6.9701 7.0907-11.61 8.8773-5.7741 2.2185-11.927 3.2803-18.112 3.1252h-35.616v-89.397h33.55c9.8859 0 17.544 1.979 22.974 5.9367 5.426 3.9463 8.49 10.368 8.1454 17.068 0.1034 3.8907-0.9168 7.7284-2.9193 11.065-2.0978 3.2606-5.0951 5.8444-8.629 7.4399 4.8045 1.4303 9.0369 4.3403 12.094 8.3153 2.8675 4.0238 4.3415 8.8757 4.1956 13.815 0.131 4.9-1.2959 9.7151-4.0727 13.754zm-22.735-43.7c2.5068-2.1179 3.8773-5.2865 3.7062-8.5636 0-7.0844-4.8206-10.627-14.463-10.629h-13.736v22.258h13.736c3.8325 0.2613 7.6364-0.8228 10.757-3.0656zm-8.4487 17.068h-16.044v24.132h15.802c4.3864 0.2724 8.7531-0.7962 12.519-3.0638 2.8894-1.9813 4.546-5.3171 4.3771-8.8156 0-8.1672-5.5512-12.251-16.655-12.253zm119.01-85.529v158.93h158.93v-158.93zm110.83 112.16c-2.9411 4.0096-6.9701 7.0907-11.61 8.8773-5.7742 2.2185-11.929 3.2803-18.112 3.1252h-35.618v-89.397h33.55c9.887 0 17.545 1.979 22.976 5.9367 5.426 3.9463 8.49 10.368 8.1442 17.068 0.1034 3.8907-0.9156 7.7284-2.9181 11.065-2.0989 3.2606-5.0963 5.8444-8.6302 7.4399 4.8057 1.4303 9.0381 4.3403 12.094 8.3153 2.8687 4.0238 4.3427 8.8757 4.1956 13.815 0.131 4.9-1.2947 9.7151-4.0715 13.754zm-22.734-43.7c2.5068-2.1175 3.8797-5.2864 3.7096-8.5636 0-7.0844-4.8229-10.627-14.468-10.629h-13.736v22.258h13.736c3.8338 0.2613 7.6376-0.8228 10.758-3.0656zm-8.4487 17.068h-16.045v24.132h15.802c4.3886 0.2724 8.7554-0.7962 12.521-3.0638 2.8882-1.9813 4.5437-5.3171 4.3759-8.8156 0-8.1672-5.5512-12.251-16.655-12.253zm119.01 73.401h158.93v-158.93h-158.93zm114.14-40.431c-4.0555 2.1775-8.3843 3.8053-12.87 4.8405-5.0434 1.2034-10.212 1.7997-15.397 1.7771-6.568 0.095-13.103-0.9618-19.305-3.1252-5.4364-1.9068-10.389-4.9815-14.51-9.0084-4.0509-4.0725-7.1539-8.9893-9.0863-14.399-2.1839-6.1548-3.2535-12.65-3.157-19.18-0.092-6.4204 1.0213-12.801 3.2823-18.811 2.0771-5.4284 5.3054-10.342 9.4642-14.401 4.2393-4.0758 9.2919-7.2087 14.827-9.193 6.2164-2.2001 12.775-3.2784 19.368-3.1849 4.7344-0.026 9.4551 0.4883 14.072 1.5309 4.2714 0.9695 8.405 2.4725 12.302 4.4734v17.403c-3.4603-2.2911-7.2458-4.047-11.23-5.208-4.1416-1.1988-8.4326-1.7972-12.745-1.777-5.4375-0.1589-10.831 1.0202-15.709 3.4311-4.2588 2.2137-7.7364 5.6783-9.9675 9.9276-2.4447 4.9019-3.6395 10.333-3.4729 15.809-0.1586 5.4805 0.988 10.92 3.3454 15.87 2.1197 4.2596 5.5168 7.7511 9.7159 9.9872 4.7872 2.4126 10.1 3.5926 15.458 3.433 9.0495 0.059 17.931-2.4495 25.615-7.2313z" fill="#7831eb" stroke-width="1.9856"/><g transform="matrix(2.47 0 0 2.47 -113.42 438.62)" fill="#7831eb"><g transform="matrix(1.1194 0 0 1.1194 566.73 -785.36)" style="shape-inside:url(#rect2233-6-2-9);white-space:pre" aria-label="HD"><path d="m-288.14 779.29v-12.76h-13.92v12.76h-5.08v-28.6h5.08v11.44h13.92v-11.44h5.08v28.6z"/><path d="m-276.33 779.29v-28.6h10.44q4.48 0 7.64 1.68 3.2 1.68 4.88 4.88 1.72 3.16 1.72 7.68 0 4.56-1.72 7.76-1.68 3.2-4.88 4.92-3.16 1.68-7.68 1.68zm5.08-24.28v19.96h5.04q4.48 0 6.88-2.56t2.4-7.48q0-4.84-2.36-7.36-2.36-2.56-6.88-2.56z"/></g><path d="m243.4 86.973v-13.746h-13.925v13.746h-6.8955v-32.015h6.8955v12.269h13.925v-12.269h6.8955v32.015z" font-family="'BBC Reith Sans'" font-size="40px" font-weight="bold" stroke-width="1.1194" style="white-space:pre"/><path d="m257.2 54.958h12.224q5.0597 0 8.6418 1.8806 3.6268 1.8806 5.5074 5.4627 1.8806 3.5373 1.8806 8.597t-1.9254 8.6865q-1.8806 3.5821-5.4626 5.5074-3.5821 1.8806-8.6865 1.8806h-12.179zm11.821 26.104q4.4776 0 6.8507-2.597 2.4179-2.6418 2.4179-7.5671 0-4.8806-2.3731-7.4328-2.3283-2.597-6.8507-2.597h-4.9701v20.194z" font-family="'BBC Reith Sans'" font-size="40px" font-weight="bold" stroke-width="1.1194" style="white-space:pre"/></g></svg>
