<svg width="800" height="675.67" version="1.1" viewBox="0 0 800 675.67" xml:space="preserve" xmlns="http://www.w3.org/2000/svg"><path d="m265.55 316.93c-6.4676-17.688-15.703-32.813-27.718-45.358s-26.496-22.152-43.426-28.873c-16.93-6.7203-35.852-10.077-56.789-10.077s-39.865 3.3632-56.789 10.083c-16.924 6.7203-31.4 16.341-43.42 28.873-12.021 12.532-21.256 27.663-27.718 45.358-6.4616 17.694-9.6864 37.663-9.6864 59.887 0 21.972 3.2368 41.868 9.6924 59.701s15.703 33.084 27.718 45.743 26.484 22.351 43.42 29.071 35.858 10.071 56.783 10.071 39.865-3.3571 56.789-10.071c16.924-6.7143 31.412-16.413 43.426-29.071s21.244-27.916 27.718-45.743c6.4736-17.827 9.6864-37.729 9.6864-59.701 0-22.225-3.2368-42.181-9.6864-59.893zm-61.247 109.9c-5.9502 13.705-14.608 24.228-25.967 31.598-11.359 7.3701-24.95 11.04-40.713 11.04s-29.33-3.676-40.695-11.04c-11.365-7.3641-20.035-17.893-25.979-31.598-5.9442-13.705-8.9223-30.359-8.9223-50.008 0-19.65 2.9781-36.297 8.9223-50.008s14.596-24.162 25.979-31.4c11.383-7.2377 24.932-10.854 40.695-10.854s29.33 3.6219 40.713 10.854c11.383 7.2317 20.017 17.712 25.967 31.4 5.9502 13.687 8.9163 30.371 8.9163 50.008s-2.9781 36.321-8.9163 50.008zm288.55 88.772-61.247-97.111-61.247-94.385v191.5h-57.372v-277.16h60.483l61.83 94.006 60.669 95.552v-189.56h57.366v277.16h-60.471zm109.07-277.16h190.71v49.617h-131.03v60.08h116.3v49.617h-116.3v68.226h138.39v49.617h-198.08v-277.16zm-532.63 437.22a71.174 71.174 0 0 1-15.865-1.7929 57.998 57.998 0 0 1-14.758-5.517v-16.004a57.457 57.457 0 0 0 30.9 8.8321c6.8948 0 12.207-1.2875 15.931-3.8625a12.213 12.213 0 0 0 5.5892-10.619c0-2.575-0.55351-4.7108-1.6545-6.4135a13.838 13.838 0 0 0-4.4822-4.2777 27.555 27.555 0 0 0-6.4857-2.8277l-7.6589-2.0696a114.25 114.25 0 0 1-13.314-4.0671 43.727 43.727 0 0 1-10.348-5.4509 21.539 21.539 0 0 1-6.6902-7.8634c-1.5643-3.1225-2.3464-6.9429-2.3464-11.449 0-6.0705 1.5161-11.287 4.5544-15.655 3.0383-4.3679 7.358-7.7491 12.965-10.138s12.273-3.5858 20.005-3.5858a64.255 64.255 0 0 1 15.035 1.7929 57.354 57.354 0 0 1 13.242 4.8251v15.588c-3.682-2.2983-7.9777-4.1573-12.899-5.5892s-10.138-2.1358-15.655-2.1358c-6.257 0-11.13 1.1732-14.626 3.5196-3.4955 2.3464-5.2403 5.6795-5.2403 9.9992 0 3.1285 0.83027 5.5892 2.4848 7.3821 1.6545 1.7929 4.0009 3.2188 7.0332 4.2776a122.79 122.79 0 0 0 10.625 3.1045l12.622 3.7242a42.458 42.458 0 0 1 10.619 5.3125 23.043 23.043 0 0 1 7.2437 8.2064c1.7448 3.309 2.6231 7.4483 2.6231 12.418 0 6.3413-1.5643 11.774-4.6928 16.28-3.1285 4.5063-7.6529 7.9777-13.585 10.414-5.9322 2.4366-12.989 3.658-21.178 3.658zm101.05 0c-7.725 0-14.644-1.1732-20.763-3.5196-6.1187-2.3464-11.287-5.7216-15.516-10.138-4.2295-4.416-7.4724-9.8127-9.7285-16.208s-3.3812-13.585-3.3812-21.587c0-7.8153 1.1732-14.873 3.5196-21.172 2.3464-6.2992 5.7035-11.702 10.071-16.208 4.3679-4.5063 9.6322-7.9537 15.793-10.348 6.1608-2.3945 13.104-3.5858 20.829-3.5858 5.517 0 10.691 0.61969 15.522 1.8651a55.712 55.712 0 0 1 13.585 5.4508v16.407a45.424 45.424 0 0 0-12.761-6.3413 48.468 48.468 0 0 0-14.692-2.208c-7.0813 0-13.128 1.4259-18.139 4.2777-5.0117 2.8518-8.8501 6.991-11.521 12.418-2.6713 5.4268-4.0009 11.912-4.0009 19.451 0 7.725 1.3116 14.277 3.9347 19.656s6.3894 9.4999 11.311 12.346c4.9214 2.8458 10.872 4.2777 17.863 4.2777 10.667 0 20.372-2.8939 29.107-8.6877v16.004c-4.049 2.4848-8.7839 4.416-14.211 5.7938a68.106 68.106 0 0 1-16.828 2.0696zm90.288-102.77c7.3581 0 13.976 1.1973 19.866 3.5858a43.077 43.077 0 0 1 15.246 10.348c4.2776 4.5063 7.5385 9.9331 9.7947 16.28s3.3812 13.429 3.3812 21.244-1.1251 14.873-3.3812 21.172c-2.2562 6.2992-5.499 11.702-9.7285 16.208a42.355 42.355 0 0 1-15.246 10.348c-5.9322 2.3945-12.574 3.5858-19.932 3.5858s-13.982-1.1973-19.866-3.5858a43.138 43.138 0 0 1-15.246-10.348c-4.2777-4.5063-7.5446-9.9331-9.7947-16.28-2.2501-6.3473-3.3812-13.429-3.3812-21.244 0-7.8153 1.1251-14.873 3.3812-21.178s5.493-11.702 9.7285-16.208 9.3134-7.9537 15.24-10.348c5.9261-2.3945 12.574-3.5858 19.932-3.5858zm0 87.599c6.251 0 11.63-1.45 16.142-4.3438 4.5123-2.8939 7.9537-7.0332 10.348-12.418 2.3945-5.3847 3.5858-11.84 3.5858-19.379 0-7.6348-1.1973-14.139-3.5858-19.517-2.3885-5.3787-5.8419-9.5179-10.348-12.418-4.5063-2.8999-9.8849-4.3438-16.142-4.3438s-11.636 1.45-16.142 4.3438c-4.5063 2.8939-7.9537 7.0332-10.348 12.418-2.3945 5.3847-3.5858 11.84-3.5858 19.379 0 7.5386 1.1973 14.024 3.5858 19.451s5.8359 9.5841 10.348 12.484c4.5123 2.8999 9.885 4.3498 16.142 4.3498zm52.343-85.529h81.805v15.173h-32.146v83.459h-17.52v-83.459h-32.14zm99.042 0h17.52v83.459h48.558v15.173h-66.078zm154.22 98.633-4.2055-12.069-4.3438-11.931h-43.18l-4.2777 11.931-4.1393 12.069h-18.488l19.379-50.628 20.071-48.005h18.621l20.347 49.383 19.102 49.244h-18.897zm-46.35-38.625h32.416l-8.0018-21.521-8.1402-21.106-8.3447 21.172-7.9356 21.448zm143.76 38.625-16.07-24.83-16.347-24.83-16.142-23.861v73.526h-16.828v-98.639h17.658l24.487 36.14 24.072 36.971v-73.111h16.828v98.633zm37.783 0v-98.633h36.002c10.3 0 19.108 1.9313 26.418 5.7938s12.917 9.4518 16.828 16.762c3.9106 7.3099 5.86 16.166 5.86 26.556 0 10.481-1.9554 19.403-5.86 26.761-3.9047 7.358-9.5179 12.989-16.828 16.9-7.3099 3.9107-16.166 5.86-26.556 5.86zm17.52-83.736v68.834h17.381c10.3 0 18.212-2.942 23.729-8.826s8.2786-14.481 8.2786-25.792c0-11.124-2.7134-19.613-8.1402-25.455s-13.338-8.7599-23.729-8.7599z" fill="#e8504b" stroke-width="6.0164"/><path class="st0" d="m144.14-1.7051e-5v158.93h158.93v-158.93zm198.63 0v158.93h158.93v-158.93zm198.47 0v158.93h158.93v-158.93zm86.648 33.826c4.9425 0 9.5785 0.46334 14.058 1.5445 4.4792 1.0812 8.4949 2.4718 12.356 4.4798v17.298c-3.398-2.3168-7.2605-4.0164-11.276-5.252-4.1702-1.2356-8.4937-1.8528-12.664-1.6984-6.1781 0-11.431 1.08-15.756 3.3968-4.3247 2.1624-7.7233 5.7154-9.8856 9.8856-2.3168 4.3247-3.3968 9.5779-3.3968 15.756s1.08 11.582 3.3968 15.907c2.1624 4.3247 5.5615 7.7227 9.7318 10.039 4.3247 2.3168 9.4216 3.3998 15.445 3.3998 9.2672 0 17.762-2.4731 25.639-7.2611v17.059l-0.15389 0.0845c-3.7069 2.0079-8.0328 3.7093-12.821 4.7905-4.9425 1.2356-10.039 1.6984-15.445 1.6984-7.1048 0-13.592-1.0812-19.307-3.0891-5.7148-2.1624-10.5-5.0982-14.516-8.9595-4.0158-3.8613-6.951-8.6476-9.1134-14.362-2.1623-5.7148-3.0891-12.048-3.0891-19.153 0-6.9504 1.0806-13.13 3.2429-18.845 2.1623-5.5603 5.4052-10.347 9.421-14.362 4.1702-4.0158 9.1121-7.1055 14.827-9.1134 5.7148-2.1623 12.202-3.2429 19.307-3.2429zm-439.11 0.9261h33.515c9.885 0 17.608 2.0091 23.014 5.8704 5.4058 4.0158 8.1872 9.5761 8.1872 16.99 0 4.3247-0.92732 7.8759-2.9352 11.119-2.0079 3.0891-4.7874 5.5615-8.6488 7.415 5.2514 1.699 9.2654 4.4767 12.046 8.338 2.7802 3.7069 4.172 8.3411 4.172 13.747 0.15454 5.4059-1.238 10.039-4.0182 13.901s-6.6415 6.7978-11.584 8.8056c-5.097 2.0079-11.119 3.0891-18.07 3.0891h-35.678zm198.78 0h33.518c9.885 0 17.605 2.0091 23.011 5.8704 5.4059 4.0158 8.1872 9.5761 8.1872 16.99 0 4.3247-0.92733 7.8759-2.9352 11.119-2.0079 3.0891-4.7874 5.5615-8.6488 7.415 5.2514 1.699 9.2684 4.4767 12.049 8.338 2.7802 3.7069 4.169 8.3411 4.169 13.747-0.15453 5.4059-1.5433 10.039-4.169 13.901-2.7802 3.8613-6.6415 6.7978-11.584 8.8056-5.097 2.0079-11.122 3.0891-18.073 3.0891h-35.524zm-180.71 14.519v22.242h13.747c4.788 0 8.3404-1.0812 10.812-3.0891 2.4713-2.0079 3.7075-4.9425 3.7075-8.4949 0-7.1048-4.7886-10.658-14.519-10.658zm198.63 0v22.242h13.747c4.788 0 8.3405-1.0812 10.812-3.0891 2.4712-2.0079 3.7075-4.9425 3.7075-8.4949 0-7.1048-4.7886-10.658-14.519-10.658zm-198.63 36.296v24.094h15.756c5.4059 0 9.5755-1.0812 12.51-3.0891 2.9346-2.0079 4.3229-4.9413 4.3229-8.8026 0.15454-8.186-5.4046-12.202-16.525-12.202zm198.63 0v24.094h15.756c5.4058 0 9.5755-1.0812 12.51-3.0891 2.9346-2.0079 4.3259-4.9413 4.3259-8.8026 0.15453-8.186-5.4077-12.202-16.528-12.202z" clip-rule="evenodd" fill="#e8504b" fill-rule="evenodd" stroke-width="1.5445"/><link rel="stylesheet" type="text/css"/><link rel="stylesheet" type="text/css"/><style lang="en" type="text/css"/><style lang="en" type="text/css"/>

</svg>
