<svg width="800" height="328.73" version="1.1" viewBox="0 0 211.67 86.975" xmlns="http://www.w3.org/2000/svg">
 <g transform="translate(-.13275 -210.33)" fill="#8afa13">
  <path d="m0.13434 250.55h39.494v8.7627h-14.713v37.991h-10.071v-37.991h-14.713v-8.7627zm75.919 46.754v-20.075h-20.337v20.075h-10.071v-46.754h10.071v17.916h20.337v-17.916h10.069v46.754zm28.313-17.001v17.001h-9.9401v-46.754h17.066c6.1468 0 10.865 1.2845 14.156 3.8571 3.2911 2.5727 4.9374 6.2563 4.9374 11.051 0 3.0969-0.73083 5.7348-2.1913 7.9137-1.4604 2.179-3.5422 3.8584-6.2441 5.0358l5.8184 9.3188 5.7568 9.5771h-11.575a469.53 469.53 0 0 0-9.7419-17.001zm0-7.9136h6.5381c3.0956 0 5.4493-0.55613 7.0635-1.6671 1.6142-1.111 2.4189-2.8668 2.4189-5.2647 0-2.398-0.79481-4.1611-2.3869-5.2967-1.5921-1.1356-3.9336-1.6991-7.0292-1.6991h-6.6034v13.928zm34.459-21.839h32.171v8.3701h-22.102v10.135h19.618v8.3701h-19.618v11.509h23.345v8.3701h-33.414zm39.558 0h32.173v8.3701h-22.102v10.135h19.616v8.3701h-19.616v11.509h23.345v8.3701h-33.417z" stroke-width="1.2304"/>
  <path class="st0" d="m59.067 210.33v26.81h26.81v-26.81zm33.507 0v26.81h26.81v-26.81zm33.48 0v26.81h26.81v-26.81zm14.616 5.706c0.83375 0 1.6158 0.0782 2.3712 0.26054 0.75558 0.18238 1.433 0.41698 2.0844 0.75568v2.9178c-0.57321-0.39082-1.2248-0.67752-1.9022-0.88593-0.70348-0.20844-1.4328-0.31256-2.1363-0.28652-1.0422 0-1.9283 0.18218-2.6578 0.57298-0.72951 0.36476-1.3028 0.96412-1.6676 1.6676-0.39082 0.72951-0.57298 1.6157-0.57298 2.6578 0 1.0422 0.18218 1.9538 0.57298 2.6834 0.36475 0.72951 0.93816 1.3027 1.6416 1.6936 0.72952 0.39082 1.5893 0.57352 2.6054 0.57352 1.5633 0 2.9962-0.41717 4.3252-1.2249v2.8776l-0.0259 0.0142c-0.6253 0.33869-1.355 0.62571-2.1628 0.80809-0.83376 0.20844-1.6936 0.28652-2.6054 0.28652-1.1985 0-2.2928-0.18238-3.2568-0.5211-0.96404-0.36476-1.7713-0.86001-2.4487-1.5114-0.6774-0.65136-1.1725-1.4587-1.5373-2.4229-0.36476-0.96403-0.5211-2.0324-0.5211-3.2308 0-1.1725 0.18228-2.215 0.54705-3.179 0.36476-0.93797 0.91181-1.7454 1.5892-2.4228 0.70348-0.67742 1.5371-1.1986 2.5011-1.5373 0.96402-0.36475 2.0583-0.54706 3.2568-0.54706zm-74.073 0.15622h5.6536c1.6675 0 2.9702 0.33894 3.8822 0.99029 0.91191 0.67742 1.3811 1.6154 1.3811 2.866 0 0.72951-0.15643 1.3286-0.49512 1.8757-0.3387 0.5211-0.80759 0.93817-1.459 1.2508 0.88586 0.28661 1.563 0.75518 2.032 1.4066 0.46898 0.6253 0.70377 1.407 0.70377 2.319 0.02607 0.91192-0.20884 1.6936-0.67781 2.3448-0.46898 0.65135-1.1204 1.1467-1.9541 1.4854-0.85979 0.33869-1.8757 0.5211-3.0483 0.5211h-6.0185zm33.533 0h5.6542c1.6675 0 2.9697 0.33894 3.8817 0.99029 0.91191 0.67742 1.3811 1.6154 1.3811 2.866 0 0.72951-0.15642 1.3286-0.49515 1.8757-0.33868 0.5211-0.80758 0.93817-1.459 1.2508 0.88586 0.28661 1.5635 0.75518 2.0325 1.4066 0.46897 0.6253 0.70326 1.407 0.70326 2.319-0.0261 0.91192-0.26034 1.6936-0.70326 2.3448-0.46899 0.65135-1.1204 1.1467-1.9541 1.4854-0.85979 0.33869-1.8762 0.5211-3.0488 0.5211h-5.9923zm-30.485 2.4493v3.7518h2.319c0.8077 0 1.4069-0.18238 1.8238-0.5211 0.41688-0.33869 0.6254-0.83376 0.6254-1.433 0-1.1985-0.80778-1.7978-2.4493-1.7978zm33.507 0v3.7518h2.319c0.80769 0 1.4069-0.18238 1.8238-0.5211 0.41687-0.33869 0.62538-0.83376 0.62538-1.433 0-1.1985-0.80779-1.7978-2.4493-1.7978zm-33.507 6.1228v4.0645h2.6577c0.91192 0 1.6153-0.18238 2.1103-0.5211 0.49504-0.33869 0.72922-0.83352 0.72922-1.4849 0.02607-1.3809-0.9117-2.0584-2.7877-2.0584zm33.507 0v4.0645h2.6578c0.91191 0 1.6153-0.18238 2.1103-0.5211 0.49503-0.33869 0.72974-0.83352 0.72974-1.4849 0.0261-1.3809-0.91221-2.0584-2.7882-2.0584z" clip-rule="evenodd" fill-rule="evenodd" stroke-width=".26054"/>
 </g>
</svg>
