<svg version="1.1" viewBox="0 0 300 225" xmlns="http://www.w3.org/2000/svg">
 <g transform="scale(10.881 11.109)">
  <polyline points="0 0 27.571 0 27.571 20.253 0 20.253 0 0"/>
  <polygon points="6.44 12.551 6.44 11.8 4.171 11.8 4.171 10.188 6.44 10.188 6.44 9.437 3.335 9.437 3.335 15.254 4.171 15.254 4.171 12.551" fill="#fff"/>
  <path d="m7.24 12.345c0 1.578 1.202 2.985 3.104 2.985 1.971 0 3.148-1.415 3.148-2.985 0-1.619-1.211-2.984-3.131-2.984-1.885-1e-3 -3.121 1.372-3.121 2.984m0.861 0c0-1.278 0.964-2.217 2.26-2.217 1.306 0 2.269 0.938 2.269 2.217 0 1.271-0.963 2.219-2.269 2.219-1.296-1e-3 -2.26-0.948-2.26-2.219" fill="#fff"/>
  <path d="m19.23 9.437h-0.837v3.387c0 0.545-0.067 0.973-0.366 1.271-0.265 0.265-0.725 0.47-1.365 0.47-0.502 0-0.922-0.163-1.254-0.495-0.265-0.265-0.35-0.538-0.35-1.195v-3.438h-0.836v3.617c0 1.586 1.194 2.276 2.424 2.276 1.73 0 2.584-0.938 2.584-2.362v-3.531" fill="#fff"/>
  <path d="m20.394 9.436v5.818h0.837v-2.525h0.35c0.426 0 0.775 0.138 1.543 1.331l0.768 1.194h0.998c-0.4-0.554-0.546-0.751-0.793-1.151-0.443-0.726-0.768-1.263-1.296-1.612 0.622-0.247 0.972-0.751 0.972-1.424 0-1.008-0.734-1.631-1.91-1.631h-1.469m0.836 0.717h0.536c0.812 0 1.136 0.333 1.144 0.879 9e-3 0.485-0.248 0.946-1.144 0.946h-0.536v-1.825" fill="#fff"/>
  <path d="m18.2 5.025c-0.017-2e-3 -0.031-5e-3 -0.048-8e-3l-0.018-2e-3c-0.027-4e-3 -0.054-8e-3 -0.08-0.01-0.018-1e-3 -0.036-2e-3 -0.054-4e-3 -0.033-1e-3 -0.064-2e-3 -0.096-2e-3h-0.036c-0.026 1e-3 -0.052 2e-3 -0.077 3e-3 -0.014 1e-3 -0.027 2e-3 -0.042 4e-3 -0.021 1e-3 -0.04 4e-3 -0.06 7e-3l-0.018 2e-3 -0.018 3e-3 -0.023 4e-3c-0.01 2e-3 -0.02 3e-3 -0.029 5e-3 -0.014 3e-3 -0.026 5e-3 -0.041 8e-3 -0.082 0.017-0.156 0.04-0.227 0.067-0.036 0.014-0.07 0.028-0.104 0.046-0.027 0.013-0.053 0.026-0.078 0.042-0.025 0.014-0.049 0.027-0.071 0.043-0.013 9e-3 -0.026 0.018-0.038 0.026-0.011 9e-3 -0.021 0.016-0.031 0.023-0.022 0.017-0.043 0.034-0.063 0.051-0.019 0.018-0.036 0.034-0.054 0.05-0.014 0.015-0.027 0.029-0.041 0.045-0.015 0.016-0.028 0.03-0.041 0.047-0.015 0.018-0.028 0.035-0.041 0.055-0.01 0.014-0.021 0.028-0.03 0.042-7e-3 0.01-0.013 0.02-0.019 0.03-0.035 0.059-0.067 0.121-0.093 0.188-0.032 0.084-0.056 0.174-0.069 0.27-4e-3 0.029-6e-3 0.061-8e-3 0.092-2e-3 0.023-2e-3 0.049-2e-3 0.073v0.055c2e-3 0.019 4e-3 0.037 6e-3 0.056l2e-3 0.014c2e-3 0.021 6e-3 0.043 0.01 0.063 0 9e-3 3e-3 0.018 5e-3 0.025 4e-3 0.018 8e-3 0.035 0.012 0.053 6e-3 0.022 0.013 0.044 0.021 0.065 9e-3 0.025 0.018 0.052 0.029 0.076 0.016 0.04 0.033 0.078 0.053 0.114 0.013 0.021 0.023 0.041 0.037 0.062 0.01 0.015 0.02 0.03 0.029 0.045 0.014 0.02 0.027 0.039 0.041 0.056 0.016 0.019 0.03 0.037 0.044 0.054 0.019 0.021 0.037 0.04 0.056 0.059l0.01 9e-3c0.015 0.015 0.029 0.03 0.049 0.046 0.013 0.01 0.025 0.022 0.04 0.033 0.013 0.01 0.026 0.02 0.041 0.031 0.017 0.012 0.036 0.024 0.055 0.037 0.021 0.014 0.042 0.026 0.066 0.039 0.045 0.026 0.095 0.051 0.149 0.072 0.021 8e-3 0.043 0.017 0.064 0.024s0.045 0.014 0.068 0.021c0.039 0.013 0.08 0.022 0.125 0.03 0.035 7e-3 0.072 0.012 0.108 0.017 0.038 5e-3 0.077 9e-3 0.118 0.011 0.02 1e-3 0.039 2e-3 0.059 2e-3h0.028c0.073 0 0.14-2e-3 0.202-8e-3l0.012-2e-3c0.025-1e-3 0.049-4e-3 0.072-7e-3 0.035-5e-3 0.068-0.01 0.102-0.015 0.021-4e-3 0.039-8e-3 0.059-0.012 0.029-8e-3 0.058-0.015 0.085-0.021 0.021-5e-3 0.039-0.01 0.058-0.016 0.021-7e-3 0.043-0.015 0.063-0.021l0.02-7e-3c0.012-4e-3 0.024-9e-3 0.039-0.015 0.021-8e-3 0.046-0.019 0.075-0.03 0.017-7e-3 0.035-0.015 0.053-0.024 0.017-8e-3 0.035-0.016 0.054-0.024 6e-3 -4e-3 0.015-7e-3 0.022-0.011v-0.444c-6e-3 3e-3 -0.011 6e-3 -0.017 0.01l-0.029 0.019c-0.03 0.019-0.061 0.034-0.089 0.052-0.032 0.017-0.063 0.033-0.095 0.048-0.055 0.026-0.106 0.047-0.158 0.065-0.096 0.034-0.184 0.056-0.262 0.069-0.01 2e-3 -0.019 4e-3 -0.027 5e-3 -0.022 3e-3 -0.042 7e-3 -0.063 9e-3 -0.031 4e-3 -0.06 5e-3 -0.085 7e-3h-0.047c-0.03 0-0.063 0-0.096-3e-3 -0.039-3e-3 -0.078-8e-3 -0.118-0.014-0.064-0.011-0.127-0.026-0.191-0.05-9e-3 -3e-3 -0.018-7e-3 -0.026-0.011-7e-3 -2e-3 -0.013-5e-3 -0.019-7e-3 -0.011-5e-3 -0.021-9e-3 -0.031-0.015-0.021-0.01-0.043-0.021-0.063-0.032-0.01-6e-3 -0.021-0.013-0.03-0.019-0.011-7e-3 -0.021-0.014-0.031-0.021-0.014-0.01-0.026-0.019-0.039-0.028-0.012-9e-3 -0.024-0.02-0.034-0.028l-0.016-0.013-8e-3 -7e-3 -4e-3 -3e-3 -5e-3 -6e-3c-0.021-0.02-0.039-0.039-0.056-0.06-8e-3 -0.011-0.018-0.022-0.025-0.034-9e-3 -0.01-0.016-0.021-0.023-0.032-6e-3 -0.011-0.013-0.021-0.019-0.031-0.01-0.016-0.019-0.031-0.024-0.046-8e-3 -0.015-0.014-0.027-0.02-0.04-9e-3 -0.022-0.018-0.044-0.023-0.066-6e-3 -0.016-0.011-0.033-0.015-0.049-0.012-0.046-0.019-0.088-0.021-0.124-2e-3 -0.013-2e-3 -0.027-2e-3 -0.038-2e-3 -0.018-2e-3 -0.034-2e-3 -0.046v-0.028c2e-3 -0.024 4e-3 -0.057 0.01-0.093 3e-3 -0.022 7e-3 -0.046 0.013-0.071 4e-3 -0.016 9e-3 -0.032 0.015-0.051 4e-3 -0.015 0.01-0.031 0.016-0.048 4e-3 -0.01 9e-3 -0.021 0.014-0.032 6e-3 -0.015 0.014-0.029 0.021-0.045 6e-3 -0.012 0.013-0.022 0.019-0.034 0.015-0.024 0.031-0.051 0.05-0.075 8e-3 -9e-3 0.014-0.018 0.021-0.026 9e-3 -0.011 0.02-0.023 0.029-0.034 6e-3 -6e-3 0.011-0.011 0.016-0.017 0.081-0.081 0.172-0.142 0.266-0.185 0.016-7e-3 0.03-0.013 0.045-0.019 0.016-6e-3 0.03-0.011 0.045-0.017 0.017-6e-3 0.033-0.011 0.049-0.015 0.016-5e-3 0.033-9e-3 0.047-0.012 0.016-3e-3 0.031-7e-3 0.048-0.01 0.017-4e-3 0.034-6e-3 0.051-8e-3 0.017-3e-3 0.033-5e-3 0.05-6e-3 0.033-3e-3 0.064-4e-3 0.096-4e-3h0.031c0.022 1e-3 0.045 1e-3 0.066 3e-3 0.016 1e-3 0.029 1e-3 0.044 3e-3 0.028 3e-3 0.056 6e-3 0.08 0.011 0.022 3e-3 0.045 7e-3 0.065 0.011 0.031 7e-3 0.062 0.014 0.086 0.02 0.019 5e-3 0.033 0.011 0.047 0.015 0.021 6e-3 0.041 0.012 0.055 0.016 0.023 9e-3 0.038 0.014 0.038 0.014 0.022 9e-3 0.043 0.017 0.063 0.025 0.028 0.011 0.055 0.022 0.08 0.035 0.022 9e-3 0.043 0.02 0.062 0.028 0.016 8e-3 0.03 0.016 0.044 0.022 0.025 0.013 0.045 0.024 0.063 0.033l0.045 0.024v-0.432s-0.027-0.011-0.074-0.029c-0.021-7e-3 -0.045-0.017-0.073-0.025-0.015-7e-3 -0.031-0.013-0.05-0.019-0.012-4e-3 -0.027-9e-3 -0.041-0.014-0.018-6e-3 -0.034-0.011-0.053-0.016-0.012-5e-3 -0.024-9e-3 -0.039-0.013l-0.01-3e-3c-0.014-4e-3 -0.027-8e-3 -0.041-0.011-0.016-5e-3 -0.031-9e-3 -0.047-0.013-0.011-2e-3 -0.021-6e-3 -0.031-8e-3 -0.018-4e-3 -0.035-8e-3 -0.053-0.012-0.02-1e-3 -0.037-5e-3 -0.056-8e-3m-2.169-0.451h3.441v3.239h-3.441v-3.239z" fill="#fff"/>
  <path d="m13.386 6.36v0.638h0.413s8e-3 0 0.022-1e-3c0.014 0 0.034-1e-3 0.057-3e-3 0.045-4e-3 0.105-0.014 0.162-0.032 0.052-0.019 0.102-0.044 0.141-0.082 0.015-0.015 0.027-0.031 0.037-0.046 0.032-0.051 0.04-0.104 0.042-0.133 1e-3 -0.013 1e-3 -0.021 1e-3 -0.021v-0.015c0-0.013-2e-3 -0.036-9e-3 -0.062-8e-3 -0.029-0.021-0.064-0.048-0.097-5e-3 -6e-3 -0.011-0.012-0.017-0.019-0.011-0.012-0.022-0.022-0.037-0.031-0.022-0.018-0.048-0.032-0.076-0.044-0.038-0.016-0.079-0.028-0.125-0.036-0.023-5e-3 -0.048-8e-3 -0.073-0.011-0.016-1e-3 -0.031-3e-3 -0.048-4e-3 -0.013 0-0.028-1e-3 -0.042-1e-3h-0.4" fill="#fff"/>
  <path d="m13.386 5.393v0.604h0.2s0.013 0 0.031-1e-3c0.014 0 0.03-1e-3 0.045-2e-3 0.041-3e-3 0.098-9e-3 0.155-0.024 0.011-4e-3 0.022-7e-3 0.033-0.011 0.045-0.016 0.088-0.039 0.121-0.072 0.027-0.025 0.044-0.055 0.056-0.083 0.014-0.035 0.019-0.067 0.021-0.091 1e-3 -0.021 1e-3 -0.034 1e-3 -0.034s1e-3 -0.01 0-0.025c-1e-3 -0.026-6e-3 -0.069-0.027-0.11-0.01-0.02-0.024-0.039-0.043-0.057-0.022-0.023-0.05-0.04-0.079-0.054-0.056-0.023-0.121-0.033-0.175-0.038-0.024-2e-3 -0.045-2e-3 -0.063-2e-3h-0.276" fill="#fff"/>
  <path d="m12.968 5.029v2.332h0.878s0.427 0.013 0.666-0.224c0.191-0.193 0.178-0.415 0.178-0.415s0.014-0.233-0.164-0.411c-0.152-0.152-0.346-0.192-0.346-0.192s0.088-0.042 0.154-0.109c0.032-0.03 0.143-0.133 0.143-0.378 0-0.248-0.164-0.39-0.164-0.39s-0.181-0.213-0.587-0.213h-0.758m-0.903-0.455h3.442v3.239h-3.442v-3.239z" fill="#fff"/>
  <path d="m9.419 6.36v0.638h0.413s9e-3 0 0.022-1e-3c0.014 0 0.034-1e-3 0.058-3e-3 0.045-4e-3 0.103-0.014 0.161-0.032 0.052-0.019 0.103-0.044 0.141-0.082 0.015-0.015 0.027-0.031 0.037-0.046 0.032-0.051 0.041-0.104 0.042-0.133 1e-3 -0.013 1e-3 -0.021 1e-3 -0.021s1e-3 -6e-3 0-0.016c0-0.013-2e-3 -0.036-8e-3 -0.062-8e-3 -0.029-0.023-0.064-0.048-0.097-6e-3 -6e-3 -0.011-0.012-0.016-0.019-0.012-0.012-0.024-0.022-0.037-0.031-0.023-0.018-0.049-0.032-0.077-0.044-0.037-0.016-0.079-0.028-0.125-0.036-0.023-3e-3 -0.046-6e-3 -0.073-9e-3 -0.015-1e-3 -0.031-3e-3 -0.048-4e-3 -0.014-1e-3 -0.029-2e-3 -0.043-2e-3h-0.4" fill="#fff"/>
  <path d="m9.419 5.393v0.604h0.2s0.013 0 0.031-1e-3c0.014 0 0.03-1e-3 0.045-2e-3 0.041-3e-3 0.098-9e-3 0.156-0.024 0.012-4e-3 0.022-7e-3 0.034-0.011 0.044-0.016 0.087-0.039 0.12-0.072 0.027-0.025 0.044-0.055 0.056-0.083 0.014-0.035 0.019-0.067 0.021-0.091 2e-3 -0.021 2e-3 -0.034 2e-3 -0.034s0-0.01-1e-3 -0.025c-1e-3 -0.026-7e-3 -0.069-0.027-0.11-0.01-0.02-0.024-0.039-0.043-0.057-0.023-0.024-0.05-0.041-0.079-0.054-0.057-0.024-0.121-0.034-0.176-0.038-0.023-2e-3 -0.045-2e-3 -0.063-2e-3h-0.276" fill="#fff"/>
  <path d="m9.001 5.029v2.332h0.879s0.428 0.013 0.664-0.224c0.193-0.193 0.179-0.415 0.179-0.415s0.014-0.233-0.164-0.411c-0.152-0.152-0.346-0.192-0.346-0.192s0.087-0.042 0.155-0.109c0.031-0.03 0.143-0.133 0.143-0.378 0-0.248-0.164-0.39-0.164-0.39s-0.181-0.213-0.588-0.213h-0.758m-0.903-0.455h3.442v3.239h-3.442v-3.239z" fill="#fff"/>
 </g>
 <g transform="matrix(1.6143 0 0 1.6143 -208.61 -90.896)">
  <path d="m292.78 116.99 2.2707-2.0214-0.0106-11.807-2.2604-2.0184z" fill="#838181" stroke-width="4.2055"/>
  <path d="m290.55 103.28 2.23-2.134 3.4e-4 15.847-2.2303-2.3472v-4.5052h-8.9209v6.9128l-2.271-2.3919v-11.376l2.271-2.108v6.8655h8.9209z" fill="#fff" fill-rule="evenodd" stroke-width="5.2569"/>
  <path d="m292.78 116.99 2.2762-2.0186h2.8913c1.1355 0 2.0186-0.0736 2.6495-0.22583 0.62557-0.16276 1.1513-0.35747 1.5666-0.59404 0.42055-0.24181 0.80956-0.5362 1.1565-0.88315 1.125-1.1355 1.6822-2.5706 1.6822-4.3056 0-1.7085-0.57826-3.0963-1.7243-4.174-0.42581-0.39952-0.9147-0.7307-1.4667-0.98829-0.54672-0.25738-1.0619-0.42581-1.5613-0.50992-0.48889-0.0841-1.2774-0.12616-2.3709-0.12616h-2.8387l-2.2604-2.0184 5.3357-4e-3c2.1606 0 3.8691 0.32593 5.1257 0.97779 1.2564 0.64659 2.2552 1.5981 2.9964 2.8545 0.74648 1.2564 1.1197 2.6284 1.1197 4.1109 0 1.0619-0.20481 2.0765-0.61506 3.049-0.41003 0.96727-0.99355 1.8189-1.7505 2.5548-0.77277 0.75699-1.6717 1.33-2.6915 1.7138-0.59929 0.23635-1.1513 0.39952-1.6507 0.47837-0.49941 0.0791-1.4562 0.11565-2.8598 0.11565l-5.0096-4e-3z" fill="#fff" fill-rule="evenodd" stroke-width="4.2055"/>
  <path d="m281.63 117.05v-6.9128l2.2614 2e-3 4e-3 4.8469-2.2654 2.0643z" fill="#838181" stroke-width="4.2055"/>
  <path d="m283.91 108.04h-2.2809v-6.8656l2.2809 2.0955z" fill="#838181" stroke-width="4.2055"/>
 </g>
</svg>
