<svg hola_ext_inject="disabled" version="1.1" viewBox="0 0 1e3 297.19" xml:space="preserve" xmlns="http://www.w3.org/2000/svg"><defs><style type="text/css">
    .fil0 {fill:#C90302}
  </style></defs><g transform="matrix(1.25 0 0 -1.25 -525.21 -328.66)"><g transform="matrix(2.0655 0 0 -2.0655 810.16 -222.47)" fill="#fff"><path d="m-22.599 108.14v21.4h10.2l0.75928 4.48h-16.079v-25.88z"/><path d="m3.8577 128.54c0.90656-1.04 1.3598-2.4935 1.3599-4.3604-1.66e-5 -1.8668-0.4533-3.3203-1.3599-4.3604-0.90659-0.98631-2.1464-1.4795-3.7195-1.4795-1.5731 2e-5 -2.8129 0.49318-3.7195 1.4795-0.9074 1.04-1.3611 2.4935-1.3611 4.3604-6.5e-6 1.8669 0.45369 3.3203 1.3611 4.3604 0.90657 0.98634 2.1464 1.4795 3.7195 1.4795s2.8129-0.49316 3.7195-1.4795zm-11.06 3.0798c-1.8799-1.9198-2.8198-4.3996-2.8198-7.4396-1e-6 -3.0399 0.93994-5.52 2.8198-7.4402 1.8799-1.9202 4.3266-2.8802 7.3401-2.8802 3.0135 2e-5 5.4602 0.9601 7.3401 2.8802 1.8799 1.9202 2.8198 4.4002 2.8198 7.4402-2.2e-5 3.04-0.93996 5.5198-2.8198 7.4396-1.8799 1.9198-4.3266 2.8796-7.3401 2.8796s-5.4602-0.95988-7.3401-2.8796z"/><path d="m33.772 134.02h-4.8792c-0.26694-1.4136-0.40041-3.2402-0.40039-5.4797v-4.1602c-1.7e-5 -2.5334-0.37314-4.1736-1.1194-4.9207-0.8008-0.77309-1.8677-1.1596-3.2007-1.1597-1.5462 1e-5 -2.8394 0.53346-3.8794 1.6003-0.50701 0.55991-0.84046 1.2665-1.0004 2.1198-0.15992 0.85328-0.23988 2.0001-0.23987 3.4406v8.5596h-4.8804v-14.16c-3e-6 -2.2664-0.13347-4.1064-0.40039-5.52h4.7607c0.26611 0.9603 0.43945 1.9336 0.52002 2.9199h0.04028c0.47932-0.95946 1.3057-1.7659 2.4792-2.4194 1.1735-0.65346 2.4935-0.9802 3.96-0.98022 2.4267 2e-5 4.32 0.70681 5.6799 2.1204 0.7739 0.77313 1.3275 1.7263 1.6608 2.8595 0.33323 1.1332 0.49986 2.7 0.49988 4.7003v5c-2.2e-5 2.2396 0.13304 4.0662 0.39917 5.4797z"/><path d="m55.96 134.02h-4.8804c-0.16034-0.93343-0.25352-1.7733-0.27954-2.5195-0.77394 0.95947-1.7076 1.6992-2.8009 2.2192-1.0934 0.52002-2.1731 0.78003-3.2391 0.78003-2.347 0-4.3205-0.71981-5.9204-2.1594-2.0532-1.8937-3.0798-4.6138-3.0798-8.1604-1e-6 -3.8403 1.2268-6.6805 3.6804-8.5205 1.5731-1.1995 3.3594-1.7993 5.3589-1.7993 1.2272 2e-5 2.3541 0.26003 3.3807 0.78003 1.0266 0.52004 1.8597 1.2333 2.4994 2.1399v-8.6401h4.8804v20.4c-2.1e-5 2.2396 0.13344 4.0662 0.40039 5.4797zm-10.04-4.0002c1.5731 0 2.8129-0.47973 3.7195-1.4392 0.90656-1.04 1.3598-2.4935 1.3599-4.3604-1.6e-5 -1.9198-0.4533-3.3996-1.3599-4.4397-0.93344-0.98713-2.1733-1.4807-3.7195-1.4807-1.5731 1e-5 -2.8129 0.49358-3.7195 1.4807-0.9074 1.04-1.3611 2.5067-1.3611 4.4-6e-6 1.8933 0.45369 3.36 1.3611 4.4 0.87971 0.95948 2.1195 1.4392 3.7195 1.4392z"/><path d="m72.578 128.54c0.90656-1.04 1.3598-2.4935 1.3599-4.3604-1.6e-5 -1.8668-0.4533-3.3203-1.3599-4.3604-0.90659-0.98631-2.1464-1.4795-3.7195-1.4795-1.5731 2e-5 -2.8129 0.49318-3.7195 1.4795-0.9074 1.04-1.3611 2.4935-1.3611 4.3604-6e-6 1.8669 0.45369 3.3203 1.3611 4.3604 0.90657 0.98634 2.1464 1.4795 3.7195 1.4795s2.8129-0.49316 3.7195-1.4795zm-11.06 3.0798c-1.8799-1.9198-2.8198-4.3996-2.8198-7.4396-1e-6 -3.0399 0.93994-5.52 2.8198-7.4402 1.8799-1.9202 4.3266-2.8802 7.3401-2.8802 3.0135 2e-5 5.4602 0.9601 7.3401 2.8802 1.8799 1.9202 2.8198 4.4002 2.8198 7.4402-2.2e-5 3.04-0.93996 5.5198-2.8198 7.4396-1.8799 1.9198-4.3266 2.8796-7.3401 2.8796s-5.4602-0.95988-7.3401-2.8796z"/><path d="m101.89 134.02h-4.8792c-0.26695-1.4136-0.40041-3.2402-0.40039-5.4797v-4.1602c-2e-5 -2.5334-0.37315-4.1736-1.1194-4.9207-0.8008-0.77309-1.8677-1.1596-3.2007-1.1597-1.5462 1e-5 -2.8394 0.53346-3.8794 1.6003-0.50701 0.55991-0.84046 1.2665-1.0004 2.1198-0.15992 0.85328-0.23988 2.0001-0.23987 3.4406v8.5596h-4.8804v-14.16c-3e-6 -2.2664-0.13347-4.1064-0.40039-5.52h4.7607c0.26611 0.9603 0.43945 1.9336 0.52002 2.9199h0.04028c0.47932-0.95946 1.3057-1.7659 2.4792-2.4194 1.1735-0.65346 2.4935-0.9802 3.96-0.98022 2.4267 2e-5 4.32 0.70681 5.6799 2.1204 0.77391 0.77313 1.3275 1.7263 1.6608 2.8595 0.33323 1.1332 0.49985 2.7 0.49988 4.7003v5c-3e-5 2.2396 0.13303 4.0662 0.39917 5.4797z"/></g><path d="m812.22-263.36c-1.4162 0.0179-2.8546 5e-3 -4.2944-0.0383-18.263-0.55584-34.362-6.186-47.583-16.641-7.2448-5.7284-14.799-15.124-19.171-23.811-11.785-23.415-11.982-55.166-0.49845-78.641 3.939-8.0522 7.8994-13.601 14.11-19.823 12.571-12.595 28.205-19.612 48.35-21.664 3.0935-0.31509 17.156 0.0859 20.283 0.57507 17.303 2.7117 31.203 9.2987 42.292 20.015 12.898 12.465 20.319 27.811 23.006 47.583 0.6899 5.0791 0.76962 17.883 0.15337 22.929-2.4283 19.883-10.155 36.206-22.967 48.58-13.931 13.454-32.438 20.666-53.68 20.935zm-0.65183-28.872c3.9286-0.0352 7.8441-0.42108 11.388-1.1503 18.441-3.7942 30.208-16.618 33.626-36.656 1.3621-7.9794 1.3617-19.343 0-27.415-3.7177-22.037-17.67-35.327-39.378-37.576-3.4322-0.35557-9.6196-0.33005-13.113 0.038-11.138 1.1752-19.946 5.122-26.84 12.04-6.7891 6.8124-10.736 15.328-12.615 27.3-0.79328 5.0554-0.78772 18.414 0 23.657 0.67519 4.5011 2.0218 9.7872 3.2975 12.998 4.7374 11.926 13.358 20.209 25.229 24.194 5.2217 1.7532 11.857 2.6276 18.404 2.569z" fill="#fff"/><path d="m1144-263.48c-8.5793 0.0242-10.91-0.17144-17.216-1.4187-26.693-5.2796-47.271-23.567-55.904-49.615-3.991-12.043-5.546-24.733-4.5244-37.269 2.2378-27.46 14.536-48.777 35.352-61.348 9.8161-5.9277 19.87-9.1146 34.393-10.851 0.5968-0.0712 5.1406-0.0871 10.084-0.038 7.0768 0.0699 10.046 0.23361 14.072 0.76685 18.094 2.3941 33.809 7.8409 46.471 16.066 3.3698 2.1887 6.8634 4.7731 6.8634 5.0995 0 0.14-2.6113 5.0579-5.7898 10.928l-5.7897 10.659-1.6871-1.1119c-23.313-14.913-57.601-18.933-78.142-9.2022-12.804 6.0651-20.251 16.576-23.082 32.591l-0.1917 0.99691h119.63l0.1533 0.69017c0.9223 3.9504 1.333 14.802 0.8052 21.165-0.7497 9.028-1.9705 15.206-4.5244 22.967-7.9562 24.18-25.636 40.583-50.229 46.625-7.2688 1.7857-11.502 2.2747-20.743 2.3006zm-2.5307-28.527c4.5402 0.0845 9.6992-0.17984 12.768-0.72851 8.9526-1.6003 15.711-4.7864 21.434-10.084 6.8138-6.3082 11.17-15.896 11.771-25.958l0.1917-3.3358h-88.802l0.1917 1.8404c0.7088 6.7802 3.4588 14.393 7.3618 20.322 2.2592 3.4315 7.4816 8.6034 11.043 10.928 4.8826 3.1855 10.627 5.3505 17.101 6.4799 1.686 0.29431 4.2159 0.48605 6.94 0.5368z" fill="#fff"/><path d="m934.68-382.06c0 23.413 0.12304 39.615 0.31969 42.072 1.2576 15.693 5.2578 25.813 13.471 34.079 8.7307 8.7861 20.473 12.957 35.021 12.441 11.661-0.41365 19.791-3.6206 26.193-10.33 5.0259-5.2678 8.0138-11.424 9.7578-20.104 1.2738-6.3429 1.4001-9.2518 1.5674-36.263 0.2187-35.192 0.804-46.616 2.9813-58.188l0.3359-1.7824h30.182l-0.565 3.4869c-0.5873 3.6195-1.2314 9.4693-1.8334 16.658-0.2097 2.5063-0.4473 17.851-0.5921 38.275-0.2381 33.7-0.3208 36.283-1.4094 44.009-1.6217 11.516-5.4901 22.005-10.908 29.579-4.4534 6.2258-11.832 12.941-18.19 16.556-15.944 9.066-37.536 10.792-55.959 4.4715-6.6798-2.291-12.792-5.6648-18.16-10.024-3.3676-2.7345-8.3668-7.8601-10.49-10.755-0.84202-1.149-1.6136-2.089-1.7144-2.089-0.10031 0-0.34965 1.5693-0.55362 3.4869-0.58058 5.4621-1.8326 12.263-3.1955 17.355l-0.31176 1.1623h-29.639l0.39074-2.247c1.3215-7.6083 2.2057-17.988 2.6186-30.756 0.16562-5.1156 0.30309-34.021 0.30598-64.235l4e-3 -54.934h30.372v38.076z" fill="#fff"/><path d="m420.57-267.69v-76.793h81.734v76.793h-81.734zm21.332-10.778h10.778c9.7385 0 11.089-0.12215 13.248-0.67543 6.9852-1.7863 11.518-6.6443 11.901-12.799 0.3255-5.2274-1.4955-8.8473-5.6136-11.452l-1.3473-0.89817 1.5718-0.44549c3.9925-1.4062 7.2673-4.3895 8.9817-7.8594 1.1441-2.3151 1.3473-2.3058 1.3473-5.8381 0-3.5266-0.21484-3.7723-1.3473-6.0623-2.5509-5.162-6.9978-7.9046-14.146-8.9817-2.1606-0.32334-5.9507-0.44549-14.146-0.45268h-11.227v55.462zm9.8799-8.7575v-14.146h3.5927c1.9176 3e-3 4.2566 0.20838 5.389 0.44549 4.9867 1.057 7.0583 3.4023 6.7363 7.8594-0.1782 2.4531-0.97117 3.9203-3.1436 4.9392-1.6225 0.76022-2.1776 0.80189-7.1854 0.89817h-5.389zm0-22.903v-15.045h5.389c2.9406 4e-3 6.2355 0.0719 7.4099 0.22275 5.1695 0.74728 8.0835 3.3599 8.0835 7.4103 0 2.5623-1.007 4.1007-3.1436 5.389-2.5739 1.552-4.8927 2.0212-11.676 2.0212h-6.0626z" fill="#c80201"/><path d="m514.65-267.69v-76.793h82.182v76.793h-82.182zm21.781-10.778h10.554c11.969-6e-3 13.513-0.15808 17.29-2.0205 5.6992-2.8159 8.779-8.4406 7.859-14.371-0.19256-1.2424-0.57554-2.8648-0.89817-3.5927-0.71135-1.6088-3.0028-4.1395-4.4908-4.9406-1.1268-0.60357-1.4238-1.1224-0.67327-1.1224 1.0379 0 5.3701-2.5134 6.9608-4.0418 3.5039-3.3671 5.0187-8.736 3.8172-13.248-1.4961-5.6211-5.8293-9.4796-12.574-11.228-2.3534-0.61075-3.6327-0.77386-15.269-0.89817h-12.574v55.462zm9.8799-8.7575v-14.371l4.4908 0.22275c2.6241 0.10059 4.9454 0.39519 5.8381 0.67542 3.6398 1.1454 5.4263 3.3247 5.389 6.9612-0.0216 2.2828-0.57914 3.5029-2.0209 4.715-1.6107 1.3559-3.708 1.7963-8.9817 1.7963h-4.7154zm0-22.903v-15.269l6.7363 0.22275c5.7077 0.12215 6.6937 0.079 8.5326 0.67542 5.2445 1.6986 7.146 7.4354 3.8172 11.226-2.1838 2.4869-5.1046 3.1364-13.248 3.1443h-5.8381z" fill="#c80201"/><path d="m609.18-267.69v-76.793h81.958v76.793h-81.958zm42.663-10.104c5.9559 0.33052 11.824-0.56765 19.086-3.1443l3.3681-1.3465v-5.1648c0-2.7944 0.0647-4.9399 0-4.9399s-1.8786 0.64668-3.8172 1.5714c-6.8918 3.2794-11.427 4.5009-17.739 4.2667-3.3044-0.12215-4.4638-0.28022-6.9608-1.1224-3.775-1.2761-6.2036-2.8131-8.7572-5.389-3.4618-3.4921-5.173-8.0519-5.1645-13.248 0.0144-5.5184 1.7138-9.632 5.389-13.248 4.124-4.0561 9.487-6.0307 16.392-6.0623 6.1191 0 11.26 1.3336 17.739 4.7158l3.5927 1.7963v-10.33l-2.0209-1.1224c-5.813-2.6787-10.797-3.6523-17.963-3.8169-2.8981-0.0719-6.1128-0.1509-7.1854 0-11.172 1.5736-20.21 8.1575-24.251 17.738-2.4239 5.7483-2.654 12.475-0.67326 18.637 3.1615 9.8375 12.033 17.356 22.903 19.536 2.0519 0.40956 4.0773 0.56764 6.0626 0.67542z" fill="#c80201"/></g></svg>
