<svg width="800" height="655.11" version="1.1" viewBox="0 0 800 655.11" xml:space="preserve" xmlns="http://www.w3.org/2000/svg"><link rel="stylesheet" type="text/css"/><link rel="stylesheet" type="text/css"/><style lang="en" type="text/css"/><style lang="en" type="text/css"/>

<path d="m265.55 316.93c-6.4681-17.688-15.704-32.813-27.718-45.358s-26.496-22.152-43.426-28.873c-16.931-6.7203-35.852-10.077-56.789-10.077-20.938 0-39.865 3.363-56.789 10.084-16.924 6.7203-31.399 16.34-43.421 28.873-12.02 12.532-21.255 27.663-27.717 45.358-6.4612 17.694-9.686 37.663-9.686 59.887 0 21.972 3.2363 41.868 9.6917 59.701 6.4566 17.833 15.702 33.084 27.718 45.743 12.015 12.658 26.483 22.351 43.42 29.071s35.858 10.071 56.783 10.071 39.864-3.357 56.789-10.071c16.924-6.7142 31.411-16.413 43.426-29.071s21.245-27.916 27.718-45.743c6.4726-17.827 9.6859-37.729 9.6859-59.701 0-22.224-3.2363-42.181-9.6859-59.893zm-61.248 109.9c-5.9499 13.705-14.608 24.228-25.966 31.598s-24.95 11.04-40.713 11.04-29.33-3.676-40.695-11.04c-11.366-7.364-20.035-17.893-25.979-31.598-5.9442-13.705-8.922-30.359-8.922-50.008s2.9778-36.297 8.922-50.008 14.596-24.162 25.979-31.4 24.931-10.854 40.695-10.854 29.33 3.6219 40.713 10.854c11.383 7.2316 20.016 17.712 25.966 31.4 5.9511 13.687 8.9163 30.371 8.9163 50.008s-2.9778 36.321-8.9163 50.008zm288.55 88.772-61.246-97.111-61.248-94.385v191.5h-57.372v-277.16h60.484l61.83 94.006 60.67 95.552v-189.56h57.366v277.16h-60.47zm109.07-277.16h190.71v49.617h-131.03v60.08h116.3v49.617h-116.3v68.226h138.39v49.617h-198.08v-277.16z" fill="#e8504b" stroke-width="6.0164"/><path d="m144.03-2.2488e-5v158.93h158.93v-158.93zm110.84 112.16c-2.9422 4.0096-6.9701 7.0908-11.61 8.8774-5.7764 2.2185-11.93 3.2803-18.112 3.1252h-35.617v-89.398h33.548c9.8871 0 17.545 1.979 22.975 5.9368 5.426 3.9463 8.49 10.368 8.1454 17.068 0.1034 3.8907-0.9168 7.7285-2.9181 11.065-2.099 3.2607-5.0963 5.8446-8.6302 7.44 4.8045 1.4303 9.038 4.3404 12.095 8.3154 2.8664 4.0239 4.3404 8.8758 4.1945 13.815 0.1309 4.9001-1.2959 9.7152-4.0704 13.754zm-22.737-43.7c2.509-2.1179 3.8773-5.2864 3.7061-8.5635 0-7.0845-4.8205-10.627-14.464-10.629h-13.736v22.258h13.736c3.8337 0.2614 7.6376-0.8229 10.758-3.0657zm-8.4464 17.068h-16.047v24.132h15.802c4.3874 0.2724 8.7542-0.7962 12.52-3.0638 2.8893-1.9813 4.546-5.3172 4.3771-8.8157 0-8.1672-5.5513-12.252-16.653-12.253zm119.01-85.53v158.93h158.93v-158.93zm110.83 112.16c-2.9387 4.0096-6.9701 7.0908-11.61 8.8774-5.7718 2.2185-11.926 3.2803-18.112 3.1252h-35.618v-89.398h33.552c9.887 0 17.545 1.979 22.976 5.9368 5.4238 3.9463 8.4877 10.368 8.1442 17.068 0.1034 3.8907-0.9179 7.7285-2.9204 11.065-2.0978 3.2607-5.0951 5.8446-8.629 7.44 4.8057 1.4303 9.0369 4.3404 12.093 8.3154 2.8687 4.0239 4.3439 8.8758 4.1968 13.815 0.1298 4.9001-1.2948 9.7152-4.0727 13.754zm-22.734-43.7c2.5068-2.1174 3.8797-5.2863 3.7097-8.5635 0-7.0845-4.8229-10.627-14.468-10.629h-13.736v22.258h13.736c3.8337 0.2614 7.6375-0.8229 10.758-3.0657zm-8.4486 17.068h-16.045v24.132h15.802c4.3886 0.2724 8.7554-0.7962 12.521-3.0638 2.8882-1.9813 4.5437-5.3172 4.376-8.8157 0-8.1672-5.5513-12.252-16.655-12.253zm119.02 73.402h158.93v-158.93h-158.93zm114.14-40.432c-4.0555 2.1776-8.3843 3.8054-12.87 4.8406-5.0434 1.2034-10.212 1.7997-15.395 1.7771-6.5703 0.095-13.105-0.9618-19.305-3.1252-5.4364-1.9068-10.391-4.9816-14.512-9.0085-4.0486-4.0725-7.1516-8.9893-9.0863-14.399-2.1817-6.1547-3.2512-12.65-3.157-19.18-0.092-6.4205 1.0213-12.801 3.2822-18.811 2.0795-5.4284 5.3077-10.342 9.4666-14.401 4.237-4.0758 9.2919-7.2088 14.825-9.1931 6.2187-2.2001 12.776-3.2784 19.371-3.1849 4.7333-0.026 9.4527 0.4883 14.072 1.5309 4.2714 0.9695 8.405 2.4725 12.302 4.4735v17.403c-3.4604-2.2913-7.2458-4.0472-11.23-5.2081-4.1417-1.1988-8.4326-1.7973-12.745-1.7771-5.4375-0.1589-10.831 1.0202-15.709 3.4311-4.2588 2.2138-7.7364 5.6784-9.9675 9.9278-2.4447 4.9018-3.6395 10.333-3.473 15.809-0.1585 5.4805 0.9881 10.92 3.3455 15.871 2.1196 4.2596 5.5168 7.7511 9.7159 9.9873 4.7872 2.4126 10.1 3.5926 15.458 3.433 9.0495 0.059 17.931-2.4495 25.615-7.2314z" fill="#eb504a" stroke-width="1.9856"/><g transform="translate(-14786 -193.82)" fill="#eb504a" font-family="'BBC Reith Sans'" font-size="40px" font-weight="500" stroke-width="2.7649"><path d="m14898 847.27q-6.304-9.8431-12.94-19.907-6.525-10.064-13.05-19.907t-12.94-19.133v58.948h-13.493v-79.077h14.157q9.953 14.378 19.575 28.976 9.733 14.599 19.355 29.64v-58.616h13.493v79.077z" style="white-space:pre"/><path d="m14966 766.54q8.848 0 15.926 2.8755t12.166 8.2948q5.198 5.4192 7.852 13.05 2.765 7.6312 2.765 17.032 0 9.4007-2.765 17.032-2.654 7.5206-7.742 12.94-5.087 5.4192-12.276 8.2948-7.078 2.8755-15.926 2.8755t-15.926-2.8755-12.276-8.2948q-5.088-5.4192-7.853-13.05-2.654-7.6312-2.654-17.032 0-9.4007 2.654-16.921 2.765-7.6312 7.853-13.05 5.087-5.4192 12.165-8.2948 7.189-2.8755 16.037-2.8755zm0 70.229q7.521 0 12.94-3.4285 5.419-3.5391 8.295-9.9537 2.875-6.5252 2.875-15.594 0-9.1795-2.875-15.594-2.876-6.5252-8.295-9.9537-5.419-3.5391-12.94-3.5391t-12.94 3.5391q-5.419 3.4285-8.295 9.9537-2.875 6.4146-2.875 15.484 0 9.069 2.875 15.594 2.876 6.5252 8.295 10.064 5.419 3.4285 12.94 3.4285z" style="white-space:pre"/><path d="m15033 816.97v30.304h-13.825v-79.077h27.207q15.373 0 23.557 6.4146 8.184 6.304 8.184 18.027 0 7.8524-3.981 13.493-3.982 5.5298-11.392 8.2948 5.198 7.963 10.286 16.147 5.087 8.1842 10.064 16.7h-16.147q-4.313-7.7418-8.848-15.262-4.424-7.5206-9.069-15.152-1.327 0.11059-2.765 0.11059zm0-37.603v26.433h12.497q9.18 0 13.825-3.0967 4.645-3.2073 4.645-10.064 0-6.857-4.645-10.064t-13.714-3.2073z" style="white-space:pre"/><path d="m15084 768.19h65.583v12.166h-25.769v66.911h-14.045v-66.911h-25.769z" style="white-space:pre"/><path d="m15214 847.27v-35.28h-38.488v35.28h-14.046v-79.077h14.046v31.631h38.488v-31.631h14.046v79.077z" style="white-space:pre"/><path d="m15333 847.27q-4.092-14.156-8.073-28.423-3.982-14.267-7.742-28.534-3.76 14.156-7.742 28.534-3.871 14.267-7.963 28.423h-14.82q-5.861-19.354-11.17-39.151t-10.064-39.925h15.151q3.208 16.147 6.747 32.405 3.649 16.147 7.631 31.631 4.203-15.262 8.073-30.414 3.982-15.152 7.632-30.304h13.824q3.65 15.041 7.521 29.972t7.963 29.861q3.981-15.373 7.52-31.299 3.54-15.926 6.747-31.852h14.82q-4.866 20.129-10.175 39.925-5.309 19.797-11.06 39.151z" style="white-space:pre"/><path d="m15380 768.19h52.865v11.834h-38.819v20.46h34.617v11.834h-34.617v23.115h40.921v11.834h-54.967z" style="white-space:pre"/><path d="m15469 848.93q-6.415 0-12.719-1.4378t-11.834-4.4239v-12.829q11.392 7.0782 24.774 7.0782 8.295 0 12.719-3.0967 4.534-3.0967 4.534-8.516 0-3.0967-1.327-5.0875-1.327-2.1013-3.65-3.4285-2.212-1.4378-5.198-2.3225-2.875-0.88477-6.083-1.659-5.861-1.4378-10.728-3.2073-4.755-1.8802-8.294-4.4239-3.429-2.5437-5.309-6.304t-1.88-9.1795q0-7.2994 3.65-12.497 3.649-5.3086 10.396-8.1842 6.746-2.8755 16.036-2.8755 6.083 0 12.055 1.4378 5.973 1.4378 10.618 3.8709v12.497q-4.424-2.7649-10.396-4.4239-5.862-1.7696-12.498-1.7696-7.521 0-11.723 2.8755-4.203 2.7649-4.203 7.963 0 3.7603 1.991 5.9722 1.991 2.1013 5.64 3.4285 3.65 1.2166 8.516 2.4331 5.309 1.3272 10.065 2.9861 4.866 1.659 8.516 4.3133 3.76 2.5437 5.861 6.5252 2.102 3.9815 2.102 9.9537 0 7.6312-3.761 13.05-3.76 5.4192-10.949 8.4054-7.078 2.8755-16.921 2.8755z" style="white-space:pre"/><path d="m15505 768.19h65.584v12.166h-25.769v66.911h-14.046v-66.911h-25.769z" style="white-space:pre"/></g></svg>
