<svg width="800" height="453.84" version="1.1" viewBox="0 0 800 453.84" xml:space="preserve" xmlns="http://www.w3.org/2000/svg"><path d="m0 207.54h203.79v45.215h-75.914v196.03h-51.965v-196.03h-75.914zm433.23 241.25-22.435-81.659-21.419-81.648-20.916 81.648-22.272 81.659h-54.998l-33.071-119.44-30.023-121.8h56.684l17.884 93.798 19.911 92.111 42.848-175.8h50.609l20.754 86.209 21.759 85.874 19.57-90.425 17.554-91.776h55.668a4171.3 4171.3 0 0 1-30.023 121.8l-33.066 119.44h-55.008zm358.33-172.93c-5.6192-15.396-13.658-28.562-24.126-39.476-10.469-10.914-23.063-19.282-37.789-25.132-14.726-5.8496-31.207-8.777-49.426-8.777s-34.7 2.9274-49.436 8.777c-14.737 5.8496-27.321 14.223-37.784 25.132-10.463 10.908-18.507 24.079-24.121 39.476-5.6139 15.396-8.4471 32.788-8.4471 52.133 0 19.125 2.8122 36.443 8.4471 51.965s13.663 28.798 24.121 39.816 23.047 19.455 37.784 25.305c14.737 5.8496 31.212 8.7665 49.436 8.7665s34.699-2.9222 49.431-8.7665c14.731-5.8444 27.331-14.286 37.789-25.305s18.502-24.294 24.126-39.816c5.6244-15.522 8.4366-32.84 8.4366-51.965 0-19.345-2.8174-36.716-8.4366-52.128zm-53.301 95.657c-5.1793 11.93-12.72 21.089-22.613 27.504-9.8924 6.4152-21.707 9.6097-35.427 9.6097s-25.54-3.1997-35.427-9.6097c-9.8872-6.4099-17.434-15.574-22.613-27.504-5.1793-11.93-7.761-26.425-7.761-43.529s2.5818-31.594 7.761-43.529c5.1793-11.935 12.705-21.031 22.613-27.331 9.9082-6.3 21.707-9.4473 35.427-9.4473s25.524 3.1526 35.427 9.4473c9.9029 6.2947 17.434 15.417 22.613 27.331 5.1793 11.914 7.7506 26.436 7.7506 43.529s-2.5922 31.615-7.7506 43.529z" fill="#10a88d" stroke-width="5.2369"/><link rel="stylesheet" type="text/css"/><link rel="stylesheet" type="text/css"/><path class="st0" d="m157.91-1.8848e-6v138.34h138.34v-138.34zm172.89 0v138.34h138.34v-138.34zm172.75 0v138.34h138.34v-138.34zm75.42 29.443c4.3021 0 8.3373 0.40332 12.236 1.3444 3.8988 0.94107 7.3942 2.1516 10.755 3.8992v15.056c-2.9577-2.0166-6.3197-3.4959-9.8151-4.5714-3.6299-1.0755-7.3931-1.6128-11.023-1.4783-5.3776 0-9.9501 0.94002-13.714 2.9566-3.7643 1.8822-6.7225 4.9748-8.6046 8.6046-2.0166 3.7643-2.9566 8.3368-2.9566 13.714 0 5.3776 0.94002 10.081 2.9566 13.846 1.8821 3.7643 4.8408 6.722 8.4707 8.7385 3.7643 2.0166 8.2008 2.9592 13.444 2.9592 8.0664 0 15.46-2.1526 22.316-6.3202v14.849l-0.13394 0.0735c-3.2265 1.7477-6.9919 3.2286-11.159 4.1697-4.3021 1.0755-8.7386 1.4783-13.444 1.4783-6.1842 0-11.831-0.94107-16.805-2.6888-4.9742-1.8822-9.1397-4.4376-12.635-7.7985-3.4954-3.361-6.0503-7.527-7.9324-12.501-1.8822-4.9742-2.6888-10.487-2.6888-16.671 0-6.0498 0.94056-11.429 2.8227-16.403 1.8822-4.8398 4.7048-9.0058 8.2003-12.501 3.6298-3.4954 7.9314-6.1847 12.906-7.9324 4.9743-1.8821 10.621-2.8227 16.805-2.8227zm-382.21 0.80611h29.172c8.6041 0 15.327 1.7488 20.032 5.1097 4.7054 3.4954 7.1263 8.3352 7.1263 14.788 0 3.7643-0.80716 6.8554-2.5549 9.6786-1.7477 2.6888-4.1671 4.8409-7.5281 6.4541 4.571 1.4788 8.0648 3.8966 10.485 7.2576 2.4199 3.2265 3.6314 7.2602 3.6314 11.966 0.13451 4.7054-1.0776 8.7385-3.4975 12.1-2.4199 3.361-5.7809 5.9169-10.083 7.6646-4.4365 1.7477-9.6786 2.6888-15.728 2.6888h-31.055zm173.02 0h29.175c8.6041 0 15.324 1.7488 20.029 5.1097 4.7054 3.4954 7.1263 8.3352 7.1263 14.788 0 3.7643-0.80716 6.8554-2.5549 9.6786-1.7477 2.6888-4.1671 4.8409-7.5281 6.4541 4.5709 1.4788 8.0674 3.8966 10.487 7.2576 2.4199 3.2265 3.6288 7.2602 3.6288 11.966-0.13451 4.7054-1.3434 8.7385-3.6288 12.1-2.4199 3.361-5.7809 5.9169-10.083 7.6646-4.4365 1.7477-9.6812 2.6888-15.731 2.6888h-30.921zm-157.29 12.638v19.36h11.966c4.1676 0 7.2597-0.94108 9.4107-2.6888 2.151-1.7477 3.2271-4.302 3.2271-7.3942 0-6.1842-4.1682-9.2768-12.638-9.2768zm172.89 0v19.36h11.966c4.1676 0 7.2597-0.94108 9.4108-2.6888s3.2271-4.302 3.2271-7.3942c0-6.1842-4.1681-9.2768-12.638-9.2768zm-172.89 31.593v20.972h13.714c4.7054 0 8.3347-0.94107 10.889-2.6888 2.5543-1.7477 3.7627-4.301 3.7627-7.662 0.13451-7.1253-4.7043-10.621-14.384-10.621zm172.89 0v20.972h13.714c4.7054 0 8.3347-0.94107 10.889-2.6888 2.5544-1.7477 3.7654-4.301 3.7654-7.662 0.13451-7.1253-4.707-10.621-14.387-10.621z" clip-rule="evenodd" fill="#10a88d" fill-rule="evenodd" stroke-width="1.3444"/><style lang="en" type="text/css"/><style lang="en" type="text/css"/>

</svg>
