<svg hola_ext_inject="disabled" version="1.1" viewBox="0 0 1041.5 296.19" xml:space="preserve" xmlns="http://www.w3.org/2000/svg"><defs><style type="text/css">
    .fil0 {fill:#C90302}
  </style></defs><g transform="matrix(1.25 0 0 -1.25 336.13 1018.6)"><g transform="matrix(2.0655 0 0 -2.0655 1292.8 -471.35)" font-family="Sans" font-size="40px" letter-spacing="0px" word-spacing="0px"><g transform="translate(-260.96 -267.14)" font-family="Sans"><g transform="translate(-166.4 -333.51)" fill="#c80201" font-family="Sans" font-size="40px" letter-spacing="0px" word-spacing="0px"><g transform="translate(-140.13 -41.856)"><path d="m-9.2783 125.46v-17.321h4.5996v25.88h-3.7195l-14.72-17.36v17.36h-4.5996v-25.88h3.7195z"/><path d="m5.508 123.14v6.4002h11.279l0.7605 4.48h-17.159v-25.88h17.24l-0.84106 4.4397h-11.279v6.0803h10.24v4.48z"/><path d="m29.092 127.1c-2e-6 -2.7466 1.8933-5.3731 5.6799-7.8796-1.014-1.2264-1.7143-2.253-2.1008-3.0798-0.38656-0.8268-0.57984-1.7871-0.57983-2.8809-5e-6 -1.7065 0.62011-3.0863 1.8604-4.1394 1.2402-1.053 2.7669-1.5796 4.5801-1.5796 1.84 3e-5 3.3667 0.51984 4.5801 1.5594 1.2134 1.0396 1.8201 2.4132 1.8201 4.1205-1.8e-5 2.5594-1.4002 4.7726-4.2004 6.6394l4.2004 4.8401c0.39956-1.0929 0.70596-2.0129 0.91919-2.76h3.5608c-0.72024 2.3202-1.3737 4.1602-1.9604 5.52 0.98631 1.2264 2.8263 3.4131 5.52 6.5601h-5.3601l-2.4792-2.8796c-2.1338 2.2396-4.7473 3.3594-7.8406 3.3594-2.3202 0-4.2668-0.66671-5.8398-2.0001-1.5731-1.3334-2.3596-3.1333-2.3596-5.3998zm8.2397-4.9194-0.04028-0.0403c-1.3599 0.90658-2.3132 1.7265-2.8601 2.4597-0.54688 0.73324-0.82032 1.5267-0.82031 2.3804-6e-6 1.2533 0.39347 2.1999 1.1804 2.84 0.78694 0.64006 1.807 0.96009 3.0603 0.96009 1.9197 0 3.4928-0.79997 4.7192-2.3999zm-0.92041-8.8806c-9e-6 0.9603 0.53344 2.0671 1.6003 3.3203l0.23926 0.31982 0.64087-0.43945c1.333-0.88052 1.9995-1.9873 1.9995-3.3203-1.4e-5 -0.61359-0.21994-1.1004-0.65979-1.4606-0.43987-0.36009-0.9666-0.54014-1.5802-0.54016-0.66651 2e-5 -1.2065 0.20021-1.6199 0.60058-0.41342 0.40041-0.62013 0.907-0.62012 1.5198z"/><path d="m81.133 127.74 2.1204 4.0405c-2.3999 1.8132-5.3866 2.7197-8.96 2.7197-3.6532 0-6.6465-1.18-8.9801-3.54s-3.5004-5.66-3.5004-9.8999c-1e-6 -4.0535 1.1601-7.3002 3.4802-9.74s5.3336-3.6596 9.0405-3.6597c3.3862 2e-5 6.346 0.88015 8.8794 2.6404l-2.1594 4.3994c-1.9466-1.4136-4.1602-2.1203-6.6406-2.1204-2.1061 2e-5 -3.7862 0.62665-5.0403 1.8799-1.4665 1.4673-2.1997 3.654-2.1997 6.5601-7e-6 2.5334 0.62662 4.5935 1.8799 6.1804 1.2532 1.5869 3.1466 2.3804 5.6799 2.3804 2.5333 1e-5 4.6667-0.6136 6.4001-1.8408z"/><path d="m100.28 114.34h4.8804v10.52c-2e-5 1.9735-0.17336 3.5201-0.52002 4.6399-0.3467 1.1198-0.90701 2.0801-1.6809 2.8809-1.3599 1.4128-3.6532 2.1191-6.8799 2.1191-3.173 0-5.4663-0.70638-6.8799-2.1191-0.74626-0.80078-1.2927-1.7611-1.6394-2.8809-0.34668-1.1198-0.52002-2.6664-0.52002-4.6399v-5c-3e-6 -2.2664-0.13347-4.1064-0.40039-5.52h4.8401c0.29296 1.547 0.43945 3.3871 0.43945 5.52v4.2004c-7e-6 1.3867 0.06001 2.4467 0.18005 3.1799 0.12003 0.73324 0.39367 1.3265 0.82092 1.7798 0.79996 0.74708 1.8664 1.1206 3.1995 1.1206 1.333 0 2.373-0.37353 3.1201-1.1206 0.69334-0.72021 1.04-2.3734 1.04-4.9597z"/><path d="m142.27 128.54c-4e-5 2.2396 0.13343 4.0662 0.40039 5.4797h-4.8401c-0.29381-1.547-0.4407-3.3736-0.44067-5.4797v-4.1602c-3e-5 -2.5871-0.34671-4.2273-1.04-4.9207-0.72024-0.77309-1.7603-1.1596-3.1201-1.1597-1.5731 1e-5 -2.8264 0.53346-3.7598 1.6003-0.77314 0.85288-1.1597 2.5195-1.1597 5v9.1199h-4.8804v-9.6399c-2e-5 -2.5334-0.3467-4.1736-1.04-4.9207-0.77313-0.77309-1.8132-1.1596-3.1201-1.1597-1.4933 1e-5 -2.7332 0.53346-3.7195 1.6003-0.50701 0.55991-0.83375 1.2665-0.98023 2.1198-0.14649 0.85328-0.21973 2.0001-0.21972 3.4406v8.5596h-4.8804v-14.16c-1e-5 -2.2664-0.13347-4.1064-0.40039-5.52h4.801c0.23925 0.82684 0.39916 1.8136 0.47974 2.9602h0.0403c0.47932-0.98631 1.2791-1.8062 2.3993-2.4597 1.1202-0.65346 2.4001-0.9802 3.8397-0.98022 2.4536 2e-5 4.3339 0.70681 5.6409 2.1204 0.31981 0.31984 0.61318 0.71983 0.88013 1.2 0.47931-0.7202 1.1723-1.3737 2.0789-1.9604 1.3867-0.90655 3.0936-1.3598 5.1208-1.3599 1.2264 2e-5 2.3663 0.20001 3.4198 0.59997 1.0534 0.40001 1.8735 0.9068 2.4603 1.5204 0.71937 0.77313 1.2392 1.7263 1.5594 2.8595s0.48031 2.7 0.48035 4.7003z"/><path d="m166.73 124.22c-3e-5 3.5466-1.0401 6.2533-3.1201 8.1201-1.6 1.4396-3.56 2.1594-5.8801 2.1594-1.0661 0-2.1458-0.26001-3.2391-0.78003-1.0934-0.52002-2.027-1.2598-2.8009-2.2192-0.026 0.90658-0.13265 1.7464-0.31982 2.5195h-4.8401c0.26693-1.4136 0.40039-3.2402 0.40039-5.4797v-20.4h4.8804v8.6804c0.63964-0.90655 1.4728-1.6266 2.4994-2.16 1.0266-0.53343 2.1535-0.80015 3.3807-0.80017 1.9726 2e-5 3.7593 0.61322 5.3601 1.8396 2.4528 1.84 3.6792 4.6802 3.6792 8.5205zm-6.4392 4.3201c0.90656-0.98713 1.3598-2.4274 1.3599-4.3207-2e-5 -1.8933-0.4533-3.36-1.3599-4.4-0.90741-0.98631-2.1476-1.4795-3.7207-1.4795-1.5462 2e-5 -2.7861 0.49318-3.7195 1.4795-0.90658 1.04-1.3599 2.5067-1.3599 4.4-1e-5 1.8933 0.45328 3.3333 1.3599 4.3201 0.90657 0.98674 2.1464 1.4801 3.7195 1.4801 1.6268 0 2.867-0.49316 3.7207-1.4795z"/><path d="m183.64 114.22-0.48096 4.3994c-0.93344-0.18634-1.7599-0.27952-2.4792-0.27954-1.4673 2e-5 -2.6672 0.54648-3.5999 1.6394-0.82683 0.98716-1.2402 2.8406-1.2402 5.5603v8.4802h-4.8804v-14.16c-1e-5 -2.2664-0.13347-4.1064-0.40039-5.52h4.7607c0.2661 0.93345 0.43944 1.9336 0.52002 3.0005h0.0403c1.2793-2.2933 3.1592-3.4399 5.6396-3.4399 0.90656 2e-5 1.6134 0.10663 2.1204 0.31983z"/><path d="m186.19 128.5v-14.16h4.8804v14.16c-1e-5 2.2664 0.13346 4.1064 0.40039 5.52h-4.8401c-0.29378-1.3599-0.44067-3.1999-0.44067-5.52zm0.36011-17.08c-0.5599-0.55987-0.83985-1.2664-0.83985-2.1198 0-0.85324 0.28666-1.5665 0.85999-2.1399 0.57332-0.5733 1.2734-0.85996 2.1002-0.85999 0.85286 3e-5 1.5662 0.28669 2.1399 0.85999 0.57372 0.57335 0.86059 1.2864 0.8606 2.1393-1e-5 0.82685-0.28688 1.5269-0.8606 2.1002-0.57374 0.57335-1.2872 0.86001-2.1405 0.85999-0.85328 2e-5 -1.5599-0.27993-2.1198-0.83985z"/><path d="m214.77 134.02h-4.8401c-0.10663-0.507-0.21323-1.3468-0.31983-2.5195-0.77394 0.95947-1.7076 1.6992-2.8009 2.2192-1.0934 0.52002-2.1731 0.78003-3.2391 0.78003-2.347 0-4.3071-0.73324-5.8801-2.1997-2.0801-1.8669-3.1201-4.5601-3.1201-8.0798 0-3.8135 1.2268-6.6536 3.6804-8.5205 1.5999-1.2264 3.3862-1.8396 5.3589-1.8396 2.5602 2e-5 4.5202 0.98675 5.8801 2.9602v-2.4805h4.8804v14.16c-3e-5 2.2664 0.13344 4.1064 0.40039 5.52zm-13.761-5.4797c0.90738 0.98634 2.1476 1.4795 3.7207 1.4795s2.8129-0.49316 3.7195-1.4795c0.90656-1.04 1.3598-2.48 1.3599-4.3201-2e-5 -1.8937-0.4533-3.3606-1.3599-4.4006-0.90659-0.98631-2.1464-1.4795-3.7195-1.4795-1.5731 2e-5 -2.8131 0.49338-3.7201 1.4801-0.90699 0.98675-1.3605 2.4534-1.3605 4.4-1e-5 1.8929 0.45328 3.3329 1.3599 4.3201z"/></g><g transform="matrix(3.5926 0 0 -3.5926 -1839.7 -1704.7)"><g transform="matrix(1.2104 0 0 1.2104 -58.316 -65.858)" fill="#c80201"><g transform="matrix(.40174 0 0 -.40174 363.77 -324.66)" fill="#c80201"><g transform="translate(27.667 -18.445)" fill="#c80201"><path transform="matrix(.34004 0 0 .34004 -17.938 -275.55)" d="m523.94 922.28c-1.1542-0.0146-2.3265-4e-3 -3.5 0.0312-14.885 0.45302-28.005 5.0417-38.781 13.562-5.9047 4.6687-12.061 12.326-15.625 19.406-9.6047 19.084-9.7657 44.961-0.40625 64.094 3.2103 6.5627 6.4381 11.085 11.5 16.156 10.246 10.265 22.988 15.984 39.406 17.656 2.5213 0.2568 13.983-0.07 16.531-0.4687 14.102-2.2101 25.431-7.5786 34.469-16.313 10.512-10.159 16.56-22.666 18.75-38.781 0.56228-4.1395 0.62726-14.575 0.125-18.688-1.9791-16.205-8.2766-29.509-18.719-39.594-11.354-10.965-26.437-16.843-43.75-17.062zm-0.53125 23.531c3.2018 0.0287 6.3931 0.34319 9.2812 0.9375 15.03 3.0923 24.62 13.544 27.406 29.875 1.1101 6.5034 1.1098 15.765 0 22.344-3.03 17.961-14.401 28.792-32.094 30.625-2.7973 0.2898-7.8402 0.269-10.688-0.031-9.0773-0.9578-16.256-4.1745-21.875-9.8125-5.5332-5.5522-8.7497-12.493-10.281-22.25-0.64654-4.1203-0.64201-15.008 0-19.281 0.55029-3.6684 1.6478-7.9767 2.6875-10.594 3.8611-9.7197 10.887-16.471 20.562-19.719 4.2558-1.4289 9.6636-2.1416 15-2.0938z"/><path transform="matrix(.34004 0 0 .34004 -17.938 -275.55)" d="m794.38 922.38c-6.9922-0.0197-8.892 0.13973-14.031 1.1562-21.755 4.303-38.527 19.208-45.562 40.438-3.2528 9.8154-4.5201 20.158-3.6875 30.375 1.8239 22.38 11.847 39.754 28.812 50 8.0003 4.8312 16.194 7.4286 28.031 8.8437 0.48641 0.058 4.1897 0.071 8.2188 0.031 5.7677-0.057 8.1874-0.1904 11.469-0.625 14.747-1.9512 27.555-6.3905 37.875-13.094 2.7465-1.7838 5.5938-3.8902 5.5938-4.1562 0-0.1141-2.1282-4.1223-4.7188-8.9063l-4.7188-8.6875-1.375 0.9062c-19.001 12.154-46.946 15.431-63.688 7.5-10.435-4.9432-16.505-13.51-18.812-26.562l-0.15625-0.8125h97.5l0.125-0.5625c0.75164-3.2196 1.0864-12.064 0.65625-17.25-0.61107-7.358-1.606-12.393-3.6875-18.719-6.4844-19.707-20.894-33.076-40.938-38-5.9242-1.4554-9.3743-1.8539-16.906-1.875zm-2.0625 23.25c3.7003-0.0689 7.905 0.14657 10.406 0.59375 7.2966 1.3043 12.805 3.901 17.469 8.2188 5.5534 5.1413 9.1034 12.955 9.5938 21.156l0.15625 2.7188h-72.376l0.15625-1.5c0.57764-5.526 2.8189-11.731 6-16.562 1.8413-2.7967 6.0976-7.012 9-8.9062 3.9794-2.5962 8.6613-4.3608 13.938-5.2812 1.3741-0.23987 3.436-0.39614 5.6562-0.4375z"/><path d="m194.16 70.955c0-6.4887 0.0341-10.979 0.0886-11.66 0.34852-4.3491 1.4572-7.1538 3.7335-9.4446 2.4196-2.435 5.6738-3.591 9.7058-3.448 3.2316 0.11464 5.4849 1.0034 7.2592 2.8629 1.3929 1.4599 2.2209 3.166 2.7043 5.5717 0.35303 1.7579 0.38803 2.564 0.43441 10.05 0.0606 9.753 0.22282 12.919 0.82622 16.126l0.0931 0.49397h8.3647l-0.1566-0.96635c-0.16275-1.0031-0.34126-2.6243-0.50811-4.6167-0.0581-0.6946-0.12395-4.9472-0.16408-10.608-0.066-9.3396-0.0889-10.056-0.39059-12.197-0.44945-3.1916-1.5215-6.0984-3.0231-8.1975-1.2342-1.7254-3.2792-3.5865-5.0413-4.5885-4.4188-2.5126-10.403-2.9908-15.509-1.2392-1.8512 0.63492-3.545 1.57-5.0329 2.7782-0.93329 0.75785-2.3188 2.1784-2.9072 2.9807-0.23336 0.31843-0.44719 0.57893-0.47514 0.57893-0.0278 0-0.0969-0.43492-0.15343-0.96635-0.1609-1.5138-0.50789-3.3986-0.88559-4.8099l-0.0864-0.32212h-8.2142l0.10829 0.62274c0.36624 2.1086 0.61128 4.9852 0.72572 8.5237 0.0459 1.4177 0.084 9.4287 0.0848 17.802l1e-3 15.224h8.4174v-10.552z"/><path transform="matrix(1.9914 0 0 1.9914 -933.17 -2271.5)" d="m494.56 1160.4v10.688h11.375v-10.688h-11.375zm2.9688 1.5h1.5c1.3553 0 1.5433 0.017 1.8438 0.094 0.97214 0.2486 1.603 0.9247 1.6562 1.7812 0.0453 0.7275-0.20813 1.2313-0.78125 1.5938l-0.1875 0.125 0.21875 0.062c0.55564 0.1957 1.0114 0.6109 1.25 1.0938 0.15923 0.3222 0.1875 0.3209 0.1875 0.8125 0 0.4908-0.0299 0.525-0.1875 0.8437-0.35502 0.7184-0.97389 1.1001-1.9688 1.25-0.30069 0.045-0.82817 0.062-1.9688 0.063h-1.5625v-7.7188zm1.375 1.2188v1.9687h0.5c0.26687-4e-4 0.5924-0.029 0.75-0.062 0.69401-0.1471 0.98232-0.4735 0.9375-1.0938-0.0248-0.3414-0.13516-0.5456-0.4375-0.6874-0.2258-0.1058-0.30306-0.1116-1-0.125h-0.75zm0 3.1874v2.0938h0.75c0.40925-5e-4 0.8678-0.01 1.0312-0.031 0.71945-0.104 1.125-0.4676 1.125-1.0313 0-0.3566-0.14015-0.5707-0.4375-0.75-0.35821-0.216-0.68092-0.2813-1.625-0.2813h-0.84375z"/><path transform="matrix(1.9914 0 0 1.9914 -933.17 -2271.5)" d="m507.66 1160.4v10.688h11.438v-10.688h-11.438zm3.0312 1.5h1.4688c1.6657 9e-4 1.8807 0.022 2.4062 0.2812 0.79316 0.3919 1.2218 1.1747 1.0938 2-0.0268 0.1729-0.0801 0.3987-0.125 0.5-0.099 0.2239-0.41791 0.5761-0.625 0.6876-0.15682 0.084-0.19815 0.1562-0.0937 0.1562 0.14444 0 0.74737 0.3498 0.96875 0.5625 0.48764 0.4686 0.69846 1.2158 0.53125 1.8437-0.20822 0.7823-0.81127 1.3193-1.75 1.5626-0.32753 0.085-0.50557 0.1077-2.125 0.125h-1.75v-7.7188zm1.375 1.2188v2l0.625-0.031c0.3652-0.014 0.68826-0.055 0.8125-0.094 0.50655-0.1594 0.75519-0.4627 0.75-0.9688-3e-3 -0.3177-0.0806-0.4875-0.28125-0.6562-0.22416-0.1887-0.51605-0.25-1.25-0.25h-0.65625zm0 3.1874v2.125l0.9375-0.031c0.79435-0.017 0.93158-0.011 1.1875-0.094 0.72989-0.2364 0.99452-1.0348 0.53125-1.5624-0.30393-0.3461-0.71041-0.4365-1.8438-0.4376h-0.8125z"/><path transform="matrix(1.9914 0 0 1.9914 -933.17 -2271.5)" d="m520.81 1160.4v10.688h11.406v-10.688h-11.406zm5.9375 1.4062c0.82889-0.046 1.6455 0.079 2.6562 0.4376l0.46875 0.1874v0.7188c0 0.3889 9e-3 0.6875 0 0.6875s-0.26144-0.09-0.53125-0.2187c-0.95914-0.4564-1.5903-0.6264-2.4688-0.5938-0.45988 0.017-0.62123 0.039-0.96875 0.1562-0.52537 0.1776-0.86336 0.3915-1.2188 0.75-0.48178 0.486-0.71993 1.1206-0.71875 1.8438 2e-3 0.768 0.23851 1.3405 0.75 1.8438 0.57394 0.5645 1.3203 0.8393 2.2812 0.8437 0.85161 0 1.5671-0.1856 2.4688-0.6563l0.5-0.25v1.4376l-0.28125 0.1562c-0.809 0.3728-1.5026 0.5083-2.5 0.5312-0.40334 0.01-0.85073 0.021-1 0-1.5549-0.219-2.8126-1.1353-3.375-2.4687-0.33734-0.8-0.36936-1.7362-0.0937-2.5937 0.43999-1.3691 1.6746-2.4154 3.1875-2.7188 0.28557-0.057 0.56745-0.079 0.84375-0.094z"/></g></g></g></g></g></g></g></g></svg>
