<svg hola_ext_inject="disabled" version="1.1" viewBox="0 0 199 58.415" xml:space="preserve" xmlns="http://www.w3.org/2000/svg"><defs><style type="text/css">
    .fil0 {fill:#C90302}
  </style></defs><g transform="matrix(1.25 0 0 -1.25 -494.56 -389.91)" fill="#c80201"><path d="m468.17-348.71-0.77456-1.602c-0.6461 0.38917-1.3432 0.63665-2.2444 0.63665-1.1108 0-1.7626-0.49308-1.7626-1.1562 0-1.6511 5.1386-1.3545 5.1386-4.6833 0-1.5737-1.022-3.1436-3.7311-3.1436-1.4906 0-2.8508 0.50819-3.6763 1.2506l0.83879 1.6001c0.81424-0.60265 1.8023-0.98804 2.7941-0.98804 1.0126 0 1.6209 0.37027 1.6209 1.0957 0 1.9251-5.1008 1.3602-5.1008 4.7947 0 1.8703 1.6927 3.1002 3.6348 3.1002 1.3923 0 2.4219-0.30605 3.2626-0.90492"/><path d="m476.05-350.62c0.37973-0.14358 0.75567-0.32494 1.1278-0.57998l-0.64988-1.5359c-0.18703 0.14358-0.45907 0.28716-0.73867 0.42129-0.39106 0.17192-0.93892 0.31927-1.4339 0.31927-1.4433 0-2.4012-0.92192-2.4012-2.4862 0-1.7135 1.1486-2.5258 2.4427-2.5258 0.81234 0 1.5491 0.20781 2.1858 0.64988l0.65932-1.3262c-0.88602-0.716-1.9591-0.97671-3.1209-0.97671-2.3615 0-4.2129 1.6209-4.2129 4.1789 0 2.6278 1.9534 4.1675 4.228 4.1675 0.69522 0 1.3205-0.10201 1.9137-0.30604"/><path d="m482.45-350.29c-2.4465 0-4.109-1.772-4.109-4.2034 0-2.4427 1.6625-4.1562 4.109-4.1562 2.4314 0 4.109 1.7135 4.109 4.1562 0 2.4314-1.6776 4.2034-4.109 4.2034zm0-1.842c0.65366 0 1.1146-0.18136 1.4641-0.56675 0.35705-0.40995 0.56675-1.0183 0.56675-1.7947 0-0.77457-0.2097-1.3432-0.56675-1.7475-0.3495-0.38539-0.81046-0.61398-1.4641-0.61398-0.67255 0-1.143 0.22859-1.5113 0.61398-0.35139 0.40429-0.56676 0.97293-0.56676 1.7475 0 0.77645 0.21537 1.3848 0.56676 1.7947 0.36839 0.38539 0.83879 0.56675 1.5113 0.56675z"/><path d="m493.06-358.38c-0.42318-0.15869-1.0579-0.27582-1.4887-0.27582-1.0164 0-1.9175 0.27582-2.471 1.005-0.39861 0.53841-0.60264 1.2979-0.60264 2.3747v3.2683h-1.2771v1.5095h1.2771v2.3199h1.9685v-2.3199h2.0422v-1.5095h-2.0422v-2.9698c0-0.73489 0.0888-1.2676 0.3155-1.6077 0.22292-0.35517 0.60642-0.50064 1.0768-0.50064 0.2966 0 0.86336 0.0831 1.0164 0.13036l0.18514-1.4244z"/><path d="m494.48-348h1.9742v-8.2482c0-0.75756 0.0283-1.6115 0.1568-2.2103h-1.9723c-0.11336 0.59887-0.1587 1.4528-0.1587 2.2103v8.2482z"/><path d="m501.86-350.29c-0.92381 0-1.5605-0.28715-2.1726-0.75567-0.96159-0.73489-1.5113-1.9591-1.5113-3.4478 0-1.3621 0.46662-2.5258 1.2752-3.2588 0.64044-0.5932 1.3451-0.89736 2.3615-0.89736 0.79724 0 1.8155 0.4005 2.4559 1.228 0.0264-0.37973 0.0774-0.75568 0.14161-1.039h1.9364c-0.12272 0.59887-0.14161 1.4377-0.14161 2.2198v5.762h-1.9836v-1.039c-0.50441 0.72733-1.3621 1.228-2.3615 1.228zm0.42507-1.842c0.66877 0 1.1543-0.18136 1.5113-0.56675 0.36083-0.40995 0.56676-1.0258 0.56676-1.7947 0-0.75757-0.20593-1.3432-0.56676-1.7475-0.35705-0.38539-0.84257-0.61398-1.5113-0.61398-0.65366 0-1.1581 0.22859-1.5114 0.61398-0.36083 0.38917-0.51952 0.98993-0.51952 1.7475 0 0.76889 0.15869 1.3999 0.51952 1.7947 0.35328 0.38539 0.85769 0.56675 1.5114 0.56675z"/><path d="m514.51-358.46c-0.12091 0.59887-0.16247 1.4528-0.16247 2.2103v1.6833c0 0.98993-0.068 1.602-0.4534 1.9931-0.38162 0.34761-0.72923 0.46285-1.296 0.46285-0.59887 0-1.1184-0.17381-1.5642-0.64421-0.45529-0.50064-0.50441-1.2299-0.50441-2.2519v-3.4534h-1.9742v5.7242c0 0.77078-0.0567 1.6304-0.1568 2.233h1.9213c0.0775-0.29282 0.1757-0.79912 0.2097-1.1845h0.0208c0.36462 0.71978 1.3508 1.3753 2.5957 1.3753 1.0542 0 1.8287-0.37784 2.2935-0.8558 0.60264-0.62154 0.88224-1.3923 0.88224-3.0586v-2.0233c0-0.75756 0.0491-1.6115 0.15681-2.2103h-1.9685z"/><path d="m523.92-348.02v-3.4478c-0.50063 0.70466-1.3961 1.1807-2.4087 1.1807-0.92759 0-1.517-0.28715-2.1253-0.75567-0.97104-0.72355-1.5114-1.9591-1.5114-3.4478 0-1.364 0.46285-2.558 1.2752-3.3061 0.64988-0.57809 1.3281-0.85013 2.3615-0.85013 0.81234 0 1.8117 0.4005 2.4559 1.228 0.0189-0.37973 0.0491-0.75568 0.0945-1.039h1.9836c-0.10761 0.59887-0.14161 1.4622-0.14161 2.2198v8.2179h-1.9836zm-2.4087-4.109c0.14584 0.0266 0.30699 0 0.47229 0 0.65932 0 1.1581-0.19458 1.5114-0.56675 0.35705-0.40806 0.56675-1.0258 0.56675-1.7947 0-0.78024-0.2097-1.3451-0.56675-1.7475-0.35328-0.37217-0.85203-0.61398-1.5114-0.61398-0.66121 0-1.1732 0.24181-1.5113 0.61398-0.35328 0.4024-0.51953 0.97293-0.51953 1.7475 0 0.77645 0.16625 1.3867 0.51953 1.7947 0.25361 0.27913 0.60131 0.48714 1.039 0.56675z"/><g transform="matrix(.71877 0 0 -.71877 338.62 -297.83)"><g transform="translate(27.667 -18.445)" fill="#c80201"><path transform="matrix(.34004 0 0 .34004 -17.938 -275.55)" d="m523.94 922.28c-1.1542-0.0146-2.3265-4e-3 -3.5 0.0312-14.885 0.45302-28.005 5.0417-38.781 13.562-5.9047 4.6687-12.061 12.326-15.625 19.406-9.6047 19.084-9.7657 44.961-0.40625 64.094 3.2103 6.5627 6.4381 11.085 11.5 16.156 10.246 10.265 22.988 15.984 39.406 17.656 2.5213 0.2568 13.983-0.07 16.531-0.4687 14.102-2.2101 25.431-7.5786 34.469-16.313 10.512-10.159 16.56-22.666 18.75-38.781 0.56228-4.1395 0.62726-14.575 0.125-18.688-1.9791-16.205-8.2766-29.509-18.719-39.594-11.354-10.965-26.437-16.843-43.75-17.062zm-0.53125 23.531c3.2018 0.0287 6.3931 0.34319 9.2812 0.9375 15.03 3.0923 24.62 13.544 27.406 29.875 1.1101 6.5034 1.1098 15.765 0 22.344-3.03 17.961-14.401 28.792-32.094 30.625-2.7973 0.2898-7.8402 0.269-10.688-0.031-9.0773-0.9578-16.256-4.1745-21.875-9.8125-5.5332-5.5522-8.7497-12.493-10.281-22.25-0.64654-4.1203-0.64201-15.008 0-19.281 0.55029-3.6684 1.6478-7.9767 2.6875-10.594 3.8611-9.7197 10.887-16.471 20.562-19.719 4.2558-1.4289 9.6636-2.1416 15-2.0938z"/><path transform="matrix(.34004 0 0 .34004 -17.938 -275.55)" d="m794.38 922.38c-6.9922-0.0197-8.892 0.13973-14.031 1.1562-21.755 4.303-38.527 19.208-45.562 40.438-3.2528 9.8154-4.5201 20.158-3.6875 30.375 1.8239 22.38 11.847 39.754 28.812 50 8.0003 4.8312 16.194 7.4286 28.031 8.8437 0.48641 0.058 4.1897 0.071 8.2188 0.031 5.7677-0.057 8.1874-0.1904 11.469-0.625 14.747-1.9512 27.555-6.3905 37.875-13.094 2.7465-1.7838 5.5938-3.8902 5.5938-4.1562 0-0.1141-2.1282-4.1223-4.7188-8.9063l-4.7188-8.6875-1.375 0.9062c-19.001 12.154-46.946 15.431-63.688 7.5-10.435-4.9432-16.505-13.51-18.812-26.562l-0.15625-0.8125h97.5l0.125-0.5625c0.75164-3.2196 1.0864-12.064 0.65625-17.25-0.61107-7.358-1.606-12.393-3.6875-18.719-6.4844-19.707-20.894-33.076-40.938-38-5.9242-1.4554-9.3743-1.8539-16.906-1.875zm-2.0625 23.25c3.7003-0.0689 7.905 0.14657 10.406 0.59375 7.2966 1.3043 12.805 3.901 17.469 8.2188 5.5534 5.1413 9.1034 12.955 9.5938 21.156l0.15625 2.7188h-72.376l0.15625-1.5c0.57764-5.526 2.8189-11.731 6-16.562 1.8413-2.7967 6.0976-7.012 9-8.9062 3.9794-2.5962 8.6613-4.3608 13.938-5.2812 1.3741-0.23987 3.436-0.39614 5.6562-0.4375z"/><path d="m194.16 70.955c0-6.4887 0.0341-10.979 0.0886-11.66 0.34852-4.3491 1.4572-7.1538 3.7335-9.4446 2.4196-2.435 5.6738-3.591 9.7058-3.448 3.2316 0.11464 5.4849 1.0034 7.2592 2.8629 1.3929 1.4599 2.2209 3.166 2.7043 5.5717 0.35303 1.7579 0.38803 2.564 0.43441 10.05 0.0606 9.753 0.22282 12.919 0.82622 16.126l0.0931 0.49397h8.3647l-0.1566-0.96635c-0.16275-1.0031-0.34126-2.6243-0.50811-4.6167-0.0581-0.6946-0.12395-4.9472-0.16408-10.608-0.066-9.3396-0.0889-10.056-0.39059-12.197-0.44945-3.1916-1.5215-6.0984-3.0231-8.1975-1.2342-1.7254-3.2792-3.5865-5.0413-4.5885-4.4188-2.5126-10.403-2.9908-15.509-1.2392-1.8512 0.63492-3.545 1.57-5.0329 2.7782-0.93329 0.75785-2.3188 2.1784-2.9072 2.9807-0.23336 0.31843-0.44719 0.57893-0.47514 0.57893-0.0278 0-0.0969-0.43492-0.15343-0.96635-0.1609-1.5138-0.50789-3.3986-0.88559-4.8099l-0.0864-0.32212h-8.2142l0.10829 0.62274c0.36624 2.1086 0.61128 4.9852 0.72572 8.5237 0.0459 1.4177 0.084 9.4287 0.0848 17.802l1e-3 15.224h8.4174v-10.552z"/><path transform="matrix(1.9914 0 0 1.9914 -933.17 -2271.5)" d="m494.56 1160.4v10.688h11.375v-10.688h-11.375zm2.9688 1.5h1.5c1.3553 0 1.5433 0.017 1.8438 0.094 0.97214 0.2486 1.603 0.9247 1.6562 1.7812 0.0453 0.7275-0.20813 1.2313-0.78125 1.5938l-0.1875 0.125 0.21875 0.062c0.55564 0.1957 1.0114 0.6109 1.25 1.0938 0.15923 0.3222 0.1875 0.3209 0.1875 0.8125 0 0.4908-0.0299 0.525-0.1875 0.8437-0.35502 0.7184-0.97389 1.1001-1.9688 1.25-0.30069 0.045-0.82817 0.062-1.9688 0.063h-1.5625v-7.7188zm1.375 1.2188v1.9687h0.5c0.26687-4e-4 0.5924-0.029 0.75-0.062 0.69401-0.1471 0.98232-0.4735 0.9375-1.0938-0.0248-0.3414-0.13516-0.5456-0.4375-0.6874-0.2258-0.1058-0.30306-0.1116-1-0.125h-0.75zm0 3.1874v2.0938h0.75c0.40925-5e-4 0.8678-0.01 1.0312-0.031 0.71945-0.104 1.125-0.4676 1.125-1.0313 0-0.3566-0.14015-0.5707-0.4375-0.75-0.35821-0.216-0.68092-0.2813-1.625-0.2813h-0.84375z"/><path transform="matrix(1.9914 0 0 1.9914 -933.17 -2271.5)" d="m507.66 1160.4v10.688h11.438v-10.688h-11.438zm3.0312 1.5h1.4688c1.6657 9e-4 1.8807 0.022 2.4062 0.2812 0.79316 0.3919 1.2218 1.1747 1.0938 2-0.0268 0.1729-0.0801 0.3987-0.125 0.5-0.099 0.2239-0.41791 0.5761-0.625 0.6876-0.15682 0.084-0.19815 0.1562-0.0937 0.1562 0.14444 0 0.74737 0.3498 0.96875 0.5625 0.48764 0.4686 0.69846 1.2158 0.53125 1.8437-0.20822 0.7823-0.81127 1.3193-1.75 1.5626-0.32753 0.085-0.50557 0.1077-2.125 0.125h-1.75v-7.7188zm1.375 1.2188v2l0.625-0.031c0.3652-0.014 0.68826-0.055 0.8125-0.094 0.50655-0.1594 0.75519-0.4627 0.75-0.9688-3e-3 -0.3177-0.0806-0.4875-0.28125-0.6562-0.22416-0.1887-0.51605-0.25-1.25-0.25h-0.65625zm0 3.1874v2.125l0.9375-0.031c0.79435-0.017 0.93158-0.011 1.1875-0.094 0.72989-0.2364 0.99452-1.0348 0.53125-1.5624-0.30393-0.3461-0.71041-0.4365-1.8438-0.4376h-0.8125z"/><path transform="matrix(1.9914 0 0 1.9914 -933.17 -2271.5)" d="m520.81 1160.4v10.688h11.406v-10.688h-11.406zm5.9375 1.4062c0.82889-0.046 1.6455 0.079 2.6562 0.4376l0.46875 0.1874v0.7188c0 0.3889 9e-3 0.6875 0 0.6875s-0.26144-0.09-0.53125-0.2187c-0.95914-0.4564-1.5903-0.6264-2.4688-0.5938-0.45988 0.017-0.62123 0.039-0.96875 0.1562-0.52537 0.1776-0.86336 0.3915-1.2188 0.75-0.48178 0.486-0.71993 1.1206-0.71875 1.8438 2e-3 0.768 0.23851 1.3405 0.75 1.8438 0.57394 0.5645 1.3203 0.8393 2.2812 0.8437 0.85161 0 1.5671-0.1856 2.4688-0.6563l0.5-0.25v1.4376l-0.28125 0.1562c-0.809 0.3728-1.5026 0.5083-2.5 0.5312-0.40334 0.01-0.85073 0.021-1 0-1.5549-0.219-2.8126-1.1353-3.375-2.4687-0.33734-0.8-0.36936-1.7362-0.0937-2.5937 0.43999-1.3691 1.6746-2.4154 3.1875-2.7188 0.28557-0.057 0.56745-0.079 0.84375-0.094z"/></g></g></g></svg>
