<svg width="800" height="405.75" version="1.1" viewBox="0 0 800 405.75" xml:space="preserve" xmlns="http://www.w3.org/2000/svg"><path d="m0.0051152 185.55h143.88v38.613h-97.432v53.083h85.971v38.618h-85.971v85.363h-46.453v-215.68zm267.27-4.5304c16.283 0 31.013 2.6202 44.191 7.8452s24.435 12.718 33.782 22.468c9.3469 9.7504 16.549 21.528 21.569 35.293 5.0208 13.765 7.549 29.312 7.549 46.607 0 17.1-2.518 32.581-7.549 46.459-5.031 13.877-12.212 25.747-21.569 35.595-9.3571 9.8474-20.609 17.396-33.782 22.621-13.172 5.225-27.908 7.8452-44.191 7.8452s-31.029-2.61-44.196-7.8401-24.435-12.774-33.787-22.621c-9.352-9.8474-16.549-21.723-21.569-35.595-5.0208-13.872-7.5439-29.358-7.5439-46.459 0-17.294 2.5078-32.821 7.5439-46.607 5.0361-13.785 12.212-25.538 21.569-35.293 9.3571-9.7555 20.609-17.238 33.787-22.468 13.178-5.2302 27.898-7.8503 44.196-7.8503zm0 184.31c12.258 0 22.816-2.8602 31.667-8.591 8.8514-5.7307 15.583-13.923 20.216-24.588 4.6326-10.665 6.9361-23.628 6.9361-38.915s-2.3137-28.25-6.9361-38.915-11.364-18.801-20.216-24.435c-8.8514-5.6336-19.409-8.4428-31.667-8.4428s-22.836 2.8194-31.682 8.4428c-8.8463 5.6234-15.583 13.78-20.216 24.435-4.6326 10.654-6.931 23.633-6.931 38.915s2.3086 28.265 6.931 38.915c4.6224 10.649 11.364 18.857 20.216 24.588 8.8514 5.7307 19.409 8.591 31.682 8.591zm226.24 40.421c-19.296 0-35.845-3.6672-49.62-11.007-13.775-7.3396-24.332-17.948-31.672-31.82-7.3396-13.872-11.007-30.574-11.007-50.08v-127.3h46.448v132.42c0 15.287 3.9788 26.999 11.916 35.145 7.9372 8.1466 19.25 12.212 33.935 12.212 14.684 0 25.992-4.0707 33.935-12.212 7.9423-8.1415 11.916-19.858 11.916-35.145v-132.42h46.459v127.3c0 19.511-3.6672 36.203-11.007 50.08-7.3396 13.877-17.953 24.486-31.83 31.82-13.877 7.3345-30.359 11.007-49.472 11.007zm171.04-82.947v78.427h-45.851v-215.68h78.728c28.357 0 50.126 5.9248 65.306 17.79 15.18 11.865 22.78 28.863 22.78 50.979 0 14.286-3.371 26.452-10.098 36.504-6.7267 10.052-16.344 17.8-28.807 23.229l26.84 42.985 26.549 44.191h-53.39a2133.5 2133.5 0 0 0-44.952-78.427h-37.101zm0-36.509h30.165c14.271 0 25.134-2.564 32.576-7.692 7.4418-5.128 11.165-13.224 11.165-24.287s-3.6724-19.199-11.007-24.435c-7.3345-5.2353-18.147-7.8401-32.428-7.8401h-30.472v64.248z" fill="#7831eb" stroke-width="5.1076"/><link rel="stylesheet" type="text/css"/><link rel="stylesheet" type="text/css"/><path class="st0" d="m183.65-4.1016e-6v123.68h123.68v-123.68zm154.57 0v123.68h123.68v-123.68zm154.45 0v123.68h123.68v-123.68zm67.428 26.323c3.8462 0 7.4539 0.36058 10.939 1.2019 3.4856 0.84135 6.6106 1.9236 9.6155 3.4861v13.461c-2.6442-1.8029-5.65-3.1255-8.775-4.087-3.2452-0.96155-6.6097-1.4418-9.8549-1.3217-4.8077 0-8.8957 0.84041-12.261 2.6433-3.3654 1.6827-6.0101 4.4476-7.6928 7.6928-1.8029 3.3654-2.6433 7.4534-2.6433 12.261 0 4.8077 0.84042 9.0131 2.6433 12.379 1.6827 3.3654 4.3279 6.0097 7.5731 7.8126 3.3654 1.8029 7.3318 2.6457 12.019 2.6457 7.2116 0 13.822-1.9245 19.952-5.6505v13.275l-0.11975 0.06573c-2.8846 1.5625-6.251 2.8865-9.977 3.7279-3.8462 0.96155-7.8126 1.3217-12.019 1.3217-5.5289 0-10.577-0.84135-15.024-2.4039-4.4472-1.6827-8.1713-3.9673-11.296-6.9722-3.125-3.0048-5.4092-6.7294-7.0919-11.177-1.6827-4.4472-2.4039-9.3756-2.4039-14.904 0-5.4087 0.84089-10.218 2.5236-14.665 1.6827-4.327 4.2063-8.0516 7.3313-11.177 3.2452-3.125 7.0909-5.5294 11.538-7.0919 4.4471-1.6827 9.4953-2.5236 15.024-2.5236zm-341.71 0.72069h26.081c7.6924 0 13.702 1.5635 17.909 4.5683 4.2068 3.125 6.3712 7.452 6.3712 13.221 0 3.3654-0.72163 6.1289-2.2841 8.653-1.5625 2.4039-3.7255 4.3279-6.7304 5.7702 4.0866 1.3221 7.2102 3.4837 9.3737 6.4886 2.1635 2.8846 3.2466 6.4909 3.2466 10.698 0.12025 4.2068-0.96342 7.8126-3.1269 10.817-2.1635 3.0048-5.1683 5.2899-9.0145 6.8524-3.9664 1.5625-8.653 2.4039-14.062 2.4039h-27.764zm154.69 0h26.083c7.6924 0 13.7 1.5635 17.907 4.5683 4.2068 3.125 6.3712 7.452 6.3712 13.221 0 3.3654-0.72163 6.1289-2.2841 8.653-1.5625 2.4039-3.7255 4.3279-6.7304 5.7702 4.0866 1.3221 7.2126 3.4837 9.376 6.4886 2.1635 2.8846 3.2443 6.4909 3.2443 10.698-0.12026 4.2068-1.201 7.8126-3.2443 10.817-2.1635 3.0048-5.1683 5.2899-9.0145 6.8524-3.9664 1.5625-8.6553 2.4039-14.064 2.4039h-27.644zm-140.63 11.299v17.308h10.698c3.726 0 6.4904-0.84135 8.4135-2.4039 1.9231-1.5625 2.8851-3.8462 2.8851-6.6106 0-5.5289-3.7264-8.2938-11.299-8.2938zm154.57 0v17.308h10.698c3.726 0 6.4904-0.84135 8.4135-2.4039 1.9231-1.5625 2.8851-3.8462 2.8851-6.6106 0-5.5289-3.7265-8.2938-11.299-8.2938zm-154.57 28.245v18.75h12.261c4.2068 0 7.4515-0.84135 9.7352-2.4039 2.2837-1.5625 3.364-3.8452 3.364-6.8501 0.12026-6.3702-4.2058-9.4957-12.86-9.4957zm154.57 0v18.75h12.261c4.2068 0 7.4515-0.84135 9.7352-2.4039 2.2837-1.5625 3.3664-3.8452 3.3664-6.8501 0.12026-6.3702-4.2082-9.4957-12.862-9.4957z" clip-rule="evenodd" fill="#7831eb" fill-rule="evenodd" stroke-width="1.2019"/><style lang="en" type="text/css"/><style lang="en" type="text/css"/>

</svg>
