<svg width="919.09" height="653.45" version="1.1" viewBox="0 0 919.09 653.45" xml:space="preserve" xmlns="http://www.w3.org/2000/svg"><link rel="stylesheet" type="text/css"/><link rel="stylesheet" type="text/css"/><style lang="en" type="text/css"/><style lang="en" type="text/css"/>

<path d="m0.0034 238.43h234.12v51.945h-87.214v225.21h-59.7v-225.21h-87.213zm497.72 277.16-25.774-93.814-24.607-93.801-24.029 93.801-25.587 93.814h-63.185l-37.994-137.22-34.492-139.93h65.122l20.546 107.76 22.875 105.82 49.226-201.97h58.142l23.843 99.041 24.998 98.656 22.483-103.88 20.167-105.44h63.954c-10.796 46.814-22.295 93.462-34.492 139.93l-37.988 137.22h-63.196zm411.67-198.67c-6.4554-17.688-15.691-32.813-27.717-45.352-12.027-12.538-26.496-22.152-43.414-28.873-16.918-6.7202-35.852-10.083-56.783-10.083-20.93 0-39.865 3.3632-56.795 10.083-16.931 6.7203-31.388 16.34-43.408 28.873-12.02 12.532-21.261 27.663-27.71 45.352-6.4497 17.688-9.7044 37.668-9.7044 59.893 0 21.972 3.2306 41.868 9.7044 59.7s15.697 33.085 27.71 45.743c12.015 12.658 26.478 22.351 43.408 29.072 16.931 6.7204 35.858 10.072 56.795 10.072s39.864-3.3572 56.789-10.072c16.924-6.7143 31.399-16.412 43.414-29.072 12.015-12.659 21.256-27.91 27.717-45.743 6.4611-17.832 9.6928-37.728 9.6928-59.7 0-22.224-3.2374-42.181-9.6928-59.887zm-61.235 109.9c-5.9499 13.706-14.613 24.228-25.979 31.598-11.364 7.3701-24.938 11.04-40.7 11.04s-29.342-3.676-40.7-11.04-20.029-17.892-25.979-31.598c-5.9499-13.706-8.9162-30.358-8.9162-50.008s2.9663-36.297 8.9162-50.008c5.9511-13.711 14.596-24.161 25.979-31.399 11.384-7.2377 24.938-10.854 40.7-10.854s29.323 3.6218 40.7 10.854c11.377 7.2317 20.029 17.712 25.979 31.399s8.9048 30.371 8.9048 50.008-2.9778 36.321-8.9048 50.008z" fill="#10a88d" stroke-width="6.0164"/><path d="m181.3-1.3173e-5v158.93h158.93v-158.93zm110.83 112.16c-2.9388 4.0096-6.9689 7.0907-11.61 8.8773-5.773 2.2186-11.926 3.2803-18.11 3.1252h-35.616v-89.397h33.55c9.8858 0 17.544 1.979 22.974 5.9367 5.4248 3.9463 8.49 10.368 8.1453 17.068 0.1034 3.8907-0.9179 7.7285-2.9204 11.065-2.0966 3.2606-5.094 5.8445-8.6278 7.4399 4.8045 1.4303 9.0357 4.3404 12.093 8.3154 2.8675 4.0237 4.3426 8.8757 4.1967 13.815 0.1299 4.9-1.2959 9.715-4.0738 13.754zm-22.735-43.7c2.5068-2.1179 3.8773-5.2864 3.7073-8.5635 0-7.0844-4.8206-10.627-14.463-10.629h-13.737v22.258h13.737c3.8326 0.2614 7.6364-0.8228 10.756-3.0656zm-8.4487 17.068h-16.044v24.132h15.804c4.3852 0.2724 8.7519-0.7961 12.519-3.0637 2.8894-1.9813 4.5449-5.3172 4.376-8.8156 0-8.1672-5.5501-12.251-16.655-12.253zm119.01-85.529v158.93h158.93v-158.93zm110.83 112.16c-2.941 4.0096-6.9701 7.0907-11.61 8.8773-5.7741 2.2186-11.928 3.2803-18.112 3.1252h-35.618v-89.397h33.549c9.887 0 17.546 1.979 22.976 5.9367 5.4272 3.9463 8.49 10.368 8.1442 17.068 0.1034 3.8907-0.9145 7.7285-2.9181 11.065-2.0978 3.2606-5.0952 5.8445-8.6302 7.4399 4.8068 1.4303 9.0381 4.3404 12.094 8.3154 2.8687 4.0237 4.3438 8.8757 4.1956 13.815 0.131 4.9-1.2947 9.715-4.0704 13.754zm-22.734-43.7c2.5068-2.1174 3.8797-5.2863 3.7097-8.5635 0-7.0844-4.8229-10.627-14.469-10.629h-13.736v22.258h13.736c3.8337 0.2614 7.6376-0.8228 10.759-3.0656zm-8.4486 17.068h-16.045v24.132h15.801c4.3886 0.2724 8.7554-0.7961 12.522-3.0637 2.8871-1.9813 4.5426-5.3172 4.3748-8.8156 0-8.1672-5.5512-12.251-16.654-12.253zm119.01 73.401h158.93v-158.93h-158.93zm114.14-40.431c-4.0555 2.1775-8.3843 3.8053-12.868 4.8406-5.0435 1.2033-10.212 1.7997-15.398 1.777-6.568 0.095-13.102-0.9618-19.305-3.1252-5.4364-1.9068-10.388-4.9814-14.509-9.0084-4.052-4.0724-7.155-8.9893-9.0862-14.399-2.184-6.1548-3.2547-12.65-3.1571-19.18-0.092-6.4205 1.0214-12.801 3.2823-18.811 2.0771-5.4283 5.3054-10.342 9.4631-14.401 4.2404-4.0758 9.2919-7.2087 14.828-9.193 6.2165-2.2001 12.775-3.2784 19.368-3.1848 4.7345-0.027 9.4551 0.4882 14.072 1.5308 4.2715 0.9695 8.405 2.4726 12.302 4.4734v17.403c-3.4603-2.2912-7.2458-4.0471-11.23-5.208-4.1416-1.1988-8.4326-1.7973-12.745-1.7771-5.4375-0.1588-10.831 1.0202-15.709 3.4311-4.2588 2.2137-7.7363 5.6783-9.9674 9.9277-2.4448 4.9018-3.6396 10.333-3.473 15.809-0.1585 5.4805 0.988 10.92 3.3455 15.87 2.1196 4.2596 5.5168 7.7511 9.7158 9.9872 4.7873 2.4126 10.1 3.5926 15.458 3.433 9.0495 0.059 17.931-2.4494 25.615-7.2313z" fill="#10a88d" stroke-width="1.9856"/><g transform="matrix(2.47 0 0 2.47 -168 438.62)" fill="#10a88d"><g transform="matrix(1.1194 0 0 1.1194 566.73 -785.36)" style="shape-inside:url(#rect2233-6-2-9);white-space:pre" aria-label="HD"><path d="m-288.14 779.29v-12.76h-13.92v12.76h-5.08v-28.6h5.08v11.44h13.92v-11.44h5.08v28.6z"/><path d="m-276.33 779.29v-28.6h10.44q4.48 0 7.64 1.68 3.2 1.68 4.88 4.88 1.72 3.16 1.72 7.68 0 4.56-1.72 7.76-1.68 3.2-4.88 4.92-3.16 1.68-7.68 1.68zm5.08-24.28v19.96h5.04q4.48 0 6.88-2.56t2.4-7.48q0-4.84-2.36-7.36-2.36-2.56-6.88-2.56z"/></g><path d="m243.4 86.973v-13.746h-13.925v13.746h-6.8955v-32.015h6.8955v12.269h13.925v-12.269h6.8955v32.015z" font-family="'BBC Reith Sans'" font-size="40px" font-weight="bold" stroke-width="1.1194" style="white-space:pre"/><path d="m257.2 54.958h12.224q5.0597 0 8.6418 1.8806 3.6268 1.8806 5.5074 5.4627 1.8806 3.5373 1.8806 8.597t-1.9254 8.6865q-1.8806 3.5821-5.4626 5.5074-3.5821 1.8806-8.6865 1.8806h-12.179zm11.821 26.104q4.4776 0 6.8507-2.597 2.4179-2.6418 2.4179-7.5671 0-4.8806-2.3731-7.4328-2.3283-2.597-6.8507-2.597h-4.9701v20.194z" font-family="'BBC Reith Sans'" font-size="40px" font-weight="bold" stroke-width="1.1194" style="white-space:pre"/></g></svg>
