<svg width="901.36" height="521.41" version="1.1" viewBox="0 0 901.36 521.41" xml:space="preserve" xmlns="http://www.w3.org/2000/svg"><link rel="stylesheet" type="text/css"/><link rel="stylesheet" type="text/css"/><style lang="en" type="text/css"/><style lang="en" type="text/css"/>

<g transform="matrix(1.1489 0 0 1.1489 -74.169 -475.57)" fill="#e8504b"><g transform="matrix(2.6253 0 0 2.6253 1509.8 -1440.6)" style="shape-inside:url(#rect2233-6-2-9);white-space:pre" aria-label="HD"><path d="m-288.14 779.29v-12.76h-13.92v12.76h-5.08v-28.6h5.08v11.44h13.92v-11.44h5.08v28.6z"/><path d="m-276.33 779.29v-28.6h10.44q4.48 0 7.64 1.68 3.2 1.68 4.88 4.88 1.72 3.16 1.72 7.68 0 4.56-1.72 7.76-1.68 3.2-4.88 4.92-3.16 1.68-7.68 1.68zm5.08-24.28v19.96h5.04q4.48 0 6.88-2.56t2.4-7.48q0-4.84-2.36-7.36-2.36-2.56-6.88-2.56z"/></g><g transform="translate(13273 4219.5)"><path d="m-12977-3529.7c-5.63-15.396-13.669-28.562-24.127-39.481s-23.063-19.282-37.799-25.132c-14.737-5.8496-31.207-8.7717-49.431-8.7717-18.225 0-34.7 2.9273-49.431 8.777-14.731 5.8496-27.331 14.223-37.795 25.132-10.463 10.908-18.501 24.079-24.126 39.481-5.624 15.402-8.431 32.783-8.431 52.128 0 19.125 2.817 36.444 8.436 51.966 5.62 15.522 13.668 28.798 24.127 39.816 10.458 11.018 23.052 19.455 37.794 25.304s31.212 8.7665 49.426 8.7665 34.699-2.9221 49.431-8.7665c14.731-5.8443 27.341-14.286 37.799-25.304s18.492-24.299 24.127-39.816c5.634-15.517 8.431-32.84 8.431-51.966 0-19.345-2.817-36.716-8.431-52.133zm-53.312 95.662c-5.179 11.93-12.715 21.089-22.602 27.504s-21.717 9.6097-35.438 9.6097-25.53-3.1997-35.422-9.6097c-9.893-6.4099-17.439-15.574-22.613-27.504s-7.766-26.425-7.766-43.529 2.592-31.594 7.766-43.529 12.705-21.031 22.613-27.331c9.908-6.2999 21.701-9.4473 35.422-9.4473s25.53 3.1526 35.438 9.4473 17.423 15.417 22.602 27.331c5.18 11.914 7.761 26.436 7.761 43.529s-2.592 31.615-7.761 43.529zm251.17 77.27-53.311-84.528-53.312-82.156v166.68h-49.939v-241.25h52.647l53.819 81.826 52.809 83.172v-165h49.933v241.25h-52.635zm94.939-241.25h166v43.188h-114.05v52.296h101.23v43.188h-101.23v59.386h120.46v43.188h-172.42v-241.25z" stroke-width="5.2369"/><path class="st0" d="m-13083-3805.6v138.34h138.34v-138.34zm172.89 0v138.34h138.34v-138.34zm172.76 0v138.34h138.34v-138.34zm75.421 29.443c4.302 0 8.337 0.4033 12.236 1.3444s7.394 2.1516 10.755 3.8993v15.056c-2.957-2.0166-6.319-3.496-9.815-4.5715-3.63-1.0756-7.393-1.6128-11.023-1.4783-5.378 0-9.95 0.94-13.715 2.9566-3.764 1.8822-6.722 4.9749-8.604 8.6048-2.017 3.7643-2.957 8.337-2.957 13.715s0.94 10.082 2.957 13.846c1.882 3.7644 4.84 6.7221 8.47 8.7387 3.765 2.0166 8.201 2.9593 13.445 2.9593 8.066 0 15.46-2.1527 22.316-6.3203v14.849l-0.134 0.073c-3.226 1.7478-6.992 3.2287-11.159 4.1698-4.302 1.0756-8.739 1.4783-13.444 1.4783-6.185 0-11.831-0.941-16.806-2.6888-4.974-1.8822-9.14-4.4376-12.635-7.7986-3.496-3.3611-6.05-7.5272-7.933-12.501-1.882-4.9744-2.688-10.487-2.688-16.671 0-6.0499 0.94-11.429 2.822-16.403 1.883-4.84 4.705-9.006 8.201-12.502 3.63-3.4955 7.931-6.1848 12.906-7.9326 4.974-1.8822 10.62-2.8227 16.805-2.8227zm-382.22 0.8061h29.172c8.605 0 15.327 1.7488 20.033 5.1099 4.705 3.4954 7.126 8.3353 7.126 14.788 0 3.7643-0.807 6.8554-2.555 9.6787-1.748 2.6888-4.167 4.841-7.528 6.4542 4.571 1.4789 8.065 3.8967 10.485 7.2578 2.42 3.2266 3.631 7.2603 3.631 11.966 0.135 4.7054-1.077 8.7387-3.497 12.1s-5.781 5.9169-10.083 7.6647c-4.437 1.7477-9.679 2.6888-15.729 2.6888h-31.055zm173.02 0h29.175c8.604 0 15.324 1.7488 20.03 5.1099 4.705 3.4954 7.126 8.3353 7.126 14.788 0 3.7643-0.807 6.8554-2.555 9.6787-1.748 2.6888-4.167 4.841-7.528 6.4542 4.571 1.4789 8.067 3.8967 10.487 7.2578 2.42 3.2266 3.629 7.2603 3.629 11.966-0.134 4.7054-1.343 8.7387-3.629 12.1-2.42 3.361-5.781 5.9169-10.083 7.6647-4.436 1.7477-9.681 2.6888-15.731 2.6888h-30.921zm-157.3 12.638v19.36h11.966c4.168 0 7.26-0.9411 9.411-2.6889 2.151-1.7476 3.227-4.302 3.227-7.3942 0-6.1843-4.168-9.2769-12.638-9.2769zm172.89 0v19.36h11.966c4.168 0 7.26-0.9411 9.411-2.6889 2.151-1.7476 3.227-4.302 3.227-7.3942 0-6.1843-4.168-9.2769-12.638-9.2769zm-172.89 31.594v20.972h13.715c4.705 0 8.335-0.9411 10.889-2.6889 2.554-1.7477 3.763-4.301 3.763-7.6621 0.134-7.1254-4.705-10.621-14.384-10.621zm172.89 0v20.972h13.715c4.705 0 8.335-0.9411 10.889-2.6889 2.554-1.7477 3.766-4.301 3.766-7.6621 0.134-7.1254-4.708-10.621-14.387-10.621z" clip-rule="evenodd" fill-rule="evenodd" stroke-width="1.3444"/></g></g></svg>
