<svg version="1.1" viewBox="0 0 949.51 698.07" xmlns="http://www.w3.org/2000/svg">
 <g transform="translate(111.9 -149.04)">
  <path d="m-109.68 149.99h943.5v693.5h-943.5v-693.5z" fill="#fdfafa"/>
  <path d="m-111.9 149.08c316.5-0.0625 633-0.0375 949.51-0.025-0.075 232.69-0.0375 465.38-0.025 698.05-316.49-0.012-632.98 0.025-949.45-0.012 0.025-232.68 0.088-465.35-0.037-698.01z" fill="#9d0a0e"/>
  <path d="m167.08 435.21c0.1875-37.312-0.325-74.638 0.2625-111.94 39.075 0.2875 78.162-0.05 117.24 0.1625 0.275 0.24999 0.825 0.725 1.1 0.975 0.1 36.925 0.025 73.862 0.0375 110.8-39.55 0.05-79.1 0.05-118.64 0z" fill="#fdfafa"/>
  <path d="m303.68 323.37c39.5 0.0125 79-0.0125 118.5 0.0125 0.0625 37.275 0.0125 74.562 0.025 111.84-39.525 0.025-79.038 0.0125-118.56 0.0125 0.025-37.287-0.05-74.575 0.0375-111.86z" fill="#fdfafa"/>
  <path d="m440.16 323.37c39.462-0.0625 78.925 0.1375 118.39-0.1 0.4625 37.312 0.0875 74.65 0.1875 111.97-39.538-0.0375-79.062 0.025-118.6-0.025 0-37.288-0.0375-74.563 0.025-111.85z" fill="#fdfafa"/>
  <path d="m475.15 347.02c17.325-12.3 41.088-10.775 59.438-1.625-0.2375 4.775-0.125 9.5625-0.15 14.337-10.75-5.7-22.875-10.375-35.262-8.4125-10.7 1.2625-21.012 8.3-24.688 18.65-3.8875 10.2-1.1 22.775 7.2375 29.962 5.45 4.95 12.825 7.2625 20.062 7.825 11.85 0.9125 23.562-3.3375 33.388-9.7375-0.0125 5.1375 0.0625 10.275-0.0625 15.425-13.35 6.7125-28.938 8.9625-43.588 5.9125-12.825-2.7125-24.475-11.312-29.875-23.388-8.0625-16.762-1.7875-38.538 13.5-48.95z" fill="#9d0a0e"/>
  <path d="m198.13 339.17c9.1125-0.0125 18.238-0.0875 27.35 0.025 8.7 0.1875 18.125 3.9125 22.388 11.938 4.9 8.675 1.8 21.088-7.5125 25.4 4.6125 2.1375 9.5125 4.2 12.725 8.325 5.775 7.025 5.7625 18.075-0.1 25.038-5.625 7-15 9.5-23.638 9.6625-10.388 0.075-20.788 0.0125-31.175 0.025 0-26.8 0.0625-53.612-0.0375-80.412z" fill="#9d0a0e"/>
  <path d="m334.54 339.24c9.075-0.2 18.15-0.1125 27.225-0.0625 8.1125 0.15 16.85 3.15 21.575 10.112 3.575 4.9875 3.8875 11.613 2.3625 17.388-1.3 4.5375-5.05 7.625-8.8125 10.15 5.625 1.6875 10.95 4.9875 14.15 10.012 4.425 7.0125 3.8 16.8-1.6125 23.125-5.3625 6.7375-14.3 9.275-22.588 9.5625-10.725 0.14999-21.462-0.0125-32.188 0.075-0.075-26.787 0.1375-53.575-0.1125-80.362z" fill="#9d0a0e"/>
  <path d="m212.45 351.68c5.9125 0.2875 12.225-0.9125 17.838 1.5125 7.175 2.875 6.5 14.65-0.4 17.475-5.45 2.4125-11.612 1.9625-17.425 1.9875-0.025-7-0.0125-13.988-0.0125-20.975z" fill="#fdfafa"/>
  <path d="m348.96 351.69c6.05 0.225 12.45-0.8875 18.175 1.575 6.6375 3.0375 6.2875 13.6 0.1375 16.975-5.6125 2.925-12.188 2.3875-18.3 2.4-0.025-6.9875-0.0125-13.962-0.0125-20.95z" fill="#fdfafa"/>
  <path d="m212.45 385.12c8.3625 0.5375 17.462-1.5625 25.212 2.525 4.7 2.2875 6.35 8.65 3.7875 13.1-1.7875 3.5875-5.8625 5.1875-9.5875 5.85-6.45 0.8-12.95 0.275-19.425 0.4125 0.0125-7.2875 0-14.588 0.0125-21.888z" fill="#fdfafa"/>
  <path d="m348.96 385.16c8.55 0.5125 17.988-1.7375 25.775 2.8 4.6 2.475 5.5125 8.75 3.2125 13.088-2.325 3.775-6.8625 5.35-11.075 5.7375-5.9625 0.475-11.938 0.125-17.9 0.225-0.025-7.2875-0.0125-14.562-0.0125-21.85z" fill="#fdfafa"/>
  <path d="m-65.199 518.86c11.488 0.025 22.975-0.075 34.462 0.0375 9.825 0.1375 20.3 3.9875 25.913 12.462 8.05 12.425 6.35 31.738-6.6125 40.263-11.412 7.775-25.862 5.85-38.9 6.0625 0.012 14.975 0.012 29.95 0 44.938-4.95 0.013-9.8875 0.013-14.838 0-0.037-34.588 0-69.175-0.025-103.76z" fill="#fdfafa"/>
  <path d="m-10.537 622.61c14.888-34.8 29.688-69.65 44.6-104.45 3.4375 0 6.8875 0 10.338 0.0125 15.525 34.8 30.925 69.65 46.438 104.45-5.0875 0.013-10.162 0.013-15.238-0.013-4.5625-10.225-9.125-20.45-13.762-30.638-14.7-0.038-29.388 0-44.088-0.013-4.4625 10.188-8.675 20.5-13.162 30.688-5.0375-0.038-10.075-0.013-15.125-0.038z" fill="#fdfafa"/>
  <path d="m102.48 518.84c9.3375 0.05 18.675-0.0625 28.012 0.05 9.075 0.15 18.6 2.8875 25.025 9.6 7.475 7.925 8.9625 20.338 5.125 30.313-2.625 6.8375-8.625 11.688-15.162 14.588 9.6375 6.35 15.438 16.65 21.45 26.188 4.7625 8 10.25 15.525 15.712 23.05-5.8625 0-11.712-0.037-17.575 0.037-7.3-10.638-13.6-21.975-21.425-32.25-3.85-4.8625-8.0875-9.9625-14.1-12.112-3.9375-1.1125-8.1-0.65-12.138-0.775-0.075 15.038 0.012 30.075-0.05 45.112-4.95-0.025-9.9125-0.013-14.862-0.038-0.025-34.588-0.012-69.175-0.012-103.76z" fill="#fdfafa"/>
  <path d="m193.81 518.83c4.975 0.025 9.9375 0.0125 14.912 0.0125-0.0375 30.113 0.025 60.225-0.025 90.338 15.638 0.05 31.288-0.037 46.938 0.05 0 4.45 0 8.9125-0.0125 13.375-20.6 0.038-41.212 0.013-61.812 0.013-0.025-34.6-0.025-69.188 0-103.79z" fill="#fdfafa"/>
  <path d="m268.59 518.82c4.9625 0 9.925 0.0125 14.9-0.0125 0 34.613 0.0125 69.213-0.0125 103.81-4.95 0.013-9.9125 0-14.862 0.013-0.0375-34.612 0.0125-69.212-0.025-103.81z" fill="#fdfafa"/>
  <path d="m339.53 518.22c3.4375-0.0625 6.8875-0.075 10.338-0.1375 15.8 34.7 30.925 69.725 46.5 104.54-5.025 0.013-10.062-0.013-15.088 0.038-4.9-10.15-9.15-20.6-14.062-30.738-14.638 0.125-29.288-0.05-43.925 0.088-4.4375 10.238-8.45 20.7-13.362 30.725-5-0.175-10.012-0.1-15.012-0.1 14.962-34.762 29.75-69.6 44.612-104.41z" fill="#fdfafa"/>
  <path d="m407.45 518.83c4.65 0.0125 9.3125 0.0125 13.975 0.0375 11.388 14.138 22.95 28.15 34.15 42.45 11.862-13.662 22.762-28.175 34.388-42.05 4.5-1.05 9.425-0.125 14.1-0.4125-0.0375 34.588 0.025 69.175-0.0375 103.76-4.975 0.013-9.9625 0.025-14.938-0.037 0.175-27.038-0.325-54.075 0.2625-81.1-11.038 13.05-21.262 26.788-32.075 40.025-1.0875 1.2-3.1125 0.3-3.7625-0.9625-10.45-12.95-20.6-26.138-31.15-38.988-0.075 27.012-0.0125 54.038-0.025 81.062-4.975 0.013-9.925 0.013-14.888 0-0.0125-34.6-0.0125-69.188 0-103.79z" fill="#fdfafa"/>
  <path d="m526.35 519.01c19.6-0.35 39.225-0.0625 58.825-0.15-0.0125 4.4125-0.0125 8.825 0.0125 13.25-14.625 0.025-29.238-0.0125-43.862 0.0125-0.075 10.438-0.025 20.888-0.025 31.325 14.138 0.062 28.3-0.25 42.438 0.1625-0.0875 4.4125-0.0625 8.8375-0.025 13.262-14.138 0.013-28.275 0-42.412 0.013-0.025 10.762 0.0125 21.538-0.025 32.3 15.1 0.038 30.2-0.025 45.288 0.038-0.05 4.4625-0.05 8.925-0.0375 13.388-20.025 0.025-40.05 0.038-60.075-0.012-0.075-34.525 0.1-69.062-0.1-103.59z" fill="#fdfafa"/>
  <path d="m602.21 518.84c3.95 0 7.9125 0 11.875 0.0125 23.512 26.688 46.675 53.7 70.388 80.213-0.0625-26.738 0.0125-53.475-0.0375-80.2 4.6-0.0375 9.2125-0.025 13.825-0.0125 0.0125 34.588 0.0125 69.175 0 103.75-4.2375 0.025-8.475 0.025-12.7 0.013-23.175-26.538-46.15-53.262-69.325-79.8-0.1125 26.612 0.05 53.225-0.0875 79.825-4.6375-0.025-9.275-0.025-13.9-0.013-0.0625-34.6 0-69.188-0.0375-103.79z" fill="#fdfafa"/>
  <path d="m712.28 518.84c28.838 0.0125 57.662 0 86.5 0.0125-0.025 4.4125-0.025 8.825 0.0125 13.25-11.862 0-23.725 0.05-35.588-0.025-0.85 14.65 0.125 29.338-0.2625 44.013-0.0125 15.525 0.275 31.062-0.1 46.575-4.875-0.075-9.75-0.037-14.612-0.05-0.0375-30.162 0.025-60.325-0.0375-90.488-11.975-0.05-23.95 0-35.912-0.025 0.0125-4.425 0.0125-8.8375 0-13.262z" fill="#fdfafa"/>
  <path d="m-50.249 532.11c8.9125 0.51251 18.325-1.3875 26.85 1.9625 11.338 5.05 10.788 23.938-0.7 28.488-8.35 3.2125-17.538 1.2-26.25 1.7625 0.087-10.738-0.088-21.475 0.1-32.213z" fill="#9d0a0e"/>
  <path d="m117.38 531.61c7.25 0.25 14.912-0.8875 21.763 2.1125 10.912 4.5 10.925 22.35 0.75 27.688-6.8875 3.7625-15 2.475-22.513 2.7125v-32.513z" fill="#9d0a0e"/>
  <path d="m23.526 578.72c5.15-12.588 10.225-25.2 15.588-37.688 5.225 12.688 11.462 24.95 16.438 37.725-10.675-0.225-21.35 0.075-32.025-0.037z" fill="#9d0a0e"/>
  <path d="m329.29 578.68c4.6-12.7 10.375-24.962 15.112-37.625 5.8375 12.45 11.338 25.062 16.875 37.662-10.662-0.013-21.325 0.037-31.988-0.038z" fill="#9d0a0e"/>
 </g>
</svg>
