<svg width="800" height="382.78" version="1.1" viewBox="0 0 800 382.78" xml:space="preserve" xmlns="http://www.w3.org/2000/svg"><path class="st0" d="m172.74 31.175v108.38h108.38v-108.38zm135.45 0v108.38h108.38v-108.38zm135.35 0v108.38h108.38v-108.38zm59.088 23.067c3.3705 0 6.5319 0.31597 9.5864 1.0533 3.0545 0.73729 5.793 1.6856 8.4262 3.0549v11.796c-2.3172-1.5799-4.9512-2.7389-7.6897-3.5815-2.8438-0.84262-5.7922-1.2635-8.636-1.1582-4.2131 0-7.7954 0.73647-10.745 2.3164-2.9492 1.4746-5.2668 3.8975-6.7414 6.7413-1.5799 2.9492-2.3164 6.5315-2.3164 10.745s0.73647 7.8983 2.3164 10.847c1.4746 2.9492 3.7926 5.2664 6.6364 6.8463 2.9492 1.5799 6.425 2.3184 10.533 2.3184 6.3196 0 12.112-1.6865 17.484-4.9516v11.633l-0.10494 0.0576c-2.5279 1.3692-5.4778 2.5295-8.743 3.2668-3.3705 0.84262-6.8463 1.1582-10.533 1.1582-4.8451 0-9.2688-0.73729-13.166-2.1065-3.8971-1.4746-7.1606-3.4766-9.8991-6.1098s-4.7401-5.8971-6.2147-9.7942-2.1066-8.2159-2.1066-13.061c0-4.7397 0.73689-8.954 2.2115-12.851 1.4746-3.7918 3.686-7.0557 6.4246-9.7942 2.8438-2.7385 6.2139-4.8455 10.111-6.2147 3.8971-1.4746 8.3208-2.2115 13.166-2.2115zm-299.44 0.63154h22.855c6.7409 0 12.008 1.3701 15.694 4.0032 3.6864 2.7385 5.5832 6.5303 5.5832 11.586 0 2.9492-0.63237 5.3709-2.0016 7.5827-1.3692 2.1065-3.2647 3.7926-5.8979 5.0565 3.5811 1.1586 6.3184 3.0528 8.2143 5.686 1.8959 2.5278 2.8451 5.6881 2.8451 9.3745 0.10539 3.6864-0.84427 6.8463-2.7402 9.4794s-4.5291 4.6356-7.8995 6.0049c-3.4758 1.3692-7.5827 2.1065-12.322 2.1065h-24.33zm135.56 0h22.857c6.7409 0 12.006 1.3701 15.692 4.0032 3.6864 2.7385 5.5832 6.5303 5.5832 11.586 0 2.9492-0.63237 5.3709-2.0016 7.5827-1.3692 2.1065-3.2647 3.7926-5.8979 5.0565 3.5811 1.1586 6.3204 3.0528 8.2163 5.686 1.8959 2.5278 2.843 5.6881 2.843 9.3745-0.10538 3.6864-1.0524 6.8463-2.843 9.4794-1.8959 2.6332-4.5291 4.6356-7.8995 6.0049-3.4758 1.3692-7.5848 2.1065-12.324 2.1065h-24.225zm-123.23 9.9012v15.168h9.3745c3.2651 0 5.6877-0.73729 7.3729-2.1065 1.6852-1.3693 2.5283-3.3705 2.5283-5.793 0-4.845-3.2656-7.268-9.9012-7.268zm135.45 0v15.168h9.3745c3.2652 0 5.6877-0.73729 7.3729-2.1065 1.6852-1.3693 2.5283-3.3705 2.5283-5.793 0-4.845-3.2655-7.268-9.9012-7.268zm-135.45 24.752v16.431h10.745c3.6864 0 6.5298-0.73729 8.5311-2.1065 2.0012-1.3692 2.9479-3.3696 2.9479-6.0028 0.10539-5.5823-3.6856-8.3213-11.269-8.3213zm135.45 0v16.431h10.745c3.6864 0 6.5299-0.73729 8.5311-2.1065 2.0012-1.3692 2.95-3.3696 2.95-6.0028 0.10538-5.5823-3.6877-8.3213-11.271-8.3213z" clip-rule="evenodd" fill="#0096dc" fill-rule="evenodd" stroke-width="1.0533"/><link rel="stylesheet" type="text/css"/><link rel="stylesheet" type="text/css"/><path d="m147.85 382.78-13.753-40.994h-76.701l-13.753 40.994h-43.642l36.632-97.065 37.693-92.045h43.904l38.217 94.555 36.103 94.555h-44.703zm-78.816-74.849h53.161l-13.092-36.898-13.358-36.103zm146.53-114.26h40.727v153.67h89.664v35.441h-130.39zm307.93 134.63c0 11.286-2.957 20.983-8.8624 29.093-5.9054 8.1102-14.329 14.377-25.259 18.778-10.93 4.4011-24.069 6.6146-39.408 6.6146h-77.492v-189.11h72.997c21.511 0 38.175 4.1905 49.99 12.563 11.815 8.3724 17.721 20.411 17.721 36.103 0 8.9913-2.1189 16.796-6.3481 23.407-4.2292 6.6103-10.491 11.862-18.778 15.739 11.458 3.7048 20.235 9.5716 26.316 17.587 6.0816 8.0157 9.1289 17.768 9.1289 29.226zm-111.61-56.866h29.888c10.225 0 18.026-2.1576 23.407-6.4813 5.381-4.3238 8.063-10.358 8.063-18.116 0-14.987-10.491-22.483-31.474-22.483h-29.888v47.08zm0 80.668h34.384c11.811 0 20.897-2.1576 27.24-6.4813 6.3438-4.3238 9.52-10.534 9.52-18.645 0-17.278-12.082-25.921-36.236-25.921h-34.912v51.047zm267.67 30.683-13.753-40.994h-76.701l-13.753 40.994h-43.642l36.632-97.065 37.693-92.045h43.904l38.222 94.555 36.103 94.555h-44.699zm-78.816-74.849h53.162l-13.092-36.898-13.358-36.103z" fill="#0096dc" stroke-width="4.298"/><style lang="en" type="text/css"/><style lang="en" type="text/css"/>

<path d="m652.98 108.01s-58.402 57.64-57.127 59.191c1.2888 1.5505 72.82-35.405 83.969-39.075 10.977-3.6286 17.83 5.2329 17.83 5.2329s75.754 82.892 77.946 80.841c1.9951-1.8635-45.511-95.897-48.609-106.88-3.3594-11.841 9.4374-22.594 9.4374-22.594s26.549-26.38 44.837-45.568l10.756-10.956c13.65-13.905 7.3219-11.163-0.68071-7.4928-1.0338 0.0109-23.441 12.97-23.586 13.038-22.107 11.474-49.324 26.157-56.293 29-11.799 4.8302-18.534-1.5936-18.534-1.5936s-19.909-22.724-33.583-34.787l-23.756-23.871c-2.1302-2.0957-5.7764-5.1815-2.5107 1.95l9.382 22.099c6.5448 17.255 21.493 51.02 22.895 58.229 2.2148 11.402-12.373 23.234-12.373 23.234" fill="#0096dc" stroke-width="1.4843"/></svg>
