<svg width="1276" height="665.56" version="1.1" viewBox="0 0 1276 665.56" xml:space="preserve" xmlns="http://www.w3.org/2000/svg"><path d="m58.926 663.69-14.483-22.377-14.733-22.384-14.551-21.512v66.273h-15.166v-88.901h15.917l22.073 32.578 21.694 33.323v-65.901h15.166v88.901zm75.033-90.768c6.6293 0 12.596 1.0756 17.906 3.2335 5.1988 2.0823 9.8856 5.2645 13.739 9.3284 3.8558 4.0656 6.7984 8.9496 8.8278 14.673 2.0294 5.7229 3.0441 12.102 3.0441 19.151 0 7.0488-1.0147 13.408-3.0441 19.083-2.0294 5.6755-4.9517 10.546-8.767 14.612-3.8152 4.0655-8.3949 7.1705-13.746 9.3217-5.3508 2.1511-11.338 3.2335-17.967 3.2335-6.6294 0-12.602-1.0756-17.906-3.2335-5.1962-2.0841-9.8822-5.2635-13.739-9.3217-3.8558-4.0588-6.7985-8.9496-8.8279-14.672-2.0293-5.7229-3.044-12.102-3.044-19.151 0-7.0488 1.0147-13.408 3.044-19.09 2.0294-5.6823 4.9518-10.546 8.767-14.612 3.8153-4.0656 8.3949-7.1705 13.739-9.3284s11.338-3.2335 17.974-3.2335zm0 78.957c5.6349 0 10.485-1.3056 14.544-3.9168 4.0588-2.6111 7.1706-6.3384 9.3285-11.189 2.1579-4.8502 3.2335-10.675 3.2335-17.466 0-6.8796-1.0756-12.745-3.2335-17.595-2.1579-4.8502-5.2629-8.5776-9.3285-11.189-4.0655-2.6112-8.909-3.9167-14.551-3.9167s-10.485 1.3056-14.551 3.9167c-4.0656 2.6112-7.1706 6.3385-9.3285 11.189-2.1579 4.8502-3.2335 10.675-3.2335 17.473 0 6.7985 1.0756 12.643 3.2335 17.534s5.2629 8.6452 9.3285 11.25c4.0655 2.6044 8.909 3.9167 14.551 3.9167zm74.661-22.262v34.067h-15.538v-88.894h30.583c11.52 0 20.348 2.3812 26.484 7.1435 6.1356 4.7623 9.1999 11.547 9.1999 20.328 0 5.8853-1.4882 10.925-4.4781 15.105-2.99 4.1805-7.2517 7.3125-12.806 9.3825l11.561 18.156 11.317 18.779h-18.156l-9.8831-17.162-10.262-17.033-3.105 0.1218h-14.923zm0-42.272v29.717h14.05c6.8796 0 12.061-1.1839 15.545-3.5447 3.4838-2.3609 5.2223-6.1085 5.2223-11.25 0-5.1411-1.7385-8.909-5.2223-11.317s-8.6249-3.6056-15.417-3.6056h-14.172zm61.403-12.555h73.734v13.678h-28.966v75.223h-15.795v-75.223h-28.973zm145.85 88.901v-39.668h-43.273v39.668h-15.789v-88.901h15.789v35.562h43.273v-35.562h15.789v88.901zm33.945-88.901h59.427v13.306h-43.639v23h38.917v13.306h-38.917v25.983h46.006v13.306h-61.795zm92.743 54.827v34.067h-15.538v-88.894h30.59c11.52 0 20.348 2.3812 26.484 7.1435 6.1355 4.7623 9.1999 11.547 9.1999 20.328 0 5.8853-1.4882 10.925-4.4782 15.105-2.9899 4.1805-7.2517 7.3125-12.805 9.3825l11.561 18.156 11.317 18.779h-18.156l-9.8832-17.162-10.262-17.033-3.105 0.1218h-14.923zm0-42.272v29.717h14.05c6.8796 0 12.061-1.1839 15.545-3.5447 3.4838-2.3609 5.2223-6.1085 5.2223-11.25 0-5.1411-1.7385-8.909-5.2223-11.317s-8.6249-3.6056-15.417-3.6056h-14.172zm127.93 76.346-14.483-22.377-14.733-22.384-14.544-21.512v66.273h-15.166v-88.901h15.917l22.073 32.578 21.694 33.323v-65.901h15.166v88.901h-15.917zm68.81-88.901h15.789v88.901h-15.789zm49.49 54.834v34.067h-15.545v-88.901h30.59c11.52 0 20.348 2.3812 26.484 7.1435 6.1355 4.7623 9.1999 11.547 9.1999 20.328 0 5.8853-1.4882 10.925-4.4782 15.105-2.99 4.1805-7.2517 7.3125-12.806 9.3825l11.561 18.156 11.317 18.779h-18.156l-9.8832-17.162-10.262-17.033-3.105 0.1218h-14.923zm0-42.272v29.717h14.05c6.8797 0 12.061-1.1838 15.545-3.5446 3.4838-2.3609 5.2223-6.1085 5.2223-11.25 0-5.1411-1.7385-8.909-5.2223-11.317-3.4838-2.4082-8.6182-3.6056-15.417-3.6056h-14.172zm70.542-12.562h59.434v13.306h-43.639v23h38.917v13.306h-38.917v25.99h46.006v13.299h-61.795v-88.901zm80.303 0h15.795v75.223h43.767v13.678h-59.563zm138.69 88.901-3.795-10.878-3.9167-10.756h-38.917l-3.8559 10.756-3.7273 10.878h-16.661l17.473-45.634 18.089-43.267h16.79l18.339 44.511 17.223 44.39zm-41.778-34.818h29.216l-7.2111-19.401-7.3329-19.022-7.5222 19.083zm128.62 34.818-14.483-22.377-14.733-22.384-14.544-21.512v66.273h-15.166v-88.901h15.91l22.073 32.578 21.701 33.323v-65.901h15.166v88.901h-15.917zm34.067 0v-88.901h32.45c9.2811 0 17.223 1.7385 23.812 5.2223 6.478 3.3721 11.772 8.6422 15.173 15.105 3.5243 6.5888 5.2832 14.571 5.2832 23.933 0 9.4502-1.7589 17.493-5.2832 24.123-3.3907 6.5029-8.6837 11.817-15.173 15.234-6.5888 3.5244-14.571 5.2832-23.933 5.2832zm15.789-75.473v62.045h15.667c9.2811 0 16.411-2.6517 21.383-7.9552s7.4614-13.056 7.4614-23.25c0-10.032-2.4488-17.676-7.3329-22.939s-12.021-7.8943-21.383-7.8943h-15.789z" fill="#e8504b" stroke-width="6.7646"/><link rel="stylesheet" type="text/css"/><link rel="stylesheet" type="text/css"/><style lang="en" type="text/css"/><style lang="en" type="text/css"/>

<g transform="matrix(1.1489 0 0 1.1489 -158.95 -642.29)" fill="#e8504b"><g transform="matrix(2.6253 0 0 2.6253 1790.7 -1295.5)" style="shape-inside:url(#rect2233-6-2-9);white-space:pre" aria-label="HD"><path d="m-288.14 779.29v-12.76h-13.92v12.76h-5.08v-28.6h5.08v11.44h13.92v-11.44h5.08v28.6z"/><path d="m-276.33 779.29v-28.6h10.44q4.48 0 7.64 1.68 3.2 1.68 4.88 4.88 1.72 3.16 1.72 7.68 0 4.56-1.72 7.76-1.68 3.2-4.88 4.92-3.16 1.68-7.68 1.68zm5.08-24.28v19.96h5.04q4.48 0 6.88-2.56t2.4-7.48q0-4.84-2.36-7.36-2.36-2.56-6.88-2.56z"/></g><g transform="translate(13554 4364.7)"><path d="m-12977-3529.7c-5.63-15.396-13.669-28.562-24.127-39.481s-23.063-19.282-37.799-25.132c-14.737-5.8496-31.207-8.7717-49.431-8.7717-18.225 0-34.7 2.9273-49.431 8.777-14.731 5.8496-27.331 14.223-37.795 25.132-10.463 10.908-18.501 24.079-24.126 39.481-5.624 15.402-8.431 32.783-8.431 52.128 0 19.125 2.817 36.444 8.436 51.966 5.62 15.522 13.668 28.798 24.127 39.816 10.458 11.018 23.052 19.455 37.794 25.304s31.212 8.7665 49.426 8.7665 34.699-2.9221 49.431-8.7665c14.731-5.8443 27.341-14.286 37.799-25.304s18.492-24.299 24.127-39.816c5.634-15.517 8.431-32.84 8.431-51.966 0-19.345-2.817-36.716-8.431-52.133zm-53.312 95.662c-5.179 11.93-12.715 21.089-22.602 27.504s-21.717 9.6097-35.438 9.6097-25.53-3.1997-35.422-9.6097c-9.893-6.4099-17.439-15.574-22.613-27.504s-7.766-26.425-7.766-43.529 2.592-31.594 7.766-43.529 12.705-21.031 22.613-27.331c9.908-6.2999 21.701-9.4473 35.422-9.4473s25.53 3.1526 35.438 9.4473 17.423 15.417 22.602 27.331c5.18 11.914 7.761 26.436 7.761 43.529s-2.592 31.615-7.761 43.529zm251.17 77.27-53.311-84.528-53.312-82.156v166.68h-49.939v-241.25h52.647l53.819 81.826 52.809 83.172v-165h49.933v241.25h-52.635zm94.939-241.25h166v43.188h-114.05v52.296h101.23v43.188h-101.23v59.386h120.46v43.188h-172.42v-241.25z" stroke-width="5.2369"/><path class="st0" d="m-13083-3805.6v138.34h138.34v-138.34zm172.89 0v138.34h138.34v-138.34zm172.76 0v138.34h138.34v-138.34zm75.421 29.443c4.302 0 8.337 0.4033 12.236 1.3444s7.394 2.1516 10.755 3.8993v15.056c-2.957-2.0166-6.319-3.496-9.815-4.5715-3.63-1.0756-7.393-1.6128-11.023-1.4783-5.378 0-9.95 0.94-13.715 2.9566-3.764 1.8822-6.722 4.9749-8.604 8.6048-2.017 3.7643-2.957 8.337-2.957 13.715s0.94 10.082 2.957 13.846c1.882 3.7644 4.84 6.7221 8.47 8.7387 3.765 2.0166 8.201 2.9593 13.445 2.9593 8.066 0 15.46-2.1527 22.316-6.3203v14.849l-0.134 0.073c-3.226 1.7478-6.992 3.2287-11.159 4.1698-4.302 1.0756-8.739 1.4783-13.444 1.4783-6.185 0-11.831-0.941-16.806-2.6888-4.974-1.8822-9.14-4.4376-12.635-7.7986-3.496-3.3611-6.05-7.5272-7.933-12.501-1.882-4.9744-2.688-10.487-2.688-16.671 0-6.0499 0.94-11.429 2.822-16.403 1.883-4.84 4.705-9.006 8.201-12.502 3.63-3.4955 7.931-6.1848 12.906-7.9326 4.974-1.8822 10.62-2.8227 16.805-2.8227zm-382.22 0.8061h29.172c8.605 0 15.327 1.7488 20.033 5.1099 4.705 3.4954 7.126 8.3353 7.126 14.788 0 3.7643-0.807 6.8554-2.555 9.6787-1.748 2.6888-4.167 4.841-7.528 6.4542 4.571 1.4789 8.065 3.8967 10.485 7.2578 2.42 3.2266 3.631 7.2603 3.631 11.966 0.135 4.7054-1.077 8.7387-3.497 12.1s-5.781 5.9169-10.083 7.6647c-4.437 1.7477-9.679 2.6888-15.729 2.6888h-31.055zm173.02 0h29.175c8.604 0 15.324 1.7488 20.03 5.1099 4.705 3.4954 7.126 8.3353 7.126 14.788 0 3.7643-0.807 6.8554-2.555 9.6787-1.748 2.6888-4.167 4.841-7.528 6.4542 4.571 1.4789 8.067 3.8967 10.487 7.2578 2.42 3.2266 3.629 7.2603 3.629 11.966-0.134 4.7054-1.343 8.7387-3.629 12.1-2.42 3.361-5.781 5.9169-10.083 7.6647-4.436 1.7477-9.681 2.6888-15.731 2.6888h-30.921zm-157.3 12.638v19.36h11.966c4.168 0 7.26-0.9411 9.411-2.6889 2.151-1.7476 3.227-4.302 3.227-7.3942 0-6.1843-4.168-9.2769-12.638-9.2769zm172.89 0v19.36h11.966c4.168 0 7.26-0.9411 9.411-2.6889 2.151-1.7476 3.227-4.302 3.227-7.3942 0-6.1843-4.168-9.2769-12.638-9.2769zm-172.89 31.594v20.972h13.715c4.705 0 8.335-0.9411 10.889-2.6889 2.554-1.7477 3.763-4.301 3.763-7.6621 0.134-7.1254-4.705-10.621-14.384-10.621zm172.89 0v20.972h13.715c4.705 0 8.335-0.9411 10.889-2.6889 2.554-1.7477 3.766-4.301 3.766-7.6621 0.134-7.1254-4.708-10.621-14.387-10.621z" clip-rule="evenodd" fill-rule="evenodd" stroke-width="1.3444"/></g></g></svg>
