<svg version="1.1" viewBox="0 0 251.34 119.49" xmlns="http://www.w3.org/2000/svg">
 <polygon transform="matrix(10.881 0 0 11.109 -36.288 -50.815)" points="3.335 15.254 4.171 15.254 4.171 12.551 6.44 12.551 6.44 11.8 4.171 11.8 4.171 10.188 6.44 10.188 6.44 9.437 3.335 9.437" fill="#fff"/>
 <path d="m42.49 86.332c0 17.531 13.079 33.162 33.775 33.162 21.446 0 34.253-15.72 34.253-33.162 0-17.986-13.177-33.151-34.068-33.151-20.511-0.0111-33.96 15.242-33.96 33.151m9.3685 0c0-14.198 10.489-24.63 24.591-24.63 14.211 0 24.689 10.421 24.689 24.63 0 14.12-10.478 24.652-24.689 24.652-14.102-0.0111-24.591-10.532-24.591-24.652" fill="#fff"/>
 <path d="m172.95 54.025h-9.1074v37.628c0 6.0547-0.72903 10.81-3.9824 14.12-2.8835 2.944-7.8887 5.2214-14.853 5.2214-5.4623 0-10.032-1.8108-13.645-5.4992-2.8835-2.944-3.8084-5.9769-3.8084-13.276v-38.194h-9.0965v40.183c0 17.62 12.992 25.285 26.376 25.285 18.824 0 28.116-10.421 28.116-26.241v-39.228" fill="#fff"/>
 <path d="m185.62 54.014v64.635h9.1074v-28.051h3.8084c4.6353 0 8.4328 1.5331 16.789 14.787l8.3566 13.265h10.859c-4.3524-6.1546-5.941-8.3432-8.6286-12.787-4.8203-8.0655-8.3566-14.031-14.102-17.908 6.768-2.744 10.576-8.3432 10.576-15.82 0-11.198-7.9867-18.12-20.783-18.12h-15.984m9.0965 7.9655h5.8322c8.8354 0 12.361 3.6994 12.448 9.7652 0.0979 5.3881-2.6985 10.51-12.448 10.51h-5.8322v-20.275" fill="#fff"/>
 <path d="m161.75 5.0104c-0.18497-0.02222-0.33731-0.05555-0.52228-0.08888l-0.19586-0.02222c-0.29379-0.04444-0.58758-0.08888-0.87048-0.1111-0.19586-0.01111-0.39172-0.02222-0.58758-0.04444-0.35907-0.01111-0.69638-0.02222-1.0446-0.02222h-0.39172c-0.2829 0.01111-0.56581 0.02222-0.83783 0.03333-0.15234 0.01111-0.29379 0.02222-0.45701 0.04444-0.2285 0.01111-0.43524 0.04444-0.65286 0.07777l-0.19585 0.02222-0.19586 0.03333-0.25027 0.04444c-0.10881 0.02222-0.21762 0.03333-0.31554 0.05555-0.15234 0.03333-0.28291 0.05555-0.44613 0.08887-0.89224 0.18886-1.6974 0.44438-2.47 0.74433-0.39172 0.15553-0.76167 0.31106-1.1316 0.51104-0.29378 0.14442-0.57669 0.28885-0.84871 0.4666-0.27203 0.15553-0.53317 0.29996-0.77255 0.47771-0.14146 0.09999-0.28291 0.19997-0.41348 0.28885-0.11969 0.09999-0.2285 0.17775-0.33731 0.25552-0.23938 0.18886-0.46789 0.37772-0.68551 0.56658-0.20673 0.19997-0.39171 0.37772-0.58757 0.55547-0.15233 0.16664-0.29379 0.32218-0.44612 0.49993-0.16322 0.17775-0.30467 0.33328-0.44612 0.52214-0.16322 0.19997-0.30467 0.38883-0.44612 0.61102-0.10881 0.15553-0.2285 0.31106-0.32643 0.4666-0.0762 0.1111-0.14146 0.22219-0.20674 0.33328-0.38084 0.65546-0.72903 1.3442-1.0119 2.0886-0.3482 0.9332-0.60934 1.933-0.75079 2.9996-0.0435 0.32217-0.0653 0.67768-0.0871 1.0221-0.0218 0.25552-0.0218 0.54436-0.0218 0.81099v0.61102c0.0218 0.21108 0.0435 0.41105 0.0653 0.62213l0.0218 0.15553c0.0218 0.2333 0.0653 0.47771 0.10881 0.6999 0 0.09998 0.0327 0.19997 0.0544 0.27774 0.0435 0.19997 0.0871 0.38883 0.13057 0.5888 0.0653 0.24441 0.14145 0.48882 0.2285 0.72212 0.0979 0.27774 0.19586 0.57769 0.31555 0.84432 0.1741 0.44438 0.35907 0.86654 0.57669 1.2665 0.14146 0.2333 0.25027 0.45549 0.4026 0.68879 0.10881 0.16664 0.21762 0.33328 0.31555 0.49993 0.15233 0.22219 0.29379 0.43327 0.44612 0.62213 0.1741 0.21108 0.32643 0.41105 0.47877 0.59991 0.20673 0.2333 0.40259 0.44438 0.60933 0.65546l0.10881 0.09999c0.16322 0.16664 0.31555 0.33328 0.53317 0.51104 0.14145 0.11109 0.27203 0.24441 0.43524 0.36661 0.14145 0.1111 0.28291 0.22219 0.44612 0.34439 0.18498 0.13331 0.39172 0.26663 0.59846 0.41105 0.2285 0.15553 0.457 0.28885 0.71814 0.43327 0.48965 0.28885 1.0337 0.56658 1.6213 0.79988 0.2285 0.08888 0.46788 0.18886 0.69638 0.26663 0.22851 0.07777 0.48965 0.15553 0.73991 0.2333 0.42436 0.14442 0.87048 0.24441 1.3601 0.33328 0.38083 0.07777 0.78343 0.13331 1.1751 0.18886 0.41348 0.05555 0.83784 0.09999 1.284 0.1222 0.21762 0.01111 0.42436 0.02222 0.64198 0.02222h0.30467c0.79431 0 1.5233-0.02222 2.198-0.08888l0.13057-0.02222c0.27203-0.01111 0.53317-0.04444 0.78343-0.07777 0.38084-0.05555 0.73991-0.11109 1.1099-0.16664 0.2285-0.04444 0.42436-0.08888 0.64198-0.13331 0.31554-0.08888 0.63109-0.16664 0.92488-0.2333 0.2285-0.05555 0.42436-0.1111 0.6311-0.17775 0.2285-0.07777 0.46788-0.16664 0.6855-0.2333l0.21762-0.07777c0.13057-0.04444 0.26114-0.09999 0.42436-0.16664 0.2285-0.08888 0.50053-0.21108 0.81607-0.33328 0.18498-0.07777 0.38084-0.16664 0.5767-0.26663 0.18497-0.08888 0.38083-0.17775 0.58757-0.26663 0.0653-0.04444 0.16322-0.07777 0.23938-0.1222v-4.9326c-0.0653 0.03333-0.11969 0.06666-0.18497 0.11109l-0.31555 0.21108c-0.32643 0.21108-0.66374 0.37772-0.96841 0.57769-0.34819 0.18886-0.6855 0.36661-1.0337 0.53326-0.59845 0.28885-1.1534 0.52214-1.7192 0.72212-1.0446 0.37772-2.0021 0.62213-2.8508 0.76655-0.10881 0.02222-0.20673 0.04444-0.29378 0.05555-0.23938 0.03333-0.457 0.07777-0.68551 0.09999-0.33731 0.04444-0.65285 0.05555-0.92488 0.07777h-0.51141c-0.32643 0-0.6855 0-1.0446-0.03333-0.42436-0.03333-0.84872-0.08887-1.284-0.15553-0.69638-0.1222-1.3819-0.28885-2.0783-0.55547-0.0979-0.03333-0.19586-0.07777-0.28291-0.1222-0.0762-0.02222-0.14145-0.05555-0.20674-0.07777-0.11969-0.05555-0.2285-0.09999-0.33731-0.16664-0.2285-0.11109-0.46788-0.2333-0.6855-0.3555-0.10881-0.06666-0.2285-0.14442-0.32643-0.21108-0.11969-0.07777-0.2285-0.15553-0.33731-0.2333-0.15233-0.1111-0.28291-0.21108-0.42436-0.31106-0.13057-0.09998-0.26114-0.22219-0.36995-0.31106l-0.1741-0.14442-0.087-0.07777-0.0435-0.03333-0.0544-0.06666c-0.2285-0.22219-0.42436-0.43327-0.60933-0.66657-0.087-0.1222-0.19586-0.24441-0.27203-0.37772-0.0979-0.1111-0.17409-0.2333-0.25026-0.3555-0.0653-0.1222-0.14145-0.2333-0.20674-0.34439-0.10881-0.17775-0.20674-0.34439-0.26114-0.51104-0.0871-0.16664-0.15234-0.29996-0.21762-0.44438-0.0979-0.24441-0.19586-0.48882-0.25027-0.73322-0.0653-0.17775-0.11969-0.36661-0.16321-0.54436-0.13057-0.51104-0.20674-0.97763-0.2285-1.3776-0.0218-0.14442-0.0218-0.29996-0.0218-0.42216-0.0218-0.19997-0.0218-0.37772-0.0218-0.51104v-0.31106c0.0218-0.26663 0.0435-0.63324 0.10881-1.0332 0.0326-0.24441 0.0762-0.51104 0.14146-0.78877 0.0435-0.17775 0.0979-0.3555 0.16321-0.56658 0.0435-0.16664 0.10881-0.34439 0.1741-0.53325 0.0435-0.1111 0.0979-0.2333 0.15233-0.3555 0.0653-0.16664 0.15234-0.32218 0.2285-0.49993 0.0653-0.13331 0.14146-0.24441 0.20674-0.37772 0.16322-0.26663 0.33731-0.56658 0.54405-0.83321 0.0871-0.09998 0.15234-0.19997 0.2285-0.28885 0.0979-0.1222 0.21762-0.25552 0.31555-0.37772 0.0653-0.06666 0.11969-0.1222 0.1741-0.18886 0.88136-0.89987 1.8715-1.5775 2.8943-2.0553 0.1741-0.07777 0.32643-0.14442 0.48965-0.21108 0.17409-0.06666 0.32643-0.1222 0.48964-0.18886 0.18498-0.06666 0.35908-0.1222 0.53317-0.16664 0.1741-0.05555 0.35907-0.09999 0.51141-0.13331 0.17409-0.03333 0.33731-0.07777 0.52229-0.1111 0.18497-0.04444 0.36995-0.06666 0.55493-0.08888 0.18497-0.03333 0.35907-0.05555 0.54405-0.06666 0.35907-0.03333 0.69638-0.04444 1.0446-0.04444h0.33731c0.23939 0.01111 0.48965 0.01111 0.71815 0.03333 0.1741 0.01111 0.31555 0.01111 0.47876 0.03333 0.30467 0.03333 0.60934 0.06666 0.87048 0.1222 0.23939 0.03333 0.48965 0.07777 0.70727 0.1222 0.33731 0.07777 0.67462 0.15553 0.93576 0.22219 0.20674 0.05555 0.35908 0.1222 0.51141 0.16664 0.2285 0.06666 0.44612 0.13331 0.59846 0.17775 0.25026 0.09999 0.41347 0.15553 0.41347 0.15553 0.23939 0.09999 0.46789 0.18886 0.68551 0.27774 0.30466 0.1222 0.59845 0.24441 0.87048 0.38883 0.23938 0.09999 0.46788 0.22219 0.67462 0.31106 0.17409 0.08888 0.32643 0.17775 0.47876 0.24441 0.27203 0.14442 0.48965 0.26663 0.68551 0.36661l0.48964 0.26663v-4.7993s-0.29379-0.1222-0.80519-0.32217c-0.2285-0.07777-0.48965-0.18886-0.79432-0.27774-0.16321-0.07777-0.33731-0.14442-0.54405-0.21108-0.13057-0.04444-0.29378-0.09999-0.44612-0.15553-0.19586-0.06666-0.36995-0.1222-0.57669-0.17775-0.13057-0.05555-0.26114-0.09999-0.42436-0.14442l-0.10881-0.03333c-0.15233-0.04444-0.29379-0.08888-0.44612-0.1222-0.1741-0.05555-0.33731-0.09998-0.51141-0.14442-0.11969-0.02222-0.2285-0.06666-0.33731-0.08888-0.19586-0.04444-0.38083-0.08888-0.57669-0.13331-0.21762-0.01111-0.4026-0.05555-0.60934-0.08887m-23.601-5.0104h37.442v35.984h-37.442v-35.984z" fill="#fff"/>
 <path d="m109.36 19.842v7.0878h4.4938s0.087 0 0.23938-0.01111c0.15234 0 0.36996-0.01111 0.62022-0.03333 0.48965-0.04444 1.1425-0.15553 1.7627-0.3555 0.56581-0.21108 1.1099-0.48882 1.5342-0.91098 0.16322-0.16664 0.29379-0.34439 0.4026-0.51104 0.34819-0.56658 0.43524-1.1554 0.457-1.4776 0.0109-0.14442 0.0109-0.2333 0.0109-0.2333v-0.16664c0-0.14442-0.0218-0.39994-0.0979-0.68879-0.087-0.32217-0.2285-0.711-0.52228-1.0776-0.0544-0.06666-0.1197-0.13331-0.18498-0.21108-0.11969-0.13331-0.23938-0.24441-0.4026-0.34439-0.23938-0.19997-0.52229-0.3555-0.82695-0.48882-0.41348-0.17775-0.8596-0.31106-1.3601-0.39994-0.25026-0.05555-0.52229-0.08888-0.79431-0.1222-0.1741-0.01111-0.33731-0.03333-0.52229-0.04444-0.14145 0-0.30467-0.01111-0.457-0.01111h-4.3524" fill="#fff"/>
 <path d="m109.36 9.0987v6.7101h2.1762s0.14145 0 0.33731-0.01111c0.15233 0 0.32643-0.01111 0.48964-0.02222 0.44613-0.03333 1.0663-0.09998 1.6866-0.26663 0.11969-0.04444 0.23938-0.07777 0.35907-0.1222 0.48965-0.17775 0.95753-0.43327 1.3166-0.79988 0.29379-0.27774 0.47877-0.61102 0.60934-0.92208 0.15233-0.38883 0.20674-0.74433 0.2285-1.011 0.0109-0.2333 0.0109-0.37772 0.0109-0.37772s0.0109-0.1111 0-0.27774c-0.0109-0.28885-0.0653-0.76655-0.29379-1.222-0.10881-0.22219-0.26114-0.43327-0.46788-0.63324-0.23938-0.25552-0.54405-0.44438-0.8596-0.59991-0.60933-0.25552-1.3166-0.36661-1.9042-0.42216-0.26115-0.02222-0.48965-0.02222-0.68551-0.02222h-3.0032" fill="#fff"/>
 <path d="m104.82 5.0548v25.907h9.5535s4.6462 0.14442 7.2467-2.4885c2.0783-2.1441 1.9368-4.6104 1.9368-4.6104s0.15233-2.5885-1.7845-4.566c-1.6539-1.6886-3.7648-2.133-3.7648-2.133s0.95753-0.4666 1.6757-1.2109c0.34819-0.33328 1.556-1.4776 1.556-4.1994 0-2.7551-1.7845-4.3327-1.7845-4.3327s-1.9695-2.3663-6.3871-2.3663h-8.2478m-9.8255-5.0548h37.452v35.984h-37.452v-35.984z" fill="#fff"/>
 <path d="m66.2 19.842v7.0878h4.4938s0.0979 0 0.23938-0.01111c0.15234 0 0.36996-0.01111 0.6311-0.03333 0.48965-0.04444 1.1207-0.15553 1.7518-0.3555 0.56581-0.21108 1.1208-0.48882 1.5342-0.91098 0.16322-0.16664 0.29379-0.34439 0.4026-0.51104 0.34819-0.56658 0.44612-1.1554 0.457-1.4776 0.0109-0.14442 0.0109-0.2333 0.0109-0.2333s0.0109-0.06666 0-0.17775c0-0.14442-0.0218-0.39994-0.087-0.68879-0.087-0.32218-0.25027-0.71101-0.52229-1.0776-0.0653-0.06666-0.11969-0.13331-0.1741-0.21108-0.13057-0.13331-0.26114-0.24441-0.4026-0.34439-0.25026-0.19997-0.53316-0.3555-0.83783-0.48882-0.4026-0.17775-0.8596-0.31106-1.3601-0.39994-0.25026-0.03333-0.50052-0.06666-0.79431-0.09999-0.16321-0.01111-0.33731-0.03333-0.52229-0.04444-0.15233-0.01111-0.31555-0.02222-0.46788-0.02222h-4.3524" fill="#fff"/>
 <path d="m66.2 9.0987v6.7101h2.1762s0.14145 0 0.33731-0.01111c0.15233 0 0.32643-0.01111 0.48965-0.02222 0.44612-0.03333 1.0663-0.09998 1.6974-0.26663 0.13057-0.04444 0.23938-0.07777 0.36996-0.1222 0.47876-0.17775 0.94664-0.43327 1.3057-0.79988 0.29379-0.27774 0.47877-0.61102 0.60934-0.92208 0.15233-0.38883 0.20674-0.74433 0.2285-1.011 0.0218-0.2333 0.0218-0.37772 0.0218-0.37772s0-0.1111-0.0109-0.27774c-0.0109-0.28885-0.0762-0.76655-0.29378-1.222-0.10881-0.22219-0.26115-0.43327-0.46789-0.63324-0.25026-0.26663-0.54405-0.45549-0.8596-0.59991-0.62021-0.26663-1.3166-0.37772-1.915-0.42216-0.25026-0.02222-0.48965-0.02222-0.6855-0.02222h-3.0032" fill="#fff"/>
 <path d="m61.652 5.0548v25.907h9.5644s4.6571 0.14442 7.225-2.4885c2.1-2.1441 1.9477-4.6104 1.9477-4.6104s0.15234-2.5885-1.7845-4.566c-1.6539-1.6886-3.7648-2.133-3.7648-2.133s0.94665-0.4666 1.6866-1.2109c0.33731-0.33328 1.556-1.4776 1.556-4.1994 0-2.7551-1.7845-4.3327-1.7845-4.3327s-1.9695-2.3663-6.398-2.3663h-8.2478m-9.8255-5.0548h37.452v35.984h-37.452v-35.984z" fill="#fff"/>
 <path d="m224.1 24.962 3.6792-3.397-0.023 25.656-3.6561-3.8692v-7.2777h-14.429v11.176l-3.6734-3.8634v-18.413l3.6734-3.4086v11.101h14.429v-7.7038z" fill="#fff"/>
 <path d="m227.76 47.21 3.6792-3.2761h4.6752c1.8367 0 3.2646-0.12091 4.2837-0.35698 1.0249-0.2591 1.8655-0.57577 2.5449-0.95578 0.68516-0.39728 1.3012-0.88093 1.8712-1.4394 1.8137-1.8367 2.7176-4.1628 2.7176-6.9726 0-2.7579-0.93275-5.0034-2.7925-6.7365-0.68517-0.65062-1.474-1.1918-2.3722-1.6064-0.88093-0.42031-1.7216-0.69092-2.5219-0.82335-0.7888-0.13243-2.067-0.20152-3.8404-0.20152h-4.5889l-3.6446-3.2761h8.625c3.4892 0 6.2586 0.52971 8.2853 1.5776 2.0382 1.0479 3.6561 2.5852 4.8595 4.6234 1.1918 2.0325 1.8022 4.2492 1.8022 6.6559 0 1.71-0.33971 3.351-0.99608 4.9228-0.6679 1.5661-1.6122 2.9479-2.8328 4.1398-1.2437 1.2264-2.7004 2.1476-4.3528 2.7694-0.96729 0.38001-1.8655 0.6391-2.6658 0.77153-0.80607 0.12667-2.3549 0.18425-4.6407 0.18425h-8.0953 8.0953c2.2858 0 3.8346-0.05758 4.6407-0.18425 0.80032-0.13243 1.6985-0.39152 2.6658-0.77153 1.6525-0.62183 3.1092-1.5431 4.3528-2.7694 1.2206-1.1918 2.1649-2.5737 2.8328-4.1398 0.65637-1.5718 0.99608-3.2128 0.99608-4.9228 0-2.4067-0.61032-4.6234-1.8022-6.6559-1.2034-2.0382-2.8213-3.5755-4.8595-4.6234-2.0267-1.0479-4.7962-1.5776-8.2853-1.5776h-8.625l3.6446 3.2761h4.5889c1.7734 0 3.0516 0.06909 3.8404 0.20152 0.80032 0.13243 1.6409 0.40304 2.5219 0.82335 0.8982 0.41455 1.687 0.95578 2.3722 1.6064 1.8597 1.7331 2.7925 3.9786 2.7925 6.7365 0 2.8098-0.90396 5.1359-2.7176 6.9726-0.57001 0.5585-1.1861 1.0421-1.8712 1.4394-0.67941 0.38001-1.52 0.69668-2.5449 0.95578-1.0191 0.23606-2.447 0.35698-4.2837 0.35698h-4.6752l-3.6792 3.2761z" fill="#fff"/>
 <path d="m227.76 47.21 3.6792-3.2761h4.6752c1.8367 0 3.2646-0.12091 4.2837-0.35698 1.0249-0.2591 1.8655-0.57577 2.5449-0.95578 0.68516-0.39728 1.3012-0.88093 1.8712-1.4394 1.8137-1.8367 2.7176-4.1628 2.7176-6.9726 0-2.7579-0.93275-5.0034-2.7925-6.7365-0.68517-0.65062-1.474-1.1918-2.3722-1.6064-0.88093-0.42031-1.7216-0.69092-2.5219-0.82335-0.7888-0.13243-2.067-0.20152-3.8404-0.20152h-4.5889l-3.6446-3.2761h8.625c3.4892 0 6.2586 0.52971 8.2853 1.5776 2.0382 1.0479 3.6561 2.5852 4.8595 4.6234 1.1918 2.0325 1.8022 4.2492 1.8022 6.6559 0 1.71-0.33971 3.351-0.99608 4.9228-0.6679 1.5661-1.6122 2.9479-2.8328 4.1398-1.2437 1.2264-2.7004 2.1476-4.3528 2.7694-0.96729 0.38001-1.8655 0.6391-2.6658 0.77153-0.80607 0.12667-2.3549 0.18425-4.6407 0.18425h-8.0953z" fill="#fff"/>
 <path d="m231.44 24.864-3.6734-3.2992v25.645l3.6734-3.2761v-19.07z" fill="#838181"/>
 <path d="m209.67 36.075-0.0115 11.158 3.6792-3.3107-0.0115-7.8477h-3.6561z" fill="#838181"/>
 <path d="m213.42 32.666-0.0691-7.6923-3.6792-3.4086v11.101h3.7483z" fill="#838181"/>
</svg>
