<svg width="907.67" height="675.68" version="1.1" viewBox="0 0 907.67 675.68" xml:space="preserve" xmlns="http://www.w3.org/2000/svg"><link rel="stylesheet" type="text/css"/><link rel="stylesheet" type="text/css"/><style lang="en" type="text/css"/><style lang="en" type="text/css"/>

<path d="m271.2 673.59-10.071-35.455-9.6563-35.593-9.5901 35.521-9.9992 35.521h-18.488l-13.934-48.835-12.556-49.798h18.898l8.4831 40.346 9.4518 39.522 10.138-37.933 9.4518-37.795h17.243l9.3796 37.386 9.9331 37.248 9.3796-39.04 8.4169-39.726h18.482l-12.695 49.798-13.796 48.835h-18.488zm119.73 0-4.2055-12.075-4.3438-11.931h-43.18l-4.2776 11.931-4.1393 12.075h-18.488l19.379-50.628 20.071-48.005h18.621l20.347 49.383 19.102 49.244h-18.898zm-46.35-38.625h32.416l-8.0018-21.521-8.1402-21.106-8.3447 21.178-7.9356 21.448zm79.801-60.008h17.52v83.459h48.558v15.173h-66.078zm79.868 0h65.94v14.758h-48.42v25.522h43.174v14.764h-43.174v28.831h51.037v14.764h-68.557zm112.91 100.7c-5.3365 0-10.619-0.60164-15.865-1.7929-5.1472-1.1599-10.112-3.016-14.758-5.517v-16.004c9.2502 5.8233 19.97 8.8872 30.9 8.8321 6.8948 0 12.207-1.2875 15.931-3.8625 3.5935-2.3172 5.7135-6.345 5.5892-10.619 0-2.575-0.5535-4.7108-1.6545-6.4195-1.101-1.7086-2.5991-3.1225-4.4822-4.2716s-4.049-2.0937-6.4857-2.8277l-7.6588-2.0696c-4.8733-1.1912-9.3134-2.551-13.314-4.0671-4.0009-1.5161-7.4483-3.3331-10.348-5.4509-2.8346-2.04-5.1306-4.7386-6.6902-7.8634-1.5643-3.1225-2.3464-6.9429-2.3464-11.449 0-6.0705 1.5161-11.287 4.5544-15.655 3.0383-4.3679 7.358-7.7491 12.965-10.138s12.273-3.5918 20.004-3.5918c5.0648 3e-3 10.112 0.6048 15.035 1.7929 4.5967 1.0571 9.0446 2.6799 13.242 4.8312v15.588c-3.6821-2.2983-7.9778-4.1633-12.899-5.5892-4.9214-1.4259-10.138-2.1358-15.655-2.1358-6.2571 0-11.13 1.1732-14.62 3.5136-3.4895 2.3404-5.2403 5.6795-5.2403 10.005 0 3.1285 0.8303 5.5832 2.4848 7.3761s4.0009 3.2188 7.0332 4.2777c3.4932 1.194 7.0385 2.2299 10.625 3.1045l12.622 3.7242c3.771 1.2647 7.3456 3.053 10.619 5.3125 3.0394 2.1156 5.5241 4.9326 7.2437 8.2124 1.7448 3.315 2.6232 7.4483 2.6232 12.418 0 6.3473-1.5643 11.774-4.6928 16.28-3.1286 4.5063-7.6529 7.9777-13.585 10.414-5.9321 2.4366-12.989 3.658-21.178 3.658z" fill="#e8504b" stroke-width="6.0164"/><g transform="matrix(1.1489 0 0 1.1489 -885.53 -609.28)" fill="#e8504b"><g transform="matrix(2.6253 0 0 2.6253 2216 -1324.2)" style="shape-inside:url(#rect2233-6-2-9);white-space:pre" aria-label="HD"><path d="m-288.14 779.29v-12.76h-13.92v12.76h-5.08v-28.6h5.08v11.44h13.92v-11.44h5.08v28.6z"/><path d="m-276.33 779.29v-28.6h10.44q4.48 0 7.64 1.68 3.2 1.68 4.88 4.88 1.72 3.16 1.72 7.68 0 4.56-1.72 7.76-1.68 3.2-4.88 4.92-3.16 1.68-7.68 1.68zm5.08-24.28v19.96h5.04q4.48 0 6.88-2.56t2.4-7.48q0-4.84-2.36-7.36-2.36-2.56-6.88-2.56z"/></g><g transform="translate(13979 4335.9)"><path d="m-12977-3529.7c-5.63-15.396-13.669-28.562-24.127-39.481s-23.063-19.282-37.799-25.132c-14.737-5.8496-31.207-8.7717-49.431-8.7717-18.225 0-34.7 2.9273-49.431 8.777-14.731 5.8496-27.331 14.223-37.795 25.132-10.463 10.908-18.501 24.079-24.126 39.481-5.624 15.402-8.431 32.783-8.431 52.128 0 19.125 2.817 36.444 8.436 51.966 5.62 15.522 13.668 28.798 24.127 39.816 10.458 11.018 23.052 19.455 37.794 25.304s31.212 8.7665 49.426 8.7665 34.699-2.9221 49.431-8.7665c14.731-5.8443 27.341-14.286 37.799-25.304s18.492-24.299 24.127-39.816c5.634-15.517 8.431-32.84 8.431-51.966 0-19.345-2.817-36.716-8.431-52.133zm-53.312 95.662c-5.179 11.93-12.715 21.089-22.602 27.504s-21.717 9.6097-35.438 9.6097-25.53-3.1997-35.422-9.6097c-9.893-6.4099-17.439-15.574-22.613-27.504s-7.766-26.425-7.766-43.529 2.592-31.594 7.766-43.529 12.705-21.031 22.613-27.331c9.908-6.2999 21.701-9.4473 35.422-9.4473s25.53 3.1526 35.438 9.4473 17.423 15.417 22.602 27.331c5.18 11.914 7.761 26.436 7.761 43.529s-2.592 31.615-7.761 43.529zm251.17 77.27-53.311-84.528-53.312-82.156v166.68h-49.939v-241.25h52.647l53.819 81.826 52.809 83.172v-165h49.933v241.25h-52.635zm94.939-241.25h166v43.188h-114.05v52.296h101.23v43.188h-101.23v59.386h120.46v43.188h-172.42v-241.25z" stroke-width="5.2369"/><path class="st0" d="m-13083-3805.6v138.34h138.34v-138.34zm172.89 0v138.34h138.34v-138.34zm172.76 0v138.34h138.34v-138.34zm75.421 29.443c4.302 0 8.337 0.4033 12.236 1.3444s7.394 2.1516 10.755 3.8993v15.056c-2.957-2.0166-6.319-3.496-9.815-4.5715-3.63-1.0756-7.393-1.6128-11.023-1.4783-5.378 0-9.95 0.94-13.715 2.9566-3.764 1.8822-6.722 4.9749-8.604 8.6048-2.017 3.7643-2.957 8.337-2.957 13.715s0.94 10.082 2.957 13.846c1.882 3.7644 4.84 6.7221 8.47 8.7387 3.765 2.0166 8.201 2.9593 13.445 2.9593 8.066 0 15.46-2.1527 22.316-6.3203v14.849l-0.134 0.073c-3.226 1.7478-6.992 3.2287-11.159 4.1698-4.302 1.0756-8.739 1.4783-13.444 1.4783-6.185 0-11.831-0.941-16.806-2.6888-4.974-1.8822-9.14-4.4376-12.635-7.7986-3.496-3.3611-6.05-7.5272-7.933-12.501-1.882-4.9744-2.688-10.487-2.688-16.671 0-6.0499 0.94-11.429 2.822-16.403 1.883-4.84 4.705-9.006 8.201-12.502 3.63-3.4955 7.931-6.1848 12.906-7.9326 4.974-1.8822 10.62-2.8227 16.805-2.8227zm-382.22 0.8061h29.172c8.605 0 15.327 1.7488 20.033 5.1099 4.705 3.4954 7.126 8.3353 7.126 14.788 0 3.7643-0.807 6.8554-2.555 9.6787-1.748 2.6888-4.167 4.841-7.528 6.4542 4.571 1.4789 8.065 3.8967 10.485 7.2578 2.42 3.2266 3.631 7.2603 3.631 11.966 0.135 4.7054-1.077 8.7387-3.497 12.1s-5.781 5.9169-10.083 7.6647c-4.437 1.7477-9.679 2.6888-15.729 2.6888h-31.055zm173.02 0h29.175c8.604 0 15.324 1.7488 20.03 5.1099 4.705 3.4954 7.126 8.3353 7.126 14.788 0 3.7643-0.807 6.8554-2.555 9.6787-1.748 2.6888-4.167 4.841-7.528 6.4542 4.571 1.4789 8.067 3.8967 10.487 7.2578 2.42 3.2266 3.629 7.2603 3.629 11.966-0.134 4.7054-1.343 8.7387-3.629 12.1-2.42 3.361-5.781 5.9169-10.083 7.6647-4.436 1.7477-9.681 2.6888-15.731 2.6888h-30.921zm-157.3 12.638v19.36h11.966c4.168 0 7.26-0.9411 9.411-2.6889 2.151-1.7476 3.227-4.302 3.227-7.3942 0-6.1843-4.168-9.2769-12.638-9.2769zm172.89 0v19.36h11.966c4.168 0 7.26-0.9411 9.411-2.6889 2.151-1.7476 3.227-4.302 3.227-7.3942 0-6.1843-4.168-9.2769-12.638-9.2769zm-172.89 31.594v20.972h13.715c4.705 0 8.335-0.9411 10.889-2.6889 2.554-1.7477 3.763-4.301 3.763-7.6621 0.134-7.1254-4.705-10.621-14.384-10.621zm172.89 0v20.972h13.715c4.705 0 8.335-0.9411 10.889-2.6889 2.554-1.7477 3.766-4.301 3.766-7.6621 0.134-7.1254-4.708-10.621-14.387-10.621z" clip-rule="evenodd" fill-rule="evenodd" stroke-width="1.3444"/></g></g></svg>
