<svg version="1.0" viewBox="0 0 239.45 119.49" xmlns="http://www.w3.org/2000/svg">
 <g transform="translate(-75.403 -849.43)">
  <path d="m109.9 903.44h-34.495v64.624h9.2875v-30.029h25.207v-8.3432h-25.207v-17.908h25.207v-8.3432z"/>
  <g transform="matrix(11.109 0 0 -11.109 128.35 935.75)">
   <path d="m0 0c0 1.279 0.964 2.217 2.26 2.217 1.306 0 2.269-0.938 2.269-2.217 0-1.271-0.963-2.218-2.269-2.218-1.296 0-2.26 0.947-2.26 2.218m-0.861 0c0-1.578 1.202-2.985 3.104-2.985 1.971 0 3.148 1.415 3.148 2.985 0 1.62-1.211 2.985-3.131 2.985-1.885 0-3.121-1.373-3.121-2.985"/>
  </g>
  <g transform="matrix(11.109 0 0 -11.109 251.99 903.44)">
   <path d="m0 0h-0.836v-3.387c0-0.545-0.068-0.972-0.367-1.27-0.264-0.265-0.724-0.47-1.364-0.47-0.503 0-0.922 0.163-1.254 0.495-0.265 0.265-0.35 0.538-0.35 1.195v3.437h-0.836v-3.617c0-1.586 1.194-2.277 2.423-2.277 1.731 0 2.584 0.938 2.584 2.363v3.531"/>
  </g>
  <g transform="matrix(11.109 0 0 -11.109 274.21 911.4)">
   <path d="m0 0h0.537c0.811 0 1.135-0.333 1.144-0.879 8e-3 -0.486-0.248-0.947-1.144-0.947h-0.537v1.826m-0.836 0.717v-5.818h0.836v2.525h0.35c0.426 0 0.776-0.137 1.544-1.331l0.767-1.194h0.998c-0.401 0.554-0.546 0.751-0.793 1.151-0.444 0.726-0.768 1.263-1.296 1.613 0.622 0.247 0.972 0.751 0.972 1.424 0 1.007-0.734 1.63-1.911 1.63h-1.467"/>
  </g>
  <path d="m216.45 849.43h38.239v35.984h-38.239v-35.984zm24.096 5.0104c-0.17775-0.0333-0.3444-0.0667-0.52215-0.0889l-0.19997-0.0333c-0.29995-0.0333-0.59991-0.0667-0.89987-0.1-0.19997-0.0222-0.39994-0.0333-0.59991-0.0444-0.36661-0.0222-0.72212-0.0333-1.0665-0.0333-0.15553 0-0.24441 0-0.39994 0.0111-0.28885 0-0.56658 0.0111-0.85543 0.0333-0.15553 0.0111-0.31107 0.0222-0.4666 0.0333-0.22219 0.0222-0.44438 0.0556-0.66657 0.0778l-0.18886 0.0222-0.19997 0.0333-0.25552 0.0333c-0.11109 0.0222-0.22219 0.0444-0.33328 0.0666-0.14443 0.0222-0.28885 0.0556-0.44438 0.0778-0.91098 0.19997-1.7442 0.45549-2.5218 0.75544-0.39995 0.15554-0.77767 0.32218-1.1443 0.49993-0.31107 0.14442-0.59991 0.29996-0.87765 0.4666-0.27774 0.15553-0.53325 0.31106-0.78877 0.48882-0.14443 0.0889-0.28885 0.18886-0.42216 0.28884-0.12221 0.0889-0.24441 0.16664-0.35551 0.26663-0.24441 0.17775-0.4777 0.37772-0.69989 0.56658-0.19997 0.18886-0.39995 0.36662-0.58881 0.55548-0.15553 0.15553-0.31106 0.31106-0.46659 0.48881-0.15554 0.16665-0.31107 0.3444-0.45549 0.52215-0.15554 0.19997-0.31107 0.39994-0.45549 0.61102-0.1111 0.14442-0.22219 0.29996-0.33329 0.4666-0.0667 0.1-0.13331 0.21108-0.19997 0.32217-0.39994 0.65546-0.75544 1.3554-1.0332 2.0997-0.3555 0.92208-0.62213 1.9219-0.76655 2.9884-0.0444 0.33328-0.0778 0.67768-0.1 1.0221-0.0111 0.26663-0.0222 0.53325-0.0222 0.81099 0 0.19997 0 0.41105 0.0111 0.59991 0.0222 0.21108 0.0333 0.42216 0.0556 0.62214l0.0222 0.14442c0.0222 0.24441 0.0667 0.48882 0.11109 0.72211 0.0111 0.0889 0.0333 0.17776 0.0555 0.27774 0.0444 0.18886 0.0889 0.38883 0.13331 0.57769 0.0667 0.24441 0.14443 0.48882 0.22219 0.73323 0.1 0.28885 0.19997 0.57769 0.32218 0.85543 0.18886 0.43327 0.37772 0.85543 0.59991 1.2554 0.13331 0.2333 0.25552 0.4666 0.39994 0.67768 0.1111 0.17775 0.22219 0.34439 0.33329 0.51104 0.15553 0.21108 0.29995 0.42216 0.45549 0.62213 0.16664 0.21108 0.33328 0.39994 0.48881 0.5888 0.21108 0.2333 0.41105 0.44438 0.61102 0.64435l0.1111 0.1111c0.16664 0.15553 0.33328 0.32217 0.54436 0.49992 0.14443 0.12221 0.27774 0.24441 0.44438 0.36661 0.14443 0.1111 0.29996 0.2333 0.45549 0.35551 0.18886 0.13331 0.39994 0.27774 0.61102 0.41105 0.2333 0.15553 0.4666 0.29995 0.73323 0.44438 0.49993 0.27774 1.0554 0.54436 1.6664 0.78877 0.2333 0.1 0.4666 0.18886 0.71101 0.26663 0.24441 0.0889 0.49992 0.16664 0.75544 0.2333 0.44438 0.13331 0.89987 0.24441 1.3887 0.33328 0.38883 0.0778 0.79988 0.14443 1.2109 0.18886 0.42216 0.0556 0.85543 0.0889 1.3109 0.12221 0.21108 0 0.43327 0.0111 0.65546 0.0111 0.1 0.0111 0.21108 0.0111 0.31107 0.0111 0.81099 0 1.5553-0.0333 2.2441-0.0889l0.13331-0.0111c0.27774-0.0222 0.53326-0.0555 0.79989-0.0889 0.38883-0.0444 0.76655-0.1 1.122-0.16665 0.2333-0.0444 0.44438-0.0889 0.65546-0.13331 0.33329-0.0667 0.64435-0.14442 0.94431-0.22219 0.22219-0.0556 0.43327-0.1222 0.64435-0.18886 0.2333-0.0667 0.47771-0.15553 0.6999-0.22219l0.21108-0.0778c0.1222-0.0333 0.26663-0.0889 0.43327-0.15553 0.2333-0.1 0.51103-0.21108 0.83321-0.34439 0.18886-0.0778 0.38883-0.16665 0.5888-0.26663 0.18886-0.0889 0.38883-0.17775 0.5888-0.26663 0.0778-0.0444 0.16665-0.0889 0.25552-0.13331v-4.9104c-0.0667 0.0444-0.1222 0.0778-0.17775 0.11109l-0.33328 0.19997c-0.33329 0.21108-0.66657 0.39994-0.98875 0.57769-0.3555 0.18887-0.6999 0.37773-1.0443 0.53326-0.61102 0.28885-1.1887 0.53326-1.7553 0.73323-1.0665 0.37772-2.0552 0.62213-2.9218 0.77766-0.1 0.0222-0.19997 0.0333-0.29996 0.0444-0.24441 0.0444-0.4666 0.0666-0.68879 0.1-0.34439 0.0333-0.66656 0.0555-0.9443 0.0667-0.18886 0.0111-0.36661 0.0111-0.52215 0.0111-0.34439 0-0.711-0.0111-1.0665-0.0333-0.43327-0.0333-0.86654-0.0778-1.3109-0.15553-0.711-0.1111-1.4109-0.29996-2.1219-0.55548-0.1-0.0333-0.19997-0.0778-0.29995-0.11109-0.0667-0.0333-0.13332-0.0555-0.19997-0.0778-0.12221-0.0555-0.2333-0.11109-0.3444-0.15553-0.2333-0.11109-0.47771-0.24441-0.711-0.36661-0.1111-0.0667-0.22219-0.13332-0.3444-0.21108-0.11109-0.0778-0.2333-0.15554-0.34439-0.22219-0.14443-0.1111-0.28885-0.21108-0.42216-0.31107-0.13332-0.11109-0.27774-0.22219-0.38883-0.32217l-0.15554-0.14443-0.0889-0.0778-0.0444-0.0444-0.0556-0.0555c-0.22219-0.22219-0.43327-0.44438-0.61102-0.66657-0.1-0.1222-0.19997-0.24441-0.28885-0.37772-0.1-0.11109-0.17775-0.2333-0.25551-0.3555-0.0778-0.1111-0.14443-0.2333-0.21109-0.3444-0.11109-0.17775-0.19997-0.34439-0.27773-0.52214-0.0778-0.14443-0.14443-0.29996-0.21108-0.43327-0.1-0.25552-0.18886-0.49993-0.26663-0.73323-0.0556-0.18886-0.11109-0.36661-0.15553-0.54436-0.13332-0.51104-0.19997-0.98875-0.2333-1.3776-0.0111-0.15553-0.0222-0.29995-0.0222-0.43327-0.0111-0.18886-0.0222-0.36661-0.0222-0.49993 0-0.0889 0-0.19997 0.0111-0.31106 0.0111-0.28885 0.0333-0.63324 0.1-1.0443 0.0333-0.24441 0.0778-0.51104 0.14442-0.77767 0.0444-0.18886 0.0889-0.37772 0.15553-0.56658 0.0556-0.17775 0.1111-0.3555 0.17775-0.53325 0.0444-0.12221 0.1-0.24441 0.15554-0.36662 0.0667-0.16664 0.15553-0.33328 0.23329-0.49992 0.0667-0.12221 0.14443-0.25552 0.21108-0.37773 0.16665-0.27773 0.3444-0.55547 0.55548-0.83321 0.0778-0.1 0.14442-0.19997 0.2333-0.29995 0.1-0.12221 0.21108-0.25552 0.32217-0.37773 0.0667-0.0555 0.12221-0.1222 0.17775-0.17775 0.89987-0.89987 1.9108-1.5775 2.9551-2.0552 0.16664-0.0667 0.33328-0.13332 0.49992-0.19997 0.16665-0.0667 0.33329-0.12221 0.49993-0.18886 0.17775-0.0556 0.36661-0.1111 0.54437-0.16665 0.16664-0.0444 0.3555-0.0889 0.52214-0.13331 0.16664-0.0333 0.34439-0.0667 0.52215-0.1 0.18886-0.0333 0.37772-0.0667 0.56658-0.0889 0.18886-0.0333 0.36661-0.0444 0.55547-0.0667 0.36662-0.0333 0.71101-0.0444 1.0554-0.0444 0.1111 0 0.2333 0 0.3444 0.0111 0.25552 0 0.49993 0.0111 0.74433 0.0222 0.16665 0.0111 0.33329 0.0222 0.48882 0.0444 0.31107 0.0222 0.61102 0.0667 0.88876 0.1 0.25552 0.0444 0.49993 0.0889 0.73323 0.13331 0.34439 0.0667 0.67767 0.14442 0.95541 0.22219 0.19997 0.0444 0.36661 0.1 0.52215 0.14442 0.2333 0.0667 0.44438 0.13332 0.59991 0.18886 0.26663 0.1 0.42216 0.15554 0.42216 0.15554 0.24441 0.0778 0.47771 0.17775 0.71101 0.26662 0.31106 0.12221 0.61102 0.26663 0.88875 0.38884 0.24441 0.11109 0.4666 0.22219 0.67768 0.32217 0.17775 0.0889 0.33329 0.17775 0.48882 0.25552 0.27774 0.13331 0.49993 0.26663 0.68879 0.36661l0.49992 0.27774v-4.8215s-0.29995-0.13331-0.8221-0.33328c-0.22219-0.0778-0.49992-0.18886-0.81099-0.28885-0.16664-0.0666-0.34439-0.1222-0.54436-0.18886-0.14443-0.0556-0.31107-0.11109-0.4666-0.16664-0.18886-0.0555-0.37772-0.1222-0.5777-0.17775-0.13331-0.0444-0.27773-0.0889-0.43326-0.13332l-0.12221-0.0333c-0.14442-0.0444-0.29996-0.0778-0.44438-0.12221-0.17775-0.0444-0.34439-0.0889-0.52214-0.13331-0.12221-0.0333-0.2333-0.0556-0.35551-0.0889-0.18886-0.0333-0.38883-0.0778-0.57769-0.1222-0.19997-0.0444-0.39994-0.0778-0.59991-0.1111"/>
  <g transform="matrix(11.109 0 0 -11.109 187.07 869.27)">
   <path d="m0 0v-0.637h0.413s8e-3 0 0.022 1e-3c0.014 0 0.034 1e-3 0.057 3e-3 0.045 4e-3 0.105 0.013 0.162 0.032 0.052 0.018 0.102 0.044 0.141 0.082 0.014 0.015 0.027 0.031 0.037 0.046 0.032 0.051 0.04 0.103 0.042 0.133 1e-3 0.012 1e-3 0.02 1e-3 0.02v0.016c0 0.012-2e-3 0.036-9e-3 0.061-7e-3 0.03-0.022 0.065-0.048 0.097-5e-3 6e-3 -0.01 0.012-0.016 0.018-0.011 0.012-0.023 0.023-0.037 0.032-0.022 0.017-0.048 0.032-0.076 0.044-0.038 0.015-0.079 0.028-0.125 0.036-0.023 5e-3 -0.048 8e-3 -0.073 0.011-0.016 1e-3 -0.031 2e-3 -0.048 3e-3 -0.014 1e-3 -0.029 2e-3 -0.043 2e-3h-0.4"/>
  </g>
  <g transform="matrix(11.109 0 0 -11.109 187.07 858.51)">
   <path d="m0 0v-0.604h0.2s0.013 0 0.031 1e-3c0.014 0 0.03 1e-3 0.045 2e-3 0.041 3e-3 0.098 9e-3 0.155 0.024 0.011 4e-3 0.022 7e-3 0.033 0.011 0.045 0.016 0.088 0.039 0.121 0.072 0.027 0.026 0.044 0.055 0.056 0.083 0.014 0.035 0.019 0.068 0.021 0.091 1e-3 0.021 1e-3 0.034 1e-3 0.034s1e-3 0.01 0 0.026c-1e-3 0.026-6e-3 0.069-0.027 0.11-0.01 0.02-0.024 0.039-0.043 0.057-0.022 0.023-0.05 0.04-0.079 0.053-0.056 0.024-0.121 0.034-0.175 0.038-0.024 2e-3 -0.045 2e-3 -0.063 2e-3h-0.276"/>
  </g>
  <path d="m172.39 849.43h38.239v35.984h-38.239v-35.984zm10.032 5.0437v25.918h9.7541s4.7549 0.13332 7.3878-2.4996c2.133-2.133 1.9775-4.6104 1.9775-4.6104s0.15553-2.5774-1.822-4.566c-1.6886-1.6775-3.8439-2.133-3.8439-2.133s0.97763-0.45549 1.722-1.1998c0.3555-0.3555 1.5887-1.4776 1.5887-4.2105 0-2.7552-1.822-4.3327-1.822-4.3327s-2.0108-2.3663-6.5324-2.3663h-8.4099"/>
  <g transform="matrix(11.109 0 0 -11.109 143 869.27)">
   <path d="m0 0v-0.637h0.413s9e-3 0 0.022 1e-3c0.014 0 0.034 1e-3 0.058 3e-3 0.045 4e-3 0.103 0.013 0.161 0.032 0.052 0.018 0.103 0.044 0.141 0.082 0.015 0.015 0.027 0.031 0.037 0.046 0.032 0.051 0.041 0.103 0.042 0.133 1e-3 0.012 1e-3 0.02 1e-3 0.02s1e-3 6e-3 0 0.016c0 0.012-2e-3 0.036-8e-3 0.061-8e-3 0.03-0.023 0.065-0.048 0.097-6e-3 6e-3 -0.011 0.012-0.016 0.018-0.012 0.012-0.024 0.023-0.037 0.032-0.023 0.017-0.049 0.032-0.077 0.044-0.037 0.015-0.079 0.028-0.125 0.036-0.023 5e-3 -0.047 8e-3 -0.073 0.011-0.016 1e-3 -0.031 2e-3 -0.048 3e-3 -0.014 1e-3 -0.029 2e-3 -0.043 2e-3h-0.4"/>
  </g>
  <g transform="matrix(11.109 0 0 -11.109 143 858.51)">
   <path d="m0 0v-0.604h0.2s0.013 0 0.031 1e-3c0.014 0 0.03 1e-3 0.045 2e-3 0.041 3e-3 0.098 9e-3 0.155 0.024 0.012 4e-3 0.022 7e-3 0.034 0.011 0.044 0.016 0.087 0.039 0.12 0.072 0.027 0.026 0.044 0.055 0.056 0.083 0.014 0.035 0.019 0.068 0.021 0.091 2e-3 0.021 2e-3 0.034 2e-3 0.034s0 0.01-1e-3 0.026c-1e-3 0.026-7e-3 0.069-0.027 0.11-0.01 0.02-0.024 0.039-0.043 0.057-0.022 0.023-0.049 0.04-0.079 0.053-0.056 0.024-0.121 0.034-0.175 0.038-0.023 2e-3 -0.045 2e-3 -0.063 2e-3h-0.276"/>
  </g>
  <path d="m128.32 849.43h38.239v35.984h-38.239v-35.984zm10.032 5.0437v25.918h9.7652s4.7549 0.13332 7.3767-2.4996c2.1441-2.133 1.9886-4.6104 1.9886-4.6104s0.15553-2.5774-1.822-4.566c-1.6886-1.6775-3.8439-2.133-3.8439-2.133s0.96653-0.45549 1.722-1.1998c0.3444-0.3555 1.5887-1.4776 1.5887-4.2105 0-2.7552-1.822-4.3327-1.822-4.3327s-2.0108-2.3663-6.5324-2.3663h-8.421"/>
 </g>
</svg>
