<svg hola_ext_inject="disabled" version="1.1" viewBox="0 0 999 296.19" xml:space="preserve" xmlns="http://www.w3.org/2000/svg"><defs><style type="text/css">
    .fil0 {fill:#C90302}
  </style></defs><g transform="matrix(1.25 0 0 -1.25 -1130.6 -640.25)"><path d="m1272.6-694.71c5.3419-18.451 9.3627-31.671 12.062-39.659 1.3211 4.1316 5.2318 17.351 11.732 39.659h10.411c-7.7676-25.062-13.689-42.881-17.766-53.456h-8.8399c-3.8544 9.9695-7.5718 21.041-11.152 33.214-4.4628-14.653-8.0986-25.724-10.907-33.214h-8.9232c-3.8543 9.914-9.7753 27.733-17.763 53.456h10.907c5.0108-17.682 8.9484-30.929 11.813-39.742 2.1481 6.3908 6.0588 19.638 11.732 39.742z" fill="#fff"/><path d="m1344.8-731.31h-29.825c0.3311-2.8088 1.4741-5.081 3.4291-6.8165 1.9548-1.7356 4.6401-2.6033 8.0557-2.6033 5.2327 0 9.8594 1.3775 13.88 4.1325l3.1391-6.6942c-4.9016-3.9098-11.043-5.8647-18.424-5.8647-6.0597 0-11.017 1.9553-14.872 5.866-3.8552 3.9106-5.7828 9.0328-5.7828 15.366 0 6.2799 1.9142 11.416 5.7425 15.409 3.8282 3.993 8.7437 5.9895 14.746 5.9895 6.2244-4e-5 11.154-1.9554 14.79-5.866 3.6358-3.9107 5.4537-9.006 5.4537-15.286 0-0.88082-0.111-2.0919-0.3328-3.6333zm-29.825 7.1859h19.831c-1e-4 2.8105-0.8817 5.0692-2.6449 6.7762-1.7633 1.7069-4.1872 2.5604-7.2717 2.5605-2.8088-4e-5 -5.0806-0.88124-6.8152-2.6437-1.7348-1.7625-2.7677-3.9934-3.0988-6.693z" fill="#fff"/><path d="m1350.5-745.11 3.3029 7.3548c3.6359-2.4239 7.1338-3.6358 10.494-3.6358 1.8725-2e-5 3.3736 0.38534 4.5032 1.156 1.1295 0.77069 1.6943 1.8452 1.6943 3.2236 0 1.1565-0.482 2.1478-1.446 2.974-0.964 0.82616-2.1621 1.4872-3.5942 1.983-1.4321 0.49587-2.9883 1.1153-4.6683 1.8583-1.6801 0.74294-3.2362 1.5275-4.6683 2.3537-1.4322 0.82614-2.6302 2.0519-3.5942 3.6774-0.9641 1.6254-1.4461 3.5122-1.4461 5.6605 0 3.8005 1.4872 6.7472 4.4616 8.84 2.9744 2.0927 6.4997 3.139 10.576 3.1391 4.8461-4e-5 9.0593-1.2666 12.64-3.7997l-3.303-7.0245c-2.9198 2.0944-5.8942 3.1416-8.9232 3.1416-1.6523-4e-5 -2.9055-0.41313-3.7594-1.2393-0.8539-0.8262-1.2808-1.7629-1.2808-2.8101 0-1.1565 0.6471-2.1756 1.9414-3.0572 1.2943-0.88168 2.8504-1.6528 4.6684-2.3134 1.8179-0.66061 3.6353-1.4318 5.4524-2.3134 1.8171-0.88166 3.3728-2.176 4.6671-3.8829 1.2943-1.707 1.9414-3.7724 1.9415-6.1963-1e-4 -4.1855-1.5146-7.4212-4.5436-9.7073s-6.8018-3.4291-11.318-3.4291c-2.2592 0-4.752 0.39922-7.4784 1.1977-2.7264 0.79842-4.8326 1.7481-6.3185 2.8491z" fill="#fff"/><path d="m1412.2-740.49 0.9102-7.2691c-2.4239-0.93625-4.9579-1.4044-7.6019-1.4044-5.8379 0-10.052 1.707-12.642 5.1209-2.0373 2.8105-3.0559 6.859-3.0559 12.145v16.689h-6.5278v7.6851h6.5278v11.896h10.08v-11.896h10.411v-7.6851h-10.411v-15.201c0-3.9098 0.5228-6.6362 1.5683-8.1793 1.1027-1.7078 2.9483-2.5617 5.537-2.5617 1.9817-2e-5 3.7164 0.22018 5.2041 0.66059z" fill="#fff"/><path d="m1296.1-512.24c-1.4162 0.0179-2.8546 5e-3 -4.2944-0.0383-18.263-0.55584-34.362-6.186-47.583-16.641-7.2448-5.7284-14.799-15.124-19.171-23.811-11.785-23.415-11.982-55.166-0.4985-78.641 3.939-8.0522 7.8994-13.601 14.11-19.823 12.571-12.595 28.205-19.612 48.35-21.664 3.0935-0.31509 17.156 0.0859 20.283 0.57507 17.303 2.7117 31.203 9.2987 42.292 20.015 12.898 12.465 20.319 27.811 23.006 47.583 0.6899 5.0791 0.7696 17.883 0.1533 22.929-2.4283 19.883-10.155 36.206-22.967 48.58-13.931 13.454-32.438 20.666-53.68 20.935zm-0.6518-28.872c3.9285-0.0352 7.8441-0.42108 11.388-1.1503 18.441-3.7942 30.208-16.618 33.626-36.656 1.3621-7.9794 1.3618-19.343 0-27.415-3.7177-22.037-17.67-35.327-39.378-37.576-3.4322-0.35557-9.6196-0.33005-13.113 0.038-11.138 1.1752-19.946 5.122-26.84 12.04-6.7891 6.8124-10.736 15.328-12.615 27.3-0.7933 5.0554-0.7878 18.414 0 23.657 0.6752 4.5011 2.0218 9.7872 3.2974 12.998 4.7375 11.926 13.358 20.209 25.23 24.194 5.2217 1.7532 11.857 2.6276 18.404 2.569z" fill="#fff"/><path d="m1628-512.35c-8.5793 0.0242-10.91-0.17144-17.216-1.4187-26.693-5.2796-47.271-23.567-55.904-49.615-3.991-12.043-5.546-24.733-4.5244-37.269 2.2378-27.46 14.536-48.777 35.352-61.348 9.8161-5.9277 19.87-9.1146 34.393-10.851 0.5968-0.0712 5.1406-0.0871 10.084-0.038 7.0768 0.0699 10.046 0.23361 14.072 0.76685 18.094 2.3941 33.809 7.8409 46.471 16.066 3.3698 2.1887 6.8634 4.7731 6.8634 5.0995 0 0.14-2.6113 5.0579-5.7898 10.928l-5.7897 10.659-1.6871-1.1119c-23.313-14.913-57.601-18.933-78.142-9.2022-12.804 6.0651-20.251 16.576-23.082 32.591l-0.1917 0.99691h119.63l0.1533 0.69017c0.9223 3.9504 1.333 14.802 0.8052 21.165-0.7497 9.028-1.9705 15.206-4.5244 22.967-7.9562 24.18-25.636 40.583-50.229 46.625-7.2688 1.7857-11.502 2.2747-20.743 2.3006zm-2.5307-28.527c4.5402 0.0845 9.6992-0.17984 12.768-0.72851 8.9526-1.6003 15.711-4.7864 21.434-10.084 6.8138-6.3082 11.17-15.896 11.771-25.958l0.1917-3.3358h-88.802l0.1917 1.8404c0.7088 6.7802 3.4588 14.393 7.3618 20.322 2.2592 3.4315 7.4816 8.6034 11.043 10.928 4.8826 3.1855 10.627 5.3505 17.101 6.4799 1.686 0.29431 4.2159 0.48605 6.94 0.5368z" fill="#fff"/><path d="m1418.6-630.93c0 23.413 0.1231 39.615 0.3197 42.072 1.2576 15.693 5.2579 25.813 13.471 34.079 8.7307 8.7861 20.473 12.957 35.021 12.441 11.661-0.41365 19.791-3.6206 26.193-10.33 5.0259-5.2678 8.0138-11.424 9.7578-20.104 1.2738-6.3429 1.4001-9.2518 1.5674-36.263 0.2187-35.192 0.804-46.616 2.9813-58.188l0.3359-1.7824h30.182l-0.565 3.4869c-0.5873 3.6195-1.2314 9.4693-1.8334 16.658-0.2097 2.5063-0.4473 17.851-0.5921 38.275-0.2381 33.7-0.3208 36.283-1.4094 44.009-1.6217 11.516-5.4901 22.005-10.908 29.579-4.4534 6.2258-11.832 12.941-18.19 16.556-15.944 9.066-37.536 10.792-55.959 4.4715-6.6798-2.291-12.792-5.6648-18.16-10.024-3.3675-2.7345-8.3668-7.8601-10.49-10.755-0.8421-1.149-1.6136-2.089-1.7145-2.089-0.1003 0-0.3496 1.5693-0.5536 3.4869-0.5806 5.4621-1.8326 12.263-3.1954 17.355l-0.3118 1.1623h-29.64l0.3907-2.247c1.3215-7.6083 2.2057-17.988 2.6186-30.756 0.1657-5.1156 0.3031-34.021 0.306-64.235v-54.934h30.372v38.076z" fill="#fff"/><path d="m904.49-516.57v-76.793h81.734v76.793h-81.734zm21.332-10.778h10.778c9.7385 0 11.089-0.12215 13.248-0.67543 6.9852-1.7863 11.518-6.6443 11.901-12.799 0.3255-5.2274-1.4955-8.8473-5.6136-11.452l-1.3473-0.89817 1.5718-0.44549c3.9925-1.4062 7.2673-4.3895 8.9817-7.8594 1.1441-2.3151 1.3473-2.3058 1.3473-5.8381 0-3.5266-0.21484-3.7723-1.3473-6.0623-2.5509-5.162-6.9978-7.9046-14.146-8.9817-2.1606-0.32334-5.9507-0.44549-14.146-0.45268h-11.227v55.462zm9.8799-8.7575v-14.146h3.5927c1.9176 3e-3 4.2566 0.20838 5.389 0.44549 4.9867 1.057 7.0583 3.4023 6.7363 7.8594-0.1782 2.4531-0.97117 3.9203-3.1436 4.9392-1.6225 0.76022-2.1776 0.80189-7.1854 0.89817h-5.389zm0-22.903v-15.045h5.389c2.9406 4e-3 6.2355 0.0719 7.4099 0.22275 5.1695 0.74728 8.0835 3.3599 8.0835 7.4103 0 2.5623-1.007 4.1007-3.1436 5.389-2.5739 1.552-4.8927 2.0212-11.676 2.0212h-6.0626z" fill="#c80201"/><path d="m998.58-516.57v-76.793h82.182v76.793h-82.182zm21.781-10.778h10.554c11.969-6e-3 13.513-0.15808 17.29-2.0205 5.6992-2.8159 8.779-8.4406 7.859-14.371-0.1926-1.2424-0.5755-2.8648-0.8982-3.5927-0.7113-1.6088-3.0028-4.1395-4.4908-4.9406-1.1268-0.60357-1.4238-1.1224-0.6733-1.1224 1.0379 0 5.3701-2.5134 6.9608-4.0418 3.5039-3.3671 5.0187-8.736 3.8173-13.248-1.4962-5.6211-5.8293-9.4796-12.574-11.228-2.3535-0.61075-3.6327-0.77386-15.269-0.89817h-12.574v55.462zm9.8799-8.7575v-14.371l4.4909 0.22275c2.624 0.10059 4.9454 0.39519 5.8381 0.67542 3.6397 1.1454 5.4263 3.3247 5.389 6.9612-0.022 2.2828-0.5792 3.5029-2.0209 4.715-1.6107 1.3559-3.708 1.7963-8.9817 1.7963h-4.7154zm0-22.903v-15.269l6.7363 0.22275c5.7077 0.12215 6.6937 0.079 8.5326 0.67542 5.2445 1.6986 7.146 7.4354 3.8172 11.226-2.1838 2.4869-5.1045 3.1364-13.248 3.1443h-5.8381z" fill="#c80201"/><path d="m1093.1-516.57v-76.793h81.958v76.793h-81.958zm42.663-10.104c5.9559 0.33052 11.824-0.56765 19.086-3.1443l3.3681-1.3465v-5.1648c0-2.7944 0.065-4.9399 0-4.9399s-1.8785 0.64668-3.8172 1.5714c-6.8918 3.2794-11.427 4.5009-17.739 4.2667-3.3044-0.12215-4.4638-0.28022-6.9608-1.1224-3.775-1.2761-6.2036-2.8131-8.7572-5.389-3.4617-3.4921-5.1729-8.0519-5.1645-13.248 0.014-5.5184 1.7138-9.632 5.3891-13.248 4.1239-4.0561 9.4869-6.0307 16.392-6.0623 6.1191 0 11.26 1.3336 17.739 4.7158l3.5927 1.7963v-10.33l-2.0209-1.1224c-5.8129-2.6787-10.797-3.6523-17.963-3.8169-2.8981-0.0719-6.1128-0.1509-7.1853 0-11.172 1.5736-20.21 8.1575-24.251 17.738-2.4239 5.7483-2.654 12.475-0.6733 18.637 3.1615 9.8375 12.033 17.356 22.903 19.536 2.052 0.40956 4.0774 0.56764 6.0627 0.67542z" fill="#c80201"/></g></svg>
