<svg width="1172.4" height="561" version="1.1" viewBox="0 0 1172.4 561" xml:space="preserve" xmlns="http://www.w3.org/2000/svg"><link rel="stylesheet" type="text/css"/><link rel="stylesheet" type="text/css"/><style lang="en" type="text/css"/><style lang="en" type="text/css"/>

<path class="st0" d="m253.16 45.692v158.84h158.84v-158.84zm198.51 0v158.84h158.84v-158.84zm198.36 0v158.84h158.84v-158.84zm86.596 33.806c4.9412 0 9.5734 0.463 14.049 1.5429 4.4771 1.0822 8.49 2.4712 12.35 4.4771v17.288c-3.3972-2.3149-7.2573-4.0141-11.27-5.2479-4.168-1.2351-8.4889-1.852-12.657-1.6981-6.1739 0-11.425 1.08-15.747 3.3949-4.322 2.1621-7.7191 5.7121-9.8801 9.8801-2.3149 4.3209-3.3949 9.5723-3.3949 15.747 0 6.175 1.0799 11.576 3.3949 15.897 2.161 4.322 5.5582 7.7192 9.7262 10.034 4.322 2.3149 9.4171 3.3972 15.437 3.3972 9.262 0 17.751-2.4724 25.624-7.2573v17.049l-0.15394 0.092c-3.705 2.0059-8.0282 3.7062-12.813 4.7873-4.9412 1.2339-10.034 1.6969-15.437 1.6969-7.101 0-13.584-1.08-19.295-3.087-5.7121-2.161-10.496-5.0952-14.508-8.953-4.0141-3.8613-6.9471-8.6428-9.1093-14.356-2.1598-5.7109-3.0858-12.039-3.0858-19.141 0-6.946 1.0788-13.123 3.2398-18.834 2.1621-5.5558 5.4019-10.34 9.4171-14.354 4.1657-4.0129 9.107-7.0999 14.818-9.1069 5.711-2.161 12.193-3.2421 19.295-3.2421zm-438.85 0.926h33.495c9.879 0 17.598 2.0082 23 5.8672 5.4031 4.0117 8.1821 9.5699 8.1821 16.98 0 4.322-0.92597 7.8708-2.9319 11.112-2.0082 3.0881-4.785 5.5581-8.644 7.4112 5.248 1.698 9.2598 4.4737 12.038 8.3327 2.7791 3.705 4.1703 8.336 4.1703 13.738 0.15395 5.4043-1.2373 10.035-4.0164 13.894-2.7779 3.859-6.6369 6.792-11.578 8.8002-5.0917 2.007-11.112 3.0869-18.058 3.0869h-35.657zm198.67 0h33.498c9.8801 0 17.596 2.0082 22.998 5.8672 5.4019 4.0117 8.1821 9.5699 8.1821 16.98 0 4.322-0.92597 7.8708-2.9319 11.112-2.0082 3.0881-4.785 5.5581-8.644 7.4112 5.248 1.698 9.262 4.4737 12.041 8.3327 2.7779 3.705 4.1657 8.336 4.1657 13.738-0.1528 5.4043-1.5418 10.035-4.1657 13.894-2.7791 3.859-6.6381 6.792-11.577 8.8002-5.0941 2.007-11.116 3.0869-18.062 3.0869h-35.502zm-180.6 14.511v22.229h13.739c4.785 0 8.3349-1.0823 10.804-3.0881 2.4712-2.0059 3.7062-4.939 3.7062-8.4901 0-7.0999-4.7861-10.651-14.51-10.651zm198.51 0v22.229h13.738c4.7873 0 8.3361-1.0823 10.806-3.0881 2.4712-2.0059 3.7062-4.939 3.7062-8.4901 0-7.0999-4.7861-10.651-14.512-10.651zm-198.51 36.275v24.08h15.747c5.4019 0 9.57-1.0811 12.502-3.087 2.933-2.007 4.3208-4.9377 4.3208-8.7979 0.15395-8.181-5.4019-12.195-16.515-12.195zm198.51 0v24.08h15.747c5.4019 0 9.5699-1.0811 12.503-3.087 2.933-2.007 4.3231-4.9377 4.3231-8.7979 0.154-8.181-5.4042-12.195-16.518-12.195z" clip-rule="evenodd" fill="#0096dc" fill-rule="evenodd" stroke-width="1.5437"/><path d="m216.68 560.99-20.157-60.079h-112.41l-20.155 60.079h-63.96l53.686-142.25 55.241-134.9h64.344l56.01 138.58 52.91 138.58h-65.514zm-115.51-109.7h77.911l-19.187-54.075-19.576-52.912zm214.75-167.45h59.689v225.21h131.41v51.941h-191.09zm451.29 197.31c0 16.54-4.3335 30.751-12.988 42.637-8.6554 11.886-21 21.07-37.018 27.52-16.018 6.4509-35.274 9.6952-57.754 9.6952h-113.57v-277.15h106.98c31.525 0 55.947 6.1406 73.262 18.412 17.316 12.27 25.971 29.914 25.971 52.912 0 13.176-3.1054 24.615-9.3023 34.304-6.2004 9.6883-15.377 17.384-27.522 23.067 16.794 5.4284 29.655 14.028 38.569 25.774 8.9116 11.747 13.377 26.04 13.377 42.833zm-163.57-83.34h43.802c14.986 0 26.418-3.1628 34.305-9.4987 7.8857-6.3371 11.816-15.18 11.816-26.55 0-21.965-15.375-32.95-46.126-32.95h-43.802v68.999zm0 118.22h50.392c17.309 0 30.625-3.1628 39.921-9.4976 9.2977-6.3371 13.952-15.438 13.952-27.325 0-25.322-17.706-37.989-53.106-37.989h-51.165v74.812zm392.29 44.968-20.157-60.079h-112.41l-20.155 60.079h-63.96l53.686-142.25 55.241-134.9h64.344l56.017 138.58 52.91 138.58h-65.509zm-115.51-109.7h77.912l-19.187-54.076-19.576-52.91z" fill="#0096dc" stroke-width="6.299"/><path d="m956.98 158.3s-85.592 84.475-83.723 86.748c1.8887 2.2736 106.72-51.888 123.06-57.266 16.087-5.3192 26.132 7.6686 26.132 7.6686s111.02 121.48 114.23 118.48c2.9238-2.7319-66.699-140.54-71.239-156.64-4.9228-17.353 13.83-33.113 13.83-33.113s38.909-38.661 65.712-66.782l15.763-16.058c20.005-20.378 10.73-16.36-0.9972-10.981-1.5153 0.012-34.354 19.008-34.567 19.108-32.399 16.816-72.287 38.335-82.5 42.501-17.293 7.0792-27.162-2.3345-27.162-2.3345s-29.179-33.303-49.218-50.982l-34.816-34.985c-3.1226-3.072-8.4659-7.5939-3.6798 2.8583l13.749 32.387c9.5929 25.286 31.499 74.772 33.555 85.336 3.2455 16.711-18.133 34.053-18.133 34.053" fill="#0096dc" stroke-width="2.1753"/></svg>
