<svg width="800" height="310.94" version="1.1" viewBox="0 0 211.67 82.269" xmlns="http://www.w3.org/2000/svg">
 <g transform="translate(0 -214.73)">
  <path d="m0 214.73h61.185v82.269h-61.185z" fill="#29910c" stop-color="#000000" stroke-width=".0788" style="paint-order:stroke fill markers"/>
  <path d="m69.867 214.73h71.107v82.269h-71.107z" fill="#c01d1d" stop-color="#000000" stroke-width=".08495" style="paint-order:stroke fill markers"/>
  <path d="m149.24 214.73h62.425v82.269h-62.425z" fill="#3c1dc0" stop-color="#000000" stroke-width=".079595" style="paint-order:stroke fill markers"/>
  <path d="m26.696 221.35q8.1324 0 11.864 3.827 3.7314 3.7313 3.7314 11.577v2.3919q0 5.1664-1.7222 8.5151-1.6265 3.3486-5.0709 4.9751 7.8454 3.0616 7.8454 14.351v5.4535q0 7.7497-4.114 11.864-4.0184 4.0184-11.864 4.0184h-16.552v-66.973zm-5.3579 27.267h4.1141q3.1573 0 4.6881-1.6265 1.6264-1.6265 1.6264-5.4535v-3.7313q0-3.6357-1.3394-5.2621-1.2438-1.6265-4.0184-1.6265h-5.0709zm0 30.138h6.0276q2.7746 0 4.114-1.4351 1.3395-1.5308 1.3395-5.1665v-5.8362q0-4.5924-1.6265-6.3146-1.5308-1.8178-5.1664-1.8178h-4.6882z" fill="#fff" style="white-space:pre"/>
  <path d="m116.87 249.57v9.5675h-14.447v19.613h18.178v9.5675h-28.703v-66.973h28.703v9.5675h-18.178v18.657z" fill="#fff" style="white-space:pre"/>
  <path d="m177.36 289.15h-9.4719v-66.973h13.203l10.811 40.088v-40.088h9.3763v66.973h-10.811l-13.108-48.507z" fill="#fff" style="white-space:pre"/>
 </g>
</svg>
