<svg width="800" height="724.97" version="1.1" viewBox="0 0 211.67 191.81" xmlns="http://www.w3.org/2000/svg">
 <g transform="translate(1.0037 -52.587)">
  <path d="m190.81 148.49a95.907 95.907 0 0 1-95.907 95.907 95.907 95.907 0 0 1-95.907-95.907 95.907 95.907 0 0 1 95.907-95.907 95.907 95.907 0 0 1 95.907 95.907z" fill="#f7d420" stop-color="#000000" stroke-width=".33261" style="paint-order:stroke fill markers"/>
  <g transform="matrix(.29645 0 0 .29645 -24.612 28.284)">
   <path d="m772.37 195.23c6.7386-2.2737 21.263-7.1181 21.263-2.2251 0 2.1124-11.087 9.278-13.651 11.156-68.809 50.408-129.11 123.49-168.72 193.06-1.6152 2.7766-3.2379 6.2377-6.7138 6.2377-3.7454 0-4.6135-3.7582-5.7381-6.476-11.29-27.294-20.918-56.4-32.978-80.812-4.04-7.98-11.85-13.73-20.77-14.84 3.78-10.17 12.494-18.71 24.95-18.71 23.43 0 31.877 23.137 41.13 41.38 47.295-50.862 99.607-107.89 161.23-128.77z" fill="#fd3402"/>
  </g>
  <g transform="matrix(.29645 0 0 .29645 -1.0037 52.587)" stroke-width="4.6143">
   <g transform="translate(0,142.82)">
    <path d="m164.06 91.633q8.4904 4.4298 13.289 12.366 4.7989 7.7521 4.7989 17.719 0 15.873-11.259 26.394t-27.501 10.521h-55.372v-129.2h51.311q15.873 0 26.763 10.336 11.074 10.336 11.074 25.471 0 16.612-13.105 26.394zm-24.733-42.267h-30.085v33.961h30.085q7.0138 0 11.813-4.7989 4.7989-4.9835 4.7989-12.182t-4.7989-11.997q-4.7989-4.9835-11.813-4.9835zm-30.085 89.333h34.146q7.3829 0 12.366-5.168 5.168-5.3526 5.168-12.92t-5.168-12.736q-4.9835-5.3526-12.366-5.3526h-34.146z" style="white-space:pre"/>
    <path d="m288.02 120.98h-73.46q2.2149 10.336 9.9669 16.058 7.9366 5.7218 19.565 5.7218 15.689 0 23.81-11.444l16.427 9.5978q-13.474 20.118-40.421 20.118-22.333 0-36.361-13.658-13.843-13.843-13.843-34.884 0-20.488 13.658-34.515 13.474-14.028 35.069-14.028 20.118 0 33.223 14.212t13.105 34.515q0 3.6915-0.73829 8.3058zm-73.645-16.242h54.264q-2.0303-10.89-9.2286-16.796-7.0138-5.9063-17.165-5.9063-11.074 0-18.457 6.0909t-9.4132 16.612z" style="white-space:pre"/>
    <path d="m318.42 91.818q0 4.2452 4.4298 7.0138 4.4298 2.584 12.92 4.9835 6.4601 1.4766 11.259 3.1377t10.152 4.9835q5.3526 3.1377 8.1212 8.4904 2.9532 5.168 2.7686 12.182 0 13.289-10.336 20.857-10.336 7.5675-25.656 7.5675-13.658 0-23.441-5.7218-9.7824-5.7218-14.212-15.873l17.165-9.9669q4.6143 13.289 20.488 13.289 15.689 0 15.689-10.336 0-7.5675-17.534-11.813-6.6446-1.6612-11.259-3.3223-4.4298-1.6612-9.9669-4.7989-5.3526-3.1377-8.3058-8.3058-2.7686-5.168-2.584-11.997 0-12.736 9.5978-20.488 9.7824-7.7521 24.179-7.7521 11.444 0 20.303 5.168 9.0441 4.9835 13.843 14.028l-16.796 9.4132q-4.6143-10.521-17.35-10.521-5.9063 0-9.7824 2.584-3.6915 2.584-3.6915 7.1983z" style="white-space:pre"/>
    <path d="m431.44 66.347v19.196h-22.887v44.298q0 5.7218 2.584 8.3058 2.584 2.3994 7.5675 2.7686 5.168 0.18457 12.736-0.18457v17.904q-22.887 2.7686-32.854-3.876-9.9669-6.8292-9.9669-24.917v-44.298h-16.981v-19.196h16.981v-19.934l19.934-5.9063v25.84z" style="white-space:pre"/>
   </g>
   <g transform="translate(0,465.57)">
    <path d="m88.787-131.05h50.758q26.579 0 44.113 18.642 17.719 18.642 17.719 45.959 0 27.132-17.719 45.959-17.534 18.642-44.113 18.642h-50.758zm21.226 108.9h29.532q18.273 0 29.716-12.551 11.628-12.551 11.628-31.747t-11.628-31.747q-11.444-12.551-29.716-12.551h-29.532z" style="white-space:pre"/>
    <path d="m235.72-111.67q-3.6915 3.6915-8.8595 3.6915t-9.0441-3.6915q-3.6915-3.876-3.6915-9.0441 0-5.168 3.6915-8.8595 3.6915-3.876 9.0441-3.876t9.0441 3.876q3.6915 3.6915 3.6915 8.8595t-3.876 9.0441zm1.1074 109.82h-19.934v-92.286h19.934z" style="white-space:pre"/>
    <path d="m276.52-94.134v15.504q7.5675-17.165 28.424-17.165v21.595q-11.259-0.73829-19.934 5.5372-8.4904 6.0909-8.4904 20.303v46.512h-19.934v-92.286z" style="white-space:pre"/>
    <path d="m401.25-39.5h-73.46q2.2149 10.336 9.967 16.058 7.9366 5.7218 19.565 5.7218 15.689 0 23.81-11.444l16.427 9.5978q-13.474 20.118-40.421 20.118-22.333 0-36.361-13.658-13.843-13.843-13.843-34.884 0-20.488 13.658-34.515 13.474-14.028 35.069-14.028 20.118 0 33.223 14.212t13.105 34.515q0 3.6915-0.73829 8.3058zm-73.645-16.242h54.264q-2.0303-10.89-9.2286-16.796-7.0138-5.9063-17.165-5.9063-11.074 0-18.457 6.0909t-9.4132 16.612z" style="white-space:pre"/>
    <path d="m461.44 0.55234q-20.857 0-34.884-14.028-13.843-14.212-13.843-34.515 0-20.672 13.843-34.515 14.028-14.028 34.884-14.028 13.474 0 24.548 6.46 11.074 6.4601 16.612 17.35l-17.165 9.9669q-3.1377-6.6446-9.5978-10.336-6.2755-3.876-14.581-3.876-12.182 0-20.488 8.3058-8.1212 8.4904-8.1212 20.672t8.1212 20.672q8.3058 8.3058 20.488 8.3058 8.1212 0 14.581-3.6915 6.6446-3.876 9.9669-10.521l17.165 9.7824q-5.9063 11.074-17.165 17.534-11.074 6.4601-24.364 6.4601z" style="white-space:pre"/>
    <path d="m567.62-94.134v19.196h-22.887v44.298q0 5.7218 2.584 8.3058 2.584 2.3994 7.5675 2.7686 5.168 0.18457 12.736-0.18457v17.904q-22.887 2.7686-32.854-3.876-9.9669-6.8292-9.9669-24.917v-44.298h-16.981v-19.196h16.981v-19.934l19.934-5.9063v25.84z" style="white-space:pre"/>
   </g>
  </g>
 </g>
</svg>
