<svg width="1728.2" height="800" version="1.1" xml:space="preserve" xmlns="http://www.w3.org/2000/svg" xmlns:xlink="http://www.w3.org/1999/xlink"><defs><linearGradient id="c"><stop stop-color="#fff" stop-opacity=".9797" offset="0"/><stop stop-color="#fff9ea" stop-opacity=".51292" offset=".29405"/><stop stop-color="#fdf6e2" stop-opacity=".28413" offset=".42782"/><stop stop-color="#feedd3" stop-opacity=".27491" offset=".44024"/><stop stop-color="#feeed5" stop-opacity=".10701" offset=".59954"/><stop stop-color="#fffffe" stop-opacity="0" offset=".68763"/><stop stop-color="#fff" stop-opacity="0" offset="1"/></linearGradient><linearGradient id="b"><stop stop-color="#f6a121" offset="0"/><stop stop-color="#f29620" offset=".18396"/><stop stop-color="#ef8b20" offset=".40016"/><stop stop-color="#e9821d" offset=".53659"/><stop stop-color="#e37a1b" offset=".64888"/><stop stop-color="#cf6715" offset=".86187"/><stop stop-color="#c96114" offset="1"/></linearGradient><linearGradient id="a"><stop stop-color="#9d9d9c" offset="0"/><stop stop-color="#b8b7b7" offset=".10132"/><stop stop-color="#ccc" offset=".19954"/><stop stop-color="#cfcfcf" offset=".20881"/><stop stop-color="#d0d0d0" offset=".21608"/><stop stop-color="#d3d3d3" offset=".23562"/><stop stop-color="#d6d6d6" offset=".26919"/><stop stop-color="#d7d7d7" offset=".31004"/><stop stop-color="#ddd" offset=".50915"/><stop stop-color="#f1f1f1" offset="1"/></linearGradient><linearGradient id="d" x1="240.62" x2="198.35" y1="11.085" y2="36.218" gradientTransform="matrix(4.0392 0 0 4.0392 -.041685 -27.529)" gradientUnits="userSpaceOnUse" xlink:href="#a"/><linearGradient id="e" x1="270.78" x2="229.43" y1="36.126" y2="14.995" gradientTransform="matrix(4.0392 0 0 4.0392 -.041685 -27.529)" gradientUnits="userSpaceOnUse" xlink:href="#b"/><linearGradient id="g" x1="240.62" x2="198.35" y1="11.085" y2="36.218" gradientTransform="matrix(-7.3085 0 0 -7.3219 1992.6 849.9)" gradientUnits="userSpaceOnUse" xlink:href="#a"/><linearGradient id="h" x1="270.78" x2="229.43" y1="36.126" y2="14.995" gradientTransform="matrix(-7.3085 0 0 -7.3219 1992.6 849.9)" gradientUnits="userSpaceOnUse" xlink:href="#b"/><radialGradient id="f" cx="262.89" cy="79.2" r="19.174" gradientTransform="matrix(-1.2355 -18.066 14.487 -1.0508 314.93 5286.4)" gradientUnits="userSpaceOnUse" xlink:href="#c"/><radialGradient id="i" cx="262.98" cy="79.231" r="19.174" gradientTransform="matrix(1.8116 32.183 -26.233 1.5901 1535.9 -8609.1)" gradientUnits="userSpaceOnUse" xlink:href="#c"/></defs><path d="m998.03 93.455v-84.054l-43.003-8.5409h-91.922c-16.787 0-43.516 3.9219-64.401 27.639-21.069 26.747-19.849 44.022-19.849 64.956z" fill="url(#d)" stroke-width="1.0667"/><path d="m1044.2 441.43c30.981 0 56.446-26.467 56.535-57.324l0.8141-283.13c0.073-25.449-5.2787-41.723-13.842-55.648-24.749-40.245-68.603-45.33-108.41-45.33l-32.643 0.48132c11.472 4.2355 33.453 13.935 41.397 36.081 3.6549 10.189 5.6882 24.141 5.2687 43.986l-6.2574 305.55c-0.4929 24.068 20.79 55.34 57.135 55.34z" fill="url(#e)" stroke-width="1.0667"/><path d="m1044.2 441.43c30.981 0 56.446-26.467 56.535-57.324l0.8141-283.13c0.073-25.449-5.2787-41.723-13.842-55.648-24.749-40.245-68.603-45.33-108.41-45.33l-32.643 0.48132c11.472 4.2355 33.453 13.935 41.397 36.081 3.6549 10.189 5.6882 24.141 5.2687 43.986l-6.2574 305.55c-0.4929 24.068 20.79 55.34 57.135 55.34z" fill="url(#f)" stroke-width="1.0667"/><path d="m186.71 630.59v152.36l77.81 15.482h166.32c30.374 0 78.739-7.1093 116.53-50.101 38.123-48.485 35.914-79.799 35.914-117.75z" fill="url(#g)" stroke-width="1.0667"/><path d="m102.91 0.23484c-56.058 0-101.99 47.55-102.08 103.48l-0.83147 515.69c0 28.339 2.7967 48.528 9.9246 67.701 7.5549 20.076 14.286 32.472 31.439 53.897 12.46 14.343 26.487 25.246 46.937 35.783 35.679 18.068 86.947 23.206 132.36 23.206 22.127-0.0406 43.61-0.12162 58.673-1.4868-12.12-3.9223-29.099-10.244-47.312-25.527-8.8928-7.462-21.606-22.721-27.414-38.942-6.6131-18.469-10.292-44.082-9.533-80.055l11.856-553.88c0.93391-43.628-38.259-99.888-104.02-99.888z" fill="url(#h)" stroke-width="1.0667"/><path d="m102.91 0.23484c-56.058 0-101.99 47.55-102.08 103.48l-0.83147 515.69c0 28.339 2.7967 48.528 9.9246 67.701 7.5549 20.076 14.286 32.472 31.439 53.897 12.46 14.343 26.487 25.246 46.937 35.783 35.679 18.068 86.947 23.206 132.36 23.206 22.127-0.0406 43.61-0.12162 58.673-1.4868-12.12-3.9223-29.099-10.244-47.312-25.527-8.8928-7.462-21.606-22.721-27.414-38.942-6.6131-18.469-10.292-44.082-9.533-80.055l11.856-553.88c0.93391-43.628-38.259-99.888-104.02-99.888z" fill="url(#i)" stroke-width="1.0667"/><g fill="#fff" stroke-width="1.0667"><path d="m602.08 174.35c-11.359 0-21.76 1.7778-31.201 5.3342-9.294 3.4196-17.408 8.2756-24.341 14.568-6.786 6.1553-12.096 13.543-15.931 22.16-3.6881 8.4806-5.425 17.713-5.425 27.698 0 10.122 1.8438 19.424 5.5318 27.904 3.8356 8.4806 9.1455 15.866 15.932 22.158 6.9335 6.1552 14.94 11.011 24.234 14.568 9.4414 3.4196 19.842 5.1302 31.201 5.1302 9.7365 0 18.736-1.3003 26.997-3.8992 8.4088-2.5989 15.858-6.2241 22.349-10.875 6.491-4.7874 11.95-10.464 16.376-17.03 4.5732-6.5656 7.7455-13.814 9.5158-21.747h-0.32047c5e-3 -0.022 0.0118-0.0432 0.0168-0.0652h-37.69c-2.9387 6.9481-7.6399 12.465-14.105 16.552-6.3182 4.0871-14.031 6.1318-23.141 6.1318-6.1712 0-11.755-0.95451-16.75-2.8618-4.9958-1.9073-9.2569-4.5629-12.783-7.9688-3.5264-3.5421-6.2462-7.6972-8.1564-12.466-1.9101-4.7683-2.8633-9.9457-2.8633-15.531 0-5.5857 0.95317-10.763 2.8633-15.531 1.9102-4.7683 4.63-8.8555 8.1564-12.261 3.5264-3.5422 7.7876-6.2677 12.783-8.175 4.9957-1.9074 10.579-2.8597 16.75-2.8597 9.1098 0 16.823 2.0425 23.141 6.1296 6.4651 4.0871 11.166 9.606 14.105 16.554h37.69c-5e-3 -0.0221-0.0118-0.0432-0.0168-0.0653h0.32047c-1.7703-7.9335-4.9426-15.184-9.5158-21.75-4.4257-6.5656-9.8845-12.173-16.376-16.823-6.491-4.7874-13.941-8.48-22.349-11.079-8.2613-2.5989-17.261-3.8992-26.997-3.8992zm-165.87 0c-11.352 0-21.745 1.7779-31.18 5.3342-9.2877 3.4196-17.396 8.2756-24.325 14.568-6.7815 6.1553-12.088 13.543-15.921 22.16-3.6856 8.4806-5.5297 17.713-5.5297 27.698 0 10.122 1.8441 19.424 5.5297 27.904 3.833 8.4806 9.1395 15.866 15.921 22.158 6.9289 6.1552 15.037 11.011 24.325 14.568 9.4352 3.4196 19.829 5.1302 31.18 5.1302 11.204 0 21.525-1.7106 30.96-5.1302 9.4351-3.5564 17.543-8.4124 24.325-14.568 6.929-6.292 12.235-13.677 15.921-22.158 3.833-8.4806 5.7497-17.782 5.7497-27.904 0-9.9852-1.9166-19.218-5.7497-27.698-3.6856-8.6173-8.9921-16.005-15.921-22.16-6.7815-6.292-14.889-11.148-24.325-14.568-9.4351-3.5564-19.756-5.3342-30.96-5.3342zm0 30.97c6.1609 0 11.736 0.95424 16.723 2.8597 4.9874 1.9054 9.2419 4.6258 12.762 8.1645 3.5205 3.4025 6.2326 7.4853 8.1396 12.249 1.9069 4.7635 2.8612 9.9365 2.8612 15.517 0 5.5802-0.95432 10.751-2.8612 15.515-1.907 4.7635-4.6191 8.9164-8.1396 12.455-3.5205 3.4025-7.7749 6.055-12.762 7.9604-4.9874 1.9054-10.562 2.8597-16.723 2.8597-6.1608 0-11.734-0.95426-16.721-2.8597-4.9874-1.9054-9.2418-4.5579-12.762-7.9604-3.5205-3.5386-6.2347-7.6915-8.1417-12.455-1.9069-4.7636-2.8612-9.9345-2.8612-15.515 0-5.5802 0.95427-10.753 2.8612-15.517 1.907-4.7636 4.6212-8.8463 8.1417-12.249 3.5205-3.5387 7.7749-6.2591 12.762-8.1645 4.9874-1.9054 10.56-2.8597 16.721-2.8597zm-186.91 105.12v-132.92h35.669v102.25h68.512v30.676zm533.64 4e-5v-37.496h-56.217v37.496h-34.75v-77.582c0-18.213 5.3436-32.485 16.031-42.815 10.834-10.466 26.498-15.699 46.994-15.699 20.642 0 36.488 5.2329 47.321 15.699 10.834 10.33 16.304 24.601 16.304 42.815v77.582zm0-77.582c0-9.2425-2.3223-16.174-6.8607-20.796-4.392-4.7572-11.492-7.1358-21.301-7.1358-9.6624 0-16.656 2.3786-21.194 7.1358-4.5384 4.6213-6.861 11.553-6.861 20.796v11.702h56.217zm58.599 77.582v-132.92h35.695v102.27h68.085v30.657zm-347.48 246.54-72.523-194.56h56.468l45.269 137.45h0.648l45.326-137.45h55.116l-72.475 194.56zm-192.73-0.0437v-149.87h-57.443v-44.647h167.41v44.647h-57.739v149.87z"/><path d="m768.69 673.43q0 18.522-14.908 28.916-12.161 8.5048-34.719 8.5048h-55.315v-130.41h46.096q22.361 0 33.346 5.4809 17.261 8.6938 17.261 27.404 0 10.017-5.6884 17.955-5.6884 7.9378-14.123 10.773v0.37799q13.142 3.0239 20.596 11.151 7.4538 8.1268 7.4538 19.844zm-39.427-55.565q0-8.5048-6.6692-12.096-4.5115-2.6459-14.123-2.6459h-13.142v30.05h12.358q10.396 0 14.908-2.8349 6.6692-4.5359 6.6692-12.474zm7.2577 53.108q0-8.1268-6.8653-13.041-5.1-3.5909-16.869-3.5909h-17.458v33.263h17.458q11.769 0 16.869-3.5909 6.8653-4.3469 6.8653-13.041zm159.35-53.896 0.98076 0.56654-1.7654 27.76h-1.3731q-4.3154-2.2662-11.377-2.2662-9.2192 0-14.515 6.7985-4.9038 6.0431-4.9038 19.451v41.357h-31.384v-93.101h31.384l-0.19615 13.219h0.39231q7.8461-14.919 23.931-14.919 6.0808 0 8.8269 1.1331zm161.9 37.58v56.087h-31.581v-50.611q0-19.451-12.75-19.451-7.6499 0-11.769 6.0431-3.9231 5.8542-3.9231 16.241v47.778h-31.384v-50.611q0-19.451-12.946-19.451-7.65 0-11.769 6.0431-3.9231 5.8542-3.9231 16.241v47.778h-31.384v-93.101h31.384l-0.19616 13.408 0.39231-0.18885q4.3154-6.6096 11.181-10.764 7.0615-4.1546 15.496-4.1546 21.969 0 28.834 16.996 10.396-16.996 30.796-16.996 33.542 0 33.542 38.713zm163.35 1.1331v54.954h-31.384v-48.534q0-11.331-3.1385-16.43-3.1384-5.0989-11.769-5.0989-17.262 0-17.262 23.983v46.078h-31.384v-93.101h31.384l-0.1961 13.408h0.3923q9.8076-15.108 28.05-15.108 18.831 0 27.069 10.198 8.2384 10.009 8.2384 29.649zm88.539-38.124h31.384v73.852q0 26.684-14.711 40.027-16.281 14.658-44.527 14.658-14.711 0-27.461-4.51-12.162-4.1342-19.419-9.208l12.946-20.107q5.2963 3.7584 14.712 7.1409 9.6115 3.3825 18.635 3.3825 15.3 0 22.754-7.3288 5.8846-6.5771 5.8846-18.416v-3.0067h-0.3923q-10.592 13.154-30.404 13.154-19.223 0-32.365-12.027-13.338-12.215-13.338-33.637 0-21.235 13.338-33.449 13.338-12.215 32.365-12.215 19.811 0 30.6 13.53h0.3923zm-5.2961 60.322q6.2769-6.3892 6.2769-16.161 0-9.7717-6.2769-15.973-6.2769-6.3892-16.281-6.3892-10.004 0-16.477 6.3892-6.2769 6.3892-6.2769 15.973 0 9.7717 6.2769 16.161 6.473 6.3892 16.477 6.3892t16.281-6.3892zm150.67-22.198v54.954h-31.581v-48.911q0-10.953-3.1384-16.052-3.1385-5.0989-11.573-5.0989-17.262 0-17.262 24.361v45.701h-31.384v-130.3h31.384v30.971l-0.1961 19.64q8.8269-15.108 28.442-15.108 18.831 0 27.069 10.198 8.2384 10.009 8.2384 29.649zm104.23 2.2788v52.241h-30.011l-0.5884-9.7717q-2.55 2.4429-5.6884 5.0738-2.9423 2.255-9.2193 4.51-6.2769 2.255-12.75 2.255-14.515 0-24.715-7.5167-10.396-7.7047-10.396-21.986 0-9.7718 5.8846-16.161 10.004-11.275 31.777-12.215l24.323-0.9396v-2.0671q0-14.846-19.811-14.846-7.6499 0-16.084 2.6308-8.4346 2.4429-13.534 5.6376l-8.2385-19.543q20.008-9.3959 41.388-9.3959 23.93 0 36.092 10.711 11.573 10.523 11.573 31.382zm-31.188 26.684v-15.221l-15.496 0.93957q-15.3 0.56376-15.3 11.275 0 5.2617 4.1193 8.4563 4.1191 3.0067 10.592 3.0067 5.2962 0 9.6115-2.4429 4.3154-2.6309 6.473-6.0134zm200.08-30.096v56.087h-31.581v-50.611q0-19.451-12.75-19.451-7.65 0-11.769 6.0431-3.9231 5.8542-3.9231 16.241v47.778h-31.384v-50.611q0-19.451-12.946-19.451-7.6499 0-11.769 6.0431-3.923 5.8542-3.923 16.241v47.778h-31.384v-93.101h31.384l-0.1961 13.408 0.3923-0.18885q4.3153-6.6096 11.181-10.764 7.0614-4.1546 15.496-4.1546 21.969 0 28.835 16.996 10.396-16.996 30.796-16.996 33.542 0 33.542 38.713zm-930.43-78.906c-5.2307 0-9.5458 1.4482-12.946 4.3466-3.2692 2.7723-4.9042 6.5546-4.9042 11.343 0 4.7886 1.635 8.5687 4.9042 11.341 3.4 2.8983 7.7151 4.3466 12.946 4.3466 5.2308 0 9.5459-1.4482 12.946-4.3466 3.2692-2.7723 4.9042-6.5525 4.9042-11.341 0-4.6625-1.7-8.4448-5.1-11.343-3.4-2.8983-7.65-4.3466-12.75-4.3466zm-15.51 41.892v93.102h31.383v-93.102zm310.05-41.893c-5.2307 0-9.5459 1.4482-12.946 4.3466-3.2692 2.7723-4.9042 6.5546-4.9042 11.343 0 4.7886 1.635 8.5687 4.9042 11.341 3.3999 2.8983 7.7151 4.3466 12.946 4.3466s9.5458-1.4482 12.946-4.3466c3.2693-2.7723 4.9042-6.5525 4.9042-11.341 0-4.6625-1.7-8.4448-5.1-11.343-3.4-2.8983-7.65-4.3466-12.75-4.3466zm-15.51 41.892v93.102h31.383v-93.102z"/></g></svg>
