<svg width="14.55mm" height="5.9905mm" version="1.1" viewBox="0 0 51.555 21.226" xmlns="http://www.w3.org/2000/svg">
 <defs>
  <clipPath id="a">
   <path d="m419.53 0h419.53v595.28h-419.53v-595.28z"/>
  </clipPath>
 </defs>
 <g transform="translate(-251.37 -313.18)">
  <g transform="matrix(1.25 0 0 -1.25 274.39 315.54)">
   <path d="m0 0 1.133 1.886h-19.556v-15.094h9.683l-1.103-1.887h23.318v15.095h-13.475zm12.593-14.212h-20.891l1.07 1.886h-10.312v13.329h17.11l-1.133-1.886h14.156v-13.329z" fill="#f15d2a"/>
  </g>
  <g transform="matrix(1.25 0 0 -1.25 -552.97 763.35)">
   <g clip-path="url(#a)">
    <g transform="translate(672.01 353.8)">
     <path d="m0 0 0.43 1.78h-4.634l-1.469-6.085h-2.418l3.656 6.085h-4.901l-0.429-1.78h2.184l-3.361-5.594 0.355 7.374h-2.107l-3.555-6.085h-2.079l1.469 6.085h-1.831l-1.338-5.483c0.21 1.21-0.463 1.527-0.979 1.688h-1e-3c0.864 0.203 1.56 0.963 1.639 1.871 0.093 1.062-0.693 1.924-1.757 1.924h-2.9l-1.898-7.865h2.965c0.757 8e-3 2.328 0.347 2.831 1.969l-0.461-1.969h5.222l0.745 1.304h1.961l-0.087-1.304h11.593l0.43 1.782-3.117-2e-3 0.34 1.408h1.87l0.429 1.779h-1.87l0.27 1.118h2.803zm-21.832-3.496c-0.165-0.681-0.92-0.8-1.062-0.8-0.141 0-0.753-2e-3 -0.753-2e-3l0.374 1.551h0.662c0.22 0 0.943-0.068 0.779-0.749m0.703 3.073c-0.108-0.384-0.471-0.694-0.812-0.695h-0.937l0.335 1.389h0.992c0.341 0 0.53-0.311 0.422-0.694m8.586-2.578h-1.06l1.199 2.095-0.139-2.095z" fill="#f15d2a"/>
    </g>
   </g>
  </g>
  <g transform="matrix(1.25 0 0 -1.25 296.04 323.24)">
   <path d="m0 0 0.416 1.724h-0.908l-0.416-1.724h-1.734l-0.212-0.883h1.733l-0.41-1.699h0.908l0.41 1.699h1.678l0.211 0.883h-1.676z" fill="#f15d2a"/>
  </g>
  <g transform="matrix(1.25 0 0 -1.25 298.26 328.71)">
   <path d="m0 0h1.831l1.899 7.865h-2.79l-1.041-1.78h1.57l-1.469-6.085z" fill="#f15d2a"/>
  </g>
 </g>
</svg>
