<svg width="895.97" height="561.94" version="1.1" viewBox="0 0 895.97 561.94" xmlns="http://www.w3.org/2000/svg">
 <path d="m369.81 428.4-369.81-214.19v133.52l369.81 214.21 369.81-214.21v-133.52z" fill="#fff"/>
 <path d="M 369.81,0 739.62,214.21 369.81,428.4 0,214.21 Z"/>
 <path d="m693.24 256.09c13.176-8.3922 31.303-15.924 30.296 2.5595a17.864 17.864 0 0 1-4.5531 10.448c-2.6015 3.0634-5.8957 4.8047-9.5255 6.1893a31.079 31.079 0 0 0-15.861 13.7 37.764 37.764 0 0 0-4.6581 17.246c-0.0416 3.7556 1.1122 16.952 11.581 10.553a25.515 25.515 0 0 0 3.5043-2.5807 15.94 15.94 0 0 0 5.2029-10.155l-4.4692 2.7696c-5.2029 3.2101-5.1191-5.6018-5.1191-6.0424 0.105-9.8402 4.8258-12.778 5.0774-12.945l18.107-11.351c0.27276-0.16775 5.4968-3.462 5.308 6.2104-0.6294 32.793-8.98 56.354-31.01 69.698-16.638 9.966-33.905 0.105-33.989-30.254-0.0839-30.506 12.882-55.179 30.107-66.047"/>
 <path d="m222.8 422.01c7.0706 3.5036 10.197-1.8254 9.5044-10.26-0.69215-8.56-4.6369-17.519-12.043-21.169-7.28-3.609-10.175 1.9509-9.4832 10.511 0.67165 8.4553 4.9513 17.435 12.022 20.918m-1.7832-65.817c23.016 13.91 41.227 43.598 41.038 75.006-0.16776 30.443-18.589 39.213-41.605 25.303-21.4-12.945-40.178-41.983-40.01-73.978 0.18888-31.387 18.211-39.843 40.577-26.331"/>
 <path d="m344.73 427.7c-4.7836-2.7696-9.7771-2.7065-13.155 0.0208l-16.722 13.092-18.421-34.283c-1.8882-3.6717-5.9796-10.385-12.043-13.889a16.557 16.557 0 0 0-8.0356-2.6226c-9.1266 0-9.4416 12.4-9.4416 13.826l-0.35664 59.481c-0.2305 4.49 0.0634 19.806 14.204 28.072a8.2433 8.2433 0 0 0 4.1542 1.2588c7.7839 0 9.861-13.449 9.861-21.4l0.0634-9.6302 14.686 24.128a9.7664 9.7664 0 0 0 3.9237 4.1334c1.9932 1.1538 4.2592 0.776 6.4412-0.98636l11.266-7.7836-0.105 16.47c0 10.721 1.2172 25.68 11.728 31.576a16.814 16.814 0 0 0 7.9939 2.5387c6.9234-0.0211 9.4416-7.4692 9.4621-13.889l0.35664-61.138c0-2.014-0.37713-19.974-15.861-28.974"/>
 <path d="m54.411 299.94c4.0075 2.3287 6.0219 0.10468 6.043-3.9864a12.587 12.587 0 0 0-6.2946-10.448l-8.3499-4.8466-0.08453 14.225zm-0.52439 33.737c4.553 2.6437 6.3574 0.0419 6.3785-3.0839a12.671 12.671 0 0 0-5.9585-10.952l-8.6861-5.0356-0.08384 14.225zm24.338-9.903c12.232 10.931 13.176 21.778 13.113 28.702-0.08388 15.924-8.8116 21.862-30.191 9.4413l-28.87-16.91a34.909 34.909 0 0 1-17.938-29.352l0.33551-58.054c0-0.69247 0-18.946 18.148-8.3925l28.891 16.911c21.359 12.421 29.981 28.45 29.876 44.375-0.04162 6.9026-1.091 16.596-13.365 13.281"/>
 <path d="m137.26 374.18c7.2384 3.0842 10.071-2.4129 8.8961-10.784-1.196-8.5183-5.6857-17.225-13.281-20.456-7.49-3.1889-10.049 2.5387-8.8538 11.057 1.1749 8.3925 5.9591 17.099 13.239 20.184m-0.29389-65.061c22.995 13.91 40.325 43.682 40.136 75.069-0.16776 30.443-17.708 39.15-40.702 25.24-21.401-12.945-41.689-42.696-41.521-74.692 0.18888-31.387 19.722-39.129 42.087-25.617"/>
 <path d="m610.09 306.34c3.7341-2.161 6.9656-1.0699 9.0216 1.4269l16.218 20.183-0.0423-16.931c0-0.69246-1.6993-18.883 10.176-25.722 12.022-6.9448 11.98 11.288 11.98 11.98l0.16775 59.397c0 0.8391 0.0634 19.009-11.875 25.911-2.4548 1.4057-4.5531 0.90216-7.1129-2.0143l-16.407-20.96 0.0416 18.044c0 0.83909 0.0634 19.03-11.896 25.932-11.833 6.819-11.896-11.351-11.896-12.19l-0.16775-59.334c0-0.71327-0.0416-18.883 11.791-25.722"/>
 <path d="m429.77 411.83c0.96491-0.56665 11.959-6.756 12.001 7.7628a25.394 25.394 0 0 1-11.917 21.82l-20.225 11.665 0.0205 8.4764 20.96-12.106c3.6714-2.119 7.8678-2.2871 7.8883 5.1821 0.0211 8.0356-4.1542 12.567-7.8255 14.686l-20.96 12.085 0.0205 8.3294 20.226-11.665c0.96491-0.56665 11.959-6.7768 12.001 7.742a25.418 25.418 0 0 1-11.917 21.841l-33.527 19.365c-16.24 9.3786-16.176-8.8746-16.197-9.7141l-0.14727-57.928c-0.0205-0.69215-0.16775-18.82 16.911-28.66z"/>
 <path d="m551.75 401 14.791-8.1194-6.9445-22.282zm41.647-15.022a20.951 20.951 0 0 1 2.3287 9.651c0.0422 10.155-6.7556 19.869-13.386 23.687-4.1119 2.371-7.9517 1.0491-9.966-3.0212l-2.3076-5.9796-24.379 14.078-3.1681 11.246c-2.0143 6.3993-5.7907 12.106-9.9033 14.498-6.0212 3.4617-14.728 1.5316-14.75-8.8961a34.701 34.701 0 0 1 2.056-11.015l24.988-77.503c1.091-3.3151 3.7559-10.952 11.204-15.232 7.5112-4.343 11.729-0.41971 12.84 1.6366z"/>
 <path class="a" d="m566.49 160.54-168.41-95.379-15.757-8.9169c-9.9865-3.7136-24.443-5.3083-41.94 3.3151l-232.26 135.12s-21.464 11.288-5.8324 24.317l190.42 109.81c56.082 33.486 117.72 37.472 169.82 9.5255 34.241-18.358 34.22-49.683 17.162-69.908 28.135 7.6578 65.313 6.9656 97.666-10.428 54.361-29.184 48.256-63.97-10.868-97.456" fill="#fff"/>
 <path d="m444.58 175.76-27.883-16.008a7.6552 7.6552 0 0 1-1.196-0.65053c-5.1402-3.2731-9.3366-2.6015-11.896-1.5527l-2.2864 1.2591c-0.25228 0.18857-0.37777 0.29357-0.37777 0.29357l-0.0627-0.0419-23.121 12.819 0.0423 0.105s-5.4764 4.3011 0 7.805c0.0416 0.0208 0.0416 0.0419 0.0839 0.0839l28.911 16.722c14.309 8.2452 29.08 9.2316 41.542 2.3918 12.504-6.8606 10.637-14.959-3.7559-23.226"/>
 <path d="m346.7 236.23-32.73-19.156a7.3689 7.3689 0 0 1-2.2448-1.0072 13.133 13.133 0 0 0-9.4621-2.2656l-30.905 17.141c-1.091 1.5738-1.8677 4.0284 1.4893 6.1896l0.0423 0.0419 34.828 20.519c13.595 8.0148 29.498 8.2875 40.807 2.0771 12.274-6.714 11.875-15.526-1.8254-23.54"/>
 <path d="m485.69 417.06c3.7341-2.161 5.5807-6.609 5.5807-10.7-0.0211-3.1054-1.6788-7.8678-5.9374-5.4133l-10.973 6.9448 0.0416 16.281 7.8678-4.7836m22.408-3.4201c9.8815-1.0491 9.7771 5.8538 9.8188 17.687l0.0211 6.9026c0 0.83942-0.0628 18.107-14.687 26.562-14.497 8.3714-12.127-11.267-12.127-12.106l-0.0205-12.819c-0.0211-7.3223-1.8043-7.8678-3.462-6.9026l-7.4062 5.3083 0.0627 22.113c0 0.86022-0.27276 17.813-14.477 25.996-13.973 8.0775-14.54-8.3925-14.54-9.2527l-0.16776-59.313c0-0.69246-0.16775-18.82 16.722-28.555l26.772-15.798c19.89-11.498 25.429-3.6928 25.47 12.232 0.0211 6.6301-0.90216 17.037-11.98 27.946"/>
 <g transform="translate(-426.78 -324.99)">
  <path d="m1217.7 585.36c-2.5814 0-4.653 0.0307-7.1191 0.30469-1.2331 0.137-2.4777 0.23517-4.875 0.99219-1.1986 0.3785-2.7296 0.85299-5.0918 2.4277-2.2629 1.5085-5.9592 4.7081-7.6523 10.494-0.478 0.1168-0.605 0.0679-1.1875 0.23438l-0.92 0.26171-0.8867 0.35547c-8.8869 3.5548-10.126 9.0427-11.031 11.518-0.9055 2.4749-1.0834 3.9277-1.2676 5.291-0.3685 2.7266-0.4063 4.9351-0.4063 7.6055 0 2.5814 0.031 4.653 0.3047 7.1191 0.137 1.2331 0.2351 2.4795 0.9922 4.877 0.3786 1.1987 0.8528 2.7294 2.4277 5.0918 1.575 2.3624 4.9112 6.3426 11.197 7.9141l0.4317 0.10742 0.3339 0.0684c0.1516 0.66149 0.4102 1.478 0.7461 2.4121 1.7562 5.4602 5.4685 8.7984 7.8438 10.305 2.5463 1.6148 4.1993 2.0513 5.4765 2.3965 2.5545 0.69039 3.8331 0.7115 5.0879 0.78321 2.4987 0.14277 4.5268 0.0521 7.043-0.0957 2.5797-0.1474 4.6233-0.29033 7.0996-0.71484 1.2382-0.21226 2.4771-0.35372 5.0352-1.377 1.279-0.51162 2.9741-1.1391 5.5371-3.3359 2.1966-1.8828 5.3447-6.1291 6.2441-11.611 0.5568-0.20402 0.7762-0.17112 1.457-0.46289l0.504-0.2168 0.4902-0.24609c9.8802-4.9398 9.5086-10.449 10.086-12.758 0.5774-2.3093 0.6283-3.5898 0.6973-4.832 0.138-2.4845 0.05-4.5566-0.1-7.0938-0.1486-2.5264-0.2907-4.5347-0.7285-7.0156-0.2189-1.2405-0.3679-2.4956-1.4336-5.084-0.5329-1.2942-1.2004-3.0146-3.4414-5.5547-1.4399-1.632-4.2239-3.73-7.7383-5.0859-0.1398-0.47435-0.1869-0.80287-0.3652-1.3379l-0.1739-0.52149-0.2031-0.50976c-3.5548-8.8867-9.0427-10.124-11.518-11.029s-3.9277-1.0853-5.291-1.2695c-2.7266-0.36846-4.9351-0.40625-7.6055-0.40625z" color="#000000" color-rendering="auto" dominant-baseline="auto" image-rendering="auto" shape-rendering="auto" solid-color="#000000" style="font-feature-settings:normal;font-variant-alternates:normal;font-variant-caps:normal;font-variant-ligatures:normal;font-variant-numeric:normal;font-variant-position:normal;isolation:auto;mix-blend-mode:normal;paint-order:stroke fill markers;shape-padding:0;text-decoration-color:#000000;text-decoration-line:none;text-decoration-style:solid;text-indent:0;text-orientation:mixed;text-transform:none;white-space:normal"/>
  <path d="m1286.5 520.51c-7.5903 0-13.784 0.12299-18.846 0.41016-4.8587 0.27566-8.0018 0.30246-13.18 1.8789-6.4587 1.7738-8.0683 4.4632-9.3555 5.9258-1.333 1.5147-1.9582 2.5383-2.5293 3.4766-1.1422 1.8765-1.8639 3.4021-2.6719 5.1797l-0.084 0.1836-0.08 0.1875c-0.1039 0.24251-0.1116 0.15338-0.2168 0.31445-1.6832 1.4425-3.4149 2.8712-4.8516 4.3438-1.0589 1.0854-2.0898 2.1887-3.3027 3.8926-1.1707 1.6446-3.0366 3.5591-3.7969 9.3574-1.3283 7.6037-0.9064 15.131 0.3789 23.557l0.2422 1.5762 0.5039 1.5137c0.3241 0.97251 0.7103 2.0335 1.3945 3.4024v4e-3c1.6521 3.3031 6.3234 7.1366 11.188 9.1953v38.16c-3.8825 1.5451-7.3265 3.9842-9.1602 6.3145-2.8781 3.6578-3.7014 6.5493-4.3437 8.998-1.2845 4.8974-1.375 8.7732-1.375 13.469 0 4.3893 0.073 7.9978 1.207 12.613 0.5668 2.3077 1.2521 5.0208 3.9395 8.668 2.6873 3.6471 9.4294 8.2852 16.217 8.2852h54.172c8.5631 0 15.136-6.5759 17.164-10.141 2.0282-3.5647 2.388-5.7933 2.7754-7.8359 0.7748-4.0854 0.8516-7.5027 0.8516-11.781 0-4.2822-0.079-7.6401-0.6368-11.355-0.2786-1.8577-0.4841-3.7309-1.9746-7.043-0.7452-1.656-1.8034-3.8305-4.5039-6.4023-1.8403-1.7527-4.9049-3.53-8.3359-4.5254v-87.408c0-3.0497 0.07-5.9912-1.666-10.727-0.8681-2.3677-2.3108-5.4486-5.6328-8.4688-3.3221-3.0201-8.894-5.2188-13.492-5.2188zm-44.664 15.496c-0.2513 0.20621-0.4035 0.37692-0.6465 0.57813 0.1244-0.11176 0.054-0.0733 0.1934-0.19532zm12.371 95.48c0.64-0.12488 0.7819-0.0234 1.0391 0.0352h-1.1367c0.024-5e-3 0.074-0.0306 0.098-0.0352z" color="#000000" color-rendering="auto" dominant-baseline="auto" image-rendering="auto" shape-rendering="auto" solid-color="#000000" style="font-feature-settings:normal;font-variant-alternates:normal;font-variant-caps:normal;font-variant-ligatures:normal;font-variant-numeric:normal;font-variant-position:normal;isolation:auto;mix-blend-mode:normal;paint-order:stroke fill markers;shape-padding:0;text-decoration-color:#000000;text-decoration-line:none;text-decoration-style:solid;text-indent:0;text-orientation:mixed;text-transform:none;white-space:normal"/>
  <path d="m1237.1 631.14q-1.3352 0.57223-7.0574 0.57223-5.5316-0.19074-5.5316 0.38149-0.3815 1.3352-0.3815 3.2426 0.1908 1.9074 0.3815 5.7223 0.1908 3.8149 0.1908 4.9593 0 0.76297-6.676 1.1444-6.4853 0.38149-6.676-0.38148-0.5723-1.3352-0.3815-7.8205 0.1907-6.4853-0.1908-6.8667-0.5722-0.57223-3.6241-0.38149-2.8611 0-5.7223 0.19074-2.8611 0.19075-4.7685-0.19074-0.763-0.19074-0.763-6.8667t0.9537-7.0575q1.3352-0.38148 7.439 0 6.1037 0.19075 6.1037-0.38148 0.3815-0.38149 0.3815-2.8612 0-2.6704-0.1907-5.15-0.1908-2.6704 0.1907-4.5778 0.1908-0.76297 6.8668-0.76297t7.0575 0.95371q0.3814 1.1445 0.1907 4.3871t-0.3815 5.3408q0 2.0982 0.3815 3.0519 0.3815 0.38149 2.2889 0.38149 2.0982 0 4.9593-0.19074 3.0519-0.19075 4.1964-0.19075 0.7629 0 1.1444 6.4853t-0.3815 6.8667z" fill="#fff" style="paint-order:stroke fill markers"/>
  <path d="m1304.1 661.66q0 11.063-2.0982 11.063h-54.171q-2.6704 0-2.6704-10.872 0-11.635 3.0518-11.635h7.439q2.8612 0 3.4334-0.38149 0.9537-0.57223 0.9537-5.7223v-69.621q0-4.5778-0.763-4.5778-0.9537 0-2.2889 0.76297t-3.2426 2.2889q-1.7167 1.5259-2.0982 1.7167-0.1907 0.19074-0.763 0.76297-0.3814 0.38148-0.7629 0.76297-0.3815 0.19074-0.9537 0.76297-0.5723 0.38149-0.9538 0.57223-0.3814 0-0.7629 0.19074-0.3815 0-0.5723-0.38148-0.1907-0.38149-0.3814-0.95372-1.7167-11.254-0.3815-18.121 0.1907-1.7167 7.6297-7.8205 1.5259-1.3352 3.2426-5.3408 1.9074-4.1963 2.6704-4.3871 4.7686-1.5259 26.895-1.5259 2.0981 0 2.0981 5.7223v99.186q0 4.3871 0.5723 5.15 0.7629 0.95372 3.2426 0.95372h9.9186q1.7167 0 1.7167 11.445z" fill="#fff" style="paint-order:stroke fill markers"/>
 </g>
</svg>
