<svg width="1317.9" height="800" version="1.1" viewBox="0 0 1317.9 800" xml:space="preserve" xmlns="http://www.w3.org/2000/svg" xmlns:xlink="http://www.w3.org/1999/xlink"><defs><linearGradient id="c"><stop stop-color="#fff" stop-opacity=".9797" offset="0"/><stop stop-color="#fff9ea" stop-opacity=".51292" offset=".29405"/><stop stop-color="#fdf6e2" stop-opacity=".28413" offset=".42782"/><stop stop-color="#feedd3" stop-opacity=".27491" offset=".44024"/><stop stop-color="#feeed5" stop-opacity=".10701" offset=".59954"/><stop stop-color="#fffffe" stop-opacity="0" offset=".68763"/><stop stop-color="#fff" stop-opacity="0" offset="1"/></linearGradient><linearGradient id="b"><stop stop-color="#f6a121" offset="0"/><stop stop-color="#f29620" offset=".18396"/><stop stop-color="#ef8b20" offset=".40016"/><stop stop-color="#e9821d" offset=".53659"/><stop stop-color="#e37a1b" offset=".64888"/><stop stop-color="#cf6715" offset=".86187"/><stop stop-color="#c96114" offset="1"/></linearGradient><linearGradient id="a"><stop stop-color="#9d9d9c" offset="0"/><stop stop-color="#b8b7b7" offset=".10132"/><stop stop-color="#ccc" offset=".19954"/><stop stop-color="#cfcfcf" offset=".20881"/><stop stop-color="#d0d0d0" offset=".21608"/><stop stop-color="#d3d3d3" offset=".23562"/><stop stop-color="#d6d6d6" offset=".26919"/><stop stop-color="#d7d7d7" offset=".31004"/><stop stop-color="#ddd" offset=".50915"/><stop stop-color="#f1f1f1" offset="1"/></linearGradient><linearGradient id="d" x1="240.62" x2="198.35" y1="11.085" y2="36.218" gradientTransform="matrix(4.0392 0 0 4.0392 -.041685 -27.529)" gradientUnits="userSpaceOnUse" xlink:href="#a"/><linearGradient id="e" x1="270.78" x2="229.43" y1="36.126" y2="14.995" gradientTransform="matrix(4.0392 0 0 4.0392 -.041685 -27.529)" gradientUnits="userSpaceOnUse" xlink:href="#b"/><linearGradient id="g" x1="240.62" x2="198.35" y1="11.085" y2="36.218" gradientTransform="matrix(-7.3085 0 0 -7.3219 1992.6 849.9)" gradientUnits="userSpaceOnUse" xlink:href="#a"/><linearGradient id="h" x1="270.78" x2="229.43" y1="36.126" y2="14.995" gradientTransform="matrix(-7.3085 0 0 -7.3219 1992.6 849.9)" gradientUnits="userSpaceOnUse" xlink:href="#b"/><radialGradient id="f" cx="262.89" cy="79.2" r="19.174" gradientTransform="matrix(-1.2355 -18.066 14.487 -1.0508 314.93 5286.4)" gradientUnits="userSpaceOnUse" xlink:href="#c"/><radialGradient id="i" cx="262.98" cy="79.231" r="19.174" gradientTransform="matrix(1.8116 32.183 -26.233 1.5901 1535.9 -8609.1)" gradientUnits="userSpaceOnUse" xlink:href="#c"/></defs><path d="m998.03 93.455v-84.054l-43.003-8.5409h-91.922c-16.787 0-43.516 3.9219-64.401 27.639-21.069 26.747-19.849 44.022-19.849 64.956z" fill="url(#d)" stroke-width="1.0667"/><path d="m1044.2 441.43c30.981 0 56.446-26.467 56.535-57.324l0.8141-283.13c0.073-25.449-5.2787-41.723-13.842-55.648-24.749-40.245-68.603-45.33-108.41-45.33l-32.643 0.48132c11.472 4.2355 33.453 13.935 41.397 36.081 3.6549 10.189 5.6882 24.141 5.2687 43.986l-6.2574 305.55c-0.4929 24.068 20.79 55.34 57.135 55.34z" fill="url(#e)" stroke-width="1.0667"/><path d="m1044.2 441.43c30.981 0 56.446-26.467 56.535-57.324l0.8141-283.13c0.073-25.449-5.2787-41.723-13.842-55.648-24.749-40.245-68.603-45.33-108.41-45.33l-32.643 0.48132c11.472 4.2355 33.453 13.935 41.397 36.081 3.6549 10.189 5.6882 24.141 5.2687 43.986l-6.2574 305.55c-0.4929 24.068 20.79 55.34 57.135 55.34z" fill="url(#f)" stroke-width="1.0667"/><path d="m186.71 630.59v152.36l77.81 15.482h166.32c30.374 0 78.739-7.1093 116.53-50.101 38.123-48.485 35.914-79.799 35.914-117.75z" fill="url(#g)" stroke-width="1.0667"/><path d="m102.91 0.23484c-56.058 0-101.99 47.55-102.08 103.48l-0.83147 515.69c0 28.339 2.7967 48.528 9.9246 67.701 7.5549 20.076 14.286 32.472 31.439 53.897 12.46 14.343 26.487 25.246 46.937 35.783 35.679 18.068 86.947 23.206 132.36 23.206 22.127-0.0406 43.61-0.12162 58.673-1.4868-12.12-3.9223-29.099-10.244-47.312-25.527-8.8928-7.462-21.606-22.721-27.414-38.942-6.6131-18.469-10.292-44.082-9.533-80.055l11.856-553.88c0.93391-43.628-38.259-99.888-104.02-99.888z" fill="url(#h)" stroke-width="1.0667"/><path d="m102.91 0.23484c-56.058 0-101.99 47.55-102.08 103.48l-0.83147 515.69c0 28.339 2.7967 48.528 9.9246 67.701 7.5549 20.076 14.286 32.472 31.439 53.897 12.46 14.343 26.487 25.246 46.937 35.783 35.679 18.068 86.947 23.206 132.36 23.206 22.127-0.0406 43.61-0.12162 58.673-1.4868-12.12-3.9223-29.099-10.244-47.312-25.527-8.8928-7.462-21.606-22.721-27.414-38.942-6.6131-18.469-10.292-44.082-9.533-80.055l11.856-553.88c0.93391-43.628-38.259-99.888-104.02-99.888z" fill="url(#i)" stroke-width="1.0667"/><g fill="#14022f" stroke-width="1.0667"><path d="m600.88 175.37c-11.298 0-21.643 1.7602-31.033 5.2812-9.244 3.3856-17.314 8.1934-24.21 14.423-6.7495 6.0941-12.031 13.408-15.846 21.94-3.6682 8.3963-5.3958 17.537-5.3958 27.423 0 10.021 1.8339 19.231 5.5021 27.627 3.815 8.3963 9.0963 15.708 15.846 21.938 6.8962 6.0941 14.86 10.902 24.104 14.423 9.3907 3.3856 19.735 5.0792 31.033 5.0792 9.6841 0 18.635-1.2874 26.852-3.8604 8.3636-2.573 15.773-6.1623 22.229-10.767 6.4561-4.7398 11.886-10.36 16.288-16.86 4.5486-6.5003 7.7038-13.677 9.4646-21.531h-0.31875c5e-3 -0.0218 0.0118-0.0428 0.0167-0.0646h-37.488c-2.9228 6.879-7.5988 12.341-14.029 16.388-6.2842 4.0465-13.956 6.0708-23.017 6.0708-6.1381 0-11.692-0.945-16.66-2.8333-4.9689-1.8884-9.2071-4.5175-12.715-7.8896-3.5074-3.507-6.2126-7.6207-8.1125-12.342-1.8999-4.7209-2.8479-9.8469-2.8479-15.377 0-5.5302 0.94804-10.656 2.8479-15.377 1.8999-4.7209 4.6051-8.7675 8.1125-12.14 3.5074-3.507 7.7457-6.2054 12.715-8.0938 4.9689-1.8884 10.522-2.8313 16.66-2.8313 9.0609 0 16.732 2.0223 23.017 6.0688 6.4303 4.0465 11.106 9.5105 14.029 16.39h37.488c-5e-3 -0.0218-0.0118-0.0428-0.0167-0.0646h0.31875c-1.7608-7.8546-4.916-15.033-9.4646-21.533-4.4019-6.5003-9.8314-12.052-16.288-16.656-6.4561-4.7398-13.866-8.3957-22.229-10.969-8.2168-2.5731-17.168-3.8604-26.852-3.8604zm-165.61 0c-11.291 0-21.628 1.7602-31.012 5.2812-9.2378 3.3856-17.302 8.1934-24.194 14.423-6.745 6.0941-12.023 13.408-15.835 21.94-3.6658 8.3963-5.5 17.537-5.5 27.423 0 10.021 1.8342 19.231 5.5 27.627 3.8124 8.3963 9.0904 15.708 15.835 21.938 6.8917 6.0941 14.956 10.902 24.194 14.423 9.3844 3.3856 19.722 5.0792 31.012 5.0792 11.144 0 21.409-1.6936 30.794-5.0792 9.3844-3.521 17.449-8.3288 24.194-14.423 6.8917-6.2295 12.17-13.541 15.835-21.938 3.8124-8.3963 5.7188-17.606 5.7188-27.627 0-9.886-1.9063-19.027-5.7188-27.423-3.6658-8.5317-8.9437-15.846-15.835-21.94-6.7451-6.2295-14.809-11.037-24.194-14.423-9.3844-3.521-19.65-5.2812-30.794-5.2812zm0 30.662c6.1278 0 11.673 0.94477 16.633 2.8312 4.9606 1.8865 9.1922 4.5798 12.694 8.0833 3.5016 3.3687 6.1991 7.4109 8.0958 12.127 1.8966 4.7162 2.8458 9.8378 2.8458 15.363 0 5.5247-0.9492 10.644-2.8458 15.36-1.8967 4.7162-4.5942 8.8278-8.0958 12.331-3.5016 3.3687-7.7331 5.9948-12.694 7.8813-4.9606 1.8864-10.506 2.8312-16.633 2.8312-6.1277 0-11.671-0.9448-16.631-2.8312-4.9606-1.8865-9.1921-4.5126-12.694-7.8813-3.5016-3.5035-6.2012-7.6151-8.0979-12.331-1.8967-4.7162-2.8458-9.8357-2.8458-15.36 0-5.5247 0.94914-10.646 2.8458-15.363 1.8967-4.7162 4.5964-8.7584 8.0979-12.127 3.5016-3.5035 7.7331-6.1968 12.694-8.0833 4.9606-1.8865 10.504-2.8312 16.631-2.8312zm-185.43 104.94v-132.92h35.669v102.25h67.765v30.676zm532.02 7.7e-4v-37.851h-56.217v37.851h-34.751v-77.217c0-18.128 5.3436-32.332 16.031-42.613 10.834-10.417 26.498-15.625 46.994-15.625 20.642 0 36.488 5.2083 47.321 15.625 10.834 10.281 16.304 24.486 16.304 42.613v77.217zm0-77.217c0-9.1991-2.3223-16.098-6.8607-20.698-4.392-4.7348-11.492-7.1022-21.301-7.1022-9.6624 0-16.656 2.3674-21.194 7.1022-4.5384 4.5995-6.861 11.499-6.861 20.698v10.797h56.217zm59.472 77.216v-132.92h35.695v102.27h68.085v30.657zm-347.75 246.86-72.141-194.56h56.171l45.031 137.45h0.64459l45.087-137.45h54.826l-72.094 194.56zm-192.56-0.0437v-149.87h-57.443v-44.647h167.41v44.647h-57.739v149.87z"/><path d="m783.38 680.35c0 15.145-5.2265 26.54-16.96 35.04-9.5718 6.9542-23.875 10.858-41.629 10.858h-65.304v-159.95h54.42c17.6 0 30.295 2.1337 38.941 6.6153 13.586 7.1088 20.806 18.42 20.806 33.719 0 8.1905-2.2386 15.531-6.7157 22.022-4.4771 6.4906-10.035 10.895-16.673 13.213v0.4636c10.344 2.4726 18.449 7.0315 24.316 13.677 5.8666 6.6452 8.7999 14.758 8.7999 24.34zm-46.76-67.938c0-6.9542-2.6245-11.899-7.8736-14.836-3.5508-2.1635-8.895-3.4589-16.46-3.4589h-15.516v36.857h14.589c8.1824 0 14.048-1.1584 17.599-3.4765 5.2491-3.7089 7.6605-8.5956 7.6605-15.086zm8.6758 64.711c0-6.6451-2.4888-11.657-7.8923-15.675-4.014-2.9362-11.08-4.5109-20.343-4.5109h-20.29v40.798h20.61c9.263 0 15.795-1.681 19.809-4.6173 5.4034-3.5544 8.1052-8.886 8.1052-15.995zm132.82-66.274 1.1579 0.69796-2.0842 34.201h-1.621c-3.3965-1.8613-7.8736-2.7919-13.431-2.7919-8.6869 0-12.968 3.2184-17.137 8.8022-3.8596 4.9634-5.7894 13.805-5.7894 24.817v49.672h-37.052v-114.7h37.052l-0.23158 16.286h0.46316c6.1754-12.253 15.059-18.38 27.719-18.38 4.7859 0 8.793 0.46532 10.954 1.396zm32.422-50.758c6.021 0 11.038 1.7837 15.052 5.3511s6.021 8.2206 6.021 13.959c0 5.894-1.9298 10.547-5.7894 13.959-4.014 3.5674-9.1087 5.3511-15.284 5.3511-6.1754 0-11.27-1.7837-15.284-5.3511-3.8596-3.4123-5.7894-8.0654-5.7894-13.959s1.9298-10.547 5.7894-13.959c4.014-3.5674 9.1087-5.3511 15.284-5.3511zm-18.312 51.562h37.052v114.59h-37.052zm149.83 79.084c0 11.457-4.5068 20.747-13.52 27.869-8.5475 6.6576-20.281 9.9864-35.2 9.9864-20.048 0-36.21-5.8835-48.487-17.65l13.987-22.063c4.5068 3.8707 10.179 7.1995 17.017 9.9864 6.9933 2.6321 12.666 3.9481 17.017 3.9481 10.568 0 15.852-3.2514 15.852-9.7542 0-2.7869-2.098-4.8669-6.294-6.8796-2.0203-1.0838-3.8075-1.858-5.3616-2.3224-4.8176-2.0128-7.9258-3.0192-9.3245-3.0192-6.2163-1.5483-11.656-3.6487-16.318-5.6615-13.054-5.7286-19.581-15.395-19.581-29.639 0-10.838 4.1183-19.828 12.355-26.331 8.2366-6.6576 18.649-9.9864 31.237-9.9864 18.027 0 32.713 4.7223 44.058 14.167l-12.122 21.831c-3.419-2.7869-8.0812-5.3416-13.987-7.664-5.5947-2.3224-10.568-3.4836-14.919-3.4836-9.1691 0-13.754 2.7869-13.754 8.3607 0 4.1804 5.5947 7.8962 16.784 11.148 5.2839 1.5483 10.723 3.3288 16.318 5.3416 6.3717 2.3224 11.345 5.1868 14.919 8.593 6.2163 6.1931 9.3244 13.935 9.3244 23.224zm60.238-79.064h25.344v28.045h-25.344v41.393c0 6.8246 0.8715 11.342 3.0418 13.979 1.55 1.8612 4.4952 2.7919 8.8356 2.7919 3.2552 0 6.724-0.32976 9.9792-1.4155l1.3953-0.46531 1.8601 29.082c-9.7658 2.4817-18.602 3.7225-26.507 3.7225-12.401 0-21.808-3.3546-28.008-10.489-5.4255-6.3593-8.0321-17.817-8.0321-33.948v-44.651h-16.276v-28.045h16.276v-31.176h37.435zm141.95 100.96q-17.659 16.053-45.542 16.053t-45.774-16.053q-17.891-16.519-17.891-43.507t17.891-43.507q17.892-16.286 45.774-16.286 27.883 0 45.542 16.286 17.891 16.519 17.891 43.507t-17.891 43.507zm-26.721-65.609q-6.9704-8.3756-18.821-8.3756-11.85 0-19.053 8.3756-6.9708 8.143-6.9708 21.404t6.9708 21.637q7.2028 8.143 19.053 8.143 11.85 0 18.821-8.143 7.2031-8.3756 7.2031-21.637 0-13.261-7.2031-21.404zm63.327-80.562h37.052v159.79h-37.052z"/></g></svg>
