<svg width="1186" height="800" version="1.1" viewBox="0 0 313.8 211.67" xmlns="http://www.w3.org/2000/svg" xmlns:xlink="http://www.w3.org/1999/xlink">
 <defs>
  <linearGradient id="linearGradient947">
   <stop stop-color="#fdd8a2" offset="0"/>
   <stop stop-color="#f9b126" offset=".24522"/>
   <stop stop-color="#f6a321" offset=".45"/>
   <stop stop-color="#f39121" offset=".7"/>
   <stop stop-color="#dd7218" offset="1"/>
  </linearGradient>
  <linearGradient id="linearGradient935">
   <stop stop-color="#999998" offset="0"/>
   <stop stop-color="#999998" offset=".14502"/>
   <stop stop-color="#dedede" offset=".6"/>
   <stop stop-color="#f2f2f2" offset="1"/>
  </linearGradient>
  <radialGradient id="radialGradient949-0-7" cx="-7.6698" cy="272.33" r="170" gradientTransform="matrix(.30048 1.1214 -.73089 .19584 1294.4 53.469)" gradientUnits="userSpaceOnUse" xlink:href="#linearGradient947"/>
  <radialGradient id="radialGradient949-6-4-8" cx="-7.6698" cy="272.33" r="170" gradientTransform="matrix(.36057 1.3457 -.87707 .23501 538.88 -135.09)" gradientUnits="userSpaceOnUse" xlink:href="#linearGradient947"/>
  <linearGradient id="linearGradient1772" x1="231.92" x2="577.27" y1="882.1" y2="682.71" gradientTransform="matrix(.22049 0 0 .22049 1090.6 102.51)" gradientUnits="userSpaceOnUse" xlink:href="#linearGradient935"/>
  <linearGradient id="linearGradient1774" x1="231.92" x2="577.27" y1="882.1" y2="682.71" gradientTransform="matrix(.26458 0 0 .26458 294.31 -76.241)" gradientUnits="userSpaceOnUse" xlink:href="#linearGradient935"/>
 </defs>
 <g transform="translate(-1088.8 -85.333)">
  <g transform="matrix(-.45486 0 0 -.45486 1494.3 156.81)">
   <path d="m355.68 104.23v52.917h75.406c25.572 0 46.302-23.692 46.302-52.917z" fill="url(#linearGradient1774)" stop-color="#000000" stroke-width=".087031" style="paint-order:stroke fill markers"/>
   <path d="m323.93-96.851c-17.535 0-31.75 14.215-31.75 31.75v172.77c0 27.325 22.152 49.477 49.477 49.477h40.481c-14.613 2e-5 -26.458-20.73-26.458-46.302v-175.95c0-17.535-14.215-31.75-31.75-31.75z" fill="url(#radialGradient949-6-4-8)" stop-color="#000000" stroke-width=".19444" style="paint-order:stroke fill markers"/>
  </g>
  <g transform="matrix(4.9811 0 0 4.9811 -3241 -402.28)" fill="#14022f">
   <path d="m884.21 113.27h3.175v1.5875h-4.9742v-7.3766h1.7992z" style="white-space:pre"/>
   <path d="m888.72 108.45q1.0901-1.0689 2.7834-1.0689t2.7834 1.0689q1.0901 1.0689 1.0901 2.7199t-1.0901 2.7305q-1.0901 1.0689-2.7834 1.0689t-2.7834-1.0689q-1.0901-1.0795-1.0901-2.7305t1.0901-2.7199zm4.2439 1.1853q-0.5715-0.60324-1.4605-0.60324t-1.4711 0.60324q-0.5715 0.59267-0.5715 1.524 0 0.94191 0.5715 1.5557 0.58208 0.60325 1.4711 0.60325t1.4605-0.60325q0.58208-0.61383 0.58208-1.5557 0-0.93133-0.58208-1.524z" style="white-space:pre"/>
   <path d="m903.75 111.8q-0.19049 1.4076-1.2488 2.286-1.0478 0.87842-2.5612 0.87842-1.6933 0-2.7834-1.0689-1.0901-1.0795-1.0901-2.7305t1.0901-2.7199 2.7834-1.0689q1.5134 0 2.5612 0.87842 1.0583 0.86783 1.2488 2.2754h-1.8415q-0.15875-0.66674-0.6985-1.0795-0.52916-0.42333-1.27-0.42333-0.89958 0-1.4711 0.60324-0.5715 0.59267-0.5715 1.524 0 0.94191 0.5715 1.5557 0.5715 0.60325 1.4711 0.60325 0.73024 0 1.2594-0.41275 0.53975-0.42333 0.70908-1.1007z" style="white-space:pre"/>
   <path d="m907.69 107.38q1.3229 0 2.1696 0.77258 0.84666 0.77258 0.84666 1.9897v4.7202h-1.7992v-1.8415h-2.413v1.8415h-1.7886v-4.7202q0-1.2171 0.83608-1.9897t2.1484-0.77258zm-1.1959 4.2756h2.413v-1.4182q0-0.53975-0.33867-0.86783-0.33866-0.33866-0.86783-0.33866-0.52916 0-0.86783 0.33866-0.33866 0.32808-0.33866 0.86783z" style="white-space:pre"/>
   <path d="m913.75 113.27h3.175v1.5875h-4.9742v-7.3766h1.7992z" style="white-space:pre"/>
  </g>
  <g transform="matrix(7.0028 0 0 7.0028 -5022.6 -664.11)" fill="#14022f">
   <path d="m887.76 120.87v1.5875h-2.0426v5.7891h-1.7992v-5.7891h-2.0426v-1.5875z" style="white-space:pre"/>
   <path d="m893.56 120.87h1.8732l-2.667 7.3766h-2.0955l-2.667-7.3766h1.8732l1.8415 5.5774z" style="white-space:pre"/>
  </g>
  <path d="m1115.3 85.333c-14.612 0-26.458 11.846-26.458 26.458v143.98c0 22.771 18.46 41.231 41.231 41.231h33.734c-12.177 0-22.049-17.275-22.049-38.585v-146.62c0-14.613-11.846-26.458-26.458-26.458z" fill="url(#radialGradient949-0-7)" stop-color="#000000" stroke-width=".16203" style="paint-order:stroke fill markers"/>
  <path d="m1141.7 252.9v44.097h62.839c21.31 0 38.585-19.744 38.585-44.098z" fill="url(#linearGradient1772)" stop-color="#000000" stroke-width=".072526" style="paint-order:stroke fill markers"/>
  <g transform="translate(154.52)" fill="#14022f">
   <path d="m1134.1 264.02c0-4.2233-2.8321-7.105-7.105-8.1484v-0.0995c2.5837-0.89433 5.0182-3.7761 5.0182-7.5522s-2.0868-6.012-4.3723-7.2044-5.3163-1.4409-8.4465-1.4409h-11.676v34.283h14.011c3.5277 0 6.6081-0.64595 8.7943-2.2359 2.1861-1.59 3.7761-3.8258 3.7761-7.6019zm-9.9867-14.608c0 1.6893-0.6956 2.5837-1.6894 3.2792-0.944 0.6459-1.9874 0.74528-3.7761 0.74528h-3.1301v-7.9h3.3289c1.739 0 2.6333 0.0995 3.5773 0.69557 0.9938 0.59624 1.6894 1.5402 1.6894 3.1799zm1.8383 13.962c0 1.4906-0.5466 2.6333-1.739 3.4283-1.1925 0.84461-2.5339 0.944-4.2729 0.944h-4.422v-8.7446h4.422c1.739 0 3.0804 0.0995 4.2729 0.94404 1.1924 0.84462 1.739 1.888 1.739 3.4283z" style="white-space:pre"/>
   <path d="m1154.5 249.36s-0.8447-0.44714-2.4843-0.44714c-2.6333 0-4.6704 1.2421-6.0617 3.9251h-0.1l0.05-3.478h-7.9496v24.495h7.9496v-10.881c0-2.7327 0.646-4.3226 1.2422-5.1176s1.888-1.7887 3.6767-1.7887c1.3912 0 2.4346 0.34762 2.8818 0.59624h0.3481z" style="white-space:pre"/>
   <path d="m1165.8 242.4c0-2.4346-1.8384-4.1239-4.5214-4.1239s-4.5213 1.6893-4.5213 4.1239c0 2.4843 1.8383 4.1239 4.5213 4.1239s4.5214-1.6396 4.5214-4.1239zm-0.5465 6.956h-7.9497v24.495h7.9497z" style="white-space:pre"/>
   <path d="m1189.3 266.3c0-2.5837-1.1924-4.1736-1.9874-4.9685-0.8447-0.795-2.0868-1.4409-3.1799-1.8384-1.0434-0.39762-1.7887-0.6459-3.478-1.1428s-3.5773-1.0931-3.5773-2.3849 1.0434-1.7887 2.9314-1.7887c1.9875 0 4.7698 1.2918 6.161 2.3849l2.5836-4.6704c-1.3911-1.1428-4.2729-3.0308-9.3905-3.0308-5.1175 0-9.2911 2.9314-9.2911 7.7012 0 4.3723 3.0308 5.9126 4.1736 6.4094 1.1427 0.49686 2.5339 0.89434 3.4779 1.1428 0.8944 0.29809 4.4717 1.093 4.4717 2.683 0 1.5899-1.3912 2.0868-3.3786 2.0868s-5.2667-1.2918-7.254-2.9811l-2.9812 4.7201c2.7823 2.6333 6.6578 3.7761 10.335 3.7761 3.2792 0 5.7138-0.74528 7.5024-2.1365 1.7887-1.4409 2.8818-3.4283 2.8818-5.9622z" style="white-space:pre"/>
   <path d="m1207.6 249.41h-5.4157v-6.6578h-7.9994v6.6578h-3.4779v6.012h3.4779v9.4899c0 3.7264 0.4969 5.7635 1.739 7.2044 1.2422 1.4409 3.1302 2.2855 5.9623 2.2855 2.8818 0 5.0679-0.6459 5.6641-0.79495l-0.3976-6.2107s-1.1428 0.44715-2.3849 0.44715c-1.0434 0-1.5402-0.19858-1.8881-0.59624-0.3976-0.44714-0.6956-0.944-0.6956-3.0308v-8.7943h5.4157z" style="white-space:pre"/>
   <path d="m1236.1 261.68c0-7.9-5.8132-12.769-13.564-12.769s-13.614 4.8692-13.614 12.769c0 7.9 5.8629 12.719 13.614 12.719s13.564-4.8195 13.564-12.719zm-7.9994-0.14905c0 3.627-2.0867 6.3597-5.5647 6.3597-3.5276 0-5.5647-2.7327-5.5647-6.3597s2.0371-6.3597 5.5647-6.3597c3.478 0 5.5647 2.7327 5.5647 6.3597z" style="white-space:pre"/>
   <path d="m1248.1 239.57h-7.9497v34.283h7.9497z" style="white-space:pre"/>
  </g>
 </g>
</svg>
