<svg width="1030.1" height="363.6" version="1.1" viewBox="0 0 1030.1 363.6" xmlns="http://www.w3.org/2000/svg">
 <path d="m149.19 156.12c0-7.5047-5.583-11.985-14.937-11.985h-15.134v23.969h15.134c4.491 0 14.937-1.1683 14.937-11.984zm0 48.846c0-7.5047-5.583-11.985-14.937-11.985h-15.134v23.971h15.134c4.491 0 14.937-1.1701 14.937-11.985zm32.967 1.8124c0 21.646-16.53 36.763-40.2 36.763l-50.642 1e-3v-123.77h47.205c23.948 0 40.039 14.053 40.039 34.968 0 9.8136-4.6021 18.905-11.838 24.412 8.3779 4.9337 15.436 14.362 15.436 27.621zm159.16-24.976c0-88.097-71.419-159.52-159.52-159.52-88.097 0-159.52 71.419-159.52 159.52 0 88.097 71.421 159.52 159.52 159.52 88.097 0 159.52-71.419 159.52-159.52zm22.287 0c0 100.41-81.396 181.8-181.8 181.8s-181.8-81.394-181.8-181.8c0-100.41 81.396-181.8 181.8-181.8s181.8 81.394 181.8 181.8zm-172-62.025h86.833v28.736h-28.958v95.03h-30.067v-95.03h-27.807z" fill="#fff"/>
 <path d="m435.06 246.3c-5.8486 0-11.784-0.51906-17.806-1.545-6.0204-1.0347-12.015-2.6352-17.975-4.8174v-26.323c12.843 4.7063 23.91 7.0551 33.201 7.0551 5.6177 0 9.8066-0.80377 12.556-2.4113 2.7516-1.6023 4.1282-4.3574 4.1282-8.2581 0-1.7186-0.34199-3.2654-1.0312-4.6421-0.68746-1.3766-1.8072-2.7186-3.3557-4.0414-1.5485-1.3211-3.6109-2.67-6.1906-4.0397-2.5832-1.3784-5.7652-2.9304-9.5497-4.6508-4.8174-2.2915-9.1175-4.6125-12.902-6.9613-3.7827-2.3488-6.9683-4.965-9.548-7.8311s-4.5292-6.1315-5.8486-9.8014c-1.3211-3.6716-1.9773-7.9717-1.9773-12.907 0-5.8503 1.1735-11.039 3.5258-15.57 2.3505-4.5292 5.5899-8.312 9.7181-11.353 4.1299-3.0345 8.9178-5.3555 14.369-6.9631 5.4424-1.6075 11.265-2.4113 17.461-2.4113 6.1906 0 11.784 0.46177 16.771 1.3766 4.9892 0.92355 9.7164 2.2932 14.194 4.1317v26.833c-5.1646-2.0624-9.9542-3.6352-14.365-4.7341-4.4181-1.0833-9.147-1.6284-14.192-1.6284-10.322 0-15.487 2.9217-15.487 8.7737 0 1.2586 0.17534 2.4061 0.51732 3.439 0.3472 1.0294 1.0607 2.0919 2.1509 3.1821s2.6387 2.2655 4.6455 3.5241c2.0068 1.2656 4.7289 2.6977 8.1731 4.307 6.1906 2.8661 11.492 5.6489 15.912 8.3397 4.4112 2.6995 8.0255 5.5378 10.838 8.5151 2.8088 2.9859 4.9042 6.2513 6.2774 9.8032 1.3766 3.5588 2.0658 7.6332 2.0658 12.213 0 13.312-4.1299 23.198-12.386 29.679-8.2581 6.4805-19.554 9.7181-33.89 9.7181" fill="#fff"/>
 <path d="m526.25 145.16v33.543h4.9892c5.7323 0 10.093-1.3489 13.074-4.0414 2.9807-2.6908 4.4754-7.194 4.4754-13.506 0-6.194-1.637-10.404-4.9059-12.64-3.2671-2.2377-7.3693-3.3557-12.301-3.3557zm52.295 15.478c0 13.423-3.8678 23.946-11.61 31.573-7.7408 7.628-19.469 11.437-35.178 11.437h-5.5066v40.6h-30.791v-124.03h38.19c7.2252 0 13.615 0.94438 19.181 2.8384 5.5604 1.8957 10.234 4.5865 14.02 8.0898 3.7862 3.4963 6.6801 7.7391 8.6869 12.723 2.0068 4.9927 3.0085 10.586 3.0085 16.773z" fill="#fff"/>
 <path d="m655.85 182.31c0-4.1317-0.17012-8.4022-0.51559-12.813-0.34373-4.4198-1.0902-8.4317-2.2377-12.048-1.1475-3.6074-2.8939-6.5638-5.2444-8.8571-2.3505-2.2932-5.4805-3.439-9.3778-3.439-3.7827 0-6.8242 1.0902-9.1157 3.2637-2.295 2.1822-4.1022 5.0205-5.418 8.5151-1.3228 3.5032-2.2117 7.4891-2.6682 11.963-0.4583 4.4685-0.68919 8.9421-0.68919 13.416 0 4.1265 0.17534 8.4317 0.51733 12.9 0.34198 4.4737 1.1475 8.5498 2.4096 12.214 1.2603 3.6699 3.038 6.7096 5.3347 9.1157 2.288 2.4113 5.4423 3.6143 9.4577 3.6143 3.7862 0 6.8242-1.1197 9.1175-3.3557 2.2915-2.2377 4.0726-5.1611 5.333-8.7754 1.2638-3.6074 2.0901-7.6748 2.4981-12.213 0.39754-4.5223 0.59892-9.0254 0.59892-13.501zm31.309-0.34199c0 7.1089-0.77426 14.45-2.321 22.016-1.5485 7.5724-4.1872 14.478-7.9144 20.73-3.7254 6.2496-8.746 11.381-15.053 15.395-6.3069 4.0188-14.164 6.0274-23.568 6.0274-9.8657 0-17.95-1.8106-24.257-5.4198-6.3034-3.6144-11.296-8.4022-14.964-14.367-3.6699-5.9632-6.2218-12.758-7.6558-20.386-1.4357-7.6297-2.1492-15.45-2.1492-23.485 0-4.5796 0.31596-9.3761 0.94438-14.36 0.62844-4.991 1.6909-9.8362 3.1838-14.536 1.4895-4.7046 3.4685-9.1452 5.9371-13.332 2.4634-4.1872 5.5292-7.8866 9.2025-11.095 3.6682-3.2168 7.9665-5.7392 12.898-7.5724 4.9337-1.8315 10.609-2.7533 17.032-2.7533 9.4039 0 17.261 1.8106 23.571 5.418 6.3034 3.6144 11.294 8.3744 14.964 14.284 3.6699 5.9059 6.2791 12.64 7.8276 20.21 1.5468 7.5655 2.321 15.311 2.321 23.226z" fill="#fff"/>
 <path d="m732.76 145.16v30.788h4.9875c5.734 0 10.093-1.2864 13.076-3.866 2.9807-2.578 4.4737-6.3972 4.4737-11.444 0-5.734-1.637-9.7459-4.9059-12.039-3.2672-2.2932-7.3676-3.439-12.3-3.439zm52.295 14.619c0 7.9127-1.7204 14.737-5.1594 20.476-3.4408 5.7322-8.6019 10.145-15.482 13.242l30.274 50.75h-33.029l-23.74-44.037h-5.1594v44.037h-30.793v-124.03h38.19c14.45 0 25.547 3.4685 33.286 10.411 7.7426 6.9353 11.612 16.66 11.612 29.154z" fill="#fff"/>
 <path d="m795.64 120.21h87.734v24.603h-28.385v99.431h-30.965v-99.431h-28.384v-24.603" fill="#fff"/>
 <path d="m1030.1 134.26v-14.122h-75.579v18.579h53.799l-37.741 105.55h19.8z" fill="#fff"/>
</svg>
