<svg width="1215.6" height="355.5" version="1.1" viewBox="0 0 1215.6 355.5" xmlns="http://www.w3.org/2000/svg">
 <path d="m145.86 152.64c0-7.3357-5.4602-11.716-14.604-11.716h-14.797v23.435h14.797c4.3909 0 14.604-1.1423 14.604-11.718zm0 47.757c0-7.3357-5.4602-11.716-14.604-11.716h-14.797v23.436h14.797c4.3909 0 14.604-1.144 14.604-11.72zm32.232 1.772c0 21.167-16.162 35.947-39.306 35.947h-49.512v-121.01h46.153c23.414 0 39.147 13.738 39.147 34.187 0 9.5948-4.4995 18.484-11.574 23.867 8.1912 4.8237 15.092 14.042 15.092 27.004zm155.62-24.417c0-86.133-69.827-155.96-155.96-155.96s-155.96 69.827-155.96 155.96 69.827 155.96 155.96 155.96 155.96-69.827 155.96-155.96zm21.79 0c0 98.168-79.581 177.75-177.75 177.75s-177.75-79.58-177.75-177.75 79.581-177.75 177.75-177.75c98.168 0 177.75 79.58 177.75 177.75zm-168.16-60.641h84.896v28.094h-28.309v92.912h-29.399v-92.912h-27.187z"/>
 <path d="m425.36 240.81c-5.7182 0-11.521-0.50581-17.409-1.5106-5.8862-1.0116-11.747-2.5765-17.574-4.71v-25.736c12.557 4.6014 23.377 6.8978 32.461 6.8978 5.4925 0 9.5864-0.78585 12.277-2.3576 2.6902-1.5666 4.0362-4.2585 4.0362-8.0741 0-1.6803-0.33437-3.1909-1.0082-4.5386-0.67214-1.346-1.7669-2.658-3.2809-3.9513-1.514-1.2916-3.5304-2.6104-6.0526-3.9496-2.5256-1.3476-5.6367-2.865-9.3368-4.5454-4.71-2.2421-8.9142-4.5114-12.616-6.8096-3.6967-2.2964-6.8113-4.8526-9.3335-7.6548s-4.43-5.9949-5.7182-9.583c-1.2916-3.5898-1.9332-7.7923-1.9332-12.619 0-5.7216 1.1474-10.793 3.4472-15.221 2.2981-4.43 5.4653-8.1284 9.5015-11.102 4.0362-2.9669 8.719-5.2362 14.047-6.8079 5.3227-1.5717 11.015-2.3576 17.071-2.3576 6.0543 0 11.521 0.45148 16.399 1.346 4.8763 0.90297 9.5015 2.2421 13.875 4.0396v26.235c-5.0478-2.0164-9.7306-3.5542-14.043-4.6285-4.3196-1.0591-8.9448-1.5921-13.875-1.5921-10.092 0-15.142 2.8566-15.142 8.5782 0 1.2305 0.17142 2.3525 0.50579 3.3641 0.33946 1.0048 1.037 2.0435 2.103 3.1094 1.0659 1.0659 2.5799 2.215 4.542 3.4455 1.9621 1.2373 4.6234 2.6376 7.9909 4.211 6.0526 2.8023 11.238 5.523 15.557 8.1538 4.3128 2.6393 7.8466 5.4144 10.595 8.3252 2.7479 2.9194 4.7949 6.112 6.1391 9.5847 1.346 3.4795 2.0198 7.463 2.0198 11.941 0 13.015-4.0362 22.681-12.11 29.017-8.0758 6.336-19.118 9.5015-33.135 9.5015"/>
 <path d="m514.52 141.92v32.797h4.8764c5.6045 0 9.8664-1.3188 12.782-3.9513 2.916-2.6308 4.3739-7.0336 4.3739-13.205 0-6.056-1.5988-10.172-4.7949-12.36-3.1943-2.1861-7.2033-3.2809-12.027-3.2809zm51.129 15.135c0 13.124-3.785 23.411-11.355 30.869-7.5666 7.4579-19.034 11.184-34.392 11.184h-5.3821v39.693h-30.107v-121.27h37.337c7.0659 0 13.314 0.92333 18.753 2.7751 5.4382 1.8534 10.007 4.4843 13.709 7.9094 3.7018 3.4167 6.5312 7.5666 8.4933 12.44 1.9621 4.8814 2.9431 10.35 2.9431 16.399z"/>
 <path d="m641.23 178.25c0-4.0396-0.16804-8.215-0.50579-12.529-0.33607-4.3196-1.0676-8.2438-2.1878-11.778-1.1202-3.527-2.8294-6.4175-5.1258-8.6596-2.3016-2.2422-5.3601-3.3641-9.1705-3.3641-3.6984 0-6.6721 1.0676-8.9142 3.1926-2.2421 2.1335-4.009 4.9086-5.2973 8.3253-1.2916 3.4251-2.159 7.3222-2.607 11.696-0.44809 4.3672-0.67383 8.7428-0.67383 13.117 0 4.0328 0.17143 8.2438 0.50579 12.613 0.33607 4.3739 1.1219 8.3592 2.3559 11.941 1.2339 3.5898 2.9686 6.5618 5.2141 8.9142 2.2387 2.3575 5.3227 3.5338 9.2486 3.5338 3.7018 0 6.6721-1.0931 8.9142-3.2809s3.9819-5.0444 5.2158-8.5782c1.2339-3.527 2.0435-7.5055 2.439-11.942 0.39038-4.4232 0.58897-8.8243 0.58897-13.2zm30.609-0.33437c0 6.9521-0.7553 14.128-2.2693 21.525-1.514 7.4019-4.0956 14.156-7.738 20.267-3.6441 6.1103-8.551 11.128-14.717 15.052-6.1646 3.9292-13.848 5.8913-23.043 5.8913-9.6441 0-17.55-1.7703-23.715-5.2973-6.1663-3.5338-11.046-8.2166-14.632-14.047-3.5881-5.8302-6.0831-12.475-7.4851-19.931-1.4037-7.4579-2.1012-15.108-2.1012-22.961 0-4.4775 0.30719-9.1671 0.92333-14.04 0.61442-4.8814 1.6532-9.6169 3.1128-14.212 1.4563-4.5997 3.3912-8.9397 5.8031-13.035 2.4102-4.0939 5.4076-7.7092 8.9991-10.847 3.5864-3.1451 7.7889-5.6113 12.613-7.4036 4.822-1.7907 10.372-2.6919 16.651-2.6919 9.1943 0 16.876 1.7703 23.046 5.2973 6.1612 3.5338 11.043 8.1895 14.631 13.965 3.5898 5.7759 6.1391 12.358 7.6531 19.76 1.514 7.3968 2.2693 14.97 2.2693 22.708z"/>
 <path d="m716.43 141.92v30.105h4.8764c5.6062 0 9.8681-1.2594 12.782-3.7816 2.916-2.5222 4.3756-6.2546 4.3756-11.189 0-5.6062-1.5989-9.5286-4.7949-11.771-3.196-2.2422-7.205-3.3641-12.027-3.3641zm51.13 14.293c0 7.738-1.682 14.41-5.0444 20.021-3.3641 5.6062-8.4118 9.919-15.138 12.947l29.603 49.619h-32.295l-23.211-43.057h-5.0444v43.057h-30.107v-121.27h37.339c14.128 0 24.976 3.3912 32.544 10.179 7.57 6.7807 11.353 16.289 11.353 28.503z"/>
 <path d="m777.91 117.53h85.778v24.054h-27.753v97.215h-30.273v-97.215h-27.753v-24.054"/>
 <path d="m953.75 238.95c-8.845 0-17.077-1.3859-24.706-4.1528v-19.269c5.0474 2.1057 9.3797 3.5452 13.002 4.3185 3.6222 0.77667 7.4082 1.165 11.358 1.165 7.0239 0 12.292-1.8328 15.804-5.5053 3.5119-3.6657 5.2679-9.335 5.2679-17.008 0-6.6686-1.9197-11.754-5.7574-15.259-3.8394-3.5-9.3746-5.2525-16.614-5.2525-2.852 0-5.8677 0.16738-9.0455 0.49879-3.1811 0.33309-6.526 0.77666-10.035 1.329v-62.458h58.03v17.94h-36.809v24.751h4.2788c12.173 0 21.551 3.2389 28.132 9.7166 6.5795 6.4778 9.8708 15.588 9.8708 27.324 0 13.401-3.6222 23.728-10.86 30.981-7.2411 7.2544-17.882 10.88-31.918 10.88"/>
 <path d="m1200.4 178.28c0-5.7268-0.4786-11.424-1.4308-17.097-0.9556-5.6689-2.641-10.78-5.0529-15.328-2.417-4.547-5.6724-8.2234-9.7697-11.032-4.1007-2.8039-9.2384-4.211-15.412-4.211h-19.203v95.505h18.022c6.7383 0 12.239-1.5156 16.508-4.5487 4.2671-3.0314 7.6057-6.9047 10.023-11.621 2.4136-4.7168 4.0685-9.8799 4.968-15.496 0.8979-5.6146 1.3477-11.005 1.3477-16.17zm15.159 0c0 8.6477-0.9844 16.676-2.9465 24.086-1.9655 7.4122-4.9969 13.813-9.0959 19.202-4.0989 5.3906-9.3776 9.6304-15.832 12.718-6.46 3.0907-14.179 4.632-23.162 4.632h-29.645v-121.44h27.961c9.3182 0 17.29 1.4054 23.918 4.211 6.6245 2.8074 12.07 6.8504 16.338 12.127 4.2653 5.2803 7.4122 11.681 9.4319 19.201 2.0215 7.5242 3.0314 15.946 3.0314 25.266z" stroke-width="1.2205"/>
 <path d="m1111.5 238.92h-14.653v-55.415h-48.006v55.415h-14.653v-121.44h14.653v52.89h48.006v-52.89h14.653v121.44" stroke-width="1.2205"/>
</svg>
