<svg width="1221.1" height="354.13" version="1.1" viewBox="0 0 1221.1 354.13" xmlns="http://www.w3.org/2000/svg">
 <path d="m145.3 152.05c0-7.3074-5.4392-11.671-14.547-11.671h-14.74v23.344h14.74c4.374 0 14.547-1.1379 14.547-11.673zm0 47.573c0-7.3074-5.4392-11.671-14.547-11.671h-14.74v23.346h14.74c4.374 0 14.547-1.1396 14.547-11.675zm32.107 1.7651c0 21.085-16.099 35.808-39.154 35.808h-49.321v-120.54h45.975c23.324 0 38.996 13.685 38.996 34.055 0 9.5578-4.4822 18.412-11.529 23.775 8.1596 4.8051 15.034 13.988 15.034 26.9zm155.01-24.323c0-85.801-69.558-155.36-155.36-155.36s-155.36 69.558-155.36 155.36c0 85.801 69.558 155.36 155.36 155.36s155.36-69.558 155.36-155.36zm21.706 0c0 97.79-79.274 177.06-177.06 177.06-97.79 0-177.06-79.273-177.06-177.06 0-97.791 79.274-177.06 177.06-177.06 97.79 0 177.06 79.273 177.06 177.06zm-167.51-60.407h84.568v27.985h-28.2v92.554h-29.286v-92.554h-27.082z"/>
 <path d="m423.72 239.89c-5.6962 0-11.477-0.50386-17.342-1.5048-5.8635-1.0077-11.702-2.5666-17.506-4.6918v-25.637c12.508 4.5836 23.287 6.8712 32.336 6.8712 5.4713 0 9.5494-0.78282 12.229-2.3485 2.6798-1.5606 4.0206-4.2421 4.0206-8.0429 0-1.6738-0.33308-3.1786-1.0043-4.5211-0.66955-1.3408-1.7601-2.6477-3.2682-3.9361-1.5082-1.2867-3.5168-2.6004-6.0292-3.9344-2.5158-1.3425-5.615-2.854-9.3008-4.5278-4.6918-2.2335-8.8798-4.494-12.567-6.7833-3.6825-2.2876-6.785-4.8338-9.2975-7.6253-2.5124-2.7914-4.4129-5.9717-5.6961-9.546-1.2867-3.5759-1.9258-7.7622-1.9258-12.571 0-5.6995 1.1429-10.752 3.4339-15.163 2.2893-4.4129 5.4442-8.097 9.4648-11.059 4.0206-2.9554 8.6854-5.216 13.993-6.7816 5.3022-1.5656 10.973-2.3485 17.006-2.3485 6.0309 0 11.477 0.44974 16.336 1.3408 4.8575 0.89948 9.4648 2.2335 13.822 4.024v26.134c-5.0283-2.0086-9.6931-3.5404-13.989-4.6107-4.303-1.055-8.9103-1.5859-13.822-1.5859-10.053 0-15.083 2.8456-15.083 8.5451 0 1.2258 0.17076 2.3434 0.50384 3.3511 0.33815 1.0009 1.033 2.0357 2.0948 3.0975s2.57 2.2064 4.5244 3.4322c1.9545 1.2326 4.6056 2.6274 7.9601 4.1947 6.0292 2.7914 11.194 5.5017 15.497 8.1224 4.2962 2.6291 7.8164 5.3935 10.554 8.2931 2.7373 2.9081 4.7764 6.0884 6.1154 9.5477 1.3408 3.466 2.012 7.4342 2.012 11.894 0 12.965-4.0206 22.594-12.064 28.905-8.0446 6.3116-19.045 9.4648-33.007 9.4648"/>
 <path d="m512.54 141.37v32.67h4.8575c5.5829 0 9.8283-1.3137 12.733-3.9361 2.9047-2.6207 4.3571-7.0065 4.3571-13.154 0-6.0326-1.5927-10.133-4.7764-12.312-3.182-2.1777-7.1755-3.2682-11.981-3.2682zm50.932 15.076c0 13.073-3.7704 23.321-11.311 30.75-7.5374 7.4292-18.96 11.14-34.26 11.14h-5.3614v39.54h-29.991v-120.8h37.193c7.0386 0 13.262 0.91976 18.681 2.7644 5.4172 1.8463 9.9687 4.467 13.656 7.8789 3.6875 3.4035 6.506 7.5374 8.4605 12.392 1.9545 4.8626 2.9318 10.31 2.9318 16.336z"/>
 <path d="m638.76 177.56c0-4.024-0.16739-8.1832-0.50384-12.481-0.33478-4.303-1.0635-8.212-2.1794-11.732-1.1159-3.5134-2.8185-6.3927-5.1061-8.6262-2.2927-2.2335-5.3394-3.3511-9.1352-3.3511-3.6841 0-6.6464 1.0635-8.8798 3.1803-2.2335 2.1253-3.9936 4.8897-5.2768 8.2931-1.2866 3.4119-2.1506 7.2939-2.597 11.651-0.44636 4.3503-0.67123 8.7091-0.67123 13.066 0 4.0172 0.17077 8.212 0.50384 12.564 0.33477 4.3571 1.1176 8.327 2.3468 11.894 1.2292 3.5759 2.9571 6.5364 5.194 8.8798 2.2301 2.3484 5.3022 3.5202 9.2129 3.5202 3.6875 0 6.6464-1.0888 8.8798-3.2682 2.2335-2.1794 3.9665-5.0249 5.1957-8.5451 1.2292-3.5134 2.0357-7.4765 2.4296-11.896 0.38888-4.4061 0.58671-8.7902 0.58671-13.149zm30.491-0.33308c0 6.9253-0.75238 14.074-2.2605 21.442-1.5082 7.3734-4.0798 14.101-7.7082 20.189-3.63 6.0867-8.518 11.085-14.661 14.994-6.1408 3.9141-13.795 5.8686-22.954 5.8686-9.6068 0-17.482-1.7634-23.623-5.2768-6.1425-3.5201-11.003-8.1849-14.576-13.993-3.5743-5.8077-6.0597-12.427-7.4562-19.855-1.3983-7.4292-2.0931-15.049-2.0931-22.873 0-4.4602 0.30601-9.1318 0.91976-13.986 0.61205-4.8626 1.6468-9.5798 3.1008-14.157 1.4507-4.5819 3.3781-8.9052 5.7807-12.985 2.4009-4.0781 5.3868-7.6794 8.9644-10.806 3.5726-3.133 7.7589-5.5896 12.564-7.3751 4.8034-1.7838 10.332-2.6815 16.586-2.6815 9.1588 0 16.811 1.7635 22.957 5.2768 6.1374 3.5201 11 8.1579 14.574 13.912 3.576 5.7536 6.1154 12.31 7.6236 19.684 1.5082 7.3683 2.2605 14.912 2.2605 22.621z"/>
 <path d="m713.66 141.37v29.989h4.8575c5.5846 0 9.83-1.2545 12.733-3.767 2.9047-2.5125 4.3588-6.2304 4.3588-11.145 0-5.5846-1.5927-9.4919-4.7764-11.725-3.1837-2.2335-7.1772-3.3511-11.981-3.3511zm50.932 14.238c0 7.7081-1.6755 14.354-5.0249 19.944-3.3511 5.5846-8.3794 9.8808-15.08 12.897l29.488 49.427h-32.17l-23.121-42.891h-5.0249v42.891h-29.991v-120.8h37.195c14.074 0 24.879 3.3781 32.418 10.139 7.5408 6.7546 11.309 16.226 11.309 28.393z"/>
 <path d="m774.91 117.08h85.447v23.961h-27.646v96.84h-30.156v-96.84h-27.646v-23.961"/>
 <path d="m966.22 134.88c-9.8195-0.0989-15.016 7.6746-15.016 22.931 0 14.4 6.0048 20.259 15.096 19.802 6.325-0.15224 9.664-1.7073 14.882-5.5198 0.10847-0.76412 0.16279-1.553 0.16279-2.3698v-2.5329c0-10.135-0.80623-18.259-3.5244-23.981-2.7149-5.7212-6.8904-8.2826-11.6-8.33zm0.65144-17.864c11.532 0 20.807 4.4645 26.856 13.369 6.2585 9.2059 9.1672 22.805 9.1672 39.91 0 22.007-3.512 39.917-11.997 51.468-8.485 11.546-21.687 16.193-38.224 16.193-5.8754 0-11.351-0.73018-16.029-2.1448v-17.851c4.7506 1.3076 10.134 2.0117 15.748 2.0117 8.4258 0 15.648-2.3449 20.345-7.9014 3.4755-4.112 5.5089-9.9214 6.6372-16.814 0.39634-2.4213 0.73236-5.2332 0.72308-8.1007-1.8981 1.7124-3.9888 3.358-5.7187 4.4483-4.77 3.1076-8.5173 3.9966-13.766 3.9883-4.3549 0-8.9559-1.0346-12.738-2.7769-3.7854-1.744-6.5244-3.6968-9.676-7.1144-2.5457-2.9184-5.0041-7.0714-6.41-11.648-1.4043-4.575-2.2879-9.6967-2.2879-15.362 0-5.9929 0.84365-11.549 2.529-16.671 1.6872-5.1217 4.3116-9.9309 7.5198-13.633 3.2099-3.7054 6.9908-6.4621 11.613-8.5306 4.6257-2.0668 9.833-2.8406 15.708-2.8406z"/>
 <path d="m1117.4 237.99h-14.596v-55.199h-47.821v55.199h-14.596v-120.97h14.596v52.683h47.821v-52.683h14.596v120.97" stroke-width="1.2158"/>
 <path d="m1206 177.59c0-5.7044-0.4766-11.38-1.425-17.03-0.952-5.6468-2.6308-10.738-5.0335-15.268-2.4076-4.5293-5.6504-8.1914-9.7319-10.989-4.0849-2.793-9.2027-4.1946-15.352-4.1946h-19.129v95.133h17.952c6.7122 0 12.192-1.5097 16.444-4.531 4.2508-3.0196 7.5765-6.8777 9.984-11.576 2.4041-4.6984 4.0526-9.8414 4.9487-15.436 0.8943-5.5927 1.3423-10.962 1.3423-16.107zm15.1 0c0 8.614-0.9806 16.611-2.9351 23.992-1.9579 7.3832-4.9775 13.759-9.0606 19.127-4.0832 5.3696-9.3414 9.5929-15.771 12.668-6.435 3.0786-14.124 4.6139-23.072 4.6139h-29.53v-120.97h27.853c9.2821 0 17.224 1.3999 23.826 4.1946 6.5988 2.7965 12.023 6.8236 16.275 12.08 4.2488 5.2597 7.3835 11.635 9.3954 19.127 2.0136 7.4949 3.0196 15.884 3.0195 25.167z" stroke-width="1.2158"/>
</svg>
