<svg width="1331.4" height="800" version="1.1" xml:space="preserve" xmlns="http://www.w3.org/2000/svg" xmlns:xlink="http://www.w3.org/1999/xlink"><defs><linearGradient id="c"><stop stop-color="#fff" stop-opacity=".9797" offset="0"/><stop stop-color="#fff9ea" stop-opacity=".51292" offset=".29405"/><stop stop-color="#fdf6e2" stop-opacity=".28413" offset=".42782"/><stop stop-color="#feedd3" stop-opacity=".27491" offset=".44024"/><stop stop-color="#feeed5" stop-opacity=".10701" offset=".59954"/><stop stop-color="#fffffe" stop-opacity="0" offset=".68763"/><stop stop-color="#fff" stop-opacity="0" offset="1"/></linearGradient><linearGradient id="b"><stop stop-color="#f6a121" offset="0"/><stop stop-color="#f29620" offset=".18396"/><stop stop-color="#ef8b20" offset=".40016"/><stop stop-color="#e9821d" offset=".53659"/><stop stop-color="#e37a1b" offset=".64888"/><stop stop-color="#cf6715" offset=".86187"/><stop stop-color="#c96114" offset="1"/></linearGradient><linearGradient id="a"><stop stop-color="#9d9d9c" offset="0"/><stop stop-color="#b8b7b7" offset=".10132"/><stop stop-color="#ccc" offset=".19954"/><stop stop-color="#cfcfcf" offset=".20881"/><stop stop-color="#d0d0d0" offset=".21608"/><stop stop-color="#d3d3d3" offset=".23562"/><stop stop-color="#d6d6d6" offset=".26919"/><stop stop-color="#d7d7d7" offset=".31004"/><stop stop-color="#ddd" offset=".50915"/><stop stop-color="#f1f1f1" offset="1"/></linearGradient><linearGradient id="d" x1="240.62" x2="198.35" y1="11.085" y2="36.218" gradientTransform="matrix(4.0387 0 0 4.0387 -.04168 -27.419)" gradientUnits="userSpaceOnUse" xlink:href="#a"/><linearGradient id="e" x1="270.78" x2="229.43" y1="36.126" y2="14.995" gradientTransform="matrix(4.0387 0 0 4.0445 -.04168 -27.458)" gradientUnits="userSpaceOnUse" xlink:href="#b"/><linearGradient id="g" x1="240.62" x2="198.35" y1="11.085" y2="36.218" gradientTransform="matrix(-7.3076 0 0 -7.3209 1992.4 849.9)" gradientUnits="userSpaceOnUse" xlink:href="#a"/><linearGradient id="h" x1="270.78" x2="229.43" y1="36.126" y2="14.995" gradientTransform="matrix(-7.3076 0 0 -7.3209 1992.4 849.9)" gradientUnits="userSpaceOnUse" xlink:href="#b"/><radialGradient id="f" cx="262.89" cy="79.2" r="19.174" gradientTransform="matrix(-1.2353 -18.09 14.485 -1.0522 314.89 5293.4)" gradientUnits="userSpaceOnUse" xlink:href="#c"/><radialGradient id="i" cx="262.98" cy="79.231" r="19.174" gradientTransform="matrix(1.8114 32.179 -26.229 1.5899 1535.6 -8607.8)" gradientUnits="userSpaceOnUse" xlink:href="#c"/></defs><path d="m997.89 93.549v-84.042l-42.998-8.5398h-93.296c-16.785 0-42.125 3.9214-63.006 27.635-19.572 24.352-19.846 41.625-19.846 64.947z" fill="url(#d)" stroke-width="1.0665"/><path d="m1044.3 442.12c31.645 0 56.828-26.502 56.847-57.399l0.1746-283.5c0.016-25.483-4.3788-40.487-13.733-55.721-24.701-40.226-67.402-45.496-108.5-45.496l-32.426 0.48207c10.951 3.4618 33.449 13.847 41.392 36.022 3.6544 10.202 5.687 24.066 5.2676 43.937l-6.4696 306.28c-0.50907 24.1 20.661 55.413 57.447 55.413z" fill="url(#e)" stroke-width="1.0665"/><path d="m1044.3 442.12c31.645 0 56.828-26.502 56.847-57.399l0.1746-283.5c0.016-25.483-4.3788-40.487-13.733-55.721-24.701-40.226-67.402-45.496-108.5-45.496l-32.426 0.48207c10.951 3.4618 33.449 13.847 41.392 36.022 3.6544 10.202 5.687 24.066 5.2676 43.937l-6.4696 306.28c-0.50907 24.1 20.661 55.413 57.447 55.413z" fill="url(#f)" stroke-width="1.0665"/><path d="m186.68 630.62v152.34l77.8 15.48h166.3c30.37 0 78.728-7.1084 116.51-50.094 38.118-48.479 35.91-79.789 35.91-117.73z" fill="url(#g)" stroke-width="1.0665"/><path d="m102.9 0.34146c-56.05 0-101.98 47.543-102.07 103.47l-0.83136 515.63c0 28.336 2.7964 48.521 9.9233 67.692 7.5539 20.073 14.284 32.468 31.435 53.89 12.458 14.341 26.484 25.243 46.931 35.778 35.674 18.066 86.936 23.203 132.34 23.203 22.124-0.0406 43.605-0.12161 58.665-1.4866-12.119-3.9218-29.095-10.242-47.306-25.523-8.8916-7.461-21.603-22.718-27.41-38.937-6.6122-18.467-10.291-44.076-9.5318-80.045l11.855-553.81c0.93379-43.622-38.254-99.874-104.01-99.874z" fill="url(#h)" stroke-width="1.0665"/><path d="m102.9 0.34146c-56.05 0-101.98 47.543-102.07 103.47l-0.83136 515.63c0 28.336 2.7964 48.521 9.9233 67.692 7.5539 20.073 14.284 32.468 31.435 53.89 12.458 14.341 26.484 25.243 46.931 35.778 35.674 18.066 86.936 23.203 132.34 23.203 22.124-0.0406 43.605-0.12161 58.665-1.4866-12.119-3.9218-29.095-10.242-47.306-25.523-8.8916-7.461-21.603-22.718-27.41-38.937-6.6122-18.467-10.291-44.076-9.5318-80.045l11.855-553.81c0.93379-43.622-38.254-99.874-104.01-99.874z" fill="url(#i)" stroke-width="1.0665"/><g fill="#14022f" stroke-width="1.0665"><path d="m434.97 175.82c-11.302 0-21.649 1.7484-31.043 5.2459-9.2468 3.3629-17.319 8.1386-24.217 14.326-6.7516 6.0533-12.035 13.318-15.851 21.793-3.6694 8.3401-5.5054 17.42-5.5054 27.239 0 9.9542 1.836 19.102 5.5054 27.442 3.8161 8.34 9.0992 15.603 15.851 21.791 6.8984 6.0533 14.971 10.829 24.217 14.326 9.3936 3.3629 19.741 5.0452 31.043 5.0452 11.155 0 21.43-1.6822 30.824-5.0452 9.3935-3.4974 17.466-8.2731 24.217-14.326 6.8984-6.1878 12.182-13.451 15.851-21.791 3.8161-8.3401 5.7243-17.488 5.7243-27.442 0-9.8198-1.9082-18.899-5.7243-27.239-3.6693-8.4746-8.9525-15.739-15.851-21.793-6.7516-6.1878-14.824-10.963-24.217-14.326-9.3936-3.4974-19.669-5.2459-30.824-5.2459zm0 30.457c6.1338 0 11.684 0.93843 16.65 2.8123 4.9655 1.8739 9.2012 4.5492 12.706 8.0292 3.505 3.3461 6.2052 7.3613 8.1038 12.046 1.8985 4.6846 2.8486 9.7719 2.8486 15.26 0 5.4877-0.95012 10.573-2.8486 15.258-1.8986 4.6846-4.5988 8.7687-8.1038 12.249-3.505 3.3461-7.7407 5.9546-12.706 7.8285-4.9655 1.8738-10.516 2.8123-16.65 2.8123-6.1337 0-11.682-0.93848-16.648-2.8123-4.9655-1.8738-9.2011-4.4823-12.706-7.8285-3.505-3.48-6.2073-7.5641-8.1058-12.249-1.8986-4.6846-2.8486-9.7699-2.8486-15.258 0-5.4877 0.95008-10.575 2.8486-15.26 1.8986-4.6846 4.6009-8.6997 8.1058-12.046 3.505-3.48 7.7407-6.1553 12.706-8.0292 4.9655-1.8739 10.514-2.8123 16.648-2.8123zm-134.06 351.71v-149.53h-57.47v-44.642h167.44v44.642h-57.689v149.53zm192.38 4e-5 -72.157-194.17h56.226l45.075 137.18h0.64521l45.025-137.18h54.985l-72.165 194.17zm348.07-247.19v-132.62h35.703v102.14h68.043v30.487zm-59.237 1e-5v-37.822h-56.177v37.822h-34.726v-76.94c0-18.062 5.3398-32.216 16.019-42.46 10.826-10.379 26.48-15.569 46.961-15.569 20.628 0 36.462 5.1896 47.288 15.569 10.826 10.244 16.292 24.398 16.292 42.46v76.94zm0-76.94c0-9.166-2.3207-15.934-6.8558-20.517-4.3889-4.7178-11.484-7.076-21.286-7.076-9.6556 0-16.644 2.3589-21.179 7.0767-4.5352 4.583-6.8562 11.351-6.8562 20.517v10.652h56.177zm-532.68 76.94v-132.62h35.703v102.14h68.043v30.487zm351.59-134.97c-11.298 0-21.642 1.7484-31.032 5.2459-9.2437 3.3629-17.314 8.1385-24.21 14.326-6.7493 6.0533-12.03 13.318-15.845 21.793-3.6681 8.3401-5.3956 17.42-5.3956 27.239 0 9.9543 1.8338 19.102 5.5019 27.442 3.8148 8.34 9.096 15.603 15.845 21.791 6.896 6.0533 14.86 10.829 24.103 14.326 9.3903 3.3629 19.734 5.0452 31.032 5.0452 9.6838 0 18.635-1.2788 26.851-3.8346 8.3633-2.5558 15.772-6.121 22.228-10.695 6.4559-4.7081 11.885-10.291 16.287-16.748 4.5484-6.4568 7.7036-13.585 9.4642-21.387h-0.31874c5e-3 -0.0217 0.0118-0.0425 0.0167-0.0641h-37.486c-2.9227 6.833-7.5986 12.258-14.029 16.278-6.284 4.0194-13.955 6.0302-23.016 6.0302-6.1379 0-11.691-0.93867-16.66-2.8144-4.9687-1.8757-9.2068-4.4873-12.714-7.8368-3.5073-3.4835-6.2124-7.5697-8.1122-12.259s-2.8478-9.7809-2.8478-15.274c0-5.4932 0.948-10.585 2.8478-15.274 1.8998-4.6893 4.6049-8.7088 8.1122-12.058 3.5073-3.4835 7.7454-6.1638 12.714-8.0396 4.9687-1.8757 10.522-2.8123 16.66-2.8123 9.0605 0 16.732 2.0087 23.016 6.0281 6.4301 4.0194 11.106 9.4468 14.029 16.28h37.486c-5e-3 -0.0216-0.0118-0.0425-0.0167-0.0641h0.31874c-1.7607-7.802-4.9158-14.932-9.4642-21.389-4.4018-6.4568-9.831-11.971-16.287-16.545-6.4558-4.7081-13.865-8.3395-22.228-10.895-8.2166-2.5558-17.167-3.8346-26.851-3.8346z"/><path d="m779.34 677.33 11.748 26.359c-13.199 13.11-31.257 19.664-54.173 19.664-22.627 0-41.303-6.5879-56.243-19.976-14.939-13.528-22.622-31.765-22.622-54.497s8.0885-41.594 22.729-54.715c14.939-13.528 34.826-19.866 56.136-19.866 10.711 0 24.581 1.8828 33.283 5.6483 8.8476 3.4866 14.798 7.1501 18.279 10.776l-10.878 28.139c-2.4657-2.9287-7.3247-6.1364-14.577-9.623-7.8323-3.6261-15.882-5.5454-24.15-5.5454-13.199 0-23.897 4.0819-32.31 12.031-7.4809 7.0692-12.726 17.989-12.726 32.527 0 13.667 4.5992 24.689 13.157 32.638 8.7026 7.9494 19.115 11.711 31.879 11.711 16.825 0 30.924-6.3108 40.467-15.271zm71.586-61.77c-15.785 0-31.156 3.6096-45.929 10.565l9.2717 22.316c4.5109-2.7072 8.6678-4.9169 14.883-6.7241 6.2412-1.9539 12.195-2.9329 17.858-2.9329 6.5211 0 12.024 1.3213 15.902 4.0828 3.8779 2.7615 6.1242 6.967 6.1242 12.711v2.2476l-26.603 1.0478c-16.092 0.69695-28.143 4.9057-35.526 13.259h-2e-3c-4.3413 4.7309-6.5116 11.033-6.5116 18.275 0 10.586 4.0473 19.109 11.721 24.818v-2e-3c7.5325 5.5714 16.338 8.1448 27.063 8.1448 11.695 0.14296 23.24-4.4025 30.742-13.223l0.0875-0.10415 0.43953 10.988 33.293-0.0229v-58.317c0-15.472-3.538-26.97-12.925-35.537-8.9792-7.9376-22.201-11.59-39.888-11.59zm18.329 60.257v16.592l-8e-3 0.0125c-1.6008 2.5187-4.0007 4.7559-7.197 6.7116h-2e-3c-3.1987 1.8174-6.7633 2.7788-10.688 2.7788-4.7943 0-8.4033-1.0632-11.459-3.3016l-2e-3 -2e-3c-3.0546-2.3777-4.589-5.1112-4.589-9.03 1e-5 -3.4725 1.3413-6.55 4.1015-8.8072 2.7598-2.2568 6.9348-3.6938 12.598-3.9036zm125.37-58.842 1.0878 0.62758-2.0649 31.392-1.523-0.10628c-3.1909-1.6736-7.3972-2.5104-12.619-2.5104-6.817 0-11.757 2.2966-15.673 7.3173-3.6261 4.4628-5.8659 12.179-5.8659 22.081v45.22h-34.704v-103.18h34.704l2e-5 14.323h0.21754c5.8017-11.018 14.649-16.526 26.543-16.526 4.4963 0 7.8666 0.52476 9.8972 1.3615zm87.665-40.209v52.862l-0.094-0.11665c-2.9024-3.5768-7.1811-6.988-12.667-9.5612v-2e-3c-5.7911-2.9234-13.313-4.2807-21.285-4.2807-15.218 0-27.456 5.0841-36.728 15.254-9.2728 9.8913-13.804 22.85-13.804 38.459 0 15.47 4.5314 28.714 13.804 38.884 9.2721 10.169 22.045 15.146 36.943 15.146 15.502 0 27.653-5.5378 35.62-15.977l0.01-0.18955v-2e-3l0.1063 4e-3v2e-3l-0.2167 13.969h33.05v-144.45h-27.588zm-24.041 65.366c7.4093 0 13.447 2.5179 18.098 7.549 4.6514 4.8917 6.9761 11.323 6.9761 19.283 0 7.8205-2.3258 14.319-6.9761 19.489v2e-3c-4.6511 4.8915-10.689 7.3386-18.098 7.3386-7.5537 0-13.237-2.4481-17.887-7.3386v-2e-3c-4.65-5.1698-7.0824-11.668-7.0824-19.489 0-7.9603 2.4314-14.391 7.0824-19.283 4.5053-5.0307 10.188-7.549 17.887-7.549zm98.678-70.645c-5.8089 0-10.601 1.6184-14.377 4.8556-3.6307 3.0964-5.445 7.3187-5.445 12.667 0 5.3484 1.8143 9.5706 5.445 12.667 3.7762 3.2372 8.5684 4.8556 14.377 4.8556 5.8093 0 10.603-1.6184 14.379-4.8556 3.6309-3.0964 5.4452-7.3187 5.4452-12.667 0-5.2076-1.8879-9.4299-5.6638-12.667-3.776-3.2372-8.4966-4.8556-14.161-4.8556zm-17.323 46.438v103.13h34.81v-103.13zm99.287-43.717c-13.12 0-22.538 2.9152-29.536 10.028-5.8312 5.5786-9.2799 15.28-9.2799 28.25v5.1681h-13.884v25.847h13.884v77.556h35.206v-77.556h33.412v77.556h35.206v-77.556h23.307v-25.847h-23.307v-6.2138c0-8.9257 4.1932-12.83 12.794-12.83 4.0821 0 8.3834 0.6279 12.902 1.8831l1.856-23.78-2.8434-0.52077c-6.9974-1.3946-14.102-1.9852-21.099-1.9852-13.12 0-22.54 2.9152-29.538 10.028-5.8313 5.5786-9.2781 15.28-9.2781 28.25v5.1681h-33.412v-6.2138c0-8.9257 4.1931-12.83 12.794-12.83 4.082 0 8.3833 0.6279 12.902 1.8831l1.856-23.78-2.8434-0.52077c-6.9975-1.3946-14.102-1.9852-21.099-1.9852z"/></g></svg>
