<svg width="685.57" height="123.14" version="1.1" viewBox="0 0 685.57 123.14" xmlns="http://www.w3.org/2000/svg">
 <g transform="matrix(.19639 0 0 .19639 3.9278e-5 102.08)" fill="#f9b00b">
  <path d="m232.83-280.97c-4.4335-7.1457-9.9864-13.387-16.658-18.81-6.672-5.3806-14.204-9.5987-22.641-12.612-8.3936-3.0129-17.217-4.5196-26.428-4.5196-16.787 0-31.077 3.2715-42.828 9.7712-11.751 6.499-21.263 15.237-28.58 26.17-7.3176 10.976-12.611 23.415-15.926 37.362-3.3574 13.99-5.0361 28.409-5.0361 43.345 0 14.29 1.6787 28.193 5.0361 41.665 3.3143 13.473 8.6087 25.654 15.926 36.415 7.3176 10.804 16.83 19.455 28.58 25.955 11.751 6.4989 26.041 9.7706 42.828 9.7706 22.856 0 40.719-6.9732 53.587-20.962 12.87-13.946 20.704-32.368 23.588-55.226h72.357c-1.8939 21.263-6.8439 40.461-14.764 57.594-7.9199 17.174-18.422 31.766-31.422 43.818-13.042 12.052-28.28 21.263-45.712 27.634-17.476 6.3276-36.673 9.5128-57.634 9.5128-25.998 0-49.414-4.5196-70.2-13.559-20.806-9.0812-38.366-21.519-52.614-37.401-14.29-15.841-25.267-34.524-32.885-55.914-7.6182-21.437-11.406-44.552-11.406-69.299 0-25.396 3.7879-48.944 11.406-70.72 7.6182-21.737 18.595-40.677 32.885-56.902 14.248-16.184 31.809-28.882 52.599-38.093 20.79-9.1683 44.206-13.774 70.2-13.774 18.767 0 36.458 2.6686 53.113 8.0918 16.658 5.3806 31.594 13.258 44.765 23.544 13.171 10.33 24.018 23.115 32.626 38.352 8.5655 15.238 13.946 32.67 16.184 52.385h-72.398c-1.2483-8.6082-4.1322-16.442-8.5655-23.588" stroke-width="5.8475"/>
  <path d="m506.1-371.6c16.184 0 30.948 1.4206 44.292 4.2613 13.343 2.8841 24.75 7.5755 34.262 14.075 9.5128 6.4995 16.916 15.152 22.167 25.955 5.2084 10.761 7.8339 24.104 7.8339 39.987 0 17.131-3.8739 31.422-11.665 42.828-7.7912 11.449-19.283 20.833-34.521 28.107 20.962 6.0259 36.587 16.615 46.918 31.68 10.287 15.066 15.453 33.229 15.453 54.493 0 17.174-3.3144 32.024-9.9864 44.549-6.672 12.526-15.625 22.77-26.902 30.69-11.278 7.9632-24.147 13.817-38.567 17.605-14.462 3.8311-29.269 5.7248-44.507 5.7248h-164.75v-339.96h159.99zm-9.5128 137.61c13.3 0 24.277-3.185 32.842-9.5128 8.5655-6.3703 12.87-16.657 12.87-30.947 0-7.9632-1.4204-14.463-4.3043-19.542-2.8408-5.0792-6.672-9.0391-11.406-11.923-4.7778-2.8407-10.244-4.8205-16.443-5.9399-6.1984-1.1192-12.611-1.6788-19.283-1.6788h-69.989v79.544h75.708zm4.2613 144.28c7.3176 0 14.29-0.7317 20.962-2.1518 6.672-1.4206 12.525-3.8311 17.605-7.1457 5.0791-3.3143 9.1251-7.8772 12.138-13.559 3.013-5.7247 4.5195-13.042 4.5195-21.909 0-17.475-4.9069-29.915-14.721-37.362-9.8566-7.4895-22.856-11.192-39.04-11.192h-81.439v93.321h79.971z" stroke-width="5.8475"/>
  <path d="m734.92-115.48c4.1321 7.9632 9.5987 14.376 16.443 19.283 6.8007 4.9498 14.807 8.5655 24.018 10.976 9.211 2.3677 18.724 3.5297 28.58 3.5297 6.672 0 13.817-0.51634 21.436-1.6355 7.6182-1.1192 14.764-3.2715 21.393-6.4563 6.672-3.1422 12.224-7.5328 16.701-13.086 4.4335-5.5521 6.672-12.611 6.672-21.177 0-9.211-2.97-16.658-8.8239-22.383-5.8966-5.7247-13.559-10.459-23.115-14.29-9.5128-3.7879-20.317-7.1457-32.368-9.9864-12.052-2.884-24.277-6.0259-36.673-9.5128-12.697-3.1849-25.051-7.0591-37.103-11.665-12.095-4.6056-22.856-10.545-32.412-17.863-9.5128-7.3176-17.217-16.443-23.071-27.375-5.8966-10.976-8.8239-24.19-8.8239-39.772 0-17.433 3.7448-32.627 11.192-45.454 7.4462-12.87 17.217-23.588 29.269-32.153 12.095-8.5655 25.74-14.936 40.977-19.068 15.237-4.0893 30.475-6.1551 45.712-6.1551 17.776 0 34.822 1.9797 51.178 5.9399 16.357 3.9599 30.862 10.416 43.56 19.283 12.698 8.9105 22.77 20.23 30.259 34.047 7.4462 13.817 11.148 30.561 11.148 50.231h-72.357c-0.64562-10.158-2.7978-18.595-6.4136-25.223-3.6586-6.672-8.5228-11.923-14.549-15.711-6.0265-3.8311-12.913-6.4995-20.704-8.0924-7.7912-1.5922-16.271-2.4105-25.482-2.4105-6.0265 0-12.052 0.64615-18.078 1.9374-6.0265 1.248-11.492 3.4864-16.443 6.6288-4.9069 3.185-8.9532 7.1451-12.138 11.923-3.1852 4.7777-4.7347 10.804-4.7347 18.078 0 6.6714 1.2482 12.095 3.7878 16.184 2.5395 4.1326 7.5322 7.9632 15.022 11.449 7.4462 3.4869 17.734 6.9732 30.948 10.459 13.171 3.4864 30.388 7.9632 51.652 13.343 6.327 1.2918 15.152 3.573 26.428 6.8872 11.278 3.3576 22.425 8.6514 33.574 15.969 11.106 7.3176 20.704 17.045 28.796 29.269 8.0918 12.224 12.138 27.849 12.138 46.917 0 15.538-3.013 30.001-9.0391 43.344-6.0265 13.3-15.022 24.836-26.902 34.521-11.923 9.6847-26.687 17.217-44.292 22.598-17.605 5.3805-38.007 8.0924-61.165 8.0924-18.767 0-36.931-2.3245-54.533-6.8872-17.605-4.6056-33.186-11.837-46.659-21.694-13.516-9.8133-24.233-22.382-32.153-37.619-7.9199-15.237-11.751-33.316-11.406-54.279h72.357c0 11.449 2.0661 21.134 6.1984 29.054" stroke-width="5.8475"/>
  <path d="m1135.9-370.07c-94.525 0-171.14 76.702-171.14 171.18 0 94.525 76.614 171.14 171.14 171.14 94.566 0 171.22-76.614 171.22-171.14 0-94.479-76.655-171.18-171.22-171.18m0 271.82c-70.246-0.34623-127.41-46.487-157.67-101.75 30.647-55.053 87.982-99.73 157.67-99.73 70.983 0 127.8 44.377 157.75 99.73-29.959 55.267-86.216 102.06-157.75 101.75" stroke-width="5.8475"/>
  <path d="m1135.9-107.85c50.145 0 90.736-40.719 90.736-90.777 0-50.059-40.59-90.736-90.736-90.736-50.06 0-90.736 40.676-90.736 90.736s40.675 90.777 90.736 90.777" stroke-width="5.8475"/>
  <path d="m1708.9-379.24c96.285 0 164.29 63.966 164.29 183.62 0 8.1778 0.5596 12.569 0 20.23h-235.06c8.6947 39.901 40.246 59.013 78.339 59.013 33.186 0 54.967-23.458 72.398-46.443 0 0 60.388 34.994 78.901 46.443-29.398 52.513-86 87.461-156.12 87.461-102.96 0-173.68-62.843-173.68-175.44 0-101.67 72.439-174.88 170.92-174.88m-66.972 132.79h126.81c-11.966-32.24-29.398-47.52-60.949-47.52-34.219 0-53.332 16.4-65.861 47.52" stroke-width="5.8475"/>
  <path d="m2050.7-379.24c40.805 0 66.416 13.645 96.332 40.977v-34.435h100.16v335.61h-101.71v-32.799s-36.5 40.977-100.12 40.977c-93.145 0-156.81-66.72-156.81-174.33 0-93.49 69.13-176 162.15-176m-59.271 174.33c0 46.487 29.356 84.754 76.182 84.754 45.152 0 82.684-33.358 82.684-82 0-49.199-34.779-83.076-79.456-83.076-48.381 0-79.415 36.07-79.415 80.322" stroke-width="5.8475"/>
  <path d="m2277.1-456.12h101.24v418.68h-101.24z" stroke-width="5.8475"/>
  <path d="m2464.9-519.78c33.703 0 61.463 26.858 61.463 60.692 0 34.478-27.763 62.282-62.586 62.282-33.186 0-59.914-26.73-59.914-61.212 0.058-33.872 27.308-61.762 61.048-61.762m-51.178 147.08h101.2v335.61h-101.2z" stroke-width="5.8475"/>
  <path d="m2566.7-37.068v-243.2h-33.229v-92.414h33.229v-83.076h101.75v83.076h53.805v92.929h-53.805v242.68h-101.75z" stroke-width="5.8475"/>
  <path d="m2956.1-374.15v195.16c0 33.875-20.144 55.226-56.56 55.226-34.305 0-57.161-21.349-57.161-57.935v-192.44h-101.24v195.16c0 92.888 61.51 148.63 157.28 148.63 22.468 0 42.871-2.884 61.124-8.3935l-0.041 3.271c0 36.63-30.819 52.986-64.218 52.986-23.674 0-37.103-4.3474-50.447-27.333h-107.48c10.287 75.41 78.164 117.04 155.86 117.04 88.409 0 161.93-54.147 161.93-158.01v-323.32h-99.04z" stroke-width="5.8475"/>
  <path d="m1439.6-191.86v154.7h-102.79v-335.65h98.958v53.032c8.221-25.137 39.384-59.575 79.807-59.575h22.942v104.94s-12.525-6.5428-35.511-6.5428c-39.342 0-63.405 24.061-63.405 89.099" stroke-width="5.8475"/>
  <path d="m3191-303.36v78.71h-76.817v48.789h76.817v82.084h53.079v-82.084h76.817v-48.789h-76.817v-78.71z" stroke-width="7.0133"/>
  <path d="m3359.2-306.74h37.61v267.96h94.09v-348h-131.7z" stroke-width="7.0133"/>
 </g>
</svg>
