<svg width="600pt" height="221.96pt" version="1.1" viewBox="0 0 600 221.96" xmlns="http://www.w3.org/2000/svg">
 <path d="m110.98 0c-61.295 0-110.98 49.69-110.98 110.98 0 61.295 49.69 110.98 110.98 110.98h378.04c61.295 0 110.98-49.69 110.98-110.98 0-61.295-49.69-110.98-110.98-110.98z" fill="#4f2188" style="paint-order:stroke markers fill"/>
 <path d="m110.98 10.405h378.04c55.549 0 100.58 45.031 100.58 100.58s-45.031 100.58-100.58 100.58h-378.04c-55.549 0-100.58-45.031-100.58-100.58 0-55.551 45.031-100.58 100.58-100.58z" fill="#fff" style="paint-order:stroke markers fill"/>
 <path d="m110.98 17.341c-51.718 0-93.644 41.926-93.644 93.644s41.926 93.644 93.644 93.644h222.84l-49.203-69.369c-6.581 8.5066-13.343 16.819-20.498 24.711-24.468 25.744-68.807 26.651-95.32 3.6343-1.4479-1.2501-2.8144-2.5834-4.1423-3.9526l-0.52837 0.59949c-24.468 25.744-68.807 26.651-95.32 3.6343-16.114-13.912-24.922-35.567-23.593-56.749 0.97873-16.656 7.9324-32.98 19.607-44.952 13.807-13.929 33.765-21.898 53.426-20.22v31.543c-9.8922-0.89134-20.221 2.2561-26.95 9.7715-12.601 12.811-13.664 34.067-4.8908 49.237 7.4977 12.671 23.61 19.204 37.802 15.255 9.644-2.9855 16.754-8.0397 23.492-15.434l0.54192-0.61305c-2.4768-8.0255-3.5641-16.479-3.0382-24.867 0.97873-16.656 7.9324-32.98 19.607-44.952 13.807-13.929 33.765-21.898 53.426-20.22h38.226l28.457 39.892 29.422-39.892h149.51v89.988l72.461-101.5c-13.883-8.1434-30.038-12.833-47.296-12.833zm107.26 24.342v31.543c-9.8922-0.89134-20.221 2.2561-26.95 9.7715-12.601 12.811-13.664 34.067-4.8908 49.237 7.4977 12.671 23.61 19.205 37.802 15.255 9.644-2.9854 16.754-8.0397 23.492-15.434 6.4107-7.3044 12.521-14.961 18.469-22.811zm342.09 8.63-92.143 129.88-39.683 1e-4 2.0362-2.0364v-103.59h-39.516v105.62h-34.866v-105.62h-26.794l-25.561 33.46 68.908 96.594h116.31c51.718 0 93.644-41.926 93.644-93.644 0-23.152-8.4192-44.327-22.34-60.671z" fill="#ff7500" style="paint-order:stroke markers fill"/>
</svg>
