<svg width="988.94" height="800" version="1.1" viewBox="0 0 988.94 800" xml:space="preserve" xmlns="http://www.w3.org/2000/svg"><path d="m105.51 0c-9.0904 0-17.145 5.8318-19.983 14.462l-70.424 213.49h165.55l75.179-227.95zm176.37 0-50.21 152.12h247.36c11.622 0 21.057-9.4355 21.057-21.057v-110.01c0-11.622-9.4355-21.059-21.057-21.059zm-268.91 252.75 64.093 131.25s8.9751 20.982 33.6 20.982h163.01c86.915 0 163.21 46.411 205.4 115.76 0 0 39.93 60.411 34.407 138.12 0 0 34.136-54.12 34.136-132.33 0-151.2-122.59-273.75-273.79-273.79zm314.29 183.68c30.762 18.296 51.435 51.742 51.435 90.136 0 53.737-40.427 98-92.553 104.1v169.23c104.56-5.6767 155.03-59.643 155.03-59.643 0-1e-5 66.395-60.258 38.318-158.37-38.663-122.16-152.23-145.45-152.23-145.45zm-306.2 69.068c-11.622 0-21.019 9.4355-21.019 21.057h-0.038673c0 147.02 115.91 266.88 261.36 273.44v-169.34c-52.126-6.1754-92.861-50.362-92.861-104.1 0-11.622-9.4355-21.057-21.057-21.057z" fill="#ccad6b" stroke-width=".90003"/><g transform="scale(.90003)" fill="#ccad6b"><path d="m1098.8 355.23h-71.993v-251.73l-71.621 37.952v-70.362l93.035-50.603 50.58-0.39971z"/><path d="m806.38 348.28h-60.402v-111.02h-108.6l-0.02509-59.831h108.62v-109.54h60.402v109.54h107.14v59.831h-107.14z"/></g></svg>
