<svg width="579.89" height="800" version="1.1" viewBox="0 0 579.89 800" xml:space="preserve" xmlns="http://www.w3.org/2000/svg" xmlns:xlink="http://www.w3.org/1999/xlink"><g transform="matrix(1.3333 0 0 -1.3333 -722.97 1394.2)"><g transform="matrix(23.519 0 0 23.519 820.82 1045.6)" fill="#fff"><path d="m0 0-0.306-0.378v-3.291l1.915 2.366zm-3.709-4.58v-9.097h2.071v11.655zm3.403-1.204v-16.325h2.071v18.882zm-10.769-7.893h2.664l3.371 4.162v3.291zm14.171-3.402h3.551v2.071h-3.551zm-14.941 0h10.207v2.071h-10.207zm8.136-8.432h2.071v7.1h-2.071zm3.403 0h5.177v2.071h-5.177zm-6.805 0h2.071v2.071h-2.071z" fill="#fff"/></g></g></svg>
