<svg width="930.84" height="800" version="1.1" viewBox="0 0 930.84 800" xmlns="http://www.w3.org/2000/svg">
 <g transform="translate(-.12492 770)" fill="#ccad6b" stroke-width="26.664">
  <path d="m181.57-541.14h-166.12l69.859-210.91c3.9996-12.265 10.132-17.865 21.864-17.865h150.38z"/>
  <path d="m282.63-769.91h195.98a20.531 20.531 0 0 1 22.398 21.598v111.72a20.798 20.798 0 0 1-21.864 21.064h-247.17z"/>
  <path d="m15.192-517.41 61.593 126.92a37.596 37.596 0 0 0 35.996 25.331h162.38a239.97 239.97 0 0 1 239.97 254.91 272.24 272.24 0 0 0-235.17-407.16z"/>
  <path d="m288.23 30v-169.85a103.99 103.99 0 0 0 38.929-194.11 208.78 208.78 0 0 1 161.85 192.25c0 78.125-55.727 162.38-200.78 171.71z"/>
  <path d="m261.56-139.85v169.85a273.84 273.84 0 0 1-261.3-271.7 21.331 21.331 0 0 1 21.331-23.731h126.39a20.531 20.531 0 0 1 20.531 21.331 106.65 106.65 0 0 0 93.056 104.26z"/>
 </g>
 <g transform="matrix(1.546 0 0 1.546 3.1709 .071119)" fill="#ccad6b">
  <path d="m354.22 0h28.802v51.745h58.822v-51.745h28.802v137.99h-28.802v-60.369h-58.822v60.369h-28.802z" stroke-width="9.0542"/>
  <g transform="matrix(4.8192,0,0,4.8192,-1879.8,2846.8)" aria-label="D">
   <path d="m491.31-590.73h9.8266c2.3828 0 4.1992 0.18229 5.4492 0.54687 1.6797 0.49479 3.1185 1.3737 4.3164 2.6367s2.1094 2.8125 2.7344 4.6484c0.625 1.8229 0.93753 4.0755 0.93753 6.7578 0 2.3568-0.293 4.388-0.87893 6.0938-0.71615 2.0833-1.7383 3.7695-3.0664 5.0586-1.0026 0.97656-2.3568 1.7383-4.0625 2.2852-1.276 0.40365-2.9818 0.60547-5.1172 0.60547h-10.139zm5.9766 4.8438v18.965h3.3813c1.6146 0 2.78-0.0911 3.4961-0.27343 0.9375-0.23438 1.7122-0.63152 2.3242-1.1914 0.625-0.55989 1.1328-1.4779 1.5234-2.7539 0.39063-1.2891 0.58597-3.0404 0.58597-5.2539 0-2.2136-0.19534-3.9128-0.58597-5.0977-0.39062-1.1849-0.93749-2.1094-1.6406-2.7734-0.70313-0.66406-1.595-1.1133-2.6758-1.3476-0.80729-0.18229-2.3893-0.27344-4.7461-0.27344z" fill="#ccad6b"/>
  </g>
 </g>
</svg>
