<svg width="972.63" height="800" version="1.1" viewBox="0 0 972.63 800" xml:space="preserve" xmlns="http://www.w3.org/2000/svg"><link rel="stylesheet" type="text/css"/><link rel="stylesheet" type="text/css"/><style lang="en" type="text/css"/><style lang="en" type="text/css"/><style lang="en" type="text/css"/><path d="m105.51 0c-9.0904 0-17.145 5.8318-19.983 14.462l-70.424 213.49h165.55l75.179-227.95zm176.37 0-50.21 152.12h247.36c11.622 0 21.057-9.4355 21.057-21.057v-110.01c0-11.622-9.4355-21.059-21.057-21.059zm-268.91 252.75 64.093 131.25s8.9751 20.982 33.6 20.982h163.01c86.915 0 163.21 46.411 205.4 115.76 0 0 39.93 60.411 34.407 138.12 0 0 34.136-54.12 34.136-132.33 0-151.2-122.59-273.75-273.79-273.79zm314.29 183.68c30.762 18.296 51.435 51.742 51.435 90.136 0 53.737-40.427 98-92.553 104.1v169.23c104.56-5.6767 155.03-59.643 155.03-59.643 0-1e-5 66.395-60.258 38.318-158.37-38.663-122.16-152.23-145.45-152.23-145.45zm-306.2 69.068c-11.622 0-21.019 9.4355-21.019 21.057h-0.038673c0 147.02 115.91 266.88 261.36 273.44v-169.34c-52.126-6.1754-92.861-50.362-92.861-104.1 0-11.622-9.4355-21.057-21.057-21.057z" fill="#ccad6b" stroke-width=".90003"/><g transform="translate(0 -.006)" fill="#ccad6b" stroke-width=".90003"><path d="m972.63 324.39h-67.148v-234.79l-66.801 35.398v-65.627l86.773-47.197 47.175-0.37281z"/><path d="m719.47 324.39h-56.337v-103.54h-101.29l-0.0234-55.804h101.31v-102.17h56.337v102.17h99.926v55.804h-99.926z"/></g></svg>
