<svg width="550.8" height="800" fill="#ccad6b" data-name="Channel5-logo" version="1.1" viewBox="0 0 550.8 800" xmlns="http://www.w3.org/2000/svg">
 <g transform="translate(-.12492 770)" stroke-width="26.664">
  <path d="m181.57-541.14h-166.12l69.859-210.91c3.9996-12.265 10.132-17.865 21.864-17.865h150.38z"/>
  <path d="m282.63-769.91h195.98a20.531 20.531 0 0 1 22.398 21.598v111.72a20.798 20.798 0 0 1-21.864 21.064h-247.17z"/>
  <path d="m15.192-517.41 61.593 126.92a37.596 37.596 0 0 0 35.996 25.331h162.38a239.97 239.97 0 0 1 239.97 254.91 272.24 272.24 0 0 0-235.17-407.16z"/>
  <path d="m288.23 30v-169.85a103.99 103.99 0 0 0 38.929-194.11 208.78 208.78 0 0 1 161.85 192.25c0 78.125-55.727 162.38-200.78 171.71z"/>
  <path d="m261.56-139.85v169.85a273.84 273.84 0 0 1-261.3-271.7 21.331 21.331 0 0 1 21.331-23.731h126.39a20.531 20.531 0 0 1 20.531 21.331 106.65 106.65 0 0 0 93.056 104.26z"/>
 </g>
</svg>
