<svg width="800" height="133.97" version="1.1" viewBox="0 0 600 100.47" xmlns="http://www.w3.org/2000/svg">
 <g transform="matrix(3.1268 0 0 3.1268 -68.829 219.76)" fill="#fff">
  <path d="m72.66-57.979c-2.7188-1.2083-5.567-1.942-8.5447-1.942-6.7753-0.12952-11.695 3.6681-11.824 10.573 0 5.869 3.064 10.961 9.4077 10.961 3.064 0 5.9985-1.6398 7.1637-4.5312v0.8631c0 3.4524 3.064 3.7976 6.0417 3.2366v-3.1934c-2.2872 0.21578-2.2441-0.99256-2.2441-2.8914zm-4.5312 8.8467c-0.12946 3.8408-1.942 6.5595-5.4375 6.5595-3.8407 0-5.6964-2.9777-5.6964-6.7753 0.12945-4.4882 2.8051-6.7753 6.7753-6.7753 1.3378 0 2.9345 0.21578 4.3586 0.86308z" stroke-width="1.372"/>
  <path d="m43.029-52.587c-1.0789-5.006-5.4375-7.5089-9.9256-7.5089-5.4807 0-11.091 3.6681-11.091 10.918 0 7.2068 5.5238 10.832 10.961 10.832 4.6175 0 9.1057-2.5893 10.185-7.8541h-4.5312c-0.9494 2.5893-3.3229 3.8408-5.6533 3.7976-3.1503-0.0432-6.3006-2.3304-6.3006-6.7753s3.3229-6.689 6.5164-6.7321c2.2441-0.0432 4.4449 1.0789 5.3512 3.3229z" stroke-width="1.372"/>
  <path d="m141.93-52.587c-1.0789-5.006-5.4375-7.5089-9.9256-7.5089-5.4807 0-11.091 3.6681-11.091 10.918 0 7.2068 5.5238 10.832 10.961 10.832 4.6176 0 9.1057-2.5893 10.185-7.8541h-4.5312c-0.9494 2.5893-3.3229 3.8408-5.6533 3.7976-3.1503-0.0432-6.3006-2.3304-6.3006-6.7753s3.3229-6.689 6.5164-6.7321c2.2441-0.0432 4.4449 1.0789 5.3512 3.3229z" stroke-width="1.372"/>
  <path d="m153.05-50.679c0-3.4092 2.3735-5.4807 5.3512-5.4807 2.9345 0 4.3154 1.3378 4.7901 4.0565 0.12952 0.90625 0.0863 2.0283 0.0863 7.8974 0 4.2291 1.942 6.3437 7.2931 5.4375l-0.0432-3.2366c-2.2872 0.21577-2.503-0.56102-2.503-2.503v-5.1786c0-1.0357-0.0432-1.942-0.17261-2.9345-0.4747-4.1428-3.3661-7.2068-7.7678-7.2068-2.7619-0.17261-5.5238 0.99256-7.0342 3.1935v-13.551h-4.7038v31.503h4.7038z" stroke-width="1.372"/>
  <path d="m74.553-44.82c0.34524 5.1785 4.9196 6.6456 9.5369 6.6456 4.6175 0 9.0626-1.9851 9.0626-6.6028 0-4.9196-4.2291-5.6532-8.5876-6.2142-3.2366-0.38839-4.9196-0.77681-4.9628-2.503-0.12947-1.8557 2.1146-2.8914 4.2723-2.8914 2.2008 0 4.7038 0.64733 4.7038 2.7187h4.1428c0.12947-4.1428-4.0565-6.2574-8.8465-6.2574-4.5312 0-8.8465 2.0714-8.8465 6.5163 0.12947 4.7038 4.9196 5.1785 9.1917 5.7395 2.7187 0.34523 4.6607 0.90625 4.6607 2.8051-0.12946 2.5461-2.6756 3.1934-4.9628 3.1934-2.244 0-4.6175-0.99255-4.747-3.1503z" stroke-width=".65876"/>
  <path d="m195.3-44.82c0.34524 5.1785 4.9196 6.6456 9.5369 6.6456 4.6175 0 9.0626-1.9851 9.0626-6.6028 0-4.9196-4.2291-5.6532-8.5876-6.2142-3.2366-0.38839-4.9196-0.77681-4.9628-2.503-0.12947-1.8557 2.1146-2.8914 4.2723-2.8914 2.2008 0 4.7038 0.64733 4.7038 2.7187h4.1428c0.12947-4.1428-4.0565-6.2574-8.8465-6.2574-4.5312 0-8.8465 2.0714-8.8465 6.5163 0.12947 4.7038 4.9196 5.1785 9.1917 5.7395 2.7187 0.34523 4.6607 0.90625 4.6607 2.8051-0.12946 2.5461-2.6756 3.1934-4.9628 3.1934-2.244 0-4.6175-0.99255-4.747-3.1503z" stroke-width=".65876"/>
  <path d="m94.109-44.82c0.34524 5.1785 4.9196 6.6456 9.5369 6.6456 4.6175 0 9.0626-1.9851 9.0626-6.6028 0-4.9196-4.2291-5.6532-8.5876-6.2142-3.2366-0.38839-4.9196-0.77681-4.9628-2.503-0.12947-1.8557 2.1146-2.8914 4.2723-2.8914 2.2008 0 4.7038 0.64733 4.7038 2.7187h4.1428c0.12947-4.1428-4.0565-6.2574-8.8465-6.2574-4.5312 0-8.8465 2.0714-8.8465 6.5163 0.12947 4.7038 4.9196 5.1785 9.1917 5.7395 2.7187 0.34523 4.6607 0.90625 4.6607 2.8051-0.12946 2.5461-2.6756 3.1934-4.9628 3.1934-2.244 0-4.6175-0.99255-4.747-3.1503z" stroke-width=".65876"/>
  <path d="m44.131-70.281v24.167c0 6.948 2.9345 8.5876 9.3215 7.552l-0.17262-3.625c-3.5818 0.56101-4.4881-0.51785-4.4881-3.9702v-24.123z" stroke-width=".65876"/>
  <path d="m187.34-65.881h-4.1428l-0.47471 6.43h-4.2291v3.064l4.2291 0.30208v9.4506c0 8.1561 5.5669 9.7958 12.688 7.5955l-0.4747-3.5387c-4.2723 1.5104-7.5955 1.1652-7.5955-4.1428v-9.3643h7.2068v-3.3661h-7.2068z" stroke-width=".65876"/>
  <g transform="translate(-265.13)" stroke-width=".20613">
   <path d="m438.61-68.625c0.94202-0.22262 2.0469-0.21026 2.8426 0.41432 1.4553 1.1131 1.3625 3.7021-0.24529 4.6277-1.4574 0.9379-3.8464 0.27622-4.2896-1.4944-0.45555-1.3976 0.21437-3.125 1.6923-3.5475z"/>
   <path d="m437.23-59.343c1.5913-4e-3 3.1827 4e-3 4.774-4e-3 -8e-3 6.9034 8e-3 13.807-0.0103 20.71-1.5913-0.0124-3.1806 0-4.772-8e-3 0.0371-6.8992 0.0144-13.798 8e-3 -20.698z"/>
  </g>
  <g transform="translate(-322.81)" stroke-width=".20613">
   <path d="m438.61-68.625c0.94202-0.22262 2.0469-0.21026 2.8426 0.41432 1.4553 1.1131 1.3625 3.7021-0.24529 4.6277-1.4574 0.9379-3.8464 0.27622-4.2896-1.4944-0.45555-1.3976 0.21437-3.125 1.6923-3.5475z"/>
   <path d="m437.23-59.343c1.5913-4e-3 3.1827 4e-3 4.774-4e-3 -8e-3 6.9034 8e-3 13.807-0.0103 20.71-1.5913-0.0124-3.1806 0-4.772-8e-3 0.0371-6.8992 0.0144-13.798 8e-3 -20.698z"/>
  </g>
 </g>
</svg>
