<svg width="800" height="161.4" version="1.1" viewBox="0 0 800 161.4" xmlns="http://www.w3.org/2000/svg">
 <path d="m15.703 17.448h-3.4896v140.46h3.4896v3.4896h780.81v-3.4896h3.4896v-140.46h-3.4896v-3.4896h-780.81z" stroke-width=".87241"/>
 <path d="m6.9793 6.9793h-6.9793v136.1h6.9793v6.9793h771.21v-6.9793h6.9793v-136.1h-6.9793v-6.9793h-771.21z" fill="#e3b5ff" stroke-width=".87241"/>
 <path d="m0 76.772v66.303h6.9793v6.9793h771.21v-6.9793h6.9793v-66.303z" fill="#89f4ff" stroke-width=".87241"/>
 <path d="m0 57.579h785.17v34.896h-785.17z" fill="#fff" stroke-width=".87241"/>
 <g transform="matrix(.87241 0 0 .87241 0 2.7646e-6)">
  <path d="m52 42v8h-8v72h8v8h88v-24h-72v-40h72v-24z"/>
  <path d="m156 42v80h8v8h64v-24h-48v-64z"/>
  <path d="m244 42v80h8v8h72v-8h8v-80h-24v64h-40v-64z"/>
  <path d="m348 42v88h88v-8h8v-72h-8v-8zm24 24h48v8h-48zm0 32h48v8h-48z"/>
  <path d="m460 42v80h8v8h64v-24h-48v-64z"/>
  <path d="m548 42v24h72v8h-64v8h-8v40h8v8h88v-80h-8v-8zm24 56h48v8h-48z"/>
  <path d="m660 42v88h24v-64h40v64h24v-80h-8v-8z"/>
  <path d="m764 42v88h88v-8h8v-72h-8v-8zm24 24h48v40h-48v-8z"/>
 </g>
</svg>
