<svg width="436.18pt" height="600pt" version="1.1" viewBox="0 0 436.18 600" xmlns="http://www.w3.org/2000/svg">
 <g transform="matrix(5.6811 0 0 5.6811 22.308 -.019944)" fill="#f8ba0f" fill-rule="evenodd">
  <path d="m43.07 44.17c-0.87251 1.6094-2.1302 2.9005-3.773 3.8732-1.6448 0.97272-3.439 1.4581-5.3844 1.4581-2.8828 0-5.349-1.0219-7.3947-3.0675-2.0457-2.0457-3.0675-4.5119-3.0675-7.3947 0-2.8848 1.0219-5.3667 3.0675-7.4458 2.0457-2.0791 4.5119-3.1186 7.3947-3.1186 1.9454 0 3.7396 0.51879 5.3844 1.5583 1.6428 1.0395 2.9005 2.3306 3.773 3.8732l8.1493-4.6278c-1.6782-3.0184-4.058-5.4492-7.1432-7.2945-3.0872-1.8433-6.4731-2.7669-10.164-2.7669-2.6824 0-5.2311 0.52075-7.6463 1.5603-2.4151 1.0395-4.5099 2.4485-6.2884 4.225-1.7765 1.7784-3.1854 3.8732-4.225 6.2884-1.0396 2.4151-1.5603 4.9973-1.5603 7.7484 0 2.7492 0.52075 5.3313 1.5603 7.7465 1.0396 2.4151 2.4485 4.5099 4.225 6.2884 1.7784 1.7784 3.8732 3.1854 6.2884 4.225 2.4151 1.0396 4.9639 1.5603 7.6463 1.5603 3.6237 0 6.9938-0.93932 10.112-2.818 3.1186-1.8767 5.5161-4.2918 7.1943-7.2434z"/>
  <path d="m72.85 38.84c0 5.3667-1.0238 10.431-3.0695 15.194-2.0457 4.7615-4.8126 8.9039-8.3006 12.425-3.4881 3.5215-7.6128 6.3041-12.374 8.3498-4.7634 2.0457-9.8275 3.0695-15.194 3.0695-7.2434 0-13.868-1.8452-19.871-5.5338-6.0034-3.6885-10.68-8.5188-14.035-14.489l8.1493-4.4274c2.4819 4.4274 6.0368 8.0157 10.665 10.767 4.6298 2.7492 9.6605 4.1248 15.092 4.1248 4.0245 0 7.8486-0.77229 11.47-2.3149 3.6217-1.5426 6.758-3.6374 9.407-6.2884 2.6509-2.649 4.7634-5.7676 6.3395-9.3559s2.364-7.4281 2.364-11.521v0.20241c0-4.0933-0.788-7.9332-2.364-11.521-1.576-3.5883-3.6885-6.7069-6.3395-9.3559-2.649-2.6509-5.7853-4.7458-9.407-6.2884s-7.4458-2.3149-11.47-2.3149c-5.4316 0-10.462 1.3756-15.092 4.1248-4.6278 2.7512-8.1827 6.3395-10.665 10.767l-8.1493-4.4274c3.3544-5.97 8.0314-10.8 14.035-14.489 6.0034-3.6885 12.628-5.5338 19.871-5.5338 5.3667 0 10.431 1.0238 15.194 3.0695 4.7615 2.0457 8.8862 4.8283 12.374 8.3498 3.4881 3.5215 6.255 7.6639 8.3006 12.425 2.0457 4.7634 3.0695 9.8275 3.0695 15.194z"/>
 </g>
 <g transform="matrix(2.1378 0 0 2.1378 4.7248e-6 1.2744e-6)">
  <path d="m5.9343 114.35v-6.7552h-5.9343v-6.4322h5.9343v-6.7417h6.1227v6.7417h5.9343v6.4322h-5.9343v6.7552z"/>
  <path d="m24.451 122.77v-29.228l-4.9655 3.2161v-7.4011l7.5222-4.9116h5.1v38.324z"/>
 </g>
 <g transform="matrix(3.9397 0 0 3.9397 -3260.7 -2494.3)" fill="#f8ba0f" stroke-width="1px" aria-label="EXTRA">
  <path d="m833.33 785.42v-30h15.72v5.6h-9.72v6.36h8.4v5.6h-8.4v6.84h9.72v5.6z"/>
  <path d="m851.53 785.42 7.08-15.04-7.08-14.96h6.32l4.08 9.6 3.92-9.6h6.32l-7.04 15.08 7.04 14.92h-6.4l-3.96-9.24-3.88 9.24z"/>
  <path d="m880.28 785.42v-24.4h-6.4v-5.6h18.8v5.6h-6.4v24.4z"/>
  <path d="m901.99 775.9v9.52h-6v-30h9.56q1.96 0 3.64 0.76 1.72 0.76 2.92 2.08 1.24 1.32 1.92 3.16 0.72 1.8 0.72 3.92v0.68q0 2.88-1.24 5.16-1.24 2.24-3.28 3.48l4.4 10.76h-6.04l-3.88-9.52zm0-5.6h2.88q1.68 0 2.76-1.12 1.12-1.12 1.12-3.56v-0.08q0-2.24-1.12-3.36-1.08-1.16-2.76-1.16h-2.88z"/>
  <path d="m932.25 785.42-1.2-4.8h-7.48l-1.2 4.8h-6.12l8.6-30h4.84l8.68 30zm-5.2-18.64-2.12 8.44h4.72l-2.12-8.44-0.24-0.92z"/>
 </g>
</svg>
