<?xml version="1.0" encoding="UTF-8" standalone="no"?>
<!-- Created with Inkscape (http://www.inkscape.org/) -->

<svg
   xmlns:dc="http://purl.org/dc/elements/1.1/"
   xmlns:cc="http://creativecommons.org/ns#"
   xmlns:rdf="http://www.w3.org/1999/02/22-rdf-syntax-ns#"
   xmlns:svg="http://www.w3.org/2000/svg"
   xmlns="http://www.w3.org/2000/svg"
   xmlns:sodipodi="http://sodipodi.sourceforge.net/DTD/sodipodi-0.dtd"
   xmlns:inkscape="http://www.inkscape.org/namespaces/inkscape"
   width="1667.6897"
   height="822.36835"
   viewBox="0 0 1667.6897 822.36838"
   version="1.1"
   id="svg87"
   inkscape:version="0.92.4 (5da689c313, 2019-01-14)"
   sodipodi:docname="Court TV 2019.svg">
  <defs
     id="defs81">
    <style
       id="style812">.cls-1{fill:#fff;fill-rule:evenodd;}.cls-2{fill:#e61e26;}</style>
    <style
       id="style847">.cls-1{fill:#fff;fill-rule:evenodd;}.cls-2{fill:#e61e26;}</style>
  </defs>
  <sodipodi:namedview
     id="base"
     pagecolor="#ffffff"
     bordercolor="#666666"
     borderopacity="1.0"
     inkscape:pageopacity="0.0"
     inkscape:pageshadow="2"
     inkscape:zoom="0.35"
     inkscape:cx="359.80409"
     inkscape:cy="348.32703"
     inkscape:document-units="px"
     inkscape:current-layer="layer1"
     showgrid="false"
     inkscape:window-width="1600"
     inkscape:window-height="837"
     inkscape:window-x="-8"
     inkscape:window-y="-8"
     inkscape:window-maximized="1"
     units="px"
     fit-margin-top="0"
     fit-margin-left="0"
     fit-margin-right="0"
     fit-margin-bottom="0" />
  <metadata
     id="metadata84">
    <rdf:RDF>
      <cc:Work
         rdf:about="">
        <dc:format>image/svg+xml</dc:format>
        <dc:type
           rdf:resource="http://purl.org/dc/dcmitype/StillImage" />
        <dc:title></dc:title>
      </cc:Work>
    </rdf:RDF>
  </metadata>
  <g
     inkscape:label="Layer 1"
     inkscape:groupmode="layer"
     id="layer1"
     transform="translate(249.54534,-128.47833)">
    <g
       id="g845"
       transform="matrix(3.51394,0,0,3.51394,-434.85636,51.441788)">
      <path
         id="path818"
         d="m 103.83,129 1.44,-8.64 c 1.44,-10.08 -1.44,-14.41 -7.2,-14.41 -7.2,0 -10.09,4.32 -13,13 l -11.5,58.99 c -2.88,8.64 -1.44,13 7.2,13 7.2,0 10.08,-4.32 11.53,-11.53 L 95.19,165 h 20.17 l -2.88,13 c -4.32,17.29 -15.85,30.25 -36,30.25 -20.15,0 -25.93,-13 -23.05,-30.25 l 13,-59.07 c 2.88,-17.29 15.85,-30.25 36,-30.25 20.15,0 25.89,14.32 21.57,31.63 l -1.44,8.69 z"
         class="cls-1"
         inkscape:connector-curvature="0"
         style="fill:#000000;fill-rule:evenodd" />
      <path
         id="path820"
         d="m 148.9,118.87 c 1.44,-8.64 4.32,-13 13,-13 7.2,0 8.64,4.32 7.2,13 l -13,59.07 q -2.16,13 -13,13 c -7.2,0 -10.08,-4.32 -7.2,-13 z m -33.14,59.07 c -2.88,17.29 2.88,30.25 23.05,30.25 21.61,0 33.14,-13 37.46,-30.25 l 11.53,-59.07 c 4.32,-17.29 -2.88,-30.25 -23.05,-30.25 -20.17,0 -31.69,13 -36,30.25 l -13,59.07 z"
         class="cls-1"
         inkscape:connector-curvature="0"
         style="fill:#000000;fill-rule:evenodd" />
      <path
         id="path822"
         d="m 198.46,90.06 h 18.73 l -18.73,87.88 c -1.44,8.64 0,13 7.2,13 7.2,0 11.53,-4.32 13,-13 l 18.73,-87.88 h 20.17 l -18.76,87.88 c -4.32,20.17 -18.73,30.25 -36,30.25 -18.73,0 -27.37,-10.08 -23.05,-30.25 l 18.73,-87.88 z"
         class="cls-1"
         inkscape:connector-curvature="0"
         style="fill:#000000;fill-rule:evenodd" />
      <path
         id="path824"
         d="m 278.19,107.34 h 7.2 c 10.09,0 13,2.88 10.09,17.29 -2.91,14.41 -8.64,17.29 -18.73,17.29 h -7.2 z m -11.53,51.86 h 10.09 l 2.88,47.54 h 20.17 l -4.32,-53.31 c 7.2,-2.88 15.85,-10.09 18.73,-28.81 5.76,-24.49 -2.88,-34.58 -24.49,-34.58 h -27.38 l -25.93,116.7 h 20.17 z"
         class="cls-1"
         inkscape:connector-curvature="0"
         style="fill:#000000;fill-rule:evenodd" />
      <polygon
         id="polygon826"
         points="356.11,107.34 334.5,206.75 314.33,206.75 335.94,107.34 317.21,107.34 321.54,90.06 377.72,90.06 374.84,107.34 "
         class="cls-1"
         style="fill:#000000;fill-rule:evenodd" />
      <path
         id="path828"
         d="m 412.44,115.45 c -0.73,0.47 -1.36,1.1 -2.19,1.74 l 0.72,-3.3 c 1.43,-1.08 3.13,-2.51 3.6,-2.94 a 6.06,6.06 0 0 1 1.4,-1.19 c 0.28,-0.14 2.86,-1.25 5.33,-2.3 h 6.65 c -0.4,0.27 -0.86,0.61 -1.56,1.06 -2,1.24 -4.15,1.55 -5,2.07 -0.85,0.52 -0.36,-0.16 -1.19,0.16 -0.83,0.32 -1.92,1.66 -3.37,2.8 a 8.45,8.45 0 0 1 -2.44,1.4 c -0.76,0.39 -0.92,-0.18 -1.95,0.5 z M 407,141.84 c 1.35,-0.83 2.49,-1.07 2.8,-2.11 0.31,-1.04 1.11,-1.33 2.45,-2.42 1.34,-1.09 1.36,-1.42 2.14,-1.93 0.78,-0.51 1.23,-0.14 2.47,-2.06 1.24,-1.92 2.12,-1.45 3.21,-1.81 1.09,-0.36 0.73,-1.19 1.66,-2.23 0.93,-1.04 3,-1.66 4,-2.23 a 27.5,27.5 0 0 0 3.16,-2.44 5.45,5.45 0 0 1 0.49,-0.34 v -1.86 c -1.43,1 -4.14,1.73 -5.75,2.61 -1.61,0.88 -3,1.61 -4.82,2.54 -1.82,0.93 -1.19,0.67 -1.55,1.4 -0.36,0.73 -0.67,0.83 -2.18,1.4 -1.51,0.57 -1.35,1.35 -3.21,2.18 -1.86,0.83 -2.19,1.24 -3.59,3 a 12.75,12.75 0 0 1 -2.57,2.28 l -1.31,6 h 0.07 c 0.82,-0.39 1.16,-1.15 2.53,-1.98 z m 9.19,-23.78 c 0.7,-0.47 1.19,-0.47 3,-1.55 1.81,-1.08 1.5,-1.76 3.68,-2.8 a 38,38 0 0 1 4.43,-1.89 c 1.35,-0.47 0.08,0.65 1.37,0.08 0.41,-0.18 0.71,-0.34 1,-0.48 v -2.66 c -0.22,0.09 -0.45,0.18 -0.72,0.26 -2.07,0.67 -5.23,1.45 -6.68,2.33 -1.45,0.88 -2.07,1.66 -4,2.69 a 30.86,30.86 0 0 1 -3.94,1.61 c -0.62,0.31 -0.47,0.41 -1.19,1 -0.72,0.59 -2.2,1.3 -3,1.81 l -0.19,0.12 -1,4.82 A 49.13,49.13 0 0 1 414,120 c 1.08,-0.61 1.08,-1.21 2.17,-1.94 z m -5.7,13.19 c 1.45,-0.62 1.87,-0.47 2.64,-0.88 0.77,-0.41 0.83,-0.88 1.76,-1.5 0.93,-0.62 1.87,-1.14 3.52,-2.33 a 28,28 0 0 1 4.56,-2.18 c 0.83,-0.47 0.88,-1 2.75,-2.18 1.5,-1 2.65,-1.77 3.77,-2.33 l 0.06,-3.92 c -3,1.75 -11.39,7 -12,7.49 a 10.87,10.87 0 0 1 -3,1.66 c -0.73,0.21 0.26,-1.4 2.64,-2.64 a 90.27,90.27 0 0 0 8.5,-5.13 28.89,28.89 0 0 1 3.89,-2.56 v -2.49 l -0.36,0.18 c -0.73,0.36 -2.33,1 -3.94,1.71 -1.61,0.71 -3.47,2 -4.92,2.69 a 22.6,22.6 0 0 0 -3.89,1.92 c -1.24,0.88 -0.57,1 -1.5,1.61 -0.93,0.61 -1.5,1 -3.47,2.33 a 19.08,19.08 0 0 0 -3,2.48 l -1,4.63 c 1.5,-1.11 2.94,-2.1 4.11,-2.24 1.71,-0.21 -1.14,1.3 -2.69,2.49 a 15.11,15.11 0 0 1 -1.72,1.15 l -1,4.49 a 13.62,13.62 0 0 1 1.29,-1.45 c 1.27,-1.18 1.51,-2.38 2.98,-3 z M 461.25,127 c -0.88,-1.09 -0.57,-2 -2.59,-3.06 -2.02,-1.06 -6.94,-2.9 -5.65,-2.64 a 46.84,46.84 0 0 1 6.27,1.55 28,28 0 0 1 4.13,2.38 l 0.58,-1.48 c -2.27,-1.11 -4.92,-2.6 -4.92,-2.6 a 11.79,11.79 0 0 0 -3,-1 31.12,31.12 0 0 1 -4.82,-1.66 9,9 0 0 0 -3.87,-0.32 l -0.1,2.9 c 0.29,0 0.63,0 1.05,0 2,0.05 3.49,1.78 5.25,2.25 1.76,0.47 0.93,0.57 1.92,1.09 0.99,0.52 2,0.36 3.32,1.87 1.32,1.51 0.57,1.55 2.07,2.8 a 8.51,8.51 0 0 1 0.75,0.69 l 0.56,-1.42 c -0.4,-0.59 -0.73,-1.07 -0.95,-1.35 z m -3.47,-20 c -1.5,-0.16 -0.67,0 -3,-0.83 -2.33,-0.83 -3.21,-1.4 -4.77,-1.35 -0.9,0 -1.58,0.16 -2.21,0.22 l -0.11,3 a 52.71,52.71 0 0 1 8.17,2 19.62,19.62 0 0 1 4.4,1.87 c 0.83,0.57 2.28,0.52 3.42,1 1.14,0.48 3.63,1.87 3.63,1.87 l 0.15,0.08 1.13,-2.87 a 1.87,1.87 0 0 0 -0.45,-0.16 h -0.31 a 9.08,9.08 0 0 0 -1.45,-0.68 c -2.59,-1.09 -7.4,-3.12 -6.81,-3.34 0.43,-0.24 -0.29,-0.7 -1.79,-0.81 z m -48.35,39 c 1,-0.73 1.3,-0.41 2.75,-1.5 a 46.6,46.6 0 0 0 3.58,-3.52 c 0.93,-0.83 1.09,-0.52 1.66,-1.14 0.57,-0.62 1.66,-3.16 2.44,-3.78 0.78,-0.62 3,-1.3 3.78,-2.12 a 21.34,21.34 0 0 1 3.42,-3.11 c 0.35,-0.19 1.24,-0.72 2.28,-1.34 v -3.24 c -3.46,1.68 -3.9,3.18 -7,4.94 a 19.2,19.2 0 0 0 -3,1.81 c -2,1.3 -3.11,2.94 -5.44,5 a 45.06,45.06 0 0 0 -4.4,4.27 c -1,1.14 -2.07,1.19 -3.58,1.81 -1.51,0.62 0.36,0.57 -0.26,1.4 a 22.35,22.35 0 0 1 -2.13,2.21 L 402,155 c 0.77,-0.85 1.44,-1.65 1.61,-1.79 0.41,-0.36 0.26,-1.71 0.62,-2.69 0.36,-0.98 1.09,1 1.61,-0.16 0.52,-1.16 1.35,-1 1.87,-1.61 0.52,-0.61 -1,-0.21 -1.09,-0.83 -0.09,-0.62 1.78,-1.17 2.81,-1.92 z m 62.13,-49.64 c -2.12,-0.57 -8.76,-3.06 -10.21,-3.37 -1.45,-0.31 -3.68,-0.36 -5.91,-0.62 -2.23,-0.26 -2.12,-1.19 -4.46,-1.3 a 20.48,20.48 0 0 0 -2.64,-0.05 l -0.14,3.82 c 2.17,-0.33 7.79,0.12 6.92,0.33 -0.63,0.15 -4.35,0.46 -7,0.75 l -0.15,4.14 0.53,0.08 c 2.07,0.36 5.49,1.55 6.37,1.76 0.88,0.21 -1.81,0.26 -4,-0.26 a 18.14,18.14 0 0 1 -2.88,-1 l -0.13,3.51 0.93,-0.07 a 9.66,9.66 0 0 1 3.83,0.47 c 1.81,0.47 2.33,1.14 3.47,1 a 3.85,3.85 0 0 1 2.59,0.67 c 1,0.47 1.81,1.14 2.23,0.83 0.42,-0.31 1.55,0.41 1.55,0.41 a 8.25,8.25 0 0 0 2.28,1.71 c 1.24,0.57 2.07,1.45 3.94,1.92 l 0.23,0.06 1.13,-2.88 a 6.43,6.43 0 0 0 -2.45,-1.74 c -1.61,-0.41 -5.08,-1.55 -6.22,-2.8 -1.14,-1.25 -5,-3.06 -3.58,-2.8 0.83,0.15 5.43,2.17 9.69,3.58 1.23,0.41 2.43,0.88 3.51,1.34 l 0.7,-1.78 c -1.44,-0.85 -2.34,-1.27 -3.84,-2 -1.81,-0.88 -3.83,-2 -5.54,-2.18 a 10.79,10.79 0 0 1 -2.8,-0.52 51.31,51.31 0 0 0 -7.36,-1 c -2,-0.1 -6.37,-0.67 -1.5,-0.78 a 21.91,21.91 0 0 1 7.67,0.83 c 2.54,0.52 3.11,0.26 4.51,0.62 a 43.88,43.88 0 0 1 6,2.54 c 1.15,0.55 2.19,1.09 3.27,1.6 l 0.83,-2.11 a 6.61,6.61 0 0 1 -1.87,-0.89 23.77,23.77 0 0 0 -4.77,-2.54 c -1.4,-0.52 -2.69,-0.47 -3.83,-1 -1.14,-0.53 -5.18,-1.55 -3.16,-1.24 2.02,0.31 2.9,0.1 4,0.36 a 10,10 0 0 1 3.47,0.93 33.86,33.86 0 0 0 4.46,2.49 c 1.41,0.53 1.28,0.17 2.16,0.81 l 0.91,-2.32 a 11,11 0 0 0 -2.74,-1.29 z m -21.92,62.05 c -0.26,-1 0.21,-2.33 -0.62,-3.37 -0.83,-1.04 -0.41,-2.77 -1.14,-3.55 -0.73,-0.78 -1.09,-0.88 -1.19,-2.28 a 5.63,5.63 0 0 0 -0.37,-1.42 l -0.34,9.61 c 0.25,1.12 0.48,2.17 0.66,2.74 0.41,1.35 1,0.73 1.14,1.24 0.14,0.51 0.2,1.17 0.48,2.41 l 1.69,-4.31 a 5.13,5.13 0 0 1 -0.31,-1.05 z m 11.43,-33.38 a 17.24,17.24 0 0 0 1.78,1.61 l 0.24,-0.62 c -1.19,-0.94 -2.55,-1.75 -2.01,-0.97 z M 408.6,154.9 c 1.28,-1 4.59,-3.21 2.63,-2.49 a 6.7,6.7 0 0 0 -3,1.93 10.87,10.87 0 0 0 -1.9,1.9 16.2,16.2 0 0 0 -1.24,2.11 c -0.69,1.21 -0.41,1.62 -1.87,2.28 a 8.3,8.3 0 0 0 -2.69,2.45 2,2 0 0 0 -0.36,0.48 l -0.83,3.81 c 0.06,0.07 0.21,0 0.49,-0.21 0.76,-0.66 0.9,-1.11 0.9,-1.38 0,-0.27 0.28,-0.41 1.62,-1.14 1.34,-0.73 0.83,-1.11 1.49,-1.9 0.66,-0.79 1.9,-1.62 2.25,-2.87 a 6,6 0 0 1 1.55,-3.25 c 0.96,-0.82 -0.32,-0.72 0.96,-1.72 z M 455,137.42 c -2.49,-2 -1,-3.47 -3.89,-4.92 -2.68,-1.34 -2.8,-1.53 -4.23,-1.43 l -0.12,3.27 a 4.41,4.41 0 0 1 3.1,1.37 c 1.24,1.45 1.76,1.35 2.44,2.07 0.68,0.72 1.61,2.12 1.09,2.12 -0.52,0 -0.41,0.62 0.83,1.5 a 12,12 0 0 1 2,2.15 L 457.6,140 a 11.24,11.24 0 0 0 -2.6,-2.58 z m 0.88,-5.91 a 55.93,55.93 0 0 0 -7.15,-4.82 c -0.5,-0.26 -1.07,-0.54 -1.66,-0.78 l -0.14,3.87 h 0.19 c 1.92,0.21 5.65,1.66 6.68,3 1.03,1.34 2.28,3.32 3.52,5.08 l 0.7,1 1.5,-3.82 a 28.22,28.22 0 0 0 -3.61,-3.53 z m 4,-1.66 c -0.78,-0.73 -1,-2 -2.23,-3.58 -1.23,-1.58 -2.64,-0.52 -3.89,-1.3 -1.25,-0.78 -2.64,-2.18 -4.72,-2.59 -2.08,-0.41 -1,0.16 -1.71,0 h -0.13 l -0.07,2 a 14.71,14.71 0 0 1 4,2.3 c 1.4,0.93 0.57,1.24 3.16,2.23 2.59,0.99 2.33,0.78 3.47,1.81 1.14,1.03 0.88,1.3 1.71,2.75 a 5.72,5.72 0 0 0 0.44,0.63 l 1.2,-3 c -0.45,-0.53 -0.89,-0.95 -1.21,-1.25 z m -4.56,15.49 c 0.21,-1 0.31,-1.14 -0.57,-2.28 a 15.87,15.87 0 0 0 -2.59,-2.69 6.75,6.75 0 0 1 -1.81,-2.23 c -0.26,-0.52 -1.71,-2.38 -2.23,-2.38 a 3.7,3.7 0 0 1 -1.37,-0.41 l -0.18,5 a 12.83,12.83 0 0 1 2,1.16 c 1.19,0.93 2.07,1.76 2.28,2.75 0.21,0.99 1,4.56 1.92,5.18 0.32,0.22 0.64,0.42 0.93,0.61 l 1.65,-4.2 a 1.12,1.12 0 0 1 -0.01,-0.5 z m 4.4,-32.49 a 27.14,27.14 0 0 1 -5.54,-2.07 21.46,21.46 0 0 0 -6.51,-1.24 l -0.09,2.55 a 5.82,5.82 0 0 0 3.13,1 c 2,0.16 3.89,0 4.72,0.62 a 10.36,10.36 0 0 0 1.76,1 c 0,0 3,0.62 3.63,1.24 0.63,0.62 -0.21,0.62 0.78,1.09 0.99,0.47 2.59,1 3,1.55 0.41,0.55 0.81,0.14 1.31,0.36 l 1.19,-3 a 7,7 0 0 0 -1.82,-1.22 23.74,23.74 0 0 0 -5.53,-1.87 z m -11.3,30.68 a 10.6,10.6 0 0 1 -1.93,-1.41 l -0.16,4.34 a 7.63,7.63 0 0 0 1,2.35 c 0.67,0.78 1,1.09 1,1.76 0,0.67 1.4,2.28 1.61,3.73 a 27.59,27.59 0 0 0 0.67,3.35 l 1.29,-3.27 c -0.2,-1.17 -0.64,-1.57 -1,-3.71 -0.48,-2.89 -0.48,-6.15 -2.45,-7.14 z m 2.23,-26 c 1.09,0.16 2.59,0.6 4.46,1 a 7.87,7.87 0 0 1 3.63,1.71 c 0.83,0.62 1.5,0.16 3.89,1.55 0.5,0.29 1.11,0.63 1.76,1 l 1,-2.62 -0.35,-0.23 c -0.83,-0.57 -2.75,-0.88 -3.21,-1.66 -0.46,-0.78 -2.33,-1.24 -3.47,-1.66 -1.14,-0.42 -0.41,-1.24 -1.92,-1.24 a 10.76,10.76 0 0 1 -3.94,-0.47 30,30 0 0 1 -3.47,-1.3 10.28,10.28 0 0 0 -1.51,-0.53 l -0.15,4.07 0.91,0.11 c 1.29,0.07 1.31,0.07 2.4,0.23 z M 418.34,145 c 1.14,-1.61 1.81,-2.54 2.07,-2 0.26,0.54 1.76,-0.83 2.44,-1.81 0.68,-0.98 2,-1.81 4.2,-3 a 10.1,10.1 0 0 1 2.17,-0.79 v -2.58 c -0.2,0.12 -0.4,0.23 -0.6,0.36 -1.5,1 -2.49,0.6 -4.09,1.55 -1.42,0.85 -0.62,-0.88 1.61,-2 0.91,-0.46 2,-1.09 3.11,-1.69 v -2.35 c -1.29,0.87 -2.55,1.71 -3.3,2.23 -1.71,1.19 -4.46,3.42 -5.39,4.09 -0.93,0.67 -1.19,0.57 -1.87,2.07 -0.68,1.5 -0.83,1.55 -2.44,2.9 -1.61,1.35 -3.52,3.26 -5,4.56 a 25.15,25.15 0 0 0 -4.46,4.92 c -0.62,1.19 -2.82,3.37 -3.7,4.46 -0.58,0.72 -1.2,1.34 -1.74,1.9 l -0.66,3 a 4.19,4.19 0 0 0 2.67,-1.81 c 1.61,-2 2.9,-4.51 3.94,-5.29 a 9.31,9.31 0 0 1 3.21,-2.07 c 1.61,-0.52 1.61,-1.55 3.06,-1.81 1.45,-0.26 3.63,-3.2 4.77,-4.84 z m 29.38,19.22 c -0.1,-1.4 -0.57,-1.66 -1,-1.61 -0.43,0.05 -0.52,-0.62 -0.67,-1.61 a 3.55,3.55 0 0 0 -0.19,-0.71 l -0.19,5.41 a 2.27,2.27 0 0 1 0.18,1.31 13.87,13.87 0 0 0 0.14,2.51 l 1.75,-4.46 c 0.01,-0.24 0.01,-0.52 -0.01,-0.8 z m -36.28,-52.6 a 11.7,11.7 0 0 1 1.3,-0.73 3.52,3.52 0 0 0 1.87,-1.3 24.74,24.74 0 0 1 4.5,-2.2 h -6.75 z m -29.63,-35 a 4.72,4.72 0 0 1 2.28,-1.4 c 1.09,-0.31 -0.16,-0.1 1.61,-1 1.77,-0.9 4.2,-1.35 6.63,-2.38 2.43,-1.03 3.16,-1.45 3.73,-1.14 0.57,0.31 0.73,0.1 2.75,-0.88 a 21.21,21.21 0 0 1 7.1,-2.38 c 2.8,-0.31 8.45,0.16 9.33,-0.41 0.88,-0.57 0.41,-1.5 -1.09,-1.61 a 76,76 0 0 0 -10.83,0.78 c -2.23,0.47 -5.08,1.19 -6.32,0.93 -1.24,-0.26 -2.69,-0.67 -2.44,-0.05 0.25,0.62 1.24,0.73 -0.67,1.09 a 8.74,8.74 0 0 0 -3,0.78 c -1.09,0.52 -0.93,-0.41 -2.54,0.36 -1.61,0.77 -3.68,1.19 -1.92,-0.05 1.76,-1.24 5.75,-3.63 8,-4.2 2.25,-0.57 1.66,0.05 3.06,0 a 8.88,8.88 0 0 0 3,-0.52 6,6 0 0 0 2.64,-1.19 c 1.5,-0.93 1,-1.87 2.59,-1.55 1.59,0.32 -0.21,2.12 2.38,1.3 a 11.23,11.23 0 0 1 4.82,-0.52 c 1.09,0 2.85,0.05 5.44,0 2.59,-0.05 4.66,0.05 6.32,-0.73 1.66,-0.78 2.18,-1.3 3.26,-1.45 1.08,-0.15 0.88,1.09 3.32,0.67 2.44,-0.42 2.54,-0.88 4.2,-1.24 A 7.42,7.42 0 0 1 439,60 c 1.3,0.21 6.37,0.1 5.44,0.36 -0.93,0.26 -2,1.19 -0.16,0.88 a 49,49 0 0 1 6.89,-0.16 12.24,12.24 0 0 0 4.77,-0.93 2.09,2.09 0 0 1 1.66,-0.1 c 0.26,0.16 1.24,-0.57 -0.31,-1 -1.55,-0.43 -4.09,1 -6.48,0.83 -2.39,-0.17 -3.89,-0.83 -3.42,-1.45 0.47,-0.62 -1.81,-1.3 -1.55,-0.73 0.26,0.57 0.47,1.45 -1.19,0.83 -1.66,-0.62 -2.8,-1.19 -3.52,-1 -0.72,0.19 1.76,0.93 0.16,1 -1.6,0.07 -2.44,-0.78 -5.7,-0.21 a 57.29,57.29 0 0 0 -5.6,1.3 6.15,6.15 0 0 1 -3.16,0.21 44.3,44.3 0 0 0 -7.72,0.31 c -2.23,0.26 -3.78,0.93 -6.17,0.78 -2.39,-0.15 -2.38,-0.62 -4.25,-0.88 -1.87,-0.26 -6.43,-0.16 -6.17,0.31 0.26,0.47 2.64,1 0.16,0.93 a 25.63,25.63 0 0 0 -6.48,0.62 c -2.64,0.52 -4.69,1.4 -4.35,0.88 0.34,-0.52 0.16,-0.88 -0.78,-0.52 -0.94,0.36 -1.92,0.41 -0.26,-0.67 1.66,-1.08 2.85,-2 4.09,-2 1.24,0 3.11,-0.21 2.54,-0.62 -0.57,-0.41 -0.52,-0.88 0.52,-0.83 1.04,0.05 0.88,0.78 2,1 a 3.89,3.89 0 0 0 3,-0.36 16.9,16.9 0 0 1 6.43,-1.09 12.76,12.76 0 0 0 4.72,-0.21 c 1.55,-0.36 3.63,-0.78 3.94,-1.3 a 1.55,1.55 0 0 1 1.66,-0.57 c 0.73,0.1 -0.21,-2 -1.24,-1.3 a 3.09,3.09 0 0 1 -2.85,0.47 c -1.24,-0.26 -2.23,-0.52 -2.28,-0.05 a 1.36,1.36 0 0 1 -1.92,0.88 5.75,5.75 0 0 0 -4.61,0.16 c -1.81,0.88 -1.5,2 -3.58,1.87 -2.08,-0.13 -2.23,-0.62 -3.68,-0.47 -1.45,0.15 -3,-0.21 -1.92,-0.52 a 20.76,20.76 0 0 0 4.26,-1.52 32.48,32.48 0 0 1 4,-1.59 c 1.76,-0.54 4,-1.92 3.83,-1.55 -0.17,0.37 -1.45,1.71 0.47,0.78 1.92,-0.93 2.15,-1.46 4.15,-1.76 3.29,-0.49 4.55,-0.19 4.43,-0.36 -0.29,-0.39 -1.27,-0.57 0,-0.57 a 17.41,17.41 0 0 0 3.68,0 c 1,-0.26 2.33,0.26 3.32,0.21 0.99,-0.05 0.83,-0.57 2.59,-0.88 1.76,-0.31 -0.1,0.73 1.45,0.57 1.55,-0.16 3.11,-0.36 4.35,-0.57 1.24,-0.21 -0.41,-0.62 1,-0.73 1.41,-0.11 11.35,-0.67 14.56,-0.52 3.21,0.15 5.62,0.57 6.55,0.36 a 9.86,9.86 0 0 1 3.52,0.28 c 0.78,0.21 2.77,0.39 5.73,0.85 a 20.64,20.64 0 0 1 4.15,0.88 c 2.07,0.57 2.38,0.88 4,1.19 a 7.42,7.42 0 0 1 3,1 c 2.12,0.93 2.82,0.49 3.91,1.27 a 14.36,14.36 0 0 0 5.29,2.23 c 2.07,0.36 2.07,0 4.87,1.19 a 25.89,25.89 0 0 1 5.6,3.11 47.72,47.72 0 0 0 5.29,3.21 c 1.71,0.88 3.63,1.81 4,2.64 0.37,0.83 2.28,0.21 2.54,1.3 0.26,1.09 2.05,1.33 2.83,2.33 0.78,1 0.67,1.76 2.07,3.16 1.4,1.4 2.88,2.18 3.08,3 0.2,0.82 0.39,1.37 0,1.74 -0.39,0.37 -1,0.05 -2,-1 -1,-1.05 -0.88,-1.71 -2,-2.75 -1.12,-1.04 -2.18,-0.83 -3.89,-1.66 a 76.61,76.61 0 0 1 -7.57,-5 c -1,-0.78 -1.19,-0.36 -2.33,-0.93 a 13.62,13.62 0 0 1 -3.32,-2.8 c -1,-1.09 -5.7,-3.83 -7.15,-3.94 -1.45,-0.11 -0.05,1.09 -1.61,0.52 -1.56,-0.57 -3.16,-2.18 -4.92,-2.33 -1.76,-0.15 0.26,-0.36 -2.38,-1.09 -2.64,-0.73 -10.26,-3.73 -12.44,-3.73 -2.18,0 -1.92,0.16 -3.21,0.16 -1.29,0 -3.52,-0.57 -5.29,-0.62 -1.77,-0.05 -0.57,-1 -3.73,-0.73 -3.16,0.27 -7.82,0.88 -10.1,0.73 -2.28,-0.15 -2.64,-0.83 -3.37,-0.88 -0.73,-0.05 -0.41,-0.16 -1.81,0.73 a 9.87,9.87 0 0 1 -6.27,1.14 36.72,36.72 0 0 0 -7.2,0.05 c -2.28,0.21 -3.83,0.1 -3.68,0.67 0.15,0.57 -0.1,1.24 1.76,1.14 1.86,-0.1 3.16,-0.21 3.32,-0.67 0.16,-0.46 0.16,-0.93 2.69,-0.31 a 14.89,14.89 0 0 0 6.53,0.31 c 2.18,-0.36 4.61,-0.16 7.15,-0.67 2.54,-0.51 4,-1.3 5.86,-1.14 1.86,0.16 1.4,0.62 3.58,0.52 2.18,-0.1 4.25,0.05 5.29,-0.1 a 4,4 0 0 1 2.69,0.1 c 1.19,0.47 2.07,-0.05 3.11,0.47 a 12.54,12.54 0 0 0 5.44,1.4 c 2.18,-0.05 6.68,2 8.86,2.49 a 9.91,9.91 0 0 1 4.33,1.71 c 1.24,0.93 2.82,1.24 4.12,2 1.3,0.76 2.59,-0.31 4.15,0.93 1.56,1.24 3.37,1.66 6.11,4.15 2.74,2.49 6,3.21 7.93,4.72 1.93,1.51 3.68,1.87 3.63,2.9 -0.05,1.03 -1.35,0.88 0.57,1.45 1.92,0.57 3.58,2.59 5,4.4 1.42,1.81 1.7,3.44 3.37,5 1.67,1.56 0.48,0.71 1,1.61 0.52,0.9 3.83,1.76 2.33,1.81 -1.5,0.05 -2.8,-0.83 -4.51,-2.49 -1.71,-1.66 -3.42,-3.32 -5.49,-3.63 -2.07,-0.31 -1.5,-0.67 -0.67,1.14 0.83,1.81 -0.31,-0.1 2.38,2.12 a 15.42,15.42 0 0 1 3.37,3.63 c 0.67,0.73 1.5,0.67 1.19,1.3 -0.31,0.63 -0.93,0.93 0.83,2 1.76,1.07 2.9,1.81 3.06,2.75 0.16,0.94 0.52,0.93 -1.66,-0.36 -2.18,-1.29 -2.69,-2.23 -5,-4 -2.31,-1.77 -2.18,-1.35 -4.56,-3.06 A 21.43,21.43 0 0 1 506,84.51 c 0,0 -0.88,-2.54 -6.22,-4.92 -5.34,-2.38 -3.89,-2.07 -6.43,-2.9 a 40.22,40.22 0 0 1 -6,-2.59 c -3.21,-1.5 -6.37,-3.26 -9,-3.73 -2.63,-0.47 -0.41,0.57 -4.66,-0.47 -4.25,-1.04 -8.76,-3 -11.24,-2.85 -2.48,0.15 -3.42,0.57 -5.29,-0.21 -1.87,-0.78 -3.83,-1.24 -1.55,-1.92 2.28,-0.68 3.11,-1.81 5.65,-0.62 2.54,1.19 4.09,0.83 6.27,0.88 a 22.19,22.19 0 0 1 7.46,1.19 c 2.9,1 6,1.81 8.39,2.59 2.39,0.78 3.63,0.83 5.18,1.76 1.55,0.93 1.66,0.16 2.54,1.14 0.88,0.98 -0.1,1 1.55,1.55 1.65,0.55 3.11,0.26 4.87,0.93 a 37,37 0 0 1 7.46,4.87 c 1.4,1.3 1.24,0.36 -0.52,-1.3 a 22.83,22.83 0 0 0 -6.32,-4.3 c -1.76,-0.62 -5.13,-2 -6,-2.38 -0.87,-0.38 -1.35,-0.83 -2.28,-1.14 a 21,21 0 0 1 -2.69,-0.62 c -1.3,-0.52 -5.54,-2.07 -8.14,-3.16 -2.6,-1.09 -2.12,-1 -4.35,-1.19 -2.23,-0.19 -2.64,-0.78 -5.7,-1.14 -3.06,-0.36 -2.54,-1.55 -4.25,-1.14 a 10,10 0 0 1 -4,0.41 c -2,-0.1 -2.38,-0.52 -4,-0.1 -1.62,0.42 -3.26,0.67 -5.65,1.19 -2.39,0.52 -4.66,0.26 -6.68,0.36 -2.02,0.1 -2.69,0.67 -5.08,1 -2.39,0.33 -4.25,0.62 -3.68,0.83 0.57,0.21 2.9,0.57 -1.19,0.73 -4.09,0.16 -4.66,1.3 -7.1,1.35 -2.44,0.05 -3.47,0.83 -5,1.09 -1.53,0.26 -1.3,-0.31 -5.39,0.26 -4.09,0.57 -10.31,1.92 -12.23,2.23 -1.92,0.31 -1.76,-0.67 -2.8,-0.36 -1.04,0.31 0.26,0.62 -2.75,1.24 -3.01,0.62 -4.09,-0.21 -5.23,0.47 -1.14,0.68 -0.78,1.4 -2.49,1.24 -1.71,-0.16 -0.21,-0.83 -3.52,0.26 -3.31,1.09 -7.16,2.53 -6.13,1.65 z m 76.9,-19.07 c 2.44,0 2.69,0.83 3.52,1.3 0.83,0.47 4.82,0.52 8.29,1.81 3.47,1.29 4.92,2 7.51,2.18 a 13.37,13.37 0 0 1 4.15,0.83 c 0,0 3.16,1.19 5.29,2 2.13,0.81 2,0.05 3,0.78 a 9,9 0 0 0 2.9,1.71 c 1.24,0.41 0.93,0.57 1.45,1.3 0.52,0.73 2.8,1.55 4.2,2 a 8.7,8.7 0 0 1 3.68,1.92 c 1.55,1.3 3.21,2.54 3.68,3.11 a 15.32,15.32 0 0 0 -3.16,-4.15 8.57,8.57 0 0 0 -3.21,-1.3 c -1.45,-0.47 -2.07,-1.61 -3.21,-2.07 -1.14,-0.46 -1.5,-0.21 -2.38,-1 a 23.9,23.9 0 0 0 -3.63,-2.18 14.69,14.69 0 0 0 -4.66,-2.12 c -2.18,-0.41 -2.9,-0.05 -4,-0.88 -1.1,-0.83 -10.73,-3.73 -13.32,-4.15 -2.59,-0.42 -5.91,-2.07 -6.53,-1.76 a 2.38,2.38 0 0 1 -1.76,0.21 c -0.57,-0.16 1.66,-0.67 -0.41,-0.93 -2.07,-0.26 -2.64,-0.57 -4.56,-0.36 a 14.68,14.68 0 0 1 -4.61,-0.47 c -1.88,-0.38 -1,-0.26 -3.47,-0.16 -2.47,0.1 -2.59,0.67 -0.41,0.83 2.18,0.16 1.45,1 3.73,1 2.28,0 3.94,-0.88 5.29,-0.21 1.35,0.67 0.2,0.83 2.63,0.83 z m -41.45,9.07 c 0.41,0.1 2.59,0.05 4,0.26 a 17.1,17.1 0 0 0 2.54,0.36 c 0.88,0 0.16,-0.88 0.83,-1 a 29.5,29.5 0 0 1 3.58,-0.21 c 2.07,-0.1 3.63,-1.3 7.36,-1.45 3.73,-0.15 3.54,-1.29 6.14,-1.53 0.57,-0.05 0.61,0 2,-0.18 1.39,-0.18 -2.23,-0.57 -4,-0.36 a 83.11,83.11 0 0 0 -10.57,1.92 c -4.46,1.14 -1.24,-0.1 -2.33,-0.31 -1.09,-0.21 -0.73,0.47 -2,0.78 -1.27,0.31 -0.88,-0.47 -2.44,0.21 -1.56,0.68 -2.38,0.47 -4,0.41 -1.62,-0.06 -1.53,1.06 -1.11,1.17 z m 64.25,64.1 c 1.09,1.66 2.12,2.44 2.69,3.78 0.57,1.34 0.47,1.66 0.67,2.07 0.2,0.41 -1.3,-1.87 -2.33,-3 a 27.08,27.08 0 0 1 -2.33,-3.48 l -0.64,-1.07 -0.91,2.17 a 4.41,4.41 0 0 1 0.27,0.59 6,6 0 0 0 1.27,2.51 3.22,3.22 0 0 0 1.19,0.93 c 0.67,0.31 0.05,0.62 0.47,1.3 0.42,0.68 1.09,1.14 1.45,1.66 0.36,0.52 1.35,0.93 1.35,1.81 a 4.28,4.28 0 0 0 1.76,2.8 c 0.88,0.62 0.36,1.76 1.19,3.21 0.83,1.45 0.31,1.45 0.93,2.23 0.62,0.78 1.19,3 2.07,4.56 0.88,1.56 1.45,1.61 1.5,2.33 0.05,0.72 0.78,3.58 1.4,3.94 0.62,0.36 0.52,-0.41 1.19,0.62 0.67,1.03 1.61,3.81 2.54,4.53 a 12.86,12.86 0 0 1 2.28,2.46 c 0.73,0.93 1,2.49 1.61,2 0.61,-0.49 0.73,-0.1 0.78,0.57 a 2.66,2.66 0 0 0 1.92,2.59 c 1.55,0.31 2.44,0.57 2.49,1.5 0.05,0.93 -0.1,1.24 1.09,1.24 1.19,0 0.36,-2 0.93,-1.3 0.57,0.7 0.1,1.09 1,1.5 0.9,0.41 0.78,-0.93 1.24,-0.36 0.46,0.57 1.87,0.62 0.78,-0.47 -1.09,-1.09 -4,-3.11 -4.92,-4 -0.92,-0.89 -0.05,-1.09 -1.14,-1.61 -1.09,-0.52 -2.8,-0.83 -2.28,-1.24 0.52,-0.41 0.93,-1 -0.1,-1.81 -1.03,-0.81 -1,-0.62 -1.5,-1.55 -0.5,-0.93 -1.55,-3.16 -2.64,-3.89 -1.09,-0.73 -1.92,-1.4 -1.87,-2.23 0.05,-0.83 0.73,-0.67 -0.41,-1.55 a 21.09,21.09 0 0 1 -1.61,-2.56 c -0.8,-1.2 -0.93,-2.59 -1.87,-4 -0.54,-0.78 -0.56,-1.43 -1,-1.87 a 13.39,13.39 0 0 1 -1.66,-3.83 13.46,13.46 0 0 0 -0.93,-2.69 c -0.93,-1.35 -0.83,-2.28 -1.24,-3.26 -0.41,-0.98 -1.66,-2.64 -2.07,-4.09 -0.41,-1.45 -1.92,-5.91 -3.21,-7.25 -1,-1 -1.44,-1.22 -1.68,-1.59 l -1.16,2.77 a 21.85,21.85 0 0 0 1.44,3.1 z m 10.21,-20.68 c -0.82,-0.74 -1.79,-1.92 -2.94,-2.93 l -0.79,1.88 a 19.32,19.32 0 0 1 2.07,2.71 c 1,1.3 0.41,1 1.55,2.28 1.14,1.28 2,1.45 3.06,3.26 1.06,1.81 0.7,-0.21 1.42,1.61 0.72,1.82 2.28,3.89 3.76,6.53 1.48,2.64 0.83,2 3.16,4.4 2.33,2.4 3.32,3.16 3.16,3.94 -0.16,0.78 -0.05,0.36 0.93,1 0.98,0.64 -0.57,0.67 0.78,2.07 1.35,1.4 1.71,1.55 2.28,3.06 0.57,1.51 1.71,1.55 2.33,2.54 0.62,0.99 -1.61,0.16 -0.16,1.14 1.45,0.98 0.88,1.76 1.71,2.33 a 12.19,12.19 0 0 1 2.69,2.41 c 0.18,0.47 -0.41,1 0.67,2 1.08,1 0.41,0.16 0.36,-0.67 -0.05,-0.83 2.33,-0.57 0.83,-1.5 -1.5,-0.93 0,-1.81 -1,-1.81 a 1.28,1.28 0 0 1 -1.3,-1.81 c 0.36,-1.09 0.57,-0.73 -0.31,-1.71 -0.88,-0.98 -1.45,-3.63 -2.8,-3.89 -1.35,-0.26 -2.38,-0.57 -2.23,-1.87 a 4.48,4.48 0 0 0 -0.47,-2.69 c -0.41,-1.24 -2.12,-4.3 -2.12,-3.42 0,0.88 -0.1,0.47 -1.55,-0.83 a 13.54,13.54 0 0 1 -2.59,-3.32 c -0.62,-0.93 -0.93,0 -2.07,-2.07 -1.14,-2.07 -1.5,-4.25 -2.75,-5.75 -1.25,-1.5 -0.78,-1.55 -1.76,-2.49 -0.98,-0.94 -0.83,-1.24 -2.12,-2.38 a 20.14,20.14 0 0 0 -3.06,-2.49 c -0.9,-0.47 0.35,-0.47 -0.74,-1.46 z m 14.61,4.77 c -0.52,-0.57 -1.66,-1 -2.12,-2 a 41.86,41.86 0 0 0 -4.72,-5.54 7.36,7.36 0 0 1 -1.92,-2.18 c -0.21,-0.57 -3.42,-3.06 -3.42,-3.06 0,0 -1.58,-0.81 -2.62,-1.51 l -1.27,3 a 5.69,5.69 0 0 1 2.65,1.7 c 0.67,1 3.58,3.16 4.35,4 a 44.34,44.34 0 0 1 3.21,3.11 c 0.83,1.14 2.18,3.26 3.11,4.51 0.93,1.25 2,2 2.33,2.85 0.33,0.85 -0.31,0.67 0.41,1.4 0.72,0.73 1.55,1 1.81,1.81 0.26,0.81 -0.62,0.26 0.16,1.61 0.78,1.35 0.36,2 2.38,3.26 a 9.07,9.07 0 0 1 3.78,3.63 c 1.45,2.12 2.23,1.45 3.42,2.64 1.19,1.19 1.87,2.54 2.64,2.69 0.52,0.1 -0.21,-0.83 -0.52,-2.28 -0.31,-1.45 -1.5,-2.07 -2.12,-3 -0.62,-0.93 0.36,-0.78 0.1,-1.61 a 4.07,4.07 0 0 0 -2.38,-2.23 c -1.14,-0.41 -1.66,-0.67 -1.87,-2.07 a 5.26,5.26 0 0 0 -1.66,-2.9 c -0.78,-0.93 -0.52,-0.05 -1.55,-1.71 -1.03,-1.66 -3.78,-3.94 -3.89,-4.66 -0.11,-0.72 0.23,-0.82 -0.29,-1.39 z M 398.91,53.47 a 5.56,5.56 0 0 1 2.28,-1.35 c 1,-0.21 1,0.47 2.07,-0.05 1.07,-0.52 2,-1.3 3.42,-1.87 a 6.38,6.38 0 0 1 3.47,-0.83 c 2,0 0.93,0.41 3.21,-0.16 A 29.3,29.3 0 0 1 421.3,48 c 6.4,0.13 5.18,-0.62 8.34,-0.73 2.54,-0.08 5.85,0 9.84,-0.22 1,-0.05 0.48,-0.47 1.4,-0.5 7.36,-0.31 2.72,0.26 5.49,0.29 2.45,0 4.28,-0.1 5.85,0.07 2.33,0.26 2.72,0.67 3.91,0.47 a 9.08,9.08 0 0 1 4.43,-0.21 10.06,10.06 0 0 1 3,1 c 1.14,0.47 2.28,0.26 4,0.67 1.72,0.41 0.78,0.41 1.66,0.78 0.88,0.37 1,-0.62 2.85,-0.26 1.85,0.36 4.15,1 3.58,1 -0.57,0 -1,0.36 1.3,1.35 a 8.72,8.72 0 0 0 4.66,0.8 c 0.78,-0.1 3.73,1.37 5.39,2.15 1.66,0.78 0.26,0.62 1.24,1.19 0.98,0.57 2.75,0.67 4.15,1.4 1.4,0.73 4.2,3.06 4.46,2.38 0.26,-0.68 0.05,-1.09 1.81,0.16 1.76,1.25 3.16,3 5.54,4.4 2.38,1.4 0.31,1.14 3.78,1.76 3.47,0.62 5.42,0.65 4.84,0.23 A 8.7,8.7 0 0 1 511.2,65 c -0.83,-0.83 -1.4,-1.61 -0.47,-1.45 0.93,0.16 0.1,-0.52 -1.45,-1.66 a 7.14,7.14 0 0 0 -3.37,-1.66 9.68,9.68 0 0 1 -3.6,-1.68 c -0.62,-0.57 -2.44,-1.42 -1.5,-1.37 0.94,0.05 1.53,0.05 -0.75,-1 -2.28,-1.05 -4.61,-2.49 -4.4,-1.92 0.21,0.57 -2,-1.5 -3.86,-1.92 a 14,14 0 0 1 -4.53,-1.45 32.77,32.77 0 0 0 -5.6,-2.44 c -0.49,-0.14 -1.15,-0.31 -1.93,-0.49 -1.6,-0.37 -3.72,-0.52 -6.1,-1.12 -0.87,-0.22 -1.94,-0.32 -3,-0.56 -1.58,-0.35 -3.41,-0.52 -4.91,-1 A 31.64,31.64 0 0 0 461.77,44 c -2.52,-0.42 -4.61,-1.4 -5,-1.09 -0.39,0.31 0.36,0.67 -1.09,0.52 -1.45,-0.15 -0.62,-1.09 -1.61,-0.88 -0.99,0.21 -0.05,1.09 -2.28,0.83 a 16.6,16.6 0 0 0 -4.72,-0.16 c -1.55,0.21 -4.27,-0.8 -5.08,-0.73 a 4.27,4.27 0 0 0 -2.54,0.67 c -0.73,0.62 0.67,0.62 -1.81,0.36 a 34.22,34.22 0 0 0 -6.89,-0.05 c -1.76,0.21 -1.35,-0.36 -3.47,-0.36 -2.12,0 -2.28,1 -3.16,0.88 -0.88,-0.12 -0.36,-0.93 -2.07,-0.41 a 23.38,23.38 0 0 0 -3.94,1.55 2.71,2.71 0 0 1 -2.28,-0.05 c -0.73,-0.36 -1,-0.26 -2.12,0.1 -1.12,0.36 -2.38,0.05 -6,1 -3.62,0.95 -5.65,1.87 -6.22,2.49 -0.57,0.62 0.78,0.73 0.16,1.35 -0.62,0.62 -2.44,2.54 -2,1.45 0.44,-1.09 0.17,-1.39 -1.3,0.1 -1.47,1.49 -2.79,2.55 -3.37,3.06 -0.98,0.81 3.26,-0.63 3.93,-1.16 z m -19.45,31.87 a 9.51,9.51 0 0 1 2.88,-1.87 c 1.14,-0.47 3.32,-0.52 5.13,-0.78 1.81,-0.26 0.88,-0.73 1.45,-1.09 0.57,-0.36 1.24,-0.31 3.26,-0.62 a 11,11 0 0 0 4.61,-2 c 0.62,-0.52 -2.18,-0.26 -3.94,0 -1.76,0.26 -0.93,-0.21 -1.24,-0.31 -0.31,-0.1 -3.16,1.14 -6,2 -2.84,0.86 -3.54,0.4 -3.89,-0.41 -0.16,-0.36 -0.47,-0.52 0.41,-0.36 0.88,0.16 2.18,-0.47 4,-1.3 1.82,-0.83 1.76,-0.21 3.42,-0.31 1.66,-0.1 1.35,-1.24 3.63,-1.45 2.28,-0.21 3,0.05 3.58,-0.41 0.58,-0.46 0.67,-0.62 2.23,-0.78 a 9.19,9.19 0 0 0 3.32,-1.3 c 0.83,-0.36 0.67,-0.57 1.71,-0.62 A 15.45,15.45 0 0 0 408.5,73 c 1.09,-0.52 2.44,-0.57 5.13,-0.52 2.69,0.05 2.54,0.05 3.52,-0.47 a 11.41,11.41 0 0 1 3.73,-1 c 1.5,-0.21 6.43,-0.93 9.17,-1.19 2.74,-0.26 4.2,-1.45 7,-1.92 2.8,-0.47 1.81,-0.78 1.35,-1 -0.46,-0.22 0.83,-0.52 2.49,-0.73 1.66,-0.21 2.64,-0.21 4.87,-0.47 A 29.32,29.32 0 0 0 449.9,65 c 2.64,-0.52 0.31,0.52 1.45,0.52 1.14,0 2.9,1.24 4.66,2 1.76,0.76 3.21,0.31 6,0.41 2.79,0.1 3.37,1.09 6.32,1.92 a 30.86,30.86 0 0 0 6.89,1.19 c 1.81,0.1 0.36,0.78 1.14,1 a 28,28 0 0 0 3.47,0.57 c 1.66,0.26 0.93,-0.78 1.92,-0.52 0.99,0.26 1.45,0.93 3.37,1.76 1.92,0.83 2.9,1.19 4.92,2 2.02,0.81 1.55,1 3.06,2.07 1.51,1.07 4.15,1.19 5.39,1.87 1.24,0.68 1.5,2.33 4.15,4.15 2.65,1.82 4.09,1.76 4.61,3.47 A 3.2,3.2 0 0 0 509.8,90 c 0.93,0.21 1.87,1.71 2.64,2.44 0.77,0.73 0.78,-0.52 1.19,0.21 a 17.73,17.73 0 0 0 3.37,3.78 c 1.66,1.45 0.52,2.38 2.07,2.54 1.55,0.16 2,1.24 1.19,1.81 -0.81,0.57 1,1.87 -0.1,1.66 -1.1,-0.21 -1.09,-0.62 -1.55,-1.55 -0.46,-0.93 -0.73,-0.83 -2.64,-1.14 -1.91,-0.31 -1.55,-2.18 -2.64,-3.52 -1.09,-1.34 -6.27,-4.15 -5.49,-3.06 a 19.88,19.88 0 0 0 3,3 c 1.09,1 3.78,3 4,3.94 0.22,0.94 1.71,2 3.21,2.85 1.5,0.85 0.62,1.35 1,2 0.38,0.65 -0.62,0.83 -0.31,1.09 0.31,0.26 1.71,1.4 2.49,1.35 0.78,-0.05 -0.16,1 -1.71,1 -1.55,0 -2.69,-2 -3.89,-2.8 -1.2,-0.8 -0.31,1.81 0.05,1.45 0.36,-0.36 0.88,0.16 1.55,1.5 0.67,1.34 1.81,3.06 2.33,3.89 0.52,0.83 1.66,1 2.38,2.44 0.72,1.44 -0.36,1.24 -1.4,0.26 a 16.49,16.49 0 0 1 -2.49,-2.8 c -0.93,-1.3 -2.33,-1.09 -3.89,-2.9 -1.56,-1.81 -0.88,-1.71 -1.5,-2.69 a 8.3,8.3 0 0 0 -2.72,-2.46 30.91,30.91 0 0 1 -5,-5.52 c -0.93,-1.4 -1.19,-0.83 -2.18,-1.3 a 17.42,17.42 0 0 1 -4,-3.11 28.3,28.3 0 0 0 -3.25,-2.93 l 0.51,-1.22 h -2.23 c -0.48,-0.33 -0.7,-0.51 -1.76,-1.24 -1.5,-1 -2.59,-1.35 -4.56,-2.49 -1.97,-1.14 -6,-3.52 -6.48,-3.94 a 29.79,29.79 0 0 0 -4.56,-2 c -0.62,-0.16 -1.09,0.1 -1.14,0.47 -0.05,0.37 -1.5,-0.41 -1.92,-0.83 a 11.45,11.45 0 0 0 -3.78,-1.68 c -1.71,-0.47 -2.69,-0.54 -2.69,-0.28 0,0.26 -0.49,0.13 -1.58,-0.16 -0.67,-0.18 -0.93,-0.16 -1.19,-0.73 -0.26,-0.57 -2,-0.62 -3.45,-0.83 -1.45,-0.21 -0.88,0.73 -1.55,0.67 -0.67,-0.06 -3.63,0.26 -3.32,-0.16 0.31,-0.42 -3.56,-0.38 -5.18,-0.57 -0.91,-0.1 -3.06,0.34 -2.36,0.62 1,0.41 -2,0.23 -4.12,0.6 -2.12,0.37 -0.18,-0.73 -1.68,-0.57 -1.5,0.16 -2.51,0.62 -4.12,0.52 -1.61,-0.1 -3.47,0.49 -4.56,0.18 a 5.58,5.58 0 0 0 -3.06,0.05 c -1.14,0.26 -4.66,1.14 -6.84,1.4 -2.18,0.26 -8.29,1.19 -11,1.71 a 15.78,15.78 0 0 0 -5.29,2 7.7,7.7 0 0 1 -3.26,0.93 c -1.14,0.05 -0.93,0.21 -1.76,0.67 -0.83,0.46 -3.94,1.4 -4.92,1.76 -0.98,0.36 -0.57,-0.1 -1.5,0.16 -0.93,0.26 -1,1.24 -2.54,1.35 a 31.15,31.15 0 0 1 -3.52,-0.16 c -0.88,0 -1.3,0.41 -2.85,1.35 a 12.38,12.38 0 0 1 -4,1.19 h -3.28 a 11.05,11.05 0 0 1 1.36,-0.88 10.29,10.29 0 0 1 2.75,-0.47 c 1.24,-0.16 -0.05,-0.62 -0.73,-0.88 -0.68,-0.26 1.24,-1 3,-1.76 1.76,-0.76 6.79,-1.35 8.71,-2.07 1.92,-0.72 5.39,-2.69 7.67,-3.37 2.28,-0.68 2.77,0.26 4.17,-0.41 0.23,-0.11 0,-0.83 1,-1.61 1,-0.78 7,-2 8.71,-2.18 1.71,-0.18 1.66,-0.88 -0.36,-1.17 -1.44,-0.2 -4.61,1.22 -6.11,1.63 a 9,9 0 0 1 -3.58,0.62 5.65,5.65 0 0 0 -3.11,0.52 6.07,6.07 0 0 1 -1.71,1.24 c -0.83,0.31 -2.54,0.41 -2.33,0.62 0.21,0.21 -3.11,2 -4.46,2.59 -1.35,0.59 -1,0.05 -2.38,0.1 -1.38,0.05 -2.69,1.24 -5,1.76 -2.31,0.52 -3.58,-0.31 -4.72,0.05 -1.14,0.36 -2,1.55 -3.37,1.71 -1.37,0.16 -0.34,-0.56 -0.02,-0.9 z m 103.92,-9 c 2,0.41 1.3,0.93 3.06,2.54 1.76,1.61 4.35,2.18 5.54,3 a 32.5,32.5 0 0 0 6.89,3.52 c 2.33,0.67 4.66,4.35 6.63,5.29 1.97,0.94 1.66,-0.05 0.47,-0.62 -1.19,-0.57 -3.63,-3.21 -4.3,-3.94 a 14.19,14.19 0 0 0 -5.29,-2.59 c -2.18,-0.57 -5.49,-3.73 -6.53,-4.2 a 9.65,9.65 0 0 1 -3.68,-2.38 c -1.09,-1.3 -2.88,-1 -4.25,-1.45 -0.51,-0.17 -0.51,0.49 1.46,0.87 z m -45.7,-7.1 c 0.95,0.95 2,2.07 3.89,2 1.89,-0.07 6.22,-1 8.19,-0.93 a 15.76,15.76 0 0 1 4.72,0.47 c 1.35,0.47 0.67,1.61 2.28,1.61 a 18.89,18.89 0 0 1 7.15,1.35 c 2.33,1.09 3.78,-0.21 5,0.62 a 38.38,38.38 0 0 0 4.35,2.12 29.94,29.94 0 0 0 6.37,2.18 c 1.55,0.36 1.45,0.05 2.23,0.57 0.78,0.52 0.21,0.78 1.3,1.3 1.09,0.52 0.73,1.45 2.75,2.33 2.02,0.88 4.77,1.14 5.23,1.61 a 6,6 0 0 0 2,1.76 21.91,21.91 0 0 1 3.68,2.64 c 1.19,1 3.06,1.87 4.25,3.21 1.19,1.34 3.42,1.92 4.09,2.8 a 15.21,15.21 0 0 0 1.76,2.54 12.46,12.46 0 0 0 3.52,2.75 14.23,14.23 0 0 1 2.28,2.07 c 0.73,0.73 2.38,1.4 1.66,0.41 a 27.27,27.27 0 0 0 -4,-3.21 c 0,0 -3.35,-2.64 -3.73,-3.78 -0.38,-1.14 -3.42,-3.63 -4.72,-4.46 -1.3,-0.83 -1.76,-0.73 -2.69,-1.3 -0.93,-0.57 -0.88,-1.55 -1.92,-2.23 -1.04,-0.68 -3.32,-1.61 -4.2,-2.28 -0.88,-0.67 -0.86,-1.87 -2.8,-2.49 -1.94,-0.62 -5.32,-1.55 -6.32,-2.32 -1,-0.77 -1.24,-1.87 -2,-2.23 -0.76,-0.36 -0.36,-0.05 -3.89,-1.45 -3.53,-1.4 -5.08,-2 -6.06,-2.54 -0.98,-0.54 -1,-0.05 -2.12,-0.36 a 17.37,17.37 0 0 0 -4.72,-1.19 11.65,11.65 0 0 1 -3.58,-0.47 28.08,28.08 0 0 0 -3.94,-1.19 c -1.4,-0.26 -4.88,-1.39 -5.13,-1.45 -1.81,-0.47 -4.66,-1 -6,-0.73 -1.34,0.27 -0.73,0.52 -2.64,0.67 -1.91,0.15 -6.87,-0.98 -6.25,-0.36 z m -15.91,6.27 a 40,40 0 0 1 7.46,-0.57 c 1.09,0.21 3.83,-0.73 6.58,-0.62 2.75,0.11 5.7,-0.31 7,-0.31 1.3,0 3.37,0.57 5.7,0.52 2.33,-0.05 2.9,-0.57 6.11,-0.88 3.21,-0.31 0.16,-0.67 -0.41,-0.57 -0.57,0.1 -1.87,0 -4.09,0 -2.22,0 -6.63,0.36 -9.07,0.05 -2.44,-0.31 -5,-0.31 -6.74,-0.41 a 26.18,26.18 0 0 0 -5.8,0.41 c -1.5,0.31 -1.24,0.73 -2.38,0.67 a 25.51,25.51 0 0 0 -6.94,1.24 c -0.79,0.35 0.04,0.87 2.57,0.51 z m 58,-43.42 a 13.06,13.06 0 0 1 4.15,1.61 c 1.3,0.62 1.45,-0.21 2.38,-0.47 0.93,-0.26 0,0 -1.61,-1.09 a 12.84,12.84 0 0 0 -5.8,-2.12 c -0.88,-0.1 -0.62,0.57 -1.87,0.62 -1.25,0.05 0.98,1.23 2.73,1.49 z m -39,-8.45 a 14.65,14.65 0 0 1 4.25,0.05 c 1.76,0.36 4.77,1.09 5.54,0.62 0.77,-0.47 0.88,-0.47 2.38,-0.36 1.5,0.11 0.93,-0.88 0.21,-1 -0.72,-0.12 -0.31,0.52 -1.92,0.1 -1.61,-0.42 -1.61,-1 -3.94,-1.09 -2.33,-0.09 -3,-0.05 -4.56,0.52 -1.56,0.57 -3.61,1.25 -2,1.2 z M 405.86,44 a 11.69,11.69 0 0 1 3.58,-0.31 c 1.09,0 0.93,-1.14 2.18,-0.78 1.25,0.36 1.3,-0.26 3.58,-0.16 2.28,0.1 2.07,-1 3.63,-0.83 a 21.39,21.39 0 0 0 5.39,-0.16 c 2,-0.26 5.8,-1 7,-0.62 1.2,0.38 0.88,0.88 2.33,0.57 1.45,-0.31 0.26,-1.4 2.28,-0.83 2.02,0.57 3.47,-0.1 8.24,0.1 4.77,0.2 6.17,-0.21 8.45,0.36 a 9.38,9.38 0 0 0 3.52,0.41 69.7,69.7 0 0 1 9.38,1.61 c 2.33,0.57 1.87,0.52 3.68,1 1.81,0.48 1.55,0.88 3.68,1.09 2.13,0.21 4.12,0.63 5.57,0.78 1.45,0.15 1.84,0.67 3.08,1.19 1.24,0.52 4.56,1.19 5.8,1.87 A 18.34,18.34 0 0 0 491.3,51 c 0.88,0.16 0,-1 1.55,-0.05 1.55,0.95 3.52,2.23 4.46,2.85 0.94,0.62 0.26,-1.4 1,-0.73 0.74,0.67 0.47,1.81 2,2.38 1.53,0.57 2.18,0.1 3,0.57 0.82,0.47 -0.93,0.31 2,1.5 a 14.44,14.44 0 0 0 4.2,1.24 c 0,-0.47 -1.55,-0.88 -1.87,-1.81 -0.32,-0.93 -0.26,-2.64 -1.81,-3.63 -1.55,-0.99 -3.63,-2.07 -4.51,-1.55 -0.88,0.52 -2.33,0.1 -3.63,-1.24 -1.3,-1.34 -1.45,-2.28 -2.44,-2.64 -0.99,-0.36 -0.88,0.16 -2.28,-0.1 -1.4,-0.26 -6,-1.87 -5.13,-2.12 0.87,-0.25 1.5,-1.09 -1.09,-1.3 -2.59,-0.21 -4,0.26 -5.39,-0.21 -1.39,-0.47 -0.31,-1 -1.4,-1.19 -1.09,-0.19 -2.44,-1.09 -3.78,-0.78 a 4,4 0 0 1 -2.64,-0.1 c -0.88,-0.26 -4.46,0.26 -5.49,-0.21 -1.03,-0.47 -1,-1.3 -2.8,-1.3 -1.8,0 -2.85,0.1 -3.89,-0.41 -1.04,-0.51 -2.85,-0.88 -3.42,-1.35 -0.57,-0.47 -1.3,-1.71 -0.52,-1.24 a 14.78,14.78 0 0 0 5.18,1.4 c 2.07,0.16 2.8,1.19 4.92,1.4 2.12,0.21 5.34,-0.05 6.68,0.36 1.34,0.41 1.71,0.41 3,0.73 a 58.75,58.75 0 0 0 6.27,1.5 26.61,26.61 0 0 1 4.56,0.83 c 1.3,0.36 1.87,0.93 2.38,1 0.51,0.07 1.45,0.83 0.41,0.83 -1.04,0 1.24,1.09 3,1.19 a 3.88,3.88 0 0 1 2.54,0.67 c 1.3,0.62 1.45,1.09 3,1.71 a 33,33 0 0 0 3.5,1 c 0.88,0.31 0.47,-0.57 0.13,-1.09 -0.34,-0.52 -0.85,-0.43 -0.54,-1.45 0.16,-0.52 0.91,-1.66 -1,-0.73 -1.91,0.93 -3.32,0.93 -2.69,0.16 0.63,-0.77 2,-1.5 0.31,-2.23 -1.69,-0.73 -2.64,-1 -4.15,-1.61 a 25.68,25.68 0 0 0 -5,-1.4 19.44,19.44 0 0 1 -4.51,-1.55 11.31,11.31 0 0 0 -4.4,-0.41 c -1.35,0.05 -3.52,-0.05 -4.4,-0.83 -0.88,-0.78 -3.52,-1.35 -4.72,-1.81 -1.2,-0.46 -1.19,0.1 -2.28,0 -1.09,-0.1 -1.52,-1.25 -3.61,-1.13 -2.09,0.12 -3,-1 -3.78,-0.57 a 3.27,3.27 0 0 1 -3,0.26 c -0.78,-0.52 -2.8,-0.62 -1.09,-1.19 a 9.82,9.82 0 0 1 5.39,-0.41 c 2.07,0.41 0.93,-0.67 2.8,-0.16 1.87,0.51 4.35,2 5.8,2.07 1.45,0.07 0.62,-0.26 2.33,0.16 1.71,0.42 2.59,1.3 3.83,1.66 1.24,0.36 1.14,-0.16 2.12,-0.16 0.98,0 0.73,0.78 2.28,1 a 51.44,51.44 0 0 1 5.39,1 c 1.61,0.47 0.78,0.73 1.61,1 0.83,0.27 3.73,1.45 3.37,0.83 -0.36,-0.62 -2.38,-2.07 -1,-1.61 1.38,0.46 2.67,0.75 2.18,1.09 -0.49,0.34 0.28,-0.08 1.48,0.91 1.2,0.99 3.45,2.67 2.36,0.8 -1.09,-1.87 0.05,-3.06 -2,-3.73 -2.05,-0.67 -5.29,-1.19 -5.91,-1.81 -0.62,-0.62 -0.57,-1.3 -1.35,-1 -0.78,0.3 -0.67,1.66 -1.35,1.09 -0.68,-0.57 -0.26,-1.24 -1.55,-1.24 -1.29,0 -2.44,0.41 -3,-0.16 -0.56,-0.57 -0.67,0.36 -2.49,-0.05 -1.82,-0.41 -1,-1.3 -3,-1.87 a 35.92,35.92 0 0 0 -6.68,-1.3 c -1.61,-0.05 -0.83,-1.3 -2.59,-1.09 -1.76,0.21 -2,0.88 -2.85,0.47 -0.85,-0.41 -7,-0.88 -8.5,-1 -1.5,-0.12 -2.23,-0.05 -2.54,0.31 -0.31,0.36 -0.47,0.41 -1.81,0.16 C 451.11,31.33 444.77,30.47 442,31 a 37.91,37.91 0 0 0 -4.25,1.24 c -0.62,0.1 -0.93,-0.26 -0.73,-0.57 0.2,-0.31 0.83,-0.67 -1.45,-0.47 -2.28,0.2 -7.2,-0.41 -9.17,-0.16 -1.97,0.25 -6.68,1.35 -8.14,1.61 -1.46,0.26 -1.55,0.47 -1.09,0.78 0.46,0.31 0.88,0.62 -0.52,1 -1.4,0.38 -0.16,-0.67 -1,-0.31 a 10.11,10.11 0 0 1 -1.71,0.67 c -1.16,0.23 -2.8,1.09 -0.93,1.19 1.87,0.1 3.58,-0.57 5.13,-0.31 1.55,0.26 1.71,0.47 2.38,0.52 0.67,0.05 -0.05,-0.62 1.4,-0.78 a 29.46,29.46 0 0 0 4,-0.78 c 0.47,-0.16 0.52,-1 1.55,-0.73 1.03,0.27 0.41,0.21 2.75,0.21 2.34,0 5.86,-0.21 6.79,0.21 0.93,0.42 1.45,1.35 2.44,1 0.99,-0.35 0.78,-1.92 2.33,-1 1.55,0.92 6.27,0.88 7.82,0.88 1.55,0 0.47,-0.47 2.44,0.16 1.97,0.63 3.16,1.5 2.64,1.55 -0.52,0.05 -1.14,0.41 -0.47,1.14 0.67,0.73 -1.4,-0.05 -2.18,-0.57 -0.78,-0.52 -0.73,-1.61 -2,-1.19 -1.27,0.42 -3.42,1.87 -3.63,1.35 -0.21,-0.52 0.41,-0.67 -2.49,-0.67 a 22.09,22.09 0 0 1 -5.75,-0.52 c -0.62,-0.26 -2.07,-0.52 -2,-0.26 0.07,0.26 2,0.73 -0.83,0.52 -2.83,-0.21 -4.25,-0.47 -5.34,-0.21 -1.09,0.26 -1.71,0.73 -2.59,0.36 a 4.46,4.46 0 0 0 -3.16,-0.52 c -1.81,0.26 -2.54,1.71 -4,2 -1.46,0.29 -3.47,0.78 -3.21,0.41 0.26,-0.37 2.12,-1.45 0.67,-1.14 -1.45,0.31 -5.18,1.3 -5.6,1.81 a 0.75,0.75 0 0 0 0.57,1.19 c 0.52,0.05 0.57,0.88 -0.83,1.09 -1.4,0.21 -2.23,-0.16 -1.92,-0.52 0.31,-0.36 0.78,-1.61 -0.26,-0.78 -1.04,0.83 -1.66,1.76 -3,2 a 5.59,5.59 0 0 0 -3,1.4 c -0.19,0.61 0.54,0.66 2.2,0.2 z m 26.42,-15 c 1.87,-0.26 2.44,0.41 5.54,0.21 a 58.2,58.2 0 0 1 10.26,0.41 c 2.28,0.36 3.91,-0.65 5.23,-0.83 1.32,-0.18 4.72,-0.78 6,-0.1 1.28,0.68 1.76,0.62 3.78,0.73 a 31.33,31.33 0 0 0 3.26,-0.16 c 0.88,0.05 2.44,0.67 5,1 a 14,14 0 0 0 5,-0.16 c 0.88,-0.21 -0.16,-1.5 -1.4,-1.81 -1.24,-0.31 -1.24,0.1 -2.28,0.36 -1.04,0.26 -0.1,-0.73 -0.93,-0.78 -0.83,-0.05 -4.61,-0.67 -7.41,-1.09 -2.8,-0.42 -3.16,-1 -4.92,-1.71 -1.76,-0.71 -1.5,0.36 -3.11,0.21 a 8.54,8.54 0 0 0 -3.63,0.05 15.66,15.66 0 0 1 -4.56,0.67 5.3,5.3 0 0 0 -2.28,0.1 c -0.73,0.16 -0.62,-0.41 -1.55,-0.26 a 26.82,26.82 0 0 1 -5.13,0.78 7,7 0 0 1 -3.06,-0.67 c -0.73,-0.41 -0.57,0.1 -1.35,0.52 -0.78,0.42 -1.69,-0.42 -3.89,0.31 a 2.2,2.2 0 0 0 -1.61,1.19 c -0.38,0.89 1.18,1.25 3.04,1.03 z m -6.89,133.48 c 1,-0.1 1.55,-0.73 2.28,-1.5 a 8.74,8.74 0 0 1 1.22,-1 l 0.12,-8.18 c -0.91,0.3 -1.85,0.44 -1.78,0.88 0.13,0.8 -1.17,3.58 -2.25,4.35 a 4.58,4.58 0 0 0 -1.87,2.07 c -0.16,0.57 0.16,1.81 -2.28,3.11 -2.44,1.3 -3.37,2.64 -5,3.94 -1.63,1.3 -4.46,3.42 -4.92,4 -0.46,0.58 -1.09,1.3 -0.41,1.24 0.68,-0.06 -1.87,2.49 -3.16,3.37 a 48.79,48.79 0 0 1 -4.92,2.49 c -1.24,0.62 -2.85,0.52 -0.83,-0.78 2.02,-1.3 5,-2.64 5.86,-3.89 0.86,-1.25 -1.45,-0.21 0.16,-1.55 1.61,-1.34 2.75,-3.11 5.75,-5.6 3,-2.49 5.44,-5.08 6.32,-5.86 0.88,-0.78 1.45,-0.16 2.54,-1.35 a 7.88,7.88 0 0 0 1.5,-2.49 c 0.52,-0.93 1.42,0 1.63,-1.4 0.21,-1.4 -0.5,-1.48 -0.21,-2.38 a 1.37,1.37 0 0 1 1.42,-0.93 5.61,5.61 0 0 0 2.37,-0.73 l 0.08,-0.07 0.07,-5.07 a 11.61,11.61 0 0 0 -1.51,0.71 7.38,7.38 0 0 0 -2.33,2 30.13,30.13 0 0 1 -3.45,3.37 c -0.62,0.78 -1.92,1.81 -0.93,2.12 0.99,0.31 0.93,0.88 -0.31,1.3 -1.24,0.42 -2.8,2.8 -5.13,4.56 -2.33,1.76 -3.58,4.35 -5.7,6.58 a 73.15,73.15 0 0 1 -6.74,6.43 c -1.48,1.1 -4.12,2.33 -5.59,4 l -1,4.64 a 1.42,1.42 0 0 0 0.33,-0.1 c 0.73,-0.31 0.16,-0.73 0.26,-1.14 a 6.6,6.6 0 0 1 1.61,-2.18 c 0.41,-0.21 0.93,0.47 0.57,1 -0.36,0.53 0.16,0.67 0.52,0.93 0.36,0.26 -2,2.18 -2,2.18 a 18.24,18.24 0 0 0 -1.63,1 l -0.65,3 c 1.76,-0.52 2.7,-0.55 3.31,-1.36 0.61,-0.81 0.36,-1.3 1.3,-1.24 0.94,0.06 1.14,-0.47 2.75,-1.24 a 25.07,25.07 0 0 0 5.54,-3.52 c 1.35,-1.3 3.78,-2.44 4.15,-3.52 0.37,-1.08 -0.1,-2.23 0.1,-2.69 0.2,-0.46 1.09,-0.73 1.3,-0.1 0.21,0.63 -0.83,1.09 -0.1,1.09 a 5.91,5.91 0 0 0 4.35,-2.18 c 1.92,-2 3,-3.68 4.09,-4.72 1.09,-1.04 3,-1.76 3,-2.28 0,-0.52 -0.83,-1.24 0.2,-1.34 z m -38.91,-28.81 c -0.62,0.57 -0.36,1.09 -1,1.81 -0.64,0.72 -1.76,0.47 -2.64,1.45 -0.88,0.98 -1.87,2.69 -3.32,3.52 -1.45,0.83 -2.07,0.78 -3.26,1.87 -1.19,1.09 -6.27,6 -7.67,7.1 -1.4,1.1 -1.48,0.78 -2.56,1.55 a 7.84,7.84 0 0 0 -2.2,2 c -0.26,0.52 1.26,-0.17 3.45,-1.06 2.36,-1 4.17,-2.51 6.5,-4.27 2.33,-1.76 3.68,-3.16 4.2,-3.26 a 1.18,1.18 0 0 0 0.88,-1.19 c 0,-0.57 0.16,-0.93 0.67,-0.88 a 1.93,1.93 0 0 0 1.45,-0.83 2.66,2.66 0 0 1 1.45,-0.78 c 0.47,-0.1 0.41,-0.52 1.24,-1.35 0.83,-0.83 2,-2.07 3.16,-2.07 a 2.09,2.09 0 0 0 0.39,0 l 0.85,-3.92 c -0.7,-0.02 -1.16,-0.12 -1.59,0.28 z m 16,-44.1 c 0.36,-0.41 0.05,-0.83 0.83,-0.57 0.78,0.26 2.23,0.1 4.56,-0.78 a 42,42 0 0 1 6.37,-1.92 13.37,13.37 0 0 0 3,-0.67 36.14,36.14 0 0 1 5.54,-1.24 63.66,63.66 0 0 0 6.48,-1.19 c 2.18,-0.52 2.8,-1.09 4,-1 1.2,0.09 4.55,-0.52 5.39,-0.36 2,0.36 4.48,1.45 4,1.66 -0.48,0.21 -3.89,-0.47 -5.34,-0.41 -1.45,0.06 -2.8,0.67 -4.82,1.09 -2.02,0.42 -4,0.78 -5.65,1 a 18.94,18.94 0 0 0 -3.26,0.57 c -1.09,0.31 -3.47,0.36 -4.92,0.62 a 31.72,31.72 0 0 0 -3.58,1 c -0.93,0.26 -3.52,0.93 -4.46,1.35 a 23.17,23.17 0 0 1 -4.4,1.28 5.84,5.84 0 0 0 -0.82,0.15 h 10.12 c 2.47,-0.65 5.44,-1.36 6.35,-1.5 a 34.18,34.18 0 0 0 6.06,-0.78 21.09,21.09 0 0 1 5,-1 c 1.87,-0.16 5.75,-0.74 7.62,-0.93 5.21,-0.54 7.42,1.37 3.6,0.54 -2.15,-0.47 -3,0.85 -6.4,1.27 -3.4,0.42 -5.44,1 -8.45,1.35 a 20.66,20.66 0 0 0 -5,1.09 h 12.49 c 0.25,0 0.49,-0.05 0.74,-0.1 a 14.89,14.89 0 0 1 3.26,-0.78 26.39,26.39 0 0 1 7.2,0.62 c 1.12,0.29 5.44,0.52 9.64,1 4.2,0.48 3.73,1 7.41,2.38 1.49,0.54 3.3,0.82 4.82,1.48 1.86,0.81 3.58,1.29 4.84,1.73 l 0.88,-2.23 c -0.22,-0.07 -0.46,-0.14 -0.74,-0.2 -2.54,-0.57 -8.5,-3.32 -10.05,-3.58 -1.55,-0.26 -1.71,-1 -3.26,-1.14 a 9.14,9.14 0 0 1 -2.64,-0.47 c -1.5,-0.36 -4.82,-0.67 -4.82,-0.67 0,0 -1.19,-0.31 -2.07,-0.52 -0.88,-0.21 -2,0.36 -2.8,0.05 -0.8,-0.31 -1.55,-1.09 1,-0.88 a 18.29,18.29 0 0 1 3.63,0.47 c 1.87,0.36 4.25,0.78 6.06,1 a 15.22,15.22 0 0 1 5,1.24 c 1.87,0.83 9.43,2.69 10.16,3.37 0.4,0.38 0.55,0.59 0.77,0.75 l 1,-2.64 c -0.4,-0.22 -0.48,-0.55 -1.18,-0.8 -0.93,-0.34 -2.9,-0.26 -3.58,-0.57 -0.68,-0.31 -0.1,-0.44 -1.09,-0.8 -0.99,-0.36 -3.58,-2.1 -5.29,-2.31 -1.71,-0.21 -4.3,-1 -5.49,-1 a 10.64,10.64 0 0 1 -4,-1 c -0.62,-0.36 -2.67,-0.18 -3.6,-0.13 a 1.46,1.46 0 0 1 -1.45,-0.78 5.15,5.15 0 0 0 -2.8,-0.41 5.09,5.09 0 0 1 -2.54,0.1 c -0.73,-0.26 -1.74,-1 -2.28,-1.24 -1.22,-0.44 -0.91,-0.67 1.5,-0.47 2.23,0.19 2.38,0.83 4.3,0.93 1.92,0.1 2.69,0.26 4.35,0.47 1.66,0.21 1,0.57 2.31,0.62 a 7,7 0 0 1 2.77,0.34 c 1,0.41 0,0.54 1.61,0.7 a 36.38,36.38 0 0 1 5.75,1 40,40 0 0 1 5.17,2.28 c 1.09,0.47 1.61,0.26 2.85,0.67 a 8.68,8.68 0 0 1 2.1,1.11 l 0.92,0.49 0.05,-0.13 h 6 c -0.67,-0.88 -1.3,-1.14 -3.83,-2.59 -2.53,-1.45 -1.09,-1.3 -3.06,-1.45 a 17.85,17.85 0 0 1 -4.61,-1.45 c -0.57,-0.16 -0.73,-0.62 -1.14,-0.78 -0.41,-0.16 -0.1,-0.16 -1.4,-0.16 a 34.08,34.08 0 0 1 -6.53,-1.19 c -0.88,-0.36 -1.19,-0.73 -1.55,-0.78 -0.36,-0.05 -0.47,0.23 -1.14,-0.05 a 16.12,16.12 0 0 0 -7.72,-1.4 c -4.38,0.21 -6.17,0 -5,-0.21 a 65.53,65.53 0 0 1 7.25,-0.62 c 1.87,0 3.73,0 4.82,0.62 a 5.29,5.29 0 0 0 1.61,0.83 c 1,0.36 3.26,0.16 5.7,0.93 a 38.79,38.79 0 0 0 3.72,1.16 c 1.17,0.28 3.34,1.3 4.92,1.66 a 8.29,8.29 0 0 1 2.85,1.14 20.88,20.88 0 0 0 2.59,1.66 c 1.87,0.93 2.23,2 3.68,2.25 a 2.37,2.37 0 0 1 1.29,0.49 h 6.77 a 14.87,14.87 0 0 0 -2.73,-1.5 c -1.3,-0.47 -0.36,-0.83 -2.33,-1.45 -1.97,-0.62 -4.4,-1.45 -5.65,-2.49 -1.25,-1.04 -2.18,-1 -3.52,-1.61 -1.34,-0.61 -2.07,-1.45 -3.16,-1.66 a 40.77,40.77 0 0 1 -6.27,-1.71 c -1.3,-0.62 -1.24,-0.16 -2.69,-0.57 -1.45,-0.41 -1.32,-0.78 -2.88,-1.14 a 18.34,18.34 0 0 0 -5.65,-0.21 13.38,13.38 0 0 1 -4.09,-0.21 8.5,8.5 0 0 0 -3.7,0.18 25.19,25.19 0 0 1 -3.68,0.91 c -1.45,0.16 -0.93,-0.16 -2.18,-0.16 -1.25,0 -0.41,0.36 -2,0.41 -1.59,0.05 -0.93,-0.47 -2.07,-0.36 a 20.9,20.9 0 0 1 -2.9,0.52 c -1.35,0 -1.14,-0.73 -3.83,-0.31 -2.69,0.42 -5.29,0.88 -8.29,1.3 -3,0.42 -11.4,2.18 -13.58,2.69 -2.18,0.51 -2.69,1.66 -4.46,2.18 -1.77,0.52 -5.8,1.87 -8.34,2.8 -2.54,0.93 -3.83,2 -5.23,2.12 -1.4,0.12 -3.58,-0.31 -4.25,-0.16 -0.3,0.07 -0.24,0.22 -0.17,0.41 h 12 a 6.09,6.09 0 0 0 1.72,-0.64 z m -7.82,104.93 c 0.88,-0.78 0.26,-1.5 0.88,-1.81 0.62,-0.31 1.09,0.93 1.71,0.41 0.62,-0.52 1.24,-2.33 1.92,-2 0.68,0.33 2.28,0.47 2.28,-0.05 0,-0.52 -0.93,-0.88 0.36,-1.19 1.29,-0.31 3.83,-0.57 3.11,-0.88 a 2.15,2.15 0 0 1 -1.19,-1.45 c -0.16,-0.52 -0.47,-0.73 -0.83,-0.31 a 6.26,6.26 0 0 1 -2.9,2.18 c -0.88,0.41 -1.5,-0.1 -2.85,0.78 -1.35,0.88 -1.71,1.19 -2.64,1.14 h -0.37 l -0.84,3.87 a 3.38,3.38 0 0 0 1.36,-0.72 z M 423.27,148 c 0.93,-0.73 0.78,-1.55 1.71,-2 0.93,-0.45 2.69,-1.09 3.37,-1.55 0.25,-0.17 0.5,-0.41 0.78,-0.63 l 0.07,-5.17 c -1.67,0.46 -5.68,3.48 -7,4.87 -1.32,1.39 -4.25,5.39 -5.29,6.22 a 15.84,15.84 0 0 1 -2.56,1.35 c -0.41,0.31 0.41,0.7 -1.87,2.62 -2.28,1.92 -2.85,1.71 -4.4,4.25 -1.55,2.54 -2.18,4.48 -3.26,6.3 -1.08,1.82 -2.72,3.11 -2.88,2.44 -0.16,-0.67 -1.09,0.36 -1.66,1.45 a 4.14,4.14 0 0 1 -1.42,1.33 L 398,173.7 a 16.56,16.56 0 0 1 2.56,-1.57 12.74,12.74 0 0 0 4.44,-3.93 c 0.78,-1.14 1,-1.81 2.44,-2.49 1.44,-0.68 -0.26,-0.52 0.52,-1.3 0.78,-0.78 2.44,-3.06 3.68,-3.89 1.24,-0.83 2.33,-0.93 2.54,-2.33 a 2.85,2.85 0 0 1 1.55,-2.54 c 0.93,-0.47 3,-1.14 2.85,-1.76 -0.15,-0.62 2.12,-2.33 1.92,-2.75 -0.2,-0.42 -1,-0.62 -0.47,-1 0.53,-0.38 2.3,-1.42 3.24,-2.14 z M 371,159.13 c 1.27,-0.05 1.34,1.12 2.69,-0.62 1.09,-1.4 0.78,-0.52 2.64,-1.66 1.86,-1.14 2.69,-2.59 4.46,-3.68 1.24,-0.77 2.79,-1.38 3.31,-1.78 l 0.08,-0.36 h -0.07 c -0.78,-0.29 -1.7,-0.22 0.37,-1.34 l 0.25,-1.13 a 14.56,14.56 0 0 1 -1.39,1 c -0.78,0.41 -0.16,-0.83 -1.71,0.16 -1.55,0.99 -3.26,2.75 -4.87,3.89 -1.61,1.14 -4.56,3.68 -5.39,4 -0.83,0.32 -2.23,0.71 -2.23,1.81 0,1.45 -1,2.15 0.52,1.27 0.98,-0.6 -0.5,-1.49 1.34,-1.56 z m 88.87,22.64 a 50.19,50.19 0 0 1 4.61,2.49 c 1.66,0.93 3,1.09 2.49,0.31 -0.51,-0.78 -0.31,-1.92 -2.44,-3 -2.13,-1.08 -2.59,-0.62 -3.83,-1.4 a 4.83,4.83 0 0 1 -1.65,-2.16 l -1.62,3.87 v 0 c 0.88,0.47 2.33,0.88 1.66,0.21 -0.67,-0.67 -0.9,-1.09 0.76,-0.32 z m 29.07,-7.15 c 0.93,0.73 2,2.28 3.06,3.06 1.06,0.78 2,0.26 1.71,-0.05 a 19.12,19.12 0 0 1 -1,-2.49 c -0.36,-0.88 -0.78,-0.78 -1.76,-1.4 a 7.54,7.54 0 0 1 -2.07,-1.87 12.5,12.5 0 0 1 -1.84,-2.62 c -0.6,-1 -1.48,-1.06 -3,-2.1 -1.52,-1.04 -1,0.41 -1.76,-0.52 -0.76,-0.93 -1.14,-2.69 -2.38,-4.51 a 34,34 0 0 0 -2.8,-3.94 12.06,12.06 0 0 1 -2.44,-3.55 25.19,25.19 0 0 0 -2.44,-4.64 15.59,15.59 0 0 1 -0.81,-1.37 l -1.55,3.69 a 6.3,6.3 0 0 0 1.84,3.38 13,13 0 0 1 2.54,3.5 c 0.57,1.35 0.71,1.94 1.17,2.31 0.78,0.62 1.14,1.68 1.79,3.06 0.65,1.38 0.62,1.66 1.61,2.33 a 15.75,15.75 0 0 0 3.52,2.07 10.86,10.86 0 0 1 3.32,2.28 c 1,0.83 1.35,0.88 1.19,1.4 -0.16,0.52 1.16,1.26 2.08,1.98 z M 476,140.06 c 0.73,1.24 0.85,2.26 1.11,2.59 0.57,0.73 2.23,2.49 2.33,3 0.1,0.51 0.41,3.26 -0.16,2.23 -0.57,-1.03 -0.88,-2.54 -2,-3.58 a 19.59,19.59 0 0 1 -2.43,-4.15 l -0.84,2 a 14.91,14.91 0 0 0 1,2 22.27,22.27 0 0 1 1.92,2.44 c 0.88,1.4 1.71,4.4 2.23,5 0.52,0.6 1.24,0.83 1.76,1.81 0.52,0.98 0.26,2.75 1.14,3.73 a 9.94,9.94 0 0 1 1.66,2.12 2.71,2.71 0 0 0 1.28,1.75 3.79,3.79 0 0 1 1.45,1.81 4.73,4.73 0 0 0 1.35,1.81 c 0.73,0.52 0.93,1.3 1.61,2.23 a 9.44,9.44 0 0 1 1.66,2.8 c 0.2,0.87 -1.55,-1.45 -2.54,-2.69 -0.99,-1.24 -2.38,-3.21 -2.38,-3.21 0,0 -2.18,-1.09 -2.59,-2 -0.41,-0.91 0.05,-1.66 -0.78,-2.33 a 10.36,10.36 0 0 1 -2.54,-3.16 c -0.31,-0.88 -0.31,-2.28 -1.4,-3.58 -1.09,-1.3 -1.79,-4 -2.64,-4.77 -0.85,-0.77 -1.66,-3.19 -2.56,-4.68 L 472,147.2 a 6.43,6.43 0 0 0 0.57,1.1 c 1.35,2.12 0.78,0.91 1.5,2.36 0.72,1.45 0.34,1.55 1.22,3 0.88,1.45 0.7,0.8 1.48,1.84 0.78,1.04 0.41,1.87 1.71,3.32 1.3,1.45 2.63,4.23 4,6 0.8,1 0.88,0.88 1.22,0.36 0.5,-0.77 1.17,-0.41 1.94,0.67 a 20.31,20.31 0 0 0 3.26,4.25 56.24,56.24 0 0 1 5.13,4.87 c 1.35,1.5 1.19,2.9 2.12,4.46 0.93,1.56 2,1.14 3.32,1.76 1.32,0.62 4,3.63 5,4.82 1,1.19 2.52,1.6 4.25,2.77 1.3,0.88 -0.83,-1.84 -0.93,-3 -0.1,-1.16 -2.33,-2.85 -3.83,-4.25 a 8.81,8.81 0 0 0 -2.59,-1.87 c -0.83,-0.47 -0.67,-0.83 -1.24,-1.5 a 8,8 0 0 0 -2.49,-1.35 c 0,0 -0.57,-0.78 0.36,-0.52 0.93,0.26 0.58,-0.72 -1.58,-2.31 a 4.89,4.89 0 0 1 -1.94,-2.25 c -0.67,-1.35 -1.3,-2.33 -1.61,-1.66 -0.31,0.67 -1.55,-2.23 -2.44,-4.3 -0.89,-2.07 -2.11,-3.06 -2.37,-4.51 -0.26,-1.45 -1.38,-2 -1.69,-3.7 -0.31,-1.7 -1.12,-2 -2,-3.45 a 9.29,9.29 0 0 1 -1.35,-3.21 c -0.36,-1.35 0.1,-1.4 -0.78,-2.07 -0.88,-0.67 -1.4,-3 -1.55,-4.92 -0.15,-1.92 -1,-2.49 -1.87,-3.58 -0.87,-1.09 -1.5,-2.8 -2.33,-3.58 l -0.08,-0.08 -1,2.34 z m -76.66,75.55 c 1.45,0 2.28,-0.83 3.16,-1.19 0.88,-0.36 0.62,0.83 2.49,0.52 1.87,-0.31 8,-0.93 10.26,-1.71 2.26,-0.78 3.68,-1.3 5.29,-3 1.61,-1.7 1.92,-2.33 2.75,-2.07 0.83,0.26 0.52,0.93 2.12,-0.16 1.35,-0.92 1.42,-1.25 2.77,-1.67 v -3.37 c -0.57,0.29 0.12,0.65 -1.42,1.25 -1.71,0.67 -6.63,2.38 -6,2.69 0.63,0.31 0.47,1.24 -1.09,1.24 -1.56,0 -5.39,1.71 -6.84,2.23 -1.45,0.52 -3.78,1.24 -4.35,0.57 -0.57,-0.67 -1.71,-1.24 0,-1.4 a 6.86,6.86 0 0 0 3.32,-0.83 c 0.67,-0.47 1.4,-1.19 1.81,-0.67 0.41,0.52 0.62,0.62 1.09,0.21 0.47,-0.41 0.83,-1.35 -0.16,-1.4 a 12.77,12.77 0 0 0 -4.15,0.41 c -1.66,0.47 -2.07,0.85 -2.18,1 -0.11,0.15 0.41,0.83 -0.73,0.83 -1.14,0 0.52,-1.3 -1,-0.78 -1.52,0.52 -5.18,2.07 -3.68,1.92 1.5,-0.15 3.14,-0.9 3.61,-0.38 0.47,0.52 1.14,1 0.28,1.16 -2.27,0.5 -4.35,2.33 -5.13,2.28 -0.78,-0.05 0.47,-1 -0.57,-0.67 -1.66,0.5 -2.38,1.09 -1.87,1.35 0.51,0.26 -1.19,1.64 0.26,1.64 z m -25,-45.6 a 34.9,34.9 0 0 0 4.51,-2.8 c 0.94,-0.61 1.16,-0.21 1.89,-0.47 l 1.2,-5.5 -0.28,0.07 c -1.14,0.36 -0.26,0.57 -0.57,1.35 -0.31,0.78 -2.44,1.87 -3.58,2.59 a 7.78,7.78 0 0 0 -2.33,2.49 c -1,1.35 -1.19,0.88 -2.33,1.35 -1.14,0.47 -2.69,0.67 -3.32,1.45 a 42.24,42.24 0 0 1 -3.7,3.26 c -1.09,0.93 0,0.93 1.37,0.16 1.37,-0.77 2.23,-0.73 4.09,-1.5 1.86,-0.77 0.52,-0.62 0.1,-1 -0.42,-0.38 1.25,-0.67 2.96,-1.46 z M 457,23.16 c 0.85,-0.1 1.22,-0.36 3.34,0.57 2.12,0.93 1.55,1 3.11,1.3 a 20.64,20.64 0 0 0 3.83,0.31 c 0.57,0 0.31,-0.57 -1.14,-0.67 a 5.41,5.41 0 0 1 -3.11,-1 c -1.55,-0.88 -2.28,-1.35 -3.52,-1.45 a 20.1,20.1 0 0 0 -3.78,0.41 c -0.96,0.06 0.39,0.63 1.27,0.53 z M 497.31,224 c -1.45,-0.05 -2.44,-0.57 -4.35,-0.93 -1.91,-0.36 -0.62,0.47 -0.57,1.24 0.05,0.77 -2.75,0.16 -3.83,0.31 -1.08,0.15 -1,0.62 -1.92,0.05 -0.92,-0.57 -0.62,-0.67 -3,-0.78 -2.38,-0.11 -1.24,-0.57 -3.42,0.16 -2.18,0.73 -0.62,2.59 0.73,2.49 2.07,-0.16 3.11,-0.57 2.8,-0.1 -0.31,0.47 1.3,0.73 1.76,0.05 0.46,-0.68 2,-0.05 3.11,0.36 a 9,9 0 0 0 4.77,0.52 c 2.23,-0.31 2.18,0.78 0.26,1.19 a 15.06,15.06 0 0 1 -4.82,0.67 c -2,-0.1 -2.18,-0.16 -5.29,-0.21 -3.11,-0.05 -1.92,-0.52 -3.58,-0.52 -1.66,0 -1.66,1.19 -2.69,1.19 -1.03,0 -2.12,-0.05 -2.33,-0.57 -0.21,-0.52 -0.16,-1.14 -1.09,-0.21 -0.93,0.93 -0.78,1.09 -2,0.67 -1.22,-0.42 -1,0.05 -1.61,0.57 a 2.2,2.2 0 0 1 -2.28,0.47 c -1.19,-0.26 -1.92,0.41 -2.64,0.62 -0.72,0.21 -0.47,-0.31 -0.93,-0.67 -0.46,-0.36 -2.44,1.24 -3.47,2 -1.03,0.76 -1.4,0.78 -2.23,0.52 -0.83,-0.26 -0.41,-0.73 -1.35,-1 -0.94,-0.27 0.73,-1.92 0.73,-2.64 0,-0.72 -2.38,-1.81 -3.47,-2 -1.09,-0.19 0.31,1.61 -0.88,1.81 -1.19,0.2 -6.63,1.09 -7.31,1.09 -0.68,0 0.36,-1.35 -0.36,-1.14 -0.72,0.21 -2.23,1.35 -3.37,1.66 a 65,65 0 0 1 -7.72,1.35 c -1.19,0 -1,-1 -2.59,-1.09 -1.59,-0.09 -4.3,1 -5.65,1 -1.35,0 -0.41,-0.62 -1.14,-0.36 -0.73,0.26 -0.88,1 -1.66,0.78 a 8.69,8.69 0 0 0 -3.26,-0.36 c -0.83,0.21 -2.38,1.24 -3,1.09 -0.62,-0.15 0.67,-1 0.16,-1.19 -0.51,-0.19 -2.07,1.4 -2.64,1.92 -0.57,0.52 -3.32,0.31 -5.23,0.36 a 33.33,33.33 0 0 1 -4.66,-0.16 c -1.61,-0.16 -0.93,-0.83 -1.61,-1.09 -0.68,-0.26 -3.16,0.78 -6,0.52 -2.84,-0.26 -2.8,-0.93 -3.37,-1.35 -0.57,-0.42 -0.88,-0.16 -1.81,0 a 15.75,15.75 0 0 1 -5.18,-0.31 7.63,7.63 0 0 1 -3.83,-2 c -0.57,-0.57 1.14,0.05 2.33,0.36 1.19,0.31 6.79,0.41 8.76,0.67 1.97,0.26 1.76,0.73 2.9,1 a 13.46,13.46 0 0 0 3.89,-0.31 c 0.93,-0.1 2.9,-0.14 7.25,-0.26 3.73,-0.1 0.83,0.41 1,0.67 0.26,0.44 1,0.67 1.92,0.16 a 34.3,34.3 0 0 1 7.77,-2.64 c 3.06,-0.57 2.33,0 2.38,0.52 0.05,0.52 0.41,0.36 1.19,0.05 0.78,-0.31 1.3,-0.16 3,-0.36 1.7,-0.2 2.54,0.47 4.66,0.31 a 17.8,17.8 0 0 0 3.89,-0.83 c 1.45,-0.31 0.73,0.41 0.21,0.62 -0.52,0.21 0.31,0.52 1,0.62 0.69,0.1 0.62,-0.73 1.14,-1.24 0.52,-0.51 1.76,-0.52 3.37,-0.67 a 12.2,12.2 0 0 0 3.42,-0.52 13.06,13.06 0 0 1 4.4,-0.73 c 1.14,0.1 0.62,0.26 1.14,0.93 0.52,0.67 0.62,-0.47 1.35,-1 a 8.72,8.72 0 0 1 3.94,-1.24 c 1.87,-0.26 2.28,-0.16 3.37,-0.73 a 17.37,17.37 0 0 1 4.66,-1.35 64.66,64.66 0 0 0 8.08,-1.87 c 2.49,-0.83 4.15,-0.78 7,-0.88 2.85,-0.1 8.24,1.09 11.19,1.3 2.95,0.21 1.76,-0.93 0.31,-1 -1.45,-0.07 -2,-0.78 -1.3,-0.88 0.7,-0.1 1,-0.52 0.31,-0.67 -0.69,-0.15 -1.61,0.26 -3.68,0.05 -2.07,-0.21 -3.68,-0.62 -6,-0.83 a 24.09,24.09 0 0 0 -6.53,0.16 c -1.5,0.36 -0.88,0.36 -1.81,0 -0.93,-0.36 -4.15,-1.76 -5.23,-2.12 a 2.4,2.4 0 0 0 -2.49,0.26 c -0.62,0.52 -3.68,1.19 -6,1.45 a 31.57,31.57 0 0 0 -9.07,2.69 c -2.44,1.3 -2.38,0.41 -3.26,-0.21 -0.88,-0.62 -0.78,-3 -0.21,-3.42 0.57,-0.42 1.24,-1.14 1,-1.5 -0.24,-0.36 -5.86,1 -8.5,1.61 -2.64,0.61 -5.86,1.61 -8.19,2.33 a 35.29,35.29 0 0 1 -6.11,1.24 c -1.35,0.16 -2.07,0.83 -3.89,1.3 -1.82,0.47 -2.69,0.62 -3.73,0.36 -1.04,-0.26 -0.93,0.62 -2.44,1 -1.51,0.38 -3,-0.05 -3.94,0.05 -0.94,0.1 -1.09,0.52 -2.85,1.09 -1.76,0.57 -5.08,-0.41 -6,-0.62 a 4,4 0 0 0 -2.33,0.57 c -0.57,0.21 0.16,-0.73 -0.36,-0.67 -0.52,0.06 -1.5,0.41 -3.16,0.67 a 5.38,5.38 0 0 1 -3.83,-1.09 c -0.57,-0.47 0.16,-0.47 1.5,-0.41 1.34,0.06 4.15,-0.21 6.74,-0.36 2.59,-0.15 4.4,-0.36 6,-0.41 1.6,-0.05 1.76,-0.57 2.9,-1.14 1.14,-0.57 1.3,-0.36 2.75,-0.16 a 3.93,3.93 0 0 0 2.49,-0.16 c 0.67,-0.26 6,-1.81 7.67,-2.23 1.67,-0.42 0.73,-0.05 1.87,0 1.14,0.05 0.21,-0.47 0.78,-0.41 a 3.31,3.31 0 0 0 2.28,0.05 23,23 0 0 1 3.52,-1.66 c 1.66,-0.52 7.57,-1.76 10.83,-2.8 a 43.73,43.73 0 0 1 5.34,-1.66 c 1.87,-0.36 6.11,-0.1 7.1,-0.31 0.99,-0.21 0.73,-0.41 1,-0.57 0.27,-0.16 0.83,0 1.87,0.21 1.04,0.21 2.07,-0.78 4.35,-1 2.28,-0.22 8,0 8.34,-0.16 a 8.21,8.21 0 0 1 2.64,0.16 c 0.88,0.16 0.31,0.57 0.67,1.24 0.36,0.67 1,0.05 1,-0.36 0,-0.41 0.21,-0.57 1.09,-0.67 0.88,-0.1 1,1.45 1.76,1.5 0.76,0.05 3.89,-0.21 5.34,0.41 1.45,0.62 0.73,1.92 0.16,2 -0.57,0.08 -2.44,-1 -5.34,-1.3 -2.9,-0.3 -1.19,0.1 -2.75,0.21 -1.56,0.11 -1.87,-0.36 -3,-0.93 -1.13,-0.57 -3.21,-0.57 -5.49,-0.26 -2.28,0.31 -1.55,0.57 -2.8,0.83 -1.25,0.26 -2.18,-0.21 -3.26,-0.1 -1.08,0.11 -0.31,1.14 -1.3,1 a 6.16,6.16 0 0 0 -2.9,0.36 c -1.4,0.41 -5.23,1.09 -6.43,1.92 -1.2,0.83 1.92,0.88 3.37,0.93 1.45,0.05 1.19,-0.36 1.3,-0.73 0.11,-0.37 1.4,-0.62 4.25,-0.73 2.85,-0.11 2.18,-0.1 2.9,-0.62 0.72,-0.52 0.62,0.36 0.67,1.09 0.05,0.73 1.45,-0.1 1.24,-0.36 -0.21,-0.26 -0.31,-0.73 1,-1.61 1.31,-0.88 7.67,1 9.74,1.61 2.07,0.61 1.19,0.1 2.23,-0.62 1.04,-0.72 2,0.21 2.69,0.62 0.69,0.41 1.61,-0.67 2.85,-0.31 1.24,0.36 2.44,1.09 4,0.88 a 2.62,2.62 0 0 1 2.69,1.45 c 0.52,0.67 0.62,-0.52 1.3,-1 0.68,-0.48 1.71,0.31 3.16,0.93 a 9,9 0 0 1 3.06,2.44 c 0.67,0.73 1.4,0.36 2.44,0.36 1.04,0 1.92,1.5 3.32,1.55 1.4,0.05 0.43,0.91 -1.03,0.91 z m -18.42,-0.83 c -0.3,-0.08 -0.44,-0.16 -0.7,-0.21 -0.83,-0.17 -1.5,-0.41 -1.3,0.1 0.2,0.51 1.72,1 0.05,1.14 -2.23,0.22 -3.32,0.78 -3.78,0.21 -0.46,-0.57 -0.41,-1.09 -1.35,-1.09 -0.94,0 -1.35,0.47 -0.52,0.67 0.83,0.2 1.87,1 0.36,1.09 -1.51,0.09 -1,-0.41 -2.07,-0.31 -1.07,0.1 -0.83,0.83 -1.76,0.78 a 2.51,2.51 0 0 0 -2,0.62 c -0.47,0.41 -0.36,0.52 -1.14,0.41 -0.78,-0.11 0.1,-1.09 -0.57,-1 -0.67,0.09 -2.84,0.55 -2.07,0.67 0.77,0.12 1.76,0.62 0.78,0.62 -0.98,0 -2.07,0.41 -3.21,0.36 -1.14,-0.05 -2.54,0 -1.92,0.21 0.62,0.21 0.57,0.41 1.24,1.14 0.67,0.73 1.19,1.5 2.44,1 1.25,-0.5 0.1,0.05 3,-0.88 a 35,35 0 0 1 6.89,-1.45 c 1.66,-0.21 1.3,0.57 2.28,0.26 a 26.4,26.4 0 0 1 3.37,-1 c 1.35,-0.26 1.3,-0.83 1,-1.35 -0.3,-0.52 -0.05,-0.62 0.67,-1.14 0.72,-0.52 0.77,-0.78 0.31,-0.89 z m 21.63,-10.62 a 21.72,21.72 0 0 0 -5.49,-1.3 c -1.1,0.06 -4.25,-0.16 -4,-0.73 0.25,-0.57 2.18,-0.47 0.26,-1.4 -1.92,-0.93 -3.68,-2.59 -6.06,-3.37 -2.38,-0.78 -5.54,-2.44 -6.53,-2.54 a 4.88,4.88 0 0 0 -2.49,0.57 c -0.36,0.21 -3.63,-0.26 -5.6,-0.78 a 11.86,11.86 0 0 0 -3.68,-0.36 c -1.3,0.67 -1.5,-0.21 -2.59,-0.52 -1.09,-0.31 -8.86,-1.3 -9.69,-1 a 2.8,2.8 0 0 0 -1.55,1.09 c -0.36,0.52 -0.88,-0.41 -2,-0.67 a 4.82,4.82 0 0 0 -1.79,-0.16 l -1.58,3.77 h 0.06 a 4.75,4.75 0 0 0 2.69,0.67 c 1,-0.21 0.93,-0.93 2.44,-0.78 1.51,0.15 6.74,0.21 8.55,0.47 1.81,0.26 4.72,0.31 5.29,-0.1 0.57,-0.41 0.57,-1.24 1,-1.55 0.43,-0.31 1.71,-0.16 1.14,0.26 -0.57,0.42 -1.45,1 -0.52,1.5 0.93,0.5 0.52,0.21 2.33,0.67 1.81,0.46 3.42,-1.14 5.34,-0.57 1.92,0.57 2.85,0.88 3.63,1.14 0.78,0.26 1.3,-0.57 1.76,0.31 0.46,0.88 -0.47,0.57 1.35,1.09 1.82,0.52 1.55,-0.05 2.54,0.47 0.99,0.52 2.33,1.3 3.73,2.23 1.4,0.93 2.12,0.73 2.23,1.11 0.17,0.65 -0.88,1.06 -1.55,0.91 a 14.12,14.12 0 0 1 -3.32,-2.28 8.67,8.67 0 0 0 -4.4,-1.81 c -1.4,0 -3.06,0.83 -4.15,0.47 -1.09,-0.36 1.19,-0.41 -1.61,-1 a 61.91,61.91 0 0 0 -8.08,-1 29.23,29.23 0 0 1 -3.73,-0.52 c -0.67,-0.1 0.16,1 -0.78,0.73 -0.94,-0.27 -1.81,-1.24 -3.37,-1.09 -1.56,0.15 -1,1.09 -2.85,0.62 -1.85,-0.47 -2.9,-1.14 -4.3,-0.83 a 11.55,11.55 0 0 0 -2.28,0.78 c -0.47,0.16 -0.41,1.3 -1,0.93 -0.59,-0.37 -0.26,-0.73 -1.71,-0.67 -1.45,0.06 -1.61,0.05 -2,0.88 -0.39,0.83 0.1,2.23 -0.78,1.4 -0.88,-0.83 -0.57,-1.55 -1.92,-1.24 -1.35,0.31 -1.71,1.45 -2.33,1.87 a 1,1 0 0 1 -1.5,-0.26 c -0.36,-0.57 -0.52,-0.73 -1.14,-0.31 a 10.12,10.12 0 0 1 -2,0.83 9.59,9.59 0 0 0 -3.83,0.88 10,10 0 0 1 -3.06,1.19 c -1.5,0.41 -6.63,2.23 -7.77,2.38 -1.14,0.15 -3,0.31 -2,-0.05 a 12.71,12.71 0 0 0 3.11,-2 4.73,4.73 0 0 1 2.54,-0.62 c 0.93,0 0.47,-0.88 1.55,-1 1.08,-0.12 0.67,0.73 1.66,0.26 0.99,-0.47 1.81,-1.19 3,-1.66 a 12.35,12.35 0 0 1 4.82,-1.45 c 2.12,-0.05 3.63,-0.1 4.72,-0.83 a 3.22,3.22 0 0 0 0.74,-0.73 h -9.47 a 15.67,15.67 0 0 0 -2.67,1.14 c -1.4,0.78 -3.42,0.83 -5.6,2.07 -2.18,1.24 -5.23,3.11 -5.39,3.68 a 2.09,2.09 0 0 1 -2,1.19 c -1,0 -2.38,-0.31 -2.9,0.36 -0.52,0.67 -0.57,2 -1.66,1.81 -1.09,-0.19 -1.5,-0.83 -3.78,-0.67 a 52.08,52.08 0 0 0 -8.19,1.66 c -0.83,0.31 -0.57,0.78 -1.5,0.88 -0.93,0.1 -3.52,-0.1 -4.77,0.05 -1.25,0.15 -1.55,0.41 -1.09,1.09 0.46,0.68 -0.31,1 -1.66,0.57 -1.35,-0.43 -0.88,-1.19 -2.49,-1.24 -1.61,-0.05 -3.52,0.88 -5.23,1 -1.71,0.12 -3.94,0.1 -4.87,0.1 -0.93,0 -1.24,0.57 -0.52,1 1.6,0.91 4.77,1 6.74,0.93 1.97,-0.07 2.18,-0.41 3.06,-0.05 0.88,0.36 1.61,-0.62 3.06,-0.62 1.45,0 1.81,0.36 3.06,0.16 1.25,-0.2 1.76,-0.78 2.49,-0.78 0.73,0 2.8,-1.14 3.42,-0.83 0.62,0.31 1,0.62 1.35,0.41 0.35,-0.21 0.73,0.1 3.42,-0.41 2.69,-0.51 7.51,-1.76 8.19,-1.81 a 18.71,18.71 0 0 0 2.44,0 c 1.14,-0.16 0.16,-1.35 1,-1 0.84,0.35 2,0.73 2.07,0.31 0.07,-0.42 -0.36,-0.83 0.47,-0.62 0.83,0.21 0.52,0.88 3.32,0 2.8,-0.88 12.13,-3 14.66,-3.78 2.53,-0.78 6,-2.12 5.91,-1.5 -0.09,0.62 1.3,0.16 1.92,-0.21 a 19.76,19.76 0 0 1 4.35,-0.88 c 1.5,-0.21 6.84,-0.16 6.43,-0.78 -0.41,-0.62 2.38,-0.67 4,-0.78 a 15.5,15.5 0 0 0 3.68,-0.47 c 0.62,-0.26 0.88,-0.16 1.61,0.1 a 15.2,15.2 0 0 0 4.46,0.62 7.51,7.51 0 0 1 3.83,0.73 c 0.78,0.47 1.72,-0.1 2.12,-0.21 0.7,-0.18 3.19,0.78 4.56,1.09 a 25.67,25.67 0 0 1 5.13,1.5 c 0.88,0.57 1.35,1 -0.21,0.78 -1.56,-0.22 -4.06,-0.65 -3.73,-0.28 a 13,13 0 0 1 1.66,1.53 c 0.44,0.65 0.26,1.14 2.18,1.19 1.92,0.05 1.87,-0.26 3,0.1 1.13,0.36 2.28,1.5 2.85,1.3 0.57,-0.2 0.16,-0.41 0.88,-0.05 0.72,0.36 1.71,1.3 2.49,1.09 0.78,-0.21 1.14,-0.78 1.87,-0.21 a 12.74,12.74 0 0 0 3,2 c 1.09,0.41 1,-0.36 1.14,-1.3 0.14,-0.94 0.78,-1.61 -0.47,-1.55 a 8.72,8.72 0 0 1 -4.66,-1.35 c -2.18,-1.14 -4.21,-2.14 -3.06,-2.38 a 4.74,4.74 0 0 1 3.63,0.67 11.65,11.65 0 0 0 4.46,1.19 c 0.62,0 0.41,-0.52 0.05,-0.78 -0.36,-0.26 1.81,-1.61 0.52,-2.11 z M 494,230.33 c -0.6,0.28 0.13,0.47 -1.53,0.78 -2.39,0.45 -2.23,0.73 -4,0.31 a 7.3,7.3 0 0 0 -3.68,0.05 c -1.5,0.21 -1.61,-0.16 -2.9,-0.16 a 3.5,3.5 0 0 0 -2.46,0.62 c -1.44,0.81 -2,1 -2.72,0.67 -0.72,-0.33 -1.71,-0.57 -2,-0.1 -0.29,0.47 -0.83,1.81 -1.35,0.73 -0.52,-1.08 0.54,-1.53 -1.32,-0.85 -1.86,0.68 -8.16,1.32 -9.61,2 -1.45,0.68 -1.66,1.35 -2.69,1.81 -1.03,0.46 -2.59,0.78 -3.42,0.31 -0.83,-0.47 -0.57,-0.78 -1.24,-0.26 -0.67,0.52 -0.83,1.24 -2,1.4 -1.17,0.16 -0.78,-0.47 -2.07,-0.16 -1.29,0.31 -1.14,0.78 -2.59,1.71 -1.45,0.93 -2.12,1.4 -3.58,1.5 a 24.31,24.31 0 0 1 -4.66,0.47 c -3.21,0 -10.62,0.31 -12.8,0.41 -2.18,0.1 -4.3,0.65 -7.8,-0.05 a 73.6,73.6 0 0 0 -8.32,-0.88 c -1.19,-0.16 -0.36,1.24 -1.76,0.52 -1.4,-0.72 -1.87,-1.66 -2.33,-1 -0.46,0.66 0.36,1.4 -1.3,0.78 -1.66,-0.62 -2.33,-1.3 -4,-1.09 -1.67,0.21 -1.92,0.57 -3,0.26 -1.08,-0.31 -3,-0.65 -2.44,-0.13 a 5.72,5.72 0 0 0 3.06,1.22 4.39,4.39 0 0 1 1.5,0.16 c 0.49,0.16 2.12,1.87 3.11,1.87 0.99,0 1.66,-0.05 1.92,-0.41 a 2.19,2.19 0 0 1 2.38,-0.57 32.08,32.08 0 0 0 7.51,0.83 c 0.93,-0.21 4,0.16 5,0.1 1,-0.06 2.59,-0.26 3,-0.31 a 25.82,25.82 0 0 0 3.78,0.1 c 1.3,-0.21 2,1 3.28,1.05 1.28,0.05 8.77,0 9.91,0.14 1.14,0.14 1.87,-0.52 3.21,-0.93 1.34,-0.41 4.84,-0.17 5.25,-0.59 0.41,-0.42 1.59,-1.24 2.21,-1.14 0.62,0.1 1.47,-0.11 1.55,-0.52 0.08,-0.41 0.09,-1 0.66,-1.07 l 2.51,-0.23 c 0.77,-0.07 3.71,-0.37 5.94,-0.73 2.23,-0.36 10.28,-2.4 11.16,-3 0.88,-0.6 1,-1.74 1.76,-1.53 0.76,0.21 0.62,0.7 1.76,0.49 1.14,-0.21 1.61,-0.36 3.06,-0.57 1.45,-0.21 3.06,0 3.32,-0.57 0.26,-0.57 0.41,-0.47 1.3,-0.21 a 1.74,1.74 0 0 0 1.61,-0.16 c 0.41,-0.21 0,0 1.09,0.1 a 3,3 0 0 0 2.28,-0.57 9.19,9.19 0 0 1 2.59,-0.73 c 1.35,-0.36 2,-0.52 2.28,-1.19 0.28,-0.67 0.58,-1.15 -0.42,-0.68 z m 11.84,-25.13 c -1.19,0 -4.2,0.1 -6,-0.73 -1.8,-0.83 -4.61,-3.73 -6.37,-4.46 -1.76,-0.73 -2.69,-0.57 -4.46,-1.3 -1.77,-0.73 -5.7,-2.69 -7.93,-3.94 -2.23,-1.25 -6.22,-4.77 -8.29,-5.86 a 19.11,19.11 0 0 0 -6,-2.18 c -1.71,-0.21 -5.18,-1.76 -6.84,-1.76 -1.66,0 -2.18,0 -2.59,-0.83 a 5.7,5.7 0 0 1 -0.43,-1.25 l -1.74,4.15 a 4.57,4.57 0 0 0 1.18,0.15 c 1.4,-0.05 2.54,0.31 5.86,1.66 3.32,1.35 4.51,1.3 7.41,1.71 2.9,0.41 1.9,0.4 3.37,1.09 0.39,0.18 0.52,0.67 1.66,1.4 1.14,0.73 -0.62,0.52 -0.62,0.52 0,0 -2.64,-0.57 -4.56,-1.09 a 15.42,15.42 0 0 1 -3.94,-1.92 c -1,-0.52 -0.88,0.05 -2.33,0.1 -1.45,0.05 -2.59,-1.45 -5.13,-2.33 a 6.53,6.53 0 0 0 -3.28,-0.37 l -1.73,4.12 3.09,-0.53 c 3.73,-0.67 3.94,1 6.94,1.92 3,0.92 3.63,-0.05 4.72,-0.41 1.09,-0.36 0.05,0.67 0.21,1.3 0.16,0.63 3.5,1.31 4.4,1.92 0.9,0.61 -0.21,0.47 -1.87,0.16 -1.66,-0.31 -3.37,-0.83 -6.11,-1.4 -2.74,-0.57 -5.08,-1.45 -7.82,-1.5 a 12.5,12.5 0 0 0 -4.45,0.68 l -1,2.34 a 27.78,27.78 0 0 1 6.73,-0.64 25.45,25.45 0 0 0 5.6,0.57 c 3.06,-0.05 4.17,0.37 5.7,1.61 0.83,0.67 0.93,1.09 0.16,0.83 a 47.85,47.85 0 0 0 -5.8,-1.35 c -2.28,-0.36 -2.38,0.26 -5.34,-0.16 -2.96,-0.42 -1.87,-0.73 -3.32,-0.83 -1.25,-0.09 -1.93,0.59 -4.09,0.85 l -1,2.39 a 5.12,5.12 0 0 0 3.64,0.54 c 2.85,-0.52 2.54,-1.09 4.66,-0.73 2.12,0.36 3.21,-0.57 4.51,-0.52 1.3,0.05 -0.21,0.62 0.26,1 0.47,0.38 1.5,0.36 2.49,0.36 0.99,0 1.14,0.47 2.28,0.73 1.14,0.26 4.2,-0.21 4.66,0.26 0.46,0.47 3,1.5 2,0.26 -1,-1.24 -3.58,-2.59 -2.59,-2.59 a 7.42,7.42 0 0 1 3.47,1 64.31,64.31 0 0 0 5.99,2.86 c 1.09,0.36 0.88,-0.36 1.5,0 a 25,25 0 0 0 2.85,1.55 c 0.73,0.26 0.26,-1.14 0.88,-0.47 0.62,0.67 1.61,2.12 3,1.87 1.39,-0.25 2.75,0 1.87,0.47 -0.88,0.47 -1.5,0.52 0.62,1.14 a 56,56 0 0 1 6.37,2.28 3.05,3.05 0 0 0 3.06,0.1 c 0.93,-0.36 0.31,-1.09 -0.88,-1.76 -1.19,-0.67 -3.32,-1.4 -2.75,-0.52 0.57,0.88 -0.52,0.47 -1.55,-0.62 a 7.2,7.2 0 0 0 -4.2,-2.64 c -2.75,-0.83 -4,-2.33 -5.49,-2.54 a 50.73,50.73 0 0 1 -7.25,-2.59 c -1.5,-0.62 -3.47,-1.45 -4.15,-2.23 -0.68,-0.78 -2.33,-2.8 -1.24,-2.38 1.09,0.42 3.78,0.31 3.94,1 0.16,0.69 -0.21,0.73 1.3,1.3 1.51,0.57 4.3,1.35 5.18,1.71 0.88,0.36 0,0.57 0.78,1.09 0.78,0.52 4.77,2.64 6.58,2.85 a 8.23,8.23 0 0 1 3.83,1.55 c 1.35,0.78 3.37,2.49 6.37,2.28 3,-0.21 5.18,-1.24 3.99,-1.24 z m -14.92,29.9 a 8.21,8.21 0 0 1 -3.73,1.24 c -2.49,0.26 -3.58,-0.1 -5.18,0.36 -1.6,0.46 -2.49,1.45 -3.58,1.19 -1.09,-0.26 -2.07,-0.73 -2.54,-0.57 -0.47,0.16 -2,1.55 -2.85,1.35 -0.85,-0.2 -0.83,-0.52 -1.45,-0.47 a 19.06,19.06 0 0 0 -3,1.5 c -0.49,0.22 -0.52,1.14 -1.5,1.14 a 17.48,17.48 0 0 1 -3.78,-0.62 c -0.83,-0.26 -1.22,1 -1.61,1.14 A 7.81,7.81 0 0 1 460,241 c -0.36,-0.05 -1.19,0.62 -1.61,0.83 -0.42,0.21 -2,-0.29 -2.64,-0.26 -0.42,0 -0.57,0.78 -1.3,0.83 a 4.86,4.86 0 0 0 -3,0.73 c -1.87,0.93 -2,1.66 -3.32,1.66 -1.32,0 -3.68,0.52 -4.87,0.52 -1.19,0 -2.07,0.78 -3.06,0.78 -0.99,0 -1.5,-0.31 -2.59,-0.31 -1.09,0 -1.55,1 -2.38,0.62 -0.83,-0.38 -1.76,-1.35 -2.12,-0.88 -0.36,0.47 -0.1,0.83 -0.83,0.78 a 18.37,18.37 0 0 1 -4,-0.78 c -1,-0.41 -2.33,0.26 -3.37,0.41 -1.04,0.15 -1.61,-0.31 -2.38,-0.31 -0.77,0 -2.23,0.31 -2.69,0.31 h -6 a 12,12 0 0 1 -2.59,-0.73 c -1.4,-0.47 -2,0 -3,0 -1,0 -3.62,0.35 -5.21,-0.31 -1.59,-0.66 -3.16,-1 -3.81,-0.83 -0.3,0.1 -0.21,0.41 0.57,0.78 a 7.82,7.82 0 0 0 2.38,0.73 c 1,0.16 2.78,1.49 3.77,1.54 0.99,0.05 2.69,0.41 3.46,0.51 0.77,0.1 2.23,0.21 2.82,0.25 L 415,248 c 0.67,0.05 1.38,-0.55 2.42,-0.55 a 37.68,37.68 0 0 1 3.89,-0.05 c 0.6,0.12 2.41,0 3.7,0.26 1.29,0.26 4.95,0.1 8.06,0.66 3.11,0.56 7.23,-0.63 8.91,-0.55 1,0 3.58,0.19 3.83,-0.28 0.25,-0.47 0.64,-0.73 1.52,-0.62 0.88,0.11 7.67,-0.5 8.29,-1 a 5.46,5.46 0 0 1 3,-0.41 c 0.78,0.1 0.62,-1.4 1.35,-1.71 0.73,-0.31 0.52,-0.78 2,-0.67 1.48,0.11 2.38,0.36 3.16,-0.1 a 8.33,8.33 0 0 1 2.49,-1 9.49,9.49 0 0 1 2.33,0.36 c 0.78,0.26 1.4,-0.52 2.12,-0.78 0.72,-0.26 5.13,-1.19 5.44,-1.35 0.31,-0.16 0.26,-0.52 -0.1,-0.88 -0.36,-0.36 1.3,-0.31 1.55,-0.1 0.25,0.21 -0.83,1.09 0,1 0.83,-0.09 2.49,-0.47 3.37,-0.47 0.88,0 0.93,-0.93 1.61,-1.3 0.68,-0.37 0.93,0.1 2.38,-0.83 a 16.26,16.26 0 0 1 3.68,-1.4 c 0.89,-0.31 1.82,-1.5 0.89,-1.14 z m 15.23,-33.58 c -1,-0.52 -3.16,-0.88 -5.29,-2 -2.13,-1.12 -2.8,-2.18 -4.3,-2.8 -1.5,-0.62 -4.2,-1.61 -6.53,-2.64 -2.33,-1.03 -9.38,-3.78 -12.18,-6.58 -2.8,-2.8 -8.29,-7.46 -10.78,-8.81 -2.49,-1.35 -4.3,-3.42 -6,-5.08 l -0.12,-0.1 -1.18,2.81 c 0.9,1 1.35,2.11 3.06,2.63 a 9.72,9.72 0 0 1 4.61,3.11 c 0.93,1.24 2.18,4.35 4,4.92 1.82,0.57 2.64,0.21 3.06,0.78 0.42,0.57 -1.19,0.31 1.76,2 2.95,1.69 4.51,2.88 4.56,2.46 0.05,-0.42 0.73,-0.31 0.78,0.16 0.08,0.69 -0.23,0.52 1.37,1.09 a 16.19,16.19 0 0 1 4.64,2.25 c 3.11,1.87 5,3.16 5,2.38 0,-0.78 0.1,-0.73 1,-0.21 0.9,0.52 2.59,2.9 4.56,3 1.97,0.1 1.81,-0.88 2.38,0.21 0.57,1.09 1.24,1.3 2,0.93 0.76,-0.37 0.31,-0.26 1.81,0.16 1.5,0.42 2.75,-0.19 1.76,-0.67 z m -76.34,51.83 c -0.88,-0.1 -1.14,0.21 -2,0.21 a 36.14,36.14 0 0 1 -4.46,-0.41 c -2.23,-0.26 -5.34,-1 -4.09,0.1 1.25,1.1 2.82,1.9 3,1.38 0.18,-0.52 -0.36,-0.78 1.37,-0.26 1.93,0.58 3.84,1.36 3.69,0.64 -0.15,-0.72 0.53,-0.19 1.31,-0.38 0.78,-0.19 2.03,-1.17 1.15,-1.28 z m -6.2,-18.21 c -4.09,-0.36 -6.84,-0.57 -7.51,-0.52 -0.67,0.05 -0.83,0.16 -0.47,0.57 0.76,0.87 1.4,1.35 3.58,1.4 a 18,18 0 0 0 4.61,-0.47 c 1.35,-0.26 1,0 3,0.26 2,0.26 6.11,-0.83 7.25,-0.57 1.14,0.26 2,-0.1 2,-0.52 0,-0.42 2.12,0.73 4.77,0.47 2.65,-0.26 6.74,-1.66 8.29,-1.71 1.55,-0.05 1.71,0.31 4.2,0.36 2.49,0.05 3.68,-0.26 3.68,-1.14 0,-0.88 -1.14,-0.83 -0.83,-1.4 0.31,-0.57 0.52,-1.3 -0.73,-1.19 a 31.62,31.62 0 0 0 -5.29,1.76 18.67,18.67 0 0 1 -4.82,0.57 c -0.62,-0.1 0.1,-1 -1.09,-0.57 a 17.84,17.84 0 0 1 -6,1.76 42.16,42.16 0 0 1 -9.48,-0.31 c -1.92,-0.47 -2.9,-0.57 -3.32,0.05 -0.42,0.62 2.22,1.57 -1.87,1.21 z m 58.61,8.39 c -1.35,-0.1 -1,-0.83 -3,0 a 17.22,17.22 0 0 1 -5.8,1.24 c -1.35,0 -7.15,1.66 -8.39,1.14 -1.24,-0.52 -3.21,-1.45 -3.21,-0.62 0,0.83 1.87,1.87 0.62,2 -1.25,0.13 -2.38,-0.73 -3.32,-0.21 -0.94,0.52 -3.32,-0.1 -3.63,0.31 a 5.09,5.09 0 0 1 -3.21,1 18.39,18.39 0 0 0 -6.22,0.26 22.58,22.58 0 0 1 -5.83,0.44 c -1,0 -5.47,1.06 -6.71,0.54 a 15.46,15.46 0 0 0 -5.18,-0.83 c -1.14,0.1 -2,0.93 -4.35,0.52 -2.35,-0.41 -2.49,-0.52 -4.35,-0.31 -1.86,0.21 -4.46,0.31 -6.43,0.31 -1.97,0 -5.6,0.1 -4.66,0.52 3,1.35 6,1.42 9.29,1.31 3.29,-0.11 5.8,-0.86 8.08,-0.55 a 125.11,125.11 0 0 0 13.06,0.9 c 2.9,-0.1 6.67,-0.73 8.12,-0.73 1.45,0 2.59,-1.14 4.35,-1.14 1.76,0 2.41,0.73 4.39,0.48 2.76,-0.35 2.63,-0.24 4.8,-0.55 a 43.8,43.8 0 0 1 5,-0.79 19.84,19.84 0 0 0 5.67,-1.31 c 0.73,-0.41 -0.79,-0.83 1.17,-0.83 1.96,0 8,-1.87 9.12,-1.87 1.12,0 2.28,0.21 2.69,-0.1 0.41,-0.31 -0.76,-1.02 -2.11,-1.12 z m -83.17,-6 c 1.81,0.05 0.88,-0.26 1.76,-0.21 0.88,0.05 0,0.67 0.93,1 a 3.69,3.69 0 0 0 2.44,0.26 64.94,64.94 0 0 1 8.71,-0.36 c 2.54,0.1 4.87,1.71 8.91,2.23 4.04,0.52 2.12,-1.09 3.73,-0.88 a 20.18,20.18 0 0 0 4.56,-0.21 14.64,14.64 0 0 1 3.89,0.31 c 2.49,0.47 0.78,-0.1 0.73,-0.62 -0.05,-0.52 2,0.31 4.51,0.31 2.51,0 6.79,-1.24 9,-2 2.21,-0.76 0.57,-0.52 -0.73,-0.62 a 7.42,7.42 0 0 0 -3.37,0.05 8.86,8.86 0 0 1 -4.3,0.41 c -2.12,-0.26 -2.69,0.41 -3.78,0.88 -1.09,0.47 -3.47,0.47 -5.8,0.31 a 35.87,35.87 0 0 1 -5.6,-0.78 c -1,-0.26 -0.62,0 -1.55,0.52 -0.93,0.52 -1.92,0.1 -4,0.16 -2.08,0.06 -3.32,-0.83 -4.61,-1.3 -1.29,-0.47 -0.93,-1.19 -1.92,-1.14 -0.99,0.05 -0.83,0.52 -1.35,0.93 -0.52,0.41 -1.81,-0.41 -3.16,-0.47 -1.35,-0.06 -0.93,0.16 -1.3,0.67 -0.37,0.51 -0.57,-0.31 -0.83,-0.88 -0.26,-0.57 -1.5,-0.05 -2.28,-0.36 -0.78,-0.31 -0.41,0.78 -1.24,0.62 -0.83,-0.16 -1.5,-0.78 -1.71,-0.26 -0.21,0.52 -1.09,-0.16 -2.85,-0.36 -1.76,-0.2 -2.49,-0.73 -4.4,-0.83 a 11.84,11.84 0 0 0 -2.54,0 c -1.3,0.16 0.83,0.62 2.44,1.4 1.61,0.78 2,0.21 3.26,0.16 a 2.91,2.91 0 0 0 2.4,1.11 z m 75.6,13.16 c -2.64,0.53 -1.64,-1.09 -4.8,-0.67 -3.16,0.42 -12,1.9 -13.61,2.11 -1.61,0.21 -3.28,0 -3.49,0.24 a 1.65,1.65 0 0 1 -1.62,0.45 c -0.62,-0.26 -0.62,-0.4 -2,0.07 a 14.62,14.62 0 0 1 -6,0.1 c -0.67,-0.36 -5.08,0.31 -6.74,0.83 -1.66,0.52 -3.54,-0.41 -4.21,-0.62 -0.67,-0.21 -1.36,1.23 -1.78,1.64 -0.42,0.41 -0.73,0.36 0.73,0.83 1.46,0.47 1.71,0.26 3.21,0.05 1.5,-0.21 0.21,-0.26 2.54,-0.73 a 13.31,13.31 0 0 1 6.58,0.21 7.94,7.94 0 0 0 4.61,0.47 c 1.19,-0.36 -0.93,-0.93 0.31,-1.09 a 4.18,4.18 0 0 1 2.75,0.16 c 1.24,0.47 3.37,-0.57 3.37,-0.57 0,0 2.07,0 4.25,0.1 2.18,0.1 1,-1 2.9,-1.09 1.9,-0.09 5.29,-1.19 6.53,-1.19 1.24,0 -0.73,1.45 0.93,1.09 a 47.76,47.76 0 0 0 5.6,-1.66 c 0.84,-0.31 0.69,-0.83 -0.09,-0.68 z M 508,200.27 a 42,42 0 0 0 -7.77,-3.21 c -2.33,-0.62 -2.8,-1.55 -3.94,-2.44 -1.14,-0.89 -2.8,-1.14 -4.82,-1.71 -2.02,-0.57 -5.91,-1.87 -6.89,-2.69 a 35,35 0 0 0 -5.49,-3.11 6.78,6.78 0 0 1 -3.06,-3 c -0.36,-0.57 -0.31,-0.62 -1,-0.67 -0.69,-0.05 -0.83,-0.31 -2.18,-1.4 -1.35,-1.09 -4.46,-4.09 -6.17,-5.65 a 52.25,52.25 0 0 0 -5.42,-3.79 L 462,171 a 4.37,4.37 0 0 1 1.85,1 c 1.5,1.4 3.52,2.44 3.32,1.45 -0.2,-0.99 -1.61,-2.49 -3.37,-4 -0.34,-0.29 -0.6,-0.53 -0.83,-0.75 l 0.58,-1.38 c 1.15,1.14 2.8,2.36 3.41,3 0.88,0.93 2.86,3.42 2.28,2.07 a 29.05,29.05 0 0 0 -2.07,-3.47 36.43,36.43 0 0 0 -2.89,-3.34 l 1,-2.33 a 13.44,13.44 0 0 0 1.6,2.15 39,39 0 0 1 4.25,4.61 c 1.45,2.07 2.64,3.94 3.47,5.18 0.83,1.24 4.46,3 6.43,3.89 1.97,0.89 0.62,0.41 1.3,1.5 0.68,1.09 4.25,3.68 5.23,4.4 0.98,0.72 1,1.3 2.8,2.33 1.8,1.03 4.09,3.37 5.18,3.94 1.09,0.57 3.52,2.49 5.91,4.25 2.39,1.76 6.48,3.37 7.41,3.94 0.93,0.57 0.06,1.46 -0.86,0.83 z m -15.29,-9.17 c -1.45,-1.09 -3.58,-2.49 -3.58,-2.49 -1.71,-1.3 -2.18,-2.23 -4.56,-3.16 a 8.75,8.75 0 0 1 -4.09,-2.75 c -1,-1.14 0.26,-0.93 -1.92,-2.18 -2.18,-1.25 -6.58,-4 -6.94,-4.56 -0.36,-0.56 -2,-1.5 -2,-0.83 0,0.67 1,2.28 3,3.58 2,1.3 3.21,1.76 5,2.9 1.79,1.14 2.49,2.44 3.73,3.73 1.24,1.29 2.12,2.75 4.15,3.26 a 14.45,14.45 0 0 1 4.15,1.66 c 2.07,1.05 4.56,1.93 3.1,0.84 z m 16.06,0.57 c -1,-0.67 -1.61,-0.47 -3,-2.07 -1.39,-1.6 -3.37,-1.24 -3.11,-1.76 0.26,-0.52 0.73,-0.52 -0.83,-1.4 -1.56,-0.88 -2.82,-4.07 -3.42,-3.68 -0.26,0.17 -1.18,0 -2.12,-0.93 -1.66,-1.61 -2.18,-2.36 -2.9,-2.69 -0.72,-0.33 -0.41,0.57 -1.71,-0.26 -1.3,-0.83 -5.6,-5.54 -6.58,-6.63 a 6.42,6.42 0 0 0 -3.26,-1.92 7.31,7.31 0 0 1 -4,-2.8 c -1.4,-1.81 -3.24,-3.94 -3.65,-5.18 -0.41,-1.24 0,-2 -1.35,-3.11 a 12.64,12.64 0 0 1 -3.16,-4.35 c -0.15,-0.46 -0.26,-0.93 -0.39,-1.42 L 468,156.8 c 0.06,0.16 0.12,0.31 0.19,0.47 0.73,1.61 1.81,1.3 2,2.9 a 15.73,15.73 0 0 0 2.8,6.06 c 1.14,1.35 2.64,2.69 3,3.37 0.36,0.68 2.59,0.52 3.58,1.87 0.99,1.35 0.73,0.83 3.21,2.59 2.48,1.76 4.4,3.83 6.22,5.18 1.82,1.35 3.52,4.15 5.54,4.66 2.02,0.51 3,0.88 2.69,1 -0.31,0.12 -1.3,0.36 0.26,1.45 1.56,1.09 4.4,2.8 5.6,3.68 1.2,0.88 2.49,0.57 3.78,1.4 1.29,0.83 2.28,3.11 2.54,2.28 0.26,-0.83 0.44,-1.36 -0.59,-2.04 z m 12,-49 a 19.19,19.19 0 0 1 -3.21,-5.13 c -0.31,-0.88 -0.16,-1.71 -1.5,-1.5 -1.34,0.21 -1.71,0.26 -1.5,-0.93 0.21,-1.19 0.21,-2 -1.24,-3.37 -1.45,-1.37 -4.25,-3.26 -5.08,-4.72 -0.83,-1.46 -0.47,-3 -1.71,-4.09 -1.24,-1.09 -1.4,-2 -2.8,-3.83 -1,-1.27 -1.48,-2.28 -2.5,-3.7 -0.44,-0.61 -1,-1.26 -1.7,-2.1 a 24.29,24.29 0 0 0 -2.3,-2.78 24,24 0 0 0 -1.89,-1.88 c -1.52,-1.12 -3.47,-3.13 -5.48,-4.21 l -0.74,1.77 a 5.55,5.55 0 0 0 1.25,1.71 c 1.3,1.14 2.59,1.45 2.8,2.28 0.21,0.83 -0.73,0.83 0.52,1.55 1.25,0.72 2.49,1.45 3,2.38 0.51,0.93 1.59,1.47 2.07,2.12 a 30.79,30.79 0 0 1 3.16,5.75 c 0.26,0.94 3.16,3.11 3.42,4.56 0.26,1.45 0.93,1.19 3.37,3.32 2.44,2.13 3.16,4.92 3.73,5.8 0.57,0.88 0,0.83 1.14,2.18 1.14,1.35 1.61,0.67 3,2.12 a 42.05,42.05 0 0 1 3.37,4.61 c 0.52,0.67 1.75,2.5 1.71,1.3 -0.04,-1.47 0.68,-1.57 -0.82,-3.18 z m -1.5,7.38 c -0.31,-0.18 -0.8,0.47 -0.28,1.14 0.52,0.67 0.67,2.23 1.3,1.87 a 1.23,1.23 0 0 0 0.31,-1.81 7.11,7.11 0 0 0 -1.26,-1.16 z M 387.88,127.83 c -0.52,0.62 -1,1.55 0.1,1.55 a 3.35,3.35 0 0 0 0.92,-0.14 l 0.55,-2.52 a 6.52,6.52 0 0 0 -1.57,1.11 z m 130,29.48 c 0.52,-0.62 0.62,0.41 -0.36,-1.4 -0.98,-1.81 -1.87,-0.52 -1.87,-2 0,-1.48 0.62,-1.24 -0.41,-2.49 -1.03,-1.25 -0.21,-1.45 -0.93,-2 -0.72,-0.55 -1.35,-0.36 -2.18,-2.23 -0.83,-1.87 -0.84,-3 -2.12,-4.77 -1.55,-2.18 -1.84,-4.07 -3.78,-6.11 a 17.77,17.77 0 0 1 -3.16,-4.51 14.84,14.84 0 0 0 -2.07,-3.11 c -0.47,-0.49 -1.14,-0.41 -1.92,-2.12 -0.78,-1.71 -1.35,-2.75 -2.18,-4.3 -0.83,-1.55 -0.73,-1.81 -1.81,-3 -1.08,-1.19 -0.73,-0.05 -2.28,-2.12 -1.55,-2.07 -1.55,-2.28 -2.64,-3.73 a 14.49,14.49 0 0 0 -2.72,-3.13 l -1.1,2.62 a 7.29,7.29 0 0 1 0.71,0.71 46.73,46.73 0 0 1 4.15,4.87 c 0.78,1.35 3.32,4.72 4.3,6.27 0.98,1.55 0.47,1.61 1.24,2.75 0.77,1.14 1,0.52 2.54,3.26 1.54,2.74 1.71,4.46 3.89,7.2 2.18,2.74 2.75,3.58 3.42,3.89 0.67,0.31 0.83,0.41 0.67,1.19 -0.16,0.78 0.36,0.57 0.83,1.3 a 9,9 0 0 1 1,2.54 c 0.1,0.57 -0.41,0.83 0.31,1.09 0.72,0.26 1.5,0.21 1.45,0.78 -0.05,0.57 0.21,0.52 0.52,0.78 0.31,0.26 0.1,0.21 0.21,1.3 0.11,1.09 -0.26,0.05 1.35,2.12 1.61,2.07 1.87,1.92 2.12,3 0.25,1.08 -0.34,0.73 1,1.71 1.74,1.29 2.69,3.42 2.54,1.87 -0.15,-1.55 -1.23,-1.6 -0.71,-2.22 z m 4.12,-33.1 a 5.24,5.24 0 0 1 -1,-2.54 c 0,-0.67 0.47,-1.09 -0.67,-2 -1.14,-0.91 -2.8,-3 -2.12,-2.8 0.68,0.2 0.21,-1 -0.52,-1.24 -0.73,-0.24 -0.83,-1.19 -1.71,-1.66 -0.88,-0.47 -2.18,-2.12 -1.3,-2.28 0.88,-0.16 0.78,-0.26 -0.67,-1.3 -1.45,-1.04 -1.71,-2.69 -2.54,-3 -0.83,-0.31 -1.09,-0.78 -0.73,-1 0.36,-0.22 -0.62,-1 -2.23,-1.81 -1.61,-0.81 -4.56,-3.11 -3.47,-3 1.09,0.11 1.66,0.41 0.41,-1.14 -1.25,-1.55 -3.16,-3.26 -3,-2.54 0.16,0.72 0.16,1.45 -1.55,-0.41 A 9.1,9.1 0 0 0 498,95 19.16,19.16 0 0 1 495.06,92.15 l -1.43,3.4 a 12.35,12.35 0 0 0 1.21,0.86 c 0.78,0.47 4.35,3.26 4.35,3.26 a 27.84,27.84 0 0 1 4.09,3.89 c 1.35,1.76 1.4,2.33 2.38,3.32 0.98,0.99 1.35,0.47 1.92,1.35 0.57,0.88 1.45,0.62 2,1.45 0.55,0.83 0.05,1.09 0.67,1.66 a 19.72,19.72 0 0 1 3.78,4.51 c 0.78,1.66 0.21,1.4 2.07,3.21 1.86,1.81 3.78,3.52 4.35,4.82 0.57,1.3 1.19,1 1.55,1.61 0.36,0.61 1.09,2.33 1.24,0.88 0.15,-1.45 -0.85,-1.75 -1.24,-2.16 z m -8.86,52.23 A 1.48,1.48 0 0 0 512,175.82 c -0.88,0 -2.75,-0.57 -2.64,-0.05 0.11,0.52 -0.05,1 1.09,1.19 1.14,0.19 1.4,-0.16 1.76,0.88 0.36,1.04 -0.16,1.35 1.24,1.14 1.4,-0.21 1.35,-0.41 0.67,-1.09 -0.68,-0.68 -0.53,-0.89 -1,-1.45 z m -0.21,6.48 c -1,0.31 -1.87,1.14 -2.18,-0.47 -0.31,-1.61 -0.21,-2.75 -1.81,-3.73 -1.6,-0.98 -6.06,-2.59 -6,-3.32 0.06,-0.73 2.18,0.62 1.66,-0.26 a 6.84,6.84 0 0 0 -2.44,-2.75 c -1.4,-0.88 -1,-2 -2.12,-2.28 -1.12,-0.28 -1.87,-0.31 -1.76,-0.88 0.11,-0.57 1.24,-0.88 -0.41,-2.75 -1.65,-1.87 -2.8,-3.83 -4.46,-5.39 -1.66,-1.56 -3.26,-5.54 -3.47,-6.84 -0.21,-1.3 -0.21,-0.93 -0.93,-2.49 -0.72,-1.56 -0.78,-3.42 -1.5,-3.94 a 3.12,3.12 0 0 1 -1.45,-2.23 c -0.41,-1.45 0.36,-1.66 -0.52,-2.85 -0.88,-1.19 -2.33,-2.49 -2.54,-2.9 -0.21,-0.41 0.21,-0.57 -0.16,-1.14 -0.37,-0.57 -0.93,-0.41 -1.5,-1.14 a 8,8 0 0 1 -0.83,-2.12 c -0.26,-0.52 -1.37,0 -1.79,-1.35 a 11.37,11.37 0 0 0 -0.63,-1.49 l -1.24,3 a 7.19,7.19 0 0 0 0.45,1.12 c 0.36,0.62 1.09,1 1.76,1.87 0.67,0.87 1.83,2.79 2.52,3.59 1,1.17 0.88,2.41 1,3.61 0.12,1.46 1,2.31 1.14,3 a 13.11,13.11 0 0 0 0.6,1.79 11.67,11.67 0 0 0 0.93,2.07 c 0.47,0.83 1.5,1.3 2.12,2.33 0.62,1.03 0.16,1.55 0.57,2.69 a 11.23,11.23 0 0 0 2.07,3.32 c 1.14,1.45 3,6.17 3.68,7.1 0.68,0.93 2,1.92 2.49,2.69 0.49,0.77 0.47,1.76 1.71,2.69 a 6.61,6.61 0 0 0 2.33,1.24 0.6,0.6 0 0 1 0.31,1 c -0.36,0.41 -0.21,0.88 0.93,1.14 a 5,5 0 0 1 2.38,1 c 0.83,0.62 2.64,0.83 2,1.3 -0.64,0.47 -1.45,0.31 0.05,1.4 1.5,1.09 2.75,1.19 3.47,2.49 0.72,1.3 1.55,1.92 2.64,1.55 1.09,-0.37 1.95,-1.99 0.91,-1.68 z m -123.4,45.44 c 1.45,0.73 3.11,0.21 4,0.41 a 6.7,6.7 0 0 0 3,-0.1 c 1.5,-0.26 1,-0.05 1.61,0.16 a 21,21 0 0 0 3.94,0.47 75.36,75.36 0 0 0 12.59,-1.19 c 1.55,-0.41 1.4,-0.52 1.61,-0.26 0.21,0.26 -0.05,0.83 0.67,0.67 0.72,-0.16 5.18,-1.5 6,-1.61 0.82,-0.11 0.88,0.47 1.61,0.78 0.73,0.31 5.13,0.26 5.86,-0.16 0.73,-0.42 0.57,-0.62 1.19,-0.47 0.62,0.15 0.21,0.73 3.37,0.36 3.16,-0.37 2.38,-0.67 2,-0.93 -0.38,-0.26 0.16,-0.67 1.19,-1 1.03,-0.33 0.21,0.78 0.57,0.67 a 16.26,16.26 0 0 1 2.75,-0.47 c 1,-0.05 1.45,0.21 4.3,0.05 a 14.07,14.07 0 0 0 5.18,-1.19 c 1.5,-0.52 0.78,0.26 1.5,0.16 0.72,-0.1 1.24,-0.78 2.54,-1.3 1.3,-0.52 4.25,-0.21 6.58,-0.57 2.33,-0.36 1.19,-0.57 0.31,-0.83 -0.88,-0.26 -0.21,-0.52 0.36,-0.78 0.57,-0.26 3.47,0.16 5.44,0.16 1.97,0 2,-1.24 1.5,-1.5 a 13.69,13.69 0 0 0 -4.61,-0.47 c -1.92,0.1 -1.14,0.73 -1.45,0.88 -0.31,0.15 -0.62,-0.41 -1.55,-0.73 -0.93,-0.32 -2.69,0.73 -4.46,0.88 -1.77,0.15 0.36,0.52 -1,0.93 -1.36,0.41 -8.14,1.92 -10.31,2.33 -2.17,0.41 -1.35,-0.41 -2.49,-0.41 a 49.54,49.54 0 0 0 -7.41,1.19 c -2.33,0.57 -1.09,0.36 -1.92,1.19 -0.83,0.83 -1.19,0.05 -2,-0.93 -0.81,-0.98 -1,0.88 -1.92,1.55 -0.92,0.67 -0.31,-0.93 -1.4,-0.36 -1.09,0.57 -1,0.41 -1.81,0.31 -0.81,-0.1 -2.49,-0.67 -3.21,-0.67 -0.72,0 1.24,-0.52 2.44,-0.67 a 3.91,3.91 0 0 0 2.49,-1.3 c 0.41,-0.52 0.67,-0.73 0.93,-0.47 0.26,0.26 0.73,0.67 1.71,-0.1 0.98,-0.77 0.57,-0.21 0.83,0.31 0.26,0.52 2.23,-0.05 4.66,-0.73 2.43,-0.68 1.76,-0.67 2.64,-0.83 0.88,-0.16 2.64,0.57 3.73,0.41 1.09,-0.16 -0.21,-1.14 -0.78,-1.4 -0.57,-0.26 -0.31,-0.62 0.05,-1 a 0.91,0.91 0 0 0 0.21,-1.09 c -0.16,-0.31 -1.87,-0.36 -3.68,-0.1 -1.81,0.26 -2.23,1.09 -3.06,1.45 -0.83,0.36 -0.88,-0.16 -1.81,-0.16 -0.93,0 -5.29,1 -5.91,1.5 -0.62,0.5 -1.35,1.55 -2,1.66 a 13.59,13.59 0 0 0 -2,0.47 c -0.88,0.26 -1.14,0.62 -2.49,1.19 -1.35,0.57 -5.7,0.93 -6.22,1.19 -0.52,0.26 0.26,0.83 -0.16,0.88 -0.42,0.05 -1.71,-0.93 -2.69,-1.09 -0.98,-0.16 -4.15,0.88 -5.34,1.19 a 39,39 0 0 1 -4.46,0.83 1.09,1.09 0 0 1 -0.88,-0.57 2.22,2.22 0 0 0 -2.23,-0.21 11.75,11.75 0 0 1 -3.83,0.78 31.92,31.92 0 0 1 -6.27,-1.3 c -0.88,-0.36 -1.81,-1.71 -3.42,-1.87 -1.61,-0.16 -2.84,0.43 -4.56,0.67 -0.36,0.05 -0.67,0.26 -0.16,0.67 a 34.57,34.57 0 0 0 5.65,0.93 c 2.28,0.18 1.03,0.81 2.48,1.54 z m 126.62,-62.44 c -0.73,-0.1 -2.1,-0.39 -1.58,0.34 0.52,0.73 0.78,0.73 2,0.73 1.22,0 0.85,-0.36 0.7,-0.57 -0.15,-0.21 -0.39,-0.42 -1.12,-0.5 z m -1.89,4.61 c -0.83,-0.21 -1.35,-1 -0.52,-1 0.83,0 0.16,-0.62 -1,-1.71 -1.16,-1.09 -2.49,-2.46 -2,-3 0.49,-0.54 0.06,-0.52 -0.05,-1.22 -0.05,-0.31 0.05,-0.54 -0.67,-1.14 -1.08,-0.88 -0.1,-1.45 -0.83,-2.18 -0.73,-0.73 -1.19,1.87 -1.4,-0.1 -0.21,-1.97 1.24,-0.16 -0.85,-3.5 -0.71,-1.14 -1.14,-2.69 -2,-4.13 -0.73,-1.18 -0.95,-2.38 -1.47,-3.36 a 23.91,23.91 0 0 0 -1.66,-2.44 c -0.47,-0.73 -1.28,-2.06 -2,-3.21 a 18.94,18.94 0 0 0 -1.28,-2.12 7.83,7.83 0 0 1 -1.45,-1.3 c -0.52,-0.67 0.16,-0.26 -0.26,-1.45 -0.42,-1.19 -2.9,-4.72 -3.06,-6.32 A 5.48,5.48 0 0 0 492,128.72 c -1.19,-1.4 -5.44,-5.34 -3.68,-4.3 a 23.24,23.24 0 0 1 6.17,6.17 c 1.24,2.07 1.24,5 2.75,7.15 1.51,2.15 0.41,1.45 1.45,2.69 1.04,1.24 0.73,0.05 1.81,1.3 1.08,1.25 2.33,4.3 3.42,5.8 a 11.69,11.69 0 0 1 2,3.58 c 0.83,2 1.87,2.07 2.9,4 a 16.15,16.15 0 0 1 1.5,4.77 c 0.26,1.14 0.67,1.3 2,2.28 1.33,0.98 1.66,1.61 2.59,2.33 0.93,0.72 2.07,1.24 1.4,-0.05 -0.67,-1.29 -2,-2.28 -1,-2 1,0.28 2.07,-0.16 1.19,-0.57 -0.88,-0.41 -2.75,-1 -3.11,-2.07 -0.36,-1.07 0.26,-2.69 -0.52,-3.83 a 27.56,27.56 0 0 0 -2.23,-3.47 c -1.09,-1.24 -1.4,-3.47 -2.49,-4.87 -1.09,-1.4 -3.78,-4.87 -4.56,-6.17 -0.78,-1.3 -0.73,-2 -2.28,-4.64 -1,-1.75 -1.62,-2.64 -2.31,-3.95 a 16.43,16.43 0 0 0 -1.32,-2.24 c -1,-1.35 -1.71,-2.76 -2.45,-3.82 a 11.92,11.92 0 0 1 -1.33,-2.19 c -0.47,-1.24 -0.67,-1.71 -3,-5 -2.33,-3.29 -0.57,-1.35 -3,-4 a 24.28,24.28 0 0 0 -1.79,-1.79 l -1,2.32 a 11.26,11.26 0 0 1 1.88,2.37 43.59,43.59 0 0 0 3.83,4.92 c 1,1.24 -1.92,-0.41 -2.49,-1.55 a 20.26,20.26 0 0 0 -3.54,-5 l -0.7,1.67 a 2.94,2.94 0 0 1 0.56,0.9 45.57,45.57 0 0 1 1.76,4.25 56.94,56.94 0 0 0 2.38,6.06 c 0.78,1.76 2.69,3.73 3.16,5.39 a 54,54 0 0 0 2.9,6.32 c 0.72,1.52 0.69,2.42 1.8,4.18 a 28.92,28.92 0 0 0 2,2.27 25.3,25.3 0 0 1 1.67,2.4 11.07,11.07 0 0 1 1.6,3 15,15 0 0 0 1.24,2.1 7.9,7.9 0 0 1 1.09,2.25 c 0.18,0.5 -1.22,0.05 -0.78,0.57 0.44,0.52 1.55,1.09 2.18,2.07 0.63,0.98 1,1 1.19,2 0.19,1 1,2.12 1.55,1.5 0.55,-0.62 1.45,-0.73 1.5,0.52 0.05,1.25 0.05,2.69 1.19,3.52 1.14,0.83 2.24,1.64 -0.36,0.57 -1.76,-0.73 -1.94,-0.44 -2.54,-1.4 -0.6,-0.96 -0.31,-1.14 -1.5,-2.38 -1.19,-1.24 -0.21,-1.45 -1.66,-2.85 a 12,12 0 0 1 -2.75,-3.26 c -0.62,-1.19 0.88,-1.14 -0.73,-2.75 -1.61,-1.61 -0.57,-1.61 -1.71,-4.15 -1.14,-2.54 -1.87,-2.8 -3.58,-5.39 -1.71,-2.59 -1.19,-1.3 -2.54,-4 -1.35,-2.7 -1,-3.94 -1.81,-4.92 a 7.36,7.36 0 0 1 -1.76,-2.9 c -0.83,-2 -0.93,-1.61 -2,-4 -1.07,-2.39 -2.64,-7.77 -3.37,-8.76 -0.56,-0.75 -0.87,-0.39 -1.57,-1 l -1.27,3 a 7.51,7.51 0 0 1 1.34,1.62 19.79,19.79 0 0 1 2.59,4.77 c 0.88,2.59 0.41,2.54 1.81,4.82 1.4,2.28 1,3.94 2.59,5.67 1.59,1.73 2.28,4.69 3,6.5 a 19,19 0 0 0 2.23,4.2 4.36,4.36 0 0 1 0.88,2.33 11.35,11.35 0 0 0 1.42,2.41 c 0.93,1.3 1.3,2.85 3.11,4.38 a 12.26,12.26 0 0 1 2.41,2.69 c 0.62,1 2.44,1.71 2.18,2.18 -0.26,0.47 -0.83,0.67 0.1,1.66 0.93,0.99 3.63,3.32 4.92,3.26 1.29,-0.06 2.23,0.1 2,0.47 -0.23,0.37 0.1,0.93 1.61,1 1.51,0.07 0.97,-0.89 0.14,-1.1 z m -7.15,24.15 c -1.24,-0.62 -4.09,-2.9 -5.29,-3.16 a 3,3 0 0 1 -2,-1.24 c -0.67,-0.67 -0.52,-1.24 -2,-1.5 -1.48,-0.26 -3.32,-1.5 -2.54,-1.4 0.78,0.1 1.55,-0.57 0.26,-1.35 -1.29,-0.78 -12.64,-10.73 -13.68,-11.66 -1.04,-0.93 -1.76,-1.3 -1.92,-0.78 -0.16,0.52 -0.57,0.93 -2,-0.31 -1.43,-1.24 -7.1,-8.24 -7.93,-10.16 -0.83,-1.92 -1.61,-4.3 -2,-3.37 -0.18,0.45 -0.6,0 -1,-0.72 l -1,2.36 c 0,0 0,0.08 0,0.12 0.47,1.81 0.52,2.59 1,2.44 0.48,-0.15 2.18,1.19 2.33,2 a 18.23,18.23 0 0 0 3.32,4.66 c 1,1 1.05,2.31 1.93,2.42 0.88,0.11 1,1.21 2,2.3 1,1.09 3.33,2.91 3.52,2.54 0.19,-0.37 0.88,-0.39 1.87,0.52 1.29,1.19 5.54,5.54 6.58,6.37 1.04,0.83 2,1.24 2.8,2 0.8,0.76 0.57,1.19 2,1.81 1.43,0.62 3.78,1.35 4.82,2.59 1.04,1.24 1.4,2.44 2.49,2.18 1.09,-0.26 1.14,-0.21 1.81,0.52 0.67,0.73 0.36,0.93 2.38,1.3 2.02,0.37 2.33,0.47 2.9,1.14 0.57,0.67 2.33,1.71 1.55,0.31 -0.78,-1.4 -0.96,-1.31 -2.2,-1.93 z m 13.52,-65.13 c 0.62,0.05 1,-0.62 -0.31,-1.71 -1.31,-1.09 -0.41,-1.35 -1.81,-2.64 -1.4,-1.29 -1,-2.07 -1.76,-3 -0.76,-0.93 -1.35,-0.57 -2,-2 -0.65,-1.43 -1,-2.33 -2.23,-3.11 -1.23,-0.78 1.19,0 0.05,-1.5 a 56.08,56.08 0 0 0 -5.6,-5.44 15.54,15.54 0 0 1 -4.3,-5.34 c -0.88,-2.18 -1.48,-2.93 -3.91,-4.59 -2.43,-1.66 -2.9,-2.38 -4,-3.21 a 6.67,6.67 0 0 0 -1.37,-0.73 L 492,99.51 a 24.74,24.74 0 0 1 2.67,1.79 c 1.4,1.09 2,1.87 3,2.75 a 22.93,22.93 0 0 1 2.49,3.06 c 0.78,1 2.8,2.33 3.32,3.42 0.52,1.09 2,1.81 2.64,2.69 0.64,0.88 0.67,1.76 1.71,2.85 1.04,1.09 3.21,2.59 4.25,4.15 1.04,1.56 0.52,1.71 2.12,3.52 1.6,1.81 2.54,2 3,2.75 0.46,0.75 2.8,1.81 2.23,1.92 -0.57,0.11 -1,1 -0.1,1.92 0.9,0.92 3,3.7 2.9,2.8 -0.15,-1.36 -2.59,-3.67 -1.6,-3.59 z M 371.76,112.81 c 1.19,-0.78 1.35,-1.4 2.28,-1.5 0.93,-0.1 1.3,0.73 3.73,-0.31 a 19.15,19.15 0 0 0 4.77,-3.54 H 379 l -1.8,0.9 a 12.51,12.51 0 0 0 -3.47,2.07 c -1.81,1.39 -3.16,3.15 -1.97,2.38 z m -6.14,28.37 c 1.14,-0.78 2.15,-0.49 3.29,-1.94 1.14,-1.45 0.83,-1.87 1.92,-2.23 1.09,-0.36 1.87,-2.59 2.59,-2.23 0.72,0.36 -0.47,1.87 1.19,0.26 1.66,-1.61 0.73,-2.07 1.76,-2.44 1.03,-0.37 4.2,-2.59 5.18,-3 0.98,-0.41 1.92,-0.73 1.66,-1.35 -0.26,-0.62 0.47,-0.78 1.55,-0.78 1.08,0 2.9,-0.88 2,-1 -0.9,-0.12 -0.62,-0.83 0.57,-1 1.19,-0.17 0.78,-0.78 2,-1.35 a 3.3,3.3 0 0 1 0.69,-0.23 l 0.62,-2.87 c -2,1 -4.72,2.16 -6.23,2.94 -1.92,1 -3.42,1.71 -3.11,2 0.31,0.29 0.1,0.41 -1.5,1 -1.6,0.59 -4.51,3.89 -4,3.68 0.51,-0.21 1.45,1 -0.21,1.61 -1.66,0.61 -3.06,-0.41 -3.68,0.67 -0.62,1.08 -0.16,1.45 -2.28,2.8 -2.12,1.35 -2.44,1.92 -1.81,2.44 0.63,0.52 0.41,1 -1.09,1 -1.5,0 -2.07,-0.73 -2.07,0.05 0,0.78 0.21,1.81 -0.67,2.28 -0.88,0.47 -1.76,0.49 -1,0.7 0.76,0.21 1.49,-0.19 2.63,-1.01 z m -0.08,-8.73 c 1.65,0.19 2.85,0.21 3.06,-0.67 0.21,-0.88 0.52,-1.3 1,-1.35 a 2.35,2.35 0 0 0 2,-1.14 7.85,7.85 0 0 1 3.37,-2.69 c 1.55,-0.67 3.06,-3 4.25,-3.78 1.19,-0.78 1.5,-1.19 1.92,-1 0.42,0.19 -0.36,1 0.78,0.73 1.14,-0.27 2.23,-0.62 2.44,-1.14 0.21,-0.52 0.21,-0.67 1.55,-1.14 0.77,-0.27 3.21,-1.43 5.46,-2.4 l 0.71,-3.26 a 13.81,13.81 0 0 0 -2.8,2 c -1.09,1.14 -0.05,0.74 -3.63,2 -1.89,0.68 -4.47,1.58 -2.88,0 2.21,-2.25 1.85,-0.64 3.4,-1.42 1.55,-0.78 1.92,-1.14 4.4,-3.11 0.76,-0.6 1.39,-1.09 1.94,-1.49 l 0.61,-2.8 c -0.92,0.38 -0.92,0.35 -2.24,0.92 -1.32,0.57 -2.18,0.8 -2.72,1.14 -0.54,0.34 0,0.62 -1.61,1.32 a 6.4,6.4 0 0 0 -3,2.62 c -0.52,0.88 -1.43,0.71 -2.28,1.14 a 5.44,5.44 0 0 0 -2.41,3.37 c -0.31,1 -0.44,0.88 -1.89,1.55 -1.45,0.67 -4.15,2 -3.52,2.12 0.63,0.12 2.38,1.19 0.52,1.24 -1.86,0.05 -2.18,-0.31 -3.78,1.45 -1.6,1.76 -0.57,2.54 -1.4,3.16 -0.83,0.62 -1,0 -1.92,0.31 -0.92,0.31 0.44,1.09 -0.7,1.55 -1.14,0.46 -1.95,0.61 -0.63,0.76 z m 4.33,-11.4 c 1.22,-0.47 0.75,1.61 2.2,0.16 1.45,-1.45 1.87,-2.69 3,-2.54 1.13,0.15 1.76,0.73 2.23,-0.73 0.47,-1.46 0.36,-2 1.66,-2.49 1.3,-0.49 1,-0.41 3.42,-2 a 23.71,23.71 0 0 1 6.74,-3.16 10.66,10.66 0 0 0 4.4,-2.33 l 0.07,-0.05 0.09,-0.43 h -4.8 c -1.51,1 -6.44,3.47 -8.11,4.48 a 20.33,20.33 0 0 0 -3,2.33 17.27,17.27 0 0 1 -2.9,1.5 c -0.62,0.26 -2.23,2.33 -3,2.69 -0.77,0.36 -0.08,-0.94 -1.24,-0.1 -1.58,1.14 -3.16,2.93 -3.26,3.63 -0.1,0.7 1.15,-0.45 2.5,-1.01 z M 386,129.7 c -1.19,0.62 -3.47,1.76 -4.25,2.8 -0.78,1.04 -0.83,2.23 -1.92,2.49 -1.09,0.26 -0.62,-0.21 -2.33,0.88 -1.71,1.09 -5.13,4.51 -5.75,5 -0.62,0.49 -2,1.45 -3.42,2.59 -1.42,1.14 -1.55,1.3 -1.81,2.12 -0.26,0.82 -2.67,1.92 -0.67,1.4 a 6.46,6.46 0 0 0 3.26,-1.87 c 1.3,-1.14 2.49,-1.14 3.47,-2.12 0.98,-0.98 0.83,-1.45 1.45,-2 0.62,-0.55 2.18,-1.09 3.63,-2 1.45,-0.91 3.68,-2.44 3.06,-2.44 -0.62,0 -2.28,-0.52 -1.09,-0.78 1.19,-0.26 0.93,-0.83 2.12,-0.62 1.19,0.21 2.59,-0.67 1.66,-1 -0.93,-0.33 -1.4,-0.62 0.31,-1.19 1.71,-0.57 3.58,-1 3.83,-1.4 a 0.79,0.79 0 0 0 0.05,-0.78 c -0.35,-0.78 -0.45,-1.7 -1.6,-1.08 z m -16.79,52.08 c -0.16,0.62 0.47,0.57 2.49,-0.21 a 21.21,21.21 0 0 0 5.54,-2.9 l 1.12,-0.77 0.55,-2.51 c -1.92,1.37 -4,3.88 -5.4,4.32 -1.4,0.44 -4.18,1.44 -4.34,2.06 z M 391.76,203 h -0.17 l 0.55,-2.54 c 1.61,-0.4 3.21,-1.36 3.3,-1.75 0.09,-0.39 -1.09,-0.88 -2.49,-0.41 a 2.7,2.7 0 0 1 -0.36,0.09 l 0.39,-1.79 a 11.38,11.38 0 0 0 3.65,-0.94 c 1.5,-0.73 1.76,-0.57 2.44,-0.36 0.68,0.21 -0.47,0.78 -1.76,1.5 -1.29,0.72 -0.62,1.3 -0.41,1.87 0.21,0.57 1,0.47 2.64,-0.21 1.64,-0.68 5.6,-2.85 6.94,-3.68 1.34,-0.83 2.12,-1.55 3.68,-1.87 1.56,-0.32 1.09,-0.47 1.09,-1.24 0,-0.77 1.14,-1.81 3.06,-2.28 a 16,16 0 0 0 5.6,-3.32 c 0.47,-0.62 -0.78,-0.62 -2.54,0.78 -1.76,1.4 -2.38,1.14 -3.63,1.4 -1.25,0.26 -2.8,2.12 -4.3,2.9 -1.5,0.78 -2.75,0.93 -2.59,1.45 0.16,0.52 0.1,0.88 -1,0.41 -1.1,-0.47 -1.19,0.21 -0.67,0.62 0.52,0.41 -0.57,0.67 -2.12,1.45 -1.55,0.78 -1.24,0.1 -2.12,0.62 -0.88,0.52 -1,-0.31 -0.78,-1 0.22,-0.69 -0.21,-0.52 -0.57,-1.09 -0.36,-0.57 1.5,-1 2.64,-0.78 1.14,0.22 1.4,-0.93 2.44,-1.55 1.04,-0.62 4.66,-3.32 6,-3.68 a 6.11,6.11 0 0 0 3.11,-2.23 c 0.88,-1 1.24,-1.4 1.92,-1.14 0.68,0.26 1.66,0.62 2.07,0.1 0.41,-0.52 -2.9,-1.24 -4.2,-1.55 -1.3,-0.31 -1,0.41 -1.55,1.92 -0.55,1.51 -1.55,1.55 -3.68,1.71 -2.13,0.16 -1.81,0.73 -2.18,1.35 -0.37,0.62 -0.41,1 -0.93,0.41 -0.52,-0.59 -0.36,-1.5 -1.14,-2.18 -0.78,-0.68 -1.81,0.1 -3.11,0.67 -1.3,0.57 -3.63,2.23 -5.23,2.69 a 1.42,1.42 0 0 1 -1.15,0 l 0.54,-2.48 c 0.49,0 1.65,-0.06 2.94,-0.11 1.29,-0.05 -0.19,-0.9 0.31,-1.5 a 6,6 0 0 1 3,-1.3 8.68,8.68 0 0 0 3.11,-1.45 c 0.16,-0.26 0.47,-0.93 1.14,-0.88 0.67,0.05 0.73,0.36 1.14,-0.05 0.41,-0.41 3.42,-3.21 4.82,-4.25 1.4,-1.04 1.66,-1.35 1.81,-1.92 0.15,-0.57 2.28,-1.55 4.09,-2.9 a 55.66,55.66 0 0 0 7.72,-6.32 c 1.36,-1.44 2.65,-2.92 3.68,-4.16 l -0.07,5.06 a 10.14,10.14 0 0 0 -2.1,2.84 10.57,10.57 0 0 1 -3,4.09 36.4,36.4 0 0 1 -3.83,2.75 c -0.47,0.16 -0.41,-0.52 -1.09,-0.05 -1.66,1.15 -3.63,2 -2.64,1.92 a 6.78,6.78 0 0 0 3,-0.78 c 0.67,-0.47 0.73,0.21 1.87,-0.52 a 27.12,27.12 0 0 0 3.63,-2.59 c 2,-1.61 0.57,-1.3 1.45,-2.18 a 34.69,34.69 0 0 1 2.63,-2.69 l -0.06,4.17 a 0.26,0.26 0 0 1 -0.24,0 c -0.41,-0.21 -1,-0.52 -1.19,0.47 a 5.34,5.34 0 0 1 -1.61,3.11 c -0.93,0.78 -3,2.33 -3.47,2.9 -0.47,0.57 -0.67,1.87 1.81,0.05 a 18.17,18.17 0 0 0 3.58,-3.16 c 0.25,-0.25 0.63,-0.59 1.08,-1 v 3.18 a 3,3 0 0 0 -0.83,0.76 c -0.62,0.88 -0.31,1.3 -1.5,2.38 -1.19,1.08 -4.72,4.51 -3,3.52 a 35.39,35.39 0 0 0 5.3,-3.88 v 3 c -0.67,0.52 -1.34,1 -2,1.46 -2,1.35 -3.37,4.2 -4.35,5.23 -0.98,1.03 -1.61,0.93 -2.9,1.3 a 54.13,54.13 0 0 0 -6.27,3.06 c -1,0.57 0.26,0.93 -1.87,1.71 -2.13,0.78 -2.23,0.21 -4.4,1.5 -2.17,1.29 -2.69,1.81 -3.89,1.87 -1.2,0.06 -0.78,-0.78 -2.69,-0.93 -0.47,0.03 -6.1,1.71 -8.49,2.42 z m 10.05,-3.73 c 1.19,0.1 1.24,0.36 3.37,-0.93 2.13,-1.29 1.55,-1.55 3.42,-1.81 1.87,-0.26 4.56,-0.52 3.52,-0.62 -1.04,-0.1 -2,-0.05 -1,-0.67 a 13.21,13.21 0 0 1 3.73,-1.55 c 1.19,-0.26 0.62,-0.52 1.76,-1.61 1.14,-1.09 1.45,-1.45 -0.26,-0.57 -2.14,1.1 -1.3,0.47 -4.51,2.07 a 36.34,36.34 0 0 0 -5.65,3.26 5.66,5.66 0 0 1 -2.44,1.35 c -1.75,0.58 -3.13,0.94 -1.94,1.05 z m 18.91,3.32 c -0.47,1 -0.26,1.24 -1.45,1.24 a 5.28,5.28 0 0 0 -3,0.93 c -1,0.62 -0.88,1.35 0,1.35 0.88,0 1.5,0.88 2.23,0.26 0.73,-0.62 0.78,-0.73 1.61,-0.52 0.83,0.21 3.73,-1.55 4.61,-2.23 0.88,-0.68 -0.47,-0.73 0.78,-1.45 a 18.54,18.54 0 0 1 2.8,-1.42 v -1.83 l -1,0.45 c -2.89,1.37 -6.11,2.15 -6.57,3.18 z m -39.38,15.08 c 1.66,-0.31 2.38,-0.78 3.73,-0.31 a 15.63,15.63 0 0 0 6.89,-0.16 c 2.12,-0.57 1.19,-1 3,-0.62 1.81,0.38 1.61,-0.05 2.28,-0.67 0.67,-0.62 1.35,-2.59 0.62,-2.12 -0.73,0.47 -4.87,1 -7.88,1.5 -3.01,0.5 -6.53,1 -7.15,0.67 -0.62,-0.33 -1.55,0.57 -2.85,-0.05 -1.3,-0.62 -2.25,-0.1 -3.39,-0.05 -1.14,0.05 -1.58,0.41 0,0.83 1.58,0.42 3.1,1.25 4.76,0.94 z m -9.9,-16.43 a 5.82,5.82 0 0 1 1.85,-0.22 l 0.19,-0.88 -0.7,0.06 c -2.54,0.21 -5.09,0.24 -4.3,0.67 a 4.79,4.79 0 0 0 2.97,0.34 z m 1.71,-4.82 c 0.52,-0.24 0.94,-0.46 1.28,-0.66 l 0.4,-1.86 a 5.18,5.18 0 0 0 -1.69,0.76 6.3,6.3 0 0 1 -3.21,1.35 c -1,0.1 -3.83,0.31 -1.71,0.78 2.12,0.47 2.71,0.63 4.94,-0.4 z m -0.93,9.53 0.26,-1.22 c -0.76,0.13 -1.38,0.22 -1.67,0.24 -0.73,0.05 -0.78,1 1.35,1 z m 8.34,7.41 c 1.87,-0.47 1.24,-1 3.26,-0.57 2.02,0.43 6,0.62 6.79,0.26 0.79,-0.36 -1.4,-1.5 0.62,-1.4 2.02,0.1 1.87,0.67 3.47,0.21 a 12,12 0 0 1 3.47,-0.62 c 0.93,0 1,-1.19 -0.52,-1.09 -1.52,0.1 -2.12,-0.26 -0.31,-0.62 1.81,-0.36 2.44,0.47 3.06,0.31 a 3.72,3.72 0 0 0 2.12,-1.3 3.94,3.94 0 0 1 3.42,-1.14 c 1.5,0.05 2.07,-0.57 2.23,-1 0.16,-0.43 0.73,0.41 2,-0.21 1.27,-0.62 4,-2.18 6,-2.54 2,-0.36 7.31,-3.37 8.91,-4.46 1.13,-0.77 2.14,-1.53 3.22,-2.17 l 0.07,-4.76 a 2.91,2.91 0 0 0 -1.11,1.23 c -0.67,1.5 -0.78,2.49 -2.44,3 a 13.13,13.13 0 0 0 -4.92,2.64 c -0.93,1 -0.83,1.81 -2.28,1.92 -1.45,0.11 -4.15,0.16 -4.2,0.83 -0.05,0.67 2,0.73 -0.88,1.24 -2.88,0.51 -5.6,1.14 -6.79,2 -1.19,0.86 -1.4,0.93 -2.23,0.88 -0.83,-0.05 -1.35,2.18 -2,2 a 1.63,1.63 0 0 0 -1.81,0.36 c -0.67,0.62 -0.52,-0.47 -1.92,-0.1 -1.4,0.37 -3.16,0.1 -5.13,1.09 -1.97,0.99 -3.83,1.76 -4.51,1.71 -0.68,-0.05 -3,-1.19 -4.09,-0.78 -1.09,0.41 -0.78,1.61 -1.71,1.5 a 6.42,6.42 0 0 0 -3,0.05 12.19,12.19 0 0 1 -3.47,0.52 c -0.93,-0.1 -2.07,-0.21 -1.45,0.31 0.62,0.52 4.27,1.14 6.14,0.67 z m -4.77,-3.16 c 1.81,0.1 3.16,-0.05 3.73,-0.67 0.57,-0.62 1.66,-1.66 2.33,-1.3 0.67,0.36 4.3,1.24 5.18,0.52 0.88,-0.72 0.62,-2.07 1.61,-1.55 0.99,0.52 2.12,1 2.8,0.41 0.68,-0.59 0.93,-1.45 1.92,-1.45 0.99,0 5.29,0.78 7.93,-0.41 A 35.7,35.7 0 0 0 405.9,203 c 0.93,-0.47 1.35,-0.78 2.23,-0.62 0.88,0.16 1.35,-0.78 1.81,-0.57 0.46,0.21 2.23,-1 3.11,-2 0.88,-1 5,-1.3 6,-1.76 1,-0.46 2.23,-1.66 2.8,-1.5 a 1.48,1.48 0 0 0 1.81,-0.67 41.18,41.18 0 0 1 4.56,-4.72 l 0.2,-0.16 0.05,-3.69 a 12.92,12.92 0 0 0 -2.9,4.11 c -0.31,1 -4.4,2 -5.65,2.64 -1.25,0.64 -7.25,4.15 -8.29,5.23 -1.04,1.08 -1.45,1.5 -1.81,1.5 -0.36,0 -0.31,-0.31 -2.8,0.73 a 16.81,16.81 0 0 1 -7.31,1.5 c -2.49,-0.1 -3.94,-0.47 -4.77,0.21 -0.83,0.68 -0.93,1.81 -3.32,2 h -0.55 l -0.36,1.64 h -7.52 a 7.46,7.46 0 0 1 -3,1 c -2,0.1 -3,-0.1 -4,0.67 a 6.44,6.44 0 0 1 -3.47,1.19 c -0.62,-0.1 -1.3,0.62 -0.05,0.88 1.25,0.26 1.33,-0.54 3.13,-0.44 z M 363.88,156 c 2.33,0.36 6.11,-1.5 7,-1.5 0.89,0 -0.1,-0.57 1,-0.83 1.1,-0.26 2.44,0.26 4.61,-2.07 2.17,-2.33 3,-3.83 4.66,-4.66 1.66,-0.83 3.21,-0.88 3.16,-1.61 -0.05,-0.73 -1.81,-0.31 0.57,-1.4 l 0.86,-0.39 0.65,-3 -0.11,0.11 c -1.35,1.45 -0.73,1.35 -3.16,2.8 -2.43,1.45 -2.9,1.5 -4.46,3.47 -1.56,1.97 -1.81,2.38 -2.49,2.33 a 1.16,1.16 0 0 0 -1.3,1.09 c -0.16,0.78 -1,0.62 -1.4,0.41 -0.4,-0.21 -0.41,0.67 -2.54,1.55 -2.13,0.88 -4.92,2.38 -6.17,2.75 -1.25,0.37 -3.21,0.61 -0.88,0.95 z m 3.08,4 c -1.09,0.57 -2.8,1.73 -3,2.3 -0.2,0.57 0.41,0.29 1.22,0.29 1.27,0 1.87,-0.28 2.18,-0.85 a 2.33,2.33 0 0 0 0.29,-1.11 c 0.03,-0.42 0.41,-1.21 -0.65,-0.63 z m 4.84,4.79 c -0.41,-0.1 1.09,-0.73 2.33,-0.52 1.24,0.21 2.07,-0.31 3.89,-1.87 1.82,-1.56 2.9,-3.68 3.73,-4.4 a 4.46,4.46 0 0 1 1,-0.72 l 1,-4.42 a 1.28,1.28 0 0 0 -0.86,0.27 c -0.78,0.62 -2,1.14 -1.4,1.19 0.6,0.05 2.07,0.1 0.67,1 -1.4,0.9 -3.83,2.59 -3.58,2.12 0.25,-0.47 0.52,-1.35 -0.36,-0.52 a 13.08,13.08 0 0 0 -2.33,3.21 c -0.57,1.09 -0.57,1.76 0.05,1.24 0.62,-0.52 0.78,0.67 -0.16,1.19 a 1.58,1.58 0 0 1 -2.07,-0.62 c -0.05,-0.36 -0.62,-0.41 -1.66,0.62 -1.04,1.03 -2.75,3.37 -2.85,3 -0.1,-0.37 -0.83,-0.21 -1.19,0.52 a 4.25,4.25 0 0 1 -1.71,1.76 c -0.88,0.57 -4.7,2 -3.13,2 a 11,11 0 0 0 6.09,-2.54 c 1.67,-1.49 2.97,-2.42 2.55,-2.52 z m -1.19,12.64 a 23.9,23.9 0 0 1 6,-3.37 c 1.2,-0.48 2.08,-0.8 2.77,-1.12 l 0.94,-4.31 c -0.79,0.75 -0.2,0.78 -1.11,1.07 a 19.58,19.58 0 0 0 -5.86,3.63 39.55,39.55 0 0 1 -4.51,3.94 c -1.66,1.3 -3.42,1.71 -4.15,2.38 -0.73,0.67 1.24,0.26 3.16,-0.57 a 6.74,6.74 0 0 0 2.77,-1.66 z m 0.62,9.25 c 1.88,-1.22 3,-1.42 5.61,-2 l 0.47,-2.15 a 4.66,4.66 0 0 0 -2.82,0.54 c -1.61,0.88 -2.44,2.36 -4.4,3.19 -1.96,0.83 -3.86,1.35 -3.11,1.63 0.75,0.28 2.35,0.03 4.26,-1.22 z m 0.34,6.17 a 22.92,22.92 0 0 0 3.8,-1.43 l 0.33,-1.52 a 4.68,4.68 0 0 1 -0.84,0.28 c -1.4,0.26 -3.19,-0.44 -5.1,0.8 -1.41,0.92 -3.45,0.23 -2,1 1.45,0.77 2.01,1.32 3.82,0.86 z"
         class="cls-2"
         inkscape:connector-curvature="0"
         style="fill:#e61e26" />
      <path
         id="path830"
         d="m 510.88,202.81 a 7.905501,7.905501 0 0 1 0.6575,-3.1958 8.364234,8.364234 0 0 1 4.3733,-4.3733 8.1501584,8.1501584 0 0 1 6.3917,0 8.364234,8.364234 0 0 1 4.3733,4.3733 8.1501584,8.1501584 0 0 1 0,6.3916 8.364234,8.364234 0 0 1 -4.3733,4.3733 8.1501584,8.1501584 0 0 1 -6.3917,0 8.364234,8.364234 0 0 1 -4.3733,-4.3733 7.8902099,7.8902099 0 0 1 -0.6575,-3.1958 z m 1.5291,0 a 6.6057568,6.6057568 0 0 0 0.5352,2.6301 6.7433767,6.7433767 0 0 0 3.6087,3.6087 6.7892505,6.7892505 0 0 0 5.2602,0 6.7433767,6.7433767 0 0 0 3.6087,-3.6087 6.7892505,6.7892505 0 0 0 0,-5.2602 6.7433767,6.7433767 0 0 0 -3.6087,-3.6087 6.7892505,6.7892505 0 0 0 -5.2602,0 6.7433767,6.7433767 0 0 0 -3.6087,3.6087 6.6057568,6.6057568 0 0 0 -0.6116,2.6301 z m 3.6087,-4.7555 h 3.624 a 3.6545741,3.6545741 0 0 1 2.5078,0.7339 2.6912343,2.6912343 0 0 1 0.8104,2.0949 2.4924499,2.4924499 0 0 1 -0.6422,1.8655 2.645361,2.645361 0 0 1 -1.5291,0.734 l 2.4313,3.9757 h -1.8197 l -2.3395,-3.8534 h -1.2539 v 3.8534 h -1.7279 z m 1.7279,4.098 h 1.2539 0.7952 a 2.4007033,2.4007033 0 0 0 0.7186,-0.1682 1.2232884,1.2232884 0 0 0 0.5199,-0.3976 1.4373637,1.4373637 0 0 0 0,-1.5291 1.2232884,1.2232884 0 0 0 -0.5199,-0.3976 2.2172102,2.2172102 0 0 0 -0.7186,-0.1529 h -2.0643 z"
         class="cls-2"
         inkscape:connector-curvature="0"
         style="fill:#e61e26;stroke-width:1.52911031" />
    </g>
  </g>
</svg>
