<svg width="624.86" height="800" version="1.1" viewBox="0 0 585.81 749.98" xmlns="http://www.w3.org/2000/svg">
 <g transform="matrix(.92632 0 0 .92632 -290.36 -76.023)">
  <path d="m936.56 83.315c-90.979 25.378-164.45 87.172-203.45 166.45l15.594 10.98c30.937-66.658 104.88-132.9 181.57-156.91z" fill="#ee272a" stroke="#ee272a" stroke-miterlimit="10" stroke-width="1.7304" style="paint-order:normal"/>
  <path d="m931.75 121.21c-73.669 23.863-139.78 84.502-168.76 149.75l-13.917-9.528c33.723-71.473 107.45-136.14 188.42-159.48l-5.7501 19.25z" fill="#f79a1d" stroke-width="22.223"/>
  <path d="m931.75 121.21c-73.669 23.863-139.78 84.502-168.76 149.75l-13.917-9.528c33.723-71.473 107.45-136.14 188.42-159.48l-5.7501 19.25z" fill="none" stroke="#f79a1d" stroke-miterlimit="10" stroke-width="1.7223"/>
  <path d="m931.75 137.87c-59.806 19.195-130.53 82.642-155.7 141.73l-13.056-9.0558c33.168-73.42 104.89-131.53 175.09-151.45l-6.3335 18.778z" fill="#f2ea2f" stroke-width="22.223"/>
  <path d="m931.75 137.87c-59.806 19.195-130.53 82.642-155.7 141.73l-13.056-9.0558c33.168-73.42 104.89-131.53 175.09-151.45l-6.3335 18.778z" fill="none" stroke="#f2ea2e" stroke-miterlimit="10" stroke-width="1.7223"/>
  <path d="m933.31 154.54c-53.224 18.445-115.39 67.695-145.53 133.59l-12.389-8.3335c31.556-65.917 97.225-123.61 163.28-144.03l-5.2779 18.862" fill="#74c155" stroke-width="22.223"/>
  <path d="m933.31 154.54c-53.224 18.445-115.39 67.695-145.53 133.59l-12.389-8.3335c31.556-65.917 97.225-123.61 163.28-144.03l-5.2779 18.862" fill="none" stroke="#74c155" stroke-miterlimit="10" stroke-width="1.7223"/>
  <path d="m934.2 172.76c-18.778 8.6113-94.976 37.945-133.73 124.39l-12.695-8.9169c2.3612-5.0001 46.583-102.53 151.31-135.47l-4.889 19.667" fill="#1c4595" stroke-width="22.223"/>
  <path d="m934.2 172.76c-18.778 8.6113-94.976 37.945-133.73 124.39l-12.695-8.9169c2.3612-5.0001 46.583-102.53 151.31-135.47l-4.889 19.667" fill="none" stroke="#1c4595" stroke-miterlimit="10" stroke-width="1.7223"/>
  <path d="m934.42 189.43c-77.753 30.027-114.59 97.891-122.17 116.06l-12.361-8.6669c40.057-91.14 138.67-126.03 141.61-126.42l-7.0002 19.112" fill="#982584" stroke-width="22.223"/>
  <path d="m934.42 189.43c-77.753 30.027-114.59 97.891-122.17 116.06l-12.361-8.6669c40.057-91.14 138.67-126.03 141.61-126.42l-7.0002 19.112" fill="none" stroke="#962583" stroke-miterlimit="10" stroke-width="1.7223"/>
  <path d="m935.31 206.32s-79.224 25.138-110.14 108.87l-12.417-9.2502c0.69335-1.1667 34.361-86.198 128.42-118.64l-5.8613 19.028z" fill="#cc9ac6" stroke-width="22.223"/>
  <path d="m935.31 206.32s-79.224 25.138-110.14 108.87l-12.417-9.2502c0.69335-1.1667 34.361-86.198 128.42-118.64l-5.8613 19.028z" fill="none" stroke="#cc9ac6" stroke-miterlimit="10" stroke-width="1.7223"/>
 </g>
 <g transform="matrix(.92614 0 0 .92614 .015744 -.016396)" fill="#ee272a">
  <path transform="matrix(1.0123 0 0 1.0123 -.017 .0065033)" d="m314.73 99.17c-5.3276 0-8.9554 1.9631-12.523 4.5352-100.73 70.382-201.47 140.75-302.21 211.12l18.18 18.674 296.57-202.99 284.13 195.55v449.78l-569.84-0.01v-180.14h540.55v-26.143l-552.55-6e-3c-3.877 0-7.3974 1.6392-9.9395 4.2891-2.5422 2.6499-4.1152 6.3193-4.1152 10.363l-0.00391 201.26c0 4.0136 1.8889 7.6452 4.9414 10.277 3.0524 2.6319 7.2777 4.2619 11.936 4.2619h588.33c4.601 0 8.7661-1.515 11.781-3.9629 3.0152-2.4479 4.8809-5.8331 4.8809-9.5664l-2e-3 -463.62c-0.0464-2.6152-0.0973-5.9383-1.3906-8.7461-1.0218-2.3351-2.5011-4.3044-4.6543-6.166l-289.55-202.85c-4.6931-3.7067-9.288-5.916-14.535-5.916z" fill="#ee272a"/>
 </g>
 <g transform="matrix(1.9862 0 0 1.9862 39.672 584.19)" fill="#1a5bd3">
  <path d="m46.79 6.5h15.66l11.46 14.49 11.47-14.49h15.88l-17.94 20.44 18.87 20.85h-16.35l-11.93-14.799-12.406 14.799h-16.234l19.06-20.85z"/>
  <path d="m2.7504 6.5h41.759v9.84h-30.22l0.1 5.9496h28.4v9.06h-28.45l-0.01 6.38h30.18v10.06h-41.759z"/>
  <path d="m101.76 6.5h45.6v10.73h-16.79v30.559h-11.99v-30.559h-16.82z"/>
  <path d="m149.8 6.61 38.16-0.11c3.7553-0.010825 7.3845 2.5911 8.12 6.3 0.89453 4.5111 0.86093 9.2285 0.1 13.75-0.44908 2.6685-2.84 4.12-5.03 5.25 1.9 0.95 4.229 1.7943 4.68 4.24 0.71054 3.8528 0.49 8.2791 0.49 11.75h-12v-8.7096c0-1.2795-1.8071-1.6496-3.2-1.6496h-19.73v10.359h-11.63l0.04-41.29m11.59 20.32h22.93c3.1828 0 3.1752-10.08 0-10.08h-22.93z"/>
  <path d="m197.11 47.75 19.66-41.25h18.11l19.37 41.29h-13.28l-3.25-7.0896h-24.22l-3.33 7.0896h-13.06m27.54-31.55-7.35 15.35h16.67l-7.28-15.35c-0.29138-0.61441-1.7463-0.61332-2.04 0z"/>
 </g>
 <g transform="matrix(19.232 0 0 19.232 -5824.7 -5928.2)" fill="#13923b">
  <path d="m325.59 325.51c0.40884-0.24361 0.89567-0.31384 1.3648-0.30682 0.3837 0.0237 0.78403 0.11386 1.0886 0.36079 0.26541 0.22068 0.43988 0.587 0.34858 0.933-0.0455 0.18741-0.19185 0.3752-0.3959 0.39257-0.16967 0.0214-0.35782 0.031-0.50901-0.0617-0.18187-0.16708-0.19666-0.4288-0.23103-0.65724-0.024-0.14897-0.0322-0.33084-0.16931-0.4251-0.17817-0.11866-0.41216-0.0921-0.60475-0.0259-0.2022 0.12716-0.28315 0.37483-0.30718 0.60106-0.0632 0.73893-0.024 1.4808-0.0399 2.2212 0.42029 0.0259 0.8417 0.0251 1.2627 0.01 0.0144 0.1438 0.0277 0.28796 0.0399 0.43213-0.42548 0.0214-0.85132 0.0126-1.2768 0.0107 0.0211 1.3869-4e-3 2.7739 0.0137 4.1604-9e-3 0.13604 0.0754 0.26985 0.20331 0.31828 0.22401 0.0931 0.4739 0.0518 0.70789 0.10128 3.7e-4 0.13308 0.0998 0.33971-0.0521 0.4203-0.41807 0.0395-0.83985-7e-3 -1.2587-0.0214-0.66168-0.0492-1.3248 0.0928-1.985 1e-3 9e-3 -0.12568 0.0181-0.25099 0.0296-0.37593 0.24841-0.0566 0.52047-0.0673 0.7297-0.22956 0.0336-0.16782 0.037-0.33971 0.0373-0.51012-3e-3 -1.2882-0.01-2.5761 4e-3 -3.864-0.26578 7e-3 -0.53193 7.4e-4 -0.79476-0.0414 6e-3 -0.12569 0.0144-0.25174 0.0222-0.37742 0.25765-9e-3 0.51456-0.0281 0.77184-0.0407-0.0107-0.69717-0.0126-1.4187 0.25062-2.0763 0.15563-0.3752 0.39294-0.7382 0.74929-0.94927z"/>
  <path d="m307.17 325.89c0.41549-0.0939 0.84392-0.10498 1.2686-0.11311 0.92857-0.0148 1.8549 0.0913 2.7683 0.25358 0.1109 0.02 0.23806 0.0917 0.24841 0.21588 0.0137 0.61769-0.0118 1.2358 9e-3 1.8531-0.25469 0.0433-0.51788 0.0462-0.77035-0.0129-0.0839-0.48942-0.15489-1.0291-0.51641-1.4017-0.34008-0.32826-0.83615-0.42511-1.2938-0.42289-0.37039 0.01-0.75409 0.0266-1.0975 0.18113-0.48942 0.21034-0.88236 0.62915-1.065 1.1293-0.3508 0.87941-0.31679 1.8446-0.31088 2.7739 9e-3 0.83985 0.0898 1.7211 0.53304 2.4564 0.25913 0.45134 0.75077 0.72637 1.2542 0.81102 0.36189 0.071 0.73524 0.0529 1.0979-4e-3 0.43952-0.0791 0.87053-0.33602 1.0664-0.74966 0.20183-0.37261 0.24027-0.80067 0.3264-1.2088 0.26135-0.0104 0.52306-0.01 0.78441-3e-3 1e-3 0.6979-5e-3 1.3958-6e-3 2.0937-0.8088 0.26799-1.6601 0.38406-2.5088 0.4177-0.79512 0.0178-1.6161 0.0336-2.3702-0.25728-0.61547-0.21994-1.1537-0.65206-1.4849-1.2169-0.34858-0.59662-0.47205-1.2905-0.54782-1.968-0.0758-1.0635-2e-3 -2.168 0.4373-3.1531 0.38887-0.87793 1.259-1.4668 2.1776-1.6745z"/>
  <path d="m328.41 326.8c0.52121-0.0946 1.0073-0.32604 1.5311-0.4118-0.0373 0.72194-0.037 1.4454-0.0214 2.168 0.36707 0.01 0.73413 0.01 1.1016 3e-3 0.01 0.13936 0.02 0.27908 0.0307 0.41881-0.36781 0.0307-0.73783 0.0259-1.106 0.01-0.0525 0.90824-0.0266 1.8187-0.0266 2.7277 4e-3 0.40403-0.0203 0.81101 0.0418 1.2121 0.0307 0.20516 0.13936 0.42436 0.34858 0.49496 0.35118 0.13419 0.72822 0.01 1.0857-0.027-7.4e-4 0.13936-0.031 0.30459-0.16228 0.38111-0.6273 0.33639-1.3707 0.42732-2.0682 0.30792-0.44469-0.10757-0.74855-0.55411-0.76149-0.99954-0.0606-1.3648 0.0307-2.7317-0.0462-4.0958-0.2473 0.0163-0.49534 4e-3 -0.7419-0.0196 4e-3 -0.13566 9e-3 -0.27132 0.014-0.40662 0.24841 0 0.49681-4e-3 0.74522-8e-3 0.0296-0.58442-0.0163-1.1707 0.0355-1.7547z"/>
  <path d="m314.97 328.78c0.32566-0.25062 0.73117-0.44543 1.1526-0.39183 0.24102 0.0288 0.49164 0.10609 0.65614 0.29535 0.29387 0.32678 0.36078 0.82544 0.20294 1.2302-0.0706 0.1693-0.24693 0.26985-0.42251 0.29535-0.18594 0.0174-0.39258 0.0137-0.55633-0.0861-0.25543-0.22253-0.15747-0.61214-0.34082-0.87349-0.23251-0.11422-0.5482-0.0699-0.70863 0.14343-0.34599 0.51714-0.29794 1.1688-0.29239 1.7618-3e-3 0.33195 0.01 0.66427-3e-3 0.99622-0.0148 0.43841-0.0263 0.88754 0.10017 1.3126 0.29351 0.0333 0.59182 0.0706 0.86536 0.19-3e-3 0.0994-6e-3 0.19924-8e-3 0.29905-0.34452 0.0824-0.70012 0.0399-1.0498 0.0325-0.75114-0.0207-1.5026 1e-3 -2.2538 0.0229-0.014-0.13899-0.0281-0.27761-0.0414-0.41623 0.2022-0.0488 0.4214-0.0392 0.60993-0.13566 0.11422-0.0543 0.1741-0.18224 0.1693-0.30534 0.017-1.1592-2e-3 -2.3188 9e-3 -3.4781-7e-3 -0.1804 0.0174-0.37225-0.0617-0.54081-0.19333-0.16338-0.46318-0.12457-0.69754-0.14897-0.0118-0.1401-0.0233-0.28019-0.0355-0.41992 0.78441 8e-3 1.5677-0.0436 2.351-0.0773 3e-3 0.18889 6e-3 0.37815 0.0126 0.56705 0.12568-0.0754 0.22179-0.18964 0.3423-0.27281z"/>
  <path d="m319.52 328.46c0.52527-0.071 1.0598-0.0754 1.5858-8e-3 0.31273 0.0392 0.63063 0.12383 0.88865 0.31236 0.26319 0.19148 0.44432 0.48609 0.51234 0.80325 0.10682 0.47427 0.0403 0.96221 0.0621 1.4431 0.0322 0.82137-0.0824 1.6542 0.088 2.466 0.2303 0.0303 0.46059 0.0595 0.69052 0.0921 0.01 0.10942 0.0396 0.21883 0.0274 0.32936-6e-3 0.078-0.0902 0.1035-0.15562 0.10128-0.67018 0.0181-1.3441-0.0259-2.0113 0.0566-0.0488-0.16597-0.10313-0.3301-0.1486-0.49681-0.40144 0.17521-0.75668 0.47463-1.2028 0.53636-0.51603 0.0706-1.0908 0.0883-1.5444-0.20885-0.42177-0.27502-0.60069-0.79845-0.59662-1.2834-0.0144-0.42029 0.0558-0.87423 0.35561-1.1914 0.27465-0.32751 0.70788-0.43508 1.1119-0.49459 0.59071-0.0939 1.1907-0.0617 1.7862-0.0599-5e-3 -0.49127 0.027-0.98365-0.0181-1.4738-0.0159-0.19148-0.14786-0.36189-0.31864-0.44395-0.17078-0.0906-0.37076-0.0554-0.55595-0.0651-0.20036-9e-3 -0.44137 0.0536-0.52343 0.25802-0.13899 0.32862-0.14047 0.6931-0.23104 1.0354-0.32344 0.0444-0.65133 0.0458-0.97662 0.027-0.31753-0.42214-0.14306-1.0506 0.25321-1.3581 0.25876-0.21847 0.58997-0.33047 0.92155-0.37668m0.37335 2.9631c-0.27392 0.12236-0.41032 0.42067-0.46614 0.69975-0.0495 0.30608-0.0288 0.62509 0.0566 0.92303 0.12901 0.29018 0.48129 0.41179 0.7796 0.3678 0.31051-0.0303 0.61917-0.25173 0.6687-0.5737 0.0739-0.50088 0.0277-1.0084 0.0385-1.5119-0.35857 0.0126-0.73894-0.0584-1.0772 0.095z"/>
 </g>
</svg>
