<svg width="927.08" height="800.01" version="1.1" viewBox="0 0 869.12 750.01" xmlns="http://www.w3.org/2000/svg">
 <path d="m623.37 1.598c-90.979 25.378-164.45 87.172-203.45 166.45l15.594 10.98c30.937-66.658 104.88-132.9 181.57-156.91z" fill="#ee272a" stroke="#ee272a" stroke-miterlimit="10" stroke-width="1.7304" style="paint-order:normal"/>
 <g fill="#1a5bd3" stroke-width="22.223">
  <path d="m122.99 637.95h23.196c0.2 3.8334 0.27778 6.3057 0.27778 7.4168 0 6.0279-0.88891 10.75-2.639 14.167-1.9178 3.8334-5.6946 6.4446-11.306 7.8057-5.639 1.3889-15.334 2.0823-29.138 2.0823-14.5 0-24.834-0.30667-31.001-0.86002-6.139-0.58446-10.806-1.6956-13.917-3.3334-2.7778-1.5-4.889-3.5001-6.2501-6.0279-1.3889-2.5278-2.2778-5.9724-2.6667-10.389-0.33334-3.5556-0.5289-9.9724-0.5289-19.278 0-9.0558 0.15556-15.611 0.50001-19.612 0.36223-4.0279 1-7.139 1.9734-9.3613 2.1112-4.9723 6.4168-8.1946 12.861-9.6669 6.4724-1.4734 19.528-2.1934 39.168-2.1934 9.8058 0 16.945 0.22223 21.417 0.66668 4.4446 0.47335 8.0002 1.3334 10.639 2.5834 3.4445 1.6934 5.889 4.1945 7.3057 7.5002 1.4178 3.3056 2.1112 8.1669 2.1112 14.611 0 0.33334 0 1.64-0.0222 3.889h-23.196c-0.11112-2.6112-0.27779-4.3612-0.47335-5.2501-0.22222-0.88891-0.64001-1.6112-1.2489-2.1934-0.9178-0.80446-3.1668-1.3889-6.7779-1.7512-3.6112-0.3889-9.0558-0.55557-16.389-0.55557-7.278 0-12.278 0.15556-15.084 0.47335-2.7778 0.33334-4.7501 0.97113-5.9168 1.9445-1.3623 1.1378-2.3334 3.0834-2.8612 5.8057-0.55557 2.6945-0.80446 7.0279-0.80446 12.973 0 5.9168 0.22223 10.111 0.72224 12.556 0.47112 2.4167 1.4156 4.1668 2.7778 5.2501 1.3045 1.0267 3.389 1.7223 6.2224 2.0556 2.8612 0.36223 7.8891 0.5289 15.111 0.5289 8.8891 0 14.806-0.15556 17.778-0.47334 2.9445-0.30445 4.9446-0.97114 6.0001-2 1.3623-1.3334 2.0823-4.4723 2.1667-9.3613"/>
  <path d="m189.22 628.61h32.641c5.6946-0.11111 9.1113-0.22223 10.195-0.30667 1.1111-0.11112 2.0556-0.3889 2.8334-0.88891 1-0.64002 1.7223-1.6112 2.1378-2.889 0.3889-1.2511 0.61113-3.1945 0.61113-5.7779 0-2.5278-0.2489-4.4446-0.69335-5.6946-0.47335-1.2489-1.3045-2.1667-2.4445-2.7223-0.83336-0.3889-1.8067-0.61113-2.9445-0.69335-1.1378-0.0889-4.389-0.13334-9.7502-0.15556h-32.583v19.139zm-23.167 39.501v-78.28h56.028c13.195 0.0222 21.084 0.20001 23.694 0.44446 2.6112 0.24889 5.1112 1.1378 7.5557 2.639 2.889 1.8067 4.889 4.2779 5.9724 7.4446 1.0822 3.139 1.6112 8.1113 1.6112 14.861 0 5.6946-0.33334 9.8891-1.0267 12.556-0.69335 2.6945-2 4.8334-3.889 6.4446-2.0556 1.7223-5.1668 2.889-9.3058 3.5279 4.889 0.3889 8.3891 1.8334 10.528 4.3334 1.2222 1.4734 2 3.2779 2.3334 5.4168 0.33335 2.1112 0.50002 6.5835 0.50002 13.334v7.278h-22.916v-4.1668c0-4.3612-0.15556-7.4724-0.47335-9.3058-0.30667-1.86-0.88891-3.2779-1.7512-4.2779-0.86002-0.91558-2.0556-1.5-3.5556-1.7489-1.5-0.25112-4.639-0.36223-9.4447-0.36223h-32.694v19.862h-23.167"/>
  <path d="m348.11 637.73-14.667-29.641h-4.639l-14.667 29.641h33.974zm14.667 30.472-6.5279-13.278h-50.361l-6.5279 13.278h-26.472l40.361-78.28h36.028l39.834 78.28z"/>
  <path d="m404.11 589.95h80.473v18.417h-57.308v14.75h54.501v18.056h-54.501v27.056h-23.167v-78.28z"/>
  <path d="m495.89 589.95h92.198v20h-33.916v58.279h-24.389v-58.279h-33.89v-20z"/>
 </g>
 <g fill="#ee272a" stroke-width="22.223">
  <path d="m413.22 536.39-9.2224-16.945h-2.9167l-9.2502 16.945zm9.2224 17.084-4.0834-7.4446h-31.723l-4.1112 7.4446h-16.667l25.418-44.279h22.694l25.056 44.279z"/>
  <path d="m446.56 509.06h25.583l25.112 33.056h1.5l-0.33334-33.056h14.834v44.25h-25.389l-25.196-33.027h-1.5823l0.33334 33.027h-14.861v-44.25z"/>
  <path d="m539.67 542.17h20.334c3.7501 0 6.5002-0.11112 8.2502-0.33334 1.7778-0.22223 3.0278-0.64002 3.7501-1.1956 0.77779-0.64001 1.36-1.6112 1.6956-2.9723 0.30445-1.3889 0.47112-3.4445 0.47112-6.1946 0-2.7223-0.13333-4.8057-0.41556-6.1946-0.27779-1.3889-0.7778-2.4445-1.4734-3.1667-0.80446-0.80447-1.9445-1.3334-3.4445-1.5556-1.5289-0.22222-4.5001-0.33334-8.9724-0.33334h-20.195v21.945zm-14.278 11.222v-44.279h34.472c6.139 0 10.139 0.0444 12.028 0.13334 1.8889 0.0889 3.889 0.33334 5.9446 0.72223 4.7779 0.88891 7.9168 3.4168 9.3613 7.528 0.5289 1.5556 0.88891 3.2223 1.0845 5.0001 0.2 1.7778 0.27778 4.4723 0.27778 8.0835 0 3.9723-0.11111 6.9446-0.33334 9.0002-0.22222 2.0289-0.64001 3.8612-1.2511 5.5279-1.4156 3.889-4.3612 6.3057-8.8058 7.1946-2.0823 0.44446-4.3057 0.72224-6.6668 0.86002-2.3612 0.13334-6.2224 0.22223-11.611 0.22223h-34.501"/>
 </g>
 <path d="m618.56 39.489c-73.668 23.863-139.78 84.502-168.76 149.75l-13.917-9.528c33.723-71.473 107.45-136.14 188.42-159.47l-5.7501 19.25z" fill="#f79a1d" stroke-width="22.223"/>
 <path d="m618.56 39.489c-73.668 23.863-139.78 84.502-168.76 149.75l-13.917-9.528c33.723-71.473 107.45-136.14 188.42-159.47l-5.7501 19.25z" fill="none" stroke="#f79a1d" stroke-miterlimit="10" stroke-width="1.7223"/>
 <path d="m618.56 56.156c-59.806 19.195-130.53 82.642-155.7 141.73l-13.056-9.0558c33.167-73.42 104.89-131.53 175.09-151.45l-6.3335 18.778z" fill="#f2ea2f" stroke-width="22.223"/>
 <path d="m618.56 56.156c-59.806 19.195-130.53 82.642-155.7 141.73l-13.056-9.0558c33.167-73.42 104.89-131.53 175.09-151.45l-6.3335 18.778z" fill="none" stroke="#f2ea2e" stroke-miterlimit="10" stroke-width="1.7223"/>
 <path d="m620.12 72.824c-53.223 18.445-115.39 67.695-145.53 133.59l-12.389-8.3335c31.556-65.917 97.225-123.61 163.28-144.03l-5.2779 18.862" fill="#74c155" stroke-width="22.223"/>
 <path d="m620.12 72.824c-53.223 18.445-115.39 67.695-145.53 133.59l-12.389-8.3335c31.556-65.917 97.225-123.61 163.28-144.03l-5.2779 18.862" fill="none" stroke="#74c155" stroke-miterlimit="10" stroke-width="1.7223"/>
 <path d="m621 91.046c-18.778 8.6113-94.976 37.945-133.73 124.39l-12.695-8.9169c2.3612-5.0001 46.583-102.53 151.31-135.47l-4.889 19.667" fill="#1c4595" stroke-width="22.223"/>
 <path d="m621 91.046c-18.778 8.6113-94.976 37.945-133.73 124.39l-12.695-8.9169c2.3612-5.0001 46.583-102.53 151.31-135.47l-4.889 19.667" fill="none" stroke="#1c4595" stroke-miterlimit="10" stroke-width="1.7223"/>
 <path d="m621.23 107.71c-77.753 30.027-114.58 97.891-122.17 116.06l-12.361-8.6669c40.056-91.14 138.67-126.03 141.61-126.42l-7.0002 19.112" fill="#982584" stroke-width="22.223"/>
 <path d="m621.23 107.71c-77.753 30.027-114.58 97.891-122.17 116.06l-12.361-8.6669c40.056-91.14 138.67-126.03 141.61-126.42l-7.0002 19.112" fill="none" stroke="#962583" stroke-miterlimit="10" stroke-width="1.7223"/>
 <path d="m622.12 124.6s-79.224 25.138-110.14 108.86l-12.417-9.2502c0.69335-1.1667 34.361-86.198 128.42-118.64l-5.8612 19.028z" fill="#cc9ac6" stroke-width="22.223"/>
 <path d="m622.12 124.6s-79.224 25.138-110.14 108.86l-12.417-9.2502c0.69335-1.1667 34.361-86.198 128.42-118.64l-5.8612 19.028z" fill="none" stroke="#cc9ac6" stroke-miterlimit="10" stroke-width="1.7223"/>
 <g fill="#13923b" stroke-width="22.223">
  <path d="m148.1 443.05v26.863c0 1.0267-0.33334 1.8334-0.97114 2.3334-0.66668 0.52667-2.1112 1-4.3334 1.3889-8.5002 1.86-16.25 3.139-23.249 3.889-7.0002 0.7489-14.167 1.14-21.473 1.14-21.584 0-37.472-5.0001-47.641-15.028-10.167-10-15.25-25.694-15.25-47.028 0-21.917 5.3057-38.056 15.917-48.446 10.584-10.389 27.112-15.584 49.557-15.584 5.9724 0 12.473 0.33335 19.584 1.0289 7.1113 0.66668 14.584 1.6667 22.472 2.9723 2.4167 0.44445 3.8612 0.94447 4.3057 1.4445 0.47334 0.5289 0.72224 1.5 0.72224 3.0001v24.529c0 0.91558-0.25112 1.5556-0.72224 1.9445-0.44445 0.36223-1.3045 0.55557-2.5556 0.55557h-4.9168c-3.0001 0-4.6946-1.6934-5.1112-5.0834-0.20001-0.97114-0.33334-1.6934-0.3889-2.2223-1.4156-7.5002-4.389-12.834-8.8891-16.056-4.5001-3.1945-11.222-4.8057-20.139-4.8057-14.084 0-24.249 4.2501-30.472 12.75-6.2501 8.5002-9.3613 22.529-9.3613 42.085 0 20.223 2.9445 34.612 8.8335 43.223 5.889 8.6113 15.611 12.917 29.138 12.917 9.3058 0 16.306-1.7223 21.028-5.139 4.7223-3.4445 7.8613-9.1391 9.5002-17.084 0.11111-0.74891 0.27778-1.7778 0.44446-3.0834 0.50001-3.4445 1.8623-5.1668 4.1112-5.1668h5.4724c1.6956 0 2.8334 0.20001 3.4445 0.61113 0.64002 0.3889 0.94447 1.0822 0.94447 2.0556"/>
  <path d="m174.55 458.83v-47.641c0-4.0556-0.36223-6.639-1.1111-7.8057-0.7489-1.1378-2.2778-1.8067-4.5834-1.9734l-4.389-0.33334c-2.0556-0.15556-3.0834-1.2222-3.0834-3.1945 0-1.5556 0.15556-2.5001 0.50001-2.8612 0.36001-0.33334 1.2222-0.5289 2.5834-0.5289h4.7501c4.5279 0 8.8058-0.0444 12.806-0.15556 4.0279-0.13334 7.8613-0.33334 11.528-0.58446l3.4168-0.47112h0.55557c0.80446 0.0889 1.36 0.24889 1.6667 0.52668 0.30668 0.25111 0.47335 0.72224 0.47335 1.3889v8.1113c3.5279-3.889 7.1113-6.7224 10.695-8.528 3.5556-1.8067 7.4446-2.6945 11.611-2.6945 5.5279 0 9.8336 1.4734 12.889 4.4168 3.0278 2.9445 4.5557 7.1113 4.5557 12.5 0 3.6112-0.88891 6.2502-2.6667 7.8891-1.8067 1.6667-4.639 2.5001-8.5002 2.5001-2.3612 0-4.2779-0.50002-5.7501-1.5-1.4711-1.0267-2.3334-2.3334-2.5834-3.9445-0.11112-0.55557-0.25112-1.3045-0.3889-2.2223-0.74891-5.3057-3.0556-7.9446-6.9724-7.9446-4.0834 0-7.1113 1.8334-9.1391 5.5001-2 3.6945-3.0001 9.1947-3.0001 16.556v33.001c0 4.4723 0.41778 7.1946 1.3045 8.1946 0.86002 1 2.5834 1.6112 5.139 1.8334l4.889 0.5289c0.36223 0.0445 0.86002 0.11112 1.5 0.15556 1.6667 0.11112 2.5278 1.0289 2.5278 2.7778 0 1.64-0.22223 2.639-0.66668 3.0556-0.41779 0.3889-1.4178 0.58446-2.9723 0.58446-0.44445 0-1.4445-0.0222-3.0834-0.11111-7.8057-0.41779-15.445-0.64002-22.889-0.64002-5.7224 0-11.778 0.20001-18.167 0.55557-1.6667 0.13334-2.7223 0.20001-3.1667 0.20001-1.5 0-2.4445-0.20001-2.8334-0.58446-0.41779-0.41779-0.61113-1.4178-0.61113-3.0556 0-1.7489 0.74891-2.6667 2.25-2.7778 0.41779-0.0444 0.83336-0.11112 1.1956-0.15556l4.0279-0.5289c2.2501-0.22223 3.7501-0.94447 4.5279-2.1378 0.77779-1.1934 1.1667-3.8334 1.1667-7.8891"/>
  <path d="m276.11 429.05h28.056v-9.8614c0-7.0835-1.1111-12.167-3.3334-15.25-2.2223-3.0834-5.8057-4.639-10.75-4.639-5.0557 0-8.6391 1.4712-10.778 4.4168-2.1378 2.9445-3.1945 7.9724-3.1945 15.056zm0 7.3057c-0.0444 0.86225-0.11111 1.7778-0.13333 2.7501-0.0222 0.97113-0.0444 2.3612-0.0444 4.1112 0 10.195 1.3045 17.362 3.9445 21.528 2.6112 4.1668 7.0557 6.2501 13.278 6.2501 4.389 0 7.9724-1.0556 10.75-3.1945 2.7778-2.1378 4.8334-5.389 6.1112-9.7224 0.20001-0.58446 0.3889-1.2778 0.55557-2.1378 0.69335-2.9723 2.389-4.4446 5.0557-4.4446h6.4724c1.6934 0 2.7778 0.22223 3.2779 0.72224s0.7489 1.6667 0.7489 3.5556c0 7.3891-3.0834 12.945-9.2502 16.667-6.1668 3.7501-15.389 5.639-27.667 5.639-14.556 0-25.001-3.2223-31.361-9.6391-6.3613-6.4446-9.528-17-9.528-31.667 0-16 3.2778-27.418 9.8336-34.279 6.5835-6.8335 17.556-10.278 32.974-10.278 13.806 0 23.612 3.0001 29.445 8.9447 5.8057 5.9724 8.7224 16.139 8.7224 30.501 0 1.9445-0.2489 3.2223-0.72224 3.8056-0.50001 0.61112-1.5 0.88891-3.0001 0.88891h-49.446"/>
  <path d="m399 435.72h-9.5836c-5.3612 0-9.4169 1.4178-12.167 4.2779-2.7223 2.8334-4.1112 7.0557-4.1112 12.695 0 4.8334 1 8.4446 2.9723 10.861 1.9734 2.4167 4.9168 3.639 8.8058 3.639 4.8057 0 8.3613-1.2778 10.667-3.8612 2.2778-2.5556 3.4168-6.5279 3.4168-11.917zm1.1111 32.694c-4.6946 3.2501-9.3336 5.639-13.834 7.1946-4.5279 1.5289-9.2502 2.3056-14.139 2.3056-8.5558 0-15.084-2.0556-19.556-6.1668-4.5001-4.1112-6.7502-10.056-6.7502-17.889 0-8.5002 2.7501-14.75 8.2224-18.723 5.4724-4.0001 14.084-6.0001 25.863-6.0001h19.084v-18.167c0-4.3057-1.0289-7.4446-3.1112-9.3891s-5.4446-2.9167-10.111-2.9167c-4.2223 0-7.2502 0.94446-9.0836 2.8334-1.8334 1.8889-2.9167 5.3612-3.3056 10.417-0.25112 3.0278-1.0556 5.0001-2.4723 5.889-1.3889 0.88891-3.9168 1.3334-7.5557 1.3334-3.6112 0-6.1668-0.47334-7.6946-1.4178-1.5-0.94447-2.2778-2.5278-2.2778-4.7501 0-7.028 2.9167-12.278 8.7502-15.723 5.8335-3.4445 14.611-5.1946 26.334-5.1946 13.139 0 22.501 2.1378 28.056 6.3613 5.5557 4.2223 8.3335 11.417 8.3335 21.584v38.223c0 4.5834 0.33334 7.4446 1.0556 8.5835 0.72224 1.1378 2.1667 1.8067 4.4168 1.9734l4.639 0.36223c2.0289 0.11111 3.0556 1.2222 3.0556 3.3612 0 1.3889-0.15556 2.3056-0.5289 2.7223-0.33334 0.44445-1 0.66668-1.9734 0.66668h-0.74891l-4.7501-0.15556h-8.6113c-4.3334 0-8.5558 0.13334-12.667 0.41779-0.66669 0.0222-1.0822 0.0444-1.1934 0.0444l-3.2501 0.33334h-0.55557c-0.55557 0-0.97114-0.0889-1.2222-0.30667-0.25112-0.2-0.50001-0.61113-0.74891-1.2778l-1.6667-6.5279"/>
  <path d="m457.22 455.94v-54.864h-9.0558c-1.5556 0-2.5001-0.11111-2.889-0.30667-0.36223-0.20001-0.55557-0.64002-0.55557-1.3334v-1.5556c0-0.20001-0.0222-0.41779-0.0889-0.66668-0.0444-0.2489-0.0889-0.47335-0.0889-0.64002 0-0.74891 0.22223-1.3045 0.69335-1.6112 0.44445-0.30667 1.4178-0.47334 2.9167-0.47334h9.0558v-24.223c0-0.64002 0.27778-1.1667 0.77779-1.6112 0.5289-0.41779 1.4445-0.80446 2.7501-1.1667 4.5834-1.1378 9.1113-2.389 13.556-3.6945 4.4446-1.3334 6.8057-2 7.0557-2 0.36223 0 0.69335 0.2 1.0267 0.58446 0.30667 0.36223 0.44445 0.80446 0.44445 1.3334 0 0.15556-0.0222 0.50001-0.0889 1.0267-0.55557 3.0001-0.83335 6.0001-0.83335 9.0558v20.695h14.945c1.4734 0 2.4445 0.0889 2.8334 0.25111 0.41778 0.15556 0.61112 0.61113 0.61112 1.3045v1.64c0 0.2 0.0444 0.41779 0.20001 0.69335 0.11111 0.30667 0.17778 0.5289 0.17778 0.69335 0 0.69335-0.20001 1.1934-0.64002 1.5289-0.44445 0.30445-1.5 0.47335-3.1667 0.47335h-14.75v49.39c0 7.1113 0.86002 11.834 2.6112 14.167 1.7223 2.3334 4.889 3.5001 9.4169 3.5001 1.9445 0 3.9168-0.15556 5.9168-0.50001 2.0289-0.33334 4.0279-0.80446 5.9446-1.36l-0.55557 5.0557c-3.6112 2.0823-7.7502 3.6945-12.473 4.8334-4.7223 1.1667-9.6113 1.7223-14.611 1.7223-7.4446 0-12.834-1.6934-16.167-5.139-3.3056-3.4167-4.9723-9.028-4.9723-16.806"/>
  <path d="m539.67 429.05h28.056v-9.8614c0-7.0835-1.1111-12.167-3.3334-15.25-2.2223-3.0834-5.8057-4.639-10.75-4.639-5.0557 0-8.6669 1.4712-10.778 4.4168-2.1378 2.9445-3.1945 7.9724-3.1945 15.056zm0 7.3057c-0.0444 0.86225-0.11112 1.7778-0.13334 2.7501-0.0222 0.97113-0.0444 2.3612-0.0444 4.1112 0 10.195 1.3067 17.362 3.9445 21.528 2.6112 4.1668 7.0557 6.2501 13.278 6.2501 4.389 0 7.9724-1.0556 10.75-3.1945 2.7778-2.1378 4.8334-5.389 6.1113-9.7224 0.2-0.58446 0.38889-1.2778 0.58445-2.1378 0.66669-2.9723 2.3612-4.4446 5.0279-4.4446h6.4724c1.6934 0 2.7778 0.22223 3.2778 0.72224s0.74891 1.6667 0.74891 3.5556c0 7.3891-3.0834 12.945-9.2502 16.667-6.1668 3.7501-15.389 5.639-27.667 5.639-14.556 0-25.001-3.2223-31.361-9.6391-6.3613-6.4446-9.528-17-9.528-31.667 0-16 3.2779-27.418 9.8336-34.279 6.5835-6.8335 17.556-10.278 32.974-10.278 13.806 0 23.612 3.0001 29.445 8.9447 5.8057 5.9724 8.7224 16.139 8.7224 30.501 0 1.9445-0.24889 3.2223-0.72224 3.8056-0.50001 0.61112-1.5 0.88891-3.0001 0.88891h-49.446"/>
 </g>
 <g transform="translate(-63.369,5.1134e-5)" fill="#1a5bd3">
  <path d="m713.97 589.81v78.425h25.044v-28.336h53.969v28.336h25.044v-78.425h-25.044v28.101h-53.969v-28.101z"/>
  <path d="m829.02 668.24h56.555c26.455 0 33.392-1.1758 39.389-6.5844 5.7614-5.291 7.525-13.286 7.525-33.745 0-12.816-0.47032-17.754-2.234-23.281-2.3516-7.2899-7.525-11.758-15.285-13.286-6.702-1.411-9.4063-1.5285-29.395-1.5285h-56.555zm23.516-19.988v-38.801h33.04c14.58 0 17.754 0.47031 20.224 3.2922 2.3516 2.5867 3.1746 6.9371 3.1746 16.579 0 17.754-1.5285 18.93-23.163 18.93z"/>
 </g>
 <g transform="translate(.20843 .19157)" fill="#ee272a">
  <path transform="matrix(.9375 0 0 .9375 -.21626 -.19157)" d="m326.55 112.18-326.31 227.96 19.629 20.162 320.22-219.18 306.74 211.11-2e-3 421.89-615.24-0.01v-194.51h325.48v-28.227l-338.44 4e-3c-4.1864 0-7.9857 1.7697-10.73 4.6308-2.745 2.8613-4.4434 6.8229-4.4434 11.189v217.31c0 4.3337 2.0381 8.2556 5.334 11.098 3.2959 2.8416 7.8575 4.5996 12.887 4.5996l635.22-2e-3c4.9678 0 9.4651-1.6362 12.721-4.2793s5.2695-6.2971 5.2695-10.328l-2e-3 -432.99c0-6.2323 0.0641-9.695-1.5-13.238-1.2836-2.8083-3.4018-5.425-6.0098-7.4004l4e-3 -4e-3 -311.61-218.29c-5.0675-4.0024-10.073-6.3894-15.694-6.3894-5.7548 0-9.7851 2.2026-13.524 4.8974zm340.83 219.79-2e-3 2e-3 8e-3 4e-3z" fill="#ee272a"/>
 </g>
</svg>
