<svg enable-background="new 0 0 800 258.1" version="1.1" viewBox="0 0 800 258.1" xml:space="preserve" xmlns="http://www.w3.org/2000/svg">
<g transform="matrix(4.6087 0 0 4.6087 -.027987 -55.304)">
	<g display="none">
		<path d="m7.8 41.7-7.1 4.2c-0.5 0.3-0.8 0.9-0.6 1.5l0.2 0.8c0.1 0.2 0.1 0.5 0.2 0.7 1.4 4.1 3.7 7.9 6.8 11 4.8 4.8 11.5 8.2 19.9 8.2 7.4 0 14.6-3 19.8-8.2 3.1-3.1 5.4-6.9 6.8-11 0.1-0.2 0.2-0.5 0.2-0.7l0.2-0.8c0.1-0.6-0.1-1.2-0.6-1.5l-7.1-4.2c-0.4-0.2-0.8-0.2-1.3 0-0.2 0.1-0.4 0.2-0.4 0.4-0.1 0.1-0.1 0.2-0.1 0.3-0.1 0.5-0.1 0.8-0.2 1.3-0.3 1.2-0.7 2.5-1.1 3.6-2.8 6.2-8.9 10.4-16.1 10.4-8.5 0-15.7-6-17.3-14.1-0.1-0.5-0.1-0.8-0.2-1.3 0-0.1 0-0.2-0.1-0.3-0.1-0.2-0.3-0.3-0.4-0.4-0.6-0.2-1.1-0.2-1.5 0.1z" display="inline" fill="#2D1996"/>
	</g>
	<path d="m7.8 41.7-7.1 4.2c-0.5 0.3-0.8 0.9-0.6 1.5l0.2 0.8c1.3 4.4 3.9 8.6 7 11.7 4.8 4.8 11.5 8.2 19.9 8.2 7.4 0 14.6-3 19.9-8.2 3.1-3.1 5.4-6.9 6.8-11 0.1-0.2 0.2-0.5 0.2-0.7l0.2-0.8c0.2-0.6-0.1-1.2-0.6-1.5l-7.1-4.2c-0.4-0.2-0.8-0.3-1.3 0-0.2 0.1-0.5 0.3-0.5 0.7 0 0.3-0.2 0.9-0.2 1.3-0.2 1.1-0.5 2-1.2 3.6-2.6 5.9-8.9 10.4-16.1 10.4-8.5 0-15.7-6-17.4-14.1-0.1-0.5-0.1-0.8-0.2-1.3-0.1-0.4-0.2-0.6-0.4-0.7-0.6-0.2-1.1-0.1-1.5 0.1z" fill="#2D1996"/>
	<path d="m7.8 38.3-7.1-4.2c-0.5-0.3-0.8-0.9-0.6-1.5l0.2-0.8c1.3-4.4 3.9-8.6 7-11.7 4.8-4.8 11.5-8.2 19.9-8.2 7.4 0 14.6 3 19.9 8.2 3.1 3.1 5.4 6.9 6.8 11 0.1 0.2 0.2 0.5 0.2 0.7l0.2 0.8c0.2 0.6-0.1 1.2-0.6 1.5l-7.1 4.2c-0.4 0.2-0.8 0.3-1.3 0-0.2-0.1-0.5-0.3-0.5-0.7 0-0.3-0.2-0.9-0.2-1.3-0.2-1.1-0.5-2-1.2-3.6-2.6-5.9-8.9-10.4-16.1-10.4-8.5 0-15.7 6-17.4 14.1-0.1 0.5-0.1 0.8-0.2 1.3-0.1 0.4-0.2 0.6-0.4 0.7-0.6 0.2-1.1 0.1-1.5-0.1z" fill="#2D1996"/>
	<path d="m18.2 27.8c-0.2 0.2-0.1 0.5 0.3 1l7.9 10.3c0.3 0.3 0.5 0.6 0.5 0.9s-0.3 0.5-0.5 0.9l-7.9 10.3c-0.3 0.4-0.4 0.8-0.3 1 0.2 0.3 0.8 0 1.1-0.2l19.3-11.2 0.8-0.5c0.4-0.3 0.4-0.5 0-0.8l-0.8-0.5-19.3-11c-0.4-0.2-0.9-0.5-1.1-0.2z" fill="#2D1996"/>
	<polygon points="67.4 28.5 63.9 28.5 63.9 22.3 59.6 22.3 59.6 38.7 63.9 38.7 63.9 32.2 67.4 32.2 67.4 38.7 71.8 38.7 71.8 22.3 67.4 22.3" fill="#2D1996"/>
	<path d="m79.7 33.5v0.4c0 0.1 0 0.3-0.1 0.4-0.2 0.5-0.4 0.8-0.7 1s-0.7 0.3-1 0.3c-0.2 0-0.5-0.1-0.7-0.2s-0.4-0.4-0.6-0.7-0.3-0.7-0.3-1.3c0-0.5 0.1-1 0.3-1.3 0.2-0.4 0.5-0.6 0.8-0.8s0.7-0.3 1.1-0.4 0.8-0.1 1.1-0.1l0.1 2.7zm4.4 4.9c-0.1-0.5-0.2-1.1-0.2-1.8 0-0.6-0.1-1.3-0.1-1.9v-5.9c0-0.8-0.1-1.6-0.2-2.4s-0.4-1.5-0.8-2.1-1-1.1-1.7-1.5-1.7-0.6-2.9-0.6c-0.7 0-1.4 0.1-2.1 0.2-0.6 0.1-1.2 0.3-1.7 0.5s-0.9 0.4-1.2 0.5l0.8 2.9c0.5-0.3 1-0.5 1.5-0.7 0.5-0.1 1.1-0.2 1.7-0.2 0.7 0 1.3 0.2 1.7 0.6s0.6 0.9 0.6 1.5v0.5c-0.9 0-1.8 0.1-2.7 0.4-0.9 0.2-1.6 0.6-2.3 1-0.7 0.5-1.2 1.1-1.7 1.8-0.4 0.7-0.6 1.6-0.6 2.7 0 1 0.2 1.8 0.6 2.5s0.9 1.3 1.5 1.7 1.3 0.6 2.2 0.6c0.7 0 1.3-0.2 1.9-0.4 0.6-0.3 1.1-0.8 1.6-1.4l0.2 1.6 3.9-0.1z" fill="#2D1996"/>
	<path d="m124.2 29.6h-0.6c-0.5 0-1-0.1-1.4-0.3s-0.8-0.5-1-0.9-0.4-0.8-0.4-1.3c0-0.7 0.2-1.3 0.7-1.7 0.4-0.4 1-0.5 1.8-0.6h0.5c0.2 0 0.3 0 0.5 0.1l-0.1 4.7zm4.2-7.1c-0.5-0.1-1.2-0.2-2-0.2s-1.6-0.1-2.6-0.1c-0.8 0-1.5 0-2.2 0.1s-1.3 0.2-1.9 0.4-1 0.4-1.4 0.6c-0.6 0.4-1.1 0.9-1.4 1.5s-0.5 1.3-0.5 2.1 0.2 1.4 0.5 2c0.3 0.5 0.8 1 1.4 1.3s1.2 0.6 1.9 0.7v0.1c-0.4 0.1-0.8 0.3-1.2 0.5-0.3 0.2-0.6 0.4-0.8 0.6-0.3 0.4-0.6 0.9-0.9 1.4-0.3 0.6-0.4 1.1-0.6 1.7s-0.3 1.1-0.4 1.6c-0.1 0.3-0.2 0.7-0.4 1-0.1 0.3-0.3 0.6-0.5 0.8h4.5l0.3-0.6s0.2-0.4 0.2-0.6c0.2-0.7 0.3-1.3 0.5-2s0.4-1.2 0.6-1.8c0.3-0.5 0.6-0.9 1-1.1 0.2-0.1 0.3-0.2 0.5-0.2s0.4-0.1 0.7-0.1h0.4v6.4h4.2l0.1-16.1z" fill="#2D1996"/>
	<polygon points="144.2 35 141.1 35 141.1 22.3 136.8 22.3 136.8 35 133.7 35 133.7 22.3 129.4 22.3 129.4 38.6 146.3 38.6 146.5 43 149.8 43 150 35.4 148.4 35.4 148.4 22.3 144.2 22.3" fill="#2D1996"/>
	<path d="m153.5 28.9c0-0.4 0.1-0.8 0.1-1.3 0.1-0.4 0.2-0.8 0.4-1.2 0.1-0.4 0.4-0.6 0.6-0.9 0.3-0.2 0.6-0.3 0.9-0.3 0.4 0 0.8 0.2 1 0.5 0.3 0.3 0.5 0.8 0.6 1.3s0.2 1.2 0.2 1.9h-3.8zm7.5 3c0.1-0.2 0.1-0.5 0.1-0.9s0-0.8 0-1.4c0-2.4-0.5-4.3-1.4-5.6s-2.3-1.9-4-2c-1.2 0-2.3 0.4-3.3 1-1 0.7-1.7 1.6-2.3 2.9s-0.8 2.8-0.9 4.6c0 1.7 0.3 3.1 0.8 4.3s1.3 2.1 2.3 2.7 2.2 0.9 3.7 0.9c0.8 0 1.6-0.1 2.4-0.2s1.4-0.3 2-0.5l-0.6-3.1c-0.4 0.1-0.8 0.3-1.3 0.4s-1.1 0.2-1.7 0.2-1.2-0.1-1.7-0.3-0.9-0.6-1.2-1.1-0.5-1.2-0.5-2l7.6 0.1z" fill="#2D1996"/>
	<path d="m165.9 28.9c0-0.4 0.1-0.8 0.1-1.3 0.1-0.4 0.2-0.8 0.4-1.2s0.4-0.7 0.6-0.9 0.5-0.3 0.9-0.3 0.8 0.2 1 0.5c0.3 0.3 0.5 0.8 0.6 1.3s0.2 1.2 0.2 1.9h-3.8zm7.5 3c0.1-0.2 0.1-0.5 0.1-0.9v-1.4c0-2.4-0.5-4.3-1.4-5.6s-2.3-1.9-4-2c-1.2 0-2.3 0.4-3.3 1-0.9 0.7-1.7 1.6-2.3 2.9s-0.8 2.8-0.9 4.6c0 1.7 0.3 3.1 0.8 4.3s1.3 2.1 2.3 2.7 2.2 0.9 3.7 0.9c0.8 0 1.6-0.1 2.4-0.2s1.4-0.3 2-0.5l-0.6-3.1c-0.4 0.1-0.8 0.3-1.3 0.4s-1.1 0.2-1.7 0.2-1.2-0.1-1.7-0.3-0.9-0.6-1.2-1.1-0.5-1.2-0.5-2l7.6 0.1z" fill="#2D1996"/>
	<path d="m63.7 50.8h1c0.6 0 1.1 0.1 1.5 0.2 0.5 0.2 0.8 0.4 1.1 0.7s0.4 0.7 0.4 1.2-0.2 0.9-0.4 1.2c-0.3 0.3-0.7 0.5-1.1 0.7-0.4 0.1-0.9 0.2-1.4 0.2h-0.6c-0.2 0-0.4 0-0.5-0.1v-4.1zm0-6.5c0.3-0.1 0.7-0.1 1.1-0.1 0.8 0 1.4 0.2 1.8 0.5s0.7 0.8 0.7 1.4c0 0.4-0.1 0.8-0.4 1.1-0.2 0.3-0.6 0.5-0.9 0.7-0.4 0.2-0.8 0.2-1.3 0.2h-1v-3.8zm-4.1 13.4c0.5 0 1 0.1 1.7 0.1s1.4 0 2.2 0c0.7 0 1.4 0 2.1-0.1 0.8-0.1 1.5-0.2 2.3-0.4 0.7-0.2 1.4-0.5 2-0.8s1.1-0.8 1.5-1.4 0.6-1.3 0.6-2.1c0-0.6-0.2-1.2-0.4-1.7-0.3-0.5-0.7-1-1.3-1.3s-1.2-0.6-2-0.7v-0.1c0.6-0.1 1.1-0.4 1.5-0.7 0.5-0.3 0.8-0.7 1.1-1.2s0.4-1.1 0.4-1.8-0.2-1.3-0.5-1.8-0.7-0.9-1.2-1.2-1.1-0.5-1.7-0.7-1.3-0.3-1.9-0.3c-0.6-0.1-1.2-0.1-1.8-0.1-0.8 0-1.6 0-2.4 0.1s-1.5 0.1-2.2 0.2v16z" fill="#2D1996"/>
	<path d="m89.7 48.1c0-0.4 0.1-0.8 0.1-1.3l0.3-1.2c0.2-0.4 0.4-0.7 0.6-0.9s0.6-0.3 0.9-0.3c0.4 0 0.8 0.2 1 0.5 0.3 0.3 0.5 0.8 0.6 1.3s0.2 1.2 0.2 1.9h-3.7zm7.5 3c0.1-0.2 0.1-0.5 0.1-0.8v-1.4c0-2.4-0.5-4.3-1.4-5.6s-2.3-2-4-2c-1.2 0-2.3 0.3-3.3 1s-1.7 1.7-2.3 2.9c-0.6 1.3-0.8 2.8-0.9 4.6 0 1.7 0.3 3.1 0.8 4.3s1.3 2 2.3 2.7c1 0.6 2.2 0.9 3.7 0.9 0.8 0 1.6-0.1 2.4-0.2s1.4-0.3 2-0.5l-0.5-3c-0.4 0.1-0.8 0.3-1.3 0.4s-1.1 0.2-1.7 0.2-1.2-0.1-1.7-0.3-0.9-0.6-1.2-1.1-0.5-1.2-0.5-2h7.5z" fill="#2D1996"/>
	<path d="m98.5 57.8h4l0.2-5.7v-1.8c0-0.7 0-1.4 0.1-2.3v-3h0.1c0.1 0.4 0.2 0.9 0.3 1.5l0.3 1.8c0.1 0.6 0.2 1.2 0.4 1.8 0.1 0.6 0.2 1.1 0.3 1.6l1.3 5.7h3.6l1.3-5.6c0.2-0.8 0.4-1.7 0.6-2.6s0.3-1.7 0.5-2.4 0.3-1.3 0.3-1.8h0.1c0 1.1 0.1 2.1 0.1 3s0 1.6 0.1 2.2c0 0.6 0 1.2 0.1 1.7l0.2 5.7h4.1l-1.1-16.4h-5.5l-1.1 5.2c-0.1 0.5-0.2 0.9-0.3 1.4l-0.3 1.5c-0.1 0.5-0.2 1.2-0.4 1.9h-0.1c-0.2-0.7-0.3-1.3-0.4-1.9-0.1-0.5-0.3-1-0.3-1.5-0.1-0.5-0.2-0.9-0.3-1.4l-1.2-5.2h-5.5l-1.5 16.6z" fill="#2D1996"/>
	<path d="m125.7 48.8h-0.6c-0.5 0-1-0.1-1.4-0.3s-0.7-0.5-1-0.9c-0.2-0.4-0.4-0.8-0.4-1.3 0-0.7 0.2-1.3 0.7-1.7 0.4-0.4 1-0.6 1.8-0.6h0.5c0.2 0 0.3 0 0.4 0.1v4.7zm4.2-7.1c-0.5-0.1-1.2-0.2-2-0.2s-1.6-0.1-2.6-0.1c-0.8 0-1.5 0-2.2 0.1s-1.3 0.2-1.9 0.4-1 0.4-1.4 0.6c-0.6 0.4-1.1 0.9-1.4 1.5s-0.5 1.3-0.5 2.1 0.2 1.4 0.5 2c0.3 0.5 0.8 1 1.4 1.3s1.2 0.6 1.9 0.7v0.1c-0.4 0.1-0.8 0.3-1.2 0.5-0.3 0.2-0.6 0.4-0.8 0.6-0.3 0.4-0.7 0.9-0.9 1.4s-0.4 1.1-0.6 1.7-0.3 1.1-0.4 1.6c-0.1 0.3-0.2 0.7-0.4 1-0.1 0.3-0.3 0.6-0.5 0.8h4.5l0.3-0.6c0.1-0.2 0.2-0.4 0.2-0.6 0.2-0.7 0.3-1.3 0.5-2s0.4-1.2 0.6-1.8c0.3-0.5 0.6-0.9 1-1.1 0.2-0.1 0.3-0.2 0.5-0.2 0.2-0.1 0.4-0.1 0.7-0.1h0.4v6.4h4.2l0.1-16.1z" fill="#2D1996"/>
	<path d="m77.4 48.8h0.6c0.5 0 1-0.1 1.4-0.3s0.7-0.5 1-0.9c0.2-0.4 0.4-0.8 0.4-1.3 0-0.7-0.2-1.3-0.7-1.7-0.4-0.4-1-0.6-1.8-0.6h-0.5c-0.2 0-0.3 0-0.4 0.1v4.7zm-4.1-7.1c0.5-0.1 1.2-0.2 2-0.2s1.6-0.1 2.6-0.1c0.8 0 1.5 0 2.2 0.1s1.3 0.2 1.9 0.4 1 0.4 1.4 0.6c0.6 0.4 1.1 0.9 1.4 1.5s0.5 1.3 0.5 2.1-0.2 1.9-0.5 2.5c-1.5 2.8-4.4 3-7.2 2.7v6.6h-4.2l-0.1-16.2z" fill="#2D1996"/>
	<path d="m109.8 35.5c-1.1 0-2.3-1.7-2.3-5 0-3.6 1.4-5 2.3-5 1.2 0 2.1 2.1 2.1 4.8 0.1 4.1-1.3 5.2-2.1 5.2zm0.2-13.2c-4.1 0-6.7 3.2-6.7 8.1 0 5.2 2.4 8.2 6.4 8.2 2.5 0 6.6-1.1 6.6-8.5 0-4.8-2.4-7.8-6.3-7.8z" fill="#2D1996"/>
	<path d="m93.9 22.3h-2.8c-3.4 0-6.9 2.8-6.9 8.6 0 4.7 2.5 7.7 6.5 7.8 1.7 0.1 3.6-0.7 3.6-0.7l-0.7-3.2s-0.6 0.3-1.8 0.3c-2.5 0.1-3.4-2.6-3.4-4.5 0-2.8 1-4.5 3.3-4.6 0.6 0 2-0.1 2-0.1h2.2v12.5h4.3v-12.4h3.4v-3.6h-9.7z" fill="#2D1996"/>
</g>
</svg>
