<svg width="1214.2" height="336.86" version="1.0" viewBox="0 0 1214.2 336.86" xml:space="preserve" xmlns="http://www.w3.org/2000/svg"><path d="m0 0v336.86h1214.2v-336.86zm77.744 66.91h110.27c33.928 0 59.561 8.2038 76.902 24.611 17.435 16.408 26.152 40.548 26.152 72.42s-8.717 56.06-26.152 72.562-43.068 24.752-76.902 24.752h-110.27v-22.066h11.311c8.5763 0 13.901-0.9905 15.975-2.9707 2.0734-2.0744 3.1113-7.0713 3.1113-14.992v-114.43c0-7.9209-1.038-12.871-3.1113-14.852-2.0734-2.0746-7.3983-3.1113-15.975-3.1113h-11.311zm71.25 21.924v150.36h25.447c15.173 0 26.531-1.1778 34.07-3.5351 7.5396-2.3575 14.042-6.3658 19.508-12.024s9.7552-13.767 12.865-24.328c3.2044-10.561 4.8047-22.348 4.8047-35.361s-1.6003-24.752-4.8047-35.219c-3.1101-10.467-7.399-18.53-12.865-24.188-5.4662-5.6578-11.968-9.666-19.508-12.023-7.5396-2.4518-18.897-3.6777-34.07-3.6777zm210.4 30.447c9.7125 0 18.295 0.8483 25.744 2.545 7.5438 1.6965 13.72 4.1465 18.529 7.3515 5.5635 3.6761 9.4771 8.3425 11.74 13.998 2.2631 5.6556 3.3926 15.081 3.3926 28.277v60.799c0 3.3935 0.52128 5.8918 1.5586 7.4942 1.1315 1.6025 2.8267 2.4043 5.0898 2.4043 3.489 0 5.8464-1.8395 7.0723-5.5157 1.2258-3.676 1.8398-12.442 1.8398-26.299h17.682v6.0801c0 17.721-2.8305 30.495-8.4883 38.318-5.5635 7.8236-14.709 11.734-27.439 11.734-8.581 0-15.464-1.7428-20.65-5.2304-5.0921-3.582-8.7237-9.0964-10.893-16.543-5.7521 7.4465-12.446 12.961-20.084 16.543-7.638 3.4876-16.599 5.2304-26.877 5.2304-12.164 0-22.111-3.4876-29.844-10.463-7.7323-6.9751-11.598-15.931-11.598-26.865 0-10.463 3.2996-18.945 9.9004-25.449 6.6007-6.504 17.915-12.208 33.945-17.109 3.7719-1.2254 9.902-2.8755 18.389-4.9492 8.4867-2.0738 14.097-4.0059 16.832-5.7969 3.489-2.2621 5.941-4.8069 7.3555-7.6347 1.5087-2.922 2.2637-6.5508 2.2637-10.887 0-7.0696-2.593-12.489-7.7793-16.26-5.092-3.8647-12.448-5.7969-22.066-5.7969-6.2236 0-11.55 0.7052-15.982 2.1191-4.3377 1.3197-8.205 3.4411-11.6 6.3633h0.99023c5.6578 0 10.089 1.4144 13.295 4.2422 3.3003 2.7335 4.9512 6.598 4.9512 11.594 0 5.5614-1.8863 10.038-5.6582 13.432-3.6776 3.3933-8.5797 5.0898-14.709 5.0898-6.7894 0-12.352-2.0712-16.689-6.2187-4.3377-4.2417-6.5078-9.7098-6.5078-16.402 0-10.746 5.0933-19.464 15.277-26.156 10.278-6.6925 23.95-10.039 41.018-10.039zm301.86 0c21.001 0 37.011 6.5476 48.029 19.645 11.018 13.003 16.527 31.94 16.527 56.814h-97.471c0.56504 15.452 3.8132 27.231 9.7461 35.334 6.0272 8.1031 14.457 12.156 25.287 12.156 11.112 0 19.494-2.3554 25.145-7.0665 5.7446-4.8052 9.794-12.768 12.148-23.887h24.297c-2.0718 16.772-8.8042 30.01-20.199 39.715-11.301 9.6105-25.805 14.416-43.51 14.416-22.037 0-39.599-6.6424-52.689-19.928-13.09-13.38-19.637-31.236-19.637-53.566 0-22.048 6.593-39.808 19.777-53.281 13.278-13.568 30.795-20.352 52.549-20.352zm144.36 1.877h76.523v14.978h-11.797c-3.4878 1e-4 -5.9155 0.3417-7.2832 1.0254-2.462 1.0259-3.83 3.522-4.1035 7.4883-9e-5 1.2994-0.0686 5.3684-0.20508 12.207v25.644h57.754v-25.644c-0.13688-7.8643-0.27552-12.275-0.41211-13.232-0.0687-1.0257-0.41002-2.2241-1.0254-3.5918-0.95756-1.9148-2.632-3.1111-5.0254-3.5899-1.0258-0.205-2.7354-0.3065-5.1289-0.3066h-11.797v-14.978h76.523v14.978h-13.232c-3.5563 1e-4 -5.9839 0.3417-7.2832 1.0254-2.462 1.0943-3.83 3.5903-4.1035 7.4883-1e-4 1.2994-0.0687 5.3684-0.20508 12.207v68.522c0.13668 6.7702 0.20498 10.841 0.20508 12.209 0.27337 3.9664 1.6415 6.4957 4.1035 7.5898 1.3676 0.6155 3.7952 0.9239 7.2832 0.9238h13.232v15.078h-76.523v-15.078h11.797c3.4876 1e-4 5.9153-0.3083 7.2832-0.9238 2.4619-1.0942 3.7947-3.6234 4-7.5898 0.0687-1.1626 0.17162-5.2334 0.3086-12.209v-27.9h-57.754v27.9c0.13668 7.7962 0.24015 12.242 0.30859 13.336 0.0687 1.0258 0.445 2.2221 1.1289 3.5899 0.95727 1.9148 2.5967 3.0779 4.9219 3.4883 1.0257 0.2051 2.7706 0.3086 5.2324 0.3085h11.797v15.078h-76.523v-15.078h13.232c3.4877 1e-4 5.9155-0.3083 7.2832-0.9238 2.4619-1.0942 3.8299-3.6234 4.1035-7.5898 0-1.2309 0.0685-5.302 0.20507-12.209v-68.522c-0.13688-6.7017-0.20507-10.771-0.20507-12.207-0.27356-3.898-1.6416-6.3941-4.1035-7.4883-1.2994-0.6837-3.7271-1.0253-7.2832-1.0254h-13.232zm183.75 0.01h70.074c9.5747 1e-4 15.934 0.1113 19.012 0.3164 3.1456 0.1369 6.442 0.5681 9.9297 1.3203 17.167 3.8308 30.002 12.532 38.551 26.141 7.5224 11.968 11.301 25.943 11.301 41.877-2e-4 18.532-4.9396 34.138-14.787 46.789-8.9588 11.421-20.932 18.665-35.908 21.81-5.6758 1.1626-15.969 1.7422-30.945 1.7422h-67.227v-15.051h13.256c3.4876 0 5.9192-0.3337 7.2871-0.9492 2.4618-1.0941 3.8457-3.5863 4.1192-7.5527 0-1.231 0.074-5.3449 0.2109-12.252v-68.494c-0.1369-7.7277-0.2474-12.123-0.3164-13.148-0.069-1.0941-0.4783-2.3294-1.1621-3.6972-0.9574-1.9146-2.624-3.111-5.0176-3.5899-0.9574-0.205-2.6593-0.3183-5.1211-0.3184h-13.256zm-552.13 3.3398h75.451v19.506h-4.6719c-3.775 0-6.6067 0.613-8.4942 1.8379-1.8874 1.1307-2.8301 2.9214-2.8301 5.3711 0 1.3192 0.1889 3.015 0.56639 5.0879 0.47186 2.0728 1.1793 4.5228 2.123 7.3496l21.375 63.033 23.215-65.721c0.66062-1.6961 1.1329-3.2972 1.416-4.8047 0.3775-1.6018 0.56836-3.0618 0.56836-4.3809 0-2.7323-1.039-4.7106-3.1152-5.9355s-5.3782-1.8379-9.9082-1.8379h-6.9375v-19.506h67.523v19.506h-7.2188c-3.9637 0-7.4084 1.4136-10.334 4.2402-2.8312 2.8267-5.2851 7.255-7.3613 13.285l-35.107 99.64h-36.805l-35.391-102.47c-1.8875-5.2764-4.058-9.0454-6.5117-11.307-2.4537-2.2614-5.4724-3.3906-9.0586-3.3906h-8.4941zm605.31 11.604v110.11h13.201c14.704 0 25.839-2.2834 33.43-6.8653 12.515-7.5905 18.8-23.662 18.801-48.213 0-22.432-6.0266-38.223-18.062-47.318-4.7187-3.6245-10.445-5.9448-17.215-6.9707-3.4195-0.4785-8.0018-0.7402-13.678-0.7403zm-381.57 2.6719c-8.4756 0-15.398 3.1095-20.766 9.3281-5.2737 6.1244-8.7599 15.17-10.455 27.137h57.775c-0.84757-12.626-3.4356-21.859-7.7676-27.701-4.2378-5.8419-10.5-8.7637-18.787-8.7637zm-276.96 50.91c-3.9605 1.8852-9.4283 4.2888-16.406 7.2109-22.528 9.8927-32.252 15.065-32.252 28.701 0 5.2786 1.5562 9.3807 4.668 12.303 3.1118 2.8279 7.5448 4.2422 13.297 4.2422 9.4297 0 16.88-3.1591 22.35-9.4746 5.5635-6.4097 8.3437-15.224 8.3437-26.441z" fill="#fff" stroke-width="1.4748"/></svg>
