<svg width="1474.8" height="336.86" version="1.0" viewBox="0 0 1474.8 336.86" xml:space="preserve" xmlns="http://www.w3.org/2000/svg"><path d="m0 0 0.0015625 336.86h1474.8v-336.86zm824.08 59.992c6.1214 0 11.253 2.073 15.397 6.2188 4.2379 4.1458 6.3578 9.2338 6.3578 15.264 0 6.0303-2.1198 11.166-6.3578 15.406-4.2379 4.24-9.3697 6.3594-15.397 6.3594s-11.112-2.1194-15.256-6.3594c-4.1435-4.24-6.2156-9.376-6.2156-15.406 0-6.0303 2.0721-11.118 6.2156-15.264 4.1439-4.1458 9.2291-6.2188 15.256-6.2188zm-748.12 6.9156h110.27c33.929 0 59.562 8.2047 76.903 24.613 17.436 16.408 26.153 40.548 26.153 72.421s-8.7176 56.061-26.153 72.563c-17.436 16.502-43.069 24.755-76.903 24.755h-110.27v-22.067h11.309c8.5764 0 13.903-0.99008 15.977-2.9703 2.0734-2.0746 3.1094-7.0728 3.1094-14.994v-114.43c0-7.921-1.036-12.871-3.1094-14.852-2.0734-2.0746-7.4002-3.1125-15.977-3.1125h-11.309zm71.252 21.925v150.36h25.445c15.174 0 26.532-1.1785 34.072-3.536s14.043-6.3656 19.509-12.023c5.4663-5.6579 9.754-13.767 12.864-24.328 3.2044-10.561 4.8063-22.35 4.8063-35.363s-1.6018-24.752-4.8063-35.219c-3.1101-10.467-7.3978-18.531-12.864-24.189-5.4663-5.6579-11.97-9.6645-19.509-12.022-7.5397-2.4517-18.898-3.6781-34.072-3.6781zm781.08 27.456c9.7001 0 18.271 0.84773 25.711 2.5438 7.5341 1.696 13.702 4.1464 18.505 7.35 5.5563 3.6747 9.4648 8.3389 11.725 13.992 2.2603 5.6534 3.3906 15.076 3.3906 28.267v60.774c0 3.392 0.51872 5.8889 1.5547 7.4906 1.13 1.6018 2.8241 2.4016 5.0843 2.4016 3.4846 0 5.8398-1.8363 7.0641-5.511 1.2242-3.6747 1.8359-12.438 1.8359-26.289h17.658v6.0781c0 17.714-2.8245 30.481-8.4751 38.302-5.5562 7.8205-14.692 11.73-27.406 11.73-8.57 0-15.444-1.7419-20.624-5.2282-5.0855-3.5804-8.7121-9.0924-10.878-16.536-5.7447 7.4436-12.431 12.956-20.059 16.536-7.6283 3.4862-16.574 5.2282-26.839 5.2282-12.149 0-22.086-3.4854-29.808-10.458-7.7224-6.9725-11.583-15.923-11.583-26.853 0-10.459 3.2952-18.939 9.8875-25.441 6.5923-6.5014 17.893-12.202 33.903-17.102 3.767-1.2249 9.8899-2.874 18.366-4.9469 8.4759-2.0729 14.078-4.0036 16.809-5.7938 3.4845-2.2614 5.9327-4.8061 7.3453-7.6328 1.5068-2.9209 2.261-6.5486 2.261-10.883 0-7.0667-2.5892-12.484-7.7688-16.253-5.0855-3.8631-12.432-5.7953-22.038-5.7953-6.2156 0-11.536 0.70698-15.963 2.1203-4.3322 1.3191-8.1941 3.44-11.584 6.361h0.98905c5.6506 0 10.076 1.4124 13.278 4.2391 3.2961 2.7325 4.9453 6.5953 4.9453 11.589 0 5.5591-1.8845 10.036-5.6515 13.428-3.6729 3.392-8.5693 5.0875-14.691 5.0875-6.7807 0-12.337-2.073-16.669-6.2188-4.3321-4.24-6.4984-9.7056-6.4984-16.395 0-10.741 5.0852-19.457 15.256-26.147 10.265-6.6898 23.92-10.034 40.966-10.034zm-570.68 2.9906c9.7127 0 18.296 0.84859 25.745 2.5453 7.5439 1.6967 13.721 4.1467 18.53 7.3516 5.5636 3.6762 9.476 8.3427 11.739 13.998 2.2632 5.6557 3.3938 15.082 3.3938 28.278v60.799c0 3.3934 0.52048 5.8913 1.5578 7.4938 1.1315 1.6024 2.8274 2.4047 5.0906 2.4047 3.489 0 5.846-1.8378 7.0719-5.5141 1.2259-3.6762 1.8406-12.444 1.8406-26.3h17.681v6.0797c0 17.721-2.8312 30.495-8.4891 38.319-5.5636 7.8237-14.709 11.734-27.439 11.734-8.5812 0-15.465-1.7436-20.652-5.2313-5.0922-3.582-8.7234-9.0956-10.892-16.542-5.7522 7.4467-12.446 12.96-20.084 16.542-7.6382 3.4877-16.598 5.2313-26.877 5.2313-12.164 0-22.113-3.4872-29.845-10.463-7.7324-6.9754-11.597-15.93-11.597-26.864 0-10.463 3.2991-18.948 9.9-25.452 6.6008-6.5041 17.916-12.206 33.947-17.108 3.772-1.2254 9.9007-2.8762 18.388-4.95 8.4869-2.0738 14.098-4.0059 16.833-5.7969 3.489-2.2623 5.9418-4.8081 7.3563-7.636 1.5088-2.9221 2.2625-6.5499 2.2625-10.886 0-7.0697-2.5933-12.491-7.7797-16.261-5.0921-3.8648-12.446-5.7953-22.064-5.7953-6.2236 0-11.552 0.70482-15.984 2.1188-4.3377 1.3197-8.2053 3.442-11.6 6.3641h0.99063c5.6579 0 10.089 1.4144 13.295 4.2422 3.3004 2.7336 4.9516 6.5963 4.9516 11.592 0 5.5615-1.8859 10.039-5.6578 13.433-3.6776 3.3934-8.58 5.0906-14.709 5.0906-6.7895 0-12.353-2.0728-16.691-6.2203-4.3378-4.2418-6.5078-9.7106-6.5078-16.403 0-10.746 5.0923-19.464 15.277-26.156 10.279-6.6926 23.951-10.039 41.019-10.039zm301.86 0c21.001 0 37.011 6.5483 48.03 19.645 11.018 13.003 16.528 31.941 16.528 56.816h-97.472c0.56505 15.453 3.8139 27.231 9.7469 35.334 6.0272 8.1032 14.457 12.155 25.288 12.155 11.113 0 19.493-2.3544 25.144-7.0656 5.7447-4.8054 9.7941-12.769 12.148-23.888h24.299c-2.0719 16.772-8.8064 30.012-20.202 39.717-11.301 9.6108-25.805 14.416-43.51 14.416-22.037 0-39.6-6.6442-52.691-19.93-13.09-13.38-19.636-31.235-19.636-53.566 0-22.048 6.5921-39.809 19.777-53.283 13.279-13.568 30.796-20.352 52.55-20.352zm121.52 0.63906h63.286v144.16c0 19.221-3.766 33.12-11.3 41.694-7.5341 8.6685-19.589 13.002-36.164 13.002-11.678 0-21.19-2.7784-28.536-8.3375-7.3457-5.5592-11.019-12.72-11.019-21.483 0-5.7476 1.931-10.506 5.7922-14.275 3.8612-3.7689 8.7592-5.6532 14.692-5.6532 5.1797 0 9.3699 1.5068 12.572 4.5219 3.202 3.1093 4.8031 7.1145 4.8031 12.014 0 4.6169-1.2249 8.1966-3.6734 10.741-2.4486 2.544-6.309 4.1467-11.583 4.8063 2.5427 1.1307 4.802 1.9304 6.7797 2.4016 2.0719 0.56534 3.862 0.84845 5.3688 0.84845 6.1214 0 10.454-2.3081 12.997-6.925 2.637-4.5227 3.9546-12.531 3.9546-24.027v-116.74c0-7.4436-1.0823-12.156-3.2484-14.134-2.166-2.0729-6.5453-3.1094-13.138-3.1094h-11.584zm278.94 1.6h75.292v19.503h-4.661c-3.7671 0-6.5931 0.61262-8.4766 1.8375-1.8835 1.1307-2.825 2.9221-2.825 5.3719 0 1.3191 0.1889 3.0146 0.5656 5.0875 0.4709 2.0729 1.177 4.5233 2.1188 7.35l21.331 63.035 23.167-65.721c0.6592-1.696 1.1299-3.2987 1.4124-4.8063 0.3767-1.6018 0.5641-3.0621 0.5641-4.3813 0-2.7325-1.036-4.7111-3.1078-5.936-2.0719-1.2249-5.3671-1.8375-9.8876-1.8375h-6.9218v-19.503h67.383v19.503h-7.2048c-3.9553 0-7.393 1.414-10.312 4.2406-2.8253 2.8267-5.2734 7.2557-7.3453 13.286l-35.034 99.641h-36.728l-35.316-102.47c-1.8835-5.2765-4.0499-9.0465-6.4985-11.308s-5.462-3.3922-9.0406-3.3922h-8.4751zm164.71 0h58.202v90.596c0 10.082 1.6476 17.289 4.9438 21.624 3.3903 4.3342 8.8519 6.5016 16.386 6.5016 10.924 0 19.59-4.1459 25.994-12.438 6.4039-8.2916 9.6047-19.693 9.6047-34.203v-35.333c0-7.3494-1.1288-12.062-3.3891-14.134-2.1659-2.0729-6.6396-3.1094-13.42-3.1094h-13.28v-19.503h64.841v99.924c0 7.3494 1.1304 12.108 3.3907 14.275 2.2602 2.0729 6.7339 3.1094 13.42 3.1094h7.4859v19.363h-59.049v-24.027c-7.4399 9.328-15.209 16.395-23.308 21.2-8.005 4.8054-16.152 7.2078-24.439 7.2078-15.633 0-26.886-3.8628-33.761-11.589-6.7807-7.7263-10.172-20.682-10.172-38.867v-53.849c0-7.3494-1.1304-12.062-3.3907-14.134-2.2601-2.0729-6.7338-3.1094-13.42-3.1094h-6.6391zm-789.2 2.9891h75.453v19.505h-4.6719c-3.775 0-6.6063 0.6126-8.4938 1.8375-1.8875 1.1307-2.8312 2.9221-2.8312 5.3719 0 1.3191 0.18812 3.0146 0.56563 5.0875 0.47186 2.0729 1.1812 4.5233 2.125 7.35l21.375 63.035 23.216-65.722c0.66062-1.696 1.1325-3.2971 1.4156-4.8047 0.37749-1.6018 0.56719-3.0606 0.56719-4.3797 0-2.7325-1.0394-4.7126-3.1156-5.9375-2.0763-1.2249-5.3778-1.8375-9.9079-1.8375h-6.9375v-19.505h67.525v19.505h-7.2188c-3.9638 0-7.4072 1.414-10.333 4.2406-2.8312 2.8267-5.2863 7.2541-7.3625 13.284l-35.108 99.644h-36.806l-35.391-102.47c-1.8875-5.2765-4.0572-9.0449-6.511-11.306-2.4538-2.2614-5.4747-3.3922-9.061-3.3922h-8.4938zm223.74 14.275c-8.4758 0-15.398 3.1094-20.766 9.3282-5.2738 6.1245-8.7596 15.17-10.455 27.136h57.777c-0.84758-12.626-3.4367-21.858-7.7688-27.7-4.2379-5.8419-10.5-8.7641-18.788-8.7641zm293.68 47.891c-3.9554 1.8844-9.4185 4.2869-16.388 7.2078-21.472 9.3281-32.208 18.892-32.208 28.691 0 5.2765 1.5531 9.376 4.6609 12.297 3.1079 2.8267 7.5351 4.2391 13.28 4.2391 9.4176 0 16.857-3.1558 22.319-9.4688 5.5563-6.4072 8.3359-15.217 8.3359-26.43zm-570.65 3.0188c-3.9606 1.8852-9.4298 4.2888-16.408 7.211-22.528 9.8928-32.25 15.067-32.25 28.703 0 5.2787 1.5554 9.3794 4.6672 12.302 3.1118 2.8278 7.5448 4.2422 13.297 4.2422 9.4299 0 16.879-3.1579 22.348-9.4735 5.5636-6.4098 8.3453-15.224 8.3453-26.441z" fill="#fff" stroke-width="1.4748"/></svg>
