<svg viewBox="0 0 348.43 199.56" xmlns="http://www.w3.org/2000/svg">
 <g stroke-width="4">
  <path d="m100.63 178.37c-43.2 0-78.22-35.024-78.22-78.224s35.02-78.22 78.22-78.22 78.22 35.02 78.22 78.22-35.02 78.224-78.22 78.224m148.02-178.37c-29.588 0-56.164 12.876-74.436 33.328-18.272-20.452-44.852-33.328-74.436-33.328-55.108 0-99.78 44.672-99.78 99.78s44.672 99.78 99.78 99.78c29.584 0 56.164-12.876 74.436-33.332 18.272 20.456 44.848 33.332 74.436 33.332 55.104 0 99.776-44.672 99.776-99.78s-44.672-99.78-99.776-99.78" fill="#0c2950"/>
  <path d="m100.63 21.922c-43.2 0-78.22 35.02-78.22 78.224 0 43.2 35.02 78.22 78.22 78.22s78.22-35.02 78.22-78.22c0-43.204-35.02-78.224-78.22-78.224" fill="#fff"/>
  <path d="m103.2 116.71h-21.528v-32.284h21.528c15.6 0 21.168 6.492 21.168 16.144 0 9.648-5.528 16.14-21.168 16.14m2.968-54.784h-48.82v77.28h48.82c21.772 0 44.092-10.948 44.092-38.64s-22.32-38.64-44.092-38.64" fill="#0c2950"/>
  <path d="m273.32 102.73-12.932-35.312h-17.58l-12.932 35.312-10.364-35.312h-23.1l21.748 68.092h19.584l13.736-32.964 13.976 32.964h19.584l21.744-68.092h-23.096z" fill="#fff"/>
 </g>
</svg>
