<svg width="800" height="241.11" version="1.1" viewBox="0 0 800 241.11" xml:space="preserve" xmlns="http://www.w3.org/2000/svg"><g fill="#fff"><path d="m0 0v241.11h657.83v-241.11zm57.581 54.83h56.205c40.032 0 64.121 24.317 64.121 64.808 0 42.67-24.318 65.839-64.121 65.839h-56.205zm129.16 0h50.125l22.367 71.346 22.941-71.346h50.242v130.65h-145.68zm198.55 0h34.526l48.864 130.65h-132.25zm90.503 0h124l-42.327 61.941 46.227 68.707h-131.8l46.456-68.707z" stroke-width="1.147"/><path d="m764.16 59.266-16.625 28.452 20.174 0.02795v99.024h32.287v-127.5z" stroke-width="1.06"/><path d="m702.65 89.627v21.524h-21.524v21.524h21.524v21.524h21.524v-21.524h21.524v-21.524h-21.524v-21.524z" stroke-width="1.06"/></g></svg>
