<svg width="800" height="800" clip-rule="evenodd" fill-rule="evenodd" stroke-linejoin="round" stroke-miterlimit="2" version="1.1" viewBox="0 0 800 800" xml:space="preserve" xmlns="http://www.w3.org/2000/svg">
    <g transform="matrix(1.7964 0 0 1.7964 -66.406 -66.254)" fill-rule="nonzero">
            <path d="m482.25 254.64c2.72 122.94-94.757 224.82-217.7 227.52-122.94 2.714-224.81-94.764-227.52-217.71-2.719-122.94 94.76-224.81 217.7-227.52 122.95-2.709 224.82 94.757 227.52 217.7" fill="#a3a510"/>
            <path d="m472.92 254.85c2.605 117.79-90.785 215.39-208.58 217.99-117.79 2.601-215.39-90.791-217.98-208.58-2.605-117.79 90.789-215.39 208.58-217.98 117.8-2.595 215.39 90.785 217.99 208.58" fill="url(#_Linear1)"/>
            <path d="m163.91 155.18c-0.198 0.326-0.454 0.655-0.648 0.845-14.881 9.554-27.096 15.134-36.713 16.696-10.194 1.557-17.601-1.297-22.084-8.573-1.365-2.146-2.793-3.116-4.357-2.984-1.619 0.195-2.986 1.36-4.093 3.433-1.429 2.41-2.012 5.331-1.817 8.648 0.195 3.836 1.559 7.535 4.093 11.042 5.65 7.929 14.558 11.374 26.767 10.398 12.152-1.238 25.927-6.435 41.321-15.659l2.829-1.808c0.838-7.602-2.372-14.042-5.098-22.685l-0.2 0.647" fill="#f60"/>
            <path d="m341.22 355.54c8.867 12.88 12.374 27.884 7.6 29.881s-52.951 10.979-58.35 10.721-15.264-1.621-20.008-4.607c-3.832-2.41-7.276-6.31-10.263-11.693-1.624-2.865-3.301-5.185-5.454-5.79-4.617-1.299-8.841 3.321-10.076 6.11-1.3 2.663-1.552 5.587-0.781 8.767 0.72 3.511 2.341 7.946 5.916 11.052s21.506 10.197 40.021 11.042c11.373 0.583 23.194 0.059 35.474-1.493 7.604-1.106 17.213-3.296 23.521-4.286s23.057-1.827 26.573-4.611c1.104-0.848 1.422-1.893 0.842-3.124-0.913-2.014-2.924-4.218-6.106-6.752-7.407-5.979-11.235-12.283-11.563-18.852-0.586-5.518 1.301-11.298 5.584-17.208-7.271 1.095-14.944 1.429-22.93 0.843" fill="#f60"/>
            <path d="m326.77 352.54c0.647 1.019 1.296 2.121 1.944 3.151 5.396 9.216 8.386 21.536 8.51 32.536 0 0 10.304-2.332 11.822-2.923 3.238-1.26 1.953-14.921-7.672-30.33-1.661-2.659-13.957-2.224-14.604-2.434" fill="#f60"/>
            <path d="m399.02 252.43c-13.268-3.75-7.129-14.394-48.436-18.096-4.055-0.363-8.045-0.462-11.975-0.402h-0.193c-4.594-0.06-9.055-0.325-13.373-0.661-43.309-3.792-67.586-24.147-72.911-61.073l0.199-1.195v-0.134c3.925-6.188 6.185-13.298 6.788-21.353 0.865-12.641-3.326-23.878-12.569-33.654-9.452-9.923-21.226-15.437-35.33-16.436-14.235-1.259-26.475 2.592-36.719 11.509-10.312 8.91-14.9 22.315-12.967 39.804 0.065 0.667 6.507 18.23 5.646 26.01l3.927 4.232c23.427 13.005 44.309 10.709 44.309 10.709 26.141 4.587 41.118 48.962 41.118 48.962 6.5 16.75 11.217 47.686 14.428 61.135 2.643 11.064 8.154 21.447 18.09 30.664 14.766 13.699 33.795 18.496 35.992 19.092 3.855 0.938 7.783 1.6 11.844 2.072 1.596 0.195 3.186 0.393 4.787 0.457 9.65 0.734 18.83 0.137 27.408-1.656h0.133c9.912-2.262 19.158-6.254 27.742-12.045 14.305-9.779 23.371-37.961 23.371-37.961 6.221-16.391 17.541-29.961 31.977-44.064-17.23 4.193-53.286-5.916-53.286-5.916" fill="#fff"/>
            <path d="m301.02 269.91c-0.196 0.455-0.256 0.907-0.128 1.49 4.479 16.766 14.094 28.525 28.715 35.35 8.907 4.224 19.688 6.559 32.223 7.142h0.203c9.676 0 16.183-2.793 19.359-8.441 3.183-5.396 3.117-13.456-0.193-24.111l-0.2-0.196c-9.352-20.591-26.504-31.695-51.392-33.388-1.297-0.062-2.665-0.134-4.087-0.134-0.589 0-0.981 0.197-1.303 0.524-0.455 0.324-0.655 0.717-0.518 1.304-0.138 0.58 0.063 0.972 0.518 1.293 0.321 0.455 0.714 0.655 1.303 0.655 1.297 0 2.659 0.065 4.087 0.19 23.197 1.555 39.185 11.884 47.953 30.926 2.855 9.358 3.046 16.372 0.512 21.117-2.79 4.28-8.121 6.432-16.039 6.432-12.932-0.524-23.722-3.059-32.426-7.601-12.673-6.497-20.983-17.152-25.083-32.032-0.128-0.583-0.38-0.979-0.842-1.172-0.583-0.318-1.031-0.394-1.496-0.128-0.517 0.06-0.911 0.319-1.166 0.78"/>
            <path d="m218.93 288.93c-0.087 0-0.172-4e-3 -0.255-7e-3 -2.364 0-4.074-0.894-5.13-2.686-0.853-1.218-1.261-3.045-1.141-5.452l0.041-0.324 0.778-9.276c-2.039 1.339-3.584 2.852-4.64 4.479-0.454 0.688-1.017 1.094-1.794 1.297-0.238 0.065-0.473 0.095-0.704 0.095-0.518 0-1.014-0.153-1.485-0.462-0.697-0.409-1.147-1.019-1.349-1.791-0.208-0.767-0.08-1.5 0.37-2.194 1.908-3.215 5.328-6.064 10.21-8.546l0.733-8.541c0.083-0.822 0.447-1.47 1.06-1.998 0.553-0.481 1.184-0.694 1.912-0.694 0.067 0 0.134 3e-3 0.201 7e-3 0.768 0.075 1.421 0.442 1.955 1.054 0.526 0.619 0.73 1.303 0.691 2.116l-0.486 5.537c4.922-1.631 12-3.425 21.275-5.38 0.218-0.043 0.432-0.066 0.64-0.066 0.543 0 1.064 0.151 1.56 0.481 0.689 0.449 1.099 1.051 1.264 1.824 0.164 0.772 0.033 1.509-0.409 2.204-0.457 0.688-1.06 1.094-1.831 1.258-10.788 2.272-18.436 4.309-23.027 6.101l-1.104 12.983v0.082c-0.043 0.894 0.041 1.588 0.239 2.076l0.17-0.036c1.989-0.128 5.126-1.713 9.4-4.765 0.509-0.356 1.069-0.53 1.68-0.53 0.167 0 0.337 0.013 0.512 0.036 0.406 0.085 0.778 0.249 1.104 0.455-1.312-2.853-1.831-6.11-1.587-9.808 0.035-0.813 0.362-1.51 0.973-2.033 0.566-0.495 1.2-0.701 1.936-0.701 0.061 0 0.119 0 0.18 3e-3 0.819 0.04 1.469 0.364 1.996 0.977 0.529 0.615 0.774 1.303 0.73 2.115-0.285 4.968 1.341 8.789 4.963 11.478 1.1-6.307 4.028-13.266 8.75-20.836 0.452-0.691 1.059-1.094 1.833-1.297 0.221-0.062 0.442-0.088 0.657-0.088 0.534 0 1.046 0.17 1.536 0.488 0.694 0.41 1.104 1.015 1.308 1.792 0.044 0.216 0.064 0.422 0.067 0.632v0.033c-3e-3 0.533-0.147 1.044-0.436 1.535-5.248 8.419-8.059 15.915-8.337 22.539-0.042 0.655-0.247 1.225-0.656 1.71-0.41 0.526-0.935 0.851-1.583 1.015-0.237 0.065-0.477 0.102-0.714 0.102-0.372 0-0.748-0.085-1.12-0.266-4.108-1.741-7.166-4.063-9.198-7.04l-0.039 0.569c-0.125 0.78-0.527 1.435-1.181 1.923-5.527 3.909-9.712 5.821-12.518 5.821" fill="#f66"/>
            <path d="m89.765 247.62v44.666h-10.439v-4.781c-1.462 2.027-2.793 3.406-4 4.109-1.606 0.937-3.397 1.405-5.369 1.405-3.967 0-6.991-1.68-9.084-5.026-2.096-3.356-3.139-7.427-3.139-12.221 0-5.361 1.161-9.464 3.465-12.307 2.31-2.849 5.248-4.267 8.812-4.267 1.734 0 3.309 0.324 4.729 0.973 1.412 0.651 2.669 1.631 3.761 2.931v-15.482m0.084 28.395c0-2.538-0.483-4.428-1.446-5.679-0.976-1.251-2.199-1.873-3.676-1.873-1.293 0-2.384 0.603-3.261 1.795-0.879 1.202-1.315 3.212-1.315 6.032 0 2.639 0.449 4.574 1.354 5.802 0.906 1.231 2.022 1.848 3.356 1.848 1.43 0 2.61-0.619 3.564-1.863 0.948-1.236 1.424-3.256 1.424-6.062" fill="#003060"/>
            <path d="m127.23 292.29h-10.418v-5.239c-1.552 2.154-3.116 3.684-4.697 4.598-1.577 0.917-3.525 1.375-5.822 1.375-3.071 0-5.479-1.021-7.222-3.059-1.744-2.047-2.615-5.19-2.615-9.434v-20.594h11.209v17.797c0 2.023 0.336 3.468 1.009 4.319 0.681 0.861 1.63 1.283 2.854 1.283 1.332 0 2.428-0.566 3.273-1.713 0.852-1.136 1.274-3.176 1.274-6.12v-15.567h11.157" fill="#003060"/>
            <path d="m155.7 279.61 10.605 1.342c-0.59 2.46-1.549 4.588-2.883 6.379-1.334 1.795-3.038 3.2-5.11 4.188-2.076 0.999-4.71 1.5-7.906 1.5-3.088 0-5.657-0.324-7.713-0.956-2.055-0.648-3.818-1.674-5.3-3.111-1.48-1.428-2.639-3.104-3.48-5.039-0.838-1.926-1.261-4.483-1.261-7.669 0-3.334 0.512-6.098 1.539-8.309 0.743-1.627 1.773-3.084 3.065-4.364 1.293-1.291 2.628-2.25 4.003-2.882 2.169-0.996 4.959-1.49 8.355-1.49 4.751 0 8.37 0.943 10.862 2.833 2.495 1.889 4.249 4.653 5.251 8.284l-10.495 1.559c-0.329-1.382-0.925-2.426-1.795-3.124-0.868-0.703-2.035-1.054-3.494-1.054-1.847 0-3.34 0.736-4.483 2.207-1.14 1.467-1.711 3.693-1.711 6.674 0 2.658 0.568 4.676 1.701 6.055 1.133 1.378 2.572 2.063 4.329 2.063 1.462 0 2.688-0.416 3.686-1.244 0.991-0.829 1.738-2.113 2.235-3.842" fill="#003060"/>
            <path d="m171.42 247.62h11.398v23.05l8.332-10.74h13.729l-10.443 11.333 11.045 21.023h-12.565l-5.897-12.971-4.201 4.562v8.409h-11.398" fill="#003060"/>
            <path d="m454.73 257.98c-0.437-0.787-1.345-1.187-2.222-0.974-2.621 0.638-5.914 0.961-9.788 0.961-17.794 0-42.24-6.792-42.48-6.86-3.943-1.114-5.92-2.849-8.422-5.045-5.37-4.713-12.053-10.579-40.379-13.118-3.205-0.287-6.491-0.426-10.047-0.426-0.715 0-1.427 5e-3 -2.106 0.016h-0.167c-3.95-0.051-8.158-0.259-13.225-0.653-42.506-3.721-65.754-23.041-71.063-59.061l0.113-0.675c3.931-6.346 6.232-13.704 6.846-21.891 0.903-13.177-3.508-25.008-13.116-35.17-9.798-10.287-22.125-16.023-36.602-17.048-14.71-1.301-27.58 2.741-38.203 11.988-10.756 9.294-17.193 24.215-15.188 42.353 0.017 0.172 0.052 0.36 0.261 1.451 0.151 0.789 0.291 1.542 0.43 2.297-13.363 8.307-24.5 13.225-33.123 14.625-1.69 0.258-3.317 0.389-4.833 0.389-6.928 0-11.915-2.628-15.261-8.059-1.655-2.603-3.596-3.923-5.767-3.923-0.147 0-0.296 6e-3 -0.517 0.026-2.289 0.275-4.179 1.782-5.575 4.399-1.611 2.717-2.315 6.009-2.095 9.77 0.215 4.229 1.719 8.304 4.462 12.101 5.39 7.564 13.625 11.399 24.478 11.399 1.313 0 2.684-0.057 4.121-0.172 12.259-1.249 26.213-6.482 41.483-15.543l4.065 2.195c17.425 9.673 33.38 11.117 41.341 11.117 1.954 0 3.285-0.091 3.852-0.14 24.509 4.579 39.165 47.155 39.341 47.669 4.507 11.614 8.143 30.142 11.065 45.028 1.245 6.341 2.319 11.816 3.282 15.848 2.961 12.396 9.069 22.755 18.675 31.666 7.071 6.562 17.25 12.038 25.093 15.402 6.869 2.947 11.914 4.194 11.937 4.2 0.235 0.378 1.32 2.151 1.596 2.586 4.789 8.178 7.802 19.255 8.19 29.929-15.685 3.215-40.223 7.512-44.459 7.513l-0.159-4e-3c-5.31-0.254-14.762-1.61-19.039-4.303-3.56-2.238-6.782-5.93-9.587-10.986-1.702-3.002-3.686-5.895-6.653-6.729-0.708-0.199-1.437-0.301-2.168-0.301-5.06 0-8.99 4.616-10.247 7.459-1.498 3.069-1.81 6.473-0.942 10.046 0.735 3.585 2.471 8.604 6.563 12.159 3.979 3.456 22.141 10.659 41.229 11.529 3.033 0.156 6.15 0.234 9.266 0.234 8.485 0 17.422-0.585 26.599-1.745 4.271-0.622 9.069-1.562 13.71-2.471 3.634-0.712 7.065-1.385 9.834-1.819 1.66-0.261 4.072-0.511 6.865-0.801 10.317-1.07 17.837-2 20.616-4.2 1.863-1.432 2.398-3.511 1.444-5.536-1.051-2.316-3.174-4.697-6.672-7.482-6.882-5.555-10.522-11.407-10.822-17.395l-8e-3 -0.111c-0.53-4.993 1.224-10.317 5.214-15.823l0.078-0.107c1.387-0.221 4.371-0.769 4.491-0.796 10.154-2.316 19.715-6.467 28.427-12.343 14.532-9.937 23.559-37.191 24.129-38.95 6.683-17.574 19.666-31.747 31.487-43.296 0.645-0.629 0.788-1.611 0.352-2.399zm-123.98 97.26c2.102 0.375 8.015 1.136 8.661 1.205l0.159 0.231c2.278 3.31 4.165 6.745 5.642 10.025 3.787 9.166 3.836 15.509 3.013 16.748-0.026 0.024-0.057 0.042-0.085 0.061-1.163 0.383-5.418 1.405-8.986 2.23-0.515-10.821-3.578-21.99-8.404-30.5zm38.13 37.082c2.912 2.319 4.773 4.342 5.543 6.04 0.145 0.307 0.171 0.361-0.273 0.703-2.106 1.668-12.412 2.737-18.569 3.376-2.849 0.296-5.31 0.551-7.073 0.828-2.842 0.446-6.311 1.125-9.981 1.845-4.594 0.899-9.344 1.83-13.48 2.433-8.974 1.134-17.741 1.709-26.06 1.709-3.047 0-6.096-0.077-9.072-0.229-18.271-0.834-35.703-7.863-38.8-10.554-3.247-2.82-4.657-6.964-5.283-10.014-0.667-2.75-0.459-5.177 0.666-7.485 0.931-2.103 3.825-5.146 6.621-5.146 0.365 0 0.73 0.051 1.085 0.151 1.588 0.446 3.109 2.826 4.247 4.834 3.127 5.637 6.81 9.814 10.946 12.416 5.304 3.339 15.682 4.659 20.978 4.913 0.106 5e-3 0.179 0.017 0.352 8e-3 4.46-1e-3 47.079-7.996 47.146-8.012 5.89-1.236 10.342-2.294 11.719-2.87 0.117-0.049 1.17-0.631 1.572-1.089 0.545-0.571 1.05-1.373 1.383-2.506 1.263-4.295-0.456-11.844-4.147-19.647-0.881-2.032-2.201-4.762-3.375-6.896 4.992 0.171 10.226 0.626 15.109 0.103-2.864 5.043-4.062 10.017-3.563 14.83 0.374 7.152 4.513 13.966 12.309 20.259zm50.253-90.019c-0.012 0.032-0.023 0.064-0.033 0.097-0.089 0.275-9.028 27.647-22.585 36.917-8.231 5.553-17.269 9.49-26.862 11.705-0.103 5e-3 -7.881 1.921-19.319 1.96-12.94 0.044-23.761-3.051-27.942-3.912s-20.769-7.705-31.304-17.48c-9.008-8.357-14.733-18.061-17.505-29.664-0.944-3.952-2.012-9.391-3.247-15.688-2.952-15.042-6.627-33.762-11.231-45.621-0.627-1.858-15.667-45.555-42.667-50.292-0.114-0.02-0.23-0.03-0.346-0.03-0.072 0-0.145 4e-3 -0.216 0.012-0.014 1e-3 -1.369 0.145-3.722 0.145-7.573 0-22.763-1.379-39.42-10.625 0 0-5.523-3.084-5.525-3.053l-0.941 0.563c-14.612 8.569-29.892 14.195-41.365 15.364-11.548 0.925-19.731-2.203-24.986-9.576-2.292-3.171-3.542-6.526-3.718-9.988-0.174-2.966 0.344-5.493 1.585-7.589 0.788-1.476 1.652-2.28 2.497-2.382l0.11-5e-3c0.889 0 1.791 1.125 2.376 2.045 4.902 7.956 12.959 11.2 24.107 9.498 9.399-1.527 22.742-7.527 37.013-16.453 0 0-0.995-5.064-1.016-5.176-0.116-0.605-0.194-1.005-0.211-1.111-1.854-16.774 4.125-30.53 13.83-38.917 8.576-7.465 18.748-11.25 30.233-11.25 1.628 0 3.309 0.076 5.032 0.228 13.486 0.955 24.934 6.278 34.018 15.814 8.804 9.312 12.851 20.126 12.028 32.13-0.576 7.683-2.757 14.557-6.483 20.431-0.197 0.311-0.305 0.67-0.311 1.038l-0.172 1.034c-0.034 0.203-0.036 0.41-7e-3 0.614 5.45 37.794 30.589 58.917 74.736 62.782 5.174 0.402 9.465 0.614 13.528 0.667h0.224c0.69-0.01 1.382-0.016 2.076-0.016 3.436 0 6.605 0.134 9.689 0.411 27.025 2.422 33.165 7.811 38.098 12.14 2.652 2.329 5.159 4.528 9.977 5.89 1.021 0.286 25.214 7.01 43.564 7.01 1.604 0 3.123-0.053 4.552-0.158-10.877 11.047-22 24.318-28.139 40.491z"/>
            <path d="m191.18 126.19c-0.704-3.446-2.268-5.458-4.674-6.172-2.403-0.973-4.943-0.323-7.602 1.817-2.276 1.753-3.96 4.355-5.069 7.8-1.228 3.312-1.493 6.364-0.847 9.221 0.652 3.315 2.277 5.398 4.812 6.105 2.271 0.979 4.745 0.396 7.407-1.753 2.338-1.878 4.028-4.473 5.128-7.797 1.237-3.312 1.492-6.361 0.845-9.221"/>
        </g>
    <defs>
        <linearGradient id="_Linear1" x2="1" gradientTransform="matrix(301.7 -301.7 301.7 301.7 108.79 410.4)" gradientUnits="userSpaceOnUse"><stop stop-color="#fff" stop-opacity="0" offset="0"/><stop stop-color="#fff" stop-opacity=".8" offset="1"/></linearGradient>
    </defs>
</svg>
