<svg width="1230.1" height="799.95" focusable="false" version="1.1" viewBox="0 0 1230.1 799.95" xmlns="http://www.w3.org/2000/svg">
 <g class="negative" transform="matrix(26.665 0 0 26.665 0 2.9297e-6)" fill-rule="evenodd">
  <path d="m7.9832 27.565h-2.4295v2.4352h2.4295zm7.9822-5.9141h-2.4295v4.3488h2.4295zm-2.0695-21.651-0.36 0.44557v3.8693l2.2479-2.7824zm5.7143 27.565h-6.0743v2.4352h6.0743zm-7.6358-5.9141h-2.4295v8.3493h2.4295zm-0.3781-14.935 0.378-0.46673v-3.8704l-3.5043 4.3371zm4.3702-1e-5v-2.92l-2.3598 2.92z" fill="#fff"/>
  <path d="m15.058 8.2816h-7.1122c-0.2309 3e-5 -0.45888 0.05173-0.6673 0.15134-0.20843 0.0996-0.39203 0.2446-0.53743 0.4244l-6.3953 7.9154c-0.22301 0.2769-0.34483 0.622-0.34526 0.9779v1.1642c0 0.3087 0.12236 0.6048 0.34018 0.8232 0.21781 0.2183 0.51323 0.3409 0.82125 0.3409h13.895c0.2731 3e-4 0.5351-0.1077 0.729-0.3004 0.1939-0.1928 0.3038-0.4546 0.3057-0.7283v-0.544c0-0.2748-0.1089-0.5383-0.3027-0.7326-0.1939-0.1943-0.4568-0.3035-0.7309-0.3035h-11.376c-0.04898 1e-4 -0.09696-0.0138-0.13838-0.04-0.04141-0.0262-0.07455-0.0637-0.09556-0.108-0.02102-0.0444-0.02904-0.0938-0.02314-0.1425 0.0059-0.0488 0.02548-0.0948 0.05647-0.1328l1.1023-1.3653c0.04854-0.06 0.10987-0.1083 0.17948-0.1415 0.06961-0.0331 0.14574-0.0502 0.2228-0.0501h10.072c0.2741 0 0.537-0.1091 0.7309-0.3034 0.1938-0.1943 0.3027-0.4579 0.3027-0.7327v-0.544c0-0.136-0.0267-0.2707-0.0787-0.3963-0.0519-0.1257-0.1281-0.2398-0.2241-0.336-0.096-0.0961-0.2099-0.1723-0.3353-0.2243-0.1254-0.0519-0.2598-0.0786-0.3955-0.0784h-7.6666c-0.04907 2e-4 -0.0972-0.0135-0.13877-0.0397-0.04157-0.0261-0.07486-0.0635-0.09601-0.1079-0.02114-0.0444-0.02925-0.0939-0.02339-0.1427s0.02546-0.095 0.0565-0.1331l1.1034-1.3653c0.04843-0.0598 0.10958-0.1081 0.179-0.1412 0.06941-0.0332 0.14534-0.0503 0.22222-0.0503h6.3604c0.2741 0 0.5371-0.1092 0.7309-0.3035 0.1939-0.1943 0.3028-0.4578 0.3028-0.73264v-0.54505c-0.0011-0.27352-0.1101-0.53549-0.3031-0.7288-0.1931-0.19331-0.4546-0.30226-0.7274-0.30309z" fill="#9741ff"/>
  <path d="m30.321 10.933c0.0316 0.0088 0.0644 0.0124 0.0972 0.0106 0.1826 0 0.3273 0 0.4308 0.0116h0.1562l0.2661-0.0476h0.0285c0.0083 0.0022 0.017 0.0022 0.0253 0 0.0254-0.0106 0.0666-0.0222 0.1056-0.0339 0.0146-0.0036 0.0294-0.0064 0.0444-0.0084 0.0228-0.0022 0.045-0.0087 0.0654-0.0191l0.0845-0.0275c0.0992-0.023 0.1941-0.0619 0.2809-0.1154 0.0027-0.0022 0.0052-0.0046 0.0074-0.0074l0.0813-0.1058c0.0276-0.0287 0.052-0.0603 0.0728-0.0942l0.0275-0.0413c0.0071-0.0063 0.0134-0.0134 0.019-0.0211 0.0093-0.0124 0.02-0.0237 0.0316-0.0339 0.0072-0.0063 0.0126-0.0143 0.0159-0.0233 0.0081-0.031 0.021-0.0607 0.038-0.0878l0.0137-0.0244c0.0043-0.0066 0.0065-0.0143 0.0063-0.0222v-0.018c0.0015-0.0245 0.0061-0.0487 0.0138-0.072 0-0.0158 0.0084-0.0328 0.0126-0.0529 0.0043-0.0201 0.0095-0.0349 0.0127-0.0487 0.0098-0.0305 0.0155-0.06215 0.0169-0.09416-0.0035-0.04136 8e-4 -0.08301 0.0127-0.12277l0.0084-0.02858c0.0125-0.03396 0.0196-0.06967 0.0211-0.10583-0.0022-0.02934-0.0086-0.0582-0.019-0.08573l-0.0105-0.03598c-0.0018-0.00717-0.0055-0.01373-0.0106-0.01905-0.0013-0.01408-0.0013-0.02825 0-0.04234v-0.09631c1e-3 -0.00524 1e-3 -0.01063 0-0.01587-0.0074-0.02253-0.0109-0.04614-0.0105-0.06985 0.0017-0.02865-0.0034-0.0573-0.0148-0.08361 0.0028-0.03612-3e-3 -0.0724-0.0169-0.10584-0.0069-0.02229-0.0104-0.04546-0.0106-0.06879-0.0049-0.02989-0.0169-0.05818-0.0348-0.08255l-0.0222-0.03916c1e-3 -0.0056 1e-3 -0.01133 0-0.01693-0.041-0.0819-0.0715-0.16867-0.0908-0.25824-9e-4 -0.00654-0.0034-0.01274-0.0074-0.01799-0.0412-0.05927-0.0686-0.10584-0.0845-0.13335-0.0424-0.06969-0.1002-0.1287-0.1689-0.17252-0.0097-0.00704-0.0204-0.01273-0.0317-0.01693h-0.0095c-0.0046-0.00772-0.0111-0.01416-0.0188-0.01878-0.0078-0.00461-0.0165-0.00725-0.0255-0.00768-0.0146-0.00659-0.0304-0.01019-0.0465-0.01058-0.0228 1.9e-4 -0.0456-0.00302-0.0675-0.00953-6e-3 -0.00109-0.0121-0.00109-0.018 0-0.0214 0.00119-0.0429 0.00119-0.0644 0-0.0062-0.00389-0.013-0.00675-0.0201-0.00846l-0.0327-0.00741c-0.04-0.01042-0.0811-0.01645-0.1225-0.01799h-0.1277c-0.0697 0-0.1859 0-0.3242 0.01164h-0.0454c-0.0633-0.00938-0.1271-0.01468-0.1911-0.01588-0.0214-0.00595-0.0439-0.00686-0.0657-0.00263-0.0218 0.00422-0.0423 0.01346-0.0599 0.02697h-0.0306c-0.0463-0.01586-0.0948-0.02408-0.1436-0.02434h-0.2989c-0.0207-5.3e-4 -0.0413 0.00382-0.0601 0.0127-0.0126 1.4e-4 -0.0251 0.00228-0.037 0.00635h-0.0063c-0.0271-0.01029-0.0556-0.01636-0.0845-0.01799-0.0262-2.4e-4 -0.0523 0.00406-0.0771 0.0127h-0.0316c-0.0074-0.00103-0.0149-0.00103-0.0222 0-0.0462 0.01575-0.0949 0.02292-0.1436 0.02117h-0.151c-0.0059-0.00356-0.0123-0.00606-0.019-0.00741l-0.0327-0.00741c-0.0401-0.01042-0.0812-0.01645-0.1225-0.01799h-0.1278c-0.0697 0-0.1858 0-0.3241 0.01164h-0.3115c-0.0147-1.5e-4 -0.029 0.00512-0.0401 0.01482l-0.0729 0.00952h-0.1108c-0.0644 0-0.15 0.00635-0.2587 0.01482l-0.3263-0.02011h-0.0126c-0.0778 0.00142-0.1554-0.00639-0.2313-0.02328h-0.0158c-0.0261-0.00108-0.0517 0.0076-0.0718 0.02434h-0.245c-0.0808-4.8e-4 -0.1615 0.00732-0.2407 0.02328h-0.0422c-0.031-0.01003-0.0636-0.01398-0.0961-0.01164h-0.0771c-0.0439 0.00111-0.0878-0.00244-0.1309-0.01058h-0.1595c-0.0192 0.00308-0.0388 0.00308-0.058 0-0.0064-0.00307-0.0131-0.00521-0.0201-0.00635l-0.0665-0.01059c-0.0667-0.01531-0.136-0.01531-0.2027 0l-0.0697 0.01165c-0.019 5.3e-4 -0.0376 0.00484-0.0549 0.0127h-0.0222l-0.0665-0.00741c-0.0084-9.4e-4 -0.0169-9.4e-4 -0.0253 0-0.0384-0.01137-0.0784-0.01567-0.1183-0.0127-0.1056-0.01164-0.2407-0.01164-0.4308-0.01164-0.0411-0.00493-0.0828 0.00166-0.1204 0.01905-0.0403 0.01235-0.0824 0.01806-0.1245 0.01693h-0.3738c-0.0867 0.00843-0.1737 0.01231-0.2608 0.01164-0.0127 2.4e-4 -0.0251 0.00389-0.0359 0.01058-0.032-0.00879-0.0651-0.01236-0.0982-0.01058-0.1837 0-0.3294 0-0.434-0.01164h-0.1985c-0.0129-0.00911-0.0286-0.01325-0.0443-0.01164-0.0639 0.00751-0.1268 0.02133-0.1879 0.04127l-0.0296 0.00847-0.0169 0.00741h-0.0338l-0.0623 0.00952c-0.0513 0.00717-0.1019 0.01922-0.151 0.03599h-0.0771c-0.0055-0.00104-0.0113-0.00104-0.0168 0-0.0283 0.00742-0.0575 0.01063-0.0866 0.00952-0.0129-0.00108-0.0257 0.00269-0.0359 0.01059h-0.0106c-0.0173 5e-3 -0.034 0.01211-0.0496 0.02116-0.0181 0.00119-0.0359 0.00512-0.0528 0.01165-0.0099-1.4e-4 -0.0196 0.00203-0.0285 0.00635-0.0463 0.02172-0.0948 0.0384-0.1447 0.04974h-0.0147c-0.0328-0.0018-0.0655 0.00475-0.0951 0.01905h-0.0179c-0.0236 0.00477-0.0461 0.01373-0.0665 0.02646-0.0246 0.0059-0.0479 0.0163-0.0687 0.03069-0.0593 0.02951-0.1132 0.06888-0.1594 0.11642-0.0049 0.00407-0.0088 0.00917-0.0115 0.01493s-0.0041 0.01204-0.0041 0.01841c0 0.00636 0.0014 0.01264 0.0041 0.0184s0.0066 0.01086 0.0115 0.01493v0.0127c-0.0056 0.00416-0.0101 0.00959-0.0133 0.01584-0.0031 0.00626-0.0047 0.01316-0.0046 0.02015-0.0011 0.01195 0.0011 0.02396 0.0063 0.03476 0.0052 0.01081 0.0132 0.02 0.0232 0.02662v0.21167c-0.0031 0.00255-0.0059 0.00539-0.0084 0.00847-0.0198 0.02086-0.0409 0.04031-0.0634 0.05821l-0.0074 0.00529c-0.0257 0.01487-0.0468 0.03645-0.0612 0.06244-0.0079 6e-3 -0.0142 0.0139-0.0182 0.02296-0.0041 0.00906-0.0058 0.019-5e-3 0.0289-1e-3 0.01797 0.0038 0.03576 0.0137 0.0508-0.0169 0.03281-0.0296 0.05927-0.0391 0.08044-0.0062 0.01158-0.0114 0.0236-0.0158 0.03598-0.0056 0.00422-0.0103 0.00963-0.0136 0.01585-0.0032 0.00623-0.0051 0.0131-0.0054 0.02014v0.04762c-0.0025 0.03311 7e-4 0.0664 0.0095 0.09843 0 0.01164-0.0064 0.02434-0.0095 0.03492-0.0019 0.01424-0.0058 0.02814-0.0116 0.04128-0.0064 0.01693-0.0106 0.03492-0.0148 0.04974 6e-4 0.00669 6e-4 0.01342 0 0.02011-0.0056 0.00553-0.0096 0.01252-0.0115 0.02019-0.0018 0.00766-0.0015 0.0157 9e-4 0.0232 0.011 0.03255 0.0198 0.06578 0.0264 0.09949-0.0074 0.00639-0.0138 0.01389-0.019 0.02222-0.0138 0.00873-0.0259 0.01984-0.0359 0.03281-0.0055 0.00427-0.0099 0.00972-0.013 0.01595s-0.0048 0.01307-0.0049 0.02003c0 0.04125 0.0433 0.08045 0.0623 0.09635 0.0056 0.0044 0.0121 0.0076 0.019 0.0095-0.0522 0.0248-0.0951 0.0655-0.1225 0.1164-4e-3 0.0092-0.0047 0.0195-2e-3 0.0291 0.0026 0.0097 0.0086 0.0181 0.0168 0.0238l0.0401 0.0328c-0.0099 0.0151-0.0147 0.0329-0.0137 0.0508v0.017c1e-4 0.0071 0.0017 0.0141 0.0048 0.0205s0.0076 0.012 0.0131 0.0165c0.0281 0.0227 0.0609 0.0386 0.0961 0.0466 0.0082 0.0019 0.016 0.0051 0.0232 0.0095-0.0021 0.0087-0.0021 0.0178 0 0.0265-0.0055 0.0042-0.0099 0.0097-0.013 0.0159s-0.0048 0.0131-0.0049 0.02c-1e-4 7e-3 0.0015 0.0139 0.0047 0.0202 0.0031 0.0062 0.0076 0.0117 0.0132 0.0158 0.0243 0.0212 0.0513 0.039 0.0803 0.0529l0.039 0.0307c0.0062 0.0053 0.0134 0.0093 0.0212 0.0117 0.0696 0.0128 0.1404 0.0174 0.2111 0.0137 0.0451 7e-3 0.0906 0.0109 0.1362 0.0117 0.0317 0.0169 0.0972 0.0434 0.2408 0.1058 0.0366 0.0189 0.077 0.0293 0.1182 0.0307 0.0261 0.0111 0.0534 0.0189 0.0813 0.0233 0.0116 0 0.0211 0 0.0296 0.0074 0.0502 0.0155 0.1028 0.0212 0.1552 0.0169 0.0161 0.0079 0.0338 0.0118 0.0517 0.0117 0.1004 0.0273 0.2043 0.0395 0.3083 0.036 0.0384 2e-4 0.0767-0.0041 0.1141-0.0127h0.2629c0.0876 0.0093 0.1758 0.0135 0.2639 0.0127h0.0328c0.0466 0.0154 0.0955 0.0233 0.1446 0.0232h0.566c0.0206 6e-4 0.0412-0.0034 0.0601-0.0116 0.0113 0.0015 0.0226 0.0015 0.0338 0l0.0211 0.0064c0.0477 0.0153 0.098 0.0211 0.1479 0.0169 0.0157 0.0078 0.0331 0.0118 0.0506 0.0116 0.0953 0.0279 0.1944 0.0404 0.2936 0.0371 0.065 0.0013 0.1293-0.014 0.1869-0.0445 0.0436-0.0052 0.0879-0.0031 0.1309 0.0064v0.5397c-0.0116 0.1217-0.0116 0.2202-0.0116 0.2794v0.0403c-0.0158 0.0492-0.024 0.1006-0.0243 0.1524v0.3259c-6e-4 0.0205 0.0037 0.0409 0.0126 0.0593-7e-4 0.0155 0.0018 0.031 0.0074 0.0455v0.0159c-0.0093 0.0273-0.0149 0.0558-0.0169 0.0846-2e-4 0.0274 0.0041 0.0546 0.0127 0.0805v0.0402c-1e-3 0.0052-1e-3 0.0106 0 0.0159 0.0041 0.0124 0.0072 0.0252 0.0095 0.0381v0.3386c-0.0034 0.0645 4e-4 0.1291 0.0116 0.1927v0.0328c1e-4 0.0167-0.0032 0.0332-0.0095 0.0487-0.01 0.0292-0.015 0.06-0.0148 0.091v0.4297c0.0029 0.0411-3e-4 0.0825-0.0095 0.1227v0.0064c-0.0086 0.0096-0.0134 0.022-0.0137 0.0349v0.2201c0.0087 0.06 0.0125 0.1205 0.0116 0.181 1e-4 0.0681-0.0077 0.1359-0.0232 0.2022-5e-4 0.0042-5e-4 0.0085 0 0.0127v0.6763c-0.0123 0.1188-0.0166 0.2383-0.0127 0.3577v0.3122c0.0089 0.0467 0.0128 0.0943 0.0116 0.1418 0 0.0625 0 0.1778 0.0127 0.3175v0.145c0.0087 0.0599 0.0125 0.1204 0.0116 0.181 1e-4 0.068-0.0077 0.1359-0.0232 0.2021-5e-4 0.0042-5e-4 0.0085 0 0.0127v0.6763c-0.0124 0.1188-0.0166 0.2383-0.0127 0.3577v0.3123c0.0089 0.0467 0.0128 0.0942 0.0116 0.1418 0 0.0624 0 0.1788 0.0127 0.3175 0.0127 0.1386 0.0127 0.2497 0.0127 0.3111-0.0011 0.0156 0.0034 0.031 0.0127 0.0434v0.0074c-1e-4 0.0064 0.0012 0.0127 0.0038 0.0185 0.0025 0.0059 0.0063 0.0111 0.0109 0.0154 0.0082 0.0121 0.0119 0.0267 0.0106 0.0413 2e-4 0.0098 0.0031 0.0193 0.0084 0.0275 0.0081 0.0125 0.0145 0.026 0.0191 0.0402 3e-3 8e-3 0.0066 0.0157 0.0105 0.0233-3e-4 0.0315 4e-3 0.0629 0.0127 0.0931-0.0031 0.0404 0.0016 0.081 0.0137 0.1196 0.0073 0.0297 0.0227 0.0568 0.0444 0.0783l0.0496 0.0985c0.0285 0.0455 0.0496 0.0815 0.0644 0.1058 0.0121 0.0233 0.0266 0.0453 0.0433 0.0656l0.0074 0.0064c0.0534 0.0322 0.1 0.0747 0.1372 0.1249 0.0067 0.0098 0.0166 0.0169 0.0281 0.02 0.0114 0.0031 0.0235 2e-3 0.0342-0.0031l0.1056-0.0508c0.0093-0.0049 0.0167-0.0127 0.0211-0.0222l0.0222-0.0445 0.0253-0.0381c0.0053-0.0082 0.0083-0.0177 0.0085-0.0275v-0.0265c0.0359 0.0322 0.0688 0.0676 0.0982 0.1059l0.0306 0.0614c-0.0016 0.0268 0.0058 0.0534 0.0209 0.0756 0.015 0.0222 0.037 0.0388 0.0625 0.0471h0.0158c0.0127 0 0.0248-0.0049 0.0338-0.0137 0.0159-0.0154 0.0253-0.0362 0.0264-0.0582 7e-3 -0.0151 0.0116-0.0312 0.0138-0.0477 0-0.0127 0-0.0264 0.0095-0.0402 0.0064-0.0185 0.011-0.0377 0.0137-0.0571 0.0017-0.0127 0.0049-0.0251 0.0095-0.0371 0.0152-0.0412 0.0209-0.0853 0.0169-0.1291 0.0071-0.0295 0.0113-0.0596 0.0127-0.09 0.0023-0.0036 0.0056-0.0065 0.0095-0.0084 0.0078-0.0042 0.0145-0.0105 0.0191-0.0181s0.0071-0.0164 0.0073-0.0253c-0.0013-0.0049-0.0013-0.01 0-0.0148 0.0049-0.0114 0.0077-0.0236 0.0084-0.036 5e-4 -0.0039 5e-4 -0.0078 0-0.0117-0.0147-0.0538-0.0229-0.1093-0.0243-0.1651v-0.0116l0.0254 0.0148c0.0364 0.0258 0.079 0.0415 0.1235 0.0455 0.0073 0.0027 0.0141 0.0066 0.02 0.0117l0.0507 0.0508c0.0091 0.0088 0.0212 0.0137 0.0338 0.0137h0.038c0.0169 0 0.0275 0 0.0338 0.0138-0.0045 0.0077-0.0071 0.0164-0.0074 0.0254v0.0127c-1e-4 0.0137 0.0043 0.0272 0.0127 0.0381 1e-4 0.0131 0.0054 0.0257 0.0148 0.0349l0.0126 0.0127c0.0091 0.0088 0.0212 0.0137 0.0338 0.0138 0.0133 9e-4 0.0267-1e-3 0.0392-0.0056 0.0126-0.0045 0.024-0.0117 0.0337-0.0209 0.0084-0.0109 0.0128-0.0243 0.0127-0.0381 0.0086-0.0096 0.0134-0.022 0.0137-0.0349v-0.0254c4e-4 -0.0067-5e-4 -0.0135-0.0026-0.0198-0.0022-0.0064-0.0056-0.0122-0.0101-0.0173 8e-4 -0.0191-0.0035-0.0381-0.0127-0.055 0.0016-0.0105 0.0016-0.0212 0-0.0317l0.019-0.0286c0.0057 0.0078 0.0132 0.0142 0.0218 0.0187 0.0086 0.0044 0.0182 0.0067 0.0279 0.0067 0.01 0 0.0198-3e-3 0.0281-0.0087 0.0083-0.0056 0.0147-0.0137 0.0183-0.0231l0.019-0.0508c0.0031 0.0243 0.0152 0.0466 0.0338 0.0625 0.0114 0.0208 0.026 0.0398 0.0433 0.0561 0.0043 0.0045 0.0096 0.0081 0.0154 0.0105 0.0059 0.0024 0.0121 0.0035 0.0184 0.0032 0.0195 0.0017 0.039-0.0038 0.0548-0.0155 0.0157-0.0117 0.0267-0.0288 0.0307-0.048 0-0.0116 0.0085-0.0211 0.0116-0.0307 5e-3 -0.0109 0.0089-0.0222 0.0117-0.0338h0.0052c0.0054-0.0092 0.0126-0.0171 0.0211-0.0233 0.0082-0.0032 0.0149-0.0092 0.0191-0.017 0.0036 0.0045 0.0079 0.0084 0.0126 0.0117 6e-3 0.0132 0.0146 0.0251 0.0254 0.0349 0.0164 0.0158 0.0312 0.0332 0.0443 0.0519l-0.0158 0.0296c-0.0033 7e-3 -0.0051 0.0145-0.0053 0.0222v0.0508c0.0023 0.0288 0.0104 0.0567 0.0238 0.0822s0.0319 0.0479 0.0543 0.066c0.0069 0.0066 0.0155 0.0111 0.0249 0.0129 0.0094 0.0017 0.0191 7e-4 0.0278-3e-3 0.0088-0.0038 0.0163-0.01 0.0216-0.018 0.0053-0.0079 0.0081-0.0173 0.0081-0.0268-0.0014-0.0225 0.0011-0.0451 0.0074-0.0667 0.0038-0.0064 0.0057-0.0137 0.0053-0.0212v-0.127c4e-4 -0.0074-0.0015-0.0148-0.0053-0.0211-0.0053-0.0086-0.0079-0.0186-0.0074-0.0286 4e-4 -0.0078-0.0014-0.0155-0.0053-0.0222l-0.0264-0.054 0.0264-0.054c0.0038-0.0064 0.0057-0.0137 0.0053-0.0212 0.0024-0.0375-0.0019-0.0751-0.0127-0.1111v-0.0656c3e-3 -0.0211 0.0075-0.042 0.0137-0.0624l0.0243 0.0613c0.0106 0.0286 0.0232 0.0625 0.0391 0.1006v0.1556l-0.0201 0.0402c-0.0032 7e-3 -5e-3 0.0145-0.0053 0.0222v0.0254c-5e-4 0.0049-5e-4 0.0099 0 0.0148l0.0381 0.1133c0.0018 0.0052 0.0043 0.0102 0.0073 0.0148 0.0018 0.0193 0.0018 0.0388 0 0.0582-0.0069 0.0428 0.0026 0.0866 0.0264 0.1228 0.0092 0.0091 0.0215 0.0142 0.0344 0.0142 0.0128 0 0.0252-0.0051 0.0343-0.0142 0.0254-0.0261 0.0398-0.061 0.0401-0.0974 0-0.0159 0.0084-0.0868 0.0158-0.1312-9e-4 0.0139 1e-3 0.028 0.0055 0.0412 0.0045 0.0133 0.0116 0.0255 0.0209 0.036 0.0092 0.0094 0.0218 0.0147 0.0349 0.0148 0.0113 7e-4 0.0227-0.0014 0.033-0.0062s0.0193-0.0121 0.0261-0.0213c0.0076-0.0066 0.0161-0.0119 0.0253-0.0159 0.0043-0.0018 0.0082-0.0043 0.0117-0.0074 0.0114-2e-3 0.0218-0.0079 0.0294-0.0168 0.0075-0.0089 0.0117-0.0202 0.0117-0.0319v-0.0423c0.0081-0.0227 0.0121-0.0468 0.0117-0.0709 0-0.0095-1e-4 -0.0222 0.0411-0.0476 0.0061-0.0038 0.0113-0.0089 0.0151-0.0149 0.0038-0.0061 0.0063-0.0129 0.0071-0.0201 0.0012-7e-3 7e-4 -0.0143-0.0015-0.0211s-0.0061-0.013-0.0112-0.018c-0.0091-0.0169-0.0135-0.0359-0.0126-0.055v-0.0635c0-0.0911 0-0.2286-0.0127-0.4234-0.0053-0.0794-0.0085-0.1503-0.0106-0.2117 0-0.0846-0.0074-0.1587-0.0147-0.2116v-0.0127c2e-4 -0.031-0.0048-0.0618-0.0148-0.091-6e-3 -0.0152-0.0092-0.0314-0.0095-0.0477v-0.0508c2e-4 -0.0063-9e-4 -0.0125-0.0033-0.0184-0.0023-0.0058-0.0059-0.0111-0.0105-0.0154 0.0017-0.0065 0.0038-0.0129 0.0064-0.0191 0.0071-0.0201 0.013-0.0406 0.0179-0.0614 5e-4 -0.0038 5e-4 -0.0077 0-0.0116v-0.5175c-0.0035-0.0623-3e-4 -0.1247 0.0095-0.1863 0.0011-0.0053 0.0011-0.0107 0-0.0159v-0.2117c0-0.0095 0.038-0.4688 0.0254-0.6593 0-0.0667-0.0074-0.1249-0.0095-0.1789 0.0021-0.0059 0.0038-0.0119 0.0052-0.018v-0.0084c0.0093-0.0095 0.0144-0.0222 0.0144-0.0355 0-0.0132-0.0051-0.026-0.0144-0.0354 5e-4 -0.0141-0.0017-0.0281-0.0063-0.0413 0.0224-0.0806 0.0327-0.1641 0.0306-0.2477-8e-4 -0.0859 7e-3 -0.1717 0.0233-0.2561 5e-4 -0.0031 5e-4 -0.0064 0-0.0095 5e-4 -0.0164-0.0027-0.0327-0.0095-0.0476v-0.4054c-2e-4 -0.0131-0.0055-0.0257-0.0148-0.0349h-0.0064c-0.0031-0.0431-0.0091-0.0858-0.0179-0.1281v-0.0529c0.0112-0.0315 0.0155-0.0651 0.0127-0.0984v-0.0847c-0.0011-0.0492 0.0024-0.0985 0.0105-0.1471 5e-4 -0.0032 5e-4 -0.0064 0-0.0095v-0.1577c-0.0019-0.025 6e-4 -0.05 0.0074-0.0741 5e-4 -0.0049 5e-4 -0.0099 0-0.0148 0-0.0265 0.0074-0.0508 0.0106-0.072 0.0075-0.0384 0.0121-0.0773 0.0137-0.1164-1e-3 -0.032-0.0049-0.0639-0.0116-0.0953 0-0.0222-0.0085-0.0486-0.0116-0.074 4e-4 -0.0202-0.0039-0.0401-0.0127-0.0583v-0.0941c7e-3 -0.015 0.011-0.0312 0.0116-0.0477 0.0117-0.0409 0.016-0.0835 0.0127-0.1259 0.0116-0.1111 0.0116-0.2593 0.0116-0.4646 0.0049-0.0403-9e-4 -0.0812-0.0169-0.1186v-0.2783c-1e-4 -0.0132-0.0054-0.0257-0.0148-0.0349v-0.236c-0.0074-0.0763-0.0095-0.1376-0.0105-0.1895 6e-4 -0.0305 0.0038-0.061 0.0095-0.091 5e-4 -0.0032 5e-4 -0.0064 0-0.0095v-0.1577c-2e-3 -0.025 5e-4 -0.0501 0.0074-0.0741 4e-4 -0.0049 4e-4 -0.0099 0-0.0148 0-0.0265 0.0073-0.0508 0.0105-0.072 0.0075-0.0384 0.0121-0.0773 0.0137-0.1164-9e-4 -0.0317-0.0048-0.0632-0.0116-0.0942 0-0.0233-0.0084-0.0498-0.0116-0.0741 6e-4 -0.0205-0.0037-0.0408-0.0127-0.0593v-0.0878c0.0071-0.0149 0.011-0.0311 0.0117-0.0476 0.0116-0.0409 0.0159-0.0836 0.0126-0.126 0.0053-0.0476 0.0074-0.1058 0.0095-0.1651h0.0085c0.0187 1e-4 0.0371-0.0042 0.0538-0.0127h0.0687c0.0139 0.0067 0.0289 0.0107 0.0443 0.0117 0.0383 0.0113 0.0784 0.0156 0.1182 0.0127 0.1426 0.012 0.2857 0.0162 0.4287 0.0127 0.0408 0.0048 0.0821-0.0018 0.1193-0.0191 0.0398-0.0132 0.0817-0.0193 0.1236-0.018h0.3716c0.1183-0.0116 0.4614-0.0116 0.5174-0.0116 0.0148 1e-3 0.0296-0.0027 0.0422-0.0106z" fill="#9741ff"/>
  <path d="m46.124 18.058c-0.0069-0.0373-0.0201-0.0731-0.0391-0.1059-0.0125-0.035-0.0284-0.0686-0.0475-0.1005 0.0044-0.0447-1e-3 -0.0899-0.0158-0.1323-0.0053-0.0116-0.0095-0.0222-0.0127-0.0307-0.0053-0.017-0.0139-0.0329-0.0253-0.0465l-0.0095-0.018c-0.0072-0.012-0.0129-0.0248-0.0169-0.0381 5e-4 -0.0032 5e-4 -0.0064 0-0.0096l-0.0571-0.1735c-0.0192-0.0672-0.0484-0.131-0.0865-0.1895l-0.019-0.054c-0.0074-0.0222-0.0138-0.0391-0.0148-0.0455-9e-4 -0.0182-0.0075-0.0356-0.019-0.0497v-0.0074c-8e-4 -0.0056-0.0026-0.011-0.0053-0.0159-0.0283-0.0561-0.051-0.115-0.0676-0.1757-0.0105-0.0402-0.0211-0.0751-0.0285-0.1058-0.0048-0.0146-0.0087-0.0294-0.0116-0.0445v-0.0444c-0.0027-0.0152-0.011-0.0288-0.0232-0.0381-0.0057-0.0086-0.0124-0.0164-0.0201-0.0233-0.0277-0.0294-0.0463-0.0661-0.0538-0.1058 0-0.0056-0.0014-0.0112-4e-3 -0.0161-0.0025-5e-3 -0.0063-0.0093-0.0108-0.0125-0.0029-0.0051-0.0054-0.0104-0.0074-0.0159-0.0045-0.0134-0.0098-0.0264-0.0159-0.0391l-0.0126-0.0297c-0.0047-0.0202-0.0158-0.0384-0.0317-0.0518 0 0-0.0053-0.0138-0.0074-0.0223-0.0021-0.0084-0.0084-0.0254-0.0148-0.0412-0.0013-0.0034-0.0031-0.0066-0.0053-0.0096-4e-3 -0.0078-0.0076-0.0159-0.0105-0.0243-5e-3 -0.0213-0.0164-0.0405-0.0327-0.055-0.0072-0.0096-0.0139-0.0195-0.0201-0.0297v-0.0148c-0.0058-0.0374-0.0187-0.0733-0.038-0.1058-0.0123-0.0338-0.0275-0.0663-0.0454-0.0974 0.0042-0.0061 0.0068-0.0132 0.0077-0.0205 1e-3 -0.0074 1e-4 -0.0149-0.0024-0.0218-0.0402-0.0995-0.0834-0.2117-0.0877-0.2297-1e-4 -0.0068-0.0023-0.0135-0.0063-0.019l-0.0539-0.0879c-0.0183-0.0656-0.0472-0.1278-0.0855-0.1841l-0.0179-0.054c-0.0074-0.0222-0.0138-0.0392-0.0148-0.0455-0.0013-0.0184-0.0079-0.0361-0.019-0.0508v-0.0074c6e-4 -5e-3 6e-4 -0.0099 0-0.0148-0.0159-0.0318-0.0063-0.0127-0.0264-0.09-0.0129-0.0888-0.0427-0.1743-0.0876-0.2519-0.0277-0.0294-0.0464-0.0661-0.0539-0.1058 2e-4 -0.0057-0.0011-0.0113-0.0036-0.0163-0.0026-5e-3 -0.0065-0.0092-0.0112-0.0123 0 0-0.0464-0.0963-0.0496-0.1058-0.0032-0.0096-0.0084-0.0233-0.0158-0.0381-0.0074-0.0149-0.0095-0.0223-0.0127-0.0307-0.0053-0.0201-0.0163-0.0381-0.0317-0.0519-0.0031-0.0072-0.0056-0.0146-0.0074-0.0222 0-0.0106-0.0084-0.0244-0.0148-0.0402-0.0011-0.0039-0.0029-0.0074-0.0052-0.0106-0.0046-0.0077-0.0081-0.0158-0.0106-0.0244-0.0052-0.0209-0.0166-0.0397-0.0327-0.0539-0.0072-0.0096-0.0139-0.0195-0.0201-0.0297l-0.0137-0.0233c-0.0118-0.0343-0.0313-0.0654-0.057-0.091-0.0246-0.0324-0.0449-0.068-0.0602-0.1058-0.0042-0.0106-0.0085-0.0201-0.0127-0.0286-0.0026-7e-3 -0.0074-0.0129-0.0137-0.0169-0.0134-0.0198-0.025-0.0407-0.0349-0.0625-0.0105-0.0232-0.0274-0.0582-0.0295-0.0645-6e-4 -6e-3 -0.0024-0.0117-0.0053-0.017l-0.0369-0.0687c-0.0247-0.0496-0.0522-0.0976-0.0824-0.144-0.0324-0.0558-0.0566-0.1161-0.0718-0.1788-0.0127-0.0371-0.0243-0.0741-0.038-0.1059-0.0486-0.0889-0.0813-0.1566-0.0993-0.1915-0.0033-0.0075-0.0084-0.014-0.0147-0.0191-0.0057-0.0041-0.0107-0.0091-0.0148-0.0148-0.0072-8e-3 -0.015-0.0154-0.0233-0.0222-0.0096-0.0138-0.021-0.0262-0.0337-0.0371-6e-4 -0.0064-0.0025-0.0126-0.0056-0.0183-0.0031-0.0056-0.0073-0.0106-0.0124-0.0145-0.0046-0.018-0.0113-0.0354-0.0201-0.0518-0.0078-0.0125-0.0125-0.0266-0.0137-0.0413-1e-3 -8e-3 -0.0039-0.0156-0.0084-0.0222-0.0459-0.0603-0.0866-0.1244-0.1214-0.1916-0.0142-0.0369-0.0319-0.0724-0.0528-0.1058l-0.0212-0.0381c-0.0698-0.0935-0.1286-0.1947-0.1752-0.3017l-0.0254-0.0487c-0.0244-0.0494-0.0526-0.0968-0.0844-0.1418-0.0028-0.0151-0.0086-0.0294-0.0169-0.0423v-0.0476c-4e-4 -0.0077-3e-3 -0.015-0.0074-0.0212l-0.0137-0.0212c-0.0136-0.0246-0.0299-0.0477-0.0486-0.0688-0.0212-0.034-0.0453-0.0662-0.0718-0.0963-0.0035-0.0046-0.0078-0.0086-0.0127-0.0116 0 0-0.0105-0.0127-0.0116-0.0117-7e-4 -0.0103-0.0036-0.0204-0.0084-0.0296-0.0056-0.0124-0.0091-0.0256-0.0106-0.0391-0.0011-0.0104-0.0056-0.02-0.0127-0.0276-0.019-0.0211-0.02-0.0254-0.02-0.0296v-0.0127c-0.0275-0.0646-0.1141-0.1492-0.1056-0.1662 0.0015-0.0058 0.0018-0.012 9e-4 -0.018s-3e-3 -0.0117-0.0062-0.0169l-0.0486-0.0783c-0.0211-0.0328-0.0359-0.0561-0.0475-0.0783l-0.0338-0.0614-0.0475-0.0667-0.0063-0.0074c-1e-3 -0.0056-1e-3 -0.0113 0-0.0169-0.0034-0.0186-0.0106-0.0362-0.0211-0.0519-0.0063-0.0106-0.0119-0.0215-0.0169-0.0328l-0.019-0.036-0.0106-0.0169c1e-4 -0.0059-0.0014-0.0117-0.0041-0.0169-0.0028-0.0051-0.0068-0.0095-0.0117-0.0127-0.0106-0.0117-0.0528-0.0762-0.1056-0.1588l-0.0834-0.127-0.0064-0.0709c-0.0012-0.011-0.0064-0.0212-0.0147-0.0286l-0.1225-0.1206c-0.0061-0.0772-0.0348-0.1508-0.0824-0.2117-0.0015-0.0026-0.0037-0.0048-0.0063-0.0064-0.0158-0.023-0.0279-0.0483-0.0359-0.0751v-0.0085c-0.0013-0.0085-0.0054-0.0163-0.0116-0.0222l-0.0264-0.0264c-0.0218-0.0261-0.0458-0.0502-0.0718-0.072-0.0042-0.0626-0.0274-0.12248-0.0665-0.17146l-0.0053-0.00635c-0.0053-0.00635-0.0106-0.01165-0.0285-0.05927-0.0287-0.05428-0.0484-0.11292-0.0581-0.17357 1e-3 -0.01237-7e-4 -0.0248-0.0049-0.03648-0.0042-0.01167-0.0108-0.02233-0.0194-0.03126-0.0115-0.01852-0.0184-0.03959-0.02-0.06138 1e-4 -0.00211 1e-4 -0.00424 0-0.00635l-0.0159-0.05609c-0.0018-0.00516-0.0046-0.00985-0.0084-0.01376-0.0282-0.03387-0.0599-0.07303-0.0951-0.11748-0.0411-0.0508-0.0865-0.10583-0.1393-0.17039-0.0028-0.00363-0.0064-0.00654-0.0106-0.00847l-0.1351-0.08361c-0.0249-0.01614-0.0464-0.03699-0.0634-0.06138-0.0044-0.00593-0.0102-0.01065-0.0169-0.01376-0.0173-0.00947-0.0333-0.02122-0.0475-0.03493l-0.0158-0.0127c-0.0046-0.00367-0.0098-0.0064-0.0154-0.00804-0.0057-0.00163-0.0115-0.00214-0.0174-0.00148-0.0265 0.00195-0.0523 0.0103-0.0749 0.02434-0.0085 5.3e-4 -0.0169 5.3e-4 -0.0254 0h-0.0063c-0.0153-0.01617-0.0319-0.03103-0.0496-0.04445-0.0093-0.00637-0.0197-0.01103-0.0306-0.01376h-0.0064c-0.0038-0.00651-0.0094-0.01178-0.0162-0.01516-0.0067-0.00338-0.0143-0.00473-0.0218-0.00389l-0.0169-0.00741-0.0823-0.06033c-0.0096-0.00678-0.0211-0.01014-0.0328-0.00952-0.0216-1.2e-4 -0.0425 0.00737-0.0591 0.02117-0.0113 0.0094-0.025 0.01547-0.0395 0.01753-0.0146 0.00205-0.0294 1e-5 -0.0429-0.00589h-0.0242c-0.0408-0.01159-0.0839-0.01159-0.1246 0-0.0644 0.02857-0.113 0.04974-0.151 0.06244-0.037-0.00635-0.0665-0.01164-0.0972-0.01905-0.013-0.00212-0.0263 1.2e-4 -0.038 0.00635-0.0515 0.03174-0.1052 0.06002-0.1605 0.08467-0.0063 0-0.0052 0-0.0095 0.00635h-0.0718c-0.0059-9.7e-4 -0.012-9.7e-4 -0.0179 0-0.1985 0.09208-0.2545 0.11959-0.2756 0.13335l-0.0834 0.03069-0.0412 0.01059c-0.0225 0.0066-0.0454 0.0119-0.0686 0.01587-0.0088 2.3e-4 -0.0173 0.00319-0.0243 0.00847l-0.0929 0.06244-0.0106 0.00847c-0.0094 0.0058-0.0176 0.01335-0.0242 0.02222-0.0063 0.00328-0.012 0.00757-0.0169 0.0127-0.0081 0.00811-0.0136 0.01841-0.0159 0.02964l-0.0116 0.0254c-0.0549 0.04492-0.0998 0.10078-0.132 0.16404-0.0126 0.02434-0.0243 0.05186-0.0348 0.07832-0.0427 0.05482-0.0782 0.11494-0.1056 0.17886-0.047 0.09371-0.0855 0.19147-0.1151 0.29206-0.0221 0.0705-0.0504 0.1388-0.0845 0.2043-0.0331 0.0552-0.0604 0.1137-0.0813 0.1746-0.0242 0.0498-0.0591 0.1165-0.1055 0.2054l-0.0697 0.1365c-0.0401 0.0857-0.0729 0.1598-0.0993 0.2201-0.0169 0.0392-0.0317 0.0741-0.0454 0.1059-0.0084 0.0105-0.0146 0.0228-0.0179 0.0359l-0.0074 0.018c-0.0059 0.0129-0.0101 0.0264-0.0127 0.0402v0.0075c-0.0048 0.0053-0.0087 0.0114-0.0116 0.0179-0.0234 0.0771-0.0531 0.1522-0.0887 0.2244-0.0048 0.0046-0.0086 0.0102-0.0109 0.0164-0.0024 0.0063-0.0034 0.013-0.0028 0.0196v0.0169c-0.0148 0.0608-0.0346 0.1203-0.0591 0.1778-0.0161 0.0377-0.0367 0.0732-0.0613 0.1059-0.0037 0.0031-0.0066 0.0071-0.0084 0.0116-0.0517 0.1029-0.0968 0.209-0.1352 0.3175-0.0084 0.0233-0.0169 0.0445-0.0243 0.0656l-0.0074 0.0201c-0.0306 0.0932-0.0728 0.2202-0.1467 0.3938l-0.0317 0.1058c-0.0011 0.0052-0.0011 0.0106 0 0.0159 3e-4 0.0195-0.0033 0.0389-0.0106 0.0571l-0.0073 0.0222c-0.0167 0.0563-0.0416 0.1098-0.074 0.1588-0.0029 0.0041-0.0051 0.0088-0.0063 0.0138-0.0107 0.0433-0.0255 0.0855-0.0443 0.1259-0.0085 0.0212-0.0159 0.0392-0.0201 0.054-0.0106 0.0349-0.0201 0.0709-0.0422 0.1301-0.0085 0.0223-0.0148 0.0424-0.0201 0.0593-6e-3 0.0194-0.0131 0.0385-0.0211 0.0572-7e-4 0.0027-7e-4 0.0057 0 0.0084-0.0158 0.0688-0.0496 0.1641-0.0908 0.2847l-0.0232 0.0688-0.0117 0.0244c-2e-3 0.0072-2e-3 0.0149 0 0.0222l0.0074 0.0868c-0.0058 0.0195-0.0083 0.0399-0.0074 0.0603l-0.0063 0.0296c-0.0076 0.0276-0.0112 0.0561-0.0106 0.0847-0.0057 0.0532-0.0166 0.1056-0.0327 0.1566l-0.0127 0.0519c-0.0072 0.0179-0.0132 0.0363-0.0179 0.055-0.0063 0.0223-0.0137 0.0487-0.0232 0.0741-0.0214 0.0467-0.0373 0.0957-0.0475 0.1461 0 0.0106-0.0053 0.0201-0.0074 0.0285-5e-4 0.0021-5e-4 0.0043 0 0.0064l-0.0106 0.0106-0.0074 0.0084c-0.0222 0.0325-0.0393 0.0682-0.0507 0.1059l-0.0232 0.0815c-0.0118 0.0496-0.027 0.0984-0.0454 0.146-0.0174 0.0198-0.0278 0.0447-0.0296 0.0709-0.0156 0.1108-0.0414 0.2199-0.077 0.326 0 0.0138-0.0074 0.0243-0.0106 0.0349-0.0074 0.0171-0.0114 0.0354-0.0116 0.054 0.0037 0.052-0.0046 0.1042-0.0243 0.1524-0.0317 0.1556-0.085 0.3059-0.1584 0.4466-0.0026 9e-3 -0.0026 0.0186 0 0.0276l-0.0095 0.0126c-0.0099 0.0189-0.0147 0.0401-0.0137 0.0614-0.0496 0.1598-0.0961 0.3482-0.1584 0.616-0.0248 0.058-0.0346 0.1213-0.0285 0.1841 0.0053 0.0466 0.0014 0.0937-0.0116 0.1387-0.0033 0.0077-0.0037 0.0163-0.0012 0.0242 0.0026 8e-3 0.0078 0.0148 0.0149 0.0192 7e-4 0.0102 7e-4 0.0205 0 0.0307 3e-4 0.0078 0.0033 0.0153 0.0085 0.0211 0.015 0.0257 0.0343 0.0486 0.057 0.0678 0.0088 6e-3 0.0189 0.0097 0.0296 0.0106 0.0117 0.0082 0.0258 0.0123 0.0401 0.0116h0.0348c0.018 0.0136 0.0379 0.0243 0.0591 0.0318 0.0171 0.0084 0.0328 0.0195 0.0465 0.0328 0.0054 0.0058 0.0115 0.0112 0.018 0.0158l0.1319 0.0974 0.0212 0.0138c0.0093 0.0041 0.0179 0.0098 0.0253 0.0169 0.0011 0.0029 0.0029 0.0054 0.0053 0.0074l0.0454 0.0445c0.0045 0.0041 0.0094 0.0076 0.0148 0.0105 0.058 0.0238 0.1176 0.0436 0.1784 0.0593h0.0158c0.0068 0.0081 0.0146 0.0152 0.0233 0.0212l0.0295 0.0222c0.0168 0.0113 0.0349 0.0205 0.0539 0.0275l0.0412 0.0191 0.0454 0.0243c0.0217 0.0132 0.0447 0.0242 0.0686 0.0328l0.0528 0.0127 0.0475 0.0127h0.0063c0.0069 0.0086 0.0161 0.0152 0.0264 0.0191 0.0214 0.0101 0.0453 0.0135 0.0686 0.0095 0.0044 0.0035 0.0094 6e-3 0.0148 0.0074l0.0285 0.0106c0.0088 0.0016 0.0177 0.0016 0.0264 0h0.0222c0.0154 0.0062 0.032 0.0088 0.0486 0.0074l0.2027 0.055 0.057 0.0096c0.037 0.0063 0.0781 0.0137 0.1235 0.0254l0.1236 0.0243 0.0496 0.0085c0.1056 0.0359 0.076 0.0285 0.1563-0.0212 0.0017 4e-4 0.0035 4e-4 0.0053 0 0.0154-9e-4 0.0309-9e-4 0.0464 0l0.1056-0.0074c0.0088-5e-4 0.0174-0.0026 0.0253-0.0064l0.2344-0.1227c0.0103-0.0056 0.0188-0.0141 0.0243-0.0244 0.0139-0.0294 0.0256-0.0598 0.0349-0.091 9e-3 -0.0289 0.0199-0.0572 0.0327-0.0847 0.0238-0.0728 0.0535-0.1436 0.0887-0.2116l0.0211-0.0434c0.0021-0.0073 0.0021-0.015 0-0.0222 0.0041-0.0039 0.0073-0.0086 0.0095-0.0138l0.0127-0.0286c0.047-0.1469 0.0823-0.2973 0.1056-0.4498 0.0129-0.0198 0.0242-0.0407 0.0337-0.0624 0.0069-0.0167 0.0154-0.0327 0.0254-0.0476 0.0205-0.02 0.037-0.0437 0.0486-0.0699 0.0041-0.0188 0.0116-0.0368 0.0221-0.0529 0.0049-0.0046 0.0086-0.0102 0.011-0.0164 0.0024-0.0063 0.0033-0.013 0.0028-0.0196-0.0048-0.058 0.0024-0.1164 0.0211-0.1715l0.0623-0.1746c0.0155-0.0268 0.0204-0.0586 0.0137-0.0889 5e-3 -0.0172 0.0078-0.035 0.0084-0.0529h0.0074c0.0079-0.0013 0.0154-0.0045 0.0218-0.0093s0.0116-0.011 0.0152-0.0182c0.0084-0.0216 0.0236-0.0398 0.0433-0.0519 0 0 0.0359-0.0159 0.1615 0.0064h0.0159c0.0456-0.0034 0.0915-0.0034 0.1372 0 0.0113 9e-4 0.0226 9e-4 0.0338 0 0.0349 8e-4 0.069-0.0108 0.0961-0.0328 0.0611 0.0049 0.1225-0.0027 0.1805-0.0223h0.0074l0.1288 0.0276c0.0095 0.0024 0.0195 0.0024 0.0289-2e-4 0.0095-0.0026 0.0181-0.0077 0.025-0.0147h0.0095c0.0266-7e-4 0.0524-0.0096 0.0739-0.0254 0.1547-0.0476 0.3139-0.0788 0.4751-0.0931 0.0666-0.0037 0.1326-0.0132 0.1975-0.0286 0.0447-0.0137 0.092-0.0173 0.1383-0.0106 0.0084 0.0022 0.0172 0.0025 0.0257 0.0011 0.0085-0.0015 0.0167-0.0047 0.0239-0.0095 0.0555-0.0095 0.1116-0.0152 0.1679-0.017 0.0228-0.0028 0.0458-0.0028 0.0686 0 0.0339 0.0118 0.07 0.0158 0.1056 0.0117l0.0771-0.0053c0.0059 1e-3 0.012 1e-3 0.0179 0 0.0233-0.0092 0.0479-0.0145 0.0729-0.0159 0.0084 9e-4 0.0169 9e-4 0.0253 0l0.0127 0.0254 0.0549 0.1694c0.0057 0.0262 0.0142 0.0517 0.0254 0.0762l0.0137 0.0338v0.0096c0.0162 0.0216 0.03 0.0451 0.0412 0.0698 2e-4 0.011 0.0026 0.0218 0.0071 0.0318 0.0046 0.0101 0.0111 0.019 0.0193 0.0264 0.0069 0.0132 0.0147 0.0259 0.0232 0.0381 0.0125 0.0184 0.0235 0.0379 0.0327 0.0582 0.0021 0.0238 0.0101 0.0467 0.0232 0.0667 0.0048 0.0096 9e-3 0.0195 0.0127 0.0296 0.0045 0.0153 0.0116 0.0296 0.0211 0.0424 0.0127 0.0402 0.0222 0.0772 0.0328 0.1132 0.0263 0.1276 0.0781 0.2485 0.152 0.3556 0 0 0.0053 0.0138 0.0095 0.0222l0.0085 0.0201 0.0285 0.1059c0.0021 0.0075 0.0061 0.0145 0.0116 0.0201 0 0.0148 0.0084 0.036 0.0116 0.0519 0.0148 0.0751 0.0211 0.1058 0.0549 0.1153l0.0127 0.036c0 0.0138 0.0095 0.0296 0.0116 0.0381-0.0048 0.0119-0.0048 0.0252 0 0.037 0.0169 0.0328 0.0348 0.0805 0.0496 0.1186s0.0158 0.0487 0.0222 0.0677c0.0071 0.0204 0.0128 0.0413 0.0169 0.0624 2e-4 0.0141 0.0036 0.0279 0.01 0.0404s0.0156 0.0233 0.0269 0.0316c0.0038 0.0087 0.0081 0.0172 0.0127 0.0254l0.056 0.1683c0.0053 0.0267 0.0138 0.0526 0.0253 0.0773l0.0127 0.0328 0.0052 0.0095c0.016 0.0218 0.0298 0.0452 0.0412 0.0698 0.0015 0.0223 0.0109 0.0433 0.0264 0.0593 0.0064 0.0116 0.0148 0.0243 0.0232 0.0371 0.0126 0.0184 0.0235 0.0379 0.0328 0.0582 0.0021 0.0238 0.0101 0.0467 0.0232 0.0666l0.0127 0.0297c0.0046 0.0155 0.0118 0.0301 0.0211 0.0434 0.0572 0.1837 0.1454 0.3562 0.2608 0.5101 0.0013 0.0059 0.0013 0.0121 0 0.018 0.0012 0.0076 0.0041 0.0148 0.0084 0.0211 0.0232 0.0354 0.053 0.0659 0.0877 0.09 0.0303 0.019 0.064 0.032 0.0992 0.0381 0.0199 0.0097 0.039 0.021 0.057 0.0339 0.0051 0.0118 0.0119 0.0229 0.0201 0.0328 0.0023 0.0042 0.0055 0.0079 0.0095 0.0106-6e-4 0.0038-6e-4 0.0077 0 0.0116 0.0107 0.018 0.0251 0.0335 0.0422 0.0455l0.0159 0.0085 0.1974 0.0688c0.0078 0.0034 0.0163 0.0051 0.0248 0.0051 0.0086 0 0.017-0.0017 0.0248-0.0051 0.0228-3e-4 0.0456 0.0026 0.0676 0.0084l0.0391 0.0096c0.0184 6e-3 0.0376 0.0096 0.057 0.0106h0.0053c0.0088-7e-4 0.0175-0.0033 0.0253-0.0075l0.0528-0.0275h0.0074c0.0067-5e-4 0.0134-5e-4 0.0201 0 0.0076-0.0014 0.0155-0.0014 0.0232 0 0.0132 7e-3 0.0275 0.0117 0.0422 0.0138h0.0053c0.012 0.0085 0.0265 0.0126 0.0412 0.0116 0.0773-0.0016 0.1538-0.0166 0.2259-0.0444 0.0053 0 0 0 0.0074-0.0064h0.0349c0.0415-0.0054 0.0821-0.0168 0.1203-0.0338l0.0507-0.0138c0.0643-0.0159 0.1252-0.0435 0.1795-0.0815h0.0137c0.0151-4e-3 0.0296-0.0096 0.0433-0.0169 0.0078-0.0036 0.016-0.0065 0.0243-0.0085 0.0121-0.0034 0.0237-8e-3 0.0349-0.0138 0.0333-0.0053 0.0662-0.0134 0.0981-0.0243l0.0381-0.0116c0.0344-0.0194 0.0704-0.0356 0.1077-0.0487l0.0359-0.0106c0.0629-0.0202 0.1231-0.0479 0.1794-0.0826 0.061-0.0375 0.1106-0.0909 0.1436-0.1545 0.0069-0.0095 0.0133-0.0194 0.019-0.0296 0.0433-0.0328 0.0222-0.0773 0.0106-0.1058-0.0075-0.0127-0.0126-0.0267-0.0148-0.0413l-0.152-0.1059c4e-4 -0.0038 4e-4 -0.0077 0-0.0116-0.0095-0.0243-0.019-0.0423-0.0254-0.0561l-0.0063-0.0116c5e-4 -0.0053 5e-4 -0.0106 0-0.0159l-0.0063-0.1122h0.0074s0.0105-0.0127 0.0211-0.018c0.0105-0.0053 0.0105 0 0.0137-0.0074h0.0148c0.0271 5e-3 0.0536 0.0128 0.0792 0.0233h0.0665c0.0234 0.0143 0.0509 0.0203 0.0781 0.0169 7e-3 2e-4 0.0139-0.0011 0.0204-0.0037s0.0123-0.0065 0.0173-0.0115c0.0049-0.0049 0.0088-0.0108 0.0114-0.0173s0.0039-0.0134 0.0037-0.0204zm-4.3491-3.7222c-0.0053 0.0071-0.0121 0.0129-0.02 0.0171-0.0078 0.0043-0.0165 0.0067-0.0254 0.0072-0.0352 0.0039-0.0709 0.0021-0.1055-0.0053l-0.4783 0.0392c-0.0327 3e-4 -0.0651 0.0056-0.0961 0.0158-0.0517 0.0248-0.1086 0.0368-0.1658 0.035-0.0452 7e-4 -0.09 0.0082-0.133 0.0222-0.0062 0.0032-0.0131 5e-3 -0.0201 0.0053l-0.1816 0.0148c-0.0348 0-0.0634 0.0053-0.0876 0.0053-0.0311 0.0033-0.0622-0.0058-0.0866-0.0254-0.0391-0.036-0.0401-0.0984 0-0.2244l0.0063-0.0158v-0.0223c0.0018-0.021 5e-3 -0.0418 0.0095-0.0624l0.0074-0.0656c5e-4 -0.0082 0.0026-0.0161 0.0063-0.0233v-0.0064c-6e-4 -0.0241 0.0033-0.0482 0.0117-0.0709 0.0105-0.0328 0.0654-0.3334 0.077-0.4074 3e-3 -0.0292 3e-3 -0.0587 0-0.0879-0.0062-0.035-0.0062-0.0708 0-0.1058l0.0254-0.2022c0.0179-0.1058 0.0338-0.1915 0.0475-0.273 0.0274-0.1503 0.0486-0.2688 0.0602-0.3546-5e-4 -0.0056-5e-4 -0.0113 0-0.0169 0-0.0106 0.0074-0.0413 0.0126-0.0794 0.0114-0.0946 0.0308-0.1881 0.0581-0.2794 3e-3 -0.0068 0.0069-0.0132 0.0116-0.019 0.0198-0.0197 0.0466-0.0308 0.0745-0.0308s0.0546 0.0111 0.0744 0.0308c0.0041 0.0033 0.0076 0.0072 0.0106 0.0116 0.1004 0.1402 0.1921 0.2866 0.2745 0.4382 0.0652 0.1111 0.1217 0.2272 0.1689 0.3471 0.0032 0.0078 0.0054 0.016 0.0064 0.0244v0.0444c0.0132 0.0326 0.0283 0.0644 0.0454 0.0953l0.0528 0.1058c0.0347 0.0561 0.0587 0.1182 0.0707 0.1831 0.0061 0.0385 0.0156 0.0764 0.0285 0.1132l0.132 0.3398c0.023 0.0494 0.0407 0.1012 0.0528 0.1545 0.0039 0.0226 0.0106 0.0447 0.02 0.0656 0.0042 0.0046 0.0074 0.01 0.0095 0.0159l0.0518 0.128c9e-4 0.0074 9e-4 0.0149 0 0.0223v0.0444c4e-3 0.0175 0.0018 0.0359-0.0064 0.0519z" fill="#9741ff"/>
  <path d="m37.35 20.506c-0.0017-8e-3 -0.0062-0.0151-0.0126-0.0201-0.0095-0.0175-0.0139-0.0373-0.0127-0.0572 0.0011-0.0052 0.0011-0.0106 0-0.0159 0-0.0116-0.0063-0.0211-0.0095-0.0296-0.0027-0.0198-0.012-0.0381-0.0264-0.0518-6e-4 -5e-3 -6e-4 -0.0099 0-0.0149 0-0.0095 0-0.019-0.0095-0.0307v-0.0476c-1e-4 -0.0101-0.0039-0.0199-0.0106-0.0275-0.0243-0.0317-0.0665-0.1058-0.1172-0.1873l-0.0327-0.0476c-0.0291-0.0509-0.0646-0.0979-0.1056-0.1398-2e-4 -0.0105-0.0031-0.0208-0.0085-0.0299s-0.013-0.0166-0.0221-0.0219c-0.0433-0.0614-0.1204-0.1662-0.2312-0.3175-0.1109-0.1514-0.2006-0.2688-0.2376-0.3175l-0.0401-0.0667c-0.0027-0.0049-0.0063-0.0092-0.0106-0.0127-0.0268-0.0235-0.0519-0.049-0.075-0.0762h0.0064l-0.0243-0.0413-0.0106-0.0127c-0.0475-0.0424-0.091-0.0891-0.1298-0.1397-0.0233-0.037-0.0507-0.0825-0.0824-0.1354l-0.0338-0.0508c-0.0324-0.0553-0.0718-0.1062-0.1172-0.1514 0-0.0113-3e-3 -0.0223-0.0088-0.032-0.0057-0.0097-0.014-0.0177-0.0239-0.023-0.0454-0.0625-0.1288-0.1799-0.2502-0.3376-0.1215-0.1577-0.2112-0.29-0.2556-0.3461l-0.0432-0.072-0.0106-0.0127c-0.063-0.0554-0.119-0.1183-0.1668-0.1873-0.0559-0.0682-0.1158-0.1329-0.1795-0.1937-0.012-0.0182-0.0266-0.0346-0.0433-0.0487-0.0259-0.037-0.0541-0.0724-0.0845-0.1058-0.0169-0.0275-0.0338-0.0508-0.0475-0.0709-0.0058-0.0078-0.0111-0.0159-0.0158-0.0244v-0.0148c0.0304-0.0285 0.0664-0.0504 0.1056-0.0645l0.0168-0.0106c0.0125-0.0072 0.0239-0.0161 0.0338-0.0265 0.0174-0.0071 0.0332-0.0175 0.0465-0.0307 0.0049-0.0031 0.0089-0.0075 0.0116-0.0127 0.0319-0.0384 0.0673-0.0738 0.1056-0.1058 0.0301-0.0333 0.0626-0.0645 0.0971-0.0931 0.1189-0.1073 0.2311-0.2218 0.3358-0.3429 4e-4 -0.0021 4e-4 -0.0043 0-0.0064 0.0076-0.0099 0.0157-0.0195 0.0243-0.0286 0.0222-0.0229 0.042-0.0481 0.0591-0.0751 0.0394-0.0363 0.0748-0.0768 0.1056-0.1207 0.0256-0.0296 0.0463-0.0632 0.0612-0.0995 7e-3 -0.0094 0.0127-0.0197 0.0169-0.0306 0.0059-0.0141 0.0137-0.0273 0.0232-0.0392 0.0063-0.0074 0.0097-0.0168 0.0096-0.0265 5e-4 -0.014 3e-3 -0.0279 0.0073-0.0412 0.0035-0.0092 0.0056-0.0188 0.0064-0.0286 0.0049-0.0159 0.014-0.0302 0.0264-0.0413 0.0071-0.0059 0.0125-0.0136 0.0158-0.0222 0.0061-0.0287 0.0161-0.0565 0.0296-0.0826 3e-4 -0.0024 3e-4 -0.0049 0-0.0074 0.0137-0.0402 0.0264-0.0741 0.0369-0.1058 0.0174-0.0367 0.0298-0.0754 0.037-0.1154-2e-3 -0.0225-2e-3 -0.0452 0-0.0677 0.0103-0.0124 0.018-0.0268 0.0225-0.0422 0.0046-0.0155 0.0059-0.0318 0.0039-0.0478 0.0017-0.0126 0.0017-0.0254 0-0.0381 0.0049-0.0041 0.0089-0.0093 0.0116-0.0151 0.0028-0.0059 0.0042-0.0123 0.0042-0.0187 0.0016-0.0207 0.0073-0.0409 0.0169-0.0593l0.0095-0.0222c0.0217-0.0589 0.0325-0.1214 0.0317-0.1842-9e-4 -0.0136 2e-3 -0.0271 0.0084-0.0391 0.0042-0.0063 0.0064-0.0137 0.0064-0.0212v-0.0487c-0.0044-0.0321-0.0108-0.0639-0.019-0.0952-0.0127-0.0593-0.0317-0.1472-0.0539-0.2636-0.0017-0.0077-0.0058-0.0147-0.0116-0.0201-1e-3 -0.0148-1e-3 -0.0296 0-0.0444 0.0055-0.0366-0.0016-0.0739-0.0201-0.1059-0.0088-0.0402-0.012-0.0816-0.0095-0.1227 0.0019-0.0351-0.0081-0.0698-0.0285-0.0985-2e-3 -0.016-0.0052-0.032-0.0095-0.0476-0.0024-0.0076-0.0042-0.0154-0.0053-0.0233-0.0107-0.0689-0.0255-0.1371-0.0443-0.2042l-0.0116-0.0371c-0.0086-0.0216-0.0139-0.0445-0.0158-0.0677-0.0338-0.1698-0.106-0.3295-0.2112-0.4667l-0.0834-0.1059c-0.0677-0.11-0.1486-0.2113-0.2408-0.3016-0.0288-0.0227-0.0554-0.0482-0.0792-0.0762-0.0036-0.0048-0.0079-9e-3 -0.0126-0.0127-0.0286-0.0178-0.0549-0.0391-0.0782-0.0635l-0.0168-0.0159c-0.0439-0.0342-0.0927-0.0617-0.1447-0.0815-0.0354-0.0132-0.069-0.0306-0.1003-0.0518-0.0121-9e-3 -0.0248-0.0171-0.038-0.0244-7e-3 -0.0034-0.0137-0.0073-0.0201-0.0116-0.0096-0.0079-0.0214-0.0127-0.0338-0.0138-0.0985-0.0086-0.1945-0.0359-0.2829-0.0804l-0.0919-0.0381c-0.0905-0.0303-0.1829-0.0547-0.2766-0.073l-0.0972-0.0265c-0.0618-0.0152-0.1227-0.0335-0.1826-0.055h-0.0116c-0.056-0.0117-0.0982-0.0233-0.1331-0.0328-0.0405-0.0161-0.0832-0.0257-0.1267-0.0286-0.0281-0.0102-0.0571-0.0179-0.0866-0.0233l-0.0264-0.0064c-0.0306-0.0179-0.5574-0.0486-0.5574-0.0486-0.1355-0.0068-0.2712-0.0057-0.4065 0.0031-0.0558 0.0096-0.1125 0.0128-0.169 0.0096-0.0415-1e-3 -0.0829 0.0029-0.1235 0.0116h-0.3801c-0.0387-0.0047-0.078 0.0019-0.113 0.0191l-0.0486-0.0244h-0.0116c-0.019-0.0127-0.0454 0.036-0.0718 0.0244-0.0199-0.0071-0.0391-0.0163-0.057-0.0276-0.0115-0.0089-0.0256-0.0137-0.0401-0.0137h-0.0412c-0.0602 0-0.1151-0.0413-0.1784 0-0.0087 0.0048-0.0157 0.0122-0.0201 0.0211l-0.0127 0.0138h-0.0105c-0.0198-0.0045-0.0405-0.0015-0.0581 0.0085-0.0221 0.0012-0.0444 0.0012-0.0665 0h-0.0338c-0.0089-0.0084-0.0193-0.0149-0.0308-0.0191-0.0114-0.0041-0.0236-0.0059-0.0357-0.0053-0.0364-3e-4 -0.0715 0.0133-0.0982 0.0381-0.0124 0.0087-0.022 0.0208-0.0275 0.035-0.0534 0.0091-0.1062 0.0211-0.1583 0.0359-0.0135-0.0047-0.0257-0.0123-0.0359-0.0222-0.0065-0.0055-0.014-0.0095-0.0222-0.0116-0.0227-0.0043-0.0446-0.0125-0.0644-0.0244-0.0111-0.0097-0.0254-0.0149-0.0401-0.0148h-0.1056c-0.0325 9e-4 -0.0644 0.0092-0.0932 0.0245-0.0287 0.0152-0.0536 0.0369-0.0726 0.0634v0.0074l-0.0285-0.0085c-0.0234-0.0096-0.0486-0.0143-0.0739-0.0138-0.0145 0-0.0287 0.0049-0.0401 0.0138-0.0078 0.0066-0.0149 0.0141-0.0211 0.0222-0.0202 0.0225-0.0421 0.0434-0.0655 0.0625-0.0041 0.0037-0.0077 0.0079-0.0106 0.0127l-0.0179 0.0275c-0.0173 0.0256-0.0311 0.0533-0.0412 0.0825-0.0098 0.0062-0.0181 0.0145-0.0243 0.0244l-0.0158 0.0116c-0.0091 3e-3 -0.0175 0.0081-0.0243 0.0148-0.0053 0.0053-0.0091 0.0119-0.011 0.0192s-0.0017 0.0149 4e-4 0.0221l0.0117 0.0371c0.0068 0.0195 0.0118 0.0397 0.0147 0.0603v0.0148c-0.0046 3e-3 -0.0086 7e-3 -0.0116 0.0116-0.0446 0.0805-0.0665 0.1716-0.0633 0.2636 0 0.1196 0 0.3005-0.0138 0.5408-0.0137 0.2402-0.0147 0.4138-0.0147 0.5292v0.073c-6e-4 0.0031-6e-4 0.0064 0 0.0095 0.0189 0.0797 0.0281 0.1615 0.0274 0.2434 0 0.0858 0 0.2286-0.0137 0.4086-0.0137 0.1799-0.0148 0.327-0.0148 0.4138-0.0025 0.0615 7e-4 0.1232 0.0095 0.1841-7e-3 0.0141-0.0103 0.0298-0.0095 0.0455v0.036c-5e-4 0.0068 6e-4 0.0135 0.0031 0.0198 0.0026 0.0062 0.0066 0.0118 0.0117 0.0162v0.1164c-0.0144 0.176-0.0194 0.3527-0.0148 0.5292 4e-3 0.1765-9e-4 0.3531-0.0148 0.5292v0.1153c0 0.0233 0.0074 0.0445 0.0116 0.0635 0.0091 0.0404 0.0147 0.0815 0.0169 0.1228 8e-4 0.0462-0.0038 0.0924-0.0137 0.1376-5e-4 0.0024-5e-4 5e-3 0 0.0074v0.2297c-9e-4 0.0563 0.0088 0.1123 0.0285 0.1651v0.4762c4e-4 0.0106 0.0046 0.0207 0.0116 0.0286 2e-3 0.0225 2e-3 0.0452 0 0.0677v0.0963c0 0.3006 0 0.5186-0.0148 0.6774v0.2847c-0.01 0.0938-0.0146 0.1882-0.0137 0.2826v0.1333c2e-4 0.0074 2e-3 0.0146 0.0053 0.0212 0.0156 0.0266 0.0237 0.057 0.0232 0.0878-0.0046 0.0436 2e-3 0.0877 0.019 0.1281l0.1732 0.326c0.0042 0.0077 0.0102 0.0143 0.0176 0.0191s0.0159 0.0077 0.0246 0.0084h0.0127c7e-3 0.0065 0.013 0.014 0.0179 0.0222 0.0142 0.0232 0.0324 0.0437 0.0539 0.0603 0.0054 0.0049 0.0119 0.0086 0.019 0.0106l0.0549 0.018c0.0676 0.0222 0.1605 0.0529 0.2608 0.09 0.0148 0.0063 0.0264 0 0.0486 0.0084 0.0107 0.0077 0.0224 0.0137 0.0348 0.018 0.0064 0.0055 0.014 0.0095 0.0222 0.0117 0.0345 0.0081 0.0665 0.0248 0.0929 0.0486 0.0111 0.0097 0.0254 0.015 0.0401 0.0149h0.0919c0.0314 0.0079 0.0637 0.0119 0.0961 0.0116 0.0977 0.0013 0.1954-0.0076 0.2914-0.0265 0.0693-0.0156 0.1401-0.023 0.2111-0.0222 0.0233-2e-4 0.0464 3e-3 0.0687 0.0095 0.0059 1e-3 0.012 1e-3 0.0179 0l0.1183-0.0211c0.0137-4e-4 0.0272-0.0029 0.0401-0.0074 0.0216-0.0017 0.043-0.0063 0.0634-0.0138 0.0165-0.0102 0.0354-0.0157 0.0549-0.0159 0.0518-0.0061 0.1024-0.0204 0.1499-0.0423l0.0602-0.0212 0.0137-0.0084h0.0095c0.017-0.0055 0.0333-0.013 0.0486-0.0223 0.0227-1e-3 0.0447-0.0076 0.0644-0.019 0.0133 0.0058 0.0277 0.0083 0.0422 0.0074 0.0112 6e-4 0.0224-0.0021 0.0322-0.0077 0.0097-0.0056 0.0176-0.014 0.0227-0.0241 0.0095-0.0254 0.0496-0.056 0.1214-0.0963 0.0078-0.0046 0.0144-0.0112 0.019-0.019l0.0233-0.0328c0.0137-0.0212 0.0316-0.0466 0.0464-0.072l0.0222-0.0307c0.0279-0.0343 0.0513-0.072 0.0697-0.1122 9e-4 -0.0049 9e-4 -0.0099 0-0.0148v-0.1291c0.011-0.0468 0.0156-0.0949 0.0137-0.1429 0.0148-0.1629 0.0197-0.3265 0.0148-0.49-0.0032-0.1618 0.0028-0.3236 0.0179-0.4847l0.0718 0.0741c0.0507 0.0529 0.1225 0.1291 0.2165 0.2254 0.0899 0.086 0.1689 0.1827 0.2354 0.2879 0.0133 0.0439 0.0377 0.0836 0.0708 0.1153 0.012 0.0091 0.0247 0.0172 0.038 0.0244h0.0074c0.0028 0.0057 0.0063 0.0111 0.0105 0.0158 7e-3 0.0696 0.035 0.1353 0.0803 0.1884 0.0022 0.0034 0.0051 0.0062 0.0084 0.0085 0.0327 0.0391 0.062 0.0809 0.0877 0.1249l0.0464 0.0698 0.0095 0.0106 0.0275 0.0233c0.0019 0.0069 0.0051 0.0134 0.0095 0.019 0.0858 0.1015 0.1661 0.2075 0.2407 0.3176l0.0053 0.0074c0.0211 0.0232 0.0348 0.0402 0.0454 0.0529 0.0094 0.013 0.02 0.025 0.0317 0.036l0.0169 0.0148 0.0295 0.0296c0.0812 0.0794 0.1522 0.1686 0.2112 0.2657 0.0137 0.0402 0.0369 0.0765 0.0676 0.1058 0.0115 0.0085 0.0235 0.0162 0.0359 0.0233h0.0053c0.0024 5e-3 0.0056 0.0097 0.0095 0.0137 0.0066 0.0646 0.0327 0.1255 0.0749 0.1747l0.0085 0.0095c0.03 0.0359 0.0572 0.0741 0.0813 0.1143l0.0422 0.0645 0.0095 0.0117 0.0243 0.0201c0.0022 0.0059 5e-3 0.0116 0.0084 0.0169 0.0796 0.0954 0.1543 0.1946 0.2239 0.2974l0.0053 0.0074c0.019 0.0212 0.0316 0.0371 0.0411 0.0498 0.0096 0.0122 0.0202 0.0235 0.0317 0.0338l0.1056 0.09c0.0056 0.0048 0.012 0.0084 0.019 0.0106l0.2671 0.09h0.0222c0.0337 0.0021 0.0674-0.0026 0.0993-0.0138 0.0152-0.0053 0.0313-0.0082 0.0475-0.0085h0.0538c0.0772-6e-4 0.1532-0.0195 0.2217-0.055 0.0333-0.022 0.0721-0.0341 0.112-0.0349 0.0462-0.0017 0.0903-0.0197 0.1246-0.0508l0.0295-0.0096 0.019-0.0063c0.0289-0.0012 0.0574-7e-3 0.0845-0.0169l0.0581 0.0243c0.0083 0.0037 0.0173 0.0056 0.0264 0.0056 9e-3 0 0.018-0.0019 0.0264-0.0056l0.0264-0.0106 0.0095-0.0053h0.0126c0.0183 2e-3 0.0367 2e-3 0.0549 0 0.0079-0.0033 0.016-0.0057 0.0243-0.0074 0.021-0.0035 0.0409-0.0118 0.0581-0.0243 0.0051-0.0043 0.0092-0.0097 0.0121-0.0157 3e-3 -6e-3 0.0046-0.0126 0.0048-0.0193v-0.0232c0.0156 0.0238 0.0361 0.044 0.0602 0.0592 0.0119 0.0092 0.0266 0.0142 0.0417 0.0142 0.015 0 0.0297-5e-3 0.0417-0.0142 0.0101-0.0087 0.0182-0.0196 0.0235-0.0319s0.0077-0.0256 0.0071-0.039h0.0158l0.0148-0.0063h0.0127c0.0153 1e-4 0.0303-0.0052 0.0422-0.0148 0.0074-0.0044 0.0157-0.0069 0.0243-0.0075 0.0118-8e-4 0.0233-0.0041 0.0337-0.0098 0.0103-0.0056 0.0194-0.0135 0.0265-0.023l0.0137-0.0095c0.0104 0.0057 0.022 0.0086 0.0338 0.0085h0.0127c0.0151 0 0.0299-0.0048 0.0422-0.0138 0.0306-0.0264 0.0306-0.0667 0.0306-0.1143-0.0011-0.0091-0.0011-0.0184 0-0.0275l0.0233 0.0138c0.0184 0.0273 0.0421 0.0507 0.0696 0.0688 0.012 0.0091 0.0267 0.0141 0.0417 0.0141 0.0151 0 0.0298-5e-3 0.0418-0.0141 0.0113-0.0099 0.02-0.0224 0.0253-0.0364 0.0054-0.014 0.0072-0.0292 0.0053-0.0441-1e-4 -0.0078-0.0023-0.0155-0.0064-0.0222l-0.0105-0.018h0.0105l0.0412 0.0169c0.0109 0.0051 0.0231 7e-3 0.035 0.0055 0.012-0.0015 0.0232-0.0063 0.0326-0.0139 0.0108-0.0102 0.0192-0.0228 0.0245-0.0367s0.0074-0.0289 0.0061-0.0438v-0.0222c5e-4 -0.0039 5e-4 -0.0078 0-0.0116l-0.0116-0.035v-0.0158c0.029 0.0019 0.0576-0.0072 0.0802-0.0254 0.0076-0.0058 0.013-0.0139 0.0155-0.0231 0.0024-0.0092 0.0018-0.0189-0.0017-0.0277l-0.0148-0.036c-0.0016-0.0033-0.0033-0.0065-0.0053-0.0095h0.0053c0.0207 9e-4 0.0409-0.0059 0.0568-0.0193 0.0158-0.0133 0.0261-0.0321 0.0287-0.0527v-0.0117c5e-4 -0.0038 5e-4 -0.0077 0-0.0116zm-3.6152-5.3807c5e-4 0.0035 5e-4 0.0071 0 0.0106-0.0095 0.0399-0.0141 0.0807-0.0137 0.1217 0.0062 0.053-0.0029 0.1067-0.0264 0.1545-0.0025 0.0076-0.0043 0.0154-0.0053 0.0233 0 0.0156-0.0042 0.0325-0.0127 0.0508 0.0047 0.0474-0.0072 0.095-0.0338 0.1344-0.0049 0.018-0.0116 0.0353-0.02 0.0519-0.0017 0.0073-0.0017 0.0149 0 0.0222-1e-4 0.0109-0.0022 0.0217-0.0064 0.0318-0.0266 0.0802-0.0775 0.1501-0.1457 0.2l-0.0063 0.0064c-0.0211 0.0243-0.0422 0.0486-0.0697 0.0751l-0.038 0.0571c-0.074 0.0945-0.1579 0.1807-0.2502 0.2572-0.0628 0.0479-0.1317 0.0871-0.2049 0.1164-0.0306 0.0138-0.058 0.0265-0.0802 0.0381-0.0305 0.026-0.0667 0.0445-0.1056 0.054l-0.076 0.0349c-0.0133 6e-3 -0.0277 0.0089-0.0422 0.0085-0.0326 6e-4 -0.064-0.0116-0.0877-0.0339-0.0237-0.0224-0.0377-0.0531-0.0391-0.0857v-0.3916c-0.0096-0.0143-0.0144-0.0314-0.0137-0.0487v-0.5196c2e-3 -0.0442-1e-4 -0.0885-0.0063-0.1323-0.0208-0.0461-0.0288-0.0969-0.0232-0.1471v-0.2265c0.0033-0.0478 1e-4 -0.0959-0.0095-0.1429-0.0176-0.0575-0.0244-0.1178-0.0201-0.1778 0-0.0328 0-0.0645 0.0053-0.0973 0.01-0.0791 0.01-0.1591 0-0.2382-0.0175-0.0395-0.0247-0.0828-0.0211-0.1259v-0.073c-0.0187-0.0553-0.0283-0.1132-0.0285-0.1715v-0.1693c-5e-4 -0.0025-5e-4 -5e-3 0-0.0074 1e-4 -0.0123 0.0028-0.0243 0.0079-0.0354 0.0051-0.0112 0.0125-0.0211 0.0216-0.0292 0.0147-0.0151 0.0328-0.0264 0.0528-0.0328 0.0099-0.0072 0.021-0.0125 0.0327-0.0159 0.0167-0.0108 0.0361-0.0167 0.056-0.0169h0.0433c0.0599 8e-4 0.1195-0.0067 0.1774-0.0222 0.0094-0.0017 0.019-0.0017 0.0285 0h0.0443c0.048-0.0039 0.0962 0.0026 0.1415 0.019l0.0465 0.0117h0.0126l0.0264 0.0063c0.0157-0.0081 0.0331-0.0124 0.0507-0.0127 8e-3 0.0015 0.0163 0.0015 0.0243 0 0.0278-0.0172 0.0602-0.0257 0.0929-0.0243 0.0511 0.0056 0.1005 0.0222 0.1447 0.0486 0.0096 0.0043 0.0184 0.01 0.0264 0.017l0.058 0.0529c0.0079 0.0071 0.0147 0.0153 0.0201 0.0243 0.0073 0.0151 0.0158 0.0297 0.0253 0.0434 0.0786 0.0732 0.1299 0.171 0.1457 0.2773 0.0207 0.0754 0.0359 0.1521 0.0454 0.2297v0.0402c-4e-4 0.0212 0.0029 0.0423 0.0095 0.0624 0.015 0.0443 0.0218 0.0909 0.0201 0.1376v0.2117c0 0.0201 0.0084 0.0455 0.0127 0.0688 0.0089 0.0443 0.0145 0.0892 0.0169 0.1344z" fill="#9741ff"/>
  <path d="m24.17 12.825c0-0.0423-0.0359-0.0635-0.0972-0.0635-0.0129 7e-4 -0.0254 0.0051-0.0359 0.0127h-0.0211c-0.0127-0.0593-0.0369-0.1683-0.0749-0.3069-0.0024-0.0098-0.0075-0.0186-0.0145-0.0257-0.0071-0.0071-0.016-0.0121-0.0257-0.0145-8e-3 -0.0016-0.0162-0.0016-0.0243 0v-0.0445c0-0.0088-0.0022-0.0175-0.0063-0.0254-0.0054-0.0221-0.0076-0.045-0.0063-0.0677-8e-4 -0.0221-0.01-0.0431-0.0257-0.0586-0.0157-0.0156-0.0367-0.0245-0.0588-0.025-0.0179-6e-4 -0.0358 0.0034-0.0517 0.0116-0.0015-0.0079-0.0051-0.0153-0.0106-0.0212-1e-4 -0.0126-0.0043-0.0249-0.0119-0.035s-0.0182-0.0174-0.0303-0.0211l-0.0148-0.0148c-0.0088-0.0131-0.0208-0.0237-0.0348-0.0307-0.0141-0.0071-0.0297-0.0103-0.0454-0.0095h-0.0138c-0.0104 1e-4 -0.0207 0.0024-0.0301 0.0068-0.0095 0.0044-0.0179 0.0107-0.0248 0.0186-0.0031 0.0031-0.0066 0.0056-0.0105 0.0074-0.0056 0.0026-0.0106 0.0062-0.0148 0.0106-0.0113-0.0037-0.0234-0.0044-0.0351-0.0019-0.0117 0.0024-0.0225 0.0078-0.0314 0.0157l-0.0307 0.0296-0.0675 0.0233c-0.0069 0.0025-0.0133 6e-3 -0.019 0.0106l-0.0148-0.0286c-0.0129-0.0359-0.0365-0.0669-0.0676-0.0889-0.0071-0.0075-0.0163-0.0127-0.0264-0.0148-0.063-0.0164-0.1291-0.0164-0.1922 0l-0.0918 0.0307-0.0507-0.0276c-0.0183-0.0079-0.0356-0.0178-0.0517-0.0296-0.0078-0.0073-0.0173-0.0125-0.0277-0.0149s-0.0213-2e-3 -0.0315 0.0012c-0.0319 0.0112-0.0611 0.0293-0.0855 0.0529-0.0426-0.0132-0.0883-0.0132-0.1309 0h-0.0085c-8e-3 -0.0108-0.0196-0.0183-0.0327-0.0212h-0.0454c-0.0164-8e-3 -0.0345-0.0121-0.0528-0.0121s-0.0363 0.0041-0.0528 0.0121c-0.0098 0.0035-0.0193 0.0077-0.0285 0.0127-0.0178 0.0028-0.0343 0.0109-0.0475 0.0233l-0.0454-0.0138c-0.0157-0.0069-0.0325-0.0108-0.0496-0.0116-0.0131 0-0.0259 0.0045-0.0361 0.0128-0.0102 0.0082-0.0172 0.0198-0.0199 0.0327l-0.0116 0.0116c-0.0101 0.0109-0.0193 0.0226-0.0274 0.035l-0.0095 0.0158h-0.0159l-0.0391 0.0127c-0.0129 0.0057-0.027 0.0083-0.0411 0.0074-0.01 3e-4 -0.0198 0.0031-0.0284 8e-3 -0.0087 5e-3 -0.016 0.0121-0.0213 0.0206-0.0489 0.0872-0.1133 0.1646-0.19 0.2286l-0.0539 0.054c-0.0044 0.0042-8e-3 0.0092-0.0105 0.0148-0.0082 0.0182-0.0181 0.0356-0.0296 0.0519-0.0041 0.0045-0.0076 0.0094-0.0105 0.0148l-0.0138 0.0307c-0.0098 0.0243-0.0218 0.0477-0.0359 0.0698-0.028 0.0394-0.0517 0.0816-0.0707 0.126-0.0204 0.0285-0.0434 0.055-0.0686 0.0794l-0.0138 0.0137c-0.0063 0.0062-0.011 0.0138-0.0137 0.0222-0.0097 0.0237-0.0218 0.0464-0.0359 0.0678-0.0169 0.0285-0.0348 0.0603-0.0507 0.0921-0.0452 0.0621-0.0831 0.1292-0.1129 0.2-0.0011 0.0049-0.0011 0.0099 0 0.0148-0.0134 0.0109-0.0224 0.0263-0.0254 0.0434l-0.0127 0.0127c-0.0136 0.0153-0.0256 0.032-0.0359 0.0497-0.0063 0.0117-0.0147 0.0244-0.0242 0.0392l-0.0264 0.0413c-0.0055 0.0106-0.0123 0.0206-0.0201 0.0296-0.0093 0.0124-0.0135 0.028-0.0116 0.0434-0.0094 0.0042-0.0173 0.0111-0.0229 0.0197-0.0057 0.0086-0.0087 0.0187-0.0088 0.029-0.0019 6e-3 -0.0048 0.0117-0.0084 0.0169-0.0033 0.0051-0.0061 0.0104-0.0085 0.0159-0.0148 0.0132-0.026 0.0299-0.0327 0.0487-0.0045 0.0046-0.0081 0.0099-0.0106 0.0158-0.0264 0.053-0.0665 0.1323-0.1172 0.2212-0.0506 0.0889-0.1056 0.1747-0.1277 0.2286l-0.0095 0.0053c-0.0014-3e-3 -0.0032-0.0059-0.0053-0.0084l-0.0232-0.0466c-0.0029-6e-3 -0.0065-0.0117-0.0106-0.0169-0.0051-0.015-0.0138-0.0284-0.0253-0.0392l-0.0085-0.0137v-0.0085c-0.0061-0.0202-0.0197-0.0372-0.038-0.0476-0.0033-0.0054-0.0072-0.0104-0.0116-0.0149-0.0201-0.0325-0.0446-0.0621-0.0729-0.0878l-0.152-0.1312c-0.1136-0.1617-0.2392-0.3146-0.3759-0.4572l-0.0148-0.0138c-0.0136-9e-3 -0.0236-0.0225-0.0285-0.0381-0.0276-0.0506-0.0632-0.0964-0.1056-0.1355-0.0293-0.0269-0.0521-0.0602-0.0665-0.0973-0.0024-0.0086-0.0072-0.0163-0.0137-0.0223l-0.0401-0.0402c-0.0108-0.0102-0.0225-0.0194-0.0349-0.0275h-0.0074c-0.0072-0.0206-0.0183-0.0397-0.0327-0.0561-0.04-0.0619-0.0727-0.1283-0.0971-0.1979-0.0033-0.0084-0.0084-0.016-0.0148-0.0222l-0.0792-0.0794c-0.0053-0.0051-0.0116-0.0089-0.0186-0.0113-0.0069-0.0024-0.0142-0.0032-0.0215-0.0025-0.0107-0.0106-0.0251-0.0167-0.0401-0.0169h-0.0296c-0.0565-0.0586-0.1074-0.1224-0.152-0.1905l-0.1246-0.1662c-0.0177-0.016-0.0315-0.0359-0.0402-0.0582-0.0131-0.0402-0.0359-0.0766-0.0665-0.1058-0.0042-0.0045-0.0092-8e-3 -0.0148-0.0106l-0.0274-0.0138c-0.0107-0.0051-0.0227-0.0068-0.0344-0.0049-0.0117 0.0018-0.0225 0.0073-0.0311 0.0155l-0.0053 0.0064c-0.0037-0.0057-0.0069-0.0117-0.0095-0.018-0.0048-0.0154-0.0131-0.0296-0.0242-0.0413-0.037-0.037-0.0919-0.0169-0.2112 0.0582l-0.0116 0.0085-0.0127 0.0138c-0.0106 0.0107-0.0167 0.0251-0.0169 0.0402-0.0193-0.017-0.041-0.0309-0.0644-0.0413-0.0077-0.0043-0.0165-0.0065-0.0253-0.0064-0.0201 0.0012-0.0402 0.0012-0.0602 0-0.0238-0.0185-0.0515-0.0312-0.081-0.0371-0.0295-0.0058-0.06-0.0047-0.089 0.0033h-0.0085l-0.1203 0.0603h-0.019c-0.0825-0.0305-0.1731-0.0305-0.2555 0-0.0237 0.0109-0.0497 0.0157-0.0757 0.0141-0.026-0.0017-0.0511-0.0098-0.0732-0.0236-0.0092-0.0078-0.0208-0.012-0.0328-0.012-0.0119 0-0.0235 0.0042-0.0327 0.012h-0.0105c-0.0176 0.0067-0.0345 0.0148-0.0507 0.0243-0.027 0.0016-0.0534 0.0092-0.0771 0.0222l-0.0116-0.0063c-0.0054-0.0054-0.0119-0.0097-0.0189-0.0126-0.0071-0.0029-0.0147-0.0044-0.0223-0.0043-0.0151 2e-4 -0.0294 0.0062-0.0401 0.0169l-0.0116 0.0106c-0.0083 2e-3 -0.0161 0.0058-0.0229 0.0111-0.0067 0.0053-0.0122 0.012-0.0162 0.0196-0.0133 0.0242-0.0199 0.0517-0.019 0.0793l-0.0074 0.018h-0.0095c-0.0179 0.0067-0.0352 0.0148-0.0517 0.0244-0.0334 0.0041-0.0645 0.0189-0.0887 0.0423-0.0055 0.0052-0.0098 0.0114-0.0127 0.0183-0.0029 7e-3 -0.0043 0.0144-0.0042 0.0219-9e-3 0.0514-0.0325 0.0991-0.0676 0.1376-0.0042 0.0054-0.0074 0.0115-0.0095 0.018-0.0329 0.0872-0.0521 0.1789-0.057 0.272 3e-4 0.014 0.0056 0.0275 0.0148 0.0381-6e-4 0.0046-6e-4 0.0092 0 0.0138l0.0528 0.0942c0.0052 0.0081 0.0078 0.0178 0.0074 0.0275-0.0011 0.0059-0.0011 0.012 0 0.018 0 0.0116-0.0148 0.0317-0.0233 0.0497-0.0057 0.0108-0.0077 0.0231-0.0058 0.0351s0.0076 0.0231 0.0164 0.0316c0.0133 0.0196 0.0229 0.0415 0.0285 0.0645 0.0101 0.0214 0.0217 0.0419 0.0348 0.0614v0.0868c-2e-4 0.0077 0.0011 0.0154 4e-3 0.0225s0.0073 0.0135 0.0129 0.0188c0.012 0.0106 0.0217 0.0236 0.0285 0.0381 0.012 0.0233 0.0273 0.0447 0.0454 0.0635 0.0898 0.1545 0.1827 0.3175 0.264 0.4889l0.2017 0.3239 0.0211 0.0286c0.0354 0.0443 0.0662 0.0922 0.0918 0.1429 0.0122 0.0362 0.0355 0.0677 0.0666 0.0899 0.0044 0.0041 0.0094 0.0077 0.0147 0.0106 0.0247 0.0142 0.0448 0.0351 0.0581 0.0603l0.0243 0.0381c0.0109 0.0203 0.0248 0.0388 0.0412 0.0551 0.061 0.0488 0.1104 0.1106 0.1446 0.1809-3e-4 0.0032-3e-4 0.0064 0 0.0096 0.0233 0.0307 0.0528 0.0783 0.0929 0.1439 0.0254 0.0413 0.0549 0.09 0.0908 0.146 0.0663 0.1023 0.1266 0.2083 0.1806 0.3176 0.0175 0.0484 0.0452 0.0924 0.0813 0.1291 0.0109 0.0164 0.0205 0.0338 0.0285 0.0518l0.0275 0.053c0 0.0084 0.0052 0.0169 0.0074 0.0243 0.0046 0.0192 0.0133 0.0372 0.0253 0.0529l0.0179 0.0265c0.0254 0.037 0.0571 0.0825 0.0951 0.1503 0.0485 0.0963 0.0591 0.1238 0.0623 0.1312-1e-3 0.0052-1e-3 0.0106 0 0.0159-0.0834 0.1471-0.151 0.2709-0.151 0.272-0.0714 0.14-0.1504 0.276-0.2365 0.4074-0.1985 0.2921-0.301 0.4646-0.3347 0.5239-0.0138 0.0222-0.0285 0.0498-0.0465 0.0815-0.0348 0.0635-0.0781 0.1418-0.1404 0.2402-0.0346 0.0661-0.0787 0.1268-0.1309 0.18-0.0261 0.0199-0.0462 0.0466-0.0581 0.0772-0.0607 0.098-0.1284 0.1914-0.2027 0.2794-0.0251 0.0235-0.0465 0.0506-0.0634 0.0805-0.0063 0.011-0.0134 0.0216-0.0211 0.0317-0.0101 0.0127-0.0193 0.0262-0.0275 0.0402l-0.0601 0.0604c-0.0287 0.032-0.0531 0.0676-0.0729 0.1058l-0.0264 0.0455c-0.0113 0.014-0.0216 0.0289-0.0306 0.0445l-0.0211 0.0338c-0.0304 0.0306-0.0551 0.0665-0.0729 0.1059-0.0041 0.0078-0.0062 0.0165-0.0063 0.0254 3e-4 0.0212-0.0033 0.0424-0.0106 0.0624-1e-3 6e-3 -1e-3 0.012 0 0.018 2e-3 0.0274-5e-4 0.0549-0.0074 0.0815-6e-4 0.0038-6e-4 0.0078 0 0.0116 0 0.0212-0.0126 0.0434-0.02 0.0678-0.0138 0.0409-0.0251 0.0826-0.0338 0.1248-9e-3 0.0582-0.0239 0.1153-0.0444 0.1704l-0.0074 0.0202c-0.0052 0.0139-0.0052 0.0294 0 0.0433 0.0549 0.1059 0.0951 0.1905 0.1236 0.2339 0.0058 8e-3 0.0134 0.0146 0.0222 0.0191l0.0802 0.0402 0.0137 0.0053 0.0116 0.0106c0.0096 0.0125 0.0217 0.0228 0.0355 0.0302 0.0139 0.0075 0.0291 0.012 0.0448 0.0132h0.0559v0.0074c0.0012 0.0055 0.0037 0.0106 0.0074 0.0148v0.0529c2e-4 0.0091 0.0019 0.0181 0.0053 0.0265 0.0057 0.013 0.0082 0.0271 0.0074 0.0413 1e-4 0.0088 0.0023 0.0175 0.0063 0.0254l0.0138 0.0264c0.0047 0.0094 0.012 0.0173 0.0209 0.0229s0.0192 0.0087 0.0297 0.0089h0.1384c0.0067 0.0054 0.0147 9e-3 0.0232 0.0105 0.0036 0.0042 0.0075 0.0081 0.0116 0.0117 0.0359 0.037 0.0655 0.0645 0.1056 0.055 0.0613-0.0177 0.1254-0.0238 0.189-0.018l0.0137 0.0117c5e-3 0.0101 0.0121 0.0191 0.0208 0.0263 0.0088 0.0071 0.019 0.0123 0.0299 0.0151 0.011 0.0028 0.0224 0.0032 0.0335 0.0012 0.0111-0.0021 0.0217-0.0065 0.0309-0.013l0.0116-0.0127c0.0123 0.0067 0.0262 0.01 0.0401 0.0095l0.0877 0.0297h0.0454c0.0149 1e-4 0.0293-0.0056 0.0401-0.0159l0.0148-0.0117c0.0186-0.0123 0.0359-0.0265 0.0517-0.0423 0.0169-0.0159 0.0296-0.0233 0.0264-0.0233h0.038c0.0245 0.0194 0.0474 0.0406 0.0686 0.0635 0.0087 0.0084 0.0198 0.0139 0.0317 0.0157 0.0118 0.0019 0.024 1e-4 0.0349-0.0051 0.0425-0.0239 0.087-0.0441 0.133-0.0603 0.0076 0 0.0152-0.0015 0.0223-0.0044 7e-3 -0.0029 0.0135-0.0071 0.0189-0.0125 0.0024-0.0033 0.0057-0.0059 0.0095-0.0075 0.0194-0.0143 0.0361-0.0318 0.0496-0.0518l0.0137-0.0138c0.0079 0.0095 0.0153 0.0194 0.0222 0.0297 0.0074 0.0104 0.0155 0.0203 0.0243 0.0296 0.0081 0.0078 0.0183 0.0132 0.0293 0.0154 0.011 0.0023 0.0225 0.0013 0.033-0.0027 0.019 0 0.0612 0.0212 0.076 0.0265 0.0105 0.0043 0.022 0.0054 0.0331 0.0031 0.0111-0.0022 0.0213-0.0078 0.0292-0.0158 0.0162-0.0165 0.0338-0.0314 0.0528-0.0445l0.0148-0.0106c0.083-0.0368 0.1532-0.0976 0.2016-0.1746l0.0233-0.0233c0.014-0.0127 0.0258-0.0278 0.0348-0.0444l0.0169-0.0096c0.0051 0.0052 0.0112 0.0092 0.0179 0.012 0.0067 0.0027 0.0139 4e-3 0.0212 0.0039 0.0141-4e-4 0.0278-0.0047 0.0397-0.0123 0.0119-0.0077 0.0216-0.0184 0.0279-0.0311 3e-3 -0.0031 0.0055-0.0066 0.0073-0.0106h0.0592c0.0089 2e-4 0.0177-0.0018 0.0256-0.0059 0.0079-4e-3 0.0147-0.01 0.0198-0.0174 0.0078-0.0041 0.0149-0.0095 0.0211-0.0158 0.0088-4e-4 0.0174-0.0025 0.0253-0.0064 0.0823-0.0455 0.1525-0.1101 0.2049-0.1884 0.0327-0.0328 0.0718-0.0793 0.1203-0.1386l0.0359-0.0445c0.0553-0.0548 0.1058-0.1143 0.151-0.1778l0.0222-0.0232c0.0157-0.0097 0.028-0.0242 0.0348-0.0413 0.099-0.1102 0.1867-0.23 0.2619-0.3577 0.0428-0.0747 0.0919-0.1455 0.1467-0.2117v0.0095l0.0127 0.0265c0.0069 0.0422 0.0251 0.0817 0.0528 0.1143 0.0591 0.0579 0.1061 0.1269 0.1383 0.2032l0.1183 0.1968c0.013 0.0236 0.0286 0.0456 0.0464 0.0656l0.0433 0.0561c0.0259 0.0283 0.0492 0.0587 0.0697 0.0911 0 0.0179 0.0116 0.0338 0.018 0.0497 0.0063 0.0159 0.0126 0.0317 0.019 0.0497 0.0039 0.0101 0.0097 0.0195 0.0169 0.0276 0.0075 0.0122 0.0172 0.0229 0.0285 0.0317 4e-4 0.0039 4e-4 0.0078 0 0.0117 0.0018 0.0095 0.0058 0.0186 0.0116 0.0264 0.0614 0.0824 0.1175 0.1686 0.1679 0.2582 0.0469 0.0945 0.109 0.1807 0.1837 0.2551 0.049 0.051 0.1016 0.0984 0.1573 0.1418 0.0387 0.024 0.0742 0.0528 0.1056 0.0858 0.0065 0.0059 0.014 0.0105 0.0222 0.0137 0.0594 0.0169 0.1197 0.0307 0.1805 0.0413h0.0254l0.0316-0.0085c0.0285-0.0091 0.0579-0.0148 0.0877-0.0169 0.0611-4e-4 0.1213-0.0145 0.1763-0.0413 0.0251-0.0075 0.0475-0.0222 0.0644-0.0423 0.0119-0.0031 0.0226-0.0097 0.0306-0.0191 0.0116-0.0356 0.0342-0.0667 0.0644-0.0889h0.0127c0.0231 0.0227 0.0504 0.0406 0.0802 0.0529 0.0113 0.0065 0.024 0.01 0.037 0.01s0.0257-0.0035 0.0369-0.01c0.0131-0.0071 0.0249-0.0164 0.0349-0.0275 8e-3 -0.0084 0.0131-0.0191 0.0148-0.0307 0-0.0074 0-0.1682 0.0602-0.1111 0 0 0.0369 0.055 0.0506 0.0688 0.0045 0.0041 0.0095 0.0077 0.0148 0.0106l0.0264 0.0127c0.0067 0.0034 0.0141 0.0055 0.0216 0.0061s0.0151-3e-4 0.0222-0.0027c0.0072-0.0023 0.0138-0.0061 0.0196-0.0111 0.0057-0.0049 0.0103-0.0109 0.0137-0.0177l0.0127-0.0265c0.0069-0.0353 0.0044-0.0718-0.0074-0.1058l0.019 0.0148c0.0123 0.0057 0.0258 8e-3 0.0393 0.0065 0.0135-0.0014 0.0263-0.0064 0.0371-0.0146 0.0108-0.0081 0.0193-0.019 0.0244-0.0316 0.0051-0.0125 0.0068-0.0263 0.0048-0.0397 0-0.0148-0.018-0.0614-0.0222-0.0751-0.0117-0.0315-0.0285-0.0608-0.0496-0.0868 0.0096 0.0026 0.0198 0.0026 0.0295 0 0.0269-0.0067 0.0506-0.0225 0.0674-0.0446 0.0167-0.0222 0.0253-0.0494 0.0245-0.0771-0.0019-0.0122-0.0059-0.024-0.0116-0.0349-0.0064-0.0159-0.037-0.1059-0.0549-0.1471v-0.0212c0-0.0815 0.0348-0.0688 0.0602-0.0561l0.0063 0.0063c0.0297 0.0379 0.0728 0.0629 0.1204 0.0699 0.0151 0 0.0296-6e-3 0.0403-0.0167 0.0107-0.0108 0.0167-0.0253 0.0167-0.0405l0.0232-0.127c0.0095-0.0359 0.0201-0.0539 0.0486-0.0592 0 0 0.0274-0.0074 0.0338 0l0.0295 0.0402c0.0048 0.0071 0.011 0.013 0.0183 0.0174s0.0155 0.0071 0.024 8e-3 0.0171-1e-4 0.0251-0.0031c0.0081-0.0029 0.0154-0.0076 0.0213-0.0138l0.019-0.0201c0.01 0.0067 0.0217 0.0104 0.0338 0.0105 0.0153 0.0017 0.0308 1e-4 0.0454-0.0049 0.0146-0.0049 0.0279-0.013 0.0391-0.0236 0.0103-0.0104 0.0179-0.0231 0.0221-0.0371 0.0138 0.0191 0.0328 0.0476 0.0454 0.0667 0.0019 0.0033 0.0044 0.0062 0.0074 0.0085 0.0203 0.0215 0.0364 0.0466 0.0475 0.074l0.0085 0.018c0.0023 0.0058 0.0059 0.0108 0.0106 0.0149l0.0401 0.0402c0.0062 0.0065 0.0129 0.0125 0.02 0.018 0.0091 5e-3 0.0167 0.0123 0.0222 0.0211 0.0029 0.0054 0.0065 0.0104 0.0106 0.0148 0.0275 0.0307 0.0648 0.0509 0.1056 0.0572 0.1055 0 0.1055-0.0751 0.1055-0.0974v-0.0539c-2e-4 -0.0151-0.0062-0.0296-0.0169-0.0403-0.0069-0.0064-0.0124-0.0144-0.0158-0.0232-0.0091-0.0306-0.023-0.0596-0.0412-0.0858-0.0062-0.0073-0.0118-0.0151-0.0169-0.0233l-0.0221-0.0328c-6e-4 -0.0045-6e-4 -0.0092 0-0.0137-0.0057-0.0225-0.0161-0.0434-0.0307-0.0614l-0.0211-0.0296c-0.0033-0.0073-0.0061-0.0147-0.0084-0.0223-0.0057-0.0221-0.0161-0.0427-0.0306-0.0603-0.0106-0.0159-0.0254-0.036-0.0402-0.0603l-0.0063-0.0127c-0.0317-0.0593-0.0707-0.1365-0.1214-0.2371-0.018-0.0339-0.037-0.0709-0.0581-0.1132 5e-4 -0.0028 5e-4 -0.0057 0-0.0085l-0.0443-0.0603c-0.0212-0.0413-0.0444-0.0858-0.0708-0.1387-0.0014-3e-3 -0.0031-0.0059-0.0053-0.0084l-0.0781-0.1059c-0.0633-0.127-0.1415-0.273-0.2354-0.4424h-0.0053c-0.0359-0.0666-0.0729-0.1354-0.1151-0.2116l-0.0201-0.035c-0.0415-0.0684-0.0792-0.139-0.113-0.2116l-0.039-0.0889c-0.0454-0.0985-0.0644-0.1429-0.0792-0.1651-0.0265-0.0854-0.0619-0.1677-0.1056-0.2456-0.0095-0.0235-0.0204-0.0465-0.0327-0.0688-0.0529-0.1171-0.1121-0.2312-0.1774-0.3418 0.0401-0.0667 0.0992-0.1609 0.1774-0.2847 0.0475-0.0741 0.0876-0.1418 0.1235-0.2011s0.056-0.0942 0.0803-0.1312c0.0118-0.0087 0.0216-0.0199 0.0285-0.0328 0.0106-0.0107 0.0166-0.0252 0.0169-0.0403v-0.0222c0.0063-0.0137 0.0158-0.0307 0.0264-0.0487 0.0105-0.018 0.0316-0.0582 0.0464-0.0931 0.0395-0.0484 0.0712-0.1027 0.094-0.1609 0.011-0.0153 0.0212-0.0312 0.0306-0.0476 0.0137-0.0243 0.0338-0.0571 0.0634-0.1058 0.0331-0.0632 0.06-0.1295 0.0802-0.1979 0.0505-0.0608 0.0908-0.1295 0.1193-0.2032l0.0919-0.1842c0.0315-0.0596 0.0698-0.1153 0.114-0.1662 0.0664-0.0704 0.1159-0.1551 0.1447-0.2476 0.0194-0.0571 0.046-0.1115 0.0791-0.1619 0.0062-0.0064 0.0109-0.0139 0.0138-0.0223 0.0033-0.0145 0.0102-0.028 0.02-0.0391l0.0592-0.0424c0.0145-0.0085 0.028-0.0188 0.0401-0.0306l0.02-0.0212 0.0095-0.0095c0.0121-0.0054 0.0223-0.0142 0.0294-0.0253s0.0109-0.024 0.0108-0.0372c-3e-4 -0.0113-0.0027-0.0224-0.0072-0.0328-0.0046-0.0103-0.0111-0.0197-0.0192-0.0275 0.0254-0.0414 0.0393-0.089 0.0401-0.1376-5e-4 -0.0097 0.0021-0.0193 0.0074-0.0275 0.0042-0.0078 0.0064-0.0165 0.0063-0.0254v-0.0572l0.0232-0.0719c0.0011-6e-3 0.0011-0.0121 0-0.018v-0.0402c2e-4 -0.0156-0.0054-0.0307-0.0158-0.0424-0.0034-0.0079-0.0073-0.0157-0.0116-0.0233 6e-4 -0.0059 6e-4 -0.012 0-0.0179l0.0137-0.0286c0.0236-0.0754 0.0239-0.1562 0.0011-0.2318z" fill="#9741ff"/>
 </g>
</svg>
