<svg width="800" height="95.205" version="1.1" viewBox="0 0 211.67 25.19" xmlns="http://www.w3.org/2000/svg">
 <g transform="translate(-.00060409 -136.24)">
  <g transform="matrix(.043355 0 0 .043355 .00027156 137.68)" fill="#005587" stroke-width="7.3383">
   <path d="m454.24 386.34c-38.893 57.239-104.2 91.729-173.18 92.463-99.801 0-187.86-73.383-209.14-173.92l-0.73383-3.6692h488c1.4677-13.943 2.2015-27.886 2.2015-41.095v-2.2015c0-159.24-125.49-289.13-281.06-289.13s-280.32 129.15-280.32 288.4c0 159.24 125.49 289.13 281.06 289.13 105.67 0 201.07-60.174 249.5-157.04l7.3383-13.943h-76.318c-2.2015 3.6692-5.1368 7.3383-7.3383 11.007zm-386.73-157.04c13.943-110.07 105.67-193 212.08-193s198.87 82.923 212.08 193l0.73383 3.6692h-425.62v-3.6692z"/>
   <path d="m875.46 547.05c-30.087 0-60.174-5.8706-88.794-16.878-27.152-10.274-51.368-26.418-71.916-46.965-21.281-20.547-37.425-45.498-47.699-72.649-11.007-30.087-16.878-61.642-16.144-93.93v-336.83h64.577v330.96c-0.73383 24.216 2.9353 49.167 11.741 71.916 15.41 40.361 46.231 72.649 85.858 89.527 40.361 16.144 85.124 16.144 124.75 0 19.08-8.0721 36.692-19.813 51.368-35.224 15.41-15.41 27.152-34.49 35.224-54.304 8.806-22.749 13.943-47.699 13.943-71.916v-330.96h64.577v336.83c0 32.289-6.6045 63.843-19.08 93.93-22.749 54.304-66.045 97.6-121.08 120.35-27.152 10.274-57.239 16.144-87.326 16.144z"/>
   <path d="m1195.4 531.64v-318.48c0-23.483 2.9353-46.231 8.0721-68.98 6.6045-29.353 19.814-56.505 37.425-80.721 22.015-29.353 51.368-52.836 85.124-67.512 40.361-18.346 90.261-27.886 148.23-27.886h11.008v68.98h-11.008c-36.692-0.73384-72.649 5.1368-107.14 16.878-24.216 8.0722-46.231 22.749-63.11 41.095-13.943 16.144-24.95 35.224-30.821 55.771-5.8706 19.813-8.806 41.095-8.806 61.642v319.22z"/>
   <path d="m2528.8 531.64v-290.6c0.7338-21.281-2.2015-42.562-9.5398-62.376-6.6045-16.878-16.144-32.289-29.353-45.498-11.741-12.475-25.684-22.015-41.094-28.619-33.022-13.943-70.448-13.943-103.47 0-16.144 6.6045-30.087 16.144-41.828 28.619-12.475 13.209-22.749 28.619-29.353 45.498-8.0721 19.813-11.741 40.361-12.475 61.642v290.6h-128.42v-296.47c0-36.692 7.3383-73.383 21.281-107.87 12.475-31.555 31.555-60.908 55.771-85.124 24.216-23.483 52.102-42.562 83.657-55.037 65.311-25.684 137.96-26.418 203.27-0.73384 31.555 12.475 60.174 31.555 83.657 55.037 24.216 24.216 43.296 53.57 55.771 85.124 13.209 34.49 19.08 71.182 18.346 107.87v295.73h-126.22z"/>
   <path d="m2999.9 546.31c-154.84 0-281.06-129.15-281.06-288.4 0-159.24 125.49-289.13 281.06-289.13 154.84 0 280.32 129.15 280.32 289.13 0 14.677-1.4677 30.087-2.9354 44.03l-0.7338 4.403h-438.1l2.2015 5.8707c26.418 88.06 118.15 137.96 206.21 111.54 22.015-6.6045 43.296-17.612 60.908-33.022 0 0 8.0722-7.3383 9.5398-8.0722h136.49l-3.6691 8.0722c-46.965 94.664-143.83 154.84-250.24 155.57zm0-461.58c-73.383 0.73383-137.96 48.433-159.24 118.88l-2.2015 5.8706h322.89l-2.2015-5.8706c-21.281-71.182-85.858-118.88-159.24-118.88z"/>
   <path d="m3324.3-17.268v-3.6692h138.69c16.878 132.82 60.174 344.17 98.334 440.3 40.361-95.398 86.592-306.74 103.47-440.3h115.95c17.612 132.82 63.11 335.36 104.2 440.3 38.159-104.2 80.722-306.74 98.333-440.3h137.96v3.6692c-32.289 207.67-92.463 421.95-143.83 548.91h-173.18c-35.958-87.326-63.11-178.32-81.455-271.52-16.878 95.398-54.304 207.67-80.722 271.52h-172.45c-60.908-138.69-126.95-372.05-145.3-548.91z"/>
   <path d="m4179.2 507.42v-104.94h5.8706c48.433 13.209 97.6 21.281 147.5 22.749h28.619c44.764 0 79.254-13.943 79.254-59.44 0-34.49-30.087-47.699-62.376-56.505l-85.124-22.749c-62.376-16.144-113.74-59.44-113.74-153.37 0-110.81 90.995-156.31 201.8-156.31h28.619c34.49 0 102.74 8.806 133.56 20.547v104.94h-5.8706c-41.828-9.5398-85.124-15.41-127.69-16.878h-25.684c-40.361 0-74.117 8.0722-74.117 47.699 0 31.555 23.483 43.296 51.368 50.634l85.124 23.483c82.189 22.015 124.75 70.448 124.75 158.51 0 121.82-88.06 168.05-209.88 168.05h-28.619c-52.102-2.2015-104.2-11.007-153.37-26.418z"/>
   <circle cx="4765.5" cy="416.43" r="116.68"/>
   <path d="m1788.3-30.477c-155.57 0-282.53 129.15-282.53 289.13s126.22 289.13 282.53 289.13 282.53-129.15 282.53-289.13-126.95-289.13-282.53-289.13zm0 499.74c-108.61 0-197.4-94.664-197.4-209.88s88.794-209.88 197.4-209.88 197.4 94.664 197.4 209.88-88.06 209.88-197.4 209.88z"/>
  </g>
 </g>
</svg>
