<svg width="211.67mm" height="82.401mm" version="1.1" viewBox="0 0 750 291.97" xmlns="http://www.w3.org/2000/svg">
 <path d="m251.66 249.45c-3.3955-1.2801-6.9211-2.4842-10.566-3.6124 18.811-25.352 28.834-57.875 28.162-91.984 9.8397-0.57538 19.233-1.215 28.205-1.931-1.6055 38.392-18.886 72.856-45.801 97.53m-45.215 28.27c8.9606-5.4349 17.347-12.204 24.929-20.243 1.9201-2.0395 3.7643-4.144 5.5543-6.3136 3.1894 0.95464 6.292 1.9527 9.2965 3.0266-11.792 9.7634-25.189 17.758-39.781 23.529m-32.881 5.0227c8.9059-8.9059 16.652-22.814 22.781-39.998 11.966 1.573 23.356 3.7535 33.9 6.5306-1.1391 1.3126-2.289 2.6036-3.4714 3.862-15.719 16.673-35.008 27.631-55.695 31.927 0.83488-0.73768 1.6598-1.497 2.4842-2.3215m-22.304 4.3718h-0.0174c-6.3679 0-12.66-3.07-18.713-9.1229-7.93-7.93-14.873-20.405-20.438-35.973 12.551-1.3994 25.688-2.1371 39.151-2.1371 13.289 0 26.274 0.71598 38.717 2.0937-9.9474 27.457-23.856 45.118-38.696 45.139m-77.065-37.491 0.01736-0.84615c9.8172-2.5059 20.329-4.502 31.363-5.9665 5.9882 17.064 13.604 30.787 22.467 39.651 0.85657 0.85657 1.714 1.6489 2.5819 2.3974-21.837-4.7949-41.158-17.173-56.432-35.235m-17.932 4.5671c3.4389-1.215 6.9971-2.3649 10.664-3.428 9.0361 11.336 19.527 20.709 31.178 27.771-15.383-5.8255-29.497-14.103-41.841-24.343m-51.28-103.14c8.5375 0.72727 17.639 1.3777 27.174 1.9744 2.2781 36.385 13.375 68.213 30.689 92.34-4.1657 1.2584-8.1795 2.6253-12.041 4.0789-27.11-24.854-44.456-59.655-45.823-98.397m36.645-99.126c4.5345 1.6055 9.3399 3.1243 14.406 4.502-16.239 26.383-25.146 58.677-24.203 90.248-9.4596-0.5858-18.475-1.2475-26.936-1.9635 0.34714-35.582 14.168-68.029 36.732-92.782m54.729-37.611c-6.8886 4.4152-13.506 9.7096-19.711 15.882-6.2377 6.216-11.923 13.148-17 20.633-4.6105-1.2042-9.0474-2.5059-13.224-3.9162 14.026-13.983 30.993-25.157 49.935-32.598m6.6499 40.93-10.262-0.21696-12.649-10.284-7.9843 9.0361c-2.0069-0.42264-3.9704-0.86785-5.9123-1.3235 4.502-6.4113 9.4926-12.389 14.905-17.781 16.077-15.99 34.953-25.895 54.382-28.791-10.317 7.1815-23.237 21.371-32.479 49.359m48.882-50.152c0.5858 0.0347 1.1716 0.0608 1.7574 0.0981 5.5434 0.68387 11.022 3.6884 16.305 8.9719 8.4724 8.4833 15.828 22.163 21.577 39.26-4.0789 1.4536-7.6154 2.7663-10.251 3.5799l-71.825-1.6055c14.07-41.299 36.19-48.957 42.438-50.303m78.714 40.496c-10.425-0.95464-22.727 2.3107-33.011 5.7387-6.0858-17.986-13.962-32.425-23.172-41.635-0.65089-0.65089-1.3126-1.2475-1.9852-1.8442 23.856 5.359 43.339 17.986 58.168 37.741m23.931-0.18398c-4.003 1.5621-8.5267 3.0158-13.517 4.361-9.0153-14.168-20.872-26.86-36.45-36.059 18.876 7.1706 35.853 18.041 49.967 31.698m-37.241 104.33c2.2564-3.7752 4.4803-7.4744 6.6716-10.935l7.8975-14.222c12.063-23.974 15.513-38.858 16.294-47.027 9.7963 24.669 13.387 50.726 14.537 70.133 9e-3 0.0607 9e-3 0.13018 9e-3 0.19527-14.33 0.77065-29.497 1.3886-45.41 1.855m-6.1726 10.251c0.77066-1.2692 1.5513-2.5385 2.3107-3.8077 17.411-0.47732 33.944-1.1391 49.511-1.9744 0.6075 33.477-9.4926 65.296-28.335 89.727-11.206-3.1026-23.367-5.5543-36.19-7.2791 7.0513-21.967 11.564-48.578 12.704-76.665m-108.18 47.58 6.1075-0.0521c0.39053-3.7752 0.77065-7.5612 2.1046-10.925 4.5454-16.967 22.217-35.592 39.032-38.815v-15.849c8.5158-10.913 6.0858-24.777 5.7929-38.598l-9.4813-0.0972v-8.0276l9.6436 0.0981 0.18485-10.251h8.2555v10.251l8.787-0.0981v8.0276l-9.4813 0.0972c0.0174 14.124-2.3866 27.468 6.3245 38.598v15.849c16.598 1.573 25.288 12.649 29.247 19.754 1.5947-2.1154 3.1568-4.361 4.7081-6.6716-1.7791 24.093-6.075 46.452-12.107 64.992-13.105-1.5079-26.817-2.289-40.822-2.289-14.179 0-28.01 0.80277-41.223 2.3324-2.7771-8.689-5.1637-18.203-7.073-28.325m2.2022-137.34 54.795 0.59622c-17.173 8.9493-41.375 28.716-61.998 52.635 1.0848-21.36 3.6884-38.869 7.2032-53.232m-12.757 41.733-5.1746-41.928 11.575 0.11977c-2.8531 11.868-5.0878 25.699-6.4004 41.809m-17.986 129.65c10.176-5.8689 19.896-15.241 23.519-26.459 1.6164 7.5937 3.504 14.807 5.6194 21.566-10.187 1.3886-19.961 3.2219-29.16 5.4892l0.01736-0.59622zm-0.61878-164.46 8.2772 71.858c-15.285-0.49901-30.017-1.1608-43.88-1.9635-1.0631-31.21 7.8975-63.19 24.267-88.972 1.6055 0.39053 3.2219 0.75937 4.8708 1.1282l-5.4024 6.0967 11.868 11.857zm-9.243 159.47c-14.547-22.337-23.888-50.878-26.025-83.217 13.235 0.75938 27.24 1.3886 41.744 1.8767l-1.7357 2.4951c-8.505 18.442-18.626 54.914-13.983 78.845m194.8-186.34c23.649 25.157 38.121 58.591 38.251 95.299-9.0691 0.72727-18.605 1.3777-28.574 1.9635 0-0.0868 0-0.16316-9e-3 -0.23866-1.3235-22.314-6.4004-60.045-24.604-91.923 5.5977-1.573 10.61-3.2762 14.938-5.0986m-108.23-50.292c-83.455 0-151.1 65.36-151.1 145.98 0 80.634 67.649 145.99 151.1 145.99 83.453 0 151.1-65.36 151.1-145.99 0-80.624-67.649-145.98-151.1-145.98" fill="#fff" stroke-width="8.6785"/>
 <g transform="translate(-.00207 258.32)" fill="#fff" stroke-width="8.6785">
  <path d="m431.91-156.4-0.71598 16.977h-50.52c-0.55282 6.6933-0.61791 13.766-0.91124 20.546h43.653c0.15188 6.5198-0.31503 13.061-0.5103 19.667h-43.426c-0.27077-0.08679-0.48861-0.21696-0.532 0l-0.82446 22.38h49.804c-0.15188 5.9882-0.6075 11.412-0.93294 17.487h-72.499l4.0355-97.061h73.377z"/>
  <path d="m582.14-156.4 9e-3 -0.0174h-21.577l-32.425 73.301-1.5947 3.1677c-0.91125-2.3324-1.6598-4.7515-2.4842-7.1815l-7.8432-23.595 20.471-45.726c-3.862 0-19.375 0-21.045-0.0174l-8.006 18.018-0.53199 0.65089c-2.3215-6.075-4.1874-12.53-6.4981-18.615h-20.091l14.558 45.844-13.766 30.158-0.74809 1.0631c-0.0434-0.08679-0.21696-0.18398-0.17357-0.31416l-21.566-67.943-2.8314-8.8087h-21.849l27.197 83.781 4.5779 13.289h26.73l9.5898-20.775 1.7249-3.3846 0.31417 0.31416 7.5286 23.823c2.9182 0 21.74-0.03471 26.969-0.0087 1.8225-4.1766 3.8077-8.1795 5.4024-12.443l12.389-27.218 18.377-41.039 25.395 0.0174 0.30375 0.17357-1.6381 41.874-1.2692 38.653c0.48773 0 19.635-0.01736 20.145 0l0.47732-7.7022 4.0464-73.052 29.247-0.21696c0.23866-5.4675 0.57539-11.466 0.67259-16.066h-70.188z"/>
  <path d="m660.25-156.4h30.212l35.506 75.427c0.0781 0.04339 0.11977 0.22738 0.30375 0.17357l0.21697-0.30375 3.8294-75.297h19.69l-3.07 59.828-1.931 37.231h-32.989l-11.249-23.746-24.527-51.127-0.21696-0.21696-0.21697 0.30375-4.5779 74.787h-19.776l4.6539-97.061h4.144z"/>
 </g>
</svg>
