<svg width="800" height="779" version="1.1" viewBox="0 0 800 779" xml:space="preserve" xmlns="http://www.w3.org/2000/svg"><g transform="matrix(1.3333 0 0 -1.3333 -35.488 818.73)" fill="#fff"><g transform="matrix(2.6061 0 0 2.6061 -42.748 -47.855)"><g transform="translate(42.672 194.76)"><path d="m0 0 99.057-99.057 99.057 99.056-47.905 47.867h-102.34zm99.057-115.11-115.11 115.11 59.219 59.219h111.75l59.263-59.217z" fill="#fff"/></g><g transform="translate(159.85 187.1)"><path d="m0 0v-3.618h-12.741v-55.055h12.741v-3.619h-37.123v3.619h12.112v55.055h-12.112v3.618h12.112v7.708c0 26.899 11.168 38.224 26.27 38.224 6.136 0 13.213-2.831 13.213-10.225 0-3.145-3.146-5.191-5.82-5.191-4.247 0-6.45 2.99-6.45 7.237 0 1.73 1.259 1.887 1.259 3.931 0 0.788-2.674 0.945-3.777 0.945-7.549 0-12.425-9.123-12.425-24.853v-17.776z" fill="#fff"/></g><g transform="translate(186.64 185.53)"><path d="m0 0c0-3.143-2.548-5.689-5.69-5.689-3.141 0-5.688 2.546-5.688 5.689 0 3.141 2.547 5.689 5.688 5.689 3.142 0 5.69-2.548 5.69-5.689" fill="#fff"/></g></g><g transform="matrix(2.6061 0 0 2.6061 6.8171 -47.855)"><g transform="translate(27.118 66.985)"><path d="m0 0h28.116v-7.385h-19.993v-7.86h17.619v-7.385h-17.619v-14.296h-8.123z" fill="#fff"/></g><g transform="translate(71.642 59.494)"><path d="m0 0h-11.235v7.491h30.595v-7.491h-11.236v-29.435h-8.124z" fill="#fff"/></g><g transform="translate(95.385 66.985)"><path d="m0 0h8.968l9.653-26.006 9.654 26.006h8.757l-14.93-37.19h-7.174z" fill="#fff"/></g><g transform="translate(-38.038)"><g transform="translate(187.81 66.985)"><path d="m0 0h4.167l-4.378-16.405h21.048l4.378 16.405h4.22l-9.917-36.926h-4.22l4.484 16.617h-21.048l-4.484-16.617h-4.167z" fill="#fff"/></g><g transform="translate(232.13 33.91)"><path d="m0 0c6.172 0 11.5 2.057 15.245 5.802 2.954 2.955 4.642 6.963 4.642 11.5 0 3.482-1.107 6.225-3.112 8.176-2.426 2.427-6.33 3.746-11.236 3.746h-5.486l-7.86-29.224zm-3.112 33.075h8.915c6.119 0 11.183-1.741 14.401-4.906 2.637-2.638 4.009-6.119 4.009-10.603 0-5.644-2.057-10.603-5.803-14.401-4.43-4.431-11.078-7.016-18.937-7.016h-12.502z" fill="#fff"/></g></g></g></g></svg>
