<svg width="841.64" height="800" version="1.1" viewBox="0 0 841.64 800" xml:space="preserve" xmlns="http://www.w3.org/2000/svg" xmlns:xlink="http://www.w3.org/1999/xlink"><g transform="matrix(1.3333 0 0 -1.3333 -222.8 1394.2)"><g transform="matrix(23.518 0 0 23.518 445.67 1045.6)"><path d="m0 0-0.306-0.379v-3.29l1.916 2.366z" fill="#666464"/></g><g transform="matrix(23.518 0 0 23.518 407.16 920.66)"><path d="m0 0v3.291l-2.987-3.689h2.665z" fill="#666464"/></g><g transform="matrix(23.518 0 0 23.518 487.18 911.31)"><path d="m0 0v2.484l-2.011-2.484z" fill="#666464"/></g><path d="m487.18 692.63h-48.705v-167h48.705z" fill="#666464"/><path d="m438.47 445.62h121.78v48.708h-121.78z" fill="#666464"/><path d="m518.48 643.92h83.488v48.705h-83.488z" fill="#666464"/><path d="m358.44 445.62h48.705v247.01h-48.705z" fill="#666464"/><path d="m278.43 445.62h48.705v48.708h-48.705z" fill="#666464"/><path d="m167.1 643.92h80.031v48.705h-80.031z" fill="#666464"/><g transform="matrix(23.518 0 0 23.518 247.13 800.43)"><path d="m0 0-2.633-3.252h2.633z" fill="#666464"/></g><g transform="matrix(23.518 0 0 23.518 407.16 833.28)"><path d="m0 0v1.986h-5.473v-10.037h2.071v4.252h3.402v1.987h-3.402v1.812z" fill="#d20824"/></g><path d="m438.47 723.96h48.705v156.04h-48.705z" fill="#d20824"/><g transform="matrix(23.518 0 0 23.518 567.19 765.9)"><path d="m0 0v4.852h-2.071v-6.636h3.55v1.784z" fill="#d20824"/></g><g transform="matrix(23.518 0 0 23.518 744.92 880)"><path d="m0 0-1.379-2.756-1.429 2.756h-2.271v-6.636h1.863v3.931l1.276-2.501h1.071l1.277 2.577v-4.007h1.863v6.636z" fill="#d20824"/></g></g></svg>
