<svg width="1536pt" height="325.44pt" version="1.1" viewBox="0 0 1536 325.44" xmlns="http://www.w3.org/2000/svg">
 <path d="m0 0h1311.1c43.7 1.65 88.32 8.87 127.26 29.77 30.64 16.26 56.21 41.95 71.87 72.94 17.68 34.14 24.25 72.84 25.77 110.92v111.81c-512-0.01-1024 0.01-1536-0.01v-325.43" fill="#ea6526"/>
 <path d="m459 123c7.95 0.57 16.55-1.54 23.98 2.07 7.53 3.92 10.49 14.41 5.76 21.56-2.61 4.43-7.57 7.31-12.71 7.37-5.68 0.02-11.35-0.02-17.03 0v-31z" fill="#ea6526"/>
 <path d="m253.61 77.45c20.76-10.34 45.58-11.9 67.6-4.77 20.12 6.49 37.75 20.34 48.83 38.34 14.68 23.36 17.43 53.61 7.65 79.35-20.99-0.03-41.98 0.02-62.97-0.03 6.82-4.96 12.39-11.8 14.98-19.89 3.54-10.62 2.12-22.79-3.92-32.22-5.67-9.26-15.51-15.84-26.23-17.55-9.58-1.84-19.75 0.7-27.8 6.1-11.95 7.98-18.78 23.14-16.43 37.36 2.4 17.49 17.99 31.96 35.65 32.84 31.01 0.05 62.02 0 93.03 0.02-0.01 17.21 0.01 34.42-0.01 51.64-31-0.01-62-0.02-93.01 0-22.59-0.45-44.88-9.85-60.91-25.79-13.61-13.23-22.83-30.91-25.82-49.66-2.9-18.03-0.45-36.98 7.51-53.47 8.66-18.26 23.65-33.47 41.85-42.27z" fill="#2a2d30"/>
 <path d="m945.98 68.98c16.9-1.9 34.68 0.04 49.82 8.19 20.39 10.57 34.59 31.27 38.93 53.63-21.54 0.1-43.08-0.02-64.61 0.06-0.81-4.8-3.93-9.55-8.96-10.53-4.86-1.51-12.72 1.49-11.16 7.67 2.3 4.9 8.21 6.2 12.96 7.54 17.04 3.89 34.87 5.15 51.04 12.24 9.94 4.23 19.14 11.45 23.49 21.56 4.38 10.23 4.26 21.87 1.93 32.58-3.31 15.26-13.13 28.78-26.2 37.21-15.88 10.45-35.36 14.31-54.16 13.87-17.28 0.41-34.97-3-50.07-11.66-18.91-10.82-31.74-30.87-34.69-52.34h71.37c0.33 6.63 6.89 11.84 13.39 11.2 3.8 0.03 8.86-1.7 9.12-6.16 0.49-4.38-4.05-6.49-7.55-7.41-10.69-2.79-21.8-3.36-32.6-5.59-13.95-2.65-28.5-6.94-38.78-17.28-8.96-9.03-12.23-22.28-11.32-34.69 0.33-14.55 6.69-28.87 17.31-38.84 13.5-13.13 32.28-19.49 50.74-21.25z" fill="#2a2d30"/>
 <path d="m603.3 82.33c16.8-10.43 37.07-15.12 56.74-13.23 24.08 1.91 47 14.16 62.42 32.69-12.67 12.67-25.32 25.36-38.02 38-5.64-8.45-14.43-14.85-24.44-16.93-11.73-2.84-24.58 0.68-33.67 8.49-9.63 8.11-14.88 21.12-13.5 33.65 1.53 16.52 14.68 31.09 30.99 34.23 14.8 3.37 30.99-3.34 39.65-15.69 12.4 12.27 24.71 24.64 37.03 36.99 1.3 0.98-0.29 2.22-0.96 2.97-11.64 12.66-26.85 22-43.44 26.55-16.26 4.37-33.69 4.35-49.88-0.31-16.5-4.68-31.61-14.11-43.08-26.86-13.21-14.55-21.58-33.42-23.32-53-1.81-17.32 1.66-35.1 9.45-50.64 7.71-15.09 19.55-28.08 34.03-36.91z" fill="#2a2d30"/>
 <path d="m65.17 73.65c46.06-0.02 92.12-0.01 138.19-0.01 0 16.66 0.01 33.31 0 49.97-26.33 0.03-52.66 0.03-78.99 0-0.01 4.26-0.01 8.52 0 12.78 16.99-0.03 33.99-0.03 50.99 0 0 15.82 0.02 31.63-0.01 47.44-16.99 0-33.98 0.02-50.97-0.01-0.76 21.59-0.21 43.21-0.39 64.81-19.6-0.02-39.21 0.02-58.81-0.01-0.03-58.33-0.01-116.65-0.01-174.97z" fill="#2a2d30"/>
 <path d="m400 73.64c29.34-0.01 58.67 0.01 88.01-0.01 14.9-0.53 29.89 4.51 41.54 13.8 13.83 10.77 23.04 27.32 24.57 44.82 2.44 22.15-7.75 44.92-25.54 58.24 13.76 19.38 27.59 38.72 41.42 58.05-21.21 0.2-42.42 0.05-63.63 0.07-11.5-15.11-23.04-30.18-34.56-45.27-4.27 0.04-8.53 0.02-12.8 0.02-0.03 15.09 0.01 30.18-0.02 45.28-19.66-0.02-39.32-0.02-58.98 0-0.03-58.34 0-116.67-0.01-175m59 49.36v31c5.68-0.02 11.35 0.02 17.03 0 5.14-0.06 10.1-2.94 12.71-7.37 4.73-7.15 1.77-17.64-5.76-21.56-7.43-3.61-16.03-1.5-23.98-2.07z" fill="#2a2d30"/>
 <path d="m729.64 73.64c46.07 0 92.13-0.02 138.19 0.01 0 16.66 0.02 33.31-0.01 49.97-26.33 0.03-52.66 0-78.99 0.01v13.01c17 0 34-0.02 51 0.01 0 15.73 0.01 31.45 0 47.18-17 0.02-34 0-50.99 0.01-0.01 4.84 0 9.68-0.01 14.53 26.33 0.01 52.66-0.02 78.99 0.01 0.02 16.75 0.03 33.49 0 50.24-46.06 0.01-92.12 0.03-138.18-0.01-0.01-58.32-0.01-116.64 0-174.97z" fill="#2a2d30"/>
 <path d="m1097.4 123.61c-0.03-16.66-0.03-33.31 0-49.97 45.66-0.01 91.31-0.01 136.97 0v49.97c-12.51 0.05-25.02 0-37.53 0.02 0.01 41.45 0 82.91 0.01 124.36-20.74 0.02-41.47 0.01-62.2 0.01-0.01-41.47 0-82.93-0.01-124.39-12.41 0.03-24.83 0.03-37.24 0z" fill="#2a2d30"/>
 <path d="m1246.2 73.77c28.3 18.1 56.36 36.6 84.59 54.83 28.21-18.21 56.2-36.81 84.52-54.85 0.09 12.16 0.02 24.32 0.04 36.49-28.18 18.16-56.36 36.33-84.51 54.54-28.28-18.04-56.39-36.35-84.63-54.45-0.1-12.19-0.08-24.38-0.01-36.56z" fill="#2a2d30"/>
 <path d="m1246.2 160.83c28.27 18.24 56.38 36.73 84.68 54.91 28.15-18.28 56.23-36.67 84.42-54.9 0.2 12.17 0 24.34 0.1 36.52-28.15 18.24-56.4 36.32-84.51 54.62-28.28-18.06-56.4-36.39-84.67-54.46-0.07-12.23-0.04-24.46-0.02-36.69z" fill="#2a2d30"/>
 <path d="m1246.2 117.29c28.28 18.18 56.34 36.7 84.64 54.85 28.13-18.3 56.21-36.67 84.38-54.9 0.08 12.17 0.06 24.34 0.02 36.51-28.15 18.11-56.27 36.28-84.39 54.45-28.34-17.99-56.49-36.29-84.68-54.51 0.03-12.13-0.03-24.27 0.03-36.4z" fill="#2a2d30"/>
 <path d="m645.54 138.82c11.26-3.43 24.24 3.38 27.89 14.54 2.87 8.07 0.8 17.68-5.28 23.74-6.03 6.35-15.85 8.51-24.06 5.62-8.1-2.67-14.23-10.28-15.2-18.74-1.72-11.01 5.83-22.46 16.65-25.16z" fill="#2a2d30"/>
 <path d="m149.7 197.01c18.35-0.02 36.7-0.01 55.05-0.01 2.82 9.52 8.82 17.71 15.37 25.02 12.37 13.63 28.84 24.43 47.45 26.56-39.29-0.05-78.58 0.02-117.88-0.03 0-17.19 0-34.36 0.01-51.54z" fill="#2a2d30"/>
</svg>
