<svg width="639.06pt" height="799.41pt" version="1.1" viewBox="0 0 639.06 799.41" xmlns="http://www.w3.org/2000/svg">
 <path d="m253.72 662.74h25.705v92.795h-25.705z" fill="#00a8e7"/>
 <path d="m294.67 662.74h25.695v17.965h-25.695z" fill="#00a8e7"/>
 <path d="m409.32 662.74h25.815l-0.03 32.725c3.78-4.23 8.65-7.81 14.39-8.65 8-1.5 17.08-0.29 23.26 5.4 4.54 4.03 6.76 10.18 6.69 16.18 0.03 15.71 0.05 31.425-0.01 47.135h-25.65c-0.25-13.4 0.34-26.815-0.31-40.195 0.04-4.35-3.2-8.83-7.93-8.33-5.88-0.57-10.28 4.9-10.31 10.42-0.29 12.7-0.01 25.405-0.13 38.105h-25.785z" fill="#00a8e7"/>
 <path d="m13.05 695.92c6.21-6.1 14.85-9.41 23.5-9.65 10.7-0.29 22.48 1.92 30.13 10.01 7.85 8.16 9.62 20.055 9.79 30.925h-49.54c0.72 4.61 2.36 9.695 6.7 12.115 5.7 2.89 13.34 1.655 17.59-3.205h23.91c-2.38 6.02-6.41 11.435-11.9 14.955-9.33 6.03-21.05 7.29-31.83 5.53-9.52-1.66-18.77-6.8-23.83-15.23-8.49-14.04-6.44-33.96 5.48-45.45m19.88 8.64c-3.49 1.87-4.85 5.76-5.92 9.32h25.03c-0.74-2.64-1.33-5.57-3.37-7.56-3.87-4.41-10.87-4.4-15.74-1.76z" fill="#00a8e7"/>
 <path d="m112.03 696.84c7.6-11.4 24.59-13.68 35.87-6.71 6.16 3.84 9.51 11.11 9.42 18.25 0.04 15.71 0.04 31.295 0 47.005h-25.91c0.02-13.28 0.22-26.705-0.1-39.965 0.09-4.29-3.03-8.8-7.7-8.42-5.88-0.68-10.48 4.74-10.51 10.31-0.31 12.73-0.02 25.335-0.14 38.075h-25.78v-67.25h24.88z" fill="#00a8e7"/>
 <path d="m174.81 695.55c7.53-8.83 21.03-11.76 31.63-7.21 3.65 1.46 6.16 4.66 7.87 8.09l-0.05-8.3h25.86l-0.02 60.26c-0.04 8.51-2.51 17.65-9.25 23.3-7.84 6.4-18.49 7.57-28.26 7.3-8.94-0.44-18.61-1.86-25.53-8.06-4.29-3.67-6.62-9.06-7.33-14.57h25c2.17 1.75 3.13 4.77 5.6 6.28 3.28 2.39 8.24 1.22 10.5-2.04 4.2-5.36 3.33-12.53 3.49-18.89-3.15 4.33-7.58 7.92-12.93 9-9.07 1.73-19.23-0.58-25.73-7.4-6.07-6.32-8.29-15.32-8.51-23.86-0.17-8.48 2.05-17.35 7.66-23.9m25.12 10.31c-4.62 1.77-6.96 6.91-6.91 11.63-0.12 5 0.57 10.54 4.09 14.38 3.97 4.1 11.79 3.96 15.15-0.86 2.33-3.38 2.52-7.68 2.71-11.64 0.17-4.55-1.01-9.7-4.88-12.53-2.96-1.92-6.88-2.27-10.16-0.98z" fill="#00a8e7"/>
 <path d="m338.44 694.33c7-6.46 17.01-7.81 26.17-8.1 9.4 0.3 19.9 1.19 27.05 8.04 3.81 3.32 5.6 8.33 5.76 13.3h-23.08c-0.93741-4.5374-5.1252-7.0533-9.3826-7.1395-2.2825-0.0462-4.9556 0.34133-6.4174 2.0195-1.15 1.58-1.51 4.43 0.35 5.65 3.37 2.33 7.65 2.46 11.54 3.3 7.47 1.43 15.34 2.83 21.67 7.32 9.81 6.99 9.24 23.08 0.44 30.67-7.08 6.15-16.87 7.65-25.94 7.91-9.97 0.22-20.79-1.53-28.47-8.4-4.47-3.93-6.87-9.725-7.01-15.615h24.47c0.72 3.6 3.2 7.245 7.11 7.725 3.84 0.51 8.75 0.43 11.27-3.02 1.5-2.81-0.47-6.1-3.45-6.67-10.15-3.07-21.52-3.04-30.53-9.28-9.09-5.96-9.61-20.67-1.55-27.71z" fill="#00a8e7"/>
 <path d="m294.67 688.14h25.695v67.39h-25.695z" fill="#00a8e7"/>
 <path d="m0.003028 795.26 639.04-0.01v4.16h-639.04z" fill="#00a8e7"/>
 <g transform="matrix(1.0651 0 0 1.0651 -65.738 -254.9)">
  <g fill="#00a8e7">
   <path d="m345.38 628.7c13.66 9.2 51.12 9 91.06-0.51 49.65-11.8 87.55-33.75 84.37-49.08-0.53-2.5-2.25-4.76-5.01-6.63-13.77-9.25-51.18-9.02-91.05 0.47-39.93 9.5-73.88 26.2-82.52 40.67-1.82 2.96-2.47 5.88-1.92 8.32 0.52 2.55 2.24 4.82 5.07 6.76"/>
   <path d="m661.7 839.29v-29.33c-30.05 11.14-58.51 20.85-85.5 29.33z"/>
   <path d="m276.23 629.29c0.31-0.17 0.73-0.17 0.89 0.16 0.27 0.31 0.16 0.75-0.06 0.96-15.64 13.34-22.64 25.97-20.41 36.59 1.16 5.64 4.95 10.63 11.15 14.81 27.89 18.76 101.92 18.96 180.05 0.42 98.61-23.49 173.5-68.34 166.77-100.2-2.33-10.59-13.8-18.9-33.19-23.8-0.36-0.18-0.61-0.47-0.51-0.94 0.09-0.32 0.46-0.57 0.79-0.54 31.83 5.19 50.53 16.2 53.82 31.94 1.53 6.99-0.22 14.7-5.07 22.75-20.31 33.96-92.01 70.58-178.42 91.11-86.4 20.46-165.95 19.83-198-1.72-7.63-5.19-12.21-11.27-13.69-18.39-3.28-15.77 9.1-34.14 35.88-53.15m147.51-61c60.55-14.37 113.34-9.46 117.71 11.01 0.79 3.87-0.13 8.18-2.83 12.56-11.28 18.81-51.07 39.07-99.24 50.57-60.57 14.3-113.33 9.43-117.68-10.97-4.27-20.44 41.39-48.79 102.04-63.17m43.99 208.54c-121.08 28.72-233.29 27.26-279.33-3.66-11.22-7.57-18.02-16.65-20.23-27.13-3.5-16.54 5.19-35.74 25.1-55.56 0.27-0.21 0.7-0.21 0.94 0 0.26 0.21 0.32 0.79 0.11 1.05-9.83 12.95-13.64 25.13-11.31 36.08 1.84 8.88 7.75 16.72 17.47 23.19 42.25 28.44 147.65 29.27 262.25 2.16 80.65-19.23 152.94-49.16 198.97-82.27l-3e-4 -431.37h-599.98l0.0028 599.98h55.197c-4.24-5.92-7.19-12.25-8.63-19.01-0.7-3.41-1.05-6.88-1.05-10.34 0-14.81 6.35-30.67 18.93-47.3 0.14-0.2 0.6-0.31 0.88-0.04l0.26 0.9c-7.07 13.02-9.43 25.31-7.07 36.59 3.42 16.18 16.33 29.31 36.66 39.2h311.45c4.07-0.93 8.11-1.77 12.2-2.75 66.01-15.71 128.4-37.42 181.15-63v-73.16c-49.5 31.3-118.08 58.45-193.97 76.44"/>
  </g>
  <g fill="#fff">
   <path d="m661.72 809.96v-36.42c0 0.01-0.01 0.01-0.01 0.01v36.42c0-0.01 0.01-0.01 0.01-0.01"/>
   <path d="m468.34 839.29h107.87c26.98-8.48 55.44-18.19 85.5-29.33v-36.4c-52.76 25.57-115.14 47.28-181.15 62.98-4.09 0.99-8.15 1.83-12.22 2.75"/>
   <path d="m120.23 800.1c-2.34-11.27 0-23.56 7.08-36.59l-0.26-0.89c-0.27-0.28-0.74-0.17-0.89 0.03-12.57 16.63-18.92 32.48-18.92 47.3 0 3.46 0.34 6.93 1.05 10.34 1.45 6.77 4.4 13.1 8.64 19h39.97c-20.33-9.88-33.24-23-36.67-39.19"/>
   <path d="m254.04 700.83c32.06 21.55 111.59 22.18 198 1.71 86.42-20.52 158.12-57.14 178.42-91.11 4.84-8.05 6.6-15.74 5.06-22.74-3.28-15.73-21.97-26.76-53.8-31.93-0.35-0.04-0.71 0.21-0.8 0.53-0.09 0.46 0.14 0.76 0.51 0.93 19.4 4.91 30.86 13.22 33.18 23.81 6.73 31.87-68.15 76.71-166.76 100.2-78.13 18.55-152.16 18.34-180.06-0.42-6.2-4.18-9.97-9.18-11.14-14.81-2.24-10.63 4.77-23.24 20.41-36.59 0.22-0.2 0.33-0.66 0.05-0.96-0.16-0.32-0.57-0.32-0.89-0.16-26.77 19.02-39.14 37.38-35.87 53.14 1.48 7.13 6.06 13.21 13.69 18.4"/>
   <path d="m661.72 700.38v-29.7l-0.01 0.01v29.7z"/>
   <path d="m200.48 750.8c-9.73-6.47-15.62-14.32-17.47-23.19-2.33-10.95 1.48-23.13 11.31-36.09 0.2-0.26 0.14-0.84-0.12-1.05-0.23-0.19-0.65-0.19-0.94 0-19.89 19.83-28.59 39.02-25.1 55.58 2.22 10.47 9.02 19.54 20.25 27.12 46.02 30.91 158.25 32.39 279.32 3.67 75.89-17.99 144.46-45.15 193.98-76.44v-29.71c-46.04 33.11-118.32 63.03-198.99 82.27-114.58 27.11-219.99 26.28-262.24-2.16"/>
   <path d="m342.22 613.62c8.66-14.48 42.6-31.17 82.54-40.68 39.86-9.49 77.27-9.7 91.04-0.46 2.77 1.87 4.49 4.14 5 6.63 3.18 15.32-34.71 37.28-84.36 49.09-39.95 9.5-77.4 9.69-91.06 0.5-2.83-1.94-4.54-4.2-5.07-6.76-0.54-2.44 0.1-5.35 1.91-8.32m97.15 28.81c48.18-11.5 87.98-31.75 99.26-50.57 2.69-4.38 3.6-8.69 2.81-12.57-4.35-20.46-57.14-25.37-117.7-10.99-60.65 14.37-106.3 42.73-102.03 63.16 4.34 20.4 57.09 25.28 117.66 10.97"/>
   <path d="m408.45 357.03h-0.22l-21.94-42.65h-23.82v79.86h22.02v-43.67h0.16l23.18 43.67h22.59v-79.86h-21.97zm70.66 19.18c-10.78 0-14.34-11.13-14.34-21.92 0-10.74 3.56-21.96 14.34-21.96 9.58 0 11.74 8.88 12.19 11.79h22.56c-1.98-20.06-13.36-31.59-34.1-31.62-23.21 0-38.25 16.63-38.25 41.79 0 23.64 13.83 41.82 38.25 41.82 22.03 0 34.43-17.11 34.43-33.19h-22.84c-1.39 7.49-4.4 13.29-12.24 13.29m-207.64-34.89c0-17.38-9.9-26.94-27.88-26.94h-38.49v79.86h22.86v-27.16h7.89c1.05 2.11 13.27 27.16 13.27 27.16h24.63s-13.91-27.57-16.03-31.43c8.41-3.67 13.75-11.76 13.75-21.49m-29.31 7.42h-14.2v-16.01h14.2c4.92 0 7.36 2.69 7.36 8.03 0 5.26-2.44 7.98-7.36 7.98m344.53-15.83v-18.64h-62.2v79.97h62.2v-18.61h-37.44v-12.1h31.03v-18.56h-31.03v-12.06zm-450.01 61.33h24.77v-27.03h27.03v-18.69h-27.03v-15.61h33.96v-18.64h-58.73zm167.6-79.86-27 79.86h24.22l2.78-10.59h24.52l2.96 10.59h24.57l-26.96-79.86zm4.68 52.65 7.64-28.62 7.96 28.62z"/>
   <path d="m350.65 496.01v-80.45h-38.92l-62.22 76.78v32.34h-59.18v-0.2c25.65-16.61 59.66-28.24 59.66-65.21 0-30.67-22.47-45.34-55.59-45.34-36.6 0-59.87 22.73-57.71 62.39h36.8c-0.46-17.63 4.87-29.67 20.56-29.67 9.09 0 16.41 4.57 16.41 17.6 0 10.63-11.4 16.35-18.37 20.91-17.47 11.29-36.95 22.28-48.4 39.09-6.67 9.74-10.56 21.84-9.75 35.7h118.01v-28.73h58v28.73h40.7v-28.73h18.42v-35.21zm-40.7 0h-33.22l33.22-40.42z"/>
  </g>
 </g>
</svg>
