<svg width="639.06pt" height="799.41pt" version="1.1" viewBox="0 0 639.06 799.41" xmlns="http://www.w3.org/2000/svg">
 <path d="m0 795.26 639.04-0.01v4.16h-639.04z" fill="#00a8e7"/>
 <g transform="matrix(1.0651 0 0 1.0651 -65.738 -254.9)">
  <g fill="#00a8e7">
   <path d="m345.38 628.7c13.66 9.2 51.12 9 91.06-0.51 49.65-11.8 87.55-33.75 84.37-49.08-0.53-2.5-2.25-4.76-5.01-6.63-13.77-9.25-51.18-9.02-91.05 0.47-39.93 9.5-73.88 26.2-82.52 40.67-1.82 2.96-2.47 5.88-1.92 8.32 0.52 2.55 2.24 4.82 5.07 6.76"/>
   <path d="m661.7 839.29v-29.33c-30.05 11.14-58.51 20.85-85.5 29.33h85.5z"/>
   <path d="m276.23 629.29c0.31-0.17 0.73-0.17 0.89 0.16 0.27 0.31 0.16 0.75-0.06 0.96-15.64 13.34-22.64 25.97-20.41 36.59 1.16 5.64 4.95 10.63 11.15 14.81 27.89 18.76 101.92 18.96 180.05 0.42 98.61-23.49 173.5-68.34 166.77-100.2-2.33-10.59-13.8-18.9-33.19-23.8-0.36-0.18-0.61-0.47-0.51-0.94 0.09-0.32 0.46-0.57 0.79-0.54 31.83 5.19 50.53 16.2 53.82 31.94 1.53 6.99-0.22 14.7-5.07 22.75-20.31 33.96-92.01 70.58-178.42 91.11-86.4 20.46-165.95 19.83-198-1.72-7.63-5.19-12.21-11.27-13.69-18.39-3.28-15.77 9.1-34.14 35.88-53.15m147.51-61c60.55-14.37 113.34-9.46 117.71 11.01 0.79 3.87-0.13 8.18-2.83 12.56-11.28 18.81-51.07 39.07-99.24 50.57-60.57 14.3-113.33 9.43-117.68-10.97-4.27-20.44 41.39-48.79 102.04-63.17m43.99 208.54c-121.08 28.72-233.29 27.26-279.33-3.66-11.22-7.57-18.02-16.65-20.23-27.13-3.5-16.54 5.19-35.74 25.1-55.56 0.27-0.21 0.7-0.21 0.94 0 0.26 0.21 0.32 0.79 0.11 1.05-9.83 12.95-13.64 25.13-11.31 36.08 1.84 8.88 7.75 16.72 17.47 23.19 42.25 28.44 147.65 29.27 262.25 2.16 80.65-19.23 152.94-49.16 198.97-82.27v-431.37h-599.98l3e-3 599.98h55.197c-4.24-5.92-7.19-12.25-8.63-19.01-0.7-3.41-1.05-6.88-1.05-10.34 0-14.81 6.35-30.67 18.93-47.3 0.14-0.2 0.6-0.31 0.88-0.04l0.26 0.9c-7.07 13.02-9.43 25.31-7.07 36.59 3.42 16.18 16.33 29.31 36.66 39.2h311.45c4.07-0.93 8.11-1.77 12.2-2.75 66.01-15.71 128.4-37.42 181.15-63l3e-4 -73.16c-49.5 31.3-118.08 58.45-193.97 76.44"/>
  </g>
  <g fill="#fff">
   <path d="m661.72 809.96v-36.42c0 0.01-0.01 0.01-0.01 0.01v36.42c0-0.01 0.01-0.01 0.01-0.01"/>
   <path d="m468.34 839.29h107.87c26.98-8.48 55.44-18.19 85.5-29.33v-36.4c-52.76 25.57-115.14 47.28-181.15 62.98-4.09 0.99-8.15 1.83-12.22 2.75"/>
   <path d="m120.23 800.1c-2.34-11.27 0-23.56 7.08-36.59l-0.26-0.89c-0.27-0.28-0.74-0.17-0.89 0.03-12.57 16.63-18.92 32.48-18.92 47.3 0 3.46 0.34 6.93 1.05 10.34 1.45 6.77 4.4 13.1 8.64 19h39.97c-20.33-9.88-33.24-23-36.67-39.19"/>
   <path d="m254.04 700.83c32.06 21.55 111.59 22.18 198 1.71 86.42-20.52 158.12-57.14 178.42-91.11 4.84-8.05 6.6-15.74 5.06-22.74-3.28-15.73-21.97-26.76-53.8-31.93-0.35-0.04-0.71 0.21-0.8 0.53-0.09 0.46 0.14 0.76 0.51 0.93 19.4 4.91 30.86 13.22 33.18 23.81 6.73 31.87-68.15 76.71-166.76 100.2-78.13 18.55-152.16 18.34-180.06-0.42-6.2-4.18-9.97-9.18-11.14-14.81-2.24-10.63 4.77-23.24 20.41-36.59 0.22-0.2 0.33-0.66 0.05-0.96-0.16-0.32-0.57-0.32-0.89-0.16-26.77 19.02-39.14 37.38-35.87 53.14 1.48 7.13 6.06 13.21 13.69 18.4"/>
   <path d="m661.72 700.38v-29.7l-0.01 0.01v29.7l0.01-0.01z"/>
   <path d="m200.48 750.8c-9.73-6.47-15.62-14.32-17.47-23.19-2.33-10.95 1.48-23.13 11.31-36.09 0.2-0.26 0.14-0.84-0.12-1.05-0.23-0.19-0.65-0.19-0.94 0-19.89 19.83-28.59 39.02-25.1 55.58 2.22 10.47 9.02 19.54 20.25 27.12 46.02 30.91 158.25 32.39 279.32 3.67 75.89-17.99 144.46-45.15 193.98-76.44v-29.71c-46.04 33.11-118.32 63.03-198.99 82.27-114.58 27.11-219.99 26.28-262.24-2.16"/>
   <path d="m342.22 613.62c8.66-14.48 42.6-31.17 82.54-40.68 39.86-9.49 77.27-9.7 91.04-0.46 2.77 1.87 4.49 4.14 5 6.63 3.18 15.32-34.71 37.28-84.36 49.09-39.95 9.5-77.4 9.69-91.06 0.5-2.83-1.94-4.54-4.2-5.07-6.76-0.54-2.44 0.1-5.35 1.91-8.32m97.15 28.81c48.18-11.5 87.98-31.75 99.26-50.57 2.69-4.38 3.6-8.69 2.81-12.57-4.35-20.46-57.14-25.37-117.7-10.99-60.65 14.37-106.3 42.73-102.03 63.16 4.34 20.4 57.09 25.28 117.66 10.97"/>
   <path d="m408.45 357.03h-0.22l-21.94-42.65h-23.82v79.86h22.02v-43.67h0.16l23.18 43.67h22.59v-79.86h-21.97v42.65zm70.66 19.18c-10.78 0-14.34-11.13-14.34-21.92 0-10.74 3.56-21.96 14.34-21.96 9.58 0 11.74 8.88 12.19 11.79h22.56c-1.98-20.06-13.36-31.59-34.1-31.62-23.21 0-38.25 16.63-38.25 41.79 0 23.64 13.83 41.82 38.25 41.82 22.03 0 34.43-17.11 34.43-33.19h-22.84c-1.39 7.49-4.4 13.29-12.24 13.29m-207.64-34.89c0-17.38-9.9-26.94-27.88-26.94h-38.49v79.86h22.86v-27.16h7.89c1.05 2.11 13.27 27.16 13.27 27.16h24.63s-13.91-27.57-16.03-31.43c8.41-3.67 13.75-11.76 13.75-21.49m-29.31 7.42h-14.2v-16.01h14.2c4.92 0 7.36 2.69 7.36 8.03 0 5.26-2.44 7.98-7.36 7.98m344.53-15.83v-18.64h-62.2v79.97h62.2v-18.61h-37.44v-12.1h31.03v-18.56h-31.03v-12.06h37.44zm-450.01 61.33h24.77v-27.03h27.03v-18.69h-27.03v-15.61h33.96v-18.64h-58.73v79.97zm167.6-79.86-27 79.86h24.22l2.78-10.59h24.52l2.96 10.59h24.57l-26.96-79.86h-25.09zm4.68 52.65 7.64-28.62 7.96 28.62h-15.6z"/>
   <path d="m350.65 496.01v-80.45h-38.92l-62.22 76.78v32.34h-59.18v-0.2c25.65-16.61 59.66-28.24 59.66-65.21 0-30.67-22.47-45.34-55.59-45.34-36.6 0-59.87 22.73-57.71 62.39h36.8c-0.46-17.63 4.87-29.67 20.56-29.67 9.09 0 16.41 4.57 16.41 17.6 0 10.63-11.4 16.35-18.37 20.91-17.47 11.29-36.95 22.28-48.4 39.09-6.67 9.74-10.56 21.84-9.75 35.7h118.01v-28.73h58v28.73h40.7v-28.73h18.42v-35.21h-18.42zm-40.7 0h-33.22l33.22-40.42v40.42z"/>
  </g>
 </g>
 <g transform="translate(-751.74)" fill="#00a7e2" stroke-width="1.0662">
  <path d="m1342.2 668.91c5.8322-4.7553 13.477-9.4573 21.271-7.2822 8.6257 4.1049 12.613 13.594 16.558 21.719l-3.4865 3.4865c-3.9023-2.5056-7.5488-5.4697-11.707-7.5381-8.551 0.3945-16.761 3.7424-23.606 8.7962 3.7957 6.7491 10.46 12.123 18.254 13.306 9.6812 1.45 19.32-1.9725 27.743-6.5039l1.1033 1.4852c0.4045 0.54447 0.6553 1.2153 0.4291 1.8552l-7.8551 17.739c-15.332 4.3715-31.229 7.2183-47.212 6.9197h-12.164c-4.0488 0-7.4863-3.3053-10.365-5.7469-0.5011 8.9349-3.156 18.019-8.3164 25.397-3.6785 4.7233-9.6813 9.0415-15.929 7.3889-7.4528-3.5825-13.903-8.8922-20.354-13.989l2.2284-6.0881c5.5656 1.3221 11.515 2.2924 17.049 0.27721 8.9988-2.9854 14.991-11.142 18.872-19.405-3.6464-6.9091-7.005-14.031-9.4679-21.452 3.4012-3.7531 6.5252-7.7514 10.022-11.408 0.9809-1.1408 3.4225-1.0449 4.0089 0.53311 2.2391 7.4848 3.0601 15.748 7.5062 22.348 1.1792 1.5722 4.9158 2.6013 7.7259 2.6013h11.967c-2.8788-3.6571-4.9472-8.3376-3.8917-13.061 1.5567-7.6341 3.1454-16.249 9.6173-21.378z"/>
  <path d="m1261 664.13h4.7233l5.5443 15.977c0.5971 1.8339 1.3541 3.9343 0.4585 5.8215-1.0982 1.4394-2.6656 2.4949-3.5399 4.1156 0.043 3.0814 1.5141 6.312 0.1813 9.308-2.4096 5.7789-5.9282 11.003-9.4786 16.132-1.8233 2.3776-3.6465 5.1711-6.6639 6.0774-5.459 1.6206-11.248 1.4394-16.878 1.3648l-6.8131 20.055c-8.8816 7.0263-20.322 10.054-31.368 11.675-10.811 1.0022-23.958 0.77834-31.464-8.3804-5.8428-6.5146-6.216-15.897-4.7126-24.096 1.9085-8.3378 5.2884-16.302 9.9264-23.489l5.0965 1.7166c-1.5566 4.702-3.753 9.2654-4.2222 14.266-0.5331 4.9366 0.3945 10.492 4.0943 14.095 4.1475 4.2435 10.428 5.1818 16.1 5.2991 11.899-0.0746 23.894-2.1111 34.908-6.7065-6.3973-5.0752-14.959-4.1796-22.582-4.6594 1.8019-6.376 3.6145-12.741 5.5443-19.075h46.977l-7.3995-27.327z"/>
  <path d="m1244.1 739.08 10.624-10.689 10.625 10.689-10.625 10.689z"/>
  <path d="m1186.9 762.25 8.4255 8.69 8.5216-8.69 10.393 10.604-10.393 10.604-8.5216-8.1775-8.4255 8.1775-10.446-10.604z"/>
 </g>
</svg>
