<svg width="800" height="266.77" space="preserve" version="1.1" viewBox="0 0 800 266.77" xmlns="http://www.w3.org/2000/svg" xmlns:xlink="http://www.w3.org/1999/xlink">
 <link href="" rel="stylesheet" type="text/css"/>
 <style type="text/css"/>
 <style type="text/css">.st0{fill:url(#SVGID_1_);}
	.st1{fill:url(#SVGID_2_);}
	.st2{fill:url(#SVGID_3_);}
	.st3{fill:url(#SVGID_4_);}
	.st4{fill:url(#SVGID_5_);}
	.st5{fill:url(#SVGID_6_);}
	.st6{fill:url(#SVGID_7_);}
	.st7{fill:url(#SVGID_8_);}
	.st8{fill:url(#SVGID_9_);}
	.st9{opacity:0.59;fill:url(#SVGID_10_);enable-background:new    ;}
	.st10{opacity:0.8;fill:url(#SVGID_11_);enable-background:new    ;}
	.st11{opacity:0.45;fill:url(#SVGID_12_);enable-background:new    ;}
	.st12{fill:url(#SVGID_13_);}
	.st13{fill:url(#SVGID_14_);}</style>
 <linearGradient id="SVGID_1_" x1="228.85" x2="228.85" y1="32.7" y2="89.627" gradientTransform="matrix(1.5832 0 0 -1.5832 0 271.05)" gradientUnits="userSpaceOnUse">
  <stop stop-color="#dadad8" offset="0"/>
  <stop stop-color="#fff" offset="1"/>
 </linearGradient>
 <path class="st0" d="m403.72 171.46c0-7.2828-1.5832-13.774-4.2747-19.632-7.1245-14.882-22.165-22.798-36.889-22.798-21.69 0-41.639 16.782-41.639 44.963 0 25.015 15.99 45.28 42.905 45.28 11.716 0 23.748-5.2246 30.239-11.716 3.0081-3.1664 4.2747-5.6996 4.2747-8.0744 0-3.7997-3.3248-6.6495-6.9662-6.6495-2.2165 0-3.6414 0.79161-6.9662 3.3248-5.8579 4.7497-13.299 7.7578-20.74 7.7578-14.407 0-24.698-10.133-25.648-24.382h57.312c5.6996 0 8.391-2.5332 8.391-8.0744zm-41.164-26.44c13.616 0 22.323 9.1827 24.223 20.265h-48.288c2.2165-11.083 9.9743-20.265 24.065-20.265z" fill="url(#SVGID_1_)" stroke-width="1.5832"/>
 <linearGradient id="SVGID_2_" x1="284.55" x2="284.55" y1="32.7" y2="89.627" gradientTransform="matrix(1.5832 0 0 -1.5832 0 271.05)" gradientUnits="userSpaceOnUse">
  <stop stop-color="#dadad8" offset="0"/>
  <stop stop-color="#fff" offset="1"/>
 </linearGradient>
 <path class="st1" d="m491.91 171.46c0-7.2828-1.5832-13.774-4.2747-19.632-7.1245-14.882-22.165-22.798-36.889-22.798-21.69 0-41.639 16.782-41.639 44.963 0 25.015 15.99 45.28 42.905 45.28 11.716 0 23.748-5.2246 30.239-11.716 3.0081-3.1664 4.2747-5.6996 4.2747-8.0744 0-3.7997-3.3248-6.6495-6.9662-6.6495-2.2165 0-3.6414 0.79161-6.9662 3.3248-5.8579 4.7497-13.299 7.7578-20.74 7.7578-14.407 0-24.698-10.133-25.648-24.382h57.312c5.6996 0 8.3911-2.5332 8.3911-8.0744zm-41.164-26.44c13.616 0 22.323 9.1827 24.223 20.265h-48.288c2.0582-11.083 9.816-20.265 24.065-20.265z" fill="url(#SVGID_2_)" stroke-width="1.5832"/>
 <linearGradient id="SVGID_3_" x1="406.05" x2="406.05" y1="32.7" y2="89.627" gradientTransform="matrix(1.5832 0 0 -1.5832 0 271.05)" gradientUnits="userSpaceOnUse" xlink:href="#SVGID_8_">
  <stop stop-color="#dadad8" offset="0"/>
  <stop stop-color="#fff" offset="1"/>
 </linearGradient>
 <path class="st2" d="m684.27 171.46c0-7.2828-1.5832-13.774-4.2747-19.632-7.1245-14.882-22.165-22.798-36.889-22.798-21.69 0-41.639 16.782-41.639 44.963 0 25.015 15.99 45.28 42.905 45.28 11.716 0 23.748-5.2246 30.239-11.716 3.0081-3.1664 4.2747-5.6996 4.2747-8.0744 0-3.7997-3.3248-6.6495-6.9662-6.6495-2.2165 0-3.6414 0.79161-6.9662 3.3248-5.8579 4.7497-13.299 7.7578-20.74 7.7578-14.407 0-24.698-10.133-25.648-24.382h57.312c5.8579 0 8.391-2.5332 8.391-8.0744zm-41.164-26.44c13.616 0 22.323 9.1827 24.223 20.265h-48.288c2.2165-11.083 9.9743-20.265 24.065-20.265z" fill="url(#SVGID_3_)" stroke-width="1.5832"/>
 <linearGradient id="SVGID_4_" x1="370.1" x2="370.1" y1="33.4" y2="89.028" gradientTransform="matrix(1.5832 0 0 -1.5832 0 271.05)" gradientUnits="userSpaceOnUse">
  <stop stop-color="#dadad8" offset="0"/>
  <stop stop-color="#fff" offset="1"/>
 </linearGradient>
 <path class="st3" d="m593.87 138.06v72.036c0 4.5913-3.1664 8.0744-7.9161 8.0744-3.958 0-7.9161-2.8498-7.9161-8.0744v-72.036c0-4.5913 3.3248-8.0744 7.9161-8.0744 3.7997 0.15832 7.9161 2.8498 7.9161 8.0744z" fill="url(#SVGID_4_)" stroke-width="1.5832"/>
 <linearGradient id="SVGID_5_" x1="335.15" x2="335.15" y1="33.4" y2="89.042" gradientTransform="matrix(1.5832 0 0 -1.5832 0 271.05)" gradientUnits="userSpaceOnUse">
  <stop stop-color="#dadad8" offset="0"/>
  <stop stop-color="#fff" offset="1"/>
 </linearGradient>
 <path class="st4" d="m539.88 210.88c-2.2165 5.0663-5.2246 7.2828-9.1827 7.2828-3.958 0-6.8078-2.0582-9.0244-7.2828-2.3748-5.3829-28.023-63.804-29.606-67.287-1.1082-2.6915-1.5832-4.2747-1.5832-5.6996 0-4.7496 3.958-7.9161 8.3911-7.9161 3.6414 0 6.3329 2.3748 7.5994 5.3829 3.1664 7.1245 6.6495 15.041 9.341 21.215 7.1245 16.307 11.874 28.181 15.199 37.364 3.4831-9.341 8.0744-20.74 14.882-37.206 1.7415-4.2747 7.2828-17.257 9.1827-21.532 1.4249-3.1664 3.958-5.3829 7.5994-5.3829 4.433 0 8.0744 3.0081 8.0744 7.5994 0 1.4249-0.63329 3.7997-1.5832 5.6996-0.79161 2.8498-27.073 62.695-29.29 67.762z" fill="url(#SVGID_5_)" stroke-width="1.5832"/>
 <linearGradient id="SVGID_6_" x1="191" x2="191" y1="33.4" y2="88.8" gradientTransform="matrix(1.5832 0 0 -1.5832 0 271.05)" gradientUnits="userSpaceOnUse" xlink:href="#SVGID_7_">
  <stop stop-color="#dadad8" offset="0"/>
  <stop stop-color="#fff" offset="1"/>
 </linearGradient>
 <path class="st5" d="m294.64 162.12v47.972c0 4.5913-3.3248 8.0744-7.9161 8.0744-3.958 0-7.9161-2.8498-7.9161-8.0744v-48.763c0-9.6576 2.6915-17.257 8.2327-22.482 5.6996-5.3829 14.091-8.391 25.49-8.391h4.5913c2.8498 0 5.0663 0.7916 6.4912 2.0582 1.5832 1.4249 2.3748 3.6414 2.3748 5.8579 0 3.7997-2.8498 7.7578-8.0744 7.7578h-6.3329c-6.3329 0-10.449 1.4249-13.141 4.1164-2.6915 3.0081-3.7997 6.8078-3.7997 11.874z" fill="url(#SVGID_6_)" stroke-width="1.5832"/>
 <linearGradient id="SVGID_7_" x1="156.8" x2="156.8" y1="33.4" y2="108.8" gradientTransform="matrix(1.5832 0 0 -1.5832 0 271.05)" gradientUnits="userSpaceOnUse">
  <stop stop-color="#dadad8" offset="0"/>
  <stop stop-color="#fff" offset="1"/>
 </linearGradient>
 <path class="st6" d="m287.35 107.5c0 3.7997-2.8498 8.7077-7.9161 8.7077h-34.831c-6.8078 0-11.241 1.2666-14.091 4.1164-2.8498 2.8498-3.958 6.6495-3.958 13.299v15.832h36.572c4.433 0 7.7578 3.4831 7.7578 7.9161 0 3.7997-2.6915 7.9161-7.7578 7.9161h-36.572v44.647c0 4.5913-4.1164 8.2327-8.7077 8.2327-3.958 0-8.7077-3.0081-8.7077-8.2327v-77.578c0-10.924 2.8498-18.524 8.3911-24.065 5.6996-5.6996 14.091-9.4993 26.281-9.4993h35.622c4.433 0 7.9161 4.1164 7.9161 8.7077z" fill="url(#SVGID_7_)" stroke-width="1.5832"/>
 <linearGradient id="SVGID_8_" x1="468.45" x2="468.45" y1="33.405" y2="89.047" gradientTransform="matrix(1.5832 0 0 -1.5832 0 271.05)" gradientUnits="userSpaceOnUse">
  <stop stop-color="#dadad8" offset="0"/>
  <stop stop-color="#fff" offset="1"/>
 </linearGradient>
 <path class="st7" d="m755.83 158.01c3.1664 9.1827 7.2828 23.59 9.4993 32.931 2.6915-9.4993 7.2828-22.957 10.608-31.981 3.1664-8.866 4.7496-13.616 7.9161-22.482 1.4249-4.2747 4.1164-6.6495 7.9161-6.6495 4.5913 0 8.2327 3.0081 8.2327 7.7578 0 1.2666-0.31664 3.0081-1.5832 6.3329-3.6414 9.9743-20.898 57.787-24.223 66.653-1.8999 5.0663-4.7497 7.2828-8.7077 7.2828s-7.2828-2.5332-8.866-7.2828c-1.7415-5.3829-3.0081-9.0243-6.0162-18.049-3.958-12.032-6.8078-22.165-9.0243-30.556-2.2165 8.5494-6.4912 22.482-9.1827 30.714-2.8498 8.7077-3.958 11.874-6.0162 17.732-1.5832 4.7497-4.5913 7.2828-8.7077 7.2828-3.958 0-6.9662-2.5332-8.7077-7.2828-2.6915-7.4411-21.057-58.262-24.065-66.653-1.1082-3.1664-1.5832-4.7497-1.5832-6.3329 0-5.0663 3.958-7.7578 8.3911-7.7578 3.4831 0 6.4912 2.0582 7.9161 6.6495 3.0081 8.866 4.7496 13.457 7.9161 22.482 3.0081 8.391 6.9662 20.582 10.449 31.981 2.3748-9.1827 6.1746-22.165 9.6576-32.773 1.8999-5.5413 3.1664-9.4993 4.7497-13.774 2.2165-5.6996 5.2246-8.2327 9.341-8.2327s7.1245 2.3748 9.341 8.2327c2.6915 7.7578 3.3248 9.1827 4.7496 13.774z" fill="url(#SVGID_8_)" stroke-width="1.5832"/>
 <g transform="scale(1.5832)">
  <radialGradient id="SVGID_9_" cx="-846.43" cy="710.07" r="161.45" gradientTransform="matrix(-.9612 .2758 .2863 .9977 -874.64 -406.73)" gradientUnits="userSpaceOnUse">
   <stop stop-color="#FC1E00" offset=".5416"/>
   <stop stop-color="#FD7B01" offset=".8544"/>
   <stop stop-color="#FDA101" offset="1"/>
  </radialGradient>
  <path class="st8" d="m8.1 38.4c-5.2-5.7-8-10.8-8-17 0-5.9 2.3-11.1 6.1-15 3.9-4 9.9-6.4 16.4-6.4h92.2c6.5 0 12.4 2.4 16.4 6.4 3.8 3.9 6.1 9.2 6.1 15 0 5.9-2.3 11.3-6.1 15.2-3.9 4-9.9 6.7-16.4 6.7h-44c9 9.4 27.1 27 33.3 33.8 5.3 5.8 8 10.5 8 16.9 0 5.5-2.3 11.3-6.1 15.2-3.9 4-9.9 6.7-16.4 6.7h-46.8v30.1c0 6.5-2.3 12.4-6.3 16.4-3.9 3.8-9.1 6.1-15 6.1s-10.9-2.3-14.8-6.1c-4-3.9-6.1-9.9-6.1-16.4v-51.1c0-7.2 2-12.1 5.8-15.9 3.9-4 9.8-6.4 16.6-6.4h18.4z" fill="url(#SVGID_9_)"/>
  <linearGradient id="SVGID_10_" x1="23.332" x2="33.349" y1="39.617" y2="56.888" gradientTransform="matrix(1,0,0,-1,0,171.2)" gradientUnits="userSpaceOnUse">
   <stop stop-color="#FDA101" stop-opacity="0" offset="0"/>
   <stop stop-color="#FB9E02" stop-opacity=".1936" offset=".1936"/>
   <stop stop-color="#F79305" stop-opacity=".3567" offset=".3567"/>
   <stop stop-color="#EF820B" stop-opacity=".5087" offset=".5087"/>
   <stop stop-color="#E36912" stop-opacity=".654" offset=".654"/>
   <stop stop-color="#D4491C" stop-opacity=".7946" offset=".7946"/>
   <stop stop-color="#C32328" stop-opacity=".9297" offset=".9297"/>
   <stop stop-color="#B80C2F" offset="1"/>
  </linearGradient>
  <path class="st9" d="m0.6 146c0 6.5 2.1 12.4 6.1 16.4 3.9 3.8 8.9 6.1 14.8 6.1s11.1-2.3 15-6.1c4-3.9 6.3-9.9 6.3-16.4v-30.1h-42.2z" fill="url(#SVGID_10_)"/>
  <linearGradient id="SVGID_11_" x1="46.37" x2="56.023" y1="77.155" y2="95.159" gradientTransform="matrix(1,0,0,-1,0,171.2)" gradientUnits="userSpaceOnUse">
   <stop stop-color="#FC1E00" stop-opacity="0" offset=".2"/>
   <stop stop-color="#FC4500" stop-opacity=".2722" offset=".3908"/>
   <stop stop-color="#FD8701" stop-opacity=".7671" offset=".7377"/>
   <stop stop-color="#FDA101" offset=".901"/>
  </linearGradient>
  <path class="st10" d="m23 72.6c-6.8 0-12.7 2.4-16.6 6.4-3.8 3.9-5.8 8.7-5.8 15.9v21h83l-42.2-43.3z" fill="url(#SVGID_11_)"/>
  <linearGradient id="SVGID_12_" x1="65.718" x2="74.412" y1="108.45" y2="129.97" gradientTransform="matrix(1,0,0,-1,0,171.2)" gradientUnits="userSpaceOnUse">
   <stop stop-color="#B80C2F" stop-opacity="0" offset=".12"/>
   <stop stop-color="#9C0D29" stop-opacity=".1778" offset=".232"/>
   <stop stop-color="#65101C" stop-opacity=".5601" offset=".4729"/>
   <stop stop-color="#431114" stop-opacity=".8456" offset=".6527"/>
   <stop stop-color="#361211" offset=".75"/>
  </linearGradient>
  <path class="st11" d="m41.4 72.6 42.2 43.4h5.9c6.5 0 12.5-2.7 16.4-6.7 3.8-3.9 6.1-9.7 6.1-15.2 0-6.4-2.7-11.1-8-16.9-6.2-6.8-24.2-24.4-33.3-33.8h-57.8z" fill="url(#SVGID_12_)"/>
  <radialGradient id="SVGID_13_" cx="22.114" cy="750.75" r="100.32" fx="62.876" fy="786.02" gradientTransform="matrix(.6814 .7319 .4552 -.4238 -339.7 332.52)" gradientUnits="userSpaceOnUse">
   <stop stop-color="#C5143D" offset=".089625"/>
   <stop stop-color="#CF1540" stop-opacity="0" offset=".9101"/>
  </radialGradient>
  <path class="st12" d="m8.1 38.4c-5.2-5.7-8-10.8-8-17 0-5.9 2.3-11.1 6.1-15 3.9-4 9.9-6.4 16.4-6.4h92.2c6.5 0 12.4 2.4 16.4 6.4 3.8 3.9 6.1 9.2 6.1 15 0 5.9-2.3 11.3-6.1 15.2-3.9 4-9.9 6.7-16.4 6.7h-44c9 9.4 27.1 27 33.3 33.8 5.3 5.8 8 10.5 8 16.9 0 5.5-2.3 11.3-6.1 15.2-3.9 4-9.9 6.7-16.4 6.7h-46.8v30.1c0 6.5-2.3 12.4-6.3 16.4-3.9 3.8-9.1 6.1-15 6.1s-10.9-2.3-14.8-6.1c-4-3.9-6.1-9.9-6.1-16.4v-51.1c0-7.2 2-12.1 5.8-15.9 3.9-4 9.8-6.4 16.6-6.4h18.4z" fill="url(#SVGID_13_)"/>
  <radialGradient id="SVGID_14_" cx="-81.11" cy="-255.01" r="76.779" gradientTransform="matrix(.9516 -.3073 -.1808 -.5598 50.073 -171.35)" gradientUnits="userSpaceOnUse">
   <stop stop-color="#F819A5" offset=".06135"/>
   <stop stop-color="#F8199D" stop-opacity=".8515" offset=".2008"/>
   <stop stop-color="#F71988" stop-opacity=".6262" offset=".4122"/>
   <stop stop-color="#F51966" stop-opacity=".3522" offset=".6694"/>
   <stop stop-color="#F21937" stop-opacity=".042384" offset=".9602"/>
   <stop stop-color="#F21930" stop-opacity="0" offset="1"/>
  </radialGradient>
  <path class="st13" d="m131.1 6.4c-3.9-4-9.9-6.4-16.4-6.4h-92.2c-6.5 0-12.4 2.4-16.4 6.4-3.8 3.9-6.1 9.1-6.1 15 0 6.3 2.8 11.3 8 17l33.3 34.2 42.2 43.4h5.9c6.5 0 12.5-2.7 16.4-6.7 3.8-3.9 6.1-9.7 6.1-15.2 0-6.4-2.7-11.1-8-16.9-6.2-6.8-24.2-24.4-33.3-33.8h44c6.5 0 12.4-2.7 16.4-6.7 3.8-3.9 6.1-9.4 6.1-15.2 0.1-6-2.2-11.2-6-15.1z" fill="url(#SVGID_14_)"/>
 </g>
</svg>
