<svg width="800" height="282.29" version="1.1" viewBox="0 0 211.67 74.69" xmlns="http://www.w3.org/2000/svg" xmlns:xlink="http://www.w3.org/1999/xlink">
 <defs>
  <linearGradient id="b" x1="212.74" x2="347.9" y1="82.52" y2="231.49" gradientUnits="userSpaceOnUse">
   <stop stop-color="#0030a8" offset="0"/>
   <stop stop-color="#000c53" offset=".99"/>
  </linearGradient>
  <linearGradient id="a" x1="345.15" x2="345.15" y1="61.31" y2="152.06" gradientUnits="userSpaceOnUse">
   <stop stop-color="red" offset="0"/>
   <stop stop-color="#e50000" offset=".99"/>
  </linearGradient>
  <linearGradient id="c" x1="423.66" x2="423.66" y1="1.62" y2="150.1" xlink:href="#a"/>
  <linearGradient id="linearGradient883" x1="345.15" x2="345.15" y1="61.31" y2="152.06" gradientUnits="userSpaceOnUse" xlink:href="#a"/>
 </defs>
 <g transform="translate(-48.009 -94.548)">
  <g transform="matrix(.48425 0 0 .48425 48.009 94.552)" data-name="Layer 2">
   <g data-name="Layer 1">
    <path d="m376.11 2.56h-74.4l74.4 89.64zm-68.11 59.44v89.65h74.4zm-59.38 12.1a35.84 35.84 0 0 0 19.81-32.8q0-17.89-14.59-28.34t-41.91-10.4h-64.18v149.12h68.44q29.19 0 44.42-10.55t15.23-30.13q0-13.84-7.24-23.33t-20.03-13.54zm-66.57-45.55h25.62q12.78 0 19.39 4.36t6.6 13.1q0 8.75-6.6 13.21t-19.39 4.48h-25.62zm52.14 92.66q-6.91 4.49-20.56 4.48h-31.58v-36.86h31.58q27.5 0 27.49 18.54 0 9.38-6.93 13.84zm-127.6-2.77a52.65 52.65 0 0 1-26 6.4 47.9 47.9 0 0 1-24.22-6.08 43 43 0 0 1-16.6-16.93 50.35 50.35 0 0 1-6-24.71 50.82 50.82 0 0 1 6-24.93 42.13 42.13 0 0 1 16.7-16.83 49.7 49.7 0 0 1 24.53-5.96 48.19 48.19 0 0 1 34.18 13.66l21.82-20.4a68.71 68.71 0 0 0-23.19-16.06 86.87 86.87 0 0 0-34.43-6.6q-22.68 0-40.83 9.91a72 72 0 0 0-28.34 27.48q-10.21 17.61-10.21 39.73t10.21 39.73a72.45 72.45 0 0 0 28.14 27.48q17.94 9.9 40.41 9.9a102.44 102.44 0 0 0 31.13-4.9 86 86 0 0 0 27.22-14.06v-60.5h-30.52z" fill="url(#b)" data-name="GBN"/>
    <path d="m382.35 151.68-74.4-89.65 57.55 89.65z" fill="url(#linearGradient883)"/>
    <path d="m410.24 2.56h26.86v149.12h-26.86z" fill="url(#c)" data-name="red"/>
    <path d="m365.5 151.68-57.55-89.65 40.71 89.65z" fill="#fff" data-name="red"/>
   </g>
  </g>
 </g>
</svg>
