<svg width="40.451" height="51.793" enable-background="new 0 0 39 49" version="1.1" viewBox="0 0 37.923 48.556" xml:space="preserve" xmlns="http://www.w3.org/2000/svg" xmlns:xlink="http://www.w3.org/1999/xlink"><defs><linearGradient id="e" x1="-286.07" x2="-285.97" y1="420.87" y2="420.87" gradientTransform="matrix(-3515.3 -5858.9 -5858.9 3515.3 1460796 -3154787)" gradientUnits="userSpaceOnUse"><stop stop-color="#E8E8E8" offset="0"/><stop stop-color="#E6E6E6" offset="1"/></linearGradient><radialGradient id="b" cx="77.648" cy="-116.99" r="305.54" gradientTransform="matrix(7.9552 -4.5929 .38365 .6645 -519.73 832.08)" gradientUnits="userSpaceOnUse" xlink:href="#a"/><linearGradient id="a"><stop stop-color="#f27124" offset="0"/><stop stop-color="#fcc34f" offset="1"/></linearGradient><radialGradient id="c" cx="24.163" cy="40.57" r="18.96" gradientTransform="matrix(-9.9783e-8 -9.3143 18.984 -2.0337e-7 -2.5617 428.37)" gradientUnits="userSpaceOnUse" xlink:href="#a"/><radialGradient id="d" cx="732.31" cy="734.14" r="327.04" gradientTransform="matrix(3.5163e-8 -1.1303 1.9025 5.9184e-8 -664.37 1474.4)" gradientUnits="userSpaceOnUse"><stop stop-color="#2d9cd6" offset="0"/><stop stop-color="#3073b7" offset=".45537"/><stop stop-color="#2f4496" offset="1"/></radialGradient></defs><g transform="matrix(.049623 0 0 .049623 -.045439 -.094721)"><path d="m462.35 573.77c-45.267 0-81.928-36.641-81.928-81.807 0-45.267 36.661-81.968 81.928-81.968 45.307 0 81.887 36.701 81.887 81.968-0.02 45.166-36.58 81.807-81.887 81.807m-194.05-250.18c-208.92 150.57-150.23 362.52-150.23 362.52h535.99c108.61-13.503 110.61-101.05 110.61-101.05v-302.72s-287.34-109.18-496.36 41.256" fill="url(#e)"/><path d="m764.93 200.68v-93.919s-2.8216-105.69-131.37-104.84h-503.36c-126.83-0.84649-129.59 119.92-129.27 104.58v441.34-1.9953 38.576s2.1666 87.672 110.26 100.21l7.2153 0.38294 535.08-0.38294c109.02-12.536 111.15-106.7 110.93-100.21v-289.28l0.2519-13.846 0.4031-80.618z" fill="#fff"/><path d="m334.19 3.1231-93.214 135.54s91.058-67.195 155.43-57.158c0 0 39.341 4.5952 114.34 54.377l101.32 62.922s-161.13-26.463-311.55 20.981c0 0-252.35 72.435-299.53 328.5v-441.06s2.5193-105.19 130.3-104.1z" fill="url(#b)"/><path d="m764.87 107.22s-2.5394-105.19-130.38-104.1h-176.19l-20.88 0.16124 327.71 198.46z" fill="url(#c)"/><path d="m462.21 572.67c-45.166 0-81.908-36.58-81.908-81.867 0-45.226 36.742-81.887 81.908-81.887 45.226 0 81.847 36.661 81.847 81.887-0.02 45.267-36.621 81.867-81.847 81.867m-193.97-250.04c-208.9 150.51-150.21 362.54-150.21 362.54h535.97c108.55-13.584 110.53-101.24 110.53-101.24v-302.62s-287.36-109.38-496.28 41.317" fill="url(#d)"/></g><path d="m1.305 48.378v-11.655h1.6l6.094 9.146v-9.146h1.488v11.654h-1.592l-6.098-9.142v9.142h-1.492z" fill="#fff"/><path d="m17.471 45.663 1.429 0.182c-0.237 0.863-0.663 1.532-1.298 2.001-0.631 0.475-1.435 0.709-2.417 0.709-1.23 0-2.212-0.378-2.936-1.133-0.721-0.758-1.083-1.82-1.083-3.188 0-1.417 0.371-2.513 1.096-3.292 0.73-0.785 1.682-1.176 2.844-1.176 1.131 0 2.049 0.383 2.767 1.155 0.715 0.76 1.069 1.845 1.069 3.232 0 0.084 0 0.21-6e-3 0.384h-6.309c0.054 0.925 0.32 1.629 0.797 2.12 0.478 0.498 1.072 0.74 1.789 0.74 0.532 0 0.989-0.14 1.359-0.415 0.374-0.27 0.673-0.713 0.899-1.319zm-4.752-2.29h4.764c-0.059-0.715-0.247-1.255-0.549-1.614-0.453-0.554-1.053-0.826-1.791-0.826-0.665 0-1.225 0.218-1.675 0.664-0.451 0.444-0.702 1.037-0.749 1.776z" fill="#fff"/><path d="m21.007 48.378-2.591-8.434h1.494l1.367 4.854 0.478 1.826c0.017-0.089 0.167-0.67 0.452-1.741l1.337-4.939h1.466l1.252 4.887 0.408 1.614 0.495-1.626 1.479-4.875h1.392l-2.7 8.434h-1.457l-1.324-5.057-0.322-1.432-1.739 6.488h-1.487z" fill="#fff"/><path d="m29.642 45.818 1.394-0.18c0.083 0.565 0.3 1.005 0.666 1.305 0.359 0.302 0.867 0.454 1.516 0.454 0.661 0 1.146-0.131 1.461-0.402 0.314-0.268 0.475-0.584 0.475-0.944 0-0.322-0.146-0.58-0.432-0.759-0.198-0.135-0.687-0.302-1.456-0.499-1.038-0.256-1.76-0.486-2.163-0.678-0.396-0.193-0.702-0.467-0.908-0.801-0.21-0.337-0.314-0.713-0.314-1.123 0-0.377 0.083-0.722 0.254-1.043 0.172-0.323 0.406-0.584 0.704-0.803 0.215-0.155 0.516-0.293 0.901-0.41 0.379-0.116 0.785-0.17 1.231-0.17 0.65 0 1.225 0.1 1.718 0.287 0.509 0.183 0.87 0.443 1.108 0.768 0.236 0.328 0.396 0.748 0.493 1.298l-1.408 0.187c-0.057-0.434-0.245-0.772-0.542-1.01-0.305-0.24-0.728-0.362-1.28-0.362-0.65 0-1.117 0.107-1.392 0.326-0.279 0.214-0.418 0.47-0.418 0.765 0 0.188 0.057 0.354 0.174 0.501 0.113 0.152 0.298 0.28 0.54 0.383 0.144 0.052 0.56 0.179 1.25 0.366 1.005 0.267 1.714 0.486 2.104 0.66 0.405 0.168 0.715 0.417 0.951 0.744 0.227 0.326 0.349 0.738 0.349 1.223 0 0.471-0.144 0.922-0.42 1.343-0.274 0.416-0.674 0.742-1.194 0.972-0.521 0.228-1.114 0.34-1.773 0.34-1.093 0-1.924-0.228-2.498-0.686-0.575-0.465-0.936-1.15-1.091-2.052z" fill="#fff"/></svg>
