<svg width="800" height="257.73" version="1.1" viewBox="0 0 211.67 68.192" xmlns="http://www.w3.org/2000/svg">
 <g transform="translate(37.047 -92.149)">
  <g stroke-width="1.0074">
   <g transform="matrix(1.4479 0 0 1.4479 16.595 -71.825)">
    <path d="m-24.998 151.09q0 3.3848-1.2492 4.9161-1.4104 1.6924-4.7146 1.6924-3.3445 0-4.634-1.2895-1.2492-1.2492-1.2492-4.5937h4.6743q0 1.6924 1.1686 1.6924t1.1686-1.7327v-1.3298q-0.72532 0.52384-1.773 0.52384-5.4399 0-5.4399-5.7623v-9.7919q0-5.7623 5.4399-5.7623 0.9671 0 1.773 0.72532v-0.72532h4.8355zm-4.8355-6.2458v-9.0665q0-1.6118-1.1686-1.6118t-1.1686 1.6118v9.0665q0 1.6118 1.1686 1.6118t1.1686-1.6118z" style="white-space:pre"/>
    <path d="m-11.459 151.33q0 5.6414-5.9638 5.6414t-5.9638-5.6414v-14.708q0-3.4654 1.2089-5.1176 1.3701-1.8536 4.7549-1.8536t4.7549 1.8536q1.2089 1.6521 1.2089 5.1176v10.759h-7.0518v3.2237q0 1.8536 1.2895 1.8536t1.2895-1.8536v-1.1283h4.4728zm-4.4728-7.898v-7.2935q0-1.9745-1.2895-1.9745t-1.2895 1.9745v7.2935z" style="white-space:pre"/>
    <path d="m3.6923 150.76q0 5.6414-5.9638 5.6414t-5.9638-5.6414v-12.089h-1.6118v-4.6743h1.6118v-4.3519h4.8758v4.3519h7.0518v4.6743h-7.0518v11.363q0 1.8536 1.2895 1.8536t1.2895-1.8536v-2.6595h4.4728z" style="white-space:pre"/>
   </g>
   <g transform="matrix(1.4479 0 0 1.4479 60.4 -71.825)">
    <path d="m22.873 156.41h-10.275v-26.756h4.9967v21.518h5.2787z" style="white-space:pre"/>
    <path d="m36.493 150.16q0 6.2458-6.0041 6.2458t-6.0041-6.2458v-20.511h4.8758v20.47q0 1.773 1.1283 1.773t1.1283-1.773v-20.47h4.8758z" style="white-space:pre"/>
    <path d="m51.765 150.2q0 3.5057-1.3701 5.0773-1.4909 1.6924-4.9564 1.6924-3.4251 0-4.9161-1.6924-1.3701-1.5715-1.3701-5.0773v-13.781q0-3.5057 1.4104-5.1176 1.4506-1.6521 4.8758-1.6521 3.4654 0 4.9564 1.6924 1.3701 1.5715 1.3701 5.0773v2.3774h-4.9967v-2.6192q0-1.2895-1.3298-1.2895-1.2895 0-1.2895 2.0148v12.814q0 2.0148 1.2895 2.0148 1.3298 0 1.3298-1.2895v-7.0115h4.9967z" style="white-space:pre"/>
    <path d="m65.224 156.41h-4.8758v-6.8503q0-1.6118-1.1283-1.6118-1.1686 0-1.1686 1.6118v6.8503h-4.6743v-26.756h4.6743v14.506l2.5386-9.9128h4.7952l-2.6998 9.7516q2.5386 1.2492 2.5386 5.1982z" style="white-space:pre"/>
    <path d="m78.884 151.33q0 5.6414-5.9638 5.6414t-5.9638-5.6414v-3.949h4.4728v3.2237q0 1.8536 1.2895 1.8536 1.3298 0 1.3298-1.8536v-5.9235q-0.80592 0.72532-1.773 0.72532-5.4399 0-5.4399-5.7623v-9.9933h4.8758v9.6307q0 1.6118 1.1686 1.6118t1.1686-1.6118v-9.6307h4.8355z" style="white-space:pre"/>
   </g>
  </g>
  <g transform="matrix(1.4479 0 0 1.4479 -129.91 123.01)">
   <g stroke-linecap="square">
    <path d="m124.06-8.8496c-9.5524 1.8e-6 -17.318 7.764-17.318 17.316 0 9.5524 7.766 17.318 17.318 17.318 9.5524-2e-6 17.316-7.7659 17.316-17.318 0-9.5524-7.764-17.316-17.316-17.316z" color="#000000" fill="#060202" style="-inkscape-stroke:none;paint-order:stroke fill markers"/>
    <path d="m140.36 8.4675a16.301 16.301 0 0 1-16.301 16.301 16.301 16.301 0 0 1-16.301-16.301 16.301 16.301 0 0 1 16.301-16.301 16.301 16.301 0 0 1 16.301 16.301z" color="#000000" fill="#cf261d" stroke-width="2.0331" style="-inkscape-stroke:none;paint-order:stroke fill markers"/>
   </g>
   <path d="m117.94-21.301c-0.11396-0.0061-0.23692-0.02059-0.34552 0.0066-0.96784 0.26179-1.473 1.2351-2.3377 1.6714-0.84619 0.4469-1.7344 0.81187-2.5515 1.3143 1.19 0.92288 2.52 1.6343 3.8263 2.3667-0.17717 0.78273-0.42588 1.5468-0.53959 2.3427-0.0978 1.1371 0.0187 2.2768-0.0368 3.4165 0 0.74042-0.49306 1.257-0.51053 2.1049-0.0308 0.65051 0.10324 1.362-0.14797 1.9728l0.20607 1.0947c0.0793 1.4544-0.91219 2.6444-2.0096 3.4641-1.3751 0.97841-2.2029 2.5121-2.8587 4.0246-0.34377 0.75893 0.11655 1.5309 0.40479 2.2211-0.44955 0.40723-0.94664 0.75892-1.4782 1.0524 0.84619 0.095197 1.6791 0.26996 2.5147 0.43655 0.0344 1.8722 1.2e-4 3.7445-0.2696 5.6008 1.5284-0.72984 2.3798-2.2559 3.6861-3.2608-0.37286 1.5311-0.86477 3.0308-1.391 4.5143-0.34641 0.69018 0.16916 1.3644 0.51557 1.9356 1.383 1.97 3.3716 3.5355 5.6484 4.3341 2.7951 0.82768 5.8944 0.97819 8.6102-0.22234 3.8026-1.6607 6.8857-5.434 6.8566-9.7126 0.0307-1.2662-1.018-1.883-1.3406-2.9222-0.10577-0.7272-0.0159-1.4621 0.0132-2.1893 0.907-0.042311 1.8169-0.050171 2.7266-0.058104-0.57383-0.47598-1.1716-0.92828-1.6556-1.4995 5e-3 -0.40194 0.0926-0.79873 0.15611-1.1954-0.75364-0.43103-1.4887-0.89632-2.1948-1.3987 0.26444-1.3592 0.53928-2.9007 1.7478-3.7628 0.20086-0.14415 0.34111-0.01874 0.90177-0.62674 0.78537-0.81975 1.6978-1.5416 2.3086-2.5147 0.49185-0.7272 0.63704-1.6186 1.0734-2.3749 0.56324-0.95726 0.92578-2.0333 1.0633-3.136 0.0435-0.70376 0.0248-1.895-0.5423-2.0731-1.8431-0.55003-3.7309-0.9547-5.5423-1.6052-0.54473-0.16395-1.1451-0.44961-1.711-0.20104-1.2296 0.51036-2.3456 1.2772-3.6016 1.7241-0.96519 0.07669-2.121 0.20641-2.9222-0.43616-0.7457-1.2111-0.98627-2.7293-2.0414-3.75-1.1371-0.98105-2.6892-1.1608-3.9797-1.8589-0.71266-0.33319-1.4536-0.75748-2.2513-0.79989z" stroke-width=".26444"/>
   <path d="m115.49-0.64184c0.66638-1.1767 2.089-1.4597 3.3319-1.3063 0.30146 0.57382 0.66373 1.1106 1.0154 1.6554 0.0608 0.84619 0.0926 1.9833-0.7748 2.4407-0.76686 0.46541-1.5496 0.92023-2.2028 1.5417 0.0555 0.50772 0.0265 1.0868 0.43367 1.465 0.53152 0.3755 1.19 0.56325 1.8378 0.58705 1.4888-0.095197 2.1366-2.1181 3.7206-1.8352-0.0476 0.13222-0.14015 0.39665-0.18511 0.52623-1.3328 0.84884-2.5412 2.3032-4.2706 2.1525-0.89643-0.071398-1.9648 0.00529-2.6258-0.72191-0.3041-0.27766-0.58969-0.57382-0.88586-0.85941 0.33848-0.089908 0.6796-0.17188 1.0207-0.25386 0.16131-1.4888-1.584-2.5677-1.0181-4.0459 0.1137-0.33583 0.24857-0.66109 0.39665-0.98106 0.70075 0.40987 1.4253 0.84884 2.2689 0.81711-0.24593-0.91759-1.301-0.9837-2.0626-1.182z" fill="#030101" stroke-width=".26444"/>
   <g transform="matrix(.26444 0 0 .26444 104.33 -24.203)" fill="#fff">
    <path d="m70.19 23.09c3.98 4.05 7.15 8.9 8.67 14.41-1.35 0.3-2.7 0.59-4.05 0.9-1.47-5.15-1.43-10.75-4.62-15.31z"/>
    <path d="m112.27 34.35c6.1627 2.2398 12.24 3.83 18.24 6.23 1.84 0.6 1.86 2.78 1.74 4.38-0.27 2.76-0.747 5.2934-2.81 7.79-3.3562-5.2526-7.0416-9.079-10.348-13.542-1.3476-2.0722-2.8176-2.8016-6.8222-4.8577z"/>
    <path d="m68.51 43.49c3.45-2.09 7.61-2.01 11.48-2.56 5.12-0.68 10.52 0.06 14.96 2.83-5 4.1-5.4 10.92-8.12 16.33-4.11 0.98-8.86 0.73-11.74 4.38 6.59-1.94 13.85-0.35 19.01 4.21-2.44-0.55-4.86-1.17-7.32-1.61-1.19 1.04-1.7637 3.32-3.6 3.32-1.5462 0-3.92-2.44-6.32-2.36-0.88 3.17-1.18 7.2 2.18 9.03 4.04 2.01 8.76-0.03 13.08 0.43-2.58 1.28-5.34 2.16-8.15 2.72-3.81 1.14-6.7-2.87-10.58-2.08 1.4 4.05 1.03 8.41 2.17 12.51 0.87 2.17 3.08 3.49 4.05 5.61 0.21 2.56-0.33 5.14 0.08 7.69 4.66 5.98 14.79 6.31 19.29-0.01 2.4-2.74 4.51-5.89 4.88-9.62 3.38-0.08 6.57 1.16 9.41 2.92-1.76 0.15-3.51 0.33-5.26 0.53 1.75 1.53 3.61 2.92 5.41 4.4-2.05 0.31-4.08 0.7-6.07 1.27 0.17 4.55 0.99 9.03 1.01 13.59-0.04 4.32 4.86 6.66 4.97 10.94 0.03 3.22 1.89 6.54 0.36 9.65-2.13 5.45-5.55 10.33-9.31 14.77-7.65 7.3-17.93 12.2-28.61 12.23-0.59-5.42-3.26-10.32-4.18-15.66 0.19-8.43 5.04-15.61 8.18-23.16 1.35-2.92 1.03-6.23 0.98-9.36-0.26156-1.6275-3.7341-1.0988-4.23 0.19-1.25 3.58-0.88 7.49-2.29 11.04-1.06-1.66-2.14-3.29-3.16-4.97-1.01 1.42-2.11 2.77-3.23 4.1-1.38-2.46-2.99-5.2-6.25-5.03-0.44 6.36 2.23 12.37 3 18.62 0.94 4.53 0.77 9.16 0.92 13.76-2.22 2.29-4.44 4.57-6.74 6.78-6.12-3.06-11.93-7.15-16.05-12.68-2.51-2.72 0.16-6.17 0.62-9.18 1.24-6.05 2.65-12.2 6.55-17.18-3.58-2.58-7.02-7.07-11.97-5.51-0.33 2.77-1.62 5.25-3.37 7.38-0.39-3.96-0.4-8.11 1.48-11.73-0.8-0.83-1.6-1.66-2.39-2.49 1.37-0.45 2.75-0.87 4.15-1.24-1.94-0.99-4.64-1.61-5.08-4.11-0.88-2.25 0.47-4.32 1.48-6.23-0.73-1.05-1.47-2.1-2.2-3.14 3.18-3.86 8.39-5.56 10.88-10.03 1.96-3.29 4.21-6.38 6.48-9.45 0.68-2.24-1.03-4.18-1.85-6.12 1.89 0.03 3.79 0.25 5.68-0.02 1.5-1.08 2.88-2.51 3.57-4.24 0.6-1.63-1.65-2.14-2.49-3.04 0.51-0.99 1.03-1.98 1.55-2.97-2.71-1.01-5.5-1.77-8.26-2.6 0.56-1.97 0.94-4 1.69-5.92 2.3-0.41 4.3 1.82 6.68 1.49 1.34 0.11 2.12-1.21 3.07-1.92 2.81-2.64 6.25-4.49 9.52-6.5m-26.3 45.61c2.88 0.75 6.87 1 7.8 4.47-3.19 0.12-5.93-1.54-8.58-3.09-0.56 1.21-1.07 2.44-1.5 3.71-2.14 5.59 4.46 9.67 3.85 15.3-1.29 0.31-2.58 0.62-3.86 0.96 1.12 1.08 2.2 2.2 3.35 3.25 2.5 2.75 6.54 2.46 9.93 2.73 6.54 0.57 11.11-4.93 16.15-8.14 0.17-0.49 0.52-1.49 0.7-1.99-5.99-1.07-8.44 6.58-14.07 6.94-2.45-0.09-4.94-0.8-6.95-2.22-1.54-1.43-1.43-3.62-1.64-5.54 2.47-2.35 5.43-4.07 8.33-5.83 3.28-1.73 3.16-6.03 2.93-9.23-1.33-2.06-2.7-4.09-3.84-6.26-4.7-0.58-10.08 0.49-12.6 4.94z"/>
    <path d="m46.75 61.16c2.61 0.94 4.41 2.98 5.04 5.69-1.5377 0.57573-3.3336 0.76113-5.2497 0.76113-0.5725-1.5638-0.66028-5.2255 0.20972-6.4511z"/>
   </g>
  </g>
 </g>
</svg>
