<svg width="800" height="341.69" version="1.1" viewBox="0 0 800 341.69" xml:space="preserve" xmlns="http://www.w3.org/2000/svg">
<path d="m317.45 1.1007e-5h-76.286v70.018h76.286z" enable-background="new" fill="#01b2d8" stroke-width="1.1827"/>
<g transform="matrix(1.1827 0 0 1.1827 0 1.1007e-5)" fill="#fff">
	<path d="m343.4 64.5h64.5v129h64.5v-193.5h-193.5v193.4h64.5z" enable-background="new"/>
	<path d="m0 0v193.5h193.4v-123.7h-123.7v54h59.3c2.9 0 5.2 2.4 5.2 5.2 0 2.9-2.3 5.2-5.2 5.2h-64.5c-2.9 0-5.2-2.3-5.2-5.2v-64.5c0-2.9 2.4-5.2 5.2-5.2h129v-59.3z" enable-background="new"/>
	<path d="m268.4 69.8h-64.5v123.7h64.5z" enable-background="new"/>
	<path d="m676.4 47.4v-47.4h-47.4l-49.3 49.3-49.3-49.3h-47.4v47.5l49.3 49.3-49.3 49.3v47.4h47.4l49.3-49.3 49.3 49.3h47.4v-47.5l-49.3-49.3z"/>
</g>
<path d="m0 334.12v-60.083c0-3.5482 2.7203-6.3868 6.2685-6.505h42.578c3.1934 0 5.7954 2.602 5.7954 5.7954s-2.4837 5.6771-5.6771 5.7954h-36.073v19.042h31.342c3.1934 0 5.6771 2.602 5.7954 5.7954 0 3.0751-2.602 5.6771-5.6771 5.6771h-31.461v19.633h36.665c3.1934 0 5.6771 2.602 5.6771 5.7954s-2.4837 5.6771-5.6771 5.6771h-43.051c-3.5482 0-6.3868-2.7203-6.505-6.2685v-0.35482z" fill="#01b2d8" stroke-width="1.1827"/>
<g transform="matrix(1.1827 0 0 1.1827 0 1.1007e-5)" fill="#fff">
	<path d="m75.1 281.1c-2.3-1.7-2.7-4.9-1-7.2s4.9-2.7 7.2-1c4.8 4.1 11 6.4 17.4 6.4 6.7 0 10.9-3.2 10.9-7.8v-0.2c0-4.4-2.5-6.8-13.9-9.4-13.1-3.2-20.5-7.1-20.5-18.4v-0.2c0-10.6 8.8-17.9 21.1-17.9 7-0.1 13.8 1.9 19.5 5.8 1.5 0.9 2.4 2.6 2.4 4.3-0.1 2.8-2.3 5-5.1 5-1 0-2-0.3-2.8-0.8-4.2-2.9-9.1-4.6-14.2-4.7-6.3 0-10.1 3.3-10.1 7.3v0.2c0 4.8 2.8 6.8 14.7 9.7 13.1 3.2 19.8 7.8 19.8 18.1v0.2c0 11.6-9.1 18.4-22.1 18.4-8.4 0-16.6-2.7-23.3-7.8z"/>
	<path d="m150.8 231.7c0-3 2.3-5.4 5.3-5.5h18.9c14.5 0 23.5 8.2 23.5 20.6v0.2c0 13.8-11.1 21.1-24.7 21.1h-12.3v14.9c0 3-2.4 5.4-5.4 5.4s-5.4-2.4-5.4-5.4zm23.4 26.7c8.2 0 13.3-4.6 13.3-11v-0.2c0-7.2-5.2-11-13.3-11h-12.6v22.2z"/>
	<path d="m224.6 257.3v-0.2c0.4-17.8 15.1-32 33-31.6 17.2 0.4 31.2 14.2 31.6 31.4v0.2c-0.4 17.8-15.1 32-33 31.6-17.3-0.3-31.2-14.1-31.6-31.4zm53.1 0v-0.2c0-12-8.7-22-21-22s-20.8 9.8-20.8 21.8v0.2c0 12 8.7 21.9 21 21.9s20.8-9.7 20.8-21.7z"/>
	<path d="m319.9 231.7c0-3 2.3-5.4 5.3-5.5h22.3c7.8 0 13.8 2.3 17.8 6.2 3.4 3.6 5.3 8.4 5.1 13.3v0.2c0 9.9-5.7 15.9-14 18.4l11.8 14.9c1.1 1.1 1.7 2.6 1.7 4.1-0.1 2.8-2.3 5-5.1 5-2.1 0-4.1-1-5.3-2.8l-15-19.1h-13.7v16.6c0 3-2.4 5.4-5.4 5.4s-5.4-2.4-5.4-5.4zm26.6 25.1c7.8 0 12.7-4.1 12.7-10.3v-0.2c0-6.6-4.8-10.3-12.8-10.3h-15.8v20.7z"/>
	<path d="m416.1 236.3h-14.9c-2.8-0.2-4.9-2.5-4.7-5.3 0.2-2.6 2.2-4.6 4.7-4.7h41c2.8 0.2 4.9 2.5 4.7 5.3-0.2 2.6-2.2 4.6-4.7 4.7h-15.1v46.7c-0.2 3-2.8 5.3-5.8 5.2-2.8-0.2-5-2.4-5.2-5.2z"/>
	<path d="m472.8 281.1c-2.3-1.7-2.7-4.9-1-7.2s4.9-2.7 7.2-1c4.8 4.1 10.9 6.4 17.3 6.4 6.7 0 10.9-3.2 10.9-7.8v-0.2c0-4.4-2.5-6.8-13.9-9.4-13.1-3.2-20.5-7.1-20.5-18.4v-0.2c0-10.6 8.8-17.9 21.1-17.9 7-0.1 13.8 1.9 19.6 5.8 1.5 0.9 2.4 2.5 2.4 4.3-0.1 2.8-2.3 5-5.1 5-1 0-2-0.3-2.8-0.8-4.2-2.9-9.1-4.6-14.2-4.7-6.3 0-10.1 3.3-10.1 7.3v0.2c0 4.8 2.8 6.8 14.7 9.7 13.1 3.2 19.8 7.8 19.8 18.1v0.2c0 11.6-9.1 18.4-22 18.4-8.6 0-16.7-2.7-23.4-7.8z"/>
</g>
<g transform="matrix(1.1827 0 0 1.1827 0 1.1007e-5)" fill="#01b2d8">
	<path d="m562.3 236.3h-15c-2.8-0.2-4.9-2.5-4.7-5.3 0.2-2.6 2.2-4.6 4.7-4.7h41c2.8 0.2 4.9 2.5 4.7 5.3-0.2 2.6-2.2 4.6-4.7 4.7h-15.1v46.7c-0.2 3-2.8 5.3-5.8 5.2-2.8-0.2-5-2.4-5.2-5.2z"/>
	<path d="m639.8 284.5-21.6-50.8c-0.4-0.8-0.6-1.7-0.6-2.6 0-2.9 2.4-5.3 5.4-5.3h0.1c2.5-0.1 4.8 1.5 5.6 3.9l17.8 44.4 18.1-44.8c0.8-2.1 2.9-3.5 5.1-3.5 2.9-0.1 5.3 2.2 5.4 5.1 0 0.8-0.2 1.6-0.5 2.3l-21.7 51.1c-0.9 2.7-3.4 4.5-6.3 4.4h-0.6c-2.9 0.1-5.3-1.6-6.2-4.2z"/>
</g>
</svg>
