<svg width="800" height="517.48" version="1.1" viewBox="0 0 800 517.48" xmlns="http://www.w3.org/2000/svg">
 <g transform="matrix(1.3333 0 0 -1.3333 -917.45 578.45)">
  <g transform="matrix(5.6105 0 0 5.6105 -3169.6 -210.83)" fill="#fff">
   <g transform="translate(736.36 79.591)">
    <path d="m0 0c-0.01 4.294 3.621 7.786 8.137 7.805 4.519 6e-3 8.181-3.452 8.197-7.753 0.018-4.303-3.639-7.806-8.147-7.817-4.513-0.016-8.181 3.467-8.187 7.765" fill="#fff"/>
   </g>
   <g transform="translate(687.47 114.63)">
    <path d="m0.10996 0.26902h83.445c-1.201-0.498-2.441-1.028-3.737-1.62l-11.608-5.275 7.452-15.339c-2.699 3.661-6.367 6.323-10.685 7.798-5.84 1.961-12.141 1.588-18.099-1.131-5.976-2.713-10.274-7.166-12.467-12.776-1.621-4.277-1.808-8.843-0.487-13.343l-19.925-9.061 4.418-9.067 6.233 2.84c0.645-2.154-0.567-4.151-3.359-5.426-4.561-2.075-8.84-0.189-11.476 5.259-2.623 5.397-1.282 9.952 2.777 11.813 2.462 1.116 4.752 0.895 7.251-0.588l10.541 10.394c-7.238 4.805-15.499 5.402-23.635 1.696-2.53-1.14-4.743-2.592-6.639-4.265z" fill="#fff"/>
   </g>
   <g transform="translate(782.93 87.66)">
    <path d="m 0,0 -7.258,14.949 0.615,0.274 c 5.784,2.64 9.855,1.59 12.307,-3.484 C 8.229,6.501 6.299,2.999 0,0" fill="#fff"/>
   </g>
   <g transform="translate(727.63 62.788)">
    <path d="m39.445 21.799c1.172-4.367 0.92877-8.742-0.67423-12.957-2.102-5.495-6.4909-10.073-12.389-12.771-5.971-2.706-12.294-3.02-18.146-1.059-3.137 1.065-5.9212 2.7368-8.2362 4.9878 0.226-2.193 0.12017-4.3429-0.35383-6.4679-0.887-3.985-2.9151-7.6151-5.8851-10.593h73.138v33.426c-2.744-1.734-5.9569-3.2899-9.5629-4.9419l-10.539-4.7911zm-1.4203-21.749h14.758l3.2082-8.552 3.2082 8.552h3.8499l-5.1332-13.689h-3.8499l-3.8486 10.264h-4.2793v-10.264h-3.8495v10.264h-4.0638z" fill="#fff"/>
   </g>
  </g>
 </g>
</svg>
