<svg width="1454.7pt" height="188.52pt" version="1.1" viewBox="0 0 1454.7 188.52" xmlns="http://www.w3.org/2000/svg">
 <g transform="translate(-.25619 -122.48)" fill="#eb3037">
  <path d="m48 132.05c18.7-9.49 40.58-11.5 61.07-7.89 15.76 2.76 30.93 10.1 41.89 21.9 10.52 11.11 16.85 25.63 19.63 40.56l-48.75-0.02c-3.07-8.46-8.95-16.4-17.61-19.66-13.32-4.96-29.61-2.75-40.22 7.04-9.73 8.93-14.16 22.2-15.28 35.07-1.14 13.83 0.59 28.45 7.76 40.57 5.24 8.98 14.16 15.82 24.38 17.98 10.44 2.18 21.99 1.11 31.13-4.68 6.13-3.88 10.42-10.1 12.77-16.88l-28.15-0.04v-35.74l75.37-0.01c0 6.91 0.04 13.82 0 20.73-0.31 17-4.84 34.28-14.81 48.23-9.14 13.02-22.89 22.48-38.03 27.16-7.75 2.56-15.9 3.37-23.91 4.63h-9.45c-8.32-1.26-16.76-2.16-24.79-4.81-16.76-5.18-31.84-15.73-42.27-29.87-10.87-14.52-16.73-32.41-18.1-50.41-1.56-19.9 1.69-40.48 11.12-58.21 8.05-15.22 20.81-27.97 36.25-35.65z"/>
  <path d="m243.09 125.62c16.84-4.38 34.89-4.19 51.63 0.62 16.68 4.78 31.81 14.88 42.46 28.61 12.29 15.64 18.63 35.39 19.65 55.12 1.27 22.36-3.81 45.52-16.68 64.07-10.32 15.1-25.78 26.55-43.2 32.08-7.99 2.69-16.39 3.62-24.68 4.88h-8.75c-8.61-1.21-17.33-2.25-25.58-5.12-17.9-5.89-33.56-18.14-43.65-34.04-11.91-18.49-16.42-41.05-15.03-62.83 1.15-19.41 7.44-38.81 19.5-54.23 11.02-14.28 26.89-24.63 44.33-29.16m14.4 40.12c-10.13 2.6-18.53 10.08-23.3 19.27-6.56 12.47-7.92 27.08-6.51 40.93 1.38 12.48 5.97 25.28 15.6 33.77 10.58 9.46 26.7 11.39 39.61 5.92 8.91-3.75 15.85-11.24 19.94-19.89 5.76-12.14 6.95-26.04 5.42-39.26-1.51-12.46-6.43-25.11-16.2-33.39-9.35-8.05-22.76-10.51-34.56-7.35z"/>
  <path d="m421.58 127.51c17.06-5.85 35.78-6.5 53.31-2.47 18.28 4.21 35.11 14.65 46.69 29.44 12.67 15.96 19.14 36.24 19.99 56.46 1.06 21.77-3.91 44.23-16.25 62.41-10.42 15.54-26.22 27.36-44.1 32.89-7.78 2.61-15.97 3.46-24.03 4.76h-9.3c-8.37-1.28-16.86-2.22-24.9-5.01-17.79-5.73-33.38-17.81-43.56-33.46-10.94-16.65-15.86-36.77-15.7-56.56 0-20.87 5.7-42.12 18.14-59.08 9.8-13.57 23.88-23.96 39.71-29.38m22.56 37.75c-9.91 2-18.58 8.55-23.76 17.15-7.65 12.5-9.36 27.74-8.16 42.09 1.22 13.23 5.96 26.98 16.4 35.76 11.26 9.57 28.33 10.93 41.35 4.25 8.06-4.12 14.19-11.38 17.91-19.55 5.4-11.81 6.48-25.19 5.12-37.99-1.45-12.57-6.31-25.4-16.15-33.78-8.83-7.69-21.37-10.33-32.71-7.93z"/>
  <path d="m1326.6 139.65c14.55-12.65 34.39-17.53 53.34-17.15 18.27 0.25 37.22 5.06 51.39 17.08 11.67 9.69 19.08 23.9 21.41 38.8l-46.62-0.01c-1.8-4.07-4.04-8.08-7.47-11.01-5.6-5.02-13.34-6.9-20.71-6.77-6.29 0.04-13 1.29-17.87 5.53-5.08 4.33-6.21 12.61-2.25 18.03 2.89 3.82 7.61 5.61 12.13 6.69 12.02 2.8 24.03 5.61 36.06 8.41 15 3.54 30.39 10.13 39.69 22.98 5.91 7.83 8.02 17.64 9.25 27.17v5.01c-1.25 8.19-2.7 16.55-6.79 23.89-7.22 13.73-20.77 23.18-35.32 27.82-7.99 2.75-16.42 3.57-24.7 4.88h-9.73c-16.18-1.67-32.84-4.62-46.6-13.84-15.23-9.58-25.41-26.03-28.41-43.65h49.58c1.46 4.01 3.45 7.92 6.62 10.86 5.89 5.78 14.45 7.79 22.48 7.83 6.75-0.01 14-1.18 19.38-5.58 5.41-4.33 7.17-12.75 3.66-18.78-3.13-4.74-8.95-6.47-14.15-7.82-11.97-2.63-23.98-5.08-35.95-7.66-13.46-2.95-27.2-8.29-36.43-18.94-8-9.07-11.08-21.52-10.65-33.4 0.1-15.32 6.99-30.42 18.66-40.37z"/>
  <path d="m553.98 125.54c23.32-0.1 46.65-0.01 69.97-0.05 18.32 0.05 37.01 4.06 52.69 13.83 13.25 8.15 23.73 20.52 29.93 34.75 7.8 17.81 9.57 37.79 7.43 56.97-2.13 18.82-9.52 37.46-22.94 51.1-12.45 12.95-29.54 20.72-47.1 23.71-12.52 2.32-25.3 1.69-37.97 1.77-17.33 0.01-34.65-0.01-51.98 0.01l-0.03-182.09m47.02 40.96v99.75c7.63-0.05 15.27 0.11 22.9-0.07 11.02-0.49 22.3-4.17 30.23-12.1 8.56-8.35 12.48-20.38 13.26-32.09 0.82-12.51-0.93-25.72-7.77-36.47-5.1-8.13-13.34-14.05-22.51-16.72-11.71-3.57-24.08-1.92-36.11-2.3z"/>
  <path d="m711.75 125.51 160.18-0.06 0.07 41.05h-56.37l-0.01 141.12-47.88-0.01 0.02-141.1-56.01-0.02z"/>
  <path d="m951.62 125.51 58.19-0.03 39.96 113.03 39.65-113 57.95-0.01 0.01 182.11h-44.89l0.02-107.82-37.57 107.84h-30.89l-37.82-107.63 0.02 107.61h-44.63z"/>
  <path d="m1167.1 125.5h130.25l0.01 40.99-83.26 0.01v28.37l76.13 0.01v40.12h-76.13l0.01 31.25 83.25 0.02v41.34l-130.25 0.02z"/>
  <path d="m884 188h47.88l-0.01 119.63-47.81 0.03z"/>
 </g>
 <g transform="translate(-.25619 -122.48)">
  <path d="m901.11 126.25c9.77-2.33 20.81 0.47 27.72 7.91 8.92 9.09 9.15 24.85 0.73 34.34-9.97 11.91-29.91 12.72-41.12 2.13-7.62-6.79-10.32-18.33-6.72-27.84 3.01-8.4 10.76-14.63 19.39-16.54z" fill="#3ccdef"/>
 </g>
</svg>
