<svg version="1.1" xml:space="preserve" xmlns="http://www.w3.org/2000/svg">
<linearGradient id="path331_1_" x1="-261.06" x2="71.094" y1="-703.2" y2="-703.2" gradientTransform="matrix(0 -.8774 -1.1174 0 -18.837 319.71)" gradientUnits="userSpaceOnUse">
	<stop stop-color="#FB9F52" offset="0"/>
	<stop stop-color="#FFA555" offset=".4467"/>
	<stop stop-color="#FA9F55" offset=".5754"/>
	<stop stop-color="#FFA656" stop-opacity="0" offset="1"/>
</linearGradient>
<path d="M760.6,548.8h12.6V257.3h-12.6V548.8z" fill="url(#path331_1_)"/>
<linearGradient id="path357_1_" x1="-261.06" x2="71.094" y1="-703.2" y2="-703.2" gradientTransform="matrix(0 -.8774 -1.1174 0 -756.96 319.71)" gradientUnits="userSpaceOnUse">
	<stop stop-color="#CB5623" offset="0"/>
	<stop stop-color="#C6511E" offset=".5"/>
	<stop stop-color="#C6511E" stop-opacity="0" offset="1"/>
</linearGradient>
<path d="M22.5,548.8h12.6V257.3H22.5V548.8z" fill="url(#path357_1_)"/>
<linearGradient id="path361_1_" x1="-23.064" x2="311.48" y1="-542.01" y2="-542.01" gradientTransform="matrix(2.1635 0 0 -1.1188 85.894 -51.342)" gradientUnits="userSpaceOnUse">
	<stop stop-color="#CB5623" offset="0"/>
	<stop stop-color="#CA5826" offset=".1562"/>
	<stop stop-color="#E07130" offset=".3786"/>
	<stop stop-color="#E57839" offset=".4748"/>
	<stop stop-color="#FB9F52" offset="1"/>
</linearGradient>
<path d="M22.5,548.8v12.6h750.7v-12.6H22.5z" fill="url(#path361_1_)"/>
<g transform="matrix(1.0538 0 0 1.0538 0 .00053824)" fill="#330F42">
	<path d="m58.8 32.8c9.4-3.8 19.7-5.2 29.8-4.9 9.8 0.3 19.7 2.2 28.3 6.9 8.1 4.4 14.7 11.3 18.8 19.6 4.5 9.1 6.1 19.3 6.1 29.3l-47.6 4.5c-0.2-5.2-0.7-10.8-3.9-15.1-3.3-4.4-9.6-5.2-14.7-3.9-5.7 1.5-9.8 6.2-12.5 11.1-4.4 7.9-7.1 16.6-9.6 25.3-2.9 11-5.5 22.1-6.6 33.4-0.4 5.2-0.8 10.7 1.1 15.7 1.3 3.4 4 6.1 7.3 7.4 4.9 1.9 10.3 1.9 15.4 1.4 3.7-0.4 7.3-1.4 10.6-2.9 1.7-7.2 3.3-14.3 5-21.5h-16.6l8-34.9h59.8l-19.1 82.3c-15.8 11.2-35.1 17.2-54.3 18-13.4 0.5-27.4-0.9-39.3-7.5-9.6-5.2-17.1-14.2-20.8-24.5-5-13.6-4.7-28.4-2.6-42.5 1.7-12 4.5-23.8 8.2-35.3 4.1-12.6 9.5-24.8 17.1-35.7 8-11.4 19-21 32.1-26.2z"/>
	<path d="m232.3 32.1c9.7-0.1 19.6 1.8 28 6.7 7.9 4.4 14.1 11.6 17.4 20 2.7 6.7 3.4 14 3 21.2-0.3 10.7-2.5 21.7-8.1 31-8 13.3-21 23.1-35.5 28.1 1.8 7.1 6.4 13.4 12.8 17 6.4 3.7 13.8 5.1 21.1 5.5l-9 38.6c-4.9 0-9.8 0.3-14.6-0.4-8.7-1.1-17.2-3.8-24.8-8.1-6.9-3.8-13-9.2-17.3-15.9-6.4-9.7-10.2-20.9-12.7-32.1h-0.9l-13 56.7h-43.3l38.9-168.3h58zm-23.1 36.6-9 38.6h13.6c5.2-0.1 10.5-1.5 14.5-4.8 4.6-3.8 7.3-9.6 8.3-15.5 0.7-4.5 0.5-9.5-2.3-13.3-2.6-3.4-7-4.9-11.1-5h-14z"/>
	<path d="m316.2 32.1h102.2l-9.2 39.2h-56.3l-5.6 24.7h53l-9.2 39.1h-53l-5.9 26.1h61.4l-18.9 39.1h-97.4l38.9-168.2z"/>
	<path d="m529.1 32.1 2.8 168.3h-44.6l0.7-30.6h-39l-12.7 30.6h-46.4l82-168.3h57.2zm-65.2 101.6h25.2l1.4-64.7-26.6 64.7z"/>
	<path d="m553.8 32.1h117l-9.4 41.5h-34.4l-29.5 126.8h-46.2l29.4-126.8h-36.5l9.6-41.5z"/>
	<path d="M699.2,0h59.9l-47.7,153h-48.1L699.2,0z"/>
	<path d="m677.7 165c9-0.8 18.7 2.8 24 10.4 5.4 7.4 5.7 17.6 2.4 26-3.7 9.6-11.6 17.3-21.1 21-9.1 3.7-20.3 3.5-28.5-2.4-7.3-5.1-11-14.4-10-23.1 1.6-16.8 16.6-30.6 33.2-31.9z"/>
	<path d="m191.7 417c20.2 0 36.3-15.1 36.3-35 0-20.4-16.3-35-36.3-35-20.4 0-36.3 15.4-36.3 35-0.1 20.2 16 35 36.3 35zm0-16.5c-10 0-17.5-8.3-17.5-18.6 0-10.2 6.6-18.6 17.5-18.6 9.7 0 17.5 8 17.5 18.6 0 10.3-6.5 18.6-17.5 18.6z"/>
	<path d="m272.9 347.7c5.6-1.3 11.6-0.9 16.8 1.7 3.5 1.8 6.3 4.7 8.1 8.2 4.4-5.2 10.4-9.3 17.3-10.3 7-1 14.9 0 20.3 4.9 5.1 4.6 7 11.8 7.1 18.5v44.7h-19v-37.6c0-3.8-0.7-7.9-3.4-10.7-2.5-2.6-6.4-3.2-9.8-2.7-2.7 0.3-5.3 1.7-6.8 3.9-2 2.7-2.6 6.2-2.6 9.5v37.6h-19.1v-37.6c0-3.7-0.7-7.7-3.3-10.5-2.4-2.6-6.2-3.4-9.7-2.9-2.7 0.3-5.4 1.6-7 3.8-2.1 2.7-2.7 6.3-2.7 9.7v37.6h-19.1v-67.2h19v9.5c3.5-4.6 8.2-8.7 13.9-10.1z"/>
	<path d="m608.7 347.2c7.2-0.7 14.9 0.4 21.1 4.2 5.2 3.2 9.3 8.1 11.8 13.6 3.3 7.3 4.2 15.5 3.4 23.4h-46.7c0.9 4 2.9 8 6.4 10.3 4.3 3 9.9 3.3 14.9 2.3 4.4-0.9 8.1-3.4 11.3-6.4l10.9 9.7c-4.6 5.8-11.2 10-18.5 11.6-8.9 1.9-18.6 1-26.7-3.3-6.1-3.3-11.2-8.6-14.1-14.9-5.7-12.7-4-28.8 5.1-39.5 5.4-6.2 13-10.2 21.1-11zm-5.4 18.6c-3 2.8-4.6 6.8-5.3 10.8h28.7c-0.5-3.6-1.7-7.1-4.1-9.9-4.7-5.6-14.1-5.9-19.3-0.9z"/>
	<path d="m147.4 347c-2.2 0-4.3 0.2-6.4 0.7-5.7 1.4-11 6.7-13.7 14.3v-13.7h-19v67.2h19.1v-27c0.3-3.2 0.8-6.6 1.7-8.9 2.7-6.8 6.7-10.3 12-11.6 3.5-0.8 4.2-0.9 7.9-0.8v-20.2h-1.6z"/>
	<path d="m474.1 347c-2.2 0-4.3 0.2-6.4 0.7-5.7 1.4-10.1 5.5-13.7 10v-9.5h-19v67.2h19v-37.4c0-3.4 0.7-6.9 2.8-9.7 1.7-2.2 4.3-3.5 7-3.8 3.4-0.4 7.8 0.3 10.2 2.9 2.6 2.8 3.3 6.8 3.3 10.5v37.5h19.1v-44.7c-0.1-4.4-1.1-9-3.1-13 0-0.1-0.1-0.2-0.1-0.2-0.2-0.3-0.3-0.6-0.5-0.9 0 0 0-0.1-0.1-0.1-0.9-1.5-2-2.9-3.4-4.1l-0.2-0.2c-1.1-1-2.4-1.9-3.8-2.6-3.2-1.7-7.5-2.6-11.1-2.6z"/>
	<path d="m545.3 346.9c-2.9 0-5.9 0.3-8.8 1h-0.1l-0.2 0.1c-7.7 1.9-14.8 6.4-19.6 12.8-5.4 7.1-7.7 16.2-6.8 25 0.7 7.6 4 15 9.3 20.6 5.6 5.9 13.3 9.6 21.4 10.5 6.6 0.6 13.8 0 19.9-3 4.7-2.3 8.4-5.4 11.7-9.1l-11.4-11.4-0.1 0.1c-3.3 3.3-7.2 6.1-11.6 6.9s-9.1 0-12.8-2.4c-3.6-2.3-6.1-6.3-7.2-10.4-1.2-4.8-0.8-10.2 1.4-14.6 1.7-3.4 4.5-6.4 8-7.9 3.5-1.6 7.7-1.8 11.5-0.7 3.7 1 7 3.6 9.8 6.6l0.2 0.2 11.8-12.5c-1.3-1.4-2.7-2.7-4.2-3.9-5.5-4.5-12.3-7-19.3-7.4-0.9-0.5-1.9-0.5-2.9-0.5z"/>
	<path d="m385 347.5c-1.8 0-3.6 0.1-5.4 0.2-6.3 0.6-11.9 2-17.6 4.6l-1.4 0.7 4.9 14.5c3.9-1.6 7.6-2.6 11.3-3.1s6.9-0.8 11.2-0.2c3.3 0.5 6.5 2 8.2 4.5 2.2 3 2 6.3 2.1 8.5-6.7-1.9-12.3-3.1-18.4-2.7-5.5 0.4-11.6 1.2-16.5 4.5-4 2.6-7 6.8-8.1 11.6-1 5.4-0.7 11.3 2.4 16.5 2 2.9 4.3 5.2 7.2 6.7 8 4.2 18.8 3.9 26.3-0.1 2.8-1.5 5.2-3.3 7-5.7v7.6h18.3v-40.2c-0.1-4.6-0.7-9.2-2.7-13.5-2.4-5.4-6.8-9.6-12.3-11.8-5.3-2.3-11.4-2.7-16.5-2.6zm0.8 38.4c4.4 0 8.8 0.7 13 2.2 0 2.5 0.1 4.9-0.6 6.7-1.1 3.4-4 6-7.3 7.3-3.4 1.3-7.1 1.7-10.5 0.9-2.4-0.6-4.7-1.8-5.9-3.7-1.1-1.7-1.3-4.1-0.9-6.4 0.4-2 1.8-3.8 3.6-4.9 2.3-1.5 5.4-2 8.6-2.1z"/>
</g>
</svg>
