<svg width="1684.7pt" height="658.58pt" version="1.1" viewBox="0 0 1684.7 658.58" xmlns="http://www.w3.org/2000/svg">
 <g transform="translate(-6.1968 -7.4499)" fill="#757678">
  <path d="m6.25 19.91c-0.26-6.79 6-12.74 12.73-12.42 34.35 0.01 68.71 0.02 103.06-0.01 3.05 0.09 6.37-0.5 9.12 1.18 4.53 1.82 7.89 6.4 7.87 11.33 0.03 52.93-0.1 105.87 0.06 158.81 2.26-1.23 4.18-2.94 5.97-4.76 17.75-15.91 39.42-27.68 62.85-32.51 7.6-1.66 15.36-2.56 23.13-2.92 5.28-0.67 10.63-0.68 15.91 0.01 21.87 0.78 43.69 6.04 63.12 16.25 12.09 6.74 23.51 15.04 32.73 25.44 13.53 14.82 23.15 32.96 29.09 52.07 4.66 14.78 7.05 30.18 8.17 45.61 0.42 25.34 0.11 50.68 0.21 76.03 0 59.32-0.02 118.65 0.01 177.98-0.07 3.9 0.46 8.11-1.48 11.69-2.41 4.01-7.08 6.67-11.79 6.36-35.34-0.05-70.68-0.01-106.02-0.02-6.64 0.33-13.1-5.16-13.06-11.95-0.01-72.02 0.04-144.04-0.02-216.06-0.4-14.06-2.65-28.61-10.08-40.81-7.15-11.67-20.27-19.1-33.81-20.14-13.85-1.76-28.7-0.21-40.85 7.09-8.81 5.53-15.46 14.22-18.85 24.02-4.08 10.76-5.49 22.41-5.29 33.88-0.04 70.67 0.05 141.35-0.05 212.03-0.06 6.73-6.36 12.16-12.95 11.94h-107.02c-4.66 0.05-8.96-2.93-11.25-6.88-2.29-3.23-1.33-7.38-1.52-11.07 0.02-170.72 0.01-341.45 0.01-512.17z"/>
  <path d="m583.08 141.28c10.3-0.83 20.57 0.49 30.87 0.59 28.57 1.92 57.3 8.01 82.82 21.39 13.49 7.18 26.02 16.35 36.35 27.65 13.07 13.55 22.54 30.23 29.22 47.76 8.82 23.37 12.16 48.45 12.72 73.3-0.03 75.37 0.06 150.74-0.05 226.1-0.05 6.8-6.32 12.28-13.01 11.96-34.35-0.01-68.69 0.01-103.04-0.01-6.22 0.21-12.02-4.73-12.82-10.9-0.34-4.65 0-9.32-0.15-13.98-5.79 3.05-10.86 7.29-16.6 10.45-26.28 15.47-57.12 21.59-87.37 21.48-31.13-0.26-63.05-7.36-89.1-25.04-23.5-15.45-40.99-39.7-48.28-66.87-4.09-13.97-5.13-28.65-4.77-43.15 0.65-19.13 4.6-38.41 13.44-55.5 6.3-12.98 15.41-24.51 26.21-34.04 13.6-12.24 30.2-20.76 47.36-26.81 31.73-10.83 65.7-13.17 98.97-11.32 14.82 1 29.59 3.07 44.11 6.25 5.43 1.1 10.64 3.13 16.17 3.74-1.14-13.43-7.77-26.61-18.86-34.5-10.93-7.5-24.19-10.68-37.23-11.74-12.5-0.35-25.05-0.51-37.51 0.5-26.52 2.16-52.27 9.65-77.11 18.9-6.48 2.5-13.74-2.26-15.52-8.63-8.69-26.82-17.51-53.6-26.43-80.34-1.29-3.79-1.19-8.31 1.39-11.54 2.71-4.11 7.8-5.15 11.97-7.15 34.87-15.11 72.19-24.75 110.15-27.24 8.65-1.17 17.42-0.56 26.1-1.31m-38.69 252.12c-9.73 6-15.8 17.26-15.51 28.68-0.49 8.12 1.6 16.72 7.34 22.72 7.65 8.31 19.14 11.55 30 12.94 18.37 1.49 37.58-0.74 54.04-9.49 11.96-6.34 22.03-17 25.83-30.19 2.68-8.24 1.98-17.01 1.88-25.53-18.2-6.67-37.59-10.07-56.97-9.81-15.98 0-32.84 1.94-46.61 10.68z"/>
  <path d="m756.71 153.76c1.91-5.43 7.51-8.7 13.16-8.47 37.07-0.07 74.15-0.06 111.23-0.01 5.98-0.28 11.74 3.51 13.42 9.34 24.36 72.91 48.83 145.8 73.34 218.66 0.44 1.07 1.05 2.08 1.66 3.09 4.5-10.91 7.3-22.45 11.19-33.6 20.36-63.03 40.59-126.1 60.86-189.16 1.91-5.5 7.75-8.49 13.35-8.33 28.36-0.08 56.72-0.01 85.09-0.03 8.6 0.24 17.25-0.5 25.82 0.39-4.66 1.85-8.42 6.22-8.41 11.4-0.17 19.04 0.03 38.09-0.08 57.14-7.26 17.12-13.13 34.8-19.98 52.09-32.07 85.27-64.21 170.5-96.29 255.75-8.16 21.55-15.78 43.37-25.91 64.11-8.82 17.33-18.92 34.42-33.13 47.91-16.84 17.32-40.25 27.22-64.03 30.03-13.53 2.31-27.36 2.38-41.01 1.23-13.42-1.68-26.93-3.41-39.87-7.49-13.49-3.85-26.45-9.47-38.72-16.24-3.41-1.85-7.04-3.48-9.91-6.13-3.16-3.44-4.6-8.83-2.14-13.06 12.13-26.17 24.36-52.3 36.48-78.48 2.27-4.42 7.37-7.25 12.31-6.81 4.02 1.2 7.51 3.66 11.29 5.45 13.15 6.74 28.18 11.28 43.05 8.85 6.36-1.23 11.4-6.05 14.29-11.66 0.75-3.52-1.72-6.7-2.73-9.95-47.38-120.9-94.74-241.81-142.09-362.72-1.56-4.19-4.4-8.79-2.24-13.3z"/>
  <path d="m1612.1 419.26c18.16-2.49 37.02 3.01 51.35 14.34 16.1 12.36 26.28 31.98 27.4 52.24 0.53 19.19-7.6 38.31-21.37 51.65-13.25 13.15-31.86 20.6-50.51 20.4-17.26-1.03-34.18-8.14-46.48-20.38-14.01-13.55-22.27-33.13-21.3-52.65 1.09-17.86 9.49-35.01 22.51-47.19 10.58-9.78 24.07-16.49 38.4-18.41z"/>
 </g>
 <g transform="translate(-6.1968 -7.4499)">
  <path d="m1165.8 145.64c11.01-0.86 22.09-0.17 33.12-0.39h78.11c4.34-0.1 8.79 1.81 11.17 5.56 2.59 3.51 1.84 8.06 1.94 12.13-0.01 69.7-0.01 139.41 0 209.11 0.5 15.24 2.65 31.33 11.69 44.08 5.46 7.8 13.69 13.5 22.81 16.17 11.42 3.3 23.69 3.39 35.26 0.76 10.32-2.36 20.05-8.09 26.38-16.69 9.31-12.33 12.14-28.21 12.63-43.32 0.02-71.7 0.01-143.4 0-215.1-0.2-4.66 2.5-9.29 6.71-11.33 3.5-1.7 7.51-1.33 11.3-1.38 33.7 0.02 67.39 0.01 101.08 0 4.35-0.1 8.98 1.52 11.45 5.3 2.82 3.9 2.27 8.96 2.31 13.5-0.04 124.33 0.03 248.66-0.03 372.99 0.36 6.58-5 12.9-11.7 12.99-36.38 0.07-72.77 0.04-109.15 0.02-6.33 0.07-12.07-5.65-11.95-12-0.13-7.14 0.18-14.29-0.16-21.43-10.72 9.66-22.07 18.79-35 25.36-19.56 10.28-41.75 15.23-63.8 15.14-24.77 0.2-49.92-4.63-71.94-16.27-24.58-12.76-44.03-34.4-55.28-59.59-8.92-19.56-13.38-40.91-14.81-62.28-0.84-24.63-0.22-49.29-0.41-73.93v-101.06c-0.06-9.93 0.17-19.87-0.22-29.8 0.11-19.05-0.09-38.1 0.08-57.14-0.01-5.18 3.75-9.55 8.41-11.4z" fill="#f40072"/>
 </g>
</svg>
