<svg width="800" height="160.06" data-name="Layer 1" version="1.1" viewBox="0 0 800 160.06" xmlns="http://www.w3.org/2000/svg">
 <g fill="#1d1d1b">
  <g fill="#1d1d1b" stroke-width="1.2176">
   <path d="m1.1662e-7 97.984h17.803v-41.126h44.852v41.126h17.803v-97.984h-17.803v41.54h-44.852v-41.54h-17.803z"/>
   <path d="m97.294 62.793c0 21.667 17.251 36.848 38.78 36.848 21.391 0 38.642-15.181 38.642-36.848 0-21.529-17.251-36.848-38.78-36.848-21.391 0-38.642 15.319-38.642 36.848zm17.803 0c0-12.973 9.5224-21.943 20.977-21.943 11.316 0 20.839 8.9704 20.839 21.943 0 13.111-9.5224 21.943-20.839 21.943-11.454 0-20.977-8.8324-20.977-21.943z"/>
   <path d="m188.79 97.984h16.561v-4.0022c0-2.7601-0.27601-4.8302-0.27601-4.8302h0.27601s6.3483 10.488 20.977 10.488c18.631 0 32.293-14.491 32.293-36.848 0-21.805-12.145-36.848-31.189-36.848-14.905 0-21.115 10.212-21.115 10.212h-0.27601s0.27601-2.4841 0.27601-5.9343v-30.223h-17.527zm16.975-34.777c0-15.595 8.5564-22.219 17.665-22.219 10.35 0 17.527 8.6944 17.527 22.081 0 13.939-8.0043 21.805-17.665 21.805-11.73 0-17.527-10.764-17.527-21.667z"/>
   <path d="m273.11 97.984h16.561v-4.0022c0-2.7601-0.27602-4.8302-0.27602-4.8302h0.27602s6.3483 10.488 20.977 10.488c18.631 0 32.293-14.491 32.293-36.848 0-21.805-12.145-36.848-31.189-36.848-14.905 0-21.115 10.212-21.115 10.212h-0.27602s0.27602-2.4841 0.27602-5.9343v-30.223h-17.527zm16.975-34.777c0-15.595 8.5564-22.219 17.665-22.219 10.35 0 17.527 8.6944 17.527 22.081 0 13.939-8.0043 21.805-17.665 21.805-11.731 0-17.527-10.764-17.527-21.667z"/>
   <path d="m347.91 122.41s6.2103 4.5542 14.629 4.5542c10.626 0 20.425-5.5202 25.393-18.355l31.465-81.009h-19.183l-13.801 40.85c-1.242 3.7262-2.3461 9.2464-2.3461 9.2464h-0.27601s-1.2421-5.7962-2.6221-9.5224l-14.767-40.574h-19.735l29.671 69.279-2.6221 6.2103c-2.6221 6.2103-7.3143 9.1084-12.145 9.1084-4.0022 0-7.8663-2.8981-7.8663-2.8981z"/>
   <path d="m430.7 97.984h9.5224l5.3822-67.899c0.41402-5.2442 0.27601-13.801 0.27601-13.801h0.27602s3.0361 8.9704 5.2442 13.801l22.771 49.82h8.9704l22.771-49.82c2.2081-4.9682 5.1062-13.525 5.1062-13.525h0.27601s-0.13801 8.2804 0.27601 13.525l5.3822 67.899h9.5224l-7.7283-97.018h-9.7984l-25.393 56.996c-2.2081 4.9682-4.8302 11.869-4.8302 11.869h-0.27601s-2.4841-6.9003-4.6922-11.869l-25.393-56.996h-9.9364z"/>
   <path d="m543.17 79.077c0 13.801 12.007 20.563 23.599 20.563 17.389 0 23.185-15.043 23.185-15.043h0.27601s-0.27601 2.3461-0.27601 5.7962v7.5903h8.9704v-44.438c0-17.389-9.2464-26.635-25.945-26.635-15.595 0-24.703 7.8663-24.703 7.8663l4.4162 7.1763s8.1424-6.6243 19.597-6.6243c9.9364 0 17.251 4.5542 17.251 17.941v1.7941h-3.8642c-12.007 0-42.506 0.55202-42.506 24.013zm9.6604-0.55202c0-15.319 21.805-15.733 32.707-15.733h4.0022v3.0361c0 12.007-8.0043 25.807-21.253 25.807-10.35 0-15.457-6.6243-15.457-13.111z"/>
   <path d="m620.59 97.984h9.3844v-34.777h11.178l23.185 34.777h11.178l-26.497-38.918v-0.27601l24.151-30.223h-11.316l-20.839 26.497h-11.04v-54.098h-9.3844z"/>
   <path d="m683.94 63.345c0 21.391 15.595 36.296 36.296 36.296 15.595 0 25.669-9.6604 25.669-9.6604l-4.2782-7.1763s-8.4184 8.4184-21.115 8.4184c-14.353 0-26.497-9.6604-26.911-27.463h53.27s0.27602-3.1741 0.27602-4.8302c0-17.251-9.7984-32.017-28.981-32.017-18.769 0-34.225 13.663-34.225 36.434zm10.074-7.3143c2.2081-13.939 12.283-21.253 23.875-21.253 10.35 0 19.183 6.7623 19.735 21.253z"/>
   <path d="m765.08 97.984h9.3844v-29.257c0-4.4162 0.55202-9.1084 1.9321-13.525 3.0361-10.212 10.35-17.941 20.149-17.941 1.7941 0 3.4502 0.27601 3.4502 0.27601v-9.2464s-1.7941-0.41402-3.7262-0.41402c-10.902 0-18.631 8.0043-21.943 18.493h-0.27601s0.27601-2.4841 0.27601-5.5202v-12.283h-9.2464z"/>
  </g>
 </g>
 <g transform="translate(1.5e-5 -93.958)" stroke-width="1.2176">
  <path class="cls-5" d="m0.27932 237.27h133.27v16.742h-133.27z" fill="#dd3f35"/>
  <path class="cls-5" d="m133.55 237.27h133.27v16.742h-133.27z" fill="#f7d248"/>
  <path class="cls-5" d="m266.82 237.27h133.27v16.742h-133.27z" fill="#9fc757"/>
  <path class="cls-5" d="m400.09 237.27h133.27v16.742h-133.27z" fill="#9d5ca0"/>
  <path class="cls-5" d="m533.36 237.27h133.27v16.742h-133.27z" fill="#46a5ad"/>
  <path class="cls-5" d="m666.63 237.27h133.27v16.742h-133.27z" fill="#b93167"/>
 </g>
</svg>
