<svg width="800" height="146.47" version="1.1" viewBox="0 0 800 146.47" xmlns="http://www.w3.org/2000/svg">
 <g transform="matrix(.8389 0 0 .8389 192.04 32.549)" stroke-width="2.5908">
  <path d="m5.3889 10.467c3.109 0 5.3889-2.3835 5.3889-5.3889 0-2.7981-2.3835-5.078-5.3889-5.078-3.0053 0-5.3889 2.3835-5.3889 5.1816 0 2.9017 2.3835 5.2853 5.3889 5.2853zm-3.7308 66.428h7.3579v-54.511h-7.3579z" style="white-space:pre"/>
  <path d="m57.309 21.97c-9.4306 0-16.788 3.8344-20.726 10.467v-10.052h-7.047v54.511h7.3579v-28.603c0-12.436 7.3579-19.69 19.068-19.69 10.363 0 16.374 5.9071 16.374 17.41v30.882h7.3579v-31.608c0-15.649-9.1197-23.317-22.385-23.317z" style="white-space:pre"/>
  <path d="m114.31 77.413c14.198 0 22.488-6.1143 22.488-15.545 0-20.934-35.339-9.8451-35.339-24.561 0-5.1816 4.3526-9.016 14.198-9.016 5.5962 0 11.296 1.3472 16.063 4.6635l3.2126-5.9071c-4.5598-3.109-12.229-5.078-19.276-5.078-13.887 0-21.556 6.6325-21.556 15.545 0 21.556 35.339 10.363 35.339 24.561 0 5.3889-4.2489 8.9124-14.612 8.9124-7.6688 0-15.027-2.6944-19.379-6.1143l-3.3162 5.8034c4.4562 3.8344 13.161 6.7361 22.177 6.7361z" style="white-space:pre"/>
  <path d="m178.46 21.97c-9.016 0-16.581 3.938-21.037 11.192v-10.778h-7.047v74.615h7.3579v-30.364c4.5598 7.047 12.021 10.778 20.726 10.778 15.545 0 27.152-11.192 27.152-27.774 0-16.478-11.607-27.67-27.152-27.67zm-0.51816 48.915c-11.607 0-20.312-8.4979-20.312-21.245 0-12.643 8.7051-21.245 20.312-21.245 11.503 0 20.312 8.6015 20.312 21.245 0 12.747-8.8088 21.245-20.312 21.245z" style="white-space:pre"/>
  <path d="m224.36 10.467c3.109 0 5.3889-2.3835 5.3889-5.3889 0-2.7981-2.3836-5.078-5.3889-5.078s-5.3889 2.3835-5.3889 5.1816c0 2.9017 2.3836 5.2853 5.3889 5.2853zm-3.7308 66.428h7.3579v-54.511h-7.3579z" style="white-space:pre"/>
  <path d="m255.56 33.059v-10.674h-7.047v54.511h7.3579v-27.774c0-12.85 6.9434-20.105 18.343-20.105 0.51816 0 1.14 0.10363 1.7618 0.10363v-7.1506c-10.052 0-16.996 3.8344-20.416 11.089z" style="white-space:pre"/>
  <path d="m308.2 21.97c-8.6015 0-16.685 2.6944-22.177 7.3579l3.3162 5.4925c4.4562-3.938 11.089-6.4252 18.136-6.4252 10.156 0 15.441 5.078 15.441 14.405v3.3162h-17.307c-15.649 0-21.037 7.047-21.037 15.441 0 9.4306 7.5652 15.856 19.897 15.856 9.016 0 15.441-3.4199 18.757-9.016v8.4979h7.047v-33.784c0-14.094-7.9797-21.141-22.074-21.141zm-2.5908 49.64c-8.7051 0-13.783-3.938-13.783-10.26 0-5.5962 3.4199-9.7415 13.99-9.7415h17.099v8.9124c-2.9017 7.1506-9.016 11.089-17.307 11.089z" style="white-space:pre"/>
  <path d="m376.39 68.294c-2.0726 1.8654-5.078 2.7981-8.0833 2.7981-6.1143 0-9.4306-3.5235-9.4306-9.9487v-32.541h16.581v-6.2179h-16.581v-11.918h-7.3579v11.918h-9.7414v6.2179h9.7414v32.955c0 10.052 5.6998 15.856 15.959 15.856 4.2489 0 8.6015-1.2436 11.503-3.8344z" style="white-space:pre"/>
  <path d="m396.08 10.467c3.109 0 5.3889-2.3835 5.3889-5.3889 0-2.7981-2.3836-5.078-5.3889-5.078-3.0054 0-5.3889 2.3835-5.3889 5.1816 0 2.9017 2.3835 5.2853 5.3889 5.2853zm-3.7308 66.428h7.3579v-54.511h-7.3579z" style="white-space:pre"/>
  <path d="m442.51 77.413c15.959 0 27.67-11.607 27.67-27.774s-11.71-27.67-27.67-27.67c-15.959 0-27.774 11.503-27.774 27.67s11.814 27.774 27.774 27.774zm0-6.5288c-11.607 0-20.312-8.4979-20.312-21.245s8.7051-21.245 20.312-21.245c11.607 0 20.208 8.4979 20.208 21.245s-8.6015 21.245-20.208 21.245z" style="white-space:pre"/>
  <path d="m512.98 21.97c-9.4306 0-16.788 3.8344-20.726 10.467v-10.052h-7.047v54.511h7.3579v-28.603c0-12.436 7.3579-19.69 19.068-19.69 10.363 0 16.374 5.9071 16.374 17.41v30.882h7.3579v-31.608c0-15.649-9.1197-23.317-22.385-23.317z" style="white-space:pre"/>
 </g>
 <g transform="matrix(.8389 0 0 .8389 238.47 32.549)" stroke-width="2.5908">
  <path d="m608.63 68.294c-2.0726 1.8654-5.078 2.7981-8.0833 2.7981-6.1143 0-9.4306-3.5235-9.4306-9.9487v-32.541h16.581v-6.2179h-16.581v-11.918h-7.3579v11.918h-9.7414v6.2179h9.7414v32.955c0 10.052 5.6998 15.856 15.959 15.856 4.2489 0 8.6015-1.2436 11.503-3.8344z" style="white-space:pre"/>
  <path d="m662.11 22.385-20.623 46.427-20.416-46.427h-7.6688l24.146 54.511h7.5652l24.25-54.511z" style="white-space:pre"/>
 </g>
 <rect x="682.32" y="34.283" width="4.083" height="78.745" stop-color="#000000" stroke="#030101" stroke-linecap="square" stroke-width="1.7893" style="paint-order:stroke fill markers"/>
 <path d="m71.609 45.569c-14.376-0.001211-26.038 11.664-26.04 26.04-0.001211 14.378 11.662 26.041 26.04 26.04 14.376-0.001468 26.041-11.664 26.04-26.04-0.001468-14.374-11.666-26.038-26.04-26.04zm0 16.879c5.0615 5.17e-4 9.154 4.0994 9.1545 9.1609 2e-3 5.0633-4.0912 9.1604-9.1545 9.1609-5.0633-5.14e-4 -9.1565-4.0976-9.1545-9.1609 5.18e-4 -5.0615 4.093-9.1604 9.1545-9.1609z" color="#000000" stroke-linecap="square" stroke-width="3.2549" style="-inkscape-stroke:none;paint-order:stroke fill markers"/>
 <g transform="matrix(3.2549 0 0 3.2549 -3.2549 -162.75)" fill="#030101" stroke-linecap="square">
  <path d="m34 62c1.6562 0 3 1.3438 3 3s-1.3438 3-3 3-3-1.3438-3-3 1.3438-3 3-3z" color="#000000" style="-inkscape-stroke:none;paint-order:stroke fill markers"/>
  <path d="m19 57c1.6562 0 3 1.3438 3 3s-1.3438 3-3 3-3-1.3438-3-3 1.3438-3 3-3z" color="#000000" style="-inkscape-stroke:none;paint-order:stroke fill markers"/>
  <path d="m12 62c1.6562 0 3 1.3438 3 3s-1.3438 3-3 3-3-1.3438-3-3 1.3438-3 3-3z" color="#000000" style="-inkscape-stroke:none;paint-order:stroke fill markers"/>
  <path d="m12 77c1.6562 0 3 1.3438 3 3s-1.3438 3-3 3-3-1.3438-3-3 1.3438-3 3-3z" color="#000000" style="-inkscape-stroke:none;paint-order:stroke fill markers"/>
  <path d="m19 82c1.6562 0 3 1.3438 3 3s-1.3438 3-3 3-3-1.3438-3-3 1.3438-3 3-3z" color="#000000" style="-inkscape-stroke:none;paint-order:stroke fill markers"/>
  <path d="m10 70c1.6562 0 3 1.3438 3 3s-1.3438 3-3 3-3-1.3438-3-3 1.3438-3 3-3z" color="#000000" style="-inkscape-stroke:none;paint-order:stroke fill markers"/>
  <path d="m27 57c1.6562 0 3 1.3438 3 3s-1.3438 3-3 3-3-1.3438-3-3 1.3438-3 3-3z" color="#000000" style="-inkscape-stroke:none;paint-order:stroke fill markers"/>
  <path d="m34 77c1.6562 0 3 1.3438 3 3s-1.3438 3-3 3-3-1.3438-3-3 1.3438-3 3-3z" color="#000000" style="-inkscape-stroke:none;paint-order:stroke fill markers"/>
  <path d="m27 82c1.6562 0 3 1.3438 3 3s-1.3438 3-3 3-3-1.3438-3-3 1.3438-3 3-3z" color="#000000" style="-inkscape-stroke:none;paint-order:stroke fill markers"/>
  <path d="m36 70c1.6562 0 3 1.3438 3 3s-1.3438 3-3 3-3-1.3438-3-3 1.3438-3 3-3z" color="#000000" style="-inkscape-stroke:none;paint-order:stroke fill markers"/>
 </g>
 <g transform="translate(-1 51.472)" stroke="#030101" stroke-linecap="square" stroke-width=".2212">
  <path d="m79.008 88.49a6.3993 6.3993 0 0 1-6.3993 6.3993 6.3993 6.3993 0 0 1-6.3993-6.3993 6.3993 6.3993 0 0 1 6.3993-6.3993 6.3993 6.3993 0 0 1 6.3993 6.3993z" stop-color="#000000" style="paint-order:stroke fill markers"/>
  <path d="m72.609-38.563a6.3993 6.3993 0 0 1-6.3993-6.3993 6.3993 6.3993 0 0 1 6.3993-6.3993 6.3993 6.3993 0 0 1 6.3993 6.3993 6.3993 6.3993 0 0 1-6.3993 6.3993z" stop-color="#000000" style="paint-order:stroke fill markers"/>
  <path d="m85.739 85.235a6.3993 6.3993 0 0 0 6.3993 6.3993 6.3993 6.3993 0 0 0 6.3993-6.3993 6.3993 6.3993 0 0 0-6.3993-6.3993 6.3993 6.3993 0 0 0-6.3993 6.3993z" stop-color="#000000" style="paint-order:stroke fill markers"/>
  <path d="m103.64 75.47a6.3993 6.3993 0 0 0 6.3993 6.3993 6.3993 6.3993 0 0 0 6.3993-6.3993 6.3993 6.3993 0 0 0-6.3993-6.3993 6.3993 6.3993 0 0 0-6.3993 6.3993z" stop-color="#000000" style="paint-order:stroke fill markers"/>
  <path d="m119.92 60.823a6.3993 6.3993 0 0 0 6.3993 6.3993 6.3993 6.3993 0 0 0 6.3993-6.3993 6.3993 6.3993 0 0 0-6.3993-6.3993 6.3993 6.3993 0 0 0-6.3993 6.3993z" stop-color="#000000" style="paint-order:stroke fill markers"/>
  <path d="m129.68 41.293a6.3993 6.3993 0 0 0 6.3993 6.3993 6.3993 6.3993 0 0 0 6.3993-6.3993 6.3993 6.3993 0 0 0-6.3993-6.3993 6.3993 6.3993 0 0 0-6.3993 6.3993z" stop-color="#000000" style="paint-order:stroke fill markers"/>
  <path d="m131.31 20.137a6.3993 6.3993 0 0 0 6.3993 6.3993 6.3993 6.3993 0 0 0 6.3993-6.3993 6.3993 6.3993 0 0 0-6.3993-6.3993 6.3993 6.3993 0 0 0-6.3993 6.3993z" stop-color="#000000" style="paint-order:stroke fill markers"/>
  <path d="m136.08 5.3785a6.3993 6.3993 0 0 0 6.3993-6.3993 6.3993 6.3993 0 0 0-6.3993-6.3993 6.3993 6.3993 0 0 0-6.3993 6.3993 6.3993 6.3993 0 0 0 6.3993 6.3993z" stop-color="#000000" style="paint-order:stroke fill markers"/>
  <path d="m126.32-10.896a6.3993 6.3993 0 0 0 6.3993-6.3993 6.3993 6.3993 0 0 0-6.3993-6.3993 6.3993 6.3993 0 0 0-6.3993 6.3993 6.3993 6.3993 0 0 0 6.3993 6.3993z" stop-color="#000000" style="paint-order:stroke fill markers"/>
  <path d="m110.04-25.543a6.3993 6.3993 0 0 0 6.3993-6.3993 6.3993 6.3993 0 0 0-6.3993-6.3993 6.3993 6.3993 0 0 0-6.3993 6.3993 6.3993 6.3993 0 0 0 6.3993 6.3993z" stop-color="#000000" style="paint-order:stroke fill markers"/>
  <path d="m92.138-35.308a6.3993 6.3993 0 0 0 6.3993-6.3993 6.3993 6.3993 0 0 0-6.3993-6.3993 6.3993 6.3993 0 0 0-6.3993 6.3993 6.3993 6.3993 0 0 0 6.3993 6.3993z" stop-color="#000000" style="paint-order:stroke fill markers"/>
  <path d="m59.478 85.235a6.3993 6.3993 0 0 1-6.3993 6.3993 6.3993 6.3993 0 0 1-6.3993-6.3993 6.3993 6.3993 0 0 1 6.3993-6.3993 6.3993 6.3993 0 0 1 6.3993 6.3993z" stop-color="#000000" style="paint-order:stroke fill markers"/>
  <path d="m41.576 75.47a6.3993 6.3993 0 0 1-6.3993 6.3993 6.3993 6.3993 0 0 1-6.3993-6.3993 6.3993 6.3993 0 0 1 6.3993-6.3993 6.3993 6.3993 0 0 1 6.3993 6.3993z" stop-color="#000000" style="paint-order:stroke fill markers"/>
  <path d="m25.301 60.823a6.3993 6.3993 0 0 1-6.3993 6.3993 6.3993 6.3993 0 0 1-6.3993-6.3993 6.3993 6.3993 0 0 1 6.3993-6.3993 6.3993 6.3993 0 0 1 6.3993 6.3993z" stop-color="#000000" style="paint-order:stroke fill markers"/>
  <path d="m15.537 41.293a6.3993 6.3993 0 0 1-6.3993 6.3993 6.3993 6.3993 0 0 1-6.3993-6.3993 6.3993 6.3993 0 0 1 6.3993-6.3993 6.3993 6.3993 0 0 1 6.3993 6.3993z" stop-color="#000000" style="paint-order:stroke fill markers"/>
  <path d="m13.909 20.137a6.3993 6.3993 0 0 1-6.3993 6.3993 6.3993 6.3993 0 0 1-6.3993-6.3993 6.3993 6.3993 0 0 1 6.3993-6.3993 6.3993 6.3993 0 0 1 6.3993 6.3993z" stop-color="#000000" style="paint-order:stroke fill markers"/>
  <path d="m9.1374 5.3785a6.3993 6.3993 0 0 1-6.3993-6.3993 6.3993 6.3993 0 0 1 6.3993-6.3993 6.3993 6.3993 0 0 1 6.3993 6.3993 6.3993 6.3993 0 0 1-6.3993 6.3993z" stop-color="#000000" style="paint-order:stroke fill markers"/>
  <path d="m18.902-10.896a6.3993 6.3993 0 0 1-6.3993-6.3993 6.3993 6.3993 0 0 1 6.3993-6.3993 6.3993 6.3993 0 0 1 6.3993 6.3993 6.3993 6.3993 0 0 1-6.3993 6.3993z" stop-color="#000000" style="paint-order:stroke fill markers"/>
  <path d="m35.177-25.543a6.3993 6.3993 0 0 1-6.3993-6.3993 6.3993 6.3993 0 0 1 6.3993-6.3993 6.3993 6.3993 0 0 1 6.3993 6.3993 6.3993 6.3993 0 0 1-6.3993 6.3993z" stop-color="#000000" style="paint-order:stroke fill markers"/>
  <path d="m53.079-35.308a6.3993 6.3993 0 0 1-6.3993-6.3993 6.3993 6.3993 0 0 1 6.3993-6.3993 6.3993 6.3993 0 0 1 6.3993 6.3993 6.3993 6.3993 0 0 1-6.3993 6.3993z" stop-color="#000000" style="paint-order:stroke fill markers"/>
 </g>
</svg>
