<svg width="800" height="374.51" space="preserve" version="1.1" viewBox="0 0 800 374.51" xmlns="http://www.w3.org/2000/svg">
 <g transform="matrix(4.111 0 0 4.111 -12.744 -8.222)">
  <path class="st0" d="m90 2h-86.5c-0.2 0-0.4 0.2-0.4 0.4v67.4c0 0.2 0.2 0.4 0.4 0.4h86.5c0.2 0 0.4-0.2 0.4-0.4v-67.4c0-0.2-0.2-0.4-0.4-0.4z" fill="#ce202b"/>
  <path class="st1" d="m93.3 2h104c0.2 0 0.4 0.2 0.4 0.4v67.4c0 0.2-0.2 0.4-0.4 0.4h-104c-0.2 0-0.4-0.2-0.4-0.4v-67.4c0-0.2 0.2-0.4 0.4-0.4z" fill="#0586bb"/>
 </g>
 <g transform="matrix(4.111 0 0 4.111 -12.744 -8.222)" fill="#fff">
  <path class="st2" d="m87.6 51.4v-30.8c0-0.3 0.2-0.5 0.5-0.5h7.5c0.2 0.1 0.3 0.2 0.3 0.4v30.8c0 0.3-0.2 0.5-0.5 0.5h-7.5c-0.2 0-0.3-0.1-0.3-0.4z"/>
  <path class="st2" d="m99.5 51.5v-30.8c0-0.3 0.2-0.5 0.5-0.5h13c1.8 0 3.4 0.3 4.9 0.7 1.4 0.5 2.6 1.2 3.6 2.1s1.7 2 2.2 3.3c0.5 1.2 0.8 2.6 0.8 4.1 0 2-0.5 3.8-1.4 5.3-0.9 1.6-2.2 2.7-3.9 3.6l5.9 12.1c0.1 0.2 0.1 0.3 0 0.4s-0.2 0.2-0.3 0.2h-8.1c-0.3 0-0.6-0.2-0.7-0.5l-5-10.8h-3c-0.2 0-0.3 0.1-0.3 0.3v10.6c0 0.3-0.2 0.5-0.5 0.5h-7.3c-0.3-0.1-0.4-0.3-0.4-0.6zm8.5-24.3c-0.2 0-0.3 0.1-0.3 0.3v6.2c0 0.2 0.1 0.3 0.3 0.3h4.4c1.2 0 2.1-0.3 2.8-0.9s1-1.4 1-2.5c0-1-0.3-1.8-1-2.5-0.7-0.6-1.6-0.9-2.8-0.9h-4.4z"/>
  <path class="st2" d="m137.7 20.1h7.6c0.3 0 0.5 0.2 0.6 0.5l10.8 30.8c0.1 0.3 0 0.5-0.3 0.5h-7.7c-0.3 0-0.5-0.2-0.6-0.5l-1.5-4.9h-10.3l-1.5 4.9c-0.1 0.3-0.3 0.5-0.6 0.5h-7.7c-0.3 0-0.4-0.2-0.3-0.5l11-30.8c0-0.3 0.2-0.5 0.5-0.5zm3.7 9.7-3.1 9.9h6.2l-2.9-9.9z"/>
  <path class="st2" d="m157.9 51.4v-30.8c0-0.3 0.2-0.5 0.5-0.5h6.9c0.4 0 0.7 0.2 0.8 0.5l9.6 18h0.2v-18c0-0.3 0.2-0.5 0.5-0.5h6.5c0.3 0 0.5 0.2 0.5 0.5v30.8c0 0.3-0.2 0.5-0.5 0.5h-6.9c-0.4 0-0.7-0.2-0.8-0.5l-9.5-17.9h-0.3v17.9c0 0.3-0.2 0.5-0.5 0.5h-6.5c-0.4 0-0.5-0.2-0.5-0.5z"/>
  <path class="st2" d="m24.9 44.8c0 1 0.1 1.8 0.4 2.5 0.2 0.7 0.6 1.2 1 1.6s0.9 0.7 1.4 0.9 1.1 0.3 1.6 0.3c2.8 0 4.2-1.7 4.2-5v-14c0-0.3 0.2-0.5 0.5-0.5h6.9c0.3 0 0.5 0.2 0.5 0.5v14.4c0 2.1-0.3 3.8-1 5.3-0.7 1.4-1.6 2.6-2.7 3.5s-2.4 1.5-3.9 1.9-3 0.6-4.6 0.6-3.1-0.2-4.6-0.6-2.8-1.1-3.9-2-2-2.1-2.7-3.5c-0.7-1.5-1-3.2-1-5.4 0-1.4 0.2-2.9 0.6-4.5s0.9-3.1 1.7-4.4c0.1-0.2 0.4-0.3 0.7-0.2l6.2 1.7c0.2 0.1 0.3 0.2 0.3 0.3v0.4c-0.4 0.9-0.8 1.8-1.1 2.8-0.3 0.9-0.5 2.1-0.5 3.4z"/>
  <path class="st2" d="m53.6 46.7c0 0.3-0.2 0.5-0.5 0.5h-7.3c-0.3 0-0.5-0.2-0.5-0.5v-26.1c0-0.3 0.2-0.5 0.5-0.5h7.3c0.3 0 0.5 0.2 0.5 0.5z"/>
  <path class="st2" d="m58.5 27.6c0-0.3 0.2-0.5 0.5-0.5h7c0.3 0 0.5 0.2 0.5 0.5v10.6c0 0.7 0.3 1.2 0.8 1.6 0.6 0.4 1.4 0.6 2.4 0.6h4c0.8 0 1.3-0.2 1.7-0.5 0.4-0.4 0.5-1 0.5-1.9v-10.4c0-0.3 0.2-0.5 0.5-0.5h7.1c0.3 0 0.5 0.2 0.5 0.5v13.6c0 2-0.4 3.5-1.3 4.5-0.8 0.9-2.2 1.4-4.2 1.4h-7.5c-1.1 0-1.9-0.1-2.7-0.3-0.7-0.2-1.3-0.7-1.9-1.3v0.6c0 3.7-0.8 6.4-2.3 8.1s-4 2.6-7.5 2.6h-2.6c-0.3 0-0.5-0.2-0.5-0.5v-5.7c0-0.3 0.2-0.5 0.5-0.5h1c1.5 0 2.5-0.4 2.9-1.3 0.4-0.8 0.6-2.1 0.6-3.7z"/>
  <path class="st2" d="m78.6 51.1h5c0.2 0 0.3 0.2 0.3 0.3v5c0 0.2-0.2 0.3-0.3 0.3h-5c-0.2 0-0.3-0.2-0.3-0.3v-5c0-0.1 0.1-0.3 0.3-0.3z"/>
  <path class="st2" d="m71.2 51.1h5c0.2 0 0.3 0.2 0.3 0.3v5c0 0.2-0.2 0.3-0.3 0.3h-5c-0.2 0-0.3-0.2-0.3-0.3v-5c0-0.1 0.1-0.3 0.3-0.3z"/>
  <path class="st2" d="m28.1 20.1h5c0.2 0 0.3 0.2 0.3 0.3v5c0 0.2-0.2 0.3-0.3 0.3h-5c-0.2 0-0.3-0.2-0.3-0.3v-5c0-0.1 0.1-0.3 0.3-0.3z"/>
 </g>
 <g class="st3" transform="matrix(4.111 0 0 4.111 -12.744 -8.222)" enable-background="new" fill="#0586bb">
  <path class="st1" d="m5.1 93h-2v-11.4h2z"/>
  <path class="st1" d="m22.8 93h-2l-5.1-8.1v8.1h-2v-11.4h2l5.1 8.1v-8.1h2z"/>
  <path class="st1" d="m39.3 83.2h-3.5v9.8h-2v-9.8h-3.5v-1.6h9z"/>
  <path class="st1" d="m53.6 87.9h-4.7v3.5h5.5v1.6h-7.4v-11.4h7.4v1.6h-5.4v3.1h4.7v1.6z"/>
  <path class="st1" d="m66.4 88.6h-2.2v4.4h-2v-11.4h4c1.3 0 2.3 0.3 3 0.9s1.1 1.4 1.1 2.6c0 0.8-0.2 1.4-0.6 1.9s-0.9 0.9-1.5 1.2l2.6 4.7v0.1h-2.1zm-2.2-1.6h2c0.7 0 1.2-0.2 1.6-0.5s0.6-0.8 0.6-1.4-0.2-1.1-0.5-1.4-0.9-0.5-1.6-0.5h-2.1z"/>
  <path class="st1" d="m87.4 93h-2l-5.1-8.1v8.1h-2v-11.4h2l5.1 8.1v-8.1h2z"/>
  <path class="st1" d="m102.4 90.4h-4.4l-0.9 2.6h-2.1l4.3-11.4h1.8l4.3 11.4h-2.1zm-3.8-1.6h3.3l-1.6-4.7z"/>
  <path class="st1" d="m120.2 83.2h-3.5v9.8h-2v-9.8h-3.5v-1.6h9z"/>
  <path class="st1" d="m130 93h-2v-11.4h2z"/>
  <path class="st1" d="m147.7 87.6c0 1.1-0.2 2.1-0.6 2.9s-0.9 1.5-1.7 1.9c-0.7 0.5-1.5 0.7-2.5 0.7-0.9 0-1.7-0.2-2.5-0.7-0.7-0.4-1.3-1.1-1.7-1.9s-0.6-1.8-0.6-2.9v-0.6c0-1.1 0.2-2.1 0.6-2.9s0.9-1.5 1.7-1.9c0.7-0.4 1.5-0.7 2.5-0.7 0.9 0 1.7 0.2 2.5 0.7 0.7 0.4 1.3 1.1 1.7 1.9s0.6 1.8 0.6 2.9zm-2-0.6c0-1.3-0.2-2.2-0.7-2.9s-1.2-1-2-1c-0.9 0-1.5 0.3-2 1s-0.7 1.6-0.7 2.8v0.7c0 1.2 0.2 2.2 0.7 2.9s1.2 1 2 1c0.9 0 1.5-0.3 2-1s0.7-1.6 0.7-2.9z"/>
  <path class="st1" d="m164.8 93h-2l-5.1-8.1v8.1h-2v-11.4h2l5.1 8.1v-8.1h2z"/>
  <path class="st1" d="m179.9 90.4h-4.4l-0.9 2.6h-2.1l4.3-11.4h1.8l4.3 11.4h-2.1zm-3.9-1.6h3.3l-1.6-4.7z"/>
  <path class="st1" d="m192.3 91.4h5.2v1.6h-7.1v-11.4h2v9.8z"/>
 </g>
</svg>
