<svg width="1075.3" height="263.65" version="1.1" viewBox="0 0 1075.3 263.65" xml:space="preserve" xmlns="http://www.w3.org/2000/svg"><path d="m673.23 0.0014241c12.249 0.01727 27.46 1.406 36.671 3.3901 5.8342 1.2567 13.799 3.2084 17.584 4.4336 3.7858 1.2254 11.056 4.1481 15.837 6.4881 4.7775 2.3384 11.775 6.7639 15.735 9.8735 3.9594 3.1092 9.5868 8.6609 12.387 11.968 2.7984 3.3048 6.9604 9.6832 9.2321 14.304 2.272 4.6214 4.674 11.449 5.5325 15.199 1.8458 7.9043 2.585 15.436 2.5192 23.182-0.0825 9.5471-1.1396 16.853-4.3811 26.015-1.3429 3.6688-4.0577 9.3412-6.0234 12.589-1.9635 3.2437-6.6148 9.1795-10.322 13.168-3.705 3.9866-11.263 10.771-16.883 14.961-2.7534 2.053-6.3389 4.5184-9.9281 6.8838l-0.0711 0.0468 0.0113 0.0226c-3.2094 2.0824-6.4343 4.0909-9.6858 6.0601-0.14823 0.0881-0.3546 0.22609-0.50545 0.31818l-0.0145-0.0129-0.0597 0.0355c-8.6234 5.2018-17.485 10.106-27.118 15.092h-2e-3l-45.222 24.042c-0.46439 0.23511-0.68442 0.74345-0.60233 1.2017 0.0821 0.45824 0.48257 0.86056 1.1917 0.87542l135.26 2.7118c1.8482 0.097 3.4086 0.36509 4.3514 1.3813 0.94284 1.0162 1.2812 2.5315 1.2812 4.9436v38.657c0 1.8499-0.16295 3.2794-1.124 4.3259-0.961 1.0465-2.4949 1.488-5.1215 1.488h-237.16c-3.9305 0-8.2772-1.2657-10.813-3.806-2.5356-2.5403-4.0554-6.3578-4.0554-11.323v-28.706c0-9.9286 3.7076-14.918 10.634-18.73l129.81-68.77 2e-3 -2e-3c5.1303-2.9424 8.3864-4.813 12.441-7.5586 3.3077-2.2399 6.3566-4.6014 10.016-7.7876h2e-3v-2e-3c5.4715-5.1188 8.3802-9.3991 10.48-13.68 1.4724-3.0019 3.068-8.2699 3.4673-12.373 0.23467-2.4113 0.52906-8.5023-0.20269-13.126-0.79755-5.04-2.4172-8.7493-3.9746-11.587-1.5598-2.8421-4.7698-6.385-6.8566-8.0106-2.0774-1.6184-3.9956-2.9741-6.8524-4.4225-1.7956-0.91037-5.6039-2.3978-9.3765-3.3819-4.7665-1.2434-11.838-2.1557-18.821-2.1779-7.0299-0.0224-12.938 0.69861-18.062 1.88-5.7551 1.3269-10.411 3.1898-14.507 5.1879-5.3619 2.6156-9.5225 5.8215-12.583 8.3894-3.3613 2.8205-7.2827 7.3727-9.4164 10.561-2.509 3.7488-4.0916 6.2014-6.87 12.919-1.1531 2.788-2.0201 6.3434-2.8507 8.5911-0.86814 2.3438-2.0137 4.3582-4.5426 5.7404-1.042 0.53424-3.0732 1.3874-6.2398 1.3874h-38.407c-3.6586 0-5.9275 0.12568-7.9397-0.18458h-3e-3c-2.4705-0.26868-3.9702-0.98645-5.2887-2.0545-1.3189-1.0683-2.3747-2.7512-2.7674-4.7648v-2e-3c-0.49481-2.9278-0.21069-5.8066 0.37166-8.7691 0.69986-4.3974 2.2729-10.975 3.7599-15.111 2.1012-5.843 5.2659-12.973 8.7712-18.317h-2e-3c7.5736-12.267 17.528-21.89 28.826-29.734l3e-3 -0.0016c6.5645-4.3543 13.933-8.473 21.37-11.559 11.422-4.7713 18.572-6.5675 28.783-8.7971l-2e-3 0.0016c10.565-2.1234 23.72-3.5837 38.329-3.5631z" fill="#dd40dd" stroke-width=".8"/><path d="m34.582 2.7241c-21.484 0-34.545 15.25-34.573 34.164l-0.0093515 0.00312v0.0577c0 0.0299 0.0015136 0.0563 0.0015586 0.0811-4.487e-5 0.02419-0.0015586 0.05148-0.0015586 0.08096v0.0327l0.0077929 8e-3c0.046008 9.2447 3.1995 17.827 9.085 24.1 5.8936 6.2817 14.524 10.246 25.489 10.246 10.927 0 19.54-3.8667 25.48-10.121 5.8961-6.2085 9.0929-14.767 9.1411-24.217l0.0094-6e-3v-0.0421c0-0.0295-0.0015-0.0567-0.0016-0.0811 5.2e-5 -0.0249 0.0016-0.0511 0.0016-0.0811v-0.0577l-0.0094-3e-3c-0.05104-9.3998-3.1777-17.845-9.071-24.021-5.9401-6.2252-14.623-10.143-25.55-10.143zm144.13 17.832c-12.936 0-23.491 2.2692-28.938 7.2412-3.9398 3.592-5.2041 7.7728-5.2041 15.435v128.69c0 10.921-0.97965 18.835-2.9177 25.347-1.8706 6.2853-4.6384 10.932-8.2792 14.752l-2e-3 2e-3c-6.2174 6.8811-16.279 11.186-28.478 11.186-11.224 0-21.043-3.8202-27.306-10.212l-0.0016-2e-3c-3.1986-3.4901-5.4139-7.4499-6.8157-12.288-1.336-4.6109-1.9326-9.7351-1.9326-16.29v-84.438c0-1.8574-0.42187-3.2234-1.3077-4.1271-0.88576-0.90376-2.2169-1.3232-4.2674-1.3232h-57.217c-2.0291 0-3.4812 0.40277-4.3531 1.3061-0.86889 0.90016-1.2734 2.2711-1.2734 4.1677v75.911c0 13.522 1.5523 25.768 5.5922 36.585 3.6634 9.8082 9.3739 18.559 17.824 26.457 3.6089 3.3248 7.7739 6.453 12.568 9.2331v-2e-3c17.515 10.245 40.024 15.07 62.649 15.07 20.046 0 40.034-4.8811 56.664-13.237 7.5812-3.8094 14.372-8.3431 19.942-13.465 8.4673 7.608 19.248 13.546 31.753 18.016 15.485 5.5343 33.537 8.7 52.116 8.7 25.071 0 46.288-5.6124 63.575-15.725 15.111-8.8395 27.058-20.84 36.262-35.751 6.3971 9.7871 13.464 20.439 21.667 32.903 4.6 6.8003 9.1186 11.461 14.641 14.378 5.7579 3.041 12.358 4.11 21.722 4.11 9.842 0 18.406-1.0466 26.321-6.4229v-2e-3h2e-3c4.9167-3.5187 7.7778-6.9105 11.47-12.562 15.175-23.044 29.481-49.663 41.409-75.52 7.7182-16.732 15.058-34.39 20.737-49.781v-2e-3l2e-3 -2e-3c1.0903-3.3679 2.0065-5.9508 2.927-9.3032v-2e-3l2e-3 -2e-3c0.28461-1.2512 0.432-2.3222 0.34133-3.2652-0.0907-0.94306-0.42276-1.7594-1.0879-2.4828h-2e-3c-1.1145-1.1969-2.2528-1.8009-4.364-2.7073l-5e-3 -3e-3 -1.5165-0.44575-15.927-4.5776-3e-3 -2e-3c-3.7024-1.257-6.7045-2.2188-9.0055-2.8662-2.3018-0.64773-3.8982-0.98192-4.816-0.98192-1.694 0-3.3074 0.43533-4.3562 1.4152-1.041 0.97253-1.8677 2.4109-2.4532 4.3563-5.6628 18.741-11.552 34.929-16.816 48.502-3.2395 8.3542-6.5981 16.465-10.167 24.54-5.8449 13.226-11.326 24.339-17.891 35.76-5.1094-9.8919-8.6124-16.186-15.368-28.334h2e-3c-2.3527-4.2516-4.5049-8.1254-6.4448-11.599l-2e-3 -3e-3c-1.2602-2.4139-3.3327-5.8812-5.2945-9.1707v-2e-3c-4.5141-7.7821-5.1246-8.7496-13.726-23.648v-2e-3c-5.8477-10.057-9.5403-16.814-16.488-28.603v-2e-3l-0.14807-0.25249v0.0436c-3.3599-5.4462-6.2502-8.8639-9.3546-10.99-3.1573-2.162-7.0885-2.8335-11.124-2.8335-8.8428 0-20.537 3.9616-29.757 10.089-3.2393 2.104-6.2294 4.4943-8.7468 7.0495-4.8542 4.927-7.6885 10.002-7.6885 15.095 0 5.579 1.6718 9.7029 6.9388 18.571 6.2173 10.623 9.3484 19.299 9.3484 29.883 0 10.605-3.2005 20.81-9.5152 29.222-4.0626 5.4118-9.2379 9.9257-15.447 13.368-8.6844 4.8145-19.403 7.6838-32.945 7.6838-19.14 0-32.761-5.7474-41.122-14.659v-2e-3h-2e-3c-7.9086-8.1235-12.762-19.499-12.762-39.501v-34.697l0.0187 8e-3c6.3427 2.6783 14.292 4.216 23.622 4.216h30.006c2.0506 0 3.538-0.34388 4.4404-1.2516 0.90239-0.90767 1.1861-2.3487 1.1861-4.2035v-32.319c0-1.8548-0.28369-3.2906-1.1861-4.1988-0.90237-0.90819-2.3898-1.2516-4.4404-1.2516h-53.642v-51.452c0-4.0949-0.34089-7.0371-1.1611-9.3983-0.82026-2.3612-2.1208-4.1372-4.0258-5.8946-5.45-4.9706-15.804-7.2412-28.655-7.2412z" fill="#dd40dd" stroke-width=".8"/><g transform="matrix(.8 0 0 .8 0 .0012091)" fill="#dd40dd"><path d="m1215.1 2.6616v115.86h50.219c14.87 0 25.39 0.54784 42.947-5.8422 10.946-4.4952 19.945-11.364 26.093-20.062 6.2913-8.698 9.7036-19.964 9.7036-32.025s-3.4123-23.325-9.7036-32.023c-6.2915-8.698-14.619-15.365-25.915-19.888-15.319-6.2912-28.398-6.0168-43.125-6.0168zm37.454 27.607h20.856c6.1435 0 13.439 1.3936 18.151 3.8216 4.7122 2.3673 8.2925 5.6488 10.917 10.201 2.6244 4.5526 3.9374 9.9934 3.9375 16.306 0 6.3129-1.3131 11.745-3.9375 16.298-2.5649 4.5526-6.2914 7.8667-11.003 10.295-4.7121 2.3673-11.861 3.7197-18.064 3.7197h-20.856z"/><path d="m1062.8 2.6599h37.691v43.948l51.498 1.5487v-45.496h37.649v115.87h-37.649v-44.481h-51.498v44.481h-37.691z"/></g></svg>
