<svg width="1e3" height="219.44" version="1.1" viewBox="0 0 1e3 219.44" xml:space="preserve" xmlns="http://www.w3.org/2000/svg"><path d="m596.45 2.3187c-6.2137 0-10.71 0.8474-15.693 5.4518l-119.79 115.16c-4.6209 4.4431-5.1491 8.2002-5.1491 13.374v26.294c0 4.5998 2.3095 9.5719 9.9005 9.5719h133.2v34.557c0 8.8119 5.2382 12.693 12.685 12.693h32.053c7.4465 1e-5 12.685-3.881 12.685-12.693v-34.568h34.477c2.6273 0 4.7419-2.0409 4.7419-4.5776v-31.647c0-2.5367-2.1146-4.5776-4.7419-4.5776l-34.477-0.62447v-115.72c0-8.8119-5.2382-12.693-12.685-12.693zm-2.0173 46.299h4.4921v81.142l-85.409-1.6154v-1.8951s68.393-65.616 80.917-77.632z" fill="#10eb82" stroke-width=".69557"/><path d="m29.094 0c-18.075 0-29.063 12.83-29.087 28.743l-0.007868 0.00262v0.0485c0 0.0251 0.0012721 0.0473 0.0013125 0.0682-4.039e-5 0.02044-0.0013125 0.04339-0.0013125 0.06819v0.0275l0.0065556 7e-3c0.038708 7.7777 2.6918 14.998 7.6434 20.276 4.9584 5.2849 12.219 8.6203 21.444 8.6203 9.1928 0 16.439-3.2531 21.437-8.5154 4.9605-5.2233 7.65-12.424 7.6906-20.374l0.0079-5e-3v-0.0354c0-0.0248-0.0013-0.0477-0.0013-0.0682 4e-5 -0.0209 0.0013-0.043 0.0013-0.0682v-0.0485l-0.0079-3e-3c-0.04294-7.9082-2.6735-15.013-7.6316-20.21-4.9975-5.2374-12.303-8.5337-21.496-8.5337zm121.26 15.002c-10.883 0-19.764 1.9092-24.346 6.0921-3.3146 3.022-4.3783 6.5394-4.3783 12.985v108.27c0 9.1879-0.8242 15.846-2.4547 21.325-1.5737 5.288-3.9023 9.197-6.9654 12.411l-1e-3 1e-3c-5.2308 5.7892-13.696 9.411-23.959 9.411-9.4429 0-17.703-3.214-22.973-8.5914l-0.0013-1e-3c-2.691-2.9363-4.5548-6.2678-5.7342-10.338-1.124-3.8792-1.626-8.1903-1.626-13.705v-71.039c0-1.5627-0.35492-2.7119-1.1002-3.4722-0.7452-0.76036-1.8651-1.1133-3.5902-1.1133h-48.138c-1.7071 0-2.9288 0.33886-3.6624 1.0988-0.73102 0.75733-1.0713 1.9108-1.0713 3.5063v63.865c0 11.377 1.306 21.68 4.7048 30.779 3.0821 8.2518 7.8864 15.614 14.996 22.259 3.0362 2.7972 6.5403 5.429 10.574 7.768v-1e-3c14.736 8.6194 33.673 12.679 52.708 12.679 16.865 0 33.682-4.1066 47.672-11.137 6.3782-3.2049 12.091-7.0192 16.778-11.328 7.1237 6.4007 16.193 11.397 26.714 15.157 13.028 4.6561 28.216 7.3195 43.846 7.3195 21.092 0 38.943-4.7218 53.487-13.229 12.713-7.4368 22.764-17.533 30.508-30.078 5.382 8.2341 11.327 17.195 18.229 27.682 3.8701 5.7212 7.6717 9.6425 12.318 12.096 4.8442 2.5584 10.397 3.4578 18.275 3.4578 8.2802 0 15.485-0.88051 22.145-5.4037v-1e-3h1e-3c4.1365-2.9604 6.5436-5.814 9.6496-10.569 12.767-19.387 24.803-41.783 34.838-63.536 6.4934-14.077 12.669-28.933 17.446-41.882v-1e-3l1e-3 -1e-3c0.91732-2.8334 1.6881-5.0065 2.4626-7.827v-1e-3l1e-3 -1e-3c0.23945-1.0527 0.36344-1.9537 0.28716-2.7471-0.0763-0.79341-0.35568-1.4802-0.91526-2.0888h-1e-3c-0.93764-1.007-1.8953-1.5151-3.6716-2.2777l-4e-3 -3e-3 -1.2759-0.37502-13.4-3.8512-3e-3 -1e-3c-3.1149-1.0576-5.6407-1.8667-7.5765-2.4114-1.9366-0.54495-3.2797-0.8261-4.0518-0.8261-1.4252 0-2.7826 0.36625-3.665 1.1906-0.87579 0.8182-1.5713 2.0283-2.0639 3.665-4.7642 15.767-9.7192 29.386-14.147 40.805-2.7254 7.0285-5.5511 13.852-8.5534 20.646-4.9174 11.128-9.5285 20.477-15.052 30.086-4.2987-8.3222-7.2457-13.617-12.929-23.838h1e-3c-1.9794-3.577-3.79-6.836-5.4221-9.7585l-1e-3 -3e-3c-1.0602-2.0309-2.8038-4.9479-4.4544-7.7155v-1e-3c-3.7978-6.5472-4.3114-7.3612-11.548-19.896v-1e-3c-4.9198-8.461-8.0264-14.146-13.872-24.064v-1e-3l-0.12458-0.21242v0.0367c-2.8268-4.582-5.2584-7.4573-7.8702-9.2458-2.6563-1.8189-5.9637-2.3839-9.3585-2.3839-7.4396 0-17.278 3.333-25.035 8.4878-2.7253 1.7702-5.241 3.7812-7.3588 5.9309-4.0839 4.1452-6.4685 8.4149-6.4685 12.7 0 4.6937 1.4065 8.1632 5.8378 15.624 5.2307 8.9372 7.865 16.237 7.865 25.141 0 8.9225-2.6926 17.508-8.0053 24.585-3.418 4.553-7.772 8.3506-12.996 11.247-7.3063 4.0505-16.324 6.4646-27.718 6.4646-16.103 0-27.563-4.8354-34.596-12.332v-1e-3h-1e-3c-6.6537-6.8344-10.737-16.405-10.737-33.233v-29.191l0.0157 7e-3c5.3362 2.2533 12.024 3.547 19.874 3.547h25.245c1.7252 0 2.9766-0.28931 3.7358-1.053 0.7592-0.76365 0.99789-1.976 0.99789-3.5365v-27.19c0-1.5604-0.23868-2.7684-0.99789-3.5325-0.75917-0.76408-2.0106-1.053-3.7358-1.053h-45.13v-43.288c0-3.4452-0.28679-5.9204-0.97689-7.9069s-1.7842-3.4807-3.387-4.9592c-4.5852-4.1818-13.297-6.0921-24.108-6.0921z" fill="#10eb82" stroke-width=".69557"/><path d="m780.19 1.1679c-8.6786 0-15.665 6.9872-15.665 15.666v186.94c0 8.6786 6.9859 15.666 15.665 15.666h204.14c8.6785 0 15.665-6.9872 15.665-15.666v-186.94c0-8.6786-6.9861-15.666-15.665-15.666zm144.31 46.451h34.231v125.26h-39.58v-80.236h-29.078v-27.125h29.147zm-90.351 24.921 7.6886 3e-3c2.573 0.22324 4.4168 1.356 4.4847 4.8721l1.161 26.317 28.123 1.4181c2.2438 0.11314 4.2765-0.0285 4.2765 3.8007l-0.0641 9.1777c-0.0458 1.9247-0.98945 3.1617-3.4412 3.2225l-29.075 1.1762v0.043l-1.3297 29.682c-0.0992 2.2173-0.84219 3.7088-3.6284 3.7088l-9.4756-0.18265c-1.5492-0.0386-3.1311-0.41817-3.2923-3.1992l-1.1121-30.157-28.33-1.4274c-2.2438-0.11314-4.2765 0.0285-4.2765-3.8007l0.064-9.1777c0.0458-1.9246 0.98938-3.1617 3.4412-3.2225l29.097-1.1773 1.4402-26.593c0.0657-1.7962 0.85834-4.132 4.2486-4.4847z" fill="#10eb82" stroke-width=".69557"/></svg>
