<svg width="1e3" height="326.37" version="1.1" viewBox="0 0 1e3 326.37" xml:space="preserve" xmlns="http://www.w3.org/2000/svg"><path d="m42.801 0c-26.436 0-42.801 18.812-42.801 42.482 0 23.669 16.366 42.482 42.801 42.482 26.433 0 42.799-18.814 42.801-42.482 0-23.672-16.366-42.482-42.801-42.482zm178.2 22.065c-16.016 0-29.185 2.8825-35.74 8.8657-4.4427 4.0505-6.493 9.489-6.493 17.369v159.94c0 26.57-4.2619 40.914-13.611 50.978-8.2149 8.8316-21.138 13.632-35.37 13.632-13.893 0-26.198-4.6362-33.509-12.368-7.642-8.0834-11.224-19.294-11.224-35.925v-104.16c0-2.299-0.43165-3.9967-1.5344-5.1219-1.1028-1.1252-2.844-1.641-5.3848-1.641h-70.755c-2.5142 0-4.2318 0.49884-5.3137 1.6197-1.0819 1.1208-1.4918 2.8244-1.4918 5.1717v94.163c0 37.622 9.7086 59.155 26.647 76.104 22.025 22.042 59.617 31.854 95.335 31.854 35.618 0 72.725-12.612 94.745-32.898 21.622 19.658 60.741 32.884 103.92 32.884 57.036 0 99.021-23.572 123.57-63.644 10.786 16.717 18.813 29.232 26.491 40.592 5.695 8.419 11.148 14.195 18.087 17.859 6.9388 3.6646 15.351 5.2072 26.945 5.2072 10.983 0 19.785-1.3194 27.336-4.923 7.5511-3.6036 13.84-9.4844 19.784-18.584 31.125-47.623 57.641-103.93 76.758-155.75 2.3927-6.4838 4.1132-11.203 4.1132-14.236 0-1.5561-0.51583-2.9627-1.6268-4.1558-1.111-1.1931-2.8109-2.1746-5.1859-2.9268-4.565-1.4482-16.836-5.216-22.988-7.0897-10.226-3.1159-13.942-4.0421-16.204-4.0421-2.102 0-3.7498 0.5955-5.0438 1.8044s-2.2306 3.0198-2.9552 5.4274c-14.298 47.597-36.023 101.05-55.432 134.36-6.4017-12.205-18.06-33.153-28.934-52.136-16.908-29.53-33.605-59.325-41.998-73.028-4.2433-6.9287-7.7931-11.334-11.7-14.009-3.9071-2.6754-8.164-3.6017-13.76-3.6017-11.551 0-25.837 5.1723-37.253 12.759-11.416 7.5863-19.983 17.589-19.983 27.322 0 6.5665 1.8392 11.517 8.6171 23.095 7.6967 13.151 11.551 23.792 11.551 36.891 0 32.64-24.325 62.195-71.43 62.195-22.357 0-39.59-6.3501-50.807-17.874-10.708-10.999-15.927-25.775-15.927-50.537v-41.345c7.8566 3.3176 17.447 5.0296 28.998 5.0296h37.075c2.5432 0 4.3026-0.51677 5.4203-1.641 1.1177-1.1242 1.5629-2.8281 1.5629-5.129v-40.038c0-2.301-0.4452-3.9971-1.5629-5.1219-1.1177-1.1249-2.8771-1.641-5.4203-1.641h-66.067v-65.321c0-7.8803-2.0672-13.316-6.5072-17.369-6.5591-5.9821-19.961-8.8586-35.747-8.8586z" fill="#ff8d7e"/><path d="m681.31 3.3433c-6.9385 0-11.461 4.6164-11.461 11.357v172.19c0 6.7404 4.5221 11.357 11.461 11.357h22.885l66.128-0.00199c16.01-5.2e-4 43.496 0.55822 65.403-16.359 10.414-8.0417 17.837-19.976 17.837-37.669 0-39.663-36.273-46.084-46.54-48.087v-2.1023c7.9104-2.7935 15.005-7.3171 21.041-14.826 5.4808-6.8185 9.3544-16.383 9.3544-26.105 0-16.49-7.3297-28.894-19.402-37.202-11.58-7.9684-27.871-12.55-49.568-12.55h-64.254zm41.53 38.579h39.586c7.4972 0 10.514 1.2455 14.082 3.3912 5.9559 3.5809 8.8228 9.6708 8.8228 16.672-0.41846 8.2483-3.9429 12.526-8.1154 16.027-5.03 3.4492-10.006 4.3085-14.49 4.3085h-39.885zm0 76.813h55.119c15.573 0 22.803 8.8073 22.803 20.19-0.41845 8.3845-3.2833 13.27-7.9116 16.497-4.4706 3.1162-9.9022 4.3784-14.386 4.3784h-55.625z" fill="#ff8d7e"/><path d="m916.29 170.72c-21.54 0-40.941 6.1264-56.136 16.876-6.3019 4.4582-13.766 11.338-19.882 20.437-5.3937 8.0246-12.658 22.503-12.658 41.776 0 23.832 10.556 44.413 28.729 58.199 15.142 11.487 35.574 18.359 59.593 18.359 19.319 0 41.174-4.2049 58.308-17.309 5.7022-4.3609 10.915-9.9023 14.968-16.479 2.7297-3.8346 5.3418-9.6272 2.8264-12.625-1.4777-1.7611-2.9843-2.3539-7.7131-2.3539h-30.309c-8.3232 0-9.4422 2.1803-12.361 4.6294-4.8857 3.6882-12.035 8.1862-25.656 8.1862-21.067-0.61097-34.53-10-36.653-29.218h108.9c7.5373 0 11.726-2.4278 11.749-11.557 0-20.927-7.767-40.943-21.558-54.979-14.631-14.891-36.991-23.942-62.151-23.942zm0.3637 36.174c18.3 0 31.682 12.958 31.682 28.816h-67.551c0-1.694 1.4199-9.5332 7.1961-16.608 5.2406-6.4191 14.355-12.208 28.673-12.208z" fill="#ff8d7e"/></svg>
