<svg width="1447.9" height="326.29" version="1.1" viewBox="0 0 1447.9 326.29" xml:space="preserve" xmlns="http://www.w3.org/2000/svg"><path d="m682.05 3.4348c-7.0968 0-11.863 4.1462-11.863 11.358v172.16c0 7.2122 4.6673 11.36 11.764 11.36l90.528-0.00195c15.039-5e-4 41.89 0.40334 63.418-16.221 11.734-9.7154 18.003-21.1 18.003-37.499 0-39.763-35.745-46.384-46.564-48.57v-1.8325c16.747-6.0953 29.978-21.211 30.276-41.135 0-16.493-7.0572-28.595-19.428-37.107-11.582-7.9699-27.876-12.513-49.577-12.513zm40.998 38.445h41.443c5.6657 0 10.72 1.6454 15.08 5.4995 3.5805 3.1656 6.1105 7.8212 6.1105 14.279 0 13.337-10.838 20.43-21.024 20.43h-41.609zm0 76.785h55.846c14.217 0 22.19 8.2876 22.19 20.238 0 13.165-9.4228 20.925-22.381 20.925h-55.655z" fill="#eb917d"/><path d="m916.57 170.78c-21.52 0-40.902 6.0686-56.082 16.809-6.2959 4.4542-13.753 11.328-19.863 20.419-5.3885 8.0174-12.646 22.534-12.646 41.79 0 20.166 6.8698 38.03 22.446 53.058 9.0131 8.2778 18.8 13.698 28.604 17.219 15.407 5.5331 25.924 5.9873 37.187 6.219 19.3 0 40.675-3.6872 57.953-16.901 5.6968-4.3569 11.204-10.293 15.253-16.863 2.8713-4.2637 5.2646-8.9865 2.8236-12.414-1.6318-2.2914-4.1293-2.3272-8.2046-2.3272h-28.383c-8.3152 0-9.3076 0.7598-13.647 4.4013-4.881 3.6849-12.123 8.1582-25.731 8.1582-21.047-0.61041-34.703-9.9403-36.517-29.345h111.94c3.8202 0 8.2945-2.7178 8.2945-11.546 0-21.494-7.5599-40.732-21.338-54.756-14.617-14.877-36.955-23.921-62.092-23.921zm0.26339 36.053c8.0203 0 15.224 2.5791 20.659 6.7233 3.8563 2.9403 6.9386 6.9103 8.8658 11.394 1.4323 3.3321 2.3269 6.948 2.3269 10.636h-67.723c0-1.6924 1.4597-9.4775 7.3253-16.468 2.4624-2.9346 5.4553-5.5984 9.2021-7.6827 4.9765-2.7683 11.183-4.6026 19.343-4.6026z" fill="#eb917d"/><path d="m42.805 0c-26.592 0-42.759 18.877-42.793 42.288l-0.011576 0.003859v0.071381c0 0.037002 0.0018716 0.069635 0.001931 0.10032-5.942e-5 0.030057-0.001931 0.063831-0.001931 0.10032v0.040514l0.0096448 0.009646c0.056948 11.443 3.9603 22.066 11.245 29.831 7.295 7.7754 17.977 12.683 31.55 12.683 13.525 0 24.186-4.7862 31.538-12.528 7.2981-7.6848 11.255-18.278 11.315-29.976l0.011576-0.007716v-0.052089c0-0.03652-0.001872-0.070166-0.001932-0.10032 6e-5 -0.030779 0.001932-0.063278 0.001932-0.10032v-0.071381l-0.011576-0.003859c-0.063178-11.634-3.9333-22.088-11.228-29.733-7.3526-7.7055-18.1-12.555-31.625-12.555zm178.41 22.072c-16.012 0-29.077 2.8088-35.819 8.963-4.8766 4.4461-6.4416 9.6211-6.4416 19.105v159.3c0 13.518-1.2126 23.314-3.6115 31.374-2.3153 7.7799-5.7413 13.531-10.248 18.26l-0.00193 0.00193c-7.6958 8.5173-20.15 13.846-35.25 13.846-13.893 0-26.046-4.7285-33.799-12.64l-0.00193-0.00195c-3.9592-4.32-6.7013-9.2214-8.4364-15.21-1.6537-5.7073-2.3922-12.05-2.3922-20.164v-104.52c0-2.2991-0.52218-3.9898-1.6186-5.1085-1.0964-1.1187-2.744-1.6379-5.2821-1.6379h-70.823c-2.5115 0-4.309 0.49856-5.3882 1.6167-1.0755 1.1142-1.5762 2.8112-1.5762 5.1586v93.961c0 16.738 1.9214 31.896 6.9219 45.284 4.5345 12.14 11.603 22.972 22.062 32.748 4.467 4.1154 9.6224 7.9874 15.557 11.429v-0.00194c21.68 12.681 49.542 18.653 77.546 18.653 24.813 0 49.554-6.0418 70.138-16.385 9.3839-4.7152 17.789-10.327 24.684-16.666 10.481 9.417 23.824 16.767 39.303 22.3 19.167 6.8503 41.512 10.769 64.508 10.769 31.032 0 57.294-6.9469 78.692-19.464 18.704-10.941 33.492-25.795 44.885-44.252 7.9182 12.114 16.665 25.299 26.82 40.727 5.6938 8.4173 11.287 14.186 18.123 17.797 7.127 3.7641 15.296 5.0873 26.887 5.0873 12.182 0 22.782-1.2954 32.58-7.9502v-0.00193h0.00193c6.0859-4.3554 9.6272-8.5537 14.197-15.549 18.783-28.523 36.491-61.473 51.255-93.477 9.5534-20.71 18.639-42.567 25.668-61.618v-0.00193l0.00194-0.00194c1.3496-4.1687 2.4836-7.3658 3.623-11.515v-0.00191l0.00192-0.00194c0.3523-1.5488 0.53473-2.8744 0.42248-4.0417-0.1122-1.1673-0.52326-2.1777-1.3466-3.0732h-0.00194c-1.3795-1.4815-2.7884-2.2291-5.4017-3.351l-0.0058-0.00384-1.8771-0.55175-19.714-5.666-0.00386-0.00193c-4.5827-1.556-8.2988-2.7463-11.147-3.5478-2.8492-0.80176-4.8252-1.2154-5.9612-1.2154-2.0968 0-4.0939 0.53885-5.3921 1.7517-1.2885 1.2038-2.3118 2.9842-3.0365 5.3921-7.0093 23.198-14.299 43.234-20.814 60.035-4.0098 10.341-8.1671 20.38-12.584 30.375-7.2347 16.371-14.019 30.127-22.145 44.263-6.3244-12.244-10.66-20.034-19.022-35.071h0.00194c-2.9121-5.2626-5.5761-10.057-7.9772-14.357l-0.00193-0.00386c-1.5598-2.9879-4.1251-7.2796-6.5535-11.351v-0.00192c-5.5874-9.6325-6.3432-10.83-16.99-29.272v-0.00195c-7.2381-12.448-11.809-20.812-20.409-35.405v-0.00194l-0.18328-0.31253v0.05402c-4.1589-6.7412-7.7364-10.972-11.579-13.603-3.908-2.676-8.774-3.5073-13.769-3.5073-10.945 0-25.42 4.9036-36.832 12.488-4.0095 2.6044-7.7107 5.563-10.827 8.7257-6.0084 6.0986-9.5167 12.38-9.5167 18.684 0 6.9056 2.0693 12.01 8.5888 22.986 7.6956 13.149 11.571 23.888 11.571 36.988 0 13.127-3.9615 25.759-11.778 36.17-5.0287 6.6986-11.434 12.286-19.12 16.547-10.749 5.9593-24.016 9.5109-40.779 9.5109-23.691 0-40.551-7.1141-50.9-18.144v-0.00192h-0.00193c-9.7892-10.055-15.796-24.135-15.796-48.894v-42.948l0.02315 0.00966c7.8509 3.3152 17.691 5.2185 29.239 5.2185h37.141c2.5382 0 4.3793-0.42564 5.4963-1.5492 1.117-1.1235 1.4681-2.9072 1.4681-5.203v-40.004c0-2.2958-0.35113-4.0731-1.4681-5.1972-1.1169-1.1241-2.958-1.5491-5.4963-1.5491h-66.397v-63.687c0-5.0687-0.42193-8.7104-1.4372-11.633-1.0153-2.9227-2.6251-5.121-4.9831-7.2962-6.7459-6.1525-19.562-8.963-35.468-8.963z" fill="#eb917d"/><path d="m1124.5 1.7183c-12.768 0-23.046 10.28-23.046 23.048v275.04c0 12.768 10.278 23.048 23.046 23.048h300.34c12.768 0 23.046-10.28 23.046-23.048v-275.04c0-12.768-10.278-23.048-23.046-23.048zm212.31 68.34h50.362v184.28h-58.232v-118.05h-42.781v-39.907h42.882zm-132.93 36.666 11.312 0.00512c3.7855 0.32846 6.4983 1.995 6.5981 7.1681l1.7082 38.719 41.376 2.0864c3.3013 0.16645 6.2918-0.04197 6.2918 5.5917l-0.0942 13.503c-0.0675 2.8316-1.4558 4.6516-5.0629 4.7411l-42.776 1.7304v0.06332l-1.9563 43.669c-0.1461 3.2622-1.2392 5.4565-5.3384 5.4565l-13.941-0.26871c-2.2793-0.0568-4.6066-0.61523-4.8439-4.7069l-1.6363-44.368-41.68-2.1001c-3.3012-0.16645-6.2916 0.04197-6.2916-5.5917l0.0941-13.503c0.0674-2.8316 1.4557-4.6516 5.0628-4.7411l42.808-1.7321 2.1191-39.125c0.0966-2.6427 1.2626-6.0792 6.2506-6.5981z" fill="#eb917d"/></svg>
