<svg width="800" height="469.06" fill="none" version="1.1" viewBox="0 0 800 469.06" xmlns="http://www.w3.org/2000/svg">
 <g transform="matrix(2.2949 0 0 2.2949 -415.24 256.14)" clip-rule="evenodd" fill="#c8d84c" fill-rule="evenodd">
  <path d="m388.04 64.39c-2.531 0.7651-5.08 1.3588-7.645 1.7828-2.567 0.4246-4.231 0.5487-4.994 0.3715-0.765-0.1754-1.199-0.5796-1.304-1.2104l-6.394-38.68c1.5057-5.06 10.333-14.057 17.491-11.063l1.721 17.87 0.504-0.0836c-0.035-0.2106 0.308-2.0605 1.028-5.5498 1.374-6.5805 2.609-9.9606 3.703-10.141 2.061-0.3406 5.064-0.2106 9.01 0.3898 1.906 0.2907 3.604 0.8853 5.092 1.7832 1.488 0.8999 2.344 2.0229 2.566 3.3685 0.139 0.8414-0.442 2.6126-1.746 5.3127-1.304 2.7005-3.348 6.3549-6.129 10.964 0.938 0.7095 2.124 1.6157 3.561 2.7169 1.434 1.1028 3.386 2.7788 5.855 5.0287 2.467 2.2498 3.793 3.9215 3.973 5.0151 0.181 1.094-0.598 2.53-2.335 4.3069-1.737 1.779-3.646 3.3053-5.725 4.578-2.081 1.2723-3.667 1.9997-4.761 2.1803-0.716 0.1184-1.873-0.8027-3.471-2.7647-1.599-1.9606-3.64-4.962-6.123-9.0028l-1.57 2.658 1.356 8.2024c0.09 0.5478-1.131 1.2032-3.663 1.9668z"/>
  <path d="m424 64.888c-2.615 0.0343-5.228-0.073-7.839-0.3174-2.61-0.2448-4.266-0.5177-4.965-0.8187-0.702-0.3004-1.024-0.7269-0.972-1.2795l3.713-39.607c0.088-0.9336 1.405-1.7412 3.953-2.4237 2.547-0.6811 5.35-0.8791 8.407-0.5927 2.715 0.2551 4.445 0.995 5.187 2.2204 0.257 0.4526 0.367 0.8921 0.326 1.3157l-3.821 40.753c-0.044 0.4676-1.374 0.7168-3.989 0.7497z"/>
  <path d="m453.45 21.543c-1.02 0.1078-1.689 0.2652-2.01 0.4695l2.729 25.694 2.444-0.0019c1.271-0.1352 2.126-1.2553 2.57-3.3603 0.439-2.104 0.396-5.658-0.135-10.662-0.532-5.0025-1.227-8.3155-2.087-9.9403-0.86-1.6234-2.029-2.3571-3.511-2.1992zm4.294 35.624-15.009 1.5934c-2.078 0.2203-3.492 0.2208-4.244 0-0.754-0.2188-1.164-0.669-1.237-1.3471l-4.259-40.131c-0.117-1.1017 0.264-1.946 1.145-2.5334 0.88-0.5859 2.467-1.0017 4.757-1.2452l14.311-1.519c8.139-0.8641 13.925 0.141 17.359 3.013 3.435 2.8734 5.603 8.5285 6.497 16.965 0.898 8.4382-0.087 14.535-2.946 18.289-2.86 3.7554-8.318 6.0603-16.374 6.9153z"/>
  <path d="m503.55 70.072c-1.401 0.7458-3.27 1.2626-5.618 1.5491-2.347 0.2859-5.303 0.1734-8.868-0.3406-3.564-0.5139-6.912-1.2973-10.032-2.3493-3.125-1.053-5.327-2.0374-6.617-2.956-1.29-0.9178-1.884-1.7147-1.787-2.3905 0.338-2.3619 1.029-4.7721 2.072-7.2282s2.029-3.6173 2.956-3.4835c0.169 0.0242 1.84 0.8463 5.009 2.4658 3.168 1.62 5.598 2.5512 7.288 2.7942 1.686 0.243 2.811 0.2222 3.367-0.0642 0.56-0.2845 0.889-0.7656 0.985-1.4413 0.097-0.6748-0.28-1.3433-1.135-2.005-0.85-0.6608-1.941-1.2916-3.279-1.8944-1.334-0.6004-2.758-1.3988-4.275-2.3923-1.517-0.9936-2.903-2.0543-4.159-3.1835-1.26-1.1288-2.231-2.616-2.912-4.4582-0.686-1.8427-0.87-3.8612-0.551-6.056 1.348-9.369 7.617-13.248 18.799-11.637 4.178 0.6014 7.747 1.3853 10.713 2.3503 2.961 0.9656 5.018 1.864 6.168 2.6977 1.15 0.8336 1.681 1.5664 1.589 2.1996-0.314 2.1943-1.174 4.4833-2.57 6.8665-1.4 2.3826-2.584 3.5047-3.554 3.3651-0.17-0.0247-0.691-0.2932-1.565-0.8066-2.609-1.6254-4.831-2.5701-6.666-2.8343-1.835-0.2643-3.106-0.2744-3.811-0.0319-0.7 0.2444-1.101 0.7134-1.203 1.4104-0.101 0.6955 0.281 1.3321 1.145 1.9093 0.865 0.5772 1.956 1.1433 3.28 1.6997 1.318 0.556 2.738 1.321 4.255 2.2933s2.903 2.0553 4.154 3.2464c1.246 1.1935 2.207 2.7637 2.874 4.7117 0.666 1.9485 0.826 4.1249 0.478 6.5303-0.362 2.5324-1.348 4.7393-2.956 6.6177-0.98 1.1506-2.174 2.0997-3.574 2.8454z"/>
  <path d="m388.74 92.287c-0.796 0.1894-1.606 0.3183-2.432 0.3874-0.825 0.07-1.63 0.1048-2.416 0.1048s-1.392-0.0203-1.82-0.0599c-0.427-0.0396-0.989-0.1391-1.685-0.298-0.697-0.1594-1.333-0.3782-1.91-0.6564s-1.188-0.6864-1.835-1.2235c-0.646-0.5366-1.188-1.1737-1.625-1.9093-1.015-1.7099-1.522-3.9172-1.522-6.623 0-1.8094 0.284-3.4106 0.851-4.8031 0.566-1.392 1.253-2.4662 2.058-3.2217 0.806-0.7564 1.725-1.3625 2.759-1.8204 1.671-0.7555 3.352-1.1337 5.042-1.1337 2.427 0 4.167 0.1995 5.222 0.5966 0.476 0.1796 0.904 0.4579 1.283 0.8356 0.377 0.3786 0.566 0.9244 0.566 1.6407 0 0.7159-0.174 1.621-0.522 2.7151-0.348 1.0945-0.851 1.6403-1.507 1.6403-0.199 0-0.935-0.1585-2.207-0.4773-1.273-0.3173-2.139-0.4767-2.596-0.4767-0.696 0-1.287 0.3879-1.775 1.1631-0.488 0.7762-0.73 1.8799-0.73 3.3115 0 1.4321 0.213 2.546 0.64 3.3415 0.428 0.7955 0.99 1.1935 1.686 1.1935 0.497 0 1.397-0.2038 2.7-0.6115s2.064-0.612 2.282-0.612c0.617 0 1.099 0.5676 1.447 1.7002 0.348 1.1341 0.522 2.0494 0.522 2.7455 0 0.696-0.213 1.2476-0.641 1.6557-0.428 0.4082-1.04 0.7057-1.835 0.895z"/>
  <path d="m399.88 92.272c-1.204 0.1594-2.417 0.2386-3.64 0.2386-1.224 0-2.01-0.069-2.357-0.2082-0.348-0.1391-0.523-0.3583-0.523-0.6568v-18.347c0-0.497 0.578-0.9496 1.73-1.3572 1.154-0.4077 2.408-0.6115 3.76-0.6115 1.89 0 2.834 0.4468 2.834 1.3423v6.5631h2.656v-5.9367c0-0.497 0.581-0.9496 1.745-1.3572 1.164-0.4077 2.422-0.6115 3.774-0.6115 1.869 0 2.804 0.4468 2.804 1.3423v18.974c0 0.2589-0.607 0.468-1.819 0.6264-1.214 0.1594-2.428 0.2386-3.64 0.2386-1.213 0-1.994-0.069-2.343-0.2082-0.348-0.1391-0.521-0.3583-0.521-0.6568v-6.8317h-2.656v6.8317c0 0.2589-0.601 0.468-1.804 0.6264z"/>
  <path d="m425.67 83.65-0.448-5.3701h-0.655l-0.507 5.3701zm-3.296 8.5328c-0.566 0.2189-1.586 0.3275-3.058 0.3275s-2.7-0.1342-3.684-0.4023c-0.985-0.2681-1.477-0.6115-1.477-1.0293 0-0.4772 0.884-3.525 2.655-9.1439 1.77-5.6188 2.784-8.855 3.043-9.7109 0.099-0.2579 0.9-0.4724 2.401-0.6414 1.502-0.1686 3.112-0.2531 4.833-0.2531s2.671 0.2975 2.85 0.8945c3.759 12.491 5.638 18.836 5.638 19.034 0 0.1995-0.119 0.3985-0.358 0.597-0.557 0.4376-1.66 0.6559-3.312 0.6559-3.52 0-5.319-0.4173-5.399-1.2529l-0.208-1.9388h-2.865l-0.149 1.6707c-0.04 0.5767-0.343 0.9747-0.91 1.1935z"/>
  <path d="m443.56 92.272c-1.223 0.1594-2.442 0.2386-3.655 0.2386s-1.988-0.069-2.327-0.2082c-0.338-0.1391-0.507-0.3583-0.507-0.6568v-18.318c0-0.4965 0.571-0.9544 1.716-1.3718 1.143-0.4182 2.441-0.6264 3.893-0.6264 0.517 0 0.905 0.0198 1.163 0.0599 0.677 0.0995 1.154 0.5264 1.433 1.2824l2.864 7.6972h0.119v-7.0413c0-0.4965 0.567-0.9544 1.7-1.3718 1.134-0.4182 2.425-0.6264 3.879-0.6264 1.251 0 2.048 0.2386 2.386 0.7158 0.242 0.3381 0.358 0.6458 0.358 0.924v18.676c0 0.2589-0.609 0.468-1.836 0.6264-1.222 0.1594-2.565 0.2386-4.025 0.2386-1.463 0-2.263-0.1883-2.402-0.5665l-2.775-7.3394h-0.149v7.0409c0 0.2589-0.611 0.468-1.835 0.6264z"/>
  <path d="m465.46 92.272c-1.227 0.1594-2.445 0.2386-3.657 0.2386s-1.99-0.069-2.328-0.2082c-0.338-0.1391-0.507-0.3583-0.507-0.6568v-18.318c0-0.4965 0.575-0.9544 1.715-1.3718 1.144-0.4182 2.444-0.6264 3.893-0.6264 0.521 0 0.908 0.0198 1.164 0.0599 0.676 0.0995 1.154 0.5264 1.434 1.2824l2.864 7.6972h0.116v-7.0413c0-0.4965 0.57-0.9544 1.705-1.3718 1.131-0.4182 2.425-0.6264 3.879-0.6264 1.251 0 2.048 0.2386 2.386 0.7158 0.237 0.3381 0.357 0.6458 0.357 0.924v18.676c0 0.2589-0.613 0.468-1.835 0.6264-1.222 0.1594-2.565 0.2386-4.028 0.2386-1.464 0-2.261-0.1883-2.401-0.5665l-2.777-7.3394h-0.145v7.0409c0 0.2589-0.613 0.468-1.835 0.6264z"/>
  <path d="m495.98 92.511h-12.645c-0.976 0-1.632-0.069-1.971-0.2081-0.338-0.1392-0.507-0.3584-0.507-0.6569v-18.884c0-0.5178 0.232-0.8849 0.701-1.1046 0.468-0.2183 1.309-0.327 2.521-0.327l11.993-0.8289c0.415 0 0.628 0.6912 0.628 2.0731 0 1.3824-0.092 2.9227-0.27 3.6482-0.179 0.7264-0.416 1.0887-0.715 1.0887-1.295 0-3.473 0.2135-6.535-0.0444v1.9987c2.941-0.1198 4.863-0.1797 5.757-0.1797 0.536 0 0.807 0.6274 0.807 1.8803 0 1.253-0.107 2.2026-0.314 2.8483-0.208 0.6468-0.493 0.9694-0.85 0.9694l-5.4-0.1188v1.9094c3.463-0.2585 5.849-0.3879 7.163-0.3879 0.415 0 0.623 0.697 0.623 2.089 0 1.3921-0.087 2.4455-0.266 3.1618s-0.42 1.0737-0.72 1.0737z"/>
  <path d="m501.56 92.51c-0.995 0-1.662-0.0541-2-0.1643-0.338-0.1081-0.502-0.2927-0.502-0.5511v-17.728c0-0.4376 0.575-0.8704 1.729-1.2973 1.155-0.4285 2.444-0.642 3.879-0.642 1.27 0 2.106 0.2691 2.507 0.8052 0.135 0.199 0.207 0.398 0.207 0.597v12.387c2.425-0.1584 4.256-0.2386 5.487-0.2386 0.42 0 0.628 0.6622 0.628 1.9842 0 1.323-0.092 2.4614-0.27 3.4158-0.179 0.9545-0.416 1.4317-0.715 1.4317z"/>
 </g>
 <g transform="matrix(2.0893 -.67886 .67886 2.0893 -27.939 251.72)" clip-rule="evenodd" fill-rule="evenodd">
  <g fill="#fff">
   <path d="m318.76 34.95c-5.897-5.0373 6.066-8.7198 6.066-8.7198 10.376-2.9203 13.561-9.781 1.871-14.483-24.068-9.6809-49.706 9.0309-55.264 13.444-5.996-6.3367-17.314-10.708-38.527-2.0127-21.144 8.6671-53.968-1.8379-81.047-14.205 0 0-21.443-12.299-30.688-7.4301s-35.391 1.1843-47.861-0.3526c-12.469-1.5365-54.186-4.8142-64.954 16.411-13.507 26.625-5.4986 69.302-5.4986 69.302s2.6725 28.757 35.469 25.86c35.876-3.17 53.865-2.95 73.239-0.77 19.373 2.181 40.634-3.769 63.785-14.65 29.416-13.828 61.278-5.2074 70.28-3.454 8.248 1.6065 23.579 2.2237 31.098-12.353 1.014 5.4686 2.814 10.964 5.897 15.558 10.483 15.627 22.003 12.31 22.112 1.2935 0.111-11.016 7.263-1.0529 7.263-1.0529s14.986 21.029 28.565 14.667-0.966-25.555-5.038-32.602c-4.072-7.0466 14.642-0.1574 14.642-0.1574 6.747 2.3126 11.757 1.833 14.528-2.475 9.376-14.574-41.16-37.736-45.938-41.818z"/>
   <path d="m367.56 0.46806c-9.368 0.46562-23.763 7.7349-23.551 14.862 0.211 7.1273 13.799 12.003 23.171 11.649 9.458-0.3569 16.949-5.7806 16.588-13.544-0.33-7.1215-5.2-13.514-16.208-12.966z"/>
   <path d="m358.94 50.886c5.246 1.7204 10.41 0.2559 11.739-4.0868 1.219-3.9834-0.189-8.485-6.32-10.415-5.218-1.6432-14.524-0.5627-15.808 3.3994-1.285 3.9621 5.192 9.3974 10.389 11.102z"/>
   <path d="m363.37 100.6c0 2.361-1.914 4.274-4.275 4.274s-4.275-1.913-4.275-4.274c0-2.3613 1.914-4.2745 4.275-4.2745s4.275 1.9132 4.275 4.2745z"/>
  </g>
  <path d="m334.1 72.254c-15.272 6.8302-26.903 9.9949-33.528 11.477-3.651 0.8168-7.349-0.9477-9.047-4.2814-1.673-3.2835-1.427-7.2529 0.64-10.352l10.628-15.935c1.576-2.3619 1.167-5.5184-0.949-7.3408-1.349-1.1617-3.365-1.0771-4.649 0.1937l-22.825 23.535c-2.511 2.488-6.202 2.9063-9.075 1.3665-0.045 0.3091-0.082 0.6003-0.13 0.9143-1.787 11.745-10.228 15.036-21.125 10.614-10.895-4.4219-28.891-4.4808-60.113 5.4407-31.221 9.9215-75.606 12.801-75.606 12.801s-63.361 3.559-75.384 1.276c-12.022-2.2849-21.001-8.5631-18.915-23.777 2.0862-15.213 1.2747-34.602 1.2747-34.602-0.7409-13.802 0.7762-24.625 26-25.318 25.224-0.6931 60.445-3.3888 78.382-4.9828 17.937-1.5944 35.499 2.4803 58.959 11.314 23.461 8.8328 52.156 8.4087 52.156 8.4087s8.007 0.5531 12.646-2.7527c4.638-3.3052 16.186 1.2882 16.186 1.2882s7.562 1.6968 7.148 23.048l19.595-16.292c1.939-1.5596 1.996-4.5084 0.117-6.0893-2.896-2.4368-2.558-7.0553 0.668-9.1187 3.109-1.9891 7.12-1.637 9.783 0.8583l19.817 18.569c2.77 2.5962 3.244 6.8665 1.118 10.086l-7.497 11.354c-0.618 0.9366 0.372 2.0949 1.371 1.6007 3.819-1.8914 10.036-5.4208 12.732-6.8713 5.002-2.6903 10.315-2.8159 14.365 0.6647 0.077 0.0666 0.155 0.1333 0.233 0.2004 3.764 3.2347 4.858 8.3054-4.977 12.705z" fill="#e10613"/>
  <g fill="#fff">
   <path d="m63.885 73.631c-0.058-1.42-1.2505-2.5073-2.6532-2.374-2.6445 0.2526-6.7925-0.8153-9.5771-8.6101-0.4448-1.2447-0.3053-2.6488 0.3922-3.7863 1.4911-2.4315 4.7886-6.5931 10.804-8.7739 2.0527-0.7438 3.3409-2.8276 3.2289-5.019l-1.0008-19.531c-0.1053-2.0634-2.2441-3.3772-4.093-2.4681-4.8596 2.3884-13.065 9.2462-17.545 28.838-0.1077 0.47-0.7902 0.3932-0.767-0.0879l1.0921-22.296c0.1255-2.5541-2.2992-4.42-4.7118-3.6259l-9.3438 3.0743c-3.782 1.2448-6.2057 4.9987-5.7768 8.9748 0.8356 7.7441 1.7388 22.218 0.5018 43.817-0.2656 4.6354 2.4803 8.8753 6.7757 10.445l6.8017 2.4851c2.4586 0.8984 5.0707-1.0158 5.0079-3.67l-0.3444-14.617c-0.013-0.5444 0.7588-0.6612 0.8762-0.1309 1.633 7.3674 5.6792 19.179 15.236 23.447 2.8715 1.2818 6.1174-0.981 5.9879-4.1679z"/>
   <path d="m87.963 50.068-6.9027 1.9939c-0.8578 0.2473-1.6698-0.4705-1.5428-1.3616 0.1478-1.0337 0.4381-2.175 0.855-3.3338 1.4379-3.9949 4.3021-6.6283 6.3984-5.8821 2.0958 0.7458 2.6295 4.5891 1.1921 8.5836zm36.888 20.674c-0.11-1.1385-1.324-1.7403-2.328-1.1974-2.392 1.2921-6.046 1.5123-6.353-8.8951-0.068-2.3373-0.055-4.8924 0.017-7.5441 0.021-0.7743 0.611-1.4235 1.372-1.5138l3.336-0.3965c1.909-0.2271 3.417-1.7761 3.611-3.7096l1.084-10.816c0.187-1.8697-1.439-3.3796-3.267-3.0347l-3.723 0.7027c-0.634 0.1194-1.202-0.4047-1.142-1.0539 0.384-4.178 0.772-7.776 1.046-10.184 0.196-1.7219-1.102-3.2183-2.812-3.2526l-3.286-0.0656c-2.833-0.0566-5.323 1.9673-5.874 4.7861-0.493 2.5199-1.112 5.884-1.728 9.7785-0.253 1.5949-1.476 2.873-3.046 3.1691l-5.0237 0.9481c-0.9327-8.2358-3.2839-13.687-9.1583-13.846-10.779-0.2918-20.184 16.088-21.008 36.584-0.823 20.496 6.0724 33.47 16.442 36.332 4.5669 1.2607 9.7592-2.8391 13.512-9.4216 1.3776-2.4155 1.5341-5.3406 0.5521-7.9146l-3.5091-9.1984c-0.6081-1.5935-2.7874-1.6674-3.5675-0.1329-1.4799 2.9082-3.796 5.9942-6.6873 5.0156-3.2149-1.0873-4.5823-4.8146-5.1566-7.4775-0.3381-1.5678 0.6014-3.1415 2.134-3.597l14.317-4.2538c1.6103-0.4782 2.7227-1.9779 2.7266-3.6694 0.0029-0.9738 0.0038-1.936 0.0033-2.8889l3.5718-0.4241c0.853-0.1014 1.573 0.5955 1.517 1.4616-1.466 22.581 1.447 46.227 22.029 38.12 1.47-0.7907 2.328-2.4001 2.168-4.0645z"/>
   <path d="m151.43 65.193c-0.55-1.8682-2.971-2.2556-4.124-0.6685-3.269 4.5017-8.406 9.339-8.819-3.9534-0.499-16.052 6.875-14.493 11.092-12.457 1.091 0.527 2.377-0.2193 2.507-1.4437l2.083-19.588c0.266-2.4991-1.262-4.7978-3.633-5.5039-6.986-2.0803-20.907-1.7814-24.191 31.589-3.784 38.456 14.923 44.437 25.108 33.684 3.056-3.226 4.011-7.932 2.766-12.168z"/>
   <path d="m169.99 46.183c-0.445 0.6984-1.516 0.3589-1.452-0.4646 0.442-5.6778 1.615-11.148 2.499-14.672 0.558-2.2209-0.69-4.4664-2.849-5.1078l-7.691-2.2871c-1.769-0.5255-3.523 0.9429-3.332 2.8015 0.758 7.4002 1.823 25.701-0.854 58.968-0.203 2.5208 2.107 4.4659 4.525 3.7969l5.298-1.4659c1.811-0.5009 2.998-2.2692 2.77-4.1442-0.924-7.62-2.458-25.978 4.21-26.047 6.609-0.0691 4.651 16.938 3.506 24.246-0.247 1.5732 1.142 2.8778 2.679 2.5223l5.976-1.3824c2.97-0.6863 5.114-3.3284 5.207-6.3999 0.494-16.292 0.281-63.006-20.492-30.364z"/>
   <path d="m226.08 41.239c0.055-2.2151-1.518-4.1066-3.681-4.4273l-5.94-0.881c-1.872-0.2777-3.478 1.3708-3.209 3.2652 1.296 9.1327 1.18 17.201-2.051 20.95-7.642 8.8705-5.779-11.38-4.586-20.74 0.324-2.5498-1.242-4.9253-3.686-5.5831l-7.001-1.8847c-1.752-0.4719-3.519 0.7781-3.682 2.613-0.91 10.248-2.611 39.615 7.385 42.874 8.435 2.7497 12.601-3.5985 14.358-7.7248 0.198-0.4647 0.879-0.2976 0.845 0.2053l-0.262 3.8148c-0.121 1.7779 1.439 3.1758 3.173 2.843l2.402-0.4608c2.972-0.5705 5.163-3.1758 5.237-6.2265z"/>
   <path d="m241.8 56.896c-2.882-1.0259-4.363-4.2321-3.309-7.1616 1.054-2.9289 4.245-4.4726 7.127-3.4467s4.364 4.2321 3.309 7.1616c-1.054 2.9294-4.245 4.4726-7.127 3.4467zm12.612-20.171c-4.949-2.373-10.814-1.051-15.065 2.8508v-0.0232c0.042-1.3046-0.958-2.3875-2.247-2.4267l-5.191-0.1584c-1.65-0.0502-3.012 1.3331-2.955 3.001l1.098 31.991c0.076 2.2006 1.734 3.9906 3.898 4.2079l7.165 0.7197c1.523 0.1527 2.692-1.3722 2.148-2.8135-0.763-2.0195-1.694-5.0808-2.466-9.4037 0.059 0.029 0.112 0.0661 0.172 0.0951 6.77 3.2463 15.267-0.3989 18.978-8.1426 3.713-7.7431 1.234-16.651-5.535-19.898z"/>
  </g>
 </g>
</svg>
