<svg width="800" height="191.01" version="1.1" viewBox="0 0 800 191.01" xmlns="http://www.w3.org/2000/svg">
 <defs>
  <filter id="filter5816" x="-.1734" y="-.12757" width="1.3468" height="1.2551" color-interpolation-filters="sRGB">
   <feGaussianBlur stdDeviation="0.19543123"/>
  </filter>
  <filter id="filter5820" x="-.073988" y="-.19989" width="1.148" height="1.3998" color-interpolation-filters="sRGB">
   <feGaussianBlur stdDeviation="0.34840151"/>
  </filter>
 </defs>
 <g transform="matrix(-.23597 0 0 -.24009 149.76 130.92)" fill="#bebebe" stroke="#bebebe" stroke-width="34.058" style="paint-order:stroke fill markers">
  <path transform="rotate(179.83 299.65 232.61)" d="m31.195 20.951c-43.828 2.6911-51.557 29.657-48.401 61.731l23.131 235.07c2.1701 22.054 17.84 40 40 40h126.84c0.92003 40.19-5.9529 72.76-22.033 103.63 44.239-18.666 113.17-62.457 137.8-103.53l243.38-0.16386c46.081-0.031 53.929-21.941 56.865-47.671l28.408-248.96c4.7719-41.819-18.084-74.982-84.613-70.897z" fill="#bebebe" fill-rule="evenodd" stroke="#bebebe" stroke-width="34.058" style="paint-order:stroke fill markers"/>
 </g>
 <g transform="matrix(4.0533 0 0 4.0533 -1990.1 -1009.6)" stroke-width="34.058">
  <g transform="matrix(.058217 0 0 -.059233 507.78 294.39)" fill="#bebebe" stroke="#bebebe" style="paint-order:stroke fill markers">
   <path transform="rotate(179.83 299.65 232.61)" d="m31.195 20.951c-43.828 2.6911-51.557 29.657-48.401 61.731l23.131 235.07c2.1701 22.054 17.84 40 40 40h126.84c0.92003 40.19-5.9529 72.76-22.033 103.63 44.239-18.666 113.17-62.457 137.8-103.53l243.38-0.16386c46.081-0.031 53.929-21.941 56.865-47.671l28.408-248.96c4.7719-41.819-18.084-74.982-84.613-70.897z" fill="#bebebe" fill-rule="evenodd" stroke="#bebebe" stroke-width="34.058" style="paint-order:stroke fill markers"/>
  </g>
  <g transform="matrix(.058217 0 0 -.059233 505.78 292.39)" fill="#fff" stroke="#000" style="paint-order:stroke fill markers">
   <path transform="rotate(179.83 299.65 232.61)" d="m31.195 20.951c-43.828 2.6911-51.551 29.657-48.395 61.731l23.125 235.07c2.1695 22.054 17.84 40 40 40h126.84c0.92003 40.19-5.9529 72.76-22.033 103.63 44.239-18.666 113.17-62.457 137.8-103.53l243.38-0.16386c46.081-0.031 53.929-21.941 56.865-47.671l28.408-248.96c4.7719-41.819-18.084-74.982-84.613-70.897z" fill="#2d98cd" fill-rule="evenodd" stroke="#fff" stroke-width="34.058" style="paint-order:stroke fill markers"/>
  </g>
 </g>
 <g transform="matrix(-.23597 0 0 -.24009 157.87 122.82)" fill="#fff" stroke="#000" stroke-width="34.058" style="paint-order:stroke fill markers">
  <path transform="rotate(179.83 299.65 232.61)" d="m31.195 20.951c-43.828 2.6911-51.551 29.657-48.395 61.731l23.125 235.07c2.1695 22.054 17.84 40 40 40h126.84c0.92003 40.19-5.9529 72.76-22.033 103.63 44.239-18.666 113.17-62.457 137.8-103.53l243.38-0.16386c46.081-0.031 53.929-21.941 56.865-47.671l28.408-248.96c4.7719-41.819-18.084-74.982-84.613-70.897z" fill="#fff" fill-rule="evenodd" stroke="#fff" stroke-width="34.058" style="paint-order:stroke fill markers"/>
 </g>
 <g transform="matrix(4.0533 0 0 4.0533 -165.32 -197.29)" fill="#ef454b" stroke="#fff" stroke-width="2">
  <path d="m100.06 51.165 5.128-1.1114-8.4344 20.551 4.8365 21.574-5.7806 0.25845-3.4754-18.404-1.8778 19.038-4.1764 1.0383 4.2798-43.086 4.3414 0.47538-1.5562 14.5z" style="paint-order:stroke markers fill"/>
  <path d="m192.14 50.541-1.1406 42.345-4.2457 1.2722 0.61906-9.9986-5.121 0.90564-1.1183 7.8841-4.231 1.0041 7.1996-41.867zm-5.6764 7.559-3.2048 20.771 4.4553-0.69218 0.8089-20.575z" style="paint-order:stroke markers fill"/>
  <path d="m137.94 50.974c2.1685 0 3.389 3.3114 3.3853 5.8173 0 1.2733-0.0427 2.4496-0.0796 3.7869l-2.9832 1.5111c-0.0719-2.5756-0.2712-5.1508-2.6454-4.9425-2.1154 0.461-3.081 2.9195-3.3215 5.0405-0.12171 1.6758 0.66261 3.3777 1.5749 4.7667 1.2966 1.7841 2.9878 2.939 3.885 5.3473 1.6281 5.4204 1.5452 11.426-0.60443 16.69-1.1826 2.6568-3.4654 5.4825-6.5945 5.4825-2.583 0-4.3406-2.7057-5.0067-4.5222l1.8231-7.1167c1.2922 1.4993 2.131 3.5219 3.8566 3.5219 2.0483 0 3.7451-2.4248 3.8048-4.5952 0.0361-1.869-0.95893-3.7713-1.9387-5.322-1.8279-2.5737-4.103-4.7719-5.0792-8.0136-0.62446-2.3858-0.57751-4.8871 0.0235-7.2543 1.3915-5.1335 4.7908-10.198 9.9001-10.198z" style="paint-order:stroke markers fill"/>
  <path d="m122.34 50.974c2.1685 0 3.389 3.3114 3.3853 5.8173 0 1.2733-0.0427 2.4496-0.0796 3.7869l-2.9832 1.5111c-0.0719-2.5756-0.2712-5.1508-2.6454-4.9425-2.1154 0.461-3.081 2.9195-3.3215 5.0405-0.12172 1.6758 0.6626 3.3777 1.5749 4.7667 1.2966 1.7841 2.9878 2.939 3.885 5.3473 1.6281 5.4204 1.5452 11.426-0.60443 16.69-1.1826 2.6568-3.4654 5.4825-6.5945 5.4825-2.583 0-4.3406-2.7057-5.0067-4.5222l1.8231-7.1167c1.2922 1.4993 2.131 3.5219 3.8566 3.5219 2.0483 0 3.745-2.4248 3.8048-4.5952 0.0361-1.869-0.95893-3.7713-1.9387-5.322-1.8279-2.5737-4.103-4.7718-5.0792-8.0136-0.62446-2.3858-0.57751-4.8871 0.0235-7.2543 1.3915-5.1335 4.7908-10.198 9.9001-10.198z" style="paint-order:stroke markers fill"/>
  <path d="m159.54 50.857c2.724 0 3.0527 5.9872 3.2703 8.775l-3.0953 1.4965c-0.54944-0.74993-1.1506-1.2527-2.1204-1.1894-0.98976 0.11339-1.7756 1.401-2.0863 2.5542-2.3105 6.8465-3.9193 13.379-3.9193 20.231-2e-3 1.4302 0.72229 3.5325 2.1255 3.5325 1.3832 0 2.8077-3.4121 3.7582-5.4204l2.2325 1.399c-1.0106 4.0761-3.7932 12.201-7.4134 12.201-4.2652 0-4.339-7.9677-4.339-12.265 0-8.2969 0.79454-14.194 2.9539-20.941 1.3356-4.1839 4.2262-10.374 8.6332-10.374z" style="paint-order:stroke markers fill"/>
  <path d="m166.73 51.614 3.7485-0.90665-2.0558 17.984 5.2047-0.76764 2.213-16.812 3.5242-0.60931-4.2847 41.428-3.9971 0.87253 2.1496-18.231-5.2311 0.88584-2.0145 17.306-3.6099 1.477z" style="paint-order:stroke markers fill"/>
  <path d="m195.15 52.028 11.362-0.96515-1.0578 7.5067h-2.8174l-3.7241 34.258-4.4017 1.3502 3.8216-35.608h-3.4414z" style="paint-order:stroke markers fill"/>
  <path d="m107.04 52.491 4.0025-0.82866-4.6746 41.555-3.9824 0.14623z" style="paint-order:stroke markers fill"/>
 </g>
 <g transform="matrix(2.4119 0 0 2.4119 28.359 14.367)" fill="#ec1e25">
  <path d="m19.07 5.2017c2.7292-0.82565 4.3718-2.6901 7.0585-2.6901 5.4946 0 15.068 5.1108 16.932 9.745-4.57 0.52792-10.132 0.51187-14.074-0.08732-1.2401-0.18849-3.9131-0.07783-5.1197 1.1645-1.7195-0.18472-3.4423 1.2443-4.6752 2.3339-3.71 3.09-8.9793 4.5599-13.298 6.5226-0.80079-4.5013 3.4997-13.597 6.9251-15.654 1.2903-0.87204 4.2991-0.77006 6.2509-1.3346z"/>
  <path d="m43.061 13.667c-0.81632 3.5715-3.1494 6.7174-5.0698 9.085-2.8886 3.4895-5.9019 5.2433-9.7717 6.1052-3.3632 0.74095-6.8581 0.70542-10.224 0.0045-4.3905-0.91414-8.5617-2.9603-11.935-5.8919 3.4177-0.48904 5.6576-1.2778 8.4151-2.3827 1.8556-0.74354 3.8797-1.4159 5.9689-1.2383 1.5178 0.1245 3.6529 0.35277 5.346 1.1332 1.0282-1.4972 1.9167-2.2294 2.8613-3.1248 1.2543-1.1714 3.9014-2.0041 6.2883-2.1594 3.3568-0.21836 6.594-0.60379 8.1215-1.5308z"/>
 </g>
 <path transform="matrix(4.0533 0 0 4.0533 -5.1459e-6 -2.469e-6)" d="m12.39 12.398c0.60937-1.6926 1.3732-2.9153 2.7049-3.6766-0.29521 1.7896-0.86968 2.7526-2.7049 3.6766z" fill="#f8b0b3" filter="url(#filter5816)" stop-color="#000000" stroke-width=".46648" style="paint-order:stroke fill markers"/>
 <path transform="matrix(4.0533 0 0 4.0533 -5.1459e-6 -2.469e-6)" d="m28.634 15.97c0.11024 0.30287-1.9216 2.7214-4.7556 3.7529s-6.4287-0.21576-6.5389-0.51863c-0.11023-0.30287 3.3358 0.67872 6.1698-0.35278s5.0145-3.1844 5.1247-2.8815z" fill="#f8b0b3" filter="url(#filter5820)" stop-color="#000000" stroke-width=".59504" style="paint-order:stroke fill markers"/>
 <g transform="matrix(2.8492 0 0 1.7292 423.17 507.45)" fill="#2d98cd" stroke="#fff" stroke-width="2.9217" style="paint-order:stroke fill markers;shape-inside:url(#rect2108);white-space:pre" aria-label="on">
  <path d="m100.74-243.94q-1.4 0-2.68-0.28-1.28-0.32-2.28-1-1-0.72-1.6-1.8t-0.6-2.64q0-2.88 0-5.76t0.2-5.76q0.12-1.68 0.64-2.84 0.56-1.2 1.52-1.92 0.96-0.76 2.24-1.08 1.32-0.36 2.96-0.36 1.48 0 2.76 0.32 1.32 0.32 2.28 1.04t1.52 1.88 0.56 2.8q0 2.88 0 5.8 0 2.88-0.2 5.76-0.12 1.6-0.72 2.72t-1.6 1.8q-0.96 0.68-2.24 1t-2.76 0.32zm2.04-19.56q0-0.84-0.36-1.52-0.32-0.68-1.32-0.68t-1.4 0.68q-0.36 0.64-0.36 1.52l-0.24 15.68q0 0.84 0.32 1.52 0.36 0.68 1.36 0.68t1.36-0.64q0.4-0.68 0.4-1.56z" style="paint-order:stroke fill markers"/>
  <path d="m111.9-267.1h4.52l0.36 1.24h0.56q1.12-0.84 2.44-1.16 1.36-0.36 2.72-0.36 1.04 0 1.76 0.4t1.16 1.08q0.48 0.64 0.68 1.52 0.2 0.84 0.2 1.76 0 4.6-0.12 9.2t-0.2 9.2h-5.52q0.08-4.6 0.2-9.04 0.12-4.48 0.12-9.08 0-0.44-0.08-0.88-0.04-0.44-0.2-0.8t-0.52-0.56q-0.32-0.24-0.84-0.24-0.56 0-0.92 0.28-0.36 0.24-0.56 0.64-0.2 0.36-0.28 0.84-0.04 0.48-0.04 0.96l-0.32 17.88h-5.52z" style="paint-order:stroke fill markers"/>
 </g>
 <g transform="matrix(4.0533 0 0 4.0533 -1882.2 -198.11)" fill="#ef454b" stroke="#fff" stroke-width="2" style="paint-order:stroke fill markers">
  <path d="m630.09 73v3.297h4.022v17.685h4.4338v-17.685h4.0218v-3.297z" style="paint-order:stroke fill markers"/>
  <path d="m645.51 73 3.5431 21h7.9641l3.5431-21h-4.9852l-1.7776 14.83-1.3915 1.2234-1.9108-16.053z" style="paint-order:stroke fill markers"/>
 </g>
</svg>
