<svg width="800" height="511.61" version="1.2" viewBox="0 0 800 511.61" xmlns="http://www.w3.org/2000/svg">
 <path d="m139.09 132.19-10.782 47.226c-4.0253 0-11.932-0.0719-23.649-0.28752l-25.877-0.43129c-5.6067-0.0719-12.579-0.21564-21.061-0.43128-8.4819-0.21564-15.526-0.28752-21.349-0.28752-5.3911 0-12.292 0.21564-20.702 0.64692-8.41 0.50317-13.657 0.79069-15.67 0.79069v-6.9724c6.613-0.93445 11.213-1.8689 13.801-2.8034 2.4439-0.79069 4.6723-2.1564 6.5412-3.9534 1.9408-2.1564 3.3065-4.816 3.8097-7.6912 0.64693-3.019 0.93445-8.1225 0.93445-15.382v-102.86c0-12.363-1.2939-20.27-3.9534-23.721-3.019-3.4503-9.5601-5.3911-19.767-5.9661v-6.9724c5.3911 0 12.22 0.21564 20.414 0.64693s13.442 0.64693 15.526 0.64693c2.0845 0 7.26-0.21564 15.454-0.64693 8.2663-0.43128 15.023-0.64693 20.414-0.64693v6.6849c-6.3255 0.50316-10.998 1.1501-14.017 1.9408-2.7315 0.64693-5.2473 2.1564-7.0443 4.3128-1.5814 1.8689-2.6596 4.3847-3.1628 7.6194-0.50316 3.2346-0.79069 8.5538-0.79069 15.814v108.04c0 8.1225 0.71881 13.442 2.2283 15.958s5.3911 3.8097 11.717 3.8097h31.124c6.613 0 12.148-1.4376 16.748-4.241 4.816-3.0909 8.9132-7.1881 11.932-12.076 3.3784-5.2473 6.8287-12.22 10.351-21.061zm181.07 47.226c-2.2283 0-6.8287-0.21564-13.945-0.64693-7.0443-0.43128-13.226-0.64692-18.545-0.64692-5.2473 0-11.86 0.21564-19.767 0.64692-7.9069 0.43129-13.01 0.64693-15.311 0.64693v-6.9724c10.854-1.1501 17.251-3.8097 19.12-7.9069 1.6532-2.9471 1.3657-8.1225-0.79069-15.311l-11.07-36.012h-60.524l-12.651 35.725c-2.3721 6.7568-2.7315 11.932-1.0782 15.526 1.1501 2.0845 3.1628 3.8097 5.9661 5.1035 2.8034 1.2939 7.3318 2.2283 13.37 2.8752v6.9724c-1.9408 0-6.1099-0.21564-12.651-0.64693-6.5412-0.43128-12.076-0.64692-16.748-0.64692-4.3847 0-9.1288 0.21564-14.304 0.64692-5.1754 0.43129-8.9132 0.64693-11.285 0.64693v-6.9724c6.6849-1.2939 11.573-3.594 14.736-6.7568 3.0909-3.0909 5.8223-7.9788 8.1944-14.664l43.128-117.53c5.1035-13.514 8.2663-23.433 9.4883-29.687l9.2726-1.0782c3.8097-0.43128 7.6912-1.0063 11.501-1.7251 0.79069 3.9534 4.1691 14.736 10.135 32.418l40.613 117.53c2.2283 6.3974 4.8879 11.285 8.0506 14.664 3.3065 3.1628 8.3382 5.3911 14.879 6.7568zm-64.405-77.847-25.59-78.853-27.315 78.853zm273-91.792c-1.8689 0.21564-3.7378 0.71881-5.5348 1.4376-1.5814 0.86257-3.0909 1.9408-4.4566 3.1628-3.4503 2.6596-7.0443 8.9851-10.782 19.12l-49.454 124.21c-2.2283 5.8942-3.8097 10.279-4.816 13.226s-1.797 5.3192-2.444 7.0443l-16.173 3.9534c-0.64693-2.0127-1.8689-5.6786-3.7378-10.854s-3.594-9.7039-5.1035-13.37l-19.767-49.67-19.408 48.376c-2.8034 7.1881-4.7441 12.148-5.7505 14.807s-1.797 4.9598-2.4439 6.7568l-16.245 3.9534c-0.64693-2.0127-1.8689-5.6786-3.6659-10.998s-3.4503-9.7039-4.8879-13.226l-49.454-126.8c-2.9471-7.7631-5.6786-12.795-8.0506-15.167-2.6596-2.6596-6.2536-4.5285-10.782-5.6786v-6.9724c3.594 0 8.3382 0.21564 14.161 0.64693s9.3445 0.64693 10.566 0.64693c1.1501 0 5.0317-0.21564 11.645-0.64693s11.788-0.64693 15.67-0.64693v6.6849c-5.1754 0.93445-8.6257 2.5158-10.279 4.6004-2.2283 3.0909-1.2938 9.9195 2.7315 20.414l44.566 121.05 25.877-61.817-27.315-65.915c-2.7315-6.613-4.9598-10.71-6.7568-12.435-3.0909-3.2346-7.1881-5.2473-11.645-5.6786v-6.9006c3.6659 0 8.3382 0.21564 13.945 0.64693s9.057 0.64693 10.279 0.64693c1.2938 0 4.9598-0.21564 10.926-0.64693 5.9661-0.43128 10.71-0.64693 14.304-0.64693v6.6849c-2.0127 0.21564-3.9534 0.71881-5.8942 1.5095-1.222 0.71881-2.2283 1.797-2.8752 3.0909-1.5095 3.0909-0.86257 8.1225 2.0127 15.023l15.311 40.613 15.67-40.613c2.8034-7.3318 3.594-12.292 2.2283-15.023-1.4376-2.6596-4.3847-4.0972-8.9851-4.3847v-6.9006c3.4503 0 7.5475 0.21564 12.363 0.64693s8.1225 0.64693 9.7758 0.64693 4.6722-0.21564 8.6976-0.64693c3.6659-0.43128 7.26-0.64693 10.926-0.64693v6.6849c-6.613 0.86257-11.07 2.4439-13.442 4.6004-2.7315 2.4439-5.3911 7.0443-8.0506 13.729l-23.577 55.923 28.105 71.881 46.004-121.05c3.6659-9.3445 4.6722-15.67 2.8752-19.12-1.8689-3.3784-6.613-5.2473-14.232-5.6786v-6.9724c3.594 0 8.3382 0.21564 14.161 0.64693 5.8942 0.43128 9.4164 0.64693 10.638 0.64693 1.5814 0 4.816-0.21564 9.7758-0.64693 4.9598-0.43128 9.1288-0.64693 12.651-0.64693zm184.66 95.314c-2.5877 4.0253-5.6786 7.6912-9.1288 10.998-3.3784 3.0909-7.7631 4.6722-13.298 4.6722-3.594 0.0719-7.1162-0.86257-10.135-2.8034-2.6596-1.7251-4.9598-4.0972-6.613-6.7568-1.9408-3.2346-3.6659-6.5412-5.1754-9.9914-4.241 5.1035-8.9851 9.7039-14.304 13.729-5.1035 3.8816-11.213 5.8223-18.186 5.8223-8.0506 0-14.664-2.4439-19.911-7.4037-5.1754-4.7441-8.0506-11.501-7.9069-18.473 0-11.142 8.4819-20.917 25.518-29.327-2.3002-1.0063-5.1754-3.1628-8.6257-6.4693s-5.1754-7.7631-5.1754-13.442c-0.14377-4.0253 1.222-7.9788 3.8097-11.07 2.5158-3.0909 5.8223-5.4629 9.5601-6.8287 3.8816-1.5095 7.9788-2.2283 12.148-2.2283 3.8816 0 7.6912 0.64693 11.285 2.0127 3.3065 1.1501 6.2536 3.1628 8.5538 5.7505 2.1564 2.4439 3.3065 5.6067 3.2346 8.9132 0.0719 4.5285-1.9408 8.7695-5.5348 11.501-4.1691 3.2346-8.6976 5.9661-13.585 8.0506 10.566 6.4693 18.689 13.945 24.439 22.571l5.2473-7.835c1.0063-1.3657 2.0845-2.7315 3.0909-4.1691 1.0063-1.3657 1.9408-2.8752 2.7315-4.3847 0.64693-1.0782 1.0782-2.3002 1.222-3.594 0-2.7315-2.8034-4.241-8.4819-4.5285v-4.816c1.3657 0 3.0909 0.07188 5.2473 0.14376s4.241 0.21564 6.3255 0.3594 3.8097 0.21564 5.1754 0.21564 2.8752-0.07188 4.8879-0.21564 3.9534-0.21564 5.8942-0.3594 3.594-0.14376 4.816-0.14376v4.7441c-4.6722 0.43128-8.1225 1.3657-10.495 2.8034-2.3721 1.4376-4.816 3.8816-7.4037 7.3318l-14.951 19.552c0.3594 0.79069 0.93445 1.797 1.5814 3.019 0.64692 1.222 1.6532 3.019 2.8752 5.3911 0.71881 1.0782 1.5095 2.3721 2.4439 3.8816 0.93445 1.5095 2.0127 2.9471 3.2346 4.241 1.1501 1.2939 2.5158 2.444 4.0253 3.3065 1.5095 0.86257 3.2346 1.2938 5.0317 1.2938 3.594 0 6.1817-0.57504 7.835-1.797 2.2283-1.797 4.241-3.8097 6.038-6.038zm-47.944-9.2726c-2.2283-4.5285-6.2536-9.5601-12.004-15.023-4.816-4.7441-10.063-9.057-15.67-12.867-9.5601 5.7505-14.376 13.082-14.376 22.067-0.0719 5.0317 2.0127 9.9195 5.7505 13.298 3.7378 3.5222 8.6976 5.4629 13.873 5.3192 4.3128 0.14376 8.6257-1.0063 12.292-3.3065 3.8097-2.6596 7.26-5.8223 10.135-9.4883zm-8.41-52.329 0.21564 0.21564c0.14376-3.4503-1.0782-6.9006-3.3065-9.5601-2.2283-2.5158-5.1754-3.8097-9.057-3.8097-3.8097 0-6.7568 1.0782-8.7695 3.3065s-3.019 5.1754-3.019 8.8413c0 3.3065 1.222 6.5412 3.5222 8.9851 2.8034 3.0909 6.1099 5.7505 9.7039 7.9069 7.1881-3.9534 10.71-9.2726 10.71-15.886z" fill="#111c39" stroke-width=".71881"/>
 <path d="m670.65 160.29c14.879 12.004 17.755 21.205 17.108 21.852-6.613-5.2473-13.37-10.351-19.839-15.742-4.7441-3.9534-9.1289-3.4503-13.442 0.0719-6.3255 5.1754-12.507 10.566-18.761 15.886-2.1564-3.9534 17.108-21.133 16.676-21.852-5.6067 2.9471-11.573 5.4629-16.82 8.9851-13.514 9.057-25.661 9.057-39.031-1.6532 14.089 5.6786 25.23-2.5877 37.522-6.3974 6.2536-1.9408 12.723-3.1628 19.264-3.594 4.6722 0 6.8287 1.8689 8.0506 1.4376 15.67-4.6722 28.537 1.5814 42.697 7.1162 6.4693 2.5877 14.232 1.7251 21.277 2.444-7.1162 5.8223-16.029 8.9851-26.021 5.3192-5.9661-2.1564-11.429-5.9661-17.18-8.8413-3.7378-1.797-7.6912-3.3784-11.501-5.0316zm-85.251-46.651c-1.0782 0.43128 2.3721 20.342 5.0316 29.327-5.1754-2.8752-11.213-5.9661-16.892-9.4883s-10.926-7.6912-16.892-11.932c9.057 20.702 25.661 28.752 46.579 30.334-5.8942-12.579-11.86-25.374-17.826-38.241zm188.26-22.283c-7.3318 8.7695-14.448 17.251-21.78 26.021-0.71881-10.351-3.594-29.184-4.4566-29.184-2.1564 14.304-4.241 28.609-6.5412 43.704 15.958-9.3445 31.699-18.761 32.778-40.541zm-192.35 40.541c-2.0127-13.585-4.0253-27.53-6.038-41.475-0.93445 0.07188-3.7378 19.408-4.1691 28.68l-21.205-24.583c0.0719 15.454 15.958 33.425 31.412 37.378zm47.298 25.59c-4.7441-3.3065-9.9195-6.613-14.664-10.495s-8.7695-8.1225-13.154-12.292c-0.86257 0.79069 8.9851 16.173 14.089 22.355-5.0317-0.71881-11.429-1.6533-17.755-2.6596-6.3255-1.0063-12.651-1.9408-19.264-2.9471 10.638 14.376 31.915 16.389 50.748 6.038zm115.8-6.613c-11.645 1.9408-23.289 5.6067-35.006 5.8224 5.2473-7.5475 14.232-22.355 13.729-22.714-10.063 8.1944-20.055 16.317-29.543 24.08 17.683 7.9788 42.482 7.26 50.82-7.1881zm-194.29-92.079c-5.1035 19.048 2.5877 33.568 15.742 47.298 3.2346-14.592 6.1818-28.249 9.1289-41.906-0.71881-0.28752-10.135 16.533-14.089 25.158-3.4503-9.8477-7.0443-20.055-10.782-30.549zm211.04 30.334c-3.6659-8.6976-13.226-26.524-14.089-26.165 3.2346 13.514 6.4693 27.027 9.8477 41.116 13.298-12.363 18.977-26.74 15.526-47.01-4.5285 12.723-8.1225 23.074-11.285 32.059zm-20.486-45.357c6.6849 10.782 13.37 21.492 20.055 32.274 8.5538-15.742 10.782-36.228 0.71881-43.56-0.57504 9.057-1.1501 18.114-1.7251 27.243-5.6786-6.1099-18.186-16.604-19.048-15.958zm-179.41 32.562 19.839-32.993c-0.93445-0.64693-13.514 10.71-19.192 17.539-0.64693-9.8477-1.3657-19.264-2.0127-28.68-8.6257 15.023-5.0317 29.255 1.3657 44.135zm195.44-26.596c1.8689-24.439-0.3594-31.556-10.782-36.659 2.1564 7.4037 4.3847 14.951 7.0443 24.368l-21.924-18.33c3.594 15.023 17.539 19.264 25.661 30.621zm-190.77-0.50317c8.4819-9.9195 21.636-14.664 24.224-29.184-7.0443 6.1099-13.585 11.717-21.852 18.905 3.019-10.207 5.391-18.258 8.1225-27.458-13.37 9.9195-13.298 22.858-10.495 37.737zm32.203-46.291c-12.579 3.019-20.27 10.063-19.552 23.936 6.4693-7.9788 13.01-15.958 19.552-23.936zm146.42 23.505c-2.7315-13.226-8.4819-23.577-24.224-26.452zm-25.518 125.5c20.917-1.5814 37.522-9.7039 46.579-30.334-5.9661 4.241-11.285 8.3382-16.892 11.932s-11.717 6.613-16.892 9.4883c2.6596-8.9851 6.1818-28.896 5.0317-29.327-5.9661 12.795-11.932 25.59-17.826 38.241z" fill="#a0907d" stroke-width=".71881"/>
 <path d="m155.27 348.7-12.287 37.794c-2.8741 2.6585-8.8378 5.9637-17.819 9.9874-8.9815 4.0237-21.053 6.0356-36.142 6.0356-13.149 0-25.364-2.0837-36.429-6.323-10.706-3.9519-20.406-10.203-28.31-18.394-7.76-8.0474-13.796-17.891-17.963-29.531-4.1674-11.64-6.323-24.502-6.323-38.656 0-13.939 2.5148-26.729 7.5445-38.153 4.5985-10.921 11.496-20.765 20.19-28.884 8.4785-7.76 18.394-13.867 29.1-17.963 10.706-4.1674 22.059-6.2511 33.555-6.323 15.233 0 27.591 1.7963 37.219 5.317s16.095 6.5385 19.472 8.9096l0.79037 40.884-6.1793 1.0778c-6.2511-31.112-23.783-46.632-52.596-46.632-8.1193-0.0718-16.095 1.7245-23.424 5.2452-7.5445 3.7363-14.155 9.0534-19.472 15.664-5.6763 6.8978-10.203 15.52-13.364 25.867-3.1615 10.347-4.8141 21.987-4.8141 34.992s1.5807 24.717 4.7422 35.136 7.4726 19.041 12.933 25.795c5.1015 6.5385 11.568 11.856 18.969 15.52 7.1852 3.5207 15.089 5.3889 23.064 5.3171 15.017 0 27.591-4.2393 37.794-12.718 10.131-8.4785 17.747-19.256 22.849-32.333zm165.91 50.009c-2.2274 0-5.6044-0.14371-10.275-0.50294-4.6704-0.35926-8.1911-0.50297-10.562-0.50297-2.8022 0-6.2511 0.14371-10.275 0.43111-4.0237 0.2874-7.1852 0.50297-9.3408 0.64666l-35.064-67.541c-3.0896-6.0356-5.5326-10.131-7.3289-12.215-1.7963-2.0837-4.7422-3.1615-8.9096-3.2333l-18.035-0.79037v46.919c0 5.4608 0.0718 9.4126 0.28741 11.927 0.14371 2.2274 0.57481 4.383 1.2933 6.5385 0.57482 1.7245 1.5807 3.3052 2.8741 4.5985 2.0119 1.8681 4.383 3.377 6.9696 4.3111 2.5148 0.93409 6.5385 1.7245 11.999 2.443v7.0415c-2.0118 0-7.0415-0.21557-15.089-0.64666-8.0474-0.43111-14.73-0.64668-20.119-0.64668s-12.287 0.21557-20.693 0.64668-13.652 0.64666-15.664 0.64666v-6.9696c6.1793-0.71854 10.634-1.5089 13.293-2.443 2.6585-0.86223 5.0296-2.3711 6.9696-4.3111 1.2933-1.2933 2.2274-2.8022 2.9459-4.4548 0.79037-2.3711 1.2933-4.7422 1.437-7.257 0.28741-3.0896 0.43111-6.8259 0.43111-11.353v-102.89c0-7.76-0.21555-13.149-0.71852-16.167-0.35926-2.8022-1.5089-5.3889-3.2333-7.5445-3.0178-3.4489-9.5563-5.3889-19.759-5.9637v-6.9696c5.1733 0 11.424 0.21557 18.682 0.64668 7.257 0.43109 12.287 0.64666 15.089 0.64666 2.3711 0 8.0474-0.21557 17.029-0.64666 8.9096-0.43111 16.31-0.64668 22.13-0.64668 11.856 0 21.699 1.6526 29.675 4.8859 6.2511 2.3711 12.287 6.4667 18.179 12.143 5.8919 5.6763 8.8378 13.796 8.8378 24.286 0.0719 7.4008-2.0119 14.73-6.0356 20.981-4.0237 6.323-9.4126 11.712-15.664 15.736-6.3948 4.1674-13.436 7.257-20.837 9.197 5.0296 0.64666 9.2689 3.2333 12.718 7.8319 3.4489 4.5985 7.5444 11.424 12.359 20.478l19.544 36.501c2.5148 4.8859 6.1793 9.0534 10.706 12.143 4.383 2.7304 9.2689 4.5267 14.37 5.1733zm-53.386-132.35h0.28742c0-12.287-3.9519-21.196-11.856-26.585-7.9037-5.3889-17.747-8.1193-29.531-8.1911h-8.6222c-2.6585 0-4.383 0.43111-5.317 1.3652-0.93408 0.93408-1.3652 2.7304-1.3652 5.317v68.691l15.304-0.50297c13.867-0.79037 24.214-4.383 30.968-10.706 6.7541-6.2511 10.131-16.095 10.131-29.387zm138.46 132.35c-1.94 0-7.1852-0.21557-15.736-0.64666-8.5504-0.43111-15.592-0.64666-21.053-0.64666-5.4608 0-12.287 0.21557-20.693 0.64666-8.4067 0.43112-13.652 0.64666-15.664 0.64666v-6.9696c7.1133-1.1496 11.784-2.0837 14.011-2.8022 2.3711-0.79038 4.5267-2.1556 6.2511-3.9519 1.94-2.1556 3.3052-4.8141 3.8082-7.6882 0.64665-3.0178 0.93406-8.1193 0.93406-15.376v-102.82c0-12.359-1.2933-20.262-3.9518-23.711-3.0178-3.4489-9.5563-5.3889-19.759-5.9637v-6.9696c5.317 0 12.071 0.21557 20.047 0.64668 7.9756 0.43109 13.005 0.64666 15.017 0.64666 2.0118 0 7.1852-0.21557 15.233-0.64666 8.0474-0.43111 14.658-0.64668 19.975-0.64668v6.6822c-10.347 0.86221-16.885 2.9459-19.544 6.1793-1.5808 1.8681-2.6585 4.383-3.1615 7.6163s-0.7904 8.5504-0.7904 15.807v103.11c0 5.4608 0.14372 9.4126 0.35929 11.927 0.14371 2.2274 0.57482 4.383 1.2933 6.5385 0.5748 1.7245 1.5089 3.3052 2.8022 4.5985 1.3652 1.2933 2.8741 2.443 4.5267 3.2333 2.1555 0.93406 4.3829 1.6526 6.6822 2.0837 3.0896 0.64666 6.1792 1.0778 9.3408 1.3652zm239.7 0c-2.0119 0-7.0415-0.21557-15.017-0.64666-8.0474-0.43111-14.658-0.64666-20.047-0.64666-5.3889 0-11.856 0.21557-19.759 0.64666-7.9037 0.43112-13.005 0.64666-15.304 0.64666v-6.9696c7.1133-0.71851 12.143-1.6526 14.945-2.8022 2.7304-1.0059 4.8141-3.3052 5.6763-6.1074 0.93406-2.9459 1.2933-8.0474 1.1496-15.233l-2.0837-122.72-52.093 122.72c-2.2993 5.4607-4.6704 11.496-7.1133 18.25-2.443 6.7541-4.1674 11.424-5.0296 14.155h-6.8978c-0.93408-2.7304-2.443-7.0415-4.5267-12.933-2.0837-5.8919-4.5985-12.43-7.6163-19.472l-48.428-116.83-7.4007 113.38c-0.50297 7.4007-0.28743 12.862 0.71851 16.454 0.93409 3.4489 3.3052 6.2511 6.6104 7.6881 3.3771 1.5808 8.7659 2.7304 16.31 3.4489v7.0415c-2.443 0-6.9696-0.21557-13.58-0.64666-6.6104-0.43111-12.43-0.64668-17.532-0.64668-5.1015 0-10.85 0.21557-17.316 0.64668-6.4667 0.43111-10.993 0.64666-13.724 0.64666v-6.9696c6.2511-0.71854 10.922-1.8682 14.155-3.4489 3.3052-1.6526 5.82-4.4548 7.1134-7.9037 1.5089-3.6645 2.5867-8.9815 3.0896-15.951l9.3408-112.81c0.57483-6.2511-0.28742-10.85-2.6585-13.867-3.5208-4.3111-10.706-7.1133-21.627-8.3348v-7.0415c4.1674 0 9.0534 0.21557 14.658 0.64668 5.6044 0.43109 9.3407 0.64666 11.065 0.64666 2.0837 0 6.2511-0.14371 12.287-0.50297 6.1074-0.35925 10.49-0.64666 13.221-0.79037 0.35928 3.5926 2.1556 9.7 5.3889 18.322l49.147 119.56 50.727-122.29c1.2934-2.8741 2.2993-5.8918 2.9459-9.0533 0.50297-2.1556 0.86225-4.3111 1.1496-6.5385 2.7304 0.21557 7.1134 0.43112 13.221 0.79037 6.1074 0.35926 10.203 0.50297 12.359 0.50297 1.94 0 5.6763-0.21557 11.281-0.64666 5.6044-0.43111 10.419-0.64668 14.442-0.64668v6.6822c-5.4607 0.50295-9.5563 1.2933-12.287 2.3711-2.443 0.8622-4.5985 2.4429-6.1793 4.5267-1.5808 2.3711-2.5148 5.1015-2.7304 7.9756-0.50295 4.6704-0.64666 9.3408-0.43109 14.011l3.3052 109.57c0.28743 5.4607 0.7904 9.4844 1.5808 12.215 0.71851 2.5148 2.0837 4.8141 4.0955 6.5385 2.0837 1.7245 4.5985 2.9459 7.2571 3.5208 4.0237 0.86222 8.0474 1.5089 12.143 1.94zm154.05-45.339-10.778 45.339c-3.7363 0-18.825-0.21557-45.41-0.64666-26.585-0.43111-43.399-0.64666-50.44-0.64666-5.3889 0-12.287 0.21557-20.693 0.64666-8.4785 0.43112-13.652 0.64666-15.664 0.64666v-6.9696c6.6104-0.93408 11.209-1.8682 13.796-2.8022 2.443-0.79038 4.6704-2.1556 6.5385-3.9519 1.94-2.1556 3.3052-4.8141 3.8081-7.6882 0.64668-3.0178 0.93408-8.1193 0.93408-15.376v-102.82c0-12.359-1.2933-20.262-3.9518-23.711-3.0178-3.4489-9.5563-5.3889-19.759-5.9637v-6.9696c5.3889 0 12.071 0.21557 20.047 0.64668 7.9756 0.43109 13.005 0.64666 15.017 0.64666 3.5207 0 11.424-0.0719 23.783-0.28742 12.359-0.14371 21.124-0.28738 26.37-0.43112l22.921-0.43109c10.059-0.14371 16.526-0.28742 19.328-0.28742l0.79037 39.95-5.3889 0.50297c-2.9459-8.9096-5.6045-15.233-7.6882-18.969-2.0119-3.5926-5.1015-6.4667-8.8378-8.1911-3.7363-1.6526-9.4845-2.5148-17.244-2.5148h-30.968c-5.2452 0-8.4785 0.57482-9.6282 1.7963-1.1496 1.2215-1.7244 4.5267-1.7244 10.059v58.2l27.447-0.79037c5.8918-0.0719 10.419-0.50294 13.652-1.2215 3.2333-0.71852 5.6044-1.94 7.1852-3.6645 3.8082-3.5207 5.9637-9.7718 6.4667-18.825h6.4667c0 4.7422-0.21557 10.49-0.64666 17.316-0.43111 6.8259-0.64668 11.065-0.64668 12.862 0 1.7963 0.21557 5.9637 0.64668 12.933 0.43109 6.9696 0.64666 12.79 0.64666 17.532h-6.1793c-0.79037-9.8437-2.9459-16.526-6.4667-20.19-1.5807-1.5807-3.9518-2.8022-7.1852-3.5926-3.2333-0.79037-7.8319-1.2215-13.867-1.2933l-27.447-0.79038v55.326c0 5.1733 0.43114 9.0534 1.2933 11.568 0.7904 2.443 2.7304 4.383 5.1733 5.2452 2.5148 1.0059 6.3948 1.5089 11.568 1.5089h30.896c6.0356 0.14371 11.927-1.437 17.101-4.5267 5.1015-3.1615 9.4126-7.4008 12.646-12.359 3.8082-5.8919 6.9696-12.143 9.4126-18.682z" fill="#111c39" stroke-width=".71852"/>
 <g transform="matrix(.46781 0 0 .46781 -244.74 684.74)">
  <path d="m575.65-477.08v104.1h-24.4v-104.1h-28.1v-21h80.6v21zm106.8-21c17.3 0 26.1 4.5 31.9 9.4 9.6 8.1 12.4 18.8 12.4 28.1 0 12.2-4.9 22.9-14.6 29.4-4.1 2.8-8.8 4.6-13.7 5.4l39 52.7h-30.4l-33.4-50.3h-3v50.3h-24.4v-125zm-11.8 57.6h6.9c4.7 0 24-0.6 24-18.9 0-18.6-19.1-18.8-23.6-18.8h-7.3zm134.1-57.6v125.1h-24.4v-125.1zm129.9 98.8h-50.5l-11.1 26.3h-26.4l53.8-125.1h19.1l52.3 125.1h-26.3zm-7.1-19.8-17.8-45-17.8 45zm111-79v104.1h38.6v21h-63v-125.1zm159.2 125.1v-125.1h16.9l76.1 83.5v-83.5h24.4v125.1h-16.8l-76.1-83.6v83.6zm243.4-104.1h-45v27.9h43.1v21h-43.1v34.1h45v21h-69.4v-125h69.4zm92.8 0v104.1h-24.4v-104.1h-28.1v-21h80.6v21zm126.2 104.1h-18.4l-43.4-125.1h25.9l27.9 85.2 30.6-86.3h13.5l28.9 86.3 30-85.1h25.9l-46.3 125.1h-18.4l-27.4-79.3zm284.8-62.4c0 38.1-27.4 65.3-66.8 65.3s-66.8-27.2-66.8-65.3 27.4-65.5 66.8-65.5 66.8 27.4 66.8 65.5zm-25.1 0c0-25.3-17.3-43.3-41.6-43.3s-41.6 18-41.6 43.3 17.3 43.1 41.6 43.1 41.6-17.8 41.6-43.1zm111.6-62.7c17.3 0 26.1 4.5 31.9 9.4 9.6 8.1 12.4 18.8 12.4 28.1 0 12.2-4.9 22.9-14.6 29.4-4.1 2.8-8.8 4.6-13.7 5.4l39 52.7h-30.4l-33.4-50.3h-3v50.3h-24.4v-125zm-11.8 57.6h6.9c4.7 0 24-0.6 24-18.9 0-18.6-19.1-18.8-23.6-18.8h-7.3zm134.1-4.7 45.9-52.9h30.8l-52.9 57.8 55.7 67.3h-32.3l-44.4-56.1-2.8 2.8v53.3h-24.4v-125.1h24.4z" fill="#a0907d"/>
 </g>
</svg>
