<svg width="800" height="241.9" version="1.1" viewBox="0 0 800 241.9" xmlns="http://www.w3.org/2000/svg">
 <g transform="translate(.0032116 -31.704)" fill="#fff">
  <path d="m362.06 137.27c0 47.271 29.702 73.659 72.885 73.659 29.473 0 53.235-14.686 65.574-36.715-7.7682-4.8189-33.129-19.505-33.129-19.505-7.3113 9.6378-16.45 19.505-30.388 19.505-15.993 0-29.245-8.0314-32.901-24.782h98.704c0.2285-3.2125 0-5.0483 0-8.4904 0-50.254-28.56-77.102-69-77.102-41.355 0-71.742 30.749-71.742 73.43zm71.285-37.633c13.252 0 20.563 6.4252 25.59 19.964h-53.235c5.255-13.08 13.252-19.964 27.646-19.964z" stroke-width=".90174"/>
  <path d="m49.412 137.27c0 47.271 29.702 73.659 72.885 73.659 29.473 0 53.235-14.686 65.574-36.715-7.7682-4.8189-33.129-19.505-33.129-19.505-7.3113 9.6378-16.45 19.505-30.388 19.505-15.993 0-29.245-8.0314-32.901-24.782h98.704c0.2285-3.2125 0-5.0483 0-8.4904 0-50.254-28.56-77.102-69-77.102-41.355 0-71.742 30.749-71.742 73.43zm71.285-37.633c13.252 0 20.563 6.4252 25.59 19.964h-53.235c5.255-13.08 13.252-19.964 27.646-19.964z" stroke-width=".90174"/>
  <path d="m-0.0032116 31.704h42.504v175.79h-42.504z" stroke-width=".90174"/>
  <path d="m509.94 206.9v-140.5h42.308v18.287s13.483-21.011 40.847-21.011c27.741 0 50.302 20.148 50.302 46.693v96.531h-43.69v-82.404c0-11.646-3.2323-22.649-21.874-22.649-13.682 0-25.106 11.247-25.106 24.708v80.345h-42.773z" stroke-width="2.7051"/>
  <path d="m309.49 85.592c-6.7149-8.9532-17.907-23.342-45.405-23.342s-42.847 14.069-49.881 22.063c-16.947 19.506-17.587 42.208-17.587 50.841 0 26.859 11.191 44.446 17.907 52.121 1.9186 1.9185 6.0754 6.7149 12.151 10.232 14.069 9.2726 27.499 9.5927 33.895 9.5927 14.709 0 29.738-4.4766 40.929-13.75 2.8778-2.558 5.4359-5.1161 7.994-7.6742v13.75c-0.31975 15.348-0.6396 22.703-5.1162 29.098-7.3544 10.871-21.424 10.871-24.621 10.871-3.1976 0-17.587 0-24.941-11.512-1.5987-2.5581-2.8777-6.0754-3.1976-6.7149h-46.045c1.279 11.191 2.8778 18.546 9.2726 28.139 4.1568 6.3951 8.6334 9.9128 11.512 11.512 18.226 12.79 43.487 12.79 49.242 12.79 29.417 0 62.673-9.5927 74.183-40.609 6.395-15.988 5.1162-37.092 5.1162-40.929v-125.67h-45.405zm-34.534 16.947c18.546 0 27.499 12.79 30.057 18.546 2.8778 6.0754 2.8778 12.79 2.8778 14.709 0 18.865-10.871 34.534-31.016 34.534-14.069 0-26.54-7.6742-31.336-21.104-1.9185-5.7556-1.9185-10.552-1.9185-13.11 0-18.546 12.151-33.574 31.336-33.574z" stroke-width="7.9939" style="shape-inside:url(#rect4025-5);white-space:pre"/>
  <path d="m757.9 31.747v47.905s-16.123-15.992-40.429-15.992c-41.08 0-66.944 35.854-66.944 73.935 0 39 24.049 72.273 63.344 72.273 18.377 0 31.776-5.2017 44.722-17.999v14.607h41.399v-174.73h-42.09zm-30.877 71.374c19.758 0 32.952 14.569 32.952 34.199 0 19.371-12.245 34.682-34.268 34.682-19.316 0-32.259-15.709-32.259-35.099 0-17.769 12.215-33.783 33.575-33.783z" stroke-width="2.2153"/>
 </g>
</svg>
