<svg width="1030.1" height="800.01" version="1.1" viewBox="0 0 272.56 211.67" xmlns="http://www.w3.org/2000/svg" xmlns:xlink="http://www.w3.org/1999/xlink">
 <defs>
  <linearGradient id="linearGradient947">
   <stop stop-color="#fdd8a2" offset="0"/>
   <stop stop-color="#f9b126" offset=".24522"/>
   <stop stop-color="#f6a321" offset=".45"/>
   <stop stop-color="#f39121" offset=".7"/>
   <stop stop-color="#dd7218" offset="1"/>
  </linearGradient>
  <linearGradient id="linearGradient935">
   <stop stop-color="#999998" offset="0"/>
   <stop stop-color="#999998" offset=".14502"/>
   <stop stop-color="#dedede" offset=".6"/>
   <stop stop-color="#f2f2f2" offset="1"/>
  </linearGradient>
  <radialGradient id="radialGradient949-0-7" cx="-7.6698" cy="272.33" r="170" gradientTransform="matrix(.30048 1.1214 -.73089 .19584 205.56 -31.861)" gradientUnits="userSpaceOnUse" xlink:href="#linearGradient947"/>
  <radialGradient id="radialGradient949-6-4-8" cx="-7.6698" cy="272.33" r="170" gradientTransform="matrix(.36057 1.3457 -.87707 .23501 538.88 -135.09)" gradientUnits="userSpaceOnUse" xlink:href="#linearGradient947"/>
  <linearGradient id="linearGradient1772" x1="231.92" x2="577.27" y1="882.1" y2="682.71" gradientTransform="matrix(.22049 0 0 .22049 1.7576 17.18)" gradientUnits="userSpaceOnUse" xlink:href="#linearGradient935"/>
  <linearGradient id="linearGradient1774" x1="231.92" x2="577.27" y1="882.1" y2="682.71" gradientTransform="matrix(.26458 0 0 .26458 294.31 -76.241)" gradientUnits="userSpaceOnUse" xlink:href="#linearGradient935"/>
 </defs>
 <g transform="matrix(-.45486 0 0 -.45486 405.46 71.48)">
  <path d="m355.68 104.23v52.917h75.406c25.572 0 46.302-23.692 46.302-52.917z" fill="url(#linearGradient1774)" stop-color="#000000" stroke-width=".087031" style="paint-order:stroke fill markers"/>
  <path d="m323.93-96.851c-17.535 0-31.75 14.215-31.75 31.75v172.77c0 27.325 22.152 49.477 49.477 49.477h40.481c-14.613 2e-5 -26.458-20.73-26.458-46.302v-175.95c0-17.535-14.215-31.75-31.75-31.75z" fill="url(#radialGradient949-6-4-8)" stop-color="#000000" stroke-width=".19444" style="paint-order:stroke fill markers"/>
 </g>
 <g transform="matrix(4.9811 0 0 4.9811 -4329.8 -487.61)" fill="#14022f">
  <path d="m884.21 113.27h3.175v1.5875h-4.9742v-7.3766h1.7992z" style="white-space:pre"/>
  <path d="m888.72 108.45q1.0901-1.0689 2.7834-1.0689t2.7834 1.0689 1.0901 2.7199-1.0901 2.7305q-1.0901 1.0689-2.7834 1.0689t-2.7834-1.0689q-1.0901-1.0795-1.0901-2.7305t1.0901-2.7199zm4.2439 1.1853q-0.5715-0.60324-1.4605-0.60324t-1.4711 0.60324q-0.5715 0.59267-0.5715 1.524 0 0.94191 0.5715 1.5557 0.58208 0.60325 1.4711 0.60325t1.4605-0.60325q0.58208-0.61383 0.58208-1.5557 0-0.93133-0.58208-1.524z" style="white-space:pre"/>
  <path d="m903.75 111.8q-0.19049 1.4076-1.2488 2.286-1.0478 0.87842-2.5612 0.87842-1.6933 0-2.7834-1.0689-1.0901-1.0795-1.0901-2.7305t1.0901-2.7199 2.7834-1.0689q1.5134 0 2.5612 0.87842 1.0583 0.86783 1.2488 2.2754h-1.8415q-0.15875-0.66674-0.6985-1.0795-0.52916-0.42333-1.27-0.42333-0.89958 0-1.4711 0.60324-0.5715 0.59267-0.5715 1.524 0 0.94191 0.5715 1.5557 0.5715 0.60325 1.4711 0.60325 0.73024 0 1.2594-0.41275 0.53975-0.42333 0.70908-1.1007z" style="white-space:pre"/>
  <path d="m907.69 107.38q1.3229 0 2.1696 0.77258 0.84666 0.77258 0.84666 1.9897v4.7202h-1.7992v-1.8415h-2.413v1.8415h-1.7886v-4.7202q0-1.2171 0.83608-1.9897t2.1484-0.77258zm-1.1959 4.2756h2.413v-1.4182q0-0.53975-0.33867-0.86783-0.33866-0.33866-0.86783-0.33866-0.52916 0-0.86783 0.33866-0.33866 0.32808-0.33866 0.86783z" style="white-space:pre"/>
  <path d="m913.75 113.27h3.175v1.5875h-4.9742v-7.3766h1.7992z" style="white-space:pre"/>
 </g>
 <g transform="matrix(7.0028 0 0 7.0028 -6111.4 -749.44)" fill="#14022f">
  <path d="m887.76 120.87v1.5875h-2.0426v5.7891h-1.7992v-5.7891h-2.0426v-1.5875z" style="white-space:pre"/>
  <path d="m893.56 120.87h1.8732l-2.667 7.3766h-2.0955l-2.667-7.3766h1.8732l1.8415 5.5774z" style="white-space:pre"/>
 </g>
 <path d="m26.458 0.0028894c-14.612 0-26.458 11.846-26.458 26.458v143.98c0 22.771 18.46 41.231 41.231 41.231h33.734c-12.177 0-22.049-17.275-22.049-38.585v-146.62c0-14.613-11.846-26.458-26.458-26.458z" fill="url(#radialGradient949-0-7)" stop-color="#000000" stroke-width=".16203" style="paint-order:stroke fill markers"/>
 <path d="m52.858 167.57v44.097h62.839c21.31 0 38.585-19.744 38.585-44.098z" fill="url(#linearGradient1772)" stop-color="#000000" stroke-width=".072526" style="paint-order:stroke fill markers"/>
</svg>
