<svg width="844.23pt" height="564.05pt" version="1.1" viewBox="0 0 844.23 564.05" xmlns="http://www.w3.org/2000/svg">
 <path class="a" d="m811.16 49.932-774.21-47.102h-1.0402l-35.909-2.8295 6.9905 64.142 34.078 322s3.9113 36.575 40.84 36.575h725.9l36.305-333.42s3.8489-36.575-32.955-39.363z" fill="#fff" stroke-width="2.0805"/>
 <path class="b" d="m718.23 195.69a20.805 20.805 0 0 0 20.805 20.805c11.464 0 20.202-9.175 20.805-20.805 1.3939-22.885-23.239-37.449-45.188-37.449-33.475 0-71.423 22.719-74.378 71.34-1.6644 27.65 10.402 57.297 55.279 57.297 37.054 0 53.094-21.533 54.904-45.001-8.7381 5.6381-24.966 14.043-42.608 12.358-13.024-1.2275-20.222-12.961-19.182-30.167 1.1859-21.429 10.673-36.825 23.302-36.825 5.6589 0 6.9904 2.0805 6.5952 4.6187a30.292 30.292 0 0 0-0.33288 3.8281z" fill="#003c82" stroke-width="2.0805"/>
 <circle class="b" cx="617.95" cy="115.97" r="26.651" fill="#003c82" stroke-width="2.0805"/>
 <path class="b" d="m598.27 286.8c12.275 0 19.286-2.6422 27.941-5.9918-3.3912-7.2193-2.9959-19.598-2.0805-27.983 3.4744-29.335 7.8642-57.567 10.569-73.92 1.9349-11.089-4.3066-29.106-45.916-16.353-8.1347 44.876-13.856 90.564-14.563 104.79 0 5.6589 2.2261 19.453 24.05 19.453z" fill="#003c82" stroke-width="2.0805"/>
 <path class="b" d="m666.92 303.75c-29.252 0-64.495-3.8281-112.95-5.9502q0.31207-1.8932 0.54092-3.7241c8.1971-62.748 13.544-101.8 17.143-124.27-9.2374-5.4509-30.937-11.526-52.324-11.526-57.026 0-81.763 38.593-81.763 74.627s19.286 53.906 40.237 53.906c15.541 0 24.966-7.1361 31.852-16.935-1.1235 10.402-2.0805 19.806-2.7046 26.651q-6.5536 0-13.357 0c-43.087 0-69.759 18.932-70.737 42.9-1.1027 31.207 34.619 39.654 53.053 39.654 41.61 0 61.874-24.841 71.694-54.238 51.305 5.7422 97.097 18.724 144.41 18.724 36.013 0 49.641-18.412 52.449-32.268a46.769 46.769 0 0 0-0.52013-17.975c-9.9864 5.867-19.078 10.423-77.02 10.423zm-189.91 53.219c-6.6368 0-16.373-5.5965-14.688-16.54 2.5174-16.644 24.425-18.308 40.445-18.308h1.2899c-4.9932 29.168-14.605 34.952-27.046 34.952zm35.368-110.68c-3.9737 3.8073-8.0307 6.2415-11.921 6.2415-8.322 0-13.898-11.131-13.398-24.966 1.1235-29.917 18.225-43.295 34.078-37.99-3.0999 12.816-6.1374 35.119-8.7381 56.818z" fill="#003c82" stroke-width="2.0805"/>
 <path class="b" d="m424.59 246.79c4.6603-34.869 8.322-62.144 10.798-76.874-9.2166-5.4509-30.937-11.526-52.304-11.526-57.026 0-81.763 38.593-81.763 74.627s19.307 53.885 40.258 53.885c16.644 0 26.381-8.1971 33.288-19.12 1.706 11.339 10.028 19.328 27.504 19.328 4.9516 0 17.767-2.3926 23.218-5.867-4.3482-11.151-2.6006-22.532-0.99864-34.453zm-48.309-0.60335c-3.9945 3.9529-8.1139 6.3455-12.088 6.3455-8.322 0-13.877-11.131-13.378-24.966 1.1027-29.959 18.288-43.337 34.162-37.969-2.7046 12.483-5.6589 34.307-8.6965 56.589z" fill="#003c82" stroke-width="2.0805"/>
 <path class="b" d="m297.51 127.83c-10.798-4.161-50.514-13.294-64.35 9.5494-7.8851 13.086-22.885 44.647-35.14 78.539-7.2193-31.915-11.526-71.923-13.024-88.088-10.819-5.5965-54.238-16.394-66.014 14.98-7.6562 20.326-24.966 87.63-30.334 122.37-1.3107 8.8005-0.47851 21.783 26.152 21.887a60.73 60.73 0 0 0 26.339-5.5341c-3.1207-11.276 0.62414-27.712 2.8919-41.235a451.99 451.99 0 0 1 11.318-50.494 589.99 589.99 0 0 0 9.8407 70.092c2.3093 10.506 8.634 20.805 45.313 14.106 12.317-35.805 27.608-68.115 37.449-89.003-6.9072 28.565-10.548 63.372-10.527 75.189 0 10.132-0.76978 26.693 29.481 26.693 8.0931 0 18.308-1.4772 24.966-5.3469-3.8905-9.2582-3.2456-22.885-2.4966-35.826 2.8919-51.471 6.6368-97.991 8.1347-117.88z" fill="#003c82" stroke-width="2.0805"/>
 <path d="m331.98 470.8h78.13l-1.97 17.87-28.42 2.6e-4 -8.71 75.38-21.17 1e-5 8.57-75.38h-28.34z" fill="#fff"/>
 <path d="m424.19 470.8 22.79-2.4e-4 19.69 70.6 31.13-70.6h21.86l-44.26 93.25h-21.93z" fill="#fff"/>
</svg>
