<svg width="1066.5" height="800" version="1.1" viewBox="0 0 1066.5 800" xml:space="preserve" xmlns="http://www.w3.org/2000/svg" xmlns:xlink="http://www.w3.org/1999/xlink"><defs><clipPath id="clipPath2604-3"><path d="m669.67 123.82h7.759v-6.509h-7.759z"/></clipPath><clipPath id="clipPath2608-8"><path d="m669.67 117.32h7.759v6.509h-7.759z"/></clipPath></defs><g transform="matrix(1.3333 0 0 -1.3333 -222.8 1394.2)"><g transform="matrix(23.519 0 0 23.519 593.12 763.71)"><path d="m0 0c-0.868 0-1.455 0.663-1.455 1.633 0 0.996 0.587 1.634 1.455 1.634s1.455-0.638 1.455-1.634c0-0.97-0.587-1.633-1.455-1.633m0 5.155c-2.093 0-3.547-1.404-3.547-3.522 0-2.092 1.454-3.521 3.547-3.521s3.547 1.429 3.547 3.521c0 2.118-1.454 3.522-3.547 3.522" fill="#56be3c"/></g><g transform="matrix(23.519 0 0 23.519 854.75 816.53)"><path d="m0 0c0.179 0.817 0.663 1.199 1.378 1.199 0.664 0 1.174-0.382 1.404-1.199zm4.772-0.587c0 2.016-1.429 3.496-3.394 3.496-1.991 0-3.394-1.48-3.394-3.521 0-2.119 1.403-3.522 3.649-3.522 1.2 0 2.195 0.383 2.756 1.097l-1.276 1.2c-0.357-0.383-0.893-0.587-1.48-0.587-0.842 0-1.378 0.408-1.608 1.123h4.696c0.026 0.178 0.051 0.459 0.051 0.714" fill="#56be3c"/></g><g transform="matrix(23.519 0 0 23.519 743.11 848.94)"><path d="m0 0v1.321h-1.888v-6.635h2.016v2.941c0 1.174 0.612 1.735 1.607 1.735 0.153 0 0.409-0.026 0.562-0.051v2.042c-0.102 0.025-0.255 0.051-0.409 0.051-0.969 0-1.658-0.562-1.888-1.404" fill="#56be3c"/></g><g transform="matrix(23.519 0 0 23.519 327.15 723.95)"><path d="m0 0v4.696l1.939-2.416c0.153-0.191 0.319-0.236 0.434-0.236 0.185 0 0.3 0.07 0.434 0.236l1.927 2.429v-4.709h2.071v9.137c0 0.331-0.166 0.51-0.396 0.51-0.166 0-0.313-0.07-0.505-0.306l-3.531-4.363-3.55 4.363c-0.23 0.28-0.358 0.306-0.485 0.306-0.23 0-0.409-0.179-0.409-0.51v-9.137z" fill="#56be3c"/></g><g transform="matrix(23.519 0 0 23.519 445.69 1045.6)"><path d="m0 0-0.307-0.379v-3.29l1.916 2.366z" fill="#666464"/></g><path d="m278.44 445.62h48.708v48.708h-48.708z" fill="#666464"/><path d="m487.2 692.65h-48.708v-167.01h48.708z" fill="#666464"/><path d="m438.49 445.62h121.76v48.708h-121.76z" fill="#666464"/><path d="m358.45 445.62h48.708v167.01h-48.708z" fill="#666464"/><path d="m518.5 643.94h83.493v48.708h-83.493z" fill="#666464"/><path d="m167.1 643.94h240.06v48.708h-240.06z" fill="#666464"/><g transform="matrix(23.519 0 0 23.519 407.16 920.66)"><path d="m0 0v3.291l-2.368-2.924 1.333-1.645z" fill="#666464"/></g><g transform="matrix(23.519 0 0 23.519 247.13 800.43)"><path d="m0 0-2.634-3.252h2.634z" fill="#666464"/></g><g transform="matrix(23.519 0 0 23.519 -15136 -2313.5)"><g clip-path="url(#clipPath2604-3)" opacity=".60001"><g clip-path="url(#clipPath2608-8)"><g transform="translate(676.07 122.39)"><path d="m0 0-1.659-0.867v1.337l1.788 0.959h1.236v-6.509h-1.365z" fill="#666464"/></g><g transform="translate(672.32 121.63)"><path d="m0 0h-0.982v-1.667h-1.667v-0.982h1.667v-1.666h0.982v1.666h1.667v0.982h-1.667z" fill="#666464"/></g></g></g></g></g></svg>
