<svg width="616.68mm" height="135.45mm" version="1.1" viewBox="0 0 616.68 135.45" xmlns="http://www.w3.org/2000/svg">
 <g transform="translate(-.00097235 2e-5)" fill="#e77993" stroke-width=".35278">
  <path d="m439.33 106c0-14.035-4.2065-21.341-11.992-30.455-7.7826 9.1193-11.956 16.409-11.956 30.449v27.765h1.9421c12.875-3.6629 22.006-13.189 22.006-27.759"/>
  <path d="m415.38 29.472v9.1362h23.948v-9.1362c0-9.7529-4.47-17.779-11.933-22.978-7.5025 5.1985-12.015 13.225-12.015 22.978"/>
 </g>
 <g transform="translate(-.00097235 2e-5)" fill="#d52048">
  <path d="m525.37 85.422h-22.765l1.2107-2.455 21.554-43.311v45.766zm23.729 0v-83.714h-25.007l-39.021 79.308v22.137h40.298v30.606h23.729v-30.603h16.709v-17.734h-16.709z" stroke-width=".35278"/>
  <path d="m460.04 110.05h-20.713v-4.0552c0 14.57-9.1306 24.099-22.006 27.759h67.843v-23.704h-25.124" stroke-width=".35278"/>
  <path transform="matrix(2.8025 0 0 2.8025 368.6 -.312)" d="m25.234 10.628v1.327c0-3.294 1.765-5.117 3.815-5.117 2.187 0 3.954 1.518 3.954 3.669 0 2.017-0.547 3.591-2.527 5.809l-8.526 9.612c-0.349 0.392-0.681 0.769-0.995 1.138 2.778 3.252 4.279 5.859 4.279 10.867v-0.605c0-2.486 1.02-4.342 2.797-6.357l7.098-7.193c4.51-5.243 6.676-6.698 6.676-13.151 0-6.386-5.369-10.512-12.68-10.512-3.21 0-6.018 0.838-8.148 2.314 2.663 1.856 4.257 4.719 4.257 8.199"/>
  <path d="m588.24 1e-3h12.46l-3e-3 16.365 15.984 0.0035v12.453l-15.96 0.0174v15.663l-12.42 0.0669-0.0563-15.748-16.002 0.014 3e-3 -12.471 15.998 0.01418-4e-3 -16.379z" stroke-width=".35278"/>
 </g>
 <g transform="translate(-.00097235 2e-5)">
  <path d="m177.5 2.007 25.34 0.01764 16.845 85.178 17.283-85.189 24.966-0.0071-30.268 131.58-25.082 0.0106z" fill="#6d726f" stroke-width=".35278"/>
  <path d="m304.42 2.014 59.397-0.0035v18.863h-35.899v36.756h25.439v18.828h-25.439v38.262h35.877l7e-3 18.895h-59.383z" fill="#6d726f" stroke-width=".35278"/>
  <path d="m144.96 134.91c3.0586-0.0388 5.9478-1.1642 8.9182-1.7427-2.7622 1.0724-5.6974 1.651-8.6395 1.9544l0.40922 0.32456h-2.6317c0.60325-0.31398 1.2418-0.58561 1.9438-0.53623z" fill="#e29ab4" stroke-width=".35278"/>
  <path transform="matrix(2.8025 0 0 2.8025 368.6 -.312)" d="m16.69 37.932c0-5.01 1.488-7.611 4.266-10.865-0.317-0.371-0.649-0.75-1-1.142l-8.541-9.612c-1.98-2.218-2.523-3.792-2.523-5.809 0-2.151 1.771-3.669 3.959-3.669 2.05 0 3.84 1.828 3.84 5.122v-1.329c0-3.48 1.609-6.344 4.287-8.199-2.119-1.477-4.916-2.315-8.127-2.315-7.312 0-12.762 4.128-12.762 10.514 0 6.453 2.17 7.903 6.681 13.146l7.105 7.192c1.777 2.017 2.815 3.876 2.815 6.364 0 2.756-1.722 4.322-3.84 4.322-2.188 0-3.959-1.436-3.959-4.326v-4.35h-8.545v4.907c0 6.722 5.603 10.558 12.504 10.558 1.6 0 3.129-0.203 4.533-0.603h-0.693v-9.906" fill="#6d726f"/>
  <path d="m95.186 1.574v132.05h-23.796v-81.357l-15.61 81.357h-16.372l-15.61-81.357v81.357h-23.796v-132.05h32.17l15.422 74.614 15.61-74.614h31.982" fill="#6d726f" stroke-width="2.8025"/>
  <path d="m269.36 133.63h23.796v-132.05h-23.796z" fill="#6d726f" stroke-width="2.8025"/>
  <path d="m140.52 0.015739c-26.267 0-35.596 15.845-35.596 29.426v76.206c0 13.58 9.3288 29.805 35.598 29.805 23.795 0 34.455-16.223 34.455-29.805 1.1e-4 -25.402-3e-3 -50.804-3e-3 -76.206 0-13.58-10.661-29.426-34.455-29.426zm0 18.484c6.8547 0 10.661 5.6807 10.661 11.129v75.642c0 5.4535-3.8059 11.316-10.661 11.316-8.3764 0-11.8-5.9101-11.8-11.316v-75.673c0-5.3945 3.4269-11.098 11.8-11.098z" fill="#6d726f" stroke-width=".28221"/>
 </g>
</svg>
