<svg width="113.95pt" height="40.842pt" version="1.1" viewBox="0 0 113.95 40.842" xmlns="http://www.w3.org/2000/svg">
 <defs>
  <linearGradient id="a" x1="-3.5534e-14" x2="115.22" y1="40.842" y2="-66.74" gradientUnits="userSpaceOnUse">
   <stop stop-color="#cdcdce" offset="0"/>
   <stop stop-color="#cacbca" offset=".079434"/>
   <stop stop-color="#c9ced1" offset=".17469"/>
   <stop stop-color="#d7d7db" offset=".23819"/>
   <stop stop-color="#fff" offset=".30728"/>
   <stop stop-color="#fff" offset=".34935"/>
   <stop stop-color="#fff" offset=".39141"/>
   <stop stop-color="#dce0e7" offset=".44384"/>
   <stop stop-color="#e9eaf4" offset=".57246"/>
   <stop stop-color="#d3d4d7" offset=".79015"/>
   <stop stop-color="#c9c9cd" offset="1"/>
  </linearGradient>
  <linearGradient id="b" x1="-3.5534e-14" x2="115.22" y1="40.842" y2="-66.74" gradientUnits="userSpaceOnUse">
   <stop stop-color="#cdcdce" offset="0"/>
   <stop stop-color="#cacbca" offset=".079434"/>
   <stop stop-color="#c9ced1" offset=".17469"/>
   <stop stop-color="#d7d7db" offset=".23819"/>
   <stop stop-color="#fff" offset=".30728"/>
   <stop stop-color="#fff" offset=".34935"/>
   <stop stop-color="#fff" offset=".39455"/>
   <stop stop-color="#dce0e7" offset=".50004"/>
   <stop stop-color="#e9eaf4" offset=".57246"/>
   <stop stop-color="#d3d4d7" offset=".79015"/>
   <stop stop-color="#c9c9cd" offset="1"/>
  </linearGradient>
 </defs>
 <path transform="scale(.75)" d="m133.87 18.338a18.059 18.059 0 0 0-18.059 18.059 18.059 18.059 0 0 0 18.059 18.061 18.059 18.059 0 0 0 18.061-18.061 18.059 18.059 0 0 0-18.061-18.059zm3.0547 6.5957h2.9414l-6.2266 22.52-3.9082 0.59961 5.4141-18.41-6.0273 4.0508 1.7363-4.1055 6.0703-4.6543z" fill="url(#a)"/>
 <path d="m54.967 8.2e-4h0.18378c0.0476 0.32275-0.0652 0.64209-0.0284 0.96541 0.0284 0.55587 0.32161 1.0681 0.72491 1.4396 0.42655 0.40839 1.0159 0.56268 1.5031 0.87919 0.71526 0.41917 1.2581 1.1588 1.3653 1.9892 0.0908 0.70108-0.135 1.409-0.50936 1.9977-0.24617 0.40159-0.57686 0.74079-0.91606 1.063 1.0556 0.0181 2.1118-9e-3 3.1674 0.0267-0.0681 0.29155-0.12422 0.58877-0.23256 0.86898-0.0709 0.0573-0.16506 0.0681-0.24844 0.0942-1.283 0.27226-2.4107 1.1526-3.0318 2.3012-0.19966 0.35395-0.27793 0.75611-0.3857 1.1435-0.10267 0.39875-0.22916 0.79127-0.31254 1.1951 5.1118 0.0289 10.224 0.017 15.336 0.0369 1.2309 0.0278 2.4714-0.0454 3.692 0.15259 1.8474 0.25354 3.6949 0.87748 5.1475 2.0788 1.5848 1.295 2.5922 3.2263 2.8803 5.2411 0.21327 1.4555 0.15599 2.9439-0.0902 4.392-0.1764 1.1498-0.52297 2.2632-0.81112 3.388-0.34033 1.3222-0.71356 2.6353-1.038 3.9614-0.0981 0.39989-0.18888 0.80432-0.20533 1.2172-0.0284 0.87465-0.0131 1.7709 0.28701 2.6041 0.26943 0.72888 0.63982 1.4379 1.1906 1.9955 0.69711 0.77028 1.6438 1.2819 2.6359 1.5632 0.3131 0.0936 0.63982 0.13046 0.95406 0.22179-6.0528 0.0357-12.106 0.0193-18.16 0.0204-0.86955-8e-3 -1.7397-0.0131-2.6092-0.017-1.2757 0.0193-2.5542-0.15599-3.7816-0.50086-0.90585-0.2439-1.764-0.64209-2.5582-1.1384-1.591-0.95463-2.8253-2.4532-3.5684-4.1447-0.70959-1.629-0.83835-3.4532-0.63699-5.2025 0.0947-0.82587 0.28248-1.6376 0.50653-2.4368 0.28758-1.0981 0.60068-2.1895 0.87408-3.2916-0.82133-0.0357-1.6432-0.0102-2.4651-0.0216-0.12308 0.0102-0.32615-0.0448-0.34033 0.135-1.477 5.5378-2.9717 11.071-4.4424 16.61-1.7516 0.0261-3.5037 4e-3 -5.2553 0.0113-1.5326-2e-3 -3.0647 3e-3 -4.5972-2e-3 1.4798-5.5797 2.9903-11.151 4.4719-16.73-0.56268-0.0335-1.1265-0.0142-1.6897-0.0221-0.47079 7e-3 -0.94215-0.017-1.4118 0.0136-0.2422 1.1424-0.57402 2.2626-0.86728 3.3925-1.1843 4.4493-2.3766 8.8974-3.5711 13.344-3.2785 7e-3 -6.5571 4e-3 -9.8356 1e-3 0.2621-1.1055 0.582-2.1968 0.8684-3.2967 0.9995-3.7323 1.9898-7.4674 2.9813-11.202 0.152-0.57856 0.2666-1.1775 0.2229-1.7782-0.017-0.26035-0.144-0.52468-0.3777-0.6557-0.3999-0.2354-0.9036-0.22349-1.3307-0.072-0.468 0.16676-0.8231 0.5451-1.0868 0.95406-0.3284 0.5088-0.5474 1.08-0.7124 1.6608-1.0789 4.0102-2.156 8.021-3.2321 12.032-0.2172 0.78616-0.4078 1.5797-0.6426 2.3613-3.2774-5e-3 -6.5548 6e-3 -9.8322-6e-3 1.2331-4.6977 2.506-9.3858 3.7391-14.084 0.1952-0.7493 0.4186-1.5179 0.312-2.3001-0.053-0.29496-0.2808-0.54453-0.561-0.64323-0.5139-0.18151-1.1066-0.0737-1.5434 0.24617-0.4787 0.35111-0.7879 0.88089-1.0266 1.4135-0.2808 0.62111-0.4277 1.2893-0.6081 1.9439-1.2087 4.4708-2.4169 8.9428-3.6058 13.419-3.2836 0.0227-6.5684 0-9.8526 0.0113v-0.0862c0.1605-0.45661 0.2632-0.9308 0.3936-1.3959 1.341-4.9915 2.6796-9.983 4.0205-14.974 0.211-0.84062 0.5451-1.6455 0.9319-2.4186 0.54-1.0749 1.2099-2.0857 2.0086-2.9864 1.1185-1.2581 2.4214-2.3551 3.865-3.2235 1.6188-0.96994 3.4515-1.6115 5.3403-1.7436 0.9626-0.0425 1.9394-0.0346 2.8809 0.19456 0.9938 0.22064 1.936 0.65627 2.7556 1.2586 0.8253 0.59331 1.498 1.3687 2.0919 2.1872 0.3352-0.2076 0.6387-0.46172 0.9688-0.67783 0.7782-0.54283 1.5842-1.0471 2.4277-1.4821 1.0545-0.54963 2.1617-1.017 3.3267-1.2723 0.5094-0.1072 1.0233-0.22008 1.5474-0.21271 3.5162-0.0301 7.0329-0.0119 10.55-0.0318 1.093-0.0113 2.1866 0.013 3.2791-0.0199 0.15088-0.58764 0.31708-1.1713 0.46002-1.7606 0.21157-0.85763-0.0431-1.8622-0.75781-2.4169-0.33976-0.28304-0.77141-0.40386-1.186-0.52865 0.0794-0.30346 0.15542-0.60805 0.24844-0.90811 1.0579-0.0136 2.1157 0.0147 3.173-0.025-0.14861-0.35621-0.31877-0.71583-0.33522-1.1089-0.055-0.87976 0.33295-1.7351 0.91435-2.3789 0.60125-0.6903 1.3653-1.2286 2.2008-1.5984 0.59785-0.28134 1.2536-0.43676 1.8123-0.79978 0.46456-0.27396 0.86615-0.64095 1.2269-1.0403 0.25014-0.27793 0.43505-0.60976 0.57346-0.95689 0.0601-0.15599 0.11968-0.32048 0.249-0.43506m13.593 24.378c-0.78729 0.31707-1.4861 0.83154-2.0726 1.4396-0.76178 0.80431-1.3114 1.8707-1.2989 2.9978-0.0125 0.67385 0.23086 1.3505 0.68123 1.8542 0.30856 0.346 0.67782 0.65854 1.1259 0.80432 0.31253 0.11458 0.64492 0.15825 0.97731 0.15428 1.3108 5e-3 2.6217 0.0164 3.932 0.0113 0.17357-0.69371 0.36302-1.3829 0.54453-2.0743 0.15145-0.58934 0.32899-1.1741 0.43279-1.7748 0.0993-0.64209 0.0981-1.3114-0.0913-1.9376-0.13273-0.44016-0.36132-0.86103-0.70903-1.1679-0.37776-0.32615-0.8582-0.52184-1.3517-0.58083-0.73114-0.084-1.4867-4e-3 -2.1702 0.27397z" fill="url(#b)" stroke-width=".056722"/>
</svg>
