<svg width="678.75" height="800.31" space="preserve" version="1.1" viewBox="0 0 678.75 800.31" xmlns="http://www.w3.org/2000/svg">
 <g transform="matrix(.9734 0 0 .9734 -714.82 .00032791)">
  <path d="m781.22 0 67.484 71.773h191.97l-68.184-71.773zm354.96 0-68.109 71.773h307.28v-71.773zm255.87 0v71.773h39.34v-48.125l-39.324-23.648zm-396.33 0.26562 58.689 61.715 21.643-22.834-5.8711-6.1445z" fill="#cd0d0d" stroke-width="1.3619"/>
  <path d="m848.7 71.773 67.482 71.771h317.76c0.9001-0.54659 1.2541-0.74148 2.1973-1.3164 12.656-7.7941 19.441-22.834 34.48-22.834 6.3272 0 11.921 1.1938 17.057 5.3203 7.4277 6.1443 8.8027 9.5367 8.8027 14.764 0 1.3874-0.2954 2.7398-0.7539 4.0664h79.613v-71.771h-307.28l-13.686 14.422-13.701-14.422zm543.34 0v71.771h12.047c9.5886-12.277 20.799-25.608 27.293-32.412v-39.359z" fill="#ef7f11" stroke-width="1.3619"/>
  <path d="m916.18 143.54 67.48 71.77h135.39c14.004-8.2374 31.404-18.47 34.551-20.451 8.7117-4.5841 6.6933-11.737 6.6933-18.248 0-14.305 12.746-19.256 23.75-19.256 10.546 0 17.148 3.8523 18.707 4.5859 3.7509-2.093 13.707-7.7874 31.182-18.4zm379.54 0c-3.4512 9.9842-18.613 18.171-27.031 23.352-29.529 17.791-38.882 22.283-49.611 29.252 0.8278 3.6224 0.8629 11.019 0.7403 19.166h22.805c4.7042-14.038 17.469-19.623 29.912-19.623 13.76 0 20.054 8.5157 23.592 19.623h61.266c7.698-14.32 14.52-25.88 17.941-31.178v-40.592zm96.312 0v16.191c3.0743-4.5373 7.4194-10.267 12.047-16.191zm39.34 48.105c-4.2567 5.6141-10.117 14.351-16.082 23.664h16.082v-23.654z" fill="#f7e91a" stroke-width="1.3619"/>
  <path d="m983.66 215.31 8e-3 8e-3 -67.48 71.766h256.35c0.142-7.9694 0.2344-16.668 0.2344-26.658 0-22.009-4.9527-27.418-12.106-27.418-7.9779 0-21.551 11.003-36.406 21.549-23.75 16.874-36.588 30.354-51.994 30.354-9.0789 0-14.215-4.035-19.992-11.371-1.1004-1.3755-4.1269-7.5187-4.1269-12.379 0-5.4103 2.2021-11.738 10.547-16.781 9.0798-5.4103 19.075-4.4021 40.533-17.332 9.2955-5.6174 11.792-7.009 19.828-11.736zm236.16 0c-0.095 6.292-0.2793 13.018-0.2793 18.893 0 13.495 1.7948 33.737 3.2539 52.881h33.557c-9.8483-26.709-15.726-47.415-15.726-59.574 0-4.7008 0.8106-8.6498 2-12.199zm76.309 0c1.885 5.9188 3.0235 12.541 4.0117 19.076 1.4672 9.8111 4.6771 36.222 6.1445 50.344 0.087 0.7848 0.2067 1.5638 0.3027 2.3535h18.236c1.3121-3.3074 2.6597-6.9742 4.2929-11.25 8.4966-22.043 19.054-43.367 28.277-60.523zm119.16 0c-8.9422 13.962-18.197 29.544-23.258 40.436v31.338h39.34v-71.773z" fill="#00c405" stroke-width="1.3619"/>
  <path d="m916.19 287.09-67.488 71.771h130.21v-49.188l58.416 49.188h34.09l58.344-49.188v49.188h39.547c1.0663-20.551 2.6386-38.661 3.2285-71.771zm306.61 0c0.9501 12.466 1.7871 24.572 1.7871 33.686 0 12.402-0.27 25.94-0.5371 38.086h59.504c-8.2597-21.651-21.278-55.795-24.766-65.047-0.9078-2.3892-1.5847-4.4274-2.4317-6.7246zm83.793 0c0.7116 5.8535 1.9443 11.494 8.4082 11.494 4.5263 0 7.0882-4.5872 9.8282-11.494zm85.447 0v71.771h39.34v-71.771zm-16.699 4.25c-7.6056 18.931-16.163 46.648-22.387 67.521h22.387zm-379.72 54.184v13.338h15.854zm117.47 0-15.828 13.338h15.828z" fill="#002dff" stroke-width="1.3619"/>
  <path d="m848.7 358.86-67.48 71.766h197.7v-71.766zm146.91 0v71.76h32.371v-57.863l-16.516-13.896zm41.719 0 17.055 14.361 17.035-14.361zm59.926 0-18.561 15.639h27.053l7.3359-6.1426v-9.4961zm32.508 0v71.766h39.156c-0.275-7.0614-0.6406-24.117-0.6406-33.379 0-15.516 0.4535-27.289 1.0293-38.387zm94.277 0c-0.3235 14.707-0.6523 27.26-0.6523 31.881 0 13.663 1.5599 29.161 2.8437 39.891h149.1v-71.771h-22.387c-0.8305 2.7853-2.0169 6.4936-2.7402 8.9551-7.1527 24.576-13.205 30.996-30.721 30.996-13.755 0-22.468-4.5862-28.795-21.184-0.7804-2.0329-4.7634-12.521-7.1465-18.768zm167.99 0v71.771h39.34v-71.771z" fill="#840590" stroke-width="1.3619"/>
  <path d="m734.62-3.4924e-4v50.074l155.87 165.23-155.87 165.25v50.078l202.46-215.32z" fill="#893315" stroke-width="1.3206"/>
  <path d="m734.62 50.074v52.109l106.54 113.13-106.54 113.13v52.103l155.87-165.25z" fill="#97eded" stroke-width="1.3281"/>
  <path d="m734.62 102.18v42.724l66.072 70.412-66.072 70.412v42.719l106.54-113.13z" fill="#fcc4f5" stroke-width="1.3137"/>
  <path d="m800.7 215.32-66.072 70.411v-140.82z" fill="#fff" stroke-width="1.473"/>
  <path d="m781.22-3.3924e-4h-46.597l202.46 215.32-202.46 215.31 46.597 5e-3 202.45-215.31z" stroke-width="1.3206"/>
 </g>
 <rect y="463.19" width="678.75" height="337.12" fill="#7a3680" stroke-width="1.3703"/>
 <g transform="matrix(1.3183 0 0 1.3183 -23.162 1.7769)" fill="#fff" stroke-width="1.0025">
  <path d="m398.36 497.6c0.50249 10.7 6.7333 17.8 17.587 17.8 6.2308 0 12.261-2.8999 14.773-8.5998h24.119c-4.7234 18.1-21.607 25.999-39.194 25.999-25.627 0-43.113-15.4-43.113-41.699 0-23.999 19.296-41.299 42.51-41.299 28.24 0 42.41 21.2 41.204 47.799zm32.059-14.4c-0.50249-8.7998-6.7333-16-15.376-16-9.1453 0-15.175 6.4999-16.683 16z"/>
  <path d="m364.52 530.5h-24.622v-9.0998h-0.30149c-5.0249 7.3998-12.562 11.3-21.707 11.3-24.722 0-35.275-21.2-35.275-43.199 0-20.4 10.954-39.799 33.265-39.799 9.7483 0 17.185 3.5999 22.511 10.7h0.30149v-37.899h25.828zm-56.078-39.999c0 10.7 3.9194 22.7 15.778 22.7 12.562 0 15.376-11.9 15.376-21.9 0-11.3-4.1204-21.8-15.376-21.8-11.758-0.1-15.778 11-15.778 21z"/>
  <path d="m273.8 442.2h-25.828v-19.6h25.828zm-25.828 9.8998h25.828v78.398h-25.828z"/>
  <path d="m185.55 452.1h25.024v13.8h0.30149c3.8189-9.9998 12.562-15.3 23.717-15.3 2.01 0 4.1204 0.19999 6.0298 0.59999v23.4c-3.3164-0.89998-6.3313-1.5-9.8488-1.5-12.763 0-19.396 8.7998-19.396 18.6v38.799h-25.828z"/>
  <path d="m95.308 452.1h24.622v9.0998h0.30149c5.0249-7.3998 12.562-11.3 21.707-11.3 24.722 0 35.275 21.2 35.275 43.199 0 20.4-10.954 39.799-33.265 39.799-9.7483 0-17.185-3.5999-22.511-10.7h-0.30149v34.799h-25.828zm24.923 38.399c0 13.8 3.9194 22.7 15.678 22.7 11.557 0 15.477-11.9 15.477-22.7 0-9.9998-3.9194-21-15.376-21-6.9343-0.1-15.778 4.7999-15.778 21z"/>
 </g>
</svg>
