<svg width="609.46" height="595.1" version="1.1" viewBox="0 0 571.37 557.91" xmlns="http://www.w3.org/2000/svg">
 <path d="m403.16 353.11c-1.02-8.83-2.29-21.53-2.29-32.71 0-6.94 0.91-34.84 0.91-57.34 0-18.98-4.08-52.7-4.08-71.02 0-11.02 0.82-25.97-0.41-31.22 8.78-5.72 16.48-9.34 40.67-24.03 7.85-4.75 22.85-12.76 22.85-22.4 0-4.28-1.17-7.09-7.24-12.09-4.29-3.419-8.83-4.388-13.98-4.388-12.35 0-17.96 12.348-28.27 18.668-15.81 9.65-24.18 14.44-27.39 16.23-1.33-0.61-6.69-3.78-15.31-3.78-9.03 0-19.54 4.03-19.54 15.77 0 5.35 1.69 11.17-5.46 14.95-4.03 2.55-23.67 13.77-44.59 26.37-17.6 10.66-25.81 9.8-33.26 14.29-6.84 4.13-8.67 9.28-8.67 13.77 0 3.98 2.55 8.98 3.42 10.1 4.74 6.07 8.97 9.34 16.42 9.34 12.66 0 23.11-11.02 42.65-24.9 12.15-8.67 23.32-17.65 29.85-17.65 5.82 0 9.9 4.39 9.9 22.5 0 60.56-3.73 70.15-3.73 112.19 0 7.55 0.31 21.53 0.56 27.34h-32.09v-99.23l-61.83 52.14-61.83-52.14v99.23h-200.42v-353.1h195.1l67.14 70.66 67.14-70.66h196.06v150.96c-6.22 9.59-25.15 42.04-37.9 75.2-4.19 10.81-6.13 18.62-11.59 18.62-6.07 0-6.53-5.92-7.14-11.28-1.22-11.63-3.82-33.31-5.05-41.27-2.29-15.46-5.36-31.78-22.6-31.78-12.81 0-26.17 6.99-26.17 26.07 0 10.81 5.46 29.64 14.84 54.38 3.68 9.75 23.32 61.22 26.18 68.67 5.15 13.68 12.39 17.4 23.56 17.4 14.39 0 19.34-5.26 25.26-25.41 5-17.14 13.52-45.15 20.61-62.65v114.16h-122.3zm168.21-195.97v195.97h-32.25v-143.36c6.89-14.95 23.52-41.07 32.25-52.6m-32.25-26.12v-131.02l32.25 19.386v71.732c-7.96 8.265-24.49 28.422-32.25 39.892m-259.12-98.871-17.75 18.673-48.11-50.56 61.02 26.784 4.85 5.102zm2.14 274.98h22.25l6.02-5.05v-18.77zm-68.06 45.97h26.53v-47.45l-26.53-22.34z" fill="#6ac4fc"/>
 <rect x=".009997" y="366.9" width="571.34" height="191.01" fill="#6ac4fc" stroke-width="5.7161"/>
 <g transform="translate(0 -.0019836)" stroke-width="5.7161">
  <path d="m227.97 470.41h-14.28c0.57-1.15 0.57-1.72 1.14-2.29 0-0.57 0.58-1.14 0.58-1.72 0-0.57 0.57-1.14 0.57-1.71s0.57-1.14 1.14-2.29l2.28-5.15c0.58-1.71 1.15-2.86 1.72-4.57 0.57-1.14 1.14-2.29 1.14-3.43 0.57-1.15 0.57-2.29 1.14-3.43 0.58-1.15 0.58-2.86 1.15-4.58h0.57v8.01c0 1.14 0 2.29 0.57 3.43 0 1.14 0.57 2.86 0.57 4.57l1.71 8.58c0 1.15 0 1.72 0.58 2.29 0 0.57 0.57 1.14 0.57 2.29 0 0.57-0.57 0-1.15 0m16-58.91h-27.42l-52.57 101.8h30.86l9.14-20.02h30.28l4 20.02h27.99z"/>
  <path d="m140.56 489.28c-0.57 0-1.14 0-2.29 0.57 0.58-1.14 0.58-1.71 0.58-2.29 0-0.57 0-1.14 0.57-2.86l11.42-73.2h-27.42l-16 101.8h53.14l4-24.02z"/>
  <path d="m86.282 409.22c-15.997 0-29.138 5.14-39.422 15.44-5.714 5.72-9.713 12.01-12.57 19.44-2.857 7.44-4.571 15.44-4.571 23.45 0 7.43 1.143 14.3 3.428 20.59 2.286 6.29 5.714 10.86 9.713 15.44 4 4 9.142 7.43 15.427 9.72 6.284 2.29 13.14 3.43 20.568 3.43 5.713 0 10.284-0.57 14.855-1.14h1.142l5.142-28.03c-2.285 2.86-13.712 5.15-21.139 4.58-5.142-1.14-9.713-2.86-13.141-5.72-4.571-4.57-7.427-10.87-7.427-18.87 0-4.58 0.571-9.15 2.285-13.16 1.143-4 3.428-7.43 5.713-10.29 2.286-2.86 5.714-5.15 9.142-6.86 3.428-1.72 7.427-2.29 11.427-2.29 6.856 0 14.856 3.43 19.426 9.72l4.57-30.31c-6.86-4-14.855-5.14-24.568-5.14"/>
 </g>
 <polygon transform="matrix(5.7134 0 0 5.7189 .0096541 -.25655)" points="77.5 89.8 80.3 72 75.5 72 72.6 89.8"/>
 <g transform="translate(0 -.0019836)" stroke-width="5.7161">
  <path d="m516.5 409.22c-16 0-29.14 5.14-39.42 15.44-5.71 5.72-9.71 12.01-12.57 19.44-2.86 7.44-4.57 15.44-4.57 23.45 0 7.43 1.14 14.3 3.43 20.59 2.28 6.29 5.71 10.86 9.71 15.44 4 4 9.14 7.43 15.43 9.72 6.28 2.29 13.14 3.43 20.57 3.43 5.71 0 10.28-0.57 14.85-1.14h1.14l5.14-27.45c-2.28 2.86-13.71 5.14-21.13 4.57-5.15-1.14-9.72-2.86-13.15-6.29-4.57-4.57-7.42-10.87-7.42-18.87 0-4.58 0.57-9.15 2.28-13.16 1.14-4 3.43-7.43 5.72-10.29 2.28-2.86 5.71-5.15 9.14-6.86 3.43-1.72 7.42-2.29 11.42-2.29 6.86 0 15.43 3.43 19.43 9.72l0.57-4.57 4-25.74c-6.86-4-15.43-5.14-24.57-5.14"/>
  <path d="m274.25 478.41c3.43 4.58 7.43 8.01 11.43 10.3s8 3.43 12.57 3.43c3.43 0 5.71-0.57 7.43-2.29 1.71-1.71 2.85-4 2.85-6.29s-1.14-4-2.85-5.72c-1.72-1.71-4.57-4-9.14-5.72-5.15-2.86-9.15-5.14-12-7.43-2.86-2.29-5.14-4.58-6.86-6.86-1.14-1.72-2.28-4.01-2.86-6.29-0.57-3.44-0.57-5.72-0.57-8.01 0-9.72 2.86-17.73 8.57-23.45 3.43-3.43 7.43-6.29 12-8.58 5.14-2.28 9.71-3.43 14.29-3.43 6.85 0 12.56 1.15 18.28 2.86 5.14 2.29 10.28 5.15 15.42 9.72l-12.56 20.02c-3.43-3.43-6.86-6.29-9.15-7.43-2.85-1.15-5.71-1.72-9.14-1.72-2.85 0-4.57 0.57-6.28 2.29-1.72 1.14-2.29 3.43-2.29 5.72 0 3.43 2.86 6.86 9.14 9.72 3.43 1.71 5.72 3.43 8 4.57 2.29 1.15 4 1.72 4.57 2.29 4 2.29 6.86 5.72 9.72 9.72 2.28 4.01 3.42 8.58 3.42 13.73 0 5.72-0.57 10.29-2.28 14.3-1.14 4-3.43 7.43-6.86 10.86s-7.43 6.29-13.14 8.58c-5.14 2.29-10.85 3.43-16 3.43-2.85 0-5.71 0-7.99-0.57-2.29 0-4.58-0.57-6.86-1.15-2.29-0.57-4-1.14-6.29-2.28-2.28-1.15-4-1.72-6.28-3.43-2.86-1.72-4.57-2.86-6.29-4.58-1.71-1.71-3.42-3.43-5.71-5.72z"/>
  <path d="m347.39 478.41c3.42 4.58 7.42 8.01 11.42 10.3s8 3.43 12.57 3.43c3.43 0 5.72-0.57 7.43-2.29 1.71-1.71 2.86-4 2.86-6.29s-1.15-4-2.86-5.72c-1.71-1.71-4.57-4-9.14-5.72-5.14-2.86-9.14-5.14-12-7.43s-5.14-4.58-6.86-6.86c-1.14-1.72-2.28-4.01-2.85-6.29-0.57-2.29-1.15-4.58-1.15-6.87 0-9.72 2.86-17.73 8.57-23.44 3.43-3.44 7.43-6.3 12-8.58 5.14-2.29 9.72-3.43 14.29-3.43 6.85 0 12.57 1.14 18.28 2.86 5.14 2.28 10.28 5.14 15.43 9.72l-12.57 20.01c-3.43-3.43-6.86-6.29-9.15-7.43-2.85-1.14-5.71-1.72-9.14-1.72-2.85 0-4.57 0.58-6.28 2.29-1.72 1.14-2.29 3.43-2.29 5.72 0 3.43 2.86 6.86 9.14 9.72 3.43 1.72 5.72 3.43 8 4.58 2.29 1.14 4 1.71 4.57 2.28 4 2.29 6.86 5.72 9.72 9.73 2.28 4 3.42 8.57 3.42 13.72 0 5.72-0.57 10.3-2.28 14.3-1.14 4-3.43 7.43-6.86 10.86-3.43 3.44-7.42 6.3-13.14 8.58-5.14 2.29-10.85 3.43-16 3.43-2.85 0-5.71 0-7.99-0.57-2.29 0-4.58-0.57-6.86-1.14-2.29-0.57-4-1.15-6.29-2.29-1.71-1.14-3.99-1.71-6.28-3.43-2.86-1.72-4.57-2.86-6.28-4.58-1.72-1.71-3.43-3.43-5.72-5.71z"/>
 </g>
</svg>
