<svg width="508.03pt" height="600pt" version="1.1" viewBox="0 0 508.03 600" xmlns="http://www.w3.org/2000/svg">
 <g fill="#896f38">
  <path d="m358.62 313.64c-0.9179-7.8319-2.0804-19.151-2.0804-29.064 0-6.1799 0.8566-30.961 0.8566-50.969 0-16.826-3.6101-46.808-3.6101-63.084 0-9.7288 0.7343-23.006-0.367-27.656 7.7707-5.1397 14.624-8.3826 36.161-21.354 6.9142-4.2219 20.192-11.32 20.192-19.947 0-3.7936-0.979-6.3022-6.4247-10.708-3.7323-3.0593-7.7706-3.916-12.36-3.916-11.014 0-15.97 11.014-25.148 16.582-14.012 8.6273-21.477 12.849-24.352 14.44-1.1625-0.55066-5.8739-3.3653-13.584-3.3653-8.0155 0-17.377 3.6101-17.377 14.012 0 4.7726 1.5297 9.9123-4.8337 13.278-3.5489 2.2639-21.048 12.237-39.588 23.435-15.664 9.484-22.945 8.6885-29.492 12.666-6.1187 3.6712-7.7096 8.2602-7.7096 12.237 0 3.5489 2.2639 7.9543 2.9982 8.9333 4.2219 5.4457 7.9543 8.3826 14.562 8.3826 11.197 0 20.559-9.8511 37.875-22.15 10.83-7.7095 20.742-15.725 26.494-15.725 5.2008 0 8.8109 3.9772 8.8109 20.008 0 53.844-3.3041 62.349-3.3041 99.612 0 6.7306 0.3059 19.213 0.4895 24.352h-28.513v-88.17l-54.885 46.319-54.946-46.319v88.17h-177.99v-313.64h173.28l59.657 62.717 59.657-62.717h174.14v134.06c-5.5068 8.5662-22.333 37.324-33.653 66.816-3.7324 9.6063-5.4457 16.52-10.279 16.52-5.3845 0-5.8128-5.2009-6.3023-9.9734-1.1013-10.341-3.4876-29.614-4.589-36.712-2.0191-13.706-4.7114-28.207-20.008-28.207-11.381 0-23.312 6.2411-23.312 23.19 0 9.6063 4.8949 26.31 13.216 48.276 3.3042 8.6886 20.742 54.456 23.251 61.065 4.589 12.115 11.014 15.419 20.987 15.419 12.666 0 17.132-4.7114 22.394-22.578 4.4666-15.236 11.993-40.077 18.295-55.619v101.39zm149.42-174.08v174.08h-28.636v-127.33c6.1186-13.278 20.865-36.529 28.636-46.747zm-28.636-23.19v-116.38l28.636 17.255v63.696c-7.0977 7.3424-21.721 25.209-28.636 35.427zm-230.19-87.803-15.786 16.52-42.77-44.911 54.273 23.863zm1.8968 244.26h19.763l5.3233-4.4667v-16.704zm-60.514 40.812h23.618v-42.158l-23.618-19.825z"/>
  <path d="m0.4891 0v268.79h177.99v-43.313l51.381 43.313h7.1261l51.323-43.313v43.313h28.413c0.8701-22.372 2.9156-36.686 2.9156-79.107 0-16.031-3.6103-20.008-8.8111-20.008-5.7516 0-15.664 8.0158-26.494 15.725-17.316 12.299-26.678 22.15-37.875 22.15-6.6082 0-10.34-2.9366-14.562-8.3822-0.7342-0.97899-2.9982-5.3845-2.9982-8.9334 0-3.9771 1.5912-8.5659 7.7099-12.237 6.547-3.9772 13.828-3.1821 29.492-12.666 18.54-11.197 36.04-21.17 39.588-23.434 6.3634-3.3653 4.8329-8.5057 4.8329-13.278 0-10.402 9.3622-14.012 17.378-14.012 7.7096 0 12.42 2.8152 13.583 3.3659 2.8757-1.5909 10.341-5.8133 24.353-14.441 9.178-5.568 14.134-16.581 25.148-16.581 4.589 0 8.627 0.8567 12.359 3.916 5.4456 4.4055 6.4252 6.9134 6.4252 10.707 0 8.6274-13.277 15.725-20.192 19.947-21.538 12.972-28.392 16.215-36.162 21.355 1.1013 4.6502 0.3677 17.927 0.3677 27.656 0 16.276 3.6094 46.257 3.6094 63.084 0 11.801-0.2893 24.849-0.5338 35.175h46.308c-4.7217-12.41-17.905-47.016-20.871-54.815-8.3215-21.966-13.216-38.671-13.216-48.277 0-16.949 11.931-23.19 23.312-23.19 15.297 0 17.989 14.501 20.008 28.207 1.1014 7.0977 3.4881 26.372 4.5895 36.712 0.4894 4.7726 0.9175 9.9735 6.3019 9.9735 4.8337 0 6.5478-6.9136 10.28-16.52 11.32-29.492 28.145-58.25 33.652-66.816v-134.06h-174.14l-59.658 62.716-59.656-62.716zm478.91 0v116.38c6.9141-10.218 21.538-28.084 28.636-35.427v-63.696zm-288.74 0.18337 42.769 44.911 15.786-16.521-4.2828-4.5273zm317.38 139.38c-7.7707 10.218-22.517 33.469-28.636 46.747v82.472h28.636zm-40.812 72.69c-6.3023 15.541-13.828 40.384-18.295 55.619-0.094 0.3177-0.186 0.6003-0.2791 0.90973h18.574zm-276.63 39.404v17.125h20.401zm85.6 0-20.291 17.125h19.79l0.5012-0.42074z" style="paint-order:stroke fill markers"/>
  <path d="m0.4891 0v223.93h318.59c0.3343-9.2105 0.5623-20.154 0.5623-34.249 0-16.031-3.6092-20.008-8.81-20.008-5.7516 0-15.664 8.0148-26.494 15.724-17.316 12.299-26.678 22.151-37.875 22.151-6.6082 0-10.34-2.9376-14.562-8.3832-0.7342-0.97899-2.9982-5.3845-2.9982-8.9334 0-3.9771 1.5902-8.5659 7.7089-12.237 6.547-3.9772 13.829-3.1821 29.493-12.666 18.54-11.197 36.038-21.17 39.587-23.434 6.3634-3.3653 4.8339-8.5047 4.8339-13.277 0-10.402 9.3622-14.012 17.378-14.012 7.7096 0 12.42 2.8142 13.583 3.3649 2.8757-1.5909 10.341-5.8123 24.353-14.44 9.178-5.568 14.134-16.582 25.148-16.582 4.589 0 8.627 0.8567 12.359 3.916 5.4456 4.4055 6.4252 6.9144 6.4252 10.708 0 8.6274-13.278 15.725-20.192 19.947-21.538 12.972-28.39 16.214-36.161 21.354 1.1013 4.6502 0.3677 17.928 0.3677 27.657 0 13.49 2.4741 36.374 3.3231 53.4h28.981c-1.1645-3.0585-3.2529-8.5413-3.7917-9.9582-8.3215-21.966-13.216-38.67-13.216-48.276 0-16.949 11.931-23.191 23.312-23.191 15.297 0 17.989 14.502 20.008 28.208 1.1014 7.0977 3.4881 26.371 4.5895 36.711 0.4894 4.7726 0.9175 9.9735 6.3019 9.9735 4.8337 0 6.5467-6.9136 10.279-16.52 11.32-29.492 28.146-58.25 33.653-66.816v-134.06h-174.14l-59.658 62.717-59.656-62.717zm478.91 0v116.38c6.9141-10.218 21.538-28.084 28.636-35.427v-63.696zm-288.74 0.18337 42.77 44.911 15.786-16.52-4.2828-4.5283zm317.38 139.38c-7.7707 10.218-22.517 33.468-28.636 46.746v37.615h28.636zm-40.812 72.689c-1.4146 3.4883-2.8912 7.4602-4.3806 11.672h4.3806z" style="paint-order:stroke fill markers"/>
  <path d="m0.4891 0v179.07h234.5c0.5045-0.36623 1.0351-0.72806 1.6198-1.0788 6.547-3.9772 13.829-3.1821 29.493-12.666 18.54-11.197 36.038-21.17 39.587-23.434 6.3634-3.3653 4.8339-8.5047 4.8339-13.277 0-10.402 9.3613-14.012 17.377-14.012 7.7096 0 12.421 2.8142 13.584 3.3649 2.8757-1.5909 10.34-5.8123 24.352-14.44 9.178-5.568 14.134-16.582 25.148-16.582 4.5891 0 8.628 0.8567 12.36 3.916 5.4456 4.4055 6.4242 6.9144 6.4242 10.708 0 8.6274-13.277 15.725-20.192 19.947-21.538 12.972-28.39 16.214-36.161 21.354 1.1013 4.6502 0.3667 17.928 0.3667 27.657 0 2.539 0.095 5.439 0.2435 8.5432h16.968c-1.2483-5.3537-1.9142-9.8481-1.9142-13.377 0-16.949 11.931-23.191 23.312-23.191 15.297 0 17.989 14.502 20.008 28.208 0.3056 1.9694 0.7179 4.9664 1.1665 8.3598h29.324c9.7489-20.876 20.212-38.6 24.334-45.011v-134.06h-174.14l-59.658 62.717-59.658-62.717zm478.91 0v116.38c6.9141-10.218 21.538-28.084 28.636-35.427v-63.696zm-288.74 0.18337 42.77 44.911 15.786-16.52-4.2839-4.5283zm317.38 139.38c-6.4981 8.5448-17.857 26.185-24.987 39.504h24.987zm-197.21 30.104c-4.147 0-10.473 4.1851-17.73 9.3999h25.771c-1.3249-7.2956-4.2624-9.3999-8.0409-9.3999z" style="paint-order:stroke fill markers"/>
  <path d="m0.4891 0v134.21h310.17c0.09-1.8386-0.1366-3.7457-0.1366-5.599 0-10.402 9.3613-14.012 17.377-14.012 7.7096 0 12.421 2.8142 13.584 3.3649 2.8757-1.5909 10.34-5.8123 24.352-14.44 9.178-5.568 14.134-16.582 25.148-16.582 4.5891 0 8.628 0.8567 12.36 3.916 5.4456 4.4055 6.4242 6.9144 6.4242 10.708 0 8.6274-13.277 15.725-20.192 19.947-9.7864 5.8941-16.457 9.7291-21.643 12.697h99.193c0.029-0.0459 0.068-0.10907 0.097-0.15383v-134.06h-174.14l-59.658 62.717-59.658-62.717zm478.91 0v116.38c6.9141-10.218 21.538-28.084 28.636-35.427v-63.696zm-288.74 0.18337 42.77 44.911 15.786-16.52-4.2839-4.5283z" style="paint-order:stroke fill markers"/>
  <path d="m0.4891 0v89.357h382.14c2.4385-1.4678 5.1353-2.4103 8.3506-2.4103 3.7229 0 7.0842 0.56403 10.213 2.4103h66.027v-89.357h-174.14l-59.658 62.717-59.658-62.717zm478.91 0v89.357h21.111c2.8722-3.356 5.5138-6.3267 7.5244-8.4067v-63.696zm-288.74 0.18337 42.77 44.911 15.786-16.52-4.2839-4.5283z" style="paint-order:stroke fill markers"/>
  <path d="m0.4891 0v44.5h215.61l-42.329-44.5zm292.6 0-42.329 44.5h216.47v-44.5zm186.31 0v44.5h28.636v-27.245zm-288.74 0.18337 42.204 44.316h1.1349l15.218-15.925-4.2839-4.5283z" style="paint-order:stroke fill markers"/>
 </g>
 <g transform="translate(-753.81 11.155)">
  <path d="m1202.5 257.63c-5.1436 17.092-9.6743 21.668-22.115 21.668-9.9735 0-16.399-3.3039-20.988-15.419-0.2568-0.67622-1.8407-4.8344-2.379-6.249h-46.308c-0.17 7.1818-0.3237 13.259-0.3237 15.794 0 9.9123 1.1637 21.232 2.0815 29.064h108.61v-44.858zm-258.05 44.858h23.619v-42.157l-3.2183-2.7012h-20.399zm-190.11-44.858v44.858h177.99v-44.858zm229.37 0 3.5654 3.0059 3.561-3.0059zm26.043 0-4.7959 4.0474h19.764l4.8222-4.0474zm32.407 0v44.858h28.512c-0.1836-5.1398-0.4893-17.621-0.4893-24.352 0-7.9058 0.1538-14.482 0.3882-20.506zm191.09 0v44.858h28.636v-44.858z" fill="#183c92"/>
  <path d="m1072.9 212.77h-318.59v44.856h177.99v-43.312l51.381 43.312h7.1265l51.324-43.312v43.312h28.412zm129.85 43.947c-0.094 0.3177-0.1866 0.60025-0.2798 0.90967h18.574v-44.856h-4.3799zm-91.822-43.947c0.1752 3.5163 0.2856 6.8024 0.2856 9.6826 0 11.801-0.2887 24.848-0.5332 35.174h46.308c-3.8639-10.155-12.12-31.827-17.08-44.856zm122.29 0v44.856h28.636v-44.856zm-288.8 27.732v17.124h20.401zm85.6 0-20.291 17.124h19.79l0.501-0.4204z" fill="#3aa932" style="paint-order:stroke fill markers"/>
  <path d="m1236.9 167.92zl-3.6489 7.2422v37.616h28.636v-44.858zm-40.159 1e-5zh-29.323c1.0862 8.6778 2.4381 19.178 3.4233 28.352 0.4893 4.7726 0.9173 9.9727 6.3017 9.9727 4.8337 0 6.5464-6.9127 10.279-16.519 2.8473-7.4185 6.0429-14.79 9.3194-21.806zm-149.79-1e-5zc-2.8082 2.0177-5.7428 4.1729-8.7642 6.3237-17.316 12.299-26.676 22.151-37.874 22.151-6.6083 0-10.34-2.9377-14.562-8.3833-0.7342-0.97899-2.9985-5.3852-2.9985-8.9341 0-3.5973 1.3133-7.6912 6.0893-11.158h-234.5v44.858h318.59c0.3344-9.2105 0.5625-20.154 0.5625-34.25 0-4.3964-0.2809-7.8586-0.7821-10.608zm60.938 0c0.6362 13.388 2.3803 31.02 3.0703 44.858h28.98c-1.1645-3.0585-3.2523-8.5426-3.7911-9.9595-5.2647-13.897-9.1529-25.679-11.303-34.898zm113.19 33.186c-1.4146 3.4883-2.892 7.4603-4.3813 11.672h4.3813z" fill="#f7e91a" style="paint-order:stroke fill markers"/>
  <path d="m1107.2 131.72c1.1013 4.6502 0.3678 17.928 0.3678 27.656 0 2.539 0.095 5.4388 0.2431 8.543h16.967c-1.2483-5.3537-1.9131-9.848-1.9131-13.377 0-16.949 11.931-23.19 23.312-23.19 15.297 0 17.989 14.501 20.008 28.207 0.3056 1.9694 0.7175 4.9665 1.166 8.3599h29.323c9.6846-20.738 20.06-38.339 24.237-44.856h-99.193zm-352.93-8.6572v44.856h234.5c0.5046-0.36622 1.0355-0.72733 1.6202-1.0781 6.547-3.9772 13.828-3.1825 29.492-12.667 18.54-11.197 36.038-21.171 39.587-23.435 3.8921-2.0584 4.8262-4.7961 4.9688-7.692zm507.55 5.3525c-6.4981 8.5448-17.858 26.185-24.987 39.504h24.987zm-197.21 30.104c-4.1469 0-10.473 4.1851-17.73 9.3999h25.771c-1.3249-7.2956-4.2621-9.3999-8.0406-9.3999z" fill="#f59f2f" style="paint-order:stroke fill markers"/>
  <path d="m754.3 78.203v44.856h310.17c0.09-1.8386-0.1363-3.7454-0.1363-5.5986 0-10.402 9.3606-14.011 17.376-14.011 7.7096 0 12.422 2.8141 13.585 3.3648 2.8757-1.5909 10.34-5.8131 24.352-14.44 6.4988-3.9426 10.883-10.611 16.797-14.171zm400.71 0c0.7281 0.4296 1.4443 0.9283 2.1489 1.5059 5.4456 4.4055 6.4234 6.9144 6.4234 10.708 0 8.6274-13.277 15.725-20.192 19.947-9.7864 5.8941-16.457 9.7283-21.643 12.696h99.193c0.029-0.0459 0.068-0.10905 0.097-0.15381v-44.703zm78.204 0v27.021c4.9554-7.3234 13.845-18.53 21.111-27.021z" fill="#e6313e" style="paint-order:stroke fill markers"/>
  <path d="m754.3 33.36v44.856h382.14c2.4385-1.4678 5.1358-2.4097 8.3511-2.4097 3.7229 0 7.0842 0.56336 10.213 2.4097h66.026v-44.856h-216.47l-17.328 18.217-17.329-18.217zm232.37 0 0.56685 0.59473 0.56836-0.59473zm246.54 0v44.856h21.111c2.8722-3.356 5.5143-6.3268 7.5249-8.4067v-36.45z" fill="#76481a" style="paint-order:stroke fill markers"/>
  <path d="m754.3-11.139v44.5h215.61l-42.329-44.5zm292.6 0-42.329 44.5h216.47v-44.5zm186.31 0v44.5h28.636v-27.245zm-288.74 0.18337 42.204 44.316h1.1349l15.218-15.925-4.2839-4.5283z" fill="#222" style="paint-order:stroke fill markers"/>
 </g>
 <path d="m0 349.62h507.97v250.38h-507.97z" fill="#6c3f79"/>
 <g transform="matrix(.69546 0 0 .69546 4.95 -200.48)" fill="#fff">
  <path d="m307.42 930.48v33.398c-5.8575-1.365-11.858-2.58-17.91-1.8-6.9525 0.66-13.86 3.8625-18.165 9.4875-3.705 4.695-5.5538 10.695-5.5688 16.642v55.706h-36.589v-112.13h35.468v19.669h0.42c2.82-7.815 8.625-14.588 16.448-18.256s17.198-4.3578 25.898-2.7152z" stroke-width=".75"/>
  <path d="m320.94 931.79h36.661v112.11h-36.661zm36.661-14.014h-36.661v-28.029h36.661z"/>
  <path d="m574.44 976.18c-0.68889-12.498-9.6444-22.832-21.946-22.733-12.99 0.098-21.552 9.3491-23.619 23.028zm-45.467 20.765c0.7873 15.352 9.6444 25.39 25.194 25.292 8.8571 0 17.517-4.1333 20.962-12.4l34.248-0.1968c-6.4952 25.981-30.409 37.298-55.406 37.495-36.511 0.1969-61.508-21.651-61.705-59.244-0.19683-34.346 27.063-59.048 60.032-59.343 40.152-0.1968 60.425 29.917 58.949 67.904z" stroke-width="98.412"/>
  <path d="m184.58 987.03c-0.0974-14.873-5.7857-31.366-22.554-31.27-17.847 0.095-21.672 16.684-21.574 30.508 0.0974 15.635 5.9818 34.299 21.966 34.203 16.769-0.095 22.26-19.617 22.162-33.44m-79.724-54.914 34.812-0.2861 0.0974 12.585h0.49037c6.9624-10.296 17.749-15.826 30.595-15.826 35.106-0.2859 50.11 33.25 50.306 63.758 0.19608 28.22-15.102 55.105-46.775 55.295-13.729 0.095-24.319-4.862-31.968-14.682h-0.39232l0.29411 48.263-36.577 0.1906z" stroke-width="96.69"/>
  <path d="m401.66 986.94c0.0982 15.316 5.7928 32.302 22.582 32.204 17.869-0.097 21.698-17.182 21.6-31.419-0.0982-16.102-5.9891-30.928-21.993-30.829-16.789 0.097-22.287 15.808-22.189 30.044m79.823 56.553-34.855 0.2944-0.0982-12.96h-0.49091c-6.971 10.604-17.771 16.298-30.633 16.298-35.149 0.2944-50.171-29.848-50.368-61.266-0.19634-29.062 15.12-56.75 46.833-56.946 13.746-0.097 24.349 5.0073 32.008 15.12h0.39275l-0.29455-54.099 36.622-0.1963z" stroke-width="98.183"/>
 </g>
</svg>
