<svg width="800" height="742.31" version="1.1" viewBox="0 0 800 742.31" xmlns="http://www.w3.org/2000/svg">
 <path d="m3.5917e-4 6.6238e-4 -2.0253e-5 742.31h800v-742.31z" fill="#fff" stroke-width=".69837"/>
 <path d="m21.868 2.2383e-5 -21.868 21.379v60.306l83.552-81.686zm129.48 0-151.35 147.97v60.306l162.64-159.01 50.393-49.268zm129.48 0-280.82 274.56v60.306l342.51-334.87zm129.48 0-410.3 401.14v60.306l162.64-159.01 309.35-302.44zm129.48 0-539.78 527.73v60.306l162.64-159.01 438.83-429.03zm129.48 0-1.3981 1.3667-667.87 652.95v60.306l162.64-159.01 568.31-555.62zm129.48 0-759.26 742.31h61.684l698.83-683.23v-59.081zm1.2548 125.36-631.04 616.95h61.685l569.35-556.64zm0 126.59-132.13 129.18-369.43 361.18h61.685l439.87-430.05zm0 126.59-372.08 363.77h61.685l310.39-303.46zm0 126.59-132.13 129.18-110.47 108h61.687l180.91-176.87zm0 126.59-113.12 110.59h61.684l51.435-50.286z" fill="#d82428" stroke-width=".69837"/>
 <path d="m43.069 39.614h712.1v660.87l-712.1 1e-4z" fill="#fff" stroke-width=".69837"/>
 <g fill="#d82428">
  <path d="m655.07 386.44c-3.2794 11.858-4.5173 20.894-4.7976 32.661-0.48437 20.134-29.793 28.131-46.037 5.2692-13.37-18.816-28.709-85.95-30.505-93.918-7.3295-32.558-10.162-44.419-11.084-56.457-1.1826-15.428 5.1714-24.19 19.182-27.737 14.515-3.6761 26.318 3.3983 27.492 18.957 2.2134 29.251 4.0269 52.067 6.9116 65.379 0.96655 4.4555 3.6532 6.0632 6.5319 6.0632 3.7556 0 5.9458-2.559 7.2772-5.3606 5.4898-11.563 19.552-60.914 65.811-118.27v-117.81l-223.25 1e-5 -76.446 74.769-76.446-74.769h-223.25l-2.1e-5 383.4 225.71-2e-5v-132.16l73.985 72.361 73.987-72.361v132.16h30.325c0.30349-10.387 0.51953-24.219 0.32369-30.087-0.27734-6.1232-0.58382-20.846-0.58382-28.803 0-44.256 3.9626-55.1 3.9626-118.88 0-19.072-4.3655-23.705-10.658-23.705-7.0252 0-24.803 13.066-37.899 22.185-20.998 14.599-32.313 26.234-45.906 26.234-8.0277 0-12.606-3.4611-17.698-9.8358-0.95459-1.1764-3.6591-6.4515-3.6591-10.65 0-4.715 1.9301-11.238 9.3299-15.602 8.0068-4.7121 16.845-3.8128 35.826-15.017 22.504-13.286 49.415-28.697 53.746-31.378 7.7384-3.9759 5.8868-10.101 5.8957-15.767 0-12.349 11.318-16.619 21.027-16.619 9.3119 0 15.09 3.3676 16.486 3.9868 3.4842-1.8907 12.542-6.8514 29.495-17.078 20.855-12.58 20.496-22.531 33.493-25.255 14.416-3.0247 23.547 10.73 23.547 20.337 1e-5 14.414-18.825 22.791-28.313 28.028-26.548 14.666-35.934 20.846-45.394 26.829 0.50457 5.7803 0.49638 19.2 0.50755 30.799 1e-5 19.309 5.9219 55.351 5.9219 75.326 0 23.705-1.0099 53.098-1.0099 60.409 0 11.789 1.3665 25.184 2.4878 34.457 0.72959 7.5884 1.7223 20.02 2.2718 30.087l142.18-3e-5v-184.77c-0.24818 0.48035-0.49634 0.95411-0.74454 1.4337-12.305 23.976-28.032 50.588-40.037 91.163" stroke-width=".69837"/>
  <g transform="matrix(.69837 0 0 .69837 0 2.2383e-5)">
   <path d="m379.85 918.91 39.823-1e-5 -61.665-85.944 55.631-80.02-39.099-1e-5 -36.323 52.379-37.53-52.379h-39.22l55.752 78.199-61.545 87.764 39.823-1e-5 41.573-60.265z"/>
   <path d="m503.96 795.67c-7.54-0.0764-16.31 1.9348-22.24 5.9229-6.0202 4.0493-10.563 8.7614-13.488 13.041l-1e-5 -14.364-32.726 3e-5 4e-5 118.64 32.726 4e-5v-66.604c0-10.608 1.8971-15.515 5.267-20.993 2.2431-3.9857 9.2289-8.3692 17.362-8.1142 7.5048 0.0217 12.098 2.3145 15.001 6.2426 3.0572 4.1378 4.708 11.007 4.708 19.551l-1e-5 69.918 32.669-3e-5 1e-5 -66.604c-3e-5 -9.9858 1.5536-14.896 4.9421-20.729 3.7088-6.1711 11.576-8.5102 18.006-8.3369 5.402 0.14562 11.078 1.4228 14.684 6.4254 4.2098 5.8403 4.7509 13.268 4.7509 19.326l1e-5 69.918 32.674 7e-5v-76.137c0-16.118-3.5325-26.077-9.4879-33.961-6.1894-8.1932-17.476-13.147-30.379-13.147-10.725 0-18.585 2.6257-25.167 7.3809-6.5815 4.7552-10.867 9.6412-14.036 14.872-3.0685-7.1401-7.3849-12.754-12.843-16.235-5.5698-3.3432-11.743-5.9056-22.421-6.0137z"/>
   <path d="m668.92 882.65c3e-5 4.0841 1.6444 7.2214 4.9442 9.4177 3.2974 2.201 7.761 3.2974 13.397 3.2974 8.8525-1e-5 16.052-2.3165 21.607-6.9481 5.5467-4.6258 8.3236-11.494 8.3236-20.598l2e-5 -1.4098c-0.80651 0-1.6529-0.0399-2.5319-0.12001-0.88858-0.0742-1.7361-0.11788-2.5342-0.11787-17.224 3e-5 -28.726 1.6122-34.516 4.8249-5.7905 3.2221-8.6894 7.1071-8.6894 11.654zm48.272 21.661c-3.5424 5.6515-8.6073 10.283-15.206 13.889-6.5971 3.6106-15.051 5.4136-25.345 5.4136-12.551 3e-5 -22.732-3.1372-30.534-9.4129s-11.703-15.146-11.703-26.606c1e-5 -6.2757 1.368-12.162 4.105-17.655 2.7359-5.4925 7.1585-10.243 13.275-14.244 6.1082-4.0027 14.155-7.18 24.132-9.5354 9.9777-2.3518 22.048-3.5317 36.21-3.5317l4.8223-1e-5c-0.48061-6.2757-2.5742-10.984-6.2711-14.126-3.7055-3.1372-9.0167-4.7059-15.93-4.7059-5.7918-1e-5 -10.661 1.2554-14.604 3.7662-3.9421 2.5096-6.8821 6.4382-8.8126 11.768l-31.861-8.7111c3.5437-9.5684 9.6192-17.81 18.228-24.716 8.6085-6.9034 21.037-10.36 37.295-10.36 18.341 0 32.097 4.4727 41.267 13.422 9.1712 8.9442 13.757 21.187 13.757 36.725l-2e-5 73.216-32.823 2e-5z"/>
   <path d="m880.04 885c-2e-5 -52.02-76.257-29.415-76.257-52.969-6e-5 -6.3511 5.0682-11.524 18.343-11.524 13.275 3e-5 20.759 6.5803 23.159 17.187l29.218-5.6636c-3.3897-19.528-18.83-36.486-52.142-36.486-33.295-3e-5 -50.916 16.483-50.916 37.435 3e-5 51.791 74.579 29.431 74.579 53.199 3e-5 7.3005-6.0414 11.998-19.803 11.998-15.926-4e-5 -25.341-6.8258-28.479-18.349l-31.131 6.5803c6.7631 22.834 24.854 37.206 59.61 37.206 35.242 0 53.82-15.305 53.82-38.614z"/>
  </g>
 </g>
</svg>
