<svg width="38.855pt" height="23.59pt" version="1.1" viewBox="0 0 38.855 23.59" xmlns="http://www.w3.org/2000/svg">
 <defs>
  <linearGradient id="a" x1="-3.2075e-6" x2="38.855" y1="-123.62" y2="-123.62" gradientUnits="userSpaceOnUse">
   <stop stop-color="#cbd0db" offset="0"/>
   <stop stop-color="#c7cfd5" offset=".20729"/>
   <stop stop-color="#c4ccd3" offset=".37889"/>
   <stop stop-color="#bac2ca" offset=".5352"/>
   <stop stop-color="#a6aeb7" offset=".73909"/>
   <stop stop-color="#9aa2ac" offset=".84273"/>
   <stop stop-color="#818994" offset="1"/>
  </linearGradient>
 </defs>
 <g transform="translate(3.2075e-6 135.41)" fill="url(#a)">
  <path d="m16.239-131.41c-0.027-0.108-0.103-0.39-0.156-0.536-0.02 0.011-0.915 2.742-1.329 3.979-0.056-0.069-0.081-0.138-0.092-0.209-0.041-0.244-0.077-0.488-0.114-0.733-0.087-0.584-0.175-1.169-0.262-1.753-0.089-0.592-0.178-1.183-0.266-1.774-0.079-0.524-0.154-1.047-0.235-1.57-0.051-0.326-0.092-0.655-0.171-0.974-0.073-0.291-0.274-0.425-0.54-0.425-0.639 1e-3 -1.278 1e-3 -1.917 0-0.195 0-0.356 0.076-0.462 0.234-0.076 0.112-0.133 0.241-0.175 0.371-0.684 2.088-1.364 4.178-2.046 6.267-0.062 0.19-0.131 0.379-0.196 0.568-0.024-3e-3 -0.048-5e-3 -0.072-8e-3 -0.127-0.807-0.256-1.612-0.38-2.419-0.091-0.591-0.174-1.183-0.262-1.775-0.092-0.625-0.185-1.251-0.282-1.875-0.051-0.326-0.095-0.654-0.173-0.973-0.065-0.264-0.273-0.389-0.543-0.388-0.625 0-1.251-0.014-1.875 7e-3 -0.155 6e-3 -0.336 0.093-0.45 0.201-0.112 0.106-0.173 0.279-0.224 0.433-0.913 2.771-1.823 5.543-2.727 8.317-0.422 1.292-0.844 2.585-1.24 3.886-0.135 0.443-2e-3 0.604 0.488 0.627 0.492 0.023 0.986 4e-3 1.479 3e-3 0.533-1e-3 0.722-0.138 0.89-0.653 0.613-1.873 1.224-3.747 1.836-5.621 0.127-0.388 0.259-0.774 0.388-1.162 0.108 0.474 0.182 0.941 0.249 1.409 0.076 0.524 0.147 1.049 0.22 1.574 0.063 0.456 0.127 0.912 0.189 1.369 0.063 0.463 0.123 0.927 0.186 1.39 0.053 0.389 0.093 0.78 0.167 1.164 0.074 0.379 0.295 0.534 0.675 0.531 0.549-3e-3 1.098-5e-3 1.646-2e-3 0.557 3e-3 0.762-0.136 0.932-0.658 0.575-1.762 1.148-3.525 1.723-5.287 0.157-0.482 0.317-0.962 0.485-1.471 0.039 0.057 0.07 0.082 0.075 0.112 0.087 0.592 0.173 1.183 0.257 1.775 0.075 0.525 0.148 1.049 0.223 1.573 0.078 0.545 0.162 1.089 0.236 1.634 0.075 0.559 0.132 1.121 0.214 1.679 0.063 0.435 0.348 0.648 0.796 0.644 0.549-5e-3 1.097-1e-3 1.646 0 0.438 1e-3 0.642-0.135 0.784-0.561 0.471-1.411 0.941-2.823 1.397-4.24 0.055-0.174 0.059-0.387 0.017-0.566-0.325-1.374-0.665-2.745-1.009-4.114"/>
  <path d="m25.455-132.54c0.158-0.495-0.096-0.641-0.534-0.656-0.52-0.018-1.041-4e-3 -1.562-0.013-0.279-4e-3 -0.53 0.054-0.686 0.303-0.083 0.132-0.144 0.283-0.191 0.432-0.517 1.659-1.029 3.319-1.544 4.978-0.022 0.072-0.063 0.138-0.114 0.248-0.038-0.116-0.064-0.179-0.08-0.245-0.375-1.482-0.748-2.964-1.125-4.446-0.073-0.285-0.152-0.57-0.245-0.849-0.082-0.243-0.24-0.379-0.526-0.378-0.701 2e-3 -1.402 0.026-2.103 0.013-0.067-1e-3 -0.134 0-0.215 0 0.031 0.19 0.047 0.307 0.086 0.466 0.749 3.05 1.497 6.1 2.256 9.148 0.125 0.5 0.233 1 0.104 1.508-0.124 0.485-0.28 0.963-0.437 1.438-0.24 0.724-0.503 1.44-0.737 2.165-0.133 0.416 0.035 0.621 0.469 0.621 0.556 1e-3 1.112-1e-3 1.667 0 0.521 2e-3 0.687-0.111 0.851-0.605 1.306-3.94 2.612-7.88 3.916-11.821 0.254-0.768 0.505-1.536 0.75-2.307"/>
  <path d="m38.692-120.58c-0.478-2.238-1.762-3.903-3.782-4.986-0.872-0.468-1.813-0.772-2.799-0.786-2.409-0.036-4.819-0.013-7.229-0.014-0.067 0-0.133 6e-3 -0.205 0.01 6e-3 0.037 4e-3 0.059 0.012 0.076 0.563 1.153 1.118 2.309 1.695 3.454 0.15 0.298 0.425 0.477 0.774 0.478 1.375 3e-3 2.75-0.017 4.125 6e-3 0.563 0.01 1.136 0.051 1.683 0.173 1.887 0.424 3.299 1.511 4.225 3.204 0.559 1.023 0.821 2.129 0.744 3.362 0.049-0.069 0.063-0.084 0.072-0.101 0.806-1.544 1.046-3.183 0.685-4.876"/>
  <path d="m30.947-116.38c-1.317-0.336-2.123-1.343-2.197-2.745-0.018-0.328-0.232-0.527-0.563-0.527-1.091 1e-3 -2.182 1e-3 -3.272 0-0.403 0-0.662 0.244-0.632 0.645 0.036 0.481 0.061 0.97 0.171 1.436 0.544 2.324 1.892 4.02 4.045 5.065 0.769 0.374 1.59 0.566 2.435 0.661 0.294 0.033 0.312 0.012 0.312-0.274v-3.876c0-0.309 0-0.309-0.299-0.385"/>
  <path d="m34.895-120.6c-0.552-0.4-1.156-0.697-1.863-0.888 0.933 0.616 1.466 1.684 1.294 2.812-0.17 1.112-1.089 2.117-2.201 2.303-0.198 0.033-0.227 0.106-0.226 0.278 5e-3 1.34 3e-3 2.68 3e-3 4.02v0.251c0.289-0.039 0.541-0.073 0.792-0.106 0.878-0.117 1.692-0.412 2.462-0.846 1.62-0.912 2.379-2.836 1.937-4.606-0.336-1.343-1.081-2.409-2.198-3.218"/>
  <path d="m24.7-127.06h0.207c1.319 0 2.639-4e-3 3.958 4e-3 0.178 2e-3 0.25-0.057 0.304-0.222 0.547-1.676 1.103-3.349 1.655-5.024 0.087-0.262 0.168-0.527 0.258-0.814h-0.218c-1.209 0-2.417-1e-3 -3.625 0-0.416 0-0.586 0.124-0.716 0.518-0.455 1.375-0.91 2.749-1.364 4.125-0.152 0.46-0.3 0.922-0.459 1.413"/>
  <path d="m30.463-129.07c0.096 5e-3 0.157 0.011 0.218 0.011 2.09 0 4.18 1e-3 6.27 0 0.393 0 0.635-0.243 0.636-0.632 1e-3 -0.909-0.012-1.819 6e-3 -2.728 8e-3 -0.392-0.219-0.704-0.704-0.702-1.632 7e-3 -3.263 5e-3 -4.895-1e-3 -0.163-1e-3 -0.224 0.056-0.272 0.205-0.381 1.175-0.771 2.347-1.157 3.52-0.034 0.101-0.064 0.204-0.102 0.327"/>
 </g>
</svg>
