<svg width="38.236mm" height="13.861mm" version="1.1" viewBox="0 0 135.48 49.112" xmlns="http://www.w3.org/2000/svg">
 <g transform="translate(-252.26 -427.81)">
  <path d="m252.26 476.92h109.86v-36.58h-109.86v36.58z" fill="#fff"/>
  <g transform="matrix(1.25 0 0 -1.25 259.46 447.32)">
   <path d="m0 0-1e-3 -17.732 4.275 2e-3 3e-3 10.976 6.333-10.988 4.212 0.012-2e-3 17.73h-4.316l-0.011-10.336-6.067 10.339"/>
  </g>
  <g transform="matrix(1.25 0 0 -1.25 281.11 447.31)">
   <path d="m0 0-0.018-17.744h13.844l-3e-3 3.894-9.435 1e-3 2e-3 3.575 8.274-3e-3 -1e-3 3.757-8.274 2e-3 1e-3 2.605 9.023-0.018 1e-3 3.931"/>
  </g>
  <g transform="matrix(1.25 0 0 -1.25 299.45 447.31)">
   <path d="m0 0 5.028-17.744 4.465 6e-3 2.327 11.405 2.401-11.411 3.995 4e-3 5.067 17.736-4.541 4e-3 -2.439-10.444-2.139 10.44-4.745 4e-3 -2.028-9.867-2.288 9.867"/>
  </g>
  <g transform="matrix(1.25 0 0 -1.25 341.26 454.62)">
   <path d="m0 0s0.582 2.204-2.89 2.547c-2.381 0.235-2.872-1.435-2.514-2.065 0.73-1.282 6.229-1.287 8.855-3.498 2.257-1.901 1.717-6.248-0.675-7.852-2.861-1.918-7.372-1.59-9.361-0.688-4.006 1.816-3.358 5.767-3.358 5.767h4.239s-0.227-2.731 3.114-2.734c3.496-4e-3 3.502 1.826 2.777 2.567-0.803 0.821-7.385 1.099-9.192 3.833-1.197 1.811-1.375 5.493 1.838 7.424s7.982 0.983 9.718-0.819c2.094-2.173 1.763-4.484 1.763-4.484"/>
  </g>
  <g transform="matrix(1.25 0 0 -1.25 351.1 427.81)">
   <path d="m0 0h29.309l-0.019-29.251h-29.27" fill="#e42424"/>
  </g>
  <g transform="matrix(1.25 0 0 -1.25 354.84 435.04)">
   <path d="m0 0h7.132v-18.152h-4.24v13.96h-2.892" fill="#fff"/>
  </g>
  <g transform="matrix(1.25 0 0 -1.25 374.1 458.13)">
   <path d="m0 0c3.751 0.067 6.071 2.675 6.346 5.117 0.374 3.323-1.394 4.458-2.427 5.083 1.144 0.81 1.972 1.77 1.837 3.981-0.326 3.053-2.891 4.587-5.879 4.614-2.996 0.027-5.33-1.791-5.75-4.492-0.363-2.329 1.14-3.677 1.852-4.097-1.418-0.76-2.748-2.823-2.476-5.048 0.255-2.099 2.401-5.231 6.497-5.158" fill="#fff"/>
  </g>
  <g transform="matrix(1.25 0 0 -1.25 376.31 441.36)">
   <path d="m0 0c0-1-0.77-1.852-1.771-1.852-1 0-1.838 0.746-1.811 1.872 0.027 1.109 0.983 1.758 1.811 1.751 1.001-8e-3 1.771-0.672 1.771-1.771" fill="#e42424"/>
  </g>
  <g transform="matrix(1.25 0 0 -1.25 376.68 450.27)">
   <path d="m0 0c0-1.153-0.787-2.096-2.019-2.144-1.179-0.045-2.086 0.991-2.099 2.137-0.015 1.219 0.848 2.076 2.083 2.083 1.15 6e-3 2.035-0.961 2.035-2.076" fill="#e42424"/>
  </g>
 </g>
</svg>
