<svg width="800" height="328.99" version="1.1" viewBox="0 0 211.66 87.044" xmlns="http://www.w3.org/2000/svg">
 <g transform="matrix(1.4086 0 0 1.4086 205.66 -45.827)">
  <g fill="#49c3cb">
   <path d="m-23.713 63.655c0 6.574-3.198 10.825-10.891 10.825h-0.297c-2.687 0-5.501-0.714-7.259-1.845-3.05-1.964-5.043-5.195-3.033-8.608 1.865-3.161 8.385-3.743 9.351 1.762 0.338 1.927 1.362 1.675 1.362-0.103v-13.099c4e-3 -3.912 2.418-6.322 5.394-6.322 2.975 4e-3 5.389 2.414 5.389 5.389zm-5.373-19.082c2.946 0 5.336-2.39 5.336-5.336 0-2.947-2.39-5.336-5.336-5.336-2.947 0-5.336 2.389-5.336 5.336 0 2.946 2.389 5.336 5.336 5.336"/>
   <path d="m-10.272 73.465v-14.51c0-1.048 0.6558-2.815 1.8691-3.289 1.238-0.475 2.3688 0.074 3.7265 0.582 4.4735 1.704 7.9566-0.549 8.4931-3.475 0.5447-2.926-1.3866-5.736-4.3126-6.277-3.5945-0.673-6.1242 0.458-9.0626 2.724 0 0-0.0041 0-0.0082 4e-3 -0.2064 0.161-0.7593 0.639-0.9573 0.805-0.689-2.184-2.728-3.764-5.134-3.764-2.975 0-5.39 2.414-5.39 5.389v21.811z"/>
   <path d="m-1.0732 73.76c2.9466 0 5.336-2.39 5.336-5.336 0-2.947-2.3894-5.332-5.336-5.332s-5.336 2.385-5.336 5.332c0 2.946 2.3894 5.336 5.336 5.336"/>
  </g>
  <g fill="#ff6700">
   <path d="m-131.79 46.265c-3.91-4e-3 -7.5 1.597-10.05 4.16-2.56 2.558-4.16 6.145-4.16 10.053v12.979h10.79v-12.761c0-1.551 0.37-2.884 1-3.912 0.64-1.015 1.46-1.618 2.42-1.622 0.96 4e-3 1.78 0.607 2.42 1.622 0.62 1.028 1 2.361 1 3.912v12.761h10.79v-12.979c0-3.908-1.6-7.495-4.16-10.053-2.56-2.563-6.14-4.164-10.05-4.16"/>
   <path d="m-105.97 42.771c1.09-1.085 1.76-2.583 1.76-4.242 0-1.655-0.67-3.153-1.76-4.238-1.09-1.086-2.58-1.758-4.24-1.758s-3.16 0.672-4.24 1.758c-1.09 1.085-1.76 2.583-1.76 4.238 0 1.659 0.67 3.157 1.76 4.242l1.32 1.325c2.22 2.212 2.37 2.798 0.27 4.899l-1.21 1.205c-0.98 0.986-1.59 2.352-1.59 3.858v19.397h10.9v-19.397c0-1.506-0.61-2.872-1.59-3.858l-1.21-1.205c-2.1-2.101-1.95-2.687 0.27-4.899z"/>
   <path d="m-86.643 65.011c-0.64 1.172-1.461 1.87-2.422 1.87-0.962 0-1.783-0.698-2.419-1.87-0.627-1.188-0.998-2.724-1.002-4.519 4e-3 -1.795 0.375-3.33 1.002-4.519 0.636-1.176 1.457-1.869 2.419-1.873 0.961 4e-3 1.782 0.697 2.422 1.873 0.462 0.879 0.788 1.952 0.925 3.182h10.8c-0.318-3.384-1.829-6.45-4.098-8.712-2.555-2.567-6.141-4.164-10.049-4.164-3.904 0-7.495 1.597-10.049 4.164-2.566 2.555-4.166 6.141-4.156 10.049-0.01 3.908 1.59 7.495 4.156 10.049 1.968 1.969 5.394 4.164 10.053 4.164 3.495 0 6.735-1.283 9.207-3.392 1.807-1.531 4.477-4.606 4.936-9.484h-10.8c-0.137 1.226-0.463 2.303-0.925 3.182"/>
   <path d="m-46.374 71.572c0-0.363-0.107-0.697-0.285-0.982l-5.91-8.935 4.09-7.428c1.515-2.563 0.66-5.873-1.902-7.387-2.567-1.511-5.877-0.656-7.387 1.91l-4.887 8.729v-5.819c0-2.98-2.414-5.394-5.393-5.394-2.98 0-5.398 2.414-5.398 5.394v21.798h10.791v-8.534l5.691 8.53h8.712c1.036-4e-3 1.878-0.846 1.878-1.882"/>
  </g>
 </g>
 <g transform="matrix(.86332 0 0 .86332 -228.42 4.0624)" fill="#fff">
  <path d="m273.69 87.715h1.5244c2.678 0 4.532-0.57679 6.3859-1.9776 2.5132-1.8952 3.9964-4.8203 3.9964-7.8691s-1.442-5.9739-3.8727-7.8279c-2.1012-1.6068-3.9964-2.1012-8.4047-2.1012h-3.7904c-1.6892 0-2.7604 0.412-3.708 1.3596-0.94759 0.98879-1.236 1.8952-1.236 3.8728v16.068c0 2.7604 0.0824 3.2136 0.78279 4.3259 0.82399 1.2772 2.266 2.06 3.7904 2.06 2.7192 0 4.532-2.1012 4.532-5.2323zm0-11.371h0.82398c1.3596 0 2.1836 0.53559 2.1836 1.442 0 1.236-0.82399 1.648-3.0076 1.5244z" stroke-width="1.03" style="white-space:pre"/>
  <path d="m294.37 91.835h8.4047c1.2772 2.8016 2.5132 3.7904 4.6144 3.7904 2.5132 0 4.5731-2.0188 4.5731-4.4907 0-0.70039-0.1648-1.4832-0.5356-2.1836l-8.6519-18.457c-0.82398-1.7304-2.3896-2.7604-4.2435-2.7604-1.8128 0-3.3784 1.03-4.1612 2.7192l-8.6107 18.251c-0.37078 0.78279-0.57679 1.6068-0.57679 2.3896 0 2.5544 1.9776 4.5319 4.4908 4.5319 2.1836 0 3.5432-1.1124 4.6967-3.7904zm2.7604-6.5507 1.4008-3.296 1.4008 3.296z" stroke-width="1.03" style="white-space:pre"/>
  <path d="m322.51 78.362-2.9252-6.9627c-0.98879-2.4308-2.5544-3.6668-4.6555-3.6668-2.5132 0-4.5731 1.9364-4.5731 4.3259 0 0.4532 0.20599 1.3184 0.53559 2.1012l7.0039 18.334c0.74159 2.0188 2.266 3.1312 4.2848 3.1312 2.06 0 3.5844-1.236 4.3259-3.502l3.0076-8.9815 3.0488 9.0227c0.78279 2.266 2.3072 3.4608 4.4083 3.4608 2.06 0 3.502-1.1536 4.3671-3.5432l6.5095-17.716c0.412-1.0712 0.53559-1.6068 0.53559-2.1424 0-2.5132-1.9776-4.4907-4.5319-4.4907-1.9776 0-3.708 1.236-4.4495 3.1312l-3.0076 7.7043-2.5544-7.2923c-0.82398-2.3896-2.3072-3.5432-4.4907-3.5432-2.1836 0-3.6256 1.1124-4.4084 3.4196z" stroke-width="1.03" style="white-space:pre"/>
  <path d="m372.57 87.715h1.5244c2.678 0 4.5319-0.57679 6.3859-1.9776 2.5132-1.8952 3.9963-4.8203 3.9963-7.8691s-1.442-5.9739-3.8728-7.8279c-2.1012-1.6068-3.9963-2.1012-8.4047-2.1012h-3.7904c-1.6892 0-2.7604 0.412-3.708 1.3596-0.94758 0.98879-1.236 1.8952-1.236 3.8728v16.068c0 2.7604 0.0824 3.2136 0.78279 4.3259 0.82399 1.2772 2.266 2.06 3.7904 2.06 2.7192 0 4.5319-2.1012 4.5319-5.2323zm0-11.371h0.82399c1.3596 0 2.1836 0.53559 2.1836 1.442 0 1.236-0.82399 1.648-3.0076 1.5244z" stroke-width="1.03" style="white-space:pre"/>
  <path d="m393.25 91.835h8.4047c1.2772 2.8016 2.5132 3.7904 4.6143 3.7904 2.5132 0 4.5731-2.0188 4.5731-4.4907 0-0.70039-0.16479-1.4832-0.53559-2.1836l-8.6519-18.457c-0.82398-1.7304-2.3896-2.7604-4.2436-2.7604-1.8128 0-3.3784 1.03-4.1611 2.7192l-8.6107 18.251c-0.3708 0.78279-0.57679 1.6068-0.57679 2.3896 0 2.5544 1.9776 4.5319 4.4907 4.5319 2.1836 0 3.5432-1.1124 4.6967-3.7904zm2.7604-6.5507 1.4008-3.296 1.4008 3.296z" stroke-width="1.03" style="white-space:pre"/>
  <path d="m415.87 76.385v13.761c0 1.854 0.16481 2.6368 0.7828 3.5844 0.86519 1.1948 2.2248 1.8952 3.7492 1.8952 1.5656 0 2.9252-0.74159 3.7491-2.06 0.5768-0.94759 0.7828-1.854 0.7828-3.502v-13.678h2.0188c1.648 0 2.8016-0.3296 3.502-0.98879 0.90639-0.82399 1.4832-2.06 1.4832-3.2548 0-2.1424-1.5244-3.8316-3.708-4.1199-0.53559-0.0824-0.53559-0.0824-3.09-0.0824h-9.1463c-3.5844 0-3.9552 0.0412-4.9027 0.45319-1.3184 0.57679-2.3484 2.2248-2.3484 3.7904 0 1.1124 0.4532 2.1424 1.2772 3.0076 0.82398 0.82399 1.854 1.1948 3.4196 1.1948z" stroke-width="1.03" style="white-space:pre"/>
  <path d="m452.9 84.831c2.1012-2.3484 2.9252-4.3671 2.9252-7.0039 0-4.4495-2.9664-8.2811-7.2099-9.4759-1.1948-0.2884-2.1836-0.412-4.4083-0.412h-3.7904c-2.1836 0-3.09 0.2884-4.12 1.1948-1.0712 0.94759-1.4832 2.06-1.4832 4.0375v16.933c0 1.7304 0.32959 2.9252 1.0712 3.8728 0.824 1.03 2.1836 1.648 3.5432 1.648 2.5132 0 4.4495-1.9776 4.4495-4.5731v-3.7492l3.7492 6.2211c0.82399 1.3596 2.1424 2.1012 3.7492 2.1012 2.5544 0 4.532-1.9364 4.532-4.4495 0-0.94759-0.2884-2.0188-0.86519-2.9252zm-9.0227-8.4871c0.412 0.0412 0.74159 0.0412 0.94759 0.0412 1.3596-0.0412 2.1012 0.49439 2.1012 1.4832 0 0.98879-0.70039 1.4832-2.06 1.442h-0.98879z" stroke-width="1.03" style="white-space:pre"/>
  <path d="m500.37 86.932v-13.019c0-2.5956-0.206-3.4196-1.03-4.5319-0.78278-0.98879-2.1424-1.648-3.5432-1.648-2.7192 0-4.4907 2.0188-4.4907 5.1087v15.491c0 3.7904 0.1236 4.4083 1.236 5.6443 0.82399 0.98879 2.0188 1.442 3.8316 1.442h8.6519c1.5656 0 2.5132-0.2884 3.3372-1.03 0.8652-0.78279 1.4008-2.06 1.4008-3.2548 0-1.3184-0.65918-2.5956-1.7304-3.3784-0.824-0.57679-1.6892-0.82399-3.2136-0.82399z" stroke-width="1.03" style="white-space:pre"/>
  <path transform="matrix(.26458 0 0 .26458 -.0018556 0)" d="m1788.8 254.29c-30.364 0-54.656 23.98-54.656 53.877 0 30.676 24.291 55.123 54.811 55.123 30.053 0 54.656-24.603 54.656-54.656s-24.446-54.344-54.81-54.344zm2.5605 18c6.3798 0 11.516 5.1254 11.516 11.467 0 6.3414-5.168 11.533-11.482 11.533-6.4125 0-11.518-5.158-11.518-11.631 0-6.3086 5.1046-11.369 11.484-11.369zm-26 10c6.3798 0 11.516 5.1254 11.516 11.467 0 6.3415-5.168 11.533-11.482 11.533-6.4125 0-11.518-5.158-11.518-11.631 0-6.3086 5.1046-11.369 11.484-11.369zm49 4c6.3798 0 11.516 5.1254 11.516 11.467 0 6.3414-5.168 11.533-11.482 11.533-6.4125 0-11.518-5.158-11.518-11.631 0-6.3086 5.1046-11.369 11.484-11.369zm-28.406 15c1.0775 0 2.2842 0.0979 3.5664 0.29101 7.8551 1.2322 9.5843 4.3193 11.791 8.2246 0.4431 0.79495 0.9072 1.6243 1.4551 2.4824 2.5026 3.948 3.3842 4.7938 6.291 7.5996l0.6093 0.57227c3.1673 3.0545 4.0024 7.6212 2.4551 13.568-1.2903 4.932-7.3863 9.2617-13.064 9.2617-1.1211 0-2.1857-0.16879-3.1934-0.50782-3.1062-1.0389-4.4935-1.7-5.5059-2.1836-1.433-0.69226-2.1464-1.0301-6.2656-1.6602-2.2066-0.3544-3.6493-0.5-4.7968-0.5-0.799 0-1.4241 0.0658-2.2149 0.15235-1.2722 0.13757-2.8271 0.30664-5.8984 0.30664h-0.2657c-2.894 0-5.5875-1.0977-7.7773-3.1602-2.7236-2.555-4.3972-6.4641-4.2539-9.9473 0.2395-6.168 2.3685-10.278 6.3086-12.238l1.0781-0.54688c3.3063-1.6294 4.0005-1.9754 7.4375-4.8691 0.8083-0.70065 1.5386-1.4134 2.2422-2.0977 2.6161-2.5545 4.8664-4.748 10.002-4.748z" stroke-width="3.8929" style="white-space:pre"/>
 </g>
</svg>
