<svg width="1696.4" height="800" version="1.1" viewBox="0 0 448.84 211.67" xmlns="http://www.w3.org/2000/svg" xmlns:xlink="http://www.w3.org/1999/xlink">
 <defs>
  <linearGradient id="linearGradient947">
   <stop stop-color="#fdd8a2" offset="0"/>
   <stop stop-color="#f9b126" offset=".24522"/>
   <stop stop-color="#f6a321" offset=".45"/>
   <stop stop-color="#f39121" offset=".7"/>
   <stop stop-color="#dd7218" offset="1"/>
  </linearGradient>
  <linearGradient id="linearGradient935">
   <stop stop-color="#999998" offset="0"/>
   <stop stop-color="#999998" offset=".14502"/>
   <stop stop-color="#dedede" offset=".6"/>
   <stop stop-color="#f2f2f2" offset="1"/>
  </linearGradient>
  <radialGradient id="radialGradient949-0-7" cx="-7.6698" cy="272.33" r="170" gradientTransform="matrix(.30048 1.1214 -.73089 .19584 1294.4 53.469)" gradientUnits="userSpaceOnUse" xlink:href="#linearGradient947"/>
  <radialGradient id="radialGradient949-6-4-8" cx="-7.6698" cy="272.33" r="170" gradientTransform="matrix(.36057 1.3457 -.87707 .23501 538.88 -135.09)" gradientUnits="userSpaceOnUse" xlink:href="#linearGradient947"/>
  <linearGradient id="linearGradient1772" x1="231.92" x2="577.27" y1="882.1" y2="682.71" gradientTransform="matrix(.22049 0 0 .22049 1090.6 102.51)" gradientUnits="userSpaceOnUse" xlink:href="#linearGradient935"/>
  <linearGradient id="linearGradient1774" x1="231.92" x2="577.27" y1="882.1" y2="682.71" gradientTransform="matrix(.26458 0 0 .26458 294.31 -76.241)" gradientUnits="userSpaceOnUse" xlink:href="#linearGradient935"/>
 </defs>
 <g transform="translate(-1088.8 -85.333)">
  <g transform="matrix(-.45486 0 0 -.45486 1494.3 156.81)">
   <path d="m355.68 104.23v52.917h75.406c25.572 0 46.302-23.692 46.302-52.917z" fill="url(#linearGradient1774)" stop-color="#000000" stroke-width=".087031" style="paint-order:stroke fill markers"/>
   <path d="m323.93-96.851c-17.535 0-31.75 14.215-31.75 31.75v172.77c0 27.325 22.152 49.477 49.477 49.477h40.481c-14.613 2e-5 -26.458-20.73-26.458-46.302v-175.95c0-17.535-14.215-31.75-31.75-31.75z" fill="url(#radialGradient949-6-4-8)" stop-color="#000000" stroke-width=".19444" style="paint-order:stroke fill markers"/>
  </g>
  <g transform="matrix(4.9811 0 0 4.9811 -3241 -402.28)" fill="#fff">
   <path d="m884.21 113.27h3.175v1.5875h-4.9742v-7.3766h1.7992z" style="white-space:pre"/>
   <path d="m888.72 108.45q1.0901-1.0689 2.7834-1.0689t2.7834 1.0689q1.0901 1.0689 1.0901 2.7199t-1.0901 2.7305q-1.0901 1.0689-2.7834 1.0689t-2.7834-1.0689q-1.0901-1.0795-1.0901-2.7305t1.0901-2.7199zm4.2439 1.1853q-0.5715-0.60324-1.4605-0.60324t-1.4711 0.60324q-0.5715 0.59267-0.5715 1.524 0 0.94191 0.5715 1.5557 0.58208 0.60325 1.4711 0.60325t1.4605-0.60325q0.58208-0.61383 0.58208-1.5557 0-0.93133-0.58208-1.524z" style="white-space:pre"/>
   <path d="m903.75 111.8q-0.19049 1.4076-1.2488 2.286-1.0478 0.87842-2.5612 0.87842-1.6933 0-2.7834-1.0689-1.0901-1.0795-1.0901-2.7305t1.0901-2.7199 2.7834-1.0689q1.5134 0 2.5612 0.87842 1.0583 0.86783 1.2488 2.2754h-1.8415q-0.15875-0.66674-0.6985-1.0795-0.52916-0.42333-1.27-0.42333-0.89958 0-1.4711 0.60324-0.5715 0.59267-0.5715 1.524 0 0.94191 0.5715 1.5557 0.5715 0.60325 1.4711 0.60325 0.73024 0 1.2594-0.41275 0.53975-0.42333 0.70908-1.1007z" style="white-space:pre"/>
   <path d="m907.69 107.38q1.3229 0 2.1696 0.77258 0.84666 0.77258 0.84666 1.9897v4.7202h-1.7992v-1.8415h-2.413v1.8415h-1.7886v-4.7202q0-1.2171 0.83608-1.9897t2.1484-0.77258zm-1.1959 4.2756h2.413v-1.4182q0-0.53975-0.33867-0.86783-0.33866-0.33866-0.86783-0.33866-0.52916 0-0.86783 0.33866-0.33866 0.32808-0.33866 0.86783z" style="white-space:pre"/>
   <path d="m913.75 113.27h3.175v1.5875h-4.9742v-7.3766h1.7992z" style="white-space:pre"/>
  </g>
  <g transform="matrix(7.0028 0 0 7.0028 -5022.6 -664.11)" fill="#fff">
   <path d="m887.76 120.87v1.5875h-2.0426v5.7891h-1.7992v-5.7891h-2.0426v-1.5875z" style="white-space:pre"/>
   <path d="m893.56 120.87h1.8732l-2.667 7.3766h-2.0955l-2.667-7.3766h1.8732l1.8415 5.5774z" style="white-space:pre"/>
  </g>
  <path d="m1115.3 85.333c-14.612 0-26.458 11.846-26.458 26.458v143.98c0 22.771 18.46 41.231 41.231 41.231h33.734c-12.177 0-22.049-17.275-22.049-38.585v-146.62c0-14.613-11.846-26.458-26.458-26.458z" fill="url(#radialGradient949-0-7)" stop-color="#000000" stroke-width=".16203" style="paint-order:stroke fill markers"/>
  <path d="m1141.7 252.9v44.097h62.839c21.31 0 38.585-19.744 38.585-44.098z" fill="url(#linearGradient1772)" stop-color="#000000" stroke-width=".072526" style="paint-order:stroke fill markers"/>
  <g transform="matrix(4.7619 0 0 4.7619 -3884 -601.48)" fill="#fff">
   <path d="m1087.2 176.62h-1.6486v3.2658c0 0.76167 0.031 1.5755 0.031 1.5755l-3.0884-4.8413h-1.8051v7.1994h1.6486v-3.2554c0-0.76168-0.031-1.6277-0.031-1.6277l3.1615 4.8831h1.732z" style="white-space:pre"/>
   <path d="m1093.8 181.26c0-1.659-1.2208-2.6815-2.8485-2.6815s-2.8589 1.0225-2.8589 2.6815 1.2312 2.6711 2.8589 2.6711 2.8485-1.0121 2.8485-2.6711zm-1.6799-0.0313c0 0.76168-0.4382 1.3355-1.1686 1.3355-0.7408 0-1.1686-0.57386-1.1686-1.3355 0-0.76167 0.4278-1.3355 1.1686-1.3355 0.7304 0 1.1686 0.57387 1.1686 1.3355z" style="white-space:pre"/>
   <path d="m1098.1 178.68s-0.1773-0.0939-0.5217-0.0939c-0.553 0-0.9808 0.26085-1.2729 0.82428h-0.021l0.01-0.73037h-1.6695v5.1439h1.6695v-2.285c0-0.57386 0.1356-0.90775 0.2608-1.0747s0.3965-0.37562 0.7721-0.37562c0.2922 0 0.5113 0.073 0.6052 0.12521h0.073z" style="white-space:pre"/>
   <path d="m1101.7 178.69h-1.1373v-1.3981h-1.6799v1.3981h-0.7303v1.2625h0.7303v1.9929c0 0.78254 0.1044 1.2103 0.3652 1.5129 0.2609 0.30258 0.6574 0.47996 1.2521 0.47996 0.6052 0 1.0643-0.13564 1.1895-0.16694l-0.083-1.3042s-0.24 0.0939-0.5008 0.0939c-0.2191 0-0.3235-0.0417-0.3965-0.12521-0.083-0.0939-0.1461-0.19824-0.1461-0.63647v-1.8468h1.1373z" style="white-space:pre"/>
   <path d="m1107.5 180.78c0-1.2521-0.386-2.2016-1.8781-2.2016-0.7617 0-1.252 0.37563-1.5129 0.83472 0 0 0.01-0.56343 0.01-1.0851v-1.7112h-1.6694v7.1994h1.6694v-2.525c0-0.76168 0.2192-1.346 0.9182-1.346 0.6991 0 0.7826 0.54256 0.7826 1.1686v2.7024h1.6798z" style="white-space:pre"/>
   <path d="m1118.6 176.62-1.2416 4.8518-1.3043-4.8518h-1.6903l-1.2938 4.8518-1.252-4.8518h-1.7634l2.0868 7.1994h1.7007l1.3669-4.9352 1.3668 4.9352h1.7008l2.0867-7.1994z" style="white-space:pre"/>
   <path d="m1124.9 180.92c0-0.86601-0.2191-1.3668-0.6156-1.7425-0.4069-0.37562-0.9599-0.59474-1.9198-0.59474s-1.7634 0.30259-2.2016 0.5217l0.4382 1.0851c0.2609-0.16694 0.9182-0.45909 1.5756-0.45909 0.6677 0 1.0538 0.28171 1.0538 0.82428v0.11477l-1.2938 0.0522c-0.9495 0.0417-2.0033 0.42779-2.0033 1.5755 0 1.1477 0.9599 1.6381 1.8676 1.6381 0.8348 0 1.2521-0.43823 1.4712-0.65734l0.031 0.54257h1.5964zm-1.659 1.4816c-0.1043 0.17738-0.4069 0.46953-0.8556 0.46953-0.4591 0-0.7825-0.23998-0.7825-0.63647 0-0.38606 0.3026-0.60517 0.8138-0.62604l0.8243-0.0522z" style="white-space:pre"/>
   <path d="m1127.7 176.62h-1.6694v7.1994h1.6694z" style="white-space:pre"/>
   <path d="m1133.9 181.1c0-1.5025-1.0538-2.5146-2.5771-2.5146-1.5234 0-2.7755 0.97036-2.7755 2.6711s1.1582 2.6815 2.7442 2.6815c1.5963 0 2.2745-0.70951 2.4415-0.83472l-0.6574-0.86601c-0.2921 0.19824-0.8764 0.49039-1.5442 0.49039-0.6782 0-1.2416-0.33388-1.3146-1.0747h3.6623s0.021-0.30258 0.021-0.553zm-3.6727-0.39649c0.021-0.49039 0.3756-1.033 1.0643-1.033 0.699 0 1.0433 0.56344 1.0538 1.033z" style="white-space:pre"/>
   <path d="m1138.6 182.23c0-0.54257-0.2504-0.87645-0.4174-1.0434-0.1774-0.16695-0.4382-0.30259-0.6678-0.38606-0.2191-0.0835-0.3756-0.13564-0.7303-0.23998-0.3548-0.10434-0.7513-0.22955-0.7513-0.50083s0.2191-0.37562 0.6156-0.37562c0.4174 0 1.0017 0.27128 1.2938 0.50083l0.5426-0.98079c-0.2922-0.23998-0.8973-0.63647-1.972-0.63647s-1.9512 0.6156-1.9512 1.6173c0 0.91818 0.6365 1.2416 0.8765 1.346s0.5321 0.18781 0.7304 0.23998c0.1878 0.0626 0.939 0.22954 0.939 0.56343 0 0.33388-0.2921 0.43822-0.7095 0.43822-0.4173 0-1.106-0.27128-1.5233-0.62603l-0.6261 0.99122c0.5843 0.553 1.3982 0.79298 2.1703 0.79298 0.6886 0 1.1999-0.15651 1.5755-0.44866 0.3756-0.30258 0.6052-0.71994 0.6052-1.2521z" style="white-space:pre"/>
  </g>
 </g>
</svg>
