<svg width="800" height="236.87" version="1.0" xmlns="http://www.w3.org/2000/svg">
 <g transform="matrix(.30546 0 0 .30546 -644.09 -179.43)" fill="#0164c9">
  <path d="m2198.4 587.44h213.58l345.48 520.16h2.88l59.97-520.16h1049.9l-16.73 171.71h-313.02l-73.04 603.72h-214.1l66.2-603.72h-315.17l-72.99 603.72h-214.44l-344.42-519.64h-2.88l-60.43 519.64h-200.58z"/>
  <path d="m3906.2 587.44h412.79c49.32-0.29 98.87 3.255 147 14.435 38.19 8.8 75.51 22.14 109.76 41.33 27.05 15.17 52.08 34.11 73.31 56.77 23.87 25.29 42.73 55.25 55.45 87.61 13.06 32.91 19.91 68.09 21.97 103.38 2.45 23.01 0.51 46.16-1.5 69.12-4.38 45.91-14.64 91.37-31.78 134.24-25.21 63.61-66.43 121-119.77 163.99-30.11 24.45-63.76 44.42-99.33 59.82-61.85 26.81-128.97 40-196.09 43.64-24.66 1.48-49.37 1.02-74.06 1.09h-387.59m287.29-632.37-56.36 488.88h154.71c23.97-0.19 48.02 0.785 71.92-1.665 24.34-2.42 48.48-7.34 71.61-15.36 34.12-11.74 66.06-30.56 91.54-56.25 24.61-24.45 42.87-54.89 54.49-87.49 14.2-39.2 18.87-81.14 19.52-122.62-0.33-22.87-2.17-45.86-7.97-68.06-4.92-19.13-12.68-37.64-23.81-54.01-18.62-27.83-46.92-48.09-77.77-60.43-42.28-16.96-88.26-22.15-133.49-22.99z"/>
 </g>
</svg>
