<svg width="1361.3pt" height="294.96pt" version="1.1" viewBox="0 0 1361.3 294.96" xmlns="http://www.w3.org/2000/svg">
 <path d="m1247.2 91.002c15.96-0.05 31.93 0.03 47.89-0.03-0.04 1.28-0.05 2.56-0.04 3.84-4.07 0.29-9.27 0.6-11.5 4.58-1.65 3.58-0.08 7.53 1.28 10.93 8.59 21.09 16.66 42.4 25.44 63.42 8.16-19.26 15.58-38.83 23.57-58.16 1.71-4.76 4.83-9.83 2.71-14.98-1.43-4.55-6.75-5.48-10.86-5.78 0-1.26 0.02-2.51 0.06-3.77 11.83-0.11 23.66-0.06 35.5-0.03-0.05 1.23-0.09 2.46-0.11 3.69-8.02 2.81-13.81 9.55-17.02 17.22-7.6 17.56-14.52 35.4-21.92 53.04-5.38 13.32-11.18 26.47-15.78 40.09-1.75-0.01-3.48 0.01-5.2 0.04-12.2-30.09-24.71-60.06-36.94-90.14-2.4-5.43-4.26-11.28-8.21-15.84-2.21-2.62-5.59-3.59-8.81-4.23-0.04-1.3-0.06-2.6-0.06-3.89z" fill="#fff"/>
 <g transform="matrix(4.9629 0 0 -4.9629 147.48 293.61)" fill="#fee68e">
  <path d="m0 0c-15.943 0-28.867 13.183-28.867 29.445 0 16.261 12.924 29.444 28.867 29.444 15.944 0 28.869-13.183 28.869-29.444 0-16.262-12.925-29.445-28.869-29.445m0 59.162c-16.411 0-29.716-13.306-29.716-29.717 0-16.413 13.305-29.717 29.716-29.717 16.413 0 29.717 13.304 29.717 29.717 0 16.411-13.304 29.717-29.717 29.717" fill="#fee68e"/>
 </g>
 <g transform="matrix(4.9629 0 0 -4.9629 147.48 290.45)" fill="#fee68e">
  <path d="m0 0c-14.771 0-26.744 12.898-26.744 28.808s11.973 28.807 26.744 28.807 26.746-12.897 26.746-28.807-11.975-28.808-26.746-28.808m0 57.887c-15.241 0-27.593-13.018-27.593-29.079s12.352-29.08 27.593-29.08 27.594 13.019 27.594 29.08-12.353 29.079-27.594 29.079" fill="#fee68e"/>
 </g>
 <g transform="matrix(4.9629 0 0 -4.9629 147.48 287.29)" fill="#fee68e">
  <path d="m0 0c-13.599 0-24.621 12.612-24.621 28.171s11.022 28.169 24.621 28.169 24.622-12.61 24.622-28.169-11.023-28.171-24.622-28.171m0 56.613c-14.067 0-25.472-12.734-25.472-28.442 0-15.709 11.405-28.445 25.472-28.445s25.471 12.736 25.471 28.445c0 15.708-11.404 28.442-25.471 28.442" fill="#fee68e"/>
 </g>
 <g transform="matrix(4.9629 0 0 -4.9629 147.48 284.13)" fill="#fee68e">
  <path d="m0 0c-12.426 0-22.499 12.327-22.499 27.536 0 15.205 10.073 27.533 22.499 27.533 12.427 0 22.499-12.328 22.499-27.533 0-15.209-10.072-27.536-22.499-27.536m0 55.341c-12.896 0-23.349-12.449-23.349-27.805 0-15.357 10.453-27.808 23.349-27.808 12.897 0 23.35 12.451 23.35 27.808 0 15.356-10.453 27.805-23.35 27.805" fill="#fee68e"/>
 </g>
 <g transform="matrix(4.9629 0 0 -4.9629 147.48 280.96)" fill="#fee68e">
  <path d="m0 0c-11.253 0-20.378 12.041-20.378 26.896s9.125 26.899 20.378 26.899c11.254 0 20.378-12.044 20.378-26.899s-9.124-26.896-20.378-26.896m0 54.067c-11.723 0-21.226-12.165-21.226-27.171s9.503-27.17 21.226-27.17c11.724 0 21.228 12.164 21.228 27.17s-9.504 27.171-21.228 27.171" fill="#fee68e"/>
 </g>
 <g transform="translate(-27.024 -18.018)" fill="#fff">
  <g transform="matrix(4.9629 0 0 -4.9629 129.26 163.67)">
   <path d="m0 0c0.127 2.749 0.744 5.496 1.784 7.951l-1.98 1.538c-1.706-5.17-2.339-12.2-0.296-19.288l1.793 1.052c-1.004 2.768-1.441 5.71-1.301 8.747" fill="#fff"/>
  </g>
  <g transform="matrix(4.9629 0 0 -4.9629 230.42 118.91)">
   <path d="m0 0c-0.663 0.195-1.488-0.056-1.838-1.06 0 0-8.164-23.134-8.165-23.137-0.097-0.261-0.327-0.716-0.797-0.833-0.359-0.09-0.745 0.044-1.149 0.402-2e-3 2e-3 -4e-3 4e-3 -5e-3 4e-3 -0.368 0.342-0.723 0.689-1.064 1.045l-3.403-7.034c0.327-0.09 0.828-0.118 1.145-0.121 2.031-0.026 4.58 1.951 5.73 4.262 1.094-0.468 2.34-0.751 3.758-0.757l6.72 25.614c1e-3 0.011 3e-3 0.022 5e-3 0.032 0.204 0.838-0.344 1.408-0.937 1.583" fill="#fff"/>
  </g>
  <g transform="matrix(4.9629 0 0 -4.9629 192.25 120.78)">
   <path d="m0 0c0.153 0 0.312 5e-3 0.481 0.015l1.374-7.571c0.145-0.062 0.236-0.216 0.214-0.38-0.028-0.198-0.209-0.334-0.408-0.306-0.196 0.026-0.334 0.21-0.307 0.406 0.014 0.093 0.061 0.173 0.128 0.227l-0.643 3.547-0.358-0.693-1.682 9.274c-0.171 0.059-0.281 0.233-0.255 0.42 0.029 0.213 0.225 0.359 0.439 0.33 0.212-0.029 0.361-0.225 0.331-0.438-0.015-0.103-0.069-0.192-0.144-0.251l0.83-4.58zm0.669-10.347c-0.214 0.029-0.361 0.226-0.331 0.439 0.014 0.102 0.067 0.189 0.14 0.249l-0.657 3.627-0.371-0.72-2.088 11.504c-0.2 0.054-0.334 0.249-0.304 0.46 0.031 0.228 0.243 0.387 0.47 0.355s0.387-0.244 0.354-0.471c-0.014-0.108-0.072-0.201-0.151-0.265l0.847-4.671c0.116-0.034 0.292-0.073 0.519-0.104l1.752-9.651c0.172-0.06 0.284-0.234 0.257-0.421-0.03-0.214-0.225-0.363-0.437-0.331m-1.016-2.147c-0.229 0.032-0.387 0.242-0.354 0.47 0.016 0.116 0.078 0.213 0.165 0.276l-0.674 3.719-0.364-0.704-2.608 14.377c-0.198 0.055-0.332 0.25-0.303 0.459 0.033 0.228 0.243 0.386 0.472 0.356 0.226-0.033 0.385-0.242 0.354-0.472-0.016-0.11-0.074-0.203-0.155-0.267l0.94-5.182c0.176-0.063 0.348-0.119 0.52-0.168l2.188-12.055c0.192-0.061 0.318-0.251 0.289-0.456-0.033-0.227-0.243-0.385-0.47-0.353m-1.01-2.107c-0.243 0.032-0.412 0.259-0.377 0.501 0.017 0.128 0.088 0.236 0.188 0.305l-0.688 3.785-0.366-0.709-3.231 17.802c-0.218 0.054-0.365 0.266-0.333 0.492 0.034 0.244 0.259 0.413 0.501 0.379 0.243-0.035 0.412-0.258 0.378-0.5-0.017-0.126-0.084-0.231-0.177-0.298l1.078-5.939c0.181-0.098 0.365-0.192 0.545-0.277l2.663-14.674c0.212-0.06 0.352-0.268 0.32-0.49-0.034-0.243-0.257-0.412-0.501-0.377m-1.015-2.099c-0.259 0.038-0.44 0.277-0.403 0.535 0.021 0.14 0.102 0.259 0.211 0.329l-0.696 3.84-0.366-0.71-3.949 21.756c-0.236 0.054-0.398 0.28-0.363 0.524 0.036 0.259 0.275 0.439 0.534 0.403 0.257-0.036 0.437-0.276 0.4-0.534-0.018-0.137-0.095-0.252-0.202-0.325l1.258-6.934c0.188-0.131 0.375-0.257 0.566-0.379l3.189-17.577c0.232-0.059 0.388-0.283 0.354-0.524-0.038-0.259-0.276-0.44-0.533-0.404m8.635 23.351c-3.384 1.302-5.582-0.323-8.383 0.571-2.178 0.696-4.843 3.922-5.735 5.34-0.647 1.028-1.144 0.675-1.367 0.403-0.377-0.458-2.21-2.549-2.449-4.849 0.427-0.692 0.972-1.433 1.605-2.173-0.78-1.132-1.577-2.664-2.256-4.513l1.959-1.801-5e-3 4e-3c0.105-0.082 0.143-0.226 0.088-0.35-1.067-2.442-1.698-5.191-1.827-7.953-0.141-3.041 0.313-5.984 1.349-8.745 0.049-0.131 0-0.279-0.119-0.352l-1.676-1.284c0.652-2.035 1.528-4.115 2.671-6.216l-2e-3 -7e-3c0.026-0.043 0.051-0.085 0.074-0.127 0.016-0.028 0.031-0.055 0.047-0.084 0.369-0.684 0.452-1.347 0.409-2.002-0.038-0.583 0.143-1.202 0.546-1.651l3.078 6.365c-1.561 1.707-2.808 3.562-3.712 5.54-1.071 2.336-1.654 4.801-1.732 7.326-0.075 2.4 0.325 4.844 1.158 7.07 0.739 1.981 1.82 3.787 3.134 5.257l3.677-20.266c0.242-0.064 0.402-0.298 0.368-0.55-0.04-0.275-0.291-0.464-0.566-0.426-0.272 0.039-0.462 0.289-0.423 0.565 0.021 0.158 0.117 0.291 0.248 0.366l-0.709 3.906-3.041-5.885c0.951-1.409 2.1-2.739 3.434-3.972 0.179-0.159 0.437-0.335 0.65-0.28 0.163 0.041 0.319 0.223 0.416 0.487 0 0 6.739 19.101 7.971 22.59 2e-3 7e-3 4e-3 0.014 8e-3 0.023 0.276 0.793-0.081 1.383-0.557 1.615-0.432 0.211-1.097 0.197-1.606-0.497l-1.488-2.878-1.327 7.311c-0.15 0.061-0.245 0.216-0.222 0.384 0.028 0.198 0.21 0.335 0.408 0.308 0.197-0.029 0.334-0.21 0.306-0.409-0.012-0.089-0.057-0.167-0.122-0.222l0.81-4.462c1.335 0.298 1.879 1.12 2.745 1.133 0.261-3e-3 0.515-0.067 0.736-0.175 0.355-0.174 0.676-0.497 0.842-0.925 0.563 0.777 1.458 0.951 2.17 0.742 0.402-0.12 0.777-0.368 1.032-0.716 0.674 1.736 0.356 5.318-2.615 6.464" fill="#fff"/>
  </g>
 </g>
 <path d="m368.34 147.21c0 34.787 10.982 52.584 31.796 52.584 20.642 0 31.624-17.797 31.624-52.412 0-34.8-10.982-52.438-31.624-52.438s-31.796 17.638-31.796 52.266m87.225 0.3308c0 36.11-21.806 59.08-55.428 59.08s-55.6-22.971-55.6-59.239c0-36.11 21.978-59.094 55.6-59.094s55.428 22.984 55.428 59.252" fill="#fff"/>
 <path d="m486.86 89.959c6.1528 0 10.982 4.9752 10.982 11.472 0 6.6689-4.4724 11.326-11.3 11.326-6.6689 0-10.996-4.4988-10.996-11.326 0-6.4969 4.6576-11.472 11.313-11.472m19.491 110.01v3.9828h-39.802v-3.9828c7.4892-0.66159 9.8181-2.8184 9.8181-9.4873v-48.085c0-5.5045-3.1492-8.3228-9.8181-8.3228v-4.0093c9.6725-1.1512 19.808-2.8316 30.301-5.1604v61.753c0 9.1565 0.83361 12.822 9.5005 13.311" fill="#fff"/>
 <path d="m562.59 124.91c6.9864 0 11.34 3.824 11.34 10.149 0 6.1661-3.5197 9.646-9.0109 9.646-4.8429 0-7.3172-5.1604-11.644-5.1604-2.6728 0-6.1793 2.1833-8.8257 6.3381v40.767c0 9.4873 1.1644 12.835 10.81 13.338v3.9696h-41.098v-3.9696c7.476-0.68807 9.8181-2.8316 9.8181-9.5005v-48.098c0-5.5045-3.1757-8.3229-9.8181-8.3229v-3.996c9.1432-1.0056 19.292-2.6596 30.447-5.1604v13.152c5.994-8.9977 11.168-13.152 17.982-13.152" fill="#fff"/>
 <path d="m626.51 151.71v-1.8392c0-11.816-4.8296-18.472-12.65-18.472-8.1641 0-13.973 7.4892-14.317 20.311h26.967zm-13.642 54.595c-18.644 0-31.796-15.151-31.796-40.119 0-25.141 14.476-41.27 33.45-41.27 19.477 0 30.645 11.962 31.796 34.125h-46.92c0.14555 20.801 9.6328 32.445 23.288 32.445 7.82 0 14.806-4.3401 21.965-13.152l3.1624 2.5141c-7.82 16.963-19.477 25.458-34.945 25.458" fill="#fff"/>
 <path d="m674.28 181.84c0 7.4892 4.3268 12.147 11.154 12.147 5.1604 0 10.149-2.6728 15.825-7.6613v-24.797c-18.485 4.4856-26.98 9.9901-26.98 20.311m46.272 8.9844c0 3.3212 0.50281 4.6576 2.3288 4.6576 1.5084 0 2.9904-1.1512 5.3324-3.1492l2.5008 3.308c-7.3305 6.8277-12.994 10.665-18.975 10.665-6.3116 0-9.8313-3.8372-10.48-11.657-9.5005 7.5025-17.321 11.657-26.477 11.657-12.16 0-19.98-8.0053-19.98-19.98 0-18.3 14.489-23.473 46.457-31.783v-10.162c0-8.9977-4.0225-13.152-13.166-13.152-6.9864 0-10.149 2.8448-10.652 8.9977-0.50281 5.822-0.99239 10.493-8.9712 10.493-5.0149 0-8.5081-3.3344-8.5081-8.6669 0-9.474 11.3-17.135 29.467-17.135 21.475 0 31.121 8.1508 31.121 26.133v39.775z" fill="#fff"/>
 <path d="m804.95 181c-8.1376 16.818-19.636 25.299-35.104 25.299-19.649 0-32.127-14.33-32.127-37.446 0-25.802 16.474-43.943 37.287-43.943 14.965 0 25.114 7.9788 25.114 16.99 0 5.306-3.8108 9.1432-9.474 9.1432-5.994 0-8.0053-2.8316-10.321-9.1432-2.342-6.1793-3.996-9.8181-10.321-9.8181-9.9901 0-15.495 8.6404-15.495 25.101 0 21.489 10.175 34.469 24.32 34.469 8.4816 0 15.64-4.4988 22.799-13.311l3.3212 2.6596z" fill="#fff"/>
 <path d="m811.11 199.98c7.4892-0.67483 9.8181-2.8316 9.8181-9.4873v-84.234c0-5.478-3.1492-8.3229-9.8181-8.3229v-3.8108c9.1565-1.0056 19.147-2.8448 29.626-5.3324v45.438c9.1565-6.1661 16.818-9.6593 25.471-9.6593 13.642 0 21.806 7.82 21.806 21.806v40.291c0 9.3285 1.1512 12.808 9.474 13.311v3.9828h-39.272v-3.9828c7.3305-0.50281 10.149-2.9904 10.149-9.4873v-42.62c0-9.1432-2.8184-12.65-10.982-12.65-5.994 0-11.326 2.3288-16.804 6.8276v47.608c0 7.1585 2.6728 9.9901 9.4873 10.321v3.9828h-38.955v-3.9828z" fill="#fff"/>
 <path d="m903.67 136.38v-5.8088c12.808-3.6652 20.298-12.994 24.783-29.295h5.9808v25.789h17.003v8.4949h-17.003v46.1c0 7.82 1.6805 11.326 6.5101 11.326 2.5009 0 5.9808-2.3288 10.136-6.9864l3.0168 2.3156c-5.6632 11.988-13.483 17.81-23.315 17.81-11.816 0-16.632-6.8277-16.632-21.462v-48.283h-10.48z" fill="#fff"/>
 <path d="m978.9 181.84c0 7.4892 4.3268 12.147 11.141 12.147 5.1736 0 10.162-2.6728 15.825-7.6613v-24.797c-18.472 4.4856-26.967 9.9901-26.967 20.311m46.272 8.9844c0 3.3212 0.5028 4.6576 2.3156 4.6576 1.5217 0 3.0036-1.1512 5.3325-3.1492l2.5008 3.308c-7.3305 6.8277-12.994 10.665-18.961 10.665-6.3381 0-9.8313-3.8372-10.493-11.657-9.5005 7.5025-17.321 11.657-26.464 11.657-12.173 0-19.993-8.0053-19.993-19.98 0-18.3 14.502-23.473 46.457-31.783v-10.162c0-8.9977-3.996-13.152-13.166-13.152-6.9732 0-10.136 2.8448-10.638 8.9977-0.5028 5.822-0.9924 10.493-8.9844 10.493-5.0017 0-8.5081-3.3344-8.5081-8.6669 0-9.474 11.326-17.135 29.481-17.135 21.462 0 31.121 8.1508 31.121 26.133v39.775z" fill="#fff"/>
 <path d="m1093.1 124.4v26.477h-4.168c-3.652-12.98-10.969-19.808-20.298-19.808-7.6612 0-11.816 3.824-11.816 9.3152 0 7.1717 6.338 9.6593 16.487 14.661 15.468 7.648 23.46 14.132 23.46 27.112 0 15.005-9.474 23.976-24.796 23.976-11.154 0-17.479-3.9828-19.808-3.9828-2.6728 0-4.1548 1.1512-5.65 4.1548h-3.996v-27.972h3.996c5.8221 14.145 14.145 21.303 24.135 21.303 7.3172 0 11.631-3.996 11.631-10.308 0-8.9844-9.6328-11.154-20.456-17.638-11.657-6.9997-18.313-11.988-18.313-23.817 0-13.801 9.1432-22.957 23.301-22.957 9.4873 0 16.156 3.4932 18.816 3.4932 1.8128 0 2.9904-1.1644 3.8108-4.0093h3.6652z" fill="#fff"/>
 <path d="m1240.7 90.982 2.5043 28.673h-4.6773c-3.9882-16.006-10.666-21.001-26.168-21.001h-9.6592v87.675c0 10.666 2.491 13.82 13.833 13.82v3.8292h-50.668v-3.8292c11.156 0 13.661-3.1535 13.661-13.82v-87.675h-9.6724c-15.489 0-22.167 4.9952-26.169 21.001h-4.4917l2.491-28.673h99.016z" fill="#fff"/>
</svg>
