<svg width="800" height="157.1" version="1.1" viewBox="0 0 800 157.1" xmlns="http://www.w3.org/2000/svg">
 <g transform="matrix(.7816 0 0 .7816 0 -1.6318e-6)" fill="#f06">
  <path d="m817.53 0c12.321 0 22.868 2.2646 32.718 6.669 8.9491 4.0215 17.1 9.719 24.778 15.801l-9.19 11.64c-6.9303-5.9814-14.555-11.564-22.938-15.339-8.4766-3.5557-16.213-5.3156-25.368-5.2765-9.3407 0.07328-18.554 2.4708-26.484 7.5151-12.29 7.63-20.98 19.96-26.57 33.09-8.7229 20.837-9.7657 35.826-9.99 58.77 5.99-8.89 12.59-17.7 21.64-23.69 11.48-8.21 25.82-11.78 39.83-11.47 15.219-0.15003 29.373 4.1788 42.644 13.821 14.27 10.276 23.296 26.349 23.296 45.479 0 17.891-6.5612 32.816-18.215 44.548-14.785 14.135-30.877 19.442-50.675 19.442-12.381 0.0319-24.341-3.5558-33.266-8.2999-11.639-6.3059-21.552-15.82-28.044-27.39-7.52-13.49-10.62-28.97-11.43-44.26-0.0946-23.994 0.13557-47.896 9.5917-69.824 8.7248-17.717 17.807-31.857 33.468-41.319 11.256-6.6216 21.762-9.9064 34.204-9.9064zm-34.581 99.881c-9.2389 6.0938-16.589 15.091-20.383 25.489-3.5588 13.282-2.3032 22.537 1.8558 32.513 4.8612 9.945 12.927 18.117 22.614 23.177 7.9434 4.1706 17.029 6.3903 25.97 6.6422 15.416 0.27384 30.403-5.0522 40.043-15.465 8.9306-9.5112 13.594-22.799 13.465-35.227 0-15.198-7.0459-26.583-16.424-34.383-10.655-8.5747-22.49-11.852-34.134-11.852-12.15 0-22.948 2.549-33.007 9.105z"/>
  <path d="m606.33 3.445h121.13v10.905l-64.69 74.28c7.6574 0.32057 14.973 1.5608 21.411 3.5747 12.609 3.5177 23.096 8.0188 32.029 16.625 9.46 8.64 14.35 21.437 14.29 34.19 0 21.45-7.114 31.977-18.201 41.724-14.035 11.769-27.45 16.256-45.672 16.256-11.314 0-23.366-2.3452-32.439-5.9682-14.335-6.2508-29.492-15.593-37.978-29.052l10.92-9.37c10.046 12.213 19.909 20.583 33.523 25.998 9.1286 2.98 17.412 5.1477 25.974 5.1477 12.793 0.0791 25.774-4.2362 35.413-12.726 8.8694-8.8694 13.736-18.497 13.226-32.01 0-9.1476-3.4188-16.339-8.8771-22.727-6.728-7.8076-16.853-12.413-26.719-14.983-10.848-3.1605-21.241-2.8643-33.386-2.8643l-4.4627-9.7192 64.748-75.101h-100.24z"/>
  <path d="m906.15 3.445h108.62v14.52h-96.165l-4.36 71.745c14.06-7.22 29.91-11.03 45.75-10.28 18.328 0.3906 36.86 7.39 49.48 20.92 9.72 10.26 14.28 24.631 14.06 38.63 0 17.598-6 31.92-17.43 43.04-14.467 12.539-28.392 18.98-49.328 18.98-13.825 0-25.611-3.2418-35.172-7.6-12.7-5.61-23.87-14.2-33.68-23.93 3.63-3.32 6.92-6.99 10.58-10.3 8.7937 8.5585 18.738 16.49 29.885 21.765 9.517 4.1609 17.733 6.784 28.387 6.784 16.186 0 28.426-5.3481 38.281-15.654 8.345-8.7807 13.047-21.021 13.219-33.086 0-10.96-3.3137-20.304-9.7368-28.125-11.741-12.599-23.632-16.942-38.786-17.999-18.724 0-32.208 2.9698-47.852 12.224l-11.739-7.2092z"/>
 </g>
 <g transform="matrix(.7816 0 0 .7816 0 -1.6318e-6)" fill="#fff">
  <path d="m0 103.27v91.49h36.344c16.655 0 29.759-4.2694 39.313-12.808 9.5544-8.6262 14.331-19.824 14.331-33.591 0-13.331-4.7769-24.179-14.331-32.544-9.5544-8.3648-22.659-12.547-39.313-12.547zm28.228 27.651 39.802 20.06-39.802 20.061z" stroke-width="3.2773" style="white-space:pre"/>
  <path d="m502.5 103.27v91.49h36.344c16.654 0 29.759-4.2694 39.313-12.808 9.5544-8.6262 14.331-19.824 14.331-33.591 0-13.331-4.7769-24.179-14.331-32.544-9.5544-8.3648-22.659-12.547-39.313-12.547zm28.228 27.651 39.802 20.06-39.802 20.061z" stroke-width="3.2773" style="white-space:pre"/>
  <path d="m440.99 1.7827a49.714 47.725 0 0 0-49.714 47.726 49.714 47.725 0 0 0 49.714 47.726 49.714 47.725 0 0 0 49.714-47.726 49.714 47.725 0 0 0-49.714-47.726zm0 27.255a19.24 20.402 0 0 1 19.241 20.401 19.24 20.402 0 0 1-19.241 20.401 19.24 20.402 0 0 1-19.241-20.401 19.24 20.402 0 0 1 19.241-20.401z" stop-color="#000000" stroke-miterlimit="10" stroke-opacity=".39216" stroke-width=".2352" style="-inkscape-stroke:none;paint-order:stroke fill markers"/>
  <path d="m184.73 103.27v91.49h30.201v-43.825l20.785 31.55 20.786-31.55v43.825l30.199-1e-5v-91.49l-31.5 2.6e-4 -19.485 31.515-19.485-31.515z"/>
  <path d="m498.7 3.56h29.015l31.97 39.581v-39.581h30.05v91.49h-28.272l-32.712-40.669v40.669h-30.05z"/>
  <path d="m329.44 103.27-37.991 91.49h32.641l4.4399-11.899h31.77l4.44 11.899h32.641l-37.991-91.49zm14.975 36.872 7.7856 20.635h-15.571z"/>
  <path d="m401.38 103.27h29.015l31.97 39.581v-39.581h30.05v91.49h-28.272l-32.712-40.669v40.669h-30.05z"/>
  <path d="m97.92 103.27h77.93v25.616h-47.495v8.635h44.205v22.505h-44.205v9.565h47.97v25.169h-78.405z"/>
 </g>
</svg>
