<svg width="564.64" height="800" version="1.0" viewBox="0 0 564.64 800" xmlns="http://www.w3.org/2000/svg">
 <g transform="matrix(6.3704 0 0 6.3704 -4.3481 -16.454)" fill="#ed802f">
  <path d="m43.11 90.702c0.07849-0.04712 0.528-0.1373 0.99892-0.20039 5.8654-0.78583 11.393-2.8593 15.935-5.9776 3.4396-2.3613 7.4289-6.3815 9.7002-9.7752 2.5405-3.7959 4.0878-8.1736 4.8252-13.652 0.21785-1.6183 0.24789-7.1561 0.04747-8.7524-0.40196-3.2016-1.2338-6.0019-2.5445-8.5654-0.5229-1.0227-1.3687-2.4115-1.4308-2.3494-0.01893 0.01894 0.0079 0.18143 0.05969 0.3611 0.16638 0.57754 0.56212 2.6724 0.7177 3.7991 0.23854 1.7277 0.28836 6.0379 0.09346 8.0865-0.56791 5.9692-2.3816 11.617-5.2818 16.448-1.5386 2.5627-3.0449 4.4884-5.1835 6.6271-2.1337 2.1337-4.0484 3.6322-6.6271 5.1866-10.301 6.2094-22.218 6.7934-32.62 1.5986-4.7991-2.3966-9.0004-6.1557-12.753-11.411-0.85348-1.1951-2.8002-4.3539-2.7278-4.4262 0.022918-0.02291 0.48629 0.48367 1.0297 1.1257 4.8654 5.7485 10.567 9.7262 16.861 11.764 10.075 3.2611 20.433 0.92943 29.122-6.5561 5.4794-4.72 9.0535-11.518 10.102-19.214 0.20048-1.4717 0.23025-5.0527 0.05299-6.374-0.73225-5.4586-3.008-9.2421-6.6624-11.077-1.8591-0.93324-3.8045-1.3381-6.0846-1.2664-2.256 0.07102-3.5576 0.49758-5.4285 1.779-1.6833 1.1529-2.6897 2.2386-4.5742 4.9344-0.58833 0.84163-1.3477 1.856-1.6874 2.2542-1.9945 2.3375-5.4218 3.8427-7.9186 3.4776-0.78624-0.11496-1.6279-0.35757-1.6229-0.4678 0.0016-0.03433 0.26149-0.21056 0.57761-0.39164 1.2188-0.69812 2.7052-2.4963 3.3081-4.0018 0.41915-1.0468 0.61795-1.8552 1.1514-4.6821 0.89104-4.7217 1.6506-7.0806 3.1478-9.7762 3.3752-6.0764 9.0071-10.389 15.459-11.838 2.0511-0.46051 3.1494-0.56889 5.7497-0.56738 2.5919 0.0015 3.8549 0.11866 6.0457 0.56075 6.2314 1.2575 11.899 4.6776 16.091 9.7094 4.1938 5.0347 6.9271 11.551 7.7392 18.451 0.17337 1.4731 0.22412 4.5682 0.09921 6.0498-0.52398 6.2147-3.2588 13.863-6.8854 19.255-0.24595 0.36571-0.44718 0.62214-0.44718 0.56985s0.2303-0.694 0.51178-1.426c1.4583-3.7925 2.3122-7.1602 2.7861-10.988 0.23291-1.8813 0.23408-6.5386 0.0021-8.2861-0.83851-6.316-3.4741-11.912-7.6698-16.286-0.49356-0.51447-0.97663-0.97781-1.0735-1.0296-0.12406-0.0664 0.0041 0.26574 0.43351 1.1238 5.0903 10.171 6.0596 20.749 2.8665 31.283-1.9657 6.485-5.1392 11.695-9.7192 15.956-5.3248 4.954-11.711 7.819-19.58 8.7843-1.3873 0.17019-7.2341 0.29825-6.9924 0.15315z"/>
  <path d="m29.03 76.512c-9.0387-0.71893-16.285-4.8511-21.664-12.353-1.2884-1.7971-3.0066-5.0006-3.8613-7.199-2.2669-5.831-2.9815-11.99-2.0588-17.743 0.41038-2.5588 1.4219-6.1367 2.5149-8.8951 0.52421-1.3231 1.9001-4.2053 2.62-5.4885 0.5715-1.0186 1.8135-2.9539 1.8636-2.9039 0.01857 0.01857-0.24651 0.77887-0.58907 1.6895-1.4607 3.8832-2.3194 7.3498-2.7209 10.984-0.19526 1.7674-0.16674 6.5262 0.048719 8.134 0.45795 3.4173 1.2823 6.1467 2.7736 9.1832 0.79899 1.6269 2.1902 3.8385 3.23 5.1346 0.72121 0.89903 2.2721 2.5576 2.6294 2.8121 0.27462 0.19554 0.2548 0.13673-0.38245-1.1354-4.3344-8.6523-5.6762-17.908-3.8979-26.888 1.825-9.2154 6.0775-16.582 12.597-21.821 5.2533-4.2218 11.294-6.5962 18.543-7.2885 1.4331-0.13687 6.3368-0.20979 6.2195-0.092486-0.02864 0.028642-0.60301 0.13729-1.2764 0.24143-9.0642 1.4019-15.962 4.9764-21.782 11.288-3.5712 3.8725-5.5543 7.1566-6.9665 11.537-2.1657 6.7169-2.258 14.877-0.23522 20.787 0.61154 1.7867 2.4182 5.3751 2.7062 5.3751 0.03463 0 0.0023-0.22476-0.07193-0.49946-0.56992-2.11-0.8978-5.0562-0.89809-8.0698-3.24e-4 -3.2697 0.25822-5.7172 0.91762-8.6868 2.0384-9.1796 7.0317-16.855 14.231-21.874 5.1852-3.6152 11.243-5.8418 17.278-6.3506 1.6776-0.14143 5.023-0.068872 6.677 0.14482 5.7975 0.74903 11.349 2.9927 15.566 6.2913 3.7657 2.9455 7.0246 6.6908 9.7317 11.184 0.53659 0.89065 0.95644 1.6385 0.933 1.662-0.02343 0.02343-0.44256-0.44034-0.93138-1.0306-1.0583-1.2779-3.9757-4.2222-5.1781-5.2259-5.204-4.3439-10.608-6.8765-16.646-7.8012-1.6159-0.24749-4.9096-0.33886-6.5812-0.18256-6.0974 0.5701-11.96 3.1135-17.222 7.4713-3.9393 3.2624-6.9189 7.4915-8.7835 12.467-2.261 6.0334-2.6137 12.49-0.95415 17.467 1.7403 5.2184 5.5658 8.1891 10.849 8.4244 2.7967 0.12457 4.6989-0.47036 7.0032-2.1903 1.3907-1.0381 2.5005-2.3252 4.4102-5.1152 2.1579-3.1525 4.9725-4.9788 7.9976-5.1894 0.83894-0.0584 2.1581 0.13469 2.638 0.38611 0.22145 0.11602 0.21383 0.12597-0.37522 0.48952-0.74563 0.46019-1.9115 1.6065-2.4527 2.4115-0.93176 1.3861-1.3062 2.5344-1.9581 6.0051-0.72831 3.8775-1.2085 5.6574-2.1007 7.787-1.7526 4.1832-4.9217 8.091-8.6454 10.661-2.9463 2.0331-6.4978 3.3685-10.263 3.859-1.3862 0.18057-4.1357 0.25457-5.4815 0.14752z"/>
  <path d="m39.757 50.438c-0.73998-0.18192-1.3188-0.43049-1.8125-0.7784l-0.26583-0.18732 0.75739-0.26226c0.41657-0.14424 0.9643-0.38328 1.2172-0.53119 0.54121-0.31656 2.3161-2.0147 3.0287-2.8979 1.6624-2.0601 2.8185-2.7954 4.8128-3.0609 1.4757-0.19648 3.3048 0.14528 4.3672 0.81599 0.44282 0.27957 0.49384 0.3394 0.33297 0.39058-1.6421 0.52236-2.2815 0.95045-3.7575 2.5154-2.6137 2.7712-3.1486 3.2741-3.8297 3.6001-0.35346 0.16922-0.91 0.3707-1.2368 0.44774-0.85788 0.20227-2.6867 0.17598-3.6139-0.05196z"/>
 </g>
 <g transform="matrix(.62102 0 0 .62102 -.000303 -.001089)">
  <g transform="translate(0 -318.98)" stroke-width="3.7801">
   <path d="m117.43 1566.7c1.8145 0.6048 3.9313 0.756 6.5018 0.756 5.141 0 10.584-1.0585 15.877-3.7802 7.8627-3.7801 16.028-12.399 16.028-26.31 0-9.9796-4.385-16.481-9.3747-20.413-5.897-4.6874-14.969-5.7458-20.11-5.7458-8.9211 0-15.423 0.3024-24.495 0.3024-7.1066 0-15.423-0.4537-17.842-0.4537-0.45362 0.4537-0.90724 3.4778-0.30241 4.2338 3.0241 0.3024 5.4434 0.756 7.4091 1.2096 4.2338 0.9073 5.141 2.7217 5.4434 8.0139 0.30241 4.6874 0.1512 14.969 0.1512 32.358 0 16.33-0.1512 28.729-0.45362 33.87-0.30241 6.0482-1.0584 7.7115-4.6874 8.7699-1.8145 0.4537-4.8386 0.7561-8.0139 1.2097-0.45362 0.4536-0.45362 3.6289 0.15121 4.2337 3.4777 0 12.852-0.4536 19.808-0.4536 5.897 0 16.481 0.4536 20.866 0.4536 0.45361-0.4536 0.75603-3.7801 0.15121-4.3849-3.6289-0.4536-6.8042-0.7561-9.0723-1.3609-4.2338-1.0584-5.141-2.2681-5.5946-7.7115-0.30241-7.7114-0.15121-19.203-0.15121-36.44 0-24.495 0.15121-32.358 0.30242-35.836 0.1512-1.0584 0.75602-1.8144 1.2096-2.1168 1.0584-0.6049 4.8386-0.7561 6.3506-0.7561 17.237 0 24.193 10.131 24.193 24.042 0 8.6187-2.2681 15.574-9.2235 19.506-3.0241 1.5121-6.0482 2.2681-10.584 2.2681-2.2681 0-4.5362-0.1512-5.897-0.4536-0.30241 0.1512-0.60482 0.756-0.60482 1.3608 0.15121 0.7561 1.0584 3.0241 1.9657 3.629z" style="white-space:pre"/>
   <path d="m159.53 1510.9c2.7217 0.3025 5.4434 0.6049 7.2579 1.0585 2.1169 0.4536 2.5705 1.8144 2.8729 4.0825 0.45362 5.5946 0.45362 15.272 0.45362 51.864 0 3.4777-0.15121 21.471-0.30241 25.1-0.15121 4.2338-0.75603 5.5946-3.3265 6.5018-1.3608 0.4537-2.8729 0.7561-5.4434 1.0585-0.60482 0.6048-0.60482 3.7801 0 4.3849 2.5705 0 6.8042-0.4536 14.516-0.4536 8.7699 0 13.911 0.4536 15.877 0.4536 0.60482-0.6048 0.90723-3.7801 0.15121-4.3849-2.7217-0.3024-3.9314-0.6048-5.7458-0.9073-3.1753-1.0584-3.6289-2.268-3.9313-7.1066-0.30241-4.2338-0.30241-23.134-0.30241-33.568 0-0.9073 0.60482-2.7217 1.8145-3.629 3.4777-2.5704 8.0139-4.0825 11.794-4.0825 9.8284 0 13.306 6.8042 14.062 10.887 1.0584 6.9554 0.75603 22.076 0.60483 29.485-0.15121 6.0482-0.75603 7.1066-3.0241 7.8626-1.5121 0.4537-3.6289 0.7561-6.0482 1.0585-0.45362 0.6048-0.45362 3.7801 0.1512 4.3849 1.9657-0.1512 8.4675-0.4536 14.365-0.4536 6.653 0 12.55 0.4536 15.121 0.4536 0.75603-0.3024 1.0584-3.9313 0.60482-4.3849-3.0241-0.4536-5.2922-0.6048-7.4091-1.8145-1.2096-0.756-1.9657-1.9657-1.9657-3.7801-0.1512-6.6531-0.1512-19.808-0.1512-28.124 0-14.818-6.8042-24.193-18.749-24.193-5.4434 0-12.701 3.0241-20.564 9.0723-0.30241 0.1512-0.75603 0.1512-0.75603-0.1512 0-4.2337 0-23.89 0.15121-33.265 0.1512-10.282 0.45361-11.794 1.6633-14.213 0-0.4536-0.60483-1.9657-1.0584-2.1169-4.6874 2.1169-13.608 4.2338-22.681 4.9898-0.60482 0.3024-0.75603 3.4777 0 3.9313z" style="white-space:pre"/>
   <path d="m267.94 1542.6c-7.1066 0-14.365 2.5705-19.808 6.0482-7.7115 5.2922-13.155 13.306-13.155 25.251 0 15.574 8.0139 32.358 30.09 32.358 6.3506 0 13.457-2.8729 17.54-5.5946 9.3747-5.897 14.062-16.028 14.062-27.671 0-16.935-10.584-30.392-28.729-30.392zm-5.141 5.897c12.852 0 21.018 11.794 21.018 29.334 0 9.2235-1.6633 15.272-5.7458 19.052-2.5705 2.4193-6.0482 3.1754-9.2235 3.1754-12.096 0-21.018-12.096-21.018-29.939 0-11.492 3.7801-16.935 7.7115-19.506 1.9657-1.3609 4.8386-2.1169 7.2579-2.1169z" style="white-space:pre"/>
   <path d="m358.88 1589.9c-5.5946 4.5362-11.189 6.3506-17.237 6.3506-6.8042 0-11.945-1.9656-16.481-6.653-3.6289-3.9314-5.897-10.282-6.1994-15.423 0-0.756 0.30241-1.512 0.90723-1.6632 12.701-0.3024 33.265-1.5121 39.616-3.3266 0.45362-0.3024 1.3608-2.8729 1.2096-3.4777-1.5121-0.4536-2.1169-1.0584-2.2681-1.6632-1.2096-8.4675-6.5018-21.471-21.169-21.471-4.8386 0-11.643 1.9657-16.33 4.9898-7.7115 5.141-13.306 14.062-13.306 27.368 0 8.6187 2.4193 17.842 8.6187 24.042 4.5362 4.6874 10.584 7.2579 18.447 7.2579 6.9554 0 17.389-3.7802 24.042-11.34 0.30241-0.4536 0.90723-3.0241 0.75602-4.0826-0.1512-0.4536-0.45361-0.756-0.60482-0.9072zm-26.31-41.582c8.1651 0 13.155 8.6187 13.911 16.179 0 0.6048-0.45361 1.0584-0.75602 1.3608-3.0241 0.6048-20.866 1.2097-25.705 0.9073-0.45362 0-0.75603-0.7561-0.75603-1.0585 0.75603-10.736 6.0482-17.389 13.306-17.389z" style="white-space:pre"/>
   <path d="m366.24 1600.5c-0.60482 0.6048-0.60482 3.7801 0 4.3849 1.8145 0 7.2579-0.4536 14.667-0.4536 8.3163 0 12.55 0.4536 14.818 0.4536 0.60483-0.756 0.75603-3.7801 0.45362-4.3849-2.4193-0.3024-4.6874-0.6048-6.3506-1.2097-2.1169-0.6048-2.7217-1.6632-2.8729-5.141-0.30241-6.9554-0.30241-21.622-0.30241-32.358 0-3.1753 0.60482-4.5362 1.512-5.4434 3.4777-3.0241 8.1651-4.8386 12.55-4.8386 4.385 0 7.2579 1.5121 9.3747 3.4777 2.8729 2.4193 3.9313 6.5019 4.2338 8.9212 0.75602 5.5946 0.60482 20.866 0.45361 29.334-0.1512 3.9314-0.60482 5.4434-2.7217 6.1994-0.90723 0.3024-3.3265 0.7561-6.1994 1.0585-0.60482 0.6048-0.45362 3.7801 0 4.3849 3.6289-0.1512 8.0139-0.4536 14.969-0.4536 7.8627 0 12.399 0.4536 14.516 0.4536 0.75603-0.756 0.90724-3.6289 0.45362-4.3849-3.0241-0.4536-5.141-0.7561-7.5603-1.9657-1.0584-0.4536-1.5121-1.6633-1.5121-2.8729-0.30241-5.2922-0.30241-18.901-0.30241-27.368 0-7.2578-1.0584-13.306-3.9313-17.842-3.3265-4.9898-8.0139-7.8627-14.516-7.8627-5.2922 0-12.701 3.3265-20.564 9.8283-0.30241 0.1512-0.75602 0-0.75602-0.3024 0-2.5705 0.1512-6.9554 0.30241-8.6187 0-0.4536-0.45362-0.9072-0.60482-1.0584-3.7801 2.1169-12.55 4.9898-18.598 5.5946-0.60482 0.4536-1.0584 2.5705-0.75602 3.4777 5.5946 2.1169 7.4091 3.6289 7.8627 5.7458 0.15121 2.2681 0.30241 6.1994 0.30241 12.096 0 9.5259 0 20.11-0.30241 24.798-0.15121 2.5705-1.0584 4.6874-3.1753 5.2922-1.8145 0.4537-3.3265 0.7561-5.4434 1.0585z" style="white-space:pre"/>
   <path d="m463.72 1521c0-1.3608-0.60483-3.3265-1.5121-4.385-0.30241-0.4536-1.9657-1.2096-4.385-1.2096-2.7217 0-5.897 1.5121-7.2579 2.7217-0.75603 0.756-0.90723 3.4777-0.75603 4.385 0.45362 3.0241 1.6633 5.1409 3.9314 6.1994 0.90723 0.6048 6.0482 0.1512 6.8042-0.3024 1.9657-1.5121 3.1753-4.5362 3.1753-7.4091zm9.0723 79.534c-3.4777-0.4536-4.385-0.7561-6.3506-1.2097-2.2681-0.756-3.1753-2.4193-3.1753-5.141-0.15121-6.8042-0.15121-16.935-0.15121-25.251 0-9.2235 0.15121-19.657 0.15121-26.461-5.897 2.4193-15.121 4.2337-19.657 4.3849-0.60482 0.4537-1.0584 3.0241-0.60482 3.629 3.0241 1.0584 5.5946 1.9656 7.2579 3.6289 0.90723 1.0584 1.0584 2.2681 1.0584 3.1753 0 3.0241 0.1512 8.4675 0.1512 14.364 0 8.3163 0 18.296-0.30241 22.076-0.30241 3.4778-0.75602 4.6874-2.7217 5.4434-1.8145 0.6048-3.9313 1.0585-6.5018 1.3609-0.60482 0.6048-0.60482 3.9313 0 4.3849 2.5705 0 8.4675-0.4536 14.818-0.4536 7.7115 0 12.55 0.4536 15.423 0.4536 0.60482-0.4536 1.0584-3.6289 0.60482-4.3849z" style="white-space:pre"/>
   <path d="m477.28 1600.5c-0.60482 0.756-0.45362 3.7801 0.15121 4.3849 2.2681-0.1512 6.9554-0.4536 12.248-0.4536 5.4434 0 11.038 0.4536 14.062 0.4536 0.60482-0.6048 1.0584-3.6289 0.60482-4.3849-2.7217-0.4536-4.2338-0.7561-5.5946-1.2097-1.5121-0.4536-1.9657-1.9656-1.3608-3.1753 1.2096-2.4193 3.9313-6.9554 9.3747-14.969 0.15121-0.4536 0.75603-0.3024 0.90724 0 3.1753 5.141 6.9554 11.643 9.0723 15.725 0.45361 0.7561 0.75602 1.8145-0.75603 2.5705-0.90723 0.4537-2.8729 0.7561-4.8386 1.0585-0.30241 0.756-0.1512 3.7801 0.45362 4.3849 2.7217-0.1512 7.7115-0.4536 15.121-0.4536 5.7458 0 12.248 0.4536 15.272 0.4536 0.75602-0.4536 1.0584-3.6289 0.60482-4.3849-10.282-1.2097-10.584-1.8145-17.389-12.399-3.0241-4.5361-6.5018-10.584-9.3747-15.876-0.30241-0.3025-0.1512-0.9073 0-1.2097 2.8729-4.2337 6.3506-9.5259 9.8284-14.062 4.9898-6.5018 5.897-6.9554 14.365-8.3163 0.45361-0.756 0.30241-3.7801-0.30241-4.385-2.7217 0.1513-6.9555 0.4537-13.004 0.4537-4.2338 0-9.3747-0.4537-11.643-0.4537-0.60483 0.6049-0.75603 3.4778-0.30242 4.385 2.7217 0.3024 4.2338 0.6048 5.2922 0.9072 1.512 0.4537 1.8145 1.6633 1.2096 3.0241-1.0584 2.5705-4.5362 8.1651-8.6187 13.911-0.15121 0.3025-0.60482 0.3025-0.75603 0-2.8729-4.6873-6.3506-11.038-8.3163-14.818-0.45362-1.0584-0.15121-1.8145 0.75603-2.1169 0.75602-0.3024 2.8729-0.6048 4.385-0.9072 0.30241-0.9072 0.1512-3.9313-0.30242-4.385-1.9657 0.1513-6.653 0.4537-13.155 0.4537-7.1067 0-12.096-0.4537-15.574-0.4537-0.60482 0.3025-0.75603 3.629-0.60482 4.385 8.4675 0.9072 9.9796 1.5121 14.213 8.1651 2.8729 4.6874 6.8042 11.492 10.584 18.145 0.15121 0.3024 0.15121 0.9072 0 1.2096-2.5705 3.9313-8.1651 11.643-12.399 16.935-4.385 5.4434-5.141 6.1994-14.213 7.4091z" style="white-space:pre"/>
   <path d="m633.99 1535.4c0.1512 0.7561 4.0825 0.3024 4.6874-0.3024 0.1512-6.8042 1.512-17.993 2.4193-23.286-6.8042-0.4536-16.935-3.0241-29.787-3.0241s-22.681 2.5705-30.695 6.9554c-16.633 8.9211-24.042 25.251-24.042 41.582 0 31.451 18.749 49.898 52.468 49.898 9.2235 0 18.749-2.2681 23.134-3.7801 3.4777-2.1169 9.9796-13.911 11.492-20.413-0.30242-1.0584-2.8729-2.4192-3.6289-2.4192-3.9313 6.653-7.5603 11.794-11.34 14.818-3.7801 3.4777-10.131 5.141-16.633 5.141-26.915 0-40.372-20.413-40.372-44.606 0-25.554 12.55-41.733 34.475-41.733 7.2579 0 13.76 0.9072 18.749 3.3265 5.5946 2.7217 7.5603 5.7458 9.0723 17.842z" style="white-space:pre"/>
   <path d="m643.22 1515.2c5.897 0.6048 9.2235 1.3608 12.096 3.3265 3.3265 1.8145 4.0826 5.141 4.0826 7.4091-0.30241 31.753-0.75603 56.4-1.3608 64.262-0.30241 5.897-2.2681 7.8627-5.7458 8.9211-2.2681 0.6048-4.6874 1.0585-8.0139 1.3609-0.45361 0.4536-0.45361 3.9313 0 4.3849 3.1753 0 8.9211-0.4536 18.145-0.4536 8.4675 0 15.272 0.4536 18.901 0.4536 0.45362-0.6048 0.90723-3.7801 0.30241-4.3849-3.7801-0.4536-6.8042-0.7561-9.0723-1.5121-3.9313-0.9072-5.897-3.0241-6.1994-9.0723-0.45362-8.4675-0.45362-43.85-0.15121-59.424 0-0.1512 0.45362-0.3024 0.60483-0.1512 9.0723 11.34 50.654 63.355 58.668 74.847 1.8145-0.1512 8.7699-0.1512 10.433 0-0.1512-4.9897-0.30241-13.76-0.30241-20.715 0.45362-28.578 0.30241-47.932 1.2096-59.575 0.30242-4.0825 1.2096-6.8042 5.141-8.165 1.9657-0.6049 3.9313-1.0585 6.653-1.5121 0.60482-0.6048 0.60482-3.7801 0-4.2338-1.9657 0-10.887 0.4537-16.028 0.4537-9.2235 0-16.179-0.4537-20.11-0.4537-0.45362 0.4537-0.60483 3.629 0 4.2338 4.0825 0.4536 7.4091 1.0584 10.131 1.8145 4.5362 1.2096 5.4434 3.6289 5.7458 8.0139 0.75603 10.887 0.60482 39.162 0.60482 59.877-0.1512 0.1512-0.30241 0.3024-0.60482 0.1512-7.2579-8.4675-38.255-46.269-53.678-65.623-3.9313-4.9898-4.8386-6.6531-5.4434-8.1651-1.2096 0.1512-3.7801 0.1512-6.8042 0.1512-7.5603 0-15.121-0.4537-18.901-0.4537-0.60483 0.4537-0.75603 3.7802-0.30242 4.2338z" style="white-space:pre"/>
   <path d="m753.4 1515.1c3.4777 0.4536 6.0482 0.9072 8.0139 1.512 3.6289 0.9073 4.2338 2.2681 4.5362 7.7115 0.15121 2.7217 0.15121 16.179 0.15121 29.939 0 17.086 0 33.719-0.15121 36.592-0.45361 5.2922-1.512 7.2579-5.141 8.1651-2.7217 0.756-6.8042 1.0585-11.492 1.5121-0.60482 0.756-0.45361 3.9313 0.15121 4.3849 6.1994 0 13.76-0.4536 23.89-0.4536 15.725 0 26.612 0.6048 39.313 0.6048 7.5603 0 8.4675-0.756 9.3747-2.4192 2.2681-4.5362 5.5946-16.028 6.3506-20.715-0.60482-0.756-3.6289-1.8145-4.385-1.6633-1.9657 4.5362-5.141 10.584-7.5603 13.306-2.7217 3.4778-4.6874 4.8386-11.189 4.9898-6.1994 0-19.354-0.1512-22.378-0.9072-1.8145-0.6048-3.4777-2.7217-3.4777-5.7458-0.30241-7.2579-0.30241-23.286-0.30241-30.241 0-0.4536 0.45361-1.2097 0.75602-1.2097 5.5946-0.1512 18.145-0.1512 22.681 0.3024 3.4777 0.3025 4.5362 2.2681 5.141 4.385 0.60482 1.8145 0.75603 3.0241 1.2096 6.1994 0.75603 0.7561 4.385 0.6048 5.141-0.1512-0.15121-3.7801-0.30241-8.1651-0.30241-13.76 0-5.2922 0.60482-11.189 1.0584-14.213-0.60483-0.756-4.0826-0.9072-4.9898-0.4536-0.45362 2.2681-1.0584 4.3849-1.6633 6.0482-0.75603 2.4193-1.8145 4.2338-5.141 4.5362-5.4434 0.4536-17.086 0.4536-23.134 0.3024-0.45361 0-0.75602-0.6048-0.75602-1.0585 0-6.8042 0-23.588 0.1512-32.056 0-0.756 0.75603-2.5705 1.8145-2.8729 1.9657-0.1512 20.262-0.1512 23.134 0 4.9898 0.4536 6.3506 2.1169 7.5603 5.7458 0.60482 2.2681 1.2096 4.8386 1.6633 9.2235 0.45361 0.4536 4.0825 0.4536 4.6874-0.3024 0.45361-6.0482 1.512-16.179 2.7217-20.715 0-0.1512-0.45361-0.6049-0.60482-0.7561-3.1753 0.4537-11.038 0.6049-16.784 0.6049h-29.787c-8.4675 0-16.33-0.6049-20.11-0.6049-0.60482 0.7561-0.90723 3.629-0.1512 4.2338z" style="white-space:pre"/>
  </g>
  <path d="m819.58 1057.8v50.551h11.459v-6.0664h59.312v5.0566c0 2.7802 0.2781 5.0547 0.61718 5.0547 0.33903 0 3.0691-0.9375 6.0664-2.082l5.4492-2.0801v-50.434h-82.904zm11.459 12.133h59.312v20.221h-59.312z"/>
  <path d="m900.46 1050.2c-0.9995-0.4938-2.5877-2.615-3.9038-5.2137-1.2203-2.4096-2.5113-4.4828-2.8689-4.6071-0.35764-0.1247-18.691 1.5228-40.74 3.6605s-40.204 3.756-40.344 3.5962c-0.13978-0.1601-0.45321-2.7771-0.69658-5.8162l-0.44251-5.5257 7.8655-0.8898 17.749-21.832c9.7621-12.008 18.083-21.822 18.491-21.809 0.40801 0.0142 2.6638 1.5574 5.0128 3.4329l4.271 3.4102-1.3106 1.4536c-5.3131 5.8929-27.16 32.974-26.85 33.284 0.39589 0.396 52.418-4.4575 52.924-4.9375 0.54504-0.5172-1.2171-3.4988-4.3168-7.3045-1.7312-2.1254-3.0229-3.9891-2.8706-4.1415 0.6596-0.6596 7.3123 1.9436 11.965 4.6818 10.146 5.9718 14.807 11.878 14.822 18.782 9e-3 4.3254-1.7282 8.4241-4.0876 9.6441-2.2941 1.1863-2.5224 1.1928-4.668 0.1325z"/>
  <path d="m594.82 1107.4 2.696-2.3837-58.976-0.057v-111.89h59.898l-3.069 9.0992-48.067 0.3542v92.996h50.551v4.044c0 2.2243 0.0305 4.9199 0.0732 4.8936 1.3508-0.8343 9.7304-11.882 13.42-19.385 7.2508-14.746 8.7495-23.95 8.7495-53.735v-20.744h-6.7401v2.6077c0 5.6023-5.1322 23.468-5.97 25.843-0.0376 0.1069-7.8578-1.5364-8.8562-2.2341-0.0783-0.057 0.66604-2.2566 1.429-4.6598 2.8906-9.1043 4.0236-16.298 4.4305-28.128l0.39986-11.627h9.2408v9.4362h12.493c10.458 0 12.768-0.1807 14.185-1.1086 1.4182-0.92915 2.1115-0.98285 4.2858-0.3316 2.1137 0.6334 2.8602 1.3438 4.0327 3.838 1.4683 3.1236 1.4098 3.6658-0.64996 6.0272-0.6467 0.7414-3.3814 7.2624-6.0769 14.491-2.6956 7.2287-5.326 13.598-5.8454 14.154-0.82398 0.8823-0.8992 0.7965-0.59038-0.6738 0.64776-3.0841 1.9371-25.518 1.5279-26.585-0.30039-0.7828-1.3945-1.0495-4.3058-1.0495h-3.9031l0.2209 21.737c0.26086 25.673 0.51329 27.093 7.2862 41.008 4.9184 10.105 8.9734 16.503 13.821 21.807l3.339 3.6534-3.0594 4.4688c-1.6827 2.4579-3.0595 4.8145-3.0595 5.237 0 1.2477-5.3022-4.2376-8.2365-8.521-3.4904-5.095-7.1858-13.149-9.9343-21.652-1.1983-3.7071-2.4431-7.7688-2.6878-7.7512-0.20007 0.014-0.64613 0.6511-1.1841 2.6961-2.5426 9.6638-10.592 22.879-17.377 28.528-3.9904 3.3226-10.197 6.6154-14.164 7.5149l-2.022 0.4584 2.696-2.3836z"/>
  <path d="m557.41 1010v30.33h35.049v-30.33zm8.0879 6.7402h18.197v15.502h-18.197zm-12.807 30.295v40.479h20.914l0.0156-40.469-20.93-0.01zm24.939 0v40.471h20.914v-40.471zm-18.199 8.1231h6.7402v24.264h-6.7402zm24.938 0h6.7402v24.264h-6.7402z"/>
  <path d="m778.14 1051.2-2.0933 1.9554c-2.5422 2.3747-6.2217 2.7024-7.3191 0.6518-0.38378-0.7171-0.69771-3.3917-0.69771-5.9438 0-4.8785-1.2794-10.212-3.4914-14.555-0.72639-1.426-1.1294-2.784-0.8957-3.0177 0.69559-0.6958 7.6905 3.3671 11.218 6.5156l3.2793 2.927v-45.958h10.784v116.6h-10.784v-59.18z"/>
  <path d="m706.86 1106.2-3.4967-3.5407 2.4049-3.0309c7.6787-9.6777 13.745-24.945 15.611-39.288 0.52781-4.0564 0.47383-4.5285-0.47249-4.1361-2.6512 1.0991-3.3062 0.9935-4.6812-0.7545-0.79069-1.0052-1.7584-3.077-2.1504-4.6041-1.9415-7.5633-2.8097-9.8567-5.2613-13.898-1.4619-2.4096-2.5676-4.4763-2.4574-4.5928 0.4158-0.4393 9.6644 4.5873 12.689 6.896l3.1522 2.406v-49.775l10.11 3.3992v31.214c0 28.179-0.13156 31.983-1.3537 39.132-2.1098 12.341-6.9271 25.362-12.685 34.287-2.7788 4.3073-6.9722 9.8277-7.4654 9.8277-0.24613 0-2.0211-1.5933-3.9442-3.5407z"/>
  <path d="m680.93 1103.9-4.5381-2.974 2.4131-5.2357c4.9872-10.821 10.174-25.88 12.427-36.082 0.96741-4.38 0.69261-4.3262 7.1001-1.3927 2.1374 0.9784 3.6492 2.1052 3.6492 2.7196 0 2.5703-3.7094 17.211-6.1651 24.332-2.9408 8.5286-8.9122 21.729-9.7957 21.653-0.30387-0.028-2.5945-1.3852-5.0905-3.0208z"/>
  <path d="m749.18 1055.5c-3.7621 2.4778-7.2423 0.2933-8.4315-7.6205-0.9244-6.152-2.5519-10.745-5.0506-14.254-0.75509-1.0603-1.3728-2.1136-1.3728-2.3406 0-0.7565 6.3478 2.7952 10.616 5.9396l4.2126 3.1037v-45.156h11.458v111.89h-11.458c0.0461-17.405 0.0624-34.806 0.0269-51.558z"/>
  <path d="m689.84 1041.5c-1.6682-1.1103-5.2242-3.233-7.9022-4.7171l-4.8692-2.6984 2.3501-4.6667c1.2926-2.5667 2.6905-4.6667 3.1066-4.6667 0.80113 0 13.349 7.34 15.89 9.2946l1.4979 1.1525-2.8459 4.1884c-1.5652 2.3036-3.1492 4.1757-3.5199 4.1602-0.37068-0.014-2.0389-0.9367-3.7071-2.0468z"/>
  <path d="m697.93 1014.6c-1.2975-1.1218-4.6338-3.7403-7.4141-5.8187s-5.1711-3.8675-5.3128-3.9758c-0.47029-0.3592 4.9626-8.3194 5.682-8.3254 0.97839-7e-3 15.183 10.846 16.072 12.281 0.5959 0.962 0.13922 1.7579-2.6104 4.5495-1.833 1.8611-3.4958 3.3713-3.6951 3.3563-0.19929-0.014-1.4239-0.9453-2.7214-2.0672z"/>
  <path d="m149.82 1001.2-0.38867 30.367c-0.21341 16.702-0.73503 33.237-1.1582 36.742-1.2157 10.069-5.095 22.018-11.105 32.256-1.4948 2.5463-1.4783 2.5973-3.2539 5.3926 2.317 1.3877 6.9933 4.3435 8.5527 5.3086 1.3284-2.2225 0.23072 0.1116 4.1758-6.957 2.7661-4.9562 2.5936-10.894 7.2168-16.883 9.6264-12.47 3.9418-7.0123 4.3105-46.127l0.29102-30.705h28.766l-5.3984 10.738h-14.078v37.584h44.965v-37.584h-11.074c-6.0904 0-11.072-0.1325-11.072-0.2969 0-0.1641 1.0396-2.5803 2.3106-5.3691l2.3105-5.0723h26.25l0.16797 13.926c0.0921 7.6592 0.0709 20.722-0.0488 29.027-0.2418 16.816 0.66742 32.485 2.2402 38.59 2.3455 9.1055 6.7001 15.162 13.254 18.438h2e-3c6.8444 3.4199 9.3356 1.9552 6.9238-4.0723-1.2932-3.2247-1.307-6.0261-0.0645-13 0.52378-2.9393 0.85464-5.4403 0.73633-5.5586-0.11832-0.1183-1.3638 1.2934-2.7695 3.1368-1.4056 1.8432-3.0003 3.5221-3.543 3.7304-1.1854 0.4548-3.2494-1.2966-4.5938-3.8965-1.5943-3.0827-2.2104-18.356-2.2246-55.32l-0.0137-34.394h-81.686zm25.311 26.174h30.201v9.3945h-30.201zm0 16.107h30.201v9.3946h-30.201zm-8.125 22.812-0.0254 6.7442 18.889 0.01v9.3575h-15.436v6.041h15.436v10.066h-24.83v6.707h58.387v-6.7109h-25.502v-10.068h16.105v-6.039h-16.105v-9.3965h18.791v-6.711h-45.709z"/>
  <path d="m15.809 1001.2 0.27148 13.926c0.37449 19.214-0.8669 51.578-2.2324 58.189-1.8033 8.7303-6.1967 19.493-11.99 29.373l-1.8574 3.1679 8.9121 4.3946 1.2969-1.6739c2.6544-3.4254 7.9486-14.64 9.9785-21.137 3.876-12.404 4.2337-16.072 4.6777-47.984l0.40625-29.326 62.635 0.027 0.29883 37.176c0.25543 31.872 0.4675 38.168 1.4297 42.455 2.211 9.851 6.938 16.93 13.629 20.412 3.7806 1.9674 7.4175 2.2562 8.0391 0.6367 0.23207-0.6048-0.12376-2.7069-0.79101-4.6699-1.2813-3.7697-1.119-10.326 0.39258-15.943 0.38219-1.4215 0.56534-2.7118 0.4082-2.8691-0.15704-0.1571-1.5585 1.4011-3.1152 3.4629-2.0795 2.7544-3.1988 3.6933-4.2207 3.541-1.8001-0.2687-3.7887-2.9742-4.6289-6.2988-0.94054-3.7215-1.6892-35.323-1.4961-63.201l0.16406-23.658h-82.208zm17.182 14.762v4.6973h22.475c-0.69817 1.4039-2.1295 4.2815-3.0312 6.039h-17.779l0.01367 53.356 41.443 0.035-0.4375 3.8359c-0.19947 1.9325-0.55548 5.6291-0.78906 8.2129-0.57481 6.3579-1.0285 7.0605-4.5039 6.9785-2.668-0.063-8.6757-1.0632-6.9277-1.207 1.8147-0.1494 5.1055-3.0044 5.1055-5.8399 0-2.372-0.35443-3.1314-2.1758-4.664-1.7911-1.5071-7.1942-4.3282-8.2891-4.3282-0.15751 0 0.48102 1.466 1.418 3.2579 1.5814 3.0242 3.3237 10.452 2.6914 11.475-0.38334 0.6203 1.0367 6.22 1.8379 7.2461v-0.01c0.42596 0.5455 2.5173 0.8379 5.9766 0.8379 6.2701 0 8.9736-1.1165 10.281-4.2461 1.1349-2.7162 2.1952-10.296 2.7754-19.848l0.45117-7.4472h-42.482v-6.041h38.926v-5.3477l-38.928 0.014v-6.7461l36.242-0.022v-29.508h-18.725c0.95212-2.0142 1.9054-4.0275 2.8672-6.0371h17.201v-4.6973h-45.636zm8.0527 16.109h29.529v7.3828h-29.529zm0 11.41h29.529v7.3809h-29.529zm8.9141 40.43c-0.24279 0.054-0.13455 0.7633 0.1875 2.5371 0.30004 1.6526 0.47714 5.0742 0.39453 7.6036-0.09025 2.7615 0.16566 4.9783 0.64063 5.5507 0.98259 1.184 3.2034 0.618 4.7949-1.2226 2.0483-2.3687 1.5224-6.0199-1.3984-9.7071-1.4152-1.7864-3.1138-3.6927-3.7754-4.2382-0.4261-0.3512-0.69808-0.5556-0.84375-0.5235zm-15.455 0.9219c-0.28474 0.081-0.8164 0.9817-1.9492 2.9805-1.2324 2.1745-4.1021 5.4931-6.8789 7.955-4.7868 4.2438-5.7507 6.1869-3.959 7.9786 1.1545 1.1546 5.045 0.9924 7.2344-0.3008 1.0297-0.6083 2.3268-2.057 2.8809-3.2188 1.3928-2.9209 3.3225-11.902 3.0566-14.226-0.09134-0.7989-0.1633-1.2314-0.38477-1.168zm7.4277 0.4883c-0.17322 0.1732-0.74705 2.3821-1.2773 4.9082-0.53032 2.5259-1.383 5.7851-1.8926 7.2441-0.50968 1.4591-0.7755 3.0446-0.5918 3.5235 0.50234 1.3092 4.523 1.0474 6.3242-0.4121 2.2666-1.8365 2.1104-6.6718-0.37891-11.76-1.0276-2.1002-2.0104-3.6768-2.1836-3.5039z"/>
  <path d="m317.37 999.23-1.3633 10.064-13.689 0.014v5.9941h12.904l-1.6133 12.75h-15.318 2e-3v6.7285l52.418 0.01v-6.7324h-8.7969v-18.791l-18.426-0.051c0.40444-3.1572 0.6262-4.8125 1.1172-8.6289zm-28.615 0.44921c-0.041 5e-3 -0.0691 0.0182-0.082 0.041-0.15034 0.26469-0.65064 1.6895-1.1133 3.166-3.2187 10.28-8.4831 20.262-14.875 28.207-2.246 2.792-4.1289 5.0918-3.9121 5.3085 0.21693 0.2169 2.0611 1.5589 3.8262 2.7833l3.209 2.2265 2.2363-2.4844c5.6284-6.2548 12.375-18.468 16.166-29.26 1.1532-3.2829 2.0147-6.0259 1.9141-6.0899-3.0958-2.0456-6.7535-3.9668-7.3691-3.8984zm58.527 7.5684v8.7246h26.174v-8.7246h-13.088zm-12.752 8.0546v12.75h-13.529l1.7168-12.736c3.9587 0 7.8099-0.014 11.812-0.014zm-45.229 15.436c-0.16408 0-0.96864 2.0378-1.7891 4.5293-3.257 9.8912-9.1434 19.918-15.9 27.088-2.307 2.4478-4.1934 4.5933-4.1934 4.7676 0 0.1741 1.5248 1.6045 3.3906 3.1777 3.3395 2.8192 3.2333 2.8112 3.3906 2.7832 0.16613-0.03 3.6315-3.6839 4.627-5.2363l2.6953-4.0528 6e-3 0.01-0.0137 45.529 7.7168-0.01-0.0488-58.113 3.502-6.375c3.782-8.5701 3.8967-8.7124 3.8613-8.8867-0.0252-0.1348-7.0798-5.207-7.2441-5.207zm56.637 7.3828v9.3945h10.738v25.422c0 21.9-0.14076 25.536-1.0176 26.264-0.74468 0.6177-2.5906 0.7239-6.8789 0.3945-5.6297-0.4323-5.7814-0.4078-3.8476 0.6192 3.1826 1.69 6.9551 5.7236 7.7949 8.332 0.42332 1.315 0.89865 2.6156 1.0566 2.8926 0.59123 1.0367 3.4262 0.035 7.709-2.7207 4.594-2.9588 4.5801-2.8271 4.5801-33.621v-27.584h10.066v-9.3945zm-42.951 2.0137v20.805h37.584v-20.805zm7.3203 6.375h22.953l-8e-3 7.7168h-22.951zm8.1152 18.455v6.041h-18.791v6.8382l18.853 5e-4v9.2636h-6.4785c-5.8955 0-1.8037 0.01-6.2774 0.01l1.5918-6.8926-6.998-1.6074-3.9062 15.877h22.006v14.094h8.0527v-14.094h21.477v-7.3828h-21.477v-9.3945h18.121v-6.7109h-18.121v-6.041z"/>
  <path d="m420.83 995.54c-0.6734 0.0798-1.698 0.69595-3.6719 2.0664-2.0593 1.4297-3.745 2.7857-3.752 3.0117-4e-3 0.2262 0.90523 1.5587 2.0195 2.9609 1.1144 1.4022 2.956 4.1755 4.0938 6.1641 1.9484 3.4053 2.1535 3.5625 3.5117 2.7031 0.79314-0.5018 2.5728-1.5973 3.957-2.4355s2.5176-1.8999 2.5176-2.3575c0-0.8267-6.0081-9.9595-7.7129-11.725-0.28163-0.29155-0.55885-0.43656-0.9629-0.38867zm29.48 6.3457v67.783h17.391l-0.94336 2.6679c-3.1644 8.9689-16.303 21.613-27.885 26.834-2.0146 0.9082-3.7777 1.7273-3.918 1.8203-0.14034 0.093 1.3237 1.9946 3.2539 4.2227s4.0079 4.0488 4.6172 4.0488c1.6095 0 8.4672-4.2739 13.65-8.5019 6.3608-5.1885 14.414-15.363 17.295-21.848l1.2754-2.8691 0.0859 7.0468c0.0475 3.8757 0.31675 10.159 0.60156 13.963 0.46908 6.2686 0.68715 7.0849 2.3281 8.7246l1.8105 1.8086h13.91c12.747 0 14.165-0.1191 16.977-1.4199 2.1618-1.0001 3.4018-2.121 4.1953-3.793 1.5968-3.365 1.4123-4.9115-0.93164-7.8281-2.1141-2.6306-4.6428-9.5191-4.6641-12.689-6e-3 -0.9821-0.26747-2.1929-0.58203-2.6895-0.71337-1.1256-1.2171 0.7047-2.0938 7.6192-1.3161 10.38-3.1212 12.076-12.861 12.076-9.3381 0-8.9005 0.7551-9.1562-15.795l-0.20703-13.398h15.514v-67.783h-49.662zm10.066 10.066h29.529v10.738h-29.529zm-57.717 4.0254v8.7246h27.531l-2.6172 5.2011c-1.4403 2.8607-4.0489 7.1652-5.7969 9.5645-3.9251 5.3877-14.241 15.567-19.318 19.064l-3.7871 2.6075 7.1309 8.2754 11.287-9.8985 0.35352 47.734h8.6894l0.35351-49.314 4.9844 6.0333c2.7417 3.3185 5.0893 6.1658 5.2168 6.3281 0.3599 0.4588 6.9121-6.1914 6.9121-7.0157 0-0.4025-3.4551-4.1972-7.6777-8.4316l-7.6777-7.6973 3.7383-5.6894c3.767-5.7338 10.244-18.356 10.266-19.994 5e-3 -0.486-0.78147-1.9203-1.748-3.1876l-1.7578-2.3046h-36.082zm57.717 14.766h29.529v10.066h-29.529zm0 18.119h29.529v10.738h-29.529z"/>
  <path d="m4.879e-4 1145.8h909.21v3.8424l-909.21 0.013z"/>
 </g>
</svg>
