<svg width="800" height="182.85" version="1.1" viewBox="0 0 800 182.85" xmlns="http://www.w3.org/2000/svg">
 <link rel="stylesheet" type="text/css"/>
 <link rel="stylesheet" type="text/css"/>
 <style lang="en" type="text/css"/>
 <style lang="en" type="text/css"/>
 <g transform="translate(0 -17.145)" fill="#0b9b90">
  <path d="m606.52 59.83h-40.434l-5.8278 11.929c-1.7945 3.3882-3.3846 7.2335-4.529 11.22l-0.16966 0.61736-0.16963-0.5754c-1.1445-3.9861-2.6415-7.8734-4.436-11.262l-6.3535-11.929h-40.37l31.267 46.079-34.639 52.179h40.669l9.8046-17.738c1.8187-3.2553 3.3183-6.6261 4.6347-10.617 1.3165 3.9914 2.2211 6.8895 4.3733 10.617l9.6738 17.738h40.732l-35.41-52.179z" stroke-width=".91428"/>
  <path d="m637.29 158.09v-71.053h15.787v-27.205h-15.787v-24.324h-29.819v24.324h-9.7271v27.045h9.7271v71.213z" stroke-width=".91428"/>
  <path d="m697.94 86.715c6.6973 0 10.365 1.9204 10.365 1.9204v-30.726h-6.6973c-11.8 0-20.889 10.082-23.281 17.443v-15.523h-28.862v98.258h29.978v-45.288c0-19.043 7.0163-26.085 18.497-26.085z" stroke-width=".91428"/>
  <path d="m695.09 109.44c0 31.526 18.626 51.049 45.849 51.049 18.626 0 29.292-12.002 29.292-12.002v9.6018h29.77v-98.258h-29.292v10.082c-8.7558-8.0014-16.238-12.002-28.178-12.002-27.223 0-47.441 24.164-47.441 51.529zm53.331-24.004c13.054 0 23.243 9.9218 23.243 24.324 0 14.243-10.985 24.004-24.198 24.004-13.691 0-22.288-11.202-22.288-24.805 0-12.962 9.0742-23.524 23.243-23.524z" stroke-width=".91352"/>
 </g>
 <g transform="translate(0 -17.145)" fill="#f4aa00">
  <path d="m160.71 109.41c0 31.394 18.596 50.836 45.774 50.836 18.596 0 29.244-11.952 29.244-11.952v9.5616h29.721v-97.847h-29.244v10.04c-8.7415-7.968-16.212-11.952-28.132-11.952-27.178 0-47.363 24.063-47.363 51.314zm53.244-23.904c13.033 0 23.205 9.8803 23.205 24.223 0 14.183-10.967 23.904-24.158 23.904-13.669 0-22.251-11.155-22.251-24.701 0-12.908 9.0594-23.426 23.205-23.426z" stroke-width=".91428"/>
  <path d="m303.61 157.86v-122.07h-29.562v122.07z" stroke-width=".91428"/>
  <path d="m343.43 157.86v-97.847h-29.562v97.847zm-32.423-122.71c0 10.04 7.7879 17.848 17.483 17.848 10.172 0 18.278-8.1273 18.278-18.167 0-9.8803-8.1058-17.689-17.96-17.689-9.8541 0-17.801 8.1273-17.801 18.008z" stroke-width=".91428"/>
  <path d="m388.19 157.86v-70.756h15.735v-27.091h-15.735v-24.223h-29.721v24.223h-9.6951v26.932h9.6951v70.915z" stroke-width=".91428"/>
  <path d="m471.95 59.654v56.896c0 9.881-5.876 16.101-16.508 16.101-10.005 0-16.68-6.2205-16.68-16.892v-56.105h-29.53v56.896c0 27.088 17.942 43.34 45.888 43.34a61.819 61.774 0 0 0 17.833-2.4444l-9e-3 0.9447c0 10.689-8.9916 15.459-18.741 15.459-6.9137 0-10.826-1.2752-14.719-7.9681h-31.359c3.0007 21.986 22.808 34.117 45.471 34.117 25.799 0 47.248-15.786 47.248-46.07v-94.274z" stroke-width=".89108"/>
  <path d="m58.509 109.1c0 32.828 20.662 51.154 50.701 51.154 20.503 0 37.032-10.199 45.615-25.498-5.4039-3.3466-23.046-13.546-23.046-13.546-5.086 6.6931-11.443 13.546-21.139 13.546-11.126 0-20.344-5.5776-22.887-17.211h68.661c0.15894-2.231 0-3.5059 0-5.8963 0-34.9-19.867-53.545-47.999-53.545-28.768 0-49.906 21.354-49.906 50.995zm49.588-26.135c9.2183 0 14.304 4.4621 17.801 13.864h-37.032c3.6555-9.0835 9.2183-13.864 19.231-13.864z" stroke-width=".91433"/>
  <path d="m160.71 109.41c0 31.394 18.596 50.836 45.774 50.836 18.596 0 29.244-11.952 29.244-11.952v9.5616h29.721v-97.847h-29.244v10.04c-8.7415-7.968-16.212-11.952-28.132-11.952-27.178 0-47.363 24.063-47.363 51.314zm53.244-23.904c13.033 0 23.205 9.8803 23.205 24.223 0 14.183-10.967 23.904-24.158 23.904-13.669 0-22.251-11.155-22.251-24.701 0-12.908 9.0594-23.426 23.205-23.426z" stroke-width=".91433"/>
  <path d="m48.384 86.704c6.6846 0 10.345 1.9126 10.345 1.9126v-30.601h-6.6846c-11.778 0-20.85 10.041-23.237 17.373v-15.46h-28.808v97.86h29.922v-45.105c0-18.966 7.0029-25.979 18.462-25.979z" stroke-width=".91428"/>
 </g>
</svg>
