<svg width="800" height="161.76" version="0.0" viewBox="0 0 800 161.76" xmlns="http://www.w3.org/2000/svg">
 <g transform="scale(.80921)" fill="#f4aa00">
  <path d="m175.66 100.83c0 34.328 20.309 55.586 49.992 55.586 20.309 0 31.939-13.069 31.939-13.069v10.455h32.46v-106.99h-31.939v10.978c-9.547-8.7126-17.705-13.069-30.724-13.069-29.683 0-51.728 26.312-51.728 56.109zm58.15-26.138c14.234 0 25.343 10.804 25.343 26.486 0 15.508-11.977 26.138-26.385 26.138-14.928 0-24.302-12.198-24.302-27.009 0-14.114 9.8942-25.615 25.343-25.615z"/>
  <path d="m52.995 76.074c7.3217 0 11.331 2.0914 11.331 2.0914v-33.462h-7.3217c-12.9 0-22.837 10.98-25.452 18.997v-16.905h-31.553v107.01h32.773v-49.322c0-20.74 7.6704-28.408 20.222-28.408z"/>
  <path d="m64.013 100.48c0 35.896 22.565 55.935 55.37 55.935 22.391 0 40.443-11.152 49.816-27.88-5.9015-3.6593-25.168-14.811-25.168-14.811-5.5544 7.3186-12.497 14.811-23.085 14.811-12.15 0-22.217-6.0988-24.995-18.819h74.984c0.17357-2.4395 0-3.8335 0-6.4473 0-38.161-21.697-58.549-52.419-58.549-31.417 0-54.502 23.35-54.502 55.76zm54.155-28.577c10.067 0 15.622 4.879 19.44 15.16h-40.443c3.9922-9.9323 10.067-15.16 21.002-15.16z"/>
  <path d="m515.65 46.411v62.183c0 10.81-6.3196 17.595-17.936 17.595-10.931 0-18.2-6.7852-18.204-18.46v-61.318h-32.285v62.233c0 29.634 19.604 47.413 50.138 47.413 6.5906 0.0646 13.115-0.81682 19.445-2.6546l-0.01 1.0335c0 11.694-9.7841 16.792-20.437 16.792-7.5539 0-11.972-1.6493-16.052-8.7169h-34.312c3.2786 24.052 24.94 37.393 49.702 37.393 26.542 0 48.871-15.312 51.388-44.759 0.15604-1.8258 0.0562-3.7059 0.0562-5.64v-103.09z"/>
  <path d="m424.16 153.82v-77.368h17.16v-29.623h-17.16v-26.527h-32.46v26.527h-10.589v29.449h10.589v77.542z"/>
  <path d="m359.29 0c-10.775 0-19.465 8.8966-19.465 19.713 0 10.991 8.5162 19.539 19.117 19.539 11.122 0 19.984-8.896 19.984-19.887 0-10.816-8.862-19.365-19.637-19.365zm-16.295 46.812v106.99h32.287v-106.99z"/>
  <path d="m331.81 153.82v-133.52h-32.362v133.52z"/>
 </g>
 <g transform="scale(.80921)" fill="#0a9b90">
  <path d="m759.41 100.89c0 34.507 20.4 55.877 50.215 55.877 20.4 0 32.082-13.137 32.082-13.137v10.51h32.605v-107.55h-32.082v11.035c-9.5897-8.7582-17.785-13.137-30.862-13.137-29.815 0-51.959 26.45-51.959 56.403zm58.41-26.275c14.297 0 25.456 10.86 25.456 26.625 0 15.59-12.031 26.275-26.503 26.275-14.995 0-24.41-12.262-24.41-27.15 0-14.188 9.9385-25.749 25.456-25.749z"/>
  <path d="m696.44 154.14v-77.773h17.266v-29.778h-17.266v-26.625h-32.614v26.625h-10.639v29.603h10.639v77.948z"/>
  <path d="m762.82 76.017c7.3587 0 11.388 2.102 11.388 2.102v-33.632h-7.3587c-12.965 0-22.952 11.035-25.58 19.093v-16.991h-31.712v107.55h32.939v-49.572c0-20.845 7.7091-28.552 20.324-28.552z"/>
  <path d="m550.92 46.68 34.03 50.326-37.892 57.135h44.867l11.789-21.397c1.0569-1.9411 2.5538-4.8392 3.213-7.8991h1.1823c0.43935 2.9456 1.8842 5.8629 2.9911 7.8991l11.602 21.397h44.8l-38.58-57.149 33.937-50.312h-44.436l-8.1574 16.611c-0.82381 1.5906-2.3473 5.1262-2.7141 7.5107h-0.95878c-0.24766-1.6099-2.201-6.9571-2.5018-7.5379l-8.7341-16.584z"/>
  <path d="m954.61 131.27h34.003v22.875h-83.425l42.401-46.163q11.839-12.953 11.839-25.493 0-5.2364-3.4416-9.3704-3.304-4.134-8.3976-4.134-5.2313 0-8.2599 3.5828t-3.0286 9.0948q0 2.2048 0.413 4.4096h-29.736q0.68832-18.052 11.426-28.938 10.876-11.024 29.047-11.024 16.795 0 28.359 10.197 11.701 10.197 11.701 26.733 0 10.473-4.1299 17.914-3.9923 7.4412-12.665 15.296z"/>
 </g>
</svg>
