<svg width="1500pt" height="1778.6pt" version="1.1" viewBox="0 0 1500 1778.6" xmlns="http://www.w3.org/2000/svg">
 <path d="m375 2.2973e-5c-99.456 0-194.84 39.509-265.17 109.83-70.326 70.326-109.83 165.71-109.83 265.17v750c0 99.456 39.509 194.84 109.83 265.16 70.326 70.326 165.71 109.84 265.17 109.84h750c99.456 0 194.84-39.509 265.16-109.84 70.326-70.326 109.84-165.71 109.84-265.16v-750c0-99.456-39.509-194.84-109.84-265.17-70.326-70.326-165.71-109.83-265.16-109.83z" fill="#e72a31" stop-color="#000000" stroke-miterlimit="10" stroke-width="16.225" style="paint-order:stroke fill markers"/>
 <g fill="#fff">
  <path d="m662.88 230.25c69.672 0.1664 139.4 9.6115 205.54 32.016 71.277 24.054 138.61 63.034 190.51 117.97 35.388 37.685 58.559 77.752 58.559 140.73-2.1493 54.849-35.065 103.16-74.192 139.43-37.332 32.798-78.137 61.944-122.65 84.173l259.52 393.28-31.708 31.267-531.18-424.43c51.758-21.139 104.1-40.835 155.1-63.888 49.226-21.404 99.011-44.957 138.4-82.288 24.367-26.673 37.256-48.526 36.549-83.743-0.3039-40.12-16.156-79.676-42.85-109.54-26.527-29.765-61.179-50.698-96.45-68.481-53.083-26.527-111.76-38.274-169.11-51.699 11.953 16.428 26.409 31.06 36.183 49.02 17.765 28.14 27.876 61.537 26.78 94.842-3.2023 50.007-19.022 103.01-34.405 144.25-19.932 50.315-43.897 98.893-67.686 147.47l-245.86 463.61-46.841-48.46 176.77-445.18c25.408-69.452 46.046-141.26 53.2-215.1 2.0286-69.774-4.103-157.75-71.866-185.22l-43.014 2.2964c6.6538-14.721 16.487-27.755 30.972-37.037 76.976-20.316 140.45-25.368 209.73-25.303z" stroke-width="2.9441"/>
  <path d="m749.45 61.5a690 688.5 0 0 0-689.45 688.5 690 688.5 0 0 0 690 688.5 690 688.5 0 0 0 690-688.5 690 688.5 0 0 0-690-688.5 690 688.5 0 0 0-0.5467 0zm0.2715 94.125a595.67 594.38 0 0 1 0.2752 0 595.67 594.38 0 0 1 595.67 594.37 595.67 594.38 0 0 1-595.67 594.38 595.67 594.38 0 0 1-595.67-594.38 595.67 594.38 0 0 1 595.39-594.37z" stop-color="#000000" style="paint-order:stroke fill markers"/>
 </g>
 <g transform="matrix(2.5 0 0 2.5 -8e-4 411.07)" fill="#e72a31">
  <path d="m3.0484e-4 518.5q0-5.6761 2.0851-10.657 2.2009-5.0969 5.9078-8.9196 3.8227-3.8227 8.8038-6.0236t10.657-2.3168q1.8534 0 2.896 1.0426 1.1584 1.0426 1.1584 2.5485t-1.1584 2.5484q-1.0425 1.0426-2.896 1.0426-4.1702 0.11584-7.877 1.8534-3.7068 1.6218-6.487 4.4019-2.7801 2.7801-4.4019 6.6028-1.5059 3.7068-1.5059 7.877v24.79q0 1.5059-1.0425 2.5484-1.0425 1.0426-2.5485 1.0426t-2.5485-1.0426q-1.0425-1.0426-1.0425-2.5484z" style="white-space:pre"/>
  <path d="m40.557 522.33q0.5792 3.7068 2.4326 6.9503 1.8534 3.1276 4.5177 5.4444 2.7801 2.3168 6.2553 3.7068 3.4752 1.2742 7.2978 1.2742 4.286 0 7.9929-1.5059 3.7068-1.6217 6.6028-4.4019 1.0426-1.0426 2.5485-1.0426t2.5485 1.0426q1.0426 1.0426 1.0426 2.5485t-1.0426 2.5484q-3.8227 4.286-8.6879 6.1395-4.7494 1.7376-11.005 1.7376-5.7919 0-10.889-2.0851-4.9811-2.0851-8.8038-5.792-3.8227-3.7068-6.0236-8.8038t-2.2009-11.121q0-5.7919 2.0851-10.773 2.2009-5.0969 5.9078-8.8038 3.8227-3.8227 8.9196-6.0236 5.2127-2.3168 11.236-2.5484 5.5603 0 10.425 2.2009 4.9811 2.2009 8.8038 5.9078t6.0236 8.6879q2.3168 4.9811 2.5485 10.657 0.23168 1.9693-1.0426 3.0118-1.1584 1.0426-2.5485 1.0426zm20.503-24.21q-3.8227 0-7.2978 1.3901-3.3593 1.2742-6.1395 3.591-2.6643 2.2009-4.5177 5.3286-1.7376 3.1276-2.4326 6.7187h40.891q-0.69503-3.591-2.5485-6.7187-1.8534-3.1276-4.6336-5.3286-2.6643-2.3168-6.1395-3.591-3.3593-1.3901-7.182-1.3901z" style="white-space:pre"/>
  <path d="m89.241 495.92q-0.57919-1.3901 0-2.896t1.8534-2.0851q1.3901-0.5792 2.7801 0.11584 1.3901 0.69503 1.8534 1.8534l16.102 41.007 16.681-41.007q0.81087-1.2742 2.0851-1.8534 1.2742-0.5792 2.5484 0 1.3901 0.57919 1.8534 1.9693 0.5792 1.3901 0 2.6643-0.11584 0.23168-1.0426 2.4326-0.81087 2.0851-3.0118 7.5295-2.2009 5.3286-5.9078 14.712-3.7068 9.2671-9.383 23.631-0.46335 1.2742-1.3901 2.0851-0.81087 0.81087-2.4326 0.81087-1.6217 0-2.6643-0.92671-0.92671-1.0426-1.2742-1.9693-4.9811-13.321-8.5721-22.473-3.4752-9.1513-5.7919-14.827-2.2009-5.6761-3.2435-8.1087-1.0426-2.5484-1.0426-2.6643z" style="white-space:pre"/>
  <path d="m141.92 522.33q0.5792 3.7068 2.4326 6.9503 1.8534 3.1276 4.5177 5.4444 2.7801 2.3168 6.2553 3.7068 3.4752 1.2742 7.2978 1.2742 4.286 0 7.9929-1.5059 3.7068-1.6217 6.6028-4.4019 1.0426-1.0426 2.5484-1.0426 1.5059 0 2.5485 1.0426t1.0426 2.5485q0 1.5059-1.0426 2.5484-3.8227 4.286-8.6879 6.1395-4.7494 1.7376-11.005 1.7376-5.7919 0-10.889-2.0851-4.9811-2.0851-8.8038-5.792-3.8227-3.7068-6.0236-8.8038-2.2009-5.0969-2.2009-11.121 0-5.7919 2.0851-10.773 2.2009-5.0969 5.9078-8.8038 3.8227-3.8227 8.9196-6.0236 5.2128-2.3168 11.236-2.5484 5.5603 0 10.426 2.2009 4.9811 2.2009 8.8038 5.9078t6.0236 8.6879q2.3168 4.9811 2.5484 10.657 0.23168 1.9693-1.0426 3.0118-1.1584 1.0426-2.5484 1.0426zm20.503-24.21q-3.8227 0-7.2978 1.3901-3.3593 1.2742-6.1395 3.591-2.6643 2.2009-4.5177 5.3286-1.7376 3.1276-2.4326 6.7187h40.891q-0.69503-3.591-2.5485-6.7187-1.8534-3.1276-4.6336-5.3286-2.6643-2.3168-6.1395-3.591-3.3593-1.3901-7.182-1.3901z" style="white-space:pre"/>
  <path d="m218.76 543.29q0 1.5059-1.0426 2.5484t-2.5485 1.0426q-5.3286-0.11584-8.9196-2.0851-3.591-1.9693-5.9078-4.8652-2.2009-2.896-3.2435-6.1395-0.92671-3.2435-0.92671-5.7919v-52.475q0-1.5059 1.0426-2.5484 1.0426-1.0426 2.5485-1.0426t2.5484 1.0426q1.0426 1.0425 1.0426 2.5484v52.475q0 0.92671 0.34752 2.7801 0.46335 1.8534 1.7376 3.8227 1.2742 1.9693 3.591 3.4752t6.1394 1.6217q1.5059 0 2.5485 1.0426t1.0426 2.5485z" style="white-space:pre"/>
  <path d="m249.76 490.82q5.5603 0 10.541 2.3168 5.0969 2.2009 8.9196 6.0236t6.0236 8.9196q2.3168 5.0969 2.3168 10.889v24.442q0 1.5059-1.0426 2.5484t-2.5485 1.0426q-1.5059 0-2.5484-1.0426t-1.0426-2.5484v-7.0662q-3.8227 4.286-9.2671 7.4137-5.3286 3.0118-11.584 3.0118-5.7919 0-10.889-2.0851-4.9811-2.0851-8.8038-5.792-3.8227-3.7068-6.0236-8.8038t-2.2009-11.121q0-5.7919 2.0851-10.773 2.2009-5.0969 5.9078-8.8038 3.8227-3.8227 8.9196-6.0236 5.2128-2.3168 11.236-2.5484zm-20.967 28.149q0 4.286 1.6217 8.1087 1.6218 3.7068 4.4019 6.6028 2.896 2.7801 6.6028 4.4019 3.8227 1.6217 8.1087 1.6217 4.1702 0 7.877-1.5059 3.7068-1.6217 6.487-4.4019 2.896-2.7801 4.5177-6.487 1.7376-3.8227 1.9693-8.3404 0-4.286-1.6218-8.1087-1.6217-3.8227-4.5177-6.6028-2.7801-2.896-6.6028-4.5177t-8.1087-1.6217-8.1087 1.6217q-3.7068 1.6217-6.6028 4.5177-2.7801 2.7801-4.4019 6.6028-1.6217 3.8227-1.6217 8.1087z" style="white-space:pre"/>
  <path d="m283.84 475.53c0-1.0039 0.34751-1.8534 1.0425-2.5484s1.5445-1.0425 2.5485-1.0425c1.0039 0 1.8534 0.34746 2.5484 1.0425s1.0426 1.5445 1.0426 2.5484v14.827h25.6c1.2356 0 2.2009 0.34752 2.896 1.0426 0.77226 0.69503 1.1584 1.5445 1.1584 2.5485 0 1.0039-0.38613 1.8534-1.1584 2.5484-0.69503 0.69503-1.6604 1.0426-2.896 1.0426h-25.6v21.43c0 2.8574 0.54058 5.5603 1.6218 8.1087 1.0812 2.4712 2.5484 4.6722 4.4019 6.6028 1.9306 1.8534 4.1316 3.3207 6.6028 4.4019 2.5484 1.0812 5.2514 1.6217 8.1087 1.6217s5.5216-0.50197 7.9929-1.5059c2.4712-1.0812 4.6336-2.5484 6.487-4.4019 0.61781-0.69503 1.3901-1.0812 2.3168-1.1584 1.0039-0.15445 1.9306 0.0772 2.7801 0.69504 0.61781 0.61781 1.0039 1.3901 1.1584 2.3168s-0.0386 1.8148-0.57919 2.6643c-2.5484 2.7029-5.5603 4.8266-9.0354 6.3711-3.4752 1.4673-7.182 2.2009-11.121 2.2009-3.8613 0-7.4909-0.73364-10.889-2.2009s-6.3711-3.4366-8.9196-5.9078c-2.4712-2.5484-4.4405-5.5216-5.9078-8.9196s-2.2009-7.0276-2.2009-10.889z" style="white-space:pre"/>
  <path d="m336.1 494.29q0-1.5059 1.0426-2.5484t2.5485-1.0426q1.5059 0 2.5484 1.0426t1.0426 2.5484v49q0 1.5059-1.0426 2.5484t-2.5484 1.0426q-1.5059 0-2.5485-1.0426t-1.0426-2.5484zm-1.1584-16.102q0-1.9693 1.3901-3.3593 1.3901-1.3901 3.3593-1.3901t3.3593 1.3901q1.3901 1.3901 1.3901 3.3593t-1.3901 3.3593q-1.3901 1.3901-3.3593 1.3901t-3.3593-1.3901-1.3901-3.3593z" style="white-space:pre"/>
  <path d="m377.13 490.82q5.5603 0 10.541 2.3168 5.0969 2.2009 8.9196 6.0236t6.0236 8.9196q2.3168 5.0969 2.3168 10.889 0 5.6761-2.2009 10.773-2.2009 4.9811-6.0236 8.8038-3.7068 3.8227-8.8038 6.0236-5.0969 2.2009-11.005 2.2009-5.792 0-10.889-2.0851-4.9811-2.0851-8.8038-5.792-3.8227-3.7068-6.0236-8.8038t-2.2009-11.121q0-5.7919 2.0851-10.773 2.2009-5.0969 5.9078-8.8038 3.8227-3.8227 8.9196-6.0236 5.2127-2.3168 11.236-2.5484zm-20.967 28.149q0 4.286 1.6218 8.1087 1.6217 3.7068 4.4019 6.6028 2.896 2.7801 6.6028 4.4019 3.8227 1.6217 8.1087 1.6217t8.1087-1.6217 6.6028-4.4019q2.896-2.896 4.5177-6.6028 1.6217-3.8227 1.6217-8.1087t-1.6217-8.1087q-1.6218-3.8227-4.5177-6.6028-2.7801-2.896-6.6028-4.5177t-8.1087-1.6217-8.1087 1.6217q-3.7068 1.6217-6.6028 4.5177-2.7801 2.7801-4.4019 6.6028t-1.6218 8.1087z" style="white-space:pre"/>
  <path d="m410.65 518.5c0-3.8613 0.73365-7.4909 2.2009-10.889s3.4366-6.3325 5.9078-8.8038c2.5485-2.5484 5.5217-4.5563 8.9196-6.0236s7.0276-2.2009 10.889-2.2009c3.8613 0 7.4909 0.73365 10.889 2.2009s6.3325 3.4752 8.8038 6.0236c2.5484 2.4712 4.5563 5.4058 6.0236 8.8038s2.2008 7.0276 2.2008 10.889l1.1e-4 24.79c0 1.0039-0.34752 1.8534-1.0426 2.5484s-1.5445 1.0426-2.5484 1.0426-1.8534-0.34752-2.5485-1.0426-1.0426-1.5445-1.0426-2.5484v-24.79c0-2.8574-0.54058-5.5216-1.6217-7.9929-1.0812-2.5484-2.5871-4.7494-4.5177-6.6028-1.8534-1.9306-4.0544-3.4366-6.6028-4.5177-2.4712-1.0812-5.1355-1.6217-7.9929-1.6217s-5.5603 0.54058-8.1087 1.6217c-2.4712 1.0812-4.6722 2.5871-6.6028 4.5177-1.8534 1.8534-3.3207 4.0544-4.4019 6.6028-1.0812 2.4712-1.6218 5.1355-1.6218 7.9929v24.79c0 1.0039-0.34752 1.8534-1.0426 2.5484s-1.5445 1.0426-2.5484 1.0426-1.8534-0.34752-2.5485-1.0426-1.0426-1.5445-1.0426-2.5484z" style="white-space:pre"/>
 </g>
 <g transform="matrix(2.5 0 0 2.5 -8e-4 411.07)">
  <path d="m502.85 475.53c0-1.0039 0.34745-1.8534 1.0425-2.5484s1.5445-1.0426 2.5484-1.0426 1.8534 0.34752 2.5485 1.0426 1.0426 1.5445 1.0426 2.5484v14.827h25.6c1.2356 0 2.2009 0.34752 2.896 1.0426 0.77226 0.69503 1.1584 1.5445 1.1584 2.5485 0 1.0039-0.38613 1.8534-1.1584 2.5484-0.69503 0.69503-1.6604 1.0426-2.896 1.0426h-25.6v21.43c0 2.8574 0.54058 5.5603 1.6217 8.1087 1.0812 2.4712 2.5484 4.6722 4.4019 6.6028 1.9306 1.8534 4.1316 3.3207 6.6028 4.4019 2.5484 1.0812 5.2514 1.6217 8.1087 1.6217s5.5216-0.50197 7.9929-1.5059c2.4712-1.0812 4.6336-2.5484 6.487-4.4019 0.61781-0.69503 1.3901-1.0812 2.3168-1.1584 1.0039-0.15445 1.9306 0.0772 2.7801 0.69504 0.61781 0.61781 1.0039 1.3901 1.1584 2.3168s-0.0386 1.8148-0.57919 2.6643c-2.5484 2.7029-5.5603 4.8266-9.0354 6.3711-3.4752 1.4673-7.182 2.2009-11.121 2.2009-3.8613 0-7.4909-0.73364-10.889-2.2009s-6.3711-3.4366-8.9196-5.9078c-2.4712-2.5484-4.4405-5.5216-5.9078-8.9196s-2.2009-7.0276-2.2009-10.889z" style="white-space:pre"/>
  <path d="m553.95 495.92q-0.57919-1.3901 0-2.896 0.5792-1.5059 1.8534-2.0851 1.3901-0.5792 2.7801 0.11584 1.3901 0.69503 1.8534 1.8534l16.102 41.007 16.681-41.007q0.81087-1.2742 2.0851-1.8534 1.2742-0.5792 2.5484 0 1.3901 0.57919 1.8534 1.9693 0.5792 1.3901 0 2.6643-0.11584 0.23168-1.0426 2.4326-0.81087 2.0851-3.0118 7.5295-2.2009 5.3286-5.9078 14.712-3.7068 9.2671-9.383 23.631-0.46335 1.2742-1.3901 2.0851-0.81087 0.81087-2.4326 0.81087-1.6217 0-2.6643-0.92671-0.92671-1.0426-1.2742-1.9693-4.9811-13.321-8.5721-22.473-3.4752-9.1513-5.792-14.827-2.2009-5.6761-3.2435-8.1087-1.0426-2.5484-1.0426-2.6643z" style="white-space:pre"/>
 </g>
</svg>
