<svg width="800" height="315.96" version="1.1" viewBox="0 0 800 315.96" xml:space="preserve" xmlns="http://www.w3.org/2000/svg"><path class="st1" d="m707.53 308.73-138.86-139.46v139.46h-68.072v-73.494c-7.5301 14.458-16.867 27.108-28.012 37.952-14.458 13.855-31.325 24.096-51.205 31.627-19.578 7.2289-41.265 11.145-64.759 11.145s-44.88-3.6145-64.759-11.145c-19.578-7.2289-36.747-17.771-51.205-31.627s-25.602-30.422-33.735-49.699c-6.6265-16.265-10.542-34.036-11.747-53.614-8.4337 5.4217-18.675 9.3374-30.12 11.446l76.506 127.41h-78.313l-62.651-120.18h-32.53v120.18h-68.072v-300.6h116.87c15.361 0 30.12 1.2048 43.675 4.2169 13.554 3.012 25.602 7.8313 35.843 14.759s18.374 16.265 24.398 28.012c1.2048 2.1084 2.1084 4.5181 3.012 6.9277 5.1205-6.9277 10.542-13.554 16.867-19.277 14.458-13.855 31.325-24.096 51.205-31.627 19.578-7.2289 41.265-11.145 64.759-11.145s44.88 3.6145 64.759 11.145c19.578 7.2289 36.747 17.771 51.205 31.627 11.446 10.843 20.783 23.494 28.012 37.952v-72.59h68.072v122.89l115.06-123.19h86.145l-133.13 139.46 163.25 161.45zm-550.3-228.31c-3.012-4.5181-6.9277-7.8313-11.747-10.241-4.8193-2.4096-10.241-3.9157-16.566-4.8193s-12.349-1.2048-18.072-1.2048h-43.373v68.373h38.855c6.0241 0 12.048-0.3012 18.675-0.60241 6.6265-0.3012 12.651-1.8072 18.072-3.9157s9.6386-5.4217 13.253-9.9398 5.4217-10.843 5.4217-18.976c0-8.1325-1.506-14.157-4.5181-18.675zm286.14 39.157c-4.5181-11.747-10.542-21.988-18.675-30.723s-18.072-15.361-29.518-20.181c-11.446-4.8193-24.096-7.2289-38.253-7.2289s-26.807 2.4096-38.253 7.2289-21.084 11.446-29.518 20.181c-8.1325 8.7349-14.458 18.976-18.675 30.723-4.5181 11.747-6.6265 24.699-6.6265 38.554 0 14.157 2.1084 27.108 6.6265 38.855s10.542 21.988 18.675 30.422c8.1325 8.7349 18.072 15.361 29.518 20.181 11.446 4.8193 24.096 7.2289 38.253 7.2289s26.807-2.4096 38.253-7.2289 21.084-11.446 29.518-20.181c8.1325-8.7349 14.458-18.675 18.675-30.422 4.2169-11.747 6.6265-24.699 6.6265-38.855-0.3012-13.855-2.4096-26.807-6.6265-38.554z" fill="#fff" stroke-width="3.012"/></svg>
