<svg width="707.1" height="800" version="1.1" xml:space="preserve" xmlns="http://www.w3.org/2000/svg"><g fill="#919396"><path class="st0" d="m211.61 678.71c-10.323 0-20.645 7.742-20.645 18.065v30.968h-41.29v28.387h67.097c7.742 0 12.903-5.161 12.903-12.903v-64.516zm64.52 0c-10.323 0-20.645 7.742-20.645 18.064v30.969h-25.807v28.387h175.48c7.742 0 12.902-5.16 12.902-12.902v-64.518h-18.064c-10.323 0-20.645 7.742-20.645 18.064v30.969h-20.646v-49.033h-20.645c-10.323 0-20.645 7.742-20.645 18.064v30.969h-20.646v-49.033zm214.19-74.84v113.55h-41.29v-113.55z" stroke-width="25.806"/><path class="st0" d="m510.97 603.87v123.87h-61.935v28.387h87.742c7.742 0 12.903-5.161 12.903-12.903v-139.35z" stroke-width="25.806"/><path class="st0" d="M588.39 629.68c-7.742 0-12.903 5.162-12.903 12.904V707.1h80v20.645h-108.39v28.387h136.77c7.742 0 12.903-5.161 12.903-12.903v-49.032c0-7.742-5.161-12.903-12.903-12.903H614.19v-20.645h92.903v-30.968z" stroke-width="25.806"/><path class="st0" d="M41.29 629.68c-7.742 0-12.903 5.162-12.903 12.904V707.1h80v20.645H-.003v28.387h136.77c7.742 0 12.903-5.161 12.903-12.903v-49.032c0-7.742-5.161-12.903-12.903-12.903H67.09v-20.645h92.903v-30.968z" stroke-width="25.806"/><circle cx="170.32" cy="781.94" r="18.065" stroke-width=".432"/><circle cx="203.87" cy="781.94" r="18.065" stroke-width=".432"/></g><g transform="translate(-221.94 -25.806) scale(25.806)"><radialGradient id="path4500_1_" cx="-64.981" cy="-421.73" r="2.759" gradientTransform="matrix(7.95 -.23 .2 6.75 619.87 2846.8)" gradientUnits="userSpaceOnUse"><stop stop-color="#F3F3F4" offset="0"/><stop stop-color="#F2F2F2" offset=".34"/><stop stop-color="#929497" offset="1"/></radialGradient><path d="M32.6 11.3c0 5.7-4.6 10.3-10.3 10.3S12 17 12 11.3 16.6 1 22.3 1s10.3 4.6 10.3 10.3z" fill="url(#path4500_1_)"/><path d="M12 12c0 .8.2 1.4.4 2.1.1.3.2.7.3 1 0 .1.1.2.2.3 2 3.1 5.4 4.4 8.8 3.1 3.8-1.4 4.5-5.3 6.7-8.5 2.1-3.1 3.4-2.5 3.5-2.4-.1-.3-.3-.6-.4-.9-.1-.1-.2-.3-.3-.4-2.3-.4-3.3 1-6 4-1.1 1.3-2.2 2.2-3 2.9-1.3 1.2-2.8 1.5-4.4 1.6-3.2 0-5.2-1.6-5.8-2.8z" fill="none" stroke="#000" stroke-width=".21"/><radialGradient id="path4570_1_" cx="12.894" cy="-340.81" r="9.982" gradientTransform="matrix(.89 -.06 .06 .83 31 297.77)" gradientUnits="userSpaceOnUse"><stop stop-color="#F3F3F4" offset="0"/><stop stop-color="#E5E5EF" offset=".41"/><stop stop-color="#828384" offset="1"/></radialGradient><path d="M12 12c0 .8.2 1.4.4 2.1.1.3.2.7.3 1 0 .1.1.2.2.3 2 3.1 5.4 4.4 8.8 3.1 3.8-1.4 4.5-5.3 6.7-8.5 2.1-3.1 3.4-2.5 3.5-2.4-.1-.3-.3-.6-.4-.9-.1-.1-.2-.3-.3-.4-2.3-.4-3.3 1-6 4-1.1 1.3-2.2 2.2-3 2.9-1.3 1.2-2.8 1.5-4.4 1.6-3.2 0-5.2-1.6-5.8-2.8z" fill="url(#path4570_1_)"/><linearGradient id="path4541_1_" x1="23.178" x2="18.379" y1="-298.16" y2="-299.76" gradientTransform="translate(0 312.11)" gradientUnits="userSpaceOnUse"><stop stop-color="#828384" offset="0"/><stop stop-color="silver" offset="1"/></linearGradient><path d="M30.4 8c-3.1 1.6-4.1 8.1-8.5 9.9-4.6 1.9-7.7-.8-8.7-2l.7 1c1 1 2.8 2.1 5 2.1 3.9 0 5.9-2.7 6.4-3.5.5-.7 3.1-6.1 4.3-7 .3-.1.5-.3.8-.5zm-13 12.4c.1 0 .1.1.1.1z" fill="url(#path4541_1_)"/><linearGradient id="path4543_1_" x1="18.216" x2="29.976" y1="-294.54" y2="-307.93" gradientTransform="translate(0 312.11)" gradientUnits="userSpaceOnUse"><stop stop-color="#F3F3F4" offset="0"/><stop stop-color="#F3F3F4" stop-opacity=".79" offset=".21"/><stop stop-color="#F3F3F4" stop-opacity="0" offset="1"/></linearGradient><path d="M31.5 7.5c-.6 0-1.6.4-3.1 2.5-2.2 3.2-3 7.1-6.7 8.5-3.4 1.3-6.9 0-8.8-3.1l.3.6c.2.3.3.6.5.9s.4.6.6.8c.2.3.4.5.7.8.5.5 1 .9 1.6 1.3.3.2.6.4.9.5l.2.1c2.2 0 5.5-.4 7.8-2.7 3.5-3.5 3.3-9.5 6.8-9.7 0-.2-.1-.3-.2-.5h-.6z" fill="url(#path4543_1_)"/><linearGradient id="path4556_1_" x1="16.418" x2="29.325" y1="-299.43" y2="-307.51" gradientTransform="translate(0 312.11)" gradientUnits="userSpaceOnUse"><stop stop-color="#E6E6E6" offset="0"/><stop stop-color="#8C8E91" offset="1"/></linearGradient><path d="M29.8 5.8c-1.1 0-2.3.8-3.9 2.5-2.3 2.6-5.2 4.9-9.4 5-2.5 0-3.8-1.1-4.5-2.1v.8c.6 1.2 2.6 2.8 5.9 2.7 1.6-.1 3.1-.4 4.4-1.6.8-.6 1.8-1.6 3-2.9 2.7-3 3.7-4.4 6-4-.6-.2-1-.4-1.5-.4zm1.4.4c.1.1.2.3.3.4-.1-.1-.1-.2-.3-.4.1 0 .1 0 0 0z" fill="url(#path4556_1_)"/><linearGradient id="path4580_1_" x1="13.625" x2="31.863" y1="-298.01" y2="-304.47" gradientTransform="translate(0 312.11)" gradientUnits="userSpaceOnUse"><stop stop-color="#676869" offset="0"/><stop stop-color="#6F7071" offset=".19"/><stop stop-color="#E6E6E6" offset=".53"/><stop stop-color="#7B7C7D" offset=".8"/><stop stop-color="#515151" offset="1"/></linearGradient><path d="m31.3 6.4-.1-.1c-.3 0-.5-.1-.8-.1-.2 0-.5 0-.7.1s-.5.1-.7.3c-.2.1-.4.3-.7.4-.2.2-.5.4-.7.6-.1.1-.4.4-.6.7-.5.5-1.1 1.2-1.7 2-.6.7-1.1 1.2-1.6 1.7s-.9.9-1.4 1.2c-.3.3-.6.5-1 .7-.3.2-.7.4-1.1.5s-.8.2-1.1.3c-.4.1-.8.1-1.2.1h-1.2c-.4 0-.7-.1-1-.2l-.9-.3c-.3-.1-.5-.2-.8-.4-.2-.1-.5-.3-.7-.4s-.4-.3-.6-.5c-.2-.1-.3-.3-.4-.5-.1-.1-.2-.3-.3-.5v.5c.4.5 1.1 1.2 2.4 1.8 2.6 1.1 5.7.7 7.6-.7 1.8-1.4 3.7-3.7 3.7-3.7.7-.7 1.7-2 2.7-2.8.7-.7 1.8-1.1 2.9-.7z" fill="url(#path4580_1_)"/><linearGradient id="circle4582_1_" x1="22.101" x2="22.171" y1="-310.85" y2="-305.77" gradientTransform="translate(0 312.11)" gradientUnits="userSpaceOnUse"><stop stop-color="#fff" offset="0"/><stop stop-color="#fff" stop-opacity="0" offset="1"/></linearGradient><path d="M22.3 1.6c-2.7 0-5.2 1.1-7 3-1.5 1.7 1.2.7 1.2.7 1.7-.7 3.8-1.1 5.9-1.1 2 0 3.9.4 5.6 1 0 0 2.5 1 1.3-.8-1.9-1.8-4.4-2.8-7-2.8z" fill="url(#circle4582_1_)"/></g></svg>
