<svg width="688.87" height="800" version="1.1" viewBox="0 0 688.87 800" xmlns="http://www.w3.org/2000/svg" xmlns:xlink="http://www.w3.org/1999/xlink">
 <defs>
  <radialGradient id="radialGradient-1" cx="9.647" cy="9.3934" r="14.212" gradientTransform="scale(.99999 1)" gradientUnits="userSpaceOnUse">
   <stop stop-color="#EAEAEA" offset="0"/>
   <stop stop-color="#fff" offset=".38241"/>
   <stop stop-color="#BCC1C1" offset=".59138"/>
   <stop stop-color="#555F61" offset="1"/>
  </radialGradient>
  <linearGradient id="linearGradient-2" x1="2.7969" x2="16.206" y1="5.7845" y2="5.7845" gradientTransform="scale(1.1608 .86146)" gradientUnits="userSpaceOnUse">
   <stop stop-color="#EFEFEF" offset="0"/>
   <stop stop-color="#C6C6C6" offset="1"/>
  </linearGradient>
  <linearGradient id="linearGradient-3" x1="5.9634" x2="6.4608" y1="-.33687" y2="8.2773" gradientTransform="scale(1.9067 .52447)" gradientUnits="userSpaceOnUse">
   <stop stop-color="#fff" offset="0"/>
   <stop stop-color="#fff" stop-opacity="0" offset="1"/>
  </linearGradient>
  <linearGradient id="linearGradient-4" y1="1">
   <stop stop-color="#E78A00" offset="0"/>
   <stop stop-color="#F4F566" offset=".18854"/>
   <stop stop-color="#FFD700" offset=".29022"/>
   <stop stop-color="#F78B00" offset=".35654"/>
   <stop stop-color="#FDEE00" offset=".52513"/>
   <stop stop-color="#F89400" offset=".65743"/>
   <stop stop-color="#FFC800" offset=".72375"/>
   <stop stop-color="#F7F663" offset=".79482"/>
   <stop stop-color="#F19800" offset="1"/>
  </linearGradient>
  <linearGradient id="linearGradient1086" x1="2.6764" x2="15.468" y1="17.528" y2="4.7366" gradientTransform="scale(1.2162 .82221)" gradientUnits="userSpaceOnUse" xlink:href="#linearGradient-4"/>
  <linearGradient id="linearGradient1088" x2="12.993" y1="45.44" y2="32.448" gradientTransform="scale(1.7322 .5773)" gradientUnits="userSpaceOnUse" xlink:href="#linearGradient-4"/>
 </defs>
 <g transform="matrix(30.608 0 0 30.608 -306.08 -94.76)" fill="none" fill-rule="evenodd">
  <g transform="translate(10,3)">
   <path d="m11.322 0.095933c-4.4476 0-8.075 3.6275-8.075 8.0751 0 4.4477 3.6274 8.0752 8.075 8.0752 4.4477 0 8.0751-3.6275 8.0751-8.0752 0-4.4476-3.6274-8.0751-8.0751-8.0751z" fill="url(#radialGradient-1)"/>
   <path d="m9.4768 10.526c-3.8501 1.2762-6.1995-1.96-6.2217-1.9909 0.00125 0.028204 0.00259 0.056313 0.00403 0.084229 0.068017 1.2424 0.41693 2.41 0.98418 3.4405 0.84891 1.1335 2.0603 2.102 3.2975 2.3566 1.736 0.35706 3.295-0.08883 4.4717-0.93746 2.5403-1.8319 4.5742-8.9505 6.6662-8.6412-0.13344-0.29413-0.28406-0.57886-0.4505-0.85304l-6.71e-4 -9.593e-4 -0.0016-0.00278-9.59e-4 -0.00163c-0.23133-0.084904-0.45629-0.12433-0.67646-0.12433-2.5979 9.59e-5 -4.5226 5.4944-8.0718 6.671"/>
   <path d="m15.413 4.3653c-3.7499 3.5624-6.9292 9.2684-12.16 3.5069-0.00365 0.099195-0.00604 0.19868-0.00604 0.29874 0 2.5032 1.1389 4.7403 2.9268 6.2214 8.8784 4.0245 9.1468-7.7673 12.639-9.2418-0.18601-0.46077-0.41299-0.90072-0.6771-1.3147-0.19407-0.066002-0.55114-0.16232-0.97852-0.16232-0.53176 0-1.1724 0.14918-1.7436 0.69177" fill="url(#linearGradient-2)"/>
   <path d="m5.7394 3.7309c0.52188 0.14582 1.1473-0.20021 2.0808-0.54624 1.1006-0.408 2.6296-0.81601 4.9223-0.41789 3.9625 0.68803 5.3532 1.3477 4.3983 0.14208-1.5284-1.9294-3.7135-2.4355-5.8191-2.4766-0.03559-7.6747e-4 -0.0709-0.001055-0.10677-0.001055-3.2262 1.916e-4 -7.2347 2.8084-5.4755 3.2997" fill="url(#linearGradient-3)"/>
   <path d="m18.225 3.9794 9.59e-4 0.00154 0.0016 0.00288 6.71e-4 9.593e-4c0.16654 0.27408 0.31706 0.55881 0.4505 0.85304-2.0919-0.3093-4.1258 6.8091-6.6662 8.6411-1.1766 0.84862-2.7356 1.2946-4.4716 0.93746-1.2373-0.25451-2.4487-1.223-3.2975-2.3566-0.56725-1.0304-0.91616-2.198-0.98418-3.4404-0.00154-0.028013-0.00278-0.056121-0.00403-0.084325 0.022161 0.030986 2.3716 3.2671 6.2217 1.9909 3.85-1.2762 5.7883-7.6331 8.7482-6.5466" fill="#4d4d4d"/>
   <path d="m9.4504 10.55c-3.801 1.2249-6.1733-1.9851-6.1953-2.0149 0.052188 1.1736 0.35447 2.2818 0.85534 3.2729 0.84325 1.1824 2.1194 2.2235 3.4241 2.4846 1.7179 0.34354 3.2607-0.08548 4.4249-0.90187 2.6173-1.835 4.6914-9.1851 6.8528-8.2401l-0.0025-0.00604c-0.15138-0.39016-0.34602-0.7645-0.56408-1.1301l-0.0025-0.00422c-0.22112-0.078954-0.43678-0.1157-0.64898-0.1157-2.5984 5.756e-4 -4.6137 5.5178-8.1439 6.6555" fill="url(#linearGradient1086)"/>
   <path d="m17.343 18.732h-0.76123v4.7415h-0.83865v-1.925h-0.85007l3.83e-4 2e-3c-0.40992 0.02926-0.73619 0.37376-0.73619 0.79078v1.0213h-1.9588v-0.93871c0-0.48149-0.39381-0.87539-0.87539-0.87539h-2.8291v0.52648l8.634e-4 9.6e-5c-4.797e-4 0.01046-8.634e-4 0.02091-8.634e-4 0.03156 0 0.30689 0.25115 0.55824 0.55814 0.55824h1.6113v0.69772h-2.8368v-1.8141h-0.85006l4.797e-4 2e-3c-0.41002 0.02927-0.73629 0.37377-0.73629 0.79079v1.0213h-1.5097v-1.0213c0-0.41702-0.32627-0.76152-0.73619-0.79078l3.837e-4 -2e-3h-3.1196c-0.48149-1.4e-5 -0.87539 0.3937-0.87539 0.87538v1.2432c0 0.48149 0.3939 0.87549 0.87539 0.87549h1.3718v-1.92e-4h0.07454c0.30699 0 0.55824-0.25115 0.55824-0.55814 0-0.02456-0.00173-0.04883-0.0048-0.07252l0.00643-0.48561h-1.3464v-0.69782h1.6099v1.0213c0 0.43611 0.35668 0.79298 0.79279 0.79298h3.0957c0.24473 0 0.46451-0.11243 0.61023-0.28828v0.28828h7.3063c0.26238 0 0.49598-0.12932 0.64064-0.32732v0.35265h1.7648l9.6e-5 -1.92e-4c0.2523-0.0045 0.47362-0.14236 0.59622-0.34546v0.32032h3.6791c0.48149 0 0.87539-0.394 0.87539-0.87539v-1.2433c0-0.48149-0.3939-0.87539-0.87539-0.87539h-2.8292v0.52648l9.59e-4 9.6e-5c-5.76e-4 0.01046-9.59e-4 0.02091-9.59e-4 0.03156 0 0.30689 0.25115 0.55824 0.55814 0.55824h1.6113v0.69772h-2.9178v-4.6306zm2.4567 1.8774c0 0.34517 0.27974 0.62491 0.62481 0.62491s0.62481-0.27974 0.62481-0.62491c0-0.34498-0.27974-0.62472-0.62481-0.62472s-0.62481 0.27974-0.62481 0.62472zm-17.519-0.044225c-0.02264-0.32445-0.29298-0.58049-0.62328-0.58049-0.34507 0-0.62481 0.27974-0.62481 0.62472 0 0.34517 0.27974 0.62491 0.62481 0.62491 0.3303 0 0.60064-0.25624 0.62328-0.58068 0.02264 0.32445 0.29298 0.58068 0.62318 0.58068 0.34507 0 0.62481-0.27974 0.62481-0.62491 0-0.34498-0.27974-0.62472-0.62481-0.62472-0.3302 0-0.60054 0.25604-0.62318 0.58049zm11.545 4.9986c-0.022736-0.32445-0.29308-0.58059-0.62328-0.58059-0.34498 0-0.62472 0.27974-0.62472 0.62481s0.27974 0.62481 0.62472 0.62481c0.3302 0 0.60054-0.25614 0.62328-0.58068 0.02264 0.32454 0.29308 0.58068 0.62318 0.58068 0.34517 0 0.62491-0.27974 0.62491-0.62481s-0.27974-0.62481-0.62491-0.62481c-0.33011 0-0.60054 0.25614-0.62318 0.58059zm-4.1755 0.04423c0 0.34507 0.27974 0.62481 0.62491 0.62481 0.34498 0 0.62472-0.27974 0.62472-0.62481s-0.27974-0.62481-0.62472-0.62481c-0.34517 0-0.62491 0.27974-0.62491 0.62481zm-4.1723-0.04423c-0.022736-0.32445-0.29298-0.58059-0.62318-0.58059-0.34526 0-0.62501 0.27974-0.62501 0.62481s0.27974 0.62481 0.62501 0.62481c0.3302 0 0.60045-0.25614 0.62318-0.58068 0.02264 0.32454 0.29298 0.58068 0.62328 0.58068 0.34498 0 0.62472-0.27974 0.62472-0.62481s-0.27974-0.62481-0.62472-0.62481c-0.3303 0-0.60064 0.25614-0.62328 0.58059z" fill="url(#linearGradient1088)"/>
  </g>
 </g>
</svg>
