<svg width="800" height="128.2" version="1.2" viewBox="0 0 600 96.153" xmlns="http://www.w3.org/2000/svg">
 <g transform="matrix(.8 0 0 .8 -40.158 -65.314)" fill="#0090d4">
  <path d="m253.23 185.22c-17.21 0-31.668-12.344-34.28-29.774h32.585c3.5895 0 11.447 0.7379 11.447 0.7379v-14.458s-7.6976 0.55841-12.005 0.55841h-32.027c3.2306-17.11 17.27-28.916 34.28-28.916 8.9939 0 20.042 4.128 20.042 4.128l0.19961-15.216s-7.8372-2.9913-20.241-2.9913c-28.637 0-53.704 21.956-53.704 49.935 0 30.252 25.067 50.693 53.704 50.693 13.481 0 21.517-3.6095 21.517-3.6095l-0.37881-15.754s-9.9112 4.6665-21.139 4.6665"/>
  <path d="m155.75 199.52s1.0769-7.2788 1.0769-13.68v-69.438h-4.6665c-6.3814 0-16.253 0-23.532 0.71788l-0.61823-16.133h75.999l-0.35889 16.133c-7.5182-0.71788-17.21-0.71788-23.771-0.71788h-5.7832v69.438c0 6.4014 1.2763 13.68 1.2763 13.68h-19.623"/>
  <path d="m273.61 92.948c-5.5838-1.5755-12.903-2.6722-19.045-2.6722-16.691 0-31.05 5.0653-43.075 15.794l0.17919-11.866c12.723-8.6748 27.141-12.563 42.895-12.563 6.8999 0 12.902 0.95722 19.244 2.5925l-0.19961 8.7147"/>
  <path d="m121.71 186.02-26.403-25.526c16.253-1.5555 29.913-13.541 29.913-29.095 0-16.552-9.5124-31.209-37.87-32.386-1.1766-0.05973-2.413-0.09955-3.6893-0.09955-19.623 0-33.084 0.93726-33.084 0.93726s0.89738 9.7317 0.89738 14.618v71.552c0 6.6008-1.2763 13.501-1.2763 13.501h19.802s-1.2763-6.9-1.2763-14.797v-29.095l18.626 19.523 9.4126 9.7716c5.8031 6.3615 15.914 14.598 15.914 14.598h26.204s-11.726-8.2361-17.17-13.501m-38.807-37.192h-14.179v-35.836s6.9-0.19962 15.116-0.19962c1.2364 0 2.4329 0.0995 3.5098 0.13937 13.182 1.0968 18.626 8.3158 18.626 16.991 0 9.7317-7.6577 17.07-18.626 18.646-1.4159 0.1797-2.9315 0.25934-4.4471 0.25934"/>
  <path d="m431.97 104.28c0 2.5725-0.0408 7.4982-0.0408 11.945 0 1.5156 0.0408 70.774 0.0408 80.346 0 1.9942 1.8945 3.0711 3.0711 3.0711 1.1965 0 6.2419 0.0204 8.615 0.0204 1.4757 0 3.1509-1.3162 3.1509-3.0711v-63.336c-0.0204-0.0996 0-1.6752 0-2.6922 0-0.51848 0.49826-0.81759 0.83755-0.83755 0.27925 0 0.41862 0.0597 0.67802 0.27925 2.0541 1.6951 51.411 63.376 55.359 68.282 0.89738 1.0968 1.7948 1.396 2.6124 1.376 0.71794 0 2.3532 0.0204 4.3075 0.0204 1.5156 0 2.5127 0.0204 4.1878 0 0.99714-0.0204 1.4758-0.31907 2.1139-0.77777 0.41862-0.29916 1.1168-1.376 1.0968-2.1138-0.0597-2.6722 0.0408-12.464-0.0204-31.13-0.0796-30.511 0-59.686-0.0204-61.461-0.0204-0.45845-0.1797-1.3361-0.79768-2.0141-0.65811-0.71789-1.5156-1.0569-2.2535-1.0569-1.2165 0-6.8002-0.0408-8.6349 0-0.71789 0.0409-1.3361 0.17971-2.034 0.77772-0.71794 0.61824-1.0968 1.4159-1.0968 2.3332 0 2.413-0.0204 22.455-0.0204 28.078v37.97c0 0.15928-0.1797 0.5584-0.47836 0.67807-0.41862 0.13937-0.85751 0.0995-1.1766-0.39872-1.4358-2.2534-52.707-65.23-55.359-68.321-0.75781-0.87747-1.6153-1.1966-2.5127-1.1966h-8.4156c-0.75776 0.0204-1.6352 0.29917-2.2734 0.91735-0.55835 0.5584-0.93725 1.3361-0.93725 2.3133"/>
  <path d="m609.97 101.06c-0.95722 0.0204-3.3702 0.0204-8.1364 0-11.048-0.0408-30.352 0-36.035 0.0408-12.204 0.0995-12.564 0.0597-17.19 0.0597-4.7861 0-6.5011 2.1936-7.7774 3.8289-1.2763 1.6951-1.735 3.2107-1.735 6.202 0 7.3586-0.0408 73.287-0.0408 79.569 0 4.0283 3.3303 8.8942 8.954 8.8942 4.5866 0 22.933-0.0995 35.357-0.0796 9.9112 0.0204 20.72-0.0204 24.928-0.0204 1.2962 0 2.074-0.73785 2.4728-1.2165 0.39871-0.47836 0.69798-1.2763 0.69798-2.1138 0-0.97717 0.0204-1.9344 0.0204-3.3304 0-1.4957-0.0204-2.5924-0.0204-3.5098 0-0.83755-0.15928-1.7748-1.0569-2.5725-0.83756-0.77777-1.5355-0.85751-2.0939-0.85751-5.0653 0-10.529-0.0408-14.697-0.0597-4.3474-0.0408-20.939 0.0408-29.155 0.0408-6.5609 0-7.7176 0.25934-9.2531-0.83755-1.6153-1.1566-1.0569-4.128-1.0569-9.8514 0-7.3387-0.0204-14.538-0.0408-20.201h38.528c0.5584 0 4.5069 0.0408 7.2589 0 0.97713-0.0204 1.8945-0.5584 2.2335-0.91734 0.59827-0.63815 0.79768-1.2763 0.89739-1.8546 0.31907-1.6751 0.6581-3.45 0.89738-5.2248 0.25934-1.7948 0.47835-2.8717 0.61819-3.8488 0.13988-0.81765-0.69793-1.6752-1.5554-1.6552-0.99714 0.0204-1.2962 0-2.9116 0-1.3959 0-32.904-0.0204-45.986-0.0408-0.0204-8.0566-0.0408-18.028 0.0408-23.691 0.0204-1.356 0.51853-1.9942 1.0769-2.4728 0.51848-0.43854 1.2165-0.79768 1.9942-0.79768 0.87742-0.0204 1.7349 0 2.772 0 4.0482 0 10.829-0.0204 15.435 0h31.588c0.61824 0.0204 1.5355-0.15928 2.2136-0.93731 0.75776-0.79768 0.73785-1.4757 1.1168-3.7092 0.39872-2.413 0.9173-4.9257 1.1965-6.9598 0.11946-0.97718-0.63814-1.8746-1.5555-1.8746"/>
  <path d="m365.4 99.828c-27.64 0-49.935 23.133-49.935 51.191s22.315 50.812 49.955 50.812 50.114-22.754 50.114-50.812-22.515-51.191-50.134-51.191m0.0996 87.486c-19.543 0-34.36-16.053-34.36-36.893 0-21.039 14.897-36.195 34.28-36.195 19.184 0 34.5 15.315 34.5 36.195 0 20.54-15.156 36.893-34.42 36.893"/>
 </g>
 <path d="m597.19 15.59h-108.76c-1.5475 0-2.7919 1.2603-2.7919 2.8078v73.339c0 1.5475 1.2444 2.8078 2.7919 2.8078h108.76c1.5635 0 2.8078-1.2603 2.8078-2.8078v-73.339c0-1.5475-1.2444-2.8078-2.8078-2.8078" fill="#0090d4"/>
 <path d="m541.77 55.34c0 0.35083-0.12743 0.62222-0.38268 0.81364-0.25527 0.19155-0.59028 0.28712-0.98914 0.28712h-11.04v10.96c0 0.39901-0.0956 0.73387-0.30304 0.98913-0.19154 0.25526-0.46264 0.38268-0.78174 0.38268h-4.818c-0.70197 0-1.0689-0.46264-1.0689-1.372v-10.96h-11.008c-0.39861 0-0.71791-0.11149-0.97316-0.30304-0.25526-0.20747-0.38268-0.47862-0.38268-0.79771v-4.7701c0-0.73388 0.44672-1.1168 1.356-1.1168h11.008v-11.056c0-0.90937 0.36676-1.372 1.0689-1.372h4.818c0.35082 0 0.60625 0.12742 0.81364 0.36675 0.19154 0.27118 0.27118 0.59028 0.27118 1.0051v11.056h11.04c0.92534 0 1.372 0.38269 1.372 1.1168zm29.849 22.941c0 0.39902-0.12742 0.71791-0.38268 0.97317-0.25526 0.25525-0.55834 0.38268-0.90934 0.38268h-6.8441c-0.36716 0-0.65411-0.12743-0.92534-0.38268-0.25525-0.25526-0.36676-0.57432-0.36676-0.97317v-39.82l-8.0406 3.3981c-0.31897 0.15969-0.59028 0.23933-0.84554 0.23933-0.47862 0-0.73388-0.30304-0.73388-0.90937v-5.9347c0-0.3349 0.15969-0.59032 0.47862-0.76577l11.199-5.2966c0.3349-0.20747 0.86147-0.30304 1.5634-0.30304h4.5149c0.36675 0 0.68601 0.1115 0.9253 0.36676 0.23933 0.23933 0.36675 0.55834 0.36675 0.9253v48.1" fill="#fff"/>
</svg>
