<svg width="213.32" height="89.998" version="1.1" viewBox="0 0 199.99 84.374" xml:space="preserve" xmlns="http://www.w3.org/2000/svg"><g transform="matrix(0 1.25 1.25 0 -840.42 -31.067)" fill="#fff"><path d="m42.991 716.61h36.034c8.0782 0 12.253 4.5383 12.253 13.252v24.325h-9.8936v-18.97c0-3.2676-1.7246-4.9922-4.8106-4.9922h-4.9922v20.876h-9.712v-20.876h-8.9859v23.055h-9.8936v-36.67"/><path d="m91.552 672.96c0.36307 4.5383 0.72613 10.438 0.72613 15.793 0 7.6244-0.72613 11.709-2.6322 15.249-2.5415 4.7199-7.0798 7.2613-13.343 7.2613-8.3505 0-12.617-4.0845-14.704-14.25-0.09077-0.63537-0.36307-1.3615-0.45383-2.0876-1.0892-5.8998-1.6338-8.5321-5.0829-8.5321-3.903 0-4.1753 4.266-4.1753 9.2582 0 4.6291 0.63537 8.9859 1.0892 13.07l-9.8936-0.18153c-0.09077-1.18-1.0892-7.6244-1.0892-14.341 0-3.6307 0-7.8059 1.3615-11.89 1.9969-6.3537 6.8075-9.8936 14.069-9.8936 7.9875 0 11.8 3.9937 14.25 14.704 1.8153 7.9875 2.3599 10.166 5.8091 10.166 4.266 0 4.6291-4.5383 4.6291-10.71 0-4.266-0.36307-8.8044-0.99843-13.615h10.438"/><path d="m91.552 760.18c0.36307 4.4476 0.72613 10.347 0.72613 15.884 0 7.5336-0.72613 11.618-2.6322 15.067-2.5415 4.8106-7.0798 7.2613-13.343 7.2613-8.3505 0-12.617-4.0845-14.704-14.069-0.09077-0.8169-0.36307-1.543-0.45383-2.2692-1.0892-5.8091-1.6338-8.5321-5.0829-8.5321-3.903 0-4.1753 4.4476-4.1753 9.349 0 4.7199 0.63537 8.9859 1.0892 13.07l-9.8936-0.0908c-0.09077-1.18-1.0892-7.8059-1.0892-14.523 0-3.6307 0-7.8059 1.3615-11.8 1.9969-6.3537 6.8075-9.8028 14.069-9.8028 7.9875 0 11.8 3.9937 14.25 14.613 1.8153 8.0782 2.3599 10.257 5.8091 10.257 4.266 0 4.6291-4.7199 4.6291-10.71 0-4.3568-0.36307-8.9859-0.99843-13.706h10.438"/><path d="m24.929 817.27 28.591 14.976c-1.543-4.7199-2.4507-9.712-2.4507-14.976 0-5.3552 0.90767-10.347 2.4507-15.067l-28.591 15.067"/></g></svg>
