<svg width="800" height="324.38" version="1.1" viewBox="0 0 211.67 85.825" xmlns="http://www.w3.org/2000/svg">
 <defs>
  <linearGradient id="linearGradient1245" x1="-63.558" x2="252.56" y1="-246.52" y2="-246.52" gradientTransform="matrix(0 -.20731 .20731 0 53.989 152.87)" gradientUnits="userSpaceOnUse">
   <stop stop-color="#15b4b0" offset="0"/>
   <stop stop-color="#138582" offset="1"/>
  </linearGradient>
 </defs>
 <g transform="translate(34.018 -80.218)">
  <g transform="matrix(.56633 0 0 .56633 643.74 550.41)" fill="#15b4b0" style="shape-inside:url(#rect905);white-space:pre" aria-label="SHOPPING">
   <path d="m-1036.2-779.4-3.6914 2.1875q-1.0352-1.7578-1.9727-2.3438-0.9765-0.625-2.5195-0.625-1.8945 0-3.1445 1.0742-1.25 1.0547-1.25 2.6562 0 2.207 3.2812 3.5547l3.0078 1.2305q3.6719 1.4844 5.3711 3.6328 1.6992 2.1289 1.6992 5.2344 0 4.1602-2.7734 6.875-2.793 2.7344-6.9336 2.7344-3.9258 0-6.4844-2.3242-2.5195-2.3242-3.1445-6.543l4.6094-1.0156q0.3125 2.6367 1.0937 3.6719 1.4063 1.9531 4.1016 1.9531 2.1289 0 3.5351-1.4258 1.4063-1.4258 1.4063-3.6133 0-0.87891-0.2539-1.6016-0.2344-0.74218-0.7617-1.3476-0.5079-0.625-1.3282-1.1524-0.8203-0.54687-1.9531-1.0352l-2.9101-1.2109q-6.1915-2.6172-6.1915-7.6562 0-3.3984 2.5977-5.6836 2.5977-2.3047 6.4648-2.3047 5.2149 0 8.1446 5.0781z"/>
   <path d="m-1022.6-772.09h13.008v-11.797h4.5508v30.156h-4.5508v-14.082h-13.008v14.082h-4.5508v-30.156h4.5508z"/>
   <path d="m-996.56-768.95q0-6.3672 4.668-10.938 4.6484-4.5703 11.172-4.5703 6.4453 0 11.055 4.6094 4.6289 4.6094 4.6289 11.074 0 6.5039-4.6484 11.035-4.668 4.5508-11.27 4.5508-5.8398 0-10.488-4.043-5.1172-4.4726-5.1172-11.719zm4.5898 0.0586q0 5 3.3594 8.2226 3.3398 3.2227 7.7148 3.2227 4.7461 0 8.0078-3.2812 3.2617-3.3203 3.2617-8.0859 0-4.8242-3.2227-8.0859-3.2031-3.2812-7.9297-3.2812-4.707 0-7.9492 3.2812-3.2422 3.2422-3.2422 8.0078z"/>
   <path d="m-952.01-765.98v12.246h-4.5508v-30.156h5.1562q3.7891 0 5.7226 0.52734 1.9531 0.52734 3.4375 1.9922 2.5977 2.5391 2.5977 6.4062 0 4.1406-2.7734 6.5625t-7.4805 2.4219zm0-4.2188h1.6992q6.2695 0 6.2695-4.8242 0-4.668-6.4648-4.668h-1.5039z"/>
   <path d="m-927.66-765.98v12.246h-4.5508v-30.156h5.1562q3.7891 0 5.7227 0.52734 1.9531 0.52734 3.4375 1.9922 2.5977 2.5391 2.5977 6.4062 0 4.1406-2.7734 6.5625t-7.4805 2.4219zm0-4.2188h1.6992q6.2695 0 6.2695-4.8242 0-4.668-6.4648-4.668h-1.5039z"/>
   <path d="m-903.3-783.89v30.156h-4.5508v-30.156z"/>
   <path d="m-893.31-753.73v-32.207l21.992 23.008v-20.957h4.5508v31.992l-21.992-22.949v21.113z"/>
   <path d="m-840.96-769.44h12.461v0.99609q0 3.5156-0.80078 6.0156-0.78125 2.4219-2.6367 4.5312-4.1992 4.7266-10.684 4.7266-6.3281 0-10.84-4.5703-4.5117-4.5898-4.5117-11.016 0-6.5625 4.5898-11.133 4.5898-4.5898 11.172-4.5898 3.6523 0 6.6016 1.4453 2.9297 1.4453 5.7617 4.6875l-3.2422 3.1055q-3.7109-4.9414-9.043-4.9414-4.7852 0-8.0273 3.3008-3.2422 3.2422-3.2422 8.125 0 5.0391 3.6133 8.3008 3.3789 3.0273 7.3242 3.0273 3.3594 0 6.0352-2.2656 2.6758-2.2852 2.9883-5.4688h-7.5195z"/>
  </g>
  <path d="m31.699 100.55 8.085 65.493h-73.802l8.085-65.535z" fill="url(#linearGradient1245)" stroke-width=".20713"/>
  <path d="m2.7773 80.218c-5.5616 0-9.5518 3.1275-12.33 7.2679-0.85984 1.3034-1.5676 2.7095-2.1172 4.1595-1.0688 2.8148-1.5576 5.8971-1.5244 8.9045 0.06628 2.0257 0.27529 4.0046 0.8511 5.9536h2.2889c-0.4826-1.9698-0.89494-3.9155-0.87215-5.9536-0.02782-2.7736 0.44703-5.6005 1.4657-8.2008 0.49822-1.2718 1.1264-2.4896 1.8897-3.6202 2.9622-3.627 5.909-6.0258 10.348-6.0666 4.4394 0.04079 7.3858 2.4396 10.348 6.0666 0.76328 1.1306 1.3914 2.3484 1.8897 3.6202 1.0187 2.6003 1.4936 5.4272 1.4657 8.2008 0.02278 2.0381-0.38955 3.9839-0.87215 5.9536h2.2889c0.57581-1.9491 0.78482-3.9279 0.8511-5.9536 0.03314-3.0075-0.45567-6.0897-1.5244-8.9045-0.54963-1.45-1.2574-2.8562-2.1172-4.1595-2.7782-4.1404-6.768-7.2679-12.33-7.2679z" fill="#fff" stroke-width=".20713"/>
  <path d="m-2.0209 143.47c0-2.3485 0.43462-4.5293 1.3039-6.5424 0.88453-2.013 2.0893-3.7439 3.6143-5.1927s3.3093-2.5849 5.3528-3.4084c2.0588-0.83877 4.2396-1.2582 6.5424-1.2582 2.3485 0 4.537 0.41938 6.5652 1.2582 2.0283 0.82352 3.8049 1.9597 5.3299 3.4084 1.5403 1.4488 2.7451 3.172 3.6143 5.1698 0.88453 1.9978 1.3268 4.1862 1.3268 6.5652 0 2.2113-0.37363 4.2167-1.1209 6.0162-0.73201 1.7995-1.83 3.5076-3.2941 5.1241l5.6859 5.6273h-6.7611l-2.5849-2.8594c-1.3725 0.80825-2.7603 1.403-4.1633 1.7843-1.403 0.38126-2.9052 0.57188-4.5064 0.57188-2.318 0-4.5065-0.40413-6.5652-1.2124-2.0435-0.82352-3.8355-1.952-5.3757-3.3856-1.525-1.4335-2.7374-3.1416-3.6372-5.1241-0.88451-1.9825-1.3268-4.1633-1.3268-6.5424zm6.2678 0.0458c0 1.4945 0.25925 2.8899 0.77776 4.1862 0.51853 1.2963 1.2353 2.4248 2.1503 3.3856 0.93026 0.94552 2.0359 1.7004 3.3169 2.2647 1.281 0.56426 2.6688 0.84639 4.1633 0.84639 0.83877 0 1.6165-0.0915 2.3333-0.2745 0.73203-0.19826 1.4412-0.54139 2.1274-1.0294l-6.5955-6.4279h6.87l3.4771 3.5685c0.89977-0.96076 1.5327-1.9749 1.8987-3.0424 0.38124-1.0675 0.57186-2.257 0.57186-3.5686 0-1.4945-0.2745-2.8899-0.82351-4.1862s-1.2886-2.4324-2.2189-3.4084c-0.93027-0.99127-2.0435-1.769-3.3398-2.3333s-2.6993-0.84638-4.2091-0.84638c-1.525 0-2.9281 0.28975-4.2091 0.86925-1.281 0.57951-2.3943 1.3649-3.3398 2.3562-0.93025 0.97602-1.6546 2.1198-2.1732 3.4313-0.5185 1.3115-0.77776 2.7145-0.77776 4.2091z" fill="#172433" style="white-space:pre"/>
  <g transform="matrix(.26458 0 0 .26458 -34.547 56.506)" fill="#fff">
   <path d="m302.09 313.22c0-6.2135 1.1499-11.983 3.4496-17.309 2.3402-5.3258 5.5276-9.9052 9.5623-13.738 4.0347-3.833 8.7554-6.8388 14.162-9.0176 5.4469-2.2191 11.217-3.3286 17.309-3.3286 6.2135 0 12.003 1.1095 17.369 3.3286 5.3662 2.1788 10.067 5.1846 14.101 9.0176 4.0751 3.833 7.2625 8.3922 9.5623 13.678 2.3402 5.2855 3.5103 11.075 3.5103 17.369 0 5.8503-0.98852 11.156-2.9656 15.917-1.9366 4.761-4.8416 9.2798-8.715 13.557l15.043 14.888h-17.888l-6.8388-7.5651c-3.6312 2.1384-7.3028 3.7119-11.015 4.7206-3.7119 1.0087-7.6861 1.513-11.923 1.513-6.1328 0-11.923-1.0692-17.369-3.2076-5.4066-2.1787-10.147-5.1644-14.222-8.957-4.0347-3.7926-7.2423-8.3115-9.6228-13.557-2.3401-5.2452-3.5102-11.015-3.5102-17.309zm16.583 0.12116c0 3.954 0.68589 7.6458 2.0577 11.075 1.3718 3.4295 3.2682 6.4152 5.689 8.9571 2.4612 2.5015 5.3863 4.4987 8.7754 5.9916 3.3891 1.4928 7.0607 2.2392 11.015 2.2392 2.2191 0 4.2768-0.24208 6.1731-0.72623 1.9367-0.52452 3.8128-1.4323 5.6284-2.7234l-17.45-17.006h18.176l9.1992 9.441c2.3805-2.5419 4.0549-5.225 5.0232-8.0493 1.0086-2.8243 1.513-5.9714 1.513-9.4412 0-3.954-0.72624-7.6458-2.1787-11.075-1.4525-3.4295-3.4093-6.4354-5.8704-9.0176-2.4612-2.6226-5.4065-4.6803-8.836-6.1731s-7.1415-2.2392-11.136-2.2392c-4.0347 0-7.7467 0.76658-11.136 2.2998-3.3892 1.5332-6.3345 3.6111-8.836 6.2336-2.4611 2.5822-4.3776 5.6083-5.7495 9.0781-1.3718 3.4699-2.0577 7.1818-2.0577 11.136z" style="white-space:pre"/>
   <path d="m397.67 323.63v-50.595h16.098v47.327q0 3.9944 0.24169 7.6861 0.2417 3.6312 2.3602 7.202 2.2394 3.8128 6.1732 5.7494 3.9945 1.9367 8.3518 1.9367 4.3576 0 8.231-1.9367 3.8733-1.9972 6.2336-5.7494 2.1182-3.3286 2.3602-7.1415 0.2417-3.8733 0.2417-7.7467v-47.327h16.099v50.595q0 5.931-1.1499 11.559-1.1499 5.6284-4.9024 10.47-2.3602 3.0866-5.5072 5.3258-3.147 2.2393-6.7179 3.7523-3.5102 1.4525-7.3835 2.1182-3.8129 0.72627-7.5046 0.72627-7.5651 0-15.009-2.784-7.4442-2.784-12.165-9.1386-3.5706-4.8417-4.8417-10.47-1.2103-5.6284-1.2103-11.559z" style="white-space:pre"/>
   <path d="m465.94 357.59 35.828-84.426h12.165l34.799 84.426h-17.369l-7.0204-17.49h-33.71l-7.5651 17.49zm29.776-30.502h23.664l-11.68-29.716z" style="white-space:pre"/>
   <path d="m557.5 357.59v-82.671h23.906q5.4468 0 11.075 1.2709 5.6284 1.2104 9.9859 4.6601 4.1154 3.3286 6.1126 8.3519 2.0577 5.0232 2.0577 10.228 0 3.8128-1.2709 7.9282-1.2104 4.1154-3.4497 7.202-2.6024 3.5707-6.1731 5.4469-3.5708 1.8762-7.9282 2.784l26.024 34.799h-19.972l-22.272-33.226h-1.9972v33.226zm16.099-44.604h4.5996q3.0866 0 5.931-0.60523 2.8445-0.66571 5.0838-2.0577 2.2393-1.4525 3.5102-3.8733 1.3315-2.4208 1.3315-5.9915 0-3.5708-1.3315-5.931-1.2709-2.3603-3.3892-3.7523-2.1182-1.4525-4.9627-2.0577-2.8445-0.66575-5.931-0.66575h-4.8417z" style="white-space:pre"/>
   <path d="m618.36 288.89v-13.98h53.198v13.98h-18.58v68.691h-16.159v-68.691z" style="white-space:pre"/>
   <path d="m680.51 357.59v-82.671h45.693v13.98h-29.595v18.398h28.505v13.98h-28.505v22.332h29.595v13.98z" style="white-space:pre"/>
   <path d="m741.66 357.59v-82.671h23.906q5.4468 0 11.075 1.2709 5.6284 1.2104 9.9859 4.6601 4.1154 3.3286 6.1126 8.3519 2.0577 5.0232 2.0577 10.228 0 3.8128-1.271 7.9282-1.2104 4.1154-3.4496 7.202-2.6024 3.5707-6.1732 5.4469t-7.9282 2.784l26.024 34.799h-19.972l-22.272-33.226h-1.9972v33.226zm16.099-44.604h4.5996q3.0866 0 5.9311-0.60523 2.8444-0.66571 5.0837-2.0577 2.2393-1.4525 3.5102-3.8733 1.3315-2.4208 1.3315-5.9915 0-3.5708-1.3315-5.931-1.2709-2.3603-3.3892-3.7523-2.1182-1.4525-4.9627-2.0577-2.8445-0.66575-5.931-0.66575h-4.8417z" style="white-space:pre"/>
  </g>
  <path d="m-18.894 141 4.3631-4.2109q1.0908 2.1815 2.9172 3.3992 1.8518 1.2176 4.3377 1.2176 2.1815 0 3.7542-1.2683 1.5981-1.2683 1.5981-3.6021 0-1.7757-1.1161-2.8157t-2.8411-1.725q-1.6996-0.71027-3.6528-1.3952-1.9532-0.6849-3.6782-1.7503-1.6996-1.0654-2.8157-2.7396-1.1161-1.6996-1.1161-4.4899 0-2.283 0.86249-4.1602 0.86246-1.8771 2.3338-3.1962 1.4966-1.3191 3.4498-2.0294 1.9787-0.71028 4.1602-0.71028 2.8157 0 5.4032 0.98931 2.6128 0.98931 4.7436 2.8664l-3.5513 4.6168q-1.1415-1.3444-2.4606-2.0547-1.3191-0.73564-3.1455-0.73564-0.83713 0-1.6996 0.25366-0.83713 0.25368-1.5474 0.76101-0.71026 0.48198-1.1415 1.2176-0.4312 0.71028-0.4312 1.6488 0 1.4459 1.1161 2.3084 1.1161 0.86247 2.8157 1.522 1.7249 0.63417 3.6528 1.3698 1.9533 0.73564 3.6782 1.9025 1.7249 1.1669 2.8411 3.0694 1.1161 1.8772 1.1161 4.8958 0 2.6382-0.91317 4.7943-0.91326 2.1308-2.5621 3.6021-1.6235 1.4713-3.8304 2.2576-2.2069 0.78637-4.7436 0.78637-3.9572 0-6.849-1.6488-2.8665-1.6742-5.048-4.9465z" fill="#fff" style="white-space:pre"/>
 </g>
</svg>
