<svg width="1334.7pt" height="348pt" version="1.1" viewBox="0 0 1334.7 348" xmlns="http://www.w3.org/2000/svg">
 <defs>
  <linearGradient id="linearGradient959" x1="-8600.5" x2="-8600.5" y1="-4687.6" y2="-4591.4" gradientTransform="matrix(-2.9812,0,0,-2.9812,-24493,-13655)" gradientUnits="userSpaceOnUse">
   <stop stop-color="#a80000" offset="0"/>
   <stop stop-color="#a1000c" offset=".38129"/>
   <stop stop-color="#b90019" offset="1"/>
  </linearGradient>
 </defs>
 <g transform="matrix(.75529 0 0 .75529 176.57 230.21)" fill="#fff">
  <path d="m945.57 43.83c6.04-0.88 12.15 4.99 10.98 11.17-0.63 7.87-11.85 11.5-16.8 5.19-5.47-5.38-1.52-15.3 5.82-16.36z"/>
  <path d="m644.68 55.04c-0.09-3.11 1.04-7.08 4.48-7.89 4.21-1.06 8.64-0.48 12.87 0.27-0.23 22.87-0.03 45.75-0.1 68.63-0.05 12.76 0.4 25.5 0.96 38.25-4.5 0.54-9.38 1.8-13.67-0.26-4.07-2.46-3.29-7.85-3.45-11.88-7.87 13.91-27.34 17.13-40.73 9.73-9.13-4.81-15.28-14.03-17.9-23.85-3.02-12.64-1.59-26.9 6.33-37.55 7.94-11.44 23.52-16.8 36.82-12.71 5.59 1.72 10.33 5.37 14.34 9.54 0.12-10.76-0.01-21.52 0.05-32.28m-25.24 36.67c-5.86 1.52-10.9 5.85-13.34 11.38-3.41 7.66-3.33 16.65-0.35 24.43 2.01 5.34 6.21 9.9 11.55 12.02 7.91 3.07 17.57 1.41 23.78-4.44 1.86-1.91 4.07-4.13 3.77-7.05-0.16-8.92 0.24-17.87-0.2-26.78-4.62-8.78-16.01-12.09-25.21-9.56z"/>
  <path d="m91.2 53.15c2.1-1.89 5.14-1.69 7.77-1.79 18.38 0.03 36.77-0.02 55.15 0.03 0.27 4.14 1.03 8.44-0.22 12.5-1.02 2.73-4.21 3.77-6.9 3.62-13.42 0.02-26.84 0-40.26-0.01v30.11c14.45 0.01 28.9-0.02 43.36 0.01 0.47 3.84 1.23 7.85 0.11 11.65-0.99 2.94-4.31 4.25-7.2 4.06-12.09 0.01-24.18-0.01-36.27 0-0.02 11.25 0.03 22.49 0 33.74 0.15 3.17-1.39 6.97-4.79 7.7-4.25 1.06-8.68 0.39-12.94-0.23 0.06-31.19 0.01-62.39 0.02-93.58 0.06-2.71 0.2-5.73 2.17-7.81z"/>
  <path d="m717.73 52.75c2.1-1.43 4.76-1.3 7.2-1.39 18.41 0.03 36.82-0.01 55.24 0.02 0.26 4.12 0.99 8.4-0.18 12.44-1.01 2.8-4.24 3.81-6.95 3.69-13.42 0.01-26.84 0-40.26 0-0.01 10.01 0.05 20.03-0.03 30.04 14.46 0.13 28.92 0.02 43.39 0.06 0.48 3.92 1.23 8.01 0.05 11.87-1.11 2.81-4.34 4.02-7.17 3.85-12.08 0.01-24.16-0.01-36.23 0-0.02 11.22 0.02 22.44-0.01 33.66 0.13 3-1.13 6.61-4.23 7.61-4.41 1.32-9.08 0.58-13.53-0.07 0.1-31.22 0.01-62.43 0.04-93.65 0.04-2.85 0.28-6.19 2.67-8.13z"/>
  <path d="m329.81 59.74c3.86-3.83 9.96-2.66 14.76-1.65 0.04 6.58 0 13.17 0.02 19.75 8.67-0.03 17.35 0.02 26.02-0.04 1.02 4.46 2.1 11.8-3.67 13.31-7.43 0.63-14.92 0.06-22.37 0.27 0.08 12.54-0.07 25.08 0.07 37.61 0.03 4.42 1.93 9.37 6.34 11.08 4.91 1.78 10.21 0.3 14.85-1.6 2.49-1.15 5.68-0.96 7.63 1.13 2.24 2.62 2.14 6.34 1.97 9.58-4.12 3.28-9.48 4.77-14.61 5.71-8.35 1.28-17.82 0.55-24.45-5.24-6.1-5-8.65-13.07-8.73-20.73-0.08-12.51-0.03-25.03-0.02-37.54-4.04-0.02-8.08-0.02-12.11 0-0.2-4.03-1.71-9.15 1.61-12.31 3.09-1.97 7.02-1.05 10.49-1.24 0.43-5.99-1.38-12.78 2.2-18.09z"/>
  <path d="m168.49 81.04c9.32-2.51 18.84-4.62 28.54-4.6 8.66-0.29 18.09 0.82 24.99 6.53 6.33 5.24 8.23 13.87 8.51 21.7 0.54 16.48-1.31 33.3 3.36 49.38-4.47 0.97-9.5 2.29-13.77-0.03-4.55-2.86-4.73-8.76-4.99-13.55-2.61 3.24-4.88 6.89-8.33 9.34-7.86 5.88-18.51 6.97-27.86 4.66-7.56-1.82-14.01-7.77-16.02-15.35-2.06-8.32-0.41-18.12 6.07-24.14 5.64-5.29 13.47-7.39 21.01-7.98 8.13-0.82 16.25 0.48 24.29 1.59-0.09-5.66 0.21-13.2-5.6-16.28-7.14-3.03-15.28-2-22.7-0.61-4.46 0.74-8.99 3-13.54 1.8-4.34-2.39-4.08-8.18-3.96-12.46m17.21 39.69c-6.2 2.68-8.81 11.57-4.39 16.86 3.92 4.44 10.49 4.54 15.91 3.61 7.9-1.68 13.39-8.35 17.14-15.07 0-2.19 0-4.37 0.01-6.54-9.43-1.5-19.67-2.88-28.67 1.14z"/>
  <path d="m268.26 77.31c12.57-1.79 25.28 0.79 37.27 4.5-0.02 3.93 0.23 8.8-3.31 11.42-3.9 2.04-8.36 0.04-12.33-0.77-7.14-1.69-14.75-2.39-21.95-0.64-3.24 0.66-5.92 3.85-5.18 7.25 0.15 2.8 2.72 4.39 5.09 5.26 9.85 3.57 20.47 5.01 29.86 9.87 4.27 2.2 8.13 5.58 9.99 10.12 3.69 8.91 0.64 20.49-7.69 25.7-6.79 4.41-15.13 5.44-23.06 5.43-10.73-0.18-21.5-1.98-31.55-5.78-0.86-4.15-0.23-9.48 3.76-11.84 3.62-1.17 7.38 0.14 10.9 1.06 7.4 2.24 15.27 3.21 22.97 2.27 3.82-0.51 8.53-2.61 8.65-7.08 0.86-3.56-1.92-6.59-5.05-7.73-9.32-3.69-19.44-5.05-28.54-9.36-3.9-1.81-7.57-4.44-9.91-8.11-4.69-7.58-3.34-18.43 3.31-24.44 4.55-4.26 10.74-6.19 16.77-7.13z"/>
  <path d="m422.46 81.42c11.37-3.88 23.5-5.5 35.5-4.88 8.96 0.44 18.76 4.02 23.2 12.38 4.71 9.25 3.55 19.99 3.75 30.02-0.33 11.8 0.3 23.65 3.14 35.15-4.7 1.02-10.28 2.44-14.5-0.65-3.87-3.12-3.76-8.52-4.18-13.02-2.55 3.36-4.95 6.96-8.41 9.46-7.89 5.88-18.59 6.9-27.94 4.53-7.24-1.81-13.44-7.37-15.61-14.56-2.35-8.23-0.89-17.94 5.2-24.24 5.32-5.4 12.94-7.72 20.31-8.49 8.55-1 17.13 0.2 25.58 1.5-0.04-5.73 0.26-13.48-5.8-16.42-7.56-3.01-16.05-1.82-23.8-0.2-4.06 0.75-8.37 2.81-12.46 1.36-3.93-2.51-3.61-7.86-3.98-11.94m17.37 39.4c-6.12 2.74-8.66 11.48-4.29 16.75 3.81 4.33 10.15 4.55 15.45 3.72 7.2-1.32 12.73-6.95 16.35-13 1.89-2.52 1.17-5.79 1.28-8.72-9.47-1.47-19.79-2.9-28.79 1.25z"/>
  <path d="m503.53 78.49c4.2-1.02 9.02-2.27 13.04-0.04 3.62 2.2 3.65 6.91 4.07 10.64 5.68-7.55 14.75-12.83 24.35-12.67 8.48-0.21 17.37 3.27 22.24 10.45 5.04 6.96 5.89 15.81 6.04 24.13-0.03 12.01 0.02 24.02-0.02 36.02-0.01 2.89-0.91 6.49-3.96 7.56-4.37 1.41-9.06 0.55-13.49-0.09 0.03-14.84 0.02-29.67 0.01-44.5 0.05-5.48-1.26-11.54-5.65-15.21-4.14-3.59-10.06-4-15.25-3.15-5.88 1.2-10.87 5.21-14.15 10.15 0.09 15.09 0.04 30.19 0.04 45.28 0.1 2.83-0.68 6.19-3.56 7.42-4.41 1.55-9.2 0.66-13.71 0.06 0.05-25.35 0.05-50.7 0-76.05z"/>
  <path d="m795.76 77.74c4.15-1.07 8.5-0.29 12.7 0.14 0.04 15.07-0.06 30.13 0.04 45.19-0.05 6.24 2.34 13.1 8.18 16.13 9.51 5.26 22.25-0.09 26.76-9.5 0.28-14.89-0.03-29.81 0.13-44.7-0.06-2.89 1.22-6.23 4.21-7.17 4.25-1.22 8.74-0.38 13.05 0.05 0.26 20.69-0.6 41.42 0.65 62.09 0.27 4.57 1.11 9.08 2.05 13.56-4.54 1.64-9.88 2.76-14.41 0.6-4.43-2.45-3.94-8.12-4.65-12.42-4.38 6.17-10.41 11.81-18.06 13.32-8.75 1.76-18.78 0.42-25.56-5.79-6.72-6.1-9.51-15.47-9.49-24.34-0.13-13.3-0.05-26.62-0.05-39.93-0.22-3.03 1.32-6.4 4.45-7.23z"/>
  <path d="m881.48 78.45c4.37-1 9.61-2.4 13.59 0.45 3.95 3.4 3.06 9.14 3.44 13.78 2.44-6.04 6.63-11.82 12.92-14.22 5.13-2.22 10.82-1.61 16.21-0.91 1.11 4.14 1.87 9.35-1.3 12.8-3.3 3.03-8.1 1.85-12.14 2.35-5.33 0.47-10.82 3.11-13.41 7.98-2.33 4.37-2.14 9.49-2.13 14.29-0.01 11.02 0.07 22.03-0.02 33.05 0.11 2.74-1.29 5.87-4.1 6.67-4.27 1.21-8.77 0.43-13.07-0.14 0.05-25.37 0.03-50.74 0.01-76.1z"/>
  <path d="m942.53 77.79c4.22-1.14 8.65-0.35 12.92 0.11 0.01 23.02 0.01 46.05 0 69.08 0.04 2.85-0.88 6.32-3.78 7.5-4.36 1.53-9.08 0.65-13.53 0.07 0.11-23.22-0.04-46.44 0.07-69.66-0.08-2.92 1.3-6.23 4.32-7.1z"/>
  <path d="m1000.4 77.47c9.66-2.08 20.17-0.74 28.71 4.36 8.57 4.72 14.78 13.09 17.68 22.35 3.01 10.6 2.1 22.5-3.38 32.15-4.26 8.23-12 14.27-20.6 17.44-12.77 4.2-27.74 2.41-38.42-6.05-14.77-11.21-19.01-33.44-10.44-49.68 5.07-10.44 15.18-18.06 26.45-20.57m3.07 14.28c-7.71 2.18-13.51 9.08-15.28 16.77-1.86 7.94-1.03 16.86 3.57 23.75 3.74 5.72 10.4 9.49 17.27 9.35 6.61 0.2 13.03-3.29 16.87-8.59 3.61-4.87 5.1-11 4.87-17 0.23-6.87-2.07-13.9-6.78-18.96-5.17-5.39-13.39-7.49-20.52-5.32z"/>
  <path d="m1065.9 77.83c4.21-1.21 8.67-0.38 12.96 0.06 0.03 14.71-0.05 29.41 0.04 44.12 0.08 5.99 1.38 12.84 6.81 16.32 9.37 6.53 23.28 1.42 28.02-8.42 0.34-14.98-0.07-30 0.18-44.98 0.01-2.98 1.43-6.41 4.58-7.19 4.22-1.06 8.62-0.29 12.88 0.15 0.01 15.37 0 30.74 0 46.1-0.19 9.94 0.59 19.87 2.51 29.63-4.64 1.55-10.05 2.69-14.63 0.4-4.12-2.6-3.7-8.02-4.21-12.24-3.7 4.66-7.9 9.2-13.39 11.72-7.28 2.99-15.71 2.96-23.07 0.26-7.7-2.87-13.18-10-15.26-17.79-1.92-6.81-1.69-13.96-1.69-20.96 0.05-10-0.06-20 0.04-30-0.07-2.89 1.23-6.24 4.23-7.18z"/>
  <path d="m1163.4 78.65c14.31-4.04 29.48-1.13 43.37 3.17-0.07 3.94 0.2 8.92-3.4 11.48-3.64 1.82-7.75 0.18-11.44-0.63-7.72-1.88-16.08-2.85-23.79-0.48-3.93 1.18-5.66 6.41-3.07 9.63 2.64 2.65 6.51 3.3 9.95 4.41 9.32 2.85 19.36 4.5 27.51 10.2 7.11 4.89 9.84 14.76 6.84 22.76-1.57 5.46-5.67 10-10.82 12.35-9.74 4.71-21.01 4.36-31.5 3.11-7.09-0.81-14.01-2.66-20.72-5.02-0.01-3.45-0.37-7.35 2.08-10.15 2.63-3.37 7.42-1.97 10.94-1.12 7.93 2.45 16.32 3.84 24.62 2.84 3.12-0.51 6.75-1.59 8.29-4.64 0.96-2.74 1.15-6.42-1.37-8.4-3.29-2.52-7.46-3.32-11.32-4.54-8.87-2.72-18.46-4.38-26.01-10.14-6.9-5.25-8.84-15.43-5.15-23.13 2.67-6.12 8.8-9.88 14.99-11.7z"/>
 </g>
 <g transform="matrix(.57585 0 0 .57585 0 .0028786)">
  <path d="m624.21 9e-5h1248v375.09h-1248z" fill="url(#linearGradient959)" stroke-width="2.9812"/>
  <path d="m624.21 375.09h-599.2c-13.753 0-25.006-11.253-25.006-25.006v-325.39c0-13.128 10.94-24.693 24.693-24.693h599.52z" fill="#fff" stroke-width="3.1257"/>
  <g transform="matrix(.75012 0 0 .75012 0 -6e-5)" fill="#fff">
   <path d="m1196.8 46.657c8.08-2.39 17.44-0.61 23.7 5.16 8.96 7.84 10.76 22.47 3.9 32.22-5.08 7.92-15.03 12.37-24.3 10.66-11.61-1.81-21.3-12.73-20.86-24.62-0.19-10.58 7.4-20.56 17.56-23.42z"/>
   <path d="m1017.4 133.46c21.37-5.8 43.96-4.99 65.59-1.1 16.56 3.21 33.02 8.13 47.94 16.07 0.82 7.45 0.64 15.53-3.01 22.28-2.45 4.57-7.4 7.7-12.63 7.47-7.67-0.23-14.56-3.99-21.59-6.62-14.68-6.05-30.63-9.09-46.51-8.39-14.87 0.74-29.66 5.3-41.92 13.84-11.33 7.69-20.34 18.59-26.21 30.93-6.65 14.05-9.41 29.77-8.95 45.25 0.46 14.4 3.53 28.88 10.19 41.73 7.95 15.91 21.5 28.99 37.82 36.15 20.99 9.32 45.36 8.45 66.93 1.55 8.87-2.71 17.08-7.36 26.16-9.37 5.62-1.4 12.21 0.36 15.57 5.29 4.85 6.95 5.01 16.04 4.14 24.15-14.07 7.02-29.27 11.67-44.63 14.88-25.46 5.02-52.52 5.76-77.23-3.13-24.95-8.67-46.58-26.38-60.09-49.06-11.77-19.51-17.68-42.39-17.5-65.12-0.26-25.49 7.13-51.2 21.84-72.12 15.21-21.84 38.36-37.9 64.09-44.68z"/>
   <path d="m1378.5 131.64c20.37-4.35 42.33-2.9 61.39 5.79 14.88 6.78 27.32 18.57 35.15 32.9 9.75 17.49 12.97 37.77 13.25 57.57 0 42.06 0.05 84.12-0.05 126.18 0.17 5.36-2.82 10.92-8.15 12.55-9.57 3.04-19.87 1.53-29.55-0.18-0.06-45.61 0.03-91.23-0.05-136.84-0.58-17.92-4.72-37.02-17.41-50.43-11.02-11.97-27.92-16.85-43.82-16.02-16.43 0.97-32.11 7.86-45.12 17.73-8.09 6.21-15.3 13.73-20.45 22.57-1.14 1.63-0.91 3.67-0.96 5.55 0.08 8.56 0.01 17.11 0.05 25.67 0.02 40.13 0.01 80.26-0.01 120.39 0.21 5.36-3.46 10.34-8.62 11.75-9.37 2.72-19.36 1.35-28.8-0.26-0.16-43.48-0.07-86.96-0.08-130.44 0.08-33.89-0.12-67.78 0.1-101.66 9.07-1.94 18.68-3.43 27.8-0.98 4.91 1.26 9.25 5.39 9.48 10.67 0.35 7.42-0.01 14.85 0.15 22.28 14.33-17.02 33.79-30.09 55.7-34.79z"/>
   <path d="m1579.1 150c30.74-21.87 72.51-26.73 107.67-13.3 16.58 6.46 31.22 17.69 41.88 31.93 10.87 14.34 17.8 31.44 21.11 49.08 3.01 15.84 2.86 32.18 0.27 48.06-60.29 0.07-120.59 0-180.88 0.04 2.21 17.04 8.77 33.95 20.77 46.51 10.38 11.11 24.48 18.3 39.23 21.59 22.1 4.92 45.28 2.4 66.72-4.37 7.84-2.21 15.32-5.66 23.31-7.37 5.57-1.42 11.72 1.3 14.58 6.26 4.25 7.17 3.74 15.87 3.17 23.87-19.57 8.63-40.34 14.62-61.56 17.38-19.3 2.53-39.12 2.24-58.08-2.43-16.65-4.06-32.58-11.5-45.88-22.37-14.06-11.32-25.03-26.31-31.98-42.94-9.86-23.76-12.22-50.39-7.98-75.68 5.19-30.3 22.29-58.65 47.65-76.26m17.36 30.27c-13.64 11.51-22.05 28.12-25.99 45.33-0.44 2.72-0.87 5.44-1.29 8.17 48.37 0 96.74-0.01 145.11 0-0.3-4.91-0.85-9.79-1.77-14.63-3.32-16.57-11.88-32.49-25.42-42.9-26.12-20.22-66.03-17.3-90.64 4.03z"/>
   <path d="m1879.3 133.17c21.25-6.87 45.68-4.8 64.78 7.1 11.91 7.31 21.04 18.49 27.09 31 9.14-13.12 20.8-24.75 35.02-32.29 17.83-9.56 39.11-11.94 58.81-7.71 14.06 3.02 27.23 10.4 36.75 21.24 12.31 13.79 18.58 32.08 20.24 50.29 0.97 10.37 0.4 20.8 0.55 31.21-0.04 40.16 0.05 80.34-0.06 120.5 0.17 5.76-3.84 11.05-9.43 12.42-9.4 2.54-19.36 1.27-28.79-0.52 0.01-42.8-0.01-85.61-0.02-128.42-0.23-11.22 0.66-22.52-0.93-33.67-1.46-9.94-5.03-19.84-11.76-27.44-6.16-7.04-14.97-11.41-24.12-12.93-27.02-5.03-54.58 11.73-66.73 35.54-1.21 2.79-0.57 5.94-0.69 8.89 0.02 48.58 0.05 97.16-0.02 145.74 0.28 5.65-3.22 11.29-8.82 12.76-9.59 2.65-19.77 1.3-29.4-0.44-0.01-29.46-0.01-58.92-0.01-88.38-0.17-22.64 0.32-45.29-0.26-67.92-0.73-9.29-2.85-18.66-7.59-26.77-4.58-7.96-12.01-14.27-20.7-17.29-14.94-5.25-31.92-3.43-45.78 4.04-10.33 5.46-19.26 13.56-25.69 23.31-1.78 2.98-4.3 5.92-4.24 9.58-0.1 3.75 0.03 7.5 0.02 11.25 0.04 46.59 0.01 93.19-0.01 139.78 0.3 5.58-3.05 11.21-8.58 12.75-9.48 2.73-19.63 1.5-29.16-0.36 0-50.27-0.03-100.54 0-150.8 0.02-27.01-0.01-54.02 0.01-81.03 8.65-1.91 17.74-3.44 26.53-1.45 5.05 1.07 9.59 5.03 10.31 10.32 0.86 6.75 0.19 13.59 0.4 20.37 10.8-13.94 25.39-25.23 42.28-30.67z"/>
   <path d="m2255.9 129.89c17.19-1.23 34.69-0.86 51.52 3.17 13.74 3.27 27.14 9.51 37.07 19.76 10.85 10.79 16.89 25.54 19.55 40.42 2.85 14.42 1.83 29.17 2.01 43.77-0.02 43.16 0.03 86.32-0.03 129.48-8.95 1.65-18.28 2.8-27.26 0.8-5.34-1.09-10.03-5.64-10.18-11.26-0.16-7.2 0.01-14.4-0.05-21.59-9.66 10.19-20.7 19.21-33.29 25.52-16.85 8.58-36.04 12-54.84 11.19-15.27-0.63-30.64-4.41-43.72-12.49-14.38-8.77-25.53-22.9-30.05-39.19-4.79-17.16-3.22-36.51 6.17-51.87 6.78-11.09 17.31-19.42 28.76-25.31 16.65-8.48 35.14-12.62 53.58-14.98 24.17-2.98 48.62-2.81 72.9-1.26-0.09-10.48-0.18-21.12-2.94-31.31-2.15-7.96-6.31-15.56-12.73-20.85-7.15-5.88-16.23-8.83-25.27-10.16-25.14-3.34-50.68 1.14-74.67 8.72-5.04 1.38-10 3.18-15.2 3.77-5.25 0.51-10.64-2.24-13.06-6.95-3.77-7.19-3.52-15.68-2.55-23.51 23.88-8.65 48.96-13.95 74.28-15.87m25.3 125.03c-17.4 1.05-35.09 2.99-51.35 9.62-9.34 3.91-18.36 10.1-23 19.37-7.01 13.91-3.62 32.09 7.98 42.52 7.95 7.51 18.67 11.45 29.43 12.56 16.59 1.49 33.6-1.83 48.41-9.5 13.04-6.54 24.33-16.26 33.43-27.61 0.8-1.14 2.07-2.21 1.91-3.77 0.07-14.33-0.06-28.67 0.05-42.99-15.61-0.88-31.25-0.94-46.86-0.2z"/>
   <path d="m1193.1 133.91c9.65-3.09 20.03-1.43 29.72 0.69 0 34.69-0.02 69.38 0 104.07 0.04 38.13-0.02 76.25 0.01 114.38 0.03 4.08-0.97 8.55-4.34 11.2-4.23 3.37-9.94 3.91-15.15 4.07-6.31 0.12-12.58-0.67-18.75-1.87-0.05-42.1-0.02-84.19-0.02-126.29 0.03-31.39-0.05-62.78 0.03-94.17-0.12-5.36 3.32-10.5 8.5-12.08z"/>
  </g>
  <path d="m421.97 333.52c4.0635 2.188 12.19 4.6886 22.818 4.6886 17.817 0.31257 27.507-6.5641 34.696-22.505l95.648-213.18c-4.0635-2.188-12.816-4.376-19.692-4.6886-12.19-0.31257-28.757 2.188-39.384 27.507l-30.945 73.142-60.952-98.461c-4.0635-1.2503-13.441-2.8132-20.63-2.8132-21.255 0-33.445 7.8144-45.948 21.255l-58.764 64.39 47.511 74.705c8.7521 13.753 20.317 20.63 39.072 20.63 12.19 0 22.505-2.8132 27.194-5.0012l-57.201-86.27 40.635-42.823 66.578 104.4zm-125.34-80.644c0 15.629-6.2515 24.693-36.884 24.693-4.0635 0-7.5018-0.31258-10.94-0.93773v-208.17c0-15.941 5.3138-32.195 36.258-32.195 3.7509 0 7.8144 0.31257 11.565 1.2503zm-63.452-31.257c0 29.382-19.067 50.637-58.139 55.013-28.132 3.1257-69.079-0.62514-88.458-2.8132-0.62515-3.1257-1.2503-7.1892-1.2503-10.315 0-25.631 13.753-31.57 26.881-31.57 13.441 0 34.696 2.188 50.637 2.188 17.504 0 22.505-5.9389 22.505-11.565 0-7.5018-6.8766-10.315-20.63-13.128l-36.571-6.564c-30.632-5.9389-46.886-27.194-46.886-49.699 0-27.506 19.38-50.324 57.513-54.7 28.757-3.1257 64.078 0.31257 83.145 2.8132 0.62514 3.4383 0.93772 6.564 0.93772 10.002 0 25.631-13.441 30.945-26.569 30.945-10.002 0-25.318-1.8754-43.135-1.8754-18.129 0-25.318 5.0012-25.318 10.94 0 6.2515 7.1892 9.0646 18.442 10.94l35.321 6.5641c36.259 6.8766 51.575 27.507 51.575 52.825" fill="url(#linearGradient959)" stroke-width="2.9812"/>
  <path d="m1872.2 375.09h420.6c13.753 0 25.006-11.253 25.006-25.006v-325.33c0-13.253-11.003-24.756-24.756-24.756h-420.85z" fill="#fff" fill-rule="evenodd"/>
  <g fill="url(#linearGradient959)" stroke-width="2.9812">
   <path d="m1943.7 100.27c6.5015-2.5006 13.503-1.2503 20.005 0.25006v75.768h87.02v-65.265c-0.2501-4.7511 2.0005-9.5022 6.7516-11.253 6.2516-2.0004 12.753-0.75018 19.005 0.75018v168.04c0.5001 4.5011-2.5007 8.7521-6.5017 10.252-6.5015 2.0004-13.003 0.75014-19.255-1.0002v-77.518h-87.02v68.266c0.2501 4.251-2.2505 8.252-6.0015 10.002-6.5016 2.2505-13.503 1.0002-20.005-0.75018v-166.79c-0.2501-4.251 1.7504-9.0021 6.0015-10.753z"/>
   <path d="m2117.7 101.52c2.7507-2.0005 6.2516-2.2506 9.5024-2.2506h31.007c14.253 0 28.257 0.50012 41.76 5.0012 21.755 6.5015 40.76 21.755 50.512 42.26 8.2519 18.004 10.002 38.509 7.0016 57.764-4.0009 22.505-16.754 43.76-35.508 57.013-15.754 11.003-35.008 16.754-54.263 16.754h-40.509c-3.751-0.25006-8.2521 0-10.753-3.2508-2.7507-3.5008-2.5006-8.0019-2.5006-12.253v-150.04c0-4.0009 0.2501-8.502 3.7509-11.003m22.255 21.505v131.28h27.757c16.004-0.25006 32.508-5.2512 44.26-16.504 14.003-12.503 20.755-31.757 20.255-50.262 0.5001-14.503-4.001-29.257-13.003-40.76-8.2521-10.502-20.255-17.754-33.258-21.005-7.5018-2.2505-15.504-2.7507-23.506-2.7507z"/>
  </g>
  <path d="m25.006 0c-13.753 0-25.006 11.253-25.006 25.006v226.3c0-20.005 16.003-36.509 36.008-37.259l2281.8-69.266v-119.78c0-13.753-11.253-25.006-25.006-25.006z" fill="#fff" opacity=".2"/>
 </g>
</svg>
