<svg width="3664.9" height="969" enable-background="new 0 0 2459.8 500" space="preserve" version="1.1" viewBox="0 0 3664.9 969" xmlns="http://www.w3.org/2000/svg">
 <defs>
  <linearGradient id="linearGradient1545" x1="-625.21" x2="-403.69" y1="653.82" y2="653.82" gradientTransform="matrix(7.5001 0 0 -7.5001 3906.6 4671.7)" gradientUnits="userSpaceOnUse">
   <stop stop-color="#FF0031" offset="0"/>
   <stop stop-color="#9B001F" offset="1"/>
  </linearGradient>
  <linearGradient id="linearGradient1547" x1="-735.16" x2="-730.71" y1="1190.1" y2="1190.1" gradientTransform="matrix(-1.3157 -37.678 -37.678 1.3157 42656 -29484)" gradientUnits="userSpaceOnUse">
   <stop stop-color="#fff" offset="0"/>
   <stop stop-color="#fff" stop-opacity=".4" offset=".5"/>
   <stop stop-color="#fff" stop-opacity=".25" offset="1"/>
  </linearGradient>
  <linearGradient id="linearGradient1549" x1="-721.24" x2="-716.8" y1="1180.7" y2="1180.7" gradientTransform="matrix(-1.9565 -56.026 -56.026 1.9565 64789 -42973)" gradientUnits="userSpaceOnUse">
   <stop stop-color="#fff" offset="0"/>
   <stop stop-color="#fff" stop-opacity=".4" offset=".5"/>
   <stop stop-color="#fff" stop-opacity=".25" offset="1"/>
  </linearGradient>
 </defs>
 <link rel="stylesheet" type="text/css"/>
 <link rel="stylesheet" type="text/css"/>
 <style type="text/css"/>
 <g transform="translate(-3414.1 304.14)">
  <g transform="matrix(1.2 0 0 1.2 3396 551.25)">
   <g transform="matrix(.99999 0 0 .99999 716.31 -712.82)">
    <path d="m2329.6 0c12.9 0 23.3 10.94 23.3 24.276v451.45c0 13.336-10.5 24.276-23.3 24.276h-607.9c-12.9 0-23.3-10.94-23.3-24.276v-451.34c0-13.44 10.5-24.276 23.3-24.276h607.9" fill="#fff" stroke-width="1.0207"/>
    <g fill="#00396e">
     <g fill="#9b001f">
      <path d="m2034.6 153.8v184.7c0 8.1-4.1 12.6-16.7 12.6-5.7 0-11-0.8-15.1-1.6v-85h-105.4v74.1c0 8.1-4.1 12.6-16.7 12.6-6.1 0-12.2-0.8-15.1-1.6v-184.8c0-7.8 4.1-12.6 17.1-12.6 5.7 0 11.3 0.8 14.6 1.6v82.2h104.9v-71.2c0-7.8 4.5-12.6 17.5-12.6 6 0 11.6 0.8 14.9 1.6"/>
      <path d="m2250.8 251.4c0 55.4-38.7 97.3-99.3 97.3h-56.5c-12.2 0-16.7-4.9-16.7-12.6v-168.9c0-7.7 4.5-12.6 16.7-12.6h56.5c60.6 0 99.3 41.5 99.3 96.8m-32.2 0c0-41.5-26-68.4-67.1-68.4h-41.5v137.1h41.5c41.1 0.1 67.1-26.8 67.1-68.7"/>
     </g>
    </g>
   </g>
   <g transform="translate(1595.9 -230.81)">
    <path d="m-1357.6-182.22c0 43-28 74.2-85.2 80.4-41.2 4.4-101-0.8-129.4-4-1-4.6-1.8-10.4-1.8-15 0-37.4 20.2-46 39.2-46 19.8 0 51 3.4 74 3.4 25.6 0 33.2-8.6 33.2-16.8 0-10.8-10.2-15.2-30-19l-54.2-10.4c-45-8.6-69-39.6-69-72.6 0-40 28.4-73.6 84.4-79.8 42.2-4.6 93.8 0.6 122 4 1 4.8 1.6 9.4 1.6 14.4 0 37.4-19.8 45.4-38.8 45.4-14.6 0-37.2-2.6-63.2-2.6-26.4 0-37.2 7.2-37.2 16 0 9.4 10.4 13.2 26.8 16.2l51.6 9.6c53.2 9.6 76 39.8 76 76.8m92.6 46c0 23-9 36.2-54 36.2-6 0-11.2-0.4-16.2-1.2v-304.8c0-23.2 7.8-47.4 53.2-47.4 5.8 0 11.6 0.6 17 1.8zm183.8 118c6 3 18 6.8 33.2 7 26.2 0.6 40.4-9.4 51-32.8l140-311.6c-5.8-3-18.6-6.6-29-6.8-18-0.4-42.2 3.2-57.6 40l-45.6 106.6-89-144.6c-5.8-1.8-19.8-4.2-30-4.2-31.6 0-49 11.6-67.2 31.2l-86.4 94.4 69.6 109.4c12.8 20 29.8 30.2 57.2 30.2 18 0 33-4.2 40-7.4l-83.8-126 59.4-63 97.4 152.6z" fill="#ff0031"/>
    <path d="m845.76-482.02h-1594.8c-18.4 0-33.4 15-33.4 33.4v433.2c0 18.4 15 33.4 33.4 33.4h1594.6c18.4 0 33.4-15 33.4-33.4v-433.4c-0.2-18.4-14.8-33.2-33.2-33.2" fill="url(#linearGradient1545)"/>
    <path d="m-1335-406.02v209c0-8.4 6.4-17.2 17.2-17.6 7.6-0.2 28.8-1 35.2-1.2 7-0.2 17.6-5 17.8-17.8v-218c-5.4-1.2-11.2-1.8-17-1.8-45.4 0.2-53.2 24.2-53.2 47.4m160 72.8-86.4 94.4 7 10.8c3 4 8.8 10.8 20.4 10.4 4.2-0.2 45.8-1.6 49.2-1.8 10.8-0.4 17.6 4.2 21.8 9.8l-15.4-23.2 59.4-63 39.8 62.6c7.2 9.4 18 9.6 20.4 9.6 2 0 54.4-1.8 56.6-2 3.6-0.2 7.8 1.8 11 6.4l-86.6-140.8c-5.8-1.8-19.8-4.2-30-4.2-31.6-0.2-49 11.2-67.2 31m-321.4-29c-56 6.2-84.4 39.6-84.4 79.8 0 20.6 9.4 40.4 27.4 54.6 13.6 9 27.6 12.4 41.4 14.8 11.4 2 38 3.8 57.8 3 6.2-0.2 51.8-1.8 61.6-2.2 23.2-0.8 35.6 19 34.4 38.8v-1c0.2-2.6 0.4-5.2 0.4-7.8 0-37-22.8-67.2-75.8-77l-51.6-9.6c-16.6-2.8-26.8-6.8-26.8-16.2 0-8.8 11-16.2 37.2-16.2 26 0 48.6 2.6 63.2 2.6 19 0 38.8-8 38.8-45.4 0-5-0.6-9.6-1.6-14.4-20.2-2.4-52.6-5.8-84.8-5.8-12.6 0.2-25.2 0.8-37.2 2m552.6 39.8-44.2 104.2c0-0.2 2.8-8.2 11.4-8.6 0 0 43.6-1.6 46.8-1.6 14.2-0.6 19.8-10.2 21.4-13.4l51.2-114.2c-5.8-3-18.6-6.6-29-6.8h-2.2c-17.8 0.2-40.6 5-55.4 40.4" enable-background="new    " fill="url(#linearGradient1547)" opacity=".3"/>
    <path d="m-749.04-482.02c-18.4 0-33.4 15-33.4 33.4v240.6-0.2c0-3.6 1.4-23.4 24-25.6 0 0 1.2-0.2 3.2-0.2 98.6-3.4 1609.4-56.4 1609.4-56.4 12.6-0.4 24.8-9.8 24.8-25.4v-132.6c0-18.4-15-33.4-33.4-33.4z" enable-background="new    " fill="url(#linearGradient1549)" opacity=".3"/>
    <g transform="translate(-1595.9 -646.92)" fill="#fff">
     <path d="m907.7 417.6c0-70.2 51.5-122.2 119.7-122.2 31.9 0 61.4 8.8 82 18.6 3.4 22.1-3.5 30.9-13.3 30.9-17.2 0-31.9-14.2-67.2-14.2-44.2 0-80.5 32.9-80.5 86.9 0 53.5 36.3 86.9 80.5 86.9 35.3 0 50.1-14.7 65.8-14.7 10.3 0 17.6 9.3 14.7 31.4-20.6 10.3-50.1 19.1-82 19.1-68.2 0-119.7-53-119.7-122.7"/>
     <path d="m2116.2 380.8v141.9c0 9.8-5.4 15.2-21.6 15.2-6.9 0-14.7-1-18.6-2v-150.2c0-34.4-16.2-54.5-47.1-54.5-26 0-47.6 18.1-56.4 36.8v154.6c0 9.8-5.4 15.2-21.6 15.2-6.9 0-14.7-1-18.6-2v-150.1c0-34.4-16.2-54.5-47.1-54.5-26 0-47.6 18.1-56.4 36.8v154.6c0 9.8-5.4 15.2-21.6 15.2-6.8 0-14.7-1-18.6-2v-236c3.9-1 11.8-2 19.1-2 15.2 0 20.6 5.9 20.6 16.2v16.2c15.2-20.1 38.8-34.9 67.3-34.9 31.4 0 55.9 15.7 68.2 42.7 16.2-24.5 40.7-42.7 75.6-42.7 50.3 0.1 76.8 37.9 76.8 85.5"/>
     <path d="m1736.8 432.3h-182.6c5.4 45.7 36.8 71.2 83.4 71.2 20.1 0 35.8-4 50.6-8.8 10.3-3.5 14.7-4.9 18.6-4.9 11.3 0 18.6 9.3 16.7 30.9-21.1 9.3-53.5 19.6-87.4 19.6-73.6 0-123.2-49.5-123.2-123.2 0-70.7 52.6-121.7 116.8-121.7 72.7 0 108.5 56.4 108.5 113.4 0.1 6.9-0.4 15.2-1.4 23.5m-182.6-31.4h144.8c-1.5-40.2-27.5-71.7-69.2-71.7-36.3 0.1-69.2 25.1-75.6 71.7"/>
     <path d="m1465.2 395.5v127.1c0 9.3-5.4 15.2-21.6 15.2-6.8 0-14.7-1-18.6-2v-135c0-47.1-23.1-69.7-57.9-69.7-27 0-56.4 18.7-68.2 40.7v150.7c0 9.3-5.4 15.2-21.6 15.2-6.9 0-14.7-1-18.6-2v-235.9c3.9-1 11.8-2 18.6-2 16.2 0 21.6 5.9 21.6 15.2v20.1c17.2-21.1 43.2-37.8 78-37.8 48.1 0.1 88.3 30.5 88.3 100.2"/>
     <path d="m2367.1 384.7v151.2c-3.9 1-11.3 2-18.1 2-14.7 0-21.6-5.4-21.6-15.2v-20.7c-21.1 24.1-48.6 38.3-83.5 38.3-52.5 0-81.5-34.3-81.5-71.7 0-56.9 60.9-82 164.4-75.1v-8.3c0-38.8-11.8-55-56.4-55-18.6 0-43.7 5.4-56.9 8.8-7.9 2-13.8 3.9-18.6 3.9-11.3 0-18.7-9.8-14.8-30.4 24.1-8.8 58.9-17.2 92.3-17.2 69.2 0.1 94.7 31 94.7 89.4m-40.2 82.5v-44.7c-67.7-4.9-124.2 3.9-124.2 44.7 0 20.6 17.2 39.2 48.1 39.2 31.4 0 58.9-15.6 76.1-39.2"/>
     <path d="m1149.5 246.3c0-14.7 11.8-25.5 25.5-25.5 14.8 0 26 10.8 26 25.5 0 13.3-11.3 25.5-26 25.5-13.7 0-25.5-12.2-25.5-25.5m5.4 289.6v-222.8c0-9.3 5.4-15.2 21.6-15.2 6.9 0 14.2 1 18.1 2v222.8c0 9.8-4.9 15.2-21.1 15.2-6.8 0-14.6-1-18.6-2"/>
    </g>
   </g>
  </g>
  <g transform="translate(-36663)" font-family="'Sky Text'" font-size="40px" letter-spacing=".12103px" word-spacing="0px">
   <path d="m40971 663.54q-5.288 0-12.559-0.66102-6.941-0.66101-11.568-2.3136l-44.618-210.53q3.635-1.6526 8.262-2.9746 4.958-1.322 11.238-1.322 7.932 0 13.22 2.9746t6.941 11.237l16.525 89.568q3.636 20.161 7.271 41.314 3.636 20.822 6.28 39 2.644-18.508 6.941-38.67 4.296-20.161 9.915-42.966l21.152-86.924q1.983-8.5932 8.924-11.898 7.271-3.6356 18.178-3.6356t19.831 2.6441l23.796 99.814q4.958 20.822 9.254 42.305 4.628 21.153 7.933 39.331 1.322-8.9237 2.974-19.5 1.983-10.907 3.966-21.814 1.983-11.237 3.966-21.814 1.984-10.576 3.636-19.5l15.534-88.246q1.322-7.6017 6.28-10.246 4.957-2.9746 12.559-2.9746 5.619 0 10.246 1.322 4.627 0.99152 7.932 2.3136l-40.983 197.64q-2.314 10.576-9.254 13.551-6.941 2.9746-17.848 2.9746-4.957 0-11.568-0.66102-6.61-0.3305-11.237-1.983l-27.763-113.69q-1.322-5.9492-2.974-12.89-1.322-7.2712-2.975-15.203-1.322-7.9322-2.974-16.195-1.653-8.2627-3.636-15.864-3.305 15.864-6.941 32.059-3.305 15.864-6.279 28.093l-24.127 99.814q-2.644 10.246-8.924 13.551-5.949 2.9746-16.526 2.9746z" style="white-space:pre"/>
   <path d="m41254 664.53q-18.508 0-33.712-6.2797-15.203-6.6102-26.11-17.517-10.907-11.237-16.856-26.441t-5.949-32.72q0-16.856 5.949-31.729 6.28-15.203 17.187-26.441t26.11-17.847 33.381-6.6102 33.382 6.6102q15.203 6.6102 25.779 17.847 10.907 11.237 16.856 26.441 5.949 14.873 5.949 31.729t-5.949 32.059q-5.618 15.203-16.525 26.441-10.576 11.237-25.78 17.847-15.203 6.6102-33.712 6.6102zm0-29.746q8.263 0 16.195-3.3051 8.263-3.3051 14.543-9.9153 6.61-6.6102 10.576-16.525 3.966-9.9152 3.966-23.466 0-12.229-3.636-22.144-3.635-9.9152-9.915-16.525-5.949-6.9407-14.212-10.576-8.262-3.6356-17.517-3.6356-8.923 0-17.186 3.6356t-14.873 10.576q-6.28 6.6102-10.246 16.525-3.635 9.9153-3.635 22.144 0 13.22 3.966 23.136 3.966 9.9153 10.245 16.856 6.611 6.6102 14.873 9.9153 8.263 3.3051 16.856 3.3051z" style="white-space:pre"/>
   <path d="m41383 663.21q-4.958 0-10.246-0.66101-4.957-0.33051-7.601-0.99153v-158.64q3.635-0.99152 7.271-1.6525 3.966-0.99153 8.593-0.99153 10.246 0 14.542 5.6186 4.627 5.2881 4.627 14.542l0.331 3.9661q6.941-10.907 18.839-18.178 11.898-7.6017 25.78-7.6017 16.194 0 28.754 8.2627 12.89 7.9322 18.508 23.797 9.585-15.864 21.814-23.797 12.559-8.2627 28.424-8.2627 26.11 0 38.669 16.195 12.89 16.195 12.89 44.288v88.907q0 6.6102-3.966 10.907-3.636 4.2966-14.212 4.2966-4.958 0-10.246-0.66101-4.957-0.33051-7.602-0.99153v-98.822q0-16.856-7.601-24.788-7.602-8.2627-20.161-8.2627-11.899 0-20.161 6.2797-8.263 5.9492-12.56 14.542v97.5q0 6.6102-3.966 10.907-3.635 4.2966-14.212 4.2966-4.957 0-10.245-0.66101-4.958-0.33051-7.602-0.99153v-98.822q0-16.195-7.602-24.458-7.271-8.5932-21.152-8.5932-10.577 0-19.17 6.2797-8.262 5.9492-12.559 14.212v97.831q0 6.6102-3.966 10.907-3.636 4.2966-14.212 4.2966z" style="white-space:pre"/>
   <path d="m41705 664.86q-20.161 0-36.026-6.2797-15.864-6.2797-26.771-17.517-10.907-11.237-16.856-26.441-5.619-15.534-5.619-33.381t5.949-32.72q5.95-15.203 16.195-26.11 10.577-11.237 24.789-17.517 14.211-6.2797 30.737-6.2797 18.508 0 32.72 6.9407 14.212 6.6102 23.466 17.847 9.585 11.237 14.212 25.449 4.958 14.212 4.958 29.085 0 8.2627-1.653 16.525h-114.69q2.313 19.169 14.873 29.415 12.889 9.9153 33.712 9.9153 8.923 0 15.533-1.322 6.611-1.322 11.899-2.9746 5.288-1.983 9.584-3.3051 4.297-1.322 8.594-1.322 5.949 0 9.584 5.2881 3.967 5.2881 3.967 14.212 0 1.6525-0.331 3.6356 0 1.983-0.33 3.9661-9.916 4.6271-24.789 8.9237-14.872 3.9661-33.711 3.9661zm34.042-96.178q-1.653-17.847-12.229-29.746-10.246-12.229-29.415-12.229-18.178 0-29.085 11.568-10.576 11.568-12.229 30.407z" style="white-space:pre"/>
   <path d="m41820 663.21q-4.958 0-10.246-0.66101-4.958-0.33051-7.602-0.99153v-158.64q3.636-0.99152 7.271-1.6525 3.966-0.99153 8.594-0.99153 10.245 0 14.542 5.6186 4.627 5.2881 4.627 14.542l0.331 4.6271q8.262-11.568 21.483-18.839 13.55-7.6017 30.406-7.6017 26.772 0 42.305 17.517 15.534 17.517 15.534 50.237v81.636q0 6.6102-3.966 10.907-3.635 4.2966-14.212 4.2966-4.957 0-10.245-0.66101-4.958-0.33051-7.602-0.99153v-91.22q0-21.153-9.254-31.068-9.255-9.9152-26.11-9.9152-10.577 0-21.484 5.9492-10.576 5.9492-16.194 15.864v96.839q0 6.6102-3.967 10.907-3.635 4.2966-14.211 4.2966z" style="white-space:pre"/>
   <path d="m42068 663.21q-4.957 0-9.915-0.66101-4.957-0.33051-7.601-0.99153v-146.08q0-6.6102 3.966-10.907t14.211-4.2966q5.289 0 10.246 0.66102 4.958 0.33051 7.602 0.99153v146.08q0 6.6102-3.966 10.907t-14.543 4.2966zm0.661-191.69q-8.262 0-14.211-5.9492-5.95-5.9492-5.95-14.212 0-8.5932 5.95-14.542 5.949-5.9492 14.211-5.9492 8.594 0 14.543 5.9492t5.949 14.542q0 8.2627-5.949 14.212-5.949 5.9492-14.543 5.9492z" style="white-space:pre"/>
   <path d="m42144 663.21q-4.958 0-10.246-0.66101-4.957-0.33051-7.601-0.99153v-158.64q3.635-0.99152 7.271-1.6525 3.966-0.99153 8.593-0.99153 10.246 0 14.542 5.6186 4.627 5.2881 4.627 14.542l0.331 4.6271q8.263-11.568 21.483-18.839 13.551-7.6017 30.407-7.6017 26.771 0 42.305 17.517t15.534 50.237v81.636q0 6.6102-3.966 10.907-3.636 4.2966-14.212 4.2966-4.958 0-10.246-0.66101-4.958-0.33051-7.602-0.99153v-91.22q0-21.153-9.254-31.068-9.254-9.9152-26.11-9.9152-10.576 0-21.483 5.9492-10.576 5.9492-16.195 15.864v96.839q0 6.6102-3.966 10.907-3.636 4.2966-14.212 4.2966z" style="white-space:pre"/>
   <path d="m42395 663.21q-5.288 0-10.576-0.66101-4.958-0.33051-7.602-0.99153v-197.97q0-7.6017 3.305-12.229 3.636-4.9576 15.865-4.9576h116.34q0.661 2.6441 0.991 7.2712 0.331 4.2966 0.331 8.9237 0 10.576-4.297 14.212-3.966 3.3051-10.245 3.3051h-85.272v62.797h90.229q1.653 5.9492 1.653 15.534 0 9.5847-4.297 13.551-3.966 3.6356-9.585 3.6356h-78v72.051q0 6.6102-4.296 11.237-3.966 4.2966-14.543 4.2966z" style="white-space:pre"/>
   <path d="m42556 663.21q-4.958 0-9.915-0.66101-4.958-0.33051-7.602-0.99153v-146.08q0-6.6102 3.966-10.907t14.212-4.2966q5.288 0 10.246 0.66102 4.957 0.33051 7.601 0.99153v146.08q0 6.6102-3.966 10.907t-14.542 4.2966zm0.661-191.69q-8.263 0-14.212-5.9492t-5.949-14.212q0-8.5932 5.949-14.542 5.949-5.9492 14.212-5.9492 8.593 0 14.542 5.9492 5.95 5.9492 5.95 14.542 0 8.2627-5.95 14.212-5.949 5.9492-14.542 5.9492z" style="white-space:pre"/>
   <path d="m42631 663.21q-4.957 0-10.245-0.66101-4.958-0.33051-7.602-0.99153v-209.87q0-6.6102 3.636-10.907 3.966-4.2966 14.542-4.2966 4.958 0 9.915 0.66101 5.288 0.33051 7.932 0.99153v209.87q0 6.6102-3.966 10.907-3.635 4.2966-14.212 4.2966z" style="white-space:pre"/>
   <path d="m42706 663.21q-4.958 0-10.246-0.66101-4.958-0.33051-7.602-0.99153v-158.64q3.636-0.99152 7.271-1.6525 3.966-0.99153 8.594-0.99153 10.245 0 14.542 5.6186 4.627 5.2881 4.627 14.542l0.331 3.9661q6.94-10.907 18.839-18.178 11.898-7.6017 25.779-7.6017 16.195 0 28.754 8.2627 12.89 7.9322 18.509 23.797 9.585-15.864 21.813-23.797 12.56-8.2627 28.424-8.2627 26.11 0 38.67 16.195 12.89 16.195 12.89 44.288v88.907q0 6.6102-3.967 10.907-3.635 4.2966-14.211 4.2966-4.958 0-10.246-0.66101-4.958-0.33051-7.602-0.99153v-98.822q0-16.856-7.602-24.788-7.601-8.2627-20.161-8.2627-11.898 0-20.161 6.2797-8.262 5.9492-12.559 14.542v97.5q0 6.6102-3.966 10.907-3.636 4.2966-14.212 4.2966-4.958 0-10.246-0.66101-4.957-0.33051-7.601-0.99153v-98.822q0-16.195-7.602-24.458-7.271-8.5932-21.153-8.5932-10.576 0-19.169 6.2797-8.263 5.9492-12.559 14.212v97.831q0 6.6102-3.967 10.907-3.635 4.2966-14.211 4.2966z" style="white-space:pre"/>
  </g>
  <text fill="#000000" font-family="sans-serif" font-size="40px" letter-spacing="0px" word-spacing="0px" style="line-height:1.25;shape-inside:url(#rect1421);white-space:pre" space="preserve"/>
 </g>
</svg>
