<svg width="3664.9" height="970.3" enable-background="new 0 0 2459.8 500" version="1.1" viewBox="0 0 3664.9 970.3" xml:space="preserve" xmlns="http://www.w3.org/2000/svg"><defs><linearGradient id="linearGradient1545" x1="-625.21" x2="-403.69" y1="653.82" y2="653.82" gradientTransform="matrix(7.5001 0 0 -7.5001 3906.6 4671.7)" gradientUnits="userSpaceOnUse"><stop stop-color="#FF0031" offset="0"/><stop stop-color="#9B001F" offset="1"/></linearGradient><linearGradient id="linearGradient1547" x1="-735.16" x2="-730.71" y1="1190.1" y2="1190.1" gradientTransform="matrix(-1.3157 -37.678 -37.678 1.3157 42656 -29484)" gradientUnits="userSpaceOnUse"><stop stop-color="#fff" offset="0"/><stop stop-color="#fff" stop-opacity=".4" offset=".5"/><stop stop-color="#fff" stop-opacity=".25" offset="1"/></linearGradient><linearGradient id="linearGradient1549" x1="-721.24" x2="-716.8" y1="1180.7" y2="1180.7" gradientTransform="matrix(-1.9565 -56.026 -56.026 1.9565 64789 -42973)" gradientUnits="userSpaceOnUse"><stop stop-color="#fff" offset="0"/><stop stop-color="#fff" stop-opacity=".4" offset=".5"/><stop stop-color="#fff" stop-opacity=".25" offset="1"/></linearGradient></defs><link rel="stylesheet" type="text/css"/><link rel="stylesheet" type="text/css"/><style type="text/css"/>

<g transform="translate(-3414.1 304.14)">
	
	
		
	
	
		
	
	
		
	
	
<g transform="matrix(1.2 0 0 1.2 3396 551.25)"><g transform="matrix(.99999 0 0 .99999 716.31 -712.82)"><path d="m2329.6 0c12.9 0 23.3 10.94 23.3 24.276v451.45c0 13.336-10.5 24.276-23.3 24.276h-607.9c-12.9 0-23.3-10.94-23.3-24.276v-451.34c0-13.44 10.5-24.276 23.3-24.276h607.9" fill="#fff" stroke-width="1.0207"/><g fill="#00396e"><g fill="#9b001f"><path d="m2034.6 153.8v184.7c0 8.1-4.1 12.6-16.7 12.6-5.7 0-11-0.8-15.1-1.6v-85h-105.4v74.1c0 8.1-4.1 12.6-16.7 12.6-6.1 0-12.2-0.8-15.1-1.6v-184.8c0-7.8 4.1-12.6 17.1-12.6 5.7 0 11.3 0.8 14.6 1.6v82.2h104.9v-71.2c0-7.8 4.5-12.6 17.5-12.6 6 0 11.6 0.8 14.9 1.6"/><path d="m2250.8 251.4c0 55.4-38.7 97.3-99.3 97.3h-56.5c-12.2 0-16.7-4.9-16.7-12.6v-168.9c0-7.7 4.5-12.6 16.7-12.6h56.5c60.6 0 99.3 41.5 99.3 96.8m-32.2 0c0-41.5-26-68.4-67.1-68.4h-41.5v137.1h41.5c41.1 0.1 67.1-26.8 67.1-68.7"/></g></g></g><g transform="translate(1595.9 -230.81)"><path d="m-1357.6-182.22c0 43-28 74.2-85.2 80.4-41.2 4.4-101-0.8-129.4-4-1-4.6-1.8-10.4-1.8-15 0-37.4 20.2-46 39.2-46 19.8 0 51 3.4 74 3.4 25.6 0 33.2-8.6 33.2-16.8 0-10.8-10.2-15.2-30-19l-54.2-10.4c-45-8.6-69-39.6-69-72.6 0-40 28.4-73.6 84.4-79.8 42.2-4.6 93.8 0.6 122 4 1 4.8 1.6 9.4 1.6 14.4 0 37.4-19.8 45.4-38.8 45.4-14.6 0-37.2-2.6-63.2-2.6-26.4 0-37.2 7.2-37.2 16 0 9.4 10.4 13.2 26.8 16.2l51.6 9.6c53.2 9.6 76 39.8 76 76.8m92.6 46c0 23-9 36.2-54 36.2-6 0-11.2-0.4-16.2-1.2v-304.8c0-23.2 7.8-47.4 53.2-47.4 5.8 0 11.6 0.6 17 1.8zm183.8 118c6 3 18 6.8 33.2 7 26.2 0.6 40.4-9.4 51-32.8l140-311.6c-5.8-3-18.6-6.6-29-6.8-18-0.4-42.2 3.2-57.6 40l-45.6 106.6-89-144.6c-5.8-1.8-19.8-4.2-30-4.2-31.6 0-49 11.6-67.2 31.2l-86.4 94.4 69.6 109.4c12.8 20 29.8 30.2 57.2 30.2 18 0 33-4.2 40-7.4l-83.8-126 59.4-63 97.4 152.6z" fill="#ff0031"/><path d="m845.76-482.02h-1594.8c-18.4 0-33.4 15-33.4 33.4v433.2c0 18.4 15 33.4 33.4 33.4h1594.6c18.4 0 33.4-15 33.4-33.4v-433.4c-0.2-18.4-14.8-33.2-33.2-33.2" fill="url(#linearGradient1545)"/><path d="m-1335-406.02v209c0-8.4 6.4-17.2 17.2-17.6 7.6-0.2 28.8-1 35.2-1.2 7-0.2 17.6-5 17.8-17.8v-218c-5.4-1.2-11.2-1.8-17-1.8-45.4 0.2-53.2 24.2-53.2 47.4m160 72.8-86.4 94.4 7 10.8c3 4 8.8 10.8 20.4 10.4 4.2-0.2 45.8-1.6 49.2-1.8 10.8-0.4 17.6 4.2 21.8 9.8l-15.4-23.2 59.4-63 39.8 62.6c7.2 9.4 18 9.6 20.4 9.6 2 0 54.4-1.8 56.6-2 3.6-0.2 7.8 1.8 11 6.4l-86.6-140.8c-5.8-1.8-19.8-4.2-30-4.2-31.6-0.2-49 11.2-67.2 31m-321.4-29c-56 6.2-84.4 39.6-84.4 79.8 0 20.6 9.4 40.4 27.4 54.6 13.6 9 27.6 12.4 41.4 14.8 11.4 2 38 3.8 57.8 3 6.2-0.2 51.8-1.8 61.6-2.2 23.2-0.8 35.6 19 34.4 38.8v-1c0.2-2.6 0.4-5.2 0.4-7.8 0-37-22.8-67.2-75.8-77l-51.6-9.6c-16.6-2.8-26.8-6.8-26.8-16.2 0-8.8 11-16.2 37.2-16.2 26 0 48.6 2.6 63.2 2.6 19 0 38.8-8 38.8-45.4 0-5-0.6-9.6-1.6-14.4-20.2-2.4-52.6-5.8-84.8-5.8-12.6 0.2-25.2 0.8-37.2 2m552.6 39.8-44.2 104.2c0-0.2 2.8-8.2 11.4-8.6 0 0 43.6-1.6 46.8-1.6 14.2-0.6 19.8-10.2 21.4-13.4l51.2-114.2c-5.8-3-18.6-6.6-29-6.8h-2.2c-17.8 0.2-40.6 5-55.4 40.4" enable-background="new    " fill="url(#linearGradient1547)" opacity=".3"/><path d="m-749.04-482.02c-18.4 0-33.4 15-33.4 33.4v240.6-0.2c0-3.6 1.4-23.4 24-25.6 0 0 1.2-0.2 3.2-0.2 98.6-3.4 1609.4-56.4 1609.4-56.4 12.6-0.4 24.8-9.8 24.8-25.4v-132.6c0-18.4-15-33.4-33.4-33.4z" enable-background="new    " fill="url(#linearGradient1549)" opacity=".3"/><g transform="translate(-1595.9 -646.92)" fill="#fff"><path d="m907.7 417.6c0-70.2 51.5-122.2 119.7-122.2 31.9 0 61.4 8.8 82 18.6 3.4 22.1-3.5 30.9-13.3 30.9-17.2 0-31.9-14.2-67.2-14.2-44.2 0-80.5 32.9-80.5 86.9 0 53.5 36.3 86.9 80.5 86.9 35.3 0 50.1-14.7 65.8-14.7 10.3 0 17.6 9.3 14.7 31.4-20.6 10.3-50.1 19.1-82 19.1-68.2 0-119.7-53-119.7-122.7"/><path d="m2116.2 380.8v141.9c0 9.8-5.4 15.2-21.6 15.2-6.9 0-14.7-1-18.6-2v-150.2c0-34.4-16.2-54.5-47.1-54.5-26 0-47.6 18.1-56.4 36.8v154.6c0 9.8-5.4 15.2-21.6 15.2-6.9 0-14.7-1-18.6-2v-150.1c0-34.4-16.2-54.5-47.1-54.5-26 0-47.6 18.1-56.4 36.8v154.6c0 9.8-5.4 15.2-21.6 15.2-6.8 0-14.7-1-18.6-2v-236c3.9-1 11.8-2 19.1-2 15.2 0 20.6 5.9 20.6 16.2v16.2c15.2-20.1 38.8-34.9 67.3-34.9 31.4 0 55.9 15.7 68.2 42.7 16.2-24.5 40.7-42.7 75.6-42.7 50.3 0.1 76.8 37.9 76.8 85.5"/><path d="m1736.8 432.3h-182.6c5.4 45.7 36.8 71.2 83.4 71.2 20.1 0 35.8-4 50.6-8.8 10.3-3.5 14.7-4.9 18.6-4.9 11.3 0 18.6 9.3 16.7 30.9-21.1 9.3-53.5 19.6-87.4 19.6-73.6 0-123.2-49.5-123.2-123.2 0-70.7 52.6-121.7 116.8-121.7 72.7 0 108.5 56.4 108.5 113.4 0.1 6.9-0.4 15.2-1.4 23.5m-182.6-31.4h144.8c-1.5-40.2-27.5-71.7-69.2-71.7-36.3 0.1-69.2 25.1-75.6 71.7"/><path d="m1465.2 395.5v127.1c0 9.3-5.4 15.2-21.6 15.2-6.8 0-14.7-1-18.6-2v-135c0-47.1-23.1-69.7-57.9-69.7-27 0-56.4 18.7-68.2 40.7v150.7c0 9.3-5.4 15.2-21.6 15.2-6.9 0-14.7-1-18.6-2v-235.9c3.9-1 11.8-2 18.6-2 16.2 0 21.6 5.9 21.6 15.2v20.1c17.2-21.1 43.2-37.8 78-37.8 48.1 0.1 88.3 30.5 88.3 100.2"/><path d="m2367.1 384.7v151.2c-3.9 1-11.3 2-18.1 2-14.7 0-21.6-5.4-21.6-15.2v-20.7c-21.1 24.1-48.6 38.3-83.5 38.3-52.5 0-81.5-34.3-81.5-71.7 0-56.9 60.9-82 164.4-75.1v-8.3c0-38.8-11.8-55-56.4-55-18.6 0-43.7 5.4-56.9 8.8-7.9 2-13.8 3.9-18.6 3.9-11.3 0-18.7-9.8-14.8-30.4 24.1-8.8 58.9-17.2 92.3-17.2 69.2 0.1 94.7 31 94.7 89.4m-40.2 82.5v-44.7c-67.7-4.9-124.2 3.9-124.2 44.7 0 20.6 17.2 39.2 48.1 39.2 31.4 0 58.9-15.6 76.1-39.2"/><path d="m1149.5 246.3c0-14.7 11.8-25.5 25.5-25.5 14.8 0 26 10.8 26 25.5 0 13.3-11.3 25.5-26 25.5-13.7 0-25.5-12.2-25.5-25.5m5.4 289.6v-222.8c0-9.3 5.4-15.2 21.6-15.2 6.9 0 14.2 1 18.1 2v222.8c0 9.8-4.9 15.2-21.1 15.2-6.8 0-14.6-1-18.6-2"/></g></g></g><g transform="translate(-104105)" font-family="'Sky Text'" font-size="40px" letter-spacing=".12103px" stroke-width="8.2627" word-spacing="0px"><path d="m108581 666.16q-22.47 0-41.64-7.9323-19.17-8.2627-33.38-22.805-13.88-14.542-21.81-34.703-7.94-20.161-7.94-43.958 0-23.136 7.94-43.297 7.93-20.161 21.81-35.034 14.21-14.873 33.38-23.136 19.17-8.5932 41.64-8.5932 16.86 0 32.06 3.3051 15.54 3.3051 29.42 8.9237 0.33 2.3136 0.33 4.2966 0.33 1.6526 0.33 3.6356 0 10.576-4.63 16.525-4.62 5.9492-11.56 5.9492-3.31 0-7.28-1.322-3.96-1.322-9.25-2.9746-4.96-1.6525-11.9-2.9746-6.94-1.322-16.19-1.322-14.22 0-26.44 5.6186-12.23 5.2881-21.49 15.203-8.92 9.9152-14.21 24.127-4.96 13.881-4.96 31.068 0 17.847 4.96 32.059 5.29 13.881 14.21 23.797 9.26 9.5847 21.49 14.542 12.22 4.9576 26.44 4.9576 9.25 0 15.86-1.322 6.94-1.322 11.9-2.9746t8.59-2.9746q3.64-1.322 7.27-1.322 8.27 0 13.22 5.6186 4.96 5.2881 4.96 15.864 0 2.3136 0 4.2966t-0.66 4.6271q-13.88 5.9492-28.75 9.2542-14.88 2.9747-33.72 2.9747z" style="white-space:pre"/><path d="m108726 666.16q-11.9 0-22.48-3.9662-10.58-3.9661-18.51-12.229-7.93-8.2627-12.56-20.822-4.62-12.89-4.62-30.407v-81.305q0-6.6102 3.96-10.907 3.97-4.2966 14.21-4.2966 5.29 0 10.25 0.66102 4.96 0.33051 7.6 0.99153v91.881q0 20.822 9.59 30.407 9.91 9.5848 25.11 9.5848 10.91 0 21.16-5.9492 10.24-5.9492 17.18-17.517v-94.856q0-6.6102 3.97-10.907 3.97-4.2966 14.21-4.2966 5.29 0 10.25 0.66102 5.29 0.33051 7.93 0.99153v96.839q0 9.9152 0 17.847 0.33 7.6017 0.99 14.542t1.65 13.881q1 6.6102 2.65 14.542-7.93 3.6356-18.51 3.6356-8.59 0-12.56-2.9746t-5.62-6.9407q-1.65-4.2966-1.98-9.2542 0-4.9576-0.66-8.9237h-0.33q-8.6 12.89-21.49 21.153-12.56 7.9323-31.39 7.9323z" style="white-space:pre"/><path d="m108871 665.17q-4.95 0-10.24-0.66101-4.96-0.33051-7.6-0.99153v-209.87q0-6.6102 3.63-10.907 3.97-4.2966 14.54-4.2966 4.96 0 9.92 0.66102 5.29 0.3305 7.93 0.99152v209.87q0 6.6102-3.96 10.907-3.64 4.2966-14.22 4.2966z" style="white-space:pre"/><path d="m108991 665.5q-12.89 0-23.14-3.9661-9.91-4.2966-16.85-11.568-6.94-7.6017-10.58-17.517-3.64-10.246-3.64-22.475v-78.331h-25.11q-0.67-2.3136-1-5.9492t-0.33-7.2712q0-8.2627 3.31-11.568 3.63-3.3051 8.92-3.3051h14.21v-22.805q0-3.9661 0.66-7.6017 1-3.6356 2.98-6.6102 2.31-2.9746 6.28-4.6271 4.3-1.6525 11.24-1.6525 7.93 0 14.21 2.3136v40.983h54.2q1.65 4.9576 1.65 13.22t-3.63 11.568q-3.31 3.3051-8.59 3.3051h-43.63v77.008q0 12.559 5.95 19.5 5.95 6.9407 17.51 6.9407 4.96 0 8.93-0.99152 3.96-0.99153 6.94-2.3136 3.3-1.322 5.95-2.3136 2.97-0.99153 5.62-0.99153 6.28 0 9.91 4.2966 3.64 4.2966 3.64 13.551 0 1.6525 0 3.6356 0 1.6526-0.33 3.3051-9.59 5.6186-20.49 8.9237-10.58 3.3051-24.79 3.3051z" style="white-space:pre"/><path d="m109224 666.16q-22.47 0-41.64-7.9323-19.17-8.2627-33.38-22.805-13.88-14.542-21.82-34.703-7.93-20.161-7.93-43.958 0-23.136 7.93-43.297 7.94-20.161 21.82-35.034 14.21-14.873 33.38-23.136 19.17-8.5932 41.64-8.5932 16.86 0 32.06 3.3051 15.54 3.3051 29.42 8.9237 0.33 2.3136 0.33 4.2966 0.33 1.6526 0.33 3.6356 0 10.576-4.63 16.525-4.62 5.9492-11.57 5.9492-3.3 0-7.27-1.322-3.96-1.322-9.25-2.9746-4.96-1.6525-11.9-2.9746-6.94-1.322-16.19-1.322-14.22 0-26.44 5.6186-12.23 5.2881-21.49 15.203-8.92 9.9152-14.21 24.127-4.96 13.881-4.96 31.068 0 17.847 4.96 32.059 5.29 13.881 14.21 23.797 9.26 9.5847 21.49 14.542 12.22 4.9576 26.44 4.9576 9.25 0 15.86-1.322 6.94-1.322 11.9-2.9746t8.59-2.9746q3.64-1.322 7.27-1.322 8.27 0 13.22 5.6186 4.96 5.2881 4.96 15.864 0 2.3136 0 4.2966t-0.66 4.6271q-13.88 5.9492-28.75 9.2542-14.88 2.9747-33.72 2.9747z" style="white-space:pre"/><path d="m109334 665.17q-4.96 0-10.24-0.66101-4.96-0.33051-7.61-0.99153v-209.87q0-6.6102 3.64-10.907 3.97-4.2966 14.54-4.2966 4.96 0 9.92 0.66102 5.28 0.3305 7.93 0.99152v209.87q0 6.6102-3.97 10.907-3.63 4.2966-14.21 4.2966z" style="white-space:pre"/><path d="m109436 665.83q-12.89 0-23.13-3.6357-9.92-3.9661-16.86-10.576-6.61-6.6102-10.24-15.203-3.31-8.9237-3.31-18.839 0-11.898 3.97-21.814 4.3-9.9152 12.89-16.856 8.59-7.2712 21.48-11.237 13.22-3.9661 31.4-3.9661 17.19 0 39 3.9661v-8.2627q0-16.195-7.27-22.805-7.27-6.9407-26.11-6.9407-9.59 0-16.86 1.322-7.27 0.99153-13.22 2.6441-5.62 1.322-10.24 2.6441-4.3 0.99152-8.27 0.99152-6.94 0-10.24-5.9492-3.31-5.9492-3.31-14.542 0-1.6525 0-2.9746 0-1.6525 0.33-3.3051 10.91-3.6356 27.1-6.6102 16.2-3.3051 36.03-3.3051 19.17 0 31.73 4.2966 12.89 4.2966 20.49 12.89 7.93 8.2627 10.91 20.492 3.3 11.898 3.3 27.763v34.703q0 9.9152 0 17.847 0.33 7.9322 0.99 14.873 1 6.9407 2.32 13.881 1.32 6.6102 3.63 14.542-2.97 1.322-7.6 2.3136-4.3 0.99152-10.24 0.99152-6.61 0-10.91-2.3136-3.97-2.6441-6.28-6.6102-2.31-4.2966-3.31-9.9152-0.66-5.6186-0.99-11.898h-0.33q-3.96 6.2797-9.25 12.229-4.96 5.6186-11.9 9.9152t-15.86 6.6102q-8.6 2.6442-19.84 2.6442zm9.59-29.085q15.86 0 27.43-9.2542 11.9-9.2542 18.51-23.136v-13.881q-16.86-2.9746-30.08-2.9746-21.81 0-32.72 7.2712-10.57 6.9407-10.57 20.161 0 10.576 7.6 16.195t19.83 5.6186z" style="white-space:pre"/><path d="m109620 665.5q-15.87 0-33.05-2.9746-16.86-3.3051-32.72-8.9237-0.33-1.6526-0.66-3.3051 0-1.983 0-3.6356 0-8.5932 3.63-13.881 3.64-5.2881 10.25-5.2881 3.96 0 9.25 1.322 5.62 1.322 11.9 3.3051 6.61 1.6525 14.54 2.9746 7.94 1.322 16.86 1.322 9.91 0 15.86-1.322 6.28-1.6525 9.59-3.9661 3.3-2.6441 4.29-5.6186 1.33-3.3051 1.33-6.9407 0-7.2712-5.62-10.907-5.62-3.9661-19.83-7.9322l-23.47-6.6102q-26.77-7.6017-37.35-18.508-10.57-11.237-10.57-27.763 0-8.9237 3.63-17.186 3.64-8.2627 11.24-14.542 7.93-6.2797 20.16-9.9153 12.23-3.9661 29.75-3.9661 28.75 0 60.48 10.576 0 1.6525 0 2.9746 0.33 0.99152 0.33 2.3136 0 9.5847-3.63 15.203-3.31 5.2881-10.58 5.2881t-18.51-3.3051q-10.91-3.6356-28.09-3.6356-15.87 0-22.48 3.9661-6.28 3.9661-6.28 10.907 0 2.9746 0.66 5.2881 1 2.3136 3.31 4.2966 2.64 1.983 6.94 3.9661 4.63 1.6525 12.23 3.6356l24.79 6.9407q27.1 7.6017 38.01 18.839 11.23 11.237 11.23 28.424 0 8.9237-3.3 17.847-2.98 8.5932-10.58 15.534-7.6 6.6102-20.82 10.907-12.89 4.2966-32.72 4.2966z" style="white-space:pre"/><path d="m109776 665.5q-15.87 0-33.05-2.9746-16.86-3.3051-32.73-8.9237-0.33-1.6526-0.66-3.3051 0-1.983 0-3.6356 0-8.5932 3.64-13.881 3.64-5.2881 10.25-5.2881 3.96 0 9.25 1.322 5.62 1.322 11.9 3.3051 6.61 1.6525 14.54 2.9746 7.93 1.322 16.86 1.322 9.91 0 15.86-1.322 6.28-1.6525 9.59-3.9661 3.3-2.6441 4.29-5.6186 1.32-3.3051 1.32-6.9407 0-7.2712-5.61-10.907-5.62-3.9661-19.84-7.9322l-23.46-6.6102q-26.77-7.6017-37.35-18.508-10.58-11.237-10.58-27.763 0-8.9237 3.64-17.186t11.24-14.542q7.93-6.2797 20.16-9.9153 12.23-3.9661 29.74-3.9661 28.76 0 60.49 10.576 0 1.6525 0 2.9746 0.33 0.99152 0.33 2.3136 0 9.5847-3.64 15.203-3.3 5.2881-10.57 5.2881t-18.51-3.3051q-10.91-3.6356-28.1-3.6356-15.86 0-22.47 3.9661-6.28 3.9661-6.28 10.907 0 2.9746 0.66 5.2881 0.99 2.3136 3.31 4.2966 2.64 1.983 6.94 3.9661 4.62 1.6525 12.23 3.6356l24.78 6.9407q27.11 7.6017 38.01 18.839 11.24 11.237 11.24 28.424 0 8.9237-3.31 17.847-2.97 8.5932-10.57 15.534-7.6 6.6102-20.82 10.907-12.89 4.2966-32.72 4.2966z" style="white-space:pre"/><path d="m109891 665.17q-4.96 0-9.91-0.66101-4.96-0.33051-7.61-0.99153v-146.08q0-6.6102 3.97-10.907 3.97-4.2966 14.21-4.2966 5.29 0 10.25 0.66102 4.96 0.33051 7.6 0.99153v146.08q0 6.6102-3.97 10.907-3.96 4.2966-14.54 4.2966zm0.66-191.69q-8.26 0-14.21-5.9492t-5.95-14.212q0-8.5932 5.95-14.542 5.95-5.9492 14.21-5.9492 8.6 0 14.55 5.9492 5.94 5.9492 5.94 14.542 0 8.2627-5.94 14.212-5.95 5.9492-14.55 5.9492z" style="white-space:pre"/><path d="m110020 665.83q-18.18 0-33.05-6.2797-14.88-6.6102-25.45-17.517-10.58-11.237-16.53-26.11-5.62-14.873-5.62-32.059t5.62-32.059q5.95-14.873 16.53-26.11 10.57-11.237 25.45-17.517 14.87-6.6102 33.05-6.6102 17.85 0 30.07 3.6356 12.56 3.6356 22.48 9.2542 0.33 1.6525 0.33 3.3051 0 1.322 0 2.6441 0 9.2542-3.97 14.873-3.96 5.2881-10.24 5.2881-2.98 0-6.61-0.99153-3.31-1.322-7.6-2.6441-3.97-1.6525-9.59-2.9746-5.29-1.322-12.56-1.322-9.58 0-17.85 3.3051-8.26 3.3051-14.54 9.9152t-9.91 16.195q-3.64 9.5847-3.64 21.814 0 12.229 3.64 21.814 3.63 9.5847 9.91 16.195 6.61 6.2797 15.21 9.9153 8.59 3.3051 18.5 3.3051 6.94 0 12.56-1.322t9.92-2.9746q4.63-1.6525 8.26-2.9746 3.64-1.322 6.61-1.322 6.61 0 10.58 4.6271 3.96 4.6271 3.96 13.881 0 1.6525-0.33 3.6356 0 1.983-0.33 3.9661-11.57 6.2797-24.79 9.9153-12.89 3.3052-30.07 3.3052z" style="white-space:pre"/><path d="m110158 665.5q-15.87 0-33.05-2.9746-16.86-3.3051-32.72-8.9237-0.33-1.6526-0.66-3.3051 0-1.983 0-3.6356 0-8.5932 3.63-13.881 3.64-5.2881 10.25-5.2881 3.96 0 9.25 1.322 5.62 1.322 11.9 3.3051 6.61 1.6525 14.54 2.9746 7.94 1.322 16.86 1.322 9.91 0 15.86-1.322 6.28-1.6525 9.59-3.9661 3.3-2.6441 4.3-5.6186 1.32-3.3051 1.32-6.9407 0-7.2712-5.62-10.907-5.62-3.9661-19.83-7.9322l-23.47-6.6102q-26.77-7.6017-37.35-18.508-10.57-11.237-10.57-27.763 0-8.9237 3.63-17.186 3.64-8.2627 11.24-14.542 7.93-6.2797 20.16-9.9153 12.23-3.9661 29.75-3.9661 28.75 0 60.48 10.576 0 1.6525 0 2.9746 0.33 0.99152 0.33 2.3136 0 9.5847-3.63 15.203-3.31 5.2881-10.58 5.2881t-18.51-3.3051q-10.91-3.6356-28.09-3.6356-15.87 0-22.48 3.9661-6.28 3.9661-6.28 10.907 0 2.9746 0.66 5.2881 1 2.3136 3.31 4.2966 2.64 1.983 6.94 3.9661 4.63 1.6525 12.23 3.6356l24.79 6.9407q27.1 7.6017 38.01 18.839 11.23 11.237 11.23 28.424 0 8.9237-3.3 17.847-2.98 8.5932-10.58 15.534-7.6 6.6102-20.82 10.907-12.89 4.2966-32.72 4.2966z" style="white-space:pre"/></g><text fill="#000000" font-family="sans-serif" font-size="40px" letter-spacing="0px" word-spacing="0px" style="line-height:1.25;shape-inside:url(#rect1421);white-space:pre" xml:space="preserve"/></g>
</svg>
