<svg width="800" height="128.62" version="1.1" viewBox="0 0 800 128.62" xmlns="http://www.w3.org/2000/svg">
 <g transform="scale(4.6647)">
  <path d="m171.5 25.66c0 1.055-0.857 1.913-1.914 1.913h-167.67c-1.056 0-1.914-0.858-1.914-1.914v-23.746c0-1.056 0.858-1.913 1.914-1.913h167.67c1.057 0 1.914 0.857 1.914 1.913z" fill="#fff"/>
  <path transform="translate(46.648)" d="m0.021 0h66.367v27.573h-66.367z" fill="#cb0000"/>
  <path transform="translate(46.648)" d="m0.02 14.333v13.195h66.368v-15.852c-21.474 0.672-44.61 1.543-66.367 2.657z" fill="#ac0000"/>
  <path d="m122.01 5.974h1.396c0.736 0 0.892-0.152 0.892-0.893v-1.391c0-0.74-0.156-0.89-0.892-0.89h-1.396c-0.739 0-0.89 0.15-0.89 0.89v1.392c-2e-3 0.74 0.15 0.893 0.89 0.893z" fill="#fff"/>
  <path transform="translate(5.145,2.4)" d="m11.353 13.83c0 2.176-1.421 3.762-4.306 4.074-2.092 0.225-5.118-0.04-6.557-0.206-0.044-0.233-0.084-0.524-0.084-0.76 0-1.89 1.02-2.332 1.983-2.332 0.998 0 2.576 0.178 3.742 0.178 1.292 0 1.683-0.439 1.683-0.855 0-0.544-0.517-0.768-1.52-0.962l-2.74-0.525c-2.276-0.439-3.491-2.012-3.491-3.682 0-2.031 1.44-3.73 4.268-4.042 2.137-0.235 4.747 0.027 6.174 0.204 0.048 0.241 0.077 0.476 0.077 0.728 0 1.893-1.003 2.303-1.963 2.303-0.738 0-1.887-0.136-3.199-0.136-1.334 0-1.886 0.369-1.886 0.816 0 0.477 0.524 0.67 1.358 0.814l2.617 0.487c2.684 0.496 3.843 2.021 3.843 3.897m4.69 2.331c0 1.168-0.455 1.838-2.731 1.838-0.302 0-0.563-0.019-0.815-0.058v-15.45c0-1.175 0.4-2.401 2.696-2.401 0.29 0 0.583 0.029 0.853 0.089v15.982h-2e-3zm9.3 5.978c0.301 0.154 0.91 0.338 1.682 0.357 1.32 0.029 2.04-0.475 2.574-1.66l7.085-15.799c-0.29-0.156-0.942-0.33-1.468-0.34-0.91-0.02-2.137 0.165-2.917 2.03l-2.295 5.413-4.499-7.326c-0.291-0.089-1.003-0.214-1.517-0.214-1.597 0-2.48 0.583-3.406 1.584l-4.374 4.78 3.518 5.533c0.652 1.015 1.51 1.528 2.898 1.528 0.916 0 1.672-0.213 2.022-0.38l-4.237-6.383 3.002-3.185 4.93 7.733z" fill="#333"/>
  <g>
   <path transform="translate(5.488,14.571)" d="m25.963 0.439 2.041 3.202-3.003 6.328c0.302 0.154 0.91 0.337 1.683 0.356 1.32 0.03 2.039-0.475 2.574-1.66l3.866-8.62c-2.41 0.128-4.8 0.26-7.16 0.394zm-6.573 3.89c0.651 1.014 1.509 1.527 2.898 1.527 0.916 0 1.672-0.213 2.022-0.379l-3.159-4.757c-1.312 0.079-2.614 0.158-3.905 0.238l2.144 3.37zm-12.686 1.404c2.885-0.312 4.306-1.896 4.306-4.074 0-0.1-3e-3 -0.2-0.01-0.3-1.194 0.08-2.375 0.16-3.547 0.242 0.01 0.05 0.018 0.101 0.018 0.156 0 0.417-0.391 0.856-1.683 0.856-1.166 0-2.744-0.179-3.742-0.179-0.964 0-1.983 0.443-1.983 2.333 0 0.235 0.04 0.527 0.084 0.76 1.44 0.166 4.465 0.428 6.557 0.206zm8.996-1.743v-2.935c-1.191 0.076-2.374 0.151-3.548 0.228v4.487c0.254 0.04 0.515 0.058 0.815 0.058 2.278 2e-3 2.734-0.669 2.734-1.836z"/>
  </g>
  <g fill="#333">
   <path transform="translate(118.16 2.743)" d="m13.027 18.662h-1.392c-0.74 0-0.892 0.154-0.892 0.89v1.393c0 0.739 0.15 0.893 0.892 0.893h1.392c0.741 0 0.894-0.152 0.894-0.893v-1.394c0-0.735-0.153-0.89-0.894-0.89zm4.375 0h-1.39c-0.742 0-0.89 0.154-0.89 0.89v1.393c0 0.739 0.148 0.893 0.89 0.893h1.39c0.738 0 0.897-0.152 0.897-0.893v-1.394c-2e-3 -0.735-0.161-0.89-0.897-0.89zm6.169 0h-1.394c-0.738 0-0.892 0.154-0.892 0.89v1.393c0 0.739 0.153 0.893 0.892 0.893h1.394c0.74 0 0.89-0.152 0.89-0.893v-1.394c0-0.735-0.15-0.89-0.89-0.89zm-10.149-5.448c-0.63 0-0.834-0.115-0.882-0.597v-5.14c0-2.617-2.507-2.506-2.507-2.506h-4.57s-4.907-0.334-5.351 5.234c-0.497 6.221 5.908 6.316 5.908 6.316h12.721c1.454 0 1.447-0.923 1.447-1.01 0 1.126 1.228 1.01 1.228 1.01h3.977c2.231 0 2.45-2.082 2.45-2.082v-9.468c-3.398 0-3.34 2.507-3.34 2.507v5.74l-3.423-3e-3c-0.691 0-0.866-0.133-0.892-0.744v-7.5c-2.883 0-3.286 1.689-3.334 2.294v5.952l-3.433-3e-3zm-4.514 2.185c0-0.745-0.115-0.954-0.302-1.345-0.684-1.39-2.343-0.842-3.255-0.952-0.518-0.061-1.823-0.545-1.895-2.228-0.11-2.564 2.34-2.674 2.34-2.674h3.125l-0.013 7.2zm23.238 1.036c-0.304 2.064-2.144 2.095-2.144 2.095-3.605 0.084-2.905 3.231-2.905 3.231 2.008 0.225 4.814 0 6.488-1.224 1.675-1.227 1.898-4.022 1.898-4.022l10.066 6e-3h2.54c0-3.511-2.515-3.345-2.515-3.345l-1.823 3e-3c-2.315 0-2.23-2.56-2.23-2.56 0-3.373 3.573-1.785 5.249-2.452 1.679-0.669 1.34-3.233 1.34-3.233h-5.47c-3.02 0-5.068 2.703-4.805 5.684 0.168 1.92 0.668 2.561 0.668 2.561h-2.59c-0.342-0.082-0.428-0.306-0.428-0.85v-7.395c-3.492 0-3.337 2.51-3.337 2.51v8.99h-2e-3zm-28.299-13.204h1.396c0.735 0 0.892-0.152 0.892-0.893v-1.392c0-0.74-0.157-0.89-0.892-0.89h-1.396c-0.74 0-0.89 0.15-0.89 0.89v1.392c-2e-3 0.74 0.149 0.893 0.89 0.893zm4.373 0h1.394c0.738 0 0.89-0.152 0.89-0.893v-1.392c0-0.74-0.152-0.89-0.89-0.89h-1.394c-0.74 0-0.89 0.15-0.89 0.89v1.392c2e-3 0.74 0.153 0.893 0.89 0.893z"/>
  </g>
  <g>
   <path transform="translate(118.16 10.286)" d="m13.027 11.119h-1.392c-0.74 0-0.892 0.154-0.892 0.89v1.393c0 0.74 0.15 0.893 0.892 0.893h1.392c0.741 0 0.894-0.152 0.894-0.893v-1.392c0-0.736-0.153-0.89-0.894-0.89zm4.375 0h-1.39c-0.742 0-0.89 0.154-0.89 0.89v1.393c0 0.74 0.148 0.893 0.89 0.893h1.39c0.738 0 0.897-0.152 0.897-0.893v-1.392c-2e-3 -0.736-0.161-0.89-0.897-0.89zm6.169 0h-1.394c-0.738 0-0.892 0.154-0.892 0.89v1.393c0 0.74 0.153 0.893 0.892 0.893h1.394c0.74 0 0.89-0.152 0.89-0.893v-1.392c0-0.736-0.15-0.89-0.89-0.89zm0.931-10.588v5.143l-3.423-1e-3c-0.691 0-0.866-0.134-0.892-0.744v-4.29l-3.334 0.086v4.95l-3.431-2e-3c-0.63 0-0.834-0.115-0.882-0.597v-4.236l-3.62 0.098-0.012 6.919c0-0.746-0.115-0.955-0.302-1.346-0.684-1.39-2.343-0.842-3.255-0.952-0.518-0.061-1.823-0.545-1.895-2.228-0.053-1.252 0.502-1.917 1.087-2.272l-4.176 0.12c-0.122 0.441-0.21 0.933-0.254 1.483-0.497 6.221 5.908 6.316 5.908 6.316h12.721c1.454 0 1.447-0.923 1.447-1.01 0 1.126 1.228 1.01 1.228 1.01h3.977c2.231 0 2.45-2.081 2.45-2.081v-6.447l-3.342 0.08zm22.266 0.093c0.345-0.137 0.604-0.357 0.8-0.615-2.937 0.06-6.024 0.126-9.246 0.198-0.4 0.86-0.58 1.848-0.49 2.868 0.167 1.92 0.668 2.562 0.668 2.562h-2.591c-0.342-0.083-0.427-0.307-0.427-0.85v-4.517l-3.338 0.077v8.544c-0.303 2.065-2.144 2.096-2.144 2.096-3.604 0.084-2.905 3.231-2.905 3.231 2.009 0.225 4.814 0 6.488-1.224 1.676-1.227 1.899-4.021 1.899-4.021l10.065 5e-3h2.54c0-3.511-2.514-3.345-2.514-3.345l-1.823 4e-3c-2.316 0-2.23-2.562-2.23-2.562 0-3.372 3.572-1.784 5.248-2.451z"/>
  </g>
  <g fill="#fff">
   <path transform="translate(51.279,7.029)" d="m0.122 0.38c0.197-0.052 0.386-0.101 0.564-0.146 0.178-0.044 0.376-0.067 0.592-0.067 0.52 0 0.886 0.14 1.102 0.417 0.215 0.278 0.323 0.65 0.323 1.114v0.484h0.053c0.448-0.629 1.034-1.143 1.761-1.546 0.726-0.403 1.554-0.605 2.487-0.605 1.506 0 2.67 0.48 3.495 1.436 0.823 0.959 1.237 2.306 1.237 4.044v6.744c0 0.306-0.095 0.564-0.283 0.779-0.189 0.214-0.542 0.322-1.062 0.322-0.555 0-0.995-0.045-1.317-0.134v-7.414c0-1.236-0.264-2.13-0.792-2.686s-1.276-0.833-2.245-0.833c-0.609 0-1.223 0.174-1.842 0.524-0.62 0.35-1.09 0.811-1.412 1.384v8.06c0 0.305-0.094 0.564-0.283 0.778-0.188 0.215-0.541 0.323-1.061 0.323-0.556 0-0.995-0.045-1.317-0.134v-12.843zm16.478 7.309c0.108 1.128 0.533 1.997 1.275 2.605 0.745 0.609 1.707 0.914 2.89 0.914 0.501 0 0.937-0.04 1.304-0.12s0.694-0.166 0.98-0.255c0.287-0.09 0.548-0.175 0.78-0.256 0.234-0.08 0.467-0.122 0.7-0.122 0.36 0 0.637 0.184 0.834 0.55 0.197 0.368 0.242 0.839 0.134 1.412-0.52 0.25-1.183 0.492-1.99 0.725-0.806 0.233-1.72 0.35-2.742 0.35-1.075 0-2.039-0.17-2.89-0.511-0.85-0.34-1.567-0.815-2.15-1.425-0.583-0.609-1.03-1.325-1.345-2.15-0.314-0.823-0.47-1.72-0.47-2.686 0-0.967 0.162-1.858 0.484-2.673 0.322-0.814 0.767-1.517 1.33-2.108 0.565-0.592 1.229-1.056 1.99-1.397 0.762-0.34 1.59-0.511 2.487-0.511 1.003 0 1.881 0.188 2.634 0.564 0.753 0.375 1.384 0.864 1.895 1.464s0.892 1.275 1.142 2.028c0.25 0.752 0.376 1.514 0.376 2.283 0 0.25-0.014 0.484-0.041 0.698-0.028 0.214-0.058 0.422-0.094 0.617h-9.514v4e-3zm7.15-1.908c-0.073-1.04-0.412-1.912-1.023-2.62-0.609-0.708-1.45-1.061-2.526-1.061-1.075 0-1.923 0.345-2.54 1.034-0.619 0.689-0.972 1.572-1.062 2.647h7.15zm18.573 6.502c-0.108 0.43-0.336 0.722-0.686 0.872-0.35 0.153-0.748 0.228-1.196 0.228-0.233 0-0.506-0.018-0.82-0.053-0.313-0.036-0.55-0.08-0.711-0.133l-2.662-9.834-2.473 8.867c-0.125 0.466-0.353 0.775-0.686 0.927-0.33 0.153-0.73 0.228-1.195 0.228-0.215 0-0.489-0.019-0.82-0.053-0.33-0.036-0.578-0.09-0.74-0.161l-3.144-12.681c0.178-0.073 0.385-0.143 0.619-0.215 0.233-0.072 0.5-0.108 0.806-0.108 0.394 0 0.712 0.077 0.953 0.228 0.242 0.153 0.408 0.425 0.498 0.82l1.128 5.158 0.887 4.433h0.053c0.09-0.484 0.228-1.061 0.417-1.733 0.188-0.672 0.353-1.276 0.497-1.814l1.72-6.017c0.065-0.178 0.172-0.658 0.232-0.818 0.115-0.161 1.126-0.608 2.226-0.291 0.274 0.079 0.278 0.16 0.367 0.267 0.089 0.11 0.212 0.51 0.212 0.51l1.827 6.457c0.178 0.645 0.336 1.263 0.47 1.853 0.134 0.592 0.255 1.12 0.363 1.586h0.054l0.283-1.492c0.097-0.528 0.22-1.105 0.363-1.733l1.451-6.447c0.09-0.358 0.242-0.609 0.456-0.753 0.215-0.142 0.501-0.214 0.861-0.214 0.27 0 0.515 0.03 0.74 0.094 0.224 0.064 0.416 0.12 0.577 0.175l-2.927 11.846zm7.822-4.891c-1.417-0.375-2.411-0.864-2.984-1.464-0.575-0.6-0.861-1.33-0.861-2.19 0-0.483 0.094-0.944 0.283-1.383 0.188-0.438 0.492-0.828 0.914-1.169 0.42-0.34 0.959-0.613 1.612-0.82 0.653-0.205 1.456-0.308 2.406-0.308 1.542 0 3.154 0.287 4.838 0.86 0.053 0.572-5e-3 1.033-0.175 1.383s-0.461 0.524-0.873 0.524c-0.197 0-0.411-0.03-0.645-0.094-0.233-0.062-0.505-0.13-0.82-0.202-0.313-0.072-0.658-0.14-1.033-0.203-0.376-0.063-0.806-0.094-1.29-0.094-0.967 0-1.636 0.125-2.003 0.375s-0.55 0.583-0.55 0.995c0 0.18 0.022 0.336 0.066 0.47 0.045 0.133 0.134 0.263 0.27 0.389 0.133 0.125 0.336 0.241 0.605 0.35 0.269 0.107 0.617 0.224 1.048 0.349l2.07 0.564c1.47 0.411 2.5 0.914 3.09 1.505 0.59 0.592 0.887 1.353 0.887 2.284 0 0.466-0.08 0.927-0.242 1.383-0.161 0.456-0.444 0.87-0.847 1.236-0.403 0.367-0.954 0.667-1.654 0.9s-1.586 0.35-2.661 0.35c-0.861 0-1.743-0.086-2.648-0.256-0.906-0.17-1.787-0.406-2.648-0.711-0.09-0.556-0.045-1.017 0.134-1.384 0.178-0.366 0.466-0.55 0.86-0.55 0.215 0 0.467 0.04 0.753 0.12 0.287 0.08 0.61 0.166 0.968 0.256 0.358 0.089 0.753 0.174 1.183 0.255 0.43 0.08 0.895 0.122 1.398 0.122 0.591 0 1.067-0.05 1.425-0.148 0.358-0.097 0.636-0.224 0.833-0.375 0.198-0.153 0.326-0.322 0.39-0.511 0.061-0.189 0.094-0.38 0.094-0.578 0-0.43-0.166-0.756-0.497-0.98-0.333-0.225-0.9-0.453-1.707-0.686l-1.99-0.564z"/>
  </g>
 </g>
</svg>
