<svg width="1615" height="193.51" fill="none" version="1.1" viewBox="0 0 1615 193.51" xmlns="http://www.w3.org/2000/svg">
 <path d="m1606 8.3962e-4c4.9925 0 9.0175 4.234 9.0175 9.3952v174.72c0 5.1612-4.0637 9.3952-9.0176 9.3952h-820.29c-4.9925 0-9.0175-4.234-9.0175-9.3952v-174.68c0-5.2015 4.0637-9.3952 9.0175-9.3952h820.29" fill="#fff" stroke-width=".39503"/>
 <path d="m787.1 7.1171e-4h-465.07c-7.0952 0-12.901 5.8053-12.901 12.901v167.71c0 7.0952 5.8055 12.901 12.901 12.901h465.07c7.0943 0 12.902-5.8055 12.902-12.901v-167.71c0-7.0953-5.8073-12.901-12.902-12.901z" fill="url(#paint0_linear)" stroke-width="4.5158"/>
 <path d="m122.23 134c0 8.8694-3.5476 14.03-20.964 14.03-2.2574 0-4.3541-0.16121-6.2891-0.48409v-118.04c0-9.0305 3.0639-18.383 20.641-18.383 2.2574 0 4.5153 0.16126 6.6115 0.64503zm71.114 45.636c2.2579 1.1289 6.9344 2.5803 12.901 2.7415 10.159 0.16121 15.642-3.7088 19.673-12.739l54.183-120.62c-2.2579-1.1289-7.2568-2.5799-11.288-2.5799-6.9344-0.16166-16.287 1.2897-22.254 15.481l-17.577 41.282-34.348-55.956c-2.2574-0.64486-7.7405-1.6126-11.61-1.6126-12.255 0-19.029 4.5153-25.963 12.094l-33.541 36.445 26.93 42.25c4.999 7.74 11.449 11.61 22.092 11.61 6.934 0 12.739-1.6126 15.48-2.9027l-32.413-48.539 22.899-24.35 37.734 59.02zm-139.97-32.413c22.092-2.4186 32.896-14.513 32.896-31.123 0-14.352-8.8694-25.963-29.188-29.349l-19.996-3.7088c-6.4503-1.1289-10.482-2.5803-10.482-6.2891 0-3.5476 4.1927-6.2891 14.352-6.2891 5.8208 0 11.165 0.31791 15.73 0.58886 3.4022 0.20231 6.3713 0.37887 8.7814 0.37887 7.4181 0 14.997-3.0639 14.997-17.577 0-1.935-0.32243-3.87-0.64485-5.6438-10.966-1.4514-30.961-3.3866-47.249-1.6126-21.608 2.2574-32.574 15.319-32.574 30.8 0 12.739 9.3529 24.834 26.769 28.059l20.963 4.0312c7.7405 1.6126 11.61 3.2252 11.61 7.418 0 3.064-3.0639 6.4503-12.901 6.4503-4.7127 0-10.26-0.35133-15.565-0.68775-4.8596-0.30753-9.5154-0.60241-13.139-0.60241-7.4179 0-15.158 3.2252-15.158 17.738 0 1.7738 0.32252 4.0312 0.64503 5.805 10.966 1.2902 34.187 3.3864 50.151 1.6126z" clip-rule="evenodd" fill="#1c1c1c" fill-rule="evenodd" stroke-width="4.5158"/>
 <path d="m115.62 11.128c-17.577 0-20.48 9.3529-20.48 18.383v80.951c0-3.2252 2.5803-6.6115 6.6115-6.7728 1.3882-0.0772 3.9938-0.15444 6.5993-0.23166 2.8422-0.084 5.6844-0.16798 6.9466-0.25243 2.7411-0.16121 6.7728-1.935 6.934-6.934v-84.499c-2.0962-0.32252-4.3541-0.64503-6.6115-0.64503zm79.016 36.122 33.542 54.505c-1.2902-1.7738-2.9027-2.5799-4.3541-2.5799-0.50531 0-6.244 0.21992-11.727 0.4299l-0.0113 4.52e-4 -5e-3 4.52e-4h-9e-3c-5.0071 0.19192-9.7934 0.37526-10.178 0.37526-0.96773 0-5.1606 0-7.9017-3.7088l-15.481-24.189-22.899 24.35 5.9667 9.0306c-1.6126-2.0967-4.1929-3.8705-8.3853-3.7092-0.60918 0-4.5252 0.14406-8.6599 0.29579-4.6223 0.16979-9.5174 0.34952-10.369 0.34952-4.5153 0.16121-6.7728-2.4191-7.9017-4.0317l-2.7411-4.1924 33.541-36.445c6.934-7.5788 13.707-12.094 25.963-12.094 3.87 0 9.3531 0.96773 11.61 1.6126zm65.592 46.028 0.0393-0.06954 19.835-44.185c-2.2579-1.2902-7.2568-2.5799-11.127-2.5799-6.9344-0.16166-16.287 1.2897-22.254 15.481l-17.018 40.137c-0.051 0.11199-0.075 0.17747-0.075 0.17747l0.075-0.17747c0.2994-0.65569 1.525-2.91 4.2787-3.0477 0 0 16.771-0.6453 18.061-0.6453 5.3756-0.15805 7.4957-3.8809 8.1848-5.0906zm-223.3-10.551 19.996 3.7088c20.479 3.7088 29.349 15.319 29.51 29.671 0 1.0079 0 1.8871-0.1147 2.7524 0.25108-7.4555-4.7045-14.513-13.27-14.202-1.5846 0.0659-5.4672 0.18605-9.6665 0.3161-6.0565 0.18741-12.771 0.39513-14.2 0.49041-7.7403 0.32243-17.9-0.32287-22.415-1.1289-5.4828-0.96773-10.804-2.4191-16.126-5.8055-7.0953-5.4826-10.643-13.223-10.643-21.125 0-15.481 10.966-28.542 32.413-31.123 16.448-1.7737 36.283 0.32287 47.249 1.6126 0.48364 1.9355 0.64485 3.7092 0.64485 5.6443 0 14.513-7.5788 17.577-14.997 17.577-2.4214 0-5.4361-0.17837-8.8794-0.38158-4.5822-0.27049-9.9229-0.58615-15.632-0.58615-10.159 0-14.352 2.9027-14.352 6.2891 0 3.7088 4.0315 5.1602 10.482 6.2891zm49.391 36.132c-0.014 0.10431-0.02935 0.20772-0.04651 0.31159v0.48364c0.02213-0.26508 0.03748-0.53061 0.04651-0.79523z" clip-rule="evenodd" fill="url(#paint2_linear)" fill-rule="evenodd" opacity=".25" stroke-width="4.5158"/>
 <g fill="#fff" stroke-width="4.5158">
  <path d="m430.56 89.338v49.183c0 3.5476-2.0962 5.9662-8.3853 5.9662-2.5799 0-5.6438-0.32243-7.2564-0.80606v-52.247c0-18.222-8.8694-26.93-22.415-26.93-10.482 0-21.77 7.2568-26.446 15.803v58.375c0 3.5476-2.0962 5.9667-8.3853 5.9667-2.5803 0-5.6443-0.32288-7.2568-0.80652v-91.594c1.4514-0.32242 4.5153-0.80652 7.2568-0.80652 6.2891 0 8.3853 2.2579 8.3853 5.9667v7.7405c6.6115-8.2241 16.771-14.674 30.155-14.674 18.706 0 34.348 11.772 34.348 38.863z"/>
  <path d="m465.07 103.53h70.631c0.48318-3.2252 0.64575-6.4503 0.32513-9.1914 0-22.092-13.868-43.862-41.929-43.862-24.832 0-45.152 19.673-45.152 47.087 0 28.542 19.191 47.732 47.73 47.732 13.227 0 25.641-4.0317 33.864-7.5793 0.80832-8.3853-2.0953-11.933-6.4485-11.933-1.3186 0-2.6327 0.4299-5.2654 1.2902-0.59157 0.19327-1.2509 0.40822-1.9915 0.64485-5.6447 1.935-11.773 3.3864-19.513 3.3864-18.059 0-30.156-9.8367-32.252-27.575zm56.117-12.094h-56.117c2.4204-18.061 15.159-27.736 29.348-27.736 16.126 0 26.124 12.094 26.769 27.736z" clip-rule="evenodd" fill-rule="evenodd"/>
  <path d="m679.54 53.7-24.186 84.015c-1.4496 5.3218-5.4821 6.6115-11.289 6.6115-3.2243 0-6.4485-0.64485-9.1896-1.2897l-23.062-73.856-21.608 68.534c-1.7747 5.3218-5.9653 6.6115-10.964 6.6115-3.2243 0-6.7737-0.64485-9.5147-1.2897l-25.803-89.337c2.2579-1.1289 6.453-2.2574 9.8399-2.2574 4.3532 0 6.6111 1.2897 7.74 5.4826l18.221 70.147h0.16257l22.574-73.372c2.5785-1.4514 6.1279-2.2574 9.6773-2.2574 5.9653 0 9.1896 1.2897 10.802 6.7727l20.967 68.696h0.15805l17.738-70.147c1.1289-4.1929 3.3868-5.483 7.74-5.483 3.87 0.16166 7.74 1.2902 9.9979 2.4191z"/>
  <path d="m689.86 139c-1.129-7.9017 1.2915-12.094 5.9653-12.094 4.3532 0 14.997 4.6765 29.831 4.6765 15.643 0 21.45-5.483 21.45-12.739 0-5.1602-2.2579-9.6755-16.288-13.546l-16.126-4.3536c-17.901-4.6765-24.832-13.707-24.832-24.672 0-13.707 10.802-25.801 35.313-25.801 10.969 0 24.674 2.4186 33.06 5.6438 1.4496 7.7405-0.96638 11.933-5.6447 11.933-4.1906 0-13.705-4.0317-27.09-4.0317-14.514 0-19.838 4.999-19.838 11.449 0 4.5153 2.0998 8.7078 14.997 12.417l16.451 4.5153c18.384 5.1602 25.799 13.707 25.799 25.801 0 14.191-10.964 26.93-37.571 26.93-11.935 0.16122-26.607-2.7415-35.476-6.1279z"/>
 </g>
 <defs>
  <linearGradient id="paint0_linear" x1="68.442" x2="68.442" y2="42.852" gradientTransform="matrix(4.5158 0 0 4.5158 .00345 .00071171)" gradientUnits="userSpaceOnUse">
   <stop stop-color="#E90E10" offset=".4"/>
   <stop stop-color="#BC0000" offset="1"/>
  </linearGradient>
  <linearGradient id="paint1_linear" x1="172.4" x2="172.36" y1="20.026" y2="-1.3157" gradientTransform="matrix(4.5158 0 0 4.5158 .00345 .00071171)" gradientUnits="userSpaceOnUse">
   <stop stop-color="#fff" offset="0"/>
   <stop stop-color="#fff" stop-opacity=".25" offset="1"/>
  </linearGradient>
  <linearGradient id="paint2_linear" x1="49.833" x2="49.758" y1="22.46" y2="8.1054" gradientTransform="matrix(4.5158 0 0 4.5158 .00345 .00071171)" gradientUnits="userSpaceOnUse">
   <stop stop-color="#fff" offset="0"/>
   <stop stop-color="#fff" stop-opacity=".25" offset="1"/>
  </linearGradient>
 </defs>
 <g transform="translate(.00345 512.48)" fill="#1c1c1c">
  <path d="m919.74-479.23c3.2704-0.98691 6.7665-0.47733 10.088 0.0323l0.0129 95.718c-0.0387 1.4965 0.11611 3.051-0.40638 4.483-0.58699 1.5158-2.206 2.2641-3.6961 2.5286-2.9866 0.51603-6.0183 0.13546-8.9661-0.37413l0.0194-98.098c-0.0903-1.9029 1.0708-3.7606 2.9478-4.2895z" stroke-width=".64504"/>
  <path d="m1190.3-468.47c3.3026-1.7932 7.2761-0.96757 10.792-0.30962v16.365l29.478 6e-3c0.3289 2.8511 0.8514 5.8376-0.01 8.65-0.5547 1.8061-2.406 2.9414-4.2508 2.793l-25.221 6e-3 0.013 41.38c0.045 3.7154 0.8966 7.8566 3.967 10.288 3.2381 2.5221 7.6244 2.6963 11.54 2.2318 3.5671-0.36123 6.8504-1.8835 10.282-2.8253 1.9287-0.56764 4.3928-0.41928 5.7344 1.303 1.7094 2.2641 1.5224 5.341 1.2192 8.0114-6.6569 3.0124-13.836 5.0442-21.17 5.1346-6.315 0.1161-13.011-1.432-17.758-5.8183-4.7282-4.296-6.76-10.83-6.7987-17.081l-0.019-63.827c-0.1032-2.2448-0.032-5.0636 2.1996-6.3085z" stroke-width=".64504"/>
  <path d="m869.58-453.69c11.03-1.4062 22.344 0.94176 32.381 5.5603 0.34187 2.9156 0.7289 6.3279-1.2643 8.7661-2.0964 2.1351-5.3926 1.0643-7.8695 0.30317-4.9926-1.8513-10.134-3.58-15.513-3.5993-6.7084-0.34187-13.585 1.9158-18.526 6.5214-4.7927 4.3992-7.5599 10.701-8.2566 17.113-0.85145 7.3857 0.48379 15.242 4.8056 21.409 3.8251 5.5796 10.076 9.366 16.771 10.295 6.6375 0.99981 13.385-0.50314 19.506-3.0833 2.6124-0.95466 5.9473-2.3157 8.4372-0.37412 2.4899 2.3157 2.2125 6.1279 1.9029 9.2177-11.282 5.3087-24.402 7.8502-36.664 4.7991-9.9143-2.5479-18.584-9.4241-23.363-18.474-7.0568-13.217-6.373-30.394 2.148-42.792 5.7925-8.521 15.32-14.255 25.505-15.662z" stroke-width=".64504"/>
  <path d="m995.94-443.03c4.096-5.341 10.03-9.3983 16.707-10.63 7.0245-1.3094 14.778 0.12256 20.364 4.7411 2.8382 2.1932 4.7346 5.2764 6.5214 8.334 2.3737-3.7477 5.5667-6.9923 9.3144-9.3854 6.4633-4.1283 14.675-5.1281 22.054-3.2446 5.0443 1.2901 9.5725 4.4379 12.514 8.7339 3.5993 5.1797 4.9991 11.591 5.0184 17.816l-0.019 45.746c0.097 1.8513-1.0902 3.6445-2.8898 4.1412-3.2833 0.97401-6.7859 0.51603-10.082-0.0774l0.01-47.92c-0.01-4.8636-0.9224-10.147-4.4186-13.785-3.3348-3.4574-8.4823-4.3928-13.088-3.8122-6.0956 0.85146-11.533 4.7475-14.746 9.9272-0.4515 0.76115-1.0127 1.5546-0.8837 2.4834l-0.01 48.417c0.129 1.8706-0.658 3.9928-2.5673 4.6314-3.3736 1.1998-7.0439 0.61924-10.482 0.0774l-0.01-46.65c0.129-4.0573-0.2322-8.2759-2.1222-11.933-1.7739-3.5735-5.3216-6.0957-9.2306-6.7794-6.8245-1.4126-14.004 1.5094-18.532 6.6633-1.4255 1.8319-3.4058 3.7542-3.2704 6.2505l0.0129 48.391c0.12256 1.8255-1.0514 3.6251-2.8382 4.1025-3.2962 1.0127-6.8181 0.49668-10.147-0.0516l0.0452-75.928c3.6316-0.39347 7.7857-1.3804 11.121 0.63214 2.7156 2.1932 1.3094 6.1215 1.6513 9.108z" stroke-width=".64504"/>
  <path d="m1108.7-448.62c12.204-4.2315 25.344-6.6633 38.251-4.9023 6.0312 0.87081 12.204 3.2123 16.171 8.0501 4.4508 5.3861 5.5732 12.649 5.6699 19.429l0.026 49.191c-3.7348 0.58699-8.1211 1.4707-11.443-0.83211-2.5414-2.6124-1.0901-6.631-1.4707-9.8756-6.3988 7.4309-15.939 12.095-25.795 12.114-7.4503 0.21931-15.326-1.9222-20.667-7.3406-7.1407-6.9665-8.6888-19.203-2.8834-27.447 4.0767-5.7151 10.83-8.7081 17.442-10.417 10.366-2.5673 21.177-2.6382 31.781-1.9545 0-5.2571 0.2322-11.192-3.2059-15.552-3.4316-4.0444-9.1789-4.5863-14.126-4.6701-7.6373-0.0258-15.113 1.8061-22.454 3.7219-2.0061 0.51603-4.483 0.64504-5.9989-0.99982-2.077-2.3028-1.7868-5.6893-1.2965-8.5146m22.19 36.284c-4.2896 0.92241-8.7404 2.3867-11.862 5.6248-3.6187 3.6832-3.9541 9.895-1.0837 14.12 2.3932 3.651 6.6891 5.6248 10.934 6.0634 10.392 1.0901 20.906-4.0831 26.956-12.494l-0.013-14.21c-8.3017-0.56764-16.732-0.7418-24.931 0.89661z" stroke-width=".64504"/>
  <path d="m1268.2-453.13c11.695-2.6963 25.195-0.0258 33.587 8.9726 8.592 8.9145 11.159 22.112 9.4435 34.071l-58.602 6e-3c0.7289 5.7538 2.9091 11.533 7.1535 15.623 5.0314 5.0571 12.359 7.1148 19.345 7.1213 6.2891 0.0967 12.475-1.3804 18.358-3.4897 2.3673-0.83855 5.3732-1.6449 7.4632 0.25802 2.3092 2.277 2.2254 5.8312 2.0512 8.8371-12.366 5.2571-26.363 8.1662-39.638 4.9088-10.495-2.5157-19.796-9.8369-24.215-19.751-5.0636-11.34-5.1926-24.957 0.058-36.258 4.6766-10.095 14.12-17.848 24.995-20.3m-6.4891 15.391c-5.2377 4.3153-8.1533 10.869-9.0758 17.487l46.417 6e-3c-0.3032-6.7988-2.9092-13.778-8.2888-18.164-8.1856-6.7601-21.086-6.1279-29.053 0.67084z" stroke-width=".64504"/>
  <path d="m964.97-469.82a8.336 8.2595 0 0 1-8.336 8.2595 8.336 8.2595 0 0 1-8.336-8.2595 8.336 8.2595 0 0 1 8.336-8.2595 8.336 8.2595 0 0 1 8.336 8.2595z" stop-color="#000000" stroke-width=".64996"/>
  <path d="m953.04-452.79c3.1994-0.94821 6.6117-0.49023 9.8498 0.0516l-6e-3 71.819c0.11611 1.9029-1.0966 3.8058-3.0124 4.2315-3.2059 0.85791-6.5859 0.38703-9.7982-0.14836l6e-3 -71.813c-0.12901-1.8771 1.1611-3.6316 2.9608-4.1412z" stroke-width=".64504"/>
  <path d="m1368.2-479.23c3.2703-0.98691 6.7665-0.47733 10.088 0.0323l0.013 95.718c-0.039 1.4965 0.1161 3.051-0.4064 4.483-0.587 1.5158-2.2061 2.2641-3.6961 2.5286-2.9866 0.51603-6.0183 0.13546-8.9661-0.37413l0.019-98.098c-0.09-1.9029 1.0708-3.7606 2.9478-4.2895z" stroke-width=".64504"/>
  <path d="m1534.7-453.13c11.695-2.6963 25.195-0.0258 33.587 8.9726 8.592 8.9145 11.159 22.112 9.4435 34.071l-58.602 6e-3c0.7289 5.7538 2.9091 11.533 7.1535 15.623 5.0314 5.0571 12.359 7.1148 19.345 7.1213 6.2891 0.0967 12.475-1.3804 18.358-3.4897 2.3673-0.83855 5.3732-1.6449 7.4632 0.25802 2.3092 2.277 2.2254 5.8312 2.0512 8.8371-12.366 5.2571-26.363 8.1662-39.638 4.9088-10.495-2.5157-19.796-9.8369-24.215-19.751-5.0636-11.34-5.1926-24.957 0.058-36.258 4.6766-10.095 14.12-17.848 24.995-20.3m-6.4891 15.391c-5.2377 4.3153-8.1533 10.869-9.0758 17.487l46.417 6e-3c-0.3032-6.7988-2.9092-13.778-8.2888-18.164-8.1856-6.7601-21.086-6.1279-29.053 0.67084z" stroke-width=".64504"/>
  <g transform="translate(448.52)">
   <path d="m964.97-469.82a8.336 8.2595 0 0 1-8.336 8.2595 8.336 8.2595 0 0 1-8.336-8.2595 8.336 8.2595 0 0 1 8.336-8.2595 8.336 8.2595 0 0 1 8.336 8.2595z" stop-color="#000000" stroke-width=".64996"/>
   <path d="m953.04-452.79c3.1994-0.94821 6.6117-0.49023 9.8498 0.0516l-6e-3 71.819c0.11611 1.9029-1.0966 3.8058-3.0124 4.2315-3.2059 0.85791-6.5859 0.38703-9.7982-0.14836l6e-3 -71.813c-0.12901-1.8771 1.1611-3.6316 2.9608-4.1412z" stroke-width=".64504"/>
  </g>
  <path d="m1422.5-451.3c3.5477-1.6836 7.6308-2.4963 11.527-1.7287 1.948 0.39993 3.4123 2.0061 4.1347 3.8058l24.389 59.383 23.931-58.538c0.7418-1.9674 2.019-4.0057 4.1992-4.5734 3.8445-0.95467 7.8954 0.0516 11.462 1.5997l-30.233 69.078c-0.9547 2.2448-2.1932 4.7798-4.7217 5.528-4.0703 1.103-8.3276 0.29672-12.353-0.57409z" stroke-width=".64504"/>
 </g>
 <path d="m318.32 95.949h1.2902c38.218-1.2902 470.71-16.448 470.71-16.448 4.8364-0.16121 9.6773-3.7093 9.6773-9.8367v-56.763c0-7.0953-5.8073-12.901-12.902-12.901h-465.07c-7.0952 0-12.901 5.8053-12.901 12.901v93.207c0-1.129 0.16121-9.1918 9.1918-10.159z" fill="url(#paint1_linear)" opacity=".35" stroke-width="4.5158"/>
</svg>
