<svg width="2951.8" height="969" enable-background="new 0 0 2459.8 500" space="preserve" version="1.1" viewBox="0 0 2951.8 969" xmlns="http://www.w3.org/2000/svg">
 <defs>
  <linearGradient id="path15335_1_-6" x1="-625.21" x2="-403.69" y1="653.82" y2="653.82" gradientTransform="matrix(7.5001 0 0 -7.5001 9258.2 3656.1)" gradientUnits="userSpaceOnUse">
   <stop stop-color="#FF0031" offset="0"/>
   <stop stop-color="#9B001F" offset="1"/>
  </linearGradient>
  <linearGradient id="path15297-4_1_-7" x1="-735.16" x2="-730.71" y1="1190.1" y2="1190.1" gradientTransform="matrix(-1.3157 -37.678 -37.678 1.3157 48008 -30500)" gradientUnits="userSpaceOnUse">
   <stop stop-color="#fff" offset="0"/>
   <stop stop-color="#fff" stop-opacity=".4" offset=".5"/>
   <stop stop-color="#fff" stop-opacity=".25" offset="1"/>
  </linearGradient>
  <linearGradient id="path15555_1_-0" x1="-721.24" x2="-716.8" y1="1180.7" y2="1180.7" gradientTransform="matrix(-1.9565 -56.026 -56.026 1.9565 70141 -43988)" gradientUnits="userSpaceOnUse">
   <stop stop-color="#fff" offset="0"/>
   <stop stop-color="#fff" stop-opacity=".4" offset=".5"/>
   <stop stop-color="#fff" stop-opacity=".25" offset="1"/>
  </linearGradient>
 </defs>
 <link rel="stylesheet" type="text/css"/>
 <link rel="stylesheet" type="text/css"/>
 <style type="text/css"/>
 <g transform="translate(-18166 304.14)">
  <g transform="matrix(1.2 0 0 1.2 13641 1493)">
   <path d="m3993.9-1197.8c0 43-28 74.2-85.2 80.4-41.2 4.4-101-0.8-129.4-4-1-4.6-1.8-10.4-1.8-15 0-37.4 20.2-46 39.2-46 19.8 0 51 3.4 74 3.4 25.6 0 33.2-8.6 33.2-16.8 0-10.8-10.2-15.2-30-19l-54.2-10.4c-45-8.6-69-39.6-69-72.6 0-40 28.4-73.6 84.4-79.8 42.2-4.6 93.8 0.6 122 4 1 4.8 1.6 9.4 1.6 14.4 0 37.4-19.8 45.4-38.8 45.4-14.6 0-37.2-2.6-63.2-2.6-26.4 0-37.2 7.2-37.2 16 0 9.4 10.4 13.2 26.8 16.2l51.6 9.6c53.2 9.6 76 39.8 76 76.8m92.6 46c0 23-9 36.2-54 36.2-6 0-11.2-0.4-16.2-1.2v-304.8c0-23.2 7.8-47.4 53.2-47.4 5.8 0 11.6 0.6 17 1.8zm183.8 118c6 3 18 6.8 33.2 7 26.2 0.6 40.4-9.4 51-32.8l140-311.6c-5.8-3-18.6-6.6-29-6.8-18-0.4-42.2 3.2-57.6 40l-45.6 106.6-89-144.6c-5.8-1.8-19.8-4.2-30-4.2-31.6 0-49 11.6-67.2 31.2l-86.4 94.4 69.6 109.4c12.8 20 29.8 30.2 57.2 30.2 18 0 33-4.2 40-7.4l-83.8-126 59.4-63 97.4 152.6z" fill="#ff0031"/>
   <path d="m6197.3-1497.6h-1594.8c-18.4 0-33.4 15-33.4 33.4v433.2c0 18.4 15 33.4 33.4 33.4h1594.6c18.4 0 33.4-15 33.4-33.4v-433.4c-0.2-18.4-14.8-33.2-33.2-33.2" fill="url(#path15335_1_-6)"/>
   <path d="m4016.5-1421.6v209c0-8.4 6.4-17.2 17.2-17.6 7.6-0.2 28.8-1 35.2-1.2 7-0.2 17.6-5 17.8-17.8v-218c-5.4-1.2-11.2-1.8-17-1.8-45.4 0.2-53.2 24.2-53.2 47.4m160 72.8-86.4 94.4 7 10.8c3 4 8.8 10.8 20.4 10.4 4.2-0.2 45.8-1.6 49.2-1.8 10.8-0.4 17.6 4.2 21.8 9.8l-15.4-23.2 59.4-63 39.8 62.6c7.2 9.4 18 9.6 20.4 9.6 2 0 54.4-1.8 56.6-2 3.6-0.2 7.8 1.8 11 6.4l-86.6-140.8c-5.8-1.8-19.8-4.2-30-4.2-31.6-0.2-49 11.2-67.2 31m-321.4-29c-56 6.2-84.4 39.6-84.4 79.8 0 20.6 9.4 40.4 27.4 54.6 13.6 9 27.6 12.4 41.4 14.8 11.4 2 38 3.8 57.8 3 6.2-0.2 51.8-1.8 61.6-2.2 23.2-0.8 35.6 19 34.4 38.8v-1c0.2-2.6 0.4-5.2 0.4-7.8 0-37-22.8-67.2-75.8-77l-51.6-9.6c-16.6-2.8-26.8-6.8-26.8-16.2 0-8.8 11-16.2 37.2-16.2 26 0 48.6 2.6 63.2 2.6 19 0 38.8-8 38.8-45.4 0-5-0.6-9.6-1.6-14.4-20.2-2.4-52.6-5.8-84.8-5.8-12.6 0.2-25.2 0.8-37.2 2m552.6 39.8-44.2 104.2c0-0.2 2.8-8.2 11.4-8.6 0 0 43.6-1.6 46.8-1.6 14.2-0.6 19.8-10.2 21.4-13.4l51.2-114.2c-5.8-3-18.6-6.6-29-6.8h-2.2c-17.8 0.2-40.6 5-55.4 40.4" enable-background="new    " fill="url(#path15297-4_1_-7)" opacity=".3"/>
   <path d="m4602.5-1497.6c-18.4 0-33.4 15-33.4 33.4v240.6-0.2c0-3.6 1.4-23.4 24-25.6 0 0 1.2-0.2 3.2-0.2 98.6-3.4 1609.4-56.4 1609.4-56.4 12.6-0.4 24.8-9.8 24.8-25.4v-132.6c0-18.4-15-33.4-33.4-33.4z" enable-background="new    " fill="url(#path15555_1_-0)" opacity=".3"/>
   <g transform="translate(3755.6 -1662.5)" fill="#fff">
    <path d="m907.7 417.6c0-70.2 51.5-122.2 119.7-122.2 31.9 0 61.4 8.8 82 18.6 3.4 22.1-3.5 30.9-13.3 30.9-17.2 0-31.9-14.2-67.2-14.2-44.2 0-80.5 32.9-80.5 86.9 0 53.5 36.3 86.9 80.5 86.9 35.3 0 50.1-14.7 65.8-14.7 10.3 0 17.6 9.3 14.7 31.4-20.6 10.3-50.1 19.1-82 19.1-68.2 0-119.7-53-119.7-122.7"/>
    <path d="m2116.2 380.8v141.9c0 9.8-5.4 15.2-21.6 15.2-6.9 0-14.7-1-18.6-2v-150.2c0-34.4-16.2-54.5-47.1-54.5-26 0-47.6 18.1-56.4 36.8v154.6c0 9.8-5.4 15.2-21.6 15.2-6.9 0-14.7-1-18.6-2v-150.1c0-34.4-16.2-54.5-47.1-54.5-26 0-47.6 18.1-56.4 36.8v154.6c0 9.8-5.4 15.2-21.6 15.2-6.8 0-14.7-1-18.6-2v-236c3.9-1 11.8-2 19.1-2 15.2 0 20.6 5.9 20.6 16.2v16.2c15.2-20.1 38.8-34.9 67.3-34.9 31.4 0 55.9 15.7 68.2 42.7 16.2-24.5 40.7-42.7 75.6-42.7 50.3 0.1 76.8 37.9 76.8 85.5"/>
    <path d="m1736.8 432.3h-182.6c5.4 45.7 36.8 71.2 83.4 71.2 20.1 0 35.8-4 50.6-8.8 10.3-3.5 14.7-4.9 18.6-4.9 11.3 0 18.6 9.3 16.7 30.9-21.1 9.3-53.5 19.6-87.4 19.6-73.6 0-123.2-49.5-123.2-123.2 0-70.7 52.6-121.7 116.8-121.7 72.7 0 108.5 56.4 108.5 113.4 0.1 6.9-0.4 15.2-1.4 23.5m-182.6-31.4h144.8c-1.5-40.2-27.5-71.7-69.2-71.7-36.3 0.1-69.2 25.1-75.6 71.7"/>
    <path d="m1465.2 395.5v127.1c0 9.3-5.4 15.2-21.6 15.2-6.8 0-14.7-1-18.6-2v-135c0-47.1-23.1-69.7-57.9-69.7-27 0-56.4 18.7-68.2 40.7v150.7c0 9.3-5.4 15.2-21.6 15.2-6.9 0-14.7-1-18.6-2v-235.9c3.9-1 11.8-2 18.6-2 16.2 0 21.6 5.9 21.6 15.2v20.1c17.2-21.1 43.2-37.8 78-37.8 48.1 0.1 88.3 30.5 88.3 100.2"/>
    <path d="m2367.1 384.7v151.2c-3.9 1-11.3 2-18.1 2-14.7 0-21.6-5.4-21.6-15.2v-20.7c-21.1 24.1-48.6 38.3-83.5 38.3-52.5 0-81.5-34.3-81.5-71.7 0-56.9 60.9-82 164.4-75.1v-8.3c0-38.8-11.8-55-56.4-55-18.6 0-43.7 5.4-56.9 8.8-7.9 2-13.8 3.9-18.6 3.9-11.3 0-18.7-9.8-14.8-30.4 24.1-8.8 58.9-17.2 92.3-17.2 69.2 0.1 94.7 31 94.7 89.4m-40.2 82.5v-44.7c-67.7-4.9-124.2 3.9-124.2 44.7 0 20.6 17.2 39.2 48.1 39.2 31.4 0 58.9-15.6 76.1-39.2"/>
    <path d="m1149.5 246.3c0-14.7 11.8-25.5 25.5-25.5 14.8 0 26 10.8 26 25.5 0 13.3-11.3 25.5-26 25.5-13.7 0-25.5-12.2-25.5-25.5m5.4 289.6v-222.8c0-9.3 5.4-15.2 21.6-15.2 6.9 0 14.2 1 18.1 2v222.8c0 9.8-4.9 15.2-21.1 15.2-6.8 0-14.6-1-18.6-2"/>
   </g>
  </g>
  <g transform="translate(-3704.9)" fill="#fff" font-family="'Sky Text'" font-size="40px" letter-spacing=".12103px" word-spacing="0px">
   <path d="m22472 664.2q-20.822 0-38.339-4.9576-17.187-4.9576-31.399-13.22 0-12.89 4.958-19.169 5.288-6.6102 12.89-6.6102 3.966 0 8.593 1.6525 4.958 1.6526 10.907 3.6356 6.28 1.6525 13.881 3.3051 7.932 1.6525 17.848 1.6525 23.796 0 34.703-10.246 10.907-10.576 10.907-27.763t-11.898-26.771q-11.899-9.9152-29.746-9.9152-14.543 0-23.797 3.9661-9.254 3.6356-17.847 9.9152l-25.449-8.9237 11.567-114.36h121.96q1.653 5.9492 1.653 15.534t-3.967 13.551q-3.966 3.9661-10.245 3.9661h-80.644l-7.272 59.161q7.602-5.2881 16.195-8.9237 8.924-3.6356 23.797-3.6356 16.856 0 30.407 5.6186 13.551 5.2881 22.805 14.542 9.585 8.9237 14.542 21.153 5.288 11.898 5.288 25.119 0 15.203-5.288 28.424-4.957 12.89-15.534 22.805-10.245 9.5848-25.779 15.203-15.204 5.2881-35.695 5.2881z" style="white-space:pre"/>
   <path d="m22718 664.2q-16.195 0-35.365-3.3051-18.839-3.3051-38.669-9.9152 0-1.322-0.331-2.3136 0-0.99153 0-2.3136 0-10.907 3.967-17.517 3.966-6.9407 12.889-6.9407 4.297 0 10.246 1.322t13.22 2.9746q7.602 1.6526 16.526 2.9746 9.254 1.322 20.161 1.322 22.805 0 32.39-8.2627 9.915-8.2627 9.915-20.822 0-6.2797-2.314-10.576-2.313-4.6271-6.61-7.6017-4.296-3.3051-10.576-5.6186-5.949-2.3136-13.881-4.6271l-27.433-7.6017q-32.389-8.9237-45.279-24.788-12.56-15.864-12.56-36.356 0-10.246 3.636-20.822 3.636-10.907 12.559-19.5 8.924-8.5932 23.797-14.212 14.873-5.6186 37.347-5.6186 15.204 0 32.39 2.9746 17.517 2.9746 36.356 9.5848v4.6271q0 11.237-3.966 17.517-3.635 6.2797-12.229 6.2797-4.296 0-9.584-0.99152-4.958-1.322-11.568-2.3136-6.28-1.322-14.543-2.3136-8.262-1.322-18.508-1.322-11.568 0-19.17 2.3136-7.601 1.983-12.228 5.6186-4.628 3.6356-6.611 8.2627-1.983 4.2966-1.983 8.9237 0 10.907 7.272 16.525 7.601 5.6186 26.771 10.907l29.085 8.2627q57.838 15.203 57.838 60.153 0 14.542-4.957 26.441-4.627 11.898-14.873 20.492t-25.78 13.551q-15.534 4.6271-37.347 4.6271z" style="white-space:pre"/>
   <path d="m22895 663.54q-12.89 0-23.136-3.9661-9.915-4.2966-16.856-11.568-6.94-7.6017-10.576-17.517-3.636-10.246-3.636-22.475v-78.331h-25.118q-0.661-2.3136-0.992-5.9492-0.33-3.6356-0.33-7.2712 0-8.2627 3.305-11.568 3.635-3.3051 8.924-3.3051h14.211v-22.805q0-3.9661 0.661-7.6017 0.992-3.6356 2.975-6.6102 2.314-2.9746 6.28-4.6271 4.296-1.6525 11.237-1.6525 7.932 0 14.212 2.3136v40.983h54.203q1.653 4.9576 1.653 13.22 0 8.2627-3.636 11.568-3.305 3.3051-8.593 3.3051h-43.627v77.008q0 12.559 5.949 19.5 5.949 6.9407 17.517 6.9407 4.958 0 8.924-0.99152 3.966-0.99153 6.94-2.3136 3.305-1.322 5.95-2.3136 2.974-0.99153 5.618-0.99153 6.28 0 9.915 4.2966 3.636 4.2966 3.636 13.551 0 1.6525 0 3.6356 0 1.6526-0.33 3.3051-9.585 5.6186-20.492 8.9237-10.576 3.3051-24.788 3.3051z" style="white-space:pre"/>
   <path d="m23010 663.87q-12.89 0-23.136-3.6356-9.915-3.9661-16.856-10.576-6.61-6.6102-10.246-15.203-3.305-8.9237-3.305-18.839 0-11.898 3.966-21.814 4.297-9.9152 12.89-16.856 8.593-7.2712 21.483-11.237 13.221-3.9661 31.398-3.9661 17.187 0 39 3.9661v-8.2627q0-16.195-7.271-22.805-7.271-6.9407-26.11-6.9407-9.585 0-16.856 1.322-7.271 0.99153-13.22 2.6441-5.619 1.322-10.246 2.6441-4.297 0.99152-8.263 0.99152-6.94 0-10.245-5.9492t-3.305-14.542q0-1.6526 0-2.9746 0-1.6525 0.33-3.3051 10.907-3.6356 27.102-6.6102 16.195-3.3051 36.025-3.3051 19.17 0 31.729 4.2966 12.89 4.2966 20.491 12.89 7.933 8.2627 10.907 20.492 3.305 11.898 3.305 27.763v34.703q0 9.9152 0 17.847 0.331 7.9322 0.992 14.873 0.991 6.9407 2.313 13.881 1.322 6.6102 3.636 14.542-2.975 1.322-7.602 2.3136-4.296 0.99152-10.245 0.99152-6.611 0-10.907-2.3136-3.966-2.6441-6.28-6.6102-2.313-4.2966-3.305-9.9152-0.661-5.6186-0.991-11.898h-0.331q-3.966 6.2797-9.254 12.229-4.958 5.6186-11.899 9.9152-6.94 4.2966-15.864 6.6102-8.593 2.6441-19.83 2.6441zm9.584-29.085q15.865 0 27.433-9.2542 11.898-9.2542 18.508-23.136v-13.881q-16.856-2.9746-30.076-2.9746-21.814 0-32.721 7.2712-10.576 6.9407-10.576 20.161 0 10.576 7.602 16.195 7.601 5.6186 19.83 5.6186z" style="white-space:pre"/>
   <path d="m23158 663.21q-4.958 0-10.246-0.66101-4.957-0.33051-7.601-0.99153v-158.64q3.635-0.99152 7.271-1.6525 3.966-0.99153 8.593-0.99153 10.246 0 14.542 5.6186 4.628 5.2881 4.628 14.542v11.568h0.661q6.61-16.195 17.847-24.127 11.237-8.2627 26.11-8.2627 4.958 0 8.924 0.66101 4.297 0.33051 7.932 0.99153 1.983 6.9407 1.983 12.559 0 18.508-18.508 18.508h-5.949q-17.187 0-27.763 8.9237-10.246 8.9237-10.246 27.763v78.992q0 6.6102-3.966 10.907-3.636 4.2966-14.212 4.2966z" style="white-space:pre"/>
   <path d="m23336 662.88q-5.619 0-9.916-1.322-3.966-0.99153-6.94-2.3136l21.483-209.21q4.627-1.9831 11.898-2.9746 7.602-1.322 12.89-1.322 14.873 0 22.475 4.6271 7.932 4.2966 10.576 15.534l36.356 143.77 36.686-142.78q2.644-11.237 10.576-16.195 7.933-4.9576 21.814-4.9576 6.61 0 13.551 0.99152 6.941 0.99153 11.568 2.3136l20.822 210.2q-3.305 1.322-7.933 2.3136-4.296 1.322-9.915 1.322-7.601 0-12.559-2.6441t-5.619-9.9153l-14.212-169.88-40.322 150.38q-2.644 9.2542-9.254 12.89-6.28 3.3051-16.195 3.3051-4.957 0-10.576-0.66102-5.288-0.66102-8.924-1.983l-45.61-163.93-15.203 170.21q-0.661 6.9407-5.619 9.5848t-11.898 2.6441z" style="white-space:pre"/>
   <path d="m23655 664.53q-18.508 0-33.712-6.2797-15.203-6.6102-26.11-17.517-10.907-11.237-16.856-26.441t-5.949-32.72q0-16.856 5.949-31.729 6.28-15.203 17.187-26.441 10.906-11.237 26.11-17.847 15.203-6.6102 33.381-6.6102t33.381 6.6102q15.204 6.6102 25.78 17.847 10.907 11.237 16.856 26.441 5.949 14.873 5.949 31.729t-5.949 32.059q-5.619 15.203-16.525 26.441-10.577 11.237-25.78 17.847t-33.712 6.6102zm0-29.746q8.263 0 16.195-3.3051 8.263-3.3051 14.542-9.9153 6.611-6.6102 10.577-16.525 3.966-9.9152 3.966-23.466 0-12.229-3.636-22.144-3.635-9.9152-9.915-16.525-5.949-6.9407-14.212-10.576-8.263-3.6356-17.517-3.6356-8.924 0-17.186 3.6356-8.263 3.6356-14.873 10.576-6.28 6.6102-10.246 16.525-3.636 9.9153-3.636 22.144 0 13.22 3.967 23.136 3.966 9.9153 10.245 16.856 6.61 6.6102 14.873 9.9153t16.856 3.3051z" style="white-space:pre"/>
   <path d="m23821 663.54q-4.627 0-9.585-0.66102-4.627-0.66101-8.924-2.3136l-57.839-156q3.636-1.6525 8.924-2.9746 5.619-1.322 10.576-1.322 6.28 0 11.238 1.6526 5.288 1.6525 7.932 8.9237l22.144 65.441q4.627 13.881 8.593 26.11 4.297 12.229 7.932 26.11h0.661q3.636-13.881 7.933-25.78 4.627-12.229 9.254-26.441l21.813-65.11q2.314-6.6102 7.272-8.5932 5.288-2.3136 11.898-2.3136 4.296 0 9.585 1.322 5.618 0.99152 8.923 2.6441l-54.534 145.42q-2.974 7.9322-8.262 10.907-5.288 2.9746-15.534 2.9746z" style="white-space:pre"/>
   <path d="m23936 663.21q-4.958 0-9.916-0.66101-4.957-0.33051-7.601-0.99153v-146.08q0-6.6102 3.966-10.907t14.212-4.2966q5.288 0 10.245 0.66102 4.958 0.33051 7.602 0.99153v146.08q0 6.6102-3.966 10.907t-14.542 4.2966zm0.661-191.69q-8.263 0-14.212-5.9492t-5.949-14.212q0-8.5932 5.949-14.542 5.949-5.9492 14.212-5.9492 8.593 0 14.542 5.9492t5.949 14.542q0 8.2627-5.949 14.212-5.949 5.9492-14.542 5.9492z" style="white-space:pre"/>
   <path d="m24069 664.86q-20.161 0-36.025-6.2797-15.865-6.2797-26.772-17.517-10.906-11.237-16.855-26.441-5.619-15.534-5.619-33.381t5.949-32.72q5.949-15.203 16.195-26.11 10.576-11.237 24.788-17.517t30.737-6.2797q18.509 0 32.721 6.9407 14.212 6.6102 23.466 17.847 9.585 11.237 14.212 25.449 4.957 14.212 4.957 29.085 0 8.2627-1.652 16.525h-114.69q2.314 19.169 14.873 29.415 12.89 9.9153 33.712 9.9153 8.924 0 15.534-1.322t11.898-2.9746q5.288-1.983 9.585-3.3051 4.297-1.322 8.593-1.322 5.949 0 9.585 5.2881 3.966 5.2881 3.966 14.212 0 1.6525-0.33 3.6356 0 1.983-0.331 3.9661-9.915 4.6271-24.788 8.9237-14.873 3.9661-33.712 3.9661zm34.042-96.178q-1.652-17.847-12.228-29.746-10.246-12.229-29.416-12.229-18.178 0-29.084 11.568-10.577 11.568-12.229 30.407z" style="white-space:pre"/>
   <path d="m24224 663.54q-15.865 0-33.051-2.9746-16.856-3.3051-32.721-8.9237-0.33-1.6526-0.661-3.3051 0-1.983 0-3.6356 0-8.5932 3.636-13.881 3.636-5.2881 10.246-5.2881 3.966 0 9.254 1.322 5.619 1.322 11.898 3.3051 6.61 1.6526 14.543 2.9746 7.932 1.322 16.856 1.322 9.915 0 15.864-1.322 6.28-1.6525 9.585-3.9661 3.305-2.6441 4.296-5.6186 1.322-3.3051 1.322-6.9407 0-7.2712-5.618-10.907-5.619-3.9661-19.831-7.9322l-23.466-6.6102q-26.771-7.6017-37.347-18.508-10.577-11.237-10.577-27.763 0-8.9237 3.636-17.186t11.237-14.542q7.933-6.2797 20.161-9.9152 12.229-3.9661 29.746-3.9661 28.754 0 60.483 10.576 0 1.6525 0 2.9746 0.331 0.99152 0.331 2.3136 0 9.5847-3.636 15.203-3.305 5.2881-10.576 5.2881t-18.509-3.3051q-10.906-3.6356-28.093-3.6356-15.864 0-22.474 3.9661-6.28 3.9661-6.28 10.907 0 2.9746 0.661 5.2881 0.991 2.3136 3.305 4.2966 2.644 1.983 6.941 3.9661 4.627 1.6525 12.228 3.6356l24.789 6.9407q27.101 7.6017 38.008 18.839 11.237 11.237 11.237 28.424 0 8.9237-3.305 17.847-2.974 8.5932-10.576 15.534-7.602 6.6102-20.822 10.907-12.89 4.2966-32.72 4.2966z" style="white-space:pre"/>
  </g>
  <text fill="#000000" font-family="sans-serif" font-size="40px" letter-spacing="0px" word-spacing="0px" style="line-height:1.25;shape-inside:url(#rect1421);white-space:pre" space="preserve"/>
 </g>
</svg>
