<svg width="2937.4" height="1e3" enable-background="new 0 0 2342.5 500" version="1.1" viewBox="0 0 2937.4 1e3" xml:space="preserve" xmlns="http://www.w3.org/2000/svg"><defs><linearGradient id="linearGradient1020" x1="-1151.9" x2="-1151.9" y1="-775.02" y2="-779.87" gradientTransform="matrix(149.68,0,0,-91.158,172382,-71520)" gradientUnits="userSpaceOnUse"><stop stop-color="#002A91" offset="0"/><stop stop-color="#002672" offset=".8"/></linearGradient>
	

			
		
			
		
			
		
			
		
		
	
			
			
			
			
			
			
		<linearGradient id="linearGradient1015" x1="-1151.9" x2="-1151.9" y1="-775.02" y2="-779.87" gradientTransform="matrix(149.71,0,0,-91.176,175063,-70634)" gradientUnits="userSpaceOnUse"><stop stop-color="#002A91" offset="0"/><stop stop-color="#002672" offset=".8"/></linearGradient><linearGradient id="linearGradient1021" x1="-1151.8" x2="-1152" y1="-784.92" y2="-782.98" gradientTransform="matrix(149.68,0,0,-57.766,172382,-45995)" gradientUnits="userSpaceOnUse"><stop stop-color="#fff" offset="0"/><stop stop-color="#fff" stop-opacity=".25" offset="1"/></linearGradient><linearGradient id="linearGradient1023" x1="-1152.6" x2="-1152.6" y1="-773.58" y2="-778.43" gradientTransform="matrix(317.37,0,0,-103,366970,-80578)" gradientUnits="userSpaceOnUse"><stop stop-color="#f00" offset=".4"/><stop stop-color="#D42321" offset="1"/></linearGradient><linearGradient id="linearGradient1025" x1="-1152.3" x2="-1152.8" y1="-785.34" y2="-782.74" gradientTransform="matrix(317.37,0,0,-56.478,366970,-45017)" gradientUnits="userSpaceOnUse"><stop stop-color="#fff" offset="0"/><stop stop-color="#fff" stop-opacity=".25" offset="1"/></linearGradient></defs>

<g transform="matrix(15.385 0 0 15.385 297.2 16385)" fill="#224225"><g transform="matrix(.059172 0 0 .059172 1.4988 -1031)"><path class="st0" d="m223.7 62.7c0 0.5-0.5 0.8-0.8 1.1-3.8 1.1-8.1 2.4-12.2 4.1 0 0-0.3 0-0.3-0.3 1.4-12.8 6-24.4 12.8-34.5 1.4-1.9 2.4-3.5 3.8-5.2 0-0.3 0.3-0.3 0.5-0.3 3.8 0.3 8.4 0.8 13 2.2 12 3 25.3 9.2 33.1 15.8 1.9 1.6 1.9 3 1.4 3-14.9-7.3-31.2-11.7-39.1-11.4-1.1 0-1.6 0.5-2.2 1.1-4.9 7.3-8.4 15.5-10 24.4"/><path class="st0" d="m286.4 0c-15.5 0-29.9 4.6-42.1 12.5-0.5 0.3-1.1 0.8-0.3 1.1 4.3 0.8 9 2.2 13.9 3.8 14.7 5.2 32.1 13.9 52.4 28.2 0.8 0.5 0.3-1.6-0.5-2.7-5.7-7.6-23.9-21.7-42.4-28.8-0.3 0-0.3-0.3 0-0.3 7.1-2.2 16-3.3 24.4-2.4 28.5 2.7 51.6 24.4 56.5 52.4 0 0.5 0.5 0.8 0.8 1.1 4.1 1.1 8.1 2.4 12.2 3.8 0 0 0.3 0 0.3-0.3-4-38-36.9-68.1-75.2-68.4"/><path class="st0" d="m232.1 23.1c4.3 0.5 8.7 1.4 13 2.4 18.7 4.9 36.9 15.8 47.3 21.5 0.5 0.3 0.5-1.6-0.5-2.7-11.1-11.1-26.6-19.3-39.9-23.6-5.2-1.6-10.1-2.7-13.9-3.3-0.3 0-0.5 0.3-0.8 0.3-1.9 1.6-4.1 3.5-5.4 5.2-0.1-0.1-0.1 0.2 0.2 0.2"/><path class="st0" d="m370.1 455.5c-4.9-34.2-44.5-48.1-84.2-48.1s-79.3 13.9-84.2 48.1c-0.3 0.8 0.3 0.8 0.5 0.8 21.5-11.1 50.3-17.7 83.7-17.7 33.1 0 62.2 6.5 83.7 17.7 0.2 0 0.7 0 0.5-0.8z"/><path class="st0" d="m411.4 158.4c-2.2-1.9-3.3-4.6-2.7-7.3l1.6-12.2s0.3-0.3 0.3 0c38.6 31.8 63.8 78.5 66.3 131.5 1.9 41.8-10.9 82.3-36.1 115.7-0.5 0.8-1.1 0.3-0.5-0.3 21.2-31 31.5-67.4 29.9-104.8-2.3-49-24.4-91.9-58.8-122.6"/><path class="st0" d="m386.9 451.2s-0.3 0 0 0l-2.2-5.4c-1.1-3.3 0-6.8 3-8.4 58.7-34.5 96.4-98.6 93.4-169.5-2.4-53.2-27.4-100-65.7-132.6-2.4-2.2-3.8-5.4-3.3-8.7l3.8-26.9s0-0.3 0.3 0c50 35.9 83.1 92.6 86.1 157.5 3.6 83.1-44 157.3-115.4 194"/><path class="st0" d="m161.5 138.5c0.2 0 0.2 0 0 0l1.9 12.5c0.3 2.7-0.5 5.4-2.7 7.3-34.2 30.4-56.5 73.6-58.7 122.2-1.6 37.5 8.7 73.9 29.9 104.8 0.3 0.5-0.3 1.1-0.5 0.3-25.3-33.4-38-73.9-36.1-115.7 2.3-52.9 27.6-99.3 66.2-131.4"/><path class="st0" d="m187.5 445.7-1.9 5.4s-0.3 0.3-0.3 0c-71.7-36.6-118.9-110.8-115.1-194.1 3-64.9 36.4-121.4 86.1-157.5h0.3l3.8 26.9c0.5 3.3-0.8 6.5-3.3 8.7-38.6 32.6-63.6 79.6-66 132.6-3.3 70.9 34.8 135 93.4 169.5 2.8 1.7 4.1 5.3 3 8.5"/><path class="st0" d="m241.6 119.5c-2.4 3.8-4.6 8.1-6.2 13.3v0.5c12.2 10.9 28.5 17.9 46.4 19.3 0 0 0.3 0 0-0.3-3.3-5.7-6.8-11.1-10.6-16.3l-0.3-0.3c-11.1-2.6-21.2-8.3-29.3-16.2 0.3 0 0 0 0 0"/><path class="st0" d="m298.1 189.3c-3.3-10.3-7.3-20.1-12.2-29.6l-0.3-0.3-4.1-0.3c-17.9-1.1-34.8-7.9-48.3-19h-0.3c-5.4 21.5-6 52.7-1.9 91.5 3.5 31.8 10.9 65.2 20.9 94 10.6 30.4 20.9 45.6 26.6 49.4 4.3 3 7.9 1.1 9.2-1.4 0.3-0.3 0-0.3 0-0.3-1.4 0.3-2.4 0-3.8-0.3-13-6-18.5-57.9-19.3-64.9-3.5-35.4 4.7-92.7 33.5-118.8"/><path class="st0" d="m391.5 94.5c0.3-4.1 0-7.6-3.8-9.5-39.4-21.2-83.7-26.9-114.9-24.4-3.5 0.3-6.2 0.5-7.3 1.4-3 1.6-3.8 4.1-3.8 7.3v45.4c47.5 46.2 63.6 132.8 52.7 197.7-2.4 15.2-13.6 85.6-39.4 68.7-17.9-12.2-43.2-79.6-50.5-148.3-8.4-76.9 3.5-106.5 13.3-119.2v-40.5c0-4.3-2.2-6.8-5.4-6.2-15.2 2.7-41 13.6-49.4 19-1.9 1.4-2.4 3-2.4 8.1 3.3 65.2 20.4 199.9 76.6 287.7 1.6 2.2 0.8 5.2-1.4 6.8-9.5 6-22.3 17.4-25.8 22.8-0.5 0.8-0.3 1.4 0.5 1.1 13.3-6.2 32.1-11.1 55.7-11.1s42.1 5.2 55.7 11.1c0.8 0.3 1.1-0.5 0.5-1.1-3.8-5.4-16.8-16.8-26.3-22.8-2.2-1.4-3-4.3-1.6-6.5 54.2-98.7 73.8-221.7 77-287.5zm-21.2 15c-1.4 41-9.2 85.6-9.2 85.6-4.3-14.9-23.1-36.1-23.1-36.1 13.9 4.6 26.1 11.4 26.1 11.4-7.3-21.7-30.2-39.9-30.2-39.9 17.9 4.9 33.4 13.3 33.4 13.3-17.4-34.8-41.3-48.9-41.3-48.9 26.4 5.3 44.6 15.1 44.3 14.6z"/></g><g transform="translate(0 -2)"><g transform="matrix(.19459 0 0 .19459 35.232 -1116.6)"><path class="st0" d="m19.7 545.5c5.2 0 8.4 2.4 10.2 4.5l0.3 0.5 5-5.6-0.3-0.3c-1.7-1.8-3.9-3.3-6.3-4.5-2.6-1.1-5.5-1.7-8.5-1.7-6.2 0-11.5 2.1-15 6-3.3 3.4-5.1 8.6-5.1 14.2 0 11.9 8 20 19.8 20 6.2 0 11.7-1.8 14.9-4.8l0.3-0.2-3.9-6.2-0.5 0.3c-3.1 2.5-6.2 3.7-10.3 3.7-3.8 0-7-1.3-9.3-3.7-2.2-2.3-3.2-5.4-3.2-9.1 0-3.8 1.1-7.1 3.3-9.5 2.1-2.3 5.1-3.6 8.6-3.6z"/><path class="st0" d="m69.9 577.5c-2.4-6-5.3-10.4-9.6-14.8 5.2-1.7 8-5.7 8-11.4 0-3.9-1.1-6.9-3.3-9.1-2.3-2.3-5.9-3.4-10.3-3.4h-14.8v39.2h7.6v-13.7h4.7c4.1 3.8 6.9 7.8 9.5 13.4l0.1 0.3h8.4zm-16.7-19.9h-5.7v-11.9h6.2c2.1 0 3.9 0.6 5 1.6s1.7 2.5 1.7 4.4c0.1 3.7-2.6 5.9-7.2 5.9z"/><rect class="st0" x="75.3" y="538.9" width="7.6" height="39.4"/><path class="st0" d="m109.2 545.5c5.2 0 8.4 2.4 10.2 4.5l0.3 0.5 5-5.6-0.3-0.3c-1.7-1.8-3.9-3.3-6.3-4.5-2.6-1.1-5.5-1.7-8.5-1.7-6.2 0-11.5 2.1-15 6-3.3 3.6-5.2 8.7-5.2 14.3 0 11.9 8 20 19.8 20 6.2 0 11.7-1.8 14.9-4.8l0.3-0.2-3.9-6.2-0.5 0.3c-3.1 2.5-6.2 3.7-10.3 3.7-3.8 0-7-1.3-9.3-3.7-2.2-2.3-3.2-5.4-3.2-9.1 0-3.8 1.1-7.1 3.3-9.5s5.2-3.7 8.7-3.7z"/><path class="st0" d="m151.4 538.9-14.4 17.9v-17.9h-7.6v39.4h7.6v-11.3l4.7-5.5c4.1 4.4 8.5 11 10.8 16.4l0.1 0.3h8.3l-0.2-0.7c-2.8-7.1-8.4-15.8-13.9-21.2l14.5-17.4h-9.9z"/><polygon class="st0" points="165.1 578.1 193.2 578.1 193.2 571.2 172.8 571.2 172.8 562 172.7 562 190.7 562 190.7 555.2 172.7 555.2 172.7 545.6 192.4 545.6 192.4 538.7 165.1 538.7"/><polygon class="st0" points="207.5 578.1 215.1 578.1 215.1 545.6 226.1 545.6 226.1 538.7 196.6 538.7 196.6 545.6 207.5 545.6"/><polygon class="st0" points="271.1 550 278.8 578.1 285.2 578.1 298.1 538.7 289.9 538.7 282.1 565.5 275 538.7 267.3 538.7 260.1 565.5 252.4 538.7 244.1 538.7 256.8 578.1 263.1 578.1"/><path class="st0" d="m336.9 550.3c-0.9-2.4-2.3-4.6-4.1-6.4-3.7-3.6-8.7-5.5-14.2-5.5-2.9 0-5.5 0.5-8 1.5-2.4 1-4.6 2.4-6.3 4.2-3.6 3.6-5.5 8.7-5.5 14.3s2 10.7 5.5 14.3c1.8 1.8 3.9 3.3 6.3 4.2 2.4 1 5.2 1.5 8 1.5 5.6 0 10.7-2.1 14.2-5.6 1.7-1.7 3.2-3.9 4.1-6.3 1-2.5 1.5-5.3 1.5-8.1-0.1-2.8-0.5-5.5-1.5-8.1zm-9.8 17.4c-2.3 2.4-5.3 3.7-8.6 3.7-3.4 0-6.5-1.4-8.7-3.8-2.2-2.3-3.3-5.6-3.3-9.2s1.1-6.8 3.3-9.2 5.3-3.8 8.7-3.8c3.3 0 6.4 1.4 8.6 3.7 2.2 2.4 3.4 5.7 3.4 9.4 0 3.6-1.2 7-3.4 9.2z"/><path class="st0" d="m374 577.5c-2.4-6-5.4-10.4-9.8-14.8 5.2-1.7 8-5.7 8-11.4 0-3.9-1.1-6.9-3.3-9.1-2.3-2.3-5.9-3.4-10.3-3.4h-14.6v39.2h7.6v-13.7h4.8c4.1 3.8 6.9 7.8 9.5 13.4l0.1 0.3h8.4zm-16.7-19.9h-5.7v-11.9h6.2c2.1 0 3.9 0.6 5 1.6s1.7 2.5 1.7 4.4c0 3.7-2.6 5.9-7.2 5.9z"/><polygon class="st0" points="406.5 571.3 387.1 571.3 387.1 538.9 379.5 538.9 379.5 578.2 406.5 578.2"/><path class="st0" d="m444.6 558.6c0-11.8-8.3-19.7-20.4-19.7h-12.7v39.4h12.9c6.2 0 11.2-2 14.9-5.5 3.4-3.5 5.3-8.5 5.3-14.2zm-11.3 9.1c-2.4 2.4-5.6 3.7-9.4 3.7h-4.9v-25.7h5.3c3.6 0 6.8 1.4 9.1 3.7 2.2 2.3 3.4 5.6 3.6 9.2-0.1 3.5-1.4 6.8-3.7 9.1z"/><path class="st0" d="m484.9 545.5c5.2 0 8.4 2.4 10.2 4.5l0.3 0.5 5-5.6-0.3-0.3c-1.7-1.8-3.9-3.3-6.3-4.5-2.6-1.1-5.5-1.7-8.5-1.7-6.2 0-11.5 2.1-15 6-3.3 3.6-5.2 8.7-5.2 14.3 0 11.9 8 20 19.8 20 6.2 0 11.7-1.8 14.9-4.8l0.3-0.2-3.9-6.2-0.5 0.3c-3.1 2.5-6.2 3.7-10.3 3.7-3.8 0-7-1.3-9.3-3.7-2.2-2.3-3.2-5.4-3.2-9.1 0-3.8 1.1-7.1 3.3-9.5s5.2-3.7 8.7-3.7z"/><path class="st0" d="m529 561.9c0 6.1-3.1 9.5-8.4 9.5-2.5 0-4.6-0.8-6-2.4-1.5-1.6-2.2-4-2.2-7v-23.2h-7.4v23.6c0 5.4 1.5 9.5 4.4 12.3 2.8 2.6 6.5 3.9 11.4 3.9s8.8-1.4 11.6-4c2.9-2.8 4.2-6.9 4.2-12.2v-23.6h-7.5v23.1z"/><path class="st0" d="m569.2 542.5c-2.3-2.4-5.9-3.7-10.3-3.7h-14.3v39.2h7.6v-13.7h6.1c9.1 0 14.3-4.6 14.3-12.7-0.1-3.7-1.2-6.9-3.4-9.1zm-11.8 15.1h-5.5v-11.9h6c2.2 0 3.9 0.6 5 1.6s1.7 2.5 1.7 4.4c0 3.8-2.5 5.9-7.2 5.9z"/></g><g transform="matrix(.19459 0 0 .19459 15.294 -1116.6)"><polygon class="st0" points="225.4 486.8 233.1 486.8 240.2 513.5 248 486.8 256.2 486.8 243.3 526.1 236.9 526.1 229.2 498 221.2 526.1 214.9 526.1 202.3 486.8 210.5 486.8 218.2 513.5"/><path class="st0" d="m295.1 498.3c-0.9-2.4-2.4-4.6-4.1-6.4-3.7-3.6-8.7-5.5-14.2-5.5-2.9 0-5.5 0.5-8 1.5-2.4 1-4.6 2.4-6.3 4.2-3.6 3.6-5.5 8.7-5.5 14.3s2 10.7 5.5 14.3c1.8 1.8 3.9 3.3 6.3 4.2 2.4 1 5.2 1.5 8 1.5 5.6 0 10.7-2.1 14.2-5.6 1.7-1.7 3.2-3.9 4.1-6.3 1-2.5 1.5-5.3 1.5-8.1 0-2.9-0.5-5.6-1.5-8.1zm-9.8 17.3c-2.3 2.4-5.3 3.7-8.6 3.7-3.4 0-6.5-1.4-8.7-3.8-2.2-2.3-3.3-5.6-3.3-9.2s1.1-6.8 3.3-9.2 5.3-3.8 8.7-3.8c3.3 0 6.4 1.4 8.6 3.7 2.2 2.4 3.4 5.7 3.4 9.4 0.1 3.7-1.2 7-3.4 9.2z"/><polygon class="st0" points="341.8 526 341.8 486.8 334.4 486.8 322 509.3 309.6 486.8 302.3 486.8 302.3 526.1 309.9 526.1 309.9 501.7 319.6 518.7 324.4 518.7 334.2 501.6 334.2 526"/><polygon class="st0" points="357 510 375 510 375 503.1 357 503.1 357 493.5 376.8 493.5 376.8 486.7 349.5 486.7 349.5 526 377.4 526 377.4 519.1 357 519.1"/><polygon class="st0" points="409.9 526.1 417.1 526.1 417.1 486.8 409.7 486.8 409.7 513.5 390.9 486.8 383.8 486.8 383.8 526.1 391.2 526.1 391.2 499.7"/><polygon class="st0" points="423.3 501.5 429.2 501.5 432.6 486.8 425.1 486.8"/><path class="st0" d="m451.7 502.3c-4.9-1.7-7-2.6-7-5 0-2.5 2-4 5.3-4 3.1 0 7 1.5 9.6 3.7l0.5 0.3 4.2-6.2-0.3-0.3c-3.6-2.9-8.1-4.4-13.8-4.4-3.8 0-7.1 1-9.4 2.9-2.5 2.1-3.8 4.9-3.8 8.6 0 3.4 1.3 6.1 3.9 8.1 2.3 1.7 5.3 2.8 7.9 3.7 0.3 0.1 0.8 0.2 1.1 0.3 4.8 1.6 7.1 2.4 7.1 5.5 0 2.6-2.4 4.2-6.4 4.2-3.8 0-7.1-1.1-10.3-3.7l-0.5-0.3-3.6 6.9 0.3 0.2c3.6 2.4 8.6 3.9 13.9 3.9 9.5 0 14.3-4 14.3-12 0.1-7.8-5.7-9.9-13-12.4z"/><path class="st0" d="m133.8 506.2c1.5-7.7 6.2-13.2 13.5-13.2 2.6 0 5.3 0.5 7.7 1.1l2.2-6.9c-2.4-0.7-5.3-1-8.1-1-13.2 0-21.3 8.7-23.7 21.2-2 9.8 0.8 18.9 14.5 18.9 3.7 0 7.3-0.7 10.4-1.7l0.5-6.8c-2.2 0.9-5.5 1.6-7.9 1.6-8.2 0.2-10.8-4.6-9.1-13.2z"/><path class="st0" d="m171.7 526.5c3.7 0 7.3-0.7 10.4-1.7l0.5-6.8c-2.2 0.9-5.5 1.6-7.9 1.6-7.9 0-10.6-4.8-8.8-13.3 1.5-7.7 6.2-13.2 13.5-13.2 2.6 0 5.3 0.5 7.7 1.1l2.2-6.9c-2.4-0.7-5.3-1-8.1-1-13.2 0-21.3 8.7-23.7 21.2-2.2 9.8 0.4 19 14.2 19z"/><polygon class="st0" points="115.3 486.3 107.6 525.7 115.2 525.7 122.9 486.3"/></g></g></g><g transform="translate(962.21 932.45)"><path d="m1951.9-932.45c12.9 0 23.3 10.94 23.3 24.276v451.45c0 13.336-10.5 24.276-23.3 24.276h-607.9c-12.9 0-23.3-10.94-23.3-24.276v-451.34c0-13.44 10.5-24.276 23.3-24.276h607.9" fill="#fff" stroke-width="1.0207"/><g transform="translate(-962.2 -932.45)" fill="url(#linearGradient1015)" stroke-width="1.0002"><path d="m2619.1 153.8v184.7c0 8.1-4.1 12.6-16.7 12.6-5.7 0-11-0.8-15.1-1.6v-85h-105.4v74.1c0 8.1-4.1 12.6-16.7 12.6-6.1 0-12.2-0.8-15.1-1.6v-184.8c0-7.8 4.1-12.6 17.1-12.6 5.7 0 11.3 0.8 14.6 1.6v82.2h104.9v-71.2c0-7.8 4.5-12.6 17.5-12.6 6 0 11.6 0.8 14.9 1.6" stop-color="#000000" style="font-variation-settings:normal"/><path d="m2835.3 251.4c0 55.4-38.7 97.3-99.3 97.3h-56.5c-12.2 0-16.7-4.9-16.7-12.6v-168.9c0-7.7 4.5-12.6 16.7-12.6h56.5c60.6 0 99.3 41.5 99.3 96.8m-32.2 0c0-41.5-26-68.4-67.1-68.4h-41.5v137.1h41.5c41.1 0.1 67.1-26.8 67.1-68.7" stop-color="#000000" style="font-variation-settings:normal"/></g><g transform="matrix(1.0002 0 0 1.0002 -762.16 -482.36)"><g transform="translate(200,450)"><path d="m101.6-435.8c5.9 2.9 18 6.7 33.5 7.1 26.4 0.4 40.6-9.6 51-32.9l140.6-311.7c-5.9-2.9-18.8-6.7-29.3-6.7-18-0.4-42.2 3.3-57.7 40l-45.7 106.7-89.1-144.6c-5.9-1.7-20.1-4.2-30.1-4.2-31.8 0-49.4 11.7-67.3 31.2l-87 94.2 69.9 109.2c13 20 29.7 30 57.3 30 18 0 33-4.2 40.2-7.5l-84.2-125.4 59.4-62.9 97.9 152.5zm-184.5-118c0 22.9-9.2 36.2-54.4 36.2-5.9 0-11.3-0.4-16.3-1.2v-305c0-23.3 7.9-47.5 53.5-47.5 5.9 0 11.7 0.4 17.2 1.7zm-93.3-46.2c0 42.9-28 74.2-85.3 80.4-41.4 4.6-101.6-0.8-130.1-4.2-0.8-4.6-1.7-10.4-1.7-15 0-37.5 20.1-45.8 39.3-45.8 19.7 0 51 3.3 74.5 3.3 25.5 0 33.5-8.8 33.5-16.7 0-10.8-10-15-30.1-19.2l-54.4-10.4c-45.2-8.3-69.4-39.6-69.4-72.5 0-40 28.4-73.8 84.5-79.6 42.2-4.6 94.1 0.4 122.6 4.2 0.8 4.6 1.7 9.6 1.7 14.6 0 37.5-19.7 45.4-38.9 45.4-14.6 0-37.2-2.5-63.6-2.5s-37.2 7.1-37.2 16.2c0 9.6 10.5 13.3 27.2 16.2l51.9 9.6c52.5 8.9 75.5 38.9 75.5 76z" fill="url(#linearGradient1020)"/><path d="m326.6-773.3-51.5 114.2c-1.7 2.9-7.1 12.9-21.3 13.3-3.3 0-46.9 1.7-46.9 1.7-8.4 0.4-11.3 8.3-11.3 8.3l44.4-104.2c15.5-36.7 39.7-40.4 57.7-40 10.1 0 23 3.3 28.9 6.7zm-134.7 136.2-87-140.8c-5.9-1.7-20.1-4.2-30.1-4.2-31.8 0-49.4 11.7-67.3 31.2l-87 94.2 7.1 10.8c2.9 4.2 8.8 10.8 20.5 10.4 4.2 0 46-1.7 49.4-1.7 10.9-0.4 17.6 4.2 21.8 9.6l-15.6-23.2 59.4-62.9 40.2 62.5c7.1 9.6 18 9.6 20.5 9.6 2.1 0 54.4-2.1 56.9-2.1 3.7-0.1 7.9 2 11.2 6.6zm-292-234.1c-45.6 0-53.1 24.2-53.1 47.5v209.2c0-8.3 6.7-17.1 17.2-17.5 7.5-0.4 28.9-0.8 35.1-1.2 7.1-0.4 17.6-5 18-17.9v-218.3c-5.5-1-11.3-1.8-17.2-1.8zm-152.2 194.5-51.9-9.6c-16.7-2.9-27.2-6.7-27.2-16.2 0-8.8 10.9-16.2 37.2-16.2 25.9 0 48.9 2.5 63.6 2.5 19.2 0 38.9-7.9 38.9-45.4 0-5-0.4-9.6-1.7-14.6-28.4-3.3-79.9-8.8-122.6-4.2-55.6 6.6-84 40.4-84 80.4 0 20.4 9.2 40.4 27.6 54.6 13.8 8.8 27.6 12.5 41.8 15 11.7 2.1 38.1 3.8 58.1 2.9 6.3-0.4 51.9-1.7 61.9-2.1 23-0.8 36 18.7 34.3 38.7v-1.2c0.4-2.5 0.4-5 0.4-7.9-0.3-37.1-23.3-67.1-76.4-76.7z" enable-background="new    " fill="url(#linearGradient1021)" opacity=".25"/><path d="m1908.6-900h-1473.2c-18.4 0-33.5 15-33.5 33.3v433.3c0 18.3 15.1 33.3 33.5 33.3h1473.7c18.4 0 33.5-15 33.5-33.3v-433.3c-0.5-18.3-15.6-33.3-34-33.3z" fill="url(#linearGradient1023)"/><path d="m425.7-652.1h3.3c99.1-3.3 1488.3-51.7 1488.3-51.7 12.5-0.4 25.1-9.6 25.1-25.4v-137.5c0-18.3-15.1-33.3-33.5-33.3h-1473.5c-18.4 0-33.5 15-33.5 33.3v240.8c0-2.9 0.4-23.7 23.8-26.2z" enable-background="new    " fill="url(#linearGradient1025)" opacity=".4"/><g transform="translate(184.41,16.308)" fill="#fff"><path d="m313.7-557.1c-2.9-20.4 3.3-31.2 15.5-31.2 11.3 0 38.9 12.1 77.4 12.1 40.6 0 55.6-14.2 55.6-32.9 0-13.3-5.9-25-42.2-35l-41.8-11.2c-46.4-12.1-64.4-35.4-64.4-63.8 0-35.4 28-66.7 91.6-66.7 28.4 0 64 6.2 85.8 14.6 3.8 20-2.5 30.8-14.6 30.8-10.9 0-35.6-10.4-70.3-10.4-37.6 0-51.5 12.9-51.5 29.6 0 11.7 5.4 22.5 38.9 32.1l42.7 11.7c47.7 13.3 66.9 35.4 66.9 66.7 0 36.7-28.4 69.6-97.5 69.6-31 0.2-69.1-7.3-92.1-16z"/><path d="m787.6-663.4c0 77.1-54.4 122.5-113.8 122.5-35.6 0-64.4-16.7-82-40.4v99.2c0 9.2-5.4 15.4-21.3 15.4-7.9 0-15.5-0.8-19.2-2.1v-312.5c3.8-0.8 11.3-2.1 19.2-2.1 15.9 0 21.3 5.8 21.3 15.4v22.5c17.2-23.8 46.4-40.4 82-40.4 59.5 0 113.8 45.8 113.8 122.5zm-40.9 0c0-51.7-34.3-87.1-80.7-87.1-31.4 0-60.7 18.3-74 44.6v85c13.4 26.7 42.2 44.6 74 44.6 46.3 0 80.7-35.4 80.7-87.1z"/><path d="m826.5-663.4c0-70 51.9-122.1 121.3-122.1 69.9 0 121.7 52.1 121.7 122.1 0 69.6-51.9 122.5-121.7 122.5-69.4 0-121.3-52.9-121.3-122.5zm202.1 0c0-54.2-36.4-87.1-80.7-87.1-43.9 0-80.3 32.9-80.3 87.1 0 53.3 36.4 87.5 80.3 87.5 44.3-0.4 80.7-34.2 80.7-87.5z"/><path d="m1265.8-763.8c0 16.2-6.7 19.6-23.8 19.6-33.9 0-62.7 15.8-80.3 52.5v132.9c0 10-5.4 15.4-21.8 15.4-6.7 0-14.6-0.8-18.8-2.1v-235.8c3.8-0.8 11.7-2.1 18.8-2.1 16.3 0 21.8 5.8 21.8 15.4v32.9c23-35 58.1-52.5 102.1-46.7 0.3 3.4 2 10.9 2 18z"/><path d="m1443.1-557.1c-20.5 10-44.3 16.2-68.2 16.2-46.9 0-74.9-27.5-74.9-73.3v-202.5c0-10.4 5.9-17.1 21.8-17.1 6.7 0 14.6 1.7 18.8 2.5v51.2h92c0.4 3.3 1.7 10.4 1.7 16.2 0 14.2-5.9 19.2-14.6 19.2h-78.6v127.9c0 27.5 13 40.8 38.9 40.8 23.8 0 36.8-10.4 48.1-10.4s17.5 9.7 15 29.3z"/><path d="m1471.2-557.1c-2.9-20.4 3.3-31.2 15.5-31.2 11.3 0 38.9 12.1 77.4 12.1 40.6 0 55.6-14.2 55.6-32.9 0-13.3-5.9-25-42.2-35l-41.8-11.2c-46.4-12.1-64.4-35.4-64.4-63.8 0-35.4 28-66.7 91.6-66.7 28.4 0 64 6.2 85.8 14.6 3.8 20-2.5 30.8-14.6 30.8-10.9 0-35.6-10.4-70.3-10.4-37.6 0-51.5 12.9-51.5 29.6 0 11.7 5.4 22.5 38.9 32.1l42.7 11.7c47.7 13.3 66.9 35.4 66.9 66.7 0 36.7-28.4 69.6-97.5 69.6-31.1 0.2-69.1-7.3-92.1-16z"/></g></g></g></g><path d="m2937.4 531.08c-0.05 8.9599-3.6796 17.528-10.08 23.798l0.088 411.81c-0.012 12.866-10.439 23.294-23.306 23.306h-2870.8c-12.852-0.048-23.258-10.454-23.306-23.306v-411.8c-6.1404-6.0269-9.722-14.188-10-22.788v434.59c-0.01 18.398 14.908 33.314 33.306 33.308h2870.7c18.447 0.0855 33.438-14.861 33.407-33.308z" fill="#002a91" stroke-width="2.6668"/></svg>
