<svg width="3122.2" height="500" enable-background="new 0 0 2362.9 500" version="1.1" viewBox="0 0 3122.2 500" xml:space="preserve" xmlns="http://www.w3.org/2000/svg">
		<g transform="translate(769.31 .0020752)"><path d="m2329.6 0c12.9 0 23.3 10.94 23.3 24.276v451.45c0 13.336-10.5 24.276-23.3 24.276h-607.9c-12.9 0-23.3-10.94-23.3-24.276v-451.34c0-13.44 10.5-24.276 23.3-24.276h607.9" fill="#fff" stroke-width="1.0207"/><g fill="#00396e"><path d="m2034.6 153.8v184.7c0 8.1-4.1 12.6-16.7 12.6-5.7 0-11-0.8-15.1-1.6v-85h-105.4v74.1c0 8.1-4.1 12.6-16.7 12.6-6.1 0-12.2-0.8-15.1-1.6v-184.8c0-7.8 4.1-12.6 17.1-12.6 5.7 0 11.3 0.8 14.6 1.6v82.2h104.9v-71.2c0-7.8 4.5-12.6 17.5-12.6 6 0 11.6 0.8 14.9 1.6"/><path d="m2250.8 251.4c0 55.4-38.7 97.3-99.3 97.3h-56.5c-12.2 0-16.7-4.9-16.7-12.6v-168.9c0-7.7 4.5-12.6 16.7-12.6h56.5c60.6 0 99.3 41.5 99.3 96.8m-32.2 0c0-41.5-26-68.4-67.1-68.4h-41.5v137.1h41.5c41.1 0.1 67.1-26.8 67.1-68.7"/></g></g>
				<defs>
				<linearGradient id="Sfumatura_senza_nome_9-5" x1="1010.7" x2="1083" y1="-279.55" y2="-279.55" gradientTransform="matrix(23.94 0 0 -23.94 -23395 -6441.4)" gradientUnits="userSpaceOnUse"><stop stop-color="#00396e" offset="0"/><stop stop-color="#033d72" offset=".27"/><stop stop-color="#0d4a7e" offset=".56"/><stop stop-color="#1d6091" offset=".85"/><stop stop-color="#276d9d" offset="1"/></linearGradient><linearGradient id="linearGradient893" x1="1666.6" x2="1657.9" y1="424.49" y2="175.44" gradientTransform="translate(-1.6244 -198)" gradientUnits="userSpaceOnUse"><stop stop-color="#fff" offset="0"/><stop stop-color="#fff" stop-opacity=".83" offset=".12"/><stop stop-color="#fff" stop-opacity=".66" offset=".27"/><stop stop-color="#fff" stop-opacity=".51" offset=".42"/><stop stop-color="#fff" stop-opacity=".4" offset=".57"/><stop stop-color="#fff" stop-opacity=".32" offset=".72"/><stop stop-color="#fff" stop-opacity=".27" offset=".86"/><stop stop-color="#fff" stop-opacity=".25" offset="1"/></linearGradient><linearGradient id="b-5" x1="365.41" x2="359.57" y1="1091.1" y2="923.62" gradientTransform="translate(-189.64 -1500.6)" gradientUnits="userSpaceOnUse"><stop stop-color="#fff" offset="0"/><stop stop-color="#fff" stop-opacity=".8347" offset=".1203"/><stop stop-color="#fff" stop-opacity=".6576" offset=".2693"/><stop stop-color="#fff" stop-opacity=".5107" offset=".4195"/><stop stop-color="#fff" stop-opacity=".3965" offset=".5684"/><stop stop-color="#fff" stop-opacity=".3152" offset=".7156"/><stop stop-color="#fff" stop-opacity=".2664" offset=".8603"/><stop stop-color="#fff" stop-opacity=".25" offset="1"/></linearGradient></defs>
<path d="m2527.9 466.79v-433.47a33.41 33.41 0 0 0-33.4-33.32h-1664.1a33.37 33.37 0 0 0-33.34 33.41v433.29a33.28 33.28 0 0 0 33.34 33.3h1664.1a33.33 33.33 0 0 0 33.4-33.21z" fill="url(#Sfumatura_senza_nome_9-5)"/><g transform="translate(-1.6244 -1.2926e-5)" fill="#fff"><path d="m1093.3 219.89v151.11a84.4 84.4 0 0 1-18.22 2c-14.68 0-21.55-5.35-21.55-15.19v-20.63c-21.11 24.08-48.59 38.26-83.44 38.26-52.5 0-81.5-34.35-81.5-71.66 0-56.91 60.89-81.93 164.44-75.06v-8.39c0-38.76-11.79-55-56.48-55-18.58 0-43.67 5.42-56.91 8.82-7.88 2-13.74 4-18.65 4-11.29 0-18.66-9.83-14.76-30.44 24.08-8.83 58.94-17.21 92.35-17.21 69.2 0 94.72 30.95 94.72 89.37m-40.27 82.44v-44.67c-67.76-4.92-124.16 4-124.16 44.69 0 20.61 17.14 39.27 48.09 39.27 31.38 0 58.86-15.7 76.07-39.27"/><path d="m1296.1 359.26c-20.61 9.83-44.18 16.2-67.76 16.2-46.64 0-74.55-27.48-74.55-73.11v-202.76c0-10.27 5.86-17.14 21.55-17.14a84.08 84.08 0 0 1 18.68 2.46v51.09h91.77a118.79 118.79 0 0 1 1.52 16.2c0 14.17-5.93 19.09-14.76 19.09h-78.53v128.1c0 27.47 12.8 40.71 38.76 40.71 23.58 0 36.81-10.27 48.16-10.27 11.72 0 17.65 9.76 15.19 29.43"/><path d="m1332.7 371v-305.26c0-9.33 5.42-15.19 21.62-15.19a88.31 88.31 0 0 1 18.66 2v305.3c0 9.83-5.43 15.18-21.62 15.18a88.44 88.44 0 0 1-18.66-1.95"/><path d="m1624.3 219.89v151.11a84.58 84.58 0 0 1-18.23 2c-14.68 0-21.54-5.35-21.54-15.19v-20.63c-21.12 24.08-48.6 38.26-83.45 38.26-52.5 0-81.5-34.35-81.5-71.66 0-56.91 60.89-81.93 164.44-75.06v-8.39c0-38.76-11.79-55-56.48-55-18.58 0-43.67 5.42-56.91 8.82-7.88 2-13.74 4-18.65 4-11.28 0-18.66-9.83-14.76-30.44 24.09-8.83 58.94-17.21 92.35-17.21 69.2 0 94.73 30.95 94.73 89.37m-40.32 82.46v-44.69c-67.76-4.92-124.16 4-124.16 44.69 0 20.61 17.14 39.27 48.09 39.27 31.38 0 58.86-15.7 76.07-39.27"/><path d="m1893.3 230.67v127.12c0 9.33-5.43 15.19-21.63 15.19a89 89 0 0 1-18.65-2v-134.89c0-47.15-23.07-69.71-57.92-69.71-27 0-56.41 18.66-68.19 40.72v150.69c0 9.33-5.43 15.19-21.62 15.19a89.07 89.07 0 0 1-18.66-2v-236.05a94.05 94.05 0 0 1 18.66-2c16.19 0 21.62 5.92 21.62 15.25v20.11c17.21-21.12 43.17-37.82 78-37.82 48.09 0 88.37 30.44 88.37 100.15"/><path d="m2095.3 359.26c-20.61 9.83-44.18 16.2-67.75 16.2-46.65 0-74.56-27.48-74.56-73.11v-202.76c0-10.27 5.86-17.14 21.55-17.14a84.27 84.27 0 0 1 18.66 2.46v51.09h91.76a117.2 117.2 0 0 1 1.52 16.2c0 14.17-5.93 19.09-14.75 19.09h-78.53v128.1c0 27.47 12.8 40.71 38.76 40.71 23.57 0 36.8-10.27 48.16-10.27 11.71 0 17.64 9.76 15.18 29.43"/><path d="m2126.5 81.43a25.37 25.37 0 0 1 25.52-25.52c14.76 0 26 10.84 26 25.52 0 13.31-11.27 25.53-26 25.53-13.74 0-25.52-12.22-25.52-25.53m5.47 289.57v-222.82c0-9.33 5.42-15.19 21.62-15.19a87.75 87.75 0 0 1 18.15 1.95v222.87c0 9.83-4.91 15.18-21.11 15.18a88.52 88.52 0 0 1-18.66-1.99"/><path d="m2220.4 252.76c0-70.22 51.56-122.21 119.75-122.21a196 196 0 0 1 82 18.66c3.4 22-3.47 30.88-13.31 30.88-17.13 0-31.89-14.18-67.18-14.18-44.18 0-80.55 32.83-80.55 86.85 0 53.51 36.37 86.85 80.55 86.85 35.29 0 50.05-14.68 65.74-14.68 10.34 0 17.64 9.33 14.75 31.38a188.36 188.36 0 0 1-82 19.16c-68.19 0-119.75-53-119.75-122.71"/></g><path d="m821.01 248.05s1.1-0.1 3.2-0.2c98.62-3.5 1678.8-58.54 1678.8-58.54a25.12 25.12 0 0 0 24.9-25.3l-0.06-130.7a33.29 33.29 0 0 0-33.3-33.31h-1664.2a33.3 33.3 0 0 0-33.31 33.31v240.69a25.27 25.27 0 0 1 24.01-25.95z" fill="url(#linearGradient893)" opacity=".3" style="isolation:isolate"/><g transform="matrix(.99954 0 0 .99954 189.55 672.34)"><path d="m-105.24-552.38c-55.9 6.1-84.4 39.7-84.4 79.8 0 33 24 64.1 69 72.7l54.2 10.4c19.8 3.8 30 8.2 30 19 0 8.2-7.7 16.9-33.2 16.9-23.1 0-54.2-3.5-74-3.5-19 0-39.2 8.6-39.2 46 0 4.6 0.8 10.4 1.8 15 28.5 3.3 88.2 8.5 129.6 4 57.1-6.1 85.2-37.5 85.2-80.4 0-37-22.9-67.1-75.9-76.9l-51.7-9.6c-16.6-2.9-26.9-6.7-26.9-16.1 0-8.9 10.9-16.1 37.3-16.1 25.9 0 48.7 2.7 63.2 2.7 19 0 38.8-8.1 38.8-45.5 0-5-0.6-9.6-1.6-14.4-20.3-2.5-52.6-5.8-84.8-5.8-12.8-0.1-25.5 0.49999-37.4 1.8m321.4 28.9-86.5 94.4 69.5 109.4c12.9 20 29.8 30.1 57.3 30.1 18 0 33-4.2 40-7.5l-83.8-126 59.4-62.9 97.4 152.7-59.4 125c6 3 18 6.7 33.2 7 26.2 0.6 40.3-9.4 51-32.8l140.1-312c-5.8-3.1-18.7-6.6-29-6.7-18-0.4-42.3 3.2-57.7 40.1l-45.3 106.9-89-144.6c-5.8-1.8-19.8-4.2-30-4.2-31.5-0.1-49 11.4-67.2 31.1m-160-72.8v305c5 0.8 10.2 1.1 16.1 1.1 45 0 54-13.2 54-36.2v-315.6c-5.4-1.1-11.1-1.8-16.9-1.8-45.4 0.1-53.2 24.2-53.2 47.5" fill="#ebebeb" stop-color="#000000" style="font-variation-settings:normal"/><path d="m-189.64-472.58c0-40.1 28.5-73.7 84.4-79.8 11.9-1.3 24.6-1.9 37.2-1.6 32.2 0 64.5 3.3 84.8 5.8 1 4.8 1.6 9.4 1.6 14.4 0 37.4-19.8 45.5-38.8 45.5-14.5 0-37.3-2.7-63.2-2.7-26.4 0-37.3 7.2-37.3 16.1 0 9.4 10.3 13.2 26.9 16.1l51.7 9.6c53 9.8 75.9 39.9 75.9 76.9 0 2.7-0.1 5.3-0.3 7.8v0.69999h-0.1c1.1-19.7-11.4-39.3-34.4-38.5-9.9 0.3-55.6 1.9-61.7 2.1-19.7 0.8-46.3-1-57.8-3-13.9-2.4-27.9-5.9-41.5-14.8-18-14.2-27.4-34-27.4-54.6zm263.1 67.8c7.5-0.2 28.8-1 35.1-1.2 6.9-0.2 17.6-5 17.8-17.9v-218c-0.2 0-0.3-0.1-0.5-0.1h-35.3c-28.9 5.9-34.5 26.1-34.5 45.7v209.1c0.1-8.4 6.6-17.3 17.4-17.6zm238.6-18.7c7.2 9.4 18.1 9.6 20.4 9.5 2.1 0 54.3-1.9 56.7-2 3.7-0.1 7.8 1.9 11 6.4l-86.8-140.9c-5.8-1.8-19.8-4.2-30-4.2-31.5 0-49 11.5-67.2 31.2l-86.5 94.4 6.9 10.9c2.9 4 8.9 10.8 20.5 10.3 4.1-0.1 45.9-1.6 49.3-1.7 10.8-0.4 17.6 4.2 21.8 9.7l-15.4-23.2 59.4-62.9zm222.2-122.6c-5.8-3.1-18.7-6.6-28.9-6.7-0.8-0.1-1.5-0.1-2.2-0.1-17.8 0.1-40.7 4.9-55.5 40.2l-44.2 104.3c0.1-0.1 2.9-8.1 11.5-8.5 0 0 43.5-1.5 46.8-1.6 14.2-0.49999 19.9-10.3 21.3-13.4l51.2-114.1z" enable-background="new    " fill="url(#b-5)" opacity=".35"/></g></svg>
