<svg width="2951.8" height="1037.1" enable-background="new 0 0 2459.8 500" version="1.1" viewBox="0 0 2951.8 1037.1" xml:space="preserve" xmlns="http://www.w3.org/2000/svg"><defs><linearGradient id="path15335_1_-6" x1="-625.21" x2="-403.69" y1="653.82" y2="653.82" gradientTransform="matrix(7.5001 0 0 -7.5001 9258.2 3656.1)" gradientUnits="userSpaceOnUse"><stop stop-color="#FF0031" offset="0"/><stop stop-color="#9B001F" offset="1"/></linearGradient><linearGradient id="path15297-4_1_-7" x1="-735.16" x2="-730.71" y1="1190.1" y2="1190.1" gradientTransform="matrix(-1.3157 -37.678 -37.678 1.3157 48008 -30500)" gradientUnits="userSpaceOnUse"><stop stop-color="#fff" offset="0"/><stop stop-color="#fff" stop-opacity=".4" offset=".5"/><stop stop-color="#fff" stop-opacity=".25" offset="1"/></linearGradient><linearGradient id="path15555_1_-0" x1="-721.24" x2="-716.8" y1="1180.7" y2="1180.7" gradientTransform="matrix(-1.9565 -56.026 -56.026 1.9565 70141 -43988)" gradientUnits="userSpaceOnUse"><stop stop-color="#fff" offset="0"/><stop stop-color="#fff" stop-opacity=".4" offset=".5"/><stop stop-color="#fff" stop-opacity=".25" offset="1"/></linearGradient></defs><link rel="stylesheet" type="text/css"/><link rel="stylesheet" type="text/css"/><style type="text/css"/>

<g transform="translate(-3770.7 304.14)">
	<g transform="matrix(1.2 0 0 1.2 -754.14 1493)"><path d="m3993.9-1197.8c0 43-28 74.2-85.2 80.4-41.2 4.4-101-0.8-129.4-4-1-4.6-1.8-10.4-1.8-15 0-37.4 20.2-46 39.2-46 19.8 0 51 3.4 74 3.4 25.6 0 33.2-8.6 33.2-16.8 0-10.8-10.2-15.2-30-19l-54.2-10.4c-45-8.6-69-39.6-69-72.6 0-40 28.4-73.6 84.4-79.8 42.2-4.6 93.8 0.6 122 4 1 4.8 1.6 9.4 1.6 14.4 0 37.4-19.8 45.4-38.8 45.4-14.6 0-37.2-2.6-63.2-2.6-26.4 0-37.2 7.2-37.2 16 0 9.4 10.4 13.2 26.8 16.2l51.6 9.6c53.2 9.6 76 39.8 76 76.8m92.6 46c0 23-9 36.2-54 36.2-6 0-11.2-0.4-16.2-1.2v-304.8c0-23.2 7.8-47.4 53.2-47.4 5.8 0 11.6 0.6 17 1.8zm183.8 118c6 3 18 6.8 33.2 7 26.2 0.6 40.4-9.4 51-32.8l140-311.6c-5.8-3-18.6-6.6-29-6.8-18-0.4-42.2 3.2-57.6 40l-45.6 106.6-89-144.6c-5.8-1.8-19.8-4.2-30-4.2-31.6 0-49 11.6-67.2 31.2l-86.4 94.4 69.6 109.4c12.8 20 29.8 30.2 57.2 30.2 18 0 33-4.2 40-7.4l-83.8-126 59.4-63 97.4 152.6z" fill="#ff0031"/><path d="m6197.3-1497.6h-1594.8c-18.4 0-33.4 15-33.4 33.4v433.2c0 18.4 15 33.4 33.4 33.4h1594.6c18.4 0 33.4-15 33.4-33.4v-433.4c-0.2-18.4-14.8-33.2-33.2-33.2" fill="url(#path15335_1_-6)"/><path d="m4016.5-1421.6v209c0-8.4 6.4-17.2 17.2-17.6 7.6-0.2 28.8-1 35.2-1.2 7-0.2 17.6-5 17.8-17.8v-218c-5.4-1.2-11.2-1.8-17-1.8-45.4 0.2-53.2 24.2-53.2 47.4m160 72.8-86.4 94.4 7 10.8c3 4 8.8 10.8 20.4 10.4 4.2-0.2 45.8-1.6 49.2-1.8 10.8-0.4 17.6 4.2 21.8 9.8l-15.4-23.2 59.4-63 39.8 62.6c7.2 9.4 18 9.6 20.4 9.6 2 0 54.4-1.8 56.6-2 3.6-0.2 7.8 1.8 11 6.4l-86.6-140.8c-5.8-1.8-19.8-4.2-30-4.2-31.6-0.2-49 11.2-67.2 31m-321.4-29c-56 6.2-84.4 39.6-84.4 79.8 0 20.6 9.4 40.4 27.4 54.6 13.6 9 27.6 12.4 41.4 14.8 11.4 2 38 3.8 57.8 3 6.2-0.2 51.8-1.8 61.6-2.2 23.2-0.8 35.6 19 34.4 38.8v-1c0.2-2.6 0.4-5.2 0.4-7.8 0-37-22.8-67.2-75.8-77l-51.6-9.6c-16.6-2.8-26.8-6.8-26.8-16.2 0-8.8 11-16.2 37.2-16.2 26 0 48.6 2.6 63.2 2.6 19 0 38.8-8 38.8-45.4 0-5-0.6-9.6-1.6-14.4-20.2-2.4-52.6-5.8-84.8-5.8-12.6 0.2-25.2 0.8-37.2 2m552.6 39.8-44.2 104.2c0-0.2 2.8-8.2 11.4-8.6 0 0 43.6-1.6 46.8-1.6 14.2-0.6 19.8-10.2 21.4-13.4l51.2-114.2c-5.8-3-18.6-6.6-29-6.8h-2.2c-17.8 0.2-40.6 5-55.4 40.4" enable-background="new    " fill="url(#path15297-4_1_-7)" opacity=".3"/><path d="m4602.5-1497.6c-18.4 0-33.4 15-33.4 33.4v240.6-0.2c0-3.6 1.4-23.4 24-25.6 0 0 1.2-0.2 3.2-0.2 98.6-3.4 1609.4-56.4 1609.4-56.4 12.6-0.4 24.8-9.8 24.8-25.4v-132.6c0-18.4-15-33.4-33.4-33.4z" enable-background="new    " fill="url(#path15555_1_-0)" opacity=".3"/><g transform="translate(3755.6 -1662.5)" fill="#fff"><path d="m907.7 417.6c0-70.2 51.5-122.2 119.7-122.2 31.9 0 61.4 8.8 82 18.6 3.4 22.1-3.5 30.9-13.3 30.9-17.2 0-31.9-14.2-67.2-14.2-44.2 0-80.5 32.9-80.5 86.9 0 53.5 36.3 86.9 80.5 86.9 35.3 0 50.1-14.7 65.8-14.7 10.3 0 17.6 9.3 14.7 31.4-20.6 10.3-50.1 19.1-82 19.1-68.2 0-119.7-53-119.7-122.7"/><path d="m2116.2 380.8v141.9c0 9.8-5.4 15.2-21.6 15.2-6.9 0-14.7-1-18.6-2v-150.2c0-34.4-16.2-54.5-47.1-54.5-26 0-47.6 18.1-56.4 36.8v154.6c0 9.8-5.4 15.2-21.6 15.2-6.9 0-14.7-1-18.6-2v-150.1c0-34.4-16.2-54.5-47.1-54.5-26 0-47.6 18.1-56.4 36.8v154.6c0 9.8-5.4 15.2-21.6 15.2-6.8 0-14.7-1-18.6-2v-236c3.9-1 11.8-2 19.1-2 15.2 0 20.6 5.9 20.6 16.2v16.2c15.2-20.1 38.8-34.9 67.3-34.9 31.4 0 55.9 15.7 68.2 42.7 16.2-24.5 40.7-42.7 75.6-42.7 50.3 0.1 76.8 37.9 76.8 85.5"/><path d="m1736.8 432.3h-182.6c5.4 45.7 36.8 71.2 83.4 71.2 20.1 0 35.8-4 50.6-8.8 10.3-3.5 14.7-4.9 18.6-4.9 11.3 0 18.6 9.3 16.7 30.9-21.1 9.3-53.5 19.6-87.4 19.6-73.6 0-123.2-49.5-123.2-123.2 0-70.7 52.6-121.7 116.8-121.7 72.7 0 108.5 56.4 108.5 113.4 0.1 6.9-0.4 15.2-1.4 23.5m-182.6-31.4h144.8c-1.5-40.2-27.5-71.7-69.2-71.7-36.3 0.1-69.2 25.1-75.6 71.7"/><path d="m1465.2 395.5v127.1c0 9.3-5.4 15.2-21.6 15.2-6.8 0-14.7-1-18.6-2v-135c0-47.1-23.1-69.7-57.9-69.7-27 0-56.4 18.7-68.2 40.7v150.7c0 9.3-5.4 15.2-21.6 15.2-6.9 0-14.7-1-18.6-2v-235.9c3.9-1 11.8-2 18.6-2 16.2 0 21.6 5.9 21.6 15.2v20.1c17.2-21.1 43.2-37.8 78-37.8 48.1 0.1 88.3 30.5 88.3 100.2"/><path d="m2367.1 384.7v151.2c-3.9 1-11.3 2-18.1 2-14.7 0-21.6-5.4-21.6-15.2v-20.7c-21.1 24.1-48.6 38.3-83.5 38.3-52.5 0-81.5-34.3-81.5-71.7 0-56.9 60.9-82 164.4-75.1v-8.3c0-38.8-11.8-55-56.4-55-18.6 0-43.7 5.4-56.9 8.8-7.9 2-13.8 3.9-18.6 3.9-11.3 0-18.7-9.8-14.8-30.4 24.1-8.8 58.9-17.2 92.3-17.2 69.2 0.1 94.7 31 94.7 89.4m-40.2 82.5v-44.7c-67.7-4.9-124.2 3.9-124.2 44.7 0 20.6 17.2 39.2 48.1 39.2 31.4 0 58.9-15.6 76.1-39.2"/><path d="m1149.5 246.3c0-14.7 11.8-25.5 25.5-25.5 14.8 0 26 10.8 26 25.5 0 13.3-11.3 25.5-26 25.5-13.7 0-25.5-12.2-25.5-25.5m5.4 289.6v-222.8c0-9.3 5.4-15.2 21.6-15.2 6.9 0 14.2 1 18.1 2v222.8c0 9.8-4.9 15.2-21.1 15.2-6.8 0-14.6-1-18.6-2"/></g></g>
	
		
	
	
		
	
	
		
	
	
<text fill="#000000" font-family="sans-serif" font-size="40px" letter-spacing="0px" word-spacing="0px" style="line-height:1.25;shape-inside:url(#rect1421);white-space:pre" xml:space="preserve"/><g transform="matrix(.53162 0 0 .6413 4783 357.84)" fill="#fff"><path d="m868.05 8c5.4 43.06 11.205 86.06 16.725 129.1 3.8497 28.28 7.6698 56.6 9.9 85.05-9.2503-4.87-17.94-11.465-28.35-13.625-0.1 4.91 0.85504 9.745 1.625 14.575 6.8 40.15 13.24 80.39 18 120.85 0.63 5.72 1.64 11.42 1.75 17.2-1.12-0.42-2.32-0.7-3.1-1.65-5.86-6.03-11.51-12.26-17.4-18.25 11.37 70.47 23.59 140.84 34.75 211.35 1.9042 11.221 3.25 21.64 5.55 32.35 1.97-6.84 2.14-14.04 3.25-21.05 4.03-43.24 6.4-86.625 9.7-129.92 3.69 7.7 7.76 15.2 11.65 22.8 2.52 4.58 4.55 9.44 7.55 13.75 0.89 0.16 1.79 0.32 2.7 0.5 0.0704-19.34 0.26-38.67 0.25-58 0.46-11.02-0.41-22.06 0.6-33.05 0.04-21.38 0.06-42.745 0.35-64.125 7.19 14.39 14.235 28.83 21.475 43.2 1.1-1.46 3.1998-2.69 2.7501-4.8-2.2403-36.76-4.9098-73.51-6.6501-110.3-0.81976-7.39-0.64968-14.855-0.9-22.275 1.7203 0.63 2.5503 2.335 3.5 3.775 8.9102 14.42 17.885 28.8 26.575 43.35 1.24 1.89 3.87 1.34 5.8 1.35 9.98-0.95 19.685-3.785 29.125-7.075 14.13-5.12 28.175-11.835 38.625-22.925 7.46 1.45 14.78 3.97 21.75 7.05 0.16 24.58-0.2753 49.17-0.125 73.75 0.5698 13.82-1.1098 27.99 2.85 41.45 3.0302 9.64 10.985 16.455 18.175 23.075 12.81 11.22 26.245 21.705 39.675 32.175 5.8197 4.71 13.81 3.975 20.8 3.575 8.3698-0.63 15.79-4.805 23.3-8.175 7.0697-3.26 14.015-6.82 20.825-10.6 9.05-5 16.8-12.38 22.1-21.25 3.36-5.44 4.1552-11.905 5.225-18.075 2-13.26 2.915-26.665 2.825-40.075 0.47-24.2-3.7-48.155-6-72.175l-0.475-0.75c-0.1601-4.74-1.045-9.41-1.675-14.1-0.95-6.28-1.62-12.74-4.35-18.55-2.48-5.54-6.39-10.33-10.8-14.45-11.73-10.84-24.515-20.72-38.725-28.1-6.0097-3.44-12.965-0.41-18.825 1.8-20.46 8.67-39.365 20.555-58.025 32.525-4.3902 2.64-8.0798 6.725-9.35 11.775-1.0797 4.26-3.2597 8.11-5.8 11.65-6.8899-0.69-13.125-3.915-19.725-5.775 2.56-33.68 6.09-67.275 8.5-100.98 0.35-6.4 1.9649-13.235-0.825-19.325-2.9703-7.12-8.215-12.895-12.875-18.925-17.25-21.17-34.395-42.435-52.275-63.075-3.8098-0.56-7.555 0.38-11.075 1.75-11.6 4.2-23.14 8.635-34.85 12.525-1.65 0.57-3.4 0.76-5.1 1-1.73-10.09 0.62-20.255 0.8-30.375-16.59-0.2-33.225 0.765-49.825-0.125-11.74-0.73-23.5-0.895-35.25-1.375zm125.9 43.25c1.5618-0.03938 3.085 0.4675 4.45 1.3 0.95 1.7 1.295 3.62 1.475 5.55 5.24 28.35 6.875 57.16 8.475 85.9 0.47 6.61-0.12 13.325 0.8 19.875 0.32 13.78 0.44 27.555 0.25 41.325-3.11 0.56-6.26 0.22-9.35-0.2-9.04-0.9-18.105 0.47-26.975 2.05-4.5601 0.51-9.065 1.385-13.625 1.825-1.07-39.3-0.46504-78.625-0.87496-117.92 0.02-8.98-0.0352-17.945 0.0248-26.925-0.02-2.25 0.7-5.26 3.35-5.65 9.96-3.01 20.305-4.53 30.425-6.9 0.52-0.1425 1.0543-0.21188 1.575-0.225zm180.7 140.65c1.33 4.75 0.12 9.71-1.4 14.25-3.34 7.31-9.28 13.01-15.7 17.65-5.73 4.41-13.485 4.96-18.825 10-0.7298-1.15-1.045-2.385-0.975-3.725 0.02-4.39-0.31-8.845 0.85-13.125 11.52-9.03 23.91-16.89 36.05-25.05zm-202.75 28.4c3.33 0.16 6.74-0.04 10 0.85 8.92 0.72 17.755 2.32 26.425 4.55l0.875 2.175c0.04 0.83 0.095 1.66 0.175 2.5-3.3302 5.4-7.365 10.295-11.325 15.225-3.78 1.38-5.7149-2.56-8.025-4.65-6.1698-6.77-12.305-13.59-18.125-20.65zm206.38 17.85c2.7599 20.56 5.5099 41.135 7.1 61.825 0.5999 7.33 0.045 14.715 0.875 22.025 0.46 6.03-0.63 12.02-0.45 18.05-0.12 11.71-1.2351 23.38-2.625 35-0.9701 6.05-1.515 12.31-3.975 18-5.64 3.24-11.25 6.595-17.4 8.775-1.51 0.68-3.1749 0.755-4.775 0.625-4.3099-4.43-9.2201-8.565-12.25-14.025-2.02-22.11-3.8799-44.305-4.65-66.525-0.9199-6.92-0.555-13.94-0.825-20.9-1.21-17.46-0.725-35-0.875-52.5 2.57-1.15 5.14-2.305 7.8-3.275 4.81-2.26 9.825-4.045 14.575-6.475 5.8-0.52 11.645-0.53 17.475-0.6z"/><path d="m640.57 58.81c2.51-0.65 5.81 0.07 6.95 2.64 0.95 13.1 0.56 26.33 1.57 39.42 0.14 0.68 0.43 2.05 0.57 2.74 1.13-0.11 2.35-0.1 3.29-0.88 6.75-4.63 13.37-9.45 20.26-13.87 3.28-2 6.58-4.17 10.33-5.18 3.5-0.51 6.08 2.48 7.84 5.1 5.1 7.56 8.97 15.87 12.86 24.11 4.38 10.15 9.52 20.14 12 30.98 1.28 4.19-3.03 6.6-5.79 8.71-13.88 9.72-28.18 18.88-42.98 27.16-3.41 2.17-5.11-3.11-7.43-4.75 2.87-3.43 5.88-6.76 8.97-10.01 1.22-1.1 0.43-2.87 0.17-4.23-3.63-11.52-6.71-23.21-10.38-34.71-0.1-0.61-0.3-1.82-0.4-2.43-3.23-0.82-6.56-0.3-9.5 1.2l-1.08 2.04c-0.69 18.37 0.08 36.75-0.05 55.13-0.08 22.68 0.13 45.36 0.1 68.04 0.77 6.3 0.32 12.65 0.43 18.98 0.08 16.4 0.19 32.8 0.43 49.2 2.89 7.22 9.93 11.4 14.39 17.37-4.09 0.21-8.15-0.22-12.17-0.84-5.98-0.1-12.02-0.55-17.94-0.6-9.62-0.92-19.37-0.27-28.91 1.02-4.3 0.54-8.7 0.08-12.95 0.99-5.56 0.01-11.48 1.06-16.7-1.37-2.72-1.24-5.46-2.47-8.27-3.5 0.14-0.33 0.41-0.98 0.55-1.31 5.03-2.92 9.39-6.84 13.58-10.83 3.69-3.74 7.46-7.9 8.49-13.23 3.08-14.75 3.44-29.86 4.4-44.84 0.13-43.7 0.72-87.39 1.23-131.07-0.14-1.65 0.36-3.5-0.49-5 1.42-3.72 0.3-8.07 0.65-12.04-2.49 0.73-4.96 1.5-7.41 2.32-1.13 0.04-2.26 0.08-3.37 0.12-0.52-0.85-1.08-1.69-1.58-2.53 1.69-2.2 3.94-3.83 6-5.66 14.77-14.53 29.5-29.11 44.21-43.7 2.09-2.46 5.04-3.94 8.13-4.69z"/><path d="m201.49 68.59c8.51 0.8 16.99 2.39 25.59 2.22 14 0.71 28.06 0.83 42.05-0.25 11.17-0.43 22.28-2.37 33.46-2.09-0.53 3.58-4.04 5.26-5.71 8.19-4.91 8.26-8.86 17.19-11.04 26.56-0.92 6.88-1.31 13.83-1.33 20.77-0.37 36.95-0.13 73.91 0.34 110.86-0.39 1.72 1.47 2.41 2.82 1.77 21.31-5.31 43.37-6.95 65.28-6.3 7.88 0.34 16.08-0.31 23.67 2.14-0.15 0.86-0.29 1.72-0.43 2.58-2.38 0.87-4.86 1.68-6.78 3.4-6.01 4.97-11.49 10.55-17.14 15.92-1.42 1.55-3.77 3.09-3.05 5.54 2.18 12.21 2.7 24.66 5.09 36.83 4.66 16.97 10.16 33.71 14.49 50.79 1.81 0 3.49-0.66 4.72-2.02 2.64-2.71 5.81-4.83 8.61-7.36 1.04-11.01 1.43-22.1 1.71-33.16 0.75-7.63 0.48-15.29 0.72-22.94 0.29-40.19-0.49-80.48-5.34-120.42-2.23 0.53-4.49 1.03-6.55 2.05-10.55 4.77-20.87 10.08-30.69 16.21-2.65 1.55-5.13 3.72-6.1 6.73-2.23 6.96-1.6 14.41-1.22 21.6-1.61 0.51-3.21 1.03-4.81 1.55-8.39-13.51-17.09-26.98-23.03-41.8-1.7-5.08-4.35-10.24-3.34-15.75 4.09-1.95 7.42-5.08 11.15-7.59 14.91-10.55 30.63-20.16 47.55-27.13 2.3-0.78 5.53-2.39 7.43-0.03 15.67 15.7 30.84 31.9 45.86 48.22 8.09 9.04 16.95 18.46 19.38 30.79 2.3 14.4 2.64 29 2.7 43.55-0.13 16.65 0.42 33.33-0.78 49.95-0.09 12.78-0.46 25.55-0.47 38.33 5.74 2.61 12.39 2.85 18.44 1.25-0.26 1.84-1.68 3.1-2.96 4.3-8.37 7.63-16.86 15.14-25.42 22.55-5.84 4.9-8.75 12.34-14.56 17.27-6.2 5.46-15.5 5.93-23.07 3.5-7.75-4.02-7.73-13.74-8.36-21.29-10.11 7.27-20.02 14.83-29.9 22.41-4.66 3.6-10.83 1.56-16.02 0.56-3.79-1.05-8.64-2.54-9.68-6.88-4.39-13.28-8.7-26.59-13.11-39.86-4.77-14.92-10.37-29.64-13.58-45.01-1.37-4.93 1.07-9.76 3.52-13.89 6.61-10.65 16.09-19.03 25.08-27.59-13.99 2.67-28.55 4.9-41.04 12.17-0.11 34.4 0.31 68.79 0.2 103.19 0.67 14.68-0.03 29.38 0.46 44.06 0.03 17.3 0.13 34.6 0.58 51.89 1.03 13.49 3.2 28.18 12.56 38.64 3.37 4.18 8.84 5.58 12.59 9.28-0.49 1.57-1.15 3.07-1.93 4.52-1.69 0.01-3.37 0.11-5.04-0.11-18.57-3.01-37.3-5.18-56.1-5.93-17.7-0.13-35.48-0.8-53.09 1.33-0.88-2.89-3.81-5.16-3.6-8.28 9.81-5.49 19.26-13.12 23.12-24.07 4.9-13.89 5.54-28.78 6.75-43.32 1.25-26.33 1.64-52.71 0.89-79.06-0.67-17.65-0.52-35.38-2.74-52.93-18.41 14.41-41.2 21.68-63.73 26.68 0.19 36.63 0.69 73.26 0.94 109.89 0.37 7.69-0.36 15.44 0.55 23.1 2.24 8.4 10.5 12.71 17.39 16.85 1.58 1.05 4.13 3.31 2.71 5.23-2.87 0.36-5.51-1.03-8.24-1.62-8.77-1.89-17.74-2.47-26.65-3.26-29.64-1.99-59.37-2.49-89.07-2.65-1.06-0.32-3.99-1.34-1.8-2.32 0.08-0.86 0.24-2.56 0.32-3.42 10.59-4.18 21.24-10.26 27.12-20.39 3.59-6.05 3.68-13.25 4.29-20.04 0.83-13.34 0.59-26.72 1.11-40.08 0.02-18.49-0.38-36.98-0.65-55.47-14.05-6.51-28.12-13.01-41.82-20.24-9.55-4.71-16.32-13.37-22.12-22.03-4.87-7.65-9.23-15.67-12.64-24.09v-2.05c15.28-6.93 32.11-9.33 48.59-11.59 0.01 1.63 0.48 3.78-1.26 4.72-10.27 6.15-21.12 11.34-31.13 17.95 3.36 3.93 7.55 6.99 11.74 9.96 11.58 8.02 24.12 14.55 36.8 20.64 3.46 1.55 6.87 3.65 10.78 3.69 0.62-6.47 0.22-12.99 0.29-19.48-0.45-13.3-0.1-26.64-1.1-39.92-0.33-10.02 0.01-20.07-0.9-30.05-0.81-33.38-2.3-66.74-3.54-100.09-2.04-10.46-11.21-17.59-20.85-20.84 0.17-1.99 1.36-3.99 3.42-4.44 3.38-0.31 6.79 0.05 10.17 0.27 4.64 0.68 9.33 0.25 14 0.35 6.98-0.09 13.99 0.32 20.95-0.46 10.66-0.21 21.33-0.26 32-0.52 9.12-0.71 18.28-0.84 27.43-0.88-0.32 1.97-0.65 3.93-0.97 5.89-5.67 2.9-9.26 8.65-10.77 14.69-1.1 6.27-0.95 12.67-1.03 19.02 0 16.67-0.04 33.34 0.56 49.99 0.35 14 0.12 28.03 1.06 42.01 0.18 10.68 0.23 21.37 0.63 32.05 0.81 13.61 0.82 27.28 1.83 40.9 6.58-0.91 12.5-4.22 18.37-7.12 15.92-8.78 31.43-18.53 45.54-30.03 0.15-56.66-1.42-113.36-5.91-169.83-0.21-5.91-4.93-10.15-9.91-12.53-2.78-1.12-3.63-4.1-3.3-6.85z"/><path d="m1314.8 67.43c3.04-0.58 3.78 2.7 3.68 5.03 0.11 13.86 0.68 27.71 0.84 41.57 0.46 8.15-0.31 16.41 0.87 24.48 9.68-0.11 19.36 0.33 29.05 0.29 0.2 1.76 0.37 3.53 0.6 5.29 0.83 2.89 0.37 5.96 1.24 8.84 0.33 3.13 0.63 6.28 0.81 9.43-9.31 0.2-18.62 0.36-27.93 0.44-1.29-0.09-2.5 0.28-3.65 0.73-1.75 28.13-0.31 56.32-0.89 84.48-0.5 24.37-1.66 48.72-2.33 73.09-0.82 3.58-0.34 7.3-0.6 10.94-1.06 27.64-2.56 55.3-3.51 82.95-0.41 7.04-1.91 15.16 2.7 21.21 7.47 7.56 16.11 13.93 24.98 19.76-1.84 2.08-3.51 4.43-5.81 6-1.8 0.01-3.34-1.13-4.92-1.75-18.27-9.07-36.73-17.81-54.34-28.14-4.48-2.63-8.87-5.73-11.7-10.17-2.78-4.08-3.57-9.11-3.61-13.94 0.34-26 0.68-52 1.74-77.98 0.86-25.71 3.71-51.28 4.22-77 0.51-26.63 0.26-53.39-2.44-79.87-0.21-3.87-0.73-7.7-1.54-11.48-14.2 0.06-28.39-0.2-42.58-0.2-0.18-2.5-0.28-5-0.09-7.5 17.21-9.59 33.04-21.58 47.89-34.51 14.52-12.86 27.66-27.27 39.2-42.86 2.47-3.24 4.84-6.63 8.12-9.13z"/><path d="m492.65 85.89c2.27-1.25 4.43-3.43 7.21-3.18 4.08 0.67 7.74 2.7 11.59 4.08 2.15 9.82 2.13 20.09 3.69 30.02 0.12 1.16 0.24 2.33 0.36 3.5 0.36 0.27 1.06 0.8 1.42 1.07 5.32-4.28 11.23-7.76 16.98-11.43 5.31-3.32 11.52-6.23 17.94-5.24 4.06 0.98 6.23 4.96 8.18 8.29 4.38 8.87 8.17 18.03 11.8 27.23 4.11 9.99 8.52 20.02 10.51 30.68-0.24 3.39-1.84 6.53-4.8 8.32-13.08 8.5-26.48 16.51-39.88 24.49-1.5 0.83-2.95 1.99-4.75 1.85-0.97-1.71-2.2-3.24-3.58-4.61 3.25-3.21 6.25-6.66 9.27-10.07-0.2-0.14-0.62-0.43-0.82-0.57-0.86-5.16-2.56-10.13-3.91-15.18-3.07-11.13-6.43-22.18-9.58-33.28-0.66-3.08-4.34-6.67-7.28-3.86-0.83 3.23-0.3 6.61-0.28 9.9 0.72 22.73 1.66 45.44 2.12 68.17 1.15 7.87 0.03 15.96 1.31 23.84 0.91 14.75 2.89 29.42 3.73 44.18 2.03 17.98 1.93 36.23 4.79 54.14 1.83 4.99 7.09 7.42 11.5 9.7 0.29 0.48 0.86 1.45 1.14 1.94-0.17 0.58-0.53 1.76-0.71 2.34-27.86 0.68-55.74 0.55-83.62 0.58-2.96 0-5.94 0.15-8.88-0.34 1.54-3.82 4.21-7.22 7.79-9.3 3.61-2.03 7.25-4.18 10.13-7.19 1.05-1.04 1.47-2.47 1.35-3.91 0.02-28.35-0.03-56.69-0.09-85.03 0.31-4.02-0.71-7.97-0.54-11.99 0.02-21.36-0.29-42.73-0.48-64.09-1.15-12.47-0.12-25.09-1.81-37.53-10.15-0.01-20.38-0.49-30.47 0.79-1.78-0.48-4.49-1.54-4.67-3.64 20.95-15.1 41.86-30.31 63.34-44.67z"/><path d="m1403.2 95.2c1.36-2.69 2.83-5.58 5.73-6.92 0.65 0.36 1.96 1.08 2.61 1.44 1.03 8.43 0.84 16.93 1.31 25.39 0.75 3.25 0.34 6.61 0.57 9.92 0.67 16.41 1.7 32.8 2.3 49.22 4.74-0.11 9.51 0.12 14.25-0.3 3.34 0.64 6.67-0.33 10.03-0.27 5.24 0.06 10.49 0.01 15.73-0.18-0.32 6.59 0.14 13.31-1.15 19.81-12.64 0.51-25.3 1.09-37.9 2.21 0.14 14.86-0.09 29.72 0.13 44.57 0.66 2.23 0.37 4.57 0.42 6.86-0.06 24.67 0.4 49.35 0.48 74.02 0.96 11.3 0.42 22.67 0.8 34.01 0.35 20.64 0.92 41.25 1.28 61.91 0.7 11.19 0.32 22.45 1.52 33.61 10.62 5.44 21.06 11.22 31.66 16.69 2.87 1.13 5.66 4.17 8.89 3.22 7.14-4.85 13.5-10.77 20.07-16.34 1.65-1.03 0.59-3 0.21-4.42-10.84-3.34-22.13-4.78-33.17-7.25-3.83-1.05-8.96-0.75-11.02-4.83 7.16-1.93 14.67-0.83 21.99-0.57 16.98 0.88 33.96 1.96 50.93 3.02 1.79 0.34 4.6 0.37 4.68 2.92 0.4 3.32-2.84 4.82-4.81 6.78-7.87 7.19-14.87 15.25-22.31 22.87-4.47 4.52-7.4 10.52-12.89 13.99-1.9 1.62-4.61 1.39-6.82 0.73-18.04-5.58-35.95-11.62-53.52-18.52-16.16-6.46-32.66-12.95-46.74-23.39-1.89-1.78-4.49-3.5-4.63-6.34-1.55-26.68-1.15-53.4-1.19-80.12 0.08-10.34 0.33-20.67 0.66-31 0.13-44.45-1-88.88-1.92-133.32-7.16 0.36-14.35 0.35-21.48-0.27-3.12-0.12-4.64-3.96-3.44-6.52 0.9-1.53 2.1-2.85 3.35-4.12 13.95-14.1 27.04-29.13 38.25-45.54 9.62-13.55 17.69-28.13 25.14-42.97z"/><path d="m1651 134.94c2.8-2.1 5.8 0.6 6.24 3.5 1.66 8.78 1.57 17.79 3.05 26.6 10.41-6.25 20.9-12.37 31.19-18.83 2.28-1.39 4.1-3.74 6.92-4.08 1.88-0.35 4.5-0.25 5.6 1.63 4.66 6.51 8.61 13.51 12.79 20.34 6.46 11.31 13.07 22.61 17.82 34.77 1.68 3.97 1.95 8.47 1.15 12.68-3.02 6.13-9.04 9.84-13.95 14.31-14.09 11.39-28.37 22.55-42.72 33.61-1.34-2.06-3.2-3.68-4.96-5.33 3.86-5.93 8.42-11.39 12.47-17.19 0.3-1.35-0.16-2.69-0.51-3.97-3.51-10.92-6.78-21.92-10.28-32.85-1.74-5.57-3.43-11.14-5.22-16.68-3.69 2.56-7.39 5.13-11.21 7.5 0.44 30.05 1.96 60.07 2.43 90.13 1.05 10.28 0.43 20.72 1.02 31.06 1.02 8.89 0.19 17.95 1.16 26.86 0.51 22.75 1.71 45.47 2.79 68.19 0.98 7.86 6.94 13.88 13.45 17.77 8.22 4.92 17.49 7.83 26.78 9.97 1.6 0.43 3.23 0.71 4.88 1.17 3.87 0.51 7.72 1.31 11.64 1.7-0.05 2.2-0.15 4.4-0.23 6.6-8.45 0.48-16.91-0.1-25.35 0.04-3.64-0.23-7.32 0.18-10.88-0.55-11.46 0.03-22.89-1.27-34.02-3.97-11.14-2.46-22.14-5.5-33.04-8.84-13.74-4.04-28.11-7.05-42.48-5.33-0.95-2.21-1.94-4.41-2.56-6.72 12.01-1.06 20.33-11.28 26.62-20.61 4.89-10.04 4.88-21.54 5.11-32.46 0.33-31.36-0.42-62.71-0.62-94.07-0.88-8.23-0.3-16.62-0.65-24.91 0.08-17.3-1.19-34.54-0.89-51.84-4.97-0.28-9.91 0.68-14.87 0.48-0.1-1.21-0.18-2.43-0.24-3.64 2.16-3.27 4.01-6.83 7.01-9.44 18.39-15.62 36.28-31.84 54.56-47.6z"/><path d="m1519.2 159.22c-2.6795 0.0758-5.3563 0.39375-7.9 1.075-19.11 14.91-37.605 30.66-56.825 45.4-2.05 9.59-2.25 19.525-3.55 29.225-0.11 6.44-2.61 12.585-2.55 19.025 1.13 26.31 0.865 52.63 1.225 78.95-0.1 6.44-2.175 12.63-2.425 19.05 3.74 3.89 7.19 8.06 10.9 12 13.32 13.7 26.675 27.62 42.475 38.5 2.46 1.91 5.645 2.275 8.625 2.825 7.6 0.7 15.27 1.585 22.9 0.425 3.7 0.23 6.49-2.585 8.55-5.325 6.94-10.2 14.8-19.735 22.3-29.525 4-5.61 8.95-10.625 11.95-16.875-6.58-9.49-11.56-20.29-19.6-28.65-0.91 0.08-2.74 0.255-3.65 0.325-0.68 6.25-2.15 12.345-3.5 18.475-3.89 15.94-8.125 31.95-15.275 46.8-0.81 1.49-1.675 4.49-3.875 3-11.06-6.22-19.21-17.535-22.05-29.875-1.72-10.27-1.155-20.75-2.025-31.1-0.28-12.98-0.515-25.96-0.525-38.95-0.09-1.68 0.15-3.48-0.7-5 0.98-1.54 0.58-3.335 0.2-4.975 0.46-7.04-1.705-14.705 1.975-21.275 10.59-0.12 20.795 3.04 31.025 5.4 6.13 1.49 12.23 3.095 18.35 4.675 1.29 0.39 2.575 0.68 3.925 1 4.44 1.18 8.915 2.24 13.375 3.4 1.61 0.36 3.745 0.845 4.925-0.725 8.89-8.28 14.37-19.42 19.95-30-1.92-6.64-4.855-13.04-7.125-19.6-3.39-8.95-6.82-17.885-10.1-26.875-2.11-5.1-3.6-10.465-5.9-15.475-6.79-4.28-14.09-7.79-21.1-11.75-2.63-1.37-5.27-2.72-7.9-4.05-6.95-3.43-13.795-7.285-21.275-9.425-1.5863-0.0937-3.1923-0.14547-4.8-0.1zm-1.75 17.525c1.8802 0.0446 3.5194 0.99375 3.9 3.225 3.89 10 7.84 19.955 11.8 29.925 5.12 12.61 9.77 25.43 15.2 37.9-0.03 0.85-0.035 1.7-0.025 2.55-6.1 0.31-12.18-0.84-18.2-1.5-8.64-0.5-17.23-1.73-25.85-2.45 0.03-10.2 1.12-20.345 1.5-30.525 1.24-11.95 0.32-24.565 5.45-35.725 1.0012-2.0419 3.8076-3.4573 6.2249-3.4z"/><path d="m772.27 179.65c8.47 1.67 17.2 0.56 25.76 1.56 7.67 0.15 15.28 0.98 22.87 1.94 4.27 0.15 8.61 0.36 12.82-0.64-0.1 0.84-0.19 1.69-0.28 2.53-3.63 5.92-7.11 12-9.73 18.45-9.28 20.04-20.13 39.28-30.89 58.56-9.68 17.08-18.29 34.75-27.82 51.92-25.14 45.17-52.55 89.21-83.96 130.31-17.09 0.33-34.16-1.14-51.12-3.16-16.1-2.51-32.14-5.68-47.79-10.27-5.4-1.45-10.71-3.24-16-5.03-3.69-1.33-7.42-2.54-11.05-4.02-3.79-1.44-7.5-3.05-11.21-4.64-6.63-2.89-13.1-6.11-19.45-9.54-0.45-3.72 2.3-6.99 3.89-10.18 6.7-10.54 15.58-19.43 24.6-27.96 13.04 0.88 26.04 2.44 39.06 3.52 3.23 0.94 7.04-0.41 9.89 1.71-0.31 1.85-2.25 2.02-3.63 2.54-10.74 2.96-21.54 5.68-32.23 8.82-2.26 0.42-2.56 3.03-3.46 4.75-1.73 4.72-4.07 9.42-4.2 14.55 7.7 3.68 16.41 4.21 24.71 5.68 27.3 3.7 55.03 5.39 82.49 2.6 9.96-16.33 20.36-32.4 30.5-48.63 3.02-4.42 5.52-9.19 8.88-13.37 1.54-1.92 0.63-4.61 0.23-6.79-7.01-24.7-14.75-49.19-22.36-73.71-3.3-10.35-6.58-20.71-9.95-31.03-1.73-4.98-3.26-10.04-5.02-15.01-1.87-5.07-3.36-10.3-5.73-15.17-2.89-3.58-7.92-4.32-12.23-4.76 0.39-1.34 1.04-2.58 1.89-3.69 3.45-0.04 6.89-0.15 10.34-0.35 10.92-1.08 21.99-0.52 32.95-1.28 14.24 0.2 28.42-1.8 42.61-2.26-2.76 5.98-10.96 5.26-14.53 10.46-1.8 2.01-2.03 4.87-1.31 7.38 5.55 21.22 11.12 42.45 17.12 63.55 0.87 2.38 1.08 5.21 3.15 6.94 10.07-15.76 18.8-32.33 28.03-48.6 3.7-6.81 7.46-13.59 10.89-20.54 1.66-3.37 1.81-7.2 3.13-10.68 1.25-4.05 2.59-8.08 4.02-12.07 0.68-1.74 1.4-3.48 2.09-5.22-6.92-0.66-12.81-4.83-17.97-9.17z"/></g></g>
</svg>
