<svg width="1872.2pt" height="642.8pt" version="1.1" viewBox="0 0 1872.2 642.8" xmlns="http://www.w3.org/2000/svg">
 <defs>
  <linearGradient id="linearGradient988" x1="-8600.5" x2="-8600.5" y1="-4687.6" y2="-4591.4" gradientTransform="matrix(-2.9812,0,0,-2.9812,-24493,-13655)" gradientUnits="userSpaceOnUse">
   <stop stop-color="#a80000" offset="0"/>
   <stop stop-color="#a1000c" offset=".38129"/>
   <stop stop-color="#b90019" offset="1"/>
  </linearGradient>
 </defs>
 <g transform="matrix(1 0 0 .99974 0 .004992)">
  <path d="m624.21 9e-5h1223c13.753 0 25.006 11.253 25.006 25.006v325.08c0 13.753-11.253 25.006-25.006 25.006h-1223z" fill="url(#linearGradient988)" stroke-width="2.9812"/>
  <path d="m624.21 375.09h-599.2c-13.753 0-25.006-11.253-25.006-25.006v-325.39c0-13.128 10.94-24.693 24.693-24.693h599.52z" fill="#fff" stroke-width="3.1257"/>
  <g transform="matrix(.75012 0 0 .75012 0 -6e-5)" fill="#fff">
   <path d="m1196.8 46.657c8.08-2.39 17.44-0.61 23.7 5.16 8.96 7.84 10.76 22.47 3.9 32.22-5.08 7.92-15.03 12.37-24.3 10.66-11.61-1.81-21.3-12.73-20.86-24.62-0.19-10.58 7.4-20.56 17.56-23.42z"/>
   <path d="m1017.4 133.46c21.37-5.8 43.96-4.99 65.59-1.1 16.56 3.21 33.02 8.13 47.94 16.07 0.82 7.45 0.64 15.53-3.01 22.28-2.45 4.57-7.4 7.7-12.63 7.47-7.67-0.23-14.56-3.99-21.59-6.62-14.68-6.05-30.63-9.09-46.51-8.39-14.87 0.74-29.66 5.3-41.92 13.84-11.33 7.69-20.34 18.59-26.21 30.93-6.65 14.05-9.41 29.77-8.95 45.25 0.46 14.4 3.53 28.88 10.19 41.73 7.95 15.91 21.5 28.99 37.82 36.15 20.99 9.32 45.36 8.45 66.93 1.55 8.87-2.71 17.08-7.36 26.16-9.37 5.62-1.4 12.21 0.36 15.57 5.29 4.85 6.95 5.01 16.04 4.14 24.15-14.07 7.02-29.27 11.67-44.63 14.88-25.46 5.02-52.52 5.76-77.23-3.13-24.95-8.67-46.58-26.38-60.09-49.06-11.77-19.51-17.68-42.39-17.5-65.12-0.26-25.49 7.13-51.2 21.84-72.12 15.21-21.84 38.36-37.9 64.09-44.68z"/>
   <path d="m1378.5 131.64c20.37-4.35 42.33-2.9 61.39 5.79 14.88 6.78 27.32 18.57 35.15 32.9 9.75 17.49 12.97 37.77 13.25 57.57 0 42.06 0.05 84.12-0.05 126.18 0.17 5.36-2.82 10.92-8.15 12.55-9.57 3.04-19.87 1.53-29.55-0.18-0.06-45.61 0.03-91.23-0.05-136.84-0.58-17.92-4.72-37.02-17.41-50.43-11.02-11.97-27.92-16.85-43.82-16.02-16.43 0.97-32.11 7.86-45.12 17.73-8.09 6.21-15.3 13.73-20.45 22.57-1.14 1.63-0.91 3.67-0.96 5.55 0.08 8.56 0.01 17.11 0.05 25.67 0.02 40.13 0.01 80.26-0.01 120.39 0.21 5.36-3.46 10.34-8.62 11.75-9.37 2.72-19.36 1.35-28.8-0.26-0.16-43.48-0.07-86.96-0.08-130.44 0.08-33.89-0.12-67.78 0.1-101.66 9.07-1.94 18.68-3.43 27.8-0.98 4.91 1.26 9.25 5.39 9.48 10.67 0.35 7.42-0.01 14.85 0.15 22.28 14.33-17.02 33.79-30.09 55.7-34.79z"/>
   <path d="m1579.1 150c30.74-21.87 72.51-26.73 107.67-13.3 16.58 6.46 31.22 17.69 41.88 31.93 10.87 14.34 17.8 31.44 21.11 49.08 3.01 15.84 2.86 32.18 0.27 48.06-60.29 0.07-120.59 0-180.88 0.04 2.21 17.04 8.77 33.95 20.77 46.51 10.38 11.11 24.48 18.3 39.23 21.59 22.1 4.92 45.28 2.4 66.72-4.37 7.84-2.21 15.32-5.66 23.31-7.37 5.57-1.42 11.72 1.3 14.58 6.26 4.25 7.17 3.74 15.87 3.17 23.87-19.57 8.63-40.34 14.62-61.56 17.38-19.3 2.53-39.12 2.24-58.08-2.43-16.65-4.06-32.58-11.5-45.88-22.37-14.06-11.32-25.03-26.31-31.98-42.94-9.86-23.76-12.22-50.39-7.98-75.68 5.19-30.3 22.29-58.65 47.65-76.26m17.36 30.27c-13.64 11.51-22.05 28.12-25.99 45.33-0.44 2.72-0.87 5.44-1.29 8.17 48.37 0 96.74-0.01 145.11 0-0.3-4.91-0.85-9.79-1.77-14.63-3.32-16.57-11.88-32.49-25.42-42.9-26.12-20.22-66.03-17.3-90.64 4.03z"/>
   <path d="m1879.3 133.17c21.25-6.87 45.68-4.8 64.78 7.1 11.91 7.31 21.04 18.49 27.09 31 9.14-13.12 20.8-24.75 35.02-32.29 17.83-9.56 39.11-11.94 58.81-7.71 14.06 3.02 27.23 10.4 36.75 21.24 12.31 13.79 18.58 32.08 20.24 50.29 0.97 10.37 0.4 20.8 0.55 31.21-0.04 40.16 0.05 80.34-0.06 120.5 0.17 5.76-3.84 11.05-9.43 12.42-9.4 2.54-19.36 1.27-28.79-0.52 0.01-42.8-0.01-85.61-0.02-128.42-0.23-11.22 0.66-22.52-0.93-33.67-1.46-9.94-5.03-19.84-11.76-27.44-6.16-7.04-14.97-11.41-24.12-12.93-27.02-5.03-54.58 11.73-66.73 35.54-1.21 2.79-0.57 5.94-0.69 8.89 0.02 48.58 0.05 97.16-0.02 145.74 0.28 5.65-3.22 11.29-8.82 12.76-9.59 2.65-19.77 1.3-29.4-0.44-0.01-29.46-0.01-58.92-0.01-88.38-0.17-22.64 0.32-45.29-0.26-67.92-0.73-9.29-2.85-18.66-7.59-26.77-4.58-7.96-12.01-14.27-20.7-17.29-14.94-5.25-31.92-3.43-45.78 4.04-10.33 5.46-19.26 13.56-25.69 23.31-1.78 2.98-4.3 5.92-4.24 9.58-0.1 3.75 0.03 7.5 0.02 11.25 0.04 46.59 0.01 93.19-0.01 139.78 0.3 5.58-3.05 11.21-8.58 12.75-9.48 2.73-19.63 1.5-29.16-0.36 0-50.27-0.03-100.54 0-150.8 0.02-27.01-0.01-54.02 0.01-81.03 8.65-1.91 17.74-3.44 26.53-1.45 5.05 1.07 9.59 5.03 10.31 10.32 0.86 6.75 0.19 13.59 0.4 20.37 10.8-13.94 25.39-25.23 42.28-30.67z"/>
   <path d="m2255.9 129.89c17.19-1.23 34.69-0.86 51.52 3.17 13.74 3.27 27.14 9.51 37.07 19.76 10.85 10.79 16.89 25.54 19.55 40.42 2.85 14.42 1.83 29.17 2.01 43.77-0.02 43.16 0.03 86.32-0.03 129.48-8.95 1.65-18.28 2.8-27.26 0.8-5.34-1.09-10.03-5.64-10.18-11.26-0.16-7.2 0.01-14.4-0.05-21.59-9.66 10.19-20.7 19.21-33.29 25.52-16.85 8.58-36.04 12-54.84 11.19-15.27-0.63-30.64-4.41-43.72-12.49-14.38-8.77-25.53-22.9-30.05-39.19-4.79-17.16-3.22-36.51 6.17-51.87 6.78-11.09 17.31-19.42 28.76-25.31 16.65-8.48 35.14-12.62 53.58-14.98 24.17-2.98 48.62-2.81 72.9-1.26-0.09-10.48-0.18-21.12-2.94-31.31-2.15-7.96-6.31-15.56-12.73-20.85-7.15-5.88-16.23-8.83-25.27-10.16-25.14-3.34-50.68 1.14-74.67 8.72-5.04 1.38-10 3.18-15.2 3.77-5.25 0.51-10.64-2.24-13.06-6.95-3.77-7.19-3.52-15.68-2.55-23.51 23.88-8.65 48.96-13.95 74.28-15.87m25.3 125.03c-17.4 1.05-35.09 2.99-51.35 9.62-9.34 3.91-18.36 10.1-23 19.37-7.01 13.91-3.62 32.09 7.98 42.52 7.95 7.51 18.67 11.45 29.43 12.56 16.59 1.49 33.6-1.83 48.41-9.5 13.04-6.54 24.33-16.26 33.43-27.61 0.8-1.14 2.07-2.21 1.91-3.77 0.07-14.33-0.06-28.67 0.05-42.99-15.61-0.88-31.25-0.94-46.86-0.2z"/>
   <path d="m1193.1 133.91c9.65-3.09 20.03-1.43 29.72 0.69 0 34.69-0.02 69.38 0 104.07 0.04 38.13-0.02 76.25 0.01 114.38 0.03 4.08-0.97 8.55-4.34 11.2-4.23 3.37-9.94 3.91-15.15 4.07-6.31 0.12-12.58-0.67-18.75-1.87-0.05-42.1-0.02-84.19-0.02-126.29 0.03-31.39-0.05-62.78 0.03-94.17-0.12-5.36 3.32-10.5 8.5-12.08z"/>
  </g>
  <path d="m421.97 333.52c4.0635 2.188 12.19 4.6886 22.818 4.6886 17.817 0.31257 27.507-6.5641 34.696-22.505l95.648-213.18c-4.0635-2.188-12.816-4.376-19.692-4.6886-12.19-0.31257-28.757 2.188-39.384 27.507l-30.945 73.142-60.952-98.461c-4.0635-1.2503-13.441-2.8132-20.63-2.8132-21.255 0-33.445 7.8144-45.948 21.255l-58.764 64.39 47.511 74.705c8.7521 13.753 20.317 20.63 39.072 20.63 12.19 0 22.505-2.8132 27.194-5.0012l-57.201-86.27 40.635-42.823 66.578 104.4zm-125.34-80.644c0 15.629-6.2515 24.693-36.884 24.693-4.0635 0-7.5018-0.31258-10.94-0.93773v-208.17c0-15.941 5.3138-32.195 36.258-32.195 3.7509 0 7.8144 0.31257 11.565 1.2503zm-63.452-31.257c0 29.382-19.067 50.637-58.139 55.013-28.132 3.1257-69.079-0.62514-88.458-2.8132-0.62515-3.1257-1.2503-7.1892-1.2503-10.315 0-25.631 13.753-31.57 26.881-31.57 13.441 0 34.696 2.188 50.637 2.188 17.504 0 22.505-5.9389 22.505-11.565 0-7.5018-6.8766-10.315-20.63-13.128l-36.571-6.564c-30.632-5.9389-46.886-27.194-46.886-49.699 0-27.506 19.38-50.324 57.513-54.7 28.757-3.1257 64.078 0.31257 83.145 2.8132 0.62514 3.4383 0.93772 6.564 0.93772 10.002 0 25.631-13.441 30.945-26.569 30.945-10.002 0-25.318-1.8754-43.135-1.8754-18.129 0-25.318 5.0012-25.318 10.94 0 6.2515 7.1892 9.0646 18.442 10.94l35.321 6.5641c36.259 6.8766 51.575 27.507 51.575 52.825" fill="url(#linearGradient988)" stroke-width="2.9812"/>
  <path d="m25.006 0c-13.753 0-25.006 11.253-25.006 25.006v226.3c0-20.005 16.003-36.509 36.008-37.259l1836.2-69.266v-119.78c0-13.753-11.253-25.006-25.006-25.006z" fill="#fff" opacity=".2"/>
 </g>
 <g transform="matrix(.75152 0 0 .75152 -2.8022 438.34)" fill="#fff">
  <path d="m336.48 28.63c5.89-1.93 13.05-1.08 17.54 3.48 6.48 5.58 7.42 16.3 2.07 22.95-3.67 4.84-10.01 7.37-16.01 6.45-8.68-0.97-15.64-9.69-14.5-18.4 0.4-6.44 4.97-12.16 10.9-14.48z"/>
  <path d="m654.38 28.46c9.85-3.56 21.81 3.79 22.35 14.4 1.35 8.99-5.86 17.91-14.86 18.69-8.9 1.41-17.97-5.61-18.91-14.53-1.26-7.88 3.8-16.17 11.42-18.56z"/>
  <path d="m1998.4 28.63c9.28-3.56 20.85 2.36 22.65 12.29 2.58 9.62-5.16 20.17-15.07 20.68-9.13 1.19-18.27-6.46-18.52-15.69-0.72-7.38 4.03-14.73 10.94-17.28z"/>
  <path d="m2055.5 35.44c3.43-2.95 8.27-3.13 12.59-3.17 4.66 0.1 9.31 0.55 13.92 1.32 0.05 22.87 0.04 45.75 0.01 68.62 6.53-6.75 14.46-12.4 23.37-15.54 17.11-5.33 36.76-3.08 51.62 7.21 14.89 10.26 24.07 27.54 26.34 45.29 2.02 16.74 0.18 34.36-7.73 49.46-7.37 14.84-20.9 26.89-37.13 30.95-17.04 4.24-36.6 0.83-49.61-11.47-3.26-3.01-5.85-6.66-8.08-10.47-0.06 6.88 0.55 15.79-6.13 20.01-7.43 3.9-16.33 2.2-24.17 0.6 1.53-23.72 1.45-47.5 1.54-71.25-0.01-33.02 0.02-66.03-0.02-99.05-0.25-4.38 0.05-9.32 3.48-12.51m50.84 74.86c-10.23 2.16-19.89 9.01-24.2 18.64-0.25 11.01-0.04 22.05-0.1 33.08 0.02 10.31 4.87 20.64 13.26 26.77 13.11 9.93 33.14 8.72 45.09-2.55 7.61-6.53 11.29-16.45 12.33-26.21 0.76-8.53 0.54-17.32-2.2-25.51-3.27-9.94-10.81-18.63-20.63-22.48-7.43-3.01-15.76-3.24-23.55-1.74z"/>
  <path d="m2216.3 33.27c7.4-1.97 15.17-0.65 22.65 0.29 0.13 58.17 0.04 116.33 0.04 174.5 0.2 5.12-2.72 10.69-8.01 11.88-7.32 1.64-14.93 0.61-22.24-0.53 0.05-58.13-0.01-116.26 0.03-174.38-0.11-4.9 2.43-10.45 7.53-11.76z"/>
  <path d="m126.14 43.35c11.49-3.54 24.16-4.85 35.8-1.26 5.99 1.78 10.31 7.09 11.75 13.05 10.19 40.15 20.35 80.31 30.46 120.48 10.16-39.58 20.34-79.16 30.51-118.74 1.16-4.81 3.74-9.44 7.87-12.29 4.77-3.3 10.7-4.28 16.38-4.56 7.91-0.29 15.83 0.77 23.5 2.67 5.68 58.16 11.56 116.31 17.11 174.48-7.34 3.67-16.6 4.53-24.4 1.6-3.37-1.23-5.31-4.73-5.57-8.17-4.07-46.96-7.63-93.98-11.82-140.93-10.33 39.82-21.29 79.48-31.84 119.24-1.3 5.06-2.53 10.66-6.82 14.11-4.54 3.48-10.5 4.28-16.06 4.26-5.4 0-10.8-0.59-16-2.06-12.54-45.21-25.15-90.4-37.64-135.61-4.21 46.84-8.46 93.68-12.69 140.52-0.17 3.4-1.83 6.95-5.1 8.35-7.46 3.51-16.12 2.01-23.53-0.82 0.06-2.28 0.21-4.55 0.47-6.8 5.94-55.83 11.57-111.7 17.62-167.52z"/>
  <path d="m1148.4 40.75c7.27-1.54 14.8-0.57 22.07 0.53 0 55.9 0.01 111.81 0 167.71 0.01 5.31-4.02 10.35-9.34 11.16-7.09 1.31-14.37 0.37-21.42-0.69 0.03-55.82-0.01-111.65 0.02-167.47-0.1-5.14 3.56-10.18 8.67-11.24z"/>
  <path d="m757.55 84.72c13.93-1.59 28.51 0.16 41.06 6.69 13.83 6.78 24.92 18.79 30.89 32.96 8.14 18.98 7.53 41.37-1.12 60.06-6.09 13.09-16.73 23.99-29.74 30.28-12.88 6.65-27.86 8.17-42.11 6.48-18.51-2.32-36.13-12.58-46.54-28.18-15.44-23.23-15.68-55.78-0.09-79.01 10.58-16.11 28.51-27.08 47.65-29.28m3.9 24.84c-13.61 2.18-25.04 12.65-29.43 25.56-5.27 15.33-3.85 33.51 5.79 46.85 8.5 12.27 25.29 17.94 39.48 13.33 9.39-2.76 17.26-9.69 21.73-18.33 4.78-8.75 6.02-19.02 5.32-28.85-0.84-11.31-5.37-22.76-14.01-30.36-7.76-6.87-18.69-9.9-28.88-8.2z"/>
  <path d="m920.75 84.88c12.16-2.03 25.39-1.13 36.2 5.27 9.93 5.77 16.84 15.86 19.9 26.82 3.74 11.99 2.81 24.67 2.9 37.05-0.01 18.37 0.03 36.74-0.01 55.11-0.01 4.68-2.9 9.7-7.72 10.74-7.31 1.78-14.95 0.65-22.28-0.41 0.01-25.16 0.02-50.31 0-75.46-0.17-9.09-1.32-19.04-7.68-26.07-6.97-7.56-18.22-9.4-27.96-7.63-8.61 1.97-16.82 6.55-22.26 13.61-1.37 1.75-2.94 3.65-2.61 6.05 0.05 26.01 0 52.02 0.03 78.03 0.22 4.86-2.3 10.46-7.36 11.76-7.4 2-15.17 0.73-22.63-0.25-0.05-44.03-0.01-88.06-0.02-132.09 7.44-2.02 16.1-3.89 23.16 0.26 5.64 3.75 6.18 11.18 6.28 17.33 8.26-9.77 19.24-17.81 32.06-20.12z"/>
  <path d="m1252.4 88.51c16.98-8.94 40.55-4.79 52.29 10.78 2.51 3.28 4.27 7.05 5.81 10.87 5.02-8.21 11.49-15.8 19.89-20.68 6.48-3.8 14.02-5.69 21.54-5.52 10.23-0.28 21.03 2.3 28.78 9.3 7.48 6.93 11.53 16.81 13.21 26.71 1.48 7.91 0.97 15.98 1.05 23.97-0.01 21.7 0.02 43.39-0.01 65.08-0.01 4.52-2.6 9.47-7.22 10.69-7.39 2.09-15.17 0.69-22.65-0.12-0.3-27.54 0-55.09-0.15-82.63-0.18-7.59-1.49-16.07-7.48-21.37-5.75-5.65-14.54-6.51-22.1-5-7.28 1.37-13.38 6.29-17.69 12.12-1.25 1.86-2.88 3.79-2.71 6.17 0.01 26.38 0.02 52.76 0 79.14 0.12 4.84-2.3 10.32-7.31 11.71-7.5 2.02-15.41 0.79-22.95-0.32 0.04-27.81 0-55.62 0.03-83.43-0.02-7.52-2-15.66-7.83-20.81-7.64-6.42-19.24-6.69-27.96-2.37-5.76 3.26-11.16 7.98-13.87 14.11-0.23 26.01-0.05 52.04-0.09 78.06-0.05 3.9-0.1 8.2-2.64 11.41-2.34 3.25-6.57 4.03-10.3 4.31-5.8 0.28-11.63-0.28-17.34-1.28 0-43.95 0.09-87.9-0.04-131.85 7.3-2.24 15.8-3.9 22.89-0.16 5.74 3.46 6.58 10.8 6.66 16.89 5.21-6.15 10.87-12.15 18.19-15.78z"/>
  <path d="m1475.9 88.9c8.7-4.27 18.65-5.15 28.21-4.53 18.22 1.51 34.95 12.81 43.99 28.58 9.2 15.23 11.44 33.69 9.46 51.13-1.54 15.15-8.18 29.84-18.91 40.69-13.05 13.11-32.59 18.98-50.77 16.09-12.54-1.72-23.59-9.14-32.1-18.21-0.06 19.43 0.03 38.86-0.04 58.29-0.06 4.92-3.59 9.69-8.59 10.46-7.07 1.31-14.35 0.43-21.39-0.67-0.04-61.05 0.08-122.11-0.06-183.17 7.3-2.24 15.81-3.9 22.92-0.18 6.06 4.34 6.4 12.68 6.71 19.45 5.33-7.47 12.37-13.76 20.57-17.93m4.51 21.75c-10.21 2.35-19.89 8.75-24.51 18.36-0.35 14.99 0 30.02-0.17 45.03 0.05 1.81-0.29 3.84 0.96 5.37 2.64 4.18 6.22 7.75 10.3 10.55 15.05 10.5 38.31 8.69 50.17-5.86 10.16-12.44 12.1-30.02 8.19-45.24-2.52-9.74-8.38-18.88-17.12-24.13-8.2-5.17-18.49-6.07-27.82-4.08z"/>
  <path d="m1633.5 84.77c16.88-2.16 34.69 1.15 48.83 10.88 15.95 10.54 26.29 28.52 28.65 47.36 2.32 17.93-1.63 36.93-12.24 51.72-10.34 14.52-27.03 24.14-44.65 26.42-14.97 1.87-30.71 0.02-44.12-7.2-13.95-7.15-25.01-19.63-30.48-34.33-7.89-21.02-6.11-45.85 6.26-64.8 10.39-16.47 28.49-27.61 47.75-30.05m3.97 24.86c-13.88 2.32-25.28 13.34-29.43 26.59-5.34 16.76-2.81 36.99 9.74 49.98 10.73 11.29 29.11 13.96 42.65 6.3 10.99-6.04 18.04-17.83 19.79-30.07 2.45-15.67-1.06-33.46-13.2-44.46-7.92-7.05-19.12-10.26-29.55-8.34z"/>
  <path d="m2315 85.12c17.51-3.26 36.73-0.25 51.01 10.88 20.16 15.51 28.02 43.3 23.31 67.74-31.74 0.05-63.48-0.03-95.21 0.03 1.04 8.12 4.14 16.29 10.22 21.97 7.81 7.56 19.04 10.39 29.66 10.29 7.94 0.23 15.84-1.24 23.34-3.77 5.38-1.74 10.85-4.22 16.67-3.42 3.83 0.52 6.62 3.8 8.03 7.21 1.94 4.92 1.75 10.4 0.86 15.53-14.84 6.24-30.69 10.81-46.91 10.44-16.65 0.59-33.83-3.58-47.24-13.74-12.59-9.4-20.74-23.93-23.76-39.21-3.66-18.87-1.19-39.37 9.32-55.74 8.96-14.43 24-24.96 40.7-28.21m-12.28 33.5c-5.48 6.54-8.06 15-8.92 23.37 22.86 0.01 45.72 0.02 68.58 0-0.88-10.01-4.94-19.96-12.29-26.95-7.49-6.83-18.3-8.51-28.04-7.17-7.5 0.97-14.6 4.83-19.33 10.75z"/>
  <path d="m335.11 86.14c7.25-1.82 14.86-0.65 22.15 0.4-0.03 40.81 0.01 81.63-0.02 122.44 0.05 4.66-2.88 9.58-7.59 10.77-7.31 2-15 0.71-22.38-0.25-0.06-40.5 0-81.01-0.03-121.51-0.32-5.11 2.68-10.57 7.87-11.85z"/>
  <path d="m397.44 94.54c8.39-5.78 18.48-8.65 28.54-9.6 20.72-1.93 41.55 1.78 61.24 8.17 0.61 5.43 0.62 11.26-1.93 16.24-1.38 2.78-4.06 5.01-7.21 5.32-5.83 0.61-11.61-0.83-17.14-2.52-8.4-2.62-17.28-3.12-26.02-3.06-6.2 0.38-13.14 0.47-18.17 4.65-4.84 3.86-4.77 12.55 0.6 15.91 5.99 3.88 13.16 5.12 19.9 7.14 14.4 4.24 29.65 7.19 42.29 15.76 7.6 5.02 12.93 13.38 14.02 22.45 1.15 9.23-0.48 19.14-5.62 27-7.64 11.04-21.11 16.11-33.92 17.99-23.94 3.1-48.31-1.06-70.99-8.83-0.88-5.9-0.87-12.46 2.58-17.6 1.97-3.14 5.8-4.68 9.43-4.34 7.84 0.51 15.19 3.58 22.84 5.14 9.2 2.2 18.74 2.59 28.15 1.88 5.36-0.69 11.27-1.89 14.98-6.17 2.9-3.99 3.43-9.85 0.85-14.12-2.53-3.71-6.97-5.29-10.98-6.83-13.38-4.65-27.41-7.24-40.61-12.41-7.56-3.13-15.23-7.01-20.39-13.56-7.71-9.74-8.7-23.8-3.78-35.02 2.29-5.56 6.57-10.04 11.34-13.59z"/>
  <path d="m520.01 98.06c8.31-7.9 19.78-11.58 30.97-12.93 21.34-2.31 42.95 1.35 63.2 8.11 0.31 6.22 0.53 13.28-3.63 18.38-4.83 5.16-12.67 2.98-18.71 1.71-11.83-3.95-24.5-5.04-36.87-3.73-4.21 0.52-8.71 1.45-11.84 4.54-4.52 4.03-4.2 12.56 1.23 15.66 6.49 4 14.14 5.28 21.34 7.45 13.91 4.06 28.59 7.07 40.76 15.38 7.59 5.08 12.9 13.46 13.91 22.59 1.41 11.59-1.65 24.5-10.61 32.5-8.73 7.83-20.48 11.38-31.93 12.64-23 2.33-46.28-1.73-68.02-9.22-0.8-5.52-0.86-11.49 1.88-16.51 1.74-3.4 5.51-5.63 9.34-5.42 5.12 0.07 10.06 1.64 14.97 2.94 9.12 2.6 18.53 4.61 28.06 4.37 6.99 0.09 14.42-0.21 20.63-3.81 6.2-3.5 7.52-13.1 2.78-18.29-3.53-3.3-8.29-4.75-12.75-6.32-17.62-5.85-37.04-8.22-52.4-19.4-15.85-11.51-16.5-37.56-2.31-50.64z"/>
  <path d="m648.31 88.29c2.63-2.27 6.25-2.79 9.6-3.01 5.63-0.24 11.27 0.35 16.82 1.3 0.05 40.14 0.02 80.29 0.02 120.43 0.15 5-1.89 10.83-7.09 12.48-7.5 2.38-15.55 1.05-23.17-0.06 0.01-40.47 0.02-80.94 0-121.4-0.05-3.57 1.1-7.31 3.82-9.74z"/>
  <path d="m1767.2 85.33c21.82-2.71 43.95 1.02 64.71 7.82 0.57 5.8 0.5 12.09-2.62 17.22-1.74 2.79-4.99 4.46-8.24 4.42-8.97 0.43-17.15-3.95-25.92-4.9-8.33-0.91-16.82-1.31-25.11 0.12-4.53 0.82-9.44 2.89-11.38 7.38-1.53 4.05-0.91 9.45 2.97 12 5.77 3.99 12.86 5.21 19.48 7.2 13.15 3.86 26.85 6.61 38.93 13.38 6.7 3.68 12.68 9.17 15.72 16.31 3.89 9.09 3.46 19.61 0.25 28.83-2.94 8.55-9.93 15.23-17.99 19.04-14.2 7.05-30.57 7.45-46.07 6.47-15.1-1.16-30.01-4.49-44.29-9.5-0.86-6.54-0.99-14.37 4.12-19.33 3.78-3.71 9.57-2.64 14.25-1.65 11.17 2.81 22.34 6.46 34 6.37 7.84 0.07 16.39 0.17 23.21-4.29 7.09-4.77 6.39-17.47-1.93-20.59-17.7-8.04-37.8-9.52-54.97-18.91-6.73-3.61-12.76-9.02-15.8-16.14-4.7-10.84-3.58-24.14 3.22-33.86 7.68-10.66 20.89-15.57 33.46-17.39z"/>
  <path d="m1860.2 103.15c7.81-11.17 21.64-16.24 34.68-17.93 21.53-2.5 43.33 1.22 63.79 7.94 0.54 6.35 0.61 13.68-3.83 18.77-3.47 3.77-9.12 2.99-13.67 2.41-7.73-1.45-15.14-4.54-23.07-4.84-9.28-0.49-19.27-1.39-27.88 2.77-6.7 3.04-7.75 13.88-1.16 17.59 7.03 4.35 15.42 5.49 23.2 7.95 11.78 3.36 23.94 6.15 34.7 12.27 6.68 3.66 12.59 9.2 15.58 16.32 3.79 8.94 3.42 19.28 0.33 28.37-2.83 8.64-9.81 15.44-17.91 19.27-15.11 7.54-32.6 7.67-49.06 6.35-14.16-1.38-28.15-4.54-41.55-9.32-0.81-6.58-0.9-14.4 4.25-19.35 3.87-3.69 9.71-2.54 14.44-1.51 10.83 2.72 21.63 6.24 32.92 6.3 7.95 0.08 16.53 0.27 23.58-3.99 7.45-4.39 7.08-17.51-1.27-20.76-18.31-8.48-39.41-9.68-56.95-20.07-6.68-3.82-12.25-9.77-14.85-17.07-3.62-10.3-2.43-22.37 3.73-31.47z"/>
  <path d="m1996.4 86.34c7.43-2.13 15.37-0.89 22.89 0.26-0.04 40.48-0.01 80.97-0.02 121.46 0.16 4.91-2.5 10.33-7.53 11.67-7.43 1.97-15.27 0.86-22.73-0.35 0.03-40.14-0.01-80.29 0.02-120.43-0.24-5.11 2.05-11.04 7.37-12.61z"/>
  <path d="m1016.4 95.61c10.89-4.44 24.22 4.68 24.14 16.39 0.87 9.74-8.03 18.5-17.59 18.52-9.54 0.55-18.54-7.96-18.25-17.55-0.36-7.53 4.74-14.73 11.7-17.36z"/>
  <path d="m1018.2 186.18c10.29-2.98 21.96 5.03 22.35 15.82 1.14 9.6-6.85 19.18-16.55 19.52-9.81 1.01-19.07-7.76-19-17.52-0.47-8.07 5.44-15.82 13.2-17.82z"/>
 </g>
</svg>
