<svg width="3664.9" height="1000.6" enable-background="new 0 0 2459.8 500" space="preserve" version="1.1" viewBox="0 0 3664.9 1000.6" xmlns="http://www.w3.org/2000/svg">
 <defs>
  <linearGradient id="linearGradient1545" x1="-625.21" x2="-403.69" y1="653.82" y2="653.82" gradientTransform="matrix(7.5001 0 0 -7.5001 3906.6 4671.7)" gradientUnits="userSpaceOnUse">
   <stop stop-color="#FF0031" offset="0"/>
   <stop stop-color="#9B001F" offset="1"/>
  </linearGradient>
  <linearGradient id="linearGradient1547" x1="-735.16" x2="-730.71" y1="1190.1" y2="1190.1" gradientTransform="matrix(-1.3157 -37.678 -37.678 1.3157 42656 -29484)" gradientUnits="userSpaceOnUse">
   <stop stop-color="#fff" offset="0"/>
   <stop stop-color="#fff" stop-opacity=".4" offset=".5"/>
   <stop stop-color="#fff" stop-opacity=".25" offset="1"/>
  </linearGradient>
  <linearGradient id="linearGradient1549" x1="-721.24" x2="-716.8" y1="1180.7" y2="1180.7" gradientTransform="matrix(-1.9565 -56.026 -56.026 1.9565 64789 -42973)" gradientUnits="userSpaceOnUse">
   <stop stop-color="#fff" offset="0"/>
   <stop stop-color="#fff" stop-opacity=".4" offset=".5"/>
   <stop stop-color="#fff" stop-opacity=".25" offset="1"/>
  </linearGradient>
  <clipPath id="clipPath228">
   <path d="m0 792h612v-792h-612z"/>
  </clipPath>
 </defs>
 <link rel="stylesheet" type="text/css"/>
 <link rel="stylesheet" type="text/css"/>
 <style type="text/css"/>
 <g transform="translate(-3414.1 304.14)">
  <g transform="matrix(1.2 0 0 1.2 3396 551.25)">
   <g transform="matrix(.99999 0 0 .99999 716.31 -712.82)">
    <path d="m2329.6 0c12.9 0 23.3 10.94 23.3 24.276v451.45c0 13.336-10.5 24.276-23.3 24.276h-607.9c-12.9 0-23.3-10.94-23.3-24.276v-451.34c0-13.44 10.5-24.276 23.3-24.276h607.9" fill="#fff" stroke-width="1.0207"/>
    <g fill="#00396e">
     <g fill="#9b001f">
      <path d="m2034.6 153.8v184.7c0 8.1-4.1 12.6-16.7 12.6-5.7 0-11-0.8-15.1-1.6v-85h-105.4v74.1c0 8.1-4.1 12.6-16.7 12.6-6.1 0-12.2-0.8-15.1-1.6v-184.8c0-7.8 4.1-12.6 17.1-12.6 5.7 0 11.3 0.8 14.6 1.6v82.2h104.9v-71.2c0-7.8 4.5-12.6 17.5-12.6 6 0 11.6 0.8 14.9 1.6"/>
      <path d="m2250.8 251.4c0 55.4-38.7 97.3-99.3 97.3h-56.5c-12.2 0-16.7-4.9-16.7-12.6v-168.9c0-7.7 4.5-12.6 16.7-12.6h56.5c60.6 0 99.3 41.5 99.3 96.8m-32.2 0c0-41.5-26-68.4-67.1-68.4h-41.5v137.1h41.5c41.1 0.1 67.1-26.8 67.1-68.7"/>
     </g>
    </g>
   </g>
   <g transform="translate(1595.9 -230.81)">
    <path d="m-1357.6-182.22c0 43-28 74.2-85.2 80.4-41.2 4.4-101-0.8-129.4-4-1-4.6-1.8-10.4-1.8-15 0-37.4 20.2-46 39.2-46 19.8 0 51 3.4 74 3.4 25.6 0 33.2-8.6 33.2-16.8 0-10.8-10.2-15.2-30-19l-54.2-10.4c-45-8.6-69-39.6-69-72.6 0-40 28.4-73.6 84.4-79.8 42.2-4.6 93.8 0.6 122 4 1 4.8 1.6 9.4 1.6 14.4 0 37.4-19.8 45.4-38.8 45.4-14.6 0-37.2-2.6-63.2-2.6-26.4 0-37.2 7.2-37.2 16 0 9.4 10.4 13.2 26.8 16.2l51.6 9.6c53.2 9.6 76 39.8 76 76.8m92.6 46c0 23-9 36.2-54 36.2-6 0-11.2-0.4-16.2-1.2v-304.8c0-23.2 7.8-47.4 53.2-47.4 5.8 0 11.6 0.6 17 1.8zm183.8 118c6 3 18 6.8 33.2 7 26.2 0.6 40.4-9.4 51-32.8l140-311.6c-5.8-3-18.6-6.6-29-6.8-18-0.4-42.2 3.2-57.6 40l-45.6 106.6-89-144.6c-5.8-1.8-19.8-4.2-30-4.2-31.6 0-49 11.6-67.2 31.2l-86.4 94.4 69.6 109.4c12.8 20 29.8 30.2 57.2 30.2 18 0 33-4.2 40-7.4l-83.8-126 59.4-63 97.4 152.6z" fill="#ff0031"/>
    <path d="m845.76-482.02h-1594.8c-18.4 0-33.4 15-33.4 33.4v433.2c0 18.4 15 33.4 33.4 33.4h1594.6c18.4 0 33.4-15 33.4-33.4v-433.4c-0.2-18.4-14.8-33.2-33.2-33.2" fill="url(#linearGradient1545)"/>
    <path d="m-1335-406.02v209c0-8.4 6.4-17.2 17.2-17.6 7.6-0.2 28.8-1 35.2-1.2 7-0.2 17.6-5 17.8-17.8v-218c-5.4-1.2-11.2-1.8-17-1.8-45.4 0.2-53.2 24.2-53.2 47.4m160 72.8-86.4 94.4 7 10.8c3 4 8.8 10.8 20.4 10.4 4.2-0.2 45.8-1.6 49.2-1.8 10.8-0.4 17.6 4.2 21.8 9.8l-15.4-23.2 59.4-63 39.8 62.6c7.2 9.4 18 9.6 20.4 9.6 2 0 54.4-1.8 56.6-2 3.6-0.2 7.8 1.8 11 6.4l-86.6-140.8c-5.8-1.8-19.8-4.2-30-4.2-31.6-0.2-49 11.2-67.2 31m-321.4-29c-56 6.2-84.4 39.6-84.4 79.8 0 20.6 9.4 40.4 27.4 54.6 13.6 9 27.6 12.4 41.4 14.8 11.4 2 38 3.8 57.8 3 6.2-0.2 51.8-1.8 61.6-2.2 23.2-0.8 35.6 19 34.4 38.8v-1c0.2-2.6 0.4-5.2 0.4-7.8 0-37-22.8-67.2-75.8-77l-51.6-9.6c-16.6-2.8-26.8-6.8-26.8-16.2 0-8.8 11-16.2 37.2-16.2 26 0 48.6 2.6 63.2 2.6 19 0 38.8-8 38.8-45.4 0-5-0.6-9.6-1.6-14.4-20.2-2.4-52.6-5.8-84.8-5.8-12.6 0.2-25.2 0.8-37.2 2m552.6 39.8-44.2 104.2c0-0.2 2.8-8.2 11.4-8.6 0 0 43.6-1.6 46.8-1.6 14.2-0.6 19.8-10.2 21.4-13.4l51.2-114.2c-5.8-3-18.6-6.6-29-6.8h-2.2c-17.8 0.2-40.6 5-55.4 40.4" enable-background="new    " fill="url(#linearGradient1547)" opacity=".3"/>
    <path d="m-749.04-482.02c-18.4 0-33.4 15-33.4 33.4v240.6-0.2c0-3.6 1.4-23.4 24-25.6 0 0 1.2-0.2 3.2-0.2 98.6-3.4 1609.4-56.4 1609.4-56.4 12.6-0.4 24.8-9.8 24.8-25.4v-132.6c0-18.4-15-33.4-33.4-33.4z" enable-background="new    " fill="url(#linearGradient1549)" opacity=".3"/>
    <g transform="translate(-1595.9 -646.92)" fill="#fff">
     <path d="m907.7 417.6c0-70.2 51.5-122.2 119.7-122.2 31.9 0 61.4 8.8 82 18.6 3.4 22.1-3.5 30.9-13.3 30.9-17.2 0-31.9-14.2-67.2-14.2-44.2 0-80.5 32.9-80.5 86.9 0 53.5 36.3 86.9 80.5 86.9 35.3 0 50.1-14.7 65.8-14.7 10.3 0 17.6 9.3 14.7 31.4-20.6 10.3-50.1 19.1-82 19.1-68.2 0-119.7-53-119.7-122.7"/>
     <path d="m2116.2 380.8v141.9c0 9.8-5.4 15.2-21.6 15.2-6.9 0-14.7-1-18.6-2v-150.2c0-34.4-16.2-54.5-47.1-54.5-26 0-47.6 18.1-56.4 36.8v154.6c0 9.8-5.4 15.2-21.6 15.2-6.9 0-14.7-1-18.6-2v-150.1c0-34.4-16.2-54.5-47.1-54.5-26 0-47.6 18.1-56.4 36.8v154.6c0 9.8-5.4 15.2-21.6 15.2-6.8 0-14.7-1-18.6-2v-236c3.9-1 11.8-2 19.1-2 15.2 0 20.6 5.9 20.6 16.2v16.2c15.2-20.1 38.8-34.9 67.3-34.9 31.4 0 55.9 15.7 68.2 42.7 16.2-24.5 40.7-42.7 75.6-42.7 50.3 0.1 76.8 37.9 76.8 85.5"/>
     <path d="m1736.8 432.3h-182.6c5.4 45.7 36.8 71.2 83.4 71.2 20.1 0 35.8-4 50.6-8.8 10.3-3.5 14.7-4.9 18.6-4.9 11.3 0 18.6 9.3 16.7 30.9-21.1 9.3-53.5 19.6-87.4 19.6-73.6 0-123.2-49.5-123.2-123.2 0-70.7 52.6-121.7 116.8-121.7 72.7 0 108.5 56.4 108.5 113.4 0.1 6.9-0.4 15.2-1.4 23.5m-182.6-31.4h144.8c-1.5-40.2-27.5-71.7-69.2-71.7-36.3 0.1-69.2 25.1-75.6 71.7"/>
     <path d="m1465.2 395.5v127.1c0 9.3-5.4 15.2-21.6 15.2-6.8 0-14.7-1-18.6-2v-135c0-47.1-23.1-69.7-57.9-69.7-27 0-56.4 18.7-68.2 40.7v150.7c0 9.3-5.4 15.2-21.6 15.2-6.9 0-14.7-1-18.6-2v-235.9c3.9-1 11.8-2 18.6-2 16.2 0 21.6 5.9 21.6 15.2v20.1c17.2-21.1 43.2-37.8 78-37.8 48.1 0.1 88.3 30.5 88.3 100.2"/>
     <path d="m2367.1 384.7v151.2c-3.9 1-11.3 2-18.1 2-14.7 0-21.6-5.4-21.6-15.2v-20.7c-21.1 24.1-48.6 38.3-83.5 38.3-52.5 0-81.5-34.3-81.5-71.7 0-56.9 60.9-82 164.4-75.1v-8.3c0-38.8-11.8-55-56.4-55-18.6 0-43.7 5.4-56.9 8.8-7.9 2-13.8 3.9-18.6 3.9-11.3 0-18.7-9.8-14.8-30.4 24.1-8.8 58.9-17.2 92.3-17.2 69.2 0.1 94.7 31 94.7 89.4m-40.2 82.5v-44.7c-67.7-4.9-124.2 3.9-124.2 44.7 0 20.6 17.2 39.2 48.1 39.2 31.4 0 58.9-15.6 76.1-39.2"/>
     <path d="m1149.5 246.3c0-14.7 11.8-25.5 25.5-25.5 14.8 0 26 10.8 26 25.5 0 13.3-11.3 25.5-26 25.5-13.7 0-25.5-12.2-25.5-25.5m5.4 289.6v-222.8c0-9.3 5.4-15.2 21.6-15.2 6.9 0 14.2 1 18.1 2v222.8c0 9.8-4.9 15.2-21.1 15.2-6.8 0-14.6-1-18.6-2"/>
    </g>
   </g>
  </g>
  <text fill="#000000" font-family="sans-serif" font-size="40px" letter-spacing="0px" word-spacing="0px" style="line-height:1.25;shape-inside:url(#rect1421);white-space:pre" space="preserve"/>
  <g transform="matrix(9.2904 0 0 -9.2904 432.7 7595.2)">
   <g clip-path="url(#clipPath228)">
    <g transform="translate(587.8 742.95)">
     <path d="m0 0c-0.546 0-0.974 0.427-0.974 0.974 0 0.534 0.437 0.968 0.974 0.968 0.534 0 0.968-0.434 0.968-0.968 0-0.547-0.426-0.974-0.968-0.974m0 2.101c-0.625 0-1.134-0.506-1.134-1.127 0-0.625 0.509-1.133 1.134-1.133 0.621 0 1.126 0.508 1.126 1.133 0 0.621-0.505 1.127-1.126 1.127"/>
    </g>
    <g transform="translate(587.59 744.01)">
     <path d="m0 0v0.384h0.16c0.054 0 0.112-2e-3 0.157-0.024 0.07-0.031 0.096-0.107 0.096-0.167 0-0.062-0.025-0.116-0.068-0.15-0.046-0.04-0.105-0.043-0.176-0.043zm0.427-0.119c0.106 0.064 0.162 0.17 0.162 0.307 0 0.13-0.048 0.233-0.141 0.297-0.095 0.07-0.205 0.07-0.3 0.07h-0.328v-1.291h0.18v0.562h0.132l0.344-0.56 4e-3 -4e-3h0.193l-0.339 0.581c0.03 8e-3 0.061 0.021 0.093 0.038"/>
    </g>
    <g transform="translate(537.53 745.35)">
     <path d="m0 0c-0.232 0.343-0.208 0.411-0.609 0.457-0.891 0.045-1.008 0.158-1.008 0.822 0 0.596 0.262 1.713 0.285 2.146 0.023 0.551-0.046 0.754-0.046 1.142 0 0.389 0.259 0.823 0.305 1.738 0.047 0.913-0.171 1.571-0.171 1.571 0.19 0.027 0.424 0.161 0.495 0.322 0.092 0.229 0.399 1.464 0.399 1.965 0 0.207-0.024 0.387-0.07 0.525-0.211 0.506-0.839 0.417-1.12 0.743-0.088 0.099-0.146 0.094-0.15 0.456 0.145 0.204 0.19 0.505 0.19 0.941 0 0.363-0.283 0.644-0.66 0.644-0.376 0-0.659-0.281-0.659-0.644 0-0.436 0.045-0.737 0.192-0.941-7e-3 -0.362-0.063-0.357-0.15-0.456-0.281-0.326-0.908-0.237-1.123-0.743-0.047-0.138-0.068-0.318-0.068-0.525 0-0.501 0.306-1.736 0.398-1.965 0.072-0.161 0.304-0.295 0.495-0.322 0 0-0.219-0.658-0.171-1.571 0.047-0.915 0.305-1.349 0.305-1.738 0-0.388-0.07-0.591-0.047-1.142 0.023-0.433 0.289-1.55 0.289-2.146 0-0.664-0.12-0.777-1.012-0.822-0.399-0.046-0.376-0.114-0.609-0.457h-1.189l-0.978-2.298h8.656l-0.978 2.298z"/>
    </g>
    <g transform="translate(522.17 743.36)">
     <path d="m0 0-0.18-0.408h1.556l11.841 26.862 11.748-26.674 0.077-0.173h1.55l-13.375 30.383z"/>
    </g>
    <g transform="translate(487.39 757.8)">
     <path d="m0 0c-0.211 0.103-0.408 0.2-0.588 0.291l-0.465 0.231c-2.571 1.286-5.485 2.743-5.485 5.704 0 2.883 2.192 4.975 5.21 4.975 2.665 0 4.667-1.61 5.633-2.387l0.854-0.687-0.381 1.001c-0.277 0.728-0.572 1.521-0.572 1.521l-0.029 0.072-0.058 0.05c-1.464 1.229-3.41 1.934-5.339 1.934-3.975 0-6.861-2.725-6.861-6.479 0-4.024 3.955-5.914 6.079-6.928 0.264-0.126 0.491-0.236 0.676-0.333 0.191-0.098 0.396-0.203 0.615-0.313 2.316-1.175 5.816-2.951 5.816-6.259 0-3.421-2.985-6.101-6.794-6.101-3.819 0-5.747 2.381-6.864 4.173l-0.307 0.491-0.663-1.696 0.072-0.122c1.6-2.723 4.474-4.349 7.688-4.349 4.757 0 8.482 3.275 8.482 7.456 0 4.486-4.371 6.612-6.719 7.755"/>
    </g>
    <g transform="translate(519.1 768.15)">
     <path d="m0 0c-0.149 0.096-3.721 2.35-8.053 2.35-3.725 0-7.231-1.453-9.871-4.092-2.635-2.634-4.086-6.14-4.086-9.872 0-3.731 1.451-7.238 4.086-9.872 2.64-2.639 6.146-4.091 9.871-4.091h2e-3c3.341 0 5.919 0.984 7.158 1.57l0.105 0.05 0.751 1.952-0.648-0.296c-1.754-0.799-4.457-1.751-7.368-1.751-3.312 0-6.433 1.292-8.785 3.635l-0.209 0.222c-2.217 2.32-3.438 5.368-3.438 8.583 0 3.313 1.294 6.438 3.643 8.795 2.354 2.348 5.475 3.64 8.789 3.64 4.4 0 8.287-2.728 8.326-2.756l0.828-0.591-1.025 2.474z"/>
    </g>
    <g transform="translate(461.5 744.07)">
     <path d="m0 0c-6.772 0-12.494 5.706-12.494 12.459 0 6.752 5.722 12.457 12.494 12.457 6.773 0 12.494-5.705 12.494-12.457 0-6.753-5.721-12.459-12.494-12.459m0 26.42c-7.645 0-14.104-6.393-14.104-13.961s6.459-13.961 14.104-13.961c7.647 0 14.108 6.393 14.108 13.961s-6.461 13.961-14.108 13.961"/>
    </g>
    <g transform="translate(563.39 763.17)">
     <path d="m0 0c0-1.903-0.703-3.566-1.879-4.448-1.552-1.166-3.19-1.261-5.017-1.261h-3.121v11.356l2.886 2e-3c1.522 0 2.986-0.045 4.156-0.602 2.194-0.975 2.975-3.246 2.975-5.047m-1.264-5.857c1.753 1.181 2.801 3.343 2.801 5.784 0 2.563-0.951 4.588-2.748 5.856-1.892 1.372-4.1 1.372-6.234 1.372h-4.126v-27.359h1.554v12.975h3.221l0.172 1e-3 8.13-12.841 0.086-0.135h1.779l-8.28 13.078c1.443 0.175 2.636 0.591 3.645 1.269"/>
    </g>
    <g transform="translate(578.38 757.8)">
     <path d="m0 0c-0.211 0.103-0.409 0.2-0.587 0.291l-0.46 0.229c-2.574 1.283-5.492 2.739-5.492 5.706 0 2.883 2.192 4.975 5.211 4.975 2.666 0 4.669-1.611 5.633-2.386l0.853-0.688-0.381 1.002c-0.276 0.727-0.573 1.52-0.573 1.52l-0.017 0.048-0.068 0.074c-1.463 1.229-3.41 1.934-5.34 1.934-3.974 0-6.86-2.725-6.86-6.479 0-4.025 3.954-5.914 6.081-6.929 0.262-0.126 0.488-0.235 0.674-0.331 0.19-0.099 0.395-0.205 0.618-0.316 2.315-1.175 5.815-2.953 5.815-6.257 0-3.421-2.986-6.101-6.798-6.101-3.821 0-5.746 2.381-6.863 4.173l-0.308 0.49-0.661-1.695 0.071-0.122c1.602-2.723 4.475-4.349 7.687-4.349 4.756 0 8.482 3.275 8.482 7.457 0 4.484-4.367 6.61-6.717 7.754"/>
    </g>
   </g>
  </g>
 </g>
</svg>
