<svg width="3664.9" height="969.64" enable-background="new 0 0 2459.8 500" version="1.1" viewBox="0 0 3664.9 969.64" xml:space="preserve" xmlns="http://www.w3.org/2000/svg"><defs><linearGradient id="linearGradient1545" x1="-625.21" x2="-403.69" y1="653.82" y2="653.82" gradientTransform="matrix(7.5001 0 0 -7.5001 3906.6 4671.7)" gradientUnits="userSpaceOnUse"><stop stop-color="#FF0031" offset="0"/><stop stop-color="#9B001F" offset="1"/></linearGradient><linearGradient id="linearGradient1547" x1="-735.16" x2="-730.71" y1="1190.1" y2="1190.1" gradientTransform="matrix(-1.3157 -37.678 -37.678 1.3157 42656 -29484)" gradientUnits="userSpaceOnUse"><stop stop-color="#fff" offset="0"/><stop stop-color="#fff" stop-opacity=".4" offset=".5"/><stop stop-color="#fff" stop-opacity=".25" offset="1"/></linearGradient><linearGradient id="linearGradient1549" x1="-721.24" x2="-716.8" y1="1180.7" y2="1180.7" gradientTransform="matrix(-1.9565 -56.026 -56.026 1.9565 64789 -42973)" gradientUnits="userSpaceOnUse"><stop stop-color="#fff" offset="0"/><stop stop-color="#fff" stop-opacity=".4" offset=".5"/><stop stop-color="#fff" stop-opacity=".25" offset="1"/></linearGradient></defs><link rel="stylesheet" type="text/css"/><link rel="stylesheet" type="text/css"/><style type="text/css"/>

<g transform="translate(-3414.1 304.14)">
	
	
		
	
	
		
	
	
		
	
	
<g transform="matrix(1.2 0 0 1.2 3396 551.25)"><g transform="matrix(.99999 0 0 .99999 716.31 -712.82)"><path d="m2329.6 0c12.9 0 23.3 10.94 23.3 24.276v451.45c0 13.336-10.5 24.276-23.3 24.276h-607.9c-12.9 0-23.3-10.94-23.3-24.276v-451.34c0-13.44 10.5-24.276 23.3-24.276h607.9" fill="#fff" stroke-width="1.0207"/><g fill="#00396e"><g fill="#9b001f"><path d="m2034.6 153.8v184.7c0 8.1-4.1 12.6-16.7 12.6-5.7 0-11-0.8-15.1-1.6v-85h-105.4v74.1c0 8.1-4.1 12.6-16.7 12.6-6.1 0-12.2-0.8-15.1-1.6v-184.8c0-7.8 4.1-12.6 17.1-12.6 5.7 0 11.3 0.8 14.6 1.6v82.2h104.9v-71.2c0-7.8 4.5-12.6 17.5-12.6 6 0 11.6 0.8 14.9 1.6"/><path d="m2250.8 251.4c0 55.4-38.7 97.3-99.3 97.3h-56.5c-12.2 0-16.7-4.9-16.7-12.6v-168.9c0-7.7 4.5-12.6 16.7-12.6h56.5c60.6 0 99.3 41.5 99.3 96.8m-32.2 0c0-41.5-26-68.4-67.1-68.4h-41.5v137.1h41.5c41.1 0.1 67.1-26.8 67.1-68.7"/></g></g></g><g transform="translate(1595.9 -230.81)"><path d="m-1357.6-182.22c0 43-28 74.2-85.2 80.4-41.2 4.4-101-0.8-129.4-4-1-4.6-1.8-10.4-1.8-15 0-37.4 20.2-46 39.2-46 19.8 0 51 3.4 74 3.4 25.6 0 33.2-8.6 33.2-16.8 0-10.8-10.2-15.2-30-19l-54.2-10.4c-45-8.6-69-39.6-69-72.6 0-40 28.4-73.6 84.4-79.8 42.2-4.6 93.8 0.6 122 4 1 4.8 1.6 9.4 1.6 14.4 0 37.4-19.8 45.4-38.8 45.4-14.6 0-37.2-2.6-63.2-2.6-26.4 0-37.2 7.2-37.2 16 0 9.4 10.4 13.2 26.8 16.2l51.6 9.6c53.2 9.6 76 39.8 76 76.8m92.6 46c0 23-9 36.2-54 36.2-6 0-11.2-0.4-16.2-1.2v-304.8c0-23.2 7.8-47.4 53.2-47.4 5.8 0 11.6 0.6 17 1.8zm183.8 118c6 3 18 6.8 33.2 7 26.2 0.6 40.4-9.4 51-32.8l140-311.6c-5.8-3-18.6-6.6-29-6.8-18-0.4-42.2 3.2-57.6 40l-45.6 106.6-89-144.6c-5.8-1.8-19.8-4.2-30-4.2-31.6 0-49 11.6-67.2 31.2l-86.4 94.4 69.6 109.4c12.8 20 29.8 30.2 57.2 30.2 18 0 33-4.2 40-7.4l-83.8-126 59.4-63 97.4 152.6z" fill="#ff0031"/><path d="m845.76-482.02h-1594.8c-18.4 0-33.4 15-33.4 33.4v433.2c0 18.4 15 33.4 33.4 33.4h1594.6c18.4 0 33.4-15 33.4-33.4v-433.4c-0.2-18.4-14.8-33.2-33.2-33.2" fill="url(#linearGradient1545)"/><path d="m-1335-406.02v209c0-8.4 6.4-17.2 17.2-17.6 7.6-0.2 28.8-1 35.2-1.2 7-0.2 17.6-5 17.8-17.8v-218c-5.4-1.2-11.2-1.8-17-1.8-45.4 0.2-53.2 24.2-53.2 47.4m160 72.8-86.4 94.4 7 10.8c3 4 8.8 10.8 20.4 10.4 4.2-0.2 45.8-1.6 49.2-1.8 10.8-0.4 17.6 4.2 21.8 9.8l-15.4-23.2 59.4-63 39.8 62.6c7.2 9.4 18 9.6 20.4 9.6 2 0 54.4-1.8 56.6-2 3.6-0.2 7.8 1.8 11 6.4l-86.6-140.8c-5.8-1.8-19.8-4.2-30-4.2-31.6-0.2-49 11.2-67.2 31m-321.4-29c-56 6.2-84.4 39.6-84.4 79.8 0 20.6 9.4 40.4 27.4 54.6 13.6 9 27.6 12.4 41.4 14.8 11.4 2 38 3.8 57.8 3 6.2-0.2 51.8-1.8 61.6-2.2 23.2-0.8 35.6 19 34.4 38.8v-1c0.2-2.6 0.4-5.2 0.4-7.8 0-37-22.8-67.2-75.8-77l-51.6-9.6c-16.6-2.8-26.8-6.8-26.8-16.2 0-8.8 11-16.2 37.2-16.2 26 0 48.6 2.6 63.2 2.6 19 0 38.8-8 38.8-45.4 0-5-0.6-9.6-1.6-14.4-20.2-2.4-52.6-5.8-84.8-5.8-12.6 0.2-25.2 0.8-37.2 2m552.6 39.8-44.2 104.2c0-0.2 2.8-8.2 11.4-8.6 0 0 43.6-1.6 46.8-1.6 14.2-0.6 19.8-10.2 21.4-13.4l51.2-114.2c-5.8-3-18.6-6.6-29-6.8h-2.2c-17.8 0.2-40.6 5-55.4 40.4" enable-background="new    " fill="url(#linearGradient1547)" opacity=".3"/><path d="m-749.04-482.02c-18.4 0-33.4 15-33.4 33.4v240.6-0.2c0-3.6 1.4-23.4 24-25.6 0 0 1.2-0.2 3.2-0.2 98.6-3.4 1609.4-56.4 1609.4-56.4 12.6-0.4 24.8-9.8 24.8-25.4v-132.6c0-18.4-15-33.4-33.4-33.4z" enable-background="new    " fill="url(#linearGradient1549)" opacity=".3"/><g transform="translate(-1595.9 -646.92)" fill="#fff"><path d="m907.7 417.6c0-70.2 51.5-122.2 119.7-122.2 31.9 0 61.4 8.8 82 18.6 3.4 22.1-3.5 30.9-13.3 30.9-17.2 0-31.9-14.2-67.2-14.2-44.2 0-80.5 32.9-80.5 86.9 0 53.5 36.3 86.9 80.5 86.9 35.3 0 50.1-14.7 65.8-14.7 10.3 0 17.6 9.3 14.7 31.4-20.6 10.3-50.1 19.1-82 19.1-68.2 0-119.7-53-119.7-122.7"/><path d="m2116.2 380.8v141.9c0 9.8-5.4 15.2-21.6 15.2-6.9 0-14.7-1-18.6-2v-150.2c0-34.4-16.2-54.5-47.1-54.5-26 0-47.6 18.1-56.4 36.8v154.6c0 9.8-5.4 15.2-21.6 15.2-6.9 0-14.7-1-18.6-2v-150.1c0-34.4-16.2-54.5-47.1-54.5-26 0-47.6 18.1-56.4 36.8v154.6c0 9.8-5.4 15.2-21.6 15.2-6.8 0-14.7-1-18.6-2v-236c3.9-1 11.8-2 19.1-2 15.2 0 20.6 5.9 20.6 16.2v16.2c15.2-20.1 38.8-34.9 67.3-34.9 31.4 0 55.9 15.7 68.2 42.7 16.2-24.5 40.7-42.7 75.6-42.7 50.3 0.1 76.8 37.9 76.8 85.5"/><path d="m1736.8 432.3h-182.6c5.4 45.7 36.8 71.2 83.4 71.2 20.1 0 35.8-4 50.6-8.8 10.3-3.5 14.7-4.9 18.6-4.9 11.3 0 18.6 9.3 16.7 30.9-21.1 9.3-53.5 19.6-87.4 19.6-73.6 0-123.2-49.5-123.2-123.2 0-70.7 52.6-121.7 116.8-121.7 72.7 0 108.5 56.4 108.5 113.4 0.1 6.9-0.4 15.2-1.4 23.5m-182.6-31.4h144.8c-1.5-40.2-27.5-71.7-69.2-71.7-36.3 0.1-69.2 25.1-75.6 71.7"/><path d="m1465.2 395.5v127.1c0 9.3-5.4 15.2-21.6 15.2-6.8 0-14.7-1-18.6-2v-135c0-47.1-23.1-69.7-57.9-69.7-27 0-56.4 18.7-68.2 40.7v150.7c0 9.3-5.4 15.2-21.6 15.2-6.9 0-14.7-1-18.6-2v-235.9c3.9-1 11.8-2 18.6-2 16.2 0 21.6 5.9 21.6 15.2v20.1c17.2-21.1 43.2-37.8 78-37.8 48.1 0.1 88.3 30.5 88.3 100.2"/><path d="m2367.1 384.7v151.2c-3.9 1-11.3 2-18.1 2-14.7 0-21.6-5.4-21.6-15.2v-20.7c-21.1 24.1-48.6 38.3-83.5 38.3-52.5 0-81.5-34.3-81.5-71.7 0-56.9 60.9-82 164.4-75.1v-8.3c0-38.8-11.8-55-56.4-55-18.6 0-43.7 5.4-56.9 8.8-7.9 2-13.8 3.9-18.6 3.9-11.3 0-18.7-9.8-14.8-30.4 24.1-8.8 58.9-17.2 92.3-17.2 69.2 0.1 94.7 31 94.7 89.4m-40.2 82.5v-44.7c-67.7-4.9-124.2 3.9-124.2 44.7 0 20.6 17.2 39.2 48.1 39.2 31.4 0 58.9-15.6 76.1-39.2"/><path d="m1149.5 246.3c0-14.7 11.8-25.5 25.5-25.5 14.8 0 26 10.8 26 25.5 0 13.3-11.3 25.5-26 25.5-13.7 0-25.5-12.2-25.5-25.5m5.4 289.6v-222.8c0-9.3 5.4-15.2 21.6-15.2 6.9 0 14.2 1 18.1 2v222.8c0 9.8-4.9 15.2-21.1 15.2-6.8 0-14.6-1-18.6-2"/></g></g></g><g transform="translate(-91224)" font-family="'Sky Text'" font-size="40px" letter-spacing=".12103px" stroke-width="8.2627" word-spacing="0px"><path d="m96168 663.19q-12.228 0-15.864-4.6271-3.305-4.9576-3.305-12.559v-180.46q0-7.6017 3.305-12.229 3.636-4.9576 15.864-4.9576h54.534q20.492 0 35.034 4.2966 14.873 3.9661 24.127 11.568 9.585 7.2712 13.882 17.517 4.296 10.246 4.296 22.475 0 16.856-9.584 29.415-9.585 12.559-26.441 18.178 22.144 5.2881 32.72 19.169 10.907 13.881 10.907 30.737 0 30.076-20.492 45.941-20.491 15.534-63.127 15.534zm16.856-32.72h35.034q25.78 0 37.678-6.9407 11.899-7.2712 11.899-24.127 0-5.9492-1.984-11.237-1.983-5.6186-7.271-9.5848-4.957-4.2966-14.212-6.9407-9.254-2.6441-24.127-2.6441h-37.017zm0-92.542h36.356q11.899 0 19.831-2.3136 8.263-2.3136 12.89-6.2797 4.957-3.9661 6.94-9.2542 2.314-5.6186 2.314-11.898 0-27.102-41.314-27.102h-37.017z" style="white-space:pre"/><path d="m96357 665.17q-4.958 0-10.246-0.66101-4.958-0.33051-7.602-0.99153v-158.64q3.636-0.99152 7.271-1.6525 3.966-0.99153 8.593-0.99153 10.246 0 14.543 5.6186 4.627 5.2881 4.627 14.542v11.568h0.661q6.61-16.195 17.847-24.127 11.238-8.2627 26.111-8.2627 4.957 0 8.923 0.66101 4.297 0.33051 7.933 0.99153 1.983 6.9407 1.983 12.559 0 18.508-18.509 18.508h-5.949q-17.186 0-27.763 8.9237-10.245 8.9237-10.245 27.763v78.992q0 6.6102-3.967 10.907-3.635 4.2966-14.211 4.2966z" style="white-space:pre"/><path d="m96476 665.17q-4.958 0-9.915-0.66101-4.958-0.33051-7.602-0.99153v-146.08q0-6.6102 3.966-10.907 3.966-4.2966 14.212-4.2966 5.288 0 10.246 0.66102 4.958 0.33051 7.602 0.99153v146.08q0 6.6102-3.967 10.907-3.966 4.2966-14.542 4.2966zm0.661-191.69q-8.263 0-14.212-5.9492t-5.949-14.212q0-8.5932 5.949-14.542 5.949-5.9492 14.212-5.9492 8.593 0 14.542 5.9492 5.95 5.9492 5.95 14.542 0 8.2627-5.95 14.212-5.949 5.9492-14.542 5.9492z" style="white-space:pre"/><path d="m96597 665.5q-12.889 0-23.135-3.9661-9.915-4.2966-16.856-11.568-6.941-7.6017-10.576-17.517-3.636-10.246-3.636-22.475v-78.331h-25.119q-0.661-2.3136-0.991-5.9492-0.331-3.6356-0.331-7.2712 0-8.2627 3.305-11.568 3.636-3.3051 8.924-3.3051h14.212v-22.805q0-3.9661 0.661-7.6017 0.992-3.6356 2.975-6.6102 2.313-2.9746 6.279-4.6271 4.297-1.6525 11.238-1.6525 7.932 0 14.211 2.3136v40.983h54.204q1.652 4.9576 1.652 13.22t-3.635 11.568q-3.305 3.3051-8.593 3.3051h-43.628v77.008q0 12.559 5.95 19.5 5.949 6.9407 17.517 6.9407 4.957 0 8.923-0.99152 3.966-0.99153 6.941-2.3136 3.305-1.322 5.949-2.3136 2.975-0.99153 5.619-0.99153 6.279 0 9.915 4.2966t3.636 13.551q0 1.6525 0 3.6356 0 1.6526-0.331 3.3051-9.585 5.6186-20.491 8.9237-10.577 3.3051-24.789 3.3051z" style="white-space:pre"/><path d="m96725 665.5q-15.864 0-33.051-2.9746-16.856-3.3051-32.72-8.9237-0.33-1.6526-0.661-3.3051 0-1.983 0-3.6356 0-8.5932 3.636-13.881 3.635-5.2881 10.245-5.2881 3.967 0 9.255 1.322 5.618 1.322 11.898 3.3051 6.61 1.6525 14.542 2.9746 7.933 1.322 16.856 1.322 9.916 0 15.865-1.322 6.279-1.6525 9.584-3.9661 3.306-2.6441 4.297-5.6186 1.322-3.3051 1.322-6.9407 0-7.2712-5.619-10.907-5.618-3.9661-19.83-7.9322l-23.466-6.6102q-26.771-7.6017-37.348-18.508-10.576-11.237-10.576-27.763 0-8.9237 3.636-17.186 3.635-8.2627 11.237-14.542 7.932-6.2797 20.161-9.9153 12.229-3.9661 29.746-3.9661 28.754 0 60.483 10.576 0 1.6525 0 2.9746 0.33 0.99152 0.33 2.3136 0 9.5847-3.635 15.203-3.305 5.2881-10.577 5.2881-7.271 0-18.508-3.3051-10.907-3.6356-28.093-3.6356-15.865 0-22.475 3.9661-6.279 3.9661-6.279 10.907 0 2.9746 0.661 5.2881 0.991 2.3136 3.305 4.2966 2.644 1.983 6.94 3.9661 4.627 1.6525 12.229 3.6356l24.788 6.9407q27.102 7.6017 38.009 18.839 11.237 11.237 11.237 28.424 0 8.9237-3.305 17.847-2.975 8.5932-10.576 15.534-7.602 6.6102-20.822 10.907-12.89 4.2966-32.721 4.2966z" style="white-space:pre"/></g><text fill="#000000" font-family="sans-serif" font-size="40px" letter-spacing="0px" word-spacing="0px" style="line-height:1.25;shape-inside:url(#rect1421);white-space:pre" xml:space="preserve"/></g>
</svg>
