<svg width="3664.9" height="970.79" enable-background="new 0 0 2459.8 500" space="preserve" version="1.1" viewBox="0 0 3664.9 970.79" xmlns="http://www.w3.org/2000/svg">
 <defs>
  <linearGradient id="linearGradient1545" x1="-625.21" x2="-403.69" y1="653.82" y2="653.82" gradientTransform="matrix(7.5001 0 0 -7.5001 3906.6 4671.7)" gradientUnits="userSpaceOnUse">
   <stop stop-color="#FF0031" offset="0"/>
   <stop stop-color="#9B001F" offset="1"/>
  </linearGradient>
  <linearGradient id="linearGradient1547" x1="-735.16" x2="-730.71" y1="1190.1" y2="1190.1" gradientTransform="matrix(-1.3157 -37.678 -37.678 1.3157 42656 -29484)" gradientUnits="userSpaceOnUse">
   <stop stop-color="#fff" offset="0"/>
   <stop stop-color="#fff" stop-opacity=".4" offset=".5"/>
   <stop stop-color="#fff" stop-opacity=".25" offset="1"/>
  </linearGradient>
  <linearGradient id="linearGradient1549" x1="-721.24" x2="-716.8" y1="1180.7" y2="1180.7" gradientTransform="matrix(-1.9565 -56.026 -56.026 1.9565 64789 -42973)" gradientUnits="userSpaceOnUse">
   <stop stop-color="#fff" offset="0"/>
   <stop stop-color="#fff" stop-opacity=".4" offset=".5"/>
   <stop stop-color="#fff" stop-opacity=".25" offset="1"/>
  </linearGradient>
 </defs>
 <link rel="stylesheet" type="text/css"/>
 <link rel="stylesheet" type="text/css"/>
 <style type="text/css"/>
 <g transform="translate(-3414.1 304.14)">
  <g transform="matrix(1.2 0 0 1.2 3396 551.25)">
   <g transform="matrix(.99999 0 0 .99999 716.31 -712.82)">
    <path d="m2329.6 0c12.9 0 23.3 10.94 23.3 24.276v451.45c0 13.336-10.5 24.276-23.3 24.276h-607.9c-12.9 0-23.3-10.94-23.3-24.276v-451.34c0-13.44 10.5-24.276 23.3-24.276h607.9" fill="#fff" stroke-width="1.0207"/>
    <g fill="#00396e">
     <g fill="#9b001f">
      <path d="m2034.6 153.8v184.7c0 8.1-4.1 12.6-16.7 12.6-5.7 0-11-0.8-15.1-1.6v-85h-105.4v74.1c0 8.1-4.1 12.6-16.7 12.6-6.1 0-12.2-0.8-15.1-1.6v-184.8c0-7.8 4.1-12.6 17.1-12.6 5.7 0 11.3 0.8 14.6 1.6v82.2h104.9v-71.2c0-7.8 4.5-12.6 17.5-12.6 6 0 11.6 0.8 14.9 1.6"/>
      <path d="m2250.8 251.4c0 55.4-38.7 97.3-99.3 97.3h-56.5c-12.2 0-16.7-4.9-16.7-12.6v-168.9c0-7.7 4.5-12.6 16.7-12.6h56.5c60.6 0 99.3 41.5 99.3 96.8m-32.2 0c0-41.5-26-68.4-67.1-68.4h-41.5v137.1h41.5c41.1 0.1 67.1-26.8 67.1-68.7"/>
     </g>
    </g>
   </g>
   <g transform="translate(1595.9 -230.81)">
    <path d="m-1357.6-182.22c0 43-28 74.2-85.2 80.4-41.2 4.4-101-0.8-129.4-4-1-4.6-1.8-10.4-1.8-15 0-37.4 20.2-46 39.2-46 19.8 0 51 3.4 74 3.4 25.6 0 33.2-8.6 33.2-16.8 0-10.8-10.2-15.2-30-19l-54.2-10.4c-45-8.6-69-39.6-69-72.6 0-40 28.4-73.6 84.4-79.8 42.2-4.6 93.8 0.6 122 4 1 4.8 1.6 9.4 1.6 14.4 0 37.4-19.8 45.4-38.8 45.4-14.6 0-37.2-2.6-63.2-2.6-26.4 0-37.2 7.2-37.2 16 0 9.4 10.4 13.2 26.8 16.2l51.6 9.6c53.2 9.6 76 39.8 76 76.8m92.6 46c0 23-9 36.2-54 36.2-6 0-11.2-0.4-16.2-1.2v-304.8c0-23.2 7.8-47.4 53.2-47.4 5.8 0 11.6 0.6 17 1.8zm183.8 118c6 3 18 6.8 33.2 7 26.2 0.6 40.4-9.4 51-32.8l140-311.6c-5.8-3-18.6-6.6-29-6.8-18-0.4-42.2 3.2-57.6 40l-45.6 106.6-89-144.6c-5.8-1.8-19.8-4.2-30-4.2-31.6 0-49 11.6-67.2 31.2l-86.4 94.4 69.6 109.4c12.8 20 29.8 30.2 57.2 30.2 18 0 33-4.2 40-7.4l-83.8-126 59.4-63 97.4 152.6z" fill="#ff0031"/>
    <path d="m845.76-482.02h-1594.8c-18.4 0-33.4 15-33.4 33.4v433.2c0 18.4 15 33.4 33.4 33.4h1594.6c18.4 0 33.4-15 33.4-33.4v-433.4c-0.2-18.4-14.8-33.2-33.2-33.2" fill="url(#linearGradient1545)"/>
    <path d="m-1335-406.02v209c0-8.4 6.4-17.2 17.2-17.6 7.6-0.2 28.8-1 35.2-1.2 7-0.2 17.6-5 17.8-17.8v-218c-5.4-1.2-11.2-1.8-17-1.8-45.4 0.2-53.2 24.2-53.2 47.4m160 72.8-86.4 94.4 7 10.8c3 4 8.8 10.8 20.4 10.4 4.2-0.2 45.8-1.6 49.2-1.8 10.8-0.4 17.6 4.2 21.8 9.8l-15.4-23.2 59.4-63 39.8 62.6c7.2 9.4 18 9.6 20.4 9.6 2 0 54.4-1.8 56.6-2 3.6-0.2 7.8 1.8 11 6.4l-86.6-140.8c-5.8-1.8-19.8-4.2-30-4.2-31.6-0.2-49 11.2-67.2 31m-321.4-29c-56 6.2-84.4 39.6-84.4 79.8 0 20.6 9.4 40.4 27.4 54.6 13.6 9 27.6 12.4 41.4 14.8 11.4 2 38 3.8 57.8 3 6.2-0.2 51.8-1.8 61.6-2.2 23.2-0.8 35.6 19 34.4 38.8v-1c0.2-2.6 0.4-5.2 0.4-7.8 0-37-22.8-67.2-75.8-77l-51.6-9.6c-16.6-2.8-26.8-6.8-26.8-16.2 0-8.8 11-16.2 37.2-16.2 26 0 48.6 2.6 63.2 2.6 19 0 38.8-8 38.8-45.4 0-5-0.6-9.6-1.6-14.4-20.2-2.4-52.6-5.8-84.8-5.8-12.6 0.2-25.2 0.8-37.2 2m552.6 39.8-44.2 104.2c0-0.2 2.8-8.2 11.4-8.6 0 0 43.6-1.6 46.8-1.6 14.2-0.6 19.8-10.2 21.4-13.4l51.2-114.2c-5.8-3-18.6-6.6-29-6.8h-2.2c-17.8 0.2-40.6 5-55.4 40.4" enable-background="new    " fill="url(#linearGradient1547)" opacity=".3"/>
    <path d="m-749.04-482.02c-18.4 0-33.4 15-33.4 33.4v240.6-0.2c0-3.6 1.4-23.4 24-25.6 0 0 1.2-0.2 3.2-0.2 98.6-3.4 1609.4-56.4 1609.4-56.4 12.6-0.4 24.8-9.8 24.8-25.4v-132.6c0-18.4-15-33.4-33.4-33.4z" enable-background="new    " fill="url(#linearGradient1549)" opacity=".3"/>
    <g transform="translate(-1595.9 -646.92)" fill="#fff">
     <path d="m907.7 417.6c0-70.2 51.5-122.2 119.7-122.2 31.9 0 61.4 8.8 82 18.6 3.4 22.1-3.5 30.9-13.3 30.9-17.2 0-31.9-14.2-67.2-14.2-44.2 0-80.5 32.9-80.5 86.9 0 53.5 36.3 86.9 80.5 86.9 35.3 0 50.1-14.7 65.8-14.7 10.3 0 17.6 9.3 14.7 31.4-20.6 10.3-50.1 19.1-82 19.1-68.2 0-119.7-53-119.7-122.7"/>
     <path d="m2116.2 380.8v141.9c0 9.8-5.4 15.2-21.6 15.2-6.9 0-14.7-1-18.6-2v-150.2c0-34.4-16.2-54.5-47.1-54.5-26 0-47.6 18.1-56.4 36.8v154.6c0 9.8-5.4 15.2-21.6 15.2-6.9 0-14.7-1-18.6-2v-150.1c0-34.4-16.2-54.5-47.1-54.5-26 0-47.6 18.1-56.4 36.8v154.6c0 9.8-5.4 15.2-21.6 15.2-6.8 0-14.7-1-18.6-2v-236c3.9-1 11.8-2 19.1-2 15.2 0 20.6 5.9 20.6 16.2v16.2c15.2-20.1 38.8-34.9 67.3-34.9 31.4 0 55.9 15.7 68.2 42.7 16.2-24.5 40.7-42.7 75.6-42.7 50.3 0.1 76.8 37.9 76.8 85.5"/>
     <path d="m1736.8 432.3h-182.6c5.4 45.7 36.8 71.2 83.4 71.2 20.1 0 35.8-4 50.6-8.8 10.3-3.5 14.7-4.9 18.6-4.9 11.3 0 18.6 9.3 16.7 30.9-21.1 9.3-53.5 19.6-87.4 19.6-73.6 0-123.2-49.5-123.2-123.2 0-70.7 52.6-121.7 116.8-121.7 72.7 0 108.5 56.4 108.5 113.4 0.1 6.9-0.4 15.2-1.4 23.5m-182.6-31.4h144.8c-1.5-40.2-27.5-71.7-69.2-71.7-36.3 0.1-69.2 25.1-75.6 71.7"/>
     <path d="m1465.2 395.5v127.1c0 9.3-5.4 15.2-21.6 15.2-6.8 0-14.7-1-18.6-2v-135c0-47.1-23.1-69.7-57.9-69.7-27 0-56.4 18.7-68.2 40.7v150.7c0 9.3-5.4 15.2-21.6 15.2-6.9 0-14.7-1-18.6-2v-235.9c3.9-1 11.8-2 18.6-2 16.2 0 21.6 5.9 21.6 15.2v20.1c17.2-21.1 43.2-37.8 78-37.8 48.1 0.1 88.3 30.5 88.3 100.2"/>
     <path d="m2367.1 384.7v151.2c-3.9 1-11.3 2-18.1 2-14.7 0-21.6-5.4-21.6-15.2v-20.7c-21.1 24.1-48.6 38.3-83.5 38.3-52.5 0-81.5-34.3-81.5-71.7 0-56.9 60.9-82 164.4-75.1v-8.3c0-38.8-11.8-55-56.4-55-18.6 0-43.7 5.4-56.9 8.8-7.9 2-13.8 3.9-18.6 3.9-11.3 0-18.7-9.8-14.8-30.4 24.1-8.8 58.9-17.2 92.3-17.2 69.2 0.1 94.7 31 94.7 89.4m-40.2 82.5v-44.7c-67.7-4.9-124.2 3.9-124.2 44.7 0 20.6 17.2 39.2 48.1 39.2 31.4 0 58.9-15.6 76.1-39.2"/>
     <path d="m1149.5 246.3c0-14.7 11.8-25.5 25.5-25.5 14.8 0 26 10.8 26 25.5 0 13.3-11.3 25.5-26 25.5-13.7 0-25.5-12.2-25.5-25.5m5.4 289.6v-222.8c0-9.3 5.4-15.2 21.6-15.2 6.9 0 14.2 1 18.1 2v222.8c0 9.8-4.9 15.2-21.1 15.2-6.8 0-14.6-1-18.6-2"/>
    </g>
   </g>
  </g>
  <g transform="translate(-63998)" fill="#fff" font-family="'Sky Text'" font-size="40px" letter-spacing=".12103px" stroke-width="8.2627" word-spacing="0px">
   <path d="m68725 664q-12.229 0-15.864-4.6271-3.305-4.9576-3.305-12.559v-180.46q0-7.6017 3.305-12.229 3.635-4.9576 15.864-4.9576h54.534q20.492 0 35.034 4.2966 14.873 3.9661 24.127 11.568 9.585 7.2712 13.881 17.517 4.297 10.246 4.297 22.475 0 16.856-9.585 29.415-9.584 12.559-26.44 18.178 22.144 5.2881 32.72 19.169 10.907 13.881 10.907 30.737 0 30.076-20.492 45.941-20.491 15.534-63.127 15.534zm16.856-32.72h35.034q25.78 0 37.678-6.9407 11.898-7.2712 11.898-24.127 0-5.9492-1.983-11.237-1.983-5.6186-7.271-9.5847-4.958-4.2966-14.212-6.9407t-24.127-2.6441h-37.017zm0-92.542h36.356q11.898 0 19.831-2.3136 8.262-2.3136 12.889-6.2797 4.958-3.9661 6.941-9.2542 2.314-5.6186 2.314-11.898 0-27.102-41.314-27.102h-37.017z" style="white-space:pre"/>
   <path d="m68940 666.65q-12.89 0-23.136-3.6353-9.915-3.9661-16.856-10.576-6.61-6.6102-10.245-15.203-3.305-8.9237-3.305-18.839 0-11.898 3.966-21.814 4.296-9.9153 12.89-16.856 8.593-7.2712 21.483-11.237 13.22-3.9661 31.398-3.9661 17.186 0 39 3.9661v-8.2627q0-16.195-7.271-22.805-7.271-6.9407-26.11-6.9407-9.585 0-16.856 1.322-7.272 0.99152-13.221 2.6441-5.618 1.322-10.245 2.6441-4.297 0.99153-8.263 0.99153-6.941 0-10.246-5.9492t-3.305-14.542q0-1.6525 0-2.9746 0-1.6526 0.33-3.3051 10.907-3.6356 27.102-6.6102 16.195-3.3051 36.026-3.3051 19.169 0 31.728 4.2966 12.89 4.2966 20.492 12.89 7.932 8.2627 10.907 20.492 3.305 11.898 3.305 27.763v34.703q0 9.9153 0 17.847 0.33 7.9322 0.991 14.873 0.992 6.9407 2.314 13.881 1.322 6.6102 3.635 14.542-2.974 1.322-7.601 2.3136-4.297 0.9912-10.246 0.9912-6.61 0-10.907-2.3132-3.966-2.6441-6.279-6.6102-2.314-4.2966-3.306-9.9153-0.661-5.6186-0.991-11.898h-0.331q-3.966 6.2797-9.254 12.229-4.957 5.6186-11.898 9.9153t-15.864 6.6102q-8.594 2.6437-19.831 2.6437zm9.585-29.084q15.864 0 27.432-9.2542 11.898-9.2542 18.508-23.136v-13.881q-16.856-2.9746-30.076-2.9746-21.813 0-32.72 7.2712-10.576 6.9407-10.576 20.161 0 10.576 7.601 16.195 7.602 5.6186 19.831 5.6186z" style="white-space:pre"/>
   <path d="m69131 666.31q-12.89 0-23.136-3.9658-9.915-4.2966-16.856-11.568-6.941-7.6017-10.576-17.517-3.636-10.246-3.636-22.475v-78.331h-25.118q-0.661-2.3136-0.992-5.9492-0.33-3.6356-0.33-7.2712 0-8.2627 3.305-11.568 3.635-3.3051 8.923-3.3051h14.212v-22.805q0-3.9661 0.661-7.6017 0.992-3.6356 2.975-6.6102 2.313-2.9746 6.279-4.6271 4.297-1.6525 11.238-1.6525 7.932 0 14.212 2.3136v40.983h54.203q1.653 4.9576 1.653 13.22t-3.636 11.568q-3.305 3.3051-8.593 3.3051h-43.627v77.008q0 12.559 5.949 19.5t17.517 6.9407q4.957 0 8.923-0.99153 3.967-0.99152 6.941-2.3136 3.305-1.322 5.949-2.3136 2.975-0.99152 5.619-0.99152 6.28 0 9.915 4.2966 3.636 4.2966 3.636 13.551 0 1.6526 0 3.6356 0 1.6525-0.331 3.3051-9.584 5.6186-20.491 8.9237-10.577 3.3048-24.788 3.3048z" style="white-space:pre"/>
   <path d="m69220 665.98q-4.957 0-10.246-0.66102-4.957-0.33051-7.601-0.99153v-158.64q3.635-0.99153 7.271-1.6526 3.966-0.99152 8.593-0.99152 10.246 0 14.543 5.6186 4.627 5.2881 4.627 14.542l0.33 3.9661q6.941-10.907 18.839-18.178 11.898-7.6017 25.78-7.6017 16.195 0 28.754 8.2627 12.89 7.9322 18.508 23.797 9.585-15.864 21.814-23.797 12.559-8.2627 28.424-8.2627 26.11 0 38.669 16.195 12.89 16.195 12.89 44.288v88.907q0 6.6102-3.966 10.907-3.636 4.2966-14.212 4.2966-4.957 0-10.246-0.66102-4.957-0.33051-7.601-0.99153v-98.822q0-16.856-7.602-24.788-7.602-8.2627-20.161-8.2627-11.898 0-20.161 6.2797-8.263 5.9492-12.559 14.542v97.5q0 6.6102-3.966 10.907-3.636 4.2961-14.212 4.2961-4.958 0-10.246-0.66102-4.958-0.3305-7.602-0.99152v-98.822q0-16.195-7.601-24.458-7.272-8.5932-21.153-8.5932-10.576 0-19.17 6.2797-8.262 5.9492-12.559 14.212v97.831q0 6.6102-3.966 10.907-3.636 4.2964-14.212 4.2964z" style="white-space:pre"/>
   <path d="m69511 666.65q-12.89 0-23.136-3.6353-9.915-3.9661-16.856-10.576-6.61-6.6102-10.245-15.203-3.305-8.9237-3.305-18.839 0-11.898 3.966-21.814 4.296-9.9153 12.889-16.856 8.594-7.2712 21.484-11.237 13.22-3.9661 31.398-3.9661 17.186 0 39 3.9661v-8.2627q0-16.195-7.271-22.805-7.272-6.9407-26.111-6.9407-9.584 0-16.855 1.322-7.272 0.99152-13.221 2.6441-5.618 1.322-10.246 2.6441-4.296 0.99153-8.262 0.99153-6.941 0-10.246-5.9492t-3.305-14.542q0-1.6525 0-2.9746 0-1.6526 0.33-3.3051 10.907-3.6356 27.102-6.6102 16.195-3.3051 36.026-3.3051 19.169 0 31.728 4.2966 12.89 4.2966 20.492 12.89 7.932 8.2627 10.907 20.492 3.305 11.898 3.305 27.763v34.703q0 9.9153 0 17.847 0.33 7.9322 0.991 14.873 0.992 6.9407 2.314 13.881 1.322 6.6102 3.635 14.542-2.974 1.322-7.601 2.3136-4.297 0.9912-10.246 0.9912-6.61 0-10.907-2.3132-3.966-2.6441-6.28-6.6102-2.313-4.2966-3.305-9.9153-0.661-5.6186-0.991-11.898h-0.331q-3.966 6.2797-9.254 12.229-4.957 5.6186-11.898 9.9153t-15.865 6.6102q-8.593 2.6437-19.83 2.6437zm9.585-29.084q15.864 0 27.432-9.2542 11.898-9.2542 18.508-23.136v-13.881q-16.856-2.9746-30.076-2.9746-21.813 0-32.72 7.2712-10.577 6.9407-10.577 20.161 0 10.576 7.602 16.195 7.602 5.6186 19.831 5.6186z" style="white-space:pre"/>
   <path d="m69656 665.98q-4.958 0-10.246-0.66102-4.958-0.33051-7.602-0.99153v-158.64q3.636-0.99153 7.272-1.6526 3.966-0.99152 8.593-0.99152 10.246 0 14.542 5.6186 4.627 5.2881 4.627 14.542l0.331 4.6271q8.263-11.568 21.483-18.839 13.551-7.6017 30.407-7.6017 26.771 0 42.305 17.517t15.534 50.237v81.636q0 6.6102-3.966 10.907-3.636 4.2966-14.212 4.2966-4.958 0-10.246-0.66102-4.958-0.33051-7.602-0.99153v-91.22q0-21.153-9.254-31.068-9.254-9.9153-26.11-9.9153-10.576 0-21.483 5.9492-10.577 5.9492-16.195 15.864v96.839q0 6.6102-3.966 10.907-3.636 4.2961-14.212 4.2961z" style="white-space:pre"/>
  </g>
  <text fill="#000000" font-family="sans-serif" font-size="40px" letter-spacing="0px" word-spacing="0px" style="line-height:1.25;shape-inside:url(#rect1421);white-space:pre" space="preserve"/>
 </g>
</svg>
