<svg width="2317.8pt" height="645pt" version="1.1" viewBox="0 0 2317.8 645" xmlns="http://www.w3.org/2000/svg">
 <defs>
  <linearGradient id="a" x1="-8600.5" x2="-8600.5" y1="-4687.6" y2="-4591.4" gradientTransform="matrix(-2.9812,0,0,-2.9812,-24493,-13655)" gradientUnits="userSpaceOnUse">
   <stop stop-color="#a80000" offset="0"/>
   <stop stop-color="#a1000c" offset=".38129"/>
   <stop stop-color="#b90019" offset="1"/>
  </linearGradient>
 </defs>
 <g transform="translate(0 .005)">
  <path d="m624.21 9e-5h1248v375.09h-1248z" fill="url(#a)" stroke-width="2.9812"/>
  <path d="m624.21 375.09h-599.2c-13.753 0-25.006-11.253-25.006-25.006v-325.39c0-13.128 10.94-24.693 24.693-24.693h599.52z" fill="#fff" stroke-width="3.1257"/>
  <g transform="matrix(.75012 0 0 .75012 0 -6e-5)" fill="#fff">
   <path d="m1196.8 46.657c8.08-2.39 17.44-0.61 23.7 5.16 8.96 7.84 10.76 22.47 3.9 32.22-5.08 7.92-15.03 12.37-24.3 10.66-11.61-1.81-21.3-12.73-20.86-24.62-0.19-10.58 7.4-20.56 17.56-23.42z"/>
   <path d="m1017.4 133.46c21.37-5.8 43.96-4.99 65.59-1.1 16.56 3.21 33.02 8.13 47.94 16.07 0.82 7.45 0.64 15.53-3.01 22.28-2.45 4.57-7.4 7.7-12.63 7.47-7.67-0.23-14.56-3.99-21.59-6.62-14.68-6.05-30.63-9.09-46.51-8.39-14.87 0.74-29.66 5.3-41.92 13.84-11.33 7.69-20.34 18.59-26.21 30.93-6.65 14.05-9.41 29.77-8.95 45.25 0.46 14.4 3.53 28.88 10.19 41.73 7.95 15.91 21.5 28.99 37.82 36.15 20.99 9.32 45.36 8.45 66.93 1.55 8.87-2.71 17.08-7.36 26.16-9.37 5.62-1.4 12.21 0.36 15.57 5.29 4.85 6.95 5.01 16.04 4.14 24.15-14.07 7.02-29.27 11.67-44.63 14.88-25.46 5.02-52.52 5.76-77.23-3.13-24.95-8.67-46.58-26.38-60.09-49.06-11.77-19.51-17.68-42.39-17.5-65.12-0.26-25.49 7.13-51.2 21.84-72.12 15.21-21.84 38.36-37.9 64.09-44.68z"/>
   <path d="m1378.5 131.64c20.37-4.35 42.33-2.9 61.39 5.79 14.88 6.78 27.32 18.57 35.15 32.9 9.75 17.49 12.97 37.77 13.25 57.57 0 42.06 0.05 84.12-0.05 126.18 0.17 5.36-2.82 10.92-8.15 12.55-9.57 3.04-19.87 1.53-29.55-0.18-0.06-45.61 0.03-91.23-0.05-136.84-0.58-17.92-4.72-37.02-17.41-50.43-11.02-11.97-27.92-16.85-43.82-16.02-16.43 0.97-32.11 7.86-45.12 17.73-8.09 6.21-15.3 13.73-20.45 22.57-1.14 1.63-0.91 3.67-0.96 5.55 0.08 8.56 0.01 17.11 0.05 25.67 0.02 40.13 0.01 80.26-0.01 120.39 0.21 5.36-3.46 10.34-8.62 11.75-9.37 2.72-19.36 1.35-28.8-0.26-0.16-43.48-0.07-86.96-0.08-130.44 0.08-33.89-0.12-67.78 0.1-101.66 9.07-1.94 18.68-3.43 27.8-0.98 4.91 1.26 9.25 5.39 9.48 10.67 0.35 7.42-0.01 14.85 0.15 22.28 14.33-17.02 33.79-30.09 55.7-34.79z"/>
   <path d="m1579.1 150c30.74-21.87 72.51-26.73 107.67-13.3 16.58 6.46 31.22 17.69 41.88 31.93 10.87 14.34 17.8 31.44 21.11 49.08 3.01 15.84 2.86 32.18 0.27 48.06-60.29 0.07-120.59 0-180.88 0.04 2.21 17.04 8.77 33.95 20.77 46.51 10.38 11.11 24.48 18.3 39.23 21.59 22.1 4.92 45.28 2.4 66.72-4.37 7.84-2.21 15.32-5.66 23.31-7.37 5.57-1.42 11.72 1.3 14.58 6.26 4.25 7.17 3.74 15.87 3.17 23.87-19.57 8.63-40.34 14.62-61.56 17.38-19.3 2.53-39.12 2.24-58.08-2.43-16.65-4.06-32.58-11.5-45.88-22.37-14.06-11.32-25.03-26.31-31.98-42.94-9.86-23.76-12.22-50.39-7.98-75.68 5.19-30.3 22.29-58.65 47.65-76.26m17.36 30.27c-13.64 11.51-22.05 28.12-25.99 45.33-0.44 2.72-0.87 5.44-1.29 8.17 48.37 0 96.74-0.01 145.11 0-0.3-4.91-0.85-9.79-1.77-14.63-3.32-16.57-11.88-32.49-25.42-42.9-26.12-20.22-66.03-17.3-90.64 4.03z"/>
   <path d="m1879.3 133.17c21.25-6.87 45.68-4.8 64.78 7.1 11.91 7.31 21.04 18.49 27.09 31 9.14-13.12 20.8-24.75 35.02-32.29 17.83-9.56 39.11-11.94 58.81-7.71 14.06 3.02 27.23 10.4 36.75 21.24 12.31 13.79 18.58 32.08 20.24 50.29 0.97 10.37 0.4 20.8 0.55 31.21-0.04 40.16 0.05 80.34-0.06 120.5 0.17 5.76-3.84 11.05-9.43 12.42-9.4 2.54-19.36 1.27-28.79-0.52 0.01-42.8-0.01-85.61-0.02-128.42-0.23-11.22 0.66-22.52-0.93-33.67-1.46-9.94-5.03-19.84-11.76-27.44-6.16-7.04-14.97-11.41-24.12-12.93-27.02-5.03-54.58 11.73-66.73 35.54-1.21 2.79-0.57 5.94-0.69 8.89 0.02 48.58 0.05 97.16-0.02 145.74 0.28 5.65-3.22 11.29-8.82 12.76-9.59 2.65-19.77 1.3-29.4-0.44-0.01-29.46-0.01-58.92-0.01-88.38-0.17-22.64 0.32-45.29-0.26-67.92-0.73-9.29-2.85-18.66-7.59-26.77-4.58-7.96-12.01-14.27-20.7-17.29-14.94-5.25-31.92-3.43-45.78 4.04-10.33 5.46-19.26 13.56-25.69 23.31-1.78 2.98-4.3 5.92-4.24 9.58-0.1 3.75 0.03 7.5 0.02 11.25 0.04 46.59 0.01 93.19-0.01 139.78 0.3 5.58-3.05 11.21-8.58 12.75-9.48 2.73-19.63 1.5-29.16-0.36 0-50.27-0.03-100.54 0-150.8 0.02-27.01-0.01-54.02 0.01-81.03 8.65-1.91 17.74-3.44 26.53-1.45 5.05 1.07 9.59 5.03 10.31 10.32 0.86 6.75 0.19 13.59 0.4 20.37 10.8-13.94 25.39-25.23 42.28-30.67z"/>
   <path d="m2255.9 129.89c17.19-1.23 34.69-0.86 51.52 3.17 13.74 3.27 27.14 9.51 37.07 19.76 10.85 10.79 16.89 25.54 19.55 40.42 2.85 14.42 1.83 29.17 2.01 43.77-0.02 43.16 0.03 86.32-0.03 129.48-8.95 1.65-18.28 2.8-27.26 0.8-5.34-1.09-10.03-5.64-10.18-11.26-0.16-7.2 0.01-14.4-0.05-21.59-9.66 10.19-20.7 19.21-33.29 25.52-16.85 8.58-36.04 12-54.84 11.19-15.27-0.63-30.64-4.41-43.72-12.49-14.38-8.77-25.53-22.9-30.05-39.19-4.79-17.16-3.22-36.51 6.17-51.87 6.78-11.09 17.31-19.42 28.76-25.31 16.65-8.48 35.14-12.62 53.58-14.98 24.17-2.98 48.62-2.81 72.9-1.26-0.09-10.48-0.18-21.12-2.94-31.31-2.15-7.96-6.31-15.56-12.73-20.85-7.15-5.88-16.23-8.83-25.27-10.16-25.14-3.34-50.68 1.14-74.67 8.72-5.04 1.38-10 3.18-15.2 3.77-5.25 0.51-10.64-2.24-13.06-6.95-3.77-7.19-3.52-15.68-2.55-23.51 23.88-8.65 48.96-13.95 74.28-15.87m25.3 125.03c-17.4 1.05-35.09 2.99-51.35 9.62-9.34 3.91-18.36 10.1-23 19.37-7.01 13.91-3.62 32.09 7.98 42.52 7.95 7.51 18.67 11.45 29.43 12.56 16.59 1.49 33.6-1.83 48.41-9.5 13.04-6.54 24.33-16.26 33.43-27.61 0.8-1.14 2.07-2.21 1.91-3.77 0.07-14.33-0.06-28.67 0.05-42.99-15.61-0.88-31.25-0.94-46.86-0.2z"/>
   <path d="m1193.1 133.91c9.65-3.09 20.03-1.43 29.72 0.69 0 34.69-0.02 69.38 0 104.07 0.04 38.13-0.02 76.25 0.01 114.38 0.03 4.08-0.97 8.55-4.34 11.2-4.23 3.37-9.94 3.91-15.15 4.07-6.31 0.12-12.58-0.67-18.75-1.87-0.05-42.1-0.02-84.19-0.02-126.29 0.03-31.39-0.05-62.78 0.03-94.17-0.12-5.36 3.32-10.5 8.5-12.08z"/>
  </g>
  <path d="m421.97 333.52c4.0635 2.188 12.19 4.6886 22.818 4.6886 17.817 0.31257 27.507-6.5641 34.696-22.505l95.648-213.18c-4.0635-2.188-12.816-4.376-19.692-4.6886-12.19-0.31257-28.757 2.188-39.384 27.507l-30.945 73.142-60.952-98.461c-4.0635-1.2503-13.441-2.8132-20.63-2.8132-21.255 0-33.445 7.8144-45.948 21.255l-58.764 64.39 47.511 74.705c8.7521 13.753 20.317 20.63 39.072 20.63 12.19 0 22.505-2.8132 27.194-5.0012l-57.201-86.27 40.635-42.823 66.578 104.4zm-125.34-80.644c0 15.629-6.2515 24.693-36.884 24.693-4.0635 0-7.5018-0.31258-10.94-0.93773v-208.17c0-15.941 5.3138-32.195 36.258-32.195 3.7509 0 7.8144 0.31257 11.565 1.2503zm-63.452-31.257c0 29.382-19.067 50.637-58.139 55.013-28.132 3.1257-69.079-0.62514-88.458-2.8132-0.62515-3.1257-1.2503-7.1892-1.2503-10.315 0-25.631 13.753-31.57 26.881-31.57 13.441 0 34.696 2.188 50.637 2.188 17.504 0 22.505-5.9389 22.505-11.565 0-7.5018-6.8766-10.315-20.63-13.128l-36.571-6.564c-30.632-5.9389-46.886-27.194-46.886-49.699 0-27.506 19.38-50.324 57.513-54.7 28.757-3.1257 64.078 0.31257 83.145 2.8132 0.62514 3.4383 0.93772 6.564 0.93772 10.002 0 25.631-13.441 30.945-26.569 30.945-10.002 0-25.318-1.8754-43.135-1.8754-18.129 0-25.318 5.0012-25.318 10.94 0 6.2515 7.1892 9.0646 18.442 10.94l35.321 6.5641c36.259 6.8766 51.575 27.507 51.575 52.825" fill="url(#a)" stroke-width="2.9812"/>
  <path d="m1872.2 375.09h420.6c13.753 0 25.006-11.253 25.006-25.006v-325.33c0-13.253-11.003-24.756-24.756-24.756h-420.85z" fill="#fff" fill-rule="evenodd"/>
  <g fill="url(#a)" stroke-width="2.9812">
   <path d="m1943.7 100.27c6.5015-2.5006 13.503-1.2503 20.005 0.25006v75.768h87.02v-65.265c-0.2501-4.7511 2.0005-9.5022 6.7516-11.253 6.2516-2.0004 12.753-0.75018 19.005 0.75018v168.04c0.5001 4.5011-2.5007 8.7521-6.5017 10.252-6.5015 2.0004-13.003 0.75014-19.255-1.0002v-77.518h-87.02v68.266c0.2501 4.251-2.2505 8.252-6.0015 10.002-6.5016 2.2505-13.503 1.0002-20.005-0.75018v-166.79c-0.2501-4.251 1.7504-9.0021 6.0015-10.753z"/>
   <path d="m2117.7 101.52c2.7507-2.0005 6.2516-2.2506 9.5024-2.2506h31.007c14.253 0 28.257 0.50012 41.76 5.0012 21.755 6.5015 40.76 21.755 50.512 42.26 8.2519 18.004 10.002 38.509 7.0016 57.764-4.0009 22.505-16.754 43.76-35.508 57.013-15.754 11.003-35.008 16.754-54.263 16.754h-40.509c-3.751-0.25006-8.2521 0-10.753-3.2508-2.7507-3.5008-2.5006-8.0019-2.5006-12.253v-150.04c0-4.0009 0.2501-8.502 3.7509-11.003m22.255 21.505v131.28h27.757c16.004-0.25006 32.508-5.2512 44.26-16.504 14.003-12.503 20.755-31.757 20.255-50.262 0.5001-14.503-4.001-29.257-13.003-40.76-8.2521-10.502-20.255-17.754-33.258-21.005-7.5018-2.2505-15.504-2.7507-23.506-2.7507z"/>
  </g>
  <path d="m25.006 0c-13.753 0-25.006 11.253-25.006 25.006v226.3c0-20.005 16.003-36.509 36.008-37.259l2281.8-69.266v-119.78c0-13.753-11.253-25.006-25.006-25.006z" fill="#fff" opacity=".2"/>
 </g>
 <g transform="matrix(.75195 0 0 .75195 256.77 438.94)" fill="#fff">
  <path d="m1582.4 27.6c3.38-1.18 7.12-1.14 10.6-0.38 7.61 2.02 13.09 9.89 12.3 17.75-0.28 9.15-9.27 16.62-18.28 15.66-8.89-0.37-16.39-8.83-15.71-17.7 0.13-6.77 4.8-13 11.09-15.33z"/>
  <path d="m825.06 32.42c7.55-2.19 15.57-0.87 23.2 0.23-0.01 56.46-0.02 112.92 0 169.38 0.03 4.6 0.27 9.73-2.75 13.54-2.19 2.96-6.05 3.73-9.49 4.07-6.01 0.43-12.03-0.27-17.97-1.15-0.12-58.17-0.02-116.34-0.04-174.51-0.13-4.74 2.22-10.07 7.05-11.56z"/>
  <path d="m1431.4 32.4c7.52-2.14 15.51-0.86 23.1 0.27 0.05 23.85 0.01 47.71 0.02 71.56 5.13-6.52 11.56-12.02 18.84-16 9.65-5.08 20.92-6.07 31.61-4.82 9.7 1.28 19.05 5.65 25.84 12.75 10.57 11.09 14.31 26.89 14.44 41.83 0.04 22.99 0.02 46 0.01 68.99 0.05 4.9-2.48 10.37-7.55 11.74-7.38 2.04-15.14 0.73-22.58-0.18-0.3-26.53 0.04-53.06-0.17-79.59-0.41-9.9-3.67-20.95-12.78-26.21-14.84-8.46-35.19-3.2-45.36 10.16-1.08 1.53-2.52 3.08-2.29 5.1-0.04 26.28 0.04 52.57-0.04 78.86-0.02 4.66-2.02 10.07-6.82 11.64-7.59 2.38-15.7 0.99-23.4-0.05-0.03-57.83 0.03-115.67-0.03-173.5-0.31-5.06 1.89-10.99 7.16-12.55z"/>
  <path d="m113.43 39.56c14.2-0.13 28.4-0.06 42.6-0.03 21.27 0.34 43.07 5.44 60.54 18.03 15.64 11.16 26.55 28.42 30.66 47.12 4.04 18.56 3.24 38.36-3.37 56.24-6.02 16.53-17.55 30.94-32.28 40.54-16.6 11.09-36.61 16.56-56.51 16.55-13.7-0.02-27.4-0.01-41.1 0-4.15-0.12-9.14-0.58-11.75-4.29-2.8-3.98-2.55-9.05-2.48-13.68 0.01-49 0.02-97.99 0-146.99-0.04-3.78 1.01-7.79 3.7-10.57 2.81-2.22 6.53-2.68 9.99-2.92m17.08 28.2c-0.01 40.66-0.02 81.33 0.01 121.99 9.51-0.03 19.02 0.04 28.53-0.02 10.99-0.54 22-3.48 31.43-9.24 13.74-8.19 22.8-22.9 25.53-38.49 2.63-15.34 1.67-32.01-6.33-45.7-6.91-12.41-19.1-21.33-32.63-25.27-15.06-4.77-31.02-2.91-46.54-3.27z"/>
  <path d="m928.01 42.45c8.4-3.45 18.35-5.21 26.89-1.28 4.5 2.18 5.99 7.39 6.72 11.94 8.29 45.97 17.58 91.79 24.51 138 5.06-34.88 14.56-68.88 22.65-103.13 2.94-12.04 5.85-24.08 8.81-36.11 1-4.97 4.54-9.25 9.42-10.81 9.55-3.33 20.07-2.3 29.74 0.04 7.29 30.51 14.57 61.03 21.8 91.56 4.4 19.44 8.61 38.92 12.04 58.56 3.72-24.49 8.43-48.82 12.84-73.19 3.97-22.7 7.94-45.4 11.92-68.1 0.58-3.8 2.55-7.72 6.33-9.18 7.91-3.32 16.88-1.58 24.68 1.22-11.24 54.83-22.53 109.64-33.8 164.47-0.91 4.59-3.39 9.38-7.95 11.21-7.51 2.96-15.78 2.53-23.67 2.02-3.46-0.17-6.85-0.84-10.17-1.73-7.56-30.73-14.99-61.48-22.51-92.21-4.23-17.01-6.4-34.47-10.84-51.43-8.86 43.56-20.14 86.57-30.4 129.81-1.08 4.56-2.53 9.54-6.45 12.49-4.57 2.99-10.26 3.37-15.57 3.43-6.62-0.15-13.34-0.48-19.72-2.4-12.45-58.38-25.01-116.75-37.27-175.18z"/>
  <path d="m1939.8 50.77c6.81-2.25 14.34-1.52 21.14 0.48 0.06 11.33 0 22.66 0.04 33.99 14.97 0 29.95 0.03 44.93-0.02 1.44 5.65 1.96 11.72 0.59 17.42-1.06 4.09-5.39 6.36-9.38 6.32-12.05 0.11-24.1 0-36.15 0.04v65.03c0.05 5.99 1.84 12.4 6.57 16.4 5.03 4.31 12.22 4.66 18.48 3.59 4.96-0.79 9.36-3.41 14.19-4.68 4.61-1.21 10.23 0.58 12.36 5.08 2.29 4.77 2.01 10.28 1.67 15.42-8.66 4.92-18.16 8.67-28.13 9.67-11.09 1.22-22.88 0.62-32.88-4.78-8.57-4.48-15.18-12.32-18.56-21.34-2.68-6.79-3.43-14.15-3.46-21.4 0.01-20.99 0.01-41.99 0-62.98-6.98-0.06-13.95 0.09-20.92-0.09-0.83-5.26-1.25-10.65-0.5-15.95 0.52-3.82 3.76-6.9 7.57-7.43 4.58-0.6 9.22-0.17 13.85-0.3 0.16-7.39-0.33-14.8 0.29-22.17 0.34-5.15 3.08-10.64 8.3-12.3z"/>
  <path d="m1857.7 87.45c11.53-5.99 22.98-12.26 35.19-16.79 4.26 2.66 8.51 6.87 8.11 12.32 0.21 4.23-2.15 8.23-5.84 10.24-6.89 3.91-15.09 3.36-22.66 4.71 8.58 6.94 15.04 16.91 16.41 27.99 0.85 7.75-0.11 15.76-2.94 23.03-3.81 9.72-11.78 17.45-21.14 21.85-11.48 5.34-24.43 6.56-36.93 6.07-4.32 0-8.59-2.1-12.87-0.95-3.62 0.73-6.02 5.61-3.58 8.67 2.82 3.39 7.55 4 11.6 5.01 11.76 1.92 23.6 3.42 35.4 5.16 9.53 1.25 19.34 2.98 27.67 8.09 5.37 3.21 9.24 8.5 11.67 14.2 4.68 11.68 2.34 25.64-5.23 35.58-7.15 9.36-18.07 14.91-29.21 18.01-11.83 3.24-24.22 3.67-36.41 3.27-11.41-0.54-22.9-2.75-33.23-7.76-6.2-2.95-11.97-7.08-16.1-12.61-7.27-9.56-9.02-23.06-4.3-34.11 3.62-8.21 10.89-14.24 18.81-18.12-3.65-3.88-7.14-8.68-6.27-14.33 0.25-8.07 7.12-13.63 13.88-16.77-9.49-5.03-17.9-12.86-22.13-22.86-6.48-16.76-2.74-37.67 10.75-49.97 11.67-10.73 28.09-14.79 43.62-14.4 8.78-0.23 17.45 1.65 25.73 4.47m-35.28 18.21c-8.15 2-15.62 7.97-17.91 16.25-2.34 8.62-1.32 18.82 5.05 25.53 10.13 10.78 28.35 11.81 40.4 3.73 13.94-9.22 13.56-32.81-0.32-41.88-7.96-5.15-18.19-5.77-27.22-3.63m-18.09 104.28c-8.6 7.1-9.66 20.83-2.93 29.52 5.44 7.34 14.78 10.16 23.47 11.18 11.87 1.27 24.52 1.2 35.41-4.31 4.55-2.32 8.86-6.12 9.85-11.36 0.73-4.24-1.03-9.17-5.17-10.96-7.6-3.45-16.04-4.06-24.14-5.58-12.26-2.34-24.99-3.25-36.49-8.49z"/>
  <path d="m316.81 83.85c16.54-2.65 34.52 0 48.19 10.17 21.19 15.16 29.55 43.8 24.68 68.74-31.74-0.01-63.47-0.01-95.21 0 1.14 9.4 5.35 18.86 13.2 24.51 8.36 6.26 19.13 8.14 29.36 7.74 9.01 0.08 17.68-2.65 26.09-5.59 5.22-1.71 12.14-3.37 16.4 1.19 4.96 5.25 4.77 13.1 3.9 19.79-20.19 9.23-43 13.01-64.99 9.36-15.02-2.61-29.46-10.06-39.2-21.95-11.88-14.27-16.55-33.49-15.29-51.77 0.94-16.3 7.54-32.38 18.95-44.14 9.02-9.4 21.08-15.86 33.92-18.05m-11.52 31.42c-6.95 6.71-10.15 16.31-11.13 25.72 22.89 0.01 45.78 0.01 68.67 0.01-1.03-9.64-4.64-19.28-11.62-26.2-5.77-5.8-14.13-8.32-22.17-8.33-8.62-0.23-17.67 2.44-23.75 8.8z"/>
  <path d="m477.9 83.44c13.34-1.68 27.98 0.31 38.59 9.18 12.33 9.88 17.24 26.14 17.74 41.4 0.05 24.65 0 49.3 0.03 73.94 0.13 4.63-2.66 9.57-7.33 10.78-7.41 2.01-15.21 0.75-22.68-0.29-0.03-25.82 0.03-51.63-0.03-77.45-0.24-8.78-1.86-18.4-8.39-24.83-6.93-6.97-17.63-8.49-26.97-6.91-9.51 2.08-18.58 7.48-23.97 15.73-0.88 1.16-1.28 2.57-1.15 4.03 0.04 26.33 0 52.67 0.02 79.01 0.08 4.72-2.88 9.76-7.71 10.83-7.32 1.78-14.99 0.7-22.32-0.46-0.01-43.93 0.12-87.86-0.06-131.79 7.28-2.32 15.82-3.95 22.9-0.2 6.12 3.72 6.53 11.64 6.73 18.04 8.21-11.11 20.83-19.13 34.6-21.01z"/>
  <path d="m696.78 93.8c10.81-7.49 24.06-11.34 37.2-10.83 17.21-0.32 34.49 7.23 45.57 20.48 13.59 16.17 18.37 38.76 14.41 59.31-31.73-0.02-63.45-0.01-95.17 0 0.99 7.72 3.81 15.46 9.36 21.08 5.52 5.81 13.19 9.19 21.02 10.45 11.36 1.75 23.13 0.56 33.91-3.44 5.96-1.84 12.8-5 18.84-1.83 6.78 4.74 6.95 14.12 5.73 21.5-10.66 4.44-21.73 8.22-33.23 9.68-15.63 1.69-32.04 1.41-46.72-4.82-13.02-5.23-24.19-15.01-30.82-27.39-7.98-14.56-10.27-31.8-7.99-48.13 2.55-18.25 12.53-35.65 27.89-46.06m13.11 21.14c-7.1 6.76-10.44 16.5-11.45 26.06 22.89-0.01 45.78 0.01 68.67-0.01-1-9.95-4.84-19.97-12.32-26.84-5.5-5.28-13.29-7.47-20.75-7.67-8.71-0.38-17.89 2.16-24.15 8.46z"/>
  <path d="m1161.3 91.26c13.47-4.45 27.54-7.23 41.71-8.08 12.02-0.38 24.35-0.75 36 2.78 8.65 2.52 16.82 7.58 21.87 15.18 6.58 9.59 7.88 21.57 8.35 32.88 0.12 15-0.03 30 0.07 44.99 0.21 12.86 2.11 25.69 5.79 38.02-5.98 2.32-12.55 3.31-18.93 2.43-4.57-0.62-8.68-3.61-10.75-7.72-2.78-5.33-2.75-11.51-3.31-17.35-5.34 8.05-11.88 15.68-20.7 19.99-12.34 6.32-26.95 7.27-40.36 4.41-9.99-2.31-19.38-8.13-24.84-16.95-6.48-10.26-7.37-23.27-4.31-34.82 2.22-8.56 7.57-16.29 14.94-21.23 11.66-8.13 26.28-10.37 40.21-10.56 11.23-0.01 22.42 1.31 33.47 3.29 0.01-8.38 0.58-17.95-5.22-24.75-4.9-5.2-12.52-6.03-19.26-6.45-12.28-0.68-24.39 2-36.13 5.27-4.75 1.1-10.89 2.14-14.57-1.91-4.39-5.45-4.29-12.81-4.03-19.42m41.71 64.96c-6.7 1.1-13.66 3.38-18.25 8.65-4.72 5.27-5.88 13.27-3.46 19.83 2.03 5.38 7.34 8.71 12.7 10.11 10.45 2.63 22.11 0.52 30.76-6.01 6.61-5.09 12.13-11.68 15.69-19.24 0.75-3.83 0.08-7.81 0.38-11.69-12.42-2.37-25.26-3.58-37.82-1.65z"/>
  <path d="m1677.6 90.73c11.14-7.39 25.17-9.05 38.17-7.03 7.87 1.35 15.47 4.68 21.44 10.04 13.01 11.39 16.89 29.66 16.51 46.25-0.03 22.71 0.02 45.41-0.02 68.11 0 4.68-2.87 9.7-7.67 10.75-7.33 1.81-14.99 0.68-22.33-0.4 0.02-25.17 0.01-50.34 0-75.51-0.18-9.08-1.31-19.03-7.7-26.03-6.97-7.54-18.2-9.38-27.93-7.61-9.03 2.05-17.64 7.02-23.05 14.66-0.81 1.19-1.89 2.41-1.79 3.94-0.06 26.68 0.02 53.37-0.04 80.04 0 4.59-2.63 9.59-7.31 10.81-7.41 2-15.19 0.73-22.65-0.25-0.06-44.03-0.01-88.06-0.02-132.08 7.45-2.03 16.12-3.9 23.19 0.27 5.61 3.76 6.14 11.16 6.25 17.3 4.52-4.9 9.13-9.85 14.95-13.26z"/>
  <path d="m2079.5 83.74c16.86-2.11 34.63 1.27 48.71 11.04 15.32 10.17 25.38 27.28 28.22 45.31 2.69 17.75-0.66 36.67-10.67 51.73-9.96 15.22-26.8 25.47-44.71 28.16-16.47 2.37-33.99 0.01-48.37-8.7-12.34-7.12-22.06-18.56-27.15-31.85-8.14-20.81-6.67-45.57 5.32-64.62 10.32-17.09 28.9-28.69 48.65-31.07m3 25.02c-11.58 2.27-21.66 10.5-26.6 21.17-4.63 9.33-5.41 20.07-4.21 30.28 1.54 11.66 7.6 22.98 17.42 29.69 11.1 7.46 26.42 8.01 37.91 1.08 11.88-6.91 18.66-20.54 19.4-33.98 1.18-14.32-2.62-29.92-13.51-39.87-8.09-7.34-19.72-10.53-30.41-8.37z"/>
  <path d="m2208.5 104.61c9.78-13.26 25.82-22.1 42.47-21.64 12.72-0.5 25.98 3.78 34.75 13.27 10.38 10.77 13.71 26.26 13.99 40.77 0.05 23.35 0.01 46.71 0.02 70.06 0.15 5.02-2.6 10.56-7.79 11.81-7.38 1.76-15.08 0.65-22.47-0.45 0.01-21.46 0-42.92 0.01-64.38-0.19-8.69 0.76-17.59-1.69-26.06-1.84-7.35-6.96-13.91-14.04-16.83-15.66-6.57-35.07 0.38-43.99 14.56-0.79 1.27-0.49 2.85-0.56 4.26 0.06 25.67 0.03 51.34 0.02 77.01 0.2 5.21-2.85 11-8.31 12.03-7.22 1.55-14.68 0.45-21.89-0.54-0.08-44.03-0.05-88.06-0.01-132.09 7.29-1.86 15.57-3.77 22.63-0.11 6.32 3.67 6.93 11.78 6.86 18.33z"/>
  <path d="m1308.7 91.77c8.3-4.87 17.86-7.25 27.4-7.98 20.24-1.5 40.62 1.97 59.76 8.48 0.31 5.51 0.54 11.42-2.23 16.41-1.62 3.15-5.06 5.21-8.6 5.1-8.99 0.53-17.17-3.98-25.97-4.87-7.8-0.92-15.72-1.23-23.51-0.18-3.8 0.56-7.72 1.62-10.62 4.26-4.36 3.9-4.42 12.06 0.6 15.44 5.83 3.99 12.94 5.19 19.59 7.18 11.96 3.52 24.32 6.11 35.57 11.68 6 2.92 11.78 6.76 15.69 12.28 5.1 6.95 6.73 15.95 5.81 24.41-0.78 7.24-3.15 14.57-8.12 20.05-7.56 8.63-18.89 12.8-29.92 14.71-24.42 3.57-49.41-0.64-72.58-8.58-1.08-6.42-0.86-13.87 3.65-19.01 3.82-4.05 9.91-3.08 14.8-2 10.87 2.73 21.72 6.32 33.06 6.35 7.72 0.09 15.93 0.25 22.92-3.52 7.29-3.71 8.29-15.72 1.21-20.16-6.51-4.03-14.11-5.67-21.37-7.8-11.55-3.39-23.48-5.97-34.23-11.57-5.73-2.94-11.17-6.86-14.7-12.33-6.07-9.11-6.79-21.16-3.03-31.3 2.68-7.24 8.22-13.17 14.82-17.05z"/>
  <path d="m1580.9 85.14c7.19-1.83 14.72-0.58 21.98 0.29 0.26 40.51 0.01 81.02 0.13 121.52 0.36 5.13-2.73 10.75-7.99 11.91-7.2 1.82-14.72 0.6-21.96-0.35-0.17-40.5-0.01-81-0.08-121.5-0.34-5.12 2.7-10.63 7.92-11.87z"/>
  <path d="m553.59 85.35c34.71-0.23 69.42-0.05 104.13-0.09 2.19 9.66 2.23 20.99-4.56 28.92-21.72 26.54-43.49 53.02-65.24 79.53 23.75 0.09 47.49 0.01 71.24 0.04 1.25 5.85 2.01 12.05 0.41 17.91-1.1 4.1-5.45 6.58-9.54 6.35-32.67-0.02-65.35-0.01-98.03 0-2.08-9.55-2.36-20.7 4.28-28.6 21.7-26.49 43.45-52.93 65.15-79.41h-58.42c-4.02 0.11-8.53-1.99-9.74-6.08-1.82-6.05-0.68-12.48 0.32-18.57z"/>
 </g>
</svg>
