<svg width="3594.1" height="500.01" version="1.1" viewBox="0 0 950.94 132.3" xmlns="http://www.w3.org/2000/svg">
 <g transform="matrix(1.0001 0 0 1.0001 .14957 2.3434e-5)">
  <path d="m798.93-2.0625e-6h-578.9c-4.8428 0-8.8124 3.9695-8.8124 8.8124v114.67c0 4.8428 3.9695 8.8124 8.8124 8.8124h578.9c4.8429 0 8.8124-3.9695 8.8124-8.8124l1.1e-4 -114.67c2e-5 -4.8428-3.9696-8.8124-8.8124-8.8124z" fill="#efefef" stroke-width=".26464"/>
  <g fill="url(#linearGradient2835)" stop-color="#000000" stroke-width="3.2945" style="-inkscape-stroke:none;font-variation-settings:normal">
   <path d="m751.77 35.549c-8.821 0-16.144 3.0195-21.967 9.0572-5.9094 6.0375-8.8632 13.66-8.8632 22.866 0 9.6773 3.0397 17.555 9.1202 23.635 6.0378 6.0378 13.873 9.0572 23.508 9.0572 7.8791 0 15.501-1.7125 22.866-5.1381 0.0857-0.85644 0.12947-1.6269 0.12947-2.312 0-3.8967-1.3911-5.8464-4.1745-5.8464-0.94203 0-2.6343 0.45092-5.0752 1.3501-5.2669 1.7556-9.6977 2.6337-13.295 2.6337-13.017 0-20.405-6.2309-22.161-18.692h48.047c0.34249-2.0126 0.51417-4.2179 0.51417-6.616 0-8.1358-2.377-15.009-7.13-20.619-5.3097-6.2516-12.483-9.3771-21.518-9.3771zm0 9.2496c5.3526 0 9.6993 1.7983 13.039 5.3951 3.1687 3.4684 4.8594 7.9009 5.0735 13.296h-38.154c0.77075-5.9093 3.0838-10.555 6.9376-13.938 3.5969-3.1687 7.9638-4.7533 13.102-4.7533z" stop-color="#000000" style="-inkscape-stroke:none;font-variation-settings:normal"/>
   <path d="m622.76 35.977c-8.1358 0-16.015 1.477-23.637 4.4314-0.12849 1.0277-0.1924 1.9495-0.1924 2.7631 0 3.6398 1.3053 5.46 3.9175 5.46 0.47098 0 1.9059-0.32121 4.3039-0.96361 5.909-1.5415 11.026-2.3137 15.351-2.3137 5.1384 0 8.7785 1.1775 10.92 3.5327 2.1838 2.3123 3.2756 6.0602 3.2756 11.241v1.5407c-2.7833-0.17131-5.4396-0.25697-7.9658-0.25697-9.3778 0-17 1.3071-22.866 3.9191-7.5365 3.4256-11.304 8.7565-11.304 15.993 0 5.3097 1.8201 9.7422 5.46 13.296 3.9396 3.8539 9.2065 5.7799 15.801 5.7799 8.4784 0 15.438-3.0616 20.876-9.1851v4.6238c0 2.4836 1.99 3.7267 5.9723 3.7267 1.7128 0 3.2756-0.15155 4.6887-0.45115v-39.501c0-15.758-8.113-23.637-24.342-23.637zm8.4784 33.271c1.7556 0 3.5758 0.04382 5.46 0.12947v11.625c-4.753 7.1939-11.133 10.79-19.141 10.79-3.7254 0-6.7448-1.0261-9.0572-3.0815-2.1839-1.9269-3.2756-4.3039-3.2756-7.13 0-8.2214 8.6718-12.333 26.014-12.333z" stop-color="#000000" style="-inkscape-stroke:none;font-variation-settings:normal"/>
   <path d="m393.65 35.681c-9.1636 0-16.785 3.0616-22.866 9.1847-6.1232 6.166-9.1847 13.874-9.1847 23.123 0 9.2493 3.0397 16.977 9.1202 23.186 6.1232 6.2088 13.767 9.3142 22.931 9.3142 9.2065 0 16.87-3.0835 22.994-9.2496 6.1232-6.2088 9.1847-13.959 9.1847-23.251 0-9.2493-3.0397-16.937-9.1202-23.06-6.1235-6.166-13.809-9.248-23.059-9.248zm0 9.3771c6.0375 0 11.047 2.0556 15.03 6.1663 4.1965 4.2394 6.2941 9.8275 6.2941 16.764s-2.0977 12.545-6.2941 16.827c-3.9824 4.1109-8.9917 6.1663-15.03 6.1663-5.9522 0-10.941-2.0557-14.967-6.1663-4.1537-4.325-6.2292-9.9332-6.2292-16.827 0-6.9369 2.0758-12.525 6.2292-16.764 3.9824-4.1109 8.9716-6.1663 14.967-6.1663z" stop-color="#000000" style="-inkscape-stroke:none;font-variation-settings:normal"/>
   <path d="m437.04 36.372c1.5896 0 2.9976 0.32121 4.2239 0.96361 1.1808 0.6423 2.0428 1.7997 2.5878 3.4698l11.446 45.859 15.806-49.2 0.68098-0.25697c1.7713-0.55651 3.5422-0.83591 5.3134-0.83591 2.5888 0 4.3823 0.36506 5.3816 1.093 0.99919 0.68512 1.8174 2.0544 2.4532 4.1099l13.897 45.089 12.127-46.311c0.68127-2.6549 2.679-3.9821 5.9943-3.9821 1.953 0 3.907 0.40713 5.8599 1.2207l-16.623 57.166c-0.49961 1.8413-1.59 3.1282-3.2705 3.8562-1.6351 0.6424-3.2471 0.96361-4.8366 0.96361-0.59041 0-1.6582-0.08566-3.2024-0.25697-1.2717-0.12882-2.2016-0.28003-2.792-0.45118l-0.68269-0.25532-14.919-47.21-14.034 43.099c-0.63588 2.0554-1.749 3.4263-3.3386 4.1115-1.4988 0.64233-3.1562 0.9619-4.973 0.9619-0.36335 0-1.4311-0.08401-3.2024-0.25532-1.7259-0.2998-2.7709-0.53522-3.1343-0.70654l-0.54478-0.25697-0.13606-0.57884-16.691-59.927 1.0215-0.38476c0.40875-0.17131 1.227-0.40671 2.4532-0.7065 0.99922-0.25697 2.0443-0.38648 3.1343-0.38648z" stop-color="#000000" style="-inkscape-stroke:none;font-variation-settings:normal"/>
   <path d="m685.55 35.681c8.4356 0 15.993 1.2835 22.674 3.8526 0.12849 0.94203 0.19405 1.7983 0.19405 2.5691 0 3.7682-1.3071 5.652-3.9191 5.652-0.42822 0-2.7833-0.53493-7.0654-1.6054-4.2822-1.0277-8.2418-1.5408-11.882-1.5408-9.078 0-13.618 2.7184-13.618 8.1565 0 3.6826 3.4905 6.4869 10.47 8.4135l11.304 3.1479c11.861 3.2543 17.791 9.0563 17.791 17.406 0 5.3526-2.0338 9.7211-6.1017 13.104-4.6248 3.7682-11.219 5.6524-19.783 5.6524h-1.0266c-7.922 0-15.673-1.4349-23.253-4.3039-0.0857-0.85644-0.12783-1.6269-0.12783-2.312 0-3.9824 1.413-5.9739 4.2394-5.9739 0.47098 0 3.0178 0.53493 7.6426 1.6054 4.6673 1.0705 8.9722 1.6054 12.911 1.6054 9.7629 0 14.643-2.89 14.643-8.6708 0-3.9396-3.7679-6.9791-11.304-9.1202l-10.918-3.0185c-11.433-3.0831-17.151-8.7149-17.151-16.894 0-5.0956 1.9278-9.2272 5.7815-12.396 4.3247-3.5541 10.49-5.3305 18.497-5.3305z" stop-color="#000000" style="-inkscape-stroke:none;font-variation-settings:normal"/>
   <path d="m562.37 35.681c7.1276 0 14.078 1.5627 20.852 4.6887 0.0886 0.72795 0.13277 1.3907 0.13277 1.9902 0 3.9824-1.5062 5.9739-4.5168 5.9739-0.66407 0-2.7217-0.5568-6.1749-1.6701-3.4974-1.0705-6.9287-1.6054-10.293-1.6054-5.9766 0-11.025 2.0556-15.142 6.1663-4.2944 4.3247-6.4404 9.9132-6.4404 16.764 0 6.8512 2.1461 12.46 6.4404 16.827 4.1171 4.1109 9.1653 6.1663 15.142 6.1663 3.3647 0 6.7959-0.53493 10.293-1.6054 3.4533-1.0705 5.5107-1.6054 6.1749-1.6054 3.0105 0 4.5168 1.9698 4.5168 5.9093 0 0.6423-0.0441 1.305-0.13277 1.9902-6.7735 3.2115-13.724 4.8179-20.852 4.8179-9.3412-0.12849-17.134-3.2978-23.377-9.5066-6.2424-6.2088-9.362-13.917-9.362-23.123 0-9.2065 3.1418-16.87 9.4282-22.994 6.2424-6.1232 14.013-9.1847 23.31-9.1847z" stop-color="#000000" style="-inkscape-stroke:none;font-variation-settings:normal"/>
   <path d="m261.02 35.681c8.4356 0 15.994 1.2835 22.674 3.8526 0.12849 0.94203 0.19237 1.7983 0.19237 2.5691 0 3.7682-1.3054 5.652-3.9175 5.652-0.42819 0-2.7833-0.53493-7.0654-1.6054-4.2819-1.0277-8.2435-1.5408-11.883-1.5408-9.078 0-13.616 2.7184-13.616 8.1565 0 3.6826 3.4905 6.4869 10.47 8.4135l11.304 3.1479c11.861 3.2543 17.791 9.0563 17.791 17.406 0 5.3526-2.0338 9.7211-6.1017 13.104-4.6245 3.7682-11.219 5.6524-19.783 5.6524h-1.0283c-7.9216 0-15.672-1.4349-23.251-4.3039-0.0857-0.85644-0.1277-1.6269-0.1277-2.312 0-3.9824 1.413-5.9739 4.239-5.9739 0.47101 0 3.0178 0.53493 7.6426 1.6054 4.6673 1.0705 8.9706 1.6054 12.91 1.6054 9.7629 0 14.645-2.89 14.645-8.6708 0-3.9396-3.7682-6.9791-11.304-9.1202l-10.918-3.0185c-11.433-3.0831-17.151-8.7149-17.151-16.894 0-5.0956 1.9278-9.2272 5.7815-12.396 4.3247-3.5541 10.49-5.3305 18.497-5.3305z" stop-color="#000000" style="-inkscape-stroke:none;font-variation-settings:normal"/>
   <path d="m301.93 14.398c3.5113 0 5.2659 1.413 5.2659 4.239v26.526c5.7809-6.3373 12.826-9.505 21.133-9.505 6.8084 0 12.289 2.1195 16.443 6.3587 4.6245 4.7101 6.9376 11.476 6.9376 20.297v33.143c0 2.7405-1.9278 4.1115-5.7815 4.1115-1.8413 0-3.4899-0.15155-4.9457-0.45118v-35.518c0-12.375-5.1374-18.562-15.414-18.562-8.1786 0-14.26 3.6183-18.242 10.855v39.567c0 2.7405-1.884 4.1115-5.6524 4.1115-2.2695 0-3.876-0.19339-4.8179-0.57884v-84.076c1.4559-0.3425 3.1482-0.51414 5.0752-0.51414z" stop-color="#000000" style="-inkscape-stroke:none;font-variation-settings:normal"/>
  </g>
  <path d="m22.152 31.803c-14.79 1.614-22.331 10.504-22.331 21.114 0 8.7312 6.35 16.96 18.256 19.235l14.34 2.7517c5.2388 1.0054 7.9375 2.1696 7.9375 5.0271 0 2.1696-2.0373 4.4715-8.7842 4.4715-6.1119 0-14.34-0.92604-19.579-0.92604-5.0271 0-10.372 2.2754-10.372 12.171 0 1.2171 0.21167 2.7517 0.47625 3.9688 7.5406 0.87313 23.336 2.249 34.29 1.0583 15.108-1.614 22.542-9.9219 22.542-21.273 0-9.7896-6.059-17.754-20.082-20.346l-13.679-2.54c-4.3921-0.76729-7.1173-1.7727-7.1173-4.2598 0-2.3548 2.884-4.2598 9.869-4.2598 6.8527 0 12.885 0.71438 16.722 0.71438 5.0271 0 10.266-2.1431 10.266-12.039 0-1.3229-0.15875-2.54-0.42333-3.81-5.371-0.66146-13.917-1.5346-22.437-1.5346-3.3867-0.02646-6.7469 0.13229-9.8954 0.47625m85.037 7.6465-22.886 24.977 18.389 28.945c3.4131 5.2917 7.8846 7.964 15.161 7.964 4.7625 0 8.7312-1.1112 10.583-1.9844l-22.172-33.337 15.716-16.642 25.77 40.402-15.716 33.073c1.5875 0.79375 4.7625 1.7727 8.7842 1.8521 6.9321 0.15875 10.663-2.4871 13.494-8.6783l37.068-82.55c-1.5346-0.82021-4.9477-1.7462-7.6729-1.7727-4.7625-0.10583-11.192 0.84667-15.266 10.61l-11.986 28.284-23.548-38.259c-1.5346-0.47625-5.2388-1.1112-7.9375-1.1112-8.3344-0.02646-12.965 3.0162-17.78 8.2285m-42.333-19.262v80.698c1.3229 0.21167 2.6988 0.29104 4.2598 0.29104 11.906 0 14.287-3.4925 14.287-9.5779v-83.502c-1.4288-0.29104-2.9369-0.47625-4.4715-0.47625-12.012 0.026458-14.076 6.4029-14.076 12.568" fill="#ff9d00" stop-color="#000000" stroke-width=".26458" style="font-variation-settings:normal"/>
  <path d="m-0.17834 52.917c0-10.61 7.5406-19.5 22.331-21.114 3.1485-0.34396 6.5088-0.50271 9.8425-0.42333 8.5196 0 17.066 0.87312 22.437 1.5346 0.26458 1.27 0.42333 2.4871 0.42333 3.81 0 9.8954-5.2388 12.039-10.266 12.039-3.8365 0-9.869-0.71438-16.722-0.71438-6.985 0-9.869 1.905-9.869 4.2598 0 2.4871 2.7252 3.4925 7.1173 4.2598l13.679 2.54c14.023 2.5929 20.082 10.557 20.082 20.346 0 0.71438-0.02646 1.4023-0.07937 2.0638v0.18521h-0.02646c0.29104-5.2123-3.0163-10.398-9.1017-10.186-2.6194 0.07937-14.711 0.50271-16.325 0.55562-5.2123 0.21167-12.25-0.26458-15.293-0.79375-3.6777-0.635-7.3819-1.561-10.98-3.9158-4.7625-3.7571-7.2496-8.9958-7.2496-14.446zm69.612 17.939c1.9844-0.05292 7.62-0.26458 9.2869-0.3175 1.8256-0.05292 4.6567-1.3229 4.7096-4.736v-57.679c-0.05292 0-0.07937-0.026458-0.13229-0.026458h-9.3398c-7.6465 1.561-9.1281 6.9056-9.1281 12.091v55.324c0.02646-2.2225 1.7462-4.5773 4.6038-4.6567zm63.13-4.9477c1.905 2.4871 4.789 2.54 5.3975 2.5135 0.55562 0 14.367-0.50271 15.002-0.52917 0.97896-0.02646 2.0638 0.50271 2.9104 1.6933l-22.966-37.28c-1.5346-0.47625-5.2388-1.1112-7.9375-1.1112-8.3344 0-12.965 3.0427-17.78 8.255l-22.886 24.977 1.8256 2.884c0.76729 1.0583 2.3548 2.8575 5.424 2.7252 1.0848-0.02646 12.144-0.42333 13.044-0.44979 2.8575-0.10583 4.6567 1.1112 5.7679 2.5665l-4.0746-6.1383 15.716-16.642zm58.79-32.438c-1.5346-0.82021-4.9477-1.7462-7.6465-1.7727-0.21166-0.02646-0.39687-0.02646-0.58208-0.02646-4.7096 0.02646-10.769 1.2965-14.684 10.636l-11.695 27.596c0.0265-0.02646 0.76729-2.1431 3.0427-2.249 0 0 11.509-0.39688 12.382-0.42333 3.7571-0.13229 5.2652-2.7252 5.6356-3.5454l13.547-30.189z" enable-background="new    " fill="url(#linearGradient2624)" opacity=".35" stroke-width=".26458"/>
  <path d="m220.03-2.0062e-5c-4.8428 0-8.8124 3.9695-8.8124 8.8124v114.67c0 4.8429 3.9696 8.8124 8.8124 8.8124h578.9c4.8428 0 8.8124-3.9695 8.8124-8.8124v-114.67c0-4.8429-3.9696-8.8124-8.8124-8.8124zm0 4.4979h578.9c2.7782 0 4.3145 1.5664 4.3145 4.3145v114.67c0 2.748-1.5363 4.3145-4.3145 4.3145h-578.9c-2.7782 0-4.3145-1.5664-4.3145-4.3145v-114.67c0-2.7481 1.5363-4.3145 4.3145-4.3145z" fill="url(#linearGradient2835)" stop-color="#000000" stroke-width="3.2945" style="-inkscape-stroke:none;font-variation-settings:normal"/>
  <path d="m217.55 65.617s0.29104-0.02646 0.84667-0.05292c26.088-0.92604 582.77-8.3079 582.77-8.3079 3.6777-0.02646 6.6146-3.0427 6.5881-6.694v-41.698c-2e-5 -4.8948-3.9688-8.8635-8.8636-8.8635h-578.88c-4.8683 0-8.8106 3.9423-8.8106 8.8106v63.685c-0.10583-3.6248 2.7252-6.694 6.35-6.8792z" enable-background="new    " fill="url(#linearGradient2224-7-1)" opacity=".3" stop-color="#000000" stroke-width=".26458" style="-inkscape-stroke:none;font-variation-settings:normal" Googl="true"/>
 </g>
 <defs>
  <linearGradient id="linearGradient2835" x1="211.22" x2="807.74" y1="66.147" y2="66.147" gradientUnits="userSpaceOnUse">
   <stop stop-color="#ff9e00" offset="0"/>
   <stop stop-color="#ff9600" offset=".044283"/>
   <stop stop-color="#be006e" offset=".49911"/>
   <stop stop-color="#056af1" offset=".95417"/>
   <stop stop-color="#0071ff" offset="1"/>
  </linearGradient>
  <linearGradient id="linearGradient2624" x1="365.41" x2="359.57" y1="1091.1" y2="923.62" gradientTransform="matrix(.26458 0 0 .26458 -.17834 -219.08)" gradientUnits="userSpaceOnUse">
   <stop stop-color="#fff" offset="0"/>
   <stop stop-color="#fff" stop-opacity=".8347" offset=".1203"/>
   <stop stop-color="#fff" stop-opacity=".6576" offset=".2693"/>
   <stop stop-color="#fff" stop-opacity=".5107" offset=".4195"/>
   <stop stop-color="#fff" stop-opacity=".3965" offset=".5684"/>
   <stop stop-color="#fff" stop-opacity=".3152" offset=".7156"/>
   <stop stop-color="#fff" stop-opacity=".2664" offset=".8603"/>
   <stop stop-color="#fff" stop-opacity=".25" offset="1"/>
  </linearGradient>
  <linearGradient id="linearGradient2224-7-1" x1="1281.7" x2="1273" y1="1266" y2="1016.9" gradientTransform="matrix(.26458 0 0 .26458 159.66 -271.46)" gradientUnits="userSpaceOnUse">
   <stop stop-color="#fff" offset="0"/>
   <stop stop-color="#fff" stop-opacity=".8347" offset=".1203"/>
   <stop stop-color="#fff" stop-opacity=".6576" offset=".2693"/>
   <stop stop-color="#fff" stop-opacity=".5107" offset=".4195"/>
   <stop stop-color="#fff" stop-opacity=".3965" offset=".5684"/>
   <stop stop-color="#fff" stop-opacity=".3152" offset=".7156"/>
   <stop stop-color="#fff" stop-opacity=".2664" offset=".8603"/>
   <stop stop-color="#fff" stop-opacity=".25" offset="1"/>
  </linearGradient>
 </defs>
 <g transform="translate(.012148 .006713)" fill="#0071ff">
  <g transform="matrix(.26459 0 0 .26459 342.62 .0018743)">
   <path d="m2133.8 152.2c-1.6001 0.06-3.2803-0.22963-4.6804 0.59039l-48.381 25.381c-3.9202 1.9-7.6811 4.4897-9.9409 8.2901-3.2601 5.3302-3.0407 12.13-0.8906 17.83 1.71 4.8202 5.4509 8.4513 9.091 11.871l41.832-21.871v194.92c7.1303 3.0801 15.29 3.65 22.901 2.36 6.3903-0.94001 11.75-6.6304 11.86-13.161v-226.21z"/>
   <path d="m1957.6 177.36c-2.27-0.01-4.5381 0.1836-6.7664 0.57424-5.9402 0.95006-10.971 6.3502-10.92 12.46v64.023h-59.982c-5.8802-0.21-11.86 3.599-13.38 9.4091-1.9801 7.5303-0.3704 15.382 1.1397 22.842h72.222v78.483c7.1503 3.0802 15.41 3.9698 22.97 1.9498 5.5202-1.5201 9.3498-7.09 9.2801-12.74v-67.692h56.782c4.1701 0.04 8.6305 0.23933 12.421-1.8808 3.5201-1.8001 5.8302-5.4605 6.5202-9.3004 1.3301-7.0002-0.1712-14.179-1.4312-21.07h-74.292v-73.983c-4.5721-2.0489-9.5696-3.0534-14.564-3.0748z"/>
  </g>
  <path d="m808.86 0.0079926c2.3706 0.0133 4.6374 0.97352 6.2964 2.667l126.99-0.0232c3.4042 3e-3 6.163 2.762 6.1662 6.1662v114.66c-0.0127 3.4002-2.766 6.1535-6.1662 6.1662h-126.99c-1.5946 1.6246-3.754 2.5722-6.0291 2.6458h133.02c4.8676 2e-3 8.8141-3.9444 8.8126-8.812v-114.64c0.0227-4.8806-3.932-8.847-8.8126-8.8388z" stroke-width=".70557"/>
 </g>
</svg>
