<svg width="800" height="88.212" version="1.1" viewBox="0 0 800 88.212" xml:space="preserve" xmlns="http://www.w3.org/2000/svg"><path d="m183.2 88.212 14.287-67.456h-13.369l-10.715 50.312-35.004-50.312h-14.695l-14.287 67.456h13.267l10.409-49.189 36.33 49.189z" fill="#00838d" style="white-space:pre"/><path d="m249.23 88.212c17.859 0 24.492-2.6533 27.35-16.124l7.4498-35.208c0.4082-2.2451 0.71436-4.0821 0.71436-5.8169 0-8.4703-6.3272-10.307-21.227-10.307h-31.534c-17.655 0-24.39 2.6534-27.248 16.124l-7.4498 35.208c-0.51027 2.2452-0.71436 4.1842-0.71436 5.817 0 8.3682 6.2252 10.307 21.125 10.307zm14.185-18.88c-1.6328 7.5518-5.4088 9.2867-15.818 9.2867h-24.186c-8.7765 0-12.042-1.2246-12.042-5.8169 0-1.0206 0.10209-2.1431 0.4082-3.4698l6.2252-29.595c1.6328-7.7559 5.6129-9.3888 15.716-9.3888h24.186c8.6744 0 12.144 1.2246 12.144 6.021 0 0.91846-0.10209 2.0411-0.40822 3.3677z" fill="#00838d" style="white-space:pre"/><path d="m373.32 88.212 39.698-67.456h-13.879l-31.33 55.108-8.4703-55.108h-14.185l-32.146 55.108-7.756-55.108h-14.9l11.022 67.456h16.737l29.901-51.128 8.5724 51.128z" fill="#00838d" style="white-space:pre"/><path d="m476.19 88.212 12.246-57.863h27.452l2.041-9.5929h-69.089l-2.041 9.5929h27.758l-12.246 57.863z" fill="#00838d" style="white-space:pre"/><path d="m557.22 88.212 46.23-67.456h-14.593l-37.453 55.72-13.267-55.72h-15.716l17.451 67.456z" fill="#00838d" style="white-space:pre"/><path d="m702.74 88.212 14.287-67.456h-13.981l-6.1231 28.779h-47.046l6.1231-28.779h-13.981l-14.287 67.456h13.981l6.1231-29.085h47.046l-6.1231 29.085z" fill="#00838d" style="white-space:pre"/><path d="m764.49 88.212c17.961 0 24.492-2.8575 27.35-16.124l7.4498-35.208c0.40821-2.1431 0.71437-4.0821 0.71437-5.7149 0-8.4703-6.4293-10.409-21.227-10.409h-50.72l-14.287 67.456zm14.083-18.88c-1.5308 7.3478-5.7149 9.2867-15.716 9.2867h-33.167l10.307-48.271h33.167c8.5724 0 12.042 1.3267 12.042 6.1231 0 0.91847-0.20411 2.041-0.40822 3.2656z" fill="#00838d" style="white-space:pre"/><path d="m73.132 88.212c18.15 0 25.089-5.605 28.025-19.084l2.8025-13.212c0.40035-1.7349 0.53381-3.3363 0.53381-4.9377 0-8.4075-5.7385-13.212-18.416-13.212h-49.111c-5.8719 0-8.541-2.1352-8.541-6.2723 0-0.66726 0.13346-1.468 0.2669-2.2687l1.6014-7.073c1.468-6.8061 4.2705-9.6086 13.212-9.6086h64.057l2.669-12.545h-67.66c-19.884 0-25.756 5.2046-28.692 18.95l-3.0694 14.413c-0.26691 1.468-0.53381 2.8025-0.53381 4.0036 0 8.0072 6.2723 12.811 18.55 12.811h49.511c5.4716 0 8.1406 2.1352 8.1406 6.1388 0 0.66723-0.13345 1.468-0.26691 2.4021l-1.468 7.3399c-1.468 6.9395-4.6708 9.6086-13.078 9.6086h-69.128l-2.5356 12.545z" fill="#00838d" style="white-space:pre"/></svg>
