<svg width="800" height="116.94" version="1.1" viewBox="0 0 800 116.94" xml:space="preserve" xmlns="http://www.w3.org/2000/svg"><path d="m242.87 116.94 18.941-89.428h-17.723l-14.206 66.699-46.405-66.699h-19.482l-18.941 89.428h17.588l13.8-65.211 48.164 65.211z" fill="#00838d" style="white-space:pre"/><path d="m330.4 116.94c23.676 0 32.47-3.5176 36.258-21.376l9.8763-46.676c0.54115-2.9764 0.94703-5.4117 0.94703-7.7116 0-11.229-8.3881-13.664-28.141-13.664h-41.805c-23.405 0-32.335 3.5176-36.123 21.376l-9.8763 46.676c-0.67647 2.9764-0.94704 5.547-0.94704 7.7117 0 11.094 8.2528 13.664 28.005 13.664zm18.806-25.029c-2.1647 10.012-7.1705 12.312-20.97 12.312h-32.064c-11.635 0-15.964-1.6235-15.964-7.7116 0-1.353 0.13534-2.8412 0.54116-4.5999l8.2528-39.235c2.1647-10.282 7.441-12.447 20.835-12.447h32.064c11.5 0 16.1 1.6235 16.1 7.9822 0 1.2176-0.13535 2.7059-0.54119 4.4646z" fill="#00838d" style="white-space:pre"/><path d="m494.92 116.94 52.628-89.428h-18.4l-41.535 73.058-11.229-73.058h-18.806l-42.617 73.058-10.282-73.058h-19.753l14.612 89.428h22.188l39.64-67.781 11.365 67.781z" fill="#00838d" style="white-space:pre"/><path d="m631.29 116.94 16.235-76.71h36.393l2.7058-12.717h-91.592l-2.7058 12.717h36.799l-16.235 76.71z" fill="#00838d" style="white-space:pre"/><path d="m738.71 116.94 61.287-89.428h-19.347l-49.652 73.869-17.588-73.869h-20.835l23.135 89.428z" fill="#00838d" style="white-space:pre"/><path d="m96.952 116.94c24.061 0 33.261-7.4306 37.153-25.3l3.7153-17.515c0.53075-2.3 0.70768-4.423 0.70768-6.546 0-11.146-7.6076-17.515-24.415-17.515h-65.107c-7.7845 0-11.323-2.8307-11.323-8.3152 0-0.8846 0.17693-1.9461 0.35383-3.0076l2.123-9.3768c1.9461-9.023 5.6614-12.738 17.515-12.738h84.922l3.5384-16.631h-89.698c-26.361 0-34.146 6.8999-38.038 25.123l-4.0692 19.107c-0.35384 1.9461-0.70768 3.7153-0.70768 5.3076 0 10.615 8.3152 16.984 24.592 16.984h65.637c7.2537 0 10.792 2.8307 10.792 8.1383 0 0.88456-0.17692 1.9461-0.35385 3.1845l-1.9461 9.7306c-1.9461 9.1998-6.1922 12.738-17.338 12.738h-91.645l-3.3615 16.63z" fill="#00838d" style="white-space:pre"/></svg>
