<svg width="37.152mm" height="13.519mm" version="1.1" viewBox="0 0 131.64 47.901" xmlns="http://www.w3.org/2000/svg">
 <defs>
  <linearGradient id="a" x1="19.951" x2="20.069" y1="-.31868" y2="39.33" gradientUnits="userSpaceOnUse">
   <stop stop-color="#5a0200" offset="0"/>
   <stop stop-color="#d31930" offset="1"/>
  </linearGradient>
 </defs>
 <g transform="translate(-311.32 -474.13)">
  <path transform="translate(311.32 474.13)" d="m19.629 0c-10.825 0-19.629 8.8096-19.629 19.635 0 10.825 8.8037 19.629 19.629 19.629 10.825 0 19.633-8.8037 19.633-19.629 0-10.825-8.8076-19.635-19.633-19.635z" fill="url(#a)"/>
  <path d="m441.78 520.4-1.1572-1.4844 2.2461-2.0264h-0.91796l-2.7002 2.5049v-2.5049h-0.70801v5.0195h0.70801v-1.7529l0.88867-0.78125 0.80566 1.0596 1.1182 1.4746h0.89843z" fill="#d31930"/>
  <path d="m437.64 521.27c-0.0195-0.12213-0.0341-0.24902-0.039-0.37109-5e-3 -0.12695-0.01-0.25391-0.0244-0.37598-0.0146-0.12212-0.0341-0.23926-0.0586-0.35156 0-5e-3 -5e-3 -0.01-5e-3 -0.0146-0.0293-0.10737-0.0684-0.20509-0.12212-0.28809-0.0586-0.0976-0.13673-0.17578-0.23438-0.23926-0.0976-0.0684-0.22461-0.11225-0.37597-0.1416v-0.0146c0.32226-0.083 0.55663-0.23925 0.70312-0.46875 0.15137-0.22949 0.2246-0.49805 0.2246-0.80077 0-0.41504-0.14647-0.73243-0.42969-0.9668-0.28807-0.23438-0.68358-0.35157-1.1963-0.35157h-2.5049v5.0244h0.708v-2.1436h1.7334c0.1709 0 0.3125 0.0195 0.41993 0.0684 0.0684 0.039 0.12695 0.0781 0.18066 0.12695 0.0244 0.0195 0.0489 0.0489 0.0733 0.0733 0.0635 0.0781 0.10738 0.17577 0.13672 0.28808 0.0341 0.11225 0.0586 0.22462 0.0781 0.34668 0.0244 0.12212 0.039 0.24902 0.044 0.37597 5e-3 0.12697 0.01 0.24415 0.0146 0.35157 5e-3 0.11225 0.0195 0.20996 0.0341 0.30273 0.0195 0.0879 0.0489 0.15625 0.0976 0.20997h0.7959c-0.0781-0.083-0.13183-0.18067-0.1709-0.29298-0.0341-0.11225-0.0635-0.22949-0.083-0.34667m-1.0107-2.2412c-0.11225 0.0684-0.24413 0.11225-0.39062 0.13672-0.15625 0.0244-0.30761 0.0341-0.47363 0.0341h-1.4062c-0.0244-0.01-0.0489-0.0146-0.0733-0.0244v-1.7285h1.7627c0.33203 0 0.57618 0.0781 0.72754 0.23926 0.14649 0.16114 0.21973 0.36621 0.21973 0.62011 0 0.18555-0.0341 0.33204-0.0976 0.44923-0.0684 0.11225-0.15625 0.20507-0.26856 0.27344" fill="#d31930"/>
  <path d="m432.8 518.41c-0.10737-0.31737-0.26856-0.5957-0.4834-0.83984-0.20996-0.24415-0.47851-0.43946-0.7959-0.58593-0.32226-0.14649-0.68847-0.21973-1.1133-0.21973-0.4248 0-0.79589 0.0732-1.1133 0.21973-0.31739 0.14647-0.58594 0.34178-0.80079 0.58593-0.12212 0.1416-0.2246 0.29785-0.3125 0.46387-0.0684 0.11712-0.12212 0.24413-0.16601 0.37597-0.10737 0.31739-0.16112 0.64454-0.16112 0.98633 0 0.34668 0.0538 0.67383 0.16112 0.99121 0.10738 0.31739 0.26856 0.59571 0.47851 0.83985 0.21485 0.24414 0.4834 0.43945 0.80079 0.58105s0.68848 0.20996 1.1133 0.20996c0.42481 0 0.79102-0.0684 1.1133-0.20996 0.31739-0.1416 0.58594-0.33691 0.7959-0.58105 0.21484-0.24414 0.37598-0.52246 0.4834-0.83985 0.10738-0.31738 0.16113-0.64453 0.16113-0.99121 0-0.22949-0.0244-0.4541-0.0733-0.66894-0.0244-0.10738-0.0537-0.21485-0.0879-0.31739m-0.64934 1.7383c-0.0733 0.24414-0.18555 0.46386-0.33204 0.66406-0.14649 0.19531-0.33691 0.35644-0.57617 0.47851-0.23438 0.11713-0.50782 0.17578-0.83497 0.17578-0.32226 0-0.60057-0.0586-0.83495-0.17578-0.23437-0.12212-0.42968-0.2832-0.57617-0.47851-0.15138-0.2002-0.25879-0.41992-0.32715-0.66406-0.0733-0.24415-0.10738-0.49805-0.10738-0.75196 0-0.2539 0.0341-0.50293 0.10738-0.74707 0.0537-0.19531 0.13671-0.38086 0.24414-0.542 0.0244-0.039 0.0537-0.083 0.083-0.12212 0.14648-0.20019 0.3418-0.35644 0.57617-0.47851 0.23438-0.11713 0.51269-0.17578 0.83495-0.17578 0.32715 0 0.60059 0.0586 0.83496 0.17578 0.23927 0.12212 0.42969 0.27832 0.57618 0.47851 0.13184 0.1709 0.23437 0.3711 0.30274 0.58106 0.01 0.0292 0.0195 0.0537 0.0293 0.083 0.0635 0.24414 0.1025 0.49316 0.1025 0.74706 0 0.25392-0.039 0.50782-0.1025 0.75195" fill="#d31930"/>
  <path d="m426.88 517.91-0.82031 3.1592h-0.0195l-0.91798-3.2471-0.25879-0.93263h-0.77148l-0.24903 0.88868-0.94237 3.291h-0.0146l-0.83007-3.3057-0.21485-0.87403h-0.72754l0.23926 0.87403 1.1279 4.1455h0.74218l1.2012-4.1162 0.0293-0.1025h0.0146l0.0293 0.1025 1.1914 4.1162h0.7373l1.123-3.9551 0.30273-1.0644h-0.70801z" fill="#d31930"/>
  <path d="m416.36 517.45h1.7773v4.4629h0.708v-4.4629h1.7774v-0.56153h-4.2627z" fill="#d31930"/>
  <path d="m412.69 519.61h2.7686v-0.56642h-2.7686v-1.5967h2.9736v-0.56153h-3.6865v5.0244h3.706v-0.56153h-2.9932z" fill="#d31930"/>
  <path d="m410.59 519.03v1.9336h-0.0195l-1.1963-1.7383-1.6113-2.334h-0.75195v5.0195h0.67383v-4.0283h0.0146l0.99121 1.4404 1.792 2.5879h0.77636v-5.0195h-0.66894z" fill="#d31930"/>
  <path d="m400.55 519.83h1.6992v0.0879c0 0.19532-0.0292 0.38575-0.0928 0.55665-0.0781 0.20019-0.19043 0.37598-0.33692 0.52247-0.14649 0.14647-0.32715 0.26366-0.53711 0.34667-0.21484 0.0879-0.46386 0.12695-0.74219 0.12695-0.29785 0-0.55664-0.0537-0.78614-0.16112-0.22948-0.11225-0.41991-0.2588-0.57616-0.44923-0.15137-0.18066-0.26856-0.39551-0.34669-0.63965-0.0146-0.0341-0.0195-0.0732-0.0341-0.11225-0.0586-0.20507-0.0879-0.41991-0.0879-0.64452 0-0.26857 0.0341-0.52735 0.10738-0.78614 0.0684-0.2539 0.17579-0.4834 0.32227-0.67871 0.14648-0.20019 0.33692-0.36133 0.57129-0.4834 0.22949-0.12213 0.50781-0.18067 0.83008-0.18067 0.2002 0 0.38573 0.0195 0.56152 0.0635 0.18066 0.0489 0.33691 0.11225 0.47851 0.20508 0.13673 0.0879 0.25392 0.2002 0.35157 0.33692 0.0927 0.1416 0.15625 0.30762 0.19043 0.49804h0.71289c-0.0538-0.29785-0.1416-0.54687-0.2832-0.75684-0.13672-0.20994-0.30762-0.38084-0.50781-0.51757-0.2002-0.13671-0.42969-0.23437-0.68849-0.29785-0.2539-0.0635-0.52733-0.0976-0.81542-0.0976-0.41993 0-0.79102 0.0733-1.1084 0.22462-0.31738 0.14648-0.58105 0.34667-0.79101 0.5957-0.20997 0.24413-0.37111 0.53711-0.47852 0.86913-0.10737 0.32715-0.16114 0.67872-0.16114 1.0449 0 0.21485 0.0244 0.4248 0.0781 0.62989 0.0244 0.10737 0.0538 0.20996 0.0928 0.31737 0.11225 0.30274 0.28321 0.57618 0.50293 0.81055 0.21972 0.23438 0.4834 0.41993 0.80079 0.56153 0.3125 0.13671 0.66893 0.20507 1.0644 0.20507 0.3125 0 0.625-0.0538 0.93261-0.1709 0.3125-0.11712 0.5713-0.30272 0.77637-0.5664l0.19043 0.62011h0.44434v-2.6416h-2.334z" fill="#d31930"/>
  <path d="m396.74 520.16v0.81055h-0.0146l-2.8076-4.0772h-0.75195v5.0244h0.66894v-4.0332h0.0146l1.5625 2.2607 1.2256 1.7725h0.77636v-5.0244h-0.67383z" fill="#d31930"/>
  <path d="m391.8 516.89v5.0195h0.71289v-5.0195z" fill="#d31930"/>
  <path d="m386.91 517.45h1.7773v4.4629h0.70801v-4.4629h1.7773v-0.56153h-4.2627z" fill="#d31930"/>
  <path d="m386.16 519.51c-0.16113-0.10737-0.34179-0.19531-0.54687-0.2539-0.20508-0.0684-0.41016-0.12212-0.625-0.1709-0.20995-0.044-0.41992-0.0879-0.625-0.12695-0.20019-0.039-0.38574-0.0928-0.54688-0.15137-0.16113-0.0586-0.29296-0.1416-0.38574-0.23925l-0.0586-0.0586c-0.0586-0.0879-0.0879-0.19532-0.0879-0.31739 0-0.16114 0.0341-0.29785 0.1025-0.41016 0.0635-0.11225 0.15625-0.19532 0.26368-0.26367 0.11225-0.0635 0.23926-0.11225 0.38575-0.1416 0.14647-0.0244 0.29296-0.039 0.43945-0.039 0.37108 0 0.66893 0.0781 0.9082 0.23925 0.23926 0.16114 0.37597 0.42482 0.41503 0.78614h0.67383c-0.01-0.27344-0.0684-0.5127-0.17089-0.71289-0.1025-0.2002-0.24415-0.36621-0.41505-0.49805-0.17577-0.13183-0.38085-0.22461-0.62011-0.28808-0.22949-0.0586-0.48827-0.0928-0.76171-0.0928-0.24415 0-0.47853 0.0293-0.7129 0.0879-0.22949 0.0635-0.43456 0.14648-0.62011 0.26855-0.17579 0.11712-0.32715 0.27343-0.43458 0.45898-0.10737 0.18554-0.16596 0.40527-0.16596 0.65917 0 0.0586 5e-3 0.11712 0.01 0.16602 0.0195 0.15625 0.0684 0.29297 0.13672 0.40527 0.0976 0.15137 0.22949 0.27343 0.38574 0.3711 0.16601 0.0976 0.34669 0.17577 0.55176 0.23437 0.20508 0.0586 0.41015 0.11225 0.625 0.15625 0.20997 0.044 0.41993 0.0879 0.62012 0.12695 0.20507 0.044 0.39062 0.0976 0.55176 0.16601 0.16112 0.0684 0.29296 0.15625 0.39062 0.26368 0.0928 0.10737 0.14649 0.24902 0.14649 0.42481 0 0.18066-0.044 0.33203-0.12212 0.44921-0.083 0.11713-0.18555 0.20997-0.31739 0.27833-0.12695 0.0684-0.27344 0.11225-0.43456 0.14647-0.16114 0.0244-0.32228 0.039-0.4834 0.039-0.19532 0-0.39063-0.0244-0.58107-0.0733-0.19042-0.044-0.35643-0.11712-0.49316-0.20996-0.1416-0.1025-0.25879-0.22949-0.34667-0.38085-0.083-0.15137-0.13184-0.33691-0.13184-0.542h-0.66895c0 0.30274 0.0537 0.56641 0.1709 0.79103 0.11712 0.21972 0.27832 0.40526 0.4834 0.54687 0.2002 0.1416 0.42969 0.24901 0.69825 0.31738 0.26855 0.0733 0.55175 0.10737 0.8496 0.10737 0.24415 0 0.48829-0.0293 0.73731-0.083 0.24414-0.0538 0.46875-0.13671 0.66894-0.25879 0.19531-0.11712 0.36133-0.27343 0.48829-0.46386 0.12695-0.19044 0.19042-0.41992 0.19042-0.6836 0-0.24902-0.0489-0.45897-0.14649-0.62011-0.0976-0.16601-0.22948-0.30274-0.39062-0.41016" fill="#d31930"/>
  <path d="m380.2 516.89h-0.78125l-0.52734 1.2646-1.5527 3.7598h0.72266l0.60059-1.5137h2.251l0.58594 1.5137h0.78612l-1.5234-3.667zm-1.3135 2.9492 0.63965-1.6602 0.26367-0.68359h0.0147l0.26856 0.71289 0.62011 1.6309z" fill="#d31930"/>
  <path d="m376.49 520.6c-0.0732 0.18066-0.17579 0.33202-0.30762 0.46386-0.13672 0.12695-0.29297 0.22949-0.47363 0.30274-0.18067 0.0733-0.39063 0.10737-0.62012 0.10737-0.32227 0-0.5957-0.0538-0.8252-0.16602-0.22949-0.11713-0.41504-0.26367-0.5664-0.4541-0.14649-0.19043-0.24903-0.41504-0.32227-0.66894-0.0684-0.2588-0.10254-0.52735-0.10254-0.81544 0-0.26367 0.0342-0.51269 0.10254-0.75684 0.0391-0.1416 0.0928-0.26855 0.16113-0.39062 0.0488-0.0927 0.10254-0.18066 0.16114-0.26366 0.15136-0.19044 0.33691-0.3418 0.56152-0.45412 0.22949-0.11225 0.50293-0.16601 0.82031-0.16601 0.37598 0 0.69336 0.0879 0.9668 0.26856 0.19531 0.12695 0.33691 0.29785 0.43457 0.52245 0.0342 0.0879 0.0684 0.17579 0.0928 0.27833h0.70801c-0.0147-0.1025-0.0391-0.19043-0.0635-0.2832-0.0488-0.15138-0.10743-0.29298-0.19043-0.42481-0.12695-0.20508-0.28809-0.37598-0.4834-0.50782-0.19531-0.13671-0.41504-0.23925-0.66895-0.3125-0.24901-0.0684-0.51268-0.10737-0.78612-0.10737-0.41016 0-0.77148 0.0733-1.0889 0.20995-0.31738 0.13672-0.58105 0.32715-0.79101 0.56152-0.18555 0.20997-0.32715 0.44923-0.43457 0.71778-0.0146 0.044-0.0342 0.0879-0.0488 0.12695-0.10743 0.32227-0.16113 0.66406-0.16113 1.0303 0 0.36622 0.0488 0.70802 0.15136 1.0303 0.10254 0.31739 0.25391 0.5957 0.45899 0.83007 0.20508 0.23438 0.46386 0.41993 0.7666 0.55177 0.3125 0.13183 0.67383 0.19531 1.084 0.19531 0.6836 0 1.2207-0.1709 1.6162-0.52246 0.39063-0.35644 0.625-0.84473 0.69336-1.4795h-0.708c-0.0195 0.20507-0.0635 0.40039-0.13672 0.57617" fill="#d31930"/>
  <path d="m371.29 517.48c-0.43945-0.39551-1.0742-0.59083-1.8945-0.59083h-1.8311v5.0244h1.8311c0.44434 0 0.82519-0.0586 1.1523-0.17578 0.32227-0.11712 0.59082-0.28809 0.7959-0.5127 0.20996-0.21972 0.36621-0.49805 0.46387-0.82031 0.10254-0.32715 0.15137-0.70313 0.15137-1.123 0-0.36133-0.0488-0.6787-0.13672-0.96191-0.1123-0.34179-0.28321-0.62012-0.53223-0.83984m-0.1416 2.6856c-0.0684 0.21972-0.15625 0.40039-0.25879 0.54199-0.10254 0.14648-0.22461 0.26367-0.35645 0.34667-0.13183 0.083-0.26367 0.15138-0.3955 0.19531-0.13672 0.044-0.26368 0.0733-0.38575 0.083-0.11718 0.0146-0.21972 0.0195-0.29785 0.0195h-1.1816v-3.9014h1.1963c0.32715 0 0.60547 0.044 0.83008 0.13184 0.22461 0.083 0.41016 0.20996 0.54687 0.38086 0.10743 0.11713 0.18555 0.25879 0.24903 0.41504 0.0195 0.0586 0.0439 0.12212 0.0586 0.18554 0.0635 0.23926 0.0928 0.50781 0.0928 0.81055 0 0.30762-0.0342 0.57128-0.0977 0.79101" fill="#d31930"/>
  <path d="m364.96 516.89h-0.78125l-1.0107 2.4414-1.0644 2.583h0.72265l0.59571-1.5137h2.2559l0.58593 1.5137h0.78125l-1.2256-2.9639zm-1.3135 2.9492 0.23925-0.61524 0.66407-1.7285h0.0146l0.58593 1.5478 0.30274 0.7959z" fill="#d31930"/>
  <path d="m361.53 517.57c-0.20996-0.24415-0.47852-0.43946-0.7959-0.58593-0.31738-0.14649-0.68848-0.21973-1.1133-0.21973-0.42481 0-0.7959 0.0732-1.1133 0.21973-0.31739 0.14647-0.58594 0.34178-0.7959 0.58593-0.21973 0.24414-0.37598 0.52247-0.48828 0.83984-0.10743 0.31739-0.15625 0.64454-0.15625 0.98633 0 0.29786 0.0391 0.59082 0.12695 0.86915 0.01 0.044 0.0195 0.083 0.0293 0.12212 0.1123 0.31738 0.26856 0.5957 0.48828 0.83984 0.20996 0.24414 0.47852 0.43945 0.7959 0.58105 0.31738 0.14649 0.68848 0.21485 1.1133 0.21485 0.42481 0 0.7959-0.0684 1.1133-0.21485 0.31738-0.1416 0.58594-0.33691 0.7959-0.58105 0.21484-0.24414 0.37597-0.52246 0.4834-0.83985 0.0928-0.27344 0.1416-0.55664 0.15625-0.8496 0-0.0489 5e-3 -0.0927 5e-3 -0.14161 0-0.34179-0.0537-0.66894-0.16113-0.98633-0.10743-0.31737-0.26856-0.5957-0.4834-0.83984m-0.0781 2.085c-0.0147 0.16601-0.0439 0.32713-0.0928 0.49316-0.0684 0.24902-0.17578 0.46875-0.32715 0.66406s-0.3418 0.35644-0.57617 0.47851c-0.23438 0.11713-0.5127 0.17578-0.83496 0.17578-0.32715 0-0.60059-0.0586-0.83985-0.17578-0.22949-0.12212-0.4248-0.2832-0.57129-0.47851-0.1416-0.18555-0.24414-0.39062-0.3125-0.61524-5e-3 -0.0146-0.0147-0.0341-0.0195-0.0489-0.0684-0.24902-0.10254-0.49805-0.10254-0.75195 0-0.24902 0.0342-0.50293 0.10254-0.74707 0.0732-0.24414 0.18067-0.46875 0.33203-0.66406 0.14649-0.2002 0.3418-0.35645 0.57129-0.47852 0.23926-0.11712 0.5127-0.17578 0.83985-0.17578 0.32226 0 0.60058 0.0586 0.83496 0.17578 0.23437 0.12213 0.4248 0.27832 0.57617 0.47852 0.15137 0.19531 0.25879 0.41992 0.32715 0.66406 0.0732 0.24414 0.10742 0.49805 0.10742 0.74707 0 0.0879-0.01 0.1709-0.0146 0.25879" fill="#d31930"/>
  <path d="m356.51 521.27c-0.0195-0.12213-0.0342-0.24902-0.0391-0.37109-5e-3 -0.12695-0.01-0.25391-0.0195-0.37598-0.01-0.0635-0.0147-0.12212-0.0293-0.18066-0.01-0.0586-0.0195-0.11712-0.0342-0.1709-0.0293-0.11225-0.0732-0.21485-0.12695-0.30274-0.0586-0.0976-0.13672-0.17577-0.23437-0.23926-0.0928-0.0684-0.21973-0.11225-0.37598-0.1416v-0.0146c0.32715-0.083 0.56152-0.23925 0.70801-0.46875 0.14648-0.22948 0.21972-0.49805 0.21972-0.80077 0-0.41504-0.1416-0.73243-0.42968-0.9668-0.28809-0.23437-0.6836-0.35156-1.1914-0.35156h-2.5098v5.0244h0.71289v-2.1436h1.7285c0.17578 0 0.31738 0.0195 0.41992 0.0684 0.10254 0.0537 0.19043 0.11713 0.25391 0.20019 0.0635 0.0781 0.11229 0.17579 0.1416 0.28809 5e-3 0.0195 0.01 0.044 0.0147 0.0684 0.0195 0.0879 0.0439 0.18066 0.0586 0.27832 0.0293 0.12213 0.0391 0.24903 0.0439 0.37598 5e-3 0.12695 0.01 0.24413 0.0147 0.35156 5e-3 0.11225 0.0195 0.20996 0.0342 0.30274 0.0195 0.0879 0.0537 0.15625 0.10253 0.20996h0.79102c-0.0732-0.083-0.13184-0.18068-0.16602-0.29298-0.0391-0.11225-0.0684-0.22948-0.0879-0.34667m-1.0107-2.2412c-0.1123 0.0684-0.24414 0.11225-0.39551 0.13671-0.14648 0.0244-0.30273 0.0341-0.46875 0.0341h-1.4746v-1.7529h1.7578c0.33203 0 0.57617 0.0781 0.72265 0.23927 0.15137 0.16112 0.2295 0.3662 0.2295 0.62011 0 0.18555-0.0342 0.33202-0.10254 0.44921-0.0684 0.11225-0.15625 0.20509-0.26856 0.27344" fill="#d31930"/>
  <path d="m350.79 519.26v-0.0146c0.2539-0.0927 0.44922-0.23926 0.58594-0.43457 0.13671-0.19531 0.20507-0.4248 0.20507-0.69336 0-0.2539-0.0586-0.46875-0.18066-0.63964-0.12208-0.1709-0.26856-0.30763-0.44434-0.41016-0.083-0.044-0.17578-0.083-0.28808-0.1025-0.1123-0.0244-0.23438-0.039-0.36133-0.0538-0.13184-0.0146-0.26367-0.0195-0.39551-0.0244h-2.2998v5.0244h2.5781c0.25879 0 0.49317-0.039 0.69336-0.12695 0.20508-0.0781 0.3711-0.18555 0.50781-0.32226 0.13672-0.12695 0.23926-0.2832 0.3125-0.45899 0.0635-0.16114 0.0977-0.32715 0.10254-0.49805v-0.039c0-0.30761-0.0879-0.57129-0.25879-0.78613-0.17578-0.21485-0.4248-0.35645-0.75683-0.41992m-2.4707-1.8115h1.4209c0.15137 0 0.29785 0.01 0.43457 0.0244 0.13672 0.0146 0.25879 0.0538 0.36133 0.11225 0.10743 0.0537 0.19043 0.13184 0.24903 0.23927 0.0586 0.1025 0.0879 0.24413 0.0879 0.41991 0 0.26856-0.0879 0.46875-0.26368 0.60547-0.18066 0.13184-0.46875 0.19532-0.86914 0.19532h-1.4209zm2.7734 3.0518c-0.01 0.2539-0.0977 0.45897-0.25879 0.60546-0.17578 0.16114-0.4248 0.24414-0.7373 0.24414h-1.7774v-1.7383h1.6211c0.15137 0 0.29297 0.0146 0.42969 0.0341 0.1416 0.0292 0.26367 0.0732 0.37109 0.13671 0.10742 0.0586 0.19531 0.14649 0.25879 0.25879 0.0635 0.10738 0.0977 0.24415 0.0977 0.40528 0 0.0195-5e-3 0.0341-5e-3 0.0538" fill="#d31930"/>
  <path d="m339.72 520.02v-0.40527h2.7734v-0.56642h-2.7734v-1.5967h2.9736v-0.56153h-3.6816v5.0244h3.7012v-0.56153h-2.9932z" fill="#d31930"/>
  <path d="m334.85 519.43v2.4805h0.70801v-2.2998h2.4463v-0.56642h-2.4463v-1.5967h2.793v-0.56153h-3.501z" fill="#d31930"/>
  <path d="m333.41 516.89v5.0195h0.70801v-5.0195z" fill="#d31930"/>
  <path d="m329.85 518.48v-1.5869h-0.70801v5.0244h3.5303v-0.56153h-2.8223z" fill="#d31930"/>
  <path d="m327.57 518.15v2.8125h-0.0146l-2.0508-2.9736-0.76172-1.0986h-0.75196v5.0244h0.67383v-4.0332h0.0147l0.0439 0.0684 2.7393 3.9648h0.77637v-5.0244h-0.66895z" fill="#d31930"/>
  <path d="m322.97 517.88c-0.0684-0.1025-0.14161-0.20995-0.22461-0.30273-0.21485-0.24415-0.47852-0.44433-0.80079-0.58593-0.31738-0.14649-0.68847-0.21973-1.1133-0.21973-0.41992 0-0.79101 0.0732-1.1084 0.21973-0.32226 0.1416-0.58593 0.34178-0.80078 0.58593-0.0928 0.1025-0.17578 0.21484-0.24414 0.33203-0.0977 0.15625-0.17578 0.32715-0.23926 0.50781-0.10742 0.31739-0.16113 0.64454-0.16113 0.98633 0 0.34668 0.0537 0.67383 0.16113 0.99121 0.10743 0.31739 0.26856 0.59571 0.4834 0.83985 0.21485 0.24414 0.47852 0.43945 0.80078 0.58105 0.31739 0.1416 0.68848 0.21485 1.1084 0.21485 0.42481 0 0.7959-0.0733 1.1133-0.21485 0.32227-0.1416 0.58594-0.33691 0.80079-0.58105 0.21484-0.24414 0.37597-0.52246 0.48339-0.83985 0.10743-0.31738 0.16114-0.64453 0.16114-0.99121 0-0.34179-0.0537-0.66894-0.16114-0.98633-0.0684-0.19042-0.15136-0.37109-0.25878-0.53711m-0.39551 2.2754c-0.0684 0.24414-0.18067 0.46386-0.33203 0.66406-0.14649 0.19531-0.33692 0.35644-0.57129 0.47851-0.23438 0.11713-0.5127 0.17578-0.83985 0.17578-0.32226 0-0.60058-0.0586-0.83496-0.17578-0.23437-0.12212-0.4248-0.2832-0.57617-0.47851-0.14648-0.2002-0.25879-0.41992-0.32715-0.66406-0.0684-0.24415-0.10254-0.49805-0.10254-0.75196 0-0.2539 0.0342-0.50293 0.10254-0.74707 0.0684-0.24902 0.18067-0.46875 0.32715-0.66406 0.0293-0.039 0.0586-0.0733 0.0879-0.1025 0.13672-0.15137 0.29785-0.27344 0.48828-0.37597 0.23438-0.11713 0.5127-0.17579 0.83496-0.17579 0.32715 0 0.60547 0.0586 0.83985 0.17579 0.18554 0.0976 0.33691 0.21483 0.46875 0.35643 0.0391 0.039 0.0732 0.0781 0.10253 0.12213 0.15137 0.19531 0.26367 0.41504 0.33203 0.66406 0.0684 0.24415 0.10254 0.49316 0.10254 0.74708 0 0.2539-0.0342 0.50781-0.10254 0.75195" fill="#d31930"/>
  <path d="m317.18 519.51c-0.16113-0.10737-0.34179-0.19531-0.54687-0.2539-0.20508-0.0684-0.41504-0.12212-0.625-0.1709-0.20996-0.044-0.41992-0.0879-0.625-0.12695-0.20508-0.039-0.38575-0.0928-0.54688-0.15137-0.16113-0.0586-0.29297-0.1416-0.38574-0.23925-0.10254-0.0928-0.15137-0.21485-0.15137-0.37599 0-0.16113 0.0391-0.29785 0.10254-0.41015 0.0684-0.11225 0.15625-0.19531 0.26856-0.26368 0.1123-0.0635 0.24414-0.11225 0.38574-0.1416 0.14648-0.0244 0.29297-0.039 0.43945-0.039 0.37109 0 0.67383 0.0781 0.9082 0.23927 0.14649 0.1025 0.25879 0.24902 0.33203 0.4248 0.0391 0.10737 0.0684 0.22948 0.0879 0.36132h0.66895c-5e-3 -0.1416-0.0244-0.27344-0.0537-0.3955-0.0293-0.11712-0.0684-0.22461-0.11718-0.31739-0.10254-0.2002-0.23926-0.36621-0.41504-0.49805-0.18067-0.13183-0.38086-0.2246-0.62012-0.28808-0.22949-0.0586-0.4834-0.0928-0.76172-0.0928-0.23926 0-0.47851 0.0293-0.71289 0.0879-0.22949 0.0635-0.43457 0.14648-0.62012 0.26856-0.18066 0.11712-0.32226 0.27344-0.43457 0.45897-0.10742 0.18555-0.16601 0.40528-0.16601 0.65919 0 5e-3 5e-3 0.0146 5e-3 0.0195 0 0.21973 0.0488 0.40528 0.1416 0.55175 0.0977 0.15138 0.22461 0.27344 0.39062 0.3711 0.16114 0.0976 0.3418 0.17578 0.54688 0.23438s0.41016 0.11225 0.625 0.15625c0.20996 0.044 0.41504 0.0879 0.625 0.12695 0.20019 0.044 0.38574 0.0976 0.54687 0.16601 0.16114 0.0684 0.29297 0.15625 0.38575 0.26367 0.0977 0.10738 0.14648 0.24903 0.14648 0.42482 0 0.18066-0.0391 0.33202-0.11719 0.44921-0.083 0.11712-0.18554 0.20996-0.3125 0.27832-0.13183 0.0684-0.27832 0.11225-0.43945 0.14648-0.16113 0.0244-0.32227 0.039-0.4834 0.039-0.20019 0-0.39062-0.0244-0.58105-0.0732-0.19042-0.044-0.35156-0.11726-0.49804-0.20998-0.1416-0.1025-0.25391-0.22949-0.3418-0.38086-0.0879-0.15137-0.13183-0.33692-0.13183-0.54199h-0.66895c0 0.30274 0.0586 0.56641 0.17578 0.79101 0.11719 0.21973 0.27344 0.40528 0.47852 0.54688 0.20019 0.1416 0.43457 0.24902 0.69824 0.31738 0.26856 0.0733 0.55176 0.10738 0.84961 0.10738 0.24414 0 0.48828-0.0293 0.73242-0.083 0.24903-0.0537 0.47364-0.13673 0.67383-0.25879 0.19531-0.11712 0.36133-0.27344 0.4834-0.46387 0.13183-0.19043 0.19043-0.41992 0.19043-0.68359 0-0.24903-0.0439-0.45899-0.1416-0.62013-0.0977-0.16601-0.22461-0.30272-0.39063-0.41015" fill="#d31930"/>
  <path d="m442.92 477.37h-7.7002s5e-3 20.029 0 20.259c-0.2002-0.3125-12.642-20.259-12.642-20.259h-7.7734v33.022h7.6367v-20.127c0.7373 1.1475 12.476 20.117 12.476 20.117h8.0029z" fill="#d31930"/>
  <path d="m380.75 498.1c-0.01-0.0537-0.0292-0.1075-0.039-0.16603-0.0341-0.15136-0.0733-0.30272-0.11713-0.4541-0.0341-0.1416-0.0781-0.27344-0.12212-0.41015-0.0489-0.1416-0.1025-0.28809-0.15625-0.42481-0.0586-0.1416-0.11713-0.27344-0.18066-0.40528-0.0586-0.13182-0.12695-0.26366-0.19531-0.40038-0.0732-0.13184-0.15137-0.26368-0.2295-0.39063-0.0781-0.12695-0.15136-0.24902-0.23437-0.36621-0.0928-0.13671-0.19043-0.26366-0.28809-0.39063-0.0879-0.10737-0.1709-0.21972-0.25879-0.32715-0.11718-0.13182-0.24414-0.25878-0.36621-0.38573-0.0928-0.0928-0.17578-0.19043-0.27343-0.27833-0.14649-0.1416-0.30762-0.27344-0.47364-0.41015-0.0782-0.0684-0.15632-0.1416-0.24421-0.20996-0.25391-0.19043-0.51758-0.38086-0.80078-0.55664-2.0068-1.2549-4.7314-1.8848-7.3633-2.4902-1.2451-0.28808-2.5244-0.58105-3.706-0.9375-1.3916-0.41503-2.4658-0.99608-2.7393-1.4697-0.37597-0.64941-0.30273-1.6406-0.0391-2.2461 0.0684-0.15136 0.15625-0.29296 0.25879-0.42969 0.68359-0.88379 2.1582-1.4307 3.9453-1.4307 1.3574 0 2.6318 0.32715 3.54 0.86915 0.19532 0.122 0.37598 0.24901 0.53711 0.38574 0.2002 0.17577 0.36621 0.36132 0.49805 0.55663 0.39062 0.60059 0.52246 1.2988 0.61523 2.2998l0.0439 0.49316h7.5391l-0.0147-0.56153c-0.0293-0.94238-0.14649-1.8213-0.3418-2.6367-0.24903-1.0449-0.62989-1.9873-1.1475-2.8223-0.25878-0.41993-0.55664-0.81055-0.88378-1.1768-0.34668-0.38573-0.72754-0.7373-1.1524-1.0547-1.9385-1.4892-4.6728-2.3486-8.3594-2.627h-1.6016c-0.76171 0.0489-1.4844 0.13672-2.1777 0.26856-0.0537 0.01-0.10254 0.0195-0.14648 0.0293-0.10254 0.0195-0.2002 0.0439-0.30274 0.0684-0.18066 0.039-0.36133 0.0781-0.53223 0.122-0.29785 0.0781-0.58593 0.16114-0.86425 0.24903-0.91797 0.30274-1.7676 0.69336-2.5586 1.1768-0.17578 0.1025-0.34179 0.20996-0.50781 0.31739-0.10742 0.0781-0.21484 0.14647-0.31738 0.2246-1.0303 0.74707-1.8408 1.5723-2.4512 2.4854-1.1084 1.665-1.5381 3.6328-1.333 6.0108 0.13672 1.5381 0.72265 2.7588 1.377 3.6719 0.49317 0.68359 1.0205 1.1963 1.4209 1.5332 0.4834 0.40039 1.0205 0.74708 1.6016 1.0547 1.8848 1.0108 4.2139 1.5967 6.4893 2.168 1.3623 0.34178 2.7686 0.69823 4.0381 1.1328 1.0205 0.35156 2.4316 0.92772 2.9394 1.8994 0.59082 1.1328 0.19043 2.2461-0.44922 2.9785-0.22949 0.26368-0.48828 0.47852-0.74707 0.625-0.9082 0.53712-2.2168 0.83497-3.6914 0.83497-0.28808 0-0.57129-0.0146-0.85449-0.039-0.083-5e-3 -0.16113-0.0146-0.24414-0.0244-0.20019-0.0195-0.40039-0.039-0.59082-0.0732-0.0879-0.01-0.1709-0.0292-0.25391-0.044-0.19043-0.0341-0.37597-0.0732-0.55664-0.11713-0.0732-0.0195-0.1416-0.039-0.21484-0.0537-0.19531-0.0538-0.38574-0.11225-0.56641-0.17579-0.0586-0.0195-0.11718-0.039-0.17089-0.0635-0.0879-0.0292-0.1709-0.0635-0.25391-0.0976-0.12695-0.0537-0.25879-0.11225-0.37598-0.17088-0.0439-0.0195-0.083-0.039-0.12695-0.0635-0.12695-0.0684-0.24902-0.14648-0.36621-0.21973-0.0439-0.0293-0.0879-0.0586-0.13184-0.0928-0.13183-0.0928-0.2539-0.18555-0.36133-0.28808-0.45898-0.4248-0.80078-0.94727-1.0303-1.5478-0.22949-0.61035-0.3418-1.2988-0.32715-2.0508l0.01-0.55175h-7.6514l5e-3 0.54687c5e-3 0.27832 0.0147 0.54688 0.0293 0.81543 0.33203 5.3418 3.4863 8.8184 9.1748 10.073 1.4697 0.32714 2.9785 0.48827 4.4873 0.48827 4.624 0 8.7012-1.5039 10.918-4.0283 0.50293-0.57129 0.92286-1.2256 1.2549-1.9336 0.58105-1.2305 0.89842-2.6318 0.92772-4.1162v-0.0293c0.01-0.52246-0.0146-1.0547-0.0781-1.5967-0.0244-0.18067-0.0537-0.36133-0.0879-0.542" fill="#d31930"/>
  <path d="m410.6 495.84c-0.0684-0.12212-0.14161-0.23926-0.21485-0.35645-0.13671-0.22461-0.2832-0.43945-0.43945-0.64452-0.82032-1.0791-1.9092-1.9336-3.2129-2.4902 0.64452-0.39551 1.2354-0.83496 1.7578-1.4209 0.61523-0.67871 1.0644-1.5967 1.3525-2.627 0.1416-0.49805 0.24414-1.0205 0.30273-1.5527 0.11224-0.98145 0.083-1.9922-0.0879-2.9443-0.0586-0.35157-0.1416-0.68848-0.23925-1.0156-0.0489-0.16601-0.11225-0.32715-0.17579-0.48827-0.0928-0.24415-0.19531-0.47853-0.3125-0.70313-0.63476-1.1963-1.582-2.1728-2.7588-2.8272-1.46-0.81055-3.252-1.1524-5.3467-1.3037-0.34669-0.0195-0.70313-0.039-1.0693-0.0586-0.53222-0.0146-1.084-0.0292-1.6553-0.0341-0.44434-5e-3 -14.551-5e-3 -14.551-5e-3l5e-3 33.008s13.188 0.01 13.74 0.0195c0.54198 0.0146 1.1035 0.0195 1.6455 0.0195 0.98145 0 1.7578-0.0341 2.4463-0.10737 2.2363-0.23438 4.1455-0.8252 5.6934-1.7578 0.33691-0.2002 0.6543-0.41992 0.95215-0.64941 0.98145-0.75684 1.7432-1.665 2.29-2.71 0.25879-0.49805 0.46875-1.0254 0.6299-1.582v-5e-3c0.0292-0.1025 0.0635-0.20996 0.0879-0.3125 0.0244-0.0928 0.039-0.19042 0.0635-0.28809 0.0146-0.0684 0.0341-0.14647 0.0489-0.21972 0.0489-0.2539 0.0879-0.50781 0.12213-0.77148 0-0.0244 5e-3 -0.0489 0.01-0.0684 0.22461-2.0947-0.0781-4.0088-0.83008-5.6055-0.0781-0.1709-0.16601-0.33203-0.2539-0.49804m-18.564-11.323v-0.625h4.6924c2.3828 0 4.6875 0.14649 5.4004 1.6309 0.17578 0.35645 0.27343 0.84962 0.29297 1.3721 0.0244 0.72754-0.10737 1.5039-0.4541 2.0459-0.81055 1.2842-3.0566 1.3232-4.917 1.3232h-5.0146zm5.5566 19.341h-5.5518v-6.5235c0-0.0146 5e-3 -0.0341 5e-3 -0.0537 0-0.37598-5e-3 -0.75196-5e-3 -1.1279 0.15136 0.01 0.69823 0.01 1.3184 5e-3 1.4844 0 3.7305-0.01 4.2041-0.01 0.99609 0 1.9726-0.01 2.8516 0.13673 0.82031 0.1416 1.543 0.39062 2.085 0.80566 0.24414 0.17579 0.45898 0.38574 0.62012 0.63965 0.2832 0.43945 0.46386 1.001 0.54198 1.6016 0.0244 0.19531 0.044 0.39063 0.044 0.58594 5e-3 0.11225 5e-3 0.23437 0 0.34667-0.01 0.33204-0.0537 0.6543-0.12212 0.95704-0.039 0.17578-0.0928 0.33691-0.14648 0.49316-0.10737 0.29785-0.24415 0.57129-0.41992 0.78614-0.97656 1.2549-3.2861 1.3574-5.4248 1.3574m-0.46875-26.221v-0.083z" fill="#d31930"/>
  <path d="m344.44 498.59c-0.39062-1.6016-3.374-1.2939-4.0869-2.6855-0.42969-0.83497-0.20508-2.0312-0.19531-3.1982 0.0195-2.0752-0.42969-3.8721-1.0938-5.498-1.0547-2.5684-2.666-4.7119-3.8916-6.8408-0.85449-1.4844-1.3867-3.1006-2.3047-4.5996-0.24414 0.625 0.0879 1.4502-0.0635 2.168-0.0439 0.0879-0.083 0.11712-0.12208 0.11712-0.10742 0-0.20508-0.24415-0.38086-0.24415h-0.01c-0.18555 0.21485-0.26367 0.54688-0.38086 0.83496-0.10254-0.0976-0.25391-0.18555-0.41504-0.18555-0.0732 0-0.14648 0.0146-0.22461 0.0538-0.13178-0.12212-0.13666-0.38573-0.39545-0.38573-0.0147 0-0.0293 5e-3 -0.0537 5e-3 -0.25391 0.52246-0.0977 1.4844 0.0684 1.9824-0.43457 0.44921-0.3418 1.2451-0.5127 1.9775-0.11718 0.49316-0.41992 0.86914-0.44921 1.3428-0.0391 0.70313 0.20996 1.2793 0.51269 1.8555-0.20508 0.47363-0.30273 1.0303-0.3125 1.6016-0.0244 1.1377 0.29297 2.3193 0.8252 2.9394-0.20997 0.7129-0.12696 1.5234-0.19532 2.3047-0.0781 0.89843-0.12695 1.7188 0.19532 2.3633 0.47851 0.96192 1.543 1.0791 2.4902 1.5967-0.52734 0.73242-1.4648 1.0498-1.5967 2.1728 0.19531 0.1709 0.53223 0.19531 0.89844 0.19531 0.15137 0 0.30762-5e-3 0.45898-5e-3h0.17578c-0.30761 0.92774-1.1133 1.2402-1.9824 1.4697-0.78125 0.21484-1.6992 0.28807-2.6611 0.28807-0.35156 0-0.70313-0.01-1.0547-0.0244-0.83984-0.039-1.6846-0.11712-2.4854-0.19531-0.0244-5e-3 -0.0488-5e-3 -0.0732-0.01-0.47363-0.044-1.1035-0.12212-1.6748-0.12212-0.95214 0-1.7334 0.20996-1.3184 1.0889-0.85937 0.35156-0.80566 0.83984-0.44921 1.6602 0.16113 0.36134 0.20019 0.56153 0.38574 0.70801 0.34668 0.27344 0.81055 0.3418 1.3135 0.3418 0.45899 0 0.95704-0.0538 1.4453-0.0538 0.19043 0 0.38086 5e-3 0.5664 0.0293-0.52246 0.34668-1.3428 0.75684-2.1777 1.2793-0.67871 0.42481-1.6943 1.001-1.5332 1.8555 0.11718 0.60546 0.89843 0.56152 1.5332 0.7666 0.1416 0.32715-0.37598 0.50292-0.25391 1.0205 0.28321 0.20996 0.74707 0.23437 1.2158 0.25879-0.0195 0.40527-0.14648 0.70312-0.12695 1.1523 0.21484 0.26368 0.53711 0.35157 0.88867 0.35157 0.42481 0 0.89356-0.12695 1.2842-0.2246 0.11719 0.20018 0.32227 0.3125 0.5127 0.44432h0.31738c0.78613-0.48827 1.1523-0.26855 1.9824-0.51269 0.30274-0.0879 0.5957-0.46875 1.0205-0.63965 0.29297-0.11225 0.65918-0.083 0.96191-0.18555 1.2451-0.43945 1.9336-1.0889 2.7539-1.9189 0.18066-0.18555 0.36621-0.37599 0.57129-0.58107 0.50293-0.50292 1.1084-1.1182 1.831-1.1182 0.0928 0 0.18067 0.0146 0.27832 0.0341 0.59571 0.13673 0.93262 0.92774 0.83008 1.7236 0.0293 0.0244 0.0537 0.0341 0.0732 0.0341 0.15625 0 0.0147-0.6543 0.24414-0.67384 0.36133 0.21485 0.13184 0.91798 0.0684 1.2793 1.0059-0.79101-0.0146-2.1289-0.44922-2.8125 0.26367-0.55176 0.8545-1.0498 1.4062-1.5967 0.32227-0.32228 0.65918-0.68848 1.0156-1.0059 0.16601-0.14648 0.34179-0.2832 0.51758-0.40038 0.32226-0.20997 0.73242-0.25392 1.0254-0.44923 0.43945-0.29296 0.68847-1.0986 1.2744-1.1523h0.0879c0.68359 0 0.9082 0.77637 1.5137 0.96192-0.0781-1.0059 0.64942-1.8604 0.38086-2.9394" fill="#fff"/>
  <path d="m335.39 480.24c0.38086 0.66406 0.7959 1.3184 1.2305 2.0117 0.95703 1.5088 1.9434 3.0762 2.6758 4.8633 0.3711 0.89843 0.64453 1.7969 0.83008 2.6953l0.95215 0.30761 5.9033-5.3418-7.8174-1.8701 3.8379-3.6426c-1.4551-1.2158-3.0957-2.207-4.8779-2.9394l-3.3447 2.7295c0.19043 0.40039 0.39063 0.80079 0.61035 1.1865" fill="#df1837"/>
  <path d="m330.66 489.89c-0.5127-0.67871-0.8252-1.8359-0.80078-3.0029 0.0146-0.58593 0.1123-1.1328 0.28808-1.582-0.26855-0.52735-0.52734-1.1426-0.4834-1.8848 0.0195-0.31737 0.13672-0.59081 0.25391-0.8496 0.0781-0.18066 0.15625-0.35156 0.2002-0.53711 0.0488-0.21972 0.0781-0.46386 0.10253-0.68847 0.0244-0.19044 0.0488-0.38087 0.083-0.56642l-6.2256-1.4941-5.2637 3.6475 8.0225 2.5879-14.409 11.748c0.53711 2.8711 1.7236 5.5127 3.4082 7.7637l14.697-13.94c0.01-0.40527 0.0342-0.81053 0.12696-1.2012" fill="#df1837"/>
  <path d="m348.48 486.82c-0.27344 0.0928-0.53711 0.19531-0.78125 0.33202-0.26855 0.15138-0.4541 0.41016-0.70312 0.57618-0.8545 0.57128-1.8506 0.7959-2.749 1.2793-0.16601 0.0879-0.31738 0.19042-0.46387 0.29785-0.31738 0.23926-0.60058 0.52246-0.87402 0.81542-0.58594 0.62013-1.5625 1.46-2.5049 1.8555 0.01 0.24902 0.0147 0.49316 0.0147 0.74218 0 0.29785-0.0195 0.60059-0.0391 0.90332-0.0439 0.83008-0.0879 1.6113 0.20019 2.168 0.0537 0.1025 0.12208 0.18555 0.2002 0.26855 1.2451-0.55175 2.3779-1.6406 3.0859-2.5781 0.43945-0.0684 0.76171-0.25879 1.2109-0.31738 0.3418-0.32227 0.57618-0.81055 0.87891-1.2061 0.13184-0.18066 0.2832-0.34179 0.46387-0.45898 0.0684-0.044 0.1416-0.0732 0.21972-0.1025 0.28321-0.1025 0.62012-0.12212 0.86914-0.27831 0.46387-0.29785 0.83497-0.94726 1.2793-1.4062 0.15625-0.16601 0.3125-0.33204 0.46387-0.49316-0.2002-0.82031-0.46387-1.6211-0.77149-2.3975" fill="#fff"/>
 </g>
</svg>
