<svg width="800" height="203.83" version="1.1" xmlns="http://www.w3.org/2000/svg">
 <g transform="matrix(3.6168 0 0 3.5316 -12.008 -78.32)" fill="#363896">
  <path d="m18.88 79.893 4.16-19.72h9.56l1.44-6.72h-29.28l-1.44 6.72h9.6l-4.16 19.72z" style="white-space:pre"/>
  <path d="m54.04 79.893c7.56 0 10.36-1.04 11.48-6.32l2.92-13.8c0.16-0.8 0.24-1.52 0.24-2.16 0-3.4-2.64-4.16-9.04-4.16h-13.4c-7.48 0-10.32 1.04-11.44 6.32l-2.92 13.8c-0.16 0.84-0.28 1.56-0.28 2.16 0 3.4 2.64 4.16 9.04 4.16zm1.92-8.52c-0.28 1.36-1.04 1.8-3.36 1.8h-7.6c-2 0-2.64-0.32-2.64-1.16 0-0.2 0.04-0.4 0.08-0.64l2-9.4c0.32-1.44 1.08-1.8 3.32-1.8h7.6c1.96 0 2.68 0.28 2.68 1.24 0 0.16-0.04 0.36-0.08 0.56z" style="white-space:pre"/>
  <path d="m99.04 79.893 5.6-26.44h-9.64l-2.84 13.44-8.36-13.44h-10.4l-5.6 26.44h9.6l2.68-12.68 9.04 12.68z" style="white-space:pre"/>
  <path d="m113 79.893 5.6-26.44h-10.08l-5.6 26.44z" style="white-space:pre"/>
  <path d="m148.32 79.893 3.52-16.6h-18.56l-1.4 6.6h8.84l-0.72 3.28h-8.92c-2 0-2.68-0.32-2.68-1.2 0-0.2 0.04-0.36 0.08-0.6l2-9.36c0.28-1.36 0.84-1.84 3.36-1.84h18.64l1.44-6.72h-21.52c-7.76 0-10.44 1.28-11.52 6.32l-2.92 13.8c-0.16 0.8-0.28 1.52-0.28 2.12 0 3.36 2.6 4.2 9.12 4.2z" style="white-space:pre"/>
  <path d="m183.84 79.893 5.6-26.44h-10.12l-2.08 9.84h-11.48l2.08-9.84h-10.16l-5.6 26.44h10.16l2.08-9.88h11.48l-2.08 9.88z" style="white-space:pre"/>
  <path d="m206.2 79.893 4.16-19.72h9.56l1.44-6.72h-29.28l-1.44 6.72h9.6l-4.16 19.72z" style="white-space:pre"/>
 </g>
 <g transform="matrix(1.1387 0 0 1.1387 7.8816e-7 9.9031e-6)" fill="#e02f3e" stroke-width="3.4039">
  <path d="m201.75 60.726c25.461 0 35.401-3.5401 39.213-21.513l3.6762-17.7c0.54463-2.8593 0.9531-5.3101 0.9531-7.4887 0-11.437-8.9864-14.024-30.908-14.024h-73.116l-19.062 90h34.448l6.1271-29.274zm6.5356-28.457c-0.9531 4.6293-2.8593 6.2632-8.1694 6.2632h-32.269l3.2678-15.658h32.269c4.2209 0 5.8548 1.2254 5.8548 3.9486 0 0.68079-0.13616 1.3616-0.27232 2.0424z" style="white-space:pre"/>
  <path d="m319.11 90c25.734 0 35.265-3.5401 39.077-21.513l9.9395-46.974c0.54463-2.7231 0.81694-5.174 0.81694-7.3525 0-11.573-8.9864-14.16-30.772-14.16h-45.613c-25.461 0-35.129 3.5401-38.941 21.513l-9.9395 46.974c-0.54463 2.8593-0.9531 5.3101-0.9531 7.3525 0 11.573 8.9864 14.16 30.772 14.16zm6.5356-29.002c-0.9531 4.6293-3.5401 6.1271-11.437 6.1271h-25.87c-6.8079 0-8.9864-1.0893-8.9864-3.9486 0-0.68079 0.13615-1.3616 0.27231-2.1785l6.8079-31.997c1.0893-4.9017 3.6762-6.1271 11.301-6.1271h25.87c6.6717 0 9.1225 0.9531 9.1225 4.2209 0 0.54463-0.13616 1.2254-0.27231 1.9062z" style="white-space:pre"/>
  <path d="m473.79 90 5.8548-28.185c0.27231-1.0893 0.40847-2.1785 0.40847-3.2678 0-5.3101-3.5401-8.5779-7.761-9.6672 5.9909-1.6339 10.893-5.9909 12.526-13.888l2.8593-13.48c0.68079-3.1316 1.0893-5.7186 1.0893-8.1694 0-9.8033-6.944-13.343-27.64-13.343h-76.112l-19.062 90h34.312l6.3994-30.635h30.908c5.5824 0 7.4886 1.3616 7.4886 4.2209 0 0.54463-0.13615 1.2254-0.27231 1.9062l-5.174 24.508zm-22.057-57.458c-0.9531 4.0847-1.77 6.1271-7.761 6.1271h-32.814l3.2678-15.794h32.814c4.357 0 5.7186 1.2254 5.7186 3.4039 0 0.54463-0.13616 1.2254-0.27232 1.9062z" style="white-space:pre"/>
  <path d="m547.04 90 14.16-67.126h32.542l4.9017-22.874h-99.667l-4.9017 22.874h32.678l-14.16 67.126z" style="white-space:pre"/>
  <path d="m83.971 90c21.104 0 29.546-6.8079 32.678-21.513l2.8593-13.343c0.40847-2.0424 0.68068-4.0847 0.68068-5.8548 0-9.9395-6.8078-15.522-22.33-15.522h-44.796c-2.8593 0-4.0847-0.81694-4.0847-2.7231 0-0.54463 0.13616-1.2254 0.27231-1.9062l0.27232-1.3616c0.68079-3.2678 2.1785-4.9017 5.8548-4.9017h56.909l4.902-22.874h-64.262c-23.964 0-30.908 5.8548-34.175 21.241l-3.4039 16.203c-0.40847 1.4977-0.54463 2.9955-0.54463 4.357 0 9.1225 7.4887 14.433 22.466 14.433h45.477c2.587 0 3.6762 0.81694 3.6762 2.9955 0 0.40847 0 0.9531-0.13616 1.6339l-0.27232 1.3616c-0.81694 3.5401-2.4508 4.9017-5.5825 4.9017h-70.666l-4.7655 22.874z" style="white-space:pre"/>
  <path d="m666.32 90c21.104 0 29.546-6.8079 32.678-21.513l2.8593-13.343c0.40847-2.0424 0.68071-4.0847 0.68071-5.8548 0-9.9395-6.8078-15.522-22.33-15.522h-44.796c-2.8593 0-4.0847-0.81694-4.0847-2.7231 0-0.54463 0.13616-1.2254 0.27231-1.9062l0.27232-1.3616c0.68079-3.2678 2.1785-4.9017 5.8548-4.9017h56.909l4.902-22.874h-64.262c-23.964 0-30.908 5.8548-34.175 21.241l-3.4039 16.203c-0.40847 1.4977-0.54463 2.9955-0.54463 4.357 0 9.1225 7.4886 14.433 22.466 14.433h45.477c2.587 0 3.6762 0.81694 3.6762 2.9955 0 0.40847 0 0.9531-0.13616 1.6339l-0.27232 1.3616c-0.81694 3.5401-2.4508 4.9017-5.5824 4.9017h-70.666l-4.7655 22.874z" style="white-space:pre"/>
 </g>
</svg>
