<svg version="1.1" viewBox="0 0 333.01 98.1" xml:space="preserve" xmlns="http://www.w3.org/2000/svg">
<g transform="translate(-49.487 -161.2)">
	<g fill="#010101">
		<polygon points="228.7 186.9 233.6 186.9 233.6 166.3 240.9 166.3 240.9 161.7 221.4 161.7 221.4 166.3 228.7 166.3"/>
		<rect x="246" y="161.7" width="5" height="25.2"/>
		<polygon points="257.9 161.7 257.9 186.9 262.8 186.9 262.8 170.5 275.1 186.9 279.9 186.9 279.9 161.7 275 161.7 275 178.1 262.6 161.7"/>
		<path d="m299.9 178.4h4.7c-0.8 2.8-3.2 4.4-6.5 4.4-5.6 0-8.2-4.4-8.2-8.4 0-4.2 2.8-8.6 7.9-8.6 2.9 0 5.3 1.5 5.8 3.6l0.2 0.7h4.9l-0.2-1.1c-0.7-4.5-5.2-7.8-10.8-7.8-8.3 0-12.8 6.8-12.8 13.2 0 6.5 4.5 13 13 13 6 0 10.5-3.4 11.8-9h2.7v-4.6h-12.5z"/>
		<polygon points="365.9 161.7 360.1 161.7 369.5 176.7 364.4 186.9 369.8 186.9 382.5 161.7 377.1 161.7 372.1 171.6"/>
		<path d="m330.5 177.3c2.5-1.5 4.1-4.2 4.1-7.2 0-4.6-3.7-8.4-8.3-8.4h-9.7v25.1h4.9v-8.3h4.1l3.8 8.4h5.5zm-4.2-3.4h-4.8v-7.6h4.8c2.1 0 3.8 1.7 3.8 3.8-0.1 2.1-1.8 3.8-3.8 3.8"/>
		<path d="m351.6 161.9-0.1-0.2h-4.3l-8.7 25.2h5.3l1.9-5.6h7.4l1.9 5.6h5.3zm-4.9 15.2 2.6-8 2.7 8z"/>
		<path d="m212.1 172.4-4.5-1.1c-1.9-0.4-2.8-1.3-2.8-2.7 0-1.8 1.6-2.9 3.9-2.9 2.6 0 4 1.3 4.6 3h5.2c-0.8-4.2-4.1-7.2-9.8-7.2-5.2 0-9 3.2-9 7.7 0 4.1 2.8 6 6.3 6.8l4.5 1c2.2 0.5 3 1.3 3 2.8 0 2-1.7 3.1-4.2 3.1-2.4 0-4.3-1-4.9-3.2h-5.4c0.8 4.7 4.8 7.5 10.3 7.5 5.3 0 9.2-2.9 9.2-7.7 0.2-3.8-2.3-6.2-6.4-7.1"/>
	</g>
<g fill="#010101"><path d="m112.1 202.6h15.3v5.8s1-2 3.4-3.8c2.4-2 6.2-3.8 11.9-3.8 3.8 0 8.5 1 12.5 5.2 1.2 1.2 2.3 2.7 3.3 4.5 1.1-1.7 2.4-3.4 3.9-4.7 3.3-3 7.7-5 13.4-5 3.8 0 10 0.9 14.4 5.5 5.1 5.4 5.9 9.1 5.9 21.2v29.9h-16.4v-29.1c0-2.3 0-5.2-1.1-7.7-1-2.6-3.1-4.4-7.3-4.4-4.5 0-6.8 2.1-7.9 4.5-1.2 2.5-1.2 5.2-1.2 6.8v29.9h-16.4v-29.8c0-1.5 0-4.3-1-6.8-1.1-2.6-3.1-4.6-7.2-4.6-4.6 0-6.9 2.2-8.1 4.8-1.2 2.7-1.2 5.6-1.2 7.3v29.1h-16.4v-54.8z"/><path d="m251.5 257.4h-15.3v-5.8c-1.9 2.7-5.3 7.7-15.2 7.7-18.6 0-20.4-15-20.4-22.4v-34.2h16.4v29.9c0 6 1.3 11.3 8.7 11.3 8.2 0 9.5-5.8 9.5-11.4v-29.8h16.4v54.7z"/><path d="m281.8 218c-0.1-1.2-0.3-4.1-5.1-4.1-3.5 0-4.6 2.2-4.6 3.7 0 2.5 4 4.1 8.4 5.4 9.3 2.6 19.1 5.3 19.1 17.2 0 12-10.2 19.1-22.3 19.1-8.3 0-20.8-3.8-22.3-18.2h16.3c0.7 5 5.5 5 6.2 5 2.8 0 5.7-1.6 5.7-4.2 0-3.8-4-4.2-14.5-8.3-7.1-2.3-13-6.9-13-14.3 0-11.3 9.9-18.6 21.2-18.6 7.2 0 19.6 2.9 21 17.3z"/><path d="m302.8 202.6h16.4v54.8h-16.4z"/><path d="m108.3 229.3c0.2 12.8-8 25.3-22.3 28.9-16.1 4-31.6-5.5-35.6-21.3-3.9-15.6 5-31.3 20.9-35.3 14.1-3.5 27.8 2.9 33.8 15.2l-16.1 4c-2.6-3.2-6.8-6.2-13.4-4.6-3.8 0.7-6.6 3-8.2 6s-2 6.8-1 10.6c2 7.8 8.5 12.2 16 10.3 6.6-1.7 8.8-6.3 9.7-10z"/><path d="m381.2 229.3c0.2 12.8-8 25.3-22.3 28.9-16.1 4-31.6-5.5-35.6-21.3-3.9-15.6 5-31.3 20.9-35.3 14.1-3.5 27.8 2.9 33.8 15.2l-16.1 4c-2.6-3.2-6.8-6.2-13.4-4.6-3.8 0.7-6.6 3-8.2 6s-2 6.8-1 10.6c2 7.8 8.5 12.2 16 10.3 6.6-1.7 8.8-6.3 9.7-10z"/></g></g>
</svg>
