<svg width="800" height="228.86" version="1.1" viewBox="0 0 800 228.86" xml:space="preserve" xmlns="http://www.w3.org/2000/svg"><defs>
<linearGradient id="SVGID_1_-3" x1="81.105" x2="64.555" y1="128.22" y2="137.77" gradientUnits="userSpaceOnUse"><stop stop-color="#464646" stop-opacity=".6" offset="0"/><stop stop-color="#464646" stop-opacity="0" offset="1"/></linearGradient><linearGradient id="SVGID_2_-1" x1="98.149" x2="120.81" y1="72.459" y2="58.516" gradientUnits="userSpaceOnUse"><stop stop-color="#1E8CD7" stop-opacity=".67" offset="0"/><stop stop-color="#1E8CD7" stop-opacity="0" offset="1"/></linearGradient></defs>
<g transform="matrix(1.8382 0 0 1.8382 -66.728 -65.993)" fill="#fff"><polygon points="200.3 62.5 212.6 62.5 212.6 97.1 220.9 97.1 220.9 62.5 233.1 62.5 233.1 54.7 200.3 54.7"/><rect x="241.7" y="54.7" width="8.4" height="42.4"/><polygon points="290.7 97.1 298.7 97.1 298.7 54.7 290.4 54.7 290.4 82.4 269.7 54.7 261.7 54.7 261.7 97.1 269.9 97.1 269.9 69.5"/><path d="m332.5 82.8h7.9c-1.4 4.7-5.3 7.4-10.9 7.4-9.5 0-13.8-7.4-13.8-14.2 0-7 4.7-14.4 13.3-14.4 4.9 0 8.9 2.5 9.8 6l0.3 1.2h8.2l-0.3-1.8c-1.2-7.6-8.8-13.2-18.1-13.2-14 0-21.5 11.5-21.5 22.3 0 10.9 7.5 21.9 22 21.9 10.2 0 17.7-5.8 19.8-15.2h4.5v-7.8h-21v7.8z"/><polygon points="462.3 54.7 453.9 71.4 443.5 54.7 433.8 54.7 449.6 80 441 97.1 450.2 97.1 471.5 54.7"/><path d="m384 81c4.3-2.5 6.9-7.2 6.9-12.2 0-7.7-6.3-14.1-14-14.1h-16.4v42.3h8.2v-14h6.9l6.4 14.1h9.3zm-7.2-5.8h-8.1v-12.7h8c3.5 0 6.3 2.9 6.3 6.4 0.1 3.5-2.7 6.3-6.2 6.3z"/><path d="m419.4 55.1-0.1-0.4h-7.3l-14.6 42.4h9l3.1-9.5h12.4l3.1 9.5h9zm-8.2 25.6 4.5-13.5 4.5 13.5z"/><path d="m184.7 72.7-7.7-1.7c-3.1-0.8-4.7-2.2-4.7-4.6 0-3 2.7-4.9 6.6-4.9 4.4 0 6.8 2.2 7.7 5h8.7c-1.4-7.1-6.9-12.2-16.5-12.2-8.8 0-15.1 5.3-15.1 12.9 0 6.9 4.6 10.1 10.6 11.5l7.5 1.7c3.6 0.8 5.1 2.2 5.1 4.7 0 3.3-2.8 5.3-7 5.3-4.1 0-7.2-1.7-8.3-5.4h-9c1.4 8 8.1 12.6 17.4 12.6 8.9 0 15.6-4.9 15.6-13 0.1-6.4-4.1-10.3-10.9-11.9z"/></g><g transform="matrix(1.8382 0 0 1.8382 -66.728 -65.993)"><path d="m90 35.9c0.4 6.1 5 37.3 27.9 66 4.9 6 10.6 11.9 17.2 17.3l-45.1 41.2-45.1-41.2c6.7-5.4 12.4-11.3 17.2-17.3 22.8-28.7 27.4-59.9 27.9-66" fill="#1e8cd7"/><path d="m143.6 74.6-53.6-38.7-53.7 38.7c10.5 8.8 18.9 18.1 25.8 27.3 22.4 30.1 27.4 51.8 27.9 58.5 0.5-6.7 5.4-28.4 27.9-58.5 6.8-9.2 15.2-18.5 25.7-27.3z" fill="#41c3ff"/><path d="m90 160.4-45.1-41.2c6.7-5.4 12.4-11.3 17.2-17.3 22.4 30.1 27.4 51.8 27.9 58.5z" fill="url(#SVGID_1_-3)"/><path d="m90 35.9c0.4 6.1 5 37.3 27.9 66 6.8-9.2 15.3-18.5 25.8-27.3z" fill="url(#SVGID_2_-1)"/></g><g transform="matrix(13.127 0 0 -13.127 -10592 5297)"><g transform="translate(825.42 390.25)"><path d="m0 0v-1.577h-0.863v3.729h0.863v-1.582l1.204 1.582h1.039l-1.476-1.864 1.476-1.865h-1.039z" fill="#008bce"/></g><g transform="translate(833.99 391.05)"><path d="m0 0c0 0.346-0.234 0.645-0.597 0.645h-0.591v-1.29h0.591c0.363 0 0.597 0.299 0.597 0.645m-2.051 1.348h1.566c0.826 0 1.359-0.623 1.359-1.348 0-0.522-0.277-0.986-0.741-1.204l0.746-1.177h-1.001l-0.661 1.033h-0.405v-1.033h-0.863z" fill="#008bce"/></g><g transform="translate(841.96 390.54)"><path d="m0 0c0 0.613-0.415 1.183-1.092 1.183-0.682 0-1.092-0.57-1.092-1.183s0.41-1.182 1.092-1.182c0.677 0 1.092 0.569 1.092 1.182m-3.069 0c0 1.023 0.736 1.961 1.977 1.961 1.236 0 1.971-0.938 1.971-1.961s-0.735-1.96-1.971-1.96c-1.241 0-1.977 0.937-1.977 1.96" fill="#008bce"/></g><g transform="translate(844.29 390.25)"><path d="m0 0v-1.577h-0.863v3.729h0.863v-1.582l1.204 1.582h1.039l-1.476-1.864 1.476-1.865h-1.039z" fill="#008bce"/></g><g transform="translate(847.84 391.71)"><path d="m0 0v-0.847h1.412v-0.677h-1.412v-0.82h1.412v-0.693h-2.275v3.73h2.275v-0.693z" fill="#008bce"/></g><g transform="translate(829.68 391.34)"><path d="m0 0-0.363-1.217h0.718zm0.804-2.661-0.274 0.849-1.065 4e-3 -0.274-0.853h-0.921l1.331 3.725h0.793l1.347-3.725z" fill="#008bce"/></g><g transform="translate(837.01 391.34)"><path d="m0 0-0.363-1.217h0.718zm0.804-2.661-0.274 0.849-1.065 4e-3 -0.274-0.853h-0.921l1.331 3.725h0.793l1.346-3.725z" fill="#008bce"/></g></g></svg>
