<svg width="800" height="311.79" data-name="Layer 2" version="1.1" viewBox="0 0 800 311.79" xmlns="http://www.w3.org/2000/svg">
 <polygon class="cls-3" transform="matrix(9.9041 0 0 9.9041 -144.65 -116.48)" points="34.68 28.97 26.14 33.91 26.14 24.04" fill="#03a4d9"/>
 <g fill="#fff">
  <g stroke-width="9.9041">
   <path class="cls-2" d="m373.63 139.35a83.591 83.591 0 0 1 32.882 6.8338 71.508 71.508 0 0 1 27.335 20.402 87.849 87.849 0 0 1 15.748 32.089 103.7 103.7 0 0 1 3.0703 25.85c0 4.0607 0 8.5175-0.59424 14.064a5.6453 5.6453 0 0 1-5.8434 5.5463h-108.95a46.945 46.945 0 0 0 17.53 21.096 48.332 48.332 0 0 0 60.712-5.3482 5.6453 5.6453 0 0 1 4.2588-1.8818h0.89136a5.5463 5.5463 0 0 1 4.6549 3.0703l14.361 23.374a6.1405 6.1405 0 0 1-1.5847 8.1214 92.405 92.405 0 0 1-92.009 12.083 87.255 87.255 0 0 1-53.383-79.233 87.255 87.255 0 0 1 18.224-53.68 85.67 85.67 0 0 1 27.335-23.572 73.885 73.885 0 0 1 35.853-9.1118m-36.645 68.14h75.172a38.626 38.626 0 0 0-11.588-20.799 41.795 41.795 0 0 0-27.434-8.1214 34.961 34.961 0 0 0-23.077 7.329 41.102 41.102 0 0 0-13.767 21.789z"/>
   <path class="cls-2" d="m472.27 291.37v-143.81h-6.3386c-4.1597 0-6.1405-1.9808-6.1405-6.2396v-26.543c0-4.2588 1.9808-6.2396 6.1405-6.2396h28.128a16.936 16.936 0 0 1 12.281 5.1501 17.233 17.233 0 0 1 5.0511 12.479v143.61h6.1405c4.0607 0 6.1405 2.1789 6.1405 6.4377v26.543a5.4473 5.4473 0 0 1-6.1405 6.2396h-27.632a16.54 16.54 0 0 1-12.38-5.0511 17.728 17.728 0 0 1-5.2492-12.38"/>
   <path class="cls-2" d="m546.46 291.37v-143.81h-6.4377a5.4473 5.4473 0 0 1-6.2396-6.5367v-26.246a5.4473 5.4473 0 0 1 6.2396-6.2396h28.425a16.936 16.936 0 0 1 12.281 5.1501 17.233 17.233 0 0 1 5.0511 12.479v143.61h6.1405a5.6453 5.6453 0 0 1 6.2396 6.4377v26.543a5.4473 5.4473 0 0 1-6.2396 6.2396h-27.93a16.639 16.639 0 0 1-12.38-5.0511 16.441 16.441 0 0 1-5.1501-12.38"/>
   <path class="cls-2" d="m696.21 139.35a87.552 87.552 0 0 1 62.99 25.354 80.718 80.718 0 0 1 26.147 60.91 82.006 82.006 0 0 1-26.147 61.108 91.415 91.415 0 0 1-125.78 0 84.284 84.284 0 0 1 0-122.02 86.364 86.364 0 0 1 62.792-25.354m0 38.824a47.243 47.243 0 0 0-33.872 13.668 46.747 46.747 0 0 0-1.2875 66.159l1.2875 1.3866a47.837 47.837 0 0 0 67.447 0 46.351 46.351 0 0 0 1.8818-65.664c0-0.59424-1.1885-1.1885-1.8818-1.8818a46.45 46.45 0 0 0-33.575-13.668z"/>
   <path class="cls-2" d="m286.57 311.78-38.329-48.728a141.43 141.43 0 1 0-106.67 48.728zm-242.45-141.03a97.654 97.654 0 1 1 97.753 97.456 97.555 97.555 0 0 1-97.753-97.456z"/>
  </g>
  <polygon class="cls-2" transform="matrix(9.9041 0 0 9.9041 -144.65 -116.48)" points="53.91 11.89 53.91 13.08 55.79 13.08 55.79 18.38 57.05 18.38 57.05 13.08 58.93 13.08 58.93 11.89"/>
  <rect class="cls-2" x="451.87" y="1.381" width="12.776" height="64.179" stroke-width="9.9041"/>
  <polygon class="cls-2" transform="matrix(9.9041 0 0 9.9041 -144.65 -116.48)" points="68.96 18.38 68.96 11.89 67.69 11.89 67.69 16.14 64.53 11.89 63.3 11.89 63.3 18.38 64.55 18.38 64.55 14.16 67.73 18.38"/>
  <path class="cls-2" d="m589.54 43.87h11.984a15.549 15.549 0 0 1-16.54 11.192 20.402 20.402 0 0 1-20.997-21.591 20.898 20.898 0 0 1 19.808-21.888 14.262 14.262 0 0 1 14.757 9.2108v1.8818h12.38v-2.7731a25.949 25.949 0 0 0-27.434-19.808 32.386 32.386 0 0 0-32.485 33.773 32.188 32.188 0 0 0 33.179 33.179 28.623 28.623 0 0 0 29.712-22.978h6.8338v-11.984h-31.396z" stroke-width="9.9041"/>
  <polygon class="cls-2" transform="matrix(9.9041 0 0 9.9041 -144.65 -116.48)" points="95.38 11.89 94 11.89 92.7 14.45 91.1 11.89 89.62 11.89 92.05 15.77 90.73 18.38 92.13 18.38"/>
  <path class="cls-2" d="m667.48 41.195a21.393 21.393 0 0 0-10.795-39.616h-24.661v64.08h12.578v-21.393h9.9041l9.9041 21.294h14.163zm-10.795-9.1118h-12.281v-19.016h12.182a9.9041 9.9041 0 0 1 0 19.313" stroke-width="9.9041"/>
  <path class="cls-2" d="m721.26 2.3714h-11.192l-22.185 64.08h13.767l4.754-14.262h18.818l4.853 14.262h13.569zm-12.578 38.923 6.8338-20.402 6.8338 20.402z" stroke-width="9.9041"/>
  <path class="cls-2" d="m365.61 28.716-11.588-2.6741c-4.754-1.2875-7.23-3.3674-7.23-6.9329s4.0607-7.5271 9.9041-7.5271a11.39 11.39 0 0 1 11.786 7.5271h13.073a22.779 22.779 0 0 0-24.958-18.422 20.501 20.501 0 0 0-22.779 19.808c0 9.9041 7.0319 15.351 16.144 17.332l11.291 2.476c5.4472 1.1885 7.7252 3.3674 7.7252 7.1309 0 3.7636-4.2588 7.9233-10.696 7.9233a11.489 11.489 0 0 1-12.479-8.1214h-13.668a24.067 24.067 0 0 0 26.444 19.115c13.47 0 23.572-7.5271 23.572-19.808 0-9.9041-6.2396-15.351-16.54-17.728" stroke-width="9.9041"/>
 </g>
</svg>
