<svg width="1605" height="800" version="1.1" viewBox="0 0 1605 800" xmlns="http://www.w3.org/2000/svg">
 <polygon transform="matrix(7.4573 0 0 7.4573 0 .00061549)" points="32.539 69.953 68.259 69.957 64.408 58.052" fill="#63c7c9" fill-rule="evenodd"/>
 <g fill="#fff">
  <g fill-rule="evenodd">
   <polygon transform="matrix(7.4573 0 0 7.4573 0 .00061549)" points="75.28 0.010542 52.508 0.010542 75.14 69.962 97.912 69.962"/>
   <polygon transform="matrix(7.4573 0 0 7.4573 0 .00061549)" points="187.16 0.010542 194.89 23.951 215.23 16.358 215.23 16.355 209.93 0.010542"/>
   <polygon transform="matrix(7.4573 0 0 7.4573 0 .00061549)" points="183.63 0.010542 160.86 0.010542 168.79 24.554 189.11 16.964"/>
   <polygon transform="matrix(7.4573 0 0 7.4573 0 .00061549)" points="157.33 0.010542 134.56 0.010542 142.67 25.132 163.02 17.532"/>
   <polygon transform="matrix(7.4573 0 0 7.4573 0 .00061549)" points="22.636 69.964 22.638 69.964 63.341 54.756 56.594 33.765 36.165 41.394 22.773 -8.4337e-5 0 -8.4337e-5"/>
   <polygon transform="matrix(7.4573 0 0 7.4573 0 .00061549)" points="127.54 69.962 150.32 69.962 127.68 0.010542 82.154 0.010542 95.944 42.634 116.27 34.987"/>
  </g>
  <path d="m577.45 731.19q0 15.773-11.829 25.828-11.829 10.252-31.348 10.252-10.844 0-20.701-4.3374-9.6607-4.5346-13.801-8.2806t-7.0976-7.492l9.0692-9.8578q14.59 17.35 32.728 17.35 13.407 0 20.701-6.1119 7.492-6.1119 7.492-15.97 0-4.5346-1.7744-8.0834-1.5773-3.5488-4.9289-5.9147-3.1545-2.3659-5.1261-3.5488t-5.3232-2.563q-3.3517-1.5772-13.998-5.5204-10.449-4.1403-11.435-4.5346-8.2806-3.746-13.21-8.6749-8.872-9.2664-8.872-22.082 0-15.575 12.224-24.842 11.041-8.4777 27.996-8.4777 9.8578 0 18.533 3.746 8.6749 3.746 12.618 7.0976 4.1403 3.3517 6.7033 6.7033l-8.0834 10.055q-4.1403-5.1261-12.224-10.252-7.8863-5.1261-17.744-5.1261-11.632 0-18.533 5.3232-6.9005 5.1261-6.9005 14.59 0 4.3374 1.5772 7.8863 1.7744 3.5488 4.9289 6.1119 3.3517 2.3659 5.1261 3.3517 1.9716 0.98579 5.3232 2.563 2.563 1.1829 7.8863 3.3517 5.5204 2.1687 11.238 4.3374t6.9005 2.563q7.492 3.1545 12.815 8.4778 9.0692 9.0692 9.0692 22.082z" style="white-space:pre"/>
  <path d="m672.28 675.2-41.6 106.46q-7.0976 18.336-21.096 18.336-4.5346 0-8.4777-0.98578-3.9431-0.78863-5.7176-1.7744l-1.5772-0.98578 3.3517-11.238q5.1261 2.7602 10.055 2.7602 3.746 0 5.9147-2.1687 2.1687-1.9716 4.7318-8.0834l4.9289-12.421-35.094-89.904h15.378l27.01 76.3 27.01-76.3z" style="white-space:pre"/>
  <path d="m738.13 674.21-2.1687 14.195q-2.3659-1.1829-6.309-1.1829-7.2948 0-13.407 4.3374-10.646 7.2948-13.012 21.687v52.247h-14.392v-90.298h13.21l1.1829 18.138q3.746-8.4777 11.238-14.195 7.492-5.9147 16.561-5.9147z" style="white-space:pre"/>
  <path d="m769.28 637.74q3.1545 2.7602 3.1545 7.0976t-2.9574 7.2948q-2.9574 2.9574-7.2948 2.9574t-7.492-2.7602q-2.9574-2.9574-2.9574-7.2948t2.9574-7.2948q2.9574-2.9574 7.2948-2.9574t7.2948 2.9574zm0 127.76h-14.392v-90.298h14.392z" style="white-space:pre"/>
  <path d="m867.07 765.5h-15.97q-1.9716-5.9147-1.9716-11.632-10.646 13.407-29.179 13.407-12.027 0-20.307-6.9005-8.0834-6.9005-8.0834-20.307 0-20.307 23.659-26.813 13.21-3.5488 33.32-3.5488v-6.309q0-9.6607-5.9147-14.195-5.9147-4.5346-15.378-4.5346-15.773 0-27.01 8.0834l-5.1261-10.646q15.181-8.8721 32.137-8.8721 16.955 0 26.419 8.0834 9.2664 8.2806 9.2664 25.236v40.417q0 10.252 4.1403 18.533zm-18.533-24.447v-21.293q-11.435 0-21.687 1.7744-20.307 3.5488-20.307 17.744 0 9.2664 5.3232 13.21 5.3232 3.9431 12.224 3.9431 6.7033 0 13.604-3.746 7.0976-3.9431 10.844-11.632z" style="white-space:pre"/>
  <path d="m1003.7 652.53h-38.446v112.97h-14.984v-112.97h-38.643v-12.224h92.072z" style="white-space:pre"/>
  <path d="m1112.3 640.3-44.558 125.19h-15.772l-44.558-125.19h16.167l36.868 109.03 36.868-109.03z" style="white-space:pre"/>
 </g>
</svg>
