<svg width="799.99" height="800" enable-background="new 0 0 255.118 255.118" version="1.1" viewBox="0 0 799.99 800" xml:space="preserve" xmlns="http://www.w3.org/2000/svg">
<path d="m750.19 3.1005c25.756 0 46.711 20.952 46.711 46.708v700.36c0 25.762-20.955 46.717-46.711 46.717h-700.37c-25.756 0-46.708-20.949-46.708-46.711v-700.37c0-25.762 20.955-46.714 46.708-46.714l700.37 3e-3m0-3.1004h-700.37c-27.456 0-49.811 22.346-49.811 49.811v700.37c0 27.465 22.356 49.821 49.811 49.821l700.37-6e-3c27.459 0 49.805-22.359 49.805-49.824v-700.37c0-27.468-22.34-49.805-49.805-49.805z" fill="#fff" stroke-width="3.154"/><g transform="matrix(1.4812 0 0 1.4812 1.5518 424.2)"><path d="m32.581 252.66c-17.963 0-32.581-14.612-32.581-32.583v-472.84c0-17.972 14.618-32.577 32.581-32.577l472.84-4e-3c17.967 0 32.577 14.612 32.577 32.577v472.84c0 17.965-14.609 32.577-32.577 32.577z" fill="#0a0a0a" stroke-width="2.1293"/><g transform="matrix(1.0045 0 0 1.0045 -.030306 .41378)" stroke-width="2.1293"><path d="m374.47-41.805c25.74-58.904-1.1541-127.52-60.065-153.25-58.906-25.737-127.53 1.1584-153.26 60.065-25.729 58.906 1.1626 127.52 60.065 153.25 1.795 0.78147 3.5922 1.5225 5.4021 2.1996l-29.943 43.496 111.19-43.055 0.0703-0.03833c28.75-10.559 53.304-32.389 66.536-62.667z" fill="#fff"/><path d="m329.31-104.41c-2.2592 0-4.0926 1.8334-4.0926 4.0947v27.192c0 31.885-25.946 57.829-57.824 57.829-31.891 0-57.837-25.944-57.837-57.829v-27.192c0-2.2614-1.8355-4.0947-4.0947-4.0947-2.2635 0-4.099 1.8334-4.099 4.0947v27.192c0 33.367 24.888 61.016 57.077 65.399v37.902l17.952-7.8275v-30.079c32.157-4.4056 57.015-32.042 57.015-65.392v-27.192c0-2.2635-1.8312-4.0969-4.0969-4.0969z" fill="#0a0a0a"/><path d="m268.02-22.453c28.378 0 51.607-23.218 51.607-51.611v-25.942h-103.21v25.942c-2e-3 28.391 23.22 51.611 51.605 51.611z" fill="#0a0a0a"/><rect x="216.29" y="-107.78" width="103.22" height="5.1956" fill="#0a0a0a"/><path d="m228.26-107.13-0.63454-0.63454 2.1315-2.1272 2.1315 2.1272-0.63242 0.63454h5.532l-0.63881-0.63454 2.1379-2.1272 2.1272 2.1272-0.63029 0.63454h5.532l-0.63455-0.63454 2.1357-2.1272 2.1315 2.1272-0.63455 0.63454h5.5299l-0.63455-0.63454 2.1379-2.1272 2.1272 2.1272-0.63241 0.63454h5.532l-0.63454-0.63454 2.1315-2.1272 2.1272 2.1272-0.63028 0.63454h5.5342l-0.63454-0.63454 2.1336-2.1272 2.1272 2.1272-0.63028 0.63454h5.532l-0.63454-0.63454 2.1336-2.1272 2.1272 2.1272-0.63455 0.63454h5.532l-0.63029-0.63454 2.1272-2.1272 2.1336 2.1272-0.63455 0.63454h5.532l-0.63029-0.63454 2.1336-2.1272 2.1272 2.1272-0.63667 0.63454h5.5342l-0.63028-0.63454 2.1336-2.1272 2.1293 2.1272-0.63241 0.63454h5.5342l-0.63241-0.63454 2.1251-2.1272 2.1315 2.1272-0.63667 0.63454h2.9619v-2.9491l-0.18738 0.18525-2.1357-2.1315 2.1357-2.1315 0.18738 0.18525v-4.6398l-0.18738 0.18525-2.1357-2.1208 2.1357-2.1506 0.18738 0.18951v-4.6313l-0.18738 0.18525-2.1357-2.1336 2.1357-2.1272 0.18738 0.18526v-2.0399c0-0.83683-0.0852-1.6481-0.12776-2.4743l-0.0596 0.0596-2.1357-2.1272 1.8802-1.8781c-0.25339-1.9973-0.63028-3.9563-1.1072-5.8812l-0.7687-0.76657 0.45355-0.45781c-0.30449-1.1051-0.63028-2.1911-1.0093-3.2643l-1.5757 1.5778-2.1251-2.1272 2.1251-2.1294 0.93691 0.93479c-1.3244-3.4155-2.9811-6.6691-4.9784-9.6885l-0.22145 0.22358-2.1293-2.1336 0.57705-0.57492c-0.60473-0.81554-1.201-1.6332-1.8568-2.4083l-0.85173 0.85174-2.1336-2.1315 0.95395-0.94968c-0.69204-0.73037-1.399-1.4373-2.1293-2.1294l-0.95821 0.95182-2.1315-2.1315 0.85386-0.85174c-0.77508-0.65158-1.5991-1.2457-2.4125-1.8504l-0.5728 0.56428-2.1293-2.1272 0.21719-0.21719c-3.0109-1.9782-6.2411-3.622-9.6395-4.9422l0.89646 0.89007-2.1315 2.1336-2.1336-2.1336 1.5544-1.5566c-1.0689-0.37264-2.1592-0.70056-3.2579-1.0008l-0.42374 0.42586-0.72398-0.72397c-1.9547-0.48336-3.9393-0.86665-5.9664-1.1179l-1.844 1.8419-2.1336-2.1336 0.0319-0.0234c-0.80277-0.0383-1.5949-0.1235-2.4019-0.1235-0.65797 0-1.2925 0.0724-1.9398 0.0979l0.049 0.0468-2.1293 2.1336-1.9079-1.9079c-1.9462 0.22358-3.8498 0.57918-5.7237 1.0157l-0.8922 0.89219-0.52808-0.52594c-1.1115 0.29172-2.2166 0.60473-3.2962 0.96885l1.6864 1.6864-2.1272 2.1336-2.1272-2.1336 1.1733-1.1797c-3.5666 1.3202-6.9587 3.0045-10.11 5.0444l0.40031 0.40031-2.1272 2.1272-0.78147-0.77721c-0.8198 0.60047-1.6524 1.1818-2.4402 1.8312l1.0817 1.0817-2.1272 2.1315-1.1882-1.186c-0.73675 0.68565-1.4607 1.3841-2.1549 2.108l1.2073 1.2052-2.1315 2.1315-1.1073-1.1051c-0.65371 0.77082-1.2712 1.5736-1.8802 2.3827l0.85387 0.85386-2.1294 2.1336-0.52807-0.53021c-0.57493 0.856-1.0902 1.7546-1.614 2.651l0.0106 0.0106-0.0447 0.0447c-1.4927 2.5573-2.7532 5.2467-3.7966 8.0553l1.7056-1.6992 2.1315 2.1293-2.1315 2.1272-1.9356-1.9292c-0.38115 1.0647-0.72823 2.1357-1.0391 3.2302l0.84109 0.84535-1.4267 1.4245c-0.40031 1.7035-0.7112 3.4368-0.93265 5.1998l0.22997-0.22997 2.1272 2.1315-2.1272 2.1272-0.52808-0.52808c-0.0575 0.97737-0.15118 1.9484-0.15118 2.9406v2.5318l0.67926-0.67713 2.1272 2.1272-2.1272 2.1336-0.67926-0.68139v5.6321l0.67926-0.68139 2.1272 2.1379-2.1272 2.1208-0.67926-0.67926v5.63l0.67926-0.68139 2.1272 2.1336-2.1272 2.1315-0.67926-0.68139v3.4453h3.4432l-0.63455-0.63454 2.1336-2.1272 2.1315 2.1272-0.63454 0.63454h5.515v6e-3zm-2.7639-2.7618-2.1315-2.1315 2.1315-2.1336 2.1272 2.1336zm8.5302-12.806 2.1272 2.1506-2.1272 2.1208-2.1336-2.1208zm-4.2672 0-2.1315-2.1208 2.1315-2.1315 2.1315 2.1315zm4.2672-4.2566-2.1336-2.1336 2.1336-2.1272 2.1272 2.1272zm21.325-8.528 2.1272 2.1379-2.1272 2.1272-2.1379-2.1272zm-4.2693 0-2.1272-2.1272 2.1272-2.1315 2.1272 2.1315zm4.2693-4.2608-2.1379-2.1379 2.1379-2.1272 2.1272 2.1272zm4.2544 0 2.1336 2.1315-2.1336 2.1272-2.1293-2.1272zm4.2693 4.2608 2.1272 2.1379-2.1272 2.1272-2.1315-2.1272zm0-4.2608-2.1315-2.1379 2.1315-2.1272 2.1272 2.1272zm4.2608 0 2.1336 2.1315-2.1336 2.1272-2.1315-2.1272zm-2.1336-6.3966 2.1315-2.1421 2.1293 2.1421-2.1293 2.1294zm6.4008 10.657 2.1272 2.1379-2.1272 2.1272-2.1336-2.1272zm0-4.2608-2.1336-2.1379 2.1336-2.1272 2.1272 2.1272zm4.2608 0 2.1336 2.1315-2.1336 2.1272-2.1315-2.1272zm-2.1336-6.3966 2.1336-2.1421 2.1336 2.1421-2.1336 2.1294zm6.4008 10.657 2.1272 2.1379-2.1272 2.1272-2.1336-2.1272zm0-4.2608-2.1336-2.1379 2.1336-2.1272 2.1272 2.1272zm4.2608 0 2.1336 2.1315-2.1336 2.1272-2.1315-2.1272zm-2.1315-6.3966 2.1315-2.1421 2.1336 2.1421-2.1336 2.1294zm6.3944 10.657 2.1315 2.1379-2.1315 2.1272-2.1272-2.1272zm0-4.2608-2.1272-2.1379 2.1272-2.1272 2.1315 2.1272zm4.2651 0 2.1336 2.1315-2.1336 2.1272-2.1336-2.1272zm4.2672 4.2608 2.1272 2.1379-2.1272 2.1272-2.1315-2.1272zm0-4.2608-2.1315-2.1379 2.1315-2.1272 2.1272 2.1272zm4.2608 0 2.1336 2.1315-2.1336 2.1272-2.1336-2.1272zm4.2672 4.2608 2.1336 2.1379-2.1336 2.1272-2.1336-2.1272zm0-4.2608-2.1336-2.1379 2.1336-2.1272 2.1336 2.1272zm-4.2672-4.2651-2.1336-2.1272 2.1336-2.1442 2.1336 2.1442zm-4.2608-4.2736-2.1315-2.1272 2.1315-2.1294 2.1272 2.1294zm-4.2672-4.2566-2.1336-2.1315 2.1336-2.1293 2.1336 2.1293zm0 4.2566 2.1336 2.1421-2.1336 2.1294-2.1336-2.1294zm-4.2651 0-2.1272-2.1272 2.1272-2.1294 2.1315 2.1294zm-4.2629-4.2566-2.1315-2.1315 2.1315-2.1293 2.1336 2.1293zm-4.2608-4.2629-2.1336-2.1336 2.1336-2.1294 2.1272 2.1294zm0 4.2629 2.1272 2.1272-2.1272 2.1293-2.1336-2.1293zm-4.2672 0-2.1315-2.1315 2.1315-2.1293 2.1336 2.1293zm-4.2608-4.2629-2.1336-2.1336 2.1336-2.1294 2.1272 2.1294zm0 4.2629 2.1272 2.1272-2.1272 2.1293-2.1336-2.1293zm-4.2672 0-2.1315-2.1315 2.1315-2.1293 2.1336 2.1293zm-4.2608-4.2629-2.1315-2.1336 2.1315-2.1294 2.1272 2.1294zm0 4.2629 2.1272 2.1272-2.1272 2.1293-2.1315-2.1293zm-4.2693 0-2.1293-2.1315 2.1293-2.1293 2.1336 2.1293zm0 4.2566 2.1336 2.1421-2.1336 2.1294-2.1293-2.1294zm-4.2544 0-2.1379-2.1272 2.1379-2.1294 2.1272 2.1294zm-4.2693-4.2566-2.1272-2.1315 2.1272-2.1293 2.1272 2.1293zm0 4.2566 2.1272 2.1421-2.1272 2.1294-2.1272-2.1294zm-4.2608 0-2.1357-2.1272 2.1357-2.1294 2.1315 2.1294zm0 4.2736 2.1315 2.1272-2.1315 2.1379-2.1357-2.1379zm2.1357 10.666-2.1336 2.1272-2.1336-2.1272 2.1336-2.1379zm-6.4051-10.666-2.1315-2.1272 2.1315-2.1442 2.1315 2.1442zm0 4.2651 2.1315 2.1315-2.1315 2.1272-2.1315-2.1272zm-4.2608 0-2.1379-2.1379 2.1379-2.1272 2.1272 2.1272zm0 4.2608 2.1272 2.1379-2.1272 2.1272-2.1379-2.1272zm-4.2651 0-2.1336-2.1272 2.1336-2.1315 2.1272 2.1315zm4.2651 8.528 2.1272 2.1315-2.1272 2.1208-2.1379-2.1208zm4.2608 4.2566 2.1315 2.1506-2.1315 2.1208-2.1315-2.1208zm0-4.2566-2.1315-2.1336 2.1315-2.1272 2.1315 2.1272zm4.2693 0 2.1315 2.1315-2.1315 2.1208-2.1357-2.1208zm4.2608 4.2566 2.1272 2.1506-2.1272 2.1208-2.1272-2.1208zm0-4.2566-2.1272-2.1336 2.1272-2.1272 2.1272 2.1272zm4.2693 0 2.1272 2.1315-2.1272 2.1208-2.1379-2.1208zm4.2544 4.2566 2.1336 2.1506-2.1336 2.1208-2.1293-2.1208zm0-4.2566-2.1293-2.1336 2.1293-2.1272 2.1336 2.1272zm4.2693 0 2.1272 2.1315-2.1272 2.1208-2.1315-2.1208zm4.2608 4.2566 2.1336 2.1506-2.1336 2.1208-2.1315-2.1208zm0-4.2566-2.1315-2.1336 2.1315-2.1272 2.1336 2.1272zm4.2672 0 2.1272 2.1315-2.1272 2.1208-2.1336-2.1208zm4.2608 4.2566 2.1336 2.1506-2.1336 2.1208-2.1315-2.1208zm0-4.2566-2.1315-2.1336 2.1315-2.1272 2.1336 2.1272zm4.2672 0 2.1272 2.1315-2.1272 2.1208-2.1336-2.1208zm4.2608 4.2566 2.1336 2.1506-2.1336 2.1208-2.1315-2.1208zm0-4.2566-2.1315-2.1336 2.1315-2.1272 2.1336 2.1272zm4.2629 0 2.1315 2.1315-2.1315 2.1208-2.1272-2.1208zm4.2651 4.2566 2.1336 2.1506-2.1336 2.1208-2.1336-2.1208zm0-4.2566-2.1336-2.1336 2.1336-2.1272 2.1336 2.1272zm4.2672 0 2.1272 2.1315-2.1272 2.1208-2.1315-2.1208zm4.2608 4.2566 2.1336 2.1506-2.1336 2.1208-2.1336-2.1208zm0-4.2566-2.1336-2.1336 2.1336-2.1272 2.1336 2.1272zm4.2672 0 2.1336 2.1315-2.1336 2.1208-2.1336-2.1208zm4.2629 4.2566 2.1357 2.1506-2.1357 2.1208-2.1272-2.1208zm0-4.2566-2.1272-2.1336 2.1272-2.1272 2.1357 2.1272zm0-8.528-2.1272-2.1272 2.1272-2.1315 2.1357 2.1315zm0-8.5259-2.1272-2.1272 2.1272-2.1442 2.1357 2.1442zm-4.2629-4.2736-2.1336-2.1272 2.1336-2.1294 2.1336 2.1294zm-4.2672-4.2566-2.1336-2.1315 2.1336-2.1293 2.1336 2.1293zm-4.2608-4.2629-2.1315-2.1336 2.1315-2.1294 2.1272 2.1294zm-4.2672-4.2651-2.1336-2.1336 2.1336-2.1315 2.1336 2.1315zm-4.2651-4.2672-2.1272-2.1336 2.1272-2.1272 2.1315 2.1272zm0 4.2672 2.1315 2.1294-2.1315 2.1357-2.1272-2.1357zm-4.2629 0-2.1315-2.1336 2.1315-2.1315 2.1336 2.1315zm-4.2608-4.2672-2.1336-2.1336 2.1336-2.1272 2.1272 2.1272zm-4.2672-4.2608-2.1315-2.1315 2.1315-2.1336 2.1336 2.1336zm0 4.2608 2.1336 2.1315-2.1336 2.1336-2.1315-2.1336zm-4.2608 0-2.1336-2.1336 2.1336-2.1272 2.1272 2.1272zm-4.2672-4.2608-2.1315-2.1315 2.1315-2.1336 2.1336 2.1336zm0 4.2608 2.1336 2.1315-2.1336 2.1336-2.1315-2.1336zm-4.2608 0-2.1315-2.1336 2.1315-2.1272 2.1272 2.1272zm-4.2693-4.2608-2.1293-2.1315 2.1293-2.1336 2.1336 2.1336zm0 4.2608 2.1336 2.1315-2.1336 2.1336-2.1293-2.1336zm-4.2544 0-2.1379-2.1336 2.1379-2.1272 2.1272 2.1272zm0 4.2672 2.1272 2.1294-2.1272 2.1357-2.1379-2.1357zm-4.2693 0-2.1272-2.1336 2.1272-2.1315 2.1272 2.1315zm-4.2608-4.2672-2.1357-2.1336 2.1357-2.1272 2.1315 2.1272zm0 4.2672 2.1315 2.1294-2.1315 2.1357-2.1357-2.1357zm-4.2693 0-2.1315-2.1336 2.1315-2.1315 2.1315 2.1315zm0 4.2651 2.1315 2.1293-2.1315 2.1315-2.1315-2.1315zm-4.2608 0-2.1379-2.1336 2.1379-2.1294 2.1272 2.1294zm0 4.2629 2.1272 2.1272-2.1272 2.1293-2.1379-2.1293zm-4.2651 0-2.1336-2.1315 2.1336-2.1293 2.1272 2.1293zm0 4.2566 2.1272 2.1421-2.1272 2.1294-2.1336-2.1294zm-4.2672 0-2.1315-2.1272 2.1315-2.1294 2.1315 2.1294zm0 4.2736 2.1315 2.1272-2.1315 2.1379-2.1315-2.1379zm0 8.5259 2.1315 2.1379-2.1315 2.1272-2.1315-2.1272zm-4.2629 0-2.1315-2.1272 2.1315-2.1315 2.1272 2.1315zm0 4.2651 2.1272 2.1272-2.1272 2.1315-2.1315-2.1315zm0 8.5323 2.1272 2.1379-2.1272 2.1208-2.1315-2.1208zm4.2629 8.5259-2.1315-2.1272 2.1315-2.1379 2.1315 2.1379zm4.2672 4.2672-2.1336-2.1315 2.1336-2.1336 2.1272 2.1336zm4.2651-4.2672-2.1379-2.1272 2.1379-2.1379 2.1272 2.1379zm4.2608 4.2672-2.1315-2.1315 2.1315-2.1336 2.1315 2.1336zm4.2693-4.2672-2.1357-2.1272 2.1357-2.1379 2.1315 2.1379zm4.2608 4.2672-2.1272-2.1315 2.1272-2.1336 2.1272 2.1336zm4.2693-4.2672-2.1379-2.1272 2.1379-2.1379 2.1272 2.1379zm4.2544 4.2672-2.1293-2.1315 2.1293-2.1336 2.1336 2.1336zm4.2693-4.2672-2.1315-2.1272 2.1315-2.1379 2.1272 2.1379zm4.2608 4.2672-2.1315-2.1315 2.1315-2.1336 2.1336 2.1336zm4.2672-4.2672-2.1336-2.1272 2.1336-2.1379 2.1272 2.1379zm4.2608 4.2672-2.1315-2.1315 2.1315-2.1336 2.1336 2.1336zm4.2672-4.2672-2.1336-2.1272 2.1336-2.1379 2.1272 2.1379zm4.2608 4.2672-2.1315-2.1315 2.1315-2.1336 2.1336 2.1336zm4.2629-4.2672-2.1272-2.1272 2.1272-2.1379 2.1315 2.1379zm4.2651 4.2672-2.1336-2.1315 2.1336-2.1336 2.1336 2.1336zm4.2672-4.2672-2.1315-2.1272 2.1315-2.1379 2.1272 2.1379zm4.2608 4.2672-2.1336-2.1315 2.1336-2.1336 2.1336 2.1336zm4.2672-4.2672-2.1336-2.1272 2.1336-2.1379 2.1336 2.1379zm4.2629 4.2672-2.1272-2.1315 2.1272-2.1336 2.1357 2.1336zm4.2651-4.2672-2.1293-2.1272 2.1293-2.1379 2.1293 2.1379zm0-8.5387-2.1293-2.1208 2.1293-2.1315 2.1293 2.1315zm0-8.5195-2.1293-2.1272 2.1293-2.1379 2.1293 2.1379zm0-12.791 2.1293 2.1272-2.1293 2.1379-2.1293-2.1379zm-4.2651-12.793 2.1357 2.1293-2.1357 2.1315-2.1272-2.1315zm-4.2629-4.2651 2.1336 2.1294-2.1336 2.1357-2.1336-2.1357zm-4.2672-4.2672 2.1336 2.1315-2.1336 2.1336-2.1336-2.1336zm-4.2608-4.2608 2.1272 2.1272-2.1272 2.1336-2.1315-2.1336zm-2.1315-2.1336-2.1293 2.1315-2.1336-2.1315 2.1336-2.1336zm-6.4008-6.3944 2.1315 2.1315-2.1315 2.1272-2.1272-2.1272zm-4.2629 4.2587 2.1336 2.1336-2.1336 2.1315-2.1315-2.1315zm-2.1315-2.1272-2.1272 2.1272-2.1315-2.1272 2.1315-2.1315zm-6.3966-6.3987 2.1336 2.1315-2.1336 2.1315-2.1315-2.1315zm-4.2608 4.2672 2.1272 2.1315-2.1272 2.1272-2.1336-2.1272zm-4.2672-4.2672 2.1336 2.1315-2.1336 2.1315-2.1315-2.1315zm-2.1336 6.3987-2.1272 2.1272-2.1315-2.1272 2.1315-2.1315zm-6.3966-6.3987 2.1336 2.1315-2.1336 2.1315-2.1293-2.1315zm-4.2544 4.2672 2.1272 2.1315-2.1272 2.1272-2.1379-2.1272zm-4.2693 4.2587 2.1272 2.1336-2.1272 2.1315-2.1272-2.1315zm-4.2608-4.2587 2.1315 2.1315-2.1315 2.1272-2.1357-2.1272zm-4.2693 4.2587 2.1315 2.1336-2.1315 2.1315-2.1315-2.1315zm-4.2608 4.2693 2.1272 2.1272-2.1272 2.1336-2.1379-2.1336zm-4.2651 4.2608 2.1272 2.1315-2.1272 2.1336-2.1336-2.1336zm-4.2672 4.2672 2.1315 2.1294-2.1315 2.1357-2.1315-2.1357zm-4.2629 4.2651 2.1272 2.1293-2.1272 2.1315-2.1315-2.1315zm0 8.5195 2.1272 2.1421-2.1272 2.1294-2.1315-2.1294zm-4.2651 4.2736 2.1336 2.1272-2.1336 2.1379-2.1315-2.1379zm0 8.5259 2.1336 2.1379-2.1336 2.1272-2.1315-2.1272zm0 8.528 2.1336 2.1315-2.1336 2.1315-2.1315-2.1315zm0 12.795-2.1315-2.1272 2.1315-2.1379 2.1336 2.1379z" fill="#0a0a0a"/><path d="m271.03-168.63c-2.7277-0.68351-5.5789-1.0498-8.5131-1.0498-19.343 0-35.17 15.825-35.17 35.175v27.281h17.028v-27.281c0-16.415 11.392-30.288 26.655-34.125z" fill="#fff"/></g><g fill="#ea1c2d" stroke-width="3.3039"><path d="m108.19 201.35c-2.3986-1.4108-3.6012-3.8821-3.6012-7.4139v-54.61h15.895v-20.567h-15.895v-44.077h-29.444v44.077h-13.14v20.567h13.14v54.686c0 12.393 1.4504 20.322 4.3347 23.765 2.8975 3.4691 10.701 5.1937 23.411 5.1937h18.647v-20.127h-5.5109c-3.5319 0-6.1386-0.5088-7.8368-1.4934z"/><path d="m189.97 120.04c-5.2268-3.5418-13.067-5.2994-23.514-5.2994-10.457 0-18.588 1.6255-24.36 4.8699-7.2058 4.1067-10.81 10.586-10.81 19.486v11.207h28.605v-10.989c0-1.9856 0.47247-3.4625 1.4537-4.4503 0.96144-0.99447 2.131-1.49 3.5186-1.49 1.6552 0 2.9107 0.49558 3.74 1.49 0.81937 0.98787 1.2456 2.4647 1.2456 4.4503v10.117c0 7.4007-6.6078 9.5681-19.81 15.918-13.209 6.3732-19.81 15.627-19.81 25.229v15.238c0 6.3402 1.8436 11.085 5.5076 14.187 3.6673 3.109 9.8885 4.6618 18.654 4.6618 5.3589 0 9.4954-0.38987 12.38-1.153 2.9008-0.77973 5.0517-2.5143 6.469-5.2003v4.6684h26.061v-82.815c-6e-3 -9.3302-3.1255-16.027-9.3302-20.124zm-20.121 77.922c0 1.8337-0.47575 3.2279-1.3777 4.1464-0.91518 0.91188-2.0881 1.3678-3.4988 1.3678-1.6916 0-3.0032-0.45594-3.9184-1.3678-0.91849-0.91848-1.3711-2.3127-1.3711-4.1464v-9.0857c0-2.2566 0.70042-4.0968 2.1211-5.4977 1.4108-1.4306 4.0902-2.6134 8.0483-3.6112z"/><path d="m212.36 74.66h29.454v148.31h-29.454z"/><path d="m302.99 118.76-17.167 38.566v-82.663h-29.444v148.31h29.444v-38.342l18.224 38.342h34.536l-27.115-52.809 23.732-51.402z"/></g><g fill="#fff"><polygon transform="matrix(3.45 0 0 3.45 -390.27 -516.95)" points="210.2 177.95 215.5 177.95 215.5 214.47 224.94 214.47 224.94 177.94 230.25 177.94 230.25 171.28 210.2 171.28"/><path d="m430.53 222.97-25.464-149 28 2e-6 11.376 93.688 11.552-93.688 28 6e-6 -25.464 149z"/></g></g></svg>
