<svg width="800" height="193.69" enable-background="new 0 0 899.5 576" version="1.1" viewBox="0 0 800 193.69" xml:space="preserve" xmlns="http://www.w3.org/2000/svg" xmlns:xlink="http://www.w3.org/1999/xlink"><defs><linearGradient id="a"><stop stop-color="#1d64b1" offset="0"/><stop stop-color="#224699" offset="1"/></linearGradient><radialGradient id="e" cx="107" cy="467.1" r="107" gradientTransform="matrix(.88928 0 0 .90511 0 -325.92)" gradientUnits="userSpaceOnUse" xlink:href="#a"/><radialGradient id="c" cx="328.1" cy="467.1" r="107" gradientTransform="matrix(.88928 0 0 .90511 0 -325.92)" gradientUnits="userSpaceOnUse"><stop stop-color="#ed2239" offset="0"/><stop stop-color="#c0202e" offset="1"/></radialGradient><radialGradient id="d" cx="549.3" cy="467.1" r="107" gradientTransform="matrix(.88928 0 0 .90511 0 -325.92)" gradientUnits="userSpaceOnUse" xlink:href="#a"/><radialGradient id="b" cx="783.45" cy="441.9" r="116.15" gradientTransform="matrix(.88928 0 0 .64084 0 -208.75)" gradientUnits="userSpaceOnUse"><stop stop-color="#a8aaac" offset="0"/><stop stop-color="#7e8083" offset="1"/></radialGradient></defs>
<path class="st1" d="m431.04 3.2014" fill="#fff" stroke-width=".88928"/><path class="st6" d="m14.051 14.851h162.12v47.132h-53.179v119.43h-55.669v-119.43h-53.268z" fill="#fff" stroke-width=".88928"/><path class="st7" d="m312.05 68.92v-0.44464c0-7.6478-5.9582-11.383-17.875-11.383h-24.011v23.299h24.277c11.739-0.0889 17.608-3.9128 17.608-11.472m4.2686 58.248v-0.44464c0-3.6461-1.5118-6.5807-4.5354-8.8039s-7.5589-3.2904-13.606-3.2904h-28.101v24.722h27.835c6.0471 0 10.582-1.0671 13.695-3.2904 3.2014-2.3121 4.7132-5.2468 4.7132-8.8928m56.203 8.0925c0 6.6696-1.3339 12.806-4.0907 18.408-2.6678 5.6025-6.7586 10.494-12.183 14.673-5.4246 4.0907-12.094 7.3811-20.187 9.6043-8.0036 2.3121-17.252 3.4682-27.746 3.4682h-92.486v-166.56h93.286c11.561 0 21.165 1.245 28.635 3.8239 7.5589 2.5789 13.784 6.225 18.675 11.205 3.0236 3.0236 5.5136 6.6696 7.3811 10.938 1.8675 4.2686 2.8457 9.2486 2.8457 15.029v0.44464c0 9.96-2.6679 18.052-8.0925 24.189s-12.628 10.76-21.699 13.962c10.849 3.2014 19.475 7.8257 25.878 14.051 6.4028 6.225 9.6043 15.029 9.6043 26.412v0.35571z" fill="#fff" stroke-width=".88928"/><path class="st6" d="m516.59 14.851h55.225v166.56h-49.533l-61.894-76.834v76.834h-55.225v-166.56h52.112l59.226 73.544v-73.544z" fill="#fff" stroke-width=".88928"/><path class="st8" d="m744.86 132.33-35.571-51.045v51.045h-51.845c-13.072-0.35572-22.855-3.2904-29.346-8.8039-6.9364-5.9582-11.561-11.916-13.784-17.964-2.2232-6.0471-3.3793-13.695-3.3793-22.944v-66.785h31.481v65.985c0 5.0689 0.53357 9.0707 1.6007 12.005 1.0672 2.9346 3.1125 5.4246 6.0471 7.3811 2.9346 1.9564 6.3139 2.9346 10.138 2.9346 4.6243 0 8.2703-1.1561 11.027-3.3793 2.6678-2.2232 4.4464-4.8021 5.3357-7.5589 0.88929-2.7568 1.3339-6.5807 1.3339-11.294v-66.074h31.481v49.355l34.237-49.355h36.727l-42.152 56.114 45.087 60.471h-38.417z" fill="#fff" stroke-width=".88928"/><path class="st1" d="m431.04 3.2014" stroke-width=".88928"/><path class="st6" d="m14.051 14.851h162.12v47.132h-53.179v119.43h-55.669v-119.43h-53.268zm-14.051 178.84h190.31v-193.69h-190.31z" fill="url(#e)" stroke-width=".88928"/><path class="st7" d="m312.05 68.92v-0.44464c0-7.6478-5.9582-11.383-17.875-11.383h-24.011v23.299h24.277c11.739-0.0889 17.608-3.9128 17.608-11.472m4.2686 58.248v-0.44464c0-3.6461-1.5118-6.5807-4.5354-8.8039s-7.5589-3.2904-13.606-3.2904h-28.101v24.722h27.835c6.0471 0 10.582-1.0671 13.695-3.2904 3.2014-2.3121 4.7132-5.2468 4.7132-8.8928m56.203 8.0925c0 6.6696-1.3339 12.806-4.0907 18.408-2.6678 5.6025-6.7586 10.494-12.183 14.673-5.4246 4.0907-12.094 7.3811-20.187 9.6043-8.0036 2.3121-17.252 3.4682-27.746 3.4682h-92.486v-166.56h93.286c11.561 0 21.165 1.245 28.635 3.8239 7.5589 2.5789 13.784 6.225 18.675 11.205 3.0236 3.0236 5.5136 6.6696 7.3811 10.938 1.8675 4.2686 2.8457 9.2486 2.8457 15.029v0.44464c0 9.96-2.6679 18.052-8.0925 24.189s-12.628 10.76-21.699 13.962c10.849 3.2014 19.475 7.8257 25.878 14.051 6.4028 6.225 9.6043 15.029 9.6043 26.412v0.35571zm14.406-135.26h-190.31v193.69h190.31z" fill="url(#c)" stroke-width=".88928"/><path class="st6" d="m516.59 14.851h55.225v166.56h-49.533l-61.894-76.834v76.834h-55.225v-166.56h52.112l59.226 73.544v-73.544zm-123.25 178.84h190.31v-193.69h-190.31z" fill="url(#d)" stroke-width=".88928"/><path class="st8" d="m593.42 9.3262e-7v90.084c0 32.459 26.323 58.782 58.782 58.782h147.8v-148.87zm151.45 132.33-35.571-51.045v51.045h-51.845c-13.072-0.35572-22.855-3.2904-29.346-8.8039-6.9364-5.9582-11.561-11.916-13.784-17.964-2.2232-6.0471-3.3793-13.695-3.3793-22.944v-66.785h31.481v65.985c0 5.0689 0.53357 9.0707 1.6007 12.005 1.0672 2.9346 3.1125 5.4246 6.0471 7.3811 2.9346 1.9564 6.3139 2.9346 10.138 2.9346 4.6243 0 8.2703-1.1561 11.027-3.3793 2.6678-2.2232 4.4464-4.8021 5.3357-7.5589 0.88929-2.7568 1.3339-6.5807 1.3339-11.294v-66.074h31.481v49.355l34.237-49.355h36.727l-42.152 56.114 45.087 60.471h-38.417z" fill="url(#b)" stroke-width=".88928"/></svg>
