<svg width="800" height="170.86" version="1.1" viewBox="0 0 211.67 45.207" xmlns="http://www.w3.org/2000/svg">
 <g transform="translate(1.5107 -128.74)">
  <g transform="matrix(.60805 0 0 .60805 -.59214 68.179)" fill="#fff">
   <g transform="matrix(3.4156 0 0 -3.4156 3.8995 105.31)">
    <path d="m0 0h18.219v-5.296h-5.98v-13.427h-6.257v13.427h-5.982zm-1.584-20.097h21.385v21.767h-21.385z" fill="#fff"/>
   </g>
   <g transform="matrix(3.4156 0 0 -3.4156 -563.24 1973.8)">
     <g transform="translate(199.53 540.99)" fill="#fff">
      <path d="m0 0v0.054c0 0.856-0.669 1.283-2.006 1.283h-2.703v-2.62h2.729c1.32 0 1.98 0.427 1.98 1.283m0.481-6.552v0.053c0 0.41-0.17 0.74-0.508 0.99-0.339 0.249-0.847 0.374-1.525 0.374h-3.157v-2.781h3.13c0.678 0 1.191 0.124 1.538 0.374 0.348 0.249 0.522 0.578 0.522 0.99m6.312-0.91c0-0.75-0.152-1.44-0.455-2.073-0.304-0.633-0.759-1.181-1.366-1.644-0.608-0.464-1.362-0.826-2.265-1.083-0.901-0.26-1.941-0.389-3.12-0.389h-10.393v18.723h10.484c1.302 0 2.376-0.143 3.223-0.428 0.848-0.287 1.547-0.705 2.099-1.257 0.34-0.34 0.617-0.75 0.83-1.23 0.214-0.482 0.322-1.044 0.322-1.685v-0.055c0-1.122-0.305-2.028-0.91-2.714-0.607-0.686-1.419-1.208-2.434-1.565 1.22-0.357 2.19-0.883 2.908-1.577 0.717-0.696 1.077-1.685 1.077-2.97zm1.626 15.204h-21.384v-21.767h21.384z" fill="#fff"/>
     </g>
   </g>
   <g transform="matrix(3.4156 0 0 -3.4156 196.79 105.31)">
    <path d="m0 0h6.205v-18.723h-5.563l-6.954 8.639v-8.639h-6.206v18.723h5.858l6.66-8.264zm-13.849-20.097h21.386v21.767h-21.386z" fill="#fff"/>
   </g>
   <g transform="matrix(5.0345 0 0 5.0345 1621.8 -965.88)" stop-color="#000000" stroke-width="3.5328" style="shape-inside:url(#rect249);white-space:pre" aria-label="UK">
    <path d="m-262.83 220.08q0 0.768-0.264 1.404-0.252 0.624-0.732 1.08-0.48 0.444-1.164 0.696-0.672 0.252-1.5 0.252-0.84 0-1.512-0.252t-1.14-0.696q-0.468-0.456-0.72-1.08-0.252-0.636-0.252-1.404v-5.292h2.04v5.124q0 0.348 0.084 0.66 0.096 0.312 0.276 0.564 0.192 0.24 0.492 0.384 0.312 0.144 0.744 0.144t0.732-0.144q0.312-0.144 0.504-0.384 0.192-0.252 0.276-0.564t0.084-0.66v-5.124h2.052z"/>
    <path d="m-255.98 223.29-3.156-3.912h-0.024v3.912h-2.016v-8.496h2.016v3.456h0.036l3.036-3.456h2.568l-3.66 3.912 3.876 4.584z"/>
   </g>
   <path d="m240.79 110.71h1.5875v52.123h-1.5875z" stop-color="#000000" stroke-width=".23659"/>
  </g>
 </g>
</svg>
