<svg width="1115.7" height="293.42" version="1.1" viewBox="0 0 1115.7 293.42" xmlns="http://www.w3.org/2000/svg">
 <g transform="matrix(1.3359 0 0 1.3359 279.62 656.2)">
  <g transform="matrix(1.036 0 0 1.036 -596.37 -831.13)">
   <path d="m739.6 540.12h212v-212h-212z" fill="#7a7a7a" fill-opacity=".30196"/>
  </g>
  <g transform="matrix(1.036 0 0 1.036 -596.37 -831.13)" fill="#fff">
   <path transform="translate(373.6 328.12)" d="m501.06 26.686c-57.876 0-104.79 46.893-104.79 104.77 0 6.171 0.56483 9.2113 1.6035 15.107h85.463v46.664l32.428-10.096v-36.4h26.701v-32.275h-26.67v-86.242c-5.7739-0.99286-8.6761-1.5273-14.74-1.5273zm-17.322 35.834v51.873h-51.246c2.2454-28.014 26.302-50.575 51.246-51.873z" fill="#fff"/>
  </g>
  <path d="m-209.31-271.55h363.33v-219.64h-363.33z" fill="#7a7a7a" fill-opacity=".30196" stroke-width="1.036"/>
  <path d="m41.965-298.52c-45.514 0-82.545-37.047-82.545-82.561s37.031-82.561 82.545-82.561c30.97 0 59.06 17.107 73.319 44.627l2.5479 4.9058h-42.412l-0.96535-0.93369c-8.8147-8.4191-20.351-13.056-32.489-13.056-26.001 0-47.16 21.143-47.16 47.144s21.158 47.16 47.16 47.16c19.339 0 36.604-12.091 43.662-29.815h-37l-15.477-28.264h90.917s0.45893 6.3301 0.45893 10.777c0 45.53-37.031 82.577-82.561 82.577m-133.87-131.08v130.86h-33.661v-130.86h-55.009v-31.176h148.65l-16.917 31.176z" fill="#fff" stroke-width="1.036"/>
 </g>
 <path d="m821.32 5.3979e-4 294.39 2.6e-5v293.42h-294.44" fill="#7a7a7a" fill-opacity=".30196" stroke-width="1.3359"/>
 <g transform="matrix(.80171 0 0 .80171 -1.2927 -14.941)" fill="#fff">
  <path d="m1072.2 185.17 22.27-0.05 0.05 63.46 72.26-0.03 0.12-63.43 22.38-0.08-0.02 154.4-22.36 0.09-0.03-72.83-72.41 0.01-0.08 72.75-22.21-0.03z"/>
  <path d="m1216.7 185.2 51.24-0.0302c8.33 0.28 16.79-0.32975 24.97 1.6102 10.46 2.37 20.54 7.44 27.83 15.44 8.58 9.79 14.23 21.98 16.94 34.67 2.83 13.53 2.73 27.51 0.98 41.17-1.53 14.67-6.43 29.28-15.63 40.95-7.69 9.75-18.98 16.61-31.26 18.64-12.803 1.9549-49.652 1.75-75.05 1.75l-0.02-154.23m22.95 18.21-0.1 117.8h26.4c9.9091 0 19.86-0.05 28.71-4.52 6.33-3.04 10.79-8.79 14.35-14.67 6.18-10.55 7.97-22.97 8.29-35.01 0.18-12.65-0.4-25.6-4.79-37.59-4-11.85-13.76-22.47-26.5-24.49-14.908-1.3712-31.068-1.52-46.36-1.52z"/>
 </g>
</svg>
