<svg width="800" height="338.37" version="1.1" viewBox="0 0 211.67 89.528" xmlns="http://www.w3.org/2000/svg">
 <path d="m170.81 74.859c0.76254 11.371 10.81 14.6 20.947 14.6 10.149 0 19.905-4.3622 19.905-14.511 0-10.799-9.285-12.414-18.862-13.647-7.1096-0.85227-10.81-1.7045-10.9-5.4948-0.28038-4.0819 4.6425-6.347 9.386-6.347 4.8331 0 10.328 1.413 10.328 5.9658h9.1056c0.28023-9.0944-8.915-13.749-19.434-13.749-9.958 0-19.434 4.5528-19.434 14.32 0.28037 10.328 10.81 11.371 20.185 12.604 5.977 0.76254 10.238 1.9961 10.238 6.1677-0.28037 5.5845-5.8761 7.0086-10.9 7.0086-4.9228 0-10.137-2.1755-10.429-6.9189zm-25.03-46.257h-9.0944l-1.0429 14.118h-9.285v6.7395l9.285 0.66162v20.756c0 17.92 12.223 21.52 27.867 16.686l-1.0429-7.7713c-9.3861 3.3081-16.686 2.5567-16.686-9.1056v-20.566h15.834v-7.4011h-15.834zm-29.762 36.782c-0.28038 8.4328-4.2613 14.409-11.943 14.409-8.4328 0-12.515-6.5489-12.515-14.892 0.29158-9.857 6.1677-14.881 14.881-14.881 2.938 0 6.448 0.48223 9.5766 1.8952zm9.9578-19.434c-5.977-2.6577-12.234-4.2725-18.772-4.2725-14.881-0.28024-25.69 8.0628-25.971 23.224 0 12.896 6.7283 24.077 20.667 24.077 6.7283 0 13.176-3.5997 15.733-9.9467v1.8952c0 7.5805 6.7283 8.3431 13.266 7.1096v-7.0199c-5.0238 0.48223-4.9228-2.1755-4.9228-6.347zm-79.438 16.013c0-7.4797 5.2144-12.033 11.752-12.033 6.448 0 9.4869 2.938 10.53 8.915 0.28036 1.9849 0.17942 4.4519 0.17942 17.337 0 9.2963 4.2725 13.939 16.024 11.943l-0.0897-7.1096c-5.0238 0.48223-5.5059-1.2223-5.5059-5.4947v-11.371c0-2.2764-0.0897-4.2725-0.37005-6.448-1.0429-9.0944-7.4011-15.834-17.068-15.834-6.0667-0.37016-12.133 2.1867-15.453 7.0199v-29.762h-10.328v69.189h10.328zm-27.109-33.353h-9.1056l-1.0429 14.118h-9.285v6.7395l9.285 0.66161v20.756c0 17.92 12.234 21.52 27.867 16.686l-1.0429-7.7713c-9.3747 3.3081-16.675 2.5567-16.675-9.1056v-20.566h15.822v-7.4011h-15.822z" fill="#ca3493" stroke-width="1.3368"/>
 <path d="m209.23 13.906c-0.17945-0.47098-0.60552-1.0765-0.66161-1.5587-0.11202-0.07874-0.16816-0.19071-0.17944-0.3254-0.0786-0.08943-0.0786-0.05614-0.10093-0.17944-0.0897-0.08943-0.0786-0.06737-0.11202-0.17942-0.10093-0.08943-0.14571-0.15686-0.17945-0.29153-0.11202-0.08997-0.13448-0.20203-0.25789-0.29155-0.0226-0.10079-0.0897-0.1907-0.17944-0.25805-0.0561-0.24678-0.59433-0.91952-0.82982-1.0429-0.0226-0.12338-0.17945-0.25807-0.29158-0.325-0.0674-0.31412-0.70647-0.75133-0.94196-0.98681-0.314-0.29153-0.66162-0.58315-0.97561-0.89713-0.13448-0.03235-0.3925-0.26895-0.50463-0.37016-0.16818-0.12338-0.39249-0.26896-0.51583-0.42613-0.0897-0.02433-0.19064-0.08997-0.24669-0.17944-0.10093-0.0242-0.19064-0.08997-0.2579-0.19073-0.38125-0.06737-0.61676-0.50458-1.0092-0.61672-0.0897-0.08997-0.15702-0.14602-0.29158-0.17944-0.0897-0.07874-0.0562-0.07874-0.17942-0.10079-0.0897-0.08943-0.0674-0.07874-0.17945-0.11202-0.0897-0.08996-0.0674-0.07874-0.19064-0.11202-0.0449-0.08997-0.1345-0.146-0.24669-0.146-0.0449-0.08943-0.1457-0.14556-0.2579-0.14556-0.0785-0.13464-0.31399-0.23549-0.47098-0.24677-0.17944-0.29154-0.87468-0.50464-1.1887-0.65041-0.42614-0.202-0.84105-0.4037-1.2672-0.58314-1.0093-0.42613-2.0409-0.80736-3.0838-1.155-4.8332-1.6148-9.9018-2.2203-14.993-2.3212h-0.35883c0-0.19072-6.5938 0.45976-7.6366 0.61678-1.0317 0.15686-2.0633 0.3363-3.0838 0.5831-1.4354 0.3363-2.8708 0.68402-4.2725 1.155-1.0429 0.34758-2.0633 0.72891-3.0726 1.155-0.42612 0.17944-0.85226 0.38105-1.2672 0.58311-0.34762 0.15686-0.78499 0.50464-1.1662 0.53827-0.0786 0.13464-0.30279 0.24677-0.47099 0.25807-0.0449 0.10079-0.13449 0.146-0.2467 0.146-0.0449 0.10079-0.14571 0.14556-0.25789 0.14556-0.0786 0.07874-0.0562 0.07874-0.17944 0.11202-0.0449 0.08997-0.13464 0.14602-0.24669 0.13464-0.0897 0.10079-0.15702 0.14602-0.29157 0.19073-0.0897 0.08943-0.15697 0.14602-0.29157 0.17944-0.21306 0.31412-0.71768 0.34758-0.94197 0.68403-0.10093 0.0242-0.19065 0.08997-0.25789 0.17944-0.32521 0.07874-0.81863 0.57189-1.0878 0.82984-0.13449 0.03235-0.41491 0.30282-0.50462 0.43733-0.26912 0.05615-0.59433 0.52707-0.79619 0.72892-0.21305 0.2129-0.45976 0.52705-0.71769 0.68402-0.0449 0.21292-0.42613 0.53827-0.58312 0.72891-0.17943 0.21291-0.37003 0.52707-0.58312 0.68405-0.0226 0.10079-0.0897 0.19072-0.17942 0.25805-0.0335 0.17944-0.20187 0.26896-0.25792 0.47096-0.0897 0.07874-0.14571 0.14556-0.17944 0.28026-0.0786 0.08943-0.0786 0.06737-0.10092 0.19072-0.12325 0.06737-0.16818 0.19072-0.17943 0.3254-0.38129 0.23547-0.61676 1.1775-0.76255 1.5924-0.43734 1.1662-0.72891 2.4783-0.61677 3.7229 0.11216 1.2896 0.26913 2.4558 0.7177 3.6669 0.17942 0.44856 0.60555 1.0093 0.66162 1.4802 0.11203 0.06737 0.15697 0.19072 0.17943 0.325 0.0786 0.08996 0.0786 0.05615 0.10092 0.17942 0.12339 0.07874 0.22429 0.24678 0.25792 0.40367 0.0897 0.05615 0.0897 0.11202 0.17944 0.17944 0.0562 0.30282 0.51584 0.76256 0.76253 1.0093 0.0335 0.19073 0.30279 0.35889 0.43734 0.50461 0.14571 0.17942 0.26915 0.38144 0.47098 0.51584 0.0449 0.24677 0.52706 0.56067 0.7177 0.75133 0.22426 0.22419 0.61675 0.41492 0.76253 0.69528 0.19065 0.03235 0.41492 0.33629 0.58313 0.47098 0.22427 0.16814 0.53826 0.30281 0.71768 0.53826 0.10093 0.02433 0.19064 0.08943 0.25791 0.17945 0.42612 0.07874 0.68404 0.58309 1.1214 0.69522 0.0786 0.08997 0.14572 0.14556 0.29158 0.17945 0.0897 0.07874 0.0562 0.07874 0.17944 0.10079 0.0897 0.08943 0.0561 0.07874 0.17942 0.11202 0.0897 0.08997 0.0562 0.07874 0.17945 0.11202 0.0562 0.10079 0.14571 0.14556 0.25791 0.14556 0.0786 0.12338 0.24669 0.20202 0.39249 0.21291 0.0897 0.13464 0.314 0.23549 0.47099 0.25807 0.17943 0.26895 0.79617 0.43733 1.0877 0.57189 0.35883 0.17944 0.71768 0.35886 1.0877 0.51584 0.87468 0.35887 1.7493 0.69525 2.6464 1.0092 1.155 0.41492 2.3212 0.75133 3.51 1.0541 0.74013 0.17944 1.4914 0.35887 2.2427 0.50464 0.47099 0.08997 0.94196 0.17944 1.413 0.25807 0.42612 0.06737 1.1214 0.03235 1.4914 0.24677-0.20187 0.71771-0.53827 1.4242-0.84105 2.097-0.22428 0.50464-0.74011 1.1662-0.79618 1.7045-0.0897 0.04478-0.14571 0.14556-0.14571 0.25807-0.0897 0.04478-0.14572 0.13464-0.14572 0.24677-0.0786 0.08943-0.0786 0.06737-0.10093 0.17945-0.0897 0.08996-0.0786 0.06737-0.11215 0.1907-0.10093 0.07874-0.14571 0.14556-0.17944 0.28026-0.19065 0.12338-0.20186 0.38104-0.4037 0.51581-0.0449 0.2129-0.31399 0.49341-0.47099 0.68406-0.14571 0.19073-0.30278 0.40371-0.47097 0.5831-0.314 0.33628-0.76256 0.61676-1.0092 1.0093-0.14571 0.03235-0.43734 0.3141-0.53828 0.43733-0.10093 0.0242-0.19064 0.08943-0.25789 0.17944-0.0897 0.0242-0.16818 0.06737-0.21307 0.14602h0.32521c0.0107 0.26895 3.8463-0.81862 4.3734-1.0093 0.40371-0.15686 0.78496-0.325 1.1662-0.5158 0.26915-0.13464 0.6392-0.40372 0.94196-0.42613 0.0674-0.12338 0.19064-0.16815 0.32522-0.19073 0.0449-0.08943 0.13448-0.14602 0.24669-0.14602 0.0897-0.07874 0.0674-0.06737 0.17943-0.10079 0.0897-0.08943 0.0674-0.07874 0.19063-0.11202 0.0786-0.07874 0.0561-0.07874 0.17945-0.11202 0.0897-0.13464 0.33641-0.28023 0.50462-0.3254 0.16824-0.24676 0.53827-0.26895 0.72891-0.53826 0.0897-0.0242 0.19064-0.08943 0.24669-0.17944 0.28035-0.05615 0.58312-0.42613 0.82982-0.61676 0.28035-0.21291 0.58312-0.40371 0.84104-0.65041 0.3364-0.06737 0.81862-0.68406 1.0878-0.90833 0.30277-0.26895 0.75133-0.54948 0.97559-0.9083 0.30278-0.05614 0.8074-0.74012 1.0429-0.97561 0.0897-0.07874 0.16822-0.22419 0.25791-0.29152 0.45975-0.3141 1.312-0.17944 1.8839-0.2129 1.099-0.07874 2.1979-0.17945 3.2969-0.32501 2.2652-0.30282 4.4968-0.77373 6.6946-1.3793 1.3568-0.37016 2.6801-0.86346 3.9809-1.3793 0.54948-0.20202 1.0653-0.44854 1.5924-0.68403 0.41491-0.17942 0.97561-0.60556 1.413-0.6504 0.0897-0.13464 0.314-0.23547 0.47099-0.25807 0.0786-0.11202 0.19064-0.16814 0.32519-0.17944 0.0561-0.10079 0.14571-0.14602 0.2579-0.14602 0.0897-0.07874 0.0562-0.07874 0.17943-0.10079 0.0897-0.08997 0.0561-0.07874 0.17943-0.11202 0.0897-0.08943 0.0674-0.07874 0.17944-0.11202 0.0897-0.07874 0.0674-0.07874 0.19065-0.10079 0.0786-0.10079 0.14571-0.14556 0.28035-0.19072 0.23549-0.34758 0.79619-0.38145 1.0541-0.75133 0.20185-0.04478 0.47099-0.31412 0.65041-0.43734 0.17942-0.12339 0.38129-0.3141 0.54949-0.47102 0.19063-0.04478 0.63918-0.45975 0.75132-0.6504 0.16818-0.03235 0.44855-0.35887 0.54947-0.50462 0.21306-0.04478 0.47098-0.42614 0.61677-0.58312 0.17942-0.19072 0.34763-0.48216 0.5719-0.61676 0.0336-0.14556 0.25791-0.33628 0.37005-0.47098 0.13449-0.17942 0.25789-0.4037 0.42613-0.53824 0.0449-0.23549 0.30276-0.35889 0.37003-0.61678 0.10093-0.08997 0.14571-0.15686 0.17944-0.29153 0.0786-0.08943 0.0786-0.05615 0.11215-0.17945 0.0786-0.08943 0.0786-0.06737 0.10093-0.17944 0.34759-0.22419 0.60552-1.1101 0.76254-1.4914 0.39234-0.9644 0.6392-2.0073 0.72891-3.0389 0.12339-1.4802-0.13464-3.0614-0.65044-4.4519" fill="#ca3493" stroke-width="1.3368"/>
 <path d="m192.97 11.63-6.5377 15.308h-1.0653l-6.5937-15.308v-0.38145h2.7474l2.2315 5.3827 2.1307 5.7527h0.0674l2.0409-5.6406 2.2427-5.4948h2.7361zm-24.154 9.5093v-6.7395l-3.0166-0.22419v-2.1867h3.0166l0.34761-4.5865h2.9492v4.5865h5.1472v2.411h-5.1472v6.6834c0 3.7791 2.3773 4.0259 5.4275 2.9492l0.33642 2.523c-5.0799 1.5811-9.0609 0.40372-9.0609-5.4162" fill="#fff" stroke-width="1.3368"/>
</svg>
