<?xml version="1.0" encoding="UTF-8" standalone="no"?>
<svg
   version="1.1"
   width="602.13739"
   height="254.69618"
   xml:space="preserve"
   viewBox="0 0 602.13739 254.69618"
   id="svg14555"
   xmlns="http://www.w3.org/2000/svg"
   xmlns:svg="http://www.w3.org/2000/svg"><defs
     id="defs281" /><path
     d="M 485.92197,212.99423 C 488.09132,245.34181 516.67478,254.53039 545.51281,254.53039 574.38348,254.53039 602.1374,242.12048 602.1374,213.24894 602.1374,182.52751 575.72354,177.93386 548.4803,174.42557 528.25491,172.001 517.72751,169.57656 517.47154,158.79383 516.67392,147.18182 530.6791,140.73791 544.17273,140.73791 557.92234,140.73791 573.55408,144.7575 573.55408,157.70972 H 599.4585 C 600.25574,131.83792 574.09613,118.59774 544.17398,118.59774 515.84538,118.59774 488.88948,131.54933 488.88948,159.33713 489.68708,188.71848 519.64227,191.68597 546.3146,195.19428 563.31779,197.36349 575.44124,200.87267 575.44124,212.73951 574.64359,228.62596 558.72538,232.67757 544.43247,232.67757 530.42815,232.67757 515.59317,226.48861 514.76377,212.99423 Z M 414.71839,81.39551 H 388.84659 L 385.87973,121.55771 H 359.46588 V 140.73038 L 385.87973,142.6125 V 201.66128 C 385.87973,252.63947 420.65276,262.87953 465.1539,249.13118 L 462.18716,227.02364 C 435.48597,236.43444 414.71726,234.29734 414.71726,201.11923 V 142.61375 H 459.76171 V 121.55896 H 414.71726 Z M 330.05379,186.03079 C 329.25612,210.02046 317.9311,227.02364 296.07879,227.02364 272.08913,227.02364 260.47636,208.39303 260.47636,184.65684 261.30587,156.61557 278.02161,142.32391 302.80929,142.32391 311.1676,142.32391 321.15256,143.69573 330.05379,147.71547 Z M 358.38239,130.74628 C 341.37921,123.18576 323.578,118.59171 304.98002,118.59171 262.64709,117.79444 231.89431,141.52864 231.09753,184.65835 231.09753,221.34488 250.23883,253.14915 289.89159,253.14915 309.03289,253.14915 327.37614,242.90859 334.64871,224.85317 V 230.24473 C 334.64871,251.8102 353.78999,253.97968 372.38797,250.47012 V 230.49944 C 358.09631,231.87139 358.38365,224.31086 358.38365,212.44351 Z M 132.38845,176.30393 C 132.38845,155.0258 147.22216,142.07295 165.82141,142.07295 184.16467,142.07295 192.80994,150.43139 195.77744,167.43533 196.57494,173.08185 196.2878,180.09956 196.2878,216.75598 196.2878,243.20246 208.44236,256.41001 241.87555,250.73099 L 241.62034,230.50559 C 227.32867,231.87754 225.95722,227.02841 225.95722,214.87385 V 182.52626 C 225.95722,176.05048 225.70201,170.3717 224.9045,164.183 221.93764,138.3112 203.84971,119.13854 176.3505,119.13854 159.09134,118.08558 141.83344,125.35936 132.39015,139.10923 V 54.444619 H 103.00881 V 251.27806 H 132.38513 Z M 55.28501,81.380455 H 29.38059 L 26.41385,121.54266 H 0 V 140.71531 L 26.41385,142.59744 V 201.64622 C 26.41385,252.6244 61.218243,262.86446 105.68802,249.11611 L 102.72115,227.00859 C 76.051331,236.41937 55.282629,234.28228 55.282629,201.10417 V 142.5987 H 100.29696 V 121.54391 H 55.286389 Z"
     id="path259"
     style="fill:#ca3293;fill-opacity:1" /><path
     d="M 509.18459,3.5705624e-4 C 505.55348,-0.00253907 490.86695,1.4626015 488.27155,1.8534492 485.33656,2.2996604 482.40157,2.8104392 479.49824,3.5125308 475.41487,4.4692927 471.33267,5.4589336 467.34458,6.7988664 464.37769,7.7876344 461.47459,8.8718654 458.60322,10.084101 457.391,10.594612 456.17818,11.168332 454.99797,11.743183 454.00902,12.189424 452.76443,13.179392 451.67985,13.275142 451.45602,13.658403 450.81925,13.977244 450.34079,14.009369 450.21331,14.296184 449.95734,14.423574 449.63834,14.423574 449.51011,14.710399 449.22421,14.8389 448.90528,14.8389 448.68144,15.062754 448.74534,15.061803 448.39463,15.15665 448.26715,15.412729 448.01073,15.572155 447.69218,15.540208 447.43684,15.827033 447.2465,15.955246 446.86376,16.082646 446.60844,16.337217 446.4172,16.498408 446.03425,16.593296 445.42819,17.486839 443.99193,17.582352 443.35386,18.53946 443.06666,18.608472 442.81208,18.795738 442.62079,19.050121 441.69564,19.274342 440.29186,20.67673 439.52619,21.41049 439.14335,21.50272 438.34587,22.271611 438.09068,22.654207 437.32508,22.81393 436.39993,24.154329 435.82566,24.728604 435.21954,25.334251 434.5168,26.22704 433.78304,26.673609 433.65556,27.279315 432.57168,28.205687 432.12512,28.748006 431.61464,29.353653 431.07226,30.247602 430.46603,30.69417 430.40154,30.980996 430.21044,31.235696 429.95538,31.427237 429.85976,31.937679 429.38062,32.192726 429.22115,32.767407 428.96582,32.991619 428.80739,33.182128 428.71163,33.565141 428.48817,33.819712 428.48713,33.756582 428.42339,34.107569 428.07244,34.299159 427.94585,34.650423 427.91387,35.033584 426.82917,35.703501 426.15886,38.382325 425.74413,39.562534 424.49994,42.88036 423.67078,46.613721 423.98975,50.154429 424.30882,53.823123 424.75519,57.141127 426.03127,60.586541 426.54171,61.86262 427.75444,63.456926 427.91387,64.796631 428.23256,64.988221 428.35942,65.339465 428.42339,65.721486 428.64724,65.977574 428.64714,65.881467 428.71049,66.232145 429.06182,66.456357 429.34903,66.934247 429.44472,67.380577 429.70005,67.5403 429.70023,67.699498 429.95538,67.891237 430.11511,68.752704 431.42221,70.060452 432.12396,70.762257 432.21957,71.304903 432.98607,71.78316 433.36884,72.197771 433.78358,72.708214 434.13484,73.282816 434.709,73.665064 434.83647,74.367047 436.2082,75.259608 436.75052,75.801867 437.38852,76.439698 438.50442,76.982196 438.9191,77.779811 439.46151,77.872039 440.09971,78.736859 440.57818,79.119981 441.21625,79.598317 442.10921,79.982143 442.61969,80.65194 442.90689,80.720952 443.16253,80.90555 443.35392,81.16146 444.56614,81.385671 445.29973,82.820432 446.5438,83.139403 446.76764,83.395491 446.95859,83.553806 447.37332,83.650063 447.62865,83.873898 447.5332,83.874195 447.88398,83.937165 448.13931,84.191747 448.04393,84.161576 448.39464,84.256036 448.64996,84.512125 448.55454,84.48007 448.90529,84.574917 449.06501,84.861752 449.31937,84.989122 449.63836,84.989122 449.86221,85.340436 450.34022,85.562971 450.75501,85.593956 451.01033,85.977186 451.64861,86.263922 452.09517,86.328183 452.60561,87.093324 454.36038,87.572712 455.18977,87.955486 456.21067,88.465928 457.23164,88.976102 458.28437,89.422779 460.77268,90.443682 463.26076,91.400435 465.81258,92.293809 469.09856,93.474138 472.4158,94.431643 475.79789,95.293061 477.90336,95.803523 480.04173,96.313964 482.17858,96.728576 483.51841,96.984675 484.85816,97.239087 486.19804,97.462802 487.41039,97.654394 489.38816,97.555439 490.44101,98.165241 489.86676,100.20699 488.90912,102.21573 488.04776,104.12994 487.40981,105.56551 485.94216,107.44875 485.78273,108.98007 485.52741,109.10791 485.36852,109.3933 485.36852,109.71314 485.1132,109.84062 484.9532,110.0968 484.9532,110.41558 484.72936,110.67015 484.72946,110.60732 484.66609,110.92624 484.41076,111.18233 484.44245,111.1177 484.34721,111.46867 484.06002,111.6929 483.93278,111.88343 483.83656,112.26641 483.29421,112.61773 483.26237,113.35034 482.68813,113.73369 482.56065,114.33935 481.79563,115.13754 481.34907,115.67986 480.93477,116.22247 480.48742,116.82748 480.00889,117.33779 479.11564,118.29449 477.83969,119.09332 477.13787,120.20997 476.72315,120.30221 475.89305,121.10317 475.60591,121.4537 475.31872,121.52283 475.06416,121.70845 474.87285,121.96435 474.61751,122.03336 474.3945,122.15572 474.26685,122.37968 H 475.19171 C 475.2182,123.14477 486.13453,120.05098 487.63355,119.50866 488.78204,119.06239 489.8658,118.58409 490.95056,118.04137 491.71622,117.65811 492.76966,116.89311 493.63095,116.82943 493.82254,116.47811 494.17295,116.35008 494.55581,116.28586 494.68367,116.03131 494.93817,115.87167 495.25709,115.87167 495.51242,115.64783 495.44888,115.67979 495.76775,115.58457 496.02308,115.32998 495.95948,115.36015 496.31018,115.26569 496.53402,115.04185 496.4701,115.04165 496.82084,114.94682 497.07617,114.56359 497.77783,114.14931 498.25636,114.02079 498.73492,113.31881 499.78732,113.25617 500.32964,112.48993 500.58498,112.4208 500.87263,112.2351 501.03209,111.97928 501.82959,111.81956 502.69065,110.76728 503.39246,110.22491 504.19001,109.6192 505.05196,109.07584 505.78572,108.37402 506.7427,108.18243 508.11466,106.42816 508.88031,105.79008 509.74166,105.02501 511.01694,104.22692 511.65489,103.20614 512.51636,103.04641 513.95233,101.10048 514.62235,100.43046 514.87771,100.2066 515.10031,99.793666 515.35548,99.602046 516.66341,98.708562 519.08814,99.091296 520.7151,98.996052 523.84143,98.772197 526.96798,98.485273 530.09384,98.071187 536.53788,97.209659 542.88663,95.869846 549.13892,94.147079 552.99882,93.094051 556.76356,91.690552 560.46404,90.222962 562.02727,89.64825 563.49485,88.947696 564.99415,88.277908 566.17449,87.767466 567.76938,86.554556 569.01362,86.427028 569.26891,86.043757 569.90605,85.75711 570.35267,85.692801 570.57648,85.374109 570.89587,85.214277 571.27864,85.182142 571.43835,84.895316 571.69232,84.766806 572.01171,84.766806 572.26707,84.542971 572.17166,84.543814 572.52236,84.480834 572.77772,84.224745 572.68231,84.25681 573.03301,84.161963 573.28836,83.907391 573.22481,83.937552 573.54366,83.843081 573.79902,83.619237 573.73533,83.618959 574.08609,83.555978 574.30996,83.269163 574.49949,83.141822 574.88273,83.013551 575.55269,82.024783 577.14834,81.928913 577.88198,80.876747 578.45632,80.749278 579.22256,79.982451 579.73286,79.63187 580.24334,79.280547 580.81703,78.738099 581.29544,78.2917 581.83782,78.164221 583.11431,76.984418 583.4334,76.44198 583.91187,76.34975 584.70895,75.421146 584.99604,75.006475 585.60209,74.878997 586.33574,73.794011 586.75042,73.347384 587.26089,72.804817 587.73965,71.975961 588.37772,71.593018 588.47335,71.178713 589.11177,70.636087 589.43081,70.252847 589.81364,69.742484 590.16416,69.104762 590.64274,68.721988 590.77062,68.05208 591.5045,67.701204 591.69583,66.967612 591.98303,66.711533 592.10963,66.521153 592.20538,66.138101 592.42919,65.883529 592.43018,65.978229 592.52541,65.627441 592.7492,65.37288 592.7491,65.435672 592.81249,65.116791 593.80137,64.479009 594.53438,61.958391 594.98106,60.873813 596.09719,58.130262 596.80028,55.163492 597.05545,52.228906 597.40679,48.018062 596.67181,43.519501 595.20464,39.564538 V 39.561046 C 594.6941,38.221233 593.48274,36.499101 593.32313,35.127381 593.00445,34.903159 592.84461,34.584586 592.81249,34.201365 592.58903,33.946804 592.58914,34.041453 592.52541,33.690716 592.27005,33.436124 592.30137,33.498887 592.20648,33.180055 591.91929,32.925475 591.79211,32.733636 591.69583,32.350535 591.37715,32.094446 591.31242,31.776795 590.96166,31.522125 590.89717,31.235299 590.70724,30.979498 590.45211,30.787898 590.29239,30.085856 588.76056,28.171241 588.09063,27.820424 588.02609,27.46911 587.5801,27.087069 587.26107,26.896729 587.0695,26.003077 585.25163,24.759291 584.58184,24.089265 583.68853,23.259933 582.69952,22.430362 581.8061,21.537106 581.42326,21.444877 580.68963,20.771965 580.37058,20.484019 579.89218,20.132706 579.25423,19.718005 578.90335,19.270921 578.648,19.201909 578.3615,19.014673 578.202,18.76026 577.91481,18.691249 577.65916,18.504261 577.46778,18.217832 576.3832,18.026242 575.71329,16.782545 574.59676,16.463456 574.34146,16.207358 574.15001,16.04809 573.76723,15.952797 573.51194,15.728952 573.60728,15.729805 573.25658,15.666824 573.00123,15.412263 573.0649,15.442801 572.74594,15.347953 572.49058,15.091855 572.5542,15.12392 572.2035,15.029072 572.07527,14.772994 571.82119,14.613737 571.50221,14.613737 571.37399,14.359165 571.08737,14.199542 570.76798,14.199542 570.54493,13.816271 569.87549,13.529228 569.42892,13.497093 568.91844,12.66769 566.9405,12.062103 566.04724,11.647373 564.83496,11.07271 563.65434,10.498881 562.44198,9.988291 559.57073,8.7760653 556.63569,7.6909614 553.66868,6.7019554 539.91897,2.1082782 525.49878,0.38574966 511.01641,0.09872605 H 509.99621 C 509.99621,0.03090521 509.70242,4.5623852e-4 509.18373,0 Z M 481.17795,21.059812 H 489.56722 V 34.108809 H 504.21052 V 40.96768 H 489.56722 V 59.98138 C 489.56722,70.732463 496.33022,71.434336 505.00826,68.371805 L 505.966,75.549657 C 491.51501,80.047752 480.18929,76.698436 480.18929,60.141153 V 40.96768 L 471.60771,40.329957 V 34.109047 H 480.18929 Z M 508.51874,32.002633 H 516.33514 L 522.68329,47.315267 528.74443,63.681276 H 528.93622 L 534.74294,47.635408 541.12248,32.003793 H 548.90575 V 33.087499 L 530.30748,76.633948 H 527.27755 L 508.5195,33.087499 Z"
     id="path261"
     style="fill:#ca3293;fill-opacity:1" /></svg>
