<svg width="800" height="173.91" version="1.1" viewBox="0 0 800 173.91" xmlns="http://www.w3.org/2000/svg">
 <g stroke-width="4.3478">
  <path d="m83.208 55.152v-23.081h-4.5487v-3.489h4.5487v-8.8565h3.8795v8.8565h6.1534v3.489h-6.1534v23.081z"/>
  <path d="m115.05 28.851c1.6052 0.80517 2.8091 1.8787 3.7456 3.3548 0.93651 1.4761 1.3378 3.2206 1.3378 5.2334v17.713h-3.7461v-16.103c0-5.2334-2.4078-7.9173-6.9565-7.9173-2.6752 0-4.8156 0.9393-6.1534 2.9522s-2.007 4.5626-2.007 7.783v13.285h-3.8795v-41.197h3.8795v19.055c0.93652-1.7445 2.1404-2.9522 3.6122-3.8915 1.4717-0.93934 3.2108-1.3419 5.2174-1.3419 1.7391-0.13417 3.4782 0.26839 4.95 1.0735z"/>
  <path d="m145.41 29.388c1.873 1.2077 3.4782 2.818 4.5487 4.8308 1.07 2.0129 1.6052 4.2941 1.6052 6.8439v1.6103h-21.806c0.13391 2.6838 1.0704 5.0995 2.6756 6.9782 1.6056 1.8787 3.8795 2.9522 6.6891 2.9522 2.2743 0 4.1469-0.40261 5.6187-1.3422 1.4717-0.80521 2.6756-2.0126 3.6122-3.4887l3.0769 2.0126c-1.2043 2.013-2.9435 3.4891-4.95 4.5626s-4.4148 1.6104-7.2239 1.6104c-2.5422 0-4.8161-0.67086-6.823-1.8787-2.0065-1.2078-3.6117-2.9522-4.6822-5.0995-1.0704-2.1469-1.7391-4.5621-1.7391-7.3804 0-2.6838 0.53522-5.2334 1.6052-7.3804 1.0704-2.147 2.6756-3.8915 4.6826-5.0991 2.0065-1.2077 4.2808-1.8787 6.8226-1.8787 2.2743 0.40261 4.4148 1.0736 6.2874 2.1471zm2.4082 10.064c-0.4013-2.818-1.3378-4.8308-2.8096-6.173-1.4713-1.3419-3.4782-2.0129-6.02-2.0129-2.4078 0-4.4148 0.80517-6.02 2.4155s-2.5417 3.4889-2.943 5.9043h17.792z"/>
  <path d="m53.913 73.404c5.4848 3.3548 9.6321 7.9173 12.709 13.688 3.0769 5.9043 4.5482 12.479 4.5482 19.994 0 7.3808-1.4713 13.956-4.5482 19.86-3.0769 5.7704-7.2243 10.333-12.575 13.688-5.3513 3.2204-11.505 4.9652-18.328 4.9652-5.2174 0-10.033-1.2078-14.314-3.4891-4.4148-2.2813-8.0269-5.6361-10.97-9.796v41.599h-10.435v-102.93h10.435v10.601c2.9431-4.16 6.5552-7.3804 10.97-9.6617 4.2809-2.2813 8.963-3.4891 14.18-3.4891 6.6891 0.13435 12.843 1.7448 18.328 4.9652zm-5.2174 58.908c3.7456-2.4156 6.8226-5.9043 8.963-10.199 2.1404-4.4282 3.2108-9.2591 3.2108-14.895 0-5.6361-1.0704-10.735-3.2108-15.164-2.1404-4.4282-5.0834-7.9173-8.963-10.333-3.7456-2.4156-8.0269-3.7574-12.843-3.7574-4.95 0-9.2308 1.2078-13.11 3.7574-3.8796 2.4152-6.8226 5.9043-8.963 10.333-2.1405 4.4287-3.2107 9.3934-3.2107 14.896 0 5.5017 1.0702 10.467 3.2107 14.895 2.1405 4.4282 5.0834 7.9173 8.963 10.333 3.8796 2.4156 8.1604 3.7574 13.11 3.7574 4.6821 0.13435 9.0973-1.2074 12.843-3.623z"/>
  <path d="m134.58 73.269c5.2174 3.2208 9.3647 7.5147 12.308 13.017 2.943 5.5017 4.4148 11.675 4.4148 18.384 0 2.0126 0 3.4887-0.13391 4.4282h-59.13c0.4013 7.3804 2.8095 13.687 7.2243 18.921 4.4148 5.2334 10.435 7.9174 17.926 7.9174 6.1539 0 11.238-1.2078 15.251-3.4887 4.0134-2.2813 7.3578-5.5021 9.766-9.6621l8.2943 5.5021c-3.3443 5.3674-7.893 9.5273-13.378 12.614-5.4852 3.0865-12.04 4.5626-19.666 4.5626-6.9565 0-13.11-1.6104-18.595-4.9652-5.4852-3.2204-9.6321-7.9174-12.709-13.687-3.0769-5.7704-4.5487-12.346-4.5487-19.726 0-7.3804 1.4717-13.956 4.5487-19.86 3.0769-5.9043 7.2239-10.467 12.575-13.687 5.3513-3.2209 11.505-4.9652 18.328-4.9652 6.4213 0 12.307 1.4761 17.525 4.6965zm6.2878 27.241c-1.0704-7.5147-3.4782-13.151-7.4917-16.908-4.0135-3.7574-9.3643-5.6361-16.321-5.6361-6.6891 0-12.174 2.1469-16.321 6.4413-4.2808 4.2939-6.9565 9.6617-8.0265 16.103z"/>
  <path d="m170.43 143.05v-62.534h-12.308v-9.5273h12.308v-23.886h10.435v23.886h16.589v9.5273h-16.589v62.534z"/>
 </g>
 <g fill="#f0bc1b" stroke-width="4.3478">
  <path d="m273.84 119.7c0.13347 2.2813-0.53522 4.16-2.007 5.5017-1.4713 1.3417-3.4782 2.8178-5.7526 4.4282-4.6822 3.623-9.4982 6.3069-14.582 8.1856-5.0834 1.8787-10.301 3.4891-15.919 4.6969-4.1474 0.93913-7.6256 0.67087-10.703-0.80521-1.6052-0.93956-3.2104-1.6104-4.8161-2.2813-1.6052-0.67087-3.0765-1.4761-4.5482-2.5496-2.5417-1.7448-4.5487-3.4891-6.2878-4.9652s-2.943-3.0865-3.7456-4.8308-1.2039-3.623-1.2039-5.9043 0.4013-4.9652 1.07-8.1856c1.0704-5.2339 3.2108-10.467 6.5552-15.835 3.3443-5.3678 7.2243-9.796 11.773-13.419 4.5487-3.6235 9.3647-5.7704 14.716-6.5756 5.2174-0.80521 10.569 0.80521 15.92 4.6969 0.93608 0.53652 1.6052 1.2074 2.1404 2.0126 0.53477 0.80521 1.2039 1.6104 1.8726 2.5495 1.2043 2.013 1.4717 3.3548 0.53522 4.2943-0.93652 0.93912-2.2743 1.7443-4.2808 2.4156-0.93651 0.13391-2.0065 0.26826-3.4782 0.26826-4.2808 0.13391-8.2943 1.3417-12.174 3.623-3.8795 2.2813-7.0904 5.0995-9.6321 8.4543s-4.2808 7.1121-5.2174 11.272c-0.93652 4.16-0.53522 8.0517 1.0704 12.077 0.93651 1.4761 2.0065 2.2813 3.4782 2.5496 1.4713 0.26869 2.5417 0.26869 3.4782 0.13435 5.4847-1.0735 10.702-2.9522 15.518-5.5017s9.7656-5.3678 14.983-8.1856c2.5422-1.7448 4.816-2.6839 6.823-2.8182 2.0065-0.13391 3.4782 1.4761 4.4148 4.6969z"/>
  <path d="m322.68 111.38c-3.0769 6.5752-6.6886 11.809-11.103 15.835-4.4148 3.8913-9.0969 7.9169-14.314 12.077-1.6052 1.0739-3.2108 2.1474-4.95 3.0865-1.7391 0.93956-3.4782 1.8787-5.4848 2.8182-3.8795 2.0126-8.1604 2.2813-12.976 0.80478-4.6826-1.4761-8.4282-4.1595-11.371-8.0513-2.5417-3.8917-3.4782-7.6491-2.943-11.138 0.53477-3.4891 1.4713-7.1121 2.6752-10.87 2.8096-6.3069 5.8865-12.346 9.2308-18.25 3.3448-5.9043 7.0904-11.406 11.639-16.639 2.6752-2.6839 5.3508-5.0995 8.0265-7.2465 3.0769-2.5496 6.2878-2.8178 9.6321-1.0735 0.93652 0.40261 1.6052 0.80521 2.2743 1.4761 0.66869 0.67087 1.3378 1.0735 2.0065 1.2078 10.301 2.0126 16.856 8.5882 19.799 20.129 1.4717 0.13435 2.9435 0.26826 4.5487 0.26826s3.0769 0.13435 4.5487 0.53695c1.4713 0.40261 2.8091 0.67086 4.2808 1.0735 1.4713 0.40261 2.8091 0.93956 4.0134 1.6104 1.7391 0.53652 2.5417 1.61 2.1404 3.2204-0.40173 1.6104-1.0704 2.8182-2.1404 3.4891-2.0069 1.4761-4.0134 2.4152-6.2878 2.8178-2.2743 0.4026-4.5487 0.93956-6.8226 1.4761-1.0704 0.4026-2.1404 0.53695-3.2108 0.6713-1.07 0.13391-2.1404 0.26826-3.2109 0.67086zm-20.869-0.26826c-3.0765-2.55-5.886-3.4891-8.6956-2.9526-2.8091 0.53696-5.2174 1.8787-7.2239 4.16s-3.7456 4.8308-5.0834 7.7834c-1.3378 2.9522-2.1404 5.636-2.2743 7.9169-0.13391 2.55 0.93652 3.3552 3.2108 2.4156 2.2739-0.93913 4.9495-2.5496 7.8926-4.8308 2.9435-2.2813 5.7526-4.9652 8.2943-7.783 2.5417-2.8182 3.8795-5.0995 3.8795-6.7095zm2.4082-22.276c-0.4013 0.67087-0.53521 1.2078-0.66913 1.3417-0.13347 0.13435-0.13347 0.26869-0.13347 0.40261 0 0.13435 0 0.26869-0.13391 0.40261-0.13392 0.13435-0.26739 0.6713-0.6687 1.3422-0.40173 0.67086-0.53521 1.4761-0.40173 2.4152 0.13391 0.93956 0.80304 1.7448 2.0069 2.4156 3.3443 0.40261 5.6187-0.40261 6.8226-2.4156 1.2039-2.0126 1.6052-3.8913 1.2039-5.77s-1.3378-3.0865-2.8091-3.7574c-1.4717-0.53695-3.2108 0.67087-5.2174 3.623z"/>
  <path d="m355.72 135.4c2.8091-3.2208 5.7526-6.173 8.5617-8.8569 2.8096-2.6835 6.2878-4.9648 10.167-6.9778 0.93651-0.40261 1.6052-0.80521 2.1404-1.2078 0.53521-0.40261 1.2039-0.40261 2.1404 0.13435 1.7391 0.93912 2.8091 2.2813 3.2104 4.0256 0.40174 1.7443-0.13347 3.3548-1.3374 4.5626-1.4717 1.2078-2.9435 2.4152-4.5487 3.4891-1.6052 1.0735-3.0769 2.1469-4.2808 3.2204-2.1404 2.013-4.2808 4.0256-6.4213 6.173-2.1404 2.1469-4.1474 4.2939-5.8865 6.4408-2.8091 3.7574-5.886 6.0387-9.2308 6.7095-3.3443 0.67131-6.4213 0.2687-9.3643-1.2074s-5.3513-3.8917-7.3578-7.1121c-2.007-3.2208-2.943-6.8439-2.943-11.004-0.53521-4.6965-0.66912-9.2591-0.53521-14.09 0.13391-4.6969 0.66869-9.3934 1.6052-14.09 1.7391-9.1247 3.7461-17.982 5.8865-26.57 2.1404-8.5882 4.4143-17.311 6.9565-26.033 1.2039-4.4287 2.943-9.796 5.0834-16.103 2.1404-6.3069 4.4148-12.077 6.9565-17.579s5.2174-10.064 8.2943-13.822c3.0769-3.7574 6.1539-5.5017 9.3643-5.3678 4.6826 0.40258 8.4282 1.6103 11.505 3.6232s4.8161 5.6361 5.3513 10.869c0.4013 4.6965 0 9.2591-1.0704 13.822-1.0704 4.5626-2.6756 8.9908-4.8161 13.553-2.0065 4.16-4.0134 8.1856-6.1539 12.48-2.1404 4.16-4.2808 8.3195-6.4213 12.479-3.6122 6.3074-7.0904 12.346-10.435 18.519-3.3443 6.0387-6.5552 12.346-9.6321 18.787-4.4148 9.2591-6.2874 19.458-5.3513 30.462 0 1.2074 0.26783 2.2808 0.80304 2.9522 0.53478 0.93913 1.07 1.3417 1.7391 1.4761 0.66869 0.13391 1.3378 0 2.1404-0.4026 0.8026-0.40261 1.4713-0.80522 2.1404-1.4761 0.66869-0.67087 1.2039-1.3422 1.7391-1.8787zm23.679-118.76c-1.2039 0.40256-1.8726 0.67095-1.8726 1.0735-1.2043 2.2813-2.9435 6.0387-5.0839 11.004s-4.2808 10.199-6.5552 15.7c-2.2739 5.5021-4.2808 10.736-6.1534 15.835-1.873 5.0995-3.2108 8.8569-3.88 11.406-0.13347 0.93912 0 1.7443 0.53522 2.6839 1.6056-2.1474 3.6122-5.6361 6.02-10.333 2.4082-4.6965 4.8161-9.6617 7.0904-14.895 2.2743-5.2334 4.4148-9.9304 6.2878-14.493 1.8726-4.4282 2.943-7.3804 3.3443-8.8565 0.13391-1.6103 0.4013-3.0864 0.8026-4.5626 0.40131-1.4761 0.26783-2.9522-0.53521-4.5626z"/>
  <path d="m397.86 135.4c2.8091-3.2208 5.7521-6.173 8.5617-8.8569 2.8091-2.6835 6.2874-4.9648 10.167-6.9778 0.93651-0.40261 1.6056-0.80521 2.1408-1.2078 0.53478-0.40261 1.2039-0.40261 2.1404 0.13435 1.7391 0.93912 2.8091 2.2813 3.2104 4.0256s-0.13348 3.3548-1.3378 4.5626c-1.4713 1.2078-2.943 2.4152-4.5482 3.4891-1.6056 1.0735-3.0769 2.1469-4.2808 3.2204-2.1404 2.013-4.2813 4.0256-6.4217 6.173-2.1404 2.1469-4.1469 4.2939-5.886 6.4408-2.8096 3.7574-5.8865 6.0387-9.2308 6.7095-3.3443 0.67131-6.4213 0.2687-9.3643-1.2074-2.9435-1.4761-5.3513-3.8917-7.3578-7.1121-2.0069-3.2208-2.9435-6.8439-2.9435-11.004-0.53478-4.6965-0.66869-9.2591-0.53478-14.09 0.13348-4.6969 0.6687-9.3934 1.6052-14.09 1.7391-9.1247 3.7456-17.982 5.886-26.57 2.1404-8.5882 4.4148-17.311 6.9565-26.033 1.2043-4.4287 2.9435-9.796 5.0839-16.103 2.1404-6.3069 4.4148-12.077 6.9565-17.579 2.5417-5.5017 5.2174-10.064 8.2943-13.822 3.0769-3.7574 6.1539-5.5017 9.3643-5.3678 4.6821 0.40258 8.4282 1.6103 11.505 3.6232 3.0769 2.0129 4.8161 5.6361 5.3508 10.869 0.4013 4.6965 0 9.2591-1.07 13.822-1.0704 4.5626-2.6756 8.9908-4.8161 13.553-2.0069 4.16-4.0134 8.1856-6.1539 12.48-2.1404 4.16-4.2808 8.3195-6.4213 12.479-3.6122 6.3074-7.0904 12.346-10.435 18.519-3.3448 6.0387-6.5552 12.346-9.6321 18.787-4.4148 9.2591-6.2878 19.458-5.3513 30.462 0 1.2074 0.26782 2.2808 0.8026 2.9522 0.53522 0.93913 1.0704 1.3417 1.7391 1.4761 0.66913 0.13391 1.3378 0 2.1404-0.4026 0.80303-0.40261 1.4717-0.80522 2.1408-1.4761 0.66869-0.67087 1.2039-1.3422 1.7391-1.8787zm23.679-118.76c-1.2039 0.40256-1.873 0.67095-1.873 1.0735-1.2039 2.2813-2.943 6.0387-5.0834 11.004-2.1404 4.9652-4.2808 10.199-6.5552 15.7-2.2743 5.5021-4.2808 10.736-6.1539 15.835-1.8726 5.0995-3.2104 8.8569-3.8795 11.406-0.13348 0.93912 0 1.7443 0.53521 2.6839 1.6052-2.1474 3.6122-5.6361 6.02-10.333 2.4082-4.6965 4.8161-9.6617 7.0904-14.895s4.4148-9.9304 6.2874-14.493c1.873-4.4282 2.9435-7.3804 3.3448-8.8565 0.13347-1.6103 0.4013-3.0864 0.8026-4.5626 0.4013-1.4761 0.26739-2.9522-0.53521-4.5626z"/>
  <path d="m433.31 117.55c-0.40131 1.0735-0.53522 2.4156-0.6687 3.8917-0.13391 1.4761-0.13391 3.0865 0 4.5626 0.13348 1.4761 0.40131 2.9522 0.93652 4.16 0.53478 1.2074 1.2039 2.2813 2.1391 2.9522 1.7391 1.2078 3.7478 1.6104 5.8869 1.2078 2.1391-0.40261 4.013-1.0739 5.6174-2.013 2.0087-0.93956 3.8826-1.7443 5.8869-2.6839 2.0087-0.93913 3.8826-1.8787 5.6217-2.9522 5.2174-3.623 10.3-7.1121 15.383-10.601 5.0826-3.4887 10.57-6.1726 16.456-8.1856 2.6739-0.67087 4.413-0.53652 5.2174 0.53695 0.8 1.0735 1.0696 2.5496 0.66522 4.2939-0.4 1.7448-1.3348 3.6234-2.9391 5.5021-1.6087 1.8787-3.4782 3.2204-5.6217 4.1595-4.9478 2.013-9.6304 4.2943-13.913 6.8439-4.2782 2.5496-8.426 5.5021-12.574 8.7226-3.0782 2.5496-6.2869 4.2939-9.7652 5.5017s-7.226 2.1474-11.104 2.8182c-3.613 0.4026-6.9565 0.53652-10.167 0.67086-3.2108 0.13435-6.4213-0.53695-9.6321-2.013-4.9495-2.0126-8.5617-5.2334-10.702-9.796-2.1404-4.5621-2.5417-9.6617-1.3378-15.432 1.4713-6.7095 3.3443-13.285 5.886-19.458s6.2878-11.675 11.505-16.506c2.1404-2.1474 4.5482-4.16 7.2239-5.9047 2.6765-1.7443 5.4852-3.0861 8.4286-3.8913 2.9435-0.80521 6.0174-0.93956 9.3652-0.53695 3.3435 0.40261 6.5521 1.8787 9.7652 4.4282 3.8782 2.8182 5.7521 6.8439 5.6174 12.077-0.13478 1.6104-0.4 3.0865-0.53478 4.5626s-0.4 2.9522-0.80434 4.5626c-0.4 4.2939-1.8696 7.246-4.413 8.8565-2.5435 1.6104-6.0217 2.9522-10.3 4.0256-2.8087 0.6713-5.6174 1.6104-8.4304 2.6839-2.8087 1.0735-5.6174 2.013-8.6939 2.9522zm14.181-27.375c-3.213 1.4761-5.3521 3.4891-6.5565 6.0387s-1.8739 5.5021-2.2739 8.7226c0 0.40261 0.26956 0.80521 0.66956 1.2078s0.80434 0.67087 1.2043 0.67087c0 0.4026 0.13478 0.53695 0.53478 0.53695s0.53478-0.13435 0.53478-0.53695c3.0782-2.147 5.0826-4.4282 6.2869-6.9778 1.0696-2.4156 0.93912-5.6361-0.4-9.6621z"/>
  <path d="m547.43 119.7c0.13478 2.2813-0.53478 4.16-2.0043 5.5017-1.4739 1.3417-3.4782 2.8178-5.7521 4.4282-4.6826 3.623-9.4999 6.3069-14.583 8.1856-5.0826 1.8787-10.3 3.4891-15.922 4.6969-4.1478 0.93913-7.626 0.67087-10.7-0.80521-1.6087-0.93956-3.213-1.6104-4.8174-2.2813s-3.0782-1.4761-4.5478-2.5496c-2.5435-1.7448-4.5478-3.4891-6.2869-4.9652s-2.9435-3.0865-3.7478-4.8308c-0.8-1.7443-1.2043-3.623-1.2043-5.9043s0.40434-4.9652 1.0696-8.1856c1.0739-5.2339 3.213-10.467 6.5565-15.835 3.3435-5.3678 7.226-9.796 11.774-13.419 4.5478-3.6235 9.3652-5.7704 14.713-6.5756 5.2174-0.80521 10.57 0.80521 15.922 4.6969 0.93478 0.53652 1.6043 1.2074 2.1391 2.0126 0.53478 0.80521 1.2043 1.6104 1.8739 2.5495 1.2043 2.013 1.4696 3.3548 0.53478 4.2943-0.93478 0.93912-2.2739 1.7443-4.2826 2.4156-0.93478 0.13391-2.0043 0.26826-3.4782 0.26826-4.2782 0.13391-8.2913 1.3417-12.174 3.623-3.8782 2.2813-7.0869 5.0995-9.6304 8.4543s-4.2826 7.1121-5.2174 11.272c-0.93478 4.16-0.53478 8.0517 1.0696 12.077 0.93912 1.4761 2.0087 2.2813 3.4782 2.5496 1.4739 0.26869 2.5435 0.26869 3.4782 0.13435 5.4869-1.0735 10.704-2.9522 15.517-5.5017 4.8174-2.5496 9.7695-5.3678 14.987-8.1856 2.5391-1.7448 4.813-2.6839 6.8217-2.8182 2.1391-0.13391 3.613 1.4761 4.413 4.6969z"/>
  <path d="m613.91 121.31c-9.8999 8.32-17.791 14.627-23.409 18.921-5.7565 4.16-10.035 7.2465-13.248 9.1247-3.0739 1.8787-5.3478 2.9526-6.6869 3.0865-1.3391 0.13435-2.6739 0.40261-4.1478 0.53695-7.4913 0.93913-13.778-0.67086-18.861-4.8308-5.0869-4.16-7.626-9.6617-7.626-16.908-0.13478-10.467 0.93478-20.397 3.4782-29.656 2.5391-9.2591 5.0826-18.787 7.7565-28.315 0.93912-2.8178 1.8739-6.3069 2.9435-10.333 1.0739-4.0256 2.1435-7.9173 3.213-11.943-8.5608-0.40261-16.991 0-25.152 1.0735-8.2956 1.0735-16.187 1.4761-23.813 1.0735-3.613 0-7.0913-0.40261-10.835-1.0735-3.613-0.67087-7.0913-1.7443-10.57-2.9522-4.813-1.6104-7.3565-3.4891-7.626-5.6361-0.26522-2.1471 1.8739-3.489 6.2913-4.0258 11.504-1.2077 23.274-1.8787 35.182-1.7445 11.904 0.13417 23.543-0.53678 34.917-1.7445 3.2087-0.40256 5.4826-1.0735 6.8217-2.2812 1.3348-1.2077 2.2739-2.9522 2.8087-5.5017 0.93478-4.6965 2.0043-9.2591 3.4782-13.822 1.4696-4.5626 2.6739-9.1252 3.7435-13.822 3.3478-0.93934 6.4217-0.80513 9.0999 0.26839 2.6739 1.0735 4.6826 2.818 6.1521 5.3678 1.0696 1.7445 1.6043 4.0258 1.7391 6.5756s0 4.8308-0.4 6.8439c-0.4 2.1471-1.2043 4.1599-2.5435 6.173-1.3348 2.0129-2.9435 4.1599-4.6826 6.7095 10.17 1.0736 19.665 1.7445 28.361 2.1471 8.8304 0.40256 17.261 0.53678 25.152 0.67095 8.026 0.13422 15.787 0.13422 23.278 0.26839 7.4913 0.13422 15.117 0.53678 22.474 1.2077 0.93478 0.13417 1.3391 0.80512 1.2043 1.8787-0.13478 1.0735-0.66956 2.2812-1.7391 3.489-1.0696 1.2077-2.5435 2.4154-4.413 3.3549-1.8739 0.93912-4.2826 1.4761-7.0913 1.4761l-78.66 1.3417c-4.4174 0-7.8956 0.80521-10.304 2.2813s-4.2782 4.2943-5.4826 8.4539c-2.0087 10.736-4.2826 21.337-6.8217 31.669-2.5435 10.467-5.0869 21.068-7.626 31.669-0.53478 3.0865-0.93912 6.0387-1.3391 8.8569-0.4 2.8178-0.26956 5.2334 0.26956 7.1121 0.53478 1.8787 1.6043 3.0865 3.3435 3.4891 1.7391 0.40217 4.2782-0.4026 7.8913-2.55l28.226-18.518c0.93912-0.40261 2.2782-1.3422 4.2826-3.0865 2.0087-1.7443 4.013-3.623 6.1521-5.636 2.1435-2.013 4.2826-4.0256 6.5565-5.7704 2.2739-1.7443 4.1478-3.0861 5.7521-3.7574 1.6043-0.67086 2.8087-0.67086 3.613 0.2687 0.80434 0.93912 0.80434 3.0861 0.13478 6.7095-1.4739 2.5496-3.0782 4.6965-4.9521 6.4413-1.8696 1.7443-4.013 3.4887-6.2869 5.3674z"/>
  <path d="m658.47 103.33c0.66956 0.4026 0.93478 0.93956 0.80434 1.6104-0.13478 0.67087-0.40434 1.4761-0.80434 2.147-2.2739 2.1474-4.5478 4.2943-6.6869 6.4413-2.1435 2.147-4.4174 4.4282-6.9565 6.7095-0.93912 0.67086-2.6782 2.1469-5.2174 4.4282-2.5435 2.2813-5.2174 4.5626-8.0304 7.1121-2.8087 2.55-5.3478 4.8313-7.6217 6.8439-2.2782 2.013-3.613 3.2208-3.7478 3.6235-1.2043 2.2809-3.3435 3.4887-6.4217 3.4887-3.3435 0.53695-6.5565-0.13392-9.6304-2.147-1.4739-1.4761-2.5435-2.8182-3.213-4.2943s-1.2043-3.0861-1.3348-5.0991c0-1.4761 0-2.9522-0.13478-4.5626s0-3.2204 0.4-4.8308c2.0087-7.6491 4.2826-14.895 6.9565-21.739 2.6739-6.7095 5.2174-13.822 7.4913-21.202 1.2043-2.013 2.8087-3.0865 4.8174-3.2208 2.0043-0.13391 3.8782-0.13391 5.6174 0.26826 2.1391 0.40261 4.1478 0.80521 6.0217 1.2078s3.613 1.6104 5.2174 3.3548c1.2043 1.0735 1.6043 2.2813 1.0696 3.4891s-1.2043 2.8178-1.8739 4.8308c-1.6043 4.2943-3.4782 8.9908-5.7521 14.224-2.2739 5.2334-4.013 9.796-5.4826 13.956-0.66956 2.013-0.66956 2.8178 0.13044 2.6839 0.80434-0.13434 1.8739-0.80521 3.3478-1.7448 1.4696-0.93912 2.9391-2.1469 4.413-3.3548 1.4696-1.2074 2.6739-2.1469 3.3435-2.6835 2.1391-1.6104 4.2826-3.2208 6.5565-4.6969s4.413-3.2204 6.5565-4.9652c0.93478-0.53652 1.8696-1.0735 2.9391-1.61 1.0739-0.53695 2.0087-0.80521 2.9435-0.80521 0.93912-0.40261 1.7391-0.40261 2.4087-0.2687 0.66956 0.2687 1.3391 0.53696 1.8739 0.80522zm-30.635-38.781c-1.4739-1.0735-2.1391-2.2813-2.0087-3.7574 0.13478-1.4761 0.80434-2.4156 2.2739-2.9522 2.1435-0.93956 4.1478-1.4761 6.1565-1.6104 2.0043-0.13435 4.013 0.13435 6.1521 1.0735 0.66956 0.40261 1.3391 0.67087 2.0087 1.0735s1.3348 0.67086 2.2739 1.0735c2.8087 1.7448 3.8782 3.6235 2.9435 5.6361-0.66956 1.2078-1.7391 2.013-3.0782 2.1474-1.3391 0.13391-2.6739 0.40261-4.1478 0.80478-2.1391-0.40217-4.2782-0.80478-6.4217-1.2074-2.2739-0.40261-4.2782-1.2078-6.1521-2.2813z"/>
  <path d="m673.82 122.92c1.2043 0.53695 2.8087 0 4.5478-1.7443 1.7391-1.7448 3.7478-4.0261 5.7521-7.1121 2.0087-3.0865 4.1478-6.4413 6.2869-10.199 2.1435-3.7574 4.1478-7.3804 6.1565-11.138 2.0043-3.6235 3.7434-6.9782 5.4826-9.9304s3.0782-5.0991 4.1478-6.3069c0.93478-0.93956 1.7391-1.8787 2.4087-2.9522 0.66957-1.0735 1.7391-1.7448 2.9435-2.1469 2.8087-0.6713 5.0826-0.26869 6.5521 1.3417 1.4739 1.6104 1.7391 3.7574 0.66956 6.4413-1.6043 3.623-3.0739 6.7095-4.5478 9.5273-1.4696 2.8182-2.8087 5.5021-4.1478 8.1856-1.3348 2.6839-2.6739 5.5021-4.013 8.32-1.3348 2.8182-2.8087 6.173-4.413 9.9304-1.7391 3.2204-3.613 6.4413-5.6174 9.796-2.0087 3.3548-3.8826 6.5752-5.6217 9.796-2.0043 3.3548-4.1478 6.0382-6.4217 7.9169s-5.4826 2.9526-9.3652 3.0865c-7.8913 0.40261-13.109-1.0735-16.052-4.2939-2.8087-3.2208-3.7434-9.1252-2.6739-17.982 0.93478-7.5147 1.7391-14.224 2.6739-20.397 0.93913-6.0387 2.0087-12.883 3.213-20.397 0.66521-3.8913 1.7391-6.5752 2.9435-7.783 1.2-1.2078 4.1434-1.4761 8.826-0.80521 3.7478 0.53695 5.8869 2.8182 6.4217 6.7095 0.53478 3.8917 0.40435 8.4543-0.4 13.688-0.80434 5.2334-1.8739 10.333-3.3434 15.7-1.3391 5.2334-2.1435 9.5278-2.4087 12.748z"/>
  <path d="m736.87 117.55c-0.39999 1.0735-0.53478 2.4156-0.66956 3.8917s-0.13478 3.0865 0 4.5626 0.4 2.9522 0.93478 4.16c0.53478 1.2074 1.2043 2.2813 2.1435 2.9522 1.7391 1.2078 3.7434 1.6104 5.8869 1.2078 2.1391-0.40261 4.013-1.0739 5.6174-2.013 2.0043-0.93956 3.8782-1.7443 5.8869-2.6839 2.0043-0.93913 3.8782-1.8787 5.6174-2.9522 5.2174-3.623 10.3-7.1121 15.383-10.601 5.0869-3.4887 10.57-6.1726 16.456-8.1856 2.6739-0.67087 4.413-0.53652 5.2174 0.53695 0.80435 1.0735 1.0696 2.5496 0.66956 4.2939-0.39999 1.7448-1.3391 3.6234-2.9435 5.5021-1.6043 1.8787-3.4782 3.2204-5.6174 4.1595-4.9522 2.013-9.6347 4.2943-13.913 6.8439-4.2826 2.5496-8.4304 5.5021-12.578 8.7226-3.0739 2.5496-6.2869 4.2939-9.7652 5.5017s-7.2217 2.1474-11.104 2.8182c-3.6087 0.4026-6.9565 0.53652-10.165 0.67086-3.213 0.13435-6.4217-0.53695-9.6304-2.013-4.9522-2.0126-8.5652-5.2334-10.704-9.796-2.1391-4.5621-2.5435-9.6617-1.3391-15.432 1.4739-6.7095 3.3478-13.285 5.8869-19.458 2.5435-6.173 6.2869-11.675 11.504-16.506 2.1435-2.1474 4.5478-4.16 7.226-5.9047 2.6739-1.7443 5.4826-3.0861 8.426-3.8913 2.9435-0.80521 6.0217-0.93956 9.3652-0.53695s6.5565 1.8787 9.7652 4.4282c3.8826 2.8182 5.7521 6.8439 5.6217 12.077-0.13479 1.6104-0.40435 3.0865-0.53478 4.5626-0.13479 1.4761-0.40435 2.9522-0.80435 4.5626-0.39999 4.2939-1.8739 7.246-4.413 8.8565-2.5435 1.6104-6.0217 2.9522-10.304 4.0256-2.8087 0.6713-5.6174 1.6104-8.426 2.6839-2.8087 1.0735-5.6174 2.013-8.6956 2.9522zm14.178-27.375c-3.2087 1.4761-5.3478 3.4891-6.5521 6.0387-1.2044 2.5496-1.8739 5.5021-2.2739 8.7226 0 0.40261 0.26521 0.80521 0.66521 1.2078 0.40434 0.40261 0.80434 0.67087 1.2043 0.67087 0 0.4026 0.13478 0.53695 0.53478 0.53695 0.40434 0 0.53913-0.13435 0.53913-0.53695 3.0739-2.147 5.0826-4.4282 6.2869-6.9778 1.0696-2.4156 0.93477-5.6361-0.40435-9.6621z"/>
 </g>
</svg>
