<svg width="982.85" height="383.65" version="1.1" viewBox="0 0 982.85 383.65" xml:space="preserve" xmlns="http://www.w3.org/2000/svg" xmlns:xlink="http://www.w3.org/1999/xlink"><defs><clipPath id="Outer_00000010275984292795969030000008039204914565964702_-0-1-7"><path d="m617.33 0.08h-157.86c-11.65 0-21.18 9.53-21.18 21.15v263.81c0 11.65 9.53 21.17 21.18 21.17h157.86c11.62 0 21.17-9.53 21.17-21.17v-263.8c0.01-11.62-9.55-21.16-21.17-21.16z"/></clipPath><linearGradient id="linearGradient5946-3" x1="437.49" x2="442.49" y1="155.28" y2="155.28" gradientUnits="userSpaceOnUse" xlink:href="#XXX"/><linearGradient id="linearGradient5948-9" x1="437.49" x2="472.52" y1="289.58" y2="289.58" gradientUnits="userSpaceOnUse" xlink:href="#WWW"/><linearGradient id="linearGradient5950-9" x1="472.52" x2="600.41" y1="304.52" y2="304.52" gradientUnits="userSpaceOnUse" xlink:href="#VVV"/><linearGradient id="linearGradient5952-6" x1="600.41" x2="639.3" y1="289.58" y2="289.58" gradientUnits="userSpaceOnUse" xlink:href="#UUU"/><linearGradient id="linearGradient5954-6" x1="634.3" x2="639.3" y1="160.05" y2="160.05" gradientUnits="userSpaceOnUse" xlink:href="#TTT"/><linearGradient id="linearGradient5956-4" x1="601.64" x2="639.3" y1="23.625" y2="23.625" gradientUnits="userSpaceOnUse" xlink:href="#SSS"/><linearGradient id="linearGradient5958-4" x1="480.11" x2="601.64" y1="1.785" y2="1.785" gradientUnits="userSpaceOnUse" xlink:href="#RRR"/><linearGradient id="linearGradient5960-7" x1="437.49" x2="480.11" y1="18.847" y2="18.847" gradientUnits="userSpaceOnUse" xlink:href="#QQQ"/><clipPath id="Outer_00000065061553020722539380000009036048586622302127_-5-8-4"><path d="m179.04 0h-157.86c-11.65 0-21.18 9.53-21.18 21.15v263.81c0 11.65 9.53 21.17 21.18 21.17h157.86c11.62 0 21.17-9.53 21.17-21.17v-263.81c0.01-11.62-9.55-21.15-21.17-21.15z"/></clipPath><linearGradient id="linearGradient5962-7" x1="-.799" x2="4.2" y1="155.19" y2="155.19" gradientUnits="userSpaceOnUse" xlink:href="#PPP"/><linearGradient id="linearGradient5964-7" x1="-.799" x2="34.231" y1="289.5" y2="289.5" gradientUnits="userSpaceOnUse" xlink:href="#OOO"/><linearGradient id="linearGradient5966-7" x1="34.231" x2="162.12" y1="304.44" y2="304.44" gradientUnits="userSpaceOnUse" xlink:href="#NNN"/><linearGradient id="linearGradient5968-0" x1="162.12" x2="201.02" y1="289.5" y2="289.5" gradientUnits="userSpaceOnUse" xlink:href="#MMM"/><linearGradient id="linearGradient5970-4" x1="196.02" x2="201.02" y1="159.97" y2="159.97" gradientUnits="userSpaceOnUse" xlink:href="#LLL"/><linearGradient id="linearGradient5972-9" x1="163.35" x2="201.02" y1="23.541" y2="23.541" gradientUnits="userSpaceOnUse" xlink:href="#KKK"/><linearGradient id="linearGradient5974-9" x1="41.826" x2="163.35" y1="1.701" y2="1.701" gradientUnits="userSpaceOnUse" xlink:href="#JJJ"/><linearGradient id="linearGradient5976-5" x1="-.799" x2="41.826" y1="18.763" y2="18.763" gradientUnits="userSpaceOnUse" xlink:href="#III"/><clipPath id="Outer_00000152976149169722406290000010164063148477276291_-8-0-4"><path d="m398.06 0h-157.85c-11.65 0-21.18 9.53-21.18 21.15v263.81c0 11.65 9.53 21.17 21.18 21.17h157.86c11.62 0 21.17-9.53 21.17-21.17v-263.81c0-11.62-9.56-21.15-21.18-21.15z"/></clipPath><linearGradient id="linearGradient5978-5" x1="218.22" x2="223.22" y1="155.19" y2="155.19" gradientUnits="userSpaceOnUse" xlink:href="#HHH"/><linearGradient id="linearGradient5980-7" x1="218.22" x2="253.25" y1="289.5" y2="289.5" gradientUnits="userSpaceOnUse" xlink:href="#GGG"/><linearGradient id="linearGradient5982-7" x1="253.25" x2="381.15" y1="304.44" y2="304.44" gradientUnits="userSpaceOnUse" xlink:href="#FFF"/><linearGradient id="linearGradient5984-2" x1="381.15" x2="420.04" y1="289.5" y2="289.5" gradientUnits="userSpaceOnUse" xlink:href="#EEE"/><linearGradient id="linearGradient5986-0" x1="415.04" x2="420.04" y1="159.97" y2="159.97" gradientUnits="userSpaceOnUse" xlink:href="#DDD"/><linearGradient id="linearGradient5988-9" x1="382.37" x2="420.04" y1="23.541" y2="23.541" gradientUnits="userSpaceOnUse" xlink:href="#CCC"/><linearGradient id="linearGradient5990-9" x1="260.85" x2="382.37" y1="1.701" y2="1.701" gradientUnits="userSpaceOnUse" xlink:href="#BBB"/><linearGradient id="linearGradient5992-0" x1="218.22" x2="260.85" y1="18.763" y2="18.763" gradientUnits="userSpaceOnUse" xlink:href="#AAA"/><linearGradient id="linearGradient10207" x1="544.06" x2="544.06" y1="230.1" y2="83.8" gradientTransform="scale(1.2529)" gradientUnits="userSpaceOnUse"><stop stop-color="#a8a8a8" offset="0"/><stop stop-color="#adadad" offset=".088"/><stop stop-color="#b9b9b9" offset=".181"/><stop stop-color="#d3d3d3" offset=".3"/><stop stop-color="#d7d7d7" offset=".411"/><stop stop-color="#d7d7d7" offset=".495"/><stop stop-color="#d9d9d9" offset=".578"/><stop stop-color="#dadada" offset=".657"/><stop stop-color="#dcdcdc" offset=".734"/><stop stop-color="#dfdfdf" offset=".819"/><stop stop-color="#e3e3e3" offset=".905"/><stop stop-color="#e7e7e7" offset=".979"/><stop stop-color="#e9e9e9" offset="1"/></linearGradient><linearGradient id="linearGradient10209" x1="544.07" x2="544.07" y1="109.9" y2="203.44" gradientTransform="scale(1.2529)" gradientUnits="userSpaceOnUse"><stop stop-color="#a8a8a8" offset="0"/><stop stop-color="#a8a8a8" offset=".1"/><stop stop-color="#ababab" offset=".2"/><stop stop-color="#b8b8b8" offset=".3"/><stop stop-color="#c5c5c5" offset=".4"/><stop stop-color="#cbcbcb" offset=".5"/><stop stop-color="#d2d2d2" offset=".6"/><stop stop-color="#dedede" offset=".7"/><stop stop-color="#e4e4e4" offset=".8"/><stop stop-color="#e8e8e8" offset=".9"/><stop stop-color="#eaeaea" offset="1"/></linearGradient><linearGradient id="linearGradient10211" x1="594.54" x2="574.98" y1="209.89" y2="190.17" gradientTransform="scale(1.2529)" gradientUnits="userSpaceOnUse"><stop stop-color="#a8a8a8" offset="0"/><stop stop-color="#a8a8a8" offset=".462"/><stop stop-color="#b2b2b2" offset=".567"/><stop stop-color="#bdbdbd" offset=".661"/><stop stop-color="#c9c9c9" offset=".751"/><stop stop-color="#d9d9d9" offset=".876"/><stop stop-color="#dedede" offset=".92"/><stop stop-color="#e2e2e2" offset=".975"/><stop stop-color="#e3e3e3" offset="1"/></linearGradient><linearGradient id="linearGradient10213" x1="544.24" x2="575.18" y1="204.01" y2="190.22" gradientTransform="scale(1.2529)" gradientUnits="userSpaceOnUse"><stop stop-color="#eaeaea" offset="0"/><stop stop-color="#eaeaea" offset=".12"/><stop stop-color="#ebebeb" offset=".132"/><stop stop-color="#ededed" offset=".476"/><stop stop-color="#eee" offset=".709"/><stop stop-color="#eee" offset=".929"/><stop stop-color="#e3e3e3" offset=".968"/><stop stop-color="#e1e1e1" offset=".982"/><stop stop-color="#e1e1e1" offset="1"/></linearGradient><linearGradient id="linearGradient10215" x1="544.06" x2="594.71" y1="95.42" y2="95.42" gradientTransform="scale(1.2529)" gradientUnits="userSpaceOnUse"><stop stop-color="#eaeaea" offset="0"/><stop stop-color="#eaeaea" offset=".12"/><stop stop-color="#ebebeb" offset=".132"/><stop stop-color="#ededed" offset=".476"/><stop stop-color="#efefef" offset=".709"/><stop stop-color="#e9e9e9" offset=".831"/><stop stop-color="#d4d4d4" offset=".929"/><stop stop-color="#cdcdcd" offset=".968"/><stop stop-color="#ccc" offset=".982"/><stop stop-color="#ccc" offset="1"/></linearGradient><linearGradient id="linearGradient10217" x1="574.93" x2="594.55" y1="190.13" y2="209.9" gradientTransform="matrix(1.2529,0,0,-1.2529,0,393.35)" gradientUnits="userSpaceOnUse"><stop stop-color="#a8a8a8" offset="0"/><stop stop-color="#a8a8a8" offset=".462"/><stop stop-color="#a8a8a8" offset=".567"/><stop stop-color="#a8a8a8" offset=".661"/><stop stop-color="#b3b3b3" offset=".751"/><stop stop-color="#c8c8c8" offset=".876"/><stop stop-color="#cdcdcd" offset=".92"/><stop stop-color="#e2e2e2" offset=".975"/><stop stop-color="#e3e3e3" offset="1"/></linearGradient><linearGradient id="linearGradient10219" x1="85.995" x2="85.995" y1="223.77" y2="110.75" gradientTransform="scale(1.2529)" gradientUnits="userSpaceOnUse"><stop stop-color="#e2e2e2" offset="0"/><stop stop-color="#e2e2e2" offset=".173"/><stop stop-color="#a8a8a8" offset="1"/></linearGradient><linearGradient id="linearGradient10221" x1="110.37" x2="110.37" y1="228.05" y2="110.75" gradientTransform="scale(1.2529)" gradientUnits="userSpaceOnUse"><stop stop-color="#a6a6a6" offset="0"/><stop stop-color="#989898" offset="1"/></linearGradient><linearGradient id="linearGradient10223" x1="83.958" x2="88.404" y1="226.81" y2="228.8" gradientTransform="scale(1.2529)" gradientUnits="userSpaceOnUse"><stop stop-color="#e2e2e2" offset="0"/><stop stop-color="#dbdbdb" offset=".44"/><stop stop-color="#d0cfcf" offset=".555"/><stop stop-color="#afafaf" offset=".836"/><stop stop-color="#a7a7a7" offset="1"/></linearGradient><linearGradient id="linearGradient10225" x1="154.07" x2="154.07" y1="91.828" y2="104.89" gradientTransform="scale(1.2529)" gradientUnits="userSpaceOnUse"><stop stop-color="#c7c7c7" offset="0"/><stop stop-color="#c6c6c6" offset="1"/></linearGradient><linearGradient id="linearGradient10227" x1="153.52" x2="158.31" y1="111.17" y2="109.14" gradientTransform="scale(1.2529)" gradientUnits="userSpaceOnUse"><stop stop-color="#999" offset="0"/><stop stop-color="#c6c6c6" offset=".833"/><stop stop-color="#c6c6c6" offset="1"/></linearGradient><linearGradient id="linearGradient10229" x1="145.12" x2="41.674" y1="84.36" y2="84.36" gradientTransform="scale(1.2529)" gradientUnits="userSpaceOnUse"><stop stop-color="#efefef" offset="0"/><stop stop-color="#f5f5f5" offset="1"/></linearGradient><linearGradient id="linearGradient10231" x1="152.45" x2="158.05" y1="85.613" y2="89.314" gradientTransform="scale(1.2529)" gradientUnits="userSpaceOnUse"><stop stop-color="#efefef" offset="0"/><stop stop-color="#c7c7c7" offset=".969"/><stop stop-color="#c7c7c7" offset="1"/></linearGradient><linearGradient id="linearGradient10233" x1="154.07" x2="154.07" y1="91.828" y2="104.89" gradientTransform="matrix(-1.2529,0,0,1.2529,243.48,0)" gradientUnits="userSpaceOnUse"><stop stop-color="#ececec" offset="0"/><stop stop-color="#dcdcdc" offset="1"/></linearGradient><linearGradient id="linearGradient10235" x1="152.45" x2="158.05" y1="85.613" y2="89.314" gradientTransform="matrix(-1.2529,0,0,1.2529,243.51,0)" gradientUnits="userSpaceOnUse"><stop stop-color="#f5f5f5" offset="0"/><stop stop-color="#ebebeb" offset=".969"/><stop stop-color="#ebebeb" offset="1"/></linearGradient><linearGradient id="linearGradient10237" x1="152.87" x2="156.89" y1="110.97" y2="108.4" gradientTransform="matrix(-1.2529,0,0,1.2529,243.48,0)" gradientUnits="userSpaceOnUse"><stop stop-color="#a8a8a8" offset="0"/><stop stop-color="#c8c8c8" offset=".627"/><stop stop-color="#dcdcdc" offset="1"/></linearGradient><linearGradient id="linearGradient10239" x1="279.95" x2="279.95" y1="226.32" y2="170.38" gradientTransform="scale(1.2529)" gradientUnits="userSpaceOnUse"><stop stop-color="#a8a8a8" offset="0"/><stop stop-color="#b4b4b4" offset=".116"/><stop stop-color="#c2c2c2" offset=".215"/><stop stop-color="#d3d3d3" offset=".316"/><stop stop-color="#d4d4d4" offset=".355"/><stop stop-color="#d5d5d5" offset=".583"/><stop stop-color="#ddd" offset=".663"/><stop stop-color="#dfdfdf" offset=".705"/><stop stop-color="#e1e1e1" offset=".748"/><stop stop-color="#efefef" offset="1"/></linearGradient><linearGradient id="linearGradient10241" x1="154.05" x2="154.41" y1="85.762" y2="89.968" gradientTransform="matrix(1.2529,0,0,2.0296,184.55,-65.524)" gradientUnits="userSpaceOnUse"><stop stop-color="#efefef" offset="0"/><stop stop-color="silver" offset=".468"/><stop stop-color="#a8a8a8" offset="1"/></linearGradient><linearGradient id="linearGradient10243" x1="307.22" x2="335.88" y1="199.98" y2="206.05" gradientTransform="scale(1.2529)" gradientUnits="userSpaceOnUse"><stop stop-color="#a8a8a8" offset="0"/><stop stop-color="#b4b4b4" offset=".213"/><stop stop-color="#c2c2c2" offset=".434"/><stop stop-color="#cecece" offset=".56"/><stop stop-color="#dadada" offset=".723"/><stop stop-color="#e2e2e2" offset="1"/></linearGradient><linearGradient id="linearGradient10245" x1="153.6" x2="154.93" y1="85.622" y2="89.108" gradientTransform="matrix(1.2529,0,0,2.0296,257.81,81.329)" gradientUnits="userSpaceOnUse"><stop stop-color="#e2e2e2" offset="0"/><stop stop-color="silver" offset=".468"/><stop stop-color="#a8a8a8" offset="1"/></linearGradient></defs><style>.st0{fill:#eb122b}.st28{fill:#1d1d1b}.st31{fill:#fff}</style><g transform="translate(182.87)"><path class="st0" d="m773.45 0.10023h-197.78c-14.596 0-26.536 11.94-26.536 26.499v330.53c0 14.596 11.94 26.524 26.536 26.524h197.78c14.559 0 26.524-11.94 26.524-26.524v-330.52c0.0125-14.559-11.965-26.511-26.524-26.511z" fill="#eb122b" stroke-width="1.2529"/><g transform="scale(1.2529)" clip-path="url(#Outer_00000010275984292795969030000008039204914565964702_-0-1-7)" fill="none" stroke-miterlimit="10" stroke-width="5"><path d="m439.99 272.14v-233.73" stroke="url(#linearGradient5946-3)"/><path d="m472.52 304.52h-13.05c-10.74 0-19.48-8.74-19.48-19.47v-12.9" stroke="url(#linearGradient5948-9)"/><path d="m600.41 304.52h-127.89" stroke="url(#linearGradient5950-9)"/><path d="m636.8 272.14v12.9c0 10.74-8.74 19.47-19.47 19.47h-16.92" stroke="url(#linearGradient5952-6)"/><path d="m636.8 47.97v224.17" stroke="url(#linearGradient5954-6)"/><path d="m601.64 1.78h15.69c10.74 0 19.47 8.73 19.47 19.45v26.73" stroke="url(#linearGradient5956-4)"/><path d="m480.12 1.78h121.52" stroke="url(#linearGradient5958-4)"/><path d="m439.99 38.41v-17.17c0-10.73 8.74-19.45 19.48-19.45h20.64" stroke="url(#linearGradient5960-7)"/></g><path class="st0" d="m575.67 381.53c-13.456 0-24.406-10.95-24.406-24.394v-330.53c0-13.444 10.95-24.369 24.406-24.369h197.78c13.456 0 24.394 10.938 24.394 24.369v330.53c0 13.456-10.95 24.394-24.394 24.394z" fill="#eb122b" stroke-width="1.2529"/><path class="st28" d="m681.65 105.03c-50.642 0-91.687 41.045-91.687 91.675 0 25.424 10.382 48.436 27.135 65.043l0.14158 0.14158c3.3202 3.3703 6.6341 6.718 9.9405 10.073 0.0902 0.0902 0.17791 0.18418 0.26937 0.27564 16.613 16.753 39.646 27.14 65.112 27.14 24.294 0 46.395-9.5083 62.758-24.919 0.96473-1.1777 0.91462-2.9568-0.15035-4.0719l-0.32199-0.32325c-0.0125-0.0125-0.015-0.0288-0.0276-0.0413-10.126-10.304-20.385-20.509-30.658-30.77-0.015-0.0125-0.0313-0.0238-0.0451-0.0376l-0.30571-0.3032c-1.2028-1.1777-3.2851-1.1777-4.5004 0a56.287 56.287 0 0 1-37.648 14.359c-12.971 0-24.92-4.3826-34.47-11.727a56.246 56.246 0 0 1-11.225-33.778c0-31.26 25.359-56.556 56.606-56.556 14.458-0.0125 27.653 5.4125 37.651 14.333 1.2278 1.2153 3.2951 1.2153 4.4979 0.0251l20.447-20.46c1.0775-1.1151 1.1276-2.8566 0.15035-4.0845l-0.35081-0.36459c-3.4217-3.443-6.8408-6.8847-10.211-10.349-0.10649-0.10023-0.21925-0.1942-0.32575-0.29318-0.01-0.0138-0.0138-0.0313-0.0251-0.0451-16.413-15.461-38.464-24.945-62.758-24.945z" fill="#1d1d1b" stroke-width="1.2529"/><path d="m719.31 154.48c-9.9981-8.9206-23.191-14.346-37.65-14.346-31.247 0-56.606 25.296-56.606 56.543 0 31.185 25.359 56.556 56.606 56.556 14.458 0 27.652-5.4125 37.65-14.358 1.2278-1.1777 3.2951-1.1777 4.4979 0l20.447 20.422c1.0775 1.1151 1.1276 2.8942 0.15035 4.0719-16.363 15.411-38.464 24.92-62.758 24.92-50.642 0-91.687-41.058-91.687-91.625 0-50.642 41.045-91.675 91.687-91.675 24.294 0 46.345 9.4844 62.758 24.945 0.96473 1.2278 0.91461 2.9694-0.15035 4.0844l-20.447 20.46c-1.2028 1.2153-3.2701 1.2153-4.4979 0z" fill="url(#linearGradient10207)" stroke-width="1.2529"/><path d="m681.65 126.67c-38.667 0-70.006 31.33-70.006 69.996 0 38.609 31.339 69.957 70.006 69.957l5e-3 -13.383c-31.245-2e-3 -56.601-25.371-56.601-56.555 0-31.246 25.356-56.542 56.601-56.545z" fill="url(#linearGradient10209)" stroke-width="1.2529"/><path d="m744.26 259.3c1.0775 1.1151 1.1276 2.8942 0.15034 4.0719-16.363 15.411-38.464 24.92-62.758 24.92l26.392-21.674z" fill="#a8a8a8" stroke-width="1.2529"/><path d="m719.8 238.49c1.2354-0.77679 2.9531-0.649 4.0068 0.38214l20.447 20.422-36.215 7.3182 13.208-24.163z" fill="url(#linearGradient10211)" stroke-width="1.2529"/><path d="m681.67 253.24c14.458 0 27.652-5.4125 37.65-14.358a3.0696 3.0696 0 0 1 0.49113-0.38213l1.4458 3.9592-13.208 24.163h-26.389z" fill="url(#linearGradient10213)" stroke-width="1.2529"/><path d="m744.26 134.05c1.0775-1.1151 1.1276-2.8942 0.15034-4.0719-16.363-15.411-38.464-24.92-62.758-24.92l26.392 21.674z" fill="url(#linearGradient10215)" stroke-width="1.2529"/><path d="m719.8 154.87c1.2354 0.7768 2.9581 0.63021 4.0118-0.40218l20.447-20.422-4.122-2.6198-18.885 19.465z" fill="url(#linearGradient10217)" stroke-width="1.2529"/><path d="m681.67 140.14c14.458 0 27.657 5.4 37.655 14.346 0.14784 0.14283 0.30821 0.27564 0.48612 0.3884l1.4521-3.978-13.208-24.163-26.389-0.0639z" fill="#a8a8a8" stroke-width="1.2529"/><path class="st31" d="m681.67 284.41c-48.4 0-87.778-39.354-87.778-87.716 0-48.4 39.379-87.778 87.778-87.778 21.6 0 42.223 7.8933 58.335 22.289 0.45104 0.41345 0.4761 1.1276 0.0376 1.5536l-17.791 17.791c-0.3884 0.3884-1.0148 0.41346-1.4408 0.0501a60.352 60.352 0 0 0-39.141-14.371c-33.365 0-60.515 27.125-60.515 60.452 0 33.34 27.15 60.465 60.515 60.465 14.396 0 28.228-5.0868 39.128-14.371 0.42599-0.36334 1.0399-0.33828 1.4408 0.0501l17.791 17.766c0.43851 0.43852 0.41345 1.1527-0.0376 1.5536-16.1 14.383-36.71 22.264-58.322 22.264z" fill="#fff" stroke-width="1.2529"/><path class="st0" d="m224.32 0h-197.78c-14.596 0-26.536 11.94-26.536 26.499v330.53c0 14.596 11.94 26.524 26.536 26.524h197.78c14.559 0 26.524-11.94 26.524-26.524v-330.53c0.01253-14.559-11.965-26.499-26.524-26.499z" fill="#eb122b" stroke-width="1.2529"/><g transform="scale(1.2529)" clip-path="url(#Outer_00000065061553020722539380000009036048586622302127_-5-8-4)" fill="none" stroke-miterlimit="10" stroke-width="5"><path d="m1.7 272.06v-233.73" stroke="url(#linearGradient5962-7)"/><path d="m34.23 304.44h-13.05c-10.74 0-19.48-8.74-19.48-19.47v-12.9" stroke="url(#linearGradient5964-7)"/><path d="m162.12 304.44h-127.89" stroke="url(#linearGradient5966-7)"/><path d="m198.52 272.06v12.9c0 10.74-8.74 19.47-19.47 19.47h-16.92" stroke="url(#linearGradient5968-0)"/><path d="m198.52 47.88v224.18" stroke="url(#linearGradient5970-4)"/><path d="m163.35 1.7h15.69c10.74 0 19.47 8.73 19.47 19.45v26.73" stroke="url(#linearGradient5972-9)"/><path d="m41.83 1.7h121.52" stroke="url(#linearGradient5974-9)"/><path d="m1.7 38.33v-17.18c0-10.72 8.74-19.45 19.48-19.45h20.64" stroke="url(#linearGradient5976-5)"/></g><path class="st0" d="m26.536 381.43c-13.456 0-24.406-10.95-24.406-24.394v-330.54c0-13.431 10.95-24.369 24.406-24.369h197.78c13.456 0 24.394 10.938 24.394 24.369v330.53c0 13.456-10.95 24.394-24.394 24.394h-197.78z" fill="#eb122b" stroke-width="1.2529"/><path class="st28" d="m48.55 105.69c-1.6914 0-3.0947 1.3794-3.0947 3.0709v28.917c0 0.93592 0.44353 1.7465 1.1051 2.3154 0.11527 0.13782 0.23053 0.2581 0.3671 0.37462 3.3127 3.329 6.5552 6.7118 9.8716 10.001 0.10148 0.11902 0.20422 0.22426 0.32325 0.32575 0.57007 0.68158 1.3957 1.1401 2.3417 1.1401h43.35c0.7129 0 1.4058 0.0727 2.0873 0.18167 0.0915 0.62645 0.15411 1.2592 0.15411 1.9107v130.64c0 0.95221 0.44603 1.7678 1.1151 2.3342 3.5269 3.577 7.0388 7.149 10.559 10.694 0.56631 0.6703 1.382 1.1163 2.3329 1.1163h28.929c1.7165 0 3.0821-1.3782 3.0821-3.0947v-130.64c0-7.2668 5.8761-13.155 13.155-13.155h41.559c1.7165 0 3.1322-1.3907 3.1322-3.0947h0.0125v-28.917c0-0.91462-0.43976-1.7165-1.1-2.2778-3.433-3.4455-6.7945-6.9461-10.227-10.355-0.1065-0.12529-0.21175-0.23805-0.33829-0.3458-0.57633-0.68032-1.412-1.1426-2.3768-1.1426z" fill="#1d1d1b" stroke-width="1.2529"/><path d="m198.01 137.68c0 1.7039-1.4158 3.0947-3.1322 3.0947h-41.559c-7.2794 0-13.155 5.8886-13.155 13.155v130.64c0 1.7165-1.3657 3.0947-3.0821 3.0947h-28.929c-1.7165 0-3.0947-1.3782-3.0947-3.0947v-130.64c0-7.2668-5.8636-13.155-13.155-13.155h-43.35c-1.6914 0-3.0947-1.3907-3.0947-3.0947v-28.917c0-1.6914 1.4032-3.0696 3.0947-3.0696h146.34c1.7165 0 3.1322 1.3782 3.1322 3.0571v28.929z" fill="url(#linearGradient10219)" stroke-width="1.2529"/><path d="m122.62 131.42v148.41h-9.73l-6.9273 6.9411c0.5588 0.5588 1.3343 0.90209 2.1926 0.90209h28.929a3.0721 3.0721 0 0 0 3.0821-3.0934v-130.64c0-7.2668 5.8761-13.155 13.155-13.155h41.559c1.7165 0 3.1322-1.3895 3.1322-3.0934h0.0125v-6.262z" fill="url(#linearGradient10221)" stroke-width="1.2529"/><path d="m105.06 280.74v3.8351c0 1.7165 1.3782 3.0947 3.0947 3.0947h4.5706v-6.9285z" fill="url(#linearGradient10223)" fill-rule="evenodd" stroke-width="1.2529"/><path d="m186.73 137.68h11.289v-28.929h-11.289z" fill="url(#linearGradient10225)" stroke-width="1.2529"/><path d="m186.73 131.42v9.3554h8.1401c1.7165 0 3.1322-1.3882 3.1322-3.0922h0.015v-6.2645z" fill="url(#linearGradient10227)" stroke-width="1.2529"/><path d="m48.61 105.69c-1.7578 0-3.1548 1.3794-3.1548 3.0583v6.2996h152.57v-6.2996c0-1.6789-1.4158-3.0583-3.1322-3.0583z" fill="url(#linearGradient10229)" stroke-width="1.2529"/><path d="m186.73 105.69v9.3579h11.289v-6.2996c0-1.6789-1.4158-3.0571-3.1322-3.0571z" fill="url(#linearGradient10231)" stroke-width="1.2529"/><path d="m56.744 137.68h-11.289v-28.929h11.289z" fill="url(#linearGradient10233)" stroke-width="1.2529"/><path d="m56.78 105.69v9.3579h-11.289v-6.2996c0-1.6789 1.4158-3.0571 3.1322-3.0571z" fill="url(#linearGradient10235)" stroke-width="1.2529"/><path d="m56.744 131.42v9.3554h-8.1401c-1.7165 0-3.1485-1.3895-3.1485-3.0934v-6.262z" fill="url(#linearGradient10237)" stroke-width="1.2529"/><path class="st31" d="m108.96 282.68v-128.75c0-9.4218-7.6427-17.064-17.064-17.064h-41.484a1.065 1.065 0 0 1-1.065-1.065v-25.133c0-0.58887 0.4761-1.065 1.065-1.065h142.62c0.58887 0 1.065 0.4761 1.065 1.065v25.133c0 0.58886-0.4761 1.065-1.065 1.065h-39.717c-9.4218 0-17.064 7.6427-17.064 17.064v128.75c0 0.58886-0.4761 1.065-1.065 1.065h-25.158a1.065 1.065 0 0 1-1.065-1.065z" fill="#fff" stroke-width="1.2529"/><path class="st0" d="m498.73 0h-197.77c-14.596 0-26.536 11.94-26.536 26.499v330.53c0 14.596 11.94 26.524 26.536 26.524h197.78c14.559 0 26.524-11.94 26.524-26.524v-330.53c0-14.559-11.978-26.499-26.536-26.499z" fill="#eb122b" stroke-width="1.2529"/><g transform="scale(1.2529)" clip-path="url(#Outer_00000152976149169722406290000010164063148477276291_-8-0-4)" fill="none" stroke-miterlimit="10" stroke-width="5"><path d="m220.72 272.06v-233.73" stroke="url(#linearGradient5978-5)"/><path d="m253.25 304.44h-13.05c-10.74 0-19.48-8.74-19.48-19.47v-12.9" stroke="url(#linearGradient5980-7)"/><path d="m381.15 304.44h-127.9" stroke="url(#linearGradient5982-7)"/><path d="m417.54 272.06v12.9c0 10.74-8.74 19.47-19.47 19.47h-16.92" stroke="url(#linearGradient5984-2)"/><path d="m417.54 47.88v224.18" stroke="url(#linearGradient5986-0)"/><path d="m382.37 1.7h15.69c10.74 0 19.47 8.73 19.47 19.45v26.73" stroke="url(#linearGradient5988-9)"/><path d="m260.85 1.7h121.52" stroke="url(#linearGradient5990-9)"/><path d="m220.72 38.33v-17.18c0-10.73 8.74-19.45 19.48-19.45h20.64" stroke="url(#linearGradient5992-0)"/></g><path class="st0" d="m300.96 381.43c-13.456 0-24.406-10.95-24.406-24.394v-330.54c0-13.444 10.95-24.369 24.406-24.369h197.78c13.456 0 24.394 10.938 24.394 24.369v330.53c0 13.456-10.95 24.394-24.394 24.394h-197.78z" fill="#eb122b" stroke-width="1.2529"/><path class="st28" d="m350.61 105.69c-1.704 0-3.0947 1.3794-3.0947 3.0709v138.12c0 12.352 3.448 23.175 10.905 30.564l0.22803 0.23304c3.3139 3.344 6.599 6.6993 9.8979 10.023 0.13907 0.14283 0.27689 0.28566 0.41847 0.42599 6.4612 6.6153 16.032 10.586 29.117 10.586h65.589c1.7415 0 3.0821-1.3907 3.0821-3.1197v-28.867h-0.0125c0-0.9497-0.43225-1.8117-1.1113-2.393a3.1034 3.1034 0 0 0-0.3483-0.34705l-9.8353-9.9643a3.0897 3.0897 0 0 0-0.37587-0.38465 3.0283 3.0283 0 0 0-2.3254-1.0938h-53.336c-1.8067 0-3.542-0.28942-5.172-0.81438a16.826 16.826 0 0 1-0.73921-4.949v-126.97c0-0.92715-0.42975-1.7578-1.0938-2.3241-3.5206-3.5833-7.0388-7.1478-10.559-10.696a3.0658 3.0658 0 0 0-2.3429-1.1013z" fill="#1d1d1b" stroke-width="1.2529"/><path d="m455.83 284.55c0 1.7165-1.3406 3.1197-3.0821 3.1197h-65.589c-27.689 0-39.654-17.741-39.654-40.782v-138.12c0-1.6914 1.3907-3.0696 3.0947-3.0696h28.892c1.7165 0 3.0821 1.3782 3.0821 3.0696v126.98c0 9.2965 7.5174 16.814 16.826 16.814h53.336c1.7415 0 3.0821 1.4283 3.0821 3.1322v28.854z" fill="url(#linearGradient10239)" stroke-width="1.2529"/><path d="m371.28 108.75v139.1l10.557 5.1582 6.1593-4.9064c-3.3315-3.0696-5.4276-7.456-5.4276-12.35v-126.99z" fill="#a8a8a8" stroke-width="1.2529"/><path d="m371.28 105.69v15.159h11.289v-12.101c0-1.5661-1.2817-3.0583-3.0821-3.0583z" fill="url(#linearGradient10241)" stroke-width="1.2529"/><path d="m455.83 284.55c0 1.7165-1.3406 3.1197-3.0821 3.1197h-23.897l5.182-35.106h18.703c1.7415 0 3.0821 1.4283 3.0821 3.1322v28.854z" fill="#a8a8a8" stroke-width="1.2529"/><path d="m388 248.1-6.1592 4.9064 11.658 10.77h56.756v-11.213h-50.856a16.751 16.751 0 0 1-11.399-4.4628z" fill="url(#linearGradient10243)" stroke-width="1.2529"/><path d="m444.54 252.55v15.159h11.289v-12.101c0-1.5661-1.2817-3.0583-3.0821-3.0583z" fill="url(#linearGradient10245)" stroke-width="1.2529"/><path class="st31" d="m387.16 283.76c-13.356 0-35.758-4.7861-35.758-36.873v-136.22c0-0.58887 0.4761-1.065 1.065-1.065h25.133c0.58886 0 1.065 0.4761 1.065 1.065v125.06c0 11.439 9.284 20.723 20.723 20.723h51.469c0.58887 0 1.065 0.4761 1.065 1.065v25.158c0 0.58886-0.4761 1.065-1.065 1.065h-63.697z" fill="#fff" stroke-width="1.2529"/></g><g transform="matrix(.36458 0 0 .36458 300.48 144.41)" fill="#eb122b" font-family="'Mark Pro'" font-size="40px" font-weight="bold" stroke-width="8.0872"><path d="m-779.06-291.56h109.02v-91.224h45.127v226.44h-45.127v-93.165h-109.02v93.165h-45.127v-226.44h45.127z" style="white-space:pre"/><path d="m-480.15-382.78q26.526 0 48.2 8.0872t37.039 22.968q15.527 14.719 23.938 35.745 8.4107 20.865 8.4107 46.421t-8.4107 46.582q-8.4107 20.865-23.938 35.745-15.366 14.719-37.039 22.806t-48.2 8.0872h-93.326v-226.44zm-48.2 42.215v142.01h47.714q17.954 0 31.217-5.3376t21.997-14.719q8.8959-9.5429 13.263-22.482 4.3671-13.101 4.3671-28.467 0-15.527-4.3671-28.629-4.3671-13.101-13.263-22.482-8.7342-9.3812-21.997-14.557-13.263-5.3376-31.217-5.3376z" style="white-space:pre"/></g></svg>
