<?xml version="1.0" encoding="UTF-8" standalone="no"?><svg version="1.1" x="0" y="0" width="670.1734" height="153.547" viewBox="0 0 670.1734 153.547" xml:space="preserve" xmlns="http://www.w3.org/2000/svg" xmlns:svg="http://www.w3.org/2000/svg"><path d="M276.1962 29.0343V0H0v153.547h276.1962v-29.0017h-6.723l-.0061 22.37H6.7112V6.6316h262.7153v22.4027Z"/><path d="M183.1463 81.2054V46.3083h-20.1796V81.901c0 2.8336-.2151 4.9477-1.9437 6.7916-1.5778 1.5663-3.4856 2.1897-5.7428 2.1897-1.3485 0-3.7179-.2152-5.7303-2.19-.6165-.605-1.1266-1.4508-1.4789-2.4014-.3522-.9506-.5656-2.51-.5656-4.3899V46.3083h-20.02v35.1225c0 4.8591.5571 8.6093 1.6173 11.7014 1.0602 3.0922 2.788 5.7426 4.9967 7.9513 2.2088 2.2087 5.0753 3.9756 8.6093 5.2125 3.534 1.2368 7.6251 1.9261 12.4844 1.9261 4.8593 0 9.1615-.6893 12.6955-1.9261 3.534-1.2369 6.4104-3.0038 8.6191-5.2125 2.2088-2.2087 3.9267-4.8591 4.987-7.9513 1.0601-3.0921 1.6516-7.0677 1.6516-11.9268Z" fill="#f4aa00"/><path d="M229.7741 107.2678V91.3653h-24.2964v-7.0678h22.0876V68.6601h-22.0876v-6.626h23.4129V46.3083h-43.2918v60.9595Z" fill="#f4aa00"/><path d="m299.7357 100.5999-5.7428-15.9013c-2.3822 2.2852-6.9891 5.5635-14.5993 5.5635-3.454 0-6.6037-1.013-8.8994-2.7153-3.1394-2.3279-5.042-6.0679-5.042-10.9516 0-4.3536 1.3892-8.0835 4.2261-10.6109 2.3194-2.0662 5.614-3.348 9.7153-3.348 6.0297 0 11.2485 3.3652 13.7183 5.3057l5.3112-16.833c-3.5014-2.561-7.4593-3.969-11.0259-4.751-4.0188-.8812-7.5541-.957-9.382-.957-8.6593 0-16.2799 2.4973-22.02 7.1771-6.5811 5.3655-10.6166 13.61-10.6166 24.2821 0 6.9706 1.7378 12.9484 4.8207 17.7617 5.6166 8.769 15.7779 13.6728 27.869 13.6728 3.8004 0 7.0193-.444 9.7282-1.1378 6.8806-1.7621 10.4707-5.0886 11.9392-6.557Z" fill="#f4aa00"/><path d="m356.8307 107.2678-13.6992-23.1614c3.9004-2.2751 6.3336-4.933 7.9221-8.09 1.5759-3.132 2.1707-6.3608 2.2304-10.2718-.0342-4.023-1.0348-7.1673-2.6681-9.855-1.9632-3.2303-4.6567-5.4187-7.7349-6.878-4.4757-2.1218-9.5416-2.7033-14.5822-2.7033h-26.7284v60.9595h19.9878V86.9479h2.5505l9.7185 20.3199ZM333.1116 66.628c0 1.8364-.6085 2.975-1.774 3.8868-1.1975.9369-2.3245 1.414-5.3588 1.414h-4.5295V61.3273h5.036c1.3016 0 2.7464.1584 3.8836.815.3876.2237 1.1722.737 1.7039 1.3648.6544.7727 1.0388 1.742 1.0388 3.121Z" fill="#f4aa00"/><path d="M377.8137 107.2678V46.3083h-19.9673v60.9595Z" fill="#f4aa00"/><path d="m453.7055 107.2678-3.534-60.9595h-25.6217l-7.7748 33.1301-7.6865-33.1301h-25.6217l-3.534 60.9595h19.6138l.7068-34.8971 7.9516 34.897h17.2283l7.9516-34.897.7068 34.897Z" fill="#f4aa00"/><path d="M500 107.2693V91.366h-24.2976v-7.068h22.0887V68.6597h-22.0887v-6.6264h23.414V46.3068h-43.2939v60.9625Z" fill="#f4aa00"/><path d="M72.1724 61.8574V46.3083H23.4912v15.549H37.804v45.4105h19.9672V61.8574Z" fill="#f4aa00"/><path d="m129.4456 107.2678-13.6991-23.1614c3.9004-2.2751 6.3336-4.933 7.922-8.09 1.5759-3.132 2.1708-6.3608 2.2305-10.2718-.0343-4.023-1.0348-7.1673-2.6681-9.855-1.9633-3.2303-4.6567-5.4187-7.7349-6.878-4.4757-2.1218-9.5417-2.7033-14.5823-2.7033H74.1854v60.9595H94.173V86.9479h2.5505l9.7186 20.3199Zm-23.719-40.6397c0 1.8364-.6086 2.975-1.774 3.8868-1.1975.9369-2.3245 1.414-5.3588 1.414h-4.5296V61.3273h5.036c1.3017 0 2.7464.1584 3.8837.815.3875.2237 1.1721.737 1.7038 1.3648.6545.7727 1.0388 1.742 1.0388 3.121Z" fill="#f4aa00"/><path d="M670.17342 96.630839 656.26164 56.5875H641.7702l-13.91178 40.043339h13.62195l1.5071-5.629281h11.41927l1.56507 5.629281Zm-18.49108-15.669133h-5.91251l2.95626-10.736257Z"/><path d="M590.02465 66.801453V56.5875h-31.914v10.213953h9.45352v29.829386h12.98966V66.801453Z"/><path d="m558.14399 96.630839-13.33334-20.892177L557.39037 56.5875h-15.65219l-5.62319 10.736257-5.68116-10.736257h-15.65218l12.63768 19.151162-13.33334 20.892177h15.65219l6.37681-12.767441 6.37682 12.767441Z"/><path d="m627.50137 96.630839-8.95278-15.21436c2.54901-1.494478 4.1895-3.240411 5.22763-5.314194 1.02988-2.057362 1.41861-4.17831 1.45761-6.747385-.02234-2.642645-.67626-4.708087-1.74366-6.473594-1.283-2.121934-3.0936-3.559459-5.10528-4.518051-2.92499-1.393777-6.23568-1.775755-9.52984-1.775755H591.367v40.043339h12.923V83.283015h1.84636l6.35128 13.347824Zm-15.50104-26.695647c0 1.206302-.39766 1.954231-1.15935 2.553178-.78259.615435-1.51912.928834-3.50211.928834H604.268v-6.963959h3.40189c.85062 0 1.79484.104051 2.53803.535361.2533.146945.76606.484124 1.11353.896516.42767.507574.67888 1.144292.67888 2.050136Z"/></svg>