<svg width="800" height="463.83" version="1.1" viewBox="0 0 800 463.83" xml:space="preserve" xmlns="http://www.w3.org/2000/svg">
<path class="st0" d="m259.18 398.05c-6.2327-2.4931-11.986-6.3286-16.684-11.027-4.7944-4.7944-8.6299-10.452-11.123-16.684-2.589-6.2327-3.9314-12.945-3.8355-19.657 0-6.7121 1.4383-13.424 4.0273-19.657 2.589-6.2327 6.5204-11.794 11.315-16.589 4.7944-4.6985 10.548-8.4382 16.78-10.835 6.2327-2.4931 12.945-3.6437 19.753-3.5479 6.7121 0.19169 13.424 1.6301 19.561 4.4108l11.794-27.807c-19.657-7.9587-41.711-7.7669-61.272 0.28767-19.561 8.1504-35.191 23.684-43.533 43.15-8.2464 19.561-8.6299 41.519-0.86299 61.272 7.7669 19.753 23.013 35.67 42.382 44.3zm63.957-149.78-12.178 28.67c40.656 17.26 59.546 64.82 42.095 106.05-6.1368 14.671-16.589 27.232-29.821 36.054-13.233 8.8217-28.862 13.52-44.78 13.616-10.644 0-21.095-2.1095-30.876-6.3286l-12.178 28.67c13.616 5.7533 28.191 8.8217 43.054 8.8217 22.054 0 43.629-6.5204 62.039-18.794 18.41-12.178 32.794-29.533 41.328-49.958 24.068-56.957-2.2054-122.83-58.683-146.8zm-190.82 102.22-29.725-73.642h-32.218l11.986 29.917-18.794 47.177-26.273-77.094h-37.3l59.546 153.9 38.93-83.71 33.657 83.806 57.341-153.9h-34.616zm449.04-74.601h-32.122v144.89h98.093v-31.164h-66.067v-113.72zm210.38 38.547c-5.7533-11.698-14.863-21.383-26.177-27.807-11.89-7.0957-27.04-10.739-45.451-10.739h-44.108v144.89h51.108c12.657 0.0958 25.123-2.7807 36.437-8.534 10.931-5.5615 20.136-14.096 26.561-24.547 6.7121-11.123 10.068-23.876 9.8764-36.821-0.0958-12.657-2.8766-25.123-8.2463-36.437zm-36.821 64.628c-7.9587 6.9998-18.986 10.548-32.794 10.548h-14.287v-82.847h20.328c5.7533 0.0959 11.411 1.3424 16.589 3.6437 6.2327 2.7808 11.507 7.2875 15.246 12.945 4.315 6.2327 6.5204 14.767 6.5204 25.41 0.28766 13.233-3.6437 23.397-11.602 30.301zm-246.34-28.383c3.7396-7.8628 5.7533-16.493 5.6574-25.314 0-15.246-5.0821-27.424-15.15-36.246-10.068-8.8217-24.068-13.233-41.999-13.233h-44.78v144.89h32.122v-44.684h15.15l29.533 44.684h37.492l-33.561-52.451c6.7121-4.3149 12.082-10.452 15.534-17.643zm-32.122-11.507c-3.0684 3.8355-7.8628 5.6574-14.671 5.6574h-17.452v-37.876h17.643c7.5752 0 12.657 2.0137 15.15 5.945 2.589 4.0273 4.0273 8.6299 4.0273 13.424 0 4.6985-1.6301 9.2052-4.6985 12.849z" fill="#001e41" stroke-width=".95888"/><path class="st1" d="m453.55 34.967h-26.043l-26.628 61.01-0.87783 3.6577-0.87783-3.6577-26.628-61.01h-26.043l53.548 120.56zm71.983 81.785 5.1207 0.14647c31.602 0 47.111-20.483 47.111-40.819 0-20.044-15.07-39.795-44.916-39.795h-30.578v115.73h23.409v-35.26zm0-58.084h8.4858c13.314 0.14646 20.044 4.6818 21.068 17.996-0.87781 13.899-8.632 18.288-22.092 18.435h-7.3153zm-276.81 93.343h24.872v-93.343h32.334v-22.385h-89.686v22.385h32.48zm-61.741-152.01v186.69h426.04v-186.69zm138.84 178.05h-129.33v-169.72h129.33zm138.84 0h-129.33v-169.72h129.33zm138.84 0h-129.33v-169.72h129.48z" fill="#001e41" stroke-width="1.4631"/></svg>
