<svg width="800" height="108.9" version="1.1" viewBox="0 0 800 108.9" xmlns="http://www.w3.org/2000/svg">
 <g transform="matrix(5.9193 0 0 5.9193 0 -4.7505)" fill="#ffb41d">
  <path d="m64.272 4.05c0.7008 0.85 0.6007 2.1-0.2502 2.8-0.851 0.7-2.1024 0.60001-2.8032-0.25-0.7008-0.85-0.6006-2.1 0.2503-2.8 0.851-0.7 2.1024-0.6 2.8031 0.25z"/>
  <path d="m67.326 1.5c0.7008 0.85 0.6007 2.1-0.2503 2.8s-2.1024 0.6-2.8032-0.25-0.6006-2.1 0.2503-2.8c0.851-0.7 2.1024-0.55 2.8032 0.25z"/>
 </g>
 <g transform="matrix(5.9193 0 0 5.9193 0 -4.7505)" fill="#fff">
  <path d="m32.887 19.2v-13.65h7.8588c4.2548 0 5.8065 2.65 5.8065 4.9 0 2.4-1.7519 4.8-5.7064 4.8h-2.8532v3.95zm5.0557-7.05h1.0512c1.6017 0 2.4026-0.6 2.4026-1.75 0-0.80001-0.4004-1.75-2.4026-1.75h-1.0012v3.5z"/>
  <path d="m56.063 19.2-0.901-2.95h-4.1046l-0.901 2.95h-5.0557l4.7053-13.65h6.9077l4.7553 13.65zm-4.455-6.1h3.0034l-1.4517-4.4h-0.1001z"/>
  <path d="m3.8543 19.2 1.5017-2.95-5.356-10.7h5.306l2.703 5.4 2.7531-5.4h5.3059l-6.9077 13.65z"/>
  <path d="m79.139 19.2v-5.05h-3.5039v5.05h-5.1057v-13.65h5.1057v4.75h3.5039v-4.75h5.1057v13.65z"/>
  <path d="m96.758 19.2-0.901-2.95h-4.1046l-0.901 2.95h-5.0557l4.7053-13.65h6.9077l4.7558 13.65zm-4.455-6.1h3.0034l-1.4517-4.4h-0.1501z"/>
  <path d="m25.679 19.2-3.1535-5.45v5.45h-5.1057v-13.65h5.1057v5.4l3.2036-5.4h5.6563l-4.1046 6.75 4.1046 6.9z"/>
  <path d="m62.67 19.2v-9.4l5.1057-4.3v13.7z"/>
 </g>
 <g transform="matrix(5.9193 0 0 5.9193 0 -4.7505)" fill="#ffb41d">
  <path d="m120.04 15.35v3.8h-13.616v-0.25c0-0.7 0.1-1.35 0.301-1.95 0.2-0.6 0.45-1.15 0.851-1.65 0.4-0.5 0.8-0.95 1.201-1.3 0.45-0.4 0.951-0.8 1.552-1.2 0.5-0.35 1.051-0.7 1.652-1.1 0.6-0.35 1.051-0.65 1.401-0.8 0.35-0.2 0.651-0.4 0.951-0.65 0.3-0.25001 0.501-0.45001 0.651-0.70001s0.2-0.5 0.2-0.85c0-0.5-0.2-0.85-0.551-1.15-0.35-0.3-0.8-0.4-1.351-0.4-0.851 0-1.452 0.25-1.802 0.75-0.3 0.5-0.501 1.2-0.551 2.15h-4.254v-0.25001c0-2.15 0.55-3.75 1.701-4.85 1.152-1.1 2.854-1.65 5.056-1.65 1.902 0 3.404 0.45 4.555 1.35 1.152 0.9 1.702 2.1 1.702 3.65 0 0.65-0.1 1.2-0.25 1.7-0.15 0.50001-0.451 0.95001-0.801 1.35-0.4 0.4-0.751 0.75-1.051 1-0.301 0.25-0.801 0.6-1.402 0.95-0.3 0.2-0.901 0.55-1.752 1.05s-1.501 0.9-1.902 1.2c1.352-0.15 2.503-0.2 3.504-0.2z"/>
  <path d="m135.15 12.05v3.7h-2.053v3.4h-4.605v-3.4h-6.908v-4.1l7.058-8.1h4.505v8.55h2.003zm-6.508 0.05v-3l0.05-1.45-3.754 4.5c0.701-0.05 1.151-0.05 1.402-0.05z"/>
 </g>
</svg>
