<svg width="999.81" height="739.8" space="preserve" version="1.1" viewBox="0 0 999.81 739.8" xmlns="http://www.w3.org/2000/svg" xmlns:xlink="http://www.w3.org/1999/xlink">
 <defs>
  <linearGradient id="linearGradient1066" x1="672.27" x2="1064" y1="181.83" y2="573.59" gradientTransform="matrix(1,0,0,-1,-378.4,817.1)" gradientUnits="userSpaceOnUse">
   <stop stop-color="#03c5ef" offset=".1"/>
   <stop stop-color="#08cdd7" offset=".29"/>
   <stop stop-color="#26e494" offset=".58"/>
   <stop stop-color="#abfe69" offset=".94"/>
   <stop stop-color="#b1ff67" offset="1"/>
  </linearGradient>
  <clipPath id="clip-path-5">
   <rect class="cls-1" x="21.98" y="-28.43" width="135.91" height="135.91"/>
  </clipPath>
 </defs>
 <link rel="stylesheet" type="text/css"/>
 <link rel="stylesheet" type="text/css"/>
 <linearGradient id="SVGID_1_" x1="621.01" x2="874.68" y1="493.33" y2="747.01" gradientTransform="matrix(1,0,0,-1,-378.4,817.1)" gradientUnits="userSpaceOnUse" xlink:href="#SVGID_2_">
  <stop stop-color="#03c5ef" offset=".1"/>
  <stop stop-color="#08cdd7" offset=".29"/>
  <stop stop-color="#26e494" offset=".58"/>
  <stop stop-color="#abfe69" offset=".94"/>
  <stop stop-color="#b1ff67" offset="1"/>
 </linearGradient>
 <g class="cls-9" transform="matrix(9.6682 0 0 9.6682 -370.27 .65328)" clip-path="url(#clip-path-5)" fill="#fff">
  <path class="cls-10" d="m48.08 63.51v8.4a4.29 4.29 0 0 1-1.31 3.3 5 5 0 0 1-3.58 1.22 5.11 5.11 0 0 1-3.55-1.18 4.26 4.26 0 0 1-1.34-3.25v-8.49h2.63v8.41a2.43 2.43 0 0 0 0.6 1.83 2.31 2.31 0 0 0 1.66 0.57c1.48 0 2.23-0.77 2.25-2.33v-8.48z"/>
  <path class="cls-10" d="m53.27 64.45v2.33h1.62v1.86h-1.62v4.73a1.14 1.14 0 0 0 0.2 0.75 1 1 0 0 0 0.77 0.23 4.22 4.22 0 0 0 0.75-0.06v1.91a5 5 0 0 1-1.53 0.23 2.42 2.42 0 0 1-2.72-2.69v-5.1h-1.38v-1.86h1.38v-2.33z"/>
  <path class="cls-10" d="m61.61 73.64a0.81 0.81 0 0 0-0.46-0.73 5.22 5.22 0 0 0-1.47-0.48c-2.26-0.43-3.38-1.43-3.38-2.87a2.64 2.64 0 0 1 1-2.11 4.25 4.25 0 0 1 2.74-0.84 4.51 4.51 0 0 1 2.88 0.85 2.66 2.66 0 0 1 1.08 2.2h-2.49a1.18 1.18 0 0 0-0.35-0.89 1.45 1.45 0 0 0-1.09-0.36 1.52 1.52 0 0 0-1 0.29 0.92 0.92 0 0 0-0.35 0.74 0.76 0.76 0 0 0 0.4 0.67 3.73 3.73 0 0 0 1.34 0.45 11.63 11.63 0 0 1 1.6 0.43 2.62 2.62 0 0 1 2 2.54 2.47 2.47 0 0 1-1.06 2.1 4.82 4.82 0 0 1-2.87 0.8 5.08 5.08 0 0 1-2.13-0.43 3.6 3.6 0 0 1-1.45-1.17 2.68 2.68 0 0 1-0.52-1.6h2.4a1.32 1.32 0 0 0 0.5 1 2 2 0 0 0 1.24 0.36 1.81 1.81 0 0 0 1.1-0.28 0.84 0.84 0 0 0 0.37-0.72"/>
  <path class="cls-10" d="m71.37 76.26a2.94 2.94 0 0 1-0.26-0.85 3.06 3.06 0 0 1-2.39 1 3.39 3.39 0 0 1-2.3-0.8 2.61 2.61 0 0 1-0.92-2 2.68 2.68 0 0 1 1.12-2.32 5.58 5.58 0 0 1 3.22-0.81h1.16v-0.54a1.53 1.53 0 0 0-0.34-1.05 1.3 1.3 0 0 0-1.06-0.4 1.46 1.46 0 0 0-1 0.31 1 1 0 0 0-0.37 0.84h-2.52a2.51 2.51 0 0 1 0.51-1.52 3.31 3.31 0 0 1 1.44-1.12 5.11 5.11 0 0 1 2.08-0.4 4.12 4.12 0 0 1 2.78 0.88 3.05 3.05 0 0 1 1 2.47v4.11a4.52 4.52 0 0 0 0.37 2v0.15zm-2.09-1.76a2.27 2.27 0 0 0 1-0.25 1.68 1.68 0 0 0 0.7-0.67v-1.58h-1c-1.26 0-1.94 0.44-2 1.31v0.15a1 1 0 0 0 0.34 0.78 1.3 1.3 0 0 0 0.91 0.31"/>
  <polygon class="cls-10" points="76.97 66.78 78.73 73.17 80.49 66.78 83.14 66.78 79.94 76.26 77.53 76.26 74.33 66.78"/>
  <path class="cls-10" d="m89.24 76.26v-12.75h4.46a5.88 5.88 0 0 1 3.52 0.89 3 3 0 0 1 1.2 2.6 2.86 2.86 0 0 1-0.48 1.65 2.76 2.76 0 0 1-1.34 1 2.66 2.66 0 0 1 1.55 1 2.94 2.94 0 0 1 0.56 1.82 3.35 3.35 0 0 1-1.17 2.78 5.28 5.28 0 0 1-3.35 1zm2.63-7.41h1.94c1.32 0 2-0.55 2-1.58a1.45 1.45 0 0 0-0.52-1.27 2.58 2.58 0 0 0-1.59-0.38h-1.83zm0 1.86v3.44h2.25a2.12 2.12 0 0 0 1.44-0.45 1.5 1.5 0 0 0 0.53-1.22 1.6 1.6 0 0 0-1.82-1.77z"/>
  <path class="cls-10" d="m103.16 67.82a3.17 3.17 0 0 1 2.53-1.21q3.09 0 3.13 3.58v6.07h-2.53v-6a1.77 1.77 0 0 0-0.35-1.2 1.5 1.5 0 0 0-1.17-0.39 1.73 1.73 0 0 0-1.61 0.85v6.74h-2.53v-13.45h2.53z"/>
  <path class="cls-10" d="m116.4 76.26a2.94 2.94 0 0 1-0.26-0.85 3.06 3.06 0 0 1-2.39 1 3.39 3.39 0 0 1-2.3-0.8 2.61 2.61 0 0 1-0.92-2 2.68 2.68 0 0 1 1.12-2.32 5.58 5.58 0 0 1 3.22-0.81h1.13v-0.54a1.53 1.53 0 0 0-0.34-1.05 1.3 1.3 0 0 0-1.06-0.4 1.51 1.51 0 0 0-1 0.31 1 1 0 0 0-0.36 0.84h-2.53a2.51 2.51 0 0 1 0.51-1.52 3.31 3.31 0 0 1 1.44-1.1 5.11 5.11 0 0 1 2.08-0.4 4.12 4.12 0 0 1 2.78 0.88 3.08 3.08 0 0 1 1 2.47v4.11a4.52 4.52 0 0 0 0.37 2v0.15zm-2.1-1.76a2.28 2.28 0 0 0 1-0.25 1.68 1.68 0 0 0 0.7-0.67v-1.58h-1c-1.26 0-1.94 0.44-2 1.31v0.15a1 1 0 0 0 0.33 0.78 1.34 1.34 0 0 0 0.91 0.31"/>
  <path class="cls-10" d="m126 69.16a6.23 6.23 0 0 0-0.91-0.07 1.85 1.85 0 0 0-1.88 1v6.2h-2.51v-9.51h2.39l0.07 1.13a2.34 2.34 0 0 1 2.11-1.3 2.9 2.9 0 0 1 0.79 0.11z"/>
  <path class="cls-10" d="m132.65 76.26a2.94 2.94 0 0 1-0.26-0.85 3.06 3.06 0 0 1-2.39 1 3.37 3.37 0 0 1-2.3-0.8 2.61 2.61 0 0 1-0.92-2 2.68 2.68 0 0 1 1.12-2.32 5.58 5.58 0 0 1 3.22-0.81h1.17v-0.54a1.53 1.53 0 0 0-0.34-1.05 1.3 1.3 0 0 0-1.06-0.4 1.51 1.51 0 0 0-1 0.31 1 1 0 0 0-0.36 0.84h-2.53a2.51 2.51 0 0 1 0.51-1.52 3.34 3.34 0 0 1 1.43-1.1 5.19 5.19 0 0 1 2.09-0.4 4.12 4.12 0 0 1 2.78 0.88 3.08 3.08 0 0 1 1 2.47v4.11a4.52 4.52 0 0 0 0.37 2v0.15zm-2.1-1.76a2.28 2.28 0 0 0 1-0.25 1.68 1.68 0 0 0 0.7-0.67v-1.58h-0.95c-1.26 0-1.94 0.44-2 1.31v0.15a1 1 0 0 0 0.33 0.78 1.34 1.34 0 0 0 0.91 0.31"/>
  <path class="cls-10" d="m140 64.45v2.33h1.62v1.86h-1.62v4.73a1.14 1.14 0 0 0 0.2 0.75 1 1 0 0 0 0.77 0.23 4 4 0 0 0 0.74-0.06v1.91a4.89 4.89 0 0 1-1.53 0.23 2.41 2.41 0 0 1-2.71-2.69v-5.1h-1.38v-1.86h1.38v-2.33z"/>
 </g>
 <linearGradient id="SVGID_2_" x1="672.27" x2="1064" y1="181.83" y2="573.59" gradientTransform="matrix(1,0,0,-1,-378.4,817.1)" gradientUnits="userSpaceOnUse">
  <stop stop-color="#03c5ef" offset=".1"/>
  <stop stop-color="#08cdd7" offset=".29"/>
  <stop stop-color="#23e495" offset=".58"/>
  <stop stop-color="#abfe69" offset=".94"/>
  <stop stop-color="#b1ff67" offset="1"/>
 </linearGradient>
 <linearGradient id="SVGID_3_" x1="991.75" x2="1108.4" y1="682.16" y2="682.16" gradientTransform="matrix(1,0,0,-1,-378.4,817.1)" gradientUnits="userSpaceOnUse" xlink:href="#SVGID_2_">
  <stop stop-color="#03c5ef" offset=".1"/>
  <stop stop-color="#08cdd7" offset=".29"/>
  <stop stop-color="#26e494" offset=".58"/>
  <stop stop-color="#abfe69" offset=".94"/>
  <stop stop-color="#b1ff67" offset="1"/>
 </linearGradient>
 <g transform="translate(46.909 -1.2209e-5)">
  <path d="m496.6 182.1 88.8-22.9s-63.4 8.3-94 14.3l-103.4-173.5-175.2 294c79.3-53 196.6-89.9 283.8-111.9z" fill="url(#SVGID_1_)"/>
  <path d="m613.4 171.2c-16.9 1.8-103.4 33.2-103.4 33.2-218.8 98.1-338.5 308.4-338.5 308.4h522.3l-170.3-285.6c39.7-34.5 89.9-56 89.9-56z" fill="url(#linearGradient1066)"/>
  <path d="m646.84 72.1a67.543 67.543 0 0 1-37.935 87.664 67.543 67.543 0 0 1 87.663 37.936 67.543 67.543 0 0 1 37.936-87.663 67.543 67.543 0 0 1-87.664-37.937z" fill="url(#SVGID_3_)" stop-color="#000000" style="font-variation-settings:normal;paint-order:stroke fill markers"/>
 </g>
</svg>
