<svg width="1036.8" height="436.64" version="1.1" viewBox="0 0 1036.8 436.64" xmlns="http://www.w3.org/2000/svg">
 <g transform="matrix(.8008 0 0 .8008 -.4004 -.4004)" fill="#18adb7">
  <path d="m265.69 545.75c-151.79 0-265.19-90.984-265.19-196.99v-223c0-4.8526 3.5146-8.5771 8.5771-8.5771h159.53c5.782 0 9.1489 3.8553 9.1489 9.1489v215.57c0 40.53 34.777 76.875 76.25 76.875h20.658c39.02 0 76.92-32.224 76.92-75.982v-216.67c0-5.2564 3.4842-8.9374 9.1489-8.9374h158.44c5.2367 0 9.6697 2.7183 9.6697 8.7073v222.3c0 113.29-122.56 197.56-263.16 197.56z"/>
  <path d="m790.36 0.5c-118.39 0-208.62 98.391-208.62 207.64 0 121.04 97.859 210.21 209.05 210.21 115.46 0 208.71-93.959 208.71-208.71 0-114.54-91.871-209.14-209.14-209.14zm-109.9 118.28c23.929 0 26.555 9.3499 26.555 16.363v42.146h42.396c3.0591 0 4.2383 1.795 4.2383 4.6387v25.148c0 2.378-0.96517 4.2558-3.7461 4.2558h-28.051c-7.2738 0-14.838-2.8379-14.838-2.8379v17.021c0 0.23992-0.0103 0.48067-0.0117 0.7207l0.0117-0.0117v9.9277c0 23.882 11.543 42.258 41.412 42.258 27.235 0 46.404-15.485 46.404-39.516 0-11.438-4.9995-20.346-5.6562-21.473l-3.2109-5.0781c-2.1954-4.1233-3.8672-6.6248-3.8672-11.521 0.0283-7.1978 3.7548-12.402 16.391-20.348 2.7304-1.8008 12.57-5.7266 20.543-5.7266 5.307 0 9.9446 2.7329 13.285 8.2988l2e-3 -0.01s13.437 19.66 47.664 82.906c21.738-39.67 35.602-87.076 35.602-87.076 0.97335-3.2404 3.5499-4.0261 7.2812-3.0391l23.465 7.2793c2.8489 1.0204 4.3952 2.1503 2.791 7.4668-19.517 57.006-50.08 104.04-50.08 104.04-5.8838 8.7517-11.877 16.182-31.734 16.182-16.021 0-21.6-5.4768-27.18-13.836l-17.582-26.76s-20.574 40.5-78.568 40.5c-45.286 0-65.932-20.641-65.932-20.641l-2e-3 -2e-3s-24.73-18.968-24.73-54.438v-101.59c0-8.1687 5.2524-15.248 27.148-15.248z"/>
  <g transform="matrix(.25601 0 0 .25601 857.21 59.8)">
   <path d="m949.17 764.91h-161.43c-15.346 0-23-14.825-23-60 0-42.126 5.7906-59 25-59h159.43v-175.8h126v175.8h187.7v119h-187.7v161.33c0 16.73-13.223 25-66 25-50.172 0-60-8.4284-60-24z"/>
   <path d="m1632.1 980.4c-46.515 0-76.143-2.4771-76.143-33.036v-545c-67.536 43.028-129.92 79.19-189.39 111.46l-58.968-118.95c127.73-76.038 199.37-118.59 246.86-150.13 12.828-8.4025 24.877-14.383 60.502-14.383h53c35.168 0 43 7.9598 43 32v688c0 24.847-28.253 30.036-78.857 30.036z"/>
  </g>
 </g>
</svg>
