<svg width="425.66mm" height="107.24mm" version="1.1" viewBox="0 0 1508.2 380" xmlns="http://www.w3.org/2000/svg">
 <defs>
  <style>.cls-1 {
        fill: #fff;
      }</style>
 </defs>
 <g transform="translate(231.26 -376.65)">
  <g transform="matrix(42.61 0 0 42.61 -385.97 -426.57)">
   <g transform="matrix(.023468 0 0 .023468 21.435 20.291)">
    <path class="cls-1" d="m559.57-61.379a190 190 0 1 0 190 190 190 190 0 0 0-190-190zm0 278.67c-47.504 0-82.333-38-82.333-88.667s34.859-88.667 82.333-88.667c47.5 0 82.333 38.008 82.333 88.667s-34.833 88.667-82.333 88.667zm-557.33-88.667c0-104.93-82.23-190-183.67-190s-183.67 85.066-183.67 190c0 104.93 82.321 190 186.83 190 83.476 0 148.94-50.454 170.72-120.33h-110.55c-15.337 22.692-37.888 28.5-60.167 28.5-42.728 0-69.955-29.411-78.498-69.667h256.94a197.93 197.93 0 0 0 2.0628-28.5zm-183.67-101.33c36.647 0 65.049 25.245 73.756 63.333h-147.66c9.8566-39.593 36.098-63.333 73.902-63.333zm-367.33 288.17-209.91-365.75h123.59l86.322 166.25 86.323-166.25h123.59zm734.67 0-209.91-365.75h123.59l86.321 166.25 86.323-166.25h123.59z" fill="#fff"/>
   </g>
  </g>
 </g>
</svg>
