<svg width="297.05pt" height="38.923pt" version="1.1" viewBox="0 0 297.05 38.923" xmlns="http://www.w3.org/2000/svg">
 <g transform="translate(-25.01 -162.05)" fill="#fff">
  <path d="m104.49 179.89q-1.4679 5.3725-5.7438 6.8378-4.2122 1.4042-8.9987 1.4652-0.3191 0-0.6382 0-0.25528 0-0.57438 0-0.44674 0-0.89349 0-0.38292-0.0611-0.76584-0.0611-0.44674 0-0.89349 0-0.38292-0.061-0.82967-0.061v12.882h-10.467v-38.89h12.828q0.82967 0 1.6593 0 0.82967 0 1.6593 0.061 3.3187 0.12211 6.3821 1.0379 3.0634 0.91577 5.1695 3.6631 1.085 1.3431 1.7232 3.0526 0.63821 1.6484 0.89349 3.3578 0.0639 0.48841 0.0639 1.0379 0.0639 0.54947 0.0639 1.0379 0 1.16-0.19146 2.381-0.12765 1.16-0.44675 2.1978zm-19.338-0.30525q0.25528 0 0.51056 0.061 0.3191 0 0.6382 0 0.25528 0 0.51057 0.061 0.3191 0 0.57438 0 0.12764 0 0.25528 0t0.25528 0q2.3614-0.061 4.3398-0.85472 2.0423-0.85472 2.1061-3.7241v-0.3663q0-2.5642-1.8508-3.3578-1.787-0.85472-3.9569-0.97682-0.38292-0.0611-0.76585-0.0611-0.38292 0-0.76585 0h-1.8508z"/>
  <path d="m106.9 200.92 13.98-38.87h13.852l14.108 38.87h-11.107l-2.0427-7.0173h-15.704l-2.1066 7.0173zm19.598-27.398-4.1493 12.875h11.044l-4.1493-12.875q-0.31917-0.91529-0.63835-1.8916-0.25535-1.0373-0.44685-2.0136-0.12767-0.36612-0.19151-0.67122-0.0638-0.36612-0.12767-0.67121-0.0638 0.30509-0.19151 0.67121-0.0638 0.3051-0.12767 0.67122-0.0639 0.12204-0.0639 0.24408 0 0.061-0.0638 0.18306-0.19151 0.91529-0.44686 1.7696-0.1915 0.85427-0.44685 1.7085z"/>
  <path d="m156.5 200.94v-38.88h10.694l15.277 19.959q0.57288 0.8545 1.0821 1.8311 0.57288 0.91555 1.0821 1.8921 0.38193 0.79348 0.76385 1.5869 0.38192 0.79347 0.76385 1.5259-0.0636-0.67139-0.19097-1.2818-0.0636-0.61037-0.1273-1.2818-0.12732-1.2207-0.19096-2.5025-0.0636-1.2818-0.0636-2.6246v-19.104h10.63v38.88h-10.63l-15.404-20.081q-0.63653-0.73243-1.2094-1.709-0.57289-1.0376-1.0821-2.1363-0.38193-0.79346-0.76385-1.5259-0.31827-0.79347-0.63653-1.4649 0.31827 1.8921 0.50923 3.8453t0.19096 3.9063v19.165z"/>
  <path d="m234.96 197.31q-3.0036 1.9522-6.5184 2.6842-3.5148 0.73207-7.0936 0.91509-1.0225 0.061-2.045 0.061-0.95859 0-1.9172 0h-11.184v-38.86h11.886q0.95859 0 1.9172 0 1.0225 0 1.9811 0.061 3.4509 0.18302 6.774 0.91509 3.387 0.73206 6.1989 2.6842 3.5787 2.3792 5.5598 6.2836 1.9811 3.9043 2.2367 8.0527 0.0639 0.36603 0.0639 0.73207 0 0.36603 0 0.73207 0 0.18301 0 0.42704 0 0.18302 0 0.36603-0.19172 4.3314-2.1728 8.3578-1.9811 4.0264-5.6876 6.5886zm-17.83-5.0635q0.19171 0 0.38343 0.061 0.25562 0 0.44734 0 0.25563 0 0.44734 0.061 0.19172 0 0.38344 0 0.63905 0 1.342 0 0.70296-0.061 1.342-0.12201 1.6616-0.12201 3.2592-0.54905t2.8758-1.2811q2.045-1.4031 3.0036-3.7824 1.0225-2.4402 1.0225-5.0634 0-0.24402 0-0.48805 0-0.24402-0.0639-0.48805-0.12781-2.3182-1.1503-4.4534-1.0225-2.1962-2.8118-3.4773-1.342-1.0371-3.0036-1.4031-1.5976-0.36603-3.3231-0.42703-0.31952 0-0.70296 0-0.31953 0-0.63905 0h-2.8119z"/>
  <path d="m250.64 200.93v-38.875h24.955v8.4829h-14.041v6.7741h13.211v8.2998h-13.211v6.591h14.041v8.727z"/>
  <path d="m314.2 197.31q-3.0036 1.9522-6.5184 2.6842-3.5148 0.73207-7.0935 0.91509-1.0225 0.061-2.045 0.061-0.95859 0-1.9172 0h-11.184v-38.86h11.886q0.95859 0 1.9172 0 1.0225 0 1.9811 0.061 3.4509 0.18302 6.774 0.91509 3.387 0.73206 6.1989 2.6842 3.5787 2.3792 5.5598 6.2836 1.9811 3.9043 2.2367 8.0527 0.0639 0.36603 0.0639 0.73207 0 0.36603 0 0.73207 0 0.18301 0 0.42704 0 0.18302 0 0.36603-0.19171 4.3314-2.1728 8.3578-1.9811 4.0264-5.6876 6.5886zm-17.83-5.0635q0.19172 0 0.38344 0.061 0.25562 0 0.44733 0 0.25563 0 0.44735 0.061 0.19172 0 0.38344 0 0.63905 0 1.342 0 0.70296-0.061 1.342-0.12201 1.6616-0.12201 3.2592-0.54905t2.8758-1.2811q2.045-1.4031 3.0036-3.7824 1.0225-2.4402 1.0225-5.0634 0-0.24402 0-0.48805 0-0.24402-0.0639-0.48805-0.12781-2.3182-1.1503-4.4534-1.0225-2.1962-2.8119-3.4773-1.342-1.0371-3.0036-1.4031-1.5976-0.36603-3.3231-0.42703-0.31953 0-0.70296 0-0.31953 0-0.63907 0h-2.8118z"/>
  <g stroke-width=".99999">
   <path d="m26.59 162.05h13.14l4.23 6.005-6.68 9.1599z"/>
   <path d="m52.43 162.05h13.13l-27.86 38.9h-12.69z"/>
   <path d="m48.21 192.16 6.62-9.0699 12.32 17.855h-12.76z"/>
  </g>
 </g>
</svg>
