<svg enable-background="new 0 0 200 154.652" version="1.1" viewBox="0 0 1148.5 887" xml:space="preserve" xmlns="http://www.w3.org/2000/svg"><path d="m126.16 179.4 178.9-178.9 268.36 272.62h-315.21l-132.05-93.712z" fill="#73c908"/><path d="m573.42 273.12 268.36-272.62 178.9 178.9-166.13 93.712h-281.13z" fill="#b3fa0a"/><path d="m449.89 498.87-323.73-319.47 447.26 93.712v225.76h-123.53z" fill="#387305"/><path d="m573.42 498.87v-225.76l447.26-93.712-323.73 319.47h-123.53z" fill="#4e9d04"/><path d="m449.89 886.5v-387.62l123.53-225.76v575.05l-123.53 38.337z" fill="#295001"/><path d="m696.94 886.5-123.53-38.337v-575.05l123.53 225.76v387.62" fill="#8cdf07"/><path d="m449.89 886.5h247.06v-387.62l323.73-319.47-178.9-178.9-268.36 272.62-268.36-272.62-178.9 178.9 323.73 319.47v387.62z" fill="none"/><path d="m449.89 886.5 123.53-613.38 123.53 613.38h-247.06z" fill="#4b9405"/><path d="m40.966 537.21v-51.354l-40.466-63.426v-23.658h18.866l36.505 57.901 36.565-57.901h18.81v23.896l-40.466 62.859v51.682h-29.813z" fill="#fff"/><path d="m1077.7 537.21v-51.354l-40.466-63.426v-23.658h18.87l36.505 57.901 36.569-57.901h18.806v23.896l-40.466 62.859v51.682h-29.817z" fill="#fff"/><path d="m134.68 537.21v-138.44h102.23v25.558h-72.413v29.817h68.154v25.558h-68.154v34.081h72.413v23.424h-102.23z" fill="#fff"/><path d="m522.3 537.21v-138.44h102.23v25.558h-72.413v29.817h68.15v25.558h-68.15v34.081h72.413v23.424h-102.23z" fill="#fff"/><path d="m426.46 537.21v-112.88h-44.726v-25.558h119.27v25.558h-44.726v112.88h-29.817z" fill="#fff"/><path d="m718.23 424.07h-40.185v34.345h40.351c16.612 0 19.662-7.4884 19.662-17.895 4e-3 -7.3649-3.412-16.634-19.829-16.451zm-15.859 59.894h-24.327v52.977h-29.822v-138.43h72.733c20.898 0 46.353 13.601 46.353 41.148 0 34.115-31.376 44.309-31.376 44.309l27.04 32.254v21.319h-19.373l-41.229-53.573z" fill="#fff"/><path d="m790.65 398.77v138.44h58.438c34.209 0 56.572-19.113 56.572-57.241v-23.692c0-36.756-27.568-57.509-59.635-57.509h-55.375zm170.92 0-47.384 116.07v22.367h23.16l10.385-25.558h58.834l9.32 25.558h23.432v-21.298l-47.392-117.14h-30.354zm-141.09 25.558h21.298c19.33 0 34.073 9.4223 34.073 36.207v18.367c0 21.319-9.4904 32.744-34.073 32.744h-21.298v-87.318zm156 9.5841 20.233 52.176h-39.934l19.701-52.176z" fill="#fff"/><path d="m285.36 492.75h-29.016c0 34.507 25.605 48.99 56.44 48.99 38.43 0 62.297-15.509 62.297-42.336 0-60.955-87.054-31.692-87.054-63.093 0-8.532 7.1604-15.441 25.826-15.441 17.124 1.4568 24.914 7.8206 24.914 20.267h30.882c0-24.216-19.36-45.028-55.264-45.028-25.519 0-56.172 9.3371-56.172 39.406 0 60.823 86.521 28.799 86.521 63.626 0 11.267-12.174 17.038-31.415 17.038-24.382 0-27.96-23.428-27.96-23.428z" fill="#fff"/><g transform="matrix(4.6538 0 0 4.6538 625.4 562.36)" fill="#393"><path d="m90.69 26.588v-5.395h-5.438v-3.724h5.438v-5.395h3.625v5.395h5.452v3.724h-5.452v5.395h-3.625z"/><path d="m112.4 29.576h-3.979v-14.995c-1.453 1.359-3.167 2.365-5.14 3.016v-3.611c1.038-0.34 2.167-0.984 3.384-1.933 1.219-0.948 2.054-2.055 2.507-3.32h3.229v20.843z"/></g></svg>
