<svg width="3e3pt" height="808.06pt" version="1.1" viewBox="0 0 3e3 808.06" xmlns="http://www.w3.org/2000/svg">
 <path d="m403.83 0a403.83 404.03 0 0 0-403.83 404.03 403.83 404.03 0 0 0 403.83 404.03 403.83 404.03 0 0 0 403.83-404.03 403.83 404.03 0 0 0-403.83-404.03zm0 24.593a379.25 379.44 0 0 1 379.25 379.44 379.25 379.44 0 0 1-379.25 379.44 379.25 379.44 0 0 1-379.25-379.44 379.25 379.44 0 0 1 379.25-379.44z" fill="#00adee" style="paint-order:stroke fill markers"/>
 <path d="m185.33 169.05c-0.16-5.66 4.12-11.05 9.7-12.09 3.31-0.54 6.68-0.27 10.02-0.32h249.95c8.02 0.05 16.14-0.37 24.04 1.37 16.7 3.39 31.84 13.65 41.25 27.85 25.84 38.79 51.56 77.65 77.45 116.41 6.74 8.16 11.96 17.99 12.96 28.67 1.78 18.81-7.73 38.05-23.49 48.37l-164.84 109.56h102.68c4.41-0.23 8.78 2.305 11.1 6.075l82.68 128.24c3.45 4.85 2.79 12.12-1.69 16.11-2.41 2.32-5.79 3.325-9.09 3.285h-268.02c-21.25 0.02-41.99-11.255-53.74-28.915l-78.1-118.83c-8.56-10.53-13.06-24.37-11.71-37.92 1.18-15.24 9.57-29.74 22.3-38.21l163.25-108.55h-101.06c-4.41 0.18-8.64-2.33-10.89-6.08l-79.98-124.05c-2.13-3.36-4.89-6.77-4.77-10.97m34.81 12.155c22.38 34.78 44.83 69.525 67.2 104.3h131.63c24.54-16.32 49.09-32.61 73.61-48.96 8.26-5.4 12.94-15.68 11.57-25.45-0.83-7.36-5.18-13.79-10.45-18.77-7.63-7.27-18.15-11.325-28.67-11.125h-244.89m285.93 75.915c-14.27 9.43-28.52 18.92-42.76 28.39h93.7l-32.77-49.35c-4.07 8.44-10.33 15.81-18.17 20.96m-79.816 53.03-193.41 128.72c-7.95 5.11-12.72 14.69-11.97 24.12 0.35 6.3 3.3 12.16 7.21 17 5.01 5.58 12.48 9.095 19.98 8.875h129.99l195.68-130.12c9.06-6.03 14.41-17.83 11.71-28.55-1.08-4.53-4.16-8.18-6.74-11.93-5.13-5.78-13.11-8.44-20.73-8.11h-131.72m-176.35 203.07 32.28 48.73c3.93-8.41 9.99-15.86 17.72-21.05l41.46-27.56c-30.49 0.01-60.98-0.18-91.46-0.12m135.64 0.38-61.34 40.65c-4.12 2.85-8.46 5.41-12.43 8.47-10.02 8.19-12.7 23.74-6.43 34.97 6.1 10.7 17.35 18.27 29.55 19.92 4.35 0.58 8.74 0.38 13.12 0.41h238.23l-67.24-104.3c-44.48-0.05-88.99-0.41-133.46-0.12z" fill="#00adee"/>
 <g transform="translate(-99.985 -95.983)" fill="#fff">
  <path d="m2668.5 300.5c3.89-2.79 8.96-2.4 13.52-2.26 3.75 0.07 7.67 1.8 9.51 5.24 2.61 4.72 2.065 10.31 2.135 15.5v53.76h145.24c10.19 0.37 18.34 8.41 21.75 17.57l101.23 258.61 96.35-244.62c3.85-8.94 6.23-18.81 12.61-26.42 3.85-4.72 9.88-8.04 16.12-7.2 5.21 0.7 10.78 3.47 13.03 8.49-2.38 7.56-5.9 14.75-8.69 22.18l-107.78 266.28c-1.48 3.77-3.62 7.58-7.32 9.54-4.98 2.67-10.82 2.76-16.31 2.78-4.73-0.19-9.81-0.27-13.93-2.88-3.88-2.59-5.06-7.37-6.8-11.41l-107.7-265.24h-137.8v171.54c-0.03 18.64-0.535 37.85 5.815 55.66 3.15 8.82 8.63 17.11 16.67 22.16 10.02 6.32 22.37 7.56 33.95 6.7 17.89-1.19 34.4-11.62 44.09-26.56 10.28 3.27 12.31 17.23 7.28 25.64-8.97 15.32-26.09 24.26-43.33 26.52-17.09 2.2-34.98 1.25-51.16-5-13.79-5.29-25.29-15.89-31.96-29.04-9.18-17.81-11.415-38.25-11.615-58.02v-189.6h-38.465c-4.89-0.03-11.01-1.435-12.75-6.675-1.17-4.71-1.22-9.85 0.07-14.54 1.82-5.13 7.89-6.46 12.73-6.47h38.415v-59.8c0.05-4.54 1.185-9.65 5.095-12.44z"/>
  <path d="m1578.6 366.74c35.23-2.65 71.68 5.62 100.99 25.7 28.75 19.34 49.71 49.32 59.41 82.46 10.36 35.52 9.75 74.41-2.79 109.3-11.15 31.14-32.78 58.54-61 75.91-31.68 19.82-70.53 26.45-107.31 21.49-30.69-4.02-60.3-17.24-82.97-38.45-25.15-23.2-41.22-55.38-46.62-89.02-5.86-36.4-1.16-74.97 15.95-107.86 13.06-25.28 33.61-46.66 58.54-60.42 20.12-11.23 42.85-17.52 65.8-19.11m-1.42 27.38c-34.31 3.36-66.79 22.19-86.3 50.68-23.03 32.82-29.12 75.77-20 114.42 7.18 30.51 25.33 58.75 51.56 76.25 34.53 23.5 81.17 26.93 119.28 10.31 25.91-11.2 47.19-32.16 59.5-57.5 17.45-35.77 18.49-78.82 4.36-115.87-11.11-29.12-33.14-54.28-61.55-67.49-20.68-9.84-44.15-13.23-66.85-10.8z"/>
  <path d="m1923.4 372.47c20.79-6.75 43.16-7.56 64.68-4.42 18.18 2.72 36.03 9.17 50.87 20.17 14.54 10.65 25.81 25.39 33.21 41.76 10.4 22.79 13.93 48.13 13.87 73.02v161.98c0.19 5.62-2.72 12.08-8.77 13.17-5.13 0.75-10.66 1.11-15.58-0.77-5.11-2.21-6.625-8.29-6.515-13.36v-159.04c0.02-20.66-2.805-41.74-11.505-60.66-6.53-14.34-16.86-27.12-30.25-35.57-13.75-8.8-30.1-12.84-46.3-13.37-22.24-0.82-44.88 4.14-64.08 15.56-19.24 11.27-34.54 28.64-44.48 48.5-1.25 2.73-3.18 5.36-3.07 8.5v195.07c-0.05 4.19-0.41 8.85-3.38 12.1-2.78 3.07-7.17 3.58-11.07 3.59-4.08-0.01-8.62 0.09-11.98-2.57-3.65-2.84-4.475-7.79-4.515-12.12v-290.27c7.67-4.79 19.495-4.05 24.925 3.77 4.24 6.27 5.03 14.1 5.3 21.46 0.1 10.05 0.01 20.1 0.04 30.15 14.81-26.5 39.53-47.52 68.6-56.65z"/>
  <path d="m2244.7 383.57c31.73-16.93 69.51-21.16 104.55-13.85 29.34 6.01 56.61 22.27 75 46.01 21.17 26.87 30.55 61.45 31.05 95.28-0.12 4.63 0.82 9.66-1.37 13.94-2.49 3.99-7.83 3.84-11.97 3.99h-247.36c0.39 32.74 11.34 66.22 34.35 90.09 21.4 22.62 52.24 34.88 83.09 36.21 29.77 1.39 61.32-4.23 85.41-22.8 13.24-10.06 23.54-23.57 31.03-38.34 8.92 0.47 17.38 7.82 17.84 16.98 0.26 6.52-2.98 12.52-6.2 17.98-9.65 15.5-24.27 27.38-40.37 35.71-29.81 15.51-64.34 20.52-97.6 17.57-32.3-2.88-64.12-15.32-88.29-37.22-25.14-22.42-41.18-54.03-46.75-87.08-6.25-36.52-2.09-75.25 14.38-108.65 13.55-27.79 35.8-51.39 63.21-65.82m-2.67 35.31c-25.61 20.44-41.38 51.49-46.16 83.61h227.31c-0.83-19.94-5.53-39.95-15.33-57.43-8.09-14.53-19.75-27.12-33.88-35.92-14.68-9.22-31.77-14.27-49.01-15.46-29.49-2.27-59.92 6.44-82.93 25.2z"/>
  <path d="m1142.2 380.11c1.46-6.04 8.56-7.415 13.88-7.355h207.93c5.6659 0 11.938-0.55163 16.52 2.735 3.98 2.75 4.88 7.96 4.7 12.47-0.07 6.59-4.79 11.74-8.46 16.75l-197.68 245.6h194.95c5.13 0.09 11.38 0.42 14.62 5.04 2.37 4.01 1.86 9.04 1.25 13.47-1.09 5.24-6.79 7.41-11.56 7.71-2.0437 0.11829-4.0887 0.18114-6.1343 0.215h-216.22c-6.8189 0-13.46-2.155-14.99-8.775-1.03-5.63-1.36-12.01 1.84-17.05 3.11-5.12 6.97-9.73 10.6-14.48l191.16-237.31h-187.56c-4.93-0.09-11.1-0.47-13.94-5.17-2.07-4.25-1.718-10.244-0.91-13.85z"/>
  <path d="m2550.5 489.76c7.59-1.08 15.88-1.52 23.03 1.78 6.62 3.06 10.15 10.39 10.44 17.43 0.42 8.06 0.52 17.32-5.47 23.55-6.24 6.54-16.04 6.46-24.39 5.94-6.92-0.41-13.89-4.09-16.97-10.49-3.25-6.45-2.78-13.96-2.24-20.94 0.78-8.38 7.24-15.8 15.6-17.27z"/>
 </g>
</svg>
