<?xml version="1.0" encoding="UTF-8" standalone="no"?>
<svg
   xmlns:dc="http://purl.org/dc/elements/1.1/"
   xmlns:cc="http://creativecommons.org/ns#"
   xmlns:rdf="http://www.w3.org/1999/02/22-rdf-syntax-ns#"
   xmlns:svg="http://www.w3.org/2000/svg"
   xmlns="http://www.w3.org/2000/svg"
   xmlns:sodipodi="http://sodipodi.sourceforge.net/DTD/sodipodi-0.dtd"
   xmlns:inkscape="http://www.inkscape.org/namespaces/inkscape"
   width="750.146pt"
   height="475.63675pt"
   viewBox="0 0 750.146 475.63675"
   version="1.1"
   id="svg10"
   sodipodi:docname="3e.svg"
   inkscape:version="0.92.0 r15299">
  <metadata
     id="metadata16">
    <rdf:RDF>
      <cc:Work
         rdf:about="">
        <dc:format>image/svg+xml</dc:format>
        <dc:type
           rdf:resource="http://purl.org/dc/dcmitype/StillImage" />
        <dc:title></dc:title>
      </cc:Work>
    </rdf:RDF>
  </metadata>
  <defs
     id="defs14" />
  <sodipodi:namedview
     pagecolor="#ffffff"
     bordercolor="#666666"
     borderopacity="1"
     objecttolerance="10"
     gridtolerance="10"
     guidetolerance="10"
     inkscape:pageopacity="0"
     inkscape:pageshadow="2"
     inkscape:window-width="1920"
     inkscape:window-height="1017"
     id="namedview12"
     showgrid="false"
     fit-margin-top="0"
     fit-margin-left="0"
     fit-margin-right="0"
     fit-margin-bottom="0"
     inkscape:zoom="0.708"
     inkscape:cx="311.10778"
     inkscape:cy="317.05211"
     inkscape:window-x="-8"
     inkscape:window-y="-8"
     inkscape:window-maximized="1"
     inkscape:current-layer="svg10" />
  <g
     id="#e17900ff"
     transform="translate(-124.92669,-261.9456)">
    <path
       d="m 208.27,277.29 c 36.32,-14.33 76.2,-17.52 114.84,-14.07 32.66,3.05 65.31,11.93 93.23,29.54 16.81,10.61 31.77,24.47 42.5,41.28 9.34,14.59 15.45,31.58 15.66,49.03 -0.05,17.66 -2.89,35.69 -11.04,51.53 -6.91,13.63 -17.71,25.1 -30.44,33.47 -15.1,9.96 -32.45,15.96 -50.02,19.8 19.3,4.47 38.3,11.26 55,22.08 13.19,8.51 24.77,19.78 32.61,33.46 8.01,13.81 11.9,29.75 12.42,45.65 0.71,23.17 -3.65,46.79 -14.53,67.4 -13.94,26.84 -38.33,47.01 -65.44,59.7 -39.13,18.33 -83.34,23.92 -126.15,20.45 -35.24,-2.93 -70.48,-12.15 -100.95,-30.47 -20.16,-12.13 -38.04,-28.56 -50.24,-48.79 -1.8,-2.81 -0.37,-6.71 2.61,-8.01 27.02,-15.61 54.06,-31.19 81.07,-46.82 1.99,-1.1 4.05,-2.73 6.48,-2.22 2.21,0.29 3.57,2.22 5.09,3.63 15.62,15.33 37.22,24.14 59.03,24.84 13.88,0.42 28.3,-1.42 40.58,-8.28 10.01,-5.54 17.9,-15.1 20.56,-26.32 3.14,-13.22 0.43,-28.31 -8.94,-38.47 -8.8,-9.53 -21.56,-14.14 -34.05,-16.39 -14.28,-2.4 -28.81,-2.4 -43.24,-2.47 -3.1,0.16 -5.73,-2.77 -5.42,-5.81 0.03,-24.64 -0.03,-49.28 0.03,-73.91 -0.08,-2.83 2.57,-5.34 5.4,-5.1 14.96,-0.12 30.08,-0.33 44.75,-3.6 10.3,-2.39 20.61,-6.89 27.58,-15.12 7.28,-8.53 9.73,-20.28 8.81,-31.24 -0.77,-9.12 -5.54,-17.68 -12.6,-23.43 -9.39,-7.67 -21.42,-11.66 -33.41,-12.59 -18.35,-0.61 -37.97,1.64 -53.29,12.64 -3.18,2.14 -5.85,4.89 -8.66,7.46 -1.78,1.58 -4.54,1.41 -6.47,0.2 -27.7,-15.98 -55.4,-31.96 -83.08,-47.97 -3.35,-1.6 -3.79,-6.32 -1.32,-8.89 17.87,-23.92 43.48,-41.26 71.04,-52.19 z"
       id="path2"
       inkscape:connector-curvature="0"
       style="opacity:1;fill:#e17900" />
  </g>
  <g
     id="#e05206ff"
     transform="translate(-124.92669,-261.9456)">
    <path
       d="m 672.55,318.78 c 36.68,-4.14 74.6,3.07 107.02,20.75 31.36,16.92 57.51,43.27 74.23,74.73 17.41,32.45 24.32,70.27 20.04,106.81 -3.59,31.44 -15.68,61.86 -34.59,87.23 -18.09,24.42 -42.38,44.2 -69.98,56.92 -33.84,15.74 -72.57,20.44 -109.25,13.74 -31.63,-5.71 -61.61,-20.11 -85.92,-41.12 -26.5,-22.75 -46.25,-53.26 -56,-86.8 -11.41,-38.89 -9.41,-81.6 5.78,-119.19 12.89,-32.18 35.24,-60.47 63.5,-80.53 25,-17.87 54.63,-29.18 85.17,-32.54"
       id="path5"
       inkscape:connector-curvature="0"
       style="opacity:1;fill:#e05206"
       sodipodi:nodetypes="cccccccccccc" />
    <path
       d="m 663.89,437.79 c 12.23,-9.62 29.11,-11.32 43.85,-7.56 10,2.55 18.94,8.74 25.04,17.05 7.14,9.6 10.98,21.31 12.52,33.09 -34.76,0 -69.52,0.03 -104.28,-0.02 2.74,-16.06 9.76,-32.29 22.87,-42.56 z"
       id="path7"
       inkscape:connector-curvature="0"
       style="opacity:1;fill:#e05206" />
  </g>
  <path
     style="opacity:1;fill:#ffffff;fill-opacity:1;stroke-width:1"
     d="m 569.81938,111.14716 c -8.68285,-0.0681 -17.36859,0.71358 -25.88671,2.39796 -31.76001,6.30999 -60.32942,26.77923 -76.64942,54.71923 -18.57,33.18 -23.99988,73.94017 -12.62988,110.43018 4.94,15.76999 12.12023,31.0906 22.74023,43.8706 9.62001,11.67 21.89018,21.06 35.43018,27.75 36.81,18.03 81.75021,19.08011 118.97018,1.62011 15.22005,-7.09999 28.7994,-18.03033 38.10938,-32.09033 -15.61995,-9.07999 -31.24935,-18.15997 -46.87937,-27.22998 -9.22,9.86 -22.66128,14.61985 -35.82129,16.08985 -16.77999,1.78 -34.87974,-0.70997 -48.73974,-10.95996 -11.8,-8.50001 -19.00946,-22.1708 -21.43946,-36.32081 56.50001,0.01 113.00003,2.6e-4 169.50001,0.0103 0.54997,-8.77999 0.8505,-17.5789 0.77047,-26.3789 -0.54,-15.02 -3.46042,-29.90045 -7.98045,-44.21045 -5.01,-15.77 -12.7908,-30.80066 -23.8608,-43.18067 -13.73002,-15.70999 -32.35881,-26.88917 -52.50882,-32.15917 -10.8,-2.77875 -21.96084,-4.2704 -33.12451,-4.35791 z m -1.24511,55.2876 c 4.817,0.0335 9.63349,0.6751 14.23974,1.85009 10,2.55001 18.93858,8.73933 25.03857,17.04933 7.14,9.6 10.98003,21.31081 12.52002,33.09081 -34.76,0 -69.51929,0.0295 -104.27929,-0.0205 2.74,-16.06001 9.76061,-32.28957 22.87061,-42.55958 8.40812,-6.61374 19.01294,-9.4839 29.61035,-9.41015 z"
     id="path5-0"
     inkscape:connector-curvature="0" />
</svg>
