<?xml version="1.0" encoding="UTF-8" standalone="no"?>
<!-- Created with Inkscape (http://www.inkscape.org/) -->

<svg
   xmlns:dc="http://purl.org/dc/elements/1.1/"
   xmlns:cc="http://creativecommons.org/ns#"
   xmlns:rdf="http://www.w3.org/1999/02/22-rdf-syntax-ns#"
   xmlns:svg="http://www.w3.org/2000/svg"
   xmlns="http://www.w3.org/2000/svg"
   xmlns:sodipodi="http://sodipodi.sourceforge.net/DTD/sodipodi-0.dtd"
   xmlns:inkscape="http://www.inkscape.org/namespaces/inkscape"
   width="200"
   height="207.63187"
   id="svg2"
   version="1.1"
   inkscape:version="0.91 r13725"
   sodipodi:docname="4music.svg">
  <defs
     id="defs4" />
  <sodipodi:namedview
     id="base"
     pagecolor="#ffffff"
     bordercolor="#666666"
     borderopacity="1.0"
     inkscape:pageopacity="0.0"
     inkscape:pageshadow="2"
     inkscape:zoom="0.25"
     inkscape:cx="-346.84823"
     inkscape:cy="123.90831"
     inkscape:document-units="px"
     inkscape:current-layer="layer1"
     showgrid="false"
     fit-margin-top="0.5"
     fit-margin-left="0.5"
     fit-margin-right="0.5"
     fit-margin-bottom="0.5"
     inkscape:window-width="1920"
     inkscape:window-height="1017"
     inkscape:window-x="-8"
     inkscape:window-y="-8"
     inkscape:window-maximized="1" />
  <metadata
     id="metadata7">
    <rdf:RDF>
      <cc:Work
         rdf:about="">
        <dc:format>image/svg+xml</dc:format>
        <dc:type
           rdf:resource="http://purl.org/dc/dcmitype/StillImage" />
        <dc:title></dc:title>
      </cc:Work>
    </rdf:RDF>
  </metadata>
  <g
     inkscape:label="Layer 1"
     inkscape:groupmode="layer"
     id="layer1"
     transform="translate(-1346.75,-294.96188)">
    <g
       id="g3836"
       transform="matrix(0.52183882,0,0,0.52183882,644.20264,240.08174)">
      <path
         sodipodi:nodetypes="ssccssccssssccssssccssssccsss"
         inkscape:connector-curvature="0"
         id="path3819"
         d="m 1547.875,106.125 c -8.1146,0 -14.6562,6.51045 -14.6562,14.625 l 0,74.11809 c 0,9.70721 -5.6518,16.66316 -15.7008,16.66316 l -61.5493,0 c -8.9539,0 -16.1562,7.20226 -16.1562,16.15625 l 0,73.23214 c 0,9.39959 -7.8132,15.26786 -15.3482,15.26786 l -61.558,0 c -8.6742,0 -15.6563,6.98207 -15.6563,15.65625 l 0,76.59375 c 0,8.67418 6.9821,15.65625 15.6563,15.65625 l 154.7182,0 c 10.5096,0 15.5943,9.90543 15.5943,15.67405 l 0,47.6697 c 0,8.11456 6.5416,14.65625 14.6562,14.65625 l 71.75,0 c 8.1146,0 14.6563,-6.54169 14.6563,-14.65625 l 0,-47.16463 c 0,-11.43967 8.3642,-16.17912 14.6472,-16.17912 l 64.009,0 c 8.6742,0 15.6563,-6.98207 15.6563,-15.65625 l 0,-76.59375 c 0,-8.67418 -6.9821,-15.65625 -15.6563,-15.65625 l -63.7204,0 c -5.9236,0 -14.9358,-5.18729 -14.9358,-14.76265 l 0,-180.67485 c 0,-8.11455 -6.5418,-14.625 -14.6563,-14.625 z"
         style="fill:#db3275;fill-opacity:1;fill-rule:nonzero;stroke:none" />
      <path
         id="path3823"
         d="m 1375.5938,338.8125 c -4.4647,0 -7.5938,1.13157 -7.5938,7.84375 l 0,49.875 c 0,5.59905 4.8731,6.22568 8.3438,6.28125 3.8891,-0.26743 8.3437,-0.59114 8.3437,-6.28125 l 0,-41.03125 12.8437,0 0,41.03125 c 0,5.69923 3.574,6.28125 8.3438,6.28125 5.2268,0 8.375,-0.19024 8.375,-6.28125 l 0,-41.03125 12.4688,0 0,40.25 c 0.056,5.90491 3.7062,7.10919 8.3437,7.0625 5.3931,0 8.4909,-1.22642 8.3437,-7.0625 l 0,-50.875 c 0,-4.52697 -1.5482,-6.0625 -6.75,-6.0625 l -61.0624,0 z"
         style="color:#000000;font-style:normal;font-variant:normal;font-weight:normal;font-stretch:normal;font-size:medium;line-height:normal;font-family:Sans;-inkscape-font-specification:Sans;text-indent:0;text-align:start;text-decoration:none;text-decoration-line:none;letter-spacing:normal;word-spacing:normal;text-transform:none;direction:ltr;block-progression:tb;writing-mode:lr-tb;baseline-shift:baseline;text-anchor:start;display:inline;overflow:visible;visibility:visible;fill:#ffffff;fill-opacity:1;stroke:none;stroke-width:16.70000076;marker:none;enable-background:accumulate"
         inkscape:connector-curvature="0" />
      <path
         style="color:#000000;font-style:normal;font-variant:normal;font-weight:normal;font-stretch:normal;font-size:medium;line-height:normal;font-family:Sans;-inkscape-font-specification:Sans;text-indent:0;text-align:start;text-decoration:none;text-decoration-line:none;letter-spacing:normal;word-spacing:normal;text-transform:none;direction:ltr;block-progression:tb;writing-mode:lr-tb;baseline-shift:baseline;text-anchor:start;display:inline;overflow:visible;visibility:visible;fill:#ffffff;fill-opacity:1;stroke:none;stroke-width:16.70000076;marker:none;enable-background:accumulate"
         d="m 1517.3607,402.57436 c 4.4646,0 7.5861,-1.12649 7.5861,-7.83867 l 0,-51.0165 c 0,-5.59905 -4.8732,-6.24008 -8.3438,-6.29565 -3.8891,0.26743 -8.3437,0.60554 -8.3437,6.29565 l 0,42.16767 -36.2229,0 0,-41.38642 c -0.056,-5.90491 -3.7062,-7.09995 -8.3437,-7.05326 -5.3931,0 -8.4908,1.21718 -8.3438,7.05326 l 0,52.00302 c 0,4.52697 1.5637,6.0709 6.7654,6.0709 z"
         id="path3827"
         inkscape:connector-curvature="0"
         sodipodi:nodetypes="ccccccccccccc" />
      <path
         id="path3829"
         d="m 1622.9063,337.5625 c -4.1012,0.11867 -6.5,0.92037 -6.5,6.25 l 0,7.625 0,38.46875 0,7.625 c 0,5.69923 3.6052,6.28125 8.375,6.28125 5.2267,0 8.3437,-0.19024 8.3437,-6.28125 l 0,-7.625 0,-38.46875 0,-7.625 c 0,-5.69923 -3.5739,-6.25 -8.3437,-6.25 -0.6534,0 -1.2892,-0.017 -1.875,0 z"
         style="color:#000000;font-style:normal;font-variant:normal;font-weight:normal;font-stretch:normal;font-size:medium;line-height:normal;font-family:Sans;-inkscape-font-specification:Sans;text-indent:0;text-align:start;text-decoration:none;text-decoration-line:none;letter-spacing:normal;word-spacing:normal;text-transform:none;direction:ltr;block-progression:tb;writing-mode:lr-tb;baseline-shift:baseline;text-anchor:start;display:inline;overflow:visible;visibility:visible;fill:#ffffff;fill-opacity:1;stroke:none;stroke-width:16.70000076;marker:none;enable-background:accumulate"
         inkscape:connector-curvature="0" />
      <path
         sodipodi:nodetypes="ccccccccccccc"
         inkscape:connector-curvature="0"
         id="path3831"
         d="m 1644.827,395.8253 c 0,5.03285 0.8108,7.58613 7.8386,7.58613 l 51.9004,0 c 5.5991,0 5.9876,-4.99943 6.0431,-8.47001 -0.2674,-3.88916 -0.353,-8.9751 -6.0431,-8.9751 l -42.4202,0 0,-31.17211 41.639,0 c 5.9049,-0.0556 6.658,-3.39057 6.6113,-8.02808 0,-5.39306 -0.7753,-9.05897 -6.6113,-8.91196 l -52.3818,0 c -4.2113,0 -6.576,1.9425 -6.576,6.76539 z"
         style="color:#000000;font-style:normal;font-variant:normal;font-weight:normal;font-stretch:normal;font-size:medium;line-height:normal;font-family:Sans;-inkscape-font-specification:Sans;text-indent:0;text-align:start;text-decoration:none;text-decoration-line:none;letter-spacing:normal;word-spacing:normal;text-transform:none;direction:ltr;block-progression:tb;writing-mode:lr-tb;baseline-shift:baseline;text-anchor:start;display:inline;overflow:visible;visibility:visible;fill:#ffffff;fill-opacity:1;stroke:none;stroke-width:16.70000076;marker:none;enable-background:accumulate" />
      <path
         sodipodi:nodetypes="ccccccccccccscccccc"
         inkscape:connector-curvature="0"
         id="path3833"
         d="m 1545.8061,337.75 c -6.5877,6.6e-4 -8,1.65346 -8,8 l 0,25.27744 c 0,6.3365 1.9805,7.9994 8,8 l 41.5657,0 0,7.71812 -43.7232,0 c -5.3791,0 -6.1567,2.69821 -6.1567,8.25254 0,5.58635 1.1808,8.1894 6.1567,8.1894 l 54.5012,0 c 3.8099,-3.8e-4 5.9796,-2.16148 5.9796,-5.97969 l 0,-26.81172 c -5e-4,-5.38827 -0.9071,-8 -8,-8 l -40.6817,0 0,-8.64609 43.6461,0 c 5.3382,0 5.2413,-4.45957 5.2413,-8 0,-2.59178 -0.06,-8 -5.2413,-8 z"
         style="color:#000000;font-style:normal;font-variant:normal;font-weight:normal;font-stretch:normal;font-size:medium;line-height:normal;font-family:Sans;-inkscape-font-specification:Sans;text-indent:0;text-align:start;text-decoration:none;text-decoration-line:none;letter-spacing:normal;word-spacing:normal;text-transform:none;direction:ltr;block-progression:tb;writing-mode:lr-tb;baseline-shift:baseline;text-anchor:start;display:inline;overflow:visible;visibility:visible;fill:#ffffff;fill-opacity:1;stroke:none;stroke-width:16;marker:none;enable-background:accumulate" />
    </g>
  </g>
</svg>
