<?xml version="1.0" encoding="UTF-8" standalone="no"?>
<!-- Created with Inkscape (http://www.inkscape.org/) -->

<svg
   xmlns:dc="http://purl.org/dc/elements/1.1/"
   xmlns:cc="http://creativecommons.org/ns#"
   xmlns:rdf="http://www.w3.org/1999/02/22-rdf-syntax-ns#"
   xmlns:svg="http://www.w3.org/2000/svg"
   xmlns="http://www.w3.org/2000/svg"
   xmlns:sodipodi="http://sodipodi.sourceforge.net/DTD/sodipodi-0.dtd"
   xmlns:inkscape="http://www.inkscape.org/namespaces/inkscape"
   width="10.057553mm"
   height="9.0882978mm"
   viewBox="0 0 35.637 32.20263"
   id="svg10574"
   version="1.1"
   inkscape:version="0.91 r13725"
   sodipodi:docname="4seven HD - Dark.svg">
  <defs
     id="defs10576">
    <clipPath
       clipPathUnits="userSpaceOnUse"
       id="clipPath2722">
      <path
         d="m 782.495,378.272 33.511,0 0,30.923 -33.511,0 0,-30.923 z"
         id="path2724"
         inkscape:connector-curvature="0" />
    </clipPath>
  </defs>
  <sodipodi:namedview
     id="base"
     pagecolor="#ffffff"
     bordercolor="#666666"
     borderopacity="1.0"
     inkscape:pageopacity="0.0"
     inkscape:pageshadow="2"
     inkscape:zoom="22.4"
     inkscape:cx="18.101395"
     inkscape:cy="15.455178"
     inkscape:document-units="px"
     inkscape:current-layer="layer1"
     showgrid="false"
     fit-margin-top="0"
     fit-margin-left="0"
     fit-margin-right="0"
     fit-margin-bottom="0"
     inkscape:window-width="1920"
     inkscape:window-height="1017"
     inkscape:window-x="-8"
     inkscape:window-y="-8"
     inkscape:window-maximized="1" />
  <metadata
     id="metadata10579">
    <rdf:RDF>
      <cc:Work
         rdf:about="">
        <dc:format>image/svg+xml</dc:format>
        <dc:type
           rdf:resource="http://purl.org/dc/dcmitype/StillImage" />
        <dc:title></dc:title>
      </cc:Work>
    </rdf:RDF>
  </metadata>
  <g
     inkscape:label="Layer 1"
     inkscape:groupmode="layer"
     id="layer1"
     transform="translate(-445.03864,-619.11803)">
    <path
       inkscape:connector-curvature="0"
       id="path2704"
       style="fill:#68c8c4;fill-opacity:1;fill-rule:nonzero;stroke:none"
       d="m 462.59864,639.67053 5.255,0.98 -5.95875,10.67 3.205,0 5.7,-10.12875 0,-2.7525 -8.20125,-2.1275 0,3.35875 z" />
    <g
       id="g2706"
       transform="matrix(1.25,0,0,-1.25,451.45576,651.32066)">
      <path
         d="m 0,0 0.517,0 0,2.37 L 0,2.477 0,0 Z"
         style="fill:#443c3a;fill-opacity:1;fill-rule:nonzero;stroke:none"
         id="path2708"
         inkscape:connector-curvature="0" />
    </g>
    <g
       id="g2710"
       transform="matrix(1.25,0,0,-1.25,462.59864,639.67053)">
      <path
         d="m 0,0 -3.058,-0.358 0,2.617 L 0,2.687 3.657,1.738 l 0,7.929 -0.641,0.578 0.389,0.658 -7.105,5.539 -2.036,-3.584 0,2.361 -0.683,0.239 0,-12.812 -1.914,-0.236 -0.007,8.278 -0.555,0.19 0,-3.706 -3.008,-5.312 -1.868,-0.252 2.877,-0.353 4.475,0.571 0,-2.539 -7.629,-0.829 5.715,-0.483 0,0.385 1.914,0.165 0,-7.845 0.683,0 0,20.829 1.993,3.421 0,-24.25 0.774,0 4.798,8.18 2.375,0.356 L 0,0 Z"
         style="fill:#443c3a;fill-opacity:1;fill-rule:nonzero;stroke:none"
         id="path2712"
         inkscape:connector-curvature="0" />
    </g>
    <g
       id="g2714"
       transform="matrix(1.25,0,0,-1.25,474.69954,635.45778)">
      <path
         d="m 0,0 -1.176,0 0,2.247 -1.946,0 0,-2.247 -1.176,0 0,5.414 1.176,0 0,-2.137 1.946,0 0,2.137 L 0,5.414 0,0 Z"
         style="fill:#443c3a;fill-opacity:1;fill-rule:nonzero;stroke:none"
         id="path2716"
         inkscape:connector-curvature="0" />
    </g>
    <g
       transform="matrix(1.25,0,0,-1.25,-536.23236,1128.1733)"
       id="g2718">
      <g
         id="g2720"
         clip-path="url(#clipPath2722)">
        <g
           id="g2726"
           transform="translate(810.4334,395.2024)">
          <path
             d="m 0,0 1.148,0 c 0.285,0 0.475,0.102 0.579,0.311 0.066,0.141 0.146,0.496 0.146,1.37 0,0.697 -0.049,1.156 -0.147,1.365 C 1.623,3.252 1.433,3.354 1.148,3.354 L 0,3.354 0,0 Z m 1.083,-1.03 -2.259,0 0,5.414 2.259,0 c 0.373,0 0.998,0 1.424,-0.434 C 2.811,3.646 3.093,3.16 3.093,1.681 3.093,0.195 2.811,-0.292 2.506,-0.596 2.081,-1.03 1.456,-1.03 1.083,-1.03"
             style="fill:#443c3a;fill-opacity:1;fill-rule:nonzero;stroke:none"
             id="path2728"
             inkscape:connector-curvature="0" />
        </g>
      </g>
    </g>
  </g>
</svg>
