<svg height="9.088298mm" viewBox="0 0 35.637 32.20263" width="10.057553mm" xmlns="http://www.w3.org/2000/svg" xmlns:xlink="http://www.w3.org/1999/xlink"><clipPath id="a"><path d="m782.495 378.272h33.511v30.923h-33.511z"/></clipPath><g transform="translate(-445.03864 -619.11803)"><path d="m462.59864 639.67053 5.255.98-5.95875 10.67h3.205l5.7-10.12875v-2.7525l-8.20125-2.1275z" fill="#68c8c4"/><g fill="#fff"><path d="m0 0h .517v2.37l-.517.107z" transform="matrix(1.25 0 0 -1.25 451.45576 651.32066)"/><path d="m0 0-3.058-.358v2.617l3.058.428 3.657-.949v7.929l-.641.578.389.658-7.105 5.539-2.036-3.584v2.361l-.683.239v-12.812l-1.914-.236-.007 8.278-.555.19v-3.706l-3.008-5.312-1.868-.252 2.877-.353 4.475.571v-2.539l-7.629-.829 5.715-.483v.385l1.914.165v-7.845h.683v20.829l1.993 3.421v-24.25h.774l4.798 8.18 2.375.356z" transform="matrix(1.25 0 0 -1.25 462.59864 639.67053)"/><path d="m0 0h-1.176v2.247h-1.946v-2.247h-1.176v5.414h1.176v-2.137h1.946v2.137h1.176z" transform="matrix(1.25 0 0 -1.25 474.69954 635.45778)"/><g clip-path="url(#a)" transform="matrix(1.25 0 0 -1.25 -536.23236 1128.1733)"><g fill="#fff" transform="translate(810.4334 395.2024)"><path d="m0 0h1.148c.285 0 .475.102.579.311.066.141.146.496.146 1.37 0 .697-.049 1.156-.147 1.365-.103.206-.293.308-.578.308h-1.148zm1.083-1.03h-2.259v5.414h2.259c.373 0 .998 0 1.424-.434.304-.304.586-.79.586-2.269 0-1.486-.282-1.973-.587-2.277-.425-.434-1.05-.434-1.423-.434" fill="#fff"/></g></g></g></g></svg>