<svg height="180.8" viewBox="0 0 158.75 47.835888" width="600" xmlns="http://www.w3.org/2000/svg"><g fill="#06c38b"><g stroke-width=".85985"><path d="m28.411.38419h-11.694l-2.977 9.0224h14.672c.68889 0 1.2501-.55783 1.2501-1.25v-6.5226c0-.68889-.56119-1.25-1.2501-1.25"/><path d="m9.9929 31.618c0-.68888-.55783-1.25-1.2501-1.25h-7.497c-.68888 0-1.2467.5612-1.2467 1.25 0 8.7206 6.8754 15.831 15.501 16.218v-10.041c-3.091-.367-5.5072-2.991-5.5072-6.177"/><path d="m15.169.38333h-8.9147c-.54103 0-1.0182.34612-1.1862.86028l-4.1804 12.662h9.8223z"/><path d="m6.5621 24.407h9.6716c5.1549 0 9.6811 2.7522 12.182 6.8653 0 0 2.3691 3.5856 2.0397 8.196 0 0 2.0263-3.2126 2.0263-7.8499 0-8.9691-7.2719-16.241-16.241-16.241h-15.472l3.8006 7.7827s.53094 1.2467 1.9927 1.2467"/><path d="m28.437 34.899c1.6634 5.8202-2.2716 9.3921-2.2716 9.3921s-2.9942 3.2025-9.1978 3.5385v-10.037c3.0916-.36293 5.4909-2.9874 5.4909-6.1765 0-2.275-1.2266-4.261-3.0546-5.343 0 0 6.7376 1.3811 9.0327 8.626"/><path d="m107.69 28.673-10.617-28.079-3.4478 9.1299 2.9202 7.7289h-5.8404l-2.2784 6.0386h10.407l2.2044 5.8102c.13105.34613.46037.57463.83002.57463h4.9902c.62167 0 1.0484-.62167.83002-1.203"/><path d="m64.826 1.2896v4.4189c0 .49063.39989.89055.89055.89055h5.9446v22.414c0 .49062.39652.89055.89054.89055h4.876c.49062 0 .89054-.39989.89054-.89055l.004-22.414h5.6623l2.3153-6.2h-20.582c-.49063 0-.89055.39989-.89055.89054"/><path d="m126.76 13.007h-6.2403v-6.5765h6.2403c1.7273 0 3.2024 1.4349 3.2024 3.2025 0 1.771-1.4752 3.3739-3.2024 3.3739m3.4982 4.9734c3.6696-1.4752 6.2403-4.5937 6.2403-8.4716 0-5.017-4.1333-9.1067-9.1909-9.1067l-12.514-.003c-.49398 0-.89046.39989-.89046.89055v27.716c0 .49063.39652.89055.89046.89055h4.839c.49061 0 .8871-.39989.8871-.89055v-10.646h2.9101l5.5514 11.059c.15121.30243.46037.49063.79642.49063h5.4237c.67208 0 1.1022-.71913.78297-1.3106z"/><path d="m50.956 11.987c-3.3234-1.3476-4.5836-2.5237-4.5836-4.0796 0-1.1359 1.1359-2.1406 2.648-2.144 2.3556-.0101 5.1044 1.9222 6.0286 2.5304.40997.2621.951.14786 1.2198-.2554l2.396-3.6124c.26884-.40325.16803-.94764-.2285-1.2232-1.539-1.1997-5.007-3.2327-9.08-3.2025-6.4755.0504-9.7146 4.2072-9.7146 8.3708 0 5.0473 4.5433 7.8633 8.1591 9.295 2.8597 1.1359 4.3349 2.48 4.3349 4.2476 0 1.4719-1.2199 2.5237-2.9034 2.5237-2.8429 0-5.9715-2.3389-6.1395-2.4229-.43013-.27891-1.0081-.13441-1.2568.31252l-2.0028 3.5687c-.19491.34613-.13778.77626.14114 1.0586.99132 1.0081 3.9317 3.3268 9.5504 3.3268 6.1832 0 9.927-4.3719 9.927-8.7034 0-5.7194-5.2153-8.2868-8.4952-9.5908"/></g><path d="m158.48 0h-6.8907l-.27002.27002v3.2326l.27002.27001h3.388v15.025l.26715.27001h3.2359l.27001-.27001v-18.529z" stroke-width=".83151"/><path d="m151.21 11.525h-3.827l-.22597.22596v3.827l-.22596.22596h-2.2531l-.22309-.22596v-3.827l-.22596-.22596h-3.8304l-.2231-.22597v-2.2499l.2231-.22596h3.8304l.22596-.22598v-3.827l.22309-.22596h2.2531l.22596.22596v3.8271l.22597.22598h3.827l.22596.22596v2.2496z" stroke-width=".83151"/></g></svg>