<?xml version="1.0" encoding="UTF-8" standalone="no"?>
<!-- Created with Inkscape (http://www.inkscape.org/) -->

<svg
   xmlns:dc="http://purl.org/dc/elements/1.1/"
   xmlns:cc="http://creativecommons.org/ns#"
   xmlns:rdf="http://www.w3.org/1999/02/22-rdf-syntax-ns#"
   xmlns:svg="http://www.w3.org/2000/svg"
   xmlns="http://www.w3.org/2000/svg"
   xmlns:sodipodi="http://sodipodi.sourceforge.net/DTD/sodipodi-0.dtd"
   xmlns:inkscape="http://www.inkscape.org/namespaces/inkscape"
   height="236.42"
   width="600"
   version="1.1"
   id="svg12"
   sodipodi:docname="ABNTV - Dark.svg"
   inkscape:version="0.92.0 r15299">
  <defs
     id="defs16" />
  <sodipodi:namedview
     pagecolor="#ffffff"
     bordercolor="#666666"
     borderopacity="1"
     objecttolerance="10"
     gridtolerance="10"
     guidetolerance="10"
     inkscape:pageopacity="0"
     inkscape:pageshadow="2"
     inkscape:window-width="1920"
     inkscape:window-height="1017"
     id="namedview14"
     showgrid="false"
     inkscape:zoom="0.47333333"
     inkscape:cx="300"
     inkscape:cy="118.21"
     inkscape:window-x="-8"
     inkscape:window-y="-8"
     inkscape:window-maximized="1"
     inkscape:current-layer="svg12" />
  <metadata
     id="metadata2">
    <rdf:RDF>
      <cc:Work
         rdf:about="">
        <dc:format>image/svg+xml</dc:format>
        <dc:type
           rdf:resource="http://purl.org/dc/dcmitype/StillImage" />
        <dc:title></dc:title>
      </cc:Work>
    </rdf:RDF>
  </metadata>
  <path
     d="m 525.28944,0.00453 c -41.265,0 -74.71,33.45 -74.71,74.712 0,41.259 33.445,74.71 74.71,74.71 41.265,0 74.71,-33.45 74.71,-74.71 0,-41.262 -33.445,-74.712 -74.71,-74.712 m 34.333,110.39 h -19.445 l -16.521,-43.733 h -18.016 v 43.733 h -17.944 v -43.733 h -18.304 v -14.336 h 48.85 5.6928 13.065 l 13.07,41.792 12.905,-41.792 h 18.216 l -21.566,58.068 z"
     id="path4"
     inkscape:connector-curvature="0"
     style="fill:#fbc707;fill-rule:nonzero" />
  <path
     d="m 437.29944,74.71453 c 0,-1.5458 0.0426,-3.0782 0.11993,-4.6054 -6.9241,-2.0148 -14.57,-3.0329 -22.963,-3.0329 -11.29,0 -21.252,1.8283 -29.884,5.4822 -8.6298,3.6486 -15.884,8.7444 -21.748,15.271 -5.8687,6.5323 -10.295,14.28 -13.283,23.243 -0.83153,2.5026 -1.5245,5.0771 -2.1268,7.6943 -0.54636,-1.3726 -1.1327,-2.7211 -1.7563,-4.0404 -4.9812,-10.514 -11.569,-19.312 -19.759,-26.398 -8.1927,-7.0813 -17.379,-12.396 -27.558,-15.94 -10.186,-3.5393 -20.591,-5.3116 -31.214,-5.3116 -6.4257,0 -11.737,0.38911 -15.938,1.162 -4.2109,0.77556 -7.5291,1.719 -9.9623,2.8224 v 49.145 c 1.9909,-1.106 4.7573,-2.1614 8.2993,-3.1555 3.5393,-0.99411 8.19,-1.4952 13.949,-1.4952 5.0878,0 9.8451,0.88749 14.275,2.6545 4.4295,1.775 8.3046,4.2696 11.623,7.4731 3.3208,3.2115 5.9193,7.0307 7.8036,11.455 1.8763,4.4322 2.8251,9.2987 2.8251,14.61 0,5.3116 -0.94879,10.186 -2.8251,14.61 -1.8843,4.4322 -4.4828,8.2513 -7.8036,11.457 -3.3181,3.2088 -7.1932,5.7008 -11.623,7.4704 -4.4295,1.7723 -9.1868,2.6545 -14.275,2.6545 -12.62,0 -22.033,-3.9817 -28.224,-11.953 -6.2018,-7.9662 -9.3014,-18.264 -9.3014,-30.881 v -145.1 h -53.127 v 111.3 c -4.8612,-9.6159 -11.386,-17.723 -19.605,-24.304 -8.302,-6.6416 -17.987,-11.62 -29.056,-14.941 -11.071,-3.3208 -22.907,-4.9812 -35.528998,-4.9812 -12.843,0 -24.685,2.1561 -35.529,6.4763 -10.847,4.3176 -20.202,10.293 -28.061,17.928 -7.8595,7.6383 -14,16.601 -18.424,26.897 -15.97,37.16 -2.4786,88.846 34.466,108.31 9.4266,4.9652 21.982,8.6671 32.675,9.1015 16.444,0.67162 36.130998,-0.97811 49.925998,-10.871 3.1955,-2.292 11.415,-9.0855 11.415,-13.478 v 20.999 h 45.177 v -40.561 c 0.0666,0.12792 0.11993,0.25852 0.18389,0.38378 5.0904,9.7465 11.895,17.878 20.42,24.405 8.5178,6.535 18.315,11.46 29.389,14.778 11.063,3.3208 22.465,4.9812 34.202,4.9812 12.833,0 24.679,-2.1588 35.529,-6.4763 10.845,-4.3149 20.194,-10.293 28.053,-17.931 7.0866,-6.8894 12.705,-14.917 17.001,-23.962 v 44.383 h 51.139 v -92.308 c 0,-7.0813 1.5991,-12.62 4.8159,-16.604 3.2062,-3.9844 7.689,-5.9779 13.446,-5.9779 5.7541,0 10.237,1.9935 13.448,5.9779 3.2088,3.9844 4.8159,9.5226 4.8159,16.604 v 92.308 h 51.136 v -80.12 c -27.7,-14.82 -46.57,-44.04 -46.57,-77.58 m -346.709998,119.87 c -22.433,0 -40.617,-18.187 -40.617,-40.617 0,-22.433 18.184,-40.617 40.617,-40.617 22.429998,0 40.616998,18.184 40.616998,40.617 0,22.43 -18.187,40.617 -40.616998,40.617"
     id="path6"
     inkscape:connector-curvature="0"
     style="fill:#29528d;fill-rule:nonzero" />
</svg>
