<?xml version="1.0" encoding="UTF-8"?>
<svg id="svg2" width="1240pt" height="510pt" version="1.1" viewBox="0 0 1240 510" xmlns="http://www.w3.org/2000/svg" xmlns:cc="http://creativecommons.org/ns#" xmlns:dc="http://purl.org/dc/elements/1.1/" xmlns:rdf="http://www.w3.org/1999/02/22-rdf-syntax-ns#">
 <metadata id="metadata34">
  <rdf:RDF>
   <cc:Work rdf:about="">
    <dc:format>image/svg+xml</dc:format>
    <dc:type rdf:resource="http://purl.org/dc/dcmitype/StillImage"/>
    <dc:title/>
   </cc:Work>
  </rdf:RDF>
 </metadata>
 <g id="#f99f00ff" fill="#f99f00">
  <path id="path5" d="m572.5 0h99.27c0.53 14.65 0.08 29.34 0.23 44-0.01 44.01 0.02 88.02-0.01 132.03-0.07 4.41 2.05 8.69 5.08 11.8 4.78 4.4 11.61 5.55 17.9 5.21 6.45 0.35 13.52-1.08 18.13-5.91 2.5-3.15 4.6-6.98 4.41-11.13-0.03-55.33 0-110.66-0.02-165.99 0-3.33-0.12-6.68 0.23-10.01h99.28c-0.01 62.01 0.02 124.03-0.02 186.04-2.48 26.92-15.33 53.23-36.42 70.42-13.46 11.08-29.81 18.23-46.74 22.05-16.67 3.83-33.9 4.58-50.93 3.76-17.64-1.06-35.31-4.5-51.46-11.84-16.06-7.42-30.5-18.74-40.46-33.45-10.32-14.71-16.52-32.2-18.43-50.02-0.1-62.32-0.01-124.64-0.04-186.96z"/>
  <path id="path7" d="m1081.8 0h158.15v87.5h-75.5v194.5h-103.5c0-64.83 0.01-129.67 0-194.5-25.5 0-51 0.01-76.5 0-0.01-29 0-58 0-87 28.83-0.01 57.65 0 86.48 0 3.62-0.04 7.29 0.29 10.87-0.5z"/>
  <path id="path9" d="m90.22 0.45c32.17 0.23 64.36-0.22 96.53 0.23 3.81 13.82 8.11 27.51 12.14 41.27 23.7 80.2 47.7 160.31 71.27 240.54-36.05 0.04-72.11-0.02-108.16 0.03-1.12-0.09-2.89 0.3-3.02-1.33-2.07-7.05-3.95-14.17-6.14-21.19h-50.48c-2.02 7.48-3.97 14.98-5.87 22.49-32.16 0.04-64.33 0-96.49 0.02v-1.22c30.16-93.59 60.27-187.19 90.22-280.84m24.64 205.04c8.75 0.01 17.5 0.02 26.26-0.01-3.78-19.5-7.95-38.94-11.95-58.41-5.01 19.4-9.6 38.93-14.31 58.42z"/>
  <path id="path11" d="m291.5 0.5c40.52-0.01 81.03 0.01 121.55-0.01 4.46 0.25 8.91 0.75 13.37 1.13 32.58 4.22 65.19 17.05 88.02 41.31 13.43 14.16 22.95 31.81 28.12 50.59 6.31 22.68 7.21 46.58 4.81 69.9-2.54 20.42-8.57 40.76-20 58.03-11.52 18.12-28.3 32.68-47.42 42.33-20.53 10.87-43.51 16.5-66.53 18.64-40.64 0.18-81.29 0.05-121.93 0.07 0.02-94 0-187.99 0.01-281.99m96.01 90.42c-0.02 34.37 0 68.74-0.01 103.12 16.34-2.34 32.91-7.15 46.07-17.5 10.51-8.13 17.36-21.16 16.95-34.56 0.5-11.77-4.42-23.56-13.03-31.57-13.58-12.31-32.03-17.93-49.98-19.49z"/>
  <path id="path13" d="m850.5 0.5c32.17-0.01 64.33 0 96.5 0v191.99c25.66 0.01 51.32 0.01 76.99 0-0.01 30.02 0.07 60.03-0.04 90.05-57.82-0.1-115.64 0.01-173.46-0.05 0.02-94 0-187.99 0.01-281.99z"/>
 </g>
 <g id="#ef731dff" fill="#ef731d">
  <path id="path16" d="m50.25 336.26c12.24-6.23 25.96-9.9 39.73-9.77 22.86-0.9 45.73 7.82 62.82 22.91 2.58 2.32 5.66 4.52 6.67 8.02 1.32 3.56 0.31 7.87-2.52 10.4-2.22 1.46-4.84 2.17-7.23 3.29-3.24-1.14-6.79-2.02-9.33-4.46-9.74-9.42-22.39-15.55-35.62-18.16-6.48-1.44-13.15-1-19.73-0.91-13.29 1.3-26.17 6.52-36.69 14.73-14.34 11.01-24.03 27.82-26.51 45.72-2.57 16.21 1.25 33.23 9.82 47.16 9.36 15.26 24.7 26.7 42.03 31.23 23.66 6.59 50.57-0.53 67.79-18.08 4.27-4.65 13.99-4.88 16.33 1.76 0.76 1.68 1.47 3.37 2.24 5.05-1.24 2.96-2 6.28-4.19 8.73-13.3 12.98-30.61 21.81-48.98 24.7-1.91 0.31-3.96 0.28-5.63 1.42h-18.81c-2.75-1.18-5.73-1.46-8.64-1.97-33.24-6.25-61.53-32.7-70.37-65.29-1.95-6.62-2.65-13.5-3.43-20.32v-8.88c0.93-9.65 2.52-19.32 6.12-28.37 8.1-20.94 24.06-38.8 44.13-48.91z"/>
  <path id="path18" d="m466.56 328.74c7.32-4.5 19.23-2.78 22.73 5.81 23.7 49.07 47.16 98.25 70.79 147.35 2.19 6.1 7.44 11.56 6.38 18.44-1.01 3.33-3.55 6.16-6.66 7.67-5 1.86-10.93-0.63-13.23-5.42-7.86-16.62-16.08-33.09-23.89-49.73-1.45-0.68-3.13-0.26-4.66-0.38-29.9 0.15-59.82-0.2-89.71 0.18-7.71 16.77-16.06 33.24-23.93 49.94-1.87 3.88-6.13 6.44-10.46 5.94-7.05-0.23-11.78-8.74-8.58-14.95 24.33-50.84 48.76-101.65 73.11-152.48 2.45-4.24 3.57-9.75 8.11-12.37m-28.05 103.23c24.65 0.07 49.3 0.01 73.95 0.03-1.3-3.34-2.96-6.52-4.57-9.72-10.9-22.29-21.4-44.77-32.52-66.96-12.17 25.61-24.74 51.03-36.86 76.65z"/>
  <path id="path20" d="m186.98 338.02c-0.34-5.12 4.15-9.92 9.18-10.44 5.96-0.87 11.75 4.19 11.79 10.21 0.13 21.23 0.01 42.47 0.05 63.7 47.16 0.01 94.33 0 141.49 0.01 0.01-21.16 0.02-42.33-0.01-63.49-0.33-6.7 7.19-12.42 13.53-9.98 4.34 1.17 7.4 5.47 7.5 9.9-0.01 53.37-0.01 106.74 0 160.11 0.11 5.56-4.92 10.68-10.51 10.51-5.15 0.06-10.48-4.13-10.51-9.5 0.02-25.68 0.01-51.37 0-77.05h-141.49c-0.01 25.36 0.01 50.73-0.01 76.09-0.01 5.36-4.49 10.3-9.92 10.47-5.3 0.29-11.1-3.83-11.07-9.47-0.02-53.69 0.03-107.38-0.02-161.07z"/>
  <path id="path22" d="m580.49 338.02c-0.26-6.72 7.05-12.16 13.42-10.19 4.55 1.43 7.45 5.43 10.77 8.59 4.53 4.38 8.75 9.09 13.57 13.17 11.84 11.51 23.21 23.53 35.21 34.88 11.01 10.37 21.46 21.34 32.23 31.97 15.11 13.82 28.78 29.17 43.96 42.91 4.42 4.47 8.86 8.92 13.35 13.34 0-44.56 0.02-89.13-0.02-133.69-0.18-3.9 1.7-7.92 5.09-9.97 6.47-4.45 16.36 1.08 15.94 8.91-0.05 53.75 0.06 107.51-0.06 161.27-0.23 6.63-8.01 11.16-13.99 8.7-4.14-1.44-6.75-5.19-9.84-8.07-5.92-5.73-11.44-11.9-17.75-17.21-10.17-10.16-20.35-20.32-30.5-30.51-12.29-11.35-23.81-23.51-35.72-35.26-13.58-12.41-26.15-25.91-39.36-38.73-5.42-4.59-10.09-9.96-15.26-14.8-0.05 43.55-0.02 87.11-0.02 130.67-0.09 2.85 0.45 5.93-1.02 8.55-1.73 4.34-6.84 6.6-11.31 5.88-4.82-0.86-8.75-5.39-8.68-10.33 0-53.36 0-106.72-0.01-160.08z"/>
  <path id="path24" d="m807.47 328.4c3.66-1.73 8.19-0.97 11.24 1.63 5.19 4.88 9.86 10.31 15.38 14.84 13 12.66 25.44 25.91 38.75 38.23 7.83 7.87 15.7 15.7 23.55 23.56 3.35 3.29 6.51 6.8 10.23 9.72 10.86 10.79 21.66 21.64 32.49 32.47 8.52 7.52 16.14 15.98 24.37 23.82 0.04-44.56 0.02-89.12 0.01-133.68-0.03-4.38 2.25-9.1 6.57-10.64 6.02-2.89 14.44 1.79 14.45 8.65-0.02 54.02-0.01 108.05 0 162.07-0.02 5.44-5.27 9.68-10.54 9.48-4.86 0.09-8.49-3.61-11.58-6.88-8.61-8.43-16.81-17.28-25.78-25.31-9.97-10.04-20.02-20-29.99-30.03-12.38-11.24-23.83-23.5-35.76-35.22-11.28-10.35-21.79-21.5-32.71-32.23-5.14-5.44-11.01-10.11-16.15-15.57v130.7c-0.11 3.18 0.59 6.68-1.29 9.5-3.22 5.89-12.54 6.83-16.84 1.67-2.55-2.71-3.01-6.63-2.89-10.18 0.05-52.02 0-104.04 0.02-156.05-0.09-4.37 2.18-9 6.47-10.55z"/>
  <path id="path26" d="m1149.8 328.84c5.95-3.84 15.38 0.77 15.21 8.06v150.1c21.66-0.01 43.33 0.03 64.99-0.02 4.88-0.39 9.19 3.69 10.01 8.35v3.37c-0.84 4.63-5.11 8.69-9.97 8.32-25.37-0.05-50.74 0-76.11-0.02-4.8 0.25-9.37-4.22-9.42-8.97-0.02-53.36 0.04-106.72-0.03-160.07-0.42-3.81 1.91-7.52 5.32-9.12z"/>
  <path id="path28" d="m1021.5 340.13c-0.11-5.3 3.76-10.74 9.29-11.09 25.4-0.11 50.81 0.01 76.22-0.06 5.52-0.49 10.74 4.54 10.51 10.06 0.13 3.76-2.24 7.23-5.37 9.13-2.56 1.16-5.4 1.46-8.17 1.35-20.5-0.04-41.01-0.01-61.51-0.02v52c12.85 0 25.7-0.01 38.55-0.01 4.55 0.07 9.09 3.02 10.36 7.52 1.84 6.51-3.56 13.67-10.42 13.01-12.83-0.04-25.66-0.01-38.48-0.02-0.01 21.67-0.01 43.33 0 65 20.83-0.01 41.67 0.02 62.51-0.01 2.35 0.06 4.93-0.4 7.03 0.98 4.63 2.16 6.74 8.12 4.82 12.81-1.4 3.53-5.01 6.36-8.89 6.23-26-0.06-52.01 0.06-78.01-0.06-5.99-0.86-9.06-7.44-8.5-12.98 0.08-51.28-0.03-102.56 0.06-153.84z"/>
 </g>
</svg>
