<?xml version="1.0" encoding="UTF-8" standalone="no"?>
<!-- Created with Inkscape (http://www.inkscape.org/) -->

<svg
   xmlns:dc="http://purl.org/dc/elements/1.1/"
   xmlns:cc="http://creativecommons.org/ns#"
   xmlns:rdf="http://www.w3.org/1999/02/22-rdf-syntax-ns#"
   xmlns:svg="http://www.w3.org/2000/svg"
   xmlns="http://www.w3.org/2000/svg"
   xmlns:sodipodi="http://sodipodi.sourceforge.net/DTD/sodipodi-0.dtd"
   xmlns:inkscape="http://www.inkscape.org/namespaces/inkscape"
   width="45.877647mm"
   height="22.847874mm"
   viewBox="0 0 162.55859 80.957032"
   id="svg2"
   version="1.1"
   inkscape:version="0.91 r13725"
   sodipodi:docname="Adult Section - Dark.svg">
  <defs
     id="defs4" />
  <sodipodi:namedview
     id="base"
     pagecolor="#ffffff"
     bordercolor="#666666"
     borderopacity="1.0"
     inkscape:pageopacity="0.0"
     inkscape:pageshadow="2"
     inkscape:zoom="1.4"
     inkscape:cx="-13.914376"
     inkscape:cy="65.712643"
     inkscape:document-units="px"
     inkscape:current-layer="layer1"
     showgrid="false"
     fit-margin-top="0"
     fit-margin-left="0"
     fit-margin-right="0"
     fit-margin-bottom="0"
     inkscape:window-width="1920"
     inkscape:window-height="1017"
     inkscape:window-x="-8"
     inkscape:window-y="-8"
     inkscape:window-maximized="1" />
  <metadata
     id="metadata7">
    <rdf:RDF>
      <cc:Work
         rdf:about="">
        <dc:format>image/svg+xml</dc:format>
        <dc:type
           rdf:resource="http://purl.org/dc/dcmitype/StillImage" />
        <dc:title></dc:title>
      </cc:Work>
    </rdf:RDF>
  </metadata>
  <g
     inkscape:label="Layer 1"
     inkscape:groupmode="layer"
     id="layer1"
     transform="translate(-282.8598,-300.4121)">
    <g
       style="font-style:normal;font-weight:normal;font-size:40px;line-height:125%;font-family:sans-serif;letter-spacing:0px;word-spacing:0px;fill:#000000;fill-opacity:1;stroke:none;stroke-width:1px;stroke-linecap:butt;stroke-linejoin:miter;stroke-opacity:1"
       id="flowRoot4136"
       transform="translate(15.714286,98.571429)">
      <path
         d="m 309.43066,226.91879 -11.75781,0 -1.85547,5.3125 -7.55859,0 10.80078,-29.16015 8.96484,0 10.80079,29.16015 -7.5586,0 -1.83594,-5.3125 z m -9.88281,-5.41015 7.98828,0 -3.98437,-11.60156 -4.00391,11.60156 z"
         style="text-align:center;text-anchor:middle"
         id="path4151"
         inkscape:connector-curvature="0" />
      <path
         d="m 337.24316,213.55942 0,-11.71875 7.03125,0 0,30.39062 -7.03125,0 0,-3.16406 q -1.44531,1.9336 -3.18359,2.83203 -1.73828,0.89844 -4.02344,0.89844 -4.04297,0 -6.64062,-3.20312 -2.59766,-3.22266 -2.59766,-8.28125 0,-5.0586 2.59766,-8.26172 2.59765,-3.22266 6.64062,-3.22266 2.26563,0 4.00391,0.91797 1.75781,0.89844 3.20312,2.8125 z m -4.60937,14.16016 q 2.24609,0 3.41797,-1.64063 1.1914,-1.64062 1.1914,-4.76562 0,-3.125 -1.1914,-4.76563 -1.17188,-1.64062 -3.41797,-1.64062 -2.22656,0 -3.41797,1.64062 -1.17187,1.64063 -1.17187,4.76563 0,3.125 1.17187,4.76562 1.19141,1.64063 3.41797,1.64063 z"
         style="text-align:center;text-anchor:middle"
         id="path4153"
         inkscape:connector-curvature="0" />
      <path
         d="m 350.79785,223.71567 0,-13.35938 7.03125,0 0,2.1875 q 0,1.77735 -0.0195,4.47266 -0.0195,2.67578 -0.0195,3.57422 0,2.63672 0.13672,3.80859 0.13672,1.15235 0.46875,1.67969 0.42969,0.68359 1.11328,1.05469 0.70312,0.37109 1.60156,0.37109 2.1875,0 3.4375,-1.67969 1.25,-1.67968 1.25,-4.66796 l 0,-10.80079 6.99219,0 0,21.875 -6.99219,0 0,-3.16406 q -1.58203,1.91406 -3.35937,2.83203 -1.75782,0.89844 -3.88672,0.89844 -3.78906,0 -5.78125,-2.32422 -1.97266,-2.32422 -1.97266,-6.75781 z"
         style="text-align:center;text-anchor:middle"
         id="path4155"
         inkscape:connector-curvature="0" />
      <path
         d="m 379.54785,201.84067 6.99219,0 0,30.39062 -6.99219,0 0,-30.39062 z"
         style="text-align:center;text-anchor:middle"
         id="path4157"
         inkscape:connector-curvature="0" />
      <path
         d="m 400.93457,204.14536 0,6.21093 7.20703,0 0,5 -7.20703,0 0,9.27735 q 0,1.52344 0.60547,2.07031 0.60547,0.52734 2.40234,0.52734 l 3.59375,0 0,5 -5.99609,0 q -4.14063,0 -5.87891,-1.71875 -1.71875,-1.73828 -1.71875,-5.8789 l 0,-9.27735 -3.47656,0 0,-5 3.47656,0 0,-6.21093 6.99219,0 z"
         style="text-align:center;text-anchor:middle"
         id="path4159"
         inkscape:connector-curvature="0" />
      <path
         d="m 288.23926,253.98911 0,6.17187 q -2.40235,-1.07422 -4.6875,-1.62109 -2.28516,-0.54688 -4.31641,-0.54688 -2.69531,0 -3.98437,0.74219 -1.28907,0.74219 -1.28907,2.30469 0,1.17187 0.85938,1.83594 0.87891,0.64453 3.16406,1.11328 l 3.20313,0.64453 q 4.86328,0.97656 6.91406,2.96875 2.05078,1.99219 2.05078,5.66406 0,4.82422 -2.87109,7.1875 -2.85157,2.34375 -8.73047,2.34375 -2.77344,0 -5.56641,-0.52734 -2.79297,-0.52735 -5.58594,-1.5625 l 0,-6.34766 q 2.79297,1.48438 5.39063,2.24609 2.61719,0.74219 5.03906,0.74219 2.46094,0 3.76953,-0.82031 1.3086,-0.82031 1.3086,-2.34375 0,-1.36719 -0.89844,-2.10938 -0.87891,-0.74218 -3.53516,-1.32812 l -2.91015,-0.64453 q -4.375,-0.9375 -6.40625,-2.98828 -2.01172,-2.05078 -2.01172,-5.52735 0,-4.35547 2.8125,-6.69922 2.8125,-2.34375 8.08594,-2.34375 2.40234,0 4.9414,0.3711 2.53906,0.35156 5.25391,1.07422 z"
         style="text-align:center;text-anchor:middle"
         id="path4161"
         inkscape:connector-curvature="0" />
      <path
         d="m 318.29785,271.2352 0,1.99219 -16.34765,0 q 0.2539,2.46094 1.77734,3.6914 1.52344,1.23047 4.25781,1.23047 2.20703,0 4.51172,-0.64453 2.32422,-0.66406 4.76563,-1.99219 l 0,5.39063 q -2.48047,0.9375 -4.96094,1.40625 -2.48047,0.48828 -4.96094,0.48828 -5.9375,0 -9.23828,-3.00781 -3.28125,-3.02735 -3.28125,-8.47656 0,-5.35157 3.22266,-8.41797 3.24218,-3.06641 8.90625,-3.06641 5.15625,0 8.24218,3.10547 3.10547,3.10547 3.10547,8.30078 z m -7.1875,-2.32422 q 0,-1.99219 -1.17187,-3.20312 -1.15235,-1.23047 -3.02735,-1.23047 -2.03125,0 -3.30078,1.15234 -1.26953,1.13281 -1.58203,3.28125 l 9.08203,0 z"
         style="text-align:center;text-anchor:middle"
         id="path4163"
         inkscape:connector-curvature="0" />
      <path
         d="m 341.24707,261.03989 0,5.70312 q -1.42578,-0.97656 -2.87109,-1.44531 -1.42578,-0.46875 -2.96875,-0.46875 -2.92969,0 -4.57032,1.71875 -1.62109,1.69922 -1.62109,4.76563 0,3.0664 1.62109,4.78515 1.64063,1.69922 4.57032,1.69922 1.64062,0 3.10547,-0.48828 1.48437,-0.48828 2.73437,-1.44531 l 0,5.72265 q -1.64062,0.60547 -3.33984,0.89844 -1.67969,0.3125 -3.37891,0.3125 -5.91797,0 -9.25781,-3.02734 -3.33985,-3.04688 -3.33985,-8.45703 0,-5.41016 3.33985,-8.4375 3.33984,-3.04688 9.25781,-3.04688 1.71875,0 3.37891,0.3125 1.67968,0.29297 3.33984,0.89844 z"
         style="text-align:center;text-anchor:middle"
         id="path4165"
         inkscape:connector-curvature="0" />
      <path
         d="m 354.95801,254.14536 0,6.21093 7.20703,0 0,5 -7.20703,0 0,9.27735 q 0,1.52344 0.60547,2.07031 0.60547,0.52734 2.40234,0.52734 l 3.59375,0 0,5 -5.99609,0 q -4.14063,0 -5.87891,-1.71875 -1.71875,-1.73828 -1.71875,-5.8789 l 0,-9.27735 -3.47656,0 0,-5 3.47656,0 0,-6.21093 6.99219,0 z"
         style="text-align:center;text-anchor:middle"
         id="path4167"
         inkscape:connector-curvature="0" />
      <path
         d="m 366.46191,260.35629 6.99219,0 0,21.875 -6.99219,0 0,-21.875 z m 0,-8.51562 6.99219,0 0,5.70312 -6.99219,0 0,-5.70312 z"
         style="text-align:center;text-anchor:middle"
         id="path4169"
         inkscape:connector-curvature="0" />
      <path
         d="m 390.62207,264.82895 q -2.32422,0 -3.55469,1.67969 -1.21093,1.66015 -1.21093,4.80469 0,3.14453 1.21093,4.82421 1.23047,1.66016 3.55469,1.66016 2.28516,0 3.49609,-1.66016 1.21094,-1.67968 1.21094,-4.82421 0,-3.14454 -1.21094,-4.80469 -1.21093,-1.67969 -3.49609,-1.67969 z m 0,-5 q 5.64453,0 8.80859,3.04688 3.1836,3.04687 3.1836,8.4375 0,5.39062 -3.1836,8.4375 -3.16406,3.04687 -8.80859,3.04687 -5.66406,0 -8.86719,-3.04687 -3.18359,-3.04688 -3.18359,-8.4375 0,-5.39063 3.18359,-8.4375 3.20313,-3.04688 8.86719,-3.04688 z"
         style="text-align:center;text-anchor:middle"
         id="path4171"
         inkscape:connector-curvature="0" />
      <path
         d="m 429.7041,268.91098 0,13.32031 -7.03125,0 0,-2.16796 0,-8.02735 q 0,-2.83203 -0.13672,-3.90625 -0.11718,-1.07422 -0.42968,-1.58203 -0.41016,-0.68359 -1.11329,-1.05469 -0.70312,-0.39062 -1.60156,-0.39062 -2.1875,0 -3.4375,1.69922 -1.25,1.67968 -1.25,4.66797 l 0,10.76171 -6.99219,0 0,-21.875 6.99219,0 0,3.20313 q 1.58203,-1.91406 3.35938,-2.8125 1.77734,-0.91797 3.92578,-0.91797 3.78906,0 5.74219,2.32422 1.97265,2.32422 1.97265,6.75781 z"
         style="text-align:center;text-anchor:middle"
         id="path4173"
         inkscape:connector-curvature="0" />
    </g>
  </g>
</svg>
