<?xml version="1.0" encoding="UTF-8"?>
<svg id="svg2" width="435.09pt" height="162.99pt" version="1.1" viewBox="0 0 435.09 162.99" xmlns="http://www.w3.org/2000/svg" xmlns:cc="http://creativecommons.org/ns#" xmlns:dc="http://purl.org/dc/elements/1.1/" xmlns:rdf="http://www.w3.org/1999/02/22-rdf-syntax-ns#">
 <metadata id="metadata84">
  <rdf:RDF>
   <cc:Work rdf:about="">
    <dc:format>image/svg+xml</dc:format>
    <dc:type rdf:resource="http://purl.org/dc/dcmitype/StillImage"/>
    <dc:title/>
   </cc:Work>
  </rdf:RDF>
 </metadata>
 <path id="path10" d="m24.083 0.035 23.326-0.035 0.0308 23.405-23.211 0.0484-0.14513-23.418z" fill="#6e2869"/>
 <path id="path12" d="m61.899 0.01301 23.664-4e-3 -9e-3 23.449-23.655-0.066v-23.378z" fill="#6e2869"/>
 <path id="path14" d="m304.21 0.01741c4.1471 0.0836 8.3161 0.16271 12.428 0.80918 3.7425 0.44857 7.3662 1.5128 10.99 2.5287 4.191 1.1786 8.2853 2.7354 12.173 4.7012 12.855 6.5438 22.727 18.018 28.818 30.951 3.2279 6.8253 4.9035 14.293 5.4752 21.795 0.73881 6.9616 1.2709 13.954 1.1434 20.964 0 11.935 0 23.871 4e-3 35.806l-23.317 0.0308c-0.0132-14.759 0.10994-29.526-0.0572-44.281-0.48815-7.2607-0.33863-14.75-2.8673-21.681-2.3748-6.4911-6.5878-12.309-11.966-16.645-2.8277-2.0493-5.9282-3.7161-9.1209-5.1234l-0.0264 87.744-118.82-0.0352c-0.90154 5.9677-1.7811 12.072-4.3889 17.587-1.7327 3.6237-3.9756 7.0188-6.7329 9.9521-6.5218 7.1595-16.395 10.37-25.889 10.458l9e-3 -23.361c2.8365-0.18471 5.7962-0.81359 7.9291-2.8322 3.5094-3.2499 5.6247-8.0566 5.506-12.855l-9e-3 -78.029 23.589 0.0308 0.0131 55.719c10.071-0.13194 20.146-0.0132 30.217-0.0572-1.7899-6.6318-4.8727-12.925-9.2001-18.273-2.0757-2.7926-4.5517-5.2377-6.9704-7.7224l10.352-29.636c7.3486-0.0176 14.702-0.0132 22.05-4e-3 6.0777 0.11434 12.344 0.022 18.114 2.2209 3.184 1.205 6.0821 3.1312 8.5008 5.5192 3.5622 3.7425 5.6423 8.8043 5.9413 13.95 0.48375 7.7092-1.7283 15.335-4.9782 22.253-1.913 4.1778-4.7144 7.8368-7.1815 11.685 9.4155 0.0308 18.835-4e-3 28.255 0.0176l0.013-94.186m-57.003 61.432c1.7679 1.9306 3.6325 3.8128 4.9387 6.1128 1.2621 2.256 3.0872 4.2218 3.8568 6.7373 0.88834 3.3994 1.139 6.9132 1.5216 10.392 2.3484-3.8392 4.3846-7.9027 5.7302-12.208 0.64207-2.4891 1.2666-5.2993-0.0264-7.696-1.1038-2.432-3.9448-3.2411-6.3943-3.439-3.206-0.14952-6.4251-0.17591-9.6266 0.10115z" fill="#6e2869"/>
 <path id="path16" d="m72.994 38.792c4.1647-0.52773 8.3645-0.65087 12.556-0.76081l0.0132 56.168h14.191l0.0264-28.722-0.0748-26.941 23.625 0.0132 0.0396 55.671 14.513 0.0132 0.066-55.68 23.576 4e-3 4e-3 41.55 4e-3 37.469-99.644 9e-3c0.0484-16.707-0.0527-33.418 0.0441-50.125-2.3396 0.67285-4.5473 1.7151-6.7857 2.6518-7.3574 3.417-13.448 9.1341-18.229 15.612-2.1637 3.1092-4.4681 6.1524-6.0953 9.5871-3.2323 7.0979-5.805 14.539-6.9264 22.283l-23.897-9e-3c0.36061-2.8102 0.7696-5.6159 1.1918-8.4173 0.83557-5.1498 1.7415-10.33 3.6105-15.225 4.5341-12.894 12.138-24.72 22.085-34.1 4.7584-4.2878 9.8069-8.3249 15.423-11.438 5.5895-3.1444 11.636-5.3916 17.802-7.1067 4.2218-1.1522 8.514-2.0977 12.881-2.5067z" fill="#6e2869"/>
 <path id="path26" d="m99.938 132.2c7.85-0.0308 15.7 0 23.55-0.0132 0.0136 8.1442-0.0238 15.821 4e-3 23.383-7.85-0.0396-15.7 0.0704-23.541-0.0528 0.14314-7.8094-0.082-16.199-0.0132-23.317z" fill="#6e2869"/>
 <path id="path59" d="m350.54 122.56c2.4377-0.0991 4.8835-0.0214 7.3239-0.0375 3e-3 3.8066 0 7.6132 0 11.42 1.5725-1.259 3.2735-2.5208 5.2987-2.8931 2.3654-0.43933 5.0281-0.0563 6.8658 1.6019 2.052 1.8323 2.952 4.5968 3.2922 7.2569 0.36164 3.1878 0.26253 6.555-1.0822 9.5232-1.1572 2.5234-3.2414 4.7549-5.947 5.588-2.8181 0.83847-5.9095 0.28128-8.4115-1.2108-0.10983 0.37235-0.22234 0.74471-0.32413 1.1251-2.3332 0.0214-4.6665 0.0187-6.9997 3e-3 0-10.793 0.0348-21.583-0.0161-32.376m7.3239 15.242v11.768c1.7171 0.55451 3.686 0.74471 5.3683-0.0268 1.4841-0.69381 2.269-2.2877 2.5609-3.828 0.33485-1.851 0.31342-3.7691-0.0214-5.6175-0.24377-1.2912-0.9108-2.6306-2.1806-3.1637-1.8966-0.7956-4.0664-0.20626-5.7273 0.86794z" fill="#6e2869"/>
 <path id="path61" d="m377.29 122.53c2.5743-0.0482 5.1514-0.0107 7.7257-0.0214 3e-3 1.8966 3e-3 3.7932 0 5.6898-2.1538 8e-3 -4.3048-8e-3 -6.4559 8e-3 -0.4045-0.0589-0.90008 0.11251-1.2456-0.1018-0.0536-1.8591 0.0107-3.7182-0.0241-5.5746z" fill="#6e2869"/>
 <path id="path63" d="m284.88 123.91 8.5213-5e-3 10.482 31.039-8.0472-5e-3 -1.9368-6.3247-9.7321 8e-3 -1.9073 6.3032-7.857 0.0161 10.477-31.031m4.1441 8.9847-3.0967 10.099 6.263-0.0214-3.1664-10.078z" fill="#6e2869"/>
 <path id="path65" d="m325.26 132c4.4442-1.0822 9.1294-1.5992 13.64-0.61345 1.8671 0.42325 3.7584 1.2671 4.9103 2.8636 0.98848 1.318 1.3501 2.9976 1.3608 4.6209 5e-3 5.3576 0 10.718 0 16.076-2.419-5e-3 -4.8379 8e-3 -7.2542-8e-3 5e-3 -0.81436 5e-3 -1.6287 0-2.4404-1.7921 1.6421-4.0155 2.9976-6.5122 3.0485-2.1779 0.19555-4.5031-0.40718-6.038-2.0305-2.1618-2.0761-2.5288-5.4326-1.6743-8.1918 0.64292-2.0064 2.4109-3.4342 4.3263-4.1656 3.1664-1.243 6.6247-1.2832 9.9652-1.6153-3e-3 -1.1653-0.48754-2.4458-1.6635-2.8744-2.5047-0.95633-5.3362-0.76882-7.8516 0.0563-1.0822 0.28395-2.068 0.87597-3.1824 1.0367-0.10179-1.9207-0.0589-3.8441-0.0268-5.7621m6.5926 13.233c-1.2698 0.77685-1.4251 2.5315-0.94295 3.8146 0.40451 1.0554 1.6502 1.3474 2.6601 1.4144 1.6207 0.18216 3.2012-0.54647 4.3611-1.6394-0.0188-1.6207-3e-3 -3.2387-8e-3 -4.8567-2.0386 0.28663-4.2406 0.19288-6.0702 1.2671z" fill="#6e2869"/>
 <path id="path67" d="m415.12 132.06c4.2111-1.1465 8.6767-1.5725 12.998-0.81972 2.1913 0.39647 4.4897 1.2939 5.7594 3.2306 1.0983 1.5939 1.2644 3.595 1.2082 5.4755-5e-3 4.9987 0 10-3e-3 14.999h-7.2489c-3e-3 -0.82507-3e-3 -1.6448 3e-3 -2.4645-1.3608 1.2215-2.8851 2.3172-4.6772 2.7913-2.6172 0.62416-5.7139 0.38575-7.7176-1.5966-2.1484-1.9234-2.652-5.0871-1.9984-7.79 0.43665-2.0172 2.0038-3.6137 3.8441-4.4468 3.3003-1.5216 7.0212-1.5484 10.576-1.8805 0.0831-1.2162-0.51701-2.5208-1.7278-2.9333-2.5395-0.91883-5.379-0.7072-7.9078 0.14466-1.042 0.27324-1.9877 0.89472-3.0833 0.95097-0.0188-1.8886 0.0241-3.7744-0.0241-5.6603m6.7211 13.121c-1.3474 0.7581-1.5216 2.5931-1.0046 3.9111 0.442 1.0554 1.7118 1.3126 2.7377 1.3769 1.5912 0.14734 3.1342-0.57862 4.27-1.6555-0.0241-1.618-5e-3 -3.2333-0.0107-4.8486-2.0118 0.2786-4.1709 0.20091-5.9925 1.2162z" fill="#6e2869"/>
 <path id="path69" d="m313.83 134.86c2.269-2.0895 5.1942-3.9218 8.4195-3.3485 0.0188 2.3118-8e-3 4.621 0.0134 6.9328-1.1465-0.0911-2.2824-0.33485-3.4369-0.29735-1.7305-0.0321-3.3806 0.55452-4.9879 1.1198-8e-3 5.2237 0 10.45-5e-3 15.674-2.4324 0-4.8674 3e-3 -7.2998-3e-3 0-7.806 3e-3 -15.612-3e-3 -23.418 2.435-8e-3 4.8674-3e-3 7.3024 0 3e-3 1.1117 3e-3 2.2261-3e-3 3.3405z" fill="#6e2869"/>
 <path id="path71" d="m377.5 131.52c2.4377-5e-3 4.8781-5e-3 7.3158 0 3e-3 7.806 3e-3 15.612 0 23.421h-7.3158v-23.421z" fill="#6e2869"/>
 <path id="path73" d="m387.52 131.52c2.5609-3e-3 5.1219-5e-3 7.6828 0 1.6716 4.8486 3.1931 9.7509 4.9424 14.57 1.5082-4.862 3.0378-9.7187 4.5727-14.575 2.502 8e-3 5.0067 0 7.5114 5e-3 -3.8736 10.488-7.7364 20.98-11.626 31.463-2.6118-0.0134-5.221 0-7.8328-5e-3 1.109-2.869 2.2181-5.738 3.3324-8.6043-2.8556-7.6212-5.73-15.234-8.5829-22.853z" fill="#6e2869"/>
 <path id="path76" d="m253.09 122.73 7.2971 0.0107 3e-3 32.269-7.3051 8e-3z" fill="#b693b4"/>
 <path id="path26-4" d="m61.89 132.2 23.55-0.0132 4e-3 23.383-23.541-0.0528-0.0132-23.317z" fill="#6e2869"/>
 <path id="path26-7" d="m137.98 132.2c7.8501-0.0308 15.7 0 23.55-0.0132 0.0136 8.1442-0.0238 15.821 4e-3 23.383-7.85-0.0396-15.7 0.0704-23.541-0.0528 0.14314-7.8094-0.082-16.199-0.0132-23.317z" fill="#6e2869"/>
 <path id="path63-2" d="m231.48 124 8.5213-5e-3 10.482 31.039-8.0472-5e-3 -1.9368-6.3247-9.7321 8e-3 -1.9073 6.3032-7.857 0.0161 10.477-31.031m4.1441 8.9847-3.0967 10.099 6.263-0.0214-3.1664-10.078z" fill="#b693b4"/>
</svg>
