<?xml version="1.0" encoding="UTF-8" standalone="no"?>
<svg
   xmlns:dc="http://purl.org/dc/elements/1.1/"
   xmlns:cc="http://creativecommons.org/ns#"
   xmlns:rdf="http://www.w3.org/1999/02/22-rdf-syntax-ns#"
   xmlns:svg="http://www.w3.org/2000/svg"
   xmlns="http://www.w3.org/2000/svg"
   xmlns:sodipodi="http://sodipodi.sourceforge.net/DTD/sodipodi-0.dtd"
   xmlns:inkscape="http://www.inkscape.org/namespaces/inkscape"
   height="696.21"
   width="600"
   version="1.1"
   viewBox="0 0 158.75 184.20578"
   id="svg2"
   inkscape:version="0.91 r13725"
   sodipodi:docname="Al Jazeera English HD.svg">
  <metadata
     id="metadata20">
    <rdf:RDF>
      <cc:Work
         rdf:about="">
        <dc:format>image/svg+xml</dc:format>
        <dc:type
           rdf:resource="http://purl.org/dc/dcmitype/StillImage" />
        <dc:title></dc:title>
      </cc:Work>
    </rdf:RDF>
  </metadata>
  <defs
     id="defs18" />
  <sodipodi:namedview
     pagecolor="#ffffff"
     bordercolor="#666666"
     borderopacity="1"
     objecttolerance="10"
     gridtolerance="10"
     guidetolerance="10"
     inkscape:pageopacity="0"
     inkscape:pageshadow="2"
     inkscape:window-width="1920"
     inkscape:window-height="1017"
     id="namedview16"
     showgrid="false"
     inkscape:zoom="0.33897817"
     inkscape:cx="300"
     inkscape:cy="348.10501"
     inkscape:window-x="-8"
     inkscape:window-y="-8"
     inkscape:window-maximized="1"
     inkscape:current-layer="svg2" />
  <path
     style="fill:#d5a10f"
     inkscape:connector-curvature="0"
     id="path6"
     d="m 63.346,1.04 c -2.22,1.58 -4.08,5.17 -4.06,10.64 0.02,3.36 0.94,7.39 3.5,11.9 -3.43,4.74 -4.06,9.12 -2.61,13.3 1.11,3.18 1.67,4.01 2.18,5.91 1.26,4.85 -0.14,10.66 -3.9,19.61 -3.05,7.3 -7.01,14.94 -7.01,24.24 0.01,2.13 0.19,4.2 0.49,6.24 0.36,-0.35 1.1,-1.06 2.03,-1.92 -0.46,-7.29 2.4,-14.62 5.91,-21.2 5.11,-9.61 5.75,-19.39 4.76,-24.75 3.59,3.89 9.63,9.71 13.17,15.67 1.19,2.01 1.9,3.92 2.08,5.85 0.17,4.72 -1.29,8.1 -4.14,11.41 -2.42,2.8 -1.58,5.27 -1.48,5.75 0.18,0.8 1.16,3.85 1.86,5.84 2.67,-5.31 10.06,-8.3 13.4,-12.72 0.77,5.44 -3.27,10.61 -6.26,14.08 -0.71,0.79 -1.49,1.59 -2.37,2.45 -5.67,5.5 -9.39,9.27 -11.37,12.78 -0.5,0.78 -1.31,2.52 -1.73,3.87 -0.57,1.68 -1.31,4.53 -1.92,9.56 -0.47,2.95 -1,6.5 -1.17,8.07 -0.39,3.59 -1.46,9.29 -5.8,10.91 -0.24,0.1 -0.47,0.16 -0.71,0.21 l 0,0.01 c -4.14,0.93 -8.39,-2.59 -11.47,-8.92 -0.63,0.49 -1.32,0.92 -2.08,1.26 4.18,10.01 10.46,14.61 15.97,14.61 4.17,0 7.46,-2.13 8.52,-8.35 0.54,-3.13 0.93,-6.61 1.28,-9.98 0.16,-1.62 0.95,-10.78 2.41,-14.11 1.79,-3.73 5.73,-7.34 11.59,-13.45 3.61,-3.81 5.58,-6.97 6.61,-9.52 3.42,-6.34 -0.81,-21.4 -1.63,-24.1 -0.02,-0.1 -0.04,-0.13 -0.09,-0.13 -0.08,0 -0.11,0.03 -0.17,0.14 -0.01,0.02 -0.02,0.05 -0.03,0.06 -1.51,2.5 -4.21,4.77 -6.71,6.63 1.41,-3.92 1.03,-6.91 0.47,-9.41 l 0,-0.02 c -0.04,-0.15 -0.08,-0.3 -0.11,-0.44 l -0.01,0.02 c -2.54,-10 -12.61,-18.9 -17.16,-24.02 -5.9,-6.65 -3.89,-10.93 -1.72,-13.65 0.41,0.61 0.84,1.26 1.31,1.91 8.04,11.05 23.17,28.57 31.1,45.27 2.01,4.22 3.55,8.36 4.4,12.31 3.13,17.3 -8.77,34.88 -26.62,29.94 l -0.01,0 c -0.12,-0.03 -0.24,-0.07 -0.34,-0.1 -0.48,1.53 -0.95,3.99 -1.39,7.33 2.7,1.17 5.64,1.87 8.48,2 0.21,0.01 0.42,0.01 0.63,0.01 14.66,0.17 26.14,-10.96 24.02,-34.33 0,0 -0.88,-9.71 -5.83,-19.95 -7.94,-17.98 -22.61,-35.78 -31.62,-47.26 -2.86,-3.66 -4.54,-6.82 -5.38,-9.55 -1.69,-5.31 -0.62,-9.42 1.55,-11.23 0.46,-0.39 1.05,-0.84 1.57,-1.11 0.32,-0.17 0.2,-0.55 -0.03,-0.59 -0.05,0 -0.12,-0.02 -0.2,-0.02 -0.31,0 -0.93,0.14 -2.16,1.04 m -10.86,31.29 c -2.39,0.06 -4.27,2.11 -4.2,4.53 0.07,2.44 2.07,4.37 4.46,4.29 1.31,-0.04 2.44,-0.67 3.21,-1.6 l 0.09,-0.1 c 0.51,3.51 -1.13,6.31 -4.99,9.56 -3.94,3.37 -13.15,7.77 -19.7,13.03 -9.233,7.41 -11.409,15.48 -11.969,22.01 -0.239,2.91 0.181,6.74 0.964,9.92 0.981,3.98 2.398,7.03 2.398,7.03 0,0 0.074,0.13 0.19,0.35 -0.239,4.32 0.189,11.87 2.587,17.57 3.222,7.35 9.02,13.37 17.32,11.6 8.39,-2 9.33,-15.85 10.29,-25.96 0.24,-1.66 0.5,-1.95 0.99,-2.38 1.35,-1.16 4.62,-4.27 6.17,-5.67 0.97,-0.85 1.81,-1.72 2.35,-2.82 0.7,-1.34 0.33,-3.12 0.33,-3.12 l -0.94,-6.66 c -0.24,0.94 -1.37,2.27 -2.98,3.91 -1.66,1.71 -6.12,5.59 -6.53,6.01 -0.4,0.42 -1.84,1.49 -2.47,6.57 -1.6,13.84 -4.28,20.36 -9.1,22.57 -1.27,0.6 -2.7,0.89 -4.28,0.93 -8.826,-0.09 -11.15,-11.01 -11.109,-16.99 0.008,-0.35 0.017,-0.71 0.033,-1.04 2.052,2.81 5.076,5.58 8.816,5.01 5.96,-0.93 4.1,-11.14 3.23,-13.5 -0.84,-2.38 -3.15,-9.49 -8.148,-9.14 -3.535,0.25 -5.183,4.46 -5.933,8.03 -0.684,-2.82 -1.047,-6.13 -0.824,-8.71 0.519,-6.18 2.604,-13.89 11.455,-21.49 6.3,-5.4 13.45,-9.26 17.42,-12.45 2.53,-2.02 4.1,-4.28 4.98,-6.41 -0.24,2.06 -0.75,4.29 -1.72,6.9 -3.66,9.8 -14.8,25.99 -14.95,48.86 0,7.03 0.66,13.11 1.75,18.31 0.61,-0.42 1.17,-0.97 1.72,-1.63 -0.78,-3.71 -1.23,-7.83 -1.23,-12.22 0,-22.82 11.06,-38.99 14.66,-48.77 1.88,-5.15 1.93,-8.91 1.93,-12.62 0,-4.55 -0.99,-9.3 -1.92,-11.15 -1.02,-1.77 -2.26,-2.56 -4.14,-2.56 z m -26.194,69.45 c 0.684,-2.19 1.912,-4.16 4.064,-5.4 3.52,-1.67 4.89,2.61 4.89,2.61 -0.24,2.89 -2.4,4.41 -4.82,4.41 -1.406,0 -2.914,-0.53 -4.134,-1.62 m 20.584,-61.9 c -2.39,0.08 -4.28,2.11 -4.19,4.55 0.05,2.43 2.06,4.33 4.45,4.26 2.39,-0.06 4.27,-2.11 4.2,-4.53 -0.07,-2.38 -2,-4.28 -4.32,-4.28 z m 25.88,25.95 c -0.42,0.46 -2.39,2.67 -4.31,4.79 -1.7,1.89 -3.32,3.69 -3.68,4.09 -0.81,0.92 -1.24,1.83 -1.14,2.31 l 0.5,2.47 c 0.13,-0.46 0.65,-1.3 1.23,-1.95 0.4,-0.45 2.39,-2.67 4.3,-4.77 1.7,-1.89 3.32,-3.69 3.68,-4.11 0.83,-0.9 1.25,-1.81 1.14,-2.29 l -0.5,-2.49 c -0.13,0.47 -0.64,1.3 -1.22,1.95 m -34.28,3.69 c 0,0 -3.49,2.51 -4.89,5.83 -0.86,2.04 -0.8,4.24 -0.31,5.3 0.49,1.06 1.65,2.08 3.16,0.86 1.06,-0.86 1.52,-2.05 1.75,-3.08 0.14,-0.61 0.19,-0.99 0.19,-1.29 0,-0.37 -0.13,-0.69 -0.47,-0.6 -1.01,0.34 -0.41,1.71 -1.13,2.38 -0.55,0.34 -1.96,0.15 -2.24,-1.27 -0.28,-1.42 0.8,-3.25 1.77,-4.46 0.98,-1.22 2.7,-2.8 2.7,-2.8 0,0 1.23,-1.03 0.81,-1.54 -0.02,-0.03 -0.07,-0.04 -0.12,-0.04 -0.35,0 -1.22,0.71 -1.22,0.71 m 26.93,26.55 5.59,2.68 3.08,-6.67 -5.57,-2.68 z m -10.59,7.15 c 2.36,5.6 5.94,10.47 10.05,14.04 0.43,-2.93 0.89,-5 1.33,-6.47 -4.2,-3.05 -7.2,-6.35 -9.13,-9.65 z m 28.9,4.67 5.57,2.7 3.09,-6.67 -5.57,-2.68 z m -30.35,13.97 4.74,3.99 4.63,-5.65 -4.75,-4.01 z m -1.07,9.91 4.76,3.99 4.62,-5.67 -4.75,-3.99 z m 22.37,-4.18 c -0.22,0.1 -0.29,0.47 -0.15,0.98 0.15,0.49 0.98,2.64 0.98,2.64 0.59,1.62 1.57,3.49 2.9,4.45 1.43,1.02 2.16,0.66 2.45,0.56 0.2,-0.13 1.12,-0.69 0.8,-2.16 -0.36,-1.56 -0.55,-1.98 -0.83,-2.55 -0.28,-0.57 -0.66,-0.92 -0.88,-0.83 -0.13,0.02 -0.02,0.54 -0.02,0.86 -0.01,0.56 -0.21,0.99 -0.68,1.21 -0.41,0.18 -1.43,0.55 -2.22,-0.87 -0.65,-1.14 -1.21,-2.64 -1.45,-3.25 -0.19,-0.48 -0.49,-1.07 -0.79,-1.07 -0.03,0 -0.05,0.02 -0.11,0.03" />
  <g
     style="fill:#ffffff;fill-opacity:1"
     id="g8"
     transform="translate(-70.304,-116.45)">
    <path
       inkscape:connector-curvature="0"
       id="path10"
       d="m 135.59,283.23 0,-3.98 -10.76,0 0,3.42 5.53,0 -5.7,8.19 0,4 11.05,0 0,-3.45 -5.8,0 z m 37.91,1.89 c -0.23,0.28 -0.56,0.41 -1.33,0.48 l -1.53,0 0,-2.93 1.19,0 c 0.09,0 0.19,0.02 0.28,0.02 0.61,0.02 0.87,0.09 1.14,0.26 0.68,0.39 0.83,1.46 0.25,2.17 m 3.35,4.08 c -0.58,-1.39 -0.8,-1.67 -1.36,-1.93 0.09,-0.02 0.19,-0.07 0.27,-0.11 1.74,-0.81 2.58,-2.82 1.93,-5.05 -0.55,-1.85 -1.97,-2.86 -4.66,-2.86 l -6.32,0 0,15.61 4,0 0,-5.84 0.93,0 c 0.65,0 1.03,0.28 1.37,1.11 l 0.22,0.5 0.11,0.28 1.52,3.95 4.15,0 -1.94,-5.12 c -0.08,-0.2 -0.13,-0.36 -0.22,-0.54 m 9.36,-0.76 1.47,-4.96 1.48,4.96 z m 3.69,-9.19 -4.43,0 -5.32,15.61 4.02,0 0.9,-2.86 5.13,0 0.88,2.86 4.25,0 z m -76.93,9.19 1.47,-4.96 1.48,4.96 z m -0.73,-9.19 -5.32,15.61 4.01,0 0.91,-2.86 5.12,0 0.87,2.86 4.27,0 -5.44,-15.61 z m -35.896,9.19 1.475,-4.96 1.483,4.96 z m -0.725,-9.19 -5.315,15.61 4.004,0 0.907,-2.86 5.134,0 0.865,2.86 4.26,0 -5.422,-15.61 z m 81.301,9.58 5.22,0 0,-3.33 -5.22,0 0,-2.83 6.06,0 0,-3.42 -10.06,0 0,15.61 10.6,0 0,-3.32 -6.6,0 z m -13.82,0 5.23,0 0,-3.33 -5.23,0 0,-2.83 6.07,0 0,-3.42 -10.06,0 0,15.61 10.6,0 0,-3.32 -6.61,0 z m -42.56,5.04 c 0,2.38 -0.867,3.25 -2.787,2.7 -0.116,-0.02 -0.206,-0.06 -0.322,-0.11 l -0.947,3.39 c 0.214,0.11 0.428,0.19 0.659,0.28 4.467,1.67 7.397,-0.81 7.397,-5.14 l 0,-15.74 -4,0 z m -3.57,-2.5 -4.912,0 0,-12.12 -4.029,0 0,15.61 8.941,0 z"
       style="fill:#ffffff;fill-opacity:1" />
    <path
       inkscape:connector-curvature="0"
       id="path12"
       d="m 202.12,279.25 2.1,0 -1.43,6.71 8.18,0 1.39,-6.71 2.08,0 -3.27,15.6 -2.08,0 1.51,-7.14 -8.18,0 -1.51,7.14 -2.07,0 z"
       style="fill:#ffffff;fill-opacity:1" />
    <path
       inkscape:connector-curvature="0"
       id="path14"
       d="m 216.8,293.1 3.6,0 c 4.44,0 6.58,-3.89 6.58,-7.66 0,-2.3 -0.85,-4.44 -4.3,-4.44 l -3.33,0 z m 0.9,-13.85 5.45,0 c 3.88,0 5.9,2.28 5.9,5.97 0,5.87 -3.52,9.63 -8.67,9.63 l -5.99,0 z"
       style="fill:#ffffff;fill-opacity:1" />
  </g>
</svg>
