<svg height="516.80005pt" viewBox="0 0 373.90634 516.80005" width="373.90634pt" xmlns="http://www.w3.org/2000/svg"><g fill="#fff" transform="matrix(.8042727 0 0 .8042727 -140.78795 425.7644)"><path d="m600.31 17.7 14.33.02.04 69.91-200.07-.01c-.15 6.45-1.97 13.56-7.59 17.4-6.17 4.39-14.37 2.85-20.83-.06l3.38-12.31c2.33.7 4.97 1.62 7.32.39 3.09-1.85 3.09-5.91 3.35-9.08.03-12.54.02-25.09-.01-37.63l14.35-.01-.02 29.36 140.72-.04c-7.02-4.83-12.04-12.09-19.35-16.5-7.8-4.43-17.27-1.6-24.48 2.67-1.76-3.52-3.35-7.13-5.04-10.69 6.33-3.74 13.19-7.12 20.66-7.57 9.39-.49 18.81 3.34 25.64 9.72 8.07 7.58 14.97 17.15 25.52 21.46 7.42552 1.296192 14.82138.960356 22.11.94z"/><path d="m625.81 17.74 14.1-.01.04 69.89-14.18-.07z"/><path d="m175.06 30.76 9.99-10.16 11.62 6.57 6.39-6.59 13.41 7.73-9.83 10.5-11.5-6.8-6.93 6.63z"/><path d="m394.54 30.54 10.18-10.13 13.41 8.22-9.99 10.09z"/><path d="m181.35 46.29c4.27-2.82 9.57-3.62 14.6-3.54 5.53.22 11.54 1.61 15.35 5.93 3.04 3.71 4.01 8.69 4.05 13.38-.03 8.53-.03 17.06-.01 25.59l-40.29-.03c.12-9.57-.02-19.14.06-28.71 0-4.85 2.11-9.87 6.24-12.62m8.2 12.57c-.81 5.55-.14 11.21-.39 16.8l11.58.01c-.21-5.55.37-11.15-.35-16.66-.67-5.35-9.91-5.32-10.84-.15z"/><path d="m230.63 46.32 14.17.02-.03 29.31 123.93.02-.03-29.33 14.35-.02.03 40.86-1.15.44-137.06.02c.25 6.77-2.09 14.37-8.24 17.96-6.15 3.65-13.81 2.16-19.97-.68l3.19-12.29c2.52.73 5.51 1.79 7.9.11 2.56-1.63 2.73-5.05 2.92-7.79.01-12.87 0-25.75-.01-38.63z"/><path d="m538.15 94.98 13.59 8.08-9.79 10.13-13.81-8.06z"/><path d="m307.7504 105.0396 9.99-10.16 11.62 6.57 6.39-6.59 13.41 7.73-9.83 10.5-11.5-6.8-6.93 6.63z"/></g><path d="m189.35332 3.00357c-6.42641 4.57826-11.78176 14.94939-11.73618 30.77842.0456 9.73077 2.71185 21.39858 10.11818 34.43371-9.91308 13.74159-11.73618 26.38932-7.54306 38.5129 3.19042 9.18384 4.854 11.57666 6.28968 17.09152 3.64619 14.01505-.38741 30.83311-11.2804 56.72106-8.81922 21.12513-20.28194 43.23016-20.28194 70.1664.0456 6.15295.56972 12.14638 1.43568 18.04864 1.02549-1.0027 3.19042-3.07647 5.8567-5.56044-1.29895-21.10233 6.97334-42.29581 17.11431-61.34716 14.78987-27.80221 16.63575-56.10577 13.76437-71.60208 10.39165 11.25761 27.87058 28.07567 38.1027 45.3495 3.46389 5.81112 5.51487 11.32598 6.03901 16.90921.47856 13.65043-3.73734 23.42678-11.98685 33.02082-6.99613 8.11278-4.58053 15.24564-4.28428 16.63575.52414 2.32445 3.37273 11.14367 5.37813 16.90921 7.74816-15.38237 29.10117-24.04208 38.78637-36.82654 2.23329 15.747-9.45731 30.71917-18.11701 40.76898-2.05099 2.25609-4.30707 4.58053-6.85941 7.0645-16.40786 15.90651-27.16412 26.84508-32.88409 36.98605-1.45847 2.25608-3.8285 7.29238-5.01351 11.18925-1.66357 4.85399-3.78292 13.1035-5.58323 27.66547-1.34453 8.54577-2.87138 18.80068-3.37273 23.35842-1.13943 10.39164-4.21591 26.86788-16.77248 31.58513-.68365.27346-1.36732.43299-2.07377.59251v.0456c-11.96406 2.66628-24.24717-7.52026-33.15755-25.81959-1.84589 1.39011-3.85129 2.66628-6.039 3.64619 12.078 28.96443 30.28617 42.27303 46.21547 42.27303 12.05522 0 21.60368-6.15295 24.65737-24.15602 1.57242-9.0699 2.68907-19.11971 3.69177-28.87328.47857-4.69446 2.75743-31.22051 6.97334-40.86012 5.17304-10.77906 16.56738-21.21628 33.52218-38.90031 10.48279-11.02973 16.17997-20.16799 19.16529-27.55153 9.8675-18.32211-2.37003-61.91689-4.74006-69.73341-.0684-.29625-.11393-.36462-.25067-.36462-.25067 0-.31904.0684-.50135.38741-.0228.0684-.0456.13674-.0912.18231-4.37543 7.22402-12.16917 13.80995-19.41598 19.16529 4.07919-11.34877 2.98533-19.96289 1.36733-27.23249v-.0456c-.0911-.41019-.22789-.84317-.31904-1.25338l-.0228.0456c-7.33797-28.91885-36.5075-54.67008-49.65658-69.50551-17.09152-19.23367-11.25762-31.60793-4.96794-39.49281 1.18501 1.77751 2.41561 3.62339 3.78293 5.51486 23.24447 31.97254 67.04435 82.70017 89.99256 130.98942 5.81112 12.21474 10.27771 24.22438 12.73888 35.64152 9.02432 50.04398-25.3866 100.93113-77.04858 86.61982h-.0228c-.34183-.0911-.68366-.1823-.97991-.27346-1.41291 4.42101-2.73465 11.53109-4.0336 21.21628 7.8393 3.34993 16.3167 5.40092 24.54342 5.76554.61529.0228 1.2078.0456 1.82309.0456 42.43256.47857 75.65848-31.74465 69.52832-99.33592 0 0-2.55233-28.12124-16.88643-57.74654-22.97105-52.02663-65.42639-103.5063-91.49666-136.75501-8.2723-10.59674-13.1263-19.71222-15.56468-27.61989-4.89957-15.35959-1.80031-27.26895 4.48937-32.49213 1.32175-1.14399 3.00811-2.43155 4.53496-3.21776.93433-.50135.5925-1.59749-.0912-1.71599-.13673 0-.34183-.0479-.56972-.0479-.91154 0-2.68907.40336-6.26689 3.00355m-31.40283 90.53037c-6.92776.2051-12.35147 6.10737-12.16916 13.12629.22789 7.0645 5.99342 12.62493 12.8984 12.41984 3.80572-.11395 7.0645-1.95983 9.29779-4.62611l.27346-.31904c1.48127 10.16376-3.28156 18.27654-14.44803 27.66548-11.39435 9.75356-38.05712 22.49244-57.01504 37.71528-26.706072 21.44417-33.00259 44.77979-34.622863 63.69441-.692783 8.43181.524138 19.50712 2.789334 28.69096 2.837193 11.5083 6.939159 20.35031 6.939159 20.35031s.214213.36462.549205 1.0027c-.692775 12.511.546929 34.34256 7.486088 50.84159 9.322857 21.28464 26.086217 38.6952 50.128287 33.56774 24.26997-5.78833 26.98182-45.87364 29.76205-75.13433.70644-4.78562 1.43568-5.60602 2.87137-6.8594 3.91966-3.34993 13.35418-12.37425 17.86634-16.40785 2.78022-2.48397 5.21862-4.96794 6.79104-8.18115 2.0054-3.85129.95712-9.00153.95712-9.00153l-2.73465-19.30202c-.68366 2.75743-3.96523 6.58593-8.61412 11.32598-4.83121 4.96793-17.72961 16.17997-18.89183 17.41056-1.16223 1.18502-5.33255 4.30707-7.15565 19.00577-4.6489 40.03974-12.39706 58.93157-26.34373 65.3124-3.66898 1.73195-7.79374 2.57512-12.37427 2.68907-25.537012-.25068-32.261957-31.8586-32.143454-49.15522.0251-1.02549.04786-2.07377.09571-3.0309 5.938735 8.13557 14.689596 16.15719 25.514234 14.49362 17.2442-2.66628 11.84328-32.22321 9.33653-39.05983-2.41561-6.88218-9.09725-27.43759-23.572634-26.43488-10.22757.70645-14.997244 12.89839-17.166729 23.22168-1.98034-8.15836-3.028615-17.72961-2.385975-25.18151 1.504054-17.88913 7.536223-40.19926 33.143878-62.19035 18.23096-15.63305 38.9231-26.79951 50.4086-36.02893 7.31517-5.83391 11.87291-12.39705 14.42525-18.55-.70646 5.97064-2.16493 12.41984-4.99073 19.9629-10.59675 28.37193-42.81996 75.20269-43.25295 141.40385 0 20.32752 1.89146 37.92039 5.05909 52.93815 1.77753-1.18502 3.39551-2.78023 4.96794-4.69447-2.25608-10.75627-3.55503-22.67476-3.55503-35.34527 0-66.06443 31.99532-112.84962 42.40976-141.15318 5.46928-14.90381 5.60601-25.77401 5.60601-36.5075 0-13.14907-2.87137-26.89065-5.58322-32.246-2.91695-5.12745-6.51757-7.42911-11.96407-7.42911zm-75.80432 200.97351c1.98034-6.33525 5.5331-12.05522 11.756691-15.63304 10.179709-4.83121 14.163179 7.54306 14.163179 7.54306-.71556 8.36345-6.96195 12.78445-13.948965 12.78445-4.076898 0-8.440929-1.54963-11.970905-4.69447m59.55598-179.09635c-6.90497.20509-12.37426 6.08458-12.12359 13.14907.15953 7.01892 5.94786 12.53379 12.87562 12.32868 6.92776-.1823 12.37426-6.10736 12.14638-13.10349-.2051-6.90498-5.76555-12.37426-12.48821-12.37426zm74.90645 75.08875c-1.2078 1.29895-6.95055 7.70258-12.46542 13.85552-4.94514 5.4465-9.63962 10.66511-10.66511 11.82734-2.37002 2.66627-3.60061 5.28697-3.28157 6.69987l1.4129 7.13287c.38741-1.32175 1.89146-3.76014 3.55504-5.62881 1.18501-1.32175 6.92777-7.72537 12.44263-13.80995 4.92235-5.49208 9.61682-10.6879 10.66511-11.8957 2.39281-2.59791 3.60062-5.26419 3.30436-6.63152l-1.45848-7.20122c-.36461 1.34454-1.84588 3.76014-3.50946 5.6516m-99.22198 10.64232s-10.084 7.29237-14.13811 16.88642c-2.47941 5.90227-2.31306 12.26032-.90471 15.33679 1.42885 3.07648 4.79246 6.01622 9.15649 2.48397 3.06053-2.48397 4.38227-5.94785 5.04314-8.91038.4102-1.75473.56972-2.87138.56972-3.73735 0-1.07107-.36462-2.0054-1.36732-1.73194-2.91696.97992-1.18501 4.96794-3.25879 6.88219-1.58381.97991-5.68578.43298-6.49706-3.66898-.80899-4.10197 2.31306-9.38894 5.12746-12.8984 2.82808-3.53225 7.81881-8.11278 7.81881-8.11278s3.55503-2.96253 2.34723-4.4438c-.0456-.0912-.20509-.13673-.34183-.13673-1.02549 0-3.55503 2.05099-3.55503 2.05099m77.96013 76.84348 16.15718 7.74815 8.91039-19.30202-16.11161-7.74816zm-30.6508 20.69213c6.81382 16.20277 17.15989 30.28618 29.07838 40.63224 1.23058-8.50017 2.57512-14.47082 3.8285-18.75509-12.14638-8.81922-20.80608-18.3449-26.38931-27.89336zm83.58894 13.5137 16.15718 7.79373 8.91039-19.27923-16.11161-7.74815zm-87.80485 40.42714 13.74158 11.53108 13.39976-16.33949-13.76437-11.59944zm-3.07648 28.69097 13.76438 11.53108 13.37696-16.40786-13.74158-11.55387zm64.7199-12.12358c-.63808.29625-.84318 1.36732-.43298 2.8258.43298 1.43568 2.8258 7.65699 2.8258 7.65699 1.70915 4.67169 4.55774 10.0954 8.40903 12.87562 4.12475 2.93974 6.2441 1.91425 7.06449 1.5952.61529-.34183 3.25879-1.95982 2.32445-6.2441-1.02549-4.48937-1.57241-5.71996-2.39281-7.36075-.79761-1.64078-1.89146-2.66627-2.55234-2.4156-.36462.0684-.0684 1.57242-.0684 2.50675-.0228 1.61801-.59251 2.87138-1.95983 3.48668-1.18501.52414-4.14755 1.59521-6.40363-2.50676-1.89146-3.28157-3.53225-7.63421-4.2159-9.41173-.54693-1.39011-1.4129-3.07647-2.27887-3.07647-.0911 0-.15953.0456-.31905.0684" fill="#d5a10f"/></svg>