<svg width="1e3" height="1396.3" version="1.1" viewBox="0 0 100 139.63" xmlns="http://www.w3.org/2000/svg">
 <link href="" rel="stylesheet" type="text/css"/>
 <style type="text/css"/>
 <g transform="translate(-9.6964 138.94)">
  <g transform="matrix(3.5867 0 0 3.5867 8.1183 -138.94)" fill="#666464">
   <path d="m18.331 0-0.463 0.578v5.021l2.894-3.61-2.43-1.989h-1e-3m-5.601 6.99v13.88h3.128v-17.783l-3.128 3.902v1e-3m5.139 1.838v12.044h3.128v-15.947l-3.128 3.902v1e-3m-16.267 12.043h4.025l5.091-6.351v-5.022l-9.116 11.373m16.268 12.866h3.128v-5.643h-3.128v5.643m-5.14 5.192h3.128v-10.835h-3.128v10.836-1e-3m5.139 0h7.82v-3.16h-7.82v3.16m-10.277 0h3.128v-3.16h-3.13v3.16h2e-3" fill-rule="evenodd"/>
  </g>
  <g transform="matrix(3.5867 0 0 3.5867 8.1183 -138.94)" fill="#00e1c3">
   <path d="m20.744 22.903-2.533 3.16h10.11v-3.16h-7.577" fill-rule="evenodd"/>
  </g>
  <g transform="matrix(3.5867 0 0 3.5867 8.1183 -138.94)" fill="#fadc00">
   <path d="m0.44 26.063h15.417v-3.16h-15.416l-1e-3 3.16" fill-rule="evenodd"/>
  </g>
 </g>
</svg>
