<?xml version="1.0" encoding="UTF-8"?>
<svg id="svg18" width="1223.8pt" height="364.94pt" version="1.1" viewBox="0 0 1223.8 364.93" xmlns="http://www.w3.org/2000/svg" xmlns:cc="http://creativecommons.org/ns#" xmlns:dc="http://purl.org/dc/elements/1.1/" xmlns:rdf="http://www.w3.org/1999/02/22-rdf-syntax-ns#">
 <metadata id="metadata24">
  <rdf:RDF>
   <cc:Work rdf:about="">
    <dc:format>image/svg+xml</dc:format>
    <dc:type rdf:resource="http://purl.org/dc/dcmitype/StillImage"/>
    <dc:title/>
   </cc:Work>
  </rdf:RDF>
 </metadata>
 <g id="g4516" transform="matrix(2.513 0 0 2.513 -167.14 -86.052)" fill="#fff">
  <path id="path11" d="m410.69 68.72h13.48v30.61h35.12v-30.61h13.4l-0.01 75.57h-13.39v-33.61h-35.12v33.61h-13.48z"/>
  <path id="path13" d="m485.39 144.29-1.3e-4 -75.57h23.444c6.0499 0 12.067 0.51089 17.987 1.9996 8.12 2.11 15.73 6.83 20.51 13.82 5.79 8.04 6.91 18.48 5.78 28.08-1.3 11-8.5 20.97-18.31 26.02-7.53 4.19-16.27 5.47-24.77 5.64-8.29 0-16.488 0.01-24.64 0.01m13.37-64.03v52.17c9.57-0.14 19.76 0.82 28.45-4.03 7.72-3.94 12.25-12.78 11.66-21.33 0.72-8.59-2.78-17.84-10.4-22.38-5.5967-3.407-11.945-4.1488-18.359-4.3126-3.8085-0.097268-7.7258-0.11742-11.351-0.11742z"/>
 </g>
 <path id="path3013" d="m-7.7693-5e-5h800v364.94h-800z" fill="#fff"/>
 <g id="g829" transform="matrix(.8 0 0 .8 -40.383 -138.68)">
  <path id="path2998" d="m266.87 274.94c-80.221 0-106.48 50.628-106.48 78.632h55.347c1.8856-14.799 17.342-31.808 53.013-31.808 36.316 0 50.528 22.826 50.528 51.694h-26.989c-90.17 0-141.03 24.989-141.03 80.459 0 39.61 39.004 74.878 89.692 74.878 31.916 0 68.01-15.194 79.85-24.858l0.81169 18.466h51.948v-136.36c0-68.665-27.411-111.1-106.69-111.1zm33.533 141.74h19.582v13.646c0 28.47-27.901 51.238-67.776 51.238-24.345 0-44.744-8.9023-44.744-26.025 0-23.562 18.582-38.86 92.938-38.86z"/>
  <path id="path3007" d="m407.65 522.38v-241.06h86.039l47.094 175.12 45.438-175.12h87.662v241.06h-55.514v-183.66l-51.629 183.66h-52.702l-51.194-183.29v183.29z"/>
  <path id="path3011" d="m877.85 431.5h55.659c-8.2498 45.804-49.721 97.403-114.94 97.403-82.17 0-118.27-71.161-118.27-126.39 0-74.856 47.257-127.41 117.84-127.41 62.001 0 105.53 45.023 114.65 97.113h-54.644c-6.3733-20.043-25.966-47.107-60.007-47.107-38.354 0-64.5 38.203-64.5 76.241 0 45.685 31.122 77.255 64.355 77.255 30.377 0 52.602-23.554 59.862-47.107z"/>
 </g>
</svg>
