<svg height="3.634427mm" viewBox="0 0 33.061001 12.877892" width="9.330549mm" xmlns="http://www.w3.org/2000/svg"><g transform="translate(-329.66446 -228.7806)"><g fill="#353638"><path d="m350.99621 228.7811-.71625 7.50875h.7975l.10125-1.3625h.56125l.0825 1.3625h.885l-.70875-7.50875zm.48375 2.015.195 3.18125h-.42125z"/><path d="m337.37921 228.7811v4.16375l-.75125-4.16375h-.8925v7.50875h.73375l-.001-4.10625.9025 4.10625h.7325v-7.50875h-.72375z"/><path d="m352.94483 228.7811v7.5075h3.105v-1.47375h-1.41375v-6.03375z"/><path d="m331.36946 228.7811-1.705 12.87625h2.285l.24125-2.01125h1.15875l.16125 2.01125h2.67l-1.73875-12.87625zm1.03125 8.58.4825-4.2325.32125 4.2325z"/><path d="m338.57633 228.7811v7.50875h2.0175l-.001-7.50875h-2.01625z"/><path d="m348.56383 236.64635v2.39875l-1.275-2.39875h-1.15875v5.01125h1.19625v-2.355l1.325 2.355h1.1025v-5.01125z"/><path d="m350.04083 236.64635v5.01125h2.68125v-1.0525h-1.34v-1.04h1.275v-.95125h-1.275v-.96375h1.30625v-1.00375z"/><path d="m338.21771 238.70085c0 .14375-.0875.2-.23.2h-.215v-1.24h.215c.1425 0 .23.0562.23.20125zm.006-2.055h-1.79125v5.01125h1.34v-1.74125h.45125c.6425 0 1.24625-.40125 1.24625-1.04v-1.19c0-.6325-.60375-1.04-1.24625-1.04"/><path d="m352.92783 237.6506h.88625v4.0075h1.34v-4.0075h.88375v-1.0035l-3.11-.00025z"/><path d="m341.0832 236.64247h-1.3475v5.0125h2.52625v-1.08375h-1.17875z"/><path d="m343.91796 239.9956.21375-1.71625.22125 1.71625zm1.08875-3.35375h-1.6575l-.9175 5.0125h1.27875l.0863-.69125h.68125l.0888.69125h1.36125l-.92125-5.0125z"/></g><g fill="#6ccef1"><path d="m350.04033 231.8481v-3.0675h-9.00125v1.81625h5.73875l-5.73875 1.12625v1.31375l5.72625 1.25125h-5.72625v2.00125h9.00125v-2.915l-4.1075-.78875z"/><path d="m356.36946 236.6471h1.305v1.787h.392v-1.787h1.307v5.011h-1.30689l-.00011-2.104h-.392v2.104h-1.305z"/><path d="m359.71752 236.64172c.61754.00095 1.23603-.0156 1.85309.0246.34539.0226.73046.10538.94922.39973.19703.24002.2009.56367.20563.85851v2.64734c-.009.27594-.0147.5873-.21508.80087-.2164.22727-.54807.26884-.84575.28018-.65061.01-1.30122.003-1.95183.005l.005-5.01085m1.29792.85181.004 3.30553c.11575-.0132.25824-.006.34045-.10538.0695-.14222.0625-.30665.0716-.46021v-2.1276c-.009-.1597.0161-.32791-.0384-.481-.0661-.14174-.24278-.13135-.37365-.13135z"/></g></g></svg>