<?xml version="1.0" encoding="UTF-8"?>
<!-- Created with Inkscape (http://www.inkscape.org/) -->
<svg id="svg92786" width="9.3305mm" height="3.6344mm" version="1.1" viewBox="0 0 33.061 12.878" xmlns="http://www.w3.org/2000/svg" xmlns:cc="http://creativecommons.org/ns#" xmlns:dc="http://purl.org/dc/elements/1.1/" xmlns:rdf="http://www.w3.org/1999/02/22-rdf-syntax-ns#">
 <metadata id="metadata92791">
  <rdf:RDF>
   <cc:Work rdf:about="">
    <dc:format>image/svg+xml</dc:format>
    <dc:type rdf:resource="http://purl.org/dc/dcmitype/StillImage"/>
    <dc:title/>
   </cc:Work>
  </rdf:RDF>
 </metadata>
 <g id="layer1" transform="translate(-329.66 -228.78)">
  <path id="path12376" d="m351 228.78-0.71625 7.5088h0.7975l0.10125-1.3625h0.56125l0.0825 1.3625h0.885l-0.70875-7.5088h-1.0025zm0.48375 2.015 0.195 3.1812h-0.42125l0.22625-3.1812z" fill="#353638"/>
  <path id="path12380" d="m337.38 228.78v4.1638l-0.75125-4.1638h-0.8925v7.5088h0.73375l-1e-3 -4.1062 0.9025 4.1062h0.7325v-7.5088h-0.72375z" fill="#353638"/>
  <path id="path12392" d="m352.94 228.78v7.5075h3.105v-1.4738h-1.4138v-6.0338h-1.6912z" fill="#353638"/>
  <path id="path12404" d="m331.37 228.78-1.705 12.876h2.285l0.24125-2.0112h1.1588l0.16125 2.0112h2.67l-1.7388-12.876h-3.0725zm1.0312 8.58 0.4825-4.2325 0.32125 4.2325h-0.80375z" fill="#353638"/>
  <path id="path12408" d="m338.58 228.78v7.5088h2.0175l-1e-3 -7.5088h-2.0162z" fill="#353638"/>
  <path id="path12412" d="m348.56 236.65v2.3988l-1.275-2.3988h-1.1588v5.0112h1.1962v-2.355l1.325 2.355h1.1025v-5.0112h-1.19z" fill="#353638"/>
  <path id="path12416" d="m350.04 236.65v5.0112h2.6812v-1.0525h-1.34v-1.04h1.275v-0.95125h-1.275v-0.96375h1.3062v-1.0038h-2.6475z" fill="#353638"/>
  <path id="path12420" d="m338.22 238.7c0 0.14375-0.0875 0.2-0.23 0.2h-0.215v-1.24h0.215c0.1425 0 0.23 0.0562 0.23 0.20125v0.83875zm6e-3 -2.055h-1.7912v5.0112h1.34v-1.7412h0.45125c0.6425 0 1.2462-0.40125 1.2462-1.04v-1.19c0-0.6325-0.60375-1.04-1.2462-1.04" fill="#353638"/>
  <path id="path12424" d="m352.93 237.65h0.88625v4.0075h1.34v-4.0075h0.88375v-1.0035l-3.11-2.5e-4z" fill="#353638"/>
  <path id="path12428" d="m341.08 236.64h-1.3475v5.0125h2.5262v-1.0838h-1.1788v-3.9288z" fill="#353638"/>
  <path id="path12432" d="m343.92 240 0.21375-1.7162 0.22125 1.7162h-0.435zm1.0888-3.3538h-1.6575l-0.9175 5.0125h1.2788l0.0863-0.69125h0.68125l0.0888 0.69125h1.3612l-0.92125-5.0125z" fill="#353638"/>
  <path id="path12436" d="m350.04 231.85v-3.0675h-9.0012v1.8162h5.7388l-5.7388 1.1262v1.3138l5.7262 1.2512h-5.7262v2.0012h9.0012v-2.915l-4.1075-0.78875 4.1075-0.7375z" fill="#6ccef1"/>
  <path id="path31" d="m356.37 236.65h1.305v1.787h0.392v-1.787h1.307v5.011h-1.3069l-1.1e-4 -2.104h-0.392v2.104h-1.305z" fill="#6ccef1"/>
  <path id="path33" d="m359.72 236.64c0.61754 9.5e-4 1.236-0.0156 1.8531 0.0246 0.34539 0.0226 0.73046 0.10538 0.94922 0.39973 0.19703 0.24002 0.2009 0.56367 0.20563 0.85851v2.6473c-9e-3 0.27594-0.0147 0.5873-0.21508 0.80087-0.2164 0.22727-0.54807 0.26884-0.84575 0.28018-0.65061 0.01-1.3012 3e-3 -1.9518 5e-3l5e-3 -5.0108m1.2979 0.85181 4e-3 3.3055c0.11575-0.0132 0.25824-6e-3 0.34045-0.10538 0.0695-0.14222 0.0625-0.30665 0.0716-0.46021v-2.1276c-9e-3 -0.1597 0.0161-0.32791-0.0384-0.481-0.0661-0.14174-0.24278-0.13135-0.37365-0.13135z" fill="#6ccef1"/>
 </g>
</svg>
