<svg height="40.562248mm" viewBox="0 0 685.12499 143.7245" width="193.3575mm" xmlns="http://www.w3.org/2000/svg"><g transform="translate(213.99107 -480.49995)"><g transform="matrix(1.25 0 0 1.25 -217.69107 474.18745)"><path d="m395.93 5.05 132.63.05 22.5 114.9296h-132.92l-22.21-114.9296" fill="#d70202"/><path d="m492.99 52.99c-2.72-5.96 3.09-6.63 6.89-6.07l.74.33c1.67 2.08 3.82 3.73 6.08 5.12.43 1.22.86 2.44 1.23 3.69.01 3.28.1 6.58.08 9.88l-.17.81c-1.86 2.23-3.66 4.52-5.19 6.99-.58 1.66-2.45 1.28-3.84 1.46-1.92-.21-3.85-.41-5.72-.91-.02-.56-.07-1.67-.09-2.22 0-6.36-.08-12.72-.01-19.08z" fill="#d70202"/></g><g fill="#fff" transform="matrix(.99945634 0 0 .99945628 314.99454 518.37545)"><path d="m-.00010681 0h15.65075781v24.778701h19.779633v-24.778701h15.842664v65.42407h-15.554807v-28.25466h-19.971537v28.25466h-15.74671081v-65.42407" fill="#fff"/><path d="m82.331098 53.73997h4.855499c1.68882.00001 3.34252-.11881 4.96104-.35645 1.68882-.23762 3.166606-.802 4.433299-1.69311 1.337006-.95051 2.392534-2.3169 3.166619-4.09911.844375-1.84162 1.266635-4.336735 1.266635-7.485178-.00005-1.128722.0352-2.465411.10554-4.010012.0704-1.544546.10554-2.881235.10554-4.010011-.00005-3.920852-.14078-7.247885-.42222-9.980232-.28152-2.732726-1.090782-4.901065-2.427776-6.505069-.844505-1.009861-1.724072-1.782161-2.638878-2.316902-.914866-.534615-2.005587-.920755-3.272161-1.158423-1.19632-.296991-2.638866-.445511-4.327758-.44556-1.618519-.05935-3.553674-.08906-5.805474-.08911v42.149917m-17.310781-53.734154h18.788828c4.714695.000066 8.725487.207994 12.033408.623792 3.30734.356514 6.086952.891162 8.338942 1.604005 2.32218.712951 4.22215 1.604058 5.69993 2.673322 1.47774 1.00997 2.77954 2.198149 3.90551 3.564431.84438 1.069373 1.5481 2.198149 2.11108 3.38622.63327 1.18818 1.12584 2.673377 1.47779 4.455592.35178 1.722866.59808 3.831855.73889 6.326968.21105 2.495166.31661 5.584151.31668 9.267823l-.10554 11.138981c-.00006 1.841673-.17599 3.71299-.52777 5.61402-.28155 1.84167-.80932 3.59418-1.58334 5.25759-.77414 1.66341-1.86487 3.20801-3.27222 4.6338-1.40743 1.36639-3.16668 2.49512-5.27775 3.38622-2.81485 1.18818-5.5241 1.99019-8.127974 2.40601-2.533326.35645-5.348118.65349-8.444424.89111-.562991.0594-1.653699.11882-3.272159.17822h-5.805486-7.916364-9.077962v-65.40907" fill="#fff"/></g><path d="m-213.99107 480.49995 473.6375.0625 27.4375 143.662h-472.2125l-28.8625-143.662" fill="#bb233e"/><g fill="#fff" transform="matrix(.53519978 0 0 .53519978 -163.91307 499.66344)"><path d="m68.228346 91.015 19.175 19.397s-12.939 30.991-55.294 32.552c-35.6009997.132-32.00799968-36.343-32.00799968-36.343s4.80799998-61.537 78.60699968-71.793c0 0 49.498004-9.587 52.619004 39.241 0 0-.154 39.73-14.891 68.936h-29.750004s16.770004-50.652 15.655004-70.719-12.708004-22.742-22.965004-21.627-54.904 12.506-56.855 50.389c0 0-1.561 12.04 8.026 11.817.001 0 15.378 1.632 37.681-21.85z"/><path d="m445.22835 91.015 19.175 19.397s-12.939 30.991-55.295 32.552c-35.6.132-32.008-36.343-32.008-36.343s4.808-61.537 78.607-71.793c0 0 49.498-9.587 52.619 39.241 0 0-.154 39.73-14.892 68.936h-29.749s16.77-50.652 15.655-70.719-12.708-22.742-22.965-21.627-54.904 12.506-56.854 50.389c0 0-1.562 12.04 8.025 11.817.001 0 15.378 1.632 37.682-21.85z"/><path d="m138.78235 143.006s15.063-64.701 22.421-80.085 34.113-18.283 44.146-18.283h45.261s2.453 16.053-32.106 14.938-36.193 12.68-36.193 12.68l-16.125 70.75z"/><path d="m281.78235 143.006s15.063-64.701 22.421-80.085c7.357-15.384 34.112-18.283 44.146-18.283h45.261s2.453 16.053-32.105 14.938c-34.56-1.115-36.193 12.679-36.193 12.679l-16.125 70.75h-27.405z"/><path d="m261.31135 44.638s-26.984 96.584-27.876 98.368h29.001s21.172-76.072 25.631-98.368z"/><path d="m284.72235 0s-14.716.27-18.506 18.553c-.446 11.371 11.371 11.148 11.371 11.148s13.601.445 17.837-10.256 5.797-19.445-10.702-19.445z"/><path d="m508.20335 143.006 23.733-98.368h59s37.228.259 34.525 19.002-16.381 74.975-19.082 79.365h-26.511s17.224-69.74 17.393-73.455 0-8.95-18.237-9.119-22.966-.337-24.316 5.235-17.562 68.558-17.562 68.558-2.194 8.612-10.807 8.781-18.136.001-18.136.001z"/><path d="m707.06135 45.506s-63.913 2.092-71.344 65.415c-2.026 34.279 32.111 32.085 33.969 32.085 0 0 28.171 1.687 39.654-13.173 0 0-7.183 53.043-40.279 50.173l-13.146-.122-4.663 15.116s37.993 4.067 56.399-12.819 37.304-39.176 41.448-101.486c.001-.001 1.022-41.606-42.038-35.189zm15.972 33.853c-6.404 43.161-41.908 42.326-41.908 42.326s-26.314 2.228-22.973-20.606c7.24-42.326 45.945-42.883 45.945-42.883s20.885-2.506 18.936 21.163z"/></g></g></svg>