<svg height="433.23453pt" viewBox="0 0 1993.17 433.23453" width="1993.17pt" xmlns="http://www.w3.org/2000/svg"><path d="m75.84.05489079h479.33c20.47 1.71000001 41.51 5.50000001 59.25 16.46000021 11.19 6.78 20.41 17.42 23.71 30.26 2.4 8.23 1.61 16.87 1.48 25.31-.55 20.51-2.22 41.079999-6.69 61.139999-3.99 17.71-10.43 35.1-20.83 50.09-8.86 12.87-20.89 23.5-34.72 30.76 9.08 3.66 17.97 8.56 24.19 16.33 9.99 12.05 12.46 28.41 11.96 43.61-.93 25.9-8.8 50.79-13.18 76.18-2.12 11.26-6.42 22.1-12.49 31.82-17.35 27.65-48.06 45.17-79.95 50-5.27456.90053-10.59375 1.21963-15.92466 1.21963h-491.97534zm116.48 171.69999921h286.33l9.58-48.9696h-286.71zm-14.81 89.78-10.23 47.6504h294.89l7.38-47.6504-33.73-.28z"/><path d="m1922.57.05489079h70.6l-263.11 210.18999921 209.5 222.98963h-215.78l-112.88-123.87963-167.6 123.87963h-81.13z"/><path d="m735.23 23.384891c21.43-15.5400002 48.4-24.16000021 74.64-23.33000021h454.52l-20.31 121.49999921h-404.76l-12.34 52.18h344.76c19.44 1.6 37.89 12.32 48.85 28.47 8.22 11.74 12.11 26.52 10.32 40.79-5.28 42.13-10.94 84.55-24.09 125.08-5.39 16.31-16.22 30.61-30.05 40.71-19.48 14.43-43.8 23.62963-67.83 24.44963h-474.43c8.34-39.92 15.46-83.52003 21.9-123.79003h416.47l9.23-50.5096h-331.25c-17.56.31-35.39-6.67-48.87-18.04-10.9-9.2-18.84-22.41-20.08-36.77-.77-45.48 8.16-90.52 20.57-134.069999 4.74-18.89 17.01-35.42 32.75-46.67z"/><path d="m1314.3 0h204.74l108.49 114.62 154.34-114.62h80.73l-555.72 433.17963h-78.09l278.09-219.31963z" fill="#d54799" transform="translate(-.14 .054891)"/></svg>