<?xml version="1.0" encoding="UTF-8" standalone="no"?>
<svg
   xmlns:dc="http://purl.org/dc/elements/1.1/"
   xmlns:cc="http://creativecommons.org/ns#"
   xmlns:rdf="http://www.w3.org/1999/02/22-rdf-syntax-ns#"
   xmlns:svg="http://www.w3.org/2000/svg"
   xmlns="http://www.w3.org/2000/svg"
   xmlns:sodipodi="http://sodipodi.sourceforge.net/DTD/sodipodi-0.dtd"
   xmlns:inkscape="http://www.inkscape.org/namespaces/inkscape"
   width="1993.17pt"
   height="433.23453pt"
   viewBox="0 0 1993.17 433.23453"
   version="1.1"
   id="svg2"
   inkscape:version="0.91 r13725"
   sodipodi:docname="Babestation BSX.svg">
  <metadata
     id="metadata18">
    <rdf:RDF>
      <cc:Work
         rdf:about="">
        <dc:format>image/svg+xml</dc:format>
        <dc:type
           rdf:resource="http://purl.org/dc/dcmitype/StillImage" />
        <dc:title></dc:title>
      </cc:Work>
    </rdf:RDF>
  </metadata>
  <defs
     id="defs16" />
  <sodipodi:namedview
     pagecolor="#ffffff"
     bordercolor="#666666"
     borderopacity="1"
     objecttolerance="10"
     gridtolerance="10"
     guidetolerance="10"
     inkscape:pageopacity="0"
     inkscape:pageshadow="2"
     inkscape:window-width="1920"
     inkscape:window-height="1017"
     id="namedview14"
     showgrid="false"
     fit-margin-top="0"
     fit-margin-left="0"
     fit-margin-right="0"
     fit-margin-bottom="0"
     inkscape:zoom="0.35355339"
     inkscape:cx="1620.7922"
     inkscape:cy="-186.25302"
     inkscape:window-x="-8"
     inkscape:window-y="-8"
     inkscape:window-maximized="1"
     inkscape:current-layer="svg2" />
  <path
     sodipodi:nodetypes="ccccccccccccccccccccccccccc"
     style="opacity:1;fill:#ffffff;fill-opacity:1"
     inkscape:connector-curvature="0"
     id="path5"
     d="m 75.84,0.05489079 479.33,0 c 20.47,1.71000001 41.51,5.50000001 59.25,16.46000021 11.19,6.78 20.41,17.42 23.71,30.26 2.4,8.23 1.61,16.87 1.48,25.31 -0.55,20.51 -2.22,41.079999 -6.69,61.139999 -3.99,17.71 -10.43,35.1 -20.83,50.09 -8.86,12.87 -20.89,23.5 -34.72,30.76 9.08,3.66 17.97,8.56 24.19,16.33 9.99,12.05 12.46,28.41 11.96,43.61 -0.93,25.9 -8.8,50.79 -13.18,76.18 -2.12,11.26 -6.42,22.1 -12.49,31.82 -17.35,27.65 -48.06,45.17 -79.95,50 -5.27456,0.90053 -10.59375,1.21963 -15.92466,1.21963 L 0,433.23452 75.84,0.05489079 M 192.32,171.75489 l 286.33,0 9.58,-48.9696 -286.71,0 -9.2,48.9696 m -14.81,89.78 -10.23,47.6504 294.89,0 7.38,-47.6504 -33.73,-0.28 z" />
  <path
     sodipodi:nodetypes="ccccccccc"
     style="opacity:1;fill:#ffffff;fill-opacity:1"
     inkscape:connector-curvature="0"
     id="path7"
     d="m 1922.57,0.05489079 70.6,0 -263.11,210.18999921 209.5,222.98963 -215.78,0 -112.88,-123.87963 -167.6,123.87963 -81.13,0 z" />
  <path
     sodipodi:nodetypes="ccccccccccccccccccccc"
     style="opacity:1;fill:#ffffff;fill-opacity:1"
     inkscape:connector-curvature="0"
     id="path9"
     d="M 735.23,23.384891 C 756.66,7.8448908 783.63,-0.77510921 809.87,0.05489079 l 454.52,0 -20.31,121.49999921 -404.76,0 -12.34,52.18 344.76,0 c 19.44,1.6 37.89,12.32 48.85,28.47 8.22,11.74 12.11,26.52 10.32,40.79 -5.28,42.13 -10.94,84.55 -24.09,125.08 -5.39,16.31 -16.22,30.61 -30.05,40.71 -19.48,14.43 -43.8,23.62963 -67.83,24.44963 l -474.43,0 c 8.34,-39.92 15.46,-83.52003 21.9,-123.79003 l 416.47,0 9.23,-50.5096 -331.25,0 c -17.56,0.31 -35.39,-6.67 -48.87,-18.04 -10.9,-9.2 -18.84,-22.41 -20.08,-36.77 -0.77,-45.48 8.16,-90.52 20.57,-134.069999 4.74,-18.89 17.01,-35.42 32.75,-46.67 z" />
  <g
     id="#d54799ff"
     transform="translate(-0.14,0.05489079)">
    <path
       d="M 1314.3,0 1519.04,0 1627.53,114.62 1781.87,0 l 80.73,0 -555.72,433.17963 -78.09,0 L 1506.88,213.86 Z"
       id="path12"
       inkscape:connector-curvature="0"
       style="opacity:1;fill:#d54799"
       sodipodi:nodetypes="ccccccccc" />
  </g>
</svg>
