<svg height="749.77057pt" viewBox="0 0 1186.0758 749.77057" width="1186.0758pt" xmlns="http://www.w3.org/2000/svg" xmlns:xlink="http://www.w3.org/1999/xlink"><radialGradient id="a" cx="270.77756" cy="312.42801" gradientTransform="matrix(3.1032892 -1.1447473 .17779559 .48198501 -719.40294 342.41584)" gradientUnits="userSpaceOnUse" r="206.99487"><stop offset="0" stop-color="#fee203"/><stop offset=".18635927" stop-color="#f4c619"/><stop offset=".52781802" stop-color="#e99d23"/><stop offset="1" stop-color="#d27d2a"/></radialGradient><radialGradient id="b" cx="369.9194" cy="508.41135" gradientTransform="matrix(6.8191286 -.89284384 .05451141 .4163328 -2283.8865 411.22011)" gradientUnits="userSpaceOnUse" r="335.99048"><stop offset="0" stop-color="#f9e40f"/><stop offset=".16869803" stop-color="#f9e40f"/><stop offset="1" stop-color="#dda218"/></radialGradient><linearGradient id="c" gradientUnits="userSpaceOnUse" x1="109.02621" x2="551.43686" y1="546.661453" y2="546.661453"><stop offset="0" stop-color="#f6d222"/><stop offset="1" stop-color="#e99f24"/></linearGradient><radialGradient id="d" cx="561.04138" cy="761.81598" gradientTransform="matrix(.12819933 .35683208 -1.4435041 .51860895 1455.8801 80.738603)" gradientUnits="userSpaceOnUse" r="287.965"><stop offset="0" stop-color="#c67027"/><stop offset="1" stop-color="#f9e306"/></radialGradient><path d="m957.42637 303.47021c-11.28008.15002-22.37993 5.02047-30.10988 13.23048-7.9602 8.22996-12.12075 19.67159-11.8008 31.10156l-.012 165.23877h223.85161c7.12.28999 14.3608-.77136 20.9209-3.63135 15.4601-6.55999 26.0688-22.79965 25.7886-39.61963l.01-166.31983z" fill="#910000" stroke-width=".999998"/><path d="m464.41636.00001c-16.53 20.91-35.88 39.739786-57.75 55.029789-16.67001 11.289998-35.42934 20.850074-55.81934 22.330074-.5-.04-1.49047-.12992-1.98047-.16992.16-1.28.30041-2.559354.42041-3.839356 1.42-6.24 3.78905-12.24039 6.76904-17.900393 7.90001-16.209995 18.45975-30.969998 26.23975-47.249998-32 6.68-63.25998 17.209648-92.47998 31.889648-4.62 1.660001-9.08957 4.170704-13.30957 6.720704-2.57 3.509999-4.42004 7.509261-7.04004 10.989261-16.54 24.330004-39.93006 43.610381-66.06006 56.900381-8.49 4.58-17.56916 7.93002-26.38916 11.77002-19.65 22.2-36.4108 46.88993-50.5708 72.91992 21.68-.42999 43.35027-1.06941 65.03027-1.6494 20.71-.53001 41.49018-2.35022 61.68018-7.22022 25.59-6.41 49.95967-16.81977 73.65967-28.25977 16.65-7.7 32.78964-16.45026 49.13965-24.76026 17.81999-9.60999 35.99015-18.86964 52.16015-31.13964l.12012.0996c40.47001-28.549997 77.96971-61.240489 112.19971-97.000488-14.21-2.88-28.57902-5.049435-42.99903-6.669435-10.98-1.289999-22.0605-1.310526-33.0205-2.790527z" fill="url(#a)"/><path d="m641.3563 48.61085c-5.96 28.220003-11.55033 57.05998-25.34033 82.72998-9.22 17.49-19.90961 34.24916-32.34961 49.63916-19.28 24.01-41.81037 45.82063-68.38037 61.64063-20.99 12.18999-44.89008 18.46971-68.83008 21.4497-22.23001 2.92-44.68909 2.65004-67.05908 2.54004-25.00001-.14-50.01-1.39972-75-.21972-14.33.39999-28.59063 2.02898-42.89063 2.95898-25.54 2.4-51.3492 4.31135-76.1792 11.13135-16.8 4.49-31.55092 13.9391-46.19092 22.9691h551.46975c12.69-14.18 26.18048-27.84949 41.73045-38.90949 13.11998-8.92999 28.07963-16.03084 44.11965-17.11084 11.71995-1.35999 23.3211 1.60118 34.6611 4.20117-13.71-40.69999-34.50082-79.23125-62.34082-112.03125-6.19995-7.60999-12.8697-14.80888-19.42965-22.10888-2.79 1.96999-4.61025 4.90954-6.7002 7.53955-4.91053 7.14298-9.52524 13.20289-13.4004 19.66992-4.38998 8.05-8.12025 16.45047-12.53025 24.48047-3.48 6.35-9.48953 11.4902-16.76955 12.70019-.59003-12 .43972-24.0109 1.25977-35.9209 2.44995-20.91 5.8803-41.72994 10.8603-62.189937.68003-1.35-1.09972-1.93021-1.77975-2.72021-15.51997-11.950004-31.9002-22.768964-48.93018-32.438968z" fill="url(#b)"/><path d="m662.17637 512.95057c37.97.1 75.94.08 113.91 0-14.51 26.55-34.04 49.93973-53.6 72.85973-4.09 4.89-8.22 9.77-12.94 14.06-10.19 10.3-19.29 21.66-27.54 33.55-4.41 6.7-9.12 13.46-11.22 21.31 6.57-1.83 11.78-6.43 17.17-10.38 18.55-14.97 35.69-31.66 51.74-49.27 18.12-19.82 32.95-42.33 46.85-65.22 3.74-5.85 7.5-11.85973 12.31-16.90973 2.15.03 4.32.04 6.49 0-3.29 10.56-8.42 20.52973-13.15 30.49973-21.04 41.99-50.34 79.54-84.25 111.91-45.29 42.8-102.78 72.04-163.54 85.36-81.11 17.89-168.01 9.13-243.73-25.15-25.35-11.65-49.62-25.99-71.26-43.66 15.05-3.55 30.61-4 46-3.66 22.36.32 44.59 3.09 66.93 3.83 25.45 1.24 50.85-1.43 76.14-3.87 41.99-4.75 84.36-11.91 123.3-28.96 20.39-8.95 39.41-21.19 55.52-36.6 26.97-25.61 45.7-58.20973 64.87-89.69973z" fill="url(#d)"/><path d="m109.45535 512.95057.42048 1.09971c5.68999 14.54 12.5708 28.5799 19.8208 42.3999 2.16 5.1 5.77926 10.60063 11.73926 11.39062 5.34482.66378 10.53675-.30803 15.66576-1.67151 6.63643-1.63285 12.28153-3.70203 18.66917-5.16086 2.92667-.66453 5.88603-1.18099 8.86624-1.53774 8.53999-1.43 17.12967.21974 25.65967.73975 23.58999 2.89999 46.82021 7.9705 70.22021 12.0205 5.19.76 10.30907 2.26908 15.53906 2.55909 42.80001 7.92999 87.00038 7.57989 129.88038.3999 38.56-6.9 77.21994-19.91924 107.93994-44.96924 6.16-5.34 12.59055-10.76012 17.56054-17.27012z" fill="url(#c)"/><g transform="matrix(1.3967656 0 0 1.3967656 -1919.9742 1173.5325)"><path d="m2017.5758-622.92659v119.11821c-.086 7.66055-2.8852 15.34975-8.1903 20.94839-5.4985 6.02106-13.4525 9.71551-21.6071 9.92314h-613.1926c.064-39.64875.014-79.30487.029-118.95363.2578-7.09497 2.5345-14.24004 7.1236-19.73846 4.8684-6.00674 12.078-10.10192 19.7743-11.01116 2.8495-.39377 5.7275-.2794 8.5985-.28656" fill="#910000" stroke-width=".71594"/><g fill="#fbfdfc" transform="matrix(.77041705 0 0 .77041748 1486.3163 -608.38795)"><path d="m282.43 13.79c10.6-1.33 21.95-.52 31.08 5.54 5.89 2.97 8.66 9.52 9.76 15.68 1.29 7.99-2.32 15.81-7.26 21.88-7.42 8.83-18.39 13.63-29.18 16.94-9.25 2.91-19.15 3.86-28.74 2.35-9.86-1.76-18.59-9.48-20.56-19.44-2.14-8.61 1.58-17.55 7.1-24.09 9.6-10.81 23.88-16.28 37.8-18.86m1.09 18.9c-9.8 1.9-18.82 7.01-26.09 13.77-1.99 1.57-2.91 4.42-1.82 6.79 1.75 1.79 4.21 2.66 6.62 3.12 10.76 1.3 21.56-1.6 31.32-5.99 4.42-2.26 9.31-4.83 11.6-9.49 1.12-2.43-.58-5.08-2.72-6.24-5.71-3.3-12.63-3.47-18.91-1.96z"/><path d="m231.17 16.589598.01 13.770402-21.94.33v112.63l-19.03-.01-.48-112.83-39.5-.03-.31 112.85-18.03.07c-2.17-4.62-5-9.01-9.09-12.17-12.75-10.54-27.86-17.83-43.22-23.72-14.68-5-29.57-9.34-44.46-13.67-2.43-.8-5.21-.96-7.28-2.59l-8.31-16.49 111.66-44.1c-37.2-.39-74.42-.04-111.62-.19-.09-4.61-.11-9.230402.01-13.850402m35.31 62.440402 75.9 29.2-.07-57.24z"/><path d="m354.57 16.62 233.76.03v13.830444h-17.60975v112.799556l-18.92025-.02-.09-112.779556-37.40981-.000444v112.71l-18.99019.07-.07-60.32c.01-3.47-2.87-5.82-5.32-7.82-7.95-5.92-18.45-8.09-28.14-6.18-4.47 1.11-8.68 3.72-11.1 7.7-1.45 2.36-2.16 5.07-3.31 7.57-2.12 4.82-8.96 6.85-13.28 3.76-4.22-3.07-7.63-7.13-11.99-10.02-7.32-5.1-16.03-8.89-25.09-8.67-9.08-.38-18.05 3.08-25.26 8.46-4.15 3.13-7.75 7.85-7.42 13.3 4.87-2.95 10.04-5.69 15.85-6.04 10.83-.78 23.03 3.09 28.89 12.84 2.92 4.2 3.24 9.62 2.16 14.48-2.47 5.66-7.9 9.42-13.53 11.53-7.87 3.01-16.8 3.95-24.94 1.52-12.32-4.51-22.49-15.23-25.35-28.16-4.13-17.27 6.7-34.96 21.69-43.05 15.37-7.95 34.07-5.59 49.48 1.03 6.1 2.3 11.34 6.25 17.22 8.98 10.66-12.97 29.49-17.19 45.25-12.52 5.13 1.27 9.46007 4.41 14.19007 6.63v-27.81l-140.67007-.02z"/><path d="m244.75 96.72c17.13-.91 34.46.65 51 5.25 12.31 3.47 24.44 9.69 32.09 20.26 4.31 6.2 6.14 13.99952 6.53 21.45952h-20.79c-1.3-3.38-1.98-7.09952-4.24-10.02952-4.4-5.87-11.11-9.45-17.87-11.92-14.96-5.08-30.94-6.36-46.65-6.1z"/></g></g><g fill="#fff"><path d="m975.38474 400.87536-.014 16.19244 17.2127-.0205-.027 76.96341 17.20566.007v-76.95662l17.2873-.0141-.02-16.14483-51.65116-.0272m64.67446.0272 36.1594 93.12864 14.1386-.0141 35.8532-93.13544-17.9197-.0141-25.0267 70.89724-25.0468-70.85639-18.1579-.007z" stroke-width=".680069"/><g transform="matrix(.23883507 0 0 .23883507 438.34043 418.50746)"><path d="m2614.7541-392.27858c14.12-7.86 30.84-11.29 46.87-8.79 15.33 2.41 30.14 9.36 41.01 20.56 6.21 6.01 11.34 13.22 14.38 21.35l-29.88.07c-6.52-9.31-16.48-16.1-27.68-18.25-11.73-2.09-24.44-.32-34.51 6.28-11.48 7.39-18.75 20.21-20.89 33.52-2.3 13.58 2.43 27.77 11.34 38.1 14.72 17.2 42.64 20.86 61.39 8.23 6.39-4.28 12-10.14 15-17.29l-56.88-.06v-23.49l88.97.06c.37 14.71-3.99 29.47-12.62 41.42-12.23 17.33-32.6 28.37-53.62 30.26-17.75 1.61-35.77-3.84-50.3-13.97-22.46-15.71-33.81-45.51-27.4-72.17 4.46-19.26 17.53-36.28 34.82-45.83z"/><path d="m2131.1641-399.18858c15.77.39 31.62-.79 47.32 1.01 10.61 1.27 21.12 6.63 27.03 15.76 5.42 7.81 7.7 17.93 5.3 27.22-1.64 7.8-7.3 14.27-14.19 18.04 7.05 2.8 13.86 7.01 17.95 13.58 5.89 9.4 6.56 21.37 3.8 31.92-2.75 10.41-10.77 18.83-20.29 23.51-8.27 3.89-17.52 5.05-26.56 5.37-13.44.15-26.87-.01-40.31.08zm25.2502 23.54v29.69c7.8947 0 15.6798.73 22.9198-2.35 8.54-4.05 10.04-17.58 2.32-23.25-7.18-5.35-16.8791-4.09-25.2398-4.09m0 53.47v35.87c11.1285 0 23.4281.95629 31.6498-4.53 9.26-6.1 8.62-21.79-.93-27.28-8.0872-4.99173-20.8562-4.06-30.7198-4.06z"/><path d="m2308.1041-399.15858 19.82.03 57.01 136.36-27.91.04-14.47-35.09-48.39-.02-15 35.1-27.91-.01zm-4.67 77.62 29.04.01-14.79-41.9z"/><path d="m2423.0741-399.19858 28.88.08 56.29 98.85.2-98.87h25.41l-.04 136.4-28.46-.05-57.1-99.21.03 99.29-25.21-.04z"/><path d="m2768.2341-399.09858 25.51.03.1 112.85 41.1-.35.05 23.83-66.76-.03z"/><path d="m2863.8541-262.80858 56.63-136.29 19.99-.04 56.98 136.38h-27.92l-14.54-35.08-48.36.05-14.87 35zm52.18-58.69 29.1-.13-14.62-41.95z"/></g><path d="m915.51634 375.45907h270.55946v6.3525h-270.55946z"/></g></svg>