<svg height="296.19443" width="1168.8806" xmlns="http://www.w3.org/2000/svg"><g transform="matrix(2.5818855 0 0 2.5818855 486.991825 -51.067475)"><path d="m-8.8885726 108.64381c1.2210817.46163 2.4300085 1.04493 3.6267801 1.86503l-2.0898006 4.93906c-.6011091-.46162-1.4762708-.92345-2.3754105-1.35472-1.2574804-.55262-3.0192944-1.02673-4.6109384-1.02673-4.641359 0-7.721429 2.96463-7.721429 7.99481 0 5.51008 3.693666 8.12242 7.855068 8.12242 2.612267 0 4.9815669-.66826 7.0288581-2.08987l2.1202214 4.26469c-2.8491907 2.30248-6.2998895 3.14084-10.0359975 3.14084-7.593901 0-13.547472-5.21245-13.547472-13.43808 0-8.45039 6.281623-13.40161 13.596025-13.40161 2.235661 0 4.246487.32812 6.1540954.98416" fill="#c80201"/><path d="m17.006296 134.13565h-4.84009c-.2938-1.35986-.44069-3.18644-.44067-5.47974v-4.11987c-.00002-2.53335-.37315-4.17357-1.11939-4.92065-.7739396-.7731-1.8408296-1.15965-3.2006796-1.15967-1.54624.00002-2.83937.53346-3.87939 1.60034-.50701.55991-.83375 1.25307-.98023 2.07947-.14649.82643-.21973 1.9863-.21973 3.47961v8.52051h-4.88037v-25.88013h4.84009v9.16016h.0403c.50618-.96027 1.33931-1.77366 2.49939-2.44018 1.16006-.66649 2.48677-.99974 3.9801-.99976 2.3469896.00002 4.2402996.71983 5.6799396 2.15942.74704.77395 1.28721 1.72752 1.62048 2.86072.33323 1.13323.49985 2.68658.49988 4.66003v5c-.00003 2.23959.13344 4.06617.40039 5.47974z" fill="#c80201"/><g transform="translate(0 -38.615198)"><path d="m29.505142 152.4374c-2.223435 0-3.75572.6911-5.228897 1.81873-2.314359 1.76871-3.637504 4.71506-3.637504 8.29799 0 3.27828 1.123052 6.07917 3.069143 7.84332 1.541382 1.42774 3.237369 2.15975 5.683566 2.15975 1.918799 0 4.369519-.96392 5.910901-2.95545.06363.91391.186422 1.81878.341027 2.50078h4.660536c-.295292-1.44136-.341027-3.46013-.341027-5.34254v-13.86791h-4.774178v2.50073c-1.214026-1.75052-3.278283-2.9554-5.683567-2.9554zm1.023031 4.43315c1.609588 0 2.778127.43647 3.637455 1.36406.868475.98669 1.364108 2.46896 1.364108 4.31951 0 1.8233-.495633 3.23284-1.364108 4.20586-.859328.92753-2.027867 1.4777-3.637455 1.4777-1.573197 0-2.787223-.55017-3.637504-1.4777-.868425-.93663-1.250366-2.38256-1.250366-4.20586 0-1.85055.381791-3.36921 1.250366-4.31951.850281-.92754 2.064307-1.36406 3.637504-1.36406z" fill="#c80201"/><path d="m59.94592 172.0976c-.290817-1.44136-.391236-3.49657-.391236-5.31982v-4.05126c0-2.38257-.163554-3.85574-1.091237-4.79695-.918485-.83661-1.755145-1.11395-3.119153-1.11395-1.441361 0-2.691776.41808-3.764818 1.55048-1.09581 1.20492-1.214026 2.95997-1.214026 5.41984v8.31166h-4.751459v-13.77699c0-1.85512-.136212-3.92395-.377317-5.37441h4.624146c.186421.70478.423052 1.92333.50468 2.85091h.05021c.877573-1.73233 3.251041-3.3101 6.247405-3.3101 2.537121 0 4.401335.90934 5.519863 2.05968 1.450458 1.49595 2.123365 3.35107 2.123365 7.36141v4.86968c0 1.82325.118315 3.87846.377317 5.31982h-4.737838z" fill="#c80201"/></g><g fill="#c80201"><path d="m83.157705 133.94199c-.29082-1.44136-.39124-3.49657-.39124-5.31982v-4.05126c0-2.38257-.16355-3.85574-1.09123-4.79695-.91849-.83661-1.75515-1.11395-3.11916-1.11395-1.44136 0-2.69177.41808-3.76481 1.55048-1.09581 1.20492-1.21403 2.95997-1.21403 5.41984v8.31166h-4.75146v-13.77699c0-1.85512-.13621-3.92395-.37732-5.37441h4.62415c.18642.70478.42305 1.92333.50468 2.85091h.0502c.87757-1.73233 3.25104-3.3101 6.2474-3.3101 2.53713 0 4.40134.90934 5.51987 2.05968 1.45046 1.49595 2.12336 3.35107 2.12336 7.36141v4.86968c0 1.82325.11832 3.87846.37732 5.31982h-4.73784z"/><path d="m110.38682 125.8592h-14.439706c.16031 1.35987.713704 2.45993 1.660164 3.30017.94644.84026 2.24649 1.26038 3.900142 1.26038 2.53335 0 4.77334-.66691 6.71997-2.00073l1.51978 3.24096c-2.37307 1.89291-5.34629 2.83936-8.91968 2.83936-2.933762 0-5.333876-.94666-7.200326-2.83997-1.86645-1.8933-2.79968-4.37316-2.79968-7.43957 0-3.04036.92672-5.52713 2.78015-7.46033 1.85343-1.93317 4.233194-2.89976 7.139296-2.89978 3.01349.00002 5.40037.94667 7.16064 2.83996 1.76023 1.89333 2.64036 4.36017 2.64038 7.40052-.00002.42644-.0537 1.01278-.16113 1.75903zm-14.439706-3.479h9.600836c-.00002-1.36067-.42685-2.45421-1.28052-3.28064-.85369-.8264-2.02719-1.23961-3.5205-1.23963-1.359882.00002-2.459732.42665-3.299572 1.27991-.83985.85329-1.339934 1.9334-1.500244 3.24036z"/><path d="m113.48302 108.5222h4.88533v20.41066c0 1.87466.07 3.98775.38795 5.46965h-4.88058c-.28061-1.4819-.39255-3.59499-.39255-5.46965v-20.41066z"/><path d="m143.80428 107.56282h5.06643v21.16728c0 1.94415.0726 4.13558.40233 5.67241h-5.0615c-.29101-1.53683-.4071-3.72826-.4071-5.67241v-21.16728z"/><path d="m153.07192 132.54011 1.59912-3.56079c1.76025 1.1735 3.45377 1.76026 5.08057 1.76025.90656.00001 1.63329-.18656 2.18017-.55969.54687-.37312.8203-.89335.82031-1.56067-.00001-.55989-.23336-1.03983-.70007-1.43982-.46672-.39998-1.04676-.72-1.74011-.96008-.69337-.24007-1.44675-.53995-2.26013-.89966-.8134-.35969-1.56678-.73953-2.26014-1.13953-.69336-.39997-1.27339-.99343-1.74011-1.78039-.46672-.78694-.70007-1.70043-.70007-2.74048 0-1.83999.72001-3.26658 2.16003-4.27979 1.44002-1.01316 3.14677-1.51975 5.12024-1.51977 2.34618.00002 4.38598.61322 6.11939 1.8396l-1.59912 3.40088c-1.41359-1.01398-2.85361-1.52098-4.32007-1.521-.79998.00002-1.40667.20001-1.82007.59998-.41342.4-.62012.85349-.62012 1.36047 0 .55991.31331 1.05328.93994 1.4801.62662.42686 1.38.80019 2.26014 1.12.88011.31983 1.76003.69317 2.63977 1.11999.8797.42685 1.63288 1.05348 2.25952 1.87989.62661.82642.93992 1.82638.93994 2.99987-.00002 2.02638-.73325 3.59294-2.19971 4.69971-1.46648 1.10677-3.29306 1.66016-5.47973 1.66016-1.09376 0-2.30063-.19328-3.62061-.57984-1.31999-.38655-2.33968-.84635-3.05908-1.37939z"/><path d="m171.4254 108.5222h4.88533v20.41066c0 1.87466.07 3.98775.38795 5.46965h-4.88058c-.28061-1.4819-.39255-3.59499-.39255-5.46965v-20.41066z"/></g><g transform="translate(159.39521 -38.615195)"><path d="m29.505142 152.4374c-2.223435 0-3.75572.6911-5.228897 1.81873-2.314359 1.76871-3.637504 4.71506-3.637504 8.29799 0 3.27828 1.123052 6.07917 3.069143 7.84332 1.541382 1.42774 3.237369 2.15975 5.683566 2.15975 1.918799 0 4.369519-.96392 5.910901-2.95545.06363.91391.186422 1.81878.341027 2.50078h4.660536c-.295292-1.44136-.341027-3.46013-.341027-5.34254v-13.86791h-4.774178v2.50073c-1.214026-1.75052-3.278283-2.9554-5.683567-2.9554zm1.023031 4.43315c1.609588 0 2.778127.43647 3.637455 1.36406.868475.98669 1.364108 2.46896 1.364108 4.31951 0 1.8233-.495633 3.23284-1.364108 4.20586-.859328.92753-2.027867 1.4777-3.637455 1.4777-1.573197 0-2.787223-.55017-3.637504-1.4777-.868425-.93663-1.250366-2.38256-1.250366-4.20586 0-1.85055.381791-3.36921 1.250366-4.31951.850281-.92754 2.064307-1.36406 3.637504-1.36406z" fill="#c80201"/><path d="m59.94592 172.0976c-.290817-1.44136-.391236-3.49657-.391236-5.31982v-4.05126c0-2.38257-.163554-3.85574-1.091237-4.79695-.918485-.83661-1.755145-1.11395-3.119153-1.11395-1.441361 0-2.691776.41808-3.764818 1.55048-1.09581 1.20492-1.214026 2.95997-1.214026 5.41984v8.31166h-4.751459v-13.77699c0-1.85512-.136212-3.92395-.377317-5.37441h4.624146c.186421.70478.423052 1.92333.50468 2.85091h.05021c.877573-1.73233 3.251041-3.3101 6.247405-3.3101 2.537121 0 4.401335.90934 5.519863 2.05968 1.450458 1.49595 2.123365 3.35107 2.123365 7.36141v4.86968c0 1.82325.118315 3.87846.377317 5.31982h-4.737838z" fill="#c80201"/></g><path d="m241.43724 108.22149v8.52569c-1.19225-1.74252-3.32475-2.91973-5.73622-2.91973-2.20904 0-3.61275.71006-5.06139 1.86863-2.31253 1.78921-3.59923 4.84446-3.59923 8.52569 0 3.37294 1.10224 6.32542 3.03686 8.17536 1.54764 1.42953 3.16277 2.10221 5.62376 2.10221 1.93457 0 4.31455-.99037 5.84871-3.03655.0443.93899.11707 1.86869.2248 2.5694h4.72395c-.25627-1.48091-.33744-3.6158-.33744-5.48914v-20.32156h-4.72394zm-5.73622 10.16076c.34728-.0659.73105 0 1.12472 0 1.57017 0 2.75789.48114 3.59924 1.40148.85027 1.00907 1.34969 2.53672 1.34969 4.43804 0 1.92942-.49942 3.32621-1.34969 4.32128-.84135.9203-2.02907 1.51825-3.59924 1.51825-1.57466 0-2.79386-.59795-3.59918-1.51825-.84134-.99507-1.23727-2.40591-1.23727-4.32128 0-1.92001.39598-3.42897 1.23727-4.43804.60394-.69024 1.432-1.20458 2.47446-1.40148z" fill="#c80201"/><path d="m249.74583 132.54011 1.59912-3.56079c1.76025 1.1735 3.45377 1.76026 5.08057 1.76025.90656.00001 1.63329-.18656 2.18017-.55969.54687-.37312.8203-.89335.82031-1.56067-.00001-.55989-.23336-1.03983-.70007-1.43982-.46672-.39998-1.04676-.72-1.74011-.96008-.69337-.24007-1.44675-.53995-2.26013-.89966-.8134-.35969-1.56678-.73953-2.26014-1.13953-.69336-.39997-1.27339-.99343-1.74011-1.78039-.46672-.78694-.70007-1.70043-.70007-2.74048 0-1.83999.72001-3.26658 2.16003-4.27979 1.44002-1.01316 3.14677-1.51975 5.12024-1.51977 2.34618.00002 4.38598.61322 6.11939 1.8396l-1.59912 3.40088c-1.41359-1.01398-2.85361-1.52098-4.32007-1.521-.79998.00002-1.40667.20001-1.82007.59998-.41342.4-.62012.85349-.62012 1.36047 0 .55991.31331 1.05328.93994 1.4801.62662.42686 1.38.80019 2.26014 1.12.88011.31983 1.76003.69317 2.63977 1.11999.8797.42685 1.63288 1.05348 2.25952 1.87989.62661.82642.93992 1.82638.93994 2.99987-.00002 2.02638-.73325 3.59294-2.19971 4.69971-1.46648 1.10677-3.29306 1.66016-5.47973 1.66016-1.09376 0-2.30063-.19328-3.62061-.57984-1.31999-.38655-2.33968-.84635-3.05908-1.37939z" fill="#c80201"/></g><g fill="#c80201" transform="matrix(4.51035131 0 0 4.51035131 -233.092351 -171.620947)"><path d="m523.9375 922.28125c-1.15419-.0146-2.32654-.004-3.5.0312-14.88451.45302-28.0053 5.04172-38.78125 13.5625-5.90469 4.66872-12.06132 12.32642-15.625 19.40625-9.60474 19.08365-9.76567 44.9614-.40625 64.0938 3.21032 6.5627 6.43814 11.0851 11.5 16.1562 10.24593 10.2652 22.98778 15.9839 39.40625 17.6563 2.52128.2568 13.98285-.07 16.53125-.4687 14.10217-2.2101 25.43144-7.5786 34.46875-16.3126 10.51172-10.1591 16.56015-22.6664 18.75-38.78125.56228-4.13954.62726-14.57506.125-18.6875-1.97914-16.20536-8.27658-29.5089-18.71875-39.59375-11.35373-10.96517-26.43721-16.84281-43.75-17.0625zm-.53125 23.53125c3.20184.0287 6.3931.34319 9.28125.9375 15.02958 3.09231 24.61977 13.54382 27.40625 29.875 1.11013 6.50339 1.10984 15.7651 0 22.34375-3.03001 17.96085-14.4014 28.79185-32.09375 30.62505-2.79731.2898-7.8402.269-10.6875-.031-9.07734-.9578-16.25627-4.1745-21.875-9.8125-5.53324-5.5522-8.7497-12.493-10.28125-22.25-.64654-4.12027-.64201-15.00806 0-19.28125.55029-3.66845 1.6478-7.97674 2.6875-10.59375 3.86109-9.71972 10.88703-16.47052 20.5625-19.71875 4.25577-1.42887 9.6636-2.14155 15-2.09375z" transform="matrix(.34004134 0 0 .34004134 -17.938189 -275.55444)"/><path d="m794.375 922.375c-6.99224-.0197-8.89202.13973-14.03125 1.15625-21.75512 4.30299-38.52662 19.20763-45.5625 40.4375-3.25275 9.81544-4.5201 20.158-3.6875 30.375 1.82387 22.38005 11.84677 39.75415 28.8125 50.00005 8.00032 4.8312 16.19448 7.4286 28.03125 8.8437.48641.058 4.18968.071 8.21875.031 5.76774-.057 8.18741-.1904 11.46875-.625 14.74697-1.9512 27.55475-6.3905 37.875-13.0938 2.74646-1.7838 5.59375-3.8902 5.59375-4.1562 0-.1141-2.12824-4.1223-4.71875-8.9063l-4.71875-8.6875-1.375.9062c-19.00057 12.1544-46.94574 15.4306-63.6875 7.5-10.43523-4.9432-16.50463-13.5099-18.8125-26.56245l-.15625-.8125h48.75 48.75l.125-.5625c.75164-3.21964 1.0864-12.06384.65625-17.25-.61107-7.35797-1.60599-12.39325-3.6875-18.71875-6.48442-19.70705-20.8942-33.07633-40.9375-38-5.92425-1.4554-9.37431-1.85393-16.90625-1.875zm-2.0625 23.25c3.70033-.0689 7.90503.14657 10.40625.59375 7.29655 1.30429 12.80517 3.90101 17.46875 8.21875 5.55338 5.14131 9.10337 12.95514 9.59375 21.15625l.15625 2.71875h-36.1875-36.1875l.15625-1.5c.57764-5.526 2.81892-11.73063 6-16.5625 1.84131-2.79672 6.09765-7.01197 9-8.90625 3.97943-2.59624 8.66132-4.36075 13.9375-5.28125 1.37409-.23987 3.43605-.39614 5.65625-.4375z" transform="matrix(.34004134 0 0 .34004134 -17.938189 -275.55444)"/><path d="m194.16171 70.954681c0-6.488717.0341-10.978812.0886-11.659793.34852-4.349149 1.45716-7.153833 3.73347-9.444583 2.41962-2.434971 5.67385-3.590991 9.7058-3.447998 3.23161.11464 5.4849 1.003405 7.25916 2.862926 1.39287 1.459917 2.22094 3.166003 2.70427 5.5717.35303 1.75788.38803 2.564043.43441 10.049922.0606 9.752985.22282 12.919194.82622 16.126142l.0931.493974h4.1824 4.18231l-.1566-.966352c-.16275-1.003098-.34126-2.624331-.50811-4.61671-.0581-.694595-.12395-4.947222-.16408-10.607666-.066-9.339565-.0889-10.055552-.39059-12.196553-.44945-3.191594-1.52154-6.09843-3.02311-8.197466-1.23422-1.725431-3.27922-3.586487-5.04129-4.588459-4.41875-2.512557-10.40264-2.990769-15.50862-1.239237-1.85123.634921-3.54504 1.569952-5.0329 2.778174-.93329.757852-2.31879 2.178362-2.90725 2.980739-.23336.318433-.44719.578931-.47514.578931-.0278 0-.0969-.434915-.15343-.966353-.1609-1.513757-.50789-3.398559-.88559-4.809858l-.0864-.322116h-4.10709-4.10707l.10829.622739c.36624 2.108555.61128 4.985196.72572 8.523677.0459 1.417747.084 9.428718.0848 17.802134l.001 15.224376h4.20872 4.20871v-10.55229z"/><g transform="matrix(1.9913537 0 0 1.9913537 -933.16944 -2271.4564)"><path d="m494.5625 1160.375v5.3438 5.3437h5.6875 5.6875v-5.3437-5.3438h-5.6875zm2.96875 1.5h1.5c1.35533 0 1.54326.017 1.84375.094.97214.2486 1.603.9247 1.65625 1.7812.0453.7275-.20813 1.2313-.78125 1.5938l-.1875.125.21875.062c.55564.1957 1.0114.6109 1.25 1.0938.15923.3222.1875.3209.1875.8125 0 .4908-.0299.525-.1875.8437-.35502.7184-.97389 1.1001-1.96875 1.25-.30069.045-.82817.062-1.96875.063h-1.5625v-3.8438-3.875zm1.375 1.2188v.9687 1h .5c.26687-.0004.5924-.029.75-.062.69401-.1471.98232-.4735.9375-1.0938-.0248-.3414-.13516-.5456-.4375-.6874-.2258-.1058-.30306-.1116-1-.125h-.75zm0 3.1874v1.0626 1.0312h.75c.40925-.0005.8678-.01 1.03125-.031.71945-.104 1.125-.4676 1.125-1.0313 0-.3566-.14015-.5707-.4375-.75-.35821-.216-.68092-.2813-1.625-.2813h-.84375z"/><path d="m507.65625 1160.375v5.3438 5.3437h5.71875 5.71875v-5.3437-5.3438h-5.71875zm3.03125 1.5h1.46875c1.66569.0009 1.88068.022 2.40625.2812.79316.3919 1.22179 1.1747 1.09375 2-.0268.1729-.0801.3987-.125.5-.099.2239-.41791.5761-.625.6876-.15682.084-.19815.1562-.0937.1562.14444 0 .74737.3498.96875.5625.48764.4686.69846 1.2158.53125 1.8437-.20822.7823-.81127 1.3193-1.75 1.5626-.32753.085-.50557.1077-2.125.125h-1.75v-3.8438-3.875zm1.375 1.2188v1 1l .625-.031c.3652-.014.68826-.055.8125-.094.50655-.1594.75519-.4627.75-.9688-.003-.3177-.0806-.4875-.28125-.6562-.22416-.1887-.51605-.25-1.25-.25zm0 3.1874v1.0626 1.0624l.9375-.031c.79435-.017.93158-.011 1.1875-.094.72989-.2364.99452-1.0348.53125-1.5624-.30393-.3461-.71041-.4365-1.84375-.4376z"/><path d="m520.8125 1160.375v5.3438 5.3437h5.71875 5.6875v-5.3437-5.3438h-5.6875zm5.9375 1.4062c.82889-.046 1.64553.079 2.65625.4376l.46875.1874v.7188c0 .3889.009.6875 0 .6875s-.26144-.09-.53125-.2187c-.95914-.4564-1.59026-.6264-2.46875-.5938-.45988.017-.62123.039-.96875.1562-.52537.1776-.86336.3915-1.21875.75-.48178.486-.71993 1.1206-.71875 1.8438.002.768.23851 1.3405.75 1.8438.57394.5645 1.32032.8393 2.28125.8437.85161 0 1.56708-.1856 2.46875-.6563l.5-.25v.7188.7188l-.28125.1562c-.809.3728-1.50262.5083-2.5.5312-.40334.01-.85073.021-1 0-1.55487-.219-2.81263-1.1353-3.375-2.4687-.33734-.8-.36936-1.7362-.0937-2.5937.43999-1.3691 1.67462-2.4154 3.1875-2.7188.28557-.057.56745-.079.84375-.094z"/></g></g></svg>