<?xml version="1.0" encoding="UTF-8" standalone="no"?>
<!-- Created with Inkscape (http://www.inkscape.org/) -->

<svg
   xmlns:dc="http://purl.org/dc/elements/1.1/"
   xmlns:cc="http://creativecommons.org/ns#"
   xmlns:rdf="http://www.w3.org/1999/02/22-rdf-syntax-ns#"
   xmlns:svg="http://www.w3.org/2000/svg"
   xmlns="http://www.w3.org/2000/svg"
   xmlns:sodipodi="http://sodipodi.sourceforge.net/DTD/sodipodi-0.dtd"
   xmlns:inkscape="http://www.inkscape.org/namespaces/inkscape"
   id="svg2985"
   version="1.1"
   inkscape:version="0.91 r13725"
   width="199"
   height="58.415321"
   xml:space="preserve"
   sodipodi:docname="BBC One Scotland - Dark.svg"
   hola_ext_inject="disabled"><metadata
     id="metadata2991"><rdf:RDF><cc:Work
         rdf:about=""><dc:format>image/svg+xml</dc:format><dc:type
           rdf:resource="http://purl.org/dc/dcmitype/StillImage" /><dc:title></dc:title></cc:Work></rdf:RDF></metadata><defs
     id="defs2989"><clipPath
       clipPathUnits="userSpaceOnUse"
       id="clipPath3003"><path
         d="m 0,0 841.89,0 0,595.276 L 0,595.276 0,0 Z"
         id="path3005"
         inkscape:connector-curvature="0" /></clipPath><clipPath
       clipPathUnits="userSpaceOnUse"
       id="clipPath3023"><path
         d="m 0,0 841.89,0 0,595.276 L 0,595.276 0,0 Z"
         id="path3025"
         inkscape:connector-curvature="0" /></clipPath><clipPath
       clipPathUnits="userSpaceOnUse"
       id="clipPath3051"><path
         d="m 0,0 841.89,0 0,595.276 L 0,595.276 0,0 Z"
         id="path3053"
         inkscape:connector-curvature="0" /></clipPath><clipPath
       clipPathUnits="userSpaceOnUse"
       id="clipPath3075"><path
         d="m 0,0 841.89,0 0,595.276 L 0,595.276 0,0 Z"
         id="path3077"
         inkscape:connector-curvature="0" /></clipPath><clipPath
       clipPathUnits="userSpaceOnUse"
       id="clipPath3195"><path
         d="m 0,0 841.89,0 0,595.276 L 0,595.276 0,0 Z"
         id="path3197"
         inkscape:connector-curvature="0" /></clipPath><clipPath
       clipPathUnits="userSpaceOnUse"
       id="clipPath3209"><path
         d="m 49.094,354.329 287.15,0 0,-161.734 -287.15,0 0,161.734 z"
         id="path3211"
         inkscape:connector-curvature="0" /></clipPath><clipPath
       clipPathUnits="userSpaceOnUse"
       id="clipPath3233"><path
         d="m 0,0 841.89,0 0,595.276 L 0,595.276 0,0 Z"
         id="path3235"
         inkscape:connector-curvature="0" /></clipPath><clipPath
       clipPathUnits="userSpaceOnUse"
       id="clipPath3257"><path
         d="m 0,0 841.89,0 0,595.276 L 0,595.276 0,0 Z"
         id="path3259"
         inkscape:connector-curvature="0" /></clipPath><clipPath
       clipPathUnits="userSpaceOnUse"
       id="clipPath3297"><path
         d="m 0,0 841.89,0 0,595.276 L 0,595.276 0,0 Z"
         id="path3299"
         inkscape:connector-curvature="0" /></clipPath><clipPath
       clipPathUnits="userSpaceOnUse"
       id="clipPath3313"><path
         d="m 0,0 841.89,0 0,595.276 L 0,595.276 0,0 Z"
         id="path3315"
         inkscape:connector-curvature="0" /></clipPath><clipPath
       clipPathUnits="userSpaceOnUse"
       id="clipPath3341"><path
         d="m 0,0 841.89,0 0,595.276 L 0,595.276 0,0 Z"
         id="path3343"
         inkscape:connector-curvature="0" /></clipPath><clipPath
       clipPathUnits="userSpaceOnUse"
       id="clipPath3419"><path
         d="m 0,0 841.89,0 0,595.276 L 0,595.276 0,0 Z"
         id="path3421"
         inkscape:connector-curvature="0" /></clipPath><clipPath
       clipPathUnits="userSpaceOnUse"
       id="clipPath3465"><path
         d="m 0,0 841.89,0 0,595.276 L 0,595.276 0,0 Z"
         id="path3467"
         inkscape:connector-curvature="0" /></clipPath><clipPath
       clipPathUnits="userSpaceOnUse"
       id="clipPath3489"><path
         d="m 0,0 841.89,0 0,595.276 L 0,595.276 0,0 Z"
         id="path3491"
         inkscape:connector-curvature="0" /></clipPath><clipPath
       clipPathUnits="userSpaceOnUse"
       id="clipPath3511"><path
         d="m 0,0 841.89,0 0,595.276 L 0,595.276 0,0 Z"
         id="path3513"
         inkscape:connector-curvature="0" /></clipPath><clipPath
       clipPathUnits="userSpaceOnUse"
       id="clipPath3533"><path
         d="m 0,0 841.89,0 0,595.276 L 0,595.276 0,0 Z"
         id="path3535"
         inkscape:connector-curvature="0" /></clipPath><clipPath
       clipPathUnits="userSpaceOnUse"
       id="clipPath3615"><path
         d="m 0,0 841.89,0 0,595.276 L 0,595.276 0,0 Z"
         id="path3617"
         inkscape:connector-curvature="0" /></clipPath><clipPath
       clipPathUnits="userSpaceOnUse"
       id="clipPath3659"><path
         d="m 0,0 841.89,0 0,595.276 L 0,595.276 0,0 Z"
         id="path3661"
         inkscape:connector-curvature="0" /></clipPath><clipPath
       clipPathUnits="userSpaceOnUse"
       id="clipPath3673"><path
         d="m 0,0 841.89,0 0,595.276 L 0,595.276 0,0 Z"
         id="path3675"
         inkscape:connector-curvature="0" /></clipPath><clipPath
       clipPathUnits="userSpaceOnUse"
       id="clipPath3707"><path
         d="m 0,0 841.89,0 0,595.276 L 0,595.276 0,0 Z"
         id="path3709"
         inkscape:connector-curvature="0" /></clipPath><clipPath
       clipPathUnits="userSpaceOnUse"
       id="clipPath3735"><path
         d="m 0,0 841.89,0 0,595.276 L 0,595.276 0,0 Z"
         id="path3737"
         inkscape:connector-curvature="0" /></clipPath><clipPath
       clipPathUnits="userSpaceOnUse"
       id="clipPath3757"><path
         d="m 0,0 841.89,0 0,595.276 L 0,595.276 0,0 Z"
         id="path3759"
         inkscape:connector-curvature="0" /></clipPath><clipPath
       clipPathUnits="userSpaceOnUse"
       id="clipPath3779"><path
         d="m 0,0 841.89,0 0,595.276 L 0,595.276 0,0 Z"
         id="path3781"
         inkscape:connector-curvature="0" /></clipPath><clipPath
       clipPathUnits="userSpaceOnUse"
       id="clipPath3881"><path
         d="m 0,0 841.89,0 0,595.276 L 0,595.276 0,0 Z"
         id="path3883"
         inkscape:connector-curvature="0" /></clipPath><clipPath
       clipPathUnits="userSpaceOnUse"
       id="clipPath3925"><path
         d="m 0,0 841.89,0 0,595.276 L 0,595.276 0,0 Z"
         id="path3927"
         inkscape:connector-curvature="0" /></clipPath><clipPath
       clipPathUnits="userSpaceOnUse"
       id="clipPath3939"><path
         d="m 0,0 841.89,0 0,595.276 L 0,595.276 0,0 Z"
         id="path3941"
         inkscape:connector-curvature="0" /></clipPath><clipPath
       clipPathUnits="userSpaceOnUse"
       id="clipPath3973"><path
         d="m 0,0 841.89,0 0,595.276 L 0,595.276 0,0 Z"
         id="path3975"
         inkscape:connector-curvature="0" /></clipPath><clipPath
       clipPathUnits="userSpaceOnUse"
       id="clipPath4005"><path
         d="m 0,0 841.89,0 0,595.276 L 0,595.276 0,0 Z"
         id="path4007"
         inkscape:connector-curvature="0" /></clipPath><clipPath
       clipPathUnits="userSpaceOnUse"
       id="clipPath4029"><path
         d="m 0,0 841.89,0 0,595.276 L 0,595.276 0,0 Z"
         id="path4031"
         inkscape:connector-curvature="0" /></clipPath><clipPath
       clipPathUnits="userSpaceOnUse"
       id="clipPath4069"><path
         d="m 0,0 841.89,0 0,595.276 L 0,595.276 0,0 Z"
         id="path4071"
         inkscape:connector-curvature="0" /></clipPath><clipPath
       clipPathUnits="userSpaceOnUse"
       id="clipPath4089"><path
         d="m 0,0 841.89,0 0,595.276 L 0,595.276 0,0 Z"
         id="path4091"
         inkscape:connector-curvature="0" /></clipPath><clipPath
       clipPathUnits="userSpaceOnUse"
       id="clipPath4111"><path
         d="m 0,0 841.89,0 0,595.276 L 0,595.276 0,0 Z"
         id="path4113"
         inkscape:connector-curvature="0" /></clipPath><clipPath
       clipPathUnits="userSpaceOnUse"
       id="clipPath4133"><path
         d="m 0,0 841.89,0 0,595.276 L 0,595.276 0,0 Z"
         id="path4135"
         inkscape:connector-curvature="0" /></clipPath><clipPath
       clipPathUnits="userSpaceOnUse"
       id="clipPath4251"><path
         d="m 0,0 841.89,0 0,595.276 L 0,595.276 0,0 Z"
         id="path4253"
         inkscape:connector-curvature="0" /></clipPath><clipPath
       clipPathUnits="userSpaceOnUse"
       id="clipPath4297"><path
         d="m 0,0 841.89,0 0,595.276 L 0,595.276 0,0 Z"
         id="path4299"
         inkscape:connector-curvature="0" /></clipPath><clipPath
       clipPathUnits="userSpaceOnUse"
       id="clipPath4337"><path
         d="m 0,0 841.89,0 0,595.276 L 0,595.276 0,0 Z"
         id="path4339"
         inkscape:connector-curvature="0" /></clipPath><clipPath
       clipPathUnits="userSpaceOnUse"
       id="clipPath4379"><path
         d="m 0,0 841.89,0 0,595.276 L 0,595.276 0,0 Z"
         id="path4381"
         inkscape:connector-curvature="0" /></clipPath><clipPath
       clipPathUnits="userSpaceOnUse"
       id="clipPath4423"><path
         d="m 0,0 841.89,0 0,595.276 L 0,595.276 0,0 Z"
         id="path4425"
         inkscape:connector-curvature="0" /></clipPath><clipPath
       clipPathUnits="userSpaceOnUse"
       id="clipPath4437"><path
         d="m 0,0 841.89,0 0,595.276 L 0,595.276 0,0 Z"
         id="path4439"
         inkscape:connector-curvature="0" /></clipPath><clipPath
       clipPathUnits="userSpaceOnUse"
       id="clipPath4471"><path
         d="m 0,0 841.89,0 0,595.276 L 0,595.276 0,0 Z"
         id="path4473"
         inkscape:connector-curvature="0" /></clipPath><style
       id="style6"
       type="text/css">
   
    .fil0 {fill:#C90302}
   
  </style><inkscape:perspective
       id="perspective17"
       inkscape:persp3d-origin="526.18109 : 129.92126 : 1"
       inkscape:vp_z="1052.3622 : 194.8819 : 1"
       inkscape:vp_y="0 : 1000 : 0"
       inkscape:vp_x="0 : 194.8819 : 1"
       sodipodi:type="inkscape:persp3d" /></defs><sodipodi:namedview
     pagecolor="#ffffff"
     bordercolor="#666666"
     borderopacity="1"
     objecttolerance="10"
     gridtolerance="10"
     guidetolerance="10"
     inkscape:pageopacity="0"
     inkscape:pageshadow="2"
     inkscape:window-width="1920"
     inkscape:window-height="1017"
     id="namedview2987"
     showgrid="false"
     fit-margin-top="0"
     fit-margin-left="0"
     fit-margin-right="0"
     fit-margin-bottom="0"
     inkscape:zoom="4.4245551"
     inkscape:cx="47.490241"
     inkscape:cy="46.156374"
     inkscape:window-x="-8"
     inkscape:window-y="-8"
     inkscape:window-maximized="1"
     inkscape:current-layer="g2993" /><g
     id="g2993"
     inkscape:groupmode="layer"
     inkscape:label="onscreen_guidelines"
     transform="matrix(1.25,0,0,-1.25,-494.56247,-389.90673)"><g
       id="g3203"
       transform="translate(349.3506,368.504)"
       style="fill:#c80201;fill-opacity:1" /><g
       id="g4491"
       transform="translate(349.3506,42.5196)"
       style="fill:#c80201;fill-opacity:1" /><path
       inkscape:connector-curvature="0"
       id="path3789"
       style="fill:#c80201;fill-opacity:1;fill-rule:nonzero;stroke:none"
       d="m 468.17327,-348.70902 -0.77456,-1.60202 c -0.6461,0.38917 -1.34321,0.63665 -2.24435,0.63665 -1.11084,0 -1.76261,-0.49308 -1.76261,-1.15618 0,-1.65114 5.13858,-1.35454 5.13858,-4.68328 0,-1.57369 -1.02205,-3.1436 -3.73114,-3.1436 -1.49056,0 -2.85077,0.50819 -3.67634,1.25064 l 0.83879,1.60014 c 0.81424,-0.60265 1.80228,-0.98804 2.7941,-0.98804 1.0126,0 1.62092,0.37027 1.62092,1.09572 0,1.92508 -5.10079,1.36021 -5.10079,4.79474 0,1.87029 1.69271,3.10015 3.63479,3.10015 1.39232,0 2.42193,-0.30605 3.26261,-0.90492" /><path
       inkscape:connector-curvature="0"
       id="path3793"
       style="fill:#c80201;fill-opacity:1;fill-rule:nonzero;stroke:none"
       d="m 476.05097,-350.61671 c 0.37973,-0.14358 0.75567,-0.32494 1.12784,-0.57998 l -0.64988,-1.53591 c -0.18703,0.14358 -0.45907,0.28716 -0.73867,0.42129 -0.39106,0.17192 -0.93892,0.31927 -1.43389,0.31927 -1.44333,0 -2.40115,-0.92192 -2.40115,-2.48616 0,-1.71349 1.14863,-2.52584 2.44272,-2.52584 0.81234,0 1.54912,0.20781 2.18578,0.64988 l 0.65932,-1.3262 c -0.88602,-0.716 -1.95908,-0.97671 -3.12092,-0.97671 -2.36148,0 -4.21288,1.62092 -4.21288,4.17887 0,2.62785 1.95341,4.16753 4.22799,4.16753 0.69522,0 1.32054,-0.10201 1.91374,-0.30604" /><path
       inkscape:connector-curvature="0"
       style="fill:#c80201;fill-opacity:1;fill-rule:nonzero;stroke:none"
       d="m 482.45243,-350.28892 c -2.44649,0 -4.10897,-1.77205 -4.10897,-4.20342 0,-2.44272 1.66248,-4.1562 4.10897,-4.1562 2.43138,0 4.10897,1.71348 4.10897,4.1562 0,2.43137 -1.67759,4.20342 -4.10897,4.20342 z m 0,-1.84195 c 0.65366,0 1.11462,-0.18136 1.46412,-0.56675 0.35705,-0.40995 0.56675,-1.01827 0.56675,-1.79472 0,-0.77457 -0.2097,-1.34321 -0.56675,-1.7475 -0.3495,-0.38539 -0.81046,-0.61398 -1.46412,-0.61398 -0.67255,0 -1.14295,0.22859 -1.51134,0.61398 -0.35139,0.40429 -0.56676,0.97293 -0.56676,1.7475 0,0.77645 0.21537,1.38477 0.56676,1.79472 0.36839,0.38539 0.83879,0.56675 1.51134,0.56675 z"
       id="path3797" /><path
       inkscape:connector-curvature="0"
       id="path3805"
       style="fill:#c80201;fill-opacity:1;fill-rule:nonzero;stroke:none"
       d="m 493.05757,-358.38182 c -0.42318,-0.15869 -1.05794,-0.27582 -1.48868,-0.27582 -1.01638,0 -1.91752,0.27582 -2.47105,1.00505 -0.39861,0.53841 -0.60264,1.29787 -0.60264,2.3747 l 0,3.26828 -1.27709,0 0,1.50946 1.27709,0 0,2.31991 1.96852,0 0,-2.31991 2.04221,0 0,-1.50946 -2.04221,0 0,-2.96979 c 0,-0.73489 0.0888,-1.26764 0.3155,-1.60769 0.22292,-0.35517 0.60642,-0.50064 1.07683,-0.50064 0.2966,0 0.86336,0.0831 1.01638,0.13036 l 0.18514,-1.42445 z" /><path
       inkscape:connector-curvature="0"
       id="path3809"
       style="fill:#c80201;fill-opacity:1;fill-rule:nonzero;stroke:none"
       d="m 494.47804,-347.99888 1.9742,0 0,-8.24816 c 0,-0.75756 0.0283,-1.61147 0.1568,-2.21034 l -1.9723,0 c -0.11336,0.59887 -0.1587,1.45278 -0.1587,2.21034 l 0,8.24816 z" /><path
       inkscape:connector-curvature="0"
       style="fill:#c80201;fill-opacity:1;fill-rule:nonzero;stroke:none"
       d="m 501.86377,-350.28892 c -0.92381,0 -1.56046,-0.28715 -2.17256,-0.75567 -0.96159,-0.73489 -1.51134,-1.95908 -1.51134,-3.44775 0,-1.3621 0.46662,-2.52584 1.27519,-3.25884 0.64044,-0.5932 1.3451,-0.89736 2.36148,-0.89736 0.79724,0 1.8155,0.4005 2.45594,1.22797 0.0264,-0.37973 0.0774,-0.75568 0.14161,-1.03905 l 1.93641,0 c -0.12272,0.59887 -0.14161,1.43766 -0.14161,2.21978 l 0,5.76201 -1.98364,0 0,-1.03905 c -0.50441,0.72733 -1.3621,1.22796 -2.36148,1.22796 z m 0.42507,-1.84195 c 0.66877,0 1.15429,-0.18136 1.51134,-0.56675 0.36083,-0.40995 0.56676,-1.02583 0.56676,-1.79472 0,-0.75757 -0.20593,-1.34321 -0.56676,-1.7475 -0.35705,-0.38539 -0.84257,-0.61398 -1.51134,-0.61398 -0.65366,0 -1.15807,0.22859 -1.51135,0.61398 -0.36083,0.38917 -0.51952,0.98993 -0.51952,1.7475 0,0.76889 0.15869,1.39988 0.51952,1.79472 0.35328,0.38539 0.85769,0.56675 1.51135,0.56675 z"
       id="path3813" /><path
       inkscape:connector-curvature="0"
       id="path3821"
       style="fill:#c80201;fill-opacity:1;fill-rule:nonzero;stroke:none"
       d="m 514.51168,-358.45757 c -0.12091,0.59887 -0.16247,1.45278 -0.16247,2.21034 l 0,1.68326 c 0,0.98993 -0.068,1.60203 -0.4534,1.99309 -0.38162,0.34761 -0.72923,0.46285 -1.29598,0.46285 -0.59887,0 -1.1184,-0.17381 -1.56425,-0.64421 -0.45529,-0.50064 -0.50441,-1.22986 -0.50441,-2.25191 l 0,-3.45342 -1.97419,0 0,5.72422 c 0,0.77078 -0.0567,1.63036 -0.1568,2.23301 l 1.92129,0 c 0.0775,-0.29282 0.1757,-0.79912 0.2097,-1.18452 l 0.0208,0 c 0.36462,0.71978 1.35077,1.37533 2.59574,1.37533 1.05416,0 1.82873,-0.37784 2.29347,-0.8558 0.60264,-0.62154 0.88224,-1.39233 0.88224,-3.05859 l 0,-2.02331 c 0,-0.75756 0.0491,-1.61147 0.15681,-2.21034 l -1.96853,0 z" /><path
       inkscape:connector-curvature="0"
       style="fill:#c80201;fill-opacity:1;fill-rule:nonzero;stroke:none"
       d="m 523.91996,-348.0219 0,-3.44775 c -0.50063,0.70466 -1.3961,1.18073 -2.4087,1.18073 -0.92759,0 -1.51702,-0.28715 -2.12533,-0.75567 -0.97104,-0.72355 -1.51135,-1.95908 -1.51135,-3.44775 0,-1.36399 0.46285,-2.55796 1.2752,-3.30607 0.64988,-0.57809 1.32809,-0.85013 2.36148,-0.85013 0.81234,0 1.81172,0.4005 2.45593,1.22797 0.0189,-0.37973 0.0491,-0.75568 0.0945,-1.03905 l 1.98364,0 c -0.10761,0.59887 -0.14161,1.46222 -0.14161,2.21978 l 0,8.21794 -1.98364,0 z m -2.4087,-4.10897 c 0.14584,0.0266 0.30699,0 0.47229,0 0.65932,0 1.15807,-0.19458 1.51135,-0.56675 0.35705,-0.40806 0.56675,-1.02583 0.56675,-1.79472 0,-0.78024 -0.2097,-1.3451 -0.56675,-1.7475 -0.35328,-0.37217 -0.85203,-0.61398 -1.51135,-0.61398 -0.66121,0 -1.17318,0.24181 -1.51134,0.61398 -0.35328,0.4024 -0.51953,0.97293 -0.51953,1.7475 0,0.77645 0.16625,1.38666 0.51953,1.79472 0.25361,0.27913 0.60131,0.48714 1.03905,0.56675 z"
       id="path3825" /><g
       style="fill:#c80201;fill-opacity:1"
       transform="matrix(0.71876668,0,0,-0.71876668,338.61829,-297.83347)"
       id="Layer_x0020_1"><metadata
         id="CorelCorpID_0Corel-Layer" /><g
         style="fill:#c80201;fill-opacity:1"
         id="g4607"
         transform="translate(27.667162,-18.444775)"><path
           id="path4598"
           transform="matrix(0.34004134,0,0,0.34004134,-17.938189,-275.55444)"
           d="m 523.9375,922.28125 c -1.15419,-0.0146 -2.32654,-0.004 -3.5,0.0312 -14.88451,0.45302 -28.0053,5.04172 -38.78125,13.5625 -5.90469,4.66872 -12.06132,12.32642 -15.625,19.40625 -9.60474,19.08365 -9.76567,44.9614 -0.40625,64.0938 3.21032,6.5627 6.43814,11.0851 11.5,16.1562 10.24593,10.2652 22.98778,15.9839 39.40625,17.6563 2.52128,0.2568 13.98285,-0.07 16.53125,-0.4687 14.10217,-2.2101 25.43144,-7.5786 34.46875,-16.3126 10.51172,-10.1591 16.56015,-22.6664 18.75,-38.78125 0.56228,-4.13954 0.62726,-14.57506 0.125,-18.6875 -1.97914,-16.20536 -8.27658,-29.5089 -18.71875,-39.59375 -11.35373,-10.96517 -26.43721,-16.84281 -43.75,-17.0625 z m -0.53125,23.53125 c 3.20184,0.0287 6.3931,0.34319 9.28125,0.9375 15.02958,3.09231 24.61977,13.54382 27.40625,29.875 1.11013,6.50339 1.10984,15.7651 0,22.34375 -3.03001,17.96085 -14.4014,28.79185 -32.09375,30.62505 -2.79731,0.2898 -7.8402,0.269 -10.6875,-0.031 -9.07734,-0.9578 -16.25627,-4.1745 -21.875,-9.8125 -5.53324,-5.5522 -8.7497,-12.493 -10.28125,-22.25 -0.64654,-4.12027 -0.64201,-15.00806 0,-19.28125 0.55029,-3.66845 1.6478,-7.97674 2.6875,-10.59375 3.86109,-9.71972 10.88703,-16.47052 20.5625,-19.71875 4.25577,-1.42887 9.6636,-2.14155 15,-2.09375 z"
           style="fill:#c80201;fill-opacity:1"
           inkscape:connector-curvature="0" /><path
           id="path4594"
           transform="matrix(0.34004134,0,0,0.34004134,-17.938189,-275.55444)"
           d="m 794.375,922.375 c -6.99224,-0.0197 -8.89202,0.13973 -14.03125,1.15625 -21.75512,4.30299 -38.52662,19.20763 -45.5625,40.4375 -3.25275,9.81544 -4.5201,20.158 -3.6875,30.375 1.82387,22.38005 11.84677,39.75415 28.8125,50.00005 8.00032,4.8312 16.19448,7.4286 28.03125,8.8437 0.48641,0.058 4.18968,0.071 8.21875,0.031 5.76774,-0.057 8.18741,-0.1904 11.46875,-0.625 14.74697,-1.9512 27.55475,-6.3905 37.875,-13.0938 2.74646,-1.7838 5.59375,-3.8902 5.59375,-4.1562 0,-0.1141 -2.12824,-4.1223 -4.71875,-8.9063 l -4.71875,-8.6875 -1.375,0.9062 c -19.00057,12.1544 -46.94574,15.4306 -63.6875,7.5 -10.43523,-4.9432 -16.50463,-13.5099 -18.8125,-26.56245 l -0.15625,-0.8125 48.75,0 48.75,0 0.125,-0.5625 c 0.75164,-3.21964 1.0864,-12.06384 0.65625,-17.25 -0.61107,-7.35797 -1.60599,-12.39325 -3.6875,-18.71875 -6.48442,-19.70705 -20.8942,-33.07633 -40.9375,-38 -5.92425,-1.4554 -9.37431,-1.85393 -16.90625,-1.875 z m -2.0625,23.25 c 3.70033,-0.0689 7.90503,0.14657 10.40625,0.59375 7.29655,1.30429 12.80517,3.90101 17.46875,8.21875 5.55338,5.14131 9.10337,12.95514 9.59375,21.15625 l 0.15625,2.71875 -36.1875,0 -36.1875,0 0.15625,-1.5 c 0.57764,-5.526 2.81892,-11.73063 6,-16.5625 1.84131,-2.79672 6.09765,-7.01197 9,-8.90625 3.97943,-2.59624 8.66132,-4.36075 13.9375,-5.28125 1.37409,-0.23987 3.43605,-0.39614 5.65625,-0.4375 z"
           style="fill:#c80201;fill-opacity:1"
           inkscape:connector-curvature="0" /><path
           id="path4590"
           d="m 194.16171,70.954681 c 0,-6.488717 0.0341,-10.978812 0.0886,-11.659793 0.34852,-4.349149 1.45716,-7.153833 3.73347,-9.444583 2.41962,-2.434971 5.67385,-3.590991 9.7058,-3.447998 3.23161,0.11464 5.4849,1.003405 7.25916,2.862926 1.39287,1.459917 2.22094,3.166003 2.70427,5.5717 0.35303,1.75788 0.38803,2.564043 0.43441,10.049922 0.0606,9.752985 0.22282,12.919194 0.82622,16.126142 l 0.0931,0.493974 4.1824,0 4.18231,0 -0.1566,-0.966352 c -0.16275,-1.003098 -0.34126,-2.624331 -0.50811,-4.61671 -0.0581,-0.694595 -0.12395,-4.947222 -0.16408,-10.607666 -0.066,-9.339565 -0.0889,-10.055552 -0.39059,-12.196553 -0.44945,-3.191594 -1.52154,-6.09843 -3.02311,-8.197466 -1.23422,-1.725431 -3.27922,-3.586487 -5.04129,-4.588459 -4.41875,-2.512557 -10.40264,-2.990769 -15.50862,-1.239237 -1.85123,0.634921 -3.54504,1.569952 -5.0329,2.778174 -0.93329,0.757852 -2.31879,2.178362 -2.90725,2.980739 -0.23336,0.318433 -0.44719,0.578931 -0.47514,0.578931 -0.0278,0 -0.0969,-0.434915 -0.15343,-0.966353 -0.1609,-1.513757 -0.50789,-3.398559 -0.88559,-4.809858 l -0.0864,-0.322116 -4.10709,0 -4.10707,0 0.10829,0.622739 c 0.36624,2.108555 0.61128,4.985196 0.72572,8.523677 0.0459,1.417747 0.084,9.428718 0.0848,17.802134 l 0.001,15.224376 4.20872,0 4.20871,0 0,-10.55229 0,0 z"
           style="fill:#c80201;fill-opacity:1"
           inkscape:connector-curvature="0" /><path
           style="fill:#c80201;fill-opacity:1"
           d="m 494.5625,1160.375 0,5.3438 0,5.3437 5.6875,0 5.6875,0 0,-5.3437 0,-5.3438 -5.6875,0 -5.6875,0 z m 2.96875,1.5 1.5,0 c 1.35533,0 1.54326,0.017 1.84375,0.094 0.97214,0.2486 1.603,0.9247 1.65625,1.7812 0.0453,0.7275 -0.20813,1.2313 -0.78125,1.5938 l -0.1875,0.125 0.21875,0.062 c 0.55564,0.1957 1.0114,0.6109 1.25,1.0938 0.15923,0.3222 0.1875,0.3209 0.1875,0.8125 0,0.4908 -0.0299,0.525 -0.1875,0.8437 -0.35502,0.7184 -0.97389,1.1001 -1.96875,1.25 -0.30069,0.045 -0.82817,0.062 -1.96875,0.063 l -1.5625,0 0,-3.8438 0,-3.875 z m 1.375,1.2188 0,0.9687 0,1 0.5,0 c 0.26687,-4e-4 0.5924,-0.029 0.75,-0.062 0.69401,-0.1471 0.98232,-0.4735 0.9375,-1.0938 -0.0248,-0.3414 -0.13516,-0.5456 -0.4375,-0.6874 -0.2258,-0.1058 -0.30306,-0.1116 -1,-0.125 l -0.75,0 z m 0,3.1874 0,1.0626 0,1.0312 0.75,0 c 0.40925,-5e-4 0.8678,-0.01 1.03125,-0.031 0.71945,-0.104 1.125,-0.4676 1.125,-1.0313 0,-0.3566 -0.14015,-0.5707 -0.4375,-0.75 -0.35821,-0.216 -0.68092,-0.2813 -1.625,-0.2813 l -0.84375,0 z"
           transform="matrix(1.9913537,0,0,1.9913537,-933.16944,-2271.4564)"
           id="path4588"
           inkscape:connector-curvature="0" /><path
           style="fill:#c80201;fill-opacity:1"
           d="m 507.65625,1160.375 0,5.3438 0,5.3437 5.71875,0 5.71875,0 0,-5.3437 0,-5.3438 -5.71875,0 -5.71875,0 z m 3.03125,1.5 1.46875,0 c 1.66569,9e-4 1.88068,0.022 2.40625,0.2812 0.79316,0.3919 1.22179,1.1747 1.09375,2 -0.0268,0.1729 -0.0801,0.3987 -0.125,0.5 -0.099,0.2239 -0.41791,0.5761 -0.625,0.6876 -0.15682,0.084 -0.19815,0.1562 -0.0937,0.1562 0.14444,0 0.74737,0.3498 0.96875,0.5625 0.48764,0.4686 0.69846,1.2158 0.53125,1.8437 -0.20822,0.7823 -0.81127,1.3193 -1.75,1.5626 -0.32753,0.085 -0.50557,0.1077 -2.125,0.125 l -1.75,0 0,-3.8438 0,-3.875 z m 1.375,1.2188 0,1 0,1 0.625,-0.031 c 0.3652,-0.014 0.68826,-0.055 0.8125,-0.094 0.50655,-0.1594 0.75519,-0.4627 0.75,-0.9688 -0.003,-0.3177 -0.0806,-0.4875 -0.28125,-0.6562 -0.22416,-0.1887 -0.51605,-0.25 -1.25,-0.25 l -0.65625,0 z m 0,3.1874 0,1.0626 0,1.0624 0.9375,-0.031 c 0.79435,-0.017 0.93158,-0.011 1.1875,-0.094 0.72989,-0.2364 0.99452,-1.0348 0.53125,-1.5624 -0.30393,-0.3461 -0.71041,-0.4365 -1.84375,-0.4376 l -0.8125,0 z"
           transform="matrix(1.9913537,0,0,1.9913537,-933.16944,-2271.4564)"
           id="path4580"
           inkscape:connector-curvature="0" /><path
           style="fill:#c80201;fill-opacity:1"
           d="m 520.8125,1160.375 0,5.3438 0,5.3437 5.71875,0 5.6875,0 0,-5.3437 0,-5.3438 -5.6875,0 -5.71875,0 z m 5.9375,1.4062 c 0.82889,-0.046 1.64553,0.079 2.65625,0.4376 l 0.46875,0.1874 0,0.7188 c 0,0.3889 0.009,0.6875 0,0.6875 -0.009,0 -0.26144,-0.09 -0.53125,-0.2187 -0.95914,-0.4564 -1.59026,-0.6264 -2.46875,-0.5938 -0.45988,0.017 -0.62123,0.039 -0.96875,0.1562 -0.52537,0.1776 -0.86336,0.3915 -1.21875,0.75 -0.48178,0.486 -0.71993,1.1206 -0.71875,1.8438 0.002,0.768 0.23851,1.3405 0.75,1.8438 0.57394,0.5645 1.32032,0.8393 2.28125,0.8437 0.85161,0 1.56708,-0.1856 2.46875,-0.6563 l 0.5,-0.25 0,0.7188 0,0.7188 -0.28125,0.1562 c -0.809,0.3728 -1.50262,0.5083 -2.5,0.5312 -0.40334,0.01 -0.85073,0.021 -1,0 -1.55487,-0.219 -2.81263,-1.1353 -3.375,-2.4687 -0.33734,-0.8 -0.36936,-1.7362 -0.0937,-2.5937 0.43999,-1.3691 1.67462,-2.4154 3.1875,-2.7188 0.28557,-0.057 0.56745,-0.079 0.84375,-0.094 z"
           transform="matrix(1.9913537,0,0,1.9913537,-933.16944,-2271.4564)"
           id="path4572"
           inkscape:connector-curvature="0" /></g><sodipodi:namedview
         inkscape:current-layer="svg2413"
         inkscape:window-y="-8"
         inkscape:window-x="-8"
         inkscape:cy="-22.75906"
         inkscape:cx="1329.6704"
         inkscape:zoom="0.25612053"
         id="base"
         pagecolor="#ffffff"
         bordercolor="#666666"
         borderopacity="1.0"
         objecttolerance="10.0"
         gridtolerance="10.0"
         guidetolerance="10.0"
         inkscape:pageopacity="0.0"
         inkscape:pageshadow="2"
         inkscape:window-width="1280"
         inkscape:window-height="974" /></g></g></svg>