<?xml version="1.0" encoding="UTF-8" standalone="no"?>
<!-- Created with Inkscape (http://www.inkscape.org/) -->

<svg
   xmlns:dc="http://purl.org/dc/elements/1.1/"
   xmlns:cc="http://creativecommons.org/ns#"
   xmlns:rdf="http://www.w3.org/1999/02/22-rdf-syntax-ns#"
   xmlns:svg="http://www.w3.org/2000/svg"
   xmlns="http://www.w3.org/2000/svg"
   xmlns:sodipodi="http://sodipodi.sourceforge.net/DTD/sodipodi-0.dtd"
   xmlns:inkscape="http://www.inkscape.org/namespaces/inkscape"
   version="1.0"
   width="721.4126"
   height="225.18199"
   viewBox="0 0 243.89369 76.57119"
   id="svg2"
   xml:space="preserve"
   style="fill-rule:evenodd"
   inkscape:version="0.91 r13725"
   sodipodi:docname="BBC One Northern Ireland HD.svg"><sodipodi:namedview
     pagecolor="#ffffff"
     bordercolor="#666666"
     borderopacity="1"
     objecttolerance="10"
     gridtolerance="10"
     guidetolerance="10"
     inkscape:pageopacity="0"
     inkscape:pageshadow="2"
     inkscape:window-width="1920"
     inkscape:window-height="1017"
     id="namedview14"
     showgrid="false"
     fit-margin-top="0"
     fit-margin-left="0"
     fit-margin-right="0"
     fit-margin-bottom="0"
     inkscape:zoom="1.4024665"
     inkscape:cx="434.87323"
     inkscape:cy="43.410808"
     inkscape:window-x="-8"
     inkscape:window-y="-8"
     inkscape:window-maximized="1"
     inkscape:current-layer="svg2" /><metadata
     id="metadata15"><rdf:RDF><cc:Work
         rdf:about=""><dc:format>image/svg+xml</dc:format><dc:type
           rdf:resource="http://purl.org/dc/dcmitype/StillImage" /><dc:title></dc:title></cc:Work></rdf:RDF></metadata><defs
     id="defs4"><style
       type="text/css"
       id="style6" /><sodipodi:namedview
       inkscape:current-layer="svg2413"
       inkscape:window-y="-8"
       inkscape:window-x="-8"
       inkscape:cy="-22.75906"
       inkscape:cx="1329.6704"
       inkscape:zoom="0.25612053"
       id="base"
       pagecolor="#ffffff"
       bordercolor="#666666"
       borderopacity="1.0"
       objecttolerance="10.0"
       gridtolerance="10.0"
       guidetolerance="10.0"
       inkscape:pageopacity="0.0"
       inkscape:pageshadow="2"
       inkscape:window-width="1280"
       inkscape:window-height="974" /></defs><path
     inkscape:connector-curvature="0"
     id="path3445"
     style="font-style:normal;font-variant:normal;font-weight:bold;font-stretch:normal;font-size:medium;line-height:125%;font-family:BBCOne-Bold;-inkscape-font-specification:'BBCOne-Bold Bold';letter-spacing:0px;word-spacing:0px;fill:#ffffff;fill-opacity:1;stroke:none"
     d="m 99.092261,72.321593 0,-8.142826 2.162389,0 0,12.166893 -1.748619,0 -6.920453,-8.161189 0,8.161189 -2.162391,0 0,-12.166893 1.748621,0 z" /><path
     inkscape:connector-curvature="0"
     id="path3447"
     style="font-style:normal;font-variant:normal;font-weight:bold;font-stretch:normal;font-size:medium;line-height:125%;font-family:BBCOne-Bold;-inkscape-font-specification:'BBCOne-Bold Bold';letter-spacing:0px;word-spacing:0px;fill:#ffffff;fill-opacity:1;stroke:none"
     d="m 109.85888,73.769498 c 0.42619,-0.488944 0.6393,-1.172247 0.6393,-2.049909 0,-0.877653 -0.21311,-1.560956 -0.6393,-2.049909 -0.42621,-0.463689 -1.00909,-0.695536 -1.74862,-0.695545 -0.73955,9e-6 -1.32243,0.231856 -1.74862,0.695545 -0.42659,0.488953 -0.63989,1.172256 -0.63988,2.049909 -1e-5,0.877662 0.21329,1.560965 0.63988,2.049909 0.42619,0.463703 1.00907,0.695549 1.74862,0.695549 0.73953,0 1.32241,-0.231846 1.74862,-0.695549 z m -5.19938,1.447909 c -0.88378,-0.902527 -1.32567,-2.068366 -1.32567,-3.497531 0,-1.429152 0.44189,-2.59509 1.32567,-3.497814 0.88378,-0.90271 2.03403,-1.354068 3.45076,-1.354077 1.41671,9e-6 2.56697,0.451367 3.45075,1.354077 0.88377,0.902724 1.32566,2.068662 1.32567,3.497814 -1e-5,1.429165 -0.4419,2.595004 -1.32567,3.497531 -0.88378,0.902527 -2.03404,1.35379 -3.45075,1.35379 -1.41673,0 -2.56698,-0.451263 -3.45076,-1.35379 z" /><path
     inkscape:connector-curvature="0"
     id="path3449"
     style="font-style:normal;font-variant:normal;font-weight:bold;font-stretch:normal;font-size:medium;line-height:125%;font-family:BBCOne-Bold;-inkscape-font-specification:'BBCOne-Bold Bold';letter-spacing:0px;word-spacing:0px;fill:#ffffff;fill-opacity:1;stroke:none"
     d="m 120.88144,67.037281 -0.2261,2.068272 c -0.43884,-0.0876 -0.82736,-0.131409 -1.16556,-0.131418 -0.68981,9e-6 -1.25394,0.256914 -1.69238,0.770722 -0.38872,0.464089 -0.58307,1.335432 -0.58307,2.61404 l 0,3.986763 -2.29438,0 0,-6.657039 c 0,-1.065505 -0.0627,-1.930535 -0.18823,-2.595098 l 2.23814,0 c 0.1251,0.438838 0.20659,0.909038 0.24447,1.4106 l 0.0189,0 c 0.60143,-1.078123 1.4852,-1.617192 2.65134,-1.617202 0.4262,1e-5 0.75847,0.05013 0.99683,0.15036 z" /><path
     inkscape:connector-curvature="0"
     id="path3451"
     style="font-style:normal;font-variant:normal;font-weight:bold;font-stretch:normal;font-size:medium;line-height:125%;font-family:BBCOne-Bold;-inkscape-font-specification:'BBCOne-Bold Bold';letter-spacing:0px;word-spacing:0px;fill:#ffffff;fill-opacity:1;stroke:none"
     d="m 127.78985,74.59704 0.20717,1.654505 c -0.5517,0.213099 -1.12845,0.319652 -1.73026,0.319652 -1.32873,0 -2.28788,-0.38852 -2.87745,-1.165557 -0.4637,-0.639684 -0.69554,-1.561148 -0.69554,-2.764395 l 0,-3.798529 -1.48579,0 0,-1.749193 1.48579,0 0,-2.707581 2.29438,0 0,2.707581 2.36956,0 0,1.749193 -2.36956,0 0,3.45994 c 0,0.889904 0.11898,1.51046 0.35696,1.861676 0.25097,0.388713 0.67105,0.583068 1.26024,0.583063 0.45107,5e-6 0.8459,-0.05011 1.1845,-0.150355 z" /><path
     inkscape:connector-curvature="0"
     id="path3453"
     style="font-style:normal;font-variant:normal;font-weight:bold;font-stretch:normal;font-size:medium;line-height:125%;font-family:BBCOne-Bold;-inkscape-font-specification:'BBCOne-Bold Bold';letter-spacing:0px;word-spacing:0px;fill:#ffffff;fill-opacity:1;stroke:none"
     d="m 138.84398,76.34566 -2.27545,0 c -0.13812,-0.639304 -0.20718,-1.498025 -0.20717,-2.576162 l 0,-1.936854 c -1e-5,-1.19099 -0.17542,-1.962099 -0.52625,-2.31332 -0.36385,-0.363453 -0.86542,-0.54518 -1.50472,-0.545189 -0.72692,9e-6 -1.33486,0.250793 -1.8238,0.752359 -0.23836,0.263228 -0.39197,0.5891 -0.46083,0.977611 -0.0689,0.388525 -0.1033,0.933809 -0.1033,1.635851 l 0,4.005704 -2.29438,0 0,-12.166893 2.27544,0 0,4.306419 0.0189,0 c 0.23797,-0.451447 0.62964,-0.833842 1.17503,-1.147189 0.54537,-0.313334 1.16909,-0.470003 1.87114,-0.470012 1.10338,9e-6 1.99347,0.33841 2.67028,1.015197 0.3512,0.363853 0.60515,0.81215 0.76183,1.344895 0.15666,0.53276 0.23499,1.263028 0.235,2.190796 l 0,2.350625 c -1e-5,1.052887 0.0627,1.911607 0.18824,2.576162 z" /><path
     inkscape:connector-curvature="0"
     id="path3455"
     style="font-style:normal;font-variant:normal;font-weight:bold;font-stretch:normal;font-size:medium;line-height:125%;font-family:BBCOne-Bold;-inkscape-font-specification:'BBCOne-Bold Bold';letter-spacing:0px;word-spacing:0px;fill:#ffffff;fill-opacity:1;stroke:none"
     d="m 149.66167,72.509253 -6.78846,0 c 0.0754,0.639308 0.33553,1.156474 0.78048,1.551492 0.44495,0.395027 1.05613,0.592536 1.83356,0.592536 1.19099,0 2.24406,-0.313531 3.15922,-0.940593 l 0.71448,1.523656 c -1.11563,0.889904 -2.51342,1.334853 -4.19336,1.334853 -1.37923,0 -2.50758,-0.445048 -3.38505,-1.33514 -0.87746,-0.890088 -1.3162,-2.055931 -1.3162,-3.497527 0,-1.429349 0.43568,-2.598441 1.30702,-3.507287 0.87135,-0.908831 1.99013,-1.363249 3.35636,-1.363258 1.41672,9e-6 2.53885,0.445053 3.36639,1.335136 0.82753,0.890101 1.2413,2.049824 1.24131,3.479168 -10e-6,0.20048 -0.0253,0.476133 -0.0757,0.826964 z m -6.78846,-1.635565 4.51359,0 c -1e-5,-0.639684 -0.20068,-1.153785 -0.60201,-1.54231 -0.40134,-0.388511 -0.95303,-0.582772 -1.65507,-0.582781 -0.63931,9e-6 -1.15638,0.200579 -1.55121,0.601718 -0.39483,0.401152 -0.62993,0.908939 -0.7053,1.523373 z" /><path
     inkscape:connector-curvature="0"
     id="path3457"
     style="font-style:normal;font-variant:normal;font-weight:bold;font-stretch:normal;font-size:medium;line-height:125%;font-family:BBCOne-Bold;-inkscape-font-specification:'BBCOne-Bold Bold';letter-spacing:0px;word-spacing:0px;fill:#ffffff;fill-opacity:1;stroke:none"
     d="m 157.83032,67.037281 -0.22611,2.068272 c -0.43884,-0.0876 -0.82736,-0.131409 -1.16556,-0.131418 -0.68981,9e-6 -1.25394,0.256914 -1.69238,0.770722 -0.38871,0.464089 -0.58307,1.335432 -0.58307,2.61404 l 0,3.986763 -2.29438,0 0,-6.657039 c 0,-1.065505 -0.0627,-1.930535 -0.18823,-2.595098 l 2.23814,0 c 0.12511,0.438838 0.2066,0.909038 0.24447,1.4106 l 0.019,0 c 0.60142,-1.078123 1.4852,-1.617192 2.65134,-1.617202 0.4262,1e-5 0.75847,0.05013 0.99683,0.15036 z" /><path
     inkscape:connector-curvature="0"
     id="path3459"
     style="font-style:normal;font-variant:normal;font-weight:bold;font-stretch:normal;font-size:medium;line-height:125%;font-family:BBCOne-Bold;-inkscape-font-specification:'BBCOne-Bold Bold';letter-spacing:0px;word-spacing:0px;fill:#ffffff;fill-opacity:1;stroke:none"
     d="m 168.61243,76.34566 -2.29381,0 c -0.1255,-0.664555 -0.18824,-1.523275 -0.18823,-2.576162 l 0,-1.95579 c -1e-5,-1.190996 -0.17543,-1.962099 -0.52626,-2.313325 -0.37647,-0.363449 -0.87804,-0.54518 -1.50471,-0.545185 -0.72693,5e-6 -1.33486,0.250793 -1.82381,0.75236 -0.23835,0.263227 -0.39512,0.595408 -0.47029,0.996547 -0.0752,0.401148 -0.11277,0.940311 -0.11277,1.617488 l 0,4.024067 -2.29438,0 0,-6.657039 c -1e-5,-1.065505 -0.0627,-1.930535 -0.18824,-2.595098 l 2.23815,0 c 0.1251,0.45146 0.20659,0.909038 0.24447,1.372727 l 0.0189,0 c 0.22534,-0.451066 0.61386,-0.830208 1.16555,-1.137439 0.55169,-0.307208 1.17225,-0.460817 1.86168,-0.460826 1.14087,9e-6 2.03096,0.332289 2.67027,0.996834 0.36384,0.363467 0.6241,0.811572 0.78077,1.344322 0.15666,0.532759 0.235,1.269337 0.23501,2.209732 l 0,2.350625 c -1e-5,1.052887 0.0625,1.911607 0.18766,2.576162 z" /><path
     inkscape:connector-curvature="0"
     id="path3461"
     style="font-style:normal;font-variant:normal;font-weight:bold;font-stretch:normal;font-size:medium;line-height:125%;font-family:BBCOne-Bold;-inkscape-font-specification:'BBCOne-Bold Bold';letter-spacing:0px;word-spacing:0px;fill:#ffffff;fill-opacity:1;stroke:none"
     d="m 175.33948,73.769498 0,-9.590731 2.40687,0 0,9.590731 c -1e-5,1.052887 0.0627,1.911607 0.18823,2.576162 l -2.3885,0 c -0.13773,-0.727298 -0.2066,-1.586018 -0.2066,-2.576162 z" /><path
     inkscape:connector-curvature="0"
     id="path3463"
     style="font-style:normal;font-variant:normal;font-weight:bold;font-stretch:normal;font-size:medium;line-height:125%;font-family:BBCOne-Bold;-inkscape-font-specification:'BBCOne-Bold Bold';letter-spacing:0px;word-spacing:0px;fill:#ffffff;fill-opacity:1;stroke:none"
     d="m 186.62546,67.037281 -0.22611,2.068272 c -0.43883,-0.0876 -0.82735,-0.131409 -1.16555,-0.131418 -0.68982,9e-6 -1.25394,0.256914 -1.69238,0.770722 -0.38872,0.464089 -0.58307,1.335432 -0.58307,2.61404 l 0,3.986763 -2.29438,0 0,-6.657039 c 0,-1.065505 -0.0627,-1.930535 -0.18824,-2.595098 l 2.23815,0 c 0.1251,0.438838 0.20659,0.909038 0.24447,1.4106 l 0.019,0 c 0.60142,-1.078123 1.4852,-1.617192 2.65133,-1.617202 0.4262,1e-5 0.75848,0.05013 0.99684,0.15036 z" /><path
     inkscape:connector-curvature="0"
     id="path3465"
     style="font-style:normal;font-variant:normal;font-weight:bold;font-stretch:normal;font-size:medium;line-height:125%;font-family:BBCOne-Bold;-inkscape-font-specification:'BBCOne-Bold Bold';letter-spacing:0px;word-spacing:0px;fill:#ffffff;fill-opacity:1;stroke:none"
     d="m 196.67415,72.509253 -6.78846,0 c 0.0754,0.639308 0.33553,1.156474 0.78048,1.551492 0.44495,0.395027 1.05613,0.592536 1.83356,0.592536 1.19099,0 2.24406,-0.313531 3.15922,-0.940593 l 0.71449,1.523656 c -1.11564,0.889904 -2.51343,1.334853 -4.19337,1.334853 -1.37923,0 -2.50758,-0.445048 -3.38505,-1.33514 -0.87746,-0.890088 -1.31619,-2.055931 -1.31619,-3.497527 0,-1.429349 0.43567,-2.598441 1.30701,-3.507287 0.87135,-0.908831 1.99013,-1.363249 3.35636,-1.363258 1.41672,9e-6 2.53885,0.445053 3.3664,1.335136 0.82752,0.890101 1.24129,2.049824 1.2413,3.479168 -1e-5,0.20048 -0.0252,0.476133 -0.0757,0.826964 z m -6.78846,-1.635565 4.51359,0 c -1e-5,-0.639684 -0.20067,-1.153785 -0.602,-1.54231 -0.40135,-0.388511 -0.95304,-0.582772 -1.65508,-0.582781 -0.63931,9e-6 -1.15638,0.200579 -1.55121,0.601718 -0.39483,0.401152 -0.62993,0.908939 -0.7053,1.523373 z" /><path
     inkscape:connector-curvature="0"
     id="path3468"
     style="font-style:normal;font-variant:normal;font-weight:bold;font-stretch:normal;font-size:medium;line-height:125%;font-family:BBCOne-Bold;-inkscape-font-specification:'BBCOne-Bold Bold';letter-spacing:0px;word-spacing:0px;fill:#ffffff;fill-opacity:1;stroke:none"
     d="m 198.8813,73.769498 0,-9.590731 2.29439,0 0,9.590731 c 0,1.140885 0.0625,1.999601 0.18766,2.576162 l -2.29381,0 c -0.12549,-0.664555 -0.18824,-1.523275 -0.18824,-2.576162 z" /><path
     inkscape:connector-curvature="0"
     id="path3470"
     style="font-style:normal;font-variant:normal;font-weight:bold;font-stretch:normal;font-size:medium;line-height:125%;font-family:BBCOne-Bold;-inkscape-font-specification:'BBCOne-Bold Bold';letter-spacing:0px;word-spacing:0px;fill:#ffffff;fill-opacity:1;stroke:none"
     d="m 212.69524,76.34566 -2.27545,0 c -0.0501,-0.238354 -0.10024,-0.633183 -0.15036,-1.184494 -0.36385,0.451071 -0.80277,0.798846 -1.31677,1.04332 -0.51401,0.244474 -1.02161,0.366711 -1.52279,0.366711 -1.1034,0 -2.02486,-0.344714 -2.7644,-1.034138 -0.9779,-0.877657 -1.46685,-2.14383 -1.46685,-3.798529 0,-1.792807 0.57676,-3.128037 1.73026,-4.005703 0.75217,-0.576552 1.59195,-0.864833 2.51935,-0.864842 1.20362,9e-6 2.12508,0.463896 2.76439,1.391663 l 0,-1.166125 2.29439,0 0,6.657038 c -2e-5,1.06551 0.0627,1.930544 0.18823,2.595099 z m -6.46938,-2.576162 c 0.42658,0.463703 1.00964,0.695549 1.74919,0.695549 0.73954,0 1.32241,-0.231846 1.74862,-0.695549 0.4262,-0.488944 0.6393,-1.165933 0.63931,-2.030968 -1e-5,-0.89028 -0.21311,-1.579897 -0.63931,-2.06885 -0.42621,-0.463689 -1.00908,-0.695536 -1.74862,-0.695545 -0.73955,9e-6 -1.32252,0.23195 -1.74891,0.695832 -0.42639,0.463895 -0.63959,1.153413 -0.63959,2.068563 0,0.889904 0.2131,1.566893 0.63931,2.030968 z" /><path
     inkscape:connector-curvature="0"
     id="path3472"
     style="font-style:normal;font-variant:normal;font-weight:bold;font-stretch:normal;font-size:medium;line-height:125%;font-family:BBCOne-Bold;-inkscape-font-specification:'BBCOne-Bold Bold';letter-spacing:0px;word-spacing:0px;fill:#ffffff;fill-opacity:1;stroke:none"
     d="m 224.47648,76.34566 -2.29381,0 c -0.1255,-0.664555 -0.18824,-1.523275 -0.18823,-2.576162 l 0,-1.95579 c -1e-5,-1.190996 -0.17543,-1.962099 -0.52625,-2.313325 -0.37648,-0.363449 -0.87805,-0.54518 -1.50473,-0.545185 -0.72692,5e-6 -1.33485,0.250793 -1.82379,0.75236 -0.23836,0.263227 -0.39513,0.595408 -0.4703,0.996547 -0.0752,0.401148 -0.11277,0.940311 -0.11277,1.617488 l 0,4.024067 -2.29438,0 0,-6.657039 c 0,-1.065505 -0.0628,-1.930535 -0.18824,-2.595098 l 2.23814,0 c 0.12511,0.45146 0.2066,0.909038 0.24448,1.372727 l 0.0189,0 c 0.22534,-0.451066 0.61386,-0.830208 1.16556,-1.137439 0.55169,-0.307208 1.17224,-0.460817 1.86168,-0.460826 1.14087,9e-6 2.03095,0.332289 2.67027,0.996834 0.36383,0.363467 0.62409,0.811572 0.78077,1.344322 0.15666,0.532759 0.23499,1.269337 0.235,2.209732 l 0,2.350625 c -10e-6,1.052887 0.0626,1.911607 0.18766,2.576162 z" /><path
     inkscape:connector-curvature="0"
     id="path3474"
     style="font-style:normal;font-variant:normal;font-weight:bold;font-stretch:normal;font-size:medium;line-height:125%;font-family:BBCOne-Bold;-inkscape-font-specification:'BBCOne-Bold Bold';letter-spacing:0px;word-spacing:0px;fill:#ffffff;fill-opacity:1;stroke:none"
     d="m 235.61382,76.34566 -2.29438,0 c -0.0754,-0.438829 -0.11918,-0.833659 -0.13142,-1.184494 -0.36385,0.451071 -0.80277,0.798846 -1.31677,1.04332 -0.51402,0.244474 -1.02162,0.366711 -1.5228,0.366711 -1.10339,0 -2.03117,-0.3384 -2.78333,-1.015201 -0.96528,-0.89028 -1.44791,-2.169081 -1.44791,-3.836407 0,-1.805425 0.57675,-3.14066 1.73026,-4.005699 0.73954,-0.563929 1.57932,-0.845896 2.51934,-0.845905 0.57694,9e-6 1.10673,0.122246 1.58937,0.366711 0.48263,0.244484 0.8743,0.579819 1.17503,1.006016 l 0,-4.061945 2.29438,0 0,9.590731 c -1e-5,1.052887 0.0627,1.911607 0.18823,2.576162 z m -4.72018,-1.880613 c 0.73953,0 1.32241,-0.225533 1.74862,-0.676608 0.4262,-0.488944 0.63929,-1.172247 0.6393,-2.049909 -1e-5,-0.902522 -0.2131,-1.59826 -0.6393,-2.087213 -0.43884,-0.464075 -1.02171,-0.696114 -1.74862,-0.696119 -0.73955,5e-6 -1.32242,0.232044 -1.74862,0.696119 -0.4266,0.488953 -0.63989,1.178471 -0.63988,2.068559 -1e-5,0.890096 0.21328,1.579619 0.63988,2.068563 0.41357,0.451075 0.99644,0.676608 1.74862,0.676608 z" /><path
     inkscape:connector-curvature="0"
     style="fill:#ffffff;fill-opacity:1"
     d="m 107.82266,13.162276 c -0.39243,-0.005 -0.79103,-0.0014 -1.19001,0.01061 -5.0608,0.154028 -9.521918,1.714205 -13.185784,4.611304 -2.007618,1.587383 -4.100897,4.191032 -5.312562,6.598202 -3.26565,6.488517 -3.320366,15.287055 -0.138126,21.792147 1.091521,2.231344 2.188993,3.768978 3.910045,5.493172 3.483657,3.490209 7.815937,5.43459 13.398277,6.003213 0.85725,0.08731 4.75423,-0.0238 5.6207,-0.15936 4.79479,-0.751443 8.64679,-2.576754 11.71951,-5.546349 3.57402,-3.454135 5.63051,-7.706666 6.37507,-13.185779 0.19118,-1.407461 0.21327,-4.955579 0.0425,-6.353825 -0.67291,-5.509887 -2.81407,-10.033143 -6.36445,-13.462032 -3.86031,-3.728202 -8.98875,-5.726623 -14.87517,-5.801318 z m -0.18063,8.000718 c 1.08864,0.0098 2.17368,0.116686 3.15566,0.318754 5.11012,1.051398 8.37082,4.604953 9.31824,10.157619 0.37745,2.211178 0.37735,5.360197 0,7.596964 -1.03022,6.10676 -4.89654,9.789343 -10.912,10.412639 -0.9511,0.09853 -2.6657,0.09146 -3.6338,-0.01054 -3.08633,-0.325656 -5.52719,-1.419347 -7.437584,-3.336289 -1.881324,-1.88777 -2.974933,-4.24767 -3.495666,-7.565089 -0.219826,-1.400908 -0.218286,-5.1028 0,-6.555702 0.187101,-1.247287 0.560259,-2.712123 0.913761,-3.601917 1.312786,-3.304743 3.701633,-5.600042 6.991329,-6.704453 1.44698,-0.485822 3.28566,-0.728136 5.10006,-0.711884 z"
     id="path4598" /><path
     inkscape:connector-curvature="0"
     style="fill:#ffffff;fill-opacity:1"
     d="m 199.77248,13.194151 c -2.37739,-0.0067 -3.02332,0.04751 -4.77068,0.39313 -7.39683,1.463033 -13.0992,6.53067 -15.49143,13.748911 -1.10595,3.337288 -1.53685,6.8538 -1.25376,10.32762 0.62012,7.609307 4.02795,13.51657 9.79636,17.000216 2.72014,1.642628 5.50619,2.525754 9.53074,3.006894 0.16538,0.01972 1.4245,0.02414 2.7944,0.01054 1.96106,-0.01938 2.78376,-0.06474 3.89943,-0.212503 5.01402,-0.663415 9.36872,-2.172795 12.87765,-4.451944 0.9338,-0.606499 1.90189,-1.322683 1.90189,-1.413124 0,-0.0388 -0.72361,-1.401599 -1.60439,-3.028178 l -1.60439,-2.953784 -0.46751,0.308111 c -6.46027,4.132545 -15.96174,5.246466 -21.654,2.55003 -3.54802,-1.680708 -5.61164,-4.59342 -6.39633,-9.031339 l -0.0531,-0.276253 16.57519,0 16.57519,0 0.0425,-0.191252 c 0.25556,-1.094691 0.36938,-4.101754 0.22313,-5.865069 -0.20776,-2.501739 -0.54604,-4.213754 -1.25376,-6.364449 -2.20473,-6.700476 -7.10411,-11.246084 -13.91892,-12.920151 -2.01426,-0.494842 -3.1873,-0.630344 -5.74819,-0.637508 z m -0.70126,7.905093 c 1.25813,-0.02343 2.68775,0.04983 3.53817,0.201877 2.48086,0.443464 4.35381,1.326359 5.93945,2.794408 1.88817,1.748066 3.09518,4.404799 3.26191,7.193209 l 0.0531,0.924386 -12.30389,0 -12.30389,0 0.0531,-0.510006 c 0.1964,-1.878862 0.95845,-3.988461 2.04003,-5.631316 0.62605,-0.950896 2.07322,-2.384098 3.06003,-3.028161 1.35302,-0.882732 2.94488,-1.482672 4.73881,-1.795646 0.46719,-0.08156 1.16827,-0.134689 1.92314,-0.148751 z"
     id="path4594" /><path
     inkscape:connector-curvature="0"
     style="fill:#ffffff;fill-opacity:1"
     d="m 141.75842,46.05403 c 0,-6.488004 0.0341,-10.977606 0.0886,-11.658512 0.34848,-4.348671 1.457,-7.153047 3.73306,-9.443545 2.41935,-2.434704 5.67322,-3.590597 9.70473,-3.447619 3.23125,0.114627 5.4843,1.003295 7.25836,2.862611 1.39272,1.459757 2.2207,3.165655 2.70397,5.571088 0.35299,1.757687 0.38799,2.563761 0.43437,10.048818 0.0606,9.751913 0.22279,12.917774 0.82613,16.12437 l 0.0931,0.49392 4.18195,0 4.18185,0 -0.15659,-0.966246 c -0.16273,-1.002988 -0.34122,-2.624043 -0.50805,-4.616203 -0.0581,-0.694518 -0.12394,-4.946678 -0.16406,-10.6065 -0.066,-9.338539 -0.0889,-10.054447 -0.39055,-12.195213 -0.4494,-3.191244 -1.52137,-6.09776 -3.02278,-8.196566 -1.23408,-1.725241 -3.27886,-3.586093 -5.04073,-4.587954 -4.41827,-2.512281 -10.4015,-2.990441 -15.50692,-1.239101 -1.85103,0.634851 -3.54465,1.569779 -5.03235,2.777868 -0.93318,0.757769 -2.31853,2.178123 -2.90693,2.980412 -0.23333,0.318398 -0.44714,0.578867 -0.47508,0.578867 -0.0278,0 -0.0969,-0.434867 -0.15342,-0.966246 -0.16088,-1.513591 -0.50783,-3.398186 -0.88549,-4.80933 l -0.0864,-0.322081 -4.10664,0 -4.10662,0 0.10828,0.622671 c 0.3662,2.108323 0.61121,4.984648 0.72564,8.52274 0.0459,1.417592 0.084,9.427683 0.0848,17.800179 l 0.001,15.222703 4.20826,0 4.20825,0 0,-10.551131 0,0 z"
     id="path4590" /><path
     inkscape:connector-curvature="0"
     id="path4588"
     d="m -0.70822548,14.36346 0,10.640226 0,10.640028 11.32457948,0 11.324579,0 0,-10.640028 0,-10.640226 -11.324579,0 -11.32457948,0 z m 5.91118148,2.986702 2.9867022,0 c 2.6986448,0 3.0728388,0.03385 3.6711548,0.187167 1.935662,0.494996 3.191789,1.841202 3.297817,3.546609 0.0902,1.448551 -0.414415,2.451685 -1.555574,3.173471 l -0.373338,0.248892 0.435561,0.12345 c 1.106354,0.389665 2.013834,1.216384 2.488918,2.177903 0.317049,0.641544 0.373338,0.638956 0.373338,1.617798 0,0.977249 -0.05954,1.045345 -0.373338,1.67992 -0.706892,1.430431 -1.939146,2.190448 -3.920046,2.488919 -0.598715,0.0896 -1.648998,0.12345 -3.9200469,0.125441 l -3.1111481,0 0,-7.653524 0,-7.715648 z m 2.7378103,2.426795 0,1.928813 0,1.991134 0.9955674,0 c 0.5313742,-7.96e-4 1.1795483,-0.05774 1.4933513,-0.12345 1.381867,-0.292896 1.955931,-0.942802 1.866689,-2.177903 -0.04938,-0.679774 -0.269122,-1.086363 -0.871122,-1.368706 -0.449598,-0.210662 -0.603433,-0.222211 -1.9911346,-0.248892 l -1.4933511,0 z m 0,6.346544 0,2.115779 0,2.053259 1.4933511,0 c 0.8148716,-9.96e-4 1.7279066,-0.01991 2.0533576,-0.06173 1.432522,-0.207078 2.240027,-0.931055 2.240027,-2.053458 0,-0.710039 -0.279058,-1.136341 -0.871122,-1.493351 -0.713244,-0.430085 -1.355803,-0.560106 -3.2355937,-0.560106 l -1.68002,0 z"
     style="fill:#c80201;fill-opacity:1" /><path
     inkscape:connector-curvature="0"
     id="path4580"
     d="m 25.363196,14.36346 0,10.640226 0,10.640028 11.386802,0 11.386802,0 0,-10.640028 0,-10.640226 -11.386802,0 -11.386802,0 z m 6.035627,2.986702 2.924479,0 c 3.316614,0.0018 3.744688,0.0438 4.791169,0.559907 1.579288,0.780326 2.432748,2.338986 2.177803,3.98227 -0.05336,0.344267 -0.15949,0.793865 -0.248892,0.995567 -0.197122,0.445815 -0.832115,1.147093 -1.244459,1.369105 -0.31225,0.167255 -0.394543,0.311015 -0.186569,0.311015 0.287599,0 1.488114,0.696499 1.928912,1.120013 0.970957,0.933046 1.390728,2.420822 1.05779,3.671056 -0.414594,1.557665 -1.615348,2.626904 -3.484486,3.111347 -0.652156,0.169247 -1.006658,0.214445 -4.231161,0.248892 l -3.484486,0 0,-7.653524 0,-7.715648 z m 2.737811,2.426795 0,1.991135 0,1.991135 1.244459,-0.06172 c 0.727162,-0.02788 1.370418,-0.109513 1.617797,-0.187167 1.008609,-0.317387 1.503685,-0.921298 1.493351,-1.929011 -0.006,-0.632584 -0.160486,-0.970679 -0.560007,-1.306583 -0.446333,-0.375727 -1.027525,-0.497784 -2.488918,-0.497784 l -1.306682,0 z m 0,6.346544 0,2.115779 0,2.115382 1.866688,-0.06173 c 1.581658,-0.03385 1.854902,-0.0219 2.364473,-0.187167 1.453309,-0.470704 1.980223,-2.060426 1.05779,-3.110949 -0.605165,-0.689132 -1.414522,-0.86913 -3.671154,-0.87132 l -1.617797,0 z"
     style="fill:#c80201;fill-opacity:1" /><path
     inkscape:connector-curvature="0"
     id="path4572"
     d="m 51.559063,14.36346 0,10.640226 0,10.640028 11.386802,0 11.324579,0 0,-10.640028 0,-10.640226 -11.324579,0 -11.386802,0 z m 11.822363,2.799933 c 1.650432,-0.09159 3.276472,0.1573 5.288952,0.871321 l 0.933344,0.373139 0,1.431228 c 0,0.774352 0.01792,1.368905 0,1.368905 -0.01792,0 -0.520562,-0.179202 -1.05779,-0.435461 -1.909777,-0.908754 -3.166422,-1.247247 -4.915614,-1.182336 -0.915683,0.03385 -1.236953,0.07765 -1.928912,0.311015 -1.046083,0.353626 -1.719066,0.779529 -2.426696,1.493351 -0.959289,0.967692 -1.433477,2.231266 -1.431128,3.671255 0.004,1.529191 0.474906,2.669116 1.493351,3.671254 1.142792,1.123996 2.628935,1.67116 4.542277,1.679921 1.69567,0 3.120267,-0.369555 4.915614,-1.306782 l 0.995567,-0.497784 0,1.431228 0,1.431228 -0.560007,0.311015 c -1.610828,0.742295 -2.991919,1.012094 -4.977837,1.057691 -0.803104,0.01991 -1.693918,0.04181 -1.991134,0 -3.095956,-0.436059 -5.600326,-2.260536 -6.72008,-4.915515 -0.67169,-1.592908 -0.735446,-3.457008 -0.18657,-5.164406 0.87608,-2.726063 3.334394,-4.809388 6.346742,-5.413498 0.568609,-0.113495 1.12987,-0.1573 1.68002,-0.187167 z"
     style="fill:#c80201;fill-opacity:1" /><path
     d="M 226.88733,2.209174 229.27998,0 l -0.015,16.684884 -2.37767,-2.516212 0,-4.732876 -9.38338,0 0,7.26781 -2.3889,-2.512468 0,-11.974475 L 217.50393,0 l 0,7.219133 9.38338,0 0,-5.009959 z"
     id="path15603"
     style="fill:#ffffff;fill-opacity:1;fill-rule:nonzero;stroke:none"
     inkscape:connector-curvature="0" /><path
     d="m 229.265,16.677396 0,0 2.39265,-2.130543 3.04042,0 c 1.19445,0 2.12306,-0.07863 2.78581,-0.232151 0.6665,-0.168496 1.21317,-0.374436 1.65501,-0.621564 0.44558,-0.258361 0.84622,-0.572888 1.21692,-0.936091 1.17947,-1.194452 1.76734,-2.707175 1.76734,-4.534425 0,-1.79355 -0.60659,-3.253852 -1.81602,-4.380905 -0.44558,-0.423113 -0.95856,-0.775083 -1.54268,-1.044678 -0.57289,-0.273338 -1.11956,-0.449323 -1.64003,-0.535444 -0.51298,-0.08612 -1.34423,-0.131052 -2.49749,-0.131052 l -2.98426,0 L 229.27249,0 l 5.60906,0 c 2.26908,0 4.07012,0.344481 5.38814,1.025955 1.3255,0.681475 2.37767,1.68122 3.16024,3.006724 0.77508,1.321761 1.17198,2.763341 1.17198,4.328485 0,1.112076 -0.22091,2.17922 -0.64777,3.201431 -0.43435,1.018467 -1.04842,1.917114 -1.84223,2.692197 -0.80878,0.79755 -1.7561,1.396648 -2.83074,1.801039 -0.62905,0.247128 -1.21317,0.415625 -1.73364,0.501745 -0.52421,0.08238 -1.53144,0.11982 -3.01795,0.11982 l -5.26458,0 5.26458,0 c 1.48651,0 2.49374,-0.03744 3.01795,-0.11982 0.52047,-0.08612 1.10459,-0.254617 1.73364,-0.501745 1.07464,-0.404391 2.02196,-1.003489 2.83074,-1.801039 0.79381,-0.775083 1.40788,-1.67373 1.84223,-2.692197 0.42686,-1.022211 0.64777,-2.089355 0.64777,-3.201431 0,-1.565144 -0.3969,-3.006724 -1.17198,-4.328485 C 242.64736,2.707175 241.59519,1.70743 240.26969,1.025955 238.95167,0.344481 237.15063,0 234.88155,0 l -5.60906,0 2.37018,2.130543 2.98426,0 c 1.15326,0 1.98451,0.04493 2.49749,0.131052 0.52047,0.08612 1.06714,0.262106 1.64003,0.535444 0.58412,0.269595 1.0971,0.621565 1.54268,1.044678 1.20943,1.127053 1.81602,2.587355 1.81602,4.380905 0,1.82725 -0.58787,3.339973 -1.76734,4.534425 -0.3707,0.363203 -0.77134,0.67773 -1.21692,0.936091 -0.44184,0.247128 -0.98851,0.453068 -1.65501,0.621564 -0.66275,0.153519 -1.59136,0.232151 -2.78581,0.232151 l -3.04042,0 -2.39265,2.130543 z"
     id="path15607"
     style="fill:#ffffff;fill-rule:nonzero;stroke:none"
     inkscape:connector-curvature="0" /><path
     d="m 229.265,16.677396 2.39265,-2.130543 3.04042,0 c 1.19445,0 2.12306,-0.07863 2.78581,-0.232151 0.6665,-0.168496 1.21317,-0.374436 1.65501,-0.621564 0.44558,-0.258361 0.84622,-0.572888 1.21692,-0.936091 1.17947,-1.194452 1.76734,-2.707175 1.76734,-4.534425 0,-1.79355 -0.60659,-3.253852 -1.81602,-4.380905 -0.44558,-0.423113 -0.95856,-0.775083 -1.54268,-1.044678 -0.57289,-0.273338 -1.11956,-0.449323 -1.64003,-0.535444 -0.51298,-0.08612 -1.34423,-0.131052 -2.49749,-0.131052 l -2.98426,0 L 229.27249,0 l 5.60906,0 c 2.26908,0 4.07012,0.344481 5.38814,1.025955 1.3255,0.681475 2.37767,1.68122 3.16024,3.006724 0.77508,1.321761 1.17198,2.763341 1.17198,4.328485 0,1.112076 -0.22091,2.17922 -0.64777,3.201431 -0.43435,1.018467 -1.04842,1.917114 -1.84223,2.692197 -0.80878,0.79755 -1.7561,1.396648 -2.83074,1.801039 -0.62905,0.247128 -1.21317,0.415625 -1.73364,0.501745 -0.52421,0.08238 -1.53144,0.11982 -3.01795,0.11982 l -5.26458,0 z"
     id="path15611"
     style="fill:#ffffff;fill-opacity:1;fill-rule:nonzero;stroke:none"
     inkscape:connector-curvature="0" /><path
     d="M 231.65765,2.14552 229.26874,0 l 0,16.677396 2.38891,-2.130543 0,-5.111057 0,-2.216663 0,-5.073613 z"
     id="path15615"
     style="opacity:0.5;fill:#ea8d86;fill-opacity:1;fill-rule:nonzero;stroke:none"
     inkscape:connector-curvature="0" /><path
     d="m 217.50021,9.435796 -0.007,7.256577 2.39265,-2.153009 -0.007,-5.103568 -2.37767,0 z"
     id="path15619"
     style="opacity:0.5;fill:#ea8d86;fill-opacity:1;fill-rule:nonzero;stroke:none"
     inkscape:connector-curvature="0" /><path
     d="M 219.94153,7.219133 219.89663,2.216663 217.50398,0 l 0,7.219133 2.43758,0 z"
     id="path15623"
     style="opacity:0.5;fill:#ea8d86;fill-opacity:1;fill-rule:nonzero;stroke:none"
     inkscape:connector-curvature="0" /></svg>