<svg height="296.19427" width="1041.5012" xmlns="http://www.w3.org/2000/svg"><g fill="#c80201" transform="matrix(2.5818855 0 0 2.5818855 486.991851 -51.06761)"><path d="m-9.2783203 125.46003v-17.32056h4.5996094v25.88013h-3.7194825l-14.7204586-17.35962v17.35962h-4.59961v-25.88013h3.719483z"/><path d="m5.5080091 123.13947v6.40015h11.2792969l.760498 4.47998h-17.15942382v-25.88013h17.23999082l-.841065 4.4397h-11.2792969v6.08032h10.2404789v4.47998z"/><path d="m29.091946 127.09944c-.000002-2.74658 1.893307-5.37312 5.679932-7.87964-1.014004-1.22639-1.71428-2.253-2.10083-3.07984-.386561-.8268-.579839-1.78709-.579834-2.88086-.000005-1.70652.620111-3.08632 1.860351-4.1394 1.240227-1.05304 2.766918-1.57956 4.580078-1.57959 1.839994.00003 3.366685.51984 4.580078 1.55945 1.213362 1.03965 1.820051 2.41315 1.820069 4.12048-.000018 2.55943-1.400163 4.77256-4.20044 6.63941l4.20044 4.84008c.399559-1.09292.705955-2.01293.919189-2.76001h3.560791c-.720236 2.32016-1.373718 4.16017-1.960449 5.52002.986307 1.22641 2.826312 3.41309 5.52002 6.56006h-5.360108l-2.479248-2.87964c-2.133805 2.23959-4.747327 3.35938-7.840576 3.35938-2.320157 0-4.26677-.66671-5.839844-2.00012-1.573082-1.33342-2.359621-3.13334-2.359619-5.39978zm8.239746-4.91944-.04028-.0403c-1.359872.90658-2.31324 1.72649-2.860107 2.45972-.546882.73324-.820319 1.5267-.820313 2.38037-.000006 1.25326.393467 2.19991 1.18042 2.83996.786938.64006 1.807038.96009 3.060303.96009 1.919746 0 3.492824-.79997 4.719238-2.39991zm-.92041-8.88061c-.000009.9603.533438 2.06707 1.600342 3.32031l.239258.31982.640869-.43945c1.332995-.88052 1.999498-1.98729 1.999512-3.32031-.000014-.61359-.219944-1.10044-.659791-1.46057-.439872-.36009-.966605-.54014-1.5802-.54016-.666514.00002-1.206471.20021-1.619873.60058-.413421.40041-.620126.907-.620117 1.51978z"/><path d="m81.132835 127.73908 2.120361 4.04053c-2.399923 1.81315-5.386574 2.71973-8.959961 2.71973-3.653168 0-6.646532-1.18001-8.980102-3.54004-2.333581-2.36002-3.500368-5.65999-3.500367-9.8999-.000001-4.05353 1.160073-7.3002 3.480225-9.73999 2.320142-2.43976 5.333648-3.65965 9.040527-3.65967 3.386213.00002 6.346009.88015 8.879395 2.64038l-2.159424 4.39941c-1.946633-1.41355-4.160173-2.12034-6.640625-2.12036-2.106132.00002-3.786225.62665-5.040283 1.87988-1.466479 1.46731-2.199714 3.65399-2.199707 6.56006-.000007 2.53338.62662 4.59352 1.879883 6.18042 1.253245 1.58692 3.146553 2.38038 5.679931 2.38037 2.533349.00001 4.666729-.6136 6.400147-1.84082z"/><path d="m100.28445 114.33943h4.88038v10.52002c-.00002 1.97347-.17336 3.5201-.52002 4.63989-.3467 1.11979-.90701 2.08008-1.68091 2.88086-1.35988 1.41276-3.653168 2.11914-6.879878 2.11914-3.173027 0-5.466319-.70638-6.879887-2.11914-.746261-.80078-1.292728-1.76107-1.639405-2.88086-.346682-1.11979-.520022-2.66642-.520019-4.63989v-5c-.000003-2.26643-.133466-4.10643-.400391-5.52002h4.840088c.292962 1.54705.439446 3.38706.439453 5.52002v4.20043c-.000007 1.38673.06001 2.44671.180054 3.17994.120028.73324.393669 1.3265.820923 1.77978.799958.74708 1.866445 1.12061 3.199464 1.12061 1.33299 0 2.37303-.37353 3.12012-1.12061.69334-.72021 1.040018-2.37345 1.040028-4.95972z"/><path d="m142.26927 128.53986c-.00004 2.23959.13343 4.06617.40039 5.47974h-4.84009c-.29381-1.54703-.4407-3.37361-.44067-5.47974v-4.16015c-.00003-2.58707-.34671-4.22728-1.04004-4.92066-.72024-.77309-1.76028-1.15965-3.12012-1.15966-1.5731.00001-2.82636.53346-3.75976 1.60034-.77314.85288-1.15969 2.51954-1.15967 5v9.11987h-4.88037v-9.63989c-.00002-2.53336-.3467-4.17357-1.04004-4.92066-.77313-.77309-1.81317-1.15965-3.12012-1.15966-1.49334.00001-2.73316.53346-3.71948 1.60034-.50701.55991-.83375 1.26649-.98023 2.11975-.14649.85328-.21973 2.00013-.21972 3.44055v8.55957h-4.88037v-14.16015c-.00001-2.26643-.13347-4.10643-.40039-5.52002h4.80102c.23925.82684.39916 1.81357.47974 2.9602h.0403c.47932-.98631 1.27909-1.80621 2.39929-2.45972 1.12019-.65346 2.4001-.9802 3.83972-.98022 2.4536.00002 4.33389.70681 5.64087 2.12036.31981.31984.61318.71983.88013 1.19995.47931-.7202 1.17226-1.37368 2.07886-1.96045 1.38669-.90655 3.09364-1.35984 5.12085-1.35986 1.22637.00002 2.3663.20001 3.4198.59997 1.05343.40001 1.87354.9068 2.46032 1.52039.71937.77313 1.23919 1.72629 1.55945 2.8595.3202 1.13323.48031 2.7.48035 4.70031z"/><path d="m166.72846 124.2198c-.00003 3.54655-1.04006 6.25326-3.12012 8.12011-1.59995 1.43962-3.55999 2.15943-5.88013 2.15943-1.06609 0-2.1458-.26001-3.23913-.78003-1.09336-.52002-2.02699-1.25977-2.80091-2.21924-.026.90658-.13265 1.74642-.31982 2.51953h-4.84009c.26693-1.41357.40039-3.24015.40039-5.47974v-20.40039h4.88037v8.68042c.63964-.90655 1.47277-1.62656 2.49939-2.16003 1.0266-.53343 2.15351-.80015 3.38074-.80017 1.97264.00002 3.75934.61322 5.36011 1.8396 2.45278 1.84002 3.67917 4.68019 3.6792 8.52051zm-6.43921 4.32006c.90656-.98713 1.35984-2.42736 1.35986-4.32067-.00002-1.8933-.4533-3.35998-1.35986-4.40003-.90741-.98631-2.14764-1.47947-3.72071-1.47949-1.54623.00002-2.78606.49318-3.71948 1.47949-.90658 1.04005-1.35987 2.50673-1.35986 4.40003-.00001 1.89331.45328 3.33334 1.35986 4.32006.90657.98674 2.14639 1.48011 3.71948 1.48011 1.62678 0 2.86701-.49316 3.72071-1.4795z"/><path d="m183.64374 114.2198-.48096 4.39941c-.93344-.18634-1.75986-.27952-2.47924-.27954-1.4673.00002-2.66725.54648-3.59986 1.6394-.82683.98716-1.24024 2.84059-1.24023 5.56031v8.48022h-4.88037v-14.16015c-.00001-2.26643-.13347-4.10643-.40039-5.52002h4.76074c.2661.93345.43944 1.93361.52002 3.00048h.0403c1.27929-2.29327 3.15917-3.43992 5.63965-3.43994.90656.00002 1.61335.10663 2.12036.31983z"/><path d="m186.19497 128.49958v-14.16015h4.88037v14.16015c-.00001 2.26644.13346 4.10645.40039 5.52002h-4.84009c-.29378-1.35986-.44067-3.19987-.44067-5.52002zm.36011-17.08008c-.5599-.55987-.83985-1.26645-.83985-2.11975 0-.85324.28666-1.56654.85999-2.13989.57332-.5733 1.27339-.85996 2.10022-.85999.85286.00003 1.56615.28669 2.13989.85999.57372.57335.86059 1.28644.8606 2.13928-.00001.82685-.28688 1.52692-.8606 2.10022-.57374.57335-1.28724.86001-2.1405.85999-.85328.00002-1.55986-.27993-2.11975-.83985z"/><path d="m214.76915 134.0196h-4.84009c-.10663-.507-.21323-1.34684-.31983-2.51953-.77394.95947-1.70757 1.69922-2.8009 2.21924-1.09335.52002-2.17307.78003-3.23913.78003-2.34702 0-4.30706-.73324-5.88013-2.19971-2.08008-1.86686-3.12012-4.56013-3.12012-8.07983 0-3.81347 1.22681-6.65363 3.68042-8.52051 1.59993-1.22638 3.38622-1.83958 5.35889-1.8396 2.56021.00002 4.52025.98675 5.88013 2.9602v-2.48046h4.88037v14.16015c-.00003 2.26644.13344 4.10645.40039 5.52002zm-13.76099-5.47974c.90738.98634 2.14761 1.4795 3.7207 1.4795 1.57307 0 2.8129-.49316 3.71949-1.4795.90656-1.04003 1.35984-2.48005 1.35986-4.32006-.00002-1.89371-.4533-3.36059-1.35986-4.40064-.90659-.98631-2.14642-1.47947-3.71949-1.47949-1.57309.00002-2.81312.49338-3.72009 1.4801-.90699.98675-1.36048 2.45342-1.36047 4.40003-.00001 1.89291.45328 3.33293 1.35986 4.32006z"/></g><g fill="#c80201" transform="matrix(4.51035129 0 0 4.51035129 -233.092354 -171.620925)"><path d="m523.9375 922.28125c-1.15419-.0146-2.32654-.004-3.5.0312-14.88451.45302-28.0053 5.04172-38.78125 13.5625-5.90469 4.66872-12.06132 12.32642-15.625 19.40625-9.60474 19.08365-9.76567 44.9614-.40625 64.0938 3.21032 6.5627 6.43814 11.0851 11.5 16.1562 10.24593 10.2652 22.98778 15.9839 39.40625 17.6563 2.52128.2568 13.98285-.07 16.53125-.4687 14.10217-2.2101 25.43144-7.5786 34.46875-16.3126 10.51172-10.1591 16.56015-22.6664 18.75-38.78125.56228-4.13954.62726-14.57506.125-18.6875-1.97914-16.20536-8.27658-29.5089-18.71875-39.59375-11.35373-10.96517-26.43721-16.84281-43.75-17.0625zm-.53125 23.53125c3.20184.0287 6.3931.34319 9.28125.9375 15.02958 3.09231 24.61977 13.54382 27.40625 29.875 1.11013 6.50339 1.10984 15.7651 0 22.34375-3.03001 17.96085-14.4014 28.79185-32.09375 30.62505-2.79731.2898-7.8402.269-10.6875-.031-9.07734-.9578-16.25627-4.1745-21.875-9.8125-5.53324-5.5522-8.7497-12.493-10.28125-22.25-.64654-4.12027-.64201-15.00806 0-19.28125.55029-3.66845 1.6478-7.97674 2.6875-10.59375 3.86109-9.71972 10.88703-16.47052 20.5625-19.71875 4.25577-1.42887 9.6636-2.14155 15-2.09375z" transform="matrix(.34004134 0 0 .34004134 -17.938189 -275.55444)"/><path d="m794.375 922.375c-6.99224-.0197-8.89202.13973-14.03125 1.15625-21.75512 4.30299-38.52662 19.20763-45.5625 40.4375-3.25275 9.81544-4.5201 20.158-3.6875 30.375 1.82387 22.38005 11.84677 39.75415 28.8125 50.00005 8.00032 4.8312 16.19448 7.4286 28.03125 8.8437.48641.058 4.18968.071 8.21875.031 5.76774-.057 8.18741-.1904 11.46875-.625 14.74697-1.9512 27.55475-6.3905 37.875-13.0938 2.74646-1.7838 5.59375-3.8902 5.59375-4.1562 0-.1141-2.12824-4.1223-4.71875-8.9063l-4.71875-8.6875-1.375.9062c-19.00057 12.1544-46.94574 15.4306-63.6875 7.5-10.43523-4.9432-16.50463-13.5099-18.8125-26.56245l-.15625-.8125h48.75 48.75l.125-.5625c.75164-3.21964 1.0864-12.06384.65625-17.25-.61107-7.35797-1.60599-12.39325-3.6875-18.71875-6.48442-19.70705-20.8942-33.07633-40.9375-38-5.92425-1.4554-9.37431-1.85393-16.90625-1.875zm-2.0625 23.25c3.70033-.0689 7.90503.14657 10.40625.59375 7.29655 1.30429 12.80517 3.90101 17.46875 8.21875 5.55338 5.14131 9.10337 12.95514 9.59375 21.15625l.15625 2.71875h-36.1875-36.1875l.15625-1.5c.57764-5.526 2.81892-11.73063 6-16.5625 1.84131-2.79672 6.09765-7.01197 9-8.90625 3.97943-2.59624 8.66132-4.36075 13.9375-5.28125 1.37409-.23987 3.43605-.39614 5.65625-.4375z" transform="matrix(.34004134 0 0 .34004134 -17.938189 -275.55444)"/><path d="m194.16171 70.954681c0-6.488717.0341-10.978812.0886-11.659793.34852-4.349149 1.45716-7.153833 3.73347-9.444583 2.41962-2.434971 5.67385-3.590991 9.7058-3.447998 3.23161.11464 5.4849 1.003405 7.25916 2.862926 1.39287 1.459917 2.22094 3.166003 2.70427 5.5717.35303 1.75788.38803 2.564043.43441 10.049922.0606 9.752985.22282 12.919194.82622 16.126142l.0931.493974h4.1824 4.18231l-.1566-.966352c-.16275-1.003098-.34126-2.624331-.50811-4.61671-.0581-.694595-.12395-4.947222-.16408-10.607666-.066-9.339565-.0889-10.055552-.39059-12.196553-.44945-3.191594-1.52154-6.09843-3.02311-8.197466-1.23422-1.725431-3.27922-3.586487-5.04129-4.588459-4.41875-2.512557-10.40264-2.990769-15.50862-1.239237-1.85123.634921-3.54504 1.569952-5.0329 2.778174-.93329.757852-2.31879 2.178362-2.90725 2.980739-.23336.318433-.44719.578931-.47514.578931-.0278 0-.0969-.434915-.15343-.966353-.1609-1.513757-.50789-3.398559-.88559-4.809858l-.0864-.322116h-4.10709-4.10707l.10829.622739c.36624 2.108555.61128 4.985196.72572 8.523677.0459 1.417747.084 9.428718.0848 17.802134l.001 15.224376h4.20872 4.20871v-10.55229z"/><g transform="matrix(1.9913537 0 0 1.9913537 -933.16944 -2271.4564)"><path d="m494.5625 1160.375v5.3438 5.3437h5.6875 5.6875v-5.3437-5.3438h-5.6875zm2.96875 1.5h1.5c1.35533 0 1.54326.017 1.84375.094.97214.2486 1.603.9247 1.65625 1.7812.0453.7275-.20813 1.2313-.78125 1.5938l-.1875.125.21875.062c.55564.1957 1.0114.6109 1.25 1.0938.15923.3222.1875.3209.1875.8125 0 .4908-.0299.525-.1875.8437-.35502.7184-.97389 1.1001-1.96875 1.25-.30069.045-.82817.062-1.96875.063h-1.5625v-3.8438-3.875zm1.375 1.2188v.9687 1h .5c.26687-.0004.5924-.029.75-.062.69401-.1471.98232-.4735.9375-1.0938-.0248-.3414-.13516-.5456-.4375-.6874-.2258-.1058-.30306-.1116-1-.125h-.75zm0 3.1874v1.0626 1.0312h.75c.40925-.0005.8678-.01 1.03125-.031.71945-.104 1.125-.4676 1.125-1.0313 0-.3566-.14015-.5707-.4375-.75-.35821-.216-.68092-.2813-1.625-.2813h-.84375z"/><path d="m507.65625 1160.375v5.3438 5.3437h5.71875 5.71875v-5.3437-5.3438h-5.71875zm3.03125 1.5h1.46875c1.66569.0009 1.88068.022 2.40625.2812.79316.3919 1.22179 1.1747 1.09375 2-.0268.1729-.0801.3987-.125.5-.099.2239-.41791.5761-.625.6876-.15682.084-.19815.1562-.0937.1562.14444 0 .74737.3498.96875.5625.48764.4686.69846 1.2158.53125 1.8437-.20822.7823-.81127 1.3193-1.75 1.5626-.32753.085-.50557.1077-2.125.125h-1.75v-3.8438-3.875zm1.375 1.2188v1 1l .625-.031c.3652-.014.68826-.055.8125-.094.50655-.1594.75519-.4627.75-.9688-.003-.3177-.0806-.4875-.28125-.6562-.22416-.1887-.51605-.25-1.25-.25zm0 3.1874v1.0626 1.0624l.9375-.031c.79435-.017.93158-.011 1.1875-.094.72989-.2364.99452-1.0348.53125-1.5624-.30393-.3461-.71041-.4365-1.84375-.4376z"/><path d="m520.8125 1160.375v5.3438 5.3437h5.71875 5.6875v-5.3437-5.3438h-5.6875zm5.9375 1.4062c.82889-.046 1.64553.079 2.65625.4376l.46875.1874v.7188c0 .3889.009.6875 0 .6875s-.26144-.09-.53125-.2187c-.95914-.4564-1.59026-.6264-2.46875-.5938-.45988.017-.62123.039-.96875.1562-.52537.1776-.86336.3915-1.21875.75-.48178.486-.71993 1.1206-.71875 1.8438.002.768.23851 1.3405.75 1.8438.57394.5645 1.32032.8393 2.28125.8437.85161 0 1.56708-.1856 2.46875-.6563l.5-.25v.7188.7188l-.28125.1562c-.809.3728-1.50262.5083-2.5.5312-.40334.01-.85073.021-1 0-1.55487-.219-2.81263-1.1353-3.375-2.4687-.33734-.8-.36936-1.7362-.0937-2.5937.43999-1.3691 1.67462-2.4154 3.1875-2.7188.28557-.057.56745-.079.84375-.094z"/></g></g></svg>