<svg hola_ext_inject="disabled" version="1.1" viewBox="0 0 736.2 588.19" xmlns="http://www.w3.org/2000/svg">
 <g transform="translate(148.11 -14.988)">
  <g transform="matrix(3.1764 0 0 3.1764 -430.37 -1568)">
   <path d="m230.98 498.52h39.879v37.529h-39.879v-37.529zm25.123 5.2238c-0.17258-0.0332-0.35843-0.0597-0.53765-0.0863l-0.2124-0.0332c-0.31197-0.0398-0.62394-0.0796-0.92927-0.1062-0.21905-0.0199-0.43145-0.0332-0.63722-0.0465-0.37834-0.0266-0.75005-0.0332-1.1085-0.0332-0.16594 0-0.26551 0-0.41817 7e-3 -0.30534 0-0.59739 0.0199-0.88945 0.0398-0.1593 7e-3 -0.32524 0.0199-0.49118 0.0332-0.23232 0.0199-0.47127 0.0465-0.69695 0.0797l-0.1925 0.0199-0.2124 0.0332-0.26551 0.0465c-0.11284 0.0133-0.23231 0.0332-0.33852 0.0531-0.1593 0.0332-0.3186 0.0664-0.47127 0.0996-0.94254 0.19913-1.8254 0.46464-2.6285 0.78324-0.41817 0.15931-0.81643 0.33188-1.2014 0.51774-0.31197 0.1593-0.61731 0.31861-0.90936 0.48455-0.28542 0.16594-0.55756 0.33188-0.82307 0.50446-0.15266 0.0996-0.29869 0.20576-0.44472 0.31197-0.11948 0.0863-0.24559 0.17921-0.36507 0.2655-0.25223 0.19913-0.49782 0.39826-0.7235 0.59739-0.21241 0.18585-0.42481 0.38498-0.61067 0.57747-0.17257 0.16594-0.33851 0.33189-0.49782 0.5111-0.1593 0.17922-0.3186 0.35843-0.47127 0.54429-0.16594 0.20576-0.32524 0.41817-0.48455 0.63057-0.11284 0.16594-0.22568 0.33189-0.33852 0.49119-0.073 0.11284-0.13939 0.22568-0.2124 0.34516-0.41817 0.67703-0.78324 1.4072-1.0819 2.1838-0.3717 0.96909-0.64385 2.0112-0.79651 3.1197-0.0398 0.34516-0.073 0.70359-0.0996 1.062-0.0133 0.27878-0.0265 0.55756-0.0265 0.84298 0 0.2124 7e-3 0.42481 0.0133 0.63721 0.0199 0.21905 0.0332 0.43145 0.0597 0.64385l0.0133 0.15267c0.0332 0.25223 0.073 0.50446 0.12612 0.75005 0.0133 0.0929 0.0332 0.19249 0.0531 0.28542 0.0465 0.20577 0.0929 0.41154 0.14603 0.60403 0.073 0.25886 0.14602 0.51773 0.22567 0.76332 0.10621 0.30534 0.21241 0.60403 0.33852 0.88945 0.18586 0.46463 0.39826 0.90272 0.62394 1.3209 0.13939 0.24559 0.27215 0.47791 0.41817 0.71023 0.11284 0.17921 0.23232 0.35179 0.34516 0.52437 0.1593 0.21904 0.31861 0.44472 0.47791 0.64385 0.16594 0.21904 0.34516 0.43145 0.5111 0.62394 0.2124 0.24559 0.42481 0.46463 0.63721 0.6704l0.11284 0.11284c0.17258 0.16594 0.35843 0.33852 0.57084 0.51773 0.14603 0.12612 0.29869 0.25887 0.458 0.38499 0.15266 0.11948 0.31196 0.24559 0.47791 0.36507 0.20576 0.14603 0.41817 0.29205 0.63721 0.43808 0.24559 0.15267 0.49118 0.30533 0.76333 0.45136 0.52437 0.29869 1.1018 0.57748 1.7457 0.83634 0.23231 0.0996 0.48454 0.18586 0.74341 0.27215 0.25223 0.0929 0.50446 0.17258 0.7766 0.24559 0.458 0.13939 0.94255 0.25223 1.447 0.35179 0.41153 0.0797 0.83634 0.14603 1.2744 0.19913 0.43144 0.0531 0.88944 0.0929 1.3541 0.11948 0.22568 7e-3 0.458 0.0133 0.69696 0.0199h0.32524c0.83634 0 1.613-0.0265 2.3298-0.0863l0.13939-0.0199c0.29206-0.0199 0.5642-0.0465 0.83634-0.0863 0.4049-0.0465 0.80316-0.11284 1.1682-0.17258 0.23895-0.0465 0.46463-0.0929 0.69031-0.13939 0.34516-0.073 0.66377-0.15266 0.98237-0.23231 0.22568-0.0664 0.45136-0.12612 0.66377-0.1925 0.25223-0.073 0.49782-0.1593 0.73677-0.23895l0.22568-0.0796c0.11284-0.0398 0.26551-0.0929 0.44473-0.16594 0.24559-0.0929 0.53764-0.21241 0.86953-0.3518 0.19249-0.0863 0.40489-0.17921 0.6173-0.27878 0.19913-0.0863 0.40489-0.18585 0.6173-0.28542 0.0797-0.0465 0.16594-0.0863 0.25223-0.12611v-5.1176c-0.0531 0.0332-0.11948 0.073-0.17258 0.11284l-0.35843 0.20577c-0.3518 0.2124-0.68368 0.41153-1.0222 0.59738-0.37834 0.19913-0.73678 0.38499-1.0952 0.55756-0.63058 0.2987-1.2412 0.55093-1.832 0.7567-1.1085 0.40489-2.1373 0.65712-3.04 0.81642-0.1062 0.0199-0.2124 0.0332-0.3186 0.0531-0.25223 0.0398-0.48455 0.0664-0.71687 0.0929-0.35843 0.0398-0.69031 0.0597-0.98901 0.073-0.19249 7e-3 -0.37834 0.0133-0.53764 0.0133-0.36507 0-0.73678-7e-3 -1.1151-0.0398-0.44472-0.0332-0.90272-0.0797-1.3607-0.15931-0.74342-0.11947-1.4802-0.30533-2.2103-0.57747-0.1062-0.0332-0.21904-0.0797-0.3186-0.11948-0.073-0.0266-0.14603-0.0531-0.21241-0.0863-0.11947-0.0465-0.23895-0.0996-0.35843-0.15266-0.24559-0.11948-0.49119-0.2456-0.73678-0.38499-0.11948-0.0664-0.23895-0.13939-0.36507-0.21904-0.11948-0.073-0.23895-0.15266-0.35843-0.23895-0.15267-0.0996-0.29869-0.20577-0.43808-0.31861s-0.28542-0.23232-0.4049-0.33188l-0.16594-0.15267-0.0863-0.0797-0.0531-0.0465-0.0597-0.0597c-0.23232-0.22568-0.43808-0.458-0.63058-0.69032-0.1062-0.12611-0.20576-0.25886-0.31196-0.39162-0.0863-0.12611-0.17922-0.25223-0.25887-0.37834-0.0797-0.11948-0.15267-0.23896-0.21904-0.35843-0.11284-0.17922-0.20577-0.36507-0.29206-0.54429-0.0797-0.15267-0.15267-0.30533-0.21241-0.458-0.1062-0.25887-0.20576-0.51773-0.28541-0.76333-0.0597-0.19249-0.11284-0.38498-0.15267-0.5642-0.13939-0.53764-0.20577-1.0288-0.25223-1.4404-7e-3 -0.15931-0.0199-0.30533-0.0265-0.44472-7e-3 -0.20577-0.0133-0.37835-0.0133-0.52438 0-0.0929 7e-3 -0.19913 7e-3 -0.32524 7e-3 -0.29206 0.0332-0.66377 0.0929-1.0886 0.0398-0.25223 0.0929-0.52437 0.1593-0.81642 0.0531-0.1925 0.0996-0.38499 0.15931-0.58412 0.0531-0.18585 0.11947-0.36507 0.19249-0.55756 0.0531-0.12611 0.1062-0.25223 0.16594-0.37834 0.073-0.17922 0.15266-0.3518 0.23895-0.51774 0.073-0.13275 0.14603-0.2655 0.21905-0.4049 0.17257-0.28541 0.36507-0.57083 0.58411-0.86289 0.073-0.0996 0.15266-0.20576 0.23895-0.30533 0.1062-0.13275 0.21904-0.2655 0.33852-0.39162 0.0597-0.0664 0.11948-0.13939 0.18586-0.19913 0.94254-0.94254 1.9913-1.6395 3.0865-2.1373 0.17258-0.0797 0.33852-0.14603 0.5111-0.21904 0.17921-0.0664 0.34515-0.13275 0.52437-0.18585 0.18585-0.0597 0.38498-0.11948 0.57084-0.17922 0.17921-0.0465 0.35843-0.0929 0.53764-0.13275 0.17922-0.0398 0.36507-0.0797 0.53765-0.10621 0.20577-0.0398 0.39826-0.073 0.59075-0.0929 0.20577-0.0265 0.39826-0.0531 0.59075-0.0664 0.37835-0.0332 0.74342-0.0531 1.1018-0.0531h0.35843c0.25887 0.0133 0.51774 0.0199 0.76997 0.0398 0.17922 7e-3 0.34516 0.0199 0.51773 0.0332 0.32525 0.0332 0.63058 0.073 0.92927 0.11948 0.26551 0.0398 0.51774 0.0863 0.75669 0.13275 0.36507 0.073 0.70359 0.15267 1.0023 0.23232 0.19913 0.0465 0.37834 0.1062 0.54428 0.15267 0.2456 0.073 0.458 0.13939 0.62394 0.19913 0.27878 0.0929 0.43809 0.15266 0.43809 0.15266 0.25223 0.0863 0.49782 0.19249 0.73677 0.28542 0.33189 0.13275 0.63722 0.27214 0.93591 0.4049 0.25223 0.11284 0.48455 0.23231 0.70359 0.33852 0.18585 0.0863 0.35843 0.17921 0.51774 0.25886 0.27214 0.14603 0.51109 0.27878 0.71022 0.38499l0.52438 0.27878v-5.0247s-0.31861-0.12612-0.8629-0.33189c-0.23231-0.0929-0.52437-0.19913-0.84298-0.31197-0.17921-0.0597-0.36507-0.13275-0.5642-0.19912-0.1593-0.0531-0.3186-0.11284-0.49782-0.16595-0.18585-0.0597-0.38498-0.12611-0.59075-0.19249-0.14603-0.0398-0.29869-0.0863-0.45136-0.12611l-0.13939-0.0465c-0.14603-0.0398-0.29869-0.0796-0.45136-0.11947-0.18585-0.0531-0.3717-0.0996-0.55756-0.14603-0.11948-0.0265-0.23895-0.0597-0.35843-0.0863-0.20577-0.0465-0.4049-0.0863-0.60403-0.13275-0.20576-0.0465-0.4248-0.0797-0.63057-0.11948" fill="#005e70"/>
   <path d="m200.33 519.22v7.3744h4.7857s0.0929 0 0.25886-7e-3c0.15931-7e-3 0.38499-0.0133 0.65713-0.0398 0.52437-0.0465 1.208-0.14603 1.8718-0.37171 0.60403-0.19912 1.1881-0.50446 1.6329-0.94918 0.17258-0.17258 0.31197-0.35179 0.43145-0.53765 0.37171-0.59075 0.47127-1.1881 0.49119-1.5266 7e-3 -0.15267 7e-3 -0.23232 7e-3 -0.23232s7e-3 -0.073 0-0.18585c0-0.13939-0.0199-0.41818-0.0929-0.71023-0.0929-0.3518-0.25887-0.75669-0.5642-1.135-0.0531-0.0664-0.11948-0.13939-0.18586-0.20576-0.13275-0.13276-0.27214-0.25887-0.43144-0.37171-0.25887-0.19249-0.55757-0.35843-0.88281-0.49782-0.43145-0.1925-0.91599-0.32525-1.4404-0.42481-0.27214-0.0531-0.55756-0.0929-0.84961-0.12612-0.18586-7e-3 -0.36507-0.0265-0.55757-0.0332-0.1593-0.0133-0.33188-0.0199-0.49782-0.0199h-4.6331" fill="#005e70"/>
   <path d="m200.33 508.01v6.9894h2.3165s0.1593 0 0.35843-7e-3c0.16594-7e-3 0.35179-0.0133 0.52437-0.0266 0.47791-0.0332 1.135-0.0996 1.7922-0.28541 0.13276-0.0332 0.25887-0.073 0.39162-0.11948 0.5111-0.18586 1.0089-0.45136 1.3939-0.83634 0.31197-0.2987 0.5111-0.63058 0.64385-0.96246 0.16594-0.39826 0.22568-0.78324 0.24559-1.0488 0.0199-0.24559 0.0199-0.39826 0.0199-0.39826s7e-3 -0.11284-7e-3 -0.29869c-0.0133-0.30533-0.0796-0.79652-0.31861-1.2744-0.11284-0.22568-0.27214-0.45136-0.48455-0.66376-0.2655-0.25887-0.58411-0.45136-0.92263-0.60403-0.65049-0.29205-1.4005-0.40489-2.0245-0.44472-0.27214-0.0199-0.52437-0.0199-0.73678-0.0199h-3.1927" fill="#005e70"/>
   <path d="m185.02 498.52h39.886v37.529h-39.886v-37.529zm10.468 5.2636v27.028h10.169s4.965 0.13939 7.6997-2.602c2.2302-2.2302 2.0709-4.8123 2.0709-4.8123s0.15931-2.6949-1.905-4.7592c-1.759-1.7523-4.0025-2.2236-4.0025-2.2236s1.0156-0.47791 1.7922-1.2545c0.36507-0.36507 1.666-1.5399 1.666-4.3875 0-2.8675-1.9116-4.5202-1.9116-4.5202s-2.0909-2.4692-6.8102-2.4692h-8.7683" fill="#005e70"/>
   <path d="m154.37 519.22v7.3744h4.7857s0.0996 0 0.25886-7e-3c0.15931-7e-3 0.38499-0.0133 0.66377-0.0398 0.52437-0.0465 1.208-0.14603 1.8652-0.37171 0.60403-0.19912 1.1881-0.50446 1.6329-0.94918 0.17258-0.17258 0.31861-0.35179 0.43145-0.53765 0.37835-0.59075 0.47127-1.1881 0.49119-1.5266 0.0133-0.15267 7e-3 -0.23232 7e-3 -0.23232s0.0133-0.073 0-0.18585c0-0.13939-0.0199-0.41818-0.0929-0.71023-0.0929-0.3518-0.25887-0.75669-0.55757-1.135-0.0597-0.0664-0.11947-0.13939-0.18585-0.20576-0.13939-0.13276-0.27214-0.25887-0.43145-0.37171-0.2655-0.19249-0.5642-0.35843-0.88944-0.49782-0.42481-0.1925-0.90936-0.32525-1.4404-0.42481-0.27214-0.0531-0.55092-0.0929-0.84961-0.12612-0.17922-7e-3 -0.36507-0.0265-0.55093-0.0332-0.1593-0.0133-0.33852-0.0199-0.5111-0.0199h-4.6264" fill="#005e70"/>
   <path d="m154.37 508.01v6.9894h2.3165s0.1593 0 0.36507-7e-3c0.1593-7e-3 0.35179-0.0133 0.51773-0.0266 0.47791-0.0332 1.135-0.0996 1.7988-0.28541 0.12612-0.0332 0.25887-0.073 0.38498-0.11948 0.51774-0.18586 1.0156-0.45136 1.4006-0.83634 0.30533-0.2987 0.50446-0.63058 0.64385-0.96246 0.16594-0.39826 0.21904-0.78324 0.23895-1.0488 0.0266-0.24559 0.0266-0.39826 0.0266-0.39826s0-0.11284-7e-3 -0.29869c-0.0199-0.30533-0.0797-0.79652-0.3186-1.2744-0.11948-0.22568-0.27878-0.45136-0.49119-0.66376-0.25887-0.25887-0.57747-0.45136-0.91599-0.60403-0.65713-0.29205-1.4005-0.40489-2.0311-0.44472-0.27214-0.0199-0.52437-0.0199-0.73678-0.0199h-3.1927" fill="#005e70"/>
   <path d="m139.07 498.52h39.879v37.529h-39.879v-37.529zm10.468 5.2636v27.028h10.176s4.9583 0.13939 7.693-2.602c2.2302-2.2302 2.071-4.8123 2.071-4.8123s0.1593-2.6949-1.905-4.7592c-1.7523-1.7523-4.0025-2.2236-4.0025-2.2236s1.0156-0.47791 1.7988-1.2545c0.36507-0.36507 1.6594-1.5399 1.6594-4.3875 0-2.8675-1.9116-4.5202-1.9116-4.5202s-2.0909-2.4692-6.8102-2.4692h-8.7683" fill="#005e70"/>
   <path d="m109.31 572.86h-20.291v-10.66h52.364v10.66h-20.291v55.557h-11.782v-55.557z" fill="#fff"/>
   <path d="m153.27 562.2h12.904l12.439 47.691h0.18585l14.868-47.691h11.596l14.59 47.691h0.18586l13.003-47.691h11.974l-19.269 66.21h-11.224l-15.333-50.406h-0.18586l-15.34 50.406h-10.853l-19.541-66.21z" fill="#fff"/>
   <path d="m285.31 619.43c13.747 0 22.82-10.474 22.82-24.599 0-13.182-9.0736-23.657-22.82-23.657-13.654 0-22.721 10.474-22.721 23.657 0 14.125 9.067 24.599 22.721 24.599m-0.0929-58.916c20.67-0.37835 35.259 13.461 35.259 34.695 0 20.67-14.59 34.509-35.259 34.881-20.384 0-34.974-13.839-34.974-34.509 0-21.227 14.59-35.067 34.974-35.067" fill="#fff"/>
   <path d="m148.5 654.58h6.8005l4.5203 18.16h0.0794l5.9204-18.16h5.7996l5.8801 18.64h0.0806l4.7595-18.64h6.3208l-8.28 28.32h-5.5603l-6.2402-19.6h-0.0806l-6.239 19.6h-5.3601z" fill="#fff"/>
   <path d="m202.9 680.46h-0.0806c-0.66652 1.04-1.5532 1.7867-2.6599 2.24-1.1068 0.45329-2.2734 0.67993-3.4998 0.67993-0.90658 0-1.7798-0.12654-2.6196-0.37963-0.83985-0.2531-1.5798-0.63314-2.2198-1.1401-0.64005-0.507-1.1468-1.1338-1.5204-1.8805-0.37354-0.74666-0.56031-1.6132-0.5603-2.5995-1e-5 -1.1198 0.2067-2.0664 0.62011-2.84 0.41341-0.77351 0.97351-1.4136 1.6803-1.9202 0.70678-0.50658 1.5135-0.89985 2.42-1.1798 0.90657-0.27994 1.8465-0.48664 2.8198-0.62012 0.9733-0.13345 1.9466-0.21341 2.9199-0.23987 0.9733-0.0264 1.8734-0.0397 2.7002-0.0397-2e-5 -1.0669-0.38006-1.9136-1.1401-2.5403-0.7601-0.62662-1.6602-0.93993-2.7002-0.93995-0.98633 2e-5 -1.8862 0.20673-2.6996 0.62012-0.8134 0.41343-1.5399 0.97983-2.1796 1.6992l-3.2007-3.28c1.1198-1.04 2.4264-1.8198 3.9197-2.3395 1.4933-0.51959 3.04-0.7794 4.6399-0.77942 1.7602 2e-5 3.207 0.21995 4.3402 0.65979 1.1332 0.43988 2.04 1.0864 2.7203 1.9397 0.68032 0.85329 1.1538 1.8998 1.4203 3.1396s0.39976 2.6732 0.39978 4.2999v9.8804h-5.52zm-1.4795-6.0803c-0.45411 1e-5 -1.0211 0.0202-1.701 0.0604-0.67994 0.0403-1.3332 0.15362-1.9598 0.33997-0.62663 0.18637-1.1599 0.46632-1.5997 0.83984-0.43986 0.37355-0.65979 0.89357-0.65979 1.5601 0 0.72022 0.3066 1.2537 0.9198 1.6003 0.61319 0.34669 1.253 0.52003 1.9196 0.52002 0.58674 1e-5 1.1536-0.08 1.7004-0.23986 0.54686-0.15991 1.0335-0.38656 1.46-0.67994 0.42642-0.29337 0.76638-0.6667 1.0199-1.12 0.25348-0.45328 0.38023-0.98673 0.38025-1.6003v-1.2805z" fill="#fff"/>
   <path d="m212.27 652.66h5.9998v30.24h-5.9998z" fill="#fff"/>
   <path d="m240.98 679.54c-0.96031 1.2272-2.1737 2.1741-3.6401 2.8406-1.4665 0.6665-2.9863 0.99975-4.5593 0.99975-1.4933 0-2.9-0.23986-4.22-0.7196s-2.4668-1.1664-3.4406-2.0599c-0.97372-0.89355-1.7405-1.967-2.3004-3.2202s-0.83985-2.6534-0.83985-4.2004c0-1.5462 0.27995-2.946 0.83985-4.1992 0.55989-1.2532 1.3267-2.3266 2.3004-3.2202 0.97371-0.89354 2.1206-1.5802 3.4406-2.0599 1.32-0.47972 2.7266-0.71959 4.22-0.71961 1.3859 2e-5 2.6457 0.23989 3.7793 0.71961 1.1336 0.47975 2.0937 1.1664 2.8802 2.0599 0.78652 0.89357 1.3932 1.967 1.8201 3.2202 0.42682 1.2533 0.64024 2.653 0.64026 4.1992v1.8799h-13.921c0.24006 1.1467 0.76008 2.0602 1.5601 2.7405 0.79995 0.68034 1.7867 1.0205 2.9602 1.0205 0.98713 0 1.8207-0.22013 2.5006-0.6604 0.67992-0.44026 1.273-1.0071 1.7792-1.7004zm-5.0806-8.5596c0.0268-1.0132-0.30641-1.8799-0.99976-2.6001-0.69337-0.7202-1.5865-1.0803-2.6794-1.0803-0.66651 2e-5 -1.2533 0.10683-1.7602 0.32044-0.50701 0.21363-0.94036 0.48707-1.3 0.82031-0.35971 0.33327-0.63966 0.71982-0.83985 1.1597-0.2002 0.43987-0.31372 0.89987-0.34057 1.38z" fill="#fff"/>
   <path d="m256.55 669.18c-0.87973-1.0937-2.0398-1.6406-3.4802-1.6406-0.50701 2e-5 -1.0004 0.12005-1.4801 0.36011-0.47975 0.24008-0.71961 0.6535-0.71961 1.2402 0 0.48016 0.24658 0.83355 0.73975 1.0602 0.49315 0.22666 1.1198 0.42665 1.8799 0.59998 0.76008 0.17335 1.5735 0.35991 2.4402 0.55969 0.86668 0.1998 1.6801 0.51311 2.4402 0.93994 0.76008 0.42685 1.3867 1.0069 1.8799 1.7401 0.49314 0.73325 0.73972 1.7131 0.73974 2.9395-2e-5 1.2533-0.27325 2.2866-0.8197 3.1-0.54648 0.8134-1.2464 1.4669-2.0996 1.9604-0.85328 0.49357-1.8134 0.84025-2.8802 1.04-1.0669 0.19979-2.1204 0.29968-3.1604 0.29968-1.3599 0-2.7332-0.19327-4.1199-0.57983s-2.5602-1.073-3.5205-2.0593l3.6401-4.0405c0.55989 0.69336 1.18 1.2201 1.8604 1.5802 0.68033 0.36011 1.4738 0.54016 2.3804 0.54016 0.69335 0 1.32-0.1001 1.8799-0.30029 0.55989-0.2002 0.83983-0.56681 0.83985-1.0999-2e-5 -0.50699-0.2466-0.88704-0.73975-1.1401-0.49317-0.25308-1.1198-0.4663-1.8799-0.63964s-1.5735-0.3601-2.4402-0.56031c-0.8667-0.20018-1.6801-0.50027-2.4402-0.90026-0.7601-0.39998-1.3867-0.96659-1.8799-1.6998-0.49316-0.73323-0.73974-1.7134-0.73974-2.9407 0-1.1466 0.23335-2.1332 0.70007-2.9596 0.46671-0.8264 1.0799-1.5063 1.8396-2.0398 0.75968-0.53343 1.6329-0.9267 2.6196-1.1798 0.98673-0.25307 1.9867-0.37962 2.9999-0.37964 1.2801 2e-5 2.5734 0.18659 3.88 0.5597 1.3066 0.37314 2.4135 1.0398 3.3209 2.0001z" fill="#fff"/>
  </g>
 </g>
</svg>
