<?xml version="1.0" encoding="UTF-8" standalone="no"?>
<!-- Created with Inkscape (http://www.inkscape.org/) -->

<svg
   xmlns:dc="http://purl.org/dc/elements/1.1/"
   xmlns:cc="http://creativecommons.org/ns#"
   xmlns:rdf="http://www.w3.org/1999/02/22-rdf-syntax-ns#"
   xmlns:svg="http://www.w3.org/2000/svg"
   xmlns="http://www.w3.org/2000/svg"
   xmlns:sodipodi="http://sodipodi.sourceforge.net/DTD/sodipodi-0.dtd"
   xmlns:inkscape="http://www.inkscape.org/namespaces/inkscape"
   version="1.0"
   width="721.4126"
   height="169.69099"
   viewBox="0 0 243.89369 57.701956"
   id="svg2"
   xml:space="preserve"
   style="fill-rule:evenodd"
   inkscape:version="0.91 r13725"
   sodipodi:docname="BBC One HD - Dark.svg"><sodipodi:namedview
     pagecolor="#ffffff"
     bordercolor="#666666"
     borderopacity="1"
     objecttolerance="10"
     gridtolerance="10"
     guidetolerance="10"
     inkscape:pageopacity="0"
     inkscape:pageshadow="2"
     inkscape:window-width="1920"
     inkscape:window-height="1017"
     id="namedview14"
     showgrid="false"
     fit-margin-top="0"
     fit-margin-left="0"
     fit-margin-right="0"
     fit-margin-bottom="0"
     inkscape:zoom="1.4024665"
     inkscape:cx="497.38558"
     inkscape:cy="20.824667"
     inkscape:window-x="-8"
     inkscape:window-y="-8"
     inkscape:window-maximized="1"
     inkscape:current-layer="svg2" /><metadata
     id="metadata15"><rdf:RDF><cc:Work
         rdf:about=""><dc:format>image/svg+xml</dc:format><dc:type
           rdf:resource="http://purl.org/dc/dcmitype/StillImage" /><dc:title /></cc:Work></rdf:RDF></metadata><defs
     id="defs4"><style
       type="text/css"
       id="style6" /></defs><path
     d="m 107.84999,13.157417 c -0.39248,-0.005 -0.79112,-0.0014 -1.19015,0.01061 -5.06135,0.154045 -9.522963,1.714393 -13.187233,4.611811 -2.00784,1.587558 -4.10134,4.191492 -5.31314,6.598927 -3.26601,6.48923 -3.33136,15.288715 -0.14877,21.794525 1.09164,2.231586 2.19986,3.769386 3.9211,5.493793 3.48404,3.490579 7.8168,5.43516 13.399753,6.003856 0.85734,0.08731 4.75475,-0.02367 5.62131,-0.159395 4.79532,-0.751505 8.63712,-2.566411 11.71018,-5.536298 3.57442,-3.454548 5.63113,-7.707547 6.37577,-13.187229 0.1912,-1.407614 0.22392,-4.966749 0.0531,-6.365149 -0.67299,-5.510492 -2.81438,-10.034246 -6.36515,-13.463512 -3.86073,-3.728611 -8.98974,-5.727252 -14.8768,-5.801955 z m 48.339,0 c -2.03282,0.04001 -4.06786,0.373926 -5.9826,1.03075 -1.85123,0.634922 -3.549,1.575867 -5.03687,2.784088 -0.93329,0.757854 -2.31252,2.172984 -2.90097,2.975362 -0.23336,0.318432 -0.45024,0.584446 -0.47819,0.584446 -0.0278,0 -0.0922,-0.435555 -0.14876,-0.966992 -0.16091,-1.513759 -0.51491,-3.402413 -0.89261,-4.813711 l -0.085,-0.318788 -4.10175,0 -4.11238,0 0.10627,0.626951 c 0.36624,2.108555 0.61877,4.983806 0.73321,8.522286 0.0459,1.417748 0.0736,9.425623 0.0744,17.79904 l 0.0106,15.227476 4.20801,0 4.20802,0 0,-10.551908 c 0,-6.488716 0.0305,-10.986688 0.085,-11.667669 0.34852,-4.349149 1.45351,-7.145397 3.72983,-9.436147 2.41961,-2.434972 5.68048,-3.596539 9.71243,-3.453545 3.23161,0.114641 5.48349,1.009579 7.25775,2.869099 1.39287,1.459916 2.21575,3.16248 2.69908,5.568177 0.35303,1.757881 0.3893,2.566595 0.43568,10.052472 0.0606,9.752985 0.22545,12.913139 0.82885,16.120086 l 0.0956,0.499435 4.17613,0 4.18676,0 -0.1594,-0.966992 c -0.16275,-1.003098 -0.34321,-2.630057 -0.51006,-4.622437 -0.0581,-0.694596 -0.11926,-4.944596 -0.15939,-10.60504 -0.066,-9.339565 -0.0915,-10.057981 -0.39317,-12.198983 -0.44945,-3.191595 -1.5163,-6.093837 -3.01787,-8.192872 -1.23422,-1.725431 -3.28542,-3.588585 -5.04749,-4.590558 -2.76172,-1.570348 -6.13312,-2.340715 -9.52116,-2.274026 z m 43.62093,0.03186 c -2.37765,-0.0067 -3.02366,0.04751 -4.77121,0.393173 -7.39764,1.463195 -13.10064,6.531389 -15.49313,13.750422 -1.10607,3.337656 -1.53702,6.854554 -1.2539,10.328756 0.62019,7.610143 4.01776,13.518042 9.78681,17.002068 2.72044,1.642831 5.51742,2.526058 9.54241,3.007241 0.1654,0.01976 1.41404,0.02424 2.78409,0.01061 1.96127,-0.01935 2.79469,-0.06472 3.91048,-0.212526 5.01458,-0.663478 9.36975,-2.173027 12.87906,-4.452416 0.93391,-0.606566 1.89148,-1.322812 1.89148,-1.413297 0,-0.03879 -0.71306,-1.401732 -1.59394,-3.028494 l -1.60457,-2.954109 -0.47818,0.308163 c -6.46098,4.132971 -15.95287,5.247008 -21.64576,2.55031 -3.54841,-1.680906 -5.61226,-4.593945 -6.39703,-9.032349 l -0.0531,-0.276283 16.57701,0 16.56639,0 0.0531,-0.191273 c 0.25558,-1.094811 0.36942,-4.102205 0.22315,-5.865714 -0.20779,-2.502014 -0.54611,-4.214217 -1.2539,-6.365149 -2.20498,-6.701212 -7.1049,-11.24732 -13.92045,-12.921571 -2.01449,-0.494896 -3.18765,-0.630413 -5.74882,-0.637578 z m -200.5181354,1.158266 0,10.647545 0,10.647545 11.3382544,0 11.338253,0 0,-10.647545 0,-10.647545 -11.338253,0 -11.3382544,0 z m 26.1088004,0 0,10.647545 0,10.647545 11.380759,0 11.380759,0 0,-10.647545 0,-10.647545 -11.380759,0 -11.380759,0 z m 26.204436,0 0,10.647545 0,10.647545 11.338259,0 11.338252,0 0,-10.647545 0,-10.647545 -11.338252,0 -11.338259,0 z m 12.592159,2.784089 c 1.37994,0.03115 2.796422,0.329537 4.473672,0.924487 l 0.96699,0.350668 0,1.40267 c 0,0.774536 -0.014,1.413297 -0.0319,1.413297 -0.0178,0 -0.47222,-0.211971 -1.0095,-0.467557 -1.90998,-0.908726 -3.223732,-1.212533 -4.973112,-1.147639 -0.91578,0.03397 -1.18881,0.08469 -1.88085,0.318789 -1.046191,0.353541 -1.715093,0.752385 -2.422794,1.466428 -0.959399,0.967785 -1.447525,2.204655 -1.445175,3.644818 0.0031,1.529316 0.469131,2.695875 1.487681,3.69795 1.142919,1.124187 2.655748,1.680879 4.569308,1.68958 1.69586,0.0078 3.113792,-0.369852 4.909342,-1.307034 l 0.967,-0.510062 0,1.445176 0,1.445176 -0.58445,0.276283 c -1.611,0.742396 -2.96572,1.03813 -4.951852,1.083882 -0.8032,0.01853 -1.7005,-6.8e-4 -1.99774,-0.0425 -3.096305,-0.436144 -5.564053,-2.243477 -6.683942,-4.898721 -0.671769,-1.593083 -0.74011,-3.446026 -0.191273,-5.153751 0.876174,-2.726278 3.28872,-4.793944 6.301395,-5.398157 0.853,-0.171115 1.66921,-0.252474 2.49717,-0.233778 z m -58.9759244,0.223152 2.985988,0 c 2.6989494,0 3.0676934,0.017 3.6660714,0.170021 1.935879,0.495202 3.177482,1.843503 3.283524,3.549181 0.09018,1.44876 -0.410158,2.497947 -1.551439,3.219767 l -0.340041,0.212526 0.435678,0.148768 c 1.106478,0.389568 2.011409,1.163614 2.486552,2.125258 0.317103,0.641675 0.329416,0.678658 0.329416,1.657702 0,0.977404 -0.005,1.001734 -0.318789,1.636449 -0.70698,1.430438 -1.95061,2.230382 -3.931728,2.529057 -0.598789,0.09028 -1.660426,0.12721 -3.9317284,0.127516 l -3.113504,0 0,-7.693436 0,-7.682809 z m 26.1938104,0 2.943483,0 c 3.316981,0.0017 3.713979,0.04599 4.760579,0.563193 1.579472,0.780372 2.433363,2.351941 2.17839,3.995486 -0.05333,0.344228 -0.165672,0.786397 -0.255031,0.988245 -0.197139,0.445764 -0.841507,1.148779 -1.253903,1.370792 -0.31229,0.168171 -0.388534,0.297536 -0.180647,0.297536 0.287624,0 1.525015,0.71336 1.965865,1.137014 0.971059,0.933087 1.395597,2.383696 1.062629,3.634192 -0.414647,1.557773 -1.63733,2.660925 -3.506677,3.145382 -0.652216,0.16899 -0.983151,0.18876 -4.208011,0.223152 l -3.506677,0.03186 0,-7.693435 0,-7.693436 z M 7.9734656,19.7457 l 0,1.97649 0,1.987117 0.956366,0 c 0.531437,-6.8e-4 1.2269854,-0.06099 1.5408124,-0.127516 1.382024,-0.292945 1.948855,-0.9645 1.859601,-2.199642 -0.04934,-0.679855 -0.311797,-1.077761 -0.913861,-1.360166 -0.449653,-0.210652 -0.578005,-0.217691 -1.9658644,-0.244404 l -1.477054,-0.03186 z m 26.1938104,0.01061 0,1.987117 0,1.987116 1.222023,-0.0425 c 0.727247,-0.02795 1.389052,-0.102856 1.636449,-0.180647 1.00873,-0.317408 1.476766,-0.936804 1.466429,-1.944611 -0.0064,-0.632668 -0.15307,-0.981621 -0.552567,-1.317661 -0.446379,-0.37565 -0.993118,-0.488809 -2.454674,-0.488809 l -1.31766,0 z m 164.930684,1.338947 c 1.25826,-0.02343 2.69866,0.04984 3.54918,0.201899 2.48113,0.443513 4.35429,1.326505 5.9401,2.794715 1.88837,1.748258 3.09552,4.405284 3.26227,7.194 l 0.0531,0.924487 -12.30525,0 -12.31587,0 0.0531,-0.510062 c 0.19642,-1.879068 0.96918,-3.988899 2.05088,-5.631934 0.62612,-0.951001 2.07345,-2.38436 3.06037,-3.028494 1.35317,-0.882829 2.9452,-1.482835 4.73932,-1.795843 0.46725,-0.08157 1.15778,-0.134704 1.91274,-0.148768 z m -91.42862,0.06376 c 1.08876,0.0098 2.16329,0.116698 3.14538,0.318788 5.11068,1.051514 8.38237,4.605459 9.32989,10.158736 0.37749,2.211421 0.37739,5.360786 0,7.597799 -1.03033,6.107438 -4.89708,9.790412 -10.91321,10.413766 -0.9512,0.09857 -2.66599,0.09147 -3.63419,-0.01061 -3.08667,-0.325699 -5.5278,-1.41951 -7.438403,-3.336656 -1.88153,-1.887974 -2.97526,-4.24812 -3.49605,-7.56592 -0.21985,-1.401062 -0.21831,-5.103361 0,-6.556422 0.18712,-1.247425 0.56032,-2.712422 0.91386,-3.602313 1.31293,-3.305107 3.70204,-5.600658 6.992103,-6.705191 1.44714,-0.485875 3.28602,-0.728215 5.10062,-0.711961 z m -99.6958744,4.951852 0,2.104006 0,2.104005 1.477054,0 c 0.8149674,-0.001 1.7466334,-0.03793 2.0721274,-0.08501 1.43269,-0.207068 2.199643,-0.917802 2.199643,-2.040248 0,-0.710051 -0.257969,-1.183793 -0.850104,-1.540812 -0.713325,-0.430105 -1.382281,-0.541941 -3.2622714,-0.541941 l -1.636449,0 z m 26.1938104,0 0,2.114632 0,2.114632 1.827722,-0.04251 c 1.581825,-0.0346 1.902531,-0.05815 2.412168,-0.223152 1.45347,-0.470944 1.985172,-2.020305 1.06263,-3.070999 -0.605237,-0.689168 -1.441079,-0.890561 -3.69795,-0.892608 l -1.60457,0 z"
     id="rect2392"
     style="fill:#c80201;fill-opacity:1;fill-rule:nonzero;stroke:none"
     inkscape:connector-curvature="0" /><path
     d="M 226.88733,2.209174 229.27998,0 l -0.015,16.684884 -2.37767,-2.516212 0,-4.732876 -9.38338,0 0,7.26781 -2.3889,-2.512468 0,-11.974475 L 217.50393,0 l 0,7.219133 9.38338,0 0,-5.009959 z"
     id="path15603"
     style="fill:#c80201;fill-rule:nonzero;stroke:none;fill-opacity:1"
     inkscape:connector-curvature="0" /><path
     d="m 229.265,16.677396 0,0 2.39265,-2.130543 3.04042,0 c 1.19445,0 2.12306,-0.07863 2.78581,-0.232151 0.6665,-0.168496 1.21317,-0.374436 1.65501,-0.621564 0.44558,-0.258361 0.84622,-0.572888 1.21692,-0.936091 1.17947,-1.194452 1.76734,-2.707175 1.76734,-4.534425 0,-1.79355 -0.60659,-3.253852 -1.81602,-4.380905 -0.44558,-0.423113 -0.95856,-0.775083 -1.54268,-1.044678 -0.57289,-0.273338 -1.11956,-0.449323 -1.64003,-0.535444 -0.51298,-0.08612 -1.34423,-0.131052 -2.49749,-0.131052 l -2.98426,0 L 229.27249,0 l 5.60906,0 c 2.26908,0 4.07012,0.344481 5.38814,1.025955 1.3255,0.681475 2.37767,1.68122 3.16024,3.006724 0.77508,1.321761 1.17198,2.763341 1.17198,4.328485 0,1.112076 -0.22091,2.17922 -0.64777,3.201431 -0.43435,1.018467 -1.04842,1.917114 -1.84223,2.692197 -0.80878,0.79755 -1.7561,1.396648 -2.83074,1.801039 -0.62905,0.247128 -1.21317,0.415625 -1.73364,0.501745 -0.52421,0.08238 -1.53144,0.11982 -3.01795,0.11982 l -5.26458,0 5.26458,0 c 1.48651,0 2.49374,-0.03744 3.01795,-0.11982 0.52047,-0.08612 1.10459,-0.254617 1.73364,-0.501745 1.07464,-0.404391 2.02196,-1.003489 2.83074,-1.801039 0.79381,-0.775083 1.40788,-1.67373 1.84223,-2.692197 0.42686,-1.022211 0.64777,-2.089355 0.64777,-3.201431 0,-1.565144 -0.3969,-3.006724 -1.17198,-4.328485 C 242.64736,2.707175 241.59519,1.70743 240.26969,1.025955 238.95167,0.344481 237.15063,0 234.88155,0 l -5.60906,0 2.37018,2.130543 2.98426,0 c 1.15326,0 1.98451,0.04493 2.49749,0.131052 0.52047,0.08612 1.06714,0.262106 1.64003,0.535444 0.58412,0.269595 1.0971,0.621565 1.54268,1.044678 1.20943,1.127053 1.81602,2.587355 1.81602,4.380905 0,1.82725 -0.58787,3.339973 -1.76734,4.534425 -0.3707,0.363203 -0.77134,0.67773 -1.21692,0.936091 -0.44184,0.247128 -0.98851,0.453068 -1.65501,0.621564 -0.66275,0.153519 -1.59136,0.232151 -2.78581,0.232151 l -3.04042,0 -2.39265,2.130543 z"
     id="path15607"
     style="fill:#ffffff;fill-rule:nonzero;stroke:none"
     inkscape:connector-curvature="0" /><path
     d="m 229.265,16.677396 2.39265,-2.130543 3.04042,0 c 1.19445,0 2.12306,-0.07863 2.78581,-0.232151 0.6665,-0.168496 1.21317,-0.374436 1.65501,-0.621564 0.44558,-0.258361 0.84622,-0.572888 1.21692,-0.936091 1.17947,-1.194452 1.76734,-2.707175 1.76734,-4.534425 0,-1.79355 -0.60659,-3.253852 -1.81602,-4.380905 -0.44558,-0.423113 -0.95856,-0.775083 -1.54268,-1.044678 -0.57289,-0.273338 -1.11956,-0.449323 -1.64003,-0.535444 -0.51298,-0.08612 -1.34423,-0.131052 -2.49749,-0.131052 l -2.98426,0 L 229.27249,0 l 5.60906,0 c 2.26908,0 4.07012,0.344481 5.38814,1.025955 1.3255,0.681475 2.37767,1.68122 3.16024,3.006724 0.77508,1.321761 1.17198,2.763341 1.17198,4.328485 0,1.112076 -0.22091,2.17922 -0.64777,3.201431 -0.43435,1.018467 -1.04842,1.917114 -1.84223,2.692197 -0.80878,0.79755 -1.7561,1.396648 -2.83074,1.801039 -0.62905,0.247128 -1.21317,0.415625 -1.73364,0.501745 -0.52421,0.08238 -1.53144,0.11982 -3.01795,0.11982 l -5.26458,0 z"
     id="path15611"
     style="fill:#c80201;fill-rule:nonzero;stroke:none;fill-opacity:1"
     inkscape:connector-curvature="0" /><path
     d="M 231.65765,2.14552 229.26874,0 l 0,16.677396 2.38891,-2.130543 0,-5.111057 0,-2.216663 0,-5.073613 z"
     id="path15615"
     style="opacity:0.5;fill:#ea8d86;fill-opacity:1;fill-rule:nonzero;stroke:none"
     inkscape:connector-curvature="0" /><path
     d="m 217.50021,9.435796 -0.007,7.256577 2.39265,-2.153009 -0.007,-5.103568 -2.37767,0 z"
     id="path15619"
     style="opacity:0.5;fill:#ea8d86;fill-opacity:1;fill-rule:nonzero;stroke:none"
     inkscape:connector-curvature="0" /><path
     d="M 219.94153,7.219133 219.89663,2.216663 217.50398,0 l 0,7.219133 2.43758,0 z"
     id="path15623"
     style="opacity:0.5;fill:#ea8d86;fill-opacity:1;fill-rule:nonzero;stroke:none"
     inkscape:connector-curvature="0" /></svg>