<?xml version="1.0" encoding="UTF-8" standalone="no"?>
<!-- Created with Inkscape (http://www.inkscape.org/) -->

<svg
   xmlns:dc="http://purl.org/dc/elements/1.1/"
   xmlns:cc="http://creativecommons.org/ns#"
   xmlns:rdf="http://www.w3.org/1999/02/22-rdf-syntax-ns#"
   xmlns:svg="http://www.w3.org/2000/svg"
   xmlns="http://www.w3.org/2000/svg"
   xmlns:sodipodi="http://sodipodi.sourceforge.net/DTD/sodipodi-0.dtd"
   xmlns:inkscape="http://www.inkscape.org/namespaces/inkscape"
   width="147.18489"
   height="83.668312"
   id="svg2"
   sodipodi:version="0.32"
   inkscape:version="0.91 r13725"
   version="1.0"
   inkscape:output_extension="org.inkscape.output.svg.inkscape"
   hola_ext_inject="disabled"
   sodipodi:docname="BBC Two - Dark.svg">
  <metadata
     id="metadata31">
    <rdf:RDF>
      <cc:Work
         rdf:about="">
        <dc:format>image/svg+xml</dc:format>
        <dc:type
           rdf:resource="http://purl.org/dc/dcmitype/StillImage" />
        <dc:title></dc:title>
      </cc:Work>
    </rdf:RDF>
  </metadata>
  <defs
     id="defs29" />
  <sodipodi:namedview
     pagecolor="#ffffff"
     bordercolor="#666666"
     borderopacity="1"
     objecttolerance="10"
     gridtolerance="10"
     guidetolerance="10"
     inkscape:pageopacity="0"
     inkscape:pageshadow="2"
     inkscape:window-width="1920"
     inkscape:window-height="1017"
     id="namedview27"
     showgrid="false"
     inkscape:zoom="6.06"
     inkscape:cx="48.214995"
     inkscape:cy="27.177301"
     inkscape:window-x="-8"
     inkscape:window-y="-8"
     inkscape:window-maximized="1"
     inkscape:current-layer="layer1"
     fit-margin-top="0"
     fit-margin-left="0"
     fit-margin-right="0"
     fit-margin-bottom="0" />
  <g
     inkscape:label="Layer 1"
     inkscape:groupmode="layer"
     id="layer1"
     transform="translate(-52.923737,-741.72463)">
    <g
       id="g27219"
       transform="matrix(1,0,0,-1,262.65222,349.06912)" />
    <path
       style="fill:#005e70;fill-rule:nonzero;stroke:none;fill-opacity:1"
       d="m 143.19859,741.72463 25.35968,0 0,23.86372 -25.35968,0 0,-23.86372 z m 15.97595,3.32117 c -0.11452,-0.0143 -0.22904,-0.0358 -0.34357,-0.0501 l -0.13599,-0.0215 c -0.19326,-0.0286 -0.39367,-0.0501 -0.58693,-0.0716 -0.136,-0.007 -0.27199,-0.0215 -0.40799,-0.0286 -0.2362,-0.0143 -0.47956,-0.0215 -0.70145,-0.0215 -0.10737,0 -0.17179,0 -0.27199,0.007 -0.1861,0 -0.3722,0.007 -0.5583,0.0215 -0.10737,0.007 -0.20758,0.0143 -0.31494,0.0215 -0.15031,0.0143 -0.30063,0.0286 -0.44378,0.0501 l -0.12168,0.0143 -0.136,0.0215 -0.17178,0.0286 c -0.0716,0.0143 -0.14315,0.0215 -0.21473,0.0358 -0.10021,0.0215 -0.20042,0.043 -0.30062,0.0644 -0.59409,0.12168 -1.15239,0.29347 -1.66774,0.49388 -0.26484,0.10021 -0.52251,0.21473 -0.76588,0.32926 -0.20041,0.1002 -0.38651,0.20041 -0.57977,0.31493 -0.17894,0.10021 -0.35072,0.20758 -0.52251,0.31494 -0.0931,0.0644 -0.1861,0.12884 -0.27915,0.20042 -0.0787,0.0573 -0.15747,0.11452 -0.2362,0.17178 -0.15747,0.12168 -0.31494,0.25052 -0.45809,0.37936 -0.136,0.11452 -0.272,0.24336 -0.38652,0.36504 -0.10736,0.10021 -0.21473,0.20757 -0.31494,0.3221 -0.1002,0.11452 -0.20757,0.22904 -0.30062,0.35072 -0.10736,0.12884 -0.20757,0.26484 -0.30778,0.40083 -0.0787,0.10021 -0.14315,0.20758 -0.21473,0.30778 -0.0501,0.0716 -0.0931,0.14316 -0.136,0.22189 -0.26483,0.42946 -0.50103,0.89471 -0.68713,1.38859 -0.23621,0.61556 -0.40799,1.27407 -0.5082,1.98268 -0.0286,0.22189 -0.0501,0.44378 -0.0644,0.67998 -0.007,0.17179 -0.0143,0.35073 -0.0143,0.53683 0,0.12884 0,0.26483 0.007,0.40083 0.007,0.13599 0.0215,0.27199 0.0358,0.40799 l 0.007,0.1002 c 0.0286,0.15747 0.0501,0.31494 0.0787,0.47241 0.0143,0.0644 0.0215,0.12168 0.0358,0.1861 0.0286,0.12884 0.0644,0.25768 0.0931,0.38651 0.0501,0.16463 0.0931,0.3221 0.14316,0.47957 0.0716,0.19326 0.13599,0.38651 0.21473,0.56546 0.12168,0.29346 0.25767,0.57261 0.40083,0.83745 0.0859,0.15746 0.17178,0.30778 0.26483,0.45093 0.0716,0.12168 0.14315,0.22905 0.22189,0.33641 0.10021,0.14315 0.20041,0.28631 0.30062,0.41515 0.10737,0.13599 0.22189,0.27199 0.32926,0.39367 0.13599,0.15747 0.26483,0.29346 0.40083,0.4223 l 0.0716,0.0716 c 0.10737,0.10736 0.22905,0.22189 0.36504,0.33641 0.0931,0.0787 0.1861,0.16463 0.28631,0.24336 0.10021,0.0716 0.20042,0.15747 0.30778,0.22905 0.12884,0.0931 0.26484,0.1861 0.40799,0.27915 0.15031,0.10021 0.30778,0.19325 0.47957,0.2863 0.33641,0.19326 0.70145,0.3722 1.10944,0.53683 0.15031,0.0573 0.30778,0.11452 0.4724,0.17179 0.16463,0.0573 0.32926,0.10736 0.50104,0.15746 0.28631,0.0859 0.59409,0.15747 0.91618,0.22189 0.26484,0.0501 0.52967,0.0859 0.80882,0.12168 0.27915,0.0358 0.56546,0.0644 0.86608,0.0787 0.14316,0.007 0.28631,0.007 0.43662,0.0143 0.0716,0 0.14316,0 0.20757,0 0.53683,0 1.02355,-0.0215 1.4888,-0.0573 l 0.0859,-0.007 c 0.17895,-0.0215 0.35789,-0.0358 0.52967,-0.0573 0.25768,-0.0358 0.5082,-0.0716 0.7444,-0.11452 0.15031,-0.0286 0.29347,-0.0573 0.43662,-0.0859 0.22189,-0.043 0.4223,-0.10021 0.62272,-0.15031 0.15031,-0.0358 0.28631,-0.0787 0.4223,-0.12168 0.16463,-0.0501 0.3221,-0.10021 0.47241,-0.15032 l 0.14315,-0.0501 c 0.0716,-0.0286 0.17179,-0.0644 0.28631,-0.10736 0.15031,-0.0573 0.33641,-0.12884 0.54399,-0.22189 0.12883,-0.0501 0.26483,-0.11453 0.40083,-0.17895 0.12168,-0.0573 0.25767,-0.11452 0.38651,-0.17894 0.0501,-0.0286 0.10737,-0.0573 0.16463,-0.0859 l 0,-3.24959 c -0.0358,0.0215 -0.0787,0.0429 -0.11453,0.0716 l -0.22188,0.12884 c -0.22905,0.13599 -0.43662,0.26483 -0.65135,0.38651 -0.24336,0.12168 -0.47241,0.24336 -0.70146,0.35073 -0.40083,0.1861 -0.78734,0.35073 -1.15954,0.47956 -0.70861,0.25768 -1.35996,0.42231 -1.93258,0.52251 -0.0716,0.007 -0.13599,0.0215 -0.20041,0.0286 -0.16463,0.0286 -0.31494,0.0429 -0.45809,0.0644 -0.22905,0.0215 -0.43662,0.0358 -0.62988,0.0429 -0.12168,0.007 -0.24336,0.007 -0.34357,0.007 -0.2362,0 -0.4724,0 -0.70861,-0.0215 -0.28631,-0.0215 -0.57261,-0.0501 -0.86608,-0.1002 -0.47241,-0.0787 -0.94481,-0.20042 -1.4029,-0.36504 -0.0716,-0.0286 -0.14316,-0.0573 -0.20758,-0.0787 -0.0429,-0.0215 -0.0859,-0.0358 -0.13599,-0.0573 -0.0716,-0.0286 -0.15031,-0.0644 -0.22189,-0.10021 -0.15747,-0.0716 -0.31494,-0.15747 -0.47241,-0.24336 -0.0716,-0.043 -0.15031,-0.0859 -0.22904,-0.136 -0.0787,-0.0501 -0.15747,-0.1002 -0.22905,-0.15031 -0.0931,-0.0644 -0.1861,-0.13599 -0.27915,-0.20757 -0.0859,-0.0716 -0.17894,-0.14315 -0.25768,-0.20757 l -0.10736,-0.10021 -0.0501,-0.0501 -0.0358,-0.0286 -0.0358,-0.0358 c -0.15031,-0.15031 -0.27915,-0.29347 -0.40799,-0.44378 -0.0644,-0.0787 -0.12884,-0.16463 -0.19326,-0.24336 -0.0573,-0.0859 -0.11452,-0.16463 -0.16462,-0.24336 -0.0501,-0.0787 -0.10021,-0.15747 -0.14316,-0.22905 -0.0644,-0.11452 -0.12884,-0.2362 -0.1861,-0.34357 -0.0501,-0.1002 -0.0931,-0.19325 -0.12884,-0.29346 -0.0716,-0.16463 -0.13599,-0.32925 -0.17894,-0.48672 -0.0429,-0.12168 -0.0787,-0.24337 -0.10021,-0.35789 -0.0931,-0.34357 -0.13599,-0.65135 -0.15746,-0.91618 -0.0143,-0.10021 -0.0143,-0.19326 -0.0215,-0.27915 -0.007,-0.136 -0.007,-0.24336 -0.007,-0.33641 0,-0.0573 0,-0.12884 0,-0.20758 0.007,-0.1861 0.0215,-0.4223 0.0644,-0.69429 0.0215,-0.15747 0.0573,-0.32925 0.10021,-0.51535 0.0286,-0.12168 0.0644,-0.24337 0.10021,-0.3722 0.0358,-0.11453 0.0787,-0.23621 0.12168,-0.35073 0.0286,-0.0859 0.0644,-0.16463 0.10736,-0.24336 0.0429,-0.11452 0.0931,-0.22189 0.15032,-0.32925 0.0429,-0.0859 0.0931,-0.17179 0.14315,-0.25768 0.10736,-0.17894 0.22905,-0.36504 0.36504,-0.55114 0.0501,-0.0644 0.10021,-0.12884 0.15031,-0.19326 0.0716,-0.0859 0.14316,-0.16463 0.22189,-0.25052 0.0358,-0.0429 0.0716,-0.0859 0.11452,-0.12168 0.60125,-0.60125 1.26691,-1.04502 1.96121,-1.36712 0.10736,-0.0429 0.22189,-0.0859 0.32925,-0.13599 0.11453,-0.043 0.22189,-0.0787 0.32926,-0.11453 0.12168,-0.0429 0.25052,-0.0787 0.36504,-0.11452 0.11452,-0.0286 0.22904,-0.0573 0.34357,-0.0859 0.11452,-0.0286 0.22904,-0.0501 0.34357,-0.0716 0.12883,-0.0215 0.25051,-0.0429 0.3722,-0.0573 0.12883,-0.0143 0.25767,-0.0286 0.37935,-0.043 0.23621,-0.0215 0.47241,-0.0286 0.6943,-0.0286 0.0787,0 0.15031,0 0.22904,0 0.17179,0.007 0.32926,0.007 0.49388,0.0215 0.11453,0.007 0.22189,0.0143 0.32926,0.0215 0.20041,0.0215 0.40083,0.0501 0.58693,0.0787 0.17178,0.0215 0.32925,0.0501 0.48672,0.0787 0.22905,0.0501 0.44378,0.10021 0.62988,0.15031 0.12883,0.0358 0.24336,0.0716 0.35072,0.10021 0.15747,0.0429 0.29347,0.0859 0.39368,0.12168 0.17894,0.0644 0.27914,0.10021 0.27914,0.10021 0.15747,0.0573 0.31494,0.12168 0.47241,0.17894 0.20757,0.0859 0.40083,0.17894 0.59409,0.25767 0.15747,0.0787 0.30778,0.15032 0.45093,0.21473 0.11453,0.0573 0.22189,0.11453 0.3221,0.16463 0.17894,0.10021 0.32925,0.17894 0.45093,0.24336 l 0.33641,0.1861 0,-3.19948 c 0,0 -0.20041,-0.0787 -0.54398,-0.20757 -0.15747,-0.0644 -0.33641,-0.12884 -0.53683,-0.20042 -0.11452,-0.043 -0.2362,-0.0859 -0.36504,-0.12884 -0.1002,-0.0286 -0.20041,-0.0716 -0.31494,-0.10736 -0.11452,-0.0358 -0.24336,-0.0787 -0.37219,-0.11453 -0.0931,-0.0286 -0.19326,-0.0644 -0.28631,-0.0859 l -0.0931,-0.0286 c -0.0931,-0.0215 -0.1861,-0.0501 -0.28631,-0.0787 -0.11452,-0.0286 -0.2362,-0.0644 -0.35073,-0.093 -0.0787,-0.0143 -0.15746,-0.0358 -0.22904,-0.0501 -0.136,-0.0286 -0.25768,-0.0573 -0.38652,-0.0859 -0.13599,-0.0286 -0.27199,-0.0501 -0.40083,-0.0787"
       id="path27227"
       inkscape:connector-curvature="0" />
    <g
       transform="matrix(7.1576838,0,0,-7.1576838,123.70607,754.88904)"
       id="g27229"
       style="fill:#005e70;fill-opacity:1">
      <path
         style="fill:#005e70;fill-rule:nonzero;stroke:none;fill-opacity:1"
         d="m 0,0 0,-0.655 0.425,0 c 0,0 0.009,0 0.023,0.001 0.014,0 0.034,0.001 0.059,0.003 0.046,0.004 0.107,0.013 0.166,0.033 0.053,0.018 0.105,0.045 0.145,0.085 0.015,0.015 0.028,0.031 0.038,0.047 0.033,0.052 0.042,0.106 0.044,0.136 0.001,0.013 0.001,0.021 0.001,0.021 0,0 0,0.006 0,0.016 C 0.9,-0.3 0.899,-0.276 0.892,-0.25 0.884,-0.219 0.869,-0.183 0.842,-0.149 0.837,-0.143 0.832,-0.137 0.826,-0.131 0.814,-0.119 0.801,-0.108 0.787,-0.098 0.764,-0.081 0.738,-0.066 0.709,-0.054 0.671,-0.037 0.628,-0.025 0.581,-0.016 0.557,-0.011 0.531,-0.008 0.505,-0.005 0.489,-0.004 0.473,-0.003 0.456,-0.002 0.442,-0.001 0.426,0 0.412,0 L 0,0 Z"
         id="path27231"
         inkscape:connector-curvature="0" />
    </g>
    <g
       transform="matrix(7.1576838,0,0,-7.1576838,123.70607,747.75856)"
       id="g27233"
       style="fill:#005e70;fill-opacity:1">
      <path
         style="fill:#005e70;fill-rule:nonzero;stroke:none;fill-opacity:1"
         d="m 0,0 0,-0.621 0.206,0 c 0,0 0.014,0 0.032,0.001 0.014,0 0.031,0.001 0.046,0.002 0.043,0.003 0.101,0.009 0.16,0.025 0.011,0.003 0.023,0.007 0.034,0.011 0.046,0.016 0.09,0.04 0.124,0.074 0.028,0.027 0.046,0.056 0.058,0.085 0.014,0.036 0.019,0.07 0.021,0.094 0.002,0.022 0.002,0.035 0.002,0.035 0,0 0.001,0.01 -0.001,0.027 -0.001,0.027 -0.007,0.071 -0.028,0.113 -0.01,0.02 -0.024,0.04 -0.043,0.059 -0.023,0.023 -0.052,0.04 -0.082,0.054 -0.058,0.025 -0.124,0.035 -0.18,0.039 C 0.325,0 0.303,0 0.284,0 L 0,0 Z"
         id="path27235"
         inkscape:connector-curvature="0" />
    </g>
    <g
       transform="matrix(7.1576838,0,0,-7.1576838,113.97449,741.72749)"
       id="g27237"
       style="fill:#005e70;fill-opacity:1">
      <path
         style="fill:#005e70;fill-rule:nonzero;stroke:none;fill-opacity:1"
         d="m 0,0 3.543,0 0,-3.334 L 0,-3.334 0,0 Z m 0.93,-0.467 0,-2.402 0.903,0 c 0,0 0.441,-0.012 0.685,0.231 0.198,0.199 0.183,0.428 0.183,0.428 0,0 0.015,0.239 -0.169,0.423 -0.156,0.156 -0.356,0.197 -0.356,0.197 0,0 0.091,0.043 0.16,0.112 0.032,0.032 0.148,0.137 0.148,0.39 0,0.254 -0.17,0.401 -0.17,0.401 0,0 -0.186,0.22 -0.605,0.22 l -0.779,0 z"
         id="path27239"
         inkscape:connector-curvature="0" />
    </g>
    <g
       transform="matrix(7.1576838,0,0,-7.1576838,94.482681,754.88904)"
       id="g27241"
       style="fill:#005e70;fill-opacity:1">
      <path
         style="fill:#005e70;fill-rule:nonzero;stroke:none;fill-opacity:1"
         d="m 0,0 0,-0.655 0.426,0 c 0,0 0.008,0 0.022,0.001 0.014,0 0.034,0.001 0.059,0.003 0.047,0.004 0.107,0.013 0.166,0.033 0.054,0.018 0.106,0.045 0.145,0.085 0.015,0.015 0.028,0.031 0.039,0.047 0.033,0.052 0.041,0.106 0.043,0.136 0.001,0.013 0.001,0.021 0.001,0.021 0,0 0,0.006 0,0.016 0,0.013 -0.002,0.037 -0.008,0.063 -0.009,0.031 -0.024,0.067 -0.05,0.101 -0.005,0.006 -0.011,0.012 -0.017,0.018 -0.012,0.012 -0.024,0.023 -0.038,0.033 -0.023,0.017 -0.05,0.032 -0.079,0.044 -0.038,0.017 -0.081,0.029 -0.128,0.038 -0.024,0.005 -0.049,0.008 -0.075,0.011 -0.017,0.001 -0.033,0.002 -0.05,0.003 C 0.442,-0.001 0.426,0 0.411,0 L 0,0 Z"
         id="path27243"
         inkscape:connector-curvature="0" />
    </g>
    <g
       transform="matrix(7.1576838,0,0,-7.1576838,94.482681,747.75856)"
       id="g27245"
       style="fill:#005e70;fill-opacity:1">
      <path
         style="fill:#005e70;fill-rule:nonzero;stroke:none;fill-opacity:1"
         d="m 0,0 0,-0.621 0.206,0 c 0,0 0.014,0 0.032,0.001 0.014,0 0.031,0.001 0.046,0.002 0.043,0.003 0.101,0.009 0.16,0.025 0.011,0.003 0.023,0.007 0.034,0.011 0.046,0.016 0.09,0.04 0.125,0.074 0.027,0.027 0.045,0.056 0.057,0.085 0.015,0.036 0.02,0.07 0.021,0.094 0.002,0.022 0.002,0.035 0.002,0.035 0,0 0.001,0.01 0,0.027 -0.002,0.027 -0.007,0.071 -0.029,0.113 -0.01,0.02 -0.024,0.04 -0.043,0.059 C 0.588,-0.072 0.56,-0.055 0.53,-0.041 0.472,-0.016 0.405,-0.006 0.349,-0.002 0.325,0 0.303,0 0.284,0 L 0,0 Z"
         id="path27247"
         inkscape:connector-curvature="0" />
    </g>
    <path
       style="fill:#005e70;fill-rule:nonzero;stroke:none;fill-opacity:1"
       d="m 84.756105,741.72463 25.359675,0 0,23.86372 -25.359675,0 0,-23.86372 z m 6.649488,3.3498 0,17.1856 6.470546,0 c 0,0 3.156541,0.093 4.895851,-1.65343 1.41723,-1.41722 1.31702,-3.05633 1.31702,-3.05633 0,0 0.10021,-1.71785 -1.20965,-3.0277 -1.1166,-1.1166 -2.54814,-1.41722 -2.54814,-1.41722 0,0 0.6442,-0.30063 1.14523,-0.80166 0.22905,-0.22905 1.05218,-0.97345 1.05218,-2.78434 0,-1.82521 -1.20965,-2.87739 -1.20965,-2.87739 0,0 -1.331324,-1.56753 -4.330394,-1.56753 l -5.582993,0 z"
       id="path27249"
       inkscape:connector-curvature="0" />
    <g
       transform="matrix(7.1576838,0,0,-7.1576838,65.829041,788.99827)"
       id="g27251"
       style="fill:#005e70;fill-opacity:1">
      <path
         style="fill:#005e70;fill-rule:nonzero;stroke:none;fill-opacity:1"
         d="m 0,0 -1.803,0 0,0.947 4.653,0 0,-0.947 -1.803,0 0,-4.935 L 0,-4.935 0,0 Z"
         id="path27253"
         inkscape:connector-curvature="0" />
    </g>
    <g
       transform="matrix(7.1576838,0,0,-7.1576838,93.779796,782.21851)"
       id="g27255"
       style="fill:#005e70;fill-opacity:1">
      <path
         style="fill:#005e70;fill-rule:nonzero;stroke:none;fill-opacity:1"
         d="m 0,0 1.146,0 1.106,-4.237 0.016,0 1.321,4.237 1.03,0 1.296,-4.237 0.017,0 L 7.087,0 8.151,0 6.439,-5.883 l -0.997,0 -1.363,4.479 -0.016,0 -1.363,-4.479 -0.964,0 L 0,0 Z"
         id="path27257"
         inkscape:connector-curvature="0" />
    </g>
    <g
       transform="matrix(7.1576838,0,0,-7.1576838,177.74802,818.61462)"
       id="g27259"
       style="fill:#005e70;fill-opacity:1">
      <path
         style="fill:#005e70;fill-rule:nonzero;stroke:none;fill-opacity:1"
         d="M 0,0 C 1.221,0 2.027,0.93 2.027,2.185 2.027,3.356 1.221,4.287 0,4.287 -1.213,4.287 -2.019,3.356 -2.019,2.185 -2.019,0.93 -1.213,0 0,0 m -0.008,5.235 c 1.836,0.033 3.132,-1.197 3.132,-3.083 0,-1.837 -1.296,-3.066 -3.132,-3.099 -1.812,0 -3.108,1.229 -3.108,3.066 0,1.886 1.296,3.116 3.108,3.116"
         id="path27261"
         inkscape:connector-curvature="0" />
    </g>
  </g>
</svg>
