<svg height="296.19443" width="999" xmlns="http://www.w3.org/2000/svg"><g fill="#c80201" transform="matrix(2.5818855 0 0 2.5818855 486.991825 -51.067475)"><path d="m-19.27832 107.65974c3.279607.00002 5.972883.74669 8.079834 2.23999l-1.920166 3.95996c-1.733415-1.04002-3.586847-1.56004-5.560303-1.56006-1.359874.00002-2.426564.26675-3.200073.80017-.773527.53347-1.160286 1.2136-1.160279 2.04041-.000007.74627.440056 1.39935 1.320191 1.95923.880117.55991 1.940296 1.07321 3.180542 1.53991 1.240221.46673 2.48025 1.00018 3.720093 1.60034 1.23981.6002 2.299786 1.45347 3.179931 2.55982.880107 1.10637 1.32017 2.41964 1.320191 3.93982-.000021 2.15983-.760111 3.99312-2.280274 5.49988-1.520199 1.50675-3.840346 2.26013-6.960449 2.26013-1.81316 0-3.519702-.27995-5.119629-.83985-1.599939-.55989-2.919925-1.30655-3.959961-2.23999l2.080078-3.95996c2.18668 1.6268 4.4934 2.44019 6.920166 2.44019 1.253243 0 2.233263-.23336 2.940064-.70008.706772-.46671 1.060165-1.13992 1.06018-2.01965-.000015-.85367-.433364-1.58711-1.300048-2.20032-.866713-.61319-1.920178-1.14643-3.160401-1.59973-1.240244-.45327-2.480273-.96658-3.720093-1.53991-1.239833-.57331-2.293095-1.40665-3.15979-2.5-.866702-1.09333-1.300051-2.42695-1.300048-4.00086-.000003-2.26642.87992-4.11293 2.63977-5.53955 1.75984-1.42657 3.879996-2.13987 6.360474-2.13989z"/><path d="m6.982666 128.53986c.9065594-1.04003 1.3598467-2.49348 1.3598633-4.36035-.0000166-1.86685-.4533039-3.3203-1.3598633-4.36035-.9065899-.98631-2.1464161-1.47947-3.7194824-1.47949-1.5730894.00002-2.81291565.49318-3.71948243 1.47949-.90739627 1.04005-1.36109047 2.4935-1.36108397 4.36035-.0000065 1.86687.4536877 3.32032 1.36108397 4.36035.90656678.98634 2.14639303 1.4795 3.71948243 1.4795 1.5730663 0 2.8128925-.49316 3.7194824-1.4795zm-11.0595703 3.07984c-1.8798851-1.91976-2.8198256-4.39961-2.8198242-7.43958-.0000014-3.03994.9399391-5.52 2.8198242-7.44018 1.8798767-1.92015 4.32657023-2.88023 7.3400879-2.88025 3.0134945.00002 5.4601881.9601 7.3400874 2.88025 1.879863 1.92018 2.819803 4.40024 2.819825 7.44018-.000022 3.03997-.939962 5.51982-2.819825 7.43958-1.8798993 1.91976-4.3265929 2.87964-7.3400874 2.87964-3.01351767 0-5.4602112-.95988-7.3400879-2.87964z"/><path d="m30.54834 114.33943h4.880371v10.52002c-.000021 1.97347-.17336 3.5201-.52002 4.63989-.346699 1.11979-.907001 2.08008-1.680908 2.88086-1.35988 1.41276-3.653172 2.11914-6.879883 2.11914-3.173022 0-5.466314-.70638-6.879882-2.11914-.746261-.80078-1.292728-1.76107-1.639405-2.88086-.346682-1.11979-.520022-2.66642-.520019-4.63989v-5c-.000003-2.26643-.133466-4.10643-.400391-5.52002h4.840088c.292962 1.54705.439446 3.38706.439453 5.52002v4.20043c-.000007 1.38673.06001 2.44671.180054 3.17994.120028.73324.393669 1.3265.820923 1.77978.799958.74708 1.866445 1.12061 3.199463 1.12061 1.332995 0 2.373033-.37353 3.120117-1.12061.693344-.72021 1.040023-2.37345 1.040039-4.95972z"/><path d="m52.154785 130.30012.440674 3.51929c-1.173516.45328-2.400322.67993-3.68042.67993-2.826343 0-4.866543-.82642-6.120605-2.47925-.986332-1.36067-1.479496-3.32071-1.479493-5.88013v-8.07983h-3.1604v-3.7207h3.1604v-5.75928h4.880371v5.75928h5.040284v3.7207h-5.040284v7.35962c-.000008 1.89291.253084 3.21289.759278 3.95996.533844.82683 1.427398 1.24024 2.680664 1.24023.95946.00001 1.799303-.1066 2.519531-.31982z"/><path d="m75.667969 134.0196h-4.840088c-.2938-1.35986-.440691-3.18644-.440674-5.47974v-4.11987c-.000017-2.53335-.373145-4.17357-1.119385-4.92065-.773941-.7731-1.840834-1.15965-3.200683-1.15967-1.546236.00002-2.839366.53346-3.879395 1.60034-.507007.55991-.833748 1.25307-.980224 2.07947-.146493.82643-.219735 1.9863-.219727 3.47961v8.52051h-4.880371v-25.88013h4.840088v9.16016h.04028c.506177-.96027 1.339306-1.77366 2.49939-2.44018 1.160063-.66649 2.486763-.99974 3.980102-.99976 2.346989.00002 4.240297.71983 5.679932 2.15942.747049.77395 1.28721 1.72752 1.620483 2.86072.33323 1.13323.499856 2.68658.499878 4.66003v5c-.000022 2.23959.133441 4.06617.400391 5.47974z"/><path d="m95.057617 123.13947v6.40015h11.279293l.7605 4.47998h-17.159422v-25.88013h17.239992l-.84107 4.4397h-11.279293v6.08032h10.240483v4.47998z"/><path d="m128.47916 134.0196h-4.84009c-.10663-.507-.21323-1.34684-.31983-2.51953-.77394.95947-1.70757 1.69922-2.8009 2.21924-1.09335.52002-2.17307.78003-3.23913.78003-2.34702 0-4.30706-.73324-5.88013-2.19971-2.08008-1.86686-3.12012-4.56013-3.12012-8.07983 0-3.81347 1.22681-6.65363 3.68042-8.52051 1.59993-1.22638 3.38622-1.83958 5.35889-1.8396 2.56021.00002 4.52025.98675 5.88013 2.9602v-2.48046h4.88037v14.16015c-.00003 2.26644.13344 4.10645.40039 5.52002zm-13.76099-5.47974c.90738.98634 2.14761 1.4795 3.7207 1.4795 1.57307 0 2.8129-.49316 3.71949-1.4795.90656-1.04003 1.35984-2.48005 1.35986-4.32006-.00002-1.89371-.4533-3.36059-1.35986-4.40064-.90659-.98631-2.14642-1.47947-3.71949-1.47949-1.57309.00002-2.81312.49338-3.72009 1.4801-.90699.98675-1.36048 2.45342-1.36047 4.40003-.00001 1.89291.45328 3.33293 1.35986 4.32006z"/><path d="m130.81427 132.54011 1.59912-3.56079c1.76025 1.1735 3.45377 1.76026 5.08057 1.76025.90657.00001 1.63329-.18656 2.18018-.55969.54686-.37312.8203-.89335.82031-1.56067-.00001-.55989-.23337-1.03983-.70008-1.43982-.46672-.39998-1.04676-.72-1.74011-.96008-.69337-.24007-1.44674-.53995-2.26013-.89966-.8134-.35969-1.56678-.73953-2.26013-1.13953-.69336-.39997-1.2734-.99343-1.74011-1.78039-.46672-.78694-.70008-1.70043-.70008-2.74048 0-1.83999.72001-3.26658 2.16004-4.27979 1.44001-1.01316 3.14676-1.51975 5.12024-1.51977 2.34618.00002 4.38597.61322 6.11938 1.8396l-1.59912 3.40088c-1.41359-1.01398-2.85361-1.52098-4.32007-1.521-.79997.00002-1.40666.20001-1.82007.59998-.41342.4-.62012.85349-.62011 1.36047-.00001.55991.3133 1.05328.93994 1.4801.62662.42686 1.37999.80019 2.26013 1.12.88012.31983 1.76004.69317 2.63977 1.11999.87971.42685 1.63288 1.05348 2.25952 1.87989.62661.82642.93993 1.82638.93994 2.99987-.00001 2.02638-.73325 3.59294-2.1997 4.69971-1.46649 1.10677-3.29306 1.66016-5.47974 1.66016-1.09376 0-2.30063-.19328-3.62061-.57984-1.31999-.38655-2.33968-.84635-3.05908-1.37939z"/><path d="m161.53088 130.30012.44067 3.51929c-1.17352.45328-2.40032.67993-3.68042.67993-2.82634 0-4.86654-.82642-6.12061-2.47925-.98633-1.36067-1.47949-3.32071-1.47949-5.88013v-8.07983h-3.1604v-3.7207h3.1604v-5.75928h4.88037v5.75928h5.04029v3.7207h-5.04029v7.35962c-.00001 1.89291.25309 3.21289.75928 3.95996.53384.82683 1.4274 1.24024 2.68066 1.24023.95946.00001 1.79931-.1066 2.51954-.31982z"/></g><g fill="#c80201" transform="matrix(4.51035131 0 0 4.51035131 -233.092351 -171.620947)"><path d="m523.9375 922.28125c-1.15419-.0146-2.32654-.004-3.5.0312-14.88451.45302-28.0053 5.04172-38.78125 13.5625-5.90469 4.66872-12.06132 12.32642-15.625 19.40625-9.60474 19.08365-9.76567 44.9614-.40625 64.0938 3.21032 6.5627 6.43814 11.0851 11.5 16.1562 10.24593 10.2652 22.98778 15.9839 39.40625 17.6563 2.52128.2568 13.98285-.07 16.53125-.4687 14.10217-2.2101 25.43144-7.5786 34.46875-16.3126 10.51172-10.1591 16.56015-22.6664 18.75-38.78125.56228-4.13954.62726-14.57506.125-18.6875-1.97914-16.20536-8.27658-29.5089-18.71875-39.59375-11.35373-10.96517-26.43721-16.84281-43.75-17.0625zm-.53125 23.53125c3.20184.0287 6.3931.34319 9.28125.9375 15.02958 3.09231 24.61977 13.54382 27.40625 29.875 1.11013 6.50339 1.10984 15.7651 0 22.34375-3.03001 17.96085-14.4014 28.79185-32.09375 30.62505-2.79731.2898-7.8402.269-10.6875-.031-9.07734-.9578-16.25627-4.1745-21.875-9.8125-5.53324-5.5522-8.7497-12.493-10.28125-22.25-.64654-4.12027-.64201-15.00806 0-19.28125.55029-3.66845 1.6478-7.97674 2.6875-10.59375 3.86109-9.71972 10.88703-16.47052 20.5625-19.71875 4.25577-1.42887 9.6636-2.14155 15-2.09375z" transform="matrix(.34004134 0 0 .34004134 -17.938189 -275.55444)"/><path d="m794.375 922.375c-6.99224-.0197-8.89202.13973-14.03125 1.15625-21.75512 4.30299-38.52662 19.20763-45.5625 40.4375-3.25275 9.81544-4.5201 20.158-3.6875 30.375 1.82387 22.38005 11.84677 39.75415 28.8125 50.00005 8.00032 4.8312 16.19448 7.4286 28.03125 8.8437.48641.058 4.18968.071 8.21875.031 5.76774-.057 8.18741-.1904 11.46875-.625 14.74697-1.9512 27.55475-6.3905 37.875-13.0938 2.74646-1.7838 5.59375-3.8902 5.59375-4.1562 0-.1141-2.12824-4.1223-4.71875-8.9063l-4.71875-8.6875-1.375.9062c-19.00057 12.1544-46.94574 15.4306-63.6875 7.5-10.43523-4.9432-16.50463-13.5099-18.8125-26.56245l-.15625-.8125h48.75 48.75l.125-.5625c.75164-3.21964 1.0864-12.06384.65625-17.25-.61107-7.35797-1.60599-12.39325-3.6875-18.71875-6.48442-19.70705-20.8942-33.07633-40.9375-38-5.92425-1.4554-9.37431-1.85393-16.90625-1.875zm-2.0625 23.25c3.70033-.0689 7.90503.14657 10.40625.59375 7.29655 1.30429 12.80517 3.90101 17.46875 8.21875 5.55338 5.14131 9.10337 12.95514 9.59375 21.15625l.15625 2.71875h-36.1875-36.1875l.15625-1.5c.57764-5.526 2.81892-11.73063 6-16.5625 1.84131-2.79672 6.09765-7.01197 9-8.90625 3.97943-2.59624 8.66132-4.36075 13.9375-5.28125 1.37409-.23987 3.43605-.39614 5.65625-.4375z" transform="matrix(.34004134 0 0 .34004134 -17.938189 -275.55444)"/><path d="m194.16171 70.954681c0-6.488717.0341-10.978812.0886-11.659793.34852-4.349149 1.45716-7.153833 3.73347-9.444583 2.41962-2.434971 5.67385-3.590991 9.7058-3.447998 3.23161.11464 5.4849 1.003405 7.25916 2.862926 1.39287 1.459917 2.22094 3.166003 2.70427 5.5717.35303 1.75788.38803 2.564043.43441 10.049922.0606 9.752985.22282 12.919194.82622 16.126142l.0931.493974h4.1824 4.18231l-.1566-.966352c-.16275-1.003098-.34126-2.624331-.50811-4.61671-.0581-.694595-.12395-4.947222-.16408-10.607666-.066-9.339565-.0889-10.055552-.39059-12.196553-.44945-3.191594-1.52154-6.09843-3.02311-8.197466-1.23422-1.725431-3.27922-3.586487-5.04129-4.588459-4.41875-2.512557-10.40264-2.990769-15.50862-1.239237-1.85123.634921-3.54504 1.569952-5.0329 2.778174-.93329.757852-2.31879 2.178362-2.90725 2.980739-.23336.318433-.44719.578931-.47514.578931-.0278 0-.0969-.434915-.15343-.966353-.1609-1.513757-.50789-3.398559-.88559-4.809858l-.0864-.322116h-4.10709-4.10707l.10829.622739c.36624 2.108555.61128 4.985196.72572 8.523677.0459 1.417747.084 9.428718.0848 17.802134l.001 15.224376h4.20872 4.20871v-10.55229z"/><g transform="matrix(1.9913537 0 0 1.9913537 -933.16944 -2271.4564)"><path d="m494.5625 1160.375v5.3438 5.3437h5.6875 5.6875v-5.3437-5.3438h-5.6875zm2.96875 1.5h1.5c1.35533 0 1.54326.017 1.84375.094.97214.2486 1.603.9247 1.65625 1.7812.0453.7275-.20813 1.2313-.78125 1.5938l-.1875.125.21875.062c.55564.1957 1.0114.6109 1.25 1.0938.15923.3222.1875.3209.1875.8125 0 .4908-.0299.525-.1875.8437-.35502.7184-.97389 1.1001-1.96875 1.25-.30069.045-.82817.062-1.96875.063h-1.5625v-3.8438-3.875zm1.375 1.2188v.9687 1h .5c.26687-.0004.5924-.029.75-.062.69401-.1471.98232-.4735.9375-1.0938-.0248-.3414-.13516-.5456-.4375-.6874-.2258-.1058-.30306-.1116-1-.125h-.75zm0 3.1874v1.0626 1.0312h.75c.40925-.0005.8678-.01 1.03125-.031.71945-.104 1.125-.4676 1.125-1.0313 0-.3566-.14015-.5707-.4375-.75-.35821-.216-.68092-.2813-1.625-.2813h-.84375z"/><path d="m507.65625 1160.375v5.3438 5.3437h5.71875 5.71875v-5.3437-5.3438h-5.71875zm3.03125 1.5h1.46875c1.66569.0009 1.88068.022 2.40625.2812.79316.3919 1.22179 1.1747 1.09375 2-.0268.1729-.0801.3987-.125.5-.099.2239-.41791.5761-.625.6876-.15682.084-.19815.1562-.0937.1562.14444 0 .74737.3498.96875.5625.48764.4686.69846 1.2158.53125 1.8437-.20822.7823-.81127 1.3193-1.75 1.5626-.32753.085-.50557.1077-2.125.125h-1.75v-3.8438-3.875zm1.375 1.2188v1 1l .625-.031c.3652-.014.68826-.055.8125-.094.50655-.1594.75519-.4627.75-.9688-.003-.3177-.0806-.4875-.28125-.6562-.22416-.1887-.51605-.25-1.25-.25zm0 3.1874v1.0626 1.0624l.9375-.031c.79435-.017.93158-.011 1.1875-.094.72989-.2364.99452-1.0348.53125-1.5624-.30393-.3461-.71041-.4365-1.84375-.4376z"/><path d="m520.8125 1160.375v5.3438 5.3437h5.71875 5.6875v-5.3437-5.3438h-5.6875zm5.9375 1.4062c.82889-.046 1.64553.079 2.65625.4376l.46875.1874v.7188c0 .3889.009.6875 0 .6875s-.26144-.09-.53125-.2187c-.95914-.4564-1.59026-.6264-2.46875-.5938-.45988.017-.62123.039-.96875.1562-.52537.1776-.86336.3915-1.21875.75-.48178.486-.71993 1.1206-.71875 1.8438.002.768.23851 1.3405.75 1.8438.57394.5645 1.32032.8393 2.28125.8437.85161 0 1.56708-.1856 2.46875-.6563l.5-.25v.7188.7188l-.28125.1562c-.809.3728-1.50262.5083-2.5.5312-.40334.01-.85073.021-1 0-1.55487-.219-2.81263-1.1353-3.375-2.4687-.33734-.8-.36936-1.7362-.0937-2.5937.43999-1.3691 1.67462-2.4154 3.1875-2.7188.28557-.057.56745-.079.84375-.094z"/></g></g></svg>