<svg height="146" width="200" xmlns="http://www.w3.org/2000/svg"><path d="m0 0h52.096v-10.675l-52.096-3.844z" fill="#007eab" transform="matrix(3.8390663 0 0 -3.8390663 0 .05386)"/><path d="m0 0s-4.452-4.302-4.357-4.42c.096-.118 5.522 2.613 6.366 2.881.831.265 1.341-.409 1.341-.409s5.649-6.314 5.816-6.161c.152.139-3.357 7.271-3.582 8.102-.244.896.73 1.697.73 1.697s2.024 1.969 3.419 3.402v.419c-.078 0-1.004.005-1.015 0-1.677-.848-3.742-1.934-4.27-2.143-.894-.355-1.397.135-1.397.135s-1.133 1.087-2.155 2.008c.001-.007-1.272-.003-1.274 0 .48-1.307 1.23-3.223 1.33-3.768.158-.862-.952-1.743-.952-1.743" fill="#fff" transform="matrix(3.8390663 0 0 -3.8390663 162.632786 21.210629)"/><path d="m0 0 52.096 3.843v-27.756h-52.096z" fill="#00325d" transform="matrix(3.8390663 0 0 -3.8390663 0 54.15241)"/><path d="m0 0h-2.534l1.288 3.708zm3.207-3.479-3.723 10.193h-1.56l-3.708-10.193h2.076l.616 1.804h3.622l.601-1.804z" fill="#fff" transform="matrix(3.8390663 0 0 -3.8390663 51.99973 122.31852)"/><path d="m0 0v1.775h-4.624v8.418h-1.99v-10.193z" fill="#fff" transform="matrix(3.8390663 0 0 -3.8390663 95.08442 135.67391)"/><g fill-rule="evenodd" transform="matrix(3.8390663 0 0 -3.8390663 -1922.06621 1826.97493)"><g fill="#fff"><path d="m0 0c0-.687-.43-1.26-1.331-1.26h-2.076v2.505h2.076c.901 0 1.331-.558 1.331-1.245m-.143 4.209c0-.701-.472-1.174-1.317-1.174h-1.947v2.348h1.947c.845 0 1.317-.472 1.317-1.174m2.133-4.309c0 1.36-.787 2.004-1.403 2.29.515.244 1.26.974 1.26 2.105 0 1.747-1.16 2.863-3.15 2.863h-4.095v-10.193h4.267c1.818 0 3.121 1.031 3.121 2.935" transform="translate(532.58479 443.58501)"/><path d="m0 0h-2.534l1.289 3.708zm3.207-3.479-3.722 10.193h-1.561l-3.708-10.193h2.076l.616 1.804h3.622l.601-1.804z" transform="translate(541.4171 444.0289)"/><path d="m515.819 460.335h6.676v-6.283h-6.676z"/><path d="m523.477 460.335h6.676v-6.283h-6.676z"/><path d="m531.134 460.335h6.676v-6.283h-6.676z"/></g><g fill="#00325d"><path d="m0 0h-.615v-1.458h.648c.36 0 .603.027.731.082.129.057.232.145.309.263.079.119.119.246.119.382 0 .141-.042.269-.126.386-.081.116-.197.202-.348.259-.152.057-.391.086-.718.086m-.049 1.968h-.566v-1.382h.437c.351 0 .601.067.747.201.15.134.224.307.225.52 0 .441-.281.661-.843.661m.332-4.012h-1.557v4.598h1.205c.379 0 .676-.051.889-.154.213-.101.375-.242.487-.422.112-.178.168-.384.168-.619 0-.452-.234-.776-.701-.971.335-.063.602-.202.799-.414.2-.213.3-.468.3-.764 0-.235-.06-.444-.181-.629-.121-.184-.298-.334-.533-.451-.233-.116-.525-.174-.876-.174" transform="translate(518.9086 456.9991)"/><path d="m0 0h-.615v-1.458h.648c.36 0 .603.027.73.082.13.057.233.145.31.263.079.119.119.246.119.382 0 .141-.042.269-.125.386-.082.116-.198.202-.349.259-.152.057-.391.086-.718.086m-.049 1.968h-.566v-1.382h.437c.351 0 .6.067.747.201.149.134.224.307.224.52 0 .441-.281.661-.842.661m.332-4.012h-1.557v4.598h1.205c.379 0 .676-.051.888-.154.213-.101.376-.242.488-.422.112-.178.167-.384.167-.619 0-.452-.233-.776-.701-.971.336-.063.603-.202.8-.414.2-.213.3-.468.3-.764 0-.235-.06-.444-.181-.629-.121-.184-.299-.334-.533-.451-.233-.116-.525-.174-.876-.174" transform="translate(526.5665 456.9991)"/><path d="m0 0v-.724c-.483-.264-1.04-.395-1.672-.395-.514 0-.949.103-1.307.309s-.641.49-.849.853c-.209.362-.313.754-.313 1.175 0 .669.238 1.232.714 1.689.479.456 1.068.684 1.768.684.483 0 1.019-.126 1.61-.378v-.708c-.538.307-1.064.461-1.577.461-.527 0-.965-.167-1.313-.501-.347-.331-.521-.747-.521-1.247 0-.505.172-.92.514-1.245.342-.324.78-.487 1.313-.487.558 0 1.102.172 1.633.514" transform="translate(536.5208 456.0215)"/></g></g></svg>