<?xml version="1.0" encoding="UTF-8" standalone="no"?>
<!-- Created with Inkscape (http://www.inkscape.org/) -->

<svg
   xmlns:dc="http://purl.org/dc/elements/1.1/"
   xmlns:cc="http://creativecommons.org/ns#"
   xmlns:rdf="http://www.w3.org/1999/02/22-rdf-syntax-ns#"
   xmlns:svg="http://www.w3.org/2000/svg"
   xmlns="http://www.w3.org/2000/svg"
   xmlns:xlink="http://www.w3.org/1999/xlink"
   xmlns:sodipodi="http://sodipodi.sourceforge.net/DTD/sodipodi-0.dtd"
   xmlns:inkscape="http://www.inkscape.org/namespaces/inkscape"
   id="svg2985"
   version="1.1"
   inkscape:version="0.91 r13725"
   width="1000"
   height="297.19455"
   xml:space="preserve"
   sodipodi:docname="BBC One London.svg"
   hola_ext_inject="disabled"><metadata
     id="metadata2991"><rdf:RDF><cc:Work
         rdf:about=""><dc:format>image/svg+xml</dc:format><dc:type
           rdf:resource="http://purl.org/dc/dcmitype/StillImage" /><dc:title></dc:title></cc:Work></rdf:RDF></metadata><defs
     id="defs2989"><linearGradient
       inkscape:collect="always"
       id="linearGradient4322"><stop
         style="stop-color:#c80201;stop-opacity:1;"
         offset="0"
         id="stop4324" /><stop
         style="stop-color:#c80201;stop-opacity:0;"
         offset="1"
         id="stop4326" /></linearGradient><clipPath
       clipPathUnits="userSpaceOnUse"
       id="clipPath3003"><path
         d="m 0,0 841.89,0 0,595.276 L 0,595.276 0,0 z"
         id="path3005"
         inkscape:connector-curvature="0" /></clipPath><clipPath
       clipPathUnits="userSpaceOnUse"
       id="clipPath3023"><path
         d="m 0,0 841.89,0 0,595.276 L 0,595.276 0,0 z"
         id="path3025"
         inkscape:connector-curvature="0" /></clipPath><clipPath
       clipPathUnits="userSpaceOnUse"
       id="clipPath3051"><path
         d="m 0,0 841.89,0 0,595.276 L 0,595.276 0,0 z"
         id="path3053"
         inkscape:connector-curvature="0" /></clipPath><clipPath
       clipPathUnits="userSpaceOnUse"
       id="clipPath3075"><path
         d="m 0,0 841.89,0 0,595.276 L 0,595.276 0,0 z"
         id="path3077"
         inkscape:connector-curvature="0" /></clipPath><clipPath
       clipPathUnits="userSpaceOnUse"
       id="clipPath3195"><path
         d="m 0,0 841.89,0 0,595.276 L 0,595.276 0,0 z"
         id="path3197"
         inkscape:connector-curvature="0" /></clipPath><clipPath
       clipPathUnits="userSpaceOnUse"
       id="clipPath3209"><path
         d="m 49.094,354.329 287.15,0 0,-161.734 -287.15,0 0,161.734 z"
         id="path3211"
         inkscape:connector-curvature="0" /></clipPath><clipPath
       clipPathUnits="userSpaceOnUse"
       id="clipPath3233"><path
         d="m 0,0 841.89,0 0,595.276 L 0,595.276 0,0 z"
         id="path3235"
         inkscape:connector-curvature="0" /></clipPath><clipPath
       clipPathUnits="userSpaceOnUse"
       id="clipPath3257"><path
         d="m 0,0 841.89,0 0,595.276 L 0,595.276 0,0 z"
         id="path3259"
         inkscape:connector-curvature="0" /></clipPath><clipPath
       clipPathUnits="userSpaceOnUse"
       id="clipPath3297"><path
         d="m 0,0 841.89,0 0,595.276 L 0,595.276 0,0 z"
         id="path3299"
         inkscape:connector-curvature="0" /></clipPath><clipPath
       clipPathUnits="userSpaceOnUse"
       id="clipPath3313"><path
         d="m 0,0 841.89,0 0,595.276 L 0,595.276 0,0 z"
         id="path3315"
         inkscape:connector-curvature="0" /></clipPath><clipPath
       clipPathUnits="userSpaceOnUse"
       id="clipPath3341"><path
         d="m 0,0 841.89,0 0,595.276 L 0,595.276 0,0 z"
         id="path3343"
         inkscape:connector-curvature="0" /></clipPath><clipPath
       clipPathUnits="userSpaceOnUse"
       id="clipPath3419"><path
         d="m 0,0 841.89,0 0,595.276 L 0,595.276 0,0 z"
         id="path3421"
         inkscape:connector-curvature="0" /></clipPath><clipPath
       clipPathUnits="userSpaceOnUse"
       id="clipPath3465"><path
         d="m 0,0 841.89,0 0,595.276 L 0,595.276 0,0 z"
         id="path3467"
         inkscape:connector-curvature="0" /></clipPath><clipPath
       clipPathUnits="userSpaceOnUse"
       id="clipPath3489"><path
         d="m 0,0 841.89,0 0,595.276 L 0,595.276 0,0 z"
         id="path3491"
         inkscape:connector-curvature="0" /></clipPath><clipPath
       clipPathUnits="userSpaceOnUse"
       id="clipPath3511"><path
         d="m 0,0 841.89,0 0,595.276 L 0,595.276 0,0 z"
         id="path3513"
         inkscape:connector-curvature="0" /></clipPath><clipPath
       clipPathUnits="userSpaceOnUse"
       id="clipPath3533"><path
         d="m 0,0 841.89,0 0,595.276 L 0,595.276 0,0 z"
         id="path3535"
         inkscape:connector-curvature="0" /></clipPath><clipPath
       clipPathUnits="userSpaceOnUse"
       id="clipPath3615"><path
         d="m 0,0 841.89,0 0,595.276 L 0,595.276 0,0 z"
         id="path3617"
         inkscape:connector-curvature="0" /></clipPath><clipPath
       clipPathUnits="userSpaceOnUse"
       id="clipPath3659"><path
         d="m 0,0 841.89,0 0,595.276 L 0,595.276 0,0 z"
         id="path3661"
         inkscape:connector-curvature="0" /></clipPath><clipPath
       clipPathUnits="userSpaceOnUse"
       id="clipPath3673"><path
         d="m 0,0 841.89,0 0,595.276 L 0,595.276 0,0 z"
         id="path3675"
         inkscape:connector-curvature="0" /></clipPath><clipPath
       clipPathUnits="userSpaceOnUse"
       id="clipPath3707"><path
         d="m 0,0 841.89,0 0,595.276 L 0,595.276 0,0 z"
         id="path3709"
         inkscape:connector-curvature="0" /></clipPath><clipPath
       clipPathUnits="userSpaceOnUse"
       id="clipPath3735"><path
         d="m 0,0 841.89,0 0,595.276 L 0,595.276 0,0 z"
         id="path3737"
         inkscape:connector-curvature="0" /></clipPath><clipPath
       clipPathUnits="userSpaceOnUse"
       id="clipPath3757"><path
         d="m 0,0 841.89,0 0,595.276 L 0,595.276 0,0 z"
         id="path3759"
         inkscape:connector-curvature="0" /></clipPath><clipPath
       clipPathUnits="userSpaceOnUse"
       id="clipPath3779"><path
         d="m 0,0 841.89,0 0,595.276 L 0,595.276 0,0 z"
         id="path3781"
         inkscape:connector-curvature="0" /></clipPath><clipPath
       clipPathUnits="userSpaceOnUse"
       id="clipPath3881"><path
         d="m 0,0 841.89,0 0,595.276 L 0,595.276 0,0 z"
         id="path3883"
         inkscape:connector-curvature="0" /></clipPath><clipPath
       clipPathUnits="userSpaceOnUse"
       id="clipPath3925"><path
         d="m 0,0 841.89,0 0,595.276 L 0,595.276 0,0 z"
         id="path3927"
         inkscape:connector-curvature="0" /></clipPath><clipPath
       clipPathUnits="userSpaceOnUse"
       id="clipPath3939"><path
         d="m 0,0 841.89,0 0,595.276 L 0,595.276 0,0 z"
         id="path3941"
         inkscape:connector-curvature="0" /></clipPath><clipPath
       clipPathUnits="userSpaceOnUse"
       id="clipPath3973"><path
         d="m 0,0 841.89,0 0,595.276 L 0,595.276 0,0 z"
         id="path3975"
         inkscape:connector-curvature="0" /></clipPath><clipPath
       clipPathUnits="userSpaceOnUse"
       id="clipPath4005"><path
         d="m 0,0 841.89,0 0,595.276 L 0,595.276 0,0 z"
         id="path4007"
         inkscape:connector-curvature="0" /></clipPath><clipPath
       clipPathUnits="userSpaceOnUse"
       id="clipPath4029"><path
         d="m 0,0 841.89,0 0,595.276 L 0,595.276 0,0 z"
         id="path4031"
         inkscape:connector-curvature="0" /></clipPath><clipPath
       clipPathUnits="userSpaceOnUse"
       id="clipPath4069"><path
         d="m 0,0 841.89,0 0,595.276 L 0,595.276 0,0 z"
         id="path4071"
         inkscape:connector-curvature="0" /></clipPath><clipPath
       clipPathUnits="userSpaceOnUse"
       id="clipPath4089"><path
         d="m 0,0 841.89,0 0,595.276 L 0,595.276 0,0 z"
         id="path4091"
         inkscape:connector-curvature="0" /></clipPath><clipPath
       clipPathUnits="userSpaceOnUse"
       id="clipPath4111"><path
         d="m 0,0 841.89,0 0,595.276 L 0,595.276 0,0 z"
         id="path4113"
         inkscape:connector-curvature="0" /></clipPath><clipPath
       clipPathUnits="userSpaceOnUse"
       id="clipPath4133"><path
         d="m 0,0 841.89,0 0,595.276 L 0,595.276 0,0 z"
         id="path4135"
         inkscape:connector-curvature="0" /></clipPath><clipPath
       clipPathUnits="userSpaceOnUse"
       id="clipPath4251"><path
         d="m 0,0 841.89,0 0,595.276 L 0,595.276 0,0 z"
         id="path4253"
         inkscape:connector-curvature="0" /></clipPath><clipPath
       clipPathUnits="userSpaceOnUse"
       id="clipPath4297"><path
         d="m 0,0 841.89,0 0,595.276 L 0,595.276 0,0 z"
         id="path4299"
         inkscape:connector-curvature="0" /></clipPath><clipPath
       clipPathUnits="userSpaceOnUse"
       id="clipPath4337"><path
         d="m 0,0 841.89,0 0,595.276 L 0,595.276 0,0 z"
         id="path4339"
         inkscape:connector-curvature="0" /></clipPath><clipPath
       clipPathUnits="userSpaceOnUse"
       id="clipPath4379"><path
         d="m 0,0 841.89,0 0,595.276 L 0,595.276 0,0 z"
         id="path4381"
         inkscape:connector-curvature="0" /></clipPath><clipPath
       clipPathUnits="userSpaceOnUse"
       id="clipPath4423"><path
         d="m 0,0 841.89,0 0,595.276 L 0,595.276 0,0 z"
         id="path4425"
         inkscape:connector-curvature="0" /></clipPath><clipPath
       clipPathUnits="userSpaceOnUse"
       id="clipPath4437"><path
         d="m 0,0 841.89,0 0,595.276 L 0,595.276 0,0 z"
         id="path4439"
         inkscape:connector-curvature="0" /></clipPath><clipPath
       clipPathUnits="userSpaceOnUse"
       id="clipPath4471"><path
         d="m 0,0 841.89,0 0,595.276 L 0,595.276 0,0 z"
         id="path4473"
         inkscape:connector-curvature="0" /></clipPath><style
       id="style6"
       type="text/css">
   
    .fil0 {fill:#C90302}
   
  </style><inkscape:perspective
       id="perspective17"
       inkscape:persp3d-origin="526.18109 : 129.92126 : 1"
       inkscape:vp_z="1052.3622 : 194.8819 : 1"
       inkscape:vp_y="0 : 1000 : 0"
       inkscape:vp_x="0 : 194.8819 : 1"
       sodipodi:type="inkscape:persp3d" /><clipPath
       id="clipPath3855"
       clipPathUnits="userSpaceOnUse"><path
         id="path3857"
         d="m 28.346,484.3 47.237,0 0,34.44 -47.237,0 0,-34.44 z"
         inkscape:connector-curvature="0" /></clipPath><clipPath
       id="clipPath3793"
       clipPathUnits="userSpaceOnUse"><path
         id="path3795"
         d="m 90.708,484.3 47.382,0 0,34.44 -47.382,0 0,-34.44 z"
         inkscape:connector-curvature="0" /></clipPath><clipPath
       id="clipPath3779-4"
       clipPathUnits="userSpaceOnUse"><path
         id="path3781-8"
         d="m 90.708,484.3 47.382,0 0,34.44 -47.382,0 0,-34.44 z"
         inkscape:connector-curvature="0" /></clipPath><clipPath
       id="clipPath3739"
       clipPathUnits="userSpaceOnUse"><path
         id="path3741"
         d="m 277.795,444.472 46.804,0 0,34.347 -46.804,0 0,-34.347 z"
         inkscape:connector-curvature="0" /></clipPath><clipPath
       id="clipPath3675"
       clipPathUnits="userSpaceOnUse"><path
         id="path3677"
         d="m 215.433,444.472 46.949,0 0,34.347 -46.949,0 0,-34.347 z"
         inkscape:connector-curvature="0" /></clipPath><clipPath
       id="clipPath3621"
       clipPathUnits="userSpaceOnUse"><path
         id="path3623"
         d="m 153.071,444.472 47.112,0 0,34.393 -47.112,0 0,-34.393 z"
         inkscape:connector-curvature="0" /></clipPath><clipPath
       id="clipPath3575"
       clipPathUnits="userSpaceOnUse"><path
         id="path3577"
         d="m 90.708,444.472 47.402,0 0,34.393 -47.402,0 0,-34.393 z"
         inkscape:connector-curvature="0" /></clipPath><clipPath
       id="clipPath3561"
       clipPathUnits="userSpaceOnUse"><path
         id="path3563"
         d="m 90.708,444.472 47.402,0 0,34.393 -47.402,0 0,-34.393 z"
         inkscape:connector-curvature="0" /></clipPath><clipPath
       id="clipPath3549"
       clipPathUnits="userSpaceOnUse"><path
         id="path3551"
         d="m 28.346,444.472 47.245,0 0,34.393 -47.245,0 0,-34.393 z"
         inkscape:connector-curvature="0" /></clipPath><clipPath
       id="clipPath3499"
       clipPathUnits="userSpaceOnUse"><path
         id="path3501"
         d="m 277.795,484.3 46.804,0 0,34.309 -46.804,0 0,-34.309 z"
         inkscape:connector-curvature="0" /></clipPath><clipPath
       id="clipPath3479"
       clipPathUnits="userSpaceOnUse"><path
         id="path3481"
         d="m 277.795,491.772 46.804,0 0,20.354 -46.804,0 0,-20.354 z"
         inkscape:connector-curvature="0" /></clipPath><clipPath
       id="clipPath3419-0"
       clipPathUnits="userSpaceOnUse"><path
         id="path3421-9"
         d="m 277.795,484.3 46.804,0 0,34.309 -46.804,0 0,-34.309 z"
         inkscape:connector-curvature="0" /></clipPath><clipPath
       id="clipPath3403"
       clipPathUnits="userSpaceOnUse"><path
         id="path3405"
         d="m 277.795,491.772 46.804,0 0,20.354 -46.804,0 0,-20.354 z"
         inkscape:connector-curvature="0" /></clipPath><clipPath
       id="clipPath3379"
       clipPathUnits="userSpaceOnUse"><path
         id="path3381"
         d="m 277.795,484.3 46.804,0 0,34.309 -46.804,0 0,-34.309 z"
         inkscape:connector-curvature="0" /></clipPath><clipPath
       id="clipPath3337"
       clipPathUnits="userSpaceOnUse"><path
         id="path3339"
         d="m 340.158,484.348 46.688,0 0,34.393 -46.688,0 0,-34.393 z"
         inkscape:connector-curvature="0" /></clipPath><clipPath
       id="clipPath3289"
       clipPathUnits="userSpaceOnUse"><path
         id="path3291"
         d="m 215.449,484.3 46.803,0 0,34.393 -46.803,0 0,-34.393 z"
         inkscape:connector-curvature="0" /></clipPath><clipPath
       id="clipPath3271"
       clipPathUnits="userSpaceOnUse"><path
         id="path3273"
         d="m 153.087,484.348 47.287,0 0,34.393 -47.287,0 0,-34.393 z"
         inkscape:connector-curvature="0" /></clipPath><clipPath
       id="clipPath3115"
       clipPathUnits="userSpaceOnUse"><path
         id="path3117"
         d="m 28.346,20.092 362.835,0 0,158.49 -362.835,0 0,-158.49 z"
         inkscape:connector-curvature="0" /></clipPath><linearGradient
       inkscape:collect="always"
       xlink:href="#linearGradient4322"
       id="linearGradient4338"
       x1="420.56695"
       y1="-479.18358"
       x2="528.2667"
       y2="-479.18358"
       gradientUnits="userSpaceOnUse" /><sodipodi:namedview
       style="fill-opacity:1;fill:url(#linearGradient4338)"
       inkscape:window-height="974"
       inkscape:window-width="1280"
       inkscape:pageshadow="2"
       inkscape:pageopacity="0.0"
       guidetolerance="10.0"
       gridtolerance="10.0"
       objecttolerance="10.0"
       borderopacity="1.0"
       bordercolor="#666666"
       pagecolor="#ffffff"
       id="base"
       inkscape:zoom="0.25612053"
       inkscape:cx="1329.6704"
       inkscape:cy="-22.75906"
       inkscape:window-x="-8"
       inkscape:window-y="-8"
       inkscape:current-layer="svg2413" /></defs><sodipodi:namedview
     pagecolor="#ffffff"
     bordercolor="#666666"
     borderopacity="1"
     objecttolerance="10"
     gridtolerance="10"
     guidetolerance="10"
     inkscape:pageopacity="0"
     inkscape:pageshadow="2"
     inkscape:window-width="1920"
     inkscape:window-height="1017"
     id="namedview2987"
     showgrid="false"
     fit-margin-top="0.5"
     fit-margin-left="0.5"
     fit-margin-right="0.5"
     fit-margin-bottom="0.5"
     inkscape:zoom="0.22792508"
     inkscape:cx="-722.76149"
     inkscape:cy="69.884272"
     inkscape:window-x="-8"
     inkscape:window-y="-8"
     inkscape:window-maximized="1"
     inkscape:current-layer="g2993" /><g
     id="g2993"
     inkscape:groupmode="layer"
     inkscape:label="onscreen_guidelines"
     transform="matrix(1.25,0,0,-1.25,-525.20868,-328.66035)"><g
       transform="matrix(2.0655084,0,0,-2.0655084,810.16035,-222.4744)"
       style="font-size:40px;font-style:normal;font-weight:normal;line-height:125%;letter-spacing:0px;word-spacing:0px;fill:#ffffff;fill-opacity:1;stroke:none;font-family:Sans"
       id="flowRoot3127"><path
         d="m -22.598633,108.13947 0,21.40015 10.200195,0 0.759278,4.47998 -16.079102,0 0,-25.88013 z"
         style="font-variant:normal;font-weight:bold;font-stretch:normal;fill:#ffffff;font-family:BBCOne-Bold;-inkscape-font-specification:BBCOne-Bold Bold;fill-opacity:1"
         id="path3567" /><path
         d="m 3.857666,128.53986 c 0.9065594,-1.04003 1.3598467,-2.49348 1.3598633,-4.36035 -1.66e-5,-1.86685 -0.4533039,-3.3203 -1.3598633,-4.36035 -0.9065899,-0.98631 -2.1464161,-1.47947 -3.71948241,-1.47949 -1.57308939,2e-5 -2.81291569,0.49318 -3.71948239,1.47949 -0.9073963,1.04005 -1.3610905,2.4935 -1.361084,4.36035 -6.5e-6,1.86687 0.4536877,3.32032 1.361084,4.36035 0.9065667,0.98634 2.146393,1.4795 3.71948239,1.4795 1.57306631,0 2.81289251,-0.49316 3.71948241,-1.4795 z m -11.0595703,3.07984 c -1.8798851,-1.91976 -2.8198257,-4.39961 -2.8198247,-7.43958 -10e-7,-3.03994 0.9399396,-5.52 2.8198247,-7.44018 1.8798767,-1.92015 4.3265702,-2.88023 7.34008789,-2.88025 3.01349451,2e-5 5.46018811,0.9601 7.34008791,2.88025 1.879862,1.92018 2.8198025,4.40024 2.8198245,7.44018 -2.2e-5,3.03997 -0.9399625,5.51982 -2.8198245,7.43958 -1.8798998,1.91976 -4.3265934,2.87964 -7.34008791,2.87964 -3.01351769,0 -5.46021119,-0.95988 -7.34008789,-2.87964 z"
         style="font-variant:normal;font-weight:bold;font-stretch:normal;fill:#ffffff;font-family:BBCOne-Bold;-inkscape-font-specification:BBCOne-Bold Bold;fill-opacity:1"
         id="path3569" /><path
         d="m 33.77206,134.0196 -4.87915,0 c -0.266945,-1.41357 -0.400408,-3.24015 -0.400391,-5.47974 l 0,-4.16015 c -1.7e-5,-2.53336 -0.373145,-4.17357 -1.119385,-4.92066 -0.800796,-0.77309 -1.86769,-1.15965 -3.200683,-1.15966 -1.546235,1e-5 -2.839366,0.53346 -3.879395,1.60034 -0.507007,0.55991 -0.840462,1.26649 -1.000366,2.11975 -0.15992,0.85328 -0.239876,2.00013 -0.239868,3.44055 l 0,8.55957 -4.880371,0 0,-14.16015 c -3e-6,-2.26643 -0.133466,-4.10643 -0.400391,-5.52002 l 4.760742,0 c 0.266106,0.9603 0.439446,1.93361 0.52002,2.91992 l 0.04028,0 c 0.479321,-0.95946 1.305736,-1.76593 2.479248,-2.41944 1.173491,-0.65346 2.493477,-0.9802 3.959961,-0.98022 2.426741,2e-5 4.32005,0.70681 5.679932,2.12036 0.773905,0.77313 1.327493,1.72629 1.660766,2.8595 0.33323,1.13323 0.499856,2.7 0.499878,4.70031 l 0,5 c -2.2e-5,2.23959 0.133035,4.06617 0.39917,5.47974 z"
         style="font-variant:normal;font-weight:bold;font-stretch:normal;fill:#ffffff;font-family:BBCOne-Bold;-inkscape-font-specification:BBCOne-Bold Bold;fill-opacity:1"
         id="path3571"
         inkscape:connector-curvature="0" /><path
         d="m 55.96026,134.0196 -4.880371,0 c -0.160336,-0.93343 -0.253516,-1.77327 -0.279541,-2.51953 -0.773942,0.95947 -1.707575,1.69922 -2.800904,2.21924 -1.093355,0.52002 -2.173066,0.78003 -3.239135,0.78003 -2.347014,0 -4.320482,-0.71981 -5.920411,-2.15943 -2.053225,-1.89371 -3.079835,-4.61384 -3.079834,-8.1604 -10e-7,-3.84031 1.226804,-6.68048 3.68042,-8.5205 1.573073,-1.19953 3.359367,-1.7993 5.358887,-1.79932 1.227202,2e-5 2.354113,0.26003 3.380737,0.78003 1.026597,0.52004 1.859726,1.23333 2.49939,2.13989 l 0,-8.64014 4.880371,0 0,20.40039 c -2.1e-5,2.23959 0.133442,4.06617 0.400391,5.47974 z m -10.040283,-4.00024 c 1.573066,0 2.812892,-0.47973 3.719482,-1.43921 0.906559,-1.04003 1.359847,-2.49348 1.359863,-4.36035 -1.6e-5,-1.91975 -0.453304,-3.39965 -1.359863,-4.4397 -0.933445,-0.98713 -2.173272,-1.4807 -3.719482,-1.48071 -1.57309,1e-5 -2.812916,0.49358 -3.719483,1.48071 -0.907396,1.04005 -1.36109,2.50672 -1.361084,4.40002 -6e-6,1.89332 0.453688,3.36 1.361084,4.40003 0.879712,0.95948 2.119538,1.43921 3.719483,1.43921 z"
         style="font-variant:normal;font-weight:bold;font-stretch:normal;fill:#ffffff;font-family:BBCOne-Bold;-inkscape-font-specification:BBCOne-Bold Bold;fill-opacity:1"
         id="path3573"
         inkscape:connector-curvature="0" /><path
         d="m 72.578495,128.53986 c 0.906559,-1.04003 1.359847,-2.49348 1.359863,-4.36035 -1.6e-5,-1.86685 -0.453304,-3.3203 -1.359863,-4.36035 -0.90659,-0.98631 -2.146416,-1.47947 -3.719482,-1.47949 -1.57309,2e-5 -2.812916,0.49318 -3.719483,1.47949 -0.907396,1.04005 -1.36109,2.4935 -1.361084,4.36035 -6e-6,1.86687 0.453688,3.32032 1.361084,4.36035 0.906567,0.98634 2.146393,1.4795 3.719483,1.4795 1.573066,0 2.812892,-0.49316 3.719482,-1.4795 z m -11.05957,3.07984 c -1.879885,-1.91976 -2.819826,-4.39961 -2.819825,-7.43958 -1e-6,-3.03994 0.93994,-5.52 2.819825,-7.44018 1.879876,-1.92015 4.32657,-2.88023 7.340088,-2.88025 3.013494,2e-5 5.460188,0.9601 7.340087,2.88025 1.879863,1.92018 2.819803,4.40024 2.819825,7.44018 -2.2e-5,3.03997 -0.939962,5.51982 -2.819825,7.43958 -1.879899,1.91976 -4.326593,2.87964 -7.340087,2.87964 -3.013518,0 -5.460212,-0.95988 -7.340088,-2.87964 z"
         style="font-variant:normal;font-weight:bold;font-stretch:normal;fill:#ffffff;font-family:BBCOne-Bold;-inkscape-font-specification:BBCOne-Bold Bold;fill-opacity:1"
         id="path3575"
         inkscape:connector-curvature="0" /><path
         d="m 101.8921,134.0196 -4.879151,0 c -0.26695,-1.41357 -0.40041,-3.24015 -0.40039,-5.47974 l 0,-4.16015 c -2e-5,-2.53336 -0.37315,-4.17357 -1.11939,-4.92066 -0.800796,-0.77309 -1.86769,-1.15965 -3.200683,-1.15966 -1.546235,1e-5 -2.839366,0.53346 -3.879395,1.60034 -0.507007,0.55991 -0.840462,1.26649 -1.000366,2.11975 -0.15992,0.85328 -0.239876,2.00013 -0.239868,3.44055 l 0,8.55957 -4.880371,0 0,-14.16015 c -3e-6,-2.26643 -0.133466,-4.10643 -0.400391,-5.52002 l 4.760742,0 c 0.266106,0.9603 0.439446,1.93361 0.52002,2.91992 l 0.04028,0 c 0.479321,-0.95946 1.305736,-1.76593 2.479248,-2.41944 1.173491,-0.65346 2.493477,-0.9802 3.959961,-0.98022 2.42674,2e-5 4.32005,0.70681 5.67993,2.12036 0.773914,0.77313 1.327504,1.72629 1.660774,2.8595 0.33323,1.13323 0.49985,2.7 0.49988,4.70031 l 0,5 c -3e-5,2.23959 0.13303,4.06617 0.39917,5.47974 z"
         style="font-variant:normal;font-weight:bold;font-stretch:normal;fill:#ffffff;font-family:BBCOne-Bold;-inkscape-font-specification:BBCOne-Bold Bold;fill-opacity:1"
         id="path3578"
         inkscape:connector-curvature="0" /></g><g
       id="g3203"
       transform="translate(349.3506,368.504)"
       style="fill-opacity:1;fill:#c80201" /><g
       id="g4491"
       transform="translate(349.3506,42.5196)"
       style="fill-opacity:1;fill:#c80201" /><g
       id="g3565"
       transform="translate(938.96857,-702.2758)"
       style="fill-opacity:1;fill:#c80201" /><g
       id="g3783"
       transform="translate(938.96027,-662.5387)"
       style="fill-opacity:1;fill:#c80201" /><path
       id="path4598"
       d="m 812.2199,-263.36016 c -1.41615,0.0179 -2.85458,0.005 -4.29438,-0.0383 -18.26277,-0.55584 -34.36151,-6.18601 -47.58322,-16.64071 -7.24485,-5.72835 -14.79882,-15.12408 -19.17133,-23.81078 -11.78467,-23.41497 -11.98213,-55.16605 -0.49845,-78.64083 3.93895,-8.0522 7.89937,-13.60103 14.11009,-19.82309 12.5714,-12.59504 28.2052,-19.61168 48.35008,-21.66365 3.09352,-0.31509 17.15646,0.0859 20.28326,0.57507 17.30287,2.71172 31.20348,9.29868 42.29194,20.01499 12.89751,12.46485 20.31872,27.81087 23.00559,47.58322 0.6899,5.07907 0.76962,17.88309 0.15337,22.92891 -2.42834,19.8834 -10.15507,36.20637 -22.96725,48.58013 -13.93062,13.45388 -32.43752,20.66553 -53.6797,20.93508 z m -0.65183,-28.87201 c 3.92855,-0.0352 7.84411,-0.42108 11.38777,-1.15028 18.44076,-3.79415 30.20759,-16.61779 33.6265,-36.65557 1.36209,-7.97943 1.36173,-19.34322 0,-27.41499 -3.71772,-22.03733 -17.67001,-35.32659 -39.3779,-37.57586 -3.4322,-0.35557 -9.61965,-0.33005 -13.11318,0.038 -11.13758,1.17518 -19.94587,5.12196 -26.83986,12.03959 -6.78909,6.81235 -10.73557,15.32847 -12.61473,27.29996 -0.79328,5.05543 -0.78772,18.41436 0,23.65742 0.67519,4.50106 2.0218,9.78718 3.29747,12.99815 4.73742,11.92576 13.358,20.20875 25.22946,24.19421 5.22168,1.75318 11.8569,2.62761 18.40447,2.56896 z"
       style="fill:#ffffff;fill-opacity:1"
       inkscape:connector-curvature="0" /><path
       id="path4594"
       d="m 1144.0372,-263.47519 c -8.5793,0.0242 -10.9102,-0.17144 -17.2159,-1.41867 -26.6927,-5.27962 -47.2708,-23.56709 -55.9036,-49.61539 -3.991,-12.0432 -5.546,-24.73315 -4.5244,-37.26905 2.2378,-27.45953 14.5356,-48.77694 35.3519,-61.3483 9.8161,-5.92771 19.8701,-9.11463 34.3934,-10.8509 0.5968,-0.0712 5.1406,-0.0871 10.0841,-0.038 7.0768,0.0699 10.0457,0.23361 14.0717,0.76685 18.0941,2.39406 33.8088,7.84092 46.4713,16.06563 3.3698,2.18866 6.8634,4.77314 6.8634,5.09951 0,0.14 -2.6113,5.05792 -5.7898,10.92772 l -5.7897,10.65925 -1.6871,-1.11187 c -23.313,-14.91302 -57.6008,-18.9328 -78.1423,-9.20224 -12.8037,6.06514 -20.2506,16.57617 -23.0823,32.59119 l -0.1917,0.99691 59.8145,0 59.8146,0 0.1533,0.69017 c 0.9223,3.95038 1.333,14.8019 0.8052,21.16514 -0.7497,9.02797 -1.9705,15.20608 -4.5244,22.96725 -7.9562,24.17985 -25.6364,40.58348 -50.2289,46.62465 -7.2688,1.78573 -11.5019,2.27471 -20.7433,2.30056 z m -2.5307,-28.52692 c 4.5402,0.0845 9.6992,-0.17984 12.7682,-0.72851 8.9526,-1.60032 15.7114,-4.78641 21.4335,-10.08412 6.8138,-6.30821 11.1695,-15.8955 11.7712,-25.95797 l 0.1917,-3.33581 -44.4008,0 -44.4008,0 0.1917,1.84044 c 0.7088,6.78021 3.4588,14.39307 7.3618,20.32161 2.2592,3.43147 7.4816,8.60344 11.0427,10.92765 4.8826,3.1855 10.6271,5.35049 17.1008,6.47991 1.686,0.29431 4.2159,0.48605 6.94,0.5368 z"
       style="fill:#ffffff;fill-opacity:1"
       inkscape:connector-curvature="0" /><path
       id="path4590"
       d="m 934.68314,-382.05593 c 0,23.41311 0.12304,39.61464 0.31969,42.07181 1.25756,15.69295 5.25785,25.81304 13.47141,34.07871 8.73067,8.78606 20.47285,12.9573 35.02126,12.44134 11.66055,-0.41365 19.7911,-3.62056 26.1931,-10.33024 5.0259,-5.26779 8.0138,-11.42383 9.7578,-20.10426 1.2738,-6.34292 1.4001,-9.25179 1.5674,-36.26294 0.2187,-35.19151 0.804,-46.61609 2.9813,-58.18766 l 0.3359,-1.78239 15.0913,0 15.0909,0 -0.565,3.48687 c -0.5873,3.61946 -1.2314,9.46932 -1.8334,16.65838 -0.2097,2.5063 -0.4473,17.85097 -0.5921,38.27544 -0.2381,33.69978 -0.3208,36.28326 -1.4094,44.0086 -1.6217,11.51616 -5.4901,22.00485 -10.9082,29.57876 -4.4534,6.22584 -11.8323,12.94105 -18.1904,16.55645 -15.9441,9.06601 -37.53562,10.79153 -55.95943,4.47151 -6.67976,-2.29097 -12.7915,-5.66482 -18.16012,-10.02443 -3.36757,-2.73454 -8.36685,-7.86014 -10.49018,-10.75534 -0.84202,-1.149 -1.61358,-2.08895 -1.71443,-2.08895 -0.10031,0 -0.34965,1.5693 -0.55362,3.48687 -0.58058,5.46206 -1.83261,12.26296 -3.19546,17.35532 l -0.31176,1.16229 -14.81953,0 -14.81946,0 0.39074,-2.24702 c 1.32149,-7.60826 2.20567,-17.98799 2.6186,-30.75582 0.16562,-5.11563 0.30309,-34.02147 0.30598,-64.2351 l 0.004,-54.93383 15.18624,0 15.18621,0 0,38.07563 0,0 z"
       style="fill:#ffffff;fill-opacity:1"
       inkscape:connector-curvature="0" /><path
       style="fill:#c80201;fill-opacity:1"
       d="m 420.56703,-267.69494 0,-38.39714 0,-38.39643 40.86676,0 40.86676,0 0,38.39643 0,38.39714 -40.86676,0 -40.86676,0 z m 21.33155,-10.77804 10.77805,0 c 9.73854,0 11.08888,-0.12215 13.24801,-0.67543 6.98518,-1.78628 11.51814,-6.6443 11.90076,-12.79857 0.3255,-5.22735 -1.49549,-8.84733 -5.61356,-11.45203 l -1.34726,-0.89817 1.5718,-0.44549 c 3.99248,-1.40618 7.26728,-4.38954 8.9817,-7.85935 1.14413,-2.31513 1.34726,-2.30579 1.34726,-5.83811 0,-3.52658 -0.21484,-3.77232 -1.34726,-6.06229 -2.55094,-5.16197 -6.99775,-7.90462 -14.14618,-8.98171 -2.16057,-0.32334 -5.9507,-0.44549 -14.14619,-0.45268 l -11.22713,0 0,27.61911 0,27.84328 z m 9.87988,-8.75752 0,-6.96046 0,-7.18537 3.59268,0 c 1.91756,0.003 4.25661,0.20838 5.38902,0.44549 4.98672,1.05697 7.05833,3.40227 6.73628,7.85935 -0.1782,2.45309 -0.97117,3.92034 -3.14359,4.93922 -1.62246,0.76022 -2.1776,0.80189 -7.18537,0.89817 l -5.38902,0 z m 0,-22.90263 0,-7.63517 0,-7.40955 5.38902,0 c 2.94061,0.004 6.23546,0.0719 7.40991,0.22275 5.16951,0.74728 8.08353,3.35988 8.08353,7.41027 0,2.5623 -1.00703,4.10068 -3.14359,5.38902 -2.57387,1.55204 -4.89266,2.02124 -11.67622,2.02124 l -6.06265,0 z"
       id="path4588"
       inkscape:connector-curvature="0" /><path
       style="fill:#c80201;fill-opacity:1"
       d="m 514.65039,-267.69494 0,-38.39714 0,-38.39643 41.0913,0 41.0913,0 0,38.39643 0,38.39714 -41.0913,0 -41.0913,0 z m 21.78064,-10.77804 10.5535,0 c 11.96859,-0.006 13.51337,-0.15808 17.28978,-2.02053 5.69915,-2.81594 8.77901,-8.44064 7.85899,-14.37072 -0.19256,-1.24235 -0.57554,-2.86481 -0.89817,-3.59269 -0.71135,-1.6088 -3.00283,-4.13948 -4.49085,-4.94065 -1.12681,-0.60357 -1.42378,-1.12236 -0.67327,-1.12236 1.03786,0 5.37013,-2.51344 6.96082,-4.04176 3.50387,-3.36706 5.01869,-8.73597 3.81723,-13.24766 -1.49614,-5.62111 -5.82927,-9.47965 -12.57439,-11.22785 -2.35342,-0.61075 -3.6327,-0.77386 -15.2689,-0.89817 l -12.57438,0 0,27.6191 0,27.84329 z m 9.87987,-8.75752 0,-7.18537 0,-7.18536 4.49085,0.22275 c 2.6241,0.10059 4.9454,0.39519 5.83811,0.67542 3.63975,1.14535 5.42632,3.32467 5.38903,6.96118 -0.0216,2.28279 -0.57914,3.50287 -2.02089,4.71504 -1.61067,1.35587 -3.70801,1.79634 -8.9817,1.79634 l -4.7154,0 z m 0,-22.90263 0,-7.63517 0,-7.63373 6.73628,0.22275 c 5.70769,0.12215 6.69374,0.079 8.53262,0.67542 5.24453,1.69862 7.14599,7.43542 3.81722,11.22641 -2.18384,2.48686 -5.10455,3.13641 -13.24801,3.14432 l -5.83811,0 z"
       id="path4580"
       inkscape:connector-curvature="0" /><path
       style="fill:#c80201;fill-opacity:1"
       d="m 609.18284,-267.69494 0,-38.39714 0,-38.39643 41.0913,0 40.86675,0 0,38.39643 0,38.39714 -40.86675,0 -41.0913,0 z m 42.66309,-10.10405 c 5.95588,0.33052 11.82374,-0.56765 19.08613,-3.14432 l 3.36814,-1.34654 0,-5.16484 c 0,-2.79438 0.0647,-4.93993 0,-4.93993 -0.0647,0 -1.87855,0.64668 -3.81723,1.57144 -6.89177,3.2794 -11.42659,4.50091 -17.73887,4.26666 -3.3044,-0.12215 -4.46376,-0.28022 -6.96082,-1.12235 -3.77497,-1.27612 -6.20355,-2.81307 -8.75716,-5.38902 -3.46176,-3.49209 -5.17296,-8.05192 -5.16448,-13.24838 0.0144,-5.51836 1.71378,-9.63198 5.38902,-13.24837 4.12397,-4.05614 9.48698,-6.03068 16.39162,-6.06229 6.11912,0 11.26004,1.3336 17.73886,4.71575 l 3.59268,1.79634 0,-5.16484 0,-5.16484 -2.02088,-1.12235 c -5.81296,-2.6787 -10.79687,-3.65232 -17.96341,-3.81686 -2.89814,-0.0719 -6.1128,-0.1509 -7.18536,0 -11.17231,1.57359 -20.20977,8.15754 -24.25061,17.7385 -2.42391,5.74829 -2.65398,12.47523 -0.67326,18.63668 3.16148,9.83748 12.03275,17.35553 22.90334,19.53557 2.05193,0.40956 4.07734,0.56764 6.06265,0.67542 z"
       id="path4572"
       inkscape:connector-curvature="0" /></g></svg>