<svg version="1.0" viewBox="0 0 306.3 225" xmlns="http://www.w3.org/2000/svg">
 <g transform="translate(-38.356 -798.6)">
  <g transform="matrix(11.109 0 0 11.109 -3974.5 -6412.1)">
   <path d="m361.21 649.06h27.571v20.253h-27.571v-20.253z"/>
   <g transform="matrix(1 0 0 -1 367.65 658.5)">
    <path d="m0 0h-3.105v-5.817h0.836v2.703h2.269v0.751h-2.269v1.612h2.269v0.751z" fill="#fff"/>
   </g>
   <g transform="matrix(1 0 0 -1 196.38 1108.1)" clip-path="url(#id217)">
    <g transform="translate(172.94 446.74)">
     <path d="m0 0c0 1.279 0.964 2.217 2.26 2.217 1.306 0 2.269-0.938 2.269-2.217 0-1.271-0.963-2.218-2.269-2.218-1.296 0-2.26 0.947-2.26 2.218m-0.861 0c0-1.578 1.202-2.985 3.104-2.985 1.971 0 3.148 1.415 3.148 2.985 0 1.62-1.211 2.985-3.131 2.985-1.885 0-3.121-1.373-3.121-2.985" fill="#fff"/>
    </g>
    <g transform="translate(184.07 449.65)">
     <path d="m0 0h-0.836v-3.387c0-0.545-0.068-0.972-0.367-1.27-0.264-0.265-0.724-0.47-1.364-0.47-0.503 0-0.922 0.163-1.254 0.495-0.265 0.265-0.35 0.538-0.35 1.195v3.437h-0.836v-3.617c0-1.586 1.194-2.277 2.423-2.277 1.731 0 2.584 0.938 2.584 2.363v3.531" fill="#fff"/>
    </g>
    <g transform="translate(186.07 448.93)">
     <path d="m0 0h0.537c0.811 0 1.135-0.333 1.144-0.879 8e-3 -0.486-0.248-0.947-1.144-0.947h-0.537v1.826m-0.836 0.717v-5.818h0.836v2.525h0.35c0.426 0 0.776-0.137 1.544-1.331l0.767-1.194h0.998c-0.401 0.554-0.546 0.751-0.793 1.151-0.444 0.726-0.768 1.263-1.296 1.613 0.622 0.247 0.972 0.751 0.972 1.424 0 1.007-0.734 1.63-1.911 1.63h-1.467" fill="#fff"/>
    </g>
    <path d="m180.87 454.51h3.442v-3.239h-3.442v3.239zm2.169-0.451c-0.016 3e-3 -0.031 6e-3 -0.047 8e-3l-0.018 3e-3c-0.027 3e-3 -0.054 6e-3 -0.081 9e-3 -0.018 2e-3 -0.036 3e-3 -0.054 4e-3 -0.033 2e-3 -0.065 3e-3 -0.096 3e-3 -0.014 0-0.022 0-0.036-1e-3 -0.026 0-0.051-1e-3 -0.077-3e-3l-0.042-3e-3c-0.02-2e-3 -0.04-5e-3 -0.06-7e-3l-0.017-2e-3 -0.018-3e-3 -0.023-3e-3 -0.03-6e-3c-0.013-2e-3 -0.026-5e-3 -0.04-7e-3 -0.082-0.018-0.157-0.041-0.227-0.068-0.036-0.014-0.07-0.029-0.103-0.045-0.028-0.013-0.054-0.027-0.079-0.042-0.025-0.014-0.048-0.028-0.071-0.044-0.013-8e-3 -0.026-0.017-0.038-0.026-0.011-8e-3 -0.022-0.015-0.032-0.024-0.022-0.016-0.043-0.034-0.063-0.051-0.018-0.017-0.036-0.033-0.053-0.05-0.014-0.014-0.028-0.028-0.042-0.044-0.014-0.015-0.028-0.031-0.041-0.047-0.014-0.018-0.028-0.036-0.041-0.055-0.01-0.013-0.02-0.027-0.03-0.042-6e-3 -9e-3 -0.012-0.019-0.018-0.029-0.036-0.059-0.068-0.122-0.093-0.189-0.032-0.083-0.056-0.173-0.069-0.269-4e-3 -0.03-7e-3 -0.061-9e-3 -0.092-1e-3 -0.024-2e-3 -0.048-2e-3 -0.073 0-0.018 0-0.037 1e-3 -0.054 2e-3 -0.019 3e-3 -0.038 5e-3 -0.056l2e-3 -0.013c2e-3 -0.022 6e-3 -0.044 0.01-0.065 1e-3 -8e-3 3e-3 -0.016 5e-3 -0.025 4e-3 -0.017 8e-3 -0.035 0.012-0.052 6e-3 -0.022 0.013-0.044 0.02-0.066 9e-3 -0.026 0.018-0.052 0.029-0.077 0.017-0.039 0.034-0.077 0.054-0.113 0.012-0.021 0.023-0.042 0.036-0.061 0.01-0.016 0.02-0.031 0.03-0.046 0.014-0.019 0.027-0.038 0.041-0.056 0.015-0.019 0.03-0.036 0.044-0.053 0.019-0.021 0.037-0.04 0.055-0.058l0.01-0.01c0.015-0.014 0.03-0.029 0.049-0.045 0.013-0.011 0.025-0.022 0.04-0.033 0.013-0.01 0.027-0.021 0.041-0.032 0.017-0.012 0.036-0.025 0.055-0.037 0.021-0.014 0.042-0.027 0.066-0.04 0.045-0.025 0.095-0.049 0.15-0.071 0.021-9e-3 0.042-0.017 0.064-0.024 0.022-8e-3 0.045-0.015 0.068-0.021 0.04-0.012 0.081-0.022 0.125-0.03 0.035-7e-3 0.072-0.013 0.109-0.017 0.038-5e-3 0.077-8e-3 0.118-0.011 0.019 0 0.039-1e-3 0.059-1e-3 9e-3 -1e-3 0.019-1e-3 0.028-1e-3 0.073 0 0.14 3e-3 0.202 8e-3l0.012 1e-3c0.025 2e-3 0.048 5e-3 0.072 8e-3 0.035 4e-3 0.069 9e-3 0.101 0.015 0.021 4e-3 0.04 8e-3 0.059 0.012 0.03 6e-3 0.058 0.013 0.085 0.02 0.02 5e-3 0.039 0.011 0.058 0.017 0.021 6e-3 0.043 0.014 0.063 0.02l0.019 7e-3c0.011 3e-3 0.024 8e-3 0.039 0.014 0.021 9e-3 0.046 0.019 0.075 0.031 0.017 7e-3 0.035 0.015 0.053 0.024 0.017 8e-3 0.035 0.016 0.053 0.024 7e-3 4e-3 0.015 8e-3 0.023 0.012v0.442c-6e-3 -4e-3 -0.011-7e-3 -0.016-0.01l-0.03-0.018c-0.03-0.019-0.06-0.036-0.089-0.052-0.032-0.017-0.063-0.034-0.094-0.048-0.055-0.026-0.107-0.048-0.158-0.066-0.096-0.034-0.185-0.056-0.263-0.07-9e-3 -2e-3 -0.018-3e-3 -0.027-4e-3 -0.022-4e-3 -0.042-6e-3 -0.062-9e-3 -0.031-3e-3 -0.06-5e-3 -0.085-6e-3 -0.017-1e-3 -0.033-1e-3 -0.047-1e-3 -0.031 0-0.064 1e-3 -0.096 3e-3 -0.039 3e-3 -0.078 7e-3 -0.118 0.014-0.064 0.01-0.127 0.027-0.191 0.05-9e-3 3e-3 -0.018 7e-3 -0.027 0.01-6e-3 3e-3 -0.012 5e-3 -0.018 7e-3 -0.011 5e-3 -0.021 0.01-0.031 0.014-0.021 0.01-0.043 0.022-0.064 0.033-0.01 6e-3 -0.02 0.012-0.031 0.019-0.01 7e-3 -0.021 0.014-0.031 0.02-0.013 0.01-0.026 0.019-0.038 0.028-0.012 0.01-0.025 0.02-0.035 0.029l-0.014 0.013-8e-3 7e-3 -9e-3 9e-3c-0.02 0.02-0.039 0.04-0.055 0.06-9e-3 0.011-0.018 0.022-0.026 0.034-9e-3 0.01-0.016 0.021-0.023 0.032-7e-3 0.01-0.013 0.021-0.019 0.031-0.01 0.016-0.018 0.031-0.025 0.047-7e-3 0.013-0.013 0.027-0.019 0.039-9e-3 0.023-0.017 0.045-0.024 0.066-5e-3 0.017-0.01 0.033-0.014 0.049-0.012 0.046-0.018 0.089-0.021 0.124-1e-3 0.014-2e-3 0.027-2e-3 0.039-1e-3 0.017-2e-3 0.033-2e-3 0.045 0 8e-3 0 0.018 1e-3 0.028 1e-3 0.026 3e-3 0.057 9e-3 0.094 3e-3 0.022 7e-3 0.046 0.013 0.07 4e-3 0.017 8e-3 0.034 0.014 0.051 5e-3 0.016 0.01 0.032 0.016 0.048 4e-3 0.011 9e-3 0.022 0.014 0.033 6e-3 0.015 0.014 0.03 0.021 0.045 6e-3 0.011 0.013 0.023 0.019 0.034 0.015 0.025 0.031 0.05 0.05 0.075 7e-3 9e-3 0.013 0.018 0.021 0.027 9e-3 0.011 0.019 0.023 0.029 0.034 6e-3 5e-3 0.011 0.011 0.016 0.016 0.081 0.081 0.172 0.142 0.266 0.185l0.045 0.018c0.015 6e-3 0.03 0.011 0.045 0.017 0.016 5e-3 0.033 0.01 0.049 0.015 0.015 4e-3 0.032 8e-3 0.047 0.012 0.015 3e-3 0.031 6e-3 0.047 9e-3 0.017 3e-3 0.034 6e-3 0.051 8e-3 0.017 3e-3 0.033 4e-3 0.05 6e-3 0.033 3e-3 0.064 4e-3 0.095 4e-3 0.01 0 0.021 0 0.031-1e-3 0.023 0 0.045-1e-3 0.067-2e-3 0.015-1e-3 0.03-2e-3 0.044-4e-3 0.028-2e-3 0.055-6e-3 0.08-9e-3 0.023-4e-3 0.045-8e-3 0.066-0.012 0.031-6e-3 0.061-0.013 0.086-0.02 0.018-4e-3 0.033-9e-3 0.047-0.013 0.021-6e-3 0.04-0.012 0.054-0.017 0.024-9e-3 0.038-0.014 0.038-0.014 0.022-7e-3 0.043-0.016 0.064-0.024 0.028-0.011 0.055-0.024 0.08-0.035 0.022-0.01 0.042-0.02 0.061-0.029 0.016-8e-3 0.03-0.016 0.044-0.023 0.025-0.012 0.045-0.024 0.062-0.033l0.045-0.025v0.434s-0.027 0.012-0.074 0.03c-0.02 7e-3 -0.045 0.017-0.073 0.026-0.015 6e-3 -0.031 0.011-0.049 0.017-0.013 5e-3 -0.028 0.01-0.042 0.015-0.017 5e-3 -0.034 0.011-0.052 0.016-0.012 4e-3 -0.025 8e-3 -0.039 0.012l-0.011 3e-3c-0.013 4e-3 -0.027 7e-3 -0.04 0.011-0.016 4e-3 -0.031 8e-3 -0.047 0.012-0.011 3e-3 -0.021 5e-3 -0.032 8e-3 -0.017 3e-3 -0.035 7e-3 -0.052 0.011-0.018 4e-3 -0.036 7e-3 -0.054 0.01" fill="#fff"/>
    <g transform="translate(178.22 452.72)">
     <path d="m0 0v-0.637h0.413s8e-3 0 0.022 1e-3c0.014 0 0.034 1e-3 0.057 3e-3 0.045 4e-3 0.105 0.013 0.162 0.032 0.052 0.018 0.102 0.044 0.141 0.082 0.014 0.015 0.027 0.031 0.037 0.046 0.032 0.051 0.04 0.103 0.042 0.133 1e-3 0.012 1e-3 0.02 1e-3 0.02v0.016c0 0.012-2e-3 0.036-9e-3 0.061-7e-3 0.03-0.022 0.065-0.048 0.097-5e-3 6e-3 -0.01 0.012-0.016 0.018-0.011 0.012-0.023 0.023-0.037 0.032-0.022 0.017-0.048 0.032-0.076 0.044-0.038 0.015-0.079 0.028-0.125 0.036-0.023 5e-3 -0.048 8e-3 -0.073 0.011-0.016 1e-3 -0.031 2e-3 -0.048 3e-3 -0.014 1e-3 -0.029 2e-3 -0.043 2e-3h-0.4" fill="#fff"/>
    </g>
    <g transform="translate(178.22 453.69)">
     <path d="m0 0v-0.604h0.2s0.013 0 0.031 1e-3c0.014 0 0.03 1e-3 0.045 2e-3 0.041 3e-3 0.098 9e-3 0.155 0.024 0.011 4e-3 0.022 7e-3 0.033 0.011 0.045 0.016 0.088 0.039 0.121 0.072 0.027 0.026 0.044 0.055 0.056 0.083 0.014 0.035 0.019 0.068 0.021 0.091 1e-3 0.021 1e-3 0.034 1e-3 0.034s1e-3 0.01 0 0.026c-1e-3 0.026-6e-3 0.069-0.027 0.11-0.01 0.02-0.024 0.039-0.043 0.057-0.022 0.023-0.05 0.04-0.079 0.053-0.056 0.024-0.121 0.034-0.175 0.038-0.024 2e-3 -0.045 2e-3 -0.063 2e-3h-0.276" fill="#fff"/>
    </g>
    <path d="m176.9 454.51h3.442v-3.239h-3.442v3.239zm0.903-0.454v-2.333h0.878s0.428-0.012 0.665 0.225c0.192 0.192 0.178 0.415 0.178 0.415s0.014 0.232-0.164 0.411c-0.152 0.151-0.346 0.192-0.346 0.192s0.088 0.041 0.155 0.108c0.032 0.032 0.143 0.133 0.143 0.379 0 0.248-0.164 0.39-0.164 0.39s-0.181 0.213-0.588 0.213h-0.757" fill="#fff"/>
    <g transform="translate(174.26 452.72)">
     <path d="m0 0v-0.637h0.413s9e-3 0 0.022 1e-3c0.014 0 0.034 1e-3 0.058 3e-3 0.045 4e-3 0.103 0.013 0.161 0.032 0.052 0.018 0.103 0.044 0.141 0.082 0.015 0.015 0.027 0.031 0.037 0.046 0.032 0.051 0.041 0.103 0.042 0.133 1e-3 0.012 1e-3 0.02 1e-3 0.02s1e-3 6e-3 0 0.016c0 0.012-2e-3 0.036-8e-3 0.061-8e-3 0.03-0.023 0.065-0.048 0.097-6e-3 6e-3 -0.011 0.012-0.016 0.018-0.012 0.012-0.024 0.023-0.037 0.032-0.023 0.017-0.049 0.032-0.077 0.044-0.037 0.015-0.079 0.028-0.125 0.036-0.023 5e-3 -0.047 8e-3 -0.073 0.011-0.016 1e-3 -0.031 2e-3 -0.048 3e-3 -0.014 1e-3 -0.029 2e-3 -0.043 2e-3h-0.4" fill="#fff"/>
    </g>
    <g transform="translate(174.26 453.69)">
     <path d="m0 0v-0.604h0.2s0.013 0 0.031 1e-3c0.014 0 0.03 1e-3 0.045 2e-3 0.041 3e-3 0.098 9e-3 0.155 0.024 0.012 4e-3 0.022 7e-3 0.034 0.011 0.044 0.016 0.087 0.039 0.12 0.072 0.027 0.026 0.044 0.055 0.056 0.083 0.014 0.035 0.019 0.068 0.021 0.091 2e-3 0.021 2e-3 0.034 2e-3 0.034s0 0.01-1e-3 0.026c-1e-3 0.026-7e-3 0.069-0.027 0.11-0.01 0.02-0.024 0.039-0.043 0.057-0.022 0.023-0.049 0.04-0.079 0.053-0.056 0.024-0.121 0.034-0.175 0.038-0.023 2e-3 -0.045 2e-3 -0.063 2e-3h-0.276" fill="#fff"/>
    </g>
    <path d="m172.93 454.51h3.442v-3.239h-3.442v3.239zm0.903-0.454v-2.333h0.879s0.428-0.012 0.664 0.225c0.193 0.192 0.179 0.415 0.179 0.415s0.014 0.232-0.164 0.411c-0.152 0.151-0.346 0.192-0.346 0.192s0.087 0.041 0.155 0.108c0.031 0.032 0.143 0.133 0.143 0.379 0 0.248-0.164 0.39-0.164 0.39s-0.181 0.213-0.588 0.213h-0.758" fill="#fff"/>
   </g>
  </g>
 </g>
</svg>
