<svg fill-rule="evenodd" height="204.237mm" viewBox="0 0 280.456 204.237" width="280.45599mm" xmlns="http://www.w3.org/2000/svg"><path d="m0 204.237v-204.237h280.456v204.237" fill="#005e70"/><g fill="#fff"><path d="m187.468 46.3299c-.1655-.0315-.3231-.063-.5004-.0827l-.197-.0315c-.2797-.0434-.5752-.0749-.855-.0946-.2088-.0197-.3979-.0315-.5949-.0512-.3428-.0197-.6974-.0197-1.0323-.0197-.1576 0-.2521 0-.3979 0-.2601 0-.5438.0197-.8117.0433-.1576 0-.3034.0118-.457.0315-.2207.0118-.4374.0434-.6462.0749l-.1655.0158-.197.0315-.2521.0315c-.1025.0197-.2088.0433-.3034.0512-.1576.0315-.2916.0631-.4492.0946-.855.1891-1.6666.4255-2.4192.7289-.3861.1458-.7604.3034-1.115.4807-.2797.1457-.5634.2915-.8353.4491-.26.1576-.5122.3034-.7722.4689-.1261.0945-.2601.1891-.398.2797-.1142.0828-.2285.1655-.3427.2522-.2286.1773-.4571.3664-.658.5516-.2088.1773-.4058.3546-.5753.5319-.1576.1576-.3033.3113-.457.4807-.1576.1655-.2916.3231-.4374.5004-.1654.1891-.3033.3861-.4491.5831-.1143.1458-.2088.3034-.3034.457-.0827.1025-.1458.2089-.2088.3113-.3861.6343-.7289 1.3041-1.0008 2.0212-.3428.8984-.6028 1.8676-.7407 2.8881-.0434.3231-.0749.658-.0946.9889-.0197.2601-.0197.5201-.0197.7801v.5832c.0197.2088.0434.4058.0631.6028l.0118.134c.0433.2403.0748.4688.1142.6973.0197.0828.0316.1773.0513.2601.0433.1891.0945.3861.1339.5634.0828.2403.1458.4807.2207.7092.1024.2798.197.5516.3112.8235.1773.4255.3665.8353.5832 1.2214.1339.2206.2521.4373.3861.658.1024.1655.2206.3349.3112.4885.1576.197.3034.4059.4492.595.1576.197.3231.3979.4689.5752.2088.2285.3861.4374.5949.6265l.1025.1024c.1654.1458.3349.3113.5319.4807.1457.1143.2718.2404.4255.3546.1458.1143.2797.2285.4491.3428.1892.1261.3862.2719.595.4058.2206.134.4492.2798.6895.4177.4886.2718 1.0323.5319 1.6154.7722.2206.0946.4571.1773.6895.2522.2285.0827.4807.1576.721.2206.4256.1261.8747.2285 1.3436.3231.3861.0749.7722.134 1.1781.1891.3979.0434.8116.0828 1.2529.1025.2206.0118.4176.0197.6462.0197h.3033c.7723 0 1.4894-.0197 2.1592-.0828l.126-.0118c.2601-.0197.532-.0512.7723-.0827.3861-.0434.7407-.1025 1.0835-.1655.2206-.0315.4255-.0749.6462-.1261.3112-.063.6146-.134.8983-.2088.2206-.0631.4255-.1261.6265-.1773.2285-.0749.4688-.1576.6776-.2286l.2207-.0748c.1024-.0315.2521-.0828.4176-.1576.2207-.0828.4886-.1891.792-.3231.1891-.0749.3861-.1576.5831-.2522.1773-.0827.3743-.1773.5634-.2718.0828-.0434.1655-.0749.2404-.1143l-.004-4.7241c-.0512.0315-.1261.0749-.1655.1025l-.323.197c-.3349.1891-.6344.3743-.9575.5516-.3427.1773-.6777.3546-1.0204.5122-.5832.2797-1.1348.5122-1.6903.7092-1.0323.3664-1.97.6028-2.8132.7486-.1024.0197-.2088.0315-.2915.0512-.2286.0315-.4571.063-.658.0827-.3349.0316-.6462.0513-.9181.0749-.1891 0-.3664 0-.5122 0-.3427 0-.6776 0-1.0323-.0315-.4176-.0315-.8352-.0749-1.2608-.1458-.6973-.1103-1.3987-.2797-2.0645-.528-.1025-.0315-.2089-.0748-.3034-.1142-.0631-.0197-.1261-.0512-.1891-.0749-.1143-.0512-.2207-.1024-.3231-.1458-.2285-.1142-.4689-.2285-.6895-.3546-.1025-.0748-.2207-.1339-.3349-.2088-.1182-.0709-.2364-.1458-.3389-.2167-.1339-.0945-.26-.1891-.4058-.2915-.1261-.1143-.2522-.2207-.3664-.3113l-.1655-.1458-.0749-.0749-.0512-.0433-.0512-.0512c-.2206-.2088-.4058-.4255-.6028-.6344-.0946-.126-.1891-.2403-.2719-.3664-.0945-.1142-.1773-.2403-.2285-.3546-.0827-.1024-.1576-.2206-.2206-.3349-.0946-.1655-.1971-.3349-.2719-.5004-.0749-.1339-.134-.2797-.1891-.4176-.1025-.2404-.2089-.4807-.2601-.7092-.063-.1773-.1142-.3546-.1458-.5319-.1457-.4886-.2088-.9496-.2206-1.3357-.0315-.1458-.0315-.2797-.0433-.4058-.0119-.1891-.0119-.3546-.0119-.4886 0-.0827 0-.1891 0-.2915.0119-.2798.0316-.6147.0946-1.0126.0433-.2404.0827-.4886.1458-.7605.0512-.1773.1024-.3546.1576-.5437.0512-.1655.1142-.3349.1773-.5122.0433-.1142.1024-.2285.1655-.3546.063-.1576.1339-.3231.2206-.4807.063-.126.1261-.2403.2088-.3664.1576-.2719.3231-.5437.5319-.8038.0749-.1024.1458-.197.2207-.2915.1024-.1143.2088-.2404.3231-.3546.0433-.0631.1024-.134.1654-.1891.8747-.8668 1.844-1.5209 2.8447-1.9819.1655-.0748.3231-.1339.4886-.197.1655-.063.3113-.1261.4689-.1773.1891-.0512.3664-.1142.5319-.1655.1773-.0433.3428-.0827.5122-.126.1655-.0316.3231-.0631.5004-.0946.197-.0433.3664-.063.5437-.0827.1891-.0316.3743-.0513.5516-.0631.3428-.0315.6895-.0512 1.0205-.0512h.323c.2522.0118.4886.0197.7211.0315.1773.0118.323.0197.4806.0434.2916.0315.595.063.855.1024.2522.0433.4886.0827.7092.1261.3231.0748.658.1458.9181.2206.1891.0434.3546.0946.5122.134.2285.0748.4255.1339.5752.1891.2601.0827.4058.1458.4058.1458.2286.0748.4689.1655.6895.26.3034.1143.595.2522.8668.3743.2286.1025.4492.2089.658.3113.1655.0827.3231.1655.4689.2403.26.134.4807.2522.658.3546l.4885.2601-.008-4.6493s-.2798-.1142-.792-.3033c-.2206-.0828-.4885-.1892-.7722-.2916-.1655-.0512-.3428-.1143-.5319-.1773-.1576-.0512-.2916-.1024-.4689-.1576-.1655-.063-.3428-.1143-.5437-.1773-.134-.0433-.2719-.0827-.4177-.1261l-.1339-.0433c-.134-.0315-.2719-.0749-.4177-.1143-.1654-.0433-.3428-.0827-.5122-.1261-.1261-.0315-.2285-.0512-.3349-.0827-.197-.0433-.3743-.0827-.5634-.1261-.2128-.0236-.4098-.067-.5989-.0985m-23.2659-4.8383h36.9339v34.7549l-36.9339.004z"/><path d="m135.814 60.6637v6.8281h4.4326s.0945 0 .2403-.0118c.1458 0 .3546-.0118.6147-.0315.4806-.0434 1.115-.134 1.7296-.3428.5516-.1891 1.0954-.4689 1.513-.8865.1576-.1576.2916-.3231.3979-.4886.3428-.5437.4374-1.1032.4571-1.4184.0118-.134.0118-.2206.0118-.2206s0-.0631 0-.1655c-.0158-.134-.0236-.3861-.0985-.658-.0827-.3231-.2403-.6974-.5201-1.052-.0512-.063-.1024-.1261-.1655-.1891-.126-.1261-.26-.2404-.4058-.3428-.2403-.1773-.5122-.3349-.8116-.457-.398-.1773-.8432-.3034-1.3357-.398-.2522-.0512-.5201-.0827-.7919-.1142-.1655-.0119-.3349-.0197-.5122-.0316-.1458-.0078-.3152-.0197-.461-.0197z"/><path d="m135.814 50.2818v6.4734h2.1474s.1457 0 .3349-.0118c.1457 0 .323-.0118.4806-.0197.4492-.0315 1.052-.0946 1.6667-.26.1142-.0316.2403-.0749.3546-.1143.4807-.1655.9377-.4176 1.2923-.7722.2916-.2798.4807-.5832.6028-.8865.1458-.3744.197-.729.2207-.9811.0197-.2285.0197-.3664.0197-.3664s.0118-.1025-.0118-.2798c-.0119-.2797-.0749-.7407-.2916-1.178-.1025-.2089-.2522-.4177-.4492-.6147-.2403-.2403-.5437-.4176-.855-.5634-.6028-.2601-1.2923-.3664-1.8754-.4058-.2522-.0197-.4807-.0197-.6777-.0197z"/><path d="m131.331 46.3614v25.0389h9.4167s4.598.1261 7.1393-2.4073c2.0646-2.0764 1.9188-4.4602 1.9188-4.4602s.1576-2.4901-1.773-4.4088c-1.6154-1.6273-3.6997-2.0528-3.6997-2.0528s.9495-.4492 1.6666-1.1663c.3231-.3349 1.5445-1.4262 1.5445-4.0661 0-2.6477-1.773-4.1803-1.773-4.1803s-1.9503-2.2931-6.308-2.2931zm-9.6925-4.8698h36.9338v34.7549l-36.9338.004z"/><path d="m93.2503 60.6637v6.8281h4.4404s.0828 0 .2285-.0118c.1458 0 .3546-.0118.6147-.0315.4886-.0434 1.115-.134 1.7297-.3428.5634-.1891 1.1032-.4689 1.5129-.8865.1576-.1576.2916-.3231.4059-.4886.3427-.5437.4255-1.1032.4491-1.4184.0118-.134.0118-.2206.0118-.2206s0-.0631 0-.1655c0-.134-.0197-.3861-.0827-.658-.0946-.3231-.2522-.6974-.5201-1.052-.0512-.063-.1142-.1261-.1773-.1891-.1261-.1261-.2522-.2404-.3979-.3428-.2404-.1773-.5201-.3349-.8235-.457-.3979-.1773-.8432-.3034-1.3357-.398-.2521-.0512-.5122-.0827-.7801-.1142-.1773-.0119-.3428-.0197-.5201-.0316-.1458-.0078-.3152-.0197-.4688-.0197z"/><path d="m93.2503 50.2818v6.4734h2.1473s.1458 0 .3349-.0118c.1458 0 .3231-.0118.4807-.0197.4492-.0315 1.052-.0946 1.6666-.26.1143-.0316.2404-.0749.3546-.1261.4807-.1655.9378-.4177 1.3042-.7723.2797-.2797.4689-.5831.5949-.8865.1576-.3743.2089-.7289.2207-.981.0197-.2286.0197-.3665.0197-.3665s.0118-.1024 0-.2797c-.0197-.2797-.0749-.7407-.3034-1.1781-.1024-.2088-.2522-.4176-.4492-.6146-.2403-.2404-.5319-.4177-.8431-.5634-.6068-.2601-1.3042-.3507-1.8873-.394-.2522-.0197-.4807-.0197-.6777-.0197z"/><path d="m88.7705 46.3614v25.0389h9.4206s4.598.1261 7.1315-2.4192c2.0645-2.0645 1.9188-4.4522 1.9188-4.4522s.1457-2.4901-1.7612-4.4089c-1.6273-1.6272-3.7115-2.0646-3.7115-2.0646s.9377-.4373 1.6666-1.1583c.3349-.3349 1.5327-1.4263 1.5327-4.0661 0-2.6596-1.7612-4.1804-1.7612-4.1804s-1.9385-2.2931-6.308-2.2931zm-9.6846-4.8698h36.9338v34.7549l-36.9338.004z"/><path d="m62.4353 110.336v51.449h-10.9138v-51.449h-18.794v-9.87h48.5057v9.87z"/><path d="m140.381 100.466 13.51 44.179h.178l12.04-44.179h11.103l-17.86 61.326h-10.382l-14.219-46.689h-.166l-14.208 46.689h-10.051l-18.0962-61.326h11.9462l11.528 44.179h.17l13.77-44.179z"/><path d="m214.449 98.9017c19.1407-.3428 32.6392 12.4781 32.6392 32.1388 0 19.1486-13.4985 31.9615-32.6392 32.3161-18.9003 0-32.4106-12.8129-32.4106-31.9615-.0119-19.6725 13.5103-32.4934 32.4106-32.4934m.0828 54.5734c12.7302 0 21.1185-9.6965 21.1185-22.7892 0-12.2062-8.4041-21.9144-21.1185-21.9144-12.6436 0-21.0595 9.7043-21.0595 21.9144 0 13.1046 8.412 22.7892 21.0595 22.7892z"/></g></svg>