<?xml version="1.0" encoding="UTF-8" standalone="no"?>
<!-- Created with Inkscape (http://www.inkscape.org/) -->

<svg
   xmlns:dc="http://purl.org/dc/elements/1.1/"
   xmlns:cc="http://creativecommons.org/ns#"
   xmlns:rdf="http://www.w3.org/1999/02/22-rdf-syntax-ns#"
   xmlns:svg="http://www.w3.org/2000/svg"
   xmlns="http://www.w3.org/2000/svg"
   xmlns:sodipodi="http://sodipodi.sourceforge.net/DTD/sodipodi-0.dtd"
   xmlns:inkscape="http://www.inkscape.org/namespaces/inkscape"
   width="12.099925mm"
   height="9.0748558mm"
   viewBox="0 0 42.87375 32.155001"
   id="svg9680"
   version="1.1"
   inkscape:version="0.91 r13725"
   sodipodi:docname="BBC News - Original.svg">
  <defs
     id="defs9682">
    <clipPath
       clipPathUnits="userSpaceOnUse"
       id="clipPath1432">
      <path
         d="m 0,0 419.528,0 0,595.275 L 0,595.275 0,0 Z"
         id="path1434"
         inkscape:connector-curvature="0" />
    </clipPath>
  </defs>
  <sodipodi:namedview
     id="base"
     pagecolor="#ffffff"
     bordercolor="#666666"
     borderopacity="1.0"
     inkscape:pageopacity="0.0"
     inkscape:pageshadow="2"
     inkscape:zoom="0.35"
     inkscape:cx="-359.27741"
     inkscape:cy="-195.35107"
     inkscape:document-units="px"
     inkscape:current-layer="layer1"
     showgrid="false"
     fit-margin-top="0"
     fit-margin-left="0"
     fit-margin-right="0"
     fit-margin-bottom="0"
     inkscape:window-width="1920"
     inkscape:window-height="1017"
     inkscape:window-x="-8"
     inkscape:window-y="-8"
     inkscape:window-maximized="1" />
  <metadata
     id="metadata9685">
    <rdf:RDF>
      <cc:Work
         rdf:about="">
        <dc:format>image/svg+xml</dc:format>
        <dc:type
           rdf:resource="http://purl.org/dc/dcmitype/StillImage" />
        <dc:title></dc:title>
      </cc:Work>
    </rdf:RDF>
  </metadata>
  <g
     inkscape:label="Layer 1"
     inkscape:groupmode="layer"
     id="layer1"
     transform="translate(-307.13455,-304.85613)">
    <path
       d="m 307.13455,304.85613 42.87375,0 0,32.155 -42.87375,0 0,-32.155 z"
       style="fill:#8d191c;fill-opacity:1;fill-rule:nonzero;stroke:none"
       id="path1414"
       inkscape:connector-curvature="0" />
    <g
       id="g1416"
       transform="matrix(1.25,0,0,-1.25,319.06567,320.63251)">
      <path
         d="m 0,0 0.829,0 0,-6.094 -0.751,0 -4.074,4.693 0,-4.693 -0.82,0 0,6.094 L -4.11,0 0,-4.733 0,0 Z"
         style="fill:#ffffff;fill-opacity:1;fill-rule:nonzero;stroke:none"
         id="path1418"
         inkscape:connector-curvature="0" />
    </g>
    <g
       id="g1420"
       transform="matrix(1.25,0,0,-1.25,322.06742,320.63251)">
      <path
         d="m 0,0 3.455,0 0,-0.776 -2.582,0 0,-1.859 2.495,0 0,-0.781 -2.495,0 0,-1.893 2.665,0 0,-0.777 L 0,-6.086 0,0 Z"
         style="fill:#ffffff;fill-opacity:1;fill-rule:nonzero;stroke:none"
         id="path1422"
         inkscape:connector-curvature="0" />
    </g>
    <g
       id="g1424"
       transform="matrix(1.25,0,0,-1.25,338.0258,320.63251)">
      <path
         d="m 0,0 0.87,0 -2.464,-6.121 -0.191,0 -1.993,4.956 -2.013,-4.956 -0.188,0 L -8.435,0 -7.556,0 -5.877,-4.201 -4.186,0 -3.361,0 -1.662,-4.201 0,0 Z"
         style="fill:#ffffff;fill-opacity:1;fill-rule:nonzero;stroke:none"
         id="path1426"
         inkscape:connector-curvature="0" />
    </g>
    <g
       transform="matrix(1.25,0,0,-1.25,20.994554,705.07238)"
       id="g1428">
      <g
         id="g1430"
         clip-path="url(#clipPath1432)">
        <g
           id="g1436"
           transform="translate(256.8594,304.011)">
          <path
             d="m 0,0 -0.663,0.403 c -0.416,0.254 -0.712,0.504 -0.888,0.75 -0.176,0.245 -0.264,0.528 -0.264,0.848 0,0.48 0.167,0.87 0.5,1.169 0.333,0.3 0.765,0.45 1.298,0.45 0.509,0 0.975,-0.143 1.4,-0.429 l 0,-0.99 C 0.944,2.623 0.471,2.834 -0.035,2.834 -0.32,2.834 -0.554,2.768 -0.737,2.637 -0.921,2.505 -1.012,2.336 -1.012,2.13 c 0,-0.182 0.067,-0.353 0.202,-0.513 0.135,-0.159 0.352,-0.326 0.651,-0.501 L 0.508,0.721 C 1.251,0.277 1.623,-0.288 1.623,-0.974 1.623,-1.463 1.459,-1.86 1.132,-2.165 0.805,-2.471 0.38,-2.623 -0.144,-2.623 c -0.602,0 -1.15,0.185 -1.645,0.555 l 0,1.108 c 0.471,-0.597 1.017,-0.895 1.636,-0.895 0.274,0 0.501,0.076 0.683,0.228 0.182,0.152 0.273,0.342 0.273,0.571 C 0.803,-0.685 0.535,-0.333 0,0"
             style="fill:#ffffff;fill-opacity:1;fill-rule:nonzero;stroke:none"
             id="path1438"
             inkscape:connector-curvature="0" />
        </g>
        <path
           d="m 254.008,309.815 -4.809,0 0,4.526 4.809,0 0,-4.526 z m -0.956,1.504 -0.077,-0.047 c -0.372,-0.228 -0.777,-0.35 -1.145,-0.35 -0.788,0.003 -1.306,0.47 -1.308,1.15 0,0.664 0.542,1.156 1.288,1.157 0.38,0 0.724,-0.098 1.133,-0.322 l 0.075,-0.041 0,0.606 -0.032,0.013 c -0.461,0.182 -0.818,0.263 -1.171,0.263 -0.545,0 -1.018,-0.18 -1.355,-0.486 -0.337,-0.305 -0.538,-0.737 -0.537,-1.232 0,-0.345 0.142,-0.75 0.447,-1.071 0.304,-0.321 0.773,-0.555 1.415,-0.555 l 0.003,0 c 0.532,0 0.902,0.119 1.236,0.283 l 0.028,0.014 0,0.618 z"
           style="fill:#ffffff;fill-opacity:1;fill-rule:nonzero;stroke:none"
           id="path1440"
           inkscape:connector-curvature="0" />
        <path
           d="m 248.466,309.815 -4.809,0 0,4.526 4.809,0 0,-4.526 z m -1.143,1.525 c 0.002,0.411 -0.272,0.724 -0.71,0.844 0.118,0.06 0.211,0.134 0.28,0.224 0.092,0.121 0.135,0.269 0.135,0.442 0,0.212 -0.083,0.428 -0.262,0.589 -0.179,0.162 -0.451,0.267 -0.823,0.267 l -1.025,0 0,-3.259 1.203,0 0,0 c 0.43,0 0.731,0.116 0.925,0.288 0.194,0.172 0.278,0.397 0.277,0.605"
           style="fill:#ffffff;fill-opacity:1;fill-rule:nonzero;stroke:none"
           id="path1442"
           inkscape:connector-curvature="0" />
        <g
           id="g1444"
           transform="translate(246.7249,311.4049)">
          <path
             d="m 0,0 c 0,-0.108 -0.034,-0.216 -0.13,-0.301 -0.096,-0.084 -0.263,-0.148 -0.538,-0.148 l -0.555,0 0,0.889 0.53,0 C -0.445,0.44 -0.27,0.39 -0.16,0.312 -0.051,0.233 -0.001,0.13 0,0"
             style="fill:#ffffff;fill-opacity:1;fill-rule:nonzero;stroke:none"
             id="path1446"
             inkscape:connector-curvature="0" />
        </g>
        <g
           id="g1448"
           transform="translate(246.2754,312.4702)">
          <path
             d="M 0,0 C 0.103,0.075 0.153,0.18 0.154,0.338 0.153,0.446 0.122,0.539 0.044,0.608 -0.034,0.677 -0.167,0.727 -0.381,0.727 l -0.392,0 0,-0.843 0.269,0 c 0.233,0 0.4,0.041 0.504,0.116"
             style="fill:#ffffff;fill-opacity:1;fill-rule:nonzero;stroke:none"
             id="path1450"
             inkscape:connector-curvature="0" />
        </g>
        <path
           d="m 242.925,309.815 -4.809,0 0,4.526 4.809,0 0,-4.526 z m -1.143,1.525 c 10e-4,0.411 -0.273,0.724 -0.711,0.844 0.118,0.06 0.212,0.134 0.28,0.224 0.092,0.121 0.136,0.269 0.135,0.442 0.001,0.212 -0.083,0.428 -0.262,0.589 -0.179,0.162 -0.451,0.267 -0.822,0.267 l -1.025,0 0,-3.259 1.202,0 0.001,0 c 0.429,0 0.73,0.116 0.924,0.288 0.194,0.172 0.278,0.397 0.278,0.605"
           style="fill:#ffffff;fill-opacity:1;fill-rule:nonzero;stroke:none"
           id="path1452"
           inkscape:connector-curvature="0" />
        <g
           id="g1454"
           transform="translate(240.7339,312.4702)">
          <path
             d="m 0,0 c 0.103,0.075 0.153,0.18 0.154,0.338 0,0.108 -0.031,0.201 -0.11,0.27 -0.078,0.069 -0.211,0.119 -0.425,0.119 l -0.392,0 0,-0.843 0.269,0 c 0.233,0 0.4,0.041 0.504,0.116"
             style="fill:#ffffff;fill-opacity:1;fill-rule:nonzero;stroke:none"
             id="path1456"
             inkscape:connector-curvature="0" />
        </g>
        <g
           id="g1458"
           transform="translate(241.0233,311.7168)">
          <path
             d="m 0,0 c -0.11,0.078 -0.285,0.128 -0.532,0.128 l -0.531,0 0,-0.889 0.555,0 c 0.276,0 0.442,0.064 0.538,0.149 0.096,0.084 0.13,0.192 0.13,0.3 C 0.159,-0.182 0.11,-0.079 0,0"
             style="fill:#ffffff;fill-opacity:1;fill-rule:nonzero;stroke:none"
             id="path1460"
             inkscape:connector-curvature="0" />
        </g>
      </g>
    </g>
  </g>
</svg>
