<?xml version="1.0" encoding="UTF-8"?>
<!-- Created with Inkscape (http://www.inkscape.org/) -->
<svg id="svg9680" width="12.1mm" height="9.0749mm" version="1.1" viewBox="0 0 42.874 32.155" xmlns="http://www.w3.org/2000/svg" xmlns:cc="http://creativecommons.org/ns#" xmlns:dc="http://purl.org/dc/elements/1.1/" xmlns:rdf="http://www.w3.org/1999/02/22-rdf-syntax-ns#">
 <defs id="defs9682">
  <clipPath id="clipPath1432">
   <path id="path1434" d="m0 0h419.53v595.28h-419.53v-595.28z"/>
  </clipPath>
 </defs>
 <metadata id="metadata9685">
  <rdf:RDF>
   <cc:Work rdf:about="">
    <dc:format>image/svg+xml</dc:format>
    <dc:type rdf:resource="http://purl.org/dc/dcmitype/StillImage"/>
    <dc:title/>
   </cc:Work>
  </rdf:RDF>
 </metadata>
 <g id="layer1" transform="translate(-307.13 -304.86)">
  <path id="path1414" d="m307.13 304.86h42.874v32.155h-42.874v-32.155z" fill="#8d191c"/>
  <g id="g1416" transform="matrix(1.25 0 0 -1.25 319.07 320.63)">
   <path id="path1418" d="m0 0h0.829v-6.094h-0.751l-4.074 4.693v-4.693h-0.82v6.094h0.706l4.11-4.733v4.733z" fill="#fff"/>
  </g>
  <g id="g1420" transform="matrix(1.25 0 0 -1.25 322.07 320.63)">
   <path id="path1422" d="m0 0h3.455v-0.776h-2.582v-1.859h2.495v-0.781h-2.495v-1.893h2.665v-0.777h-3.538v6.086z" fill="#fff"/>
  </g>
  <g id="g1424" transform="matrix(1.25 0 0 -1.25 338.03 320.63)">
   <path id="path1426" d="m0 0h0.87l-2.464-6.121h-0.191l-1.993 4.956-2.013-4.956h-0.188l-2.456 6.121h0.879l1.679-4.201 1.691 4.201h0.825l1.699-4.201 1.662 4.201z" fill="#fff"/>
  </g>
  <g id="g1428" transform="matrix(1.25 0 0 -1.25 20.995 705.07)">
   <g id="g1430" clip-path="url(#clipPath1432)">
    <g id="g1436" transform="translate(256.86 304.01)">
     <path id="path1438" d="m0 0-0.663 0.403c-0.416 0.254-0.712 0.504-0.888 0.75-0.176 0.245-0.264 0.528-0.264 0.848 0 0.48 0.167 0.87 0.5 1.169 0.333 0.3 0.765 0.45 1.298 0.45 0.509 0 0.975-0.143 1.4-0.429v-0.99c-0.439 0.422-0.912 0.633-1.418 0.633-0.285 0-0.519-0.066-0.702-0.197-0.184-0.132-0.275-0.301-0.275-0.507 0-0.182 0.067-0.353 0.202-0.513 0.135-0.159 0.352-0.326 0.651-0.501l0.667-0.395c0.743-0.444 1.115-1.009 1.115-1.695 0-0.489-0.164-0.886-0.491-1.191-0.327-0.306-0.752-0.458-1.276-0.458-0.602 0-1.15 0.185-1.645 0.555v1.108c0.471-0.597 1.017-0.895 1.636-0.895 0.274 0 0.501 0.076 0.683 0.228s0.273 0.342 0.273 0.571c0 0.371-0.268 0.723-0.803 1.056" fill="#fff"/>
    </g>
    <path id="path1440" d="m254.01 309.82h-4.809v4.526h4.809v-4.526zm-0.956 1.504-0.077-0.047c-0.372-0.228-0.777-0.35-1.145-0.35-0.788 3e-3 -1.306 0.47-1.308 1.15 0 0.664 0.542 1.156 1.288 1.157 0.38 0 0.724-0.098 1.133-0.322l0.075-0.041v0.606l-0.032 0.013c-0.461 0.182-0.818 0.263-1.171 0.263-0.545 0-1.018-0.18-1.355-0.486-0.337-0.305-0.538-0.737-0.537-1.232 0-0.345 0.142-0.75 0.447-1.071 0.304-0.321 0.773-0.555 1.415-0.555h3e-3c0.532 0 0.902 0.119 1.236 0.283l0.028 0.014v0.618z" fill="#fff"/>
    <path id="path1442" d="m248.47 309.82h-4.809v4.526h4.809v-4.526zm-1.143 1.525c2e-3 0.411-0.272 0.724-0.71 0.844 0.118 0.06 0.211 0.134 0.28 0.224 0.092 0.121 0.135 0.269 0.135 0.442 0 0.212-0.083 0.428-0.262 0.589-0.179 0.162-0.451 0.267-0.823 0.267h-1.025v-3.259h1.203c0.43 0 0.731 0.116 0.925 0.288s0.278 0.397 0.277 0.605" fill="#fff"/>
    <g id="g1444" transform="translate(246.72 311.4)">
     <path id="path1446" d="m0 0c0-0.108-0.034-0.216-0.13-0.301-0.096-0.084-0.263-0.148-0.538-0.148h-0.555v0.889h0.53c0.248 0 0.423-0.05 0.533-0.128 0.109-0.079 0.159-0.182 0.16-0.312" fill="#fff"/>
    </g>
    <g id="g1448" transform="translate(246.28 312.47)">
     <path id="path1450" d="m0 0c0.103 0.075 0.153 0.18 0.154 0.338-1e-3 0.108-0.032 0.201-0.11 0.27s-0.211 0.119-0.425 0.119h-0.392v-0.843h0.269c0.233 0 0.4 0.041 0.504 0.116" fill="#fff"/>
    </g>
    <path id="path1452" d="m242.92 309.82h-4.809v4.526h4.809v-4.526zm-1.143 1.525c1e-3 0.411-0.273 0.724-0.711 0.844 0.118 0.06 0.212 0.134 0.28 0.224 0.092 0.121 0.136 0.269 0.135 0.442 1e-3 0.212-0.083 0.428-0.262 0.589-0.179 0.162-0.451 0.267-0.822 0.267h-1.025v-3.259h1.202 1e-3c0.429 0 0.73 0.116 0.924 0.288s0.278 0.397 0.278 0.605" fill="#fff"/>
    <g id="g1454" transform="translate(240.73 312.47)">
     <path id="path1456" d="m0 0c0.103 0.075 0.153 0.18 0.154 0.338 0 0.108-0.031 0.201-0.11 0.27-0.078 0.069-0.211 0.119-0.425 0.119h-0.392v-0.843h0.269c0.233 0 0.4 0.041 0.504 0.116" fill="#fff"/>
    </g>
    <g id="g1458" transform="translate(241.02 311.72)">
     <path id="path1460" d="m0 0c-0.11 0.078-0.285 0.128-0.532 0.128h-0.531v-0.889h0.555c0.276 0 0.442 0.064 0.538 0.149 0.096 0.084 0.13 0.192 0.13 0.3-1e-3 0.13-0.05 0.233-0.16 0.312" fill="#fff"/>
    </g>
   </g>
  </g>
 </g>
</svg>
