<svg height="588.95288" width="736.20215" xmlns="http://www.w3.org/2000/svg"><g transform="translate(2.877336 -34.717346)"><g fill="#005e70"><path d="m448.54538 35.217346h126.67241v119.208684h-126.67241zm79.80277 16.593073c-.54818-.10542-1.13853-.189756-1.7078-.274091l-.67468-.10542c-.99095-.126504-1.9819-.253008-2.95176-.337344-.69577-.06325-1.37046-.105419-2.02406-.147587-1.20178-.08434-2.38249-.10542-3.52102-.10542-.5271 0-.84336 0-1.32829.02108-.96986 0-1.89755.06325-2.82525.126504-.50601.02108-1.03311.06325-1.56021.105419-.73794.06325-1.49696.147588-2.21382.253008l-.61143.06325-.67469.10542-.84336.147587c-.35842.04217-.73793.10542-1.07528.168672-.50601.10542-1.01203.210839-1.49696.316259-2.99392.632519-5.79809 1.475877-8.34925 2.487907-1.32828.506015-2.59332 1.054198-3.81619 1.644549-.99095.506015-1.96081 1.012029-2.8885 1.539128-.90661.527099-1.77106 1.054198-2.61441 1.602381-.48493.316259-.94878.653603-1.41263.990946-.37951.274091-.78011.569267-1.15962.843358-.80119.632519-1.58129 1.265038-2.29815 1.897556-.67468.590351-1.34937 1.22287-1.93972 1.834304-.54818.527099-1.07528 1.054198-1.5813 1.623465-.50601.569267-1.01203 1.138534-1.49696 1.728884-.5271.653603-1.03311 1.32829-1.53913 2.002976-.35843.527099-.71685 1.054198-1.07528 1.560213-.23192.358427-.44276.716855-.67469 1.096366-1.32829 2.150563-2.4879 4.469798-3.43668 6.936621-1.1807 3.078258-2.04514 6.388439-2.53008 9.90946-.1265 1.096365-.23192 2.234899-.31626 3.373433-.0422.885526-.0843 1.771052-.0843 2.677662 0 .674687.0211 1.349373.0422 2.02406.0633.69577.10542 1.370457.18975 2.045143l.0422.484936c.10542.80119.23192 1.60238.4006 2.38248.0422.29518.10542.61144.16867.90661.14758.65361.29517 1.30721.46384 1.91864.23193.82228.46385 1.64455.71686 2.42466.33734.96986.67469 1.91864 1.07528 2.82525.59035 1.47587 1.26504 2.86742 1.98189 4.1957.44277.78011.86444 1.51805 1.32829 2.25599.35843.56926.73794 1.11745 1.09637 1.66563.50601.69577 1.01203 1.41263 1.51804 2.04514.5271.69577 1.09637 1.37046 1.62347 1.9819.67468.7801 1.34937 1.47587 2.02406 2.12948l.35842.35842c.54819.5271 1.13854 1.07528 1.81322 1.64455.46385.4006.94878.82228 1.4548 1.22287.48493.37951.99094.78011 1.51804 1.15962.6536.46385 1.32829.92769 2.02406 1.39154.78011.48493 1.56021.96986 2.42466 1.43371 1.66563.94878 3.49993 1.8343 5.54508 2.65658.73794.31626 1.53913.59035 2.3614.86444.80119.29517 1.60238.54818 2.46682.78011 1.4548.44276 2.99392.80119 4.59631 1.11745 1.3072.253 2.65657.46384 4.04811.63251 1.37046.16868 2.82525.29518 4.30113.37952.71686.0211 1.45479.0422 2.21382.0632h1.03311c2.65658 0 5.1234-.0843 7.40047-.27409l.44276-.0633c.9277-.0633 1.79214-.14758 2.65658-.27409 1.28612-.14759 2.55116-.35842 3.71078-.54818.75902-.14759 1.47587-.29518 2.19273-.44276 1.09636-.23193 2.10839-.48493 3.12042-.73794.71686-.21084 1.43371-.4006 2.1084-.61144.80119-.23192 1.5813-.50601 2.34032-.75902l.71685-.25301c.35843-.1265.84336-.29517 1.41263-.5271.7801-.29517 1.7078-.67468 2.762-1.11745.61143-.27409 1.28612-.56926 1.9608-.88552.63252-.27409 1.28613-.59035 1.96081-.90661.25301-.14759.5271-.27409.80119-.4006v-16.25573c-.16867.10542-.37951.23193-.54818.35843l-1.13853.6536c-1.11745.67469-2.17165 1.30721-3.24693 1.89756-1.20179.63252-2.34032 1.22287-3.47886 1.77105-2.00297.94878-3.9427 1.74997-5.81917 2.40357-3.52102 1.28612-6.78903 2.08731-9.65645 2.59333-.33734.0632-.67469.10542-1.01203.16867-.80119.1265-1.53913.21084-2.27707.29518-1.13853.1265-2.19273.18975-3.14151.23192-.61143.0211-1.20178.0422-1.7078.0422-1.15961 0-2.34032-.0211-3.5421-.12651-1.41263-.10542-2.86742-.253-4.32221-.50601-2.3614-.37951-4.70172-.96986-7.02096-1.83431-.33734-.10541-.69577-.253-1.01203-.37951-.23192-.0843-.46385-.16867-.67469-.27409-.37951-.14759-.75902-.31626-1.13853-.48493-.78011-.37951-1.56021-.78011-2.34032-1.22287-.37951-.21084-.75902-.44276-1.15962-.69577-.37951-.23192-.75902-.48493-1.13853-.75902-.48493-.31626-.94878-.6536-1.39154-1.01203s-.90661-.73794-1.28612-1.0542l-.5271-.48493-.27409-.25301-.16867-.14759-.18976-.18975c-.73794-.71686-1.39154-1.45479-2.00298-2.19273-.33734-.4006-.6536-.82228-.99094-1.24396-.27409-.40059-.56927-.80119-.82228-1.20178-.253-.37951-.48493-.75902-.69577-1.13853-.35842-.56927-.6536-1.15962-.92769-1.72889-.25301-.48493-.48493-.96986-.67469-1.45479-.33734-.82228-.6536-1.64455-.90661-2.42466-.18975-.61143-.35842-1.22287-.48493-1.79213-.44276-1.7078-.6536-3.268016-.80119-4.575222-.0211-.506015-.0632-.969862-.0843-1.412625-.0211-.653602-.0422-1.201785-.0422-1.665632 0-.295176.0211-.632519.0211-1.033114.0211-.927694.10542-2.108396.29518-3.457769.1265-.80119.29517-1.665632.50601-2.593326.16867-.611435.31626-1.22287.50602-1.855389.16867-.59035.37951-1.159617.61143-1.771052.16867-.400595.33735-.80119.5271-1.201785.23192-.569267.48493-1.11745.75902-1.644549.23193-.421679.46385-.843358.69577-1.286121.54819-.90661 1.15962-1.81322 1.85539-2.740914.23193-.31626.48493-.653603.75902-.969862.33735-.42168.69577-.843359 1.07529-1.243954.18975-.210839.37951-.442763.59035-.632519 2.99392-2.993921 6.32518-5.207737 9.80404-6.789033.54818-.253008 1.07528-.463847 1.62346-.695771.56927-.210839 1.09637-.421679 1.66563-.590351.59035-.189755 1.22287-.379511 1.81322-.569266.56927-.147588 1.13854-.295176 1.7078-.42168.56927-.126503 1.15962-.253007 1.7078-.337343.65361-.126504 1.26504-.231923 1.87648-.295175.6536-.08434 1.26503-.168672 1.87647-.21084 1.20178-.10542 2.3614-.168672 3.49994-.168672h1.13853c.82227.04217 1.64455.06325 2.44574.126504.56926.02108 1.09636.06325 1.64455.10542 1.03311.10542 2.00297.231924 2.95175.379511.84336.126504 1.64455.274092 2.40357.421679 1.15962.231924 2.2349.484931 3.18368.737939.63252.147587 1.20178.337343 1.72888.484931.78011.231923 1.4548.442763 1.9819.632518.88552.295176 1.39154.484931 1.39154.484931.80119.274092 1.58129.611435 2.34032.906611 1.05419.421679 2.02406.864442 2.97283 1.286121.80119.358427 1.53913.737938 2.2349 1.075282.59035.274091 1.13854.569266 1.64455.822274.86444.463847 1.62347.885526 2.25598 1.222869l1.66564.885527v-15.960555s-1.01203-.400595-2.74092-1.054198c-.73794-.295175-1.66563-.632519-2.67766-.990946-.56927-.189756-1.15962-.421679-1.79214-.632519-.50601-.168671-1.01203-.358427-1.58129-.527098-.59035-.189756-1.22287-.400596-1.87647-.611435-.46385-.126504-.94878-.274092-1.43371-.400595l-.44277-.147588c-.46384-.126504-.94878-.253008-1.43371-.379511-.59035-.168672-1.1807-.31626-1.77105-.463847-.37951-.08434-.75902-.189756-1.13853-.274092-.6536-.147587-1.28612-.274091-1.91864-.421679-.6536-.147588-1.34938-.253007-2.00298-.379511"/><path d="m0 0v-1.111h.721s.014 0 .039.001c.024.001.058.002.099.006.079.007.182.022.282.056.091.03.179.076.246.143.026.026.047.053.065.081.056.089.071.179.074.23.001.023.001.035.001.035s.001.011 0 .028c0 .021-.003.063-.014.107-.014.053-.039.114-.085.171-.008.01-.018.021-.028.031-.02.02-.041.039-.065.056-.039.029-.084.054-.133.075-.065.029-.138.049-.217.064-.041.008-.084.014-.128.019-.028.001-.055.004-.084.005-.024.002-.05.003-.075.003z" transform="matrix(21.083956 0 0 -21.083956 351.17967 100.96555)"/><path d="m0 0v-1.053h.349s.024 0 .054.001c.025.001.053.002.079.004.072.005.171.015.27.043.02.005.039.011.059.018.077.028.152.068.21.126.047.045.077.095.097.145.025.06.034.118.037.158.003.037.003.06.003.06s.001.017-.001.045c-.002.046-.012.12-.048.192-.017.034-.041.068-.073.1-.04.039-.088.068-.139.091-.098.044-.211.061-.305.067-.041.003-.079.003-.111.003z" transform="matrix(21.083956 0 0 -21.083956 351.17967 65.350746)"/><path d="m302.56007 35.217346h126.69349v119.208684h-126.69349zm33.2494 16.719577v85.853867h32.30062s15.7708.44276 24.45739-8.26491c7.0842-7.08421 6.57819-15.28587 6.57819-15.28587s.50601-8.56008-6.0511-15.117194c-5.58724-5.566164-12.71362-7.063125-12.71362-7.063125s3.22584-1.518045 5.69267-3.984868c1.15961-1.159617 5.29207-4.891478 5.29207-13.936495 0-9.108269-6.07218-14.358174-6.07218-14.358174s-6.64145-7.843231-21.63214-7.843231z"/><path d="m0 0v-1.111h.721s.015 0 .039.001.058.002.1.006c.079.007.182.022.281.056.091.03.179.076.246.143.026.026.048.053.065.081.057.089.071.179.074.23.002.023.001.035.001.035s.002.011 0 .028c0 .021-.003.063-.014.107-.014.053-.039.114-.084.171-.009.01-.018.021-.028.031-.021.02-.041.039-.065.056-.04.029-.085.054-.134.075-.064.029-.137.049-.217.064-.041.008-.083.014-.128.019-.027.001-.055.004-.083.005-.024.002-.051.003-.077.003z" transform="matrix(21.083956 0 0 -21.083956 205.20912 100.96555)"/><path d="m0 0v-1.053h.349s.024 0 .055.001c.024.001.053.002.078.004.072.005.171.015.271.043.019.005.039.011.058.018.078.028.153.068.211.126.046.045.076.095.097.145.025.06.033.118.036.158.004.037.004.06.004.06s0 .017-.001.045c-.003.046-.012.12-.048.192-.018.034-.042.068-.074.1-.039.039-.087.068-.138.091-.099.044-.211.061-.306.067-.041.003-.079.003-.111.003z" transform="matrix(21.083956 0 0 -21.083956 205.20912 65.350746)"/><path d="m156.59584 35.217346h126.67241v119.208684h-126.67241zm33.2494 16.719577v85.853867h32.3217s15.74972.44276 24.43631-8.26491c7.08421-7.08421 6.57819-15.28587 6.57819-15.28587s.50602-8.56008-6.05109-15.117194c-5.56617-5.566164-12.71363-7.063125-12.71363-7.063125s3.22585-1.518045 5.71375-3.984868c1.15962-1.159617 5.27099-4.891478 5.27099-13.936495 0-9.108269-6.07218-14.358174-6.07218-14.358174s-6.64144-7.843231-21.63214-7.843231z"/></g><g fill="#fff"><path d="m0 0h-3.057v1.606h7.889v-1.606h-3.057v-8.37h-1.775z" transform="matrix(21.083956 0 0 -21.083956 62.076318 271.34289)"/><path d="m0 0h1.944l1.874-7.185h.028l2.24 7.185h1.747l2.198-7.185h.028l1.959 7.185h1.804l-2.903-9.975h-1.691l-2.31 7.594h-.028l-2.311-7.594h-1.635z" transform="matrix(21.083956 0 0 -21.083956 201.69231 237.48628)"/><path d="m0 0c2.071 0 3.438 1.578 3.438 3.706 0 1.986-1.367 3.564-3.438 3.564-2.057 0-3.423-1.578-3.423-3.564 0-2.128 1.366-3.706 3.423-3.706m-.014 8.876c3.114.057 5.312-2.028 5.312-5.227 0-3.114-2.198-5.199-5.312-5.255-3.071 0-5.269 2.085-5.269 5.199 0 3.198 2.198 5.283 5.269 5.283" transform="matrix(21.083956 0 0 -21.083956 621.12199 419.2848)"/><path d="m161.6476 552.90654c-1.60791-2.0317-3.78834-3.53488-6.54128-4.5095-2.75307-.97447-5.35872-1.46173-7.81699-1.46179-1.43987.00006-2.92171.1693-4.44553.50794-1.52386.3387-2.9637.86799-4.3195 1.58783-1.35585.71997-2.45706 1.67318-3.3036 2.85964-.84662 1.18655-1.26991 2.62639-1.26987 4.31949-.00004 2.71172 1.01651 4.78744 3.04962 6.22722 2.03307 1.43991 4.59543 2.66775 7.6871 3.68361 3.09159 1.01594 6.41587 2.0325 9.97286 3.04962 3.55687 1.01725 6.88116 2.45709 9.97283 4.31949 3.09159 1.86253 5.65394 4.36092 7.68711 7.49516 2.03301 3.13433 3.04956 7.32782 3.04962 12.58045-.00006 4.9968-.93196 9.35895-2.79566 13.08649-1.86383 3.72753-4.38353 6.81918-7.55913 9.2749-3.1757 2.45573-6.85994 4.27687-11.05272 5.46336-4.19288 1.18649-8.61967 1.77975-13.28035 1.77975-5.84465 0-11.26538-.88924-16.26212-2.66769-4.99677-1.77848-9.6549-4.65943-13.97439-8.64289l14.10237-15.49825c2.03177 2.70907 4.59346 4.80485 7.68514 6.28731 3.09161 1.48251 6.28923 2.22376 9.59287 2.22372 1.61041.00004 3.24151-.19058 4.89337-.57191 1.65174-.38127 3.13424-.95318 4.44744-1.71578 1.31314-.76256 2.37168-1.73645 3.17566-2.92167.80389-1.18519 1.20584-2.58301 1.2059-4.19349-.00006-2.70904-1.03729-4.84744-3.11169-6.41526-2.07449-1.56776-4.67884-2.90227-7.81308-4.00351-3.13434-1.10117-6.5226-2.20237-10.16481-3.3036-3.64225-1.10118-7.03051-2.58301-10.16478-4.44551-3.13431-1.86243-5.73933-4.31882-7.81506-7.36914-2.07573-3.05023-3.11359-7.07374-3.11359-12.07057 0-4.82868.95321-9.06415 2.85964-12.70647 1.90639-3.64218 4.44744-6.69113 7.6231-9.14695 3.17563-2.45567 6.83919-4.29809 10.99068-5.52736 4.15146-1.22906 8.4296-1.84363 12.83444-1.84373 5.08203.0001 9.99478.72067 14.73826 2.16169 4.74339 1.44123 9.02022 3.85494 12.83057 7.2412z"/><path d="m229.52274 579.07949c-.93063-1.35449-2.24316-2.47638-3.93756-3.36565-1.6945-.88921-3.51497-1.33381-5.46142-1.33384-4.8288.00003-8.57765 1.43987-11.24661 4.31949-2.66902 2.87972-4.00353 6.64861-4.0035 11.30671-.00003 4.66073 1.33448 8.43093 4.0035 11.31058 2.66896 2.87968 6.41781 4.31952 11.24661 4.31949 2.11706.00003 3.93753-.46592 5.46142-1.39782 1.52379-.93186 2.83632-2.0337 3.93756-3.30554l12.57851 13.21443c-2.96243 3.05026-6.45538 5.18933-10.47886 6.41721-4.02358 1.22787-7.85644 1.84178-11.49863 1.84178-4.74348 0-9.21163-.7619-13.40441-2.28575-4.19288-1.52386-7.83577-3.70492-10.92868-6.54325-3.09292-2.83829-5.52863-6.24787-7.30708-10.22875-1.77848-3.98086-2.66772-8.42833-2.66769-13.34238-.00003-4.91142.88921-9.35759 2.66769-13.33851 1.77845-3.98082 4.21416-7.39039 7.30708-10.22875 3.09291-2.83827 6.7358-5.01936 10.92868-6.54325 4.19278-1.52379 8.66093-2.28572 13.40441-2.28578 3.64219.00006 7.47505.614 11.49863 1.84181 4.02348 1.22791 7.51643 3.36571 10.47886 6.41333z"/><path d="m246.73096 590.0062c0-4.91142.88924-9.35759 2.66772-13.33851 1.77844-3.98082 4.21349-7.39039 7.30514-10.22875 3.09161-2.83827 6.73386-5.01936 10.92671-6.54325 4.19281-1.52379 8.66093-2.28572 13.40441-2.28578 4.74342.00006 9.21154.76199 13.40442 2.28578 4.19279 1.52389 7.83503 3.70498 10.92671 6.54325 3.09158 2.83836 5.52726 6.24793 7.30711 10.22875 1.77969 3.98092 2.66956 8.42709 2.66963 13.33851-.00007 4.91405-.88994 9.36152-2.66963 13.34238-1.77985 3.98088-4.21553 7.39046-7.30711 10.22875-3.09168 2.83833-6.73392 5.01939-10.92671 6.54325-4.19288 1.52385-8.661 2.28575-13.40442 2.28575-4.74348 0-9.2116-.7619-13.40441-2.28575-4.19285-1.52386-7.8351-3.70492-10.92671-6.54325-3.09165-2.83829-5.5267-6.24787-7.30514-10.22875-1.77848-3.98086-2.66772-8.42833-2.66772-13.34238zm19.05778 0c-.00003 4.66073 1.33381 8.43093 4.00153 11.31058 2.66769 2.87968 6.4159 4.31952 11.24467 4.31949 4.82871.00003 8.57692-1.43981 11.24467-4.31949 2.66766-2.87965 4.0015-6.64985 4.00157-11.31058-.00007-4.6581-1.33391-8.42699-4.00157-11.30671-2.66775-2.87962-6.41596-4.31946-11.24467-4.31949-4.82877.00003-8.57698 1.43987-11.24467 4.31949-2.66772 2.87972-4.00156 6.64861-4.00153 11.30671z"/><path d="m368.49907 574.38h-16.77007v20.58161c-.00003 1.69577.0845 3.24224.25412 4.63939.1693 1.39721.5499 2.60375 1.14189 3.61963.59193 1.01589 1.50251 1.79916 2.7317 2.34973 1.22911.55063 2.8596.82593 4.89143.8259 1.01586.00003 2.3497-.10545 4.00154-.31605 1.65177-.2106 2.9016-.69726 3.74951-1.45985v15.88212c-2.11715.76256-4.31952 1.2705-6.60721 1.52386-2.28773.25316-4.53279.37996-6.73517.37996-3.21832 0-6.18265-.33861-8.89297-1.01588-2.71038-.67728-5.08209-1.75714-7.11516-3.23964-2.0331-1.48247-3.62157-3.40957-4.7654-5.78131-1.14389-2.37171-1.71581-5.252-1.71581-8.64093v-29.34857h-12.19464v-15.24624h12.19464v-18.29779h19.06166v18.29779h16.77006z"/><path d="m378.31295 524.8259h19.05778v96.05661h-19.05778z"/><path d="m449.81741 613.13143h-.25602c-2.11715 3.3036-4.93346 5.67535-8.449 7.11516-3.51561 1.43984-7.22119 2.15974-11.11673 2.15974-2.87968 0-5.65337-.40194-8.32102-1.20586-2.66772-.80396-5.01812-2.01113-7.05119-3.62157-2.0331-1.61045-3.64291-3.60153-4.8294-5.97324-1.18652-2.37171-1.77975-5.12408-1.77975-8.25708 0-3.55693.65656-6.56389 1.96976-9.02095 1.31313-2.457 3.09225-4.49007 5.33731-6.09925 2.24507-1.60911 4.80743-2.8583 7.68711-3.74757 2.87965-.88921 5.8653-1.54578 8.95695-1.96977 3.09161-.42389 6.18326-.67788 9.2749-.76193 3.09162-.0838 5.95059-.1261 8.57698-.1261-.00006-3.38886-1.20723-6.07853-3.62156-8.06901-2.4144-1.99041-5.27341-2.98562-8.57695-2.98568-3.13304.00006-5.99138.65666-8.57505 1.96977-2.5837 1.31322-4.89144 3.11235-6.92321 5.39744l-10.16675-10.41877c3.55693-3.30354 7.70712-5.78061 12.45057-7.43118 4.74342-1.65044 9.65617-2.47571 14.73826-2.47577 5.59127.00006 10.18673.69866 13.78635 2.09577 3.59956 1.39725 6.47984 3.45103 8.64096 6.16132 2.16098 2.71041 3.6648 6.03469 4.51144 9.97286.84652 3.93825 1.26981 8.49106 1.26987 13.6584v31.38425h-17.53393zm-4.69949-19.31368c-1.44248.00003-3.24354.0642-5.40326.19185-2.15981.12801-4.23487.48797-6.22528 1.07989-1.99047.59199-3.68427 1.48123-5.08142 2.66769-1.39722 1.18655-2.09581 2.83836-2.09577 4.95541-.00004 2.28773.97386 3.98219 2.92167 5.08336 1.94775 1.10124 3.98019 1.65184 6.09731 1.65181 1.86373.00003 3.66419-.25412 5.40132-.7619 1.73706-.50794 3.28289-1.22788 4.63745-2.15978 1.35449-.93186 2.43438-2.11772 3.23963-3.55756.80516-1.43981 1.20778-3.13427 1.20784-5.08336v-4.06748z"/><path d="m479.30946 559.13376h18.29389v8.3831h.25602c.59193-1.18386 1.43851-2.36908 2.53974-3.55563 1.10117-1.18646 2.41434-2.24567 3.9395-3.1776 1.52513-.93183 3.26158-1.69373 5.2094-2.28575 1.94775-.59193 4.06547-.88791 6.35323-.88797 4.82871.00006 8.72491.74068 11.68864 2.22181 2.96363 1.48123 5.27137 3.53501 6.92324 6.16128 1.65174 2.62639 2.77426 5.71868 3.36758 9.27687.59317 3.55827.88981 7.41181.88988 11.56067v34.05197h-19.05779v-30.24042c-.00003-1.77842-.0632-3.62021-.18995-5.52539-.12674-1.9051-.50801-3.66287-1.14386-5.27335-.63595-1.61041-1.61048-2.92358-2.92361-3.93952-1.3132-1.01586-3.19765-1.5238-5.65334-1.52383-2.45579.00003-4.4462.44463-5.97133 1.33384-1.52516.88927-2.6897 2.07513-3.49359 3.55757-.80395 1.48253-1.33324 3.15565-1.58783 5.01938-.25475 1.8638-.38197 3.81159-.38194 5.84335v30.74837h-19.05775z"/><path d="m617.06439 620.88251h-17.53393v-8.13108h-.25189c-.76262 1.10124-1.75783 2.22375-2.98564 3.36758-1.22792 1.14386-2.66776 2.18109-4.3195 3.11169-1.65187.9306-3.47297 1.69253-5.46335 2.28576-1.99048.59326-4.04556.88987-6.16519.88987-4.57287 0-8.72306-.78324-12.45057-2.34973-3.72756-1.56651-6.92517-3.76889-9.59286-6.60721-2.66772-2.8383-4.72147-6.20524-6.16131-10.10081-1.43984-3.89554-2.15975-8.1737-2.15975-12.83444 0-4.31946.6566-8.44834 1.96976-12.3866 1.31317-3.93816 3.17627-7.43175 5.58937-10.4808 2.41307-3.04892 5.35605-5.48397 8.829-7.30514 3.47291-1.82104 7.41177-2.73163 11.81662-2.73169 3.98082.00006 7.68704.614 11.11862 1.84181 3.43153 1.22791 6.24851 3.32436 8.45095 6.28926h.25189v-40.91508h19.05778zm-17.53393-30.87631c-.00006-4.6581-1.3339-8.42699-4.00156-11.30671-2.66775-2.87962-6.41596-4.31946-11.24467-4.31949-4.82877.00003-8.57698 1.43987-11.24467 4.31949-2.66772 2.87972-4.00156 6.64861-4.00153 11.30671-.00003 4.66073 1.33381 8.43093 4.00153 11.31058 2.66769 2.87968 6.4159 4.31952 11.24467 4.31949 4.82871.00003 8.57692-1.43981 11.24467-4.31949 2.66766-2.87965 4.0015-6.64985 4.00156-11.31058z"/></g></g></svg>