<?xml version="1.0" encoding="UTF-8" standalone="no"?>
<!-- Created with Inkscape (http://www.inkscape.org/) -->

<svg
   xmlns:dc="http://purl.org/dc/elements/1.1/"
   xmlns:cc="http://creativecommons.org/ns#"
   xmlns:rdf="http://www.w3.org/1999/02/22-rdf-syntax-ns#"
   xmlns:svg="http://www.w3.org/2000/svg"
   xmlns="http://www.w3.org/2000/svg"
   xmlns:xlink="http://www.w3.org/1999/xlink"
   xmlns:sodipodi="http://sodipodi.sourceforge.net/DTD/sodipodi-0.dtd"
   xmlns:inkscape="http://www.inkscape.org/namespaces/inkscape"
   id="svg2985"
   version="1.1"
   inkscape:version="0.91 r13725"
   width="1000"
   height="297.19455"
   xml:space="preserve"
   sodipodi:docname="BBC One London - Dark.svg"
   hola_ext_inject="disabled"><metadata
     id="metadata2991"><rdf:RDF><cc:Work
         rdf:about=""><dc:format>image/svg+xml</dc:format><dc:type
           rdf:resource="http://purl.org/dc/dcmitype/StillImage" /><dc:title /></cc:Work></rdf:RDF></metadata><defs
     id="defs2989"><linearGradient
       inkscape:collect="always"
       id="linearGradient4322"><stop
         style="stop-color:#c80201;stop-opacity:1;"
         offset="0"
         id="stop4324" /><stop
         style="stop-color:#c80201;stop-opacity:0;"
         offset="1"
         id="stop4326" /></linearGradient><clipPath
       clipPathUnits="userSpaceOnUse"
       id="clipPath3003"><path
         d="m 0,0 841.89,0 0,595.276 L 0,595.276 0,0 z"
         id="path3005"
         inkscape:connector-curvature="0" /></clipPath><clipPath
       clipPathUnits="userSpaceOnUse"
       id="clipPath3023"><path
         d="m 0,0 841.89,0 0,595.276 L 0,595.276 0,0 z"
         id="path3025"
         inkscape:connector-curvature="0" /></clipPath><clipPath
       clipPathUnits="userSpaceOnUse"
       id="clipPath3051"><path
         d="m 0,0 841.89,0 0,595.276 L 0,595.276 0,0 z"
         id="path3053"
         inkscape:connector-curvature="0" /></clipPath><clipPath
       clipPathUnits="userSpaceOnUse"
       id="clipPath3075"><path
         d="m 0,0 841.89,0 0,595.276 L 0,595.276 0,0 z"
         id="path3077"
         inkscape:connector-curvature="0" /></clipPath><clipPath
       clipPathUnits="userSpaceOnUse"
       id="clipPath3195"><path
         d="m 0,0 841.89,0 0,595.276 L 0,595.276 0,0 z"
         id="path3197"
         inkscape:connector-curvature="0" /></clipPath><clipPath
       clipPathUnits="userSpaceOnUse"
       id="clipPath3209"><path
         d="m 49.094,354.329 287.15,0 0,-161.734 -287.15,0 0,161.734 z"
         id="path3211"
         inkscape:connector-curvature="0" /></clipPath><clipPath
       clipPathUnits="userSpaceOnUse"
       id="clipPath3233"><path
         d="m 0,0 841.89,0 0,595.276 L 0,595.276 0,0 z"
         id="path3235"
         inkscape:connector-curvature="0" /></clipPath><clipPath
       clipPathUnits="userSpaceOnUse"
       id="clipPath3257"><path
         d="m 0,0 841.89,0 0,595.276 L 0,595.276 0,0 z"
         id="path3259"
         inkscape:connector-curvature="0" /></clipPath><clipPath
       clipPathUnits="userSpaceOnUse"
       id="clipPath3297"><path
         d="m 0,0 841.89,0 0,595.276 L 0,595.276 0,0 z"
         id="path3299"
         inkscape:connector-curvature="0" /></clipPath><clipPath
       clipPathUnits="userSpaceOnUse"
       id="clipPath3313"><path
         d="m 0,0 841.89,0 0,595.276 L 0,595.276 0,0 z"
         id="path3315"
         inkscape:connector-curvature="0" /></clipPath><clipPath
       clipPathUnits="userSpaceOnUse"
       id="clipPath3341"><path
         d="m 0,0 841.89,0 0,595.276 L 0,595.276 0,0 z"
         id="path3343"
         inkscape:connector-curvature="0" /></clipPath><clipPath
       clipPathUnits="userSpaceOnUse"
       id="clipPath3419"><path
         d="m 0,0 841.89,0 0,595.276 L 0,595.276 0,0 z"
         id="path3421"
         inkscape:connector-curvature="0" /></clipPath><clipPath
       clipPathUnits="userSpaceOnUse"
       id="clipPath3465"><path
         d="m 0,0 841.89,0 0,595.276 L 0,595.276 0,0 z"
         id="path3467"
         inkscape:connector-curvature="0" /></clipPath><clipPath
       clipPathUnits="userSpaceOnUse"
       id="clipPath3489"><path
         d="m 0,0 841.89,0 0,595.276 L 0,595.276 0,0 z"
         id="path3491"
         inkscape:connector-curvature="0" /></clipPath><clipPath
       clipPathUnits="userSpaceOnUse"
       id="clipPath3511"><path
         d="m 0,0 841.89,0 0,595.276 L 0,595.276 0,0 z"
         id="path3513"
         inkscape:connector-curvature="0" /></clipPath><clipPath
       clipPathUnits="userSpaceOnUse"
       id="clipPath3533"><path
         d="m 0,0 841.89,0 0,595.276 L 0,595.276 0,0 z"
         id="path3535"
         inkscape:connector-curvature="0" /></clipPath><clipPath
       clipPathUnits="userSpaceOnUse"
       id="clipPath3615"><path
         d="m 0,0 841.89,0 0,595.276 L 0,595.276 0,0 z"
         id="path3617"
         inkscape:connector-curvature="0" /></clipPath><clipPath
       clipPathUnits="userSpaceOnUse"
       id="clipPath3659"><path
         d="m 0,0 841.89,0 0,595.276 L 0,595.276 0,0 z"
         id="path3661"
         inkscape:connector-curvature="0" /></clipPath><clipPath
       clipPathUnits="userSpaceOnUse"
       id="clipPath3673"><path
         d="m 0,0 841.89,0 0,595.276 L 0,595.276 0,0 z"
         id="path3675"
         inkscape:connector-curvature="0" /></clipPath><clipPath
       clipPathUnits="userSpaceOnUse"
       id="clipPath3707"><path
         d="m 0,0 841.89,0 0,595.276 L 0,595.276 0,0 z"
         id="path3709"
         inkscape:connector-curvature="0" /></clipPath><clipPath
       clipPathUnits="userSpaceOnUse"
       id="clipPath3735"><path
         d="m 0,0 841.89,0 0,595.276 L 0,595.276 0,0 z"
         id="path3737"
         inkscape:connector-curvature="0" /></clipPath><clipPath
       clipPathUnits="userSpaceOnUse"
       id="clipPath3757"><path
         d="m 0,0 841.89,0 0,595.276 L 0,595.276 0,0 z"
         id="path3759"
         inkscape:connector-curvature="0" /></clipPath><clipPath
       clipPathUnits="userSpaceOnUse"
       id="clipPath3779"><path
         d="m 0,0 841.89,0 0,595.276 L 0,595.276 0,0 z"
         id="path3781"
         inkscape:connector-curvature="0" /></clipPath><clipPath
       clipPathUnits="userSpaceOnUse"
       id="clipPath3881"><path
         d="m 0,0 841.89,0 0,595.276 L 0,595.276 0,0 z"
         id="path3883"
         inkscape:connector-curvature="0" /></clipPath><clipPath
       clipPathUnits="userSpaceOnUse"
       id="clipPath3925"><path
         d="m 0,0 841.89,0 0,595.276 L 0,595.276 0,0 z"
         id="path3927"
         inkscape:connector-curvature="0" /></clipPath><clipPath
       clipPathUnits="userSpaceOnUse"
       id="clipPath3939"><path
         d="m 0,0 841.89,0 0,595.276 L 0,595.276 0,0 z"
         id="path3941"
         inkscape:connector-curvature="0" /></clipPath><clipPath
       clipPathUnits="userSpaceOnUse"
       id="clipPath3973"><path
         d="m 0,0 841.89,0 0,595.276 L 0,595.276 0,0 z"
         id="path3975"
         inkscape:connector-curvature="0" /></clipPath><clipPath
       clipPathUnits="userSpaceOnUse"
       id="clipPath4005"><path
         d="m 0,0 841.89,0 0,595.276 L 0,595.276 0,0 z"
         id="path4007"
         inkscape:connector-curvature="0" /></clipPath><clipPath
       clipPathUnits="userSpaceOnUse"
       id="clipPath4029"><path
         d="m 0,0 841.89,0 0,595.276 L 0,595.276 0,0 z"
         id="path4031"
         inkscape:connector-curvature="0" /></clipPath><clipPath
       clipPathUnits="userSpaceOnUse"
       id="clipPath4069"><path
         d="m 0,0 841.89,0 0,595.276 L 0,595.276 0,0 z"
         id="path4071"
         inkscape:connector-curvature="0" /></clipPath><clipPath
       clipPathUnits="userSpaceOnUse"
       id="clipPath4089"><path
         d="m 0,0 841.89,0 0,595.276 L 0,595.276 0,0 z"
         id="path4091"
         inkscape:connector-curvature="0" /></clipPath><clipPath
       clipPathUnits="userSpaceOnUse"
       id="clipPath4111"><path
         d="m 0,0 841.89,0 0,595.276 L 0,595.276 0,0 z"
         id="path4113"
         inkscape:connector-curvature="0" /></clipPath><clipPath
       clipPathUnits="userSpaceOnUse"
       id="clipPath4133"><path
         d="m 0,0 841.89,0 0,595.276 L 0,595.276 0,0 z"
         id="path4135"
         inkscape:connector-curvature="0" /></clipPath><clipPath
       clipPathUnits="userSpaceOnUse"
       id="clipPath4251"><path
         d="m 0,0 841.89,0 0,595.276 L 0,595.276 0,0 z"
         id="path4253"
         inkscape:connector-curvature="0" /></clipPath><clipPath
       clipPathUnits="userSpaceOnUse"
       id="clipPath4297"><path
         d="m 0,0 841.89,0 0,595.276 L 0,595.276 0,0 z"
         id="path4299"
         inkscape:connector-curvature="0" /></clipPath><clipPath
       clipPathUnits="userSpaceOnUse"
       id="clipPath4337"><path
         d="m 0,0 841.89,0 0,595.276 L 0,595.276 0,0 z"
         id="path4339"
         inkscape:connector-curvature="0" /></clipPath><clipPath
       clipPathUnits="userSpaceOnUse"
       id="clipPath4379"><path
         d="m 0,0 841.89,0 0,595.276 L 0,595.276 0,0 z"
         id="path4381"
         inkscape:connector-curvature="0" /></clipPath><clipPath
       clipPathUnits="userSpaceOnUse"
       id="clipPath4423"><path
         d="m 0,0 841.89,0 0,595.276 L 0,595.276 0,0 z"
         id="path4425"
         inkscape:connector-curvature="0" /></clipPath><clipPath
       clipPathUnits="userSpaceOnUse"
       id="clipPath4437"><path
         d="m 0,0 841.89,0 0,595.276 L 0,595.276 0,0 z"
         id="path4439"
         inkscape:connector-curvature="0" /></clipPath><clipPath
       clipPathUnits="userSpaceOnUse"
       id="clipPath4471"><path
         d="m 0,0 841.89,0 0,595.276 L 0,595.276 0,0 z"
         id="path4473"
         inkscape:connector-curvature="0" /></clipPath><style
       id="style6"
       type="text/css">
   
    .fil0 {fill:#C90302}
   
  </style><inkscape:perspective
       id="perspective17"
       inkscape:persp3d-origin="526.18109 : 129.92126 : 1"
       inkscape:vp_z="1052.3622 : 194.8819 : 1"
       inkscape:vp_y="0 : 1000 : 0"
       inkscape:vp_x="0 : 194.8819 : 1"
       sodipodi:type="inkscape:persp3d" /><clipPath
       id="clipPath3855"
       clipPathUnits="userSpaceOnUse"><path
         id="path3857"
         d="m 28.346,484.3 47.237,0 0,34.44 -47.237,0 0,-34.44 z"
         inkscape:connector-curvature="0" /></clipPath><clipPath
       id="clipPath3793"
       clipPathUnits="userSpaceOnUse"><path
         id="path3795"
         d="m 90.708,484.3 47.382,0 0,34.44 -47.382,0 0,-34.44 z"
         inkscape:connector-curvature="0" /></clipPath><clipPath
       id="clipPath3779-4"
       clipPathUnits="userSpaceOnUse"><path
         id="path3781-8"
         d="m 90.708,484.3 47.382,0 0,34.44 -47.382,0 0,-34.44 z"
         inkscape:connector-curvature="0" /></clipPath><clipPath
       id="clipPath3739"
       clipPathUnits="userSpaceOnUse"><path
         id="path3741"
         d="m 277.795,444.472 46.804,0 0,34.347 -46.804,0 0,-34.347 z"
         inkscape:connector-curvature="0" /></clipPath><clipPath
       id="clipPath3675"
       clipPathUnits="userSpaceOnUse"><path
         id="path3677"
         d="m 215.433,444.472 46.949,0 0,34.347 -46.949,0 0,-34.347 z"
         inkscape:connector-curvature="0" /></clipPath><clipPath
       id="clipPath3621"
       clipPathUnits="userSpaceOnUse"><path
         id="path3623"
         d="m 153.071,444.472 47.112,0 0,34.393 -47.112,0 0,-34.393 z"
         inkscape:connector-curvature="0" /></clipPath><clipPath
       id="clipPath3575"
       clipPathUnits="userSpaceOnUse"><path
         id="path3577"
         d="m 90.708,444.472 47.402,0 0,34.393 -47.402,0 0,-34.393 z"
         inkscape:connector-curvature="0" /></clipPath><clipPath
       id="clipPath3561"
       clipPathUnits="userSpaceOnUse"><path
         id="path3563"
         d="m 90.708,444.472 47.402,0 0,34.393 -47.402,0 0,-34.393 z"
         inkscape:connector-curvature="0" /></clipPath><clipPath
       id="clipPath3549"
       clipPathUnits="userSpaceOnUse"><path
         id="path3551"
         d="m 28.346,444.472 47.245,0 0,34.393 -47.245,0 0,-34.393 z"
         inkscape:connector-curvature="0" /></clipPath><clipPath
       id="clipPath3499"
       clipPathUnits="userSpaceOnUse"><path
         id="path3501"
         d="m 277.795,484.3 46.804,0 0,34.309 -46.804,0 0,-34.309 z"
         inkscape:connector-curvature="0" /></clipPath><clipPath
       id="clipPath3479"
       clipPathUnits="userSpaceOnUse"><path
         id="path3481"
         d="m 277.795,491.772 46.804,0 0,20.354 -46.804,0 0,-20.354 z"
         inkscape:connector-curvature="0" /></clipPath><clipPath
       id="clipPath3419-0"
       clipPathUnits="userSpaceOnUse"><path
         id="path3421-9"
         d="m 277.795,484.3 46.804,0 0,34.309 -46.804,0 0,-34.309 z"
         inkscape:connector-curvature="0" /></clipPath><clipPath
       id="clipPath3403"
       clipPathUnits="userSpaceOnUse"><path
         id="path3405"
         d="m 277.795,491.772 46.804,0 0,20.354 -46.804,0 0,-20.354 z"
         inkscape:connector-curvature="0" /></clipPath><clipPath
       id="clipPath3379"
       clipPathUnits="userSpaceOnUse"><path
         id="path3381"
         d="m 277.795,484.3 46.804,0 0,34.309 -46.804,0 0,-34.309 z"
         inkscape:connector-curvature="0" /></clipPath><clipPath
       id="clipPath3337"
       clipPathUnits="userSpaceOnUse"><path
         id="path3339"
         d="m 340.158,484.348 46.688,0 0,34.393 -46.688,0 0,-34.393 z"
         inkscape:connector-curvature="0" /></clipPath><clipPath
       id="clipPath3289"
       clipPathUnits="userSpaceOnUse"><path
         id="path3291"
         d="m 215.449,484.3 46.803,0 0,34.393 -46.803,0 0,-34.393 z"
         inkscape:connector-curvature="0" /></clipPath><clipPath
       id="clipPath3271"
       clipPathUnits="userSpaceOnUse"><path
         id="path3273"
         d="m 153.087,484.348 47.287,0 0,34.393 -47.287,0 0,-34.393 z"
         inkscape:connector-curvature="0" /></clipPath><clipPath
       id="clipPath3115"
       clipPathUnits="userSpaceOnUse"><path
         id="path3117"
         d="m 28.346,20.092 362.835,0 0,158.49 -362.835,0 0,-158.49 z"
         inkscape:connector-curvature="0" /></clipPath><linearGradient
       inkscape:collect="always"
       xlink:href="#linearGradient4322"
       id="linearGradient4338"
       x1="420.56695"
       y1="-479.18358"
       x2="528.2667"
       y2="-479.18358"
       gradientUnits="userSpaceOnUse" /></defs><sodipodi:namedview
     pagecolor="#ffffff"
     bordercolor="#666666"
     borderopacity="1"
     objecttolerance="10"
     gridtolerance="10"
     guidetolerance="10"
     inkscape:pageopacity="0"
     inkscape:pageshadow="2"
     inkscape:window-width="1060"
     inkscape:window-height="1041"
     id="namedview2987"
     showgrid="false"
     fit-margin-top="0.5"
     fit-margin-left="0.5"
     fit-margin-right="0.5"
     fit-margin-bottom="0.5"
     inkscape:zoom="0.22792508"
     inkscape:cx="-66.844207"
     inkscape:cy="69.884272"
     inkscape:window-x="857"
     inkscape:window-y="-21"
     inkscape:window-maximized="0"
     inkscape:current-layer="g2993" /><g
     id="g2993"
     inkscape:groupmode="layer"
     inkscape:label="onscreen_guidelines"
     transform="matrix(1.25,0,0,-1.25,-525.20868,-328.66035)"><g
       transform="matrix(2.0655084,0,0,-2.0655084,810.16035,-222.4744)"
       style="font-size:40px;font-style:normal;font-weight:normal;line-height:125%;letter-spacing:0px;word-spacing:0px;fill:#c80201;fill-opacity:1;stroke:none;font-family:Sans"
       id="flowRoot3127"><path
         d="m -22.598633,108.13947 0,21.40015 10.200195,0 0.759278,4.47998 -16.079102,0 0,-25.88013 z"
         style="font-variant:normal;font-weight:bold;font-stretch:normal;fill:#c80201;font-family:BBCOne-Bold;-inkscape-font-specification:BBCOne-Bold Bold;fill-opacity:1"
         id="path3567" /><path
         d="m 3.857666,128.53986 c 0.9065594,-1.04003 1.3598467,-2.49348 1.3598633,-4.36035 -1.66e-5,-1.86685 -0.4533039,-3.3203 -1.3598633,-4.36035 -0.9065899,-0.98631 -2.1464161,-1.47947 -3.71948241,-1.47949 -1.57308939,2e-5 -2.81291569,0.49318 -3.71948239,1.47949 -0.9073963,1.04005 -1.3610905,2.4935 -1.361084,4.36035 -6.5e-6,1.86687 0.4536877,3.32032 1.361084,4.36035 0.9065667,0.98634 2.146393,1.4795 3.71948239,1.4795 1.57306631,0 2.81289251,-0.49316 3.71948241,-1.4795 z m -11.0595703,3.07984 c -1.8798851,-1.91976 -2.8198257,-4.39961 -2.8198247,-7.43958 -10e-7,-3.03994 0.9399396,-5.52 2.8198247,-7.44018 1.8798767,-1.92015 4.3265702,-2.88023 7.34008789,-2.88025 3.01349451,2e-5 5.46018811,0.9601 7.34008791,2.88025 1.879862,1.92018 2.8198025,4.40024 2.8198245,7.44018 -2.2e-5,3.03997 -0.9399625,5.51982 -2.8198245,7.43958 -1.8798998,1.91976 -4.3265934,2.87964 -7.34008791,2.87964 -3.01351769,0 -5.46021119,-0.95988 -7.34008789,-2.87964 z"
         style="font-variant:normal;font-weight:bold;font-stretch:normal;fill:#c80201;font-family:BBCOne-Bold;-inkscape-font-specification:BBCOne-Bold Bold;fill-opacity:1"
         id="path3569" /><path
         d="m 33.77206,134.0196 -4.87915,0 c -0.266945,-1.41357 -0.400408,-3.24015 -0.400391,-5.47974 l 0,-4.16015 c -1.7e-5,-2.53336 -0.373145,-4.17357 -1.119385,-4.92066 -0.800796,-0.77309 -1.86769,-1.15965 -3.200683,-1.15966 -1.546235,1e-5 -2.839366,0.53346 -3.879395,1.60034 -0.507007,0.55991 -0.840462,1.26649 -1.000366,2.11975 -0.15992,0.85328 -0.239876,2.00013 -0.239868,3.44055 l 0,8.55957 -4.880371,0 0,-14.16015 c -3e-6,-2.26643 -0.133466,-4.10643 -0.400391,-5.52002 l 4.760742,0 c 0.266106,0.9603 0.439446,1.93361 0.52002,2.91992 l 0.04028,0 c 0.479321,-0.95946 1.305736,-1.76593 2.479248,-2.41944 1.173491,-0.65346 2.493477,-0.9802 3.959961,-0.98022 2.426741,2e-5 4.32005,0.70681 5.679932,2.12036 0.773905,0.77313 1.327493,1.72629 1.660766,2.8595 0.33323,1.13323 0.499856,2.7 0.499878,4.70031 l 0,5 c -2.2e-5,2.23959 0.133035,4.06617 0.39917,5.47974 z"
         style="font-variant:normal;font-weight:bold;font-stretch:normal;fill:#c80201;font-family:BBCOne-Bold;-inkscape-font-specification:BBCOne-Bold Bold;fill-opacity:1"
         id="path3571"
         inkscape:connector-curvature="0" /><path
         d="m 55.96026,134.0196 -4.880371,0 c -0.160336,-0.93343 -0.253516,-1.77327 -0.279541,-2.51953 -0.773942,0.95947 -1.707575,1.69922 -2.800904,2.21924 -1.093355,0.52002 -2.173066,0.78003 -3.239135,0.78003 -2.347014,0 -4.320482,-0.71981 -5.920411,-2.15943 -2.053225,-1.89371 -3.079835,-4.61384 -3.079834,-8.1604 -10e-7,-3.84031 1.226804,-6.68048 3.68042,-8.5205 1.573073,-1.19953 3.359367,-1.7993 5.358887,-1.79932 1.227202,2e-5 2.354113,0.26003 3.380737,0.78003 1.026597,0.52004 1.859726,1.23333 2.49939,2.13989 l 0,-8.64014 4.880371,0 0,20.40039 c -2.1e-5,2.23959 0.133442,4.06617 0.400391,5.47974 z m -10.040283,-4.00024 c 1.573066,0 2.812892,-0.47973 3.719482,-1.43921 0.906559,-1.04003 1.359847,-2.49348 1.359863,-4.36035 -1.6e-5,-1.91975 -0.453304,-3.39965 -1.359863,-4.4397 -0.933445,-0.98713 -2.173272,-1.4807 -3.719482,-1.48071 -1.57309,1e-5 -2.812916,0.49358 -3.719483,1.48071 -0.907396,1.04005 -1.36109,2.50672 -1.361084,4.40002 -6e-6,1.89332 0.453688,3.36 1.361084,4.40003 0.879712,0.95948 2.119538,1.43921 3.719483,1.43921 z"
         style="font-variant:normal;font-weight:bold;font-stretch:normal;fill:#c80201;font-family:BBCOne-Bold;-inkscape-font-specification:BBCOne-Bold Bold;fill-opacity:1"
         id="path3573"
         inkscape:connector-curvature="0" /><path
         d="m 72.578495,128.53986 c 0.906559,-1.04003 1.359847,-2.49348 1.359863,-4.36035 -1.6e-5,-1.86685 -0.453304,-3.3203 -1.359863,-4.36035 -0.90659,-0.98631 -2.146416,-1.47947 -3.719482,-1.47949 -1.57309,2e-5 -2.812916,0.49318 -3.719483,1.47949 -0.907396,1.04005 -1.36109,2.4935 -1.361084,4.36035 -6e-6,1.86687 0.453688,3.32032 1.361084,4.36035 0.906567,0.98634 2.146393,1.4795 3.719483,1.4795 1.573066,0 2.812892,-0.49316 3.719482,-1.4795 z m -11.05957,3.07984 c -1.879885,-1.91976 -2.819826,-4.39961 -2.819825,-7.43958 -1e-6,-3.03994 0.93994,-5.52 2.819825,-7.44018 1.879876,-1.92015 4.32657,-2.88023 7.340088,-2.88025 3.013494,2e-5 5.460188,0.9601 7.340087,2.88025 1.879863,1.92018 2.819803,4.40024 2.819825,7.44018 -2.2e-5,3.03997 -0.939962,5.51982 -2.819825,7.43958 -1.879899,1.91976 -4.326593,2.87964 -7.340087,2.87964 -3.013518,0 -5.460212,-0.95988 -7.340088,-2.87964 z"
         style="font-variant:normal;font-weight:bold;font-stretch:normal;fill:#c80201;font-family:BBCOne-Bold;-inkscape-font-specification:BBCOne-Bold Bold;fill-opacity:1"
         id="path3575"
         inkscape:connector-curvature="0" /><path
         d="m 101.8921,134.0196 -4.879151,0 c -0.26695,-1.41357 -0.40041,-3.24015 -0.40039,-5.47974 l 0,-4.16015 c -2e-5,-2.53336 -0.37315,-4.17357 -1.11939,-4.92066 -0.800796,-0.77309 -1.86769,-1.15965 -3.200683,-1.15966 -1.546235,1e-5 -2.839366,0.53346 -3.879395,1.60034 -0.507007,0.55991 -0.840462,1.26649 -1.000366,2.11975 -0.15992,0.85328 -0.239876,2.00013 -0.239868,3.44055 l 0,8.55957 -4.880371,0 0,-14.16015 c -3e-6,-2.26643 -0.133466,-4.10643 -0.400391,-5.52002 l 4.760742,0 c 0.266106,0.9603 0.439446,1.93361 0.52002,2.91992 l 0.04028,0 c 0.479321,-0.95946 1.305736,-1.76593 2.479248,-2.41944 1.173491,-0.65346 2.493477,-0.9802 3.959961,-0.98022 2.42674,2e-5 4.32005,0.70681 5.67993,2.12036 0.773914,0.77313 1.327504,1.72629 1.660774,2.8595 0.33323,1.13323 0.49985,2.7 0.49988,4.70031 l 0,5 c -3e-5,2.23959 0.13303,4.06617 0.39917,5.47974 z"
         style="font-variant:normal;font-weight:bold;font-stretch:normal;fill:#c80201;font-family:BBCOne-Bold;-inkscape-font-specification:BBCOne-Bold Bold;fill-opacity:1"
         id="path3578"
         inkscape:connector-curvature="0" /></g><g
       id="g3203"
       transform="translate(349.3506,368.504)"
       style="fill-opacity:1;fill:#c80201" /><g
       id="g4491"
       transform="translate(349.3506,42.5196)"
       style="fill-opacity:1;fill:#c80201" /><g
       id="g3565"
       transform="translate(938.96857,-702.2758)"
       style="fill-opacity:1;fill:#c80201" /><g
       id="g3783"
       transform="translate(938.96027,-662.5387)"
       style="fill-opacity:1;fill:#c80201" /><g
       id="g4452"
       transform="matrix(7.42063,0,0,7.42063,-2700.3048,3212.1352)"
       style="fill-opacity:1;fill:#c80201"><g
         transform="matrix(1.2103696,0,0,1.2103696,-58.315768,-65.857877)"
         id="g4749"
         style="fill-opacity:1;fill:#c80201"><g
           transform="matrix(0.40173676,0,0,-0.40173676,363.77355,-324.66149)"
           id="Layer_x0020_1"
           style="fill-opacity:1;fill:#c80201"><metadata
             id="CorelCorpID_0Corel-Layer"
             style="fill-opacity:1;fill:url(#linearGradient4338)" /><g
             id="g4607"
             transform="translate(27.667162,-18.444775)"
             style="fill-opacity:1;fill:#c80201"><path
               id="path4598"
               transform="matrix(0.34004134,0,0,0.34004134,-17.938189,-275.55444)"
               d="m 523.9375,922.28125 c -1.15419,-0.0146 -2.32654,-0.004 -3.5,0.0312 -14.88451,0.45302 -28.0053,5.04172 -38.78125,13.5625 -5.90469,4.66872 -12.06132,12.32642 -15.625,19.40625 -9.60474,19.08365 -9.76567,44.9614 -0.40625,64.0938 3.21032,6.5627 6.43814,11.0851 11.5,16.1562 10.24593,10.2652 22.98778,15.9839 39.40625,17.6563 2.52128,0.2568 13.98285,-0.07 16.53125,-0.4687 14.10217,-2.2101 25.43144,-7.5786 34.46875,-16.3126 10.51172,-10.1591 16.56015,-22.6664 18.75,-38.78125 0.56228,-4.13954 0.62726,-14.57506 0.125,-18.6875 -1.97914,-16.20536 -8.27658,-29.5089 -18.71875,-39.59375 -11.35373,-10.96517 -26.43721,-16.84281 -43.75,-17.0625 z m -0.53125,23.53125 c 3.20184,0.0287 6.3931,0.34319 9.28125,0.9375 15.02958,3.09231 24.61977,13.54382 27.40625,29.875 1.11013,6.50339 1.10984,15.7651 0,22.34375 -3.03001,17.96085 -14.4014,28.79185 -32.09375,30.62505 -2.79731,0.2898 -7.8402,0.269 -10.6875,-0.031 -9.07734,-0.9578 -16.25627,-4.1745 -21.875,-9.8125 -5.53324,-5.5522 -8.7497,-12.493 -10.28125,-22.25 -0.64654,-4.12027 -0.64201,-15.00806 0,-19.28125 0.55029,-3.66845 1.6478,-7.97674 2.6875,-10.59375 3.86109,-9.71972 10.88703,-16.47052 20.5625,-19.71875 4.25577,-1.42887 9.6636,-2.14155 15,-2.09375 z"
               style="fill:#c80201;fill-opacity:1"
               inkscape:connector-curvature="0" /><path
               id="path4594"
               transform="matrix(0.34004134,0,0,0.34004134,-17.938189,-275.55444)"
               d="m 794.375,922.375 c -6.99224,-0.0197 -8.89202,0.13973 -14.03125,1.15625 -21.75512,4.30299 -38.52662,19.20763 -45.5625,40.4375 -3.25275,9.81544 -4.5201,20.158 -3.6875,30.375 1.82387,22.38005 11.84677,39.75415 28.8125,50.00005 8.00032,4.8312 16.19448,7.4286 28.03125,8.8437 0.48641,0.058 4.18968,0.071 8.21875,0.031 5.76774,-0.057 8.18741,-0.1904 11.46875,-0.625 14.74697,-1.9512 27.55475,-6.3905 37.875,-13.0938 2.74646,-1.7838 5.59375,-3.8902 5.59375,-4.1562 0,-0.1141 -2.12824,-4.1223 -4.71875,-8.9063 l -4.71875,-8.6875 -1.375,0.9062 c -19.00057,12.1544 -46.94574,15.4306 -63.6875,7.5 -10.43523,-4.9432 -16.50463,-13.5099 -18.8125,-26.56245 l -0.15625,-0.8125 48.75,0 48.75,0 0.125,-0.5625 c 0.75164,-3.21964 1.0864,-12.06384 0.65625,-17.25 -0.61107,-7.35797 -1.60599,-12.39325 -3.6875,-18.71875 -6.48442,-19.70705 -20.8942,-33.07633 -40.9375,-38 -5.92425,-1.4554 -9.37431,-1.85393 -16.90625,-1.875 z m -2.0625,23.25 c 3.70033,-0.0689 7.90503,0.14657 10.40625,0.59375 7.29655,1.30429 12.80517,3.90101 17.46875,8.21875 5.55338,5.14131 9.10337,12.95514 9.59375,21.15625 l 0.15625,2.71875 -36.1875,0 -36.1875,0 0.15625,-1.5 c 0.57764,-5.526 2.81892,-11.73063 6,-16.5625 1.84131,-2.79672 6.09765,-7.01197 9,-8.90625 3.97943,-2.59624 8.66132,-4.36075 13.9375,-5.28125 1.37409,-0.23987 3.43605,-0.39614 5.65625,-0.4375 z"
               style="fill:#c80201;fill-opacity:1"
               inkscape:connector-curvature="0" /><path
               id="path4590"
               d="m 194.16171,70.954681 c 0,-6.488717 0.0341,-10.978812 0.0886,-11.659793 0.34852,-4.349149 1.45716,-7.153833 3.73347,-9.444583 2.41962,-2.434971 5.67385,-3.590991 9.7058,-3.447998 3.23161,0.11464 5.4849,1.003405 7.25916,2.862926 1.39287,1.459917 2.22094,3.166003 2.70427,5.5717 0.35303,1.75788 0.38803,2.564043 0.43441,10.049922 0.0606,9.752985 0.22282,12.919194 0.82622,16.126142 l 0.0931,0.493974 4.1824,0 4.18231,0 -0.1566,-0.966352 c -0.16275,-1.003098 -0.34126,-2.624331 -0.50811,-4.61671 -0.0581,-0.694595 -0.12395,-4.947222 -0.16408,-10.607666 -0.066,-9.339565 -0.0889,-10.055552 -0.39059,-12.196553 -0.44945,-3.191594 -1.52154,-6.09843 -3.02311,-8.197466 -1.23422,-1.725431 -3.27922,-3.586487 -5.04129,-4.588459 -4.41875,-2.512557 -10.40264,-2.990769 -15.50862,-1.239237 -1.85123,0.634921 -3.54504,1.569952 -5.0329,2.778174 -0.93329,0.757852 -2.31879,2.178362 -2.90725,2.980739 -0.23336,0.318433 -0.44719,0.578931 -0.47514,0.578931 -0.0278,0 -0.0969,-0.434915 -0.15343,-0.966353 -0.1609,-1.513757 -0.50789,-3.398559 -0.88559,-4.809858 l -0.0864,-0.322116 -4.10709,0 -4.10707,0 0.10829,0.622739 c 0.36624,2.108555 0.61128,4.985196 0.72572,8.523677 0.0459,1.417747 0.084,9.428718 0.0848,17.802134 l 0.001,15.224376 4.20872,0 4.20871,0 0,-10.55229 0,0 z"
               style="fill:#c80201;fill-opacity:1"
               inkscape:connector-curvature="0" /><path
               style="fill:#c80201;fill-opacity:1"
               d="m 494.5625,1160.375 0,5.3438 0,5.3437 5.6875,0 5.6875,0 0,-5.3437 0,-5.3438 -5.6875,0 -5.6875,0 z m 2.96875,1.5 1.5,0 c 1.35533,0 1.54326,0.017 1.84375,0.094 0.97214,0.2486 1.603,0.9247 1.65625,1.7812 0.0453,0.7275 -0.20813,1.2313 -0.78125,1.5938 l -0.1875,0.125 0.21875,0.062 c 0.55564,0.1957 1.0114,0.6109 1.25,1.0938 0.15923,0.3222 0.1875,0.3209 0.1875,0.8125 0,0.4908 -0.0299,0.525 -0.1875,0.8437 -0.35502,0.7184 -0.97389,1.1001 -1.96875,1.25 -0.30069,0.045 -0.82817,0.062 -1.96875,0.063 l -1.5625,0 0,-3.8438 0,-3.875 z m 1.375,1.2188 0,0.9687 0,1 0.5,0 c 0.26687,-4e-4 0.5924,-0.029 0.75,-0.062 0.69401,-0.1471 0.98232,-0.4735 0.9375,-1.0938 -0.0248,-0.3414 -0.13516,-0.5456 -0.4375,-0.6874 -0.2258,-0.1058 -0.30306,-0.1116 -1,-0.125 l -0.75,0 z m 0,3.1874 0,1.0626 0,1.0312 0.75,0 c 0.40925,-5e-4 0.8678,-0.01 1.03125,-0.031 0.71945,-0.104 1.125,-0.4676 1.125,-1.0313 0,-0.3566 -0.14015,-0.5707 -0.4375,-0.75 -0.35821,-0.216 -0.68092,-0.2813 -1.625,-0.2813 l -0.84375,0 z"
               transform="matrix(1.9913537,0,0,1.9913537,-933.16944,-2271.4564)"
               id="path4588"
               inkscape:connector-curvature="0" /><path
               style="fill:#c80201;fill-opacity:1"
               d="m 507.65625,1160.375 0,5.3438 0,5.3437 5.71875,0 5.71875,0 0,-5.3437 0,-5.3438 -5.71875,0 -5.71875,0 z m 3.03125,1.5 1.46875,0 c 1.66569,9e-4 1.88068,0.022 2.40625,0.2812 0.79316,0.3919 1.22179,1.1747 1.09375,2 -0.0268,0.1729 -0.0801,0.3987 -0.125,0.5 -0.099,0.2239 -0.41791,0.5761 -0.625,0.6876 -0.15682,0.084 -0.19815,0.1562 -0.0937,0.1562 0.14444,0 0.74737,0.3498 0.96875,0.5625 0.48764,0.4686 0.69846,1.2158 0.53125,1.8437 -0.20822,0.7823 -0.81127,1.3193 -1.75,1.5626 -0.32753,0.085 -0.50557,0.1077 -2.125,0.125 l -1.75,0 0,-3.8438 0,-3.875 z m 1.375,1.2188 0,1 0,1 0.625,-0.031 c 0.3652,-0.014 0.68826,-0.055 0.8125,-0.094 0.50655,-0.1594 0.75519,-0.4627 0.75,-0.9688 -0.003,-0.3177 -0.0806,-0.4875 -0.28125,-0.6562 -0.22416,-0.1887 -0.51605,-0.25 -1.25,-0.25 l -0.65625,0 z m 0,3.1874 0,1.0626 0,1.0624 0.9375,-0.031 c 0.79435,-0.017 0.93158,-0.011 1.1875,-0.094 0.72989,-0.2364 0.99452,-1.0348 0.53125,-1.5624 -0.30393,-0.3461 -0.71041,-0.4365 -1.84375,-0.4376 l -0.8125,0 z"
               transform="matrix(1.9913537,0,0,1.9913537,-933.16944,-2271.4564)"
               id="path4580"
               inkscape:connector-curvature="0" /><path
               style="fill:#c80201;fill-opacity:1"
               d="m 520.8125,1160.375 0,5.3438 0,5.3437 5.71875,0 5.6875,0 0,-5.3437 0,-5.3438 -5.6875,0 -5.71875,0 z m 5.9375,1.4062 c 0.82889,-0.046 1.64553,0.079 2.65625,0.4376 l 0.46875,0.1874 0,0.7188 c 0,0.3889 0.009,0.6875 0,0.6875 -0.009,0 -0.26144,-0.09 -0.53125,-0.2187 -0.95914,-0.4564 -1.59026,-0.6264 -2.46875,-0.5938 -0.45988,0.017 -0.62123,0.039 -0.96875,0.1562 -0.52537,0.1776 -0.86336,0.3915 -1.21875,0.75 -0.48178,0.486 -0.71993,1.1206 -0.71875,1.8438 0.002,0.768 0.23851,1.3405 0.75,1.8438 0.57394,0.5645 1.32032,0.8393 2.28125,0.8437 0.85161,0 1.56708,-0.1856 2.46875,-0.6563 l 0.5,-0.25 0,0.7188 0,0.7188 -0.28125,0.1562 c -0.809,0.3728 -1.50262,0.5083 -2.5,0.5312 -0.40334,0.01 -0.85073,0.021 -1,0 -1.55487,-0.219 -2.81263,-1.1353 -3.375,-2.4687 -0.33734,-0.8 -0.36936,-1.7362 -0.0937,-2.5937 0.43999,-1.3691 1.67462,-2.4154 3.1875,-2.7188 0.28557,-0.057 0.56745,-0.079 0.84375,-0.094 z"
               transform="matrix(1.9913537,0,0,1.9913537,-933.16944,-2271.4564)"
               id="path4572"
               inkscape:connector-curvature="0" /></g><sodipodi:namedview
             inkscape:current-layer="svg2413"
             inkscape:window-y="-8"
             inkscape:window-x="-8"
             inkscape:cy="-22.75906"
             inkscape:cx="1329.6704"
             inkscape:zoom="0.25612053"
             id="base"
             pagecolor="#ffffff"
             bordercolor="#666666"
             borderopacity="1.0"
             objecttolerance="10.0"
             gridtolerance="10.0"
             guidetolerance="10.0"
             inkscape:pageopacity="0.0"
             inkscape:pageshadow="2"
             inkscape:window-width="1280"
             inkscape:window-height="974"
             style="fill-opacity:1;fill:url(#linearGradient4338)" /></g></g></g></g></svg>