<svg height="296.19427" width="999" xmlns="http://www.w3.org/2000/svg"><g transform="matrix(2.5818855 0 0 2.5818855 1160.75676 638.661926)"><g fill="#fff"><g transform="translate(-260.95848 -267.1418)"><path d="m-22.598633 123.13947v6.40015h11.279297l.760498 4.47998h-17.159424v-25.88013h17.239991l-.841065 4.4397h-11.279297v6.08032h10.240479v4.47998z"/><path d="m12.522217 134.0196h-4.8400881c-.1066247-.507-.2132327-1.34684-.3198242-2.51953-.7739415.95947-1.707575 1.69922-2.8009033 2.21924-1.0933557.52002-2.1730665.78003-3.2391358.78003-2.3470132 0-4.3070536-.73324-5.8801269-2.19971-2.0800806-1.86686-3.1201186-4.56013-3.1201172-8.07983-.0000014-3.81347 1.226804-6.65363 3.6804199-8.52051 1.5999282-1.22638 3.38622201-1.83958 5.3588867-1.8396 2.5602084.00002 4.5202487.98675 5.880127 2.9602v-2.48046h4.8803709v14.16015c-.000021 2.26644.133442 4.10645.400391 5.52002zm-13.7609865-5.47974c.90738054.98634 2.14761368 1.4795 3.7207031 1.4795 1.5730663 0 2.8128925-.49316 3.7194824-1.4795.9065594-1.04003 1.3598467-2.48005 1.3598633-4.32006-.0000166-1.89371-.4533039-3.36059-1.3598633-4.40064-.9065899-.98631-2.1464161-1.47947-3.7194824-1.47949-1.57308942.00002-2.8131191.49338-3.7200928 1.4801-.9069893.98675-1.3604801 2.45342-1.3604736 4.40003-.0000065 1.89291.4532808 3.33293 1.3598633 4.32006z"/><path d="m15.911849 132.54011 1.599121-3.56079c1.760249 1.1735 3.453769 1.76026 5.080566 1.76025.906567.00001 1.633291-.18656 2.180176-.55969.546864-.37312.820301-.89335.820313-1.56067-.000012-.55989-.233369-1.03983-.700074-1.43982-.466725-.39998-1.046762-.72-1.740112-.96008-.693367-.24007-1.446744-.53995-2.260132-.89966-.813401-.35969-1.566777-.73953-2.260132-1.13953-.693363-.39997-1.273399-.99343-1.740112-1.78039-.466718-.78694-.700075-1.70043-.700073-2.74048-.000002-1.83999.720009-3.26658 2.160034-4.27979 1.440017-1.01316 3.146762-1.51975 5.120239-1.51977 2.34618.00002 4.385973.61322 6.119385 1.8396l-1.599121 3.40088c-1.413587-1.01398-2.853608-1.52098-4.320068-1.521-.799976.00002-1.406665.20001-1.820069.59998-.413418.4-.620124.85349-.620117 1.36047-.000007.55991.313307 1.05328.939941 1.4801.62662.42686 1.379996.80019 2.260132 1.12.880116.31983 1.760039.69317 2.639771 1.11999.879706.42685 1.632879 1.05348 2.259521 1.87989.626612.82642.939926 1.82638.939942 2.99987-.000016 2.02638-.733251 3.59294-2.199707 4.69971-1.466484 1.10677-3.293061 1.66016-5.479737 1.66016-1.093757 0-2.300624-.19328-3.620605-.57984-1.31999-.38655-2.339683-.84635-3.059082-1.37939z"/><path d="m45.778792 130.30012.440674 3.51929c-1.173516.45328-2.400322.67993-3.68042.67993-2.826343 0-4.866543-.82642-6.120605-2.47925-.986332-1.36067-1.479496-3.32071-1.479493-5.88013v-8.07983h-3.1604v-3.7207h3.1604v-5.75928h4.880371v5.75928h5.040284v3.7207h-5.040284v7.35962c-.000008 1.89291.253084 3.21289.759278 3.95996.533844.82683 1.427398 1.24024 2.680664 1.24023.95946.00001 1.799303-.1066 2.519531-.31982z"/></g><path d="m-259.96142-247.34715c-.68562-.009-1.38202-.002-2.07909.0185-8.84178.26911-16.63586 2.99491-23.03705 8.05647-3.50754 2.77334-7.16473 7.32221-9.28165 11.52781-5.70546 11.33618-5.80106 26.70822-.24132 38.07335 1.90701 3.89842 3.82442 6.58484 6.83129 9.5972 6.08634 6.09779 13.65533 9.49484 23.40832 10.48829 1.4977.15255 8.30617-.0416 9.81998-.27842 8.37705-1.31285 15.10693-4.50188 20.47532-9.6901 6.24423-6.03476 9.83715-13.46442 11.13798-23.03705.33401-2.45899.37261-8.65796.0743-11.10085-1.17566-9.6264-4.9165-17.52904-11.11941-23.5197-6.74441-6.51359-15.70438-10.00506-25.98862-10.13556zm-.31557 13.97816c1.90197.017 3.79766.20387 5.51329.5569 8.92796 1.83691 14.62478 8.04538 16.28002 17.74651.65944 3.86318.65927 9.36488 0 13.27276-1.79991 10.6692-8.5548 17.1031-19.06451 18.19206-1.66167.17215-4.65728.1598-6.34865-.0184-5.39217-.56896-9.65664-2.47976-12.99431-5.82888-3.28688-3.29815-5.19754-7.42116-6.10732-13.21707-.38406-2.44754-.38137-8.91517 0-11.45355.32688-2.17915.97883-4.73839 1.59644-6.29296 2.29359-5.77376 6.46718-9.78391 12.21465-11.71344 2.52804-.84878 5.74043-1.27213 8.91039-1.24374z"/><path d="m-99.31464-247.29146c-4.15357-.0117-5.28209.083-8.33492.68684-12.9231 2.55609-22.8858 11.40982-27.06529 24.02091-1.93222 5.83062-2.68505 11.97436-2.19047 18.04352 1.08343 13.29432 7.03729 23.61498 17.11536 29.70131 4.7524 2.86986 9.61994 4.41278 16.65128 5.25338.28894.0345 2.48878.0422 4.882148.0184 3.426185-.0339 4.863531-.1131 6.812731-.37127 8.760076-1.15906 16.368225-3.79612 22.498717-7.77805 1.631467-1.05962 3.32283-2.31088 3.32283-2.46889 0-.0678-1.264229-2.44875-2.803058-5.29057l-2.803058-5.1606-.816785.53831c-11.286824 7.22002-27.886968 9.16617-37.832005 4.45519-6.19879-2.93638-9.80417-8.02522-11.1751-15.77877l-.0928-.48265h28.958747 28.958744l.07425-.33414c.446493-1.91254.645349-7.16623.389829-10.24694-.362991-4.37082-.953999-7.3619-2.190469-11.11941-3.851911-11.70649-12.411689-19.64819-24.31792-22.57297-3.519156-.86455-5.56858-1.10128-10.042745-1.1138zm-1.22518 13.81109c2.198093-.0409 4.695792.0871 6.181581.3527 4.334337.77479 7.606598 2.3173 10.376883 4.88215 3.29885 3.05407 5.407635 7.69569 5.698933 12.56735l.09282 1.61501h-21.496299-21.496294l.0928-.89104c.34313-3.28258 1.67451-6.96829 3.56416-9.83854 1.09378-1.66133 3.62216-4.16529 5.34623-5.29054 2.36388-1.54224 5.14504-2.5904 8.27923-3.1372.81624-.14249 2.0411-.23532 3.35995-.25989z"/><path d="m-200.67179-189.88152c0-11.33528.0596-19.17912.15477-20.36875.60884-7.59762 2.54555-12.49718 6.52208-16.49894 4.22689-4.2537 9.91177-6.27318 16.95527-6.02338 5.64537.20026 9.58169 1.75287 12.68119 5.0013 2.43323 2.55037 3.8798 5.53076 4.72414 9.73333.61672 3.07088.67786 4.47918.75888 17.55642.10587 17.0377.38925 22.56882 1.44334 28.17111l.16264.86293h7.30633 7.30616l-.27356-1.68814c-.28431-1.75233-.59616-4.5845-.88763-8.06503-.1015-1.2134-.21653-8.64241-.28664-18.53076-.11529-16.31549-.1553-17.56626-.68233-21.30642-.78515-5.57547-2.65801-10.65348-5.28113-14.32033-2.15609-3.01419-5.72854-6.26531-8.80674-8.01568-7.71921-4.38924-18.1726-5.22464-27.09234-2.16485-3.23396 1.10916-6.19291 2.74258-8.79208 4.85325-1.63039 1.32391-4.05075 3.80543-5.07874 5.20712-.40766.55628-.78121 1.01135-.83003 1.01135-.0486 0-.16928-.75976-.26803-1.68815-.28108-2.64441-.88725-5.93701-1.54706-8.40244l-.15093-.56271h-7.17477-7.17473l.18918 1.08788c.63979 3.68348 1.06786 8.70874 1.26777 14.89019.0802 2.47669.14675 16.47123.14814 31.09893l.002 26.59579h7.3523 7.35229v-18.43402z"/></g><g fill="#c80201"><path d="m-449.57714-245.2485v18.58969 18.58933h19.78532 19.78533v-18.58933-18.58969h-19.78533zm10.3275 5.21811h5.21811c4.71484 0 5.3686.0591 6.41393.327 3.38182.86482 5.57641 3.21679 5.76166 6.19633.15758 2.53078-.72403 4.28337-2.71777 5.54442l-.65226.43484.76097.21568c1.93293.68079 3.5184 2.12516 4.34843 3.80504.55392 1.12085.65226 1.11633.65226 2.82648 0 1.70736-.10401 1.82634-.65226 2.93501-1.23503 2.49913-3.38791 3.82696-6.84877 4.34842-1.04602.15655-2.88099.21569-6.84877.21916h-5.43553v-13.37157-13.48011zm4.78327 4.23989v3.36985 3.47874h1.73937c.92837-.001 2.0608-.10088 2.60905-.21568 2.41428-.51172 3.41724-1.64718 3.26132-3.80505-.0863-1.18764-.47019-1.898-1.52195-2.39128-.7855-.36805-1.05426-.38823-3.47874-.43484h-2.60905zm0 11.08813v3.69651 3.58727h2.60905c1.42368-.002 3.01885-.0348 3.58745-.10784 2.50278-.36179 3.91358-1.62666 3.91358-3.58762 0-1.24052-.48754-1.98532-1.52194-2.60906-1.24612-.7514-2.36875-.97857-5.65295-.97857h-2.93519z"/><path d="m-404.02741-245.2485v18.58969 18.58933h19.89404 19.89404v-18.58933-18.58969h-19.89404zm10.54493 5.21811h5.1094c5.7945.003 6.54239.0765 8.37071.97822 2.7592 1.36332 4.25029 4.08648 3.80487 6.95748-.0932.60147-.27865 1.38697-.43484 1.73937-.3444.77889-1.4538 2.0041-2.17421 2.39198-.54554.29221-.68931.54338-.32596.54338.50247 0 2.5999 1.21686 3.37003 1.95679 1.69637 1.63014 2.42976 4.22945 1.84808 6.41375-.72435 2.72142-2.8222 4.5895-6.0878 5.43588-1.13939.29569-1.75874.37466-7.39231.43484h-6.0878v-13.37158-13.48011zm4.78326 4.23989v3.47874 3.47873l2.17422-.10784c1.27043-.0487 2.39427-.19133 2.82647-.327 1.76216-.55451 2.62711-1.60961 2.60906-3.3702-.0104-1.10519-.28039-1.69588-.9784-2.28275-.77979-.65644-1.7952-.86968-4.34842-.86968zm0 11.08813v3.69651 3.69581l3.26132-.10784c2.76334-.0591 3.24073-.0383 4.131-.327 2.5391-.82238 3.45968-3.5998 1.84808-5.43519-1.05729-1.20399-2.47133-1.51846-6.41392-1.52229z"/><path d="m-358.26025-245.2485v18.58969 18.58933h19.89403 19.78533v-18.58933-18.58969h-19.78533zm20.65501 4.89181c2.88349-.16003 5.72437.27482 9.2404 1.52229l1.63066.65192v2.50051c0 1.35289.0313 2.39164 0 2.39164s-.90949-.31309-1.84808-.7608c-3.3366-1.5877-5.5321-2.17909-8.58814-2.06568-1.5998.0591-2.1611.13567-3.37003.54338-1.82762.61782-3.0034 1.36193-4.23971 2.60905-1.67599 1.69067-2.50445 3.89828-2.50034 6.4141.007 2.67167.82971 4.66325 2.60905 6.4141 1.99659 1.96375 4.59305 2.91971 7.93587 2.93501 2.96253 0 5.45146-.64565 8.58814-2.28309l1.73937-.86969v2.50052 2.50052l-.9784.54338c-2.8143 1.29687-5.22722 1.76824-8.69684 1.8479-1.40312.0348-2.95947.0731-3.47874 0-5.40899-.76184-9.78441-3.94941-11.74075-8.58796-1.17351-2.78299-1.2849-6.03979-.32595-9.0228 1.53061-4.76275 5.82556-8.40255 11.08848-9.458.99342-.19829 1.97401-.27482 2.93518-.327z"/></g></g></svg>