<?xml version="1.0" encoding="UTF-8" standalone="no"?>
<!-- Created with Inkscape (http://www.inkscape.org/) -->

<svg
   xmlns:dc="http://purl.org/dc/elements/1.1/"
   xmlns:cc="http://creativecommons.org/ns#"
   xmlns:rdf="http://www.w3.org/1999/02/22-rdf-syntax-ns#"
   xmlns:svg="http://www.w3.org/2000/svg"
   xmlns="http://www.w3.org/2000/svg"
   xmlns:sodipodi="http://sodipodi.sourceforge.net/DTD/sodipodi-0.dtd"
   xmlns:inkscape="http://www.inkscape.org/namespaces/inkscape"
   width="1283.1625"
   height="264.39914"
   id="svg11827"
   version="1.1"
   inkscape:version="0.91 r13725"
   sodipodi:docname="BBC Red Button 1 247.svg">
  <defs
     id="defs11829" />
  <sodipodi:namedview
     id="base"
     pagecolor="#ffffff"
     bordercolor="#666666"
     borderopacity="1.0"
     inkscape:pageopacity="0.0"
     inkscape:pageshadow="2"
     inkscape:zoom="1.1566406"
     inkscape:cx="633.50314"
     inkscape:cy="179.85661"
     inkscape:document-units="px"
     inkscape:current-layer="layer1"
     showgrid="false"
     showguides="true"
     inkscape:guide-bbox="true"
     fit-margin-left="0"
     fit-margin-bottom="0"
     fit-margin-top="0"
     fit-margin-right="0"
     inkscape:window-width="1920"
     inkscape:window-height="1017"
     inkscape:window-x="-8"
     inkscape:window-y="-8"
     inkscape:window-maximized="1">
    <inkscape:grid
       type="xygrid"
       id="grid11846"
       empspacing="5"
       visible="true"
       enabled="true"
       snapvisiblegridlinesonly="true"
       originx="151.60948"
       originy="-369.25239" />
  </sodipodi:namedview>
  <metadata
     id="metadata11832">
    <rdf:RDF>
      <cc:Work
         rdf:about="">
        <dc:format>image/svg+xml</dc:format>
        <dc:type
           rdf:resource="http://purl.org/dc/dcmitype/StillImage" />
        <dc:title></dc:title>
      </cc:Work>
    </rdf:RDF>
  </metadata>
  <g
     inkscape:label="Layer 1"
     inkscape:groupmode="layer"
     id="layer1"
     transform="translate(151.60948,-418.71056)">
    <circle
       style="fill:#ff1900;fill-opacity:1;fill-rule:evenodd;stroke:none"
       id="path11954"
       transform="matrix(1.0731698,0,0,1.0731698,-14.836262,-70.977418)"
       cx="315.1485"
       cy="579.48663"
       r="123.18607" />
    <g
       id="g11874"
       transform="matrix(1.0974221,0,0,1.0974221,-181.94025,-530.53328)"
       style="fill:#ffffff;fill-opacity:1">
      <g
         id="g11876"
         style="fill:#ffffff;fill-opacity:1"
         transform="matrix(0.82302261,0,0,-0.82302261,189.63913,997.27701)">
        <path
           id="path11878"
           d="m 0,0 c 0,-11.25 -14,-10.583 -14,-10.583 l -14,0 0,20.333 14,0 C 0.417,9.833 0,0 0,0 m -28,40.75 10.667,0 c 11.083,-0.584 10.666,-8.833 10.666,-8.833 0,-10.25 -12.25,-10.417 -12.25,-10.417 l -9.083,0 0,19.25 z M -2.583,17.5 c 0,0 9.583,4.083 9.5,14.917 0,0 1.457,17.749 -22.063,19.916 l -26.104,0 0,-74.416 29.917,0 c 0,0 25,-0.084 25,21 0,0 0.583,14.333 -16.25,18.583 m -67.545,49.4156 109.878,0 0,-103.544 -109.878,0 0,103.544 z"
           style="fill:#ffffff;fill-rule:nonzero;fill-opacity:1"
           inkscape:connector-curvature="0" />
      </g>
      <g
         id="g11880"
         style="fill:#ffffff;fill-opacity:1"
         transform="matrix(0.82302261,0,0,-0.82302261,85.355129,997.27701)">
        <path
           id="path11882"
           style="fill:#ffffff;fill-rule:nonzero;fill-opacity:1"
           d="m 0,0 c 0,-11.25 -14,-10.583 -14,-10.583 l -14,0 0,20.333 14,0 C 0.417,9.833 0,0 0,0 m -28,40.75 10.667,0 c 11.083,-0.584 10.666,-8.833 10.666,-8.833 0,-10.25 -12.25,-10.417 -12.25,-10.417 l -9.083,0 0,19.25 z M -2.583,17.5 c 0,0 9.583,4.083 9.5,14.917 0,0 1.457,17.749 -22.063,19.916 l -26.104,0 0,-74.416 29.917,0 c 0,0 25,-0.084 25,21 0,0 0.583,14.333 -16.25,18.583 m -67.545,49.4156 109.878,0 0,-103.544 -109.878,0 0,103.544 z"
           inkscape:connector-curvature="0" />
      </g>
      <g
         id="g11884"
         style="fill:#ffffff;fill-opacity:1"
         transform="matrix(0.82302261,0,0,-0.82302261,308.1885,958.5961)">
        <path
           id="path11886"
           style="fill:#ffffff;fill-rule:nonzero;fill-opacity:1"
           d="m 0,0 0,-13.75 c 0,0 -13.417,8.25 -28.25,8.417 0,0 -27.666,0.54 -28.916,-26.522 0,0 -1,-24.895 28.583,-26.312 0,0 12.417,-1.5 29.25,9.25 l 0,-14.25 c 0,0 -22.583,-13.416 -48.75,-3.083 0,0 -22,8.04 -22.834,34.395 0,0 -0.917,27.105 28.417,36.105 0,0 7.834,3 21.917,1.667 0,0 8.416,-0.834 20.583,-5.917 m -87.461,-83.627 109.878,0 0,103.544 -109.878,0 0,-103.544 z"
           inkscape:connector-curvature="0" />
      </g>
    </g>
    <path
       inkscape:connector-curvature="0"
       id="path11942"
       style="font-style:normal;font-variant:normal;font-weight:normal;font-stretch:normal;font-size:medium;line-height:125%;font-family:'Gill Sans MT';-inkscape-font-specification:'Gill Sans MT';letter-spacing:0px;word-spacing:0px;fill:#ffffff;fill-opacity:1;stroke:none"
       d="m 492.6765,582.66529 -22.65066,0 0,-66.89848 17.52674,0 c 5.52296,7e-5 9.8328,0.74234 12.92956,2.22677 3.09665,1.48456 5.45909,3.52774 7.0873,6.12957 1.62813,2.60193 2.44221,5.61083 2.44226,9.02674 -5e-5,6.57656 -3.40004,11.28547 -10.19999,14.12674 4.88446,0.92584 8.77131,2.93712 11.66054,6.03378 2.88914,3.09675 4.33376,6.80001 4.3338,11.10984 -4e-5,3.41598 -0.87799,6.4648 -2.6338,9.14646 -1.75592,2.68171 -4.33385,4.86854 -7.73379,6.56055 -3.40003,1.69203 -7.65402,2.53803 -12.76196,2.53803 z m -4.83659,-58.37453 -8.23662,0 0,20.11263 6.36901,0 c 5.10794,4e-5 8.73939,-0.97367 10.89435,-2.92111 2.15489,-1.94739 3.23234,-4.46944 3.23239,-7.56619 -5e-5,-6.41685 -4.08641,-9.62528 -12.25913,-9.62533 z m 0.71831,28.63655 -8.95493,0 0,21.21406 9.43379,0 c 5.23563,0 8.78728,-0.40703 10.65491,-1.22113 1.86755,-0.81408 3.36802,-2.08307 4.5014,-3.80703 1.13329,-1.72392 1.69995,-3.57557 1.7,-5.55493 -5e-5,-2.04315 -0.59864,-3.91076 -1.79576,-5.60279 -1.19723,-1.69201 -2.89723,-2.95303 -5.1,-3.7831 -2.20284,-0.83001 -5.68265,-1.24503 -10.43941,-1.24508 z" />
    <path
       inkscape:connector-curvature="0"
       id="path11944"
       style="font-style:normal;font-variant:normal;font-weight:normal;font-stretch:normal;font-size:medium;line-height:125%;font-family:'Gill Sans MT';-inkscape-font-specification:'Gill Sans MT';letter-spacing:0px;word-spacing:0px;fill:#ffffff;fill-opacity:1;stroke:none"
       d="m 569.97875,515.76681 9.62533,0 0,37.9746 c -7e-5,5.13991 -0.37518,9.01878 -1.12536,11.63659 -0.75029,2.61784 -1.6761,4.79671 -2.77746,6.5366 -1.10146,1.73991 -2.45028,3.29626 -4.04647,4.66901 -5.29957,4.56525 -12.22726,6.84788 -20.78305,6.84788 -8.71551,0 -15.70704,-2.26667 -20.97462,-6.79999 -1.59626,-1.40468 -2.94509,-2.97699 -4.04647,-4.7169 -1.10141,-1.73989 -2.01128,-3.87087 -2.72957,-6.39294 -0.71831,-2.52205 -1.07748,-6.48072 -1.07746,-11.87604 l 0,-37.87881 9.62534,0 0,37.9746 c -3e-5,6.28921 0.71828,10.6629 2.15491,13.1211 1.4366,2.45823 3.62345,4.42957 6.56055,5.91408 2.93706,1.4845 6.40091,2.22675 10.39155,2.22675 5.68257,0 10.31167,-1.48449 13.88729,-4.45353 1.88352,-1.59621 3.24031,-3.47978 4.0704,-5.65067 0.82999,-2.17088 1.24504,-5.89012 1.24509,-11.15773 z" />
    <path
       inkscape:connector-curvature="0"
       id="path11946"
       style="font-style:normal;font-variant:normal;font-weight:normal;font-stretch:normal;font-size:medium;line-height:125%;font-family:'Gill Sans MT';-inkscape-font-specification:'Gill Sans MT';letter-spacing:0px;word-spacing:0px;fill:#ffffff;fill-opacity:1;stroke:none"
       d="m 586.16627,515.67104 55.88441,0 0,8.52392 -23.32108,0 0,58.47033 -9.62534,0 0,-58.47033 -22.93799,0 z" />
    <path
       inkscape:connector-curvature="0"
       id="path11948"
       style="font-style:normal;font-variant:normal;font-weight:normal;font-stretch:normal;font-size:medium;line-height:125%;font-family:'Gill Sans MT';-inkscape-font-specification:'Gill Sans MT';letter-spacing:0px;word-spacing:0px;fill:#ffffff;fill-opacity:1;stroke:none"
       d="m 647.9943,515.67104 55.88442,0 0,8.52392 -23.32109,0 0,58.47033 -9.62533,0 0,-58.47033 -22.938,0 z" />
    <path
       inkscape:connector-curvature="0"
       id="path11950"
       style="font-style:normal;font-variant:normal;font-weight:normal;font-stretch:normal;font-size:medium;line-height:125%;font-family:'Gill Sans MT';-inkscape-font-specification:'Gill Sans MT';letter-spacing:0px;word-spacing:0px;fill:#ffffff;fill-opacity:1;stroke:none"
       d="m 738.03386,514.80908 c 10.3436,7e-5 18.95532,3.27235 25.83517,9.81689 6.87973,6.54464 10.31964,14.74931 10.31972,24.61404 -8e-5,9.86477 -3.47191,18.02955 -10.41549,24.49431 -6.94369,6.46478 -15.69907,9.69717 -26.26615,9.69717 -10.08826,0 -18.49248,-3.23239 -25.21262,-9.69717 -6.72019,-6.46476 -10.08027,-14.56567 -10.08027,-24.30278 0,-9.99242 3.38404,-18.26093 10.15208,-24.80557 6.76805,-6.54454 15.3239,-9.81682 25.66756,-9.81689 z m 0.3831,9.09858 c -7.66198,5e-5 -13.95915,2.3944 -18.89149,7.18307 -4.93242,4.78878 -7.39861,10.90236 -7.39859,18.34081 -2e-5,7.21504 2.47417,13.21692 7.42252,18.0056 4.94832,4.78874 11.14173,7.1831 18.58026,7.1831 7.47035,0 13.70367,-2.44224 18.69996,-7.32675 4.99616,-4.88448 7.49428,-10.96616 7.49435,-18.24505 -7e-5,-7.08727 -2.49819,-13.04921 -7.49435,-17.88587 -4.99629,-4.83655 -11.13382,-7.25486 -18.41266,-7.25491 z" />
    <path
       inkscape:connector-curvature="0"
       id="path11952"
       style="font-style:normal;font-variant:normal;font-weight:normal;font-stretch:normal;font-size:medium;line-height:125%;font-family:'Gill Sans MT';-inkscape-font-specification:'Gill Sans MT';letter-spacing:0px;word-spacing:0px;fill:#ffffff;fill-opacity:1;stroke:none"
       d="m 838.29193,515.76681 9.09858,0 0,66.89848 -8.23659,0 -44.72669,-51.47877 0,51.47877 -9.00282,0 0,-66.89848 7.75775,0 45.10977,51.90978 z" />
    <g
       transform="matrix(2.4517865,0,0,2.4517865,-344.58239,-298.044)"
       style="font-style:normal;font-weight:normal;font-size:40px;line-height:125%;font-family:Sans;letter-spacing:0px;word-spacing:0px;fill:#ffffff;fill-opacity:1;stroke:none"
       id="flowRoot11907">
      <path
         d="m 230.81903,332.16638 14.26671,0 c 2.62847,3e-5 4.76491,0.76073 6.40935,2.28212 1.6444,1.52143 2.51146,3.85671 2.51149,6.01904 -3e-5,2.99104 -0.97108,5.15892 -3.73741,6.68819 0,0 1.71131,1.16231 3.25211,4.45233 1.22358,2.71912 2.4051,5.28286 3.54455,7.69121 l -8.93169,0 c -0.44026,-0.89343 -0.98315,-1.96813 -2.07726,-4.48008 -1.09413,-2.51194 -2.03288,-4.12398 -2.81623,-4.83614 -0.78337,-0.71215 -1.62177,-1.06822 -2.51519,-1.06823 l -1.94222,0 0,10.38445 -7.96421,0 z m 7.96421,5.44785 0,5.70052 2.90763,0 c 1.13942,2e-5 2.2963,-0.0466 2.96314,-0.584 0.66682,-0.53733 0.74651,-1.05077 0.74651,-2.0478 0,-2.04579 -1.28836,-3.06869 -3.86503,-3.06872 z"
         style="font-variant:normal;font-weight:bold;font-stretch:normal;font-family:'Gill Sans MT';-inkscape-font-specification:'Gill Sans MT Bold';fill:#ffffff"
         id="path11935"
         inkscape:connector-curvature="0"
         sodipodi:nodetypes="ccccccccsccccccccccscc" />
      <path
         d="m 280.50674,353.38521 0,5.91406 -20.81232,0 0,-27.13289 20.54041,0 0,5.4655 -12.0321,0 0,4.83848 11.43001,0 0,5.60006 -11.43001,0 0,5.31479 z"
         style="font-variant:normal;font-weight:bold;font-stretch:normal;font-family:'Gill Sans MT';-inkscape-font-specification:'Gill Sans MT Bold';fill:#ffffff"
         id="path11937"
         inkscape:connector-curvature="0"
         sodipodi:nodetypes="ccccccccccccc" />
      <path
         d="m 285.13443,332.16638 13.13035,0 c 4.62248,0 8.2771,1.26571 10.96387,3.79705 2.68672,2.53139 4.03009,5.80404 4.03012,9.81795 0,7.99325 -4.75182,13.44504 -12.70658,13.51789 l -15.41776,0 z m 8.19432,5.64492 0,15.52906 3.24261,0 c 6.10104,0 7.85032,-2.79714 7.85032,-7.59782 0,-6.60585 -3.53203,-7.88325 -8.19713,-7.93124 z"
         style="font-variant:normal;font-weight:bold;font-stretch:normal;font-family:'Gill Sans MT';-inkscape-font-specification:'Gill Sans MT Bold';fill:#ffffff"
         id="path11939"
         inkscape:connector-curvature="0"
         sodipodi:nodetypes="csccccccccccc" />
    </g>
    <path
       style="font-style:normal;font-variant:normal;font-weight:normal;font-stretch:normal;font-size:medium;line-height:125%;font-family:'Gill Sans MT';-inkscape-font-specification:'Gill Sans MT';letter-spacing:0px;word-spacing:0px;fill:#ffffff;fill-opacity:1;stroke:none;stroke-width:1px;stroke-linecap:butt;stroke-linejoin:miter;stroke-opacity:1"
       inkscape:connector-curvature="0"
       id="path4255-9"
       d="m 901.40726,514.9053 9.57744,0 0,66.8984 -9.57744,0 0,-66.8984 z" />
    <path
       style="font-style:normal;font-variant:normal;font-weight:normal;font-stretch:normal;font-size:medium;line-height:125%;font-family:'Gill Sans MT';-inkscape-font-specification:'Gill Sans MT';letter-spacing:0px;word-spacing:0px;fill:#ffffff;fill-opacity:1;stroke:none;stroke-width:1px;stroke-linecap:butt;stroke-linejoin:miter;stroke-opacity:1"
       inkscape:connector-curvature="0"
       id="path4257-4"
       d="m 978.02674,572.56147 25.47596,0 0,9.24223 -42.33224,0 0,-0.67043 4.02251,-4.74082 q 9.43378,-11.68449 14.9887,-19.8253 5.60279,-8.14081 7.27885,-12.307 1.72393,-4.16619 1.72393,-8.23661 0,-5.65066 -3.20843,-9.05066 -3.20846,-3.44787 -8.52394,-3.44787 -4.02251,0 -7.94925,2.39435 -3.87886,2.34647 -6.99154,6.65631 l 0,-12.16333 q 7.80562,-6.369 16.09009,-6.369 8.76335,0 14.41404,5.84223 5.69858,5.84225 5.69858,14.84503 0,4.02254 -1.43662,8.6197 -1.38871,4.54926 -4.98027,10.53517 -3.59153,5.93802 -12.21123,16.23374 l -2.05914,2.44226 z" />
    <path
       style="font-style:normal;font-variant:normal;font-weight:normal;font-stretch:normal;font-size:medium;line-height:125%;font-family:'Gill Sans MT';-inkscape-font-specification:'Gill Sans MT';letter-spacing:0px;word-spacing:0px;fill:#ffffff;fill-opacity:1;stroke:none;stroke-width:1px;stroke-linecap:butt;stroke-linejoin:miter;stroke-opacity:1"
       inkscape:connector-curvature="0"
       id="path4259-9"
       d="m 1041.6688,514.04334 3.9267,0 0,37.54355 7.4704,0 0,8.14081 -7.4704,0 0,22.076 -9.338,0 0,-22.076 -28.3013,0 0,-4.11828 33.7126,-41.56608 z m -5.4113,37.54355 0,-19.39432 -15.4675,19.39432 15.4675,0 z" />
    <path
       style="font-style:normal;font-variant:normal;font-weight:normal;font-stretch:normal;font-size:medium;line-height:125%;font-family:'Gill Sans MT';-inkscape-font-specification:'Gill Sans MT';letter-spacing:0px;word-spacing:0px;fill:#ffffff;fill-opacity:1;stroke:none;stroke-width:1px;stroke-linecap:butt;stroke-linejoin:miter;stroke-opacity:1"
       inkscape:connector-curvature="0"
       id="path4261-4"
       d="m 1056.1307,582.66566 19.2507,-68.6702 6.8957,0 -19.2027,68.6702 -6.9437,0 z" />
    <path
       style="font-style:normal;font-variant:normal;font-weight:normal;font-stretch:normal;font-size:medium;line-height:125%;font-family:'Gill Sans MT';-inkscape-font-specification:'Gill Sans MT';letter-spacing:0px;word-spacing:0px;fill:#ffffff;fill-opacity:1;stroke:none;stroke-width:1px;stroke-linecap:butt;stroke-linejoin:miter;stroke-opacity:1"
       inkscape:connector-curvature="0"
       id="path4263-8"
       d="m 1088.263,514.9053 43.29,0 -30.3126,67.66459 -8.5239,-3.59153 24.5182,-54.9266 -28.9717,0 0,-9.14646 z" />
  </g>
</svg>
