<?xml version="1.0" encoding="UTF-8" standalone="no"?>
<!-- Created with Inkscape (http://www.inkscape.org/) -->

<svg
   xmlns:dc="http://purl.org/dc/elements/1.1/"
   xmlns:cc="http://creativecommons.org/ns#"
   xmlns:rdf="http://www.w3.org/1999/02/22-rdf-syntax-ns#"
   xmlns:svg="http://www.w3.org/2000/svg"
   xmlns="http://www.w3.org/2000/svg"
   xmlns:sodipodi="http://sodipodi.sourceforge.net/DTD/sodipodi-0.dtd"
   xmlns:inkscape="http://www.inkscape.org/namespaces/inkscape"
   id="svg2985"
   version="1.1"
   inkscape:version="0.91 r13725"
   width="999"
   height="296.19443"
   xml:space="preserve"
   sodipodi:docname="BBC One Oxford - Dark.svg"
   hola_ext_inject="disabled"><metadata
     id="metadata2991"><rdf:RDF><cc:Work
         rdf:about=""><dc:format>image/svg+xml</dc:format><dc:type
           rdf:resource="http://purl.org/dc/dcmitype/StillImage" /><dc:title></dc:title></cc:Work></rdf:RDF></metadata><defs
     id="defs2989"><clipPath
       clipPathUnits="userSpaceOnUse"
       id="clipPath3003"><path
         d="m 0,0 841.89,0 0,595.276 L 0,595.276 0,0 Z"
         id="path3005"
         inkscape:connector-curvature="0" /></clipPath><clipPath
       clipPathUnits="userSpaceOnUse"
       id="clipPath3023"><path
         d="m 0,0 841.89,0 0,595.276 L 0,595.276 0,0 Z"
         id="path3025"
         inkscape:connector-curvature="0" /></clipPath><clipPath
       clipPathUnits="userSpaceOnUse"
       id="clipPath3051"><path
         d="m 0,0 841.89,0 0,595.276 L 0,595.276 0,0 Z"
         id="path3053"
         inkscape:connector-curvature="0" /></clipPath><clipPath
       clipPathUnits="userSpaceOnUse"
       id="clipPath3075"><path
         d="m 0,0 841.89,0 0,595.276 L 0,595.276 0,0 Z"
         id="path3077"
         inkscape:connector-curvature="0" /></clipPath><clipPath
       clipPathUnits="userSpaceOnUse"
       id="clipPath3195"><path
         d="m 0,0 841.89,0 0,595.276 L 0,595.276 0,0 Z"
         id="path3197"
         inkscape:connector-curvature="0" /></clipPath><clipPath
       clipPathUnits="userSpaceOnUse"
       id="clipPath3209"><path
         d="m 49.094,354.329 287.15,0 0,-161.734 -287.15,0 0,161.734 z"
         id="path3211"
         inkscape:connector-curvature="0" /></clipPath><clipPath
       clipPathUnits="userSpaceOnUse"
       id="clipPath3233"><path
         d="m 0,0 841.89,0 0,595.276 L 0,595.276 0,0 Z"
         id="path3235"
         inkscape:connector-curvature="0" /></clipPath><clipPath
       clipPathUnits="userSpaceOnUse"
       id="clipPath3257"><path
         d="m 0,0 841.89,0 0,595.276 L 0,595.276 0,0 Z"
         id="path3259"
         inkscape:connector-curvature="0" /></clipPath><clipPath
       clipPathUnits="userSpaceOnUse"
       id="clipPath3297"><path
         d="m 0,0 841.89,0 0,595.276 L 0,595.276 0,0 Z"
         id="path3299"
         inkscape:connector-curvature="0" /></clipPath><clipPath
       clipPathUnits="userSpaceOnUse"
       id="clipPath3313"><path
         d="m 0,0 841.89,0 0,595.276 L 0,595.276 0,0 Z"
         id="path3315"
         inkscape:connector-curvature="0" /></clipPath><clipPath
       clipPathUnits="userSpaceOnUse"
       id="clipPath3341"><path
         d="m 0,0 841.89,0 0,595.276 L 0,595.276 0,0 Z"
         id="path3343"
         inkscape:connector-curvature="0" /></clipPath><clipPath
       clipPathUnits="userSpaceOnUse"
       id="clipPath3419"><path
         d="m 0,0 841.89,0 0,595.276 L 0,595.276 0,0 Z"
         id="path3421"
         inkscape:connector-curvature="0" /></clipPath><clipPath
       clipPathUnits="userSpaceOnUse"
       id="clipPath3465"><path
         d="m 0,0 841.89,0 0,595.276 L 0,595.276 0,0 Z"
         id="path3467"
         inkscape:connector-curvature="0" /></clipPath><clipPath
       clipPathUnits="userSpaceOnUse"
       id="clipPath3489"><path
         d="m 0,0 841.89,0 0,595.276 L 0,595.276 0,0 Z"
         id="path3491"
         inkscape:connector-curvature="0" /></clipPath><clipPath
       clipPathUnits="userSpaceOnUse"
       id="clipPath3511"><path
         d="m 0,0 841.89,0 0,595.276 L 0,595.276 0,0 Z"
         id="path3513"
         inkscape:connector-curvature="0" /></clipPath><clipPath
       clipPathUnits="userSpaceOnUse"
       id="clipPath3533"><path
         d="m 0,0 841.89,0 0,595.276 L 0,595.276 0,0 Z"
         id="path3535"
         inkscape:connector-curvature="0" /></clipPath><clipPath
       clipPathUnits="userSpaceOnUse"
       id="clipPath3615"><path
         d="m 0,0 841.89,0 0,595.276 L 0,595.276 0,0 Z"
         id="path3617"
         inkscape:connector-curvature="0" /></clipPath><clipPath
       clipPathUnits="userSpaceOnUse"
       id="clipPath3659"><path
         d="m 0,0 841.89,0 0,595.276 L 0,595.276 0,0 Z"
         id="path3661"
         inkscape:connector-curvature="0" /></clipPath><clipPath
       clipPathUnits="userSpaceOnUse"
       id="clipPath3673"><path
         d="m 0,0 841.89,0 0,595.276 L 0,595.276 0,0 Z"
         id="path3675"
         inkscape:connector-curvature="0" /></clipPath><clipPath
       clipPathUnits="userSpaceOnUse"
       id="clipPath3707"><path
         d="m 0,0 841.89,0 0,595.276 L 0,595.276 0,0 Z"
         id="path3709"
         inkscape:connector-curvature="0" /></clipPath><clipPath
       clipPathUnits="userSpaceOnUse"
       id="clipPath3735"><path
         d="m 0,0 841.89,0 0,595.276 L 0,595.276 0,0 Z"
         id="path3737"
         inkscape:connector-curvature="0" /></clipPath><clipPath
       clipPathUnits="userSpaceOnUse"
       id="clipPath3757"><path
         d="m 0,0 841.89,0 0,595.276 L 0,595.276 0,0 Z"
         id="path3759"
         inkscape:connector-curvature="0" /></clipPath><clipPath
       clipPathUnits="userSpaceOnUse"
       id="clipPath3779"><path
         d="m 0,0 841.89,0 0,595.276 L 0,595.276 0,0 Z"
         id="path3781"
         inkscape:connector-curvature="0" /></clipPath><clipPath
       clipPathUnits="userSpaceOnUse"
       id="clipPath3881"><path
         d="m 0,0 841.89,0 0,595.276 L 0,595.276 0,0 Z"
         id="path3883"
         inkscape:connector-curvature="0" /></clipPath><clipPath
       clipPathUnits="userSpaceOnUse"
       id="clipPath3925"><path
         d="m 0,0 841.89,0 0,595.276 L 0,595.276 0,0 Z"
         id="path3927"
         inkscape:connector-curvature="0" /></clipPath><clipPath
       clipPathUnits="userSpaceOnUse"
       id="clipPath3939"><path
         d="m 0,0 841.89,0 0,595.276 L 0,595.276 0,0 Z"
         id="path3941"
         inkscape:connector-curvature="0" /></clipPath><clipPath
       clipPathUnits="userSpaceOnUse"
       id="clipPath3973"><path
         d="m 0,0 841.89,0 0,595.276 L 0,595.276 0,0 Z"
         id="path3975"
         inkscape:connector-curvature="0" /></clipPath><clipPath
       clipPathUnits="userSpaceOnUse"
       id="clipPath4005"><path
         d="m 0,0 841.89,0 0,595.276 L 0,595.276 0,0 Z"
         id="path4007"
         inkscape:connector-curvature="0" /></clipPath><clipPath
       clipPathUnits="userSpaceOnUse"
       id="clipPath4029"><path
         d="m 0,0 841.89,0 0,595.276 L 0,595.276 0,0 Z"
         id="path4031"
         inkscape:connector-curvature="0" /></clipPath><clipPath
       clipPathUnits="userSpaceOnUse"
       id="clipPath4069"><path
         d="m 0,0 841.89,0 0,595.276 L 0,595.276 0,0 Z"
         id="path4071"
         inkscape:connector-curvature="0" /></clipPath><clipPath
       clipPathUnits="userSpaceOnUse"
       id="clipPath4089"><path
         d="m 0,0 841.89,0 0,595.276 L 0,595.276 0,0 Z"
         id="path4091"
         inkscape:connector-curvature="0" /></clipPath><clipPath
       clipPathUnits="userSpaceOnUse"
       id="clipPath4111"><path
         d="m 0,0 841.89,0 0,595.276 L 0,595.276 0,0 Z"
         id="path4113"
         inkscape:connector-curvature="0" /></clipPath><clipPath
       clipPathUnits="userSpaceOnUse"
       id="clipPath4133"><path
         d="m 0,0 841.89,0 0,595.276 L 0,595.276 0,0 Z"
         id="path4135"
         inkscape:connector-curvature="0" /></clipPath><clipPath
       clipPathUnits="userSpaceOnUse"
       id="clipPath4251"><path
         d="m 0,0 841.89,0 0,595.276 L 0,595.276 0,0 Z"
         id="path4253"
         inkscape:connector-curvature="0" /></clipPath><clipPath
       clipPathUnits="userSpaceOnUse"
       id="clipPath4297"><path
         d="m 0,0 841.89,0 0,595.276 L 0,595.276 0,0 Z"
         id="path4299"
         inkscape:connector-curvature="0" /></clipPath><clipPath
       clipPathUnits="userSpaceOnUse"
       id="clipPath4337"><path
         d="m 0,0 841.89,0 0,595.276 L 0,595.276 0,0 Z"
         id="path4339"
         inkscape:connector-curvature="0" /></clipPath><clipPath
       clipPathUnits="userSpaceOnUse"
       id="clipPath4379"><path
         d="m 0,0 841.89,0 0,595.276 L 0,595.276 0,0 Z"
         id="path4381"
         inkscape:connector-curvature="0" /></clipPath><clipPath
       clipPathUnits="userSpaceOnUse"
       id="clipPath4423"><path
         d="m 0,0 841.89,0 0,595.276 L 0,595.276 0,0 Z"
         id="path4425"
         inkscape:connector-curvature="0" /></clipPath><clipPath
       clipPathUnits="userSpaceOnUse"
       id="clipPath4437"><path
         d="m 0,0 841.89,0 0,595.276 L 0,595.276 0,0 Z"
         id="path4439"
         inkscape:connector-curvature="0" /></clipPath><clipPath
       clipPathUnits="userSpaceOnUse"
       id="clipPath4471"><path
         d="m 0,0 841.89,0 0,595.276 L 0,595.276 0,0 Z"
         id="path4473"
         inkscape:connector-curvature="0" /></clipPath><style
       id="style6"
       type="text/css">
   
    .fil0 {fill:#C90302}
   
  </style><inkscape:perspective
       id="perspective17"
       inkscape:persp3d-origin="526.18109 : 129.92126 : 1"
       inkscape:vp_z="1052.3622 : 194.8819 : 1"
       inkscape:vp_y="0 : 1000 : 0"
       inkscape:vp_x="0 : 194.8819 : 1"
       sodipodi:type="inkscape:persp3d" /><clipPath
       id="clipPath3855"
       clipPathUnits="userSpaceOnUse"><path
         id="path3857"
         d="m 28.346,484.3 47.237,0 0,34.44 -47.237,0 0,-34.44 z"
         inkscape:connector-curvature="0" /></clipPath><clipPath
       id="clipPath3793"
       clipPathUnits="userSpaceOnUse"><path
         id="path3795"
         d="m 90.708,484.3 47.382,0 0,34.44 -47.382,0 0,-34.44 z"
         inkscape:connector-curvature="0" /></clipPath><clipPath
       id="clipPath3779-4"
       clipPathUnits="userSpaceOnUse"><path
         id="path3781-8"
         d="m 90.708,484.3 47.382,0 0,34.44 -47.382,0 0,-34.44 z"
         inkscape:connector-curvature="0" /></clipPath><clipPath
       id="clipPath3739"
       clipPathUnits="userSpaceOnUse"><path
         id="path3741"
         d="m 277.795,444.472 46.804,0 0,34.347 -46.804,0 0,-34.347 z"
         inkscape:connector-curvature="0" /></clipPath><clipPath
       id="clipPath3675"
       clipPathUnits="userSpaceOnUse"><path
         id="path3677"
         d="m 215.433,444.472 46.949,0 0,34.347 -46.949,0 0,-34.347 z"
         inkscape:connector-curvature="0" /></clipPath><clipPath
       id="clipPath3621"
       clipPathUnits="userSpaceOnUse"><path
         id="path3623"
         d="m 153.071,444.472 47.112,0 0,34.393 -47.112,0 0,-34.393 z"
         inkscape:connector-curvature="0" /></clipPath><clipPath
       id="clipPath3575"
       clipPathUnits="userSpaceOnUse"><path
         id="path3577"
         d="m 90.708,444.472 47.402,0 0,34.393 -47.402,0 0,-34.393 z"
         inkscape:connector-curvature="0" /></clipPath><clipPath
       id="clipPath3561"
       clipPathUnits="userSpaceOnUse"><path
         id="path3563"
         d="m 90.708,444.472 47.402,0 0,34.393 -47.402,0 0,-34.393 z"
         inkscape:connector-curvature="0" /></clipPath><clipPath
       id="clipPath3549"
       clipPathUnits="userSpaceOnUse"><path
         id="path3551"
         d="m 28.346,444.472 47.245,0 0,34.393 -47.245,0 0,-34.393 z"
         inkscape:connector-curvature="0" /></clipPath><clipPath
       id="clipPath3499"
       clipPathUnits="userSpaceOnUse"><path
         id="path3501"
         d="m 277.795,484.3 46.804,0 0,34.309 -46.804,0 0,-34.309 z"
         inkscape:connector-curvature="0" /></clipPath><clipPath
       id="clipPath3479"
       clipPathUnits="userSpaceOnUse"><path
         id="path3481"
         d="m 277.795,491.772 46.804,0 0,20.354 -46.804,0 0,-20.354 z"
         inkscape:connector-curvature="0" /></clipPath><clipPath
       id="clipPath3419-0"
       clipPathUnits="userSpaceOnUse"><path
         id="path3421-9"
         d="m 277.795,484.3 46.804,0 0,34.309 -46.804,0 0,-34.309 z"
         inkscape:connector-curvature="0" /></clipPath><clipPath
       id="clipPath3403"
       clipPathUnits="userSpaceOnUse"><path
         id="path3405"
         d="m 277.795,491.772 46.804,0 0,20.354 -46.804,0 0,-20.354 z"
         inkscape:connector-curvature="0" /></clipPath><clipPath
       id="clipPath3379"
       clipPathUnits="userSpaceOnUse"><path
         id="path3381"
         d="m 277.795,484.3 46.804,0 0,34.309 -46.804,0 0,-34.309 z"
         inkscape:connector-curvature="0" /></clipPath><clipPath
       id="clipPath3337"
       clipPathUnits="userSpaceOnUse"><path
         id="path3339"
         d="m 340.158,484.348 46.688,0 0,34.393 -46.688,0 0,-34.393 z"
         inkscape:connector-curvature="0" /></clipPath><clipPath
       id="clipPath3289"
       clipPathUnits="userSpaceOnUse"><path
         id="path3291"
         d="m 215.449,484.3 46.803,0 0,34.393 -46.803,0 0,-34.393 z"
         inkscape:connector-curvature="0" /></clipPath><clipPath
       id="clipPath3271"
       clipPathUnits="userSpaceOnUse"><path
         id="path3273"
         d="m 153.087,484.348 47.287,0 0,34.393 -47.287,0 0,-34.393 z"
         inkscape:connector-curvature="0" /></clipPath><clipPath
       id="clipPath3115"
       clipPathUnits="userSpaceOnUse"><path
         id="path3117"
         d="m 28.346,20.092 362.835,0 0,158.49 -362.835,0 0,-158.49 z"
         inkscape:connector-curvature="0" /></clipPath></defs><sodipodi:namedview
     pagecolor="#ffffff"
     bordercolor="#666666"
     borderopacity="1"
     objecttolerance="10"
     gridtolerance="10"
     guidetolerance="10"
     inkscape:pageopacity="0"
     inkscape:pageshadow="2"
     inkscape:window-width="1920"
     inkscape:window-height="1017"
     id="namedview2987"
     showgrid="false"
     fit-margin-top="0"
     fit-margin-left="0"
     fit-margin-right="0"
     fit-margin-bottom="0"
     inkscape:zoom="0.45585016"
     inkscape:cx="1064.5494"
     inkscape:cy="411.38313"
     inkscape:window-x="-8"
     inkscape:window-y="-8"
     inkscape:window-maximized="1"
     inkscape:current-layer="flowRoot3127" /><g
     id="g2993"
     inkscape:groupmode="layer"
     inkscape:label="onscreen_guidelines"
     transform="matrix(1.25,0,0,-1.25,-1543.7513,-811.2006)"><g
       id="g3203"
       transform="translate(349.3506,368.504)" /><g
       id="g4491"
       transform="translate(349.3506,42.5196)" /><g
       id="g3565"
       transform="translate(938.96857,-702.2758)" /><g
       id="g3783"
       transform="translate(938.96027,-662.5387)" /><g
       transform="matrix(2.0655084,0,0,-2.0655084,1624.5945,-608.1065)"
       style="font-style:normal;font-weight:normal;font-size:40px;line-height:125%;font-family:Sans;letter-spacing:0px;word-spacing:0px;fill:#000000;fill-opacity:1;stroke:none"
       id="flowRoot3127"><path
         inkscape:connector-curvature="0"
         d="m -10.59001,126.74966 c 1.1788857,-1.35244 1.7683415,-3.2425 1.7683545,-5.67017 -1.3e-5,-2.42764 -0.5894688,-4.3177 -1.7683545,-5.67018 -1.178925,-1.28259 -2.79118,-1.92389 -4.836792,-1.92392 -2.045637,3e-5 -3.657906,0.64133 -4.836791,1.92392 -1.179978,1.35248 -1.769954,3.24254 -1.769954,5.67018 0,2.42767 0.589976,4.31773 1.769954,5.67017 1.178885,1.28264 2.791154,1.92394 4.836791,1.92394 2.045612,0 3.657867,-0.6413 4.836792,-1.92394 z m -14.381805,4.00501 c -2.444585,-2.49644 -3.666878,-5.72123 -3.666878,-9.67439 0,-3.95312 1.222293,-7.17817 3.666878,-9.67517 2.444586,-2.49695 5.626248,-3.74543 9.545013,-3.74546 3.918726,3e-5 7.1004018,1.24851 9.5450134,3.74546 2.4445599,2.497 3.666783,5.72205 3.666809,9.67517 -2.6e-5,3.95316 -1.2222491,7.17795 -3.666809,9.67439 -2.4446116,2.49645 -5.6262874,3.74467 -9.5450134,3.74467 -3.918765,0 -7.100427,-1.24822 -9.545013,-3.74467 z"
         style="font-style:normal;font-variant:normal;font-weight:bold;font-stretch:normal;font-size:40px;line-height:125%;font-family:BBCOne-Bold;-inkscape-font-specification:'BBCOne-Bold Bold';letter-spacing:0px;word-spacing:0px;fill:#c80201;fill-opacity:1;stroke:none"
         id="path3657-1"
         sodipodi:nodetypes="cccccscscssscccsss" /><path
         inkscape:connector-curvature="0"
         id="path4414"
         style="font-style:normal;font-variant:normal;font-weight:bold;font-stretch:normal;font-size:40px;line-height:125%;font-family:BBCOne-Bold;-inkscape-font-specification:'BBCOne-Bold Bold';letter-spacing:0px;word-spacing:0px;fill:#c80201;fill-opacity:1;stroke:none"
         d="m 74.9506,114.02601 -0.48096,4.39941 c -0.93344,-0.18634 -1.75986,-0.27952 -2.47924,-0.27954 -1.4673,2e-5 -2.66725,0.54648 -3.59986,1.6394 -0.82683,0.98716 -1.24024,2.84059 -1.24023,5.56031 l 0,8.48022 -4.88037,0 0,-14.16015 c -10e-6,-2.26643 -0.13347,-4.10643 -0.40039,-5.52002 l 4.76074,0 c 0.2661,0.93345 0.43944,1.93361 0.52002,3.00048 l 0.0403,0 c 1.27929,-2.29327 3.15917,-3.43992 5.63965,-3.43994 0.90656,2e-5 1.613417,0.10663 2.120427,0.31983 z"
         sodipodi:nodetypes="ccccsccsccccccc" /><path
         inkscape:connector-curvature="0"
         style="fill:#c80201;fill-opacity:1;fill-rule:nonzero;stroke:none"
         d="m 93.321397,108.22149 0,8.52569 c -1.23799,-1.74252 -3.45231,-2.91973 -5.95629,-2.91973 -2.29379,0 -3.751365,0.71006 -5.255569,1.86863 -2.40126,1.78921 -3.73732,4.84446 -3.73732,8.52569 0,3.37294 1.144523,6.32542 3.153362,8.17536 1.607021,1.42953 3.284117,2.10221 5.839527,2.10221 2.00879,0 4.48008,-0.99037 6.0731,-3.03655 0.046,0.93899 0.12156,1.86869 0.23342,2.5694 l 4.90519,0 c -0.26611,-1.48091 -0.35039,-3.6158 -0.35039,-5.48914 l 0,-20.32156 -4.90518,0 z m -5.95629,10.16076 c 0.3606,-0.0659 0.7591,0 1.16787,0 1.63041,0 2.8637,0.48114 3.73732,1.40148 0.8829,1.00907 1.40148,2.53672 1.40148,4.43804 0,1.92942 -0.51858,3.32621 -1.40148,4.32128 -0.87362,0.9203 -2.10691,1.51825 -3.73732,1.51825 -1.63507,0 -2.90105,-0.59795 -3.73727,-1.51825 -0.873616,-0.99507 -1.284731,-2.40591 -1.284731,-4.32128 0,-1.92001 0.411166,-3.42897 1.284731,-4.43804 0.62711,-0.69024 1.48694,-1.20458 2.5694,-1.40148 z"
         id="path3825" /><path
         d="m 52.007457,128.53984 c 0.90656,-1.04003 1.35985,-2.49349 1.35986,-4.36036 -1e-5,-1.86686 -0.4533,-3.32031 -1.35986,-4.36037 -0.9066,-0.98631 -2.14643,-1.47947 -3.7195,-1.47949 -1.57309,2e-5 -2.81292,0.49318 -3.71949,1.47949 -0.9074,1.04006 -1.3611,2.49351 -1.36109,4.36037 -1e-5,1.86687 0.45369,3.32033 1.36109,4.36036 0.90657,0.98634 2.1464,1.47951 3.71949,1.47951 1.57307,0 2.8129,-0.49317 3.7195,-1.47951 z m -11.05961,3.07985 c -1.87989,-1.91977 -2.81983,-4.39962 -2.81983,-7.4396 0,-3.03995 0.93994,-5.52002 2.81983,-7.44021 1.87988,-1.92015 4.32658,-2.88024 7.34011,-2.88026 3.01351,2e-5 5.46021,0.96011 7.34011,2.88026 1.87987,1.92019 2.819932,4.40026 2.819952,7.44021 -2e-5,3.03998 -0.940082,5.51983 -2.819952,7.4396 -1.8799,1.91977 -4.3266,2.87965 -7.34011,2.87965 -3.01353,0 -5.46023,-0.95988 -7.34011,-2.87965 z"
         style="font-style:normal;font-variant:normal;font-weight:bold;font-stretch:normal;font-size:40px;line-height:125%;font-family:BBCOne-Bold;-inkscape-font-specification:'BBCOne-Bold Bold';letter-spacing:0px;word-spacing:0px;fill:#c80201;fill-opacity:1;stroke:none"
         id="path3657-2"
         inkscape:connector-curvature="0"
         sodipodi:nodetypes="cccccccscssscccsss" /><path
         inkscape:connector-curvature="0"
         style="opacity:1;fill:#c80201;fill-opacity:1;stroke:#c80201;stroke-width:1.93656921;stroke-linecap:butt;stroke-linejoin:miter;stroke-miterlimit:4;stroke-dasharray:none;stroke-opacity:1"
         id="path136"
         d="m 2.7644944,115.20139 3.5293629,-0.01 3.9941367,6.41496 3.945719,-6.41496 3.064588,0.0243 -5.562742,8.72414 6.211485,9.11136 -3.490633,0 -4.391124,-6.86492 -4.1829454,6.86492 -3.2437159,0 5.9548874,-9.10646 z"
         sodipodi:nodetypes="ccccccccccccc" /><path
         inkscape:connector-curvature="0"
         style="opacity:1;fill:#c80201;fill-opacity:1;stroke:#c80201;stroke-width:1.93656921;stroke-linecap:butt;stroke-linejoin:miter;stroke-miterlimit:4;stroke-dasharray:none;stroke-opacity:1"
         id="path86"
         d="m 27.914541,109.22282 c 2.062414,-1.80582 5.078585,-1.62184 7.552523,-0.91985 -0.154928,0.73589 -0.314696,1.47177 -0.469614,2.2125 -1.602489,-0.25175 -3.471255,-0.62453 -4.855888,0.46961 -1.195814,1.02637 -0.929538,2.79347 -1.147405,4.20231 1.689638,0.0145 3.384117,0.0145 5.073755,0.0145 -0.005,0.75041 -0.005,1.50082 0,2.25607 -1.675118,0 -3.350227,0.005 -5.020496,0.01 0.0145,5.18509 0.005,10.37504 0.005,15.56497 -0.934378,0.005 -1.868766,0.01 -2.798304,0.0145 l 0,-15.58918 c -1.036057,0.005 -2.067263,0.01 -3.10331,0.0194 0.005,-0.76493 0.005,-1.52987 0.01,-2.28996 1.016687,0.005 2.043054,0.01 3.064581,0.0194 0.281926,-2.60734 0.156269,-4.57102 1.689158,-5.98427 z"
         sodipodi:nodetypes="ccccccccccccccc" /></g><g
       id="g4452"
       transform="matrix(7.42063,0,0,7.42063,-1885.8707,2826.503)"
       style="fill:#c80201;fill-opacity:1"><g
         transform="matrix(1.2103696,0,0,1.2103696,-58.315768,-65.857877)"
         id="g4749"
         style="fill:#c80201;fill-opacity:1"><g
           transform="matrix(0.40173676,0,0,-0.40173676,363.77355,-324.66149)"
           id="Layer_x0020_1"
           style="fill:#c80201;fill-opacity:1"><metadata
             id="CorelCorpID_0Corel-Layer" /><g
             id="g4607"
             transform="translate(27.667162,-18.444775)"
             style="fill:#c80201;fill-opacity:1"><path
               id="path4598"
               transform="matrix(0.34004134,0,0,0.34004134,-17.938189,-275.55444)"
               d="m 523.9375,922.28125 c -1.15419,-0.0146 -2.32654,-0.004 -3.5,0.0312 -14.88451,0.45302 -28.0053,5.04172 -38.78125,13.5625 -5.90469,4.66872 -12.06132,12.32642 -15.625,19.40625 -9.60474,19.08365 -9.76567,44.9614 -0.40625,64.0938 3.21032,6.5627 6.43814,11.0851 11.5,16.1562 10.24593,10.2652 22.98778,15.9839 39.40625,17.6563 2.52128,0.2568 13.98285,-0.07 16.53125,-0.4687 14.10217,-2.2101 25.43144,-7.5786 34.46875,-16.3126 10.51172,-10.1591 16.56015,-22.6664 18.75,-38.78125 0.56228,-4.13954 0.62726,-14.57506 0.125,-18.6875 -1.97914,-16.20536 -8.27658,-29.5089 -18.71875,-39.59375 -11.35373,-10.96517 -26.43721,-16.84281 -43.75,-17.0625 z m -0.53125,23.53125 c 3.20184,0.0287 6.3931,0.34319 9.28125,0.9375 15.02958,3.09231 24.61977,13.54382 27.40625,29.875 1.11013,6.50339 1.10984,15.7651 0,22.34375 -3.03001,17.96085 -14.4014,28.79185 -32.09375,30.62505 -2.79731,0.2898 -7.8402,0.269 -10.6875,-0.031 -9.07734,-0.9578 -16.25627,-4.1745 -21.875,-9.8125 -5.53324,-5.5522 -8.7497,-12.493 -10.28125,-22.25 -0.64654,-4.12027 -0.64201,-15.00806 0,-19.28125 0.55029,-3.66845 1.6478,-7.97674 2.6875,-10.59375 3.86109,-9.71972 10.88703,-16.47052 20.5625,-19.71875 4.25577,-1.42887 9.6636,-2.14155 15,-2.09375 z"
               style="fill:#c80201;fill-opacity:1"
               inkscape:connector-curvature="0" /><path
               id="path4594"
               transform="matrix(0.34004134,0,0,0.34004134,-17.938189,-275.55444)"
               d="m 794.375,922.375 c -6.99224,-0.0197 -8.89202,0.13973 -14.03125,1.15625 -21.75512,4.30299 -38.52662,19.20763 -45.5625,40.4375 -3.25275,9.81544 -4.5201,20.158 -3.6875,30.375 1.82387,22.38005 11.84677,39.75415 28.8125,50.00005 8.00032,4.8312 16.19448,7.4286 28.03125,8.8437 0.48641,0.058 4.18968,0.071 8.21875,0.031 5.76774,-0.057 8.18741,-0.1904 11.46875,-0.625 14.74697,-1.9512 27.55475,-6.3905 37.875,-13.0938 2.74646,-1.7838 5.59375,-3.8902 5.59375,-4.1562 0,-0.1141 -2.12824,-4.1223 -4.71875,-8.9063 l -4.71875,-8.6875 -1.375,0.9062 c -19.00057,12.1544 -46.94574,15.4306 -63.6875,7.5 -10.43523,-4.9432 -16.50463,-13.5099 -18.8125,-26.56245 l -0.15625,-0.8125 48.75,0 48.75,0 0.125,-0.5625 c 0.75164,-3.21964 1.0864,-12.06384 0.65625,-17.25 -0.61107,-7.35797 -1.60599,-12.39325 -3.6875,-18.71875 -6.48442,-19.70705 -20.8942,-33.07633 -40.9375,-38 -5.92425,-1.4554 -9.37431,-1.85393 -16.90625,-1.875 z m -2.0625,23.25 c 3.70033,-0.0689 7.90503,0.14657 10.40625,0.59375 7.29655,1.30429 12.80517,3.90101 17.46875,8.21875 5.55338,5.14131 9.10337,12.95514 9.59375,21.15625 l 0.15625,2.71875 -36.1875,0 -36.1875,0 0.15625,-1.5 c 0.57764,-5.526 2.81892,-11.73063 6,-16.5625 1.84131,-2.79672 6.09765,-7.01197 9,-8.90625 3.97943,-2.59624 8.66132,-4.36075 13.9375,-5.28125 1.37409,-0.23987 3.43605,-0.39614 5.65625,-0.4375 z"
               style="fill:#c80201;fill-opacity:1"
               inkscape:connector-curvature="0" /><path
               id="path4590"
               d="m 194.16171,70.954681 c 0,-6.488717 0.0341,-10.978812 0.0886,-11.659793 0.34852,-4.349149 1.45716,-7.153833 3.73347,-9.444583 2.41962,-2.434971 5.67385,-3.590991 9.7058,-3.447998 3.23161,0.11464 5.4849,1.003405 7.25916,2.862926 1.39287,1.459917 2.22094,3.166003 2.70427,5.5717 0.35303,1.75788 0.38803,2.564043 0.43441,10.049922 0.0606,9.752985 0.22282,12.919194 0.82622,16.126142 l 0.0931,0.493974 4.1824,0 4.18231,0 -0.1566,-0.966352 c -0.16275,-1.003098 -0.34126,-2.624331 -0.50811,-4.61671 -0.0581,-0.694595 -0.12395,-4.947222 -0.16408,-10.607666 -0.066,-9.339565 -0.0889,-10.055552 -0.39059,-12.196553 -0.44945,-3.191594 -1.52154,-6.09843 -3.02311,-8.197466 -1.23422,-1.725431 -3.27922,-3.586487 -5.04129,-4.588459 -4.41875,-2.512557 -10.40264,-2.990769 -15.50862,-1.239237 -1.85123,0.634921 -3.54504,1.569952 -5.0329,2.778174 -0.93329,0.757852 -2.31879,2.178362 -2.90725,2.980739 -0.23336,0.318433 -0.44719,0.578931 -0.47514,0.578931 -0.0278,0 -0.0969,-0.434915 -0.15343,-0.966353 -0.1609,-1.513757 -0.50789,-3.398559 -0.88559,-4.809858 l -0.0864,-0.322116 -4.10709,0 -4.10707,0 0.10829,0.622739 c 0.36624,2.108555 0.61128,4.985196 0.72572,8.523677 0.0459,1.417747 0.084,9.428718 0.0848,17.802134 l 0.001,15.224376 4.20872,0 4.20871,0 0,-10.55229 0,0 z"
               style="fill:#c80201;fill-opacity:1"
               inkscape:connector-curvature="0" /><path
               style="fill:#c80201;fill-opacity:1"
               d="m 494.5625,1160.375 0,5.3438 0,5.3437 5.6875,0 5.6875,0 0,-5.3437 0,-5.3438 -5.6875,0 -5.6875,0 z m 2.96875,1.5 1.5,0 c 1.35533,0 1.54326,0.017 1.84375,0.094 0.97214,0.2486 1.603,0.9247 1.65625,1.7812 0.0453,0.7275 -0.20813,1.2313 -0.78125,1.5938 l -0.1875,0.125 0.21875,0.062 c 0.55564,0.1957 1.0114,0.6109 1.25,1.0938 0.15923,0.3222 0.1875,0.3209 0.1875,0.8125 0,0.4908 -0.0299,0.525 -0.1875,0.8437 -0.35502,0.7184 -0.97389,1.1001 -1.96875,1.25 -0.30069,0.045 -0.82817,0.062 -1.96875,0.063 l -1.5625,0 0,-3.8438 0,-3.875 z m 1.375,1.2188 0,0.9687 0,1 0.5,0 c 0.26687,-4e-4 0.5924,-0.029 0.75,-0.062 0.69401,-0.1471 0.98232,-0.4735 0.9375,-1.0938 -0.0248,-0.3414 -0.13516,-0.5456 -0.4375,-0.6874 -0.2258,-0.1058 -0.30306,-0.1116 -1,-0.125 l -0.75,0 z m 0,3.1874 0,1.0626 0,1.0312 0.75,0 c 0.40925,-5e-4 0.8678,-0.01 1.03125,-0.031 0.71945,-0.104 1.125,-0.4676 1.125,-1.0313 0,-0.3566 -0.14015,-0.5707 -0.4375,-0.75 -0.35821,-0.216 -0.68092,-0.2813 -1.625,-0.2813 l -0.84375,0 z"
               transform="matrix(1.9913537,0,0,1.9913537,-933.16944,-2271.4564)"
               id="path4588"
               inkscape:connector-curvature="0" /><path
               style="fill:#c80201;fill-opacity:1"
               d="m 507.65625,1160.375 0,5.3438 0,5.3437 5.71875,0 5.71875,0 0,-5.3437 0,-5.3438 -5.71875,0 -5.71875,0 z m 3.03125,1.5 1.46875,0 c 1.66569,9e-4 1.88068,0.022 2.40625,0.2812 0.79316,0.3919 1.22179,1.1747 1.09375,2 -0.0268,0.1729 -0.0801,0.3987 -0.125,0.5 -0.099,0.2239 -0.41791,0.5761 -0.625,0.6876 -0.15682,0.084 -0.19815,0.1562 -0.0937,0.1562 0.14444,0 0.74737,0.3498 0.96875,0.5625 0.48764,0.4686 0.69846,1.2158 0.53125,1.8437 -0.20822,0.7823 -0.81127,1.3193 -1.75,1.5626 -0.32753,0.085 -0.50557,0.1077 -2.125,0.125 l -1.75,0 0,-3.8438 0,-3.875 z m 1.375,1.2188 0,1 0,1 0.625,-0.031 c 0.3652,-0.014 0.68826,-0.055 0.8125,-0.094 0.50655,-0.1594 0.75519,-0.4627 0.75,-0.9688 -0.003,-0.3177 -0.0806,-0.4875 -0.28125,-0.6562 -0.22416,-0.1887 -0.51605,-0.25 -1.25,-0.25 l -0.65625,0 z m 0,3.1874 0,1.0626 0,1.0624 0.9375,-0.031 c 0.79435,-0.017 0.93158,-0.011 1.1875,-0.094 0.72989,-0.2364 0.99452,-1.0348 0.53125,-1.5624 -0.30393,-0.3461 -0.71041,-0.4365 -1.84375,-0.4376 l -0.8125,0 z"
               transform="matrix(1.9913537,0,0,1.9913537,-933.16944,-2271.4564)"
               id="path4580"
               inkscape:connector-curvature="0" /><path
               style="fill:#c80201;fill-opacity:1"
               d="m 520.8125,1160.375 0,5.3438 0,5.3437 5.71875,0 5.6875,0 0,-5.3437 0,-5.3438 -5.6875,0 -5.71875,0 z m 5.9375,1.4062 c 0.82889,-0.046 1.64553,0.079 2.65625,0.4376 l 0.46875,0.1874 0,0.7188 c 0,0.3889 0.009,0.6875 0,0.6875 -0.009,0 -0.26144,-0.09 -0.53125,-0.2187 -0.95914,-0.4564 -1.59026,-0.6264 -2.46875,-0.5938 -0.45988,0.017 -0.62123,0.039 -0.96875,0.1562 -0.52537,0.1776 -0.86336,0.3915 -1.21875,0.75 -0.48178,0.486 -0.71993,1.1206 -0.71875,1.8438 0.002,0.768 0.23851,1.3405 0.75,1.8438 0.57394,0.5645 1.32032,0.8393 2.28125,0.8437 0.85161,0 1.56708,-0.1856 2.46875,-0.6563 l 0.5,-0.25 0,0.7188 0,0.7188 -0.28125,0.1562 c -0.809,0.3728 -1.50262,0.5083 -2.5,0.5312 -0.40334,0.01 -0.85073,0.021 -1,0 -1.55487,-0.219 -2.81263,-1.1353 -3.375,-2.4687 -0.33734,-0.8 -0.36936,-1.7362 -0.0937,-2.5937 0.43999,-1.3691 1.67462,-2.4154 3.1875,-2.7188 0.28557,-0.057 0.56745,-0.079 0.84375,-0.094 z"
               transform="matrix(1.9913537,0,0,1.9913537,-933.16944,-2271.4564)"
               id="path4572"
               inkscape:connector-curvature="0" /></g><sodipodi:namedview
             inkscape:current-layer="svg2413"
             inkscape:window-y="-8"
             inkscape:window-x="-8"
             inkscape:cy="-22.75906"
             inkscape:cx="1329.6704"
             inkscape:zoom="0.25612053"
             id="base-1"
             pagecolor="#ffffff"
             bordercolor="#666666"
             borderopacity="1.0"
             objecttolerance="10.0"
             gridtolerance="10.0"
             guidetolerance="10.0"
             inkscape:pageopacity="0.0"
             inkscape:pageshadow="2"
             inkscape:window-width="1280"
             inkscape:window-height="974" /></g></g></g></g></svg>