<?xml version="1.0" encoding="UTF-8" standalone="no"?>
<!-- Created with Inkscape (http://www.inkscape.org/) -->

<svg
   xmlns:dc="http://purl.org/dc/elements/1.1/"
   xmlns:cc="http://creativecommons.org/ns#"
   xmlns:rdf="http://www.w3.org/1999/02/22-rdf-syntax-ns#"
   xmlns:svg="http://www.w3.org/2000/svg"
   xmlns="http://www.w3.org/2000/svg"
   xmlns:sodipodi="http://sodipodi.sourceforge.net/DTD/sodipodi-0.dtd"
   xmlns:inkscape="http://www.inkscape.org/namespaces/inkscape"
   id="svg2985"
   version="1.1"
   inkscape:version="0.91 r13725"
   width="199"
   height="58.415321"
   xml:space="preserve"
   sodipodi:docname="BBC One Scotland.svg"
   hola_ext_inject="disabled"><metadata
     id="metadata2991"><rdf:RDF><cc:Work
         rdf:about=""><dc:format>image/svg+xml</dc:format><dc:type
           rdf:resource="http://purl.org/dc/dcmitype/StillImage" /><dc:title></dc:title></cc:Work></rdf:RDF></metadata><defs
     id="defs2989"><clipPath
       clipPathUnits="userSpaceOnUse"
       id="clipPath3003"><path
         d="m 0,0 841.89,0 0,595.276 L 0,595.276 0,0 Z"
         id="path3005"
         inkscape:connector-curvature="0" /></clipPath><clipPath
       clipPathUnits="userSpaceOnUse"
       id="clipPath3023"><path
         d="m 0,0 841.89,0 0,595.276 L 0,595.276 0,0 Z"
         id="path3025"
         inkscape:connector-curvature="0" /></clipPath><clipPath
       clipPathUnits="userSpaceOnUse"
       id="clipPath3051"><path
         d="m 0,0 841.89,0 0,595.276 L 0,595.276 0,0 Z"
         id="path3053"
         inkscape:connector-curvature="0" /></clipPath><clipPath
       clipPathUnits="userSpaceOnUse"
       id="clipPath3075"><path
         d="m 0,0 841.89,0 0,595.276 L 0,595.276 0,0 Z"
         id="path3077"
         inkscape:connector-curvature="0" /></clipPath><clipPath
       clipPathUnits="userSpaceOnUse"
       id="clipPath3195"><path
         d="m 0,0 841.89,0 0,595.276 L 0,595.276 0,0 Z"
         id="path3197"
         inkscape:connector-curvature="0" /></clipPath><clipPath
       clipPathUnits="userSpaceOnUse"
       id="clipPath3209"><path
         d="m 49.094,354.329 287.15,0 0,-161.734 -287.15,0 0,161.734 z"
         id="path3211"
         inkscape:connector-curvature="0" /></clipPath><clipPath
       clipPathUnits="userSpaceOnUse"
       id="clipPath3233"><path
         d="m 0,0 841.89,0 0,595.276 L 0,595.276 0,0 Z"
         id="path3235"
         inkscape:connector-curvature="0" /></clipPath><clipPath
       clipPathUnits="userSpaceOnUse"
       id="clipPath3257"><path
         d="m 0,0 841.89,0 0,595.276 L 0,595.276 0,0 Z"
         id="path3259"
         inkscape:connector-curvature="0" /></clipPath><clipPath
       clipPathUnits="userSpaceOnUse"
       id="clipPath3297"><path
         d="m 0,0 841.89,0 0,595.276 L 0,595.276 0,0 Z"
         id="path3299"
         inkscape:connector-curvature="0" /></clipPath><clipPath
       clipPathUnits="userSpaceOnUse"
       id="clipPath3313"><path
         d="m 0,0 841.89,0 0,595.276 L 0,595.276 0,0 Z"
         id="path3315"
         inkscape:connector-curvature="0" /></clipPath><clipPath
       clipPathUnits="userSpaceOnUse"
       id="clipPath3341"><path
         d="m 0,0 841.89,0 0,595.276 L 0,595.276 0,0 Z"
         id="path3343"
         inkscape:connector-curvature="0" /></clipPath><clipPath
       clipPathUnits="userSpaceOnUse"
       id="clipPath3419"><path
         d="m 0,0 841.89,0 0,595.276 L 0,595.276 0,0 Z"
         id="path3421"
         inkscape:connector-curvature="0" /></clipPath><clipPath
       clipPathUnits="userSpaceOnUse"
       id="clipPath3465"><path
         d="m 0,0 841.89,0 0,595.276 L 0,595.276 0,0 Z"
         id="path3467"
         inkscape:connector-curvature="0" /></clipPath><clipPath
       clipPathUnits="userSpaceOnUse"
       id="clipPath3489"><path
         d="m 0,0 841.89,0 0,595.276 L 0,595.276 0,0 Z"
         id="path3491"
         inkscape:connector-curvature="0" /></clipPath><clipPath
       clipPathUnits="userSpaceOnUse"
       id="clipPath3511"><path
         d="m 0,0 841.89,0 0,595.276 L 0,595.276 0,0 Z"
         id="path3513"
         inkscape:connector-curvature="0" /></clipPath><clipPath
       clipPathUnits="userSpaceOnUse"
       id="clipPath3533"><path
         d="m 0,0 841.89,0 0,595.276 L 0,595.276 0,0 Z"
         id="path3535"
         inkscape:connector-curvature="0" /></clipPath><clipPath
       clipPathUnits="userSpaceOnUse"
       id="clipPath3615"><path
         d="m 0,0 841.89,0 0,595.276 L 0,595.276 0,0 Z"
         id="path3617"
         inkscape:connector-curvature="0" /></clipPath><clipPath
       clipPathUnits="userSpaceOnUse"
       id="clipPath3659"><path
         d="m 0,0 841.89,0 0,595.276 L 0,595.276 0,0 Z"
         id="path3661"
         inkscape:connector-curvature="0" /></clipPath><clipPath
       clipPathUnits="userSpaceOnUse"
       id="clipPath3673"><path
         d="m 0,0 841.89,0 0,595.276 L 0,595.276 0,0 Z"
         id="path3675"
         inkscape:connector-curvature="0" /></clipPath><clipPath
       clipPathUnits="userSpaceOnUse"
       id="clipPath3707"><path
         d="m 0,0 841.89,0 0,595.276 L 0,595.276 0,0 Z"
         id="path3709"
         inkscape:connector-curvature="0" /></clipPath><clipPath
       clipPathUnits="userSpaceOnUse"
       id="clipPath3735"><path
         d="m 0,0 841.89,0 0,595.276 L 0,595.276 0,0 Z"
         id="path3737"
         inkscape:connector-curvature="0" /></clipPath><clipPath
       clipPathUnits="userSpaceOnUse"
       id="clipPath3757"><path
         d="m 0,0 841.89,0 0,595.276 L 0,595.276 0,0 Z"
         id="path3759"
         inkscape:connector-curvature="0" /></clipPath><clipPath
       clipPathUnits="userSpaceOnUse"
       id="clipPath3779"><path
         d="m 0,0 841.89,0 0,595.276 L 0,595.276 0,0 Z"
         id="path3781"
         inkscape:connector-curvature="0" /></clipPath><clipPath
       clipPathUnits="userSpaceOnUse"
       id="clipPath3881"><path
         d="m 0,0 841.89,0 0,595.276 L 0,595.276 0,0 Z"
         id="path3883"
         inkscape:connector-curvature="0" /></clipPath><clipPath
       clipPathUnits="userSpaceOnUse"
       id="clipPath3925"><path
         d="m 0,0 841.89,0 0,595.276 L 0,595.276 0,0 Z"
         id="path3927"
         inkscape:connector-curvature="0" /></clipPath><clipPath
       clipPathUnits="userSpaceOnUse"
       id="clipPath3939"><path
         d="m 0,0 841.89,0 0,595.276 L 0,595.276 0,0 Z"
         id="path3941"
         inkscape:connector-curvature="0" /></clipPath><clipPath
       clipPathUnits="userSpaceOnUse"
       id="clipPath3973"><path
         d="m 0,0 841.89,0 0,595.276 L 0,595.276 0,0 Z"
         id="path3975"
         inkscape:connector-curvature="0" /></clipPath><clipPath
       clipPathUnits="userSpaceOnUse"
       id="clipPath4005"><path
         d="m 0,0 841.89,0 0,595.276 L 0,595.276 0,0 Z"
         id="path4007"
         inkscape:connector-curvature="0" /></clipPath><clipPath
       clipPathUnits="userSpaceOnUse"
       id="clipPath4029"><path
         d="m 0,0 841.89,0 0,595.276 L 0,595.276 0,0 Z"
         id="path4031"
         inkscape:connector-curvature="0" /></clipPath><clipPath
       clipPathUnits="userSpaceOnUse"
       id="clipPath4069"><path
         d="m 0,0 841.89,0 0,595.276 L 0,595.276 0,0 Z"
         id="path4071"
         inkscape:connector-curvature="0" /></clipPath><clipPath
       clipPathUnits="userSpaceOnUse"
       id="clipPath4089"><path
         d="m 0,0 841.89,0 0,595.276 L 0,595.276 0,0 Z"
         id="path4091"
         inkscape:connector-curvature="0" /></clipPath><clipPath
       clipPathUnits="userSpaceOnUse"
       id="clipPath4111"><path
         d="m 0,0 841.89,0 0,595.276 L 0,595.276 0,0 Z"
         id="path4113"
         inkscape:connector-curvature="0" /></clipPath><clipPath
       clipPathUnits="userSpaceOnUse"
       id="clipPath4133"><path
         d="m 0,0 841.89,0 0,595.276 L 0,595.276 0,0 Z"
         id="path4135"
         inkscape:connector-curvature="0" /></clipPath><clipPath
       clipPathUnits="userSpaceOnUse"
       id="clipPath4251"><path
         d="m 0,0 841.89,0 0,595.276 L 0,595.276 0,0 Z"
         id="path4253"
         inkscape:connector-curvature="0" /></clipPath><clipPath
       clipPathUnits="userSpaceOnUse"
       id="clipPath4297"><path
         d="m 0,0 841.89,0 0,595.276 L 0,595.276 0,0 Z"
         id="path4299"
         inkscape:connector-curvature="0" /></clipPath><clipPath
       clipPathUnits="userSpaceOnUse"
       id="clipPath4337"><path
         d="m 0,0 841.89,0 0,595.276 L 0,595.276 0,0 Z"
         id="path4339"
         inkscape:connector-curvature="0" /></clipPath><clipPath
       clipPathUnits="userSpaceOnUse"
       id="clipPath4379"><path
         d="m 0,0 841.89,0 0,595.276 L 0,595.276 0,0 Z"
         id="path4381"
         inkscape:connector-curvature="0" /></clipPath><clipPath
       clipPathUnits="userSpaceOnUse"
       id="clipPath4423"><path
         d="m 0,0 841.89,0 0,595.276 L 0,595.276 0,0 Z"
         id="path4425"
         inkscape:connector-curvature="0" /></clipPath><clipPath
       clipPathUnits="userSpaceOnUse"
       id="clipPath4437"><path
         d="m 0,0 841.89,0 0,595.276 L 0,595.276 0,0 Z"
         id="path4439"
         inkscape:connector-curvature="0" /></clipPath><clipPath
       clipPathUnits="userSpaceOnUse"
       id="clipPath4471"><path
         d="m 0,0 841.89,0 0,595.276 L 0,595.276 0,0 Z"
         id="path4473"
         inkscape:connector-curvature="0" /></clipPath><style
       id="style6"
       type="text/css">
   
    .fil0 {fill:#C90302}
   
  </style><inkscape:perspective
       id="perspective17"
       inkscape:persp3d-origin="526.18109 : 129.92126 : 1"
       inkscape:vp_z="1052.3622 : 194.8819 : 1"
       inkscape:vp_y="0 : 1000 : 0"
       inkscape:vp_x="0 : 194.8819 : 1"
       sodipodi:type="inkscape:persp3d" /><sodipodi:namedview
       inkscape:window-height="974"
       inkscape:window-width="1280"
       inkscape:pageshadow="2"
       inkscape:pageopacity="0.0"
       guidetolerance="10.0"
       gridtolerance="10.0"
       objecttolerance="10.0"
       borderopacity="1.0"
       bordercolor="#666666"
       pagecolor="#ffffff"
       id="base"
       inkscape:zoom="0.25612053"
       inkscape:cx="1329.6704"
       inkscape:cy="-22.75906"
       inkscape:window-x="-8"
       inkscape:window-y="-8"
       inkscape:current-layer="svg2413" /></defs><sodipodi:namedview
     pagecolor="#ffffff"
     bordercolor="#666666"
     borderopacity="1"
     objecttolerance="10"
     gridtolerance="10"
     guidetolerance="10"
     inkscape:pageopacity="0"
     inkscape:pageshadow="2"
     inkscape:window-width="1920"
     inkscape:window-height="1017"
     id="namedview2987"
     showgrid="false"
     fit-margin-top="0"
     fit-margin-left="0"
     fit-margin-right="0"
     fit-margin-bottom="0"
     inkscape:zoom="4.4245551"
     inkscape:cx="100.35573"
     inkscape:cy="46.156374"
     inkscape:window-x="-8"
     inkscape:window-y="-8"
     inkscape:window-maximized="1"
     inkscape:current-layer="g2993" /><g
     id="g2993"
     inkscape:groupmode="layer"
     inkscape:label="onscreen_guidelines"
     transform="matrix(1.25,0,0,-1.25,-494.56247,-389.90673)"><g
       id="g3203"
       transform="translate(349.3506,368.504)"
       style="fill:#c80201;fill-opacity:1" /><g
       id="g4491"
       transform="translate(349.3506,42.5196)"
       style="fill:#c80201;fill-opacity:1" /><path
       inkscape:connector-curvature="0"
       id="path3789"
       style="fill:#ffffff;fill-opacity:1;fill-rule:nonzero;stroke:none"
       d="m 468.17327,-348.70902 -0.77456,-1.60202 c -0.6461,0.38917 -1.34321,0.63665 -2.24435,0.63665 -1.11084,0 -1.76261,-0.49308 -1.76261,-1.15618 0,-1.65114 5.13858,-1.35454 5.13858,-4.68328 0,-1.57369 -1.02205,-3.1436 -3.73114,-3.1436 -1.49056,0 -2.85077,0.50819 -3.67634,1.25064 l 0.83879,1.60014 c 0.81424,-0.60265 1.80228,-0.98804 2.7941,-0.98804 1.0126,0 1.62092,0.37027 1.62092,1.09572 0,1.92508 -5.10079,1.36021 -5.10079,4.79474 0,1.87029 1.69271,3.10015 3.63479,3.10015 1.39232,0 2.42193,-0.30605 3.26261,-0.90492" /><path
       inkscape:connector-curvature="0"
       id="path3793"
       style="fill:#ffffff;fill-opacity:1;fill-rule:nonzero;stroke:none"
       d="m 476.05097,-350.61671 c 0.37973,-0.14358 0.75567,-0.32494 1.12784,-0.57998 l -0.64988,-1.53591 c -0.18703,0.14358 -0.45907,0.28716 -0.73867,0.42129 -0.39106,0.17192 -0.93892,0.31927 -1.43389,0.31927 -1.44333,0 -2.40115,-0.92192 -2.40115,-2.48616 0,-1.71349 1.14863,-2.52584 2.44272,-2.52584 0.81234,0 1.54912,0.20781 2.18578,0.64988 l 0.65932,-1.3262 c -0.88602,-0.716 -1.95908,-0.97671 -3.12092,-0.97671 -2.36148,0 -4.21288,1.62092 -4.21288,4.17887 0,2.62785 1.95341,4.16753 4.22799,4.16753 0.69522,0 1.32054,-0.10201 1.91374,-0.30604" /><path
       inkscape:connector-curvature="0"
       style="fill:#ffffff;fill-opacity:1;fill-rule:nonzero;stroke:none"
       d="m 482.45243,-350.28892 c -2.44649,0 -4.10897,-1.77205 -4.10897,-4.20342 0,-2.44272 1.66248,-4.1562 4.10897,-4.1562 2.43138,0 4.10897,1.71348 4.10897,4.1562 0,2.43137 -1.67759,4.20342 -4.10897,4.20342 z m 0,-1.84195 c 0.65366,0 1.11462,-0.18136 1.46412,-0.56675 0.35705,-0.40995 0.56675,-1.01827 0.56675,-1.79472 0,-0.77457 -0.2097,-1.34321 -0.56675,-1.7475 -0.3495,-0.38539 -0.81046,-0.61398 -1.46412,-0.61398 -0.67255,0 -1.14295,0.22859 -1.51134,0.61398 -0.35139,0.40429 -0.56676,0.97293 -0.56676,1.7475 0,0.77645 0.21537,1.38477 0.56676,1.79472 0.36839,0.38539 0.83879,0.56675 1.51134,0.56675 z"
       id="path3797" /><path
       inkscape:connector-curvature="0"
       id="path3805"
       style="fill:#ffffff;fill-opacity:1;fill-rule:nonzero;stroke:none"
       d="m 493.05757,-358.38182 c -0.42318,-0.15869 -1.05794,-0.27582 -1.48868,-0.27582 -1.01638,0 -1.91752,0.27582 -2.47105,1.00505 -0.39861,0.53841 -0.60264,1.29787 -0.60264,2.3747 l 0,3.26828 -1.27709,0 0,1.50946 1.27709,0 0,2.31991 1.96852,0 0,-2.31991 2.04221,0 0,-1.50946 -2.04221,0 0,-2.96979 c 0,-0.73489 0.0888,-1.26764 0.3155,-1.60769 0.22292,-0.35517 0.60642,-0.50064 1.07683,-0.50064 0.2966,0 0.86336,0.0831 1.01638,0.13036 l 0.18514,-1.42445 z" /><path
       inkscape:connector-curvature="0"
       id="path3809"
       style="fill:#ffffff;fill-opacity:1;fill-rule:nonzero;stroke:none"
       d="m 494.47804,-347.99888 1.9742,0 0,-8.24816 c 0,-0.75756 0.0283,-1.61147 0.1568,-2.21034 l -1.9723,0 c -0.11336,0.59887 -0.1587,1.45278 -0.1587,2.21034 l 0,8.24816 z" /><path
       inkscape:connector-curvature="0"
       style="fill:#ffffff;fill-opacity:1;fill-rule:nonzero;stroke:none"
       d="m 501.86377,-350.28892 c -0.92381,0 -1.56046,-0.28715 -2.17256,-0.75567 -0.96159,-0.73489 -1.51134,-1.95908 -1.51134,-3.44775 0,-1.3621 0.46662,-2.52584 1.27519,-3.25884 0.64044,-0.5932 1.3451,-0.89736 2.36148,-0.89736 0.79724,0 1.8155,0.4005 2.45594,1.22797 0.0264,-0.37973 0.0774,-0.75568 0.14161,-1.03905 l 1.93641,0 c -0.12272,0.59887 -0.14161,1.43766 -0.14161,2.21978 l 0,5.76201 -1.98364,0 0,-1.03905 c -0.50441,0.72733 -1.3621,1.22796 -2.36148,1.22796 z m 0.42507,-1.84195 c 0.66877,0 1.15429,-0.18136 1.51134,-0.56675 0.36083,-0.40995 0.56676,-1.02583 0.56676,-1.79472 0,-0.75757 -0.20593,-1.34321 -0.56676,-1.7475 -0.35705,-0.38539 -0.84257,-0.61398 -1.51134,-0.61398 -0.65366,0 -1.15807,0.22859 -1.51135,0.61398 -0.36083,0.38917 -0.51952,0.98993 -0.51952,1.7475 0,0.76889 0.15869,1.39988 0.51952,1.79472 0.35328,0.38539 0.85769,0.56675 1.51135,0.56675 z"
       id="path3813" /><path
       inkscape:connector-curvature="0"
       id="path3821"
       style="fill:#ffffff;fill-opacity:1;fill-rule:nonzero;stroke:none"
       d="m 514.51168,-358.45757 c -0.12091,0.59887 -0.16247,1.45278 -0.16247,2.21034 l 0,1.68326 c 0,0.98993 -0.068,1.60203 -0.4534,1.99309 -0.38162,0.34761 -0.72923,0.46285 -1.29598,0.46285 -0.59887,0 -1.1184,-0.17381 -1.56425,-0.64421 -0.45529,-0.50064 -0.50441,-1.22986 -0.50441,-2.25191 l 0,-3.45342 -1.97419,0 0,5.72422 c 0,0.77078 -0.0567,1.63036 -0.1568,2.23301 l 1.92129,0 c 0.0775,-0.29282 0.1757,-0.79912 0.2097,-1.18452 l 0.0208,0 c 0.36462,0.71978 1.35077,1.37533 2.59574,1.37533 1.05416,0 1.82873,-0.37784 2.29347,-0.8558 0.60264,-0.62154 0.88224,-1.39233 0.88224,-3.05859 l 0,-2.02331 c 0,-0.75756 0.0491,-1.61147 0.15681,-2.21034 l -1.96853,0 z" /><path
       inkscape:connector-curvature="0"
       style="fill:#ffffff;fill-opacity:1;fill-rule:nonzero;stroke:none"
       d="m 523.91996,-348.0219 0,-3.44775 c -0.50063,0.70466 -1.3961,1.18073 -2.4087,1.18073 -0.92759,0 -1.51702,-0.28715 -2.12533,-0.75567 -0.97104,-0.72355 -1.51135,-1.95908 -1.51135,-3.44775 0,-1.36399 0.46285,-2.55796 1.2752,-3.30607 0.64988,-0.57809 1.32809,-0.85013 2.36148,-0.85013 0.81234,0 1.81172,0.4005 2.45593,1.22797 0.0189,-0.37973 0.0491,-0.75568 0.0945,-1.03905 l 1.98364,0 c -0.10761,0.59887 -0.14161,1.46222 -0.14161,2.21978 l 0,8.21794 -1.98364,0 z m -2.4087,-4.10897 c 0.14584,0.0266 0.30699,0 0.47229,0 0.65932,0 1.15807,-0.19458 1.51135,-0.56675 0.35705,-0.40806 0.56675,-1.02583 0.56675,-1.79472 0,-0.78024 -0.2097,-1.3451 -0.56675,-1.7475 -0.35328,-0.37217 -0.85203,-0.61398 -1.51135,-0.61398 -0.66121,0 -1.17318,0.24181 -1.51134,0.61398 -0.35328,0.4024 -0.51953,0.97293 -0.51953,1.7475 0,0.77645 0.16625,1.38666 0.51953,1.79472 0.25361,0.27913 0.60131,0.48714 1.03905,0.56675 z"
       id="path3825" /><path
       id="path4598"
       d="m 473.66692,-311.93175 c -0.2821,0.004 -0.56863,9.8e-4 -0.85544,-0.008 -3.63793,-0.11072 -6.84478,-1.23224 -9.47854,-3.31481 -1.44317,-1.14109 -2.94791,-3.01271 -3.81891,-4.74309 -2.3475,-4.66424 -2.38683,-10.98903 -0.0993,-15.66519 0.78463,-1.60399 1.57355,-2.70931 2.81072,-3.94874 2.50421,-2.50893 5.61845,-3.90664 9.63129,-4.31539 0.61623,-0.0628 3.41756,0.0171 4.04041,0.11456 3.44672,0.54017 6.21571,1.85229 8.42452,3.98697 2.56918,2.48299 4.04748,5.5399 4.5827,9.47854 0.13743,1.01174 0.15331,3.56229 0.0306,4.56742 -0.48372,3.96075 -2.02288,7.21228 -4.57506,9.67712 -2.77497,2.68 -6.46153,4.11656 -10.69295,4.17025 z m -0.12984,-5.75128 c 0.78256,-0.007 1.56254,-0.0839 2.26843,-0.22914 3.67339,-0.75579 6.01733,-3.31025 6.69837,-7.30176 0.27133,-1.58949 0.27126,-3.85315 0,-5.46104 -0.74056,-4.38982 -3.51985,-7.03703 -7.84404,-7.48508 -0.6837,-0.0708 -1.91623,-0.0657 -2.61214,0.008 -2.2186,0.2341 -3.9732,1.0203 -5.34648,2.39828 -1.35238,1.35702 -2.13851,3.05342 -2.51284,5.43813 -0.15802,1.00704 -0.15692,3.66813 0,4.71254 0.13449,0.89661 0.40274,1.9496 0.65685,2.58922 0.94369,2.3756 2.6609,4.02557 5.02569,4.81947 1.04015,0.34923 2.36188,0.52342 3.66616,0.51173 z"
       style="fill:#ffffff;fill-opacity:1"
       inkscape:connector-curvature="0" /><path
       id="path4594"
       d="m 539.76465,-311.95466 c -1.70897,0.005 -2.1733,-0.0342 -3.42938,-0.2826 -5.31718,-1.0517 -9.41631,-4.69455 -11.13595,-9.88335 -0.795,-2.39899 -1.10476,-4.92682 -0.90126,-7.42396 0.44577,-5.46992 2.89547,-9.71633 7.04207,-12.22054 1.95536,-1.18079 3.9581,-1.81562 6.85113,-2.16149 0.11889,-0.0142 1.024,-0.0173 2.00875,-0.008 1.4097,0.0139 2.00109,0.0465 2.80308,0.15275 3.60431,0.4769 6.73467,1.56191 9.25704,3.20026 0.67127,0.43598 1.36718,0.95081 1.36718,1.01582 0,0.0279 -0.52017,1.00753 -1.15332,2.17679 l -1.15331,2.12332 -0.33606,-0.22149 c -4.64394,-2.97066 -11.47403,-3.77139 -15.56589,-1.83307 -2.55048,1.20817 -4.0339,3.30196 -4.59797,6.49214 l -0.0382,0.19858 11.91501,0 11.915,0 0.0306,0.13748 c 0.1837,0.78691 0.26552,2.94853 0.16039,4.21608 -0.14935,1.79836 -0.39252,3.02904 -0.90126,4.57506 -1.58486,4.8166 -5.10676,8.08419 -10.00555,9.28759 -1.44795,0.35572 -2.29118,0.45312 -4.13207,0.45827 z m -0.50409,-5.68255 c 0.9044,0.0168 1.93207,-0.0358 2.54339,-0.14511 1.78336,-0.31879 3.12972,-0.95345 4.26955,-2.00875 1.3573,-1.25659 2.22495,-3.16637 2.34481,-5.17081 l 0.0382,-0.66449 -8.8446,0 -8.8446,0 0.0382,0.36662 c 0.14118,1.35061 0.68897,2.86708 1.46646,4.04804 0.45003,0.68355 1.49033,1.7138 2.19969,2.17678 0.97262,0.63455 2.11692,1.06582 3.40647,1.2908 0.33584,0.0586 0.83981,0.0968 1.38245,0.10692 z"
       style="fill:#ffffff;fill-opacity:1"
       inkscape:connector-curvature="0" /><path
       id="path4590"
       d="m 498.06149,-335.57584 c 0,4.66387 0.0245,7.8912 0.0637,8.38067 0.2505,3.12602 1.04736,5.14194 2.68349,6.78845 1.73915,1.75018 4.07818,2.58109 6.97621,2.47831 2.32277,-0.0824 3.94236,-0.72122 5.21764,-2.05778 1.00115,-1.04934 1.59634,-2.27562 1.94374,-4.00475 0.25375,-1.26351 0.2789,-1.84295 0.31224,-7.22355 0.0436,-7.01012 0.16016,-9.28589 0.59386,-11.59093 l 0.0669,-0.35505 3.00617,0 3.0061,0 -0.11256,0.69458 c -0.11698,0.72099 -0.24528,1.88628 -0.36521,3.31833 -0.0418,0.49926 -0.0891,3.5559 -0.11793,7.62444 -0.0474,6.71297 -0.0639,7.2276 -0.28075,8.76648 -0.32305,2.29401 -1.09363,4.38335 -2.17291,5.89206 -0.88711,1.24018 -2.35699,2.57785 -3.62351,3.29803 -3.17605,1.80595 -7.47707,2.14967 -11.14708,0.89073 -1.3306,-0.45636 -2.54806,-1.12843 -3.61748,-1.99686 -0.67082,-0.54472 -1.66667,-1.56574 -2.08963,-2.14246 -0.16774,-0.22888 -0.32143,-0.41612 -0.34152,-0.41612 -0.02,0 -0.0696,0.31261 -0.11028,0.69459 -0.11565,1.08804 -0.36505,2.44277 -0.63653,3.45716 l -0.0621,0.23153 -2.95204,0 -2.95203,0 0.0778,-0.4476 c 0.26324,-1.51556 0.43937,-3.5832 0.52162,-6.12654 0.033,-1.01903 0.0604,-6.77705 0.0609,-12.79558 l 7.2e-4,-10.94277 3.02509,0 3.02508,0 0,7.58463 0,0 z"
       style="fill:#ffffff;fill-opacity:1"
       inkscape:connector-curvature="0" /><path
       style="fill:#c80201;fill-opacity:1"
       d="m 395.64997,-312.79524 0,-7.64868 0,-7.64854 8.14063,0 8.14062,0 0,7.64854 0,7.64868 -8.14062,0 -8.14063,0 z m 4.24923,-2.14697 2.14698,0 c 1.93991,0 2.2089,-0.0243 2.63899,-0.13455 1.39145,-0.35582 2.29441,-1.32354 2.37063,-2.54946 0.0648,-1.04129 -0.2979,-1.76239 -1.11822,-2.28124 l -0.26837,-0.17891 0.3131,-0.0888 c 0.79529,-0.2801 1.44763,-0.87439 1.78914,-1.56557 0.22791,-0.46117 0.26838,-0.45931 0.26838,-1.16295 0,-0.70249 -0.0428,-0.75144 -0.26838,-1.2076 -0.50814,-1.02826 -1.39394,-1.5746 -2.8179,-1.78915 -0.43039,-0.0644 -1.18538,-0.0887 -2.81791,-0.0902 l -2.23644,0 0,5.5017 0,5.54636 z m 1.96807,-1.7445 0,-1.38651 0,-1.43132 0.71565,0 c 0.38198,5.7e-4 0.84792,0.0415 1.07349,0.0887 0.99335,0.21055 1.40602,0.67773 1.34186,1.56558 -0.0355,0.48865 -0.19345,0.78092 -0.6262,0.98388 -0.32319,0.15144 -0.43377,0.15974 -1.43132,0.17892 l -1.07348,0 z m 0,-4.56218 0,-1.52092 0,-1.47598 1.07348,0 c 0.58577,7.2e-4 1.2421,0.0143 1.47605,0.0444 1.02976,0.14886 1.61024,0.66929 1.61024,1.47612 0,0.51041 -0.2006,0.81686 -0.62621,1.07349 -0.51271,0.30917 -0.97461,0.40263 -2.32589,0.40263 l -1.20767,0 z"
       id="path4588"
       inkscape:connector-curvature="0" /><path
       style="fill:#c80201;fill-opacity:1"
       d="m 414.3913,-312.79524 0,-7.64868 0,-7.64854 8.18536,0 8.18535,0 0,7.64854 0,7.64868 -8.18535,0 -8.18536,0 z m 4.33869,-2.14697 2.10225,0 c 2.38413,-0.001 2.69185,-0.0315 3.44411,-0.40249 1.13526,-0.56094 1.74877,-1.68137 1.5655,-2.86264 -0.0384,-0.24747 -0.11465,-0.57067 -0.17891,-0.71566 -0.1417,-0.32047 -0.59816,-0.82458 -0.89458,-0.98417 -0.22446,-0.12023 -0.28361,-0.22357 -0.13411,-0.22357 0.20674,0 1.06972,-0.50068 1.38659,-0.80512 0.69797,-0.67072 0.99972,-1.7402 0.76039,-2.63892 -0.29803,-1.11972 -1.16119,-1.88834 -2.50481,-2.23658 -0.4688,-0.12166 -0.72363,-0.15416 -3.04155,-0.17892 l -2.50481,0 0,5.50171 0,5.54636 z m 1.96806,-1.7445 0,-1.43131 0,-1.43132 0.89458,0.0444 c 0.52271,0.02 0.98512,0.0787 1.16294,0.13454 0.72504,0.22815 1.08092,0.66227 1.07349,1.38666 -0.004,0.45473 -0.11536,0.69777 -0.40256,0.93923 -0.32084,0.27009 -0.73863,0.35783 -1.78915,0.35783 l -0.9393,0 z m 0,-4.56218 0,-1.52092 0,-1.52063 1.34186,0.0444 c 1.13697,0.0243 1.33339,0.0157 1.69969,0.13454 1.04471,0.33837 1.42348,1.48113 0.76039,2.23629 -0.43502,0.49538 -1.01682,0.62477 -2.63899,0.62635 l -1.16295,0 z"
       id="path4580"
       inkscape:connector-curvature="0" /><path
       style="fill:#c80201;fill-opacity:1"
       d="m 433.22209,-312.79524 0,-7.64868 0,-7.64854 8.18535,0 8.14063,0 0,7.64854 0,7.64868 -8.14063,0 -8.18535,0 z m 8.49846,-2.01272 c 1.1864,0.0658 2.35527,-0.11307 3.80194,-0.62634 l 0.67093,-0.26823 0,-1.02883 c 0,-0.55664 0.0129,-0.98403 0,-0.98403 -0.0129,0 -0.37421,0.12881 -0.76039,0.31302 -1.37284,0.65326 -2.27617,0.89658 -3.53357,0.84992 -0.65823,-0.0243 -0.88918,-0.0558 -1.38659,-0.22357 -0.75197,-0.2542 -1.23574,-0.56036 -1.74442,-1.07349 -0.68958,-0.69562 -1.03045,-1.60393 -1.02876,-2.63906 0.003,-1.09926 0.34138,-1.91869 1.07349,-2.63907 0.82149,-0.80798 1.8898,-1.20131 3.26519,-1.2076 1.21893,0 2.243,0.26565 3.53357,0.93937 l 0.71566,0.35783 0,-1.02883 0,-1.02883 -0.40256,-0.22358 c -1.15793,-0.53359 -2.15072,-0.72753 -3.57829,-0.76031 -0.57731,-0.0143 -1.21767,-0.0301 -1.43132,0 -2.22552,0.31346 -4.02577,1.62497 -4.8307,3.53349 -0.48284,1.14506 -0.52867,2.48506 -0.13412,3.71242 0.62977,1.95961 2.39692,3.4572 4.56233,3.89147 0.40874,0.0816 0.8122,0.11307 1.20768,0.13454 z"
       id="path4572"
       inkscape:connector-curvature="0" /></g></svg>