<svg height="75.956314" width="138.98726" xmlns="http://www.w3.org/2000/svg"><path d="m0 0h-2.534l1.288 3.708zm3.207-3.479-3.723 10.193h-1.56l-3.708-10.193h2.076l.616 1.804h3.622l.601-1.804z" fill="#fff" transform="matrix(3.8390663 0 0 -3.8390663 22.205159 62.600205)"/><path d="m0 0v1.775h-4.624v8.418h-1.99v-10.193z" fill="#fff" transform="matrix(3.8390663 0 0 -3.8390663 65.289849 75.955595)"/><g fill-rule="evenodd"><path d="m0 0c0-.687-.43-1.26-1.331-1.26h-2.076v2.505h2.076c.901 0 1.331-.558 1.331-1.245m-.143 4.209c0-.701-.472-1.174-1.317-1.174h-1.947v2.348h1.947c.845 0 1.317-.472 1.317-1.174m2.133-4.309c0 1.36-.787 2.004-1.403 2.29.515.244 1.26.974 1.26 2.105 0 1.747-1.16 2.863-3.15 2.863h-4.095v-10.193h4.267c1.818 0 3.121 1.031 3.121 2.935" fill="#fff" transform="matrix(3.8390663 0 0 -3.8390663 92.767549 64.304325)"/><path d="m0 0h-2.534l1.289 3.708zm3.207-3.479-3.722 10.193h-1.561l-3.708-10.193h2.076l.616 1.804h3.622l.601-1.804z" fill="#fff" transform="matrix(3.8390663 0 0 -3.8390663 126.67537 62.600195)"/><g fill="#007eab"><path d="m0 0h-.615v-1.458h.648c.36 0 .603.027.731.082.129.057.232.145.309.263.079.119.119.246.119.382 0 .141-.042.269-.126.386-.081.116-.197.202-.348.259-.152.057-.391.086-.718.086m-.049 1.968h-.566v-1.382h.437c.351 0 .601.067.747.201.15.134.224.307.225.52 0 .441-.281.661-.843.661m.332-4.012h-1.557v4.598h1.205c.379 0 .676-.051.889-.154.213-.101.375-.242.487-.422.112-.178.168-.384.168-.619 0-.452-.234-.776-.701-.971.335-.063.602-.202.799-.414.2-.213.3-.468.3-.764 0-.235-.06-.444-.181-.629-.121-.184-.298-.334-.533-.451-.233-.116-.525-.174-.876-.174m-3.3725999 5.3798999h6.6759998v-6.2829998h-6.6759998z" transform="matrix(3.8390663 0 0 -3.8390663 40.263748 12.806741)"/><path d="m0 0h-.615v-1.458h.648c.36 0 .603.027.73.082.13.057.233.145.31.263.079.119.119.246.119.382 0 .141-.042.269-.125.386-.082.116-.198.202-.349.259-.152.057-.391.086-.718.086m-.049 1.968h-.566v-1.382h.437c.351 0 .6.067.747.201.149.134.224.307.224.52 0 .441-.281.661-.842.661m.332-4.012h-1.557v4.598h1.205c.379 0 .676-.051.888-.154.213-.101.376-.242.488-.422.112-.178.167-.384.167-.619 0-.452-.233-.776-.701-.971.336-.063.603-.202.8-.414.2-.213.3-.468.3-.764 0-.235-.06-.444-.181-.629-.121-.184-.299-.334-.533-.451-.233-.116-.525-.174-.876-.174m-3.3724999 5.3798999h6.6760009v-6.2829998h-6.6760009z" transform="matrix(3.8390663 0 0 -3.8390663 69.662934 12.806741)"/><path d="m0 0v-.724c-.483-.264-1.04-.395-1.672-.395-.514 0-.949.103-1.307.309s-.641.49-.849.853c-.209.362-.313.754-.313 1.175 0 .669.238 1.232.714 1.689.479.456 1.068.684 1.768.684.483 0 1.019-.126 1.61-.378v-.708c-.538.307-1.064.461-1.577.461-.527 0-.965-.167-1.313-.501-.347-.331-.521-.747-.521-1.247 0-.505.172-.92.514-1.245.342-.324.78-.487 1.313-.487.558 0 1.102.172 1.633.514m-5.3867994 4.3134999h6.6760009v-6.2829999h-6.6760009z" transform="matrix(3.8390663 0 0 -3.8390663 107.87815 16.559812)"/></g></g></svg>