<?xml version="1.0" encoding="UTF-8" standalone="no"?>
<!-- Created with Inkscape (http://www.inkscape.org/) -->

<svg
   xmlns:dc="http://purl.org/dc/elements/1.1/"
   xmlns:cc="http://creativecommons.org/ns#"
   xmlns:rdf="http://www.w3.org/1999/02/22-rdf-syntax-ns#"
   xmlns:svg="http://www.w3.org/2000/svg"
   xmlns="http://www.w3.org/2000/svg"
   xmlns:sodipodi="http://sodipodi.sourceforge.net/DTD/sodipodi-0.dtd"
   xmlns:inkscape="http://www.inkscape.org/namespaces/inkscape"
   id="svg2"
   version="1.1"
   inkscape:version="0.91 r13725"
   width="300"
   height="225"
   sodipodi:docname="BBC Four HD - Original.svg">
  <metadata
     id="metadata8">
    <rdf:RDF>
      <cc:Work
         rdf:about="">
        <dc:format>image/svg+xml</dc:format>
        <dc:type
           rdf:resource="http://purl.org/dc/dcmitype/StillImage" />
        <dc:title></dc:title>
      </cc:Work>
    </rdf:RDF>
  </metadata>
  <defs
     id="defs6" />
  <sodipodi:namedview
     pagecolor="#ffffff"
     bordercolor="#666666"
     borderopacity="1"
     objecttolerance="10"
     gridtolerance="10"
     guidetolerance="10"
     inkscape:pageopacity="0"
     inkscape:pageshadow="2"
     inkscape:window-width="1920"
     inkscape:window-height="1017"
     id="namedview4"
     showgrid="false"
     fit-margin-top="0"
     fit-margin-left="0"
     fit-margin-right="0"
     fit-margin-bottom="0"
     inkscape:zoom="2.3066667"
     inkscape:cx="85.187862"
     inkscape:cy="112.5"
     inkscape:window-x="-8"
     inkscape:window-y="-8"
     inkscape:window-maximized="1"
     inkscape:current-layer="svg2" />
  <g
     id="g3002">
    <g
       transform="scale(10.880998,11.109465)"
       id="g3151">
      <polyline
         points="0,0 27.571,0 27.571,20.253 0,20.253 0,0 "
         id="polyline3123" />
      <polygon
         style="fill:#ffffff"
         points="6.44,12.551 6.44,11.8 4.171,11.8 4.171,10.188 6.44,10.188 6.44,9.437 3.335,9.437 3.335,15.254 4.171,15.254 4.171,12.551 "
         id="polygon3125" />
      <path
         style="fill:#ffffff"
         inkscape:connector-curvature="0"
         d="m 7.24,12.345 c 0,1.578 1.202,2.985 3.104,2.985 1.971,0 3.148,-1.415 3.148,-2.985 0,-1.619 -1.211,-2.984 -3.131,-2.984 C 8.476,9.36 7.24,10.733 7.24,12.345 m 0.861,0 c 0,-1.278 0.964,-2.217 2.26,-2.217 1.306,0 2.269,0.938 2.269,2.217 0,1.271 -0.963,2.219 -2.269,2.219 -1.296,-10e-4 -2.26,-0.948 -2.26,-2.219"
         id="path3127" />
      <path
         style="fill:#ffffff"
         inkscape:connector-curvature="0"
         d="m 19.23,9.437 h -0.837 v 3.387 c 0,0.545 -0.067,0.973 -0.366,1.271 -0.265,0.265 -0.725,0.47 -1.365,0.47 -0.502,0 -0.922,-0.163 -1.254,-0.495 -0.265,-0.265 -0.35,-0.538 -0.35,-1.195 V 9.437 h -0.836 v 3.617 c 0,1.586 1.194,2.276 2.424,2.276 1.73,0 2.584,-0.938 2.584,-2.362 V 9.437"
         id="path3129" />
      <path
         style="fill:#ffffff"
         inkscape:connector-curvature="0"
         d="m 20.394,9.436 v 5.818 h 0.837 v -2.525 h 0.35 c 0.426,0 0.775,0.138 1.543,1.331 l 0.768,1.194 h 0.998 c -0.4,-0.554 -0.546,-0.751 -0.793,-1.151 -0.443,-0.726 -0.768,-1.263 -1.296,-1.612 0.622,-0.247 0.972,-0.751 0.972,-1.424 0,-1.008 -0.734,-1.631 -1.91,-1.631 h -1.469 m 0.836,0.717 h 0.536 c 0.812,0 1.136,0.333 1.144,0.879 0.009,0.485 -0.248,0.946 -1.144,0.946 H 21.23 v -1.825"
         id="path3131" />
      <path
         style="fill:#ffffff"
         inkscape:connector-curvature="0"
         d="M 18.2,5.025 C 18.183,5.023 18.169,5.02 18.152,5.017 L 18.134,5.015 C 18.107,5.011 18.08,5.007 18.054,5.005 18.036,5.004 18.018,5.003 18,5.001 17.967,5 17.936,4.999 17.904,4.999 c -0.014,0 -0.022,0 -0.036,0 C 17.842,5 17.816,5.001 17.791,5.002 17.777,5.003 17.764,5.004 17.749,5.006 17.728,5.007 17.709,5.01 17.689,5.013 L 17.671,5.015 17.653,5.018 17.63,5.022 C 17.62,5.024 17.61,5.025 17.601,5.027 17.587,5.03 17.575,5.032 17.56,5.035 17.478,5.052 17.404,5.075 17.333,5.102 17.297,5.116 17.263,5.13 17.229,5.148 17.202,5.161 17.176,5.174 17.151,5.19 17.126,5.204 17.102,5.217 17.08,5.233 17.067,5.242 17.054,5.251 17.042,5.259 17.031,5.268 17.021,5.275 17.011,5.282 16.989,5.299 16.968,5.316 16.948,5.333 16.929,5.351 16.912,5.367 16.894,5.383 16.88,5.398 16.867,5.412 16.853,5.428 16.838,5.444 16.825,5.458 16.812,5.475 16.797,5.493 16.784,5.51 16.771,5.53 16.761,5.544 16.75,5.558 16.741,5.572 16.734,5.582 16.728,5.592 16.722,5.602 16.687,5.661 16.655,5.723 16.629,5.79 16.597,5.874 16.573,5.964 16.56,6.06 16.556,6.089 16.554,6.121 16.552,6.152 16.55,6.175 16.55,6.201 16.55,6.225 c 0,0.019 0,0.036 0,0.055 0.002,0.019 0.004,0.037 0.006,0.056 l 0.002,0.014 c 0.002,0.021 0.006,0.043 0.01,0.063 0,0.009 0.003,0.018 0.005,0.025 0.004,0.018 0.008,0.035 0.012,0.053 0.006,0.022 0.013,0.044 0.021,0.065 0.009,0.025 0.018,0.052 0.029,0.076 0.016,0.04 0.033,0.078 0.053,0.114 0.013,0.021 0.023,0.041 0.037,0.062 0.01,0.015 0.02,0.03 0.029,0.045 0.014,0.02 0.027,0.039 0.041,0.056 0.016,0.019 0.03,0.037 0.044,0.054 0.019,0.021 0.037,0.04 0.056,0.059 l 0.01,0.009 c 0.015,0.015 0.029,0.03 0.049,0.046 0.013,0.01 0.025,0.022 0.04,0.033 0.013,0.01 0.026,0.02 0.041,0.031 0.017,0.012 0.036,0.024 0.055,0.037 0.021,0.014 0.042,0.026 0.066,0.039 0.045,0.026 0.095,0.051 0.149,0.072 0.021,0.008 0.043,0.017 0.064,0.024 0.021,0.007 0.045,0.014 0.068,0.021 0.039,0.013 0.08,0.022 0.125,0.03 0.035,0.007 0.072,0.012 0.108,0.017 0.038,0.005 0.077,0.009 0.118,0.011 0.02,10e-4 0.039,0.002 0.059,0.002 0.01,0 0.02,0 0.028,0 0.073,0 0.14,-0.002 0.202,-0.008 L 18.089,7.384 C 18.114,7.383 18.138,7.38 18.161,7.377 18.196,7.372 18.229,7.367 18.263,7.362 18.284,7.358 18.302,7.354 18.322,7.35 18.351,7.342 18.38,7.335 18.407,7.329 18.428,7.324 18.446,7.319 18.465,7.313 18.486,7.306 18.508,7.298 18.528,7.292 l 0.02,-0.007 C 18.56,7.281 18.572,7.276 18.587,7.27 18.608,7.262 18.633,7.251 18.662,7.24 18.679,7.233 18.697,7.225 18.715,7.216 18.732,7.208 18.75,7.2 18.769,7.192 18.775,7.188 18.784,7.185 18.791,7.181 V 6.737 C 18.785,6.74 18.78,6.743 18.774,6.747 L 18.745,6.766 C 18.715,6.785 18.684,6.8 18.656,6.818 18.624,6.835 18.593,6.851 18.561,6.866 18.506,6.892 18.455,6.913 18.403,6.931 18.307,6.965 18.219,6.987 18.141,7 c -0.01,0.002 -0.019,0.004 -0.027,0.005 -0.022,0.003 -0.042,0.007 -0.063,0.009 -0.031,0.004 -0.06,0.005 -0.085,0.007 -0.017,0 -0.032,0 -0.047,0 -0.03,0 -0.063,0 -0.096,-0.003 C 17.784,7.015 17.745,7.01 17.705,7.004 17.641,6.993 17.578,6.978 17.514,6.954 17.505,6.951 17.496,6.947 17.488,6.943 17.481,6.941 17.475,6.938 17.469,6.936 17.458,6.931 17.448,6.927 17.438,6.921 17.417,6.911 17.395,6.9 17.375,6.889 17.365,6.883 17.354,6.876 17.345,6.87 17.334,6.863 17.324,6.856 17.314,6.849 17.3,6.839 17.288,6.83 17.275,6.821 17.263,6.812 17.251,6.801 17.241,6.793 L 17.225,6.78 17.217,6.773 17.213,6.77 17.208,6.764 C 17.187,6.744 17.169,6.725 17.152,6.704 17.144,6.693 17.134,6.682 17.127,6.67 17.118,6.66 17.111,6.649 17.104,6.638 17.098,6.627 17.091,6.617 17.085,6.607 17.075,6.591 17.066,6.576 17.061,6.561 17.053,6.546 17.047,6.534 17.041,6.521 17.032,6.499 17.023,6.477 17.018,6.455 17.012,6.439 17.007,6.422 17.003,6.406 16.991,6.36 16.984,6.318 16.982,6.282 16.98,6.269 16.98,6.255 16.98,6.244 16.978,6.226 16.978,6.21 16.978,6.198 c 0,-0.008 0,-0.017 0,-0.028 C 16.98,6.146 16.982,6.113 16.988,6.077 16.991,6.055 16.995,6.031 17.001,6.006 17.005,5.99 17.01,5.974 17.016,5.955 17.02,5.94 17.026,5.924 17.032,5.907 17.036,5.897 17.041,5.886 17.046,5.875 17.052,5.86 17.06,5.846 17.067,5.83 17.073,5.818 17.08,5.808 17.086,5.796 17.101,5.772 17.117,5.745 17.136,5.721 17.144,5.712 17.15,5.703 17.157,5.695 17.166,5.684 17.177,5.672 17.186,5.661 17.192,5.655 17.197,5.65 17.202,5.644 17.283,5.563 17.374,5.502 17.468,5.459 17.484,5.452 17.498,5.446 17.513,5.44 17.529,5.434 17.543,5.429 17.558,5.423 17.575,5.417 17.591,5.412 17.607,5.408 17.623,5.403 17.64,5.399 17.654,5.396 17.67,5.393 17.685,5.389 17.702,5.386 17.719,5.382 17.736,5.38 17.753,5.378 c 0.017,-0.003 0.033,-0.005 0.05,-0.006 0.033,-0.003 0.064,-0.004 0.096,-0.004 0.01,0 0.021,0 0.031,0 0.022,10e-4 0.045,10e-4 0.066,0.003 0.016,10e-4 0.029,10e-4 0.044,0.003 0.028,0.003 0.056,0.006 0.08,0.011 0.022,0.003 0.045,0.007 0.065,0.011 0.031,0.007 0.062,0.014 0.086,0.02 0.019,0.005 0.033,0.011 0.047,0.015 0.021,0.006 0.041,0.012 0.055,0.016 0.023,0.009 0.038,0.014 0.038,0.014 0.022,0.009 0.043,0.017 0.063,0.025 0.028,0.011 0.055,0.022 0.08,0.035 0.022,0.009 0.043,0.02 0.062,0.028 0.016,0.008 0.03,0.016 0.044,0.022 0.025,0.013 0.045,0.024 0.063,0.033 l 0.045,0.024 V 5.196 c 0,0 -0.027,-0.011 -0.074,-0.029 C 18.673,5.16 18.649,5.15 18.621,5.142 18.606,5.135 18.59,5.129 18.571,5.123 18.559,5.119 18.544,5.114 18.53,5.109 18.512,5.103 18.496,5.098 18.477,5.093 18.465,5.088 18.453,5.084 18.438,5.08 L 18.428,5.077 C 18.414,5.073 18.401,5.069 18.387,5.066 18.371,5.061 18.356,5.057 18.34,5.053 18.329,5.051 18.319,5.047 18.309,5.045 18.291,5.041 18.274,5.037 18.256,5.033 18.236,5.032 18.219,5.028 18.2,5.025 M 16.031,4.574 h 3.441 V 7.813 H 16.031 V 4.574 z"
         id="path3133" />
      <path
         style="fill:#ffffff"
         inkscape:connector-curvature="0"
         d="m 13.386,6.36 v 0.638 h 0.413 c 0,0 0.008,0 0.022,-0.001 0.014,0 0.034,-10e-4 0.057,-0.003 C 13.923,6.99 13.983,6.98 14.04,6.962 14.092,6.943 14.142,6.918 14.181,6.88 14.196,6.865 14.208,6.849 14.218,6.834 14.25,6.783 14.258,6.73 14.26,6.701 14.261,6.688 14.261,6.68 14.261,6.68 V 6.665 C 14.261,6.652 14.259,6.629 14.252,6.603 14.244,6.574 14.231,6.539 14.204,6.506 14.199,6.5 14.193,6.494 14.187,6.487 14.176,6.475 14.165,6.465 14.15,6.456 14.128,6.438 14.102,6.424 14.074,6.412 14.036,6.396 13.995,6.384 13.949,6.376 13.926,6.371 13.901,6.368 13.876,6.365 13.86,6.364 13.845,6.362 13.828,6.361 13.815,6.361 13.8,6.36 13.786,6.36 c -0.147,0 -0.4,0 -0.4,0"
         id="path3135" />
      <path
         style="fill:#ffffff"
         inkscape:connector-curvature="0"
         d="m 13.386,5.393 v 0.604 h 0.2 c 0,0 0.013,0 0.031,-10e-4 0.014,0 0.03,-0.001 0.045,-0.002 0.041,-0.003 0.098,-0.009 0.155,-0.024 0.011,-0.004 0.022,-0.007 0.033,-0.011 0.045,-0.016 0.088,-0.039 0.121,-0.072 0.027,-0.025 0.044,-0.055 0.056,-0.083 0.014,-0.035 0.019,-0.067 0.021,-0.091 10e-4,-0.021 10e-4,-0.034 10e-4,-0.034 0,0 0.001,-0.01 0,-0.025 C 14.048,5.628 14.043,5.585 14.022,5.544 14.012,5.524 13.998,5.505 13.979,5.487 13.957,5.464 13.929,5.447 13.9,5.433 13.844,5.41 13.779,5.4 13.725,5.395 13.701,5.393 13.68,5.393 13.662,5.393 h -0.276"
         id="path3137" />
      <path
         style="fill:#ffffff"
         inkscape:connector-curvature="0"
         d="m 12.968,5.029 v 2.332 h 0.878 c 0,0 0.427,0.013 0.666,-0.224 0.191,-0.193 0.178,-0.415 0.178,-0.415 0,0 0.014,-0.233 -0.164,-0.411 C 14.374,6.159 14.18,6.119 14.18,6.119 c 0,0 0.088,-0.042 0.154,-0.109 0.032,-0.03 0.143,-0.133 0.143,-0.378 0,-0.248 -0.164,-0.39 -0.164,-0.39 0,0 -0.181,-0.213 -0.587,-0.213 H 12.968 M 12.065,4.574 h 3.442 V 7.813 H 12.065 V 4.574 z"
         id="path3139" />
      <path
         style="fill:#ffffff"
         inkscape:connector-curvature="0"
         d="m 9.419,6.36 v 0.638 h 0.413 c 0,0 0.009,0 0.022,-0.001 0.014,0 0.034,-10e-4 0.058,-0.003 C 9.957,6.99 10.015,6.98 10.073,6.962 10.125,6.943 10.176,6.918 10.214,6.88 10.229,6.865 10.241,6.849 10.251,6.834 10.283,6.783 10.292,6.73 10.293,6.701 10.294,6.688 10.294,6.68 10.294,6.68 c 0,0 10e-4,-0.006 0,-0.016 0,-0.013 -0.002,-0.036 -0.008,-0.062 C 10.278,6.573 10.263,6.538 10.238,6.505 10.232,6.499 10.227,6.493 10.222,6.486 10.21,6.474 10.198,6.464 10.185,6.455 10.162,6.437 10.136,6.423 10.108,6.411 10.071,6.395 10.029,6.383 9.983,6.375 9.96,6.372 9.937,6.369 9.91,6.366 9.895,6.365 9.879,6.363 9.862,6.362 9.848,6.361 9.833,6.36 9.819,6.36 c -0.147,0 -0.4,0 -0.4,0"
         id="path3141" />
      <path
         style="fill:#ffffff"
         inkscape:connector-curvature="0"
         d="m 9.419,5.393 v 0.604 h 0.2 c 0,0 0.013,0 0.031,-10e-4 0.014,0 0.03,-0.001 0.045,-0.002 C 9.736,5.991 9.793,5.985 9.851,5.97 9.863,5.966 9.873,5.963 9.885,5.959 9.929,5.943 9.972,5.92 10.005,5.887 10.032,5.862 10.049,5.832 10.061,5.804 10.075,5.769 10.08,5.737 10.082,5.713 c 0.002,-0.021 0.002,-0.034 0.002,-0.034 0,0 0,-0.01 -10e-4,-0.025 C 10.082,5.628 10.076,5.585 10.056,5.544 10.046,5.524 10.032,5.505 10.013,5.487 9.99,5.463 9.963,5.446 9.934,5.433 9.877,5.409 9.813,5.399 9.758,5.395 9.735,5.393 9.713,5.393 9.695,5.393 H 9.419"
         id="path3143" />
      <path
         style="fill:#ffffff"
         inkscape:connector-curvature="0"
         d="M 9.001,5.029 V 7.361 H 9.88 c 0,0 0.428,0.013 0.664,-0.224 0.193,-0.193 0.179,-0.415 0.179,-0.415 0,0 0.014,-0.233 -0.164,-0.411 -0.152,-0.152 -0.346,-0.192 -0.346,-0.192 0,0 0.087,-0.042 0.155,-0.109 0.031,-0.03 0.143,-0.133 0.143,-0.378 0,-0.248 -0.164,-0.39 -0.164,-0.39 0,0 -0.181,-0.213 -0.588,-0.213 H 9.001 M 8.098,4.574 H 11.54 V 7.813 H 8.098 V 4.574 z"
         id="path3145" />
    </g>
    <g
       transform="matrix(0.82252672,0,0,0.82252672,159.20305,-175.95881)"
       id="g3079">
      <path
         inkscape:connector-curvature="0"
         d="m 123.02118,306.05187 4.473,-4.13 -0.028,31.192 -4.445,-4.704 0,-8.848 -17.542,0 0,13.587 -4.466,-4.697 0,-22.386 4.466,-4.144 0,13.496 17.542,0 0,-9.366 z"
         id="path15603"
         style="fill:#ffffff;fill-rule:nonzero;stroke:none" />
      <path
         inkscape:connector-curvature="0"
         d="m 127.46618,333.09987 0,0 4.473,-3.983 5.684,0 c 2.233,0 3.969,-0.147 5.208,-0.434 1.246,-0.315 2.268,-0.7 3.094,-1.162 0.833,-0.483 1.582,-1.071 2.275,-1.75 2.205,-2.233 3.304,-5.061 3.304,-8.477 0,-3.353 -1.134,-6.083 -3.395,-8.19 -0.833,-0.791 -1.792,-1.449 -2.884,-1.953 -1.071,-0.511 -2.093,-0.84 -3.066,-1.001 -0.959,-0.161 -2.513,-0.245 -4.669,-0.245 l -5.579,0 -4.431,-3.983 10.486,0 c 4.242,0 7.609,0.644 10.073,1.918 2.478,1.274 4.445,3.143 5.908,5.621 1.449,2.471 2.191,5.166 2.191,8.092 0,2.079 -0.413,4.074 -1.211,5.985 -0.812,1.904 -1.96,3.584 -3.444,5.033 -1.512,1.491 -3.283,2.611 -5.292,3.367 -1.176,0.462 -2.268,0.777 -3.241,0.938 -0.98,0.154 -2.863,0.224 -5.642,0.224 l -9.842,0 9.842,0 c 2.779,0 4.662,-0.07 5.642,-0.224 0.973,-0.161 2.065,-0.476 3.241,-0.938 2.009,-0.756 3.78,-1.876 5.292,-3.367 1.484,-1.449 2.632,-3.129 3.444,-5.033 0.798,-1.911 1.211,-3.906 1.211,-5.985 0,-2.926 -0.742,-5.621 -2.191,-8.092 -1.463,-2.478 -3.43,-4.347 -5.908,-5.621 -2.464,-1.274 -5.831,-1.918 -10.073,-1.918 l -10.486,0 4.431,3.983 5.579,0 c 2.156,0 3.71,0.084 4.669,0.245 0.973,0.161 1.995,0.49 3.066,1.001 1.092,0.504 2.051,1.162 2.884,1.953 2.261,2.107 3.395,4.837 3.395,8.19 0,3.416 -1.099,6.244 -3.304,8.477 -0.693,0.679 -1.442,1.267 -2.275,1.75 -0.826,0.462 -1.848,0.847 -3.094,1.162 -1.239,0.287 -2.975,0.434 -5.208,0.434 l -5.684,0 -4.473,3.983 z"
         id="path15607"
         style="fill:#ffffff;fill-rule:nonzero;stroke:none" />
      <path
         inkscape:connector-curvature="0"
         d="m 127.46618,333.09987 4.473,-3.983 5.684,0 c 2.233,0 3.969,-0.147 5.208,-0.434 1.246,-0.315 2.268,-0.7 3.094,-1.162 0.833,-0.483 1.582,-1.071 2.275,-1.75 2.205,-2.233 3.304,-5.061 3.304,-8.477 0,-3.353 -1.134,-6.083 -3.395,-8.19 -0.833,-0.791 -1.792,-1.449 -2.884,-1.953 -1.071,-0.511 -2.093,-0.84 -3.066,-1.001 -0.959,-0.161 -2.513,-0.245 -4.669,-0.245 l -5.579,0 -4.431,-3.983 10.486,0 c 4.242,0 7.609,0.644 10.073,1.918 2.478,1.274 4.445,3.143 5.908,5.621 1.449,2.471 2.191,5.166 2.191,8.092 0,2.079 -0.413,4.074 -1.211,5.985 -0.812,1.904 -1.96,3.584 -3.444,5.033 -1.512,1.491 -3.283,2.611 -5.292,3.367 -1.176,0.462 -2.268,0.777 -3.241,0.938 -0.98,0.154 -2.863,0.224 -5.642,0.224 l -9.842,0 z"
         id="path15611"
         style="fill:#ffffff;fill-rule:nonzero;stroke:none" />
      <path
         inkscape:connector-curvature="0"
         d="m 131.93918,305.93287 -4.466,-4.011 0,31.178 4.466,-3.983 0,-9.555 0,-4.144 0,-9.485 z"
         id="path15615"
         style="fill:#838181;fill-rule:nonzero;stroke:none" />
      <path
         inkscape:connector-curvature="0"
         d="m 105.47218,319.56187 -0.014,13.566 4.473,-4.025 -0.014,-9.541 -4.445,0 z"
         id="path15619"
         style="fill:#838181;fill-opacity:1;fill-rule:nonzero;stroke:none" />
      <path
         inkscape:connector-curvature="0"
         d="m 110.03618,315.41787 -0.084,-9.352 -4.473,-4.144 0,13.496 4.557,0 z"
         id="path15623"
         style="fill:#838181;fill-opacity:1;fill-rule:nonzero;stroke:none" />
    </g>
  </g>
</svg>
