<?xml version="1.0" encoding="UTF-8" standalone="no"?>
<!-- Created with Inkscape (http://www.inkscape.org/) -->

<svg
   xmlns:dc="http://purl.org/dc/elements/1.1/"
   xmlns:cc="http://creativecommons.org/ns#"
   xmlns:rdf="http://www.w3.org/1999/02/22-rdf-syntax-ns#"
   xmlns:svg="http://www.w3.org/2000/svg"
   xmlns="http://www.w3.org/2000/svg"
   xmlns:sodipodi="http://sodipodi.sourceforge.net/DTD/sodipodi-0.dtd"
   xmlns:inkscape="http://www.inkscape.org/namespaces/inkscape"
   id="svg2985"
   version="1.1"
   inkscape:version="0.91 r13725"
   width="999"
   height="296.19427"
   xml:space="preserve"
   sodipodi:docname="BBC One East.svg"
   hola_ext_inject="disabled"><metadata
     id="metadata2991"><rdf:RDF><cc:Work
         rdf:about=""><dc:format>image/svg+xml</dc:format><dc:type
           rdf:resource="http://purl.org/dc/dcmitype/StillImage" /><dc:title></dc:title></cc:Work></rdf:RDF></metadata><defs
     id="defs2989"><clipPath
       clipPathUnits="userSpaceOnUse"
       id="clipPath3003"><path
         d="m 0,0 841.89,0 0,595.276 L 0,595.276 0,0 Z"
         id="path3005"
         inkscape:connector-curvature="0" /></clipPath><clipPath
       clipPathUnits="userSpaceOnUse"
       id="clipPath3023"><path
         d="m 0,0 841.89,0 0,595.276 L 0,595.276 0,0 Z"
         id="path3025"
         inkscape:connector-curvature="0" /></clipPath><clipPath
       clipPathUnits="userSpaceOnUse"
       id="clipPath3051"><path
         d="m 0,0 841.89,0 0,595.276 L 0,595.276 0,0 Z"
         id="path3053"
         inkscape:connector-curvature="0" /></clipPath><clipPath
       clipPathUnits="userSpaceOnUse"
       id="clipPath3075"><path
         d="m 0,0 841.89,0 0,595.276 L 0,595.276 0,0 Z"
         id="path3077"
         inkscape:connector-curvature="0" /></clipPath><clipPath
       clipPathUnits="userSpaceOnUse"
       id="clipPath3195"><path
         d="m 0,0 841.89,0 0,595.276 L 0,595.276 0,0 Z"
         id="path3197"
         inkscape:connector-curvature="0" /></clipPath><clipPath
       clipPathUnits="userSpaceOnUse"
       id="clipPath3209"><path
         d="m 49.094,354.329 287.15,0 0,-161.734 -287.15,0 0,161.734 z"
         id="path3211"
         inkscape:connector-curvature="0" /></clipPath><clipPath
       clipPathUnits="userSpaceOnUse"
       id="clipPath3233"><path
         d="m 0,0 841.89,0 0,595.276 L 0,595.276 0,0 Z"
         id="path3235"
         inkscape:connector-curvature="0" /></clipPath><clipPath
       clipPathUnits="userSpaceOnUse"
       id="clipPath3257"><path
         d="m 0,0 841.89,0 0,595.276 L 0,595.276 0,0 Z"
         id="path3259"
         inkscape:connector-curvature="0" /></clipPath><clipPath
       clipPathUnits="userSpaceOnUse"
       id="clipPath3297"><path
         d="m 0,0 841.89,0 0,595.276 L 0,595.276 0,0 Z"
         id="path3299"
         inkscape:connector-curvature="0" /></clipPath><clipPath
       clipPathUnits="userSpaceOnUse"
       id="clipPath3313"><path
         d="m 0,0 841.89,0 0,595.276 L 0,595.276 0,0 Z"
         id="path3315"
         inkscape:connector-curvature="0" /></clipPath><clipPath
       clipPathUnits="userSpaceOnUse"
       id="clipPath3341"><path
         d="m 0,0 841.89,0 0,595.276 L 0,595.276 0,0 Z"
         id="path3343"
         inkscape:connector-curvature="0" /></clipPath><clipPath
       clipPathUnits="userSpaceOnUse"
       id="clipPath3419"><path
         d="m 0,0 841.89,0 0,595.276 L 0,595.276 0,0 Z"
         id="path3421"
         inkscape:connector-curvature="0" /></clipPath><clipPath
       clipPathUnits="userSpaceOnUse"
       id="clipPath3465"><path
         d="m 0,0 841.89,0 0,595.276 L 0,595.276 0,0 Z"
         id="path3467"
         inkscape:connector-curvature="0" /></clipPath><clipPath
       clipPathUnits="userSpaceOnUse"
       id="clipPath3489"><path
         d="m 0,0 841.89,0 0,595.276 L 0,595.276 0,0 Z"
         id="path3491"
         inkscape:connector-curvature="0" /></clipPath><clipPath
       clipPathUnits="userSpaceOnUse"
       id="clipPath3511"><path
         d="m 0,0 841.89,0 0,595.276 L 0,595.276 0,0 Z"
         id="path3513"
         inkscape:connector-curvature="0" /></clipPath><clipPath
       clipPathUnits="userSpaceOnUse"
       id="clipPath3533"><path
         d="m 0,0 841.89,0 0,595.276 L 0,595.276 0,0 Z"
         id="path3535"
         inkscape:connector-curvature="0" /></clipPath><clipPath
       clipPathUnits="userSpaceOnUse"
       id="clipPath3615"><path
         d="m 0,0 841.89,0 0,595.276 L 0,595.276 0,0 Z"
         id="path3617"
         inkscape:connector-curvature="0" /></clipPath><clipPath
       clipPathUnits="userSpaceOnUse"
       id="clipPath3659"><path
         d="m 0,0 841.89,0 0,595.276 L 0,595.276 0,0 Z"
         id="path3661"
         inkscape:connector-curvature="0" /></clipPath><clipPath
       clipPathUnits="userSpaceOnUse"
       id="clipPath3673"><path
         d="m 0,0 841.89,0 0,595.276 L 0,595.276 0,0 Z"
         id="path3675"
         inkscape:connector-curvature="0" /></clipPath><clipPath
       clipPathUnits="userSpaceOnUse"
       id="clipPath3707"><path
         d="m 0,0 841.89,0 0,595.276 L 0,595.276 0,0 Z"
         id="path3709"
         inkscape:connector-curvature="0" /></clipPath><clipPath
       clipPathUnits="userSpaceOnUse"
       id="clipPath3735"><path
         d="m 0,0 841.89,0 0,595.276 L 0,595.276 0,0 Z"
         id="path3737"
         inkscape:connector-curvature="0" /></clipPath><clipPath
       clipPathUnits="userSpaceOnUse"
       id="clipPath3757"><path
         d="m 0,0 841.89,0 0,595.276 L 0,595.276 0,0 Z"
         id="path3759"
         inkscape:connector-curvature="0" /></clipPath><clipPath
       clipPathUnits="userSpaceOnUse"
       id="clipPath3779"><path
         d="m 0,0 841.89,0 0,595.276 L 0,595.276 0,0 Z"
         id="path3781"
         inkscape:connector-curvature="0" /></clipPath><clipPath
       clipPathUnits="userSpaceOnUse"
       id="clipPath3881"><path
         d="m 0,0 841.89,0 0,595.276 L 0,595.276 0,0 Z"
         id="path3883"
         inkscape:connector-curvature="0" /></clipPath><clipPath
       clipPathUnits="userSpaceOnUse"
       id="clipPath3925"><path
         d="m 0,0 841.89,0 0,595.276 L 0,595.276 0,0 Z"
         id="path3927"
         inkscape:connector-curvature="0" /></clipPath><clipPath
       clipPathUnits="userSpaceOnUse"
       id="clipPath3939"><path
         d="m 0,0 841.89,0 0,595.276 L 0,595.276 0,0 Z"
         id="path3941"
         inkscape:connector-curvature="0" /></clipPath><clipPath
       clipPathUnits="userSpaceOnUse"
       id="clipPath3973"><path
         d="m 0,0 841.89,0 0,595.276 L 0,595.276 0,0 Z"
         id="path3975"
         inkscape:connector-curvature="0" /></clipPath><clipPath
       clipPathUnits="userSpaceOnUse"
       id="clipPath4005"><path
         d="m 0,0 841.89,0 0,595.276 L 0,595.276 0,0 Z"
         id="path4007"
         inkscape:connector-curvature="0" /></clipPath><clipPath
       clipPathUnits="userSpaceOnUse"
       id="clipPath4029"><path
         d="m 0,0 841.89,0 0,595.276 L 0,595.276 0,0 Z"
         id="path4031"
         inkscape:connector-curvature="0" /></clipPath><clipPath
       clipPathUnits="userSpaceOnUse"
       id="clipPath4069"><path
         d="m 0,0 841.89,0 0,595.276 L 0,595.276 0,0 Z"
         id="path4071"
         inkscape:connector-curvature="0" /></clipPath><clipPath
       clipPathUnits="userSpaceOnUse"
       id="clipPath4089"><path
         d="m 0,0 841.89,0 0,595.276 L 0,595.276 0,0 Z"
         id="path4091"
         inkscape:connector-curvature="0" /></clipPath><clipPath
       clipPathUnits="userSpaceOnUse"
       id="clipPath4111"><path
         d="m 0,0 841.89,0 0,595.276 L 0,595.276 0,0 Z"
         id="path4113"
         inkscape:connector-curvature="0" /></clipPath><clipPath
       clipPathUnits="userSpaceOnUse"
       id="clipPath4133"><path
         d="m 0,0 841.89,0 0,595.276 L 0,595.276 0,0 Z"
         id="path4135"
         inkscape:connector-curvature="0" /></clipPath><clipPath
       clipPathUnits="userSpaceOnUse"
       id="clipPath4251"><path
         d="m 0,0 841.89,0 0,595.276 L 0,595.276 0,0 Z"
         id="path4253"
         inkscape:connector-curvature="0" /></clipPath><clipPath
       clipPathUnits="userSpaceOnUse"
       id="clipPath4297"><path
         d="m 0,0 841.89,0 0,595.276 L 0,595.276 0,0 Z"
         id="path4299"
         inkscape:connector-curvature="0" /></clipPath><clipPath
       clipPathUnits="userSpaceOnUse"
       id="clipPath4337"><path
         d="m 0,0 841.89,0 0,595.276 L 0,595.276 0,0 Z"
         id="path4339"
         inkscape:connector-curvature="0" /></clipPath><clipPath
       clipPathUnits="userSpaceOnUse"
       id="clipPath4379"><path
         d="m 0,0 841.89,0 0,595.276 L 0,595.276 0,0 Z"
         id="path4381"
         inkscape:connector-curvature="0" /></clipPath><clipPath
       clipPathUnits="userSpaceOnUse"
       id="clipPath4423"><path
         d="m 0,0 841.89,0 0,595.276 L 0,595.276 0,0 Z"
         id="path4425"
         inkscape:connector-curvature="0" /></clipPath><clipPath
       clipPathUnits="userSpaceOnUse"
       id="clipPath4437"><path
         d="m 0,0 841.89,0 0,595.276 L 0,595.276 0,0 Z"
         id="path4439"
         inkscape:connector-curvature="0" /></clipPath><clipPath
       clipPathUnits="userSpaceOnUse"
       id="clipPath4471"><path
         d="m 0,0 841.89,0 0,595.276 L 0,595.276 0,0 Z"
         id="path4473"
         inkscape:connector-curvature="0" /></clipPath><style
       id="style6"
       type="text/css">
   
    .fil0 {fill:#C90302}
   
  </style><inkscape:perspective
       id="perspective17"
       inkscape:persp3d-origin="526.18109 : 129.92126 : 1"
       inkscape:vp_z="1052.3622 : 194.8819 : 1"
       inkscape:vp_y="0 : 1000 : 0"
       inkscape:vp_x="0 : 194.8819 : 1"
       sodipodi:type="inkscape:persp3d" /><clipPath
       id="clipPath3855"
       clipPathUnits="userSpaceOnUse"><path
         id="path3857"
         d="m 28.346,484.3 47.237,0 0,34.44 -47.237,0 0,-34.44 z"
         inkscape:connector-curvature="0" /></clipPath><clipPath
       id="clipPath3793"
       clipPathUnits="userSpaceOnUse"><path
         id="path3795"
         d="m 90.708,484.3 47.382,0 0,34.44 -47.382,0 0,-34.44 z"
         inkscape:connector-curvature="0" /></clipPath><clipPath
       id="clipPath3779-4"
       clipPathUnits="userSpaceOnUse"><path
         id="path3781-8"
         d="m 90.708,484.3 47.382,0 0,34.44 -47.382,0 0,-34.44 z"
         inkscape:connector-curvature="0" /></clipPath><clipPath
       id="clipPath3739"
       clipPathUnits="userSpaceOnUse"><path
         id="path3741"
         d="m 277.795,444.472 46.804,0 0,34.347 -46.804,0 0,-34.347 z"
         inkscape:connector-curvature="0" /></clipPath><clipPath
       id="clipPath3675"
       clipPathUnits="userSpaceOnUse"><path
         id="path3677"
         d="m 215.433,444.472 46.949,0 0,34.347 -46.949,0 0,-34.347 z"
         inkscape:connector-curvature="0" /></clipPath><clipPath
       id="clipPath3621"
       clipPathUnits="userSpaceOnUse"><path
         id="path3623"
         d="m 153.071,444.472 47.112,0 0,34.393 -47.112,0 0,-34.393 z"
         inkscape:connector-curvature="0" /></clipPath><clipPath
       id="clipPath3575"
       clipPathUnits="userSpaceOnUse"><path
         id="path3577"
         d="m 90.708,444.472 47.402,0 0,34.393 -47.402,0 0,-34.393 z"
         inkscape:connector-curvature="0" /></clipPath><clipPath
       id="clipPath3561"
       clipPathUnits="userSpaceOnUse"><path
         id="path3563"
         d="m 90.708,444.472 47.402,0 0,34.393 -47.402,0 0,-34.393 z"
         inkscape:connector-curvature="0" /></clipPath><clipPath
       id="clipPath3549"
       clipPathUnits="userSpaceOnUse"><path
         id="path3551"
         d="m 28.346,444.472 47.245,0 0,34.393 -47.245,0 0,-34.393 z"
         inkscape:connector-curvature="0" /></clipPath><clipPath
       id="clipPath3499"
       clipPathUnits="userSpaceOnUse"><path
         id="path3501"
         d="m 277.795,484.3 46.804,0 0,34.309 -46.804,0 0,-34.309 z"
         inkscape:connector-curvature="0" /></clipPath><clipPath
       id="clipPath3479"
       clipPathUnits="userSpaceOnUse"><path
         id="path3481"
         d="m 277.795,491.772 46.804,0 0,20.354 -46.804,0 0,-20.354 z"
         inkscape:connector-curvature="0" /></clipPath><clipPath
       id="clipPath3419-0"
       clipPathUnits="userSpaceOnUse"><path
         id="path3421-9"
         d="m 277.795,484.3 46.804,0 0,34.309 -46.804,0 0,-34.309 z"
         inkscape:connector-curvature="0" /></clipPath><clipPath
       id="clipPath3403"
       clipPathUnits="userSpaceOnUse"><path
         id="path3405"
         d="m 277.795,491.772 46.804,0 0,20.354 -46.804,0 0,-20.354 z"
         inkscape:connector-curvature="0" /></clipPath><clipPath
       id="clipPath3379"
       clipPathUnits="userSpaceOnUse"><path
         id="path3381"
         d="m 277.795,484.3 46.804,0 0,34.309 -46.804,0 0,-34.309 z"
         inkscape:connector-curvature="0" /></clipPath><clipPath
       id="clipPath3337"
       clipPathUnits="userSpaceOnUse"><path
         id="path3339"
         d="m 340.158,484.348 46.688,0 0,34.393 -46.688,0 0,-34.393 z"
         inkscape:connector-curvature="0" /></clipPath><clipPath
       id="clipPath3289"
       clipPathUnits="userSpaceOnUse"><path
         id="path3291"
         d="m 215.449,484.3 46.803,0 0,34.393 -46.803,0 0,-34.393 z"
         inkscape:connector-curvature="0" /></clipPath><clipPath
       id="clipPath3271"
       clipPathUnits="userSpaceOnUse"><path
         id="path3273"
         d="m 153.087,484.348 47.287,0 0,34.393 -47.287,0 0,-34.393 z"
         inkscape:connector-curvature="0" /></clipPath><clipPath
       id="clipPath3115"
       clipPathUnits="userSpaceOnUse"><path
         id="path3117"
         d="m 28.346,20.092 362.835,0 0,158.49 -362.835,0 0,-158.49 z"
         inkscape:connector-curvature="0" /></clipPath><sodipodi:namedview
       inkscape:window-height="974"
       inkscape:window-width="1280"
       inkscape:pageshadow="2"
       inkscape:pageopacity="0.0"
       guidetolerance="10.0"
       gridtolerance="10.0"
       objecttolerance="10.0"
       borderopacity="1.0"
       bordercolor="#666666"
       pagecolor="#ffffff"
       id="base-1"
       inkscape:zoom="0.25612053"
       inkscape:cx="1329.6704"
       inkscape:cy="-22.75906"
       inkscape:window-x="-8"
       inkscape:window-y="-8"
       inkscape:current-layer="svg2413" /></defs><sodipodi:namedview
     pagecolor="#ffffff"
     bordercolor="#666666"
     borderopacity="1"
     objecttolerance="10"
     gridtolerance="10"
     guidetolerance="10"
     inkscape:pageopacity="0"
     inkscape:pageshadow="2"
     inkscape:window-width="1920"
     inkscape:window-height="1017"
     id="namedview2987"
     showgrid="false"
     fit-margin-top="0"
     fit-margin-left="0"
     fit-margin-right="0"
     fit-margin-bottom="0"
     inkscape:zoom="0.64466948"
     inkscape:cx="-70.03185"
     inkscape:cy="-57.686744"
     inkscape:window-x="-8"
     inkscape:window-y="-8"
     inkscape:window-maximized="1"
     inkscape:current-layer="flowRoot3127-4" /><g
     id="g2993"
     inkscape:groupmode="layer"
     inkscape:label="onscreen_guidelines"
     transform="matrix(1.25,0,0,-1.25,-455.30149,49.475176)"><g
       id="g3203"
       transform="translate(349.3506,368.504)" /><g
       id="g4491"
       transform="translate(349.3506,42.5196)" /><g
       id="g3565"
       transform="translate(938.96857,-702.2758)" /><g
       id="g3783"
       transform="translate(938.96027,-662.5387)" /><g
       transform="matrix(2.0655084,0,0,-2.0655084,1292.8466,-471.3494)"
       style="font-style:normal;font-weight:normal;font-size:40px;line-height:125%;font-family:Sans;letter-spacing:0px;word-spacing:0px;fill:#000000;fill-opacity:1;stroke:none"
       id="flowRoot3127"><g
         transform="translate(-260.95848,-267.1418)"
         style="line-height:125%;font-family:Sans;fill:#000000"
         id="flowRoot3127-4"><path
           d="m -22.598633,123.13947 0,6.40015 11.279297,0 0.760498,4.47998 -17.159424,0 0,-25.88013 17.239991,0 -0.841065,4.4397 -11.279297,0 0,6.08032 10.240479,0 0,4.47998 z"
           style="font-variant:normal;font-weight:bold;font-stretch:normal;font-family:BBCOne-Bold;-inkscape-font-specification:'BBCOne-Bold Bold';fill:#ffffff;fill-opacity:1"
           id="path4017"
           inkscape:connector-curvature="0" /><path
           d="m 12.522217,134.0196 -4.8400881,0 c -0.1066247,-0.507 -0.2132327,-1.34684 -0.3198242,-2.51953 -0.7739415,0.95947 -1.707575,1.69922 -2.8009033,2.21924 -1.0933557,0.52002 -2.1730665,0.78003 -3.2391358,0.78003 -2.3470132,0 -4.3070536,-0.73324 -5.8801269,-2.19971 -2.0800806,-1.86686 -3.1201186,-4.56013 -3.1201172,-8.07983 -1.4e-6,-3.81347 1.226804,-6.65363 3.6804199,-8.52051 1.5999282,-1.22638 3.38622201,-1.83958 5.3588867,-1.8396 2.5602084,2e-5 4.5202487,0.98675 5.880127,2.9602 l 0,-2.48046 4.8803709,0 0,14.16015 c -2.1e-5,2.26644 0.133442,4.10645 0.400391,5.52002 z m -13.7609865,-5.47974 c 0.90738054,0.98634 2.14761368,1.4795 3.7207031,1.4795 1.5730663,0 2.8128925,-0.49316 3.7194824,-1.4795 0.9065594,-1.04003 1.3598467,-2.48005 1.3598633,-4.32006 -1.66e-5,-1.89371 -0.4533039,-3.36059 -1.3598633,-4.40064 -0.9065899,-0.98631 -2.1464161,-1.47947 -3.7194824,-1.47949 -1.57308942,2e-5 -2.8131191,0.49338 -3.7200928,1.4801 -0.9069893,0.98675 -1.3604801,2.45342 -1.3604736,4.40003 -6.5e-6,1.89291 0.4532808,3.33293 1.3598633,4.32006 z"
           style="font-variant:normal;font-weight:bold;font-stretch:normal;font-family:BBCOne-Bold;-inkscape-font-specification:'BBCOne-Bold Bold';fill:#ffffff;fill-opacity:1"
           id="path4019"
           inkscape:connector-curvature="0" /><path
           d="m 15.911849,132.54011 1.599121,-3.56079 c 1.760249,1.1735 3.453769,1.76026 5.080566,1.76025 0.906567,1e-5 1.633291,-0.18656 2.180176,-0.55969 0.546864,-0.37312 0.820301,-0.89335 0.820313,-1.56067 -1.2e-5,-0.55989 -0.233369,-1.03983 -0.700074,-1.43982 -0.466725,-0.39998 -1.046762,-0.72 -1.740112,-0.96008 -0.693367,-0.24007 -1.446744,-0.53995 -2.260132,-0.89966 -0.813401,-0.35969 -1.566777,-0.73953 -2.260132,-1.13953 -0.693363,-0.39997 -1.273399,-0.99343 -1.740112,-1.78039 -0.466718,-0.78694 -0.700075,-1.70043 -0.700073,-2.74048 -2e-6,-1.83999 0.720009,-3.26658 2.160034,-4.27979 1.440017,-1.01316 3.146762,-1.51975 5.120239,-1.51977 2.34618,2e-5 4.385973,0.61322 6.119385,1.8396 l -1.599121,3.40088 c -1.413587,-1.01398 -2.853608,-1.52098 -4.320068,-1.521 -0.799976,2e-5 -1.406665,0.20001 -1.820069,0.59998 -0.413418,0.4 -0.620124,0.85349 -0.620117,1.36047 -7e-6,0.55991 0.313307,1.05328 0.939941,1.4801 0.62662,0.42686 1.379996,0.80019 2.260132,1.12 0.880116,0.31983 1.760039,0.69317 2.639771,1.11999 0.879706,0.42685 1.632879,1.05348 2.259521,1.87989 0.626612,0.82642 0.939926,1.82638 0.939942,2.99987 -1.6e-5,2.02638 -0.733251,3.59294 -2.199707,4.69971 -1.466484,1.10677 -3.293061,1.66016 -5.479737,1.66016 -1.093757,0 -2.300624,-0.19328 -3.620605,-0.57984 -1.31999,-0.38655 -2.339683,-0.84635 -3.059082,-1.37939 z"
           style="font-variant:normal;font-weight:bold;font-stretch:normal;font-family:BBCOne-Bold;-inkscape-font-specification:'BBCOne-Bold Bold';fill:#ffffff;fill-opacity:1"
           id="path4021"
           inkscape:connector-curvature="0" /><path
           d="m 45.778792,130.30012 0.440674,3.51929 c -1.173516,0.45328 -2.400322,0.67993 -3.68042,0.67993 -2.826343,0 -4.866543,-0.82642 -6.120605,-2.47925 -0.986332,-1.36067 -1.479496,-3.32071 -1.479493,-5.88013 l 0,-8.07983 -3.1604,0 0,-3.7207 3.1604,0 0,-5.75928 4.880371,0 0,5.75928 5.040284,0 0,3.7207 -5.040284,0 0,7.35962 c -8e-6,1.89291 0.253084,3.21289 0.759278,3.95996 0.533844,0.82683 1.427398,1.24024 2.680664,1.24023 0.95946,10e-6 1.799303,-0.1066 2.519531,-0.31982 z"
           style="font-variant:normal;font-weight:bold;font-stretch:normal;font-family:BBCOne-Bold;-inkscape-font-specification:'BBCOne-Bold Bold';fill:#ffffff;fill-opacity:1"
           id="path4023"
           inkscape:connector-curvature="0" /></g><path
         id="path4598"
         d="m -259.96142,-247.34715 c -0.68562,-0.009 -1.38202,-0.002 -2.07909,0.0185 -8.84178,0.26911 -16.63586,2.99491 -23.03705,8.05647 -3.50754,2.77334 -7.16473,7.32221 -9.28165,11.52781 -5.70546,11.33618 -5.80106,26.70822 -0.24132,38.07335 1.90701,3.89842 3.82442,6.58484 6.83129,9.5972 6.08634,6.09779 13.65533,9.49484 23.40832,10.48829 1.4977,0.15255 8.30617,-0.0416 9.81998,-0.27842 8.37705,-1.31285 15.10693,-4.50188 20.47532,-9.6901 6.24423,-6.03476 9.83715,-13.46442 11.13798,-23.03705 0.33401,-2.45899 0.37261,-8.65796 0.0743,-11.10085 -1.17566,-9.6264 -4.9165,-17.52904 -11.11941,-23.5197 -6.74441,-6.51359 -15.70438,-10.00506 -25.98862,-10.13556 z m -0.31557,13.97816 c 1.90197,0.017 3.79766,0.20387 5.51329,0.5569 8.92796,1.83691 14.62478,8.04538 16.28002,17.74651 0.65944,3.86318 0.65927,9.36488 0,13.27276 -1.79991,10.6692 -8.5548,17.1031 -19.06451,18.19206 -1.66167,0.17215 -4.65728,0.1598 -6.34865,-0.0184 -5.39217,-0.56896 -9.65664,-2.47976 -12.99431,-5.82888 -3.28688,-3.29815 -5.19754,-7.42116 -6.10732,-13.21707 -0.38406,-2.44754 -0.38137,-8.91517 0,-11.45355 0.32688,-2.17915 0.97883,-4.73839 1.59644,-6.29296 2.29359,-5.77376 6.46718,-9.78391 12.21465,-11.71344 2.52804,-0.84878 5.74043,-1.27213 8.91039,-1.24374 z"
         style="fill:#ffffff;fill-opacity:1"
         inkscape:connector-curvature="0" /><path
         id="path4594"
         d="m -99.31464,-247.29146 c -4.15357,-0.0117 -5.28209,0.083 -8.33492,0.68684 -12.9231,2.55609 -22.8858,11.40982 -27.06529,24.02091 -1.93222,5.83062 -2.68505,11.97436 -2.19047,18.04352 1.08343,13.29432 7.03729,23.61498 17.11536,29.70131 4.7524,2.86986 9.61994,4.41278 16.65128,5.25338 0.28894,0.0345 2.48878,0.0422 4.882148,0.0184 3.426185,-0.0339 4.863531,-0.1131 6.812731,-0.37127 8.760076,-1.15906 16.368225,-3.79612 22.498717,-7.77805 1.631467,-1.05962 3.32283,-2.31088 3.32283,-2.46889 0,-0.0678 -1.264229,-2.44875 -2.803058,-5.29057 l -2.803058,-5.1606 -0.816785,0.53831 c -11.286824,7.22002 -27.886968,9.16617 -37.832005,4.45519 -6.19879,-2.93638 -9.80417,-8.02522 -11.1751,-15.77877 l -0.0928,-0.48265 28.958747,0 28.958744,0 0.07425,-0.33414 c 0.446493,-1.91254 0.645349,-7.16623 0.389829,-10.24694 -0.362991,-4.37082 -0.953999,-7.3619 -2.190469,-11.11941 -3.851911,-11.70649 -12.411689,-19.64819 -24.31792,-22.57297 -3.519156,-0.86455 -5.56858,-1.10128 -10.042745,-1.1138 z m -1.22518,13.81109 c 2.198093,-0.0409 4.695792,0.0871 6.181581,0.3527 4.334337,0.77479 7.606598,2.3173 10.376883,4.88215 3.29885,3.05407 5.407635,7.69569 5.698933,12.56735 l 0.09282,1.61501 -21.496299,0 -21.496294,0 0.0928,-0.89104 c 0.34313,-3.28258 1.67451,-6.96829 3.56416,-9.83854 1.09378,-1.66133 3.62216,-4.16529 5.34623,-5.29054 2.36388,-1.54224 5.14504,-2.5904 8.27923,-3.1372 0.81624,-0.14249 2.0411,-0.23532 3.35995,-0.25989 z"
         style="fill:#ffffff;fill-opacity:1"
         inkscape:connector-curvature="0" /><path
         id="path4590"
         d="m -200.67179,-189.88152 c 0,-11.33528 0.0596,-19.17912 0.15477,-20.36875 0.60884,-7.59762 2.54555,-12.49718 6.52208,-16.49894 4.22689,-4.2537 9.91177,-6.27318 16.95527,-6.02338 5.64537,0.20026 9.58169,1.75287 12.68119,5.0013 2.43323,2.55037 3.8798,5.53076 4.72414,9.73333 0.61672,3.07088 0.67786,4.47918 0.75888,17.55642 0.10587,17.0377 0.38925,22.56882 1.44334,28.17111 l 0.16264,0.86293 7.30633,0 7.30616,0 -0.27356,-1.68814 c -0.28431,-1.75233 -0.59616,-4.5845 -0.88763,-8.06503 -0.1015,-1.2134 -0.21653,-8.64241 -0.28664,-18.53076 -0.11529,-16.31549 -0.1553,-17.56626 -0.68233,-21.30642 -0.78515,-5.57547 -2.65801,-10.65348 -5.28113,-14.32033 -2.15609,-3.01419 -5.72854,-6.26531 -8.80674,-8.01568 -7.71921,-4.38924 -18.1726,-5.22464 -27.09234,-2.16485 -3.23396,1.10916 -6.19291,2.74258 -8.79208,4.85325 -1.63039,1.32391 -4.05075,3.80543 -5.07874,5.20712 -0.40766,0.55628 -0.78121,1.01135 -0.83003,1.01135 -0.0486,0 -0.16928,-0.75976 -0.26803,-1.68815 -0.28108,-2.64441 -0.88725,-5.93701 -1.54706,-8.40244 l -0.15093,-0.56271 -7.17477,0 -7.17473,0 0.18918,1.08788 c 0.63979,3.68348 1.06786,8.70874 1.26777,14.89019 0.0802,2.47669 0.14675,16.47123 0.14814,31.09893 l 0.002,26.59579 7.3523,0 7.35229,0 0,-18.43402 0,0 z"
         style="fill:#ffffff;fill-opacity:1"
         inkscape:connector-curvature="0" /><path
         style="fill:#c80201;fill-opacity:1"
         d="m -449.57714,-245.2485 0,18.58969 0,18.58933 19.78532,0 19.78533,0 0,-18.58933 0,-18.58969 -19.78533,0 -19.78532,0 z m 10.3275,5.21811 5.21811,0 c 4.71484,0 5.3686,0.0591 6.41393,0.327 3.38182,0.86482 5.57641,3.21679 5.76166,6.19633 0.15758,2.53078 -0.72403,4.28337 -2.71777,5.54442 l -0.65226,0.43484 0.76097,0.21568 c 1.93293,0.68079 3.5184,2.12516 4.34843,3.80504 0.55392,1.12085 0.65226,1.11633 0.65226,2.82648 0,1.70736 -0.10401,1.82634 -0.65226,2.93501 -1.23503,2.49913 -3.38791,3.82696 -6.84877,4.34842 -1.04602,0.15655 -2.88099,0.21569 -6.84877,0.21916 l -5.43553,0 0,-13.37157 0,-13.48011 z m 4.78327,4.23989 0,3.36985 0,3.47874 1.73937,0 c 0.92837,-0.001 2.0608,-0.10088 2.60905,-0.21568 2.41428,-0.51172 3.41724,-1.64718 3.26132,-3.80505 -0.0863,-1.18764 -0.47019,-1.898 -1.52195,-2.39128 -0.7855,-0.36805 -1.05426,-0.38823 -3.47874,-0.43484 l -2.60905,0 z m 0,11.08813 0,3.69651 0,3.58727 2.60905,0 c 1.42368,-0.002 3.01885,-0.0348 3.58745,-0.10784 2.50278,-0.36179 3.91358,-1.62666 3.91358,-3.58762 0,-1.24052 -0.48754,-1.98532 -1.52194,-2.60906 -1.24612,-0.7514 -2.36875,-0.97857 -5.65295,-0.97857 l -2.93519,0 z"
         id="path4588"
         inkscape:connector-curvature="0" /><path
         style="fill:#c80201;fill-opacity:1"
         d="m -404.02741,-245.2485 0,18.58969 0,18.58933 19.89404,0 19.89404,0 0,-18.58933 0,-18.58969 -19.89404,0 -19.89404,0 z m 10.54493,5.21811 5.1094,0 c 5.7945,0.003 6.54239,0.0765 8.37071,0.97822 2.7592,1.36332 4.25029,4.08648 3.80487,6.95748 -0.0932,0.60147 -0.27865,1.38697 -0.43484,1.73937 -0.3444,0.77889 -1.4538,2.0041 -2.17421,2.39198 -0.54554,0.29221 -0.68931,0.54338 -0.32596,0.54338 0.50247,0 2.5999,1.21686 3.37003,1.95679 1.69637,1.63014 2.42976,4.22945 1.84808,6.41375 -0.72435,2.72142 -2.8222,4.5895 -6.0878,5.43588 -1.13939,0.29569 -1.75874,0.37466 -7.39231,0.43484 l -6.0878,0 0,-13.37158 0,-13.48011 z m 4.78326,4.23989 0,3.47874 0,3.47873 2.17422,-0.10784 c 1.27043,-0.0487 2.39427,-0.19133 2.82647,-0.327 1.76216,-0.55451 2.62711,-1.60961 2.60906,-3.3702 -0.0104,-1.10519 -0.28039,-1.69588 -0.9784,-2.28275 -0.77979,-0.65644 -1.7952,-0.86968 -4.34842,-0.86968 l -2.28293,0 z m 0,11.08813 0,3.69651 0,3.69581 3.26132,-0.10784 c 2.76334,-0.0591 3.24073,-0.0383 4.131,-0.327 2.5391,-0.82238 3.45968,-3.5998 1.84808,-5.43519 -1.05729,-1.20399 -2.47133,-1.51846 -6.41392,-1.52229 l -2.82648,0 z"
         id="path4580"
         inkscape:connector-curvature="0" /><path
         style="fill:#c80201;fill-opacity:1"
         d="m -358.26025,-245.2485 0,18.58969 0,18.58933 19.89403,0 19.78533,0 0,-18.58933 0,-18.58969 -19.78533,0 -19.89403,0 z m 20.65501,4.89181 c 2.88349,-0.16003 5.72437,0.27482 9.2404,1.52229 l 1.63066,0.65192 0,2.50051 c 0,1.35289 0.0313,2.39164 0,2.39164 -0.0313,0 -0.90949,-0.31309 -1.84808,-0.7608 -3.3366,-1.5877 -5.5321,-2.17909 -8.58814,-2.06568 -1.5998,0.0591 -2.1611,0.13567 -3.37003,0.54338 -1.82762,0.61782 -3.0034,1.36193 -4.23971,2.60905 -1.67599,1.69067 -2.50445,3.89828 -2.50034,6.4141 0.007,2.67167 0.82971,4.66325 2.60905,6.4141 1.99659,1.96375 4.59305,2.91971 7.93587,2.93501 2.96253,0 5.45146,-0.64565 8.58814,-2.28309 l 1.73937,-0.86969 0,2.50052 0,2.50052 -0.9784,0.54338 c -2.8143,1.29687 -5.22722,1.76824 -8.69684,1.8479 -1.40312,0.0348 -2.95947,0.0731 -3.47874,0 -5.40899,-0.76184 -9.78441,-3.94941 -11.74075,-8.58796 -1.17351,-2.78299 -1.2849,-6.03979 -0.32595,-9.0228 1.53061,-4.76275 5.82556,-8.40255 11.08848,-9.458 0.99342,-0.19829 1.97401,-0.27482 2.93518,-0.327 z"
         id="path4572"
         inkscape:connector-curvature="0" /></g></g></svg>