<svg height="58.415321" width="199" xmlns="http://www.w3.org/2000/svg"><g fill="#c80201" transform="matrix(1.25 0 0 -1.25 -494.56247 -389.90673)"><path d="m468.17327-348.70902-.77456-1.60202c-.6461.38917-1.34321.63665-2.24435.63665-1.11084 0-1.76261-.49308-1.76261-1.15618 0-1.65114 5.13858-1.35454 5.13858-4.68328 0-1.57369-1.02205-3.1436-3.73114-3.1436-1.49056 0-2.85077.50819-3.67634 1.25064l.83879 1.60014c.81424-.60265 1.80228-.98804 2.7941-.98804 1.0126 0 1.62092.37027 1.62092 1.09572 0 1.92508-5.10079 1.36021-5.10079 4.79474 0 1.87029 1.69271 3.10015 3.63479 3.10015 1.39232 0 2.42193-.30605 3.26261-.90492"/><path d="m476.05097-350.61671c.37973-.14358.75567-.32494 1.12784-.57998l-.64988-1.53591c-.18703.14358-.45907.28716-.73867.42129-.39106.17192-.93892.31927-1.43389.31927-1.44333 0-2.40115-.92192-2.40115-2.48616 0-1.71349 1.14863-2.52584 2.44272-2.52584.81234 0 1.54912.20781 2.18578.64988l.65932-1.3262c-.88602-.716-1.95908-.97671-3.12092-.97671-2.36148 0-4.21288 1.62092-4.21288 4.17887 0 2.62785 1.95341 4.16753 4.22799 4.16753.69522 0 1.32054-.10201 1.91374-.30604"/><path d="m482.45243-350.28892c-2.44649 0-4.10897-1.77205-4.10897-4.20342 0-2.44272 1.66248-4.1562 4.10897-4.1562 2.43138 0 4.10897 1.71348 4.10897 4.1562 0 2.43137-1.67759 4.20342-4.10897 4.20342zm0-1.84195c.65366 0 1.11462-.18136 1.46412-.56675.35705-.40995.56675-1.01827.56675-1.79472 0-.77457-.2097-1.34321-.56675-1.7475-.3495-.38539-.81046-.61398-1.46412-.61398-.67255 0-1.14295.22859-1.51134.61398-.35139.40429-.56676.97293-.56676 1.7475 0 .77645.21537 1.38477.56676 1.79472.36839.38539.83879.56675 1.51134.56675z"/><path d="m493.05757-358.38182c-.42318-.15869-1.05794-.27582-1.48868-.27582-1.01638 0-1.91752.27582-2.47105 1.00505-.39861.53841-.60264 1.29787-.60264 2.3747v3.26828h-1.27709v1.50946h1.27709v2.31991h1.96852v-2.31991h2.04221v-1.50946h-2.04221v-2.96979c0-.73489.0888-1.26764.3155-1.60769.22292-.35517.60642-.50064 1.07683-.50064.2966 0 .86336.0831 1.01638.13036z"/><path d="m494.47804-347.99888h1.9742v-8.24816c0-.75756.0283-1.61147.1568-2.21034h-1.9723c-.11336.59887-.1587 1.45278-.1587 2.21034z"/><path d="m501.86377-350.28892c-.92381 0-1.56046-.28715-2.17256-.75567-.96159-.73489-1.51134-1.95908-1.51134-3.44775 0-1.3621.46662-2.52584 1.27519-3.25884.64044-.5932 1.3451-.89736 2.36148-.89736.79724 0 1.8155.4005 2.45594 1.22797.0264-.37973.0774-.75568.14161-1.03905h1.93641c-.12272.59887-.14161 1.43766-.14161 2.21978v5.76201h-1.98364v-1.03905c-.50441.72733-1.3621 1.22796-2.36148 1.22796zm.42507-1.84195c.66877 0 1.15429-.18136 1.51134-.56675.36083-.40995.56676-1.02583.56676-1.79472 0-.75757-.20593-1.34321-.56676-1.7475-.35705-.38539-.84257-.61398-1.51134-.61398-.65366 0-1.15807.22859-1.51135.61398-.36083.38917-.51952.98993-.51952 1.7475 0 .76889.15869 1.39988.51952 1.79472.35328.38539.85769.56675 1.51135.56675z"/><path d="m514.51168-358.45757c-.12091.59887-.16247 1.45278-.16247 2.21034v1.68326c0 .98993-.068 1.60203-.4534 1.99309-.38162.34761-.72923.46285-1.29598.46285-.59887 0-1.1184-.17381-1.56425-.64421-.45529-.50064-.50441-1.22986-.50441-2.25191v-3.45342h-1.97419v5.72422c0 .77078-.0567 1.63036-.1568 2.23301h1.92129c.0775-.29282.1757-.79912.2097-1.18452h.0208c.36462.71978 1.35077 1.37533 2.59574 1.37533 1.05416 0 1.82873-.37784 2.29347-.8558.60264-.62154.88224-1.39233.88224-3.05859v-2.02331c0-.75756.0491-1.61147.15681-2.21034h-1.96853z"/><path d="m523.91996-348.0219v-3.44775c-.50063.70466-1.3961 1.18073-2.4087 1.18073-.92759 0-1.51702-.28715-2.12533-.75567-.97104-.72355-1.51135-1.95908-1.51135-3.44775 0-1.36399.46285-2.55796 1.2752-3.30607.64988-.57809 1.32809-.85013 2.36148-.85013.81234 0 1.81172.4005 2.45593 1.22797.0189-.37973.0491-.75568.0945-1.03905h1.98364c-.10761.59887-.14161 1.46222-.14161 2.21978v8.21794h-1.98364zm-2.4087-4.10897c.14584.0266.30699 0 .47229 0 .65932 0 1.15807-.19458 1.51135-.56675.35705-.40806.56675-1.02583.56675-1.79472 0-.78024-.2097-1.3451-.56675-1.7475-.35328-.37217-.85203-.61398-1.51135-.61398-.66121 0-1.17318.24181-1.51134.61398-.35328.4024-.51953.97293-.51953 1.7475 0 .77645.16625 1.38666.51953 1.79472.25361.27913.60131.48714 1.03905.56675z"/><g transform="matrix(.71876668 0 0 -.71876668 358.504524 -284.57598)"><path d="m523.9375 922.28125c-1.15419-.0146-2.32654-.004-3.5.0312-14.88451.45302-28.0053 5.04172-38.78125 13.5625-5.90469 4.66872-12.06132 12.32642-15.625 19.40625-9.60474 19.08365-9.76567 44.9614-.40625 64.0938 3.21032 6.5627 6.43814 11.0851 11.5 16.1562 10.24593 10.2652 22.98778 15.9839 39.40625 17.6563 2.52128.2568 13.98285-.07 16.53125-.4687 14.10217-2.2101 25.43144-7.5786 34.46875-16.3126 10.51172-10.1591 16.56015-22.6664 18.75-38.78125.56228-4.13954.62726-14.57506.125-18.6875-1.97914-16.20536-8.27658-29.5089-18.71875-39.59375-11.35373-10.96517-26.43721-16.84281-43.75-17.0625zm-.53125 23.53125c3.20184.0287 6.3931.34319 9.28125.9375 15.02958 3.09231 24.61977 13.54382 27.40625 29.875 1.11013 6.50339 1.10984 15.7651 0 22.34375-3.03001 17.96085-14.4014 28.79185-32.09375 30.62505-2.79731.2898-7.8402.269-10.6875-.031-9.07734-.9578-16.25627-4.1745-21.875-9.8125-5.53324-5.5522-8.7497-12.493-10.28125-22.25-.64654-4.12027-.64201-15.00806 0-19.28125.55029-3.66845 1.6478-7.97674 2.6875-10.59375 3.86109-9.71972 10.88703-16.47052 20.5625-19.71875 4.25577-1.42887 9.6636-2.14155 15-2.09375z" transform="matrix(.34004134 0 0 .34004134 -17.938189 -275.55444)"/><path d="m794.375 922.375c-6.99224-.0197-8.89202.13973-14.03125 1.15625-21.75512 4.30299-38.52662 19.20763-45.5625 40.4375-3.25275 9.81544-4.5201 20.158-3.6875 30.375 1.82387 22.38005 11.84677 39.75415 28.8125 50.00005 8.00032 4.8312 16.19448 7.4286 28.03125 8.8437.48641.058 4.18968.071 8.21875.031 5.76774-.057 8.18741-.1904 11.46875-.625 14.74697-1.9512 27.55475-6.3905 37.875-13.0938 2.74646-1.7838 5.59375-3.8902 5.59375-4.1562 0-.1141-2.12824-4.1223-4.71875-8.9063l-4.71875-8.6875-1.375.9062c-19.00057 12.1544-46.94574 15.4306-63.6875 7.5-10.43523-4.9432-16.50463-13.5099-18.8125-26.56245l-.15625-.8125h48.75 48.75l.125-.5625c.75164-3.21964 1.0864-12.06384.65625-17.25-.61107-7.35797-1.60599-12.39325-3.6875-18.71875-6.48442-19.70705-20.8942-33.07633-40.9375-38-5.92425-1.4554-9.37431-1.85393-16.90625-1.875zm-2.0625 23.25c3.70033-.0689 7.90503.14657 10.40625.59375 7.29655 1.30429 12.80517 3.90101 17.46875 8.21875 5.55338 5.14131 9.10337 12.95514 9.59375 21.15625l.15625 2.71875h-36.1875-36.1875l.15625-1.5c.57764-5.526 2.81892-11.73063 6-16.5625 1.84131-2.79672 6.09765-7.01197 9-8.90625 3.97943-2.59624 8.66132-4.36075 13.9375-5.28125 1.37409-.23987 3.43605-.39614 5.65625-.4375z" transform="matrix(.34004134 0 0 .34004134 -17.938189 -275.55444)"/><path d="m194.16171 70.954681c0-6.488717.0341-10.978812.0886-11.659793.34852-4.349149 1.45716-7.153833 3.73347-9.444583 2.41962-2.434971 5.67385-3.590991 9.7058-3.447998 3.23161.11464 5.4849 1.003405 7.25916 2.862926 1.39287 1.459917 2.22094 3.166003 2.70427 5.5717.35303 1.75788.38803 2.564043.43441 10.049922.0606 9.752985.22282 12.919194.82622 16.126142l.0931.493974h4.1824 4.18231l-.1566-.966352c-.16275-1.003098-.34126-2.624331-.50811-4.61671-.0581-.694595-.12395-4.947222-.16408-10.607666-.066-9.339565-.0889-10.055552-.39059-12.196553-.44945-3.191594-1.52154-6.09843-3.02311-8.197466-1.23422-1.725431-3.27922-3.586487-5.04129-4.588459-4.41875-2.512557-10.40264-2.990769-15.50862-1.239237-1.85123.634921-3.54504 1.569952-5.0329 2.778174-.93329.757852-2.31879 2.178362-2.90725 2.980739-.23336.318433-.44719.578931-.47514.578931-.0278 0-.0969-.434915-.15343-.966353-.1609-1.513757-.50789-3.398559-.88559-4.809858l-.0864-.322116h-4.10709-4.10707l.10829.622739c.36624 2.108555.61128 4.985196.72572 8.523677.0459 1.417747.084 9.428718.0848 17.802134l.001 15.224376h4.20872 4.20871v-10.55229z"/><g transform="matrix(1.9913537 0 0 1.9913537 -933.16944 -2271.4564)"><path d="m494.5625 1160.375v5.3438 5.3437h5.6875 5.6875v-5.3437-5.3438h-5.6875zm2.96875 1.5h1.5c1.35533 0 1.54326.017 1.84375.094.97214.2486 1.603.9247 1.65625 1.7812.0453.7275-.20813 1.2313-.78125 1.5938l-.1875.125.21875.062c.55564.1957 1.0114.6109 1.25 1.0938.15923.3222.1875.3209.1875.8125 0 .4908-.0299.525-.1875.8437-.35502.7184-.97389 1.1001-1.96875 1.25-.30069.045-.82817.062-1.96875.063h-1.5625v-3.8438-3.875zm1.375 1.2188v.9687 1h .5c.26687-.0004.5924-.029.75-.062.69401-.1471.98232-.4735.9375-1.0938-.0248-.3414-.13516-.5456-.4375-.6874-.2258-.1058-.30306-.1116-1-.125h-.75zm0 3.1874v1.0626 1.0312h.75c.40925-.0005.8678-.01 1.03125-.031.71945-.104 1.125-.4676 1.125-1.0313 0-.3566-.14015-.5707-.4375-.75-.35821-.216-.68092-.2813-1.625-.2813h-.84375z"/><path d="m507.65625 1160.375v5.3438 5.3437h5.71875 5.71875v-5.3437-5.3438h-5.71875zm3.03125 1.5h1.46875c1.66569.0009 1.88068.022 2.40625.2812.79316.3919 1.22179 1.1747 1.09375 2-.0268.1729-.0801.3987-.125.5-.099.2239-.41791.5761-.625.6876-.15682.084-.19815.1562-.0937.1562.14444 0 .74737.3498.96875.5625.48764.4686.69846 1.2158.53125 1.8437-.20822.7823-.81127 1.3193-1.75 1.5626-.32753.085-.50557.1077-2.125.125h-1.75v-3.8438-3.875zm1.375 1.2188v1 1l .625-.031c.3652-.014.68826-.055.8125-.094.50655-.1594.75519-.4627.75-.9688-.003-.3177-.0806-.4875-.28125-.6562-.22416-.1887-.51605-.25-1.25-.25zm0 3.1874v1.0626 1.0624l.9375-.031c.79435-.017.93158-.011 1.1875-.094.72989-.2364.99452-1.0348.53125-1.5624-.30393-.3461-.71041-.4365-1.84375-.4376z"/><path d="m520.8125 1160.375v5.3438 5.3437h5.71875 5.6875v-5.3437-5.3438h-5.6875zm5.9375 1.4062c.82889-.046 1.64553.079 2.65625.4376l.46875.1874v.7188c0 .3889.009.6875 0 .6875s-.26144-.09-.53125-.2187c-.95914-.4564-1.59026-.6264-2.46875-.5938-.45988.017-.62123.039-.96875.1562-.52537.1776-.86336.3915-1.21875.75-.48178.486-.71993 1.1206-.71875 1.8438.002.768.23851 1.3405.75 1.8438.57394.5645 1.32032.8393 2.28125.8437.85161 0 1.56708-.1856 2.46875-.6563l.5-.25v.7188.7188l-.28125.1562c-.809.3728-1.50262.5083-2.5.5312-.40334.01-.85073.021-1 0-1.55487-.219-2.81263-1.1353-3.375-2.4687-.33734-.8-.36936-1.7362-.0937-2.5937.43999-1.3691 1.67462-2.4154 3.1875-2.7188.28557-.057.56745-.079.84375-.094z"/></g></g></g></svg>