<svg id="a" width="878.5" height="323.49" fill-rule="evenodd" version="1.0" viewBox="0 0 297 110" xml:space="preserve" xmlns="http://www.w3.org/2000/svg">
 <defs id="b">
  <style id="c" type="text/css">
    .fil0 {fill:#C90302}
  </style>
 </defs>
 <g id="d" transform="translate(-3.4394 -1.2666)">
  <rect id="e" transform="translate(3.4394 1.2666)" x="36.542" y="31.79" width="227.83" height="47.606" fill="#fff" fill-rule="nonzero"/><path id="f" class="fil0" d="m2.577 1.2666h298.72v110h-298.72v-110zm150.75 78.102c4.7953-0.7515 8.642-2.5708 11.715-5.5407 3.5744-3.4545 5.6302-7.7074 6.3748-13.187 0.1912-1.4076 0.21709-4.9575 0.04626-6.3559-0.67299-5.5105-2.8126-10.039-6.3633-13.468-4.1181-3.9772-9.6831-5.9816-16.067-5.7874-5.0614 0.15405-9.5201 1.7133-13.184 4.6107-2.0078 1.5876-4.1061 4.1914-5.3179 6.5989-3.266 6.4892-3.3224 15.283-0.13982 21.789 1.0916 2.2316 2.1896 3.7757 3.9108 5.5002 3.484 3.4906 7.817 5.4304 13.4 5.9991 0.85734 0.087311 4.7594-0.022518 5.626-0.15824zm-5.3584-7.8706c-3.0867-0.3257-5.529-1.4216-7.4396-3.3388-1.8815-1.888-2.9687-4.2434-3.4895-7.5612-0.21985-1.4011-0.22231-5.1084-0.0042-6.5615 0.18712-1.2474 0.55785-2.713 0.91139-3.6029 1.3129-3.3051 3.7057-5.5974 6.9958-6.7019 2.3154-0.7774 5.6322-0.93779 8.2511-0.39888 5.1107 1.0515 8.3735 4.6086 9.321 10.162 0.37749 2.2114 0.37729 5.3559-1e-4 7.5929-1.0303 6.1074-4.8893 9.7936-10.905 10.417-0.9512 0.098569-2.6723 0.095397-3.6405-0.006653zm98.723 7.8282c5.0146-0.66348 9.37-2.1672 12.879-4.4466 0.93391-0.60657 1.8942-1.3231 1.8942-1.4136 0-0.038794-0.7208-1.4014-1.6017-3.0281l-1.6017-2.9577-0.4738 0.30318c-6.461 4.133-15.958 5.2554-21.651 2.5587-3.5484-1.6809-5.6135-4.5971-6.3982-9.0355l-0.04934-0.27923h33.146l0.04514-0.19315c0.25559-1.0948 0.37034-4.0987 0.22407-5.8622-0.20779-2.502-0.54536-4.2177-1.2532-6.3687-2.205-6.7012-7.0996-11.246-13.915-12.92-2.0145-0.4949-3.1935-0.62428-5.7547-0.63144-2.3776-0.006654-3.0194 0.045959-4.767 0.39162-7.3976 1.4632-13.107 6.5265-15.499 13.746-1.1061 3.3377-1.5318 6.8612-1.2487 10.335 0.62019 7.6101 4.0218 13.517 9.7909 17.001 2.7204 1.6428 5.509 2.5208 9.534 3.002 0.1654 0.019754 1.4214 0.024872 2.7915 0.011258 1.9613-0.019345 2.7923-0.064484 3.9081-0.21229zm-16.978-25.766c0.19642-1.8791 0.96195-3.9886 2.0436-5.6317 0.62612-0.951 2.0752-2.3838 3.0621-3.0279 1.3532-0.88283 2.9479-1.4889 4.742-1.8019 1.246-0.21751 4.0943-0.18926 5.4551 0.054044 2.4811 0.44351 4.3573 1.3255 5.9432 2.7937 1.8884 1.7483 3.0946 4.4113 3.2613 7.2l0.05517 0.92346h-24.616l0.05323-0.50974zm-45.551 14.351c0-6.4887 0.03408-10.979 0.08864-11.66 0.34852-4.3491 1.4572-7.1538 3.7335-9.4446 2.4196-2.435 5.6738-3.591 9.7058-3.448 3.2316 0.11464 5.4849 1.0034 7.2592 2.8629 1.3929 1.4599 2.2209 3.166 2.7043 5.5717 0.35303 1.7579 0.38803 2.564 0.43441 10.05 0.06059 9.753 0.22282 12.919 0.82622 16.126l0.09305 0.49397h8.3647l-0.1566-0.96635c-0.16275-1.0031-0.34126-2.6243-0.50811-4.6167-0.05814-0.6946-0.12395-4.9472-0.16408-10.608-0.06602-9.3396-0.08894-10.056-0.39059-12.197-0.44945-3.1916-1.5215-6.0984-3.0231-8.1975-1.2342-1.7254-3.2792-3.5865-5.0413-4.5885-4.4188-2.5126-10.403-2.9908-15.509-1.2392-1.8512 0.63492-3.545 1.57-5.0329 2.7782-0.93329 0.75785-2.3188 2.1784-2.9072 2.9807-0.23336 0.31843-0.44719 0.57893-0.47514 0.57893-0.02784 0-0.09692-0.43492-0.15343-0.96635-0.1609-1.5138-0.50789-3.3986-0.88559-4.8099l-0.08638-0.32212h-8.2142l0.10829 0.62274c0.36624 2.1086 0.61128 4.9852 0.72572 8.5237 0.04585 1.4177 0.08403 9.4287 0.08475 17.802l0.00133 15.224h8.4174v-10.552zm-119.82-21.056v-10.65h-22.676v21.301h22.676v-10.651zm-16.749 0.043092v-7.6874h2.9924c2.6989 0 3.0576 0.016685 3.656 0.16971 1.9359 0.4952 3.1864 1.8429 3.2924 3.5486 0.090177 1.4488-0.4169 2.4958-1.5582 3.2176l-0.33532 0.21208 0.43082 0.1518c1.1065 0.38957 2.0186 1.1687 2.4937 2.1304 0.3171 0.64168 0.32294 0.67085 0.32294 1.6499 0 0.97741-0.006244 1.0092-0.31997 1.644-0.70698 1.4304-1.9457 2.2272-3.9268 2.5259-0.59879 0.090279-1.6631 0.12395-3.9344 0.12426l-3.1136 5.13e-4v-7.6872zm6.3038 5.1933c1.4327-0.20707 2.1996-0.91896 2.1996-2.0414 0-0.71005-0.2608-1.1798-0.85294-1.5368-0.71333-0.4301-1.3853-0.54147-3.2653-0.54147h-1.6365v4.2088l1.4816-0.00174c0.81497-0.001023 1.7481-0.040226 2.0735-0.08731zm-1.052-6.6486c1.382-0.29295 1.9497-0.9641 1.8604-2.1992-0.049336-0.67986-0.31833-1.0775-0.92039-1.3599-0.44966-0.21065-0.57371-0.22682-1.9616-0.25354l-1.4816-0.028661v3.9654l0.96625-0.001535c0.53144-8.2e-4 1.2231-0.055887 1.5369-0.12242zm37.694 1.4122v-10.65h-22.762v21.301h22.762v-10.651zm-16.749 0.050463v-7.6948l2.9417 0.001536c3.317 0.001739 3.7113 0.048517 4.7579 0.56573 1.5795 0.78037 2.4373 2.3504 2.1824 3.994-0.053327 0.34423-0.17012 0.79081-0.25947 0.99266-0.19714 0.44576-0.8338 1.1434-1.2462 1.3654-0.31229 0.16817-0.39152 0.29561-0.18363 0.29561 0.28762 0 1.522 0.71783 1.9629 1.1415 0.97106 0.93309 1.3956 2.3862 1.0627 3.6367-0.41465 1.5578-1.6409 2.654-3.5102 3.1385-0.65222 0.16899-0.98304 0.18629-4.2079 0.22068l-3.5001 0.037257v-7.6948zm6.9869 5.024c1.4535-0.47094 1.9915-2.0126 1.0689-3.0633-0.60524-0.68917-1.4399-0.89092-3.6967-0.89296l-1.6106-0.001433v4.2278l1.8252-0.039715c1.5818-0.034597 1.9035-0.065304 2.4132-0.2303zm-1.374-6.5635c1.0087-0.31741 1.4769-0.93872 1.4666-1.9465-0.006449-0.63267-0.15313-0.98283-0.55262-1.3189-0.44638-0.37565-1.0011-0.48486-2.4626-0.48486h-1.3157v3.9748l1.224-0.046675c0.72725-0.027944 1.393-0.1 1.6404-0.17779zm37.247 1.4891v-10.65h-22.676v21.301h22.676v-10.651zm-12.007 7.8161c-3.0963-0.43614-5.5609-2.2433-6.6807-4.8985-0.67177-1.5931-0.74086-3.443-0.19202-5.1507 0.87618-2.7263 3.2948-4.7977 6.3074-5.4019 2.2747-0.45631 4.2842-0.25528 6.9678 0.69664l0.96635 0.34259v1.4083c0 0.77454-0.01453 1.4083-0.03244 1.4083-0.01781 0-0.47197-0.20922-1.0092-0.4648-1.91-0.90872-3.2214-1.2112-4.9708-1.1463-0.91579 0.033982-1.193 0.080042-1.885 0.31413-1.0462 0.35354-1.7133 0.75969-2.421 1.4737-0.9594 0.96779-1.4498 2.2017-1.4474 3.6419 0.00256 1.5293 0.47289 2.6954 1.4914 3.6974 1.1429 1.1242 2.6491 1.6827 4.5627 1.6914 1.6959 0.007779 3.1218-0.37176 4.9173-1.3089l0.96625-0.50442v2.8873l-0.58774 0.27094c-1.611 0.7424-2.9661 1.0394-4.9522 1.0852-0.8032 0.018527-1.7034-5.12e-4 -2.0007-0.042478z" fill="#c90302"/>
 </g>
</svg>
