<?xml version="1.0" encoding="UTF-8" standalone="no"?>
<!-- Created with Inkscape (http://www.inkscape.org/) -->

<svg
   xmlns:dc="http://purl.org/dc/elements/1.1/"
   xmlns:cc="http://creativecommons.org/ns#"
   xmlns:rdf="http://www.w3.org/1999/02/22-rdf-syntax-ns#"
   xmlns:svg="http://www.w3.org/2000/svg"
   xmlns="http://www.w3.org/2000/svg"
   xmlns:sodipodi="http://sodipodi.sourceforge.net/DTD/sodipodi-0.dtd"
   xmlns:inkscape="http://www.inkscape.org/namespaces/inkscape"
   id="svg2985"
   version="1.1"
   inkscape:version="0.91 r13725"
   width="999"
   height="296.19443"
   xml:space="preserve"
   sodipodi:docname="BBC One South.svg"
   hola_ext_inject="disabled"><metadata
     id="metadata2991"><rdf:RDF><cc:Work
         rdf:about=""><dc:format>image/svg+xml</dc:format><dc:type
           rdf:resource="http://purl.org/dc/dcmitype/StillImage" /><dc:title></dc:title></cc:Work></rdf:RDF></metadata><defs
     id="defs2989"><clipPath
       clipPathUnits="userSpaceOnUse"
       id="clipPath3003"><path
         d="m 0,0 841.89,0 0,595.276 L 0,595.276 0,0 Z"
         id="path3005"
         inkscape:connector-curvature="0" /></clipPath><clipPath
       clipPathUnits="userSpaceOnUse"
       id="clipPath3023"><path
         d="m 0,0 841.89,0 0,595.276 L 0,595.276 0,0 Z"
         id="path3025"
         inkscape:connector-curvature="0" /></clipPath><clipPath
       clipPathUnits="userSpaceOnUse"
       id="clipPath3051"><path
         d="m 0,0 841.89,0 0,595.276 L 0,595.276 0,0 Z"
         id="path3053"
         inkscape:connector-curvature="0" /></clipPath><clipPath
       clipPathUnits="userSpaceOnUse"
       id="clipPath3075"><path
         d="m 0,0 841.89,0 0,595.276 L 0,595.276 0,0 Z"
         id="path3077"
         inkscape:connector-curvature="0" /></clipPath><clipPath
       clipPathUnits="userSpaceOnUse"
       id="clipPath3195"><path
         d="m 0,0 841.89,0 0,595.276 L 0,595.276 0,0 Z"
         id="path3197"
         inkscape:connector-curvature="0" /></clipPath><clipPath
       clipPathUnits="userSpaceOnUse"
       id="clipPath3209"><path
         d="m 49.094,354.329 287.15,0 0,-161.734 -287.15,0 0,161.734 z"
         id="path3211"
         inkscape:connector-curvature="0" /></clipPath><clipPath
       clipPathUnits="userSpaceOnUse"
       id="clipPath3233"><path
         d="m 0,0 841.89,0 0,595.276 L 0,595.276 0,0 Z"
         id="path3235"
         inkscape:connector-curvature="0" /></clipPath><clipPath
       clipPathUnits="userSpaceOnUse"
       id="clipPath3257"><path
         d="m 0,0 841.89,0 0,595.276 L 0,595.276 0,0 Z"
         id="path3259"
         inkscape:connector-curvature="0" /></clipPath><clipPath
       clipPathUnits="userSpaceOnUse"
       id="clipPath3297"><path
         d="m 0,0 841.89,0 0,595.276 L 0,595.276 0,0 Z"
         id="path3299"
         inkscape:connector-curvature="0" /></clipPath><clipPath
       clipPathUnits="userSpaceOnUse"
       id="clipPath3313"><path
         d="m 0,0 841.89,0 0,595.276 L 0,595.276 0,0 Z"
         id="path3315"
         inkscape:connector-curvature="0" /></clipPath><clipPath
       clipPathUnits="userSpaceOnUse"
       id="clipPath3341"><path
         d="m 0,0 841.89,0 0,595.276 L 0,595.276 0,0 Z"
         id="path3343"
         inkscape:connector-curvature="0" /></clipPath><clipPath
       clipPathUnits="userSpaceOnUse"
       id="clipPath3419"><path
         d="m 0,0 841.89,0 0,595.276 L 0,595.276 0,0 Z"
         id="path3421"
         inkscape:connector-curvature="0" /></clipPath><clipPath
       clipPathUnits="userSpaceOnUse"
       id="clipPath3465"><path
         d="m 0,0 841.89,0 0,595.276 L 0,595.276 0,0 Z"
         id="path3467"
         inkscape:connector-curvature="0" /></clipPath><clipPath
       clipPathUnits="userSpaceOnUse"
       id="clipPath3489"><path
         d="m 0,0 841.89,0 0,595.276 L 0,595.276 0,0 Z"
         id="path3491"
         inkscape:connector-curvature="0" /></clipPath><clipPath
       clipPathUnits="userSpaceOnUse"
       id="clipPath3511"><path
         d="m 0,0 841.89,0 0,595.276 L 0,595.276 0,0 Z"
         id="path3513"
         inkscape:connector-curvature="0" /></clipPath><clipPath
       clipPathUnits="userSpaceOnUse"
       id="clipPath3533"><path
         d="m 0,0 841.89,0 0,595.276 L 0,595.276 0,0 Z"
         id="path3535"
         inkscape:connector-curvature="0" /></clipPath><clipPath
       clipPathUnits="userSpaceOnUse"
       id="clipPath3615"><path
         d="m 0,0 841.89,0 0,595.276 L 0,595.276 0,0 Z"
         id="path3617"
         inkscape:connector-curvature="0" /></clipPath><clipPath
       clipPathUnits="userSpaceOnUse"
       id="clipPath3659"><path
         d="m 0,0 841.89,0 0,595.276 L 0,595.276 0,0 Z"
         id="path3661"
         inkscape:connector-curvature="0" /></clipPath><clipPath
       clipPathUnits="userSpaceOnUse"
       id="clipPath3673"><path
         d="m 0,0 841.89,0 0,595.276 L 0,595.276 0,0 Z"
         id="path3675"
         inkscape:connector-curvature="0" /></clipPath><clipPath
       clipPathUnits="userSpaceOnUse"
       id="clipPath3707"><path
         d="m 0,0 841.89,0 0,595.276 L 0,595.276 0,0 Z"
         id="path3709"
         inkscape:connector-curvature="0" /></clipPath><clipPath
       clipPathUnits="userSpaceOnUse"
       id="clipPath3735"><path
         d="m 0,0 841.89,0 0,595.276 L 0,595.276 0,0 Z"
         id="path3737"
         inkscape:connector-curvature="0" /></clipPath><clipPath
       clipPathUnits="userSpaceOnUse"
       id="clipPath3757"><path
         d="m 0,0 841.89,0 0,595.276 L 0,595.276 0,0 Z"
         id="path3759"
         inkscape:connector-curvature="0" /></clipPath><clipPath
       clipPathUnits="userSpaceOnUse"
       id="clipPath3779"><path
         d="m 0,0 841.89,0 0,595.276 L 0,595.276 0,0 Z"
         id="path3781"
         inkscape:connector-curvature="0" /></clipPath><clipPath
       clipPathUnits="userSpaceOnUse"
       id="clipPath3881"><path
         d="m 0,0 841.89,0 0,595.276 L 0,595.276 0,0 Z"
         id="path3883"
         inkscape:connector-curvature="0" /></clipPath><clipPath
       clipPathUnits="userSpaceOnUse"
       id="clipPath3925"><path
         d="m 0,0 841.89,0 0,595.276 L 0,595.276 0,0 Z"
         id="path3927"
         inkscape:connector-curvature="0" /></clipPath><clipPath
       clipPathUnits="userSpaceOnUse"
       id="clipPath3939"><path
         d="m 0,0 841.89,0 0,595.276 L 0,595.276 0,0 Z"
         id="path3941"
         inkscape:connector-curvature="0" /></clipPath><clipPath
       clipPathUnits="userSpaceOnUse"
       id="clipPath3973"><path
         d="m 0,0 841.89,0 0,595.276 L 0,595.276 0,0 Z"
         id="path3975"
         inkscape:connector-curvature="0" /></clipPath><clipPath
       clipPathUnits="userSpaceOnUse"
       id="clipPath4005"><path
         d="m 0,0 841.89,0 0,595.276 L 0,595.276 0,0 Z"
         id="path4007"
         inkscape:connector-curvature="0" /></clipPath><clipPath
       clipPathUnits="userSpaceOnUse"
       id="clipPath4029"><path
         d="m 0,0 841.89,0 0,595.276 L 0,595.276 0,0 Z"
         id="path4031"
         inkscape:connector-curvature="0" /></clipPath><clipPath
       clipPathUnits="userSpaceOnUse"
       id="clipPath4069"><path
         d="m 0,0 841.89,0 0,595.276 L 0,595.276 0,0 Z"
         id="path4071"
         inkscape:connector-curvature="0" /></clipPath><clipPath
       clipPathUnits="userSpaceOnUse"
       id="clipPath4089"><path
         d="m 0,0 841.89,0 0,595.276 L 0,595.276 0,0 Z"
         id="path4091"
         inkscape:connector-curvature="0" /></clipPath><clipPath
       clipPathUnits="userSpaceOnUse"
       id="clipPath4111"><path
         d="m 0,0 841.89,0 0,595.276 L 0,595.276 0,0 Z"
         id="path4113"
         inkscape:connector-curvature="0" /></clipPath><clipPath
       clipPathUnits="userSpaceOnUse"
       id="clipPath4133"><path
         d="m 0,0 841.89,0 0,595.276 L 0,595.276 0,0 Z"
         id="path4135"
         inkscape:connector-curvature="0" /></clipPath><clipPath
       clipPathUnits="userSpaceOnUse"
       id="clipPath4251"><path
         d="m 0,0 841.89,0 0,595.276 L 0,595.276 0,0 Z"
         id="path4253"
         inkscape:connector-curvature="0" /></clipPath><clipPath
       clipPathUnits="userSpaceOnUse"
       id="clipPath4297"><path
         d="m 0,0 841.89,0 0,595.276 L 0,595.276 0,0 Z"
         id="path4299"
         inkscape:connector-curvature="0" /></clipPath><clipPath
       clipPathUnits="userSpaceOnUse"
       id="clipPath4337"><path
         d="m 0,0 841.89,0 0,595.276 L 0,595.276 0,0 Z"
         id="path4339"
         inkscape:connector-curvature="0" /></clipPath><clipPath
       clipPathUnits="userSpaceOnUse"
       id="clipPath4379"><path
         d="m 0,0 841.89,0 0,595.276 L 0,595.276 0,0 Z"
         id="path4381"
         inkscape:connector-curvature="0" /></clipPath><clipPath
       clipPathUnits="userSpaceOnUse"
       id="clipPath4423"><path
         d="m 0,0 841.89,0 0,595.276 L 0,595.276 0,0 Z"
         id="path4425"
         inkscape:connector-curvature="0" /></clipPath><clipPath
       clipPathUnits="userSpaceOnUse"
       id="clipPath4437"><path
         d="m 0,0 841.89,0 0,595.276 L 0,595.276 0,0 Z"
         id="path4439"
         inkscape:connector-curvature="0" /></clipPath><clipPath
       clipPathUnits="userSpaceOnUse"
       id="clipPath4471"><path
         d="m 0,0 841.89,0 0,595.276 L 0,595.276 0,0 Z"
         id="path4473"
         inkscape:connector-curvature="0" /></clipPath><style
       id="style6"
       type="text/css">
   
    .fil0 {fill:#C90302}
   
  </style><inkscape:perspective
       id="perspective17"
       inkscape:persp3d-origin="526.18109 : 129.92126 : 1"
       inkscape:vp_z="1052.3622 : 194.8819 : 1"
       inkscape:vp_y="0 : 1000 : 0"
       inkscape:vp_x="0 : 194.8819 : 1"
       sodipodi:type="inkscape:persp3d" /><clipPath
       id="clipPath3855"
       clipPathUnits="userSpaceOnUse"><path
         id="path3857"
         d="m 28.346,484.3 47.237,0 0,34.44 -47.237,0 0,-34.44 z"
         inkscape:connector-curvature="0" /></clipPath><clipPath
       id="clipPath3793"
       clipPathUnits="userSpaceOnUse"><path
         id="path3795"
         d="m 90.708,484.3 47.382,0 0,34.44 -47.382,0 0,-34.44 z"
         inkscape:connector-curvature="0" /></clipPath><clipPath
       id="clipPath3779-4"
       clipPathUnits="userSpaceOnUse"><path
         id="path3781-8"
         d="m 90.708,484.3 47.382,0 0,34.44 -47.382,0 0,-34.44 z"
         inkscape:connector-curvature="0" /></clipPath><clipPath
       id="clipPath3739"
       clipPathUnits="userSpaceOnUse"><path
         id="path3741"
         d="m 277.795,444.472 46.804,0 0,34.347 -46.804,0 0,-34.347 z"
         inkscape:connector-curvature="0" /></clipPath><clipPath
       id="clipPath3675"
       clipPathUnits="userSpaceOnUse"><path
         id="path3677"
         d="m 215.433,444.472 46.949,0 0,34.347 -46.949,0 0,-34.347 z"
         inkscape:connector-curvature="0" /></clipPath><clipPath
       id="clipPath3621"
       clipPathUnits="userSpaceOnUse"><path
         id="path3623"
         d="m 153.071,444.472 47.112,0 0,34.393 -47.112,0 0,-34.393 z"
         inkscape:connector-curvature="0" /></clipPath><clipPath
       id="clipPath3575"
       clipPathUnits="userSpaceOnUse"><path
         id="path3577"
         d="m 90.708,444.472 47.402,0 0,34.393 -47.402,0 0,-34.393 z"
         inkscape:connector-curvature="0" /></clipPath><clipPath
       id="clipPath3561"
       clipPathUnits="userSpaceOnUse"><path
         id="path3563"
         d="m 90.708,444.472 47.402,0 0,34.393 -47.402,0 0,-34.393 z"
         inkscape:connector-curvature="0" /></clipPath><clipPath
       id="clipPath3549"
       clipPathUnits="userSpaceOnUse"><path
         id="path3551"
         d="m 28.346,444.472 47.245,0 0,34.393 -47.245,0 0,-34.393 z"
         inkscape:connector-curvature="0" /></clipPath><clipPath
       id="clipPath3499"
       clipPathUnits="userSpaceOnUse"><path
         id="path3501"
         d="m 277.795,484.3 46.804,0 0,34.309 -46.804,0 0,-34.309 z"
         inkscape:connector-curvature="0" /></clipPath><clipPath
       id="clipPath3479"
       clipPathUnits="userSpaceOnUse"><path
         id="path3481"
         d="m 277.795,491.772 46.804,0 0,20.354 -46.804,0 0,-20.354 z"
         inkscape:connector-curvature="0" /></clipPath><clipPath
       id="clipPath3419-0"
       clipPathUnits="userSpaceOnUse"><path
         id="path3421-9"
         d="m 277.795,484.3 46.804,0 0,34.309 -46.804,0 0,-34.309 z"
         inkscape:connector-curvature="0" /></clipPath><clipPath
       id="clipPath3403"
       clipPathUnits="userSpaceOnUse"><path
         id="path3405"
         d="m 277.795,491.772 46.804,0 0,20.354 -46.804,0 0,-20.354 z"
         inkscape:connector-curvature="0" /></clipPath><clipPath
       id="clipPath3379"
       clipPathUnits="userSpaceOnUse"><path
         id="path3381"
         d="m 277.795,484.3 46.804,0 0,34.309 -46.804,0 0,-34.309 z"
         inkscape:connector-curvature="0" /></clipPath><clipPath
       id="clipPath3337"
       clipPathUnits="userSpaceOnUse"><path
         id="path3339"
         d="m 340.158,484.348 46.688,0 0,34.393 -46.688,0 0,-34.393 z"
         inkscape:connector-curvature="0" /></clipPath><clipPath
       id="clipPath3289"
       clipPathUnits="userSpaceOnUse"><path
         id="path3291"
         d="m 215.449,484.3 46.803,0 0,34.393 -46.803,0 0,-34.393 z"
         inkscape:connector-curvature="0" /></clipPath><clipPath
       id="clipPath3271"
       clipPathUnits="userSpaceOnUse"><path
         id="path3273"
         d="m 153.087,484.348 47.287,0 0,34.393 -47.287,0 0,-34.393 z"
         inkscape:connector-curvature="0" /></clipPath><clipPath
       id="clipPath3115"
       clipPathUnits="userSpaceOnUse"><path
         id="path3117"
         d="m 28.346,20.092 362.835,0 0,158.49 -362.835,0 0,-158.49 z"
         inkscape:connector-curvature="0" /></clipPath><sodipodi:namedview
       inkscape:window-height="974"
       inkscape:window-width="1280"
       inkscape:pageshadow="2"
       inkscape:pageopacity="0.0"
       guidetolerance="10.0"
       gridtolerance="10.0"
       objecttolerance="10.0"
       borderopacity="1.0"
       bordercolor="#666666"
       pagecolor="#ffffff"
       id="base-1"
       inkscape:zoom="0.25612053"
       inkscape:cx="1329.6704"
       inkscape:cy="-22.75906"
       inkscape:window-x="-8"
       inkscape:window-y="-8"
       inkscape:current-layer="svg2413" /></defs><sodipodi:namedview
     pagecolor="#ffffff"
     bordercolor="#666666"
     borderopacity="1"
     objecttolerance="10"
     gridtolerance="10"
     guidetolerance="10"
     inkscape:pageopacity="0"
     inkscape:pageshadow="2"
     inkscape:window-width="1920"
     inkscape:window-height="1017"
     id="namedview2987"
     showgrid="false"
     fit-margin-top="0"
     fit-margin-left="0"
     fit-margin-right="0"
     fit-margin-bottom="0"
     inkscape:zoom="0.45585016"
     inkscape:cx="-134.56982"
     inkscape:cy="-20.197027"
     inkscape:window-x="-8"
     inkscape:window-y="-8"
     inkscape:window-maximized="1"
     inkscape:current-layer="g2993" /><g
     id="g2993"
     inkscape:groupmode="layer"
     inkscape:label="onscreen_guidelines"
     transform="matrix(1.25,0,0,-1.25,-1543.7513,-811.2006)"><g
       id="g3203"
       transform="translate(349.3506,368.504)" /><g
       id="g4491"
       transform="translate(349.3506,42.5196)" /><g
       id="g3565"
       transform="translate(938.96857,-702.2758)" /><g
       id="g3783"
       transform="translate(938.96027,-662.5387)" /><path
       inkscape:connector-curvature="0"
       id="path3655"
       style="font-style:normal;font-variant:normal;font-weight:bold;font-stretch:normal;font-size:medium;line-height:125%;font-family:BBCOne-Bold;-inkscape-font-specification:'BBCOne-Bold Bold';letter-spacing:0px;word-spacing:0px;fill:#ffffff;fill-opacity:1;stroke:none"
       d="m 1584.775,-830.4786 c 6.774,-4e-5 12.337,-1.54229 16.6889,-4.62672 l -3.9661,-8.17933 c -3.5804,2.14817 -7.4086,3.22228 -11.4848,3.22232 -2.8089,-4e-5 -5.0121,-0.55097 -6.6098,-1.65276 -1.5977,-1.10188 -2.3966,-2.5067 -2.3966,-4.21448 0,-1.54143 0.909,-2.89037 2.7269,-4.04681 1.8179,-1.1565 4.0077,-2.21672 6.5694,-3.18069 2.5617,-0.96404 5.123,-2.06588 7.6839,-3.30552 2.5608,-1.23972 4.7502,-3.00215 6.5682,-5.28733 1.8178,-2.28522 2.7268,-4.99779 2.7268,-8.13773 0,-4.46115 -1.57,-8.24782 -4.7099,-11.36005 -3.14,-3.1122 -7.9322,-4.66832 -14.3768,-4.66832 -3.7451,0 -7.27,0.57824 -10.5747,1.73472 -3.3047,1.15646 -6.0311,2.69869 -8.1793,4.62672 l 4.2964,8.17933 c 4.5166,-3.36017 9.2812,-5.04023 14.2937,-5.04023 2.5885,0 4.6128,0.482 6.0727,1.44602 1.4598,0.96399 2.1898,2.35451 2.1898,4.1716 0,1.76326 -0.8951,3.27819 -2.6853,4.54478 -1.7902,1.26655 -3.9661,2.36796 -6.5278,3.30426 -2.5617,0.93623 -5.123,1.99648 -7.6839,3.18069 -2.5609,1.18418 -4.7364,2.90545 -6.5266,5.16377 -1.7901,2.25829 -2.6852,5.01289 -2.6852,8.26381 0,4.68131 1.8175,8.4953 5.4525,11.44199 3.6349,2.94659 8.0141,4.41992 13.1376,4.41996 z" /><path
       inkscape:connector-curvature="0"
       id="path3657"
       style="font-style:normal;font-variant:normal;font-weight:bold;font-stretch:normal;font-size:medium;line-height:125%;font-family:BBCOne-Bold;-inkscape-font-specification:'BBCOne-Bold Bold';letter-spacing:0px;word-spacing:0px;fill:#ffffff;fill-opacity:1;stroke:none"
       d="m 1639.0173,-873.60666 c 1.8725,2.14819 2.8087,5.1503 2.8088,9.00634 -10e-5,3.85599 -0.9363,6.85811 -2.8088,9.00634 -1.8726,2.03723 -4.4335,3.05586 -7.6827,3.0559 -3.2492,-4e-5 -5.8101,-1.01867 -7.6826,-3.0559 -1.8742,-2.14823 -2.8113,-5.15035 -2.8113,-9.00634 0,-3.85604 0.9371,-6.85815 2.8113,-9.00634 1.8725,-2.03729 4.4334,-3.05592 7.6826,-3.05592 3.2492,0 5.8101,1.01863 7.6827,3.05592 z m -22.8437,-6.36144 c -3.8829,3.96528 -5.8244,9.08744 -5.8244,15.36652 0,6.27902 1.9415,11.40161 5.8244,15.36775 3.8829,3.96609 8.9366,5.94914 15.161,5.94918 6.2244,-4e-5 11.2781,-1.98309 15.161,-5.94918 3.8829,-3.96614 5.8244,-9.08873 5.8244,-15.36775 0,-6.27908 -1.9415,-11.40124 -5.8244,-15.36652 -3.8829,-3.96528 -8.9366,-5.94792 -15.161,-5.94792 -6.2244,0 -11.2781,1.98264 -15.161,5.94792 z" /><path
       inkscape:connector-curvature="0"
       id="path3659"
       style="font-style:normal;font-variant:normal;font-weight:bold;font-stretch:normal;font-size:medium;line-height:125%;font-family:BBCOne-Bold;-inkscape-font-specification:'BBCOne-Bold Bold';letter-spacing:0px;word-spacing:0px;fill:#ffffff;fill-opacity:1;stroke:none"
       d="m 1687.6924,-844.27555 10.0804,0 0,-21.72919 c 0,-4.07622 -0.3581,-7.2708 -1.0741,-9.58373 -0.7161,-2.31294 -1.8734,-4.29643 -3.4719,-5.95045 -2.8089,-2.91806 -7.5457,-4.3771 -14.2105,-4.3771 -6.5539,0 -11.2907,1.45904 -14.2104,4.3771 -1.5415,1.65402 -2.6702,3.63751 -3.3863,5.95045 -0.716,2.31293 -1.0741,5.50751 -1.0741,9.58373 l 0,10.32754 c 0,4.68133 -0.2756,8.48186 -0.827,11.40165 l 9.9973,0 c 0.6051,-3.19545 0.9077,-6.996 0.9077,-11.40165 l 0,-8.67602 c 0,-2.86431 0.1239,-5.0537 0.3719,-6.5682 0.2479,-1.51451 0.8131,-2.73989 1.6956,-3.67615 1.6523,-1.5431 3.8552,-2.31463 6.6085,-2.31463 2.7533,0 4.9015,0.77153 6.4446,2.31463 1.4322,1.4876 2.1482,4.90238 2.1483,10.24435 z" /><path
       inkscape:connector-curvature="0"
       id="path3662"
       style="font-style:normal;font-variant:normal;font-weight:bold;font-stretch:normal;font-size:medium;line-height:125%;font-family:BBCOne-Bold;-inkscape-font-specification:'BBCOne-Bold Bold';letter-spacing:0px;word-spacing:0px;fill:#ffffff;fill-opacity:1;stroke:none"
       d="m 1732.3206,-877.24249 0.9103,-7.26913 c -2.4239,-0.93625 -4.9579,-1.4044 -7.602,-1.4044 -5.8378,0 -10.0519,1.70698 -12.6421,5.12092 -2.0373,2.81047 -3.0559,6.85895 -3.0559,12.14545 l 0,16.68896 -6.5279,0 0,7.68514 6.5279,0 0,11.89584 10.0804,0 0,-11.89584 10.4108,0 0,-7.68514 -10.4108,0 0,-15.20136 c 0,-3.90982 0.5228,-6.63625 1.5683,-8.17933 1.1027,-1.70782 2.9483,-2.56172 5.5369,-2.5617 1.9818,-2e-5 3.7165,0.22018 5.2041,0.66059 z" /><path
       inkscape:connector-curvature="0"
       id="path3664"
       style="font-style:normal;font-variant:normal;font-weight:bold;font-stretch:normal;font-size:medium;line-height:125%;font-family:BBCOne-Bold;-inkscape-font-specification:'BBCOne-Bold Bold';letter-spacing:0px;word-spacing:0px;fill:#ffffff;fill-opacity:1;stroke:none"
       d="m 1780.8873,-884.92511 -9.9972,0 c -0.6069,2.8088 -0.9103,6.58162 -0.9102,11.31845 l 0,8.50963 c -10e-5,5.23265 -0.7708,8.62054 -2.3121,10.16364 -1.5986,1.59684 -3.8023,2.39527 -6.6111,2.39531 -3.1937,-4e-5 -5.8647,-1.10187 -8.0129,-3.30552 -1.0472,-1.1565 -1.7221,-2.58822 -2.0247,-4.29516 -0.3025,-1.707 -0.4538,-4.10272 -0.4538,-7.18716 l 0,-17.59919 -10.0804,0 0,53.45563 9.9972,0 0,-18.92039 0.083,0 c 1.0455,1.98344 2.7663,3.66351 5.1625,5.04021 2.3961,1.37664 5.1364,2.06497 8.2209,2.06501 4.8478,-4e-5 8.7584,-1.48681 11.732,-4.4603 1.543,-1.5986 2.6587,-3.5682 3.3471,-5.90884 0.6883,-2.34069 1.0325,-5.54915 1.0325,-9.62533 l 0,-10.32754 c 0,-4.62589 0.2756,-8.39871 0.827,-11.31845 z" /><path
       id="path4598"
       d="m 1626.654,-648.99236 c -1.4162,0.0179 -2.8546,0.005 -4.2944,-0.0383 -18.2628,-0.55584 -34.3615,-6.18601 -47.5832,-16.64071 -7.2449,-5.72835 -14.7988,-15.12408 -19.1713,-23.81078 -11.7847,-23.41497 -11.9822,-55.16605 -0.4985,-78.64083 3.939,-8.0522 7.8994,-13.60103 14.1101,-19.82309 12.5714,-12.59504 28.2052,-19.61168 48.3501,-21.66365 3.0935,-0.31509 17.1564,0.0859 20.2832,0.57507 17.3029,2.71172 31.2035,9.29868 42.292,20.01499 12.8975,12.46485 20.3187,27.81087 23.0056,47.58322 0.6899,5.07907 0.7696,17.88309 0.1533,22.92891 -2.4283,19.8834 -10.155,36.20637 -22.9672,48.58013 -13.9306,13.45388 -32.4375,20.66553 -53.6797,20.93508 z m -0.6518,-28.87201 c 3.9285,-0.0352 7.8441,-0.42108 11.3877,-1.15028 18.4408,-3.79415 30.2076,-16.61779 33.6265,-36.65557 1.3621,-7.97943 1.3618,-19.34322 0,-27.41499 -3.7177,-22.03733 -17.67,-35.32659 -39.3779,-37.57586 -3.4322,-0.35557 -9.6196,-0.33005 -13.1132,0.038 -11.1375,1.17518 -19.9458,5.12196 -26.8398,12.03959 -6.7891,6.81235 -10.7356,15.32847 -12.6147,27.29996 -0.7933,5.05543 -0.7878,18.41436 0,23.65742 0.6751,4.50106 2.0218,9.78718 3.2974,12.99815 4.7375,11.92576 13.358,20.20875 25.2295,24.19421 5.2217,1.75318 11.8569,2.62761 18.4045,2.56896 z"
       style="fill:#ffffff;fill-opacity:1"
       inkscape:connector-curvature="0" /><path
       id="path4594"
       d="m 1958.4713,-649.10739 c -8.5793,0.0242 -10.9102,-0.17144 -17.2159,-1.41867 -26.6928,-5.27962 -47.2708,-23.56709 -55.9036,-49.61539 -3.991,-12.0432 -5.546,-24.73315 -4.5244,-37.26905 2.2378,-27.45953 14.5356,-48.77694 35.3519,-61.3483 9.8161,-5.92771 19.8701,-9.11463 34.3934,-10.8509 0.5968,-0.0712 5.1406,-0.0871 10.0841,-0.038 7.0768,0.0699 10.0456,0.23361 14.0717,0.76685 18.094,2.39406 33.8087,7.84092 46.4713,16.06563 3.3698,2.18866 6.8634,4.77314 6.8634,5.09951 0,0.14 -2.6113,5.05792 -5.7898,10.92772 l -5.7897,10.65925 -1.6871,-1.11187 c -23.313,-14.91302 -57.6008,-18.9328 -78.1423,-9.20224 -12.8037,6.06514 -20.2506,16.57617 -23.0823,32.59119 l -0.1917,0.99691 59.8145,0 59.8146,0 0.1533,0.69017 c 0.9223,3.95038 1.333,14.8019 0.8052,21.16514 -0.7497,9.02797 -1.9705,15.20608 -4.5244,22.96725 -7.9562,24.17985 -25.6365,40.58348 -50.2289,46.62465 -7.2688,1.78573 -11.5019,2.27471 -20.7433,2.30056 z m -2.5307,-28.52692 c 4.5402,0.0845 9.6992,-0.17984 12.7681,-0.72851 8.9526,-1.60032 15.7115,-4.78641 21.4336,-10.08412 6.8138,-6.30821 11.1695,-15.8955 11.7712,-25.95797 l 0.1917,-3.33581 -44.4008,0 -44.4008,0 0.1917,1.84044 c 0.7088,6.78021 3.4587,14.39307 7.3618,20.32161 2.2592,3.43147 7.4816,8.60344 11.0427,10.92765 4.8826,3.1855 10.6271,5.35049 17.1008,6.47991 1.686,0.29431 4.2159,0.48605 6.94,0.5368 z"
       style="fill:#ffffff;fill-opacity:1"
       inkscape:connector-curvature="0" /><path
       id="path4590"
       d="m 1749.1172,-767.68813 c 0,23.41311 0.1231,39.61464 0.3197,42.07181 1.2576,15.69295 5.2579,25.81304 13.4714,34.07871 8.7307,8.78606 20.4729,12.9573 35.0213,12.44134 11.6605,-0.41365 19.791,-3.62056 26.1931,-10.33024 5.0258,-5.26779 8.0138,-11.42383 9.7577,-20.10426 1.2739,-6.34292 1.4002,-9.25179 1.5675,-36.26294 0.2187,-35.19151 0.804,-46.61609 2.9812,-58.18766 l 0.336,-1.78239 15.0913,0 15.0909,0 -0.5651,3.48687 c -0.5872,3.61946 -1.2313,9.46932 -1.8334,16.65838 -0.2096,2.5063 -0.4472,17.85097 -0.592,38.27544 -0.2381,33.69978 -0.3208,36.28326 -1.4094,44.0086 -1.6217,11.51616 -5.4901,22.00485 -10.9082,29.57876 -4.4534,6.22584 -11.8323,12.94105 -18.1904,16.55645 -15.9441,9.06601 -37.5356,10.79153 -55.9594,4.47151 -6.6798,-2.29097 -12.7915,-5.66482 -18.1602,-10.02443 -3.3675,-2.73454 -8.3668,-7.86014 -10.4901,-10.75534 -0.8421,-1.149 -1.6136,-2.08895 -1.7145,-2.08895 -0.1003,0 -0.3496,1.5693 -0.5536,3.48687 -0.5806,5.46206 -1.8326,12.26296 -3.1955,17.35532 l -0.3117,1.16229 -14.8195,0 -14.8195,0 0.3907,-2.24702 c 1.3215,-7.60826 2.2057,-17.98799 2.6186,-30.75582 0.1657,-5.11563 0.3031,-34.02147 0.306,-64.2351 l 0,-54.93383 15.1863,0 15.1862,0 0,38.07563 0,0 z"
       style="fill:#ffffff;fill-opacity:1"
       inkscape:connector-curvature="0" /><path
       style="fill:#c80201;fill-opacity:1"
       d="m 1235.001,-653.32714 0,-38.39714 0,-38.39643 40.8668,0 40.8667,0 0,38.39643 0,38.39714 -40.8667,0 -40.8668,0 z m 21.3316,-10.77804 10.778,0 c 9.7386,0 11.0889,-0.12215 13.248,-0.67543 6.9852,-1.78628 11.5182,-6.6443 11.9008,-12.79857 0.3255,-5.22735 -1.4955,-8.84733 -5.6136,-11.45203 l -1.3472,-0.89817 1.5718,-0.44549 c 3.9925,-1.40618 7.2673,-4.38954 8.9817,-7.85935 1.1441,-2.31513 1.3472,-2.30579 1.3472,-5.83811 0,-3.52658 -0.2148,-3.77232 -1.3472,-6.06229 -2.551,-5.16197 -6.9978,-7.90462 -14.1462,-8.98171 -2.1606,-0.32334 -5.9507,-0.44549 -14.1462,-0.45268 l -11.2271,0 0,27.61911 0,27.84328 z m 9.8799,-8.75752 0,-6.96046 0,-7.18537 3.5926,0 c 1.9176,0.003 4.2566,0.20838 5.3891,0.44549 4.9867,1.05697 7.0583,3.40227 6.7362,7.85935 -0.1782,2.45309 -0.9711,3.92034 -3.1436,4.93922 -1.6224,0.76022 -2.1776,0.80189 -7.1853,0.89817 l -5.389,0 z m 0,-22.90263 0,-7.63517 0,-7.40955 5.389,0 c 2.9406,0.004 6.2354,0.0719 7.4099,0.22275 5.1695,0.74728 8.0835,3.35988 8.0835,7.41027 0,2.5623 -1.007,4.10068 -3.1436,5.38902 -2.5738,1.55204 -4.8926,2.02124 -11.6762,2.02124 l -6.0626,0 z"
       id="path4588"
       inkscape:connector-curvature="0" /><path
       style="fill:#c80201;fill-opacity:1"
       d="m 1329.0844,-653.32714 0,-38.39714 0,-38.39643 41.0913,0 41.0913,0 0,38.39643 0,38.39714 -41.0913,0 -41.0913,0 z m 21.7806,-10.77804 10.5535,0 c 11.9686,-0.006 13.5134,-0.15808 17.2898,-2.02053 5.6992,-2.81594 8.779,-8.44064 7.859,-14.37072 -0.1926,-1.24235 -0.5755,-2.86481 -0.8982,-3.59269 -0.7113,-1.6088 -3.0028,-4.13948 -4.4908,-4.94065 -1.1268,-0.60357 -1.4238,-1.12236 -0.6733,-1.12236 1.0379,0 5.3701,-2.51344 6.9608,-4.04176 3.5039,-3.36706 5.0187,-8.73597 3.8173,-13.24766 -1.4962,-5.62111 -5.8293,-9.47965 -12.5744,-11.22785 -2.3535,-0.61075 -3.6327,-0.77386 -15.2689,-0.89817 l -12.5744,0 0,27.6191 0,27.84329 z m 9.8799,-8.75752 0,-7.18537 0,-7.18536 4.4909,0.22275 c 2.624,0.10059 4.9454,0.39519 5.8381,0.67542 3.6397,1.14535 5.4263,3.32467 5.389,6.96118 -0.022,2.28279 -0.5792,3.50287 -2.0209,4.71504 -1.6107,1.35587 -3.708,1.79634 -8.9817,1.79634 l -4.7154,0 z m 0,-22.90263 0,-7.63517 0,-7.63373 6.7363,0.22275 c 5.7077,0.12215 6.6937,0.079 8.5326,0.67542 5.2445,1.69862 7.146,7.43542 3.8172,11.22641 -2.1838,2.48686 -5.1045,3.13641 -13.248,3.14432 l -5.8381,0 z"
       id="path4580"
       inkscape:connector-curvature="0" /><path
       style="fill:#c80201;fill-opacity:1"
       d="m 1423.6168,-653.32714 0,-38.39714 0,-38.39643 41.0913,0 40.8668,0 0,38.39643 0,38.39714 -40.8668,0 -41.0913,0 z m 42.6631,-10.10405 c 5.9559,0.33052 11.8238,-0.56765 19.0862,-3.14432 l 3.3681,-1.34654 0,-5.16484 c 0,-2.79438 0.065,-4.93993 0,-4.93993 -0.065,0 -1.8785,0.64668 -3.8172,1.57144 -6.8918,3.2794 -11.4266,4.50091 -17.7389,4.26666 -3.3044,-0.12215 -4.4638,-0.28022 -6.9608,-1.12235 -3.775,-1.27612 -6.2036,-2.81307 -8.7572,-5.38902 -3.4617,-3.49209 -5.1729,-8.05192 -5.1645,-13.24838 0.014,-5.51836 1.7138,-9.63198 5.3891,-13.24837 4.1239,-4.05614 9.4869,-6.03068 16.3916,-6.06229 6.1191,0 11.26,1.3336 17.7388,4.71575 l 3.5927,1.79634 0,-5.16484 0,-5.16484 -2.0209,-1.12235 c -5.8129,-2.6787 -10.7968,-3.65232 -17.9634,-3.81686 -2.8981,-0.0719 -6.1128,-0.1509 -7.1853,0 -11.1723,1.57359 -20.2098,8.15754 -24.2506,17.7385 -2.4239,5.74829 -2.654,12.47523 -0.6733,18.63668 3.1615,9.83748 12.0327,17.35553 22.9033,19.53557 2.052,0.40956 4.0774,0.56764 6.0627,0.67542 z"
       id="path4572"
       inkscape:connector-curvature="0" /></g></svg>