<svg hola_ext_inject="disabled" version="1.1" viewBox="0 0 1168.9 296.19" xml:space="preserve" xmlns="http://www.w3.org/2000/svg"><defs><style type="text/css">
    .fil0 {fill:#C90302}
  </style></defs><g transform="matrix(1.25 0 0 -1.25 -1543.8 -811.2)"><g transform="matrix(2.0655 0 0 -2.0655 1624.6 -608.11)" fill="#fff"><path d="m-8.8886 108.64c1.2211 0.46163 2.43 1.0449 3.6268 1.865l-2.0898 4.9391c-0.60111-0.46162-1.4763-0.92345-2.3754-1.3547-1.2575-0.55262-3.0193-1.0267-4.6109-1.0267-4.6414 0-7.7214 2.9646-7.7214 7.9948 0 5.5101 3.6937 8.1224 7.8551 8.1224 2.6123 0 4.9816-0.66826 7.0289-2.0899l2.1202 4.2647c-2.8492 2.3025-6.2999 3.1408-10.036 3.1408-7.5939 0-13.547-5.2124-13.547-13.438 0-8.4504 6.2816-13.402 13.596-13.402 2.2357 0 4.2465 0.32812 6.1541 0.98416"/><path d="m17.006 134.14h-4.8401c-0.2938-1.3599-0.44069-3.1864-0.44067-5.4797v-4.1199c-2e-5 -2.5334-0.37315-4.1736-1.1194-4.9206-0.77394-0.7731-1.8408-1.1596-3.2007-1.1597-1.5462 2e-5 -2.8394 0.53346-3.8794 1.6003-0.50701 0.55991-0.83375 1.2531-0.98023 2.0795-0.14649 0.82643-0.21973 1.9863-0.21973 3.4796v8.5205h-4.8804v-25.88h4.8401v9.1602h0.0403c0.50618-0.96027 1.3393-1.7737 2.4994-2.4402 1.1601-0.66649 2.4868-0.99974 3.9801-0.99976 2.347 2e-5 4.2403 0.71983 5.6799 2.1594 0.74704 0.77395 1.2872 1.7275 1.6205 2.8607 0.33323 1.1332 0.49985 2.6866 0.49988 4.66v5c-3e-5 2.2396 0.13344 4.0662 0.40039 5.4797z"/><g transform="translate(0 -38.615)"><path d="m29.505 152.44c-2.2234 0-3.7557 0.6911-5.2289 1.8187-2.3144 1.7687-3.6375 4.7151-3.6375 8.298 0 3.2783 1.1231 6.0792 3.0691 7.8433 1.5414 1.4277 3.2374 2.1598 5.6836 2.1598 1.9188 0 4.3695-0.96392 5.9109-2.9554 0.06363 0.91391 0.18642 1.8188 0.34103 2.5008h4.6605c-0.29529-1.4414-0.34103-3.4601-0.34103-5.3425v-13.868h-4.7742v2.5007c-1.214-1.7505-3.2783-2.9554-5.6836-2.9554zm1.023 4.4332c1.6096 0 2.7781 0.43647 3.6375 1.3641 0.86848 0.98669 1.3641 2.469 1.3641 4.3195 0 1.8233-0.49563 3.2328-1.3641 4.2059-0.85933 0.92753-2.0279 1.4777-3.6375 1.4777-1.5732 0-2.7872-0.55017-3.6375-1.4777-0.86842-0.93663-1.2504-2.3826-1.2504-4.2059 0-1.8506 0.38179-3.3692 1.2504-4.3195 0.85028-0.92754 2.0643-1.3641 3.6375-1.3641z"/><path d="m59.946 172.1c-0.29082-1.4414-0.39124-3.4966-0.39124-5.3198v-4.0513c0-2.3826-0.16355-3.8557-1.0912-4.797-0.91848-0.83661-1.7551-1.114-3.1192-1.114-1.4414 0-2.6918 0.41808-3.7648 1.5505-1.0958 1.2049-1.214 2.96-1.214 5.4198v8.3117h-4.7515v-13.777c0-1.8551-0.13621-3.924-0.37732-5.3744h4.6241c0.18642 0.70478 0.42305 1.9233 0.50468 2.8509h0.05021c0.87757-1.7323 3.251-3.3101 6.2474-3.3101 2.5371 0 4.4013 0.90934 5.5199 2.0597 1.4505 1.496 2.1234 3.3511 2.1234 7.3614v4.8697c0 1.8232 0.11832 3.8785 0.37732 5.3198h-4.7378z"/></g><path d="m83.158 133.94c-0.29082-1.4414-0.39124-3.4966-0.39124-5.3198v-4.0513c0-2.3826-0.16355-3.8557-1.0912-4.797-0.91849-0.83661-1.7552-1.114-3.1192-1.114-1.4414 0-2.6918 0.41808-3.7648 1.5505-1.0958 1.2049-1.214 2.96-1.214 5.4198v8.3117h-4.7515v-13.777c0-1.8551-0.13621-3.924-0.37732-5.3744h4.6242c0.18642 0.70478 0.42305 1.9233 0.50468 2.8509h0.0502c0.87757-1.7323 3.251-3.3101 6.2474-3.3101 2.5371 0 4.4013 0.90934 5.5199 2.0597 1.4505 1.496 2.1234 3.3511 2.1234 7.3614v4.8697c0 1.8232 0.11832 3.8785 0.37732 5.3198h-4.7378z"/><path d="m110.39 125.86h-14.44c0.16031 1.3599 0.7137 2.4599 1.6602 3.3002 0.94644 0.84026 2.2465 1.2604 3.9001 1.2604 2.5334 0 4.7733-0.66691 6.72-2.0007l1.5198 3.241c-2.3731 1.8929-5.3463 2.8394-8.9197 2.8394-2.9338 0-5.3339-0.94666-7.2003-2.84-1.8664-1.8933-2.7997-4.3732-2.7997-7.4396 0-3.0404 0.92672-5.5271 2.7802-7.4603 1.8534-1.9332 4.2332-2.8998 7.1393-2.8998 3.0135 2e-5 5.4004 0.94667 7.1606 2.84 1.7602 1.8933 2.6404 4.3602 2.6404 7.4005-2e-5 0.42644-0.0537 1.0128-0.16113 1.759zm-14.44-3.479h9.6008c-2e-5 -1.3607-0.42685-2.4542-1.2805-3.2806-0.85369-0.8264-2.0272-1.2396-3.5205-1.2396-1.3599 2e-5 -2.4597 0.42665-3.2996 1.2799-0.83985 0.85329-1.3399 1.9334-1.5002 3.2404z"/><path d="m113.48 108.52h4.8853v20.411c0 1.8747 0.07 3.9878 0.38795 5.4696h-4.8806c-0.28061-1.4819-0.39255-3.595-0.39255-5.4696v-20.411z"/><path d="m143.8 107.56h5.0664v21.167c0 1.9442 0.0726 4.1356 0.40233 5.6724h-5.0615c-0.29101-1.5368-0.4071-3.7283-0.4071-5.6724v-21.167z"/><path d="m153.07 132.54 1.5991-3.5608c1.7602 1.1735 3.4538 1.7603 5.0806 1.7602 0.90656 1e-5 1.6333-0.18656 2.1802-0.55969 0.54687-0.37312 0.8203-0.89335 0.82031-1.5607-1e-5 -0.55989-0.23336-1.0398-0.70007-1.4398-0.46672-0.39998-1.0468-0.72-1.7401-0.96008-0.69337-0.24007-1.4468-0.53995-2.2601-0.89966-0.8134-0.35969-1.5668-0.73953-2.2601-1.1395-0.69336-0.39997-1.2734-0.99343-1.7401-1.7804-0.46672-0.78694-0.70007-1.7004-0.70007-2.7405 0-1.84 0.72001-3.2666 2.16-4.2798 1.44-1.0132 3.1468-1.5198 5.1202-1.5198 2.3462 2e-5 4.386 0.61322 6.1194 1.8396l-1.5991 3.4009c-1.4136-1.014-2.8536-1.521-4.3201-1.521-0.79998 2e-5 -1.4067 0.20001-1.8201 0.59998-0.41342 0.4-0.62012 0.85349-0.62012 1.3605 0 0.55991 0.31331 1.0533 0.93994 1.4801 0.62662 0.42686 1.38 0.80019 2.2601 1.12 0.88011 0.31983 1.76 0.69317 2.6398 1.12 0.8797 0.42685 1.6329 1.0535 2.2595 1.8799 0.62661 0.82642 0.93992 1.8264 0.93994 2.9999-2e-5 2.0264-0.73325 3.5929-2.1997 4.6997-1.4665 1.1068-3.2931 1.6602-5.4797 1.6602-1.0938 0-2.3006-0.19328-3.6206-0.57984-1.32-0.38655-2.3397-0.84635-3.0591-1.3794z"/><path d="m171.43 108.52h4.8853v20.411c0 1.8747 0.07 3.9878 0.38795 5.4696h-4.8806c-0.28061-1.4819-0.39255-3.595-0.39255-5.4696v-20.411z"/><g transform="translate(159.4 -38.615)"><path d="m29.505 152.44c-2.2234 0-3.7557 0.6911-5.2289 1.8187-2.3144 1.7687-3.6375 4.7151-3.6375 8.298 0 3.2783 1.1231 6.0792 3.0691 7.8433 1.5414 1.4277 3.2374 2.1598 5.6836 2.1598 1.9188 0 4.3695-0.96392 5.9109-2.9554 0.06363 0.91391 0.18642 1.8188 0.34103 2.5008h4.6605c-0.29529-1.4414-0.34103-3.4601-0.34103-5.3425v-13.868h-4.7742v2.5007c-1.214-1.7505-3.2783-2.9554-5.6836-2.9554zm1.023 4.4332c1.6096 0 2.7781 0.43647 3.6375 1.3641 0.86848 0.98669 1.3641 2.469 1.3641 4.3195 0 1.8233-0.49563 3.2328-1.3641 4.2059-0.85933 0.92753-2.0279 1.4777-3.6375 1.4777-1.5732 0-2.7872-0.55017-3.6375-1.4777-0.86842-0.93663-1.2504-2.3826-1.2504-4.2059 0-1.8506 0.38179-3.3692 1.2504-4.3195 0.85028-0.92754 2.0643-1.3641 3.6375-1.3641z"/><path d="m59.946 172.1c-0.29082-1.4414-0.39124-3.4966-0.39124-5.3198v-4.0513c0-2.3826-0.16355-3.8557-1.0912-4.797-0.91848-0.83661-1.7551-1.114-3.1192-1.114-1.4414 0-2.6918 0.41808-3.7648 1.5505-1.0958 1.2049-1.214 2.96-1.214 5.4198v8.3117h-4.7515v-13.777c0-1.8551-0.13621-3.924-0.37732-5.3744h4.6241c0.18642 0.70478 0.42305 1.9233 0.50468 2.8509h0.05021c0.87757-1.7323 3.251-3.3101 6.2474-3.3101 2.5371 0 4.4013 0.90934 5.5199 2.0597 1.4505 1.496 2.1234 3.3511 2.1234 7.3614v4.8697c0 1.8232 0.11832 3.8785 0.37732 5.3198h-4.7378z"/></g><path d="m241.44 108.22v8.5257c-1.1922-1.7425-3.3248-2.9197-5.7362-2.9197-2.209 0-3.6128 0.71006-5.0614 1.8686-2.3125 1.7892-3.5992 4.8445-3.5992 8.5257 0 3.3729 1.1022 6.3254 3.0369 8.1754 1.5476 1.4295 3.1628 2.1022 5.6238 2.1022 1.9346 0 4.3146-0.99037 5.8487-3.0366 0.0443 0.93899 0.11707 1.8687 0.2248 2.5694h4.724c-0.25627-1.4809-0.33744-3.6158-0.33744-5.4891v-20.322h-4.7239zm-5.7362 10.161c0.34728-0.0659 0.73105 0 1.1247 0 1.5702 0 2.7579 0.48114 3.5992 1.4015 0.85027 1.0091 1.3497 2.5367 1.3497 4.438 0 1.9294-0.49942 3.3262-1.3497 4.3213-0.84135 0.9203-2.0291 1.5182-3.5992 1.5182-1.5747 0-2.7939-0.59795-3.5992-1.5182-0.84134-0.99507-1.2373-2.4059-1.2373-4.3213 0-1.92 0.39598-3.429 1.2373-4.438 0.60394-0.69024 1.432-1.2046 2.4745-1.4015z"/><path d="m249.75 132.54 1.5991-3.5608c1.7602 1.1735 3.4538 1.7603 5.0806 1.7602 0.90656 1e-5 1.6333-0.18656 2.1802-0.55969 0.54687-0.37312 0.8203-0.89335 0.82031-1.5607-1e-5 -0.55989-0.23336-1.0398-0.70007-1.4398-0.46672-0.39998-1.0468-0.72-1.7401-0.96008-0.69337-0.24007-1.4468-0.53995-2.2601-0.89966-0.8134-0.35969-1.5668-0.73953-2.2601-1.1395-0.69336-0.39997-1.2734-0.99343-1.7401-1.7804-0.46672-0.78694-0.70007-1.7004-0.70007-2.7405 0-1.84 0.72001-3.2666 2.16-4.2798 1.44-1.0132 3.1468-1.5198 5.1202-1.5198 2.3462 2e-5 4.386 0.61322 6.1194 1.8396l-1.5991 3.4009c-1.4136-1.014-2.8536-1.521-4.3201-1.521-0.79998 2e-5 -1.4067 0.20001-1.8201 0.59998-0.41342 0.4-0.62012 0.85349-0.62012 1.3605 0 0.55991 0.31331 1.0533 0.93994 1.4801 0.62662 0.42686 1.38 0.80019 2.2601 1.12 0.88011 0.31983 1.76 0.69317 2.6398 1.12 0.8797 0.42685 1.6329 1.0535 2.2595 1.8799 0.62661 0.82642 0.93992 1.8264 0.93994 2.9999-2e-5 2.0264-0.73325 3.5929-2.1997 4.6997-1.4665 1.1068-3.2931 1.6602-5.4797 1.6602-1.0938 0-2.3006-0.19328-3.6206-0.57984-1.32-0.38655-2.3397-0.84635-3.0591-1.3794z"/></g><path d="m1626.7-648.99c-1.4162 0.0179-2.8546 5e-3 -4.2944-0.0383-18.263-0.55584-34.362-6.186-47.583-16.641-7.2449-5.7284-14.799-15.124-19.171-23.811-11.785-23.415-11.982-55.166-0.4985-78.641 3.939-8.0522 7.8994-13.601 14.11-19.823 12.571-12.595 28.205-19.612 48.35-21.664 3.0935-0.31509 17.156 0.0859 20.283 0.57507 17.303 2.7117 31.204 9.2987 42.292 20.015 12.898 12.465 20.319 27.811 23.006 47.583 0.6899 5.0791 0.7696 17.883 0.1533 22.929-2.4283 19.883-10.155 36.206-22.967 48.58-13.931 13.454-32.438 20.666-53.68 20.935zm-0.6518-28.872c3.9285-0.0352 7.8441-0.42108 11.388-1.1503 18.441-3.7942 30.208-16.618 33.626-36.656 1.3621-7.9794 1.3618-19.343 0-27.415-3.7177-22.037-17.67-35.327-39.378-37.576-3.4322-0.35557-9.6196-0.33005-13.113 0.038-11.138 1.1752-19.946 5.122-26.84 12.04-6.7891 6.8124-10.736 15.328-12.615 27.3-0.7933 5.0554-0.7878 18.414 0 23.657 0.6751 4.5011 2.0218 9.7872 3.2974 12.998 4.7375 11.926 13.358 20.209 25.23 24.194 5.2217 1.7532 11.857 2.6276 18.404 2.569z" fill="#fff"/><path d="m1958.5-649.11c-8.5793 0.0242-10.91-0.17144-17.216-1.4187-26.693-5.2796-47.271-23.567-55.904-49.615-3.991-12.043-5.546-24.733-4.5244-37.269 2.2378-27.46 14.536-48.777 35.352-61.348 9.8161-5.9277 19.87-9.1146 34.393-10.851 0.5968-0.0712 5.1406-0.0871 10.084-0.038 7.0768 0.0699 10.046 0.23361 14.072 0.76685 18.094 2.3941 33.809 7.8409 46.471 16.066 3.3698 2.1887 6.8634 4.7731 6.8634 5.0995 0 0.14-2.6113 5.0579-5.7898 10.928l-5.7897 10.659-1.6871-1.1119c-23.313-14.913-57.601-18.933-78.142-9.2022-12.804 6.0651-20.251 16.576-23.082 32.591l-0.1917 0.99691h119.63l0.1533 0.69017c0.9223 3.9504 1.333 14.802 0.8052 21.165-0.7497 9.028-1.9705 15.206-4.5244 22.967-7.9562 24.18-25.636 40.583-50.229 46.625-7.2688 1.7857-11.502 2.2747-20.743 2.3006zm-2.5307-28.527c4.5402 0.0845 9.6992-0.17984 12.768-0.72851 8.9526-1.6003 15.712-4.7864 21.434-10.084 6.8138-6.3082 11.17-15.896 11.771-25.958l0.1917-3.3358h-88.802l0.1917 1.8404c0.7088 6.7802 3.4587 14.393 7.3618 20.322 2.2592 3.4315 7.4816 8.6034 11.043 10.928 4.8826 3.1855 10.627 5.3505 17.101 6.4799 1.686 0.29431 4.2159 0.48605 6.94 0.5368z" fill="#fff"/><path d="m1749.1-767.69c0 23.413 0.1231 39.615 0.3197 42.072 1.2576 15.693 5.2579 25.813 13.471 34.079 8.7307 8.7861 20.473 12.957 35.021 12.441 11.66-0.41365 19.791-3.6206 26.193-10.33 5.0258-5.2678 8.0138-11.424 9.7577-20.104 1.2739-6.3429 1.4002-9.2518 1.5675-36.263 0.2187-35.192 0.804-46.616 2.9812-58.188l0.336-1.7824h30.182l-0.5651 3.4869c-0.5872 3.6195-1.2313 9.4693-1.8334 16.658-0.2096 2.5063-0.4472 17.851-0.592 38.275-0.2381 33.7-0.3208 36.283-1.4094 44.009-1.6217 11.516-5.4901 22.005-10.908 29.579-4.4534 6.2258-11.832 12.941-18.19 16.556-15.944 9.066-37.536 10.792-55.959 4.4715-6.6798-2.291-12.792-5.6648-18.16-10.024-3.3675-2.7345-8.3668-7.8601-10.49-10.755-0.8421-1.149-1.6136-2.089-1.7145-2.089-0.1003 0-0.3496 1.5693-0.5536 3.4869-0.5806 5.4621-1.8326 12.263-3.1955 17.355l-0.3117 1.1623h-29.64l0.3907-2.247c1.3215-7.6083 2.2057-17.988 2.6186-30.756 0.1657-5.1156 0.3031-34.021 0.306-64.235v-54.934h30.372v38.076z" fill="#fff"/><path d="m1235-653.33v-76.793h81.734v76.793h-81.734zm21.332-10.778h10.778c9.7386 0 11.089-0.12215 13.248-0.67543 6.9852-1.7863 11.518-6.6443 11.901-12.799 0.3255-5.2274-1.4955-8.8473-5.6136-11.452l-1.3472-0.89817 1.5718-0.44549c3.9925-1.4062 7.2673-4.3895 8.9817-7.8594 1.1441-2.3151 1.3472-2.3058 1.3472-5.8381 0-3.5266-0.2148-3.7723-1.3472-6.0623-2.551-5.162-6.9978-7.9046-14.146-8.9817-2.1606-0.32334-5.9507-0.44549-14.146-0.45268h-11.227v55.462zm9.8799-8.7575v-14.146h3.5926c1.9176 3e-3 4.2566 0.20838 5.3891 0.44549 4.9867 1.057 7.0583 3.4023 6.7362 7.8594-0.1782 2.4531-0.9711 3.9203-3.1436 4.9392-1.6224 0.76022-2.1776 0.80189-7.1853 0.89817h-5.389zm0-22.903v-15.045h5.389c2.9406 4e-3 6.2354 0.0719 7.4099 0.22275 5.1695 0.74728 8.0835 3.3599 8.0835 7.4103 0 2.5623-1.007 4.1007-3.1436 5.389-2.5738 1.552-4.8926 2.0212-11.676 2.0212h-6.0626z" fill="#c80201"/><path d="m1329.1-653.33v-76.793h82.182v76.793h-82.182zm21.781-10.778h10.554c11.969-6e-3 13.513-0.15808 17.29-2.0205 5.6992-2.8159 8.779-8.4406 7.859-14.371-0.1926-1.2424-0.5755-2.8648-0.8982-3.5927-0.7113-1.6088-3.0028-4.1395-4.4908-4.9406-1.1268-0.60357-1.4238-1.1224-0.6733-1.1224 1.0379 0 5.3701-2.5134 6.9608-4.0418 3.5039-3.3671 5.0187-8.736 3.8173-13.248-1.4962-5.6211-5.8293-9.4796-12.574-11.228-2.3535-0.61075-3.6327-0.77386-15.269-0.89817h-12.574v55.462zm9.8799-8.7575v-14.371l4.4909 0.22275c2.624 0.10059 4.9454 0.39519 5.8381 0.67542 3.6397 1.1454 5.4263 3.3247 5.389 6.9612-0.022 2.2828-0.5792 3.5029-2.0209 4.715-1.6107 1.3559-3.708 1.7963-8.9817 1.7963h-4.7154zm0-22.903v-15.269l6.7363 0.22275c5.7077 0.12215 6.6937 0.079 8.5326 0.67542 5.2445 1.6986 7.146 7.4354 3.8172 11.226-2.1838 2.4869-5.1045 3.1364-13.248 3.1443h-5.8381z" fill="#c80201"/><path d="m1423.6-653.33v-76.793h81.958v76.793h-81.958zm42.663-10.104c5.9559 0.33052 11.824-0.56765 19.086-3.1443l3.3681-1.3465v-5.1648c0-2.7944 0.065-4.9399 0-4.9399s-1.8785 0.64668-3.8172 1.5714c-6.8918 3.2794-11.427 4.5009-17.739 4.2667-3.3044-0.12215-4.4638-0.28022-6.9608-1.1224-3.775-1.2761-6.2036-2.8131-8.7572-5.389-3.4617-3.4921-5.1729-8.0519-5.1645-13.248 0.014-5.5184 1.7138-9.632 5.3891-13.248 4.1239-4.0561 9.4869-6.0307 16.392-6.0623 6.1191 0 11.26 1.3336 17.739 4.7158l3.5927 1.7963v-10.33l-2.0209-1.1224c-5.8129-2.6787-10.797-3.6523-17.963-3.8169-2.8981-0.0719-6.1128-0.1509-7.1853 0-11.172 1.5736-20.21 8.1575-24.251 17.738-2.4239 5.7483-2.654 12.475-0.6733 18.637 3.1615 9.8375 12.033 17.356 22.903 19.536 2.052 0.40956 4.0774 0.56764 6.0627 0.67542z" fill="#c80201"/></g></svg>
