<?xml version="1.0" encoding="UTF-8"?>
<!-- Created with Inkscape (http://www.inkscape.org/) -->
<svg id="svg5480" width="816.42" height="588.95" hola_ext_inject="disabled" version="1.1" xmlns="http://www.w3.org/2000/svg" xmlns:cc="http://creativecommons.org/ns#" xmlns:dc="http://purl.org/dc/elements/1.1/" xmlns:rdf="http://www.w3.org/1999/02/22-rdf-syntax-ns#">
 <metadata id="metadata5485">
  <rdf:RDF>
   <cc:Work rdf:about="">
    <dc:format>image/svg+xml</dc:format>
    <dc:type rdf:resource="http://purl.org/dc/dcmitype/StillImage"/>
    <dc:title/>
   </cc:Work>
  </rdf:RDF>
 </metadata>
 <g id="layer1" transform="translate(2.8773 -34.717)">
  <path id="path5550" d="m161.65 552.91c-1.6079-2.0317-3.7883-3.5349-6.5413-4.5095-2.7531-0.97447-5.3587-1.4617-7.817-1.4618-1.4399 6e-5 -2.9217 0.1693-4.4455 0.50794-1.5239 0.3387-2.9637 0.86799-4.3195 1.5878-1.3558 0.71997-2.4571 1.6732-3.3036 2.8596-0.84662 1.1866-1.2699 2.6264-1.2699 4.3195-4e-5 2.7117 1.0165 4.7874 3.0496 6.2272 2.0331 1.4399 4.5954 2.6678 7.6871 3.6836 3.0916 1.0159 6.4159 2.0325 9.9729 3.0496 3.5569 1.0172 6.8812 2.4571 9.9728 4.3195 3.0916 1.8625 5.6539 4.3609 7.6871 7.4952 2.033 3.1343 3.0496 7.3278 3.0496 12.58-6e-5 4.9968-0.93196 9.359-2.7957 13.086-1.8638 3.7275-4.3835 6.8192-7.5591 9.2749-3.1757 2.4557-6.8599 4.2769-11.053 5.4634-4.1929 1.1865-8.6197 1.7798-13.28 1.7798-5.8446 0-11.265-0.88924-16.262-2.6677-4.9968-1.7785-9.6549-4.6594-13.974-8.6429l14.102-15.498c2.0318 2.7091 4.5935 4.8048 7.6851 6.2873 3.0916 1.4825 6.2892 2.2238 9.5929 2.2237 1.6104 4e-5 3.2415-0.19058 4.8934-0.57191 1.6517-0.38127 3.1342-0.95318 4.4474-1.7158 1.3131-0.76256 2.3717-1.7364 3.1757-2.9217 0.80389-1.1852 1.2058-2.583 1.2059-4.1935-6e-5 -2.709-1.0373-4.8474-3.1117-6.4153-2.0745-1.5678-4.6788-2.9023-7.8131-4.0035-3.1343-1.1012-6.5226-2.2024-10.165-3.3036-3.6422-1.1012-7.0305-2.583-10.165-4.4455-3.1343-1.8624-5.7393-4.3188-7.8151-7.3691-2.0757-3.0502-3.1136-7.0737-3.1136-12.071 0-4.8287 0.95321-9.0642 2.8596-12.706 1.9064-3.6422 4.4474-6.6911 7.6231-9.147 3.1756-2.4557 6.8392-4.2981 10.991-5.5274 4.1515-1.2291 8.4296-1.8436 12.834-1.8437 5.082 1e-4 9.9948 0.72067 14.738 2.1617 4.7434 1.4412 9.0202 3.8549 12.831 7.2412z" fill="#fff"/>
  <path id="path5552" d="m229.52 579.08c-0.93063-1.3545-2.2432-2.4764-3.9376-3.3656-1.6945-0.88921-3.515-1.3338-5.4614-1.3338-4.8288 3e-5 -8.5776 1.4399-11.247 4.3195-2.669 2.8797-4.0035 6.6486-4.0035 11.307-3e-5 4.6607 1.3345 8.4309 4.0035 11.311 2.669 2.8797 6.4178 4.3195 11.247 4.3195 2.1171 3e-5 3.9375-0.46592 5.4614-1.3978 1.5238-0.93186 2.8363-2.0337 3.9376-3.3055l12.579 13.214c-2.9624 3.0503-6.4554 5.1893-10.479 6.4172-4.0236 1.2279-7.8564 1.8418-11.499 1.8418-4.7435 0-9.2116-0.7619-13.404-2.2858-4.1929-1.5239-7.8358-3.7049-10.929-6.5432-3.0929-2.8383-5.5286-6.2479-7.3071-10.229-1.7785-3.9809-2.6677-8.4283-2.6677-13.342-3e-5 -4.9114 0.88921-9.3576 2.6677-13.339 1.7784-3.9808 4.2142-7.3904 7.3071-10.229 3.0929-2.8383 6.7358-5.0194 10.929-6.5432 4.1928-1.5238 8.6609-2.2857 13.404-2.2858 3.6422 6e-5 7.475 0.614 11.499 1.8418 4.0235 1.2279 7.5164 3.3657 10.479 6.4133z" fill="#fff"/>
  <path id="path5554" d="m246.73 590.01c0-4.9114 0.88924-9.3576 2.6677-13.339 1.7784-3.9808 4.2135-7.3904 7.3051-10.229 3.0916-2.8383 6.7339-5.0194 10.927-6.5432 4.1928-1.5238 8.6609-2.2857 13.404-2.2858 4.7434 6e-5 9.2115 0.76199 13.404 2.2858 4.1928 1.5239 7.835 3.705 10.927 6.5432 3.0916 2.8384 5.5273 6.2479 7.3071 10.229 1.7797 3.9809 2.6696 8.4271 2.6696 13.339-7e-5 4.914-0.88994 9.3615-2.6696 13.342-1.7798 3.9809-4.2155 7.3905-7.3071 10.229-3.0917 2.8383-6.7339 5.0194-10.927 6.5432-4.1929 1.5238-8.661 2.2858-13.404 2.2858-4.7435 0-9.2116-0.7619-13.404-2.2858-4.1928-1.5239-7.8351-3.7049-10.927-6.5432-3.0916-2.8383-5.5267-6.2479-7.3051-10.229-1.7785-3.9809-2.6677-8.4283-2.6677-13.342zm19.058 0c-3e-5 4.6607 1.3338 8.4309 4.0015 11.311 2.6677 2.8797 6.4159 4.3195 11.245 4.3195 4.8287 3e-5 8.5769-1.4398 11.245-4.3195 2.6677-2.8796 4.0015-6.6498 4.0016-11.311-7e-5 -4.6581-1.3339-8.427-4.0016-11.307-2.6678-2.8796-6.416-4.3195-11.245-4.3195-4.8288 3e-5 -8.577 1.4399-11.245 4.3195-2.6677 2.8797-4.0016 6.6486-4.0015 11.307z" fill="#fff"/>
  <path id="path5556" d="m368.5 574.38h-16.77v20.582c-3e-5 1.6958 0.0845 3.2422 0.25412 4.6394 0.1693 1.3972 0.5499 2.6038 1.1419 3.6196 0.59193 1.0159 1.5025 1.7992 2.7317 2.3497 1.2291 0.55063 2.8596 0.82593 4.8914 0.8259 1.0159 3e-5 2.3497-0.10545 4.0015-0.31605 1.6518-0.2106 2.9016-0.69726 3.7495-1.4598v15.882c-2.1172 0.76256-4.3195 1.2705-6.6072 1.5239-2.2877 0.25316-4.5328 0.37996-6.7352 0.37996-3.2183 0-6.1826-0.33861-8.893-1.0159-2.7104-0.67728-5.0821-1.7571-7.1152-3.2396-2.0331-1.4825-3.6216-3.4096-4.7654-5.7813-1.1439-2.3717-1.7158-5.252-1.7158-8.6409v-29.349h-12.195v-15.246h12.195v-18.298h19.062v18.298h16.77z" fill="#fff"/>
  <path id="path5558" d="m378.31 524.83h19.058v96.057h-19.058z" fill="#fff"/>
  <path id="path5560" d="m449.82 613.13h-0.25602c-2.1172 3.3036-4.9335 5.6754-8.449 7.1152-3.5156 1.4398-7.2212 2.1597-11.117 2.1597-2.8797 0-5.6534-0.40194-8.321-1.2059-2.6677-0.80396-5.0181-2.0111-7.0512-3.6216-2.0331-1.6104-3.6429-3.6015-4.8294-5.9732-1.1865-2.3717-1.7798-5.1241-1.7798-8.2571 0-3.5569 0.65656-6.5639 1.9698-9.021 1.3131-2.457 3.0922-4.4901 5.3373-6.0992 2.2451-1.6091 4.8074-2.8583 7.6871-3.7476 2.8796-0.88921 5.8653-1.5458 8.957-1.9698 3.0916-0.42389 6.1833-0.67788 9.2749-0.76193 3.0916-0.0838 5.9506-0.1261 8.577-0.1261-6e-5 -3.3889-1.2072-6.0785-3.6216-8.069-2.4144-1.9904-5.2734-2.9856-8.577-2.9857-3.133 6e-5 -5.9914 0.65666-8.575 1.9698-2.5837 1.3132-4.8914 3.1124-6.9232 5.3974l-10.167-10.419c3.5569-3.3035 7.7071-5.7806 12.451-7.4312 4.7434-1.6504 9.6562-2.4757 14.738-2.4758 5.5913 6e-5 10.187 0.69866 13.786 2.0958 3.5996 1.3972 6.4798 3.451 8.641 6.1613 2.161 2.7104 3.6648 6.0347 4.5114 9.9729 0.84652 3.9382 1.2698 8.4911 1.2699 13.658v31.384h-17.534zm-4.6995-19.314c-1.4425 3e-5 -3.2435 0.0642-5.4033 0.19185-2.1598 0.12801-4.2349 0.48797-6.2253 1.0799-1.9905 0.59199-3.6843 1.4812-5.0814 2.6677-1.3972 1.1866-2.0958 2.8384-2.0958 4.9554-4e-5 2.2877 0.97386 3.9822 2.9217 5.0834 1.9478 1.1012 3.9802 1.6518 6.0973 1.6518 1.8637 3e-5 3.6642-0.25412 5.4013-0.7619 1.7371-0.50794 3.2829-1.2279 4.6374-2.1598 1.3545-0.93186 2.4344-2.1177 3.2396-3.5576 0.80516-1.4398 1.2078-3.1343 1.2078-5.0834v-4.0675z" fill="#fff"/>
  <path id="path5562" d="m479.31 559.13h18.294v8.3831h0.25602c0.59193-1.1839 1.4385-2.3691 2.5397-3.5556 1.1012-1.1865 2.4143-2.2457 3.9395-3.1776 1.5251-0.93183 3.2616-1.6937 5.2094-2.2858 1.9478-0.59193 4.0655-0.88791 6.3532-0.88797 4.8287 6e-5 8.7249 0.74068 11.689 2.2218 2.9636 1.4812 5.2714 3.535 6.9232 6.1613 1.6517 2.6264 2.7743 5.7187 3.3676 9.2769 0.59317 3.5583 0.88981 7.4118 0.88988 11.561v34.052h-19.058v-30.24c-3e-5 -1.7784-0.0632-3.6202-0.18995-5.5254-0.12674-1.9051-0.50801-3.6629-1.1439-5.2734-0.63595-1.6104-1.6105-2.9236-2.9236-3.9395-1.3132-1.0159-3.1976-1.5238-5.6533-1.5238-2.4558 3e-5 -4.4462 0.44463-5.9713 1.3338-1.5252 0.88927-2.6897 2.0751-3.4936 3.5576-0.80395 1.4825-1.3332 3.1556-1.5878 5.0194-0.25475 1.8638-0.38197 3.8116-0.38194 5.8434v30.748h-19.058z" fill="#fff"/>
  <path id="path5564" d="m617.06 620.88h-17.534v-8.1311h-0.25189c-0.76262 1.1012-1.7578 2.2238-2.9856 3.3676-1.2279 1.1439-2.6678 2.1811-4.3195 3.1117-1.6519 0.9306-3.473 1.6925-5.4634 2.2858-1.9905 0.59326-4.0456 0.88987-6.1652 0.88987-4.5729 0-8.7231-0.78324-12.451-2.3497-3.7276-1.5665-6.9252-3.7689-9.5929-6.6072-2.6677-2.8383-4.7215-6.2052-6.1613-10.101-1.4398-3.8955-2.1598-8.1737-2.1598-12.834 0-4.3195 0.6566-8.4483 1.9698-12.387 1.3132-3.9382 3.1763-7.4318 5.5894-10.481 2.4131-3.0489 5.356-5.484 8.829-7.3051 3.4729-1.821 7.4118-2.7316 11.817-2.7317 3.9808 6e-5 7.687 0.614 11.119 1.8418 3.4315 1.2279 6.2485 3.3244 8.451 6.2893h0.25189v-40.915h19.058zm-17.534-30.876c-6e-5 -4.6581-1.3339-8.427-4.0016-11.307-2.6678-2.8796-6.416-4.3195-11.245-4.3195-4.8288 3e-5 -8.577 1.4399-11.245 4.3195-2.6677 2.8797-4.0016 6.6486-4.0015 11.307-3e-5 4.6607 1.3338 8.4309 4.0015 11.311 2.6677 2.8797 6.4159 4.3195 11.245 4.3195 4.8287 3e-5 8.5769-1.4398 11.245-4.3195 2.6677-2.8796 4.0015-6.6498 4.0016-11.311z" fill="#fff"/>
  <path id="path27227" d="m448.55 35.217h126.67v119.2h-126.67v-119.2zm79.801 16.589c-0.572-0.0715-1.1441-0.17877-1.7162-0.25025l-0.67927-0.10724c-0.96535-0.14301-1.9664-0.25025-2.9317-0.35755-0.67937-0.036-1.3586-0.10724-2.038-0.14301-1.1798-0.0715-2.3954-0.10724-3.5038-0.10724-0.53633 0-0.85813 0-1.3586 0.036-0.92958 0-1.8592 0.036-2.7887 0.10725-0.53633 0.036-1.0368 0.0715-1.5731 0.10724-0.75082 0.0715-1.5017 0.14301-2.2167 0.25026l-0.60778 0.0715-0.67937 0.10724-0.85803 0.14301c-0.35772 0.0715-0.71504 0.10725-1.0726 0.17878-0.50051 0.10724-1.0011 0.21453-1.5016 0.32178-2.9675 0.6078-5.7563 1.4659-8.3304 2.467-1.3229 0.50054-2.61 1.0726-3.8256 1.6446-1.0011 0.50055-1.9306 1.0011-2.896 1.5731-0.89381 0.50054-1.7519 1.0368-2.61 1.5731-0.46454 0.32178-0.92958 0.64355-1.3944 1.0011-0.39309 0.28602-0.78657 0.57205-1.1798 0.85808-0.78657 0.6078-1.5731 1.2514-2.2882 1.8949-0.67932 0.57205-1.3586 1.2156-1.9307 1.8234-0.53626 0.50054-1.0726 1.0368-1.5731 1.6089-0.50051 0.57205-1.0368 1.1441-1.5016 1.7519-0.53627 0.64355-1.0368 1.3229-1.5374 2.0022-0.39309 0.50054-0.71504 1.0368-1.0726 1.5374-0.25025 0.35755-0.46453 0.71506-0.67933 1.1083-1.3228 2.1452-2.5027 4.4691-3.4322 6.9361-1.1799 3.0748-2.0379 6.364-2.5385 9.9036-0.14283 1.1084-0.25025 2.2167-0.32169 3.3965-0.0351 0.85807-0.0714 1.7519-0.0714 2.6815 0 0.64356 0 1.3229 0.0351 2.0022s0.10742 1.3586 0.17881 2.0379l0.0351 0.50056c0.14284 0.78657 0.25026 1.5731 0.3931 2.3597 0.0714 0.3218 0.10741 0.6078 0.17881 0.92958 0.14283 0.64355 0.3217 1.2871 0.46503 1.9307 0.25026 0.82232 0.46504 1.6089 0.7151 2.3954 0.35767 0.96534 0.67928 1.9307 1.0726 2.8245 0.6078 1.4659 1.2871 2.8602 2.0022 4.1831 0.42907 0.78657 0.85806 1.5374 1.3228 2.2524 0.35762 0.6078 0.71504 1.1441 1.1084 1.6804 0.50056 0.71506 1.0011 1.4301 1.5016 2.0737 0.53632 0.67931 1.1084 1.3586 1.6447 1.9664 0.67928 0.78656 1.3228 1.4659 2.0022 2.1094l0.35767 0.35757c0.53633 0.5363 1.1441 1.1084 1.8234 1.6804 0.46454 0.39324 0.92958 0.82231 1.4301 1.2156 0.50056 0.35757 1.0011 0.78657 1.5374 1.1441 0.64357 0.46478 1.3229 0.92958 2.0379 1.3944 0.7508 0.50056 1.5374 0.96534 2.3955 1.4301 1.6804 0.96534 3.5038 1.8592 5.5417 2.6815 0.75081 0.28603 1.5374 0.57205 2.3596 0.85807 0.82234 0.28603 1.6447 0.5363 2.5027 0.78658 1.4301 0.42901 2.9675 0.78656 4.5764 1.1083 1.3229 0.25025 2.6457 0.42901 4.0401 0.6078 1.3944 0.17876 2.8245 0.3218 4.3261 0.39329 0.7151 0.0361 1.4301 0.0361 2.181 0.0715h1.0368c2.6815 0 5.1127-0.10726 7.4366-0.28602l0.42887-0.0361c0.89385-0.10727 1.7877-0.17877 2.6457-0.28603 1.2871-0.17876 2.5385-0.35757 3.7184-0.57205 0.75076-0.14299 1.4658-0.28603 2.1809-0.42902 1.1084-0.21453 2.1094-0.50056 3.1105-0.75081 0.75081-0.17876 1.4301-0.39324 2.1094-0.6078 0.82236-0.25026 1.609-0.50056 2.3598-0.75082l0.71505-0.25025c0.35772-0.14299 0.85808-0.3218 1.4301-0.5363 0.75077-0.28602 1.6804-0.64355 2.7172-1.1083 0.6435-0.25025 1.3229-0.57205 2.0022-0.89383 0.60778-0.28602 1.287-0.57204 1.9306-0.89382 0.25-0.14299 0.53628-0.28603 0.8223-0.42901v-16.232c-0.17886 0.10722-0.39329 0.21453-0.57205 0.35757l-1.1083 0.64355c-1.1441 0.67931-2.1809 1.3229-3.2535 1.9307-1.2156 0.6078-2.3597 1.2156-3.5038 1.7519-2.0022 0.92957-3.9328 1.7519-5.792 2.3954-3.5395 1.2871-6.7931 2.1094-9.6534 2.61-0.35772 0.0361-0.67927 0.10726-1.001 0.14299-0.82236 0.14299-1.5732 0.21453-2.2882 0.3218-1.1441 0.10726-2.1809 0.17876-3.1463 0.21453-0.60778 0.0361-1.2156 0.0361-1.7161 0.0361-1.1798 0-2.3597 0-3.5396-0.10721-1.4301-0.10727-2.8602-0.25026-4.3261-0.50056-2.3598-0.39325-4.7194-1.0011-7.0076-1.8234-0.35773-0.14299-0.7151-0.28602-1.0369-0.39324-0.21443-0.10727-0.42886-0.17876-0.67927-0.28603-0.35772-0.14299-0.75081-0.3218-1.1083-0.50056-0.78659-0.35752-1.5732-0.78656-2.3597-1.2156-0.35762-0.21453-0.7508-0.42901-1.144-0.67931-0.39309-0.25025-0.78657-0.50056-1.1441-0.75081-0.46453-0.3218-0.92958-0.67931-1.3944-1.0368-0.42907-0.35757-0.89382-0.71506-1.2871-1.0368l-0.53627-0.50056-0.25026-0.25026-0.17881-0.14298-0.17881-0.17877c-0.75081-0.7508-1.3944-1.4659-2.0379-2.2167-0.3217-0.3933-0.64357-0.82232-0.96535-1.2156-0.28622-0.42902-0.57203-0.82232-0.82228-1.2156-0.25026-0.39324-0.50056-0.78657-0.7151-1.1441-0.3217-0.57205-0.64356-1.1798-0.92958-1.7161-0.25025-0.50056-0.46453-0.96533-0.64356-1.4659-0.35762-0.82233-0.67928-1.6446-0.89381-2.4312-0.21429-0.60781-0.3931-1.2156-0.50056-1.7876-0.46454-1.7162-0.67928-3.2535-0.78652-4.5764-0.0715-0.50056-0.0715-0.96533-0.10742-1.3944-0.0351-0.67931-0.0351-1.2156-0.0351-1.6804v-1.0368c0.0351-0.92958 0.10741-2.1094 0.3217-3.468 0.10736-0.78656 0.28622-1.6446 0.50056-2.5742 0.14284-0.60781 0.3217-1.2156 0.50056-1.8592 0.17881-0.57205 0.39309-1.1798 0.60779-1.7519 0.14284-0.42903 0.3217-0.82232 0.53627-1.2156 0.21429-0.57205 0.46454-1.1084 0.75086-1.6446 0.21428-0.42902 0.46504-0.85807 0.71504-1.2871 0.53627-0.89383 1.1441-1.8234 1.8234-2.753 0.25025-0.32178 0.50056-0.64355 0.7508-0.96533 0.35762-0.42902 0.7151-0.82232 1.1084-1.2514 0.17881-0.21454 0.35767-0.42903 0.57203-0.60781 3.0033-3.0032 6.3283-5.2199 9.7963-6.8288 0.53628-0.21454 1.1084-0.42903 1.6446-0.67931 0.5721-0.21454 1.1084-0.39326 1.6447-0.57204 0.60783-0.21454 1.2514-0.39332 1.8234-0.57205 0.572-0.14301 1.1441-0.28602 1.7162-0.42903 0.57201-0.143 1.1441-0.25025 1.7161-0.35754 0.64355-0.10725 1.2513-0.21454 1.8592-0.28602 0.6435-0.0715 1.287-0.14301 1.8949-0.21454 1.1799-0.10724 2.3597-0.14301 3.468-0.14301h1.1441c0.85813 0.036 1.6447 0.036 2.467 0.10725 0.5721 0.036 1.1083 0.0715 1.6447 0.10725 1.0011 0.10724 2.0022 0.25025 2.9318 0.39331 0.85803 0.10724 1.6446 0.25025 2.4312 0.39326 1.1441 0.25025 2.2167 0.50054 3.1462 0.75082 0.64355 0.17877 1.2156 0.35754 1.7519 0.50054 0.78659 0.21453 1.4659 0.42902 1.9665 0.6078 0.8938 0.32178 1.3943 0.50054 1.3943 0.50054 0.78659 0.28602 1.5731 0.6078 2.3597 0.89383 1.0368 0.42902 2.0022 0.89382 2.9675 1.2871 0.78653 0.39326 1.5374 0.75081 2.2524 1.0726 0.5721 0.28602 1.1084 0.57205 1.6089 0.82231 0.89386 0.50055 1.6447 0.89384 2.2524 1.2156l1.6804 0.92958v-15.982s-1.0011-0.39331-2.7172-1.0368c-0.78654-0.32178-1.6804-0.64355-2.6815-1.0011-0.57206-0.21454-1.1798-0.42903-1.8234-0.64355-0.50051-0.14301-1.0011-0.35755-1.5731-0.5363-0.57206-0.17878-1.2156-0.39327-1.8591-0.57205-0.46494-0.14301-0.96535-0.32179-1.4301-0.42903l-0.46494-0.14301c-0.46493-0.10724-0.92962-0.25025-1.4301-0.39325-0.57206-0.14301-1.1798-0.32179-1.7519-0.46479-0.39329-0.0715-0.78653-0.17878-1.144-0.25026-0.67932-0.143-1.2872-0.28601-1.9307-0.42902-0.67927-0.14301-1.3586-0.25025-2.0022-0.39326" fill="#005e70"/>
  <g id="g27229" transform="matrix(35.753 0 0 -35.753 351.18 100.97)" fill="#005e70">
   <path id="path27231" d="m0 0v-0.655h0.425s9e-3 0 0.023 1e-3c0.014 0 0.034 1e-3 0.059 3e-3 0.046 4e-3 0.107 0.013 0.166 0.033 0.053 0.018 0.105 0.045 0.145 0.085 0.015 0.015 0.028 0.031 0.038 0.047 0.033 0.052 0.042 0.106 0.044 0.136 1e-3 0.013 1e-3 0.021 1e-3 0.021v0.016c-1e-3 0.013-2e-3 0.037-9e-3 0.063-8e-3 0.031-0.023 0.067-0.05 0.101-5e-3 6e-3 -0.01 0.012-0.016 0.018-0.012 0.012-0.025 0.023-0.039 0.033-0.023 0.017-0.049 0.032-0.078 0.044-0.038 0.017-0.081 0.029-0.128 0.038-0.024 5e-3 -0.05 8e-3 -0.076 0.011-0.016 1e-3 -0.032 2e-3 -0.049 3e-3 -0.014 1e-3 -0.03 2e-3 -0.044 2e-3h-0.412z" fill="#005e70"/>
  </g>
  <g id="g27233" transform="matrix(35.753 0 0 -35.753 351.18 65.357)" fill="#005e70">
   <path id="path27235" d="m0 0v-0.621h0.206s0.014 0 0.032 1e-3c0.014 0 0.031 1e-3 0.046 2e-3 0.043 3e-3 0.101 9e-3 0.16 0.025 0.011 3e-3 0.023 7e-3 0.034 0.011 0.046 0.016 0.09 0.04 0.124 0.074 0.028 0.027 0.046 0.056 0.058 0.085 0.014 0.036 0.019 0.07 0.021 0.094 2e-3 0.022 2e-3 0.035 2e-3 0.035s1e-3 0.01-1e-3 0.027c-1e-3 0.027-7e-3 0.071-0.028 0.113-0.01 0.02-0.024 0.04-0.043 0.059-0.023 0.023-0.052 0.04-0.082 0.054-0.058 0.025-0.124 0.035-0.18 0.039-0.024 2e-3 -0.046 2e-3 -0.065 2e-3h-0.284z" fill="#005e70"/>
  </g>
  <g id="g27237" transform="matrix(35.753 0 0 -35.753 302.57 35.232)" fill="#005e70">
   <path id="path27239" d="m0 0h3.543v-3.334h-3.543v3.334zm0.93-0.467v-2.402h0.903s0.441-0.012 0.685 0.231c0.198 0.199 0.183 0.428 0.183 0.428s0.015 0.239-0.169 0.423c-0.156 0.156-0.356 0.197-0.356 0.197s0.091 0.043 0.16 0.112c0.032 0.032 0.148 0.137 0.148 0.39 0 0.254-0.17 0.401-0.17 0.401s-0.186 0.22-0.605 0.22h-0.779z" fill="#005e70"/>
  </g>
  <g id="g27241" transform="matrix(35.753 0 0 -35.753 205.21 100.97)" fill="#005e70">
   <path id="path27243" d="m0 0v-0.655h0.426s8e-3 0 0.022 1e-3c0.014 0 0.034 1e-3 0.059 3e-3 0.047 4e-3 0.107 0.013 0.166 0.033 0.054 0.018 0.106 0.045 0.145 0.085 0.015 0.015 0.028 0.031 0.039 0.047 0.033 0.052 0.041 0.106 0.043 0.136 1e-3 0.013 1e-3 0.021 1e-3 0.021v0.016c0 0.013-2e-3 0.037-8e-3 0.063-9e-3 0.031-0.024 0.067-0.05 0.101-5e-3 6e-3 -0.011 0.012-0.017 0.018-0.012 0.012-0.024 0.023-0.038 0.033-0.023 0.017-0.05 0.032-0.079 0.044-0.038 0.017-0.081 0.029-0.128 0.038-0.024 5e-3 -0.049 8e-3 -0.075 0.011-0.017 1e-3 -0.033 2e-3 -0.05 3e-3 -0.014 1e-3 -0.03 2e-3 -0.045 2e-3h-0.411z" fill="#005e70"/>
  </g>
  <g id="g27245" transform="matrix(35.753 0 0 -35.753 205.21 65.357)" fill="#005e70">
   <path id="path27247" d="m0 0v-0.621h0.206s0.014 0 0.032 1e-3c0.014 0 0.031 1e-3 0.046 2e-3 0.043 3e-3 0.101 9e-3 0.16 0.025 0.011 3e-3 0.023 7e-3 0.034 0.011 0.046 0.016 0.09 0.04 0.125 0.074 0.027 0.027 0.045 0.056 0.057 0.085 0.015 0.036 0.02 0.07 0.021 0.094 2e-3 0.022 2e-3 0.035 2e-3 0.035s1e-3 0.01 0 0.027c-2e-3 0.027-7e-3 0.071-0.029 0.113-0.01 0.02-0.024 0.04-0.043 0.059-0.023 0.023-0.051 0.04-0.081 0.054-0.058 0.025-0.125 0.035-0.181 0.039-0.024 2e-3 -0.046 2e-3 -0.065 2e-3h-0.284z" fill="#005e70"/>
  </g>
  <path id="path27249" d="m156.63 35.217h126.67v119.2h-126.67v-119.2zm33.215 16.732v85.843h32.321s15.767 0.46479 24.455-8.259c7.0791-7.0791 6.5785-15.267 6.5785-15.267s0.5006-8.5807-6.0422-15.124c-5.5775-5.5775-12.728-7.0791-12.728-7.0791s3.2178-1.5016 5.7205-4.0043c1.1441-1.1441 5.2557-4.8624 5.2557-13.908 0-9.117-6.0423-14.373-6.0423-14.373s-6.6501-7.8299-21.631-7.8299h-27.887z" fill="#005e70"/>
  <g id="g27251" transform="matrix(35.753 0 0 -35.753 62.085 271.35)" fill="#fff">
   <path id="path27253" d="m0 0h-1.803v0.947h4.653v-0.947h-1.803v-4.935h-1.047v4.935z" fill="#fff"/>
  </g>
  <g id="g27255" transform="matrix(35.753 0 0 -35.753 201.7 237.49)" fill="#fff">
   <path id="path27257" d="m0 0h1.146l1.106-4.237h0.016l1.321 4.237h1.03l1.296-4.237h0.017l1.155 4.237h1.064l-1.712-5.883h-0.997l-1.363 4.479h-0.016l-1.363-4.479h-0.964l-1.736 5.883z" fill="#fff"/>
  </g>
  <g id="g27259" transform="matrix(35.753 0 0 -35.753 621.13 419.29)" fill="#fff">
   <path id="path27261" d="m0 0c1.221 0 2.027 0.93 2.027 2.185 0 1.171-0.806 2.102-2.027 2.102-1.213 0-2.019-0.931-2.019-2.102 0-1.255 0.806-2.185 2.019-2.185m-8e-3 5.235c1.836 0.033 3.132-1.197 3.132-3.083 0-1.837-1.296-3.066-3.132-3.099-1.812 0-3.108 1.229-3.108 3.066 0 1.886 1.296 3.116 3.108 3.116" fill="#fff"/>
  </g>
  <path id="path15603" d="m722.56 156.7 12.222-11.285-0.0767 85.228-12.145-12.853v-24.176h-47.931v37.124l-12.203-12.834v-61.166l12.203-11.323v36.876h47.931v-25.591z" fill="#fff"/>
  <path id="path15607" d="m734.71 230.6 12.222-10.883h15.531c6.1014 0 10.845-0.40166 14.23-1.1858 3.4045-0.8607 6.197-1.9126 8.4539-3.175 2.276-1.3197 4.3226-2.9264 6.2161-4.7816 6.0248-6.1013 9.0277-13.828 9.0277-23.162 0-9.1616-3.0985-16.621-9.2763-22.378-2.2761-2.1613-4.8964-3.9592-7.8802-5.3363-2.9264-1.3962-5.7188-2.2952-8.3774-2.7351-2.6203-0.43994-6.8664-0.66942-12.757-0.66942h-15.244l-12.107-10.883h28.651c11.591 0 20.79 1.7596 27.523 5.2407 6.7708 3.481 12.145 8.5878 16.143 15.359 3.9592 6.7516 5.9866 14.115 5.9866 22.11 0 5.6806-1.1284 11.132-3.3089 16.353-2.2186 5.2024-5.3554 9.7928-9.4102 13.752-4.1313 4.0739-8.9702 7.1342-14.46 9.1998-3.2133 1.2623-6.197 2.123-8.8556 2.5629-2.6777 0.4208-7.8227 0.61205-15.416 0.61205h-26.892 26.892c7.5932 0 12.738-0.19129 15.416-0.61205 2.6586-0.43994 5.6423-1.3006 8.8556-2.5629 5.4893-2.0657 10.328-5.1259 14.46-9.1998 4.0548-3.9592 7.1916-8.5495 9.4102-13.752 2.1804-5.2215 3.3089-10.673 3.3089-16.353 0-7.9949-2.0274-15.359-5.9866-22.11-3.9974-6.7708-9.372-11.878-16.143-15.359-6.7325-3.481-15.932-5.2407-27.523-5.2407h-28.651l12.107 10.883h15.244c5.891 0 10.137 0.22951 12.757 0.66942 2.6586 0.43994 5.451 1.3389 8.3774 2.7351 2.9837 1.3771 5.6041 3.175 7.8802 5.3363 6.1778 5.7571 9.2763 13.216 9.2763 22.378 0 9.3337-3.0029 17.061-9.0277 23.162-1.8936 1.8553-3.9401 3.4619-6.2161 4.7816-2.257 1.2624-5.0494 2.3143-8.4539 3.175-3.3854 0.78418-8.1288 1.1858-14.23 1.1858h-15.531l-12.222 10.883z" fill="#fff"/>
  <path id="path15611" d="m734.71 230.6 12.222-10.883h15.531c6.1014 0 10.845-0.40166 14.23-1.1858 3.4045-0.8607 6.197-1.9126 8.4539-3.175 2.276-1.3197 4.3226-2.9264 6.2161-4.7816 6.0248-6.1013 9.0277-13.828 9.0277-23.162 0-9.1616-3.0985-16.621-9.2763-22.378-2.2761-2.1613-4.8964-3.9592-7.8802-5.3363-2.9264-1.3962-5.7188-2.2952-8.3774-2.7351-2.6203-0.43994-6.8664-0.66942-12.757-0.66942h-15.244l-12.107-10.883h28.651c11.591 0 20.79 1.7596 27.523 5.2407 6.7708 3.481 12.145 8.5878 16.143 15.359 3.9592 6.7516 5.9866 14.115 5.9866 22.11 0 5.6806-1.1284 11.132-3.3089 16.353-2.2186 5.2024-5.3554 9.7928-9.4102 13.752-4.1313 4.0739-8.9702 7.1342-14.46 9.1998-3.2133 1.2623-6.197 2.123-8.8556 2.5629-2.6777 0.4208-7.8227 0.61205-15.416 0.61205h-26.892z" fill="#fff"/>
  <path id="path15615" d="m746.93 156.37-12.203-10.959v85.189l12.203-10.883v-26.108-11.323-25.916z" fill="#407c89"/>
  <path id="path15619" d="m674.61 193.61-0.0401 37.067 12.222-10.998-0.0401-26.069h-12.145z" fill="#407c89"/>
  <path id="path15623" d="m687.08 182.29-0.22946-25.553-12.222-11.323v36.876h12.451z" fill="#407c89"/>
 </g>
</svg>
