<svg fill-rule="evenodd" height="225.18199" viewBox="0 0 243.89369 76.57119" width="721.4126" xmlns="http://www.w3.org/2000/svg"><g fill="#fff"><path d="m99.092261 72.321593v-8.142826h2.162389v12.166893h-1.748619l-6.920453-8.161189v8.161189h-2.162391v-12.166893h1.748621z"/><path d="m109.85888 73.769498c.42619-.488944.6393-1.172247.6393-2.049909 0-.877653-.21311-1.560956-.6393-2.049909-.42621-.463689-1.00909-.695536-1.74862-.695545-.73955.000009-1.32243.231856-1.74862.695545-.42659.488953-.63989 1.172256-.63988 2.049909-.00001.877662.21329 1.560965.63988 2.049909.42619.463703 1.00907.695549 1.74862.695549.73953 0 1.32241-.231846 1.74862-.695549zm-5.19938 1.447909c-.88378-.902527-1.32567-2.068366-1.32567-3.497531 0-1.429152.44189-2.59509 1.32567-3.497814.88378-.90271 2.03403-1.354068 3.45076-1.354077 1.41671.000009 2.56697.451367 3.45075 1.354077.88377.902724 1.32566 2.068662 1.32567 3.497814-.00001 1.429165-.4419 2.595004-1.32567 3.497531-.88378.902527-2.03404 1.35379-3.45075 1.35379-1.41673 0-2.56698-.451263-3.45076-1.35379z"/><path d="m120.88144 67.037281-.2261 2.068272c-.43884-.0876-.82736-.131409-1.16556-.131418-.68981.000009-1.25394.256914-1.69238.770722-.38872.464089-.58307 1.335432-.58307 2.61404v3.986763h-2.29438v-6.657039c0-1.065505-.0627-1.930535-.18823-2.595098h2.23814c.1251.438838.20659.909038.24447 1.4106h.0189c.60143-1.078123 1.4852-1.617192 2.65134-1.617202.4262.00001.75847.05013.99683.15036z"/><path d="m127.78985 74.59704.20717 1.654505c-.5517.213099-1.12845.319652-1.73026.319652-1.32873 0-2.28788-.38852-2.87745-1.165557-.4637-.639684-.69554-1.561148-.69554-2.764395v-3.798529h-1.48579v-1.749193h1.48579v-2.707581h2.29438v2.707581h2.36956v1.749193h-2.36956v3.45994c0 .889904.11898 1.51046.35696 1.861676.25097.388713.67105.583068 1.26024.583063.45107.000005.8459-.05011 1.1845-.150355z"/><path d="m138.84398 76.34566h-2.27545c-.13812-.639304-.20718-1.498025-.20717-2.576162v-1.936854c-.00001-1.19099-.17542-1.962099-.52625-2.31332-.36385-.363453-.86542-.54518-1.50472-.545189-.72692.000009-1.33486.250793-1.8238.752359-.23836.263228-.39197.5891-.46083.977611-.0689.388525-.1033.933809-.1033 1.635851v4.005704h-2.29438v-12.166893h2.27544v4.306419h.0189c.23797-.451447.62964-.833842 1.17503-1.147189.54537-.313334 1.16909-.470003 1.87114-.470012 1.10338.000009 1.99347.33841 2.67028 1.015197.3512.363853.60515.81215.76183 1.344895.15666.53276.23499 1.263028.235 2.190796v2.350625c-.00001 1.052887.0627 1.911607.18824 2.576162z"/><path d="m149.66167 72.509253h-6.78846c.0754.639308.33553 1.156474.78048 1.551492.44495.395027 1.05613.592536 1.83356.592536 1.19099 0 2.24406-.313531 3.15922-.940593l.71448 1.523656c-1.11563.889904-2.51342 1.334853-4.19336 1.334853-1.37923 0-2.50758-.445048-3.38505-1.33514-.87746-.890088-1.3162-2.055931-1.3162-3.497527 0-1.429349.43568-2.598441 1.30702-3.507287.87135-.908831 1.99013-1.363249 3.35636-1.363258 1.41672.000009 2.53885.445053 3.36639 1.335136.82753.890101 1.2413 2.049824 1.24131 3.479168-.00001.20048-.0253.476133-.0757.826964zm-6.78846-1.635565h4.51359c-.00001-.639684-.20068-1.153785-.60201-1.54231-.40134-.388511-.95303-.582772-1.65507-.582781-.63931.000009-1.15638.200579-1.55121.601718-.39483.401152-.62993.908939-.7053 1.523373z"/><path d="m157.83032 67.037281-.22611 2.068272c-.43884-.0876-.82736-.131409-1.16556-.131418-.68981.000009-1.25394.256914-1.69238.770722-.38871.464089-.58307 1.335432-.58307 2.61404v3.986763h-2.29438v-6.657039c0-1.065505-.0627-1.930535-.18823-2.595098h2.23814c.12511.438838.2066.909038.24447 1.4106h.019c.60142-1.078123 1.4852-1.617192 2.65134-1.617202.4262.00001.75847.05013.99683.15036z"/><path d="m168.61243 76.34566h-2.29381c-.1255-.664555-.18824-1.523275-.18823-2.576162v-1.95579c-.00001-1.190996-.17543-1.962099-.52626-2.313325-.37647-.363449-.87804-.54518-1.50471-.545185-.72693.000005-1.33486.250793-1.82381.75236-.23835.263227-.39512.595408-.47029.996547-.0752.401148-.11277.940311-.11277 1.617488v4.024067h-2.29438v-6.657039c-.00001-1.065505-.0627-1.930535-.18824-2.595098h2.23815c.1251.45146.20659.909038.24447 1.372727h.0189c.22534-.451066.61386-.830208 1.16555-1.137439.55169-.307208 1.17225-.460817 1.86168-.460826 1.14087.000009 2.03096.332289 2.67027.996834.36384.363467.6241.811572.78077 1.344322.15666.532759.235 1.269337.23501 2.209732v2.350625c-.00001 1.052887.0625 1.911607.18766 2.576162z"/><path d="m175.33948 73.769498v-9.590731h2.40687v9.590731c-.00001 1.052887.0627 1.911607.18823 2.576162h-2.3885c-.13773-.727298-.2066-1.586018-.2066-2.576162z"/><path d="m186.62546 67.037281-.22611 2.068272c-.43883-.0876-.82735-.131409-1.16555-.131418-.68982.000009-1.25394.256914-1.69238.770722-.38872.464089-.58307 1.335432-.58307 2.61404v3.986763h-2.29438v-6.657039c0-1.065505-.0627-1.930535-.18824-2.595098h2.23815c.1251.438838.20659.909038.24447 1.4106h.019c.60142-1.078123 1.4852-1.617192 2.65133-1.617202.4262.00001.75848.05013.99684.15036z"/><path d="m196.67415 72.509253h-6.78846c.0754.639308.33553 1.156474.78048 1.551492.44495.395027 1.05613.592536 1.83356.592536 1.19099 0 2.24406-.313531 3.15922-.940593l.71449 1.523656c-1.11564.889904-2.51343 1.334853-4.19337 1.334853-1.37923 0-2.50758-.445048-3.38505-1.33514-.87746-.890088-1.31619-2.055931-1.31619-3.497527 0-1.429349.43567-2.598441 1.30701-3.507287.87135-.908831 1.99013-1.363249 3.35636-1.363258 1.41672.000009 2.53885.445053 3.3664 1.335136.82752.890101 1.24129 2.049824 1.2413 3.479168-.00001.20048-.0252.476133-.0757.826964zm-6.78846-1.635565h4.51359c-.00001-.639684-.20067-1.153785-.602-1.54231-.40135-.388511-.95304-.582772-1.65508-.582781-.63931.000009-1.15638.200579-1.55121.601718-.39483.401152-.62993.908939-.7053 1.523373z"/><path d="m198.8813 73.769498v-9.590731h2.29439v9.590731c0 1.140885.0625 1.999601.18766 2.576162h-2.29381c-.12549-.664555-.18824-1.523275-.18824-2.576162z"/><path d="m212.69524 76.34566h-2.27545c-.0501-.238354-.10024-.633183-.15036-1.184494-.36385.451071-.80277.798846-1.31677 1.04332-.51401.244474-1.02161.366711-1.52279.366711-1.1034 0-2.02486-.344714-2.7644-1.034138-.9779-.877657-1.46685-2.14383-1.46685-3.798529 0-1.792807.57676-3.128037 1.73026-4.005703.75217-.576552 1.59195-.864833 2.51935-.864842 1.20362.000009 2.12508.463896 2.76439 1.391663v-1.166125h2.29439v6.657038c-.00002 1.06551.0627 1.930544.18823 2.595099zm-6.46938-2.576162c.42658.463703 1.00964.695549 1.74919.695549.73954 0 1.32241-.231846 1.74862-.695549.4262-.488944.6393-1.165933.63931-2.030968-.00001-.89028-.21311-1.579897-.63931-2.06885-.42621-.463689-1.00908-.695536-1.74862-.695545-.73955.000009-1.32252.23195-1.74891.695832-.42639.463895-.63959 1.153413-.63959 2.068563 0 .889904.2131 1.566893.63931 2.030968z"/><path d="m224.47648 76.34566h-2.29381c-.1255-.664555-.18824-1.523275-.18823-2.576162v-1.95579c-.00001-1.190996-.17543-1.962099-.52625-2.313325-.37648-.363449-.87805-.54518-1.50473-.545185-.72692.000005-1.33485.250793-1.82379.75236-.23836.263227-.39513.595408-.4703.996547-.0752.401148-.11277.940311-.11277 1.617488v4.024067h-2.29438v-6.657039c0-1.065505-.0628-1.930535-.18824-2.595098h2.23814c.12511.45146.2066.909038.24448 1.372727h.0189c.22534-.451066.61386-.830208 1.16556-1.137439.55169-.307208 1.17224-.460817 1.86168-.460826 1.14087.000009 2.03095.332289 2.67027.996834.36383.363467.62409.811572.78077 1.344322.15666.532759.23499 1.269337.235 2.209732v2.350625c-.00001 1.052887.0626 1.911607.18766 2.576162z"/><path d="m235.61382 76.34566h-2.29438c-.0754-.438829-.11918-.833659-.13142-1.184494-.36385.451071-.80277.798846-1.31677 1.04332-.51402.244474-1.02162.366711-1.5228.366711-1.10339 0-2.03117-.3384-2.78333-1.015201-.96528-.89028-1.44791-2.169081-1.44791-3.836407 0-1.805425.57675-3.14066 1.73026-4.005699.73954-.563929 1.57932-.845896 2.51934-.845905.57694.000009 1.10673.122246 1.58937.366711.48263.244484.8743.579819 1.17503 1.006016v-4.061945h2.29438v9.590731c-.00001 1.052887.0627 1.911607.18823 2.576162zm-4.72018-1.880613c.73953 0 1.32241-.225533 1.74862-.676608.4262-.488944.63929-1.172247.6393-2.049909-.00001-.902522-.2131-1.59826-.6393-2.087213-.43884-.464075-1.02171-.696114-1.74862-.696119-.73955.000005-1.32242.232044-1.74862.696119-.4266.488953-.63989 1.178471-.63988 2.068559-.00001.890096.21328 1.579619.63988 2.068563.41357.451075.99644.676608 1.74862.676608z"/><path d="m107.82266 13.162276c-.39243-.005-.79103-.0014-1.19001.01061-5.0608.154028-9.521918 1.714205-13.185784 4.611304-2.007618 1.587383-4.100897 4.191032-5.312562 6.598202-3.26565 6.488517-3.320366 15.287055-.138126 21.792147 1.091521 2.231344 2.188993 3.768978 3.910045 5.493172 3.483657 3.490209 7.815937 5.43459 13.398277 6.003213.85725.08731 4.75423-.0238 5.6207-.15936 4.79479-.751443 8.64679-2.576754 11.71951-5.546349 3.57402-3.454135 5.63051-7.706666 6.37507-13.185779.19118-1.407461.21327-4.955579.0425-6.353825-.67291-5.509887-2.81407-10.033143-6.36445-13.462032-3.86031-3.728202-8.98875-5.726623-14.87517-5.801318zm-.18063 8.000718c1.08864.0098 2.17368.116686 3.15566.318754 5.11012 1.051398 8.37082 4.604953 9.31824 10.157619.37745 2.211178.37735 5.360197 0 7.596964-1.03022 6.10676-4.89654 9.789343-10.912 10.412639-.9511.09853-2.6657.09146-3.6338-.01054-3.08633-.325656-5.52719-1.419347-7.437584-3.336289-1.881324-1.88777-2.974933-4.24767-3.495666-7.565089-.219826-1.400908-.218286-5.1028 0-6.555702.187101-1.247287.560259-2.712123.913761-3.601917 1.312786-3.304743 3.701633-5.600042 6.991329-6.704453 1.44698-.485822 3.28566-.728136 5.10006-.711884z"/><path d="m199.77248 13.194151c-2.37739-.0067-3.02332.04751-4.77068.39313-7.39683 1.463033-13.0992 6.53067-15.49143 13.748911-1.10595 3.337288-1.53685 6.8538-1.25376 10.32762.62012 7.609307 4.02795 13.51657 9.79636 17.000216 2.72014 1.642628 5.50619 2.525754 9.53074 3.006894.16538.01972 1.4245.02414 2.7944.01054 1.96106-.01938 2.78376-.06474 3.89943-.212503 5.01402-.663415 9.36872-2.172795 12.87765-4.451944.9338-.606499 1.90189-1.322683 1.90189-1.413124 0-.0388-.72361-1.401599-1.60439-3.028178l-1.60439-2.953784-.46751.308111c-6.46027 4.132545-15.96174 5.246466-21.654 2.55003-3.54802-1.680708-5.61164-4.59342-6.39633-9.031339l-.0531-.276253h16.57519 16.57519l.0425-.191252c.25556-1.094691.36938-4.101754.22313-5.865069-.20776-2.501739-.54604-4.213754-1.25376-6.364449-2.20473-6.700476-7.10411-11.246084-13.91892-12.920151-2.01426-.494842-3.1873-.630344-5.74819-.637508zm-.70126 7.905093c1.25813-.02343 2.68775.04983 3.53817.201877 2.48086.443464 4.35381 1.326359 5.93945 2.794408 1.88817 1.748066 3.09518 4.404799 3.26191 7.193209l.0531.924386h-12.30389-12.30389l.0531-.510006c.1964-1.878862.95845-3.988461 2.04003-5.631316.62605-.950896 2.07322-2.384098 3.06003-3.028161 1.35302-.882732 2.94488-1.482672 4.73881-1.795646.46719-.08156 1.16827-.134689 1.92314-.148751z"/><path d="m141.75842 46.05403c0-6.488004.0341-10.977606.0886-11.658512.34848-4.348671 1.457-7.153047 3.73306-9.443545 2.41935-2.434704 5.67322-3.590597 9.70473-3.447619 3.23125.114627 5.4843 1.003295 7.25836 2.862611 1.39272 1.459757 2.2207 3.165655 2.70397 5.571088.35299 1.757687.38799 2.563761.43437 10.048818.0606 9.751913.22279 12.917774.82613 16.12437l.0931.49392h4.18195 4.18185l-.15659-.966246c-.16273-1.002988-.34122-2.624043-.50805-4.616203-.0581-.694518-.12394-4.946678-.16406-10.6065-.066-9.338539-.0889-10.054447-.39055-12.195213-.4494-3.191244-1.52137-6.09776-3.02278-8.196566-1.23408-1.725241-3.27886-3.586093-5.04073-4.587954-4.41827-2.512281-10.4015-2.990441-15.50692-1.239101-1.85103.634851-3.54465 1.569779-5.03235 2.777868-.93318.757769-2.31853 2.178123-2.90693 2.980412-.23333.318398-.44714.578867-.47508.578867-.0278 0-.0969-.434867-.15342-.966246-.16088-1.513591-.50783-3.398186-.88549-4.80933l-.0864-.322081h-4.10664-4.10662l.10828.622671c.3662 2.108323.61121 4.984648.72564 8.52274.0459 1.417592.084 9.427683.0848 17.800179l.001 15.222703h4.20826 4.20825v-10.551131z"/></g><g fill="#c80201"><path d="m-.70822548 14.36346v10.640226 10.640028h11.32457948 11.324579v-10.640028-10.640226h-11.324579-11.32457948zm5.91118148 2.986702h2.9867022c2.6986448 0 3.0728388.03385 3.6711548.187167 1.935662.494996 3.191789 1.841202 3.297817 3.546609.0902 1.448551-.414415 2.451685-1.555574 3.173471l-.373338.248892.435561.12345c1.106354.389665 2.013834 1.216384 2.488918 2.177903.317049.641544.373338.638956.373338 1.617798 0 .977249-.05954 1.045345-.373338 1.67992-.706892 1.430431-1.939146 2.190448-3.920046 2.488919-.598715.0896-1.648998.12345-3.9200469.125441h-3.1111481v-7.653524-7.715648zm2.7378103 2.426795v1.928813 1.991134h.9955674c.5313742-.000796 1.1795483-.05774 1.4933513-.12345 1.381867-.292896 1.955931-.942802 1.866689-2.177903-.04938-.679774-.269122-1.086363-.871122-1.368706-.449598-.210662-.603433-.222211-1.9911346-.248892h-1.4933511zm0 6.346544v2.115779 2.053259h1.4933511c.8148716-.000996 1.7279066-.01991 2.0533576-.06173 1.432522-.207078 2.240027-.931055 2.240027-2.053458 0-.710039-.279058-1.136341-.871122-1.493351-.713244-.430085-1.355803-.560106-3.2355937-.560106h-1.68002z"/><path d="m25.363196 14.36346v10.640226 10.640028h11.386802 11.386802v-10.640028-10.640226h-11.386802zm6.035627 2.986702h2.924479c3.316614.0018 3.744688.0438 4.791169.559907 1.579288.780326 2.432748 2.338986 2.177803 3.98227-.05336.344267-.15949.793865-.248892.995567-.197122.445815-.832115 1.147093-1.244459 1.369105-.31225.167255-.394543.311015-.186569.311015.287599 0 1.488114.696499 1.928912 1.120013.970957.933046 1.390728 2.420822 1.05779 3.671056-.414594 1.557665-1.615348 2.626904-3.484486 3.111347-.652156.169247-1.006658.214445-4.231161.248892h-3.484486v-7.653524-7.715648zm2.737811 2.426795v1.991135 1.991135l1.244459-.06172c.727162-.02788 1.370418-.109513 1.617797-.187167 1.008609-.317387 1.503685-.921298 1.493351-1.929011-.006-.632584-.160486-.970679-.560007-1.306583-.446333-.375727-1.027525-.497784-2.488918-.497784h-1.306682zm0 6.346544v2.115779 2.115382l1.866688-.06173c1.581658-.03385 1.854902-.0219 2.364473-.187167 1.453309-.470704 1.980223-2.060426 1.05779-3.110949-.605165-.689132-1.414522-.86913-3.671154-.87132h-1.617797z"/><path d="m51.559063 14.36346v10.640226 10.640028h11.386802 11.324579v-10.640028-10.640226h-11.324579zm11.822363 2.799933c1.650432-.09159 3.276472.1573 5.288952.871321l.933344.373139v1.431228c0 .774352.01792 1.368905 0 1.368905s-.520562-.179202-1.05779-.435461c-1.909777-.908754-3.166422-1.247247-4.915614-1.182336-.915683.03385-1.236953.07765-1.928912.311015-1.046083.353626-1.719066.779529-2.426696 1.493351-.959289.967692-1.433477 2.231266-1.431128 3.671255.004 1.529191.474906 2.669116 1.493351 3.671254 1.142792 1.123996 2.628935 1.67116 4.542277 1.679921 1.69567 0 3.120267-.369555 4.915614-1.306782l.995567-.497784v1.431228 1.431228l-.560007.311015c-1.610828.742295-2.991919 1.012094-4.977837 1.057691-.803104.01991-1.693918.04181-1.991134 0-3.095956-.436059-5.600326-2.260536-6.72008-4.915515-.67169-1.592908-.735446-3.457008-.18657-5.164406.87608-2.726063 3.334394-4.809388 6.346742-5.413498.568609-.113495 1.12987-.1573 1.68002-.187167z"/></g><g fill-rule="nonzero"><g fill="#fff"><path d="m226.88733 2.209174 2.39265-2.209174-.015 16.684884-2.37767-2.516212v-4.732876h-9.38338v7.26781l-2.3889-2.512468v-11.974475l2.3889-2.216663v7.219133h9.38338v-5.009959z"/><path d="m229.265 16.677396 2.39265-2.130543h3.04042c1.19445 0 2.12306-.07863 2.78581-.232151.6665-.168496 1.21317-.374436 1.65501-.621564.44558-.258361.84622-.572888 1.21692-.936091 1.17947-1.194452 1.76734-2.707175 1.76734-4.534425 0-1.79355-.60659-3.253852-1.81602-4.380905-.44558-.423113-.95856-.775083-1.54268-1.044678-.57289-.273338-1.11956-.449323-1.64003-.535444-.51298-.08612-1.34423-.131052-2.49749-.131052h-2.98426l-2.37018-2.130543h5.60906c2.26908 0 4.07012.344481 5.38814 1.025955 1.3255.681475 2.37767 1.68122 3.16024 3.006724.77508 1.321761 1.17198 2.763341 1.17198 4.328485 0 1.112076-.22091 2.17922-.64777 3.201431-.43435 1.018467-1.04842 1.917114-1.84223 2.692197-.80878.79755-1.7561 1.396648-2.83074 1.801039-.62905.247128-1.21317.415625-1.73364.501745-.52421.08238-1.53144.11982-3.01795.11982h-5.26458 5.26458c1.48651 0 2.49374-.03744 3.01795-.11982.52047-.08612 1.10459-.254617 1.73364-.501745 1.07464-.404391 2.02196-1.003489 2.83074-1.801039.79381-.775083 1.40788-1.67373 1.84223-2.692197.42686-1.022211.64777-2.089355.64777-3.201431 0-1.565144-.3969-3.006724-1.17198-4.328485-.78257-1.325504-1.83474-2.325249-3.16024-3.006724-1.31802-.681474-3.11906-1.025955-5.38814-1.025955h-5.60906l2.37018 2.130543h2.98426c1.15326 0 1.98451.04493 2.49749.131052.52047.08612 1.06714.262106 1.64003.535444.58412.269595 1.0971.621565 1.54268 1.044678 1.20943 1.127053 1.81602 2.587355 1.81602 4.380905 0 1.82725-.58787 3.339973-1.76734 4.534425-.3707.363203-.77134.67773-1.21692.936091-.44184.247128-.98851.453068-1.65501.621564-.66275.153519-1.59136.232151-2.78581.232151h-3.04042z"/><path d="m229.265 16.677396 2.39265-2.130543h3.04042c1.19445 0 2.12306-.07863 2.78581-.232151.6665-.168496 1.21317-.374436 1.65501-.621564.44558-.258361.84622-.572888 1.21692-.936091 1.17947-1.194452 1.76734-2.707175 1.76734-4.534425 0-1.79355-.60659-3.253852-1.81602-4.380905-.44558-.423113-.95856-.775083-1.54268-1.044678-.57289-.273338-1.11956-.449323-1.64003-.535444-.51298-.08612-1.34423-.131052-2.49749-.131052h-2.98426l-2.37018-2.130543h5.60906c2.26908 0 4.07012.344481 5.38814 1.025955 1.3255.681475 2.37767 1.68122 3.16024 3.006724.77508 1.321761 1.17198 2.763341 1.17198 4.328485 0 1.112076-.22091 2.17922-.64777 3.201431-.43435 1.018467-1.04842 1.917114-1.84223 2.692197-.80878.79755-1.7561 1.396648-2.83074 1.801039-.62905.247128-1.21317.415625-1.73364.501745-.52421.08238-1.53144.11982-3.01795.11982z"/></g><g fill="#ea8d86"><path d="m231.65765 2.14552-2.38891-2.14552v16.677396l2.38891-2.130543v-5.111057-2.216663-5.073613z" opacity=".5"/><path d="m217.50021 9.435796-.007 7.256577 2.39265-2.153009-.007-5.103568h-2.37767z" opacity=".5"/><path d="m219.94153 7.219133-.0449-5.00247-2.39265-2.216663v7.219133h2.43758z" opacity=".5"/></g></g></svg>