<svg height="296.19443" width="1168.8806" xmlns="http://www.w3.org/2000/svg"><g transform="matrix(1.25 0 0 -1.25 -1543.7513 -811.2006)"><g fill="#fff"><g transform="matrix(2.0655084 0 0 -2.0655084 1624.5945 -608.1065)"><path d="m-8.8885726 108.64381c1.2210817.46163 2.4300085 1.04493 3.6267801 1.86503l-2.0898006 4.93906c-.6011091-.46162-1.4762708-.92345-2.3754105-1.35472-1.2574804-.55262-3.0192944-1.02673-4.6109384-1.02673-4.641359 0-7.721429 2.96463-7.721429 7.99481 0 5.51008 3.693666 8.12242 7.855068 8.12242 2.612267 0 4.9815669-.66826 7.0288581-2.08987l2.1202214 4.26469c-2.8491907 2.30248-6.2998895 3.14084-10.0359975 3.14084-7.593901 0-13.547472-5.21245-13.547472-13.43808 0-8.45039 6.281623-13.40161 13.596025-13.40161 2.235661 0 4.246487.32812 6.1540954.98416"/><path d="m17.006296 134.13565h-4.84009c-.2938-1.35986-.44069-3.18644-.44067-5.47974v-4.11987c-.00002-2.53335-.37315-4.17357-1.11939-4.92065-.7739396-.7731-1.8408296-1.15965-3.2006796-1.15967-1.54624.00002-2.83937.53346-3.87939 1.60034-.50701.55991-.83375 1.25307-.98023 2.07947-.14649.82643-.21973 1.9863-.21973 3.47961v8.52051h-4.88037v-25.88013h4.84009v9.16016h.0403c.50618-.96027 1.33931-1.77366 2.49939-2.44018 1.16006-.66649 2.48677-.99974 3.9801-.99976 2.3469896.00002 4.2402996.71983 5.6799396 2.15942.74704.77395 1.28721 1.72752 1.62048 2.86072.33323 1.13323.49985 2.68658.49988 4.66003v5c-.00003 2.23959.13344 4.06617.40039 5.47974z"/><g transform="translate(0 -38.615198)"><path d="m29.505142 152.4374c-2.223435 0-3.75572.6911-5.228897 1.81873-2.314359 1.76871-3.637504 4.71506-3.637504 8.29799 0 3.27828 1.123052 6.07917 3.069143 7.84332 1.541382 1.42774 3.237369 2.15975 5.683566 2.15975 1.918799 0 4.369519-.96392 5.910901-2.95545.06363.91391.186422 1.81878.341027 2.50078h4.660536c-.295292-1.44136-.341027-3.46013-.341027-5.34254v-13.86791h-4.774178v2.50073c-1.214026-1.75052-3.278283-2.9554-5.683567-2.9554zm1.023031 4.43315c1.609588 0 2.778127.43647 3.637455 1.36406.868475.98669 1.364108 2.46896 1.364108 4.31951 0 1.8233-.495633 3.23284-1.364108 4.20586-.859328.92753-2.027867 1.4777-3.637455 1.4777-1.573197 0-2.787223-.55017-3.637504-1.4777-.868425-.93663-1.250366-2.38256-1.250366-4.20586 0-1.85055.381791-3.36921 1.250366-4.31951.850281-.92754 2.064307-1.36406 3.637504-1.36406z" fill="#fff"/><path d="m59.94592 172.0976c-.290817-1.44136-.391236-3.49657-.391236-5.31982v-4.05126c0-2.38257-.163554-3.85574-1.091237-4.79695-.918485-.83661-1.755145-1.11395-3.119153-1.11395-1.441361 0-2.691776.41808-3.764818 1.55048-1.09581 1.20492-1.214026 2.95997-1.214026 5.41984v8.31166h-4.751459v-13.77699c0-1.85512-.136212-3.92395-.377317-5.37441h4.624146c.186421.70478.423052 1.92333.50468 2.85091h.05021c.877573-1.73233 3.251041-3.3101 6.247405-3.3101 2.537121 0 4.401335.90934 5.519863 2.05968 1.450458 1.49595 2.123365 3.35107 2.123365 7.36141v4.86968c0 1.82325.118315 3.87846.377317 5.31982h-4.737838z" fill="#fff"/></g><path d="m83.157705 133.94199c-.29082-1.44136-.39124-3.49657-.39124-5.31982v-4.05126c0-2.38257-.16355-3.85574-1.09123-4.79695-.91849-.83661-1.75515-1.11395-3.11916-1.11395-1.44136 0-2.69177.41808-3.76481 1.55048-1.09581 1.20492-1.21403 2.95997-1.21403 5.41984v8.31166h-4.75146v-13.77699c0-1.85512-.13621-3.92395-.37732-5.37441h4.62415c.18642.70478.42305 1.92333.50468 2.85091h.0502c.87757-1.73233 3.25104-3.3101 6.2474-3.3101 2.53713 0 4.40134.90934 5.51987 2.05968 1.45046 1.49595 2.12336 3.35107 2.12336 7.36141v4.86968c0 1.82325.11832 3.87846.37732 5.31982h-4.73784z"/><path d="m110.38682 125.8592h-14.439706c.16031 1.35987.713704 2.45993 1.660164 3.30017.94644.84026 2.24649 1.26038 3.900142 1.26038 2.53335 0 4.77334-.66691 6.71997-2.00073l1.51978 3.24096c-2.37307 1.89291-5.34629 2.83936-8.91968 2.83936-2.933762 0-5.333876-.94666-7.200326-2.83997-1.86645-1.8933-2.79968-4.37316-2.79968-7.43957 0-3.04036.92672-5.52713 2.78015-7.46033 1.85343-1.93317 4.233194-2.89976 7.139296-2.89978 3.01349.00002 5.40037.94667 7.16064 2.83996 1.76023 1.89333 2.64036 4.36017 2.64038 7.40052-.00002.42644-.0537 1.01278-.16113 1.75903zm-14.439706-3.479h9.600836c-.00002-1.36067-.42685-2.45421-1.28052-3.28064-.85369-.8264-2.02719-1.23961-3.5205-1.23963-1.359882.00002-2.459732.42665-3.299572 1.27991-.83985.85329-1.339934 1.9334-1.500244 3.24036z"/><path d="m113.48302 108.5222h4.88533v20.41066c0 1.87466.07 3.98775.38795 5.46965h-4.88058c-.28061-1.4819-.39255-3.59499-.39255-5.46965v-20.41066z"/><path d="m143.80428 107.56282h5.06643v21.16728c0 1.94415.0726 4.13558.40233 5.67241h-5.0615c-.29101-1.53683-.4071-3.72826-.4071-5.67241v-21.16728z"/><path d="m153.07192 132.54011 1.59912-3.56079c1.76025 1.1735 3.45377 1.76026 5.08057 1.76025.90656.00001 1.63329-.18656 2.18017-.55969.54687-.37312.8203-.89335.82031-1.56067-.00001-.55989-.23336-1.03983-.70007-1.43982-.46672-.39998-1.04676-.72-1.74011-.96008-.69337-.24007-1.44675-.53995-2.26013-.89966-.8134-.35969-1.56678-.73953-2.26014-1.13953-.69336-.39997-1.27339-.99343-1.74011-1.78039-.46672-.78694-.70007-1.70043-.70007-2.74048 0-1.83999.72001-3.26658 2.16003-4.27979 1.44002-1.01316 3.14677-1.51975 5.12024-1.51977 2.34618.00002 4.38598.61322 6.11939 1.8396l-1.59912 3.40088c-1.41359-1.01398-2.85361-1.52098-4.32007-1.521-.79998.00002-1.40667.20001-1.82007.59998-.41342.4-.62012.85349-.62012 1.36047 0 .55991.31331 1.05328.93994 1.4801.62662.42686 1.38.80019 2.26014 1.12.88011.31983 1.76003.69317 2.63977 1.11999.8797.42685 1.63288 1.05348 2.25952 1.87989.62661.82642.93992 1.82638.93994 2.99987-.00002 2.02638-.73325 3.59294-2.19971 4.69971-1.46648 1.10677-3.29306 1.66016-5.47973 1.66016-1.09376 0-2.30063-.19328-3.62061-.57984-1.31999-.38655-2.33968-.84635-3.05908-1.37939z"/><path d="m171.4254 108.5222h4.88533v20.41066c0 1.87466.07 3.98775.38795 5.46965h-4.88058c-.28061-1.4819-.39255-3.59499-.39255-5.46965v-20.41066z"/><g transform="translate(159.39521 -38.615195)"><path d="m29.505142 152.4374c-2.223435 0-3.75572.6911-5.228897 1.81873-2.314359 1.76871-3.637504 4.71506-3.637504 8.29799 0 3.27828 1.123052 6.07917 3.069143 7.84332 1.541382 1.42774 3.237369 2.15975 5.683566 2.15975 1.918799 0 4.369519-.96392 5.910901-2.95545.06363.91391.186422 1.81878.341027 2.50078h4.660536c-.295292-1.44136-.341027-3.46013-.341027-5.34254v-13.86791h-4.774178v2.50073c-1.214026-1.75052-3.278283-2.9554-5.683567-2.9554zm1.023031 4.43315c1.609588 0 2.778127.43647 3.637455 1.36406.868475.98669 1.364108 2.46896 1.364108 4.31951 0 1.8233-.495633 3.23284-1.364108 4.20586-.859328.92753-2.027867 1.4777-3.637455 1.4777-1.573197 0-2.787223-.55017-3.637504-1.4777-.868425-.93663-1.250366-2.38256-1.250366-4.20586 0-1.85055.381791-3.36921 1.250366-4.31951.850281-.92754 2.064307-1.36406 3.637504-1.36406z" fill="#fff"/><path d="m59.94592 172.0976c-.290817-1.44136-.391236-3.49657-.391236-5.31982v-4.05126c0-2.38257-.163554-3.85574-1.091237-4.79695-.918485-.83661-1.755145-1.11395-3.119153-1.11395-1.441361 0-2.691776.41808-3.764818 1.55048-1.09581 1.20492-1.214026 2.95997-1.214026 5.41984v8.31166h-4.751459v-13.77699c0-1.85512-.136212-3.92395-.377317-5.37441h4.624146c.186421.70478.423052 1.92333.50468 2.85091h.05021c.877573-1.73233 3.251041-3.3101 6.247405-3.3101 2.537121 0 4.401335.90934 5.519863 2.05968 1.450458 1.49595 2.123365 3.35107 2.123365 7.36141v4.86968c0 1.82325.118315 3.87846.377317 5.31982h-4.737838z" fill="#fff"/></g><path d="m241.43724 108.22149v8.52569c-1.19225-1.74252-3.32475-2.91973-5.73622-2.91973-2.20904 0-3.61275.71006-5.06139 1.86863-2.31253 1.78921-3.59923 4.84446-3.59923 8.52569 0 3.37294 1.10224 6.32542 3.03686 8.17536 1.54764 1.42953 3.16277 2.10221 5.62376 2.10221 1.93457 0 4.31455-.99037 5.84871-3.03655.0443.93899.11707 1.86869.2248 2.5694h4.72395c-.25627-1.48091-.33744-3.6158-.33744-5.48914v-20.32156h-4.72394zm-5.73622 10.16076c.34728-.0659.73105 0 1.12472 0 1.57017 0 2.75789.48114 3.59924 1.40148.85027 1.00907 1.34969 2.53672 1.34969 4.43804 0 1.92942-.49942 3.32621-1.34969 4.32128-.84135.9203-2.02907 1.51825-3.59924 1.51825-1.57466 0-2.79386-.59795-3.59918-1.51825-.84134-.99507-1.23727-2.40591-1.23727-4.32128 0-1.92001.39598-3.42897 1.23727-4.43804.60394-.69024 1.432-1.20458 2.47446-1.40148z"/><path d="m249.74583 132.54011 1.59912-3.56079c1.76025 1.1735 3.45377 1.76026 5.08057 1.76025.90656.00001 1.63329-.18656 2.18017-.55969.54687-.37312.8203-.89335.82031-1.56067-.00001-.55989-.23336-1.03983-.70007-1.43982-.46672-.39998-1.04676-.72-1.74011-.96008-.69337-.24007-1.44675-.53995-2.26013-.89966-.8134-.35969-1.56678-.73953-2.26014-1.13953-.69336-.39997-1.27339-.99343-1.74011-1.78039-.46672-.78694-.70007-1.70043-.70007-2.74048 0-1.83999.72001-3.26658 2.16003-4.27979 1.44002-1.01316 3.14677-1.51975 5.12024-1.51977 2.34618.00002 4.38598.61322 6.11939 1.8396l-1.59912 3.40088c-1.41359-1.01398-2.85361-1.52098-4.32007-1.521-.79998.00002-1.40667.20001-1.82007.59998-.41342.4-.62012.85349-.62012 1.36047 0 .55991.31331 1.05328.93994 1.4801.62662.42686 1.38.80019 2.26014 1.12.88011.31983 1.76003.69317 2.63977 1.11999.8797.42685 1.63288 1.05348 2.25952 1.87989.62661.82642.93992 1.82638.93994 2.99987-.00002 2.02638-.73325 3.59294-2.19971 4.69971-1.46648 1.10677-3.29306 1.66016-5.47973 1.66016-1.09376 0-2.30063-.19328-3.62061-.57984-1.31999-.38655-2.33968-.84635-3.05908-1.37939z"/></g><path d="m1626.654-648.99236c-1.4162.0179-2.8546.005-4.2944-.0383-18.2628-.55584-34.3615-6.18601-47.5832-16.64071-7.2449-5.72835-14.7988-15.12408-19.1713-23.81078-11.7847-23.41497-11.9822-55.16605-.4985-78.64083 3.939-8.0522 7.8994-13.60103 14.1101-19.82309 12.5714-12.59504 28.2052-19.61168 48.3501-21.66365 3.0935-.31509 17.1564.0859 20.2832.57507 17.3029 2.71172 31.2035 9.29868 42.292 20.01499 12.8975 12.46485 20.3187 27.81087 23.0056 47.58322.6899 5.07907.7696 17.88309.1533 22.92891-2.4283 19.8834-10.155 36.20637-22.9672 48.58013-13.9306 13.45388-32.4375 20.66553-53.6797 20.93508zm-.6518-28.87201c3.9285-.0352 7.8441-.42108 11.3877-1.15028 18.4408-3.79415 30.2076-16.61779 33.6265-36.65557 1.3621-7.97943 1.3618-19.34322 0-27.41499-3.7177-22.03733-17.67-35.32659-39.3779-37.57586-3.4322-.35557-9.6196-.33005-13.1132.038-11.1375 1.17518-19.9458 5.12196-26.8398 12.03959-6.7891 6.81235-10.7356 15.32847-12.6147 27.29996-.7933 5.05543-.7878 18.41436 0 23.65742.6751 4.50106 2.0218 9.78718 3.2974 12.99815 4.7375 11.92576 13.358 20.20875 25.2295 24.19421 5.2217 1.75318 11.8569 2.62761 18.4045 2.56896z"/><path d="m1958.4713-649.10739c-8.5793.0242-10.9102-.17144-17.2159-1.41867-26.6928-5.27962-47.2708-23.56709-55.9036-49.61539-3.991-12.0432-5.546-24.73315-4.5244-37.26905 2.2378-27.45953 14.5356-48.77694 35.3519-61.3483 9.8161-5.92771 19.8701-9.11463 34.3934-10.8509.5968-.0712 5.1406-.0871 10.0841-.038 7.0768.0699 10.0456.23361 14.0717.76685 18.094 2.39406 33.8087 7.84092 46.4713 16.06563 3.3698 2.18866 6.8634 4.77314 6.8634 5.09951 0 .14-2.6113 5.05792-5.7898 10.92772l-5.7897 10.65925-1.6871-1.11187c-23.313-14.91302-57.6008-18.9328-78.1423-9.20224-12.8037 6.06514-20.2506 16.57617-23.0823 32.59119l-.1917.99691h59.8145 59.8146l.1533.69017c.9223 3.95038 1.333 14.8019.8052 21.16514-.7497 9.02797-1.9705 15.20608-4.5244 22.96725-7.9562 24.17985-25.6365 40.58348-50.2289 46.62465-7.2688 1.78573-11.5019 2.27471-20.7433 2.30056zm-2.5307-28.52692c4.5402.0845 9.6992-.17984 12.7681-.72851 8.9526-1.60032 15.7115-4.78641 21.4336-10.08412 6.8138-6.30821 11.1695-15.8955 11.7712-25.95797l.1917-3.33581h-44.4008-44.4008l.1917 1.84044c.7088 6.78021 3.4587 14.39307 7.3618 20.32161 2.2592 3.43147 7.4816 8.60344 11.0427 10.92765 4.8826 3.1855 10.6271 5.35049 17.1008 6.47991 1.686.29431 4.2159.48605 6.94.5368z"/><path d="m1749.1172-767.68813c0 23.41311.1231 39.61464.3197 42.07181 1.2576 15.69295 5.2579 25.81304 13.4714 34.07871 8.7307 8.78606 20.4729 12.9573 35.0213 12.44134 11.6605-.41365 19.791-3.62056 26.1931-10.33024 5.0258-5.26779 8.0138-11.42383 9.7577-20.10426 1.2739-6.34292 1.4002-9.25179 1.5675-36.26294.2187-35.19151.804-46.61609 2.9812-58.18766l.336-1.78239h15.0913 15.0909l-.5651 3.48687c-.5872 3.61946-1.2313 9.46932-1.8334 16.65838-.2096 2.5063-.4472 17.85097-.592 38.27544-.2381 33.69978-.3208 36.28326-1.4094 44.0086-1.6217 11.51616-5.4901 22.00485-10.9082 29.57876-4.4534 6.22584-11.8323 12.94105-18.1904 16.55645-15.9441 9.06601-37.5356 10.79153-55.9594 4.47151-6.6798-2.29097-12.7915-5.66482-18.1602-10.02443-3.3675-2.73454-8.3668-7.86014-10.4901-10.75534-.8421-1.149-1.6136-2.08895-1.7145-2.08895-.1003 0-.3496 1.5693-.5536 3.48687-.5806 5.46206-1.8326 12.26296-3.1955 17.35532l-.3117 1.16229h-14.8195-14.8195l.3907-2.24702c1.3215-7.60826 2.2057-17.98799 2.6186-30.75582.1657-5.11563.3031-34.02147.306-64.2351v-54.93383h15.1863 15.1862v38.07563z"/></g><g fill="#c80201"><path d="m1235.001-653.32714v-38.39714-38.39643h40.8668 40.8667v38.39643 38.39714h-40.8667zm21.3316-10.77804h10.778c9.7386 0 11.0889-.12215 13.248-.67543 6.9852-1.78628 11.5182-6.6443 11.9008-12.79857.3255-5.22735-1.4955-8.84733-5.6136-11.45203l-1.3472-.89817 1.5718-.44549c3.9925-1.40618 7.2673-4.38954 8.9817-7.85935 1.1441-2.31513 1.3472-2.30579 1.3472-5.83811 0-3.52658-.2148-3.77232-1.3472-6.06229-2.551-5.16197-6.9978-7.90462-14.1462-8.98171-2.1606-.32334-5.9507-.44549-14.1462-.45268h-11.2271v27.61911 27.84328zm9.8799-8.75752v-6.96046-7.18537h3.5926c1.9176.003 4.2566.20838 5.3891.44549 4.9867 1.05697 7.0583 3.40227 6.7362 7.85935-.1782 2.45309-.9711 3.92034-3.1436 4.93922-1.6224.76022-2.1776.80189-7.1853.89817h-5.389zm0-22.90263v-7.63517-7.40955h5.389c2.9406.004 6.2354.0719 7.4099.22275 5.1695.74728 8.0835 3.35988 8.0835 7.41027 0 2.5623-1.007 4.10068-3.1436 5.38902-2.5738 1.55204-4.8926 2.02124-11.6762 2.02124h-6.0626z"/><path d="m1329.0844-653.32714v-38.39714-38.39643h41.0913 41.0913v38.39643 38.39714h-41.0913zm21.7806-10.77804h10.5535c11.9686-.006 13.5134-.15808 17.2898-2.02053 5.6992-2.81594 8.779-8.44064 7.859-14.37072-.1926-1.24235-.5755-2.86481-.8982-3.59269-.7113-1.6088-3.0028-4.13948-4.4908-4.94065-1.1268-.60357-1.4238-1.12236-.6733-1.12236 1.0379 0 5.3701-2.51344 6.9608-4.04176 3.5039-3.36706 5.0187-8.73597 3.8173-13.24766-1.4962-5.62111-5.8293-9.47965-12.5744-11.22785-2.3535-.61075-3.6327-.77386-15.2689-.89817h-12.5744v27.6191 27.84329zm9.8799-8.75752v-7.18537-7.18536l4.4909.22275c2.624.10059 4.9454.39519 5.8381.67542 3.6397 1.14535 5.4263 3.32467 5.389 6.96118-.022 2.28279-.5792 3.50287-2.0209 4.71504-1.6107 1.35587-3.708 1.79634-8.9817 1.79634zm0-22.90263v-7.63517-7.63373l6.7363.22275c5.7077.12215 6.6937.079 8.5326.67542 5.2445 1.69862 7.146 7.43542 3.8172 11.22641-2.1838 2.48686-5.1045 3.13641-13.248 3.14432z"/><path d="m1423.6168-653.32714v-38.39714-38.39643h41.0913 40.8668v38.39643 38.39714h-40.8668zm42.6631-10.10405c5.9559.33052 11.8238-.56765 19.0862-3.14432l3.3681-1.34654v-5.16484c0-2.79438.065-4.93993 0-4.93993s-1.8785.64668-3.8172 1.57144c-6.8918 3.2794-11.4266 4.50091-17.7389 4.26666-3.3044-.12215-4.4638-.28022-6.9608-1.12235-3.775-1.27612-6.2036-2.81307-8.7572-5.38902-3.4617-3.49209-5.1729-8.05192-5.1645-13.24838.014-5.51836 1.7138-9.63198 5.3891-13.24837 4.1239-4.05614 9.4869-6.03068 16.3916-6.06229 6.1191 0 11.26 1.3336 17.7388 4.71575l3.5927 1.79634v-5.16484-5.16484l-2.0209-1.12235c-5.8129-2.6787-10.7968-3.65232-17.9634-3.81686-2.8981-.0719-6.1128-.1509-7.1853 0-11.1723 1.57359-20.2098 8.15754-24.2506 17.7385-2.4239 5.74829-2.654 12.47523-.6733 18.63668 3.1615 9.83748 12.0327 17.35553 22.9033 19.53557 2.052.40956 4.0774.56764 6.0627.67542z"/></g></g></svg>