<svg height="145.64455" width="200" xmlns="http://www.w3.org/2000/svg"><path d="m0 0v20.348h27.942v-20.348" fill="#005e70" transform="matrix(7.1576838 0 0 -7.1576838 0 145.64455)"/><g fill="#fff" transform="matrix(7.1576838 0 0 -7.1576838 -1177.515551 4848.841404)"><path d="m180.782 673.081h3.543v-3.334h-3.543zm2.232-.464c-.016.002-.032.005-.048.007l-.019.003c-.027.004-.055.007-.082.01-.019.001-.038.003-.057.004-.033.002-.067.003-.098.003-.015 0-.024 0-.038-.001-.026 0-.052-.001-.078-.003-.015-.001-.029-.002-.044-.003-.021-.002-.042-.004-.062-.007l-.017-.002-.019-.003-.024-.004c-.01-.002-.02-.003-.03-.005-.014-.003-.028-.006-.042-.009-.083-.017-.161-.041-.233-.069-.037-.014-.073-.03-.107-.046-.028-.014-.054-.028-.081-.044-.025-.014-.049-.029-.073-.044-.013-.009-.026-.018-.039-.028-.011-.008-.022-.016-.033-.024-.022-.017-.044-.035-.064-.053-.019-.016-.038-.034-.054-.051-.015-.014-.03-.029-.044-.045s-.029-.032-.042-.049c-.015-.018-.029-.037-.043-.056-.011-.014-.02-.029-.03-.043-.007-.01-.013-.02-.019-.031-.037-.06-.07-.125-.096-.194-.033-.086-.057-.178-.071-.277-.004-.031-.007-.062-.009-.095-.001-.024-.002-.049-.002-.075 0-.018 0-.037.001-.056s.003-.038.005-.057l.001-.014c.004-.022.007-.044.011-.066.002-.009.003-.017.005-.026.004-.018.009-.036.013-.054.007-.023.013-.045.02-.067.01-.027.019-.054.03-.079.017-.041.036-.08.056-.117.012-.022.024-.043.037-.063.01-.017.02-.032.031-.047.014-.02.028-.04.042-.058.015-.019.031-.038.046-.055.019-.022.037-.041.056-.059l.01-.01c.015-.015.032-.031.051-.047.013-.011.026-.023.04-.034.014-.01.028-.022.043-.032.018-.013.037-.026.057-.039.021-.014.043-.027.067-.04.047-.027.098-.052.155-.075.021-.008.043-.016.066-.024s.046-.015.07-.022c.04-.012.083-.022.128-.031.037-.007.074-.012.113-.017s.079-.009.121-.011c.02-.001.04-.001.061-.002h.029c.075 0 .143.003.208.008l.012.001c.025.003.05.005.074.008.036.005.071.01.104.016.021.004.041.008.061.012.031.006.059.014.087.021.021.005.04.011.059.017.023.007.045.014.066.021l.02.007c.01.004.024.009.04.015.021.008.047.018.076.031.018.007.037.016.056.025.017.008.036.016.054.025.007.004.015.008.023.012v.454c-.005-.003-.011-.006-.016-.01l-.031-.018c-.032-.019-.061-.037-.091-.054-.034-.017-.066-.034-.098-.049-.056-.026-.11-.049-.162-.067-.099-.036-.19-.059-.27-.073-.01-.001-.019-.003-.028-.004-.023-.004-.044-.006-.064-.009-.032-.003-.061-.005-.088-.006-.017-.001-.034-.001-.048-.001-.033 0-.066 0-.099.003-.04.003-.08.007-.121.014-.066.011-.132.028-.196.051-.01.004-.02.008-.029.011-.006.003-.012.005-.019.008-.01.004-.021.009-.031.014-.022.01-.044.022-.066.034-.01.006-.021.012-.032.019s-.022.014-.032.021c-.013.009-.026.019-.039.029-.012.01-.025.02-.036.029l-.015.014-.007.007-.005.004-.005.005c-.021.021-.039.041-.057.062-.009.011-.018.023-.027.034-.008.012-.016.023-.023.034s-.014.022-.02.032c-.009.016-.018.033-.026.048-.007.014-.013.027-.018.041-.01.023-.019.046-.025.068-.006.017-.011.034-.014.05-.013.048-.019.091-.022.128-.002.014-.002.027-.003.039-.001.019-.001.034-.001.047v.029c.001.026.003.059.009.097.003.022.008.046.014.072.004.017.009.034.014.052.005.016.011.033.017.049.004.012.009.023.015.034.006.016.013.031.021.046.006.012.013.024.02.036.015.025.032.051.051.077l.021.027c.01.012.02.023.031.035.005.006.01.012.016.017.084.084.177.146.274.191.015.006.031.012.046.019.016.006.031.011.046.016.017.006.035.011.051.016l.048.012c.016.004.032.007.048.01.018.003.035.006.052.008.018.002.036.004.053.006.033.003.066.004.097.004h.032c.024-.001.046-.001.069-.003.016-.001.031-.002.046-.003.028-.003.056-.007.082-.011.024-.003.046-.007.068-.011.032-.007.062-.014.088-.021.018-.005.034-.01.049-.014.022-.006.041-.012.055-.017.025-.009.039-.014.039-.014.022-.008.044-.017.066-.025.029-.012.056-.025.083-.036.022-.011.043-.021.063-.03.016-.008.031-.016.045-.023.025-.014.046-.025.063-.034l.047-.026v.447s-.028.011-.076.029c-.022.009-.047.018-.075.028-.016.006-.033.012-.051.018-.014.004-.028.01-.044.015s-.034.011-.052.016c-.013.004-.027.009-.04.012l-.013.004c-.013.003-.026.007-.04.011-.016.004-.033.009-.049.013-.011.002-.022.005-.032.007-.019.004-.036.008-.054.012-.019.004-.038.007-.056.011"/><path d="m0 0v-.655h.425s.009 0 .023.001c.014 0 .034.001.059.003.046.004.107.013.166.033.053.018.105.045.145.085.015.015.028.031.038.047.033.052.042.106.044.136.001.013.001.021.001.021v.016c-.001.013-.002.037-.009.063-.008.031-.023.067-.05.101-.005.006-.01.012-.016.018-.012.012-.025.023-.039.033-.023.017-.049.032-.078.044-.038.017-.081.029-.128.038-.024.005-.05.008-.076.011-.016.001-.032.002-.049.003-.014.001-.03.002-.044.002z" transform="translate(178.0587 671.2418)"/><path d="m0 0v-.621h.206s.014 0 .032.001c.014 0 .031.001.046.002.043.003.101.009.16.025.011.003.023.007.034.011.046.016.09.04.124.074.028.027.046.056.058.085.014.036.019.07.021.094.002.022.002.035.002.035s.001.01-.001.027c-.001.027-.007.071-.028.113-.01.02-.024.04-.043.059-.023.023-.052.04-.082.054-.058.025-.124.035-.18.039-.024.002-.046.002-.065.002z" transform="translate(178.0587 672.238)"/><path d="m0 0h3.543v-3.334h-3.543zm.93-.467v-2.402h.903s.441-.012.685.231c.198.199.183.428.183.428s.015.239-.169.423c-.156.156-.356.197-.356.197s.091.043.16.112c.032.032.148.137.148.39 0 .254-.17.401-.17.401s-.186.22-.605.22z" transform="translate(176.6991 673.0806)"/><path d="m0 0v-.655h.426s.008 0 .022.001c.014 0 .034.001.059.003.047.004.107.013.166.033.054.018.106.045.145.085.015.015.028.031.039.047.033.052.041.106.043.136.001.013.001.021.001.021v.016c0 .013-.002.037-.008.063-.009.031-.024.067-.05.101-.005.006-.011.012-.017.018-.012.012-.024.023-.038.033-.023.017-.05.032-.079.044-.038.017-.081.029-.128.038-.024.005-.049.008-.075.011-.017.001-.033.002-.05.003-.014.001-.03.002-.045.002z" transform="translate(173.9759 671.2418)"/><path d="m0 0v-.621h.206s.014 0 .032.001c.014 0 .031.001.046.002.043.003.101.009.16.025.011.003.023.007.034.011.046.016.09.04.125.074.027.027.045.056.057.085.015.036.02.07.021.094.002.022.002.035.002.035s.001.01 0 .027c-.002.027-.007.071-.029.113-.01.02-.024.04-.043.059-.023.023-.051.04-.081.054-.058.025-.125.035-.181.039-.024.002-.046.002-.065.002z" transform="translate(173.9759 672.238)"/><path d="m172.617 673.081h3.543v-3.334h-3.543zm.929-.468v-2.401h.904s.441-.013.684.231c.198.198.184.427.184.427s.014.24-.169.423c-.156.156-.356.198-.356.198s.09.042.16.112c.032.032.147.136.147.389 0 .255-.169.402-.169.402s-.186.219-.605.219z"/><path d="m0 0h-1.803v.947h4.653v-.947h-1.803v-4.935h-1.047z" transform="translate(169.9727 666.4764)"/><path d="m0 0h1.146l1.106-4.237h.016l1.321 4.237h1.03l1.296-4.237h.017l1.155 4.237h1.064l-1.712-5.883h-.997l-1.363 4.479h-.016l-1.363-4.479h-.964z" transform="translate(173.8777 667.4236)"/><path d="m0 0c1.221 0 2.027.93 2.027 2.185 0 1.171-.806 2.102-2.027 2.102-1.213 0-2.019-.931-2.019-2.102 0-1.255.806-2.185 2.019-2.185m-.008 5.235c1.836.033 3.132-1.197 3.132-3.083 0-1.837-1.296-3.066-3.132-3.099-1.812 0-3.108 1.229-3.108 3.066 0 1.886 1.296 3.116 3.108 3.116" transform="translate(185.6089 662.3387)"/></g><g transform="matrix(.54701137 0 0 .54701137 34.0052 -528.199679)"><g fill="#fff"><path d="m251.02923 1066.9985 4.473-4.13-.028 31.192-4.445-4.704v-8.848h-17.542v13.587l-4.466-4.697v-22.386l4.466-4.144v13.496h17.542z"/><path d="m255.47423 1094.0465 4.473-3.983h5.684c2.233 0 3.969-.147 5.208-.434 1.246-.315 2.268-.7 3.094-1.162.833-.483 1.582-1.071 2.275-1.75 2.205-2.233 3.304-5.061 3.304-8.477 0-3.353-1.134-6.083-3.395-8.19-.833-.791-1.792-1.449-2.884-1.953-1.071-.511-2.093-.84-3.066-1.001-.959-.161-2.513-.245-4.669-.245h-5.579l-4.431-3.983h10.486c4.242 0 7.609.644 10.073 1.918 2.478 1.274 4.445 3.143 5.908 5.621 1.449 2.471 2.191 5.166 2.191 8.092 0 2.079-.413 4.074-1.211 5.985-.812 1.904-1.96 3.584-3.444 5.033-1.512 1.491-3.283 2.611-5.292 3.367-1.176.462-2.268.777-3.241.938-.98.154-2.863.224-5.642.224h-9.842 9.842c2.779 0 4.662-.07 5.642-.224.973-.161 2.065-.476 3.241-.938 2.009-.756 3.78-1.876 5.292-3.367 1.484-1.449 2.632-3.129 3.444-5.033.798-1.911 1.211-3.906 1.211-5.985 0-2.926-.742-5.621-2.191-8.092-1.463-2.478-3.43-4.347-5.908-5.621-2.464-1.274-5.831-1.918-10.073-1.918h-10.486l4.431 3.983h5.579c2.156 0 3.71.084 4.669.245.973.161 1.995.49 3.066 1.001 1.092.504 2.051 1.162 2.884 1.953 2.261 2.107 3.395 4.837 3.395 8.19 0 3.416-1.099 6.244-3.304 8.477-.693.679-1.442 1.267-2.275 1.75-.826.462-1.848.847-3.094 1.162-1.239.287-2.975.434-5.208.434h-5.684z"/><path d="m255.47423 1094.0465 4.473-3.983h5.684c2.233 0 3.969-.147 5.208-.434 1.246-.315 2.268-.7 3.094-1.162.833-.483 1.582-1.071 2.275-1.75 2.205-2.233 3.304-5.061 3.304-8.477 0-3.353-1.134-6.083-3.395-8.19-.833-.791-1.792-1.449-2.884-1.953-1.071-.511-2.093-.84-3.066-1.001-.959-.161-2.513-.245-4.669-.245h-5.579l-4.431-3.983h10.486c4.242 0 7.609.644 10.073 1.918 2.478 1.274 4.445 3.143 5.908 5.621 1.449 2.471 2.191 5.166 2.191 8.092 0 2.079-.413 4.074-1.211 5.985-.812 1.904-1.96 3.584-3.444 5.033-1.512 1.491-3.283 2.611-5.292 3.367-1.176.462-2.268.777-3.241.938-.98.154-2.863.224-5.642.224z"/></g><g fill="#407c89"><path d="m259.94723 1066.8795-4.466-4.011v31.178l4.466-3.983v-9.555-4.144z"/><path d="m233.48023 1080.5085-.014 13.566 4.473-4.025-.014-9.541z"/><path d="m238.04423 1076.3645-.084-9.352-4.473-4.144v13.496z"/></g></g></svg>