<svg version="1.0" viewBox="0 0 163.25 83.668" xmlns="http://www.w3.org/2000/svg">
 <defs>
  <style type="text/css"/>
 </defs>
 <path d="m90.275 0h25.36v23.864h-25.36v-23.864zm15.976 3.3212c-0.11452-0.01432-0.22904-0.03579-0.34357-0.0501l-0.13599-0.02147c-0.19326-0.02863-0.39367-0.0501-0.58693-0.07158-0.136-0.0072-0.27199-0.02147-0.40799-0.02863-0.2362-0.01432-0.47956-0.02147-0.70145-0.02147-0.10737 0-0.17179 0-0.27199 0.0072-0.1861 0-0.3722 0.0072-0.5583 0.02147-0.10737 0.0072-0.20758 0.01432-0.31494 0.02147-0.15031 0.01432-0.30063 0.02863-0.44378 0.0501l-0.12168 0.01431-0.136 0.02147-0.17178 0.02863c-0.0716 0.01431-0.14315 0.02147-0.21473 0.03579-0.10021 0.02147-0.20042 0.04295-0.30062 0.06442-0.59409 0.12168-1.1524 0.29346-1.6677 0.49388-0.26484 0.10021-0.52251 0.21473-0.76588 0.32925-0.20041 0.10021-0.38651 0.20042-0.57977 0.31494-0.17894 0.10021-0.35072 0.20757-0.52251 0.31494-0.093 0.06442-0.1861 0.12884-0.27915 0.20042-0.0787 0.05726-0.15747 0.11452-0.2362 0.17178-0.15747 0.12168-0.31494 0.25052-0.45809 0.37936-0.136 0.11452-0.272 0.24336-0.38652 0.36504-0.10736 0.10021-0.21473 0.20757-0.31494 0.3221-0.1002 0.11452-0.20757 0.22904-0.30062 0.35073-0.10736 0.12884-0.20757 0.26483-0.30778 0.40083-0.0787 0.10021-0.14315 0.20757-0.21473 0.30778-0.0501 0.07158-0.093 0.14315-0.136 0.22189-0.26483 0.42946-0.50103 0.89471-0.68713 1.3886-0.23621 0.61556-0.40799 1.2741-0.5082 1.9827-0.0286 0.22189-0.0501 0.44378-0.0644 0.67998-7e-3 0.17178-0.0143 0.35073-0.0143 0.53683 0 0.12884 0 0.26484 7e-3 0.40083s0.0215 0.27199 0.0358 0.40799l7e-3 0.10021c0.0286 0.15747 0.0501 0.31494 0.0787 0.47241 0.0143 0.06442 0.0215 0.12168 0.0358 0.1861 0.0286 0.12884 0.0644 0.25768 0.0931 0.38652 0.0501 0.16463 0.0931 0.3221 0.14316 0.47956 0.0716 0.19326 0.13599 0.38652 0.21473 0.56546 0.12168 0.29346 0.25767 0.57262 0.40083 0.83745 0.0859 0.15747 0.17178 0.30778 0.26483 0.45093 0.0716 0.12168 0.14315 0.22905 0.22189 0.33641 0.10021 0.14315 0.20041 0.28631 0.30062 0.41515 0.10737 0.136 0.22189 0.27199 0.32926 0.39367 0.13599 0.15747 0.26483 0.29346 0.40083 0.4223l0.0716 0.07158c0.10737 0.10737 0.22905 0.22189 0.36504 0.33641 0.093 0.07873 0.1861 0.16463 0.28631 0.24336 0.10021 0.07158 0.20042 0.15747 0.30778 0.22905 0.12884 0.09305 0.26484 0.1861 0.40799 0.27915 0.15031 0.10021 0.30778 0.19326 0.47957 0.28631 0.33641 0.19326 0.70145 0.3722 1.1094 0.53683 0.15031 0.05726 0.30778 0.11452 0.4724 0.17178 0.16463 0.05726 0.32926 0.10737 0.50104 0.15747 0.28631 0.08589 0.59409 0.15747 0.91618 0.22189 0.26484 0.0501 0.52967 0.08589 0.80882 0.12168s0.56546 0.06442 0.86608 0.07874c0.14316 0.0072 0.28631 0.0072 0.43662 0.01432h0.20757c0.53683 0 1.0236-0.02147 1.4888-0.05726l0.0859-0.0072c0.17895-0.02147 0.35789-0.03579 0.52967-0.05726 0.25768-0.03579 0.5082-0.07158 0.7444-0.11452 0.15031-0.02863 0.29347-0.05726 0.43662-0.08589 0.22189-0.04295 0.4223-0.10021 0.62272-0.15031 0.15031-0.03579 0.28631-0.07873 0.4223-0.12168 0.16463-0.0501 0.3221-0.10021 0.47241-0.15031l0.14315-0.0501c0.0716-0.02863 0.17179-0.06442 0.28631-0.10736 0.15031-0.05726 0.33641-0.12884 0.54399-0.22189 0.12883-0.0501 0.26483-0.11452 0.40083-0.17894 0.12168-0.05726 0.25767-0.11452 0.38651-0.17894 0.0501-0.02863 0.10737-0.05726 0.16463-0.08589v-3.2496c-0.0358 0.02147-0.0787 0.04295-0.11453 0.07158l-0.22188 0.12884c-0.22905 0.136-0.43662 0.26483-0.65135 0.38652-0.24336 0.12168-0.47241 0.24336-0.70146 0.35073-0.40083 0.1861-0.78734 0.35073-1.1595 0.47956-0.70861 0.25768-1.36 0.4223-1.9326 0.52251-0.0716 0.0072-0.13599 0.02147-0.20041 0.02863-0.16463 0.02863-0.31494 0.04295-0.45809 0.06442-0.22905 0.02147-0.43662 0.03579-0.62988 0.04295-0.12168 0.0072-0.24336 0.0072-0.34357 0.0072-0.2362 0-0.4724 0-0.70861-0.02147-0.28631-0.02147-0.57261-0.0501-0.86608-0.10021-0.47241-0.07873-0.94481-0.20042-1.4029-0.36504-0.0716-0.02863-0.14316-0.05726-0.20758-0.07873-0.0429-0.02147-0.0859-0.03579-0.13599-0.05726-0.0716-0.02863-0.15031-0.06442-0.22189-0.10021-0.15747-0.07158-0.31494-0.15747-0.47241-0.24336-0.0716-0.04295-0.15031-0.08589-0.22904-0.136-0.0787-0.0501-0.15747-0.10021-0.22905-0.15031-0.093-0.06442-0.1861-0.136-0.27915-0.20757-0.0859-0.07158-0.17894-0.14315-0.25768-0.20757l-0.10736-0.10021-0.0501-0.0501-0.0358-0.02863-0.0358-0.03579c-0.15031-0.15031-0.27915-0.29346-0.40799-0.44378-0.0644-0.07874-0.12884-0.16463-0.19326-0.24336-0.0573-0.08589-0.11452-0.16463-0.16462-0.24336s-0.10021-0.15747-0.14316-0.22905c-0.0644-0.11452-0.12884-0.2362-0.1861-0.34357-0.0501-0.10021-0.093-0.19326-0.12884-0.29346-0.0716-0.16463-0.13599-0.32925-0.17894-0.48672-0.0429-0.12168-0.0787-0.24336-0.10021-0.35788-0.093-0.34357-0.13599-0.65135-0.15746-0.91618-0.0143-0.10021-0.0143-0.19326-0.0215-0.27915-7e-3 -0.136-7e-3 -0.24336-7e-3 -0.33641v-0.20757c7e-3 -0.1861 0.0215-0.4223 0.0644-0.6943 0.0215-0.15747 0.0573-0.32925 0.10021-0.51535 0.0286-0.12168 0.0644-0.24336 0.10021-0.3722 0.0358-0.11452 0.0787-0.2362 0.12168-0.35073 0.0286-0.08589 0.0644-0.16463 0.10736-0.24336 0.0429-0.11452 0.093-0.22189 0.15032-0.32925 0.0429-0.08589 0.0931-0.17178 0.14315-0.25768 0.10736-0.17894 0.22905-0.36504 0.36504-0.55114 0.0501-0.06442 0.10021-0.12884 0.15031-0.19326 0.0716-0.08589 0.14316-0.16463 0.22189-0.25052 0.0358-0.04295 0.0716-0.08589 0.11452-0.12168 0.60125-0.60124 1.2669-1.045 1.9612-1.3671 0.10736-0.04295 0.22189-0.08589 0.32925-0.136 0.11453-0.04295 0.22189-0.07873 0.32926-0.11452 0.12168-0.04295 0.25052-0.07874 0.36504-0.11452 0.11452-0.02863 0.22904-0.05726 0.34357-0.08589 0.11452-0.02863 0.22904-0.0501 0.34357-0.07158 0.12883-0.02147 0.25051-0.04295 0.3722-0.05726 0.12883-0.01432 0.25767-0.02863 0.37935-0.04295 0.23621-0.02147 0.47241-0.02863 0.6943-0.02863h0.22904c0.17179 0.0072 0.32926 0.0072 0.49388 0.02147 0.11453 0.0072 0.22189 0.01432 0.32926 0.02147 0.20041 0.02147 0.40083 0.0501 0.58693 0.07874 0.17178 0.02147 0.32925 0.0501 0.48672 0.07873 0.22905 0.0501 0.44378 0.10021 0.62988 0.15031 0.12883 0.03579 0.24336 0.07158 0.35072 0.10021 0.15747 0.04295 0.29347 0.08589 0.39368 0.12168 0.17894 0.06442 0.27914 0.10021 0.27914 0.10021 0.15747 0.05726 0.31494 0.12168 0.47241 0.17894 0.20757 0.08589 0.40083 0.17894 0.59409 0.25768 0.15747 0.07873 0.30778 0.15031 0.45093 0.21473 0.11453 0.05726 0.22189 0.11452 0.3221 0.16463 0.17894 0.10021 0.32925 0.17894 0.45093 0.24336l0.33641 0.1861v-3.1995s-0.20041-0.07874-0.54398-0.20757c-0.15747-0.06442-0.33641-0.12884-0.53683-0.20042-0.11452-0.04295-0.2362-0.08589-0.36504-0.12884-0.1002-0.02863-0.20041-0.07158-0.31494-0.10737-0.11452-0.03579-0.24336-0.07873-0.37219-0.11452-0.0931-0.02863-0.19326-0.06442-0.28631-0.08589l-0.0931-0.02863c-0.0931-0.02147-0.1861-0.0501-0.28631-0.07873-0.11452-0.02863-0.2362-0.06442-0.35073-0.09305-0.0787-0.01432-0.15746-0.03579-0.22904-0.0501-0.136-0.02863-0.25768-0.05726-0.38652-0.08589-0.13599-0.02863-0.27199-0.0501-0.40083-0.07873" fill="#005e70"/>
 <g transform="matrix(7.1577 0 0 -7.1577 70.782 13.164)" fill="#005e70">
  <path d="m0 0v-0.655h0.425s9e-3 0 0.023 1e-3c0.014 0 0.034 1e-3 0.059 3e-3 0.046 4e-3 0.107 0.013 0.166 0.033 0.053 0.018 0.105 0.045 0.145 0.085 0.015 0.015 0.028 0.031 0.038 0.047 0.033 0.052 0.042 0.106 0.044 0.136 1e-3 0.013 1e-3 0.021 1e-3 0.021v0.016c-1e-3 0.013-2e-3 0.037-9e-3 0.063-8e-3 0.031-0.023 0.067-0.05 0.101-5e-3 6e-3 -0.01 0.012-0.016 0.018-0.012 0.012-0.025 0.023-0.039 0.033-0.023 0.017-0.049 0.032-0.078 0.044-0.038 0.017-0.081 0.029-0.128 0.038-0.024 5e-3 -0.05 8e-3 -0.076 0.011-0.016 1e-3 -0.032 2e-3 -0.049 3e-3 -0.014 1e-3 -0.03 2e-3 -0.044 2e-3h-0.412z" fill="#005e70"/>
 </g>
 <g transform="matrix(7.1577 0 0 -7.1577 70.782 6.0339)" fill="#005e70">
  <path d="m0 0v-0.621h0.206s0.014 0 0.032 1e-3c0.014 0 0.031 1e-3 0.046 2e-3 0.043 3e-3 0.101 9e-3 0.16 0.025 0.011 3e-3 0.023 7e-3 0.034 0.011 0.046 0.016 0.09 0.04 0.124 0.074 0.028 0.027 0.046 0.056 0.058 0.085 0.014 0.036 0.019 0.07 0.021 0.094 2e-3 0.022 2e-3 0.035 2e-3 0.035s1e-3 0.01-1e-3 0.027c-1e-3 0.027-7e-3 0.071-0.028 0.113-0.01 0.02-0.024 0.04-0.043 0.059-0.023 0.023-0.052 0.04-0.082 0.054-0.058 0.025-0.124 0.035-0.18 0.039-0.024 2e-3 -0.046 2e-3 -0.065 2e-3h-0.284z" fill="#005e70"/>
 </g>
 <g transform="matrix(7.1577 0 0 -7.1577 61.051 .002863)" fill="#005e70">
  <path d="m0 0h3.543v-3.334h-3.543v3.334zm0.93-0.467v-2.402h0.903s0.441-0.012 0.685 0.231c0.198 0.199 0.183 0.428 0.183 0.428s0.015 0.239-0.169 0.423c-0.156 0.156-0.356 0.197-0.356 0.197s0.091 0.043 0.16 0.112c0.032 0.032 0.148 0.137 0.148 0.39 0 0.254-0.17 0.401-0.17 0.401s-0.186 0.22-0.605 0.22h-0.779z" fill="#005e70"/>
 </g>
 <g transform="matrix(7.1577 0 0 -7.1577 41.559 13.164)" fill="#005e70">
  <path d="m0 0v-0.655h0.426s8e-3 0 0.022 1e-3c0.014 0 0.034 1e-3 0.059 3e-3 0.047 4e-3 0.107 0.013 0.166 0.033 0.054 0.018 0.106 0.045 0.145 0.085 0.015 0.015 0.028 0.031 0.039 0.047 0.033 0.052 0.041 0.106 0.043 0.136 1e-3 0.013 1e-3 0.021 1e-3 0.021v0.016c0 0.013-2e-3 0.037-8e-3 0.063-9e-3 0.031-0.024 0.067-0.05 0.101-5e-3 6e-3 -0.011 0.012-0.017 0.018-0.012 0.012-0.024 0.023-0.038 0.033-0.023 0.017-0.05 0.032-0.079 0.044-0.038 0.017-0.081 0.029-0.128 0.038-0.024 5e-3 -0.049 8e-3 -0.075 0.011-0.017 1e-3 -0.033 2e-3 -0.05 3e-3 -0.014 1e-3 -0.03 2e-3 -0.045 2e-3h-0.411z" fill="#005e70"/>
 </g>
 <g transform="matrix(7.1577 0 0 -7.1577 41.559 6.0339)" fill="#005e70">
  <path d="m0 0v-0.621h0.206s0.014 0 0.032 1e-3c0.014 0 0.031 1e-3 0.046 2e-3 0.043 3e-3 0.101 9e-3 0.16 0.025 0.011 3e-3 0.023 7e-3 0.034 0.011 0.046 0.016 0.09 0.04 0.125 0.074 0.027 0.027 0.045 0.056 0.057 0.085 0.015 0.036 0.02 0.07 0.021 0.094 2e-3 0.022 2e-3 0.035 2e-3 0.035s1e-3 0.01 0 0.027c-2e-3 0.027-7e-3 0.071-0.029 0.113-0.01 0.02-0.024 0.04-0.043 0.059-0.023 0.023-0.051 0.04-0.081 0.054-0.058 0.025-0.125 0.035-0.181 0.039-0.024 2e-3 -0.046 2e-3 -0.065 2e-3h-0.284z" fill="#005e70"/>
 </g>
 <path d="m31.832 0h25.36v23.864h-25.36v-23.864zm6.6495 3.3498v17.186h6.4705s3.1565 0.09305 4.8959-1.6534c1.4172-1.4172 1.317-3.0563 1.317-3.0563s0.10021-1.7178-1.2096-3.0277c-1.1166-1.1166-2.5481-1.4172-2.5481-1.4172s0.64419-0.30062 1.1452-0.80166c0.22905-0.22905 1.0522-0.97344 1.0522-2.7843 0-1.8252-1.2096-2.8774-1.2096-2.8774s-1.3313-1.5675-4.3304-1.5675h-5.583z" fill="#005e70"/>
 <g transform="matrix(7.1577 0 0 -7.1577 12.905 47.274)" fill="#005e70">
  <path d="m0 0h-1.803v0.947h4.653v-0.947h-1.803v-4.935h-1.047v4.935z" fill="#005e70"/>
 </g>
 <g transform="matrix(7.1577 0 0 -7.1577 40.856 40.494)" fill="#005e70">
  <path d="m0 0h1.146l1.106-4.237h0.016l1.321 4.237h1.03l1.296-4.237h0.017l1.155 4.237h1.064l-1.712-5.883h-0.997l-1.363 4.479h-0.016l-1.363-4.479h-0.964l-1.736 5.883z" fill="#005e70"/>
 </g>
 <g transform="matrix(7.1577 0 0 -7.1577 124.82 76.89)" fill="#005e70">
  <path d="m0 0c1.221 0 2.027 0.93 2.027 2.185 0 1.171-0.806 2.102-2.027 2.102-1.213 0-2.019-0.931-2.019-2.102 0-1.255 0.806-2.185 2.019-2.185m-8e-3 5.235c1.836 0.033 3.132-1.197 3.132-3.083 0-1.837-1.296-3.066-3.132-3.099-1.812 0-3.108 1.229-3.108 3.066 0 1.886 1.296 3.116 3.108 3.116" fill="#005e70"/>
 </g>
 <path d="m145.13 24.32 2.4468-2.2592-0.0153 17.062-2.4315-2.5731v-4.84h-9.5957v7.4322l-2.443-2.5693v-12.245l2.443-2.2668v7.3825h9.5957v-5.1233z" fill="#005e70"/>
 <path d="m147.56 39.116 2.4468-2.1787h3.1092c1.2215 0 2.1711-0.08041 2.8488-0.2374 0.68158-0.17231 1.2406-0.38291 1.6925-0.63563 0.45566-0.26421 0.86537-0.58585 1.2444-0.95727 1.2062-1.2215 1.8073-2.7684 1.8073-4.637 0-1.8341-0.62031-3.3275-1.8571-4.48-0.45566-0.43269-0.98025-0.79262-1.5776-1.0683-0.58585-0.27952-1.1449-0.45949-1.6771-0.54756-0.52458-0.08807-1.3746-0.13402-2.554-0.13402h-3.0518l-2.4238-2.1787h5.736c2.3204 0 4.1622 0.35228 5.51 1.0492 1.3555 0.69689 2.4315 1.7193 3.2317 3.0748 0.79262 1.3517 1.1985 2.8259 1.1985 4.4264 0 1.1372-0.22591 2.2285-0.66243 3.2739-0.44417 1.0415-1.0721 1.9605-1.8839 2.7531-0.82708 0.81559-1.7958 1.4282-2.8948 1.8418-0.64329 0.25272-1.2406 0.42503-1.7729 0.5131-0.53607 0.08424-1.5661 0.12253-3.0862 0.12253h-5.3837 5.3837c1.5201 0 2.5502-0.03829 3.0862-0.12253 0.53224-0.08807 1.1296-0.26038 1.7729-0.5131 1.099-0.41354 2.0677-1.0262 2.8948-1.8418 0.81177-0.79262 1.4397-1.7116 1.8839-2.7531 0.43652-1.0453 0.66243-2.1366 0.66243-3.2739 0-1.6006-0.40588-3.0748-1.1985-4.4264-0.80028-1.3555-1.8762-2.3779-3.2317-3.0748-1.3478-0.69689-3.1896-1.0492-5.51-1.0492h-5.736l2.4238 2.1787h3.0518c1.1794 0 2.0294 0.04595 2.554 0.13402 0.53224 0.08807 1.0913 0.26804 1.6771 0.54756 0.59733 0.27569 1.1219 0.63563 1.5776 1.0683 1.2368 1.1526 1.8571 2.6459 1.8571 4.48 0 1.8686-0.60116 3.4155-1.8073 4.637-0.37908 0.37142-0.78879 0.69306-1.2444 0.95727-0.45184 0.25272-1.0109 0.46332-1.6925 0.63563-0.67775 0.15699-1.6274 0.2374-2.8488 0.2374h-3.1092l-2.4468 2.1787z" fill="#fff"/>
 <path d="m147.56 39.116 2.4468-2.1787h3.1092c1.2215 0 2.1711-0.08041 2.8488-0.2374 0.68158-0.17231 1.2406-0.38291 1.6925-0.63563 0.45566-0.26421 0.86537-0.58585 1.2444-0.95727 1.2062-1.2215 1.8073-2.7684 1.8073-4.637 0-1.8341-0.62031-3.3275-1.8571-4.48-0.45566-0.43269-0.98025-0.79262-1.5776-1.0683-0.58585-0.27952-1.1449-0.45949-1.6771-0.54756-0.52458-0.08807-1.3746-0.13402-2.554-0.13402h-3.0518l-2.4238-2.1787h5.736c2.3204 0 4.1622 0.35228 5.51 1.0492 1.3555 0.69689 2.4315 1.7193 3.2317 3.0748 0.79262 1.3517 1.1985 2.8259 1.1985 4.4264 0 1.1372-0.22591 2.2285-0.66243 3.2739-0.44417 1.0415-1.0721 1.9605-1.8839 2.7531-0.82708 0.81559-1.7958 1.4282-2.8948 1.8418-0.64329 0.25272-1.2406 0.42503-1.7729 0.5131-0.53607 0.08424-1.5661 0.12253-3.0862 0.12253h-5.3837z" fill="#005e70"/>
 <path d="m150.01 24.255-2.443-2.1941v17.055l2.443-2.1787v-12.682z" fill="#407c89"/>
 <path d="m135.53 31.71-8e-3 7.4208 2.4468-2.2017-8e-3 -5.219h-2.4315z" fill="#407c89"/>
 <path d="m138.03 29.444-0.0459-5.1157-2.4468-2.2668v7.3825h2.4927z" fill="#407c89"/>
</svg>
