<svg version="1.1" viewBox="0 0 863.99 299.46" xmlns="http://www.w3.org/2000/svg">
 <path d="m232.54 0c-0.5875 37.3-0.0762 74.625-0.26367 111.94 39.538 0.05 79.089 0.05 118.64 0-0.0125-36.938 0.0609-73.876-0.0391-110.8-0.275-0.25-0.82461-0.72462-1.0996-0.97461-39.075-0.21249-78.161 0.1254-117.24-0.1621zm44.461 15.865c4.5594-6e-3 9.1195 2e-3 13.676 0.0586 8.7 0.1875 18.124 3.9125 22.387 11.938 4.9 8.675 1.8008 21.088-7.5117 25.4 4.6125 2.1375 9.5121 4.2012 12.725 8.3262 5.775 7.025 5.7629 18.075-0.0996 25.037-5.625 7-14.999 9.4996-23.637 9.6621-10.388 0.075-20.788 0.0129-31.176 0.0254 0-26.8 0.0629-53.612-0.0371-80.412 4.5562-6e-3 9.1144-0.0289 13.674-0.0352zm9.6816 12.502c-3.0188-0.0391-6.075 0.18868-9.0312 0.0449 0 6.9875-0.0113 13.975 0.0137 20.975 5.8125-0.025 11.974 0.42618 17.424-1.9863 6.9-2.825 7.5754-14.602 0.40039-17.477-2.8062-1.2125-5.7879-1.5176-8.8066-1.5566zm3.8047 33.414c-4.2891-0.0531-8.6547 0.33711-12.836 0.0684-0.0125 7.3 7.8e-4 14.599-0.0117 21.887 6.475-0.1375 12.974 0.38789 19.424-0.41211 3.725-0.6625 7.8004-2.2621 9.5879-5.8496 2.5625-4.45 0.91289-10.812-3.7871-13.1-3.875-2.0438-8.0879-2.5406-12.377-2.5938z" fill="#9d0a0e"/>
 <path d="m368.88 0.0996c-0.0875 37.288-0.0121 74.576-0.0371 111.86 39.525 0 79.038 0.0113 118.56-0.0137-0.0125-37.275 0.0371-74.563-0.0254-111.84-39.5-0.025-79 7.8e-4 -118.5-0.0117zm44.477 15.75c4.5375 3e-3 9.0738 0.0375 13.611 0.0625 8.1125 0.15001 16.851 3.1508 21.576 10.113 3.575 4.9875 3.8863 11.612 2.3613 17.387-1.3 4.5375-5.05 7.6254-8.8125 10.15 5.625 1.6875 10.95 4.9867 14.15 10.012 4.425 7.0125 3.7992 16.8-1.6133 23.125-5.3625 6.7375-14.298 9.275-22.586 9.5625-10.725 0.14999-21.462-0.0113-32.188 0.0762-0.075-26.787 0.13672-53.576-0.11328-80.363 4.5375-0.1 9.0758-0.12812 13.613-0.125zm7.7109 12.523c-2.3131 0.0327-4.6297 0.13516-6.8984 0.0508 0 6.9875-0.0133 13.964 0.0117 20.951 6.1125-0.0125 12.688 0.52461 18.301-2.4004 6.15-3.375 6.4988-13.937-0.13867-16.975-3.5781-1.5391-7.4202-1.6815-11.275-1.627zm6.2734 33.404c-4.4016-0.0688-8.8969 0.36562-13.172 0.10937 0 7.2875-0.0133 14.562 0.0117 21.85 5.9625-0.1 11.938 0.25039 17.9-0.22461 4.2125-0.3875 8.7492-1.9613 11.074-5.7363 2.3-4.3375 1.3871-10.613-3.2129-13.088-3.8938-2.2688-8.2-2.8414-12.602-2.9102z" fill="#9d0a0e"/>
 <path d="m623.75 0c-39.462 0.2375-78.924 0.0371-118.39 0.0996-0.0625 37.288-0.0254 74.562-0.0254 111.85 39.538 0.05 79.062-0.0121 118.6 0.0254-0.1-37.325 0.275-74.662-0.1875-111.97zm-54.064 14.893c2.6-3e-3 5.2079 0.1625 7.8008 0.48243 2.5929 0.31992 5.1695 0.79531 7.709 1.4141s5.0407 1.3801 7.4805 2.2734c2.4398 0.89335 4.8195 1.9188 7.1133 3.0625-0.2375 4.775-0.12539 9.5629-0.15039 14.338-2.6875-1.425-5.4607-2.7869-8.3027-3.9961s-5.7531-2.266-8.7148-3.084-5.9748-1.3971-9.0215-1.6484c-1.5233-0.12568-3.0557-0.16995-4.5938-0.12109-1.5381 0.0488-3.0824 0.19023-4.6309 0.43554-1.3375 0.15782-2.6673 0.40677-3.9805 0.74024s-2.6086 0.75244-3.873 1.252c-1.2644 0.49951-2.4981 1.0804-3.6894 1.7363s-2.3398 1.3867-3.4336 2.1894c-1.0938 0.80274-2.1337 1.6773-3.1055 2.6172-0.97178 0.93992-1.8758 1.9462-2.7012 3.0137s-1.572 2.1954-2.2266 3.3809c-0.65459 1.1854-1.2184 2.427-1.6777 3.7207-0.48594 1.275-0.86694 2.5878-1.1465 3.9219-0.27954 1.3341-0.45761 2.6899-0.53515 4.0527-0.0775 1.3628-0.0537 2.7326 0.0664 4.0938 0.12007 1.3612 0.33711 2.7137 0.6504 4.043 0.31328 1.3293 0.7225 2.6353 1.2246 3.9024s1.0967 2.4954 1.7832 3.6699c0.68652 1.1745 1.4655 2.2941 2.332 3.3457 0.86655 1.0516 1.8211 2.0352 2.8633 2.9336 1.3625 1.2375 2.8451 2.3108 4.416 3.2324 1.5709 0.92168 3.2305 1.6926 4.9453 2.3262 1.7148 0.63359 3.485 1.1287 5.2793 1.502 1.7943 0.37324 3.6125 0.62305 5.4219 0.76367 2.9625 0.22813 5.916 0.13379 8.834-0.23632 2.918-0.37012 5.8004-1.0145 8.6191-1.8887 2.8188-0.87422 5.5734-1.9775 8.2383-3.2617 2.6648-1.2842 5.2391-2.7496 7.6953-4.3496-0.0125 5.1375 0.0625 10.274-0.0625 15.424-3.3375 1.6781-6.8133 3.0783-10.381 4.1856s-7.2254 1.9215-10.924 2.4316c-3.6984 0.51016-7.4379 0.7166-11.168 0.60352-3.7301-0.11309-7.4508-0.54414-11.113-1.3066-1.6031-0.33906-3.1896-0.77073-4.7461-1.2891-1.5565-0.51833-3.0842-1.1243-4.5742-1.8125-1.49-0.68818-2.9419-1.458-4.3457-2.3066s-2.759-1.7758-4.0566-2.7754c-1.2976-0.99961-2.5372-2.0717-3.709-3.2129s-2.2748-2.3517-3.3008-3.625-1.9755-2.6098-2.8359-4.0059-1.6316-2.852-2.3066-4.3613c-1.0078-2.0953-1.7931-4.2683-2.3633-6.4883s-0.92676-4.4869-1.0801-6.7676c-0.15332-2.2807-0.1021-4.5761 0.14063-6.8535 0.24272-2.2774 0.67695-4.5359 1.2949-6.7461 0.61797-2.2102 1.4182-4.3703 2.3906-6.4492 0.97242-2.079 2.1178-4.0772 3.4238-5.9609 1.3061-1.8838 2.7737-3.6546 4.3926-5.2793s3.3898-3.1027 5.3008-4.4043c2.1656-1.5375 4.4317-2.859 6.7754-3.9766 2.3436-1.1176 4.7648-2.032 7.2402-2.7539 2.4754-0.72188 5.0036-1.2512 7.5644-1.6016s5.1539-0.52226 7.7539-0.52539z" fill="#9d0a0e"/>
 <path d="m0 195.59c0.025 34.588-0.01161 69.174 0.02539 103.76 4.95 0.013 9.8879 0.013 14.838 0 0.012-14.987 0.012-29.962 0-44.938 13.038-0.21249 27.488 1.7125 38.9-6.0625 12.962-8.525 14.661-27.837 6.6113-40.262-5.6125-8.475-16.087-12.325-25.912-12.463-11.488-0.1125-22.975-0.0121-34.463-0.0371zm28.521 13.166c2.2664 4e-3 4.5197 0.0975 6.7402 0.39844 2.2205 0.30098 4.4078 0.80898 6.5391 1.6465 1.4172 0.63125 2.6478 1.4796 3.6953 2.4883 1.0476 1.0086 1.9121 2.1791 2.5938 3.4551 0.68164 1.276 1.1806 2.6566 1.5 4.0898 0.31943 1.4332 0.45898 2.918 0.41992 4.3984-0.03906 1.4805-0.25654 2.9574-0.65039 4.375s-0.96406 2.7768-1.709 4.0215-1.6636 2.3742-2.7559 3.3359c-1.0923 0.96176-2.357 1.7555-3.793 2.3242-2.0875 0.80313-4.2287 1.2789-6.4004 1.5508-2.1717 0.27187-4.375 0.33984-6.5898 0.32421-4.4297-0.0312-8.9035-0.39453-13.26-0.11328 0.087-10.738-0.08839-21.473 0.09961-32.211 4.4562 0.25625 9.0375-0.0918 13.57-0.084z" fill="#fff"/>
 <path d="m99.264 194.89c-14.912 34.799-29.712 69.65-44.6 104.45 5.05 0.025 10.088-8.9e-4 15.125 0.0371 4.4875-10.188 8.6996-20.5 13.162-30.688 14.7 0.013 29.388-0.0243 44.088 0.0137 4.6375 10.188 9.1992 20.412 13.762 30.637 5.075 0.026 10.151 0.0267 15.238 0.0137-15.512-34.8-30.912-69.649-46.438-104.45-3.45-0.0125-6.9004-0.0137-10.338-0.0137zm5.0488 22.875c5.225 12.688 11.462 24.95 16.438 37.725-10.675-0.225-21.348 0.0749-32.023-0.0371 5.15-12.588 10.223-25.2 15.586-37.688z" fill="#fff"/>
 <path d="m167.68 195.57c0 34.588-0.0133 69.174 0.0117 103.76 4.95 0.025 9.9133 0.0141 14.863 0.0391 0.062-15.038-0.0242-30.076 0.0508-45.113 4.0375 0.125 8.1992-0.33711 12.137 0.77539 6.0125 2.15 10.25 7.2488 14.1 12.111 7.825 10.275 14.126 21.612 21.426 32.25 5.8625-0.074 11.712-0.0371 17.574-0.0371-5.4625-7.525-10.95-15.049-15.713-23.049-6.0125-9.5375-11.812-19.838-21.449-26.188 6.5375-2.9 12.537-7.7504 15.162-14.588 3.8375-9.975 2.35-22.387-5.125-30.312-6.425-6.7125-15.95-9.4496-25.025-9.5996-9.3375-0.1125-18.674-7.9e-4 -28.012-0.0508zm14.9 12.764c3.625 0.125 7.3531-0.0984 11.031 0.0234 1.8391 0.0609 3.666 0.20821 5.4609 0.52735s3.557 0.81054 5.2695 1.5605c1.3641 0.56251 2.5592 1.3345 3.584 2.2637 1.0248 0.92917 1.88 2.0161 2.5684 3.2109 0.68838 1.1948 1.2097 2.498 1.5645 3.8574 0.35471 1.3594 0.54257 2.7742 0.5664 4.1973 0.0238 1.423-0.1176 2.8527-0.42187 4.2383s-0.7708 2.7274-1.4004 3.9746-1.4209 2.4005-2.373 3.4082c-0.95212 1.0077-2.066 1.8699-3.3379 2.5371-1.7219 0.94063-3.5207 1.5664-5.3672 1.9785s-3.7402 0.61016-5.6543 0.69922c-3.8281 0.17812-7.734-0.0836-11.49 0.0351v-32.512z" fill="#fff"/>
 <path d="m259.01 195.56c4.975 0.025 9.9375 0.0125 14.912 0.0125-0.0375 30.113 0.025 60.225-0.025 90.338 15.638 0.05 31.288-0.037 46.938 0.05 0 4.45 0 8.9125-0.0125 13.375-20.6 0.038-41.212 0.013-61.812 0.013-0.025-34.6-0.025-69.188 0-103.79z" fill="#fff"/>
 <path d="m333.79 195.55c4.9625 0 9.925 0.0125 14.9-0.0125 0 34.613 0.0125 69.213-0.0125 103.81-4.95 0.013-9.9125 0-14.862 0.013-0.0375-34.612 0.0125-69.212-0.025-103.81z" fill="#fff"/>
 <path d="m415.06 194.81c-3.45 0.0625-6.8984 0.0742-10.336 0.13671v2e-3c-14.862 34.813-29.651 69.65-44.613 104.41 5 0 10.012-0.0754 15.012 0.0996 4.9125-10.025 8.9258-20.487 13.363-30.725 14.638-0.138 29.288 0.0371 43.926-0.0879 4.9125 10.138 9.1625 20.586 14.062 30.736 5.025-0.051 10.061-0.0241 15.086-0.0371-15.575-34.812-30.7-69.837-46.5-104.54zm-5.4609 22.975c5.8375 12.45 11.338 25.062 16.875 37.662-10.662-0.013-21.326 0.0379-31.988-0.0371 2.3-6.35 4.893-12.59 7.5039-18.826 2.6109-6.2359 5.2406-12.468 7.6094-18.799z" fill="#fff"/>
 <path d="m472.65 195.56c4.65 0.0125 9.3125 0.0125 13.975 0.0375 11.388 14.138 22.95 28.15 34.15 42.45 11.862-13.662 22.762-28.175 34.388-42.05 4.5-1.05 9.425-0.125 14.1-0.4125-0.0375 34.588 0.025 69.175-0.0375 103.76-4.975 0.013-9.9625 0.025-14.938-0.037 0.175-27.038-0.325-54.075 0.2625-81.1-11.038 13.05-21.262 26.788-32.075 40.025-1.0875 1.2-3.1125 0.3-3.7625-0.9625-10.45-12.95-20.6-26.138-31.15-38.988-0.075 27.012-0.0125 54.038-0.025 81.062-4.975 0.013-9.925 0.013-14.888 0-0.0125-34.6-0.0125-69.188 0-103.79z" fill="#fff"/>
 <path d="m591.55 195.74c19.6-0.35 39.225-0.0625 58.825-0.15-0.0125 4.4125-0.0125 8.825 0.0125 13.25-14.625 0.025-29.238-0.0125-43.862 0.0125-0.075 10.438-0.025 20.888-0.025 31.325 14.138 0.062 28.3-0.25 42.438 0.1625-0.0875 4.4125-0.0625 8.8375-0.025 13.262-14.138 0.013-28.275 0-42.412 0.013-0.025 10.762 0.0125 21.538-0.025 32.3 15.1 0.038 30.2-0.025 45.288 0.038-0.05 4.4625-0.05 8.925-0.0375 13.388-20.025 0.025-40.05 0.038-60.075-0.012-0.075-34.525 0.1-69.062-0.1-103.59z" fill="#fff"/>
 <path d="m667.41 195.57c3.95 0 7.9125 0 11.875 0.0125 23.512 26.688 46.675 53.7 70.388 80.213-0.0625-26.738 0.0125-53.475-0.0375-80.2 4.6-0.0375 9.2125-0.025 13.825-0.0125 0.0125 34.588 0.0125 69.175 0 103.75-4.2375 0.025-8.475 0.025-12.7 0.013-23.175-26.538-46.15-53.262-69.325-79.8-0.1125 26.612 0.05 53.225-0.0875 79.825-4.6375-0.025-9.275-0.025-13.9-0.013-0.0625-34.6 0-69.188-0.0375-103.79z" fill="#fff"/>
 <path d="m777.48 195.57c28.838 0.0125 57.662 0 86.5 0.0125-0.025 4.4125-0.025 8.825 0.0125 13.25-11.862 0-23.725 0.05-35.588-0.025-0.85 14.65 0.125 29.338-0.2625 44.013-0.0125 15.525 0.275 31.062-0.1 46.575-4.875-0.075-9.75-0.037-14.612-0.05-0.0375-30.162 0.025-60.325-0.0375-90.488-11.975-0.05-23.95 0-35.912-0.025 0.0125-4.425 0.0125-8.8375 0-13.262z" fill="#fff"/>
</svg>
