<svg height="9.074856mm" viewBox="0 0 42.87375 32.155001" width="12.099925mm" xmlns="http://www.w3.org/2000/svg" xmlns:xlink="http://www.w3.org/1999/xlink"><clipPath id="a"><path d="m0 0h419.528v595.275h-419.528z"/></clipPath><g transform="translate(-307.13455 -304.85613)"><path d="m307.13455 304.85613h42.87375v32.155h-42.87375z" fill="#8d191c"/><g fill="#fff"><path d="m0 0h .829v-6.094h-.751l-4.074 4.693v-4.693h-.82v6.094h.706l4.11-4.733z" transform="matrix(1.25 0 0 -1.25 319.06567 320.63251)"/><path d="m0 0h3.455v-.776h-2.582v-1.859h2.495v-.781h-2.495v-1.893h2.665v-.777h-3.538z" transform="matrix(1.25 0 0 -1.25 322.06742 320.63251)"/><path d="m0 0h .87l-2.464-6.121h-.191l-1.993 4.956-2.013-4.956h-.188l-2.456 6.121h.879l1.679-4.201 1.691 4.201h.825l1.699-4.201z" transform="matrix(1.25 0 0 -1.25 338.0258 320.63251)"/></g><g clip-path="url(#a)" transform="matrix(1.25 0 0 -1.25 20.994554 705.07238)"><g transform="translate(256.8594 304.011)"><path d="m0 0-.663.403c-.416.254-.712.504-.888.75-.176.245-.264.528-.264.848 0 .48.167.87.5 1.169.333.3.765.45 1.298.45.509 0 .975-.143 1.4-.429v-.99c-.439.422-.912.633-1.418.633-.285 0-.519-.066-.702-.197-.184-.132-.275-.301-.275-.507 0-.182.067-.353.202-.513.135-.159.352-.326.651-.501l.667-.395c.743-.444 1.115-1.009 1.115-1.695 0-.489-.164-.886-.491-1.191-.327-.306-.752-.458-1.276-.458-.602 0-1.15.185-1.645.555v1.108c.471-.597 1.017-.895 1.636-.895.274 0 .501.076.683.228s.273.342.273.571c0 .371-.268.723-.803 1.056" fill="#fff"/></g><path d="m254.008 309.815h-4.809v4.526h4.809zm-.956 1.504-.077-.047c-.372-.228-.777-.35-1.145-.35-.788.003-1.306.47-1.308 1.15 0 .664.542 1.156 1.288 1.157.38 0 .724-.098 1.133-.322l.075-.041v.606l-.032.013c-.461.182-.818.263-1.171.263-.545 0-1.018-.18-1.355-.486-.337-.305-.538-.737-.537-1.232 0-.345.142-.75.447-1.071.304-.321.773-.555 1.415-.555h.003c.532 0 .902.119 1.236.283l.028.014z" fill="#fff"/><path d="m248.466 309.815h-4.809v4.526h4.809zm-1.143 1.525c.002.411-.272.724-.71.844.118.06.211.134.28.224.092.121.135.269.135.442 0 .212-.083.428-.262.589-.179.162-.451.267-.823.267h-1.025v-3.259h1.203c.43 0 .731.116.925.288s.278.397.277.605" fill="#fff"/><g transform="translate(246.7249 311.4049)"><path d="m0 0c0-.108-.034-.216-.13-.301-.096-.084-.263-.148-.538-.148h-.555v.889h.53c.248 0 .423-.05.533-.128.109-.079.159-.182.16-.312" fill="#fff"/></g><g transform="translate(246.2754 312.4702)"><path d="m0 0c .103.075.153.18.154.338-.001.108-.032.201-.11.27s-.211.119-.425.119h-.392v-.843h.269c.233 0 .4.041.504.116" fill="#fff"/></g><path d="m242.925 309.815h-4.809v4.526h4.809zm-1.143 1.525c.001.411-.273.724-.711.844.118.06.212.134.28.224.092.121.136.269.135.442.001.212-.083.428-.262.589-.179.162-.451.267-.822.267h-1.025v-3.259h1.202.001c.429 0 .73.116.924.288s.278.397.278.605" fill="#fff"/><g transform="translate(240.7339 312.4702)"><path d="m0 0c .103.075.153.18.154.338 0 .108-.031.201-.11.27-.078.069-.211.119-.425.119h-.392v-.843h.269c.233 0 .4.041.504.116" fill="#fff"/></g><g transform="translate(241.0233 311.7168)"><path d="m0 0c-.11.078-.285.128-.532.128h-.531v-.889h.555c.276 0 .442.064.538.149.096.084.13.192.13.3-.001.13-.05.233-.16.312" fill="#fff"/></g></g></g></svg>