<svg height="297.19455" width="1000" xmlns="http://www.w3.org/2000/svg"><g transform="matrix(1.25 0 0 -1.25 -525.20868 -328.66035)"><g fill="#fff"><g transform="matrix(2.0655084 0 0 -2.0655084 810.16035 -222.4744)"><path d="m-22.598633 108.13947v21.40015h10.200195l.759278 4.47998h-16.079102v-25.88013z"/><path d="m3.857666 128.53986c.9065594-1.04003 1.3598467-2.49348 1.3598633-4.36035-.0000166-1.86685-.4533039-3.3203-1.3598633-4.36035-.9065899-.98631-2.1464161-1.47947-3.71948241-1.47949-1.57308939.00002-2.81291569.49318-3.71948239 1.47949-.9073963 1.04005-1.3610905 2.4935-1.361084 4.36035-.0000065 1.86687.4536877 3.32032 1.361084 4.36035.9065667.98634 2.146393 1.4795 3.71948239 1.4795 1.57306631 0 2.81289251-.49316 3.71948241-1.4795zm-11.0595703 3.07984c-1.8798851-1.91976-2.8198257-4.39961-2.8198247-7.43958-.000001-3.03994.9399396-5.52 2.8198247-7.44018 1.8798767-1.92015 4.3265702-2.88023 7.34008789-2.88025 3.01349451.00002 5.46018811.9601 7.34008791 2.88025 1.879862 1.92018 2.8198025 4.40024 2.8198245 7.44018-.000022 3.03997-.9399625 5.51982-2.8198245 7.43958-1.8798998 1.91976-4.3265934 2.87964-7.34008791 2.87964-3.01351769 0-5.46021119-.95988-7.34008789-2.87964z"/><path d="m33.77206 134.0196h-4.87915c-.266945-1.41357-.400408-3.24015-.400391-5.47974v-4.16015c-.000017-2.53336-.373145-4.17357-1.119385-4.92066-.800796-.77309-1.86769-1.15965-3.200683-1.15966-1.546235.00001-2.839366.53346-3.879395 1.60034-.507007.55991-.840462 1.26649-1.000366 2.11975-.15992.85328-.239876 2.00013-.239868 3.44055v8.55957h-4.880371v-14.16015c-.000003-2.26643-.133466-4.10643-.400391-5.52002h4.760742c.266106.9603.439446 1.93361.52002 2.91992h.04028c.479321-.95946 1.305736-1.76593 2.479248-2.41944 1.173491-.65346 2.493477-.9802 3.959961-.98022 2.426741.00002 4.32005.70681 5.679932 2.12036.773905.77313 1.327493 1.72629 1.660766 2.8595.33323 1.13323.499856 2.7.499878 4.70031v5c-.000022 2.23959.133035 4.06617.39917 5.47974z"/><path d="m55.96026 134.0196h-4.880371c-.160336-.93343-.253516-1.77327-.279541-2.51953-.773942.95947-1.707575 1.69922-2.800904 2.21924-1.093355.52002-2.173066.78003-3.239135.78003-2.347014 0-4.320482-.71981-5.920411-2.15943-2.053225-1.89371-3.079835-4.61384-3.079834-8.1604-.000001-3.84031 1.226804-6.68048 3.68042-8.5205 1.573073-1.19953 3.359367-1.7993 5.358887-1.79932 1.227202.00002 2.354113.26003 3.380737.78003 1.026597.52004 1.859726 1.23333 2.49939 2.13989v-8.64014h4.880371v20.40039c-.000021 2.23959.133442 4.06617.400391 5.47974zm-10.040283-4.00024c1.573066 0 2.812892-.47973 3.719482-1.43921.906559-1.04003 1.359847-2.49348 1.359863-4.36035-.000016-1.91975-.453304-3.39965-1.359863-4.4397-.933445-.98713-2.173272-1.4807-3.719482-1.48071-1.57309.00001-2.812916.49358-3.719483 1.48071-.907396 1.04005-1.36109 2.50672-1.361084 4.40002-.000006 1.89332.453688 3.36 1.361084 4.40003.879712.95948 2.119538 1.43921 3.719483 1.43921z"/><path d="m72.578495 128.53986c.906559-1.04003 1.359847-2.49348 1.359863-4.36035-.000016-1.86685-.453304-3.3203-1.359863-4.36035-.90659-.98631-2.146416-1.47947-3.719482-1.47949-1.57309.00002-2.812916.49318-3.719483 1.47949-.907396 1.04005-1.36109 2.4935-1.361084 4.36035-.000006 1.86687.453688 3.32032 1.361084 4.36035.906567.98634 2.146393 1.4795 3.719483 1.4795 1.573066 0 2.812892-.49316 3.719482-1.4795zm-11.05957 3.07984c-1.879885-1.91976-2.819826-4.39961-2.819825-7.43958-.000001-3.03994.93994-5.52 2.819825-7.44018 1.879876-1.92015 4.32657-2.88023 7.340088-2.88025 3.013494.00002 5.460188.9601 7.340087 2.88025 1.879863 1.92018 2.819803 4.40024 2.819825 7.44018-.000022 3.03997-.939962 5.51982-2.819825 7.43958-1.879899 1.91976-4.326593 2.87964-7.340087 2.87964-3.013518 0-5.460212-.95988-7.340088-2.87964z"/><path d="m101.8921 134.0196h-4.879151c-.26695-1.41357-.40041-3.24015-.40039-5.47974v-4.16015c-.00002-2.53336-.37315-4.17357-1.11939-4.92066-.800796-.77309-1.86769-1.15965-3.200683-1.15966-1.546235.00001-2.839366.53346-3.879395 1.60034-.507007.55991-.840462 1.26649-1.000366 2.11975-.15992.85328-.239876 2.00013-.239868 3.44055v8.55957h-4.880371v-14.16015c-.000003-2.26643-.133466-4.10643-.400391-5.52002h4.760742c.266106.9603.439446 1.93361.52002 2.91992h.04028c.479321-.95946 1.305736-1.76593 2.479248-2.41944 1.173491-.65346 2.493477-.9802 3.959961-.98022 2.42674.00002 4.32005.70681 5.67993 2.12036.773914.77313 1.327504 1.72629 1.660774 2.8595.33323 1.13323.49985 2.7.49988 4.70031v5c-.00003 2.23959.13303 4.06617.39917 5.47974z"/></g><path d="m812.2199-263.36016c-1.41615.0179-2.85458.005-4.29438-.0383-18.26277-.55584-34.36151-6.18601-47.58322-16.64071-7.24485-5.72835-14.79882-15.12408-19.17133-23.81078-11.78467-23.41497-11.98213-55.16605-.49845-78.64083 3.93895-8.0522 7.89937-13.60103 14.11009-19.82309 12.5714-12.59504 28.2052-19.61168 48.35008-21.66365 3.09352-.31509 17.15646.0859 20.28326.57507 17.30287 2.71172 31.20348 9.29868 42.29194 20.01499 12.89751 12.46485 20.31872 27.81087 23.00559 47.58322.6899 5.07907.76962 17.88309.15337 22.92891-2.42834 19.8834-10.15507 36.20637-22.96725 48.58013-13.93062 13.45388-32.43752 20.66553-53.6797 20.93508zm-.65183-28.87201c3.92855-.0352 7.84411-.42108 11.38777-1.15028 18.44076-3.79415 30.20759-16.61779 33.6265-36.65557 1.36209-7.97943 1.36173-19.34322 0-27.41499-3.71772-22.03733-17.67001-35.32659-39.3779-37.57586-3.4322-.35557-9.61965-.33005-13.11318.038-11.13758 1.17518-19.94587 5.12196-26.83986 12.03959-6.78909 6.81235-10.73557 15.32847-12.61473 27.29996-.79328 5.05543-.78772 18.41436 0 23.65742.67519 4.50106 2.0218 9.78718 3.29747 12.99815 4.73742 11.92576 13.358 20.20875 25.22946 24.19421 5.22168 1.75318 11.8569 2.62761 18.40447 2.56896z"/><path d="m1144.0372-263.47519c-8.5793.0242-10.9102-.17144-17.2159-1.41867-26.6927-5.27962-47.2708-23.56709-55.9036-49.61539-3.991-12.0432-5.546-24.73315-4.5244-37.26905 2.2378-27.45953 14.5356-48.77694 35.3519-61.3483 9.8161-5.92771 19.8701-9.11463 34.3934-10.8509.5968-.0712 5.1406-.0871 10.0841-.038 7.0768.0699 10.0457.23361 14.0717.76685 18.0941 2.39406 33.8088 7.84092 46.4713 16.06563 3.3698 2.18866 6.8634 4.77314 6.8634 5.09951 0 .14-2.6113 5.05792-5.7898 10.92772l-5.7897 10.65925-1.6871-1.11187c-23.313-14.91302-57.6008-18.9328-78.1423-9.20224-12.8037 6.06514-20.2506 16.57617-23.0823 32.59119l-.1917.99691h59.8145 59.8146l.1533.69017c.9223 3.95038 1.333 14.8019.8052 21.16514-.7497 9.02797-1.9705 15.20608-4.5244 22.96725-7.9562 24.17985-25.6364 40.58348-50.2289 46.62465-7.2688 1.78573-11.5019 2.27471-20.7433 2.30056zm-2.5307-28.52692c4.5402.0845 9.6992-.17984 12.7682-.72851 8.9526-1.60032 15.7114-4.78641 21.4335-10.08412 6.8138-6.30821 11.1695-15.8955 11.7712-25.95797l.1917-3.33581h-44.4008-44.4008l.1917 1.84044c.7088 6.78021 3.4588 14.39307 7.3618 20.32161 2.2592 3.43147 7.4816 8.60344 11.0427 10.92765 4.8826 3.1855 10.6271 5.35049 17.1008 6.47991 1.686.29431 4.2159.48605 6.94.5368z"/><path d="m934.68314-382.05593c0 23.41311.12304 39.61464.31969 42.07181 1.25756 15.69295 5.25785 25.81304 13.47141 34.07871 8.73067 8.78606 20.47285 12.9573 35.02126 12.44134 11.66055-.41365 19.7911-3.62056 26.1931-10.33024 5.0259-5.26779 8.0138-11.42383 9.7578-20.10426 1.2738-6.34292 1.4001-9.25179 1.5674-36.26294.2187-35.19151.804-46.61609 2.9813-58.18766l.3359-1.78239h15.0913 15.0909l-.565 3.48687c-.5873 3.61946-1.2314 9.46932-1.8334 16.65838-.2097 2.5063-.4473 17.85097-.5921 38.27544-.2381 33.69978-.3208 36.28326-1.4094 44.0086-1.6217 11.51616-5.4901 22.00485-10.9082 29.57876-4.4534 6.22584-11.8323 12.94105-18.1904 16.55645-15.9441 9.06601-37.53562 10.79153-55.95943 4.47151-6.67976-2.29097-12.7915-5.66482-18.16012-10.02443-3.36757-2.73454-8.36685-7.86014-10.49018-10.75534-.84202-1.149-1.61358-2.08895-1.71443-2.08895-.10031 0-.34965 1.5693-.55362 3.48687-.58058 5.46206-1.83261 12.26296-3.19546 17.35532l-.31176 1.16229h-14.81953-14.81946l.39074-2.24702c1.32149-7.60826 2.20567-17.98799 2.6186-30.75582.16562-5.11563.30309-34.02147.30598-64.2351l.004-54.93383h15.18624 15.18621v38.07563z"/></g><g fill="#c80201"><path d="m420.56703-267.69494v-38.39714-38.39643h40.86676 40.86676v38.39643 38.39714h-40.86676zm21.33155-10.77804h10.77805c9.73854 0 11.08888-.12215 13.24801-.67543 6.98518-1.78628 11.51814-6.6443 11.90076-12.79857.3255-5.22735-1.49549-8.84733-5.61356-11.45203l-1.34726-.89817 1.5718-.44549c3.99248-1.40618 7.26728-4.38954 8.9817-7.85935 1.14413-2.31513 1.34726-2.30579 1.34726-5.83811 0-3.52658-.21484-3.77232-1.34726-6.06229-2.55094-5.16197-6.99775-7.90462-14.14618-8.98171-2.16057-.32334-5.9507-.44549-14.14619-.45268h-11.22713v27.61911 27.84328zm9.87988-8.75752v-6.96046-7.18537h3.59268c1.91756.003 4.25661.20838 5.38902.44549 4.98672 1.05697 7.05833 3.40227 6.73628 7.85935-.1782 2.45309-.97117 3.92034-3.14359 4.93922-1.62246.76022-2.1776.80189-7.18537.89817h-5.38902zm0-22.90263v-7.63517-7.40955h5.38902c2.94061.004 6.23546.0719 7.40991.22275 5.16951.74728 8.08353 3.35988 8.08353 7.41027 0 2.5623-1.00703 4.10068-3.14359 5.38902-2.57387 1.55204-4.89266 2.02124-11.67622 2.02124h-6.06265z"/><path d="m514.65039-267.69494v-38.39714-38.39643h41.0913 41.0913v38.39643 38.39714h-41.0913zm21.78064-10.77804h10.5535c11.96859-.006 13.51337-.15808 17.28978-2.02053 5.69915-2.81594 8.77901-8.44064 7.85899-14.37072-.19256-1.24235-.57554-2.86481-.89817-3.59269-.71135-1.6088-3.00283-4.13948-4.49085-4.94065-1.12681-.60357-1.42378-1.12236-.67327-1.12236 1.03786 0 5.37013-2.51344 6.96082-4.04176 3.50387-3.36706 5.01869-8.73597 3.81723-13.24766-1.49614-5.62111-5.82927-9.47965-12.57439-11.22785-2.35342-.61075-3.6327-.77386-15.2689-.89817h-12.57438v27.6191 27.84329zm9.87987-8.75752v-7.18537-7.18536l4.49085.22275c2.6241.10059 4.9454.39519 5.83811.67542 3.63975 1.14535 5.42632 3.32467 5.38903 6.96118-.0216 2.28279-.57914 3.50287-2.02089 4.71504-1.61067 1.35587-3.70801 1.79634-8.9817 1.79634zm0-22.90263v-7.63517-7.63373l6.73628.22275c5.70769.12215 6.69374.079 8.53262.67542 5.24453 1.69862 7.14599 7.43542 3.81722 11.22641-2.18384 2.48686-5.10455 3.13641-13.24801 3.14432z"/><path d="m609.18284-267.69494v-38.39714-38.39643h41.0913 40.86675v38.39643 38.39714h-40.86675zm42.66309-10.10405c5.95588.33052 11.82374-.56765 19.08613-3.14432l3.36814-1.34654v-5.16484c0-2.79438.0647-4.93993 0-4.93993s-1.87855.64668-3.81723 1.57144c-6.89177 3.2794-11.42659 4.50091-17.73887 4.26666-3.3044-.12215-4.46376-.28022-6.96082-1.12235-3.77497-1.27612-6.20355-2.81307-8.75716-5.38902-3.46176-3.49209-5.17296-8.05192-5.16448-13.24838.0144-5.51836 1.71378-9.63198 5.38902-13.24837 4.12397-4.05614 9.48698-6.03068 16.39162-6.06229 6.11912 0 11.26004 1.3336 17.73886 4.71575l3.59268 1.79634v-5.16484-5.16484l-2.02088-1.12235c-5.81296-2.6787-10.79687-3.65232-17.96341-3.81686-2.89814-.0719-6.1128-.1509-7.18536 0-11.17231 1.57359-20.20977 8.15754-24.25061 17.7385-2.42391 5.74829-2.65398 12.47523-.67326 18.63668 3.16148 9.83748 12.03275 17.35553 22.90334 19.53557 2.05193.40956 4.07734.56764 6.06265.67542z"/></g></g></svg>