<svg fill-rule="evenodd" height="323.49008" viewBox="0 0 297 110" width="878.49561" xmlns="http://www.w3.org/2000/svg"><g transform="translate(-3.439405 -1.2666)"><path d="m39.981542 33.057093h227.8277v47.605785h-227.8277z" fill="#fff" fill-rule="nonzero"/><path d="m2.5769944 1.2665979h298.7248156v110.0000021h-298.7248156zm150.7503756 78.1021811c4.79532-.751505 8.642-2.570799 11.71506-5.540687 3.57442-3.454548 5.63016-7.70738 6.3748-13.187062.1912-1.407614.21709-4.957457.04626-6.355858-.67299-5.510491-2.81256-10.039073-6.36333-13.468339-4.11812-3.977184-9.68307-5.981641-16.06749-5.787367-5.06135.154047-9.52012 1.713252-13.18439 4.610671-2.00784 1.587557-4.10606 4.191417-5.31786 6.598853-3.26601 6.489229-3.32241 15.282924-.13982 21.788736 1.09164 2.231587 2.18961 3.775745 3.91085 5.500153 3.48404 3.490579 7.81701 5.430448 13.39997 5.999144.85734.087311 4.75939-.022518 5.62595-.158244zm-5.35839-7.870639c-3.08667-.3257-5.52901-1.421636-7.43961-3.338784-1.88153-1.887974-2.96867-4.243414-3.48946-7.561213-.21985-1.401063-.22231-5.108433-.0042-6.561494.18712-1.247425.55785-2.712972.91139-3.602864 1.31293-3.305108 3.70574-5.597393 6.9958-6.701927 2.31542-.777401 5.63219-.937794 8.2511-.398885 5.11068 1.051513 8.37352 4.608624 9.32104 10.161901.37749 2.211423.37729 5.355932-.0001 7.592944-1.03033 6.107438-4.8893 9.793621-10.90543 10.416975-.9512.098569-2.67233.095397-3.64053-.006653zm98.72271 7.828161c5.01458-.663478 9.36997-2.167205 12.87928-4.446593.93391-.606567 1.89422-1.323066 1.89422-1.41355 0-.038794-.7208-1.40137-1.60168-3.02813l-1.60169-2.957708-.4738.303182c-6.46098 4.132971-15.95808 5.255418-21.65097 2.55872-3.54841-1.680906-5.61346-4.597058-6.39823-9.035462l-.04934-.27923h16.57324 16.57343l.04514-.193147c.25559-1.094811.37034-4.098681.22407-5.862191-.20779-2.502014-.54536-4.217722-1.25316-6.368652-2.20497-6.701211-7.09958-11.245965-13.91513-12.920218-2.01449-.494896-3.19354-.624275-5.75471-.63144-2.37765-.006654-3.01943.045959-4.76698.391618-7.39764 1.463193-13.10691 6.526487-15.4994 13.745522-1.10607 3.337657-1.53178 6.861194-1.24866 10.335395.62019 7.610142 4.02181 13.516857 9.79086 17.000884 2.72044 1.64283 5.50896 2.520849 9.53395 3.00203.1654.019754 1.42142.024872 2.79147.011258 1.96127-.019345 2.7923-.064484 3.90809-.212288zm-16.97774-25.765612c.19642-1.87907.96195-3.988647 2.04365-5.631682.62612-.950999 2.07519-2.383792 3.06211-3.027924 1.35317-.88283 2.94788-1.488886 4.742-1.801893 1.24599-.217509 4.09429-.189258 5.45512.054044 2.48113.443513 4.35734 1.325523 5.94315 2.793732 1.88838 1.748258 3.09456 4.41128 3.26131 7.199997l.05517.923464h-12.30793-12.30781zm-45.55143 14.350759c0-6.488717.03408-10.978812.08864-11.659793.34852-4.349149 1.45716-7.153833 3.73347-9.444583 2.41962-2.434971 5.67385-3.590991 9.7058-3.447998 3.23161.11464 5.4849 1.003405 7.25916 2.862926 1.39287 1.459917 2.22094 3.166003 2.70427 5.5717.35303 1.75788.38803 2.564043.43441 10.049922.06059 9.752985.22282 12.919194.82622 16.126142l.09305.493974h4.1824 4.18231l-.1566-.966352c-.16275-1.003098-.34126-2.624331-.50811-4.61671-.05814-.694595-.12395-4.947222-.16408-10.607666-.06602-9.339565-.08894-10.055552-.39059-12.196553-.44945-3.191594-1.52154-6.09843-3.02311-8.197466-1.23422-1.725431-3.27922-3.586487-5.04129-4.588459-4.41875-2.512557-10.40264-2.990769-15.50862-1.239237-1.85123.634921-3.54504 1.569952-5.0329 2.778174-.93329.757852-2.31879 2.178362-2.90725 2.980739-.23336.318433-.44719.578931-.47514.578931-.02784 0-.09692-.434915-.15343-.966353-.1609-1.513757-.50789-3.398559-.88559-4.809858l-.08638-.322116h-4.10709-4.10707l.10829.622739c.36624 2.108555.61128 4.985196.72572 8.523677.04585 1.417747.08403 9.428718.08475 17.802134l.00133 15.224376h4.20872 4.20871zm-119.819112-21.056064v-10.65045h-11.337574-11.337881v10.65045 10.650553h11.337881 11.337574zm-16.748882.043092v-7.68742h2.992407c2.698949 0 3.057608.016685 3.655987.169709 1.935878.495202 3.186374 1.842937 3.292415 3.548614.090177 1.448761-.4169 2.495771-1.55818 3.217592l-.335321.212084.43082.151796c1.106479.38957 2.018582 1.168712 2.493724 2.130356.317102.641676.322936.670848.322936 1.649893 0 .977406-.006244 1.00924-.319968 1.643955-.706979 1.430439-1.945704 2.227187-3.926824 2.525864-.598788.090279-1.663096.123954-3.934399.124261l-3.113597.000513zm6.303758 5.193288c1.432691-.207068 2.19955-.918962 2.19955-2.041408 0-.71005-.260805-1.179767-.852941-1.536788-.713326-.430104-1.3853-.541469-3.265291-.541469h-1.636483v2.104358 2.104357l1.481617-.00174c.814967-.001023 1.748053-.040226 2.073548-.08731zm-1.052025-6.648599c1.382024-.292946 1.949696-.964101 1.860441-2.199242-.049336-.679856-.318331-1.077513-.920394-1.359916-.449655-.210651-.573711-.226823-1.96157-.253538l-1.481617-.028661v1.982656 1.982655l.96625-.001535c.531437-.00082 1.223063-.055887 1.53689-.122419zm37.694196 1.412219v-10.65045h-11.380666-11.380666v10.65045 10.650553h11.380666 11.380666zm-16.748882.050463v-7.694791l2.941741.001536c3.31698.001739 3.71126.048517 4.757861.565727 1.579471.78037 2.437324 2.350424 2.182352 3.99397-.053327.344227-.170116.790811-.259474.992658-.197139.445765-.8338 1.143431-1.246197 1.365443-.31229.168172-.391516.295606-.183628.295606.287623 0 1.522049.717831 1.9629 1.141486.971061.933086 1.395638 2.386249 1.062671 3.636744-.414648 1.557772-1.640886 2.654015-3.510232 3.138471-.652218.168991-.983037.18629-4.207896.220682l-3.500098.037257zm6.98689 5.023989c1.453469-.470945 1.991457-2.012647 1.068914-3.063342-.605237-.689169-1.439856-.890915-3.696726-.892962l-1.610587-.001433v2.113979 2.113775l1.82523-.039715c1.581825-.034597 1.903533-.065304 2.413169-.230302zm-1.374041-6.563541c1.008728-.317409 1.476909-.938717 1.466571-1.946524-.006449-.632668-.153126-.982831-.552625-1.31887-.446379-.375649-1.001051-.484865-2.462607-.484865h-1.315697v1.987364 1.987364l1.223985-.046675c.727246-.027944 1.392976-.100003 1.640373-.177794zm37.247098 1.489089v-10.65045h-11.33767-11.33768v10.65045 10.650553h11.33768 11.33767zm-12.00698 7.816084c-3.0963-.436144-5.560858-2.243256-6.680746-4.8985-.671769-1.593084-.74086-3.442982-.192022-5.150706.876176-2.726279 3.294778-4.797678 6.307448-5.401891 2.27468-.456308 4.28425-.255278 6.96785.696642l.96635.342589v1.40833c0 .774535-.01453 1.408329-.03244 1.408329-.01781 0-.47197-.209217-1.00925-.464803-1.90998-.908725-3.22138-1.21119-4.97076-1.146295-.91579.033982-1.19297.080042-1.88501.314133-1.04619.353541-1.71334.759694-2.42104 1.473736-.9594.967786-1.44979 2.2017-1.44744 3.641862.00256 1.529316.47289 2.695367 1.49144 3.697443 1.14292 1.124186 2.64911 1.682748 4.56267 1.691449 1.69586.007779 3.12179-.371761 4.91734-1.308941l.96625-.504416v1.443745 1.443644l-.58774.270939c-1.611.742395-2.9661 1.039435-4.95223 1.085189-.8032.018527-1.70343-.000512-2.00067-.042478z" fill="#c90302"/></g></svg>