<svg fill-rule="evenodd" height="231.78001" viewBox="0 0 243.89369 78.814791" width="721.4126" xmlns="http://www.w3.org/2000/svg"><g fill="#fff"><path d="m107.82268 13.162281c-.39243-.005-.79103-.0014-1.19001.01061-5.0608.154029-9.52192 1.714205-13.185786 4.611305-2.007619 1.587384-4.100898 4.191033-5.312563 6.598203-3.265651 6.488518-3.320367 15.287058-.138127 21.792151 1.091522 2.231345 2.188994 3.768979 3.910047 5.493174 3.483657 3.490209 7.815938 5.43459 13.398279 6.003213.85725.08731 4.75423-.0238 5.6207-.15936 4.79479-.751443 8.64679-2.576755 11.71951-5.54635 3.57403-3.454135 5.63052-7.706667 6.37508-13.185782.19117-1.40746.21327-4.955579.0425-6.353825-.67292-5.509888-2.81407-10.033145-6.36445-13.462035-3.86032-3.728202-8.98876-5.726623-14.87518-5.801319zm-.18063 8.00072c1.08864.0098 2.17368.116686 3.15567.318754 5.11011 1.051398 8.37082 4.604953 9.31823 10.157621.37745 2.211178.37735 5.360197 0 7.596965-1.03021 6.106761-4.89653 9.789345-10.912 10.412641-.9511.09853-2.6657.09146-3.6338-.01054-3.08633-.325655-5.52719-1.419346-7.437585-3.336289-1.881324-1.887771-2.974934-4.247671-3.495667-7.56509-.219826-1.400909-.218286-5.102801 0-6.555703.187101-1.247288.560259-2.712124.913761-3.601918 1.312786-3.304744 3.701634-5.600043 6.991331-6.704454 1.44698-.485822 3.28567-.728136 5.10006-.711884z"/><path d="m199.77252 13.194156c-2.37739-.0067-3.02332.04751-4.77068.39313-7.39683 1.463034-13.09921 6.530672-15.49143 13.748913-1.10595 3.33729-1.53686 6.853802-1.25377 10.327623.62012 7.609308 4.02795 13.516572 9.79637 17.000219 2.72014 1.642628 5.50619 2.525754 9.53074 3.006894.16538.01972 1.4245.02414 2.7944.01054 1.96106-.01938 2.78376-.06474 3.89943-.212503 5.01403-.663415 9.36872-2.172795 12.87765-4.451944.93381-.6065 1.9019-1.322684 1.9019-1.413125 0-.0388-.72361-1.401599-1.6044-3.028178l-1.60439-2.953785-.46751.308111c-6.46027 4.132545-15.96174 5.246467-21.654 2.550031-3.54802-1.680708-5.61165-4.593421-6.39633-9.031341l-.0531-.276253h16.5752 16.5752l.0425-.191252c.25556-1.094691.36938-4.101755.22313-5.86507-.20777-2.501739-.54605-4.213755-1.25377-6.364451-2.20473-6.700476-7.10411-11.246085-13.91891-12.920153-2.01427-.494842-3.18731-.630344-5.7482-.637508zm-.70126 7.905094c1.25813-.02343 2.68775.04983 3.53817.201878 2.48086.443464 4.35381 1.326359 5.93945 2.794408 1.88817 1.748066 3.09518 4.4048 3.26191 7.19321l.0531.924386h-12.3039-12.3039l.0531-.510006c.1964-1.878862.95844-3.988461 2.04002-5.631317.62606-.950896 2.07323-2.384098 3.06004-3.028161 1.35302-.882732 2.94488-1.482672 4.73881-1.795646.46719-.08156 1.16827-.134689 1.92314-.148752z"/><path d="m141.75844 46.054039c0-6.488005.0341-10.977607.0886-11.658514.34849-4.348672 1.457-7.153048 3.73307-9.443547 2.41935-2.434703 5.67322-3.590597 9.70473-3.447619 3.23126.114627 5.4843 1.003295 7.25836 2.862612 1.39272 1.459756 2.2207 3.165655 2.70398 5.571088.35299 1.757688.38798 2.563762.43436 10.04882.0606 9.751915.2228 12.917777.82613 16.124373l.0931.49392h4.18194 4.18185l-.15658-.966246c-.16273-1.002988-.34122-2.624043-.50806-4.616204-.0581-.694519-.12393-4.946679-.16406-10.606502-.066-9.338541-.0889-10.054449-.39054-12.195215-.44941-3.191244-1.52138-6.097761-3.02278-8.196567-1.23409-1.725242-3.27886-3.586094-5.04074-4.587956-4.41827-2.512281-10.4015-2.990441-15.50692-1.239101-1.85103.634852-3.54465 1.56978-5.03235 2.77787-.93318.757768-2.31853 2.178123-2.90693 2.980412-.23333.318398-.44714.578867-.47509.578867-.0278 0-.0969-.434867-.15341-.966247-.16088-1.513591-.50783-3.398186-.88549-4.80933l-.0864-.322081h-4.10664-4.10662l.10828.622671c.3662 2.108323.61121 4.984649.72564 8.522742.0459 1.417591.084 9.427683.0848 17.800181l.001 15.222706h4.20826 4.20824v-10.551133z"/></g><g fill="#c80201"><path d="m-.70823765 14.363408v10.640228 10.640029h11.32458165 11.324581v-10.640029-10.640228h-11.324581-11.32458165zm5.91118265 2.986703h2.9867028c2.6986452 0 3.0728392.03385 3.6711552.187166 1.935662.494996 3.19179 1.841203 3.297818 3.54661.0902 1.448551-.414415 2.451685-1.555574 3.173472l-.373338.248891.435561.123451c1.106354.389665 2.013834 1.216384 2.488919 2.177903.317048.641544.373337.638956.373337 1.617798 0 .977249-.05954 1.045346-.373337 1.679921-.706893 1.430431-1.939147 2.190447-3.920048 2.488919-.598714.0896-1.648998.12345-3.9200473.125441h-3.1111487v-7.653525-7.715649zm2.7378109 2.426795v1.928813 1.991135h.9955676c.5313742-.000797 1.1795485-.05774 1.4933515-.12345 1.381868-.292896 1.955932-.942803 1.866689-2.177904-.04938-.679774-.269122-1.086363-.871122-1.368706-.449598-.210663-.603433-.222211-1.9911347-.248892h-1.4933514zm0 6.346544v2.115781 2.053258h1.4933514c.8148717-.000995 1.7279067-.01991 2.0533577-.06172 1.432523-.207078 2.240028-.931055 2.240028-2.053458 0-.710038-.279058-1.13634-.871122-1.493351-.713245-.430085-1.355804-.560106-3.2355948-.560106h-1.6800203z"/><path d="m25.363189 14.363408v10.640228 10.640029h11.386804 11.386805v-10.640029-10.640228h-11.386805zm6.035628 2.986703h2.92448c3.316614.0018 3.744688.0438 4.791169.559907 1.579289.780326 2.432749 2.338986 2.177804 3.98227-.05336.344267-.159489.793866-.248891.995568-.197123.445815-.832116 1.147093-1.24446 1.369104-.31225.167256-.394543.311016-.186569.311016.287599 0 1.488114.696499 1.928912 1.120013.970957.933046 1.390728 2.420822 1.057791 3.671056-.414595 1.557665-1.615349 2.626905-3.484487 3.111348-.652157.169246-1.006658.214445-4.231162.248892h-3.484487v-7.653526-7.715649zm2.737811 2.426795v1.991135 1.991135l1.24446-.06172c.727162-.02788 1.370419-.109512 1.617797-.187166 1.00861-.317387 1.503686-.921299 1.493352-1.929012-.006-.632584-.160486-.970679-.560007-1.306583-.446333-.375727-1.027525-.497784-2.488919-.497784h-1.306683zm0 6.346544v2.115781 2.115382l1.86669-.06172c1.581658-.03385 1.854901-.0219 2.364473-.187167 1.453309-.470705 1.980223-2.060427 1.05779-3.11095-.605165-.689132-1.414522-.86913-3.671155-.871321h-1.617798z"/><path d="m51.559061 14.363408v10.640228 10.640029h11.386805 11.324581v-10.640029-10.640228h-11.324581zm11.822366 2.799934c1.650432-.09159 3.276472.1573 5.288952.871321l.933345.373139v1.431227c0 .774353.01792 1.368906 0 1.368906s-.520562-.179202-1.05779-.435461c-1.909778-.908754-3.166423-1.247247-4.915616-1.182336-.915683.03385-1.236952.07765-1.928912.311015-1.046082.353626-1.719066.779529-2.426696 1.493351-.959289.967692-1.433478 2.231266-1.431128 3.671255.004 1.529192.474905 2.669117 1.493351 3.671255 1.142792 1.123996 2.628936 1.67116 4.542277 1.679921 1.695671 0 3.120269-.369554 4.915615-1.306782l.995568-.497784v1.431228 1.431228l-.560007.311016c-1.610828.742295-2.991919 1.012094-4.977838 1.057691-.803104.01991-1.693918.04181-1.991135 0-3.095956-.436059-5.600327-2.260536-6.720081-4.915516-.67169-1.592908-.735446-3.457009-.18657-5.164407.87608-2.726063 3.334395-4.809388 6.346744-5.413498.568608-.113495 1.12987-.1573 1.68002-.187167z"/></g><g fill-rule="nonzero"><g fill="#fff"><path d="m102.4691 75.446885c.89776-2.784186 1.85234-6.242637 2.65539-9.023034h2.35614c-1.30686 4.250144-3.00767 9.530627-4.01907 12.163292h-2.00386c-.68942-1.806879-1.700814-4.757737-2.522811-7.557075-.878818 2.912978-1.833396 5.863836-2.469781 7.557075h-2.019008c-1.106099-2.837217-2.712214-7.913148-4.022864-12.163292h2.469781c.784117 2.780397 1.776575 6.257788 2.674333 9.041974.916698-2.784186 1.871276-6.261577 2.655393-9.041974h1.515203c.803054 2.780397 1.795514 6.219908 2.731154 9.023034"/><path d="m114.15813 76.011677c.41289-.469713.63639-1.147766.63639-2.030372 0-.901546-.2235-1.598539-.63639-2.068252-.41289-.450773-.97352-.696994-1.7387-.696994-.76896 0-1.32959.246221-1.74248.696994-.4091.450773-.6326 1.166706-.6326 2.068252 0 .882606.2235 1.579599.6326 2.030372.41289.450773.97352.696993 1.74248.696993.76518 0 1.32581-.24622 1.7387-.696993m.69321 2.575845c-.0758-.337132-.11364-.753813-.15152-1.185646-.74624.958366-1.88643 1.412927-2.82207 1.412927-1.17807 0-2.00386-.340921-2.75009-1.037914-.93564-.844726-1.45839-2.215985-1.45839-3.795584 0-1.73112.61745-3.159199 1.71976-4.003924.71214-.545473 1.43944-.867454 2.50766-.867454 1.15913 0 2.17053.545473 2.7463 1.393987v-1.166707h2.28417v6.65553c0 .901546.053 1.897792.18562 2.594785z"/><path d="m119.6568 66.422335h2.28038v9.587447c0 .886394.0379 1.88264.1894 2.575846h-2.28038c-.13258-.693206-.1894-1.689452-.1894-2.575846z"/><path d="m130.84014 73.116881c0-.507593-.16667-1.128826-.59851-1.541719-.4091-.393953-.95457-.583353-1.64399-.583353-1.3258 0-2.11371.958366-2.24629 2.125072zm-4.48879 1.632631c.15152 1.223527.99246 2.144013 2.59857 2.144013 1.1061 0 2.32205-.375013 3.14405-.939426l.71215 1.522779c-1.21595.977306-2.82586 1.337167-4.1706 1.337167-2.73115 0-4.67819-1.92052-4.67819-4.833498 0-2.837218 1.90916-4.86759 4.64031-4.86759 2.85995 0 4.58349 1.992492 4.58349 4.81077 0 .32198-.0379.564413-.0758.825785h-6.75402z"/><path d="m135.42363 76.218881c.73109.488653 1.71976.825786 2.37508.825786.84094 0 1.40156-.375013 1.40156-.996246 0-1.6743-4.39409-1.053066-4.39409-4.212265 0-1.822032 1.70461-2.723577 3.40542-2.723577.9167 0 2.03795.280312 2.85995.863665l-.74624 1.59854c-.5985-.431833-1.42429-.715934-2.02279-.715934-.80306 0-1.14019.488653-1.14019.920486 0 1.484899 4.22741 1.072006 4.22741 4.041804 0 1.99628-1.64778 2.992526-3.59103 2.992526-1.04549 0-2.45084-.435621-3.12132-.924274z"/></g><path d="m217.50021 9.435796-.007 7.256577 2.39265-2.153009-.007-5.103568h-2.37767z" fill="#ea8d86" opacity=".5"/><g fill="#fff"><path d="m226.88733 2.209174 2.39265-2.209174-.015 16.684884-2.37767-2.516212v-4.732876h-9.38338v7.26781l-2.3889-2.512468v-11.974475l2.3889-2.216663v7.219133h9.38338v-5.009959z"/><path d="m229.265 16.677396 2.39265-2.130543h3.04042c1.19445 0 2.12306-.07863 2.78581-.232151.6665-.168496 1.21317-.374436 1.65501-.621564.44558-.258361.84622-.572888 1.21692-.936091 1.17947-1.194452 1.76734-2.707175 1.76734-4.534425 0-1.79355-.60659-3.253852-1.81602-4.380905-.44558-.423113-.95856-.775083-1.54268-1.044678-.57289-.273338-1.11956-.449323-1.64003-.535444-.51298-.08612-1.34423-.131052-2.49749-.131052h-2.98426l-2.37018-2.130543h5.60906c2.26908 0 4.07012.344481 5.38814 1.025955 1.3255.681475 2.37767 1.68122 3.16024 3.006724.77508 1.321761 1.17198 2.763341 1.17198 4.328485 0 1.112076-.22091 2.17922-.64777 3.201431-.43435 1.018467-1.04842 1.917114-1.84223 2.692197-.80878.79755-1.7561 1.396648-2.83074 1.801039-.62905.247128-1.21317.415625-1.73364.501745-.52421.08238-1.53144.11982-3.01795.11982h-5.26458 5.26458c1.48651 0 2.49374-.03744 3.01795-.11982.52047-.08612 1.10459-.254617 1.73364-.501745 1.07464-.404391 2.02196-1.003489 2.83074-1.801039.79381-.775083 1.40788-1.67373 1.84223-2.692197.42686-1.022211.64777-2.089355.64777-3.201431 0-1.565144-.3969-3.006724-1.17198-4.328485-.78257-1.325504-1.83474-2.325249-3.16024-3.006724-1.31802-.681474-3.11906-1.025955-5.38814-1.025955h-5.60906l2.37018 2.130543h2.98426c1.15326 0 1.98451.04493 2.49749.131052.52047.08612 1.06714.262106 1.64003.535444.58412.269595 1.0971.621565 1.54268 1.044678 1.20943 1.127053 1.81602 2.587355 1.81602 4.380905 0 1.82725-.58787 3.339973-1.76734 4.534425-.3707.363203-.77134.67773-1.21692.936091-.44184.247128-.98851.453068-1.65501.621564-.66275.153519-1.59136.232151-2.78581.232151h-3.04042z"/><path d="m229.265 16.677396 2.39265-2.130543h3.04042c1.19445 0 2.12306-.07863 2.78581-.232151.6665-.168496 1.21317-.374436 1.65501-.621564.44558-.258361.84622-.572888 1.21692-.936091 1.17947-1.194452 1.76734-2.707175 1.76734-4.534425 0-1.79355-.60659-3.253852-1.81602-4.380905-.44558-.423113-.95856-.775083-1.54268-1.044678-.57289-.273338-1.11956-.449323-1.64003-.535444-.51298-.08612-1.34423-.131052-2.49749-.131052h-2.98426l-2.37018-2.130543h5.60906c2.26908 0 4.07012.344481 5.38814 1.025955 1.3255.681475 2.37767 1.68122 3.16024 3.006724.77508 1.321761 1.17198 2.763341 1.17198 4.328485 0 1.112076-.22091 2.17922-.64777 3.201431-.43435 1.018467-1.04842 1.917114-1.84223 2.692197-.80878.79755-1.7561 1.396648-2.83074 1.801039-.62905.247128-1.21317.415625-1.73364.501745-.52421.08238-1.53144.11982-3.01795.11982z"/></g><path d="m231.65765 2.14552-2.38891-2.14552v16.677396l2.38891-2.130543v-5.111057-2.216663-5.073613z" fill="#ea8d86" opacity=".5"/><path d="m219.94153 7.219133-.0449-5.00247-2.39265-2.216663v7.219133h2.43758z" fill="#ea8d86" opacity=".5"/></g></svg>