<svg height="83.66832" width="163.24638" xmlns="http://www.w3.org/2000/svg"><g fill="#005e70"><path d="m90.274853 0h25.359677v23.863718h-25.359677zm15.975947 3.321165c-.11452-.01432-.22904-.03579-.34357-.0501l-.13599-.02147c-.19326-.02863-.39367-.0501-.58693-.07158-.136-.0072-.27199-.02147-.40799-.02863-.2362-.01432-.47956-.02147-.70145-.02147-.10737 0-.17179 0-.27199.0072-.1861 0-.3722.0072-.5583.02147-.10737.0072-.20758.01432-.31494.02147-.15031.01432-.30063.02863-.44378.0501l-.12168.01431-.136.02147-.17178.02863c-.0716.01431-.14315.02147-.21473.03579-.10021.02147-.20042.04295-.30062.06442-.59409.121681-1.15239.293465-1.667737.493881-.26484.100207-.52251.21473-.76588.329253-.20041.100208-.38651.200415-.57977.314938-.17894.100208-.35072.207573-.52251.314938-.093.06442-.1861.128838-.27915.200415-.0787.05726-.15747.114523-.2362.171785-.15747.12168-.31494.250519-.45809.379357-.136.114523-.272.243361-.38652.365042-.10736.100207-.21473.207573-.31494.322096-.1002.114523-.20757.229045-.30062.350726-.10736.128838-.20757.264834-.30778.40083-.0787.100208-.14315.207573-.21473.307781-.0501.07158-.093.143153-.136.221888-.26483.429461-.50103.89471-.68713 1.388591-.23621.61556-.40799 1.274067-.5082 1.982678-.0286.221888-.0501.443776-.0644.67998-.007.171784-.0143.350727-.0143.536826 0 .128839 0 .264835.007.400831s.0215.271992.0358.407988l.007.100207c.0286.157469.0501.314938.0787.472407.0143.06442.0215.121681.0358.1861.0286.128838.0644.257677.0931.386515.0501.164627.0931.322096.14316.479565.0716.193257.13599.386515.21473.565457.12168.293465.25767.572615.40083.837449.0859.157469.17178.30778.26483.450934.0716.121681.14315.229046.22189.336411.10021.143154.20041.286307.30062.415146.10737.135996.22189.271992.32926.393672.13599.157469.26483.293465.40083.422304l.0716.07158c.10737.107366.22905.221889.36504.336412.093.07873.1861.164626.28631.243361.10021.07158.20042.157469.30778.229046.12884.09305.26484.1861.40799.279149.15031.100208.30778.193258.47957.286308.33641.193257.70145.372199 1.10944.536826.15031.05726.30778.114523.472397.171784.16463.05726.32926.107366.50104.15747.28631.08589.59409.157469.91618.221888.26484.0501.52967.08589.80882.12168s.56546.06442.86608.07874c.14316.0072.28631.0072.43662.01432h.20757c.53683 0 1.02355-.02147 1.4888-.05726l.0859-.0072c.17895-.02147.35789-.03579.52967-.05726.25768-.03579.5082-.07158.7444-.114523.15031-.02863.29347-.05726.43662-.08589.22189-.04295.4223-.100207.62272-.150311.15031-.03579.28631-.07873.4223-.121681.16463-.0501.3221-.100207.47241-.150311l.14315-.0501c.0716-.02863.17179-.06442.28631-.107365.15031-.05726.33641-.128838.54399-.221888.12883-.0501.26483-.114523.40083-.178942.12168-.05726.25767-.114523.38651-.178942.0501-.02863.10737-.05726.16463-.08589v-3.249588c-.0358.02147-.0787.04295-.11453.07158l-.22188.128838c-.22905.135996-.43662.264834-.65135.386515-.24336.121681-.47241.243361-.70146.350727-.40083.186099-.78734.350726-1.15954.479564-.70861.257677-1.35996.422304-1.93258.522511-.0716.0072-.13599.02147-.20041.02863-.16463.02863-.31494.04295-.45809.06442-.22905.02147-.43662.03579-.62988.04295-.12168.0072-.24336.0072-.34357.0072-.2362 0-.4724 0-.70861-.02147-.28631-.02147-.57261-.0501-.86608-.100208-.47241-.07873-.94481-.200415-1.4029-.365041-.0716-.02863-.14316-.05726-.20758-.07873-.0429-.02147-.0859-.03579-.13599-.05726-.0716-.02863-.15031-.06442-.22189-.100208-.15747-.07158-.31494-.157469-.47241-.243361-.0716-.04295-.15031-.08589-.229037-.135996-.0787-.0501-.15747-.100208-.22905-.150312-.093-.06442-.1861-.135996-.27915-.207572-.0859-.07158-.17894-.143154-.25768-.207573l-.10736-.100208-.0501-.0501-.0358-.02863-.0358-.03579c-.15031-.150311-.27915-.293465-.40799-.443776-.0644-.07874-.12884-.164627-.19326-.243361-.0573-.08589-.11452-.164627-.16462-.243362-.0501-.07873-.10021-.157469-.14316-.229046-.0644-.114523-.12884-.236203-.1861-.343568-.0501-.100208-.093-.193258-.12884-.293465-.0716-.164627-.13599-.329254-.17894-.486723-.0429-.121681-.0787-.243361-.10021-.357884-.093-.343569-.13599-.651349-.15746-.916184-.0143-.100207-.0143-.193257-.0215-.279149-.007-.135996-.007-.243362-.007-.336411 0-.05726 0-.128839 0-.207573.007-.1861.0215-.422304.0644-.694296.0215-.157469.0573-.329253.10021-.515353.0286-.12168.0644-.243361.10021-.372199.0358-.114523.0787-.236204.12168-.350727.0286-.08589.0644-.164627.10736-.243361.0429-.114523.093-.221888.15032-.329254.0429-.08589.0931-.171784.14315-.257676.10736-.178942.22905-.365042.36504-.551142.0501-.06442.10021-.128838.15031-.193257.0716-.08589.14316-.164627.22189-.250519.0358-.04295.0716-.08589.11452-.121681.60125-.601245 1.266907-1.045022 1.961207-1.367118.10736-.04295.22189-.08589.32925-.135996.11453-.04295.22189-.07873.32926-.114522.12168-.04295.25052-.07874.36504-.114523.11452-.02863.22904-.05726.34357-.08589.11452-.02863.22904-.0501.34357-.07158.12883-.02147.25051-.04295.3722-.05726.12883-.01432.25767-.02863.37935-.04295.23621-.02147.47241-.02863.6943-.02863h.22904c.17179.0072.32926.0072.49388.02147.11453.0072.22189.01432.32926.02147.20041.02147.40083.0501.58693.07874.17178.02147.32925.0501.48672.07873.22905.0501.44378.100208.62988.150312.12883.03579.24336.07158.35072.100207.15747.04295.29347.08589.39368.121681.17894.06442.27914.100208.27914.100208.15747.05726.31494.12168.47241.178942.20757.08589.40083.178942.59409.257676.15747.07873.30778.150312.45093.214731.11453.05726.22189.114523.3221.164626.17894.100208.32925.178943.45093.243362l.33641.1861v-3.199485s-.20041-.07874-.54398-.207573c-.15747-.06442-.33641-.128838-.53683-.200415-.11452-.04295-.2362-.08589-.36504-.128838-.1002-.02863-.20041-.07158-.31494-.107366-.11452-.03579-.24336-.07873-.37219-.114523-.0931-.02863-.19326-.06442-.28631-.08589l-.0931-.02863c-.0931-.02147-.1861-.0501-.28631-.07873-.11452-.02863-.2362-.06442-.35073-.09305-.0787-.01432-.15746-.03579-.22904-.0501-.136-.02863-.25768-.05726-.38652-.08589-.13599-.02863-.27199-.0501-.40083-.07873"/><path d="m0 0v-.655h.425s.009 0 .023.001c.014 0 .034.001.059.003.046.004.107.013.166.033.053.018.105.045.145.085.015.015.028.031.038.047.033.052.042.106.044.136.001.013.001.021.001.021v.016c-.001.013-.002.037-.009.063-.008.031-.023.067-.05.101-.005.006-.01.012-.016.018-.012.012-.025.023-.039.033-.023.017-.049.032-.078.044-.038.017-.081.029-.128.038-.024.005-.05.008-.076.011-.016.001-.032.002-.049.003-.014.001-.03.002-.044.002z" transform="matrix(7.1576838 0 0 -7.1576838 70.782335 13.164412)"/><path d="m0 0v-.621h.206s.014 0 .032.001c.014 0 .031.001.046.002.043.003.101.009.16.025.011.003.023.007.034.011.046.016.09.04.124.074.028.027.046.056.058.085.014.036.019.07.021.094.002.022.002.035.002.035s.001.01-.001.027c-.001.027-.007.071-.028.113-.01.02-.024.04-.043.059-.023.023-.052.04-.082.054-.058.025-.124.035-.18.039-.024.002-.046.002-.065.002z" transform="matrix(7.1576838 0 0 -7.1576838 70.782335 6.033928)"/><path d="m0 0h3.543v-3.334h-3.543zm.93-.467v-2.402h.903s.441-.012.685.231c.198.199.183.428.183.428s.015.239-.169.423c-.156.156-.356.197-.356.197s.091.043.16.112c.032.032.148.137.148.39 0 .254-.17.401-.17.401s-.186.22-.605.22z" transform="matrix(7.1576838 0 0 -7.1576838 61.050749 .002863)"/><path d="m0 0v-.655h.426s.008 0 .022.001c.014 0 .034.001.059.003.047.004.107.013.166.033.054.018.106.045.145.085.015.015.028.031.039.047.033.052.041.106.043.136.001.013.001.021.001.021v.016c0 .013-.002.037-.008.063-.009.031-.024.067-.05.101-.005.006-.011.012-.017.018-.012.012-.024.023-.038.033-.023.017-.05.032-.079.044-.038.017-.081.029-.128.038-.024.005-.049.008-.075.011-.017.001-.033.002-.05.003-.014.001-.03.002-.045.002z" transform="matrix(7.1576838 0 0 -7.1576838 41.558944 13.164412)"/><path d="m0 0v-.621h.206s.014 0 .032.001c.014 0 .031.001.046.002.043.003.101.009.16.025.011.003.023.007.034.011.046.016.09.04.125.074.027.027.045.056.057.085.015.036.02.07.021.094.002.022.002.035.002.035s.001.01 0 .027c-.002.027-.007.071-.029.113-.01.02-.024.04-.043.059-.023.023-.051.04-.081.054-.058.025-.125.035-.181.039-.024.002-.046.002-.065.002z" transform="matrix(7.1576838 0 0 -7.1576838 41.558944 6.033928)"/><path d="m31.832368 0h25.359673v23.863718h-25.359673zm6.649488 3.349796v17.185599h6.470546s3.156538.09305 4.895856-1.653425c1.417221-1.417221 1.317013-3.056331 1.317013-3.056331s.100208-1.717844-1.209648-3.0277c-1.116599-1.116599-2.548136-1.417222-2.548136-1.417222s.644192-.300622 1.14523-.80166c.229046-.229046 1.052179-.973445 1.052179-2.784339 0-1.825209-1.209648-2.877389-1.209648-2.877389s-1.331329-1.567533-4.330399-1.567533h-5.582993z"/><path d="m0 0h-1.803v.947h4.653v-.947h-1.803v-4.935h-1.047z" transform="matrix(7.1576838 0 0 -7.1576838 12.905304 47.273639)"/><path d="m0 0h1.146l1.106-4.237h.016l1.321 4.237h1.03l1.296-4.237h.017l1.155 4.237h1.064l-1.712-5.883h-.997l-1.363 4.479h-.016l-1.363-4.479h-.964z" transform="matrix(7.1576838 0 0 -7.1576838 40.856059 40.493881)"/><path d="m0 0c1.221 0 2.027.93 2.027 2.185 0 1.171-.806 2.102-2.027 2.102-1.213 0-2.019-.931-2.019-2.102 0-1.255.806-2.185 2.019-2.185m-.008 5.235c1.836.033 3.132-1.197 3.132-3.083 0-1.837-1.296-3.066-3.132-3.099-1.812 0-3.108 1.229-3.108 3.066 0 1.886 1.296 3.116 3.108 3.116" transform="matrix(7.1576838 0 0 -7.1576838 124.82428 76.88999)"/><path d="m145.13101 24.320201 2.44678-2.259157-.0153 17.062379-2.43146-2.573142v-4.839956h-9.59568v7.432243l-2.44295-2.569312v-12.245397l2.44295-2.266815v7.382466h9.59568v-5.123309z"/></g><path d="m147.56247 39.115765 2.44678-2.178746h3.10922c1.22147 0 2.17108-.08041 2.84883-.237403.68158-.172309 1.24062-.382908 1.69246-.635628.45566-.264206.86537-.585849 1.24445-.95727 1.20616-1.221476 1.80732-2.768424 1.80732-4.637015 0-1.834129-.62031-3.32747-1.8571-4.480023-.45566-.432686-.98025-.79262-1.57758-1.068313-.58585-.279523-1.1449-.45949-1.67714-.547559-.52458-.08807-1.37464-.134017-2.554-.134017h-3.05177l-2.42381-2.178747h5.73596c2.32042 0 4.16221.352276 5.51005 1.049168 1.35549.696893 2.43146 1.719257 3.23174 3.074751.79262 1.351665 1.1985 2.825861 1.1985 4.426416 0 1.137237-.22591 2.228524-.66243 3.273863-.44417 1.04151-1.07214 1.960489-1.88391 2.753108-.82708.815594-1.79583 1.428247-2.89478 1.841788-.64329.252719-1.24062.425027-1.77286.513096-.53607.08424-1.5661.122531-3.08624.122531h-5.38369 5.38369c1.52014 0 2.55017-.03829 3.08624-.122531.53224-.08807 1.12957-.260377 1.77286-.513096 1.09895-.413541 2.0677-1.026194 2.89478-1.841788.81177-.792619 1.43974-1.711598 1.88391-2.753108.43652-1.045339.66243-2.136626.66243-3.273863 0-1.600555-.40588-3.074751-1.1985-4.426416-.80028-1.355494-1.87625-2.377858-3.23174-3.074751-1.34784-.696892-3.18963-1.049168-5.51005-1.049168h-5.73596l2.42381 2.178747h3.05177c1.17936 0 2.02942.04595 2.554.134017.53224.08807 1.09129.268036 1.67714.547559.59733.275693 1.12192.635627 1.57758 1.068313 1.23679 1.152553 1.8571 2.645894 1.8571 4.480023 0 1.868591-.60116 3.415539-1.80732 4.637015-.37908.371421-.78879.693064-1.24445.95727-.45184.25272-1.01088.463319-1.69246.635628-.67775.156992-1.62736.237403-2.84883.237403h-3.10922z" fill="#fff"/><path d="m147.56247 39.115765 2.44678-2.178746h3.10922c1.22147 0 2.17108-.08041 2.84883-.237403.68158-.172309 1.24062-.382908 1.69246-.635628.45566-.264206.86537-.585849 1.24445-.95727 1.20616-1.221476 1.80732-2.768424 1.80732-4.637015 0-1.834129-.62031-3.32747-1.8571-4.480023-.45566-.432686-.98025-.79262-1.57758-1.068313-.58585-.279523-1.1449-.45949-1.67714-.547559-.52458-.08807-1.37464-.134017-2.554-.134017h-3.05177l-2.42381-2.178747h5.73596c2.32042 0 4.16221.352276 5.51005 1.049168 1.35549.696893 2.43146 1.719257 3.23174 3.074751.79262 1.351665 1.1985 2.825861 1.1985 4.426416 0 1.137237-.22591 2.228524-.66243 3.273863-.44417 1.04151-1.07214 1.960489-1.88391 2.753108-.82708.815594-1.79583 1.428247-2.89478 1.841788-.64329.252719-1.24062.425027-1.77286.513096-.53607.08424-1.5661.122531-3.08624.122531z" fill="#005e70"/><g fill="#407c89"><path d="m150.00925 24.255107-2.44295-2.194063v17.054721l2.44295-2.178746v-5.226694-2.266815z"/><path d="m135.5315 31.710325-.008 7.420756 2.44678-2.201721-.008-5.219035h-2.43147z"/><path d="m138.02806 29.44351-.0459-5.115651-2.44679-2.266815v7.382466h2.49273z"/></g></svg>