<svg fill-rule="evenodd" height="229.86493" viewBox="0 0 243.89369 78.163583" width="721.4126" xmlns="http://www.w3.org/2000/svg"><g fill="#c80201" fill-rule="nonzero" transform="matrix(2.1570498 0 0 -2.1570498 -1075.590804 353.55672)"><path d="m544.2916 132.9373-.41-.848c-.342.206-.711.337-1.188.337-.588 0-.933-.261-.933-.612 0-.874 2.72-.717 2.72-2.479 0-.833-.541-1.664-1.975-1.664-.789 0-1.509.269-1.946.662l.444.847c.431-.319.954-.523 1.479-.523.536 0 .858.196.858.58 0 1.019-2.7.72-2.7 2.538 0 .99.896 1.641 1.924 1.641.737 0 1.282-.162 1.727-.479"/><path d="m548.4615 131.9275c.201-.076.4-.172.597-.307l-.344-.813c-.099.076-.243.152-.391.223-.207.091-.497.169-.759.169-.764 0-1.271-.488-1.271-1.316 0-.907.608-1.337 1.293-1.337.43 0 .82.11 1.157.344l.349-.702c-.469-.379-1.037-.517-1.652-.517-1.25 0-2.23.858-2.23 2.212 0 1.391 1.034 2.206 2.238 2.206.368 0 .699-.054 1.013-.162"/><path d="m689.8125 578.96875c-1.61875 0-2.71875 1.1725-2.71875 2.78125 0 1.61625 1.1 2.75 2.71875 2.75 1.60875 0 2.71875-1.13375 2.71875-2.75 0-1.60875-1.11-2.78125-2.71875-2.78125zm0 1.21875c.4325 0 .7375.12.96875.375.23625.27125.375.67375.375 1.1875 0 .5125-.13875.88875-.375 1.15625-.23125.255-.53625.40625-.96875.40625-.445 0-.75625-.15125-1-.40625-.2325-.2675-.375-.64375-.375-1.15625 0-.51375.1425-.91625.375-1.1875.24375-.255.555-.375 1-.375z" transform="matrix(.8 0 0 -.8 0 595.276)"/><path d="m557.4636 127.8172c-.224-.084-.56-.146-.788-.146-.538 0-1.015.146-1.308.532-.211.285-.319.687-.319 1.257v1.73h-.676v.799h.676v1.228h1.042v-1.228h1.081v-.799h-1.081v-1.572c0-.389.047-.671.167-.851.118-.188.321-.265.57-.265.157 0 .457.044.538.069z"/><path d="m558.2155 133.3132h1.045v-4.366c0-.401.015-.853.083-1.17h-1.044c-.06.317-.084.769-.084 1.17z"/><path d="m702.65625 578.96875c-.61125 0-1.0325.19-1.4375.5-.63625.48625-1 1.29625-1 2.28125 0 .90125.30875 1.67125.84375 2.15625.42375.3925.89.59375 1.5625.59375.5275 0 1.20125-.265 1.625-.8125.0175.25125.0512.5.0937.6875h1.28125c-.0812-.39625-.0937-.95125-.0937-1.46875v-3.8125h-1.3125v.6875c-.33375-.48125-.90125-.8125-1.5625-.8125zm.28125 1.21875c.4425 0 .76375.12 1 .375.23875.27125.375.67875.375 1.1875 0 .50125-.13625.88875-.375 1.15625-.23625.255-.5575.40625-1 .40625-.4325 0-.76625-.15125-1-.40625-.23875-.2575-.34375-.655-.34375-1.15625 0-.50875.105-.92625.34375-1.1875.23375-.255.5675-.375 1-.375z" transform="matrix(.8 0 0 -.8 0 595.276)"/><path d="m568.8199 127.7771c-.064.317-.086.769-.086 1.17v.891c0 .524-.036.848-.24 1.055-.202.184-.386.245-.686.245-.317 0-.592-.092-.828-.341-.241-.265-.267-.651-.267-1.192v-1.828h-1.045v3.03c0 .408-.03.863-.083 1.182h1.017c.041-.155.093-.423.111-.627h.011c.193.381.715.728 1.374.728.558 0 .968-.2 1.214-.453.319-.329.467-.737.467-1.619v-1.071c0-.401.026-.853.083-1.17z"/><path d="m717.25 577.46875v2.28125c-.33125-.46625-.92375-.78125-1.59375-.78125-.61375 0-1.00375.19-1.40625.5-.6425.47875-1 1.29625-1 2.28125 0 .9025.30625 1.6925.84375 2.1875.43.3825.87875.5625 1.5625.5625.5375 0 1.19875-.265 1.625-.8125.0125.25125.0325.5.0625.6875h1.3125c-.0712-.39625-.0937-.9675-.0937-1.46875v-5.4375h-1.3125zm-1.59375 2.71875c.0965-.0176.20313 0 .3125 0 .43625 0 .76625.12875 1 .375.23625.27.375.67875.375 1.1875 0 .51625-.13875.89-.375 1.15625-.23375.24625-.56375.40625-1 .40625-.4375 0-.77625-.16-1-.40625-.23375-.26625-.34375-.64375-.34375-1.15625 0-.51375.11-.9175.34375-1.1875.16781-.18469.39787-.32232.6875-.375z" transform="matrix(.8 0 0 -.8 0 595.276)"/></g><g fill="#c80201" transform="matrix(.99989034 0 0 .99989034 -52.381973 -24.892862)"><path d="m523.9375 922.28125c-1.15419-.0146-2.32654-.004-3.5.0312-14.88451.45302-28.0053 5.04172-38.78125 13.5625-5.90469 4.66872-12.06132 12.32642-15.625 19.40625-9.60474 19.08365-9.76567 44.9614-.40625 64.0938 3.21032 6.5627 6.43814 11.0851 11.5 16.1562 10.24593 10.2652 22.98778 15.9839 39.40625 17.6563 2.52128.2568 13.98285-.07 16.53125-.4687 14.10217-2.2101 25.43144-7.5786 34.46875-16.3126 10.51172-10.1591 16.56015-22.6664 18.75-38.78125.56228-4.13954.62726-14.57506.125-18.6875-1.97914-16.20536-8.27658-29.5089-18.71875-39.59375-11.35373-10.96517-26.43721-16.84281-43.75-17.0625zm-.53125 23.53125c3.20184.0287 6.3931.34319 9.28125.9375 15.02958 3.09231 24.61977 13.54382 27.40625 29.875 1.11013 6.50339 1.10984 15.7651 0 22.34375-3.03001 17.96085-14.4014 28.79185-32.09375 30.62505-2.79731.2898-7.8402.269-10.6875-.031-9.07734-.9578-16.25627-4.1745-21.875-9.8125-5.53324-5.5522-8.7497-12.493-10.28125-22.25-.64654-4.12027-.64201-15.00806 0-19.28125.55029-3.66845 1.6478-7.97674 2.6875-10.59375 3.86109-9.71972 10.88703-16.47052 20.5625-19.71875 4.25577-1.42887 9.6636-2.14155 15-2.09375z" transform="matrix(.34004134 0 0 .34004134 -17.938189 -275.55444)"/><path d="m794.375 922.375c-6.99224-.0197-8.89202.13973-14.03125 1.15625-21.75512 4.30299-38.52662 19.20763-45.5625 40.4375-3.25275 9.81544-4.5201 20.158-3.6875 30.375 1.82387 22.38005 11.84677 39.75415 28.8125 50.00005 8.00032 4.8312 16.19448 7.4286 28.03125 8.8437.48641.058 4.18968.071 8.21875.031 5.76774-.057 8.18741-.1904 11.46875-.625 14.74697-1.9512 27.55475-6.3905 37.875-13.0938 2.74646-1.7838 5.59375-3.8902 5.59375-4.1562 0-.1141-2.12824-4.1223-4.71875-8.9063l-4.71875-8.6875-1.375.9062c-19.00057 12.1544-46.94574 15.4306-63.6875 7.5-10.43523-4.9432-16.50463-13.5099-18.8125-26.56245l-.15625-.8125h48.75 48.75l.125-.5625c.75164-3.21964 1.0864-12.06384.65625-17.25-.61107-7.35797-1.60599-12.39325-3.6875-18.71875-6.48442-19.70705-20.8942-33.07633-40.9375-38-5.92425-1.4554-9.37431-1.85393-16.90625-1.875zm-2.0625 23.25c3.70033-.0689 7.90503.14657 10.40625.59375 7.29655 1.30429 12.80517 3.90101 17.46875 8.21875 5.55338 5.14131 9.10337 12.95514 9.59375 21.15625l.15625 2.71875h-36.1875-36.1875l.15625-1.5c.57764-5.526 2.81892-11.73063 6-16.5625 1.84131-2.79672 6.09765-7.01197 9-8.90625 3.97943-2.59624 8.66132-4.36075 13.9375-5.28125 1.37409-.23987 3.43605-.39614 5.65625-.4375z" transform="matrix(.34004134 0 0 .34004134 -17.938189 -275.55444)"/><path d="m194.16171 70.954681c0-6.488717.0341-10.978812.0886-11.659793.34852-4.349149 1.45716-7.153833 3.73347-9.444583 2.41962-2.434971 5.67385-3.590991 9.7058-3.447998 3.23161.11464 5.4849 1.003405 7.25916 2.862926 1.39287 1.459917 2.22094 3.166003 2.70427 5.5717.35303 1.75788.38803 2.564043.43441 10.049922.0606 9.752985.22282 12.919194.82622 16.126142l.0931.493974h4.1824 4.18231l-.1566-.966352c-.16275-1.003098-.34126-2.624331-.50811-4.61671-.0581-.694595-.12395-4.947222-.16408-10.607666-.066-9.339565-.0889-10.055552-.39059-12.196553-.44945-3.191594-1.52154-6.09843-3.02311-8.197466-1.23422-1.725431-3.27922-3.586487-5.04129-4.588459-4.41875-2.512557-10.40264-2.990769-15.50862-1.239237-1.85123.634921-3.54504 1.569952-5.0329 2.778174-.93329.757852-2.31879 2.178362-2.90725 2.980739-.23336.318433-.44719.578931-.47514.578931-.0278 0-.0969-.434915-.15343-.966353-.1609-1.513757-.50789-3.398559-.88559-4.809858l-.0864-.322116h-4.10709-4.10707l.10829.622739c.36624 2.108555.61128 4.985196.72572 8.523677.0459 1.417747.084 9.428718.0848 17.802134l.001 15.224376h4.20872 4.20871v-10.55229z"/><g transform="matrix(1.9913537 0 0 1.9913537 -933.16944 -2271.4564)"><path d="m494.5625 1160.375v5.3438 5.3437h5.6875 5.6875v-5.3437-5.3438h-5.6875zm2.96875 1.5h1.5c1.35533 0 1.54326.017 1.84375.094.97214.2486 1.603.9247 1.65625 1.7812.0453.7275-.20813 1.2313-.78125 1.5938l-.1875.125.21875.062c.55564.1957 1.0114.6109 1.25 1.0938.15923.3222.1875.3209.1875.8125 0 .4908-.0299.525-.1875.8437-.35502.7184-.97389 1.1001-1.96875 1.25-.30069.045-.82817.062-1.96875.063h-1.5625v-3.8438-3.875zm1.375 1.2188v.9687 1h .5c.26687-.0004.5924-.029.75-.062.69401-.1471.98232-.4735.9375-1.0938-.0248-.3414-.13516-.5456-.4375-.6874-.2258-.1058-.30306-.1116-1-.125h-.75zm0 3.1874v1.0626 1.0312h.75c.40925-.0005.8678-.01 1.03125-.031.71945-.104 1.125-.4676 1.125-1.0313 0-.3566-.14015-.5707-.4375-.75-.35821-.216-.68092-.2813-1.625-.2813h-.84375z"/><path d="m507.65625 1160.375v5.3438 5.3437h5.71875 5.71875v-5.3437-5.3438h-5.71875zm3.03125 1.5h1.46875c1.66569.0009 1.88068.022 2.40625.2812.79316.3919 1.22179 1.1747 1.09375 2-.0268.1729-.0801.3987-.125.5-.099.2239-.41791.5761-.625.6876-.15682.084-.19815.1562-.0937.1562.14444 0 .74737.3498.96875.5625.48764.4686.69846 1.2158.53125 1.8437-.20822.7823-.81127 1.3193-1.75 1.5626-.32753.085-.50557.1077-2.125.125h-1.75v-3.8438-3.875zm1.375 1.2188v1 1l .625-.031c.3652-.014.68826-.055.8125-.094.50655-.1594.75519-.4627.75-.9688-.003-.3177-.0806-.4875-.28125-.6562-.22416-.1887-.51605-.25-1.25-.25zm0 3.1874v1.0626 1.0624l.9375-.031c.79435-.017.93158-.011 1.1875-.094.72989-.2364.99452-1.0348.53125-1.5624-.30393-.3461-.71041-.4365-1.84375-.4376z"/><path d="m520.8125 1160.375v5.3438 5.3437h5.71875 5.6875v-5.3437-5.3438h-5.6875zm5.9375 1.4062c.82889-.046 1.64553.079 2.65625.4376l.46875.1874v.7188c0 .3889.009.6875 0 .6875s-.26144-.09-.53125-.2187c-.95914-.4564-1.59026-.6264-2.46875-.5938-.45988.017-.62123.039-.96875.1562-.52537.1776-.86336.3915-1.21875.75-.48178.486-.71993 1.1206-.71875 1.8438.002.768.23851 1.3405.75 1.8438.57394.5645 1.32032.8393 2.28125.8437.85161 0 1.56708-.1856 2.46875-.6563l.5-.25v.7188.7188l-.28125.1562c-.809.3728-1.50262.5083-2.5.5312-.40334.01-.85073.021-1 0-1.55487-.219-2.81263-1.1353-3.375-2.4687-.33734-.8-.36936-1.7362-.0937-2.5937.43999-1.3691 1.67462-2.4154 3.1875-2.7188.28557-.057.56745-.079.84375-.094z"/></g></g><path d="m217.50021 9.435796-.007 7.256577 2.39265-2.153009-.007-5.103568h-2.37767z" fill="#ea8d86" fill-rule="nonzero" opacity=".5"/><g fill-rule="nonzero" transform="translate(-.000004)"><path d="m226.88733 2.209174 2.39265-2.209174-.015 16.684884-2.37767-2.516212v-4.732876h-9.38338v7.26781l-2.3889-2.512468v-11.974475l2.3889-2.216663v7.219133h9.38338v-5.009959z" fill="#c80201"/><path d="m229.265 16.677396 2.39265-2.130543h3.04042c1.19445 0 2.12306-.07863 2.78581-.232151.6665-.168496 1.21317-.374436 1.65501-.621564.44558-.258361.84622-.572888 1.21692-.936091 1.17947-1.194452 1.76734-2.707175 1.76734-4.534425 0-1.79355-.60659-3.253852-1.81602-4.380905-.44558-.423113-.95856-.775083-1.54268-1.044678-.57289-.273338-1.11956-.449323-1.64003-.535444-.51298-.08612-1.34423-.131052-2.49749-.131052h-2.98426l-2.37018-2.130543h5.60906c2.26908 0 4.07012.344481 5.38814 1.025955 1.3255.681475 2.37767 1.68122 3.16024 3.006724.77508 1.321761 1.17198 2.763341 1.17198 4.328485 0 1.112076-.22091 2.17922-.64777 3.201431-.43435 1.018467-1.04842 1.917114-1.84223 2.692197-.80878.79755-1.7561 1.396648-2.83074 1.801039-.62905.247128-1.21317.415625-1.73364.501745-.52421.08238-1.53144.11982-3.01795.11982h-5.26458 5.26458c1.48651 0 2.49374-.03744 3.01795-.11982.52047-.08612 1.10459-.254617 1.73364-.501745 1.07464-.404391 2.02196-1.003489 2.83074-1.801039.79381-.775083 1.40788-1.67373 1.84223-2.692197.42686-1.022211.64777-2.089355.64777-3.201431 0-1.565144-.3969-3.006724-1.17198-4.328485-.78257-1.325504-1.83474-2.325249-3.16024-3.006724-1.31802-.681474-3.11906-1.025955-5.38814-1.025955h-5.60906l2.37018 2.130543h2.98426c1.15326 0 1.98451.04493 2.49749.131052.52047.08612 1.06714.262106 1.64003.535444.58412.269595 1.0971.621565 1.54268 1.044678 1.20943 1.127053 1.81602 2.587355 1.81602 4.380905 0 1.82725-.58787 3.339973-1.76734 4.534425-.3707.363203-.77134.67773-1.21692.936091-.44184.247128-.98851.453068-1.65501.621564-.66275.153519-1.59136.232151-2.78581.232151h-3.04042z" fill="#fff"/><path d="m229.265 16.677396 2.39265-2.130543h3.04042c1.19445 0 2.12306-.07863 2.78581-.232151.6665-.168496 1.21317-.374436 1.65501-.621564.44558-.258361.84622-.572888 1.21692-.936091 1.17947-1.194452 1.76734-2.707175 1.76734-4.534425 0-1.79355-.60659-3.253852-1.81602-4.380905-.44558-.423113-.95856-.775083-1.54268-1.044678-.57289-.273338-1.11956-.449323-1.64003-.535444-.51298-.08612-1.34423-.131052-2.49749-.131052h-2.98426l-2.37018-2.130543h5.60906c2.26908 0 4.07012.344481 5.38814 1.025955 1.3255.681475 2.37767 1.68122 3.16024 3.006724.77508 1.321761 1.17198 2.763341 1.17198 4.328485 0 1.112076-.22091 2.17922-.64777 3.201431-.43435 1.018467-1.04842 1.917114-1.84223 2.692197-.80878.79755-1.7561 1.396648-2.83074 1.801039-.62905.247128-1.21317.415625-1.73364.501745-.52421.08238-1.53144.11982-3.01795.11982z" fill="#c80201"/><path d="m231.65765 2.14552-2.38891-2.14552v16.677396l2.38891-2.130543v-5.111057-2.216663-5.073613z" fill="#ea8d86" opacity=".5"/><path d="m219.94153 7.219133-.0449-5.00247-2.39265-2.216663v7.219133h2.43758z" fill="#ea8d86" opacity=".5"/></g></svg>