<?xml version="1.0" encoding="UTF-8" standalone="no"?>
<!-- Created with Inkscape (http://www.inkscape.org/) -->

<svg
   xmlns:dc="http://purl.org/dc/elements/1.1/"
   xmlns:cc="http://creativecommons.org/ns#"
   xmlns:rdf="http://www.w3.org/1999/02/22-rdf-syntax-ns#"
   xmlns:svg="http://www.w3.org/2000/svg"
   xmlns="http://www.w3.org/2000/svg"
   xmlns:sodipodi="http://sodipodi.sourceforge.net/DTD/sodipodi-0.dtd"
   xmlns:inkscape="http://www.inkscape.org/namespaces/inkscape"
   width="4408.8247"
   height="1058"
   id="svg11827"
   version="1.1"
   inkscape:version="0.91 r13725"
   sodipodi:docname="BBC Red Button HD.svg">
  <defs
     id="defs11829" />
  <sodipodi:namedview
     id="base"
     pagecolor="#ffffff"
     bordercolor="#666666"
     borderopacity="1.0"
     inkscape:pageopacity="0.0"
     inkscape:pageshadow="2"
     inkscape:zoom="0.28916016"
     inkscape:cx="2321.9718"
     inkscape:cy="450.74032"
     inkscape:document-units="px"
     inkscape:current-layer="layer1"
     showgrid="false"
     showguides="true"
     inkscape:guide-bbox="true"
     fit-margin-left="0"
     fit-margin-bottom="0"
     fit-margin-top="0"
     fit-margin-right="0"
     inkscape:window-width="1920"
     inkscape:window-height="1017"
     inkscape:window-x="-8"
     inkscape:window-y="-8"
     inkscape:window-maximized="1">
    <inkscape:grid
       type="xygrid"
       id="grid11846"
       empspacing="5"
       visible="true"
       enabled="true"
       snapvisiblegridlinesonly="true"
       originx="151.60948"
       originy="-369.25245" />
  </sodipodi:namedview>
  <metadata
     id="metadata11832">
    <rdf:RDF>
      <cc:Work
         rdf:about="">
        <dc:format>image/svg+xml</dc:format>
        <dc:type
           rdf:resource="http://purl.org/dc/dcmitype/StillImage" />
        <dc:title></dc:title>
      </cc:Work>
    </rdf:RDF>
  </metadata>
  <g
     inkscape:label="Layer 1"
     inkscape:groupmode="layer"
     id="layer1"
     transform="translate(151.60948,374.89029)">
    <circle
       style="fill:#ff1900;fill-opacity:1;fill-rule:evenodd;stroke:none"
       id="path11954"
       cx="1749.0396"
       cy="154.10971"
       r="529" />
    <g
       id="g11874"
       transform="matrix(4.3913628,0,0,4.3913628,-272.97884,-4173.314)"
       style="fill:#ffffff;fill-opacity:1">
      <g
         id="g11876"
         style="fill:#ffffff;fill-opacity:1"
         transform="matrix(0.82302261,0,0,-0.82302261,189.63913,997.27701)">
        <path
           id="path11878"
           d="m 0,0 c 0,-11.25 -14,-10.583 -14,-10.583 l -14,0 0,20.333 14,0 C 0.417,9.833 0,0 0,0 m -28,40.75 10.667,0 c 11.083,-0.584 10.666,-8.833 10.666,-8.833 0,-10.25 -12.25,-10.417 -12.25,-10.417 l -9.083,0 0,19.25 z M -2.583,17.5 c 0,0 9.583,4.083 9.5,14.917 0,0 1.457,17.749 -22.063,19.916 l -26.104,0 0,-74.416 29.917,0 c 0,0 25,-0.084 25,21 0,0 0.583,14.333 -16.25,18.583 m -67.545,49.4156 109.878,0 0,-103.544 -109.878,0 0,103.544 z"
           style="fill:#ffffff;fill-opacity:1;fill-rule:nonzero"
           inkscape:connector-curvature="0" />
      </g>
      <g
         id="g11880"
         style="fill:#ffffff;fill-opacity:1"
         transform="matrix(0.82302261,0,0,-0.82302261,85.355129,997.27701)">
        <path
           id="path11882"
           style="fill:#ffffff;fill-opacity:1;fill-rule:nonzero"
           d="m 0,0 c 0,-11.25 -14,-10.583 -14,-10.583 l -14,0 0,20.333 14,0 C 0.417,9.833 0,0 0,0 m -28,40.75 10.667,0 c 11.083,-0.584 10.666,-8.833 10.666,-8.833 0,-10.25 -12.25,-10.417 -12.25,-10.417 l -9.083,0 0,19.25 z M -2.583,17.5 c 0,0 9.583,4.083 9.5,14.917 0,0 1.457,17.749 -22.063,19.916 l -26.104,0 0,-74.416 29.917,0 c 0,0 25,-0.084 25,21 0,0 0.583,14.333 -16.25,18.583 m -67.545,49.4156 109.878,0 0,-103.544 -109.878,0 0,103.544 z"
           inkscape:connector-curvature="0" />
      </g>
      <g
         id="g11884"
         style="fill:#ffffff;fill-opacity:1"
         transform="matrix(0.82302261,0,0,-0.82302261,308.1885,958.5961)">
        <path
           id="path11886"
           style="fill:#ffffff;fill-opacity:1;fill-rule:nonzero"
           d="m 0,0 0,-13.75 c 0,0 -13.417,8.25 -28.25,8.417 0,0 -27.666,0.54 -28.916,-26.522 0,0 -1,-24.895 28.583,-26.312 0,0 12.417,-1.5 29.25,9.25 l 0,-14.25 c 0,0 -22.583,-13.416 -48.75,-3.083 0,0 -22,8.04 -22.834,34.395 0,0 -0.917,27.105 28.417,36.105 0,0 7.834,3 21.917,1.667 0,0 8.416,-0.834 20.583,-5.917 m -87.461,-83.627 109.878,0 0,103.544 -109.878,0 0,-103.544 z"
           inkscape:connector-curvature="0" />
      </g>
    </g>
    <g
       transform="matrix(9.8110477,0,0,9.8110477,50.136122,-3243.9235)"
       style="font-style:normal;font-weight:normal;font-size:40px;line-height:125%;font-family:Sans;letter-spacing:0px;word-spacing:0px;fill:#ffffff;fill-opacity:1;stroke:none"
       id="flowRoot11899">
      <path
         d="m 242.21484,359.29927 -9.23828,0 0,-27.28516 7.14844,0 c 2.25259,3e-5 4.0104,0.30277 5.27344,0.90821 1.263,0.60549 2.22654,1.43882 2.89062,2.5 0.66405,1.06122 0.99608,2.28843 0.9961,3.68164 -2e-5,2.68231 -1.38674,4.60288 -4.16016,5.76172 1.99217,0.37761 3.57746,1.19793 4.75586,2.46093 1.17836,1.26304 1.76756,2.77345 1.76758,4.53125 -2e-5,1.39324 -0.3581,2.63673 -1.07422,3.73047 -0.71617,1.09376 -1.7676,1.98568 -3.1543,2.67578 -1.38673,0.69011 -3.12176,1.03516 -5.20508,1.03516 z m -1.97265,-23.80859 -3.35938,0 0,8.20312 2.59766,0 c 2.08332,2e-5 3.56444,-0.39712 4.44336,-1.1914 0.87889,-0.79426 1.31834,-1.8229 1.31836,-3.08594 -2e-5,-2.61717 -1.66668,-3.92576 -5,-3.92578 z m 0.29297,11.67968 -3.65235,0 0,8.65235 3.84766,0 c 2.1354,0 3.58397,-0.16601 4.3457,-0.49805 0.7617,-0.33203 1.37368,-0.8496 1.83594,-1.55273 0.46222,-0.70312 0.69334,-1.45833 0.69336,-2.26563 -2e-5,-0.83332 -0.24416,-1.59504 -0.73242,-2.28515 -0.4883,-0.6901 -1.18166,-1.20442 -2.08008,-1.54297 -0.89845,-0.33853 -2.31772,-0.5078 -4.25781,-0.50782 z"
         style="font-variant:normal;font-stretch:normal;font-family:'Gill Sans MT';-inkscape-font-specification:'Gill Sans MT';fill:#ffffff;fill-opacity:1"
         id="path11942"
         inkscape:connector-curvature="0" />
      <path
         d="m 273.74327,332.01411 3.92578,0 0,15.48829 c -3e-5,2.09636 -0.15302,3.67839 -0.45899,4.74609 -0.30601,1.06771 -0.68361,1.95638 -1.13281,2.66601 -0.44924,0.70964 -0.99937,1.34441 -1.65039,1.9043 -2.16148,1.86198 -4.987,2.79297 -8.47656,2.79297 -3.5547,0 -6.40626,-0.92448 -8.55469,-2.77344 -0.65105,-0.57291 -1.20118,-1.21419 -1.65039,-1.92383 -0.44922,-0.70963 -0.82032,-1.57877 -1.11328,-2.60742 -0.29297,-1.02864 -0.43946,-2.64322 -0.43945,-4.84375 l 0,-15.44922 3.92578,0 0,15.48829 c -10e-6,2.56511 0.29296,4.34896 0.8789,5.35156 0.58593,1.00261 1.47786,1.80664 2.67578,2.41211 1.19791,0.60547 2.61067,0.9082 4.23829,0.9082 2.31769,0 4.20571,-0.60546 5.66406,-1.81641 0.76821,-0.65103 1.32159,-1.41926 1.66015,-2.30468 0.33852,-0.88541 0.5078,-2.40234 0.50782,-4.55078 z"
         style="font-variant:normal;font-stretch:normal;font-family:'Gill Sans MT';-inkscape-font-specification:'Gill Sans MT';fill:#ffffff;fill-opacity:1"
         id="path11944"
         inkscape:connector-curvature="0" />
      <path
         d="m 280.3455,331.97505 22.79297,0 0,3.47656 -9.51172,0 0,23.84766 -3.92578,0 0,-23.84766 -9.35547,0 z"
         style="font-variant:normal;font-stretch:normal;font-family:'Gill Sans MT';-inkscape-font-specification:'Gill Sans MT';fill:#ffffff;fill-opacity:1"
         id="path11946"
         inkscape:connector-curvature="0" />
      <path
         d="m 305.56263,331.97505 22.79297,0 0,3.47656 -9.51172,0 0,23.84766 -3.92578,0 0,-23.84766 -9.35547,0 z"
         style="font-variant:normal;font-stretch:normal;font-family:'Gill Sans MT';-inkscape-font-specification:'Gill Sans MT';fill:#ffffff;fill-opacity:1"
         id="path11948"
         inkscape:connector-curvature="0" />
      <path
         d="m 342.28609,331.62349 c 4.21873,3e-5 7.7311,1.33466 10.53711,4.00391 2.80596,2.66929 4.20896,6.01564 4.20899,10.03906 -3e-5,4.02344 -1.41605,7.35352 -4.24805,9.99023 -2.83205,2.63672 -6.40301,3.95508 -10.71289,3.95508 -4.11459,0 -7.54233,-1.31836 -10.2832,-3.95508 -2.74089,-2.63671 -4.11133,-5.94074 -4.11133,-9.91211 0,-4.0755 1.38021,-7.44789 4.14062,-10.11718 2.76041,-2.66925 6.24999,-4.00388 10.46875,-4.00391 z m 0.15625,3.71094 c -3.12501,2e-5 -5.69337,0.97658 -7.70507,2.92968 -2.01173,1.95315 -3.01759,4.44663 -3.01758,7.48047 -1e-5,2.94272 1.00911,5.39064 3.02734,7.34375 2.01822,1.95313 4.54426,2.92969 7.57813,2.92969 3.04685,0 5.58917,-0.99609 7.62695,-2.98828 2.03773,-1.99218 3.05661,-4.47265 3.05664,-7.44141 -3e-5,-2.89061 -1.01891,-5.32224 -3.05664,-7.29492 -2.03778,-1.97263 -4.54103,-2.95896 -7.50977,-2.95898 z"
         style="font-variant:normal;font-stretch:normal;font-family:'Gill Sans MT';-inkscape-font-specification:'Gill Sans MT';fill:#ffffff;fill-opacity:1"
         id="path11950"
         inkscape:connector-curvature="0" />
      <path
         d="m 383.17726,332.01411 3.71094,0 0,27.28516 -3.35937,0 -18.24219,-20.99609 0,20.99609 -3.67188,0 0,-27.28516 3.16407,0 18.39843,21.17188 z"
         style="font-variant:normal;font-stretch:normal;font-family:'Gill Sans MT';-inkscape-font-specification:'Gill Sans MT';fill:#ffffff;fill-opacity:1"
         id="path11952"
         inkscape:connector-curvature="0" />
    </g>
    <g
       transform="matrix(9.8108868,0,0,9.8108868,-923.79555,-3243.0021)"
       style="font-style:normal;font-weight:normal;font-size:40px;line-height:125%;font-family:Sans;letter-spacing:0px;word-spacing:0px;fill:#ffffff;fill-opacity:1;stroke:none"
       id="flowRoot11907">
      <path
         d="m 230.81903,332.16638 14.26671,0 c 2.62847,3e-5 4.76491,0.76073 6.40935,2.28212 1.6444,1.52143 2.51146,3.85671 2.51149,6.01904 -3e-5,2.99104 -0.97108,5.15892 -3.73741,6.68819 0,0 1.71131,1.16231 3.25211,4.45233 1.22358,2.71912 2.4051,5.28286 3.54455,7.69121 l -8.93169,0 c -0.44026,-0.89343 -0.98315,-1.96813 -2.07726,-4.48008 -1.09413,-2.51194 -2.03288,-4.12398 -2.81623,-4.83614 -0.78337,-0.71215 -1.62177,-1.06822 -2.51519,-1.06823 l -1.94222,0 0,10.38445 -7.96421,0 z m 7.96421,5.44785 0,5.70052 2.90763,0 c 1.13942,2e-5 2.2963,-0.0466 2.96314,-0.584 0.66682,-0.53733 0.74651,-1.05077 0.74651,-2.0478 0,-2.04579 -1.28836,-3.06869 -3.86503,-3.06872 z"
         style="font-variant:normal;font-weight:bold;font-stretch:normal;font-family:'Gill Sans MT';-inkscape-font-specification:'Gill Sans MT Bold';fill:#ffffff"
         id="path11935"
         inkscape:connector-curvature="0"
         sodipodi:nodetypes="ccccccccsccccccccccscc" />
      <path
         d="m 280.50674,353.38521 0,5.91406 -20.81232,0 0,-27.13289 20.54041,0 0,5.4655 -12.0321,0 0,4.83848 11.43001,0 0,5.60006 -11.43001,0 0,5.31479 z"
         style="font-variant:normal;font-weight:bold;font-stretch:normal;font-family:'Gill Sans MT';-inkscape-font-specification:'Gill Sans MT Bold';fill:#ffffff"
         id="path11937"
         inkscape:connector-curvature="0"
         sodipodi:nodetypes="ccccccccccccc" />
      <path
         d="m 285.13443,332.16638 13.13035,0 c 4.62248,0 8.2771,1.26571 10.96387,3.79705 2.68672,2.53139 4.03009,5.80404 4.03012,9.81795 0,7.99325 -4.75182,13.44504 -12.70658,13.51789 l -15.41776,0 z m 8.19432,5.64492 0,15.52906 3.24261,0 c 6.10104,0 7.85032,-2.79714 7.85032,-7.59782 0,-6.60585 -3.53203,-7.88325 -8.19713,-7.93124 z"
         style="font-variant:normal;font-weight:bold;font-stretch:normal;font-family:'Gill Sans MT';-inkscape-font-specification:'Gill Sans MT Bold';fill:#ffffff"
         id="path11939"
         inkscape:connector-curvature="0"
         sodipodi:nodetypes="csccccccccccc" />
    </g>
    <path
       inkscape:connector-curvature="0"
       d="m 4044.05,-26.306574 28.7915,-26.58373 -0.18,200.774714 -28.6113,-30.27841 0,-56.952252 -112.9133,0 0,87.455942 -28.7464,-30.23335 0,-144.092802 28.7464,-26.673842 0,86.870211 112.9133,0 0,-60.286481 z"
       id="path15603"
       style="fill:#ffffff;fill-opacity:1;fill-rule:nonzero;stroke:none" />
    <path
       inkscape:connector-curvature="0"
       d="m 4072.6613,147.7943 0,0 28.7915,-25.63752 36.5864,0 c 14.3733,0 25.5474,-0.94621 33.5225,-2.79355 8.0202,-2.02757 14.5986,-4.50572 19.9153,-7.47949 5.3618,-3.10894 10.183,-6.89374 14.6436,-11.26429 14.193,-14.373236 21.267,-32.576332 21.267,-54.564225 0,-21.58238 -7.2993,-39.1546733 -21.8527,-52.7168806 -5.3619,-5.0914544 -11.5347,-9.3268304 -18.5636,-12.5709424 -6.8938,-3.28918 -13.4721,-5.406864 -19.7351,-6.44318 -6.1728,-1.036309 -16.1755,-1.577001 -30.053,-1.577001 l -35.9106,0 -28.5212,-25.637525 67.4956,0 c 27.3047,0 48.9772,4.145265 64.8373,12.345668 15.9502,8.200403 28.6113,20.230662 38.0282,36.1808954 9.3269,15.9051816 14.103,33.2521846 14.103,52.0860846 0,13.381977 -2.6585,26.223262 -7.7949,38.52387 -5.2267,12.255549 -12.6161,23.069266 -22.1682,32.396096 -9.7324,9.59718 -21.1318,16.80632 -34.0632,21.67249 -7.5696,2.97378 -14.5985,5.00136 -20.8615,6.03767 -6.308,0.99126 -18.4283,1.44183 -36.316,1.44183 l -63.3504,0 63.3504,0 c 17.8877,0 30.008,-0.4506 36.316,-1.44183 6.263,-1.03631 13.2919,-3.06389 20.8615,-6.03767 12.9314,-4.86617 24.3308,-12.07531 34.0632,-21.67249 9.5521,-9.32683 16.9415,-20.140547 22.1682,-32.396096 5.1364,-12.300608 7.7949,-25.141893 7.7949,-38.52387 0,-18.8339 -4.7761,-36.180903 -14.103,-52.0860846 -9.4169,-15.9502334 -22.078,-27.9804924 -38.0282,-36.1808954 -15.8601,-8.200403 -37.5326,-12.345668 -64.8373,-12.345668 l -67.4956,0 28.5212,25.637525 35.9106,0 c 13.8775,0 23.8802,0.540669 30.053,1.577001 6.263,1.036316 12.8413,3.154 19.7351,6.44318 7.0289,3.244112 13.2017,7.479488 18.5636,12.5709424 14.5534,13.5622073 21.8527,31.1345006 21.8527,52.7168806 0,21.987893 -7.074,40.190989 -21.267,54.564225 -4.4606,4.37055 -9.2818,8.15535 -14.6436,11.26429 -5.3167,2.97377 -11.8951,5.45192 -19.9153,7.47949 -7.9751,1.84734 -19.1492,2.79355 -33.5225,2.79355 l -36.5864,0 -28.7915,25.63752 z"
       id="path15607"
       style="fill:#ffffff;fill-rule:nonzero;stroke:none" />
    <path
       inkscape:connector-curvature="0"
       d="m 4072.6613,147.7943 28.7915,-25.63752 36.5864,0 c 14.3733,0 25.5474,-0.94621 33.5225,-2.79355 8.0202,-2.02757 14.5986,-4.50572 19.9153,-7.47949 5.3618,-3.10894 10.183,-6.89374 14.6436,-11.26429 14.193,-14.373236 21.267,-32.576332 21.267,-54.564225 0,-21.58238 -7.2993,-39.1546733 -21.8527,-52.7168806 -5.3619,-5.0914544 -11.5347,-9.3268304 -18.5636,-12.5709424 -6.8938,-3.28918 -13.4721,-5.406864 -19.7351,-6.44318 -6.1728,-1.036309 -16.1755,-1.577001 -30.053,-1.577001 l -35.9106,0 -28.5212,-25.637525 67.4956,0 c 27.3047,0 48.9772,4.145265 64.8373,12.345668 15.9502,8.200403 28.6113,20.230662 38.0282,36.1808954 9.3269,15.9051816 14.103,33.2521846 14.103,52.0860846 0,13.381977 -2.6585,26.223262 -7.7949,38.52387 -5.2267,12.255549 -12.6161,23.069266 -22.1682,32.396096 -9.7324,9.59718 -21.1318,16.80632 -34.0632,21.67249 -7.5696,2.97378 -14.5985,5.00136 -20.8615,6.03767 -6.308,0.99126 -18.4283,1.44183 -36.316,1.44183 l -63.3504,0 z"
       id="path15611"
       style="fill:#ffffff;fill-opacity:1;fill-rule:nonzero;stroke:none" />
    <path
       inkscape:connector-curvature="0"
       d="m 4101.4528,-27.072548 -28.7464,-25.817756 0,200.684604 28.7464,-25.63752 0,-61.503032 0,-26.673841 0,-61.052455 z"
       id="path15615"
       style="fill:#838181;fill-rule:nonzero;stroke:none" />
    <path
       inkscape:connector-curvature="0"
       d="m 3931.0917,60.653748 -0.09,87.320772 28.7915,-25.90786 -0.09,-61.412912 -28.6113,0 z"
       id="path15619"
       style="fill:#838181;fill-opacity:1;fill-rule:nonzero;stroke:none" />
    <path
       inkscape:connector-curvature="0"
       d="m 3960.469,33.979907 -0.5408,-60.196369 -28.7916,-26.673842 0,86.870211 29.3323,0 z"
       id="path15623"
       style="fill:#838181;fill-opacity:1;fill-rule:nonzero;stroke:none" />
  </g>
</svg>
