<svg height="268.08484" width="999" xmlns="http://www.w3.org/2000/svg"><g transform="matrix(1.25 0 0 -1.25 -525.70872 -355.25283)"><g fill="#fff"><path d="m758.07481-484.29871v27.53762h7.31283v-41.14631h-5.91353l-23.40377 27.59972v-27.59972h-7.31283v41.14631h5.91353z"/><path d="m794.48563-489.19527c1.44132 1.65352 2.162 3.96433 2.16202 6.93243-.00002 2.96807-.7207 5.27888-2.16202 6.93244-1.44137 1.56811-3.41254 2.35218-5.91353 2.35221-2.50102-.00003-4.4722-.7841-5.91353-2.35221-1.44265-1.65356-2.16397-3.96437-2.16396-6.93244-.00001-2.9681.72131-5.27891 2.16396-6.93243 1.44133-1.56816 3.41251-2.35223 5.91353-2.35223 2.50099 0 4.47216.78407 5.91353 2.35223zm-17.58339-4.89658c-2.98879 3.05219-4.48319 6.99486-4.48318 11.82804-.00001 4.83314 1.49439 8.77614 4.48318 11.829 2.98878 3.05281 6.87873 4.57922 11.66986 4.57925 4.7911-.00003 8.68105-1.52644 11.66986-4.57925 2.98876-3.05286 4.48315-6.99586 4.48318-11.829-.00003-4.83318-1.49442-8.77585-4.48318-11.82804-2.98881-3.05219-6.87876-4.57828-11.66986-4.57828-4.79113 0-8.68108 1.52609-11.66986 4.57828z"/><path d="m831.76204-466.42809-.76467-6.99454c-1.48406.29626-2.79796.44441-3.9417.44444-2.33283-.00003-4.24061-.86884-5.72334-2.60645-1.31456-1.56947-1.97184-4.5162-1.97183-8.84023v-13.48253h-7.7592v22.51294c-.00001 3.60335-.2122 6.52873-.63657 8.77617h7.56901c.42307-1.48407.69866-3.07421.82676-4.7704h.064c2.03391 3.64602 5.0227 5.46906 8.96636 5.46909 1.44133-.00003 2.56503-.16953 3.37112-.50849z"/><path d="m855.12505-491.99387.70062-5.59525c-1.86575-.72066-3.81623-1.08101-5.85143-1.08101-4.49355 0-7.73722 1.31391-9.73103 3.94171-1.56815 2.1633-2.35222 5.27953-2.35222 9.3487v12.84597h-5.02465v5.91546h5.02465v9.15657h7.75921v-9.15657h8.01345v-5.91546h-8.01345v-11.70092c-.00001-3.0095.40237-5.10811 1.20716-6.29586.84875-1.31456 2.26939-1.97184 4.26194-1.97182 1.52542-.00002 2.86067.16948 4.00575.50848z"/><path d="m892.5082-497.9074h-7.69516c-.46711 2.16201-.70065 5.06606-.70062 8.71213v6.5501c-.00003 4.02772-.59326 6.63548-1.77969 7.82324-1.23047 1.22914-2.92671 1.84371-5.0887 1.84374-2.45833-.00003-4.51426-.84814-6.16778-2.54435-.80608-.89019-1.32556-1.99223-1.55844-3.30611-.2329-1.31392-.34935-3.15798-.34934-5.53216v-13.54659h-7.7592v41.14631h7.69516v-14.56356h.064c.80476 1.52671 2.12934 2.81991 3.97373 3.87959 1.84436 1.05964 3.95366 1.58947 6.32789 1.5895 3.73143-.00003 6.74156-1.14444 9.03041-3.43322 1.18772-1.23049 2.04651-2.74655 2.57637-4.5482.5298-1.8017.79471-4.27134.79475-7.40889v-7.9494c-.00004-3.56068.21215-6.46472.63657-8.71213z"/><path d="m929.09175-484.93334h-22.9574c.25488-2.16203 1.1347-3.911 2.63946-5.24688 1.50472-1.33591 3.57165-2.00385 6.20076-2.00385 4.02773 0 7.58904 1.06031 10.68395 3.18092l2.41626-5.15274c-3.77289-3.0095-8.49996-4.51424-14.18122-4.51424-4.66433 0-8.48021 1.50508-11.44764 4.51521-2.96745 3.01012-4.45116 6.9528-4.45116 11.82803 0 4.83381 1.47336 8.78747 4.42011 11.86103 2.94672 3.07351 6.73026 4.61027 11.3506 4.6103 4.7911-.00003 8.58595-1.50509 11.38457-4.51519 2.79856-3.01017 4.19785-6.93215 4.19789-11.76595-.00004-.67798-.0854-1.61019-.25618-2.79664zm-22.9574 5.53119h15.26417c-.00002 2.1633-.67864 3.9019-2.03586 5.21583-1.35727 1.31387-3.223 1.97083-5.59719 1.97086-2.16204-.00003-3.91067-.67832-5.24591-2.0349-1.33526-1.35663-2.13033-3.07388-2.38521-5.15179z"/><path d="m956.7167-466.42809-.76467-6.99454c-1.48407.29626-2.79797.44441-3.94171.44444-2.33283-.00003-4.24061-.86884-5.72333-2.60645-1.31456-1.56947-1.97184-4.5162-1.97184-8.84023v-13.48253h-7.7592v22.51294c0 3.60335-.21218 6.52873-.63657 8.77617h7.56901c.42308-1.48407.69867-3.07421.82676-4.7704h.0641c2.0339 3.64602 5.02268 5.46906 8.96635 5.46909 1.44134-.00003 2.56503-.16953 3.37113-.50849z"/><path d="m993.17992-497.9074h-7.75727c-.42441 2.24741-.6366 5.15145-.63657 8.71213v6.61414c-.00003 4.02774-.59326 6.63548-1.77969 7.82326-1.27318 1.22912-2.96941 1.8437-5.0887 1.84372-2.45834-.00002-4.51426-.84814-6.16778-2.54435-.80607-.89019-1.33623-2.01357-1.59046-3.37015-.25425-1.35661-.38138-3.17996-.38136-5.47006v-13.60869h-7.7592v22.51294c-.00002 3.60335-.21221 6.52873-.63658 8.77617h7.56901c.42307-1.52676.69866-3.07421.82677-4.64232h.0641c.76206 1.52543 2.07597 2.80762 3.94171 3.84662 1.86571 1.03892 3.96434 1.5584 6.29586 1.55843 3.85823-.00003 6.86837-1.12374 9.03041-3.37112 1.23043-1.22918 2.11057-2.74459 2.64043-4.54626.52979-1.8017.7947-4.29268.79475-7.47293v-7.9494c-.00005-3.56068.2115-6.46472.63463-8.71213z"/><path d="m1015.9296-489.19527v32.43418h8.1396v-32.43418c0-3.56068.2122-6.46472.6366-8.71213h-8.0775c-.4658 2.45959-.6987 5.36363-.6987 8.71213z"/><path d="m1054.0969-466.42809-.7647-6.99454c-1.4841.29626-2.798.44441-3.9417.44444-2.3328-.00003-4.2406-.86884-5.7233-2.60645-1.3146-1.56947-1.9719-4.5162-1.9719-8.84023v-13.48253h-7.7592v22.51294c0 3.60335-.2122 6.52873-.6366 8.77617h7.5691c.423-1.48407.6986-3.07421.8267-4.7704h.064c2.0339 3.64602 5.0227 5.46906 8.9663 5.46909 1.4414-.00003 2.5651-.16953 3.3712-.50849z"/><path d="m1088.0798-484.93334h-22.9574c.2549-2.16203 1.1347-3.911 2.6394-5.24688 1.5048-1.33591 3.5717-2.00385 6.2008-2.00385 4.0277 0 7.589 1.06031 10.6839 3.18092l2.4163-5.15274c-3.7729-3.0095-8.4999-4.51424-14.1812-4.51424-4.6643 0-8.4802 1.50508-11.4477 4.51521-2.9674 3.01012-4.4511 6.9528-4.4511 11.82803 0 4.83381 1.4734 8.78747 4.4201 11.86103 2.9467 3.07351 6.7303 4.61027 11.3506 4.6103 4.7911-.00003 8.5859-1.50509 11.3846-4.51519 2.7985-3.01017 4.1978-6.93215 4.1979-11.76595-.0001-.67798-.085-1.61019-.2562-2.79664zm-22.9574 5.53119h15.2642c-.0001 2.1633-.6787 3.9019-2.0359 5.21583-1.3573 1.31387-3.223 1.97083-5.5972 1.97086-2.162-.00003-3.9107-.67832-5.2459-2.0349-1.3353-1.35663-2.1303-3.07388-2.3852-5.15179z"/><path d="m1095.544-489.19527v32.43418h7.7592v-32.43418c0-3.85827.2115-6.7623.6346-8.71213h-7.7572c-.4244 2.24741-.6366 5.15145-.6366 8.71213z"/><path d="m1142.2603-497.9074h-7.6952c-.1695.80607-.339 2.14131-.5084 4.00575-1.2305-1.52544-2.7149-2.70156-4.4531-3.52833-1.7383-.82677-3.455-1.24015-5.1499-1.24015-3.7315 0-6.8477 1.16576-9.3487 3.49727-3.3071 2.96809-4.9606 7.25007-4.9606 12.84597 0 6.06296 1.9505 10.57847 5.8514 13.54659 2.5437 1.9498 5.3837 2.92471 8.52 2.92474 4.0705-.00003 7.1867-1.56881 9.3487-4.70636v3.94363h7.7592v-22.51294c0-3.60337.2122-6.52876.6366-8.77617zm-21.8783 8.71213c1.4426-1.56816 3.4144-2.35223 5.9154-2.35223s4.4722.78407 5.9136 2.35223c1.4413 1.65352 2.162 3.94298 2.162 6.86838 0 3.01077-.7207 5.34293-2.162 6.99649-1.4414 1.56811-3.4126 2.35218-5.9136 2.35221-2.501-.00003-4.4725-.78442-5.9144-2.35318-1.4421-1.56882-2.163-3.90065-2.163-6.99552 0-3.0095.7206-5.29896 2.162-6.86838z"/><path d="m1182.1024-497.9074h-7.7573c-.4244 2.24741-.6366 5.15145-.6365 8.71213v6.61414c-.0001 4.02774-.5933 6.63548-1.7797 7.82326-1.2732 1.22912-2.9694 1.8437-5.0887 1.84372-2.4583-.00002-4.5143-.84814-6.1678-2.54435-.8061-.89019-1.3362-2.01357-1.5905-3.37015-.2542-1.35661-.3813-3.17996-.3813-5.47006v-13.60869h-7.7592v22.51294c0 3.60335-.2122 6.52873-.6366 8.77617h7.569c.4231-1.52676.6987-3.07421.8268-4.64232h.064c.7621 1.52543 2.076 2.80762 3.9417 3.84662 1.8658 1.03892 3.9644 1.5584 6.2959 1.55843 3.8582-.00003 6.8684-1.12374 9.0304-3.37112 1.2304-1.22918 2.1106-2.74459 2.6404-4.54626.5298-1.8017.7948-4.29268.7948-7.47293v-7.9494c0-3.56068.2115-6.46472.6346-8.71213z"/><path d="m1219.767-497.9074h-7.7592c-.255 1.48404-.4031 2.81929-.4445 4.00575-1.2305-1.52544-2.7148-2.70156-4.4531-3.52833s-3.4549-1.24015-5.1498-1.24015c-3.7315 0-6.8691 1.14441-9.4128 3.43323-3.2643 3.01078-4.8965 7.33546-4.8965 12.97406 0 6.10564 1.9505 10.62117 5.8514 13.54658 2.501 1.90711 5.341 2.86067 8.52 2.8607 1.9511-.00003 3.7427-.41341 5.375-1.24015 1.6321-.8268 2.9567-1.96085 3.9737-3.40217v13.73679h7.7592v-32.43418c0-3.56068.2122-6.46472.6366-8.71213zm-15.9629 6.3599c2.501 0 4.4722.76271 5.9136 2.28817 1.4413 1.65353 2.1619 3.96434 2.162 6.93244-.0001 3.05217-.7207 5.40503-2.162 7.05859-1.4841 1.56942-3.4553 2.35413-5.9136 2.35415-2.501-.00002-4.4722-.78473-5.9135-2.35415-1.4427-1.65356-2.164-3.98539-2.164-6.99551 0-3.01015.7213-5.34199 2.164-6.99552 1.3986-1.52546 3.3698-2.28817 5.9135-2.28817z"/><path d="m787.59951-284.23223c-1.32713.0168-2.67514.005-4.02442-.0359-17.11472-.5209-32.20146-5.79714-44.59201-15.59463-6.78942-5.36825-13.86852-14.17334-17.96616-22.31397-11.04386-21.94304-11.22891-51.69816-.46712-73.69725 3.69133-7.54602 7.40279-12.74603 13.22309-18.57695 11.78112-11.80328 26.43214-18.37884 45.31066-20.30182 2.89905-.29528 16.07796.0805 19.0082.53893 16.21516 2.54124 29.24194 8.71413 39.63335 18.75678 12.08673 11.68128 19.04143 26.06261 21.55939 44.59201.64653 4.75979.72125 16.75891.14373 21.48753-2.27568 18.63348-9.5167 33.93035-21.52346 45.52625-13.05491 12.60813-30.39841 19.36644-50.30525 19.61905zm-.61085-27.05703c3.68158-.033 7.351-.39462 10.6719-1.07797 17.28153-3.55565 28.30865-15.57315 31.51264-34.3513 1.27647-7.47782 1.27614-18.12726 0-25.69161-3.484-20.652-16.55922-33.10586-36.90249-35.21374-3.21644-.33322-9.01493-.3093-12.28885.0356-10.43744 1.10131-18.69202 4.79998-25.15263 11.28275-6.36231 6.38411-10.0607 14.36488-11.82173 25.58381-.74342 4.73763-.73821 17.25678 0 22.17024.63274 4.21811 1.89469 9.17193 3.09018 12.18106 4.43961 11.17607 12.51828 18.93837 23.64346 22.6733 4.89343 1.64296 11.11154 2.46242 17.24752 2.40746z"/><path d="m1098.5578-284.34002c-8.0399.0226-10.2243-.16067-16.1336-1.3295-25.0148-4.94772-44.2992-22.08559-52.3893-46.49642-3.7401-11.28613-5.1974-23.17836-4.24-34.92622 2.0971-25.73335 13.6218-45.71068 33.1296-57.49177 9.199-5.55508 18.6209-8.54166 32.2313-10.16879.5593-.0667 4.8174-.0816 9.4502-.0356 6.6319.0655 9.4141.21893 13.1871.71865 16.9566 2.24356 31.6834 7.34802 43.55 15.0557 3.158 2.05107 6.4319 4.47309 6.4319 4.77894 0 .1312-2.4471 4.73996-5.4258 10.24077l-5.4258 9.98919-1.581-1.04198c-21.8475-13.97555-53.9798-17.74264-73.2301-8.62376-11.9988 5.68386-18.9776 15.53415-21.6312 30.54242l-.1797.93424h56.0544 56.0545l.1437.64678c.8642 3.70205 1.2492 13.87141.7546 19.83464-.7027 8.46045-1.8467 14.25018-4.2401 21.52346-7.456 22.65984-24.0248 38.0323-47.0713 43.6937-6.8119 1.67347-10.7789 2.13172-19.4394 2.15594zm-2.3715-26.73365c4.2548.0792 9.0895-.16853 11.9655-.68271 8.3898-1.49972 14.7238-4.48552 20.0861-9.4502 6.3855-5.91166 10.4674-14.89627 11.0312-24.32619l.1797-3.12611h-41.6096-41.6097l.1797 1.72475c.6642 6.35399 3.2413 13.48828 6.899 19.04413 2.1172 3.21577 7.0113 8.06261 10.3485 10.24072 4.5757 2.98524 9.9591 5.01414 16.0258 6.07256 1.58.27581 3.9509.45549 6.5038.50305z"/><path d="m902.36432-395.46637c0 21.9413.11531 37.12435.2996 39.42706 1.1785 14.70644 4.92732 24.19036 12.62455 31.93642 8.18184 8.23374 19.18587 12.14277 32.81972 11.65925 10.92754-.38765 18.54694-3.39297 24.54652-9.68085 4.70993-4.93665 7.51001-10.7057 9.14437-18.84045 1.19375-5.94419 1.3121-8.6702 1.46893-33.98335.20492-32.97928.75346-43.68567 2.79383-54.52982l.31481-1.67035h14.14255 14.1423l-.5295 3.26768c-.5503 3.39193-1.154 8.87405-1.7181 15.61119-.1965 2.34874-.4192 16.72881-.5549 35.86934-.2232 31.58131-.3006 34.00239-1.3207 41.24209-1.5198 10.79223-5.1451 20.62156-10.2225 27.71935-4.17351 5.83447-11.08858 12.12754-17.04694 15.51567-14.9418 8.49609-35.17605 10.11315-52.44169 4.19042-6.25985-2.14696-11.98739-5.30872-17.01852-9.39427-3.15588-2.56264-7.84088-7.36603-9.83073-10.07923-.7891-1.07677-1.51216-1.95763-1.60667-1.95763-.094 0-.32766 1.47065-.51882 3.26768-.54407 5.1187-1.7174 11.49207-2.99458 16.26431l-.29216 1.08922h-13.88793-13.88787l.36618-2.10576c1.23842-7.12998 2.06701-16.85721 2.45398-28.82242.15521-4.79405.28405-31.88278.28675-60.19711l.003-51.48053h14.2316 14.23156v35.68209z"/></g><g fill="#c80201"><path d="m420.56701-288.29437v-35.98339-35.98272h38.29776 38.29775v35.98272 35.98339h-38.29775zm19.99059-10.1005h10.10051c9.12634 0 10.3918-.11448 12.4152-.63297 6.54607-1.67399 10.79408-6.22663 11.15265-11.99401.30503-4.89875-1.40148-8.29117-5.26068-10.73213l-1.26257-.84171 1.47299-.41749c3.7415-1.31778 6.81044-4.1136 8.41709-7.36529 1.0722-2.16959 1.26257-2.16083 1.26257-5.47111 0-3.30488-.20134-3.53517-1.26257-5.68119-2.39059-4.83747-6.55785-7.40772-13.25691-8.41709-2.02475-.30302-5.57663-.41749-13.25692-.42422h-10.52136v25.88288 26.09298zm9.2588-8.207v-6.52291-6.73367h3.36683c1.79702.003 3.98903.19527 5.05026.41749 4.67323.99052 6.61462 3.18839 6.31281 7.36529-.16699 2.29887-.91012 3.67389-2.94598 4.62872-1.52046.71242-2.0407.75148-6.73367.84171h-5.05025zm0-21.46291v-7.1552-6.94376h5.05025c2.75576.003 5.84348.0673 6.9441.20875 4.84454.7003 7.57538 3.14866 7.57538 6.94443 0 2.40123-.94372 3.84291-2.94598 5.05025-2.41207 1.45448-4.58509 1.89419-10.94222 1.89419h-5.68153z"/><path d="m508.73602-288.29437v-35.98339-35.98272h38.50819 38.50818v35.98272 35.98339h-38.50818zm20.41144-10.1005h9.89008c11.21621-.006 12.66389-.14814 16.2029-1.89351 5.34088-2.63893 8.22713-7.91005 7.36495-13.46735-.18046-1.16425-.53936-2.68471-.8417-3.36683-.66664-1.50767-2.81407-3.87927-4.20855-4.63007-1.05597-.56563-1.33428-1.0518-.63094-1.0518.97261 0 5.03254-2.35544 6.52324-3.78769 3.28361-3.1554 4.7032-8.1868 3.57726-12.41487-1.40208-5.26775-5.46282-8.88374-11.78392-10.52204-2.20548-.57236-3.40434-.72522-14.30905-.84171h-11.78393v25.88289 26.09298zm9.2588-8.207v-6.73367-6.73368l4.20855.20875c2.45913.0943 4.63451.37035 5.47111.63296 3.41094 1.07335 5.0852 3.11567 5.05025 6.52358-.0202 2.13929-.54274 3.28267-1.89385 4.41864-1.50942 1.27064-3.47491 1.68342-8.41709 1.68342zm0-21.46291v-7.1552-7.15385l6.31282.20874c5.34889.11448 6.27295.0741 7.99623.63297 4.91484 1.59184 6.69678 6.968 3.57727 10.52069-2.04657 2.33052-4.78367 2.93925-12.41521 2.94665z"/><path d="m597.32589-288.29437v-35.98339-35.98272h38.50818 38.29776v35.98272 35.98339h-38.29776zm39.98117-9.46889c5.58148.30975 11.08046-.53196 17.88632-2.94665l3.15641-1.26189v-4.84016c0-2.61873.0606-4.6294 0-4.6294s-1.76046.60603-3.57727 1.47265c-6.45853 3.07325-10.70829 4.21797-16.62375 3.99846-3.09668-.11448-4.18316-.26262-6.52324-1.0518-3.53767-1.1959-5.81359-2.63624-8.20666-5.05026-3.24415-3.27256-4.84778-7.54575-4.83983-12.41554.0135-5.17146 1.60605-9.02649 5.05025-12.41554 3.86473-3.80116 8.8906-5.65158 15.36119-5.6812 5.73446 0 10.5522 1.24977 16.62375 4.41931l3.36684 1.68341v-4.84016-4.84016l-1.89385-1.0518c-5.44754-2.51032-10.11815-3.42273-16.83418-3.57693-2.71596-.0673-5.72853-.14141-6.73367 0-10.46998 1.47468-18.93932 7.64474-22.72614 16.62342-2.27154 5.38693-2.48715 11.691-.63094 17.46512 2.96274 9.21907 11.27634 16.26451 21.46357 18.30751 1.92294.38382 3.82103.53196 5.68154.63296z"/></g></g></svg>