<?xml version="1.0" encoding="UTF-8" standalone="no"?>
<!-- Created with Inkscape (http://www.inkscape.org/) -->

<svg
   xmlns:dc="http://purl.org/dc/elements/1.1/"
   xmlns:cc="http://creativecommons.org/ns#"
   xmlns:rdf="http://www.w3.org/1999/02/22-rdf-syntax-ns#"
   xmlns:svg="http://www.w3.org/2000/svg"
   xmlns="http://www.w3.org/2000/svg"
   xmlns:sodipodi="http://sodipodi.sourceforge.net/DTD/sodipodi-0.dtd"
   xmlns:inkscape="http://www.inkscape.org/namespaces/inkscape"
   version="1.0"
   width="163.24638"
   height="83.66832"
   id="svg2"
   inkscape:version="0.91 r13725"
   sodipodi:docname="BBC Two HD - Dark.svg">
  <sodipodi:namedview
     pagecolor="#ffffff"
     bordercolor="#666666"
     borderopacity="1"
     objecttolerance="10"
     gridtolerance="10"
     guidetolerance="10"
     inkscape:pageopacity="0"
     inkscape:pageshadow="2"
     inkscape:window-width="1920"
     inkscape:window-height="1017"
     id="namedview38"
     showgrid="false"
     fit-margin-top="0"
     fit-margin-left="0"
     fit-margin-right="0"
     fit-margin-bottom="0"
     inkscape:zoom="4.0729351"
     inkscape:cx="42.01409"
     inkscape:cy="74.947902"
     inkscape:window-x="-8"
     inkscape:window-y="-8"
     inkscape:window-maximized="1"
     inkscape:current-layer="svg2" />
  <metadata
     id="metadata31">
    <rdf:RDF>
      <cc:Work
         rdf:about="">
        <dc:format>image/svg+xml</dc:format>
        <dc:type
           rdf:resource="http://purl.org/dc/dcmitype/StillImage" />
        <dc:title></dc:title>
      </cc:Work>
    </rdf:RDF>
  </metadata>
  <defs
     id="defs29">
    <style
       type="text/css"
       id="style6" />
  </defs>
  <g
     transform="matrix(1,0,0,-1,209.7284,-392.65561)"
     id="g27219" />
  <path
     inkscape:connector-curvature="0"
     style="fill:#005e70;fill-opacity:1;fill-rule:nonzero;stroke:none"
     id="path27227"
     d="m 90.274853,0 25.359677,0 0,23.863718 -25.359677,0 0,-23.863718 z M 106.2508,3.321165 c -0.11452,-0.01432 -0.22904,-0.03579 -0.34357,-0.0501 l -0.13599,-0.02147 c -0.19326,-0.02863 -0.39367,-0.0501 -0.58693,-0.07158 -0.136,-0.0072 -0.27199,-0.02147 -0.40799,-0.02863 -0.2362,-0.01432 -0.47956,-0.02147 -0.70145,-0.02147 -0.10737,0 -0.17179,0 -0.27199,0.0072 -0.1861,0 -0.3722,0.0072 -0.5583,0.02147 -0.10737,0.0072 -0.20758,0.01432 -0.31494,0.02147 -0.15031,0.01432 -0.30063,0.02863 -0.44378,0.0501 l -0.12168,0.01431 -0.136,0.02147 -0.17178,0.02863 c -0.0716,0.01431 -0.14315,0.02147 -0.21473,0.03579 -0.10021,0.02147 -0.20042,0.04295 -0.30062,0.06442 -0.59409,0.121681 -1.15239,0.293465 -1.667737,0.493881 -0.26484,0.100207 -0.52251,0.21473 -0.76588,0.329253 -0.20041,0.100208 -0.38651,0.200415 -0.57977,0.314938 -0.17894,0.100208 -0.35072,0.207573 -0.52251,0.314938 -0.093,0.06442 -0.1861,0.128838 -0.27915,0.200415 -0.0787,0.05726 -0.15747,0.114523 -0.2362,0.171785 -0.15747,0.12168 -0.31494,0.250519 -0.45809,0.379357 -0.136,0.114523 -0.272,0.243361 -0.38652,0.365042 -0.10736,0.100207 -0.21473,0.207573 -0.31494,0.322096 -0.1002,0.114523 -0.20757,0.229045 -0.30062,0.350726 -0.10736,0.128838 -0.20757,0.264834 -0.30778,0.40083 -0.0787,0.100208 -0.14315,0.207573 -0.21473,0.307781 -0.0501,0.07158 -0.093,0.143153 -0.136,0.221888 -0.26483,0.429461 -0.50103,0.89471 -0.68713,1.388591 -0.23621,0.61556 -0.40799,1.274067 -0.5082,1.982678 -0.0286,0.221888 -0.0501,0.443776 -0.0644,0.67998 -0.007,0.171784 -0.0143,0.350727 -0.0143,0.536826 0,0.128839 0,0.264835 0.007,0.400831 0.007,0.135996 0.0215,0.271992 0.0358,0.407988 l 0.007,0.100207 c 0.0286,0.157469 0.0501,0.314938 0.0787,0.472407 0.0143,0.06442 0.0215,0.121681 0.0358,0.1861 0.0286,0.128838 0.0644,0.257677 0.0931,0.386515 0.0501,0.164627 0.0931,0.322096 0.14316,0.479565 0.0716,0.193257 0.13599,0.386515 0.21473,0.565457 0.12168,0.293465 0.25767,0.572615 0.40083,0.837449 0.0859,0.157469 0.17178,0.30778 0.26483,0.450934 0.0716,0.121681 0.14315,0.229046 0.22189,0.336411 0.10021,0.143154 0.20041,0.286307 0.30062,0.415146 0.10737,0.135996 0.22189,0.271992 0.32926,0.393672 0.13599,0.157469 0.26483,0.293465 0.40083,0.422304 l 0.0716,0.07158 c 0.10737,0.107366 0.22905,0.221889 0.36504,0.336412 0.093,0.07873 0.1861,0.164626 0.28631,0.243361 0.10021,0.07158 0.20042,0.157469 0.30778,0.229046 0.12884,0.09305 0.26484,0.1861 0.40799,0.279149 0.15031,0.100208 0.30778,0.193258 0.47957,0.286308 0.33641,0.193257 0.70145,0.372199 1.10944,0.536826 0.15031,0.05726 0.30778,0.114523 0.472397,0.171784 0.16463,0.05726 0.32926,0.107366 0.50104,0.15747 0.28631,0.08589 0.59409,0.157469 0.91618,0.221888 0.26484,0.0501 0.52967,0.08589 0.80882,0.12168 0.27915,0.03579 0.56546,0.06442 0.86608,0.07874 0.14316,0.0072 0.28631,0.0072 0.43662,0.01432 0.0716,0 0.14316,0 0.20757,0 0.53683,0 1.02355,-0.02147 1.4888,-0.05726 l 0.0859,-0.0072 c 0.17895,-0.02147 0.35789,-0.03579 0.52967,-0.05726 0.25768,-0.03579 0.5082,-0.07158 0.7444,-0.114523 0.15031,-0.02863 0.29347,-0.05726 0.43662,-0.08589 0.22189,-0.04295 0.4223,-0.100207 0.62272,-0.150311 0.15031,-0.03579 0.28631,-0.07873 0.4223,-0.121681 0.16463,-0.0501 0.3221,-0.100207 0.47241,-0.150311 l 0.14315,-0.0501 c 0.0716,-0.02863 0.17179,-0.06442 0.28631,-0.107365 0.15031,-0.05726 0.33641,-0.128838 0.54399,-0.221888 0.12883,-0.0501 0.26483,-0.114523 0.40083,-0.178942 0.12168,-0.05726 0.25767,-0.114523 0.38651,-0.178942 0.0501,-0.02863 0.10737,-0.05726 0.16463,-0.08589 l 0,-3.249588 c -0.0358,0.02147 -0.0787,0.04295 -0.11453,0.07158 l -0.22188,0.128838 c -0.22905,0.135996 -0.43662,0.264834 -0.65135,0.386515 -0.24336,0.121681 -0.47241,0.243361 -0.70146,0.350727 -0.40083,0.186099 -0.78734,0.350726 -1.15954,0.479564 -0.70861,0.257677 -1.35996,0.422304 -1.93258,0.522511 -0.0716,0.0072 -0.13599,0.02147 -0.20041,0.02863 -0.16463,0.02863 -0.31494,0.04295 -0.45809,0.06442 -0.22905,0.02147 -0.43662,0.03579 -0.62988,0.04295 -0.12168,0.0072 -0.24336,0.0072 -0.34357,0.0072 -0.2362,0 -0.4724,0 -0.70861,-0.02147 -0.28631,-0.02147 -0.57261,-0.0501 -0.86608,-0.100208 -0.47241,-0.07873 -0.94481,-0.200415 -1.4029,-0.365041 -0.0716,-0.02863 -0.14316,-0.05726 -0.20758,-0.07873 -0.0429,-0.02147 -0.0859,-0.03579 -0.13599,-0.05726 -0.0716,-0.02863 -0.15031,-0.06442 -0.22189,-0.100208 -0.15747,-0.07158 -0.31494,-0.157469 -0.47241,-0.243361 -0.0716,-0.04295 -0.15031,-0.08589 -0.229037,-0.135996 -0.0787,-0.0501 -0.15747,-0.100208 -0.22905,-0.150312 -0.093,-0.06442 -0.1861,-0.135996 -0.27915,-0.207572 -0.0859,-0.07158 -0.17894,-0.143154 -0.25768,-0.207573 l -0.10736,-0.100208 -0.0501,-0.0501 -0.0358,-0.02863 -0.0358,-0.03579 c -0.15031,-0.150311 -0.27915,-0.293465 -0.40799,-0.443776 -0.0644,-0.07874 -0.12884,-0.164627 -0.19326,-0.243361 -0.0573,-0.08589 -0.11452,-0.164627 -0.16462,-0.243362 -0.0501,-0.07873 -0.10021,-0.157469 -0.14316,-0.229046 -0.0644,-0.114523 -0.12884,-0.236203 -0.1861,-0.343568 -0.0501,-0.100208 -0.093,-0.193258 -0.12884,-0.293465 -0.0716,-0.164627 -0.13599,-0.329254 -0.17894,-0.486723 -0.0429,-0.121681 -0.0787,-0.243361 -0.10021,-0.357884 -0.093,-0.343569 -0.13599,-0.651349 -0.15746,-0.916184 -0.0143,-0.100207 -0.0143,-0.193257 -0.0215,-0.279149 -0.007,-0.135996 -0.007,-0.243362 -0.007,-0.336411 0,-0.05726 0,-0.128839 0,-0.207573 0.007,-0.1861 0.0215,-0.422304 0.0644,-0.694296 0.0215,-0.157469 0.0573,-0.329253 0.10021,-0.515353 0.0286,-0.12168 0.0644,-0.243361 0.10021,-0.372199 0.0358,-0.114523 0.0787,-0.236204 0.12168,-0.350727 0.0286,-0.08589 0.0644,-0.164627 0.10736,-0.243361 0.0429,-0.114523 0.093,-0.221888 0.15032,-0.329254 0.0429,-0.08589 0.0931,-0.171784 0.14315,-0.257676 0.10736,-0.178942 0.22905,-0.365042 0.36504,-0.551142 0.0501,-0.06442 0.10021,-0.128838 0.15031,-0.193257 0.0716,-0.08589 0.14316,-0.164627 0.22189,-0.250519 0.0358,-0.04295 0.0716,-0.08589 0.11452,-0.121681 0.60125,-0.601245 1.266907,-1.045022 1.961207,-1.367118 0.10736,-0.04295 0.22189,-0.08589 0.32925,-0.135996 0.11453,-0.04295 0.22189,-0.07873 0.32926,-0.114522 0.12168,-0.04295 0.25052,-0.07874 0.36504,-0.114523 0.11452,-0.02863 0.22904,-0.05726 0.34357,-0.08589 0.11452,-0.02863 0.22904,-0.0501 0.34357,-0.07158 0.12883,-0.02147 0.25051,-0.04295 0.3722,-0.05726 0.12883,-0.01432 0.25767,-0.02863 0.37935,-0.04295 0.23621,-0.02147 0.47241,-0.02863 0.6943,-0.02863 0.0787,0 0.15031,0 0.22904,0 0.17179,0.0072 0.32926,0.0072 0.49388,0.02147 0.11453,0.0072 0.22189,0.01432 0.32926,0.02147 0.20041,0.02147 0.40083,0.0501 0.58693,0.07874 0.17178,0.02147 0.32925,0.0501 0.48672,0.07873 0.22905,0.0501 0.44378,0.100208 0.62988,0.150312 0.12883,0.03579 0.24336,0.07158 0.35072,0.100207 0.15747,0.04295 0.29347,0.08589 0.39368,0.121681 0.17894,0.06442 0.27914,0.100208 0.27914,0.100208 0.15747,0.05726 0.31494,0.12168 0.47241,0.178942 0.20757,0.08589 0.40083,0.178942 0.59409,0.257676 0.15747,0.07873 0.30778,0.150312 0.45093,0.214731 0.11453,0.05726 0.22189,0.114523 0.3221,0.164626 0.17894,0.100208 0.32925,0.178943 0.45093,0.243362 l 0.33641,0.1861 0,-3.199485 c 0,0 -0.20041,-0.07874 -0.54398,-0.207573 -0.15747,-0.06442 -0.33641,-0.128838 -0.53683,-0.200415 -0.11452,-0.04295 -0.2362,-0.08589 -0.36504,-0.128838 -0.1002,-0.02863 -0.20041,-0.07158 -0.31494,-0.107366 -0.11452,-0.03579 -0.24336,-0.07873 -0.37219,-0.114523 -0.0931,-0.02863 -0.19326,-0.06442 -0.28631,-0.08589 l -0.0931,-0.02863 c -0.0931,-0.02147 -0.1861,-0.0501 -0.28631,-0.07873 -0.11452,-0.02863 -0.2362,-0.06442 -0.35073,-0.09305 -0.0787,-0.01432 -0.15746,-0.03579 -0.22904,-0.0501 -0.136,-0.02863 -0.25768,-0.05726 -0.38652,-0.08589 -0.13599,-0.02863 -0.27199,-0.0501 -0.40083,-0.07873" />
  <g
     id="g27229"
     transform="matrix(7.1576838,0,0,-7.1576838,70.782335,13.164412)"
     style="fill:#005e70;fill-opacity:1">
    <path
       inkscape:connector-curvature="0"
       style="fill:#005e70;fill-opacity:1;fill-rule:nonzero;stroke:none"
       id="path27231"
       d="m 0,0 0,-0.655 0.425,0 c 0,0 0.009,0 0.023,0.001 0.014,0 0.034,0.001 0.059,0.003 0.046,0.004 0.107,0.013 0.166,0.033 0.053,0.018 0.105,0.045 0.145,0.085 0.015,0.015 0.028,0.031 0.038,0.047 0.033,0.052 0.042,0.106 0.044,0.136 0.001,0.013 0.001,0.021 0.001,0.021 0,0 0,0.006 0,0.016 C 0.9,-0.3 0.899,-0.276 0.892,-0.25 0.884,-0.219 0.869,-0.183 0.842,-0.149 0.837,-0.143 0.832,-0.137 0.826,-0.131 0.814,-0.119 0.801,-0.108 0.787,-0.098 0.764,-0.081 0.738,-0.066 0.709,-0.054 0.671,-0.037 0.628,-0.025 0.581,-0.016 0.557,-0.011 0.531,-0.008 0.505,-0.005 0.489,-0.004 0.473,-0.003 0.456,-0.002 0.442,-0.001 0.426,0 0.412,0 L 0,0 Z" />
  </g>
  <g
     id="g27233"
     transform="matrix(7.1576838,0,0,-7.1576838,70.782335,6.033928)"
     style="fill:#005e70;fill-opacity:1">
    <path
       inkscape:connector-curvature="0"
       style="fill:#005e70;fill-opacity:1;fill-rule:nonzero;stroke:none"
       id="path27235"
       d="m 0,0 0,-0.621 0.206,0 c 0,0 0.014,0 0.032,0.001 0.014,0 0.031,0.001 0.046,0.002 0.043,0.003 0.101,0.009 0.16,0.025 0.011,0.003 0.023,0.007 0.034,0.011 0.046,0.016 0.09,0.04 0.124,0.074 0.028,0.027 0.046,0.056 0.058,0.085 0.014,0.036 0.019,0.07 0.021,0.094 0.002,0.022 0.002,0.035 0.002,0.035 0,0 0.001,0.01 -0.001,0.027 -0.001,0.027 -0.007,0.071 -0.028,0.113 -0.01,0.02 -0.024,0.04 -0.043,0.059 -0.023,0.023 -0.052,0.04 -0.082,0.054 -0.058,0.025 -0.124,0.035 -0.18,0.039 C 0.325,0 0.303,0 0.284,0 L 0,0 Z" />
  </g>
  <g
     id="g27237"
     transform="matrix(7.1576838,0,0,-7.1576838,61.050749,0.002863)"
     style="fill:#005e70;fill-opacity:1">
    <path
       inkscape:connector-curvature="0"
       style="fill:#005e70;fill-opacity:1;fill-rule:nonzero;stroke:none"
       id="path27239"
       d="m 0,0 3.543,0 0,-3.334 L 0,-3.334 0,0 Z m 0.93,-0.467 0,-2.402 0.903,0 c 0,0 0.441,-0.012 0.685,0.231 0.198,0.199 0.183,0.428 0.183,0.428 0,0 0.015,0.239 -0.169,0.423 -0.156,0.156 -0.356,0.197 -0.356,0.197 0,0 0.091,0.043 0.16,0.112 0.032,0.032 0.148,0.137 0.148,0.39 0,0.254 -0.17,0.401 -0.17,0.401 0,0 -0.186,0.22 -0.605,0.22 l -0.779,0 z" />
  </g>
  <g
     id="g27241"
     transform="matrix(7.1576838,0,0,-7.1576838,41.558944,13.164412)"
     style="fill:#005e70;fill-opacity:1">
    <path
       inkscape:connector-curvature="0"
       style="fill:#005e70;fill-opacity:1;fill-rule:nonzero;stroke:none"
       id="path27243"
       d="m 0,0 0,-0.655 0.426,0 c 0,0 0.008,0 0.022,0.001 0.014,0 0.034,0.001 0.059,0.003 0.047,0.004 0.107,0.013 0.166,0.033 0.054,0.018 0.106,0.045 0.145,0.085 0.015,0.015 0.028,0.031 0.039,0.047 0.033,0.052 0.041,0.106 0.043,0.136 0.001,0.013 0.001,0.021 0.001,0.021 0,0 0,0.006 0,0.016 0,0.013 -0.002,0.037 -0.008,0.063 -0.009,0.031 -0.024,0.067 -0.05,0.101 -0.005,0.006 -0.011,0.012 -0.017,0.018 -0.012,0.012 -0.024,0.023 -0.038,0.033 -0.023,0.017 -0.05,0.032 -0.079,0.044 -0.038,0.017 -0.081,0.029 -0.128,0.038 -0.024,0.005 -0.049,0.008 -0.075,0.011 -0.017,0.001 -0.033,0.002 -0.05,0.003 C 0.442,-0.001 0.426,0 0.411,0 L 0,0 Z" />
  </g>
  <g
     id="g27245"
     transform="matrix(7.1576838,0,0,-7.1576838,41.558944,6.033928)"
     style="fill:#005e70;fill-opacity:1">
    <path
       inkscape:connector-curvature="0"
       style="fill:#005e70;fill-opacity:1;fill-rule:nonzero;stroke:none"
       id="path27247"
       d="m 0,0 0,-0.621 0.206,0 c 0,0 0.014,0 0.032,0.001 0.014,0 0.031,0.001 0.046,0.002 0.043,0.003 0.101,0.009 0.16,0.025 0.011,0.003 0.023,0.007 0.034,0.011 0.046,0.016 0.09,0.04 0.125,0.074 0.027,0.027 0.045,0.056 0.057,0.085 0.015,0.036 0.02,0.07 0.021,0.094 0.002,0.022 0.002,0.035 0.002,0.035 0,0 0.001,0.01 0,0.027 -0.002,0.027 -0.007,0.071 -0.029,0.113 -0.01,0.02 -0.024,0.04 -0.043,0.059 C 0.588,-0.072 0.56,-0.055 0.53,-0.041 0.472,-0.016 0.405,-0.006 0.349,-0.002 0.325,0 0.303,0 0.284,0 L 0,0 Z" />
  </g>
  <path
     inkscape:connector-curvature="0"
     style="fill:#005e70;fill-opacity:1;fill-rule:nonzero;stroke:none"
     id="path27249"
     d="m 31.832368,0 25.359673,0 0,23.863718 -25.359673,0 0,-23.863718 z m 6.649488,3.349796 0,17.185599 6.470546,0 c 0,0 3.156538,0.09305 4.895856,-1.653425 1.417221,-1.417221 1.317013,-3.056331 1.317013,-3.056331 0,0 0.100208,-1.717844 -1.209648,-3.0277 -1.116599,-1.116599 -2.548136,-1.417222 -2.548136,-1.417222 0,0 0.644192,-0.300622 1.14523,-0.80166 0.229046,-0.229046 1.052179,-0.973445 1.052179,-2.784339 0,-1.825209 -1.209648,-2.877389 -1.209648,-2.877389 0,0 -1.331329,-1.567533 -4.330399,-1.567533 l -5.582993,0 z" />
  <g
     id="g27251"
     transform="matrix(7.1576838,0,0,-7.1576838,12.905304,47.273639)"
     style="fill-opacity:1;fill:#005e70">
    <path
       inkscape:connector-curvature="0"
       style="fill:#005e70;fill-rule:nonzero;stroke:none;fill-opacity:1"
       id="path27253"
       d="m 0,0 -1.803,0 0,0.947 4.653,0 0,-0.947 -1.803,0 0,-4.935 L 0,-4.935 0,0 Z" />
  </g>
  <g
     id="g27255"
     transform="matrix(7.1576838,0,0,-7.1576838,40.856059,40.493881)"
     style="fill-opacity:1;fill:#005e70">
    <path
       inkscape:connector-curvature="0"
       style="fill:#005e70;fill-rule:nonzero;stroke:none;fill-opacity:1"
       id="path27257"
       d="m 0,0 1.146,0 1.106,-4.237 0.016,0 1.321,4.237 1.03,0 1.296,-4.237 0.017,0 L 7.087,0 8.151,0 6.439,-5.883 l -0.997,0 -1.363,4.479 -0.016,0 -1.363,-4.479 -0.964,0 L 0,0 Z" />
  </g>
  <g
     id="g27259"
     transform="matrix(7.1576838,0,0,-7.1576838,124.82428,76.88999)"
     style="fill-opacity:1;fill:#005e70">
    <path
       inkscape:connector-curvature="0"
       style="fill:#005e70;fill-rule:nonzero;stroke:none;fill-opacity:1"
       id="path27261"
       d="M 0,0 C 1.221,0 2.027,0.93 2.027,2.185 2.027,3.356 1.221,4.287 0,4.287 -1.213,4.287 -2.019,3.356 -2.019,2.185 -2.019,0.93 -1.213,0 0,0 m -0.008,5.235 c 1.836,0.033 3.132,-1.197 3.132,-3.083 0,-1.837 -1.296,-3.066 -3.132,-3.099 -1.812,0 -3.108,1.229 -3.108,3.066 0,1.886 1.296,3.116 3.108,3.116" />
  </g>
  <path
     inkscape:connector-curvature="0"
     style="fill:#005e70;fill-rule:nonzero;stroke:none;fill-opacity:1"
     id="path15603"
     d="m 145.13101,24.320201 2.44678,-2.259157 -0.0153,17.062379 -2.43146,-2.573142 0,-4.839956 -9.59568,0 0,7.432243 -2.44295,-2.569312 0,-12.245397 2.44295,-2.266815 0,7.382466 9.59568,0 0,-5.123309 z" />
  <path
     inkscape:connector-curvature="0"
     style="fill:#ffffff;fill-rule:nonzero;stroke:none"
     id="path15607"
     d="m 147.56247,39.115765 0,0 2.44678,-2.178746 3.10922,0 c 1.22147,0 2.17108,-0.08041 2.84883,-0.237403 0.68158,-0.172309 1.24062,-0.382908 1.69246,-0.635628 0.45566,-0.264206 0.86537,-0.585849 1.24445,-0.95727 1.20616,-1.221476 1.80732,-2.768424 1.80732,-4.637015 0,-1.834129 -0.62031,-3.32747 -1.8571,-4.480023 -0.45566,-0.432686 -0.98025,-0.79262 -1.57758,-1.068313 -0.58585,-0.279523 -1.1449,-0.45949 -1.67714,-0.547559 -0.52458,-0.08807 -1.37464,-0.134017 -2.554,-0.134017 l -3.05177,0 -2.42381,-2.178747 5.73596,0 c 2.32042,0 4.16221,0.352276 5.51005,1.049168 1.35549,0.696893 2.43146,1.719257 3.23174,3.074751 0.79262,1.351665 1.1985,2.825861 1.1985,4.426416 0,1.137237 -0.22591,2.228524 -0.66243,3.273863 -0.44417,1.04151 -1.07214,1.960489 -1.88391,2.753108 -0.82708,0.815594 -1.79583,1.428247 -2.89478,1.841788 -0.64329,0.252719 -1.24062,0.425027 -1.77286,0.513096 -0.53607,0.08424 -1.5661,0.122531 -3.08624,0.122531 l -5.38369,0 5.38369,0 c 1.52014,0 2.55017,-0.03829 3.08624,-0.122531 0.53224,-0.08807 1.12957,-0.260377 1.77286,-0.513096 1.09895,-0.413541 2.0677,-1.026194 2.89478,-1.841788 0.81177,-0.792619 1.43974,-1.711598 1.88391,-2.753108 0.43652,-1.045339 0.66243,-2.136626 0.66243,-3.273863 0,-1.600555 -0.40588,-3.074751 -1.1985,-4.426416 -0.80028,-1.355494 -1.87625,-2.377858 -3.23174,-3.074751 -1.34784,-0.696892 -3.18963,-1.049168 -5.51005,-1.049168 l -5.73596,0 2.42381,2.178747 3.05177,0 c 1.17936,0 2.02942,0.04595 2.554,0.134017 0.53224,0.08807 1.09129,0.268036 1.67714,0.547559 0.59733,0.275693 1.12192,0.635627 1.57758,1.068313 1.23679,1.152553 1.8571,2.645894 1.8571,4.480023 0,1.868591 -0.60116,3.415539 -1.80732,4.637015 -0.37908,0.371421 -0.78879,0.693064 -1.24445,0.95727 -0.45184,0.25272 -1.01088,0.463319 -1.69246,0.635628 -0.67775,0.156992 -1.62736,0.237403 -2.84883,0.237403 l -3.10922,0 -2.44678,2.178746 z" />
  <path
     inkscape:connector-curvature="0"
     style="fill:#005e70;fill-rule:nonzero;stroke:none;fill-opacity:1"
     id="path15611"
     d="m 147.56247,39.115765 2.44678,-2.178746 3.10922,0 c 1.22147,0 2.17108,-0.08041 2.84883,-0.237403 0.68158,-0.172309 1.24062,-0.382908 1.69246,-0.635628 0.45566,-0.264206 0.86537,-0.585849 1.24445,-0.95727 1.20616,-1.221476 1.80732,-2.768424 1.80732,-4.637015 0,-1.834129 -0.62031,-3.32747 -1.8571,-4.480023 -0.45566,-0.432686 -0.98025,-0.79262 -1.57758,-1.068313 -0.58585,-0.279523 -1.1449,-0.45949 -1.67714,-0.547559 -0.52458,-0.08807 -1.37464,-0.134017 -2.554,-0.134017 l -3.05177,0 -2.42381,-2.178747 5.73596,0 c 2.32042,0 4.16221,0.352276 5.51005,1.049168 1.35549,0.696893 2.43146,1.719257 3.23174,3.074751 0.79262,1.351665 1.1985,2.825861 1.1985,4.426416 0,1.137237 -0.22591,2.228524 -0.66243,3.273863 -0.44417,1.04151 -1.07214,1.960489 -1.88391,2.753108 -0.82708,0.815594 -1.79583,1.428247 -2.89478,1.841788 -0.64329,0.252719 -1.24062,0.425027 -1.77286,0.513096 -0.53607,0.08424 -1.5661,0.122531 -3.08624,0.122531 l -5.38369,0 z" />
  <path
     inkscape:connector-curvature="0"
     style="fill:#407c89;fill-opacity:1;fill-rule:nonzero;stroke:none"
     id="path15615"
     d="m 150.00925,24.255107 -2.44295,-2.194063 0,17.054721 2.44295,-2.178746 0,-5.226694 0,-2.266815 0,-5.188403 z" />
  <path
     inkscape:connector-curvature="0"
     style="fill:#407c89;fill-opacity:1;fill-rule:nonzero;stroke:none"
     id="path15619"
     d="m 135.5315,31.710325 -0.008,7.420756 2.44678,-2.201721 -0.008,-5.219035 -2.43147,0 z" />
  <path
     inkscape:connector-curvature="0"
     style="fill:#407c89;fill-opacity:1;fill-rule:nonzero;stroke:none"
     id="path15623"
     d="m 138.02806,29.44351 -0.0459,-5.115651 -2.44679,-2.266815 0,7.382466 2.49273,0 z" />
</svg>
