<?xml version="1.0" encoding="UTF-8" standalone="no"?>
<!-- Created with Inkscape (http://www.inkscape.org/) -->

<svg
   xmlns:dc="http://purl.org/dc/elements/1.1/"
   xmlns:cc="http://creativecommons.org/ns#"
   xmlns:rdf="http://www.w3.org/1999/02/22-rdf-syntax-ns#"
   xmlns:svg="http://www.w3.org/2000/svg"
   xmlns="http://www.w3.org/2000/svg"
   xmlns:sodipodi="http://sodipodi.sourceforge.net/DTD/sodipodi-0.dtd"
   xmlns:inkscape="http://www.inkscape.org/namespaces/inkscape"
   width="882.81976"
   height="576.67017"
   id="svg5480"
   version="1.1"
   inkscape:version="0.91 r13725"
   sodipodi:docname="BBC Two Northern Ireland - Dark.svg"
   hola_ext_inject="disabled">
  <defs
     id="defs5482">
    <clipPath
       clipPathUnits="userSpaceOnUse"
       id="clipPath5114">
      <path
         inkscape:connector-curvature="0"
         d="m 90.708,540.993 47.382,0 0,34.44 -47.382,0 0,-34.44 z"
         id="path5116" />
    </clipPath>
    <clipPath
       clipPathUnits="userSpaceOnUse"
       id="clipPath5114-2">
      <path
         inkscape:connector-curvature="0"
         d="m 90.708,540.993 47.382,0 0,34.44 -47.382,0 0,-34.44 z"
         id="path5116-3" />
    </clipPath>
    <clipPath
       clipPathUnits="userSpaceOnUse"
       id="clipPath5114-6">
      <path
         inkscape:connector-curvature="0"
         d="m 90.708,540.993 47.382,0 0,34.44 -47.382,0 0,-34.44 z"
         id="path5116-4" />
    </clipPath>
  </defs>
  <sodipodi:namedview
     id="base"
     pagecolor="#ffffff"
     bordercolor="#666666"
     borderopacity="1.0"
     inkscape:pageopacity="0.0"
     inkscape:pageshadow="2"
     inkscape:zoom="0.40651735"
     inkscape:cx="-107.18071"
     inkscape:cy="81.441357"
     inkscape:document-units="px"
     inkscape:current-layer="flowRoot5434"
     showgrid="false"
     fit-margin-left="0.5"
     fit-margin-bottom="0.5"
     fit-margin-top="0.5"
     fit-margin-right="0.5"
     inkscape:window-width="1920"
     inkscape:window-height="1017"
     inkscape:window-x="-8"
     inkscape:window-y="-8"
     inkscape:window-maximized="1" />
  <metadata
     id="metadata5485">
    <rdf:RDF>
      <cc:Work
         rdf:about="">
        <dc:format>image/svg+xml</dc:format>
        <dc:type
           rdf:resource="http://purl.org/dc/dcmitype/StillImage" />
        <dc:title></dc:title>
      </cc:Work>
    </rdf:RDF>
  </metadata>
  <g
     inkscape:label="Layer 1"
     inkscape:groupmode="layer"
     id="layer1"
     transform="translate(28.556295,394.48662)">
    <g
       transform="matrix(3.1764246,0,0,3.1764246,-430.37404,-1568.0184)"
       style="font-style:normal;font-weight:normal;font-size:40px;line-height:125%;font-family:Sans;text-align:center;letter-spacing:0px;word-spacing:0px;text-anchor:middle;fill:#ffffff;fill-opacity:1;stroke:none"
       id="flowRoot5434">
      <path
         inkscape:connector-curvature="0"
         d="m 291.09838,369.60795 39.87893,0 0,37.5292 -39.87893,0 0,-37.5292 z m 25.12346,5.22382 c -0.17258,-0.0332 -0.35843,-0.0597 -0.53765,-0.0863 l -0.2124,-0.0332 c -0.31197,-0.0398 -0.62394,-0.0797 -0.92927,-0.1062 -0.21905,-0.0199 -0.43145,-0.0332 -0.63722,-0.0465 -0.37834,-0.0266 -0.75005,-0.0332 -1.10848,-0.0332 -0.16594,0 -0.26551,0 -0.41817,0.007 -0.30534,0 -0.59739,0.0199 -0.88945,0.0398 -0.1593,0.007 -0.32524,0.0199 -0.49118,0.0332 -0.23232,0.0199 -0.47127,0.0465 -0.69695,0.0797 l -0.1925,0.0199 -0.2124,0.0332 -0.26551,0.0465 c -0.11284,0.0133 -0.23231,0.0332 -0.33852,0.0531 -0.1593,0.0332 -0.3186,0.0664 -0.47127,0.0996 -0.94254,0.19913 -1.82535,0.46464 -2.6285,0.78324 -0.41817,0.15931 -0.81643,0.33188 -1.20141,0.51774 -0.31197,0.1593 -0.61731,0.31861 -0.90936,0.48455 -0.28542,0.16594 -0.55756,0.33188 -0.82307,0.50446 -0.15266,0.0996 -0.29869,0.20576 -0.44472,0.31197 -0.11948,0.0863 -0.24559,0.17921 -0.36507,0.2655 -0.25223,0.19913 -0.49782,0.39826 -0.7235,0.59739 -0.21241,0.18585 -0.42481,0.38498 -0.61067,0.57747 -0.17257,0.16594 -0.33851,0.33189 -0.49782,0.5111 -0.1593,0.17922 -0.3186,0.35843 -0.47127,0.54429 -0.16594,0.20576 -0.32524,0.41817 -0.48455,0.63057 -0.11284,0.16594 -0.22568,0.33189 -0.33852,0.49119 -0.073,0.11284 -0.13939,0.22568 -0.2124,0.34516 -0.41817,0.67703 -0.78324,1.40717 -1.08194,2.18378 -0.3717,0.96909 -0.64385,2.0112 -0.79651,3.11969 -0.0398,0.34516 -0.073,0.70359 -0.0996,1.06202 -0.0133,0.27878 -0.0265,0.55756 -0.0265,0.84298 0,0.2124 0.007,0.42481 0.0133,0.63721 0.0199,0.21905 0.0332,0.43145 0.0597,0.64385 l 0.0133,0.15267 c 0.0332,0.25223 0.073,0.50446 0.12612,0.75005 0.0133,0.0929 0.0332,0.19249 0.0531,0.28542 0.0465,0.20577 0.0929,0.41154 0.14603,0.60403 0.073,0.25886 0.14602,0.51773 0.22567,0.76332 0.10621,0.30534 0.21241,0.60403 0.33852,0.88945 0.18586,0.46463 0.39826,0.90272 0.62394,1.32089 0.13939,0.24559 0.27215,0.47791 0.41817,0.71023 0.11284,0.17921 0.23232,0.35179 0.34516,0.52437 0.1593,0.21904 0.31861,0.44472 0.47791,0.64385 0.16594,0.21904 0.34516,0.43145 0.5111,0.62394 0.2124,0.24559 0.42481,0.46463 0.63721,0.6704 l 0.11284,0.11284 c 0.17258,0.16594 0.35843,0.33852 0.57084,0.51773 0.14603,0.12612 0.29869,0.25887 0.458,0.38499 0.15266,0.11948 0.31196,0.24559 0.47791,0.36507 0.20576,0.14603 0.41817,0.29205 0.63721,0.43808 0.24559,0.15267 0.49118,0.30533 0.76333,0.45136 0.52437,0.29869 1.10184,0.57748 1.7457,0.83634 0.23231,0.0996 0.48454,0.18586 0.74341,0.27215 0.25223,0.0929 0.50446,0.17258 0.7766,0.24559 0.458,0.13939 0.94255,0.25223 1.44701,0.35179 0.41153,0.0797 0.83634,0.14603 1.27443,0.19913 0.43144,0.0531 0.88944,0.0929 1.35407,0.11948 0.22568,0.007 0.458,0.0133 0.69696,0.0199 0.1062,0 0.21904,0 0.32524,0 0.83634,0 1.61295,-0.0265 2.32981,-0.0863 l 0.13939,-0.0199 c 0.29206,-0.0199 0.5642,-0.0465 0.83634,-0.0863 0.4049,-0.0465 0.80316,-0.11284 1.16823,-0.17258 0.23895,-0.0465 0.46463,-0.0929 0.69031,-0.13939 0.34516,-0.073 0.66377,-0.15266 0.98237,-0.23231 0.22568,-0.0664 0.45136,-0.12612 0.66377,-0.1925 0.25223,-0.073 0.49782,-0.1593 0.73677,-0.23895 l 0.22568,-0.0797 c 0.11284,-0.0398 0.26551,-0.0929 0.44473,-0.16594 0.24559,-0.0929 0.53764,-0.21241 0.86953,-0.3518 0.19249,-0.0863 0.40489,-0.17921 0.6173,-0.27878 0.19913,-0.0863 0.40489,-0.18585 0.6173,-0.28542 0.0797,-0.0465 0.16594,-0.0863 0.25223,-0.12611 l 0,-5.11762 c -0.0531,0.0332 -0.11948,0.073 -0.17258,0.11284 l -0.35843,0.20577 c -0.3518,0.2124 -0.68368,0.41153 -1.0222,0.59738 -0.37834,0.19913 -0.73678,0.38499 -1.09521,0.55756 -0.63058,0.2987 -1.24124,0.55093 -1.83199,0.7567 -1.10848,0.40489 -2.13732,0.65712 -3.04004,0.81642 -0.1062,0.0199 -0.2124,0.0332 -0.3186,0.0531 -0.25223,0.0398 -0.48455,0.0664 -0.71687,0.0929 -0.35843,0.0398 -0.69031,0.0597 -0.98901,0.073 -0.19249,0.007 -0.37834,0.0133 -0.53764,0.0133 -0.36507,0 -0.73678,-0.007 -1.11513,-0.0398 -0.44472,-0.0332 -0.90272,-0.0797 -1.36071,-0.15931 -0.74342,-0.11947 -1.4802,-0.30533 -2.21034,-0.57747 -0.1062,-0.0332 -0.21904,-0.0797 -0.3186,-0.11948 -0.073,-0.0265 -0.14603,-0.0531 -0.21241,-0.0863 -0.11947,-0.0465 -0.23895,-0.0996 -0.35843,-0.15266 -0.24559,-0.11948 -0.49119,-0.2456 -0.73678,-0.38499 -0.11948,-0.0664 -0.23895,-0.13939 -0.36507,-0.21904 -0.11948,-0.073 -0.23895,-0.15266 -0.35843,-0.23895 -0.15267,-0.0996 -0.29869,-0.20577 -0.43808,-0.31861 -0.13939,-0.11284 -0.28542,-0.23232 -0.4049,-0.33188 l -0.16594,-0.15267 -0.0863,-0.0797 -0.0531,-0.0465 -0.0597,-0.0597 c -0.23232,-0.22568 -0.43808,-0.458 -0.63058,-0.69032 -0.1062,-0.12611 -0.20576,-0.25886 -0.31196,-0.39162 -0.0863,-0.12611 -0.17922,-0.25223 -0.25887,-0.37834 -0.0797,-0.11948 -0.15267,-0.23896 -0.21904,-0.35843 -0.11284,-0.17922 -0.20577,-0.36507 -0.29206,-0.54429 -0.0797,-0.15267 -0.15267,-0.30533 -0.21241,-0.458 -0.1062,-0.25887 -0.20576,-0.51773 -0.28541,-0.76333 -0.0597,-0.19249 -0.11284,-0.38498 -0.15267,-0.5642 -0.13939,-0.53764 -0.20577,-1.02883 -0.25223,-1.44036 -0.007,-0.15931 -0.0199,-0.30533 -0.0266,-0.44472 -0.007,-0.20577 -0.0133,-0.37835 -0.0133,-0.52438 0,-0.0929 0.007,-0.19913 0.007,-0.32524 0.007,-0.29206 0.0332,-0.66377 0.0929,-1.08858 0.0398,-0.25223 0.0929,-0.52437 0.1593,-0.81642 0.0531,-0.1925 0.0996,-0.38499 0.15931,-0.58412 0.0531,-0.18585 0.11947,-0.36507 0.19249,-0.55756 0.0531,-0.12611 0.1062,-0.25223 0.16594,-0.37834 0.073,-0.17922 0.15266,-0.3518 0.23895,-0.51774 0.073,-0.13275 0.14603,-0.2655 0.21905,-0.4049 0.17257,-0.28541 0.36507,-0.57083 0.58411,-0.86289 0.073,-0.0996 0.15266,-0.20576 0.23895,-0.30533 0.1062,-0.13275 0.21904,-0.2655 0.33852,-0.39162 0.0597,-0.0664 0.11948,-0.13939 0.18586,-0.19913 0.94254,-0.94254 1.99129,-1.6395 3.0865,-2.13732 0.17258,-0.0797 0.33852,-0.14603 0.5111,-0.21904 0.17921,-0.0664 0.34515,-0.13275 0.52437,-0.18585 0.18585,-0.0597 0.38498,-0.11948 0.57084,-0.17922 0.17921,-0.0465 0.35843,-0.0929 0.53764,-0.13275 0.17922,-0.0398 0.36507,-0.0797 0.53765,-0.10621 0.20577,-0.0398 0.39826,-0.073 0.59075,-0.0929 0.20577,-0.0265 0.39826,-0.0531 0.59075,-0.0664 0.37835,-0.0332 0.74342,-0.0531 1.10185,-0.0531 0.11948,0 0.23896,0 0.35843,0 0.25887,0.0133 0.51774,0.0199 0.76997,0.0398 0.17922,0.007 0.34516,0.0199 0.51773,0.0332 0.32525,0.0332 0.63058,0.073 0.92927,0.11948 0.26551,0.0398 0.51774,0.0863 0.75669,0.13275 0.36507,0.073 0.70359,0.15267 1.00229,0.23232 0.19913,0.0465 0.37834,0.1062 0.54428,0.15267 0.2456,0.073 0.458,0.13939 0.62394,0.19913 0.27878,0.0929 0.43809,0.15266 0.43809,0.15266 0.25223,0.0863 0.49782,0.19249 0.73677,0.28542 0.33189,0.13275 0.63722,0.27214 0.93591,0.4049 0.25223,0.11284 0.48455,0.23231 0.70359,0.33852 0.18585,0.0863 0.35843,0.17921 0.51774,0.25886 0.27214,0.14603 0.51109,0.27878 0.71022,0.38499 l 0.52438,0.27878 0,-5.02469 c 0,0 -0.31861,-0.12612 -0.8629,-0.33189 -0.23231,-0.0929 -0.52437,-0.19913 -0.84298,-0.31197 -0.17921,-0.0597 -0.36507,-0.13275 -0.5642,-0.19912 -0.1593,-0.0531 -0.3186,-0.11284 -0.49782,-0.16595 -0.18585,-0.0597 -0.38498,-0.12611 -0.59075,-0.19249 -0.14603,-0.0398 -0.29869,-0.0863 -0.45136,-0.12611 l -0.13939,-0.0465 c -0.14603,-0.0398 -0.29869,-0.0797 -0.45136,-0.11947 -0.18585,-0.0531 -0.3717,-0.0996 -0.55756,-0.14603 -0.11948,-0.0266 -0.23895,-0.0597 -0.35843,-0.0863 -0.20577,-0.0465 -0.4049,-0.0863 -0.60403,-0.13275 -0.20576,-0.0465 -0.4248,-0.0797 -0.63057,-0.11948"
         style="fill:#005e70;fill-opacity:1;fill-rule:nonzero;stroke:none"
         id="path5118" />
      <g
         id="g5120"
         transform="matrix(6.6376378,0,0,-6.6376378,260.44577,390.30676)"
         style="fill:#005e70;fill-opacity:1">
        <path
           inkscape:connector-curvature="0"
           d="m 0,0 0,-1.111 0.721,0 c 0,0 0.014,0 0.039,10e-4 0.024,0.001 0.058,0.002 0.099,0.006 0.079,0.007 0.182,0.022 0.282,0.056 0.091,0.03 0.179,0.076 0.246,0.143 0.026,0.026 0.047,0.053 0.065,0.081 0.056,0.089 0.071,0.179 0.074,0.23 10e-4,0.023 10e-4,0.035 10e-4,0.035 0,0 0.001,0.011 0,0.028 0,0.021 -0.003,0.063 -0.014,0.107 C 1.499,-0.371 1.474,-0.31 1.428,-0.253 1.42,-0.243 1.41,-0.232 1.4,-0.222 1.38,-0.202 1.359,-0.183 1.335,-0.166 1.296,-0.137 1.251,-0.112 1.202,-0.091 1.137,-0.062 1.064,-0.042 0.985,-0.027 0.944,-0.019 0.901,-0.013 0.857,-0.008 0.829,-0.007 0.802,-0.004 0.773,-0.003 0.749,-0.001 0.723,0 0.698,0 L 0,0"
           style="fill:#005e70;fill-opacity:1;fill-rule:nonzero;stroke:none"
           id="path5122" />
      </g>
      <g
         id="g5124"
         transform="matrix(6.6376378,0,0,-6.6376378,260.44577,379.09453)"
         style="fill:#005e70;fill-opacity:1">
        <path
           inkscape:connector-curvature="0"
           d="m 0,0 0,-1.053 0.349,0 c 0,0 0.024,0 0.054,10e-4 0.025,0.001 0.053,0.002 0.079,0.004 0.072,0.005 0.171,0.015 0.27,0.043 0.02,0.005 0.039,0.011 0.059,0.018 0.077,0.028 0.152,0.068 0.21,0.126 0.047,0.045 0.077,0.095 0.097,0.145 0.025,0.06 0.034,0.118 0.037,0.158 0.003,0.037 0.003,0.06 0.003,0.06 0,0 0.001,0.017 -10e-4,0.045 -0.002,0.046 -0.012,0.12 -0.048,0.192 -0.017,0.034 -0.041,0.068 -0.073,0.1 C 0.996,-0.122 0.948,-0.093 0.897,-0.07 0.799,-0.026 0.686,-0.009 0.592,-0.003 0.551,0 0.513,0 0.481,0 L 0,0"
           style="fill:#005e70;fill-opacity:1;fill-rule:nonzero;stroke:none"
           id="path5126" />
      </g>
      <path
         inkscape:connector-curvature="0"
         d="m 245.13938,369.60795 39.88556,0 0,37.5292 -39.88556,0 0,-37.5292 z m 10.46755,5.26365 0,27.02846 10.16886,0 c 0,0 4.96495,0.13939 7.69966,-2.60196 2.23025,-2.23024 2.07094,-4.81228 2.07094,-4.81228 0,0 0.15931,-2.69489 -1.905,-4.75919 -1.75897,-1.75234 -4.00249,-2.22361 -4.00249,-2.22361 0,0 1.01555,-0.47791 1.79216,-1.25451 0.36507,-0.36507 1.66605,-1.53994 1.66605,-4.38748 0,-2.86746 -1.91164,-4.52023 -1.91164,-4.52023 0,0 -2.09086,-2.4692 -6.81022,-2.4692 l -8.76832,0"
         style="fill:#005e70;fill-opacity:1;fill-rule:nonzero;stroke:none"
         id="path5128" />
      <g
         id="g5130"
         transform="matrix(6.6376378,0,0,-6.6376378,214.49141,390.30676)"
         style="fill:#005e70;fill-opacity:1">
        <path
           inkscape:connector-curvature="0"
           d="m 0,0 0,-1.111 0.721,0 c 0,0 0.015,0 0.039,10e-4 0.024,0.001 0.058,0.002 0.1,0.006 0.079,0.007 0.182,0.022 0.281,0.056 0.091,0.03 0.179,0.076 0.246,0.143 0.026,0.026 0.048,0.053 0.065,0.081 0.057,0.089 0.071,0.179 0.074,0.23 0.002,0.023 10e-4,0.035 10e-4,0.035 0,0 0.002,0.011 0,0.028 0,0.021 -0.003,0.063 -0.014,0.107 C 1.499,-0.371 1.474,-0.31 1.429,-0.253 1.42,-0.243 1.411,-0.232 1.401,-0.222 1.38,-0.202 1.36,-0.183 1.336,-0.166 1.296,-0.137 1.251,-0.112 1.202,-0.091 1.138,-0.062 1.065,-0.042 0.985,-0.027 0.944,-0.019 0.902,-0.013 0.857,-0.008 0.83,-0.007 0.802,-0.004 0.774,-0.003 0.75,-0.001 0.723,0 0.697,0 L 0,0"
           style="fill:#005e70;fill-opacity:1;fill-rule:nonzero;stroke:none"
           id="path5132" />
      </g>
      <g
         id="g5134"
         transform="matrix(6.6376378,0,0,-6.6376378,214.49141,379.09453)"
         style="fill:#005e70;fill-opacity:1">
        <path
           inkscape:connector-curvature="0"
           d="m 0,0 0,-1.053 0.349,0 c 0,0 0.024,0 0.055,10e-4 0.024,0.001 0.053,0.002 0.078,0.004 0.072,0.005 0.171,0.015 0.271,0.043 0.019,0.005 0.039,0.011 0.058,0.018 0.078,0.028 0.153,0.068 0.211,0.126 0.046,0.045 0.076,0.095 0.097,0.145 0.025,0.06 0.033,0.118 0.036,0.158 0.004,0.037 0.004,0.06 0.004,0.06 0,0 0,0.017 -0.001,0.045 -0.003,0.046 -0.012,0.12 -0.048,0.192 -0.018,0.034 -0.042,0.068 -0.074,0.1 C 0.997,-0.122 0.949,-0.093 0.898,-0.07 0.799,-0.026 0.687,-0.009 0.592,-0.003 0.551,0 0.513,0 0.481,0 L 0,0"
           style="fill:#005e70;fill-opacity:1;fill-rule:nonzero;stroke:none"
           id="path5136" />
      </g>
      <path
         inkscape:connector-curvature="0"
         d="m 199.18701,369.60795 39.87893,0 0,37.5292 -39.87893,0 0,-37.5292 z m 10.46755,5.26365 0,27.02846 10.1755,0 c 0,0 4.95832,0.13939 7.69302,-2.60196 2.23025,-2.23024 2.07095,-4.81228 2.07095,-4.81228 0,0 0.1593,-2.69489 -1.905,-4.75919 -1.75234,-1.75234 -4.0025,-2.22361 -4.0025,-2.22361 0,0 1.01556,-0.47791 1.7988,-1.25451 0.36507,-0.36507 1.65941,-1.53994 1.65941,-4.38748 0,-2.86746 -1.91164,-4.52023 -1.91164,-4.52023 0,0 -2.09086,-2.4692 -6.81022,-2.4692 l -8.76832,0"
         style="fill:#005e70;fill-opacity:1;fill-rule:nonzero;stroke:none"
         id="path5138" />
      <g
         id="g5140"
         transform="matrix(6.6376378,0,0,-6.6376378,169.43043,443.94485)"
         style="fill:#005e70;fill-opacity:1">
        <path
           inkscape:connector-curvature="0"
           d="m 0,0 -3.057,0 0,1.606 7.889,0 0,-1.606 -3.057,0 0,-8.37 L 0,-8.37 0,0 Z"
           style="fill:#005e70;fill-opacity:1;fill-rule:nonzero;stroke:none"
           id="path5142" />
      </g>
      <g
         id="g5144"
         transform="matrix(6.6376378,0,0,-6.6376378,213.38425,433.28613)"
         style="fill:#005e70;fill-opacity:1">
        <path
           inkscape:connector-curvature="0"
           d="m 0,0 1.944,0 1.874,-7.185 0.028,0 2.24,7.185 1.747,0 2.198,-7.185 0.028,0 1.959,7.185 1.804,0 -2.903,-9.975 -1.691,0 -2.31,7.594 -0.028,0 -2.311,-7.594 -1.635,0 L 0,0 Z"
           style="fill:#005e70;fill-opacity:1;fill-rule:nonzero;stroke:none"
           id="path5146" />
      </g>
      <g
         id="g5148"
         transform="matrix(6.6376378,0,0,-6.6376378,345.42884,490.51982)"
         style="fill:#005e70;fill-opacity:1">
        <path
           inkscape:connector-curvature="0"
           d="M 0,0 C 2.071,0 3.438,1.578 3.438,3.706 3.438,5.692 2.071,7.27 0,7.27 -2.057,7.27 -3.423,5.692 -3.423,3.706 -3.423,1.578 -2.057,0 0,0 M -0.014,8.876 C 3.1,8.933 5.298,6.848 5.298,3.649 5.298,0.535 3.1,-1.55 -0.014,-1.606 c -3.071,0 -5.269,2.085 -5.269,5.199 0,3.198 2.198,5.283 5.269,5.283"
           style="fill:#005e70;fill-opacity:1;fill-rule:nonzero;stroke:none"
           id="path5150" />
      </g>
      <path
         inkscape:connector-curvature="0"
         id="path5787"
         style="line-height:125%;font-family:'Avenir LT W02 95 Black';-inkscape-font-specification:'Avenir LT W02 95 Black';fill:#005e70;fill-opacity:1"
         d="m 126.65742,525.2192 7.54411,0 10.71075,17.50772 0.0717,0 0,-17.50772 5.55139,0 0,25.19409 -7.25959,0 -10.99527,-17.9345 -0.0717,0 0,17.9345 -5.55139,0 z" />
      <path
         inkscape:connector-curvature="0"
         id="path5789"
         style="line-height:125%;font-family:'Avenir LT W02 95 Black';-inkscape-font-specification:'Avenir LT W02 95 Black';fill:#005e70;fill-opacity:1"
         d="m 154.32314,541.76586 c 0,-1.37553 0.24905,-2.62076 0.74714,-3.73568 0.49809,-1.1149 1.18007,-2.06981 2.04593,-2.86474 0.86586,-0.7949 1.88594,-1.40576 3.06022,-1.83255 1.17427,-0.42676 2.42564,-0.64015 3.75413,-0.64017 1.32848,2e-5 2.57985,0.21341 3.75414,0.64017 1.17426,0.42679 2.19433,1.03765 3.06021,1.83255 0.86585,0.79493 1.54801,1.74984 2.04648,2.86474 0.49843,1.11492 0.74766,2.36015 0.74768,3.73568 -2e-5,1.37626 -0.24925,2.62185 -0.74768,3.73676 -0.49847,1.11491 -1.18063,2.06982 -2.04648,2.86474 -0.86588,0.79492 -1.88595,1.40576 -3.06021,1.83254 -1.17429,0.42679 -2.42566,0.64017 -3.75414,0.64017 -1.32849,0 -2.57986,-0.21338 -3.75413,-0.64017 -1.17428,-0.42678 -2.19436,-1.03762 -3.06022,-1.83254 -0.86586,-0.79492 -1.54784,-1.74983 -2.04593,-2.86474 -0.49809,-1.11491 -0.74714,-2.3605 -0.74714,-3.73676 z m 5.33746,0 c -10e-6,1.30531 0.37356,2.36122 1.1207,3.16772 0.74713,0.8065 1.79688,1.20975 3.14926,1.20975 1.35236,0 2.40212,-0.40325 3.14927,-1.20975 0.74712,-0.8065 1.12068,-1.86241 1.1207,-3.16772 -2e-5,-1.30458 -0.37358,-2.36013 -1.1207,-3.16664 -0.74715,-0.80649 -1.79691,-1.20974 -3.14927,-1.20975 -1.35238,1e-5 -2.40213,0.40326 -3.14926,1.20975 -0.74714,0.80651 -1.12071,1.86206 -1.1207,3.16664 z" />
      <path
         inkscape:connector-curvature="0"
         id="path5791"
         style="line-height:125%;font-family:'Avenir LT W02 95 Black';-inkscape-font-specification:'Avenir LT W02 95 Black';fill:#005e70;fill-opacity:1"
         d="m 176.64816,533.1195 5.33745,0 0,2.7757 0.0706,0 c 0.56975,-1.06784 1.24612,-1.86855 2.0291,-2.40213 0.78296,-0.53355 1.76737,-0.80033 2.95324,-0.80035 0.30841,2e-5 0.61682,0.0117 0.92524,0.0353 0.3084,0.0236 0.59291,0.0708 0.85356,0.14171 l 0,4.87593 c -0.37937,-0.11872 -0.75294,-0.20777 -1.12071,-0.26715 -0.36779,-0.0593 -0.75329,-0.089 -1.15654,-0.089 -1.02008,10e-6 -1.82657,0.14227 -2.4195,0.42677 -0.59294,0.28454 -1.04957,0.68181 -1.36992,1.19183 -0.32037,0.51005 -0.52797,1.1209 -0.6228,1.83255 -0.0948,0.71167 -0.14227,1.49464 -0.14226,2.34892 l 0,7.22375 -5.33745,0 z" />
      <path
         inkscape:connector-curvature="0"
         id="path5793"
         style="line-height:125%;font-family:'Avenir LT W02 95 Black';-inkscape-font-specification:'Avenir LT W02 95 Black';fill:#005e70;fill-opacity:1"
         d="m 202.88258,537.38947 -4.69674,0 0,5.76423 c -1e-5,0.47493 0.0237,0.90805 0.0712,1.29934 0.0474,0.39132 0.15401,0.72923 0.31981,1.01374 0.16578,0.28452 0.4208,0.50389 0.76506,0.65809 0.34423,0.15421 0.80088,0.23131 1.36993,0.2313 0.2845,10e-6 0.65807,-0.0295 1.12069,-0.0885 0.46261,-0.059 0.81265,-0.19528 1.05012,-0.40886 l 0,4.44806 c -0.59294,0.21357 -1.20976,0.35583 -1.85046,0.42678 -0.64072,0.0709 -1.26949,0.10642 -1.8863,0.10642 -0.90135,0 -1.73156,-0.0948 -2.49063,-0.28452 -0.75909,-0.18968 -1.42333,-0.49211 -1.99272,-0.90731 -0.56941,-0.41519 -1.01429,-0.95491 -1.33463,-1.61916 -0.32037,-0.66424 -0.48055,-1.47091 -0.48055,-2.42004 l 0,-8.21957 -3.41532,0 0,-4.26997 3.41532,0 0,-5.12461 5.33855,0 0,5.12461 4.69674,0 z" />
      <path
         inkscape:connector-curvature="0"
         id="path5795"
         style="line-height:125%;font-family:'Avenir LT W02 95 Black';-inkscape-font-specification:'Avenir LT W02 95 Black';fill:#005e70;fill-opacity:1"
         d="m 210.898,523.511 0,11.95633 0.0706,0 c 0.11872,-0.33156 0.32053,-0.6635 0.60542,-0.99581 0.28487,-0.33229 0.62894,-0.62894 1.0322,-0.88994 0.40324,-0.26098 0.87762,-0.47436 1.42314,-0.64017 0.5455,-0.16578 1.1386,-0.24867 1.77933,-0.24869 1.35236,2e-5 2.44356,0.20744 3.2736,0.62226 0.83002,0.41484 1.47634,0.99004 1.93898,1.72557 0.46259,0.73557 0.77697,1.60161 0.94314,2.59815 0.16613,0.99655 0.24921,2.0758 0.24923,3.23776 l 0,9.53683 -5.33746,0 0,-8.46934 c -1e-5,-0.49808 -0.0177,-1.0139 -0.0532,-1.54748 -0.0355,-0.53356 -0.14227,-1.02585 -0.32036,-1.47689 -0.17811,-0.45103 -0.45104,-0.8188 -0.8188,-1.10334 -0.36779,-0.2845 -0.89556,-0.42676 -1.58332,-0.42677 -0.68778,1e-5 -1.24523,0.12453 -1.67237,0.37357 -0.42715,0.24905 -0.7533,0.58117 -0.97844,0.99635 -0.22516,0.41521 -0.3734,0.8838 -0.4447,1.40577 -0.0713,0.52199 -0.10698,1.0675 -0.10697,1.63653 l 0,8.6116 -5.33745,0 0,-26.90229 z" />
      <path
         inkscape:connector-curvature="0"
         id="path5797"
         style="line-height:125%;font-family:'Avenir LT W02 95 Black';-inkscape-font-specification:'Avenir LT W02 95 Black';fill:#005e70;fill-opacity:1"
         d="m 242.36238,547.42366 c -0.8543,1.09175 -1.93373,1.93409 -3.23831,2.52702 -1.3046,0.59293 -2.65661,0.88939 -4.05603,0.88939 -1.32849,0 -2.57987,-0.21338 -3.75414,-0.64017 -1.17428,-0.42678 -2.19453,-1.03762 -3.06075,-1.83254 -0.86624,-0.79492 -1.54839,-1.74983 -2.04648,-2.86474 -0.49809,-1.11491 -0.74714,-2.3605 -0.74714,-3.73676 0,-1.37553 0.24905,-2.62076 0.74714,-3.73568 0.49809,-1.1149 1.18024,-2.06981 2.04648,-2.86474 0.86622,-0.7949 1.88647,-1.40576 3.06075,-1.83255 1.17427,-0.42676 2.42565,-0.64015 3.75414,-0.64017 1.2329,2e-5 2.35361,0.21341 3.36211,0.64017 1.00847,0.42679 1.86257,1.03765 2.56231,1.83255 0.69969,0.79493 1.23941,1.74984 1.61915,2.86474 0.3797,1.11492 0.56956,2.36015 0.56958,3.73568 l 0,1.67236 -12.3842,0 c 0.21356,1.02008 0.67618,1.83273 1.38784,2.43796 0.71166,0.60524 1.58947,0.90786 2.63344,0.90786 0.87816,0 1.61968,-0.19583 2.22457,-0.5875 0.60487,-0.39166 1.13245,-0.89591 1.58278,-1.51273 z m -4.51973,-7.61469 c 0.0238,-0.90133 -0.27259,-1.67236 -0.8894,-2.31308 -0.61683,-0.6407 -1.41139,-0.96105 -2.38366,-0.96107 -0.59294,2e-5 -1.11492,0.095 -1.56595,0.28507 -0.45103,0.19005 -0.83655,0.4333 -1.15653,0.72976 -0.32,0.29648 -0.56905,0.64036 -0.74714,1.03165 -0.1781,0.39132 -0.2791,0.80054 -0.30298,1.22767 z" />
      <path
         inkscape:connector-curvature="0"
         id="path5799"
         style="line-height:125%;font-family:'Avenir LT W02 95 Black';-inkscape-font-specification:'Avenir LT W02 95 Black';fill:#005e70;fill-opacity:1"
         d="m 246.4271,533.1195 5.33746,0 0,2.7757 0.0706,0 c 0.56975,-1.06784 1.24612,-1.86855 2.0291,-2.40213 0.78296,-0.53355 1.76737,-0.80033 2.95324,-0.80035 0.30841,2e-5 0.61682,0.0117 0.92524,0.0353 0.3084,0.0236 0.59291,0.0708 0.85356,0.14171 l 0,4.87593 c -0.37937,-0.11872 -0.75294,-0.20777 -1.12071,-0.26715 -0.36779,-0.0593 -0.75329,-0.089 -1.15654,-0.089 -1.02008,10e-6 -1.82657,0.14227 -2.4195,0.42677 -0.59294,0.28454 -1.04957,0.68181 -1.36992,1.19183 -0.32037,0.51005 -0.52797,1.1209 -0.6228,1.83255 -0.0948,0.71167 -0.14227,1.49464 -0.14226,2.34892 l 0,7.22375 -5.33745,0 z" />
      <path
         inkscape:connector-curvature="0"
         id="path5801"
         style="line-height:125%;font-family:'Avenir LT W02 95 Black';-inkscape-font-specification:'Avenir LT W02 95 Black';fill:#005e70;fill-opacity:1"
         d="m 260.8833,533.1195 5.12352,0 0,2.34783 0.0717,0 c 0.16578,-0.33156 0.40288,-0.6635 0.7113,-0.99581 0.3084,-0.33229 0.67618,-0.62894 1.10332,-0.88994 0.42714,-0.26098 0.91347,-0.47436 1.45898,-0.64017 0.54551,-0.16578 1.13861,-0.24867 1.77934,-0.24869 1.35236,2e-5 2.44356,0.20744 3.2736,0.62226 0.83002,0.41484 1.47634,0.99004 1.93897,1.72557 0.4626,0.73557 0.77698,1.60161 0.94315,2.59815 0.16613,0.99655 0.24921,2.0758 0.24922,3.23776 l 0,9.53683 -5.33745,0 0,-8.46934 c -1e-5,-0.49808 -0.0177,-1.0139 -0.0532,-1.54748 -0.0355,-0.53356 -0.14228,-1.02585 -0.32036,-1.47689 -0.17811,-0.45103 -0.45104,-0.8188 -0.81881,-1.10334 -0.36778,-0.2845 -0.89555,-0.42676 -1.58331,-0.42677 -0.68779,1e-5 -1.24524,0.12453 -1.67238,0.37357 -0.42714,0.24905 -0.75329,0.58117 -0.97844,0.99635 -0.22516,0.41521 -0.37339,0.8838 -0.4447,1.40577 -0.0713,0.52199 -0.10697,1.0675 -0.10696,1.63653 l 0,8.6116 -5.33745,0 z" />
      <path
         inkscape:connector-curvature="0"
         id="path5803"
         style="line-height:125%;font-family:'Avenir LT W02 95 Black';-inkscape-font-specification:'Avenir LT W02 95 Black';fill:#005e70;fill-opacity:1"
         d="m 292.4856,525.2192 5.55138,0 0,25.19409 -5.55138,0 z" />
      <path
         inkscape:connector-curvature="0"
         id="path5805"
         style="line-height:125%;font-family:'Avenir LT W02 95 Black';-inkscape-font-specification:'Avenir LT W02 95 Black';fill:#005e70;fill-opacity:1"
         d="m 302.44487,533.1195 5.33745,0 0,2.7757 0.0705,0 c 0.56976,-1.06784 1.24613,-1.86855 2.0291,-2.40213 0.78297,-0.53355 1.76738,-0.80033 2.95325,-0.80035 0.3084,2e-5 0.61681,0.0117 0.92523,0.0353 0.3084,0.0236 0.59292,0.0708 0.85357,0.14171 l 0,4.87593 c -0.37938,-0.11872 -0.75295,-0.20777 -1.12071,-0.26715 -0.36779,-0.0593 -0.7533,-0.089 -1.15654,-0.089 -1.02008,10e-6 -1.82658,0.14227 -2.41951,0.42677 -0.59293,0.28454 -1.04957,0.68181 -1.36992,1.19183 -0.32037,0.51005 -0.52797,1.1209 -0.6228,1.83255 -0.0948,0.71167 -0.14227,1.49464 -0.14226,2.34892 l 0,7.22375 -5.33745,0 z" />
      <path
         inkscape:connector-curvature="0"
         id="path5807"
         style="line-height:125%;font-family:'Avenir LT W02 95 Black';-inkscape-font-specification:'Avenir LT W02 95 Black';fill:#005e70;fill-opacity:1"
         d="m 333.26962,547.42366 c -0.8543,1.09175 -1.93374,1.93409 -3.23831,2.52702 -1.30461,0.59293 -2.65661,0.88939 -4.05603,0.88939 -1.3285,0 -2.57987,-0.21338 -3.75414,-0.64017 -1.17428,-0.42678 -2.19453,-1.03762 -3.06075,-1.83254 -0.86624,-0.79492 -1.54839,-1.74983 -2.04649,-2.86474 -0.49808,-1.11491 -0.74713,-2.3605 -0.74713,-3.73676 0,-1.37553 0.24905,-2.62076 0.74713,-3.73568 0.4981,-1.1149 1.18025,-2.06981 2.04649,-2.86474 0.86622,-0.7949 1.88647,-1.40576 3.06075,-1.83255 1.17427,-0.42676 2.42564,-0.64015 3.75414,-0.64017 1.2329,2e-5 2.35361,0.21341 3.36211,0.64017 1.00847,0.42679 1.86257,1.03765 2.5623,1.83255 0.6997,0.79493 1.23942,1.74984 1.61916,2.86474 0.37969,1.11492 0.56956,2.36015 0.56957,3.73568 l 0,1.67236 -12.38419,0 c 0.21356,1.02008 0.67618,1.83273 1.38784,2.43796 0.71165,0.60524 1.58947,0.90786 2.63344,0.90786 0.87816,0 1.61968,-0.19583 2.22457,-0.5875 0.60487,-0.39166 1.13245,-0.89591 1.58278,-1.51273 z m -4.51973,-7.61469 c 0.0238,-0.90133 -0.27259,-1.67236 -0.8894,-2.31308 -0.61683,-0.6407 -1.41139,-0.96105 -2.38366,-0.96107 -0.59295,2e-5 -1.11493,0.095 -1.56595,0.28507 -0.45103,0.19005 -0.83655,0.4333 -1.15653,0.72976 -0.32001,0.29648 -0.56905,0.64036 -0.74714,1.03165 -0.1781,0.39132 -0.2791,0.80054 -0.30298,1.22767 z" />
      <path
         inkscape:connector-curvature="0"
         id="path5809"
         style="line-height:125%;font-family:'Avenir LT W02 95 Black';-inkscape-font-specification:'Avenir LT W02 95 Black';fill:#005e70;fill-opacity:1"
         d="m 337.40492,523.511 5.33746,0 0,26.90229 -5.33746,0 z" />
      <path
         inkscape:connector-curvature="0"
         id="path5811"
         style="line-height:125%;font-family:'Avenir LT W02 95 Black';-inkscape-font-specification:'Avenir LT W02 95 Black';fill:#005e70;fill-opacity:1"
         d="m 357.43097,548.24247 -0.0717,0 c -0.59294,0.92523 -1.3817,1.58948 -2.36629,1.99272 -0.9846,0.40326 -2.02241,0.60488 -3.11343,0.60488 -0.8065,0 -1.58332,-0.11257 -2.33044,-0.33773 -0.74714,-0.22516 -1.40541,-0.56324 -1.97481,-1.01428 -0.5694,-0.45103 -1.02026,-1.00867 -1.35255,-1.6729 -0.33231,-0.66424 -0.49845,-1.43509 -0.49845,-2.31254 0,-0.99618 0.18388,-1.83833 0.55166,-2.52647 0.36777,-0.68813 0.86604,-1.25752 1.49481,-1.7082 0.62877,-0.45066 1.3464,-0.80052 2.1529,-1.04957 0.8065,-0.24904 1.64268,-0.43293 2.50855,-0.55167 0.86586,-0.11872 1.73173,-0.18985 2.5976,-0.21339 0.86586,-0.0235 1.66656,-0.0353 2.40213,-0.0353 -2e-5,-0.94911 -0.33811,-1.7024 -1.01429,-2.25986 -0.67619,-0.55745 -1.4769,-0.83618 -2.40212,-0.83619 -0.87746,1e-5 -1.67798,0.18391 -2.40159,0.55166 -0.72361,0.36779 -1.36993,0.87167 -1.93896,1.51165 l -2.84737,-2.91796 c 0.99618,-0.92521 2.15851,-1.61896 3.48699,-2.08123 1.32848,-0.46223 2.70438,-0.69336 4.12771,-0.69338 1.56593,2e-5 2.85296,0.19567 3.8611,0.58696 1.00812,0.39132 1.81479,0.96652 2.42005,1.72558 0.60522,0.7591 1.02639,1.69012 1.2635,2.79307 0.23709,1.10298 0.35564,2.37807 0.35565,3.82527 l 0,8.7897 -4.91067,0 z m -1.31617,-5.40912 c -0.40399,0 -0.90841,0.018 -1.51327,0.0537 -0.6049,0.0358 -1.18605,0.13666 -1.7435,0.30244 -0.55747,0.1658 -1.03184,0.41484 -1.42314,0.74713 -0.39131,0.33232 -0.58697,0.79493 -0.58696,1.38785 -1e-5,0.64072 0.27275,1.11528 0.81827,1.42368 0.5455,0.30842 1.11472,0.46263 1.70765,0.46262 0.52197,10e-6 1.02622,-0.0712 1.51274,-0.21338 0.48649,-0.14226 0.91943,-0.34389 1.29879,-0.60489 0.37935,-0.26098 0.68179,-0.5931 0.90732,-0.99635 0.2255,-0.40325 0.33826,-0.87781 0.33827,-1.42369 l 0,-1.13916 z" />
      <path
         inkscape:connector-curvature="0"
         id="path5813"
         style="line-height:125%;font-family:'Avenir LT W02 95 Black';-inkscape-font-specification:'Avenir LT W02 95 Black';fill:#005e70;fill-opacity:1"
         d="m 365.69073,533.1195 5.12351,0 0,2.34783 0.0717,0 c 0.16578,-0.33156 0.40288,-0.6635 0.7113,-0.99581 0.3084,-0.33229 0.67617,-0.62894 1.10332,-0.88994 0.42714,-0.26098 0.91346,-0.47436 1.45898,-0.64017 0.5455,-0.16578 1.13861,-0.24867 1.77933,-0.24869 1.35236,2e-5 2.44356,0.20744 3.27361,0.62226 0.83001,0.41484 1.47633,0.99004 1.93897,1.72557 0.4626,0.73557 0.77698,1.60161 0.94315,2.59815 0.16612,0.99655 0.2492,2.0758 0.24922,3.23776 l 0,9.53683 -5.33746,0 0,-8.46934 c -10e-6,-0.49808 -0.0177,-1.0139 -0.0532,-1.54748 -0.0355,-0.53356 -0.14227,-1.02585 -0.32035,-1.47689 -0.17811,-0.45103 -0.45105,-0.8188 -0.81881,-1.10334 -0.36779,-0.2845 -0.89556,-0.42676 -1.58332,-0.42677 -0.68778,1e-5 -1.24523,0.12453 -1.67237,0.37357 -0.42715,0.24905 -0.7533,0.58117 -0.97844,0.99635 -0.22516,0.41521 -0.3734,0.8838 -0.4447,1.40577 -0.0713,0.52199 -0.10697,1.0675 -0.10697,1.63653 l 0,8.6116 -5.33745,0 z" />
      <path
         inkscape:connector-curvature="0"
         id="path5815"
         style="line-height:125%;font-family:'Avenir LT W02 95 Black';-inkscape-font-specification:'Avenir LT W02 95 Black';fill:#005e70;fill-opacity:1"
         d="m 404.27136,550.41329 -4.91068,0 0,-2.27724 -0.0706,0 c -0.21358,0.30842 -0.49231,0.6228 -0.83618,0.94315 -0.3439,0.32035 -0.74715,0.61085 -1.20975,0.87148 -0.46263,0.26063 -0.97266,0.47402 -1.5301,0.64016 -0.55747,0.16616 -1.13303,0.24923 -1.72667,0.24923 -1.28071,0 -2.44304,-0.21936 -3.48699,-0.65808 -1.04397,-0.43873 -1.93952,-1.05555 -2.68665,-1.85047 -0.74714,-0.79491 -1.32233,-1.73788 -1.72558,-2.8289 -0.40325,-1.09101 -0.60488,-2.28919 -0.60488,-3.59451 0,-1.20974 0.1839,-2.3661 0.55167,-3.46907 0.36778,-1.10295 0.88957,-2.08139 1.5654,-2.93533 0.67582,-0.85391 1.50005,-1.53588 2.47271,-2.04593 0.97265,-0.51002 2.07579,-0.76504 3.30945,-0.76506 1.11489,2e-5 2.15288,0.17196 3.11396,0.51583 0.96106,0.3439 1.75,0.93104 2.36683,1.76142 l 0.0705,0 0,-11.45897 5.33746,0 z m -4.91068,-8.64743 c -2e-5,-1.30458 -0.37359,-2.36013 -1.12071,-3.16664 -0.74715,-0.80649 -1.7969,-1.20974 -3.14926,-1.20975 -1.35238,1e-5 -2.40213,0.40326 -3.14926,1.20975 -0.74714,0.80651 -1.12071,1.86206 -1.1207,3.16664 -10e-6,1.30531 0.37356,2.36122 1.1207,3.16772 0.74713,0.8065 1.79688,1.20975 3.14926,1.20975 1.35236,0 2.40211,-0.40325 3.14926,-1.20975 0.74712,-0.8065 1.12069,-1.86241 1.12071,-3.16772 z" />
    </g>
  </g>
</svg>
