<?xml version="1.0" encoding="UTF-8" standalone="no"?>
<!-- Created with Inkscape (http://www.inkscape.org/) -->

<svg
   xmlns:dc="http://purl.org/dc/elements/1.1/"
   xmlns:cc="http://creativecommons.org/ns#"
   xmlns:rdf="http://www.w3.org/1999/02/22-rdf-syntax-ns#"
   xmlns:svg="http://www.w3.org/2000/svg"
   xmlns="http://www.w3.org/2000/svg"
   xmlns:sodipodi="http://sodipodi.sourceforge.net/DTD/sodipodi-0.dtd"
   xmlns:inkscape="http://www.inkscape.org/namespaces/inkscape"
   width="816.42493"
   height="588.95294"
   id="svg5480"
   version="1.1"
   inkscape:version="0.91 r13725"
   sodipodi:docname="BBC Two Scotland HD - Dark.svg"
   hola_ext_inject="disabled">
  <defs
     id="defs5482">
    <clipPath
       clipPathUnits="userSpaceOnUse"
       id="clipPath5114">
      <path
         inkscape:connector-curvature="0"
         d="m 90.708,540.993 47.382,0 0,34.44 -47.382,0 0,-34.44 z"
         id="path5116" />
    </clipPath>
  </defs>
  <sodipodi:namedview
     id="base"
     pagecolor="#ffffff"
     bordercolor="#666666"
     borderopacity="1.0"
     inkscape:pageopacity="0.0"
     inkscape:pageshadow="2"
     inkscape:zoom="0.40651735"
     inkscape:cx="-570.49588"
     inkscape:cy="-23.943498"
     inkscape:document-units="px"
     inkscape:current-layer="layer1"
     showgrid="false"
     fit-margin-left="0.5"
     fit-margin-bottom="0.5"
     fit-margin-top="0.5"
     fit-margin-right="0.5"
     inkscape:window-width="1920"
     inkscape:window-height="1017"
     inkscape:window-x="-8"
     inkscape:window-y="-8"
     inkscape:window-maximized="1" />
  <metadata
     id="metadata5485">
    <rdf:RDF>
      <cc:Work
         rdf:about="">
        <dc:format>image/svg+xml</dc:format>
        <dc:type
           rdf:resource="http://purl.org/dc/dcmitype/StillImage" />
        <dc:title></dc:title>
      </cc:Work>
    </rdf:RDF>
  </metadata>
  <g
     inkscape:label="Layer 1"
     inkscape:groupmode="layer"
     id="layer1"
     transform="translate(2.8773355,-34.71723)">
    <path
       inkscape:connector-curvature="0"
       id="path5550"
       style="font-style:normal;font-weight:normal;font-size:medium;line-height:125%;font-family:'Avenir LT W02 95 Black';-inkscape-font-specification:'Avenir LT W02 95 Black';text-align:center;letter-spacing:0px;word-spacing:0px;text-anchor:middle;fill:#005e70;fill-opacity:1;stroke:none"
       d="m 161.6476,552.90654 c -1.60791,-2.0317 -3.78834,-3.53488 -6.54128,-4.5095 -2.75307,-0.97447 -5.35872,-1.46173 -7.81699,-1.46179 -1.43987,6e-5 -2.92171,0.1693 -4.44553,0.50794 -1.52386,0.3387 -2.9637,0.86799 -4.3195,1.58783 -1.35585,0.71997 -2.45706,1.67318 -3.3036,2.85964 -0.84662,1.18655 -1.26991,2.62639 -1.26987,4.31949 -4e-5,2.71172 1.01651,4.78744 3.04962,6.22722 2.03307,1.43991 4.59543,2.66775 7.6871,3.68361 3.09159,1.01594 6.41587,2.0325 9.97286,3.04962 3.55687,1.01725 6.88116,2.45709 9.97283,4.31949 3.09159,1.86253 5.65394,4.36092 7.68711,7.49516 2.03301,3.13433 3.04956,7.32782 3.04962,12.58045 -6e-5,4.9968 -0.93196,9.35895 -2.79566,13.08649 -1.86383,3.72753 -4.38353,6.81918 -7.55913,9.2749 -3.1757,2.45573 -6.85994,4.27687 -11.05272,5.46336 -4.19288,1.18649 -8.61967,1.77975 -13.28035,1.77975 -5.84465,0 -11.26538,-0.88924 -16.26212,-2.66769 -4.99677,-1.77848 -9.6549,-4.65943 -13.97439,-8.64289 l 14.10237,-15.49825 c 2.03177,2.70907 4.59346,4.80485 7.68514,6.28731 3.09161,1.48251 6.28923,2.22376 9.59287,2.22372 1.61041,4e-5 3.24151,-0.19058 4.89337,-0.57191 1.65174,-0.38127 3.13424,-0.95318 4.44744,-1.71578 1.31314,-0.76256 2.37168,-1.73645 3.17566,-2.92167 0.80389,-1.18519 1.20584,-2.58301 1.2059,-4.19349 -6e-5,-2.70904 -1.03729,-4.84744 -3.11169,-6.41526 -2.07449,-1.56776 -4.67884,-2.90227 -7.81308,-4.00351 -3.13434,-1.10117 -6.5226,-2.20237 -10.16481,-3.3036 -3.64225,-1.10118 -7.03051,-2.58301 -10.16478,-4.44551 -3.13431,-1.86243 -5.73933,-4.31882 -7.81506,-7.36914 -2.07573,-3.05023 -3.11359,-7.07374 -3.11359,-12.07057 0,-4.82868 0.95321,-9.06415 2.85964,-12.70647 1.90639,-3.64218 4.44744,-6.69113 7.6231,-9.14695 3.17563,-2.45567 6.83919,-4.29809 10.99068,-5.52736 4.15146,-1.22906 8.4296,-1.84363 12.83444,-1.84373 5.08203,1e-4 9.99478,0.72067 14.73826,2.16169 4.74339,1.44123 9.02022,3.85494 12.83057,7.2412 z" />
    <path
       inkscape:connector-curvature="0"
       id="path5552"
       style="font-style:normal;font-weight:normal;font-size:medium;line-height:125%;font-family:'Avenir LT W02 95 Black';-inkscape-font-specification:'Avenir LT W02 95 Black';text-align:center;letter-spacing:0px;word-spacing:0px;text-anchor:middle;fill:#005e70;fill-opacity:1;stroke:none"
       d="m 229.52274,579.07949 c -0.93063,-1.35449 -2.24316,-2.47638 -3.93756,-3.36565 -1.6945,-0.88921 -3.51497,-1.33381 -5.46142,-1.33384 -4.8288,3e-5 -8.57765,1.43987 -11.24661,4.31949 -2.66902,2.87972 -4.00353,6.64861 -4.0035,11.30671 -3e-5,4.66073 1.33448,8.43093 4.0035,11.31058 2.66896,2.87968 6.41781,4.31952 11.24661,4.31949 2.11706,3e-5 3.93753,-0.46592 5.46142,-1.39782 1.52379,-0.93186 2.83632,-2.0337 3.93756,-3.30554 l 12.57851,13.21443 c -2.96243,3.05026 -6.45538,5.18933 -10.47886,6.41721 -4.02358,1.22787 -7.85644,1.84178 -11.49863,1.84178 -4.74348,0 -9.21163,-0.7619 -13.40441,-2.28575 -4.19288,-1.52386 -7.83577,-3.70492 -10.92868,-6.54325 -3.09292,-2.83829 -5.52863,-6.24787 -7.30708,-10.22875 -1.77848,-3.98086 -2.66772,-8.42833 -2.66769,-13.34238 -3e-5,-4.91142 0.88921,-9.35759 2.66769,-13.33851 1.77845,-3.98082 4.21416,-7.39039 7.30708,-10.22875 3.09291,-2.83827 6.7358,-5.01936 10.92868,-6.54325 4.19278,-1.52379 8.66093,-2.28572 13.40441,-2.28578 3.64219,6e-5 7.47505,0.614 11.49863,1.84181 4.02348,1.22791 7.51643,3.36571 10.47886,6.41333 z" />
    <path
       inkscape:connector-curvature="0"
       id="path5554"
       style="font-style:normal;font-weight:normal;font-size:medium;line-height:125%;font-family:'Avenir LT W02 95 Black';-inkscape-font-specification:'Avenir LT W02 95 Black';text-align:center;letter-spacing:0px;word-spacing:0px;text-anchor:middle;fill:#005e70;fill-opacity:1;stroke:none"
       d="m 246.73096,590.0062 c 0,-4.91142 0.88924,-9.35759 2.66772,-13.33851 1.77844,-3.98082 4.21349,-7.39039 7.30514,-10.22875 3.09161,-2.83827 6.73386,-5.01936 10.92671,-6.54325 4.19281,-1.52379 8.66093,-2.28572 13.40441,-2.28578 4.74342,6e-5 9.21154,0.76199 13.40442,2.28578 4.19279,1.52389 7.83503,3.70498 10.92671,6.54325 3.09158,2.83836 5.52726,6.24793 7.30711,10.22875 1.77969,3.98092 2.66956,8.42709 2.66963,13.33851 -7e-5,4.91405 -0.88994,9.36152 -2.66963,13.34238 -1.77985,3.98088 -4.21553,7.39046 -7.30711,10.22875 -3.09168,2.83833 -6.73392,5.01939 -10.92671,6.54325 -4.19288,1.52385 -8.661,2.28575 -13.40442,2.28575 -4.74348,0 -9.2116,-0.7619 -13.40441,-2.28575 -4.19285,-1.52386 -7.8351,-3.70492 -10.92671,-6.54325 -3.09165,-2.83829 -5.5267,-6.24787 -7.30514,-10.22875 -1.77848,-3.98086 -2.66772,-8.42833 -2.66772,-13.34238 z m 19.05778,0 c -3e-5,4.66073 1.33381,8.43093 4.00153,11.31058 2.66769,2.87968 6.4159,4.31952 11.24467,4.31949 4.82871,3e-5 8.57692,-1.43981 11.24467,-4.31949 2.66766,-2.87965 4.0015,-6.64985 4.00157,-11.31058 -7e-5,-4.6581 -1.33391,-8.42699 -4.00157,-11.30671 -2.66775,-2.87962 -6.41596,-4.31946 -11.24467,-4.31949 -4.82877,3e-5 -8.57698,1.43987 -11.24467,4.31949 -2.66772,2.87972 -4.00156,6.64861 -4.00153,11.30671 z" />
    <path
       inkscape:connector-curvature="0"
       id="path5556"
       style="font-style:normal;font-weight:normal;font-size:medium;line-height:125%;font-family:'Avenir LT W02 95 Black';-inkscape-font-specification:'Avenir LT W02 95 Black';text-align:center;letter-spacing:0px;word-spacing:0px;text-anchor:middle;fill:#005e70;fill-opacity:1;stroke:none"
       d="m 368.49907,574.38 -16.77007,0 0,20.58161 c -3e-5,1.69577 0.0845,3.24224 0.25412,4.63939 0.1693,1.39721 0.5499,2.60375 1.14189,3.61963 0.59193,1.01589 1.50251,1.79916 2.7317,2.34973 1.22911,0.55063 2.8596,0.82593 4.89143,0.8259 1.01586,3e-5 2.3497,-0.10545 4.00154,-0.31605 1.65177,-0.2106 2.9016,-0.69726 3.74951,-1.45985 l 0,15.88212 c -2.11715,0.76256 -4.31952,1.2705 -6.60721,1.52386 -2.28773,0.25316 -4.53279,0.37996 -6.73517,0.37996 -3.21832,0 -6.18265,-0.33861 -8.89297,-1.01588 -2.71038,-0.67728 -5.08209,-1.75714 -7.11516,-3.23964 -2.0331,-1.48247 -3.62157,-3.40957 -4.7654,-5.78131 -1.14389,-2.37171 -1.71581,-5.252 -1.71581,-8.64093 l 0,-29.34857 -12.19464,0 0,-15.24624 12.19464,0 0,-18.29779 19.06166,0 0,18.29779 16.77006,0 z" />
    <path
       inkscape:connector-curvature="0"
       id="path5558"
       style="font-style:normal;font-weight:normal;font-size:medium;line-height:125%;font-family:'Avenir LT W02 95 Black';-inkscape-font-specification:'Avenir LT W02 95 Black';text-align:center;letter-spacing:0px;word-spacing:0px;text-anchor:middle;fill:#005e70;fill-opacity:1;stroke:none"
       d="m 378.31295,524.8259 19.05778,0 0,96.05661 -19.05778,0 z" />
    <path
       inkscape:connector-curvature="0"
       id="path5560"
       style="font-style:normal;font-weight:normal;font-size:medium;line-height:125%;font-family:'Avenir LT W02 95 Black';-inkscape-font-specification:'Avenir LT W02 95 Black';text-align:center;letter-spacing:0px;word-spacing:0px;text-anchor:middle;fill:#005e70;fill-opacity:1;stroke:none"
       d="m 449.81741,613.13143 -0.25602,0 c -2.11715,3.3036 -4.93346,5.67535 -8.449,7.11516 -3.51561,1.43984 -7.22119,2.15974 -11.11673,2.15974 -2.87968,0 -5.65337,-0.40194 -8.32102,-1.20586 -2.66772,-0.80396 -5.01812,-2.01113 -7.05119,-3.62157 -2.0331,-1.61045 -3.64291,-3.60153 -4.8294,-5.97324 -1.18652,-2.37171 -1.77975,-5.12408 -1.77975,-8.25708 0,-3.55693 0.65656,-6.56389 1.96976,-9.02095 1.31313,-2.457 3.09225,-4.49007 5.33731,-6.09925 2.24507,-1.60911 4.80743,-2.8583 7.68711,-3.74757 2.87965,-0.88921 5.8653,-1.54578 8.95695,-1.96977 3.09161,-0.42389 6.18326,-0.67788 9.2749,-0.76193 3.09162,-0.0838 5.95059,-0.1261 8.57698,-0.1261 -6e-5,-3.38886 -1.20723,-6.07853 -3.62156,-8.06901 -2.4144,-1.99041 -5.27341,-2.98562 -8.57695,-2.98568 -3.13304,6e-5 -5.99138,0.65666 -8.57505,1.96977 -2.5837,1.31322 -4.89144,3.11235 -6.92321,5.39744 l -10.16675,-10.41877 c 3.55693,-3.30354 7.70712,-5.78061 12.45057,-7.43118 4.74342,-1.65044 9.65617,-2.47571 14.73826,-2.47577 5.59127,6e-5 10.18673,0.69866 13.78635,2.09577 3.59956,1.39725 6.47984,3.45103 8.64096,6.16132 2.16098,2.71041 3.6648,6.03469 4.51144,9.97286 0.84652,3.93825 1.26981,8.49106 1.26987,13.6584 l 0,31.38425 -17.53393,0 z m -4.69949,-19.31368 c -1.44248,3e-5 -3.24354,0.0642 -5.40326,0.19185 -2.15981,0.12801 -4.23487,0.48797 -6.22528,1.07989 -1.99047,0.59199 -3.68427,1.48123 -5.08142,2.66769 -1.39722,1.18655 -2.09581,2.83836 -2.09577,4.95541 -4e-5,2.28773 0.97386,3.98219 2.92167,5.08336 1.94775,1.10124 3.98019,1.65184 6.09731,1.65181 1.86373,3e-5 3.66419,-0.25412 5.40132,-0.7619 1.73706,-0.50794 3.28289,-1.22788 4.63745,-2.15978 1.35449,-0.93186 2.43438,-2.11772 3.23963,-3.55756 0.80516,-1.43981 1.20778,-3.13427 1.20784,-5.08336 l 0,-4.06748 z" />
    <path
       inkscape:connector-curvature="0"
       id="path5562"
       style="font-style:normal;font-weight:normal;font-size:medium;line-height:125%;font-family:'Avenir LT W02 95 Black';-inkscape-font-specification:'Avenir LT W02 95 Black';text-align:center;letter-spacing:0px;word-spacing:0px;text-anchor:middle;fill:#005e70;fill-opacity:1;stroke:none"
       d="m 479.30946,559.13376 18.29389,0 0,8.3831 0.25602,0 c 0.59193,-1.18386 1.43851,-2.36908 2.53974,-3.55563 1.10117,-1.18646 2.41434,-2.24567 3.9395,-3.1776 1.52513,-0.93183 3.26158,-1.69373 5.2094,-2.28575 1.94775,-0.59193 4.06547,-0.88791 6.35323,-0.88797 4.82871,6e-5 8.72491,0.74068 11.68864,2.22181 2.96363,1.48123 5.27137,3.53501 6.92324,6.16128 1.65174,2.62639 2.77426,5.71868 3.36758,9.27687 0.59317,3.55827 0.88981,7.41181 0.88988,11.56067 l 0,34.05197 -19.05779,0 0,-30.24042 c -3e-5,-1.77842 -0.0632,-3.62021 -0.18995,-5.52539 -0.12674,-1.9051 -0.50801,-3.66287 -1.14386,-5.27335 -0.63595,-1.61041 -1.61048,-2.92358 -2.92361,-3.93952 -1.3132,-1.01586 -3.19765,-1.5238 -5.65334,-1.52383 -2.45579,3e-5 -4.4462,0.44463 -5.97133,1.33384 -1.52516,0.88927 -2.6897,2.07513 -3.49359,3.55757 -0.80395,1.48253 -1.33324,3.15565 -1.58783,5.01938 -0.25475,1.8638 -0.38197,3.81159 -0.38194,5.84335 l 0,30.74837 -19.05775,0 z" />
    <path
       inkscape:connector-curvature="0"
       id="path5564"
       style="font-style:normal;font-weight:normal;font-size:medium;line-height:125%;font-family:'Avenir LT W02 95 Black';-inkscape-font-specification:'Avenir LT W02 95 Black';text-align:center;letter-spacing:0px;word-spacing:0px;text-anchor:middle;fill:#005e70;fill-opacity:1;stroke:none"
       d="m 617.06439,620.88251 -17.53393,0 0,-8.13108 -0.25189,0 c -0.76262,1.10124 -1.75783,2.22375 -2.98564,3.36758 -1.22792,1.14386 -2.66776,2.18109 -4.3195,3.11169 -1.65187,0.9306 -3.47297,1.69253 -5.46335,2.28576 -1.99048,0.59326 -4.04556,0.88987 -6.16519,0.88987 -4.57287,0 -8.72306,-0.78324 -12.45057,-2.34973 -3.72756,-1.56651 -6.92517,-3.76889 -9.59286,-6.60721 -2.66772,-2.8383 -4.72147,-6.20524 -6.16131,-10.10081 -1.43984,-3.89554 -2.15975,-8.1737 -2.15975,-12.83444 0,-4.31946 0.6566,-8.44834 1.96976,-12.3866 1.31317,-3.93816 3.17627,-7.43175 5.58937,-10.4808 2.41307,-3.04892 5.35605,-5.48397 8.829,-7.30514 3.47291,-1.82104 7.41177,-2.73163 11.81662,-2.73169 3.98082,6e-5 7.68704,0.614 11.11862,1.84181 3.43153,1.22791 6.24851,3.32436 8.45095,6.28926 l 0.25189,0 0,-40.91508 19.05778,0 z M 599.53046,590.0062 c -6e-5,-4.6581 -1.3339,-8.42699 -4.00156,-11.30671 -2.66775,-2.87962 -6.41596,-4.31946 -11.24467,-4.31949 -4.82877,3e-5 -8.57698,1.43987 -11.24467,4.31949 -2.66772,2.87972 -4.00156,6.64861 -4.00153,11.30671 -3e-5,4.66073 1.33381,8.43093 4.00153,11.31058 2.66769,2.87968 6.4159,4.31952 11.24467,4.31949 4.82871,3e-5 8.57692,-1.43981 11.24467,-4.31949 2.66766,-2.87965 4.0015,-6.64985 4.00156,-11.31058 z" />
    <path
       inkscape:connector-curvature="0"
       style="fill:#005e70;fill-opacity:1;fill-rule:nonzero;stroke:none"
       id="path27227"
       d="m 448.55071,35.21723 126.67305,0 0,119.20063 -126.67305,0 0,-119.20063 z m 79.80075,16.5894 c -0.572,-0.0715 -1.14406,-0.17877 -1.71616,-0.25025 l -0.67927,-0.10724 c -0.96535,-0.14301 -1.96642,-0.25025 -2.93171,-0.35755 -0.67937,-0.036 -1.35865,-0.10724 -2.03797,-0.14301 -1.17983,-0.0715 -2.39543,-0.10724 -3.50376,-0.10724 -0.53633,0 -0.85813,0 -1.35864,0.036 -0.92958,0 -1.85915,0.036 -2.78873,0.10725 -0.53633,0.036 -1.03684,0.0715 -1.57312,0.10724 -0.75082,0.0715 -1.50168,0.14301 -2.21672,0.25026 l -0.60778,0.0715 -0.67937,0.10724 -0.85803,0.14301 c -0.35772,0.0715 -0.71504,0.10725 -1.07256,0.17878 -0.50051,0.10724 -1.00112,0.21453 -1.50163,0.32178 -2.96754,0.6078 -5.75626,1.46588 -8.33045,2.46696 -1.32289,0.50054 -2.60997,1.07259 -3.82561,1.64464 -1.00106,0.50055 -1.93064,1.00109 -2.89599,1.57314 -0.89381,0.50054 -1.75186,1.03683 -2.60996,1.57313 -0.46454,0.32178 -0.92958,0.64355 -1.39438,1.00108 -0.39309,0.28602 -0.78657,0.57205 -1.17983,0.85808 -0.78657,0.6078 -1.57314,1.25136 -2.28819,1.89491 -0.67932,0.57205 -1.35865,1.2156 -1.93069,1.8234 -0.53626,0.50054 -1.07258,1.03684 -1.57314,1.60889 -0.50051,0.57205 -1.03682,1.14409 -1.50161,1.7519 -0.53627,0.64355 -1.03682,1.32286 -1.53738,2.00217 -0.39309,0.50054 -0.71504,1.03684 -1.07259,1.53738 -0.25025,0.35755 -0.46453,0.71506 -0.67933,1.10834 -1.32284,2.14519 -2.50267,4.46913 -3.43225,6.93609 -1.17988,3.07476 -2.03793,6.36404 -2.53849,9.90359 -0.14283,1.10835 -0.25025,2.21669 -0.32169,3.39654 -0.0351,0.85807 -0.0714,1.7519 -0.0714,2.68148 0,0.64356 0,1.32286 0.0351,2.00217 0.0351,0.67931 0.10742,1.35862 0.17881,2.03792 l 0.0351,0.50056 c 0.14284,0.78657 0.25026,1.57314 0.3931,2.35971 0.0714,0.3218 0.10741,0.6078 0.17881,0.92958 0.14283,0.64355 0.3217,1.28711 0.46503,1.93066 0.25026,0.82232 0.46504,1.60889 0.7151,2.39545 0.35767,0.96534 0.67928,1.93067 1.07259,2.8245 0.6078,1.46587 1.28707,2.86024 2.00216,4.1831 0.42907,0.78657 0.85806,1.53738 1.32285,2.25244 0.35762,0.6078 0.71504,1.1441 1.10835,1.68039 0.50056,0.71506 1.00106,1.43012 1.50161,2.07368 0.53632,0.67931 1.10836,1.35862 1.64467,1.96642 0.67928,0.78656 1.32285,1.46587 2.00217,2.10943 l 0.35767,0.35757 c 0.53633,0.5363 1.14412,1.10835 1.8234,1.6804 0.46454,0.39324 0.92958,0.82231 1.43014,1.2156 0.50056,0.35757 1.00111,0.78657 1.53737,1.1441 0.64357,0.46478 1.3229,0.92958 2.03794,1.39436 0.7508,0.50056 1.53738,0.96534 2.39548,1.43012 1.68039,0.96534 3.50378,1.85916 5.54171,2.68148 0.75081,0.28603 1.53738,0.57205 2.35965,0.85807 0.82234,0.28603 1.6447,0.5363 2.50273,0.78658 1.43013,0.42901 2.96753,0.78656 4.57638,1.10834 1.32287,0.25025 2.64573,0.42901 4.0401,0.6078 1.39436,0.17876 2.82449,0.3218 4.32612,0.39329 0.7151,0.0361 1.43014,0.0361 2.18095,0.0715 0.35772,0 0.7151,0 1.03679,0 2.68151,0 5.11272,-0.10726 7.43665,-0.28602 l 0.42887,-0.0361 c 0.89385,-0.10727 1.78771,-0.17877 2.64574,-0.28603 1.28714,-0.17876 2.53847,-0.35757 3.71835,-0.57205 0.75076,-0.14299 1.46585,-0.28603 2.1809,-0.42902 1.10838,-0.21453 2.10945,-0.50056 3.11052,-0.75081 0.75081,-0.17876 1.43013,-0.39324 2.1094,-0.6078 0.82236,-0.25026 1.60895,-0.50056 2.35976,-0.75082 l 0.71505,-0.25025 c 0.35772,-0.14299 0.85808,-0.3218 1.43013,-0.5363 0.75077,-0.28602 1.68039,-0.64355 2.71723,-1.10834 0.6435,-0.25025 1.32287,-0.57205 2.00219,-0.89383 0.60778,-0.28602 1.28705,-0.57204 1.93065,-0.89382 0.25,-0.14299 0.53628,-0.28603 0.8223,-0.42901 l 0,-16.23188 c -0.17886,0.10722 -0.39329,0.21453 -0.57205,0.35757 l -1.10834,0.64355 c -1.1441,0.67931 -2.18094,1.32286 -3.25351,1.93067 -1.2156,0.6078 -2.35971,1.2156 -3.50382,1.7519 -2.00218,0.92957 -3.93283,1.7519 -5.79198,2.39545 -3.53954,1.28711 -6.7931,2.10943 -9.65337,2.60997 -0.35772,0.0361 -0.67927,0.10726 -1.00102,0.14299 -0.82236,0.14299 -1.57317,0.21453 -2.28822,0.3218 -1.1441,0.10726 -2.18094,0.17876 -3.14629,0.21453 -0.60778,0.0361 -1.2156,0.0361 -1.71611,0.0361 -1.17983,0 -2.35971,0 -3.53959,-0.10721 -1.43014,-0.10727 -2.86022,-0.25026 -4.32608,-0.50056 -2.35976,-0.39325 -4.71942,-1.00109 -7.00758,-1.82341 -0.35773,-0.14299 -0.7151,-0.28602 -1.0369,-0.39324 -0.21443,-0.10727 -0.42886,-0.17876 -0.67927,-0.28603 -0.35772,-0.14299 -0.75081,-0.3218 -1.10833,-0.50056 -0.78659,-0.35752 -1.57317,-0.78656 -2.35973,-1.2156 -0.35762,-0.21453 -0.7508,-0.42901 -1.14405,-0.67931 -0.39309,-0.25025 -0.78657,-0.50056 -1.14412,-0.75081 -0.46453,-0.3218 -0.92958,-0.67931 -1.39436,-1.03684 -0.42907,-0.35757 -0.89382,-0.71506 -1.28713,-1.03684 l -0.53627,-0.50056 -0.25026,-0.25026 -0.17881,-0.14298 -0.17881,-0.17877 c -0.75081,-0.7508 -1.39437,-1.46587 -2.03793,-2.21668 -0.3217,-0.3933 -0.64357,-0.82232 -0.96535,-1.2156 -0.28622,-0.42902 -0.57203,-0.82232 -0.82228,-1.21561 -0.25026,-0.39324 -0.50056,-0.78657 -0.7151,-1.1441 -0.3217,-0.57205 -0.64356,-1.17984 -0.92958,-1.71614 -0.25025,-0.50056 -0.46453,-0.96533 -0.64356,-1.46587 -0.35762,-0.82233 -0.67928,-1.64464 -0.89381,-2.43121 -0.21429,-0.60781 -0.3931,-1.2156 -0.50056,-1.78765 -0.46454,-1.71615 -0.67928,-3.25353 -0.78652,-4.57639 -0.0715,-0.50056 -0.0715,-0.96533 -0.10742,-1.39437 -0.0351,-0.67931 -0.0351,-1.21561 -0.0351,-1.68039 0,-0.28603 0,-0.64356 0,-1.03684 0.0351,-0.92958 0.10741,-2.10943 0.3217,-3.46805 0.10736,-0.78656 0.28622,-1.64463 0.50056,-2.57421 0.14284,-0.60781 0.3217,-1.21561 0.50056,-1.85916 0.17881,-0.57205 0.39309,-1.17985 0.60779,-1.7519 0.14284,-0.42903 0.3217,-0.82232 0.53627,-1.2156 0.21429,-0.57205 0.46454,-1.10835 0.75086,-1.64465 0.21428,-0.42902 0.46504,-0.85807 0.71504,-1.2871 0.53627,-0.89383 1.14412,-1.82341 1.8234,-2.75299 0.25025,-0.32178 0.50056,-0.64355 0.7508,-0.96533 0.35762,-0.42902 0.7151,-0.82232 1.10836,-1.25135 0.17881,-0.21454 0.35767,-0.42903 0.57203,-0.60781 3.00328,-3.00325 6.32827,-5.21994 9.79633,-6.82883 0.53628,-0.21454 1.10838,-0.42903 1.64462,-0.67931 0.5721,-0.21454 1.10838,-0.39326 1.64466,-0.57204 0.60783,-0.21454 1.25138,-0.39332 1.82343,-0.57205 0.572,-0.14301 1.14406,-0.28602 1.71616,-0.42903 0.57201,-0.143 1.14406,-0.25025 1.71611,-0.35754 0.64355,-0.10725 1.25133,-0.21454 1.8592,-0.28602 0.6435,-0.0715 1.28705,-0.14301 1.89488,-0.21454 1.17988,-0.10724 2.35971,-0.14301 3.46804,-0.14301 0.3933,0 0.75082,0 1.14406,0 0.85813,0.036 1.64467,0.036 2.46698,0.10725 0.5721,0.036 1.10833,0.0715 1.64466,0.10725 1.00107,0.10724 2.00219,0.25025 2.93177,0.39331 0.85803,0.10724 1.64461,0.25025 2.4312,0.39326 1.14411,0.25025 2.21667,0.50054 3.14625,0.75082 0.64355,0.17877 1.2156,0.35754 1.75188,0.50054 0.78659,0.21453 1.46591,0.42902 1.96647,0.6078 0.8938,0.32178 1.39431,0.50054 1.39431,0.50054 0.78659,0.28602 1.57312,0.6078 2.35971,0.89383 1.03684,0.42902 2.00219,0.89382 2.96754,1.28711 0.78653,0.39326 1.53735,0.75081 2.25239,1.07259 0.5721,0.28602 1.10838,0.57205 1.60889,0.82231 0.89386,0.50055 1.64467,0.89384 2.25245,1.21561 l 1.68039,0.92958 0,-15.98161 c 0,0 -1.00107,-0.39331 -2.71723,-1.03684 -0.78654,-0.32178 -1.68039,-0.64355 -2.68146,-1.00108 -0.57206,-0.21454 -1.17983,-0.42903 -1.82343,-0.64355 -0.50051,-0.14301 -1.00107,-0.35755 -1.57312,-0.5363 -0.57206,-0.17878 -1.21561,-0.39327 -1.8591,-0.57205 -0.46494,-0.14301 -0.96535,-0.32179 -1.43014,-0.42903 l -0.46494,-0.14301 c -0.46493,-0.10724 -0.92962,-0.25025 -1.43013,-0.39325 -0.57206,-0.14301 -1.17983,-0.32179 -1.75194,-0.46479 -0.39329,-0.0715 -0.78653,-0.17878 -1.14405,-0.25026 -0.67932,-0.143 -1.28715,-0.28601 -1.9307,-0.42902 -0.67927,-0.14301 -1.35859,-0.25025 -2.00219,-0.39326" />
    <g
       id="g27229"
       transform="matrix(35.753038,0,0,-35.753038,351.18447,100.97421)"
       style="fill:#005e70;fill-opacity:1">
      <path
         inkscape:connector-curvature="0"
         style="fill:#005e70;fill-opacity:1;fill-rule:nonzero;stroke:none"
         id="path27231"
         d="m 0,0 0,-0.655 0.425,0 c 0,0 0.009,0 0.023,0.001 0.014,0 0.034,0.001 0.059,0.003 0.046,0.004 0.107,0.013 0.166,0.033 0.053,0.018 0.105,0.045 0.145,0.085 0.015,0.015 0.028,0.031 0.038,0.047 0.033,0.052 0.042,0.106 0.044,0.136 0.001,0.013 0.001,0.021 0.001,0.021 0,0 0,0.006 0,0.016 C 0.9,-0.3 0.899,-0.276 0.892,-0.25 0.884,-0.219 0.869,-0.183 0.842,-0.149 0.837,-0.143 0.832,-0.137 0.826,-0.131 0.814,-0.119 0.801,-0.108 0.787,-0.098 0.764,-0.081 0.738,-0.066 0.709,-0.054 0.671,-0.037 0.628,-0.025 0.581,-0.016 0.557,-0.011 0.531,-0.008 0.505,-0.005 0.489,-0.004 0.473,-0.003 0.456,-0.002 0.442,-0.001 0.426,0 0.412,0 L 0,0 Z" />
    </g>
    <g
       id="g27233"
       transform="matrix(35.753038,0,0,-35.753038,351.18447,65.35704)"
       style="fill:#005e70;fill-opacity:1">
      <path
         inkscape:connector-curvature="0"
         style="fill:#005e70;fill-opacity:1;fill-rule:nonzero;stroke:none"
         id="path27235"
         d="m 0,0 0,-0.621 0.206,0 c 0,0 0.014,0 0.032,0.001 0.014,0 0.031,0.001 0.046,0.002 0.043,0.003 0.101,0.009 0.16,0.025 0.011,0.003 0.023,0.007 0.034,0.011 0.046,0.016 0.09,0.04 0.124,0.074 0.028,0.027 0.046,0.056 0.058,0.085 0.014,0.036 0.019,0.07 0.021,0.094 0.002,0.022 0.002,0.035 0.002,0.035 0,0 0.001,0.01 -0.001,0.027 -0.001,0.027 -0.007,0.071 -0.028,0.113 -0.01,0.02 -0.024,0.04 -0.043,0.059 -0.023,0.023 -0.052,0.04 -0.082,0.054 -0.058,0.025 -0.124,0.035 -0.18,0.039 C 0.325,0 0.303,0 0.284,0 L 0,0 Z" />
    </g>
    <g
       id="g27237"
       transform="matrix(35.753038,0,0,-35.753038,302.57464,35.23153)"
       style="fill:#005e70;fill-opacity:1">
      <path
         inkscape:connector-curvature="0"
         style="fill:#005e70;fill-opacity:1;fill-rule:nonzero;stroke:none"
         id="path27239"
         d="m 0,0 3.543,0 0,-3.334 L 0,-3.334 0,0 Z m 0.93,-0.467 0,-2.402 0.903,0 c 0,0 0.441,-0.012 0.685,0.231 0.198,0.199 0.183,0.428 0.183,0.428 0,0 0.015,0.239 -0.169,0.423 -0.156,0.156 -0.356,0.197 -0.356,0.197 0,0 0.091,0.043 0.16,0.112 0.032,0.032 0.148,0.137 0.148,0.39 0,0.254 -0.17,0.401 -0.17,0.401 0,0 -0.186,0.22 -0.605,0.22 l -0.779,0 z" />
    </g>
    <g
       id="g27241"
       transform="matrix(35.753038,0,0,-35.753038,205.21199,100.97421)"
       style="fill:#005e70;fill-opacity:1">
      <path
         inkscape:connector-curvature="0"
         style="fill:#005e70;fill-opacity:1;fill-rule:nonzero;stroke:none"
         id="path27243"
         d="m 0,0 0,-0.655 0.426,0 c 0,0 0.008,0 0.022,0.001 0.014,0 0.034,0.001 0.059,0.003 0.047,0.004 0.107,0.013 0.166,0.033 0.054,0.018 0.106,0.045 0.145,0.085 0.015,0.015 0.028,0.031 0.039,0.047 0.033,0.052 0.041,0.106 0.043,0.136 0.001,0.013 0.001,0.021 0.001,0.021 0,0 0,0.006 0,0.016 0,0.013 -0.002,0.037 -0.008,0.063 -0.009,0.031 -0.024,0.067 -0.05,0.101 -0.005,0.006 -0.011,0.012 -0.017,0.018 -0.012,0.012 -0.024,0.023 -0.038,0.033 -0.023,0.017 -0.05,0.032 -0.079,0.044 -0.038,0.017 -0.081,0.029 -0.128,0.038 -0.024,0.005 -0.049,0.008 -0.075,0.011 -0.017,0.001 -0.033,0.002 -0.05,0.003 C 0.442,-0.001 0.426,0 0.411,0 L 0,0 Z" />
    </g>
    <g
       id="g27245"
       transform="matrix(35.753038,0,0,-35.753038,205.21199,65.35704)"
       style="fill:#005e70;fill-opacity:1">
      <path
         inkscape:connector-curvature="0"
         style="fill:#005e70;fill-opacity:1;fill-rule:nonzero;stroke:none"
         id="path27247"
         d="m 0,0 0,-0.621 0.206,0 c 0,0 0.014,0 0.032,0.001 0.014,0 0.031,0.001 0.046,0.002 0.043,0.003 0.101,0.009 0.16,0.025 0.011,0.003 0.023,0.007 0.034,0.011 0.046,0.016 0.09,0.04 0.125,0.074 0.027,0.027 0.045,0.056 0.057,0.085 0.015,0.036 0.02,0.07 0.021,0.094 0.002,0.022 0.002,0.035 0.002,0.035 0,0 0.001,0.01 0,0.027 -0.002,0.027 -0.007,0.071 -0.029,0.113 -0.01,0.02 -0.024,0.04 -0.043,0.059 C 0.588,-0.072 0.56,-0.055 0.53,-0.041 0.472,-0.016 0.405,-0.006 0.349,-0.002 0.325,0 0.303,0 0.284,0 L 0,0 Z" />
    </g>
    <path
       inkscape:connector-curvature="0"
       style="fill:#005e70;fill-opacity:1;fill-rule:nonzero;stroke:none"
       id="path27249"
       d="m 156.62719,35.21723 126.673,0 0,119.20063 -126.673,0 0,-119.20063 z m 33.2146,16.73242 0,85.84304 32.3207,0 c 0,0 15.7671,0.46479 24.4551,-8.25895 7.0791,-7.0791 6.5785,-15.26655 6.5785,-15.26655 0,0 0.5006,-8.58072 -6.0422,-15.12353 -5.5775,-5.57748 -12.7281,-7.0791 -12.7281,-7.0791 0,0 3.2178,-1.50163 5.7205,-4.00434 1.1441,-1.1441 5.2557,-4.86242 5.2557,-13.90793 0,-9.11703 -6.0423,-14.37273 -6.0423,-14.37273 0,0 -6.6501,-7.82991 -21.6306,-7.82991 l -27.8873,0 z" />
    <g
       id="g27251"
       transform="matrix(35.753038,0,0,-35.753038,62.085392,271.35175)"
       style="fill:#005e70;fill-opacity:1">
      <path
         inkscape:connector-curvature="0"
         style="fill:#005e70;fill-opacity:1;fill-rule:nonzero;stroke:none"
         id="path27253"
         d="m 0,0 -1.803,0 0,0.947 4.653,0 0,-0.947 -1.803,0 0,-4.935 L 0,-4.935 0,0 Z" />
    </g>
    <g
       id="g27255"
       transform="matrix(35.753038,0,0,-35.753038,201.70099,237.48647)"
       style="fill:#005e70;fill-opacity:1">
      <path
         inkscape:connector-curvature="0"
         style="fill:#005e70;fill-opacity:1;fill-rule:nonzero;stroke:none"
         id="path27257"
         d="m 0,0 1.146,0 1.106,-4.237 0.016,0 1.321,4.237 1.03,0 1.296,-4.237 0.017,0 L 7.087,0 8.151,0 6.439,-5.883 l -0.997,0 -1.363,4.479 -0.016,0 -1.363,-4.479 -0.964,0 L 0,0 Z" />
    </g>
    <g
       id="g27259"
       transform="matrix(35.753038,0,0,-35.753038,621.12705,419.2871)"
       style="fill:#005e70;fill-opacity:1">
      <path
         inkscape:connector-curvature="0"
         style="fill:#005e70;fill-opacity:1;fill-rule:nonzero;stroke:none"
         id="path27261"
         d="M 0,0 C 1.221,0 2.027,0.93 2.027,2.185 2.027,3.356 1.221,4.287 0,4.287 -1.213,4.287 -2.019,3.356 -2.019,2.185 -2.019,0.93 -1.213,0 0,0 m -0.008,5.235 c 1.836,0.033 3.132,-1.197 3.132,-3.083 0,-1.837 -1.296,-3.066 -3.132,-3.099 -1.812,0 -3.108,1.229 -3.108,3.066 0,1.886 1.296,3.116 3.108,3.116" />
    </g>
    <path
       inkscape:connector-curvature="0"
       style="fill:#005e70;fill-opacity:1;fill-rule:nonzero;stroke:none"
       id="path15603"
       d="m 722.56035,156.69801 12.2218,-11.28462 -0.0767,85.22756 -12.14525,-12.85299 0,-24.17586 -47.93098,0 0,37.12448 -12.20267,-12.83386 0,-61.16646 12.20267,-11.32287 0,36.87584 47.93098,0 0,-25.59122 z" />
    <path
       inkscape:connector-curvature="0"
       style="fill:#ffffff;fill-rule:nonzero;stroke:none"
       id="path15607"
       d="m 734.7056,230.6027 0,0 12.2218,-10.88296 15.53073,0 c 6.10135,0 10.84467,-0.40166 14.2301,-1.18584 3.40452,-0.8607 6.19695,-1.91265 8.4539,-3.175 2.27604,-1.31973 4.32257,-2.92635 6.21614,-4.78162 6.0248,-6.10134 9.02766,-13.82844 9.02766,-23.16215 0,-9.16158 -3.0985,-16.6209 -9.27631,-22.37797 -2.27609,-2.1613 -4.89643,-3.95918 -7.88015,-5.33629 -2.92635,-1.39623 -5.71883,-2.29518 -8.37739,-2.73509 -2.62029,-0.43994 -6.8664,-0.66942 -12.75739,-0.66942 l -15.24374,0 -12.10708,-10.88297 28.65145,0 c 11.59063,0 20.79048,1.75964 27.52301,5.24066 6.77076,3.48102 12.1453,8.58779 16.14271,15.35856 3.95919,6.75164 5.98658,14.11533 5.98658,22.11019 0,5.68057 -1.12843,11.13161 -3.30887,16.35314 -2.21863,5.2024 -5.35541,9.79275 -9.41024,13.75193 -4.13128,4.07394 -8.97024,7.13417 -14.45956,9.19984 -3.21328,1.26234 -6.197,2.12303 -8.85556,2.56294 -2.67771,0.4208 -7.82273,0.61205 -15.41595,0.61205 l -26.89184,0 26.89184,0 c 7.59322,0 12.73824,-0.19129 15.41595,-0.61205 2.65856,-0.43994 5.64228,-1.3006 8.85556,-2.56294 5.48932,-2.06567 10.32828,-5.1259 14.45956,-9.19984 4.05483,-3.95918 7.19161,-8.54953 9.41024,-13.75193 2.18044,-5.22153 3.30887,-10.67257 3.30887,-16.35314 0,-7.99486 -2.02739,-15.35855 -5.98658,-22.11019 -3.99741,-6.77077 -9.37195,-11.87754 -16.14271,-15.35856 -6.73253,-3.48102 -15.93238,-5.24066 -27.52301,-5.24066 l -28.65145,0 12.10708,10.88297 15.24374,0 c 5.89099,0 10.1371,0.22951 12.75739,0.66942 2.65856,0.43994 5.45104,1.33886 8.37739,2.73509 2.98372,1.37711 5.60406,3.17499 7.88015,5.33629 6.17781,5.75707 9.27631,13.21639 9.27631,22.37797 0,9.33371 -3.00286,17.06081 -9.02766,23.16215 -1.89357,1.85527 -3.9401,3.46189 -6.21614,4.78162 -2.25695,1.26235 -5.04938,2.3143 -8.4539,3.175 -3.38543,0.78418 -8.12875,1.18584 -14.2301,1.18584 l -15.53073,0 -12.2218,10.88296 z" />
    <path
       inkscape:connector-curvature="0"
       style="fill:#005e70;fill-opacity:1;fill-rule:nonzero;stroke:none"
       id="path15611"
       d="m 734.7056,230.6027 12.2218,-10.88296 15.53073,0 c 6.10135,0 10.84467,-0.40166 14.2301,-1.18584 3.40452,-0.8607 6.19695,-1.91265 8.4539,-3.175 2.27604,-1.31973 4.32257,-2.92635 6.21614,-4.78162 6.0248,-6.10134 9.02766,-13.82844 9.02766,-23.16215 0,-9.16158 -3.0985,-16.6209 -9.27631,-22.37797 -2.27609,-2.1613 -4.89643,-3.95918 -7.88015,-5.33629 -2.92635,-1.39623 -5.71883,-2.29518 -8.37739,-2.73509 -2.62029,-0.43994 -6.8664,-0.66942 -12.75739,-0.66942 l -15.24374,0 -12.10708,-10.88297 28.65145,0 c 11.59063,0 20.79048,1.75964 27.52301,5.24066 6.77076,3.48102 12.1453,8.58779 16.14271,15.35856 3.95919,6.75164 5.98658,14.11533 5.98658,22.11019 0,5.68057 -1.12843,11.13161 -3.30887,16.35314 -2.21863,5.2024 -5.35541,9.79275 -9.41024,13.75193 -4.13128,4.07394 -8.97024,7.13417 -14.45956,9.19984 -3.21328,1.26234 -6.197,2.12303 -8.85556,2.56294 -2.67771,0.4208 -7.82273,0.61205 -15.41595,0.61205 l -26.89184,0 z" />
    <path
       inkscape:connector-curvature="0"
       style="fill:#407c89;fill-opacity:1;fill-rule:nonzero;stroke:none"
       id="path15615"
       d="m 746.9274,156.37287 -12.20266,-10.95948 0,85.18931 12.20266,-10.88296 0,-26.10764 0,-11.32287 0,-25.91636 z" />
    <path
       inkscape:connector-curvature="0"
       style="fill:#407c89;fill-opacity:1;fill-rule:nonzero;stroke:none"
       id="path15619"
       d="m 674.61023,193.6121 -0.0401,37.0671 12.22185,-10.99772 -0.0401,-26.06938 -12.14535,0 z" />
    <path
       inkscape:connector-curvature="0"
       style="fill:#407c89;fill-opacity:1;fill-rule:nonzero;stroke:none"
       id="path15623"
       d="m 687.08068,182.28923 -0.22946,-25.55297 -12.22185,-11.32287 0,36.87584 12.45131,0 z" />
  </g>
</svg>
