<svg height="296.19427" width="1053.3354" xmlns="http://www.w3.org/2000/svg"><g fill="#c80201" transform="matrix(2.5818855 0 0 2.5818855 486.991844 -51.067614)"><path d="m-22.598633 123.13947v6.40015h11.279297l.760498 4.47998h-17.159424v-25.88013h17.239991l-.841065 4.4397h-11.279297v6.08032h10.240479v4.47998z"/><path d="m12.522217 134.0196h-4.8400881c-.1066247-.507-.2132327-1.34684-.3198242-2.51953-.7739415.95947-1.707575 1.69922-2.8009033 2.21924-1.0933557.52002-2.1730665.78003-3.2391358.78003-2.3470132 0-4.3070536-.73324-5.8801269-2.19971-2.0800806-1.86686-3.1201186-4.56013-3.1201172-8.07983-.0000014-3.81347 1.226804-6.65363 3.6804199-8.52051 1.5999282-1.22638 3.38622201-1.83958 5.3588867-1.8396 2.5602084.00002 4.5202487.98675 5.880127 2.9602v-2.48046h4.8803709v14.16015c-.000021 2.26644.133442 4.10645.400391 5.52002zm-13.7609865-5.47974c.90738054.98634 2.14761368 1.4795 3.7207031 1.4795 1.5730663 0 2.8128925-.49316 3.7194824-1.4795.9065594-1.04003 1.3598467-2.48005 1.3598633-4.32006-.0000166-1.89371-.4533039-3.36059-1.3598633-4.40064-.9065899-.98631-2.1464161-1.47947-3.7194824-1.47949-1.57308942.00002-2.8131191.49338-3.7200928 1.4801-.9069893.98675-1.3604801 2.45342-1.3604736 4.40003-.0000065 1.89291.4532808 3.33293 1.3598633 4.32006z"/><path d="m15.911849 132.54011 1.599121-3.56079c1.760249 1.1735 3.453769 1.76026 5.080566 1.76025.906567.00001 1.633291-.18656 2.180176-.55969.546864-.37312.820301-.89335.820313-1.56067-.000012-.55989-.233369-1.03983-.700074-1.43982-.466725-.39998-1.046762-.72-1.740112-.96008-.693367-.24007-1.446744-.53995-2.260132-.89966-.813401-.35969-1.566777-.73953-2.260132-1.13953-.693363-.39997-1.273399-.99343-1.740112-1.78039-.466718-.78694-.700075-1.70043-.700073-2.74048-.000002-1.83999.720009-3.26658 2.160034-4.27979 1.440017-1.01316 3.146762-1.51975 5.120239-1.51977 2.34618.00002 4.385973.61322 6.119385 1.8396l-1.599121 3.40088c-1.413587-1.01398-2.853608-1.52098-4.320068-1.521-.799976.00002-1.406665.20001-1.820069.59998-.413418.4-.620124.85349-.620117 1.36047-.000007.55991.313307 1.05328.939941 1.4801.62662.42686 1.379996.80019 2.260132 1.12.880116.31983 1.760039.69317 2.639771 1.11999.879706.42685 1.632879 1.05348 2.259521 1.87989.626612.82642.939926 1.82638.939942 2.99987-.000016 2.02638-.733251 3.59294-2.199707 4.69971-1.466484 1.10677-3.293061 1.66016-5.479737 1.66016-1.093757 0-2.300624-.19328-3.620605-.57984-1.31999-.38655-2.339683-.84635-3.059082-1.37939z"/><path d="m45.778792 130.30012.440674 3.51929c-1.173516.45328-2.400322.67993-3.68042.67993-2.826343 0-4.866543-.82642-6.120605-2.47925-.986332-1.36067-1.479496-3.32071-1.479493-5.88013v-8.07983h-3.1604v-3.7207h3.1604v-5.75928h4.880371v5.75928h5.040284v3.7207h-5.040284v7.35962c-.000008 1.89291.253084 3.21289.759278 3.95996.533844.82683 1.427398 1.24024 2.680664 1.24023.95946.00001 1.799303-.1066 2.519531-.31982z"/><path d="m71.889319 121.89924 9.039307-13.75977h3.720703l.999756 25.88013h-4.520264l-.679932-17.71973-7.399902 11.67969h-2.120361l-7.839356-11.60034-.520019 17.64038h-4.560547l.960693-25.88013h3.800049z"/><path d="m90.388763 128.49958v-14.16015h4.880371v14.16015c-.000008 2.26644.133455 4.10645.40039 5.52002h-4.840088c-.293785-1.35986-.440676-3.19987-.440673-5.52002zm.360107-17.08008c-.559898-.55987-.839846-1.26645-.839844-2.11975-.000002-.85324.286659-1.56654.859986-2.13989.573319-.5733 1.273392-.85996 2.100219-.85999.852859.00003 1.566156.28669 2.139893.85999.573722.57335.860587 1.28644.860596 2.13928-.000009.82685-.286874 1.52692-.860596 2.10022-.573737.57335-1.287238.86001-2.140503.85999-.853276.00002-1.559859-.27993-2.119751-.83985z"/><path d="m119.73749 134.0196h-4.88037c-.16034-.93343-.25352-1.77327-.27955-2.51953-.77394.95947-1.70757 1.69922-2.8009 2.21924-1.09335.52002-2.17307.78003-3.23913.78003-2.34702 0-4.32049-.71981-5.92041-2.15943-2.05323-1.89371-3.079836-4.61384-3.079836-8.1604 0-3.84031 1.226806-6.68048 3.680416-8.5205 1.57307-1.19953 3.35937-1.7993 5.35889-1.79932 1.2272.00002 2.35411.26003 3.38074.78003 1.02659.52004 1.85972 1.23333 2.49939 2.13989v-8.64014h4.88037v20.40039c-.00003 2.23959.13344 4.06617.40039 5.47974zm-10.04029-4.00024c1.57307 0 2.8129-.47973 3.71949-1.43921.90656-1.04003 1.35984-2.49348 1.35986-4.36035-.00002-1.91975-.4533-3.39965-1.35986-4.4397-.93345-.98713-2.17328-1.4807-3.71949-1.48071-1.57309.00001-2.81291.49358-3.71948 1.48071-.9074 1.04005-1.36109 2.50672-1.36108 4.40002-.00001 1.89332.45368 3.36 1.36108 4.40003.87971.95948 2.11954 1.43921 3.71948 1.43921z"/><path d="m124.672 128.53986v-20.40039h4.88037v20.40039c0 2.42677.13305 4.25334.39917 5.47974h-4.87915c-.26693-1.41357-.40039-3.24015-.40039-5.47974z"/><path d="m153.68005 134.0196h-4.84009c-.10663-.507-.21323-1.34684-.31983-2.51953-.77394.95947-1.70757 1.69922-2.8009 2.21924-1.09335.52002-2.17307.78003-3.23913.78003-2.34702 0-4.30706-.73324-5.88013-2.19971-2.08008-1.86686-3.12012-4.56013-3.12012-8.07983 0-3.81347 1.22681-6.65363 3.68042-8.52051 1.59993-1.22638 3.38622-1.83958 5.35889-1.8396 2.56021.00002 4.52025.98675 5.88013 2.9602v-2.48046h4.88037v14.16015c-.00003 2.26644.13344 4.10645.40039 5.52002zm-13.76099-5.47974c.90738.98634 2.14761 1.4795 3.7207 1.4795 1.57307 0 2.8129-.49316 3.71949-1.4795.90656-1.04003 1.35984-2.48005 1.35986-4.32006-.00002-1.89371-.4533-3.36059-1.35986-4.40064-.90659-.98631-2.14642-1.47947-3.71949-1.47949-1.57309.00002-2.81312.49338-3.72009 1.4801-.90699.98675-1.36048 2.45342-1.36047 4.40003-.00001 1.89291.45328 3.33293 1.35986 4.32006z"/><path d="m178.73986 134.0196h-4.87915c-.26694-1.41357-.40041-3.24015-.40039-5.47974v-4.16015c-.00002-2.53336-.37314-4.17357-1.11938-4.92066-.8008-.77309-1.86769-1.15965-3.20069-1.15966-1.54623.00001-2.83936.53346-3.87939 1.60034-.50701.55991-.84046 1.26649-1.00037 2.11975-.15992.85328-.23987 2.00013-.23987 3.44055v8.55957h-4.88037v-14.16015c0-2.26643-.13346-4.10643-.40039-5.52002h4.76074c.26611.9603.43945 1.93361.52002 2.91992h.0403c.47932-.95946 1.30573-1.76593 2.47924-2.41944 1.1735-.65346 2.49348-.9802 3.95997-.98022 2.42674.00002 4.32004.70681 5.67993 2.12036.7739.77313 1.32749 1.72629 1.66076 2.8595.33323 1.13323.49986 2.7.49988 4.70031v5c-.00002 2.23959.13304 4.06617.39917 5.47974z"/><path d="m201.52886 134.0196h-4.88037c-.16034-.93343-.25352-1.77327-.27955-2.51953-.77394.95947-1.70757 1.69922-2.8009 2.21924-1.09335.52002-2.17307.78003-3.23913.78003-2.34702 0-4.32049-.71981-5.92041-2.15943-2.05323-1.89371-3.07984-4.61384-3.07984-8.1604 0-3.84031 1.22681-6.68048 3.68042-8.5205 1.57307-1.19953 3.35937-1.7993 5.35889-1.79932 1.2272.00002 2.35411.26003 3.38074.78003 1.02659.52004 1.85972 1.23333 2.49939 2.13989v-8.64014h4.88037v20.40039c-.00003 2.23959.13344 4.06617.40039 5.47974zm-10.04029-4.00024c1.57307 0 2.8129-.47973 3.71949-1.43921.90656-1.04003 1.35984-2.49348 1.35986-4.36035-.00002-1.91975-.4533-3.39965-1.35986-4.4397-.93345-.98713-2.17328-1.4807-3.71949-1.48071-1.57309.00001-2.81291.49358-3.71948 1.48071-.9074 1.04005-1.36109 2.50672-1.36108 4.40002-.00001 1.89332.45368 3.36 1.36108 4.40003.87971.95948 2.11954 1.43921 3.71948 1.43921z"/><path d="m204.99359 132.54011 1.59912-3.56079c1.76025 1.1735 3.45377 1.76026 5.08057 1.76025.90657.00001 1.63329-.18656 2.18018-.55969.54686-.37312.8203-.89335.82031-1.56067-.00001-.55989-.23337-1.03983-.70008-1.43982-.46672-.39998-1.04676-.72-1.74011-.96008-.69337-.24007-1.44674-.53995-2.26013-.89966-.8134-.35969-1.56678-.73953-2.26013-1.13953-.69336-.39997-1.2734-.99343-1.74011-1.78039-.46672-.78694-.70008-1.70043-.70008-2.74048 0-1.83999.72001-3.26658 2.16004-4.27979 1.44001-1.01316 3.14676-1.51975 5.12024-1.51977 2.34618.00002 4.38597.61322 6.11938 1.8396l-1.59912 3.40088c-1.41359-1.01398-2.85361-1.52098-4.32007-1.521-.79997.00002-1.40666.20001-1.82007.59998-.41342.4-.62012.85349-.62011 1.36047-.00001.55991.3133 1.05328.93994 1.4801.62662.42686 1.37999.80019 2.26013 1.12.88012.31983 1.76004.69317 2.63977 1.11999.87971.42685 1.63288 1.05348 2.25952 1.87989.62661.82642.93993 1.82638.93994 2.99987-.00001 2.02638-.73325 3.59294-2.1997 4.69971-1.46649 1.10677-3.29306 1.66016-5.47974 1.66016-1.09376 0-2.30063-.19328-3.62061-.57984-1.31999-.38655-2.33968-.84635-3.05908-1.37939z"/></g><g fill="#c80201" transform="matrix(4.51035129 0 0 4.51035129 -233.09236 -171.620945)"><path d="m523.9375 922.28125c-1.15419-.0146-2.32654-.004-3.5.0312-14.88451.45302-28.0053 5.04172-38.78125 13.5625-5.90469 4.66872-12.06132 12.32642-15.625 19.40625-9.60474 19.08365-9.76567 44.9614-.40625 64.0938 3.21032 6.5627 6.43814 11.0851 11.5 16.1562 10.24593 10.2652 22.98778 15.9839 39.40625 17.6563 2.52128.2568 13.98285-.07 16.53125-.4687 14.10217-2.2101 25.43144-7.5786 34.46875-16.3126 10.51172-10.1591 16.56015-22.6664 18.75-38.78125.56228-4.13954.62726-14.57506.125-18.6875-1.97914-16.20536-8.27658-29.5089-18.71875-39.59375-11.35373-10.96517-26.43721-16.84281-43.75-17.0625zm-.53125 23.53125c3.20184.0287 6.3931.34319 9.28125.9375 15.02958 3.09231 24.61977 13.54382 27.40625 29.875 1.11013 6.50339 1.10984 15.7651 0 22.34375-3.03001 17.96085-14.4014 28.79185-32.09375 30.62505-2.79731.2898-7.8402.269-10.6875-.031-9.07734-.9578-16.25627-4.1745-21.875-9.8125-5.53324-5.5522-8.7497-12.493-10.28125-22.25-.64654-4.12027-.64201-15.00806 0-19.28125.55029-3.66845 1.6478-7.97674 2.6875-10.59375 3.86109-9.71972 10.88703-16.47052 20.5625-19.71875 4.25577-1.42887 9.6636-2.14155 15-2.09375z" transform="matrix(.34004134 0 0 .34004134 -17.938189 -275.55444)"/><path d="m794.375 922.375c-6.99224-.0197-8.89202.13973-14.03125 1.15625-21.75512 4.30299-38.52662 19.20763-45.5625 40.4375-3.25275 9.81544-4.5201 20.158-3.6875 30.375 1.82387 22.38005 11.84677 39.75415 28.8125 50.00005 8.00032 4.8312 16.19448 7.4286 28.03125 8.8437.48641.058 4.18968.071 8.21875.031 5.76774-.057 8.18741-.1904 11.46875-.625 14.74697-1.9512 27.55475-6.3905 37.875-13.0938 2.74646-1.7838 5.59375-3.8902 5.59375-4.1562 0-.1141-2.12824-4.1223-4.71875-8.9063l-4.71875-8.6875-1.375.9062c-19.00057 12.1544-46.94574 15.4306-63.6875 7.5-10.43523-4.9432-16.50463-13.5099-18.8125-26.56245l-.15625-.8125h48.75 48.75l.125-.5625c.75164-3.21964 1.0864-12.06384.65625-17.25-.61107-7.35797-1.60599-12.39325-3.6875-18.71875-6.48442-19.70705-20.8942-33.07633-40.9375-38-5.92425-1.4554-9.37431-1.85393-16.90625-1.875zm-2.0625 23.25c3.70033-.0689 7.90503.14657 10.40625.59375 7.29655 1.30429 12.80517 3.90101 17.46875 8.21875 5.55338 5.14131 9.10337 12.95514 9.59375 21.15625l.15625 2.71875h-36.1875-36.1875l.15625-1.5c.57764-5.526 2.81892-11.73063 6-16.5625 1.84131-2.79672 6.09765-7.01197 9-8.90625 3.97943-2.59624 8.66132-4.36075 13.9375-5.28125 1.37409-.23987 3.43605-.39614 5.65625-.4375z" transform="matrix(.34004134 0 0 .34004134 -17.938189 -275.55444)"/><path d="m194.16171 70.954681c0-6.488717.0341-10.978812.0886-11.659793.34852-4.349149 1.45716-7.153833 3.73347-9.444583 2.41962-2.434971 5.67385-3.590991 9.7058-3.447998 3.23161.11464 5.4849 1.003405 7.25916 2.862926 1.39287 1.459917 2.22094 3.166003 2.70427 5.5717.35303 1.75788.38803 2.564043.43441 10.049922.0606 9.752985.22282 12.919194.82622 16.126142l.0931.493974h4.1824 4.18231l-.1566-.966352c-.16275-1.003098-.34126-2.624331-.50811-4.61671-.0581-.694595-.12395-4.947222-.16408-10.607666-.066-9.339565-.0889-10.055552-.39059-12.196553-.44945-3.191594-1.52154-6.09843-3.02311-8.197466-1.23422-1.725431-3.27922-3.586487-5.04129-4.588459-4.41875-2.512557-10.40264-2.990769-15.50862-1.239237-1.85123.634921-3.54504 1.569952-5.0329 2.778174-.93329.757852-2.31879 2.178362-2.90725 2.980739-.23336.318433-.44719.578931-.47514.578931-.0278 0-.0969-.434915-.15343-.966353-.1609-1.513757-.50789-3.398559-.88559-4.809858l-.0864-.322116h-4.10709-4.10707l.10829.622739c.36624 2.108555.61128 4.985196.72572 8.523677.0459 1.417747.084 9.428718.0848 17.802134l.001 15.224376h4.20872 4.20871v-10.55229z"/><g transform="matrix(1.9913537 0 0 1.9913537 -933.16944 -2271.4564)"><path d="m494.5625 1160.375v5.3438 5.3437h5.6875 5.6875v-5.3437-5.3438h-5.6875zm2.96875 1.5h1.5c1.35533 0 1.54326.017 1.84375.094.97214.2486 1.603.9247 1.65625 1.7812.0453.7275-.20813 1.2313-.78125 1.5938l-.1875.125.21875.062c.55564.1957 1.0114.6109 1.25 1.0938.15923.3222.1875.3209.1875.8125 0 .4908-.0299.525-.1875.8437-.35502.7184-.97389 1.1001-1.96875 1.25-.30069.045-.82817.062-1.96875.063h-1.5625v-3.8438-3.875zm1.375 1.2188v.9687 1h .5c.26687-.0004.5924-.029.75-.062.69401-.1471.98232-.4735.9375-1.0938-.0248-.3414-.13516-.5456-.4375-.6874-.2258-.1058-.30306-.1116-1-.125h-.75zm0 3.1874v1.0626 1.0312h.75c.40925-.0005.8678-.01 1.03125-.031.71945-.104 1.125-.4676 1.125-1.0313 0-.3566-.14015-.5707-.4375-.75-.35821-.216-.68092-.2813-1.625-.2813h-.84375z"/><path d="m507.65625 1160.375v5.3438 5.3437h5.71875 5.71875v-5.3437-5.3438h-5.71875zm3.03125 1.5h1.46875c1.66569.0009 1.88068.022 2.40625.2812.79316.3919 1.22179 1.1747 1.09375 2-.0268.1729-.0801.3987-.125.5-.099.2239-.41791.5761-.625.6876-.15682.084-.19815.1562-.0937.1562.14444 0 .74737.3498.96875.5625.48764.4686.69846 1.2158.53125 1.8437-.20822.7823-.81127 1.3193-1.75 1.5626-.32753.085-.50557.1077-2.125.125h-1.75v-3.8438-3.875zm1.375 1.2188v1 1l .625-.031c.3652-.014.68826-.055.8125-.094.50655-.1594.75519-.4627.75-.9688-.003-.3177-.0806-.4875-.28125-.6562-.22416-.1887-.51605-.25-1.25-.25zm0 3.1874v1.0626 1.0624l.9375-.031c.79435-.017.93158-.011 1.1875-.094.72989-.2364.99452-1.0348.53125-1.5624-.30393-.3461-.71041-.4365-1.84375-.4376z"/><path d="m520.8125 1160.375v5.3438 5.3437h5.71875 5.6875v-5.3437-5.3438h-5.6875zm5.9375 1.4062c.82889-.046 1.64553.079 2.65625.4376l.46875.1874v.7188c0 .3889.009.6875 0 .6875s-.26144-.09-.53125-.2187c-.95914-.4564-1.59026-.6264-2.46875-.5938-.45988.017-.62123.039-.96875.1562-.52537.1776-.86336.3915-1.21875.75-.48178.486-.71993 1.1206-.71875 1.8438.002.768.23851 1.3405.75 1.8438.57394.5645 1.32032.8393 2.28125.8437.85161 0 1.56708-.1856 2.46875-.6563l.5-.25v.7188.7188l-.28125.1562c-.809.3728-1.50262.5083-2.5.5312-.40334.01-.85073.021-1 0-1.55487-.219-2.81263-1.1353-3.375-2.4687-.33734-.8-.36936-1.7362-.0937-2.5937.43999-1.3691 1.67462-2.4154 3.1875-2.7188.28557-.057.56745-.079.84375-.094z"/></g></g></svg>