<svg fill-rule="evenodd" height="365.58466" viewBox="0 0 320.51249 124.3139" width="948.04315" xmlns="http://www.w3.org/2000/svg"><g transform="translate(-3.439405 13.0473)"><path d="m39.981537 33.057093h227.8277v47.605785h-227.8277z" fill="#fff" fill-rule="nonzero"/><path d="m327.68903-16.958973-.39117 132.137243-326.67670222-1.4284-1.17350196-129.926509zm-174.36166 96.327752c4.79532-.751505 8.642-2.570799 11.71506-5.540687 3.57442-3.454548 5.63016-7.70738 6.3748-13.187062.1912-1.407614.21709-4.957457.0463-6.355858-.67299-5.510491-2.81256-10.039073-6.36333-13.468339-4.11812-3.977184-9.68307-5.981641-16.06749-5.787367-5.06135.154047-9.52012 1.713252-13.18439 4.610671-2.00784 1.587557-4.10606 4.191417-5.31786 6.598853-3.26601 6.489229-3.32241 15.282924-.13982 21.788736 1.09164 2.231587 2.18961 3.775745 3.91085 5.500153 3.48404 3.490579 7.81701 5.430448 13.39997 5.999144.85734.08731 4.75939-.02252 5.62595-.158244zm-5.35839-7.870639c-3.08667-.3257-5.52901-1.421636-7.43961-3.338784-1.88153-1.887974-2.96867-4.243414-3.48946-7.561213-.21985-1.401063-.22231-5.108433-.004-6.561494.18712-1.247425.55785-2.712972.91139-3.602864 1.31293-3.305108 3.70574-5.597393 6.9958-6.701927 2.31542-.777401 5.63219-.937794 8.2511-.398885 5.11068 1.051513 8.37352 4.608624 9.32104 10.161901.37749 2.211423.37729 5.355932-.0001 7.592944-1.03033 6.107438-4.8893 9.793621-10.90543 10.416975-.9512.09857-2.67233.0954-3.64053-.0067zm98.72271 7.828163c5.01458-.663478 9.36997-2.167207 12.87928-4.446595.93391-.606567 1.89422-1.323066 1.89422-1.41355 0-.03879-.7208-1.40137-1.60168-3.02813l-1.60169-2.957708-.4738.303182c-6.46098 4.132971-15.95808 5.255418-21.65097 2.55872-3.54841-1.680906-5.61346-4.597058-6.39823-9.035462l-.0493-.27923h16.57324 16.57343l.0451-.193147c.25559-1.094811.37034-4.098681.22407-5.862191-.20779-2.502014-.54536-4.217722-1.25316-6.368652-2.20497-6.701211-7.09958-11.245965-13.91513-12.920218-2.01449-.494896-3.19354-.624275-5.75471-.63144-2.37765-.0067-3.01943.04596-4.76698.391618-7.39764 1.463193-13.10691 6.526487-15.4994 13.745522-1.10607 3.337657-1.53178 6.861194-1.24866 10.335395.62019 7.610142 4.02181 13.516857 9.79086 17.000884 2.72044 1.64283 5.50896 2.520849 9.53395 3.00203.1654.01975 1.42142.02487 2.79147.01126 1.96127-.01935 2.7923-.06448 3.90809-.212288zm-16.97774-25.765618c.19642-1.87907.96195-3.988643 2.04365-5.631678.62612-.950999 2.07519-2.383792 3.06211-3.027924 1.35317-.88283 2.94788-1.488886 4.742-1.801893 1.24599-.217509 4.09429-.189258 5.45512.05404 2.48113.443513 4.35734 1.325523 5.94315 2.793732 1.88838 1.748258 3.09456 4.41128 3.26131 7.199997l.0552.923464h-12.30793-12.30781zm-45.55143 14.350763c0-6.488717.0341-10.978812.0886-11.659793.34852-4.349149 1.45716-7.153833 3.73347-9.444583 2.41962-2.434971 5.67385-3.590991 9.7058-3.447998 3.23161.11464 5.4849 1.003405 7.25916 2.862926 1.39287 1.459917 2.22094 3.166003 2.70427 5.5717.35303 1.75788.38803 2.564043.43441 10.049922.0606 9.752985.22282 12.919194.82622 16.126142l.0931.493974h4.1824 4.18231l-.1566-.966352c-.16275-1.003098-.34126-2.624331-.50811-4.61671-.0581-.694595-.12395-4.947222-.16408-10.607666-.066-9.339565-.0889-10.055552-.39059-12.196553-.44945-3.191594-1.52154-6.09843-3.02311-8.197466-1.23422-1.725431-3.27922-3.586487-5.04129-4.588459-4.41875-2.512557-10.40264-2.990769-15.50862-1.239237-1.85123.634921-3.54504 1.569952-5.0329 2.778174-.93329.757852-2.31879 2.178362-2.90725 2.980739-.23336.318433-.44719.578931-.47514.578931-.0278 0-.0969-.434915-.15343-.966353-.1609-1.513757-.50789-3.398559-.88559-4.809858l-.0864-.322116h-4.10709-4.10707l.10829.622739c.36624 2.108555.61128 4.985196.72572 8.523677.0459 1.417747.084 9.428718.0848 17.802134l.001 15.224376h4.20872 4.20871v-10.55229zm-119.819112-21.056064v-10.65045h-11.337574-11.337881v10.65045 10.650553h11.337881 11.337574zm-16.748882.04309v-7.68742h2.992407c2.698949 0 3.057608.01669 3.655987.169709 1.935878.495202 3.186374 1.842937 3.292415 3.548614.09018 1.448761-.4169 2.495771-1.55818 3.217592l-.335321.212084.43082.151796c1.106479.38957 2.018582 1.168712 2.493724 2.130356.317102.641676.322936.670848.322936 1.649893 0 .977406-.0062 1.00924-.319968 1.643955-.706979 1.430439-1.945704 2.227187-3.926824 2.525864-.598788.09028-1.663096.123954-3.934399.124261l-3.113597.000513zm6.303758 5.193288c1.432691-.207068 2.19955-.918962 2.19955-2.041408 0-.71005-.260805-1.179767-.852941-1.536788-.713326-.430104-1.3853-.541469-3.265291-.541469h-1.636483v2.104358 2.104357l1.481617-.0017c.814967-.001 1.748053-.04023 2.073548-.08731zm-1.052025-6.648599c1.382024-.292946 1.949696-.964101 1.860441-2.199242-.04934-.679856-.318331-1.077513-.920394-1.359916-.449655-.210651-.573711-.226823-1.96157-.253538l-1.481617-.02866v1.982656 1.982655l.96625-.0015c.531437-.00082 1.223063-.05589 1.53689-.122419zm37.694196 1.412219v-10.65045h-11.380666-11.380666v10.65045 10.650553h11.380666 11.380666zm-16.748882.05046v-7.694791l2.941741.0015c3.31698.0017 3.71126.04852 4.757861.565727 1.579471.78037 2.437324 2.350424 2.182352 3.99397-.05333.344227-.170116.790811-.259474.992658-.197139.445765-.8338 1.143431-1.246197 1.365443-.31229.168172-.391516.295606-.183628.295606.287623 0 1.522049.717831 1.9629 1.141486.971061.933086 1.395638 2.386249 1.062671 3.636744-.414648 1.557772-1.640886 2.654015-3.510232 3.138471-.652218.168991-.983037.18629-4.207896.220682l-3.500098.03726v-7.694789zm6.98689 5.023989c1.453469-.470945 1.991457-2.012647 1.068914-3.063342-.605237-.689169-1.439856-.890915-3.696726-.892962l-1.610587-.0014v2.113979 2.113775l1.82523-.03971c1.581825-.0346 1.903533-.0653 2.413169-.230302zm-1.374041-6.563546c1.008728-.317409 1.476909-.938712 1.466571-1.946519-.0064-.632668-.153126-.982831-.552625-1.31887-.446379-.375649-1.001051-.484865-2.462607-.484865h-1.315697v1.987364 1.987364l1.223985-.04668c.727246-.02794 1.392976-.100003 1.640373-.177794zm37.247098 1.489094v-10.65045h-11.33767-11.33768v10.65045 10.650553h11.33768 11.33767zm-12.00698 7.816084c-3.0963-.436144-5.560858-2.243256-6.680746-4.8985-.671769-1.593084-.74086-3.442982-.192022-5.150706.876176-2.726279 3.294778-4.797678 6.307448-5.401891 2.27468-.456308 4.28425-.255278 6.96785.696642l.96635.342589v1.40833c0 .774535-.0145 1.408329-.0324 1.408329-.0178 0-.47197-.209217-1.00925-.464803-1.90998-.908725-3.22138-1.21119-4.97076-1.146295-.91579.03398-1.19297.08004-1.88501.314133-1.04619.353541-1.71334.759694-2.42104 1.473736-.9594.967786-1.44979 2.2017-1.44744 3.641862.003 1.529316.47289 2.695367 1.49144 3.697443 1.14292 1.124186 2.64911 1.682748 4.56267 1.691449 1.69586.0078 3.12179-.371761 4.91734-1.308941l.96625-.504416v1.443745 1.443644l-.58774.270939c-1.611.742395-2.9661 1.039435-4.95223 1.085189-.8032.01853-1.70343-.000512-2.00067-.04248z" fill="#c90302"/></g><g fill-rule="nonzero" transform="matrix(.5349091 0 0 .5349091 131.544915 -533.632731)"><g fill="#fff"><path d="m251.02923 1066.9985 4.473-4.13-.028 31.192-4.445-4.704v-8.848h-17.542v13.587l-4.466-4.697v-22.386l4.466-4.144v13.496h17.542z"/><path d="m255.47423 1094.0465 4.473-3.983h5.684c2.233 0 3.969-.147 5.208-.434 1.246-.315 2.268-.7 3.094-1.162.833-.483 1.582-1.071 2.275-1.75 2.205-2.233 3.304-5.061 3.304-8.477 0-3.353-1.134-6.083-3.395-8.19-.833-.791-1.792-1.449-2.884-1.953-1.071-.511-2.093-.84-3.066-1.001-.959-.161-2.513-.245-4.669-.245h-5.579l-4.431-3.983h10.486c4.242 0 7.609.644 10.073 1.918 2.478 1.274 4.445 3.143 5.908 5.621 1.449 2.471 2.191 5.166 2.191 8.092 0 2.079-.413 4.074-1.211 5.985-.812 1.904-1.96 3.584-3.444 5.033-1.512 1.491-3.283 2.611-5.292 3.367-1.176.462-2.268.777-3.241.938-.98.154-2.863.224-5.642.224h-9.842 9.842c2.779 0 4.662-.07 5.642-.224.973-.161 2.065-.476 3.241-.938 2.009-.756 3.78-1.876 5.292-3.367 1.484-1.449 2.632-3.129 3.444-5.033.798-1.911 1.211-3.906 1.211-5.985 0-2.926-.742-5.621-2.191-8.092-1.463-2.478-3.43-4.347-5.908-5.621-2.464-1.274-5.831-1.918-10.073-1.918h-10.486l4.431 3.983h5.579c2.156 0 3.71.084 4.669.245.973.161 1.995.49 3.066 1.001 1.092.504 2.051 1.162 2.884 1.953 2.261 2.107 3.395 4.837 3.395 8.19 0 3.416-1.099 6.244-3.304 8.477-.693.679-1.442 1.267-2.275 1.75-.826.462-1.848.847-3.094 1.162-1.239.287-2.975.434-5.208.434h-5.684z"/><path d="m255.47423 1094.0465 4.473-3.983h5.684c2.233 0 3.969-.147 5.208-.434 1.246-.315 2.268-.7 3.094-1.162.833-.483 1.582-1.071 2.275-1.75 2.205-2.233 3.304-5.061 3.304-8.477 0-3.353-1.134-6.083-3.395-8.19-.833-.791-1.792-1.449-2.884-1.953-1.071-.511-2.093-.84-3.066-1.001-.959-.161-2.513-.245-4.669-.245h-5.579l-4.431-3.983h10.486c4.242 0 7.609.644 10.073 1.918 2.478 1.274 4.445 3.143 5.908 5.621 1.449 2.471 2.191 5.166 2.191 8.092 0 2.079-.413 4.074-1.211 5.985-.812 1.904-1.96 3.584-3.444 5.033-1.512 1.491-3.283 2.611-5.292 3.367-1.176.462-2.268.777-3.241.938-.98.154-2.863.224-5.642.224z"/></g><g fill="#ea8d86"><path d="m259.94723 1066.8795-4.466-4.011v31.178l4.466-3.983v-9.555-4.144z"/><path d="m233.48023 1080.5085-.014 13.566 4.473-4.025-.014-9.541z"/><path d="m238.04423 1076.3645-.084-9.352-4.473-4.144v13.496z"/></g></g></svg>