<svg height="698.07056" width="949.51251" xmlns="http://www.w3.org/2000/svg"><g transform="translate(111.89914 -149.04132)"><path d="m-109.67504 149.99483h943.5044v693.50433h-943.5044z" fill="#fdfafa"/><path d="m-111.89914 149.08194c316.50004-.0625 633.00004-.0375 949.51254-.025-.075 232.68751-.0375 465.37502-.025 698.05002-316.4875-.012-632.975.025-949.45004-.012.025-232.675.088-465.35001-.037-698.01252z" fill="#9d0a0e"/><g fill="#fdfafa"><path d="m167.0759 435.20695c.1875-37.3125-.325-74.6375.2625-111.9375 39.075.2875 78.1625-.05 117.2375.1625.275.24999.825.725 1.1.975.1 36.925.025 73.8625.0375 110.8-39.55.05-79.1.05-118.6375 0z"/><path d="m303.6759 323.36945c39.5.0125 79-.0125 118.5.0125.0625 37.275.0125 74.5625.025 111.8375-39.525.025-79.0375.0125-118.5625.0125.025-37.28749-.05-74.57499.0375-111.8625z"/><path d="m440.1634 323.36945c39.4625-.0625 78.925.1375 118.3875-.1.4625 37.3125.0875 74.65.1875 111.97499-39.5375-.0375-79.0625.025-118.6-.025 0-37.28751-.0375-74.56251.025-111.85001z"/></g><g fill="#9d0a0e"><path d="m475.1509 347.01945c17.325-12.3 41.0875-10.775 59.4375-1.625-.2375 4.77499-.125 9.5625-.15 14.33749-10.75-5.69999-22.875-10.375-35.2625-8.41249-10.7 1.2625-21.0125 8.29999-24.6875 18.65-3.8875 10.19999-1.1 22.77499 7.2375 29.96249 5.45 4.95001 12.825 7.26251 20.0625 7.825 11.85.9125 23.5625-3.3375 33.3875-9.7375-.0125 5.13751.0625 10.275-.0625 15.42501-13.35 6.7125-28.9375 8.9625-43.5875 5.91249-12.825-2.71249-24.475-11.3125-29.875-23.3875-8.0625-16.7625-1.7875-38.5375 13.5-48.95z"/><path d="m198.1259 339.16945c9.1125-.0125 18.2375-.0875 27.35.025 8.7.1875 18.125 3.9125 22.3875 11.9375 4.9 8.675 1.8 21.0875-7.5125 25.4 4.6125 2.1375 9.5125 4.2 12.725 8.325 5.775 7.025 5.7625 18.075-.1 25.0375-5.625 7-15 9.5-23.6375 9.6625-10.3875.075-20.7875.0125-31.175.025 0-26.8.0625-53.6125-.0375-80.4125z"/><path d="m334.5384 339.24445c9.075-.2 18.15-.1125 27.225-.0625 8.1125.15 16.85 3.15 21.575 10.11249 3.575 4.98751 3.8875 11.61251 2.3625 17.38751-1.3 4.5375-5.05 7.62499-8.8125 10.15 5.625 1.6875 10.95 4.9875 14.15 10.0125 4.425 7.0125 3.8 16.79999-1.6125 23.125-5.3625 6.73749-14.3 9.27499-22.5875 9.5625-10.725.14999-21.4625-.0125-32.1875.075-.075-26.78749.1375-53.57499-.1125-80.3625z"/></g><g fill="#fdfafa"><path d="m212.4509 351.68195c5.9125.2875 12.225-.9125 17.8375 1.5125 7.175 2.875 6.5 14.65-.4 17.475-5.45 2.4125-11.6125 1.9625-17.425 1.9875-.025-7-.0125-13.9875-.0125-20.975z"/><path d="m348.9634 351.69445c6.05.225 12.45-.8875 18.175 1.575 6.6375 3.0375 6.2875 13.6.1375 16.975-5.6125 2.925-12.1875 2.3875-18.3 2.4-.025-6.9875-.0125-13.9625-.0125-20.95z"/><path d="m212.4509 385.11945c8.3625.5375 17.4625-1.5625 25.2125 2.525 4.7 2.2875 6.35 8.65 3.7875 13.1-1.7875 3.5875-5.8625 5.1875-9.5875 5.85-6.45.8-12.95.275-19.425.4125.0125-7.2875 0-14.5875.0125-21.8875z"/><path d="m348.9634 385.15695c8.55.5125 17.9875-1.7375 25.775 2.8 4.6 2.475 5.5125 8.75 3.2125 13.0875-2.325 3.775-6.8625 5.35-11.075 5.7375-5.9625.475-11.9375.125-17.9.225-.025-7.2875-.0125-14.5625-.0125-21.85z"/><path d="m-65.199143 518.85695c11.4875.025 22.975-.075 34.4625.0375 9.825.1375 20.3 3.9875 25.9125001 12.4625 8.05 12.42501 6.35 31.73751-6.6125001 40.26251-11.4125 7.775-25.8625 5.85-38.9 6.0625.012 14.975.012 29.95 0 44.9375-4.95.013-9.8875.013-14.8375 0-.037-34.5875 0-69.175-.025-103.76251z"/><path d="m-10.536643 622.60696c14.8875001-34.8 29.6875-69.65 44.6-104.45001 3.4375 0 6.8875 0 10.3375.0125 15.525 34.80001 30.925 69.65001 46.4375 104.45001-5.0875.013-10.1625.013-15.2375-.013-4.5625-10.225-9.125-20.45-13.7625-30.6375-14.7-.038-29.3875 0-44.0875-.013-4.4625 10.1875-8.6749999 20.5-13.1624999 30.6875-5.03749996-.038-10.075-.013-15.1250001-.038z"/><path d="m102.47586 518.84445c9.3375.05 18.675-.0625 28.0125.05 9.07504.15 18.60004 2.8875 25.02504 9.6 7.475 7.925 8.9625 20.33751 5.125 30.31251-2.625 6.8375-8.625 11.6875-15.1625 14.5875 9.6375 6.35 15.4375 16.65 21.45 26.1875 4.7625 8 10.25 15.525 15.7125 23.05-5.8625 0-11.7125-.037-17.575.037-7.3-10.6375-13.6-21.975-21.425-32.25-3.85-4.8625-8.08754-9.9625-14.10004-12.1125-3.9375-1.1125-8.1-.65-12.1375-.775-.075 15.0375.012 30.075-.05 45.1125-4.95-.025-9.9125-.013-14.8625-.038-.025-34.5875-.012-69.175-.012-103.76251z"/><path d="m193.8134 518.83195c4.975.025 9.9375.0125 14.9125.0125-.0375 30.11251.025 60.22501-.025 90.33751 15.6375.05 31.2875-.037 46.9375.05 0 4.45 0 8.9125-.0125 13.375-20.6.038-41.2125.013-61.8125.013-.025-34.6-.025-69.1875 0-103.78752z"/><path d="m268.5884 518.81945c4.9625 0 9.925.0125 14.9-.0125 0 34.61251.0125 69.21251-.0125 103.81251-4.95.013-9.9125 0-14.8625.013-.0375-34.6125.0125-69.2125-.025-103.81251z"/><path d="m339.5259 518.21945c3.4375-.0625 6.8875-.075 10.3375-.1375 15.8 34.70001 30.925 69.72501 46.5 104.53751-5.025.013-10.0625-.013-15.0875.038-4.9-10.15-9.15-20.6-14.0625-30.7375-14.6375.125-29.2875-.05-43.925.088-4.4375 10.2375-8.45 20.7-13.3625 30.725-5-.175-10.0125-.1-15.0125-.1 14.9625-34.7625 29.75-69.6 44.6125-104.41252z"/><path d="m407.4509 518.83195c4.65.0125 9.3125.0125 13.975.0375 11.3875 14.1375 22.95 28.15001 34.15 42.45001 11.8625-13.6625 22.7625-28.17501 34.3875-42.05001 4.5-1.04999 9.425-.125 14.1-.4125-.0375 34.58751.025 69.17501-.0375 103.76251-4.975.013-9.9625.025-14.9375-.037.175-27.0375-.325-54.075.2625-81.1-11.0375 13.05-21.2625 26.7875-32.075 40.025-1.0875 1.2-3.1125.3-3.7625-.9625-10.45-12.95-20.6-26.1375-31.15-38.9875-.075 27.0125-.0125 54.0375-.025 81.0625-4.975.013-9.925.013-14.8875 0-.0125-34.6-.0125-69.1875 0-103.78751z"/><path d="m526.3509 519.00695c19.6-.35 39.225-.0625 58.825-.15-.0125 4.4125-.0125 8.825.0125 13.25-14.625.025-29.2375-.0125-43.8625.0125-.075 10.43751-.025 20.88751-.025 31.32501 14.1375.062 28.3-.25 42.4375.1625-.0875 4.4125-.0625 8.8375-.025 13.2625-14.1375.013-28.275 0-42.4125.013-.025 10.7625.0125 21.5375-.025 32.3 15.1.038 30.2-.025 45.2875.038-.05 4.4625-.05 8.925-.0375 13.3875-20.025.025-40.05.038-60.075-.012-.075-34.525.1-69.0625-.1-103.58753z"/><path d="m602.2134 518.84445c3.95 0 7.9125 0 11.875.0125 23.5125 26.68751 46.675 53.70001 70.3875 80.21251-.0625-26.7375.0125-53.475-.0375-80.20001 4.6-.0375 9.2125-.025 13.825-.0125.0125 34.58751.0125 69.17501 0 103.75001-4.2375.025-8.475.025-12.7.013-23.175-26.5375-46.15-53.2625-69.325-79.8-.1125 26.6125.05 53.225-.0875 79.825-4.6375-.025-9.275-.025-13.9-.013-.0625-34.6 0-69.1875-.0375-103.78751z"/><path d="m712.2759 518.84445c28.8375.0125 57.6625 0 86.5.0125-.025 4.4125-.025 8.825.0125 13.25-11.8625 0-23.725.05-35.5875-.025-.85 14.65001.125 29.33751-.2625 44.01251-.0125 15.525.275 31.0625-.1 46.575-4.875-.075-9.75-.037-14.6125-.05-.0375-30.1625.025-60.325-.0375-90.48751-11.975-.05-23.95 0-35.9125-.025.0125-4.425.0125-8.8375 0-13.2625z"/></g><g fill="#9d0a0e"><path d="m-50.249143 532.10694c8.9125.51251 18.325-1.38749 26.85 1.96251 11.3375 5.05001 10.7875 23.93751-.7 28.48751-8.35 3.2125-17.5375 1.2-26.25 1.7625.087-10.7375-.088-21.475.1-32.21251z"/><path d="m117.37586 531.60695c7.25.25 14.9125-.8875 21.76254 2.1125 10.9125 4.50001 10.925 22.35001.75 27.68751-6.88754 3.7625-15.00004 2.475-22.51254 2.7125 0-10.8375 0-21.675 0-32.51251z"/><path d="m23.525857 578.71946c5.15-12.5875 10.225-25.2 15.5875-37.6875 5.225 12.6875 11.4625 24.95 16.4375 37.725-10.675-.225-21.35.075-32.025-.037z"/><path d="m329.2884 578.68196c4.6-12.7 10.375-24.9625 15.1125-37.625 5.8375 12.45 11.3375 25.0625 16.875 37.6625-10.6625-.013-21.325.037-31.9875-.038z"/></g></g></svg>