<?xml version="1.0" encoding="UTF-8" standalone="no"?>
<!-- Created with Inkscape (http://www.inkscape.org/) -->

<svg
   xmlns:dc="http://purl.org/dc/elements/1.1/"
   xmlns:cc="http://creativecommons.org/ns#"
   xmlns:rdf="http://www.w3.org/1999/02/22-rdf-syntax-ns#"
   xmlns:svg="http://www.w3.org/2000/svg"
   xmlns="http://www.w3.org/2000/svg"
   xmlns:sodipodi="http://sodipodi.sourceforge.net/DTD/sodipodi-0.dtd"
   xmlns:inkscape="http://www.inkscape.org/namespaces/inkscape"
   id="svg2985"
   version="1.1"
   inkscape:version="0.91 r13725"
   width="999"
   height="296.19421"
   xml:space="preserve"
   sodipodi:docname="BBC One Yorkshire and Lincolnshire - Dark.svg"
   hola_ext_inject="disabled"><metadata
     id="metadata2991"><rdf:RDF><cc:Work
         rdf:about=""><dc:format>image/svg+xml</dc:format><dc:type
           rdf:resource="http://purl.org/dc/dcmitype/StillImage" /><dc:title></dc:title></cc:Work></rdf:RDF></metadata><defs
     id="defs2989"><clipPath
       clipPathUnits="userSpaceOnUse"
       id="clipPath3003"><path
         d="m 0,0 841.89,0 0,595.276 L 0,595.276 0,0 Z"
         id="path3005"
         inkscape:connector-curvature="0" /></clipPath><clipPath
       clipPathUnits="userSpaceOnUse"
       id="clipPath3023"><path
         d="m 0,0 841.89,0 0,595.276 L 0,595.276 0,0 Z"
         id="path3025"
         inkscape:connector-curvature="0" /></clipPath><clipPath
       clipPathUnits="userSpaceOnUse"
       id="clipPath3051"><path
         d="m 0,0 841.89,0 0,595.276 L 0,595.276 0,0 Z"
         id="path3053"
         inkscape:connector-curvature="0" /></clipPath><clipPath
       clipPathUnits="userSpaceOnUse"
       id="clipPath3075"><path
         d="m 0,0 841.89,0 0,595.276 L 0,595.276 0,0 Z"
         id="path3077"
         inkscape:connector-curvature="0" /></clipPath><clipPath
       clipPathUnits="userSpaceOnUse"
       id="clipPath3195"><path
         d="m 0,0 841.89,0 0,595.276 L 0,595.276 0,0 Z"
         id="path3197"
         inkscape:connector-curvature="0" /></clipPath><clipPath
       clipPathUnits="userSpaceOnUse"
       id="clipPath3209"><path
         d="m 49.094,354.329 287.15,0 0,-161.734 -287.15,0 0,161.734 z"
         id="path3211"
         inkscape:connector-curvature="0" /></clipPath><clipPath
       clipPathUnits="userSpaceOnUse"
       id="clipPath3233"><path
         d="m 0,0 841.89,0 0,595.276 L 0,595.276 0,0 Z"
         id="path3235"
         inkscape:connector-curvature="0" /></clipPath><clipPath
       clipPathUnits="userSpaceOnUse"
       id="clipPath3257"><path
         d="m 0,0 841.89,0 0,595.276 L 0,595.276 0,0 Z"
         id="path3259"
         inkscape:connector-curvature="0" /></clipPath><clipPath
       clipPathUnits="userSpaceOnUse"
       id="clipPath3297"><path
         d="m 0,0 841.89,0 0,595.276 L 0,595.276 0,0 Z"
         id="path3299"
         inkscape:connector-curvature="0" /></clipPath><clipPath
       clipPathUnits="userSpaceOnUse"
       id="clipPath3313"><path
         d="m 0,0 841.89,0 0,595.276 L 0,595.276 0,0 Z"
         id="path3315"
         inkscape:connector-curvature="0" /></clipPath><clipPath
       clipPathUnits="userSpaceOnUse"
       id="clipPath3341"><path
         d="m 0,0 841.89,0 0,595.276 L 0,595.276 0,0 Z"
         id="path3343"
         inkscape:connector-curvature="0" /></clipPath><clipPath
       clipPathUnits="userSpaceOnUse"
       id="clipPath3419"><path
         d="m 0,0 841.89,0 0,595.276 L 0,595.276 0,0 Z"
         id="path3421"
         inkscape:connector-curvature="0" /></clipPath><clipPath
       clipPathUnits="userSpaceOnUse"
       id="clipPath3465"><path
         d="m 0,0 841.89,0 0,595.276 L 0,595.276 0,0 Z"
         id="path3467"
         inkscape:connector-curvature="0" /></clipPath><clipPath
       clipPathUnits="userSpaceOnUse"
       id="clipPath3489"><path
         d="m 0,0 841.89,0 0,595.276 L 0,595.276 0,0 Z"
         id="path3491"
         inkscape:connector-curvature="0" /></clipPath><clipPath
       clipPathUnits="userSpaceOnUse"
       id="clipPath3511"><path
         d="m 0,0 841.89,0 0,595.276 L 0,595.276 0,0 Z"
         id="path3513"
         inkscape:connector-curvature="0" /></clipPath><clipPath
       clipPathUnits="userSpaceOnUse"
       id="clipPath3533"><path
         d="m 0,0 841.89,0 0,595.276 L 0,595.276 0,0 Z"
         id="path3535"
         inkscape:connector-curvature="0" /></clipPath><clipPath
       clipPathUnits="userSpaceOnUse"
       id="clipPath3615"><path
         d="m 0,0 841.89,0 0,595.276 L 0,595.276 0,0 Z"
         id="path3617"
         inkscape:connector-curvature="0" /></clipPath><clipPath
       clipPathUnits="userSpaceOnUse"
       id="clipPath3659"><path
         d="m 0,0 841.89,0 0,595.276 L 0,595.276 0,0 Z"
         id="path3661"
         inkscape:connector-curvature="0" /></clipPath><clipPath
       clipPathUnits="userSpaceOnUse"
       id="clipPath3673"><path
         d="m 0,0 841.89,0 0,595.276 L 0,595.276 0,0 Z"
         id="path3675"
         inkscape:connector-curvature="0" /></clipPath><clipPath
       clipPathUnits="userSpaceOnUse"
       id="clipPath3707"><path
         d="m 0,0 841.89,0 0,595.276 L 0,595.276 0,0 Z"
         id="path3709"
         inkscape:connector-curvature="0" /></clipPath><clipPath
       clipPathUnits="userSpaceOnUse"
       id="clipPath3735"><path
         d="m 0,0 841.89,0 0,595.276 L 0,595.276 0,0 Z"
         id="path3737"
         inkscape:connector-curvature="0" /></clipPath><clipPath
       clipPathUnits="userSpaceOnUse"
       id="clipPath3757"><path
         d="m 0,0 841.89,0 0,595.276 L 0,595.276 0,0 Z"
         id="path3759"
         inkscape:connector-curvature="0" /></clipPath><clipPath
       clipPathUnits="userSpaceOnUse"
       id="clipPath3779"><path
         d="m 0,0 841.89,0 0,595.276 L 0,595.276 0,0 Z"
         id="path3781"
         inkscape:connector-curvature="0" /></clipPath><clipPath
       clipPathUnits="userSpaceOnUse"
       id="clipPath3881"><path
         d="m 0,0 841.89,0 0,595.276 L 0,595.276 0,0 Z"
         id="path3883"
         inkscape:connector-curvature="0" /></clipPath><clipPath
       clipPathUnits="userSpaceOnUse"
       id="clipPath3925"><path
         d="m 0,0 841.89,0 0,595.276 L 0,595.276 0,0 Z"
         id="path3927"
         inkscape:connector-curvature="0" /></clipPath><clipPath
       clipPathUnits="userSpaceOnUse"
       id="clipPath3939"><path
         d="m 0,0 841.89,0 0,595.276 L 0,595.276 0,0 Z"
         id="path3941"
         inkscape:connector-curvature="0" /></clipPath><clipPath
       clipPathUnits="userSpaceOnUse"
       id="clipPath3973"><path
         d="m 0,0 841.89,0 0,595.276 L 0,595.276 0,0 Z"
         id="path3975"
         inkscape:connector-curvature="0" /></clipPath><clipPath
       clipPathUnits="userSpaceOnUse"
       id="clipPath4005"><path
         d="m 0,0 841.89,0 0,595.276 L 0,595.276 0,0 Z"
         id="path4007"
         inkscape:connector-curvature="0" /></clipPath><clipPath
       clipPathUnits="userSpaceOnUse"
       id="clipPath4029"><path
         d="m 0,0 841.89,0 0,595.276 L 0,595.276 0,0 Z"
         id="path4031"
         inkscape:connector-curvature="0" /></clipPath><clipPath
       clipPathUnits="userSpaceOnUse"
       id="clipPath4069"><path
         d="m 0,0 841.89,0 0,595.276 L 0,595.276 0,0 Z"
         id="path4071"
         inkscape:connector-curvature="0" /></clipPath><clipPath
       clipPathUnits="userSpaceOnUse"
       id="clipPath4089"><path
         d="m 0,0 841.89,0 0,595.276 L 0,595.276 0,0 Z"
         id="path4091"
         inkscape:connector-curvature="0" /></clipPath><clipPath
       clipPathUnits="userSpaceOnUse"
       id="clipPath4111"><path
         d="m 0,0 841.89,0 0,595.276 L 0,595.276 0,0 Z"
         id="path4113"
         inkscape:connector-curvature="0" /></clipPath><clipPath
       clipPathUnits="userSpaceOnUse"
       id="clipPath4133"><path
         d="m 0,0 841.89,0 0,595.276 L 0,595.276 0,0 Z"
         id="path4135"
         inkscape:connector-curvature="0" /></clipPath><clipPath
       clipPathUnits="userSpaceOnUse"
       id="clipPath4251"><path
         d="m 0,0 841.89,0 0,595.276 L 0,595.276 0,0 Z"
         id="path4253"
         inkscape:connector-curvature="0" /></clipPath><clipPath
       clipPathUnits="userSpaceOnUse"
       id="clipPath4297"><path
         d="m 0,0 841.89,0 0,595.276 L 0,595.276 0,0 Z"
         id="path4299"
         inkscape:connector-curvature="0" /></clipPath><clipPath
       clipPathUnits="userSpaceOnUse"
       id="clipPath4337"><path
         d="m 0,0 841.89,0 0,595.276 L 0,595.276 0,0 Z"
         id="path4339"
         inkscape:connector-curvature="0" /></clipPath><clipPath
       clipPathUnits="userSpaceOnUse"
       id="clipPath4379"><path
         d="m 0,0 841.89,0 0,595.276 L 0,595.276 0,0 Z"
         id="path4381"
         inkscape:connector-curvature="0" /></clipPath><clipPath
       clipPathUnits="userSpaceOnUse"
       id="clipPath4423"><path
         d="m 0,0 841.89,0 0,595.276 L 0,595.276 0,0 Z"
         id="path4425"
         inkscape:connector-curvature="0" /></clipPath><clipPath
       clipPathUnits="userSpaceOnUse"
       id="clipPath4437"><path
         d="m 0,0 841.89,0 0,595.276 L 0,595.276 0,0 Z"
         id="path4439"
         inkscape:connector-curvature="0" /></clipPath><clipPath
       clipPathUnits="userSpaceOnUse"
       id="clipPath4471"><path
         d="m 0,0 841.89,0 0,595.276 L 0,595.276 0,0 Z"
         id="path4473"
         inkscape:connector-curvature="0" /></clipPath><style
       id="style6"
       type="text/css">
   
    .fil0 {fill:#C90302}
   
  </style><inkscape:perspective
       id="perspective17"
       inkscape:persp3d-origin="526.18109 : 129.92126 : 1"
       inkscape:vp_z="1052.3622 : 194.8819 : 1"
       inkscape:vp_y="0 : 1000 : 0"
       inkscape:vp_x="0 : 194.8819 : 1"
       sodipodi:type="inkscape:persp3d" /><clipPath
       id="clipPath3855"
       clipPathUnits="userSpaceOnUse"><path
         id="path3857"
         d="m 28.346,484.3 47.237,0 0,34.44 -47.237,0 0,-34.44 z"
         inkscape:connector-curvature="0" /></clipPath><clipPath
       id="clipPath3793"
       clipPathUnits="userSpaceOnUse"><path
         id="path3795"
         d="m 90.708,484.3 47.382,0 0,34.44 -47.382,0 0,-34.44 z"
         inkscape:connector-curvature="0" /></clipPath><clipPath
       id="clipPath3779-4"
       clipPathUnits="userSpaceOnUse"><path
         id="path3781-8"
         d="m 90.708,484.3 47.382,0 0,34.44 -47.382,0 0,-34.44 z"
         inkscape:connector-curvature="0" /></clipPath><clipPath
       id="clipPath3739"
       clipPathUnits="userSpaceOnUse"><path
         id="path3741"
         d="m 277.795,444.472 46.804,0 0,34.347 -46.804,0 0,-34.347 z"
         inkscape:connector-curvature="0" /></clipPath><clipPath
       id="clipPath3675"
       clipPathUnits="userSpaceOnUse"><path
         id="path3677"
         d="m 215.433,444.472 46.949,0 0,34.347 -46.949,0 0,-34.347 z"
         inkscape:connector-curvature="0" /></clipPath><clipPath
       id="clipPath3621"
       clipPathUnits="userSpaceOnUse"><path
         id="path3623"
         d="m 153.071,444.472 47.112,0 0,34.393 -47.112,0 0,-34.393 z"
         inkscape:connector-curvature="0" /></clipPath><clipPath
       id="clipPath3575"
       clipPathUnits="userSpaceOnUse"><path
         id="path3577"
         d="m 90.708,444.472 47.402,0 0,34.393 -47.402,0 0,-34.393 z"
         inkscape:connector-curvature="0" /></clipPath><clipPath
       id="clipPath3561"
       clipPathUnits="userSpaceOnUse"><path
         id="path3563"
         d="m 90.708,444.472 47.402,0 0,34.393 -47.402,0 0,-34.393 z"
         inkscape:connector-curvature="0" /></clipPath><clipPath
       id="clipPath3549"
       clipPathUnits="userSpaceOnUse"><path
         id="path3551"
         d="m 28.346,444.472 47.245,0 0,34.393 -47.245,0 0,-34.393 z"
         inkscape:connector-curvature="0" /></clipPath><clipPath
       id="clipPath3499"
       clipPathUnits="userSpaceOnUse"><path
         id="path3501"
         d="m 277.795,484.3 46.804,0 0,34.309 -46.804,0 0,-34.309 z"
         inkscape:connector-curvature="0" /></clipPath><clipPath
       id="clipPath3479"
       clipPathUnits="userSpaceOnUse"><path
         id="path3481"
         d="m 277.795,491.772 46.804,0 0,20.354 -46.804,0 0,-20.354 z"
         inkscape:connector-curvature="0" /></clipPath><clipPath
       id="clipPath3419-0"
       clipPathUnits="userSpaceOnUse"><path
         id="path3421-9"
         d="m 277.795,484.3 46.804,0 0,34.309 -46.804,0 0,-34.309 z"
         inkscape:connector-curvature="0" /></clipPath><clipPath
       id="clipPath3403"
       clipPathUnits="userSpaceOnUse"><path
         id="path3405"
         d="m 277.795,491.772 46.804,0 0,20.354 -46.804,0 0,-20.354 z"
         inkscape:connector-curvature="0" /></clipPath><clipPath
       id="clipPath3379"
       clipPathUnits="userSpaceOnUse"><path
         id="path3381"
         d="m 277.795,484.3 46.804,0 0,34.309 -46.804,0 0,-34.309 z"
         inkscape:connector-curvature="0" /></clipPath><clipPath
       id="clipPath3337"
       clipPathUnits="userSpaceOnUse"><path
         id="path3339"
         d="m 340.158,484.348 46.688,0 0,34.393 -46.688,0 0,-34.393 z"
         inkscape:connector-curvature="0" /></clipPath><clipPath
       id="clipPath3289"
       clipPathUnits="userSpaceOnUse"><path
         id="path3291"
         d="m 215.449,484.3 46.803,0 0,34.393 -46.803,0 0,-34.393 z"
         inkscape:connector-curvature="0" /></clipPath><clipPath
       id="clipPath3271"
       clipPathUnits="userSpaceOnUse"><path
         id="path3273"
         d="m 153.087,484.348 47.287,0 0,34.393 -47.287,0 0,-34.393 z"
         inkscape:connector-curvature="0" /></clipPath><clipPath
       id="clipPath3115"
       clipPathUnits="userSpaceOnUse"><path
         id="path3117"
         d="m 28.346,20.092 362.835,0 0,158.49 -362.835,0 0,-158.49 z"
         inkscape:connector-curvature="0" /></clipPath></defs><sodipodi:namedview
     pagecolor="#ffffff"
     bordercolor="#666666"
     borderopacity="1"
     objecttolerance="10"
     gridtolerance="10"
     guidetolerance="10"
     inkscape:pageopacity="0"
     inkscape:pageshadow="2"
     inkscape:window-width="1060"
     inkscape:window-height="1041"
     id="namedview2987"
     showgrid="false"
     fit-margin-top="0"
     fit-margin-left="0"
     fit-margin-right="0"
     fit-margin-bottom="0"
     inkscape:zoom="0.45585016"
     inkscape:cx="302.08083"
     inkscape:cy="-71.761157"
     inkscape:window-x="857"
     inkscape:window-y="-21"
     inkscape:window-maximized="0"
     inkscape:current-layer="flowRoot3127-48" /><g
     id="g2993"
     inkscape:groupmode="layer"
     inkscape:label="onscreen_guidelines"
     transform="matrix(1.25,0,0,-1.25,-25.664432,910.55619)"><g
       id="g3203"
       transform="translate(349.3506,368.504)" /><g
       id="g4491"
       transform="translate(349.3506,42.5196)" /><g
       id="g3565"
       transform="translate(938.96857,-702.2758)" /><g
       id="g3783"
       transform="translate(938.96027,-662.5387)" /><g
       transform="matrix(2.0655084,0,0,-2.0655084,1292.8466,-471.3494)"
       style="font-style:normal;font-weight:normal;font-size:40px;line-height:125%;font-family:Sans;letter-spacing:0px;word-spacing:0px;fill:#000000;fill-opacity:1;stroke:none"
       id="flowRoot3127"><g
         transform="translate(-260.95848,-267.1418)"
         style="line-height:125%;font-family:Sans;fill:#000000"
         id="flowRoot3127-4"><g
           transform="translate(-166.40437,-333.50863)"
           style="font-style:normal;font-weight:normal;font-size:40px;line-height:125%;font-family:Sans;letter-spacing:0px;word-spacing:0px;fill:#000000;fill-opacity:1;stroke:none"
           id="flowRoot3127-48"><path
             d="m -21.678223,134.0196 0,-7.6001 c -2.933762,-5.62661 -5.747073,-11.71995 -8.439941,-18.28003 l 5.358887,0 c 1.73339,4.45315 3.653554,8.98643 5.760498,13.59986 2.29328,-4.98615 4.226465,-9.51943 5.79956,-13.59986 l 4.9609377,0 c -2.6668487,6.42662 -5.4402837,12.45322 -8.3203127,18.07984 l 0,7.80029 z"
             style="font-variant:normal;font-weight:bold;font-stretch:normal;font-family:BBCOne-Bold;-inkscape-font-specification:'BBCOne-Bold Bold';fill:#c80201;fill-opacity:1"
             id="path4303"
             inkscape:connector-curvature="0" /><path
             d="m 4.7538923,128.53986 c 0.9065594,-1.04003 1.3598467,-2.49348 1.3598633,-4.36035 -1.66e-5,-1.86685 -0.4533039,-3.3203 -1.3598633,-4.36035 -0.9065899,-0.98631 -2.1464161,-1.47947 -3.7194824,-1.47949 -1.57308935,2e-5 -2.8129157,0.49318 -3.7194824,1.47949 -0.9073962,1.04005 -1.3610905,2.4935 -1.361084,4.36035 -6.5e-6,1.86687 0.4536878,3.32032 1.361084,4.36035 0.9065667,0.98634 2.14639305,1.4795 3.7194824,1.4795 1.5730663,0 2.8128925,-0.49316 3.7194824,-1.4795 z M -6.305678,131.6197 c -1.8798851,-1.91976 -2.8198256,-4.39961 -2.8198242,-7.43958 -1.4e-6,-3.03994 0.9399391,-5.52 2.8198242,-7.44018 1.8798767,-1.92015 4.3265703,-2.88023 7.3400879,-2.88025 3.0134945,2e-5 5.4601881,0.9601 7.3400874,2.88025 1.8798627,1.92018 2.8198027,4.40024 2.8198247,7.44018 -2.2e-5,3.03997 -0.939962,5.51982 -2.8198247,7.43958 -1.8798993,1.91976 -4.3265929,2.87964 -7.3400874,2.87964 -3.0135176,0 -5.4602112,-0.95988 -7.3400879,-2.87964 z"
             style="font-variant:normal;font-weight:bold;font-stretch:normal;font-family:BBCOne-Bold;-inkscape-font-specification:'BBCOne-Bold Bold';fill:#c80201;fill-opacity:1"
             id="path4305"
             inkscape:connector-curvature="0" /><path
             d="m 27.824441,114.2198 -0.480957,4.39941 c -0.933445,-0.18634 -1.75986,-0.27952 -2.479248,-0.27954 -1.467296,2e-5 -2.667246,0.54648 -3.599854,1.6394 -0.826831,0.98716 -1.240242,2.84059 -1.240234,5.56031 l 0,8.48022 -4.880371,0 0,-14.16015 c -3e-6,-2.26643 -0.133466,-4.10643 -0.400391,-5.52002 l 4.760742,0 c 0.266106,0.93345 0.439446,1.93361 0.52002,3.00048 l 0.04028,0 c 1.279288,-2.29327 3.159169,-3.43992 5.639649,-3.43994 0.906561,2e-5 1.613347,0.10663 2.120361,0.31983 z"
             style="font-variant:normal;font-weight:bold;font-stretch:normal;font-family:BBCOne-Bold;-inkscape-font-specification:'BBCOne-Bold Bold';fill:#c80201;fill-opacity:1"
             id="path4307"
             inkscape:connector-curvature="0" /><path
             d="m 30.183111,134.0196 0,-25.88013 4.880371,0 0,14.68018 c 0.292961,-0.29296 1.292715,-1.34642 2.999268,-3.1604 1.973457,-2.08006 3.38703,-3.85333 4.240722,-5.31982 l 5.119629,0 c -1.119811,1.97348 -3.133155,4.54672 -6.040039,7.71972 1.306951,2.50734 2.013737,3.82732 2.120361,3.95996 2.799461,4.66716 4.492574,7.33399 5.079346,8.00049 l -5.79956,0 c -0.533056,-0.69336 -1.226415,-1.75984 -2.080079,-3.19946 -0.426445,-0.64046 -1.372896,-2.37386 -2.839355,-5.2002 l -2.800293,2.83936 0,5.5603 z"
             style="font-variant:normal;font-weight:bold;font-stretch:normal;font-family:BBCOne-Bold;-inkscape-font-specification:'BBCOne-Bold Bold';fill:#c80201;fill-opacity:1"
             id="path4309"
             inkscape:connector-curvature="0" /><path
             d="m 49.515762,132.54011 1.599121,-3.56079 c 1.760249,1.1735 3.453769,1.76026 5.080566,1.76025 0.906567,1e-5 1.633291,-0.18656 2.180176,-0.55969 0.546864,-0.37312 0.820301,-0.89335 0.820313,-1.56067 -1.2e-5,-0.55989 -0.233369,-1.03983 -0.700074,-1.43982 -0.466725,-0.39998 -1.046762,-0.72 -1.740112,-0.96008 -0.693367,-0.24007 -1.446744,-0.53995 -2.260132,-0.89966 -0.813401,-0.35969 -1.566777,-0.73953 -2.260132,-1.13953 -0.693363,-0.39997 -1.273399,-0.99343 -1.740112,-1.78039 -0.466718,-0.78694 -0.700075,-1.70043 -0.700073,-2.74048 -2e-6,-1.83999 0.720009,-3.26658 2.160034,-4.27979 1.440017,-1.01316 3.146762,-1.51975 5.120239,-1.51977 2.34618,2e-5 4.385973,0.61322 6.119385,1.8396 l -1.599121,3.40088 c -1.413587,-1.01398 -2.853608,-1.52098 -4.320068,-1.521 -0.799976,2e-5 -1.406665,0.20001 -1.820069,0.59998 -0.413418,0.4 -0.620124,0.85349 -0.620117,1.36047 -7e-6,0.55991 0.313307,1.05328 0.939941,1.4801 0.62662,0.42686 1.379996,0.80019 2.260132,1.12 0.880116,0.31983 1.760039,0.69317 2.639771,1.11999 0.879706,0.42685 1.632879,1.05348 2.259521,1.87989 0.626612,0.82642 0.939926,1.82638 0.939942,2.99987 -1.6e-5,2.02638 -0.733251,3.59294 -2.199707,4.69971 -1.466484,1.10677 -3.293061,1.66016 -5.479737,1.66016 -1.093757,0 -2.300624,-0.19328 -3.620605,-0.57984 -1.31999,-0.38655 -2.339683,-0.84635 -3.059082,-1.37939 z"
             style="font-variant:normal;font-weight:bold;font-stretch:normal;font-family:BBCOne-Bold;-inkscape-font-specification:'BBCOne-Bold Bold';fill:#c80201;fill-opacity:1"
             id="path4311"
             inkscape:connector-curvature="0" /><path
             d="m 75.446313,127.09944 c -2e-6,-2.74658 1.893307,-5.37312 5.679932,-7.87964 -1.014004,-1.22639 -1.71428,-2.253 -2.10083,-3.07984 -0.386561,-0.8268 -0.579839,-1.78709 -0.579834,-2.88086 -5e-6,-1.70652 0.620111,-3.08632 1.860351,-4.1394 1.240227,-1.05304 2.766918,-1.57956 4.580078,-1.57959 1.839994,3e-5 3.366685,0.51984 4.580078,1.55945 1.213362,1.03965 1.820051,2.41315 1.820069,4.12048 -1.8e-5,2.55943 -1.400163,4.77256 -4.20044,6.63941 l 4.20044,4.84008 c 0.399559,-1.09292 0.705955,-2.01293 0.919189,-2.76001 l 3.560795,0 c -0.72024,2.32016 -1.373722,4.16017 -1.960453,5.52002 0.986303,1.22641 2.826313,3.41309 5.520023,6.56006 l -5.360111,0 -2.479248,-2.87964 c -2.133805,2.23959 -4.747327,3.35938 -7.840576,3.35938 -2.320157,0 -4.26677,-0.66671 -5.839844,-2.00012 -1.573082,-1.33342 -2.359621,-3.13334 -2.359619,-5.39978 z m 8.239746,-4.91944 -0.04028,-0.0403 c -1.359872,0.90658 -2.31324,1.72649 -2.860107,2.45972 -0.546882,0.73324 -0.820319,1.5267 -0.820313,2.38037 -6e-6,1.25326 0.393467,2.19991 1.18042,2.83996 0.786938,0.64006 1.807038,0.96009 3.060303,0.96009 1.919746,0 3.492824,-0.79997 4.719238,-2.39991 z m -0.92041,-8.88061 c -9e-6,0.9603 0.533438,2.06707 1.600342,3.32031 l 0.239258,0.31982 0.640869,-0.43945 c 1.332995,-0.88052 1.999498,-1.98729 1.999512,-3.32031 -1.4e-5,-0.61359 -0.219944,-1.10044 -0.659791,-1.46057 -0.439872,-0.36009 -0.966605,-0.54014 -1.5802,-0.54016 -0.666514,2e-5 -1.206471,0.20021 -1.619873,0.60058 -0.413421,0.40041 -0.620126,0.907 -0.620117,1.51978 z"
             style="font-variant:normal;font-weight:bold;font-stretch:normal;font-family:BBCOne-Bold;-inkscape-font-specification:'BBCOne-Bold Bold';fill:#c80201;fill-opacity:1"
             id="path4313"
             inkscape:connector-curvature="0" /><path
             d="m 115.42924,108.13947 0,21.40015 10.20019,0 0.75928,4.47998 -16.0791,0 0,-25.88013 z"
             style="font-variant:normal;font-weight:bold;font-stretch:normal;font-family:BBCOne-Bold;-inkscape-font-specification:'BBCOne-Bold Bold';fill:#c80201;fill-opacity:1"
             id="path4315"
             inkscape:connector-curvature="0" /><path
             d="m 129.63583,128.49958 0,-14.16015 4.88037,0 0,14.16015 c 0,2.26644 0.13346,4.10645 0.4004,5.52002 l -4.84009,0 c -0.29379,-1.35986 -0.44068,-3.19987 -0.44068,-5.52002 z m 0.36011,-17.08008 c -0.5599,-0.55987 -0.83985,-1.26645 -0.83984,-2.11975 -1e-5,-0.85324 0.28666,-1.56654 0.85998,-2.13989 0.57332,-0.5733 1.27339,-0.85996 2.10022,-0.85999 0.85286,3e-5 1.56616,0.28669 2.13989,0.85999 0.57373,0.57335 0.86059,1.28644 0.8606,2.13928 -1e-5,0.82685 -0.28687,1.52692 -0.8606,2.10022 -0.57373,0.57335 -1.28723,0.86001 -2.1405,0.85999 -0.85327,2e-5 -1.55986,-0.27993 -2.11975,-0.83985 z"
             style="font-variant:normal;font-weight:bold;font-stretch:normal;font-family:BBCOne-Bold;-inkscape-font-specification:'BBCOne-Bold Bold';fill:#c80201;fill-opacity:1"
             id="path4317"
             inkscape:connector-curvature="0" /><path
             d="m 159.37805,134.0196 -4.87915,0 c -0.26694,-1.41357 -0.40041,-3.24015 -0.40039,-5.47974 l 0,-4.16015 c -2e-5,-2.53336 -0.37314,-4.17357 -1.11938,-4.92066 -0.8008,-0.77309 -1.86769,-1.15965 -3.20069,-1.15966 -1.54623,1e-5 -2.83936,0.53346 -3.87939,1.60034 -0.50701,0.55991 -0.84046,1.26649 -1.00037,2.11975 -0.15992,0.85328 -0.23987,2.00013 -0.23987,3.44055 l 0,8.55957 -4.88037,0 0,-14.16015 c 0,-2.26643 -0.13346,-4.10643 -0.40039,-5.52002 l 4.76074,0 c 0.26611,0.9603 0.43945,1.93361 0.52002,2.91992 l 0.0403,0 c 0.47932,-0.95946 1.30573,-1.76593 2.47924,-2.41944 1.1735,-0.65346 2.49348,-0.9802 3.95997,-0.98022 2.42674,2e-5 4.32004,0.70681 5.67993,2.12036 0.7739,0.77313 1.32749,1.72629 1.66076,2.8595 0.33323,1.13323 0.49986,2.7 0.49988,4.70031 l 0,5 c -2e-5,2.23959 0.13304,4.06617 0.39917,5.47974 z"
             style="font-variant:normal;font-weight:bold;font-stretch:normal;font-family:BBCOne-Bold;-inkscape-font-specification:'BBCOne-Bold Bold';fill:#c80201;fill-opacity:1"
             id="path4319"
             inkscape:connector-curvature="0" /><path
             d="m 172.47392,113.85969 c 1.70653,2e-5 3.28001,0.25352 4.72046,0.7605 1.06606,0.39959 1.99908,0.87933 2.79907,1.43921 l -1.59912,3.80005 c -0.42727,-0.31981 -1.04087,-0.66649 -1.84082,-1.04004 -1.17271,-0.53303 -2.35923,-0.79955 -3.55957,-0.79956 -1.81316,10e-6 -3.25319,0.54668 -4.32007,1.64001 -1.0669,1.09336 -1.60035,2.59991 -1.60034,4.51965 -1e-5,2.02638 0.58003,3.57301 1.74011,4.6399 1.16006,1.06689 2.59337,1.60034 4.29993,1.60034 2.05402,0 3.85415,-0.53345 5.40039,-1.60034 l 1.64062,3.28003 c -2.00034,1.59993 -4.57399,2.3999 -7.72095,2.3999 -2.98666,0 -5.47323,-0.94666 -7.45971,-2.83997 -1.9865,-1.8933 -2.97974,-4.38659 -2.97974,-7.47986 0,-3.14696 1.01339,-5.65367 3.04016,-7.52014 2.02677,-1.86643 4.50663,-2.79966 7.43958,-2.79968 z"
             style="font-variant:normal;font-weight:bold;font-stretch:normal;font-family:BBCOne-Bold;-inkscape-font-specification:'BBCOne-Bold Bold';fill:#c80201;fill-opacity:1"
             id="path4321"
             inkscape:connector-curvature="0" /><path
             d="m 182.72602,132.54011 1.59912,-3.56079 c 1.76025,1.1735 3.45377,1.76026 5.08057,1.76025 0.90657,1e-5 1.63329,-0.18656 2.18018,-0.55969 0.54686,-0.37312 0.8203,-0.89335 0.82031,-1.56067 -1e-5,-0.55989 -0.23337,-1.03983 -0.70008,-1.43982 -0.46672,-0.39998 -1.04676,-0.72 -1.74011,-0.96008 -0.69337,-0.24007 -1.44674,-0.53995 -2.26013,-0.89966 -0.8134,-0.35969 -1.56678,-0.73953 -2.26013,-1.13953 -0.69336,-0.39997 -1.2734,-0.99343 -1.74011,-1.78039 -0.46672,-0.78694 -0.70008,-1.70043 -0.70008,-2.74048 0,-1.83999 0.72001,-3.26658 2.16004,-4.27979 1.44001,-1.01316 3.14676,-1.51975 5.12024,-1.51977 2.34618,2e-5 4.38597,0.61322 6.11938,1.8396 l -1.59912,3.40088 c -1.41359,-1.01398 -2.85361,-1.52098 -4.32007,-1.521 -0.79997,2e-5 -1.40666,0.20001 -1.82007,0.59998 -0.41342,0.4 -0.62012,0.85349 -0.62011,1.36047 -1e-5,0.55991 0.3133,1.05328 0.93994,1.4801 0.62662,0.42686 1.37999,0.80019 2.26013,1.12 0.88012,0.31983 1.76004,0.69317 2.63977,1.11999 0.87971,0.42685 1.63288,1.05348 2.25952,1.87989 0.62661,0.82642 0.93993,1.82638 0.93994,2.99987 -1e-5,2.02638 -0.73325,3.59294 -2.1997,4.69971 -1.46649,1.10677 -3.29306,1.66016 -5.47974,1.66016 -1.09376,0 -2.30063,-0.19328 -3.62061,-0.57984 -1.31999,-0.38655 -2.33968,-0.84635 -3.05908,-1.37939 z"
             style="font-variant:normal;font-weight:bold;font-stretch:normal;font-family:BBCOne-Bold;-inkscape-font-specification:'BBCOne-Bold Bold';fill:#c80201;fill-opacity:1"
             id="path4323"
             inkscape:connector-curvature="0" /></g><g
           id="g4452"
           transform="matrix(3.5926409,0,0,-3.5926409,-1865.9691,-1996.3483)"
           style="fill:#c80201;fill-opacity:1"><g
             transform="matrix(1.2103696,0,0,1.2103696,-58.315768,-65.857877)"
             id="g4749"
             style="fill:#c80201;fill-opacity:1"><g
               transform="matrix(0.40173676,0,0,-0.40173676,363.77355,-324.66149)"
               id="Layer_x0020_1"
               style="fill:#c80201;fill-opacity:1"><metadata
                 id="CorelCorpID_0Corel-Layer" /><g
                 id="g4607"
                 transform="translate(27.667162,-18.444775)"
                 style="fill:#c80201;fill-opacity:1"><path
                   id="path4598"
                   transform="matrix(0.34004134,0,0,0.34004134,-17.938189,-275.55444)"
                   d="m 523.9375,922.28125 c -1.15419,-0.0146 -2.32654,-0.004 -3.5,0.0312 -14.88451,0.45302 -28.0053,5.04172 -38.78125,13.5625 -5.90469,4.66872 -12.06132,12.32642 -15.625,19.40625 -9.60474,19.08365 -9.76567,44.9614 -0.40625,64.0938 3.21032,6.5627 6.43814,11.0851 11.5,16.1562 10.24593,10.2652 22.98778,15.9839 39.40625,17.6563 2.52128,0.2568 13.98285,-0.07 16.53125,-0.4687 14.10217,-2.2101 25.43144,-7.5786 34.46875,-16.3126 10.51172,-10.1591 16.56015,-22.6664 18.75,-38.78125 0.56228,-4.13954 0.62726,-14.57506 0.125,-18.6875 -1.97914,-16.20536 -8.27658,-29.5089 -18.71875,-39.59375 -11.35373,-10.96517 -26.43721,-16.84281 -43.75,-17.0625 z m -0.53125,23.53125 c 3.20184,0.0287 6.3931,0.34319 9.28125,0.9375 15.02958,3.09231 24.61977,13.54382 27.40625,29.875 1.11013,6.50339 1.10984,15.7651 0,22.34375 -3.03001,17.96085 -14.4014,28.79185 -32.09375,30.62505 -2.79731,0.2898 -7.8402,0.269 -10.6875,-0.031 -9.07734,-0.9578 -16.25627,-4.1745 -21.875,-9.8125 -5.53324,-5.5522 -8.7497,-12.493 -10.28125,-22.25 -0.64654,-4.12027 -0.64201,-15.00806 0,-19.28125 0.55029,-3.66845 1.6478,-7.97674 2.6875,-10.59375 3.86109,-9.71972 10.88703,-16.47052 20.5625,-19.71875 4.25577,-1.42887 9.6636,-2.14155 15,-2.09375 z"
                   style="fill:#c80201;fill-opacity:1"
                   inkscape:connector-curvature="0" /><path
                   id="path4594"
                   transform="matrix(0.34004134,0,0,0.34004134,-17.938189,-275.55444)"
                   d="m 794.375,922.375 c -6.99224,-0.0197 -8.89202,0.13973 -14.03125,1.15625 -21.75512,4.30299 -38.52662,19.20763 -45.5625,40.4375 -3.25275,9.81544 -4.5201,20.158 -3.6875,30.375 1.82387,22.38005 11.84677,39.75415 28.8125,50.00005 8.00032,4.8312 16.19448,7.4286 28.03125,8.8437 0.48641,0.058 4.18968,0.071 8.21875,0.031 5.76774,-0.057 8.18741,-0.1904 11.46875,-0.625 14.74697,-1.9512 27.55475,-6.3905 37.875,-13.0938 2.74646,-1.7838 5.59375,-3.8902 5.59375,-4.1562 0,-0.1141 -2.12824,-4.1223 -4.71875,-8.9063 l -4.71875,-8.6875 -1.375,0.9062 c -19.00057,12.1544 -46.94574,15.4306 -63.6875,7.5 -10.43523,-4.9432 -16.50463,-13.5099 -18.8125,-26.56245 l -0.15625,-0.8125 48.75,0 48.75,0 0.125,-0.5625 c 0.75164,-3.21964 1.0864,-12.06384 0.65625,-17.25 -0.61107,-7.35797 -1.60599,-12.39325 -3.6875,-18.71875 -6.48442,-19.70705 -20.8942,-33.07633 -40.9375,-38 -5.92425,-1.4554 -9.37431,-1.85393 -16.90625,-1.875 z m -2.0625,23.25 c 3.70033,-0.0689 7.90503,0.14657 10.40625,0.59375 7.29655,1.30429 12.80517,3.90101 17.46875,8.21875 5.55338,5.14131 9.10337,12.95514 9.59375,21.15625 l 0.15625,2.71875 -36.1875,0 -36.1875,0 0.15625,-1.5 c 0.57764,-5.526 2.81892,-11.73063 6,-16.5625 1.84131,-2.79672 6.09765,-7.01197 9,-8.90625 3.97943,-2.59624 8.66132,-4.36075 13.9375,-5.28125 1.37409,-0.23987 3.43605,-0.39614 5.65625,-0.4375 z"
                   style="fill:#c80201;fill-opacity:1"
                   inkscape:connector-curvature="0" /><path
                   id="path4590"
                   d="m 194.16171,70.954681 c 0,-6.488717 0.0341,-10.978812 0.0886,-11.659793 0.34852,-4.349149 1.45716,-7.153833 3.73347,-9.444583 2.41962,-2.434971 5.67385,-3.590991 9.7058,-3.447998 3.23161,0.11464 5.4849,1.003405 7.25916,2.862926 1.39287,1.459917 2.22094,3.166003 2.70427,5.5717 0.35303,1.75788 0.38803,2.564043 0.43441,10.049922 0.0606,9.752985 0.22282,12.919194 0.82622,16.126142 l 0.0931,0.493974 4.1824,0 4.18231,0 -0.1566,-0.966352 c -0.16275,-1.003098 -0.34126,-2.624331 -0.50811,-4.61671 -0.0581,-0.694595 -0.12395,-4.947222 -0.16408,-10.607666 -0.066,-9.339565 -0.0889,-10.055552 -0.39059,-12.196553 -0.44945,-3.191594 -1.52154,-6.09843 -3.02311,-8.197466 -1.23422,-1.725431 -3.27922,-3.586487 -5.04129,-4.588459 -4.41875,-2.512557 -10.40264,-2.990769 -15.50862,-1.239237 -1.85123,0.634921 -3.54504,1.569952 -5.0329,2.778174 -0.93329,0.757852 -2.31879,2.178362 -2.90725,2.980739 -0.23336,0.318433 -0.44719,0.578931 -0.47514,0.578931 -0.0278,0 -0.0969,-0.434915 -0.15343,-0.966353 -0.1609,-1.513757 -0.50789,-3.398559 -0.88559,-4.809858 l -0.0864,-0.322116 -4.10709,0 -4.10707,0 0.10829,0.622739 c 0.36624,2.108555 0.61128,4.985196 0.72572,8.523677 0.0459,1.417747 0.084,9.428718 0.0848,17.802134 l 0.001,15.224376 4.20872,0 4.20871,0 0,-10.55229 0,0 z"
                   style="fill:#c80201;fill-opacity:1"
                   inkscape:connector-curvature="0" /><path
                   style="fill:#c80201;fill-opacity:1"
                   d="m 494.5625,1160.375 0,5.3438 0,5.3437 5.6875,0 5.6875,0 0,-5.3437 0,-5.3438 -5.6875,0 -5.6875,0 z m 2.96875,1.5 1.5,0 c 1.35533,0 1.54326,0.017 1.84375,0.094 0.97214,0.2486 1.603,0.9247 1.65625,1.7812 0.0453,0.7275 -0.20813,1.2313 -0.78125,1.5938 l -0.1875,0.125 0.21875,0.062 c 0.55564,0.1957 1.0114,0.6109 1.25,1.0938 0.15923,0.3222 0.1875,0.3209 0.1875,0.8125 0,0.4908 -0.0299,0.525 -0.1875,0.8437 -0.35502,0.7184 -0.97389,1.1001 -1.96875,1.25 -0.30069,0.045 -0.82817,0.062 -1.96875,0.063 l -1.5625,0 0,-3.8438 0,-3.875 z m 1.375,1.2188 0,0.9687 0,1 0.5,0 c 0.26687,-4e-4 0.5924,-0.029 0.75,-0.062 0.69401,-0.1471 0.98232,-0.4735 0.9375,-1.0938 -0.0248,-0.3414 -0.13516,-0.5456 -0.4375,-0.6874 -0.2258,-0.1058 -0.30306,-0.1116 -1,-0.125 l -0.75,0 z m 0,3.1874 0,1.0626 0,1.0312 0.75,0 c 0.40925,-5e-4 0.8678,-0.01 1.03125,-0.031 0.71945,-0.104 1.125,-0.4676 1.125,-1.0313 0,-0.3566 -0.14015,-0.5707 -0.4375,-0.75 -0.35821,-0.216 -0.68092,-0.2813 -1.625,-0.2813 l -0.84375,0 z"
                   transform="matrix(1.9913537,0,0,1.9913537,-933.16944,-2271.4564)"
                   id="path4588"
                   inkscape:connector-curvature="0" /><path
                   style="fill:#c80201;fill-opacity:1"
                   d="m 507.65625,1160.375 0,5.3438 0,5.3437 5.71875,0 5.71875,0 0,-5.3437 0,-5.3438 -5.71875,0 -5.71875,0 z m 3.03125,1.5 1.46875,0 c 1.66569,9e-4 1.88068,0.022 2.40625,0.2812 0.79316,0.3919 1.22179,1.1747 1.09375,2 -0.0268,0.1729 -0.0801,0.3987 -0.125,0.5 -0.099,0.2239 -0.41791,0.5761 -0.625,0.6876 -0.15682,0.084 -0.19815,0.1562 -0.0937,0.1562 0.14444,0 0.74737,0.3498 0.96875,0.5625 0.48764,0.4686 0.69846,1.2158 0.53125,1.8437 -0.20822,0.7823 -0.81127,1.3193 -1.75,1.5626 -0.32753,0.085 -0.50557,0.1077 -2.125,0.125 l -1.75,0 0,-3.8438 0,-3.875 z m 1.375,1.2188 0,1 0,1 0.625,-0.031 c 0.3652,-0.014 0.68826,-0.055 0.8125,-0.094 0.50655,-0.1594 0.75519,-0.4627 0.75,-0.9688 -0.003,-0.3177 -0.0806,-0.4875 -0.28125,-0.6562 -0.22416,-0.1887 -0.51605,-0.25 -1.25,-0.25 l -0.65625,0 z m 0,3.1874 0,1.0626 0,1.0624 0.9375,-0.031 c 0.79435,-0.017 0.93158,-0.011 1.1875,-0.094 0.72989,-0.2364 0.99452,-1.0348 0.53125,-1.5624 -0.30393,-0.3461 -0.71041,-0.4365 -1.84375,-0.4376 l -0.8125,0 z"
                   transform="matrix(1.9913537,0,0,1.9913537,-933.16944,-2271.4564)"
                   id="path4580"
                   inkscape:connector-curvature="0" /><path
                   style="fill:#c80201;fill-opacity:1"
                   d="m 520.8125,1160.375 0,5.3438 0,5.3437 5.71875,0 5.6875,0 0,-5.3437 0,-5.3438 -5.6875,0 -5.71875,0 z m 5.9375,1.4062 c 0.82889,-0.046 1.64553,0.079 2.65625,0.4376 l 0.46875,0.1874 0,0.7188 c 0,0.3889 0.009,0.6875 0,0.6875 -0.009,0 -0.26144,-0.09 -0.53125,-0.2187 -0.95914,-0.4564 -1.59026,-0.6264 -2.46875,-0.5938 -0.45988,0.017 -0.62123,0.039 -0.96875,0.1562 -0.52537,0.1776 -0.86336,0.3915 -1.21875,0.75 -0.48178,0.486 -0.71993,1.1206 -0.71875,1.8438 0.002,0.768 0.23851,1.3405 0.75,1.8438 0.57394,0.5645 1.32032,0.8393 2.28125,0.8437 0.85161,0 1.56708,-0.1856 2.46875,-0.6563 l 0.5,-0.25 0,0.7188 0,0.7188 -0.28125,0.1562 c -0.809,0.3728 -1.50262,0.5083 -2.5,0.5312 -0.40334,0.01 -0.85073,0.021 -1,0 -1.55487,-0.219 -2.81263,-1.1353 -3.375,-2.4687 -0.33734,-0.8 -0.36936,-1.7362 -0.0937,-2.5937 0.43999,-1.3691 1.67462,-2.4154 3.1875,-2.7188 0.28557,-0.057 0.56745,-0.079 0.84375,-0.094 z"
                   transform="matrix(1.9913537,0,0,1.9913537,-933.16944,-2271.4564)"
                   id="path4572"
                   inkscape:connector-curvature="0" /></g><sodipodi:namedview
                 inkscape:current-layer="svg2413"
                 inkscape:window-y="-8"
                 inkscape:window-x="-8"
                 inkscape:cy="-22.75906"
                 inkscape:cx="1329.6704"
                 inkscape:zoom="0.25612053"
                 id="base-1"
                 pagecolor="#ffffff"
                 bordercolor="#666666"
                 borderopacity="1.0"
                 objecttolerance="10.0"
                 gridtolerance="10.0"
                 guidetolerance="10.0"
                 inkscape:pageopacity="0.0"
                 inkscape:pageshadow="2"
                 inkscape:window-width="1280"
                 inkscape:window-height="974" /></g></g></g></g></g></g></svg>