<svg height="296.19421" width="999" xmlns="http://www.w3.org/2000/svg"><g transform="matrix(2.5818855 0 0 2.5818855 916.628902 810.0134)"><g fill="#fff"><path d="m-188.08259-199.48903v-7.6001c-2.93376-5.62661-5.74708-11.71995-8.43994-18.28003h5.35888c1.73339 4.45315 3.65356 8.98643 5.7605 13.59986 2.29328-4.98615 4.22647-9.51943 5.79956-13.59986h4.96094c-2.66685 6.42662-5.44028 12.45322-8.32031 18.07984v7.80029z"/><path d="m-161.04968-204.96877c.90656-1.04003 1.35984-2.49348 1.35986-4.36035-.00002-1.86685-.4533-3.3203-1.35986-4.36035-.90659-.98631-2.14642-1.47947-3.71949-1.47949-1.57308.00002-2.81291.49318-3.71948 1.47949-.90739 1.04005-1.36109 2.4935-1.36108 4.36035-.00001 1.86687.45369 3.32032 1.36108 4.36035.90657.98634 2.1464 1.4795 3.71948 1.4795 1.57307 0 2.8129-.49316 3.71949-1.4795zm-11.05957 3.07984c-1.87989-1.91976-2.81983-4.39961-2.81983-7.43958 0-3.03994.93994-5.52 2.81983-7.44018 1.87987-1.92015 4.32657-2.88023 7.34008-2.88025 3.0135.00002 5.46019.9601 7.34009 2.88025 1.87987 1.92018 2.81981 4.40024 2.81983 7.44018-.00002 3.03997-.93996 5.51982-2.81983 7.43958-1.8799 1.91976-4.32659 2.87964-7.34009 2.87964-3.01351 0-5.46021-.95988-7.34008-2.87964z"/><path d="m-138.88033-219.28883-.48095 4.39941c-.93345-.18634-1.75986-.27952-2.47925-.27954-1.4673.00002-2.66725.54648-3.59985 1.6394-.82684.98716-1.24025 2.84059-1.24024 5.56031v8.48022h-4.88037v-14.16015c0-2.26643-.13347-4.10643-.40039-5.52002h4.76074c.26611.93345.43945 1.93361.52002 3.00048h.0403c1.27929-2.29327 3.15917-3.43992 5.63965-3.43994.90656.00002 1.61335.10663 2.12036.31983z"/><path d="m-135.62046-199.48903v-25.88013h4.88037v14.68018c.29296-.29296 1.29271-1.34642 2.99926-3.1604 1.97346-2.08006 3.38703-3.85333 4.24073-5.31982h5.11962c-1.11981 1.97348-3.13315 4.54672-6.04003 7.71972 1.30695 2.50734 2.01373 3.82732 2.12036 3.95996 2.79946 4.66716 4.49257 7.33399 5.07934 8.00049h-5.79956c-.53305-.69336-1.22641-1.75984-2.08008-3.19946-.42644-.64046-1.37289-2.37386-2.83935-5.2002l-2.80029 2.83936v5.5603z"/><path d="m-116.51311-200.96852 1.59912-3.56079c1.76025 1.1735 3.45377 1.76026 5.08057 1.76025.90656.00001 1.63329-.18656 2.18017-.55969.54687-.37312.8203-.89335.82031-1.56067-.00001-.55989-.23336-1.03983-.70007-1.43982-.46672-.39998-1.04676-.72-1.74011-.96008-.69337-.24007-1.44675-.53995-2.26013-.89966-.8134-.35969-1.56678-.73953-2.26014-1.13953-.69336-.39997-1.27339-.99343-1.74011-1.78039-.46672-.78694-.70007-1.70043-.70007-2.74048 0-1.83999.72001-3.26658 2.16003-4.27979 1.44002-1.01316 3.14677-1.51975 5.12024-1.51977 2.34618.00002 4.38598.61322 6.11939 1.8396l-1.59912 3.40088c-1.41359-1.01398-2.85361-1.52098-4.32007-1.521-.79998.00002-1.40667.20001-1.82007.59998-.41342.4-.62012.85349-.62012 1.36047 0 .55991.31331 1.05328.93994 1.4801.62662.42686 1.38.80019 2.26014 1.12.88011.31983 1.76003.69317 2.63977 1.11999.8797.42685 1.63288 1.05348 2.25952 1.87989.62661.82642.93992 1.82638.93994 2.99987-.00002 2.02638-.73325 3.59294-2.19971 4.69971-1.46648 1.10677-3.29306 1.66016-5.47973 1.66016-1.09376 0-2.30063-.19328-3.62061-.57984-1.31999-.38655-2.33968-.84635-3.05908-1.37939z"/><path d="m-78.89608-199.48903h-4.840088c-.2938-1.35986-.440691-3.18644-.440674-5.47974v-4.11987c-.000017-2.53335-.373145-4.17357-1.119385-4.92065-.773941-.7731-1.840834-1.15965-3.200683-1.15967-1.546236.00002-2.839366.53346-3.879395 1.60034-.507007.55991-.833748 1.25307-.980224 2.07947-.146493.82643-.219735 1.9863-.219727 3.47961v8.52051h-4.880371v-25.88013h4.840088v9.16016h.04028c.506177-.96027 1.339306-1.77366 2.49939-2.44018 1.160063-.66649 2.486763-.99974 3.980102-.99976 2.346989.00002 4.240297.71983 5.679932 2.15942.747049.77395 1.28721 1.72752 1.620483 2.86072.33323 1.13323.499856 2.68658.499878 4.66003v5c-.000022 2.23959.133441 4.06617.400391 5.47974z"/><path d="m-74.04076-205.00905v-14.16015h4.880366v14.16015c0 2.26644.13346 4.10645.4004 5.52002h-4.840093c-.293785-1.35986-.440676-3.19987-.440673-5.52002zm.360107-17.08008c-.559898-.55987-.839846-1.26645-.839844-2.11975-.000002-.85324.286659-1.56654.859986-2.13989.573319-.5733 1.273392-.85996 2.100219-.85999.852858.00003 1.566158.28669 2.139898.85999.57372.57335.86058 1.28644.86059 2.13928-.00001.82685-.28687 1.52692-.86059 2.10022-.57374.57335-1.28724.86001-2.140508.85999-.853276.00002-1.559859-.27993-2.119751-.83985z"/><path d="m-51.21748-219.28883-.48096 4.39941c-.93345-.18634-1.75986-.27952-2.47925-.27954-1.4673.00002-2.66725.54648-3.59985 1.6394-.82683.98716-1.24024 2.84059-1.24024 5.56031v8.48022h-4.88037v-14.16015c0-2.26643-.13346-4.10643-.40039-5.52002h4.76074c.26611.93345.43945 1.93361.52002 3.00048h.0403c1.27928-2.29327 3.15916-3.43992 5.63964-3.43994.90657.00002 1.61335.10663 2.12037.31983z"/><path d="m-30.44376-207.64943h-14.4397c.16031 1.35987.7137 2.45993 1.66016 3.30017.94644.84026 2.24649 1.26038 3.90014 1.26038 2.53335 0 4.77334-.66691 6.71997-2.00073l1.51978 3.24096c-2.37307 1.89291-5.34629 2.83936-8.91968 2.83936-2.93376 0-5.33387-.94666-7.20032-2.83997-1.86645-1.8933-2.79968-4.37316-2.79968-7.43957 0-3.04036.92672-5.52713 2.78015-7.46033 1.85343-1.93317 4.23319-2.89976 7.13929-2.89978 3.01349.00002 5.40037.94667 7.16064 2.83996 1.76023 1.89333 2.64036 4.36017 2.64038 7.40052-.00002.42644-.0537 1.01278-.16113 1.75903zm-14.4397-3.479h9.60083c-.00002-1.36067-.42685-2.45421-1.28052-3.28064-.85369-.8264-2.02719-1.23961-3.5205-1.23963-1.35988.00002-2.45973.42665-3.29957 1.27991-.83985.85329-1.33993 1.9334-1.50024 3.24036z"/><path d="m-165.40732-313.71395c-.68562-.009-1.38202-.002-2.07909.0185-8.84178.26911-16.63586 2.99491-23.03705 8.05647-3.50754 2.77334-7.16473 7.32221-9.28165 11.52781-5.70546 11.33618-5.80106 26.70822-.24132 38.07335 1.90701 3.89842 3.82442 6.58484 6.83129 9.5972 6.08634 6.09779 13.65533 9.49484 23.40832 10.48829 1.4977.15255 8.30617-.0416 9.81998-.27842 8.37705-1.31285 15.10693-4.50188 20.47532-9.6901 6.24423-6.03476 9.83715-13.46442 11.13798-23.03705.33401-2.45899.37261-8.65796.0742-11.10085-1.17566-9.6264-4.9165-17.52904-11.11941-23.5197-6.74441-6.51359-15.70438-10.00506-25.98862-10.13556zm-.31557 13.97816c1.90197.017 3.79766.20387 5.51329.5569 8.92796 1.83691 14.62478 8.04538 16.28002 17.74651.65944 3.86318.65927 9.36488 0 13.27276-1.79991 10.6692-8.5548 17.1031-19.06451 18.19206-1.66167.17215-4.65728.1598-6.34865-.0184-5.39217-.56896-9.65664-2.47976-12.99431-5.82888-3.28688-3.29815-5.19754-7.42116-6.10732-13.21707-.38406-2.44754-.38137-8.91517 0-11.45355.32688-2.17915.97883-4.73839 1.59644-6.29296 2.29359-5.77376 6.46718-9.78391 12.21465-11.71344 2.52804-.84878 5.74043-1.27213 8.91039-1.24374z"/><path d="m-4.7605396-313.65826c-4.1535691-.0117-5.2820864.083-8.3349204.68684-12.923097 2.55609-22.885796 11.40982-27.065289 24.02091-1.932216 5.83062-2.685054 11.97436-2.190469 18.04352 1.083426 13.29432 7.037284 23.61498 17.115361 29.70131 4.752394 2.86986 9.619934 4.41278 16.651278 5.25338.28894.0345 2.4887769.0422 4.8821474.0184 3.42618478-.0339 4.8635305-.1131 6.8127303-.37127 8.7600763-1.15906 16.3682253-3.79612 22.4987173-7.77805 1.631467-1.05962 3.32283-2.31088 3.32283-2.46889 0-.0678-1.264229-2.44875-2.803058-5.29057l-2.803058-5.1606-.816785.53831c-11.286824 7.22002-27.8869682 9.16617-37.832001 4.45519-6.198793-2.93638-9.804172-8.02522-11.175105-15.77877l-.09282-.48265h28.9587448 28.9587442l.07425-.33414c.446493-1.91254.645349-7.16623.389829-10.24694-.362991-4.37082-.953999-7.3619-2.190469-11.11941-3.851911-11.70649-12.411689-19.64819-24.3179205-22.57297-3.5191557-.86455-5.56857946-1.10128-10.0427441-1.1138zm-1.2251777 13.81109c2.1980905-.0409 4.6957897.0871 6.18157821.3527 4.33433699.77479 7.60659789 2.3173 10.37688309 4.88215 3.29885 3.05407 5.407635 7.69569 5.698933 12.56735l.09282 1.61501h-21.4962986-21.4962984l.09282-.89104c.343133-3.28258 1.674511-6.96829 3.564153-9.83854 1.093785-1.66133 3.62216-4.16529 5.34623-5.29054 2.363883-1.54224 5.145045-2.5904 8.2792308-3.1372.8162446-.14249 2.0411015-.23532 3.3599569-.25989z"/><path d="m-106.11769-256.24832c0-11.33528.0596-19.17912.15477-20.36875.60884-7.59762 2.54555-12.49718 6.522082-16.49894 4.226886-4.2537 9.91177-6.27318 16.955271-6.02338 5.645369.20026 9.581689 1.75287 12.681182 5.0013 2.433235 2.55037 3.879808 5.53076 4.724148 9.73333.616715 3.07088.677858 4.47918.75888 17.55642.105863 17.0377.389249 22.56882 1.443341 28.17111l.162639.86293h7.306324 7.306167l-.273567-1.68814c-.284312-1.75233-.596155-4.5845-.887629-8.06503-.101496-1.2134-.216531-8.64241-.286635-18.53076-.115296-16.31549-.155301-17.56626-.68233-21.30642-.785154-5.57547-2.658011-10.65348-5.281136-14.32033-2.156085-3.01419-5.728539-6.26531-8.806737-8.01568-7.71921-4.38924-18.172596-5.22464-27.092342-2.16485-3.233954 1.10916-6.192907 2.74258-8.792078 4.85325-1.63039 1.32391-4.05075 3.80543-5.07874 5.20712-.40766.55628-.78121 1.01135-.83003 1.01135-.0486 0-.16928-.75976-.26803-1.68815-.28108-2.64441-.88725-5.93701-1.54706-8.40244l-.15093-.56271h-7.17477-7.17473l.18918 1.08788c.63979 3.68348 1.06786 8.70874 1.26777 14.89019.0802 2.47669.14675 16.47123.14814 31.09893l.002 26.59579h7.3523 7.35229v-18.43402z"/></g><g fill="#c80201"><path d="m-355.02304-311.6153v18.58969 18.58933h19.78532 19.78533v-18.58933-18.58969h-19.78533zm10.3275 5.21811h5.21811c4.71484 0 5.3686.0591 6.41393.327 3.38182.86482 5.57641 3.21679 5.76166 6.19633.15758 2.53078-.72403 4.28337-2.71777 5.54442l-.65226.43484.76097.21568c1.93293.68079 3.5184 2.12516 4.34843 3.80504.55392 1.12085.65226 1.11633.65226 2.82648 0 1.70736-.10401 1.82634-.65226 2.93501-1.23503 2.49913-3.38791 3.82696-6.84877 4.34842-1.04602.15655-2.88099.21569-6.84877.21916h-5.43553v-13.37157-13.48011zm4.78327 4.23989v3.36985 3.47874h1.73937c.92837-.001 2.0608-.10088 2.60905-.21568 2.41428-.51172 3.41724-1.64718 3.26132-3.80505-.0863-1.18764-.47019-1.898-1.52195-2.39128-.7855-.36805-1.05426-.38823-3.47874-.43484h-2.60905zm0 11.08813v3.69651 3.58727h2.60905c1.42368-.002 3.01885-.0348 3.58745-.10784 2.50278-.36179 3.91358-1.62666 3.91358-3.58762 0-1.24052-.48754-1.98532-1.52194-2.60906-1.24612-.7514-2.36875-.97857-5.65295-.97857h-2.93519z"/><path d="m-309.47331-311.6153v18.58969 18.58933h19.89404 19.89404v-18.58933-18.58969h-19.89404zm10.54493 5.21811h5.1094c5.7945.003 6.54239.0765 8.37071.97822 2.7592 1.36332 4.25029 4.08648 3.80487 6.95748-.0932.60147-.27865 1.38697-.43484 1.73937-.3444.77889-1.4538 2.0041-2.17421 2.39198-.54554.29221-.68931.54338-.32596.54338.50247 0 2.5999 1.21686 3.37003 1.95679 1.69637 1.63014 2.42976 4.22945 1.84808 6.41375-.72435 2.72142-2.8222 4.5895-6.0878 5.43588-1.13939.29569-1.75874.37466-7.39231.43484h-6.0878v-13.37158-13.48011zm4.78326 4.23989v3.47874 3.47873l2.17422-.10784c1.27043-.0487 2.39427-.19133 2.82647-.327 1.76216-.55451 2.62711-1.60961 2.60906-3.3702-.0104-1.10519-.28039-1.69588-.9784-2.28275-.77979-.65644-1.7952-.86968-4.34842-.86968zm0 11.08813v3.69651 3.69581l3.26132-.10784c2.76334-.0591 3.24073-.0383 4.131-.327 2.5391-.82238 3.45968-3.5998 1.84808-5.43519-1.05729-1.20399-2.47133-1.51846-6.41392-1.52229z"/><path d="m-263.70615-311.6153v18.58969 18.58933h19.89403 19.78533v-18.58933-18.58969h-19.78533zm20.65501 4.89181c2.88349-.16003 5.72437.27482 9.2404 1.52229l1.63066.65192v2.50051c0 1.35289.0313 2.39164 0 2.39164s-.90949-.31309-1.84808-.7608c-3.3366-1.5877-5.5321-2.17909-8.58814-2.06568-1.5998.0591-2.1611.13567-3.37003.54338-1.82762.61782-3.0034 1.36193-4.23971 2.60905-1.67599 1.69067-2.50445 3.89828-2.50034 6.4141.007 2.67167.82971 4.66325 2.60905 6.4141 1.99659 1.96375 4.59305 2.91971 7.93587 2.93501 2.96253 0 5.45146-.64565 8.58814-2.28309l1.73937-.86969v2.50052 2.50052l-.9784.54338c-2.8143 1.29687-5.22722 1.76824-8.69684 1.8479-1.40312.0348-2.95947.0731-3.47874 0-5.40899-.76184-9.78441-3.94941-11.74075-8.58796-1.17351-2.78299-1.2849-6.03979-.32595-9.0228 1.53061-4.76275 5.82556-8.40255 11.08848-9.458.99342-.19829 1.97401-.27482 2.93518-.327z"/></g></g></svg>