<?xml version="1.0" encoding="UTF-8" standalone="no"?>
<!-- Created with Inkscape (http://www.inkscape.org/) -->

<svg
   xmlns:dc="http://purl.org/dc/elements/1.1/"
   xmlns:cc="http://creativecommons.org/ns#"
   xmlns:rdf="http://www.w3.org/1999/02/22-rdf-syntax-ns#"
   xmlns:svg="http://www.w3.org/2000/svg"
   xmlns="http://www.w3.org/2000/svg"
   xmlns:sodipodi="http://sodipodi.sourceforge.net/DTD/sodipodi-0.dtd"
   xmlns:inkscape="http://www.inkscape.org/namespaces/inkscape"
   width="887.83691"
   height="576.66998"
   id="svg5480"
   version="1.1"
   inkscape:version="0.91 r13725"
   sodipodi:docname="BBC Two Northern Ireland HD - Dark.svg"
   hola_ext_inject="disabled">
  <defs
     id="defs5482">
    <clipPath
       clipPathUnits="userSpaceOnUse"
       id="clipPath5114">
      <path
         inkscape:connector-curvature="0"
         d="m 90.708,540.993 47.382,0 0,34.44 -47.382,0 0,-34.44 z"
         id="path5116" />
    </clipPath>
    <clipPath
       clipPathUnits="userSpaceOnUse"
       id="clipPath5114-2">
      <path
         inkscape:connector-curvature="0"
         d="m 90.708,540.993 47.382,0 0,34.44 -47.382,0 0,-34.44 z"
         id="path5116-3" />
    </clipPath>
    <clipPath
       clipPathUnits="userSpaceOnUse"
       id="clipPath5114-6">
      <path
         inkscape:connector-curvature="0"
         d="m 90.708,540.993 47.382,0 0,34.44 -47.382,0 0,-34.44 z"
         id="path5116-4" />
    </clipPath>
  </defs>
  <sodipodi:namedview
     id="base"
     pagecolor="#ffffff"
     bordercolor="#666666"
     borderopacity="1.0"
     inkscape:pageopacity="0.0"
     inkscape:pageshadow="2"
     inkscape:zoom="0.40651735"
     inkscape:cx="-474.93869"
     inkscape:cy="81.44136"
     inkscape:document-units="px"
     inkscape:current-layer="flowRoot5434"
     showgrid="false"
     fit-margin-left="0.5"
     fit-margin-bottom="0.5"
     fit-margin-top="0.5"
     fit-margin-right="0.5"
     inkscape:window-width="1920"
     inkscape:window-height="1017"
     inkscape:window-x="-8"
     inkscape:window-y="-8"
     inkscape:window-maximized="1" />
  <metadata
     id="metadata5485">
    <rdf:RDF>
      <cc:Work
         rdf:about="">
        <dc:format>image/svg+xml</dc:format>
        <dc:type
           rdf:resource="http://purl.org/dc/dcmitype/StillImage" />
        <dc:title></dc:title>
      </cc:Work>
    </rdf:RDF>
  </metadata>
  <g
     inkscape:label="Layer 1"
     inkscape:groupmode="layer"
     id="layer1"
     transform="translate(28.556295,394.48642)">
    <g
       transform="matrix(3.1764246,0,0,3.1764246,-430.37404,-1568.0184)"
       style="font-style:normal;font-weight:normal;font-size:40px;line-height:125%;font-family:Sans;text-align:center;letter-spacing:0px;word-spacing:0px;text-anchor:middle;fill:#ffffff;fill-opacity:1;stroke:none"
       id="flowRoot5434">
      <path
         inkscape:connector-curvature="0"
         id="path5787"
         style="line-height:125%;font-family:'Avenir LT W02 95 Black';-inkscape-font-specification:'Avenir LT W02 95 Black';fill:#005e70;fill-opacity:1"
         d="m 126.65742,525.2192 7.54411,0 10.71075,17.50772 0.0717,0 0,-17.50772 5.55139,0 0,25.19409 -7.25959,0 -10.99527,-17.9345 -0.0717,0 0,17.9345 -5.55139,0 z" />
      <path
         inkscape:connector-curvature="0"
         id="path5789"
         style="line-height:125%;font-family:'Avenir LT W02 95 Black';-inkscape-font-specification:'Avenir LT W02 95 Black';fill:#005e70;fill-opacity:1"
         d="m 154.32314,541.76586 c 0,-1.37553 0.24905,-2.62076 0.74714,-3.73568 0.49809,-1.1149 1.18007,-2.06981 2.04593,-2.86474 0.86586,-0.7949 1.88594,-1.40576 3.06022,-1.83255 1.17427,-0.42676 2.42564,-0.64015 3.75413,-0.64017 1.32848,2e-5 2.57985,0.21341 3.75414,0.64017 1.17426,0.42679 2.19433,1.03765 3.06021,1.83255 0.86585,0.79493 1.54801,1.74984 2.04648,2.86474 0.49843,1.11492 0.74766,2.36015 0.74768,3.73568 -2e-5,1.37626 -0.24925,2.62185 -0.74768,3.73676 -0.49847,1.11491 -1.18063,2.06982 -2.04648,2.86474 -0.86588,0.79492 -1.88595,1.40576 -3.06021,1.83254 -1.17429,0.42679 -2.42566,0.64017 -3.75414,0.64017 -1.32849,0 -2.57986,-0.21338 -3.75413,-0.64017 -1.17428,-0.42678 -2.19436,-1.03762 -3.06022,-1.83254 -0.86586,-0.79492 -1.54784,-1.74983 -2.04593,-2.86474 -0.49809,-1.11491 -0.74714,-2.3605 -0.74714,-3.73676 z m 5.33746,0 c -10e-6,1.30531 0.37356,2.36122 1.1207,3.16772 0.74713,0.8065 1.79688,1.20975 3.14926,1.20975 1.35236,0 2.40212,-0.40325 3.14927,-1.20975 0.74712,-0.8065 1.12068,-1.86241 1.1207,-3.16772 -2e-5,-1.30458 -0.37358,-2.36013 -1.1207,-3.16664 -0.74715,-0.80649 -1.79691,-1.20974 -3.14927,-1.20975 -1.35238,1e-5 -2.40213,0.40326 -3.14926,1.20975 -0.74714,0.80651 -1.12071,1.86206 -1.1207,3.16664 z" />
      <path
         inkscape:connector-curvature="0"
         id="path5791"
         style="line-height:125%;font-family:'Avenir LT W02 95 Black';-inkscape-font-specification:'Avenir LT W02 95 Black';fill:#005e70;fill-opacity:1"
         d="m 176.64816,533.1195 5.33745,0 0,2.7757 0.0706,0 c 0.56975,-1.06784 1.24612,-1.86855 2.0291,-2.40213 0.78296,-0.53355 1.76737,-0.80033 2.95324,-0.80035 0.30841,2e-5 0.61682,0.0117 0.92524,0.0353 0.3084,0.0236 0.59291,0.0708 0.85356,0.14171 l 0,4.87593 c -0.37937,-0.11872 -0.75294,-0.20777 -1.12071,-0.26715 -0.36779,-0.0593 -0.75329,-0.089 -1.15654,-0.089 -1.02008,10e-6 -1.82657,0.14227 -2.4195,0.42677 -0.59294,0.28454 -1.04957,0.68181 -1.36992,1.19183 -0.32037,0.51005 -0.52797,1.1209 -0.6228,1.83255 -0.0948,0.71167 -0.14227,1.49464 -0.14226,2.34892 l 0,7.22375 -5.33745,0 z" />
      <path
         inkscape:connector-curvature="0"
         id="path5793"
         style="line-height:125%;font-family:'Avenir LT W02 95 Black';-inkscape-font-specification:'Avenir LT W02 95 Black';fill:#005e70;fill-opacity:1"
         d="m 202.88258,537.38947 -4.69674,0 0,5.76423 c -1e-5,0.47493 0.0237,0.90805 0.0712,1.29934 0.0474,0.39132 0.15401,0.72923 0.31981,1.01374 0.16578,0.28452 0.4208,0.50389 0.76506,0.65809 0.34423,0.15421 0.80088,0.23131 1.36993,0.2313 0.2845,10e-6 0.65807,-0.0295 1.12069,-0.0885 0.46261,-0.059 0.81265,-0.19528 1.05012,-0.40886 l 0,4.44806 c -0.59294,0.21357 -1.20976,0.35583 -1.85046,0.42678 -0.64072,0.0709 -1.26949,0.10642 -1.8863,0.10642 -0.90135,0 -1.73156,-0.0948 -2.49063,-0.28452 -0.75909,-0.18968 -1.42333,-0.49211 -1.99272,-0.90731 -0.56941,-0.41519 -1.01429,-0.95491 -1.33463,-1.61916 -0.32037,-0.66424 -0.48055,-1.47091 -0.48055,-2.42004 l 0,-8.21957 -3.41532,0 0,-4.26997 3.41532,0 0,-5.12461 5.33855,0 0,5.12461 4.69674,0 z" />
      <path
         inkscape:connector-curvature="0"
         id="path5795"
         style="line-height:125%;font-family:'Avenir LT W02 95 Black';-inkscape-font-specification:'Avenir LT W02 95 Black';fill:#005e70;fill-opacity:1"
         d="m 210.898,523.511 0,11.95633 0.0706,0 c 0.11872,-0.33156 0.32053,-0.6635 0.60542,-0.99581 0.28487,-0.33229 0.62894,-0.62894 1.0322,-0.88994 0.40324,-0.26098 0.87762,-0.47436 1.42314,-0.64017 0.5455,-0.16578 1.1386,-0.24867 1.77933,-0.24869 1.35236,2e-5 2.44356,0.20744 3.2736,0.62226 0.83002,0.41484 1.47634,0.99004 1.93898,1.72557 0.46259,0.73557 0.77697,1.60161 0.94314,2.59815 0.16613,0.99655 0.24921,2.0758 0.24923,3.23776 l 0,9.53683 -5.33746,0 0,-8.46934 c -1e-5,-0.49808 -0.0177,-1.0139 -0.0532,-1.54748 -0.0355,-0.53356 -0.14227,-1.02585 -0.32036,-1.47689 -0.17811,-0.45103 -0.45104,-0.8188 -0.8188,-1.10334 -0.36779,-0.2845 -0.89556,-0.42676 -1.58332,-0.42677 -0.68778,1e-5 -1.24523,0.12453 -1.67237,0.37357 -0.42715,0.24905 -0.7533,0.58117 -0.97844,0.99635 -0.22516,0.41521 -0.3734,0.8838 -0.4447,1.40577 -0.0713,0.52199 -0.10698,1.0675 -0.10697,1.63653 l 0,8.6116 -5.33745,0 0,-26.90229 z" />
      <path
         inkscape:connector-curvature="0"
         id="path5797"
         style="line-height:125%;font-family:'Avenir LT W02 95 Black';-inkscape-font-specification:'Avenir LT W02 95 Black';fill:#005e70;fill-opacity:1"
         d="m 242.36238,547.42366 c -0.8543,1.09175 -1.93373,1.93409 -3.23831,2.52702 -1.3046,0.59293 -2.65661,0.88939 -4.05603,0.88939 -1.32849,0 -2.57987,-0.21338 -3.75414,-0.64017 -1.17428,-0.42678 -2.19453,-1.03762 -3.06075,-1.83254 -0.86624,-0.79492 -1.54839,-1.74983 -2.04648,-2.86474 -0.49809,-1.11491 -0.74714,-2.3605 -0.74714,-3.73676 0,-1.37553 0.24905,-2.62076 0.74714,-3.73568 0.49809,-1.1149 1.18024,-2.06981 2.04648,-2.86474 0.86622,-0.7949 1.88647,-1.40576 3.06075,-1.83255 1.17427,-0.42676 2.42565,-0.64015 3.75414,-0.64017 1.2329,2e-5 2.35361,0.21341 3.36211,0.64017 1.00847,0.42679 1.86257,1.03765 2.56231,1.83255 0.69969,0.79493 1.23941,1.74984 1.61915,2.86474 0.3797,1.11492 0.56956,2.36015 0.56958,3.73568 l 0,1.67236 -12.3842,0 c 0.21356,1.02008 0.67618,1.83273 1.38784,2.43796 0.71166,0.60524 1.58947,0.90786 2.63344,0.90786 0.87816,0 1.61968,-0.19583 2.22457,-0.5875 0.60487,-0.39166 1.13245,-0.89591 1.58278,-1.51273 z m -4.51973,-7.61469 c 0.0238,-0.90133 -0.27259,-1.67236 -0.8894,-2.31308 -0.61683,-0.6407 -1.41139,-0.96105 -2.38366,-0.96107 -0.59294,2e-5 -1.11492,0.095 -1.56595,0.28507 -0.45103,0.19005 -0.83655,0.4333 -1.15653,0.72976 -0.32,0.29648 -0.56905,0.64036 -0.74714,1.03165 -0.1781,0.39132 -0.2791,0.80054 -0.30298,1.22767 z" />
      <path
         inkscape:connector-curvature="0"
         id="path5799"
         style="line-height:125%;font-family:'Avenir LT W02 95 Black';-inkscape-font-specification:'Avenir LT W02 95 Black';fill:#005e70;fill-opacity:1"
         d="m 246.4271,533.1195 5.33746,0 0,2.7757 0.0706,0 c 0.56975,-1.06784 1.24612,-1.86855 2.0291,-2.40213 0.78296,-0.53355 1.76737,-0.80033 2.95324,-0.80035 0.30841,2e-5 0.61682,0.0117 0.92524,0.0353 0.3084,0.0236 0.59291,0.0708 0.85356,0.14171 l 0,4.87593 c -0.37937,-0.11872 -0.75294,-0.20777 -1.12071,-0.26715 -0.36779,-0.0593 -0.75329,-0.089 -1.15654,-0.089 -1.02008,10e-6 -1.82657,0.14227 -2.4195,0.42677 -0.59294,0.28454 -1.04957,0.68181 -1.36992,1.19183 -0.32037,0.51005 -0.52797,1.1209 -0.6228,1.83255 -0.0948,0.71167 -0.14227,1.49464 -0.14226,2.34892 l 0,7.22375 -5.33745,0 z" />
      <path
         inkscape:connector-curvature="0"
         id="path5801"
         style="line-height:125%;font-family:'Avenir LT W02 95 Black';-inkscape-font-specification:'Avenir LT W02 95 Black';fill:#005e70;fill-opacity:1"
         d="m 260.8833,533.1195 5.12352,0 0,2.34783 0.0717,0 c 0.16578,-0.33156 0.40288,-0.6635 0.7113,-0.99581 0.3084,-0.33229 0.67618,-0.62894 1.10332,-0.88994 0.42714,-0.26098 0.91347,-0.47436 1.45898,-0.64017 0.54551,-0.16578 1.13861,-0.24867 1.77934,-0.24869 1.35236,2e-5 2.44356,0.20744 3.2736,0.62226 0.83002,0.41484 1.47634,0.99004 1.93897,1.72557 0.4626,0.73557 0.77698,1.60161 0.94315,2.59815 0.16613,0.99655 0.24921,2.0758 0.24922,3.23776 l 0,9.53683 -5.33745,0 0,-8.46934 c -1e-5,-0.49808 -0.0177,-1.0139 -0.0532,-1.54748 -0.0355,-0.53356 -0.14228,-1.02585 -0.32036,-1.47689 -0.17811,-0.45103 -0.45104,-0.8188 -0.81881,-1.10334 -0.36778,-0.2845 -0.89555,-0.42676 -1.58331,-0.42677 -0.68779,1e-5 -1.24524,0.12453 -1.67238,0.37357 -0.42714,0.24905 -0.75329,0.58117 -0.97844,0.99635 -0.22516,0.41521 -0.37339,0.8838 -0.4447,1.40577 -0.0713,0.52199 -0.10697,1.0675 -0.10696,1.63653 l 0,8.6116 -5.33745,0 z" />
      <path
         inkscape:connector-curvature="0"
         id="path5803"
         style="line-height:125%;font-family:'Avenir LT W02 95 Black';-inkscape-font-specification:'Avenir LT W02 95 Black';fill:#005e70;fill-opacity:1"
         d="m 292.4856,525.2192 5.55138,0 0,25.19409 -5.55138,0 z" />
      <path
         inkscape:connector-curvature="0"
         id="path5805"
         style="line-height:125%;font-family:'Avenir LT W02 95 Black';-inkscape-font-specification:'Avenir LT W02 95 Black';fill:#005e70;fill-opacity:1"
         d="m 302.44487,533.1195 5.33745,0 0,2.7757 0.0705,0 c 0.56976,-1.06784 1.24613,-1.86855 2.0291,-2.40213 0.78297,-0.53355 1.76738,-0.80033 2.95325,-0.80035 0.3084,2e-5 0.61681,0.0117 0.92523,0.0353 0.3084,0.0236 0.59292,0.0708 0.85357,0.14171 l 0,4.87593 c -0.37938,-0.11872 -0.75295,-0.20777 -1.12071,-0.26715 -0.36779,-0.0593 -0.7533,-0.089 -1.15654,-0.089 -1.02008,10e-6 -1.82658,0.14227 -2.41951,0.42677 -0.59293,0.28454 -1.04957,0.68181 -1.36992,1.19183 -0.32037,0.51005 -0.52797,1.1209 -0.6228,1.83255 -0.0948,0.71167 -0.14227,1.49464 -0.14226,2.34892 l 0,7.22375 -5.33745,0 z" />
      <path
         inkscape:connector-curvature="0"
         id="path5807"
         style="line-height:125%;font-family:'Avenir LT W02 95 Black';-inkscape-font-specification:'Avenir LT W02 95 Black';fill:#005e70;fill-opacity:1"
         d="m 333.26962,547.42366 c -0.8543,1.09175 -1.93374,1.93409 -3.23831,2.52702 -1.30461,0.59293 -2.65661,0.88939 -4.05603,0.88939 -1.3285,0 -2.57987,-0.21338 -3.75414,-0.64017 -1.17428,-0.42678 -2.19453,-1.03762 -3.06075,-1.83254 -0.86624,-0.79492 -1.54839,-1.74983 -2.04649,-2.86474 -0.49808,-1.11491 -0.74713,-2.3605 -0.74713,-3.73676 0,-1.37553 0.24905,-2.62076 0.74713,-3.73568 0.4981,-1.1149 1.18025,-2.06981 2.04649,-2.86474 0.86622,-0.7949 1.88647,-1.40576 3.06075,-1.83255 1.17427,-0.42676 2.42564,-0.64015 3.75414,-0.64017 1.2329,2e-5 2.35361,0.21341 3.36211,0.64017 1.00847,0.42679 1.86257,1.03765 2.5623,1.83255 0.6997,0.79493 1.23942,1.74984 1.61916,2.86474 0.37969,1.11492 0.56956,2.36015 0.56957,3.73568 l 0,1.67236 -12.38419,0 c 0.21356,1.02008 0.67618,1.83273 1.38784,2.43796 0.71165,0.60524 1.58947,0.90786 2.63344,0.90786 0.87816,0 1.61968,-0.19583 2.22457,-0.5875 0.60487,-0.39166 1.13245,-0.89591 1.58278,-1.51273 z m -4.51973,-7.61469 c 0.0238,-0.90133 -0.27259,-1.67236 -0.8894,-2.31308 -0.61683,-0.6407 -1.41139,-0.96105 -2.38366,-0.96107 -0.59295,2e-5 -1.11493,0.095 -1.56595,0.28507 -0.45103,0.19005 -0.83655,0.4333 -1.15653,0.72976 -0.32001,0.29648 -0.56905,0.64036 -0.74714,1.03165 -0.1781,0.39132 -0.2791,0.80054 -0.30298,1.22767 z" />
      <path
         inkscape:connector-curvature="0"
         id="path5809"
         style="line-height:125%;font-family:'Avenir LT W02 95 Black';-inkscape-font-specification:'Avenir LT W02 95 Black';fill:#005e70;fill-opacity:1"
         d="m 337.40492,523.511 5.33746,0 0,26.90229 -5.33746,0 z" />
      <path
         inkscape:connector-curvature="0"
         id="path5811"
         style="line-height:125%;font-family:'Avenir LT W02 95 Black';-inkscape-font-specification:'Avenir LT W02 95 Black';fill:#005e70;fill-opacity:1"
         d="m 357.43097,548.24247 -0.0717,0 c -0.59294,0.92523 -1.3817,1.58948 -2.36629,1.99272 -0.9846,0.40326 -2.02241,0.60488 -3.11343,0.60488 -0.8065,0 -1.58332,-0.11257 -2.33044,-0.33773 -0.74714,-0.22516 -1.40541,-0.56324 -1.97481,-1.01428 -0.5694,-0.45103 -1.02026,-1.00867 -1.35255,-1.6729 -0.33231,-0.66424 -0.49845,-1.43509 -0.49845,-2.31254 0,-0.99618 0.18388,-1.83833 0.55166,-2.52647 0.36777,-0.68813 0.86604,-1.25752 1.49481,-1.7082 0.62877,-0.45066 1.3464,-0.80052 2.1529,-1.04957 0.8065,-0.24904 1.64268,-0.43293 2.50855,-0.55167 0.86586,-0.11872 1.73173,-0.18985 2.5976,-0.21339 0.86586,-0.0235 1.66656,-0.0353 2.40213,-0.0353 -2e-5,-0.94911 -0.33811,-1.7024 -1.01429,-2.25986 -0.67619,-0.55745 -1.4769,-0.83618 -2.40212,-0.83619 -0.87746,1e-5 -1.67798,0.18391 -2.40159,0.55166 -0.72361,0.36779 -1.36993,0.87167 -1.93896,1.51165 l -2.84737,-2.91796 c 0.99618,-0.92521 2.15851,-1.61896 3.48699,-2.08123 1.32848,-0.46223 2.70438,-0.69336 4.12771,-0.69338 1.56593,2e-5 2.85296,0.19567 3.8611,0.58696 1.00812,0.39132 1.81479,0.96652 2.42005,1.72558 0.60522,0.7591 1.02639,1.69012 1.2635,2.79307 0.23709,1.10298 0.35564,2.37807 0.35565,3.82527 l 0,8.7897 -4.91067,0 z m -1.31617,-5.40912 c -0.40399,0 -0.90841,0.018 -1.51327,0.0537 -0.6049,0.0358 -1.18605,0.13666 -1.7435,0.30244 -0.55747,0.1658 -1.03184,0.41484 -1.42314,0.74713 -0.39131,0.33232 -0.58697,0.79493 -0.58696,1.38785 -1e-5,0.64072 0.27275,1.11528 0.81827,1.42368 0.5455,0.30842 1.11472,0.46263 1.70765,0.46262 0.52197,10e-6 1.02622,-0.0712 1.51274,-0.21338 0.48649,-0.14226 0.91943,-0.34389 1.29879,-0.60489 0.37935,-0.26098 0.68179,-0.5931 0.90732,-0.99635 0.2255,-0.40325 0.33826,-0.87781 0.33827,-1.42369 l 0,-1.13916 z" />
      <path
         inkscape:connector-curvature="0"
         id="path5813"
         style="line-height:125%;font-family:'Avenir LT W02 95 Black';-inkscape-font-specification:'Avenir LT W02 95 Black';fill:#005e70;fill-opacity:1"
         d="m 365.69073,533.1195 5.12351,0 0,2.34783 0.0717,0 c 0.16578,-0.33156 0.40288,-0.6635 0.7113,-0.99581 0.3084,-0.33229 0.67617,-0.62894 1.10332,-0.88994 0.42714,-0.26098 0.91346,-0.47436 1.45898,-0.64017 0.5455,-0.16578 1.13861,-0.24867 1.77933,-0.24869 1.35236,2e-5 2.44356,0.20744 3.27361,0.62226 0.83001,0.41484 1.47633,0.99004 1.93897,1.72557 0.4626,0.73557 0.77698,1.60161 0.94315,2.59815 0.16612,0.99655 0.2492,2.0758 0.24922,3.23776 l 0,9.53683 -5.33746,0 0,-8.46934 c -10e-6,-0.49808 -0.0177,-1.0139 -0.0532,-1.54748 -0.0355,-0.53356 -0.14227,-1.02585 -0.32035,-1.47689 -0.17811,-0.45103 -0.45105,-0.8188 -0.81881,-1.10334 -0.36779,-0.2845 -0.89556,-0.42676 -1.58332,-0.42677 -0.68778,1e-5 -1.24523,0.12453 -1.67237,0.37357 -0.42715,0.24905 -0.7533,0.58117 -0.97844,0.99635 -0.22516,0.41521 -0.3734,0.8838 -0.4447,1.40577 -0.0713,0.52199 -0.10697,1.0675 -0.10697,1.63653 l 0,8.6116 -5.33745,0 z" />
      <path
         inkscape:connector-curvature="0"
         id="path5815"
         style="line-height:125%;font-family:'Avenir LT W02 95 Black';-inkscape-font-specification:'Avenir LT W02 95 Black';fill:#005e70;fill-opacity:1"
         d="m 404.27136,550.41329 -4.91068,0 0,-2.27724 -0.0706,0 c -0.21358,0.30842 -0.49231,0.6228 -0.83618,0.94315 -0.3439,0.32035 -0.74715,0.61085 -1.20975,0.87148 -0.46263,0.26063 -0.97266,0.47402 -1.5301,0.64016 -0.55747,0.16616 -1.13303,0.24923 -1.72667,0.24923 -1.28071,0 -2.44304,-0.21936 -3.48699,-0.65808 -1.04397,-0.43873 -1.93952,-1.05555 -2.68665,-1.85047 -0.74714,-0.79491 -1.32233,-1.73788 -1.72558,-2.8289 -0.40325,-1.09101 -0.60488,-2.28919 -0.60488,-3.59451 0,-1.20974 0.1839,-2.3661 0.55167,-3.46907 0.36778,-1.10295 0.88957,-2.08139 1.5654,-2.93533 0.67582,-0.85391 1.50005,-1.53588 2.47271,-2.04593 0.97265,-0.51002 2.07579,-0.76504 3.30945,-0.76506 1.11489,2e-5 2.15288,0.17196 3.11396,0.51583 0.96106,0.3439 1.75,0.93104 2.36683,1.76142 l 0.0705,0 0,-11.45897 5.33746,0 z m -4.91068,-8.64743 c -2e-5,-1.30458 -0.37359,-2.36013 -1.12071,-3.16664 -0.74715,-0.80649 -1.7969,-1.20974 -3.14926,-1.20975 -1.35238,1e-5 -2.40213,0.40326 -3.14926,1.20975 -0.74714,0.80651 -1.12071,1.86206 -1.1207,3.16664 -10e-6,1.30531 0.37356,2.36122 1.1207,3.16772 0.74713,0.8065 1.79688,1.20975 3.14926,1.20975 1.35236,0 2.40211,-0.40325 3.14926,-1.20975 0.74712,-0.8065 1.12069,-1.86241 1.12071,-3.16772 z" />
      <path
         inkscape:connector-curvature="0"
         style="fill:#005e70;fill-opacity:1;fill-rule:nonzero;stroke:none"
         id="path27227"
         d="m 291.10017,369.60801 39.87913,0 0,37.52667 -39.87913,0 0,-37.52667 z m 25.12282,5.22266 c -0.18007,-0.0225 -0.36017,-0.0563 -0.54028,-0.0788 l -0.21385,-0.0338 c -0.30391,-0.045 -0.61906,-0.0788 -0.92295,-0.11257 -0.21388,-0.0113 -0.42773,-0.0338 -0.6416,-0.045 -0.37143,-0.0225 -0.75413,-0.0338 -1.10305,-0.0338 -0.16885,0 -0.27015,0 -0.42773,0.0113 -0.29264,0 -0.58529,0.0113 -0.87794,0.0338 -0.16885,0.0113 -0.32642,0.0225 -0.49525,0.0338 -0.23637,0.0225 -0.47276,0.045 -0.69787,0.0788 l -0.19134,0.0225 -0.21388,0.0338 -0.27012,0.045 c -0.11262,0.0225 -0.22511,0.0338 -0.33766,0.0563 -0.15757,0.0338 -0.31518,0.0675 -0.47275,0.10131 -0.93423,0.19134 -1.81218,0.46148 -2.62258,0.77664 -0.41647,0.15758 -0.82167,0.33768 -1.20438,0.51777 -0.31515,0.15758 -0.6078,0.31516 -0.91171,0.49525 -0.28139,0.15758 -0.55152,0.32642 -0.82167,0.49525 -0.14624,0.10131 -0.29265,0.20261 -0.43898,0.31516 -0.12375,0.09 -0.24762,0.1801 -0.37143,0.27014 -0.24763,0.19135 -0.49525,0.39396 -0.72037,0.59656 -0.21386,0.18009 -0.42773,0.38269 -0.60781,0.57404 -0.16883,0.15758 -0.33767,0.32642 -0.49526,0.50651 -0.15757,0.18009 -0.32641,0.36018 -0.47274,0.55153 -0.16882,0.2026 -0.32641,0.41646 -0.48399,0.63032 -0.12375,0.15758 -0.22511,0.32642 -0.33767,0.484 -0.0788,0.11256 -0.14625,0.22512 -0.21387,0.34893 -0.41646,0.67534 -0.78789,1.40697 -1.08054,2.18361 -0.37145,0.968 -0.64158,2.00353 -0.79917,3.11785 -0.045,0.34893 -0.0788,0.69785 -0.10127,1.06929 -0.0111,0.27014 -0.0225,0.55153 -0.0225,0.84418 0,0.20261 0,0.41647 0.0111,0.63033 0.0111,0.21386 0.0338,0.42772 0.0563,0.64157 l 0.0111,0.15759 c 0.045,0.24763 0.0788,0.49525 0.12375,0.74288 0.0225,0.10131 0.0338,0.19135 0.0563,0.29265 0.045,0.2026 0.10128,0.40521 0.1464,0.60781 0.0788,0.25888 0.14641,0.50651 0.22513,0.75413 0.1126,0.30391 0.21385,0.60782 0.33767,0.88921 0.19135,0.46149 0.4052,0.90046 0.63032,1.31692 0.13508,0.24763 0.27014,0.484 0.41646,0.70911 0.11259,0.19135 0.22511,0.36019 0.34893,0.52902 0.15759,0.22512 0.31515,0.45023 0.47274,0.65284 0.16884,0.21386 0.34893,0.42772 0.51777,0.61906 0.21385,0.24763 0.41646,0.46149 0.63032,0.66409 l 0.1126,0.11257 c 0.16885,0.16884 0.3602,0.34893 0.57405,0.52903 0.14624,0.1238 0.29265,0.25888 0.45023,0.38269 0.15759,0.11257 0.31517,0.24763 0.484,0.36019 0.2026,0.14632 0.41647,0.29265 0.64158,0.43897 0.23637,0.15758 0.484,0.3039 0.75414,0.45023 0.52902,0.3039 1.10306,0.5853 1.74464,0.84418 0.23637,0.09 0.484,0.18009 0.74286,0.27014 0.25889,0.09 0.51779,0.16883 0.78791,0.24763 0.45023,0.13506 0.93424,0.24762 1.44073,0.34892 0.41647,0.0788 0.83293,0.13506 1.27191,0.19135 0.43897,0.0563 0.8892,0.10131 1.36194,0.12382 0.22513,0.0114 0.45024,0.0114 0.68661,0.0225 0.11262,0 0.22513,0 0.3264,0 0.84419,0 1.60958,-0.0338 2.3412,-0.0901 l 0.13502,-0.0114 c 0.2814,-0.0338 0.5628,-0.0563 0.83293,-0.0901 0.40521,-0.0563 0.79916,-0.11257 1.17061,-0.18009 0.23635,-0.045 0.46147,-0.09 0.68659,-0.13507 0.34894,-0.0675 0.66409,-0.15758 0.97925,-0.23637 0.23637,-0.0563 0.45023,-0.1238 0.66408,-0.19135 0.25889,-0.0788 0.50653,-0.15758 0.7429,-0.23637 l 0.22511,-0.0788 c 0.11261,-0.045 0.27014,-0.10131 0.45023,-0.16884 0.23636,-0.09 0.52902,-0.2026 0.85544,-0.34893 0.20258,-0.0788 0.41646,-0.18009 0.63033,-0.28139 0.19134,-0.09 0.40518,-0.18009 0.6078,-0.28139 0.0787,-0.045 0.16883,-0.0901 0.25888,-0.13506 l 0,-5.11011 c -0.0563,0.0337 -0.12382,0.0675 -0.1801,0.11257 l -0.34892,0.2026 c -0.36019,0.21386 -0.6866,0.41646 -1.02427,0.60781 -0.38269,0.19135 -0.74288,0.3827 -1.10307,0.55153 -0.63033,0.29265 -1.23813,0.55153 -1.82343,0.75414 -1.11431,0.4052 -2.1386,0.66409 -3.03907,0.82167 -0.11261,0.0114 -0.21384,0.0338 -0.31514,0.045 -0.25889,0.045 -0.49526,0.0675 -0.72037,0.10131 -0.36019,0.0338 -0.6866,0.0563 -0.99052,0.0675 -0.19134,0.0114 -0.38269,0.0114 -0.54026,0.0114 -0.37143,0 -0.74288,0 -1.11433,-0.0337 -0.45024,-0.0338 -0.90045,-0.0788 -1.36194,-0.15758 -0.74289,-0.12381 -1.48576,-0.31517 -2.20612,-0.57405 -0.11262,-0.045 -0.22512,-0.09 -0.32643,-0.1238 -0.0675,-0.0338 -0.13502,-0.0563 -0.21385,-0.0901 -0.11262,-0.045 -0.23637,-0.1013 -0.34892,-0.15758 -0.24764,-0.11256 -0.49527,-0.24763 -0.74289,-0.3827 -0.11259,-0.0675 -0.23637,-0.13506 -0.36017,-0.21386 -0.12375,-0.0788 -0.24763,-0.15758 -0.36019,-0.23637 -0.14625,-0.1013 -0.29265,-0.21386 -0.43898,-0.32641 -0.13507,-0.11257 -0.28139,-0.22512 -0.40521,-0.32642 l -0.16883,-0.15759 -0.0788,-0.0788 -0.0563,-0.045 -0.0563,-0.0563 c -0.23637,-0.23636 -0.43897,-0.46148 -0.64158,-0.69785 -0.10128,-0.12382 -0.20261,-0.25888 -0.30391,-0.38269 -0.0901,-0.13507 -0.18009,-0.25889 -0.25887,-0.3827 -0.0788,-0.1238 -0.15759,-0.24763 -0.22513,-0.36019 -0.10127,-0.18009 -0.2026,-0.37143 -0.29265,-0.54027 -0.0788,-0.15759 -0.14624,-0.30391 -0.2026,-0.46149 -0.11259,-0.25888 -0.21385,-0.51776 -0.28139,-0.76539 -0.0675,-0.19135 -0.12376,-0.38269 -0.15759,-0.56278 -0.14624,-0.54028 -0.21385,-1.02428 -0.24761,-1.44074 -0.0225,-0.15759 -0.0225,-0.30391 -0.0338,-0.43898 -0.0111,-0.21386 -0.0111,-0.38269 -0.0111,-0.52901 0,-0.0901 0,-0.20261 0,-0.32642 0.0111,-0.29265 0.0338,-0.66409 0.10128,-1.09181 0.0338,-0.24763 0.0901,-0.51776 0.15759,-0.81041 0.045,-0.19135 0.10127,-0.3827 0.15758,-0.5853 0.0563,-0.18009 0.12376,-0.37144 0.19135,-0.55153 0.045,-0.13507 0.10127,-0.25889 0.16883,-0.3827 0.0675,-0.18009 0.14624,-0.34893 0.23638,-0.51777 0.0675,-0.13506 0.1464,-0.27013 0.22511,-0.4052 0.16883,-0.2814 0.36019,-0.57404 0.57404,-0.86669 0.0788,-0.10131 0.15759,-0.20261 0.23637,-0.30391 0.11258,-0.13506 0.22512,-0.25888 0.34893,-0.39395 0.0563,-0.0675 0.1126,-0.13507 0.18009,-0.19135 0.94549,-0.94548 1.99226,-1.64334 3.08407,-2.14985 0.16883,-0.0675 0.34894,-0.13506 0.51776,-0.21386 0.18011,-0.0675 0.34894,-0.1238 0.51777,-0.18009 0.19136,-0.0675 0.39396,-0.12382 0.57405,-0.18009 0.18008,-0.045 0.36017,-0.09 0.54028,-0.13507 0.18008,-0.045 0.36017,-0.0788 0.54027,-0.11256 0.2026,-0.0338 0.39394,-0.0675 0.58531,-0.09 0.20258,-0.0225 0.40519,-0.045 0.59654,-0.0675 0.37145,-0.0338 0.74289,-0.045 1.09181,-0.045 0.12382,0 0.23637,0 0.36017,0 0.27016,0.0113 0.51778,0.0113 0.77665,0.0338 0.18011,0.0113 0.34893,0.0225 0.51778,0.0338 0.31515,0.0338 0.63032,0.0788 0.92297,0.12383 0.27013,0.0338 0.51776,0.0788 0.76539,0.1238 0.36019,0.0788 0.69785,0.15758 0.9905,0.23637 0.2026,0.0563 0.3827,0.11257 0.55153,0.15758 0.24763,0.0675 0.4615,0.13507 0.61908,0.19135 0.28139,0.1013 0.43896,0.15758 0.43896,0.15758 0.24763,0.0901 0.49525,0.19135 0.74288,0.2814 0.32642,0.13506 0.63033,0.28139 0.93424,0.4052 0.24761,0.12381 0.48399,0.23637 0.70909,0.33768 0.18011,0.09 0.34894,0.18009 0.50651,0.25887 0.28141,0.15759 0.51778,0.2814 0.70912,0.3827 l 0.52902,0.29265 0,-5.03132 c 0,0 -0.31516,-0.12382 -0.85544,-0.32642 -0.24762,-0.1013 -0.52902,-0.2026 -0.84417,-0.31516 -0.1801,-0.0675 -0.37144,-0.13506 -0.57405,-0.2026 -0.15758,-0.045 -0.31516,-0.11256 -0.49525,-0.16883 -0.1801,-0.0563 -0.3827,-0.12381 -0.58528,-0.1801 -0.14638,-0.045 -0.30391,-0.1013 -0.45024,-0.13506 l -0.14637,-0.045 c -0.14637,-0.0338 -0.29266,-0.0788 -0.45023,-0.1238 -0.1801,-0.045 -0.37144,-0.1013 -0.55155,-0.14632 -0.12381,-0.0225 -0.24761,-0.0563 -0.36017,-0.0788 -0.21386,-0.045 -0.40522,-0.09 -0.60782,-0.13506 -0.21385,-0.045 -0.42771,-0.0788 -0.63033,-0.12381" />
      <g
         id="g27229"
         transform="matrix(11.255749,0,0,-11.255749,260.44739,390.30958)"
         style="fill:#005e70;fill-opacity:1">
        <path
           inkscape:connector-curvature="0"
           style="fill:#005e70;fill-opacity:1;fill-rule:nonzero;stroke:none"
           id="path27231"
           d="m 0,0 0,-0.655 0.425,0 c 0,0 0.009,0 0.023,0.001 0.014,0 0.034,0.001 0.059,0.003 0.046,0.004 0.107,0.013 0.166,0.033 0.053,0.018 0.105,0.045 0.145,0.085 0.015,0.015 0.028,0.031 0.038,0.047 0.033,0.052 0.042,0.106 0.044,0.136 0.001,0.013 0.001,0.021 0.001,0.021 0,0 0,0.006 0,0.016 C 0.9,-0.3 0.899,-0.276 0.892,-0.25 0.884,-0.219 0.869,-0.183 0.842,-0.149 0.837,-0.143 0.832,-0.137 0.826,-0.131 0.814,-0.119 0.801,-0.108 0.787,-0.098 0.764,-0.081 0.738,-0.066 0.709,-0.054 0.671,-0.037 0.628,-0.025 0.581,-0.016 0.557,-0.011 0.531,-0.008 0.505,-0.005 0.489,-0.004 0.473,-0.003 0.456,-0.002 0.442,-0.001 0.426,0 0.412,0 L 0,0 Z" />
      </g>
      <g
         id="g27233"
         transform="matrix(11.255749,0,0,-11.255749,260.44739,379.0966)"
         style="fill:#005e70;fill-opacity:1">
        <path
           inkscape:connector-curvature="0"
           style="fill:#005e70;fill-opacity:1;fill-rule:nonzero;stroke:none"
           id="path27235"
           d="m 0,0 0,-0.621 0.206,0 c 0,0 0.014,0 0.032,0.001 0.014,0 0.031,0.001 0.046,0.002 0.043,0.003 0.101,0.009 0.16,0.025 0.011,0.003 0.023,0.007 0.034,0.011 0.046,0.016 0.09,0.04 0.124,0.074 0.028,0.027 0.046,0.056 0.058,0.085 0.014,0.036 0.019,0.07 0.021,0.094 0.002,0.022 0.002,0.035 0.002,0.035 0,0 0.001,0.01 -0.001,0.027 -0.001,0.027 -0.007,0.071 -0.028,0.113 -0.01,0.02 -0.024,0.04 -0.043,0.059 -0.023,0.023 -0.052,0.04 -0.082,0.054 -0.058,0.025 -0.124,0.035 -0.18,0.039 C 0.325,0 0.303,0 0.284,0 L 0,0 Z" />
      </g>
      <g
         id="g27237"
         transform="matrix(11.255749,0,0,-11.255749,245.14408,369.61251)"
         style="fill:#005e70;fill-opacity:1">
        <path
           inkscape:connector-curvature="0"
           style="fill:#005e70;fill-opacity:1;fill-rule:nonzero;stroke:none"
           id="path27239"
           d="m 0,0 3.543,0 0,-3.334 L 0,-3.334 0,0 Z m 0.93,-0.467 0,-2.402 0.903,0 c 0,0 0.441,-0.012 0.685,0.231 0.198,0.199 0.183,0.428 0.183,0.428 0,0 0.015,0.239 -0.169,0.423 -0.156,0.156 -0.356,0.197 -0.356,0.197 0,0 0.091,0.043 0.16,0.112 0.032,0.032 0.148,0.137 0.148,0.39 0,0.254 -0.17,0.401 -0.17,0.401 0,0 -0.186,0.22 -0.605,0.22 l -0.779,0 z" />
      </g>
      <g
         id="g27241"
         transform="matrix(11.255749,0,0,-11.255749,214.49243,390.30958)"
         style="fill:#005e70;fill-opacity:1">
        <path
           inkscape:connector-curvature="0"
           style="fill:#005e70;fill-opacity:1;fill-rule:nonzero;stroke:none"
           id="path27243"
           d="m 0,0 0,-0.655 0.426,0 c 0,0 0.008,0 0.022,0.001 0.014,0 0.034,0.001 0.059,0.003 0.047,0.004 0.107,0.013 0.166,0.033 0.054,0.018 0.106,0.045 0.145,0.085 0.015,0.015 0.028,0.031 0.039,0.047 0.033,0.052 0.041,0.106 0.043,0.136 0.001,0.013 0.001,0.021 0.001,0.021 0,0 0,0.006 0,0.016 0,0.013 -0.002,0.037 -0.008,0.063 -0.009,0.031 -0.024,0.067 -0.05,0.101 -0.005,0.006 -0.011,0.012 -0.017,0.018 -0.012,0.012 -0.024,0.023 -0.038,0.033 -0.023,0.017 -0.05,0.032 -0.079,0.044 -0.038,0.017 -0.081,0.029 -0.128,0.038 -0.024,0.005 -0.049,0.008 -0.075,0.011 -0.017,0.001 -0.033,0.002 -0.05,0.003 C 0.442,-0.001 0.426,0 0.411,0 L 0,0 Z" />
      </g>
      <g
         id="g27245"
         transform="matrix(11.255749,0,0,-11.255749,214.49243,379.0966)"
         style="fill:#005e70;fill-opacity:1">
        <path
           inkscape:connector-curvature="0"
           style="fill:#005e70;fill-opacity:1;fill-rule:nonzero;stroke:none"
           id="path27247"
           d="m 0,0 0,-0.621 0.206,0 c 0,0 0.014,0 0.032,0.001 0.014,0 0.031,0.001 0.046,0.002 0.043,0.003 0.101,0.009 0.16,0.025 0.011,0.003 0.023,0.007 0.034,0.011 0.046,0.016 0.09,0.04 0.125,0.074 0.027,0.027 0.045,0.056 0.057,0.085 0.015,0.036 0.02,0.07 0.021,0.094 0.002,0.022 0.002,0.035 0.002,0.035 0,0 0.001,0.01 0,0.027 -0.002,0.027 -0.007,0.071 -0.029,0.113 -0.01,0.02 -0.024,0.04 -0.043,0.059 C 0.588,-0.072 0.56,-0.055 0.53,-0.041 0.472,-0.016 0.405,-0.006 0.349,-0.002 0.325,0 0.303,0 0.284,0 L 0,0 Z" />
      </g>
      <path
         inkscape:connector-curvature="0"
         style="fill:#005e70;fill-opacity:1;fill-rule:nonzero;stroke:none"
         id="path27249"
         d="m 199.19699,369.60801 39.87911,0 0,37.52667 -39.87911,0 0,-37.52667 z m 10.45659,5.26769 0,27.02505 10.17519,0 c 0,0 4.96378,0.14633 7.69894,-2.60008 2.22863,-2.22863 2.07105,-4.8062 2.07105,-4.8062 0,0 0.15759,-2.70138 -1.90222,-4.76118 -1.7559,-1.7559 -4.00705,-2.22864 -4.00705,-2.22864 0,0 1.01302,-0.47274 1.80092,-1.26064 0.36019,-0.36019 1.6546,-1.53079 1.6546,-4.37849 0,-2.87022 -1.90222,-4.52481 -1.90222,-4.52481 0,0 -2.09357,-2.46501 -6.80972,-2.46501 l -8.77949,0 z" />
      <g
         id="g27251"
         transform="matrix(11.255749,0,0,-11.255749,169.43342,443.94773)"
         style="fill:#005e70;fill-opacity:1">
        <path
           inkscape:connector-curvature="0"
           style="fill:#005e70;fill-opacity:1;fill-rule:nonzero;stroke:none"
           id="path27253"
           d="m 0,0 -1.803,0 0,0.947 4.653,0 0,-0.947 -1.803,0 0,-4.935 L 0,-4.935 0,0 Z" />
      </g>
      <g
         id="g27255"
         transform="matrix(11.255749,0,0,-11.255749,213.38712,433.28628)"
         style="fill:#005e70;fill-opacity:1">
        <path
           inkscape:connector-curvature="0"
           style="fill:#005e70;fill-opacity:1;fill-rule:nonzero;stroke:none"
           id="path27257"
           d="m 0,0 1.146,0 1.106,-4.237 0.016,0 1.321,4.237 1.03,0 1.296,-4.237 0.017,0 L 7.087,0 8.151,0 6.439,-5.883 l -0.997,0 -1.363,4.479 -0.016,0 -1.363,-4.479 -0.964,0 L 0,0 Z" />
      </g>
      <g
         id="g27259"
         transform="matrix(11.255749,0,0,-11.255749,345.43055,490.52064)"
         style="fill:#005e70;fill-opacity:1">
        <path
           inkscape:connector-curvature="0"
           style="fill:#005e70;fill-opacity:1;fill-rule:nonzero;stroke:none"
           id="path27261"
           d="M 0,0 C 1.221,0 2.027,0.93 2.027,2.185 2.027,3.356 1.221,4.287 0,4.287 -1.213,4.287 -2.019,3.356 -2.019,2.185 -2.019,0.93 -1.213,0 0,0 m -0.008,5.235 c 1.836,0.033 3.132,-1.197 3.132,-3.083 0,-1.837 -1.296,-3.066 -3.132,-3.099 -1.812,0 -3.108,1.229 -3.108,3.066 0,1.886 1.296,3.116 3.108,3.116" />
      </g>
      <path
         inkscape:connector-curvature="0"
         style="fill:#005e70;fill-opacity:1;fill-rule:nonzero;stroke:none"
         id="path15603"
         d="m 377.36371,407.85251 3.84766,-3.55262 -0.0241,26.83129 -3.82356,-4.04637 0,-7.61103 -15.08961,0 0,11.68751 -3.84163,-4.04035 0,-19.25639 3.84163,-3.56466 0,11.60923 15.08961,0 0,-8.05661 z" />
      <path
         inkscape:connector-curvature="0"
         style="fill:#ffffff;fill-rule:nonzero;stroke:none"
         id="path15607"
         d="m 381.18727,431.11914 0,0 3.84766,-3.42617 4.88938,0 c 1.92082,0 3.41411,-0.12645 4.47991,-0.37332 1.07181,-0.27097 1.95092,-0.60214 2.66145,-0.99955 0.71654,-0.41548 1.36083,-0.92128 1.95696,-1.50535 1.89672,-1.92082 2.84208,-4.35346 2.84208,-7.29189 0,-2.88425 -0.97546,-5.23259 -2.92036,-7.04502 -0.71656,-0.68042 -1.54149,-1.24643 -2.48082,-1.67997 -0.92127,-0.43956 -1.8004,-0.72257 -2.63737,-0.86106 -0.82492,-0.1385 -2.16167,-0.21075 -4.01627,-0.21075 l -4.79903,0 -3.81154,-3.42617 9.02003,0 c 3.64896,0 6.54525,0.55397 8.66478,1.64987 2.13157,1.09589 3.82358,2.7036 5.08204,4.83517 1.24643,2.12555 1.88469,4.44378 1.88469,6.96071 0,1.78836 -0.35525,3.50445 -1.0417,5.14829 -0.69847,1.63782 -1.68598,3.08295 -2.96252,4.32937 -1.30061,1.28256 -2.82401,2.24598 -4.55215,2.89629 -1.01161,0.39741 -1.95094,0.66837 -2.78791,0.80686 -0.84299,0.13248 -2.46274,0.19269 -4.85323,0.19269 l -8.46608,0 8.46608,0 c 2.39049,0 4.01024,-0.0602 4.85323,-0.19269 0.83697,-0.1385 1.7763,-0.40945 2.78791,-0.80686 1.72814,-0.65031 3.25154,-1.61373 4.55215,-2.89629 1.27654,-1.24642 2.26405,-2.69155 2.96252,-4.32937 0.68645,-1.64384 1.0417,-3.35993 1.0417,-5.14829 0,-2.51693 -0.63826,-4.83516 -1.88469,-6.96071 -1.25846,-2.13157 -2.95047,-3.73928 -5.08204,-4.83517 -2.11953,-1.0959 -5.01582,-1.64987 -8.66478,-1.64987 l -9.02003,0 3.81154,3.42617 4.79903,0 c 1.8546,0 3.19135,0.0723 4.01627,0.21075 0.83697,0.1385 1.7161,0.4215 2.63737,0.86106 0.93933,0.43354 1.76426,0.99955 2.48082,1.67997 1.9449,1.81243 2.92036,4.16077 2.92036,7.04502 0,2.93843 -0.94536,5.37107 -2.84208,7.29189 -0.59613,0.58407 -1.24042,1.08987 -1.95696,1.50535 -0.71053,0.39741 -1.58964,0.72858 -2.66145,0.99955 -1.0658,0.24687 -2.55909,0.37332 -4.47991,0.37332 l -4.88938,0 -3.84766,3.42617 z" />
      <path
         inkscape:connector-curvature="0"
         style="fill:#005e70;fill-opacity:1;fill-rule:nonzero;stroke:none"
         id="path15611"
         d="m 381.18727,431.11914 3.84766,-3.42617 4.88938,0 c 1.92082,0 3.41411,-0.12645 4.47991,-0.37332 1.07181,-0.27097 1.95092,-0.60214 2.66145,-0.99955 0.71654,-0.41548 1.36083,-0.92128 1.95696,-1.50535 1.89672,-1.92082 2.84208,-4.35346 2.84208,-7.29189 0,-2.88425 -0.97546,-5.23259 -2.92036,-7.04502 -0.71656,-0.68042 -1.54149,-1.24643 -2.48082,-1.67997 -0.92127,-0.43956 -1.8004,-0.72257 -2.63737,-0.86106 -0.82492,-0.1385 -2.16167,-0.21075 -4.01627,-0.21075 l -4.79903,0 -3.81154,-3.42617 9.02003,0 c 3.64896,0 6.54525,0.55397 8.66478,1.64987 2.13157,1.09589 3.82358,2.7036 5.08204,4.83517 1.24643,2.12555 1.88469,4.44378 1.88469,6.96071 0,1.78836 -0.35525,3.50445 -1.0417,5.14829 -0.69847,1.63782 -1.68598,3.08295 -2.96252,4.32937 -1.30061,1.28256 -2.82401,2.24598 -4.55215,2.89629 -1.01161,0.39741 -1.95094,0.66837 -2.78791,0.80686 -0.84299,0.13248 -2.46274,0.19269 -4.85323,0.19269 l -8.46608,0 z" />
      <path
         inkscape:connector-curvature="0"
         style="fill:#407c89;fill-opacity:1;fill-rule:nonzero;stroke:none"
         id="path15615"
         d="m 385.03493,407.75015 -3.84163,-3.45026 0,26.81925 3.84163,-3.42617 0,-8.21919 0,-3.56466 0,-8.15897 z" />
      <path
         inkscape:connector-curvature="0"
         style="fill:#407c89;fill-opacity:1;fill-rule:nonzero;stroke:none"
         id="path15619"
         d="m 362.26809,419.47378 -0.0126,11.66944 3.84768,-3.46229 -0.0126,-8.20715 -3.82359,0 z" />
      <path
         inkscape:connector-curvature="0"
         style="fill:#407c89;fill-opacity:1;fill-rule:nonzero;stroke:none"
         id="path15623"
         d="m 366.19403,415.90912 -0.0722,-8.04457 -3.84768,-3.56466 0,11.60923 3.91992,0 z" />
    </g>
  </g>
</svg>
