<?xml version="1.0" encoding="UTF-8" standalone="no"?>
<!-- Created with Inkscape (http://www.inkscape.org/) -->

<svg
   xmlns:dc="http://purl.org/dc/elements/1.1/"
   xmlns:cc="http://creativecommons.org/ns#"
   xmlns:rdf="http://www.w3.org/1999/02/22-rdf-syntax-ns#"
   xmlns:svg="http://www.w3.org/2000/svg"
   xmlns="http://www.w3.org/2000/svg"
   xmlns:sodipodi="http://sodipodi.sourceforge.net/DTD/sodipodi-0.dtd"
   xmlns:inkscape="http://www.inkscape.org/namespaces/inkscape"
   version="1.0"
   width="138.98726"
   height="75.956314"
   id="svg2"
   inkscape:version="0.91 r13725"
   sodipodi:docname="BBC Alba - Dark.svg">
  <sodipodi:namedview
     pagecolor="#ffffff"
     bordercolor="#666666"
     borderopacity="1"
     objecttolerance="10"
     gridtolerance="10"
     guidetolerance="10"
     inkscape:pageopacity="0"
     inkscape:pageshadow="2"
     inkscape:window-width="1920"
     inkscape:window-height="1017"
     id="namedview33"
     showgrid="false"
     fit-margin-top="0"
     fit-margin-left="0"
     fit-margin-right="0"
     fit-margin-bottom="0"
     inkscape:zoom="4.0729351"
     inkscape:cx="81.845382"
     inkscape:cy="27.981579"
     inkscape:window-x="-8"
     inkscape:window-y="-8"
     inkscape:window-maximized="1"
     inkscape:current-layer="svg2" />
  <metadata
     id="metadata35">
    <rdf:RDF>
      <cc:Work
         rdf:about="">
        <dc:format>image/svg+xml</dc:format>
        <dc:type
           rdf:resource="http://purl.org/dc/dcmitype/StillImage" />
        <dc:title></dc:title>
      </cc:Work>
    </rdf:RDF>
  </metadata>
  <defs
     id="defs33" />
  <g
     id="g2748"
     transform="matrix(3.8390663,0,0,-3.8390663,22.205159,62.600205)"
     style="fill:#00325d;fill-opacity:1">
    <path
       style="fill:#00325d;fill-opacity:1;fill-rule:nonzero;stroke:none"
       id="path2750"
       inkscape:connector-curvature="0"
       d="M 0,0 -2.534,0 -1.246,3.708 0,0 Z m 3.207,-3.479 -3.723,10.193 -1.56,0 -3.708,-10.193 2.076,0 0.616,1.804 3.622,0 0.601,-1.804 2.076,0 z" />
  </g>
  <g
     id="g2752"
     transform="matrix(3.8390663,0,0,-3.8390663,65.289849,75.955595)"
     style="fill:#00325d;fill-opacity:1">
    <path
       style="fill:#00325d;fill-opacity:1;fill-rule:nonzero;stroke:none"
       id="path2754"
       inkscape:connector-curvature="0"
       d="m 0,0 0,1.775 -4.624,0 0,8.418 -1.99,0 L -6.614,0 0,0 Z" />
  </g>
  <g
     transform="matrix(3.8390663,0,0,-3.8390663,92.767549,64.304325)"
     id="g2758"
     style="fill:#00325d;fill-opacity:1">
    <path
       d="m 0,0 c 0,-0.687 -0.43,-1.26 -1.331,-1.26 l -2.076,0 0,2.505 2.076,0 C -0.43,1.245 0,0.687 0,0 m -0.143,4.209 c 0,-0.701 -0.472,-1.174 -1.317,-1.174 l -1.947,0 0,2.348 1.947,0 c 0.845,0 1.317,-0.472 1.317,-1.174 M 1.99,-0.1 c 0,1.36 -0.787,2.004 -1.403,2.29 0.515,0.244 1.26,0.974 1.26,2.105 0,1.747 -1.16,2.863 -3.15,2.863 l -4.095,0 0,-10.193 4.267,0 c 1.818,0 3.121,1.031 3.121,2.935"
       inkscape:connector-curvature="0"
       id="path2760"
       style="fill:#00325d;fill-opacity:1;fill-rule:evenodd;stroke:none" />
  </g>
  <g
     transform="matrix(3.8390663,0,0,-3.8390663,126.67537,62.600195)"
     id="g2762"
     style="fill:#00325d;fill-opacity:1">
    <path
       d="M 0,0 -2.534,0 -1.245,3.708 0,0 Z m 3.207,-3.479 -3.722,10.193 -1.561,0 -3.708,-10.193 2.076,0 0.616,1.804 3.622,0 0.601,-1.804 2.076,0 z"
       inkscape:connector-curvature="0"
       id="path2764"
       style="fill:#00325d;fill-opacity:1;fill-rule:evenodd;stroke:none" />
  </g>
  <g
     transform="matrix(3.8390663,0,0,-3.8390663,40.263748,12.806741)"
     id="g2772"
     style="fill:#007eab;fill-opacity:1">
    <path
       id="path2774"
       style="fill:#007eab;fill-opacity:1;fill-rule:evenodd;stroke:none"
       d="m 0,0 -0.615,0 0,-1.458 0.648,0 c 0.36,0 0.603,0.027 0.731,0.082 0.129,0.057 0.232,0.145 0.309,0.263 0.079,0.119 0.119,0.246 0.119,0.382 0,0.141 -0.042,0.269 -0.126,0.386 C 0.985,-0.229 0.869,-0.143 0.718,-0.086 0.566,-0.029 0.327,0 0,0 m -0.049,1.968 -0.566,0 0,-1.382 0.437,0 c 0.351,0 0.601,0.067 0.747,0.201 0.15,0.134 0.224,0.307 0.225,0.52 0,0.441 -0.281,0.661 -0.843,0.661 m 0.332,-4.012 -1.557,0 0,4.598 1.205,0 C 0.31,2.554 0.607,2.503 0.82,2.4 1.033,2.299 1.195,2.158 1.307,1.978 1.419,1.8 1.475,1.594 1.475,1.359 1.475,0.907 1.241,0.583 0.774,0.388 1.109,0.325 1.376,0.186 1.573,-0.026 c 0.2,-0.213 0.3,-0.468 0.3,-0.764 0,-0.235 -0.06,-0.444 -0.181,-0.629 C 1.571,-1.603 1.394,-1.753 1.159,-1.87 0.926,-1.986 0.634,-2.044 0.283,-2.044 m -3.3725999,5.3798999 6.6759998,0 0,-6.2829998 -6.6759998,0 0,6.2829998 z"
       inkscape:connector-curvature="0" />
  </g>
  <g
     transform="matrix(3.8390663,0,0,-3.8390663,69.662934,12.806741)"
     id="g2776"
     style="fill:#007eab;fill-opacity:1">
    <path
       id="path2778"
       style="fill:#007eab;fill-opacity:1;fill-rule:evenodd;stroke:none"
       d="m 0,0 -0.615,0 0,-1.458 0.648,0 c 0.36,0 0.603,0.027 0.73,0.082 0.13,0.057 0.233,0.145 0.31,0.263 0.079,0.119 0.119,0.246 0.119,0.382 0,0.141 -0.042,0.269 -0.125,0.386 C 0.985,-0.229 0.869,-0.143 0.718,-0.086 0.566,-0.029 0.327,0 0,0 m -0.049,1.968 -0.566,0 0,-1.382 0.437,0 c 0.351,0 0.6,0.067 0.747,0.201 0.149,0.134 0.224,0.307 0.224,0.52 0,0.441 -0.281,0.661 -0.842,0.661 m 0.332,-4.012 -1.557,0 0,4.598 1.205,0 C 0.31,2.554 0.607,2.503 0.819,2.4 1.032,2.299 1.195,2.158 1.307,1.978 1.419,1.8 1.474,1.594 1.474,1.359 1.474,0.907 1.241,0.583 0.773,0.388 c 0.336,-0.063 0.603,-0.202 0.8,-0.414 0.2,-0.213 0.3,-0.468 0.3,-0.764 0,-0.235 -0.06,-0.444 -0.181,-0.629 C 1.571,-1.603 1.393,-1.753 1.159,-1.87 0.926,-1.986 0.634,-2.044 0.283,-2.044 m -3.3724999,5.3798999 6.6760009,0 0,-6.2829998 -6.6760009,0 0,6.2829998 z"
       inkscape:connector-curvature="0" />
  </g>
  <g
     transform="matrix(3.8390663,0,0,-3.8390663,107.87815,16.559812)"
     id="g2780"
     style="fill:#007eab;fill-opacity:1">
    <path
       id="path2782"
       style="fill:#007eab;fill-opacity:1;fill-rule:evenodd;stroke:none"
       d="m 0,0 0,-0.724 c -0.483,-0.264 -1.04,-0.395 -1.672,-0.395 -0.514,0 -0.949,0.103 -1.307,0.309 -0.358,0.206 -0.641,0.49 -0.849,0.853 -0.209,0.362 -0.313,0.754 -0.313,1.175 0,0.669 0.238,1.232 0.714,1.689 0.479,0.456 1.068,0.684 1.768,0.684 0.483,0 1.019,-0.126 1.61,-0.378 l 0,-0.708 C -0.587,2.812 -1.113,2.966 -1.626,2.966 -2.153,2.966 -2.591,2.799 -2.939,2.465 -3.286,2.134 -3.46,1.718 -3.46,1.218 c 0,-0.505 0.172,-0.92 0.514,-1.245 0.342,-0.324 0.78,-0.487 1.313,-0.487 0.558,0 1.102,0.172 1.633,0.514 m -5.3867994,4.3134999 6.6760009,0 0,-6.2829999 -6.6760009,0 0,6.2829999 z"
       inkscape:connector-curvature="0" />
  </g>
  <g
     id="g2822"
     transform="matrix(1,0,0,-1,-400.07158,82.912705)" />
  <g
     id="g3612"
     transform="matrix(1,0,0,-1,-487.93468,9.2219951)" />
</svg>
