<?xml version="1.0" encoding="UTF-8" standalone="no"?>
<svg
   xmlns:dc="http://purl.org/dc/elements/1.1/"
   xmlns:cc="http://creativecommons.org/ns#"
   xmlns:rdf="http://www.w3.org/1999/02/22-rdf-syntax-ns#"
   xmlns:svg="http://www.w3.org/2000/svg"
   xmlns="http://www.w3.org/2000/svg"
   xmlns:sodipodi="http://sodipodi.sourceforge.net/DTD/sodipodi-0.dtd"
   xmlns:inkscape="http://www.inkscape.org/namespaces/inkscape"
   width="115.478pt"
   height="77.703857pt"
   viewBox="0 0 115.478 77.703857"
   version="1.1"
   id="svg10"
   sodipodi:docname="Be3 - Dark.svg"
   inkscape:version="0.92.0 r15299">
  <metadata
     id="metadata16">
    <rdf:RDF>
      <cc:Work
         rdf:about="">
        <dc:format>image/svg+xml</dc:format>
        <dc:type
           rdf:resource="http://purl.org/dc/dcmitype/StillImage" />
        <dc:title></dc:title>
      </cc:Work>
    </rdf:RDF>
  </metadata>
  <defs
     id="defs14" />
  <sodipodi:namedview
     pagecolor="#ffffff"
     bordercolor="#666666"
     borderopacity="1"
     objecttolerance="10"
     gridtolerance="10"
     guidetolerance="10"
     inkscape:pageopacity="0"
     inkscape:pageshadow="2"
     inkscape:window-width="1920"
     inkscape:window-height="1017"
     id="namedview12"
     showgrid="false"
     inkscape:zoom="2.8125371"
     inkscape:cx="9.7970564"
     inkscape:cy="38.720324"
     inkscape:window-x="-8"
     inkscape:window-y="-8"
     inkscape:window-maximized="1"
     inkscape:current-layer="svg10"
     fit-margin-top="0"
     fit-margin-left="0"
     fit-margin-right="0"
     fit-margin-bottom="0" />
  <g
     id="#7c123eff"
     style="fill:#7c123e;fill-opacity:1"
     transform="translate(-30.637091,-53.651385)" />
  <path
     inkscape:connector-curvature="0"
     style="opacity:1;fill:#7c123e;fill-opacity:1"
     id="path5"
     d="m 0.1429088,9.6186146 10.1800002,5.7500004 -0.06,10.91 c 3.49,-4.52 10.14,-5.81 15,-2.76 8.57,5.26 9.07,19.02 2,25.73 -4.68,4.42 -12.83,4.03 -16.93,-1.01 l 0.01,3.45 c -2.8300002,0.14 -6.1300002,0.22 -8.2200002,-2.05 -2.03,-1.85 -2.18,-4.75 -2.11,-7.31 l 0.13,-32.7100004 M 13.812909,30.888615 c -5.1300002,2.2 -4.8300002,10.95 0.55,12.63 3.88,1.35 7.88,-2.25 7.65,-6.16 0.58,-4.32 -4.05,-8.45 -8.2,-6.47 z"
     sodipodi:nodetypes="cccccccccccccc" />
  <path
     inkscape:connector-curvature="0"
     style="opacity:1;fill:#7c123e;fill-opacity:1"
     id="path7"
     d="m 41.742909,24.678615 c 5.88,-4.45 15.4,-3.74 20.05,2.17 2.9,3.66 3.57,8.51 3.42,13.05 l -19.78,0.11 c 1.47,5.39 8.35,5.89 12.16,2.7 l 6.55,3.78 c -5.83,7.62 -18.48,7.9 -24.85,0.86 -5.61,-6.44 -4.5,-17.61 2.45,-22.67 m 3.61,9.98 10.41,-0.01 c -0.54,-2.63 -2.36,-5.57 -5.44,-5.25 -2.92,-0.05 -4.29,2.88 -4.97,5.26 z"
     sodipodi:nodetypes="cccccccccccc" />
  <path
     inkscape:connector-curvature="0"
     style="opacity:1;fill:#7c123e;fill-opacity:1;stroke-width:0.14482492"
     id="path4"
     d="m 71.06336,2.3212294 c 5.680034,-2.13327542 11.864061,-2.64160959 17.878634,-2.14630655 5.2977,0.45039914 10.599741,1.82044815 15.180546,4.58225815 3.57717,2.1564474 6.7054,5.2165933 8.50267,9.024044 0.94136,1.997134 1.50039,4.198475 1.44536,6.415738 -0.0463,2.771951 -0.54165,5.590245 -1.83493,8.065301 -1.10792,2.156447 -2.81251,3.978345 -4.82412,5.320872 -2.50113,1.684306 -5.39763,2.682153 -8.327435,3.323729 4.462055,1.028259 8.932795,2.842917 12.171085,6.184027 2.24913,2.29837 3.66697,5.355625 4.06379,8.538872 0.34758,2.954427 0.12455,5.98272 -0.6604,8.853149 -1.09488,4.053652 -3.55546,7.684408 -6.81546,10.314427 -4.26799,3.467111 -9.593207,5.401969 -14.967664,6.314368 -6.126093,1.013778 -12.463633,0.713982 -18.481106,-0.80812 -4.911007,-1.274461 -9.66272,-3.503314 -13.412236,-6.971876 -1.488799,-1.38163 -2.805253,-2.955877 -3.863925,-4.690877 -0.314268,-0.438819 -0.128891,-1.105016 0.362061,-1.325146 4.560536,-2.631468 9.121073,-5.265837 13.683059,-7.895856 0.353371,-0.23172 0.858815,-0.186826 1.14557,0.130342 1.759613,1.824798 4.017439,3.152834 6.456291,3.836413 2.360645,0.656057 4.879154,0.729913 7.278902,0.250542 2.079681,-0.421437 4.1362,-1.471418 5.333894,-3.278835 1.391771,-2.059409 1.471427,-4.876254 0.364961,-7.077595 -0.931221,-1.829139 -2.796563,-2.973248 -4.709709,-3.552549 -2.88056,-0.870395 -5.930575,-0.786398 -8.908174,-0.835642 -0.469231,-0.0145 -0.850124,-0.467781 -0.81102,-0.931221 -10e-4,-4.008759 -0.004,-8.017507 0.001,-12.026265 -0.0261,-0.492403 0.430127,-0.928331 0.92108,-0.889228 2.178169,0.006 4.367919,-0.0521 6.520016,-0.421436 1.865352,-0.335989 3.774138,-1.013778 5.096393,-2.431612 1.336736,-1.419283 1.779895,-3.472901 1.60756,-5.370106 -0.140482,-1.506181 -0.951503,-2.906633 -2.134726,-3.837864 -1.539483,-1.220866 -3.493173,-1.856651 -5.439622,-1.995683 -2.612637,-0.07101 -5.339694,0.182476 -7.674267,1.449696 -0.860265,0.4591 -1.632182,1.068813 -2.314301,1.761073 -0.285305,0.311377 -0.783508,0.335989 -1.128188,0.11151 -4.407023,-2.537331 -8.808256,-5.086242 -13.216719,-7.622133 -0.317167,-0.186826 -0.713992,-0.362061 -0.80958,-0.755985 -0.166545,-0.505434 0.240411,-0.91674 0.517025,-1.284592 3.025393,-3.8407638 7.25573,-6.6141548 11.803235,-8.3274336 z" />
</svg>
