<?xml version="1.0" encoding="UTF-8" standalone="no"?>
<svg
   xmlns:dc="http://purl.org/dc/elements/1.1/"
   xmlns:cc="http://creativecommons.org/ns#"
   xmlns:rdf="http://www.w3.org/1999/02/22-rdf-syntax-ns#"
   xmlns:svg="http://www.w3.org/2000/svg"
   xmlns="http://www.w3.org/2000/svg"
   xmlns:sodipodi="http://sodipodi.sourceforge.net/DTD/sodipodi-0.dtd"
   xmlns:inkscape="http://www.inkscape.org/namespaces/inkscape"
   width="135.68378pt"
   height="77.710472pt"
   viewBox="0 0 135.68378 77.710472"
   version="1.1"
   id="svg10"
   sodipodi:docname="Be3 HD - Dark.svg"
   inkscape:version="0.92.0 r15299">
  <metadata
     id="metadata16">
    <rdf:RDF>
      <cc:Work
         rdf:about="">
        <dc:format>image/svg+xml</dc:format>
        <dc:type
           rdf:resource="http://purl.org/dc/dcmitype/StillImage" />
        <dc:title></dc:title>
      </cc:Work>
    </rdf:RDF>
  </metadata>
  <defs
     id="defs14" />
  <sodipodi:namedview
     pagecolor="#ffffff"
     bordercolor="#666666"
     borderopacity="1"
     objecttolerance="10"
     gridtolerance="10"
     guidetolerance="10"
     inkscape:pageopacity="0"
     inkscape:pageshadow="2"
     inkscape:window-width="1920"
     inkscape:window-height="1017"
     id="namedview12"
     showgrid="false"
     inkscape:zoom="2.8125371"
     inkscape:cx="9.7970564"
     inkscape:cy="38.720321"
     inkscape:window-x="-8"
     inkscape:window-y="-8"
     inkscape:window-maximized="1"
     inkscape:current-layer="svg10"
     fit-margin-top="0"
     fit-margin-left="0"
     fit-margin-right="0"
     fit-margin-bottom="0" />
  <g
     id="#7c123eff"
     style="fill:#7c123e;fill-opacity:1"
     transform="translate(-30.637091,-53.644772)" />
  <path
     inkscape:connector-curvature="0"
     style="opacity:1;fill:#7c123e;fill-opacity:1"
     id="path5"
     d="m 0.1429088,9.6252277 10.1800002,5.7500003 -0.06,10.91 c 3.49,-4.52 10.14,-5.81 15,-2.76 8.57,5.26 9.07,19.02 2,25.73 -4.68,4.42 -12.83,4.03 -16.93,-1.01 l 0.01,3.45 c -2.8300002,0.14 -6.1300002,0.22 -8.2200002,-2.05 -2.03,-1.85 -2.18,-4.75 -2.11,-7.31 l 0.13,-32.7100003 M 13.812909,30.895228 c -5.1300002,2.2 -4.8300002,10.95 0.55,12.63 3.88,1.35 7.88,-2.25 7.65,-6.16 0.58,-4.32 -4.05,-8.45 -8.2,-6.47 z"
     sodipodi:nodetypes="cccccccccccccc" />
  <path
     inkscape:connector-curvature="0"
     style="opacity:1;fill:#7c123e;fill-opacity:1"
     id="path7"
     d="m 41.742909,24.685228 c 5.88,-4.45 15.4,-3.74 20.05,2.17 2.9,3.66 3.57,8.51 3.42,13.05 l -19.78,0.11 c 1.47,5.39 8.35,5.89 12.16,2.7 l 6.55,3.78 c -5.83,7.62 -18.48,7.9 -24.85,0.86 -5.61,-6.44 -4.5,-17.61 2.45,-22.67 m 3.61,9.98 10.41,-0.01 c -0.54,-2.63 -2.36,-5.57 -5.44,-5.25 -2.92,-0.05 -4.29,2.88 -4.97,5.26 z"
     sodipodi:nodetypes="cccccccccccc" />
  <g
     id="g4522"
     transform="matrix(1.0000869,0,0,1.0000869,-112.502,-192.88425)"
     style="fill:#7c123e;fill-opacity:1">
    <path
       d="m 227.96625,192.87234 c 0.83991,0.006 1.68127,0 2.52263,0.003 0.003,1.20484 -0.001,2.40968 0.003,3.61452 1.21932,0.003 2.44009,0.003 3.65941,0 0.001,-1.20484 -10e-4,-2.40968 0.001,-3.61307 0.83846,-0.003 1.67548,-0.003 2.51394,0 -0.006,3.34082 0.0188,6.68164 -0.0116,10.02246 -0.83123,-0.009 -1.66245,-0.006 -2.49222,-0.001 -0.0261,-1.42495 -0.004,-2.8499 -0.0116,-4.27486 -1.21642,-0.004 -2.43285,0.006 -3.64927,-0.006 -0.0261,1.42496 -0.004,2.85136 -0.0116,4.27631 -0.84281,0.001 -1.68562,0 -2.52843,0.001 0,-3.34082 -0.007,-6.68164 0.004,-10.02246 z"
       id="path2-3"
       style="opacity:1;fill:#7c123e;fill-opacity:1;stroke-width:0.14481233"
       inkscape:connector-curvature="0" />
    <path
       d="m 183.54941,195.19513 c 5.67954,-2.13309 11.86303,-2.64138 17.87708,-2.14612 5.29724,0.45036 10.59882,1.82029 15.17923,4.58186 3.57686,2.15626 6.70481,5.21614 8.50193,9.02326 0.94128,1.99696 1.50026,4.19811 1.44523,6.41518 -0.0463,2.77171 -0.5416,5.58976 -1.83477,8.0646 -1.10782,2.15626 -2.81226,3.978 -4.8237,5.32041 -2.50091,1.68416 -5.39716,2.68192 -8.32671,3.32344 4.46167,1.02817 8.93202,2.84267 12.17003,6.18349 2.24893,2.29817 3.66665,5.35516 4.06343,8.53813 0.34755,2.95417 0.12454,5.9822 -0.66034,8.85238 -1.09478,4.0533 -3.55515,7.68374 -6.81487,10.31353 -4.26762,3.46681 -9.59237,5.4015 -14.96636,6.31382 -6.12556,1.01369 -12.46255,0.71392 -18.4795,-0.80805 -4.91058,-1.27435 -9.66188,-3.50301 -13.41107,-6.97127 -1.48867,-1.38151 -2.80501,-2.95562 -3.86359,-4.69047 -0.31424,-0.43878 -0.12888,-1.10492 0.36203,-1.32503 4.56014,-2.63124 9.12028,-5.26538 13.68187,-7.89517 0.35334,-0.2317 0.85874,-0.18681 1.14547,0.13033 1.75946,1.82464 4.01709,3.15256 6.45573,3.83608 2.36044,0.656 4.87873,0.72985 7.27827,0.25052 2.0795,-0.4214 4.13584,-1.47129 5.33343,-3.27855 1.39165,-2.05923 1.4713,-4.87583 0.36493,-7.07698 -0.93114,-1.82898 -2.79632,-2.97299 -4.7093,-3.55224 -2.88031,-0.87032 -5.93006,-0.78633 -8.9074,-0.83557 -0.46919,-0.0145 -0.85005,-0.46774 -0.81095,-0.93114 -0.001,-4.00841 -0.004,-8.01681 0.001,-12.02522 -0.0261,-0.49236 0.43009,-0.92825 0.921,-0.88915 2.17798,0.006 4.36754,-0.0521 6.51945,-0.4214 1.86519,-0.33596 3.77381,-1.01369 5.09595,-2.4314 1.33662,-1.41916 1.77974,-3.4726 1.60742,-5.36964 -0.14047,-1.50605 -0.95142,-2.90638 -2.13454,-3.83753 -1.53935,-1.22076 -3.49287,-1.85649 -5.43915,-1.99551 -2.61241,-0.071 -5.33923,0.18246 -7.6736,1.44957 -0.86019,0.45906 -1.63204,1.06872 -2.3141,1.76092 -0.28528,0.31135 -0.78344,0.33596 -1.12809,0.1115 -4.40664,-2.53711 -8.80749,-5.0858 -13.21557,-7.62147 -0.31714,-0.18681 -0.71393,-0.36203 -0.80951,-0.75592 -0.16653,-0.50539 0.24039,-0.91666 0.51698,-1.28448 3.02513,-3.84043 7.2551,-6.61358 11.80221,-8.32671 z"
       id="path4"
       style="opacity:1;fill:#7c123e;fill-opacity:1;stroke-width:0.14481233"
       inkscape:connector-curvature="0" />
    <path
       d="m 239.1892,192.87668 c 1.6639,0.0319 3.33793,-0.0912 4.99603,0.10571 1.13677,0.15206 2.29962,0.62125 3.00485,1.56687 0.87757,1.14257 1.07161,2.66021 0.93404,4.05909 -0.11585,1.21932 -0.59807,2.46326 -1.56252,3.26118 -0.90363,0.75592 -2.11281,1.01224 -3.26407,1.02092 -1.36993,0.007 -2.73985,0.006 -4.10978,0.001 0.003,-3.33937 -0.001,-6.67729 0.001,-10.01522 m 2.52987,2.11716 c -10e-4,1.96076 -10e-4,3.92152 0,5.88227 0.98762,-0.0188 2.07661,0.0854 2.94549,-0.48077 0.81239,-0.55029 1.00499,-1.61176 0.99775,-2.52698 0.0246,-0.91232 -0.2317,-1.93614 -1.03251,-2.47194 -0.86018,-0.57056 -1.94048,-0.36348 -2.91073,-0.40258 z"
       id="path6"
       style="opacity:1;fill:#7c123e;fill-opacity:1;stroke-width:0.14481233"
       inkscape:connector-curvature="0" />
  </g>
</svg>
