<svg width="1552pt" height="476.01pt" version="1.1" viewBox="0 0 1552 476.01" xmlns="http://www.w3.org/2000/svg">
 <g transform="translate(-224.01 -11.996)">
  <path d="m232.36 12.02c37.88-0.04 75.77-0.02 113.65-0.01 16.34 0.31 33.48 4.02 46.31 14.69 11.43 9.3 18.04 23.64 19.12 38.2 0.98 12.23-0.57 25.45-8.13 35.52-4.71 6.57-11.7 10.9-18.74 14.6 10.26 3.88 19.92 9.98 26.35 19.05 11.54 15.64 13.09 36.58 8.8 55.05-3.62 15.87-13.4 30.64-27.75 38.69-14.77 8.51-32.23 10.49-48.98 10.37-36.83 0.07-73.66-0.11-110.48 0.09l-0.15-226.25m61.21 48.93v40.1c13.15-0.01 26.31 0.06 39.46-0.03 7.17 0.04 14.84-3.25 18.13-9.94 3.23-6.68 3.24-15.15-0.67-21.55-3.69-5.88-10.86-8.55-17.56-8.57-13.12-0.05-26.24-0.01-39.36-0.01m-0.02 80.39-0.01 47.24c14.48 0.11 28.96 0.01 43.44 0.05 5.42 0.08 11.05-0.97 15.58-4.11 10.13-6.91 11.75-21.92 6.24-32.24-4.04-7.34-12.63-11.1-20.78-10.96-14.82 0-29.65-0.04-44.47 0.02z"/>
  <path d="m436.48 12.04 58.28-0.03-0.01 226.17-58.21 0.02z"/>
  <path d="m1137.4 12.03 56.7-0.02c0.19 27.35-0.36 54.73 0.28 82.07 3.89-4.64 7.99-9.22 13.04-12.64 12.8-8.95 29.37-10.99 44.52-8.5 15.95 2.63 29.9 13.07 38.29 26.71 12.17 19.45 15.39 43.15 14.32 65.71-1.01 20-5.72 40.84-18.66 56.66-10.36 12.92-26.53 20.41-42.94 21.33-14.45 1.39-29.62-3.01-40.25-13.09-4.67-4.13-7.91-9.48-11.21-14.68-0.17 7.53-0.02 15.07-0.08 22.6l-54.07-0.11 0.06-226.04m76.9 102.44c-7.9 1.97-13.94 8.4-17.18 15.66-4.94 10.88-5.72 23.2-4.63 34.97 1.11 10.05 4.16 20.59 11.65 27.8 7.06 6.95 18.76 8.59 27.41 3.7 6.3-3.55 10.14-10.16 12.33-16.85 3.29-10.23 3.68-21.17 2.85-31.81-0.96-9.75-3.39-20.02-10.21-27.42-5.5-6.05-14.43-8.14-22.22-6.05z"/>
  <path d="m583.53 72.79c18.58-1.79 38.03 0.85 54.5 10.03 13.29 7.31 24.05 18.95 30.57 32.62 8.27 17.15 10.33 36.77 8.26 55.55-2.03 18.01-9.14 35.84-21.96 48.9-12.36 12.84-29.54 20.34-47.09 22.5-18.81 2.31-38.59 0.1-55.6-8.62-13.49-6.84-24.69-18-31.68-31.39-9.05-17.16-11.56-37.16-9.66-56.29 1.82-18.19 8.86-36.22 21.62-49.54 13.2-14.06 32-21.98 51.04-23.76m5.65 39.54c-5.05 0.95-9.52 4.06-12.53 8.17-6.65 9.39-8.13 21.3-8.66 32.5-0.28 12.83 0.31 26.26 6.03 38 3.28 6.96 10.06 12.55 17.97 12.84 8.11 0.83 16.15-3.6 20.25-10.55 6.91-11.42 7.81-25.27 7.71-38.3-0.42-11.96-1.9-24.77-9.24-34.67-4.83-6.61-13.58-9.69-21.53-7.99z"/>
  <path d="m760.55 72.75c18.09-1.67 36.98 0.86 53.11 9.56 13.36 7.1 24.29 18.53 30.99 32.08 8.57 17.12 10.83 36.85 8.87 55.74-1.89 18.2-8.94 36.25-21.8 49.51-12.25 12.85-29.32 20.44-46.8 22.68-18.86 2.41-38.72 0.28-55.82-8.38-13.5-6.78-24.75-17.85-31.81-31.2-9.24-17.29-11.78-37.53-9.83-56.86 1.88-18.47 9.18-36.75 22.33-50.09 13.27-13.72 31.92-21.36 50.76-23.04m3.87 39.89c-5.2 1.37-9.55 5.03-12.35 9.53-4.8 7.76-6.46 16.97-7.23 25.93-0.74 10.82-0.48 21.81 1.98 32.41 1.67 6.66 4.31 13.46 9.5 18.2 7.61 7.08 20.65 6.88 28.18-0.23 5.97-5.56 8.75-13.62 10.34-21.42 2.2-11.83 2.24-24.05 0.46-35.94-1.45-8.36-4.04-17.07-10.19-23.22-5.26-5.4-13.51-7.17-20.69-5.26z"/>
  <path d="m940.9 81.95c11.6-9.12 27.3-11.39 41.58-9.23 11.78 1.84 22.67 8.68 29.25 18.65 2.07 2.99 3.62 6.29 5.28 9.52 4.75-7.04 9.84-14.07 16.87-19.02 12.26-9.14 28.41-11.17 43.24-9.27 12.03 1.53 23.62 7.54 31.01 17.29 9.83 12.77 12.92 29.35 13.16 45.12 0.05 34.39 0.02 68.78 0.02 103.17h-56.74c-0.04-31.07 0.03-62.14-0.04-93.22-0.25-7.5-1.4-15.97-7.31-21.26-7.84-6.47-21.12-5.01-27.01 3.42-4.85 6.52-6.24 14.9-6.33 22.84-0.01 29.41 0.01 58.81 0 88.22h-56.75c-0.02-30.74 0-61.49-0.02-92.23-0.15-7.32-1.04-15.35-6.08-21.06-7.43-7.76-21.81-6.7-28.1 2.01-6.05 7.96-6.72 18.45-6.49 28.09 0 27.73 0.01 55.46-0.01 83.19h-56.74v-161.42h54.06c0.09 8.66-0.2 17.34 0.16 26 4.86-7.52 9.65-15.39 16.99-20.81z"/>
  <path d="m1341.2 91.18c12.58-11.25 29.04-17.71 45.77-19.13 17.69-1.48 36.22 1.19 51.7 10.28 12.25 7.09 22.13 17.97 28.44 30.6 9.13 18.04 11.91 38.61 11.56 58.63l-108.22 0.01c0.96 8.47 3.22 17.38 9.4 23.62 7.16 7.11 18.34 8.5 27.8 6.19 6.56-1.6 11.84-6.73 14.08-13.04l54.56-0.03c-3.85 15.21-12.32 29.53-25.05 38.93-14.89 11.19-33.92 15.29-52.25 15.4-18.43 0.28-37.32-4.34-52.4-15.24-13.75-9.78-23.61-24.51-28.38-40.62-4.66-15.73-5.32-32.58-2.47-48.71 3.17-17.8 11.8-34.87 25.46-46.89m38.02 26.01c-5.81 6.13-8.02 14.64-9.07 22.79l52.44 0.02c-0.46-7.79-2.45-15.88-7.7-21.88-8.69-10.33-26.44-10.74-35.67-0.93z"/>
  <path d="m1633 94.97c9.01-12.12 22.76-20.95 37.91-22.6 13.3-1.4 27.79 0.72 38.5 9.28 5.19 3.89 8.74 9.37 12.49 14.56 0.28-6.48 0.05-12.97 0.14-19.46h53.98l0.01 126.29c-0.07 10.37 0.47 20.84-1.48 31.08-2.95 17.22-11.47 34.19-26.06 44.35-15.73 11.04-35.59 13.91-54.39 13.65-19.24-0.34-39.47-4.05-55.07-16.03-11.52-8.7-18.73-22.28-20.76-36.46l54.54 0.01c2.85 7.86 11.25 11.88 19.16 12.37 8.46 0.82 18.47-0.95 23.49-8.55 6.44-9.85 4.49-22.19 4.65-33.31-3.94 3.3-6.85 7.72-11.17 10.63-10.93 8.48-25.59 10.3-38.94 8.2-15.62-2.21-30.28-10.7-39.67-23.41-11.06-14.69-15.08-33.5-15.02-51.59 0.05-20.76 5.05-42.2 17.69-59.01m58.6 20.77c-7.32 1.42-13.26 6.9-16.42 13.49-4.37 8.83-5.2 19.01-4.3 28.7 0.94 9.21 4.05 18.8 11.1 25.16 7.22 6.61 18.96 7.34 27.02 1.82 5.29-3.55 8.74-9.26 10.8-15.19 2.87-8.55 3.42-17.81 2.21-26.72-1.22-8.23-4.36-16.64-10.71-22.29-5.26-4.75-12.84-6.49-19.7-4.97z"/>
  <path d="m1585.9 74.32c6.67-0.96 13.69-1.58 20.22 0.51-0.05 16.59 0.01 33.17-0.03 49.76-9.28-1.39-18.92-2.22-28.06 0.39-7.81 2.09-14.88 6.98-19.27 13.8-6.01 9.18-7.72 20.42-7.83 31.19-0.04 22.74 0 45.47-0.02 68.21h-56.74l-0.01-161.42h54.06c0.11 9.78-0.2 19.57 0.17 29.35 3.31-4.97 5.8-10.49 9.74-15.05 6.77-8.76 16.79-14.99 27.77-16.74z"/>
  <path d="m224.01 261.82 184.75 0.11-0.07 53.94-61.44 0.02v172.1l-62.77-0.02 0.01-172.09h-60.48z"/>
  <path d="m419.14 261.8 65.46 0.07 40.3 145.2 39.34-145.24 62.74-0.01-68.97 226.17-70.23 0.01z"/>
  <path d="m694.94 261.82 62.85 0.16-0.09 83.83 65.86-0.01 0.01-83.98h62.74v226.18h-62.74l-0.03-89.32-65.84 0.02v89.28l-62.76 0.01z"/>
  <path d="m907.48 487.97 0.16-226.25c25.78 0.22 51.57 0.03 77.36 0.09 15.67 0.14 31.55-0.83 46.97 2.63 18.01 3.75 35.1 12.42 48.15 25.46 19.08 18.91 28.48 45.64 30.46 72.03 1.91 26.43-1.12 54.15-14.06 77.69-9.27 17.12-24.4 30.88-42.25 38.64-15.75 6.99-33.12 9.75-50.27 9.74-32.17-0.02-64.35 0.04-96.52-0.03m62.77-174.78-0.01 123.8c10.59-0.05 21.18 0.16 31.76-0.12 13.01-0.49 25.93-6.61 33.59-17.3 9.94-13.59 12.24-31.11 11.86-47.53-0.47-16.04-3.99-33.17-15.2-45.32-8.15-8.94-20.32-13.41-32.26-13.5-9.91-0.08-19.83-0.01-29.74-0.03z"/>
 </g>
</svg>
