<svg height="443.75" viewBox="0 0 627.72396 117.4093" width="2372.5" xmlns="http://www.w3.org/2000/svg" xmlns:xlink="http://www.w3.org/1999/xlink"><linearGradient id="a" gradientUnits="userSpaceOnUse" x1="-37.676" x2="1030861.024" y1="96635.275" y2="96635.275"><stop offset="0" stop-color="#0064f2"/><stop offset=".095137" stop-color="#0064f2"/><stop offset=".39502" stop-color="#1be7d0"/><stop offset=".52" stop-color="#1be7d0"/><stop offset=".94206" stop-color="#6afbcf"/><stop offset="1" stop-color="#6afbcf"/></linearGradient><path d="m1073.19 0h824.81v285h-817.04c-4.72.03-9.69-.43-14.1 1.61-6.54 2.74-11.12 9.46-11.32 16.54-.16 11.58.11 23.16-.11 34.74-.6 8.92-8.33 16.05-17.02 17.11h-87.55c-8.64-1.12-16.39-8.13-17.02-17.04-.26-11.64.03-23.29-.12-34.93-.21-6.82-4.49-13.24-10.65-16.14-4.66-2.38-10.03-1.86-15.08-1.89-75.33-.01-150.66-.01-226-.04-16.34-17.06-32.73-34.09-49-51.22-17.23 16.96-34.32 34.07-51.23 51.34-20.95-6.58-41.83-13.36-62.77-19.97-.09 4.71-.04 9.42-.06 14.13-96.87-.06-193.75.08-290.63-.09.06-3.93.04-7.86.06-11.79-11.98 2.42-23.95 4.85-35.94 7.24-10.69 2.19-21.41 4.75-32.37 5.06-53.35-.02-106.7-.01-160.05-.01v-277.51c41.03.04 82.06-.2 123.09.44 9-.09 17.76 2.22 26.59 3.65 26.24 5.75 52.46 11.57 78.68 17.42-.07-7.25.08-14.5-.09-21.75 5.9-.25 11.81-.06 17.71-.12 90.32-.01 180.64 0 270.96-.02.04 6.38-.11 12.76.1 19.13 22.89-6.65 45.76-13.36 68.68-19.92 15.87 14.88 31.67 29.87 47.76 44.51 8-7.69 16.32-15.03 24.44-22.6 8.08-7.16 15.75-14.88 24.03-21.75 26.65-.23 53.32-.04 79.98-.11 22.36.18 44.7-.44 67.05-.27 78.67 0 157.34-.01 236.01 0 2.73-.07 5.6.44 8.2-.75" fill="url(#a)" transform="matrix(.33073045 0 0 .33073043 -.000307 0)"/><g fill="#fff" transform="matrix(.33073045 0 0 .33073043 -.000297 .00009)"><path d="m257.12 21.25c78.63.13 157.27.06 235.91.01.4 50.89.06 101.81.17 152.72-.03 27.73.06 55.46-.05 83.19-78.71.05-157.43 0-236.14-.02.06-78.63-.16-157.27.11-235.9z"/><path d="m1205.96 22.94c8.14-2.37 16.64-1.58 24.99-1.7 11.6 0 23.2.01 34.8 0 .05 13.56-.07 27.12.06 40.69-12.28.27-24.56-.05-36.83.13-9.84.16-19.67 7.87-20.39 18.01-.2 4.72-.12 9.46-.01 14.18 12.46-.03 24.91.03 37.37-.04.11 13.53.14 27.06-.01 40.59-12.51.13-25.07-.46-37.54.28.33 42.46-.13 84.94.23 127.4-14.21.68-28.48.02-42.7.32-.4-58.6-.06-117.22-.17-175.83.04-12.52-.91-25.78 4.91-37.32 7.32-13.35 20.42-23.34 35.29-26.71z"/><path d="m21.01 23c35.66-.01 71.31.01 106.97 0 13.45.71 26.48 7.72 34.26 18.76 5.66 7.54 8.3 16.94 8.77 26.25-.34 10.55-3.91 21.16-10.84 29.22-1.73 2.14-4.03 3.76-5.6 6.04 9.98 0 20.07 1.17 29.48 4.64 18.25 6.42 33.74 20.05 42.74 37.14 7.3 13.96 10.32 30.2 8.19 45.82-2.09 17.84-10.94 34.79-24.13 46.96-11.44 10.78-26.3 17.84-41.84 20.07-4.36.18-8.64 1.16-13.01 1.08-45 .04-90 .01-135 .01 0-78.66-.01-157.32.01-235.99z"/><path d="m517.23 89.22c21.9-21.89 43.32-44.23 65.38-65.96 14.32 14.37 28.48 28.89 42.85 43.21 2.67 2.66 5.45 5.25 7.73 8.27 2.04-1.05 3.5-2.86 5.11-4.45 12.71-12.63 25.12-25.54 37.89-38.1 2.97-2.79 5.38-6.14 8.52-8.76 21.61 21.79 43.11 43.66 64.7 65.46-8.76 9.41-18.06 18.3-27.1 27.44-7.43 8.25-15.67 15.72-23.3 23.77.69 2.18 3.15 3.46 4.6 5.24 9.7 9.95 19.49 19.82 29.36 29.61 5.35 5.99 11.22 11.49 16.83 17.23-21.73 21.97-43.61 43.8-65.23 65.88-16.49-16.39-32.79-32.99-49.19-49.48-.82-.53-1.91-2.66-2.92-1.33-6.24 6.14-12.55 12.23-18.43 18.73-10.53 10.56-21.21 20.99-31.42 31.86-21.99-21.58-43.53-43.61-65.17-65.54 16.61-16.67 33.13-33.43 49.74-50.09 1.05-.81 1.1-1.65.16-2.49-16.74-16.8-33.52-33.56-50.11-50.5z"/><path d="m1775.39 32.51c14.69.07 29.39.04 44.09.01-.13 16.08.13 32.15-.13 48.23 12.56-.07 25.12.03 37.69-.06 1.19.02 2.41.15 3.63.4-.14 14.48.12 28.97-.13 43.45-13.71-.22-27.42.03-41.13-.13.15 26.2-.06 52.42.1 78.62 1.36 7.98 8.68 13.94 16.34 15.52 11.08.42 22.2.03 33.3.18.29 14.85.05 29.7.11 44.55-14.41-.02-28.83.01-43.24-.01-9.77-1.15-19.53-3.92-27.86-9.29-6.24-4.02-11.4-9.5-15.67-15.53-5.62-8.29-7.34-18.58-7.14-28.43.05-59.17-.03-118.34.04-177.51z"/><path d="m1031.17 79.35c19.87-4.32 41.17-3.44 60.09 4.34 9.27 3.66 17.62 9.38 24.91 16.12 12.04 11.45 18.87 27.24 22.66 43.16 3.22 14.73 3.5 29.97 2.25 44.94-1.55 16.46-6.03 33.02-15.31 46.86-14.51 21.98-41.98 33.48-67.87 31.11-16.32-1.81-31.46-10.44-41.86-23.04-.14 26.64.06 53.28-.09 79.93-14.23-.1-28.45 0-42.67-.05-.02-43.89-.01-87.78-.01-131.67.11-15.02-.65-30.13 1.79-45.02 2.28-16.02 7.61-32.12 18.3-44.56 9.65-11.37 23.33-18.9 37.81-22.12m20.06 39.96c-7.13.53-14.4 2.41-20.13 6.87-8.14 5.88-12.13 15.83-13.71 25.44-1.9 13.32-2.13 26.98.41 40.23 2.2 11.27 8.31 22.16 18.2 28.37 8.78 5.58 19.79 5.74 29.8 4.48 13.2-1.95 23.73-12.7 27.71-25.1 4.54-13.72 4.85-28.6 2.86-42.82-1.56-11.77-6.53-23.8-16.39-30.99-8.07-6.36-18.88-7.14-28.75-6.48z"/><path d="m1474.14 77.22c9.66-1.36 19.46-.13 28.95 1.87 18.85 4.21 36.68 14.83 47.83 30.81 11.96 17.5 16.9 39.05 16.87 60.05.56 20.2-3.06 40.97-13.21 58.66-7.53 13.48-20.07 23.67-33.96 30.07-21.36 9.36-46.15 10.06-68.25 2.89-18.33-6.11-34.73-19.09-43.4-36.53-8.89-17.58-11.43-37.66-10.88-57.14.37-21.25 5.31-43.27 18.32-60.49 13.75-17.8 35.59-28.13 57.73-30.19m3.18 42.25c-11.88.7-22.64 8.35-28.02 18.82-5.67 10.61-6.74 22.92-6.97 34.75.4 10.97 1.42 22.33 6.52 32.25 4.2 8.7 12.01 15.82 21.38 18.45 7.41 1.91 15.27 2.04 22.77.59 9.87-1.79 18.28-8.72 23.11-17.36 3.84-7.04 5.89-14.96 6.58-22.93 1.46-10.98.73-22.19-1.5-33.01-2.39-11.1-8.71-21.71-18.74-27.44-7.6-4.34-16.62-4.65-25.13-4.12z"/><path d="m1617.66 97.71c12.31-11.59 28.66-18.55 45.32-20.78 9.73-.69 19.65-.61 29.14 1.96 10.61 2.91 20.86 7.56 29.66 14.22 6.5 5.62 12.56 11.92 16.92 19.38 8.49 14.35 13.3 30.88 13.88 47.54 1.28 8.25.43 16.62.68 24.93.04 25.76-.1 51.52.07 77.28-1.49 1.29-3.5 1.01-5.28 1.05-12.69-.11-25.38.04-38.06-.09-.3-.28-.9-.82-1.2-1.09-.06-29.02-.01-58.04-.02-87.07.1-10.39-.64-21.18-5.12-30.72-3.77-8.13-10.95-14.82-19.66-17.2-7.54-1.86-15.4-1.77-22.96-.13-9.25 2.42-16.79 9.71-20.52 18.38-4.3 9.59-4.71 20.34-4.5 30.67.51 5.63-.9 11.28.11 16.92-.42 11.97.65 23.99-.37 35.99.51 8.66.75 17.36.13 26.02.29 2.61.45 5.25-.13 7.84-10.22 1.29-20.5-.9-30.72.39-4.37-.9-8.88.25-13.14-.36-.69-6.2-.08-12.56-.28-18.82 0-20.68 0-41.36 0-62.04.06-8.69-.28-17.42.79-26.07 1.76-21.39 9.9-42.86 25.26-58.2z"/><path d="m788.84 81.19c14.39.19 28.8.06 43.2.07.28 27.9.04 55.81.12 83.71-.12 11.85.35 24.29 5.86 35.05 4.44 8.77 13.05 15.63 22.93 16.93 9.94 1.4 21.1.79 29.34-5.59 8.42-6.05 12.75-16.25 14.24-26.24 1.45-8.28.94-16.7 1.02-25.05-.02-26.25.04-52.49-.03-78.74 13.49-.15 26.99.03 40.48-.09 1.19 0 2.38.11 3.57.32-.27 26.15-.04 52.3-.12 78.45.18 18.16-.04 36.86-6.62 54.05-5.53 15.6-15.41 30.08-29.45 39.15-7.55 4.59-15.64 8.41-24.22 10.6-10.17 2.92-20.93 2.7-31.37 1.86-15.67-2.44-31.04-9-42.71-19.87-11.97-11.38-19.47-26.78-23.37-42.66-2.42-10.52-3.33-21.35-3.15-32.12-.01-29.02.03-58.04-.02-87.05.07-.7.22-2.09.3-2.78z"/><path d="m1298.46 94.5c9.25-8.04 21.4-12.31 33.53-13.23 16.36-.15 32.73.09 49.1-.12.44 14.53.25 29.12.09 43.67-9.72-.11-19.44-.01-29.16-.06-5.78-.03-11.99-.02-17.03 3.21-5.13 2.83-9.5 7.95-9.92 13.96-.12 40.3.18 80.6-.14 120.89-14.71-.11-29.41-.06-44.12-.03-.22-41.26-.01-82.52-.1-123.77.05-9.68.42-19.75 4.78-28.59 3.02-6.23 7.94-11.27 12.97-15.93z"/></g></svg>