<svg height="127.54" viewBox="0 0 158.75 33.743759" width="600" xmlns="http://www.w3.org/2000/svg" xmlns:xlink="http://www.w3.org/1999/xlink"><linearGradient id="a" gradientUnits="userSpaceOnUse" x1="-114.9" x2="43.85" y1="148.83" y2="148.83"><stop offset="0" stop-color="#15c0fc"/><stop offset=".77579" stop-color="#ff37ff"/><stop offset="1" stop-color="#ff37ff"/></linearGradient><g transform="translate(114.9 -131.96)"><g fill="#fff"><path d="m-26.062 154.71-7.7893 7.8648-6.0626-6.1206-6.0346 6.0925-7.7314-7.8104 6.0328-6.0908-6.0609-6.1205 7.7876-7.8648 6.0626 6.1206 6.0328-6.0925 7.7349 7.8086-6.0346 6.0924 6.0626 6.1206"/><path d="m-84.491 134.46v28.011h28.048l-.000696-28.011h-28.047"/><path d="m-96.196 144.17c-.13038 0-.2597.005-.3885.0103 1.1862-.98844 1.9418-2.477 1.9418-4.1422 0-2.9788-2.4151-5.393-5.3933-5.393h-12.441v27.99h16.448v-.004c5.0212-.0897 9.0647-4.1849 9.0647-9.2275 0-5.0995-4.1335-9.2333-9.2317-9.2333"/></g><path d="m38.592 159.56c-.70189.94935-1.5617 1.6723-2.5795 2.1671-1.0178.49482-2.1127.81068-3.2814.94935-1.1687.13689-2.2075.20708-3.1147.20708-.16671 0-.52291-.007-1.0739-.0211-.55099-.014-1.1897-.0894-1.9197-.22812-.72822-.1368-1.4985-.35614-2.311-.65973-.8107-.3018-1.5547-.73529-2.2285-1.3003-.67382-.56322-1.2301-1.2914-1.6705-2.1864-.44044-.89492-.65979-1.9881-.65979-3.2814h5.0344c0 .24737.04034.54397.12283.88784.08248.34397.27549.68087.57906 1.0108.30181.32991.7563.61238 1.3617.84577.60539.2334 1.4301.36501 2.4759.39133 1.2933.028 2.2899-.0263 2.9918-.165.7019-.1368 1.2178-.32284 1.5477-.55624s.52993-.47378.59837-.72293c.06843-.24746.10353-.48077.10353-.70011 0-.24925-.04213-.49661-.12459-.74406-.08247-.24737-.29479-.47379-.63872-.68087-.34569-.20528-.88089-.37727-1.6109-.51585-.72822-.13689-1.739-.21935-3.0322-.24746-.99144-.0263-1.9811-.16491-2.9708-.41236-.99143-.24737-1.8864-.62643-2.683-1.1353-.79841-.50887-1.4442-1.1476-1.9408-1.918-.49484-.7703-.74226-1.6793-.74226-2.7251 0-1.1546.24742-2.1654.74226-3.0322.49659-.86684 1.1494-1.5758 1.9618-2.1268.8107-.54924 1.7389-.9616 2.7848-1.2371 1.0458-.27549 2.146-.41236 3.3024-.41236.60364 0 1.4161.0684 2.4338.2053 1.0178.13863 2.0162.45448 2.9918.94932.97739.49484 1.8162 1.2248 2.5181 2.1882.70189.96335 1.0371 2.2689 1.0107 3.9201h-5.0344c0-.88088-.29656-1.574-.8879-2.0846-.59135-.50888-1.6442-.76332-3.1568-.76332-1.1283 0-2.0355.21408-2.7234.64049-.68786.4264-1.0318 1.0107-1.0318 1.753 0 .7159.3299 1.2248.98968 1.5267.66154.3035 1.5126.45444 2.5584.45444.38604 0 .91423.007 1.5898.021.67382.0141 1.395.0685 2.1671.165.76858.0965 1.5477.26142 2.3303.49482.78437.23511 1.4933.57199 2.1268 1.0107.63171.44048 1.1476 1.0055 1.5477 1.6933.39833.68793.59837 1.5407.59837 2.5584 0 1.5951-.35096 2.8673-1.0528 3.8166zm-20.695 2.9094h-5.0361c-1.0721-.10877-2.0355-.41236-2.8883-.90718-.71594-.41237-1.3687-1.0248-1.9601-1.8372-.5931-.81076-.8879-1.932-.8879-3.3621v-20.43h5.0344v5.6134h4.7466v4.9098h-4.7466v9.2036c.08423.3299.23338.6335.45448.90718.19302.22113.4615.42821.80543.61944.34393.19303.78964.28954 1.3406.28954h3.136zm-13.6-24.23c-.014027.30358-.096507.52292-.24742.65979-.15091.13862-.39833.21408-.74226.22812-.34393.014-.84579.0193-1.5056.0193-.66154 0-1.1634-.005-1.5073-.0193-.34393-.014-.59135-.0895-.74226-.22812-.15091-.13687-.23513-.35621-.24742-.65979-.014027-.30181-.02104-.75629-.02104-1.3617 0-.60538.007013-1.0581.02104-1.3617.012286-.30357.096507-.52291.24742-.65978.15091-.13863.39833-.21408.74226-.22812.34393-.014.84579-.021 1.5073-.021.65979 0 1.1616.007 1.5056.021.34393.014.59135.0895.74226.22812.15091.13687.23338.35621.24742.65978.014027.30357.02104.7563.02104 1.3617 0 .60539-.00701 1.0599-.02104 1.3617zm.02104 24.224h-5.0343v-20.91h5.0343zm-7.7998 0h-5.0344v-11.39c0-.65973-.04036-1.2722-.12283-1.8354-.082472-.56501-.25619-1.0669-.5159-1.5073-.26321-.43869-.6475-.78437-1.1564-1.0318-.50888-.24742-1.1897-.37025-2.0425-.37025-.88088 0-1.5828.12283-2.1057.37025-.52292.24742-.92826.5931-1.216 1.0318-.28953.44044-.47554.94233-.55801 1.5073-.08247.56322-.12283 1.1757-.12283 1.8354l.08247 11.39h-5.0765v-27.857h5.0344v9.3686c.24742-.27374.53695-.56328.86684-.86685.32989-.30181.71594-.57731 1.1564-.82473.43869-.24742.94932-.44746 1.5266-.59837.57731-.15091 1.2371-.22636 1.9811-.22636.82473 0 1.6705.15091 2.5374.45272.86684.30358 1.6512.76332 2.3531 1.3827.70015.61943 1.2792 1.3898 1.7319 2.311.45448.923.68084 2.0022.68084 3.2392zm-36.432-6.0118-6.0346 6.0925-7.7314-7.8104 6.0328-6.0908-6.0609-6.1205 7.7876-7.8648 6.0626 6.1206 6.0328-6.0925 7.7349 7.8086-6.0346 6.0924 6.0626 6.1206-7.7893 7.8648zm-16.53 6.0118h-28.046v-28.011h28.046zm-39.585.16321v.003h-16.451v-27.98h12.441c2.9778 0 5.3924 2.4145 5.3924 5.3941 0 1.6652-.75629 3.1533-1.9407 4.1412.1281-.005.25794-.0105.3878-.0105 5.0975 0 9.2317 4.1342 9.2317 9.2334 0 5.0432-4.0429 9.1387-9.065 9.2283zm62.123-30.669-6.003 5.4134-5.6503-5.1519-8.149 2.2338v-2.2654h-34.146v2.5795l-9.3458-2.0706-2.283-.39832-2.4443-.0719-12.978-.0123v32.845h19.325l.7019-.079.68786-.0877 6.3416-1.2845v1.4109h34.377v-1.6898l7.4436 2.3724 6.0644-6.0995 5.8433 6.0995h77.965v-33.744h-77.751" fill="url(#a)"/><g fill="#fff"><path d="m-5.8955 143.3c-.70154-.61925-1.4856-1.0795-2.3524-1.3826-.86649-.30252-1.7126-.45396-2.5381-.45396-.74278 0-1.4031.0762-1.9808.22689-.57784.15161-1.0872.35078-1.527.59837-.44044.2476-.82543.52309-1.1555.82543-.33024.30305-.61907.59205-.86667.86667v-9.3679h-5.0349v27.856h5.0761l-.08247-11.39c0-.66029.04124-1.2722.12371-1.8365.08265-.56366.2683-1.0658.55713-1.5063.28883-.43973.69453-.78419 1.2174-1.0316.52239-.24777 1.2239-.37165 2.1046-.37165.85246 0 1.5335.12388 2.0429.37165.50888.24742.89369.59188 1.1555 1.0316.26128.44046.43342.94262.51589 1.5063.082474.56432.12388 1.1762.12388 1.8365v11.39h5.0347v-13.619c0-1.2382-.22689-2.3176-.68084-3.2399-.45395-.92124-1.0318-1.6919-1.7333-2.3108"/><path d="m4.0501 134.86c-.15161-.13722-.3992-.21267-.74278-.22689-.34446-.0135-.84614-.0205-1.5064-.0205-.66031 0-1.1625.007-1.5063.0205-.34446.0142-.59188.0897-.74278.22689-.15161.1381-.23409.35779-.24759.66048-.014226.30287-.020692.757-.020692 1.3617 0 .60538.006516 1.0595.020692 1.3618.01353.30322.095985.52292.24759.66032.15091.13792.39833.21355.74278.22706.34375.0142.84596.0207 1.5063.0207.66031 0 1.162-.006 1.5064-.0207.34358-.0135.59117-.0891.74278-.22706.15091-.1374.23338-.3571.24759-.66032.01353-.30234.020543-.75647.020543-1.3618 0-.60469-.00701-1.0588-.020543-1.3617-.014226-.30269-.096686-.52238-.24759-.66048"/><path d="m-.71651 162.47h5.0347v-20.923h-5.0347z"/><path d="m13.418 157.19c-.34446-.19212-.61258-.39852-.80473-.61909-.22057-.2746-.37148-.57763-.45413-.90775v-9.2031h4.7461v-4.911h-4.746v-5.62h-5.035v20.428c0 1.4309.29532 2.5521.8872 3.3634.59135.81169 1.2445 1.4238 1.9602 1.8365.85263.49517 1.816.7982 2.8888.90787h5.0349v-4.9936h-3.1364c-.55064 0-.99757-.096-1.3412-.28885"/><path d="m37.498 151.49c-.63328-.43956-1.3413-.77702-2.1253-1.011-.7842-.23333-1.5617-.39866-2.3317-.4953-.7705-.096-1.4928-.15073-2.1666-.16499-.67454-.0135-1.2039-.0207-1.5889-.0207-1.0458 0-1.8983-.15088-2.5586-.45399-.66031-.30235-.99056-.81115-.99056-1.527 0-.74278.34375-1.3269 1.0318-1.7539.68734-.42622 1.5952-.6396 2.7237-.6396 1.5128 0 2.5651.25462 3.1571.76331.59118.50958.8872 1.2039.8872 2.0842h5.0347c.02721-1.6508-.30937-2.9572-1.0109-3.9205-.70172-.96282-1.5412-1.6921-2.5174-2.1873-.97687-.49519-1.9746-.81122-2.992-.94932-1.0183-.13722-1.8302-.20618-2.4349-.20618-1.1555 0-2.2562.13792-3.3016.41271-1.046.27532-1.9746.68804-2.7857 1.238-.81192.55063-1.465 1.2587-1.9604 2.1253-.49518.86667-.74278 1.8778-.74278 3.0332 0 1.046.2476 1.9539.74278 2.7238.49536.77065 1.1415 1.4102 1.9397 1.919.7977.50934 1.6921.88737 2.6825 1.135.99054.24758 1.9809.3857 2.9715.4127 1.2927.0277 2.304.11036 3.0333.2476.72857.1379 1.265.30953 1.6095.51593.34375.20632.55713.43319.63961.68098.08265.24759.12388.49503.12388.74276 0 .22057-.03492.45397-.10318.70141-.06896.24772-.26831.48887-.59837.72225-.33024.23423-.84614.41991-1.5477.55714-.70154.13806-1.6991.19282-2.992.16513-1.0458-.0271-1.8713-.15792-2.4761-.39201-.60538-.2334-1.0595-.51594-1.3619-.84598-.30305-.33026-.4952-.6668-.57784-1.0113-.08246-.34354-.12371-.63939-.12371-.88718h-5.0349c0 1.2936.22004 2.3871.6603 3.281.43992.89424.99704 1.6237 1.6716 2.1872.67364.56399 1.4166.9974 2.2285 1.2998.81105.30324 1.5817.52237 2.311.66034.72857.13738 1.3682.21284 1.919.22725.54994.0135.90791.0205 1.073.0205.9079 0 1.946-.0691 3.1157-.20632 1.169-.13812 2.2628-.45397 3.2809-.94935 1.0176-.49517 1.8778-1.2174 2.5795-2.1666.70136-.94912 1.0523-2.2213 1.0523-3.8172 0-1.0176-.20004-1.8708-.59854-2.5588-.39903-.68737-.91492-1.2515-1.5475-1.6921"/></g></g></svg>