<?xml version="1.0" encoding="UTF-8" standalone="no"?>
<svg
   xmlns:dc="http://purl.org/dc/elements/1.1/"
   xmlns:cc="http://creativecommons.org/ns#"
   xmlns:rdf="http://www.w3.org/1999/02/22-rdf-syntax-ns#"
   xmlns:svg="http://www.w3.org/2000/svg"
   xmlns="http://www.w3.org/2000/svg"
   xmlns:sodipodi="http://sodipodi.sourceforge.net/DTD/sodipodi-0.dtd"
   xmlns:inkscape="http://www.inkscape.org/namespaces/inkscape"
   width="980pt"
   height="750.95691pt"
   viewBox="0 0 980 750.95691"
   version="1.1"
   id="svg37"
   sodipodi:docname="BoxNation.svg"
   inkscape:version="0.92.0 r15299">
  <metadata
     id="metadata43">
    <rdf:RDF>
      <cc:Work
         rdf:about="">
        <dc:format>image/svg+xml</dc:format>
        <dc:type
           rdf:resource="http://purl.org/dc/dcmitype/StillImage" />
        <dc:title></dc:title>
      </cc:Work>
    </rdf:RDF>
  </metadata>
  <defs
     id="defs41" />
  <sodipodi:namedview
     pagecolor="#ffffff"
     bordercolor="#666666"
     borderopacity="1"
     objecttolerance="10"
     gridtolerance="10"
     guidetolerance="10"
     inkscape:pageopacity="0"
     inkscape:pageshadow="2"
     inkscape:window-width="1920"
     inkscape:window-height="1017"
     id="namedview39"
     showgrid="false"
     fit-margin-top="0"
     fit-margin-left="0"
     fit-margin-right="0"
     fit-margin-bottom="0"
     inkscape:zoom="0.61474998"
     inkscape:cx="575.21754"
     inkscape:cy="521.69941"
     inkscape:window-x="-8"
     inkscape:window-y="-8"
     inkscape:window-maximized="1"
     inkscape:current-layer="svg37" />
  <g
     id="#1466adff"
     transform="translate(0,-0.48546625)">
    <path
       d="M 80.91,107.88 C 220.84,29.22 383.74,-8.53 544.01,2.31 c 124.75,8.18 247.43,45.01 356.3,106.41 10.35,5.9 19.86,13.25 28.25,21.72 24.76,24.74 41.19,57.33 47.76,91.61 1.87,9.1 2.35,18.39 3.68,27.57 v 287.19 c -1.34,19.46 -5.24,38.95 -13.46,56.73 -12.65,27.12 -33.14,50.75 -58.84,66.21 -7.41,4.66 -15.51,8.01 -23.51,11.48 -46.43,19.79 -94.36,36.12 -143.26,48.58 -7.21,1.89 -14.56,3.36 -21.68,5.5 -17.56,3.36 -34.97,7.55 -52.63,10.41 -27.42,4.78 -54.98,8.6 -82.69,11.07 -5.71,1.59 -11.65,0.38 -17.43,1.41 -6.13,0.98 -12.38,0.49 -18.53,1.22 -4.99,0.59 -10.02,0.58 -15.02,0.71 -13.66,0.12 -27.28,1.66 -40.94,1.24 -9.35,-0.33 -18.72,0.19 -28.04,-0.65 -11.97,-0.84 -24.03,-0.13 -35.95,-1.67 -8.06,0.13 -16,-1.35 -24.04,-1.44 -25.84,-2.25 -51.53,-5.66 -77.17,-9.49 -3.76,-1.25 -7.82,-1.13 -11.63,-2.23 -16.53,-2.26 -32.69,-6.69 -49.13,-9.2 -0.42,-0.29 -1.27,-0.87 -1.7,-1.16 -0.66,0.01 -1.98,0.02 -2.64,0.02 -1.64,-1.03 -3.57,-1.26 -5.43,-1.57 -24.53,-5.97 -48.99,-12.42 -72.99,-20.23 -9.35,-2.93 -18.67,-6.01 -27.9,-9.3 C 134.11,687.09 113.14,678.83 92.45,669.96 53.37,654.57 22.35,621.05 8.22,581.69 3.75,569.17 1.33,556.03 0,542.84 V 247.03 c 1.73,-27.65 9.28,-55.04 22.85,-79.25 13.66,-24.52 33.14,-46.48 58.06,-59.9"
       id="path2"
       inkscape:connector-curvature="0"
       style="opacity:1;fill:#1466ad"
       sodipodi:nodetypes="ccccccccccccccccccccccccccccccccccc" />
    <path
       d="m 665.47,548.75 c 9.1,-2.48 19.59,-1.23 27.05,4.84 8.85,7.11 13.54,18.19 15.2,29.19 1.93,14.44 1.36,29.76 -4.9,43.14 -4.15,8.85 -10.88,17.05 -20.18,20.69 -8.46,3.36 -18.77,3.58 -26.56,-1.58 -6.47,-4.44 -10.9,-11.32 -13.55,-18.61 -3.88,-10.65 -4.34,-22.19 -3.9,-33.41 0.71,-12.01 3.91,-24.35 11.53,-33.9 3.94,-4.83 9.23,-8.73 15.31,-10.36 z"
       id="path4"
       inkscape:connector-curvature="0"
       style="opacity:1;fill:#1466ad" />
    <path
       d="m 303.41,614.16 c 4.27,-15.61 8.55,-31.21 12.9,-46.8 4.28,16.47 8.48,32.95 12.72,49.43 -8.54,-0.88 -17.08,-1.73 -25.62,-2.63 z"
       id="path6"
       inkscape:connector-curvature="0"
       style="opacity:1;fill:#1466ad" />
  </g>
  <g
     id="#ffffffff"
     transform="translate(0,-0.48546625)">
    <path
       d="m 374.88,36.85 c 109.68,-16.14 222.65,-8.69 329.43,20.98 61.96,17.14 121.84,41.73 178.05,72.9 14.34,7.55 26.92,18.26 36.94,30.97 20.91,26.56 32.52,60.45 31.86,94.29 0.11,68.02 -0.12,136.03 0.16,204.05 -307.66,0.18 -615.32,0.06 -922.99,0.05 0.01,-68.02 0,-136.04 0.01,-204.07 -0.54,-28.45 7.57,-56.92 22.53,-81.08 10.61,-16.91 24.65,-32.08 42.22,-41.86 86.93,-49.06 183,-81.89 281.79,-96.23"
       id="path9"
       inkscape:connector-curvature="0"
       style="opacity:1;fill:#ffffff"
       sodipodi:nodetypes="ccccccccccc" />
    <path
       d="m 662.52,495.82 c 15.49,-2.21 31.9,0.98 45.01,9.67 12.26,7.93 21.62,19.65 28.63,32.33 9.57,17 13.78,36.72 13.47,56.15 -0.15,20.85 -5.82,41.55 -15.92,59.77 -7.57,13.7 -17.36,26.54 -30.37,35.5 -14.69,10.3 -33.64,15.46 -51.36,11.4 -12.42,-2.78 -22.99,-10.92 -30.8,-20.73 -10.58,-13.35 -17.34,-29.45 -20.82,-46.06 -3.44,-16.51 -3.91,-33.57 -2.14,-50.32 2.45,-21.67 9.73,-43.04 22.53,-60.82 9.65,-13.96 24.72,-24.65 41.77,-26.89 m 2.95,52.93 c -6.08,1.63 -11.37,5.53 -15.31,10.36 -7.62,9.55 -10.82,21.89 -11.53,33.9 -0.44,11.22 0.02,22.76 3.9,33.41 2.65,7.29 7.08,14.17 13.55,18.61 7.79,5.16 18.1,4.94 26.56,1.58 9.3,-3.64 16.03,-11.84 20.18,-20.69 6.26,-13.38 6.83,-28.7 4.9,-43.14 -1.66,-11 -6.35,-22.08 -15.2,-29.19 -7.46,-6.07 -17.95,-7.32 -27.05,-4.84 z"
       id="path17"
       inkscape:connector-curvature="0"
       style="opacity:1;fill:#ffffff" />
    <path
       d="m 84.14,496.82 c 11.64,0.01 23.27,0.11 34.9,0.11 21.49,27.51 40.57,56.8 58.79,86.55 0.46,-28.74 0.91,-57.49 1.41,-86.23 13.32,0.03 26.64,0.03 39.96,0.16 -1.12,59.7 -2.15,119.4 -3.19,179.1 -10.81,-3.02 -21.56,-6.21 -32.3,-9.43 -18.85,-34.67 -38.47,-68.97 -60.28,-101.87 -0.33,26.9 -0.51,53.8 -0.82,80.71 C 109.7,641.04 96.99,635.67 84.22,630.46 84.11,585.91 84.13,541.37 84.14,496.82 Z"
       id="path19"
       inkscape:connector-curvature="0"
       style="opacity:1;fill:#ffffff" />
    <path
       d="m 769.96,497.38 c 11.66,0 23.32,-0.09 34.98,-0.1 18.94,26.51 38.81,52.42 60.9,76.4 -0.28,-25.57 -0.46,-51.14 -0.76,-76.71 13.31,-0.03 26.63,-0.13 39.94,-0.15 0.05,44.47 -0.09,88.95 0.07,133.42 -10.47,4.55 -21.04,8.87 -31.68,12.97 -22.79,-21.14 -43.12,-44.77 -62.27,-69.21 0.49,30.26 0.97,60.51 1.46,90.77 -13.08,4.19 -26.27,8.05 -39.48,11.78 -1.04,-59.72 -2.1,-119.45 -3.16,-179.17 z"
       id="path21"
       inkscape:connector-curvature="0"
       style="opacity:1;fill:#ffffff" />
    <path
       d="m 295.75,497.55 c 13.94,-0.04 27.87,0.12 41.81,0.08 19.55,70.54 38.47,141.26 57.52,211.95 -14.61,-1.41 -29.16,-3.27 -43.73,-4.98 -3.51,-13.12 -6.75,-26.3 -10.04,-39.48 -16.69,-2.14 -33.34,-4.63 -50,-7.07 -3.94,11.25 -6.74,22.85 -10.23,34.24 -14.26,-3.04 -28.48,-6.27 -42.62,-9.8 20.36,-61.25 39.18,-122.99 57.29,-184.94 m 7.66,116.61 c 8.54,0.9 17.08,1.75 25.62,2.63 -4.24,-16.48 -8.44,-32.96 -12.72,-49.43 -4.35,15.59 -8.63,31.19 -12.9,46.8 z"
       id="path23"
       inkscape:connector-curvature="0"
       style="opacity:1;fill:#ffffff" />
    <path
       d="m 376.85,497.75 c 43.46,-0.03 86.91,0.06 130.37,0.04 0.02,17.12 0.03,34.24 0.04,51.36 -15.13,0.02 -30.26,-0.02 -45.39,-0.05 -0.26,54.89 -0.28,109.79 -0.53,164.69 -13.6,-0.39 -27.19,-1.14 -40.77,-2.09 0.43,-54.38 0.72,-108.76 1.14,-163.14 -15.14,-0.3 -30.27,-0.67 -45.4,-1.03 0.12,-16.59 0.34,-33.18 0.54,-49.78 z"
       id="path25"
       inkscape:connector-curvature="0"
       style="opacity:1;fill:#ffffff" />
    <path
       d="m 531.21,497.79 c 13.3,-0.01 26.6,-0.01 39.91,0 0.55,71.21 1.08,142.42 1.56,213.64 -13.57,0.89 -27.13,1.82 -40.72,2.23 -0.23,-71.96 -0.54,-143.92 -0.75,-215.87 z"
       id="path27"
       inkscape:connector-curvature="0"
       style="opacity:1;fill:#ffffff" />
  </g>
  <g
     id="#d1202eff"
     transform="translate(0,-0.48546625)">
    <path
       d="m 474.51,56.69 c 19.82,-0.59 39.83,-1.32 59.44,2.24 20.26,3.62 40.38,10.07 57.61,21.57 13.97,9.3 25.72,22.45 31.66,38.29 4.75,12.12 6.05,25.31 5.43,38.24 -0.65,57.99 -1.46,115.97 -2.15,173.96 -0.26,14.05 0.61,28.44 -3.54,42.06 -3.69,13.19 -11.44,25.16 -21.99,33.89 -13.39,11.32 -30.18,17.74 -47.1,21.62 -23.21,5.32 -47.18,5.73 -70.89,5.35 -21.91,-0.61 -44.09,-2.83 -64.84,-10.29 -15.27,-5.32 -29.78,-14.01 -39.94,-26.78 -7.55,-9.42 -12.24,-20.93 -14.16,-32.8 -1.17,-6.62 -1.15,-13.37 -1.33,-20.08 -0.67,-56.98 -1.45,-113.96 -2.21,-170.95 0.17,-14.16 -1.41,-28.55 1.89,-42.48 3.8,-17.47 14.17,-33.21 28.08,-44.32 23.8,-18.83 54.26,-26.9 84.04,-29.52 m 7.05,76.98 c -4.75,0.73 -9.54,1.84 -13.82,4.1 -2.68,1.4 -5,4.03 -4.87,7.21 -0.01,67.35 0.5,134.7 0.65,202.05 0.01,2.97 2.67,5.01 5.07,6.28 7.25,3.52 15.47,4.26 23.43,4.3 9.32,0.09 19.03,-0.08 27.69,-3.95 2.41,-1.21 5.22,-2.91 5.74,-5.77 0.54,-65.96 0.51,-131.93 0.73,-197.89 -0.24,-3.39 0.99,-7.68 -2.02,-10.17 -4.55,-3.94 -10.65,-5.24 -16.41,-6.21 -8.68,-1.11 -17.52,-1.21 -26.19,0.05 z"
       id="path30"
       inkscape:connector-curvature="0"
       style="opacity:1;fill:#d1202e" />
    <path
       d="m 618.47,70.51 c 35.87,5.51 71.39,13.34 106.21,23.62 14.67,36.68 29.65,73.23 44.91,109.67 14.19,-26.16 28.68,-52.18 44.25,-77.55 34.11,14.64 67.23,31.58 98.99,50.79 -32.08,31.6 -59.22,67.74 -84.77,104.7 25.46,51.09 52.64,101.47 84.72,148.75 -34.77,0.19 -69.53,-0.55 -104.3,-0.53 -14.4,-31.08 -27.84,-62.6 -41.33,-94.09 -1.99,2.59 -3.33,5.57 -4.87,8.42 -15.08,28.13 -29.63,56.54 -43.73,85.17 -34.77,0.12 -69.53,-0.08 -104.29,-0.23 28.65,-57.29 58.23,-114.15 90.27,-169.62 -28.88,-62.95 -57.58,-125.97 -86.06,-189.1 z"
       id="path32"
       inkscape:connector-curvature="0"
       style="opacity:1;fill:#d1202e" />
    <path
       d="m 203.69,116.67 c 18.88,-8.33 38.96,-14.22 59.58,-15.99 17.58,-1.61 36.51,-0.32 51.81,9.32 11.61,7.18 19.01,19.75 21.72,32.93 2.38,10.49 1.92,21.33 2.18,32.02 -0.1,11.01 0.4,22.01 0.46,33.02 0.03,13.07 -4.95,26.05 -13.69,35.77 -4.57,5.29 -10.09,9.62 -15.85,13.54 11.22,4.79 21.8,12.65 26.88,24.06 5.27,11.12 3.93,23.71 4.22,35.64 -0.29,19.07 2.84,38.79 -3.58,57.22 -5.03,15.89 -16.76,29.05 -31.09,37.28 -21.56,12.48 -46.81,16.41 -71.34,17.8 -27.97,1.16 -55.98,0.44 -83.97,0.85 -23.17,0.25 -46.35,0.44 -69.53,0.37 -0.01,-84.49 0.01,-168.98 0,-253.47 38.87,-23.63 79.87,-43.71 122.2,-60.36 m 10.36,62.39 c -12.49,3.33 -24.72,7.55 -36.97,11.67 0.42,19 0.82,38 0.94,57.01 16.12,-4.69 32.95,-7 48.59,-13.3 3.88,-1.84 8.07,-3.65 10.81,-7.11 2.31,-2.96 1.28,-6.9 1.31,-10.34 -0.27,-10.32 -0.24,-20.64 -0.63,-30.96 -0.19,-2.68 0.78,-6.52 -2.46,-7.73 -6.96,-2.65 -14.58,-0.79 -21.59,0.76 m 1.04,125.62 c -11.98,1.46 -23.84,3.78 -35.78,5.57 0.04,19.04 0.66,38.08 0.78,57.12 12.31,-1.49 24.74,-1.68 37.01,-3.43 6.66,-1.03 13.48,-2.16 19.48,-5.4 2.43,-1.29 4.77,-3.54 4.68,-6.51 -0.2,-13.96 -0.43,-27.91 -0.83,-41.86 -0.11,-2.41 -2.55,-3.66 -4.53,-4.37 -6.69,-2.23 -13.9,-1.99 -20.81,-1.12 z"
       id="path34"
       inkscape:connector-curvature="0"
       style="opacity:1;fill:#d1202e" />
  </g>
</svg>
