<?xml version="1.0" encoding="UTF-8"?>
<svg id="Layer_1" width="1824.2" height="178.23" data-name="Layer 1" version="1.1" viewBox="0 0 1824.2 178.23" xmlns="http://www.w3.org/2000/svg" xmlns:cc="http://creativecommons.org/ns#" xmlns:dc="http://purl.org/dc/elements/1.1/" xmlns:rdf="http://www.w3.org/1999/02/22-rdf-syntax-ns#">
 <metadata id="metadata139">
  <rdf:RDF>
   <cc:Work rdf:about="">
    <dc:format>image/svg+xml</dc:format>
    <dc:type rdf:resource="http://purl.org/dc/dcmitype/StillImage"/>
    <dc:title/>
   </cc:Work>
  </rdf:RDF>
 </metadata>
 <path id="path104" d="m89.117 7.1594e-5c-49.217 0-89.117 39.898-89.117 89.115s39.899 89.117 89.117 89.117h1449.4c49.225-0.20776 88.956-40.286 88.739-89.509-0.2172-49.225-40.301-88.948-89.527-88.722h-1448.6zm759.28 14.257h688.52c41.348-0.19018 75.019 33.179 75.201 74.528 0.1824 41.348-33.193 75.014-74.541 75.189h-689.18c-41.348 6e-3 -74.869-33.511-74.869-74.858 0-41.348 33.521-74.864 74.869-74.858zm-456.03 13.263a61.071 61.071 0 0 1 38.007 12.32 1.8347 1.8347 0 0 1 0.52391 2.3585l-10.223 14.678a1.8347 1.8347 0 0 1-1.3106 0.78673h-1.0478c-10.223-8.3874-18.349-10.484-25.95-9.4357-7.6011 1.0485-13.629 4.979-13.629 9.1728s4.9798 9.6986 22.803 14.154c24.114 6.2906 33.549 15.202 33.549 31.715 0 16.512-14.678 33.026-38.792 33.026a67.362 67.362 0 0 1-43.509-15.726 1.5726 1.5726 0 0 1-0.26282-2.3585l11.533-13.893 1.3106-0.52391h1.0478c10.223 8.1253 19.659 11.796 30.143 11.796 10.485 0 15.202-3.9328 15.202-9.9615 0-6.0285-3.146-9.1728-21.231-13.629-23.327-6.0285-35.121-12.581-35.121-32.239s14.939-32.241 36.956-32.241zm308.16 5.5054a1.5726 1.5726 0 0 1 0.0818 0h19.658a1.8347 1.8347 0 0 1 1.8364 1.8346v18.871h17.298a1.8347 1.8347 0 0 1 1.5734 1.8346v16.251a1.8347 1.8347 0 0 1-1.5734 1.8346h-17.298v34.336c0 5.5042 2.3582 7.8622 7.3382 7.8622a24.114 24.114 0 0 0 8.9117-1.8346h1.5718a1.8347 1.8347 0 0 1 0.78675 1.3106v14.678a1.8347 1.8347 0 0 1-0.78675 1.5718 34.074 34.074 0 0 1-17.298 4.1947v0.26108c-15.988 0-23.59-7.8621-23.59-24.375v-38.268h-7.8638a1.8347 1.8347 0 0 1-1.8346-1.8346v-15.988a1.8347 1.8347 0 0 1 1.8346-1.8346h7.8638v-18.871a1.5726 1.5726 0 0 1 1.4899-1.8346zm-585.46 9.6968h67.099c30.929 0 34.336 30.929 17.036 41.413 26.473 9.4357 20.707 50.849-25.685 50.849h-58.45a9.6977 9.6977 0 0 1-9.4357-9.4357v-73.128a9.6977 9.6977 0 0 1 9.4357-9.6986zm104.47 0.25935a8.3874 8.3874 0 0 1 0.10966 0.0035h96.719a8.3874 8.3874 0 0 1 0.10965-0.0035 8.3874 8.3874 0 0 1 8.5392 7.6045 8.6495 8.6495 0 0 1-8.6489 7.601h-30.667v67.362a9.4357 9.4357 0 0 1-9.4357 9.4357h-14.94a9.6977 9.6977 0 0 1-9.4357-9.4357v-67.362h-32.241a8.6495 8.6495 0 0 1-8.6489-7.601 8.3874 8.3874 0 0 1 8.5392-7.6045zm361.56 9.1764c24.638 0 43.773 18.085 43.773 41.938 0 23.852-19.396 42.462-44.034 42.462h-0.26283c-24.9 0-43.509-18.085-43.509-41.938 0-23.852 19.394-42.462 44.033-42.462zm-88.854 0.52565c18.347 0 36.958 14.416 36.958 41.938 0 27.521-19.134 42.199-36.958 42.199-9.8269 0.20755-19.166-4.268-25.161-12.057v32.765c0 1.0134-0.82124 1.8346-1.8346 1.8346h-19.397c-1.0133 0-1.8346-0.82124-1.8346-1.8346v-101.7c0-1.0133 0.82126-1.8346 1.8346-1.8346h19.397c1.0133-3e-6 1.8346 0.82125 1.8346 1.8346v9.9597c5.6135-8.3626 15.091-13.299 25.161-13.105zm161.77 1.288a1.5726 1.5726 0 0 1 1.5212 1.5944v14.678c5.2421-12.057 12.844-16.25 24.114-16.25l1.0495 0.52391a1.5726 1.5726 0 0 1 0.52391 1.3106v19.134a1.8347 1.8347 0 0 1-1.5734 1.8346c-15.726 0.26211-24.114 9.9597-24.114 28.57v27.783a1.8347 1.8347 0 0 1-1.8346 1.8346v-0.26108h-19.395a1.8347 1.8347 0 0 1-1.5734-1.8362v-77.321a1.5726 1.5726 0 0 1 1.5734-1.5718h19.395a1.5726 1.5726 0 0 1 0.3133-0.02263zm-513.26 3.1678v22.279h33.289c22.279 0 23.065-22.279 2.6213-22.279h-35.91zm441.13 14.92c-0.34841-0.0039-0.69909 0.0028-1.0513 0.01915-12.057 0-20.968 9.1728-20.968 22.016 0 12.844 9.4348 22.542 21.229 22.542a20.706 20.706 0 0 0 20.968-22.016c-0.50783-12.696-9.3778-22.441-20.179-22.561zm-93.314 0.25935c-0.34841-0.0036-0.69909 0.0027-1.0513 0.01914-12.057 0-20.968 9.1728-20.968 22.016 0 12.844 9.4348 22.542 21.229 22.542 12.071 0.17708 21.734-9.9686 20.968-22.016-0.50783-12.696-9.3778-22.441-20.179-22.561zm-347.82 21.777v25.424h29.095c29.356 0 29.093-25.424 8.125-25.424h-37.221z" stroke-width="2.6211"/>
 <g id="g870" transform="matrix(.89224 0 0 .89224 804.25 39.146)">
  <path id="path2" d="m153.52 5.73c14.67-2.24 30.46 1.16 42.15 10.52 10.13 7.93 16.86 19.99 18.33 32.76 2.27 15.91-3.43 32.78-15.19 43.79-19.13 18.28-52.14 18.9-72.02 1.48-12.31-10.52-18.49-27.33-16.73-43.34 1.13-12.87 7.5-25.21 17.39-33.54 7.37-6.24 16.53-10.27 26.07-11.67m3.95 19.86c-7.15 1.04-13.86 4.87-18.27 10.61-10.35 13.04-8.23 34.37 5.2 44.52 11.16 8.88 28.84 7.8 38.66-2.61 11.1-11.36 11.33-31.21 0.83-43.03-6.41-7.42-16.77-11.03-26.42-9.49z"/>
  <path id="path4" d="m393.4 5.58c14.38-1.93 29.73 1.58 41.13 10.76 10.31 8.09 17.02 20.49 18.32 33.52 2 15.84-3.88 32.51-15.69 43.32-18.66 17.39-50.05 18.39-69.92 2.49-10.08-7.92-16.75-19.94-18.25-32.66-1.94-14.04 2.14-28.86 11.33-39.7 8.23-9.86 20.38-16.17 33.08-17.73m4.83 19.77c-8.28 0.64-16.23 4.98-21.01 11.81-9.39 12.94-7.25 33.08 5.4 43.14 10.8 9.01 28.2 8.51 38.31-1.34 11.71-10.95 12.47-31 2.29-43.21-5.94-7.32-15.63-11.22-24.99-10.4z"/>
  <path id="path6" d="m685.16 25.03c8.27-11.42 21.82-18.49 35.78-19.68 11.65-0.99 23.93 0.67 34.08 6.79 3.82 2.21 7.1 5.19 10.42 8.08l-14.06 16.2c-5.47-4.99-11.9-9.33-19.33-10.61-9.54-2-20.07 1.34-26.41 8.82-11.13 12.59-10.05 33.99 2.49 45.24 6.89 6.3 17.01 8.24 25.95 6 7.03-1.54 12.89-6.04 18.1-10.8l13.69 14.04c-6.62 8.29-16.45 14.32-26.94 16.5-11.45 2.34-23.73 1.73-34.49-3.05-13.15-5.78-23.45-17.63-27.26-31.49-4.32-15.47-1.87-33.13 7.98-46.04z"/>
  <path id="path8" d="m18.515 105.24v-98.49h46.425c9.27 0.12 19.29 2.43 25.81 9.48 6.25 6.57 7.41 16.72 4.59 25.09-1.89 5.44-6.28 9.52-11.12 12.4 6.68 2.7 13.5 6.87 16.2 13.91 3.59 9.64 2.19 21.95-5.89 28.96-7.51 6.58-17.88 8.39-27.56 8.65h-48.455m21.245-79.23v20.48h20.2c4.02-0.14 8.37-0.55 11.69-3.04 3.85-2.9 4.43-8.94 1.77-12.81-2.58-3.56-7.26-4.5-11.4-4.63h-22.26m0 38.735v21.26h25.27c3.92-0.03 8.1-0.345 11.45-2.595 5.36-3.38 5.44-12.52 0.08-15.94-3.39-2.2-7.54-2.745-11.51-2.725z"/>
  <path id="path10" d="m213.19 6.76h25.63l20.145 31.69 21.045-31.69h24.9l-32.86 48.245 34.26 50.235h-25.62l-21.725-33.46-22.185 33.46h-25l34.31-50.235z"/>
  <path id="path12" d="m465.33 6.76h74.91v19.995h-53.24v20.49h46.75v19.995h-46.75v38.065h-21.67z"/>
  <path id="path12-7" d="m551.49 6.715h74.91v19.995h-53.24v20.49h46.75v19.995h-46.75v38.065h-21.67z"/>
  <path id="path16" d="m639.01 6.755h21.74v98.49h-21.74z"/>
  <path id="path18" d="m777.52 105.26v-98.505h74.23v19.495h-52.735v19.755h46.485v19.49h-46.485v20.26h53.475v19.505z"/>
 </g>
 <g id="g913" transform="translate(-72.301 -21.768)">
  <g id="flowRoot3006" transform="matrix(3.3579 0 0 3.3579 652.27 -1402.6)">
   <path id="path3485" d="m345.73 465.22h-3.479v-13.16h-11.4v13.16h-3.4802v-28.84h3.4802v12.56h11.4v-12.56h3.479z"/>
   <path id="path3487" d="m370.53 450.82c-2e-5 2.0532-0.23338 3.9598-0.70007 5.7196-0.46674 1.7598-1.1868 3.2798-2.16 4.5599-0.97332 1.2801-2.2266 2.2868-3.7598 3.02-1.5332 0.73323-3.3667 1.0998-5.5005 1.0998h-7.0398v-28.84h6.6394c2.2135 3e-5 4.107 0.33348 5.6805 1.0004 1.5735 0.66694 2.8668 1.627 3.88 2.8802 1.0132 1.2533 1.7598 2.7733 2.24 4.5599 0.48012 1.7867 0.72019 3.7868 0.72021 6.0004zm-3.5998 0c-2e-5 -1.3607-0.11334-2.7142-0.33997-4.0607-0.22666-1.3464-0.62664-2.5596-1.2-3.6395-0.57334-1.0799-1.3466-1.9533-2.32-2.6202-0.97332-0.66688-2.1936-1.0003-3.6609-1.0004h-4.5593v22.681h4.2798c1.5999 0 2.9065-0.3601 3.9197-1.0803 1.0132-0.72021 1.8064-1.6402 2.3798-2.76 0.57331-1.1198 0.96678-2.3464 1.1804-3.6798 0.21361-1.3334 0.32042-2.6133 0.32044-3.8397z"/>
  </g>
 </g>
</svg>
