<svg height="6.8908mm" viewBox="0 0 56.146661 24.416219" width="15.845836mm" xmlns="http://www.w3.org/2000/svg"><g transform="translate(-252.40039 -374.43974)"><g fill="#231f1f"><path d="m285.53739 392.95362h5.38375v5.06625h-5.38375zm3.39125.705c-.0237-.004-.0475-.007-.0725-.0112l-.0288-.004c-.0412-.006-.0825-.0113-.125-.015-.0288-.002-.0575-.005-.0863-.006-.0512-.002-.10125-.005-.15-.005-.0213 0-.035.001-.0562.001-.04.001-.08.002-.12.005-.0213.001-.0437.004-.065.005-.0325.002-.0638.006-.095.01l-.0263.004-.0288.005-.0362.005c-.015.002-.03.005-.0462.009-.02.004-.0412.007-.0625.0125-.1275.0262-.245.0625-.355.105-.0562.0213-.11.0462-.16125.0713-.0425.02-.0838.0425-.12375.065-.0387.0225-.075.045-.11.0687-.0213.0125-.0412.0263-.06.0413-.0175.0112-.0337.0238-.05.0362-.0337.0263-.0675.0537-.0975.08-.0288.0263-.0575.0512-.0838.0775-.0225.0225-.045.0462-.0663.07s-.0425.0475-.0637.0738c-.0213.0275-.0437.0562-.065.085-.015.0213-.0312.0438-.045.0663-.01.015-.02.03-.03.0462-.0563.0913-.105.19-.145.295-.0512.13-.0875.27125-.1075.42-.006.0475-.0112.095-.0137.14375-.001.0375-.004.0763-.004.115 0 .0288 0 .0575.002.085.001.03.004.0587.007.0875l.002.02c.004.0337.009.0675.0163.10125.002.0125.005.0263.007.0388.006.0275.0125.055.02.0825.009.035.0187.0688.03.1025.0138.0412.0288.0812.045.12.0263.0613.0537.12125.085.1775.0175.0325.0375.065.0563.0962.015.0238.0312.0475.0462.0713.0213.03.0437.0587.065.0863.0225.03.0462.0575.0687.0838.0288.0337.0575.0637.085.0913l.0163.015c.0225.0225.0475.0462.0762.0713.02.0162.04.0337.0625.0512.02.0163.0425.0325.065.0487.0275.02.0563.04.0863.0588.0325.0212.065.0425.10125.0612.0713.04.15.0788.23625.11375.0325.0125.0662.025.1.0362.035.0125.0688.0225.10625.0338.0613.0175.12625.0337.195.0462.055.0112.1125.02.17125.0275.06.006.12.0125.18375.015.03.001.0613.004.0937.004h.0437c.1125 0 .2175-.004.315-.0125l.0188-.001c.0387-.004.0763-.007.1125-.0125.055-.006.1075-.015.15875-.0238.0312-.005.0613-.0112.0913-.0175.0475-.01.0913-.0213.13375-.0325.03-.009.0612-.0162.0888-.025.035-.0113.0687-.0225.1-.0325l.0312-.0112c.015-.005.0362-.0125.06-.0225.0325-.0125.0713-.0275.11625-.0475.0262-.0113.055-.0238.085-.0375.0263-.0113.0537-.025.0813-.0387.0125-.005.0238-.0113.035-.0175v-.69c-.007.005-.0163.01-.025.015l-.0462.0288c-.0475.0275-.0925.055-.13875.08-.05.0275-.0987.0525-.1475.075-.0863.04-.1675.075-.24625.1025-.15125.0537-.29.0888-.41125.11-.015.002-.0288.005-.0437.007-.0325.005-.065.009-.0962.0125-.0488.005-.0925.007-.1325.01-.0263.001-.0513.001-.0738.001-.0487 0-.1-.001-.15125-.005-.06-.004-.12125-.0113-.1825-.0213-.1-.0163-.2-.0425-.29875-.0775-.015-.005-.0288-.0113-.0437-.0163-.009-.004-.0188-.009-.0275-.0125-.0163-.006-.0325-.0138-.0475-.0213-.035-.015-.0675-.0325-.10125-.0513-.015-.009-.0312-.0187-.0487-.0288-.015-.0112-.0325-.0225-.0487-.0325-.02-.0138-.04-.0288-.0588-.0437-.0187-.015-.0387-.0312-.055-.045l-.0225-.02-.0113-.0113-.006-.006-.009-.007c-.0312-.0312-.06-.0625-.085-.0937-.015-.0175-.0288-.035-.0412-.0525-.0125-.0175-.025-.0337-.0362-.0512-.01-.0163-.02-.0325-.03-.0487-.015-.0238-.0275-.0487-.0387-.0725-.01-.0213-.02-.0425-.0288-.0625-.015-.0337-.0275-.07-.0375-.1025-.009-.0263-.0162-.0525-.0225-.0763-.0175-.0725-.0275-.13875-.0325-.195-.003-.0213-.003-.0412-.004-.06-.001-.0275-.002-.0512-.002-.0712 0-.0125 0-.0263.001-.0438.001-.0387.005-.0887.0125-.14625.005-.035.0125-.0713.0212-.11.006-.0263.0138-.0525.0225-.08.007-.0238.0163-.0488.0263-.0738.006-.0175.0125-.035.0213-.0525.01-.0225.02-.0462.0337-.07.009-.0175.0187-.035.0288-.0537.0225-.0388.0487-.0775.0775-.11625.0113-.015.0213-.0288.0325-.0425.015-.0175.03-.035.0463-.0525.009-.009.0162-.0175.025-.0263.12625-.12625.26875-.22125.41625-.28875.0238-.01.0462-.02.07-.0288.0238-.01.0463-.0175.07-.0263.0263-.009.0513-.0163.0775-.0238.0238-.006.0487-.0125.0725-.0175.0238-.006.0487-.0113.0725-.015.0275-.005.0537-.009.08-.0125.0275-.004.0538-.006.08-.009.05-.004.1-.006.1475-.006.0163 0 .0325-.001.0487 0 .035.001.07.002.105.004.0225.001.0462.004.0687.006.0438.004.0863.009.12625.015.035.005.07.0113.10125.0175.05.01.095.0212.13625.0312.0263.007.05.015.0725.0212.0337.01.0625.0188.085.0263.0375.0138.0588.0213.0588.0213.0337.0125.0675.025.1.0387.0438.0175.0863.0362.12625.055.0337.015.065.03.095.045.025.0125.0475.0238.0688.035.0387.02.07.0375.0962.0513l.0713.0387v-.67875s-.0425-.0175-.11625-.045c-.0325-.0125-.07-.0263-.11375-.0412-.0238-.009-.05-.0188-.0763-.0275-.0213-.007-.0437-.015-.0662-.0225-.0263-.007-.0538-.0163-.0813-.025-.02-.006-.04-.0125-.0613-.0187l-.0175-.005c-.0213-.006-.0412-.0113-.0625-.0163-.0238-.007-.0487-.0138-.0738-.02-.0175-.004-.0325-.008-.05-.0113-.0263-.006-.0538-.0125-.0813-.0175-.0275-.006-.0563-.0113-.085-.0175"/><path d="m281.39964 395.74799v.995h.64625.0337c.0225-.001.0525-.002.09-.005.0712-.008.1625-.02.2525-.05.0813-.0275.16-.0688.22125-.12875.0225-.0238.0425-.0475.0575-.0725.05-.08.0637-.16125.0662-.20625.001-.02.001-.0325.001-.0325s0-.009 0-.0238c-.001-.02-.002-.0563-.0138-.0962-.0113-.0475-.0337-.1025-.075-.1525-.007-.01-.0163-.0187-.025-.0275-.0175-.0188-.0375-.035-.0575-.0512-.0363-.0263-.0763-.0488-.12-.0675-.0588-.025-.12375-.0438-.195-.0563-.0363-.007-.075-.0125-.115-.0163-.0238-.002-.0488-.005-.0738-.006-.0225-.001-.0462-.002-.0688-.002-.23 0-.625 0-.625 0"/><path d="m281.39964 394.23424v.94375h.3125s.0213 0 .0488-.001c.0225 0 .0475-.001.0712-.002.0638-.005.1525-.0138.2425-.0387.0163-.005.035-.01.0513-.0163.07-.025.1375-.0612.18875-.1125.0425-.0412.0688-.0863.0875-.13.0225-.0537.03-.10625.0325-.1425.004-.0325.004-.0537.004-.0537s0-.015-.001-.04c-.002-.0412-.0113-.1075-.0425-.1725-.0162-.03-.0375-.06-.0675-.0888-.0337-.035-.0775-.0612-.12375-.0825-.0875-.0375-.18875-.0537-.27375-.06-.0362-.001-.07-.002-.0987-.002h-.43125z"/><path d="m279.33364 392.95362h5.38375v5.06625h-5.38375zm1.4125.71125v3.64875h1.37375s.67.0188 1.04-.35125c.3-.30125.27875-.65.27875-.65s.0212-.36375-.2575-.6425c-.2375-.23625-.54-.3-.54-.3s.1375-.065.2425-.17c.0487-.0487.22375-.2075.22375-.59125 0-.3875-.2575-.61-.2575-.61s-.2825-.33375-.92-.33375z"/><path d="m285.90501 379.86724c.0125-.17375.015-.3025.015-.3025.015-.32375.03-.66125.0588-.90125.0562-.55125.2675-1.40625.2675-1.40625.1225-.51875.2875-.9125.4325-1.1875.1075-.2025.2-.33875.255-.4125.45875-.73875 1.21375-1.2175 2.18375-1.2175 1.45375 0 2.6075 1.15 2.62 2.58.015.42-.0838.86625-.33875 1.32875-.53125.96375-.7025 1.15125-.72875 1.19375-.3675.5875-.545.85625-.65625 1.06125-.0687.1275-.1.2125-.205.54l-.0175.0563.0575-.0125c1.00625-.20875 3.16375-.0475 3.71375 1.95375.0425.14375.0962.3875.1325.6425l.007.1175c.0825.62375.0162 1.59875-.3625 2.6425-.04.0863-.20375.44-.3975.79125-.17875.32-.46.79-.77875 1.0875-.001.001-.1225.1525-.37375.3675-.255.22-.63.49375-1.10875.7075-2.25375 1.0175-5.45125.30125-6.315-2.3275-.41875-1.075-.4275-2.075-.33375-2.8.08-.6125.235-1.04625.295-1.19875.0863-.27875.24-.57875.34125-.7675.12375-.22875.24-.415.24-.415.27125-.415.50625-.73625.68-1.0075.15875-.24625.2125-.3725.235-.47.0425-.1875.0675-.445.0813-.64375"/></g><g fill-rule="evenodd"><path d="m262.37514 388.35124c-.12125 0-.81875 1.69625-.81875 1.69625s1.1525 1.0925 1.21375 1.21375c.06.12125 1.3625-1.4875 1.3625-1.79 0-.30125-1.63625-1.12-1.7575-1.12" fill="#231f1f"/><path d="m305.84026 397.63049c-1.56 1.67375-4.085 1.56125-5.655.0987-1.0675-.99625-1.19625-2.435-.14-3.5675.17875-.1925.4575-.42.80375-.54125.0937-.0325.19875-.0588.31-.0725l.0375-.005-.007-.0362c-.21625-1.0125.4425-2.1275.83-2.5425 1.5625-1.675 4.095-1.5525 5.655-.0987 1.07875 1.00625 1.19375 2.4375.14 3.5675-.17875.1925-.4575.42-.80375.54125-.0937.0325-.1975.0575-.3075.0725l-.0362.004.007.0362c.22 1.01625-.44875 2.13-.83375 2.54375" fill="#231f1f"/><path d="m305.23477 397.06574c.51125-.5475.975-1.715.32375-2.32125-.42625-.39875-.84375-.535-1.255-.9175-.34125-.31875-.3425-.76375-.08-1.04625.24875-.26625.7425-.5725 1.0675-.27.445.415.48 1.18375.91625 1.59125.31625.295.7625.0225 1.00125-.23375.72625-.77875.66125-1.6875-.1-2.39625-1.26625-1.18125-3.27125-1.24375-4.48375.0562-.51125.5475-.96625 1.7225-.325 2.32125.43625.40625 1.05875.525 1.355 1.0325.23875.41125.1925.63125-.0112.94-.20625.3125-.75.56375-1.075.26125-.43625-.4075-.47125-1.17625-.91625-1.59-.31625-.29625-.7625-.0238-1.0025.2325-.725.77875-.65125 1.695.10125 2.3975 1.27375 1.18875 3.27125 1.2425 4.48375-.0575" fill="#ffe409"/><path d="m297.29639 380.67349c.6075.14 1.2325.5525 1.53875 1.0425.70875 1.135-.925 3.775-2.57125 3.14-1.23125-.475-1.4625-1.785-1.0425-3.045.36875-1.1075 1.3575-1.3025 2.075-1.1375" fill="#231f1f"/><path d="m297.22239 386.14512c-.23875 1.375-1.58125 3.76375-3.435 3.5875-.96625-.0925-3.1025-1.07-1.43625-3.4.25-.35125.49125-.60375.755-.84375.22875-.20875.49-.4175.8275-.71125 1.30125-1.13 3.8025-1.58 3.28875 1.3675" fill="#231f1f"/><path d="m296.10751 382.10687c-.345 1.0325-.0637 1.6625.4925 1.8775.6725.25875 1.75625-1.2725 1.4425-1.77375-.3125-.50125-1.59125-1.13625-1.935-.10375" fill="#ffe409"/><path d="m299.36964 393.37712c-2.9725-.5775-4.0575-3.0225-3.645-5.14.52375-2.69625 2.91375-3.63625 5.05-3.22125 1.17125.2575 2.76125 1.47125 2.30875 3.80375-.075.38125-.31875.86125-.63125 1.23-.07.0813-.17.1875-.295.29375l-.34125.29.06.445.007.06c.0337.395-.05.84625-.24 1.1925-.22125.4-.38.64125-.60875.80875-.45625.33375-1.03.36125-1.665.2375" fill="#231f1f"/><path d="m300.60189 385.81649c-1.80125-.35-3.65625.4275-4.07375 2.57625-.335 1.7225.5175 3.6975 2.9975 4.18 1.0825.21125 1.18625-.25 1.4-.63625.2125-.38625.23125-1.155-.19875-1.2225-.42875-.0688-.865.065-1.32125-.0225-.7-.13625-1.43375-1.63125-.66125-1.48125.43375.085 1.22125.55375 2.19125.7425.67125.13 1.25875-.855 1.34375-1.29.35125-1.81-.84125-2.66875-1.6775-2.84625" fill="#ffe409"/><path d="m299.18701 387.09912c-.2825.425-.215 1.28375.35875 1.3575.57375.0738 1.63875-.52375 1.2125-1.185-.405-.62875-1.1425-.81625-1.57125-.1725" fill="#50318f"/></g><path d="m278.37276 385.23775c-.0663-.10375-.275-.53625-.275-.53625-.28625-.655-.41625-1.37-.39125-2.07625.10125-2.90625 2.44125-4.28625 4.75-4.205 1.26.0738 3.11875 1.0725 3.03 3.5825-.0138.405-.1875.945-.45375 1.38125-.065.1075-.16125.2475-.29.39125l-.315.35125.1475.44875c.0125.0375.0225.0713.0288.0987.1025.40375.09.88625-.0513 1.27625-.16125.45-.28375.72625-.495.9375-.41.4125-.9925.5375-1.68.51375-1.79125-.0625-3.0875-.83875-3.8475-1.90125 0 0-.0913-.15875-.1575-.2625" fill="#231f1f"/><path d="m278.37276 385.23775c-.0663-.10375-.275-.53625-.275-.53625-.28625-.655-.41625-1.37-.39125-2.07625.10125-2.90625 2.44125-4.28625 4.75-4.205 1.26.0738 3.11875 1.0725 3.03 3.5825-.0138.405-.1875.945-.45375 1.38125-.065.1075-.16125.2475-.29.39125l-.315.35125.1475.44875c.0125.0375.0225.0713.0288.0987.1025.40375.09.88625-.0513 1.27625-.16125.45-.28375.72625-.495.9375-.41.4125-.9925.5375-1.68.51375-1.79125-.0625-3.0875-.83875-3.8475-1.90125 0 0-.0913-.15875-.1575-.2625z" fill="none" stroke="#231f1f" stroke-miterlimit="3.864" stroke-width=".10875"/><path d="m273.44839 386.52862c-.11875-.0288-.57-.195-.57-.195-.66125-.27125-1.25125-.69625-1.72375-1.22125-1.94625-2.16125-1.22125-4.77875.49625-6.325.9575-.82125 2.9875-1.395 4.6675.4725.27125.30125.52125.81.63375 1.30875.0275.1225.0563.29.0625.48375l.0175.47125.41875.22c.035.0187.065.0362.0888.0512.35375.21875.68.575.85.9525.195.43625.3.72.295 1.01875-.009.5825-.34125 1.0775-.8525 1.5375-1.33125 1.19875-2.8025 1.54125-4.08875 1.30375 0 0-.17625-.05-.295-.0788" fill="#231f1f"/><path d="m273.44839 386.52862c-.11875-.0288-.57-.195-.57-.195-.66125-.27125-1.25125-.69625-1.72375-1.22125-1.94625-2.16125-1.22125-4.77875.49625-6.325.9575-.82125 2.9875-1.395 4.6675.4725.27125.30125.52125.81.63375 1.30875.0275.1225.0563.29.0625.48375l.0175.47125.41875.22c.035.0187.065.0362.0888.0512.35375.21875.68.575.85.9525.195.43625.3.72.295 1.01875-.009.5825-.34125 1.0775-.8525 1.5375-1.33125 1.19875-2.8025 1.54125-4.08875 1.30375 0 0-.17625-.05-.295-.0788z" fill="none" stroke="#231f1f" stroke-miterlimit="3.864" stroke-width=".10875"/><g fill-rule="evenodd"><path d="m282.41214 379.23749c-1.97-.0687-3.805 1.0675-3.8875 3.41625-.065 1.88375 1.17 3.835 3.88125 3.93 1.1825.0413 1.21625-.46625 1.37625-.91125.16125-.445.0525-1.2625-.415-1.2625-.46625 0-.90625.215-1.405.1975-.765-.0263-1.795-1.48875-.95-1.45875.475.0163 1.3875.38125 2.44875.41875.7325.025 1.19125-1.11875 1.2075-1.59375.07-1.97875-1.34-2.68875-2.25625-2.73625" fill="#ffe409"/><path d="m281.31301 381.52012c-.17125.5125.56375 1.03375 1.115 1.01625s1.21125-.235 1.15375-.95125c-.0975-1.20625-2.0025-.86125-2.26875-.065" fill="#50318f"/><path d="m270.91289 391.68999c-2.02125.97125-6.8175 1.695-8.91375-3.39-2.05625-4.9925.68-6.8675 2.47625-7.7825 1.7025-.8675 4.57125-.92375 5.55125.40125.32875.44625.35125.955.30625 1.34125s-.17125.7725-.28125 1.08l-.42125 1.155 1.05.1325c.0775.009.15.0187.205.0275.3975.0663.9175.1575 1.40625.38125.51625.23625 1 .61875 1.33875 1.245 1.4175 2.6175-.9625 4.565-2.7175 5.40875" fill="#231f1f"/><path d="m257.93876 390.62887c.14875.66.44625 1.335.75625 1.715.76.93125 1.39375 1.07875 2.08.84125.0238-.025.105-.105.1425-.18875.08-.175.14-.42875.1925-.76875.0563-.36.0962-.7325.155-1.0625.0437-.2375.10625-.52375.22375-.79-.61375.585-1.50875.97125-2.3925.81625-.52875-.0925-.8975-.30875-1.1575-.5625m4.08625-.9425c.52125-.3825 1.165-.2875 1.7125.03.55.32 1.1325.91375 1.68375 1.49875.99 1.05125.59375 2.4175.185 3.26125-.45125.93-1.16875 1.7825-1.6675 2.23625-.23125.21125-.6025.58375-1.09375.95125-.5125.38375-1.18375.78625-1.99625.9975-1.71375.4475-3.80375-.0162-6.05-2.46125-4.655-5.07-1.37125-9.3425.18-10.855.99875-.97375 2.1875-1.03375 3.315-.645 1.05625.365 2.09625 1.13 2.99375 1.8525 1.215.97875 1.2375 2.22375.7375 3.13375" fill="#231f1f"/><path d="m259.18039 390.38437c1.43625.2525 3.41875-1.7625 1.6275-3.20625-1.7925-1.4425-3.73625-2.69375-5.2425-1.225-1.505 1.4675-4.32375 5.20875-.1875 9.71375 4.13625 4.50375 7.11 1.22375 7.9925.42.88375-.8025 2.62375-3.11625 1.48-4.32875-1.14375-1.21375-1.96875-1.9575-2.51125-1.19375s-.17375 3.0225-1.2525 3.3975-2.07.0225-3.005-1.12375c-.935-1.1475-1.49375-3.74625-.6-3.97125.8925-.225.2625 1.265 1.69875 1.5175" fill="#ffe409"/><path d="m272.18601 379.40637c-1.465 1.31875-1.99625 3.41125-.4225 5.15875 1.26 1.39875 3.505 1.945 5.52.13.88-.7925.5525-1.18.35875-1.61125-.19375-.4325-.84-.945-1.17625-.62-.33625.32375-.5025.78375-.87375 1.11875-.56875.51125-2.325.175-1.69625-.39.3525-.31875 1.2625-.69 2.0525-1.4.54375-.49125.08-1.6325-.23875-1.985-1.325-1.47125-2.83125-1.00375-3.52375-.40125" fill="#ffe409"/><path d="m272.38401 381.89224c.2175.5025 1.175.3025 1.61-.14125.43375-.445.8175-1.1175.27375-1.5875-.9175-.79125-2.22125.9475-1.88375 1.72875" fill="#50318f"/><path d="m294.39864 385.43262c1.25875-1.09375 2.13625-.77875 1.90375.5525-.23125 1.33125-1.4 2.915-2.425 2.8175-.76875-.0738-1.745-.55875-.7675-1.92625.4125-.57625.62625-.8675 1.28875-1.44375" fill="#ffe409"/></g><path d="m285.17714 383.46912c.1025-.37.49-.9975.49-.9975.5475-.83375.91875-1.2575 1.03375-1.75875.1275-.55625.1025-.80125.1025-.80125.0188-.37875.0325-.8375.0688-1.13875.0475-.49875.24625-1.29625.24625-1.29625.21125-.895.55625-1.30625.55625-1.30625.305-.5175.78875-.83 1.44375-.83.9675 0 1.71875.76 1.71875 1.70125.0125.2475-.0412.53625-.22625.8725-.5075.91875-.67 1.0975-.69625 1.1375-.77875 1.2475-.74375 1.13875-.9675 1.83375-.095.26125-.15625.48875-.10625.71375.0838.3825.40375.53125.6475.545.0962.006.225-.01.37-.0425.0475-.01.0987-.0225.1525-.0288.85125-.1925 2.335.0137 2.68625 1.31625.0337.1125.075.275.10375.48l.006.1225c.0675.47125.0387 1.2775-.29875 2.21-.0688.15-.5525 1.18375-.95875 1.56375l-.0263.0238s-.13.15625-.32.32c-.20625.1775-.50875.39625-.88875.56625-1.9425.87875-4.46625.17125-5.1-1.80875-.72125-1.81875-.0375-3.3975-.0375-3.3975" fill="#ffe409"/><g fill-rule="evenodd"><path d="m290.77864 385.93362c-.52375.545-1.69125 1.13375-2.45625.40125-.76625-.7325-.85375-2.42125-.045-2.59875.8075-.17875 4.06375.57125 2.50125 2.1975" fill="#50318f"/><path d="m264.85951 381.27299c-1.59125.81125-3.895 2.29125-2.07625 6.70375 1.8175 4.41125 5.9275 3.83125 7.7625 2.95 1.75625-.845 3.34625-2.38125 2.34-4.24125-.9575-1.7675-3.42-.70625-3.9825-2.13375-.24625-.625 1.035-2.32625.44125-3.12875-.59375-.80375-2.89375-.96125-4.485-.15" fill="#ffe409"/><path d="m266.58951 385.18199c.67-.77125.5175-2.37-.315-2.58625-1.1925-.31-2.0825 1.3725-1.755 1.9225.3275.54875 1.4 1.435 2.07.66375" fill="#50318f"/><path d="m269.64639 388.21099c-.24125.6675-1.0175 1.61625-1.95125 1.28125-.935-.335-1.655-1.74875-1.03125-2.21.625-.46125 3.70125-1.06 2.9825.92875" fill="#50318f"/></g><g fill="#231f1f"><path d="m275.19639 395.74799v.995h.64625.0337c.0225-.001.0537-.002.09-.005.0713-.008.1625-.02.2525-.05.0813-.0275.16-.0688.22125-.12875.0225-.0238.0425-.0475.0575-.0725.0512-.08.0638-.16125.0663-.20625.001-.02.001-.0325.001-.0325s0-.009 0-.0238c-.001-.02-.002-.0563-.0137-.0962-.0113-.0475-.0338-.1025-.075-.1525-.007-.01-.0162-.0187-.025-.0275-.0175-.0188-.0375-.035-.0575-.0512-.0362-.0263-.0763-.0488-.12-.0675-.0587-.025-.12375-.0438-.195-.0563-.0362-.007-.075-.0125-.115-.0163-.0238-.002-.0487-.005-.0738-.006-.0225-.001-.0462-.002-.0687-.002-.23 0-.625 0-.625 0"/><path d="m275.19639 394.23424v.94375h.3125s.0213 0 .0487-.001c.0225 0 .0475-.001.0713-.002.0637-.005.1525-.0138.2425-.0387.0175-.005.035-.01.0512-.0163.07-.025.1375-.0612.18875-.1125.0425-.0412.0688-.0863.0875-.13.0225-.0537.03-.10625.0325-.1425.004-.0325.004-.0537.004-.0537s0-.015-.001-.04c-.002-.0412-.0112-.1075-.0425-.1725-.0163-.03-.0375-.06-.0663-.0888-.0362-.035-.0788-.0612-.12375-.0825-.0888-.0375-.19-.0537-.275-.06-.0362-.001-.07-.002-.0987-.002h-.43125z"/><path d="m273.13114 392.95362h5.38375v5.06625h-5.38375zm1.41125.71125v3.64875h1.37375s.67.0188 1.04-.35125c.30125-.30125.28-.65.28-.65s.0213-.36375-.2575-.6425c-.2375-.23625-.54125-.3-.54125-.3s.1375-.065.2425-.17c.0487-.0487.225-.2075.225-.59125 0-.3875-.2575-.61-.2575-.61s-.2825-.33375-.92-.33375z"/></g></g></svg>