<svg height="107.22478" width="599.99628" xmlns="http://www.w3.org/2000/svg"><g fill="#f9b00b"><path d="m39.8172 40.839c-.75818-1.222-1.7078-2.2893-2.8487-3.2167-1.141-.92015-2.4291-1.6415-3.8719-2.1568-1.4354-.51524-2.9443-.7729-4.5196-.7729-2.8708 0-5.3146.55947-7.3241 1.671-2.0096 1.1114-3.6363 2.6057-4.8876 4.4754-1.2514 1.877-2.1567 4.0043-2.7235 6.3893-.57415 2.3924-.86123 4.8583-.86123 7.4125 0 2.4438.28708 4.8214.86123 7.1253.56679 2.304 1.4722 4.3871 2.7235 6.2274 1.2514 1.8476 2.8782 3.3271 4.8876 4.4387 2.0096 1.1114 4.4534 1.6709 7.3241 1.6709 3.9086 0 6.9635-1.1925 9.164-3.5848 2.201-2.385 3.5406-5.5354 4.0338-9.4444h12.374c-.32388 3.6363-1.1704 6.9193-2.5248 9.8493-1.3544 2.937-3.1504 5.4324-5.3735 7.4935-2.2304 2.061-4.8362 3.6362-7.8173 4.7257-2.9886 1.0821-6.2715 1.6268-9.8562 1.6268-4.446 0-8.4504-.7729-12.005-2.3187-3.558-1.553-6.561-3.68-8.9976-6.396-2.4438-2.709-4.3209-5.904-5.6238-9.562-1.3028-3.666-1.9506-7.619-1.9506-11.851 0-4.343.64777-8.37 1.9506-12.094 1.3028-3.7173 3.18-6.9562 5.6238-9.7309 2.4365-2.7676 5.4397-4.9392 8.9951-6.5144 3.5554-1.5679 7.5597-2.3555 12.005-2.3555 3.2094 0 6.2347.45637 9.083 1.3838 2.8487.92014 5.403 2.2672 7.6554 4.0264 2.2524 1.7666 4.1074 3.9529 5.5795 6.5586 1.4648 2.6058 2.385 5.5869 2.7677 8.9585h-12.381c-.21347-1.4721-.70665-2.8118-1.4648-4.0338"/><path d="m86.5502 25.339c2.7677 0 5.2925.24294 7.5744.72874 2.2818.49321 4.2326 1.2955 5.8593 2.407 1.6268 1.1115 2.8929 2.5911 3.7909 4.4387.89071 1.8403 1.3397 4.1221 1.3397 6.8383 0 2.9296-.66249 5.3735-1.9948 7.3241-1.3324 1.958-3.2977 3.5627-5.9035 4.8067 3.5848 1.0305 6.2568 2.8413 8.0235 5.4176 1.7592 2.5764 2.6426 5.6826 2.6426 9.319 0 2.937-.5668 5.4765-1.7078 7.6185-1.141 2.1421-2.672 3.894-4.6005 5.2484-1.9286 1.3618-4.1295 2.3628-6.5954 3.0106-2.4732.65517-5.0054.97901-7.6112.97901h-28.175v-58.137h27.36zm-1.6268 23.533c2.2745 0 4.1516-.54467 5.6164-1.6268 1.4648-1.0894 2.201-2.8486 2.201-5.2924 0-1.3618-.24291-2.4733-.73609-3.3419-.48582-.8686-1.141-1.5458-1.9506-2.039-.81706-.4858-1.7519-.82436-2.8119-1.0158-1.06-.1914-2.1567-.28709-3.2977-.28709h-11.969v13.603h12.947zm.72873 24.674c1.2514 0 2.4438-.12513 3.5848-.36799 1.141-.24294 2.142-.65517 3.0106-1.222.86859-.56678 1.5605-1.3471 2.0758-2.3187.51526-.979.77289-2.2304.77289-3.7467 0-2.9885-.83914-5.1159-2.5175-6.3893-1.6856-1.2808-3.9086-1.9139-6.6764-1.9139h-13.927v15.959h13.676z"/><path d="m125.6812 69.139c.70664 1.3618 1.6415 2.4585 2.8119 3.2977 1.163.84648 2.5322 1.4648 4.1074 1.877 1.5752.40491 3.202.60362 4.8876.60362 1.141 0 2.3628-.0883 3.6658-.27969 1.3028-.1914 2.5248-.55947 3.6584-1.1041 1.141-.53735 2.0905-1.2882 2.856-2.2378.75818-.94948 1.141-2.1567 1.141-3.6215 0-1.5752-.50791-2.8487-1.509-3.8277-1.0084-.979-2.3187-1.7886-3.9529-2.4438-1.6268-.64777-3.4744-1.222-5.5354-1.7078-2.0611-.4932-4.1516-1.0305-6.2715-1.6268-2.1714-.54466-4.284-1.2072-6.3451-1.9948-2.0684-.78761-3.9086-1.8034-5.5428-3.0548-1.6268-1.2514-2.9443-2.8119-3.9455-4.6815-1.0084-1.877-1.509-4.1368-1.509-6.8015 0-2.9813.6404-5.5796 1.9139-7.7732 1.2734-2.201 2.9443-4.0338 5.0054-5.4986 2.0684-1.4648 4.4018-2.5542 7.0076-3.2609 2.6058-.69932 5.2116-1.0526 7.8173-1.0526 3.04 0 5.955.33856 8.7521 1.0158 2.7972.67719 5.2778 1.7813 7.4493 3.2977 2.1715 1.5238 3.8939 3.4596 5.1747 5.8225 1.2734 2.3629 1.9065 5.2263 1.9065 8.5902h-12.374c-.11041-1.7372-.47846-3.1799-1.0968-4.3134-.62567-1.141-1.4575-2.039-2.488-2.6868-1.0306-.65516-2.2083-1.1115-3.5406-1.3839-1.3324-.27229-2.7825-.41222-4.3577-.41222-1.0306 0-2.0611.1105-3.0916.33132-1.0306.21343-1.9653.59622-2.8119 1.1336-.83914.54467-1.5311 1.2219-2.0757 2.039-.54471.81704-.8097 1.8476-.8097 3.0916 0 1.1409.21346 2.0684.64776 2.7676.43429.70672 1.2881 1.3618 2.569 1.958 1.2734.59631 3.0327 1.1925 5.2925 1.7887 2.2524.59622 5.1968 1.3618 8.8331 2.2818 1.082.22092 2.5911.61102 4.5196 1.1778 1.9286.57419 3.835 1.4795 5.7415 2.7309 1.8992 1.2514 3.5406 2.9149 4.9245 5.0054 1.3838 2.0904 2.0757 4.7625 2.0757 8.0234 0 2.6572-.51526 5.1306-1.5458 7.4124-1.0306 2.2745-2.569 4.2473-4.6005 5.9035-2.039 1.6562-4.5638 2.9444-7.5744 3.8645-3.0106.92014-6.4997 1.3839-10.46 1.3839-3.2094 0-6.3157-.39751-9.3259-1.1778-3.0106-.78761-5.6752-2.0243-7.9792-3.7099-2.3114-1.6782-4.1442-3.8276-5.4986-6.4334s-2.0096-5.6974-1.9506-9.2824h12.374c0 1.958.35333 3.6142 1.06 4.9686"/><path d="m194.2512 25.601c-16.165 0-29.267 13.117-29.267 29.274 0 16.165 13.102 29.267 29.267 29.267 16.172 0 29.281-13.102 29.281-29.267 0-16.157-13.109-29.274-29.281-29.274m0 46.484c-12.013-.05921-21.788-7.9498-26.963-17.401 5.241-9.4148 15.046-17.055 26.963-17.055 12.139 0 21.855 7.5891 26.978 17.055-5.1233 9.4513-14.744 17.453-26.978 17.401"/><path d="m194.2512 70.445c8.5755 0 15.517-6.9635 15.517-15.524 0-8.5607-6.9413-15.517-15.517-15.517-8.5608 0-15.517 6.9561-15.517 15.517 0 8.5608 6.956 15.524 15.517 15.524"/></g><g fill="#fff"><path d="m292.2412 24.033c16.466 0 28.096 10.939 28.096 31.402 0 1.3985.0957 2.1494 0 3.4596h-40.198c1.4869 6.8235 6.8825 10.092 13.397 10.092 5.6752 0 9.4-4.0116 12.381-7.9424 0 0 10.327 5.9844 13.493 7.9424-5.0275 8.9803-14.707 14.957-26.698 14.957-17.607 0-29.701-10.747-29.701-30.003 0-17.387 12.388-29.907 29.23-29.907m-11.453 22.709h21.686c-2.0463-5.5134-5.0275-8.1265-10.423-8.1265-5.8519 0-9.1204 2.8046-11.263 8.1265"/><path d="m350.7012 24.033c6.9782 0 11.358 2.3334 16.474 7.0076v-5.8888h17.129v57.393h-17.394v-5.6091s-6.242 7.0076-17.122 7.0076c-15.929 0-26.816-11.41-26.816-29.812 0-15.988 11.822-30.099 27.729-30.099m-10.136 29.812c0 7.9498 5.0202 14.494 13.028 14.494 7.7216 0 14.14-5.7047 14.14-14.023 0-8.4136-5.9476-14.207-13.588-14.207-8.2737 0-13.581 6.1684-13.581 13.736"/><path d="m389.4212 10.885h17.313v71.6h-17.313z"/><path d="m421.5312 0c5.7636 0 10.511 4.5931 10.511 10.379 0 5.8961-4.7478 10.651-10.703 10.651-5.6752 0-10.246-4.5712-10.246-10.468.01-5.7926 4.67-10.562 10.44-10.562m-8.7521 25.152h17.306v57.393h-17.306z"/><path d="m438.9412 82.549v-41.59h-5.6826v-15.804h5.6826v-14.207h17.401v14.207h9.2014v15.892h-9.2014v41.501h-17.401z"/><path d="m505.5312 24.904v33.375c0 5.7931-3.4449 9.4444-9.6725 9.4444-5.8666 0-9.7753-3.651-9.7753-9.9076v-32.91h-17.313v33.375c0 15.885 10.519 25.418 26.897 25.418 3.8424 0 7.3315-.4932 10.453-1.4354l-.007.55938c0 6.2641-5.2704 9.0612-10.982 9.0612-4.0486 0-6.3451-.74346-8.6271-4.6742h-18.38c1.7592 12.896 13.367 20.015 26.654 20.015 15.119 0 27.692-9.2598 27.692-27.022v-55.292h-16.937z"/><path d="m246.1912 56.078v26.455h-17.578v-57.4h16.923v9.0691c1.4059-4.2988 6.7352-10.188 13.648-10.188h3.9233v17.946s-2.142-1.1189-6.0728-1.1189c-6.7279 0-10.843 4.1148-10.843 15.237"/><path d="m0 0h2.253v1.931h2.252v-1.931h2.253v-2.092h-2.253v-2.091h-2.252v2.091h-2.253z" transform="matrix(5.2843479 0 0 -5.2843479 539.42094 51.30101)"/><path d="m578.5712 38.335h7.3951v44.214h14.03v-57.393h-21.425z"/></g></svg>