<?xml version="1.0" encoding="UTF-8" standalone="no"?>
<svg
   xmlns:dc="http://purl.org/dc/elements/1.1/"
   xmlns:cc="http://creativecommons.org/ns#"
   xmlns:rdf="http://www.w3.org/1999/02/22-rdf-syntax-ns#"
   xmlns:svg="http://www.w3.org/2000/svg"
   xmlns="http://www.w3.org/2000/svg"
   xmlns:sodipodi="http://sodipodi.sourceforge.net/DTD/sodipodi-0.dtd"
   xmlns:inkscape="http://www.inkscape.org/namespaces/inkscape"
   width="579.09241pt"
   height="226.77608pt"
   viewBox="0 0 579.09241 226.77608"
   version="1.1"
   id="svg2"
   inkscape:version="0.91 r13725"
   sodipodi:docname="CCTV-4.svg">
  <metadata
     id="metadata49">
    <rdf:RDF>
      <cc:Work
         rdf:about="">
        <dc:format>image/svg+xml</dc:format>
        <dc:type
           rdf:resource="http://purl.org/dc/dcmitype/StillImage" />
        <dc:title />
      </cc:Work>
    </rdf:RDF>
  </metadata>
  <defs
     id="defs47" />
  <sodipodi:namedview
     pagecolor="#ffffff"
     bordercolor="#666666"
     borderopacity="1"
     objecttolerance="10"
     gridtolerance="10"
     guidetolerance="10"
     inkscape:pageopacity="0"
     inkscape:pageshadow="2"
     inkscape:window-width="1920"
     inkscape:window-height="1017"
     id="namedview45"
     showgrid="false"
     fit-margin-top="0"
     fit-margin-left="0"
     fit-margin-right="0"
     fit-margin-bottom="0"
     inkscape:zoom="1.580789"
     inkscape:cx="291.26885"
     inkscape:cy="167.21697"
     inkscape:window-x="-8"
     inkscape:window-y="-8"
     inkscape:window-maximized="1"
     inkscape:current-layer="svg2" />
  <path
     style="opacity:1;fill:#ffffff"
     inkscape:connector-curvature="0"
     id="path5"
     d="m 485.30468,28.046079 c 6.25,-0.02 12.5,-0.01 18.76,-0.01 0.01,16.67 -0.01,33.33 0,50 4,-0.01 8,0.01 12,0 0,5.67 0,11.33 0,17 -4,-0.01 -8,0.01 -12,0 -0.01,7.330001 0,14.660001 0,22.000001 -6.67,0 -13.33,0 -20,0 -0.01,-7.33 0,-14.67 0,-22.000001 -12.98,-0.05 -25.95,0.1 -38.93,-0.07 0.17,-5.45 -0.68,-11.14 0.38,-16.44 13.14,-16.92 26.47,-33.7 39.79,-50.48 m -5.85,29.38 c -5.03,7.01 -10.87,13.44 -15.67,20.59 6.76,0.05 13.52,0.01 20.28,0.02 -0.05,-8.46 0.11,-16.92 -0.08,-25.38 -1.81,1.28 -3.19,3.04 -4.53,4.77 z" />
  <path
     style="opacity:1;fill:#231f20"
     inkscape:connector-curvature="0"
     id="path20"
     d="m 479.45468,57.426079 c 1.34,-1.73 2.72,-3.49 4.53,-4.77 0.19,8.46 0.03,16.92 0.08,25.38 -6.76,-0.01 -13.52,0.03 -20.28,-0.02 4.8,-7.15 10.64,-13.58 15.67,-20.59 z" />
  <path
     style="opacity:1;fill:#231f20"
     inkscape:connector-curvature="0"
     id="path22"
     d="m 133.65468,150.79608 c 3.45,-0.04 6.9,-0.04 10.35,-0.01 0.06,1.95 0.08,3.9 0.17,5.85 10.38,-0.12 20.76,-0.08 31.14,-0.03 0.02,18.49 0.04,36.98 0,55.47 0.05,3.47 -2.43,7.45 -6.24,7.39 -8.31,0.07 -16.62,0.07 -24.92,-0.02 -0.08,2.34 -0.1,4.68 -0.11,7.03 -3.48,0.04 -6.95,0.04 -10.42,0 -0.02,-2.32 -0.04,-4.64 -0.06,-6.95 -10.25,-0.07 -20.5,0.04 -30.75,-0.06 -0.03,-20.95 -0.03,-41.91 0,-62.86 10.25,-0.08 20.5,-0.02 30.75,-0.03 0.03,-1.93 0.04,-3.86 0.09,-5.78 m -20.1,15.73 c -0.09,14.19 0.07,28.38 -0.08,42.57 6.71,0.34 13.47,0.35 20.18,0 -0.15,-14.19 0.01,-28.38 -0.08,-42.57 -6.67,-0.04 -13.35,-0.04 -20.02,0 m 30.59,-0.08 c -0.18,14.28 -0.04,28.56 -0.07,42.84 6.85,-0.13 13.74,0.39 20.57,-0.3 0.33,-14.17 0.09,-28.34 0.13,-42.51 -6.88,0.03 -13.75,0.07 -20.63,-0.03 z" />
  <path
     style="opacity:1;fill:#231f20"
     inkscape:connector-curvature="0"
     id="path24"
     d="m 225.66468,151.45608 c 4.01,-0.28 8.04,-0.15 12.06,-0.11 0.64,1.78 1.27,3.56 1.89,5.36 10.14,0.16 20.29,-0.01 30.44,0.08 0.01,3.38 0.01,6.75 0.02,10.13 -1.23,0.1 -2.46,0.21 -3.69,0.33 -8.25,10.11 -16.92,19.88 -25.14,30 l -0.14,0.69 c 2.3,3.33 5.16,6.24 7.67,9.42 2.34,2.66 4.49,5.67 7.6,7.48 3.59,1.58 7.65,0.67 11.45,1.03 -0.04,3.45 -0.03,6.9 -0.01,10.35 -6.89,-0.27 -14.97,1.8 -20.62,-3.31 -5.31,-4.78 -10.08,-10.14 -15.13,-15.19 -4.32,4.45 -8.56,8.99 -12.8,13.51 -2.23,2.33 -4.77,4.89 -8.22,4.95 -5.4,0.31 -10.81,0.06 -16.22,0.1 -0.04,-3.5 -0.04,-6.99 0,-10.48 4.89,-0.44 10.68,1.26 14.77,-2.24 5.06,-4.45 9.08,-9.92 13.73,-14.77 -7.27,-8.93 -15.3,-17.23 -22.65,-26.1 5.14,-0.25 10.29,-0.05 15.44,-0.14 5.36,5.49 10.21,11.49 15.78,16.78 6.35,-7.51 12.99,-14.77 19.34,-22.28 -18.81,-0.03 -37.61,0.01 -56.41,-0.02 -0.04,-3.47 -0.04,-6.95 -0.01,-10.42 9.58,-0.11 19.15,0.04 28.73,-0.07 0.74,-1.68 1.45,-3.37 2.12,-5.08 z" />
  <path
     style="opacity:1;fill:#231f20"
     inkscape:connector-curvature="0"
     id="path26"
     d="m 287.63468,151.78608 c 24.39,0.02 48.79,-0.13 73.18,0.08 -0.04,21.06 -0.01,42.12 -0.02,63.18 -0.05,3.4 -0.25,7.39 -3.23,9.63 -3.63,1.48 -7.66,1.02 -11.49,1.1 -19.44,0.04 -38.89,-0.12 -58.33,0.08 -0.32,-24.68 -0.1,-49.38 -0.11,-74.07 m 10.9,8.72 c -0.04,18.86 0.08,37.72 -0.06,56.58 12.85,0.5 25.72,0.08 38.59,0.22 4.15,-0.15 8.41,0.5 12.46,-0.71 0.17,-18.7 0.02,-37.4 0.07,-56.09 -17.02,0 -34.04,0 -51.06,0 z" />
  <path
     style="opacity:1;fill:#231f20"
     inkscape:connector-curvature="0"
     id="path28"
     d="m 380.23468,151.71608 c 10.09,-0.33 20.19,-0.07 30.28,-0.13 -0.07,8.83 0.23,17.67 -0.15,26.48 0.03,2.92 -1.69,5.3 -3.86,7.07 1.59,1.71 3.91,3.29 3.92,5.89 0.25,7.66 0.05,15.35 0.1,23.02 -0.16,3.36 -0.64,8.19 -4.72,8.94 -5.01,0.98 -10.17,0.38 -15.24,0.47 -0.18,1.11 -0.37,2.21 -0.55,3.32 -3.23,-0.01 -6.46,-0.01 -9.68,-0.01 -0.07,-25.02 0.12,-50.04 -0.1,-75.05 m 10.06,9.37 c 0.07,6.56 0.02,13.11 0.04,19.67 3.38,0.02 6.77,0.11 10.15,-0.18 0.63,-6.48 0.16,-13 0.35,-19.49 -3.52,-0.07 -7.03,-0.08 -10.54,0 m -0.06,29.61 c 0.21,7.69 0.04,15.38 0.1,23.06 3.37,0.02 6.75,0.1 10.11,-0.18 0.67,-7.49 0.34,-15.05 0.21,-22.56 -3.41,-0.88 -6.96,-0.55 -10.42,-0.32 z" />
  <path
     style="opacity:1;fill:#231f20"
     inkscape:connector-curvature="0"
     id="path30"
     d="m 413.06468,151.60608 c 13.81,-0.07 27.63,-0.04 41.45,-0.02 0.02,3.15 0.03,6.3 -0.02,9.45 -13.81,0 -27.62,0 -41.43,0 0,-3.15 -0.01,-6.29 0,-9.43 z" />
  <path
     style="opacity:1;fill:#231f20"
     inkscape:connector-curvature="0"
     id="path32"
     d="m 302.88468,166.28608 c 14.17,-0.02 28.34,0.12 42.51,-0.07 0.17,2.75 0.16,5.51 0.12,8.27 -5.79,0.01 -11.58,0.07 -17.37,-0.04 -0.11,3.06 -0.11,6.12 0,9.18 5.64,-0.1 11.29,-0.07 16.93,-0.02 -0.01,2.73 -0.01,5.46 -0.05,8.2 -5.65,-0.06 -11.3,-0.05 -16.95,-0.01 -0.02,4 -0.05,8.02 0.05,12.03 1.87,-0.04 3.74,0.02 5.61,-0.11 1.57,-1.33 2.13,-3.47 3.18,-5.19 2.11,0.04 4.22,0.06 6.34,0.1 0.11,1.64 0.23,3.29 0.3,4.95 0.73,0.09 2.19,0.29 2.92,0.38 0.07,2.8 0.07,5.59 0.02,8.39 -14.55,-0.65 -29.12,-0.15 -43.68,-0.32 -0.02,-2.74 -0.02,-5.49 0.01,-8.23 4.93,-0.05 9.86,-0.01 14.8,-0.05 -0.04,-3.92 -0.06,-7.84 0.03,-11.76 -4.91,-0.44 -9.84,-0.15 -14.76,-0.2 -0.11,-2.72 -0.12,-5.45 -0.09,-8.18 4.93,-0.06 9.86,-0.04 14.79,-0.03 0,-3.03 0,-6.05 0,-9.08 -4.93,0.01 -9.86,0.03 -14.79,-0.03 -0.02,-2.73 -0.02,-5.46 0.08,-8.18 z" />
  <path
     style="opacity:1;fill:#231f20"
     inkscape:connector-curvature="0"
     id="path34"
     d="m 412.89468,172.28608 c 13.83,-0.02 27.66,0.12 41.48,-0.07 0.24,3.2 0.24,6.43 0.01,9.64 -5.1,-0.17 -10.21,-0.07 -15.31,-0.07 -0.03,12.12 0.01,24.23 -0.01,36.34 -0.14,2.76 -0.32,6.48 -3.35,7.66 -3.34,1.22 -6.99,0.65 -10.46,0.59 0.09,-2.96 0.1,-5.91 0.06,-8.87 1.21,-0.19 2.43,-0.38 3.65,-0.59 0.81,-11.68 0.18,-23.42 0.34,-35.12 -5.47,-0.05 -10.94,-0.04 -16.41,-0.01 -0.15,-3.17 -0.15,-6.34 0,-9.5 z" />
  <path
     style="opacity:1;fill:#231f20"
     inkscape:connector-curvature="0"
     id="path36"
     d="m 418.15468,188.03608 c 2.91,-0.01 5.83,-0.01 8.75,0.05 -1.2,10.11 -2.44,20.21 -3.66,30.31 -0.41,1.97 -0.46,4.26 -1.9,5.8 -2.7,1.66 -6.04,1.01 -9.04,1.02 0.03,-2.95 0.04,-5.89 0.01,-8.83 0.9,-0.48 1.81,-0.96 2.71,-1.45 0.99,-8.97 2.2,-17.92 3.13,-26.9 z" />
  <path
     style="opacity:1;fill:#231f20"
     inkscape:connector-curvature="0"
     id="path38"
     d="m 441.82468,188.19608 c 2.79,0.13 5.59,0.13 8.4,0.11 0.89,8.9 1.22,17.86 2.27,26.76 1.08,0.24 2.17,0.47 3.27,0.68 0.03,3.01 0.04,6.02 0.03,9.03 -2.92,-0.14 -6.01,0.47 -8.77,-0.7 -2.56,-1.3 -2.74,-4.55 -3.1,-7.04 -0.63,-9.62 -1.79,-19.21 -2.1,-28.84 z" />
  <path
     inkscape:connector-curvature="0"
     id="path34-0"
     style="fill:#231f20;fill-opacity:1;fill-rule:nonzero;stroke:none"
     d="m 509.18084,4.7457051e-4 -41.77478,0 c -35.24211,0 -56.88673,13.53743042949 -75.60884,71.24262242949 -12.76248,39.326993 -17.96079,55.117883 -50.19032,60.025413 l -119.15188,0 0,-0.006 -215.63582,0 C 3.06987,131.26211 0,133.34029 0,137.12945 l 0,0.96815 c 0,3.79749 3.06987,6.9106 6.8192,6.9106 l 180.32005,0 279.75925,0.006 c 10.10192,0.0601 34.30886,0.0601 42.21684,0 46.88305,0 69.97666,-28.05971 69.97666,-72.653119 0,-45.569516 -24.5344,-69.4561564 -69.91116,-72.36060642949" />
  <path
     style="opacity:1;fill:#ffffff"
     inkscape:connector-curvature="0"
     id="path5-6"
     d="m 485.30472,28.046067 c 6.25,-0.02 12.5,-0.01 18.76,-0.01 0.01,16.67 -0.01,33.33 0,50 4,-0.01 8,0.01 12,0 0,5.67 0,11.33 0,17 -4,-0.01 -8,0.01 -12,0 -0.01,7.330013 0,14.660013 0,22.000013 -6.67,0 -13.33,0 -20,0 -0.01,-7.33 0,-14.67 0,-22.000013 -12.98,-0.05 -25.95,0.1 -38.93,-0.07 0.17,-5.45 -0.68,-11.14 0.38,-16.44 13.14,-16.92 26.47,-33.7 39.79,-50.48 m -5.85,29.38 c -5.03,7.01 -10.87,13.44 -15.67,20.59 6.76,0.05 13.52,0.01 20.28,0.02 -0.05,-8.46 0.11,-16.92 -0.08,-25.38 -1.81,1.28 -3.19,3.04 -4.53,4.77 z" />
  <g
     id="g4153"
     transform="matrix(6.508681,0,0,6.508681,-1681.6545,-1823.5749)">
    <path
       d="m 271.68727,281.46468 -3.45625,0 c -3.9075,0 -9.86,2.7475 -9.86,8.58375 0,6.6225 7.6525,8.515 9.38875,8.515 l 3.9275,0 c 0,0 1.20625,-0.0888 1.20625,-1.23625 0,-1.315 -1.20625,-1.25625 -1.20625,-1.25625 l -2.72125,0 c -2.9125,0 -7.24,-1.54625 -7.24,-6.0225 0,-4.855 4.92125,-6.1125 7.44625,-6.1125 l 2.515,0 c 0,0 1.04375,0.0312 1.04375,-1.3225 0,-1.1775 -1.04375,-1.14875 -1.04375,-1.14875"
       style="fill:#231f20;fill-opacity:1;fill-rule:nonzero;stroke:none"
       id="path38-7"
       inkscape:connector-curvature="0" />
    <path
       d="m 271.68727,284.88868 -2.18625,0 c -2.98125,0 -6.765,1.445 -6.765,5.0725 0,3.9025 3.3525,5.3 6.96125,5.3 l 1.99,0 c 0,0 1.04375,0 1.04375,-1.3525 0,-1.31375 -1.04375,-1.255 -1.04375,-1.255 l -2.6175,0 c -1.07875,0 -3.1575,-0.575 -3.1575,-2.6925 0,-2.1175 2.19625,-2.405 2.94125,-2.405 l 2.83375,0 c 0,0 1.04375,-0.0888 1.04375,-1.3725 0,-1.27625 -1.04375,-1.295 -1.04375,-1.295"
       style="fill:#231f20;fill-opacity:1;fill-rule:nonzero;stroke:none"
       id="path42"
       inkscape:connector-curvature="0" />
    <path
       d="m 286.33477,281.46468 -3.45625,0 c -3.90625,0 -9.85875,2.7475 -9.85875,8.58375 0,6.6225 7.6525,8.515 9.38875,8.515 l 3.92625,0 c 0,0 1.20625,-0.0888 1.20625,-1.23625 0,-1.315 -1.20625,-1.25625 -1.20625,-1.25625 l -2.72,0 c -2.91375,0 -7.24,-1.54625 -7.24,-6.0225 0,-4.855 4.92125,-6.1125 7.44625,-6.1125 l 2.51375,0 c 0,0 1.045,0.0312 1.045,-1.3225 0,-1.1775 -1.045,-1.14875 -1.045,-1.14875"
       style="fill:#ed1c24;fill-opacity:1;fill-rule:nonzero;stroke:none"
       id="path46"
       inkscape:connector-curvature="0" />
    <path
       d="m 286.33477,284.88868 -2.185,0 c -2.98125,0 -6.76625,1.445 -6.76625,5.0725 0,3.9025 3.35375,5.3 6.96125,5.3 l 1.99,0 c 0,0 1.045,0 1.045,-1.3525 0,-1.31375 -1.045,-1.255 -1.045,-1.255 l -2.6175,0 c -1.07875,0 -3.15625,-0.575 -3.15625,-2.6925 0,-2.1175 2.19625,-2.405 2.94,-2.405 l 2.83375,0 c 0,0 1.045,-0.0888 1.045,-1.3725 0,-1.27625 -1.045,-1.295 -1.045,-1.295"
       style="fill:#ed1c24;fill-opacity:1;fill-rule:nonzero;stroke:none"
       id="path50"
       inkscape:connector-curvature="0" />
    <path
       d="m 289.21514,281.4083 14.28375,0 c 3.41125,0 3.94375,2.3375 3.94375,2.3375 l 2.08,6.02875 c 0,0 0.14375,0.4625 0.415,0.4625 0.2475,0 0.38875,-0.4625 0.38875,-0.4625 l 2.87375,-7.33 c 0,0 0.43375,-0.9975 1.4925,-0.9975 l 1.53625,0 -4.98125,11.885 c 0,0 -0.62875,1.65 -1.335,1.65 -0.70625,0 -1.25375,-1.65 -1.25375,-1.65 l -3.31375,-7.90875 c 0,0 -0.57375,-1.46625 -2.33875,-1.46625 l -13.79125,0 c 0,0 -1.09375,-0.0537 -1.09375,-1.29875 0,-1.19875 1.09375,-1.25 1.09375,-1.25"
       style="fill:#231f20;fill-opacity:1;fill-rule:nonzero;stroke:none"
       id="path54"
       inkscape:connector-curvature="0" />
    <path
       d="m 289.21514,284.82468 5.18,0 c 1.04875,0 0.97,0.90875 0.97,0.90875 l 0,11.825 c 0,0 -0.0925,1.04125 -1.505,1.04125 -1.41125,0 -1.3675,-1.04125 -1.3675,-1.04125 l 0,-9.5725 c 0,0 0.0487,-0.5675 -0.6475,-0.5675 l -2.63,0 c 0,0 -1.09375,-0.0688 -1.09375,-1.285 0,-1.21625 1.09375,-1.30875 1.09375,-1.30875"
       style="fill:#231f20;fill-opacity:1;fill-rule:nonzero;stroke:none"
       id="path58"
       inkscape:connector-curvature="0" />
    <path
       d="m 296.40489,297.55868 0,-11.825 c 0,0 -0.0588,-0.90875 0.95625,-0.90875 l 5.22125,0 c 1.52875,0 2.04375,1.48 2.04375,1.48 l 3.32375,7.96375 c 0,0 0.75,1.7575 1.8525,1.7575 1.235,0 1.9425,-1.7575 1.9425,-1.7575 l 5.22,-12.0375 c 0,0 0.29375,-0.8225 1.295,-0.8225 l 1.92625,0 -6.85375,14.67 c 0,0 -0.985,2.33125 -3.485,2.33125 -2.50125,0 -3.545,-2.33125 -3.545,-2.33125 l -3.75,-7.89125 c 0,0 -0.25,-0.72 -1.33875,-0.72 l -1.27875,0 c 0,0 -0.60375,0.0588 -0.60375,0.5875 l 0,9.50375 c 0,0 -0.0362,1.07875 -1.43375,1.07875 -1.44875,0 -1.4925,-1.07875 -1.4925,-1.07875"
       style="fill:#231f20;fill-opacity:1;fill-rule:nonzero;stroke:none"
       id="path62"
       inkscape:connector-curvature="0" />
  </g>
</svg>
