<?xml version="1.0" encoding="UTF-8" standalone="no"?>
<!-- Created with Inkscape (http://www.inkscape.org/) -->

<svg
   xmlns:dc="http://purl.org/dc/elements/1.1/"
   xmlns:cc="http://creativecommons.org/ns#"
   xmlns:rdf="http://www.w3.org/1999/02/22-rdf-syntax-ns#"
   xmlns:svg="http://www.w3.org/2000/svg"
   xmlns="http://www.w3.org/2000/svg"
   xmlns:sodipodi="http://sodipodi.sourceforge.net/DTD/sodipodi-0.dtd"
   xmlns:inkscape="http://www.inkscape.org/namespaces/inkscape"
   width="11.559187mm"
   height="2.6000605mm"
   viewBox="0 0 40.957749 9.2128126"
   id="svg28212"
   version="1.1"
   inkscape:version="0.91 r13725"
   sodipodi:docname="CCTV News.svg">
  <defs
     id="defs28214">
    <clipPath
       clipPathUnits="userSpaceOnUse"
       id="clipPath7646">
      <path
         d="m 0,0 595.276,0 0,595.276 L 0,595.276 0,0 Z"
         id="path7648"
         inkscape:connector-curvature="0" />
    </clipPath>
    <clipPath
       clipPathUnits="userSpaceOnUse"
       id="clipPath7594">
      <path
         d="m 0,0 595.276,0 0,595.276 L 0,595.276 0,0 Z"
         id="path7596"
         inkscape:connector-curvature="0" />
    </clipPath>
  </defs>
  <sodipodi:namedview
     id="base"
     pagecolor="#ffffff"
     bordercolor="#666666"
     borderopacity="1.0"
     inkscape:pageopacity="0.0"
     inkscape:pageshadow="2"
     inkscape:zoom="15.839192"
     inkscape:cx="13.209195"
     inkscape:cy="-3.6223794"
     inkscape:document-units="px"
     inkscape:current-layer="layer1"
     showgrid="false"
     fit-margin-top="0"
     fit-margin-left="0"
     fit-margin-right="0"
     fit-margin-bottom="0"
     inkscape:window-width="1920"
     inkscape:window-height="1017"
     inkscape:window-x="-8"
     inkscape:window-y="-8"
     inkscape:window-maximized="1" />
  <metadata
     id="metadata28217">
    <rdf:RDF>
      <cc:Work
         rdf:about="">
        <dc:format>image/svg+xml</dc:format>
        <dc:type
           rdf:resource="http://purl.org/dc/dcmitype/StillImage" />
        <dc:title></dc:title>
      </cc:Work>
    </rdf:RDF>
  </metadata>
  <g
     inkscape:label="Layer 1"
     inkscape:groupmode="layer"
     id="layer1"
     transform="translate(-448.09255,-324.89866)">
    <g
       transform="matrix(1.25,0,0,-1.25,379.8013,418.30766)"
       id="g7590">
      <g
         id="g7592"
         clip-path="url(#clipPath7594)">
        <g
           id="g7598"
           transform="translate(83.7782,74.7272)">
          <path
             d="m 0,0 -4.748,0 c -1.826,0 -2.947,-0.688 -3.917,-3.62 -0.661,-1.998 -0.93,-2.8 -2.599,-3.049 l -6.172,0 0,0 -11.17,0 c -0.194,0 -0.353,-0.105 -0.353,-0.298 l 0,-0.05 c 0,-0.192 0.159,-0.35 0.353,-0.35 l 9.34,0 14.492,-0.001 c 0.523,-0.003 4.361,-0.003 4.771,0 2.428,0 3.624,1.426 3.624,3.691 0,2.316 -1.27,3.53 -3.621,3.677"
             style="fill:#1b1c20;fill-opacity:1;fill-rule:nonzero;stroke:none"
             id="path7600"
             inkscape:connector-curvature="0" />
        </g>
        <g
           id="g7602"
           transform="translate(59.15,74.6154)">
          <path
             d="m 0,0 -1.173,0 c -1.325,0 -3.344,-0.932 -3.344,-2.912 0,-2.247 2.596,-2.889 3.185,-2.889 l 1.332,0 c 0,0 0.409,0.03 0.409,0.42 C 0.409,-4.935 0,-4.955 0,-4.955 l -0.923,0 c -0.988,0 -2.456,0.525 -2.456,2.043 0,1.647 1.669,2.073 2.526,2.073 l 0.853,0 c 0,0 0.354,-0.01 0.354,0.449 C 0.354,0.01 0,0 0,0"
             style="fill:#1b1c20;fill-opacity:1;fill-rule:nonzero;stroke:none"
             id="path7604"
             inkscape:connector-curvature="0" />
        </g>
        <g
           id="g7606"
           transform="translate(59.15,73.4538)">
          <path
             d="m 0,0 -0.742,0 c -1.011,0 -2.295,-0.49 -2.295,-1.721 0,-1.324 1.138,-1.798 2.362,-1.798 l 0.675,0 c 0,0 0.354,0 0.354,0.459 C 0.354,-2.614 0,-2.634 0,-2.634 l -0.888,0 c -0.366,0 -1.071,0.195 -1.071,0.913 0,0.719 0.745,0.816 0.998,0.816 l 0.961,0 c 0,0 0.354,0.03 0.354,0.466 C 0.354,-0.007 0,0 0,0"
             style="fill:#1b1c20;fill-opacity:1;fill-rule:nonzero;stroke:none"
             id="path7608"
             inkscape:connector-curvature="0" />
        </g>
        <g
           id="g7610"
           transform="translate(64.119,74.6154)">
          <path
             d="m 0,0 -1.172,0 c -1.326,0 -3.345,-0.932 -3.345,-2.912 0,-2.247 2.596,-2.889 3.185,-2.889 l 1.332,0 c 0,0 0.409,0.03 0.409,0.42 C 0.409,-4.935 0,-4.955 0,-4.955 l -0.923,0 c -0.988,0 -2.456,0.525 -2.456,2.043 0,1.647 1.67,2.073 2.526,2.073 l 0.853,0 c 0,0 0.354,-0.01 0.354,0.449 C 0.354,0.01 0,0 0,0"
             style="fill:#e60005;fill-opacity:1;fill-rule:nonzero;stroke:none"
             id="path7612"
             inkscape:connector-curvature="0" />
        </g>
        <g
           id="g7614"
           transform="translate(64.119,73.4538)">
          <path
             d="m 0,0 -0.741,0 c -1.012,0 -2.296,-0.49 -2.296,-1.721 0,-1.324 1.138,-1.798 2.362,-1.798 l 0.675,0 c 0,0 0.354,0 0.354,0.459 C 0.354,-2.614 0,-2.634 0,-2.634 l -0.888,0 c -0.366,0 -1.071,0.195 -1.071,0.913 0,0.719 0.745,0.816 0.998,0.816 l 0.961,0 c 0,0 0.354,0.03 0.354,0.466 C 0.354,-0.007 0,0 0,0"
             style="fill:#e60005;fill-opacity:1;fill-rule:nonzero;stroke:none"
             id="path7616"
             inkscape:connector-curvature="0" />
        </g>
        <g
           id="g7618"
           transform="translate(65.0962,74.6346)">
          <path
             d="m 0,0 4.846,0 c 1.157,0 1.337,-0.793 1.337,-0.793 l 0.706,-2.045 c 0,0 0.049,-0.157 0.141,-0.157 0.084,0 0.132,0.157 0.132,0.157 l 0.975,2.487 c 0,0 0.147,0.338 0.506,0.338 l 0.521,0 -1.69,-4.032 c 0,0 -0.213,-0.56 -0.453,-0.56 -0.239,0 -0.425,0.56 -0.425,0.56 l -1.124,2.683 c 0,0 -0.195,0.497 -0.794,0.497 l -4.678,0 c 0,0 -0.371,0.019 -0.371,0.441 C -0.371,-0.017 0,0 0,0"
             style="fill:#1b1c20;fill-opacity:1;fill-rule:nonzero;stroke:none"
             id="path7620"
             inkscape:connector-curvature="0" />
        </g>
        <g
           id="g7622"
           transform="translate(65.0962,73.4754)">
          <path
             d="m 0,0 1.757,0 c 0.356,0 0.329,-0.308 0.329,-0.308 l 0,-4.012 c 0,0 -0.031,-0.353 -0.51,-0.353 -0.479,0 -0.464,0.353 -0.464,0.353 l 0,3.247 c 0,0 0.017,0.193 -0.22,0.193 L 0,-0.88 c 0,0 -0.371,0.024 -0.371,0.436 C -0.371,-0.031 0,0 0,0"
             style="fill:#1b1c20;fill-opacity:1;fill-rule:nonzero;stroke:none"
             id="path7624"
             inkscape:connector-curvature="0" />
        </g>
        <g
           id="g7626"
           transform="translate(67.5352,69.1556)">
          <path
             d="m 0,0 0,4.012 c 0,0 -0.02,0.308 0.324,0.308 l 1.772,0 c 0.518,0 0.693,-0.502 0.693,-0.502 L 3.917,1.116 c 0,0 0.254,-0.596 0.628,-0.596 0.419,0 0.659,0.596 0.659,0.596 L 6.975,5.2 c 0,0 0.1,0.279 0.439,0.279 l 0.654,0 -2.325,-4.977 c 0,0 -0.335,-0.791 -1.183,-0.791 -0.848,0 -1.202,0.791 -1.202,0.791 L 2.085,3.179 c 0,0 -0.084,0.245 -0.454,0.245 l -0.434,0 c 0,0 -0.204,-0.021 -0.204,-0.2 L 0.993,0 C 0.993,0 0.98,-0.366 0.506,-0.366 0.015,-0.366 0,0 0,0"
             style="fill:#1b1c20;fill-opacity:1;fill-rule:nonzero;stroke:none"
             id="path7628"
             inkscape:connector-curvature="0" />
        </g>
      </g>
    </g>
    <g
       id="g7630"
       transform="matrix(1.25,0,0,-1.25,476.2238,327.68991)">
      <path
         d="m 0,0 0.514,-1.63 0.009,0 0,1.63 0.745,0 0,-2.646 -0.874,0 -0.531,1.634 -0.008,0 0,-1.634 -0.746,0 0,2.646 L 0,0 Z"
         style="fill:#ffffff;fill-opacity:1;fill-rule:nonzero;stroke:none"
         id="path7632"
         inkscape:connector-curvature="0" />
    </g>
    <g
       id="g7634"
       transform="matrix(1.25,0,0,-1.25,480.54355,327.68991)">
      <path
         d="m 0,0 0,-0.563 -1.015,0 0,-0.452 0.951,0 0,-0.541 -0.951,0 0,-0.527 1.054,0 0,-0.563 -1.85,0 0,2.646 L 0,0 Z"
         style="fill:#ffffff;fill-opacity:1;fill-rule:nonzero;stroke:none"
         id="path7636"
         inkscape:connector-curvature="0" />
    </g>
    <g
       id="g7638"
       transform="matrix(1.25,0,0,-1.25,483.25192,327.68991)">
      <path
         d="m 0,0 0.313,-1.831 0.008,0 0.215,1.831 0.77,0 -0.522,-2.646 -0.874,0 -0.265,1.779 -0.009,0 -0.265,-1.779 -0.874,0 -0.522,2.646 0.771,0 0.239,-1.831 0.009,0 L -0.719,0 0,0 Z"
         style="fill:#ffffff;fill-opacity:1;fill-rule:nonzero;stroke:none"
         id="path7640"
         inkscape:connector-curvature="0" />
    </g>
    <g
       transform="matrix(1.25,0,0,-1.25,379.8013,418.30766)"
       id="g7642">
      <g
         id="g7644"
         clip-path="url(#clipPath7646)">
        <g
           id="g7650"
           transform="translate(85.4455,71.7939)">
          <path
             d="m 0,0 c 0,0.079 -0.019,0.146 -0.056,0.202 -0.037,0.056 -0.094,0.083 -0.171,0.083 -0.086,0 -0.149,-0.024 -0.188,-0.072 -0.04,-0.048 -0.06,-0.102 -0.06,-0.161 0,-0.087 0.032,-0.155 0.096,-0.206 0.064,-0.051 0.145,-0.094 0.242,-0.131 0.097,-0.037 0.201,-0.075 0.313,-0.113 0.111,-0.039 0.215,-0.089 0.312,-0.15 0.097,-0.062 0.178,-0.143 0.242,-0.243 0.064,-0.1 0.096,-0.231 0.096,-0.391 0,-0.282 -0.092,-0.486 -0.278,-0.613 -0.185,-0.128 -0.454,-0.191 -0.805,-0.191 -0.165,0 -0.312,0.011 -0.439,0.035 -0.127,0.023 -0.234,0.064 -0.321,0.122 -0.087,0.058 -0.153,0.134 -0.199,0.228 -0.046,0.094 -0.068,0.21 -0.068,0.349 l 0,0.092 0.77,0 0,-0.063 c 0,-0.114 0.024,-0.193 0.073,-0.239 0.049,-0.046 0.111,-0.068 0.188,-0.068 0.083,0 0.147,0.024 0.191,0.074 0.044,0.049 0.066,0.11 0.066,0.181 0,0.087 -0.03,0.155 -0.092,0.206 -0.061,0.05 -0.138,0.094 -0.231,0.13 -0.093,0.035 -0.193,0.072 -0.302,0.109 -0.108,0.037 -0.209,0.085 -0.302,0.144 -0.093,0.06 -0.17,0.138 -0.231,0.234 -0.062,0.096 -0.092,0.222 -0.092,0.378 0,0.269 0.083,0.474 0.248,0.615 0.166,0.141 0.417,0.211 0.754,0.211 0.348,0 0.6,-0.065 0.756,-0.194 0.155,-0.13 0.233,-0.337 0.233,-0.621 L 0,-0.063 0,0 Z"
             style="fill:#ffffff;fill-opacity:1;fill-rule:nonzero;stroke:none"
             id="path7652"
             inkscape:connector-curvature="0" />
        </g>
      </g>
    </g>
  </g>
</svg>
