<svg height="226.77608pt" viewBox="0 0 579.09241 226.77608" width="579.09241pt" xmlns="http://www.w3.org/2000/svg"><path d="m485.30468 28.046079c6.25-.02 12.5-.01 18.76-.01.01 16.67-.01 33.33 0 50 4-.01 8 .01 12 0v17c-4-.01-8 .01-12 0-.01 7.330001 0 14.660001 0 22.000001-6.67 0-13.33 0-20 0-.01-7.33 0-14.67 0-22.000001-12.98-.05-25.95.1-38.93-.07.17-5.45-.68-11.14.38-16.44 13.14-16.92 26.47-33.7 39.79-50.48m-5.85 29.38c-5.03 7.01-10.87 13.44-15.67 20.59 6.76.05 13.52.01 20.28.02-.05-8.46.11-16.92-.08-25.38-1.81 1.28-3.19 3.04-4.53 4.77z" fill="#231f20"/><g fill="#fff"><path d="m479.45468 57.426079c1.34-1.73 2.72-3.49 4.53-4.77.19 8.46.03 16.92.08 25.38-6.76-.01-13.52.03-20.28-.02 4.8-7.15 10.64-13.58 15.67-20.59z"/><path d="m133.65468 150.79608c3.45-.04 6.9-.04 10.35-.01.06 1.95.08 3.9.17 5.85 10.38-.12 20.76-.08 31.14-.03.02 18.49.04 36.98 0 55.47.05 3.47-2.43 7.45-6.24 7.39-8.31.07-16.62.07-24.92-.02-.08 2.34-.1 4.68-.11 7.03-3.48.04-6.95.04-10.42 0-.02-2.32-.04-4.64-.06-6.95-10.25-.07-20.5.04-30.75-.06-.03-20.95-.03-41.91 0-62.86 10.25-.08 20.5-.02 30.75-.03.03-1.93.04-3.86.09-5.78m-20.1 15.73c-.09 14.19.07 28.38-.08 42.57 6.71.34 13.47.35 20.18 0-.15-14.19.01-28.38-.08-42.57-6.67-.04-13.35-.04-20.02 0m30.59-.08c-.18 14.28-.04 28.56-.07 42.84 6.85-.13 13.74.39 20.57-.3.33-14.17.09-28.34.13-42.51-6.88.03-13.75.07-20.63-.03z"/><path d="m225.66468 151.45608c4.01-.28 8.04-.15 12.06-.11.64 1.78 1.27 3.56 1.89 5.36 10.14.16 20.29-.01 30.44.08.01 3.38.01 6.75.02 10.13-1.23.1-2.46.21-3.69.33-8.25 10.11-16.92 19.88-25.14 30l-.14.69c2.3 3.33 5.16 6.24 7.67 9.42 2.34 2.66 4.49 5.67 7.6 7.48 3.59 1.58 7.65.67 11.45 1.03-.04 3.45-.03 6.9-.01 10.35-6.89-.27-14.97 1.8-20.62-3.31-5.31-4.78-10.08-10.14-15.13-15.19-4.32 4.45-8.56 8.99-12.8 13.51-2.23 2.33-4.77 4.89-8.22 4.95-5.4.31-10.81.06-16.22.1-.04-3.5-.04-6.99 0-10.48 4.89-.44 10.68 1.26 14.77-2.24 5.06-4.45 9.08-9.92 13.73-14.77-7.27-8.93-15.3-17.23-22.65-26.1 5.14-.25 10.29-.05 15.44-.14 5.36 5.49 10.21 11.49 15.78 16.78 6.35-7.51 12.99-14.77 19.34-22.28-18.81-.03-37.61.01-56.41-.02-.04-3.47-.04-6.95-.01-10.42 9.58-.11 19.15.04 28.73-.07.74-1.68 1.45-3.37 2.12-5.08z"/><path d="m287.63468 151.78608c24.39.02 48.79-.13 73.18.08-.04 21.06-.01 42.12-.02 63.18-.05 3.4-.25 7.39-3.23 9.63-3.63 1.48-7.66 1.02-11.49 1.1-19.44.04-38.89-.12-58.33.08-.32-24.68-.1-49.38-.11-74.07m10.9 8.72c-.04 18.86.08 37.72-.06 56.58 12.85.5 25.72.08 38.59.22 4.15-.15 8.41.5 12.46-.71.17-18.7.02-37.4.07-56.09-17.02 0-34.04 0-51.06 0z"/><path d="m380.23468 151.71608c10.09-.33 20.19-.07 30.28-.13-.07 8.83.23 17.67-.15 26.48.03 2.92-1.69 5.3-3.86 7.07 1.59 1.71 3.91 3.29 3.92 5.89.25 7.66.05 15.35.1 23.02-.16 3.36-.64 8.19-4.72 8.94-5.01.98-10.17.38-15.24.47-.18 1.11-.37 2.21-.55 3.32-3.23-.01-6.46-.01-9.68-.01-.07-25.02.12-50.04-.1-75.05m10.06 9.37c.07 6.56.02 13.11.04 19.67 3.38.02 6.77.11 10.15-.18.63-6.48.16-13 .35-19.49-3.52-.07-7.03-.08-10.54 0m-.06 29.61c.21 7.69.04 15.38.1 23.06 3.37.02 6.75.1 10.11-.18.67-7.49.34-15.05.21-22.56-3.41-.88-6.96-.55-10.42-.32z"/><path d="m413.06468 151.60608c13.81-.07 27.63-.04 41.45-.02.02 3.15.03 6.3-.02 9.45-13.81 0-27.62 0-41.43 0 0-3.15-.01-6.29 0-9.43z"/><path d="m302.88468 166.28608c14.17-.02 28.34.12 42.51-.07.17 2.75.16 5.51.12 8.27-5.79.01-11.58.07-17.37-.04-.11 3.06-.11 6.12 0 9.18 5.64-.1 11.29-.07 16.93-.02-.01 2.73-.01 5.46-.05 8.2-5.65-.06-11.3-.05-16.95-.01-.02 4-.05 8.02.05 12.03 1.87-.04 3.74.02 5.61-.11 1.57-1.33 2.13-3.47 3.18-5.19 2.11.04 4.22.06 6.34.1.11 1.64.23 3.29.3 4.95.73.09 2.19.29 2.92.38.07 2.8.07 5.59.02 8.39-14.55-.65-29.12-.15-43.68-.32-.02-2.74-.02-5.49.01-8.23 4.93-.05 9.86-.01 14.8-.05-.04-3.92-.06-7.84.03-11.76-4.91-.44-9.84-.15-14.76-.2-.11-2.72-.12-5.45-.09-8.18 4.93-.06 9.86-.04 14.79-.03 0-3.03 0-6.05 0-9.08-4.93.01-9.86.03-14.79-.03-.02-2.73-.02-5.46.08-8.18z"/><path d="m412.89468 172.28608c13.83-.02 27.66.12 41.48-.07.24 3.2.24 6.43.01 9.64-5.1-.17-10.21-.07-15.31-.07-.03 12.12.01 24.23-.01 36.34-.14 2.76-.32 6.48-3.35 7.66-3.34 1.22-6.99.65-10.46.59.09-2.96.1-5.91.06-8.87 1.21-.19 2.43-.38 3.65-.59.81-11.68.18-23.42.34-35.12-5.47-.05-10.94-.04-16.41-.01-.15-3.17-.15-6.34 0-9.5z"/><path d="m418.15468 188.03608c2.91-.01 5.83-.01 8.75.05-1.2 10.11-2.44 20.21-3.66 30.31-.41 1.97-.46 4.26-1.9 5.8-2.7 1.66-6.04 1.01-9.04 1.02.03-2.95.04-5.89.01-8.83.9-.48 1.81-.96 2.71-1.45.99-8.97 2.2-17.92 3.13-26.9z"/><path d="m441.82468 188.19608c2.79.13 5.59.13 8.4.11.89 8.9 1.22 17.86 2.27 26.76 1.08.24 2.17.47 3.27.68.03 3.01.04 6.02.03 9.03-2.92-.14-6.01.47-8.77-.7-2.56-1.3-2.74-4.55-3.1-7.04-.63-9.62-1.79-19.21-2.1-28.84z"/><path d="m509.18084.00047457h-41.77478c-35.24211 0-56.88673 13.53743043-75.60884 71.24262243-12.76248 39.326993-17.96079 55.117883-50.19032 60.025413h-119.15188v-.006h-215.63582c-3.74933-.0004-6.8192 2.07778-6.8192 5.86694v.96815c0 3.79749 3.06987 6.9106 6.8192 6.9106h180.32005l279.75925.006c10.10192.0601 34.30886.0601 42.21684 0 46.88305 0 69.97666-28.05971 69.97666-72.653119 0-45.569516-24.5344-69.4561564-69.91116-72.36060643"/></g><path d="m485.30472 28.046067c6.25-.02 12.5-.01 18.76-.01.01 16.67-.01 33.33 0 50 4-.01 8 .01 12 0v17c-4-.01-8 .01-12 0-.01 7.330013 0 14.660013 0 22.000013-6.67 0-13.33 0-20 0-.01-7.33 0-14.67 0-22.000013-12.98-.05-25.95.1-38.93-.07.17-5.45-.68-11.14.38-16.44 13.14-16.92 26.47-33.7 39.79-50.48m-5.85 29.38c-5.03 7.01-10.87 13.44-15.67 20.59 6.76.05 13.52.01 20.28.02-.05-8.46.11-16.92-.08-25.38-1.81 1.28-3.19 3.04-4.53 4.77z" fill="#231f20"/><g transform="matrix(6.508681 0 0 6.508681 -1681.6545 -1823.5749)"><path d="m271.68727 281.46468h-3.45625c-3.9075 0-9.86 2.7475-9.86 8.58375 0 6.6225 7.6525 8.515 9.38875 8.515h3.9275s1.20625-.0888 1.20625-1.23625c0-1.315-1.20625-1.25625-1.20625-1.25625h-2.72125c-2.9125 0-7.24-1.54625-7.24-6.0225 0-4.855 4.92125-6.1125 7.44625-6.1125h2.515s1.04375.0312 1.04375-1.3225c0-1.1775-1.04375-1.14875-1.04375-1.14875" fill="#fff"/><path d="m271.68727 284.88868h-2.18625c-2.98125 0-6.765 1.445-6.765 5.0725 0 3.9025 3.3525 5.3 6.96125 5.3h1.99s1.04375 0 1.04375-1.3525c0-1.31375-1.04375-1.255-1.04375-1.255h-2.6175c-1.07875 0-3.1575-.575-3.1575-2.6925s2.19625-2.405 2.94125-2.405h2.83375s1.04375-.0888 1.04375-1.3725c0-1.27625-1.04375-1.295-1.04375-1.295" fill="#fff"/><path d="m286.33477 281.46468h-3.45625c-3.90625 0-9.85875 2.7475-9.85875 8.58375 0 6.6225 7.6525 8.515 9.38875 8.515h3.92625s1.20625-.0888 1.20625-1.23625c0-1.315-1.20625-1.25625-1.20625-1.25625h-2.72c-2.91375 0-7.24-1.54625-7.24-6.0225 0-4.855 4.92125-6.1125 7.44625-6.1125h2.51375s1.045.0312 1.045-1.3225c0-1.1775-1.045-1.14875-1.045-1.14875" fill="#ed1c24"/><path d="m286.33477 284.88868h-2.185c-2.98125 0-6.76625 1.445-6.76625 5.0725 0 3.9025 3.35375 5.3 6.96125 5.3h1.99s1.045 0 1.045-1.3525c0-1.31375-1.045-1.255-1.045-1.255h-2.6175c-1.07875 0-3.15625-.575-3.15625-2.6925s2.19625-2.405 2.94-2.405h2.83375s1.045-.0888 1.045-1.3725c0-1.27625-1.045-1.295-1.045-1.295" fill="#ed1c24"/><g fill="#fff"><path d="m289.21514 281.4083h14.28375c3.41125 0 3.94375 2.3375 3.94375 2.3375l2.08 6.02875s.14375.4625.415.4625c.2475 0 .38875-.4625.38875-.4625l2.87375-7.33s.43375-.9975 1.4925-.9975h1.53625l-4.98125 11.885s-.62875 1.65-1.335 1.65-1.25375-1.65-1.25375-1.65l-3.31375-7.90875s-.57375-1.46625-2.33875-1.46625h-13.79125s-1.09375-.0537-1.09375-1.29875c0-1.19875 1.09375-1.25 1.09375-1.25"/><path d="m289.21514 284.82468h5.18c1.04875 0 .97.90875.97.90875v11.825s-.0925 1.04125-1.505 1.04125c-1.41125 0-1.3675-1.04125-1.3675-1.04125v-9.5725s.0487-.5675-.6475-.5675h-2.63s-1.09375-.0688-1.09375-1.285c0-1.21625 1.09375-1.30875 1.09375-1.30875"/><path d="m296.40489 297.55868v-11.825s-.0588-.90875.95625-.90875h5.22125c1.52875 0 2.04375 1.48 2.04375 1.48l3.32375 7.96375s.75 1.7575 1.8525 1.7575c1.235 0 1.9425-1.7575 1.9425-1.7575l5.22-12.0375s.29375-.8225 1.295-.8225h1.92625l-6.85375 14.67s-.985 2.33125-3.485 2.33125c-2.50125 0-3.545-2.33125-3.545-2.33125l-3.75-7.89125s-.25-.72-1.33875-.72h-1.27875s-.60375.0588-.60375.5875v9.50375s-.0362 1.07875-1.43375 1.07875c-1.44875 0-1.4925-1.07875-1.4925-1.07875"/></g></g></svg>