<?xml version="1.0" encoding="UTF-8" standalone="no"?>
<!-- Created with Inkscape (http://www.inkscape.org/) -->

<svg
   xmlns:dc="http://purl.org/dc/elements/1.1/"
   xmlns:cc="http://creativecommons.org/ns#"
   xmlns:rdf="http://www.w3.org/1999/02/22-rdf-syntax-ns#"
   xmlns:svg="http://www.w3.org/2000/svg"
   xmlns="http://www.w3.org/2000/svg"
   xmlns:sodipodi="http://sodipodi.sourceforge.net/DTD/sodipodi-0.dtd"
   xmlns:inkscape="http://www.inkscape.org/namespaces/inkscape"
   width="25.109945mm"
   height="9.5624876mm"
   viewBox="0 0 88.972247 33.88283"
   id="svg4765"
   version="1.1"
   inkscape:version="0.91 r13725"
   sodipodi:docname="CCTV-9.svg">
  <defs
     id="defs4767" />
  <sodipodi:namedview
     id="base"
     pagecolor="#ffffff"
     bordercolor="#666666"
     borderopacity="1.0"
     inkscape:pageopacity="0.0"
     inkscape:pageshadow="2"
     inkscape:zoom="11.2"
     inkscape:cx="29.720697"
     inkscape:cy="22.794673"
     inkscape:document-units="px"
     inkscape:current-layer="layer1"
     showgrid="false"
     fit-margin-top="0"
     fit-margin-left="0"
     fit-margin-right="0"
     fit-margin-bottom="0"
     inkscape:window-width="1920"
     inkscape:window-height="1017"
     inkscape:window-x="-8"
     inkscape:window-y="-8"
     inkscape:window-maximized="1" />
  <metadata
     id="metadata4770">
    <rdf:RDF>
      <cc:Work
         rdf:about="">
        <dc:format>image/svg+xml</dc:format>
        <dc:type
           rdf:resource="http://purl.org/dc/dcmitype/StillImage" />
        <dc:title></dc:title>
      </cc:Work>
    </rdf:RDF>
  </metadata>
  <g
     inkscape:label="Layer 1"
     inkscape:groupmode="layer"
     id="layer1"
     transform="translate(-258.37102,-281.13505)">
    <path
       inkscape:connector-curvature="0"
       id="path34"
       style="fill:#ffffff;fill-opacity:1;fill-rule:nonzero;stroke:none"
       d="m 336.66827,281.13505 -6.37875,0 c -5.38125,0 -8.68625,2.0275 -11.545,10.67 -1.94875,5.89 -2.7425,8.255 -7.66375,8.99 l -18.19375,0 0,-10e-4 -32.92625,0 c -0.5725,0 -1.04125,0.31125 -1.04125,0.87875 l 0,0.145 c 0,0.56875 0.46875,1.035 1.04125,1.035 l 27.53375,0 42.7175,10e-4 c 1.5425,0.009 5.23875,0.009 6.44625,0 7.15875,0 10.685,-4.2025 10.685,-10.88125 0,-6.825 -3.74625,-10.4025 -10.675,-10.8375" />
    <path
       inkscape:connector-curvature="0"
       id="path38"
       style="fill:#ffffff;fill-opacity:1;fill-rule:nonzero;stroke:none"
       d="m 271.68727,281.46468 -3.45625,0 c -3.9075,0 -9.86,2.7475 -9.86,8.58375 0,6.6225 7.6525,8.515 9.38875,8.515 l 3.9275,0 c 0,0 1.20625,-0.0888 1.20625,-1.23625 0,-1.315 -1.20625,-1.25625 -1.20625,-1.25625 l -2.72125,0 c -2.9125,0 -7.24,-1.54625 -7.24,-6.0225 0,-4.855 4.92125,-6.1125 7.44625,-6.1125 l 2.515,0 c 0,0 1.04375,0.0312 1.04375,-1.3225 0,-1.1775 -1.04375,-1.14875 -1.04375,-1.14875" />
    <path
       inkscape:connector-curvature="0"
       id="path42"
       style="fill:#ffffff;fill-opacity:1;fill-rule:nonzero;stroke:none"
       d="m 271.68727,284.88868 -2.18625,0 c -2.98125,0 -6.765,1.445 -6.765,5.0725 0,3.9025 3.3525,5.3 6.96125,5.3 l 1.99,0 c 0,0 1.04375,0 1.04375,-1.3525 0,-1.31375 -1.04375,-1.255 -1.04375,-1.255 l -2.6175,0 c -1.07875,0 -3.1575,-0.575 -3.1575,-2.6925 0,-2.1175 2.19625,-2.405 2.94125,-2.405 l 2.83375,0 c 0,0 1.04375,-0.0888 1.04375,-1.3725 0,-1.27625 -1.04375,-1.295 -1.04375,-1.295" />
    <path
       inkscape:connector-curvature="0"
       id="path46"
       style="fill:#ed1c24;fill-opacity:1;fill-rule:nonzero;stroke:none"
       d="m 286.33477,281.46468 -3.45625,0 c -3.90625,0 -9.85875,2.7475 -9.85875,8.58375 0,6.6225 7.6525,8.515 9.38875,8.515 l 3.92625,0 c 0,0 1.20625,-0.0888 1.20625,-1.23625 0,-1.315 -1.20625,-1.25625 -1.20625,-1.25625 l -2.72,0 c -2.91375,0 -7.24,-1.54625 -7.24,-6.0225 0,-4.855 4.92125,-6.1125 7.44625,-6.1125 l 2.51375,0 c 0,0 1.045,0.0312 1.045,-1.3225 0,-1.1775 -1.045,-1.14875 -1.045,-1.14875" />
    <path
       inkscape:connector-curvature="0"
       id="path50"
       style="fill:#ed1c24;fill-opacity:1;fill-rule:nonzero;stroke:none"
       d="m 286.33477,284.88868 -2.185,0 c -2.98125,0 -6.76625,1.445 -6.76625,5.0725 0,3.9025 3.35375,5.3 6.96125,5.3 l 1.99,0 c 0,0 1.045,0 1.045,-1.3525 0,-1.31375 -1.045,-1.255 -1.045,-1.255 l -2.6175,0 c -1.07875,0 -3.15625,-0.575 -3.15625,-2.6925 0,-2.1175 2.19625,-2.405 2.94,-2.405 l 2.83375,0 c 0,0 1.045,-0.0888 1.045,-1.3725 0,-1.27625 -1.045,-1.295 -1.045,-1.295" />
    <path
       inkscape:connector-curvature="0"
       id="path54"
       style="fill:#ffffff;fill-opacity:1;fill-rule:nonzero;stroke:none"
       d="m 289.21514,281.4083 14.28375,0 c 3.41125,0 3.94375,2.3375 3.94375,2.3375 l 2.08,6.02875 c 0,0 0.14375,0.4625 0.415,0.4625 0.2475,0 0.38875,-0.4625 0.38875,-0.4625 l 2.87375,-7.33 c 0,0 0.43375,-0.9975 1.4925,-0.9975 l 1.53625,0 -4.98125,11.885 c 0,0 -0.62875,1.65 -1.335,1.65 -0.70625,0 -1.25375,-1.65 -1.25375,-1.65 l -3.31375,-7.90875 c 0,0 -0.57375,-1.46625 -2.33875,-1.46625 l -13.79125,0 c 0,0 -1.09375,-0.0537 -1.09375,-1.29875 0,-1.19875 1.09375,-1.25 1.09375,-1.25" />
    <path
       inkscape:connector-curvature="0"
       id="path58"
       style="fill:#ffffff;fill-opacity:1;fill-rule:nonzero;stroke:none"
       d="m 289.21514,284.82468 5.18,0 c 1.04875,0 0.97,0.90875 0.97,0.90875 l 0,11.825 c 0,0 -0.0925,1.04125 -1.505,1.04125 -1.41125,0 -1.3675,-1.04125 -1.3675,-1.04125 l 0,-9.5725 c 0,0 0.0487,-0.5675 -0.6475,-0.5675 l -2.63,0 c 0,0 -1.09375,-0.0688 -1.09375,-1.285 0,-1.21625 1.09375,-1.30875 1.09375,-1.30875" />
    <path
       inkscape:connector-curvature="0"
       id="path62"
       style="fill:#ffffff;fill-opacity:1;fill-rule:nonzero;stroke:none"
       d="m 296.40489,297.55868 0,-11.825 c 0,0 -0.0588,-0.90875 0.95625,-0.90875 l 5.22125,0 c 1.52875,0 2.04375,1.48 2.04375,1.48 l 3.32375,7.96375 c 0,0 0.75,1.7575 1.8525,1.7575 1.235,0 1.9425,-1.7575 1.9425,-1.7575 l 5.22,-12.0375 c 0,0 0.29375,-0.8225 1.295,-0.8225 l 1.92625,0 -6.85375,14.67 c 0,0 -0.985,2.33125 -3.485,2.33125 -2.50125,0 -3.545,-2.33125 -3.545,-2.33125 l -3.75,-7.89125 c 0,0 -0.25,-0.72 -1.33875,-0.72 l -1.27875,0 c 0,0 -0.60375,0.0588 -0.60375,0.5875 l 0,9.50375 c 0,0 -0.0362,1.07875 -1.43375,1.07875 -1.44875,0 -1.4925,-1.07875 -1.4925,-1.07875" />
    <path
       inkscape:connector-curvature="0"
       id="path66"
       style="fill:#231f20;fill-opacity:1;fill-rule:nonzero;stroke:none"
       d="m 337.25814,285.50355 c -0.99625,-1.0025 -2.26,-1.52375 -3.67875,-1.5175 -1.4075,-0.006 -2.66375,0.51875 -3.665,1.52 -1.01,0.9975 -1.535,2.2625 -1.52875,3.685 -0.006,1.4225 0.51875,2.6875 1.52875,3.68375 1.00125,1.005 2.2575,1.5275 3.665,1.52125 l 0.0138,0 -1.96,4.3675 2.72625,1.24375 3.92125,-8.6025 c 0.3275,-0.7 0.495,-1.44875 0.495,-2.22375 0.002,-1.41875 -0.5175,-2.68 -1.5175,-3.6775 m -3.695,5.84125 c -1.2,0 -2.17375,-0.97375 -2.17375,-2.17375 0,-1.20125 0.97375,-2.175 2.17375,-2.175 1.20125,0 2.175,0.97375 2.175,2.175 0,1.2 -0.97375,2.17375 -2.175,2.17375" />
    <path
       inkscape:connector-curvature="0"
       id="path70"
       style="fill:#ffffff;fill-opacity:1;fill-rule:nonzero;stroke:none"
       d="m 267.88677,306.03205 2.5625,0 c 0.5775,0 1.0175,0.0437 1.32125,0.1325 0.4075,0.12 0.75625,0.33375 1.0475,0.63875 0.29,0.3075 0.51125,0.6825 0.6625,1.12625 0.15125,0.44375 0.2275,0.99 0.2275,1.64125 0,0.57125 -0.0712,1.06375 -0.21375,1.4775 -0.17375,0.505 -0.42125,0.91375 -0.7425,1.22625 -0.24375,0.2375 -0.5725,0.4225 -0.985,0.555 -0.31,0.0975 -0.72375,0.14625 -1.2425,0.14625 l -2.6375,0 0,-6.94375 z m 1.40125,1.175 0,4.59875 1.0475,0 c 0.39125,0 0.67375,-0.0225 0.8475,-0.0662 0.2275,-0.0563 0.41625,-0.15375 0.56625,-0.28875 0.15,-0.13625 0.2725,-0.35875 0.3675,-0.67 0.095,-0.31125 0.14125,-0.735 0.14125,-1.2725 0,-0.53625 -0.0462,-0.94875 -0.14125,-1.23625 -0.095,-0.28625 -0.2275,-0.51125 -0.39875,-0.6725 -0.17,-0.16125 -0.38625,-0.27 -0.64875,-0.32625 -0.195,-0.045 -0.57875,-0.0663 -1.15125,-0.0663 l -0.63,0 z" />
    <path
       inkscape:connector-curvature="0"
       id="path74"
       style="fill:#ffffff;fill-opacity:1;fill-rule:nonzero;stroke:none"
       d="m 274.57927,310.38968 c 0,-0.4425 0.10875,-0.87 0.3275,-1.28375 0.2175,-0.41375 0.52625,-0.73 0.925,-0.9475 0.4,-0.2175 0.84625,-0.32625 1.33875,-0.32625 0.76125,0 1.385,0.24625 1.87125,0.74125 0.48625,0.49375 0.72875,1.11875 0.72875,1.87375 0,0.76 -0.245,1.39125 -0.73625,1.89125 -0.49125,0.50125 -1.11,0.75125 -1.855,0.75125 -0.46,0 -0.9,-0.105 -1.31875,-0.3125 -0.41875,-0.20875 -0.73625,-0.51375 -0.95375,-0.91625 -0.21875,-0.40375 -0.3275,-0.89375 -0.3275,-1.47125 m 1.365,0.0713 c 0,0.49875 0.1175,0.88 0.355,1.14625 0.23625,0.265 0.52875,0.3975 0.87625,0.3975 0.3475,0 0.63875,-0.1325 0.87375,-0.3975 0.235,-0.26625 0.3525,-0.65 0.3525,-1.15625 0,-0.4925 -0.1175,-0.87125 -0.3525,-1.13625 -0.235,-0.265 -0.52625,-0.3975 -0.87375,-0.3975 -0.3475,0 -0.64,0.1325 -0.87625,0.3975 -0.2375,0.265 -0.355,0.6475 -0.355,1.14625" />
    <path
       inkscape:connector-curvature="0"
       id="path78"
       style="fill:#ffffff;fill-opacity:1;fill-rule:nonzero;stroke:none"
       d="m 285.19889,309.43293 -1.3125,0.23625 c -0.0437,-0.26125 -0.14375,-0.45875 -0.30125,-0.59125 -0.155,-0.1325 -0.35875,-0.19875 -0.6075,-0.19875 -0.3325,0 -0.59625,0.11375 -0.79375,0.3425 -0.1975,0.23 -0.29625,0.6125 -0.29625,1.14875 0,0.5975 0.1,1.01875 0.30125,1.265 0.2,0.24625 0.47,0.36875 0.8075,0.36875 0.2525,0 0.45875,-0.0713 0.62,-0.215 0.16125,-0.14375 0.275,-0.39 0.34125,-0.74125 l 1.3075,0.2225 c -0.135,0.6 -0.39625,1.05375 -0.78125,1.36 -0.385,0.30625 -0.90125,0.46 -1.54875,0.46 -0.73625,0 -1.3225,-0.2325 -1.76,-0.6975 -0.4375,-0.46375 -0.65625,-1.10625 -0.65625,-1.9275 0,-0.83 0.22,-1.4775 0.65875,-1.94 0.43875,-0.4625 1.0325,-0.69375 1.78125,-0.69375 0.6125,0 1.09875,0.1325 1.46125,0.39625 0.36125,0.26375 0.62125,0.665 0.77875,1.205" />
    <path
       inkscape:connector-curvature="0"
       id="path82"
       style="fill:#ffffff;fill-opacity:1;fill-rule:nonzero;stroke:none"
       d="m 289.51877,312.97593 0,-0.75375 c -0.18375,0.26875 -0.42375,0.48125 -0.7225,0.635 -0.29875,0.155 -0.61375,0.2325 -0.945,0.2325 -0.3375,0 -0.64125,-0.0737 -0.91,-0.2225 -0.2675,-0.14875 -0.4625,-0.3575 -0.5825,-0.625 -0.12,-0.26875 -0.17875,-0.64 -0.17875,-1.11375 l 0,-3.1825 1.33,0 0,2.31125 c 0,0.7075 0.025,1.14 0.0738,1.3 0.0487,0.16 0.1375,0.28625 0.2675,0.37875 0.13,0.0937 0.29375,0.14 0.4925,0.14 0.2275,0 0.43125,-0.0625 0.61125,-0.1875 0.18,-0.12375 0.3025,-0.27875 0.37,-0.46375 0.0663,-0.185 0.0987,-0.6375 0.0987,-1.3575 l 0,-2.12125 1.33125,0 0,5.03 -1.23625,0 z" />
    <path
       inkscape:connector-curvature="0"
       id="path86"
       style="fill:#ffffff;fill-opacity:1;fill-rule:nonzero;stroke:none"
       d="m 292.03427,307.94543 1.22625,0 0,0.68625 c 0.43875,-0.5325 0.96125,-0.8 1.5675,-0.8 0.3225,0 0.6025,0.0662 0.83875,0.19875 0.2375,0.1325 0.43125,0.33375 0.5825,0.60125 0.22125,-0.2675 0.46,-0.46875 0.71625,-0.60125 0.255,-0.1325 0.52875,-0.19875 0.81875,-0.19875 0.37,0 0.6825,0.075 0.9375,0.225 0.25625,0.15 0.4475,0.37 0.57375,0.66125 0.0913,0.215 0.1375,0.5625 0.1375,1.04125 l 0,3.21625 -1.33125,0 0,-2.875 c 0,-0.49875 -0.0462,-0.82 -0.1375,-0.96625 -0.1225,-0.18875 -0.3125,-0.28375 -0.5675,-0.28375 -0.1875,0 -0.3625,0.0562 -0.52625,0.17 -0.165,0.11375 -0.2825,0.28125 -0.355,0.5 -0.0737,0.22 -0.11,0.56625 -0.11,1.04 l 0,2.415 -1.33125,0 0,-2.75625 c 0,-0.49 -0.0225,-0.805 -0.07,-0.9475 -0.0475,-0.1425 -0.12125,-0.2475 -0.22125,-0.3175 -0.0987,-0.0688 -0.23375,-0.10375 -0.405,-0.10375 -0.205,0 -0.38875,0.055 -0.55375,0.16625 -0.16375,0.11 -0.28125,0.26875 -0.3525,0.4775 -0.0713,0.20875 -0.10625,0.555 -0.10625,1.0375 l 0,2.44375 -1.33125,0 0,-5.03 z" />
    <path
       inkscape:connector-curvature="0"
       id="path90"
       style="fill:#ffffff;fill-opacity:1;fill-rule:nonzero;stroke:none"
       d="m 303.67177,311.37505 1.32625,0.2225 c -0.17,0.48625 -0.43875,0.85625 -0.8075,1.11 -0.3675,0.255 -0.8275,0.3825 -1.38125,0.3825 -0.87375,0 -1.52125,-0.28625 -1.9425,-0.8575 -0.33,-0.45875 -0.49625,-1.03625 -0.49625,-1.73375 0,-0.83375 0.2175,-1.48625 0.65375,-1.95875 0.435,-0.4725 0.98625,-0.7075 1.6525,-0.7075 0.74875,0 1.34,0.24625 1.77125,0.74 0.43375,0.495 0.64,1.25125 0.62125,2.2725 l -3.335,0 c 0.009,0.39375 0.1175,0.70125 0.3225,0.92 0.205,0.22 0.46,0.33 0.7675,0.33 0.2075,0 0.38375,-0.0575 0.525,-0.17125 0.1425,-0.1125 0.25,-0.29625 0.3225,-0.54875 m 0.0763,-1.345 c -0.01,-0.385 -0.11,-0.67875 -0.29875,-0.87875 -0.19,-0.20125 -0.42,-0.30125 -0.69125,-0.30125 -0.29125,0 -0.53125,0.10625 -0.72,0.3175 -0.18875,0.21125 -0.28375,0.49875 -0.28,0.8625 l 1.99,0 z" />
    <path
       inkscape:connector-curvature="0"
       id="path94"
       style="fill:#ffffff;fill-opacity:1;fill-rule:nonzero;stroke:none"
       d="m 310.72989,312.97593 -1.33125,0 0,-2.5675 c 0,-0.5425 -0.0275,-0.89375 -0.085,-1.05375 -0.0563,-0.15875 -0.14875,-0.28375 -0.2775,-0.3725 -0.1275,-0.0875 -0.28125,-0.13125 -0.46125,-0.13125 -0.23125,0 -0.4375,0.0625 -0.62,0.18875 -0.18375,0.12625 -0.30875,0.29375 -0.3775,0.5025 -0.0675,0.2075 -0.10125,0.59375 -0.10125,1.155 l 0,2.27875 -1.33125,0 0,-5.03 1.23625,0 0,0.73875 c 0.43875,-0.56875 0.99125,-0.8525 1.6575,-0.8525 0.29375,0 0.56125,0.0525 0.805,0.15875 0.24375,0.105 0.4275,0.24 0.5525,0.405 0.125,0.16375 0.21125,0.35 0.26,0.55875 0.0487,0.2075 0.0738,0.50625 0.0738,0.895 l 0,3.12625 z" />
    <path
       inkscape:connector-curvature="0"
       id="path98"
       style="fill:#ffffff;fill-opacity:1;fill-rule:nonzero;stroke:none"
       d="m 314.38602,307.94543 0,1.06125 -0.91,0 0,2.0275 c 0,0.41 0.009,0.65 0.0263,0.7175 0.0175,0.0675 0.0575,0.12375 0.11875,0.1675 0.0613,0.045 0.13625,0.0663 0.225,0.0663 0.12375,0 0.30125,-0.0425 0.53625,-0.1275 l 0.1125,1.0325 c -0.31,0.1325 -0.66,0.19875 -1.05125,0.19875 -0.24,0 -0.45625,-0.04 -0.64875,-0.12 -0.1925,-0.0813 -0.33375,-0.185 -0.42375,-0.31375 -0.09,-0.1275 -0.1525,-0.3 -0.1875,-0.5175 -0.0288,-0.155 -0.0425,-0.4675 -0.0425,-0.93875 l 0,-2.1925 -0.61125,0 0,-1.06125 0.61125,0 0,-1 1.335,-0.77625 0,1.77625 0.91,0 z" />
    <path
       inkscape:connector-curvature="0"
       id="path102"
       style="fill:#ffffff;fill-opacity:1;fill-rule:nonzero;stroke:none"
       d="m 316.30427,309.48043 -1.2075,-0.2175 c 0.13625,-0.4875 0.36875,-0.84625 0.70125,-1.08 0.33125,-0.23375 0.82375,-0.35125 1.4775,-0.35125 0.59375,0 1.03625,0.07 1.32625,0.21125 0.29125,0.14 0.495,0.31875 0.61375,0.535 0.11875,0.21625 0.1775,0.61375 0.1775,1.19125 l -0.0137,1.55375 c 0,0.4425 0.02,0.76875 0.0637,0.9775 0.0425,0.21 0.12125,0.435 0.23875,0.675 l -1.3175,0 c -0.0337,-0.0875 -0.0762,-0.21875 -0.1275,-0.3925 -0.0225,-0.0787 -0.0375,-0.13125 -0.0475,-0.15625 -0.22625,0.22125 -0.47,0.38625 -0.72875,0.4975 -0.25875,0.11 -0.53625,0.16625 -0.82875,0.16625 -0.51875,0 -0.92625,-0.14125 -1.22375,-0.4225 -0.3,-0.28125 -0.44875,-0.63625 -0.44875,-1.065 0,-0.285 0.0675,-0.53875 0.20375,-0.76125 0.13625,-0.2225 0.32625,-0.3925 0.57125,-0.51125 0.24375,-0.11875 0.59625,-0.22125 1.05875,-0.31 0.62125,-0.1175 1.0525,-0.22625 1.2925,-0.3275 l 0,-0.1325 c 0,-0.255 -0.0637,-0.4375 -0.18875,-0.54625 -0.1275,-0.11 -0.365,-0.16375 -0.71625,-0.16375 -0.23625,0 -0.42125,0.0462 -0.55375,0.14 -0.1325,0.0925 -0.24,0.25625 -0.3225,0.49 m 1.78125,1.08 c -0.17125,0.0562 -0.44,0.125 -0.81,0.20375 -0.36875,0.0788 -0.61125,0.15625 -0.725,0.2325 -0.17375,0.1225 -0.26,0.27875 -0.26,0.46875 0,0.18625 0.0687,0.3475 0.2075,0.4825 0.14,0.13625 0.31625,0.20375 0.53125,0.20375 0.24,0 0.46875,-0.0788 0.6875,-0.2375 0.16,-0.11875 0.26625,-0.26625 0.31625,-0.44 0.035,-0.11375 0.0525,-0.33 0.0525,-0.64875 l 0,-0.265 z" />
    <path
       inkscape:connector-curvature="0"
       id="path106"
       style="fill:#ffffff;fill-opacity:1;fill-rule:nonzero;stroke:none"
       d="m 321.97952,312.97593 -1.33125,0 0,-5.03 1.23625,0 0,0.715 c 0.21125,-0.3375 0.4025,-0.56 0.57125,-0.6675 0.16875,-0.1075 0.36,-0.16125 0.575,-0.16125 0.30375,0 0.59625,0.0838 0.87625,0.25125 l -0.4125,1.16 c -0.22375,-0.145 -0.43125,-0.2175 -0.625,-0.2175 -0.18625,0 -0.34375,0.0512 -0.47375,0.15375 -0.12875,0.1025 -0.23125,0.2875 -0.305,0.55625 -0.0738,0.26875 -0.11125,0.83 -0.11125,1.68625 l 0,1.55375 z" />
    <path
       inkscape:connector-curvature="0"
       id="path110"
       style="fill:#ffffff;fill-opacity:1;fill-rule:nonzero;stroke:none"
       d="m 323.84964,307.94543 1.41625,0 1.2025,3.57125 1.175,-3.57125 1.37875,0 -1.77625,4.84125 -0.3175,0.87625 c -0.11625,0.29375 -0.22875,0.5175 -0.33375,0.6725 -0.10625,0.155 -0.2275,0.28 -0.365,0.37625 -0.1375,0.0962 -0.30625,0.17125 -0.5075,0.225 -0.2,0.0537 -0.42625,0.0812 -0.67875,0.0812 -0.25625,0 -0.5075,-0.0275 -0.75375,-0.0812 l -0.1175,-1.04125 c 0.2075,0.04 0.39625,0.0613 0.56375,0.0613 0.30875,0 0.53875,-0.0913 0.68625,-0.2725 0.14875,-0.18125 0.2625,-0.4125 0.34125,-0.69375 l -1.91375,-5.045 z" />
  </g>
</svg>
