<svg height="246.70961pt" viewBox="0 0 577.04175 246.70961" width="577.04175pt" xmlns="http://www.w3.org/2000/svg" xmlns:xlink="http://www.w3.org/1999/xlink"><clipPath id="a"><path d="m898.018 105.421h23.81v6.576h-23.81z"/></clipPath><g fill="#bead61" transform="translate(-10.958541 -26.385421)"><path d="m90.52 209.77c8.02-1.58 17.25.58 22.45 7.24 4.61 5.54 5.33 13.04 5.04 19.97-.35 8.4 1.28 17.44-2.83 25.2-7.08 14.09-30.4 14.64-38.28 1.06-3.8-6.06-3.57-13.43-3.46-20.3.19-7.17-.89-14.74 2.24-21.47 2.57-6.08 8.33-10.58 14.84-11.7m1.74 7.44c-4.2.88-7.72 4-9.39 7.92-2.27 4.99-1.39 10.6-1.55 15.9.06 6.48-.87 13.77 3.41 19.24 5.1 7.19 17.3 7.04 22.18-.32 4.01-5.48 2.98-12.57 3.09-18.93-.18-5.68.85-11.82-2.06-17.01-2.81-5.63-9.69-8.32-15.68-6.8z"/><path d="m128.38 219.39c7.25-12.96 28.32-13.54 36.82-1.63 1.07 1.48 1.86 3.14 2.73 4.75-2.48 1.15-4.96 2.28-7.44 3.41-2.99-8.58-14.59-11.66-21.65-6.2-5.32 3.95-6.27 11.06-5.91 17.23.43 7.43-1.44 15.67 2.86 22.31 4.1 6.81 14.43 8.13 20.38 3.05 2.05-1.62 3.27-3.97 4.39-6.27 2.47 1.2 4.95 2.41 7.42 3.62-5.22 15.42-28.62 17.99-38.16 5.48-4.46-5.69-5.01-13.22-4.77-20.17.3-8.55-1.28-17.86 3.33-25.58z"/><path d="m22.25 209.75c7.57.06 15.13-.12 22.69.08 6.93.23 14.13 3.25 17.9 9.29 4.17 6.46 3.54 14.5 3.67 21.85-.17 6.92.29 14.32-3.01 20.66-3.27 6.54-10.5 10.08-17.56 10.59-7.88.57-15.8.16-23.7.27.02-20.91 0-41.83.01-62.74m8 7.31v48.06c8.137582 0 17.080104.61953 23.34-3.5 6.23-5.74 4.79-14.99 4.98-22.6.14-6.76-.07-15.1-6.25-19.36-4.80743-2.93162-14.347956-2.6-22.07-2.6z"/><path d="m174.75 209.75h7.87c.02 12.73 0 25.46.01 38.19-.07 4.44.88 9.1 3.78 12.6 5.22 6.59 16.83 6.53 21.83-.3 2.61-3.51 3.15-8.03 3.13-12.29.01-12.73-.01-25.47.01-38.2 2.64 0 5.29 0 7.93.01 0 13.41.02 26.82-.01 40.24.02 6.57-2.16 13.51-7.27 17.9-6.74 5.77-16.86 6.47-24.89 3.21-7.88-3.26-12.22-11.88-12.32-20.11-.16-13.75-.03-27.5-.07-41.25z"/><path d="m229.57 209.75c2.65 0 5.3 0 7.95-.01 6.61 14.66 13.38 29.24 19.52 44.1 6.22-14.79 12.85-29.39 19.31-44.08 2.61-.01 5.22-.02 7.83-.01.01 20.92.01 41.83 0 62.75-2.66 0-5.33 0-7.99 0-.02-14.96.02-29.92-.02-44.88-4.77 12.08-10.39 23.78-15.82 35.57-2.34 0-4.68-.01-7.01-.02-5.36-11.82-10.79-23.61-15.81-35.58-.08 14.97 0 29.94-.03 44.91-2.65 0-5.29 0-7.93 0-.01-20.92-.01-41.83 0-62.75z"/><path d="m296.75 209.75h39.62v7.31c-10.54.01-21.08-.01-31.62 0 0 6.75 0 13.5.01 20.25 8.97.01 17.95 0 26.93 0 0 2.33 0 4.67-.01 7-8.98.01-17.95-.01-26.93.01 0 6.93 0 13.86.01 20.8 10.53.01 21.07 0 31.61.01v7.37c-13.2 0-26.41 0-39.62 0 0-20.92 0-41.83 0-62.75z"/><path d="m345.56 210.01c2.68-.04 5.35-.03 8.03.08 10.36 16.44 21.21 32.58 31.15 49.29.03-16.46 0-32.92.01-49.38h7.88c-.01 20.92 0 41.83-.01 62.75-2.57-.01-5.14 0-7.71.04-10.58-16.32-21.38-32.51-31.33-49.23-.05 16.39 0 32.79-.02 49.19-2.67 0-5.33 0-8 0 0-20.92 0-41.83 0-62.74z"/><path d="m397.31 216.75c0-2.34 0-4.67.01-7 14.52 0 29.04-.01 43.56 0-.01 2.33-.01 4.67-.01 7-5.94 0-11.87 0-17.81 0-.01 18.58.01 37.16 0 55.75-2.67 0-5.34 0-8 0-.01-18.58.01-37.16 0-55.74-5.92-.01-11.83 0-17.75-.01z"/><path d="m435.91 272.5c7.62-20.92 15.28-41.83 22.92-62.75h6.89c7.66 20.91 15.3 41.83 22.94 62.75-2.82 0-5.63 0-8.45-.01-1.67-4.81-3.35-9.62-5.03-14.43-8.64 0-17.27-.01-25.9.01-1.67 4.81-3.35 9.62-5.04 14.42-2.78.01-5.56.01-8.33.01m15.64-21.32c7.12.01 14.25 0 21.37 0-3.55-10.36-7.08-20.73-10.68-31.08-3.55 10.37-7.1 20.73-10.69 31.08z"/><path d="m495.94 209.75c8.68.01 17.36-.03 26.05.02 5 .04 10.09 2.01 13.44 5.81 5.44 6.03 5.52 16.04.37 22.28-2.44 3.09-6 4.99-9.64 6.32 4.21 9.44 8.44 18.87 12.64 28.32-2.97 0-5.93 0-8.88 0-4-9.18-7.96-18.38-11.96-27.56-4.68 0-9.35 0-14.02 0-.01 9.19.01 18.37 0 27.56-2.67 0-5.34 0-8 0 0-20.92-.01-41.83 0-62.75m8.01 7.01c-.02 7.05-.01 14.11-.01 21.18 6.32-.18 12.69.39 18.98-.34 5.39-.81 9.29-6.13 8.67-11.51.09-4.76-3.93-8.72-8.56-9.1-6.34-.53-12.73-.1-19.08-.23z"/><path d="m542.01 209.75c2.8 0 5.61 0 8.42-.01 4.92 9.68 9.8 19.38 14.26 29.28 4.51-9.87 9.36-19.58 14.25-29.27 2.75 0 5.5 0 8.26.01-6.16 12.61-12.59 25.1-18.64 37.76-.32 8.31-.02 16.65-.13 24.98-2.54 0-5.08 0-7.62-.01.01-7.5-.01-15.01.02-22.51.02-1.34-.06-2.72-.76-3.89-6.06-12.09-12.04-24.22-18.06-36.34z"/></g><g clip-path="url(#a)" fill="#bead61" transform="matrix(24.568455 0 0 -24.568455 -22066.888 2747.6181)"><g transform="translate(920.2828 111.7602)"><path d="m0 0v-3.782l-3.159 3.711c-.039.045-.095.071-.155.071h-1.092v-6.103h1.381v3.845l3.18-3.774c.038-.045.094-.071.152-.071h1.077v6.103z" fill="#bead61"/></g><g transform="translate(902.4497 106.9855)"><path d="m0 0c-.268-.086-.554-.13-.85-.13-.383 0-.731.079-1.035.235-.298.153-.533.373-.697.653-.165.282-.248.606-.248.963 0 .349.084.671.25.955.166.283.401.506.7.662.304.158.65.238 1.03.238.307 0 .606-.044.889-.13.183-.057.371-.134.579-.236.013-.007.009-.005.023-.012l.565 1.1-.084.042c-.368.184-.716.316-1.036.393s-.652.116-.985.116c-.633 0-1.212-.132-1.719-.394-.512-.263-.92-.644-1.212-1.131s-.44-1.043-.44-1.653c0-.57.144-1.103.427-1.583.285-.48.681-.854 1.178-1.109.492-.254 1.057-.382 1.68-.382.425 0 .803.044 1.124.13.319.085.673.23 1.052.431l.067.036-.423 1.175c-.327-.171-.609-.297-.835-.369" fill="#bead61"/></g><g transform="translate(909.5425 108.7562)"><path d="m0 0-.926-.001v.001h-.326v-.225-1.45c-.214-.103-.412-.158-.538-.183-.148-.028-.307-.042-.472-.042-.592 0-1.073.168-1.43.501-.359.334-.533.764-.533 1.316 0 .361.083.692.247.984.163.289.395.514.691.668.301.157.652.236 1.042.236.529 0 1.072-.12 1.62-.354l.563 1.1-.081.037c-.707.325-1.431.491-2.151.491-.628 0-1.206-.134-1.719-.399-.517-.266-.926-.645-1.216-1.127-.289-.481-.436-1.026-.436-1.619 0-.585.145-1.123.432-1.599s.692-.851 1.203-1.114c.508-.262 1.081-.395 1.703-.395.437 0 .863.059 1.267.174.408.116.763.281 1.056.489l.064.046v2.404c0 .034-.027.061-.06.061" fill="#bead61"/></g><g transform="translate(914.8377 111.7602)"><path d="m0 0h-4.921v-1.182h1.987v-4.921h1.426v4.921h1.946v.792.329.061h-.061z" fill="#bead61"/></g></g></svg>