<svg width="1464pt" height="1e3pt" version="1.1" viewBox="0 0 1464 1e3" xmlns="http://www.w3.org/2000/svg">
 <g fill="#ff5200">
  <path d="m487.38 0h24.8c31.93 1.24 63.81 4.87 94.99 11.94 40.01 8.92 78.9 22.84 115.49 41.3 4.52 2.27 9.32 4.45 12.61 8.45 6.85 7.76 7.86 20.03 2.12 28.7-43.54 67.1-87.13 134.18-130.69 201.28-2.27 3.59-4.58 7.37-8.26 9.7-5.93 4.06-13.91 4.46-20.36 1.41-50.93-20.97-110.07-20.89-160.96 0.16-8.86 4.25-20.43 1-25.64-7.36-44.5-68.52-89.02-137.02-133.47-205.56-7.12-11.01-2.94-27.27 8.6-33.47 67.86-35.7 144.14-54.96 220.77-56.55z"/>
  <path d="m185.49 109.45c4.07-3.37 9.21-5.4 14.5-5.58 8.35-0.45 16.73 3.82 21.24 10.87 44.33 68.27 88.67 136.54 133 204.81 4.05 6.06 4.53 14.32 1.06 20.76-1.6 3.21-4.32 5.61-6.85 8.08-31.13 30.44-52.46 70.72-60.13 113.58-1.42 9.62-10.65 17.12-20.33 16.79-81.35-0.01-162.71 0-244.06-0.01-12.1 0.27-23.06-9.95-23.92-21.98v-4.41c5.45-56.84 20.56-112.76 44.86-164.45 32.39-69.22 80.97-130.74 140.63-178.46z"/>
  <path d="m15.9 522.64c4.82-1.85 10.05-1.34 15.1-1.39 76.99 0 153.99 0 230.99-0.01 4.25 0.07 8.64-0.41 12.74 1.03 6.98 2.27 12.5 8.56 13.6 15.85 7.84 43.76 29.94 84.79 62.13 115.45 8.08 6.71 9.48 19.53 3.14 27.88-44.15 67.91-88.23 135.86-132.36 203.79-4.52 7.07-12.93 11.36-21.3 10.89-5.52-0.18-10.83-2.45-15-6.01-43.85-35.23-81.74-77.84-111.53-125.56-40.9-65.3-66.17-140.23-73.41-216.94v-4.38c0.76-9.19 7.19-17.57 15.9-20.6z"/>
  <path d="m391.48 704.42c4.49-7.1 13.65-10.75 21.79-8.67 3.73 1.04 7.21 2.77 10.87 4.04 49.5 18.41 105.88 17.4 154.66-2.86 8.92-4.13 20.42-0.68 25.52 7.74 42.65 65.68 85.3 131.36 127.96 197.04 3.17 5.19 7.41 10.05 8.43 16.25 2.06 9.97-3.05 20.91-12.05 25.69-67.95 35.63-144.28 54.88-220.96 56.35h-20.32c-76.63-1.59-152.92-20.85-220.78-56.56-7.85-4.36-12.7-13.45-12.04-22.4 0.11-5.43 2.72-10.35 5.77-14.69 43.74-67.3 87.41-134.63 131.15-201.93z"/>
 </g>
 <g fill="#fff">
  <path d="m562.26 389.73c12.72-0.09 25.45-0.02 38.18-0.04-0.04 22.74 0.02 45.48-0.03 68.22 4.87-7 12.34-12.04 20.62-14.05 14.3-3.6 30.91-1.33 42.02 8.97 9.29 8.28 13.55 20.97 13.57 33.18 0.08 26.3-0.01 52.59 0.04 78.89-12.75 0-25.5 0.01-38.25-0.01 0.01-21.97 0.01-43.94 0-65.91-0.04-6.79-2.36-14.27-8.37-18.08-7.63-4.65-18.84-3.53-24.63 3.57-3.63 4.27-4.89 10.04-4.98 15.53 0 21.63-0.01 43.27 0 64.9h-38.15c-0.01-58.39 0.04-116.78-0.02-175.17z"/>
  <path d="m834.71 389.78c12.74 0 25.48-0.01 38.21 0.01-0.04 58.37 0 116.74-0.01 175.12-12.73-0.01-25.46-0.01-38.19-0.01 0-58.37 0.01-116.74-0.01-175.12z"/>
  <path d="m893.29 389.79c12.71-0.02 25.42-0.01 38.14 0-0.04 58.37-0.01 116.74-0.02 175.11h-38.11c0-58.37 0.02-116.74-0.01-175.11z"/>
  <path d="m728.84 444.8c11.1-3.52 23.55-3.54 34.35 1.03 6.29 2.64 11.65 7.13 15.89 12.43-0.02-4.23 0-8.46-0.02-12.7 12.31-0.01 24.61-0.01 36.92 0.01-0.03 39.78 0 79.55-0.01 119.34-12.3-0.01-24.6-0.01-36.9-0.01 0-4.24-0.01-8.49 0.01-12.72-5.26 6.85-12.73 12.02-21.11 14.22-15.14 4.03-32.07 0.77-44.5-8.81-12.53-9.44-20.36-24.16-22.99-39.46-2.66-15.72-0.59-32.46 7.06-46.55 6.6-12.4 17.8-22.54 31.3-26.78m23.12 33.14c-8.56 0.49-16.57 5.82-20.26 13.57-5.24 10.85-3.91 25.22 4.73 33.98 9.02 9.13 25.22 9.31 34.55 0.55 10.03-9.43 11.08-26.28 3.58-37.53-4.84-7.36-13.92-11.29-22.6-10.57z"/>
  <path d="m473.51 446.62c14.86-5.35 31.61-5.93 46.63-0.85 12.03 4.07 22.29 12.39 29.59 22.69-9.95 6.99-19.94 13.94-29.93 20.89-4.1-5.38-9.86-9.86-16.68-10.98-7.85-1.63-16.59 0.66-22.19 6.51-6.47 6.45-8.48 16.23-7.3 25.06 0.84 7.1 4.32 14.09 10.25 18.27 7.21 5.17 17.19 5.49 25.1 1.77 4.42-1.99 7.99-5.41 11.08-9.07 9.88 7.19 20.09 13.97 29.74 21.45-8.08 10.99-19.5 19.7-32.78 23.27-15.96 4.29-33.5 2.96-48.53-3.98-14.09-6.54-25.3-18.91-30.37-33.6-5.98-17.31-5.04-37.16 3.39-53.51 6.63-12.94 18.38-22.97 32-27.92z"/>
  <path d="m987.05 444.91c14.72-4.16 30.99-3.51 45.03 2.74 12.25 5.44 22.15 15.68 27.59 27.89 5.87 12.88 6.97 27.42 5.46 41.35-26.91 0.14-53.83 0.07-80.74-0.01 1.25 8.25 7.54 15.56 15.64 17.79 12.46 3.72 26.18-0.65 35.68-9.14 8.21 7.61 16.32 15.32 24.61 22.85-10.36 10.61-24.68 16.71-39.23 18.75-17.46 2.54-36.41 0.31-51.23-9.87-12.67-8.48-21.07-22.46-23.76-37.34-3.03-17.09-0.8-35.59 8.42-50.52 7.26-11.87 19.14-20.75 32.53-24.49m8.16 32.29c-5.99 3.06-9.32 9.42-10.93 15.7 14.44-0.01 28.88 0.01 43.32-0.01-1.56-5.77-4.45-11.57-9.63-14.89-6.72-4.26-15.72-4.3-22.76-0.8z"/>
  <path d="m1137 444.14c13.52-3.67 29.09-2.18 40.46 6.49 9.52 7.12 14.94 18.72 15.91 30.41 0.51 6.64 0.26 13.3 0.32 19.96 0.01 21.3-0.01 42.6 0.01 63.9-12.76 0-25.51 0.01-38.26 0 0.01-21.97 0.01-43.94 0-65.91-0.11-6.33-1.99-13.22-7.21-17.26-8.11-6.09-21.44-4.44-27.01 4.34-3.71 5.55-4 12.47-3.79 18.93 0.01 19.97 0 39.94 0.01 59.9h-38.22c0-39.78 0.01-79.56-0.01-119.34 12.23 0 24.47-0.02 36.7 0.01-0.03 4.89 0.01 9.78-0.03 14.68 4.68-7.8 12.32-13.75 21.12-16.11z"/>
  <path d="m1232 451.01c12.05-7.99 27.48-10.69 41.52-7.29 8.45 2.06 15.97 7.22 21.23 14.1-0.04-4.09-0.02-8.17-0.03-12.26 12.31-0.01 24.61 0 36.91 0 0.02 30.47 0.01 60.95 0.01 91.42-0.21 11.35 0.86 22.87-1.88 34.01-3.23 14.84-12.57 28.41-25.87 35.95-16 9.31-35.38 10.31-53.33 7.84-13.47-1.88-26.77-6.24-38.07-13.93 4.32-10.24 9.04-20.32 13.48-30.51 8.28 5.85 17.84 9.98 27.9 11.43 8.78 1.29 18.23 1.36 26.32-2.77 6.68-3.2 11.78-9.52 13.31-16.79 1.07-4.71 0.7-9.56 0.8-14.33-7.29 9.59-19.26 14.93-31.21 14.92-15.98 0.71-32.04-6.31-42.32-18.56-13.51-15.74-17.49-38.25-12.65-58.14 3.34-14.06 11.72-27.09 23.88-35.09m32.62 26.78c-3.24 0.73-6.34 2.04-9.03 3.97-11.99 8.53-13.38 27.62-3.69 38.39 8.12 9.19 23.38 10.61 33.17 3.3 12.74-9.54 12.96-31.26 0.57-41.18-5.8-4.75-13.82-5.97-21.02-4.48z"/>
  <path d="m1360.9 458.86c16.24-16.11 41.84-20.24 63.23-13.49 15.77 4.89 28.71 17.43 34.6 32.79 2.92 6.84 3.8 14.26 5.28 21.48v11.94c-0.26 1.79-0.63 3.55-0.94 5.33-26.99 0.15-53.98-0.05-80.98 0.03 1.28 4.76 3.42 9.47 7.16 12.83 4.49 4.2 10.72 5.98 16.76 6.19 10.16 0.46 20.09-3.79 27.66-10.42 8.19 7.61 16.32 15.29 24.59 22.83-12.25 12.59-29.9 18.69-47.17 19.55-17.13 1.14-35.28-3.09-48.4-14.61-12.53-10.7-19.11-27.08-19.83-43.32-1.02-18.46 4.52-38.02 18.04-51.13m31.63 18.7c-5.64 3.15-8.66 9.28-10.34 15.27 14.45 0.15 28.91 0.05 43.37 0.05-1.6-5.94-4.66-11.88-10.06-15.15-6.9-4.09-16-4-22.97-0.17z"/>
 </g>
</svg>
