<?xml version="1.0" encoding="UTF-8"?>
<!-- Created with Inkscape (http://www.inkscape.org/) -->
<svg id="svg2" width="200" height="85.94" version="1.0" xmlns="http://www.w3.org/2000/svg" xmlns:cc="http://creativecommons.org/ns#" xmlns:dc="http://purl.org/dc/elements/1.1/" xmlns:rdf="http://www.w3.org/1999/02/22-rdf-syntax-ns#">
 <metadata id="metadata7">
  <rdf:RDF>
   <cc:Work rdf:about="">
    <dc:format>image/svg+xml</dc:format>
    <dc:type rdf:resource="http://purl.org/dc/dcmitype/StillImage"/>
    <dc:title/>
   </cc:Work>
  </rdf:RDF>
 </metadata>
 <path id="path28809" d="m0.49883 0.49773h199.09v84.945h-199.09v-84.945z" fill="#FFF"/>
 <g id="layer1" transform="matrix(.99547 0 0 .99547 71.265 -974.63)">
  <path id="path28811" d="m54.108 1014.6c-0.97828 1.514-4.5537 7.4186-5.5436 14.278-1.0831 7.4769-1.0482 21.604 0.87346 28.126 6.8363-5.6717 11.192-14.138 11.192-23.607 0-7.0808-2.4457-13.591-6.5219-18.797zm-24.725 13.894s12.077 1.2694 23.595-15.256c-0.67548-0.7803-1.3975-1.514-2.1545-2.2244-1.5024 2.1079-3.9714 4.3207-7.2789 6.8013-8.3503 6.254-15.664 5.3223-18.564 0.3378-2.667-4.5653 0.1514-11.25 6.2889-15.606-0.74536-0.047-1.4907-0.082-2.2477-0.082-17.458 0-31.619 13.847-31.619 30.932s14.162 30.932 31.619 30.932c1.2927 0 2.5738-0.082 3.8316-0.2329 0.02329-0.559-0.13975-1.3976-1.0365-2.1429 0 0-0.89676-0.3843-1.9216-0.7687 0 0 2.83-1.0365 4.5071-3.4822 1.5489-2.271 3.3425-9.5149 3.0862-16.468 0 0-0.38432-6.0444-1.9333-7.5933-1.5489-1.5489-1.8052-2.4457-5.9163-3.4706l-0.7803-0.7803 0.52408-0.8967" fill="#F00"/>
  <path id="path28813" d="m-71.089 979.57v85.332h1.5489c7.3604-7.6515 49.671-49.17 107.31-55.413 0 0 38.863-4.6002 91.05 12.916v-42.83h-199.91zm199.91 85.332v-24.515c-9.1656 5.6484-22.722 13.638-42.357 24.515h42.357" fill="#01911b" stroke="#01911b"/>
  <path id="path28815" d="m92.086 992.73h9.7595v-3.5055h-9.5499v-3.2027h11.739v-3.5055h-18.378v17.434h18.68v-3.5055h-12.252v-3.7151zm27.24 3.0397v-13.253h-7.4769v17.434h16.968v-4.181h-9.4916zm-49.694-3.6103-8.4668-9.643h-7.8029v17.434h6.2191l-0.31445-10.26 9.4567 10.26h7.1624v-17.434h-6.254v9.643zm-71.741-0.58231 3.5637-5.4621 2.7369 5.4621h-6.3006zm-0.92005-9.0607-10.959 17.434h7.6515l2.7485-5.0079h8.8278l2.3176 5.0079h7.9893l-10.33-17.434h-8.2455zm-23.164 6.3938h-9.8527v-6.3938h-6.5801v17.434h6.5801v-6.813h9.8527v6.813h6.5801v-17.434h-6.5801v6.3938zm-26.39 6.8596c-1.0714 0.20963-2.2128 0.31444-3.4123 0.31444-1.4907 0-2.83-0.22127-4.0179-0.64054-1.1763-0.43091-2.108-1.0132-2.7718-1.7469-0.66383-0.72206-1.0016-1.5256-1.0016-2.3991 0-0.98993 0.38432-1.8634 1.1413-2.5971 0.76865-0.74536 1.7702-1.316 3.0164-1.712 1.2578-0.39597 2.5971-0.6056 4.0412-0.6056 1.6188 0 2.7252-0.0117 4.903 0.76865v-4.3091c-3.6686-0.51244-4.5886-0.60561-6.6034-0.52408-1.875 0.0699-3.6686 0.17469-5.3689 0.52408-1.7003 0.36103-3.2143 0.9084-4.542 1.6538-1.3393 0.74535-2.3758 1.677-3.1095 2.8067-0.33774 0.50078-0.59396 1.0598-0.7803 1.6421v4.4954c0.1514 0.47749 0.34939 0.94334 0.6056 1.3859 0.62889 1.0831 1.5722 2.0381 2.83 2.8533 1.2694 0.81523 2.7485 1.4325 4.4605 1.8517 1.712 0.41927 3.6453 0.61726 5.7998 0.61726 1.1646 0 2.1662 0.035 3.3192-0.058 1.1413-0.0932 2.4573-0.23296 3.5754-0.51247l-0.09317-4.2625c-0.83852 0.23293-0.92005 0.25622-1.9915 0.45421zm90.258-3.6103-8.4668-9.643h-7.7913v17.434h6.2074l-0.3028-10.26 9.4567 10.26h7.1508v-17.434h-6.254v9.643" fill="#FFF"/>
 </g>
</svg>
