<svg height="85.94" width="200" xmlns="http://www.w3.org/2000/svg"><path d="m .49883.49773h199.09v84.945h-199.09v-84.945z" fill="#fff"/><g transform="matrix(.99546516 0 0 .99546516 71.26545 -974.63007)"><path d="m54.108 1014.6c-.97828 1.514-4.5537 7.4186-5.5436 14.278-1.0831 7.4769-1.0482 21.604.87346 28.126 6.8363-5.6717 11.192-14.138 11.192-23.607 0-7.0808-2.4457-13.591-6.5219-18.797zm-24.725 13.894s12.077 1.2694 23.595-15.256c-.67548-.7803-1.3975-1.514-2.1545-2.2244-1.5024 2.1079-3.9714 4.3207-7.2789 6.8013-8.3503 6.254-15.664 5.3223-18.564.3378-2.667-4.5653.1514-11.25 6.2889-15.606-.74536-.047-1.4907-.082-2.2477-.082-17.458 0-31.619 13.847-31.619 30.932s14.162 30.932 31.619 30.932c1.2927 0 2.5738-.082 3.8316-.2329.02329-.559-.13975-1.3976-1.0365-2.1429 0 0-.89676-.3843-1.9216-.7687 0 0 2.83-1.0365 4.5071-3.4822 1.5489-2.271 3.3425-9.5149 3.0862-16.468 0 0-.38432-6.0444-1.9333-7.5933-1.5489-1.5489-1.8052-2.4457-5.9163-3.4706l-.7803-.7803.52408-.8967" fill="#f00"/><path d="m-71.089 979.57v85.332h1.5489c7.3604-7.6515 49.671-49.17 107.31-55.413 0 0 38.863-4.6002 91.05 12.916v-42.83h-199.91zm199.91 85.332v-24.515c-9.1656 5.6484-22.722 13.638-42.357 24.515z" fill="#01911b" stroke="#01911b"/><path d="m92.086 992.73h9.7595v-3.5055h-9.5499v-3.2027h11.739v-3.5055h-18.378v17.434h18.68v-3.5055h-12.252v-3.7151zm27.24 3.0397v-13.253h-7.4769v17.434h16.968v-4.181h-9.4916zm-49.694-3.6103-8.4668-9.643h-7.8029v17.434h6.2191l-.31445-10.26 9.4567 10.26h7.1624v-17.434h-6.254v9.643zm-71.741-.58231 3.5637-5.4621 2.7369 5.4621zm-.92005-9.0607-10.959 17.434h7.6515l2.7485-5.0079h8.8278l2.3176 5.0079h7.9893l-10.33-17.434h-8.2455zm-23.164 6.3938h-9.8527v-6.3938h-6.5801v17.434h6.5801v-6.813h9.8527v6.813h6.5801v-17.434h-6.5801zm-26.39 6.8596c-1.0714.20963-2.2128.31444-3.4123.31444-1.4907 0-2.83-.22127-4.0179-.64054-1.1763-.43091-2.108-1.0132-2.7718-1.7469-.66383-.72206-1.0016-1.5256-1.0016-2.3991 0-.98993.38432-1.8634 1.1413-2.5971.76865-.74536 1.7702-1.316 3.0164-1.712 1.2578-.39597 2.5971-.6056 4.0412-.6056 1.6188 0 2.7252-.0117 4.903.76865v-4.3091c-3.6686-.51244-4.5886-.60561-6.6034-.52408-1.875.0699-3.6686.17469-5.3689.52408-1.7003.36103-3.2143.9084-4.542 1.6538-1.3393.74535-2.3758 1.677-3.1095 2.8067-.33774.50078-.59396 1.0598-.7803 1.6421v4.4954c.1514.47749.34939.94334.6056 1.3859.62889 1.0831 1.5722 2.0381 2.83 2.8533 1.2694.81523 2.7485 1.4325 4.4605 1.8517 1.712.41927 3.6453.61726 5.7998.61726 1.1646 0 2.1662.035 3.3192-.058 1.1413-.0932 2.4573-.23296 3.5754-.51247l-.09317-4.2625c-.83852.23293-.92005.25622-1.9915.45421zm90.258-3.6103-8.4668-9.643h-7.7913v17.434h6.2074l-.3028-10.26 9.4567 10.26h7.1508v-17.434h-6.254z" fill="#fff"/></g></svg>