<svg width="904.16" height="800" version="1.1" viewBox="0 0 904.16 800" xml:space="preserve" xmlns="http://www.w3.org/2000/svg" xmlns:xlink="http://www.w3.org/1999/xlink"><defs><clipPath id="clipPath2218-0"><path d="m784.29 250.06h28.834v25.512h-28.834z"/></clipPath><clipPath id="clipPath2226-1"><path d="m801.01 274.27h12.118v-6.509h-12.118z"/></clipPath><clipPath id="clipPath2230-4"><path d="m801.01 267.76h12.118v6.509h-12.118z"/></clipPath></defs><g transform="matrix(1.3333 0 0 -1.3333 -818.08 1394.2)"><g transform="matrix(23.518 0 0 23.518 892.13 1045.6)" fill="#fff"><path d="m0 0-0.307-0.379v-3.29l1.916 2.366zm-3.709-4.58v-9.098h2.071v11.655zm3.402-1.205v-16.324h2.071v18.882zm-10.769-7.893h2.665l3.37 4.162v3.291zm14.172-3.402h3.55v2.071h-3.55zm-14.941 0h10.207v2.071h-10.207zm8.136-8.432h2.071v7.101h-2.071zm3.402 0h5.178v2.071h-5.178zm-6.804 0h2.071v2.071h-2.071z" fill="#fff"/></g><g transform="matrix(23.518 0 0 23.518 -17832 -5435.3)"><g clip-path="url(#clipPath2218-0)"><g clip-path="url(#clipPath2226-1)" opacity=".60001"><g transform="translate(804.9 274.27)"><path d="m0 0v-2.535h-2.517v2.535h-1.374v-6.509h1.374v2.747h2.517v-2.747h1.373v6.509z" fill="#fff"/></g><g clip-path="url(#clipPath2230-4)"><g transform="translate(811.68 271.01)"><path d="m0 0c0 1.254-0.636 2.028-1.816 2.028h-0.867v-4.056h0.867c1.171 0 1.816 0.774 1.816 2.028m1.447 0c0-1.955-1.29-3.254-3.143-3.254h-2.36v6.508h2.36c1.853 0 3.143-1.299 3.143-3.254" fill="#fff"/></g></g></g></g></g></g></svg>
