<svg height="545.94312pt" viewBox="0 0 984.84399 545.94312" width="984.84399pt" xmlns="http://www.w3.org/2000/svg" xmlns:xlink="http://www.w3.org/1999/xlink"><linearGradient id="a" gradientUnits="userSpaceOnUse" x1="477.08185" x2="477.08185" y1="545.75745" y2=".042216"><stop offset="0" stop-color="#fff"/><stop offset="1" stop-color="#efeff0"/></linearGradient><path d="m77.433848.2c17.260002-.03 34.520002.1 51.780002-.2l313.28.3c14.3795.0138 28.68229.18413 43 1 12.53718.71441 25.51 2.28 36.73 8.41 10.97 5.47 19.93 14.519996 26.16 25.009996 4.43 7.47 6.52 15.98 8.84 24.26 1.11 4.52 5.77 7.24014 10.22 7.24l326.00999-.01c18.36-.42 37.57 2.81 53 13.35 22.91 14.55 37.37996 41.030004 38.37996 68.020004l.01 181.05c-.69 14.78-7.32996 28.62-15.88996 40.43-3.52 4.18-6.69 8.86-11.37 11.85-4.34 2.93-8.37 6.3-12.77 9.15-11.36 8.21-25.63 10.89-39.33 11.9l-202.02999-.98c-6.52.09-13.21-.61-19.54 1.27-3.85 1.07-5.65 4.98-7.75 8-15.51 24.3-20.76 56.15-9.43 83.19 2.62 6.79 7.72 12.07 12.42 17.45 4.26 6.29 7.83 13.89 6.59 21.68-1.44 8.3-10.22 13.67-18.24 13.36-10.94-1.28-21.19-5.66-31.17-10.1-32.61-15.14-57.92-42.72-75.79-73.42-11.05-17.9-18.97-37.52-25.67-57.4-.72-1.65-1.07-4.07-3.19-4.41-12.23-3.24-24.85-5.88-36.02-12.07-5.35-2.55-9.94-6.31-14.67-9.8-15.47 21.71-31.2 43.42-50.12 62.3-11.56 10.73-23.77 21.07-37.96 28.17-12.11 6.33-25.76 10.27-39.5 9.84-10.12-.07-19.76-11.62-15.08-21.4 2.53-6.99 8.12-12.3 10.82-19.21 6.24-15.94 11.03-32.63 12.22-49.78 1.58-9.87.35-19.88-1.55-29.61-1.29-5.84-3.24-11.89-7.62-16.18-3.57-3.56-8.99-3.69-13.71-3.89l-262.070402-.99c-13.83-1.01-27.64-4.6-39.7-11.58-11.41-7.32-21.44-16.86-28.9799996-28.14-4.28-8.57-7.15999999-18.03-7.66999999-27.63l-.02-180.030004c-.48-13.11 2.30999999-26.14 6.87999999-38.37 2.34-6 4.9599996-12.02 9.1499996-16.99 3.69-4.36 6.17-9.68 10.45-13.55 4.53-4.23 9.38-8.139996 14.63-11.439996 10.95-6.48 23.58-9.82 36.27-10.05" fill="url(#a)"/><path d="m77.434.200346c17.26-.03 34.52.1 51.78-.2l313.28.3c14.3795.01377 28.68229.18413 43 1 12.53718.714409 25.51 2.28 36.73 8.41 10.97 5.47 19.93 14.52 26.16 25.01 4.43 7.47 6.52 15.98 8.84 24.26 1.11 4.52 5.77 7.24014 10.22 7.24l326.01-.01c18.36-.42 37.57 2.81 53 13.35 22.91 14.55 37.38 41.030004 38.38 68.020004l.01 181.05c-.69 14.78-7.33 28.62-15.89 40.43-3.52 4.18-6.69 8.86-11.37 11.85-4.34 2.93-8.37 6.3-12.77 9.15-11.36 8.21-25.63 10.89-39.33 11.9l-202.03-.98c-6.52.09-13.21-.61-19.54 1.27-3.85 1.07-5.65 4.98-7.75 8-15.51 24.3-20.76 56.15-9.43 83.19 2.62 6.79 7.72 12.07 12.42 17.45 4.26 6.29 7.83 13.89 6.59 21.68-1.44 8.3-10.22 13.67-18.24 13.36-10.94-1.28-21.19-5.66-31.17-10.1-32.61-15.14-57.92-42.72-75.79-73.42-11.05-17.9-18.97-37.52-25.67-57.4-.72-1.65-1.07-4.07-3.19-4.41-12.23-3.24-24.85-5.88-36.02-12.07-5.35-2.55-9.94-6.31-14.67-9.8-15.47 21.71-31.2 43.42-50.12 62.3-11.56 10.73-23.77 21.07-37.96 28.17-12.11 6.33-25.76 10.27-39.5 9.84-10.12-.07-19.76-11.62-15.08-21.4 2.53-6.99 8.12-12.3 10.82-19.21 6.24-15.94 11.03-32.63 12.22-49.78 1.58-9.87.35-19.88-1.55-29.61-1.29-5.84-3.24-11.89-7.62-16.18-3.57-3.56-8.99-3.69-13.71-3.89l-262.07-.99c-13.83-1.01-27.64-4.6-39.7-11.58-11.41-7.32-21.44-16.86-28.9799996-28.14-4.28-8.57-7.15999999-18.03-7.66999999-27.63l-.02-180.030004c-.48-13.11 2.30999999-26.14 6.87999999-38.37 2.34-6 4.9599996-12.02 9.1499996-16.99 3.69-4.36 6.17-9.68 10.45-13.55 4.53-4.23 9.38-8.14 14.63-11.44 10.95-6.48 23.58-9.82 36.27-10.05m-10.62 9.82c-20.48 3.14-37.62 17.83-47.16 35.77-7.7 13.9-10.4799996 30.06-9.9699996 45.82l.08 179.980004c.3099996 11.52 4.5199996 22.88 11.9899996 31.68 11.09 13.01 27.23 20.98 43.83 24.26 8.51 1.75 17.24 1.21 25.87 1.29l256.04 1.1c3.11.07 6.7.14 8.95 2.65 4.98 5.43 8.6 12.07 10.92 19.04 4.13 13.52 4.41 27.93 2.78 41.89-2 18.08-6.77 35.91-14.47 52.4-2.69 5.77-8.12 10-9.73 16.3-1.26 4.06 2.29 8.52 6.47 8.53 12.14.63 24.26-2.66 35.11-7.98 13.65-6.57 25.58-16.17 36.5-26.58 19.3-18.73 35.18-40.58 50.34-62.7 1.85-2.43 3.48-5.44 6.45-6.64 3.01-1.02 4.5 2.46 6.11 4.31 2.93 4.41 7.26 7.65 11.95 10.03 11 5.61 23.05 8.82 35.17 10.93 2.15.53 4.74.83 6.13 2.79 1.4 2.2 1.94 4.81 2.71 7.29 3.88 13.62 9.58 26.62 15.6 39.41 13.41 26.91 31.11 52.36 55.11 70.87 13.08 10.38 28.31 17.85 44.17 22.93 4.99 1.46 10.41 2.64 15.55 1.22 3.35-.84 5.03-4.51 4.72-7.73-.56-6.04-3.86-11.55-8.3-15.57-6.02-5.41-10.08-12.6-12.86-20.13-5.49-13.59-6.38-28.56-4.81-43.01 2.48-19.25 10.82-37.32 21.87-53.13 1.29-1.66 2.6-3.66 4.8-4.14 4.48-1.06 9.13-.96 13.7-1.07l194.02.85c10.82-.01 21.79.76 32.46-1.56 17.31-3.21 33.01-13.52 43.23-27.81 7.46-10.81 13.35-23.38 13.97-36.69l-.84-183.89c-1.97-16.24-8.73-32.04-19.8-44.160004-13.48-14.56-33.17-23.14-53.02-23.02l-347.04.03c-3.91.32-6.7-3.4-6.67-7.03-.86-15.8-6.89-31.72-18.52-42.74-11.07-10.59-26.71-15.14-41.77-15.33l-407-1.06c-4.88-.01-9.8-.14-14.64.6z" fill="#c1d5e5"/><g fill="#0070ae" transform="translate(-19.546 -84.399654)"><path d="m139.22 191.21c6.60172-1.05296 13.23352-1.64687 20.05-.51 7.65176 1.27618 15.3174 2.52506 22.34 5.68 10.52736 4.72947 19.10484 11.0906 25.38 19.29l-16.24 15.13c-9.49-8.91-21.25619-17.11094-34.72-17.8-3.93496-.20139-7.94293-.51492-11.82.2-11.60424 2.76259-22.92894 8.90165-28.83 18.19-3.07849 5.02123-5.71837 10.47925-6.54 16.48-.63197 4.61553-1.38865 9.30473-.62 13.9 1.08326 6.47614 2.72726 12.95125 6.36 18.65 6.93608 10.88077 18.82133 18.37658 31.42 19.56 4.56989.42926 9.26056.62287 13.79-.17 5.83891-1.02209 11.62376-3.01604 16.62-6.39 5.04938-3.40984 9.67-7.38 14.3-11.29l15.73 16.98c-7.22 6.36-14.68082 12.58996-23.44 16.91-7.44872 3.67372-15.66347 4.90612-23.75 6.26-7.37991 1.23557-14.65049.35365-21.86-.67-10.83404-1.53828-21.32419-6.19298-29.62-13.35-3.22324-2.78078-6.50856-5.60008-9.03-9.03-8.962216-12.19135-15.725181-29.65433-14.74-43.23.596295-8.21687 1.669644-16.488 4.67-24.31 2.982268-7.77484 7.311415-15.04203 13.07-20.94 9.96919-10.21049 23.35183-17.2866 37.48-19.54z"/><path d="m222.99 192.97h24.04v48l42.96.01-.01-48.01h24.05l-.02 127.04-24.01.01-.01-56-42.96.01-.01 55.98h-24.02z"/><path d="m376.22 192.98h24.52l48.6 126.94-24.29.12-10.41-27.05h-51.59l-11.08 27.04-24.31-.11zm12.39 33.62-16.94 43.3 34.34.11z"/><path d="m450.97 192.97h70.06l-.01 23.06h-23l-.01 103.99h-24.01l-.01-104-23.01.01z"/><path d="m746.41 257.38c6.13-.83444 12.27356.0471 18.35.86 13.15802 1.76034 25.41198 8.58351 35 18 11.68403 11.47499 18.63701 27.27065 19.5 43.53.27068 5.09983.26985 10.27665-.48 15-1.68192 10.59457-5.85888 20.93922-12.76 29.25-5.2889 6.36924-11.29604 12.29644-18.41 16.58-6.93872 4.17805-14.65523 7.40934-22.72 8.28-4.65382.50242-9.21455 1.69113-13.92 1.15-9.29482-1.0689-18.82492-2.28971-27.31-6.68-5.59589-2.89539-10.66152-6.58271-15.68-10.32-3.49764-2.60471-5.94526-6.08512-8.7-9.35-6.98616-8.2799-10.59223-18.93273-12.35-29.64-2.07492-12.63916.0442-25.60623 4.76-37.34 2.90441-7.22671 7.28095-13.80545 12.59-19.41 10.88356-11.48932 26.25-18.57 42.13-19.91m-2.02 11.99c-12.80494 2.04937-24.64114 9.16104-32.98 19.04-16.35129 19.37122-17.21892 50.55384-.67 69.82 3.69119 4.29726 7.86277 8.212 12.63 11.4 6.53444 4.3698 13.99538 7.49708 21.72 8.3 6.29628.65445 12.75823.53889 19.02-.81 18.39176-3.96188 34.18089-17.971 40.04-35.98 6.22395-19.1304 1.82719-41.58659-12.37-55.92-8.73301-8.8168-20.43537-15.08405-32.79-16.2-4.84066-.43724-9.78481-.42065-14.6.35z"/><path d="m595.98 259.98c9.67.03 19.36723-.70015 29 .04 8.10665.62288 16.49015 1.85289 23.66 6.34 6.40897 4.01093 10.97406 10.69607 12.23 17.82 1.17461 6.66264.91792 14.04556-2.52 20.18-2.82216 5.0357-6.88718 9.58431-12.25 12.07-.27234.12623-.30312 1.03706-.05 1.18 4.99622 2.8214 10.80428 4.37511 15.15 8.18 7.0827 6.20124 11.13639 15.8027 10.86 25.2-.26422 8.98342-4.27831 17.72268-10.79 24.28-7.79734 7.85198-18.7 10.9-29.24 11.74-12.01.01-24.02 0-36.03-.01zm12.03 12.04c.02 13.65-.01 27.31 0 40.96 9.68-.27 19.94648 1.36535 28.98-2.99 7.47685-3.60483 12.17636-11.86121 11.99-19.92-.14484-6.26338-3.58572-13.25208-9.64-15.41-10.3422-3.68626-20.48555-2.64-31.33-2.64m0 52.99c-.01 16.66-.01 33.32 0 49.98 8.32-.05 16.66165.42947 24.98-.02 4.84273-.26167 9.66059-1.64262 14-3.98 8.60718-4.63617 13.35195-15.10634 11.66-24.62-1.88834-10.61797-11.5566-18.26469-21.74-20.29-9.52733-1.89483-19.27-.72-28.9-1.07z"/><path d="m833.79 259.99h14.77l30.42 49.55 31.21-49.56 14 .01-37.734 61.7532 39.974 65.1668-14.28.09-33.17-52.974-33.13 52.974-14.26-.1 40.12-65.14z"/></g></svg>