<?xml version="1.0" encoding="UTF-8" standalone="no"?>
<!-- Generator: Adobe Illustrator 16.0.0, SVG Export Plug-In . SVG Version: 6.00 Build 0)  -->

<svg
   xmlns:dc="http://purl.org/dc/elements/1.1/"
   xmlns:cc="http://creativecommons.org/ns#"
   xmlns:rdf="http://www.w3.org/1999/02/22-rdf-syntax-ns#"
   xmlns:svg="http://www.w3.org/2000/svg"
   xmlns="http://www.w3.org/2000/svg"
   xmlns:sodipodi="http://sodipodi.sourceforge.net/DTD/sodipodi-0.dtd"
   xmlns:inkscape="http://www.inkscape.org/namespaces/inkscape"
   version="1.1"
   id="Layer_1"
   x="0px"
   y="0px"
   width="287.034"
   height="48.336819"
   viewBox="0 0 287.034 48.336819"
   enable-background="new 0 0 320 80"
   xml:space="preserve"
   inkscape:version="0.91 r13725"
   sodipodi:docname="Christmas 24 - Dark.svg"><metadata
     id="metadata77"><rdf:RDF><cc:Work
         rdf:about=""><dc:format>image/svg+xml</dc:format><dc:type
           rdf:resource="http://purl.org/dc/dcmitype/StillImage" /><dc:title>logo</dc:title></cc:Work></rdf:RDF></metadata><defs
     id="defs75" /><sodipodi:namedview
     pagecolor="#ffffff"
     bordercolor="#666666"
     borderopacity="1"
     objecttolerance="10"
     gridtolerance="10"
     guidetolerance="10"
     inkscape:pageopacity="0"
     inkscape:pageshadow="2"
     inkscape:window-width="1920"
     inkscape:window-height="1017"
     id="namedview73"
     showgrid="false"
     fit-margin-top="0"
     fit-margin-left="0"
     fit-margin-right="0"
     fit-margin-bottom="0"
     inkscape:zoom="3.6"
     inkscape:cx="95.575532"
     inkscape:cy="42.694209"
     inkscape:window-x="-8"
     inkscape:window-y="-8"
     inkscape:window-maximized="1"
     inkscape:current-layer="Layer_1" /><title
     id="title3">logo</title><desc
     id="desc5">Created with Sketch.</desc><path
     transform="translate(0,-0.112)"
     style="fill:#6d726f"
     d="m 150.984,8.049 -8.773,0 0,39.79 -8.502,0 0,-39.79 -8.705,0 0,-7.33 25.98,0 0,7.33"
     id="Fill-1" /><path
     style="fill:#6d726f"
     inkscape:connector-curvature="0"
     d="m 205.422,29.962 -2.584,-16.896 -0.203,0 -2.652,16.896 5.439,0 0,0 0,0 z m 1.361,6.799 -8.229,0 -1.632,10.971 -8.025,0 8.664,-47.119 10.76,0 8.664,47.119 -8.5,0 -1.702,-10.971 0,0 0,0 z"
     id="Fill-2" /><path
     transform="translate(0,-0.112)"
     style="fill:#6d726f"
     d="m 186.889,0.719 0,47.12 -8.491,0 0,-29.03 -5.57,29.03 -5.842,0 -5.57,-29.03 0,29.03 -8.491,0 0,-47.12 11.479,0 5.503,26.624 5.57,-26.624 11.412,0"
     id="Fill-3" /><path
     transform="translate(0,-0.112)"
     style="fill:#6d726f"
     d="m 96.612,47.839 0,-47.12 -8.491,0 0,47.12 z"
     id="Fill-4" /><path
     style="fill:#d52048"
     inkscape:connector-curvature="0"
     d="m 272.605,30.478 -8.123,0 0.432,-0.876 7.691,-15.454 0,16.33 0,0 0,0 z m 8.467,0 0,-29.871 -8.923,0 -13.923,28.299 0,7.899 14.379,0 0,10.921 8.467,0 0,-10.92 5.962,0 0,-6.328 -5.962,0 0,0 0,0 z"
     id="Fill-5" /><path
     style="fill:#6d726f"
     inkscape:connector-curvature="0"
     d="m 115.853,13.776 0,-1.933 c 0,-3.293 -1.79,-5.122 -3.84,-5.122 -2.187,0 -3.959,1.518 -3.959,3.668 0,2.017 0.543,3.59 2.525,5.809 l 8.542,9.612 c 3.416,3.831 5.278,6.43 5.278,12.009 0,6.789 -5.551,10.508 -12.385,10.508 -6.901,0 -12.504,-3.836 -12.504,-10.558 l 0,-4.907 8.545,0 0,4.35 c 0,2.891 1.773,4.327 3.959,4.327 2.119,0 3.84,-1.567 3.84,-4.323 0,-2.488 -1.038,-4.348 -2.814,-6.363 L 105.934,23.66 C 101.424,18.417 99.253,16.967 99.253,10.514 99.253,4.128 104.704,0 112.015,0 119.258,0 124.4,4.263 124.4,10.514 l 0,3.262 -8.547,0"
     id="Fill-6" /><path
     style="fill:#6d726f"
     inkscape:connector-curvature="0"
     d="m 66.264,7.695 3.488,0 c 1.32,0 2.389,0.144 3.177,0.429 0.752,0.273 1.345,0.694 1.76,1.251 0.425,0.572 0.71,1.276 0.846,2.093 0.143,0.861 0.216,1.877 0.216,3.019 0,1.143 -0.073,2.158 -0.216,3.019 -0.137,0.822 -0.399,1.519 -0.781,2.073 -0.369,0.535 -0.915,0.954 -1.622,1.246 -0.732,0.302 -1.745,0.455 -3.012,0.455 l -3.858,0 0,-13.585 0.002,0 0,0 z m 11.483,18.697 c 2.306,-1.188 3.956,-2.756 4.906,-4.667 0.985,-1.977 1.484,-4.368 1.484,-7.108 0,-9.293 -4.616,-14.006 -13.72,-14.006 l -12.539,0 0,47.12 8.385,0 0,-19.759 3.777,0 7.016,19.759 8.897,0 -8.206,-21.339 0,0 0,0 z"
     id="Fill-7" /><g
     id="Fill-8-Clipped"
     transform="translate(0,0.008819)"><g
       id="path-1_1_" /><defs
       id="defs23"><filter
         id="Adobe_OpacityMaskFilter"
         filterUnits="userSpaceOnUse"
         x="27.916"
         y="0.61000001"
         width="25.973"
         height="47.108002"><feColorMatrix
           type="matrix"
           values="1 0 0 0 0  0 1 0 0 0  0 0 1 0 0  0 0 0 1 0"
           id="feColorMatrix26" /></filter></defs><mask
       maskUnits="userSpaceOnUse"
       x="27.916"
       y="0.61"
       width="25.973"
       height="47.108"
       id="mask-2"><g
         id="g29"
         style="filter:url(#Adobe_OpacityMaskFilter)"><polygon
           id="path-1"
           points="53.889,48.321 0,48.321 0,24.16 0,0 53.889,0 "
           style="fill:#ffffff" /></g></mask><path
       style="fill:#6d726f"
       mask="url(#mask-2)"
       d="m 53.889,0.61 0,47.108 -8.499,0 0,-22.142 -8.975,0 0,22.142 -8.499,0 0,-47.108 8.499,0 0,18.305 8.975,0 0,-18.305 8.499,0"
       id="Fill-8" /></g><g
     id="Fill-10-Clipped"
     transform="translate(0,0.008819)"><g
       id="path-1_2_" /><defs
       id="defs35"><filter
         id="Adobe_OpacityMaskFilter_1_"
         filterUnits="userSpaceOnUse"
         x="0"
         y="0"
         width="24.997999"
         height="48.328999"><feColorMatrix
           type="matrix"
           values="1 0 0 0 0  0 1 0 0 0  0 0 1 0 0  0 0 0 1 0"
           id="feColorMatrix38" /></filter></defs><mask
       maskUnits="userSpaceOnUse"
       x="0"
       y="0"
       width="24.998"
       height="48.329"
       id="mask-4"><g
         id="g41"
         style="filter:url(#Adobe_OpacityMaskFilter_1_)"><polygon
           id="path-3"
           points="53.889,48.321 0,48.321 0,24.16 0,0 53.889,0 "
           style="fill:#ffffff" /></g></mask><path
       id="Fill-10"
       mask="url(#mask-4)"
       d="m 16.506,34.032 0,3.527 c 0,1.946 -1.358,4.038 -3.804,4.038 -2.989,0 -4.211,-2.109 -4.211,-4.038 l 0,-27.003 c 0,-1.925 1.223,-3.96 4.211,-3.96 2.446,0 3.804,2.027 3.804,3.971 l 0,3.726 8.491,0 0,-3.793 C 24.997,5.654 21.193,0 12.702,0 3.329,0 0,5.654 0,10.5 l 0,27.193 c 0,4.846 3.329,10.635 12.703,10.635 8.491,0 12.295,-5.789 12.295,-10.635 l 0,-3.662 -8.492,0"
       inkscape:connector-curvature="0"
       style="fill:#6d726f" /></g><path
     style="fill:#d52048"
     inkscape:connector-curvature="0"
     d="m 249.295,39.269 -7.391,0 0,-1.447 c 0,5.199 -3.258,8.599 -7.852,9.905 l 24.208,0 0,-8.458 -8.965,0"
     id="Fill-12" /><g
     id="Fill-13-Clipped"
     transform="translate(216.66985,-0.112)"><g
       id="path-3_1_" /><defs
       id="defs49"><filter
         id="Adobe_OpacityMaskFilter_2_"
         filterUnits="userSpaceOnUse"
         x="20.955"
         y="0.115"
         width="20.85"
         height="37.819"><feColorMatrix
           type="matrix"
           values="1 0 0 0 0  0 1 0 0 0  0 0 1 0 0  0 0 0 1 0"
           id="feColorMatrix52" /></filter></defs><mask
       maskUnits="userSpaceOnUse"
       x="20.955"
       y="0.115"
       width="20.85"
       height="37.819"
       id="mask-6"><g
         id="g55"
         style="filter:url(#Adobe_OpacityMaskFilter_2_)"><polygon
           id="path-5"
           points="0.088,0.114 0.088,48.441 41.805,48.441 41.805,0.114 "
           style="fill:#ffffff" /></g></mask><path
       id="Fill-13"
       mask="url(#mask-6)"
       d="m 25.234,10.628 0,1.327 c 0,-3.294 1.765,-5.117 3.815,-5.117 2.187,0 3.954,1.518 3.954,3.669 0,2.017 -0.547,3.591 -2.527,5.809 l -8.526,9.612 c -0.349,0.392 -0.681,0.769 -0.995,1.138 2.778,3.252 4.279,5.859 4.279,10.867 l 0,-0.605 c 0,-2.486 1.02,-4.342 2.797,-6.357 l 7.098,-7.193 c 4.51,-5.243 6.676,-6.698 6.676,-13.151 0,-6.386 -5.369,-10.512 -12.68,-10.512 -3.21,0 -6.018,0.838 -8.148,2.314 2.663,1.856 4.257,4.719 4.257,8.199"
       inkscape:connector-curvature="0"
       style="fill:#d52048" /></g><g
     id="Fill-15-Clipped"
     transform="translate(216.66985,-0.112)"><g
       id="path-3_2_" /><defs
       id="defs61"><filter
         id="Adobe_OpacityMaskFilter_3_"
         filterUnits="userSpaceOnUse"
         x="0.088"
         y="0.114"
         width="20.889"
         height="48.327"><feColorMatrix
           type="matrix"
           values="1 0 0 0 0  0 1 0 0 0  0 0 1 0 0  0 0 0 1 0"
           id="feColorMatrix64" /></filter></defs><mask
       maskUnits="userSpaceOnUse"
       x="0.088"
       y="0.114"
       width="20.889"
       height="48.327"
       id="mask-8"><g
         id="g67"
         style="filter:url(#Adobe_OpacityMaskFilter_3_)"><polygon
           id="path-7"
           points="0.088,0.114 0.088,48.441 41.805,48.441 41.805,0.114 "
           style="fill:#ffffff" /></g></mask><path
       id="Fill-15"
       mask="url(#mask-8)"
       d="m 16.69,37.932 c 0,-5.01 1.488,-7.611 4.266,-10.865 -0.317,-0.371 -0.649,-0.75 -1,-1.142 l -8.541,-9.612 c -1.98,-2.218 -2.523,-3.792 -2.523,-5.809 0,-2.151 1.771,-3.669 3.959,-3.669 2.05,0 3.84,1.828 3.84,5.122 l 0,-1.329 c 0,-3.48 1.609,-6.344 4.287,-8.199 -2.119,-1.477 -4.916,-2.315 -8.127,-2.315 -7.312,0 -12.762,4.128 -12.762,10.514 0,6.453 2.17,7.903 6.681,13.146 l 7.105,7.192 c 1.777,2.017 2.815,3.876 2.815,6.364 0,2.756 -1.722,4.322 -3.84,4.322 -2.188,0 -3.959,-1.436 -3.959,-4.326 l 0,-4.35 -8.545,0 0,4.907 c 0,6.722 5.603,10.558 12.504,10.558 1.6,0 3.129,-0.203 4.533,-0.603 l -0.693,0 0,-9.906"
       inkscape:connector-curvature="0"
       style="fill:#6d726f" /></g><path
     style="fill:#e77993"
     inkscape:connector-curvature="0"
     d="m 241.904,37.822 c 0,-5.008 -1.501,-7.615 -4.279,-10.867 -2.777,3.254 -4.266,5.855 -4.266,10.865 l 0,9.907 0.693,0 c 4.594,-1.307 7.852,-4.706 7.852,-9.905"
     id="Fill-17" /><path
     style="fill:#e77993"
     inkscape:connector-curvature="0"
     d="m 233.359,10.516 0,3.26 8.545,0 0,-3.26 c 0,-3.48 -1.595,-6.344 -4.258,-8.199 -2.677,1.855 -4.287,4.719 -4.287,8.199"
     id="Fill-18" /></svg>