<?xml version="1.0" encoding="UTF-8"?>
<!-- Created with Inkscape (http://www.inkscape.org/) -->
<svg id="svg75089" width="5.6903mm" height="5.6903mm" version="1.1" viewBox="0 0 20.163 20.162" xmlns="http://www.w3.org/2000/svg" xmlns:cc="http://creativecommons.org/ns#" xmlns:dc="http://purl.org/dc/elements/1.1/" xmlns:rdf="http://www.w3.org/1999/02/22-rdf-syntax-ns#">
 <defs id="defs75091">
  <clipPath id="clipPath67298">
   <path id="path67300" d="m0 0h2267.7v595.28h-2267.7v-595.28z"/>
  </clipPath>
 </defs>
 <metadata id="metadata75094">
  <rdf:RDF>
   <cc:Work rdf:about="">
    <dc:format>image/svg+xml</dc:format>
    <dc:type rdf:resource="http://purl.org/dc/dcmitype/StillImage"/>
    <dc:title/>
   </cc:Work>
  </rdf:RDF>
 </metadata>
 <g id="layer1" transform="translate(-172.78 -330.85)">
  <path id="path67292" d="m192.94 351.01h-20.162v-20.162h20.162v20.162z" fill="#cf202e"/>
  <g id="g67294" transform="matrix(1.25 0 0 -1.25 111.59 609.48)">
   <g id="g67296" clip-path="url(#clipPath67298)">
    <g id="g67302" transform="translate(51.521 214.84)">
     <path id="path67304" d="m0 0c0-1.061 0.863-1.925 1.925-1.925h1.816c0.101 0 0.183 0.1 0.183 0.182v3.564c0 0.236 0.192 0.428 0.428 0.428 0.151 0 0.292-0.08 0.368-0.21 9e-3 -0.015 0.559-0.963 1.141-1.967 0.556-0.959 1.131-1.951 1.141-1.967 0.025-0.044 0.075-0.072 0.128-0.072 0.082 0 0.149 0.067 0.149 0.15v3.638c0 0.236 0.192 0.428 0.428 0.428 0.152 0 0.293-0.08 0.369-0.21 9e-3 -0.015 0.558-0.964 1.14-1.967 0.555-0.959 1.13-1.95 1.14-1.967 0.025-0.044 0.075-0.072 0.128-0.072 0.082 0 0.149 0.067 0.149 0.15v4.716h-0.696v-2.807s-1.297 2.233-1.339 2.304c-0.189 0.324-0.549 0.529-0.931 0.529-0.598 0-1.084-0.486-1.084-1.085v-1.748s-1.297 2.233-1.339 2.304c-0.189 0.324-0.549 0.529-0.931 0.529-0.598 0-1.084-0.486-1.084-1.085v-2.873c0-0.104-0.078-0.195-0.193-0.196h-1.104c-0.678 0-1.228 0.55-1.228 1.229s0.55 1.229 1.228 1.229h0.925v0.696h-0.932c-1.062 0-1.925-0.864-1.925-1.925" fill="#fff"/>
    </g>
    <g id="g67306" transform="translate(62.432 217.74)">
     <path id="path67308" d="m0 0v-4.716c0-0.236-0.192-0.428-0.428-0.428-0.152 0-0.293 0.08-0.368 0.209-9e-3 0.016-0.559 0.964-1.141 1.968-0.555 0.958-1.13 1.95-1.14 1.966-0.025 0.044-0.075 0.072-0.127 0.072-0.083 0-0.15-0.067-0.15-0.15v-3.637c0-0.236-0.192-0.428-0.428-0.428-0.152 0-0.293 0.08-0.368 0.209-9e-3 0.016-0.559 0.964-1.142 1.968-0.556 0.959-1.131 1.95-1.14 1.966-0.026 0.044-0.076 0.072-0.128 0.072-0.083 0-0.15-0.067-0.15-0.15v-3.563c0-0.245-0.215-0.46-0.461-0.46h-1.816c-1.215 0-2.203 0.988-2.203 2.203s0.988 2.203 2.203 2.203h0.932v0.696h-0.931c-1.602 0-2.9-1.298-2.9-2.899s1.298-2.899 2.9-2.899h1.833c0.695-1e-3 1.142 0.406 1.141 1.157v1.654s1.306-2.249 1.339-2.305c0.19-0.324 0.549-0.528 0.931-0.528 0.599 0 1.084 0.485 1.084 1.084v1.749s1.297-2.233 1.339-2.305c0.19-0.324 0.549-0.528 0.931-0.528 0.599 0 1.084 0.485 1.084 1.084v4.736h-0.696z" fill="#fff"/>
    </g>
   </g>
  </g>
 </g>
</svg>
