<svg height="719pt" viewBox="0 0 1292 719" width="1292pt" xmlns="http://www.w3.org/2000/svg" xmlns:xlink="http://www.w3.org/1999/xlink"><clipPath id="a"><path d="m0 0h2267.717v595.276h-2267.717z"/></clipPath><g fill="#cf202e"><path d="m804.31 229.88h58v102.17l104.44.01v-102.18h58v262.99l-58 .01v-104.93l-.3-7.12-104.08-.04-.06 112.09-58-.01z" fill="#cf202e"/><path d="m1060.88 229.88c30.38-.01 60.76 0 91.15-.01 17.71-.08 35.56 1.2 52.77 5.61 17.17 4.34 33.75 11.86 47.35 23.33 13.63 11.32 23.95 26.4 30.14 42.96 6.48 16.8 8.98 34.84 9.71 52.74v10.25c-.34 19.61-3.04 39.43-10.31 57.75-6.48 16.67-17.21 31.73-31.24 42.88-14.58 11.75-32.3 19.08-50.49 23.08-17.68 3.97-35.88 4.66-53.94 4.41-28.38 0-56.76 0-85.14-.01zm58 48v166.99c8.04.01 16.08 0 24.13 0 14.04-.09 28.34.82 42.04-2.96 13.77-3.44 26.53-11.58 34.49-23.46 10.41-15.32 13.54-34.27 14.03-52.44.33-16.6-1.1-33.6-7.36-49.12-4.74-11.9-13.07-22.55-24.19-29.07-12.31-7.35-26.88-9.81-41.03-9.91-14.04-.07-28.07-.02-42.11-.03z" fill="#cf202e"/></g><path d="m719 719h-719v-719h719z" fill="#cf202e"/><g clip-path="url(#a)" transform="matrix(44.575325 0 0 -44.575326 -2181.873 9936.1072)"><g transform="translate(51.5207 214.8389)"><path d="m0 0c0-1.061.863-1.925 1.925-1.925h1.816c.101 0 .183.1.183.182v3.564c0 .236.192.428.428.428.151 0 .292-.08.368-.21.009-.015.559-.963 1.141-1.967.556-.959 1.131-1.951 1.141-1.967.025-.044.075-.072.128-.072.082 0 .149.067.149.15v3.638c0 .236.192.428.428.428.152 0 .293-.08.369-.21.009-.015.558-.964 1.14-1.967.555-.959 1.13-1.95 1.14-1.967.025-.044.075-.072.128-.072.082 0 .149.067.149.15v4.716h-.696v-2.807s-1.297 2.233-1.339 2.304c-.189.324-.549.529-.931.529-.598 0-1.084-.486-1.084-1.085v-1.748s-1.297 2.233-1.339 2.304c-.189.324-.549.529-.931.529-.598 0-1.084-.486-1.084-1.085v-2.873c0-.104-.078-.195-.193-.196h-1.104c-.678 0-1.228.55-1.228 1.229s.55 1.229 1.228 1.229h.925v.696h-.932c-1.062 0-1.925-.864-1.925-1.925" fill="#fff"/></g><g transform="translate(62.4325 217.7381)"><path d="m0 0v-4.716c0-.236-.192-.428-.428-.428-.152 0-.293.08-.368.209-.009.016-.559.964-1.141 1.968-.555.958-1.13 1.95-1.14 1.966-.025.044-.075.072-.127.072-.083 0-.15-.067-.15-.15v-3.637c0-.236-.192-.428-.428-.428-.152 0-.293.08-.368.209-.009.016-.559.964-1.142 1.968-.556.959-1.131 1.95-1.14 1.966-.026.044-.076.072-.128.072-.083 0-.15-.067-.15-.15v-3.563c0-.245-.215-.46-.461-.46h-1.816c-1.215 0-2.203.988-2.203 2.203s.988 2.203 2.203 2.203h.932v.696h-.931c-1.602 0-2.9-1.298-2.9-2.899s1.298-2.899 2.9-2.899h1.833c.695-.001 1.142.406 1.141 1.157v1.654s1.306-2.249 1.339-2.305c.19-.324.549-.528.931-.528.599 0 1.084.485 1.084 1.084v1.749s1.297-2.233 1.339-2.305c.19-.324.549-.528.931-.528.599 0 1.084.485 1.084 1.084v4.736z" fill="#fff"/></g></g></svg>