<?xml version="1.0" encoding="UTF-8" standalone="no"?>
<!-- Created with Inkscape (http://www.inkscape.org/) -->

<svg
   xmlns:dc="http://purl.org/dc/elements/1.1/"
   xmlns:cc="http://creativecommons.org/ns#"
   xmlns:rdf="http://www.w3.org/1999/02/22-rdf-syntax-ns#"
   xmlns:svg="http://www.w3.org/2000/svg"
   xmlns="http://www.w3.org/2000/svg"
   xmlns:xlink="http://www.w3.org/1999/xlink"
   xmlns:sodipodi="http://sodipodi.sourceforge.net/DTD/sodipodi-0.dtd"
   xmlns:inkscape="http://www.inkscape.org/namespaces/inkscape"
   width="24.14612mm"
   height="16.68441mm"
   viewBox="0 0 85.557115 59.117989"
   id="svg5102"
   version="1.1"
   inkscape:version="0.91 r13725"
   sodipodi:docname="Colors.svg">
  <defs
     id="defs5104">
    <clipPath
       clipPathUnits="userSpaceOnUse"
       id="clipPath424">
      <path
         d="m 274.855,377.635 c -1.159,0 -2.405,0.067 -3.744,0.207 -0.227,0.023 -0.457,0.049 -0.689,0.077 -0.004,0.034 -0.008,0.068 -0.012,0.103 -0.174,1.485 -0.261,2.86 -0.27,4.132 l 0,0.405 c 0.003,0.398 0.014,0.785 0.032,1.163 0.239,5.019 1.812,8.265 3.998,10.369 1.279,1.23 2.768,2.071 4.324,2.647 4.984,1.846 10.65,0.979 12.278,1.56 l 0.004,0 c -0.003,-0.006 -0.005,-0.011 -0.006,-0.017 -0.558,-1.609 0.253,-7.047 -1.421,-11.937 -0.576,-1.681 -1.444,-3.298 -2.762,-4.672 -2.149,-2.24 -5.495,-3.838 -10.714,-4.019 -0.332,-0.012 -0.671,-0.018 -1.018,-0.018 m 15.046,19.788 c -0.6,-0.057 -1.335,-0.071 -2.21,-0.088 -1.997,-0.04 -4.483,-0.089 -6.977,-0.67 -2.894,-0.675 -5.083,-1.901 -6.689,-3.748 -1.273,-1.464 -2.174,-3.344 -2.679,-5.59 -0.551,-2.45 -0.647,-5.399 -0.287,-8.772 1.334,-0.143 2.607,-0.215 3.795,-0.215 l 0.022,0 c 3.451,0.002 6.328,0.612 8.553,1.815 1.865,1.008 3.328,2.469 4.35,4.341 1.899,3.484 1.98,7.83 2.035,10.707 0.017,0.879 0.03,1.618 0.087,2.22"
         id="path426"
         inkscape:connector-curvature="0" />
    </clipPath>
    <clipPath
       clipPathUnits="userSpaceOnUse"
       id="clipPath430">
      <path
         d="m 257.031,395.824 30.185,17.449 17.087,-29.56 -30.184,-17.449 -17.088,29.56"
         id="path432"
         inkscape:connector-curvature="0" />
    </clipPath>
    <clipPath
       clipPathUnits="userSpaceOnUse"
       id="clipPath436">
      <path
         d="m -2434.7,-2297.9 5253.7,0 0,5253.7 -5253.7,0 0,-5253.7"
         id="path438"
         inkscape:connector-curvature="0" />
    </clipPath>
    <clipPath
       clipPathUnits="userSpaceOnUse"
       id="clipPath442">
      <path
         d="m 270.139,382.45 0,-0.17 c 0.004,-1.336 0.094,-2.786 0.283,-4.361 1.601,-0.193 3.078,-0.284 4.433,-0.284 l 0.021,0 c 18.912,0.01 14.797,17.595 15.9,20.664 -3.064,-1.1 -20.58,2.977 -20.637,-15.849 m 0.92,-3.895 c -0.36,3.373 -0.264,6.322 0.287,8.772 0.505,2.246 1.406,4.126 2.679,5.59 1.606,1.847 3.795,3.073 6.689,3.748 2.494,0.581 4.98,0.63 6.977,0.67 0.875,0.017 1.61,0.031 2.21,0.088 -0.057,-0.602 -0.07,-1.341 -0.087,-2.22 -0.055,-2.877 -0.136,-7.223 -2.035,-10.707 -1.022,-1.872 -2.485,-3.333 -4.35,-4.341 -2.225,-1.203 -5.102,-1.813 -8.553,-1.815 l -0.022,0 c -1.188,0 -2.461,0.072 -3.795,0.215"
         id="path444"
         inkscape:connector-curvature="0" />
    </clipPath>
    <clipPath
       clipPathUnits="userSpaceOnUse"
       id="clipPath448">
      <path
         d="m 270.14,377.635 20.636,0 0,20.663 -20.636,0 0,-20.663"
         id="path450"
         inkscape:connector-curvature="0" />
    </clipPath>
    <clipPath
       clipPathUnits="userSpaceOnUse"
       id="clipPath388">
      <path
         d="m 274.876,377.635 -0.021,0 c -1.158,0 -2.406,0.067 -3.744,0.207 1.339,-0.14 2.585,-0.207 3.744,-0.207 0.347,0 0.686,0.006 1.018,0.018 5.219,0.181 8.565,1.779 10.714,4.019 1.318,1.374 2.186,2.991 2.762,4.672 1.674,4.89 0.863,10.328 1.421,11.937 -1.081,-3.12 2.981,-20.636 -15.894,-20.646 m -4.466,0.387 c -0.171,1.45 -0.257,2.795 -0.27,4.041 l 0,0.091 c 0.009,-1.272 0.096,-2.647 0.27,-4.132 m -0.27,4.537 0,0.116 c 0.197,18.557 17.567,14.533 20.632,15.623 -1.628,-0.581 -7.294,0.286 -12.278,-1.56 -1.556,-0.576 -3.045,-1.417 -4.324,-2.647 -2.186,-2.104 -3.759,-5.35 -3.998,-10.369 -0.018,-0.378 -0.029,-0.765 -0.032,-1.163"
         id="path390"
         inkscape:connector-curvature="0" />
    </clipPath>
    <clipPath
       clipPathUnits="userSpaceOnUse"
       id="clipPath394">
      <path
         d="m 257.031,395.824 30.185,17.449 17.087,-29.56 -30.184,-17.449 -17.088,29.56"
         id="path396"
         inkscape:connector-curvature="0" />
    </clipPath>
    <clipPath
       clipPathUnits="userSpaceOnUse"
       id="clipPath400">
      <path
         d="m -2434.7,-2297.9 5253.7,0 0,5253.7 -5253.7,0 0,-5253.7"
         id="path402"
         inkscape:connector-curvature="0" />
    </clipPath>
    <clipPath
       clipPathUnits="userSpaceOnUse"
       id="clipPath406">
      <path
         d="m 270.139,382.45 0,-0.17 c 0.004,-1.336 0.094,-2.786 0.283,-4.361 1.601,-0.193 3.078,-0.284 4.433,-0.284 l 0.021,0 c 18.912,0.01 14.797,17.595 15.9,20.664 -3.064,-1.1 -20.58,2.977 -20.637,-15.849 m 0.92,-3.895 c -0.36,3.373 -0.264,6.322 0.287,8.772 0.505,2.246 1.406,4.126 2.679,5.59 1.606,1.847 3.795,3.073 6.689,3.748 2.494,0.581 4.98,0.63 6.977,0.67 0.875,0.017 1.61,0.031 2.21,0.088 -0.057,-0.602 -0.07,-1.341 -0.087,-2.22 -0.055,-2.877 -0.136,-7.223 -2.035,-10.707 -1.022,-1.872 -2.485,-3.333 -4.35,-4.341 -2.225,-1.203 -5.102,-1.813 -8.553,-1.815 l -0.022,0 c -1.188,0 -2.461,0.072 -3.795,0.215"
         id="path408"
         inkscape:connector-curvature="0" />
    </clipPath>
    <clipPath
       clipPathUnits="userSpaceOnUse"
       id="clipPath412">
      <path
         d="m 270.14,377.635 20.636,0 0,20.663 -20.636,0 0,-20.663"
         id="path414"
         inkscape:connector-curvature="0" />
    </clipPath>
    <clipPath
       clipPathUnits="userSpaceOnUse"
       id="clipPath160">
      <path
         d="m 271.111,377.842 c -0.227,0.023 -0.457,0.049 -0.689,0.077 0.232,-0.028 0.462,-0.054 0.689,-0.077 m -0.689,0.077 c -0.004,0.034 -0.008,0.068 -0.012,0.103 0.004,-0.035 0.008,-0.069 0.012,-0.103 m 4.454,0.421 -0.022,0 c -1.188,0 -2.461,0.072 -3.795,0.215 -0.36,3.373 -0.264,6.322 0.287,8.772 0.505,2.246 1.406,4.126 2.679,5.59 1.606,1.847 3.795,3.073 6.689,3.748 2.494,0.581 4.98,0.63 6.977,0.67 0.875,0.017 1.61,0.031 2.21,0.088 -0.057,-0.602 -0.07,-1.341 -0.087,-2.22 -0.055,-2.877 -0.136,-7.223 -2.035,-10.707 -1.022,-1.872 -2.485,-3.333 -4.35,-4.341 -2.225,-1.203 -5.102,-1.813 -8.553,-1.815 m -4.736,3.814 c -10e-4,0.136 -10e-4,0.271 0,0.405 l 0,-0.405 m 20.63,16.127 c 0.001,0.006 0.003,0.011 0.005,0.017 l -0.003,0 c 0.001,0 0.003,10e-4 0.004,10e-4 -0.002,-0.006 -0.004,-0.012 -0.006,-0.018"
         id="path162"
         inkscape:connector-curvature="0" />
    </clipPath>
    <clipPath
       clipPathUnits="userSpaceOnUse"
       id="clipPath166">
      <path
         d="m 278.494,396.738 c -1.556,-0.576 -3.045,-1.417 -4.324,-2.647 -2.186,-2.104 -3.759,-5.35 -3.998,-10.369 -0.083,-1.718 -0.008,-3.644 0.25,-5.803 2.013,-0.242 3.823,-0.323 5.451,-0.266 5.219,0.181 8.565,1.779 10.714,4.019 1.318,1.374 2.186,2.991 2.762,4.672 1.68,4.909 0.857,10.37 1.427,11.955 -1.622,-0.583 -7.294,0.286 -12.282,-1.561"
         id="path168"
         inkscape:connector-curvature="0" />
    </clipPath>
    <linearGradient
       inkscape:collect="always"
       id="linearGradient6294">
      <stop
         style="stop-color:#ee277c;stop-opacity:1"
         offset="0"
         id="stop6296" />
      <stop
         id="stop6302"
         offset="0.46666256"
         style="stop-color:#f16476;stop-opacity:1" />
      <stop
         style="stop-color:#f6a358;stop-opacity:1"
         offset="0.78909886"
         id="stop4385" />
      <stop
         id="stop4387"
         offset="0.91523647"
         style="stop-color:#fbc42b;stop-opacity:1" />
      <stop
         style="stop-color:#fbce13;stop-opacity:1"
         offset="1"
         id="stop6298" />
    </linearGradient>
    <radialGradient
       inkscape:collect="always"
       xlink:href="#linearGradient6294"
       id="radialGradient4383"
       cx="316.3699"
       cy="330.66687"
       fx="316.3699"
       fy="330.66687"
       r="12.506063"
       gradientTransform="matrix(0.91169567,0.903474,-1.9542714,1.9720553,674.14972,-607.23963)"
       gradientUnits="userSpaceOnUse" />
  </defs>
  <sodipodi:namedview
     id="base"
     pagecolor="#ffffff"
     bordercolor="#666666"
     borderopacity="1.0"
     inkscape:pageopacity="0.0"
     inkscape:pageshadow="2"
     inkscape:zoom="7.9195959"
     inkscape:cx="78.050088"
     inkscape:cy="18.710519"
     inkscape:document-units="px"
     inkscape:current-layer="layer1"
     showgrid="false"
     fit-margin-top="0"
     fit-margin-left="0"
     fit-margin-right="0"
     fit-margin-bottom="0"
     inkscape:window-width="1920"
     inkscape:window-height="1017"
     inkscape:window-x="-8"
     inkscape:window-y="-8"
     inkscape:window-maximized="1" />
  <metadata
     id="metadata5107">
    <rdf:RDF>
      <cc:Work
         rdf:about="">
        <dc:format>image/svg+xml</dc:format>
        <dc:type
           rdf:resource="http://purl.org/dc/dcmitype/StillImage" />
        <dc:title></dc:title>
      </cc:Work>
    </rdf:RDF>
  </metadata>
  <g
     inkscape:label="Layer 1"
     inkscape:groupmode="layer"
     id="layer1"
     transform="translate(-255.75634,-305.66011)">
    <path
       style="opacity:1;fill:#da2e76;fill-opacity:1"
       d="m 340.53446,306.43911 c -1.11246,0.3349 -2.29194,0.25634 -3.43838,0.31944 -2.37151,0.0428 -4.75173,0.10775 -7.09897,0.47656 -2.19969,0.34946 -4.38,0.95232 -6.3603,1.98714 -1.03481,0.56107 -2.0424,1.20762 -2.89083,2.02595 -1.66578,1.43087 -2.87632,3.33737 -3.69562,5.36135 -0.95328,2.38996 -1.37071,4.96141 -1.49206,7.52125 -0.10388,2.34336 0.0223,4.69445 0.31352,7.02131 3.33351,0.38247 6.72429,0.51157 10.05199,0 2.26472,-0.35335 4.50234,-1.02406 6.49331,-2.17536 1.28235,-0.75427 2.48121,-1.68423 3.43641,-2.8297 1.55222,-1.71724 2.57728,-3.86254 3.22088,-6.07484 1.01054,-3.4335 1.10189,-7.04276 1.15625,-10.5947 0.0515,-1.01441 0.0112,-2.0531 0.3038,-3.0384 z"
       id="path5-9"
       inkscape:connector-curvature="0" />
    <g
       id="g96"
       transform="matrix(1.25,0,0,-1.25,313.28884,360.41435)"
       style="fill:#ffffff;fill-opacity:1">
      <path
         d="m 0,0 c -0.101,-0.211 -0.694,-1.712 -0.694,-1.712 l -0.653,1.749 c 0,0 -0.072,0.16 -0.192,0.165 l -0.71,-0.02 1.111,-2.785 0.83,-0.005 1.209,2.805 -0.65,0.006 C 0.251,0.203 0.098,0.211 0,0"
         style="fill:#ffffff;fill-opacity:1;fill-rule:nonzero;stroke:none"
         id="path98"
         inkscape:connector-curvature="0" />
    </g>
    <g
       id="g100"
       transform="matrix(1.25,0,0,-1.25,314.95259,360.1631)"
       style="fill:#ffffff;fill-opacity:1">
      <path
         d="M 0,0 C 0,0 0.002,-2.177 0.001,-2.476 0,-2.777 0.266,-2.792 0.266,-2.792 l 0.505,0 L 0.767,0"
         style="fill:#ffffff;fill-opacity:1;fill-rule:nonzero;stroke:none"
         id="path102"
         inkscape:connector-curvature="0" />
    </g>
    <g
       id="g104"
       transform="matrix(1.25,0,0,-1.25,318.98009,360.1681)"
       style="fill:#ffffff;fill-opacity:1">
      <path
         d="m 0,0 -1.598,0 c 0,0 -0.02,-0.202 0.004,-0.381 0.025,-0.177 0.246,-0.227 0.246,-0.227 l 1.143,0 c 0.636,-0.02 0.509,-0.495 0.509,-0.495 l -1.113,0 c -1.048,0.077 -0.998,-0.877 -0.998,-0.877 0.031,-0.944 0.893,-0.84 0.893,-0.84 l 1.008,0.004 c 0.981,0.084 0.986,0.893 0.986,0.893 l 0,0.817 C 1.106,0.098 0,0 0,0 m -0.146,-2.205 -0.58,0.002 c 0,0 -0.29,-0.029 -0.279,0.258 0,0 0.012,0.235 0.226,0.23 l 1.072,0 c 0,0 0.083,-0.481 -0.439,-0.49"
         style="fill:#ffffff;fill-opacity:1;fill-rule:nonzero;stroke:none"
         id="path106"
         inkscape:connector-curvature="0" />
    </g>
    <g
       id="g108"
       transform="matrix(1.25,0,0,-1.25,322.41009,360.16185)"
       style="fill:#ffffff;fill-opacity:1">
      <path
         d="m 0,0 c 0,0 -1.184,0.014 -1.158,-1.392 0,0 0.007,-1.363 1.149,-1.426 l 1.405,0 0,0.352 c 0,0 -0.053,0.237 -0.309,0.25 l -0.762,0 c 0,0 -0.702,-0.012 -0.673,0.822 0,0 -0.029,0.768 0.668,0.773 l 0.763,0 c 0,0 0.305,0.049 0.313,0.336 l 0,0.285 -0.01,0"
         style="fill:#ffffff;fill-opacity:1;fill-rule:nonzero;stroke:none"
         id="path110"
         inkscape:connector-curvature="0" />
    </g>
    <g
       id="g112"
       transform="matrix(1.25,0,0,-1.25,326.48009,360.10185)"
       style="fill:#ffffff;fill-opacity:1">
      <path
         d="m 0,0 -0.12,0.003 c -1.04,-0.007 -1.353,-0.942 -1.362,-1.008 l -0.002,-0.003 c -0.187,-1.105 0.32,-1.491 0.32,-1.491 0.668,-0.692 1.93,-0.235 1.93,-0.235 C 1.754,-2.25 1.39,-0.981 1.39,-0.981 1.091,0.092 0,0 0,0 m 0.332,-2.223 c 0,0 -0.598,-0.276 -0.913,0.141 0,0 -0.241,0.232 -0.152,0.897 l 0,0.002 c 0.005,0.039 0.152,0.602 0.645,0.606 l 0.058,-0.002 c 0,0 0.515,0.056 0.657,-0.59 0,0 0.173,-0.764 -0.295,-1.054"
         style="fill:#ffffff;fill-opacity:1;fill-rule:nonzero;stroke:none"
         id="path114"
         inkscape:connector-curvature="0" />
    </g>
    <g
       id="g116"
       transform="matrix(1.25,0,0,-1.25,332.65384,360.17185)"
       style="fill:#ffffff;fill-opacity:1">
      <path
         d="m 0,0 c -0.259,-0.002 -0.301,-0.156 -0.301,-0.156 l -0.716,-1.76 -0.607,1.623 c -0.094,0.284 -0.269,0.272 -0.269,0.272 l -1.111,0 0,-2.792 0.508,0.003 c 0.243,0 0.276,0.255 0.276,0.255 l 0,1.664 0.759,-1.917 0.843,0 0.807,1.92 -0.01,-1.571 c -0.006,-0.33 0.27,-0.349 0.27,-0.349 l 0.508,10e-4 0,2.807"
         style="fill:#ffffff;fill-opacity:1;fill-rule:nonzero;stroke:none"
         id="path118"
         inkscape:connector-curvature="0" />
    </g>
    <g
       id="g120"
       transform="matrix(1.25,0,0,-1.25,335.18509,358.93685)">
      <path
         d="m 0,0 0,-4.673 4.671,0 0,3.302 C 4.671,-0.613 4.058,0 3.299,0"
         style="fill:#ec1e27;fill-opacity:1;fill-rule:evenodd;stroke:none"
         id="path122"
         inkscape:connector-curvature="0" />
    </g>
    <g
       id="g124"
       transform="matrix(1.25,0,0,-1.25,335.77259,360.9806)">
      <path
         d="m 0,0 0.456,0 0,-2.222 0.676,0 0,2.889 -1.132,0"
         style="fill:#ffffff;fill-opacity:1;fill-rule:evenodd;stroke:none"
         id="path126"
         inkscape:connector-curvature="0" />
    </g>
    <g
       id="g128"
       transform="matrix(1.25,0,0,-1.25,339.11009,362.90435)">
      <path
         d="m 0,0 -0.218,-0.079 -0.009,0 -0.221,0.098 c -0.06,0.065 -0.095,0.146 -0.101,0.241 -0.003,0.091 0.026,0.169 0.087,0.236 0.063,0.07 0.142,0.105 0.235,0.105 l 0.009,0 C -0.123,0.599 -0.044,0.563 0.017,0.496 0.081,0.433 0.113,0.351 0.113,0.255 0.11,0.145 0.072,0.058 0,0 m -0.427,1.596 0.191,0.087 0.018,0 0.189,-0.061 C 0.032,1.576 0.063,1.505 0.067,1.403 L -0.02,1.191 -0.218,1.106 l -0.009,0 -0.206,0.086 c -0.052,0.056 -0.075,0.129 -0.072,0.219 l 0.078,0.185 m 0.83,-0.707 c 0.198,0.125 0.3,0.314 0.3,0.573 0,0.213 -0.082,0.397 -0.244,0.548 -0.174,0.163 -0.398,0.244 -0.677,0.246 l -0.018,0 C -0.514,2.256 -0.738,2.174 -0.906,2.01 -1.074,1.845 -1.159,1.658 -1.159,1.446 -1.156,1.199 -1.054,1.017 -0.854,0.889 -0.982,0.812 -1.081,0.711 -1.144,0.589 -1.22,0.45 -1.258,0.316 -1.258,0.188 c 0,-0.238 0.096,-0.449 0.29,-0.639 0.183,-0.182 0.43,-0.279 0.741,-0.28 l 0.009,0 c 0.198,0 0.372,0.043 0.53,0.125 0.155,0.091 0.28,0.207 0.365,0.353 0.084,0.146 0.127,0.299 0.127,0.458 0,0.31 -0.133,0.538 -0.401,0.684"
         style="fill:#ffffff;fill-opacity:1;fill-rule:evenodd;stroke:none"
         id="path130"
         inkscape:connector-curvature="0" />
    </g>
    <g
       id="g132"
       transform="matrix(1.25,0,0,-1.25,264.15884,338.0906)"
       style="fill:#ffffff;fill-opacity:1">
      <path
         d="M 0,0 C 2.116,0 3.486,-0.822 4.158,-1.344 4.581,-1.618 4.606,-2.042 4.307,-2.465 L 4.058,-2.838 c -0.299,-0.448 -0.647,-0.473 -1.12,-0.199 -0.523,0.373 -1.494,0.946 -2.813,0.946 -2.54,0 -4.382,-1.892 -4.382,-4.482 0,-2.564 1.842,-4.531 4.431,-4.531 1.519,0 2.614,0.697 3.212,1.146 0.448,0.298 0.821,0.248 1.12,-0.225 l 0.199,-0.373 C 4.954,-10.979 4.88,-11.378 4.481,-11.651 3.784,-12.224 2.266,-13.195 0,-13.195 c -3.958,0 -6.722,2.813 -6.722,6.598 C -6.722,-2.863 -3.934,0 0,0"
         style="fill:#ffffff;fill-opacity:1;fill-rule:nonzero;stroke:none"
         id="path134"
         inkscape:connector-curvature="0" />
    </g>
    <g
       id="g136"
       transform="matrix(1.25,0,0,-1.25,280.55884,351.9706)"
       style="fill:#ffffff;fill-opacity:1">
      <path
         d="M 0,0 C 2.39,0 4.332,1.892 4.332,4.531 4.332,7.145 2.39,9.012 0,9.012 -2.365,9.012 -4.332,7.145 -4.332,4.531 -4.332,1.892 -2.365,0 0,0 m 0,11.104 c 3.759,0 6.797,-2.764 6.797,-6.573 0,-3.834 -3.038,-6.622 -6.797,-6.622 -3.759,0 -6.772,2.788 -6.772,6.622 0,3.809 3.013,6.573 6.772,6.573"
         style="fill:#ffffff;fill-opacity:1;fill-rule:nonzero;stroke:none"
         id="path138"
         inkscape:connector-curvature="0" />
    </g>
    <g
       id="g140"
       transform="matrix(1.25,0,0,-1.25,292.38384,333.26685)"
       style="fill:#ffffff;fill-opacity:1">
      <path
         d="m 0,0 c 0,0.548 0.274,0.822 0.822,0.822 l 0.771,0 C 2.116,0.822 2.415,0.548 2.415,0 l 0,-13.021 c 0,-1.419 0.622,-1.618 1.145,-1.668 0.374,-0.05 0.647,-0.249 0.647,-0.722 l 0,-0.597 c 0,-0.523 -0.224,-0.847 -0.846,-0.847 -1.344,0 -3.361,0.374 -3.361,3.536"
         style="fill:#ffffff;fill-opacity:1;fill-rule:nonzero;stroke:none"
         id="path142"
         inkscape:connector-curvature="0" />
    </g>
    <g
       id="g144"
       transform="matrix(1.25,0,0,-1.25,307.88134,351.9706)"
       style="fill:#ffffff;fill-opacity:1">
      <path
         d="M 0,0 C 2.39,0 4.332,1.892 4.332,4.531 4.332,7.145 2.39,9.012 0,9.012 -2.365,9.012 -4.332,7.145 -4.332,4.531 -4.332,1.892 -2.365,0 0,0 m 0,11.104 c 3.759,0 6.797,-2.764 6.797,-6.573 0,-3.834 -3.038,-6.622 -6.797,-6.622 -3.759,0 -6.772,2.788 -6.772,6.622 0,3.809 3.013,6.573 6.772,6.573"
         style="fill:#ffffff;fill-opacity:1;fill-rule:nonzero;stroke:none"
         id="path146"
         inkscape:connector-curvature="0" />
    </g>
    <g
       id="g148"
       transform="matrix(1.25,0,0,-1.25,319.70634,339.49185)"
       style="fill:#ffffff;fill-opacity:1">
      <path
         d="m 0,0 c 0,0.548 0.299,0.822 0.822,0.822 l 0.697,0 C 2.067,0.822 2.34,0.548 2.34,0 l 0,-1.444 C 2.34,-1.967 2.266,-2.39 2.266,-2.39 l 0.049,0 c 0.548,1.668 1.967,3.311 3.859,3.311 0.573,0 0.797,-0.274 0.797,-0.821 l 0,-0.697 c 0,-0.548 -0.324,-0.822 -0.896,-0.822 -2.465,0 -3.66,-2.664 -3.66,-5.153 l 0,-4.382 c 0,-0.548 -0.274,-0.822 -0.822,-0.822 l -0.771,0 C 0.299,-11.776 0,-11.502 0,-10.954"
         style="fill:#ffffff;fill-opacity:1;fill-rule:nonzero;stroke:none"
         id="path150"
         inkscape:connector-curvature="0" />
    </g>
    <g
       id="g152"
       transform="matrix(1.25,0,0,-1.25,329.85134,351.4731)"
       style="fill:#ffffff;fill-opacity:1">
      <path
         d="m 0,0 0.249,0.349 c 0.324,0.423 0.647,0.448 1.145,0.174 0.573,-0.374 1.618,-1.021 3.087,-1.021 1.245,0 2.141,0.598 2.141,1.668 0,2.465 -6.497,1.643 -6.497,5.901 0,2.39 2.091,3.635 4.556,3.635 1.742,0 2.887,-0.598 3.485,-0.971 C 8.614,9.51 8.689,9.087 8.44,8.639 L 8.216,8.265 C 7.967,7.817 7.593,7.768 7.12,7.992 6.597,8.29 5.751,8.714 4.556,8.714 3.361,8.714 2.44,8.191 2.44,7.12 c 0,-2.514 6.498,-1.618 6.498,-5.9 0,-2.141 -1.818,-3.71 -4.531,-3.71 -2.092,0 -3.536,0.847 -4.233,1.37 C -0.249,-0.846 -0.274,-0.423 0,0"
         style="fill:#ffffff;fill-opacity:1;fill-rule:nonzero;stroke:none"
         id="path154"
         inkscape:connector-curvature="0" />
    </g>
    <path
       style="opacity:1;fill:url(#radialGradient4383);fill-opacity:1"
       d="m 341.31346,305.66011 c -1.11246,0.3349 -2.29194,0.25634 -3.43838,0.31944 -2.37151,0.0428 -4.75173,0.10775 -7.09897,0.47656 -2.19969,0.34946 -4.38,0.95232 -6.3603,1.98714 -1.03481,0.56107 -2.0424,1.20762 -2.89083,2.02595 -1.66578,1.43087 -2.87632,3.33737 -3.69562,5.36135 -0.95328,2.38996 -1.37071,4.96141 -1.49206,7.52125 -0.10388,2.34336 0.0223,4.69445 0.31352,7.02131 3.33351,0.38247 6.72429,0.51157 10.05199,0 2.26472,-0.35335 4.50234,-1.02406 6.49331,-2.17536 1.28235,-0.75427 2.48121,-1.68423 3.43641,-2.8297 1.55222,-1.71724 2.57728,-3.86254 3.22088,-6.07484 1.01054,-3.4335 1.10189,-7.04276 1.15625,-10.5947 0.0515,-1.01441 0.0112,-2.0531 0.3038,-3.0384 z"
       id="path5"
       inkscape:connector-curvature="0" />
  </g>
</svg>
