<?xml version="1.0" encoding="UTF-8"?>
<!-- Created with Inkscape (http://www.inkscape.org/) -->
<svg id="svg3087" width="768.12" height="1006" version="1.1" xmlns="http://www.w3.org/2000/svg" xmlns:cc="http://creativecommons.org/ns#" xmlns:dc="http://purl.org/dc/elements/1.1/" xmlns:rdf="http://www.w3.org/1999/02/22-rdf-syntax-ns#">
 <metadata id="metadata3093">
  <rdf:RDF>
   <cc:Work rdf:about="">
    <dc:format>image/svg+xml</dc:format>
    <dc:type rdf:resource="http://purl.org/dc/dcmitype/StillImage"/>
    <dc:title/>
   </cc:Work>
  </rdf:RDF>
 </metadata>
 <rect id="rect3043" x="162.08" y="803.96" width="0" height=".87504" ry=".012868"/>
 <path id="path3175" d="m687.87 0.084919c-1.3159 0.57328-2.3778 2.109-2.3778 3.6718v90.265c0 2.0841 1.8397 3.9778 3.864 3.9778h31.21 2.9723c0.39442 0 0.83325-0.18816 1.1889-0.30594 24.338-2.1484 43.396-23.041 43.396-48.652 0-25.61-19.059-46.809-43.396-48.958-0.35452-0.12607-0.79321 0-1.1889 0h-2.9723-31.21c-0.50596 0-1.0474-0.19109-1.4862 0zm19.023 20.807h11.889c14.974 0 27.048 12.736 27.048 28.151 0 15.414-12.075 27.845-27.048 27.845h-11.889z"/>
 <g id="frame" transform="translate(-222.31 760.29)"></g>
 <path id="path12" d="m51.369 773.06c14.231 0 24.744 4.4194 34.421 13.216 1.2428 1.1656 1.2428 2.8292 0.1195 3.9794l-11.089 11.529c-0.96881 0.99198-2.5783 0.99198-3.5393 0-5.2569-4.7049-12.235-7.2253-19.202-7.2253-16.091 0-27.902 13.316-27.902 29.28 0 15.755 11.934 28.851 28.048 28.851 6.658 0 13.922-2.3853 19.055-6.8239 0.96105-0.82984 2.8292-0.82984 3.6783 0.13901l11.077 11.787c0.9958 1.0614 0.84915 2.8794-0.12722 3.8365-9.6878 9.4138-21.888 13.872-34.54 13.872-28.473 0-51.369-22.66-51.369-51.087 0.0038614-28.473 22.896-51.353 51.369-51.353m113.51 0c-28.4 0-51.048 22.88-51.048 51.357 0 28.457 22.645 51.087 51.048 51.087 28.388 0 51.187-22.629 51.187-51.087-4e-3 -28.477-22.799-51.357-51.187-51.357m0 79.633c-15.524 0-28.299-12.799-28.299-28.276 0-15.639 12.776-28.577 28.299-28.577 15.639 0 28.388 12.942 28.388 28.577 0 15.477-12.752 28.276-28.388 28.276m80.675 18.214c-0.26258 1.8604 0.99194 3.1341 2.6632 3.1341h16.79c1.4551 0 2.5898-1.1695 2.7172-2.2541l6.2604-43.981h0.26258l24.104 46.1c0.40159 0.8298 1.5169 1.594 2.4046 1.594h2.5088c0.72558 0 2.0379-0.76424 2.4354-1.594l23.911-46.1h0.2703l6.4264 43.981c0.1195 1.0846 1.3779 2.2541 2.6709 2.2541h16.786c1.6828 0 2.9951-1.2737 2.694-3.1341l-16.064-95.574c-0.12723-1.3123-1.405-2.2734-2.5628-2.2734h-2.2618c-0.74876 0-1.9916 0.54035-2.4162 1.4242l-33.016 61.485h-0.26257l-33.016-61.485c-0.42455-0.88387-1.6905-1.4242-2.4046-1.4242h-2.285c-1.127 0-2.4355 0.96105-2.5358 2.2734zm149.65 0.40911c0 1.4512 1.1154 2.7134 2.7172 2.7134h58.849c1.5246 0 2.7172-1.2621 2.7172-2.7134v-15.489c0-1.401-1.1965-2.6902-2.7172-2.6902h-39.369v-19.217h32.445c1.3818 0 2.6362-1.0962 2.6362-2.6709v-15.551c0-1.3779-1.2505-2.6593-2.6362-2.6593h-32.445v-17.666h39.369c1.5246 0 2.7172-1.2467 2.7172-2.667v-15.547c0-1.4088-1.1965-2.6748-2.7172-2.6748h-58.845c-1.6018 0-2.7172 1.266-2.7172 2.6748v94.157zm101.86 0c0 1.4512 1.1386 2.7134 2.5435 2.7134h34.702c27.423 0 49.898-22.336 49.898-49.906 0-27.296-22.471-49.639-49.898-49.639h-34.702c-1.4049 0-2.5435 1.266-2.5435 2.6863zm22.17-18.318v-57.625h13.636c16.06 0 27.743 12.683 27.743 28.751 0 16.184-11.679 28.87-27.743 28.87h-13.636zm117.22 18.303c0 1.4666 1.1193 2.7288 2.7056 2.7288h16.894c1.4512 0 2.7211-1.2621 2.7211-2.7288v-45.344l31.862-47.316c1.154-1.8835 0-4.1569-2.2695-4.1569h-18.503c-1.2814 0-1.8218 0.7179-2.2772 1.266l-19.727 29.168-19.823-29.168c-0.40143-0.57893-1.1193-1.266-2.2541-1.266h-18.461c-2.2965 0-3.439 2.2734-2.2965 4.1569l31.429 47.436zm6.0752 134.7c27.215 0 49.169-21.915 49.169-49.18 0-27.257-21.954-48.91-49.169-48.91-12.119 0-23.799 4.2418-33.089 13.223-0.91475 0.91861-1.0846 2.6902-0.11967 3.6899l10.591 11.332c0.853 0.90703 2.6092 0.90703 3.5393 0.12723 4.925-4.2225 11.884-6.5615 18.33-6.5615 15.354 0 26.782 12.532 26.782 27.659 0 15.261-11.305 28.056-26.732 28.056-6.6657 0-13.339-2.4625-18.384-6.932-0.93019-0.95719-2.447-0.95719-3.3888 0l-10.622 11.008c-1.0846 1.0962-1.0846 2.7288 0.12353 3.7941 9.2941 8.4605 19.318 12.695 32.969 12.695m-67.178-94.115c0-1.3702-1.073-2.5861-2.5898-2.5861h-56.336c-1.5091 0-2.5976 1.212-2.5976 2.5861v14.829c0 1.3431 1.0884 2.6052 2.5976 2.6052h37.69v18.364h-31.036c-1.3663 0-2.5976 1.0691-2.5976 2.5898v14.879c0 1.3354 1.2274 2.532 2.5976 2.532h31.036v16.936h-37.69c-1.5091 0-2.5976 1.2081-2.5976 2.5396v14.906c0 1.3316 1.0884 2.532 2.5976 2.532h56.336c1.5168 0 2.5898-1.2004 2.5898-2.532zm-97.507 0c0-1.3702-1.2621-2.5861-2.5821-2.5861h-16.199c-1.5091 0-2.5821 1.212-2.5821 2.5861v50.824h-0.15823l-53.812-54.124c-0.29721-0.24713-1.32-0.67928-1.7639-0.67928h-2.1769c-1.3393 0-2.5551 1.0691-2.5551 2.4857v91.671c0 1.3277 1.2158 2.532 2.5551 2.532h16.354c1.5323 0 2.5898-1.2043 2.5898-2.532v-48.339h0.12353l54.36 52.276h3.4158c1.347 0 2.5513-1.0961 2.5513-2.4393zm-135.22-0.0122c0-1.3625-1.2158-2.5898-2.5898-2.5898h-16.338c-1.3548 0-2.6053 1.2274-2.6053 2.5898v72.759h-19.468c-1.5014 0-2.5551 1.1966-2.5551 2.5397v14.891c0 1.3277 1.0537 2.5319 2.5551 2.5319h60.474c1.4782 0 2.586-1.2042 2.586-2.5319v-14.891c0-1.347-1.1077-2.5397-2.586-2.5397h-19.476v-72.759zm-73.083 0.0122c0-1.3702-1.0653-2.5861-2.5667-2.5861h-16.234c-1.3354 0-2.5937 1.212-2.5937 2.5861v34.745h-9.3829l-18.094-36.115c-0.30485-0.54807-1.1038-1.212-2.1653-1.212h-18.16c-2.3158 0-3.2383 2.1306-2.3158 3.9562l18.654 34.548c-11.838 4.7821-20.082 14.891-20.082 27.358 0 16.234 13.293 29.434 29.639 29.434h40.731c1.5014 0 2.5667-1.2004 2.5667-2.532v-90.182zm-21.522 52.005v21.205h-20.121c-5.6159 0-10.363-4.5467-10.363-10.301 0-5.7124 4.7474-10.904 10.363-10.904zm-73.149-51.056c0.77578-1.787-0.27802-3.5355-2.3351-3.5355h-14.979c-2.7288 0-4.2109 1.567-4.9056 3.246l-4.9134 10.88h-36.995l-4.9211-10.749c-1.2428-2.6053-2.3158-3.3772-4.7706-3.3772h-15.107c-2.0379 0-3.1186 1.7485-2.339 3.5355l42.657 91.656c0.40915 0.7874 1.3625 1.5092 2.2772 1.5092h1.3625c0.9263 0 1.9337-0.7179 2.3506-1.5092l42.619-91.656m-35.239 29.114-10.255 22.498h-0.1195l-10.359-22.498zm-81.578-30.063c0-1.3702-1.1116-2.5861-2.6285-2.5861h-51.199c-1.486 0-2.5281 1.212-2.5281 2.5861v14.829c0 1.3431 1.046 2.5859 2.5281 2.5859h32.429v72.747c0 1.3509 1.2274 2.5513 2.5783 2.5513h16.191c1.5169 0 2.6285-1.2004 2.6285-2.5513z"/>
 <path id="path12-7" d="m333.83 687.74c186.83 0 338.88-152.01 338.88-338.85 0-186.87-152.05-338.89-338.88-338.89-122.97 0-236.54 66.83-296.34 174.42l60.848 33.807c47.54-85.477 137.76-138.63 235.49-138.63 148.46 0 269.27 120.81 269.27 269.29 0 148.45-120.82 269.22-269.27 269.22-98.92 0-189.74-54.094-236.95-141.23l-61.207 33.182c59.393 109.59 173.62 177.67 298.15 177.67m-0.52495-171.27c61.84 0 118.48-33.884 147.73-88.398l-61.292-32.927c-17.187 31.893-50.288 51.727-86.442 51.727-54.039 0-98.001-43.969-98.001-97.997 0-54.024 43.962-98.005 98.001-98.005 35.428 0 68.297 19.248 85.612 50.249l60.748-33.95c-29.612-53.001-85.708-85.882-146.36-85.882-92.436 0-167.65 75.164-167.65 167.59 0 92.424 75.214 167.6 167.65 167.6"/>
 <path id="path3175-2" d="m593.94 0.084923c-2.1541 0-3.8641 1.7603-3.8641 3.9778v89.653c0 2.2175 1.71 4.2838 3.8641 4.2838h16.051c2.1541 0 3.864-2.0662 3.864-4.2838v-33.046h35.074v33.046c0 2.2175 1.71 4.2838 3.8641 4.2838h16.051c2.154 0 3.8641-2.0662 3.8641-4.2838v-89.653c0-2.2175-1.71-3.9778-3.8641-3.9778h-16.051c-2.154 0-3.8641 1.7603-3.8641 3.9778v34.576h-35.074v-34.576c0-2.2175-1.7099-3.9778-3.864-3.9778z"/>
</svg>
