<svg height="996" width="833.04822" xmlns="http://www.w3.org/2000/svg"><path d="m356.71888 0c-151.90625 0-284.138358 84.25362-352.5222349 208.56957l76.4635699 40.98411c53.865015-96.33638 156.884995-161.48301 275.101345-161.48301 173.94105 0 314.9487 141.00731 314.9487 314.94851 0 173.94139-141.00765 314.94875-314.9487 314.94875-119.72759 0-223.86009-66.82235-277.135495-165.19257l-75.6260666 40.56528c68.0275306 125.52551 200.9148416 210.7832 353.7188816 210.7832 222.05271 0 402.06193-180.00918 402.06193-402.06181 0-222.05277-180.00922-402.06203-402.06193-402.06203zm-.95658 208.68923c-107.32532 0-194.32995 87.00445-194.32995 194.32995s87.00463 194.33001 194.32995 194.33001c74.22737 0 138.74719-41.61638 171.47468-102.78898l-79.15582-42.41996c-17.73538 33.95855-53.26961 57.13824-94.23334 57.13824-58.68536 0-106.25927-47.57394-106.25927-106.25931 0-58.68535 47.57391-106.25928 106.25927-106.25928 39.47155 0 73.87544 21.53967 92.19885 53.48864l79.15611-42.47966c-33.31875-59.14266-96.7212-99.07965-169.44048-99.07965z"/><g transform="matrix(5.2038204 0 0 5.2038204 -176.46236 -75.51183)"><path d="m33.910156 205.90869v-28.63281h21.230469v4.84375h-15.449219v6.34766h14.375v4.82421h-14.375v7.79297h15.996094v4.82422z"/><path d="m57.71875 205.90869 9.785156-14.9414-8.867187-13.69141h6.757812l5.742188 9.19922 5.625-9.19922h6.699218l-8.90625 13.90625 9.785157 14.72656h-6.972657l-6.347656-9.90234-6.367187 9.90234z"/><path d="m93.792969 205.90869v-23.78906h-8.496094v-4.84375h22.753905v4.84375h-8.476561v23.78906z"/><path d="m111.82031 205.90869v-28.63281h12.16797c3.05988.00003 5.28318.25719 6.66992.77148 1.3867.51435 2.49672 1.42907 3.33008 2.74414.83331 1.31513 1.24997 2.81904 1.25 4.51172-.00003 2.14846-.63153 3.92255-1.89453 5.32227-1.26304 1.39975-3.15106 2.28191-5.66406 2.64648 1.24998.72918 2.28188 1.52996 3.0957 2.40235.81378.8724 1.91078 2.42188 3.29102 4.64843l3.49609 5.58594h-6.91406l-4.17969-6.23047c-1.48439-2.22655-2.50002-3.62954-3.04687-4.20898-.54689-.57942-1.12632-.97655-1.73829-1.19141-.61199-.21483-1.58204-.32225-2.91015-.32226h-1.17188v11.95312zm5.78125-16.52344h4.27735c2.77342.00002 4.50519-.11717 5.19531-.35156.69008-.23436 1.23045-.638 1.62109-1.21094.39061-.57289.58592-1.28904.58594-2.14843-.00002-.96352-.25718-1.74152-.77148-2.33399-.51435-.59242-1.24026-.96677-2.17774-1.12304-.46877-.0651-1.87501-.0976-4.21875-.0977h-4.51172z"/><path d="m166.52729 205.90869h-6.28901l-2.5-6.5039h-11.44531l-2.36328 6.5039h-6.13282l11.15235-28.63281h6.11328zm-10.64448-11.32812-3.94531-10.625-3.86719 10.625z"/></g><path d="m728.11753 954.49797v-24.5h-22.50001c-1.60816 0-1.5.006-1.5-1.5v-12c0-1.60817-.006-1.5 1.5-1.5h22.50001v-22.5c0-1.60817-.006-1.5 1.5-1.5h14c1.60816 0 1.5-.005 1.5 1.5v22.5h22.5c1.60816 0 1.5-.005 1.5 1.5v12c .11521 1.60403.005 1.5-1.5 1.5h-22.5v24.5c0 1.60816.005 1.5-1.5 1.5h-14c-1.52653 0-1.5-.0541-1.5-1.5z"/><path d="m831.04653 965.99797h-14.899c-2.14421 0-2.00014.007-2.00014-2v-66h-22.41386c-2.14424 0-1.99984.007-1.99984-2v-13l27.97827-16h13.33457c2.14427 0 1.99963-.007 1.99963 2v95c0 2.14426.008 2-1.99963 2z"/></svg>