<?xml version="1.0" encoding="UTF-8" standalone="no"?>
<!-- Created with Inkscape (http://www.inkscape.org/) -->

<svg
   xmlns:dc="http://purl.org/dc/elements/1.1/"
   xmlns:cc="http://creativecommons.org/ns#"
   xmlns:rdf="http://www.w3.org/1999/02/22-rdf-syntax-ns#"
   xmlns:svg="http://www.w3.org/2000/svg"
   xmlns="http://www.w3.org/2000/svg"
   xmlns:sodipodi="http://sodipodi.sourceforge.net/DTD/sodipodi-0.dtd"
   xmlns:inkscape="http://www.inkscape.org/namespaces/inkscape"
   version="1.1"
   width="758.78082"
   height="996"
   id="svg3087"
   inkscape:version="0.91 r13725"
   sodipodi:docname="Comedy Central Extra - Dark.svg">
  <sodipodi:namedview
     pagecolor="#ffffff"
     bordercolor="#666666"
     borderopacity="1"
     objecttolerance="10"
     gridtolerance="10"
     guidetolerance="10"
     inkscape:pageopacity="0"
     inkscape:pageshadow="2"
     inkscape:window-width="1920"
     inkscape:window-height="1017"
     id="namedview14"
     showgrid="false"
     fit-margin-top="0"
     fit-margin-left="0"
     fit-margin-right="0"
     fit-margin-bottom="0"
     inkscape:zoom="0.40401209"
     inkscape:cx="725.52403"
     inkscape:cy="139.90902"
     inkscape:window-x="-8"
     inkscape:window-y="-8"
     inkscape:window-maximized="1"
     inkscape:current-layer="svg3087" />
  <metadata
     id="metadata3093">
    <rdf:RDF>
      <cc:Work
         rdf:about="">
        <dc:format>image/svg+xml</dc:format>
        <dc:type
           rdf:resource="http://purl.org/dc/dcmitype/StillImage" />
        <dc:title></dc:title>
      </cc:Work>
    </rdf:RDF>
  </metadata>
  <defs
     id="defs3091" />
  <path
     d="M 356.71888,0 C 204.81263,0 72.58052,84.25362 4.1966435,208.56957 L 80.660213,249.55368 C 134.52523,153.2173 237.54521,88.07067 355.76156,88.07067 c 173.94105,0 314.9487,141.00731 314.9487,314.94851 0,173.94139 -141.00765,314.94875 -314.9487,314.94875 -119.72759,0 -223.86009,-66.82235 -277.135497,-165.19257 L 2.9999968,593.34064 C 71.027527,718.86615 203.91484,804.12384 356.71888,804.12384 c 222.05271,0 402.06193,-180.00918 402.06193,-402.06181 C 758.78081,180.00926 578.77159,0 356.71888,0 Z m -0.95658,208.68923 c -107.32532,0 -194.32995,87.00445 -194.32995,194.32995 0,107.3255 87.00463,194.33001 194.32995,194.33001 74.22737,0 138.74719,-41.61638 171.47468,-102.78898 l -79.15582,-42.41996 c -17.73538,33.95855 -53.26961,57.13824 -94.23334,57.13824 -58.68536,0 -106.25927,-47.57394 -106.25927,-106.25931 0,-58.68535 47.57391,-106.25928 106.25927,-106.25928 39.47155,0 73.87544,21.53967 92.19885,53.48864 l 79.15611,-42.47966 C 491.88403,248.62622 428.48158,208.68923 355.7623,208.68923 Z"
     inkscape:connector-curvature="0"
     id="path3120"
     style="fill:#000000;fill-opacity:1;fill-rule:nonzero;stroke:none" />
  <rect
     width="0"
     height="0.87504113"
     ry="0.012868252"
     x="153.09895"
     y="832.47791"
     id="rect3043"
     style="fill:#000000;fill-opacity:1;fill-rule:nonzero;stroke:none" />
  <g
     transform="matrix(0.14558766,0,0,0.14558766,-65.095144,797.90281)"
     id="layer2"
     style="fill:#000000" />
  <g
     transform="matrix(5.2038204,0,0,5.2038204,-176.46236,-75.51183)"
     id="text2996"
     style="font-style:normal;font-weight:bold;font-size:40px;line-height:125%;font-family:Sans;-inkscape-font-specification:'Sans Bold';letter-spacing:0px;word-spacing:0px;fill:#000000;fill-opacity:1;stroke:none">
    <path
       d="m 33.910156,205.90869 0,-28.63281 21.230469,0 0,4.84375 -15.449219,0 0,6.34766 14.375,0 0,4.82421 -14.375,0 0,7.79297 15.996094,0 0,4.82422 z"
       inkscape:connector-curvature="0"
       id="path3001" />
    <path
       d="m 57.71875,205.90869 9.785156,-14.9414 -8.867187,-13.69141 6.757812,0 5.742188,9.19922 5.625,-9.19922 6.699218,0 -8.90625,13.90625 9.785157,14.72656 -6.972657,0 -6.347656,-9.90234 -6.367187,9.90234 z"
       inkscape:connector-curvature="0"
       id="path3003" />
    <path
       d="m 93.792969,205.90869 0,-23.78906 -8.496094,0 0,-4.84375 22.753905,0 0,4.84375 -8.476561,0 0,23.78906 z"
       inkscape:connector-curvature="0"
       id="path3005" />
    <path
       d="m 111.82031,205.90869 0,-28.63281 12.16797,0 c 3.05988,3e-5 5.28318,0.25719 6.66992,0.77148 1.3867,0.51435 2.49672,1.42907 3.33008,2.74414 0.83331,1.31513 1.24997,2.81904 1.25,4.51172 -3e-5,2.14846 -0.63153,3.92255 -1.89453,5.32227 -1.26304,1.39975 -3.15106,2.28191 -5.66406,2.64648 1.24998,0.72918 2.28188,1.52996 3.0957,2.40235 0.81378,0.8724 1.91078,2.42188 3.29102,4.64843 l 3.49609,5.58594 -6.91406,0 -4.17969,-6.23047 c -1.48439,-2.22655 -2.50002,-3.62954 -3.04687,-4.20898 -0.54689,-0.57942 -1.12632,-0.97655 -1.73829,-1.19141 -0.61199,-0.21483 -1.58204,-0.32225 -2.91015,-0.32226 l -1.17188,0 0,11.95312 z m 5.78125,-16.52344 4.27735,0 c 2.77342,2e-5 4.50519,-0.11717 5.19531,-0.35156 0.69008,-0.23436 1.23045,-0.638 1.62109,-1.21094 0.39061,-0.57289 0.58592,-1.28904 0.58594,-2.14843 -2e-5,-0.96352 -0.25718,-1.74152 -0.77148,-2.33399 -0.51435,-0.59242 -1.24026,-0.96677 -2.17774,-1.12304 -0.46877,-0.0651 -1.87501,-0.0976 -4.21875,-0.0977 l -4.51172,0 z"
       inkscape:connector-curvature="0"
       id="path3007" />
    <path
       d="m 166.52729,205.90869 -6.28901,0 -2.5,-6.5039 -11.44531,0 -2.36328,6.5039 -6.13282,0 11.15235,-28.63281 6.11328,0 z m -10.64448,-11.32812 -3.94531,-10.625 -3.86719,10.625 z"
       inkscape:connector-curvature="0"
       id="path3009"
       sodipodi:nodetypes="ccccccccccccc" />
  </g>
</svg>
