<svg height="10.280782mm" viewBox="0 0 28.441239 36.427967" width="8.02675mm" xmlns="http://www.w3.org/2000/svg"><g transform="translate(-274.35081 -312.63908)"><path d="m302.38218 312.69543c-4.09125 1.14125-7.395 3.92-9.14875 7.485l.70125.49375c1.39125-2.9975 4.71625-5.97625 8.165-7.05625z" fill="#ee272a"/><path d="m302.38218 312.69543c-4.09125 1.14125-7.395 3.92-9.14875 7.485l.70125.49375c1.39125-2.9975 4.71625-5.97625 8.165-7.05625z" fill="none" stroke="#ee272a" stroke-miterlimit="10" stroke-width=".0775"/><path d="m302.16618 314.3968c-3.315 1.07375-6.29 3.8025-7.59375 6.73875l-.62625-.42875c1.5175-3.21625 4.835-6.12625 8.47875-7.17625z" fill="#f79a1d"/><path d="m302.16618 314.3968c-3.315 1.07375-6.29 3.8025-7.59375 6.73875l-.62625-.42875c1.5175-3.21625 4.835-6.12625 8.47875-7.17625z" fill="none" stroke="#f79a1d" stroke-miterlimit="10" stroke-width=".0775"/><path d="m302.16618 315.15405c-2.69125.86375-5.87375 3.71875-7.00625 6.3775l-.5875-.4075c1.4925-3.30375 4.72-5.91875 7.87875-6.815z" fill="#f2ea2f"/><path d="m302.16618 315.15405c-2.69125.86375-5.87375 3.71875-7.00625 6.3775l-.5875-.4075c1.4925-3.30375 4.72-5.91875 7.87875-6.815z" fill="none" stroke="#f2ea2e" stroke-miterlimit="10" stroke-width=".0775"/><path d="m302.24293 315.9003c-2.395.83-5.1925 3.04625-6.54875 6.01125l-.5575-.375c1.42-2.96625 4.375-5.5625 7.3475-6.48125l-.2375.84875" fill="#74c155"/><path d="m302.24293 315.9003c-2.395.83-5.1925 3.04625-6.54875 6.01125l-.5575-.375c1.42-2.96625 4.375-5.5625 7.3475-6.48125l-.2375.84875" fill="none" stroke="#74c155" stroke-miterlimit="10" stroke-width=".0775"/><path d="m302.27593 316.7233c-.845.3875-4.27375 1.7075-6.0175 5.5975l-.57125-.40125c.10625-.225 2.09625-4.61375 6.80875-6.09625l-.22.885" fill="#1c4595"/><path d="m302.27593 316.7233c-.845.3875-4.27375 1.7075-6.0175 5.5975l-.57125-.40125c.10625-.225 2.09625-4.61375 6.80875-6.09625l-.22.885" fill="none" stroke="#1c4595" stroke-miterlimit="10" stroke-width=".0775"/><path d="m302.28668 317.4733c-3.49875 1.35125-5.15625 4.405-5.4975 5.2225l-.55625-.39c1.8025-4.10125 6.24-5.67125 6.3725-5.68875l-.315.86" fill="#982584"/><path d="m302.28668 317.4733c-3.49875 1.35125-5.15625 4.405-5.4975 5.2225l-.55625-.39c1.8025-4.10125 6.24-5.67125 6.3725-5.68875l-.315.86" fill="none" stroke="#962583" stroke-miterlimit="10" stroke-width=".0775"/><path d="m302.33068 318.2268s-3.565 1.13125-4.95625 4.89875l-.55875-.41625c.0312-.0525 1.54625-3.87875 5.77875-5.33875z" fill="#cc9ac6"/><path d="m302.33068 318.2268s-3.565 1.13125-4.95625 4.89875l-.55875-.41625c.0312-.0525 1.54625-3.87875 5.77875-5.33875z" fill="none" stroke="#cc9ac6" stroke-miterlimit="10" stroke-width=".0775"/><g fill="#ee272a"><path d="m275.65943 339.76455h24.62238v-1.19h-24.62238z"/><path d="m302.7758 347.9963-1.16625-.0337v-20.5086l.60375-.00045.37875.006.2.001-.0163 20.5353z"/><path d="m274.49318 347.9658h1.18625v-8.2175h-1.18625z"/><path d="m301.61568 349.06705h-25.94375v-1.1h25.94375z"/><path d="m301.60556 347.96443 1.16.004.005.11875.001.16375v.19375l-.03.15625-.065.11875-.0575.1025-.0813.0713-.095.075-.125.0575-.135.0275-.17.007h-.24-.18"/><path d="m301.60693 327.49643.81375-.91125.0975.0725.0588.045.0713.0875.0662.1125.0312.0713.0312.0987.0138.12-.002.14375v.16"/><path d="m302.47581 326.6278-13.22375-9.26375-.17125-.11-.17125-.07-.18125-.0312-.16125.006-.15625.0362-.17125.08-.11875.08-.41125.285-13.35875 9.3325.8275.85 13.5-9.24 12.97375 8.92875.82375-.88375z"/><path d="m275.65968 339.7533v-1.17875l-.52375.001-.1425.0275-.17125.0712-.135.11125-.1025.14875-.0575.1325-.03.175-.005.1875.001.32 1.16625.004z"/><path d="m275.6793 347.96393-.007 1.1025h-.41l-.175-.0138-.135-.035-.1175-.055-.12875-.10125-.115-.14-.075-.165-.0213-.15125-.002-.16375v-.1375l.001-.1375"/></g><g fill="#fff" transform="matrix(.09644067 0 0 .09644067 276.28056 341.00619)"><path d="m46.79 6.5h15.66l11.4596 14.49 11.4704-14.49h15.88l-17.94 20.44 18.87 20.8496h-16.35l-11.9304-14.7992-12.4056 14.7992h-16.234l19.06-20.8496z"/><path d="m2.7504 6.5h41.7592v9.84h-30.2196l.1 5.9496h28.3996v9.06h-28.4496l-.01 6.38h30.1796v10.06h-41.7592z"/><path d="m101.76 6.5h45.6v10.7304h-16.7896v30.5592h-11.9904v-30.5592h-16.82z"/><path d="m149.8 6.61 38.16-.11c3.75531-.010825 7.38453 2.5910799 8.12 6.3.89453 4.511087.86093 9.228464.1 13.75-.44908 2.668488-2.84 4.12-5.03 5.25 1.9.95 4.22896 1.794277 4.68 4.24.71054 3.852847.49 8.27913.49 11.7496h-12v-8.7096c0-1.279453-1.80709-1.6496-3.2-1.6496h-19.7296v10.3592h-11.6304l.04-41.2896m11.5904 20.32h22.9296c3.18284 0 3.17515-10.08 0-10.08h-22.9296z"/><path d="m197.11 47.75 19.66-41.25h18.11l19.37 41.2896h-13.28l-3.25-7.0896h-24.22l-3.33 7.0896h-13.06m27.54-31.5496-7.35 15.3504h16.67l-7.28-15.3504c-.29138-.614406-1.74633-.613319-2.04 0z"/></g><g fill="#7ac476" transform="matrix(.9338388 0 0 .9338388 -8.461911 24.805032)"><path d="m325.58734 325.50914c.40884-.24361.89567-.31384 1.36476-.30682.3837.0237.78403.11386 1.08863.36079.26541.22068.43988.587.34858.933-.0455.18741-.19185.3752-.3959.39257-.16967.0214-.35782.031-.50901-.0617-.18187-.16708-.19666-.4288-.23103-.65724-.024-.14897-.0322-.33084-.16931-.4251-.17817-.11866-.41216-.0921-.60475-.0259-.2022.12716-.28315.37483-.30718.60106-.0632.73893-.024 1.48083-.0399 2.22124.42029.0259.8417.0251 1.26273.01.0144.1438.0277.28796.0399.43213-.42548.0214-.85132.0126-1.27679.0107.0211 1.38694-.004 2.77387.0137 4.16044-.009.13604.0754.26985.20331.31828.22401.0931.4739.0518.70789.10128.00037.13308.0998.33971-.0521.4203-.41807.0395-.83985-.007-1.25866-.0214-.66168-.0492-1.32484.0928-1.98504.001.009-.12568.0181-.25099.0296-.37593.24841-.0566.52047-.0673.7297-.22956.0336-.16782.037-.33971.0373-.51012-.003-1.28824-.01-2.57611.004-3.86398-.26578.007-.53193.00074-.79476-.0414.006-.12569.0144-.25174.0222-.37742.25765-.009.51456-.0281.77184-.0407-.0107-.69717-.0126-1.41873.25062-2.07634.15563-.3752.39294-.7382.74929-.94927z"/><path d="m307.1653 325.88692c.41549-.0939.84392-.10498 1.26865-.11311.92857-.0148 1.85492.0913 2.76833.25358.1109.02.23806.0917.24841.21588.0137.61769-.0118 1.23575.009 1.85307-.25469.0433-.51788.0462-.77035-.0129-.0839-.48942-.15489-1.02911-.51641-1.40172-.34008-.32826-.83615-.42511-1.29379-.42289-.37039.01-.75409.0266-1.0975.18113-.48942.21034-.88236.62915-1.06497 1.12929-.3508.87941-.31679 1.84457-.31088 2.77388.009.83985.0898 1.72111.53304 2.45635.25913.45134.75077.72637 1.25424.81102.36189.071.73524.0529 1.09787-.004.43952-.0791.87053-.33602 1.06645-.74966.20183-.37261.24027-.80067.3264-1.20876.26135-.0104.52306-.01.78441-.003.001.6979-.005 1.39581-.006 2.09372-.8088.26799-1.66011.38406-2.50884.4177-.79512.0178-1.61612.0336-2.37021-.25728-.61547-.21994-1.15369-.65206-1.4849-1.21689-.34858-.59662-.47205-1.29046-.54782-1.96804-.0758-1.06349-.002-2.16801.4373-3.15314.38887-.87793 1.25903-1.46678 2.17762-1.67453z"/><path d="m328.41408 326.79812c.52121-.0946 1.0073-.32604 1.5311-.4118-.0373.72194-.037 1.44535-.0214 2.16802.36707.01.73413.01 1.10157.003.01.13936.02.27908.0307.41881-.36781.0307-.73783.0259-1.106.01-.0525.90824-.0266 1.8187-.0266 2.72768.004.40403-.0203.81101.0418 1.21209.0307.20516.13936.42436.34858.49496.35118.13419.72822.01 1.08568-.027-.00074.13936-.031.30459-.16228.38111-.6273.33639-1.37068.42732-2.06821.30792-.44469-.10757-.74855-.55411-.76149-.99954-.0606-1.36476.0307-2.73174-.0462-4.09576-.2473.0163-.49534.004-.7419-.0196.004-.13566.009-.27132.014-.40662.24841 0 .49681-.004.74522-.008.0296-.58442-.0163-1.17069.0355-1.75474z"/><path d="m314.97386 328.785c.32566-.25062.73117-.44543 1.15257-.39183.24102.0288.49164.10609.65614.29535.29387.32678.36078.82544.20294 1.23021-.0706.1693-.24693.26985-.42251.29535-.18594.0174-.39258.0137-.55633-.0861-.25543-.22253-.15747-.61214-.34082-.87349-.23251-.11422-.5482-.0699-.70863.14343-.34599.51714-.29794 1.16884-.29239 1.76176-.003.33195.01.66427-.003.99622-.0148.43841-.0263.88754.10017 1.31264.29351.0333.59182.0706.86536.19-.003.0994-.006.19924-.008.29905-.34452.0824-.70012.0399-1.04981.0325-.75114-.0207-1.50264.001-2.25378.0229-.014-.13899-.0281-.27761-.0414-.41623.2022-.0488.4214-.0392.60993-.13566.11422-.0543.1741-.18224.1693-.30534.017-1.15923-.002-2.31883.009-3.47806-.007-.1804.0174-.37225-.0617-.54081-.19333-.16338-.46318-.12457-.69754-.14897-.0118-.1401-.0233-.28019-.0355-.41992.78441.008 1.5677-.0436 2.351-.0773.003.18889.006.37815.0126.56705.12568-.0754.22179-.18964.3423-.27281z"/><path d="m319.52429 328.45638c.52527-.071 1.05979-.0754 1.58581-.008.31273.0392.63063.12383.88865.31236.26319.19148.44432.48609.51234.80325.10682.47427.0403.96221.0621 1.44313.0322.82137-.0824 1.6542.088 2.46595.2303.0303.46059.0595.69052.0921.01.10942.0396.21883.0274.32936-.006.078-.0902.1035-.15562.10128-.67018.0181-1.34406-.0259-2.01129.0566-.0488-.16597-.10313-.3301-.1486-.49681-.40144.17521-.75668.47463-1.20285.53636-.51603.0706-1.09084.0883-1.54441-.20885-.42177-.27502-.60069-.79845-.59662-1.28344-.0144-.42029.0558-.87423.35561-1.19139.27465-.32751.70788-.43508 1.11191-.49459.59071-.0939 1.19066-.0617 1.78617-.0599-.005-.49127.027-.98365-.0181-1.47381-.0159-.19148-.14786-.36189-.31864-.44395-.17078-.0906-.37076-.0554-.55595-.0651-.20036-.009-.44137.0536-.52343.25802-.13899.32862-.14047.6931-.23104 1.0354-.32344.0444-.65133.0458-.97662.027-.31753-.42214-.14306-1.05055.25321-1.3581.25876-.21847.58997-.33047.92155-.37668m.37335 2.96314c-.27392.12236-.41032.42067-.46614.69975-.0495.30608-.0288.62509.0566.92303.12901.29018.48129.41179.7796.3678.31051-.0303.61917-.25173.6687-.5737.0739-.50088.0277-1.00841.0385-1.51188-.35857.0126-.73894-.0584-1.07717.095z"/></g></g></svg>