<?xml version="1.0" encoding="UTF-8" standalone="no"?>
<!-- Created with Inkscape (http://www.inkscape.org/) -->

<svg
   xmlns:dc="http://purl.org/dc/elements/1.1/"
   xmlns:cc="http://creativecommons.org/ns#"
   xmlns:rdf="http://www.w3.org/1999/02/22-rdf-syntax-ns#"
   xmlns:svg="http://www.w3.org/2000/svg"
   xmlns="http://www.w3.org/2000/svg"
   xmlns:sodipodi="http://sodipodi.sourceforge.net/DTD/sodipodi-0.dtd"
   xmlns:inkscape="http://www.inkscape.org/namespaces/inkscape"
   width="8.0267496mm"
   height="10.280782mm"
   viewBox="0 0 28.441239 36.427967"
   id="svg12470"
   version="1.1"
   inkscape:version="0.91 r13725"
   sodipodi:docname="Craft Extra - Dark.svg">
  <defs
     id="defs12472" />
  <sodipodi:namedview
     id="base"
     pagecolor="#ffffff"
     bordercolor="#666666"
     borderopacity="1.0"
     inkscape:pageopacity="0.0"
     inkscape:pageshadow="2"
     inkscape:zoom="20.48"
     inkscape:cx="22.380085"
     inkscape:cy="18.570965"
     inkscape:document-units="px"
     inkscape:current-layer="layer1"
     showgrid="false"
     fit-margin-top="0"
     fit-margin-left="0"
     fit-margin-right="0"
     fit-margin-bottom="0"
     inkscape:window-width="1920"
     inkscape:window-height="1017"
     inkscape:window-x="-8"
     inkscape:window-y="-8"
     inkscape:window-maximized="1" />
  <metadata
     id="metadata12475">
    <rdf:RDF>
      <cc:Work
         rdf:about="">
        <dc:format>image/svg+xml</dc:format>
        <dc:type
           rdf:resource="http://purl.org/dc/dcmitype/StillImage" />
        <dc:title></dc:title>
      </cc:Work>
    </rdf:RDF>
  </metadata>
  <g
     inkscape:label="Layer 1"
     inkscape:groupmode="layer"
     id="layer1"
     transform="translate(-274.35081,-312.63908)">
    <path
       d="m 302.38218,312.69543 c -4.09125,1.14125 -7.395,3.92 -9.14875,7.485 l 0.70125,0.49375 c 1.39125,-2.9975 4.71625,-5.97625 8.165,-7.05625 l 0.2825,-0.9225 z"
       style="fill:#ee272a;fill-opacity:1;fill-rule:nonzero;stroke:none"
       id="path1752"
       inkscape:connector-curvature="0" />
    <path
       d="m 302.38218,312.69543 c -4.09125,1.14125 -7.395,3.92 -9.14875,7.485 l 0.70125,0.49375 c 1.39125,-2.9975 4.71625,-5.97625 8.165,-7.05625 l 0.2825,-0.9225 z"
       style="fill:none;stroke:#ee272a;stroke-width:0.0775;stroke-linecap:butt;stroke-linejoin:miter;stroke-miterlimit:10;stroke-dasharray:none;stroke-opacity:1"
       id="path1760"
       inkscape:connector-curvature="0" />
    <path
       d="m 302.16618,314.3968 c -3.315,1.07375 -6.29,3.8025 -7.59375,6.73875 l -0.62625,-0.42875 c 1.5175,-3.21625 4.835,-6.12625 8.47875,-7.17625 l -0.25875,0.86625 z"
       style="fill:#f79a1d;fill-opacity:1;fill-rule:nonzero;stroke:none"
       id="path1768"
       inkscape:connector-curvature="0" />
    <path
       d="m 302.16618,314.3968 c -3.315,1.07375 -6.29,3.8025 -7.59375,6.73875 l -0.62625,-0.42875 c 1.5175,-3.21625 4.835,-6.12625 8.47875,-7.17625 l -0.25875,0.86625 z"
       style="fill:none;stroke:#f79a1d;stroke-width:0.0775;stroke-linecap:butt;stroke-linejoin:miter;stroke-miterlimit:10;stroke-dasharray:none;stroke-opacity:1"
       id="path1776"
       inkscape:connector-curvature="0" />
    <path
       d="m 302.16618,315.15405 c -2.69125,0.86375 -5.87375,3.71875 -7.00625,6.3775 l -0.5875,-0.4075 c 1.4925,-3.30375 4.72,-5.91875 7.87875,-6.815 l -0.285,0.845 z"
       style="fill:#f2ea2f;fill-opacity:1;fill-rule:nonzero;stroke:none"
       id="path1784"
       inkscape:connector-curvature="0" />
    <path
       d="m 302.16618,315.15405 c -2.69125,0.86375 -5.87375,3.71875 -7.00625,6.3775 l -0.5875,-0.4075 c 1.4925,-3.30375 4.72,-5.91875 7.87875,-6.815 l -0.285,0.845 z"
       style="fill:none;stroke:#f2ea2e;stroke-width:0.0775;stroke-linecap:butt;stroke-linejoin:miter;stroke-miterlimit:10;stroke-dasharray:none;stroke-opacity:1"
       id="path1792"
       inkscape:connector-curvature="0" />
    <path
       d="m 302.24293,315.9003 c -2.395,0.83 -5.1925,3.04625 -6.54875,6.01125 l -0.5575,-0.375 c 1.42,-2.96625 4.375,-5.5625 7.3475,-6.48125 l -0.2375,0.84875"
       style="fill:#74c155;fill-opacity:1;fill-rule:nonzero;stroke:none"
       id="path1800"
       inkscape:connector-curvature="0" />
    <path
       d="m 302.24293,315.9003 c -2.395,0.83 -5.1925,3.04625 -6.54875,6.01125 l -0.5575,-0.375 c 1.42,-2.96625 4.375,-5.5625 7.3475,-6.48125 l -0.2375,0.84875"
       style="fill:none;stroke:#74c155;stroke-width:0.0775;stroke-linecap:butt;stroke-linejoin:miter;stroke-miterlimit:10;stroke-dasharray:none;stroke-opacity:1"
       id="path1808"
       inkscape:connector-curvature="0" />
    <path
       d="m 302.27593,316.7233 c -0.845,0.3875 -4.27375,1.7075 -6.0175,5.5975 l -0.57125,-0.40125 c 0.10625,-0.225 2.09625,-4.61375 6.80875,-6.09625 l -0.22,0.885"
       style="fill:#1c4595;fill-opacity:1;fill-rule:nonzero;stroke:none"
       id="path1816"
       inkscape:connector-curvature="0" />
    <path
       d="m 302.27593,316.7233 c -0.845,0.3875 -4.27375,1.7075 -6.0175,5.5975 l -0.57125,-0.40125 c 0.10625,-0.225 2.09625,-4.61375 6.80875,-6.09625 l -0.22,0.885"
       style="fill:none;stroke:#1c4595;stroke-width:0.0775;stroke-linecap:butt;stroke-linejoin:miter;stroke-miterlimit:10;stroke-dasharray:none;stroke-opacity:1"
       id="path1824"
       inkscape:connector-curvature="0" />
    <path
       d="m 302.28668,317.4733 c -3.49875,1.35125 -5.15625,4.405 -5.4975,5.2225 l -0.55625,-0.39 c 1.8025,-4.10125 6.24,-5.67125 6.3725,-5.68875 l -0.315,0.86"
       style="fill:#982584;fill-opacity:1;fill-rule:nonzero;stroke:none"
       id="path1832"
       inkscape:connector-curvature="0" />
    <path
       d="m 302.28668,317.4733 c -3.49875,1.35125 -5.15625,4.405 -5.4975,5.2225 l -0.55625,-0.39 c 1.8025,-4.10125 6.24,-5.67125 6.3725,-5.68875 l -0.315,0.86"
       style="fill:none;stroke:#962583;stroke-width:0.0775;stroke-linecap:butt;stroke-linejoin:miter;stroke-miterlimit:10;stroke-dasharray:none;stroke-opacity:1"
       id="path1840"
       inkscape:connector-curvature="0" />
    <path
       d="m 302.33068,318.2268 c 0,0 -3.565,1.13125 -4.95625,4.89875 l -0.55875,-0.41625 c 0.0312,-0.0525 1.54625,-3.87875 5.77875,-5.33875 l -0.26375,0.85625 z"
       style="fill:#cc9ac6;fill-opacity:1;fill-rule:nonzero;stroke:none"
       id="path1848"
       inkscape:connector-curvature="0" />
    <path
       d="m 302.33068,318.2268 c 0,0 -3.565,1.13125 -4.95625,4.89875 l -0.55875,-0.41625 c 0.0312,-0.0525 1.54625,-3.87875 5.77875,-5.33875 l -0.26375,0.85625 z"
       style="fill:none;stroke:#cc9ac6;stroke-width:0.0775;stroke-linecap:butt;stroke-linejoin:miter;stroke-miterlimit:10;stroke-dasharray:none;stroke-opacity:1"
       id="path1856"
       inkscape:connector-curvature="0" />
    <path
       inkscape:connector-curvature="0"
       id="path1862"
       style="fill:#ee272a;fill-opacity:1;fill-rule:nonzero;stroke:none"
       d="m 275.65943,339.76455 24.62238,0 0,-1.19 -24.62238,0 z"
       sodipodi:nodetypes="ccccc" />
    <path
       d="m 302.7758,347.9963 -1.16625,-0.0337 0,-20.5086 0.60375,-4.5e-4 0.37875,0.006 0.2,0.001 -0.0163,20.5353 z"
       style="fill:#ee272a;fill-opacity:1;fill-rule:nonzero;stroke:none"
       id="path1866"
       inkscape:connector-curvature="0"
       sodipodi:nodetypes="cccccccc" />
    <path
       inkscape:connector-curvature="0"
       id="path1868"
       style="fill:#ee272a;fill-opacity:1;fill-rule:nonzero;stroke:none"
       d="m 274.49318,347.9658 1.18625,0 0,-8.2175 -1.18625,0 0,8.2175 z" />
    <path
       inkscape:connector-curvature="0"
       id="path1870"
       style="fill:#ee272a;fill-opacity:1;fill-rule:nonzero;stroke:none"
       d="m 301.61568,349.06705 -25.94375,0 0,-1.1 25.94375,0 0,1.1 z" />
    <path
       d="m 301.60556,347.96443 1.16,0.004 0.005,0.11875 0.001,0.16375 0,0.19375 -0.03,0.15625 -0.065,0.11875 -0.0575,0.1025 -0.0813,0.0713 -0.095,0.075 -0.125,0.0575 -0.135,0.0275 -0.17,0.007 -0.24,0 -0.18,0"
       style="fill:#ee272a;fill-opacity:1;fill-rule:nonzero;stroke:none"
       id="path1874"
       inkscape:connector-curvature="0" />
    <path
       d="m 301.60693,327.49643 0.81375,-0.91125 0.0975,0.0725 0.0588,0.045 0.0713,0.0875 0.0662,0.1125 0.0312,0.0713 0.0312,0.0987 0.0138,0.12 -0.002,0.14375 0,0.16"
       style="fill:#ee272a;fill-opacity:1;fill-rule:nonzero;stroke:none"
       id="path1878"
       inkscape:connector-curvature="0" />
    <path
       d="m 302.47581,326.6278 -13.22375,-9.26375 -0.17125,-0.11 -0.17125,-0.07 -0.18125,-0.0312 -0.16125,0.006 -0.15625,0.0362 -0.17125,0.08 -0.11875,0.08 -0.41125,0.285 -13.35875,9.3325 0.8275,0.85 13.5,-9.24 12.97375,8.92875 0.82375,-0.88375 z"
       style="fill:#ee272a;fill-opacity:1;fill-rule:nonzero;stroke:none"
       id="path1882"
       inkscape:connector-curvature="0" />
    <path
       d="m 275.65968,339.7533 0,-1.17875 -0.52375,0.001 -0.1425,0.0275 -0.17125,0.0712 -0.135,0.11125 -0.1025,0.14875 -0.0575,0.1325 -0.03,0.175 -0.005,0.1875 10e-4,0.32 1.16625,0.004 z"
       style="fill:#ee272a;fill-opacity:1;fill-rule:nonzero;stroke:none"
       id="path1886"
       inkscape:connector-curvature="0" />
    <path
       d="m 275.6793,347.96393 -0.007,1.1025 -0.41,0 -0.175,-0.0138 -0.135,-0.035 -0.1175,-0.055 -0.12875,-0.10125 -0.115,-0.14 -0.075,-0.165 -0.0213,-0.15125 -0.002,-0.16375 0,-0.1375 10e-4,-0.1375"
       style="fill:#ee272a;fill-opacity:1;fill-rule:nonzero;stroke:none"
       id="path1890"
       inkscape:connector-curvature="0" />
    <g
       id="#1a5ad2ff"
       transform="matrix(0.09644067,0,0,0.09644067,276.28056,341.00619)">
      <path
         d="M 46.79,6.5 62.45,6.5 73.9096,20.99 85.38,6.5 l 15.88,0 -17.94,20.44 18.87,20.8496 -16.35,0 L 73.9096,32.9904 61.504,47.7896 45.27,47.7896 64.33,26.94 Z"
         id="path12"
         inkscape:connector-curvature="0"
         style="opacity:1;fill:#1a5ad2"
         sodipodi:nodetypes="ccccccccccccc" />
      <path
         d="m 2.7504,6.5 41.7592,0 0,9.84 -30.2196,0 0.1,5.9496 28.3996,0 0,9.06 -28.4496,0 -0.01,6.38 30.1796,0 0,10.06 -41.7592,0 z"
         id="path14"
         inkscape:connector-curvature="0"
         style="opacity:1;fill:#1a5ad2"
         sodipodi:nodetypes="ccccccccccccc" />
      <path
         d="m 101.76,6.5 45.6,0 0,10.7304 -16.7896,0 0,30.5592 -11.9904,0 0,-30.5592 -16.82,0 z"
         id="path16"
         inkscape:connector-curvature="0"
         style="opacity:1;fill:#1a5ad2"
         sodipodi:nodetypes="ccccccccc" />
      <path
         d="M 149.8,6.61 187.96,6.5 c 3.75531,-0.010825 7.38453,2.5910799 8.12,6.3 0.89453,4.511087 0.86093,9.228464 0.1,13.75 -0.44908,2.668488 -2.84,4.12 -5.03,5.25 1.9,0.95 4.22896,1.794277 4.68,4.24 0.71054,3.852847 0.49,8.27913 0.49,11.7496 l -12,0 0,-8.7096 c 0,-1.279453 -1.80709,-1.6496 -3.2,-1.6496 l -19.7296,0 0,10.3592 -11.6304,0 L 149.8,6.5 m 11.5904,20.32 22.9296,0 c 3.18284,0 3.17515,-10.08 0,-10.08 l -22.9296,0 z"
         id="path18"
         inkscape:connector-curvature="0"
         style="opacity:1;fill:#1a5ad2"
         sodipodi:nodetypes="cssscsccsscccccsscc" />
      <path
         d="m 197.11,47.75 19.66,-41.25 18.11,0 19.37,41.2896 -13.28,0 -3.25,-7.0896 -24.22,0 -3.33,7.0896 -13.06,0 m 27.54,-31.5496 -7.35,15.3504 16.67,0 -7.28,-15.3504 c -0.29138,-0.614406 -1.74633,-0.613319 -2.04,0 z"
         id="path20"
         inkscape:connector-curvature="0"
         style="opacity:1;fill:#1a5ad2"
         sodipodi:nodetypes="cccccccccsccss" />
    </g>
    <g
       id="g4655"
       transform="matrix(0.9338388,0,0,0.9338388,-8.4619108,24.805032)">
      <path
         d="m 325.58734,325.50914 c 0.40884,-0.24361 0.89567,-0.31384 1.36476,-0.30682 0.3837,0.0237 0.78403,0.11386 1.08863,0.36079 0.26541,0.22068 0.43988,0.587 0.34858,0.933 -0.0455,0.18741 -0.19185,0.3752 -0.3959,0.39257 -0.16967,0.0214 -0.35782,0.031 -0.50901,-0.0617 -0.18187,-0.16708 -0.19666,-0.4288 -0.23103,-0.65724 -0.024,-0.14897 -0.0322,-0.33084 -0.16931,-0.4251 -0.17817,-0.11866 -0.41216,-0.0921 -0.60475,-0.0259 -0.2022,0.12716 -0.28315,0.37483 -0.30718,0.60106 -0.0632,0.73893 -0.024,1.48083 -0.0399,2.22124 0.42029,0.0259 0.8417,0.0251 1.26273,0.01 0.0144,0.1438 0.0277,0.28796 0.0399,0.43213 -0.42548,0.0214 -0.85132,0.0126 -1.27679,0.0107 0.0211,1.38694 -0.004,2.77387 0.0137,4.16044 -0.009,0.13604 0.0754,0.26985 0.20331,0.31828 0.22401,0.0931 0.4739,0.0518 0.70789,0.10128 3.7e-4,0.13308 0.0998,0.33971 -0.0521,0.4203 -0.41807,0.0395 -0.83985,-0.007 -1.25866,-0.0214 -0.66168,-0.0492 -1.32484,0.0928 -1.98504,10e-4 0.009,-0.12568 0.0181,-0.25099 0.0296,-0.37593 0.24841,-0.0566 0.52047,-0.0673 0.7297,-0.22956 0.0336,-0.16782 0.037,-0.33971 0.0373,-0.51012 -0.003,-1.28824 -0.01,-2.57611 0.004,-3.86398 -0.26578,0.007 -0.53193,7.4e-4 -0.79476,-0.0414 0.006,-0.12569 0.0144,-0.25174 0.0222,-0.37742 0.25765,-0.009 0.51456,-0.0281 0.77184,-0.0407 -0.0107,-0.69717 -0.0126,-1.41873 0.25062,-2.07634 0.15563,-0.3752 0.39294,-0.7382 0.74929,-0.94927 z"
         id="path26"
         inkscape:connector-curvature="0"
         style="opacity:1;fill:#13923b;fill-opacity:1" />
      <path
         d="m 307.1653,325.88692 c 0.41549,-0.0939 0.84392,-0.10498 1.26865,-0.11311 0.92857,-0.0148 1.85492,0.0913 2.76833,0.25358 0.1109,0.02 0.23806,0.0917 0.24841,0.21588 0.0137,0.61769 -0.0118,1.23575 0.009,1.85307 -0.25469,0.0433 -0.51788,0.0462 -0.77035,-0.0129 -0.0839,-0.48942 -0.15489,-1.02911 -0.51641,-1.40172 -0.34008,-0.32826 -0.83615,-0.42511 -1.29379,-0.42289 -0.37039,0.01 -0.75409,0.0266 -1.0975,0.18113 -0.48942,0.21034 -0.88236,0.62915 -1.06497,1.12929 -0.3508,0.87941 -0.31679,1.84457 -0.31088,2.77388 0.009,0.83985 0.0898,1.72111 0.53304,2.45635 0.25913,0.45134 0.75077,0.72637 1.25424,0.81102 0.36189,0.071 0.73524,0.0529 1.09787,-0.004 0.43952,-0.0791 0.87053,-0.33602 1.06645,-0.74966 0.20183,-0.37261 0.24027,-0.80067 0.3264,-1.20876 0.26135,-0.0104 0.52306,-0.01 0.78441,-0.003 10e-4,0.6979 -0.005,1.39581 -0.006,2.09372 -0.8088,0.26799 -1.66011,0.38406 -2.50884,0.4177 -0.79512,0.0178 -1.61612,0.0336 -2.37021,-0.25728 -0.61547,-0.21994 -1.15369,-0.65206 -1.4849,-1.21689 -0.34858,-0.59662 -0.47205,-1.29046 -0.54782,-1.96804 -0.0758,-1.06349 -0.002,-2.16801 0.4373,-3.15314 0.38887,-0.87793 1.25903,-1.46678 2.17762,-1.67453 z"
         id="path28"
         inkscape:connector-curvature="0"
         style="opacity:1;fill:#13923b;fill-opacity:1" />
      <path
         d="m 328.41408,326.79812 c 0.52121,-0.0946 1.0073,-0.32604 1.5311,-0.4118 -0.0373,0.72194 -0.037,1.44535 -0.0214,2.16802 0.36707,0.01 0.73413,0.01 1.10157,0.003 0.01,0.13936 0.02,0.27908 0.0307,0.41881 -0.36781,0.0307 -0.73783,0.0259 -1.106,0.01 -0.0525,0.90824 -0.0266,1.8187 -0.0266,2.72768 0.004,0.40403 -0.0203,0.81101 0.0418,1.21209 0.0307,0.20516 0.13936,0.42436 0.34858,0.49496 0.35118,0.13419 0.72822,0.01 1.08568,-0.027 -7.4e-4,0.13936 -0.031,0.30459 -0.16228,0.38111 -0.6273,0.33639 -1.37068,0.42732 -2.06821,0.30792 -0.44469,-0.10757 -0.74855,-0.55411 -0.76149,-0.99954 -0.0606,-1.36476 0.0307,-2.73174 -0.0462,-4.09576 -0.2473,0.0163 -0.49534,0.004 -0.7419,-0.0196 0.004,-0.13566 0.009,-0.27132 0.014,-0.40662 0.24841,0 0.49681,-0.004 0.74522,-0.008 0.0296,-0.58442 -0.0163,-1.17069 0.0355,-1.75474 z"
         id="path30"
         inkscape:connector-curvature="0"
         style="opacity:1;fill:#13923b;fill-opacity:1" />
      <path
         d="m 314.97386,328.785 c 0.32566,-0.25062 0.73117,-0.44543 1.15257,-0.39183 0.24102,0.0288 0.49164,0.10609 0.65614,0.29535 0.29387,0.32678 0.36078,0.82544 0.20294,1.23021 -0.0706,0.1693 -0.24693,0.26985 -0.42251,0.29535 -0.18594,0.0174 -0.39258,0.0137 -0.55633,-0.0861 -0.25543,-0.22253 -0.15747,-0.61214 -0.34082,-0.87349 -0.23251,-0.11422 -0.5482,-0.0699 -0.70863,0.14343 -0.34599,0.51714 -0.29794,1.16884 -0.29239,1.76176 -0.003,0.33195 0.01,0.66427 -0.003,0.99622 -0.0148,0.43841 -0.0263,0.88754 0.10017,1.31264 0.29351,0.0333 0.59182,0.0706 0.86536,0.19 -0.003,0.0994 -0.006,0.19924 -0.008,0.29905 -0.34452,0.0824 -0.70012,0.0399 -1.04981,0.0325 -0.75114,-0.0207 -1.50264,10e-4 -2.25378,0.0229 -0.014,-0.13899 -0.0281,-0.27761 -0.0414,-0.41623 0.2022,-0.0488 0.4214,-0.0392 0.60993,-0.13566 0.11422,-0.0543 0.1741,-0.18224 0.1693,-0.30534 0.017,-1.15923 -0.002,-2.31883 0.009,-3.47806 -0.007,-0.1804 0.0174,-0.37225 -0.0617,-0.54081 -0.19333,-0.16338 -0.46318,-0.12457 -0.69754,-0.14897 -0.0118,-0.1401 -0.0233,-0.28019 -0.0355,-0.41992 0.78441,0.008 1.5677,-0.0436 2.351,-0.0773 0.003,0.18889 0.006,0.37815 0.0126,0.56705 0.12568,-0.0754 0.22179,-0.18964 0.3423,-0.27281 z"
         id="path32"
         inkscape:connector-curvature="0"
         style="opacity:1;fill:#13923b;fill-opacity:1" />
      <path
         d="m 319.52429,328.45638 c 0.52527,-0.071 1.05979,-0.0754 1.58581,-0.008 0.31273,0.0392 0.63063,0.12383 0.88865,0.31236 0.26319,0.19148 0.44432,0.48609 0.51234,0.80325 0.10682,0.47427 0.0403,0.96221 0.0621,1.44313 0.0322,0.82137 -0.0824,1.6542 0.088,2.46595 0.2303,0.0303 0.46059,0.0595 0.69052,0.0921 0.01,0.10942 0.0396,0.21883 0.0274,0.32936 -0.006,0.078 -0.0902,0.1035 -0.15562,0.10128 -0.67018,0.0181 -1.34406,-0.0259 -2.01129,0.0566 -0.0488,-0.16597 -0.10313,-0.3301 -0.1486,-0.49681 -0.40144,0.17521 -0.75668,0.47463 -1.20285,0.53636 -0.51603,0.0706 -1.09084,0.0883 -1.54441,-0.20885 -0.42177,-0.27502 -0.60069,-0.79845 -0.59662,-1.28344 -0.0144,-0.42029 0.0558,-0.87423 0.35561,-1.19139 0.27465,-0.32751 0.70788,-0.43508 1.11191,-0.49459 0.59071,-0.0939 1.19066,-0.0617 1.78617,-0.0599 -0.005,-0.49127 0.027,-0.98365 -0.0181,-1.47381 -0.0159,-0.19148 -0.14786,-0.36189 -0.31864,-0.44395 -0.17078,-0.0906 -0.37076,-0.0554 -0.55595,-0.0651 -0.20036,-0.009 -0.44137,0.0536 -0.52343,0.25802 -0.13899,0.32862 -0.14047,0.6931 -0.23104,1.0354 -0.32344,0.0444 -0.65133,0.0458 -0.97662,0.027 -0.31753,-0.42214 -0.14306,-1.05055 0.25321,-1.3581 0.25876,-0.21847 0.58997,-0.33047 0.92155,-0.37668 m 0.37335,2.96314 c -0.27392,0.12236 -0.41032,0.42067 -0.46614,0.69975 -0.0495,0.30608 -0.0288,0.62509 0.0566,0.92303 0.12901,0.29018 0.48129,0.41179 0.7796,0.3678 0.31051,-0.0303 0.61917,-0.25173 0.6687,-0.5737 0.0739,-0.50088 0.0277,-1.00841 0.0385,-1.51188 -0.35857,0.0126 -0.73894,-0.0584 -1.07717,0.095 z"
         id="path34"
         inkscape:connector-curvature="0"
         style="opacity:1;fill:#13923b;fill-opacity:1" />
    </g>
  </g>
</svg>
