<svg height="9.519913mm" viewBox="0 0 28.441249 33.731974" width="8.026753mm" xmlns="http://www.w3.org/2000/svg"><g transform="translate(-274.35081 -312.63908)"><g fill="#7ac476"><path d="m280.99643 332.56293v1.20875c0 .0462-.015.0825-.0437.105-.03.0237-.095.045-.195.0625-.3825.0837-.73125.14125-1.04625.175-.315.0337-.6375.0513-.96625.0513-.97125 0-1.68625-.225-2.14375-.67625-.4575-.45-.68625-1.15625-.68625-2.11625 0-.98625.23875-1.7125.71625-2.18.47625-.4675 1.22-.70125 2.23-.70125.26875 0 .56125.015.88125.0463.32.03.65625.075 1.01125.13375.10875.02.17375.0425.19375.065.0213.0238.0325.0675.0325.135v1.10375c0 .0412-.0113.07-.0325.0875-.02.0163-.0587.025-.115.025h-.22125c-.135 0-.21125-.0762-.23-.22875-.009-.0437-.015-.0762-.0175-.1-.0637-.3375-.1975-.5775-.4-.7225-.2025-.14375-.505-.21625-.90625-.21625-.63375 0-1.09125.19125-1.37125.57375-.28125.3825-.42125 1.01375-.42125 1.89375 0 .91.1325 1.5575.3975 1.945s.7025.58125 1.31125.58125c.41875 0 .73375-.0775.94625-.23125.2125-.155.35375-.41125.4275-.76875.005-.0337.0125-.08.02-.13875.0225-.155.0838-.2325.185-.2325h.24625c.0763 0 .1275.009.155.0275.0288.0175.0425.0487.0425.0925"/><path d="m282.18781 333.27368v-2.14375c0-.1825-.0163-.29875-.05-.35125-.0337-.0512-.1025-.0813-.20625-.0888l-.1975-.015c-.0925-.007-.13875-.055-.13875-.14375 0-.07.007-.1125.0225-.12875.0162-.015.055-.0238.11625-.0238h.21375c.20375 0 .39625-.002.57625-.007.18125-.006.35375-.015.51875-.0263l.15375-.0212h.025c.0362.004.0612.0112.075.0237.0138.0113.0213.0325.0213.0625v.365c.15875-.175.32-.3025.48125-.38375.16-.0813.335-.12125.5225-.12125.24875 0 .4425.0663.58.19875.13625.1325.205.32.205.5625 0 .1625-.04.28125-.12.355-.0813.075-.20875.1125-.3825.1125-.10625 0-.1925-.0225-.25875-.0675-.0662-.0462-.105-.105-.11625-.1775-.005-.025-.0113-.0587-.0175-.1-.0337-.23875-.1375-.3575-.31375-.3575-.18375 0-.32.0825-.41125.2475-.09.16625-.135.41375-.135.745v1.485c0 .20125.0188.32375.0587.36875.0387.045.11625.0725.23125.0825l.22.0238c.0163.002.0387.005.0675.007.075.005.11375.0463.11375.125 0 .0738-.01.11875-.03.1375-.0188.0175-.0638.0263-.13375.0263-.02 0-.065-.001-.13875-.005-.35125-.0188-.695-.0288-1.03-.0288-.2575 0-.53.009-.8175.025-.075.006-.1225.009-.1425.009-.0675 0-.11-.009-.1275-.0263-.0188-.0188-.0275-.0638-.0275-.1375 0-.0787.0337-.12.10125-.125.0188-.002.0375-.005.0538-.007l.18125-.0238c.10125-.01.16875-.0425.20375-.0962s.0525-.1725.0525-.355"/><path d="m286.75543 331.92655h1.2625v-.44375c0-.31875-.05-.5475-.15-.68625s-.26125-.20875-.48375-.20875c-.2275 0-.38875.0662-.485.19875-.0962.1325-.14375.35875-.14375.6775zm0 .32875c-.002.0388-.005.08-.006.12375-.001.0437-.002.10625-.002.185 0 .45875.0587.78125.1775.96875.1175.1875.3175.28125.5975.28125.1975 0 .35875-.0475.48375-.14375.125-.0962.2175-.2425.275-.4375.009-.0263.0175-.0575.025-.0962.0312-.13375.1075-.2.2275-.2h.29125c.0762 0 .125.01.1475.0325s.0337.075.0337.16c0 .3325-.13875.5825-.41625.75-.2775.16875-.6925.25375-1.245.25375-.655 0-1.125-.145-1.41125-.43375-.28625-.29-.42875-.765-.42875-1.425 0-.72.1475-1.23375.4425-1.5425.29625-.3075.79-.4625 1.48375-.4625.62125 0 1.0625.135 1.325.4025.26125.26875.3925.72625.3925 1.3725 0 .0875-.0112.145-.0325.17125-.0225.0275-.0675.04-.135.04h-2.225"/><path d="m292.28993 332.23393h-.43125c-.24125 0-.42375.0638-.5475.1925-.1225.1275-.185.3175-.185.57125 0 .2175.045.38.13375.48875.0888.10875.22125.16375.39625.16375.21625 0 .37625-.0575.48-.17375.1025-.115.15375-.29375.15375-.53625zm.05 1.47125c-.21125.14625-.42.25375-.6225.32375-.20375.0688-.41625.10375-.63625.10375-.385 0-.67875-.0925-.88-.2775-.2025-.185-.30375-.4525-.30375-.805 0-.3825.12375-.66375.37-.8425.24625-.18.63375-.27 1.16375-.27h.85875v-.8175c0-.19375-.0463-.335-.14-.4225s-.245-.13125-.455-.13125c-.19 0-.32625.0425-.40875.1275s-.13125.24125-.14875.46875c-.0113.13625-.0475.225-.11125.265-.0625.04-.17625.06-.34.06-.1625 0-.2775-.0213-.34625-.0638-.0675-.0425-.1025-.11375-.1025-.21375 0-.31625.13125-.5525.39375-.7075s.6575-.23375 1.185-.23375c.59125 0 1.0125.0962 1.2625.28625.25.19.375.51375.375.97125v1.72c0 .20625.015.335.0475.38625.0325.0512.0975.0813.19875.0888l.20875.0163c.0913.005.1375.055.1375.15125 0 .0625-.007.10375-.0238.1225-.015.02-.045.03-.0888.03h-.0337l-.21375-.007h-.3875c-.195 0-.385.006-.57.0188-.03.001-.0487.002-.0537.002l-.14625.015h-.025c-.025 0-.0437-.004-.055-.0138-.0113-.009-.0225-.0275-.0337-.0575l-.075-.29375"/><path d="m294.90718 333.14442v-2.46875h-.4075c-.07 0-.1125-.005-.13-.0138-.0163-.009-.025-.0288-.025-.06v-.07c0-.009-.001-.0188-.004-.03-.002-.0112-.004-.0213-.004-.0288 0-.0337.01-.0587.0312-.0725.02-.0138.0638-.0213.13125-.0213h.4075v-1.09c0-.0288.0125-.0525.035-.0725.0238-.0188.065-.0362.12375-.0525.20625-.0512.41-.1075.61-.16625.2-.06.30625-.09.3175-.09.0163 0 .0312.009.0462.0263.0138.0163.02.0362.02.06 0 .007-.001.0225-.004.0462-.025.135-.0375.27-.0375.4075v.93125h.6725c.0663 0 .11.004.1275.0113.0188.007.0275.0275.0275.0587v.0738c0 .009.002.0188.009.0312.005.0138.008.0238.008.0312 0 .0312-.009.0537-.0288.0688-.02.0137-.0675.0213-.1425.0213h-.66375v2.2225c0 .32.0387.5325.1175.6375.0775.105.22.1575.42375.1575.0875 0 .17625-.007.26625-.0225.0913-.015.18125-.0362.2675-.0612l-.025.2275c-.1625.0937-.34875.16625-.56125.2175-.2125.0525-.4325.0775-.6575.0775-.335 0-.5775-.0762-.7275-.23125-.14875-.15375-.22375-.40625-.22375-.75625"/><path d="m298.61881 331.92655h1.2625v-.44375c0-.31875-.05-.5475-.15-.68625s-.26125-.20875-.48375-.20875c-.2275 0-.39.0662-.485.19875-.0962.1325-.14375.35875-.14375.6775zm0 .32875c-.002.0388-.005.08-.006.12375-.001.0437-.002.10625-.002.185 0 .45875.0588.78125.1775.96875.1175.1875.3175.28125.5975.28125.1975 0 .35875-.0475.48375-.14375.125-.0962.2175-.2425.275-.4375.009-.0263.0175-.0575.0263-.0962.03-.13375.10625-.2.22625-.2h.29125c.0762 0 .125.01.1475.0325s.0337.075.0337.16c0 .3325-.13875.5825-.41625.75-.2775.16875-.6925.25375-1.245.25375-.655 0-1.125-.145-1.41125-.43375-.28625-.29-.42875-.765-.42875-1.425 0-.72.1475-1.23375.4425-1.5425.29625-.3075.79-.4625 1.48375-.4625.62125 0 1.0625.135 1.325.4025.26125.26875.3925.72625.3925 1.3725 0 .0875-.0112.145-.0325.17125-.0225.0275-.0675.04-.135.04h-2.225"/></g><g fill="#fff"><path d="m279.87443 341.32805h1.04375c.009.1725.0125.28375.0125.33375 0 .27125-.04.48375-.11875.6375-.0863.1725-.25625.29-.50875.35125-.25375.0625-.69.0937-1.31125.0937-.6525 0-1.1175-.0138-1.395-.0387-.27625-.0263-.48625-.0763-.62625-.15-.125-.0675-.22-.1575-.28125-.27125-.0625-.11375-.1025-.26875-.12-.4675-.015-.16-.0238-.44875-.0238-.8675 0-.4075.007-.7025.0225-.8825.0163-.18125.045-.32125.0888-.42125.095-.22375.28875-.36875.57875-.435.29125-.0663.87875-.0987 1.7625-.0987.44125 0 .7625.01.96375.03.2.0213.36.06.47875.11625.155.0762.265.18875.32875.3375.0638.14875.095.3675.095.6575 0 .015 0 .0738-.001.175h-1.04375c-.005-.1175-.0125-.19625-.0213-.23625-.01-.04-.0288-.0725-.0562-.0987-.0413-.0362-.1425-.0625-.305-.0788-.1625-.0175-.4075-.025-.7375-.025-.3275 0-.5525.007-.67875.0213-.125.015-.21375.0437-.26625.0875-.0613.0512-.105.13875-.12875.26125-.025.12125-.0362.31625-.0362.58375 0 .26625.01.455.0325.565.0212.10875.0637.1875.125.23625.0587.0462.1525.0775.28.0925.12875.0163.355.0238.68.0238.4 0 .66625-.007.8-.0213.1325-.0137.2225-.0437.27-.09.0613-.06.0937-.20125.0975-.42125"/><path d="m282.84681 340.91105h1.46875c.25625-.005.41-.01.45875-.0138.05-.005.0925-.0175.1275-.04.045-.0288.0775-.0725.0962-.13.0175-.0563.0275-.14375.0275-.26 0-.11375-.0112-.2-.0312-.25625-.0213-.0562-.0587-.0975-.11-.1225-.0375-.0175-.0813-.0275-.1325-.0312-.0512-.004-.1975-.006-.43875-.007h-1.46625v.86125zm-1.0425 1.7775v-3.5225h2.52125c.59375.001.94875.009 1.06625.02.1175.0112.23.0512.34.11875.13.0813.22.1925.26875.335.0487.14125.0725.365.0725.66875 0 .25625-.015.445-.0462.565-.0312.12125-.09.2175-.175.29-.0925.0775-.2325.13-.41875.15875.22.0175.3775.0825.47375.195.055.0663.09.1475.105.24375.015.095.0225.29625.0225.6v.3275h-1.03125v-.1875c0-.19625-.007-.33625-.0213-.41875-.0138-.0837-.04-.1475-.0788-.1925-.0387-.0412-.0925-.0675-.16-.0787-.0675-.0113-.20875-.0163-.425-.0163h-1.47125v.89375h-1.0425"/><path d="m289.99918 341.31705-.66-1.33375h-.20875l-.66 1.33375zm.66 1.37125-.29375-.5975h-2.26625l-.29375.5975h-1.19125l1.81625-3.5225h1.62125l1.7925 3.5225z"/><path d="m292.5163 339.16618h3.62125v.82875h-2.57875v.66375h2.4525v.8125h-2.4525v1.2175h-1.0425z"/><path d="m296.64855 339.16618h4.14875v.9h-1.52625v2.6225h-1.0975v-2.6225h-1.525z"/></g><g fill="#ee272a"><path d="m292.92968 336.75555-.415-.7625h-.13125l-.41625.7625zm.415.76875-.18375-.335h-1.4275l-.185.335h-.75l1.14375-1.9925h1.02125l1.1275 1.9925z"/><path d="m294.43155 335.53193h1.15125l1.13 1.4875h.0675l-.015-1.4875h.6675v1.99125h-1.1425l-1.13375-1.48625h-.0712l.015 1.48625h-.66875v-1.99125z"/><path d="m298.61693 337.01893h.915c.16875 0 .2925-.005.37125-.015.08-.01.13625-.0288.16875-.0538.035-.0288.0612-.0725.0763-.13375.0137-.0625.0212-.155.0212-.27875 0-.1225-.006-.21625-.0187-.27875-.0125-.0625-.035-.11-.0663-.1425-.0362-.0362-.0875-.06-.155-.07-.0688-.01-.2025-.015-.40375-.015h-.90875v.9875zm-.6425.505v-1.9925h1.55125c.27625 0 .45625.002.54125.006s.175.015.2675.0325c.215.04.35625.15375.42125.33875.0238.07.04.145.0488.225.009.08.0125.20125.0125.36375 0 .17875-.005.3125-.015.405-.01.0913-.0288.17375-.0563.24875-.0637.175-.19625.28375-.39625.32375-.0937.02-.19375.0325-.3.0387-.10625.006-.28.01-.5225.01h-1.5525"/><path d="m302.38218 312.69543c-4.09125 1.14125-7.395 3.92-9.14875 7.485l.70125.49375c1.39125-2.9975 4.71625-5.97625 8.165-7.05625z"/></g><path d="m302.38218 312.69543c-4.09125 1.14125-7.395 3.92-9.14875 7.485l.70125.49375c1.39125-2.9975 4.71625-5.97625 8.165-7.05625z" fill="none" stroke="#ee272a" stroke-miterlimit="10" stroke-width=".0775"/><path d="m302.16618 314.3968c-3.315 1.07375-6.29 3.8025-7.59375 6.73875l-.62625-.42875c1.5175-3.21625 4.835-6.12625 8.47875-7.17625z" fill="#f79a1d"/><path d="m302.16618 314.3968c-3.315 1.07375-6.29 3.8025-7.59375 6.73875l-.62625-.42875c1.5175-3.21625 4.835-6.12625 8.47875-7.17625z" fill="none" stroke="#f79a1d" stroke-miterlimit="10" stroke-width=".0775"/><path d="m302.16618 315.15405c-2.69125.86375-5.87375 3.71875-7.00625 6.3775l-.5875-.4075c1.4925-3.30375 4.72-5.91875 7.87875-6.815z" fill="#f2ea2f"/><path d="m302.16618 315.15405c-2.69125.86375-5.87375 3.71875-7.00625 6.3775l-.5875-.4075c1.4925-3.30375 4.72-5.91875 7.87875-6.815z" fill="none" stroke="#f2ea2e" stroke-miterlimit="10" stroke-width=".0775"/><path d="m302.24293 315.9003c-2.395.83-5.1925 3.04625-6.54875 6.01125l-.5575-.375c1.42-2.96625 4.375-5.5625 7.3475-6.48125l-.2375.84875" fill="#74c155"/><path d="m302.24293 315.9003c-2.395.83-5.1925 3.04625-6.54875 6.01125l-.5575-.375c1.42-2.96625 4.375-5.5625 7.3475-6.48125l-.2375.84875" fill="none" stroke="#74c155" stroke-miterlimit="10" stroke-width=".0775"/><path d="m302.27593 316.7233c-.845.3875-4.27375 1.7075-6.0175 5.5975l-.57125-.40125c.10625-.225 2.09625-4.61375 6.80875-6.09625l-.22.885" fill="#1c4595"/><path d="m302.27593 316.7233c-.845.3875-4.27375 1.7075-6.0175 5.5975l-.57125-.40125c.10625-.225 2.09625-4.61375 6.80875-6.09625l-.22.885" fill="none" stroke="#1c4595" stroke-miterlimit="10" stroke-width=".0775"/><path d="m302.28668 317.4733c-3.49875 1.35125-5.15625 4.405-5.4975 5.2225l-.55625-.39c1.8025-4.10125 6.24-5.67125 6.3725-5.68875l-.315.86" fill="#982584"/><path d="m302.28668 317.4733c-3.49875 1.35125-5.15625 4.405-5.4975 5.2225l-.55625-.39c1.8025-4.10125 6.24-5.67125 6.3725-5.68875l-.315.86" fill="none" stroke="#962583" stroke-miterlimit="10" stroke-width=".0775"/><path d="m302.33068 318.2268s-3.565 1.13125-4.95625 4.89875l-.55875-.41625c.0312-.0525 1.54625-3.87875 5.77875-5.33875z" fill="#cc9ac6"/><path d="m302.33068 318.2268s-3.565 1.13125-4.95625 4.89875l-.55875-.41625c.0312-.0525 1.54625-3.87875 5.77875-5.33875z" fill="none" stroke="#cc9ac6" stroke-miterlimit="10" stroke-width=".0775"/><g fill="#ee272a"><path d="m275.65943 337.06855h13.7375v-1.19h-13.7375z"/><path d="m302.7758 345.3003-1.16625-.0337v-17.81h.60375l.37875.006.2.001-.0163 17.83625z"/><path d="m274.49318 345.2698h1.18625v-8.2175h-1.18625z"/><path d="m301.61568 346.37105h-25.94375v-1.1h25.94375z"/><path d="m301.60556 345.26843 1.16.004.005.11875.001.16375v.19375l-.03.15625-.065.11875-.0575.1025-.0813.0713-.095.075-.125.0575-.135.0275-.17.007h-.24-.18"/><path d="m301.60693 327.49643.81375-.91125.0975.0725.0588.045.0713.0875.0662.1125.0312.0713.0312.0987.0138.12-.002.14375v.16"/><path d="m302.47581 326.6278-13.22375-9.26375-.17125-.11-.17125-.07-.18125-.0312-.16125.006-.15625.0362-.17125.08-.11875.08-.41125.285-13.35875 9.3325.8275.85 13.5-9.24 12.97375 8.92875.82375-.88375z"/><path d="m275.65968 337.0573v-1.17875l-.52375.001-.1425.0275-.17125.0712-.135.11125-.1025.14875-.0575.1325-.03.175-.005.1875.001.32 1.16625.004z"/><path d="m275.6793 345.26793-.007 1.1025h-.41l-.175-.0138-.135-.035-.1175-.055-.12875-.10125-.115-.14-.075-.165-.0213-.15125-.002-.16375v-.1375l.001-.1375"/></g></g></svg>