<svg height="715.58698pt" viewBox="0 0 1063.2952 715.58698" width="1063.2952pt" xmlns="http://www.w3.org/2000/svg"><g fill="#f0f0f0" transform="translate(-194.98487 -141.70884)"><path d="m224.77 160.67c19.13-14.37 43.73-19.7 67.31-18.88 21.03.87 42.52 6.71 59.25 19.89 12.11 9.4 20.71 23.22 23.51 38.32 1.79 8.3 1.4 16.82 1.4 25.24-17.22.04-34.45-.02-51.67.03.05-7.58-.51-15.55-4.68-22.13-6.56-10.75-19.7-15.91-31.92-15.68-11.33-.15-23.38 3.86-30.58 12.99-5.39 6.56-7.11 15.25-7.13 23.53-.01 21.68-.02 43.36 0 65.04 0 8.94 2.46 18.28 8.77 24.89 7.27 8 18.35 11.52 28.94 11.62 10.41.23 21.28-3.35 28.48-11.1 6.89-7.19 8.51-17.6 8.05-27.17 17.25-.03 34.49-.01 51.74-.01.09 10.32.38 20.83-2.51 30.86-4.42 17.27-16.89 31.75-32.34 40.29-19.76 11.01-43.12 14.33-65.45 12.25-19.42-1.78-38.99-7.87-54.3-20.29-12.63-9.96-21.36-24.55-24.59-40.28-1.75-7.56-1.9-15.35-2.06-23.07.02-18.34.01-36.69.01-55.04-.01-9.67.07-19.45 2.31-28.92 3.73-16.8 13.6-32.15 27.46-42.38z"/><path d="m398.69 145.61c27.42-.26 54.86-.04 82.28-.11 9.7.13 19.46-.49 29.1.92 16.99 2.16 33.95 9.03 45.75 21.77 12.98 13.67 18.37 33.18 17.25 51.71-.66 13.91-4.95 27.78-13.12 39.14-6.93 9.74-16.74 17.32-27.75 21.93 16.54 28.9 33.47 57.58 49.93 86.53-19.94-.05-39.89.1-59.82-.06-.2-.2-.61-.6-.81-.8-14.27-25.86-28.65-51.67-42.81-77.6-8.23-.09-16.46-.02-24.69-.04-.03 26.17.05 52.35-.03 78.52-18.42-.08-36.83.07-55.24-.08.01-73.94.08-147.89-.04-221.83m55.32 43.63c-.02 19.51-.02 39.01 0 58.51 11.34 0 22.67-.01 34.01.01 7.25-.01 14.73-1.69 20.65-6.04 6.06-4.31 9.7-11.45 10.53-18.76 1.14-8.8-.75-18.55-7.13-25.06-5.94-6.11-14.71-8.44-23.01-8.64-11.68-.04-23.36.01-35.05-.02z"/><path d="m600.51 145.5c18.43.06 36.88-.14 55.32.11-.24 73.98.09 147.97-.17 221.95-18.38-.14-36.77-.01-55.16-.07-.01-73.99-.01-147.99.01-221.99z"/><path d="m683.22 145.55c22.85-.09 45.7-.09 68.55 0 14.84 38.24 29.71 76.47 44.62 114.68 14.74-38.18 29.15-76.49 43.79-114.72 22.49-.07 44.98.08 67.47-.07.2 74.02.1 148.06.05 222.09-16.98-.07-33.96 0-50.95-.04-.01-47.2.01-94.4-.01-141.6-14.33 37.16-28.03 74.58-42.1 111.84-12.67 0-25.35.11-38.02-.06-14.09-37.13-27.96-74.35-42.31-111.36-.14 47.06-.01 94.12-.07 141.18-17 .01-34 .04-51-.01 0-73.98.04-147.95-.02-221.93z"/><path d="m935.19 367.41c.17-73.98-.04-147.96.1-221.93 50.99.05 101.97-.01 152.96.03-.04 15.09.09 30.18-.07 45.28-32.56-.08-65.12-.02-97.67-.03-.01 14-.03 28 .01 42 29.43.04 58.86-.13 88.28.09-.11 15.04-.02 30.09-.04 45.14-29.42.03-58.84 0-88.25.01.04 14.6-.11 29.2.07 43.8 32.73-.09 65.46-.07 98.18-.01-.06 15.25.08 30.5-.07 45.74-51.17-.13-102.34.12-153.5-.12z"/><path d="m860.24 401.21c15.5-11.19 34.79-16.1 53.74-16.43 17.49.03 35.5 1.5 51.63 8.8 12.36 5.5 23 14.46 31.25 25.11-11.73 10.08-23.27 20.37-34.9 30.57-11.26-14.36-30.1-21.07-47.96-20.53-7.81.14-16.28 1.57-22.31 6.93-6.95 5.99-8.1 18.3-1 24.62 5.46 4.71 12.53 6.88 19.34 8.87 14.29 3.9 28.61 7.76 42.91 11.65 12.84 3.67 25.45 9.69 34.63 19.63 10.39 10.68 15.15 25.89 14.96 40.6.42 14.97-4.2 30.14-13.48 41.97-10.04 13.01-24.86 21.63-40.41 26.39-17.03 5.35-35.16 5.71-52.8 4.08-16.88-1.72-33.8-6.09-48.39-14.99-10.31-6.18-19.23-14.58-26.11-24.43 11.67-10.53 23.33-21.08 34.97-31.66 15.72 22.27 45.81 32.96 72.12 26.1 6.32-1.73 12.83-5.04 15.97-11.08 3.53-7.29 1.58-16.98-4.94-21.96-7.61-5.95-17.41-7.62-26.49-10.16-12.17-3.35-24.5-6.14-36.54-9.94-15.06-5.01-29.59-14.17-37.36-28.42-7.28-13.31-8.5-29.27-5.93-44.01 3.04-16.79 13.23-31.9 27.1-41.71z"/><path d="m398.71 388.58c18.39-.25 36.78.08 55.16-.16.29 74.11.06 148.22.12 222.34-17.12-.1-34.25.16-51.37-.13-22.18-34.83-44.66-69.46-66.96-104.21-4.32-6.5-8.24-13.27-12.83-19.58-.19 41.3-.02 82.61-.08 123.91-18.43-.03-36.86.08-55.28-.06.08-73.98 0-147.96.04-221.93 17.81-.02 35.61-.01 53.42-.01 25.99 39.69 51.77 79.53 77.81 119.19-.01-39.79.05-79.57-.03-119.36z"/><path d="m663.51 388.5c50.99-.01 101.99-.01 152.98.01.04 15.14-.03 30.29.04 45.43-32.59.14-65.18.01-97.77.07-.01 13.99-.01 27.99 0 41.98 29.41.02 58.82 0 88.24.01v45c-29.42.01-58.83-.01-88.24.01-.01 14.66-.01 29.32 0 43.99 32.83.01 65.66-.01 98.49.01.02 15.14-.02 30.29.02 45.44-51.26.12-102.51.03-153.77.04 0-73.99-.01-147.99.01-221.99z"/><path d="m1203.03 388.49c18.41.07 36.83-.09 55.25.08-.05 73.95-.04 147.91-.01 221.87-18.41.16-36.82-.01-55.23.08-.08-74.01-.05-148.02-.01-222.03z"/><path d="m195.23 388.53c18.34-.07 36.68-.02 55.01-.02.02 73.99.01 147.99.01 221.98-18.34 0-36.68.05-55.02-.02.03-73.98.03-147.96 0-221.94z"/><path d="m461.89 388.51c18.94-.01 37.88-.04 56.81.02 11.97 45.33 23.92 90.67 35.88 136 2.08 6.91 3.19 14.18 5.92 20.86 14.29-52.26 28.47-104.55 42.62-156.85 17.51-.08 35.01-.05 52.52-.01-23.09 74.1-46.37 148.16-69.6 222.22-18.79-.02-37.58.05-56.37-.03-22.61-74.07-45.23-148.13-67.78-222.21z"/><path d="m1000.23 388.54c62.84-.08 125.69-.04 188.53-.02-.02 14.91 0 29.81-.01 44.72-22.25.02-44.49.01-66.74.01-.05 59.09.05 118.18-.05 177.27-18.41-.06-36.81.02-55.21-.04 0-59.08 0-118.15 0-177.23-22.19-.07-44.37.13-66.55-.1.1-14.87.04-29.74.03-44.61z"/><path d="m220.9 649.88c15.25-13.14 35.17-19.8 55.01-21.59 19.73-1.69 40.05.81 58.36 8.53 16.13 6.78 30.64 18.88 37.52 35.26 5.04 11.24 5.75 23.77 5.45 35.91-17.33.01-34.67.03-52.01-.01.33-6.92-.18-14.22-3.94-20.24-5.28-8.89-15.41-13.67-25.37-15.02-11.53-1.58-24.09.56-33.43 7.84-6.42 4.92-10.55 12.53-11.63 20.51-.82 5.27-.59 10.61-.61 15.93-.01 18.35.02 36.71-.01 55.06-.16 7.88.84 16.07 4.9 22.98 5.48 9.68 16.02 15.68 26.88 17.05 9.19 1.09 18.94.36 27.3-3.89 5.32-2.73 9.7-7.24 12.09-12.74 2.99-6.54 3.18-13.89 3.09-20.95-14.75-.02-29.5 0-44.24-.01-.02-13.75-.01-27.5-.01-41.25 32.31-.03 64.61.05 96.92-.04.2 16.27.01 32.55.09 48.82.05 10.19-1.31 20.54-5.36 29.96-5.52 13.37-16.01 24.25-28.41 31.49-17.59 10.26-38.29 14.3-58.51 13.77-18.98-.47-38.26-4.7-54.64-14.6-13.19-7.9-24.01-19.97-29.63-34.34-4.03-9.9-5.56-20.63-5.62-31.27-.21-16.67-.03-33.35-.09-50.03.11-11.65-.52-23.43 1.71-34.93 2.99-16.26 11.51-31.52 24.19-42.2z"/><path d="m932.54 628.74c24.58-2.92 50.65.81 72.1 13.67 14.7 8.77 26.45 22.6 32.06 38.84 4.25 11.4 5.09 23.68 5.06 35.74-.03 15.33 0 30.67-.01 46.01.03 10.38.03 20.89-2.35 31.07-3.48 16.02-12.35 30.82-24.98 41.3-16.26 13.67-37.43 20.45-58.42 21.73-19.23.93-38.95-1.55-56.62-9.48-9.03-4.06-17.44-9.64-24.25-16.84-12.24-12.37-18.66-29.56-19.86-46.72-.63-24-.08-48.03-.28-72.04-.12-15.92 3.76-32.13 12.53-45.55 14.11-22.06 39.54-34.65 65.02-37.73m4.07 45.98c-10.29 2.27-19.74 9.28-23.57 19.28-3.55 8.2-2.73 17.27-2.79 25.97v56.06c0 11.01 4.97 22.23 14.26 28.47 8.83 6.07 20.07 7.64 30.53 6.4 9.87-1.25 19.66-6.1 25.33-14.49 4.53-6.52 6.1-14.6 6.13-22.43 0-18.01 0-36.02 0-54.03-.07-7.3.48-14.8-1.72-21.87-2.3-7.67-7.52-14.38-14.36-18.52-10.01-6.14-22.49-7.43-33.81-4.84z"/><path d="m452.68 631.36c19.69-.27 39.39-.03 59.08-.12 25.62 74.07 51.23 148.16 76.82 222.25-18.83.05-37.65-.04-56.48.04-4.47-13.75-8.78-27.55-13.23-41.3-25.31.04-50.62.03-75.93 0-.55.09-1.66.27-2.21.36-4.56 13.61-8.88 27.3-13.41 40.92-17.4-.04-34.8.03-52.2-.03 25.78-74.06 51.93-148 77.56-222.12m26.92 56.88c-8.58 26.73-16.98 53.52-25.54 80.26 17.08-.01 34.16.01 51.24-.01-8.06-25.86-16.24-51.67-24.29-77.53-.29-1.01-.76-1.92-1.41-2.72z"/><path d="m558.79 631.23c62.82.03 125.63.01 188.45.02.02 14.91.01 29.83.01 44.74-22.17.02-44.33 0-66.49.02-.01 59.15-.02 118.31 0 177.47-18.42.05-36.84.01-55.25.02-.01-59.15-.04-118.3.01-177.45-22.25-.11-44.51-.01-66.77-.06.02-14.92-.06-29.84.04-44.76z"/><path d="m1066.73 631.56c17.83-.09 35.67-.13 53.51.02 27.48 39.87 55.08 79.67 82.73 119.43.16-39.87-.17-79.74.16-119.6 18.37.23 36.76-.03 55.13.14-.04 74.07.02 148.13-.02 222.2-17.05.02-34.1-.03-51.15.03-28.46-41.42-56.65-83.03-85.09-124.46-.02 41.48.02 82.96-.01 124.44-18.41-.01-36.82-.01-55.23-.01-.04-74.06.02-148.13-.03-222.19z"/><path d="m774.5 631.51c18.43 0 36.85-.06 55.27.03-.01 73.96-.07 147.92.03 221.88-18.43.19-36.86.04-55.3.07 0-73.99-.01-147.99 0-221.98z"/></g><path d="m1161.24 166.51c4.66-.02 9.33-.01 14.01-.01-.03 27.65.06 55.3-.05 82.94 27.68.14 55.37.01 83.05.07-.01 4.66-.01 9.32 0 13.98-27.67.03-55.34-.01-83 .02v82.74c-4.68 0-9.34 0-14-.01 0-27.57 0-55.15 0-82.73-27.46-.02-54.91 0-82.37-.01-.01-4.67-.01-9.33 0-14 27.46-.01 54.91.02 82.37-.01-.01-27.66 0-55.32-.01-82.98z" fill="#f90a34" transform="translate(-194.98487 -141.70884)"/></svg>