<?xml version="1.0" encoding="UTF-8" standalone="no"?>
<svg
   xmlns:dc="http://purl.org/dc/elements/1.1/"
   xmlns:cc="http://creativecommons.org/ns#"
   xmlns:rdf="http://www.w3.org/1999/02/22-rdf-syntax-ns#"
   xmlns:svg="http://www.w3.org/2000/svg"
   xmlns="http://www.w3.org/2000/svg"
   xmlns:sodipodi="http://sodipodi.sourceforge.net/DTD/sodipodi-0.dtd"
   xmlns:inkscape="http://www.inkscape.org/namespaces/inkscape"
   width="1605.7819pt"
   height="641.73529pt"
   viewBox="0 0 1605.7819 641.73529"
   version="1.1"
   id="svg54"
   sodipodi:docname="Cruise Savers TV.svg"
   inkscape:version="0.92.0 r15299">
  <metadata
     id="metadata60">
    <rdf:RDF>
      <cc:Work
         rdf:about="">
        <dc:format>image/svg+xml</dc:format>
        <dc:type
           rdf:resource="http://purl.org/dc/dcmitype/StillImage" />
        <dc:title></dc:title>
      </cc:Work>
    </rdf:RDF>
  </metadata>
  <defs
     id="defs58" />
  <sodipodi:namedview
     pagecolor="#ffffff"
     bordercolor="#666666"
     borderopacity="1"
     objecttolerance="10"
     gridtolerance="10"
     guidetolerance="10"
     inkscape:pageopacity="0"
     inkscape:pageshadow="2"
     inkscape:window-width="1920"
     inkscape:window-height="1017"
     id="namedview56"
     showgrid="false"
     fit-margin-top="0"
     fit-margin-left="0"
     fit-margin-right="0"
     fit-margin-bottom="0"
     inkscape:zoom="0.48685715"
     inkscape:cx="1091.6044"
     inkscape:cy="624.23522"
     inkscape:window-x="-8"
     inkscape:window-y="-8"
     inkscape:window-maximized="1"
     inkscape:current-layer="svg54" />
  <path
     style="opacity:1;fill:#ffffff;fill-opacity:1"
     inkscape:connector-curvature="0"
     id="path15"
     d="m 945.66691,7.68 c 12.74,-3.85 25.79,-7.31 39.17,-7.68 7.57,0.11 16.20999,1.34 21.29999,7.58 5.45,6.39 4.82,15.64 2.72,23.23 -4.97,16.45 -15.31999,30.47 -24.89999,44.46 0.61,4.52 1.73,9.07 0.86,13.67 -1.74,10 -6.31,19.21 -10.57,28.34 -10.8,21.71 -22.04,43.24 -31.15,65.74 -17.83,43.08 -30.85,88.13 -38.99,134.03 -5.48,-0.01 -10.96,0 -16.43,-0.01 11.11,-64.04 31.35,-126.58 60.83,-184.55 5.71,-11.65 11.9,-23.09 16.9,-35.08 1.84,-4.53 3.63,-9.17 3.89,-14.11 -3.95,-2.56 -8.89,-1.11 -13.22,-0.6 -14.77,2.79 -29.01,7.8 -43.11,12.91 -37.37,13.94 -73.56,30.81 -109.65,47.72 -111.06,52.89 -220.19,109.7 -329,167.03 -3.72,2.11 -8.15,5.03 -12.48,2.7 -5.66,-2.61 -5.82,-11.64 -0.14,-14.32 66.39,-35.25 133.13,-69.87 200.15,-103.92 66.95,-33.65 134.01,-67.19 202.71,-97.16 18.23,-7.84 36.63,-15.33 55.41,-21.73 9.41,-3.18 18.9,-6.19 28.64,-8.18 7.08,-1.38 14.37,-2.57 21.58,-1.37 7.85,-10.84 15.54,-21.95 20.99,-34.23 1.96,-4.37 3.17,-9.08 3.02,-13.9 -4.19,-3.72 -10.18,-2.72 -15.28,-2.41 -12.2,1.58 -23.97,5.41 -35.56,9.37 -37.54,13.52 -73.47,31.03 -109.1,48.89 -68.61,35.02 -135.56,73.19 -202.03,112.1 -56.01,32.81 -111.46,66.54 -166.96,100.19 -2.93,2.04 -7.11,2.35 -10.02,0.12 -4.35,-2.99 -4.27,-10.16 0.08,-13.07 67.76,-41.18 135.68,-82.11 204.3,-121.83 67.63,-38.88 135.59,-77.36 205.97,-111.08 26.13,-12.24 52.53,-24.13 80.07,-32.85 z" />
  <path
     style="opacity:1;fill:#ffffff;fill-opacity:1"
     inkscape:connector-curvature="0"
     id="path17"
     d="m 650.18691,40.16 c 6.75,-1.55 13.88,0.94 18.96,5.45 3.88,3.45 7.35,7.44 10.02,11.9 2.72,5.06 -1.47,12.14 -7.35,11.58 -5.4,0.38 -7.58,-5.28 -10.66,-8.6 -2.2,-2.45 -5.28,-5.76 -8.92,-4.17 -6.23,2.58 -10.77,7.86 -15.1,12.82 -2.66,3.02 -4.78,7.46 -9.26,7.9 -4.69,0.76 -9.49,-3.41 -9,-8.23 -0.24,-3.74 2.9,-6.26 4.93,-8.99 6.95,-8.5 15.27,-17.16 26.38,-19.66 z" />
  <path
     style="opacity:1;fill:#ffffff;fill-opacity:1"
     inkscape:connector-curvature="0"
     id="path19"
     d="m 608.80691,85.84 c 11.03,-0.22 22.06,-1.3 33.07,-0.46 20.93,0.23 41.83,1.84 62.62,4.11 3.99,0.52 6.92,4.4 6.59,8.36 0.16,4.39 -4.04,7.73 -8.18,7.75 -25.23,-2.87 -50.62,-4.37 -76.01,-4.3 -23.63,0.7 -47.67,1.91 -70.33,9.23 -6.17,2.24 -12.99,4.55 -17.07,10.02 -1.37,1.52 0.45,3.14 1.53,4.18 10.35,8.65 25.63,7.32 35.76,16.34 5.2,4.2 6.07,12.44 2.19,17.79 -4.75,6.59 -11.68,11.08 -18.21,15.72 -15.11,10.18 -30.39,20.16 -44.88,31.25 -18.68,14.14 -36.25,29.74 -52.32,46.79 -3.22,3.92 -10.01,3.44 -12.81,-0.72 -1.84,-2.91 -1.84,-7.07 0.45,-9.72 26.6,-28.81 57.81,-52.96 90.55,-74.38 7.35,-5.2 15.42,-9.64 21.78,-16.09 -6.42,-3.35 -13.74,-4.26 -20.36,-7.12 -7.32,-2.96 -14.67,-7.42 -18.41,-14.64 -3.45,-6.55 -2.02,-14.9 2.75,-20.41 6.08,-7.13 14.9,-11.2 23.59,-14.22 18.58,-6.2 38.24,-8.33 57.7,-9.48 z" />
  <path
     sodipodi:nodetypes="cccccccccccccccccc"
     style="opacity:1;fill:#ffffff;fill-opacity:1"
     inkscape:connector-curvature="0"
     id="path21"
     d="m 39.066912,352.06 c 15.01,-5.02 31.16,-5.98 46.86,-4.7 13.66,1.12 27.789998,4.19 38.919998,12.63 7.07,5.29 11.68,13.21 14.3,21.53 l -36.3,6.31 c -2.45,-5.55 -6.729998,-10.3 -12.389998,-12.66 -12.17,-5.43 -27.55,-4.35 -38.08,4.15 -5.01,3.99 -8.33,9.83 -10.07,15.93 -2.96,11.26 -1.44,24.05 5.59,33.55 9.11,12.42 27.28,14.68 40.77,8.75 6.83,-2.86 12.659998,-8.28 15.259998,-15.3 l 37.3,3.92 c -2.72,8.37 -7.06,16.43 -13.72,22.33 -12.04,11.06 -28.699998,15.02 -44.569998,16.3 -18.61,1 -38.28,-0.07 -54.93,-9.3 -11.4,-6.24 -20.7799996,-16.5 -24.8299996,-28.96 -5.49,-16.49 -3.88000004,-35.43 4.95,-50.47 6.8499996,-11.52 18.2799996,-19.88 30.9399996,-24.01 z" />
  <path
     sodipodi:nodetypes="cccccccccccccccccccccccccc"
     style="opacity:1;fill:#ffffff;fill-opacity:1"
     inkscape:connector-curvature="0"
     id="path23"
     d="m 545.90691,348.58 c 14.03,-2.53 28.45,-2.11 42.52,-0.03 8.2,1.24 16.61,3.35 23.33,8.45 6.99,5.04 11.37,13.31 12.1,21.85 l -38.23,1.75 c -1.45,-6.62 -8.62,-9.33 -14.69,-9.61 -6.54,-0.18 -13.94,-0.74 -19.48,3.41 -3.57,2.42 -3.58,8.67 0.26,10.84 3.36,2.05 7.21,3.11 10.98,4.16 11.89,2.83 23.94,5.01 35.85,7.77 7.91,1.98 16.08,5.03 21.45,11.48 7.2,8.33 7.42,20.8 3.28,30.59 -3.06,7.35 -8.85,13.34 -15.82,17.11 -9.72,5.21 -20.83,7.07 -31.71,7.83 -11.03,1 -22.18,0.68 -33.11,-1.09 -10.17,-1.78 -20.68,-5.27 -27.87,-13.06 -5.5,-5.58 -8.28,-13.25 -9.23,-20.91 l 38.64,-1 c 1.4,6.25 7.48,9.84 13.31,11.16 7.26,1.54 14.96,1.77 22.15,-0.29 4.65,-1.39 8.94,-5.96 8.16,-11.09 -0.58,-4.07 -4.54,-6.54 -8.23,-7.46 -13.78,-3.48 -27.99,-5.06 -41.72,-8.79 -9.31,-2.39 -18.88,-7.11 -23.61,-15.91 -6.43,-11.87 -2.88,-27.59 7.14,-36.35 6.8,-6.07 15.68,-9.2 24.53,-10.81 z" />
  <path
     sodipodi:nodetypes="ccccccccccccccccccc"
     style="opacity:1;fill:#ffffff;fill-opacity:1"
     inkscape:connector-curvature="0"
     id="path27"
     d="m 154.44691,351.69 85.4,0.01 c 9.05,0.19 18.7,1.45 26.14,7.05 14.24,11.36 16.97,34.5 5.5,48.72 -4.51,5.54 -11.34,8.27 -18.07,10.02 l 27.36,43.93 -43.44,-0.06 -22.76,-40.06 -21.25,0.03 -0.01,39.99 h -38.89 l 0.02,-109.63 m 38.89,24.64 0.02,20.33 c 10.17,0.08 20.35,0 30.52,0.05 3.92,-0.04 8.07,-0.29 11.55,-2.28 4.29,-2.64 5.11,-8.77 2.78,-12.96 -2.22,-3.45 -6.31,-5.19 -10.32,-5.15 -11.52,-0.02 -23.03,-0.01 -34.55,0.01 z" />
  <path
     sodipodi:nodetypes="ccccccccccccccccc"
     style="opacity:1;fill:#ffffff;fill-opacity:1"
     inkscape:connector-curvature="0"
     id="path29"
     d="m 297.43691,351.69 39.27,-0.01 c -0.01,22.39 -0.01,44.79 0,67.19 -0.01,6.31 2.6,12.73 7.65,16.65 6.28,4.96 14.73,6.11 22.49,5.35 6.78,-0.58 13.89,-3.45 17.67,-9.38 3.59,-5.48 4.02,-12.24 4.18,-18.6 0.01,-20.4 0,-40.8 0,-61.19 l 39.01,-0.02 c 0,16.05 -0.01,32.09 0,48.14 -0.08,12.09 0.46,24.43 -2.58,36.25 -2.33,9.37 -9.41,16.89 -17.88,21.2 -14.31,7.13 -30.68,7.98 -46.37,8.04 -15.89,-0.47 -32.84,-1.05 -46.8,-9.59 -7.03,-3.87 -12.18,-10.73 -14.46,-18.37 -2.23,-6.92 -2.21,-14.28 -2.19,-21.47 0.02,-21.4 -0.01,-42.79 0.01,-64.19 z" />
  <path
     sodipodi:nodetypes="ccccc"
     style="opacity:1;fill:#ffffff;fill-opacity:1"
     inkscape:connector-curvature="0"
     id="path31"
     d="m 453.43691,351.69 39.27,-0.01 0.01,109.68 -39.29,-0.04 z" />
  <path
     sodipodi:nodetypes="ccccccccccccc"
     style="opacity:1;fill:#ffffff;fill-opacity:1"
     inkscape:connector-curvature="0"
     id="path33"
     d="m 643.43691,351.69 h 115.61 v 24.36 l -76.69,0.03 -0.02,18.33 70.99,0.01 -0.01,24.47 -70.97,0.03 0.01,17.73 78.35,0.02 0.02,24.68 -117.3,-0.03 z" />
  <path
     style="opacity:1;fill:#ffffff;fill-opacity:1"
     inkscape:connector-curvature="0"
     id="path43"
     d="m 877.97691,494.84 c 5.42,0 10.84,-0.01 16.27,0.01 1.36,24.7 3.29,49.37 5.59,74.01 0.11,3.28 0.91,7.02 -1.07,9.93 -2.99,4.39 -10.36,4.4 -13.29,-0.08 -5.2,-7.21 -10.69,-14.34 -17.57,-20.05 -9.05,-7.77 -20.39,-12.72 -32.13,-14.62 3.67,6.97 6.14,14.77 5.49,22.74 -0.67,10.49 -5.42,20.46 -12.1,28.45 -3.23,3.94 -10.06,3.41 -12.78,-0.86 -10.19,-13.13 -22.72,-26.24 -39.68,-29.69 5.21,8.95 10.01,18.47 10.95,28.95 1.11,10.79 -2.36,22.18 -10.05,29.95 -9.95,10.6 -24.67,15.04 -38.75,16.46 -31.05,3.92 -62.43,0.46 -93.16,-4.46 -43.93,-7.34 -87.06,-18.73 -129.94,-30.64 -42.53,-11.76 -84.71,-24.8 -127.46,-35.77 -108.76,-27.32 -220.63,-40.56 -332.509998,-45.64 -9.048325,-0.66958 -18.145773,-0.74967 -27.173815,-1.65523 -1.40417,-0.12646 -2.613117,-0.23413 -3.840219,-0.61644 -0.381537,-0.12495 -0.760192,-0.25876 -1.135966,-0.39833 1.71,-0.4 3.44,-0.74 5.19,-0.81 20.41,-0.77 40.82,0.34 61.21,1.11 92.629998,4.94 185.039998,14.78 276.549998,30.04 87.49,14.28 173.03,38.1 260.15,54.27 20.92,3.85 41.94,7.21 63.12,9.22 15.92,1.31 32.07,2.25 47.92,-0.22 7.66,-1.4 15.8,-3.62 21.34,-9.45 4.24,-4.6 5.45,-11.34 3.93,-17.3 -1.96,-8.9 -6.72,-16.86 -11.74,-24.35 -1.82,-2.83 -4.81,-5.11 -5.24,-8.64 -0.31,-4 2.61,-8.3 6.78,-8.7 6.07,-0.5 12.14,0.43 18.17,1.1 15.12,1.87 29.86,8.02 41.03,18.51 3.87,3.13 6.79,7.22 10.67,10.34 1.98,-5.52 3.35,-11.59 1.66,-17.37 -2.19,-7.62 -7.94,-13.55 -14.28,-18 -3.09,-2.03 -4.5,-6.2 -3.1,-9.65 0.95,-3.34 4.44,-5.45 7.85,-5.18 19.94,0.45 40.77,3.96 57.39,15.7 3.28,2.22 6.13,5.01 9.5,7.12 -1.43,-17.9 -2.59,-35.83 -3.76,-53.76 z"
     sodipodi:nodetypes="cccccccccccccccccccccccccccccccccccccccccc" />
  <g
     id="#6ed0f7ff"
     transform="translate(-74.123088,-33.13)">
    <path
       d="m 964.22,176.96 c 3.99,-1.87 8.46459,2.36738 9.17,5 0.75,3.74 -1.71,6.93 -2.94,10.26 -20.69,48.93 -35.36,100.35 -44.39,152.68 -0.43,3.89 -4.27,6.62 -8.06,6.34 -92.02,-0.01 -184.04,0.01 -276.05,-0.01 -5.12,0.56 -9.94,-5.1 -7.93,-9.98 1.4,-2.04 3.32,-3.72 5.52,-4.86 7.93,-4.07 16.01,-7.83 23.72,-12.3 10.07,-5.26 20.4,-10.05 30.28,-15.68 20.49,-10.07 40.53,-20.95 61,-31.05 30.86,-15.45 61.71,-30.93 92.64,-46.23 9.68,-4.13 18.89,-9.25 28.42,-13.68 8.14,-3.31 15.71,-7.86 23.84,-11.21 21.43,-10.1 42.93,-20.08 64.78,-29.28 z"
       id="path46"
       inkscape:connector-curvature="0"
       style="opacity:1;fill:#6ed0f7"
       sodipodi:nodetypes="ccccccccccccccc" />
    <path
       d="m 393.4,531.28 c -1.85822,-4.80099 3.46,-9.88 8.53,-9.5 148.37,-0.03 296.75,0 445.12,-0.02 3.37,0.13 6.98,-0.56 10.16,0.9 3.88,1.86 5.44,7.54 2.28,10.75 -2.71584,2.64665 -5.44678,5.29693 -7.56543,8.42885 -0.85306,1.26104 -1.59157,1.60723 -2.91341,1.82632 -1.79489,0.29749 -3.60838,0.34633 -5.41514,0.20419 -1.72099,-0.22283 -3.37399,-0.38894 -4.98283,-0.4897 -9.73977,-0.60901 -19.93983,-0.91208 -28.86319,3.54034 -11.52,5.14 -20.54,15.53 -24.04,27.65 -1.6,5.68 -1.83,11.64 -1.35,17.5 0.75,4.1 -2.32,8.53 -6.49,9.02 -6.95,0.48 -13.85,-0.69 -20.78,-0.79 C 685.7,597.1 615,584.87 545.49,568.67 500.64,558.49 455.97,547.45 410.84,538.56 c -4.18,-0.96 -8.60964,-0.99269 -12.58,-2.61 -2.09631,-0.85392 -4.05345,-2.58614 -4.86,-4.67 z"
       id="path48"
       inkscape:connector-curvature="0"
       style="opacity:1;fill:#6ed0f7"
       sodipodi:nodetypes="sccccsscccccccccss" />
  </g>
  <path
     sodipodi:nodetypes="cccccccccccccccccccccccccc"
     style="opacity:1;fill:#ffffff;stroke-width:0.99800569;fill-opacity:1"
     inkscape:connector-curvature="0"
     id="path23-4-8"
     d="m 1525.8566,348.56695 c 14.002,-2.52495 28.3933,-2.10579 42.4352,-0.0299 8.1837,1.23753 16.5768,3.34332 23.2835,8.43315 6.9761,5.02995 11.3473,13.28345 12.0759,21.80641 l -38.1539,1.74651 c -1.447,-6.60678 -8.6027,-9.31138 -14.6606,-9.59083 -6.527,-0.17964 -13.9122,-0.73852 -19.4412,3.40321 -3.5628,2.41516 -3.5728,8.65271 0.2595,10.81838 3.3533,2.0459 7.1956,3.10379 10.9581,4.15169 11.8663,2.82437 23.8923,5.00001 35.7785,7.75451 7.8943,1.97605 16.048,5.01997 21.4073,11.45709 7.1856,8.31339 7.4052,20.75853 3.2734,30.52899 -3.0539,7.33535 -8.8323,13.31341 -15.7884,17.07589 -9.7006,5.19961 -20.7885,7.0559 -31.6468,7.81439 -11.008,0.998 -22.1358,0.67864 -33.044,-1.08783 -10.1497,-1.77645 -20.6387,-5.25949 -27.8144,-13.03396 -5.489,-5.56887 -8.2635,-13.22356 -9.2116,-20.86829 l 38.563,-0.99799 c 1.3972,6.23752 7.465,9.82037 13.2834,11.13773 7.2455,1.53692 14.9302,1.76647 22.1058,-0.28943 4.6408,-1.38722 8.9222,-5.9481 8.1438,-11.06787 -0.579,-4.06188 -4.5311,-6.52697 -8.2136,-7.44513 -13.7525,-3.47306 -27.9342,-5.04992 -41.6368,-8.77247 -9.2914,-2.38524 -18.8424,-7.09582 -23.5629,-15.87827 -6.4172,-11.84633 -2.8743,-27.53497 7.1257,-36.2775 6.7865,-6.05789 15.6488,-9.18165 24.4811,-10.78844 z" />
  <path
     sodipodi:nodetypes="ccccccccccccccccccc"
     style="opacity:1;fill:#ffffff;stroke-width:0.99800569;fill-opacity:1"
     inkscape:connector-curvature="0"
     id="path41-7"
     d="m 1352.1647,351.6955 h 84.9702 c 9.7605,0.12974 20.2895,1.69661 27.9641,8.24353 11.9362,11.1078 14.7007,30.9282 5.8883,44.72064 -4.4711,6.93613 -12.1458,11.06787 -20.0999,12.62476 l 27.4153,43.82243 h -43.3534 l -22.5549,-39.92023 -21.1178,0.0599 v 39.83041 l -39.1219,0.01 0.01,-109.3914 m 39.1318,24.66072 0.03,20.17968 c 9.9401,0.10978 19.8802,0.01 29.8304,0.0599 3.9521,-0.0299 8.1337,-0.27944 11.6966,-2.18563 5.7485,-3.26348 5.5289,-12.82438 -0.07,-16.10782 -2.8443,-1.84631 -6.3473,-2.04591 -9.6207,-2.02595 -10.6288,0.0798 -21.2476,-0.0699 -31.8664,0.0798 z" />
  <path
     sodipodi:nodetypes="cccccccc"
     style="opacity:1;fill:#ffffff;stroke-width:0.99800569;fill-opacity:1"
     inkscape:connector-curvature="0"
     id="path37-3"
     d="m 1071.9936,351.67424 h 40.9381 l 26.8564,67.02605 27.4052,-67.06597 40.6288,0.0699 -49.7206,109.3914 -36.517,-0.01 z" />
  <path
     sodipodi:nodetypes="ccccccccccccc"
     style="opacity:1;fill:#ffffff;stroke-width:0.99800569;fill-opacity:1"
     inkscape:connector-curvature="0"
     id="path35-8"
     d="m 950.70592,461.10659 47.20567,-109.54111 44.71061,0.02 47.5251,109.46127 -42.4253,0.0299 -5.998,-18.05393 -42.07588,-0.02 -6.02796,17.97408 -42.91424,0.12974 m 57.00608,-41.95616 25.7585,-0.02 -13.1238,-36.58688 z" />
  <path
     sodipodi:nodetypes="cccccccccccccccccccccccccc"
     style="opacity:1;fill:#ffffff;stroke-width:0.99800569;fill-opacity:1"
     inkscape:connector-curvature="0"
     id="path23-4-0"
     d="m 871.16486,348.58716 c 14.00202,-2.52494 28.39325,-2.10578 42.4352,-0.0299 8.18365,1.23753 16.57678,3.34332 23.28348,8.43315 6.97606,5.02995 11.34732,13.28346 12.07586,21.80642 l -38.15385,1.74651 c -1.44701,-6.60679 -8.60271,-9.31139 -14.66062,-9.59084 -6.52696,-0.17964 -13.91218,-0.73851 -19.44114,3.40321 -3.56288,2.41517 -3.57286,8.65271 0.25949,10.81839 3.35329,2.0459 7.19562,3.10378 10.95809,4.15169 11.86629,2.82437 23.89227,5.00001 35.77851,7.75451 7.89421,1.97605 16.04794,5.01996 21.40723,11.45709 7.18564,8.31339 7.4052,20.75853 3.27346,30.52899 -3.0539,7.33534 -8.83235,13.31341 -15.78845,17.07589 -9.70062,5.19961 -20.78847,7.0559 -31.64677,7.81439 -11.008,0.998 -22.13577,0.67864 -33.04397,-1.08783 -10.14971,-1.77645 -20.63875,-5.25949 -27.81442,-13.03396 -5.48903,-5.56887 -8.26348,-13.22356 -9.21159,-20.86829 l 38.56293,-0.99799 c 1.39722,6.23751 7.46509,9.82037 13.28347,11.13773 7.24552,1.53692 14.93016,1.76647 22.10581,-0.28943 4.64074,-1.38722 8.92218,-5.94809 8.14374,-11.06786 -0.57894,-4.06189 -4.53105,-6.52699 -8.21359,-7.44514 -13.75252,-3.47306 -27.93418,-5.04992 -41.63679,-8.77247 -9.29144,-2.38525 -18.84235,-7.09582 -23.56292,-15.87827 -6.41717,-11.84633 -2.87426,-27.53497 7.12576,-36.2775 6.78644,-6.0579 15.64873,-9.18166 24.48108,-10.78845 z" />
  <g
     id="#cf171fff-7"
     transform="matrix(0.99800572,0,0,0.99800572,811.30448,335.94824)">
    <path
       d="m 432.92,17.08 c 12.45,-4.51 25.96,-5 39.06,-4.2 12.35,0.75 25.87,3.1 34.96,12.25 7.38,8.13 8.72,19.72 8.5,30.26 -12.95,0.18 -25.9,0.06 -38.86,0.08 -0.72,-4.32 -0.3,-9.87 -4.53,-12.53 -4.78,-2.4 -11.1,-2.48 -15.68,0.42 -4.87,3.97 -2.47,10.87 -1.64,16.1 6.24,0.18 12.49,0.05 18.74,0.08 0.01,6.36 -0.07,12.72 0.03,19.08 -6.12,0.22 -12.25,-0.02 -18.36,0.2 -1.14,5.68 -5.17,10 -7.47,15.14 14.37,-4.11 28.83,2.7 43.32,1.35 6.82,-0.7 12.68,-4.58 18,-8.61 3.56,9.93 6.72,20 9.95,30.04 -8.96,7.31 -20.17,12.68 -31.95,12.28 -14.37,-0.35 -28.24,-4.54 -42.34,-6.82 -8.33,-0.79 -16.82,1.78 -23.5,6.79 -4.3,-9 -9.08,-17.77 -13.22,-26.85 6.92,-5.73 12.27,-14.02 11.62,-23.35 -3.41,-0.11 -6.83,-0.07 -10.24,-0.14 -0.06,-6.37 -0.1,-12.74 0.02,-19.11 2.48,0.01 4.96,0 7.45,-0.04 -3.59,-8.69 -4.73,-18.85 -0.82,-27.64 3.09,-7.17 9.76,-12.19 16.96,-14.78 z"
       id="path13"
       inkscape:connector-curvature="0"
       style="opacity:1;fill:#cf171f" />
  </g>
</svg>
