<svg width="1271.1pt" height="295.24pt" version="1.1" viewBox="0 0 1271.1 295.24" xmlns="http://www.w3.org/2000/svg">
 <path d="m333.38 0.5939c8.32-2.62 17.86 3.77 18.51 12.46 1.17 8.05-5.66 16.07-13.77 16.19-7.89 0.68-15.39-6.23-15.34-14.14-0.39-6.54 4.35-12.8 10.6-14.51z" fill="#134c77"/>
 <path d="m578.93 36.154c17.26-8.38 33.4-19.63 45.65-34.55l10.47 0.01-0.01 147.68h-26.17l-0.02-105.91-29.92 17.93z" fill="#134c77"/>
 <path d="m749.44 19.864 25.14-9.25 0.03 31.11 29.56 0.02v20.24l-29.55 0.02c-0.01 15.7-0.01 31.41 0 47.11 0.12 5.21 0.35 10.75 3.06 15.36 1.91 3.24 5.65 4.87 9.26 5.34 7.24 1.06 14.67-0.87 20.88-4.64l-0.02 23.17c-8.62 2.68-17.75 3.06-26.71 2.94-8.2-0.18-16.79-2.61-22.62-8.64-6.66-6.62-8.92-16.35-9.01-25.47-0.09-18.39 0-36.78-0.04-55.17l-12.43-0.02v-20.24l12.43-0.02z" fill="#134c77"/>
 <path d="m874.79 19.624 19.28-7.28-0.07 29.82 29.61 0.01-0.12 15.21-29.49-0.08c-0.03 17.59 0 35.19-0.01 52.78 0.05 6.04 0.36 12.37 3.18 17.86 1.94 3.78 5.74 6.32 9.84 7.21 7.27 1.72 14.86 0.04 21.54-3.01l2.81 16.86c-9.61 2.3-19.56 3.4-29.43 2.81-11.27-0.92-20.95-9.4-24.81-19.8-1.97-5.06-2.42-10.55-2.33-15.94 0.02-19.59 0-39.18 0.01-58.77l-12.5-0.01v-15.11l12.49-0.02z" fill="#6a7d9d"/>
 <path d="m12.255 59.294c9.57-11.98 24.7-18.38 39.79-19.29 13.81-1.32 28.37 1.65 39.49 10.27l-10.76 18.83c-8.38-7.67-20.67-9.65-31.54-7.49-7.68 1.55-14.42 6.69-18.17 13.52-4.55 8.19-5.35 17.89-4.59 27.06 0.69 7.78 3.27 15.92 9.38 21.15 6.87 5.9 16.43 7.28 25.2 6.84 8.12-0.41 15.85-3.89 22-9.13l9.27 19.84c-7.29 4.51-15.18 8.47-23.8 9.46-15.2 1.97-31.73 1.59-45.22-6.56-11.49-6.77-19.28-18.83-21.78-31.82-3.51-17.93-1.37-38.25 10.73-52.68z" fill="#134c77"/>
 <path d="m137.47 51.454c5.81-6.39 13.92-10.56 22.53-11.4 8.48-0.76 17.41-0.28 25.2 3.46-3.35 7.32-7.14 14.42-10.6 21.68-6.69-4.18-15.58-6.14-22.92-2.47-8.83 4.64-14.13 14.58-14.15 24.43l-0.05 62.2h-25.18v-107.61h25.18c0.01 3.23 0.02 6.47-0.01 9.71z" fill="#134c77"/>
 <path d="m397.06 41.114c14.93-3.17 30.87-0.72 44.44 6.16l-7.25 19.52c-7.02-5.71-16.42-7.42-25.26-6.89-3.11 0.21-6.44 1.08-8.58 3.5-3.23 3.77-3.01 10.14 1.02 13.29 4.83 3.93 10.81 6.07 16.47 8.52 8.81 3.46 17.99 7.56 23.87 15.31 5.94 7.85 7.08 18.55 4.61 27.89-2.38 8.85-9.67 15.62-17.97 19.02-10.26 4.21-21.64 4.42-32.52 3.37-8.43-0.74-16.13-4.56-23.51-8.41l8.97-20.04c8.56 6.83 19.89 10.19 30.77 8.5 3.54-0.56 7.32-2.42 8.62-6 1.5-4.33 0.48-9.48-2.63-12.86-4.53-4.52-10.66-6.87-16.37-9.51-9.33-3.87-18.84-8.82-24.79-17.3-5.65-7.94-6.42-18.86-2.58-27.73 4.07-8.96 13.45-14.19 22.69-16.34z" fill="#134c77"/>
 <path d="m491.71 42.824c11.29-4.04 23.81-3.93 35.33-0.9 15.86 4.18 29.01 17.31 32.96 33.26 2.54 9.17 1.94 18.86-0.36 28.01l-76.91 0.06c0.44 7.71 3.37 15.67 9.63 20.53 7.42 6.04 17.55 7.13 26.77 6.21 7.52-0.63 15-3.33 20.52-8.6l9.75 19.24c-11.91 9.24-27.68 10.88-42.26 10.65-14.31-0.21-29.05-5.49-38.45-16.63-11.8-13.71-13.86-33.22-11.15-50.49 2.9-18.6 16.53-34.91 34.17-41.34m5.71 20.82c-7.84 3.94-11.93 12.44-13.75 20.64h52.79c-0.84-8.34-4.68-17.22-12.74-20.84-8.22-3.55-18.18-3.72-26.3 0.2z" fill="#134c77"/>
 <path d="m661.4 50.394c6.56-6.43 15.71-9.6 24.73-10.37 12.85-1.16 25.98 1.39 37.48 7.25l-7.23 19.51c-7.05-5.7-16.46-7.42-25.31-6.88-3.35 0.22-7 1.28-9.05 4.12-2.33 3.44-2.47 8.57 0.54 11.67 3.58 3.75 8.6 5.57 13.2 7.74 9.03 3.79 18.73 7.08 25.73 14.29 8.11 8.14 9.98 20.96 6.71 31.68-2.65 8.44-9.78 14.83-17.82 18.09-10.26 4.17-21.63 4.34-32.51 3.3-8.38-0.77-16.03-4.56-23.37-8.4l8.96-20.04c8.76 6.97 20.44 10.38 31.53 8.36 3.28-0.67 6.66-2.55 7.86-5.85 2.1-5.78-0.65-12.52-5.86-15.61-11.28-7.35-25.51-10.01-34.85-20.29-10.16-10.02-11.01-28.36-0.74-38.57z" fill="#134c77"/>
 <path d="m196.11 41.744h25.18c0.03 22.8 0 45.6 0.02 68.4 0.03 5.72 1.24 12.01 5.67 16.01 5.17 4.53 12.69 4.71 19.12 3.5 7.76-1.79 15.63-6.31 19.16-13.72 0.39-24.71 0.04-49.47 0.17-74.2l25.17 0.01v107.68l-25.16 0.01c-0.02-2.97-0.04-5.94 0-8.9-12.99 9.46-30.33 13.29-45.95 9.04-7.03-1.86-13.48-6.22-17.33-12.46-4.83-7.7-6.02-17.03-6.05-25.95 0-23.14-0.01-46.28 0-69.42z" fill="#134c77"/>
 <path d="m310.62 41.744h39.24v107.55l-25.49 0.02-0.02-86.94-13.73-0.02z" fill="#134c77"/>
 <path d="m937.32 41.874 21.02-0.01 28.46 75.35 29.08-75.35h20.12l-47.34 110.12h-5.14z" fill="#6a7d9d"/>
 <path d="m836.48 121.73c8.53-3 18.61 3.3 19.58 12.28 1.47 8.4-5.5 17.04-14.03 17.3-8.04 0.76-15.72-6.14-16-14.17-0.64-6.77 4.03-13.4 10.45-15.41z" fill="#6a7d9d"/>
 <path d="m1159 134.06c21.42-2.66 43.82-1.16 63.88 7.25-18.9-2.63-38.17-1.24-56.88 2.19-19.57 3.64-38.63 9.78-56.86 17.74-21.07 9-40.28 21.75-61.37 30.7-18.99 8.37-39.05 14.84-59.81 16.64-18.72 1.72-37.55-0.57-55.88-4.4-20.18-4.26-40.08-9.7-60.05-14.84-21.6-5.54-43.55-10.76-65.97-10.97-37-0.62-72.39 12.57-105.5 27.87 15.19-10.02 31.4-18.47 48.12-25.63 24.12-10.08 50.05-17.64 76.44-16.34 11.87 0.42 23.22 4.16 34.65 7.01 33.73 8.74 67.48 18.53 102.35 21.43 22.06 1.74 45.1 0.37 65.46-9.03 21.16-9.82 41.84-20.67 63.34-29.75 21.8-9.21 44.5-16.91 68.08-19.87z" fill="#6a7d9d"/>
 <path d="m1195.9 154.94c23-3.15 46.57-0.85 68.72 6.01-21.87-4.08-44.42-1.14-65.59 5.07-34.15 10.08-65.39 28.13-94.06 48.93-28.75 21.35-58.47 42.6-92.61 54.38-14.27 4.87-29.26 7.6-44.33 7.99-20.51 0.6-40.87-2.63-60.96-6.4-23.41-4.52-46.71-9.62-70.1-14.24-22.53-4.39-45.07-9.13-67.99-10.87-19.61-1.64-39.6 0.79-58 7.87-27.95 10.66-53.35 26.73-79.2 41.56 24.83-22.06 52.83-40.76 83.28-54.11 27.78-12.02 58.76-19.25 89-13.96 36.83 7.42 72.97 18.05 110.05 24.26 23.13 3.76 46.95 5.58 70.14 1.32 15.96-2.86 31.27-8.91 45.05-17.42 32.89-19.8 64.13-42.53 98.9-59.07 21.39-10.25 44.1-18.23 67.7-21.32z" fill="#134c77"/>
 <path d="m1085.9 75.034c21.86-22.51 53.88-34.54 85.16-32 32.61 2.16 63.57 20.28 81.64 47.47 12.49 18.42 18.91 40.79 18.32 63.03-23.04-23.34-54.76-36.86-87.05-40.77-28.13-3.42-57.21-0.01-83.49 10.73-16.93 6.92-32.65 16.99-45.51 30.04-0.89-28.94 10.53-57.96 30.93-78.5z" fill="#fff200"/>
</svg>
