<svg height="361.29498pt" viewBox="0 0 1047.5 361.29498" width="1047.5pt" xmlns="http://www.w3.org/2000/svg"><g fill="#fff"><path d="m777.4 361.29498 27.95-126.44h26.95l-10.72 49.84h59.05l10.98-49.84h27.32l-27.68 126.44h-27.43l11.76-53.0896h-59.42l-11.58 53.0896z"/><path d="m943.39 234.85498c15.98-.015 32.09.15 48.14-.01 11.69-.19 23.4 3.47 32.91 10.27 12.15 8.38 20.33 22.15 22.05 36.79 2.37 21.88-5.58 45.06-22.15 59.82-14.55 13.22-34.5 18.92-53.82 19.57-18.5037-.0136-36.8307 0-55.13 0m32.43-23.7c13.2023.0143 26.415.5 39.71-2.65 12.21-3.9 22.65-13.13 27.59-25.01 4.42-10.63 5.61-23.31.48-33.91-4.21-9.03-13.14-15.6-23-16.97-9.2721-.63806-18.0155-.5382-27.3-.54-5.94 26.33-11.53 52.74-17.48 79.08z"/><path d="m92.75358 174.07635c-15.5421 5.89365-28.42257 6.84423-48.26608 6.84423h-7.74729v-91.921816h6.96306c23.02798 0 42.34867 1.901176 57.62936 11.787296 12.85671 7.96116 21.17435 20.86539 21.17435 34.55385 0 14.99552-10.19506 31.15551-29.7534 38.73644zm33.76963-102.806047c-11.50211-8.293878-32.70021-19.273159-81.48912-19.273159h-45.03409v165.934586h45.84209c22.24375 0 47.71949-2.24101 65.94701-10.75117 28.94539-13.23691 47.45808-41.94467 47.45808-71.76935 0-25.99858-13.94987-50.666326-32.72397-64.140907"/></g><path d="m943.2681 87.929348h-92.39714c-1.8536-5.727288-28.5652-87.929348-28.5652-87.929348s-26.71146 82.20206-28.54134 87.929348h-92.44464l91.96934 47.434322-32.74775-25.83221h50.14351s7.74728-23.835992 11.62088-35.789628c3.6836 11.335756 11.62096 35.789628 11.62096 35.789628h45.39056l-37.26304 25.26186 2.3052 6.91553c2.09128 6.3927 7.91368 24.26374 9.36336 28.75527-11.57352-8.4127-31.79728-23.09928-31.79728-23.09928l-132.46433 126.38774c.97434-.76998 115.56769-84.49059 132.91585-97.91764 4.94312 3.61223 74.71626 54.30468 74.71626 54.30468l-28.61274-87.97924c3.82608-2.75671 3.51728-2.51906 74.78754-54.231032" fill="#fcd13b"/><g fill="#fff"><path d="m993.6254 156.70437c9.91-2.02 21.1744-4.27765 32.9617-13.68847 14.2113-11.45457 19.0355-28.73151 19.0355-39.68703 0-19.059282-12.0488-32.510095-23.3132-40.138561-11.2644-7.628467-25.4757-11.216932-48.2661-11.216932h-60.8613v28.731507l60.3147-.02376c28.7078 0 35.4095 15.922344 35.4095 25.095516 0 8.76917-5.1095 25.57081-35.4095 25.57081h-23.5745v-39.782094l-36.7402 26.663984v99.68336h36.7402v-64.10762l53.0665 64.10762h44.5113z"/><path d="m374.69787 156.6806-65.13901-104.707223h40.20986l43.15668 76.237123 43.41809-76.237123h40.2336l-65.13902 104.707223v61.2131h-36.7402z"/><path d="m511.96271 168.94318c1.87743 15.96987 15.0193 21.38821 26.28376 21.38821 14.4727 0 27.32939-8.0087 27.32939-20.08115 0-16.4214-13.11812-19.43952-37.78586-27.02046-15.2807-4.75293-47.19668-12.3101-47.19668-45.984672 0-25.475746 24.66777-45.58067 58.19974-45.58067 23.05174 0 56.82136 12.975517 58.69878 45.58067h-37.54822c-1.59222-14.258816-12.31011-17.918574-22.24374-17.918574-11.52587 0-20.36634 6.701646-20.36634 16.207518 0 13.807288 12.88047 16.825408 32.98538 22.243758 16.32634 4.30141 51.99715 14.44893 51.99715 49.21667 0 34.55385-33.24681 50.96812-64.33101 50.96812-25.47576 0-62.47737-13.82393-64.6162-49.01942z"/><path d="m655.5965 80.681124h-36.7402v-28.707747h110.45828v28.707747h-37.00164v137.274366h-36.71644z"/><path d="m225.50315 146.12908h45.55691l-22.79035-51.450556zm8.57904-94.155703h28.68399l83.10511 165.953573h-40.49502l-21.17433-42.85248h-71.03267l-21.17433 42.85248h-40.49504z"/></g></svg>