<?xml version="1.0" encoding="UTF-8" standalone="no"?>
<svg
   xmlns:dc="http://purl.org/dc/elements/1.1/"
   xmlns:cc="http://creativecommons.org/ns#"
   xmlns:rdf="http://www.w3.org/1999/02/22-rdf-syntax-ns#"
   xmlns:svg="http://www.w3.org/2000/svg"
   xmlns="http://www.w3.org/2000/svg"
   xmlns:sodipodi="http://sodipodi.sourceforge.net/DTD/sodipodi-0.dtd"
   xmlns:inkscape="http://www.inkscape.org/namespaces/inkscape"
   width="641.70837pt"
   height="243.80328pt"
   viewBox="0 0 641.70837 243.80328"
   version="1.1"
   id="svg14"
   sodipodi:docname="Discovery Home and Health Plus 2 - Original.svg"
   inkscape:version="0.92.0 r15299">
  <metadata
     id="metadata20">
    <rdf:RDF>
      <cc:Work
         rdf:about="">
        <dc:format>image/svg+xml</dc:format>
        <dc:type
           rdf:resource="http://purl.org/dc/dcmitype/StillImage" />
        <dc:title />
      </cc:Work>
    </rdf:RDF>
  </metadata>
  <defs
     id="defs18" />
  <sodipodi:namedview
     pagecolor="#ffffff"
     bordercolor="#666666"
     borderopacity="1"
     objecttolerance="10"
     gridtolerance="10"
     guidetolerance="10"
     inkscape:pageopacity="0"
     inkscape:pageshadow="2"
     inkscape:window-width="1920"
     inkscape:window-height="1017"
     id="namedview16"
     showgrid="false"
     fit-margin-top="0"
     fit-margin-left="0"
     fit-margin-right="0"
     fit-margin-bottom="0"
     inkscape:zoom="0.852"
     inkscape:cx="197.76631"
     inkscape:cy="200.27166"
     inkscape:window-x="-8"
     inkscape:window-y="-8"
     inkscape:window-maximized="1"
     inkscape:current-layer="svg14" />
  <path
     style="opacity:0.76;fill:#771352;fill-opacity:1"
     inkscape:connector-curvature="0"
     id="path2"
     d="m 355.42,20.67057 c 13.72,-14.19 33.81,-21.94 53.51,-20.5 12.41,0.8 25.06,5.19 33.87,14.25 6.47,6.37 10.48,14.95 11.98,23.85 2.5,15.57 -1.6,32.06 -11.03,44.7 -8.88,12.14 -21.51,20.81 -34.33,28.34 18.16,26.68 36.4,53.31 54.6,79.97 9.9,15.17 22.44,30.43 40.33,36.09 -9.09,7.35 -20.57,12.13 -32.37,11.94 -14.08,0.04 -28.25,-5.36 -38.16,-15.49 -17.82,12.93 -39.77,20.28 -61.83,19.97 -18.01,0.3 -36.39,-4.71 -51.01,-15.43 -10.61,-7.75 -18.94,-18.78 -22.74,-31.42 -4.61,-14.49 -3.09,-30.33 1.92,-44.5 4.96,-13.92 14.13,-26.09 25.35,-35.59 7.35,-6.4 15.6,-11.67 23.97,-16.62 -6.57,-9.89 -11.43,-21.2 -12.17,-33.16 -1.15,-17.15 5.99,-34.36 18.11,-46.4 m 38.67,19.69 c -8.65,2.84 -14.88,11.68 -14.56,20.8 0.5,7.2 4.71,13.34 8.78,19.02 4.9,-2.87 9.77,-5.81 14.23,-9.34 4.78,-3.81 9.51,-8.48 10.85,-14.68 1.23,-4.77 0.8,-10.71 -3.32,-13.99 -4.53,-3.35 -10.77,-3.57 -15.98,-1.81 m -45.87,109.14 c -5.24,5.77 -9.11,12.93 -10.28,20.7 -1.75,8.68 1.78,17.92 8.27,23.8 6.68,6.21 15.78,9.15 24.74,9.83 14.53,1.05 29.44,-2.88 41.34,-11.35 -13.73,-20.23 -27.5,-40.45 -41.36,-60.59 -8.23,4.92 -16.24,10.46 -22.71,17.61 z" />
  <path
     style="opacity:0.76;fill:#771352;fill-opacity:1"
     inkscape:connector-curvature="0"
     id="path4"
     d="m 77.69,13.91057 c 7.52,-7.06 18.24,-9.58 28.32,-9.15 6.81,0.18 14.05,2.61 18.28,8.22 4.2,5.55 4.71,13.04 3.24,19.65 -2.26,10.01 -8.26,18.71 -15.17,26.1 -5.65,6.03 -10.8,12.52 -16.73,18.29 -3.68,3.77 -7.69,7.2 -11.27,11.07 11.86,-0.87 23.74,-1.59 35.64,-1.33 -1.33,6.26 -2.66,12.51 -4.06,18.76 -21.79,-0.01 -43.58,0.03 -65.38,-0.02 0.56,-1.89 0.4,-4.17 1.8,-5.7 14.3,-15.42 28.56,-30.86 42.85,-46.28 4.83,-5.35 10.05,-10.64 12.9,-17.37 1.53,-3.5 1.72,-8.03 -1.1,-10.95 -3.46,-3.56 -9.18,-3.23 -13.35,-1.15 -4.59,2.15 -7.49,6.67 -8.73,11.46 -6.09,0.02 -12.18,0.02 -18.27,0 1.55,-8.03 4.86,-16.03 11.03,-21.6 z" />
  <path
     style="opacity:0.76;fill:#771352;fill-opacity:1"
     inkscape:connector-curvature="0"
     id="path6"
     d="m 25.39,6.30057 c 5.49,-0.05 10.99,-0.04 16.49,-0.01 -1.22,5.92 -2.58,11.8 -3.84,17.71 6.09,0.05 12.18,-0.01 18.27,0.03 -1.19,5.5 -2.31,11 -3.47,16.5 -6.1,-0.01 -12.19,-0.03 -18.29,0.01 -1.18,5.92 -2.47,11.82 -3.68,17.73 -5.49,0 -10.98,0 -16.47,0 1.18,-5.92 2.5,-11.82 3.67,-17.75 -6.02,0 -12.04,0 -18.07,0 1.05,-5.48 2.34,-10.91 3.33,-16.41 6.06,-0.2 12.13,-0.05 18.2,-0.09 1.28,-5.91 2.64,-11.8 3.86,-17.72 z" />
  <path
     style="opacity:1;fill:#a0196e"
     inkscape:connector-curvature="0"
     id="path9"
     d="m 519.04,4.27057 c 14.89,0.01 29.79,-0.01 44.68,0.01 -6.82,32.4 -13.65,64.79 -20.51,97.18 10.09,-12.02 25.04,-19.65 40.68,-20.92 13.76,-0.91 28.59,-0.35 40.61,7.21 8.9,5.49 14.39,15.27 16.12,25.42 2.96,15.34 -0.71,30.85 -3.95,45.83 -2.59,12.06 -5.31,24.09 -7.79,36.17 -2.29,11.52 1.61,24.14 10.52,31.93 -5.44,7.7 -15.49,9.54 -24.24,10.53 -9.38,1.01 -20.37,-0.05 -26.85,-7.73 -6.61,-8.16 -6.54,-19.53 -5.04,-29.41 2.32,-12.05 4.93,-24.05 7.36,-36.07 1.82,-9.01 4.13,-17.99 4.57,-27.2 -0.05,-5.73 -0.8,-12.01 -4.82,-16.43 -3.69,-3.89 -9.23,-5.19 -14.38,-5.55 -13.21,-1.24 -26.65,4.93 -34.71,15.37 -4.37,5.66 -7.28,12.38 -8.63,19.4 -4.73,22.41 -9.62,44.8 -14.26,67.23 -9.29,1.06 -17.65,-4.21 -24.37,-10.02 -5.5,-4.82 -10.35,-10.32 -14.88,-16.04 13.27,-62.31 26.58,-124.61 39.89,-186.91 z" />
  <path
     style="opacity:1;fill:#a0196e"
     inkscape:connector-curvature="0"
     id="path11"
     d="m 166.27,6.27057 c 14.77,0 29.55,-0.01 44.32,0.01 -6.76,32.1 -13.49,64.2 -20.35,96.28 9.99,-11.68 24.51,-19.33 39.86,-20.6 13.45,-1.17 27.86,-0.4 39.81,6.48 8.79,5.02 14.55,14.23 16.56,24.02 3.4,14.92 0.17,30.21 -3.03,44.86 -2.71,12.6 -5.52,25.18 -8.16,37.8 -2.28,11.53 1.36,24.3 10.36,32.09 -5.27,7.44 -14.98,9.39 -23.48,10.37 -9.2,1.08 -19.89,0.26 -26.6,-6.9 -7.02,-7.95 -7.08,-19.43 -5.66,-29.36 2.09,-11.4 4.67,-22.7 6.93,-34.07 1.75,-8.96 4.07,-17.84 4.85,-26.96 0.33,-6.7 -0.23,-14.45 -5.5,-19.28 -5.79,-5.05 -14.1,-5.08 -21.34,-4.56 -16.84,1.8 -30.92,15.56 -34.5,31.9 -6.29,29.37 -12.56,58.75 -18.76,88.13 -14.79,0.09 -29.58,0.02 -44.37,0.04 16.38,-76.74 32.72,-153.49 49.06,-230.25 z" />
</svg>
