<svg height="1105.213pt" viewBox="0 0 800.00024 1105.213" width="800.00024pt" xmlns="http://www.w3.org/2000/svg"><path d="m442.757 761.966 230.743-226.041v-771.891h-768.011l-231.989 235.737v762.195z" fill="#5c9fd3" transform="matrix(.80000025 0 0 .80000025 261.20008 190.42712)"/><g fill="#fff" stroke-width=".8"><path d="m684.86902 87.087082h61.994415v435.99536h-61.994415z"/><path d="m649.4474 213.76073h-61.99362v-21.36401c0-12.2552-3.1112-22.87361-10.0656-31.86241-6.9672-8.9832-16.19121-13.48-28.05921-13.48-15.564 0-25.86641 4.8032-30.98161 14.3992-5.1232 9.6008-7.6472 21.75361-7.6472 36.45841v223.04247c0 12.66721 2.828 23.28241 8.356 31.86161 5.5248 8.58 15.48001 12.86961 29.81441 12.86961 4.0856 0 8.5056-.7112 13.216-2.1456 4.70081-1.42561 9.00801-3.77201 12.90401-7.04721 3.8848-3.2624 6.6912-7.7544 9.1464-13.4816 2.4592-5.7168 3.3168-12.86641 3.3168-21.44641v-22.2144h61.99362v27.732c0 13.47841-1.8712 26.34881-6.9832 38.60162-5.1264 12.2536-11.8424 22.9784-20.84081 32.16721-9.0096 9.1952-19.3808 16.5472-31.44801 22.0608-12.0808 5.5152-24.99201 8.27201-38.90561 8.27201-11.8752 0-23.90321-1.6352-36.18401-4.90161-12.2792-3.2672-23.31201-8.884-33.13521-16.8512-9.8232-7.964-17.65041-18.47601-23.99121-31.55841-6.3504-13.06721-9.2512-29.61041-9.2512-49.63042v-240.19847c0-14.29601 2.2024-27.57281 7.1144-39.82801 4.9144-12.25521 11.744-22.87201 20.75121-31.86401 9-8.98161 19.6816-16.024809 32.17201-21.140011 12.4824-5.101601 26.26401-7.659202 41.41601-7.659202 14.3224 0 27.61681 2.557601 39.89681 7.659202 12.28001 5.115202 22.90961 12.255201 31.91921 21.448011 9.00161 9.1904 15.36801 20.2192 20.48641 33.08721 5.112 12.8696 6.9832 26.8664 6.9832 41.97441z"/><path d="m412.16413 451.2864c-3.6832 15.72961-9.72801 29.20801-18.11601 40.44241-8.3912 11.23441-19.5512 20.12161-33.46321 26.65121-13.9192 6.5344-30.91201 9.80481-50.96321 9.80481-15.14801 0-29.27041-2.66241-42.36482-7.96321-13.1072-5.3056-24.36081-12.5656-33.77121-21.7536-9.424-9.19201-16.4344-20.11841-21.96081-32.78321-5.5256-12.65601-7.8344-26.34801-7.8344-41.05442v-25.2792h61.99202v21.6024c0 11.44321 3.244 21.75281 9.9968 30.94161 6.75441 9.196 18.04721 13.78961 34.00882 13.78961 10.6432 0 18.896-1.5328 24.836-4.59361 5.9272-3.0656 10.42001-7.3552 13.49121-12.8704 3.0688-5.5144 4.9992-12.3488 5.8224-20.52801.8176-8.1656 1.2264-17.156 1.2264-26.9608 0-11.43281-.4168-20.83361-1.232-28.18481-.8232-7.35361-2.5616-13.26881-5.2176-17.77201-2.6696-4.488-6.3528-8.1656-11.05361-11.0288-4.7104-2.852-10.9568-5.916-18.7264-9.1904l-44.82722-18.38241c-27.0168-11.0312-45.12801-25.63281-54.33841-43.81361-9.21361-18.17281-13.81921-40.94722-13.81921-68.32003 0-16.332 2.248-31.86401 6.7584-46.56881 4.49921-14.7064 11.14721-27.36561 19.95281-37.99121 8.8-10.61841 19.95921-19.08961 33.46721-25.42961 13.50881-6.328802 29.25921-9.498403 47.28002-9.498403 15.5504 0 29.77601 2.864001 42.67041 8.578403 12.8984 5.727201 23.94641 13.2808 33.15681 22.67201 9.2112 9.4016 15.5448 19.9152 20.45761 31.55841 4.9136 11.6416 6.6416 23.5904 6.6416 35.84641v30.55361h-61.99202v-14.01121c0-14.2936-2.9704-26.65361-9.724-37.07041-6.75441-10.4168-17.90721-15.6248-33.87441-15.6248-8.59521 0-15.55441 1.6376-21.08081 4.9024-5.5256 3.2728-9.7736 7.4576-12.84321 12.56-3.0712 5.1152-5.1968 11.03121-6.4232 17.76961-1.2264 6.7408-1.8272 13.788-1.8272 21.1408 0 8.57761.316 15.83361.9264 21.75041.6144 5.9288 2.152 11.0312 4.6072 15.32081 2.4568 4.2896 6.03761 8.072 10.74961 11.3352 4.6992 3.276 11.1488 6.5416 19.3448 9.804l47.89042 18.99681c13.9136 5.3112 25.17441 11.548 33.77361 18.688 8.5952 7.15201 15.2448 15.52801 19.95681 25.12321 4.6992 9.6024 7.876 20.63201 9.5136 33.08881 1.6336 12.46481 2.4608 26.65361 2.4608 42.58482-.0008 18.3848-1.8432 35.44561-5.5288 51.16721z"/></g><path d="m71.090978 157.81831v7.04687h-9.0109v4.88672l9.0109.0312v7.07813h4.347426v-7.07813l9.028393-.0312v-4.88672h-9.028393v-7.04687z" fill="#5c9fd3" transform="matrix(7.345380975 0 0 7.345380975 -456.00182 -211.50429)"/><path d="m272.86749 1105.213h-38.34621v-144.51466c-14.01023 13.10051-30.5223 20.15514-49.53619 26.4324v-34.7981c24.02407-9.41931 48.19179-24.90564 56.76878-47.99374h31.11362z" fill="#5c9fd3" stroke-width="9.793841"/></svg>