<?xml version="1.0" encoding="UTF-8" standalone="no"?>
<svg
   xmlns:dc="http://purl.org/dc/elements/1.1/"
   xmlns:cc="http://creativecommons.org/ns#"
   xmlns:rdf="http://www.w3.org/1999/02/22-rdf-syntax-ns#"
   xmlns:svg="http://www.w3.org/2000/svg"
   xmlns="http://www.w3.org/2000/svg"
   xmlns:sodipodi="http://sodipodi.sourceforge.net/DTD/sodipodi-0.dtd"
   xmlns:inkscape="http://www.inkscape.org/namespaces/inkscape"
   height="53.879mm"
   width="169.33mm"
   version="1.1"
   viewBox="0 0 599.99998 190.90992"
   id="svg2"
   inkscape:version="0.91 r13725"
   sodipodi:docname="discoveryturbo.default.svg">
  <sodipodi:namedview
     pagecolor="#ffffff"
     bordercolor="#666666"
     borderopacity="1"
     objecttolerance="10"
     gridtolerance="10"
     guidetolerance="10"
     inkscape:pageopacity="0"
     inkscape:pageshadow="2"
     inkscape:window-width="1920"
     inkscape:window-height="1017"
     id="namedview66"
     showgrid="false"
     inkscape:zoom="1.3576717"
     inkscape:cx="232.27333"
     inkscape:cy="25.686866"
     inkscape:window-x="-8"
     inkscape:window-y="-8"
     inkscape:window-maximized="1"
     inkscape:current-layer="svg2" />
  <g
     id="g4228">
    <path
       d="m 0,153.99 0,0.04 c 0,22.13 13.36,35.47 36.18,35.47 15.45,0 30.19,-2.8 42.14,-6.67 l -7.7,-28.84 -70.62,0 z"
	   style="fill:#ffffff;fill-opacity:1;fill-rule:nonzero;stroke:none"
       id="path6"
       inkscape:connector-curvature="0" />
    <path
       d="m 0,82.85 0,65 40.98,0 c -2.11,-1.8 -3.4,-4.33 -3.4,-7.91 l 0,-57.09 -37.58,0 z"
	   style="fill:#ffffff;fill-opacity:1;fill-rule:nonzero;stroke:none"
       id="path8"
       inkscape:connector-curvature="0" />
    <path
       d="M 0,76.69 0,12.6 37.58,0.64 l 0,44.53 35.46,0 0,31.52 -73.04,0 z"
	   style="fill:#ffffff;fill-opacity:1;fill-rule:nonzero;stroke:none"
       id="path10"
       inkscape:connector-curvature="0" />
    <path
       d="m 123.04,45.17 -37.92,0 0,31.52 37.92,0 0,-31.52 z"
	   style="fill:#ffffff;fill-opacity:1;fill-rule:nonzero;stroke:none"
       id="path12"
       inkscape:connector-curvature="0" />
    <path
       d="m 88.39,153.99 c 7.73,22.98 28.06,35.16 49.07,35.16 15.79,0 27.38,-4.56 36.5,-15.46 l 0,11.94 37.94,0 0,-31.64 -123.51,0 z"
	   style="fill:#ffffff;fill-opacity:1;fill-rule:nonzero;stroke:none"
       id="path14"
       inkscape:connector-curvature="0" />
    <path
       d="m 123.04,127.69 0,-44.84 -37.92,0 0,50.12 c 0,5.33 0.56,10.28 1.57,14.88 l 43.44,0 c -4.21,-3.85 -7.09,-10.28 -7.09,-20.16"
	   style="fill:#ffffff;fill-opacity:1;fill-rule:nonzero;stroke:none"
       id="path16"
       inkscape:connector-curvature="0" />
    <path
       d="m 211.9,82.85 -37.94,0 0,43.08 c 0,9.8 -3.96,17.38 -11.2,21.92 l 49.14,0 0,-65 z"
	   style="fill:#ffffff;fill-opacity:1;fill-rule:nonzero;stroke:none"
       id="path18"
       inkscape:connector-curvature="0" />
    <path
       d="m 173.96,45.17 37.92,0 0,31.52 -37.92,0 0,-31.52 z"
	   style="fill:#ffffff;fill-opacity:1;fill-rule:nonzero;stroke:none"
       id="path20"
       inkscape:connector-curvature="0" />
    <path
       d="m 225.24,82.85 0,65 38.98,0 0,-40.16 c 0,-10.54 3.89,-17.92 13.01,-23.89 l 1.6,-0.95 -53.59,0 z"
	   style="fill:#ffffff;fill-opacity:1;fill-rule:nonzero;stroke:none"
       id="path22"
       inkscape:connector-curvature="0" />
    <path
       d="m 225.24,185.63 38.98,0 0,-31.64 -38.98,0 0,31.64 z"
	   style="fill:#ffffff;fill-opacity:1;fill-rule:nonzero;stroke:none"
       id="path24"
       inkscape:connector-curvature="0" />
    <path
       d="m 225.24,76.69 0,-31.52 38.63,0 0,14.05 c 11.6,-14.4 27.04,-18.27 43.2,-16.16 l 0,33.63 -81.83,0 z"
	   style="fill:#ffffff;fill-opacity:1;fill-rule:nonzero;stroke:none"
       id="path26"
       inkscape:connector-curvature="0" />
    <path
       d="m 319.61,153.99 0,31.64 37.24,0 0,-11.57 c 8.78,10.53 21.42,15.09 33.36,15.09 26.07,0 47.74,-10.67 58.56,-35.16 l -129.16,0 z"
	   style="fill:#ffffff;fill-opacity:1;fill-rule:nonzero;stroke:none"
       id="path28"
       inkscape:connector-curvature="0" />
    <path
       d="m 368.51,82.85 -48.9,0 0,65 49.3,0 c -7.63,-5.92 -12.56,-16.47 -12.56,-32.45 0,-16.85 4.85,-27 12.16,-32.55"
	   style="fill:#ffffff;fill-opacity:1;fill-rule:nonzero;stroke:none"
       id="path30"
       inkscape:connector-curvature="0" />
    <path
       d="M 449.27,76.69 C 439.26,53.48 419.09,39.91 393.36,39.91 c -13.33,0 -26.69,4.56 -36.51,14.75 l 0,-54.02 -37.24,0 0,76.05 129.66,0 z"
	   style="fill:#ffffff;fill-opacity:1;fill-rule:nonzero;stroke:none"
       id="path32"
       inkscape:connector-curvature="0" />
    <path
       d="m 406.16,82.85 45.47,0 c 2.98,8.99 4.58,19.19 4.58,30.44 0,13.45 -1.77,24.91 -5.02,34.56 l -45.56,0 c 7.64,-6.01 12.64,-17.09 12.64,-35.25 0,-13.88 -4.42,-23.97 -12.11,-29.75"
	   style="fill:#ffffff;fill-opacity:1;fill-rule:nonzero;stroke:none"
       id="path34"
       inkscape:connector-curvature="0" />
    <path
       d="m 532.23,190.91 c 24.85,0 47.54,-12.27 59.31,-36.92 l -118.76,0 c 12.29,24.98 35.87,36.92 59.45,36.92"
	   style="fill:#ffffff;fill-opacity:1;fill-rule:nonzero;stroke:none"
       id="path36"
       inkscape:connector-curvature="0" />
    <path
       d="m 532.23,38.85 c -26.17,0 -48.65,14.53 -60.07,37.84 l 119.92,0 C 580.81,53.53 558.61,38.85 532.23,38.85"
	   style="fill:#ffffff;fill-opacity:1;fill-rule:nonzero;stroke:none"
       id="path38"
       inkscape:connector-curvature="0" />
    <path
       d="m 502.02,115.4 c 0,-16.85 4.71,-27 11.79,-32.55 l -44.34,0 c -3.46,9.03 -5.37,19.16 -5.37,30.09 0,13.42 2.18,25.03 5.99,34.91 l 44.1,0 c -7.38,-5.92 -12.17,-16.47 -12.17,-32.45"
	   style="fill:#ffffff;fill-opacity:1;fill-rule:nonzero;stroke:none"
       id="path40"
       inkscape:connector-curvature="0" />
    <path
       d="m 550.33,82.85 44.42,0 c 3.38,8.95 5.25,18.96 5.25,29.75 0,13.51 -2.12,25.24 -5.87,35.25 l -44.3,0 c 7.4,-6.01 12.24,-17.09 12.24,-35.25 0,-13.88 -4.28,-23.97 -11.74,-29.75"
	   style="fill:#ffffff;fill-opacity:1;fill-rule:nonzero;stroke:none"
       id="path42"
       inkscape:connector-curvature="0" />
    <path
       d="m 295.76,31.17 -6.74,0 0,-12.08 -11.77,-18.57 7.86,0 7.33,12.31 7.44,-12.31 7.65,0 -11.77,18.44 0,12.21 z"
	   style="fill:#ffffff;fill-opacity:1;fill-rule:nonzero;stroke:none"
       id="path44"
       inkscape:connector-curvature="0" />
    <path
       d="m 250.83,0.52 0,30.65 6.74,0 0,-9.8 5.32,0 6.55,9.8 7.88,0 -7.47,-10.94 c 3.88,-1.41 6.57,-4.56 6.57,-9.54 0,-6.36 -4.35,-10.17 -11.58,-10.17 l -14.01,0 z m 6.74,6.09 6.71,0 c 3.29,0 5.29,1.45 5.29,4.42 0,2.63 -1.87,4.37 -5.16,4.37 l -6.84,0 0,-8.79 z"
	   style="fill:#ffffff;fill-opacity:1;fill-rule:nonzero;stroke:none"
       id="path46"
       inkscape:connector-curvature="0" />
    <path
       d="m 245.63,6.51 -16.43,0 0,6.23 14.46,0 0,6.01 -14.46,0 0,6.43 16.64,0 0,5.99 -23.33,0 0,-30.65 23.12,0 0,5.99 z"
	   style="fill:#ffffff;fill-opacity:1;fill-rule:nonzero;stroke:none"
       id="path48"
       inkscape:connector-curvature="0" />
    <path
       d="m 211.52,0.52 7.26,0 -12.38,30.87 -5.96,0 -12.39,-30.87 7.45,0 8.02,21.59 8,-21.59 z"
	   style="fill:#ffffff;fill-opacity:1;fill-rule:nonzero;stroke:none"
       id="path50"
       inkscape:connector-curvature="0" />
    <path
       d="m 171.41,0 c -9.45,0 -16.33,7.13 -16.33,15.89 0,8.75 6.79,15.8 16.26,15.8 9.45,0 16.33,-7.13 16.33,-15.88 C 187.67,7.05 180.88,0 171.41,0 Z m -0.07,6.22 c 5.43,0 9.27,4.37 9.27,9.67 0,5.29 -3.76,9.58 -9.2,9.58 -5.43,0 -9.27,-4.37 -9.27,-9.66 0,-5.3 3.77,-9.59 9.2,-9.59 z"
	   style="fill:#ffffff;fill-opacity:1;fill-rule:nonzero;stroke:none"
       id="path52"
       inkscape:connector-curvature="0" />
    <path
       d="m 140.38,31.69 c -9.03,0 -15.72,-6.95 -15.72,-15.8 0,-8.76 6.57,-15.89 15.99,-15.89 5.77,0 9.23,1.93 12.07,4.73 l -4.29,4.95 c -2.35,-2.14 -4.77,-3.46 -7.82,-3.46 -5.18,0 -8.89,4.29 -8.89,9.59 0,5.29 3.63,9.66 8.89,9.66 3.5,0 5.64,-1.39 8.04,-3.57 l 4.29,4.33 c -3.15,3.36 -6.65,5.46 -12.56,5.46"
	   style="fill:#ffffff;fill-opacity:1;fill-rule:nonzero;stroke:none"
       id="path54"
       inkscape:connector-curvature="0" />
    <path
       d="m 111.44,12.83 c 6.23,1.63 9.72,3.85 9.72,9.24 0,6.13 -4.63,9.55 -11.26,9.55 -4.64,0 -9.32,-1.63 -12.99,-4.91 l 3.98,-4.78 c 2.76,2.29 5.64,3.73 9.14,3.73 2.77,0 4.43,-1.1 4.43,-2.93 0,-1.76 -1.05,-2.63 -6.17,-3.95 -6.18,-1.58 -10.16,-3.28 -10.16,-9.41 0,-5.6 4.46,-9.29 10.72,-9.29 4.47,0 8.27,1.41 11.39,3.9 l -3.5,5.08 c -2.73,-1.89 -5.39,-3.01 -7.96,-3.01 -2.59,0 -3.95,1.18 -3.95,2.7 0,2.05 1.32,2.71 6.61,4.08"
	   style="fill:#ffffff;fill-opacity:1;fill-rule:nonzero;stroke:none"
       id="path56"
       inkscape:connector-curvature="0" />
    <path
       d="m 92.35,31.17 -6.75,0 0,-30.65 6.75,0 0,30.65 z"
	   style="fill:#ffffff;fill-opacity:1;fill-rule:nonzero;stroke:none"
       id="path58"
       inkscape:connector-curvature="0" />
    <path
       d="m 52.07,0.52 0,30.65 11.96,0 c 9.63,0 16.28,-6.7 16.28,-15.36 0,-8.68 -6.65,-15.29 -16.28,-15.29 l -11.96,0 z m 6.75,6.09 5.21,0 c 5.51,0 9.24,3.81 9.24,9.28 0,5.48 -3.73,9.19 -9.24,9.19 l -5.21,0 0,-18.47 z"
	   style="fill:#ffffff;fill-opacity:1;fill-rule:nonzero;stroke:none"
       id="path60"
       inkscape:connector-curvature="0" />
  </g>
</svg>
