<svg height="102.13151mm" viewBox="0 0 211.6667 102.13151" width="211.6667mm" xmlns="http://www.w3.org/2000/svg"><g transform="translate(-69.089827 .363969)"><path d="m93.54057-.36396926-24.450743 24.45074226v77.680767h77.721853l24.43705-24.423351v-77.70815826z" fill="#5c9fd3"/><g fill="#fff"><path d="m123.61702 26.494932h-7.86259v-1.767028c0-1.808123-.42464-3.355985-1.27391-4.670983-.83557-1.3013-2.26015-1.958799-4.27374-1.958799-1.06844 0-1.9588.205469-2.65739.616406-.6849.410936-1.23281.931456-1.61635 1.575258-.38354.643801-.6575 1.383487-.80818 2.232756-.15068.84927-.23286 1.739633-.23286 2.657392 0 1.082134.0411 1.999893.12328 2.739579.0685.739686.26026 1.383487.57531 1.931403.30135.534218.75338 1.013645 1.34239 1.424581.58901.410937 1.39719.821874 2.42453 1.232811l6.01338 2.383434c1.75333.671196 3.16421 1.451977 4.24634 2.356038 1.06844.890363 1.90401 1.945101 2.49302 3.150515.58901 1.205415.98625 2.6026 1.20542 4.164161.19177 1.56156.30135 3.355984.30135 5.355876 0 2.314945-.23286 4.451816-.69859 6.424313-.45203 1.986195-1.21912 3.684734-2.27385 5.095617-1.04104 1.410883-2.45193 2.520413-4.19156 3.342287-1.75333.821873-3.8765 1.23281-6.39692 1.23281-1.904 0-3.67103-.328749-5.31478-.999946-1.64375-.657499-3.05463-1.575258-4.23265-2.725881-1.191716-1.164321-2.123173-2.534111-2.821765-4.123067-.684895-1.602653-1.04104-3.31489-1.04104-5.164106v-2.93135h7.862595v2.465621c0 1.438279.42463 2.739579 1.2739 3.890203.84927 1.150623 2.27385 1.739632 4.27374 1.739632 1.3424 0 2.38344-.19177 3.12312-.589009.73969-.383541 1.3013-.917759 1.69854-1.616352.38354-.684895.63011-1.547862.72599-2.575204.10958-1.027342.15068-2.164268.15068-3.397078 0-1.424581-.0411-2.616298-.15068-3.534057-.0959-.931457-.31505-1.671143-.6575-2.232757-.32875-.575311-.79448-1.027342-1.38348-1.397185-.58901-.356145-1.36979-.739686-2.35604-1.150623l-5.61614-2.314945c-3.39708-1.383487-5.670928-3.219005-6.821552-5.506553-1.150623-2.287549-1.725934-5.150409-1.725934-8.588581 0-2.054684.273958-3.999785.835571-5.849001.575312-1.849216 1.410883-3.451869 2.506715-4.780565 1.10953-1.342394 2.50671-2.397132 4.20525-3.205308 1.68484-.794477 3.67104-1.191716 5.93119-1.191716 1.9451 0 3.73953.369843 5.35588 1.082133 1.61635.725989 2.99984 1.671144 4.15046 2.849162 1.16432 1.178019 2.05469 2.506715 2.65739 3.97239.63011 1.465675.93146 2.958745.93146 4.506608z"/><path d="m152.89353 26.418224h-7.86259v-2.616298c0-1.547862-.43833-2.876558-1.3013-4.013483-.87667-1.123228-2.05469-1.684841-3.54776-1.684841-1.9588 0-3.2464.602707-3.8902 1.808122s-.95885 2.725881-.95885 4.575097v28.053289c0 1.588956.34245 2.917651 1.04104 3.999785.68489 1.082134 1.9314 1.616352 3.72583 1.616352.52052 0 1.06843-.08219 1.65744-.26026.58901-.178073 1.13693-.479427 1.61635-.890363.49313-.410937.89037-.972551 1.20542-1.698539.30135-.712291.45203-1.616352.45203-2.698486v-2.698485h7.86259v3.397078c0 1.698539-.31505 3.31489-.95885 4.849055-.6438 1.547862-1.53417 2.890256-2.65739 4.054577-1.13693 1.150623-2.45193 2.068382-3.97239 2.766974-1.52047.698593-3.15052 1.04104-4.89015 1.04104-1.49307 0-3.01354-.205468-4.5477-.616405-1.53417-.410937-2.93135-1.123227-4.16416-2.123174-1.23281-.999946-2.24646-2.314944-3.04094-3.958691-.79447-1.643748-1.19171-3.725828-1.19171-6.24624v-30.203859c0-1.794424.30135-3.465567.91776-4.999731.6164-1.547863 1.49307-2.876558 2.62999-4.013484 1.12323-1.123227 2.46562-2.01359 4.04088-2.657391 1.56156-.643801 3.30119-.958853 5.2052-.958853 1.79443 0 3.46557.315052 4.99973.958853 1.54786.643801 2.87656 1.547862 4.01349 2.698485 1.12322 1.150623 2.01359 2.547808 2.65739 4.16416s.95885 3.369682.95885 5.27369z"/><path d="m164.75591 65.61886h-7.60233v-54.873768h7.60233z"/></g><g fill="#5c9fd3"><path d="m191.98733 32.23709h3.2327v-21.533091h-3.2327z"/><path d="m207.07693 37.925825c-.61641-.616405-1.3287-1.095832-2.16427-1.451977-.82187-.342447-1.72593-.506822-2.69848-.506822-1.02734 0-1.9588.164375-2.80807.506822-.84927.356145-1.57526.821874-2.17797 1.424581-.6164.616405-1.08213 1.328696-1.41088 2.15057-.34245.835571-.50682 1.725934-.50682 2.684787v16.190912c0 1.356092.21916 2.465621.6438 3.342286.43833.890364.98625 1.602654 1.64375 2.136872.67119.534218 1.41088.917759 2.24645 1.136925.83557.219167 1.64375.32875 2.45192.32875.94516 0 1.82182-.191771 2.6437-.561614.80817-.369843 1.52046-.862967 2.13687-1.479373.60271-.630103 1.08213-1.342393 1.43828-2.177965.34245-.821874.52052-1.684841.52052-2.6026v-1.808122h-4.24635v1.438279c0 .575312-.0822 1.068436-.24656 1.451977-.16438.383541-.38354.684895-.6438.904061s-.56162.383541-.87667.479426c-.31505.09589-.6164.136979-.89036.136979-.97255 0-1.64375-.287656-2.01359-.862967-.38354-.575312-.56161-1.3013-.56161-2.15057v-15.026591c0-.999946.16437-1.82182.52052-2.465621.34244-.643801 1.04104-.97255 2.09577-.97255.80818 0 1.43828.301353 1.91771.917759.46573.602707.69859 1.314998.69859 2.136871v1.410884h4.24635v-1.657446c0-1.013644-.17807-1.958799-.52052-2.821766-.35615-.876665-.83557-1.616352-1.43828-2.232757"/><path d="m191.30243 38.069653c-.6301-.630103-1.36979-1.136925-2.24645-1.534164-.87667-.383541-1.83552-.575312-2.89026-.575312-1.21911 0-2.28755.219166-3.19161.643801-.91776.424635-1.67114.999947-2.27385 1.712237-.58901.712291-1.04104 1.575258-1.34239 2.561506-.31506.986249-.46573 2.040987-.46573 3.136818 0 1.849216.31505 3.38338.94515 4.602493.61641 1.232811 1.84922 2.219059 3.67104 2.958745l3.04093 1.232811c.52052.232864.94516.438333 1.26021.630103.31505.191771.57531.438333.75338.739687.17807.301353.28766.698592.35615 1.191716.0548.506823.0822 1.136926.0822 1.904008 0 .657499-.0274 1.273904-.0822 1.82182-.0685.547916-.19177 1.013644-.39724 1.383487s-.52052.657499-.91776.862968c-.39724.205468-.95885.315051-1.68484.315051-1.08214 0-1.84922-.315051-2.30125-.931457-.46573-.616405-.68489-1.314998-.68489-2.08208v-1.328696h-4.24635v1.575258c0 .986249.19177 1.904008.56161 2.766975.36985.84927.87667 1.588956 1.52047 2.205361.6301.616406 1.39718 1.10953 2.28755 1.465675.87666.356145 1.83552.534218 2.86286.534218 1.35609 0 2.50671-.219166 3.45187-.657499.94515-.438333 1.69854-1.04104 2.26015-1.794424.57531-.753384.98625-1.671143 1.23281-2.725881.24656-1.068436.36984-2.205361.36984-3.45187 0-1.068436-.0548-2.027288-.16437-2.86286-.10958-.849269-.32875-1.588956-.6438-2.232757-.31505-.657499-.76708-1.219112-1.35609-1.698539-.57532-.479426-1.3424-.904061-2.28755-1.260206l-3.23271-1.273904c-.56161-.219167-.99994-.452031-1.31499-.671197-.31506-.219167-.56162-.465729-.72599-.753384-.16438-.301354-.27396-.643802-.31505-1.04104-.0411-.397239-.0548-.890364-.0548-1.465675 0-.493124.0411-.972551.12329-1.424581.0822-.452031.23286-.84927.43833-1.191717.20547-.342448.49312-.630103.86297-.84927.38354-.219166.86296-.328749 1.43827-.328749 1.08214 0 1.84922.342447 2.31495 1.054738.45203.698592.68489 1.534164.68489 2.493017v.945154h4.23265v-2.054684c0-.835571-.16437-1.630049-.49312-2.424527-.34245-.78078-.80818-1.493071-1.43828-2.123174"/><path d="m211.76709 65.61886h4.24634v-29.409381h-4.24634z"/><path d="m182.27141 13.609322h1.49307c.94516 0 1.60265.232864 1.9588.698593.35614.465728.53422 1.109529.53422 1.958799v10.383004c0 .917759-.19177 1.602654-.56162 2.040986-.38354.424635-1.02734.643801-1.9314.643801h-1.49307zm5.68463 17.190858c1.02734-.958852 1.53416-2.438225 1.53416-4.451816v-10.08165c0-1.753331-.49312-3.109423-1.45198-4.095671-.97255-.972551-2.38343-1.465675-4.21895-1.465675h-4.78056v21.533091h4.49291c1.9314 0 3.39707-.479426 4.42442-1.438279"/><path d="m220.19814 27.433238v-1.328696h-3.2327v1.054738c0 .424635-.0548.78078-.19177 1.054738-.12328.287656-.28766.506822-.47943.671197-.20547.164375-.42463.273958-.6712.342447-.24656.08219-.46573.109583-.68489.109583-.73969 0-1.24651-.205468-1.53417-.630103-.28765-.424635-.42463-.945155-.42463-1.575258v-11.013107c0-.725989.13698-1.328696.39724-1.794425.26026-.479426.79448-.71229 1.60265-.71229.60271 0 1.09583.219166 1.45198.657499.35614.45203.53422.97255.53422 1.575258v1.027342h3.2327v-1.205415c0-.739686-.13698-1.438279-.39724-2.068382-.26026-.643801-.6301-1.178019-1.09583-1.643747-.46573-.452031-1.01364-.794478-1.64375-1.054738-.6301-.246562-1.315-.369843-2.05468-.369843-.78078 0-1.49307.123281-2.13687.369843-.6438.26026-1.20542.602707-1.65745 1.04104-.46573.45203-.82187.97255-1.08213 1.575258-.24656.602707-.38354 1.260206-.38354 1.972497v11.848679c0 .999946.16437 1.808122.49312 2.451923s.73969 1.164321 1.24651 1.56156 1.08213.671197 1.71224.835572c.6301.150676 1.2602.232864 1.87661.232864.71229 0 1.38348-.136979 1.99989-.397239.6301-.273958 1.16432-.643801 1.63005-1.095832.46573-.45203.83557-.986248 1.09583-1.588956.26026-.602707.39724-1.23281.39724-1.904007"/><path d="m256.35237 29.156433h-6.39692v-6.31473h5.57505v-2.903953h-5.57505v-6.328428h6.39692v-2.903954h-9.62962v21.533091h9.62962z"/><path d="m198.67053 30.957706c.47943.452031 1.06844.808176 1.73963 1.068436.6712.273958 1.41089.397239 2.19167.397239 1.02734 0 1.904-.164375 2.61629-.479427.72599-.328749 1.3013-.767082 1.72594-1.314997.43833-.561614.75338-1.219113.94515-1.999893.17808-.78078.27396-1.616352.27396-2.520413 0-.794478-.0411-1.49307-.12328-2.109476-.0822-.616405-.24656-1.164321-.49312-1.630049-.23287-.479426-.57532-.890363-1.02735-1.246509-.43833-.342447-1.02734-.657499-1.73963-.917759l-2.46562-.931456c-.42463-.164375-.75338-.32875-.99995-.493125-.24656-.164374-.42463-.342447-.54791-.561613-.13698-.205469-.20547-.465729-.24656-.753385-.0274-.287655-.0411-.643801-.0411-1.068435 0-.369844.0274-.712291.0959-1.04104.0548-.342448.16437-.630104.32875-.876666.15067-.26026.38354-.465728.6575-.630103.28765-.164375.65749-.232864 1.09583-.232864.82187 0 1.41088.246562 1.75333.767082.35614.506822.53422 1.123227.53422 1.82182v.698593h3.219v-1.506769c0-.602707-.12328-1.191717-.36984-1.767028-.26026-.575312-.61641-1.095832-1.09583-1.56156-.47943-.465729-1.04104-.835572-1.71224-1.123228-.6575-.273957-1.39719-.424634-2.20536-.424634-.91776 0-1.73963.164374-2.43823.479426-.68489.301354-1.2602.725988-1.71223 1.246508-.46573.534218-.80818 1.150624-1.04104 1.876612-.23287.725988-.34245 1.493071-.34245 2.301246 0 1.356092.23286 2.479319.71229 3.369683.47943.904061 1.41088 1.616351 2.80807 2.164267l2.30124.904061c.41094.164375.72599.315052.97255.452031.23287.150676.42464.328749.56162.547915.13698.219167.23286.52052.27396.876666.0411.369843.0685.835571.0685 1.397185 0 .479426-.0274.931457-.0685 1.328696s-.13698.739686-.30136 1.013644c-.16437.273958-.38354.479426-.69859.630103-.30135.150677-.72599.232864-1.2739.232864-.82188 0-1.41089-.232864-1.76703-.684894-.34245-.452031-.52052-.958853-.52052-1.520467v-.97255h-3.23271v1.150623c0 .725988.15068 1.397185.43834 2.027288.27395.630104.67119 1.164321 1.15062 1.616352"/><path d="m273.09941 32.242569h3.2327v-9.1091l4.42442-12.423991h-3.41077l-2.6026 8.561184h-.0548l-2.6026-8.561184h-3.42448l4.43812 12.423991z"/><path d="m219.29545 65.61886h12.62946v-4.218952h-8.38311v-8.629674h7.31467v-3.958691h-7.31467v-8.629674h8.38311v-3.97239h-12.62946z"/><path d="m265.37517 18.403585c-.0685.410937-.19177.767082-.36984 1.04104-.17808.287656-.43834.506822-.76709.657499-.34244.150677-.79447.219166-1.36978.219166h-1.83552v-6.711968h1.68484c.58901 0 1.06843.06849 1.42458.205468.35614.150677.6301.369843.83557.657499s.32875.643801.39724 1.054738c.0685.410937.0959.890363.0959 1.438279s-.0274 1.027342-.0959 1.438279m.53422 4.013483c1.04104-.547916 1.76703-1.273904 2.17796-2.164267.41094-.904061.61641-1.972497.61641-3.219006 0-4.218951-1.90401-6.328427-5.69833-6.328427h-5.1915v21.533091h3.21901v-9.191288h1.9314l3.01354 9.191288h3.42447z"/><path d="m262.98078 37.925825c-.61641-.616405-1.3287-1.095832-2.16427-1.451977-.82187-.342447-1.72593-.506822-2.69848-.506822-1.02734 0-1.9588.164375-2.80807.506822-.84927.356145-1.57526.821874-2.17797 1.424581-.6164.616405-1.08213 1.328696-1.41088 2.15057-.34245.835571-.50682 1.725934-.50682 2.684787v16.190912c0 1.356092.21916 2.465621.6438 3.342286.43833.890364.98625 1.602654 1.64375 2.136872.67119.534218 1.41088.917759 2.24645 1.136925.83557.219167 1.64375.32875 2.45192.32875.94516 0 1.82182-.191771 2.6437-.561614.80817-.369843 1.52046-.862967 2.13687-1.479373.60271-.630103 1.08213-1.342393 1.43828-2.177965.34245-.821874.52052-1.684841.52052-2.6026v-1.808122h-4.24635v1.438279c0 .575312-.0822 1.068436-.24656 1.451977-.16438.383541-.38354.684895-.6438.904061s-.56162.383541-.87667.479426c-.31505.09589-.6164.136979-.89036.136979-.97255 0-1.64375-.287656-2.01359-.862967-.38354-.575312-.56161-1.3013-.56161-2.15057v-15.026591c0-.999946.16437-1.82182.52052-2.465621.34244-.643801 1.04104-.97255 2.09577-.97255.80818 0 1.43828.301353 1.91771.917759.46573.602707.69859 1.314998.69859 2.136871v1.410884h4.24635v-1.657446c0-1.013644-.17807-1.958799-.52052-2.821766-.35615-.876665-.83557-1.616352-1.43828-2.232757"/><path d="m267.55176 65.61886h12.62946v-4.218952h-8.38311v-8.629674h7.31467v-3.958691h-7.31467v-8.629674h8.38311v-3.97239h-12.62946z"/><path d="m229.60038 27.16065c0 .739686-.21917 1.3013-.6438 1.643747-.43833.356146-.94516.534218-1.53417.534218-.6027 0-1.10952-.178072-1.54786-.534218-.42463-.342447-.6438-.904061-.6438-1.643747v-11.369253c0-.753384.21917-1.3013.6438-1.657445.43834-.342448.94516-.52052 1.54786-.52052.58901 0 1.09584.178072 1.53417.52052.42463.356145.6438.904061.6438 1.657445zm1.50677-15.314247c-.52052-.438332-1.09583-.767082-1.73963-.986248-.64381-.219166-1.3013-.342447-1.94511-.342447-.65749 0-1.31499.123281-1.95879.342447-.64381.219166-1.21912.547916-1.73964.986248-.52052.424635-.93145.972551-1.24651 1.643748-.31505.657499-.47942 1.424581-.47942 2.301246v11.369253c0 .890363.16437 1.657445.47942 2.314944.31506.657499.72599 1.205415 1.24651 1.63005.52052.438332 1.09583.767082 1.73964.986248.6438.219167 1.3013.32875 1.95879.32875.64381 0 1.3013-.109583 1.94511-.32875.6438-.219166 1.21911-.547916 1.73963-.986248.52052-.424635.93146-.972551 1.24651-1.63005s.47942-1.424581.47942-2.314944v-11.369253c0-.876665-.16437-1.643747-.47942-2.301246-.31505-.671197-.72599-1.219113-1.24651-1.643748"/><path d="m244.23521 53.930446h-.0822l-6.3969-17.725076h-4.08198v29.40938h4.24635v-17.670284h.0822l6.4791 17.670284h3.98609v-29.40938h-4.23265z"/><path d="m240.80799 32.242569 4.61619-21.533091h-3.41078l-2.6026 15.026591h-.0548l-2.5752-15.026591h-3.41078l4.5888 21.533091z"/></g></g></svg>