<?xml version="1.0" encoding="UTF-8"?>
<!-- Generator: Adobe Illustrator 16.0.0, SVG Export Plug-In . SVG Version: 6.00 Build 0)  -->
<svg id="Layer_1" width="749.65" height="486.62" enable-background="new 0 0 792 515" version="1.1" viewBox="0 0 749.65 486.62" xml:space="preserve" xmlns="http://www.w3.org/2000/svg" xmlns:cc="http://creativecommons.org/ns#" xmlns:dc="http://purl.org/dc/elements/1.1/" xmlns:rdf="http://www.w3.org/1999/02/22-rdf-syntax-ns#"><metadata id="metadata27"><rdf:RDF><cc:Work rdf:about=""><dc:format>image/svg+xml</dc:format><dc:type rdf:resource="http://purl.org/dc/dcmitype/StillImage"/><dc:title/></cc:Work></rdf:RDF></metadata><g id="g3" transform="translate(-21.174 -14.192)" fill="#08ee59"><path id="path5" d="m45.972 14.22c-10.563 0.31-19.058 1.627-20.963 3.691-1.658 1.871-3.788 3.368-3.834 5.869-0.057 2.428 2.76 2.649 4.458 2.628 1.667 0 3.231-0.147 3.21-1.183 0-1.39-2.277-1.094-2.277-2.539 0-1.636 8.734-1.999 13.086-1.999 37.363-0.135 80.387 26.141 80.456 48.44 0.058 17.301-22.149 21.195-34.396 21.195-4.359 0.02-8.571-0.436-12.577-1.228-0.202-5.509-0.515-17.062-0.651-24.387 1.407-0.024 2.732-0.055 3.854-0.055 9.079-0.021 20.995 3.234 21.004 5.382 0 1.841-3.174 3.126-3.174 4.881 0.025 1.315 2.938 1.052 5.437 1.259 0.464 0.057 5.586-2.863 5.58-7.467-0.03-6.079-7.479-13.254-31.817-13.154h-1.068c-0.225-6.837-1.196-17.565-5.053-17.561-3.15 0.023-4.073 11.863-4.338 18.344-13.661 2.134-25.789 7.757-25.766 13.314 0 4.541 9.774 15.966 25.553 22.925 0.278 5.155 1.236 8.678 5.751 8.653 3.272 0 4.36-2.433 4.703-4.996 5.109 1.323 10.647 2.105 16.522 2.086 22.902-0.061 41.306-12.498 41.238-29.523-0.048-22.859-45.427-55.683-84.938-54.575m-6.158 56.853c0-3.966 11.892-5.515 22.909-6.079-0.066 6.246-0.147 15.197-0.127 21.211-13.555-4.851-22.782-12.561-22.782-15.132"/><path id="path7" d="m139.12 56.106c-3.858 0.043-3.977 15.896-4.087 21.686-0.259 13.184 1.667 14.725 5.128 14.725 3.094 0 4.149-0.38 3.886-11.419-0.486-20.959-1.885-24.992-4.927-24.992"/><path id="path9" d="m141.15 50.854c8.55-0.042 22.217-9.928 22.167-18.131 0-3.685-1.883-5.595-6.545-6.256-1.982-1.92-4.869-4.078-9.174-4.067-13.354 0.035-22.022 10.861-22.022 16.716 7e-3 2.199 0.688 4.841 2.604 7.048 0.082 4.713 1.196 5.929 2.697 5.929 1.683 0 2.703-0.991 3.326-2.166 1.903 0.606 4.196 0.949 6.947 0.927m0.865-6.627c-1.966 0-3.616-0.27-5.026-0.72 3.802-4.323 12.945-12.537 17.455-12.559 2.935 0 3.461 2.389 3.461 3.292-3e-3 5.478-11.103 9.965-15.89 9.987m0.636-14.609c-4.083 2.471-8.284 5.867-11.119 9.286-0.125-0.441-0.211-0.886-0.211-1.296 0-2.632 3.79-6.74 11.33-7.99"/><path id="path11" d="m185.55 58.955c0-3.63-9.276-3.593-14.501-3.587-3.919 0.031-23.775 0.476-23.753 11.738 0.013 7.596 11.141 5.737 18.517 6.495 5.995 0.604 13.28 2.619 13.323 4.604 0 4.479-15.926 6.251-19.186 6.251-6.766 0.041-6.903-1.942-6.903-2.958 0-1.014 1.123-2.722 3.664-2.722 2.521-0.013 7.721 3.261 11.33 3.25 3.563-0.032 6.555-1.626 6.555-3.264 0-2.996-11.894-4.428-15.578-4.428-3.876 0.025-9.431 1.633-9.399 7.52 0 3.061 4.925 10.28 18.759 10.216 13.638-0.062 17.088-7.901 17.068-11.945-0.023-9.834-9.232-10.974-17.26-11.674-6.016-0.526-12.473-0.824-12.449-2.172 0.044-4.496 29.813-1.202 29.813-7.324"/><path id="path13" d="m208.22 50.639c-1.122 0-1.333 1.208-1.333 2.481 0 3.893 5.281 17.276 5.281 22.425 0 1.051-0.083 2.947-0.908 3.213-1.259 0.369-12.241-19.973-16.782-20.321-4.686-0.365-7.209 19.956-7.184 24.96 0 4.962 0.883 8.337 4.544 8.315 5.404 0 2.605-20.29 4.776-20.29 1.619 0 10.461 18.559 15.387 18.538 5.33-0.018 8.488-7.962 8.477-13.126-0.029-11.801-7.77-26.237-12.258-26.195"/><path id="path15" d="m245.03 81.998c-1.886 0-12.517 2.391-13.215 1.759-0.708-0.657 0.625-6.879 1.951-7.291 1.332-0.413 9.647-0.311 10.968-0.392 3.861-0.224 3.132-5.51 0.749-5.711-1.215-0.111-8.712-0.134-9.141-0.836-0.392-0.683 0.139-4.214 0.958-4.577 1.726-0.74 13.133-1.021 13.996-1.243 1.424-0.381 2.458-1.141 2.798-2.365 0.339-1.244-3.962-6.27-9.287-5.701-9.157 1.005-21.012 0.961-21.012 3.997 0 2.85 5.572 3.995 5.713 4.786 0.148 0.759-0.715 3.718-1.043 4.649-0.327 0.99-4.315 1.294-4.573 4.051-0.057 0.651 0.995 1.644 0.811 2.441-0.632 2.331-2.537 7.16-2.533 9.146 0 3.092 2.258 9.958 8.46 9.725 9.826-0.303 18.623-7.258 18.774-8.484 0.202-1.82-2.49-3.954-4.374-3.954"/><path id="path17" d="m283.08 58.408c-5.366 0.297-15.659 11.821-21.665 19.592-0.383-0.798-0.593-1.566-0.593-2.244-0.014-3.318 6.079-13.146 7.218-15.622 1.188-2.549-0.146-5.957-1.637-4.729-2.848 2.37-11.996 13.207-11.974 23.284 0 2.318 0.594 5.131 1.863 7.716-2.031 6.754-7.035 21.798-6.883 30.912 0.093 4.706 4.785 9.33 7.611 8.742 1.075-0.255 1.284-6.443 2.723-10.617 1.965-6.031 5.144-17.057 6.232-21.753 0.515 0.057 1.029 0.097 1.582 0.097 11.167-0.041 23.569-12.156 23.551-22.566-0.038-10.449-6.123-12.941-8.028-12.812m-12.9 25.772c4.503-7.919 11.052-18.406 13.464-18.365 1.691 0 2.333 1.751 2.333 4.309 0 7.745-9.192 14.165-15.797 14.056"/><path id="path19" d="m411.93 494.94v-105.9c-0.042-1.39-0.315-2.731-0.819-4.056-0.577-1.386-1.446-2.658-2.438-3.623l-65.789-66.815c-2.272-2.325-2.272-6.09 0-8.382l65.789-66.825c0.992-1.01 1.861-2.202 2.438-3.629 0.501-1.32 0.804-2.718 0.819-4.06v-105.87c0-1.519-0.556-3.04-1.694-4.178-1.157-1.166-2.669-1.687-4.114-1.687h-100.25c-1.333 0-2.661 0.226-3.966 0.823-1.404 0.525-2.593 1.411-3.589 2.405l-69.868 70.949c-2.278 2.318-5.938 2.318-8.244-0.021l-69.883-70.929c-0.972-0.994-2.183-1.88-3.55-2.405-1.325-0.598-2.647-0.823-4.003-0.823h-100.2c-1.459 0-2.978 0.52-4.104 1.687-1.164 1.14-1.694 2.661-1.694 4.157v105.89c7e-3 1.341 0.271 2.739 0.801 4.06 0.572 1.427 1.413 2.619 2.389 3.629l65.792 66.826c2.316 2.292 2.316 6.057 0 8.382l-65.792 66.815c-0.976 0.983-1.817 2.237-2.389 3.623-0.527 1.325-0.794 2.684-0.801 4.056v105.9c0 1.492 0.546 3.018 1.694 4.14 1.127 1.155 2.643 1.728 4.104 1.728h104.25c1.365-0.033 2.695-0.303 4.033-0.815 1.368-0.558 2.567-1.403 3.58-2.439l65.775-66.812c2.306-2.324 5.966-2.324 8.278-0.021l65.764 66.831c0.977 1.039 2.188 1.884 3.58 2.438 1.339 0.516 2.673 0.783 4.02 0.818h104.28c1.448 0 2.957-0.573 4.117-1.729 1.134-1.122 1.69-2.646 1.69-4.138"/><path id="path21" d="m688.22 500.81c1.316-0.032 2.66-0.303 3.985-0.818 1.407-0.554 2.597-1.399 3.563-2.438l71.992-73.002c0.933-0.964 1.693-2.15 2.245-3.474 0.566-1.391 0.825-2.819 0.825-4.262v-212.95c0-1.43-0.256-2.85-0.825-4.262-0.552-1.334-1.312-2.51-2.245-3.46l-71.992-73.003c-0.967-0.994-2.156-1.868-3.563-2.405-1.325-0.597-2.666-0.823-3.985-0.823h-252.27c-1.493 0-2.963 0.521-4.095 1.686-1.157 1.151-1.734 2.663-1.759 4.159v369.18c0.027 1.494 0.602 3.018 1.759 4.139 1.129 1.155 2.602 1.729 4.095 1.729h252.27v-2e-3z"/></g></svg>
