<svg enable-background="new 0 0 1000 354.8971558" space="preserve" version="1.1" viewBox="0 0 1849.1 656.26" xmlns="http://www.w3.org/2000/svg">
 <link href="" rel="stylesheet" type="text/css"/>
 <style type="text/css"/>
 <g transform="scale(1.8491)">
  <path d="m131.46 169.99v89.443s-0.86417 9.9807-9.4047 12.952c-8.5405 2.9765-25.723 6.4938-33.975-12.892l-36.856 65.969s27.254 29.432 77.223 29.432c49.97 0 67.212-27.608 71.816-34.521 4.6088-6.9082 12.285-22.266 12.285-41.171v-128.21z"/>
  <path d="m219.75 190.72 77.734 0.28806-0.19205 75.596s-0.70242 13.372 5.0536 16.823c5.756 3.4617 15.358 2.2438 18.041-1.2128 2.6885-3.4566 3.6487-5.569 3.6487-17.789s0.12634-73.448 0.12634-73.448h77.097l-0.0657 86.178s1.0865 21.053-6.9739 35.35c-8.0604 14.302-14.302 20.058-27.158 28.118-12.861 8.0604-35.698 13.725-58.348 13.725s-52.592-7.7774-68.425-23.797c-15.838-16.025-20.634-32.727-20.634-50.576-2e-5 -17.849 0.096-89.256 0.096-89.256z"/>
  <path d="m406.89 190.91v162.96h77.254l0.38406-69.678s-0.38406-11.805 2.3044-16.222c2.6885-4.4118 6.5241-5.66 10.749-5.66 4.2248 0 11.178 1.8243 12.381 11.755 1.1977 9.9353 0.71759 79.659 0.71759 79.659l77.208-0.0505 0.19208-82.444s0.71759-21.255-1.4858-35.794c-2.2084-14.539-9.6927-31.433-23.317-39.928-13.629-8.495-32.681-9.8342-47.458-5.8975-14.782 3.9317-22.17 13.387-22.17 13.387l-15.979-11.997z"/>
  <path d="m770.05 187.91c-63.084 1.602-94.047 34.804-95.972 82.661-2.1023 52.385 47.028 83.879 95.78 82.924 60.082-1.1876 96.346-36.214 95.78-82.924-0.63678-53.361-45.3-83.945-95.588-82.661zm-0.0455 105.18c-10.506 0.3689-22.074-8.3535-21.543-22.67 0.38409-10.41 7.3933-22.908 21.584-22.6 10.991 0.2375 21.215 8.6871 21.503 22.6 0.26281 12.765-8.3889 22.21-21.543 22.67z"/>
  <path d="m870.15 191.82v160.99h76.587l-0.19201-63.245s-0.96021-18.718 13.725-28.027c14.686-9.3087 34.546-3.4566 39.731-0.48011v-72.65s-20.826-0.96018-32.055 5.089c-11.229 6.0491-14.969 9.9505-23.034 21.468v-23.034z"/>
  <polygon points="592.73 232.84 593.19 191.96 670.41 191.96 670.46 232.38 670.41 232.38 670.51 353.01 593.09 353.49 592.73 233.19"/>
  <ellipse cx="601.83" cy="101.23" rx="21.058" ry="21.665"/>
  <ellipse cx="671.38" cy="112.79" rx="21.569" ry="21.503"/>
  <path d="m246.31 86.033c-8.0503 0.04044-8.2575 32.302-8.5102 44.077-0.5761 26.89 3.4364 30.089 10.623 30.064 6.4584-0.0152 8.6719-0.77824 8.116-23.292-1.0158-42.622-3.9367-50.854-10.228-50.849z"/>
  <path d="m250.5 73.778c17.854-0.04549 46.235-20.184 46.184-36.896-0.0152-7.5197-3.9165-11.371-13.675-12.74-4.063-3.9014-10.112-8.2626-19.092-8.2525-27.79 0.096-45.81 22.069-45.785 34.01 5e-3 4.4573 1.4403 9.8595 5.4225 14.398 0.14149 9.5108 2.451 12.043 5.5892 12.027 3.5223 0 5.6196-1.9658 6.9183-4.4269 3.9772 1.1977 8.7275 1.9103 14.438 1.8799zm1.8597-13.493c-4.1136 0-7.5904-0.52555-10.491-1.415 7.8886-8.8488 26.935-25.536 36.3-25.566 6.1401-0.02021 7.1912 4.8059 7.1912 6.6606 0.0202 11.148-23.054 20.29-33 20.32zm1.3038-29.75c-8.5405 4.9727-17.273 11.977-23.13 18.926-0.29309-0.91974-0.44976-1.7991-0.44976-2.6278-0.0253-5.377 7.9088-13.705 23.58-16.298z"/>
  <path d="m342.66 91.95c-0.0354-7.4742-19.214-7.3832-30.038-7.3428-8.116 0.0202-49.247 0.99049-49.166 23.913 0.0354 15.525 23.039 11.729 38.331 13.281 12.432 1.2583 27.567 5.3012 27.567 9.3794 0.0404 9.1015-32.924 12.77-39.716 12.811-13.988 0.0354-14.302-4.0479-14.302-6.0996 0-2.0214 2.3145-5.5236 7.55-5.5488 5.2506 0 16.055 6.6758 23.479 6.6302 7.4388-0.0303 13.619-3.3252 13.604-6.6454-0.0152-6.0896-24.677-9.0408-32.287-9.0408-8.0099 0.0354-19.532 3.3252-19.476 15.348 0.0152 6.2563 10.244 20.972 38.892 20.866 28.265-0.0758 35.38-16.116 35.355-24.399-0.0556-20.128-19.108-22.387-35.724-23.807-12.437-1.0259-25.849-1.6474-25.803-4.437 0.11121-9.1671 61.76-2.3852 61.734-14.908z"/>
  <path d="m389.87 75.304c-2.3398 0-2.7643 2.4813-2.7643 5.094 0.0354 7.833 10.901 35.122 10.946 45.583 0 2.1579-0.18699 6.044-1.8749 6.5191-2.6329 0.73784-25.359-40.6-34.839-41.293-9.7483-0.68224-14.898 40.58-14.857 50.753 0.0202 10.163 1.7991 16.975 9.3744 16.96 11.254-0.0303 5.4326-41.288 9.9454-41.288 3.3455 0 21.69 37.715 31.893 37.659 11.093-0.0303 17.581-16.161 17.571-26.612-0.091-24.03-16.08-53.401-25.394-53.376z"/>
  <path d="m465.85 139.36c-3.9014 0-25.773 4.8666-27.234 3.5779-1.4352-1.314 1.2634-13.968 4.0277-14.868 2.7441-0.88438 19.81-0.62159 22.6-0.79339 7.9543-0.43965 6.4534-11.204 1.5312-11.608-2.4611-0.22235-17.95-0.24765-18.824-1.6879-0.82373-1.41 0.25776-8.6012 2.0063-9.3238 3.5274-1.4706 27.026-2.1174 28.79-2.5571 2.9058-0.74289 5.0637-2.3044 5.7813-4.8009 0.72263-2.4863-8.1615-12.786-19.143-11.573-18.84 2.0568-43.304 1.9456-43.284 8.116 0.0151 5.8116 11.472 8.1211 11.765 9.6927 0.28299 1.6171-1.4908 7.6157-2.1528 9.4704-0.70245 2.0416-8.8387 2.6531-9.3845 8.3131-0.13138 1.3038 2.0316 3.3303 1.6222 4.9373-1.2988 4.7756-5.1799 14.544-5.1799 18.632 0.0303 6.3068 4.6594 20.25 17.45 19.85 20.229-0.67213 38.362-14.782 38.619-17.278 0.44983-3.7548-5.0838-8.1211-8.9902-8.1009z"/>
  <path d="m51.811 0.056537c-22.039 0.61654-39.812 3.3455-43.754 7.5854-3.5072 3.7447-7.9341 6.888-8.0554 11.987-0.12129 4.9474 5.7307 5.3821 9.2632 5.3618 3.5476 0 6.7768-0.3032 6.7617-2.3499 0-2.9159-4.72-2.3246-4.72-5.2305 0-3.3707 18.213-4.1439 27.309-4.1844 78.072-0.21221 167.98 53.477 168.11 99.014 0.12128 35.39-46.28 43.329-71.867 43.395-9.0863 0.0303-17.905-0.90965-26.284-2.5116-0.37397-11.295-1.0461-34.925-1.3493-49.884 2.9664-0.0354 5.7105-0.0556 8.0756-0.0556 18.966-0.0758 43.794 6.5747 43.835 10.971 0 3.77-6.5949 6.3372-6.5898 9.9252 0.0253 2.6885 6.1148 2.2084 11.406 2.5723 0.92984 0.091 11.648-5.8368 11.613-15.186-0.0354-12.401-15.646-27.087-66.49-26.951-0.71761 0-1.4504 0.0202-2.1932 0.03539-0.48514-13.928-2.5723-35.916-10.537-35.88-6.6151 0.0202-8.5405 24.201-9.0913 37.558-28.522 4.2602-53.886 15.792-53.851 27.138 0 9.2733 20.391 32.661 53.396 46.907 0.56094 10.491 2.5874 17.698 11.977 17.662 6.8223-0.0152 9.1419-4.998 9.8544-10.223 10.673 2.7087 22.241 4.2652 34.521 4.2399 47.877-0.14149 86.315-25.541 86.193-60.365-0.13137-46.685-94.982-113.81-177.53-111.53zm-12.876 116.19c-0.01011-8.1413 24.879-11.219 47.913-12.361-0.15665 12.745-0.31332 31.049-0.27795 43.309-28.335-9.9151-47.605-25.718-47.635-30.948z"/>
  <path d="m544.26 91.389c-10.981 0.662-32.136 24.05-44.481 39.822-0.76812-1.607-1.2381-3.1635-1.2634-4.6139-0.0152-6.6656 12.533-26.632 14.868-31.62 2.451-5.2254-0.30823-12.098-3.3556-9.627-5.9026 4.8413-24.727 26.779-24.666 47.231 0 4.6948 1.2432 10.431 3.8761 15.651-4.2298 13.705-14.514 44.224-14.175 62.73 0.17179 9.5563 9.8443 18.966 15.626 17.693 2.2033-0.48009 2.7087-13.003 5.5993-21.538 4.0732-12.225 10.592-34.551 12.861-44.102 1.036 0.12129 2.0972 0.18195 3.2191 0.18195 23.004-0.0758 48.504-24.616 48.438-45.77-0.0607-21.164-12.578-26.258-16.545-26.036zm-26.481 52.335c9.2278-16.055 22.711-37.361 27.673-37.255 3.4819 0.0455 4.7756 3.5173 4.811 8.7528 0.0505 15.701-18.926 28.735-32.484 28.502z"/>
  <ellipse transform="rotate(-80.783 629.16 145.84)" cx="629.16" cy="145.84" rx="33.045" ry="33.045"/>
  <circle cx="671.38" cy="112.79" r="20.831"/>
  <circle cx="601.52" cy="101.23" r="21.665"/>
 </g>
</svg>
