<?xml version="1.0" encoding="UTF-8" standalone="no"?>
<!-- Created with Inkscape (http://www.inkscape.org/) -->

<svg
   xmlns:dc="http://purl.org/dc/elements/1.1/"
   xmlns:cc="http://creativecommons.org/ns#"
   xmlns:rdf="http://www.w3.org/1999/02/22-rdf-syntax-ns#"
   xmlns:svg="http://www.w3.org/2000/svg"
   xmlns="http://www.w3.org/2000/svg"
   xmlns:xlink="http://www.w3.org/1999/xlink"
   xmlns:sodipodi="http://sodipodi.sourceforge.net/DTD/sodipodi-0.dtd"
   xmlns:inkscape="http://www.inkscape.org/namespaces/inkscape"
   id="svg3119"
   version="1.1"
   inkscape:version="0.92.0 r15299"
   width="1853.8594"
   height="656.29572"
   sodipodi:docname="Disney Junior.svg"
   viewBox="0 0 1737.9931 615.27721">
  <metadata
     id="metadata3125">
    <rdf:RDF>
      <cc:Work
         rdf:about="">
        <dc:format>image/svg+xml</dc:format>
        <dc:type
           rdf:resource="http://purl.org/dc/dcmitype/StillImage" />
        <dc:title></dc:title>
      </cc:Work>
    </rdf:RDF>
  </metadata>
  <defs
     id="defs3123">
    <linearGradient
       id="linearGradient4797">
      <stop
         id="stop4793"
         offset="0"
         style="stop-color:#f4f4f4;stop-opacity:1" />
      <stop
         id="stop4795"
         offset="1"
         style="stop-color:#ffffff;stop-opacity:1" />
    </linearGradient>
    <linearGradient
       inkscape:collect="always"
       id="linearGradient3664">
      <stop
         style="stop-color:#a12525;stop-opacity:1"
         offset="0"
         id="stop3666" />
      <stop
         style="stop-color:#9c2424;stop-opacity:1"
         offset="1"
         id="stop3668" />
    </linearGradient>
    <linearGradient
       inkscape:collect="always"
       id="linearGradient3653">
      <stop
         style="stop-color:#a12525;stop-opacity:1"
         offset="0"
         id="stop3655" />
      <stop
         style="stop-color:#651618;stop-opacity:1"
         offset="1"
         id="stop3657" />
    </linearGradient>
    <linearGradient
       id="linearGradient3519">
      <stop
         style="stop-color:#353535;stop-opacity:1"
         offset="0"
         id="stop3521" />
      <stop
         style="stop-color:#2a2a2a;stop-opacity:1"
         offset="1"
         id="stop3523" />
    </linearGradient>
    <linearGradient
       inkscape:collect="always"
       id="linearGradient3452">
      <stop
         style="stop-color:#6a1b14;stop-opacity:1"
         offset="0"
         id="stop3454" />
      <stop
         style="stop-color:#741a1a;stop-opacity:1"
         offset="1"
         id="stop3456" />
    </linearGradient>
    <linearGradient
       inkscape:collect="always"
       id="linearGradient3308">
      <stop
         style="stop-color:#96272e;stop-opacity:1"
         offset="0"
         id="stop3310" />
      <stop
         style="stop-color:#9e231c;stop-opacity:1"
         offset="1"
         id="stop3312" />
    </linearGradient>
    <linearGradient
       inkscape:collect="always"
       id="linearGradient3288">
      <stop
         style="stop-color:#b02726;stop-opacity:1"
         offset="0"
         id="stop3290" />
      <stop
         id="stop3296"
         offset="0.45427966"
         style="stop-color:#460e0d;stop-opacity:1" />
      <stop
         style="stop-color:#7b1a21;stop-opacity:1"
         offset="1"
         id="stop3292" />
    </linearGradient>
    <radialGradient
       inkscape:collect="always"
       xlink:href="#linearGradient3288"
       id="radialGradient3294"
       cx="445.52328"
       cy="374.60034"
       fx="445.52328"
       fy="374.60034"
       r="49.593746"
       gradientTransform="matrix(0,7.372201,-3.6867702,0,1826.5886,-3043.2159)"
       gradientUnits="userSpaceOnUse" />
    <linearGradient
       inkscape:collect="always"
       xlink:href="#linearGradient3308"
       id="linearGradient3314"
       x1="258.43146"
       y1="464.68503"
       x2="222.60504"
       y2="473.22293"
       gradientUnits="userSpaceOnUse" />
    <linearGradient
       inkscape:collect="always"
       xlink:href="#linearGradient3288"
       id="linearGradient3325"
       x1="444.5484"
       y1="243.20906"
       x2="444.5484"
       y2="600.03119"
       gradientUnits="userSpaceOnUse" />
    <linearGradient
       inkscape:collect="always"
       xlink:href="#linearGradient3452"
       id="linearGradient3458"
       x1="605.35248"
       y1="206.09506"
       x2="605.35248"
       y2="240.55128"
       gradientUnits="userSpaceOnUse" />
    <radialGradient
       inkscape:collect="always"
       xlink:href="#linearGradient3519"
       id="radialGradient3525"
       cx="1167.4923"
       cy="242.69054"
       fx="1167.4923"
       fy="242.69054"
       r="60.491985"
       gradientTransform="matrix(-0.0690515,0.54955768,-0.88470554,-0.1111625,1443.6683,-356.46391)"
       gradientUnits="userSpaceOnUse" />
    <radialGradient
       inkscape:collect="always"
       xlink:href="#linearGradient4797"
       id="radialGradient3541"
       gradientUnits="userSpaceOnUse"
       gradientTransform="matrix(-0.11580856,0.93530339,-0.88490442,-0.10956807,1442.3294,-811.64655)"
       cx="1167.4923"
       cy="242.69054"
       fx="1167.4923"
       fy="242.69054"
       r="60.491985" />
    <linearGradient
       inkscape:collect="always"
       xlink:href="#linearGradient3653"
       id="linearGradient3659"
       x1="666.59747"
       y1="169.0929"
       x2="666.59747"
       y2="282.97482"
       gradientUnits="userSpaceOnUse" />
    <linearGradient
       inkscape:collect="always"
       xlink:href="#linearGradient3664"
       id="linearGradient3670"
       x1="1717"
       y1="334"
       x2="1717"
       y2="371"
       gradientUnits="userSpaceOnUse" />
    <linearGradient
       inkscape:collect="always"
       xlink:href="#linearGradient3664"
       id="linearGradient3682"
       gradientUnits="userSpaceOnUse"
       x1="1717"
       y1="334"
       x2="1717"
       y2="371" />
    <linearGradient
       inkscape:collect="always"
       xlink:href="#linearGradient3653"
       id="linearGradient3684"
       gradientUnits="userSpaceOnUse"
       x1="666.59747"
       y1="169.0929"
       x2="666.59747"
       y2="282.97482" />
    <linearGradient
       inkscape:collect="always"
       xlink:href="#linearGradient3288"
       id="linearGradient3728"
       gradientUnits="userSpaceOnUse"
       x1="444.5484"
       y1="243.20906"
       x2="444.5484"
       y2="600.03119" />
    <linearGradient
       inkscape:collect="always"
       xlink:href="#linearGradient3308"
       id="linearGradient3730"
       gradientUnits="userSpaceOnUse"
       x1="258.43146"
       y1="464.68503"
       x2="222.60504"
       y2="473.22293" />
    <linearGradient
       inkscape:collect="always"
       xlink:href="#linearGradient3452"
       id="linearGradient3732"
       gradientUnits="userSpaceOnUse"
       x1="605.35248"
       y1="206.09506"
       x2="605.35248"
       y2="240.55128" />
    <linearGradient
       inkscape:collect="always"
       xlink:href="#linearGradient3664"
       id="linearGradient3734"
       gradientUnits="userSpaceOnUse"
       x1="1717"
       y1="334"
       x2="1717"
       y2="371" />
    <linearGradient
       inkscape:collect="always"
       xlink:href="#linearGradient3653"
       id="linearGradient3736"
       gradientUnits="userSpaceOnUse"
       x1="666.59747"
       y1="169.0929"
       x2="666.59747"
       y2="282.97482" />
  </defs>
  <sodipodi:namedview
     pagecolor="#ffffff"
     bordercolor="#666666"
     borderopacity="1"
     objecttolerance="10"
     gridtolerance="10"
     guidetolerance="10"
     inkscape:pageopacity="0"
     inkscape:pageshadow="2"
     inkscape:window-width="1920"
     inkscape:window-height="1017"
     id="namedview3121"
     showgrid="false"
     inkscape:object-paths="false"
     inkscape:zoom="0.5"
     inkscape:cx="680.37065"
     inkscape:cy="658.8494"
     inkscape:window-x="-8"
     inkscape:window-y="-8"
     inkscape:window-maximized="1"
     inkscape:current-layer="svg3119"
     fit-margin-top="0"
     fit-margin-left="0"
     fit-margin-right="0"
     fit-margin-bottom="0" />
  <g
     id="g3514"
     style="fill:#282828;fill-opacity:1"
     transform="translate(-55.975689,-4.4405414)" />
  <path
     sodipodi:nodetypes="ccccccccccccccccsccscccccccccccccscccc"
     inkscape:connector-curvature="0"
     id="path3132"
     d="m 927.36806,328.09071 c -2.53583,0.003 -5.07672,0.12047 -7.625,0.3125 -10.6316,0.79581 -20.85548,3.04339 -30.8125,6.71875 -5.27756,1.94409 -10.09277,4.80071 -15.09375,7.28125 -0.20689,0.24828 -0.50597,0.46626 -0.59375,0.75 -3.35722,11.21451 -7.79818,22.14091 -9.75,33.75 -0.75556,4.48447 -1.57356,8.95059 -2.5,13.40625 -0.39352,1.89753 -1.0799,3.73369 -1.75,5.5625 -0.57114,1.56059 -1.85174,2.15647 -3.5,2.1875 -1.52009,0.031 -2.93386,-0.3093 -4.34375,-0.8125 -2.9862,-1.06182 -5.68342,-2.65253 -8.0625,-4.6875 -6.00611,-5.1362 -10.22846,-11.39921 -12.25,-19.0625 -0.59138,-2.23891 -0.76085,-4.50022 -0.8125,-6.78125 -0.20463,-8.82043 1.0269,-17.49986 2.53125,-26.15625 0.33506,-1.92857 0.7008,-3.82165 0.6875,-5.78125 -0.9894,-0.0333 -1.97935,-0.0937 -2.96875,-0.0937 -39.14669,-0.004 -78.31982,0 -117.46875,0 -0.82525,0 -1.6435,-0.0355 -2.46875,0 -1.9788,0.082 -2.3475,0.41897 -2.4375,2.25 -0.0585,1.13941 -0.0312,2.26684 -0.0312,3.40625 v 268.8125 h 135.1875 c 6.1e-4,-40.02079 0.0431,-82.9803 0,-117.71875 -0.007,-4.41354 0.3344,-8.7824 1,-13.125 0.59364,-3.87265 1.69543,-7.63341 3.65625,-11.09375 2.28014,-4.02118 5.6149,-6.80247 10.03125,-8.25 3.49889,-1.14384 7.13395,-1.44578 10.78125,-1.03125 8.11537,0.91995 13.78427,5.08828 16.71875,12.65625 1.23901,3.20098 1.97472,6.5215 2.375,9.9375 0.68134,5.83004 0.875,11.69921 0.875,17.5625 l 0.0312,111.40625 h 135.18749 l -0.031,-167.84375 c 0,-7.32191 -0.2239,-14.63776 -1.0312,-21.9375 -1.3132,-11.8751 -3.8656,-23.43466 -8.1875,-34.59375 -4.7649,-12.30737 -11.4924,-23.42637 -21.03129,-32.75 -14.868,-14.52633 -33.3707,-21.25487 -53.7187,-23.5625 -4.18388,-0.47521 -8.36737,-0.72434 -12.59375,-0.71875 z"
     style="fill:#e73636;fill-opacity:1;fill-rule:evenodd" />
  <g
     id="g3318"
     transform="matrix(2.2167448,0,0,2.2167448,5.012236,-20.704821)">
    <path
       style="fill:url(#linearGradient3728);fill-opacity:1;stroke:none"
       d="m 356.64461,607.06536 c 39.80377,-27.12956 69.12564,-60.62314 72.68597,-109.75765 V 273.90307 c 11.24215,-12.39805 19.11322,-22.61481 26.50152,-32.51919 V 498.8883 c 0,0 -1.85692,40.53301 -32.7312,71.40729 -31.20431,31.20431 -66.45629,36.76977 -66.45629,36.76977 z"
       id="path3284"
       inkscape:connector-curvature="0"
       sodipodi:nodetypes="cccccsc"
       transform="matrix(0.45111192,0,0,0.45111192,-27.51238,7.3370106)" />
    <path
       style="fill:url(#linearGradient3730);fill-opacity:1;stroke:none"
       d="m 210.96961,456.19123 40.00283,-2.943 c 6.54534,13.14274 14.6422,18.91576 23.00377,23.43143 -3.91566,2.30386 -6.30043,5.73341 -26.67047,5.73341 -23.4588,-0.54574 -30.23963,-14.19279 -36.33613,-26.22184 z"
       id="path3298"
       inkscape:connector-curvature="0"
       sodipodi:nodetypes="ccccc"
       transform="matrix(0.45111192,0,0,0.45111192,-27.51238,7.3370106)" />
    <path
       id="path3138"
       d="m 166.12842,131.03038 c 0.022,0.733 0.065,1.34938 0.066,2.08238 0.003,32.537 0.047,65.075 -0.023,97.611 -0.023,10.766 -2.10254,16.13191 -7.57354,25.47291 -6.508,11.112 -13.12223,17.94808 -23.91383,24.48244 -6.018,2.444 -14.13884,4.42646 -20.61684,5.02646 -17.970999,1.664 -41.162984,0.42435 -57.331984,-7.68665 -6.003,-3.012 -11.518,-6.771 -16.409,-11.392 -2.025,-1.913 -1.86,-1.376 -0.635,-3.592 8.662,-15.676 18.119434,-32.27592 26.795434,-47.94492 0.319,-0.575 0.828923,-1.4141 1.156923,-1.9861 0.344539,0.60784 0.684077,1.2861 0.958077,1.8331 0.993,1.988 2.206,3.809 3.784,5.38 2.424,2.414 5.357,3.788 8.713,4.359 3.243,0.551 6.435,0.275 9.604,-0.476 1.146,-0.271 2.71346,-0.44677 3.76946,-0.96977 4.434,-2.197 6.18454,-4.10464 6.38354,-9.00664 0.03,-0.733 0.007,-3.41259 0.007,-4.14659 10e-4,-21.74 10e-4,-43.48 0.002,-65.222 1.981,-0.05 11.71834,0.194 13.69034,0.322 4.837,0.313 9.676,0.052 14.485,-0.439 5.318,-0.545 10.579,-1.484 15.732,-2.967 7.016,-2.018 8.68342,-2.05924 14.83042,-6.02324 2.281,-1.47 4.352,-3.10338 6.526,-4.71738 z"
       inkscape:connector-curvature="0"
       style="clip-rule:evenodd;fill:#e73636;fill-rule:evenodd"
       sodipodi:nodetypes="cccccccccccccccccccccccc" />
  </g>
  <g
     id="g3385"
     transform="matrix(2.2167448,0,0,2.2167448,5.012236,-20.704821)">
    <path
       style="fill:#e73636;fill-rule:evenodd"
       d="m 620.03125,337.6875 0.0312,131.78125 c 0,1.31247 0.0951,2.63173 0,3.9375 -0.37607,5.21644 -0.65125,10.45276 -2.65625,15.40625 -2.31311,5.70889 -6.40118,9.44912 -12.5,11 -4.92073,1.24785 -9.86231,1.29506 -14.8125,0.25 -6.93706,-1.45731 -11.51979,-5.57387 -13.8125,-12.15625 -0.97191,-2.79427 -1.68969,-5.63903 -1.84375,-8.59375 -0.29678,-5.71335 -0.68085,-11.44066 -0.6875,-17.15625 l -0.0312,-124.5 H 438.5 v 153.125 c 0.005,8.8441 0.50106,17.64898 2.09375,26.375 3.91484,21.48077 13.10896,40.39373 28.28125,56.40625 13.04494,13.76641 28.79131,23.6845 46.28125,31 21.98248,9.20286 45.10323,13.59584 68.84375,14.8125 17.14105,0.88016 34.22951,0.0934 51.21875,-2.6875 19.67164,-3.21765 38.54126,-8.81057 56.1875,-18.03125 15.29915,-7.99513 28.73597,-18.31114 39.53125,-31.75 16.16911,-20.13265 23.95049,-43.24933 24.28125,-68.71875 l 0.0313,-160.5 z"
       id="path3134"
       inkscape:connector-curvature="0"
       sodipodi:nodetypes="cccccccccccccccccccccc"
       transform="matrix(0.45111192,0,0,0.45111192,-27.51238,7.3370106)" />
    <path
       style="fill:#800000;fill-rule:evenodd"
       d="m 231.29899,159.6784 0.0141,56.1428 c 0.003,2.57837 0.17625,5.16203 0.31014,7.73939 0.0695,1.33291 0.39329,2.61622 0.83173,3.87675 1.03427,2.96939 3.1016,4.82642 6.23099,5.48383 1.92098,0.40554 8.42682,1.29458 10.41628,-1.54803 -1.30389,-0.17968 -4.12672,-0.44089 -5.89374,-2.32146 -1.29362,-1.26053 -2.39485,-2.62158 -2.46435,-3.95449 -0.13388,-2.57736 -0.30713,-5.16102 -0.31013,-7.73939 l -0.0141,-56.16343 z"
       id="path3379"
       inkscape:connector-curvature="0" />
    <path
       style="fill:#800000;fill-rule:evenodd"
       d="m 313.1899,159.65359 -0.0141,72.42174 c -0.14921,11.48955 -3.65948,21.91776 -10.95356,30.99984 -4.86988,6.06243 -10.93139,10.71611 -17.83302,14.32281 -7.96043,4.15956 -16.47274,6.68259 -25.34685,8.13411 -7.66405,1.2545 -15.37285,1.60941 -23.10539,1.21236 -9.89857,-0.50728 -19.56446,-2.2426 -28.80067,-5.77987 0.48687,0.21557 0.98709,0.42812 1.48021,0.63438 9.91656,4.15152 16.54044,4.59302 27.25007,5.14187 7.73255,0.39705 15.56949,0.0363 23.23354,-1.2182 8.87411,-1.45152 17.18042,-3.88785 25.14085,-8.04741 6.90163,-3.6067 13.97064,-7.6562 18.84052,-13.71863 7.29408,-9.08208 13.95386,-20.98741 14.10307,-32.47697 l 0.0217,-70.07116 z"
       id="path3372"
       inkscape:connector-curvature="0"
       sodipodi:nodetypes="ccccccccccccccc" />
  </g>
  <g
     id="g3672"
     transform="matrix(2.2167448,0,0,2.2167448,5.012236,-20.704821)">
    <g
       id="g3677">
      <path
         style="fill:url(#linearGradient3734);fill-opacity:1;fill-rule:evenodd"
         d="m 1746.1562,333.28125 c -11.077,-0.0244 -21.8104,0.58895 -32.7812,2.46875 -5.4726,0.93656 -10.5509,2.32732 -15.5,4.125 v 0.0625 l 0.125,33.34375 c 0.3015,0.0466 0.6003,0.10305 0.9062,0.15625 2.166,-2.81748 4.27,-5.69782 6.5,-8.46875 0.1402,-0.17409 0.2966,-0.32739 0.4376,-0.5 13.2692,-16.24819 30.2862,-25.97568 51.0624,-29.53125 10.9709,-1.8798 21.9542,-1.61815 33.0313,-1.59375 0.778,0.002 1.5632,0.0383 2.3437,0.0937 -0.096,-0.0201 -0.2053,-0.0547 -0.3124,-0.0625 -0.8114,-0.0598 -1.6285,-0.0915 -2.4376,-0.0937 z"
         transform="matrix(0.45111192,0,0,0.45111192,-27.51238,7.3370106)"
         id="path3651"
         inkscape:connector-curvature="0" />
      <path
         style="fill:url(#linearGradient3736);fill-opacity:1;fill-rule:evenodd"
         d="m 653.79347,169.2519 v 109.46184 l 25.84028,5.42273 V 160.32034 Z"
         id="path3649"
         inkscape:connector-curvature="0"
         sodipodi:nodetypes="ccccc" />
      <path
         style="fill:#e73636;fill-rule:evenodd"
         d="m 1789.9375,333.34375 c -11.0771,-0.0244 -22.0605,-0.28605 -33.0313,1.59375 -20.997,3.59334 -38.1706,13.46995 -51.5,30.03125 -2.23,2.77093 -4.3341,5.65127 -6.5,8.46875 -0.3059,-0.0532 -0.6047,-0.1097 -0.9062,-0.15625 l -0.125,-34.15625 h -130.3125 v 274.46875 h 133.5313 V 508.5625 c -0.01,-5.89654 0.5399,-11.709 2.125,-17.375 5.0741,-18.13297 16.4865,-30.31069 34.4687,-36.15625 10.2813,-3.34728 20.8323,-3.35773 31.4063,-2.15625 7.4726,0.85123 14.6457,3.02199 21.5,6.1875 0.9376,0.43227 1.9406,1.34637 3.375,0.4375 v -3.25 c 0,-39.73293 -0.029,-79.4836 -0.031,-119.21875 0,-0.97758 0.035,-1.09157 -0.031,-2.0625 -0.064,-0.91773 -0.5913,-1.46253 -1.5312,-1.53125 -0.8113,-0.0598 -1.6284,-0.0915 -2.4375,-0.0937 z"
         transform="matrix(0.45111192,0,0,0.45111192,-27.51238,7.3370106)"
         id="path3140"
         inkscape:connector-curvature="0"
         sodipodi:nodetypes="cccccccccccccccsccccc" />
    </g>
  </g>
  <g
     id="g3447"
     transform="matrix(2.2167448,0,0,2.2167448,5.012236,-20.704821)">
    <path
       style="fill:#800000;fill-rule:evenodd"
       d="m 595.34633,157.35992 c -4.83001,0.01 -9.65894,0.35419 -14.46382,1.04319 -7.09374,1.01801 -14.03003,2.53553 -20.72291,5.00453 -10.25549,3.785 -19.33673,9.26977 -26.79889,17.07176 -5.67873,5.938 -9.86406,12.71914 -12.60294,20.31414 -2.37258,6.571 -3.54682,13.34503 -3.74987,20.30003 -0.16429,5.53401 0.18045,11.0082 1.452,16.4092 2.68867,11.44 8.57721,21.13601 17.53697,29.13901 6.30149,5.63 13.50417,9.91654 21.42782,13.12454 12.12571,4.908 24.82054,7.10111 40.23359,7.11911 0.7096,0.009 1.5299,-0.0215 2.4106,-0.0564 -13.18361,-0.33811 -24.31267,-2.54589 -34.97529,-7.06272 -7.57097,-3.208 -14.44817,-7.49454 -20.4692,-13.12454 -8.56098,-8.003 -14.1785,-17.69901 -16.74753,-29.13901 -1.21498,-5.401 -1.56671,-10.87519 -1.40973,-16.4092 0.19403,-6.955 1.32781,-13.72903 3.59482,-20.30003 2.61699,-7.595 6.62715,-14.37614 12.05317,-20.31414 7.12996,-7.80199 15.8016,-13.28676 25.6006,-17.07176 6.39497,-2.469 13.02861,-3.98652 19.80661,-5.00453 3.71847,-0.55805 7.44367,-0.87805 11.1791,-0.9868 -1.1179,-0.0346 -2.23603,-0.0585 -3.3551,-0.0564 z"
       id="path3445"
       inkscape:connector-curvature="0" />
    <path
       style="fill:url(#linearGradient3732);fill-opacity:1;fill-rule:evenodd"
       d="m 601.36583,204.67028 c -1.4464,0.0317 -2.8139,0.21849 -4.10228,0.5357 2.12149,1.23445 3.92044,2.96119 5.35696,5.23008 4.03768,6.37399 4.52438,13.07527 0.45111,19.60927 -2.42955,3.89597 -5.92432,6.29771 -10.23465,7.30237 2.83276,1.71501 5.93348,2.48405 9.27604,2.32605 5.84699,-0.277 10.50703,-2.81597 13.49104,-7.82398 3.89201,-6.534 3.42101,-13.23527 -0.43704,-19.60927 -3.03499,-5.017 -7.7252,-7.42922 -13.80118,-7.57022 z"
       id="path3437"
       inkscape:connector-curvature="0" />
    <path
       id="path3136"
       d="m 603.537,286.882 c -14.727,-0.018 -26.852,-2.206 -38.438,-7.114 -7.571,-3.208 -14.459,-7.494 -20.48,-13.124 -8.561,-8.003 -14.177,-17.703 -16.746,-29.143 -1.215,-5.401 -1.556,-10.874 -1.399,-16.408 0.194,-6.955 1.322,-13.728 3.589,-20.299 2.617,-7.595 6.62,-14.379 12.046,-20.317 7.13,-7.802 15.808,-13.281 25.607,-17.066 6.395,-2.469 13.022,-3.994 19.8,-5.012 4.591,-0.689 9.199,-1.023 13.814,-1.033 4.617,-0.009 9.224,0.322 13.816,1.008 5.46,0.817 10.837,1.914 16.083,3.63 9.537,3.116 18.211,7.765 25.657,14.568 9.709,8.87 15.664,19.833 18.267,32.685 1.291,6.381 1.669,12.832 1.194,19.291 -1.03,14.064 -6.329,26.28 -16.298,36.38 -6.979,7.071 -15.252,12.125 -24.445,15.746 -5.824,2.295 -11.84,3.884 -18.021,4.895 -5.376,0.876 -10.774,1.356 -14.046,1.313 z m -2.175,-82.206 c -6.479,0.142 -11.404,3.138 -14.498,9.081 -1.704,3.273 -2.381,6.801 -2.053,10.441 0.486,5.403 2.88,9.788 7.498,12.815 2.976,1.952 6.255,2.823 9.809,2.655 5.847,-0.277 10.502,-2.815 13.486,-7.823 3.892,-6.534 3.428,-13.224 -0.43,-19.598 -3.035,-5.017 -7.736,-7.43 -13.812,-7.571 z"
       inkscape:connector-curvature="0"
       style="clip-rule:evenodd;fill:#e73636;fill-rule:evenodd" />
  </g>
  <path
     style="fill:url(#radialGradient3541);fill-opacity:1;stroke:none"
     d="m 1031.97,253.02294 c 0.9969,-29.70128 23.0343,-61.56818 68.1555,-57.47406 31.9761,2.90138 54.8681,31.05125 52.6452,63.88509 -1.7879,26.40871 -26.6598,54.25803 -58.4302,53.91929 -40.0402,-0.42692 -63.4264,-28.87152 -62.3705,-60.33032 z"
     id="path3508"
     inkscape:connector-curvature="0"
     sodipodi:nodetypes="sssss" />
  <path
     sodipodi:nodetypes="sssss"
     inkscape:connector-curvature="0"
     id="path3510"
     d="m 1003.4791,175.7183 c 0.662,-19.48597 15.2981,-40.39272 45.2653,-37.70672 21.2369,1.90349 36.4406,20.37164 34.9643,41.91277 -1.1875,17.32583 -17.7061,35.5968 -38.8064,35.37456 -26.5925,-0.28009 -42.1245,-18.94159 -41.4232,-39.58061 z"
     style="fill:#ffffff;fill-opacity:1;stroke:none" />
  <path
     style="fill:#ffffff;fill-opacity:1;stroke:none"
     d="m 1125.8086,196.57795 c 0.662,-19.48597 15.2981,-40.39272 45.2653,-37.70672 21.2369,1.90349 36.4406,20.37164 34.9643,41.91277 -1.1875,17.32583 -17.7061,35.5968 -38.8064,35.37456 -26.5925,-0.28009 -42.1245,-18.94159 -41.4232,-39.58061 z"
     id="path3512"
     inkscape:connector-curvature="0"
     sodipodi:nodetypes="sssss" />
  <path
     style="fill:#d7d7d7;fill-opacity:1;fill-rule:evenodd;stroke:none"
     d="m 1022.8993,337.46571 v 69 h 9 v -72.75 z"
     id="path3403"
     inkscape:connector-curvature="0"
     sodipodi:nodetypes="ccccc" />
  <path
     style="fill:#56100c;fill-opacity:1;fill-rule:evenodd;stroke:none"
     d="m 1022.8993,406.46571 c 0,67.35762 1.0484,124.27546 1.0625,192.75 l 7.9375,10.3125 v -203.0625 z"
     id="path3407"
     inkscape:connector-curvature="0"
     sodipodi:nodetypes="ccccc" />
  <path
     inkscape:connector-curvature="0"
     style="fill:#e73636;fill-opacity:1;fill-rule:evenodd;stroke:none"
     d="m 1031.8993,406.46571 v 203.0625 h 134 v -203.0625 z"
     id="rect3400" />
  <path
     style="clip-rule:evenodd;fill:#fde84d;fill-rule:evenodd"
     inkscape:connector-curvature="0"
     d="m 1116.3041,439.60224 c -0.6008,-6.27782 4.1519,-12.38052 12.4359,-12.78619 6.7478,-0.33251 12.815,5.87438 12.968,12.67978 0.1485,6.84753 -6.2446,13.42904 -13.1054,13.03225 -7.9759,-0.46109 -12.9369,-6.42413 -12.2985,-12.92584 z"
     id="path3162" />
  <path
     style="clip-rule:evenodd;fill:#fde84d;fill-rule:evenodd"
     inkscape:connector-curvature="0"
     d="m 1083.4763,439.91037 c 0.5764,6.34654 -4.6773,12.46697 -12.6199,12.59997 -6.9296,0.11306 -12.7729,-6.04063 -12.7862,-12.8283 -0.011,-6.96279 6.4042,-13.37362 13.2517,-12.84604 8.2795,0.63621 12.7862,6.71452 12.1544,13.07437 z"
     id="path3164" />
  <path
     style="fill:#ffffff;fill-opacity:1;fill-rule:evenodd;stroke:none"
     d="m 1031.8937,333.71942 h 134.0111 v 72.74525 h -134.0111 z"
     id="path3409"
     inkscape:connector-curvature="0" />
  <g
     id="g3486"
     style="fill:#d7d7d7;fill-opacity:1"
     transform="matrix(2.3432717,0,0,2.3432717,-24.636199,-28.130086)">
    <g
       id="g3488"
       style="fill:#d7d7d7;fill-opacity:1">
      <g
         id="g3490"
         style="fill:#d7d7d7;fill-opacity:1">
        <path
           id="path3492"
           d="m 385.98188,160.84596 c -0.092,0.112 -0.231,0.209 -0.269,0.336 -1.492,5.059 -3.46,9.982 -4.328,15.22 -0.336,2.022 -0.701,4.043 -1.112,6.053 -0.176,0.855 -0.479,1.688 -0.777,2.514 -0.254,0.704 -0.827,0.972 -1.561,0.985 -0.676,0.014 -1.307,-0.141 -1.934,-0.367 -1.328,-0.479 -2.526,-1.199 -3.583,-2.117 -2.67,-2.316 -4.548,-5.145 -5.448,-8.602 -0.263,-1.01 -0.337,-2.02 -0.36,-3.049 -0.091,-3.979 0.456,-7.898 1.125,-11.804 0.148,-0.87 0.307,-1.731 0.301,-2.615 0.623,-1.349 0.704,-2.83 1.03,-4.251 1.951,-8.512 4.467,-16.865 7.088,-25.189 0.022,-0.069 0.055,-0.136 0.076,-0.206 0.382,-1.264 0.891,-2.506 1.109,-3.797 0.23,-1.366 -0.769,-2.472 -1.2,-3.696 -1.969,-5.589 -2.012,-11.205 -0.481,-16.882 1.447,-5.365002 3.873,-10.281002 6.825,-14.956002 2.633,-4.171 5.642,-8.053 9.062,-11.608 0.659,-0.686 1.366,-1.337 2.119,-1.92 0.892,-0.692 1.818,-0.52 2.464,0.405 0.247,0.354 0.431,0.769 0.57,1.181 0.688,2.043 0.562,4.058 -0.381,5.988 -0.676,1.382 -1.428,2.729 -2.178,4.074 -2.463,4.42 -4.989,8.809 -7.098,13.416 -0.762,1.665002 -1.456,3.361002 -1.919,5.145002 -0.429,1.65 -0.242,3.188 0.588,4.659 0.725,-0.055 0.948,-0.673 1.301,-1.112 4.838,-6.007 9.892,-11.822002 15.396,-17.230002 3.352,-3.295 6.838,-6.445 10.792,-9.026 1.414,-0.922 2.88,-1.738 4.482,-2.313 2.046,-0.734 4.024,-0.646 5.986,0.255 2.264,1.039 4.021,2.68 5.462,4.669 1.844,2.546 2.841,5.447 3.409,8.507 0.943,5.079 0.737,10.076002 -1.119,14.947002 -0.812,2.132 -1.805,4.176 -3.037,6.095 -5.873,9.137 -13.809,15.697 -24.167,19.17 -3.152,1.057 -6.423,1.495 -9.751,1.432 -1.385,-0.026 -1.387,-0.031 -1.746,1.32 -0.565,2.126 -1.098,4.262 -1.699,6.377 -1.541,5.433 -3.105,10.858 -4.679,16.28 -0.163,0.567 -0.37,1.114 -0.358,1.712 z m 14.065,-41.084 c 1.183,0.22 2.129,0.113 3.063,-0.073 6.803,-1.349 12.44,-4.707 16.964,-9.936 1.846,-2.132 3.233,-4.537 4.044,-7.258 0.77,-2.586002 0.931,-5.189002 0.332,-7.832002 -0.182,-0.8 -0.46,-1.551 -0.979,-2.189 -1.015,-1.25 -2.345,-1.507 -3.688,-0.64 -0.673,0.434 -1.29,0.973 -1.869,1.529 -2.183,2.098 -3.976,4.522 -5.716,6.981002 -4.203,5.939 -7.999,12.137 -11.64,18.432 -0.142,0.245 -0.262,0.502 -0.511,0.986 z"
           inkscape:connector-curvature="0"
           style="clip-rule:evenodd;fill:#d7d7d7;fill-opacity:1;fill-rule:evenodd" />
        <path
           sodipodi:nodetypes="ccccccccccccccccccccccccccscscccccccccccccccccccccccccc"
           id="path3494"
           d="m 251.33946,76.122452 c 4.072,-0.041 6.78481,0.63991 10.58481,1.10591 1.678,0.207 3.70773,1.528638 5.33573,1.982638 1.064,0.296 2.067,0.749 2.998,1.354 2.164,1.407 2.321,4.162 0.092,5.646 -0.864,0.576 -1.786,1.003 -2.76,1.345 -2.65,0.931 -5.77773,1.219909 -8.54473,1.546909 -3.934,0.466 -7.51627,0.910091 -11.47227,1.161091 -5.05,0.321 -8.05272,0.183272 -13.07372,0.884272 -1.893,0.264 -5.60764,0.514455 -7.40864,1.183455 -0.696,0.258 -3.9251,0.787636 -4.4351,1.349636 -0.626,0.69 -0.41591,1.111818 0.38509,1.511818 0.585,0.292 4.37446,0.177272 5.01146,0.312272 1.435,0.304 4.496,0.61 5.952,0.758 3.13574,0.06882 4.66046,0.582454 8.24446,0.866454 4.025,0.32 9.29927,1.303911 13.27727,2.017911 3.259,0.585 5.11518,1.718182 8.08118,3.264182 2.81,2.21418 6.244,6.87136 6.526,12.69736 0.307,6.363 -1.17264,10.12737 -6.12864,13.81637 -3.244,2.413 -8.81764,3.767 -12.75464,4.462 -7.922,1.398 -12.47645,0.1249 -20.35154,-1.10791 -3.981,-1.204 -7.74409,-2.08337 -10.81709,-4.93537 -1.136,-1.054 -3.41782,-2.98845 -4.28082,-4.27445 -2.764,-4.125 -3.38318,-8.64664 0.24482,-11.52464 2.131,-1.689 4.94272,-3.79172 7.57272,-4.26972 1.879,-0.343 5.10083,-0.71464 7.01983,-0.58364 5.5,0.376 -3.71368,-1.41323 15.99681,2.92827 1.57696,0.34735 3.39819,0.53027 4.81619,1.32927 0.51,0.288 1.00116,0.34681 2.06136,1.02955 2.83718,1.82706 1.62718,2.46555 0.56218,3.74855 -0.523,0.63 -4.69719,1.72636 -5.41919,2.08736 -3.32018,0.41182 -4.68454,0.33436 -6.51408,-0.11464 -2.118,-0.283 -4.141,-0.969 -6.138,-1.709 -1.925,-0.714 -3.844,-1.446 -5.756,-2.197 -1.168,-0.459 -2.07182,-0.63736 -3.30782,-0.76136 -2.4,-0.24 -4.40691,0.68873 -5.82491,2.83673 -1.083,1.642 -0.79209,3.08172 0.85991,4.15172 0.744,0.482 2.00427,1.27428 2.86927,1.45428 1.292,0.268 2.59,0.63009 3.917,0.72009 3.539,0.241 6.16046,0.40582 9.65546,-0.0382 4.515,-0.573 7.15836,-1.65119 11.53636,-2.92619 2.184,-0.637 4.70273,-1.88582 6.68573,-3.04282 0.961,-0.561 2.22072,-1.48818 2.88072,-2.39818 1.044,-1.441 1.41583,-2.95227 0.4511,-4.26491 -1.054,-0.818 -2.19246,-1.86682 -3.42846,-2.33882 -3.235,-1.235 -6.88718,-1.27554 -10.27918,-1.92554 -5.72055,-0.42009 -8.932,-0.30336 -14.664,-0.33936 -3.233,-0.021 -6.37745,0.32036 -9.56445,-0.24964 -1.744,-0.312 -5.76946,-1.93318 -7.34046,-2.77718 -2.703,-1.45 -4.43173,-2.688365 -4.56473,-5.725365 -0.213,-4.897 1.26209,-8.627 5.08009,-11.509 2.611,-1.971 6.30346,-3.92891 9.38746,-4.92491 4.487,-1.45 7.64109,-2.530182 12.32509,-3.015182 3.876,-0.401 8.79064,-0.676091 12.43264,-0.598091 z"
           inkscape:connector-curvature="0"
           style="clip-rule:evenodd;fill:#d7d7d7;fill-opacity:1;fill-rule:evenodd" />
        <path
           sodipodi:nodetypes="cccccccccccccccccsccccccccscccccccsccccccc"
           id="path3496"
           d="m 272.44081,121.61603 c 0.076,-4.121 0.14896,-8.41102 0.71496,-12.48002 0.708,-5.089 1.51304,-12.671014 2.88404,-17.630014 0.606,-2.194 1.318,-4.353 2.267,-6.424 0.551,-1.204 1.177,-2.368 2.065,-3.367 1.557,-1.752 3.09,-2.008 5.073,-0.817 1.074,0.645 4.74119,3.889004 5.63019,4.770004 2.145,2.124 4.017,4.479 5.843,6.874 3.474,4.556 4.0439,9.26945 7.2709,13.99945 1.034,1.516 2.082,3.022 3.138,4.523 0.422,0.6 0.865,1.187 1.333,1.753 0.456,0.551 1.24173,2.34055 1.99773,2.16855 0.983,-0.224 0.53118,-4.17628 0.64618,-5.03228 0.286,-2.126 -0.70454,-5.27863 -1.09954,-7.38563 -0.96,-5.128004 -1.75955,-10.032459 -3.23255,-15.026459 -1.225,-4.149 -3.28545,-8.344545 -4.20845,-12.575545 -0.234,-1.074 -0.413,-2.163 -0.549,-3.253 -0.13,-1.031 0.021,-2.058 0.331,-3.044 0.343,-1.091 1.028,-1.51 2.181,-1.419 1.138,0.09 3.52354,3.176868 4.42854,3.822868 1.57,1.119 2.22594,4.300156 3.40794,5.808156 2.093,2.669 3.95361,7.132622 5.43061,10.172622 3.228,6.642 3.1184,9.889639 4.1824,17.206638 0.871,5.998 0.45754,9.69188 -0.45146,15.0027 -0.94,2.088 -1.24816,4.60351 -2.71162,6.74979 -1.451,1.609 -1.97604,4.06964 -4.11504,4.63364 -1.964,0.518 -3.41873,1.87577 -5.08673,0.64977 -1.551,-1.14 -2.74091,-1.46136 -3.99891,-2.90136 -2.467,-2.828 -4.09418,-4.57618 -6.15618,-7.70218 -2.183,-3.307 -3.13127,-4.8879 -4.63236,-8.28345 -0.641,-0.984 -2.55228,-4.01528 -3.24328,-4.96328 -0.387,-0.532 -1.26927,-2.79709 -1.73327,-3.26409 -0.53,-0.89138 -4.10005,-10.993539 -4.48514,-0.2619 0.028,0.77801 -0.075,2.78113 -0.18698,3.42813 -0.047,2.91201 -0.043,4.43389 -0.18698,7.28989 -0.192,3.808 -0.012,7.52499 -0.57198,11.30599 -0.226,1.519 -0.47899,3.23002 -0.82799,4.72902 -0.131,0.564 -1.00305,1.31801 -1.25005,1.84901 -1.417,2.52794 -3.34791,2.52788 -4.15474,1.84203 -0.984,-0.831 -3.17913,-1.58698 -3.59313,-2.77998 -0.507,-1.459 -1.9721,-2.34494 -2.0581,-3.89194 -0.084,-1.54 -0.23001,-4.53613 -0.29101,-6.07613 z"
           inkscape:connector-curvature="0"
           style="clip-rule:evenodd;fill:#d7d7d7;fill-opacity:1;fill-rule:evenodd" />
        <path
           id="path3498"
           d="m 354.43063,109.13089 c -2.495,0.077 -4.991,0.236 -7.484,0.205 -2.341,-0.029 -3.657,1.071 -4.351,3.225 -0.564,1.751 -1.066,3.513 -1.323,5.333 -0.112,0.792 -0.092,1.611 -0.064,2.415 0.017,0.495 0.364,0.818 0.866,0.815 0.88,-0.004 1.767,-0.007 2.636,-0.124 2.036,-0.274 4.067,-0.594 6.094,-0.936 2.822,-0.476 5.635,-0.999 8.457,-1.478 0.723,-0.124 1.459,-0.16 2.19,-0.236 3.11,-0.323 5.36,1.132 7.146,3.498 0.304,0.402 0.539,0.882 0.697,1.362 0.292,0.893 0.168,1.726 -0.515,2.448 -0.963,1.019 -2.021,1.923 -3.153,2.744 -4.43,3.217 -9.259,5.656 -14.456,7.366 -3.57,1.176 -7.225,1.912 -10.986,2.138 -4.868,0.293 -8.514,-1.73 -11.163,-5.725 -1.441,-2.172 -2.348,-4.569 -2.785,-7.125 -0.323,-1.894 -0.24,-3.781 0.261,-5.674 0.732,-2.77 1.662,-5.473 2.537,-8.195 0.247,-0.767 0.456,-1.549 0.739,-2.303 0.278,-0.738 0.238,-1.43 -0.105,-2.123 -0.13,-0.263 -0.269,-0.522 -0.39,-0.789 -0.788,-1.729 -0.547,-3.013 0.839,-4.368 0.854,-0.833 1.903,-1.372 2.971,-1.865 3.016,-1.393 2.738,-1.019 3.692,-4.395 0.359,-1.267 0.599,-2.569 0.858,-3.862 0.111,-0.557 -0.102,-1.003 -0.642,-1.266 -0.792,-0.385 -1.575,-0.788 -2.367,-1.17 -1.321,-0.64 -2.667,-1.236 -3.833,-2.15 -0.875,-0.687 -1.657,-1.447 -2.04,-2.537 -0.424,-1.207 -0.178,-2.168 0.895,-2.884 0.603,-0.401 1.29,-0.694 1.969,-0.958 1.791,-0.693 3.678,-0.994 5.565,-1.281 3.922,-0.599 7.879,-0.858 11.827,-1.2 4.313,-0.373 8.632,-0.693 12.946,-1.062 5.595,-0.478 9.962,1.846 13.583,5.899 0.194,0.218 0.361,0.463 0.524,0.708 1.253,1.867 1.112,3.17 -0.592,4.62 -1.146,0.974 -2.5,1.511 -4.019,1.604 -2.197,0.134 -4.391,0.328 -6.588,0.414 -4.035,0.159 -8.06,0.436 -12.068,0.92 -3.102,0.373 -3.337,0.502 -4.084,3.862 -0.189,0.852 -0.289,1.747 -0.257,2.616 0.033,0.908 0.312,1.38 1.268,1.51 0.944,0.128 1.885,0.328 2.833,0.381 3.002,0.167 6.008,0.28 9.012,0.414 0.22,0.01 0.44,0.026 0.66,0.038 2.504,0.136 3.857,1.451 4.087,3.97 0.234,2.578 -0.975,4.399 -3.313,4.973 -1.296,0.319 -2.627,0.231 -3.944,0.274 -1.541,0.051 -3.084,0.012 -4.627,0.012 -10e-4,-0.019 -0.002,-0.039 -0.003,-0.058 z"
           inkscape:connector-curvature="0"
           style="clip-rule:evenodd;fill:#d7d7d7;fill-opacity:1;fill-rule:evenodd" />
        <g
           id="g3500"
           style="fill:#d7d7d7;fill-opacity:1">
          <path
             sodipodi:nodetypes="cccccccccsccccccccsccccccccccccccccccc"
             id="path3502"
             d="m 199.53504,69.586 c -2.046,-0.021 -4.889,-0.326 -7.674,-1.042 -0.789,-0.203 -1.351,-0.171 -1.842,0.616 -0.865,1.384 -2.216,2.107 -3.804,2.383 -1.918,0.333 -3.242,-0.385 -4.114,-2.16 -0.764,-1.555 -0.818,-3.259 -1.079,-4.921 -0.034,-0.216 -0.022,-0.44 -0.015,-0.661 0.029,-0.994 -0.321,-1.807 -0.933,-2.612 -1.437,-1.892 -2.357,-4.039 -2.854,-6.375 -0.66,-3.107 -0.455,-6.109 0.796,-9.054 1.754,-4.129 4.358,-7.643 7.649,-10.648 6.265,-5.722 13.625,-9.122 22.059,-10.051 2.911,-0.321 5.859,-0.418 8.765,0.281 3.438,0.828 6.407,2.528 9.01,4.865 0.747,0.671 1.54,1.073 2.495,1.23 1.456,0.241 2.855,0.659 4.196,1.279 2.848,1.314 4.393,3.531 4.737,6.647 0.369,3.337 -0.423,6.404 -1.998,9.315 -1.481,2.736 -3.39,5.161 -5.599,7.325 -5.749,5.632 -12.384,9.856 -20.079,12.331 -3.132,1.009 -5.723,1.359 -9.716,1.252 z m -4.223,-11.57 c 2.888,0.964 5.583,1.192 8.279,1.047 4.761,-0.253 9.183,-1.826 13.454,-3.848 2.732,-1.294 5.303,-2.841 7.541,-4.902 0.979,-0.901 1.843,-1.894 2.531,-3.031 0.698,-1.153 1.083,-2.392 1.062,-3.76 -0.052,-3.392 -2.588,-5.561 -5.984,-5.105 -3.145,0.422 -5.853,1.9 -8.424,3.612 -4.345,2.893 -8.437,6.121 -12.258,9.683 -2.089,1.945 -4.203,3.866 -6.201,6.304 z m -8.5375,-7.24259 c 0.477,-0.449 0.701,-0.635 0.896,-0.847 4.342,-4.707 5.52521,-7.336017 10.75534,-11.283836 0.319,-0.203 1.04319,-1.153764 1.03519,-1.711764 -3.76059,1.201728 -4.05067,1.644099 -7.40367,3.986099 -1.822,1.273 -3.26345,3.251501 -4.39545,5.178501 -0.802,1.367 -1.35541,2.8 -0.88741,4.678 z"
             inkscape:connector-curvature="0"
             style="clip-rule:evenodd;fill:#d7d7d7;fill-opacity:1;fill-rule:evenodd" />
          <path
             id="path3504"
             d="m 203.7568,121.62 c 0.004,2.864 -0.104,5.718 -0.419,8.566 -0.13,1.174 -0.373,2.314 -0.804,3.413 -0.596,1.515 -1.718,2.352 -3.339,2.444 -1.024,0.059 -2.055,0.063 -3.08,0.019 -2.158,-0.094 -3.741,-1.125 -4.765,-3.031 -0.99,-1.843 -1.383,-3.856 -1.67,-5.893 -0.4,-2.835 -0.562,-5.689 -0.526,-8.555 0.058,-4.694 0.002,-9.393 0.193,-14.081 0.233,-5.708 0.497,-11.423 1.578,-17.06 0.318,-1.659 0.69,-3.303 1.323,-4.871 0.299,-0.743 0.649,-1.487 1.104,-2.142 1.235,-1.777 3.311,-2.003 4.975,-0.599 0.865,0.731 1.391,1.701 1.801,2.727 0.685,1.708 1.1,3.492 1.426,5.299 0.6,3.323 0.926,6.682 1.176,10.044 0.373,5.044 0.62,10.096 0.724,15.154 0.058,2.858 0.199,5.712 0.303,8.566 z"
             inkscape:connector-curvature="0"
             style="clip-rule:evenodd;fill:#d7d7d7;fill-opacity:1;fill-rule:evenodd" />
        </g>
        <path
           sodipodi:nodetypes="cccccccccccccccccsscccccccccccccccccccccccccccccccccccccccccccccccccsccccccccccccccccccccscccccccccccccccccccccccc"
           id="path3506"
           d="m 170.14791,129.80655 c -2.174,1.614 -2.92118,2.11272 -5.20218,3.58472 -6.147,3.964 -12.70509,5.45745 -19.72109,7.47545 -5.00212,1.483 -11.15712,1.36189 -16.71272,1.75996 -4.81,0.492 -8.29008,0.29936 -13.12708,-0.0136 -1.972,-0.128 -4.38285,-0.45123 -6.21776,-0.69541 -1.48255,-0.11527 -3.42908,0.0308 -4.87708,-0.19715 -3.41,-0.535 -4.21623,0.23992 -7.565229,-0.60108 -0.824,-0.207 -0.98356,1.0616 -1.16656,1.8846 -0.224,1.006 -0.492,1.991 -0.943,2.922 -1.205,2.484 -2.642919,2.87072 -5.410919,2.91172 -0.661,0.01 -3.288443,-0.41564 -3.943443,-0.48264 -2.413,-0.249 -2.876638,0.0119 -4.123638,-2.12008 -0.866,-1.48 -1.336,-3.097 -1.591,-4.772 -0.22,-1.449 -0.365,-2.912 -0.486,-4.373 -0.048,-0.583 -0.267,-0.901 -0.802,-1.158 -0.778975,-2.20301 -7.331962,-5.76655 -10.238146,-6.99496 -7.208,-3.878 -10.804035,-7.54981 -16.835035,-13.10081 -2.814,-2.59 -5.028246,-4.59818 -7.339246,-7.65618 -1.021,-1.351 -2.793161,-2.93243 -3.825815,-4.12676 -0.409,-0.774 -1.3842,-2.24668 -1.6842,-3.07168 -0.550162,-2.053233 -0.608,-3.835118 0.97,-6.033118 0.994,-1.384 1.457181,-2.129246 2.782181,-3.188246 2.716,-2.169 4.37105,-3.357246 7.51605,-4.799246 6.574,-3.013 13.476,-4.99 20.533,-6.46 1.867,-0.389 3.754,-0.683 5.633,-1.012 0.572,-0.1 3.731732,-0.36 3.746732,-0.996 0.018,-0.733 0.059,-1.467 0.099,-2.2 0.34,-6.161 1.521278,-10.871427 2.010731,-17.494791 0.03182,-2.021365 0.838334,-6.612138 1.402334,-7.970138 0.34,-0.821 0.825757,-1.507087 1.442757,-2.154087 1.113,-1.167 5.342456,1.085743 6.696456,1.962743 0.82,0.531 1.766728,1.655727 2.261728,2.482727 0.836,1.398 1.221908,3.658456 1.662908,5.213456 0.863,3.044 1.123818,5.49009 1.427818,8.63509 0.319,3.285 0.536,6.581 0.792,9.872 0.083,1.077 0.089,1.098 1.138,1.13 3.887996,0.118 7.779996,0.133 11.659996,0.37 7.709,0.471 15.30228,2.156961 22.67528,4.604961 3.075,1.02 5.81068,2.21956 8.54168,3.98356 2.177,1.405 3.59792,2.537919 5.10592,4.668919 1.161,1.641 2.43064,4.260841 2.72364,6.263841 0.448,3.060999 -0.55376,4.663679 -2.43376,7.126679 -1.443,1.89 -3.06584,3.74976 -5.12784,4.94776 -0.656,0.381 -0.79892,0.55828 -1.56092,0.50528 -2.13417,0.26413 -3.37272,0.27027 -5.26372,0.0403 -2.547,-0.312 -9.44673,-2.23857 -8.65029,-3.87937 0.46712,-0.35084 3.01759,-1.5267 3.78359,-2.3177 0.665,-0.687 2.30244,-1.62432 2.63244,-2.55832 0.8236,-0.66408 1.47192,-4.013724 1.05092,-4.492724 -0.541,-0.617 -4.16608,-1.225925 -5.49168,-1.53216 -1.68966,-0.210511 -3.23078,-0.628986 -5.15412,-0.992399 -6.34627,-1.304903 -11.66156,-2.011838 -18.19156,-2.595838 -3.595,-0.321 -5.160839,-0.319422 -8.757839,-0.332422 -0.366,-0.002 -0.734,0.007 -1.099,0.041 -0.324,0.03 -0.551,0.226 -0.567,0.557 -0.034,0.732 -0.065,1.467 -0.045,2.2 0.103,3.741 0.229,6.268503 0.334,10.008503 0.142,4.988 0.262,9.977 0.411,14.965 0.083,2.786 0.212,5.571 0.306,8.356 0.02,0.591 1.256092,1.73707 1.900092,1.86207 1.284871,0.22098 2.383725,0.38395 5.154727,0.69595 5.12,0.576 11.61312,0.48198 16.75012,0.22198 9.355,-0.475 14.57865,-1.12492 23.39465,-4.42592 3.795,-1.42 8.5551,-2.99198 11.8691,-5.34298 3.639,-2.581 7.99511,-4.94094 10.14111,-8.89594 3.147,-5.801 5.00804,-12.716401 3.71804,-19.124401 -0.939,-4.661 -3.3893,-10.57329 -5.8533,-14.60729 -2.691,-4.407 -7.453,-8.480879 -11.037,-12.191879 C 143.60674,58.06143 137.0138,52.890398 127.4628,47.170398 116.0878,40.356398 102.589,36.02 89.984,31.887 80.759,28.862 71.367,26.539 61.776,25.061 56.261,24.212 54.391279,23.820637 48.801279,23.712637 c -1.172,-0.022 -5.063186,-0.234546 -6.235186,-0.240546 -5.215,-0.032 -7.329086,0.05791 -12.516086,0.610909 -1.608,0.172 -3.2,0.443 -4.754,0.89 -0.558,0.16 -1.11,0.394 -1.61,0.687 -1.172728,3.046095 5.244283,3.691913 5.993283,4.295913 0.45,0.363 0.995,0.61 1.497,0.91 1.177,0.704 1.661,1.414 1.433,2.215 -0.293,1.029 -1.194,1.202 -2.075,1.36 -2.344,0.422 -7.770914,0.213909 -10.082914,-0.347091 -0.559,-0.136 -4.338006,-1.507184 -4.843006,-1.794184 -0.962,-0.548 -2.697275,-2.002365 -2.775275,-3.109365 -0.085,-1.199 0.611819,-3.151001 1.145819,-4.231001 0.426,-0.859 0.643818,-1.225726 1.068181,-2.227909 0.792,-0.869 1.739546,-2.32791 2.481546,-3.23491 1.504652,-1.504652 3.688999,-2.357816 6.505999,-3.096816 3.058,-0.802 4.32736,-1.592637 7.46036,-1.966637 7.22,-0.862 14.468,-1.349 21.744,-1.361 5.442,-0.009 10.846,0.465 16.239,1.16 10.23,1.319 20.177,3.816 29.921,7.152 14.516,4.97 28.226,11.625 41.007,20.104 9.258,6.142 17.984,12.981 25.689,21.041 5.453,5.703 10.354,11.818 14.039,18.837 2.021,3.853 3.602,7.867 4.371,12.174 0.989,5.538 0.543,10.972 -1.167,16.306 -1.871,5.839 -3.59609,9.85536 -7.84309,14.25336 -0.968,1 -3.30759,4.45478 -5.347,5.70719 z m -91.561363,-6.8782 c 0.322,-0.373 0.111682,-0.97409 0.113682,-1.39909 0.022,-7.041 -0.043,-12.24336 0.177,-19.28336 0.078,-2.492001 0.07,-4.987001 0.098,-7.480001 0.007,-0.586 0.016,-1.174 0,-1.761 -0.028,-1.064 -0.13,-1.145 -1.121,-1.086 -4.39,0.26 -9.140032,1.650096 -13.512032,2.144096 -3.937,0.445 -5.648633,1.043925 -9.510633,1.919925 -2.215,0.503 -3.14889,1.096534 -5.21489,2.069534 -1,0.472 -1.644434,1.114626 -2.429434,1.903626 -0.518255,0.89764 -1.002036,1.58721 -0.120036,3.02821 0.616,1.008 1.182783,1.68589 1.998783,2.53489 2.349,2.448 4.867987,5.02744 7.651987,6.94444 7.409,5.099 9.392344,6.87956 17.656253,11.04919 0.464,0.174 3.66032,-0.42146 4.21232,-0.58446 z"
           inkscape:connector-curvature="0"
           style="clip-rule:evenodd;fill:#d7d7d7;fill-opacity:1;fill-rule:evenodd" />
      </g>
    </g>
  </g>
  <g
     transform="matrix(2.3432717,0,0,2.3432717,-30.054813,-30.630952)"
     style="fill:#ffffff;fill-opacity:1"
     id="g3194">
    <g
       style="fill:#ffffff;fill-opacity:1"
       id="g3190">
      <g
         id="g3243"
         style="fill:#ffffff;fill-opacity:1">
        <path
           style="clip-rule:evenodd;fill:#ffffff;fill-opacity:1;fill-rule:evenodd"
           inkscape:connector-curvature="0"
           d="m 385.98188,160.84596 c -0.092,0.112 -0.231,0.209 -0.269,0.336 -1.492,5.059 -3.46,9.982 -4.328,15.22 -0.336,2.022 -0.701,4.043 -1.112,6.053 -0.176,0.855 -0.479,1.688 -0.777,2.514 -0.254,0.704 -0.827,0.972 -1.561,0.985 -0.676,0.014 -1.307,-0.141 -1.934,-0.367 -1.328,-0.479 -2.526,-1.199 -3.583,-2.117 -2.67,-2.316 -4.548,-5.145 -5.448,-8.602 -0.263,-1.01 -0.337,-2.02 -0.36,-3.049 -0.091,-3.979 0.456,-7.898 1.125,-11.804 0.148,-0.87 0.307,-1.731 0.301,-2.615 0.623,-1.349 0.704,-2.83 1.03,-4.251 1.951,-8.512 4.467,-16.865 7.088,-25.189 0.022,-0.069 0.055,-0.136 0.076,-0.206 0.382,-1.264 0.891,-2.506 1.109,-3.797 0.23,-1.366 -0.769,-2.472 -1.2,-3.696 -1.969,-5.589 -2.012,-11.205 -0.481,-16.882 1.447,-5.365002 3.873,-10.281002 6.825,-14.956002 2.633,-4.171 5.642,-8.053 9.062,-11.608 0.659,-0.686 1.366,-1.337 2.119,-1.92 0.892,-0.692 1.818,-0.52 2.464,0.405 0.247,0.354 0.431,0.769 0.57,1.181 0.688,2.043 0.562,4.058 -0.381,5.988 -0.676,1.382 -1.428,2.729 -2.178,4.074 -2.463,4.42 -4.989,8.809 -7.098,13.416 -0.762,1.665002 -1.456,3.361002 -1.919,5.145002 -0.429,1.65 -0.242,3.188 0.588,4.659 0.725,-0.055 0.948,-0.673 1.301,-1.112 4.838,-6.007 9.892,-11.822002 15.396,-17.230002 3.352,-3.295 6.838,-6.445 10.792,-9.026 1.414,-0.922 2.88,-1.738 4.482,-2.313 2.046,-0.734 4.024,-0.646 5.986,0.255 2.264,1.039 4.021,2.68 5.462,4.669 1.844,2.546 2.841,5.447 3.409,8.507 0.943,5.079 0.737,10.076002 -1.119,14.947002 -0.812,2.132 -1.805,4.176 -3.037,6.095 -5.873,9.137 -13.809,15.697 -24.167,19.17 -3.152,1.057 -6.423,1.495 -9.751,1.432 -1.385,-0.026 -1.387,-0.031 -1.746,1.32 -0.565,2.126 -1.098,4.262 -1.699,6.377 -1.541,5.433 -3.105,10.858 -4.679,16.28 -0.163,0.567 -0.37,1.114 -0.358,1.712 z m 14.065,-41.084 c 1.183,0.22 2.129,0.113 3.063,-0.073 6.803,-1.349 12.44,-4.707 16.964,-9.936 1.846,-2.132 3.233,-4.537 4.044,-7.258 0.77,-2.586002 0.931,-5.189002 0.332,-7.832002 -0.182,-0.8 -0.46,-1.551 -0.979,-2.189 -1.015,-1.25 -2.345,-1.507 -3.688,-0.64 -0.673,0.434 -1.29,0.973 -1.869,1.529 -2.183,2.098 -3.976,4.522 -5.716,6.981002 -4.203,5.939 -7.999,12.137 -11.64,18.432 -0.142,0.245 -0.262,0.502 -0.511,0.986 z"
           id="path3148" />
        <path
           style="clip-rule:evenodd;fill:#ffffff;fill-opacity:1;fill-rule:evenodd"
           inkscape:connector-curvature="0"
           d="m 251.33946,76.122452 c 4.072,-0.041 6.78481,0.63991 10.58481,1.10591 1.678,0.207 3.70773,1.528638 5.33573,1.982638 1.064,0.296 2.067,0.749 2.998,1.354 2.164,1.407 2.321,4.162 0.092,5.646 -0.864,0.576 -1.786,1.003 -2.76,1.345 -2.65,0.931 -5.77773,1.219909 -8.54473,1.546909 -3.934,0.466 -7.51627,0.910091 -11.47227,1.161091 -5.05,0.321 -8.05272,0.183272 -13.07372,0.884272 -1.893,0.264 -5.60764,0.514455 -7.40864,1.183455 -0.696,0.258 -3.9251,0.787636 -4.4351,1.349636 -0.626,0.69 -0.41591,1.111818 0.38509,1.511818 0.585,0.292 4.37446,0.177272 5.01146,0.312272 1.435,0.304 4.496,0.61 5.952,0.758 3.13574,0.06882 4.66046,0.582454 8.24446,0.866454 4.025,0.32 9.29927,1.303911 13.27727,2.017911 3.259,0.585 5.11518,1.718182 8.08118,3.264182 2.81,2.21418 6.244,6.87136 6.526,12.69736 0.307,6.363 -1.17264,10.12737 -6.12864,13.81637 -3.244,2.413 -8.81764,3.767 -12.75464,4.462 -7.922,1.398 -12.47645,0.1249 -20.35154,-1.10791 -3.981,-1.204 -7.74409,-2.08337 -10.81709,-4.93537 -1.136,-1.054 -3.41782,-2.98845 -4.28082,-4.27445 -2.764,-4.125 -3.38318,-8.64664 0.24482,-11.52464 2.131,-1.689 4.94272,-3.79172 7.57272,-4.26972 1.879,-0.343 5.10083,-0.71464 7.01983,-0.58364 5.5,0.376 -3.71368,-1.41323 15.99681,2.92827 1.57696,0.34735 3.39819,0.53027 4.81619,1.32927 0.51,0.288 1.00116,0.34681 2.06136,1.02955 2.83718,1.82706 1.62718,2.46555 0.56218,3.74855 -0.523,0.63 -4.69719,1.72636 -5.41919,2.08736 -3.32018,0.41182 -4.68454,0.33436 -6.51408,-0.11464 -2.118,-0.283 -4.141,-0.969 -6.138,-1.709 -1.925,-0.714 -3.844,-1.446 -5.756,-2.197 -1.168,-0.459 -2.07182,-0.63736 -3.30782,-0.76136 -2.4,-0.24 -4.40691,0.68873 -5.82491,2.83673 -1.083,1.642 -0.79209,3.08172 0.85991,4.15172 0.744,0.482 2.00427,1.27428 2.86927,1.45428 1.292,0.268 2.59,0.63009 3.917,0.72009 3.539,0.241 6.16046,0.40582 9.65546,-0.0382 4.515,-0.573 7.15836,-1.65119 11.53636,-2.92619 2.184,-0.637 4.70273,-1.88582 6.68573,-3.04282 0.961,-0.561 2.22072,-1.48818 2.88072,-2.39818 1.044,-1.441 1.41583,-2.95227 0.4511,-4.26491 -1.054,-0.818 -2.19246,-1.86682 -3.42846,-2.33882 -3.235,-1.235 -6.88718,-1.27554 -10.27918,-1.92554 -5.72055,-0.42009 -8.932,-0.30336 -14.664,-0.33936 -3.233,-0.021 -6.37745,0.32036 -9.56445,-0.24964 -1.744,-0.312 -5.76946,-1.93318 -7.34046,-2.77718 -2.703,-1.45 -4.43173,-2.688365 -4.56473,-5.725365 -0.213,-4.897 1.26209,-8.627 5.08009,-11.509 2.611,-1.971 6.30346,-3.92891 9.38746,-4.92491 4.487,-1.45 7.64109,-2.530182 12.32509,-3.015182 3.876,-0.401 8.79064,-0.676091 12.43264,-0.598091 z"
           id="path3150"
           sodipodi:nodetypes="ccccccccccccccccccccccccccscscccccccccccccccccccccccccc" />
        <path
           style="clip-rule:evenodd;fill:#ffffff;fill-opacity:1;fill-rule:evenodd"
           inkscape:connector-curvature="0"
           d="m 272.44081,121.61603 c 0.076,-4.121 0.14896,-8.41102 0.71496,-12.48002 0.708,-5.089 1.51304,-12.671014 2.88404,-17.630014 0.606,-2.194 1.318,-4.353 2.267,-6.424 0.551,-1.204 1.177,-2.368 2.065,-3.367 1.557,-1.752 3.09,-2.008 5.073,-0.817 1.074,0.645 4.74119,3.889004 5.63019,4.770004 2.145,2.124 4.017,4.479 5.843,6.874 3.474,4.556 4.0439,9.26945 7.2709,13.99945 1.034,1.516 2.082,3.022 3.138,4.523 0.422,0.6 0.865,1.187 1.333,1.753 0.456,0.551 1.24173,2.34055 1.99773,2.16855 0.983,-0.224 0.53118,-4.17628 0.64618,-5.03228 0.286,-2.126 -0.70454,-5.27863 -1.09954,-7.38563 -0.96,-5.128004 -1.75955,-10.032459 -3.23255,-15.026459 -1.225,-4.149 -3.28545,-8.344545 -4.20845,-12.575545 -0.234,-1.074 -0.413,-2.163 -0.549,-3.253 -0.13,-1.031 0.021,-2.058 0.331,-3.044 0.343,-1.091 1.028,-1.51 2.181,-1.419 1.138,0.09 3.52354,3.176868 4.42854,3.822868 1.57,1.119 2.22594,4.300156 3.40794,5.808156 2.093,2.669 3.95361,7.132622 5.43061,10.172622 3.228,6.642 3.1184,9.889639 4.1824,17.206638 0.871,5.998 0.45754,9.69188 -0.45146,15.0027 -0.94,2.088 -1.24816,4.60351 -2.71162,6.74979 -1.451,1.609 -1.97604,4.06964 -4.11504,4.63364 -1.964,0.518 -3.41873,1.87577 -5.08673,0.64977 -1.551,-1.14 -2.74091,-1.46136 -3.99891,-2.90136 -2.467,-2.828 -4.09418,-4.57618 -6.15618,-7.70218 -2.183,-3.307 -3.13127,-4.8879 -4.63236,-8.28345 -0.641,-0.984 -2.55228,-4.01528 -3.24328,-4.96328 -0.387,-0.532 -1.26927,-2.79709 -1.73327,-3.26409 -0.53,-0.89138 -4.10005,-10.993539 -4.48514,-0.2619 0.028,0.77801 -0.075,2.78113 -0.18698,3.42813 -0.047,2.91201 -0.043,4.43389 -0.18698,7.28989 -0.192,3.808 -0.012,7.52499 -0.57198,11.30599 -0.226,1.519 -0.47899,3.23002 -0.82799,4.72902 -0.131,0.564 -1.00305,1.31801 -1.25005,1.84901 -1.417,2.52794 -3.34791,2.52788 -4.15474,1.84203 -0.984,-0.831 -3.17913,-1.58698 -3.59313,-2.77998 -0.507,-1.459 -1.9721,-2.34494 -2.0581,-3.89194 -0.084,-1.54 -0.23001,-4.53613 -0.29101,-6.07613 z"
           id="path3154"
           sodipodi:nodetypes="cccccccccccccccccsccccccccscccccccsccccccc" />
        <path
           style="clip-rule:evenodd;fill:#ffffff;fill-opacity:1;fill-rule:evenodd"
           inkscape:connector-curvature="0"
           d="m 354.43063,109.13089 c -2.495,0.077 -4.991,0.236 -7.484,0.205 -2.341,-0.029 -3.657,1.071 -4.351,3.225 -0.564,1.751 -1.066,3.513 -1.323,5.333 -0.112,0.792 -0.092,1.611 -0.064,2.415 0.017,0.495 0.364,0.818 0.866,0.815 0.88,-0.004 1.767,-0.007 2.636,-0.124 2.036,-0.274 4.067,-0.594 6.094,-0.936 2.822,-0.476 5.635,-0.999 8.457,-1.478 0.723,-0.124 1.459,-0.16 2.19,-0.236 3.11,-0.323 5.36,1.132 7.146,3.498 0.304,0.402 0.539,0.882 0.697,1.362 0.292,0.893 0.168,1.726 -0.515,2.448 -0.963,1.019 -2.021,1.923 -3.153,2.744 -4.43,3.217 -9.259,5.656 -14.456,7.366 -3.57,1.176 -7.225,1.912 -10.986,2.138 -4.868,0.293 -8.514,-1.73 -11.163,-5.725 -1.441,-2.172 -2.348,-4.569 -2.785,-7.125 -0.323,-1.894 -0.24,-3.781 0.261,-5.674 0.732,-2.77 1.662,-5.473 2.537,-8.195 0.247,-0.767 0.456,-1.549 0.739,-2.303 0.278,-0.738 0.238,-1.43 -0.105,-2.123 -0.13,-0.263 -0.269,-0.522 -0.39,-0.789 -0.788,-1.729 -0.547,-3.013 0.839,-4.368 0.854,-0.833 1.903,-1.372 2.971,-1.865 3.016,-1.393 2.738,-1.019 3.692,-4.395 0.359,-1.267 0.599,-2.569 0.858,-3.862 0.111,-0.557 -0.102,-1.003 -0.642,-1.266 -0.792,-0.385 -1.575,-0.788 -2.367,-1.17 -1.321,-0.64 -2.667,-1.236 -3.833,-2.15 -0.875,-0.687 -1.657,-1.447 -2.04,-2.537 -0.424,-1.207 -0.178,-2.168 0.895,-2.884 0.603,-0.401 1.29,-0.694 1.969,-0.958 1.791,-0.693 3.678,-0.994 5.565,-1.281 3.922,-0.599 7.879,-0.858 11.827,-1.2 4.313,-0.373 8.632,-0.693 12.946,-1.062 5.595,-0.478 9.962,1.846 13.583,5.899 0.194,0.218 0.361,0.463 0.524,0.708 1.253,1.867 1.112,3.17 -0.592,4.62 -1.146,0.974 -2.5,1.511 -4.019,1.604 -2.197,0.134 -4.391,0.328 -6.588,0.414 -4.035,0.159 -8.06,0.436 -12.068,0.92 -3.102,0.373 -3.337,0.502 -4.084,3.862 -0.189,0.852 -0.289,1.747 -0.257,2.616 0.033,0.908 0.312,1.38 1.268,1.51 0.944,0.128 1.885,0.328 2.833,0.381 3.002,0.167 6.008,0.28 9.012,0.414 0.22,0.01 0.44,0.026 0.66,0.038 2.504,0.136 3.857,1.451 4.087,3.97 0.234,2.578 -0.975,4.399 -3.313,4.973 -1.296,0.319 -2.627,0.231 -3.944,0.274 -1.541,0.051 -3.084,0.012 -4.627,0.012 -10e-4,-0.019 -0.002,-0.039 -0.003,-0.058 z"
           id="path3156" />
        <g
           id="g3234"
           style="fill:#ffffff;fill-opacity:1">
          <path
             style="clip-rule:evenodd;fill:#ffffff;fill-opacity:1;fill-rule:evenodd"
             inkscape:connector-curvature="0"
             d="m 199.53504,69.586 c -2.046,-0.021 -4.889,-0.326 -7.674,-1.042 -0.789,-0.203 -1.351,-0.171 -1.842,0.616 -0.865,1.384 -2.216,2.107 -3.804,2.383 -1.918,0.333 -3.242,-0.385 -4.114,-2.16 -0.764,-1.555 -0.818,-3.259 -1.079,-4.921 -0.034,-0.216 -0.022,-0.44 -0.015,-0.661 0.029,-0.994 -0.321,-1.807 -0.933,-2.612 -1.437,-1.892 -2.357,-4.039 -2.854,-6.375 -0.66,-3.107 -0.455,-6.109 0.796,-9.054 1.754,-4.129 4.358,-7.643 7.649,-10.648 6.265,-5.722 13.625,-9.122 22.059,-10.051 2.911,-0.321 5.859,-0.418 8.765,0.281 3.438,0.828 6.407,2.528 9.01,4.865 0.747,0.671 1.54,1.073 2.495,1.23 1.456,0.241 2.855,0.659 4.196,1.279 2.848,1.314 4.393,3.531 4.737,6.647 0.369,3.337 -0.423,6.404 -1.998,9.315 -1.481,2.736 -3.39,5.161 -5.599,7.325 -5.749,5.632 -12.384,9.856 -20.079,12.331 -3.132,1.009 -5.723,1.359 -9.716,1.252 z m -4.223,-11.57 c 2.888,0.964 5.583,1.192 8.279,1.047 4.761,-0.253 9.183,-1.826 13.454,-3.848 2.732,-1.294 5.303,-2.841 7.541,-4.902 0.979,-0.901 1.843,-1.894 2.531,-3.031 0.698,-1.153 1.083,-2.392 1.062,-3.76 -0.052,-3.392 -2.588,-5.561 -5.984,-5.105 -3.145,0.422 -5.853,1.9 -8.424,3.612 -4.345,2.893 -8.437,6.121 -12.258,9.683 -2.089,1.945 -4.203,3.866 -6.201,6.304 z m -8.5375,-7.24259 c 0.477,-0.449 0.701,-0.635 0.896,-0.847 4.342,-4.707 5.52521,-7.336017 10.75534,-11.283836 0.319,-0.203 1.04319,-1.153764 1.03519,-1.711764 -3.76059,1.201728 -4.05067,1.644099 -7.40367,3.986099 -1.822,1.273 -3.26345,3.251501 -4.39545,5.178501 -0.802,1.367 -1.35541,2.8 -0.88741,4.678 z"
             id="path3158"
             sodipodi:nodetypes="cccccccccsccccccccsccccccccccccccccccc" />
          <path
             style="clip-rule:evenodd;fill:#ffffff;fill-opacity:1;fill-rule:evenodd"
             inkscape:connector-curvature="0"
             d="m 203.7568,121.62 c 0.004,2.864 -0.104,5.718 -0.419,8.566 -0.13,1.174 -0.373,2.314 -0.804,3.413 -0.596,1.515 -1.718,2.352 -3.339,2.444 -1.024,0.059 -2.055,0.063 -3.08,0.019 -2.158,-0.094 -3.741,-1.125 -4.765,-3.031 -0.99,-1.843 -1.383,-3.856 -1.67,-5.893 -0.4,-2.835 -0.562,-5.689 -0.526,-8.555 0.058,-4.694 0.002,-9.393 0.193,-14.081 0.233,-5.708 0.497,-11.423 1.578,-17.06 0.318,-1.659 0.69,-3.303 1.323,-4.871 0.299,-0.743 0.649,-1.487 1.104,-2.142 1.235,-1.777 3.311,-2.003 4.975,-0.599 0.865,0.731 1.391,1.701 1.801,2.727 0.685,1.708 1.1,3.492 1.426,5.299 0.6,3.323 0.926,6.682 1.176,10.044 0.373,5.044 0.62,10.096 0.724,15.154 0.058,2.858 0.199,5.712 0.303,8.566 z"
             id="path3160" />
        </g>
        <path
           style="clip-rule:evenodd;fill:#ffffff;fill-opacity:1;fill-rule:evenodd"
           inkscape:connector-curvature="0"
           d="m 170.14791,129.80655 c -2.174,1.614 -2.92118,2.11272 -5.20218,3.58472 -6.147,3.964 -12.70509,5.45745 -19.72109,7.47545 -5.00212,1.483 -11.15712,1.36189 -16.71272,1.75996 -4.81,0.492 -8.29008,0.29936 -13.12708,-0.0136 -1.972,-0.128 -4.38285,-0.45123 -6.21776,-0.69541 -1.48255,-0.11527 -3.42908,0.0308 -4.87708,-0.19715 -3.41,-0.535 -4.21623,0.23992 -7.565229,-0.60108 -0.824,-0.207 -0.98356,1.0616 -1.16656,1.8846 -0.224,1.006 -0.492,1.991 -0.943,2.922 -1.205,2.484 -2.642919,2.87072 -5.410919,2.91172 -0.661,0.01 -3.288443,-0.41564 -3.943443,-0.48264 -2.413,-0.249 -2.876638,0.0119 -4.123638,-2.12008 -0.866,-1.48 -1.336,-3.097 -1.591,-4.772 -0.22,-1.449 -0.365,-2.912 -0.486,-4.373 -0.048,-0.583 -0.267,-0.901 -0.802,-1.158 -0.778975,-2.20301 -7.331962,-5.76655 -10.238146,-6.99496 -7.208,-3.878 -10.804035,-7.54981 -16.835035,-13.10081 -2.814,-2.59 -5.028246,-4.59818 -7.339246,-7.65618 -1.021,-1.351 -2.793161,-2.93243 -3.825815,-4.12676 -0.409,-0.774 -1.3842,-2.24668 -1.6842,-3.07168 -0.550162,-2.053233 -0.608,-3.835118 0.97,-6.033118 0.994,-1.384 1.457181,-2.129246 2.782181,-3.188246 2.716,-2.169 4.37105,-3.357246 7.51605,-4.799246 6.574,-3.013 13.476,-4.99 20.533,-6.46 1.867,-0.389 3.754,-0.683 5.633,-1.012 0.572,-0.1 3.731732,-0.36 3.746732,-0.996 0.018,-0.733 0.059,-1.467 0.099,-2.2 0.34,-6.161 1.521278,-10.871427 2.010731,-17.494791 0.03182,-2.021365 0.838334,-6.612138 1.402334,-7.970138 0.34,-0.821 0.825757,-1.507087 1.442757,-2.154087 1.113,-1.167 5.342456,1.085743 6.696456,1.962743 0.82,0.531 1.766728,1.655727 2.261728,2.482727 0.836,1.398 1.221908,3.658456 1.662908,5.213456 0.863,3.044 1.123818,5.49009 1.427818,8.63509 0.319,3.285 0.536,6.581 0.792,9.872 0.083,1.077 0.089,1.098 1.138,1.13 3.887996,0.118 7.779996,0.133 11.659996,0.37 7.709,0.471 15.30228,2.156961 22.67528,4.604961 3.075,1.02 5.81068,2.21956 8.54168,3.98356 2.177,1.405 3.59792,2.537919 5.10592,4.668919 1.161,1.641 2.43064,4.260841 2.72364,6.263841 0.448,3.060999 -0.55376,4.663679 -2.43376,7.126679 -1.443,1.89 -3.06584,3.74976 -5.12784,4.94776 -0.656,0.381 -0.79892,0.55828 -1.56092,0.50528 -2.13417,0.26413 -3.37272,0.27027 -5.26372,0.0403 -2.547,-0.312 -9.44673,-2.23857 -8.65029,-3.87937 0.46712,-0.35084 3.01759,-1.5267 3.78359,-2.3177 0.665,-0.687 2.30244,-1.62432 2.63244,-2.55832 0.8236,-0.66408 1.47192,-4.013724 1.05092,-4.492724 -0.541,-0.617 -4.16608,-1.225925 -5.49168,-1.53216 -1.68966,-0.210511 -3.23078,-0.628986 -5.15412,-0.992399 -6.34627,-1.304903 -11.66156,-2.011838 -18.19156,-2.595838 -3.595,-0.321 -5.160839,-0.319422 -8.757839,-0.332422 -0.366,-0.002 -0.734,0.007 -1.099,0.041 -0.324,0.03 -0.551,0.226 -0.567,0.557 -0.034,0.732 -0.065,1.467 -0.045,2.2 0.103,3.741 0.229,6.268503 0.334,10.008503 0.142,4.988 0.262,9.977 0.411,14.965 0.083,2.786 0.212,5.571 0.306,8.356 0.02,0.591 1.256092,1.73707 1.900092,1.86207 1.284871,0.22098 2.383725,0.38395 5.154727,0.69595 5.12,0.576 11.61312,0.48198 16.75012,0.22198 9.355,-0.475 14.57865,-1.12492 23.39465,-4.42592 3.795,-1.42 8.5551,-2.99198 11.8691,-5.34298 3.639,-2.581 7.99511,-4.94094 10.14111,-8.89594 3.147,-5.801 5.00804,-12.716401 3.71804,-19.124401 -0.939,-4.661 -3.3893,-10.57329 -5.8533,-14.60729 -2.691,-4.407 -7.453,-8.480879 -11.037,-12.191879 C 143.60674,58.06143 137.0138,52.890398 127.4628,47.170398 116.0878,40.356398 102.589,36.02 89.984,31.887 80.759,28.862 71.367,26.539 61.776,25.061 56.261,24.212 54.391279,23.820637 48.801279,23.712637 c -1.172,-0.022 -5.063186,-0.234546 -6.235186,-0.240546 -5.215,-0.032 -7.329086,0.05791 -12.516086,0.610909 -1.608,0.172 -3.2,0.443 -4.754,0.89 -0.558,0.16 -1.11,0.394 -1.61,0.687 -1.172728,3.046095 5.244283,3.691913 5.993283,4.295913 0.45,0.363 0.995,0.61 1.497,0.91 1.177,0.704 1.661,1.414 1.433,2.215 -0.293,1.029 -1.194,1.202 -2.075,1.36 -2.344,0.422 -7.770914,0.213909 -10.082914,-0.347091 -0.559,-0.136 -4.338006,-1.507184 -4.843006,-1.794184 -0.962,-0.548 -2.697275,-2.002365 -2.775275,-3.109365 -0.085,-1.199 0.611819,-3.151001 1.145819,-4.231001 0.426,-0.859 0.643818,-1.225726 1.068181,-2.227909 0.792,-0.869 1.739546,-2.32791 2.481546,-3.23491 1.504652,-1.504652 3.688999,-2.357816 6.505999,-3.096816 3.058,-0.802 4.32736,-1.592637 7.46036,-1.966637 7.22,-0.862 14.468,-1.349 21.744,-1.361 5.442,-0.009 10.846,0.465 16.239,1.16 10.23,1.319 20.177,3.816 29.921,7.152 14.516,4.97 28.226,11.625 41.007,20.104 9.258,6.142 17.984,12.981 25.689,21.041 5.453,5.703 10.354,11.818 14.039,18.837 2.021,3.853 3.602,7.867 4.371,12.174 0.989,5.538 0.543,10.972 -1.167,16.306 -1.871,5.839 -3.59609,9.85536 -7.84309,14.25336 -0.968,1 -3.30759,4.45478 -5.347,5.70719 z m -91.561363,-6.8782 c 0.322,-0.373 0.111682,-0.97409 0.113682,-1.39909 0.022,-7.041 -0.043,-12.24336 0.177,-19.28336 0.078,-2.492001 0.07,-4.987001 0.098,-7.480001 0.007,-0.586 0.016,-1.174 0,-1.761 -0.028,-1.064 -0.13,-1.145 -1.121,-1.086 -4.39,0.26 -9.140032,1.650096 -13.512032,2.144096 -3.937,0.445 -5.648633,1.043925 -9.510633,1.919925 -2.215,0.503 -3.14889,1.096534 -5.21489,2.069534 -1,0.472 -1.644434,1.114626 -2.429434,1.903626 -0.518255,0.89764 -1.002036,1.58721 -0.120036,3.02821 0.616,1.008 1.182783,1.68589 1.998783,2.53489 2.349,2.448 4.867987,5.02744 7.651987,6.94444 7.409,5.099 9.392344,6.87956 17.656253,11.04919 0.464,0.174 3.66032,-0.42146 4.21232,-0.58446 z"
           id="path3142"
           sodipodi:nodetypes="cccccccccccccccccsscccccccccccccccccccccccccccccccccccccccccccccccccsccccccccccccccccccccscccccccccccccccccccccccc" />
      </g>
    </g>
  </g>
</svg>
