<svg height="656.29572" viewBox="0 0 2104.9216 615.27721" width="2245.2498" xmlns="http://www.w3.org/2000/svg" xmlns:xlink="http://www.w3.org/1999/xlink"><radialGradient id="a" cx="1167.4923" cy="242.69054" gradientTransform="matrix(-.11580856 .93530339 -.88490442 -.10956807 1498.3051 -807.20601)" gradientUnits="userSpaceOnUse" r="60.491985"><stop offset="0" stop-color="#353535"/><stop offset="1" stop-color="#2a2a2a"/></radialGradient><linearGradient id="b" gradientUnits="userSpaceOnUse" x1="444.5484" x2="444.5484" y1="243.20906" y2="600.03119"><stop offset="0" stop-color="#b02726"/><stop offset=".45427966" stop-color="#460e0d"/><stop offset="1" stop-color="#7b1a21"/></linearGradient><linearGradient id="c" gradientUnits="userSpaceOnUse" x1="258.43146" x2="222.60504" y1="464.68503" y2="473.22293"><stop offset="0" stop-color="#96272e"/><stop offset="1" stop-color="#9e231c"/></linearGradient><linearGradient id="d" gradientUnits="userSpaceOnUse" x1="605.35248" x2="605.35248" y1="206.09506" y2="240.55128"><stop offset="0" stop-color="#6a1b14"/><stop offset="1" stop-color="#741a1a"/></linearGradient><linearGradient id="e" gradientUnits="userSpaceOnUse" x1="1717" x2="1717" y1="334" y2="371"><stop offset="0" stop-color="#a12525"/><stop offset="1" stop-color="#9c2424"/></linearGradient><linearGradient id="f" gradientUnits="userSpaceOnUse" x1="666.59747" x2="666.59747" y1="169.0929" y2="282.97482"><stop offset="0" stop-color="#a12525"/><stop offset="1" stop-color="#651618"/></linearGradient><g transform="translate(-55.975689 -4.440542)"><path d="m983.34375 332.53125c-2.53583.003-5.07672.12047-7.625.3125-10.6316.79581-20.85548 3.04339-30.8125 6.71875-5.27756 1.94409-10.09277 4.80071-15.09375 7.28125-.20689.24828-.50597.46626-.59375.75-3.35722 11.21451-7.79818 22.14091-9.75 33.75-.75556 4.48447-1.57356 8.95059-2.5 13.40625-.39352 1.89753-1.0799 3.73369-1.75 5.5625-.57114 1.56059-1.85174 2.15647-3.5 2.1875-1.52009.031-2.93386-.3093-4.34375-.8125-2.9862-1.06182-5.68342-2.65253-8.0625-4.6875-6.00611-5.1362-10.22846-11.39921-12.25-19.0625-.59138-2.23891-.76085-4.50022-.8125-6.78125-.20463-8.82043 1.0269-17.49986 2.53125-26.15625.33506-1.92857.7008-3.82165.6875-5.78125-.9894-.0333-1.97935-.0937-2.96875-.0937-39.14669-.004-78.31982 0-117.46875 0-.82525 0-1.6435-.0355-2.46875 0-1.9788.082-2.3475.41897-2.4375 2.25-.0585 1.13941-.0312 2.26684-.0312 3.40625v268.8125h135.1875c.00061-40.02079.0431-82.9803 0-117.71875-.007-4.41354.3344-8.7824 1-13.125.59364-3.87265 1.69543-7.63341 3.65625-11.09375 2.28014-4.02118 5.6149-6.80247 10.03125-8.25 3.49889-1.14384 7.13395-1.44578 10.78125-1.03125 8.11537.91995 13.78427 5.08828 16.71875 12.65625 1.23901 3.20098 1.97472 6.5215 2.375 9.9375.68134 5.83004.875 11.69921.875 17.5625l.0312 111.40625h135.1875l-.031-167.84375c0-7.32191-.2239-14.63776-1.0312-21.9375-1.3132-11.8751-3.8656-23.43466-8.1875-34.59375-4.7649-12.30737-11.4924-23.42637-21.0313-32.75-14.868-14.52633-33.3707-21.25487-53.7187-23.5625-4.18388-.47521-8.36737-.72434-12.59375-.71875z" fill="#e73636" fill-rule="evenodd"/><g transform="matrix(2.2167448 0 0 2.2167448 60.987925 -16.26428)"><path d="m356.64461 607.06536c39.80377-27.12956 69.12564-60.62314 72.68597-109.75765v-223.40464c11.24215-12.39805 19.11322-22.61481 26.50152-32.51919v257.50442s-1.85692 40.53301-32.7312 71.40729c-31.20431 31.20431-66.45629 36.76977-66.45629 36.76977z" fill="url(#b)" transform="matrix(.45111192 0 0 .45111192 -27.51238 7.337011)"/><path d="m210.96961 456.19123 40.00283-2.943c6.54534 13.14274 14.6422 18.91576 23.00377 23.43143-3.91566 2.30386-6.30043 5.73341-26.67047 5.73341-23.4588-.54574-30.23963-14.19279-36.33613-26.22184z" fill="url(#c)" transform="matrix(.45111192 0 0 .45111192 -27.51238 7.337011)"/><g fill-rule="evenodd"><path clip-rule="evenodd" d="m166.12842 131.03038c.022.733.065 1.34938.066 2.08238.003 32.537.047 65.075-.023 97.611-.023 10.766-2.10254 16.13191-7.57354 25.47291-6.508 11.112-13.12223 17.94808-23.91383 24.48244-6.018 2.444-14.13884 4.42646-20.61684 5.02646-17.970999 1.664-41.162984.42435-57.331984-7.68665-6.003-3.012-11.518-6.771-16.409-11.392-2.025-1.913-1.86-1.376-.635-3.592 8.662-15.676 18.119434-32.27592 26.795434-47.94492.319-.575.828923-1.4141 1.156923-1.9861.344539.60784.684077 1.2861.958077 1.8331.993 1.988 2.206 3.809 3.784 5.38 2.424 2.414 5.357 3.788 8.713 4.359 3.243.551 6.435.275 9.604-.476 1.146-.271 2.71346-.44677 3.76946-.96977 4.434-2.197 6.18454-4.10464 6.38354-9.00664.03-.733.007-3.41259.007-4.14659.001-21.74.001-43.48.002-65.222 1.981-.05 11.71834.194 13.69034.322 4.837.313 9.676.052 14.485-.439 5.318-.545 10.579-1.484 15.732-2.967 7.016-2.018 8.68342-2.05924 14.83042-6.02324 2.281-1.47 4.352-3.10338 6.526-4.71738z" fill="#e73636"/><path d="m620.03125 337.6875.0312 131.78125c0 1.31247.0951 2.63173 0 3.9375-.37607 5.21644-.65125 10.45276-2.65625 15.40625-2.31311 5.70889-6.40118 9.44912-12.5 11-4.92073 1.24785-9.86231 1.29506-14.8125.25-6.93706-1.45731-11.51979-5.57387-13.8125-12.15625-.97191-2.79427-1.68969-5.63903-1.84375-8.59375-.29678-5.71335-.68085-11.44066-.6875-17.15625l-.0312-124.5h-135.21875v153.125c.005 8.8441.50106 17.64898 2.09375 26.375 3.91484 21.48077 13.10896 40.39373 28.28125 56.40625 13.04494 13.76641 28.79131 23.6845 46.28125 31 21.98248 9.20286 45.10323 13.59584 68.84375 14.8125 17.14105.88016 34.22951.0934 51.21875-2.6875 19.67164-3.21765 38.54126-8.81057 56.1875-18.03125 15.29915-7.99513 28.73597-18.31114 39.53125-31.75 16.16911-20.13265 23.95049-43.24933 24.28125-68.71875l.0313-160.5z" fill="#e73636" transform="matrix(.45111192 0 0 .45111192 -27.51238 7.337011)"/><path d="m231.29899 159.6784.0141 56.1428c.003 2.57837.17625 5.16203.31014 7.73939.0695 1.33291.39329 2.61622.83173 3.87675 1.03427 2.96939 3.1016 4.82642 6.23099 5.48383 1.92098.40554 8.42682 1.29458 10.41628-1.54803-1.30389-.17968-4.12672-.44089-5.89374-2.32146-1.29362-1.26053-2.39485-2.62158-2.46435-3.95449-.13388-2.57736-.30713-5.16102-.31013-7.73939l-.0141-56.16343z" fill="#800000"/><path d="m313.1899 159.65359-.0141 72.42174c-.14921 11.48955-3.65948 21.91776-10.95356 30.99984-4.86988 6.06243-10.93139 10.71611-17.83302 14.32281-7.96043 4.15956-16.47274 6.68259-25.34685 8.13411-7.66405 1.2545-15.37285 1.60941-23.10539 1.21236-9.89857-.50728-19.56446-2.2426-28.80067-5.77987.48687.21557.98709.42812 1.48021.63438 9.91656 4.15152 16.54044 4.59302 27.25007 5.14187 7.73255.39705 15.56949.0363 23.23354-1.2182 8.87411-1.45152 17.18042-3.88785 25.14085-8.04741 6.90163-3.6067 13.97064-7.6562 18.84052-13.71863 7.29408-9.08208 13.95386-20.98741 14.10307-32.47697l.0217-70.07116z" fill="#800000"/><path d="m1746.1562 333.28125c-11.077-.0244-21.8104.58895-32.7812 2.46875-5.4726.93656-10.5509 2.32732-15.5 4.125v.0625l.125 33.34375c.3015.0466.6003.10305.9062.15625 2.166-2.81748 4.27-5.69782 6.5-8.46875.1402-.17409.2966-.32739.4376-.5 13.2692-16.24819 30.2862-25.97568 51.0624-29.53125 10.9709-1.8798 21.9542-1.61815 33.0313-1.59375.778.002 1.5632.0383 2.3437.0937-.096-.0201-.2053-.0547-.3124-.0625-.8114-.0598-1.6285-.0915-2.4376-.0937z" fill="url(#e)" transform="matrix(.45111192 0 0 .45111192 -27.51238 7.337011)"/><path d="m653.79347 169.2519v109.46184l25.84028 5.42273v-123.81613z" fill="url(#f)"/><path d="m1789.9375 333.34375c-11.0771-.0244-22.0605-.28605-33.0313 1.59375-20.997 3.59334-38.1706 13.46995-51.5 30.03125-2.23 2.77093-4.3341 5.65127-6.5 8.46875-.3059-.0532-.6047-.1097-.9062-.15625l-.125-34.15625h-130.3125v274.46875h133.5313v-105.03125c-.01-5.89654.5399-11.709 2.125-17.375 5.0741-18.13297 16.4865-30.31069 34.4687-36.15625 10.2813-3.34728 20.8323-3.35773 31.4063-2.15625 7.4726.85123 14.6457 3.02199 21.5 6.1875.9376.43227 1.9406 1.34637 3.375.4375v-3.25c0-39.73293-.029-79.4836-.031-119.21875 0-.97758.035-1.09157-.031-2.0625-.064-.91773-.5913-1.46253-1.5312-1.53125-.8113-.0598-1.6284-.0915-2.4375-.0937z" fill="#e73636" transform="matrix(.45111192 0 0 .45111192 -27.51238 7.337011)"/><path d="m595.34633 157.35992c-4.83001.01-9.65894.35419-14.46382 1.04319-7.09374 1.01801-14.03003 2.53553-20.72291 5.00453-10.25549 3.785-19.33673 9.26977-26.79889 17.07176-5.67873 5.938-9.86406 12.71914-12.60294 20.31414-2.37258 6.571-3.54682 13.34503-3.74987 20.30003-.16429 5.53401.18045 11.0082 1.452 16.4092 2.68867 11.44 8.57721 21.13601 17.53697 29.13901 6.30149 5.63 13.50417 9.91654 21.42782 13.12454 12.12571 4.908 24.82054 7.10111 40.23359 7.11911.7096.009 1.5299-.0215 2.4106-.0564-13.18361-.33811-24.31267-2.54589-34.97529-7.06272-7.57097-3.208-14.44817-7.49454-20.4692-13.12454-8.56098-8.003-14.1785-17.69901-16.74753-29.13901-1.21498-5.401-1.56671-10.87519-1.40973-16.4092.19403-6.955 1.32781-13.72903 3.59482-20.30003 2.61699-7.595 6.62715-14.37614 12.05317-20.31414 7.12996-7.80199 15.8016-13.28676 25.6006-17.07176 6.39497-2.469 13.02861-3.98652 19.80661-5.00453 3.71847-.55805 7.44367-.87805 11.1791-.9868-1.1179-.0346-2.23603-.0585-3.3551-.0564z" fill="#800000"/><path d="m601.36583 204.67028c-1.4464.0317-2.8139.21849-4.10228.5357 2.12149 1.23445 3.92044 2.96119 5.35696 5.23008 4.03768 6.37399 4.52438 13.07527.45111 19.60927-2.42955 3.89597-5.92432 6.29771-10.23465 7.30237 2.83276 1.71501 5.93348 2.48405 9.27604 2.32605 5.84699-.277 10.50703-2.81597 13.49104-7.82398 3.89201-6.534 3.42101-13.23527-.43704-19.60927-3.03499-5.017-7.7252-7.42922-13.80118-7.57022z" fill="url(#d)"/><path clip-rule="evenodd" d="m603.537 286.882c-14.727-.018-26.852-2.206-38.438-7.114-7.571-3.208-14.459-7.494-20.48-13.124-8.561-8.003-14.177-17.703-16.746-29.143-1.215-5.401-1.556-10.874-1.399-16.408.194-6.955 1.322-13.728 3.589-20.299 2.617-7.595 6.62-14.379 12.046-20.317 7.13-7.802 15.808-13.281 25.607-17.066 6.395-2.469 13.022-3.994 19.8-5.012 4.591-.689 9.199-1.023 13.814-1.033 4.617-.009 9.224.322 13.816 1.008 5.46.817 10.837 1.914 16.083 3.63 9.537 3.116 18.211 7.765 25.657 14.568 9.709 8.87 15.664 19.833 18.267 32.685 1.291 6.381 1.669 12.832 1.194 19.291-1.03 14.064-6.329 26.28-16.298 36.38-6.979 7.071-15.252 12.125-24.445 15.746-5.824 2.295-11.84 3.884-18.021 4.895-5.376.876-10.774 1.356-14.046 1.313zm-2.175-82.206c-6.479.142-11.404 3.138-14.498 9.081-1.704 3.273-2.381 6.801-2.053 10.441.486 5.403 2.88 9.788 7.498 12.815 2.976 1.952 6.255 2.823 9.809 2.655 5.847-.277 10.502-2.815 13.486-7.823 3.892-6.534 3.428-13.224-.43-19.598-3.035-5.017-7.736-7.43-13.812-7.571z" fill="#e73636"/></g></g><path d="m1087.9457 257.46348c.9969-29.70128 23.0343-61.56818 68.1555-57.47406 31.9761 2.90138 54.8681 31.05125 52.6452 63.88509-1.7879 26.40871-26.6598 54.25803-58.4302 53.91929-40.0402-.42692-63.4264-28.87152-62.3705-60.33032z" fill="url(#a)"/><path d="m1059.4548 180.15884c.662-19.48597 15.2981-40.39272 45.2653-37.70672 21.2369 1.90349 36.4406 20.37164 34.9643 41.91277-1.1875 17.32583-17.7061 35.5968-38.8064 35.37456-26.5925-.28009-42.1245-18.94159-41.4232-39.58061z" fill="#282828"/><path d="m1181.7843 201.01849c.662-19.48597 15.2981-40.39272 45.2653-37.70672 21.2369 1.90349 36.4406 20.37164 34.9643 41.91277-1.1875 17.32583-17.7061 35.5968-38.8064 35.37456-26.5925-.28009-42.1245-18.94159-41.4232-39.58061z" fill="#282828"/><g fill-rule="evenodd"><path d="m1078.875 341.90625v69h9v-72.75z" fill="#0f1110"/><path d="m1078.875 410.90625c0 67.35762 1.0484 124.27546 1.0625 192.75l7.9375 10.3125v-203.0625z" fill="#56100c"/><path d="m1087.875 410.90625v203.0625h134v-203.0625z" fill="#e73636"/><path clip-rule="evenodd" d="m1172.2798 444.04278c-.6008-6.27782 4.1519-12.38052 12.4359-12.78619 6.7478-.33251 12.815 5.87438 12.968 12.67978.1485 6.84753-6.2446 13.42904-13.1054 13.03225-7.9759-.46109-12.9369-6.42413-12.2985-12.92584z" fill="#fde84d"/><path clip-rule="evenodd" d="m1139.452 444.35091c.5764 6.34654-4.6773 12.46697-12.6199 12.59997-6.9296.11306-12.7729-6.04063-12.7862-12.8283-.011-6.96279 6.4042-13.37362 13.2517-12.84604 8.2795.63621 12.7862 6.71452 12.1544 13.07437z" fill="#fde84d"/><path d="m1087.8694 338.15996h134.0111v72.74525h-134.0111z" fill="#2a2a2a"/></g></g><g clip-rule="evenodd" fill="#090909" fill-rule="evenodd" transform="matrix(2.3432717 0 0 2.3432717 -24.636199 -28.130086)"><path d="m385.98188 160.84596c-.092.112-.231.209-.269.336-1.492 5.059-3.46 9.982-4.328 15.22-.336 2.022-.701 4.043-1.112 6.053-.176.855-.479 1.688-.777 2.514-.254.704-.827.972-1.561.985-.676.014-1.307-.141-1.934-.367-1.328-.479-2.526-1.199-3.583-2.117-2.67-2.316-4.548-5.145-5.448-8.602-.263-1.01-.337-2.02-.36-3.049-.091-3.979.456-7.898 1.125-11.804.148-.87.307-1.731.301-2.615.623-1.349.704-2.83 1.03-4.251 1.951-8.512 4.467-16.865 7.088-25.189.022-.069.055-.136.076-.206.382-1.264.891-2.506 1.109-3.797.23-1.366-.769-2.472-1.2-3.696-1.969-5.589-2.012-11.205-.481-16.882 1.447-5.365002 3.873-10.281002 6.825-14.956002 2.633-4.171 5.642-8.053 9.062-11.608.659-.686 1.366-1.337 2.119-1.92.892-.692 1.818-.52 2.464.405.247.354.431.769.57 1.181.688 2.043.562 4.058-.381 5.988-.676 1.382-1.428 2.729-2.178 4.074-2.463 4.42-4.989 8.809-7.098 13.416-.762 1.665002-1.456 3.361002-1.919 5.145002-.429 1.65-.242 3.188.588 4.659.725-.055.948-.673 1.301-1.112 4.838-6.007 9.892-11.822002 15.396-17.230002 3.352-3.295 6.838-6.445 10.792-9.026 1.414-.922 2.88-1.738 4.482-2.313 2.046-.734 4.024-.646 5.986.255 2.264 1.039 4.021 2.68 5.462 4.669 1.844 2.546 2.841 5.447 3.409 8.507.943 5.079.737 10.076002-1.119 14.947002-.812 2.132-1.805 4.176-3.037 6.095-5.873 9.137-13.809 15.697-24.167 19.17-3.152 1.057-6.423 1.495-9.751 1.432-1.385-.026-1.387-.031-1.746 1.32-.565 2.126-1.098 4.262-1.699 6.377-1.541 5.433-3.105 10.858-4.679 16.28-.163.567-.37 1.114-.358 1.712zm14.065-41.084c1.183.22 2.129.113 3.063-.073 6.803-1.349 12.44-4.707 16.964-9.936 1.846-2.132 3.233-4.537 4.044-7.258.77-2.586002.931-5.189002.332-7.832002-.182-.8-.46-1.551-.979-2.189-1.015-1.25-2.345-1.507-3.688-.64-.673.434-1.29.973-1.869 1.529-2.183 2.098-3.976 4.522-5.716 6.981002-4.203 5.939-7.999 12.137-11.64 18.432-.142.245-.262.502-.511.986z"/><path d="m251.33946 76.122452c4.072-.041 6.78481.63991 10.58481 1.10591 1.678.207 3.70773 1.528638 5.33573 1.982638 1.064.296 2.067.749 2.998 1.354 2.164 1.407 2.321 4.162.092 5.646-.864.576-1.786 1.003-2.76 1.345-2.65.931-5.77773 1.219909-8.54473 1.546909-3.934.466-7.51627.910091-11.47227 1.161091-5.05.321-8.05272.183272-13.07372.884272-1.893.264-5.60764.514455-7.40864 1.183455-.696.258-3.9251.787636-4.4351 1.349636-.626.69-.41591 1.111818.38509 1.511818.585.292 4.37446.177272 5.01146.312272 1.435.304 4.496.61 5.952.758 3.13574.06882 4.66046.582454 8.24446.866454 4.025.32 9.29927 1.303911 13.27727 2.017911 3.259.585 5.11518 1.718182 8.08118 3.264182 2.81 2.21418 6.244 6.87136 6.526 12.69736.307 6.363-1.17264 10.12737-6.12864 13.81637-3.244 2.413-8.81764 3.767-12.75464 4.462-7.922 1.398-12.47645.1249-20.35154-1.10791-3.981-1.204-7.74409-2.08337-10.81709-4.93537-1.136-1.054-3.41782-2.98845-4.28082-4.27445-2.764-4.125-3.38318-8.64664.24482-11.52464 2.131-1.689 4.94272-3.79172 7.57272-4.26972 1.879-.343 5.10083-.71464 7.01983-.58364 5.5.376-3.71368-1.41323 15.99681 2.92827 1.57696.34735 3.39819.53027 4.81619 1.32927.51.288 1.00116.34681 2.06136 1.02955 2.83718 1.82706 1.62718 2.46555.56218 3.74855-.523.63-4.69719 1.72636-5.41919 2.08736-3.32018.41182-4.68454.33436-6.51408-.11464-2.118-.283-4.141-.969-6.138-1.709-1.925-.714-3.844-1.446-5.756-2.197-1.168-.459-2.07182-.63736-3.30782-.76136-2.4-.24-4.40691.68873-5.82491 2.83673-1.083 1.642-.79209 3.08172.85991 4.15172.744.482 2.00427 1.27428 2.86927 1.45428 1.292.268 2.59.63009 3.917.72009 3.539.241 6.16046.40582 9.65546-.0382 4.515-.573 7.15836-1.65119 11.53636-2.92619 2.184-.637 4.70273-1.88582 6.68573-3.04282.961-.561 2.22072-1.48818 2.88072-2.39818 1.044-1.441 1.41583-2.95227.4511-4.26491-1.054-.818-2.19246-1.86682-3.42846-2.33882-3.235-1.235-6.88718-1.27554-10.27918-1.92554-5.72055-.42009-8.932-.30336-14.664-.33936-3.233-.021-6.37745.32036-9.56445-.24964-1.744-.312-5.76946-1.93318-7.34046-2.77718-2.703-1.45-4.43173-2.688365-4.56473-5.725365-.213-4.897 1.26209-8.627 5.08009-11.509 2.611-1.971 6.30346-3.92891 9.38746-4.92491 4.487-1.45 7.64109-2.530182 12.32509-3.015182 3.876-.401 8.79064-.676091 12.43264-.598091z"/><path d="m272.44081 121.61603c.076-4.121.14896-8.41102.71496-12.48002.708-5.089 1.51304-12.671014 2.88404-17.630014.606-2.194 1.318-4.353 2.267-6.424.551-1.204 1.177-2.368 2.065-3.367 1.557-1.752 3.09-2.008 5.073-.817 1.074.645 4.74119 3.889004 5.63019 4.770004 2.145 2.124 4.017 4.479 5.843 6.874 3.474 4.556 4.0439 9.26945 7.2709 13.99945 1.034 1.516 2.082 3.022 3.138 4.523.422.6.865 1.187 1.333 1.753.456.551 1.24173 2.34055 1.99773 2.16855.983-.224.53118-4.17628.64618-5.03228.286-2.126-.70454-5.27863-1.09954-7.38563-.96-5.128004-1.75955-10.032459-3.23255-15.026459-1.225-4.149-3.28545-8.344545-4.20845-12.575545-.234-1.074-.413-2.163-.549-3.253-.13-1.031.021-2.058.331-3.044.343-1.091 1.028-1.51 2.181-1.419 1.138.09 3.52354 3.176868 4.42854 3.822868 1.57 1.119 2.22594 4.300156 3.40794 5.808156 2.093 2.669 3.95361 7.132622 5.43061 10.172622 3.228 6.642 3.1184 9.889639 4.1824 17.206638.871 5.998.45754 9.69188-.45146 15.0027-.94 2.088-1.24816 4.60351-2.71162 6.74979-1.451 1.609-1.97604 4.06964-4.11504 4.63364-1.964.518-3.41873 1.87577-5.08673.64977-1.551-1.14-2.74091-1.46136-3.99891-2.90136-2.467-2.828-4.09418-4.57618-6.15618-7.70218-2.183-3.307-3.13127-4.8879-4.63236-8.28345-.641-.984-2.55228-4.01528-3.24328-4.96328-.387-.532-1.26927-2.79709-1.73327-3.26409-.53-.89138-4.10005-10.993539-4.48514-.2619.028.77801-.075 2.78113-.18698 3.42813-.047 2.91201-.043 4.43389-.18698 7.28989-.192 3.808-.012 7.52499-.57198 11.30599-.226 1.519-.47899 3.23002-.82799 4.72902-.131.564-1.00305 1.31801-1.25005 1.84901-1.417 2.52794-3.34791 2.52788-4.15474 1.84203-.984-.831-3.17913-1.58698-3.59313-2.77998-.507-1.459-1.9721-2.34494-2.0581-3.89194-.084-1.54-.23001-4.53613-.29101-6.07613z"/><path d="m354.43063 109.13089c-2.495.077-4.991.236-7.484.205-2.341-.029-3.657 1.071-4.351 3.225-.564 1.751-1.066 3.513-1.323 5.333-.112.792-.092 1.611-.064 2.415.017.495.364.818.866.815.88-.004 1.767-.007 2.636-.124 2.036-.274 4.067-.594 6.094-.936 2.822-.476 5.635-.999 8.457-1.478.723-.124 1.459-.16 2.19-.236 3.11-.323 5.36 1.132 7.146 3.498.304.402.539.882.697 1.362.292.893.168 1.726-.515 2.448-.963 1.019-2.021 1.923-3.153 2.744-4.43 3.217-9.259 5.656-14.456 7.366-3.57 1.176-7.225 1.912-10.986 2.138-4.868.293-8.514-1.73-11.163-5.725-1.441-2.172-2.348-4.569-2.785-7.125-.323-1.894-.24-3.781.261-5.674.732-2.77 1.662-5.473 2.537-8.195.247-.767.456-1.549.739-2.303.278-.738.238-1.43-.105-2.123-.13-.263-.269-.522-.39-.789-.788-1.729-.547-3.013.839-4.368.854-.833 1.903-1.372 2.971-1.865 3.016-1.393 2.738-1.019 3.692-4.395.359-1.267.599-2.569.858-3.862.111-.557-.102-1.003-.642-1.266-.792-.385-1.575-.788-2.367-1.17-1.321-.64-2.667-1.236-3.833-2.15-.875-.687-1.657-1.447-2.04-2.537-.424-1.207-.178-2.168.895-2.884.603-.401 1.29-.694 1.969-.958 1.791-.693 3.678-.994 5.565-1.281 3.922-.599 7.879-.858 11.827-1.2 4.313-.373 8.632-.693 12.946-1.062 5.595-.478 9.962 1.846 13.583 5.899.194.218.361.463.524.708 1.253 1.867 1.112 3.17-.592 4.62-1.146.974-2.5 1.511-4.019 1.604-2.197.134-4.391.328-6.588.414-4.035.159-8.06.436-12.068.92-3.102.373-3.337.502-4.084 3.862-.189.852-.289 1.747-.257 2.616.033.908.312 1.38 1.268 1.51.944.128 1.885.328 2.833.381 3.002.167 6.008.28 9.012.414.22.01.44.026.66.038 2.504.136 3.857 1.451 4.087 3.97.234 2.578-.975 4.399-3.313 4.973-1.296.319-2.627.231-3.944.274-1.541.051-3.084.012-4.627.012-.001-.019-.002-.039-.003-.058z"/><path d="m199.53504 69.586c-2.046-.021-4.889-.326-7.674-1.042-.789-.203-1.351-.171-1.842.616-.865 1.384-2.216 2.107-3.804 2.383-1.918.333-3.242-.385-4.114-2.16-.764-1.555-.818-3.259-1.079-4.921-.034-.216-.022-.44-.015-.661.029-.994-.321-1.807-.933-2.612-1.437-1.892-2.357-4.039-2.854-6.375-.66-3.107-.455-6.109.796-9.054 1.754-4.129 4.358-7.643 7.649-10.648 6.265-5.722 13.625-9.122 22.059-10.051 2.911-.321 5.859-.418 8.765.281 3.438.828 6.407 2.528 9.01 4.865.747.671 1.54 1.073 2.495 1.23 1.456.241 2.855.659 4.196 1.279 2.848 1.314 4.393 3.531 4.737 6.647.369 3.337-.423 6.404-1.998 9.315-1.481 2.736-3.39 5.161-5.599 7.325-5.749 5.632-12.384 9.856-20.079 12.331-3.132 1.009-5.723 1.359-9.716 1.252zm-4.223-11.57c2.888.964 5.583 1.192 8.279 1.047 4.761-.253 9.183-1.826 13.454-3.848 2.732-1.294 5.303-2.841 7.541-4.902.979-.901 1.843-1.894 2.531-3.031.698-1.153 1.083-2.392 1.062-3.76-.052-3.392-2.588-5.561-5.984-5.105-3.145.422-5.853 1.9-8.424 3.612-4.345 2.893-8.437 6.121-12.258 9.683-2.089 1.945-4.203 3.866-6.201 6.304zm-8.5375-7.24259c.477-.449.701-.635.896-.847 4.342-4.707 5.52521-7.336017 10.75534-11.283836.319-.203 1.04319-1.153764 1.03519-1.711764-3.76059 1.201728-4.05067 1.644099-7.40367 3.986099-1.822 1.273-3.26345 3.251501-4.39545 5.178501-.802 1.367-1.35541 2.8-.88741 4.678z" fill="#090909"/><path d="m203.7568 121.62c.004 2.864-.104 5.718-.419 8.566-.13 1.174-.373 2.314-.804 3.413-.596 1.515-1.718 2.352-3.339 2.444-1.024.059-2.055.063-3.08.019-2.158-.094-3.741-1.125-4.765-3.031-.99-1.843-1.383-3.856-1.67-5.893-.4-2.835-.562-5.689-.526-8.555.058-4.694.002-9.393.193-14.081.233-5.708.497-11.423 1.578-17.06.318-1.659.69-3.303 1.323-4.871.299-.743.649-1.487 1.104-2.142 1.235-1.777 3.311-2.003 4.975-.599.865.731 1.391 1.701 1.801 2.727.685 1.708 1.1 3.492 1.426 5.299.6 3.323.926 6.682 1.176 10.044.373 5.044.62 10.096.724 15.154.058 2.858.199 5.712.303 8.566z" fill="#090909"/><path d="m170.14791 129.80655c-2.174 1.614-2.92118 2.11272-5.20218 3.58472-6.147 3.964-12.70509 5.45745-19.72109 7.47545-5.00212 1.483-11.15712 1.36189-16.71272 1.75996-4.81.492-8.29008.29936-13.12708-.0136-1.972-.128-4.38285-.45123-6.21776-.69541-1.48255-.11527-3.42908.0308-4.87708-.19715-3.41-.535-4.21623.23992-7.565229-.60108-.824-.207-.98356 1.0616-1.16656 1.8846-.224 1.006-.492 1.991-.943 2.922-1.205 2.484-2.642919 2.87072-5.410919 2.91172-.661.01-3.288443-.41564-3.943443-.48264-2.413-.249-2.876638.0119-4.123638-2.12008-.866-1.48-1.336-3.097-1.591-4.772-.22-1.449-.365-2.912-.486-4.373-.048-.583-.267-.901-.802-1.158-.778975-2.20301-7.331962-5.76655-10.238146-6.99496-7.208-3.878-10.804035-7.54981-16.835035-13.10081-2.814-2.59-5.028246-4.59818-7.339246-7.65618-1.021-1.351-2.793161-2.93243-3.825815-4.12676-.409-.774-1.3842-2.24668-1.6842-3.07168-.550162-2.053233-.608-3.835118.97-6.033118.994-1.384 1.457181-2.129246 2.782181-3.188246 2.716-2.169 4.37105-3.357246 7.51605-4.799246 6.574-3.013 13.476-4.99 20.533-6.46 1.867-.389 3.754-.683 5.633-1.012.572-.1 3.731732-.36 3.746732-.996.018-.733.059-1.467.099-2.2.34-6.161 1.521278-10.871427 2.010731-17.494791.03182-2.021365.838334-6.612138 1.402334-7.970138.34-.821.825757-1.507087 1.442757-2.154087 1.113-1.167 5.342456 1.085743 6.696456 1.962743.82.531 1.766728 1.655727 2.261728 2.482727.836 1.398 1.221908 3.658456 1.662908 5.213456.863 3.044 1.123818 5.49009 1.427818 8.63509.319 3.285.536 6.581.792 9.872.083 1.077.089 1.098 1.138 1.13 3.887996.118 7.779996.133 11.659996.37 7.709.471 15.30228 2.156961 22.67528 4.604961 3.075 1.02 5.81068 2.21956 8.54168 3.98356 2.177 1.405 3.59792 2.537919 5.10592 4.668919 1.161 1.641 2.43064 4.260841 2.72364 6.263841.448 3.060999-.55376 4.663679-2.43376 7.126679-1.443 1.89-3.06584 3.74976-5.12784 4.94776-.656.381-.79892.55828-1.56092.50528-2.13417.26413-3.37272.27027-5.26372.0403-2.547-.312-9.44673-2.23857-8.65029-3.87937.46712-.35084 3.01759-1.5267 3.78359-2.3177.665-.687 2.30244-1.62432 2.63244-2.55832.8236-.66408 1.47192-4.013724 1.05092-4.492724-.541-.617-4.16608-1.225925-5.49168-1.53216-1.68966-.210511-3.23078-.628986-5.15412-.992399-6.34627-1.304903-11.66156-2.011838-18.19156-2.595838-3.595-.321-5.160839-.319422-8.757839-.332422-.366-.002-.734.007-1.099.041-.324.03-.551.226-.567.557-.034.732-.065 1.467-.045 2.2.103 3.741.229 6.268503.334 10.008503.142 4.988.262 9.977.411 14.965.083 2.786.212 5.571.306 8.356.02.591 1.256092 1.73707 1.900092 1.86207 1.284871.22098 2.383725.38395 5.154727.69595 5.12.576 11.61312.48198 16.75012.22198 9.355-.475 14.57865-1.12492 23.39465-4.42592 3.795-1.42 8.5551-2.99198 11.8691-5.34298 3.639-2.581 7.99511-4.94094 10.14111-8.89594 3.147-5.801 5.00804-12.716401 3.71804-19.124401-.939-4.661-3.3893-10.57329-5.8533-14.60729-2.691-4.407-7.453-8.480879-11.037-12.191879-7.763-8.03807-14.35594-13.209102-23.90694-18.929102-11.375-6.814-24.8738-11.150398-37.4788-15.283398-9.225-3.025-18.617-5.348-28.208-6.826-5.515-.849-7.384721-1.240363-12.974721-1.348363-1.172-.022-5.063186-.234546-6.235186-.240546-5.215-.032-7.329086.05791-12.516086.610909-1.608.172-3.2.443-4.754.89-.558.16-1.11.394-1.61.687-1.172728 3.046095 5.244283 3.691913 5.993283 4.295913.45.363.995.61 1.497.91 1.177.704 1.661 1.414 1.433 2.215-.293 1.029-1.194 1.202-2.075 1.36-2.344.422-7.770914.213909-10.082914-.347091-.559-.136-4.338006-1.507184-4.843006-1.794184-.962-.548-2.697275-2.002365-2.775275-3.109365-.085-1.199.611819-3.151001 1.145819-4.231001.426-.859.643818-1.225726 1.068181-2.227909.792-.869 1.739546-2.32791 2.481546-3.23491 1.504652-1.504652 3.688999-2.357816 6.505999-3.096816 3.058-.802 4.32736-1.592637 7.46036-1.966637 7.22-.862 14.468-1.349 21.744-1.361 5.442-.009 10.846.465 16.239 1.16 10.23 1.319 20.177 3.816 29.921 7.152 14.516 4.97 28.226 11.625 41.007 20.104 9.258 6.142 17.984 12.981 25.689 21.041 5.453 5.703 10.354 11.818 14.039 18.837 2.021 3.853 3.602 7.867 4.371 12.174.989 5.538.543 10.972-1.167 16.306-1.871 5.839-3.59609 9.85536-7.84309 14.25336-.968 1-3.30759 4.45478-5.347 5.70719zm-91.561363-6.8782c.322-.373.111682-.97409.113682-1.39909.022-7.041-.043-12.24336.177-19.28336.078-2.492001.07-4.987001.098-7.480001.007-.586.016-1.174 0-1.761-.028-1.064-.13-1.145-1.121-1.086-4.39.26-9.140032 1.650096-13.512032 2.144096-3.937.445-5.648633 1.043925-9.510633 1.919925-2.215.503-3.14889 1.096534-5.21489 2.069534-1 .472-1.644434 1.114626-2.429434 1.903626-.518255.89764-1.002036 1.58721-.120036 3.02821.616 1.008 1.182783 1.68589 1.998783 2.53489 2.349 2.448 4.867987 5.02744 7.651987 6.94444 7.409 5.099 9.392344 6.87956 17.656253 11.04919.464.174 3.66032-.42146 4.21232-.58446z"/></g><g clip-rule="evenodd" fill="#282828" fill-rule="evenodd" transform="matrix(2.3432717 0 0 2.3432717 -30.054813 -30.630952)"><path d="m385.98188 160.84596c-.092.112-.231.209-.269.336-1.492 5.059-3.46 9.982-4.328 15.22-.336 2.022-.701 4.043-1.112 6.053-.176.855-.479 1.688-.777 2.514-.254.704-.827.972-1.561.985-.676.014-1.307-.141-1.934-.367-1.328-.479-2.526-1.199-3.583-2.117-2.67-2.316-4.548-5.145-5.448-8.602-.263-1.01-.337-2.02-.36-3.049-.091-3.979.456-7.898 1.125-11.804.148-.87.307-1.731.301-2.615.623-1.349.704-2.83 1.03-4.251 1.951-8.512 4.467-16.865 7.088-25.189.022-.069.055-.136.076-.206.382-1.264.891-2.506 1.109-3.797.23-1.366-.769-2.472-1.2-3.696-1.969-5.589-2.012-11.205-.481-16.882 1.447-5.365002 3.873-10.281002 6.825-14.956002 2.633-4.171 5.642-8.053 9.062-11.608.659-.686 1.366-1.337 2.119-1.92.892-.692 1.818-.52 2.464.405.247.354.431.769.57 1.181.688 2.043.562 4.058-.381 5.988-.676 1.382-1.428 2.729-2.178 4.074-2.463 4.42-4.989 8.809-7.098 13.416-.762 1.665002-1.456 3.361002-1.919 5.145002-.429 1.65-.242 3.188.588 4.659.725-.055.948-.673 1.301-1.112 4.838-6.007 9.892-11.822002 15.396-17.230002 3.352-3.295 6.838-6.445 10.792-9.026 1.414-.922 2.88-1.738 4.482-2.313 2.046-.734 4.024-.646 5.986.255 2.264 1.039 4.021 2.68 5.462 4.669 1.844 2.546 2.841 5.447 3.409 8.507.943 5.079.737 10.076002-1.119 14.947002-.812 2.132-1.805 4.176-3.037 6.095-5.873 9.137-13.809 15.697-24.167 19.17-3.152 1.057-6.423 1.495-9.751 1.432-1.385-.026-1.387-.031-1.746 1.32-.565 2.126-1.098 4.262-1.699 6.377-1.541 5.433-3.105 10.858-4.679 16.28-.163.567-.37 1.114-.358 1.712zm14.065-41.084c1.183.22 2.129.113 3.063-.073 6.803-1.349 12.44-4.707 16.964-9.936 1.846-2.132 3.233-4.537 4.044-7.258.77-2.586002.931-5.189002.332-7.832002-.182-.8-.46-1.551-.979-2.189-1.015-1.25-2.345-1.507-3.688-.64-.673.434-1.29.973-1.869 1.529-2.183 2.098-3.976 4.522-5.716 6.981002-4.203 5.939-7.999 12.137-11.64 18.432-.142.245-.262.502-.511.986z"/><path d="m251.33946 76.122452c4.072-.041 6.78481.63991 10.58481 1.10591 1.678.207 3.70773 1.528638 5.33573 1.982638 1.064.296 2.067.749 2.998 1.354 2.164 1.407 2.321 4.162.092 5.646-.864.576-1.786 1.003-2.76 1.345-2.65.931-5.77773 1.219909-8.54473 1.546909-3.934.466-7.51627.910091-11.47227 1.161091-5.05.321-8.05272.183272-13.07372.884272-1.893.264-5.60764.514455-7.40864 1.183455-.696.258-3.9251.787636-4.4351 1.349636-.626.69-.41591 1.111818.38509 1.511818.585.292 4.37446.177272 5.01146.312272 1.435.304 4.496.61 5.952.758 3.13574.06882 4.66046.582454 8.24446.866454 4.025.32 9.29927 1.303911 13.27727 2.017911 3.259.585 5.11518 1.718182 8.08118 3.264182 2.81 2.21418 6.244 6.87136 6.526 12.69736.307 6.363-1.17264 10.12737-6.12864 13.81637-3.244 2.413-8.81764 3.767-12.75464 4.462-7.922 1.398-12.47645.1249-20.35154-1.10791-3.981-1.204-7.74409-2.08337-10.81709-4.93537-1.136-1.054-3.41782-2.98845-4.28082-4.27445-2.764-4.125-3.38318-8.64664.24482-11.52464 2.131-1.689 4.94272-3.79172 7.57272-4.26972 1.879-.343 5.10083-.71464 7.01983-.58364 5.5.376-3.71368-1.41323 15.99681 2.92827 1.57696.34735 3.39819.53027 4.81619 1.32927.51.288 1.00116.34681 2.06136 1.02955 2.83718 1.82706 1.62718 2.46555.56218 3.74855-.523.63-4.69719 1.72636-5.41919 2.08736-3.32018.41182-4.68454.33436-6.51408-.11464-2.118-.283-4.141-.969-6.138-1.709-1.925-.714-3.844-1.446-5.756-2.197-1.168-.459-2.07182-.63736-3.30782-.76136-2.4-.24-4.40691.68873-5.82491 2.83673-1.083 1.642-.79209 3.08172.85991 4.15172.744.482 2.00427 1.27428 2.86927 1.45428 1.292.268 2.59.63009 3.917.72009 3.539.241 6.16046.40582 9.65546-.0382 4.515-.573 7.15836-1.65119 11.53636-2.92619 2.184-.637 4.70273-1.88582 6.68573-3.04282.961-.561 2.22072-1.48818 2.88072-2.39818 1.044-1.441 1.41583-2.95227.4511-4.26491-1.054-.818-2.19246-1.86682-3.42846-2.33882-3.235-1.235-6.88718-1.27554-10.27918-1.92554-5.72055-.42009-8.932-.30336-14.664-.33936-3.233-.021-6.37745.32036-9.56445-.24964-1.744-.312-5.76946-1.93318-7.34046-2.77718-2.703-1.45-4.43173-2.688365-4.56473-5.725365-.213-4.897 1.26209-8.627 5.08009-11.509 2.611-1.971 6.30346-3.92891 9.38746-4.92491 4.487-1.45 7.64109-2.530182 12.32509-3.015182 3.876-.401 8.79064-.676091 12.43264-.598091z"/><path d="m272.44081 121.61603c.076-4.121.14896-8.41102.71496-12.48002.708-5.089 1.51304-12.671014 2.88404-17.630014.606-2.194 1.318-4.353 2.267-6.424.551-1.204 1.177-2.368 2.065-3.367 1.557-1.752 3.09-2.008 5.073-.817 1.074.645 4.74119 3.889004 5.63019 4.770004 2.145 2.124 4.017 4.479 5.843 6.874 3.474 4.556 4.0439 9.26945 7.2709 13.99945 1.034 1.516 2.082 3.022 3.138 4.523.422.6.865 1.187 1.333 1.753.456.551 1.24173 2.34055 1.99773 2.16855.983-.224.53118-4.17628.64618-5.03228.286-2.126-.70454-5.27863-1.09954-7.38563-.96-5.128004-1.75955-10.032459-3.23255-15.026459-1.225-4.149-3.28545-8.344545-4.20845-12.575545-.234-1.074-.413-2.163-.549-3.253-.13-1.031.021-2.058.331-3.044.343-1.091 1.028-1.51 2.181-1.419 1.138.09 3.52354 3.176868 4.42854 3.822868 1.57 1.119 2.22594 4.300156 3.40794 5.808156 2.093 2.669 3.95361 7.132622 5.43061 10.172622 3.228 6.642 3.1184 9.889639 4.1824 17.206638.871 5.998.45754 9.69188-.45146 15.0027-.94 2.088-1.24816 4.60351-2.71162 6.74979-1.451 1.609-1.97604 4.06964-4.11504 4.63364-1.964.518-3.41873 1.87577-5.08673.64977-1.551-1.14-2.74091-1.46136-3.99891-2.90136-2.467-2.828-4.09418-4.57618-6.15618-7.70218-2.183-3.307-3.13127-4.8879-4.63236-8.28345-.641-.984-2.55228-4.01528-3.24328-4.96328-.387-.532-1.26927-2.79709-1.73327-3.26409-.53-.89138-4.10005-10.993539-4.48514-.2619.028.77801-.075 2.78113-.18698 3.42813-.047 2.91201-.043 4.43389-.18698 7.28989-.192 3.808-.012 7.52499-.57198 11.30599-.226 1.519-.47899 3.23002-.82799 4.72902-.131.564-1.00305 1.31801-1.25005 1.84901-1.417 2.52794-3.34791 2.52788-4.15474 1.84203-.984-.831-3.17913-1.58698-3.59313-2.77998-.507-1.459-1.9721-2.34494-2.0581-3.89194-.084-1.54-.23001-4.53613-.29101-6.07613z"/><path d="m354.43063 109.13089c-2.495.077-4.991.236-7.484.205-2.341-.029-3.657 1.071-4.351 3.225-.564 1.751-1.066 3.513-1.323 5.333-.112.792-.092 1.611-.064 2.415.017.495.364.818.866.815.88-.004 1.767-.007 2.636-.124 2.036-.274 4.067-.594 6.094-.936 2.822-.476 5.635-.999 8.457-1.478.723-.124 1.459-.16 2.19-.236 3.11-.323 5.36 1.132 7.146 3.498.304.402.539.882.697 1.362.292.893.168 1.726-.515 2.448-.963 1.019-2.021 1.923-3.153 2.744-4.43 3.217-9.259 5.656-14.456 7.366-3.57 1.176-7.225 1.912-10.986 2.138-4.868.293-8.514-1.73-11.163-5.725-1.441-2.172-2.348-4.569-2.785-7.125-.323-1.894-.24-3.781.261-5.674.732-2.77 1.662-5.473 2.537-8.195.247-.767.456-1.549.739-2.303.278-.738.238-1.43-.105-2.123-.13-.263-.269-.522-.39-.789-.788-1.729-.547-3.013.839-4.368.854-.833 1.903-1.372 2.971-1.865 3.016-1.393 2.738-1.019 3.692-4.395.359-1.267.599-2.569.858-3.862.111-.557-.102-1.003-.642-1.266-.792-.385-1.575-.788-2.367-1.17-1.321-.64-2.667-1.236-3.833-2.15-.875-.687-1.657-1.447-2.04-2.537-.424-1.207-.178-2.168.895-2.884.603-.401 1.29-.694 1.969-.958 1.791-.693 3.678-.994 5.565-1.281 3.922-.599 7.879-.858 11.827-1.2 4.313-.373 8.632-.693 12.946-1.062 5.595-.478 9.962 1.846 13.583 5.899.194.218.361.463.524.708 1.253 1.867 1.112 3.17-.592 4.62-1.146.974-2.5 1.511-4.019 1.604-2.197.134-4.391.328-6.588.414-4.035.159-8.06.436-12.068.92-3.102.373-3.337.502-4.084 3.862-.189.852-.289 1.747-.257 2.616.033.908.312 1.38 1.268 1.51.944.128 1.885.328 2.833.381 3.002.167 6.008.28 9.012.414.22.01.44.026.66.038 2.504.136 3.857 1.451 4.087 3.97.234 2.578-.975 4.399-3.313 4.973-1.296.319-2.627.231-3.944.274-1.541.051-3.084.012-4.627.012-.001-.019-.002-.039-.003-.058z"/><path d="m199.53504 69.586c-2.046-.021-4.889-.326-7.674-1.042-.789-.203-1.351-.171-1.842.616-.865 1.384-2.216 2.107-3.804 2.383-1.918.333-3.242-.385-4.114-2.16-.764-1.555-.818-3.259-1.079-4.921-.034-.216-.022-.44-.015-.661.029-.994-.321-1.807-.933-2.612-1.437-1.892-2.357-4.039-2.854-6.375-.66-3.107-.455-6.109.796-9.054 1.754-4.129 4.358-7.643 7.649-10.648 6.265-5.722 13.625-9.122 22.059-10.051 2.911-.321 5.859-.418 8.765.281 3.438.828 6.407 2.528 9.01 4.865.747.671 1.54 1.073 2.495 1.23 1.456.241 2.855.659 4.196 1.279 2.848 1.314 4.393 3.531 4.737 6.647.369 3.337-.423 6.404-1.998 9.315-1.481 2.736-3.39 5.161-5.599 7.325-5.749 5.632-12.384 9.856-20.079 12.331-3.132 1.009-5.723 1.359-9.716 1.252zm-4.223-11.57c2.888.964 5.583 1.192 8.279 1.047 4.761-.253 9.183-1.826 13.454-3.848 2.732-1.294 5.303-2.841 7.541-4.902.979-.901 1.843-1.894 2.531-3.031.698-1.153 1.083-2.392 1.062-3.76-.052-3.392-2.588-5.561-5.984-5.105-3.145.422-5.853 1.9-8.424 3.612-4.345 2.893-8.437 6.121-12.258 9.683-2.089 1.945-4.203 3.866-6.201 6.304zm-8.5375-7.24259c.477-.449.701-.635.896-.847 4.342-4.707 5.52521-7.336017 10.75534-11.283836.319-.203 1.04319-1.153764 1.03519-1.711764-3.76059 1.201728-4.05067 1.644099-7.40367 3.986099-1.822 1.273-3.26345 3.251501-4.39545 5.178501-.802 1.367-1.35541 2.8-.88741 4.678z" fill="#282828"/><path d="m203.7568 121.62c.004 2.864-.104 5.718-.419 8.566-.13 1.174-.373 2.314-.804 3.413-.596 1.515-1.718 2.352-3.339 2.444-1.024.059-2.055.063-3.08.019-2.158-.094-3.741-1.125-4.765-3.031-.99-1.843-1.383-3.856-1.67-5.893-.4-2.835-.562-5.689-.526-8.555.058-4.694.002-9.393.193-14.081.233-5.708.497-11.423 1.578-17.06.318-1.659.69-3.303 1.323-4.871.299-.743.649-1.487 1.104-2.142 1.235-1.777 3.311-2.003 4.975-.599.865.731 1.391 1.701 1.801 2.727.685 1.708 1.1 3.492 1.426 5.299.6 3.323.926 6.682 1.176 10.044.373 5.044.62 10.096.724 15.154.058 2.858.199 5.712.303 8.566z" fill="#282828"/><path d="m170.14791 129.80655c-2.174 1.614-2.92118 2.11272-5.20218 3.58472-6.147 3.964-12.70509 5.45745-19.72109 7.47545-5.00212 1.483-11.15712 1.36189-16.71272 1.75996-4.81.492-8.29008.29936-13.12708-.0136-1.972-.128-4.38285-.45123-6.21776-.69541-1.48255-.11527-3.42908.0308-4.87708-.19715-3.41-.535-4.21623.23992-7.565229-.60108-.824-.207-.98356 1.0616-1.16656 1.8846-.224 1.006-.492 1.991-.943 2.922-1.205 2.484-2.642919 2.87072-5.410919 2.91172-.661.01-3.288443-.41564-3.943443-.48264-2.413-.249-2.876638.0119-4.123638-2.12008-.866-1.48-1.336-3.097-1.591-4.772-.22-1.449-.365-2.912-.486-4.373-.048-.583-.267-.901-.802-1.158-.778975-2.20301-7.331962-5.76655-10.238146-6.99496-7.208-3.878-10.804035-7.54981-16.835035-13.10081-2.814-2.59-5.028246-4.59818-7.339246-7.65618-1.021-1.351-2.793161-2.93243-3.825815-4.12676-.409-.774-1.3842-2.24668-1.6842-3.07168-.550162-2.053233-.608-3.835118.97-6.033118.994-1.384 1.457181-2.129246 2.782181-3.188246 2.716-2.169 4.37105-3.357246 7.51605-4.799246 6.574-3.013 13.476-4.99 20.533-6.46 1.867-.389 3.754-.683 5.633-1.012.572-.1 3.731732-.36 3.746732-.996.018-.733.059-1.467.099-2.2.34-6.161 1.521278-10.871427 2.010731-17.494791.03182-2.021365.838334-6.612138 1.402334-7.970138.34-.821.825757-1.507087 1.442757-2.154087 1.113-1.167 5.342456 1.085743 6.696456 1.962743.82.531 1.766728 1.655727 2.261728 2.482727.836 1.398 1.221908 3.658456 1.662908 5.213456.863 3.044 1.123818 5.49009 1.427818 8.63509.319 3.285.536 6.581.792 9.872.083 1.077.089 1.098 1.138 1.13 3.887996.118 7.779996.133 11.659996.37 7.709.471 15.30228 2.156961 22.67528 4.604961 3.075 1.02 5.81068 2.21956 8.54168 3.98356 2.177 1.405 3.59792 2.537919 5.10592 4.668919 1.161 1.641 2.43064 4.260841 2.72364 6.263841.448 3.060999-.55376 4.663679-2.43376 7.126679-1.443 1.89-3.06584 3.74976-5.12784 4.94776-.656.381-.79892.55828-1.56092.50528-2.13417.26413-3.37272.27027-5.26372.0403-2.547-.312-9.44673-2.23857-8.65029-3.87937.46712-.35084 3.01759-1.5267 3.78359-2.3177.665-.687 2.30244-1.62432 2.63244-2.55832.8236-.66408 1.47192-4.013724 1.05092-4.492724-.541-.617-4.16608-1.225925-5.49168-1.53216-1.68966-.210511-3.23078-.628986-5.15412-.992399-6.34627-1.304903-11.66156-2.011838-18.19156-2.595838-3.595-.321-5.160839-.319422-8.757839-.332422-.366-.002-.734.007-1.099.041-.324.03-.551.226-.567.557-.034.732-.065 1.467-.045 2.2.103 3.741.229 6.268503.334 10.008503.142 4.988.262 9.977.411 14.965.083 2.786.212 5.571.306 8.356.02.591 1.256092 1.73707 1.900092 1.86207 1.284871.22098 2.383725.38395 5.154727.69595 5.12.576 11.61312.48198 16.75012.22198 9.355-.475 14.57865-1.12492 23.39465-4.42592 3.795-1.42 8.5551-2.99198 11.8691-5.34298 3.639-2.581 7.99511-4.94094 10.14111-8.89594 3.147-5.801 5.00804-12.716401 3.71804-19.124401-.939-4.661-3.3893-10.57329-5.8533-14.60729-2.691-4.407-7.453-8.480879-11.037-12.191879-7.763-8.03807-14.35594-13.209102-23.90694-18.929102-11.375-6.814-24.8738-11.150398-37.4788-15.283398-9.225-3.025-18.617-5.348-28.208-6.826-5.515-.849-7.384721-1.240363-12.974721-1.348363-1.172-.022-5.063186-.234546-6.235186-.240546-5.215-.032-7.329086.05791-12.516086.610909-1.608.172-3.2.443-4.754.89-.558.16-1.11.394-1.61.687-1.172728 3.046095 5.244283 3.691913 5.993283 4.295913.45.363.995.61 1.497.91 1.177.704 1.661 1.414 1.433 2.215-.293 1.029-1.194 1.202-2.075 1.36-2.344.422-7.770914.213909-10.082914-.347091-.559-.136-4.338006-1.507184-4.843006-1.794184-.962-.548-2.697275-2.002365-2.775275-3.109365-.085-1.199.611819-3.151001 1.145819-4.231001.426-.859.643818-1.225726 1.068181-2.227909.792-.869 1.739546-2.32791 2.481546-3.23491 1.504652-1.504652 3.688999-2.357816 6.505999-3.096816 3.058-.802 4.32736-1.592637 7.46036-1.966637 7.22-.862 14.468-1.349 21.744-1.361 5.442-.009 10.846.465 16.239 1.16 10.23 1.319 20.177 3.816 29.921 7.152 14.516 4.97 28.226 11.625 41.007 20.104 9.258 6.142 17.984 12.981 25.689 21.041 5.453 5.703 10.354 11.818 14.039 18.837 2.021 3.853 3.602 7.867 4.371 12.174.989 5.538.543 10.972-1.167 16.306-1.871 5.839-3.59609 9.85536-7.84309 14.25336-.968 1-3.30759 4.45478-5.347 5.70719zm-91.561363-6.8782c.322-.373.111682-.97409.113682-1.39909.022-7.041-.043-12.24336.177-19.28336.078-2.492001.07-4.987001.098-7.480001.007-.586.016-1.174 0-1.761-.028-1.064-.13-1.145-1.121-1.086-4.39.26-9.140032 1.650096-13.512032 2.144096-3.937.445-5.648633 1.043925-9.510633 1.919925-2.215.503-3.14889 1.096534-5.21489 2.069534-1 .472-1.644434 1.114626-2.429434 1.903626-.518255.89764-1.002036 1.58721-.120036 3.02821.616 1.008 1.182783 1.68589 1.998783 2.53489 2.349 2.448 4.867987 5.02744 7.651987 6.94444 7.409 5.099 9.392344 6.87956 17.656253 11.04919.464.174 3.66032-.42146 4.21232-.58446z"/></g><path d="m1789.965 414.07885h105.0007v-89.9957h104.9552v89.9957h105.0006v97.49816h-105.0006v97.4527h-104.9552v-97.4527h-105.0083v-97.4868z" fill="#282828" stroke-width="2.357385"/></svg>