<svg height="137.73pt" viewBox="0 0 595.84033 137.73" width="595.84033pt" xmlns="http://www.w3.org/2000/svg"><g fill="#bc0e0f"><path d="m277.4593 2.63018-52.08955.5303157-16.75962 7.3695843-11.39763 39.251915-16.39338-46.331495-51.46875.48046v-.001l-9.75 6.99023 2.90918 122.40088 10.70068 2.77002 150.11865.12891zm-71.58252 71.63965.0322.0879v.003z"/><path d="m367.99116 2.53981-36.44092.041-25.98926 7.80908-24.5039 74.15771 2.27344 51.67237 3.98998.25077 137.97096.0393z"/><path d="m489.05922-.000467-84.06885 7.46045 35.19873 60.3999-22.73731 50.327637 7.29053 17.04199 69.99755 2.50049 101.09911-1.3711-39.65918-70.620107 27.18023-62.3291z"/></g><path d="m404.99037 7.46 84.07-7.46 36.30976 67.41025-30.62976 70.31975-69.99774-2.50025-7.29-17.0415 22.73774-50.32825z" fill="#7b0012"/><path d="m54.94376 134.35551c48.58645 0 66.11489-25.2746 66.11489-68.28989.8569-34.83152-23.36689-64.500675-61.46091-63.947755h-59.59774v132.229785h54.94113z" fill="#bc0e0f" fill-rule="evenodd" stroke-width="2.620487"/><g fill="#7b0012"><path d="m208.61037 10.53 16.75938-7.3695043-19.45938 71.1995043-8.69787-24.578005z"/><path d="m119.60037 10.92 9.75-6.99 3.86 132.16-10.7-2.77z"/><path d="m305.56037 10.39 25.99-7.81-44.22987 133.89074-3.99013-.25074-2.27329-51.67296z"/></g></svg>