<?xml version="1.0" encoding="UTF-8" standalone="no"?>
<svg
   xmlns:dc="http://purl.org/dc/elements/1.1/"
   xmlns:cc="http://creativecommons.org/ns#"
   xmlns:rdf="http://www.w3.org/1999/02/22-rdf-syntax-ns#"
   xmlns:svg="http://www.w3.org/2000/svg"
   xmlns="http://www.w3.org/2000/svg"
   xmlns:sodipodi="http://sodipodi.sourceforge.net/DTD/sodipodi-0.dtd"
   xmlns:inkscape="http://www.inkscape.org/namespaces/inkscape"
   width="711.21973pt"
   height="137.73076pt"
   viewBox="0 0 711.21973 137.73076"
   version="1.1"
   id="svg21"
   sodipodi:docname="DMAX Plus 1.svg"
   inkscape:version="0.92.0 r15299">
  <metadata
     id="metadata27">
    <rdf:RDF>
      <cc:Work
         rdf:about="">
        <dc:format>image/svg+xml</dc:format>
        <dc:type
           rdf:resource="http://purl.org/dc/dcmitype/StillImage" />
        <dc:title />
      </cc:Work>
    </rdf:RDF>
  </metadata>
  <defs
     id="defs25" />
  <sodipodi:namedview
     pagecolor="#ffffff"
     bordercolor="#666666"
     borderopacity="1"
     objecttolerance="10"
     gridtolerance="10"
     guidetolerance="10"
     inkscape:pageopacity="0"
     inkscape:pageshadow="2"
     inkscape:window-width="1920"
     inkscape:window-height="1017"
     id="namedview23"
     showgrid="false"
     fit-margin-top="0"
     fit-margin-left="0"
     fit-margin-right="0"
     fit-margin-bottom="0"
     inkscape:zoom="1"
     inkscape:cx="480.95386"
     inkscape:cy="157.67562"
     inkscape:window-x="-8"
     inkscape:window-y="-8"
     inkscape:window-maximized="1"
     inkscape:current-layer="svg21" />
  <g
     id="#ffffffff"
     transform="matrix(1.000002,0,0,1.000002,-175.07999,-89.149715)" />
  <g
     id="g4535"
     transform="translate(276.70749,454.04023)">
    <path
       sodipodi:nodetypes="cccccccccccccccc"
       inkscape:connector-curvature="0"
       id="path7-8-1"
       d="m 0.75301392,-451.40931 -52.08954992,0.53032 -16.75963,7.36958 -11.39763,39.25192 -16.39338,-46.3315 -51.468754,0.48046 v -0.001 l -9.75,6.99023 2.90918,122.40089 10.70068,2.77002 150.1186639,0.12891 z m -71.58251992,71.63966 0.0322,0.0879 v 0.003 z"
       style="opacity:1;fill:#bc0e0f;fill-opacity:1;stroke-width:1" />
    <path
       sodipodi:nodetypes="cccccccc"
       inkscape:connector-curvature="0"
       id="path5-2-3"
       d="m 91.284874,-451.49968 -36.44092,0.041 -25.98926,7.80908 -24.5039001,74.15772 2.27344,51.67237 3.9899801,0.25077 137.970966,0.0393 z"
       style="opacity:1;fill:#bc0e0f;fill-opacity:1;stroke-width:1" />
    <path
       inkscape:connector-curvature="0"
       id="path3-1-8"
       d="m 212.35294,-454.03996 -84.06885,7.46046 35.19873,60.3999 -22.73731,50.32763 7.29053,17.042 69.99755,2.50049 101.09912,-1.3711 -39.65918,-70.62011 27.18023,-62.3291 z"
       style="opacity:1;fill:#bc0e0f;fill-opacity:1;stroke-width:1" />
    <path
       d="m 128.28409,-446.57949 84.07001,-7.46 36.30976,67.41026 -30.62976,70.31975 -69.99775,-2.50025 -7.29,-17.04151 22.73774,-50.32824 z"
       id="path3-6"
       inkscape:connector-curvature="0"
       style="opacity:1;fill:#7b0012;stroke-width:1"
       sodipodi:nodetypes="cccccccc" />
    <path
       sodipodi:nodetypes="ccccccc"
       id="path2-1"
       d="m -221.76254,-319.68397 c 48.58645,0 66.11489,-25.27461 66.11489,-68.28989 0.8569,-34.83153 -23.36689,-64.50068 -61.46091,-63.94776 h -59.59775 v 132.22979 h 54.94114 z"
       style="fill:#bc0e0f;fill-opacity:1;fill-rule:evenodd;stroke-width:2.62048721"
       inkscape:connector-curvature="0" />
    <path
       d="m -68.095926,-443.50949 16.75939,-7.3695 -19.45939,71.19951 -8.69787,-24.57801 z"
       id="path7-7"
       inkscape:connector-curvature="0"
       style="opacity:1;fill:#7b0012;stroke-width:1"
       sodipodi:nodetypes="ccccc" />
    <path
       d="m -157.10593,-443.11949 9.75,-6.99 3.86,132.16001 -10.7,-2.77 z"
       id="path9-4"
       inkscape:connector-curvature="0"
       style="opacity:1;fill:#7b0012;stroke-width:1"
       sodipodi:nodetypes="ccccc" />
    <path
       d="m 28.854084,-443.64949 25.99,-7.81 -44.22987,133.89075 -3.9901301,-0.25074 -2.27329,-51.67297 z"
       id="path5-7"
       inkscape:connector-curvature="0"
       style="opacity:1;fill:#7b0012;stroke-width:1"
       sodipodi:nodetypes="cccccc" />
  </g>
  <flowRoot
     xml:space="preserve"
     id="flowRoot4643"
     style="font-style:normal;font-variant:normal;font-weight:normal;font-stretch:normal;font-size:40px;line-height:25px;font-family:Verdana;-inkscape-font-specification:Verdana;letter-spacing:0px;word-spacing:0px;fill:#000000;fill-opacity:1;stroke:none;stroke-width:1px;stroke-linecap:butt;stroke-linejoin:miter;stroke-opacity:1"
     transform="matrix(0.75000002,0,0,0.75000002,0,-8.00144e-6)"><flowRegion
       id="flowRegion4645"
       style="font-style:normal;font-variant:normal;font-weight:normal;font-stretch:normal;font-family:Verdana;-inkscape-font-specification:Verdana"><rect
         id="rect4647"
         width="246"
         height="168"
         x="377"
         y="-305.35898"
         style="font-style:normal;font-variant:normal;font-weight:normal;font-stretch:normal;font-family:Verdana;-inkscape-font-specification:Verdana" /></flowRegion><flowPara
       id="flowPara4649" /></flowRoot>  <g
     aria-label="+1"
     transform="matrix(2.322015,0,0,2.322015,324.15071,971.17177)"
     style="font-style:normal;font-weight:normal;font-size:40px;line-height:25px;font-family:sans-serif;letter-spacing:0px;word-spacing:0px;fill:#bc0e0f;fill-opacity:1;stroke:none;stroke-width:1px;stroke-linecap:butt;stroke-linejoin:miter;stroke-opacity:1"
     id="flowRoot4660">
    <path
       d="m 141.05078,-384.09426 h -7.51953 v 7.51953 h -3.94531 v -7.51953 h -7.5586 v -3.96484 h 7.5586 v -7.5586 h 3.94531 v 7.5586 h 7.51953 z"
       style="font-style:normal;font-variant:normal;font-weight:bold;font-stretch:normal;font-family:'Microsoft Tai Le';-inkscape-font-specification:'Microsoft Tai Le Bold';fill:#bc0e0f;fill-opacity:1"
       id="path4668"
       inkscape:connector-curvature="0" />
    <path
       d="m 166.69531,-374.6216 h -17.71484 v -4.88281 h 5.80078 v -17.44141 l -5.95703,1.28906 v -5 l 12.10937,-2.4414 v 23.59375 h 5.76172 z"
       style="font-style:normal;font-variant:normal;font-weight:bold;font-stretch:normal;font-family:'Microsoft Tai Le';-inkscape-font-specification:'Microsoft Tai Le Bold';fill:#bc0e0f;fill-opacity:1"
       id="path4670"
       inkscape:connector-curvature="0" />
  </g>
</svg>
