<?xml version="1.0" encoding="UTF-8"?>
<!-- Created with Inkscape (http://www.inkscape.org/) -->
<svg id="svg4538" width="252.67mm" height="48.772mm" version="1.1" viewBox="0 0 252.67 48.772" xmlns="http://www.w3.org/2000/svg" xmlns:cc="http://creativecommons.org/ns#" xmlns:dc="http://purl.org/dc/elements/1.1/" xmlns:rdf="http://www.w3.org/1999/02/22-rdf-syntax-ns#">
 <metadata id="metadata4535">
  <rdf:RDF>
   <cc:Work rdf:about="">
    <dc:format>image/svg+xml</dc:format>
    <dc:type rdf:resource="http://purl.org/dc/dcmitype/StillImage"/>
    <dc:title/>
   </cc:Work>
  </rdf:RDF>
 </metadata>
 <g id="layer1" transform="translate(130.87 -96.477)">
  <g id="g20" transform="matrix(.35278 0 0 .35278 -130.87 96.661)">
   <g id="g10" fill="#4c1315">
    <path id="path2" d="m443.5 67.645-35.403-60.485 83.707-7.6806 95.528 3.4803-27.302 62.345 40.023 70.806-102.07 1.6201-85.447-2.9402z"/>
    <path id="path4" d="m290 136.17 138.91 0.42004-58.325-134.59-35.943 0.12001-26.282 7.5606-41.403 124.21z"/>
    <path id="path6" d="m228.68 2.6597 51.484-0.24002 5.5204 133.75-150.61-0.36003-10.801-2.6402-3.0002-122.59 10.441-7.3206 50.944-0.30003 16.501 47.104 11.581-39.903z"/>
    <path id="path8" d="m2.1014 133.89 56.585 0.06s65.465 5.1004 64.085-67.205c-1.3201-68.226-65.465-65.105-65.465-65.105l-56.525 0.42004-0.78007 7.3806 1.3201 121.81z"/>
   </g>
   <path id="path12" d="m498.04 137.73 31.923-72.606-38.163-65.645 95.528 3.5403-27.302 62.285 40.023 70.806z" fill="#bc2026"/>
   <path id="path14" d="m290 136.17 44.644-134.05 35.943-0.060005 58.325 134.59z" fill="#bc2026"/>
   <path id="path16" d="m135.07 135.87-3.3603-132.55 50.884-0.30003 25.322 72.066 20.762-72.426 51.424-0.24002 5.5804 133.75z" fill="#bc2026"/>
   <path id="path18" d="m0.78126 2.1197 1.3201 131.83h56.585s65.525 5.1004 64.025-67.205c-1.2601-68.226-65.405-65.045-65.405-65.045z" fill="#bc2026"/>
  </g>
  <g id="g26" transform="matrix(.82494 0 0 .82494 -15.712 441.35)" fill="#bc2026">
   <path id="path22" d="m141.05-384.09h-7.5195v7.5195h-3.9453v-7.5195h-7.5586v-3.9648h7.5586v-7.5586h3.9453v7.5586h7.5195z"/>
   <path id="path24" d="m166.7-374.62h-17.715v-4.8828h5.8008v-17.441l-5.957 1.2891v-5l12.109-2.4414v23.594h5.7617z"/>
  </g>
 </g>
</svg>
