<svg height="459.66" width="600" xmlns="http://www.w3.org/2000/svg"><g transform="translate(-15.029576 -57.500541)"><path d="m255.22 57.501-2.0937.0625h-.0937-.0937c-34.301 1.5984-62.975 13.939-85.938 37.25l-.0312.03125-.9375.96875-.15625.15625-.15625.15625-123.75 141.81c-23.713 27.165-26.937 61.701-26.937 79.906 0 .63603-.0011.96859 0 2.6562.0011 1.6877-.0019 4.0792 0 6.9688.0039 5.7791.0261 13.485.03125 21.187.0052 7.7029-.0039 15.406 0 21.187.0039 5.7816.03125 10.482.03125 9.6562 0 20.436 8.1896 39.943 22.906 54.75 13.799 13.935 40.091 29.906 84.875 29.906.6317 0 .30731.0003.90625 0s1.5008.00056 2.625 0c2.2484-.001 5.46.002 9.375 0 7.83-.004 18.416.005 29.437 0 19.879-.009 38.53-.0295 47.656-.0312 3.7015 9.3824 8.2194 17.595 13.844 24.625 14.576 18.22 36.125 28.406 59.812 28.406h65.812c23.688 0 45.237-10.195 59.812-28.437 7.5324-9.4312 13.13-20.95 17.344-34.781 29.023-11.915 46.044-28.086 50.5-50.344 0 0 1.2812-6.0949 1.2812-12.187v-3.5625h80.906c24.664 0 39.247-13.691 45.937-26.75 6.6901-13.059 6.9062-25.937 6.9062-25.937v-.0937-.0937-131.75c0-34.717-14.936-53.824-30.156-62.594-14.767-8.5087-29.288-8.0652-30.156-8.0312h-.3125-120.59c-4.28-17.18-13.13-32.988-25.97-45.827-18.55-18.578-43.4-29.312-68.53-29.312h-83.937-.0937-.0625z" fill="#642f90"/><path d="m255.37 72.626h.15625 83.781c20.794 0 41.986 9.0291 57.812 24.875 12.189 12.189 20.103 27.349 23.125 43.781l.90625-.15625v6.5937h133.56.1875l.15625-.0312s11.127-.39606 22.281 6.0312c11.155 6.4273 22.562 18.853 22.562 49.5v131.56s-.33493 9.8118-5.25 19.406c-4.9151 9.5944-12.98 18.531-32.469 18.531h-96v8.125h-.0312v10.562c0 3.7192-1 9.2187-1 9.2187-3.4869 17.417-15.634 29.522-44.5 40.656l-3.5625 1.375-1.0312 3.6875c-3.9001 14.052-9.058 24.559-15.75 32.937-11.809 14.78-28.534 22.75-47.969 22.75h-65.812c-19.435 0-36.191-7.9891-48-22.75-5.4043-6.7553-9.7664-14.898-13.312-25.187l-1.75-5.0937h-5.4062c-7.0159 0-30.8-.0103-52.844 0-11.022.005-21.607.0274-29.437.0312-3.915.002-7.1578-.001-9.4062 0-1.1242.00056-1.9948-.0003-2.5937 0-.59895.0003-1.5354 0-.90625 0-41.255 0-62.899-14.101-74.125-25.437h-.03125c-12.039-12.113-18.5-27.674-18.5-44.094 0-.85622.0039-3.8746 0-9.6562s-.0261-13.485-.03125-21.187c-.0052-7.7028.0039-15.408 0-21.187-.0019-2.8895.0011-5.3124 0-7s-.03125-3.2507-.03125-2.625c0-16.301 3.3149-47.168 23.219-69.969l123.47-141.47.9375-.96875c20.448-20.758 44.584-31.263 75.656-32.75l1.9375-.0625z" fill="#fff"/><path d="m428.2 330.15c-1.2574-5.3182-6.8023-19.624-30.899-24.2-3.6691-.74207-1.8346-.3092-6.7817-1.6078s-6.555-5.3594-6.555-11.461v-3.5042-132.91c.0412-27.869-24.344-46.173-44.648-46.173h-83.936c-21.623.98943-37.392 7.9773-50.77 21.582l-122.86 140.74c-10.1 11.585-13.914 29.271-13.914 45.225l.04123 61.468c-.12368 16.305 16.346 32.074 55.016 32.074l97.232-.0412h23.231c6.1221 0 10.162 1.7109 11.461 6.658 1.2986 4.9471.90697 3.1126 1.6078 6.8023 5.6686 29.807 15.027 39.557 30.116 39.557h65.797c15.109 0 24.447-9.75 30.116-39.577.6184-3.195 2.453-9.3583 2.453-9.3583.96882-2.453 2.7209-4.102 5.5655-4.8441 4.9471-1.278 3.092-.88636 6.7817-1.5872 25.066-4.7822 30.054-20.077 31.002-24.839.0824-.45349.1649-1.0719.22674-1.8552 0 0 .0824-47.781.0824-47.843 0-2.1025-.20613-3.5248-.35042-4.3081" fill="#642f90"/><path d="m317.69 262.54c0 12.409-7.6474 17.129-15.419 17.129l-71.61-.0412c-7.9773 0-13.234 2.288-15.707 5.009l-11.688 13.357c-3.2775 3.8134-1.278 7.7093 3.2981 7.7093.39165 0 95.727-.0206 95.727-.0206 7.7918 0 15.439 4.638 15.439 17.047v5.38c0 12.409-7.6474 17.129-15.439 17.129 0 0-150.04.0206-152.37.0206-6.9466 0-13.316-3.7104-13.316-12.224 0-5.2769-.0206-6.3488-.0206-12.285 0-9.0285 4.1432-15.439 11.172-22.963l95.521-109.31s10.533-13.131 26.838-13.831c2.2881 0 32.177-.0824 32.177-.0824 7.7918 0 15.439 4.6173 15.439 17.026v5.4831c0 12.409-7.6474 17.129-15.439 17.129l-18.057.0206c-7.6268 0-12.739 2.2056-15.109 4.8028l-11.956 13.749c-3.1538 3.6691-1.2368 7.4001 3.1538 7.4001h41.948c7.7711 0 15.419 4.6173 15.419 17.026v5.3388" fill="#fff"/><g fill="#642f90"><path d="m476.04 295.98c0 6.8229-5.4006 12.409-12.017 12.409h-13.996c-6.5962 0-11.997-5.5862-11.997-12.409v-69.095c0-6.8229 5.4006-12.409 11.997-12.409h13.996c6.6168 0 12.017 5.5862 12.017 12.409z"/><path d="m492.34 242.64c6.5962 0 11.997 5.5861 11.997 12.43v13.234c0 6.8229-5.4006 12.409-11.997 12.409h-70.847c-6.5962 0-11.997-5.5862-11.997-12.409v-13.234c0-6.8435 5.4006-12.43 11.997-12.43z"/><path d="m429.54 242.6s9.1522.98943 9.1522-7.7299c0-8.6987 4.6998 10.925 4.6998 10.925s-8.1009 1.7727-8.4307 1.7727c-.3092 0-5.4212-4.9678-5.4212-4.9678"/><path d="m434.21 275.62c-.32981 0-5.6068 5.112-5.6068 5.112s9.4408-1.0307 9.4408 7.9566 4.8441-11.255 4.8441-11.255-8.3483-1.814-8.6781-1.814"/><path d="m485.2 242.64s-9.1522.98943-9.1522-7.7299c0-8.6987-4.6998 10.925-4.6998 10.925s8.1009 1.7727 8.4101 1.7727c.32981 0 5.4419-4.9678 5.4419-4.9678"/><path d="m479.9 275.62c.32981 0 5.6068 5.112 5.6068 5.112s-9.4202-1.0307-9.4202 7.9566-4.8441-11.255-4.8441-11.255 8.3277-1.814 8.6575-1.814"/><path d="m551.78 340.62h-4.8853c-10.698 0-14.841-7.297-14.841-14.594v-102.69c0-4.5555-1.278-7.8948-5.4419-7.8948h-4.1638c-6.6993 0-11.585-4.3288-11.585-15.975v-3.9371c0-11.626 6.6992-16.161 13.378-16.161h27.354c10.678 0 14.841 7.297 14.841 14.594v132.07c0 7.297-3.9783 14.594-14.656 14.594"/></g><path d="m551.78 340.62h-4.8853c-10.698 0-14.841-7.297-14.841-14.594v-102.69c0-4.5555-1.278-7.8948-5.4419-7.8948h-4.1638c-6.6993 0-11.585-4.3288-11.585-15.975v-3.9371c0-11.626 6.6992-16.161 13.378-16.161h27.354c10.678 0 14.841 7.297 14.841 14.594v132.07c0 7.297-3.9783 14.594-14.656 14.594z" fill="none" stroke="#643091" stroke-width="10.656962"/></g></svg>