<svg height="712.40002" viewBox="0 0 1021.507 712.4" width="1021.507" xmlns="http://www.w3.org/2000/svg" xmlns:xlink="http://www.w3.org/1999/xlink"><mask id="a" height="572.1" maskUnits="userSpaceOnUse" width="858.6" x="-2.9" y="0"><path d="m447.8 128c35.3 0 64-28.7 64-64s-28.6-64-64-64c-35.3 0-64 28.7-64 64s28.6 64 64 64zm398.4-69.2c-148.5 26.3-207.8 88.9-239.5 203.5-27.7 100-72.7 146.4-126.7 148-1 0-2 .1-3.1.1-17.8 0-34.2-7.5-47.1-20.3 30-53.3 46.4-105.6 46.4-137.2 0-18.3-4.6-35.5-13.6-48.6-9.9-14.4-25.2-23.7-45.4-23.7-38.5 0-91.8 51-91.8 135 0 25.6 5.5 51.4 15.6 75-35.8 52.9-99.7 105.8-162.8 105.8-5 0-9.9-.3-14.7-.9 31.8-25.9 67.8-78.4 67.8-127.9 0-.9 0-1.8-.1-2.7-1.3-56.3-43.4-98.4-106-98.4-70.8.1-128.1 62.5-128.1 142.3 0 12.2 1 22.2 2.9 30.3 16.6 85.5 102.7 133 175.3 133 87.1 0 159.6-53.3 211.6-118.2 20.2 17.1 44.7 28.7 72.7 31.9 4.7.6 9.9.9 15.7.9 128.5 0 181.5-118.8 207.1-207.3 12.6-43.6 24.6-71.6 44.5-91.8 23-23.3 56.5-36 113.7-49.9 18.8-16.5 19.4-61.4 5.6-78.9zm-751.6 402.2c-13.2-14.8-21.1-33.4-21.1-54 0-35.2 25-64.1 51.2-64.1 19.8 0 29.2 15.3 29.2 30.6.1 33.5-34.8 69.6-59.3 87.5z" fill="#fff"/><circle cx="447.79999" cy="64" fill="url(#b)" r="64"/><path d="m480 410.3c-1 0-2 .1-3.1.1-41.7 0-92.7 76.3-1.6 76.3 128.5 0 181.5-118.8 207.1-207.3 12.6-43.6 24.6-71.6 44.5-91.8-63.9 62.6-104.4 220.5-246.9 222.7z" fill="url(#c)"/><path d="m204.9 298.4s-29.3-10.2-49.5 10.3-11.6 40.8-11.6 40.8c6.8 5.9 10.2 15 10.2 24.1 0 33.5-34.9 69.6-59.4 87.5 16.5 18.6 41.2 31.2 68.9 34.6.5-.4 1.1-.9 1.6-1.3 9.6-8.1 19.5-18.5 28.7-30.5 20.7-27.2 37.5-62.3 37.5-96.1 0-.9 0-1.8-.1-2.7-.6-26.4-10.1-49.5-26.3-66.7z" fill="url(#d)"/><path d="m386.9 453.9c-19.8-16.8-35.3-38.8-45.8-63.2-29.7 43.8-78.6 87.6-130.3 101.4 3.2 13.8 9.1 26.7 17.8 38.1 8 10.5 17.9 19 29.1 25.6 50.9-20.7 94.6-58.7 129.2-101.9z" fill="url(#e)"/><path d="m462.6 204.3c-33 18.8-61.1 61-61.1 110.5 0 31.4 11 58.1 28.3 75.3 30-53.3 46.4-105.6 46.4-137.2.1-18.3-4.6-35.5-13.6-48.6z" fill="url(#f)"/></mask><radialGradient id="b" cx="486.119177" cy="15.787305" gradientUnits="userSpaceOnUse" r="131.680948"><stop offset=".5" stop-color="#fff"/><stop offset=".5783" stop-color="#fafafa"/><stop offset=".6707" stop-color="#ececed"/><stop offset=".7702" stop-color="#d4d5d6"/><stop offset=".8747" stop-color="#b3b5b6"/><stop offset=".9821" stop-color="#898c8e"/><stop offset=".9997" stop-color="#818587"/></radialGradient><radialGradient id="c" cx="-836.35248" cy="-1030.8013" fx="-841.89398" fy="-1033.9744" gradientTransform="matrix(.822 0 0 .6277 1416.9648 834.3208)" gradientUnits="userSpaceOnUse" r="563.56158"><stop offset=".00290976" stop-color="#909598"/><stop offset=".8" stop-color="#fff"/></radialGradient><radialGradient id="d" cx="-925.3139" cy="473.33881" fx="-931.19373" fy="461.32669" gradientTransform="matrix(.2812 -.7724 1.0428 .3796 -56.8397 -579.6828)" gradientUnits="userSpaceOnUse" r="240.11459"><stop offset=".2" stop-color="#fff"/><stop offset=".374" stop-color="#fcfcfc"/><stop offset=".5138" stop-color="#f2f2f2"/><stop offset=".6417" stop-color="#e1e2e2"/><stop offset=".7625" stop-color="#c9cbcc"/><stop offset=".8783" stop-color="#aaadae"/><stop offset=".9889" stop-color="#85898b"/><stop offset="1" stop-color="#818587"/></radialGradient><radialGradient id="e" cx="-849.88397" cy="346.70959" fx="-849.07922" fy="331.7168" gradientTransform="matrix(.6493 -.5041 .5228 .6734 750.7021 -245.6862)" gradientUnits="userSpaceOnUse" r="212.6169"><stop offset="0" stop-color="#818587"/><stop offset=".7" stop-color="#fff"/></radialGradient><radialGradient id="f" cx="-613.24683" cy="645.82538" fx="-598.4165" fy="647.88452" gradientTransform="matrix(.6978 -.4345 .8512 1.367 328.3261 -939.9333)" gradientUnits="userSpaceOnUse" r="163.2249"><stop offset=".15" stop-color="#fff"/><stop offset=".3349" stop-color="#fcfcfc"/><stop offset=".4834" stop-color="#f2f2f2"/><stop offset=".6193" stop-color="#e1e2e2"/><stop offset=".7476" stop-color="#c9cbcc"/><stop offset=".8707" stop-color="#aaadae"/><stop offset=".9882" stop-color="#85898b"/><stop offset="1" stop-color="#818587"/></radialGradient><g fill="#3bb700"><g mask="url(#a)" transform="translate(2.9)"><path d="m447.8 128c35.3 0 64-28.7 64-64s-28.6-64-64-64c-35.3 0-64 28.7-64 64s28.6 64 64 64zm398.4-69.2c-148.5 26.3-207.8 88.9-239.5 203.5-27.7 100-72.7 146.4-126.7 148-1 0-2 .1-3.1.1-17.8 0-34.2-7.5-47.1-20.3 30-53.3 46.4-105.6 46.4-137.2 0-18.3-4.6-35.5-13.6-48.6-9.9-14.4-25.2-23.7-45.4-23.7-38.5 0-91.8 51-91.8 135 0 25.6 5.5 51.4 15.6 75-35.8 52.9-99.7 105.8-162.8 105.8-5 0-9.9-.3-14.7-.9 31.8-25.9 67.8-78.4 67.8-127.9 0-.9 0-1.8-.1-2.7-1.3-56.3-43.4-98.4-106-98.4-70.8.1-128.1 62.5-128.1 142.3 0 12.2 1 22.2 2.9 30.3 16.6 85.5 102.7 133 175.3 133 87.1 0 159.6-53.3 211.6-118.2 20.2 17.1 44.7 28.7 72.7 31.9 4.7.6 9.9.9 15.7.9 128.5 0 181.5-118.8 207.1-207.3 12.6-43.6 24.6-71.6 44.5-91.8 23-23.3 56.5-36 113.7-49.9 18.8-16.5 19.4-61.4 5.6-78.9zm-751.6 402.2c-13.2-14.8-21.1-33.4-21.1-54 0-35.2 25-64.1 51.2-64.1 19.8 0 29.2 15.3 29.2 30.6.1 33.5-34.8 69.6-59.3 87.5z" fill="#3bb700"/></g><path d="m427 596.4c21.2 4.1 35.4 12.1 35.4 30.8 0 22.2-18.5 37.2-45.2 37.2-24.7 0-47.1-13.2-50-35.2 5.5-4.6 11.7-6.9 19.6-6.9 1.6 0 3.2 0 5 .2 4.8 13.2 13.7 18 27 18 9.6 0 16.7-3.7 16.7-11.9 0-7.8-7.5-11-26.5-14.8-16.4-3.4-34.5-10.5-34.5-31.5 0-20.6 19-32.2 42.5-32.2 20.1 0 33.1 8 41.3 17.6-4.1 9.1-8.5 14.4-16.9 17.4-4.8-7.3-14.4-13.5-24.9-13.5-11.4 0-16.4 4.1-16.4 10.1-.1 6.9 6.8 10.8 26.9 14.7z"/><path d="m469.7 607.8c0-36.8 24.9-57.6 56.7-57.6 32.9 0 57.6 20.3 57.6 57.1 0 37-29 57.1-57.3 57.1-10.3 0-20.8-2.7-27.6-7.3v55.3h-29.2v-104.6zm29.2-3.2v24.4c5.5 5.9 16 10.3 25.8 10.3 18 0 29.9-12.8 29.9-32s-11.4-32-28.6-32c-15.2.1-27.1 10.1-27.1 29.3z"/><path d="m709.1 607.3c0 36.3-28.1 57.1-58.9 57.1s-58.9-20.8-58.9-57.1 28.1-57.1 58.9-57.1 58.9 20.8 58.9 57.1zm-88.6 0c0 18.5 12.1 32 29.7 32s29.7-13.5 29.7-32-12.1-32-29.7-32c-17.6.1-29.7 13.5-29.7 32z"/><path d="m782.9 581.8c-3.2-3.4-8.9-6.4-15.3-6.4-14.8 0-21.9 8.9-21.9 24v62.8h-29.2v-64.4c0-32 22.6-47.5 49.3-47.5 13.5 0 20.8 2.5 27.9 6.6-.5 10-4.7 18.9-10.8 24.9z"/><path d="m838.4 664.5c-23.1 0-38.4-15.8-38.4-42.9v-95.9c8.5-6.6 15.5-10.1 29.2-10.1v37h29.7v22.4h-29.7v48.7c0 11.4 5.7 17.1 14.8 17.1 5.7 0 8.9-1.8 13.9-6.2 6.4 5.3 9.8 11.2 10.3 20.1-8.3 6.8-16.6 9.8-29.8 9.8z"/><path d="m908.8017 485.6091 11.5053-.00008v215.162h-11.505l.0003-215.16207z" stroke-width=".62189"/><path d="m989.9086 502.25103 31.5984-.00001v159.814h-31.549v-123.45807c-6.25 5.93283-14.2715 9.56467-22.5364 11.71641-7.2015-5.92039-10.3358-15.39799-11.5049-24.36564 9.092-3.14054 17.9041-7.51865 25.1056-13.9863 3.3023-2.89801 6.2252-6.21916 8.8869-9.7204z" stroke-width=".62189"/></g></svg>