<svg height="151.37" viewBox="0 0 158.75 40.04874" width="600" xmlns="http://www.w3.org/2000/svg"><g transform="translate(28.734 -268.85)"><path d="m130.02 284.33c0-1.53-1.27-2.77-2.83-2.77h-32.389c-1.563 0-2.829 1.24-2.829 2.77v18.44c0 1.53 1.266 2.78 2.829 2.78h32.389c1.56 0 2.83-1.25 2.83-2.78z" fill="#00adef"/><g fill="#231f20"><path d="m-26.925 292.08h13.164c-.569-3.26-3.337-5.64-6.53-5.64-3.264 0-5.997 2.34-6.634 5.64m-1.809 1.38c0-4.82 3.76-8.72 8.443-8.72 4.47 0 8.021 3.54 8.376 8.09v.14c0 .46-.391.78-.855.78h-14.26c.178 3.8 3.156 6.67 6.739 6.67 2.306 0 4.434-1.21 5.607-3.16.25-.42.782-.5 1.136-.28.391.28.532.77.282 1.2-1.491 2.38-4.078 3.94-7.025 3.94-4.683 0-8.443-3.9-8.443-8.66"/><path d="m17.917 285.59c0 .42-.427.85-.85.85h-2.237v12.67c0 .85.85 1.27 1.277 1.27.428 0 .887.46.887.89 0 .42-.459.85-.887.85-1.737 0-3.051-1.28-3.051-3.01v-12.67h-2.164c-.851 0-.851-.43-.851-.85 0-.43 0-.85.851-.85h2.164v-6.46c0-.43.427-.85.851-.85.463 0 .923.42.923.85v6.46h2.237c.423 0 .85.42.85.85"/><path d="m22.139 285.55c0-.49.39-.85.85-.85.463 0 .854.36.854.85v9.47c0 2.98 2.374 5.36 5.321 5.4 2.978-.04 5.392-2.42 5.392-5.4v-9.47c0-.49.428-.85.851-.85.5 0 .887.36.887.85v9.47c0 3.91-3.156 7.1-7.13 7.1-3.902 0-7.025-3.19-7.025-7.1z"/><path d="m55.346 293.43c0-3.9-2.943-7.03-6.53-7.03-3.547 0-6.529 3.13-6.529 7.03s2.982 6.99 6.529 6.99c3.587 0 6.53-3.09 6.53-6.99m1.704-7.84v15.68c0 .46-.391.85-.854.85-.46 0-.85-.39-.85-.85v-2.59c-1.492 2.06-3.866 3.44-6.53 3.44-4.574 0-8.23-3.94-8.23-8.69s3.656-8.7 8.23-8.7c2.664 0 5.038 1.35 6.53 3.41v-2.55c0-.5.39-.86.85-.86.463 0 .854.36.854.86"/><path d="m62.652 285.62c0-.49.391-.85.887-.85.427 0 .818.36.818.85v3.84c.068-.15.141-.29.246-.43 1.314-2.06 3.619-4.26 6.956-4.26.46 0 .851.36.851.85 0 .46-.391.86-.851.86-2.269 0-3.833 1.27-5.038 2.83-1.173 1.56-1.846 3.34-2.096 4.05-.068.14-.068.21-.068.28v7.63c0 .49-.391.85-.818.85-.496 0-.887-.36-.887-.85z"/><path d="m74.998 285.55c0-.46.391-.82.814-.82.5 0 .891.36.891.82v9.44c0 2.98 2.374 5.36 5.32 5.36 2.982 0 5.356-2.38 5.393-5.36v-9.44c0-.14.036-.32.141-.42 0-.04.036-.07.036-.11.036 0 .036-.04.072-.04.069-.1.214-.17.319-.21h.072c.033 0 .069-.04.105-.04h.214c.141.04.282.11.423.18.073.07.177.18.214.29.072.1.104.24.104.35v15.19c0 4.54-3.687 8.16-8.266 8.16-1.274 0-2.483-.32-3.583-.82-.387-.25-.564-.74-.351-1.13.21-.43.673-.54 1.096-.43.855.43 1.846.67 2.838.67 3.619 0 6.529-2.87 6.566-6.45v-1.14c-1.314 1.49-3.229 2.49-5.393 2.49-3.865-.04-7.025-3.2-7.025-7.1z"/></g><path d="m107.18 287.55h-3.94v13.21c0 .77-.59 1.36-1.36 1.36-.74 0-1.36-.59-1.36-1.36v-13.21h-3.907c-.77 0-1.363-.65-1.363-1.39 0-.76.593-1.36 1.363-1.36h10.567c.74 0 1.36.6 1.36 1.36 0 .74-.62 1.39-1.36 1.39" fill="#fff"/><path d="m118.26 301.87c-.05-.04-.1-.07-.17-.12 0-.03-.03-.03-.03-.07-.04-.06-.1-.1-.12-.15 0 0-.03 0-.03-.03-.02-.05-.07-.15-.12-.19l-6.06-14.45c-.3-.67.03-1.49.74-1.76.67-.3 1.46.02 1.76.72l4.83 11.45 4.82-11.45c.29-.7 1.11-1.02 1.78-.72.69.27 1.01 1.09.74 1.76l-6.11 14.45c-.03.04-.05.14-.1.19 0 .03 0 .03-.02.03-.03.05-.1.09-.13.15-.02.04-.02.04-.05.07-.05.05-.1.08-.14.12l-.05.03c-.05.02-.13.1-.2.12-.02 0-.02 0-.05.03-.08 0-.12.02-.2.05h-.05c-.1.02-.17.02-.24.02-.08 0-.18 0-.25-.02h-.05c-.05-.03-.15-.05-.2-.05 0-.03-.02-.03-.02-.03h-.03c-.05-.02-.15-.1-.22-.15z" fill="#fff"/><path d="m20.421 270.73h-.334c0-.14.076-.21.229-.21h.105zm-1.419.8v-.22h-.129c-.157 0-.233.07-.233.22zm-5.836 3.15c0-.1-.157-.2-.467-.3l-.129.19zm-3.099.49v-.19c-.016-.13-.0928-.19-.2339-.19l-.1008.19v.3c.1532-.07.266-.11.3347-.11m-2.3741 1.4-.2338-.11h-.1289v.3h.1289c.1532-.03.2338-.1.2338-.19m-.7013.49c0-.15.0806-.22.2338-.22v-.08h-.129c-.1532.06-.2741.08-.3627.08v.22zm-2.3981-1.69h-.1048c-.1532-.02-.2297-.09-.2297-.2 0-.13.0765-.19.2297-.19l.1048.19zm-1.06 24.41c-.0847-.12-.129-.26-.129-.41-.3103.14-.5844.21-.8262.21v.2h.2337l.3587-.2c.0887.12.129.21.129.28zm-1.189.19v-.11c-.0323-.13-.1088-.19-.2298-.19h-.1289c-.1572 0-.2338.06-.2338.19v.11l.2338-.11h.1289zm-1.0842 1.67h-.2338v.3h.2338zm.8544 0c0-.26.1089-.38.3346-.38h.2579v-.2h-.9552l-.3627.2h-.129v-.11c.4836-.33.7255-.53.7255-.58h-.129l-.8262.58.4876.41.2338-.11zm-.8544-2.16v-.2h-.1008c-.1572 0-.23374.07-.23374.2zm-.46351 2.27v-.11c-.15719 0-.23377.07-.23377.21v.09c.15719-.01.23377-.08.23377-.19m.59251-1.29h-.2298c-.63679 0-1.1527.2-1.5517.6l.23377.3c.96328-.43 1.4791-.73 1.5477-.9m-1.7815-.49h-.35871v-.19h.12897c.15316 0 .22974.06.22974.19m.82624 1.48h-.22973c0 .15-.36274.38-1.0842.69l-.10479.4h.10479c.78997-.36 1.185-.69 1.185-.98.08863 0 .12893-.04.12893-.11m-1.3139 1.97.35871-.39h-.10076c-.20958.13-.3708.2-.49176.2 0 .12.0766.19.23381.19m-.59651-23.21v-.19c-.1532.07-.266.1-.3345.1v.19c.137-.07.2499-.1.3345-.1m-.1008 20.85h-.133c-.1531 0-.2297.06-.2297.2h.129c.1531-.04.2337-.1.2337-.2m.2298.88c-.0847-.13-.129-.23-.129-.3-.2579 0-.532.1-.8262.3h-.129l-.6973-.09c-.3265.09-.4917.18-.4917.29h.262c.1531-.06.266-.09.3345-.09l.129.19c-.5522.29-.8263.49-.8263.6h.1008l2.1442-.79c0-.08.0443-.11.129-.11m-2.6077-.3h-.129v-.28h.3627v.09c-.0362.13-.1128.19-.2337.19m.1048-20.74h-.5966c.0887-.19.3305-.28.7255-.28l.1008.19zm-2.8415 2.18-.258-.11h-.1048c.0726.13.1048.23.1048.3.1733-.01.258-.08.258-.19m-.8504-.9c-.1572-.02-.2338-.08-.2338-.19 0-.09.1209-.19.3627-.3l.2298.1c-.121.26-.2378.39-.3587.39m-3.6918 26.38c-.157 0-.234-.03-.234-.1l-.826.1h-.597l-1.547-.49c-.154.07-.274.11-.363.11l-.101-.22c.464-.31.697-.6.697-.87-.157-.03-.233-.1-.233-.2l-.234.09c-.101 0-.343-.23-.722-.69v-.11h.234v-.08l-.467-.8v-.19l.596-.1v-.11h-.492c0-.4.206-.7.621-.88h.23l.826.11v-.22h.726c2.752-.65 5.0498-1.27 6.8917-1.86.4151-.08.8101-.11 1.189-.11v.2c-.2056 0-.6449.09-1.318.29v.2c1.0842-.19 1.6807-.35 1.7815-.49h.2579l.3628.21h.1048c0-.49.3949-.79 1.1849-.9 0-.13.2015-.29.5965-.5 0-.14.0444-.27.129-.38l.5925.09.36272-.2h.10479v.11l-.10479.19h.23377c.31034-.1.4635-.2.4635-.3h-.33453v-.19c.06852 0 .54008-.23 1.4187-.69-.08461-.12-.12895-.26-.12895-.4 1.1527-.59 1.8701-.89 2.1442-.89v-.21h-.1048c-.1531.07-.274.11-.3627.11-.1209-.26-.2378-.39-.3587-.39-.5361.19-.8545.28-.9552.28.1733-.48.6086-1.01 1.3139-1.56 0-.4.2781-1.09.8262-2.08h-.1289c-1.443-.33-4.2602-.72-8.4439-1.18-2.2006-.57-3.5871-1.33-4.1554-2.27 0-.29-.4393-1.18-1.3175-2.68-.069-.47-.101-.74-.101-.79.068-.12.101-.24.101-.39l-.234.08h-.125v-.38h.125l.363.19c0-1.43.399-2.35 1.1885-2.76 0-.4.4393-.73 1.318-.99l-.129-.19v-.11c.4796 0 .7215-.19.7215-.58.3949 0 .5924-.07.5924-.21l.2338.11h.2338v-.19c-.2419 0-.3628-.11-.3628-.31.1371-.32.3346-.49.5925-.49.2096 0 .6489.07 1.318.19 0-.2.0443-.3.1289-.3l1.0601.11c.4796-.27.798-.4.9552-.4v-.28l-.3628.19h-.1007v-.11c0-.08.1975-.22.5925-.39.1531 0 .2297.07.2297.2-.1532 0-.2297.06-.2297.19h.2297c.1048 0 .2257-.19.3627-.58l-.1289-.21v-.09c0-.1.1652-.23.4917-.4h.2337c.1693 0 .3265.03.4635.1.13708-.07.30233-.1.49176-.1v.1l-.25795.3h.12898l.4635-.19-.10479-.21c0-.1.23377-.27.69727-.5l.62069.11c0-.13.07654-.19.23374-.19.0685 0 .1008.02.1008.08.137 0 .536-.23 1.189-.68l.2579-.11h.9552c0-.41.1129-.64.3346-.69 0 .13.0886.19.262.19h.1007c.1572 0 .6288-.12 1.4187-.38v-.19c-.2579 0-.4554-.04-.5924-.11-.1371 0-.4111.06-.8263.19l.129.2v.1h-.129c-.0524 0-.1733-.1-.3627-.3-.395.14-.5925.38-.5925.71-.5522-.1-.8262-.24-.8262-.41.3103-.1.4635-.2.4635-.3 0-.13-.1532-.19-.4635-.19 0-.13.3184-.26.9552-.38l.2337.08c.2902 0 .6086-.19.9553-.58h.2297l.2338.09c0-.2.0886-.3.2579-.3h.2338l.5925.11c0-.08.0443-.18.1289-.31-.0846-.11-.1289-.24-.1289-.38.0685 0 .1894-.1.3627-.3l1.06.08c0-.08.1169-.17.3587-.27h.3628c.1531 0 .2337.06.2337.19l-.1048.49h.4635c.1572-.03.2338-.09.2338-.19v-.11c-.2418 0-.3627-.06-.3627-.19.399-.16.5965-.26.5965-.3-.0685-.13-.1048-.23-.1048-.3h.3627l-.1289.19h.2297c.5519-.44 1.7049-.93 3.4619-1.48l-.129-.19v-.19l.593.08h.363c1.152-.48 1.866-.84 2.144-1.07.137.06.298.09.487.09l.931-.5c.327.07.492.21.492.41h.101v-.11c-.069-.13-.101-.23-.101-.3.637-.33 1.076-.49 1.314-.49v.11l-.258.3.597.19c.258-.01.499-.24.721-.69 1.499-.37 2.684-.93 3.563-1.69.089 0 .129.04.129.11.278-.2.673-.3 1.189-.3-.983.9-1.652 1.65-2.015 2.27-5.337 3.19-11.415 6.32-18.23 9.39-4.4053 2.07-7.6942 3.91-9.8626 5.53-.395.4-.5965.63-.5965.68.0726.13.1048.23.1048.3-.0685.13-.1048.23-.1048.3.1209 0 .399.3.8262.9.8464.33 2.8335.56 5.9651.69.4474.11 1.4752.28 3.0753.49 0 .19.3587.35 1.0842.5 0-.13.0766-.2.2297-.2.1733.26 1.2857 1.05 3.3332 2.36 1.1204 1.16 1.6764 1.98 1.6764 2.46v.3c-.189 1.81-1.0235 3.45-2.5026 4.96-2.0314 1.61-4.6915 3.23-7.9804 4.84-1.721 1.03-4.2602 2.08-7.6175 3.15-1.6525.33-2.9585.56-3.9255.69 0 .07-.041.1-.125.1" fill="#00adef"/></g></svg>