<svg height="62.941002" viewBox="0 0 706.52593 62.941002" width="706.53882" xmlns="http://www.w3.org/2000/svg"><g transform="translate(976.11853 -112.319)"><g fill="#fff"><g transform="matrix(1.5724 0 0 1.5724 -464.76 -830.86)"><path d="m105.99 599.84v20.629c3.02-.017 6.04.038 9.06-.036 3.221-.153 6.397-2 7.834-4.94 1.717-3.417 1.661-7.715-.224-11.05-1.636-2.945-5.04-4.608-8.346-4.591-2.773-.017-5.547-.003-8.32-.008zm4.28 4.254c1.754.026 3.514-.062 5.264.063 1.994.201 3.349 2.053 3.763 3.889.62 2.505.113 5.498-1.89 7.26-1.233 1.107-2.964.933-4.496.939h-2.641v-12.152z"/><path d="m85.53 599.85v20.621h4.281v-8.152h7.57v8.152h4.281v-20.621c-1.427 0-2.854 0-4.281 0v8.188h-7.57v-8.188z"/></g><g transform="matrix(.95405 0 0 .95405 -977.64 112.29)"><path d="m57.895 64.201c-7.117-4.609-14.234-9.217-21.35-13.826-10.949 4.609-21.897 9.217-32.846 13.826 6.491-7.451 12.982-14.901 19.473-22.352-7.195-4.609-14.39-9.217-21.584-13.826h33.55c7.586-8.757 15.172-17.513 22.757-26.27v26.27h32.377l-32.377 13.596v22.583z"/><path d="m98.248 14.658c1.339.05402 2.3141-1.279 2.1115-2.5449-.007-2.8328.0144-5.6663-.0108-8.4987-.093-1.3057-1.4511-2.0354-2.6502-1.8607h-34.408v12.904h34.957z"/><path d="m98.248 64.201c1.339.05402 2.3141-1.279 2.1115-2.5449-.007-2.8328.0144-5.6663-.0108-8.4987-.093-1.3057-1.4511-2.0354-2.6502-1.8607h-34.408v12.904h34.957z"/><path d="m565.6 1.753h-43.4c-2.097-.028-2.248 2.249-2.111 3.809.027 2.48-.055 4.965.043 7.441.504 2.15 2.957 1.582 4.592 1.654h12.726v47.7c0 2.09 2.293 2.196 3.846 2.074 2.535-.027 5.076.054 7.608-.042 2.112-.432 1.643-2.807 1.684-4.398v-45.33c5.225-.028 10.456.055 15.677-.042 2.112-.432 1.643-2.807 1.684-4.398-.076-2.265.154-4.573-.12-6.811-.331-.925-1.216-1.667-2.226-1.654z"/><path d="m392.22 15.81c-3.04-8.838-12.48-14.243-21.59-14.06-8.04.028-16.09-.056-24.12.042-2.12.436-1.64 2.823-1.684 4.419v56.14c.0001 2.098 2.306 2.195 3.862 2.074 2.53-.028 5.065.055 7.592-.042 2.12-.436 1.64-2.823 1.684-4.419v-12.591c5.086-.06 10.181.134 15.261-.126 9.132-.662 17.819-7.286 19.789-16.406 1.436-4.961.787-10.199-.797-15.04zm-12.434 12.674c-1.034 3.084-3.848 5.474-7.156 5.588-4.88.312-9.776.119-14.663.173v-19.587c4.898.053 9.805-.114 14.697.097 5.12.539 8.491 5.946 7.782 10.845-.086.985-.288 1.966-.66 2.884z"/><path d="m303.07 19.727c-.258 3.07 2.752 5.02 5.364 5.703 4.874 1.57 10.07 1.713 14.986 3.154 5.811 1.302 11.997 4.254 14.388 10.09 2.747 6.816 1.503 15.524-4.239 20.458-4.264 3.776-9.911 5.793-15.575 6-8.714 1.132-17.644-1.91-24.441-7.328-1.549-1.73-5.148-3.638-3.988-6.319 2.438-2.493 4.833-5.05 7.364-7.444 3.139-.37 4.177 4.477 7.181 5.394 4.995 3.427 11.619 4.214 17.278 2.097 2.968-.958 5.087-4.083 4.327-7.215-.766-3.01-4.076-4.61-6.876-5.251-6.173-1.298-12.629-1.64-18.498-4.105-5.222-2.197-9.725-6.873-10.259-12.707-.874-6.34 1.829-12.979 7-16.785 7.341-5.308 17.316-6.292 25.867-3.657 5.722 1.712 10.87 5.474 14.231 10.404.803 1.732-1.297 2.676-2.201 3.815-1.797 1.642-3.364 3.575-5.336 4.996-3.057.19-3.813-4.386-6.63-5.433-4.76-3.252-11.205-3.2-16.404-1.094-2.058.926-3.531 2.928-3.544 5.223z"/><path d="m275.85 9.358c-8.73-8.123-21.95-10.04-33.17-6.819-9.356 2.52-17.11 9.992-20 19.233-3.604 11.424-1.779 25.17 6.776 33.987 7.578 7.924 19.292 10.51 29.872 8.948 8.659-1.2 16.805-6.098 21.512-13.529 5.613-8.383 6.28-19.319 3.611-28.848-1.34-4.715-4.614-8.584-7.818-12.177-.258-.269-.52-.534-.785-.796zm-5.161 32.491c-2.428 6.527-9.211 10.736-16.06 10.803-6.03.354-12.635-1.392-16.374-6.452-4.358-5.728-5.269-13.781-2.932-20.508 1.701-5.069 5.849-9.116 10.938-10.741 8.294-3.064 19.15-.356 23.416 7.835 2.662 5.062 3.323 11.06 1.76 16.573-.205.843-.449 1.677-.749 2.49z"/><path d="m453.22 9.358c-8.73-8.123-21.95-10.04-33.17-6.819-9.35 2.52-17.11 9.992-20 19.234-3.604 11.424-1.779 25.17 6.776 33.987 7.578 7.924 19.292 10.51 29.872 8.948 8.659-1.2 16.805-6.098 21.512-13.529 5.613-8.383 6.28-19.319 3.611-28.848-1.33-4.557-4.338-8.44-7.492-11.904-.36-.367-.731-.723-1.112-1.069zm-5.161 32.491c-2.428 6.527-9.211 10.736-16.06 10.803-6.03.354-12.635-1.392-16.374-6.452-4.358-5.728-5.269-13.781-2.932-20.508 1.701-5.069 5.849-9.116 10.938-10.741 8.294-3.064 19.15-.356 23.416 7.835 3.066 5.873 3.494 12.9 1.01 19.06z"/><path d="m155.49 1.753c-3.114.027-6.233-.054-9.343.042-2.141.447-1.632 2.862-1.684 4.472-.031 12.481.062 24.964-.048 37.443-.242 4.538-4.251 8.07-8.649 8.468-4.656.583-10.2.481-13.622-3.213-2.894-3.143-2.243-7.557-2.315-11.469-.028-11.363.057-22.731-.043-34.09-.521-2.178-3.02-1.57-4.672-1.654-2.375.087-4.794-.187-7.137.162-1.939.924-1.105 3.302-1.287 5 .033 12.515-.067 25.03.052 37.547.33 9.515 7.981 17.681 17.06 19.83 8.259 2 17.73 1.391 24.802-3.693 6.102-4.227 9.157-11.848 8.767-19.13-.019-12.815.039-25.648-.029-38.452-.226-.79-1.053-1.277-1.848-1.264z"/><path d="m218.37 60.975c-4.849-5.914-9.697-11.829-14.546-17.743 7.204-2.902 11.777-10.55 11.722-18.212.311-7.774-3.382-15.796-10.154-19.876-4.817-3.187-10.697-3.812-16.333-3.62-6.873.028-13.751-.056-20.62.042-2.206.484-1.605 2.99-1.684 4.647v55.916c.005 2.122 2.342 2.189 3.909 2.074 2.514-.027 5.03.054 7.545-.042 2.206-.484 1.605-2.99 1.684-4.647v-44.855c4.898.054 9.805-.114 14.697.097 5.12.539 8.491 5.946 7.782 10.845-.293 3.871-2.935 7.915-7.04 8.375-3.642.433-7.319.217-10.978.27-2.037.78-1.143 2.785.026 3.856l19.447 25.18c1.333 1.51 3.475.728 5.238.922 2.856.0001 5.714-.003 8.567.003 1.833-.142 1.852-2.224.741-3.229z"/><path d="m520.79 60.975c-4.849-5.914-9.697-11.829-14.546-17.743 7.204-2.902 11.777-10.55 11.722-18.212.311-7.774-3.382-15.796-10.154-19.876-4.818-3.188-10.699-3.812-16.335-3.62-6.95.028-13.906-.055-20.853.042-2.207.484-1.604 2.992-1.684 4.649v55.914c.005 2.123 2.343 2.189 3.911 2.074 2.514-.027 5.03.054 7.544-.042 2.207-.484 1.604-2.992 1.684-4.649v-45.08c4.898.054 9.805-.114 14.697.097 5.12.539 8.491 5.946 7.782 10.845-.293 3.871-2.935 7.915-7.04 8.375-3.779.482-7.601.15-11.394.312-2.05.673-.487 2.817.443 3.815 6.482 8.392 12.964 16.785 19.446 25.18 1.334 1.51 3.477.728 5.24.922 3.079-.017 6.184.03 9.243-.014 1.4-.409 1.041-2.149.297-2.981z"/></g></g><path d="m-354.83 175.26h-56.06c-1.127 0-2.02-.907-2.02-2.051v-58.839c0-1.104.894-2.051 2.02-2.051h56.06c1.127 0 2.02.946 2.02 2.051v58.839c0 1.144-.894 2.051-2.02 2.051" fill="#d50032"/><path d="m-397.2 162.9v1.222c0 .789.583 1.42 1.322 1.42h26.05c.777 0 1.322-.631 1.322-1.42v-6.113c0-.71-.583-1.38-1.361-1.38h-12.207l7.62-10.332c4.51-5.916 5.52-12.541 3.03-17.589-2.06-4.259-6.414-6.665-11.973-6.665-8.63.039-13.49 4.811-13.684 13.448l-.039 2.01c0 .828.583 1.38 1.438 1.38h5.831c.777 0 1.361-.631 1.399-1.42l.078-1.853c.117-2.287 1.05-5.05 4.782-5.05 2.993 0 4.51 1.932 4.587 3.944.078 2.169-.466 3.825-2.332 6.31l-15.16 20.27c-.466.552-.7 1.025-.7 1.814" fill="#fff"/></g></svg>