<?xml version="1.0" encoding="UTF-8" standalone="no"?>
<svg
   xmlns:dc="http://purl.org/dc/elements/1.1/"
   xmlns:cc="http://creativecommons.org/ns#"
   xmlns:rdf="http://www.w3.org/1999/02/22-rdf-syntax-ns#"
   xmlns:svg="http://www.w3.org/2000/svg"
   xmlns="http://www.w3.org/2000/svg"
   xmlns:sodipodi="http://sodipodi.sourceforge.net/DTD/sodipodi-0.dtd"
   xmlns:inkscape="http://www.inkscape.org/namespaces/inkscape"
   width="706.53882"
   viewBox="0 0 706.52593 62.941002"
   id="svg2"
   version="1.1"
   inkscape:version="0.91 r13725"
   sodipodi:docname="Eurosport 2 HD.svg"
   height="62.941002">
  <metadata
     id="metadata46">
    <rdf:RDF>
      <cc:Work
         rdf:about="">
        <dc:format>image/svg+xml</dc:format>
        <dc:type
           rdf:resource="http://purl.org/dc/dcmitype/StillImage" />
        <dc:title></dc:title>
      </cc:Work>
    </rdf:RDF>
  </metadata>
  <defs
     id="defs44" />
  <sodipodi:namedview
     pagecolor="#ffffff"
     bordercolor="#666666"
     borderopacity="1"
     objecttolerance="10"
     gridtolerance="10"
     guidetolerance="10"
     inkscape:pageopacity="0"
     inkscape:pageshadow="2"
     inkscape:window-width="1920"
     inkscape:window-height="1017"
     id="namedview42"
     showgrid="false"
     fit-margin-top="0"
     fit-margin-left="0"
     fit-margin-right="0"
     fit-margin-bottom="0"
     inkscape:zoom="0.40762025"
     inkscape:cx="353.26852"
     inkscape:cy="31.469705"
     inkscape:window-x="-8"
     inkscape:window-y="-8"
     inkscape:window-maximized="1"
     inkscape:current-layer="svg2" />
  <g
     transform="translate(976.11853,-112.319)"
     id="g4">
    <g
       id="g6"
       style="fill:#171f50">
      <g
         transform="matrix(1.5724,0,0,1.5724,-464.76,-830.86)"
         id="g8"
         style="color:#000000">
        <path
           d="m 105.99,599.84 0,20.629 c 3.02,-0.017 6.04,0.038 9.06,-0.036 3.221,-0.153 6.397,-2 7.834,-4.94 1.717,-3.417 1.661,-7.715 -0.224,-11.05 -1.636,-2.945 -5.04,-4.608 -8.346,-4.591 -2.773,-0.017 -5.547,-0.003 -8.32,-0.008 z m 4.28,4.254 c 1.754,0.026 3.514,-0.062 5.264,0.063 1.994,0.201 3.349,2.053 3.763,3.889 0.62,2.505 0.113,5.498 -1.89,7.26 -1.233,1.107 -2.964,0.933 -4.496,0.939 l -2.641,0 0,-12.152 z"
           id="path10"
           inkscape:connector-curvature="0" />
        <path
           d="m 85.53,599.85 0,20.621 4.281,0 0,-8.152 7.57,0 0,8.152 c 1.427,0 2.854,0 4.281,0 l 0,-20.621 c -1.427,0 -2.854,0 -4.281,0 l 0,8.188 -7.57,0 0,-8.188 -4.281,0 z"
           id="path12"
           inkscape:connector-curvature="0" />
      </g>
      <g
         transform="matrix(0.95405,0,0,0.95405,-977.64,112.29)"
         id="g14">
        <path
           d="M 57.895,64.201 C 50.778,59.592 43.661,54.984 36.545,50.375 25.596,54.984 14.648,59.592 3.699,64.201 10.19,56.75 16.681,49.3 23.172,41.849 15.977,37.24 8.782,32.632 1.588,28.023 l 33.55,0 C 42.724,19.266 50.31,10.51 57.895,1.753 l 0,26.27 32.377,0 -32.377,13.596 0,22.583 z"
           id="path16"
           inkscape:connector-curvature="0" />
        <path
           d="m 98.248,14.658 c 1.339,0.05402 2.3141,-1.279 2.1115,-2.5449 -0.007,-2.8328 0.0144,-5.6663 -0.0108,-8.4987 -0.093,-1.3057 -1.4511,-2.0354 -2.6502,-1.8607 l -34.408,0 0,12.904 34.957,0 z"
           id="path18"
           inkscape:connector-curvature="0" />
        <path
           d="m 98.248,64.201 c 1.339,0.05402 2.3141,-1.279 2.1115,-2.5449 -0.007,-2.8328 0.0144,-5.6663 -0.0108,-8.4987 -0.093,-1.3057 -1.4511,-2.0354 -2.6502,-1.8607 l -34.408,0 0,12.904 34.957,0 z"
           id="path20"
           inkscape:connector-curvature="0" />
        <path
           d="m 565.6,1.753 -43.4,0 c -2.097,-0.028 -2.248,2.249 -2.111,3.809 0.027,2.48 -0.055,4.965 0.043,7.441 0.504,2.15 2.957,1.582 4.592,1.654 l 12.726,0 0,47.7 c 0,2.09 2.293,2.196 3.846,2.074 2.535,-0.027 5.076,0.054 7.608,-0.042 2.112,-0.432 1.643,-2.807 1.684,-4.398 l 0,-45.33 c 5.225,-0.028 10.456,0.055 15.677,-0.042 2.112,-0.432 1.643,-2.807 1.684,-4.398 -0.076,-2.265 0.154,-4.573 -0.12,-6.811 -0.331,-0.925 -1.216,-1.667 -2.226,-1.654 z"
           id="path22"
           inkscape:connector-curvature="0" />
        <path
           d="M 392.22,15.81 C 389.18,6.972 379.74,1.567 370.63,1.75 c -8.04,0.028 -16.09,-0.056 -24.12,0.042 -2.12,0.436 -1.64,2.823 -1.684,4.419 l 0,56.14 c 10e-5,2.098 2.306,2.195 3.862,2.074 2.53,-0.028 5.065,0.055 7.592,-0.042 2.12,-0.436 1.64,-2.823 1.684,-4.419 l 0,-12.591 c 5.086,-0.06 10.181,0.134 15.261,-0.126 9.132,-0.662 17.819,-7.286 19.789,-16.406 1.436,-4.961 0.787,-10.199 -0.797,-15.04 z m -12.434,12.674 c -1.034,3.084 -3.848,5.474 -7.156,5.588 -4.88,0.312 -9.776,0.119 -14.663,0.173 l 0,-19.587 c 4.898,0.053 9.805,-0.114 14.697,0.097 5.12,0.539 8.491,5.946 7.782,10.845 -0.086,0.985 -0.288,1.966 -0.66,2.884 z"
           id="path24"
           inkscape:connector-curvature="0" />
        <path
           d="m 303.07,19.727 c -0.258,3.07 2.752,5.02 5.364,5.703 4.874,1.57 10.07,1.713 14.986,3.154 5.811,1.302 11.997,4.254 14.388,10.09 2.747,6.816 1.503,15.524 -4.239,20.458 -4.264,3.776 -9.911,5.793 -15.575,6 -8.714,1.132 -17.644,-1.91 -24.441,-7.328 -1.549,-1.73 -5.148,-3.638 -3.988,-6.319 2.438,-2.493 4.833,-5.05 7.364,-7.444 3.139,-0.37 4.177,4.477 7.181,5.394 4.995,3.427 11.619,4.214 17.278,2.097 2.968,-0.958 5.087,-4.083 4.327,-7.215 -0.766,-3.01 -4.076,-4.61 -6.876,-5.251 -6.173,-1.298 -12.629,-1.64 -18.498,-4.105 -5.222,-2.197 -9.725,-6.873 -10.259,-12.707 -0.874,-6.34 1.829,-12.979 7,-16.785 7.341,-5.308 17.316,-6.292 25.867,-3.657 5.722,1.712 10.87,5.474 14.231,10.404 0.803,1.732 -1.297,2.676 -2.201,3.815 -1.797,1.642 -3.364,3.575 -5.336,4.996 -3.057,0.19 -3.813,-4.386 -6.63,-5.433 -4.76,-3.252 -11.205,-3.2 -16.404,-1.094 -2.058,0.926 -3.531,2.928 -3.544,5.223 z"
           id="path26"
           inkscape:connector-curvature="0" />
        <path
           d="m 275.85,9.358 c -8.73,-8.123 -21.95,-10.04 -33.17,-6.819 -9.356,2.52 -17.11,9.992 -20,19.233 -3.604,11.424 -1.779,25.17 6.776,33.987 7.578,7.924 19.292,10.51 29.872,8.948 8.659,-1.2 16.805,-6.098 21.512,-13.529 5.613,-8.383 6.28,-19.319 3.611,-28.848 -1.34,-4.715 -4.614,-8.584 -7.818,-12.177 -0.258,-0.269 -0.52,-0.534 -0.785,-0.796 z m -5.161,32.491 c -2.428,6.527 -9.211,10.736 -16.06,10.803 -6.03,0.354 -12.635,-1.392 -16.374,-6.452 -4.358,-5.728 -5.269,-13.781 -2.932,-20.508 1.701,-5.069 5.849,-9.116 10.938,-10.741 8.294,-3.064 19.15,-0.356 23.416,7.835 2.662,5.062 3.323,11.06 1.76,16.573 -0.205,0.843 -0.449,1.677 -0.749,2.49 z"
           id="path28"
           inkscape:connector-curvature="0" />
        <path
           d="m 453.22,9.358 c -8.73,-8.123 -21.95,-10.04 -33.17,-6.819 -9.35,2.52 -17.11,9.992 -20,19.234 -3.604,11.424 -1.779,25.17 6.776,33.987 7.578,7.924 19.292,10.51 29.872,8.948 8.659,-1.2 16.805,-6.098 21.512,-13.529 5.613,-8.383 6.28,-19.319 3.611,-28.848 -1.33,-4.557 -4.338,-8.44 -7.492,-11.904 -0.36,-0.367 -0.731,-0.723 -1.112,-1.069 z m -5.161,32.491 c -2.428,6.527 -9.211,10.736 -16.06,10.803 -6.03,0.354 -12.635,-1.392 -16.374,-6.452 -4.358,-5.728 -5.269,-13.781 -2.932,-20.508 1.701,-5.069 5.849,-9.116 10.938,-10.741 8.294,-3.064 19.15,-0.356 23.416,7.835 3.066,5.873 3.494,12.9 1.01,19.06 z"
           id="path30"
           inkscape:connector-curvature="0" />
        <path
           d="m 155.49,1.753 c -3.114,0.027 -6.233,-0.054 -9.343,0.042 -2.141,0.447 -1.632,2.862 -1.684,4.472 -0.031,12.481 0.062,24.964 -0.048,37.443 -0.242,4.538 -4.251,8.07 -8.649,8.468 -4.656,0.583 -10.2,0.481 -13.622,-3.213 -2.894,-3.143 -2.243,-7.557 -2.315,-11.469 -0.028,-11.363 0.057,-22.731 -0.043,-34.09 -0.521,-2.178 -3.02,-1.57 -4.672,-1.654 -2.375,0.087 -4.794,-0.187 -7.137,0.162 -1.939,0.924 -1.105,3.302 -1.287,5 0.033,12.515 -0.067,25.03 0.052,37.547 0.33,9.515 7.981,17.681 17.06,19.83 8.259,2 17.73,1.391 24.802,-3.693 6.102,-4.227 9.157,-11.848 8.767,-19.13 -0.019,-12.815 0.039,-25.648 -0.029,-38.452 -0.226,-0.79 -1.053,-1.277 -1.848,-1.264 z"
           id="path32"
           inkscape:connector-curvature="0" />
        <path
           d="m 218.37,60.975 c -4.849,-5.914 -9.697,-11.829 -14.546,-17.743 7.204,-2.902 11.777,-10.55 11.722,-18.212 0.311,-7.774 -3.382,-15.796 -10.154,-19.876 -4.817,-3.187 -10.697,-3.812 -16.333,-3.62 -6.873,0.028 -13.751,-0.056 -20.62,0.042 -2.206,0.484 -1.605,2.99 -1.684,4.647 l 0,55.916 c 0.005,2.122 2.342,2.189 3.909,2.074 2.514,-0.027 5.03,0.054 7.545,-0.042 2.206,-0.484 1.605,-2.99 1.684,-4.647 l 0,-44.855 c 4.898,0.054 9.805,-0.114 14.697,0.097 5.12,0.539 8.491,5.946 7.782,10.845 -0.293,3.871 -2.935,7.915 -7.04,8.375 -3.642,0.433 -7.319,0.217 -10.978,0.27 -2.037,0.78 -1.143,2.785 0.026,3.856 l 19.447,25.18 c 1.333,1.51 3.475,0.728 5.238,0.922 2.856,1e-4 5.714,-0.003 8.567,0.003 1.833,-0.142 1.852,-2.224 0.741,-3.229 z"
           id="path34"
           inkscape:connector-curvature="0" />
        <path
           d="m 520.79,60.975 c -4.849,-5.914 -9.697,-11.829 -14.546,-17.743 7.204,-2.902 11.777,-10.55 11.722,-18.212 0.311,-7.774 -3.382,-15.796 -10.154,-19.876 -4.818,-3.188 -10.699,-3.812 -16.335,-3.62 -6.95,0.028 -13.906,-0.055 -20.853,0.042 -2.207,0.484 -1.604,2.992 -1.684,4.649 l 0,55.914 c 0.005,2.123 2.343,2.189 3.911,2.074 2.514,-0.027 5.03,0.054 7.544,-0.042 2.207,-0.484 1.604,-2.992 1.684,-4.649 l 0,-45.08 c 4.898,0.054 9.805,-0.114 14.697,0.097 5.12,0.539 8.491,5.946 7.782,10.845 -0.293,3.871 -2.935,7.915 -7.04,8.375 -3.779,0.482 -7.601,0.15 -11.394,0.312 -2.05,0.673 -0.487,2.817 0.443,3.815 6.482,8.392 12.964,16.785 19.446,25.18 1.334,1.51 3.477,0.728 5.24,0.922 3.079,-0.017 6.184,0.03 9.243,-0.014 1.4,-0.409 1.041,-2.149 0.297,-2.981 z"
           id="path36"
           inkscape:connector-curvature="0" />
      </g>
    </g>
    <path
       d="m -354.83,175.26 -56.06,0 c -1.127,0 -2.02,-0.907 -2.02,-2.051 l 0,-58.839 c 0,-1.104 0.894,-2.051 2.02,-2.051 l 56.06,0 c 1.127,0 2.02,0.946 2.02,2.051 l 0,58.839 c 0,1.144 -0.894,2.051 -2.02,2.051"
       id="path38"
       inkscape:connector-curvature="0"
       style="fill:#d50032" />
    <path
       d="m -397.2,162.9 0,1.222 c 0,0.789 0.583,1.42 1.322,1.42 l 26.05,0 c 0.777,0 1.322,-0.631 1.322,-1.42 l 0,-6.113 c 0,-0.71 -0.583,-1.38 -1.361,-1.38 l -12.207,0 7.62,-10.332 c 4.51,-5.916 5.52,-12.541 3.03,-17.589 -2.06,-4.259 -6.414,-6.665 -11.973,-6.665 -8.63,0.039 -13.49,4.811 -13.684,13.448 l -0.039,2.01 c 0,0.828 0.583,1.38 1.438,1.38 l 5.831,0 c 0.777,0 1.361,-0.631 1.399,-1.42 l 0.078,-1.853 c 0.117,-2.287 1.05,-5.05 4.782,-5.05 2.993,0 4.51,1.932 4.587,3.944 0.078,2.169 -0.466,3.825 -2.332,6.31 l -15.16,20.27 c -0.466,0.552 -0.7,1.025 -0.7,1.814"
       id="path40"
       inkscape:connector-curvature="0"
       style="fill:#ffffff" />
  </g>
</svg>
