<svg height="586.72668pt" viewBox="0 0 953.27002 586.72668" width="953.27002pt" xmlns="http://www.w3.org/2000/svg"><g transform="translate(-23.14485 -328.01951)"><path d="m813.34951 852.64567c-91.18403-33.22672-66.88598-24.23865 0 0zm-10.33005-10.71967c-.96-1.8-1.8798-3.73965-2.58983-5.6397-3.44002-12.12998-1.66989-24.83048-2.08989-37.23045v-34.70918l-210.02973.01833-50.43016 150.38122 285.14071-58.43992c-3.44048-.65003-6.50093-2.31068-9.67095-3.66068-4.03995-2.94997-7.80008-6.33967-10.33005-10.71967z" fill="#133871"/><path d="m715.38386 764.34667-18.43358 17.8491-3.63285-17.84767h-30.56685l4.57028 22.66845-60.72653-22.6611h-18.28383l-5.11557 15.25192 54.91553 20.51955-66.2871 13.3989-11.32916 33.77313 85.54541-17.36688-84.6489 79.98195 40.7988-8.3613.0337-.0322 74.22653-69.59767 10.31107 52.29637 29.53853-6.05415-10.76956-53.2881 96.15968 35.6499.23145.0893 21.0996-4.3242c-3.44002-.64995-6.4998-2.31068-9.66938-3.6606-4.03942-2.9499-7.79894-6.33893-10.32862-10.71833-.96-1.8-1.87972-3.73957-2.58982-5.63962l-65.20313-24.35153 63.11018-12.75592v-.123-31.47075l-68.33826 13.81057 17.92522-17.0361z" fill="#fff"/><g fill="#bc2024" transform="translate(-420.55049 -36.75025)"><path d="m1089.15 801.11525h19.07l6.25 30.56095 104.4202-21.34v19.66l-100.5802 20.54 13.1706 65.51056-18.2406 3.68943-13.13-65.23999-117.06803 23.6143 6.99803-20.9543 106.04-21.7z"/><path d="m1142.17 801.11525h9.35l-22.5382 21.42955-10.8718 2.1314z"/><path d="m1007.18 806.2062 71.44 26.61-12.0309 2.40305-61.4491-22.87305z"/><path d="m1136.27 852.6062 11.2296-2.25345 76.0704 28.32345c2.53 4.38 6.29 7.77 10.33 10.72z"/><path d="m1088.5523 862.38121 7.1377-1.40501-80.2267 78.85781-11.7112 2.3628z"/></g></g><path d="m803.485 436.34959h27.26c-.13 18.46.09 37.02-.11 55.48-.2 5.25-1.22 11.63-6.32 14.37-4.7 2.27-10.73 2.15-15.22-.57-4.74-3.27-5.41-9.57-5.57-14.84-.09-18.13-.01-36.31-.04-54.44z" fill="#bc2024"/><path d="m859.015 495.82959c.34-19.85-.34-39.66.34-59.48h28.065v31.54l25.455-31.54h34.93l-33.08 35.72 38.39 56.395h-35.04l-22.55-35.675-8.105 8.94v26.735h-51.705c5.99-1.91 11.77-5.115 15.78-10.075 5.2-6.28 7.17-14.57 7.52-22.56z" fill="#bc2024"/><path d="m17.045 116.91961c15.04-20.08 39.64-32.55 64.74-32.64h111.605v47.49c-.03 3.77-.29501 7.76-2.36501 11.02-2.86999 4.94-8.44 8.14-14.14999 8.16h-73.01001c-7.40999-.19-14.62999 4.27-17.90999 10.9-2.8 5.42-2.21 11.705-1.94 17.595h82.12499v65.72498h-82.21499v168.99h-83.925v-247.31998c.29-17.87 6.105-35.72 17.045-49.92"/><path d="m218.865 180.77959c20.2-11.1 44.68-14.18 66.93-8.07 19.5 5.21 36.93 17.07 50.05 32.27v-39.84025h82.355v248.81025h-82.345v-32.91c-11.03 12.31-24.52 22.75-40.01 28.81-21.93 8.87-47.33 8.52-69.03-.89-24.07-10.24-43.08-30.3-54.61-53.53-16.90841-33.82681-18.71331-74.38843-6.13436-110.78515 9.90436-26.90485 28.07436-50.50485 52.79436-63.86485zm64.57 62.88c-19.56 2.61-36.55 18.01-41.11 37.2-3.67 14.54-.4 30.67 8.87 42.49 9.26 12.15 24.36 19.63 39.66 19.39 14.29.08 28.39-6.53 37.61-17.42 9.51-10.98 13.75-26.25 11.28-40.56-2.17-13.46-10.21-25.81-21.58-33.3-10.09-6.78-22.72-9.59-34.73-7.8z"/><path d="m565.07 84.24459h82.43v95.09h39.745v65.815h-39.745v83.63c.3 9.67 8.755 18.21 18.415 18.65 7.31.24 14.63-.07 21.94.14 8.33.38 15.55 7.9 15.43 16.28v50.305h-54.36c-24.62.52-49.09-10.755-64.7-29.795-11.83-14.07-18.495-32.19-19.155-50.51v-88.7h-38.035v-65.815h38.035z"/><path d="m715.395 84.46959c14.14 0 28.27-.07 42.41.08 16.21.25 31.57 11.05 37.28 26.22 3.72 8.87 2.705 18.64 2.765 28.01v75.92c3.98-6.47 8.205-12.94 13.585-18.39 13.64-14.37 32.61-23.6 52.39-25.19 19.74-1.84 40.05 3.89 55.97 15.7 20.46 14.89 33.355 39.63 33.475 64.98v162.08h-44.375c-20-1.14-37.24-18.95-37.86-38.97-.15-24.68-.04-49.36-.09-74.04-.15-6.7.56-13.55-1.18-20.11-2.53-10.16-9.7-19.03-19.09-23.66-10.28-5.23-23.06-5.11-33.23.31-11.91 6.07-19.745 19.09-19.595 32.45v124.02h-82.455z"/><path d="m432.285 414.00946v-249.56987c18.34.25 36.77 6.38 51.12 17.91 19.22 15.05 31.135 38.99 31.295 63.43v168.22987z"/><path d="m432.28517 0a82.389742 82.389742 0 0 1 -82.39013 82.390135 82.389742 82.389742 0 0 1 82.37842 82.048825h.0293a82.389742 82.389742 0 0 1 82.37255-82.048825 82.389742 82.389742 0 0 1 -82.39014-82.390135zm82.39014 82.390135a82.389742 82.389742 0 0 1  .8291.04103v-.07028a82.389742 82.389742 0 0 1 -.8291.02933z" fill="#bc2024"/></svg>