<svg width="1229.3mm" height="302.27mm" version="1.1" viewBox="0 0 1229.3 302.27" xmlns="http://www.w3.org/2000/svg">
 <g transform="translate(229.64 352.33)">
  <path d="m999.62-255.09a97.167 97.231 0 0 1-97.167 97.231 97.167 97.231 0 0 1-97.167-97.231 97.167 97.231 0 0 1 97.167-97.231 97.167 97.231 0 0 1 97.167 97.231z" fill="#ec2327" style="paint-order:stroke fill markers"/>
  <path transform="scale(.26458)" d="m3097.6-1155.1a367.25 367.49 0 0 0-42.748 102.47h126.82l-44.75 259.8 121.71 0.25782 45.998-260.05h119.6l47.06 260.12h135.51l154.03-281.53a367.25 367.49 0 0 0-36.641-81.07h-60.623l-98.41 225.27-20.705-225.27z" style="paint-order:stroke fill markers"/>
 </g>
 <path d="m461.64 48.63v253.64h85.152l-3.9449-142.72h1.1658l47.267 142.72h60.464l47.267-142.72h1.1658l-3.9449 142.72h85.152v-253.64l-117.25 0.10334-42.341 126h-0.56115l-42.335-126zm-279.61 0.0026h-182.03v253.64h83.957l0.17933-85.901 97.895-0.26095v-69.413h-98.424v-26.81h98.424zm74.588 0-98.432 253.64h91.809l53.585-155.53 53.585 155.53h91.809l-98.432-253.64zm549.11 0v70.907h210.78v-70.907zm0 92.778v66.322h210.78v-66.322zm0 89.957v70.907h210.78v-70.907z" stroke-width=".35276"/>
</svg>
