<svg height="463pt" viewBox="0 0 952 463" width="952pt" xmlns="http://www.w3.org/2000/svg"><path d="m0 0h793.17l154.25 450.82c1.33 3.99 2.53 8.06 4.58 11.77v.41h-952z"/><g fill="#fff"><path d="m24.56 24.61 747.18.06 17.37 49.99-764.58-.02z"/><path d="m24.6 96.2 157.99.04-.11 63.95-99.32-.01.06 47.93 93.42.01.02 62.39-93.55.06.11 90.63-58.63.01z"/><path d="m202.88 96.23h59.24l-.04 200.31h59.33l69.58-200.32 59.28-.03 91.78 265.04h-63.19l-13.58-43.21-90.32.08-13.09 43.1-158.98.02zm192.09 157.93 50.51.01-25.19-80.84z"/><path d="m473.59 96.18 67.52.04 52.25 170.91 53.11-170.87h68.31l-91.59 264.96-58.1-.02z"/><path d="m736.88 96.21h59.3l91.73 265.03-63.22.02-13.42-43.21-90.4.07-13.45 43.18-62.57-.06zm4 157.92h50.48l-25.2-80.9z"/><path d="m24.58 385.1 871.55.02 17.41 50.1-888.97-.01z"/></g></svg>