<?xml version="1.0" encoding="UTF-8" standalone="no"?>
<svg
   xmlns:dc="http://purl.org/dc/elements/1.1/"
   xmlns:cc="http://creativecommons.org/ns#"
   xmlns:rdf="http://www.w3.org/1999/02/22-rdf-syntax-ns#"
   xmlns:svg="http://www.w3.org/2000/svg"
   xmlns="http://www.w3.org/2000/svg"
   xmlns:sodipodi="http://sodipodi.sourceforge.net/DTD/sodipodi-0.dtd"
   xmlns:inkscape="http://www.inkscape.org/namespaces/inkscape"
   viewBox="0 0 975.97404 869"
   height="869"
   width="975.974"
   xml:space="preserve"
   version="1.1"
   id="svg2"
   inkscape:version="0.91 r13725"
   sodipodi:docname="Food Network +1.svg"><sodipodi:namedview
     pagecolor="#ffffff"
     bordercolor="#666666"
     borderopacity="1"
     objecttolerance="10"
     gridtolerance="10"
     guidetolerance="10"
     inkscape:pageopacity="0"
     inkscape:pageshadow="2"
     inkscape:window-width="1920"
     inkscape:window-height="1017"
     id="namedview25"
     showgrid="false"
     fit-margin-top="0"
     fit-margin-left="0"
     fit-margin-right="0"
     fit-margin-bottom="0"
     inkscape:zoom="0.50470487"
     inkscape:cx="788.8887"
     inkscape:cy="384.17294"
     inkscape:window-x="-8"
     inkscape:window-y="-8"
     inkscape:window-maximized="1"
     inkscape:current-layer="svg2" /><metadata
     id="metadata8"><rdf:RDF><cc:Work
         rdf:about=""><dc:format>image/svg+xml</dc:format><dc:type
           rdf:resource="http://purl.org/dc/dcmitype/StillImage" /><dc:title></dc:title></cc:Work></rdf:RDF></metadata><defs
     id="defs6" /><g
     id="g4200"
     transform="matrix(3.7168689,0,0,3.7168689,0,-7.629422e-6)"><path
       inkscape:connector-curvature="0"
       d="m 142.10508,99.137643 c -0.32,-0.45125 -0.69125,-0.83375 -1.10125,-1.18125 -0.4125,-0.33375 -0.88125,-0.625 -1.385,-0.845 -0.505,-0.23625 -1.06375,-0.4075 -1.6625,-0.5225 -0.6025,-0.11375 -1.2475,-0.1675 -1.9425,-0.1725 -0.70125,0.005 -1.3625,0.05625 -1.9975,0.1725 -0.6225,0.115 -1.22125,0.29125 -1.7875,0.51625 -0.56375,0.23125 -1.1075,0.52 -1.6325,0.85875 -0.5225,0.34125 -1.02625,0.74 -1.52125,1.19125 -0.90625,0.815 -1.675,1.767497 -2.33125,2.832497 -0.665,1.07375 -1.22375,2.2575 -1.6975,3.55875 -0.47837,1.2875 -0.88125,2.69625 -1.24987,4.17538 -0.36138,1.48437 -0.686,3.05412 -0.9985,4.7095 -0.32225,1.63075 -0.61288,3.21287 -0.8325,4.71425 -0.21488,1.48925 -0.3565,2.9175 -0.39313,4.23837 -0.0366,1.31588 0.0415,2.52725 0.26375,3.6225 0.22213,1.0825 0.59563,2.04888 1.1425,2.8735 0.3345,0.44775 0.69588,0.85263 1.11575,1.19638 0.40525,0.35012 0.86175,0.63762 1.362,0.87012 0.5125,0.23138 1.0675,0.39738 1.665,0.51263 0.60625,0.11475 1.2675,0.1685 1.98,0.15875 0.69875,-0.02 1.38,-0.0889 2.015,-0.21 0.64375,-0.12738 1.25625,-0.32275 1.8475,-0.55913 0.58375,-0.24462 1.15,-0.55225 1.685,-0.9135 0.535,-0.3535 1.055,-0.76375 1.55,-1.2275 0.89875,-0.8375 1.6525,-1.8125 2.3025,-2.90137 0.65625,-1.10113 1.19625,-2.314 1.6725,-3.625 0.25625,-0.708 0.485,-1.45513 0.7025,-2.22175 0.18625,-0.6445 0.35875,-1.30863 0.52,-1.98975 0.36375,-1.48438 0.68875,-3.04925 0.99375,-4.67525 0.15125,-0.76663 0.28125,-1.51125 0.4075,-2.2485 0.1475,-0.82525 0.27875,-1.64063 0.38625,-2.42688 0.205,-1.474 0.33375,-2.8565 0.35875,-4.14025 0.0312,-1.2825 -0.0512,-2.46625 -0.28125,-3.51875 -0.22625,-1.06125 -0.5975,-2.006247 -1.15625,-2.822497"
       style="fill:#c6193e;fill-opacity:1;fill-rule:nonzero;stroke:none"
       id="path14" /><path
       inkscape:connector-curvature="0"
       d="m 90.227082,99.137643 c -0.31975,-0.45125 -0.690875,-0.83375 -1.101,-1.18125 -0.40775,-0.33375 -0.8765,-0.62 -1.38425,-0.845 -0.507875,-0.23125 -1.059625,-0.405 -1.662625,-0.52625 -0.598125,-0.1075 -1.245125,-0.16125 -1.943375,-0.16875 -0.70075,0.005 -1.36475,0.05625 -1.997125,0.1725 -0.617625,0.115 -1.220625,0.28375 -1.784625,0.51625 -0.568875,0.23375 -1.106,0.52 -1.628375,0.86125 -0.5225,0.34125 -1.027875,0.74 -1.525875,1.18625 -0.90575,0.8175 -1.67975,1.769997 -2.3365,2.834997 -0.659125,1.07375 -1.223125,2.255 -1.689375,3.55875 -0.4835,1.2825 -0.88625,2.69375 -1.254875,4.18025 -0.3565,1.4795 -0.683625,3.05175 -0.996125,4.70463 -0.32475,1.63325 -0.61775,3.21525 -0.8325,4.70937 -0.217375,1.504 -0.358875,2.92238 -0.393125,4.24325 -0.0415,1.31588 0.03425,2.52725 0.256375,3.621 0.234375,1.084 0.598125,2.05275 1.15475,2.875 0.327125,0.44775 0.693375,0.85263 1.106,1.19638 0.402875,0.35012 0.866625,0.63762 1.372,0.87012 0.505375,0.23138 1.062125,0.39988 1.66025,0.51513 0.607875,0.11475 1.267,0.166 1.9775,0.15862 0.69825,-0.0151 1.3745,-0.0927 2.019,-0.20987 0.63975,-0.1275 1.254875,-0.32275 1.84575,-0.56163 0.581,-0.24462 1.145,-0.55225 1.682125,-0.91112 0.534625,-0.35588 1.059625,-0.76613 1.545375,-1.23488 0.8985,-0.8325 1.65525,-1.80025 2.309625,-2.89637 0.651875,-1.10113 1.193875,-2.314 1.669875,-3.62263 0.26375,-0.72025 0.49325,-1.477 0.715375,-2.25587 0.180625,-0.63713 0.356375,-1.28413 0.515125,-1.958 0.354,-1.48438 0.67875,-3.04925 0.99125,-4.67288 0.144,-0.76162 0.27825,-1.50137 0.40525,-2.2265 0.141625,-0.83987 0.275875,-1.65525 0.380875,-2.45125 0.212375,-1.474 0.34175,-2.859 0.36125,-4.14025 0.03663,-1.2825 -0.05363,-2.46625 -0.283125,-3.51875 -0.21975,-1.06125 -0.598125,-2.003747 -1.154875,-2.822497"
       style="fill:#c6193e;fill-opacity:1;fill-rule:nonzero;stroke:none"
       id="path16" /><path
       inkscape:connector-curvature="0"
       d="m 193.55258,99.018893 c -0.3225,-0.455 -0.69625,-0.8425 -1.11125,-1.19375 -0.4125,-0.3375 -0.88625,-0.63 -1.39375,-0.8525 -0.515,-0.23625 -1.07375,-0.41 -1.6825,-0.525 -0.605,-0.1175 -1.2625,-0.17125 -1.965,-0.175 -0.7075,0.0012 -1.3725,0.055 -2.01375,0.175 -0.6325,0.115 -1.23125,0.29125 -1.8025,0.5175 -0.57125,0.2375 -1.1225,0.525 -1.65,0.87 -0.5275,0.34375 -1.0375,0.74875 -1.53375,1.205 -0.9225,0.81875 -1.69125,1.779997 -2.36,2.858747 -0.66875,1.085 -1.22875,2.28375 -1.71375,3.59375 -0.48375,1.3 -0.89125,2.7225 -1.2625,4.21938 -0.36125,1.49412 -0.69125,3.0835 -1.01125,4.75087 -0.3225,1.648 -0.6175,3.24713 -0.8325,4.76563 -0.22375,1.50887 -0.36375,2.94925 -0.4,4.27987 -0.0387,1.3305 0.0413,2.55413 0.26125,3.65425 0.23125,1.09625 0.605,2.07375 1.16,2.90388 0.33375,0.456 0.7025,0.86375 1.1275,1.21087 0.4075,0.3565 0.86875,0.64163 1.3725,0.874 0.52,0.24125 1.07375,0.40725 1.68375,0.525 0.61375,0.11125 1.28,0.165 1.9975,0.15625 0.7075,-0.0153 1.39125,-0.0835 2.03625,-0.21487 0.64875,-0.125 1.2675,-0.32275 1.865,-0.55913 0.58875,-0.25237 1.16,-0.55712 1.70125,-0.92087 0.5375,-0.36138 1.065,-0.7715 1.56,-1.24263 0.91125,-0.85012 1.6775,-1.83112 2.3325,-2.92725 0.65625,-1.11287 1.205,-2.33887 1.68625,-3.66212 0.25875,-0.71788 0.49375,-1.47225 0.71375,-2.24613 0.2775,-0.86187 0.52375,-1.753 0.73875,-2.69287 0.31,-1.31838 0.57875,-2.71 0.8425,-4.15525 0.1275,-0.73738 0.25125,-1.45025 0.35875,-2.15338 0.14625,-0.83487 0.27625,-1.65775 0.38625,-2.45112 0.2075,-1.49188 0.34125,-2.88563 0.36125,-4.18438 0.0337,-1.29125 -0.0487,-2.49 -0.28625,-3.555 -0.22875,-1.07375 -0.6,-2.023747 -1.16625,-2.848747"
       style="fill:#c6193e;fill-opacity:1;fill-rule:nonzero;stroke:none"
       id="path18" /><path
       inkscape:connector-curvature="0"
       d="m 156.98758,107.35889 c -0.15875,2.05763 -0.47375,4.2965 -0.90125,6.77938 -0.4175,2.50237 -0.88125,4.77537 -1.4225,6.85787 -0.56,2.07763 -1.1925,3.97713 -1.95625,5.72513 -0.76875,1.74512 -1.67,3.34525 -2.73875,4.83887 -1.075,1.5015 -2.325,2.90475 -3.795,4.23138 -1.02,0.91999 -2.1675,1.80862 -3.44375,2.64849 -1.28,0.82276 -2.69125,1.59375 -4.23625,2.24663 -1.5525,0.65325 -3.225,1.186 -5.02875,1.59075 -1.8175,0.37887 -3.7575,0.61525 -5.82875,0.63525 -2.08,0.0386 -3.94725,-0.14113 -5.62938,-0.48625 -1.69187,-0.33888 -3.191,-0.84138 -4.51425,-1.4615 -1.32325,-0.6235 -2.48287,-1.35737 -3.4765,-2.17625 -0.99362,-0.815 -1.8335,-1.69875 -2.53662,-2.605 -1.023,-1.32712 -1.7945,-2.71488 -2.35113,-4.2285 -0.559,-1.50387 -0.8935,-3.12013 -1.04237,-4.88475 -0.15138,-1.77787 -0.11975,-3.69875 0.0756,-5.813 0.19038,-2.1265 0.53463,-4.42875 0.9985,-6.98237 0.47125,-2.52688 0.98875,-4.817 1.5845,-6.89988 0.59575,-2.0925 1.2695,-3.98375 2.07763,-5.7275 0.81062,-1.737497 1.74075,-3.319997 2.85162,-4.799997 1.11563,-1.46625 2.39013,-2.83375 3.88663,-4.13 1.023,-0.88625 2.1705,-1.74875 3.44975,-2.53875 1.27925,-0.80125 2.681,-1.51125 4.20225,-2.1275 1.5275,-0.5975 3.185,-1.09875 4.9625,-1.4325 1.7825,-0.345 3.68,-0.525 5.70875,-0.5025 2.01125,0.01125 3.8375,0.22125 5.47625,0.5875 1.6475,0.35875 3.1075,0.88125 4.40375,1.49875 1.29125,0.61875 2.42,1.36 3.39375,2.16125 0.96875,0.79625 1.7825,1.65 2.45375,2.54375 1,1.28875 1.7675,2.63875 2.31375,4.09625 0.56125,1.4625 0.90375,3.018747 1.065,4.732497 0.17125,1.71125 0.15875,3.57375 -0.002,5.6225 z m -51.88012,0.005 c -0.15863,2.05263 -0.47113,4.2915 -0.90088,6.77675 -0.4125,2.5 -0.87887,4.77787 -1.42812,6.8555 -0.542,2.07763 -1.18175,3.97713 -1.94825,5.72025 -0.76425,1.75487 -1.665128,3.35738 -2.734378,4.84612 -1.079125,1.49913 -2.331625,2.90538 -3.798875,4.229 -1.0205,0.92 -2.163125,1.80863 -3.444875,2.6485 -1.27675,0.82275 -2.687875,1.59375 -4.23575,2.24363 -1.5455,0.65925 -3.22275,1.19137 -5.029375,1.59375 -1.8115,0.3765 -3.762125,0.61525 -5.83,0.64012 -2.070375,0.0312 -3.945375,-0.146 -5.625,-0.48875 -1.684625,-0.33587 -3.193375,-0.84125 -4.509375,-1.47362 -1.3305,-0.61375 -2.478,-1.34762 -3.4765,-2.16113 -0.9985,-0.815 -1.836,-1.70112 -2.534125,-2.61037 -1.0255,-1.32713 -1.799375,-2.71875 -2.3585,-4.2285 -0.554125,-1.50387 -0.886125,-3.12013 -1.0375,-4.895 -0.149,-1.76762 -0.11725,-3.6885 0.07563,-5.80037 0.190375,-2.12888 0.537125,-4.42863 1.005875,-6.98238 0.46875,-2.52925 0.983875,-4.81937 1.577125,-6.89975 0.598125,-2.09875 1.274375,-3.98625 2.080125,-5.7325 0.8105,-1.734997 1.745625,-3.319997 2.8515,-4.797497 1.106,-1.46875 2.382875,-2.83375 3.8745,-4.13 1.023,-0.87875 2.17775,-1.74625 3.45225,-2.53875 1.27675,-0.80125 2.680625,-1.51125 4.204,-2.125 1.53075,-0.6 3.186125,-1.10125 4.963375,-1.44 1.777375,-0.34 3.681625,-0.52 5.708,-0.49375 2.01175,0.0075 3.838,0.2175 5.476125,0.58625 1.648,0.36125 3.107875,0.87875 4.40425,1.49625 1.294,0.62125 2.421875,1.3625 3.393625,2.15625 0.969253,0.80125 1.779753,1.655 2.448753,2.54875 1.00588,1.28875 1.7675,2.635 2.32413,4.09625 0.54937,1.47 0.896,3.019997 1.05962,4.734997 0.17337,1.70375 0.15625,3.57125 -0.007,5.625 z M 224.18758,70.427643 c -0.655,0.11625 -1.28,0.3025 -1.87,0.54125 -0.59875,0.2475 -1.17,0.5475 -1.72375,0.90625 -0.5425,0.35875 -1.0775,0.78375 -1.59,1.2575 -0.95625,0.85375 -1.755,1.8575 -2.45375,2.97875 -0.68875,1.13 -1.27375,2.3775 -1.77,3.7425 -0.5025,1.3525 -0.9275,2.83375 -1.31375,4.39125 -0.37,1.55625 -0.71,3.21125 -1.04,4.94875 -0.2,1.0375 -1.88875,10.964997 -3.24125,19.018747 -0.005,0 -1.83625,10.4495 -1.83625,10.4495 0,0 -0.0437,0.26375 -0.1075,0.65675 -0.0312,0.19287 -0.0763,0.39312 -0.1075,0.58112 -0.13875,0.83975 -0.24125,1.64063 -0.3175,2.42425 -0.0412,0.35163 -0.075,0.65675 -0.085,0.88625 -0.0175,0.30763 -0.0487,0.92526 -0.0487,0.92526 0.0137,0.0464 0.0213,0.0927 0.0263,0.13675 -0.008,0.8125 0.0225,1.59137 0.14875,2.30512 0.17375,0.92238 0.46375,1.755 0.92125,2.46738 0.27,0.38862 0.57125,0.73775 0.915,1.03762 0.3425,0.30613 0.7275,0.56 1.1475,0.77 0.43,0.2075 0.89375,0.35887 1.40125,0.46875 0.0812,0.0185 0.17125,0.0215 0.25875,0.0385 l -3.69875,11.85263 c -0.3825,0.008 -0.75875,0.0254 -1.1525,0.0126 -1.39375,-0.0537 -2.675,-0.21 -3.845,-0.49512 -1.1625,-0.27338 -2.23375,-0.66013 -3.2125,-1.16501 -0.18375,-0.0947 -0.34625,-0.21487 -0.52,-0.31737 -0.69125,-0.3535 -1.345,-0.73 -1.93875,-1.16263 -0.90375,-0.65137 -1.69375,-1.40137 -2.34875,-2.21087 -1.045,-1.32912 -1.77,-2.87413 -2.25625,-4.55913 -0.5925,1.05275 -1.315,2.09526 -2.1775,3.08638 -0.3825,0.44 -0.77625,0.83988 -1.17875,1.23 l -0.0413,0.0586 c -0.0837,0.0738 -0.16125,0.14262 -0.2425,0.21 -0.1975,0.18649 -0.395,0.36125 -0.5975,0.53262 -0.01,0.007 -0.0125,0.01 -0.0275,0.0176 -0.205,0.17962 -0.4225,0.36137 -0.63625,0.52487 -0.63,0.5 -1.2575,0.95612 -1.8875,1.355 -1.1325,0.7275 -2.275,1.30375 -3.4525,1.73725 -1.17875,0.43025 -2.4025,0.73537 -3.67875,0.91413 -1.29375,0.17237 -2.64375,0.22612 -4.0975,0.18212 -1.3325,-0.0507 -2.61875,-0.21487 -3.8425,-0.49225 -1.22,-0.28612 -2.385,-0.6665 -3.4425,-1.15525 -1.07375,-0.48575 -2.04125,-1.07375 -2.9,-1.73337 -0.855,-0.65863 -1.60125,-1.40863 -2.205,-2.21875 -1.09875,-1.47751 -1.80625,-3.20113 -2.21625,-5.09038 -0.4125,-1.8735 -0.53,-3.916 -0.47125,-6.0385 0.0687,-2.12112 0.33625,-4.30862 0.68125,-6.5035 0.36125,-2.185 0.805,-4.36762 1.2475,-6.47212 0.435,-2.09475 0.89625,-4.27488 1.4375,-6.42563 0.55,-2.15375 1.1775,-4.29 1.96125,-6.33375 0.77875,-2.037497 1.71125,-3.976247 2.86125,-5.729997 1.14,-1.7475 2.5075,-3.3225 4.1525,-4.61875 0.90375,-0.73 1.91375,-1.37125 2.99125,-1.94375 1.08125,-0.55125 2.23375,-1.015 3.4375,-1.38125 1.19875,-0.37375 2.455,-0.6325 3.735,-0.79625 1.27625,-0.15125 2.5775,-0.195 3.88875,-0.12125 1.3525,0.0825 2.62,0.24875 3.78375,0.5175 1.165,0.26875 2.24625,0.63625 3.235,1.1375 0.98375,0.4925 1.885,1.1175 2.705,1.865 0.7275,0.67625 1.3825,1.4775 1.985,2.3825 0.11,-0.77875 0.225,-1.5675 0.36875,-2.3825 0.37375,-2.03875 0.845,-4.1875 1.365,-6.39125 0.51,-2.24125 1.0375,-4.365 1.59,-6.3675 0.575,-2.0025 1.19875,-3.90125 1.91625,-5.635 0.24375,-0.595 0.505,-1.16875 0.77625,-1.73375 0.07,-0.1575 0.1875,-0.3925 0.34625,-0.705 0.0225,-0.04875 0.0487,-0.1 0.0762,-0.15125 0.105,-0.195 0.22375,-0.4075 0.36125,-0.645 0.2925,-0.5275 0.5975,-1.04 0.92,-1.53 0.60375,-0.89875 1.265,-1.72375 1.99,-2.48125 2.31375,-2.5625 5.77625,-5.2 10.6025,-6.07125 -20.26625,-34.61 -57.815,-57.87625025 -100.82,-57.917500253515 C 52.456082,-0.06610725 0.06111673,52.211393 8.1596523e-5,116.77989 -0.02189102,135.55626 4.3946191,153.29639 12.243732,169.02639 c 2.326725,-1.0625 4.326225,-2.80763 5.7251,-5.09762 l 0.07562,-0.10013 c 0.03663,-0.0561 0.07575,-0.11475 0.112375,-0.16837 0.681125,-1.07038 1.24025,-2.229 1.709,-3.54251 0.44425,-1.19637 0.837375,-2.56149 1.203625,-4.17537 0.05612,-0.266 8.920875,-48.53225 9.453125,-51.421 l -7.74412,0.0125 3.803625,-12.863747 6.069375,-0.0225 0.6445,-3.34875 c 0.07325,-0.4575 0.141625,-0.90625 0.22225,-1.37 l 0.192875,-1.08375 c 0.358875,-2.06125 0.769,-4.4 1.179125,-6.0525 0.329625,-1.375 0.647,-2.505 1.003375,-3.5525 0.503,-1.58 1.030375,-2.97125 1.599125,-4.245 0.913125,-2.01 1.9385,-3.77 3.132375,-5.39125 1.25,-1.69625 2.65375,-3.2225 4.27975,-4.6625 1.171875,-1.0375 2.4585,-2.005 3.818375,-2.87625 1.445375,-0.925 3.02,-1.74125 4.672875,-2.4225 1.799375,-0.7325 3.659625,-1.29375 5.5225,-1.6725 2.05075,-0.41 4.169875,-0.6175 6.30125,-0.6175 l 0.2685,-0.0025 c 2.1045,0 4.09425,0.20125 5.9205,0.59375 0.725,0.14625 1.394,0.35125 2.041,0.545 l 0.107375,0.03375 -4.235875,13.60125 -0.17575,-0.1 c -0.0855,-0.04875 -0.173375,-0.1 -0.263625,-0.1425 -0.644625,-0.3025 -1.352625,-0.53375 -2.107,-0.6925 -0.7885,-0.16625 -1.638125,-0.25375 -2.536625,-0.25375 l -0.08537,0 c -0.9375,0 -1.850625,0.09 -2.732,0.265 -0.77875,0.15875 -1.538,0.38875 -2.326625,0.70625 l -0.100125,0.03125 c -0.04637,0.0125 -0.08787,0.025 -0.131875,0.0425 -0.588375,0.22125 -1.15225,0.4975 -1.7285,0.84375 -0.55175,0.3475 -1.09125,0.74 -1.59425,1.1725 -0.9155,0.77375 -1.701625,1.68 -2.40475,2.77375 -0.6665,1.04375 -1.2085,2.18 -1.67475,3.47125 -0.432125,1.165 -0.817875,2.5 -1.17925,4.09125 -0.04387,0.18625 -0.2515,1.3625 -0.432125,2.4 -0.1465,0.8475 -0.28075,1.62375 -0.314875,1.785 l -0.871625,6.14 9.267625,-0.02875 -3.820875,12.922497 -7.575625,-0.045 -6.9995,38.90475 -1.80425,9.44775 c -0.42475,2.23638 -0.788625,4.106 -1.32575,6.0625 -0.671375,2.4585 -1.42325,4.59875 -2.294875,6.54737 -0.922875,2.02638 -1.965375,3.82626 -3.190875,5.5 -1.272,1.72125 -2.69775,3.2725 -4.36525,4.74913 -1.22075,1.081 -2.52925,2.06587 -3.894,2.93988 -1.18175,0.75337 -2.434125,1.42724 -3.737875,2.01862 20.83737,31.94862 56.87262,53.08393 97.871118,53.1225 64.5555,0.0664 116.9455,-52.21138 117.01425,-116.77975 0.015,-16.55775 -3.42,-32.313997 -9.61125,-46.591497 0,0 -0.002,0 -0.007,0"
       style="fill:#c6193e;fill-opacity:1;fill-rule:nonzero;stroke:none"
       id="path20" /><path
       inkscape:connector-curvature="0"
       d="m 141.39633,118.96977 c -0.16125,0.68112 -0.33375,1.34525 -0.52,1.98975 0.27375,-0.852 0.52,-1.73588 0.735,-2.6685 0.31,-1.30363 0.57625,-2.67813 0.8325,-4.11125 0.13,-0.7275 0.25125,-1.438 0.35375,-2.13375 -0.12625,0.73725 -0.25625,1.48187 -0.4075,2.2485 -0.305,1.626 -0.63,3.19087 -0.99375,4.67525"
       style="fill:#c6193e;fill-opacity:1;fill-rule:nonzero;stroke:none"
       id="path22" /><path
       inkscape:connector-curvature="0"
       d="m 143.54258,105.47889 c -0.025,1.28375 -0.15375,2.66625 -0.35875,4.14025 -0.1075,0.78625 -0.23875,1.60163 -0.38625,2.42688 -0.1025,0.69575 -0.22375,1.40625 -0.35375,2.13375 -0.25625,1.43312 -0.5225,2.80762 -0.8325,4.11125 -0.215,0.93262 -0.46125,1.8165 -0.735,2.6685 -0.2175,0.76662 -0.44625,1.51375 -0.7025,2.22175 -0.47625,1.311 -1.01625,2.52387 -1.6725,3.625 -0.65,1.08887 -1.40375,2.06387 -2.3025,2.90137 -0.495,0.46375 -1.015,0.874 -1.55,1.2275 -0.535,0.36125 -1.10125,0.66888 -1.685,0.9135 -0.59125,0.23637 -1.20375,0.43175 -1.8475,0.55913 -0.635,0.12112 -1.31625,0.19 -2.015,0.20999 -0.7125,0.01 -1.37375,-0.044 -1.98,-0.15875 -0.5975,-0.11525 -1.1525,-0.28125 -1.665,-0.51262 -0.50025,-0.2325 -0.95675,-0.52 -1.362,-0.87012 -0.41988,-0.34375 -0.78125,-0.74863 -1.11575,-1.19638 -0.54688,-0.82463 -0.92038,-1.791 -1.1425,-2.8735 -0.22225,-1.09525 -0.30038,-2.30663 -0.26375,-3.6225 0.0366,-1.32088 0.17825,-2.74913 0.39312,-4.23838 0.21963,-1.50137 0.51025,-3.0835 0.8325,-4.71425 0.3125,-1.65537 0.63713,-3.22512 0.9985,-4.7095 0.36863,-1.47912 0.7715,-2.88787 1.24988,-4.17537 0.47375,-1.30125 1.0325,-2.485 1.6975,-3.55875 0.65625,-1.065 1.425,-2.017497 2.33125,-2.832497 0.495,-0.45125 0.99875,-0.85 1.52125,-1.19125 0.525,-0.33875 1.06875,-0.6275 1.6325,-0.85875 0.56625,-0.225 1.165,-0.40125 1.7875,-0.51625 0.635,-0.11625 1.29625,-0.1675 1.9975,-0.1725 0.695,0.005 1.34,0.05875 1.9425,0.1725 0.59875,0.115 1.1575,0.28625 1.6625,0.5225 0.50375,0.22 0.9725,0.51125 1.385,0.845 0.41,0.3475 0.78125,0.73 1.10125,1.18125 0.55875,0.81625 0.93,1.761247 1.15625,2.822497 0.23,1.0525 0.3125,2.23625 0.28125,3.51875 z m 12.3825,-8.474997 c -0.54625,-1.4575 -1.31375,-2.8075 -2.31375,-4.09625 -0.67125,-0.89375 -1.485,-1.7475 -2.45375,-2.54375 -0.97375,-0.80125 -2.1025,-1.5425 -3.39375,-2.16125 -1.29625,-0.6175 -2.75625,-1.14 -4.40375,-1.49875 -1.63875,-0.36625 -3.465,-0.57625 -5.47625,-0.5875 -2.02875,-0.0225 -3.92625,0.1575 -5.70875,0.5025 -1.7775,0.33375 -3.435,0.835 -4.9625,1.4325 -1.52125,0.61625 -2.923,1.32625 -4.20225,2.1275 -1.27925,0.79 -2.42675,1.6525 -3.44975,2.53875 -1.4965,1.29625 -2.771,2.66375 -3.88663,4.13 -1.11087,1.48 -2.041,3.0625 -2.85162,4.799997 -0.80813,1.74375 -1.48188,3.635 -2.07763,5.7275 -0.59575,2.08288 -1.11325,4.373 -1.5845,6.89988 -0.46387,2.55362 -0.80812,4.85587 -0.9985,6.98237 -0.19537,2.11425 -0.227,4.03513 -0.0756,5.813 0.14887,1.76463 0.48337,3.38088 1.04237,4.88475 0.55663,1.51363 1.32813,2.90138 2.35113,4.2285 0.70312,0.90625 1.543,1.79 2.53662,2.605 0.99363,0.81888 2.15325,1.55275 3.4765,2.17625 1.32325,0.62013 2.82238,1.12263 4.51425,1.4615 1.68213,0.34513 3.54938,0.52488 5.62938,0.48625 2.07125,-0.02 4.01125,-0.25637 5.82875,-0.63525 1.80375,-0.40475 3.47625,-0.9375 5.02875,-1.59075 1.545,-0.65287 2.95625,-1.42387 4.23625,-2.24662 1.27625,-0.83988 2.42375,-1.7285 3.44375,-2.6485 1.47,-1.32663 2.72,-2.72988 3.795,-4.23138 1.06875,-1.49362 1.97,-3.09375 2.73875,-4.83887 0.76375,-1.748 1.39625,-3.6475 1.95625,-5.72513 0.54125,-2.0825 1.005,-4.3555 1.4225,-6.85787 0.4275,-2.48288 0.7425,-4.72175 0.90125,-6.77938 0.16125,-2.04875 0.17375,-3.91125 0.002,-5.6225 -0.16125,-1.71375 -0.50375,-3.269997 -1.065,-4.732497"
       style="fill:#ffffff;fill-opacity:1;fill-rule:nonzero;stroke:none"
       id="path24" /><path
       inkscape:connector-curvature="0"
       d="m 26.552832,175.71789 c 1.6675,-1.47663 3.09325,-3.02788 4.36525,-4.74913 1.2255,-1.67374 2.268,-3.47362 3.190875,-5.5 0.871625,-1.94862 1.6235,-4.08887 2.294875,-6.54737 0.537125,-1.9565 0.901,-3.82613 1.32575,-6.0625 l 1.80425,-9.44775 6.9995,-38.90475 7.575625,0.045 3.820875,-12.922497 -9.267625,0.02875 0.871625,-6.14 c 0.03413,-0.16125 0.168375,-0.9375 0.314875,-1.785 0.180625,-1.0375 0.38825,-2.21375 0.432125,-2.4 0.361375,-1.59125 0.747125,-2.92625 1.17925,-4.09125 0.46625,-1.29125 1.00825,-2.4275 1.67475,-3.47125 0.703125,-1.09375 1.48925,-2 2.40475,-2.77375 0.503,-0.4325 1.0425,-0.825 1.59425,-1.1725 0.57625,-0.34625 1.140125,-0.6225 1.7285,-0.84375 0.044,-0.0175 0.0855,-0.03 0.131875,-0.0425 l 0.100125,-0.03125 c 0.788625,-0.3175 1.547875,-0.5475 2.326625,-0.70625 0.881375,-0.175 1.7945,-0.265 2.732,-0.265 l 0.08537,0 c 0.8985,0 1.748125,0.0875 2.536625,0.25375 0.754375,0.15875 1.462375,0.39 2.107,0.6925 0.09025,0.0425 0.178125,0.09375 0.263625,0.1425 l 0.17575,0.1 4.23588,-13.60125 -0.107375,-0.03375 c -0.647,-0.19375 -1.316,-0.39875 -2.041,-0.545 -1.82625,-0.3925 -3.816,-0.59375 -5.9205,-0.59375 l -0.2685,0.0025 c -2.131375,0 -4.2505,0.2075 -6.30125,0.6175 -1.862875,0.37875 -3.723125,0.94 -5.5225,1.6725 -1.652875,0.68125 -3.2275,1.4975 -4.672875,2.4225 -1.359875,0.87125 -2.6465,1.83875 -3.818375,2.87625 -1.626,1.44 -3.02975,2.96625 -4.27975,4.6625 -1.193875,1.62125 -2.21925,3.38125 -3.132375,5.39125 -0.56875,1.27375 -1.096125,2.665 -1.599125,4.245 -0.356375,1.0475 -0.67375,2.1775 -1.003375,3.5525 -0.410125,1.6525 -0.82025,3.99125 -1.179125,6.0525 l -0.192875,1.08375 c -0.08062,0.46375 -0.149,0.9125 -0.22225,1.37 l -0.6445,3.34875 -6.069375,0.0225 -3.803625,12.863747 7.744125,-0.0125 c -0.53225,2.88875 -9.397,51.155 -9.453125,51.421 -0.36625,1.61388 -0.759375,2.979 -1.203625,4.17538 -0.46875,1.3135 -1.027875,2.47212 -1.709,3.5425 -0.03662,0.0536 -0.07575,0.11225 -0.112375,0.16837 l -0.07562,0.10013 c -1.398875,2.29 -3.398375,4.03512 -5.7251,5.09762 2.00685,4.01863 4.23585,7.90725 6.677225,11.65 1.30375,-0.59137 2.556125,-1.26525 3.737875,-2.01862 1.36475,-0.874 2.67325,-1.85888 3.894,-2.93988"
       style="fill:#ffffff;fill-opacity:1;fill-rule:nonzero;stroke:none"
       id="path26" /><path
       inkscape:connector-curvature="0"
       d="m 89.526457,118.96977 c -0.15875,0.67387 -0.3345,1.32087 -0.515125,1.958 0.2685,-0.84475 0.515125,-1.71625 0.7275,-2.63675 0.30525,-1.30125 0.57125,-2.67813 0.82525,-4.11125 0.129375,-0.72025 0.251375,-1.42826 0.358875,-2.10938 -0.127,0.72513 -0.26125,1.46488 -0.40525,2.2265 -0.3125,1.62363 -0.63725,3.1885 -0.99125,4.67288"
       style="fill:#c6193e;fill-opacity:1;fill-rule:nonzero;stroke:none"
       id="path28" /><path
       inkscape:connector-curvature="0"
       d="m 91.665082,105.47889 c -0.0195,1.28125 -0.148875,2.66625 -0.36125,4.14025 -0.105,0.796 -0.23925,1.61138 -0.380875,2.45125 -0.1075,0.68113 -0.2295,1.38913 -0.358875,2.10938 -0.254,1.43312 -0.52,2.81 -0.82525,4.11125 -0.212375,0.9205 -0.459,1.792 -0.7275,2.63675 -0.222125,0.77887 -0.451625,1.53562 -0.715375,2.25587 -0.476,1.30863 -1.018,2.5215 -1.669875,3.62263 -0.654375,1.09612 -1.411125,2.06387 -2.309625,2.89637 -0.48575,0.46875 -1.01075,0.879 -1.545375,1.23488 -0.537125,0.35887 -1.101125,0.6665 -1.682125,0.91112 -0.590875,0.23888 -1.206,0.43413 -1.84575,0.56163 -0.6445,0.11712 -1.32075,0.19475 -2.019,0.20987 -0.7105,0.007 -1.369625,-0.0439 -1.9775,-0.15862 -0.598125,-0.11525 -1.154875,-0.28375 -1.66025,-0.51513 -0.505375,-0.2325 -0.969125,-0.52 -1.372,-0.87012 -0.412625,-0.34375 -0.778875,-0.74863 -1.106,-1.19638 -0.556625,-0.82225 -0.920375,-1.791 -1.15475,-2.875 -0.222125,-1.09375 -0.297875,-2.30512 -0.256375,-3.621 0.03425,-1.32087 0.17575,-2.73925 0.393125,-4.24325 0.21475,-1.49412 0.50775,-3.07612 0.8325,-4.70937 0.3125,-1.65288 0.639625,-3.22513 0.996125,-4.70463 0.368625,-1.4865 0.771375,-2.89775 1.254875,-4.18025 0.46625,-1.30375 1.03025,-2.485 1.689375,-3.55875 0.65675,-1.065 1.43075,-2.017497 2.3365,-2.834997 0.498,-0.44625 1.003375,-0.845 1.525875,-1.18625 0.522375,-0.34125 1.0595,-0.6275 1.628375,-0.86125 0.564,-0.2325 1.167,-0.40125 1.784625,-0.51625 0.632375,-0.11625 1.296375,-0.1675 1.997125,-0.1725 0.69825,0.0075 1.34525,0.06125 1.943375,0.16875 0.603,0.12125 1.15475,0.295 1.662625,0.52625 0.50775,0.225 0.9765,0.51125 1.38425,0.845 0.410125,0.3475 0.78125,0.73 1.101,1.18125 0.55675,0.81875 0.935125,1.761247 1.154875,2.822497 0.2295,1.0525 0.31975,2.23625 0.283125,3.51875 z m 12.390128,-8.474997 c -0.55663,-1.46125 -1.31826,-2.8075 -2.32413,-4.09625 -0.669,-0.89375 -1.4795,-1.7475 -2.448748,-2.54875 -0.97175,-0.79375 -2.099625,-1.535 -3.393625,-2.15625 -1.296375,-0.6175 -2.75625,-1.135 -4.40425,-1.49625 -1.638125,-0.36875 -3.464375,-0.57875 -5.476125,-0.58625 -2.026375,-0.02625 -3.930625,0.15375 -5.708,0.49375 -1.77725,0.33875 -3.432625,0.84 -4.963375,1.44 -1.523375,0.61375 -2.92725,1.32375 -4.204,2.125 -1.2745,0.7925 -2.42925,1.66 -3.45225,2.53875 -1.491625,1.29625 -2.7685,2.66125 -3.8745,4.13 -1.105875,1.4775 -2.041,3.0625 -2.8515,4.797497 -0.80575,1.74625 -1.482,3.63375 -2.080125,5.7325 -0.59325,2.08038 -1.108375,4.3705 -1.577125,6.89975 -0.46875,2.55375 -0.8155,4.8535 -1.005875,6.98238 -0.192875,2.11187 -0.224625,4.03275 -0.07563,5.80037 0.151375,1.77487 0.483375,3.39113 1.0375,4.895 0.559125,1.50975 1.333,2.90138 2.3585,4.2285 0.698125,0.90925 1.535625,1.79538 2.534125,2.61038 0.9985,0.8135 2.146,1.54737 3.4765,2.16112 1.316,0.63237 2.82475,1.13775 4.509375,1.47362 1.679625,0.34275 3.554625,0.52001 5.625,0.48876 2.067875,-0.0249 4.0185,-0.26363 5.83,-0.64013 1.806625,-0.40238 3.483875,-0.9345 5.029375,-1.59375 1.547875,-0.64988 2.959,-1.42087 4.23575,-2.24363 1.28175,-0.83987 2.424375,-1.7285 3.444875,-2.64849 1.46725,-1.32363 2.71975,-2.72988 3.798875,-4.22901 1.06925,-1.48874 1.970113,-3.09125 2.734363,-4.84612 0.7665,-1.74312 1.40625,-3.64262 1.94825,-5.72025 0.54925,-2.07762 1.01563,-4.3555 1.42813,-6.8555 0.42975,-2.48525 0.74225,-4.72412 0.90087,-6.77675 0.16363,-2.05375 0.18075,-3.92125 0.007,-5.625 -0.16363,-1.715 -0.51025,-3.264997 -1.05963,-4.734997"
       style="fill:#ffffff;fill-opacity:1;fill-rule:nonzero;stroke:none"
       id="path30" /><path
       inkscape:connector-curvature="0"
       d="m 195.00508,105.42264 c -0.02,1.29875 -0.15375,2.6925 -0.36125,4.18438 -0.11,0.79337 -0.24,1.61625 -0.38625,2.45112 -0.1075,0.70313 -0.23125,1.416 -0.35875,2.15338 -0.26375,1.44525 -0.5325,2.83687 -0.8425,4.15525 -0.215,0.93987 -0.46125,1.831 -0.73875,2.69287 -0.22,0.77388 -0.455,1.52825 -0.71375,2.24613 -0.48125,1.32325 -1.03,2.54925 -1.68625,3.66212 -0.655,1.09613 -1.42125,2.07713 -2.3325,2.92725 -0.495,0.47113 -1.0225,0.88125 -1.56,1.24263 -0.54125,0.36375 -1.1125,0.6685 -1.70125,0.92087 -0.5975,0.23638 -1.21625,0.43412 -1.865,0.55912 -0.645,0.13138 -1.32875,0.19963 -2.03625,0.21488 -0.7175,0.009 -1.38375,-0.045 -1.9975,-0.15625 -0.61,-0.11775 -1.16375,-0.28375 -1.68375,-0.525 -0.50375,-0.23237 -0.965,-0.5175 -1.3725,-0.874 -0.425,-0.34713 -0.79375,-0.75487 -1.1275,-1.21087 -0.555,-0.83013 -0.92875,-1.80763 -1.16,-2.90388 -0.22,-1.10012 -0.3,-2.32375 -0.26125,-3.65425 0.0362,-1.33062 0.17625,-2.771 0.4,-4.27987 0.215,-1.5185 0.51,-3.11763 0.8325,-4.76563 0.32,-1.66737 0.65,-3.25675 1.01125,-4.75087 0.37125,-1.49688 0.77875,-2.91938 1.2625,-4.21938 0.485,-1.31 1.045,-2.50875 1.71375,-3.59375 0.66875,-1.07875 1.4375,-2.039997 2.36,-2.858747 0.49625,-0.45625 1.00625,-0.86125 1.53375,-1.205 0.5275,-0.345 1.07875,-0.6325 1.65,-0.87 0.57125,-0.22625 1.17,-0.4025 1.8025,-0.5175 0.64125,-0.12 1.30625,-0.17375 2.01375,-0.175 0.7025,0.0037 1.36,0.0575 1.965,0.175 0.60875,0.115 1.1675,0.28875 1.6825,0.525 0.5075,0.2225 0.98125,0.515 1.39375,0.8525 0.415,0.35125 0.78875,0.73875 1.11125,1.19375 0.56625,0.825 0.9375,1.774997 1.16625,2.848747 0.2375,1.065 0.32,2.26375 0.28625,3.555 z m 12.24125,-41.433747 c -0.725,0.7575 -1.38625,1.5825 -1.99,2.48125 -0.3225,0.49 -0.6275,1.0025 -0.92,1.53 -0.1375,0.2375 -0.25625,0.45 -0.36125,0.645 -0.0275,0.05125 -0.0538,0.1025 -0.0762,0.15125 -0.15875,0.3125 -0.27625,0.5475 -0.34625,0.705 -0.27125,0.565 -0.5325,1.13875 -0.77625,1.73375 -0.7175,1.73375 -1.34125,3.6325 -1.91625,5.635 -0.5525,2.0025 -1.08,4.12625 -1.59,6.3675 -0.52,2.20375 -0.99125,4.3525 -1.365,6.39125 -0.14375,0.815 -0.25875,1.60375 -0.36875,2.3825 -0.6025,-0.905 -1.2575,-1.70625 -1.985,-2.3825 -0.82,-0.7475 -1.72125,-1.3725 -2.705,-1.865 -0.98875,-0.50125 -2.07,-0.86875 -3.235,-1.1375 -1.16375,-0.26875 -2.43125,-0.435 -3.78375,-0.5175 -1.31125,-0.07375 -2.6125,-0.03 -3.88875,0.12125 -1.28,0.16375 -2.53625,0.4225 -3.735,0.79625 -1.20375,0.36625 -2.35625,0.83 -3.4375,1.38125 -1.0775,0.5725 -2.0875,1.21375 -2.99125,1.94375 -1.645,1.29625 -3.0125,2.87125 -4.1525,4.61875 -1.15,1.75375 -2.0825,3.6925 -2.86125,5.729997 -0.78375,2.04375 -1.41125,4.18 -1.96125,6.33375 -0.54125,2.15075 -1.0025,4.33087 -1.4375,6.42562 -0.4425,2.1045 -0.88625,4.28713 -1.2475,6.47213 -0.345,2.19487 -0.6125,4.38237 -0.68125,6.5035 -0.0588,2.1225 0.0588,4.165 0.47125,6.0385 0.41,1.88925 1.1175,3.61287 2.21625,5.09037 0.60375,0.81013 1.35,1.56013 2.205,2.21875 0.85875,0.65963 1.82625,1.24763 2.9,1.73338 1.0575,0.48875 2.2225,0.86912 3.4425,1.15525 1.22375,0.27737 2.51,0.4415 3.8425,0.49225 1.45375,0.044 2.80375,-0.01 4.0975,-0.18213 1.27625,-0.17875 2.5,-0.48387 3.67875,-0.91412 1.1775,-0.4335 2.32,-1.00975 3.4525,-1.73725 0.63,-0.39888 1.2575,-0.855 1.8875,-1.355 0.21375,-0.1635 0.43125,-0.34525 0.63625,-0.52488 0.015,-0.008 0.0175,-0.0102 0.0275,-0.0176 0.2025,-0.17138 0.4,-0.34613 0.5975,-0.53263 0.0813,-0.0674 0.15875,-0.13625 0.2425,-0.21 l 0.0413,-0.0586 c 0.4025,-0.39013 0.79625,-0.79 1.17875,-1.23 0.8625,-0.99113 1.585,-2.03363 2.1775,-3.08638 0.48625,1.685 1.21125,3.23 2.25625,4.55913 0.655,0.8095 1.445,1.5595 2.34875,2.21087 0.59375,0.43263 1.2475,0.80913 1.93875,1.16263 0.17375,0.1025 0.33625,0.22262 0.52,0.31737 0.97875,0.50488 2.05,0.89163 3.2125,1.165 1.17,0.28513 2.45125,0.44138 3.845,0.49513 0.39375,0.0128 0.77,-0.005 1.1525,-0.0126 l 3.69875,-11.85262 c -0.0875,-0.017 -0.1775,-0.02 -0.25875,-0.0385 -0.5075,-0.10988 -0.97125,-0.26125 -1.40125,-0.46875 -0.42,-0.21 -0.805,-0.46388 -1.1475,-0.77 -0.34375,-0.29988 -0.645,-0.649 -0.915,-1.03763 -0.4575,-0.71237 -0.7475,-1.545 -0.92125,-2.46737 -0.12625,-0.71375 -0.15625,-1.49263 -0.14875,-2.30513 -0.005,-0.044 -0.0125,-0.0904 -0.0263,-0.13675 0,0 0.0312,-0.61762 0.0487,-0.92525 0.01,-0.2295 0.0438,-0.53462 0.085,-0.88625 0.0763,-0.78362 0.17875,-1.5845 0.3175,-2.42425 0.0312,-0.188 0.0763,-0.38825 0.1075,-0.58112 0.0637,-0.393 0.1075,-0.65675 0.1075,-0.65675 0,0 1.83125,-10.4495 1.83625,-10.4495 1.3525,-8.05375 3.04125,-17.981247 3.24125,-19.018747 0.33,-1.7375 0.67,-3.3925 1.04,-4.94875 0.38625,-1.5575 0.81125,-3.03875 1.31375,-4.39125 0.49625,-1.365 1.08125,-2.6125 1.77,-3.7425 0.69875,-1.12125 1.4975,-2.125 2.45375,-2.97875 0.5125,-0.47375 1.0475,-0.89875 1.59,-1.2575 0.55375,-0.35875 1.125,-0.65875 1.72375,-0.90625 0.59,-0.23875 1.215,-0.425 1.87,-0.54125 0.005,0 0.005,0 0.005,0 -1.86625,-4.31125 -3.985,-8.48625 -6.34375,-12.51 -4.82625,0.87118 -8.28875,3.50868 -10.6025,6.07118"
       style="fill:#ffffff;fill-opacity:1;fill-rule:nonzero;stroke:none"
       id="path32" /><path
       inkscape:connector-curvature="0"
       d="m 74.423957,172.34626 0,-8.33012 c 0,-1.875 -1.186625,-2.51212 -2.2705,-2.51212 -1.081625,0 -2.30225,0.63712 -2.30225,2.51212 l 0,8.33013 -3.435125,0 0,-13.77488 3.357,0 0,1.27 c 0.90325,-0.95262 2.170375,-1.43025 3.4375,-1.43025 1.3745,0 2.48775,0.45175 3.254375,1.21788 1.108375,1.11374 1.3965,2.40475 1.3965,3.91112 l 0,8.80613 -3.4375,0"
       style="fill:#ffffff;fill-opacity:1;fill-rule:nonzero;stroke:none"
       id="path34" /><path
       inkscape:connector-curvature="0"
       d="m 92.280332,162.69539 c -0.368625,-0.82038 -1.13275,-1.42525 -2.29975,-1.42525 -1.162125,0 -1.92875,0.60487 -2.299875,1.42525 -0.209875,0.50338 -0.2905,0.8735 -0.317375,1.48237 l 5.236875,0 c -0.02688,-0.60887 -0.1075,-0.97899 -0.319875,-1.48237 z m -4.917,3.83837 c 0,1.76763 1.0865,3.06151 3.02,3.06151 1.504,0 2.24375,-0.41751 3.11775,-1.29388 l 2.085,2.03612 c -1.401375,1.40138 -2.746625,2.16988 -5.232,2.16988 -3.254375,0 -6.3745,-1.48238 -6.3745,-7.05862 0,-4.49363 2.4365,-7.03763 6.001,-7.03763 3.833,0 6.003375,2.80525 6.003375,6.5865 l 0,1.53612 -8.620625,0"
       style="fill:#ffffff;fill-opacity:1;fill-rule:nonzero;stroke:none"
       id="path36" /><path
       inkscape:connector-curvature="0"
       d="m 106.56508,172.34626 c -2.79788,0 -3.98687,-1.98237 -3.98687,-3.9375 l 0,-6.82125 -1.45263,0 0,-2.61724 1.45263,0 0,-4.07513 3.435,0 0,4.07513 2.43174,0 0,2.61724 -2.43174,0 0,6.60638 c 0,0.795 0.37362,1.23975 1.1915,1.23975 l 1.24025,0 0,2.91262 -1.87988,0"
       style="fill:#ffffff;fill-opacity:1;fill-rule:nonzero;stroke:none"
       id="path38" /><path
       inkscape:connector-curvature="0"
       d="m 129.56508,172.34626 -2.83125,0 -2.87875,-8.64499 -2.88337,8.64499 -2.832,0 -4.23825,-13.77487 3.65237,0 2.22413,8.51613 2.80512,-8.51613 2.512,0 2.825,8.51613 2.21875,-8.51613 3.62875,0 -4.2025,13.77488"
       style="fill:#ffffff;fill-opacity:1;fill-rule:nonzero;stroke:none"
       id="path40" /><path
       inkscape:connector-curvature="0"
       d="m 146.07008,162.11626 c -0.39875,-0.395 -0.92625,-0.61224 -1.6125,-0.61224 -0.6875,0 -1.19125,0.21724 -1.58875,0.61224 -0.715,0.71388 -0.79625,1.89988 -0.79625,3.33251 0,1.42387 0.0813,2.64262 0.79625,3.35749 0.3975,0.39501 0.90125,0.60788 1.58875,0.60788 0.68625,0 1.21375,-0.21287 1.6125,-0.60788 0.715,-0.71487 0.7925,-1.93362 0.7925,-3.35749 0,-1.43263 -0.0775,-2.61863 -0.7925,-3.33251 z m 2.6675,8.69875 c -0.84625,0.8965 -2.24875,1.69238 -4.28,1.69238 -2.04,0 -3.4125,-0.79588 -4.2575,-1.69238 -1.245,-1.30124 -1.565,-2.85837 -1.565,-5.36624 0,-2.48726 0.32,-4.04738 1.565,-5.34375 0.845,-0.89838 2.2175,-1.69388 4.2575,-1.69388 2.03125,0 3.43375,0.7955 4.28,1.69388 1.245,1.29637 1.56,2.85649 1.56,5.34375 0,2.50787 -0.315,4.065 -1.56,5.36625"
       style="fill:#ffffff;fill-opacity:1;fill-rule:nonzero;stroke:none"
       id="path42" /><path
       inkscape:connector-curvature="0"
       d="m 163.63258,162.32377 c -0.53125,-0.52638 -0.97625,-0.81975 -1.82625,-0.81975 -1.05125,0 -2.21625,0.79637 -2.21625,2.541 l 0,8.30124 -3.4375,0 0,-13.77487 3.35625,0 0,1.32375 c 0.6625,-0.7965 1.985,-1.484 3.465,-1.484 1.35,0 2.3,0.34375 3.2525,1.2965 l -2.59375,2.61613"
       style="fill:#ffffff;fill-opacity:1;fill-rule:nonzero;stroke:none"
       id="path44" /><path
       inkscape:connector-curvature="0"
       d="m 179.82633,172.34626 -3.38375,-5.73737 -1.455,1.63875 0,4.09862 -3.4375,0 0,-18.82375 3.4375,0 0,10.68113 4.57125,-5.63225 4.155,0 -4.9225,5.55275 5.29125,8.22212 -4.25625,0"
       style="fill:#ffffff;fill-opacity:1;fill-rule:nonzero;stroke:none"
       id="path46" /></g><g
     transform="matrix(1.0001832,0,0,1.0001832,810.95382,35.981972)"
     id="#b50938ff"
     style="fill:#ffffff;fill-opacity:1"><path
       d="m 150.22238,46.0096 14.76762,-4e-6 0,106.980404 -22.98,0 -0.07,-83.220004 -18.5,4.35 -4.72,-19 z"
       id="path5"
       inkscape:connector-curvature="0"
       style="opacity:1;fill:#ffffff;fill-opacity:1"
       sodipodi:nodetypes="cccccccc" /><path
       d="m 61.49,61.9 21.48,-0.12 0.04,27.21 27.39,0.03 0,20.96 -27.39,0.03 -0.04,27.21 -21.48,-0.12 -0.03,-27.09 -27.42,-0.03 0,-20.96 27.42,-0.03 z"
       id="path7"
       inkscape:connector-curvature="0"
       style="opacity:1;fill:#ffffff;fill-opacity:1"
       sodipodi:nodetypes="ccccccccccccc" /></g></svg>