<?xml version="1.0" encoding="UTF-8"?>
<!-- Created with Inkscape (http://www.inkscape.org/) -->
<svg id="svg6833" width="12.28mm" height="3.7031mm" version="1.1" viewBox="0 0 43.512 13.121" xmlns="http://www.w3.org/2000/svg" xmlns:cc="http://creativecommons.org/ns#" xmlns:dc="http://purl.org/dc/elements/1.1/" xmlns:rdf="http://www.w3.org/1999/02/22-rdf-syntax-ns#">
 <metadata id="metadata6838">
  <rdf:RDF>
   <cc:Work rdf:about="">
    <dc:format>image/svg+xml</dc:format>
    <dc:type rdf:resource="http://purl.org/dc/dcmitype/StillImage"/>
    <dc:title/>
   </cc:Work>
  </rdf:RDF>
 </metadata>
 <g id="layer1" transform="translate(-163.96 -434.37)" fill="#f60">
  <g id="g280" transform="matrix(0 1.25 1.25 0 163.96 447.49)">
   <path id="path282" d="m0 0h-10.497v6.321l2.87 0.195v-3.539h1.369v2.883h2.865v-2.904h3.393" fill="#f60"/>
  </g>
  <g id="g284" transform="matrix(0 1.25 1.25 0 194.51 447.48)">
   <path id="path286" d="m0 0-5.447-3.162-5.02 2.873v-3.165l2.26-1.312-2.26-1.292v-3.273l5.055 2.928 5.417-3.102-1e-3 3.181-2.653 1.518 2.649 1.534" fill="#f60"/>
  </g>
  <g id="g288" transform="matrix(0 1.25 1.25 0 179.38 443.57)">
   <path id="path290" d="m0 0h-4.194c-0.476 0-0.905-0.416-0.905-0.885 0-0.468 0.429-0.848 0.905-0.848l4.182-1e-3c0.478 0 0.866 0.381 0.866 0.849 0 0.469-0.375 0.885-0.854 0.885m-2.095-5.901c-2.818 0-5.103 2.239-5.103 5.001 0 2.764 2.285 5.003 5.103 5.003 2.819 0 5.103-2.239 5.103-5.003 0-2.762-2.284-5.001-5.103-5.001" fill="#f60"/>
  </g>
  <g id="g292" transform="matrix(0 1.25 1.25 0 194.51 437.46)">
   <path id="path294" d="m0 0v1.219h2.193v2.248h-2.193v1.219h5.541v-1.219h-2.225v-2.248h2.225v-1.219" fill="#f60"/>
  </g>
  <g id="g296" transform="matrix(0 1.25 1.25 0 202.61 438.84)">
   <path id="path298" d="m0 0h3.34v0.942c0 0.248-0.04 0.474-0.118 0.681-0.08 0.206-0.193 0.381-0.341 0.526s-0.321 0.258-0.523 0.34c-0.2 0.082-0.424 0.124-0.672 0.124h-0.016c-0.243 0-0.467-0.042-0.673-0.124s-0.382-0.195-0.53-0.34-0.262-0.32-0.345-0.526c-0.081-0.207-0.122-0.433-0.122-0.681v-0.942zm-1.1-1.219v2.161c0 0.432 0.07 0.829 0.209 1.191 0.14 0.362 0.334 0.673 0.581 0.934 0.249 0.261 0.54 0.463 0.875 0.606 0.336 0.142 0.698 0.213 1.09 0.213h0.015c0.39 0 0.755-0.071 1.092-0.213 0.337-0.143 0.631-0.345 0.879-0.606s0.443-0.572 0.586-0.934 0.214-0.759 0.214-1.191v-2.161" fill="#f60"/>
  </g>
 </g>
</svg>
