<svg id="a" width="639.12pt" height="799.43pt" version="1.1" viewBox="0 0 639.12 799.43" xmlns="http://www.w3.org/2000/svg">
 <path id="b" d="m13.649 673.62c2.52-4.96 7.38-8.67 12.84-9.78 8.07-1.64 16.36-1.11 24.52-0.61v17.89c-3.99-0.62-8.44-1.83-12.18 0.36-2.18 1.4-2.3 4.4105-2.3 6.645h13.745v16.075h-12.96v51.33h-25.795v-51.33h-10.49v-16.075h10.4c0.19-4.89 0.05-9.995 2.22-14.505z" fill="#00a8e7"/>
 <path id="c" d="m438.08 662.75h25.865v17.975h-25.865z" fill="#00a8e7"/>
 <path id="d" d="m92.309 688.15c5.22-2.56 11.22-2.01 16.77-1.05v22.96c-6.13-1.7-13.3-2.77-19.03 0.69-5.24 3.31-6.36 10.03-6.64 15.74-0.19 9.68 0 19.37-0.08 29.05h-25.715v-67.38h24.705l-0.06 10.78c2.54-4.22 5.41-8.65 10.05-10.79z" fill="#00a8e7"/>
 <path id="e" d="m135.66 687.3c9.05-1.33 18.32-1.45 27.36 0.01 5.78 1.13 11.86 3.53 15.23 8.64 2.65 3.94 2.74 8.87 2.9 13.45 0.23 11.68-0.09 23.37 0.16 35.05 0.03 3.88 1.05 7.485 2.82 10.935h-26.29c-0.52-1.89-0.73-4.025-0.96-5.945-6.52 7.33-17.13 8.55-26.35 7.64-7.12-0.6-14.27-4.5-17.31-11.19-3.2-7.24-2.58-16.76 3.31-22.48 5.03-4.99 12.26-6.52 18.99-7.73 5.98-1.18 12.29-1.04 18.01-3.35 3.83-1.31 3.85-7.34 0.59-9.28-3.8-2.23-8.84-2.24-12.68-0.11-1.99 1.1-2.5 3.425-3.31 5.365h-23.48c-0.08-4.73 1.47-9.595 4.77-13.055 4.14-4.63 10.22-6.98 16.24-7.95m5.15 43.3c-3.49 1.43-4.1 6.58-1.49 9.1 4.56 4.64 13.71 2.7 16.13-3.32 1.37-3.44 0.85-7.25 1.02-10.86-5.1 2.09-10.67 2.76-15.66 5.08z" fill="#00a8e7"/>
 <path id="f" d="m219.74 696.66c8.06-11.36 25.39-13.65 36.69-6 5.77 3.92 8.67 11 8.67 17.84 0.04 15.68 0.02 31.22 0 46.91h-25.84s0.22-26.68-0.18-40.07c-0.02-4.11-2.92-8.49-7.42-8.31-5.6-0.74-10.44 4.03-10.7 9.46-0.61 12.91-0.42 23.748-0.42 38.92h-25.58v-67.265h24.9z" fill="#00a8e7"/>
 <path id="g" d="m286.04 696.85c7.79-8.07 19.5-11.4 30.49-10.45 8.95 0.63 18.25 3.86 24.09 10.99 3.99 4.53 5.76 10.47 6.59 16.35h-24.3c-0.88-2.4-1.44-5.24-3.68-6.78-4.64-3.32-12.24-2.18-15.01 3.05-2.64 5.01-2.24 10.91-1.97 16.38 0.25 4.54 2.15 9.84 6.89 11.37 3.37 0.86 7.44 0.9 10.18-1.58 2.37-1.86 3.24-4.84 4.15-7.57h24.5c-1.19 6.51-3.57 13.01-8.27 17.84-6.56 7.01-16.22 10.17-25.62 10.62l-4.08 6.26c5.52-0.8 12.05-0.8 16.24 3.48 4.62 4.65 2.81 13.3-2.98 16.14-9.26 4.84-20.23 2.38-29.54-1.07l2.81-6.05c4.9 1.42 10.24 3.93 15.31 1.78 3.25-1.05 3.43-6.05 0.46-7.54-2.7-1.85-5.91-0.48-8.75 0.16-1.07-0.98-2.14-1.96-3.2-2.93l6.6-10.8c-8.28-1.28-16.31-5-21.98-11.28-12.2-13.12-11.57-35.76 1.07-48.37z" fill="#00a8e7"/>
 <path id="h" d="m378.39 687.31c9.05-1.33 18.32-1.45 27.36 0.01 5.78 1.13 11.86 3.53 15.23 8.64 2.65 3.94 2.74 8.87 2.9 13.45 0.23 11.68-0.09 23.37 0.16 35.05 0.03 3.88 1.05 7.485 2.82 10.935h-26.29c-0.52-1.89-0.73-4.025-0.96-5.945-6.52 7.33-17.13 8.55-26.35 7.64-7.12-0.6-14.27-4.5-17.31-11.19-3.2-7.24-2.58-16.76 3.31-22.48 5.03-4.99 12.26-6.52 18.99-7.73 5.98-1.18 12.29-1.04 18.01-3.35 3.83-1.31 3.85-7.34 0.59-9.28-3.8-2.23-8.84-2.24-12.68-0.11-1.99 1.1-2.5 3.425-3.31 5.365h-23.48c-0.08-4.73 1.47-9.595 4.77-13.055 4.14-4.63 10.22-6.98 16.24-7.95m5.15 43.3c-3.49 1.43-4.1 6.58-1.49 9.1 4.56 4.64 13.71 2.7 16.13-3.32 1.37-3.44 0.85-7.25 1.02-10.86-5.1 2.09-10.67 2.76-15.66 5.08z" fill="#00a8e7"/>
 <path id="i" d="m494.11 688.01c9.37-2.34 19.28-2.24 28.68-0.11 6.04 1.44 11.98 4.62 15.39 9.98 1.92 2.87 2.33 6.35 2.92 9.67h-23.25c-1.21-3.56-4.08-6.87-8.09-6.98-3.07-0.1-7.94 0.09-8.6 3.93-0.88 3.09 2.39 4.69 4.84 5.32 10.13 2.46 21.32 2.87 30.04 9.23 9.47 7.25 8.65 23.19-0.29 30.55-7.7 6.58-18.41 7.7-28.16 7.73-9.95-0.1-20.85-2.48-27.71-10.26-3.53-3.69-5.01-8.76-5.27-13.76h24.3c1.09 3.28 3.03 6.95 6.79 7.61 3.93 0.66 9.03 0.69 11.7-2.81 1.84-2.8-0.5-6.3-3.51-6.84-10.25-3-21.73-3-30.72-9.43-7.52-5.21-8.92-16.48-4.2-24 3.36-5.27 9.26-8.26 15.14-9.83z" fill="#00a8e7"/>
 <path id="j" d="m438.08 688.15h25.865v67.39h-25.865z" fill="#00a8e7"/>
 <path id="k" d="m0.003356 795.27h639.1v4.16h-639.1z" fill="#00a8e7"/>
 <g id="l" transform="matrix(1.0652 0 0 1.0652 -65.744 -254.92)">
  <g id="m" fill="#00a8e7">
   <path id="n" d="m345.38 628.7c13.66 9.2 51.12 9 91.06-0.51 49.65-11.8 87.55-33.75 84.37-49.08-0.53-2.5-2.25-4.76-5.01-6.63-13.77-9.25-51.18-9.02-91.05 0.47-39.93 9.5-73.88 26.2-82.52 40.67-1.82 2.96-2.47 5.88-1.92 8.32 0.52 2.55 2.24 4.82 5.07 6.76"/>
   <path id="o" d="m661.7 839.29v-29.33c-30.05 11.14-58.51 20.85-85.5 29.33z"/>
   <path id="p" d="m276.23 629.29c0.31-0.17 0.73-0.17 0.89 0.16 0.27 0.31 0.16 0.75-0.06 0.96-15.64 13.34-22.64 25.97-20.41 36.59 1.16 5.64 4.95 10.63 11.15 14.81 27.89 18.76 101.92 18.96 180.05 0.42 98.61-23.49 173.5-68.34 166.77-100.2-2.33-10.59-13.8-18.9-33.19-23.8-0.36-0.18-0.61-0.47-0.51-0.94 0.09-0.32 0.46-0.57 0.79-0.54 31.83 5.19 50.53 16.2 53.82 31.94 1.53 6.99-0.22 14.7-5.07 22.75-20.31 33.96-92.01 70.58-178.42 91.11-86.4 20.46-165.95 19.83-198-1.72-7.63-5.19-12.21-11.27-13.69-18.39-3.28-15.77 9.1-34.14 35.88-53.15m147.51-61c60.55-14.37 113.34-9.46 117.71 11.01 0.79 3.87-0.13 8.18-2.83 12.56-11.28 18.81-51.07 39.07-99.24 50.57-60.57 14.3-113.33 9.43-117.68-10.97-4.27-20.44 41.39-48.79 102.04-63.17m43.99 208.54c-121.08 28.72-233.29 27.26-279.33-3.66-11.22-7.57-18.02-16.65-20.23-27.13-3.5-16.54 5.19-35.74 25.1-55.56 0.27-0.21 0.7-0.21 0.94 0 0.26 0.21 0.32 0.79 0.11 1.05-9.83 12.95-13.64 25.13-11.31 36.08 1.84 8.88 7.75 16.72 17.47 23.19 42.25 28.44 147.65 29.27 262.25 2.16 80.65-19.23 152.94-49.16 198.97-82.27l7e-5 -431.37h-599.98l0.0032 599.98h55.197c-4.24-5.92-7.19-12.25-8.63-19.01-0.7-3.41-1.05-6.88-1.05-10.34 0-14.81 6.35-30.67 18.93-47.3 0.14-0.2 0.6-0.31 0.88-0.04l0.26 0.9c-7.07 13.02-9.43 25.31-7.07 36.59 3.42 16.18 16.33 29.31 36.66 39.2h311.45c4.07-0.93 8.11-1.77 12.2-2.75 66.01-15.71 128.4-37.42 181.15-63v-73.16c-49.5 31.3-118.08 58.45-193.97 76.44"/>
  </g>
  <g id="q" fill="#fff">
   <path id="r" d="m661.72 809.96v-36.42c0 0.01-0.01 0.01-0.01 0.01v36.42c0-0.01 0.01-0.01 0.01-0.01"/>
   <path id="s" d="m468.34 839.29h107.87c26.98-8.48 55.44-18.19 85.5-29.33v-36.4c-52.76 25.57-115.14 47.28-181.15 62.98-4.09 0.99-8.15 1.83-12.22 2.75"/>
   <path id="t" d="m120.23 800.1c-2.34-11.27 0-23.56 7.08-36.59l-0.26-0.89c-0.27-0.28-0.74-0.17-0.89 0.03-12.57 16.63-18.92 32.48-18.92 47.3 0 3.46 0.34 6.93 1.05 10.34 1.45 6.77 4.4 13.1 8.64 19h39.97c-20.33-9.88-33.24-23-36.67-39.19"/>
   <path id="u" d="m254.04 700.83c32.06 21.55 111.59 22.18 198 1.71 86.42-20.52 158.12-57.14 178.42-91.11 4.84-8.05 6.6-15.74 5.06-22.74-3.28-15.73-21.97-26.76-53.8-31.93-0.35-0.04-0.71 0.21-0.8 0.53-0.09 0.46 0.14 0.76 0.51 0.93 19.4 4.91 30.86 13.22 33.18 23.81 6.73 31.87-68.15 76.71-166.76 100.2-78.13 18.55-152.16 18.34-180.06-0.42-6.2-4.18-9.97-9.18-11.14-14.81-2.24-10.63 4.77-23.24 20.41-36.59 0.22-0.2 0.33-0.66 0.05-0.96-0.16-0.32-0.57-0.32-0.89-0.16-26.77 19.02-39.14 37.38-35.87 53.14 1.48 7.13 6.06 13.21 13.69 18.4"/>
   <path id="v" d="m661.72 700.38v-29.7l-0.01 0.01v29.7z"/>
   <path id="w" d="m200.48 750.8c-9.73-6.47-15.62-14.32-17.47-23.19-2.33-10.95 1.48-23.13 11.31-36.09 0.2-0.26 0.14-0.84-0.12-1.05-0.23-0.19-0.65-0.19-0.94 0-19.89 19.83-28.59 39.02-25.1 55.58 2.22 10.47 9.02 19.54 20.25 27.12 46.02 30.91 158.25 32.39 279.32 3.67 75.89-17.99 144.46-45.15 193.98-76.44v-29.71c-46.04 33.11-118.32 63.03-198.99 82.27-114.58 27.11-219.99 26.28-262.24-2.16"/>
   <path id="x" d="m342.22 613.62c8.66-14.48 42.6-31.17 82.54-40.68 39.86-9.49 77.27-9.7 91.04-0.46 2.77 1.87 4.49 4.14 5 6.63 3.18 15.32-34.71 37.28-84.36 49.09-39.95 9.5-77.4 9.69-91.06 0.5-2.83-1.94-4.54-4.2-5.07-6.76-0.54-2.44 0.1-5.35 1.91-8.32m97.15 28.81c48.18-11.5 87.98-31.75 99.26-50.57 2.69-4.38 3.6-8.69 2.81-12.57-4.35-20.46-57.14-25.37-117.7-10.99-60.65 14.37-106.3 42.73-102.03 63.16 4.34 20.4 57.09 25.28 117.66 10.97"/>
   <path id="y" d="m408.45 357.03h-0.22l-21.94-42.65h-23.82v79.86h22.02v-43.67h0.16l23.18 43.67h22.59v-79.86h-21.97zm70.66 19.18c-10.78 0-14.34-11.13-14.34-21.92 0-10.74 3.56-21.96 14.34-21.96 9.58 0 11.74 8.88 12.19 11.79h22.56c-1.98-20.06-13.36-31.59-34.1-31.62-23.21 0-38.25 16.63-38.25 41.79 0 23.64 13.83 41.82 38.25 41.82 22.03 0 34.43-17.11 34.43-33.19h-22.84c-1.39 7.49-4.4 13.29-12.24 13.29m-207.64-34.89c0-17.38-9.9-26.94-27.88-26.94h-38.49v79.86h22.86v-27.16h7.89c1.05 2.11 13.27 27.16 13.27 27.16h24.63s-13.91-27.57-16.03-31.43c8.41-3.67 13.75-11.76 13.75-21.49m-29.31 7.42h-14.2v-16.01h14.2c4.92 0 7.36 2.69 7.36 8.03 0 5.26-2.44 7.98-7.36 7.98m344.53-15.83v-18.64h-62.2v79.97h62.2v-18.61h-37.44v-12.1h31.03v-18.56h-31.03v-12.06zm-450.01 61.33h24.77v-27.03h27.03v-18.69h-27.03v-15.61h33.96v-18.64h-58.73zm167.6-79.86-27 79.86h24.22l2.78-10.59h24.52l2.96 10.59h24.57l-26.96-79.86zm4.68 52.65 7.64-28.62 7.96 28.62z"/>
   <path id="z" d="m350.65 496.01v-80.45h-38.92l-62.22 76.78v32.34h-59.18v-0.2c25.65-16.61 59.66-28.24 59.66-65.21 0-30.67-22.47-45.34-55.59-45.34-36.6 0-59.87 22.73-57.71 62.39h36.8c-0.46-17.63 4.87-29.67 20.56-29.67 9.09 0 16.41 4.57 16.41 17.6 0 10.63-11.4 16.35-18.37 20.91-17.47 11.29-36.95 22.28-48.4 39.09-6.67 9.74-10.56 21.84-9.75 35.7h118.01v-28.73h58v28.73h40.7v-28.73h18.42v-35.21zm-40.7 0h-33.22l33.22-40.42z"/>
  </g>
 </g>
</svg>
