<?xml version="1.0" encoding="UTF-8" standalone="no"?>
<svg
   xmlns:dc="http://purl.org/dc/elements/1.1/"
   xmlns:cc="http://creativecommons.org/ns#"
   xmlns:rdf="http://www.w3.org/1999/02/22-rdf-syntax-ns#"
   xmlns:svg="http://www.w3.org/2000/svg"
   xmlns="http://www.w3.org/2000/svg"
   xmlns:sodipodi="http://sodipodi.sourceforge.net/DTD/sodipodi-0.dtd"
   xmlns:inkscape="http://www.inkscape.org/namespaces/inkscape"
   width="639.11041pt"
   height="799.42828pt"
   viewBox="0 0 639.11041 799.42828"
   version="1.1"
   id="svg2"
   inkscape:version="0.91 r13725"
   sodipodi:docname="France 24 - Francais.svg">
  <metadata
     id="metadata60">
    <rdf:RDF>
      <cc:Work
         rdf:about="">
        <dc:format>image/svg+xml</dc:format>
        <dc:type
           rdf:resource="http://purl.org/dc/dcmitype/StillImage" />
        <dc:title></dc:title>
      </cc:Work>
    </rdf:RDF>
  </metadata>
  <defs
     id="defs58" />
  <sodipodi:namedview
     pagecolor="#ffffff"
     bordercolor="#666666"
     borderopacity="1"
     objecttolerance="10"
     gridtolerance="10"
     guidetolerance="10"
     inkscape:pageopacity="0"
     inkscape:pageshadow="2"
     inkscape:window-width="1920"
     inkscape:window-height="1017"
     id="namedview56"
     showgrid="false"
     fit-margin-top="0"
     fit-margin-left="0"
     fit-margin-right="0"
     fit-margin-bottom="0"
     inkscape:zoom="0.6675088"
     inkscape:cx="454.59951"
     inkscape:cy="392.25396"
     inkscape:window-x="-8"
     inkscape:window-y="-8"
     inkscape:window-maximized="1"
     inkscape:current-layer="svg2" />
  <g
     id="g4247">
    <path
       d="m 13.6496,673.6183 c 2.52,-4.96 7.38,-8.67 12.84,-9.78 8.07,-1.64 16.35,-1.11 24.51,-0.61 0.01,5.96 -0.01,11.92 0.02,17.89 -3.99,-0.62 -8.45,-1.83 -12.19,0.36 -2.18,1.4 -1.76,4.38 -2.3,6.6 4.57,0.1 9.15,0.07 13.72,0.05 0.05,5.35 0.03,10.7 0.05,16.06 -4.33,0.01 -8.65,0.01 -12.98,0 0.01,17.12 0.02,34.23 -0.01,51.34 -8.6,0.02 -17.2,0.03 -25.8,0 0.01,-17.11 -0.02,-34.23 0.02,-51.34 -3.5000005,0 -6.9900005,0 -10.4900005,0.02 -0.02,-5.35 -0.01,-10.71 -0.02,-16.06 3.47,-0.01 6.94,-0.01 10.4100005,0.02 0.19,-4.89 0.05,-10.04 2.22,-14.55 z"
       id="path36"
       inkscape:connector-curvature="0"
       style="opacity:1;fill:#00a8e7" />
    <path
       d="m 438.0696,662.7483 c 8.63,-0.03 17.25,-0.02 25.88,0 0,5.99 -0.01,11.98 0,17.98 -8.63,0 -17.25,0.01 -25.88,-0.01 0.01,-5.99 0,-11.98 0,-17.97 z"
       id="path38"
       inkscape:connector-curvature="0"
       style="opacity:1;fill:#00a8e7" />
    <path
       d="m 92.3096,688.1483 c 5.22,-2.56 11.21,-2.01 16.76,-1.05 0.02,7.65 -0.02,15.3 0.02,22.96 -6.13,-1.7 -13.31,-2.77 -19.04,0.69 -5.24,3.31 -6.36,10.03 -6.64,15.74 -0.19,9.68 0,19.36 -0.08,29.04 -8.54,0.04 -17.08,0 -25.62,0.02 -0.43,-22.46 -0.06,-44.93 -0.19,-67.39 8.27,-0.02 16.53,-0.03 24.8,0 -0.02,3.59 -0.03,7.18 -0.06,10.78 2.54,-4.22 5.41,-8.65 10.05,-10.79 z"
       id="path40"
       inkscape:connector-curvature="0"
       style="opacity:1;fill:#00a8e7" />
    <path
       d="m 135.6596,687.2983 c 9.05,-1.33 18.32,-1.45 27.36,0.01 5.78,1.13 11.86,3.53 15.23,8.64 2.65,3.94 2.74,8.87 2.9,13.45 0.23,11.68 -0.09,23.37 0.16,35.05 0.03,3.88 1.05,7.68 2.82,11.13 -8.76,-0.3 -17.57,0.46 -26.29,-0.39 -0.52,-1.89 -0.73,-3.83 -0.96,-5.75 -6.52,7.33 -17.13,8.55 -26.35,7.64 -7.12,-0.6 -14.27,-4.5 -17.31,-11.19 -3.2,-7.24 -2.58,-16.76 3.31,-22.48 5.03,-4.99 12.26,-6.52 18.99,-7.73 5.98,-1.18 12.29,-1.04 18.01,-3.35 3.83,-1.31 3.85,-7.34 0.59,-9.28 -3.8,-2.23 -8.84,-2.24 -12.68,-0.11 -1.99,1.1 -2.5,3.46 -3.31,5.4 -7.82,0.16 -15.67,0.47 -23.48,-0.07 -0.08,-4.73 1.47,-9.56 4.77,-13.02 4.14,-4.63 10.22,-6.98 16.24,-7.95 m 5.15,43.3 c -3.49,1.43 -4.1,6.58 -1.49,9.1 4.56,4.64 13.71,2.7 16.13,-3.32 1.37,-3.44 0.85,-7.25 1.02,-10.86 -5.1,2.09 -10.67,2.76 -15.66,5.08 z"
       id="path42"
       inkscape:connector-curvature="0"
       style="opacity:1;fill:#00a8e7" />
    <path
       d="m 219.7396,696.6583 c 8.06,-11.36 25.39,-13.65 36.69,-6 5.77,3.92 8.67,11 8.67,17.84 0.04,15.68 0.02,31.36 0,47.05 -8.61,-0.01 -17.23,0 -25.84,0 -0.14,-13.41 0.22,-26.82 -0.18,-40.21 -0.02,-4.11 -2.92,-8.49 -7.42,-8.31 -5.6,-0.74 -10.44,4.03 -10.7,9.46 -0.61,12.91 0.27,25.88 -0.42,38.78 -8.5,0.63 -17.06,0.14 -25.59,0.24 0,-22.46 -0.03,-44.92 0.02,-67.38 8.29,0.04 16.59,0 24.89,0.03 -0.01,2.83 -0.04,5.66 -0.12,8.5 z"
       id="path44"
       inkscape:connector-curvature="0"
       style="opacity:1;fill:#00a8e7" />
    <path
       d="m 286.0396,696.8483 c 7.79,-8.07 19.5,-11.4 30.49,-10.45 8.95,0.63 18.25,3.86 24.09,10.99 3.99,4.53 5.76,10.47 6.59,16.35 -8.1,0.03 -16.2,0.03 -24.3,0 -0.88,-2.4 -1.44,-5.24 -3.68,-6.78 -4.64,-3.32 -12.24,-2.18 -15.01,3.05 -2.64,5.01 -2.24,10.91 -1.97,16.38 0.25,4.54 2.15,9.84 6.89,11.37 3.37,0.86 7.44,0.9 10.18,-1.58 2.37,-1.86 3.24,-4.84 4.15,-7.57 8.17,-0.02 16.33,-0.03 24.5,0 -1.19,6.51 -3.57,13.01 -8.27,17.84 -6.56,7.01 -16.22,10.17 -25.62,10.62 -1.33,2.11 -2.69,4.19 -4.08,6.26 5.52,-0.8 12.05,-0.8 16.24,3.48 4.62,4.65 2.81,13.3 -2.98,16.14 -9.26,4.84 -20.23,2.38 -29.54,-1.07 0.94,-2.02 1.88,-4.03 2.81,-6.05 4.9,1.42 10.24,3.93 15.31,1.78 3.25,-1.05 3.43,-6.05 0.46,-7.54 -2.7,-1.85 -5.91,-0.48 -8.75,0.16 -1.07,-0.98 -2.14,-1.96 -3.2,-2.93 2.2,-3.61 4.39,-7.21 6.6,-10.8 -8.28,-1.28 -16.31,-5 -21.98,-11.28 -12.2,-13.12 -11.57,-35.76 1.07,-48.37 z"
       id="path46"
       inkscape:connector-curvature="0"
       style="opacity:1;fill:#00a8e7" />
    <path
       d="m 363.7396,693.5883 c 5.17,-4.48 12.09,-6.25 18.77,-6.82 7.98,-0.82 16.1,-0.73 24.02,0.71 5.52,1.21 11.31,3.63 14.46,8.58 2.46,3.62 2.57,8.13 2.84,12.34 0.34,12.37 -0.13,24.74 0.25,37.11 0.02,3.52 1.24,6.87 2.64,10.06 -8.06,-0.13 -16.12,0.13 -24.18,-0.09 -3.5,0.47 -2.23,-3.94 -2.89,-5.96 -6.36,6.79 -16.19,8.38 -25.07,7.69 -6.28,-0.4 -12.83,-2.83 -16.69,-8.02 -3.82,-4.94 -4.55,-11.65 -3.29,-17.62 1.27,-5.63 5.69,-10.13 10.88,-12.41 8.41,-3.66 17.71,-3.93 26.61,-5.54 2.32,-0.63 5.15,-1.09 6.54,-3.29 0.97,-2.38 0.66,-5.71 -1.65,-7.2 -3.81,-2.27 -8.92,-2.38 -12.79,-0.2 -2.07,1.1 -2.57,3.54 -3.39,5.53 -7.93,0.13 -15.85,0.04 -23.77,0.06 0.43,-5.56 2.22,-11.31 6.71,-14.93 m 19.88,36.94 c -3.39,1.35 -4.39,6.13 -1.95,8.81 4.42,5.09 13.92,3.19 16.46,-2.94 1.39,-3.46 0.85,-7.26 0.99,-10.88 -5.03,2.1 -10.54,2.76 -15.5,5.01 z"
       id="path48"
       inkscape:connector-curvature="0"
       style="opacity:1;fill:#00a8e7" />
    <path
       d="m 494.1096,688.0083 c 9.37,-2.34 19.28,-2.24 28.68,-0.11 6.04,1.44 11.98,4.62 15.39,9.98 1.92,2.87 2.33,6.36 2.92,9.68 -7.75,0 -15.5,0.03 -23.25,-0.02 -1.21,-3.56 -4.08,-6.86 -8.09,-6.97 -3.07,-0.1 -7.94,0.09 -8.6,3.93 -0.88,3.09 2.39,4.69 4.84,5.32 10.13,2.46 21.32,2.87 30.04,9.23 9.47,7.25 8.65,23.19 -0.29,30.55 -7.7,6.58 -18.41,7.7 -28.16,7.73 -9.95,-0.1 -20.85,-2.48 -27.71,-10.26 -3.53,-3.69 -5.01,-8.77 -5.27,-13.77 8.1,-0.02 16.2,-0.04 24.3,0.02 1.09,3.28 3.03,6.94 6.79,7.6 3.93,0.66 9.03,0.69 11.7,-2.81 1.84,-2.8 -0.5,-6.3 -3.51,-6.84 -10.25,-3 -21.73,-3 -30.72,-9.43 -7.52,-5.21 -8.92,-16.48 -4.2,-24 3.36,-5.27 9.26,-8.26 15.14,-9.83 z"
       id="path50"
       inkscape:connector-curvature="0"
       style="opacity:1;fill:#00a8e7" />
    <path
       d="m 438.0696,688.1583 c 8.63,-0.02 17.25,-0.02 25.88,-0.01 -0.01,22.47 0.01,44.93 -0.01,67.39 -8.62,0.01 -17.23,0 -25.85,0.01 -0.04,-22.47 0,-44.93 -0.02,-67.39 z"
       id="path52"
       inkscape:connector-curvature="0"
       style="opacity:1;fill:#00a8e7" />
    <path
       d="m 0.34959952,795.2683 c 212.92000048,0 425.83000048,0 638.75000048,0 -0.04,1.38 -0.06,2.76 -0.08,4.16 l -638.69000048,0 c 0.01,-1.4 0.01,-2.78 0.02,-4.16 z"
       id="path54"
       inkscape:connector-curvature="0"
       style="opacity:1;fill:#00a8e7" />
    <g
       id="g4"
       transform="matrix(1.065184,0,0,1.065184,-65.743156,-254.91983)">
      <g
         style="fill:#00a8e7"
         id="g6">
        <path
           inkscape:connector-curvature="0"
           id="path8"
           d="m 345.38,628.7 c 13.66,9.2 51.12,9 91.06,-0.51 49.65,-11.8 87.55,-33.75 84.37,-49.08 -0.53,-2.5 -2.25,-4.76 -5.01,-6.63 -13.77,-9.25 -51.18,-9.02 -91.05,0.47 -39.93,9.5 -73.88,26.2 -82.52,40.67 -1.82,2.96 -2.47,5.88 -1.92,8.32 0.52,2.55 2.24,4.82 5.07,6.76" />
        <path
           inkscape:connector-curvature="0"
           id="path10"
           d="m 661.7,839.29 0,-29.33 c -30.05,11.14 -58.51,20.85 -85.5,29.33 l 85.5,0 z" />
        <path
           inkscape:connector-curvature="0"
           id="path12"
           d="m 276.23,629.29 c 0.31,-0.17 0.73,-0.17 0.89,0.16 0.27,0.31 0.16,0.75 -0.06,0.96 -15.64,13.34 -22.64,25.97 -20.41,36.59 1.16,5.64 4.95,10.63 11.15,14.81 27.89,18.76 101.92,18.96 180.05,0.42 98.61,-23.49 173.5,-68.34 166.77,-100.2 -2.33,-10.59 -13.8,-18.9 -33.19,-23.8 -0.36,-0.18 -0.61,-0.47 -0.51,-0.94 0.09,-0.32 0.46,-0.57 0.79,-0.54 31.83,5.19 50.53,16.2 53.82,31.94 1.53,6.99 -0.22,14.7 -5.07,22.75 -20.31,33.96 -92.01,70.58 -178.42,91.11 -86.4,20.46 -165.95,19.83 -198,-1.72 -7.63,-5.19 -12.21,-11.27 -13.69,-18.39 -3.28,-15.77 9.1,-34.14 35.88,-53.15 m 147.51,-61 c 60.55,-14.37 113.34,-9.46 117.71,11.01 0.79,3.87 -0.13,8.18 -2.83,12.56 -11.28,18.81 -51.07,39.07 -99.24,50.57 -60.57,14.3 -113.33,9.43 -117.68,-10.97 -4.27,-20.44 41.39,-48.79 102.04,-63.17 m 43.99,208.54 c -121.08,28.72 -233.29,27.26 -279.33,-3.66 -11.22,-7.57 -18.02,-16.65 -20.23,-27.13 -3.5,-16.54 5.19,-35.74 25.1,-55.56 0.27,-0.21 0.7,-0.21 0.94,0 0.26,0.21 0.32,0.79 0.11,1.05 -9.83,12.95 -13.64,25.13 -11.31,36.08 1.84,8.88 7.75,16.72 17.47,23.19 42.25,28.44 147.65,29.27 262.25,2.16 80.65,-19.23 152.94,-49.16 198.97,-82.27 l 0,-431.37 -599.98,0 0.003,599.98 55.197,0 c -4.24,-5.92 -7.19,-12.25 -8.63,-19.01 -0.7,-3.41 -1.05,-6.88 -1.05,-10.34 0,-14.81 6.35,-30.67 18.93,-47.3 0.14,-0.2 0.6,-0.31 0.88,-0.04 l 0.26,0.9 c -7.07,13.02 -9.43,25.31 -7.07,36.59 3.42,16.18 16.33,29.31 36.66,39.2 l 311.45,0 c 4.07,-0.93 8.11,-1.77 12.2,-2.75 66.01,-15.71 128.4,-37.42 181.15,-63 l 0,-73.16 c -49.5,31.3 -118.08,58.45 -193.97,76.44" />
      </g>
      <g
         style="fill:#ffffff"
         id="g14">
        <path
           inkscape:connector-curvature="0"
           id="path16"
           d="m 661.72,809.96 0,-36.42 c 0,0.01 -0.01,0.01 -0.01,0.01 l 0,36.42 c 0,-0.01 0.01,-0.01 0.01,-0.01" />
        <path
           inkscape:connector-curvature="0"
           id="path18"
           d="m 468.34,839.29 107.87,0 c 26.98,-8.48 55.44,-18.19 85.5,-29.33 l 0,-36.4 c -52.76,25.57 -115.14,47.28 -181.15,62.98 -4.09,0.99 -8.15,1.83 -12.22,2.75" />
        <path
           inkscape:connector-curvature="0"
           id="path20"
           d="m 120.23,800.1 c -2.34,-11.27 0,-23.56 7.08,-36.59 l -0.26,-0.89 c -0.27,-0.28 -0.74,-0.17 -0.89,0.03 -12.57,16.63 -18.92,32.48 -18.92,47.3 0,3.46 0.34,6.93 1.05,10.34 1.45,6.77 4.4,13.1 8.64,19 l 39.97,0 c -20.33,-9.88 -33.24,-23 -36.67,-39.19" />
        <path
           inkscape:connector-curvature="0"
           id="path22"
           d="m 254.04,700.83 c 32.06,21.55 111.59,22.18 198,1.71 86.42,-20.52 158.12,-57.14 178.42,-91.11 4.84,-8.05 6.6,-15.74 5.06,-22.74 -3.28,-15.73 -21.97,-26.76 -53.8,-31.93 -0.35,-0.04 -0.71,0.21 -0.8,0.53 -0.09,0.46 0.14,0.76 0.51,0.93 19.4,4.91 30.86,13.22 33.18,23.81 6.73,31.87 -68.15,76.71 -166.76,100.2 -78.13,18.55 -152.16,18.34 -180.06,-0.42 -6.2,-4.18 -9.97,-9.18 -11.14,-14.81 -2.24,-10.63 4.77,-23.24 20.41,-36.59 0.22,-0.2 0.33,-0.66 0.05,-0.96 -0.16,-0.32 -0.57,-0.32 -0.89,-0.16 -26.77,19.02 -39.14,37.38 -35.87,53.14 1.48,7.13 6.06,13.21 13.69,18.4" />
        <path
           inkscape:connector-curvature="0"
           id="path24"
           d="m 661.72,700.38 0,-29.7 -0.01,0.01 0,29.7 0.01,-0.01 z" />
        <path
           inkscape:connector-curvature="0"
           id="path26"
           d="m 200.48,750.8 c -9.73,-6.47 -15.62,-14.32 -17.47,-23.19 -2.33,-10.95 1.48,-23.13 11.31,-36.09 0.2,-0.26 0.14,-0.84 -0.12,-1.05 -0.23,-0.19 -0.65,-0.19 -0.94,0 -19.89,19.83 -28.59,39.02 -25.1,55.58 2.22,10.47 9.02,19.54 20.25,27.12 46.02,30.91 158.25,32.39 279.32,3.67 75.89,-17.99 144.46,-45.15 193.98,-76.44 l 0,-29.71 C 615.67,703.8 543.39,733.72 462.72,752.96 348.14,780.07 242.73,779.24 200.48,750.8" />
        <path
           inkscape:connector-curvature="0"
           id="path28"
           d="m 342.22,613.62 c 8.66,-14.48 42.6,-31.17 82.54,-40.68 39.86,-9.49 77.27,-9.7 91.04,-0.46 2.77,1.87 4.49,4.14 5,6.63 3.18,15.32 -34.71,37.28 -84.36,49.09 -39.95,9.5 -77.4,9.69 -91.06,0.5 -2.83,-1.94 -4.54,-4.2 -5.07,-6.76 -0.54,-2.44 0.1,-5.35 1.91,-8.32 m 97.15,28.81 c 48.18,-11.5 87.98,-31.75 99.26,-50.57 2.69,-4.38 3.6,-8.69 2.81,-12.57 -4.35,-20.46 -57.14,-25.37 -117.7,-10.99 -60.65,14.37 -106.3,42.73 -102.03,63.16 4.34,20.4 57.09,25.28 117.66,10.97" />
        <path
           inkscape:connector-curvature="0"
           id="path30"
           d="m 408.45,357.03 -0.22,0 -21.94,-42.65 -23.82,0 0,79.86 22.02,0 0,-43.67 0.16,0 23.18,43.67 22.59,0 0,-79.86 -21.97,0 0,42.65 z m 70.66,19.18 c -10.78,0 -14.34,-11.13 -14.34,-21.92 0,-10.74 3.56,-21.96 14.34,-21.96 9.58,0 11.74,8.88 12.19,11.79 l 22.56,0 c -1.98,-20.06 -13.36,-31.59 -34.1,-31.62 -23.21,0 -38.25,16.63 -38.25,41.79 0,23.64 13.83,41.82 38.25,41.82 22.03,0 34.43,-17.11 34.43,-33.19 l -22.84,0 c -1.39,7.49 -4.4,13.29 -12.24,13.29 M 271.47,341.32 c 0,-17.38 -9.9,-26.94 -27.88,-26.94 l -38.49,0 0,79.86 22.86,0 0,-27.16 7.89,0 c 1.05,2.11 13.27,27.16 13.27,27.16 l 24.63,0 c 0,0 -13.91,-27.57 -16.03,-31.43 8.41,-3.67 13.75,-11.76 13.75,-21.49 m -29.31,7.42 -14.2,0 0,-16.01 14.2,0 c 4.92,0 7.36,2.69 7.36,8.03 0,5.26 -2.44,7.98 -7.36,7.98 m 344.53,-15.83 0,-18.64 -62.2,0 0,79.97 62.2,0 0,-18.61 -37.44,0 0,-12.1 31.03,0 0,-18.56 -31.03,0 0,-12.06 37.44,0 z m -450.01,61.33 24.77,0 0,-27.03 27.03,0 0,-18.69 -27.03,0 0,-15.61 33.96,0 0,-18.64 -58.73,0 0,79.97 z m 167.6,-79.86 -27,79.86 24.22,0 2.78,-10.59 24.52,0 2.96,10.59 24.57,0 -26.96,-79.86 -25.09,0 z m 4.68,52.65 7.64,-28.62 7.96,28.62 -15.6,0 z" />
        <path
           inkscape:connector-curvature="0"
           id="path32"
           d="m 350.65,496.01 0,-80.45 -38.92,0 -62.22,76.78 0,32.34 -59.18,0 0,-0.2 c 25.65,-16.61 59.66,-28.24 59.66,-65.21 0,-30.67 -22.47,-45.34 -55.59,-45.34 -36.6,0 -59.87,22.73 -57.71,62.39 l 36.8,0 c -0.46,-17.63 4.87,-29.67 20.56,-29.67 9.09,0 16.41,4.57 16.41,17.6 0,10.63 -11.4,16.35 -18.37,20.91 -17.47,11.29 -36.95,22.28 -48.4,39.09 -6.67,9.74 -10.56,21.84 -9.75,35.7 l 118.01,0 0,-28.73 58,0 0,28.73 40.7,0 0,-28.73 18.42,0 0,-35.21 -18.42,0 z m -40.7,0 -33.22,0 33.22,-40.42 0,40.42 z" />
      </g>
    </g>
  </g>
</svg>
