<?xml version="1.0" encoding="UTF-8" standalone="no"?>
<!-- Created with Inkscape (http://www.inkscape.org/) -->

<svg
   xmlns:dc="http://purl.org/dc/elements/1.1/"
   xmlns:cc="http://creativecommons.org/ns#"
   xmlns:rdf="http://www.w3.org/1999/02/22-rdf-syntax-ns#"
   xmlns:svg="http://www.w3.org/2000/svg"
   xmlns="http://www.w3.org/2000/svg"
   xmlns:sodipodi="http://sodipodi.sourceforge.net/DTD/sodipodi-0.dtd"
   xmlns:inkscape="http://www.inkscape.org/namespaces/inkscape"
   width="265.74399mm"
   height="91.149475mm"
   viewBox="0 0 265.74399 91.149475"
   version="1.1"
   id="svg8"
   inkscape:version="0.92.1 r15371"
   sodipodi:docname="FreeSports.svg">
  <defs
     id="defs2" />
  <sodipodi:namedview
     id="base"
     pagecolor="#ffffff"
     bordercolor="#666666"
     borderopacity="1.0"
     inkscape:pageopacity="0.0"
     inkscape:pageshadow="2"
     inkscape:zoom="0.5"
     inkscape:cx="944.35872"
     inkscape:cy="40.55685"
     inkscape:document-units="mm"
     inkscape:current-layer="layer1"
     showgrid="false"
     fit-margin-top="0"
     fit-margin-left="0"
     fit-margin-right="0"
     fit-margin-bottom="0"
     inkscape:window-width="1920"
     inkscape:window-height="1017"
     inkscape:window-x="-8"
     inkscape:window-y="-8"
     inkscape:window-maximized="1" />
  <metadata
     id="metadata5">
    <rdf:RDF>
      <cc:Work
         rdf:about="">
        <dc:format>image/svg+xml</dc:format>
        <dc:type
           rdf:resource="http://purl.org/dc/dcmitype/StillImage" />
        <dc:title></dc:title>
      </cc:Work>
    </rdf:RDF>
  </metadata>
  <g
     inkscape:label="Layer 1"
     inkscape:groupmode="layer"
     id="layer1"
     transform="translate(27.334778,6.139533)">
    <path
       style="opacity:1;fill:#ffffff;fill-opacity:1;stroke:none;stroke-width:13.71590519;stroke-linecap:round;stroke-linejoin:bevel;stroke-miterlimit:4;stroke-dasharray:none;stroke-opacity:1"
       d="M 162.27734,0 80.732422,122.06641 h 27.676938 l 61.52149,-92.093754 160.95782,92.093754 h 34.89063 z"
       id="rect4609"
       transform="matrix(0.26458333,0,0,0.26458333,-27.334778,-6.139533)"
       inkscape:connector-curvature="0"
       sodipodi:nodetypes="ccccccc" />
    <path
       inkscape:connector-curvature="0"
       id="path4498"
       style="font-style:normal;font-variant:normal;font-weight:bold;font-stretch:normal;font-size:medium;line-height:25px;font-family:Calibri;-inkscape-font-specification:'Calibri Bold';letter-spacing:0px;word-spacing:0px;fill:#ffffff;fill-opacity:1;stroke:none;stroke-width:1.52380908px;stroke-linecap:butt;stroke-linejoin:miter;stroke-opacity:1"
       d="m -5.72764,20.451112 q 0,0.892845 -0.08928,1.517851 -0.05952,0.59523 -0.2380952,0.952381 -0.1488152,0.357135 -0.3571427,0.53571 -0.2083337,0.178575 -0.4761904,0.178575 H -19.477631 v 10.357132 h 11.8154726 q 0.2678583,0 0.4761904,0.148877 0.2083336,0.148876 0.3571427,0.50595 0.1785722,0.35715 0.2380952,0.952381 0.08928,0.595245 0.08928,1.488091 0,0.89286 -0.08928,1.488106 -0.05952,0.59523 -0.2380952,0.982141 -0.1488151,0.386895 -0.3571427,0.56547 -0.2083321,0.148876 -0.4761904,0.148876 H -19.477631 v 14.34523 q 0,0.327376 -0.17857,0.565471 -0.178573,0.238095 -0.654763,0.41667 -0.446429,0.148876 -1.190476,0.238095 -0.744047,0.08929 -1.904775,0.08929 -1.130941,0 -1.904761,-0.08929 -0.744046,-0.08929 -1.190476,-0.238095 -0.446415,-0.178575 -0.65475,-0.41667 -0.178576,-0.238095 -0.178576,-0.565471 v -34.91071 q 0,-1.309516 0.654766,-1.874986 0.684525,-0.595246 1.666666,-0.595246 h 18.1249977 q 0.2678567,0 0.4761904,0.178576 0.2083336,0.148876 0.3571427,0.53571 0.1785706,0.35715 0.2380952,0.982141 0.08928,0.625005 0.08928,1.517866 z" />
    <path
       inkscape:connector-curvature="0"
       id="path4500"
       style="font-style:normal;font-variant:normal;font-weight:bold;font-stretch:normal;font-size:medium;line-height:25px;font-family:Calibri;-inkscape-font-specification:'Calibri Bold';letter-spacing:0px;word-spacing:0px;fill:#ffffff;fill-opacity:1;stroke:none;stroke-width:1.52380908px;stroke-linecap:butt;stroke-linejoin:miter;stroke-opacity:1"
       d="m 17.248544,30.659429 q 0,1.071436 -0.05952,1.755962 -0.05952,0.684525 -0.178571,1.07142 -0.119055,0.386911 -0.327381,0.535726 -0.178572,0.148876 -0.47619,0.148876 -0.238095,0 -0.535715,-0.08929 -0.297618,-0.11901 -0.684523,-0.238096 -0.357142,-0.119009 -0.803571,-0.208335 -0.446429,-0.119009 -0.982142,-0.119009 -0.625001,0 -1.250001,0.26787 -0.624999,0.238095 -1.309523,0.773806 -0.6547611,0.53571 -1.3988097,1.428571 -0.7142855,0.89286 -1.5476186,2.202376 v 16.547622 q 0,0.297616 -0.1785706,0.535711 -0.1785721,0.208335 -0.6249995,0.357135 -0.4166673,0.148876 -1.1309528,0.208335 -0.7142855,0.08929 -1.8154753,0.08929 -1.1011898,0 -1.8154753,-0.08929 Q 1.4152197,55.778523 0.96879087,55.629769 0.55212355,55.480893 0.37355294,55.272634 0.19498079,55.034539 0.19498079,54.736923 V 28.189197 q 0,-0.297615 0.1488152,-0.50595 0.1488152,-0.238095 0.53571338,-0.38691 0.38690423,-0.148876 0.98214223,-0.208335 0.6250009,-0.0893 1.5476186,-0.0893 0.9523807,0 1.5773816,0.0893 0.6249995,0.05958 0.9523807,0.208335 0.3571428,0.148876 0.5059519,0.38691 0.1488152,0.208335 0.1488152,0.50595 v 3.303573 q 1.0416667,-1.488091 1.9642859,-2.440472 0.9226177,-0.982141 1.7559505,-1.547626 0.833333,-0.56547 1.666666,-0.773806 0.833334,-0.238095 1.666667,-0.238095 0.386905,0 0.833333,0.05958 0.446429,0.02971 0.922619,0.148876 0.47619,0.0893 0.833333,0.238095 0.357143,0.11901 0.505952,0.267856 0.178572,0.148876 0.238095,0.327375 0.08928,0.178575 0.148815,0.50595 0.05952,0.297631 0.08928,0.922621 0.02976,0.625005 0.02976,1.696426 z" />
    <path
       inkscape:connector-curvature="0"
       id="path4502"
       style="font-style:normal;font-variant:normal;font-weight:bold;font-stretch:normal;font-size:medium;line-height:25px;font-family:Calibri;-inkscape-font-specification:'Calibri Bold';letter-spacing:0px;word-spacing:0px;fill:#ffffff;fill-opacity:1;stroke:none;stroke-width:1.52380908px;stroke-linecap:butt;stroke-linejoin:miter;stroke-opacity:1"
       d="m 45.671154,40.689202 q 0,1.369035 -0.624999,2.023801 -0.595238,0.654765 -1.666667,0.654765 h -16.16071 q 0,1.696427 0.386906,3.095238 0.416666,1.369051 1.27976,2.351191 0.892858,0.952381 2.261905,1.458331 1.398809,0.505951 3.333332,0.505951 1.964286,0 3.45238,-0.267855 1.488096,-0.297616 2.559524,-0.625006 1.10119,-0.357135 1.815475,-0.62499 0.714286,-0.297631 1.160714,-0.297631 0.267857,0 0.446429,0.11901 0.178571,0.08929 0.297619,0.357135 0.119055,0.267855 0.148815,0.773821 0.05952,0.47619 0.05952,1.220236 0,0.65475 -0.02976,1.13094 -0.02976,0.446431 -0.08928,0.773821 -0.05952,0.327375 -0.178572,0.56547 -0.119056,0.208335 -0.32738,0.416671 -0.178572,0.208335 -1.041667,0.56547 -0.863095,0.35715 -2.202381,0.714285 -1.339285,0.327391 -3.065474,0.565486 -1.726191,0.267855 -3.690475,0.267855 -3.541666,0 -6.220238,-0.892861 -2.648808,-0.89286 -4.434522,-2.708326 -1.785714,-1.815482 -2.67857,-4.583344 -0.863096,-2.767847 -0.863096,-6.48809 0,-3.541667 0.922619,-6.369049 0.922619,-2.857142 2.678571,-4.821424 1.755951,-1.994041 4.255951,-3.035717 2.529762,-1.041661 5.684522,-1.041661 3.333333,0 5.684523,0.982141 2.380951,0.982141 3.898809,2.738102 1.517855,1.726186 2.232141,4.107138 0.714285,2.380952 0.714285,5.178574 z m -7.261903,-2.142857 q 0.08928,-3.154772 -1.27976,-4.940479 -1.339287,-1.815481 -4.166666,-1.815481 -1.428571,0 -2.499999,0.53571 -1.041667,0.535726 -1.755952,1.458347 -0.684524,0.892845 -1.071428,2.142856 -0.357143,1.220236 -0.416668,2.619047 z" />
    <path
       inkscape:connector-curvature="0"
       id="path4504"
       style="font-style:normal;font-variant:normal;font-weight:bold;font-stretch:normal;font-size:medium;line-height:25px;font-family:Calibri;-inkscape-font-specification:'Calibri Bold';letter-spacing:0px;word-spacing:0px;fill:#ffffff;fill-opacity:1;stroke:none;stroke-width:1.52380908px;stroke-linecap:butt;stroke-linejoin:miter;stroke-opacity:1"
       d="m 76.385431,40.689202 q 0,1.369035 -0.624999,2.023801 -0.595238,0.654765 -1.666666,0.654765 H 57.933055 q 0,1.696427 0.386906,3.095238 0.416666,1.369051 1.279761,2.351191 0.892857,0.952381 2.261904,1.458331 1.398809,0.505951 3.333332,0.505951 1.964286,0 3.45238,-0.267855 1.488096,-0.297616 2.559524,-0.625006 1.10119,-0.357135 1.815475,-0.62499 0.714286,-0.297631 1.160715,-0.297631 0.267856,0 0.446428,0.11901 0.178571,0.08929 0.297619,0.357135 0.119055,0.267855 0.148815,0.773821 0.05952,0.47619 0.05952,1.220236 0,0.65475 -0.02976,1.13094 -0.02976,0.446431 -0.08928,0.773821 -0.05952,0.327375 -0.178572,0.56547 -0.119055,0.208335 -0.32738,0.416671 -0.178572,0.208335 -1.041667,0.56547 -0.863094,0.35715 -2.202381,0.714285 -1.339285,0.327391 -3.065474,0.565486 -1.726191,0.267855 -3.690475,0.267855 -3.541666,0 -6.220238,-0.892861 -2.648808,-0.89286 -4.434522,-2.708326 -1.785714,-1.815482 -2.67857,-4.583344 -0.863096,-2.767847 -0.863096,-6.48809 0,-3.541667 0.922619,-6.369049 0.922619,-2.857142 2.678572,-4.821424 1.75595,-1.994041 4.25595,-3.035717 2.529762,-1.041661 5.684522,-1.041661 3.333333,0 5.684523,0.982141 2.380952,0.982141 3.898809,2.738102 1.517855,1.726186 2.232141,4.107138 0.714285,2.380952 0.714285,5.178574 z m -7.261903,-2.142857 q 0.08928,-3.154772 -1.27976,-4.940479 -1.339286,-1.815481 -4.166665,-1.815481 -1.428571,0 -2.5,0.53571 -1.041666,0.535726 -1.755952,1.458347 -0.684524,0.892845 -1.071428,2.142856 -0.357143,1.220236 -0.416668,2.619047 z" />
    <path
       inkscape:connector-curvature="0"
       id="path4506"
       style="font-style:normal;font-variant:normal;font-weight:bold;font-stretch:normal;font-size:medium;line-height:25px;font-family:Calibri;-inkscape-font-specification:'Calibri Bold';letter-spacing:0px;word-spacing:0px;fill:#ffffff;fill-opacity:1;stroke:none;stroke-width:1.52380908px;stroke-linecap:butt;stroke-linejoin:miter;stroke-opacity:1"
       d="m 105.84971,44.201094 q 0,3.035717 -1.13095,5.327389 -1.13095,2.291656 -3.06548,3.839283 -1.934522,1.517851 -4.523806,2.291656 -2.589285,0.773821 -5.535713,0.773821 -1.994048,0 -3.720237,-0.327391 -1.696428,-0.327375 -3.005951,-0.773805 -1.309524,-0.47619 -2.202381,-0.982141 -0.863095,-0.50595 -1.249999,-0.89286 -0.386906,-0.386896 -0.565477,-1.101181 -0.148815,-0.744061 -0.148815,-2.113097 0,-0.92262 0.05952,-1.547626 0.05952,-0.62499 0.178572,-1.0119 0.148816,-0.386911 0.357143,-0.535711 0.238095,-0.178575 0.535714,-0.178575 0.416667,0 1.160714,0.50595 0.773808,0.476191 1.964284,1.071436 1.190476,0.595231 2.827381,1.101181 1.666666,0.47619 3.839284,0.47619 1.428571,0 2.559524,-0.327375 1.130951,-0.35715 1.904761,-0.982141 0.803572,-0.625005 1.220238,-1.547626 0.416667,-0.922621 0.416667,-2.053561 0,-1.309531 -0.714286,-2.232152 -0.714285,-0.952381 -1.874999,-1.666666 -1.130953,-0.744046 -2.589286,-1.369051 -1.458332,-0.65475 -3.005951,-1.369036 -1.547619,-0.714286 -3.005951,-1.607146 -1.458334,-0.922621 -2.619047,-2.172617 -1.130953,-1.279771 -1.845238,-3.005957 -0.714286,-1.726186 -0.714286,-4.136898 0,-2.767862 1.011905,-4.851199 1.041666,-2.113081 2.767856,-3.482132 1.755953,-1.398811 4.107141,-2.083337 2.380952,-0.684525 5.029762,-0.684525 1.369046,0 2.738094,0.208335 1.369047,0.208335 2.559523,0.56547 1.19048,0.357151 2.11309,0.803581 0.92262,0.446431 1.22024,0.744046 0.29762,0.297615 0.38691,0.50595 0.11905,0.208335 0.17857,0.56547 0.0893,0.327391 0.11905,0.863101 0.0298,0.50595 0.0298,1.279756 0,0.863101 -0.0595,1.458346 -0.0298,0.59523 -0.14881,0.982141 -0.0893,0.386895 -0.29762,0.56547 -0.17857,0.178575 -0.50595,0.178575 -0.32738,0 -1.04167,-0.41667 -0.71428,-0.41667 -1.75595,-0.892861 -1.041667,-0.50595 -2.410714,-0.892845 -1.369048,-0.416671 -3.005951,-0.416671 -1.279762,0 -2.232142,0.327376 -0.952381,0.297615 -1.607144,0.8631 -0.624999,0.535711 -0.95238,1.309516 -0.297619,0.773821 -0.297619,1.636906 0,1.279771 0.684524,2.232152 0.714286,0.922606 1.874999,1.666666 1.190476,0.714286 2.678571,1.369036 1.488094,0.625006 3.035713,1.339291 1.547619,0.714286 3.035713,1.636906 1.4881,0.892861 2.64881,2.172617 1.16071,1.249996 1.875,2.976182 0.71428,1.696441 0.71428,4.017858 z" />
    <path
       inkscape:connector-curvature="0"
       id="path4510"
       style="font-style:normal;font-variant:normal;font-weight:bold;font-stretch:normal;font-size:medium;line-height:25px;font-family:Calibri;-inkscape-font-specification:'Calibri Bold';letter-spacing:0px;word-spacing:0px;fill:#ffffff;fill-opacity:1;stroke:none;stroke-width:1.52380908px;stroke-linecap:butt;stroke-linejoin:miter;stroke-opacity:1"
       d="m 170.96874,41.195152 q 0,3.392852 -0.89286,6.190474 -0.89285,2.797607 -2.70833,4.821424 -1.81548,2.023801 -4.55357,3.124997 -2.7381,1.101196 -6.39881,1.101196 -3.54166,0 -6.16071,-0.982141 -2.61905,-0.982156 -4.34524,-2.857142 -1.72619,-1.875001 -2.55952,-4.613103 -0.83333,-2.738087 -0.83333,-6.249995 0,-3.392852 0.89285,-6.190474 0.92262,-2.827382 2.7381,-4.821424 1.81547,-2.023816 4.5238,-3.124997 2.7381,-1.101196 6.39881,-1.101196 3.57143,0 6.19048,0.982141 2.61904,0.952381 4.31547,2.827382 1.72619,1.875001 2.55953,4.613088 0.83333,2.738102 0.83333,6.27977 z m -7.70833,0.297615 q 0,-1.964281 -0.32738,-3.601188 -0.29762,-1.666666 -1.04167,-2.886902 -0.74405,-1.220235 -1.99405,-1.904761 -1.22024,-0.684525 -3.09523,-0.684525 -1.66667,0 -2.91667,0.62499 -1.25,0.595245 -2.05357,1.785721 -0.80357,1.160716 -1.22024,2.827382 -0.3869,1.636907 -0.3869,3.750003 0,1.964281 0.32738,3.630948 0.32738,1.636906 1.04166,2.857142 0.74405,1.220236 1.99405,1.904761 1.25,0.654766 3.09524,0.654766 1.69643,0 2.94643,-0.595246 1.25,-0.625006 2.05357,-1.785706 0.80357,-1.160716 1.19047,-2.797622 0.38691,-1.666666 0.38691,-3.779763 z" />
    <path
       inkscape:connector-curvature="0"
       id="path4512"
       style="font-style:normal;font-variant:normal;font-weight:bold;font-stretch:normal;font-size:medium;line-height:25px;font-family:Calibri;-inkscape-font-specification:'Calibri Bold';letter-spacing:0px;word-spacing:0px;fill:#ffffff;fill-opacity:1;stroke:none;stroke-width:1.52380908px;stroke-linecap:butt;stroke-linejoin:miter;stroke-opacity:1"
       d="m 193.91516,30.659429 q 0,1.071436 -0.0595,1.755962 -0.0595,0.684525 -0.17857,1.07142 -0.11906,0.386911 -0.32738,0.535726 -0.17857,0.148876 -0.47619,0.148876 -0.2381,0 -0.53572,-0.08929 -0.29762,-0.11901 -0.68452,-0.238096 -0.35714,-0.119009 -0.80357,-0.208335 -0.44643,-0.119009 -0.98214,-0.119009 -0.625,0 -1.25,0.26787 -0.625,0.238095 -1.30953,0.773806 -0.65476,0.53571 -1.39881,1.428571 -0.71428,0.89286 -1.54762,2.202376 v 16.547622 q 0,0.297616 -0.17857,0.535711 -0.17857,0.208335 -0.625,0.357135 -0.41666,0.148876 -1.13095,0.208335 -0.71428,0.08929 -1.81547,0.08929 -1.10119,0 -1.81548,-0.08929 -0.71429,-0.05958 -1.16071,-0.208335 -0.41667,-0.148876 -0.59524,-0.357135 -0.17857,-0.238095 -0.17857,-0.535711 V 28.189197 q 0,-0.297615 0.14881,-0.50595 0.14882,-0.238095 0.53572,-0.38691 0.3869,-0.148876 0.98214,-0.208335 0.625,-0.0893 1.54762,-0.0893 0.95238,0 1.57738,0.0893 0.625,0.05958 0.95238,0.208335 0.35714,0.148876 0.50595,0.38691 0.14882,0.208335 0.14882,0.50595 v 3.303573 q 1.04166,-1.488091 1.96428,-2.440472 0.92262,-0.982141 1.75595,-1.547626 0.83334,-0.56547 1.66667,-0.773806 0.83333,-0.238095 1.66667,-0.238095 0.3869,0 0.83333,0.05958 0.44643,0.02971 0.92262,0.148876 0.47619,0.0893 0.83333,0.238095 0.35714,0.11901 0.50595,0.267856 0.17858,0.148876 0.2381,0.327375 0.0893,0.178575 0.14881,0.50595 0.0595,0.297631 0.0893,0.922621 0.0298,0.625005 0.0298,1.696426 z" />
    <path
       inkscape:connector-curvature="0"
       id="path4514"
       style="font-style:normal;font-variant:normal;font-weight:bold;font-stretch:normal;font-size:medium;line-height:25px;font-family:Calibri;-inkscape-font-specification:'Calibri Bold';letter-spacing:0px;word-spacing:0px;fill:#ffffff;fill-opacity:1;stroke:none;stroke-width:1.52380908px;stroke-linecap:butt;stroke-linejoin:miter;stroke-opacity:1"
       d="m 214.24254,52.11777 q 0,1.309516 -0.17857,2.023801 -0.14882,0.684526 -0.41667,0.982141 -0.26786,0.267855 -0.80357,0.50595 -0.50596,0.208335 -1.22024,0.357151 -0.68453,0.178575 -1.51786,0.267855 -0.80357,0.08929 -1.6369,0.08929 -2.23214,0 -3.86905,-0.56547 -1.6369,-0.565471 -2.70833,-1.726187 -1.07143,-1.190475 -1.57738,-2.976197 -0.50595,-1.785721 -0.50595,-4.226208 v -13.60118 h -3.18453 q -0.56547,0 -0.86309,-0.684526 -0.29762,-0.714285 -0.29762,-2.351176 0,-0.863101 0.0595,-1.458346 0.0893,-0.595231 0.23809,-0.922606 0.14882,-0.35715 0.35715,-0.505965 0.23809,-0.148876 0.53571,-0.148876 h 3.15477 v -5.92262 q 0,-0.297615 0.14881,-0.53571 0.17857,-0.238095 0.59524,-0.38691 0.44642,-0.178499 1.16071,-0.238019 0.74404,-0.0893 1.81547,-0.0893 1.10119,0 1.81548,0.0893 0.74405,0.05958 1.16071,0.238095 0.41667,0.148876 0.59524,0.38691 0.17857,0.238095 0.17857,0.53571 v 5.92262 h 5.77381 q 0.29762,0 0.50595,0.148876 0.2381,0.148876 0.38691,0.505965 0.14881,0.327376 0.20833,0.922606 0.0893,0.595245 0.0893,1.458346 0,1.636891 -0.29762,2.351177 -0.29762,0.684525 -0.86309,0.684525 h -5.80357 v 12.470244 q 0,2.172617 0.68452,3.273798 0.68452,1.071435 2.44048,1.071435 0.59523,0 1.07142,-0.08929 0.47619,-0.119009 0.83334,-0.238095 0.3869,-0.148876 0.625,-0.238095 0.26785,-0.11901 0.47619,-0.11901 0.17857,0 0.32738,0.11901 0.17857,0.08929 0.26785,0.416655 0.0893,0.29763 0.14882,0.833341 0.0893,0.53571 0.0893,1.369051 z" />
    <path
       inkscape:connector-curvature="0"
       id="path4516"
       style="font-style:normal;font-variant:normal;font-weight:bold;font-stretch:normal;font-size:medium;line-height:25px;font-family:Calibri;-inkscape-font-specification:'Calibri Bold';letter-spacing:0px;word-spacing:0px;fill:#ffffff;fill-opacity:1;stroke:none;stroke-width:1.52380908px;stroke-linecap:butt;stroke-linejoin:miter;stroke-opacity:1"
       d="m 238.4092,47.236811 q 0,2.261912 -0.8631,3.988098 -0.83333,1.726186 -2.38095,2.886902 -1.54762,1.160716 -3.66071,1.726186 -2.1131,0.595246 -4.58334,0.595246 -1.48809,0 -2.85714,-0.238095 -1.33928,-0.208335 -2.41071,-0.535726 -1.07143,-0.357135 -1.78572,-0.714285 -0.71428,-0.357136 -1.04166,-0.654751 -0.32738,-0.32739 -0.50595,-0.98214 -0.17858,-0.684526 -0.17858,-1.994057 0,-0.863085 0.0595,-1.369051 0.0595,-0.53571 0.17858,-0.833325 0.11905,-0.327376 0.29761,-0.416671 0.17858,-0.119009 0.44643,-0.119009 0.32738,0 0.95238,0.386895 0.65477,0.35715 1.60715,0.803581 0.95238,0.44643 2.20238,0.833325 1.27976,0.38691 2.8869,0.38691 1.01191,0 1.78571,-0.208335 0.80358,-0.208335 1.36905,-0.595245 0.59524,-0.386895 0.89286,-0.982141 0.29762,-0.59523 0.29762,-1.369036 0,-0.892861 -0.56548,-1.517866 -0.53571,-0.654766 -1.45833,-1.130956 -0.89286,-0.47619 -2.05357,-0.892845 -1.13095,-0.416671 -2.35119,-0.922621 -1.19048,-0.50595 -2.35119,-1.160716 -1.13095,-0.654766 -2.05357,-1.607146 -0.89286,-0.952381 -1.45833,-2.291657 -0.53572,-1.339291 -0.53572,-3.214292 0,-1.904762 0.74405,-3.482148 0.74405,-1.607131 2.14285,-2.738087 1.39881,-1.130955 3.39286,-1.755946 2.02381,-0.625005 4.52381,-0.625005 1.25,0 2.41071,0.178575 1.19048,0.17856 2.14286,0.44643 0.95238,0.267855 1.60714,0.595231 0.65476,0.297615 0.92262,0.53571 0.29762,0.208335 0.41667,0.44643 0.11905,0.208335 0.17857,0.535711 0.0595,0.29763 0.0893,0.77382 0.0595,0.446431 0.0595,1.130941 0,0.803581 -0.0595,1.309531 -0.0298,0.50595 -0.14882,0.803565 -0.0893,0.297631 -0.26785,0.416671 -0.17858,0.08929 -0.41667,0.08929 -0.26786,0 -0.83333,-0.297615 -0.56548,-0.327375 -1.42858,-0.684526 -0.83333,-0.357135 -1.96428,-0.65475 -1.10119,-0.32739 -2.52976,-0.32739 -1.01191,0 -1.75595,0.208335 -0.74405,0.208335 -1.22024,0.595245 -0.47619,0.386896 -0.71429,0.922606 -0.23809,0.505965 -0.23809,1.101196 0,0.92262 0.56547,1.547626 0.56548,0.62499 1.4881,1.101181 0.92262,0.47619 2.08333,0.89286 1.19048,0.416671 2.38095,0.922621 1.22024,0.47619 2.38095,1.130956 1.19048,0.65475 2.1131,1.607131 0.92262,0.952381 1.48809,2.291672 0.56548,1.309515 0.56548,3.124997 z" />
    <path
       style="opacity:1;fill:#ffffff;fill-opacity:1;stroke:none;stroke-width:13.71590519;stroke-linecap:round;stroke-linejoin:bevel;stroke-miterlimit:4;stroke-dasharray:none;stroke-opacity:1"
       d="M 315.43164,238.20703 900.59961,344.50195 718.71289,238.20703 h -39.68945 l 130.66015,72.26563 -255.70507,-44.43555 v 4.50781 c 0,0.82488 -0.24725,1.56664 -0.74219,2.22656 -0.49492,0.65992 -1.36224,1.19691 -2.59961,1.60938 -1.15485,0.4949 -2.72143,0.86579 -4.70117,1.11328 -1.97977,0.24751 -4.49671,0.37109 -7.54883,0.37109 -3.05212,0 -5.56711,-0.12358 -7.54688,-0.37109 -1.97974,-0.24748 -3.58883,-0.61837 -4.82617,-1.11328 -1.15487,-0.41263 -1.97969,-0.94963 -2.47461,-1.60938 -0.49494,-0.65992 -0.74219,-1.40168 -0.74218,-2.22656 v -9.92578 L 393.82227,238.20703 Z"
       transform="matrix(0.26458333,0,0,0.26458333,-27.334778,-6.139533)"
       id="rect4632"
       inkscape:connector-curvature="0" />
    <path
       inkscape:connector-curvature="0"
       id="path4508"
       style="font-style:normal;font-variant:normal;font-weight:bold;font-stretch:normal;font-size:medium;line-height:25px;font-family:Calibri;-inkscape-font-specification:'Calibri Bold';letter-spacing:0px;word-spacing:0px;fill:#ffffff;fill-opacity:1;stroke:none;stroke-width:1.52380908px;stroke-linecap:butt;stroke-linejoin:miter;stroke-opacity:1"
       d="m 138.1116,41.076097 q 0,3.541667 -0.7738,6.398809 -0.74405,2.827382 -2.20238,4.821424 -1.45834,1.994056 -3.63096,3.065477 -2.17261,1.071436 -4.97023,1.071436 -1.16072,0 -2.14286,-0.238095 -0.95238,-0.208335 -1.875,-0.654766 -0.89286,-0.47619 -1.78571,-1.160716 -0.89286,-0.684525 -1.84524,-1.607146 v 12.500004 q 0,0.297615 -0.17857,0.535711 -0.17857,0.238095 -0.625,0.38691 -0.41667,0.17856 -1.13095,0.267855 -0.71429,0.0893 -1.81548,0.0893 -1.10119,0 -1.81548,-0.0893 -0.71428,-0.08929 -1.16071,-0.267855 -0.41667,-0.148876 -0.59524,-0.38691 -0.17857,-0.238096 -0.17857,-0.535711 V 28.189197 q 0,-0.297615 0.14882,-0.50595 0.14881,-0.238095 0.50595,-0.38691 0.3869,-0.148876 0.98214,-0.208335 0.625,-0.0893 1.54762,-0.0893 0.89286,0 1.4881,0.0893 0.625,0.05958 0.98214,0.208335 0.3869,0.148876 0.53571,0.38691 0.14881,0.208335 0.14881,0.50595 v 3.124998 q 1.16072,-1.190476 2.26191,-2.083337 1.13095,-0.922605 2.29166,-1.517851 1.16072,-0.625005 2.38095,-0.922621 1.25,-0.297615 2.64881,-0.297615 2.91667,0 4.97024,1.160716 2.05357,1.130956 3.33333,3.124997 1.30952,1.994042 1.90476,4.642849 0.59524,2.648822 0.59524,5.654764 z m -7.79761,0.53571 q 0,-1.696426 -0.26786,-3.244037 -0.23809,-1.577386 -0.86309,-2.797622 -0.59524,-1.220236 -1.60715,-1.934522 -0.98214,-0.744045 -2.47023,-0.744045 -0.74405,0 -1.4881,0.238095 -0.71428,0.208335 -1.48809,0.714286 -0.74405,0.50595 -1.54762,1.309515 -0.80357,0.803581 -1.69643,1.994057 v 8.749986 q 1.57738,1.994057 3.00595,3.095237 1.42857,1.071436 2.97619,1.071436 1.45833,0 2.47024,-0.744045 1.04166,-0.744046 1.69643,-1.934522 0.65476,-1.220236 0.95238,-2.738102 0.32738,-1.517851 0.32738,-3.035717 z" />
  </g>
</svg>
