<svg height="95.629997pt" viewBox="0 0 334.63373 95.629997" width="334.63373pt" xmlns="http://www.w3.org/2000/svg" xmlns:xlink="http://www.w3.org/1999/xlink"><linearGradient id="a" gradientUnits="userSpaceOnUse" x1="37.52974" x2="135.51975" y1="13.767668" y2="13.767668"><stop offset="0" stop-color="#fbe02d"/><stop offset=".10376374" stop-color="#ebbe27"/><stop offset=".26922134" stop-color="#fbe02d"/><stop offset=".44243109" stop-color="#feee41"/><stop offset=".84986293" stop-color="#f0c71f"/><stop offset="1" stop-color="#eee88a"/></linearGradient><linearGradient id="b" gradientUnits="userSpaceOnUse" x1="92.26975" x2="319.52974" y1="85.82987" y2="85.82987"><stop offset="0" stop-color="#e4d45b"/><stop offset=".16680163" stop-color="#fbe959"/><stop offset=".30172303" stop-color="#fff160"/><stop offset=".58045721" stop-color="#ebcb2a"/><stop offset=".66061091" stop-color="#f9d235"/><stop offset="1" stop-color="#f6f893"/></linearGradient><path d="m92.26975 76.02975h35.12l167.90999 13.73025c-9.26-1.57-18.32-4.16-27.5-6.15-7.33999-1.47-14.52-4.10025-21.15-7.58025h21.62001l51.26 19.60025c-78.3526-8.88671-153.3809-9.54706-227.26-19.60025z" fill="url(#b)"/><path d="m37.52975 27.32025 24.83-27.32025 73.87525 27.32025h-16.87081l-55.13444-20.53025-18.24 20.53025z" fill="url(#a)"/><path d="m0 15.86025h34.11v8.07h-24.5205v14.28h23.0505v8.13h-23.0505v21.65975l-9.5895-.96z"/><path d="m46.59002 37.25c2.83-4.26 7.94973-6.37 12.96973-5.36.48546.0971.67414.19441.96975.38909v8.57091c-2.34-.6-4.74975-1.52-7.17975-.87-3.58.98-6.54 4.31-6.66 8.09-.24 6.81.0203 13.63975-.0998 20.45975h-9.36v-35.31975h9.36l.00002 4.04z"/><path d="m62.82975 41.78c4.91-10.26 20.34-13.7 28.82-5.93 4.74 4.72 5.84 12.10975 5.49 18.51975h-27.39c.87456 3.64121 3.7928 6.69572 7.42862 7.40285 1.3736.19734 2.69665.20191 3.98489.10123 3.16221-.41666 5.85063-2.58084 8.13649-4.72383l6.4 4.97c-7.1 9.34-22.55 9.61-30.3.99-4.99-5.77-5.95-14.54-2.57-21.33m6.86 5.04025c6.19.24 12.39.14 18.58 0-.32975-4.65994-4.51072-8.05303-8.95226-7.8624-1.59142.0683-3.29447.30396-4.63075.98292-2.54588 1.29355-4.15423 4.17499-4.99699 6.87948z"/><path d="m102.55296 41.78021c4.91-10.26 20.34-13.699998 28.82-5.93 4.74 4.72 5.84 12.10975 5.49 18.51975h-27.39c.87456 3.64121 3.7928 6.69572 7.42862 7.40285 1.3736.19734 2.69665.20191 3.98489.10123 3.16221-.41666 5.85063-2.58084 8.13649-4.72383l6.4 4.97c-7.1 9.34-22.55 9.61-30.3.99-4.99-5.77-5.95-14.54-2.57-21.33m6.86 5.04025c6.19.24 12.39.14 18.58 0-.32975-4.65994-4.51072-8.05303-8.95226-7.8624-1.59142.0683-3.29447.30396-4.63075.98292-2.54588 1.29355-4.15423 4.17499-4.99699 6.87948z"/><g stroke-width=".999886"><path d="m290.27526 23.846437 5.24924.000006v10.079247h10.089v4.479h-10.089v20.828c.09 1.7098.10037 3.87956 1.86016 4.80945 2.6197 1.60982 5.74939.37996 8.36909-.55994v4.85945c-4.08953.97989-9.10901 1.96978-12.63861-.95989-2.51971-1.92978-2.78989-5.31939-2.83989-8.24906v-20.72801h-7.34925v-4.479h7.34925l-.00001-10.079241z"/><path d="m313.51903 35.08052c6.36928-3.37961 16.12817-2.80968 20.01773 4.00955l-4.4295 2.86967c-2.1534-3.11652-5.87198-5.01019-9.60586-4.25511-.9846.19911-1.88867.44861-2.69177.90011-2.50978 1.41099-3.53306 5.14068-1.31082 7.35455 5.08942 3.58959 12.65856 2.02976 16.89808 7.09919 4.3195 4.3795 1.96977 12.47858-3.5196 14.71832-7.19918 3.03966-16.85809 1.86979-21.61754-4.85944l4.29951-3.19964c3.07965 4.53948 9.20895 6.49926 14.24838 4.13953 3.00965-1.10987 4.3895-5.65936 1.7498-7.83911-4.98944-3.44961-12.10863-2.07976-16.53812-6.57925-4.22952-4.07954-2.53971-11.73866 2.49971-14.35837z"/><path d="m148.37885 17.04975c7.99909-4.599477 19.42779-3.539597 25.57709 3.689581l-4.69946 3.959549c-4.04954-5.519372-12.47858-6.849221-17.99796-2.839677-3.99954 2.769685-4.79945 9.168957-1.43983 12.708557 5.80934 5.19941 14.52834 4.65947 20.43767 9.69889 6.1993 5.09942 5.76935 15.55823.06 20.86763-8.38904 7.60913-23.15736 6.22929-29.8266-3.00966l4.95943-3.85956c3.74958 6.1793 12.46859 8.59902 18.65788 4.68947 4.64947-2.40973 6.33928-9.20895 2.76969-13.2185-5.73935-6.01931-15.44825-4.93944-21.40757-10.68878-6.1393-6.02932-4.53948-17.707987 2.90967-21.9975z"/></g><path d="m232.78975 33.81c6.57-1.56 14.32-.55 19.13 4.58 6.79 6.65 6.78 18.76.18 25.54-7.93 8.17-23.46 7.07-29.53-2.84-6.4-9.59-1.32-24.63 10.22-27.28m.76 4.63c-9.16 3.38-10.82 17.08-3.72 23.29 5.03 4.54 13.78 4.1 18.21-1.07 4.35-4.85 4.46-12.73.74-17.97-3.32-4.75-9.94-6.24-15.23-4.25z"/><path d="m184.0076 39.93025c6.41764-9.132 21.16988-8.87974 28.12231-.5348 6.15527 7.15424 5.58011 19.10153-1.4026 25.51916-7.42669 6.83135-20.46352 6.46809-26.71971-1.81631v20.10587h-5.31785v-49.29814h5.16626zm7.60809-.99897c-6.47817 2.75474-9.70717 10.83732-7.0937 17.34576 2.39148 7.00289 10.92814 10.57497 17.74939 8.11286 8.07249-2.81528 10.72632-13.60215 6.47818-20.57476-3.28954-5.82229-11.28131-7.65878-17.13387-4.88386z" stroke-width="1.009061"/><path d="m261.59975 33.9535h5.39925v6.08967c2.41972-5.79934 8.71938-7.83911 14.51872-6.68924l-.81991 5.20941c-2.6297-.15998-5.43938-.42995-7.84911.8699-3.92955 1.91978-5.97968 6.48926-5.8497 10.73878v18.32798h-5.39925z" stroke-width=".999886"/></svg>