<svg width="1911.5pt" height="200.25pt" version="1.1" viewBox="0 0 1911.5 200.25" xmlns="http://www.w3.org/2000/svg">
 <defs>
  <clipPath id="clipPath2848">
   <path d="m506.61 125.17h51.689v7.206h-51.689z"/>
  </clipPath>
 </defs>
 <path d="m1911.5 200.25v-200.25h-449.88l93.374 200.25z" fill="#ff5"/>
 <g transform="translate(-448.15 .00025)" fill="#282828">
  <path transform="scale(.75)" d="m2747.3 61.707v144.31h20.312v-62.68h70.387v62.68h20.314v-144.31h-20.314v62.219h-70.387v-62.219z" stroke-width="1.3333"/>
  <path d="m2270.8 100.4c0 36.512-22.614 54.115-61.531 54.115h-27.23v-108.23h27.23c40.39 0 61.531 19.311 61.531 54.115zm-74.026-39.145v78.24h15.614c24.295 0.10471 42.925-12.387 42.925-39.12 0-26.886-16.538-39.054-42.925-39.12z"/>
 </g>
 <g transform="matrix(27.79 0 0 -27.79 0 1e-5)" fill="#ff5">
  <path d="m0 0v-7.206h27.243l-3.36 7.206z" fill="#ff5"/>
 </g>
 <g transform="matrix(27.79 0 0 -27.79 -14079 3678.8)" fill="#ff5">
  <g clip-path="url(#clipPath2848)" fill="#ff5">
   <g transform="translate(537.94 127.92)">
    <path d="m0 0c0-0.594-0.474-1.105-1.35-1.105-0.79 0-1.329 0.397-1.536 0.865l0.496 0.207c0.13-0.272 0.484-0.544 1.023-0.544 0.458 0 0.817 0.212 0.817 0.561 0 0.343-0.338 0.473-0.985 0.658-0.768 0.218-1.269 0.453-1.247 1.117 0.021 0.615 0.522 1.04 1.312 1.04 0.713 0 1.165-0.381 1.345-0.855l-0.496-0.169c-0.098 0.262-0.316 0.501-0.833 0.501-0.555 0-0.773-0.272-0.773-0.539 0-0.289 0.267-0.419 0.877-0.594 0.773-0.217 1.35-0.452 1.35-1.143" fill="#ff5"/>
   </g>
   <g transform="translate(541.3 129.46)">
    <path d="m0 0c0 0.37-0.245 0.708-0.708 0.708h-0.909v-1.421h0.909c0.458 0 0.708 0.337 0.708 0.713m0.539 0c0-0.681-0.479-1.231-1.247-1.231h-0.909v-1.355h-0.517v3.811h1.426c0.779 0 1.247-0.55 1.247-1.225" fill="#ff5"/>
   </g>
   <g transform="translate(546.12 128.78)">
    <path d="m0 0c0 0.784-0.528 1.421-1.318 1.421-0.784 0-1.312-0.631-1.312-1.421 0-0.784 0.528-1.427 1.312-1.427 0.79 0 1.318 0.637 1.318 1.427m0.534 0c0-1.078-0.779-1.944-1.852-1.944-1.072 0-1.846 0.871-1.846 1.944s0.774 1.938 1.846 1.938c1.073 0 1.852-0.865 1.852-1.938" fill="#ff5"/>
   </g>
   <g transform="translate(548.4 128.74)">
    <path d="m0 0h0.909c0.458 0 0.708 0.338 0.708 0.713 0 0.371-0.25 0.708-0.708 0.708h-0.909zm0.898-0.517h-0.898v-1.356h-0.523v3.811h1.432c0.774 0 1.242-0.549 1.242-1.225 0-0.506-0.261-0.942-0.713-1.127l0.822-1.459h-0.594z" fill="#ff5"/>
   </g>
   <g transform="translate(554.4 130.16)">
    <path d="m0 0h-1.122v-3.294h-0.517v3.294h-1.122v0.517h2.761z" fill="#ff5"/>
   </g>
   <g transform="translate(558.3 127.92)">
    <path d="m0 0c0-0.594-0.474-1.105-1.35-1.105-0.79 0-1.329 0.397-1.536 0.865l0.496 0.207c0.13-0.272 0.484-0.544 1.023-0.544 0.458 0 0.817 0.212 0.817 0.561 0 0.343-0.338 0.473-0.985 0.658-0.768 0.218-1.269 0.453-1.247 1.117 0.021 0.615 0.522 1.04 1.312 1.04 0.713 0 1.165-0.381 1.345-0.855l-0.496-0.169c-0.098 0.262-0.316 0.501-0.833 0.501-0.555 0-0.773-0.272-0.773-0.539 0-0.289 0.267-0.419 0.877-0.594 0.773-0.217 1.35-0.452 1.35-1.143" fill="#ff5"/>
   </g>
  </g>
 </g>
 <g transform="matrix(27.79 0 0 -27.79 -14079 3678.8)" fill="#282828">
  <g transform="translate(510.56 130.16)">
   <path d="m0 0v-1.133h1.617v-0.506h-1.617v-1.655h-0.523v3.811h2.5v-0.517z" fill="#282828"/>
  </g>
  <path d="m515.78 128.74h0.909c0.458 0 0.708 0.338 0.708 0.713 0 0.371-0.25 0.708-0.708 0.708h-0.909zm0.898-0.517h-0.898v-1.356h-0.523v3.811h1.432c0.774 0 1.242-0.549 1.242-1.225 0-0.506-0.261-0.942-0.713-1.127l0.822-1.459h-0.594z"/>
  <path d="m523.27 127.39v-0.523h-2.527v3.812h2.5v-0.517h-1.982v-1.133h1.813v-0.507h-1.813v-1.132z"/>
  <path d="m528.57 127.39v-0.523h-2.527v3.812h2.5v-0.517h-1.982v-1.133h1.813v-0.507h-1.813v-1.132z"/>
 </g>
</svg>
