<svg width="151.39pt" height="154.74pt" version="1.1" viewBox="0 0 151.39 154.74" xmlns="http://www.w3.org/2000/svg">
 <path d="m27.3 0.18h57.18l-5.28 29.7h-24.42l-8.1599 45.6h24.42l-5.28 30h-24.42l-8.7599 49.26h-32.58z" fill="#10facc"/>
 <path d="m95.459 0c8.1599 0 16.38 0.42 24.42 1.92 5.88 1.14 11.7 2.88 16.86 5.88 3.96 2.28 7.44 5.4 9.8399 9.2399 2.88 4.56 4.2 9.8999 4.62 15.18 0.48 6.06 0 12.12-0.95999 18.12-0.66 4.38-1.44 8.8199-2.76 13.14-1.26 4.08-2.88 8.0399-4.98 11.82-3.9 7.0799-9.4799 13.32-16.14 17.94-3.66 2.52-7.6799 4.68-12 6.06 8.9798 18.48 17.96 36.96 26.94 55.44h-40.56l-23.04-49.56 5.28-29.76c3.78 0 7.5599 0 11.28-0.6 4.98-0.72 9.9599-2.4 13.86-5.64 3.78-3.06 6.36-7.4399 7.68-12.12 0.95999-3.18 1.5-6.54 1.74-9.8399 0.18-3.36 0-6.84-1.5-9.8999-1.08-2.1-2.88-3.84-4.98-4.86-3-1.56-6.42-2.04-9.7799-2.34-3.72-0.24-7.5-0.24-11.22-0.42z" fill="#176b61" opacity=".4"/>
</svg>
