<svg height="154.73885pt" viewBox="0 0 179.68813 154.73885" width="179.68813pt" xmlns="http://www.w3.org/2000/svg"><path d="m27.29979.18h57.179584l-5.279963 29.69978h-24.419821l-8.15994 45.599662h24.41982l-5.27996 29.999778h-24.41982l-8.75993 49.25963h-32.57976z" fill="#1a2d33"/><path d="m95.459292 0c8.159948 0 16.379888.42 24.419828 1.91999 5.87995 1.13999 11.69991 2.87998 16.85987 5.87996 3.95997 2.27998 7.43995 5.39996 9.83992 9.23993 2.87998 4.55996 4.19997 9.89993 4.61997 15.17989.48 6.059951 0 12.119906-.95999 18.119862-.66 4.379967-1.43999 8.819934-2.75998 13.139902-1.25999 4.07997-2.87998 8.039941-4.97997 11.819915-3.89997 7.079948-9.47992 13.319895-16.13988 17.939866-3.65997 2.519977-7.67994 4.679962-11.99991 6.059955 8.97979 18.47993 17.95978 36.95976 26.9398 55.43958h-40.55969l-23.039841-49.55963 5.279962-29.759771c3.77997 0 7.559948 0 11.279918-.599999 4.979963-.719995 9.959931-2.399982 13.859901-5.639958 3.77997-3.059977 6.35995-7.439945 7.67995-12.119911.95999-3.179976 1.49998-6.539951 1.73998-9.839926.18-3.359976 0-6.83995-1.49999-9.899928-1.07999-2.099984-2.87998-3.839967-4.97996-4.859967-2.99998-1.55998-6.41995-2.03998-9.77993-2.33998-3.719973-.24-7.499951-.24-11.219921-.42z" fill="#176b61"/><path d="m254.95 138.46c4.84-9.05 13.56-16.62 24.01-17.94 7.78-.97 16.12.06 22.55 4.87 6.79 4.38 10.49 12.59 10.03 20.57-.03 7.73-4.54 14.42-9.44 20.03-6.4 7.53-13.69 14.28975-20.3 21.61975h32.08v16.3005h-38.39l-10.7458-22.11526.0358-.045c7.12-7.88 14.98-15.05 22.03-22.99 3.33-3.93 7.21-8.34 6.85-13.85.05-5.78-6.16-10.33-11.68-8.78-5.78 1.18-9.46 6.26-12.68 10.77z" fill="#008fca" transform="translate(-134.19187 -49.171404)"/></svg>