<?xml version="1.0" encoding="UTF-8" standalone="no"?>
<svg
   xmlns:dc="http://purl.org/dc/elements/1.1/"
   xmlns:cc="http://creativecommons.org/ns#"
   xmlns:rdf="http://www.w3.org/1999/02/22-rdf-syntax-ns#"
   xmlns:svg="http://www.w3.org/2000/svg"
   xmlns="http://www.w3.org/2000/svg"
   xmlns:sodipodi="http://sodipodi.sourceforge.net/DTD/sodipodi-0.dtd"
   xmlns:inkscape="http://www.inkscape.org/namespaces/inkscape"
   width="664.86755pt"
   height="816.28003pt"
   viewBox="0 0 664.86755 816.28003"
   version="1.1"
   id="svg2"
   inkscape:version="0.91 r13725"
   sodipodi:docname="Geo Tez - Dark.svg">
  <metadata
     id="metadata35">
    <rdf:RDF>
      <cc:Work
         rdf:about="">
        <dc:format>image/svg+xml</dc:format>
        <dc:type
           rdf:resource="http://purl.org/dc/dcmitype/StillImage" />
        <dc:title></dc:title>
      </cc:Work>
    </rdf:RDF>
  </metadata>
  <defs
     id="defs33" />
  <sodipodi:namedview
     pagecolor="#ffffff"
     bordercolor="#666666"
     borderopacity="1"
     objecttolerance="10"
     gridtolerance="10"
     guidetolerance="10"
     inkscape:pageopacity="0"
     inkscape:pageshadow="2"
     inkscape:window-width="1920"
     inkscape:window-height="1017"
     id="namedview31"
     showgrid="false"
     fit-margin-top="0"
     fit-margin-left="0"
     fit-margin-right="0"
     fit-margin-bottom="0"
     inkscape:zoom="0.4621787"
     inkscape:cx="320.54461"
     inkscape:cy="708.90235"
     inkscape:window-x="-8"
     inkscape:window-y="-8"
     inkscape:window-maximized="1"
     inkscape:current-layer="svg2" />
  <g
     id="#000000ff"
     transform="translate(-0.13246849,0)">
    <path
       d="m 78.93,0 466.81,0 c 24.35,163.56 48.66,327.14 72.99,490.71 -185.64,0.1 -371.28,-0.2 -556.91,-0.15 C 41.33,355.36 20.92,220.15 0.41,84.95 -0.35,76.97 0.56,68.92 1.82,61.04 4.59,44.78 12.65,29.16 25.58,18.7 40.51,6.42 59.95,1.25 78.93,0"
       id="path5"
       inkscape:connector-curvature="0"
       style="opacity:1;fill:#000000"
       sodipodi:nodetypes="cccccccc" />
    <path
       d="m 67.94,533.24 551.35,0.22 45.71,281.48 0,0.53 -551.29,0.81 -45.77,-283.04"
       id="path7"
       inkscape:connector-curvature="0"
       style="opacity:1;fill:#000000"
       sodipodi:nodetypes="cccccc" />
  </g>
  <g
     id="#ffffffff"
     transform="translate(-0.13246849,0)">
    <path
       d="M 46.18,13.08 C 58.73,7.82 72.43,5.55 86,5.85 c 49.88,0.01 99.76,-0.01 149.64,0 -20.86,36.17 -41.84,72.25 -62.62,108.46 21.33,-18.47 47.71,-31.68 75.91,-35.03 23.86,-2.93 48.39,0.8 70.54,10.05 7.13,2.96 13.77,6.92 20.52,10.65 42.3,23.6 84.64,47.14 126.93,70.75 -33.77,-11.53 -69.18,-18.6 -104.89,-19.49 -38.01,-1.12 -76.2,5.1 -111.9,18.2 -33.65,12.06 -65.6,29.01 -94.15,50.56 -28.35,21.39 -53.31,47.25 -73.72,76.32 C 68.51,316.03 56.61,337.13 47.78,359.51 34.01,268.01 20.08,176.52 6.28,85.02 5.33,68.74 7.87,51.65 16.61,37.6 23.46,26.48 34.19,18.07 46.18,13.08 Z"
       id="path10"
       inkscape:connector-curvature="0"
       style="opacity:1;fill:#ffffff" />
    <path
       d="M 293.98,5.87 540.7,5.68 565.24,170.03 Z"
       id="path12"
       inkscape:connector-curvature="0"
       style="opacity:1;fill:#ffffff"
       sodipodi:nodetypes="cccc" />
    <path
       d="m 361.14,203.42 c 36.91,-5.13 74.79,-3.2 110.95,5.84 37.66,9.26 73.31,25.73 105.89,46.63 l 33.99,229 -506.29,-0.03 c 1.08,-67.29 28.23,-133.21 72.8,-183.37 46.61,-53.06 112.6,-88.72 182.66,-98.07 M 307.8,312.55 c 3.69,24.1 7.62,48.15 11.22,72.26 26.72,0.14 53.45,0.07 80.17,0.04 -3.85,-24.09 -7.59,-48.19 -11.4,-72.28 -26.66,-0.04 -53.33,-0.02 -79.99,-0.02 z"
       id="path14"
       inkscape:connector-curvature="0"
       style="opacity:1;fill:#ffffff"
       sodipodi:nodetypes="cccccccccccc" />
    <path
       d="m 158.24,585.2 34.24,-0.01 5.09,32.29 -34.28,-0.02 z"
       id="path16"
       inkscape:connector-curvature="0"
       style="opacity:1;fill:#ffffff"
       sodipodi:nodetypes="ccccc" />
    <path
       d="m 477.61,585.18 34.32,0.07 5,32.21 -34.24,0.01 z"
       id="path18"
       inkscape:connector-curvature="0"
       style="opacity:1;fill:#ffffff"
       sodipodi:nodetypes="ccccc" />
    <path
       d="m 525.28,585.2 34.24,-0.01 5.04,32.29 -33.96,-0.03 z"
       id="path20"
       inkscape:connector-curvature="0"
       style="opacity:1;fill:#ffffff"
       sodipodi:nodetypes="ccccc" />
    <path
       d="m 197.31,668.14 28.97,-50.71 9.1,56.4 199.56,0.29 20.85,-36.91 6.48,37.02 139.63,0.02 5.79,36.76 -366.15,-0.26 9.32,57.61 -121.22,-54.03 75.34,-0.01 z"
       id="path22"
       inkscape:connector-curvature="0"
       style="opacity:1;fill:#ffffff"
       sodipodi:nodetypes="ccccccccccccc" />
    <path
       d="m 307.6,735.89 34.06,-0.07 5.25,32.35 -34.25,0.01 z"
       id="path24"
       inkscape:connector-curvature="0"
       style="opacity:1;fill:#ffffff"
       sodipodi:nodetypes="ccccc" />
    <path
       d="m 355.28,735.89 34.21,0 5.07,32.29 -34.25,-0.01 z"
       id="path26"
       inkscape:connector-curvature="0"
       style="opacity:1;fill:#ffffff"
       sodipodi:nodetypes="ccccc" />
  </g>
  <g
     id="#ec1c24ff"
     transform="translate(-0.13246849,0)">
    <path
       d="m 307.8,312.55 79.99,0.02 11.4,72.28 -80.17,-0.04 z"
       id="path29"
       inkscape:connector-curvature="0"
       style="opacity:1;fill:#ec1c24"
       sodipodi:nodetypes="ccccc" />
  </g>
</svg>
