<svg enable-background="new 0 0 39 49" height="51.792728" viewBox="0 0 37.922818 48.555681" width="40.451004" xmlns="http://www.w3.org/2000/svg" xmlns:xlink="http://www.w3.org/1999/xlink"><linearGradient id="a" gradientTransform="matrix(-3515.3333 -5858.8801 -5858.8801 3515.3333 1460796 -3154786.6)" gradientUnits="userSpaceOnUse" x1="-286.06979" x2="-285.97241" y1="420.87009" y2="420.87009"><stop offset="0" stop-color="#e8e8e8"/><stop offset="1" stop-color="#e6e6e6"/></linearGradient><radialGradient id="b" cx="77.64817" cy="-116.9932" gradientTransform="matrix(7.9551522 -4.5929093 .38364778 .66449802 -519.73024 832.07616)" gradientUnits="userSpaceOnUse" r="305.54059" xlink:href="#c"/><linearGradient id="c"><stop offset="0" stop-color="#f27124"/><stop offset="1" stop-color="#fcc34f"/></linearGradient><radialGradient id="d" cx="24.162895" cy="40.570198" gradientTransform="matrix(-.0000001 -9.3143414 18.98414 -.0000002 -2.56171 428.36756)" gradientUnits="userSpaceOnUse" r="18.959999" xlink:href="#c"/><radialGradient id="e" cx="732.31067" cy="734.14252" gradientTransform="matrix(.00000004 -1.1303172 1.9024696 .00000006 -664.37311 1474.3971)" gradientUnits="userSpaceOnUse" r="327.04407"><stop offset="0" stop-color="#2d9cd6"/><stop offset=".45537096" stop-color="#3073b7"/><stop offset="1" stop-color="#2f4496"/></radialGradient><g transform="matrix(.04962345 0 0 .04962345 -.045439 -.094721)"><path d="m462.3478 573.77461c-45.2667 0-81.9276-36.64068-81.9276-81.80668 0-45.26677 36.6609-81.96792 81.9276-81.96792 45.3071 0 81.8873 36.70115 81.8873 81.96792-.02 45.166-36.5802 81.80668-81.8873 81.80668m-194.0465-250.17648c-208.9204 150.57347-150.2308 362.51707-150.2308 362.51707h535.9859c108.6121-13.50344 110.6073-101.05413 110.6073-101.05413v-302.71898s-287.3411-109.17635-496.3624 41.25604" fill="url(#a)"/><path d="m764.9257 200.67648v-93.91947s-2.8216-105.68964-131.3663-104.84315h-300.502-202.854c-126.8316-.84649-129.5927 119.91864-129.2702 104.58114v441.34091c0-.74571 0-1.41081 0-1.99529v38.57551s2.1666 87.67161 110.2646 100.20764l7.2153.38294 535.079-.38294c109.0151-12.53603 111.1515-106.69735 110.9298-100.20764v-289.27601l.2519-13.84606.4031-80.61758z" fill="#fff"/><path d="m334.18602 3.123123-93.21407 135.538297s91.05755-67.19475 155.43068-57.157863c0 0 39.34137 4.595202 114.33587 54.376553l101.31613 62.92201s-161.13437-26.46271-311.5466 20.98073c0 0-252.35316 72.43489-299.53459373 328.49645v-441.05874s2.51929913-105.1857742 130.29815373-104.097437z" fill="url(#b)"/><path d="m764.86524 107.22056s-2.53945-105.1857742-130.37877-104.097437h-176.1897l-20.87995.1612351 327.71043 198.4603119z" fill="url(#d)"/><path d="m462.2068 572.66612c-45.166 0-81.9075-36.58022-81.9075-81.86715 0-45.22645 36.7415-81.88729 81.9075-81.88729 45.2264 0 81.847 36.66084 81.847 81.88729-.02 45.26677-36.6206 81.86715-81.847 81.86715m-193.9659-250.0354c-208.9003 150.51301-150.2107 362.53722-150.2107 362.53722h535.9658c108.5515-13.58406 110.5267-101.23551 110.5267-101.23551v-302.61822s-287.3614-109.37789-496.2818 41.31651" fill="url(#e)"/></g><g fill="#fff"><path d="m1.305 48.377682v-11.655h1.6l6.094 9.146v-9.146h1.488v11.654h-1.592l-6.098-9.142v9.142h-1.492z"/><path d="m17.471 45.662682 1.429.182c-.237.863-.663 1.532-1.298 2.001-.631.475-1.435.709-2.417.709-1.23 0-2.212-.378-2.936-1.133-.721-.758-1.083-1.82-1.083-3.188 0-1.417.371-2.513 1.096-3.292.73-.785 1.682-1.176 2.844-1.176 1.131 0 2.049.383 2.767 1.155.715.76 1.069 1.845 1.069 3.232 0 .084 0 .21-.006.384h-6.309c.054.925.32 1.629.797 2.12.478.498 1.072.74 1.789.74.532 0 .989-.14 1.359-.415.374-.27.673-.713.899-1.319zm-4.752-2.29h4.764c-.059-.715-.247-1.255-.549-1.614-.453-.554-1.053-.826-1.791-.826-.665 0-1.225.218-1.675.664-.451.444-.702 1.037-.749 1.776z"/><path d="m21.007 48.377682-2.591-8.434h1.494l1.367 4.854.478 1.826c.017-.089.167-.67.452-1.741l1.337-4.939h1.466l1.252 4.887.408 1.614.495-1.626 1.479-4.875h1.392l-2.7 8.434h-1.457l-1.324-5.057-.322-1.432-1.739 6.488h-1.487z"/><path d="m29.642 45.817682 1.394-.18c.083.565.3 1.005.666 1.305.359.302.867.454 1.516.454.661 0 1.146-.131 1.461-.402.314-.268.475-.584.475-.944 0-.322-.146-.58-.432-.759-.198-.135-.687-.302-1.456-.499-1.038-.256-1.76-.486-2.163-.678-.396-.193-.702-.467-.908-.801-.21-.337-.314-.713-.314-1.123 0-.377.083-.722.254-1.043.172-.323.406-.584.704-.803.215-.155.516-.293.901-.41.379-.116.785-.17 1.231-.17.65 0 1.225.1 1.718.287.509.183.87.443 1.108.768.236.328.396.748.493 1.298l-1.408.187c-.057-.434-.245-.772-.542-1.01-.305-.24-.728-.362-1.28-.362-.65 0-1.117.107-1.392.326-.279.214-.418.47-.418.765 0 .188.057.354.174.501.113.152.298.28.54.383.144.052.56.179 1.25.366 1.005.267 1.714.486 2.104.66.405.168.715.417.951.744.227.326.349.738.349 1.223 0 .471-.144.922-.42 1.343-.274.416-.674.742-1.194.972-.521.228-1.114.34-1.773.34-1.093 0-1.924-.228-2.498-.686-.575-.465-.936-1.15-1.091-2.052z"/></g></svg>