<?xml version="1.0" encoding="UTF-8" standalone="no"?>
<svg
   xmlns:dc="http://purl.org/dc/elements/1.1/"
   xmlns:cc="http://creativecommons.org/ns#"
   xmlns:rdf="http://www.w3.org/1999/02/22-rdf-syntax-ns#"
   xmlns:svg="http://www.w3.org/2000/svg"
   xmlns="http://www.w3.org/2000/svg"
   xmlns:sodipodi="http://sodipodi.sourceforge.net/DTD/sodipodi-0.dtd"
   xmlns:inkscape="http://www.inkscape.org/namespaces/inkscape"
   width="664.86755pt"
   height="816.28003pt"
   viewBox="0 0 664.86755 816.28003"
   version="1.1"
   id="svg2"
   inkscape:version="0.91 r13725"
   sodipodi:docname="Geo Tez.svg">
  <metadata
     id="metadata35">
    <rdf:RDF>
      <cc:Work
         rdf:about="">
        <dc:format>image/svg+xml</dc:format>
        <dc:type
           rdf:resource="http://purl.org/dc/dcmitype/StillImage" />
        <dc:title></dc:title>
      </cc:Work>
    </rdf:RDF>
  </metadata>
  <defs
     id="defs33" />
  <sodipodi:namedview
     pagecolor="#ffffff"
     bordercolor="#666666"
     borderopacity="1"
     objecttolerance="10"
     gridtolerance="10"
     guidetolerance="10"
     inkscape:pageopacity="0"
     inkscape:pageshadow="2"
     inkscape:window-width="1920"
     inkscape:window-height="1017"
     id="namedview31"
     showgrid="false"
     fit-margin-top="0"
     fit-margin-left="0"
     fit-margin-right="0"
     fit-margin-bottom="0"
     inkscape:zoom="0.4621787"
     inkscape:cx="320.54461"
     inkscape:cy="708.90235"
     inkscape:window-x="-8"
     inkscape:window-y="-8"
     inkscape:window-maximized="1"
     inkscape:current-layer="svg2" />
  <path
     sodipodi:nodetypes="cccccccc"
     style="opacity:1;fill:#000000"
     inkscape:connector-curvature="0"
     id="path5"
     d="M 78.797532,0 545.60753,0 c 24.35,163.56 48.66,327.14 72.99,490.71 -185.64,0.1 -371.28,-0.2 -556.909998,-0.15 -20.49,-135.2 -40.9,-270.41 -61.41000049,-405.61 -0.76,-7.98 0.15,-16.03 1.40999999,-23.91 2.77,-16.26 10.8300005,-31.88 23.7600005,-42.34 14.93,-12.28 34.37,-17.45 53.35,-18.7" />
  <path
     sodipodi:nodetypes="cccccc"
     style="opacity:1;fill:#ffffff;fill-opacity:1"
     inkscape:connector-curvature="0"
     id="path7"
     d="m 67.807532,533.24 551.349998,0.22 45.71,281.48 0,0.53 -551.29,0.81 -45.769998,-283.04" />
  <path
     style="opacity:1;fill:#ffffff"
     inkscape:connector-curvature="0"
     id="path10"
     d="m 46.047532,13.08 c 12.55,-5.26 26.25,-7.53 39.82,-7.23 49.879998,0.01 99.759998,-0.01 149.639998,0 -20.86,36.17 -41.84,72.25 -62.62,108.46 21.33,-18.47 47.71,-31.68 75.91,-35.03 23.86,-2.93 48.39,0.8 70.54,10.05 7.13,2.96 13.77,6.92 20.52,10.65 42.3,23.6 84.64,47.14 126.93,70.75 -33.77,-11.53 -69.18,-18.6 -104.89,-19.49 -38.01,-1.12 -76.2,5.1 -111.9,18.2 -33.65,12.06 -65.6,29.01 -94.15,50.56 -28.35,21.39 -53.31,47.25 -73.719998,76.32 -13.75,19.71 -25.65,40.81 -34.48,63.19 -13.77,-91.5 -27.7,-182.99 -41.5000005,-274.49 -0.95,-16.28 1.59,-33.37 10.3300005,-47.42 6.85,-11.12 17.58,-19.53 29.57,-24.52 z" />
  <path
     sodipodi:nodetypes="cccc"
     style="opacity:1;fill:#ffffff"
     inkscape:connector-curvature="0"
     id="path12"
     d="m 293.84753,5.87 246.72,-0.19 24.54,164.35 z" />
  <path
     sodipodi:nodetypes="cccccccccccc"
     style="opacity:1;fill:#ffffff"
     inkscape:connector-curvature="0"
     id="path14"
     d="m 361.00753,203.42 c 36.91,-5.13 74.79,-3.2 110.95,5.84 37.66,9.26 73.31,25.73 105.89,46.63 l 33.99,229 -506.29,-0.03 c 1.08,-67.29 28.23,-133.21 72.8,-183.37 46.61,-53.06 112.6,-88.72 182.66,-98.07 m -53.34,109.13 c 3.69,24.1 7.62,48.15 11.22,72.26 26.72,0.14 53.45,0.07 80.17,0.04 -3.85,-24.09 -7.59,-48.19 -11.4,-72.28 -26.66,-0.04 -53.33,-0.02 -79.99,-0.02 z" />
  <path
     sodipodi:nodetypes="ccccc"
     style="opacity:1;fill:#000000;fill-opacity:1"
     inkscape:connector-curvature="0"
     id="path16"
     d="m 158.10753,585.2 34.24,-0.01 5.09,32.29 -34.28,-0.02 z" />
  <path
     sodipodi:nodetypes="ccccc"
     style="opacity:1;fill:#000000;fill-opacity:1"
     inkscape:connector-curvature="0"
     id="path18"
     d="m 477.47753,585.18 34.32,0.07 5,32.21 -34.24,0.01 z" />
  <path
     sodipodi:nodetypes="ccccc"
     style="opacity:1;fill:#000000;fill-opacity:1"
     inkscape:connector-curvature="0"
     id="path20"
     d="m 525.14753,585.2 34.24,-0.01 5.04,32.29 -33.96,-0.03 z" />
  <path
     sodipodi:nodetypes="ccccccccccccc"
     style="opacity:1;fill:#000000;fill-opacity:1"
     inkscape:connector-curvature="0"
     id="path22"
     d="m 197.17753,668.14 28.97,-50.71 9.1,56.4 199.56,0.29 20.85,-36.91 6.48,37.02 139.63,0.02 5.79,36.76 -366.15,-0.26 9.32,57.61 -121.22,-54.03 75.34,-0.01 z" />
  <path
     sodipodi:nodetypes="ccccc"
     style="opacity:1;fill:#000000;fill-opacity:1"
     inkscape:connector-curvature="0"
     id="path24"
     d="m 307.46753,735.89 34.06,-0.07 5.25,32.35 -34.25,0.01 z" />
  <path
     sodipodi:nodetypes="ccccc"
     style="opacity:1;fill:#000000;fill-opacity:1"
     inkscape:connector-curvature="0"
     id="path26"
     d="m 355.14753,735.89 34.21,0 5.07,32.29 -34.25,-0.01 z" />
  <path
     sodipodi:nodetypes="ccccc"
     style="opacity:1;fill:#ec1c24"
     inkscape:connector-curvature="0"
     id="path29"
     d="m 307.66753,312.55 79.99,0.02 11.4,72.28 -80.17,-0.04 z" />
</svg>
