<?xml version="1.0" encoding="UTF-8" standalone="no"?>
<!-- Created with Inkscape (http://www.inkscape.org/) -->

<svg
   xmlns:dc="http://purl.org/dc/elements/1.1/"
   xmlns:cc="http://creativecommons.org/ns#"
   xmlns:rdf="http://www.w3.org/1999/02/22-rdf-syntax-ns#"
   xmlns:svg="http://www.w3.org/2000/svg"
   xmlns="http://www.w3.org/2000/svg"
   xmlns:sodipodi="http://sodipodi.sourceforge.net/DTD/sodipodi-0.dtd"
   xmlns:inkscape="http://www.inkscape.org/namespaces/inkscape"
   height="442.26"
   width="600"
   version="1.1"
   id="svg2"
   inkscape:version="0.91 r13725"
   sodipodi:docname="God TV.svg">
  <sodipodi:namedview
     pagecolor="#ffffff"
     bordercolor="#666666"
     borderopacity="1"
     objecttolerance="10"
     gridtolerance="10"
     guidetolerance="10"
     inkscape:pageopacity="0"
     inkscape:pageshadow="2"
     inkscape:window-width="1920"
     inkscape:window-height="1017"
     id="namedview18"
     showgrid="false"
     inkscape:zoom="0.96"
     inkscape:cx="329.76389"
     inkscape:cy="237.90434"
     inkscape:window-x="-8"
     inkscape:window-y="-8"
     inkscape:window-maximized="1"
     inkscape:current-layer="svg2" />
  <defs
     id="defs4" />
  <metadata
     id="metadata6">
    <rdf:RDF>
      <cc:Work
         rdf:about="">
        <dc:format>image/svg+xml</dc:format>
        <dc:type
           rdf:resource="http://purl.org/dc/dcmitype/StillImage" />
        <dc:title />
      </cc:Work>
    </rdf:RDF>
  </metadata>
  <path
     sodipodi:nodetypes="cccccc"
     style="fill:#ffffff;fill-opacity:1;fill-rule:nonzero"
     id="path12-1"
     d="m 0.0018,-0.00599 600.0082,0 0,442.266 -600.01,0 0,-442.2714 z"
     inkscape:connector-curvature="0" />
  <g
     transform="translate(-153.4582,-492.81599)"
     id="g8"
     style="fill:#808391;fill-opacity:1;fill-rule:nonzero">
    <path
       d="m 427.13,718.42 c 0,-27.538 20.509,-49.87 45.82,-49.87 25.296,0 45.82,22.331 45.82,49.87 0,27.538 -20.524,49.87 -45.82,49.87 -25.311,0 -45.82,-22.331 -45.82,-49.87"
       id="path10"
       style="fill:#808391;fill-opacity:1"
       inkscape:connector-curvature="0" />
    <path
       d="m 153.46,492.81 468.77,0 c -6.7255,3.0952 -13.711,6.5085 -20.972,10.255 l -65.172,33.613 41.539,98.481 c -15.187,-23.532 -35.652,-40.743 -59.835,-50.26 -32.788,-12.612 -68.094,-10.428 -101.62,6.8556 -33.526,17.2836 -57.752,45.791 -70.075,81.675 -9.2421,27.437 -10.341,56.595 -3.0518,85.493 l -111.87,57.68 24.544,58.201 35.103,-18.094 c 3.5146,13.784 -3.2976,26.584 -18.961,34.654 -25.687,13.248 -49.523,1.0703 -64.275,-33.917 -14.608,-34.64 -7.087,-63.827 15.794,-75.615 13.784,-7.116 26.584,-5.6986 40.57,3.963 l 59.343,-66.445 c -40.541,-30.981 -86.838,-34.944 -132.59,-11.354 -14.131,7.2895 -26.627,16.445 -37.243,27.249 l 0,-242.44 z"
       id="path12"
       style="fill:#808391;fill-opacity:1"
       inkscape:connector-curvature="0" />
    <path
       d="m 688.6,667.65 -40.469,-95.964 3.4423,-1.779 c 32.586,-16.792 55.308,-9.9508 69.048,22.606 14.16,33.613 3.3989,56.031 -32.022,75.137"
       id="path14"
       style="fill:#808391;fill-opacity:1"
       inkscape:connector-curvature="0" />
    <path
       d="m 377.81,825.92 c 13.003,14.42 28.551,25.224 46.167,32.152 32.788,12.627 68.253,10.79 101.78,-6.494 33.208,-17.125 57.911,-46.312 69.757,-81.516 9.083,-27.003 10.5,-55.105 3.9774,-83.063 l 41.076,97.367 59.213,-30.532 c 20.292,-10.457 38.27,-20.336 53.688,-31.458 l 0,212.7 -410.95,0 c 16.792,-19.005 28.247,-42.248 33.266,-67.746 2.6468,-13.639 3.3266,-27.379 2.0249,-41.409"
       id="path16"
       style="fill:#808391;fill-opacity:1"
       inkscape:connector-curvature="0" />
  </g>
</svg>
