<svg enable-background="new 0 0 467 97" height="600" viewBox="0 0 600 599.99993" width="600" xmlns="http://www.w3.org/2000/svg" xmlns:xlink="http://www.w3.org/1999/xlink"><radialGradient id="a" cx="172.96" cy="325.04" gradientTransform="matrix(-4.7037864 -9.8700814 10.647224 -5.0741663 -2226.8005 3886.2902)" gradientUnits="userSpaceOnUse" r="49.089"><stop offset="0" stop-color="#fc0"/><stop offset=".81165" stop-color="#ec6800"/><stop offset=".88874" stop-color="#ea4902"/><stop offset=".9124" stop-color="#e73900"/><stop offset="1" stop-color="#f00"/></radialGradient><path d="m600 300c0 165.6-134.4 300-300 300s-300-134.4-300-300 134.4-300 300-300c69.13 0 118.7 24.783 118.7 24.783s28.696 62.609 28.696 62.609-57.391 53.478-57.391 53.478 78.261-9.1304 78.261-9.1304 32.609 71.739 32.609 71.739 15.652-78.261 15.652-78.261 24.783-2.6087 24.783-2.6087 58.696 69.13 58.696 177.39z" fill="url(#a)"/><g fill="#fff" fill-rule="evenodd"><path d="m120 395.22h40.435v-75.652h53.478v-32.609h-53.478v-39.13h79.565v-33.913h-120v181.3z"/><path d="m56.087 370.43c0-5.2174 3.913-7.8261 9.1304-7.8261v-15.652c-10.435 0-22.174 6.5217-22.174 23.478 0 16.957 11.739 24.783 23.478 24.783h26.087c11.739 0 23.478-6.5217 23.478-24.783 0-11.739-7.8261-15.652-7.8261-15.652h6.5217v-7.8261h-36.522v23.478h11.739v-7.8261h3.913c5.2174 0 9.1304 2.6087 9.1304 7.8261s-3.913 9.1304-9.1304 9.1304h-28.696c-5.2174 0-9.1304-3.913-9.1304-9.1304z"/><path d="m326.09 319.57c0-32.609-9.1304-58.696-50.121-58.682-45.096-.0122-52.922 26.073-52.922 58.682v18.261c0 32.609 7.8261 58.696 52.922 58.521 40.991.17439 50.121-25.913 50.121-58.521zm-35.217-2.6087c0-20.128-2.8821-29.92-15.861-29.912-14.279-.006-16.748 9.7841-16.748 29.912v23.478c0 20.128 2.4691 30.332 16.748 30.225 12.979.1077 15.861-10.097 15.861-30.225z"/><path d="m434.87 319.57c0-32.609-9.1304-58.696-50.121-58.682-45.096-.0122-52.922 26.073-52.922 58.682v18.261c0 32.609 7.8261 58.696 52.922 58.521 40.991.17439 50.121-25.913 50.121-58.521zm-35.217-2.6087c0-20.128-2.8821-29.92-15.861-29.912-14.279-.006-16.748 9.7841-16.748 29.912v23.478c0 20.128 2.4691 30.332 16.748 30.225 12.979.1077 15.861-10.097 15.861-30.225z"/><path d="m92.226 341.42c12.644 0 22.76-3.4296 22.755-18.826.005-16.939-10.11-19.879-22.755-19.879h-7.0808c-12.644 0-22.76 2.9397-22.692 19.879-.0673 15.397 10.048 18.826 22.692 18.826zm1.0116-13.228c7.8047 0 11.602-1.0826 11.599-5.9576.003-5.3634-3.7939-6.2908-11.599-6.2908h-9.104c-7.8047 0-11.762.92742-11.72 6.2908-.0428 4.875 3.9152 5.9576 11.72 5.9576z"/><path d="m92.226 297.58c12.644 0 22.76-3.4296 22.755-18.826.005-16.939-10.11-19.879-22.755-19.879h-7.0808c-12.644 0-22.76 2.9397-22.692 19.879-.0673 15.397 10.048 18.826 22.692 18.826zm1.0116-13.228c7.8047 0 11.602-1.0826 11.599-5.9576.003-5.3634-3.7939-6.2908-11.599-6.2908h-9.104c-7.8047 0-11.762.92742-11.72 6.2908-.0428 4.875 3.9152 5.9576 11.72 5.9576z"/><path d="m542.61 213.91h-33.913v69.13s-9.1304-22.174-35.217-22.174c-31.304 0-33.704 26.087-33.704 58.696v18.261c0 32.609 3.7044 58.696 33.704 58.696 27.391 0 36.522-23.478 36.522-23.478v22.174h32.609c.32126-57.826.12361-123.48 0-181.3zm-33.913 87.391c0-3.913-11.042-13.05-20.87-13.043-7.8261 0-13.043 7.8261-13.043 20.87v35.217c0 11.739 3.913 21.652 13.043 21.652 12.979.1077 20.87-9.9131 20.87-13.826z"/><path d="m44.829 213.91v13.023h26.57s-8.5225 3.5061-8.5225 13.524c0 12.021 10.027 12.943 22.56 12.943h7.0185c12.533 0 22.56-1.4225 22.56-12.943 0-10.519-9.0239-14.025-9.0239-14.025h8.5226v-12.522c-22.225-.12361-47.459-.0489-69.684 0zm33.589 13.023c-1.504 0-5.0158 4.2402-5.0133 8.0141 0 3.0053 3.008 5.0089 8.0212 5.0089h13.536c4.5119 0 8.322-1.5027 8.322-5.0089.0428-4.984-3.8101-8.0141-5.314-8.0141h-19.552z"/></g></svg>