<svg height="521.64771pt" viewBox="0 0 580.67999 521.64771" width="580.67999pt" xmlns="http://www.w3.org/2000/svg"><g transform="translate(-323.27 -98.235027)"><path d="m450.52 101.33c39.84-7.24 82.57-2 118.07 18.07 8 4.6 15.88 9.58 22.76 15.75-.14 29.04-.04 58.09-.06 87.13-1.13289-5.47-2.97-11.16-5.09-16.54-6.57-17.96-19.67-32.88-34.95-44.05-33.63-24.14-80.27-27.33-117.57-9.99-21.85 10.19-39.4 28.53-49.82 50.16-4.74 9.44-7.92 19.56-10.53 29.77l-.36.25c-16.13.08-32.28-.12-48.41.09 5.49-32.2 19.62-63.37 42.51-86.94 22.11-23.14 52.05-38.17 83.45-43.7z" fill="#29aae3"/><path d="m323.27 314.78 161.71.01-.06 41.88-112.79.05c.63 24.62-1.96 49.72 4.36 73.83 7.98 32.05 32.68 58.94 63.36 70.8 36.52 14.54 80.64 10.54 112.68-12.78 15.05-11.13 27.7-26.18 33.95-44 1.99-5.18 3.49962-10.19038 4.82-15.9.01 28.87-.11 57.74.07 86.61-4.57 4.62-10.18 8.03-15.57 11.58-38.94 24.66-88.04 31.3-132.62 20.61-35.58-8.36-68-29.21-90.52-57.96-10.95-13.95-18.71-30.28-23.13-47.43-4.94-18.93-6.35-38.59-6.22-58.09z" fill="#29aae3"/></g><g fill="#c7c7c9" transform="translate(-323.27 -98.235027)"><path d="m591.29 102.13 170.64-.05c21.54-.22 43.3 3.41 63.17 11.92 17.86 7.63 33.98 19.58 45.82 35.04 11.67 15.06 18.97 33.21 22.22 51.92 2.96 17.95 2.87 36.46-.8 54.29-3.66 18.12-11.45 35.5-23.22 49.81-17.75 21.76-43.95 35.5-71.24 40.92 35.36 67.5 70.62 135.04 106.07 202.49l-55.75-.09c-33.94-65.95-67.69-132-101.68-197.92h-107.49c-.27 51.53-.04 102.99-.12 154.52.07 14.47-.13 28.95.11 43.41l-47.85-.04zm47.63 42.54c-.01 54.58 0 109.15-.01 163.73 40.36.06 80.73-.03 121.09.05 19.99-.14 40.67-4.49 57.26-16.14 13.98-9.66 23.76-24.81 27.65-41.27 3.76-16.09 3.72-33.11-.17-49.16-4.02-16.4-13.87-31.31-27.7-41.04-16.22-11.47-36.41-15.92-56.01-16.2-40.7.04-81.41-.02-122.11.03z"/><path d="m716.44 565.49c8.58-4.11 19.49-2.57 26.63 3.73-1.26 1.32-2.56 2.61-3.87 3.88-5.07-4.88-13.12-6.11-19.54-3.44-6.07 2.76-7.57 12.72-1.65 16.39 6.63 3.86 15.16 1.85 21.63 6.17 7.75 5.27 7.73 18.19.24 23.69-5.39 4.09-12.53 4.38-19 3.66-5.25-.54-9.97-3.33-13.8-6.83 1.3-1.39 2.62-2.77 3.95-4.14 3.07 2.92 6.79 5.37 11.1 5.85 4.9.41 10.52.55 14.44-2.95 4.79-4.17 4.01-13.41-2.2-15.82-7.14-2.29-15.62-1.2-21.66-6.37-6.95-6.51-4.91-19.74 3.73-23.82z"/><path d="m826.46 563.55c8.43-1.62 17.95 2.74 21.42 10.77 2.35 6.64 1.32 13.8 1.56 20.69.01 6.16.21 13.17-4.18 18.07-7.57 9.27-23.6 9.03-30.86-.5-4.39-5.53-3.73-12.98-3.87-19.6.21-6.46-.65-13.28 2.01-19.36 2.62-5.37 8.09-9.04 13.92-10.07m-1.22 5.75c-3.57 1.37-6.76 4.26-7.79 8.03-1.38448 6.26187-1.29868 12.55276-1.1804 18.65.01 5.49.3104 12.04 5.1204 15.68 6.88 6.03 19.47 2.6 21.49-6.57 1.28-8.43 1.15-17.07.27-25.54-.81-8.23-10.45-13.24-17.91-10.25z"/><path d="m757.87 563.78 5.94.02-.1 24.99 26.95-.09-.12-24.93 5.94.03-.01 55.64-5.91.04.1-25.31-26.99-.08.15 25.31-5.95.07z"/><path d="m863.67 563.77 20.32-.01c4.37-.14 8.9 1.12 12.32 3.92 7.62 6.61 6.99 20.53-1.63 26.02-3.63553 2.23688-7.66071 2.8528-11.79097 2.8528h-13.47903l.07 22.9172-5.8.01zm5.68 5.2396-.04 22.2104h12.66c3.17.04 6.64.08 9.32-1.92 4.32-2.82 5.4-8.82 3.78-13.46-1.32-4.24-5.77-6.8404-10.07-6.8304z"/></g></svg>