<?xml version="1.0" encoding="UTF-8" standalone="no"?>
<svg
   xmlns:dc="http://purl.org/dc/elements/1.1/"
   xmlns:cc="http://creativecommons.org/ns#"
   xmlns:rdf="http://www.w3.org/1999/02/22-rdf-syntax-ns#"
   xmlns:svg="http://www.w3.org/2000/svg"
   xmlns="http://www.w3.org/2000/svg"
   xmlns:sodipodi="http://sodipodi.sourceforge.net/DTD/sodipodi-0.dtd"
   xmlns:inkscape="http://www.inkscape.org/namespaces/inkscape"
   width="580.67999pt"
   height="521.64771pt"
   viewBox="0 0 580.67999 521.64771"
   version="1.1"
   id="svg2"
   inkscape:version="0.91 r13725"
   sodipodi:docname="GR Shop - Dark.svg">
  <metadata
     id="metadata25">
    <rdf:RDF>
      <cc:Work
         rdf:about="">
        <dc:format>image/svg+xml</dc:format>
        <dc:type
           rdf:resource="http://purl.org/dc/dcmitype/StillImage" />
        <dc:title></dc:title>
      </cc:Work>
    </rdf:RDF>
  </metadata>
  <defs
     id="defs23" />
  <sodipodi:namedview
     pagecolor="#ffffff"
     bordercolor="#666666"
     borderopacity="1"
     objecttolerance="10"
     gridtolerance="10"
     guidetolerance="10"
     inkscape:pageopacity="0"
     inkscape:pageshadow="2"
     inkscape:window-width="1920"
     inkscape:window-height="1017"
     id="namedview21"
     showgrid="false"
     fit-margin-top="0"
     fit-margin-left="0"
     fit-margin-right="0"
     fit-margin-bottom="0"
     inkscape:zoom="1"
     inkscape:cx="468.37005"
     inkscape:cy="343.17902"
     inkscape:window-x="-8"
     inkscape:window-y="-8"
     inkscape:window-maximized="1"
     inkscape:current-layer="svg2" />
  <g
     id="#ffffffff"
     transform="translate(-323.27,-98.235027)" />
  <g
     id="#29aae3ff"
     transform="translate(-323.27,-98.235027)">
    <path
       d="m 450.52,101.33 c 39.84,-7.24 82.57,-2 118.07,18.07 8,4.6 15.88,9.58 22.76,15.75 -0.14,29.04 -0.04,58.09 -0.06,87.13 -1.13289,-5.47 -2.97,-11.16 -5.09,-16.54 -6.57,-17.96 -19.67,-32.88 -34.95,-44.05 -33.63,-24.14 -80.27,-27.33 -117.57,-9.99 -21.85,10.19 -39.4,28.53 -49.82,50.16 -4.74,9.44 -7.92,19.56 -10.53,29.77 l -0.36,0.25 c -16.13,0.08 -32.28,-0.12 -48.41,0.09 5.49,-32.2 19.62,-63.37 42.51,-86.94 22.11,-23.14 52.05,-38.17 83.45,-43.7 z"
       id="path6"
       inkscape:connector-curvature="0"
       style="opacity:1;fill:#29aae3"
       sodipodi:nodetypes="ccccccccccccc" />
    <path
       d="m 323.27,314.78 161.71,0.01 -0.06,41.88 -112.79,0.05 c 0.63,24.62 -1.96,49.72 4.36,73.83 7.98,32.05 32.68,58.94 63.36,70.8 36.52,14.54 80.64,10.54 112.68,-12.78 15.05,-11.13 27.7,-26.18 33.95,-44 1.99,-5.18 3.49962,-10.19038 4.82,-15.9 0.01,28.87 -0.11,57.74 0.07,86.61 -4.57,4.62 -10.18,8.03 -15.57,11.58 -38.94,24.66 -88.04,31.3 -132.62,20.61 -35.58,-8.36 -68,-29.21 -90.52,-57.96 -10.95,-13.95 -18.71,-30.28 -23.13,-47.43 -4.94,-18.93 -6.35,-38.59 -6.22,-58.09 z"
       id="path8"
       inkscape:connector-curvature="0"
       style="opacity:1;fill:#29aae3"
       sodipodi:nodetypes="cccccccccccccccc" />
  </g>
  <g
     id="#6e6f71ff"
     transform="translate(-323.27,-98.235027)">
    <path
       d="m 591.29,102.13 170.64,-0.05 c 21.54,-0.22 43.3,3.41 63.17,11.92 17.86,7.63 33.98,19.58 45.82,35.04 11.67,15.06 18.97,33.21 22.22,51.92 2.96,17.95 2.87,36.46 -0.8,54.29 -3.66,18.12 -11.45,35.5 -23.22,49.81 -17.75,21.76 -43.95,35.5 -71.24,40.92 35.36,67.5 70.62,135.04 106.07,202.49 l -55.75,-0.09 c -33.94,-65.95 -67.69,-132 -101.68,-197.92 l -107.49,0 c -0.27,51.53 -0.04,102.99 -0.12,154.52 0.07,14.47 -0.13,28.95 0.11,43.41 l -47.85,-0.04 0.12,-446.22 m 47.63,42.54 c -0.01,54.58 0,109.15 -0.01,163.73 40.36,0.06 80.73,-0.03 121.09,0.05 19.99,-0.14 40.67,-4.49 57.26,-16.14 13.98,-9.66 23.76,-24.81 27.65,-41.27 3.76,-16.09 3.72,-33.11 -0.17,-49.16 -4.02,-16.4 -13.87,-31.31 -27.7,-41.04 -16.22,-11.47 -36.41,-15.92 -56.01,-16.2 -40.7,0.04 -81.41,-0.02 -122.11,0.03 z"
       id="path11"
       inkscape:connector-curvature="0"
       style="opacity:1;fill:#6e6f71"
       sodipodi:nodetypes="ccccccccccccccccccccccccc" />
    <path
       d="m 716.44,565.49 c 8.58,-4.11 19.49,-2.57 26.63,3.73 -1.26,1.32 -2.56,2.61 -3.87,3.88 -5.07,-4.88 -13.12,-6.11 -19.54,-3.44 -6.07,2.76 -7.57,12.72 -1.65,16.39 6.63,3.86 15.16,1.85 21.63,6.17 7.75,5.27 7.73,18.19 0.24,23.69 -5.39,4.09 -12.53,4.38 -19,3.66 -5.25,-0.54 -9.97,-3.33 -13.8,-6.83 1.3,-1.39 2.62,-2.77 3.95,-4.14 3.07,2.92 6.79,5.37 11.1,5.85 4.9,0.41 10.52,0.55 14.44,-2.95 4.79,-4.17 4.01,-13.41 -2.2,-15.82 -7.14,-2.29 -15.62,-1.2 -21.66,-6.37 -6.95,-6.51 -4.91,-19.74 3.73,-23.82 z"
       id="path13"
       inkscape:connector-curvature="0"
       style="opacity:1;fill:#6e6f71" />
    <path
       d="m 826.46,563.55 c 8.43,-1.62 17.95,2.74 21.42,10.77 2.35,6.64 1.32,13.8 1.56,20.69 0.01,6.16 0.21,13.17 -4.18,18.07 -7.57,9.27 -23.6,9.03 -30.86,-0.5 -4.39,-5.53 -3.73,-12.98 -3.87,-19.6 0.21,-6.46 -0.65,-13.28 2.01,-19.36 2.62,-5.37 8.09,-9.04 13.92,-10.07 m -1.22,5.75 c -3.57,1.37 -6.76,4.26 -7.79,8.03 -1.38448,6.26187 -1.29868,12.55276 -1.1804,18.65 0.01,5.49 0.3104,12.04 5.1204,15.68 6.88,6.03 19.47,2.6 21.49,-6.57 1.28,-8.43 1.15,-17.07 0.27,-25.54 -0.81,-8.23 -10.45,-13.24 -17.91,-10.25 z"
       id="path15"
       inkscape:connector-curvature="0"
       style="opacity:1;fill:#6e6f71"
       sodipodi:nodetypes="ccccccccccccccc" />
    <path
       d="m 757.87,563.78 5.94,0.02 -0.1,24.99 26.95,-0.09 -0.12,-24.93 5.94,0.03 -0.01,55.64 -5.91,0.04 0.1,-25.31 -26.99,-0.08 0.15,25.31 -5.95,0.07 z"
       id="path17"
       inkscape:connector-curvature="0"
       style="opacity:1;fill:#6e6f71"
       sodipodi:nodetypes="ccccccccccccc" />
    <path
       d="m 863.67,563.77 20.32,-0.01 c 4.37,-0.14 8.9,1.12 12.32,3.92 7.62,6.61 6.99,20.53 -1.63,26.02 -3.63553,2.23688 -7.66071,2.8528 -11.79097,2.8528 l -13.47903,0 0.07,22.9172 -5.8,0.01 -0.01,-55.71 m 5.68,5.2396 -0.04,22.2104 12.66,0 c 3.17,0.04 6.64,0.08 9.32,-1.92 4.32,-2.82 5.4,-8.82 3.78,-13.46 -1.32,-4.24 -5.77,-6.8404 -10.07,-6.8304 z"
       id="path19"
       inkscape:connector-curvature="0"
       style="opacity:1;fill:#6e6f71"
       sodipodi:nodetypes="ccccsccccccccccc" />
  </g>
</svg>
