<svg height="119.85424pt" viewBox="0 0 399.69 119.85424" width="399.69pt" xmlns="http://www.w3.org/2000/svg"><g fill="#e3032e" transform="translate(-56.01 -196.12)"><path d="m56.01 196.12 14.74.01.01 35.9c6.73-4.77 14.92-7.65 23.23-7.32 10.15.24 20.07 4.98 26.69 12.67 5.92 6.73 9.15 15.67 9.06 24.62l.01 52.15h-14.74l-.03-52.18c.06-6.51-2.79-13-7.78-17.2-6.55-5.73-16.59-6.92-24.3-2.9-7.45 3.68-12.28 11.81-12.12 20.1l-.03 52.17-14.74.01z"/><path d="m349.18 196.13 14.74-.01.02 29.47 27.29-.01 23.82 67.13 23.69-66.93 16.96.01-34.1 87.77h-13.03l-28.6-73.22-16.04.01c.01 12.2-.05 24.4.02 36.6-.39 11.94 10.17 22.57 22.08 22.46l.01 14.76c-8.78-.08-17.52-3.25-24.12-9.06-7.79-6.7-12.54-16.75-12.7-27.02-.12-12.58 0-25.17-.06-37.75h-7.35v-14.75l7.45-.12z"/><path d="m153.66 231.73c12.23-8.41 28.71-10.4 42.5-4.8 11.32 4.29 20.56 13.35 25.55 24.33-21.23 13.8-42.45 27.59-63.69 41.38 6.14 5.7 14.5 9.08 22.93 8.51 10.69-.38 20.86-6.74 25.96-16.13 2.87-4.93 3.37-10.87 6.49-15.67 5.13-8.62 14.93-14.21 24.98-14.15.04-9.09 3.89-18.17 11.12-23.84 10.05-8.68 26.23-8.89 36.51-.48 7.09 5.42 11.54 14.13 11.51 23.09l.1 60.05-49.63.13c-6-.13-12.18.55-17.99-1.31-6.64-1.93-12.32-6.42-16.2-12.08-7.88 8.65-19.05 14.26-30.75 15.06-14.01 1.19-28.36-4.57-37.7-15.06-9.21-10.07-13.48-24.37-11.34-37.85 1.81-12.53 9.16-24.1 19.65-31.18m-4.22 29.41c-1.87 6.23-1.44 12.96.52 19.12 17.05-11.04 34.07-22.12 51.1-33.18-6.65-6.22-15.95-9.49-25.03-8.36-12.3 1.21-23.21 10.59-26.59 22.42m104.09-9.26c-.54 5.98-.1 12-.25 17.99-5.8.15-11.64-.33-17.41.3-7.3 1.17-12.86 8.52-11.97 15.87.54 7.14 6.96 13.19 14.13 13.29l44.77.05-.04-45.36c-.01-6.06-4.13-11.81-9.86-13.74-8.26-3.2-18.31 2.82-19.37 11.6z"/><path d="m301.24 314.14.01-88.56 14.73.01.01 7.38c6.41-4.63 14.18-7.32 22.11-7.41v14.77c-11.61-.09-22.07 9.99-22.05 21.66l-.07 52.16z"/></g></svg>