<?xml version="1.0" encoding="UTF-8" standalone="no"?>
<svg
   xmlns:dc="http://purl.org/dc/elements/1.1/"
   xmlns:cc="http://creativecommons.org/ns#"
   xmlns:rdf="http://www.w3.org/1999/02/22-rdf-syntax-ns#"
   xmlns:svg="http://www.w3.org/2000/svg"
   xmlns="http://www.w3.org/2000/svg"
   xmlns:sodipodi="http://sodipodi.sourceforge.net/DTD/sodipodi-0.dtd"
   xmlns:inkscape="http://www.inkscape.org/namespaces/inkscape"
   width="1159.7405pt"
   height="579.75031pt"
   viewBox="0 0 1159.7405 579.75031"
   version="1.1"
   id="svg2"
   inkscape:version="0.91 r13725"
   sodipodi:docname="Heart Xmas.svg">
  <metadata
     id="metadata40">
    <rdf:RDF>
      <cc:Work
         rdf:about="">
        <dc:format>image/svg+xml</dc:format>
        <dc:type
           rdf:resource="http://purl.org/dc/dcmitype/StillImage" />
        <dc:title></dc:title>
      </cc:Work>
    </rdf:RDF>
  </metadata>
  <defs
     id="defs38" />
  <sodipodi:namedview
     pagecolor="#ffffff"
     bordercolor="#666666"
     borderopacity="1"
     objecttolerance="10"
     gridtolerance="10"
     guidetolerance="10"
     inkscape:pageopacity="0"
     inkscape:pageshadow="2"
     inkscape:window-width="1920"
     inkscape:window-height="1017"
     id="namedview36"
     showgrid="false"
     fit-margin-top="0"
     fit-margin-left="0"
     fit-margin-right="0"
     fit-margin-bottom="0"
     inkscape:zoom="0.48850795"
     inkscape:cx="479.30689"
     inkscape:cy="588.9219"
     inkscape:window-x="-8"
     inkscape:window-y="-8"
     inkscape:window-maximized="1"
     inkscape:current-layer="svg2" />
  <path
     style="opacity:1;fill:#e3032e"
     inkscape:connector-curvature="0"
     id="path5"
     d="m 155.76701,2.2196282 c 7.05,-3.43 15.82,-2.83999996 22.37,1.46 5.85,3.7 9.84,10.1399998 10.53,17.0299998 0.54,4.22 -0.55,8.39 -1.49,12.47 -3.32,14.03 -7.17,27.94 -11.85,41.58 -0.94,2.92 -2.4,5.8 -2.24,8.95 l 0.02,51.360002 c 19.31,-14.41 43.15,-22.63 67.26,-22.85 30.12,-0.48 60.2,11.61 81.52,32.9 21,20.45 33.57,49.29 34.09,78.61 0.04,55.39 0.2,110.79 -0.08,166.18 l -45.39,-0.02 c -0.56,-17.04 -0.09,-34.12 -0.25,-51.17 l 0,-97.07 c -0.15,-10.33 0.73,-20.83 -1.86,-30.95 -3.97,-16.97 -14.79,-32.14 -29.4,-41.6 -14.73,-9.68 -33.32,-13.26 -50.59,-9.74 -15.69,3.01 -30.13,11.86 -40.1,24.32 -9.59,11.8 -14.92,26.86 -15.2,42.04 -0.04,54.72 0.06,109.44 -0.05,164.15 l -45.48,0 -0.07,-225.91 c -2.71,3.27 -5.04,6.86 -7.9,10 -5.74,6.19 -15.05,8.68 -23.129998,6.27 -7.32,-1.98 -13.4,-7.88 -15.69,-15.1 -2.21,-6.41 -1.14,-13.59 2.18,-19.42 -9.91,-8.95 -19.31,-18.49 -27.9,-28.71 -5.5,-6.55 -10.21,-13.71 -15.65,-20.310002 -1.32,-1.42 -3.09,-3.93 -5.18,-2.19 -3.72,3.61 -3.76,9.300002 -4.42,14.110002 6.16,2.03 11.62,6.36 14.34,12.32 3.71,7.46 2.86,16.84 -2.02,23.57 -5.75,8.3 -17.28,11.97 -26.73,8.35 -9.1900002,-3.12 -15.65000021,-12.54 -15.40000021,-22.22 0.01,-7.88 4.49000001,-15.33 11.07000021,-19.53 C 2.7870118,95.859628 0.17701179,77.479628 4.5870118,60.649628 c 3.88,-15.1 12.8900002,-29.09 26.0100002,-37.74 15.16,-10.15 33.81,-13.3299998 51.75,-13.5499998 20.449998,0.02 40.799998,3.4999998 60.419998,9.1399998 1.67,-7 6.35,-13.3299998 13,-16.2799998 m 5.8,7.72 c -4.46,1.3399998 -8.12,5.0399998 -9.31,9.5599998 -6.52,28.06 -14.61,56.13 -28.52,81.530002 -9.28,16.92 -20.14,32.92 -31.799998,48.28 -2.87,3.72 -3.8,8.9 -2.11,13.33 2.15,6.41 9.46,10.48 16.039998,8.83 4.26,-0.76 7.38,-4.03 9.78,-7.41 15.62,-20.98 30.19,-42.96 41.01,-66.850002 9.61,-21.67 16.3,-44.52 21.78,-67.55 0.73,-3.23 1.61,-6.65 0.6,-9.93 -1.74,-7.36 -10.26,-12.2599998 -17.47,-9.7899998 M 17.757012,118.20963 c -5.2,2.21 -8.8400002,7.78 -8.2700002,13.48 -0.13,8.65 9.6000002,15.49 17.7100002,12.61 6.9,-1.85 11.29,-9.53 9.59,-16.44 -1.68,-8.15 -11.43,-13.22 -19.03,-9.65 z"
     sodipodi:nodetypes="cccccccccccccccccccccccccccccccccccccccccccccccccccccccc" />
  <path
     style="opacity:1;fill:#e3032e"
     inkscape:connector-curvature="0"
     id="path7"
     d="m 1036.167,23.489628 45.76,-0.02 0.04,91.670002 68.62,0.02 -0.02,45.77 -68.6,-0.01 c 0,38.25 -0.01,76.51 0,114.76 0.08,18.37 7.9,36.57 21.28,49.18 12.53,12.21 29.89,18.97 47.33,19.16 l 0.01,45.99 c -9.27,-0.81 -19.26,-1.29 -28.28,-3.82 -32.21,-8.05 -60.19,-31 -74.59,-60.89 -7.84,-15.99 -11.63,-33.82 -11.57,-51.59 0.02,-37.6 0,-75.19 0.01,-112.78 l -22.67,0.03 -0.17,-45.81 22.77,0.03 z"
     sodipodi:nodetypes="cccccccccccccccccc" />
  <path
     style="opacity:1;fill:#e3032e"
     inkscape:connector-curvature="0"
     id="path9"
     d="m 449.69701,122.87963 c 35.55,-16.89 78.17,-17.93 114.56,-2.97 34.03,13.76 62.2,41.21 76.91,74.83 -65.83,42.77 -131.69,85.52 -197.5,128.33 14.07,13.27 32.13,22.27 51.25,25.32 18.27,2.83 37.37,0.63 54.31,-6.87 27.01,-11.65 48.05,-36.25 55.16,-64.83 5.01,-21.02 17.79,-40.09 35.34,-52.7 15.41,-11.3 34.43,-17.25 53.5,-17.45 -0.31,-16.71 3.66,-33.54 12.01,-48.06 9.19,-16.18 23.41,-29.45 40.25,-37.39 19.67,-9.45 42.78,-11.42 63.79,-5.51 17.99,4.95 34.34,15.63 46.13,30.09 11.68,14.13 18.87,31.88 20.46,50.13 0.39,5.63 0.25,11.28 0.28,16.92 l -0.03,177.1 -169.73,0.04 c -12.32,0.08 -24.85,0.12 -36.81,-3.27 -21.62,-5.68 -40.71,-19.76 -53,-38.38 -21.95,24.45 -52.56,41.01 -85.12,45.67 -36.22,5.54 -74.43,-3.58 -104.15,-25.05 -26.91,-19.16 -46.82,-47.9 -55.15,-79.87 -7.27,-27.73 -6.11,-57.67 3.58,-84.67 12.53,-35.53 39.81,-65.51 73.96,-81.41 m 49.5,32.97 c -19.06,2.09 -37.39,10.14 -51.92,22.64 -16.4,13.95 -27.95,33.5 -32.14,54.63 -3.51,17.08 -2.11,35.01 3.46,51.5 52.9,-34.21 105.69,-68.59 158.53,-102.9 -20.53,-19.51 -49.79,-29.32 -77.93,-25.87 m 265.91,6.63 c -15.29,7.15 -25.88,23.31 -26.03,40.23 -0.04,16.57 -0.01,33.13 -0.01,49.7 -15.23,0.01 -30.46,0 -45.69,0 -9.02,0.04 -18.03,2.73 -25.51,7.79 -12.33,8.17 -20.32,22.62 -20.23,37.46 -0.32,12.3 4.85,24.58 13.7,33.11 8.37,8.4 20.17,13.1 32,13.19 l 137.17,-0.01 0,-134.22 c 0.1,-6.73 -0.1,-13.62 -2.31,-20.05 -3.61,-11.31 -11.84,-21.05 -22.4,-26.48 -12.46,-6.61 -28.01,-6.86 -40.69,-0.72 z"
     sodipodi:nodetypes="ccccccccccccccccccccccccccccccccccccccccccc" />
  <path
     style="opacity:1;fill:#e3032e"
     inkscape:connector-curvature="0"
     id="path11"
     d="m 887.57701,115.12963 45.85,0.01 0.1,22.71 c 19.57,-14.7 43.97,-22.86 68.45999,-22.73 l -0.04,45.8 c -16.51999,-0.09 -32.95999,6.14 -45.27999,17.13 -11.87,10.4 -19.99,25.01 -22.4,40.62 -1,5.28 -0.75,10.66 -0.77,16 l -0.47,155.28 -45.39,-0.08 z"
     sodipodi:nodetypes="ccccccccccc" />
  <path
     style="opacity:1;fill:#e3032e"
     inkscape:connector-curvature="0"
     id="path13"
     d="m 562.91701,409.52963 c 7.36,-2.34 15.92,2.24 18.12,9.63 2.85,7.8 -2.52,17.16 -10.61,18.85 -7.48,2.01 -15.83,-3.02 -17.64,-10.52 -2.31,-7.42 2.69,-15.98 10.13,-17.96 z"
     sodipodi:nodetypes="ccccc" />
  <path
     style="opacity:1;fill:#e3032e"
     inkscape:connector-curvature="0"
     id="path15"
     d="m 796.25701,418.69963 c 10.82,-3.4 23.07,-3.23 33.37,1.79 6.59,3.19 12.08,8.34 16.14,14.4 5.89,-7.76 13.87,-14.17 23.46,-16.59 16.9,-4.38 36.63,-1.46 49.58,10.92 10.52,9.72 13.67,24.67 14,38.45 0.09,24.13 0.02,48.27 0.03,72.41 l -28.71,-0.01 c -0.05,-23.11 0.08,-46.21 -0.07,-69.31 -0.26,-8.52 -1.99,-18.14 -8.93,-23.86 -9.96,-7.52 -25.78,-4.51 -32.59,5.88 -5.42,8.2 -4.89,18.51 -4.94,27.91 l 0,59.37 -28.75,0.02 c -0.03,-19.47 -0.01,-38.93 -0.01,-58.39 0.02,-8.33 0.38,-16.97 -2.84,-24.83 -2.42,-6.46 -7.85,-11.96 -14.71,-13.45 -6.43,-1.2 -13.72,-0.99 -19.14,3.08 -4.4,3.24 -6.83,8.45 -8.12,13.63 -2.35,10.02 -1.86,20.39 -1.9,30.61 0,16.45 0.01,32.9 0,49.35 l -28.58,-0.01 -0.03,-119.59 26.34,0 0.05,10.38 c 3.81,-5.84 9.69,-10.13 16.35,-12.16 z"
     sodipodi:nodetypes="cccccccccccccccccccccccccc" />
  <path
     style="opacity:1;fill:#e3032e"
     inkscape:connector-curvature="0"
     id="path17"
     d="m 965.75701,428.12963 c 10.9,-8.41 24.93,-12.42 38.62999,-11.61 14.21,0.95 27.99,8.1 36.82,19.29 l -0.03,-15.32 26.44,-0.01 -0.01,119.59 -26.43,-0.01 0,-14.72 c -13.96,15.27 -36.77,22.26 -56.79999,16.62 -14.32,-3.68 -26.51,-13.81 -33.74,-26.58 -8.22,-14.31 -10.77,-31.5 -8.23,-47.72 2.65,-15.4 10.77,-30.07 23.35,-39.53 m 30.82,15.69 c -6.24,1.63 -11.98,5.08 -16.31,9.85 -13.31,14.29 -13.81,38.92 -0.03,53.08 11.61,12.85 33.28999,14.58 46.67999,3.55 12.37,-10.02 16.19,-27.98 11.66,-42.85 -2.72,-9.07 -9.04,-17.17 -17.64,-21.3 -7.49,-3.72 -16.3,-4.14 -24.35999,-2.33 z"
     sodipodi:nodetypes="ccccccccccccccccccc" />
  <path
     style="opacity:1;fill:#e3032e"
     inkscape:connector-curvature="0"
     id="path19"
     d="m 1087.007,429.27963 c 10.33,-11.02 26.91,-15.46 41.41,-11.39 15.63,4.08 27.66,18.89 28.03,35.11 l -27.99,-0.03 c -0.92,-4.09 -3.26,-8.32 -7.48,-9.67 -3.73,-0.91 -8.1,-0.74 -11.13,1.87 -3.48,2.74 -5,8.02 -2.77,11.99 1.55,2.75 4.64,4.02 7.43,5.18 9.65,3.76 20.02,5.84 29.03,11.14 6.28,3.59 11.71,9.08 14.11,16.01 5.7,16.54 -0.56,36.46 -14.88,46.58 -17.15,12.43 -42.9,9.67 -57.94,-4.88 -7.77,-7.55 -10.93,-18.38 -11.8,-28.9 l 29.37,0.03 c 1.03,4 2.28,8.16 5.24,11.2 5.4,5.66 15.92,5.53 20.88,-0.67 3.86,-4.68 3.38,-12.9 -2.11,-16.14 -7.44,-4.78 -16.22,-6.66 -24.38,-9.79 -8.26,-3.21 -16.07,-8.59 -20.44,-16.48 -7.16,-13.01 -4.91,-30.46 5.42,-41.16 z"
     sodipodi:nodetypes="cccccccccccccccccccc" />
  <path
     style="opacity:1;fill:#e3032e"
     inkscape:connector-curvature="0"
     id="path21"
     d="m 635.97701,420.48963 32.19,0 21.93,35.86 21.76,-35.91 32.1,0.05 -37.09,57.97 42.82,61.61 -34.09,-0.03 -25.38,-40.66 -25.61,40.72 -34.01,-0.04 42.44,-61.57 z"
     sodipodi:nodetypes="ccccccccccccc" />
  <path
     style="opacity:1;fill:#e3032e"
     inkscape:connector-curvature="0"
     id="path23"
     d="m 524.87701,433.43963 c 7.85,-3.08 17.43,2.21 19.17,10.41 2.36,8.23 -4.12,17.47 -12.66,18.1 -7.92,1.14 -15.72,-5.32 -16.32,-13.23 -0.74,-6.55 3.55,-13.23 9.81,-15.28 z"
     sodipodi:nodetypes="ccccc" />
  <path
     style="opacity:1;fill:#e3032e"
     inkscape:connector-curvature="0"
     id="path25"
     d="m 561.67701,453.19963 c 7.69,-3.25 17.3,1.63 19.43,9.64 2.99,8.77 -4.49,19 -13.76,18.73 -6.72,0.58 -13.04,-4.56 -14.64,-10.95 -2.13,-6.95 2.2,-14.98 8.97,-17.42 z"
     sodipodi:nodetypes="ccccc" />
  <path
     style="opacity:1;fill:#e3032e"
     inkscape:connector-curvature="0"
     id="path27"
     d="m 474.02701,458.81963 c 0.4,-3.28 4.17,-5.48 7.22,-4.15 8.12,2.51 16.51,4.06 24.97,4.8 2.54,4.71 6.39,8.59 11.03,11.27 -12.13,14.19 -24.43,28.23 -36.02,42.88 -1.29,1.85 -3.43,3.45 -3.44,5.91 19.27,-13.63 36.99,-29.3 55.59,-43.81 1.73,-1.61 3.64,-3.03 5.85,-3.92 -3.06,14.13 -1.96,28.93 1.78,42.83 0.5,2.14 1.42,4.72 -0.13,6.66 -2.09,3.12 -6.33,2.43 -9.5,3.34 -6.36,1.46 -13.25,3.28 -17.81,8.26 -4.88,6.15 -6.36,14.15 -7.77,21.67 -0.58,2.78 -3.76,4.65 -6.48,3.79 -14.15,-4.01 -29.28,-6.95 -43.87,-3.61 -5.91,1.26 -11.31,4.21 -15.77,8.24 -2.95,2.74 -8.08,0.54 -8.69,-3.26 -0.66,-2.66 1.39,-4.68 2.97,-6.48 5.72,-6.37 7.89,-15.1 8.48,-23.45 0.75,-11.5 -1.11,-23.01 -4.12,-34.08 -0.91,-3.12 1.89,-6.56 5.11,-6.51 8.24,-1.07 17.61,-2.69 23.13,-9.55 4.42,-6.06 6.12,-13.58 7.47,-20.83 z"
     sodipodi:nodetypes="ccccccccccccccccccccccc" />
  <path
     style="opacity:1;fill:#e3032e"
     inkscape:connector-curvature="0"
     id="path29"
     d="m 548.05701,490.26963 c 0.83,-0.85 1.69,-1.68 2.56,-2.49 8.92,7.28 22.28,7.36 31.68,0.91 4.63,3.54 9.58,6.66 14.8,9.29 2.07,0.8 3.4,3.51 2.03,5.49 -3.24,5.56 -7.39,11.48 -6.46,18.27 1,5.33 4.51,9.7 7.67,13.95 1.55,1.72 1.02,4.78 -1.07,5.83 -9.37,5.94 -18.58,13.16 -23.71,23.24 -1.96,3.64 -2.43,7.78 -2.69,11.84 -0.15,3.64 -6.12,4.31 -7.34,1.04 -0.89,-3.25 -0.9,-6.76 -2.56,-9.78 -4.47,-9.1 -12.9,-15.43 -21.4,-20.53 -2.46,-1.61 -5.59,-2.36 -7.48,-4.71 -1.41,-3.11 1.45,-5.61 3.01,-7.97 9.73,-0.39 17.71,-10.47 15.05,-20.01 -2.32,-7.94 -3.45,-16.14 -4.09,-24.37 z"
     sodipodi:nodetypes="ccccccccccccccccc" />
  <g
     id="#ffffffff"
     transform="translate(-86.632988,-43.300372)">
    <path
       d="m 248.2,53.24 c 7.21,-2.47 15.73,2.43 17.47,9.79 1.01,3.28 0.13,6.7 -0.6,9.93 -5.48,23.03 -12.17,45.88 -21.78,67.55 -10.82,23.89 -25.39,45.87 -41.01,66.85 -2.4,3.38 -5.52,6.65 -9.78,7.41 -6.58,1.65 -13.89,-2.42 -16.04,-8.83 -1.69,-4.43 -0.76,-9.61 2.11,-13.33 11.66,-15.36 22.52,-31.36 31.8,-48.28 13.91,-25.4 22,-53.47 28.52,-81.53 1.19,-4.52 4.85,-8.22 9.31,-9.56 z"
       id="path32"
       inkscape:connector-curvature="0"
       style="opacity:1;fill:#ffffff" />
    <path
       d="m 104.39,161.51 c 7.6,-3.57 17.35,1.5 19.03,9.65 1.7,6.91 -2.69,14.59 -9.59,16.44 -8.11,2.88 -17.84,-3.96 -17.71,-12.61 -0.57,-5.7 3.07,-11.27 8.27,-13.48 z"
       id="path34"
       inkscape:connector-curvature="0"
       style="opacity:1;fill:#ffffff" />
  </g>
</svg>
