<?xml version="1.0" encoding="UTF-8" standalone="no"?>
<svg
   xmlns:dc="http://purl.org/dc/elements/1.1/"
   xmlns:cc="http://creativecommons.org/ns#"
   xmlns:rdf="http://www.w3.org/1999/02/22-rdf-syntax-ns#"
   xmlns:svg="http://www.w3.org/2000/svg"
   xmlns="http://www.w3.org/2000/svg"
   xmlns:sodipodi="http://sodipodi.sourceforge.net/DTD/sodipodi-0.dtd"
   xmlns:inkscape="http://www.inkscape.org/namespaces/inkscape"
   width="479.89001pt"
   height="233.82797pt"
   viewBox="0 0 479.89001 233.82797"
   version="1.1"
   id="svg2"
   inkscape:version="0.91 r13725"
   sodipodi:docname="High Street TV - Dark.svg">
  <metadata
     id="metadata41">
    <rdf:RDF>
      <cc:Work
         rdf:about="">
        <dc:format>image/svg+xml</dc:format>
        <dc:type
           rdf:resource="http://purl.org/dc/dcmitype/StillImage" />
        <dc:title></dc:title>
      </cc:Work>
    </rdf:RDF>
  </metadata>
  <defs
     id="defs39" />
  <sodipodi:namedview
     pagecolor="#ffffff"
     bordercolor="#666666"
     borderopacity="1"
     objecttolerance="10"
     gridtolerance="10"
     guidetolerance="10"
     inkscape:pageopacity="0"
     inkscape:pageshadow="2"
     inkscape:window-width="1920"
     inkscape:window-height="1017"
     id="namedview37"
     showgrid="false"
     fit-margin-top="0"
     fit-margin-left="0"
     fit-margin-right="0"
     fit-margin-bottom="0"
     inkscape:zoom="1.475"
     inkscape:cx="212.44607"
     inkscape:cy="148.27666"
     inkscape:window-x="-8"
     inkscape:window-y="-8"
     inkscape:window-maximized="1"
     inkscape:current-layer="svg2" />
  <path
     style="opacity:1;fill:#a2b536"
     inkscape:connector-curvature="0"
     id="path8"
     d="m 389.83,2.5579718 c 11.83,-5.34 26.82,-2.12000001 35.25,7.8000002 3.89,4.38 6.03,9.97 7.16,15.65 l 47.44,-0.02 0.21,169.549998 -0.3,38 -157.61,0.29 0.02,-207.819998 50.21,-0.05 c 1.27,-10.19 8.22,-19.3200002 17.62,-23.4000002 m -10.05,23.3900002 44.66,0.01 c -1.49,-10.64 -11.93,-19.0600002 -22.64,-18.4300002 -10.56,-0.37 -20.39,8.0600002 -22.02,18.4200002"
     sodipodi:nodetypes="cccccccccccccc" />
  <path
     style="opacity:1;fill:#4f4e4a"
     inkscape:connector-curvature="0"
     id="path5"
     d="m 329.56,33.617972 142.55,0.11 0.02,192.579998 -142.55,0.14 -0.02,-192.829998"
     sodipodi:nodetypes="ccccc" />
  <path
     style="opacity:1;fill:#a2b536"
     inkscape:connector-curvature="0"
     id="path10"
     d="m 61.57,117.70797 c 2.99,-0.03 5.97,-0.03 8.96,-0.02 -0.04,6.08 0.06,12.17 -0.08,18.26 6.48,0.51 12.99,0.09 19.49,0.26 0,2.61 -0.05,5.22 -0.18,7.84 -6.43,-0.04 -12.86,-0.11 -19.29,-0.01 0.15,11.84 -0.02,23.69 0.06,35.53 -0.09,3.61 1.52,7.73 5.23,8.93 4.55,2.2 9.59,0.65 14.01,-1.05 -0.02,2.62 -0.04,5.25 -0.06,7.89 -6.79,2.76 -14.97,3.5 -21.51,-0.32 -4.69,-2.67 -6.71,-8.34 -6.63,-13.51 -0.11,-12.49 0.09,-24.98 -0.08,-37.47 -2.86,0 -5.72,0.01 -8.57,0.02 0,-2.63 0.01,-5.25 0.04,-7.87 2.86,-0.02 5.72,-0.03 8.58,-0.03 0.04,-6.16 -0.03,-12.3 0.03,-18.45 z" />
  <path
     style="opacity:1;fill:#a2b536"
     inkscape:connector-curvature="0"
     id="path12"
     d="m 276.48,117.71797 c 3.02,-0.02 6.04,-0.02 9.07,-0.01 0.01,6.15 -0.07,12.3 0.03,18.45 6.49,0.05 12.98,-0.03 19.46,0.06 0.02,2.6 -0.1,5.19 -0.33,7.78 -6.39,-0.03 -12.78,-0.03 -19.17,0.08 -0.01,11.81 -0.01,23.63 0,35.45 -0.15,3.62 1.49,7.89 5.22,9.09 4.62,1.91 9.61,0.46 14.11,-1.03 0.07,2.56 0.03,5.13 -0.14,7.7 -6.78,2.75 -14.85,3.41 -21.46,-0.16 -4.73,-2.75 -6.86,-8.41 -6.79,-13.68 -0.11,-12.47 0.05,-24.94 -0.05,-37.42 -2.82,0.01 -5.64,0.01 -8.46,0.02 -0.16,-2.63 -0.19,-5.25 -0.09,-7.87 2.85,0 5.7,-0.03 8.55,-0.09 0.05,-6.12 -0.01,-12.25 0.05,-18.37 z" />
  <path
     style="opacity:1;fill:#a2b536"
     inkscape:connector-curvature="0"
     id="path16"
     d="m 213.19,143.01797 c 9.48,-9.74 26.27,-11.15 37.06,-2.77 8.93,6.81 12.43,18.86 11.43,29.71 -16.25,0.08 -32.5,0 -48.74,0.05 1.1,7.98 5.78,15.96 13.74,18.65 9.58,3.79 20.48,0.11 27.53,-6.93 1.81,1.57 3.61,3.16 5.41,4.76 -11.03,14.25 -34.79,15.36 -47.21,2.37 -11.74,-12.32 -11.34,-33.9 0.78,-45.84 m 7.9,3.82 c -4.74,3.94 -7.35,9.93 -8.01,15.97 13.2,-0.2 26.41,0.01 39.62,-0.1 -0.85,-5.32 -2.18,-11 -6.23,-14.85 -6.45,-6.89 -18.4,-7.38 -25.38,-1.02 z" />
  <path
     style="opacity:1;fill:#a2b536"
     inkscape:connector-curvature="0"
     id="path18"
     d="m 11.4,138.00797 c 10.97,-5.66 24.38,-2.46 34.48,3.63 -1.32,2.27 -2.69,4.51 -4.11,6.73 -5.52,-3.04 -11.5,-5.84 -17.94,-5.69 -4.13,-0.13 -8.79,1.13 -11.12,4.8 -2.17,3.18 -0.95,7.91 2.39,9.77 8.58,5.04 19.49,5.18 27.33,11.65 8.16,6.97 5.12,21.51 -4.36,25.83 -12.32,6.12 -27.4,1.99 -38.07,-5.76 1.49,-2.08 2.55,-4.69 4.65,-6.21 6.88,4.27 14.69,8.08 23.03,7.27 4.41,-0.28 9.18,-2.63 10.53,-7.12 1.51,-3.72 -1.09,-7.7 -4.37,-9.39 -8.57,-4.58 -19.36,-4.47 -26.84,-11.15 -7.31,-6.85 -4.19,-20.04 4.4,-24.36 z" />
  <path
     style="opacity:1;fill:#a2b536"
     inkscape:connector-curvature="0"
     id="path20"
     d="m 123.77,137.50797 c 3.57,-2 7.72,-2.24 11.68,-2.7 0.16,3.24 0.2,6.5 0.14,9.75 -5.79,0.22 -11.8,1.66 -16.23,5.61 -6.12,5.25 -8.78,13.54 -8.84,21.42 -0.02,8.3 0.02,16.61 -0.02,24.92 -2.99,0.14 -5.98,0.18 -8.96,0.18 -0.15,-20.17 -0.04,-40.34 -0.08,-60.5 2.97,-0.02 5.94,-0.04 8.91,-0.07 0.26,5 0.07,10.01 0.24,15.01 3.11,-5.58 7.31,-10.78 13.16,-13.62 z" />
  <path
     style="opacity:1;fill:#4f4e4a;fill-opacity:1"
     inkscape:connector-curvature="0"
     id="path23"
     d="m 4.46,1.8379718 c 7.11,-0.13 14.21,-0.03 21.31,-0.05 -0.01,12.4600002 -0.01,24.9200002 0,37.3800002 3.13,-3.48 6.35,-7.08 10.63,-9.17 7.59,-3.71 16.89,-3.37 24.41,0.36 5.02,2.56 8.77,7.25 10.57,12.55 1.84,5 2.05,10.4 2.01,15.68 -0.03,14.78 -0.01,29.57 -0.01,44.359998 -7.19,0 -14.38,-0.03 -21.57,0.02 0,-14.489998 -0.01,-28.979998 0.01,-43.459998 0.07,-5.07 -2.73,-10.46 -7.68,-12.24 -5.11,-1.65 -11.64,-0.95 -15.16,3.49 -2.54,2.95 -3.32,6.95 -3.21,10.74 -0.01,13.81 -0.02,27.62 0.01,41.429998 -7.1,0.05 -14.19,-0.03 -21.28,0.04 C 4.5,69.257972 4.56,35.547972 4.46,1.8379718 Z" />
  <path
     style="opacity:1;fill:#4f4e4a;fill-opacity:1"
     inkscape:connector-curvature="0"
     id="path25"
     d="m 88.06,1.7479718 c 7.48,0.05 14.96,0.03 22.44,0.02 0.06,6.24 0.08,12.4800002 0.04,18.7200002 -7.51,0.08 -15.02,0.14 -22.52,-0.04 -0.02,-6.23 -0.04,-12.4700002 0.04,-18.7000002 z" />
  <path
     style="opacity:1;fill:#4f4e4a;fill-opacity:1"
     inkscape:connector-curvature="0"
     id="path27"
     d="m 216.69,1.8179718 c 7.04,-0.09 14.07,-0.01 21.11,-0.05 0.04,12.4900002 0.04,24.9800002 -0.02,37.4700002 5.06,-6.47 12.46,-11.89 21.01,-11.76 8.6,-0.7 17.85,3.1 22.4,10.66 3.6,5.74 4.4,12.71 4.29,19.36 -0.04,15.15 0,30.31 -0.02,45.459998 -7.19,-0.03 -14.38,-0.04 -21.57,0 -0.08,-14.469998 -0.03,-28.949998 -0.02,-43.419998 0.16,-5.18 -2.76,-10.82 -7.96,-12.37 -4.65,-1.34 -10.3,-0.94 -13.91,2.59 -3.22,2.98 -4.29,7.57 -4.2,11.81 0.03,13.8 0.02,27.6 0.02,41.399998 -7.03,-0.05 -14.07,-0.03 -21.1,-0.02 -0.05,-33.709998 0.01,-67.419998 -0.03,-101.1299982 z" />
  <path
     style="opacity:1;fill:#4f4e4a;fill-opacity:1"
     inkscape:connector-curvature="0"
     id="path29"
     d="m 130.31,38.977972 c 9.47,-11.33 26.96,-14.92 40.13,-8.26 3.82,1.92 7.01,4.81 9.97,7.85 -0.18,-3.27 -0.16,-6.54 -0.14,-9.82 7.12,0.01 14.25,0.01 21.38,0 -0.09,19.26 0.02,38.51 -0.05,57.76 -0.22,8.96 -1.44,18.449998 -6.96,25.829998 -4.86,6.85 -13.03,10.4 -21.06,11.87 -15.89,2.83 -32.78,0.79 -47.22,-6.55 2.34,-5.21 4.77,-10.38 7.1,-15.59 10.05,5.19 21.63,8.08 32.91,5.91 4.72,-1.03 9.52,-3.6 11.69,-8.119998 2.44,-4.57 2.7,-9.85 2.55,-14.92 -5.35,6.12 -12.54,11.27 -20.91,11.68 -7.86,0.79 -16.08,-0.82 -22.66,-5.32 -9.54,-6.06 -14.81,-17.63 -14.37,-28.78 -0.37,-8.41 2.2,-17.05 7.64,-23.54 m 28.86,6 c -3.69,0.73 -7.51,1.89 -10.15,4.72 -7.1,6.39 -6.98,18.91 0.23,25.17 8.14,7.28 22.56,5.94 28.63,-3.32 5.07,-7.61 2.88,-19.3 -5.24,-23.89 -4.02,-2.21 -8.89,-3.63 -13.47,-2.68 z" />
  <path
     style="opacity:1;fill:#4f4e4a;fill-opacity:1"
     inkscape:connector-curvature="0"
     id="path31"
     d="m 88.78,28.767972 c 7.04,-0.02 14.08,-0.02 21.12,0 0.03,24.73 -0.01,49.46 0.02,74.189998 -7.03,-0.03 -14.07,-0.02 -21.11,-0.01 -0.03,-24.729998 0.04,-49.459998 -0.03,-74.179998 z" />
  <path
     style="opacity:1;fill:#fffffd"
     inkscape:connector-curvature="0"
     id="path33"
     d="m 356.43,117.65797 c 3.02,0.02 6.05,0.02 9.08,0 0,6.17 0.02,12.35 -0.01,18.53 6.47,0.13 12.94,0.02 19.42,0.04 -0.01,2.58 -0.02,5.15 -0.02,7.73 -6.46,0 -12.92,-0.05 -19.38,0.02 0.03,12.19 -0.11,24.39 0.07,36.58 -0.1,3.65 2.24,7.37 5.88,8.3 4.4,1.68 9.16,0.24 13.3,-1.51 0,2.62 -0.01,5.24 -0.02,7.86 -6.36,2.7 -13.85,3.48 -20.28,0.55 -4.99,-2.37 -7.91,-7.86 -7.95,-13.28 -0.26,-12.84 0,-25.69 -0.12,-38.54 -2.88,-0.01 -5.75,0 -8.61,0.05 0.01,-2.61 0.04,-5.21 0.1,-7.8 2.84,0.07 5.68,0.08 8.52,0.06 0.02,-6.2 -0.02,-12.39 0.02,-18.59 z" />
  <path
     style="opacity:1;fill:#fffffd"
     inkscape:connector-curvature="0"
     id="path35"
     d="m 390.44,136.27797 c 3.34,-0.05 6.68,-0.05 10.03,-0.07 6.87,16.7 13.63,33.46 20.69,50.1 6.73,-16.75 13.76,-33.38 20.66,-50.06 3.25,0.02 6.5,0 9.75,-0.08 -8.81,20.32 -17.68,40.6 -26.68,60.83 -2.64,-0.06 -5.29,-0.07 -7.93,-0.04 -8.92,-20.19 -17.69,-40.45 -26.52,-60.68 z" />
  <path
     style="opacity:1;fill:#a2b536"
     inkscape:connector-curvature="0"
     id="path16-6"
     d="m 147.67377,143.01792 c 9.48,-9.74 26.27,-11.15 37.06,-2.77 8.93,6.81 12.43,18.86 11.43,29.71 -16.25,0.08 -32.5,0 -48.74,0.05 1.1,7.98 5.78,15.96 13.74,18.65 9.58,3.79 20.48,0.11 27.53,-6.93 1.81,1.57 3.61,3.16 5.41,4.76 -11.03,14.25 -34.79,15.36 -47.21,2.37 -11.74,-12.32 -11.34,-33.9 0.78,-45.84 m 7.9,3.82 c -4.74,3.94 -7.35,9.93 -8.01,15.97 13.2,-0.2 26.41,0.01 39.62,-0.1 -0.85,-5.32 -2.18,-11 -6.23,-14.85 -6.45,-6.89 -18.4,-7.38 -25.38,-1.02 z" />
</svg>
