<svg height="629pt" viewBox="0 0 2147 629" width="2147pt" xmlns="http://www.w3.org/2000/svg" xmlns:xlink="http://www.w3.org/1999/xlink"><linearGradient id="a"><stop offset="0" stop-color="#e95823"/><stop offset="1" stop-color="#f48923"/></linearGradient><linearGradient id="b"><stop offset="0" stop-color="#33a6df"/><stop offset="1" stop-color="#0d517e"/></linearGradient><linearGradient id="c" gradientUnits="userSpaceOnUse" x1="745.48608" x2="741.62805" xlink:href="#b" y1="630.04974" y2="385.90305"/><linearGradient id="d" gradientUnits="userSpaceOnUse" x1="526.66711" x2="529.01575" xlink:href="#b" y1="349.19174" y2="170.27509"/><linearGradient id="e" gradientUnits="userSpaceOnUse" x1="403.33429" x2="733.72882" xlink:href="#a" y1="48.540859" y2="205.09294"/><linearGradient id="f" gradientUnits="userSpaceOnUse" x1="1658.21" x2="2128.3" xlink:href="#a" y1="505.97" y2="505.97"/><linearGradient id="g" gradientUnits="userSpaceOnUse" x1="778.49124" x2="2147" y1="170.26968" y2="170.26968"><stop offset="0" stop-color="#ec6524"/><stop offset="1" stop-color="#f79223"/></linearGradient><path d="m634.06 173.17c16.67-3.33 34.6-1.15 49.54 7.16 16.14 8.7 28.07 24.24 33.35 41.69 8.95 28.75 2.47 60.93-14.32 85.55-11.84076 17.22369-38.61627 31.6823-55.67 37.58-20.16 6.87-42.15 8.24-62.99 3.82-23.9-4.99-45.86-16.91-64.92-31.92-10-7.61-18.71-16.72-28.48-24.6-16.07-13.07-33.83-24.53-53.57-31.16-15.34-5.18-32.04-6.99-47.98-3.73-14.86 3.04-28.86 10.29-39.83 20.78-4.98-11.37-8.92-23.18-11.69-35.28 13.65-12.41 31.03-20.73 49.39-22.92 26.47-3.42 52.99 3.38 77.72 12.35 19.56 7.14 38.37 16.1 57.5 24.28 17.43 7.37 35.78 13.63 54.88 14.22 14.07.29 28.94-3.74 39.11-13.91 8.43-8.27 11.37-21.19 8.2-32.45-3.66-14.29-15.4-25.48-29.17-30.15-.02-.28-.06-.85-.08-1.14 10.89-10.03 24.49-17.18 39.01-20.17z" fill="url(#d)"/><path d="m524.37 0h19.29c30.02 1.62 59.76 9.65 86.16 24.1 33.66 18.17 62 46.13 80.25 79.78 17.59 32.02 25.74 68.94 23.86 105.4-12.36-32.21-44.24-56.17-78.88-57.75-18.41-.53-37.02 3.71-53.3 12.36-16.8 9.05-30.89 23.45-38.67 40.96 6.23.99 12.41 2.37 18.35 4.51 7.72 2.85 15.6 6.75 20.48 13.64 3.97 5.75 5.02 14.48 0 19.94-4.63 4.58-11.12 6.88-17.49 7.62-15.86 1.49-31.43-3.23-46.09-8.78-21.05-8.42-41.38-18.57-62.63-26.52-24.49-9.26-50.33-16.47-76.72-16.03-22.88.15-45.78 7.17-64.4 20.56-4.23-39.06 3.42-79.35 22-114 17.79-33.35 45.18-61.54 78.18-80.02 27.31-15.47 58.3-24.11 89.61-25.77z" fill="url(#e)"/><path d="m9.03 13.23c29.51.1 59.01-.09 88.52.09-.11 39.4-.02 78.79-.05 118.18h113c-.03-39.39.07-78.78-.05-118.17 29.5-.21 59.01.01 88.51-.11.09 105.43.02 210.85.04 316.28-29.5 0-59 0-88.5 0 0-40 0-80 0-120-37.67 0-75.33 0-113 0v120c-29.5 0-59 0-88.5 0 .02-105.43-.04-210.85.03-316.27z" fill="#e95225"/><g fill="url(#g)"><path d="m1643.36 11.13c28.49-.28 56.98-.08 85.47-.1 45.23 106.17 90.49 212.32 135.73 318.48-31.65 0-63.31-.07-94.96.04-7.82-18.72-15.5-37.51-23.17-56.29-40.95 0-81.9-.06-122.84.03-7.46 18.77-15.08 37.48-22.64 56.21-31.06-.02-62.12.03-93.17-.03 45.16-106.12 90.54-212.16 135.58-318.34m6.42 193.62c23.65-.01 47.3.03 70.96-.02-11.72-29.7-23.47-59.38-35.2-89.08-12.17 29.59-23.85 59.4-35.76 89.1z"/><path d="m778.56 13.21c29.55.08 59.1.04 88.65.02.09 79.76-.01 159.52.05 239.28 51.41-.01 102.82-.01 154.24-.01v77c-81 0-162 0-243 0 .03-105.43-.07-210.86.06-316.29z"/><path d="m1060.82 13.21c29.64.09 59.29.01 88.93.04-.06 105.44.11 210.87-.09 316.31-29.63-.14-59.27-.02-88.91-.06.05-105.43-.09-210.86.07-316.29z"/><path d="m1207.83 13.21c29.06.1 58.13.01 87.19.04 25.38.19 50.92-1.01 76.08 3.01 34.19 5.12 67.98 18.36 93.63 42.03 23.85 21.61 39.1 51.88 43.94 83.58 4.06 26.99 2.56 55.05-5.95 81.07-9.6 29.51-29.07 55.63-54.57 73.3-33.12 23.23-74.14 32.78-114.15 33.27-42.09-.03-84.17 0-126.25-.01.05-105.43-.1-210.86.08-316.29m88.74 77.99c-.15 53.52-.06 107.05-.04 160.57 15.47-.26 30.98.49 46.44-.5 14.09-1.12 28.18-4.61 40.54-11.62 12.55-7.01 22.92-17.94 28.92-31.03 7.56-16.35 8.97-35.03 6.4-52.7-2.56-17.81-11.52-34.88-25.78-46.07-16.02-12.83-36.85-18.01-57.04-18.59-13.15-.07-26.29.07-39.44-.06z"/><path d="m1815.79 13.34c33.65-.21 67.3-.02 100.95-.09 21.82 38.3 43.65 76.61 65.44 114.94 22.11-38.26 43.95-76.67 66-114.95 32.94.03 65.88.01 98.82 0v .49c-40.11 65.27-80.5 130.39-120.55 195.69-1.08 10.4-.14 21.07-.45 31.58v88.5c-29.67 0-59.33 0-89 0 .01-38.49-.03-76.98.02-115.47.06-1.68-.24-3.34-1.2-4.73-40.04-65.3-79.99-130.66-120.03-195.96z"/></g><g fill="url(#f)"><path d="m1658.21 450.44c.17-20.58-.14-41.17.16-61.76 71.46.18 142.93-.01 214.4.1-.01 20.55-.07 41.1.03 61.65-22.9.11-45.81.11-68.7 0-.23 57.61-.03 115.21-.1 172.82-25.67 0-51.33 0-77 0-.04-57.6.07-115.19-.05-172.79-22.92.05-45.83.09-68.74-.02z" fill="url(#f)"/><path d="m1889.71 388.75c25.86-.01 51.72.03 77.59-.02 13.77 51.73 27.06 103.6 40.99 155.29 13.94-51.81 28.22-103.53 42.36-155.29 25.88.05 51.77.01 77.65.03-27.16 78.15-54.28 156.31-81.36 234.49-25.73 0-51.47-.02-77.2.01-26.65-78.18-53.4-156.32-80.03-234.51z" fill="url(#f)"/></g><g fill="url(#c)"><path d="m93.09 389.41c17.62-1.86 36.25.57 51.64 9.8 12.73 7.54 22.48 20.15 25.87 34.63 3.35 14.38 1.91 30.21-5.46 43.16-8.29 14.62-22.62 24.68-37.59 31.62 8.25 8.4 16.8 16.5 25.25 24.71 7.96-11.64 15.02-23.87 21.52-36.37 14.17 6.96 28.24 14.13 42.4 21.13-9.14 16.81-18.96 33.31-30.25 48.79 10.56 9.93 20.46 20.55 31.01 30.5-13.39 9.62-26.77 19.25-40.19 28.83-1.04.73-1.8 1.76-2.54 2.79h-.48c-7.72-8.36-15.83-16.39-23.88-24.44-16.78 13-37.29 21.26-58.51 22.82-18.53 1.37-37.69-.85-54.66-8.73-11.96-5.53-22.63-14.32-29.25-25.81-4.66-7.96-7.17-17.04-7.97-26.19v-12.18c.98-9.92 3.81-19.77 9.19-28.23 8.59-13.9 22.55-23.44 37.14-30.21-8.74-12.58-14.96-27.43-14.86-42.95-.63-16.04 5.68-32.18 17.05-43.51 11.74-11.91 28.1-18.47 44.57-20.16m-2.03 48.63c-4.98 5.2-6.33 12.97-5.19 19.89 1.25 8.35 6.35 15.38 11.38 21.89 8.85-3.88 18.05-9.3 22.2-18.47 3.39-7.79 2.86-18.11-3.62-24.17-6.79-6.13-18.45-5.82-24.77.86m-24.98 109.13c-3.54 7.72-3.05 17.6 2.55 24.24 5.38 6.55 14.17 9.17 22.39 9.11 9.67-.21 18.65-4.52 26.61-9.71-12.38-12.9-25.06-25.5-37.51-38.33-5.8 3.61-11.17 8.38-14.04 14.69z"/><path d="m396.22 399.17c22.79-10.01 48.47-12.37 72.97-8.76 15.17 2.22 30 7.26 43.04 15.37 12.91 8.02 23.96 18.87 32.72 31.25-16.05 12.41-32.1 24.83-48.12 37.28-8.7-10.7-19.47-20.44-32.94-24.49-14.58-4.49-31.16-3.19-44.29 4.83-13.11 7.86-22.16 21.5-25.75 36.22-4.3 17.73-2.14 37.31 7.27 53.09 7.17 12.06 19.09 21.39 32.85 24.55 15.1 3.48 31.75.89 44.69-7.78 7.6-5.06 13.95-11.73 19.66-18.8 16.12 11.49 32.33 22.84 48.31 34.53-10.17 13.74-22.16 26.45-36.9 35.32-16.97 10.53-36.92 15.52-56.74 16.43-21.99 1.37-44.47-2.81-64.09-12.99-28.63-14.42-50.41-41.46-58.69-72.4-6.91-25.76-5.88-53.77 3.7-78.72 10.93-28.86 33.94-52.79 62.31-64.93z"/><path d="m1182.89 410.82c16.51-14.38 38.71-20.4 60.23-21.22 21.76-.66 43.86 2 64.3 9.74 13.11 4.9 25.32 12.08 36.25 20.8-10.6 15.14-21.39 30.15-31.97 45.3-16.84-11.62-36.14-20.37-56.67-22.37-8.63-.7-18.27-.97-25.62 4.36-6.83 4.81-6.92 16.3.05 21.04 7.54 5.3 16.82 7.22 25.57 9.61 20.88 4.9 42.29 9.28 61.34 19.55 11.17 5.98 21.41 14.53 27.21 25.99 6.24 11.99 7.07 26.01 5.63 39.23-1.84 16.92-10.25 33.11-23.5 43.89-16.11 13.41-37.19 19.2-57.77 20.64-42.46 2.74-87.09-9.08-119.23-37.81 11.81-14.26 23.81-28.37 35.58-42.67 22.61 18.03 51.38 29.52 80.61 27.42 5.78-.61 11.97-1.93 16.3-6.09 5.39-4.84 5.44-14.46-.14-19.17-5.15-4.24-11.65-6.34-17.9-8.32-17.66-5.15-35.94-8.1-53.22-14.53-15.24-5.5-30.62-13.36-40.19-26.91-7.41-10.47-10.38-23.55-10.02-36.25-.37-19.67 8.09-39.46 23.16-52.23z"/><path d="m573.5 393.5h86.51c18.66.15 37.59-1.04 55.91 3.32 17.07 3.61 33.54 11.89 44.98 25.3 12.13 13.46 17.12 32.01 16.87 49.84.45 18.6-5.42 37.76-18.21 51.56-7.91 8.91-18.19 15.22-28.92 20.17 18.36 26.61 36.58 53.32 54.78 80.04-24.66.01-49.32.06-73.97-.02-15.37-23.11-30.75-46.22-46.06-69.37-9.3-.2-18.6-.06-27.9-.08.05 23.14-.06 46.28.05 69.42-21.36.1-42.73.14-64.1-.02.14-76.72.02-153.44.06-230.16m63.95 55.57c.08 18.29.07 36.58.01 54.87 11.15.14 22.31.02 33.47.06 10.57.1 21.98.2 31.22-5.72 14.89-8.97 15.37-33.89.83-43.4-6.75-4.46-15.07-5.87-23.03-5.89-14.17.08-28.33-.1-42.5.08z"/><path d="m806.75 393.51c21.67 0 43.35-.04 65.02.02-.05 38.47-.01 76.93-.02 115.4-.08 13.2-.63 27.02 5.05 39.3 4.12 9.43 12.39 16.99 22.3 19.93 9.72 2.9 20.33 2.87 30.07.02 9.35-2.7 17.42-9.47 21.64-18.25 3.98-8 5.41-17.04 5.45-25.91-.04-43.49.04-86.98-.04-130.47 21.67-.11 43.35-.02 65.03-.05v103.51c-.21 13.71.57 27.45-.78 41.12-1.87 19.69-7.76 39.57-20.17 55.27-10.01 12.87-24.14 22.17-39.47 27.46-11.82 4.19-24.31 6.19-36.78 6.95-17.14.76-34.54-.08-51.11-4.83-16.51-4.63-32.16-13.46-43.32-26.65-10.43-12.1-16.81-27.25-19.94-42.81-2.37-11.68-3.05-23.65-2.93-35.55 0-41.49 0-82.97 0-124.46z"/><path d="m1060 393.5h64.5c.03 76.73-.07 153.45.05 230.18-21.51.17-43.02 0-64.53.09-.05-76.76-.01-153.51-.02-230.27z"/><path d="m1380.5 393.5c61.76.03 123.53-.07 185.29.06-.08 18.14-.04 36.28-.03 54.42-40.67.04-81.34 0-122.01.02-.02 11.49.03 22.97-.02 34.45 36.83.12 73.68.01 110.52.06v50.49c-36.84.01-73.67-.01-110.5 0 0 12.08-.01 24.17 0 36.25 41.16-.01 82.31.02 123.47-.02.05 18.18.04 36.36 0 54.53-62.23-.01-124.45-.04-186.68.02-.09-76.76-.02-153.52-.04-230.28z"/></g></svg>