<?xml version="1.0" encoding="UTF-8"?>
<svg id="svg2" width="1182.5" height="835.94" version="1.1" viewBox="0 0 1182.5 835.94" xmlns="http://www.w3.org/2000/svg" xmlns:cc="http://creativecommons.org/ns#" xmlns:dc="http://purl.org/dc/elements/1.1/" xmlns:rdf="http://www.w3.org/1999/02/22-rdf-syntax-ns#" xmlns:xlink="http://www.w3.org/1999/xlink">
 <metadata id="metadata34">
  <rdf:RDF>
   <cc:Work rdf:about="">
    <dc:format>image/svg+xml</dc:format>
    <dc:type rdf:resource="http://purl.org/dc/dcmitype/StillImage"/>
    <dc:title/>
   </cc:Work>
  </rdf:RDF>
 </metadata>
 <defs id="defs4">
  <clipPath id="b">
   <path id="path16" d="m344.73 276.47c-5.32 0-9.633-4.313-9.633-9.632 0-5.321 4.313-9.634 9.633-9.634s9.633 4.313 9.633 9.634c0 5.319-4.313 9.632-9.633 9.632z"/>
  </clipPath>
  <linearGradient id="linearGradient4210" x2="1" gradientTransform="matrix(590.09 -590.52 590.09 590.52 123.34 713.62)" gradientUnits="userSpaceOnUse">
   <stop id="stop7" stop-color="#f03838" offset="0"/>
   <stop id="stop9" stop-color="#f03838" offset=".14835"/>
   <stop id="stop11" stop-color="#f03b2f" offset=".48352"/>
   <stop id="stop13" stop-color="#ce2635" offset="1"/>
  </linearGradient>
 </defs>
 <path id="path20" d="m1.106 418.33c0 230.64 186.83 417.61 417.27 417.61 230.43 0 417.27-186.97 417.27-417.61 0-230.56-186.83-417.53-417.27-417.53-230.43 0-417.27 186.97-417.27 417.53" fill="url(#linearGradient4210)"/>
 <g id="g22" transform="matrix(43.38 0 0 -43.412 -14536 12002)" clip-path="url(#b)">
  <g id="g24" transform="translate(336.45,261.89)">
   <path id="path26" d="m0 0c-1.427 1.889-2.225 3.236-2.119 5.628 0.121 3.832 2.594 7.415 6.097 8.905 0.516 0.234 0.985 0.279 1.011 0.162 0.025-0.121-0.371-0.347-0.863-0.576-3.281-1.461-5.548-4.807-5.72-8.366-0.097-1.56 0.187-3.123 0.799-4.531-0.448 1.115-0.655 2.319-0.631 3.498-0.104 1.801 0.347 3.676 1.337 5.266 2.387 3.844 6.903 5.554 11.422 4.211 2.114-0.6 3.313-1.377 4.662-2.818 1.337-1.443 2.204-3.548 2.33-6.083 0.021-0.197 0.01-0.418-0.029-0.497-0.04-0.083-0.084 5e-3 -0.107 0.198-0.521 4.317-3.054 7.823-6.935 8.919-4.258 1.204-8.651-0.328-11.017-4.149-0.162-0.284-0.257-0.513-0.367-0.781 0.483 0.851 0.954 1.559 1.663 2.223 2.496 2.568 6.574 3.331 9.878 2.198 2.988-1.024 4.736-3.238 5.591-5.964 0.116-0.383 0.12-0.548 0.068-0.589-0.073-0.082-0.141 0.065-0.249 0.393-0.879 2.442-2.304 4.195-4.575 5.365-2.067 1.059-4.696 1.15-7.022 0.369 5e-3 -0.011 3e-3 -0.026-9e-3 -0.043-0.063-0.084-0.264-0.178-0.443-0.24-0.517-0.17-1.019-0.43-1.501-0.697-0.86-0.548-1.544-1.071-2.144-1.888 0.483 0.652 1.002 1.032 1.649 1.499 0.189 0.146 0.374 0.212 0.391 0.143 0.015-0.059-0.124-0.228-0.318-0.373-1.718-1.289-2.927-3.082-3.262-5.15-0.317-2.472 0.549-4.964 2.152-6.633 1.593-1.694 3.703-2.766 5.608-3.026 0.082 8e-3 0.192-0.016 0.233-0.041 0.054-0.024 0.037-0.051-0.037-0.06-1.734-0.046-4.462 1.18-6.24 3.175-1.803 1.942-2.68 4.882-1.909 7.711 0.086 0.344 0.215 0.84 0.33 1.198-0.401-0.803-0.648-1.495-0.78-3-0.011-0.278-0.024-0.522-0.011-0.762 0.021-0.51 0.05-0.846 0.152-1.342 8e-3 0.023 0.019 0.037 0.033 0.041 0.056 7e-3 0.126-0.17 0.171-0.388 0.267-1.23 0.866-2.391 1.605-3.413 0.019-0.024 0.035-0.047 0.05-0.072 1.051-1.347 2.533-2.362 4.141-2.994 1.389-0.5 2.808-0.659 4.178-0.483 1.465 0.132 2.964 0.765 4.216 1.657 1.494 1.117 2.492 2.446 3.143 3.875 0.039 0.083 0.08 0.183 0.116 0.243 0.037 0.064 0.064 0.126 0.109 0.114 0.038-0.025 2e-3 -0.162-6e-3 -0.188-0.717-2.227-2.093-3.7-3.629-4.768-1.184-0.856-2.853-1.313-3.716-1.443-0.683-0.111-1.782-0.23-3.478 0.109-1.455 0.361-2.76 0.879-4.184 2.073-0.975 0.888-1.43 1.568-1.834 2.185" fill="#fff"/>
  </g>
 </g>
 <path id="path28" d="m54.455 372.18c-7.4179 59.431 1.5617 123.68 27.329 178.6 22.297 45.539 57.522 95.071 102.85 125.63 2.3859 1.3023 3.2535 0.8248 2.3859-0.86823-0.91097-1.693-3.5138-4.2978-5.7262-5.5567-41.775-30.692-75.785-83.524-96.391-124.33-23.642-53.353-31.451-114.61-25.29-171.47 0.34703-5.5132 0.26028-10.245-1.1713-11.07-1.3881-0.3907-3.2969 3.2558-3.991 9.073" fill="#fff"/>
 <path id="path30" d="m662.68 438.14c0-10.679 3.774-24.007 11.409-39.895 3.2969-7.1195 7.8951-12.893 13.708-17.278 5.813-4.428 11.062-6.5986 15.833-6.5986 6.8974 0 10.324 4.0373 10.324 12.112 0 5.6869-2.6028 12.937-7.8518 21.749-8.2856 14.239-20.388 26.351-36.309 36.336-4.7284 3.2993-7.1142 1.1721-7.1142-6.4249m111.44 14.238c-0.69409-2.1271-1.6484-2.4744-2.8197-1.0419-10.238 13.761-22.688 21.358-37.393 22.791-22.557 2.1271-39.042 0.21703-49.496-5.6869-2.863-1.4326-4.2947-2.6481-4.2947-3.5598 0-0.26047 0.60731-0.95507 1.7786-2.1706 4.5116-3.2993 9.1098-7.0761 13.708-11.2 4.6416-4.1675 9.3266-8.8559 14.098-14.066 15.14-16.41 23.685-30.302 25.594-41.718 0.73745-4.2543 1.0845-8.2915 1.0845-12.112 0-17.104-6.8974-28.608-20.649-34.556-3.5571-1.6496-8.4157-2.4744-14.576-2.4744-10.932 0-21.517 2.8218-31.71 8.552-12.363 6.6419-21.95 16.714-28.848 30.257-9.5002 18.798-14.229 36.336-14.229 52.745 0 9.8109 1.7786 18.494 5.2923 26.134-2.2124 1.7799-4.7284 3.5163-7.5914 5.0792-7.1142 4.0807-14.055 5.9907-18.566 6.2079-9.2398 0.47752-16.137-1.7799-20.649-4.645-3.2969-1.9101-4.9886-4.645-4.9886-8.2048 0-1.4326 0.39039-3.4295 1.0845-6.0342 0.21689-0.47752 1.3014-3.3427 3.2101-8.552 1.9087-5.2527 4.7284-12.937 8.5459-23.181 7.1142-18.754 11.756-32.298 13.882-40.59 1.4315-4.9922 2.1256-9.5072 2.1256-13.544 0-9.29-3.774-15.672-11.366-19.231-4.5115-2.3876-9.2833-3.6032-14.272-3.6032-9.023 0-19.087 4.5148-30.236 13.544-7.1577 5.9474-14.966 14.369-23.511 25.309-7.1142 9.0295-10.802 13.544-11.062 13.544-1.1712 0-0.82421-2.0404 1.0845-6.0776 4.5116-9.9412 6.7673-18.623 6.7673-26.003 0-11.157-5.9431-17.799-17.786-19.926-1.2146-0.26047-2.2557-0.43411-3.2101-0.56434-0.95435-0.0868-1.9087-0.17367-2.863-0.17367-18.523 0-38.218 15.801-59.084 47.405-4.0777 6.1644-6.0732 7.4668-6.0732 3.907 0-2.3442 1.9955-9.2467 6.0732-20.664 3.2969-9.2467 6.1599-16.15 8.5459-20.664 0.91099-1.6496 1.3882-3.3428 1.3882-4.9922 0-3.5598-2.6028-6.4249-7.8083-8.552-3.5571-1.6497-7.7216-2.4744-12.45-2.4744-9.9774 0-15.79 3.5598-17.483 10.679-1.2146 4.5148-2.4293 8.9427-3.6439 13.371-4.9886 6.1644-11.539 13.11-19.217 18.537-1.258-10.028-4.7284-16.8-10.541-20.143-4.7284-2.6046-9.2398-3.907-13.491-3.907-13.057 0-19.608 7.597-19.608 22.791 0 8.0745 2.6028 14.021 7.8518 17.799 2.6028 1.9101 3.9042 4.3845 3.9042 7.5101 0 3.2993-1.9087 10.332-5.6827 21.011-4.2947 13.284-8.5459 22.921-12.84 28.868-7.8083 11.157-16.615 16.714-26.332 16.714-3.3402 0-6.5504-0.82481-9.6303-2.4744-4.2512-2.3876-6.4203-7.1195-6.4203-14.239 0-9.7241 3.9476-23.398 11.756-40.98 5.249-11.634 13.057-23.747 23.511-36.336 7.8518-9.9846 13.535-15.932 17.091-17.842 4.2947-2.3442 5.2056-5.1225 2.863-8.2048-1.6918-2.3443-5.4658-3.5598-11.409-3.5598-12.103 0.47752-25.03 5.9474-38.825 16.41-15.661 11.895-26.592 26.959-32.752 45.235-4.9886 15.455-7.4614 28.522-7.4614 39.201 0 1.6931 0.0868 3.3427 0.2169 4.9489-1.1712 1.2155-2.386 2.3442-3.7307 3.4295-3.2969 2.7348-6.9841 5.2962-11.018 7.6403-7.1142 4.2978-15.183 6.7288-18.045 6.6854-9.5002-0.13026-16.268-1.3023-21.473-3.4728-5.249-2.1271-7.8518-5.8171-7.8518-11.027 0-4.0372 0.82423-8.4218 2.516-13.197 4.7284-14.239 8.9362-26.959 12.624-38.115 3.6874-11.157 7.0709-20.881 10.151-29.215 0.69409-2.3876 1.0845-4.7318 1.0845-7.1196 0-11.895-5.249-19.491-15.661-22.834-2.863-0.91163-6.3335-1.3892-10.368-1.3892-11.626 0-21.82 4.2543-30.583 12.806-2.863 2.6046-5.9431 5.9039-9.2833 9.8109-3.3402 3.907-6.9841 8.2482-11.018 13.023-3.5571 4.2543-6.3768 7.6838-8.3723 10.288-2.0388 2.6481-3.2535 4.428-3.7307 5.383-0.26028 0.91165-0.73746 1.3892-1.4315 1.3892-2.3859 0-2.7329-1.8667-1.0845-5.6869 1.1713-3.0823 5.5959-14.326 13.188-33.687 7.5915-19.318 18.394-47.059 32.405-83.176 1.4315-3.5598 2.1256-6.6419 2.1256-9.29 0-3.5598-1.7786-6.7721-5.3358-9.5939-1.6918-1.2155-5.6827-2.0404-12.103-2.5178-6.2032 0-10.454 0.39069-12.84 1.0853-4.2512 1.4326-7.7216 4.862-10.324 10.332-2.8197 6.6419-12.233 35.641-28.111 86.953-9.023 29.91-16.311 55.306-21.907 76.057-5.5526 20.794-9.5435 37.247-11.929 49.358-1.1713 6.9024 1.2146 11.07 7.1142 12.459 2.1691 0.738 6.7673 0.34729 13.881-1.0853 4.7718-0.69458 8.0687-4.124 9.9774-10.332 4.7718-14.934 14.011-32.862 27.762-53.786 16.137-24.44 28.023-38.941 35.614-43.455 3.8175-2.3876 6.8974-3.5598 9.2833-3.5598 2.3425 0 3.5571 1.3892 3.5571 4.2543 0 1.4326-0.1301 2.5178-0.39042 3.2125-1.8654 5.2094-3.7307 10.462-5.5093 15.672-1.7786 5.2527-3.6006 10.462-5.5093 15.672-6.6372 19.491-10.541 32.558-11.756 39.201-0.21689 1.9101-0.39041 3.6465-0.52055 5.1659-0.1301 1.5629-0.17351 2.8218-0.17351 3.7333 0 7.38 4.0776 13.544 12.276 18.537 8.1988 4.9922 21.17 7.5101 38.999 7.5101 3.5571 0 6.9408-0.21705 10.151-0.56434 3.2101-0.3473 6.3335-0.73801 9.4134-1.259 12.624-1.9969 23.729-7.597 33.359-16.714 4.1211 7.1628 10.541 12.633 19.26 16.41 7.3746 2.8218 15.097 4.2543 23.164 4.2543 28.023 0 49.714-15.541 65.157-46.667 8.8929-18.059 13.925-34.728 15.053-50.01 3.5571-1.3024 7.201-2.8651 10.888-4.6017-2.4727 9.0295-4.9453 17.928-7.3312 26.612-6.0298 22.01-11.929 43.064-17.612 63.25-1.1712 5.7304 3.9042 8.552 15.312 8.552 11.409 0 18.045-2.3876 19.955-7.1195 3.08-7.1195 10.888-21.966 23.468-44.54 14.011-25.656 24.336-42.282 30.973-49.879 8.5459-10.202 15.312-14.977 20.302-14.239 4.5116 0.69459 5.596 4.3845 3.2101 11.027-6.8973 18.059-13.534 35.12-19.912 51.139-6.4203 16.019-12.363 31.299-17.829 45.799-1.9087 5.4264 3.6874 8.1613 16.744 8.1613 11.626 0 18.394-2.7349 20.302-8.1613 1.4315-4.5147 4.3813-10.809 8.8928-18.884 4.5116-8.0745 10.541-17.973 18.133-29.607 6.2033-9.5071 11.843-17.928 16.962-25.265 5.0754-7.38 9.7605-13.805 14.055-19.275 6.3768-8.0745 11.235-12.112 14.576-12.112 3.5571 0 5.3358 1.7799 5.3358 5.3396 0 2.6481-1.5183 6.9024-4.6416 12.85-2.1256 4.2543-4.3813 9.2032-6.7239 14.803-2.386 5.5567-4.902 11.808-7.5047 18.667-5.943 16.193-8.8928 27.566-8.8928 34.208 0 11.2 6.5504 19.275 19.608 24.268 7.3313 2.6046 16.962 5.0357 26.505 5.6434 7.1142 0.4341 17.655 0.47752 25.247-0.95507 12.016-1.9534 21.43-6.8156 30.495-15.063 0.78083 0.73801 1.475 1.476 2.2992 2.1706 11.149 9.0295 32.274 13.935 59.56 13.935 13.057 0 22.904-1.476 33.359-3.6032 13.318-2.3876 24.943-8.552 34.921-18.537 1.1713-1.1721 1.9955-3.7768 2.4727-7.8575 0.47718-5.2094-0.13006-9.8544-1.7786-13.892" fill="#fff"/>
 <g id="g4156" transform="matrix(1.25 0 0 1.25 -.00056282 -11.556)" fill="#d53a36">
  <path id="path14" d="m916.47 254.14c9.84 0.02 19.69-0.19 29.53 0.12v159.31l-38.72 0.24-0.03-116.47c-10.45 5.1-22.31 4.74-33.64 4.99v-24.47c9.49-0.58 19.33-1.7 27.7-6.58 7.02-3.58 12.15-9.95 15.16-17.14z"/>
  <path id="path16-7" d="m762.12 274.76 39.1 0.02v47.36l44.09 0.06-0.01 30.61-44.08-0.01 0.01 48.01-39.13 0.01 0.02-48.02h-44.23l-0.02-30.6 44.25 0.01z"/>
 </g>
</svg>
