<?xml version="1.0" encoding="UTF-8" standalone="no"?>
<svg
   xmlns:dc="http://purl.org/dc/elements/1.1/"
   xmlns:cc="http://creativecommons.org/ns#"
   xmlns:rdf="http://www.w3.org/1999/02/22-rdf-syntax-ns#"
   xmlns:svg="http://www.w3.org/2000/svg"
   xmlns="http://www.w3.org/2000/svg"
   xmlns:sodipodi="http://sodipodi.sourceforge.net/DTD/sodipodi-0.dtd"
   xmlns:inkscape="http://www.inkscape.org/namespaces/inkscape"
   width="961pt"
   height="589pt"
   viewBox="0 0 961 589"
   version="1.1"
   id="svg2"
   inkscape:version="0.91 r13725"
   sodipodi:docname="Home and Leisure - Dark.svg">
  <metadata
     id="metadata55">
    <rdf:RDF>
      <cc:Work
         rdf:about="">
        <dc:format>image/svg+xml</dc:format>
        <dc:type
           rdf:resource="http://purl.org/dc/dcmitype/StillImage" />
      </cc:Work>
    </rdf:RDF>
  </metadata>
  <defs
     id="defs53" />
  <sodipodi:namedview
     pagecolor="#ffffff"
     bordercolor="#666666"
     borderopacity="1"
     objecttolerance="10"
     gridtolerance="10"
     guidetolerance="10"
     inkscape:pageopacity="0"
     inkscape:pageshadow="2"
     inkscape:window-width="1920"
     inkscape:window-height="1017"
     id="namedview51"
     showgrid="false"
     inkscape:zoom="0.47950052"
     inkscape:cx="1091.5695"
     inkscape:cy="875.28133"
     inkscape:window-x="-8"
     inkscape:window-y="-8"
     inkscape:window-maximized="1"
     inkscape:current-layer="svg2" />
  <g
     id="#c5cc1cff">
    <path
       d="m 0.44,0 135.87,0 0,153.87 127.5,0 0,-153.87 164.03,0 c -29.82,11.09 -56.45,31.4 -73.61,58.34 -12.06,18.84 -19.08,41.19 -18.25,63.67 0.88,26.91 12.62,53.26 32.13,71.83 11.26,10.96 24.68,19.49 38.84,26.17 -19.06,22.63 -35.76,47.9 -44.87,76.26 -7.19,22.18 -8.64,46.69 -1.26,69.03 10.89,31.75 32.6,60.04 61.64,77.2 -52.88,0 -105.77,0.01 -158.65,-0.01 l 0,-176.39 -127.5,0 0,176.39 -135.87,0.01 z"
       id="path5"
       inkscape:connector-curvature="0"
       style="opacity:1;fill:#c5cc1c"
       sodipodi:nodetypes="ccccccccccccccccccc" />
    <path
       fill="#c5cc1c"
       opacity="1.00"
       d=" M 553.37 0.00 L 553.39 0.00 L 553.59 0.18 C 553.54 0.13 553.43 0.04 553.37 0.00 Z"
       id="path7" />
    <path
       fill="#c5cc1c"
       opacity="1.00"
       d=" M 438.57 104.04 C 439.63 88.08 454.12 74.51 469.96 73.78 C 481.42 73.13 492.66 80.11 497.54 90.43 C 502.54 100.62 501.85 112.70 498.20 123.21 C 495.00 132.42 489.84 140.94 483.24 148.12 C 471.31 141.93 458.67 136.51 448.60 127.38 C 441.98 121.60 437.95 112.88 438.57 104.04 Z"
       id="path9" />
    <path
       fill="#c5cc1c"
       opacity="1.00"
       d=" M 106.37 509.60 C 117.77 506.92 130.60 508.65 140.04 515.89 C 159.49 530.95 159.37 564.91 139.68 579.72 C 123.76 591.40 98.26 588.95 86.36 572.63 C 75.85 558.01 76.00 536.31 86.93 521.96 C 91.74 515.76 98.77 511.43 106.37 509.60 M 112.54 527.73 C 106.33 529.52 102.87 535.90 102.13 541.96 C 101.24 549.08 101.50 557.10 105.97 563.08 C 109.91 568.33 117.86 569.77 123.43 566.34 C 128.78 563.20 130.87 556.72 131.27 550.87 C 131.66 544.60 131.17 537.76 127.34 532.52 C 124.08 528.00 117.84 526.01 112.54 527.73 Z"
       id="path11" />
    <path
       d="m 0,510.43 23.47,-0.24 0.01,26.03 21.52,0 0,-26.03 23.03,0 0,74.96 -23.03,0 -0.01,-29.72 -21.52,0.01 0,29.71 L 0,584.56 Z"
       id="path13"
       inkscape:connector-curvature="0"
       style="opacity:1;fill:#c5cc1c"
       sodipodi:nodetypes="ccccccccccccc" />
    <path
       d="m 165.06,510.19 32.78,0 10.77,44.3 10.74,-44.3 32.77,0 0,74.96 -21.77,0.01 -0.04,-48.4 -13.12,48.4 -17.18,0 -13.07,-48.02 -0.1,48.01 -21.78,0.01 z"
       id="path15"
       inkscape:connector-curvature="0"
       style="opacity:1;fill:#c5cc1c"
       sodipodi:nodetypes="cccccccccccccc" />
    <path
       d="m 264.97,510.19 61.84,0 0.08,19.2 -38.88,0.04 0,9.32 35.24,0 0,17.83 -35.25,0.01 0,9.32 39.97,0 0,19.25 -63,-0.01 z"
       id="path17"
       inkscape:connector-curvature="0"
       style="opacity:1;fill:#c5cc1c"
       sodipodi:nodetypes="ccccccccccccc" />
  </g>
  <g
     id="#58585aff">
    <path
       fill="#58585a"
       opacity="1.00"
       d=" M 553.39 0.00 L 765.81 0.00 C 765.81 97.50 765.81 195.00 765.81 292.50 C 744.72 281.44 723.62 270.40 702.54 259.32 C 717.04 221.59 718.63 179.50 709.58 140.28 C 678.08 153.31 646.61 166.38 615.10 179.40 C 617.63 191.72 616.11 204.46 612.98 216.53 C 597.11 207.93 581.26 199.28 565.38 190.67 C 582.16 170.14 595.15 146.16 601.09 120.20 C 605.68 100.12 605.55 78.65 598.62 59.11 C 593.17 44.26 585.31 30.16 574.72 18.34 C 568.64 11.23 561.02 5.75 553.59 0.18 L 553.39 0.00 Z"
       id="path25" />
    <path
       fill="#58585a"
       opacity="1.00"
       d=" M 474.57 304.92 C 479.08 292.39 486.91 281.36 495.50 271.31 C 519.22 284.17 543.11 296.72 566.87 309.50 C 560.24 323.43 552.59 337.56 540.30 347.32 C 531.58 354.35 520.18 358.12 508.97 356.87 C 494.53 355.63 480.78 346.62 474.81 333.26 C 470.50 324.41 471.30 313.97 474.57 304.92 Z"
       id="path27" />
    <path
       d="m 827.92,324.24 c 16.91,-0.34 33.17,-0.06 50.09,-0.15 27.66,0.07 55.33,-0.14 82.99,0.11 l 0,118.22 c -130.11,0.18 -260.22,0.06 -390.33,0.06 20.31,-9.36 39.53,-21.52 55.44,-37.35 13.04,-12.84 23.74,-27.88 32.74,-43.78 11.61,6.37 23.18,12.8 34.8,19.13 z"
       id="path29"
       inkscape:connector-curvature="0"
       style="opacity:1;fill:#58585a"
       sodipodi:nodetypes="ccccccccc" />
    <path
       fill="#58585a"
       opacity="1.00"
       d=" M 383.59 523.07 C 385.85 513.98 394.93 508.08 403.92 507.36 C 411.02 506.89 418.69 507.94 424.52 512.33 C 431.89 517.88 433.56 529.10 429.10 536.98 C 426.68 541.45 422.73 544.84 418.51 547.57 C 419.80 549.19 421.14 550.76 422.61 552.23 C 423.18 550.61 423.73 549.00 424.26 547.38 C 430.79 547.44 437.31 547.38 443.84 547.42 C 442.77 554.53 439.92 561.36 435.25 566.86 C 440.63 573.36 446.05 579.83 451.43 586.34 C 442.22 586.36 433.02 586.33 423.82 586.35 C 422.56 584.77 421.27 583.22 420.03 581.64 C 410.56 588.58 397.32 590.28 386.55 585.51 C 376.18 581.04 370.19 568.75 372.86 557.83 C 374.93 550.19 381.46 544.92 388.03 541.14 C 384.08 536.10 381.82 529.42 383.59 523.07 M 385.66 525.06 C 384.42 531.37 387.73 537.42 391.97 541.83 C 386.41 544.69 380.86 548.21 377.39 553.57 C 372.79 560.55 374.37 570.17 379.18 576.63 C 384.38 583.64 393.65 586.42 402.09 585.59 C 408.86 585.39 415.24 582.47 420.43 578.22 C 421.93 580.13 423.45 582.02 424.98 583.91 C 432.07 583.89 439.15 583.91 446.24 583.90 C 441.50 578.18 436.74 572.48 432.00 566.76 C 436.54 562.10 439.52 556.14 440.98 549.83 C 436.07 549.80 431.17 549.80 426.27 549.83 C 425.20 552.08 423.97 554.24 422.55 556.29 C 419.89 553.20 417.38 549.99 414.82 546.82 C 420.58 543.75 426.07 539.26 428.26 532.90 C 430.42 526.39 428.58 518.30 422.88 514.14 C 417.51 510.22 410.51 509.34 404.04 509.77 C 395.63 510.45 386.99 516.29 385.66 525.06 Z"
       id="path31" />
    <path
       d="m 673.53,515.59 c 7.23,-6.11 17.19,-7.67 26.38,-7.04 7.9,0.49 16.33,2.78 21.74,8.91 3.81,4.19 5.27,9.89 5.62,15.41 l -21.62,0.02 c 0.05,-8.11 -11.28,-9.9 -16.66,-5.9 -2.68,2.21 -0.81,6.11 2.01,7.13 10.4,4.7 22.86,4.45 32.19,11.63 10.31,7.82 9.03,25.06 -0.43,33.06 -7.61,6.46 -18.04,8.15 -27.73,8.1 -9.37,-0.3 -19.4,-2.89 -25.98,-9.98 -4.28,-4.56 -6,-10.87 -6.18,-16.99 l 22.96,0 c 0.42,2.83 0.72,6.12 3.19,8 3.65,2.7 8.67,2.78 12.95,1.83 3.08,-0.67 5.77,-3.49 5.3,-6.8 -0.1,-2.22 -2.24,-3.42 -4.03,-4.19 -8.79,-3.57 -18.41,-4.79 -26.94,-9.04 -4.55,-2.25 -8.53,-6.15 -9.77,-11.19 -1.97,-8.14 0.43,-17.52 7,-22.96 z"
       id="path33"
       inkscape:connector-curvature="0"
       style="opacity:1;fill:#58585a"
       sodipodi:nodetypes="cccccccccccccccccccc" />
    <path
       d="m 490.16,510.19 23.02,0 0.01,55.71 33.06,0.01 0,19.24 -56.09,0 z"
       id="path35"
       inkscape:connector-curvature="0"
       style="opacity:1;fill:#58585a"
       sodipodi:nodetypes="ccccccc" />
    <path
       d="m 557.1,510.19 61.83,0 0.01,19.24 -38.8,0 -0.01,9.32 35.24,0 0.01,17.83 -35.25,0.02 0,9.31 39.96,0 0,19.24 -63,0 z"
       id="path37"
       inkscape:connector-curvature="0"
       style="opacity:1;fill:#58585a"
       sodipodi:nodetypes="ccccccccccccc" />
    <path
       d="m 631.79,510.19 23.02,0 0,74.96 -23.02,0 z"
       id="path39"
       inkscape:connector-curvature="0"
       style="opacity:1;fill:#58585a"
       sodipodi:nodetypes="ccccc" />
    <path
       d="m 738.16,510.19 23.02,0 0.04,43.89 c 0.13,4.35 0.55,9.53 4.39,12.31 3.8,2.44 9.15,2.5 13.04,0.21 4.05,-2.78 4.42,-8.22 4.55,-12.68 l 0.02,-43.73 23.05,-0.01 0.01,45.84 c 0.03,8.04 -1.72,16.75 -7.67,22.58 -6.42,6.33 -15.84,8.09 -24.53,8.3 -9.32,0.17 -19.5,-0.95 -26.93,-7.12 -6.64,-5.5 -8.98,-14.49 -8.98,-22.79 z"
       id="path41"
       inkscape:connector-curvature="0"
       style="opacity:1;fill:#58585a"
       sodipodi:nodetypes="cccccccccccccc" />
    <path
       d="m 818.91,510.19 c 12.7,-0.01 25.4,0 38.11,-0.01 7.55,-0.24 15.74,0.1 22.04,4.81 11.88,8.21 10.51,29.49 -2.88,35.45 4.11,1.81 7.11,5.46 8.69,9.61 3.33,8.01 1.31,17.04 4.37,25.12 l -22.96,-0.04 c -1.62,-5.93 -1.56,-12.12 -2.65,-18.14 -0.62,-3.52 -2.95,-7.12 -6.72,-7.69 -4.97,-0.59 -9.99,-0.13 -14.97,-0.27 l 0,26.12 -23.03,0 0,-74.96 m 23.03,17.88 0,14.86 c 5.73,-0.23 11.58,0.59 17.23,-0.63 6.14,-1.24 6.75,-11.38 0.74,-13.21 -5.8,-1.82 -12,-0.74 -17.97,-1.02 z"
       id="path43"
       inkscape:connector-curvature="0"
       style="opacity:1;fill:#58585a"
       sodipodi:nodetypes="cccccccccccccccccc" />
    <path
       d="m 897.43,510.19 61.85,0 0,19.25 -38.78,0 0,9.3 35.25,0.01 0,17.84 -35.24,0.01 -0.01,9.31 39.93,0 0,19.24 -62.96,0.03 z"
       id="path45"
       inkscape:connector-curvature="0"
       style="opacity:1;fill:#58585a"
       sodipodi:nodetypes="ccccccccccccc" />
    <path
       fill="#58585a"
       opacity="1.00"
       d=" M 400.80 526.95 C 401.11 522.25 407.26 519.54 411.03 522.23 C 413.61 523.87 414.42 527.45 413.22 530.20 C 412.06 533.34 409.13 535.24 406.31 536.77 C 404.03 533.84 400.64 531.00 400.80 526.95 M 403.23 527.06 C 403.13 529.80 405.51 531.75 406.94 533.83 C 409.25 531.98 412.28 529.35 411.09 526.01 C 409.84 522.22 403.60 523.23 403.23 527.06 Z"
       id="path47" />
    <path
       fill="#58585a"
       opacity="1.00"
       d=" M 392.25 562.04 C 393.18 557.80 397.35 555.61 400.81 553.65 C 404.18 557.76 407.55 561.87 410.91 565.99 C 408.03 568.48 404.93 571.30 400.92 571.53 C 395.92 571.96 391.19 567.04 392.25 562.04 M 394.71 562.02 C 393.61 565.73 397.31 569.57 401.03 569.10 C 403.55 568.85 405.55 567.14 407.60 565.82 C 405.14 562.74 402.64 559.70 400.13 556.68 C 398.11 558.20 395.68 559.54 394.71 562.02 Z"
       id="path49" />
  </g>
  <g
     id="#ffffffff">
    <path
       d="m 427.84,0 125.53,0 c 0.06,0.04 0.17,0.13 0.22,0.18 7.43,5.57 15.05,11.05 21.13,18.16 10.59,11.82 18.45,25.92 23.9,40.77 6.93,19.54 7.06,41.01 2.47,61.09 -5.94,25.96 -18.93,49.94 -35.71,70.47 15.88,8.61 31.73,17.26 47.6,25.86 3.13,-12.07 4.65,-24.81 2.12,-37.13 31.51,-13.02 62.98,-26.09 94.48,-39.12 9.05,39.22 7.46,81.31 -7.04,119.04 l 125.38,64.92 -134.27,56.24 c -11.62,-6.33 -23.19,-12.76 -34.8,-19.13 -9,15.9 -19.7,30.94 -32.74,43.78 -15.91,15.83 -35.13,27.99 -55.44,37.35 -49.41,0.05 -98.81,0.01 -148.21,0.02 -29.04,-17.16 -50.75,-45.45 -61.64,-77.2 -7.38,-22.34 -5.93,-46.85 1.26,-69.03 9.11,-28.36 25.81,-53.63 44.87,-76.26 C 392.79,213.33 379.37,204.8 368.11,193.84 348.6,175.27 336.86,148.92 335.98,122.01 335.15,99.53 342.17,77.18 354.23,58.34 371.39,31.4 398.02,11.09 427.84,0 m 10.73,104.04 c -0.62,8.84 3.41,17.56 10.03,23.34 10.07,9.13 22.71,14.55 34.64,20.74 6.6,-7.18 11.76,-15.7 14.96,-24.91 3.65,-10.51 4.34,-22.59 -0.66,-32.78 -4.88,-10.32 -16.12,-17.3 -27.58,-16.65 -15.84,0.73 -30.33,14.3 -31.39,30.26 m 36,200.88 c -3.27,9.05 -4.07,19.49 0.24,28.34 5.97,13.36 19.72,22.37 34.16,23.61 11.21,1.25 22.61,-2.52 31.33,-9.55 12.29,-9.76 19.94,-23.89 26.57,-37.82 -23.76,-12.78 -47.65,-25.33 -71.37,-38.19 -8.59,10.05 -16.42,21.08 -20.93,33.61 z"
       id="path20"
       inkscape:connector-curvature="0"
       style="opacity:1;fill:#ffffff"
       sodipodi:nodetypes="cccccccccccccccccccccccccccccccccccccc" />
    <path
       fill="#ffffff"
       opacity="1.00"
       d=" M 385.66 525.06 C 386.99 516.29 395.63 510.45 404.04 509.77 C 410.51 509.34 417.51 510.22 422.88 514.14 C 428.58 518.30 430.42 526.39 428.26 532.90 C 426.07 539.26 420.58 543.75 414.82 546.82 C 417.38 549.99 419.89 553.20 422.55 556.29 C 423.97 554.24 425.20 552.08 426.27 549.83 C 431.17 549.80 436.07 549.80 440.98 549.83 C 439.52 556.14 436.54 562.10 432.00 566.76 C 436.74 572.48 441.50 578.18 446.24 583.90 C 439.15 583.91 432.07 583.89 424.98 583.91 C 423.45 582.02 421.93 580.13 420.43 578.22 C 415.24 582.47 408.86 585.39 402.09 585.59 C 393.65 586.42 384.38 583.64 379.18 576.63 C 374.37 570.17 372.79 560.55 377.39 553.57 C 380.86 548.21 386.41 544.69 391.97 541.83 C 387.73 537.42 384.42 531.37 385.66 525.06 M 400.80 526.95 C 400.64 531.00 404.03 533.84 406.31 536.77 C 409.13 535.24 412.06 533.34 413.22 530.20 C 414.42 527.45 413.61 523.87 411.03 522.23 C 407.26 519.54 401.11 522.25 400.80 526.95 M 392.25 562.04 C 391.19 567.04 395.92 571.96 400.92 571.53 C 404.93 571.30 408.03 568.48 410.91 565.99 C 407.55 561.87 404.18 557.76 400.81 553.65 C 397.35 555.61 393.18 557.80 392.25 562.04 Z"
       id="path22" />
  </g>
</svg>
