<svg height="342.85" viewBox="0 0 158.75 90.71257" width="600" xmlns="http://www.w3.org/2000/svg"><g transform="translate(165.27 -131.09)"><path d="m-7.3919 189.65-14.118-12.66c-1.086-.95-2.798-.97-3.957-.13l-.058.04-.198.1-1.426.66c-.283.12-.541.28-.836.39l-.05.02-.001-.01c-1.684.61-3.511.95-5.443.95-7.898 0-14.304-5.61-14.304-12.53 0-6.91 6.406-12.52 14.304-12.52 2.767 0 5.331.71 7.522 1.92l.062.01.153.09.199.11c1.158.75 2.786.72 3.845-.2l14.105-12.07c1.1557-1.01 1.1557-2.67-.0121-3.68l-.7928-.7c-6.0081-4.13-11.913-8.35-26.738-8.35-13.135 0-26.594 7.17-33.424 17.27l-.013-.02c-.084.08-.199.14-.332.14-.14 0-.268-.06-.361-.15l-.006.01c-.848-1.04-2.929-2.85-4.087-3.86-1.472-1.3-8.342-5.41-15.157-.97-3.133 2.05-3.658 4.31-3.658 6.61 0 1.8.897 3.98 1.888 5.15.629.74 15.248 19.01 21.029 25.93.087.08.204.13.337.13.265 0 .384-.13.454-.31.705-2.36.938-4.36.945-5.23v-2.55c0-.53.437-.96.979-.96h9.695c.545 0 .982.43.982.96v2.56c0 1.08-.683 8.18-4.454 14.45-.054.08-.091.17-.091.26 0 .15.075.28.183.37.961.88 1.967 1.76 3 2.57 3.893 2.99 12.687 8.44 24.363 8.44 0 0 13.76.55 24.317-7.55l1.1551-1.02c1.1565-1 1.1565-2.65 0-3.67m-68.615 1.39c-2.087 1.26-4.658 2.07-7.881 2.07-3.261 0-6.489-1.36-9.204-3.65-2.618-2.38-3.921-4.99-3.921-7.85 0-2.88 2.362-5.38 2.362-5.38s.227-.33.031-.6c0 0-6.07-7.54-6.17-7.66-.11-.14-.4-.25-.67-.01-4.59 3.95-6.96 8.57-6.96 13.94 0 5.77 2.06 10.09 6.62 14.55 1.51 1.48 3.292 2.39 5.183 3.27h-.007c.633.33.805 1.21-1.08 1.21h-18.676c-1.61 0-2.91-1.14-2.92-2.55v-18.16c0-.67-.55-1.21-1.23-1.21h-18.04c-.68 0-1.23.54-1.23 1.21v18.23c0 1.42-1.31 2.57-2.92 2.57h-19.63c-1.61 0-2.92-1.46-2.92-2.87v-63.54c-.01-1.41 1.3-2.55 2.91-2.56h19.63c1.61 0 2.92 1.14 2.92 2.55l.01 18.16c0 .67.55 1.22 1.23 1.22h18.03c.69 0 1.24-.55 1.24-1.21v-18.16c0-1.41 1.3-2.55 2.91-2.56h22.829c1.62 0 1.696.91.848 1.28 0 0-2.998 1.24-4.913 2.97-7.274 6.56-7.984 14.68-5.264 20.74.32.72 1.52 2.65 2.912 4.29 5.331 6.56 20.753 25.53 23.949 29.14 0 0 .376.31.022.57" fill="#e89523"/><g fill="#333638"><path d="m-160.67 217.15v4.34h-2.72v-10.5h2.72v3.96h4.86v-3.96h2.72v10.5h-2.72v-4.34z"/><path d="m-142.87 216.22c0-2.04-1.18-3.08-2.86-3.08s-2.83 1.04-2.83 3.08c0 2.06 1.14 3.12 2.86 3.12 1.7 0 2.83-1.1 2.83-3.12m-8.5.02c0-3.14 2.56-5.45 5.66-5.45 3.09 0 5.65 2.1 5.65 5.37 0 3.16-2.31 5.58-5.72 5.58-3.4 0-5.59-2.36-5.59-5.5"/><path d="m-132.66 215.53c1.09 0 1.49-.44 1.49-1.22 0-.75-.42-1.09-1.47-1.09h-2.98v2.31zm-2.96 5.96h-2.72v-10.5h5.89c2.77 0 3.97 1.09 3.97 3.11 0 1.61-.86 2.29-1.89 2.6.61.15 1.14.55 1.32 1.02.29.78.29 1.89.4 2.82.06.46.14.75.25.85v.1h-2.77c-.08-.32-.16-.78-.21-2.11-.04-1.24-.56-1.67-1.87-1.67h-2.37z"/><path d="m-126.79 219.71 1.79-1.6c.73.87 1.91 1.46 3.55 1.46 1.48 0 2.07-.3 2.07-.98 0-.75-.55-.88-2.44-1.15-2.07-.29-4.58-.73-4.58-3.36 0-2.25 1.8-3.29 4.52-3.29 2.36 0 3.77.64 4.86 1.81l-1.67 1.6c-.48-.62-1.44-1.29-3.09-1.29-1.45 0-2.02.27-2.02.94 0 .71.57.86 2.57 1.1 2.16.26 4.52.83 4.52 3.37 0 2.29-1.49 3.42-4.7 3.42-2.63 0-4.25-.79-5.38-2.03"/><path d="m-115.09 210.99h9.05v2.07h-6.33v2h4.74v2.07h-4.74v2.25h6.59v2.11h-9.31z"/><path d="m-88.552 216.24c0-3.14 2.22-5.45 5.478-5.45 2.535 0 3.907 1.1 4.739 2.72l-2.244 1.37c-.473-1.17-1.234-1.73-2.456-1.73-1.622 0-2.703 1.03-2.703 3.07 0 2.06 1.11 3.14 2.73 3.14 1.265 0 2.091-.76 2.537-1.82l2.317 1.38c-.873 1.57-2.246 2.82-4.854 2.82-3.618 0-5.544-2.36-5.544-5.5"/><path d="m-68.934 216.22c0-2.04-1.178-3.08-2.858-3.08-1.672 0-2.826 1.04-2.826 3.08 0 2.06 1.136 3.11 2.858 3.11 1.701 0 2.826-1.09 2.826-3.11m-8.498.02c0-3.14 2.565-5.45 5.655-5.45 3.092 0 5.656 2.1 5.656 5.36 0 3.17-2.298 5.59-5.723 5.59-3.398 0-5.588-2.36-5.588-5.5"/><path d="m-64.471 217.17v-6.18h2.721v6.03c0 1.66.482 2.32 2.299 2.32 1.788 0 2.286-.66 2.286-2.32v-6.03h2.718v6.18c0 3.19-1.954 4.57-5.019 4.57-3.271 0-5.005-1.53-5.005-4.57"/><path d="m-52.189 210.99h3.442l4.216 7.02-.098-7.02h2.553v10.5h-3.178l-4.493-7.42.107 7.42h-2.549z"/><path d="m-40.39 213.15v-2.16h9.36v2.16h-3.23v8.34h-2.719v-8.34z"/><path d="m-23.652 215.53c1.077 0 1.481-.45 1.481-1.23 0-.74-.416-1.08-1.471-1.08h-2.98v2.31zm-2.97 5.96h-2.716v-10.5h5.893c2.771 0 3.964 1.09 3.964 3.11 0 1.61-.862 2.29-1.884 2.6.61.15 1.137.55 1.316 1.02.292.78.292 1.89.4 2.82.055.46.139.75.252.85v.1h-2.774c-.083-.32-.151-.78-.207-2.11-.04-1.24-.556-1.67-1.873-1.67h-2.371z"/><path d="m-19.162 210.99h3.092l2.507 3.86 2.358-3.86h2.8561l-3.9791 6.11v4.39h-2.718v-4.42z"/><path d="m-97.465 220c-.442 0-.952-.04-1.374-.39-.412-.36-.569-.63-.569-1.01 0-.16.056-.32.151-.48.117-.17.336-.39.727-.68.942 1.11 1.907 2.25 2.014 2.38-.255.12-.507.18-.949.18m3.631.15.018-.02.182-.27c.538-.92.658-1.97.658-2.17v-1.58l-1.941-.01c0 2.23-.309 2.43-.309 2.43-.26-.31-3.495-4.14-3.495-4.14-.049-.08-.152-.29-.152-.57 0-.45.159-.76.501-.98.978-.62 1.982-.06 2.201.13l.774.85 1.194-1.28-.077-.09-.675-.79-.731-.45-.224-.09c-.462-.18-.939-.27-1.427-.27-1.201 0-2.226.65-2.368.77-.785.67-1.105 1.46-1.105 2.2 0 .52.16 1.01.42 1.41 0 0 .27.32.655.78-.144.11-.555.41-.555.41-.77.63-1.16 1.38-1.16 2.23 0 .92.4 1.7 1.18 2.32l.465.31.247.12c.622.27 1.353.41 2.211.41.591 0 1.136-.09 1.623-.25l.374-.15.15-.07.268.31h2.392s-1.17-1.36-1.294-1.5"/></g></g></svg>