<?xml version="1.0" encoding="UTF-8" standalone="no"?>
<!-- Created with Inkscape (http://www.inkscape.org/) -->

<svg
   xmlns:dc="http://purl.org/dc/elements/1.1/"
   xmlns:cc="http://creativecommons.org/ns#"
   xmlns:rdf="http://www.w3.org/1999/02/22-rdf-syntax-ns#"
   xmlns:svg="http://www.w3.org/2000/svg"
   xmlns="http://www.w3.org/2000/svg"
   xmlns:sodipodi="http://sodipodi.sourceforge.net/DTD/sodipodi-0.dtd"
   xmlns:inkscape="http://www.inkscape.org/namespaces/inkscape"
   width="9.0025358mm"
   height="9.2484226mm"
   viewBox="0 0 31.898749 32.770001"
   id="svg11850"
   version="1.1"
   inkscape:version="0.91 r13725"
   sodipodi:docname="Ideal World - Dark.svg">
  <defs
     id="defs11852">
    <clipPath
       clipPathUnits="userSpaceOnUse"
       id="clipPath1594">
      <path
         d="m 0,0 419.528,0 0,595.275 L 0,595.275 0,0 Z"
         id="path1596"
         inkscape:connector-curvature="0" />
    </clipPath>
    <clipPath
       clipPathUnits="userSpaceOnUse"
       id="clipPath1574">
      <path
         d="m 0,0 419.528,0 0,595.275 L 0,595.275 0,0 Z"
         id="path1576"
         inkscape:connector-curvature="0" />
    </clipPath>
    <clipPath
       clipPathUnits="userSpaceOnUse"
       id="clipPath1542">
      <path
         d="m 0,0 419.528,0 0,595.275 L 0,595.275 0,0 Z"
         id="path1544"
         inkscape:connector-curvature="0" />
    </clipPath>
  </defs>
  <sodipodi:namedview
     id="base"
     pagecolor="#ffffff"
     bordercolor="#666666"
     borderopacity="1.0"
     inkscape:pageopacity="0.0"
     inkscape:pageshadow="2"
     inkscape:zoom="15.839192"
     inkscape:cx="-0.30144048"
     inkscape:cy="11.469329"
     inkscape:document-units="px"
     inkscape:current-layer="layer1"
     showgrid="false"
     fit-margin-top="0"
     fit-margin-left="0"
     fit-margin-right="0"
     fit-margin-bottom="0"
     inkscape:window-width="1920"
     inkscape:window-height="1017"
     inkscape:window-x="-8"
     inkscape:window-y="-8"
     inkscape:window-maximized="1" />
  <metadata
     id="metadata11855">
    <rdf:RDF>
      <cc:Work
         rdf:about="">
        <dc:format>image/svg+xml</dc:format>
        <dc:type
           rdf:resource="http://purl.org/dc/dcmitype/StillImage" />
        <dc:title />
      </cc:Work>
    </rdf:RDF>
  </metadata>
  <g
     inkscape:label="Layer 1"
     inkscape:groupmode="layer"
     id="layer1"
     transform="translate(-349.76491,-341.69149)">
    <g
       transform="matrix(1.25,0,0,-1.25,-108.37447,796.91812)"
       id="g1538"
       style="fill:#13923b;fill-opacity:1">
      <g
         id="g1540"
         clip-path="url(#clipPath1542)"
         style="fill:#13923b;fill-opacity:1">
        <g
           id="g1546"
           transform="translate(368.4578,354.17)"
           style="fill:#13923b;fill-opacity:1">
          <path
             d="M 0,0 C 0,0.237 0.053,0.405 0.157,0.514 0.264,0.621 0.43,0.673 0.66,0.673 0.892,0.673 1.057,0.621 1.158,0.516 1.256,0.409 1.31,0.242 1.31,0 1.31,-0.242 1.256,-0.414 1.158,-0.518 1.057,-0.622 0.892,-0.674 0.66,-0.674 0.43,-0.674 0.264,-0.622 0.157,-0.513 0.053,-0.403 0,-0.236 0,0 m 0.01,-4.84 0,2.398 c 0,0.204 -0.02,0.34 -0.056,0.397 -0.035,0.061 -0.112,0.095 -0.23,0.102 l -0.221,0.018 c -0.103,0.008 -0.153,0.063 -0.153,0.157 0.002,0.082 0.014,0.127 0.029,0.144 0.012,0.015 0.057,0.025 0.124,0.025 l 0.326,0 c 0.227,0 0.442,0.002 0.646,0.01 0.2,0.002 0.392,0.015 0.579,0.024 l 0.175,0.021 0.031,0 c 0.039,0 0.067,-0.005 0.077,-0.022 C 1.353,-1.584 1.361,-1.613 1.361,-1.658 1.361,-1.665 1.359,-1.7 1.352,-1.75 1.325,-2.147 1.31,-2.578 1.31,-3.031 l 0,-1.758 c 0,-0.25 0.022,-0.399 0.059,-0.456 0.043,-0.06 0.115,-0.092 0.226,-0.101 L 1.797,-5.372 C 1.812,-5.374 1.833,-5.375 1.857,-5.378 1.931,-5.385 1.97,-5.432 1.97,-5.522 1.97,-5.605 1.96,-5.656 1.938,-5.678 1.92,-5.696 1.871,-5.707 1.797,-5.707 c -0.013,0 -0.058,0.002 -0.126,0.004 -0.356,0.025 -0.716,0.039 -1.076,0.039 -0.289,0 -0.594,-0.014 -0.913,-0.032 -0.084,-0.009 -0.137,-0.011 -0.159,-0.011 -0.069,0 -0.12,0.011 -0.139,0.029 -0.022,0.022 -0.034,0.073 -0.034,0.156 0,0.09 0.038,0.137 0.113,0.144 0.022,0.003 0.043,0.004 0.06,0.006 l 0.197,0.026 c 0.116,0.01 0.195,0.049 0.23,0.11 0.04,0.058 0.06,0.192 0.06,0.396"
             style="fill:#13923b;fill-opacity:1;fill-rule:nonzero;stroke:none"
             id="path1548"
             inkscape:connector-curvature="0" />
        </g>
        <g
           id="g1550"
           transform="translate(372.7264,350.479)"
           style="fill:#13923b;fill-opacity:1">
          <path
             d="m 0,0 c 0,-0.678 0.068,-1.13 0.192,-1.35 0.121,-0.221 0.347,-0.332 0.671,-0.332 0.303,0 0.528,0.121 0.664,0.357 0.138,0.236 0.209,0.625 0.209,1.157 0,0.824 -0.062,1.356 -0.186,1.592 C 1.425,1.658 1.199,1.773 0.863,1.773 0.543,1.773 0.318,1.657 0.193,1.423 0.068,1.186 0,0.713 0,0 M 1.78,-1.575 C 1.608,-1.76 1.412,-1.896 1.191,-1.983 0.972,-2.07 0.713,-2.113 0.414,-2.113 c -0.61,0 -1.062,0.174 -1.356,0.531 -0.295,0.352 -0.444,0.892 -0.444,1.618 0,0.741 0.154,1.291 0.456,1.645 0.309,0.351 0.784,0.529 1.43,0.529 0.287,0 0.523,-0.034 0.715,-0.105 0.19,-0.07 0.363,-0.181 0.521,-0.337 l 0,1.915 C 1.736,3.895 1.717,4.029 1.68,4.081 1.639,4.132 1.565,4.16 1.458,4.171 L 1.23,4.178 C 1.16,4.181 1.113,4.189 1.103,4.206 1.086,4.221 1.08,4.27 1.077,4.348 c 0,0.068 0.007,0.113 0.026,0.131 0.015,0.012 0.061,0.026 0.136,0.026 l 0.326,0 c 0.178,0 0.362,0.002 0.56,0.007 0.199,0.008 0.415,0.022 0.653,0.042 l 0.182,0.009 0.038,0 C 3.036,4.563 3.063,4.554 3.073,4.539 3.089,4.522 3.097,4.49 3.097,4.445 3.097,4.435 3.093,4.392 3.087,4.324 3.061,3.921 3.044,3.504 3.044,3.079 l 0,-4.229 c 0,-0.229 0.02,-0.37 0.059,-0.419 0.041,-0.05 0.109,-0.078 0.217,-0.084 L 3.551,-1.671 C 3.652,-1.677 3.705,-1.729 3.705,-1.829 3.703,-1.909 3.69,-1.956 3.674,-1.97 3.658,-1.987 3.616,-1.996 3.551,-1.996 l -0.244,0 c -0.23,0 -0.442,-0.001 -0.641,-0.009 -0.2,-0.008 -0.392,-0.015 -0.581,-0.027 l -0.177,-0.008 -0.041,0 c -0.033,0 -0.053,0.006 -0.067,0.014 -0.012,0.012 -0.02,0.033 -0.02,0.063 l 0,0.388 z"
             style="fill:#13923b;fill-opacity:1;fill-rule:nonzero;stroke:none"
             id="path1552"
             inkscape:connector-curvature="0" />
        </g>
        <g
           id="g1554"
           transform="translate(378.6193,350.8255)"
           style="fill:#13923b;fill-opacity:1">
          <path
             d="m 0,0 1.417,0 0,0.5 C 1.417,0.86 1.362,1.116 1.25,1.274 1.139,1.431 0.957,1.509 0.71,1.509 0.451,1.509 0.27,1.433 0.16,1.283 0.053,1.133 0,0.88 0,0.522 L 0,0 Z M 0,-0.363 C -0.003,-0.408 -0.006,-0.453 -0.007,-0.5 -0.009,-0.551 -0.01,-0.616 -0.01,-0.707 c 0,-0.512 0.066,-0.872 0.199,-1.083 0.132,-0.212 0.355,-0.316 0.668,-0.316 0.222,0 0.399,0.052 0.539,0.163 0.143,0.107 0.24,0.269 0.307,0.492 0.011,0.028 0.021,0.062 0.029,0.107 0.036,0.148 0.12,0.226 0.252,0.226 l 0.326,0 c 0.083,0 0.137,-0.014 0.164,-0.04 0.025,-0.022 0.035,-0.085 0.035,-0.178 0,-0.371 -0.152,-0.655 -0.463,-0.842 C 1.737,-2.367 1.274,-2.46 0.659,-2.46 c -0.733,0 -1.257,0.164 -1.58,0.485 -0.315,0.323 -0.473,0.857 -0.473,1.593 0,0.808 0.161,1.383 0.492,1.726 0.331,0.344 0.884,0.519 1.659,0.519 0.695,0 1.188,-0.15 1.482,-0.454 C 2.53,1.111 2.68,0.601 2.68,-0.127 2.68,-0.221 2.667,-0.29 2.638,-0.319 2.615,-0.347 2.563,-0.363 2.481,-0.363 l -2.481,0 z"
             style="fill:#13923b;fill-opacity:1;fill-rule:nonzero;stroke:none"
             id="path1556"
             inkscape:connector-curvature="0" />
        </g>
        <g
           id="g1558"
           transform="translate(384.9991,350.4933)"
           style="fill:#13923b;fill-opacity:1">
          <path
             d="m 0,0 -0.479,0 c -0.269,0 -0.472,-0.075 -0.611,-0.214 -0.139,-0.144 -0.209,-0.359 -0.209,-0.644 0,-0.243 0.049,-0.424 0.151,-0.545 0.098,-0.122 0.246,-0.182 0.443,-0.182 0.24,0 0.416,0.063 0.533,0.192 C -0.056,-1.263 0,-1.063 0,-0.79 L 0,0 Z m 0.057,-1.648 c -0.236,-0.166 -0.467,-0.285 -0.693,-0.364 -0.227,-0.077 -0.465,-0.116 -0.71,-0.116 -0.433,0 -0.756,0.102 -0.984,0.309 -0.224,0.208 -0.338,0.505 -0.338,0.897 0,0.429 0.138,0.743 0.416,0.946 0.277,0.201 0.709,0.299 1.301,0.299 L 0,0.323 0,1.242 C 0,1.459 -0.052,1.615 -0.155,1.713 -0.257,1.812 -0.427,1.86 -0.658,1.86 -0.872,1.86 -1.023,1.814 -1.113,1.716 -1.206,1.622 -1.259,1.448 -1.278,1.197 -1.289,1.045 -1.332,0.947 -1.403,0.904 -1.471,0.86 -1.598,0.836 -1.784,0.836 c -0.181,0 -0.308,0.024 -0.386,0.07 -0.075,0.049 -0.113,0.128 -0.113,0.239 0,0.352 0.144,0.614 0.442,0.789 0.292,0.175 0.729,0.262 1.315,0.262 0.663,0 1.132,-0.107 1.41,-0.323 C 1.165,1.662 1.303,1.303 1.303,0.79 l 0,-1.927 c 0,-0.229 0.018,-0.372 0.05,-0.432 0.038,-0.059 0.113,-0.089 0.22,-0.098 L 1.808,-1.685 C 1.909,-1.692 1.961,-1.745 1.961,-1.85 1.961,-1.92 1.953,-1.964 1.935,-1.985 1.919,-2.01 1.886,-2.02 1.836,-2.02 l -0.037,0 -0.236,0.01 -0.433,0 C 0.913,-2.01 0.698,-2.017 0.494,-2.033 0.458,-2.034 0.437,-2.036 0.431,-2.036 l -0.167,-0.017 -0.025,0 c -0.027,0 -0.048,0.004 -0.061,0.012 -0.012,0.013 -0.025,0.036 -0.036,0.071 l -0.085,0.322 z"
             style="fill:#13923b;fill-opacity:1;fill-rule:nonzero;stroke:none"
             id="path1560"
             inkscape:connector-curvature="0" />
        </g>
        <g
           id="g1562"
           transform="translate(388.3223,349.3275)"
           style="fill:#13923b;fill-opacity:1">
          <path
             d="M 0,0 0,4.817 C 0,5.033 -0.02,5.164 -0.056,5.221 -0.092,5.277 -0.172,5.31 -0.288,5.322 L -0.507,5.33 c -0.07,0.002 -0.11,0.012 -0.127,0.026 -0.014,0.015 -0.025,0.064 -0.029,0.142 0.004,0.073 0.015,0.119 0.028,0.135 0.014,0.011 0.057,0.024 0.128,0.024 l 0.324,0 C 0,5.657 0.192,5.66 0.392,5.663 0.59,5.672 0.811,5.685 1.044,5.706 l 0.171,0.008 0.037,0 C 1.289,5.714 1.315,5.706 1.328,5.69 1.341,5.674 1.348,5.642 1.348,5.596 1.348,5.59 1.345,5.563 1.336,5.506 1.314,5.107 1.301,4.68 1.301,4.227 L 1.301,0 c 0,-0.203 0.018,-0.335 0.056,-0.393 0.039,-0.062 0.118,-0.1 0.23,-0.111 l 0.201,-0.025 c 0.014,-0.003 0.033,-0.004 0.061,-0.006 0.072,-0.008 0.11,-0.055 0.11,-0.145 0,-0.082 -0.011,-0.134 -0.031,-0.156 -0.021,-0.017 -0.067,-0.029 -0.14,-0.029 -0.016,0 -0.06,0.002 -0.126,0.005 -0.358,0.024 -0.717,0.039 -1.078,0.039 -0.289,0 -0.593,-0.015 -0.914,-0.032 -0.08,-0.01 -0.134,-0.012 -0.157,-0.012 -0.07,0 -0.118,0.012 -0.142,0.029 -0.02,0.022 -0.034,0.074 -0.034,0.156 0,0.09 0.039,0.137 0.113,0.145 0.024,0.002 0.047,0.003 0.063,0.006 l 0.199,0.025 c 0.114,0.011 0.189,0.046 0.229,0.104 C -0.02,-0.341 0,-0.21 0,0"
             style="fill:#13923b;fill-opacity:1;fill-rule:nonzero;stroke:none"
             id="path1564"
             inkscape:connector-curvature="0" />
        </g>
      </g>
    </g>
    <g
       id="g1566"
       transform="matrix(1.25,0,0,-1.25,351.67416,366.30875)"
       style="fill:#1a5bd3;fill-opacity:1">
      <path
         d="m 0,0 0.883,0 0.761,-2.38 0.157,0 0.642,2.38 1.041,0 0.645,-2.38 0.165,0 L 5.057,0 5.974,0 4.87,-3.176 l -1.333,0 -0.567,2.324 -0.564,-2.324 -1.338,0 L 0,0 Z"
         style="fill:#1a5bd3;fill-opacity:1;fill-rule:nonzero;stroke:none"
         id="path1568"
         inkscape:connector-curvature="0" />
    </g>
    <g
       transform="matrix(1.25,0,0,-1.25,-108.37447,796.91812)"
       id="g1570"
       style="fill:#1a5bd3;fill-opacity:1">
      <g
         id="g1572"
         clip-path="url(#clipPath1574)"
         style="fill:#1a5bd3;fill-opacity:1">
        <g
           id="g1578"
           transform="translate(376.3956,343.7041)"
           style="fill:#1a5bd3;fill-opacity:1">
          <path
             d="m 0,0 c -0.458,0 -0.731,-0.016 -0.827,-0.041 -0.105,-0.03 -0.174,-0.103 -0.206,-0.204 -0.035,-0.111 -0.05,-0.326 -0.05,-0.642 0,-0.196 0.009,-0.335 0.029,-0.421 0.035,-0.161 0.138,-0.251 0.31,-0.275 0.131,-0.017 0.38,-0.031 0.747,-0.031 0.348,0 0.576,0.008 0.691,0.022 0.116,0.015 0.2,0.043 0.256,0.095 0.049,0.038 0.084,0.107 0.103,0.191 0.018,0.081 0.026,0.219 0.026,0.413 0,0.227 -0.007,0.391 -0.019,0.503 -0.017,0.104 -0.042,0.184 -0.077,0.237 -0.044,0.068 -0.12,0.11 -0.225,0.126 C 0.653,-0.011 0.4,0 0,0 m -0.002,0.824 c 0.61,0 1.034,-0.015 1.261,-0.049 C 1.592,0.722 1.794,0.549 1.87,0.245 1.92,0.04 1.947,-0.311 1.947,-0.807 1.947,-1.301 1.92,-1.652 1.87,-1.859 1.794,-2.163 1.592,-2.338 1.259,-2.387 1.032,-2.423 0.612,-2.44 0.006,-2.44 c -0.617,0 -1.039,0.017 -1.272,0.053 -0.329,0.049 -0.531,0.224 -0.606,0.528 -0.053,0.207 -0.076,0.563 -0.076,1.071 0,0.484 0.023,0.828 0.076,1.033 0.075,0.304 0.277,0.477 0.606,0.53 0.229,0.034 0.653,0.049 1.264,0.049"
             style="fill:#1a5bd3;fill-opacity:1;fill-rule:nonzero;stroke:none"
             id="path1580"
             inkscape:connector-curvature="0" />
        </g>
        <g
           id="g1582"
           transform="translate(379.8977,342.9086)"
           style="fill:#1a5bd3;fill-opacity:1">
          <path
             d="m 0,0 1.213,0 c 0.209,0.004 0.334,0.01 0.376,0.011 0.039,0.007 0.075,0.019 0.104,0.04 0.036,0.026 0.062,0.065 0.079,0.116 0.015,0.053 0.021,0.13 0.021,0.241 0,0.099 -0.01,0.177 -0.024,0.227 C 1.751,0.685 1.721,0.727 1.677,0.75 1.645,0.765 1.613,0.771 1.569,0.777 1.529,0.779 1.409,0.784 1.208,0.785 L 0,0.785 0,0 Z m -0.863,-1.597 0,3.176 2.083,0 C 1.707,1.577 1.998,1.569 2.098,1.558 2.195,1.551 2.286,1.514 2.377,1.451 2.487,1.379 2.559,1.278 2.6,1.146 2.641,1.021 2.659,0.819 2.659,0.546 2.659,0.313 2.645,0.143 2.622,0.035 2.597,-0.069 2.548,-0.16 2.476,-0.225 2.402,-0.295 2.285,-0.343 2.133,-0.369 2.313,-0.386 2.448,-0.442 2.523,-0.545 2.569,-0.604 2.599,-0.678 2.61,-0.763 2.624,-0.851 2.631,-1.031 2.631,-1.304 l 0,-0.293 -0.853,0 0,0.168 c 0,0.174 -0.005,0.301 -0.019,0.378 -0.008,0.075 -0.033,0.132 -0.065,0.175 -0.029,0.035 -0.075,0.058 -0.131,0.071 -0.054,0.008 -0.173,0.014 -0.345,0.014 l -1.218,0 0,-0.806 -0.863,0 z"
             style="fill:#1a5bd3;fill-opacity:1;fill-rule:nonzero;stroke:none"
             id="path1584"
             inkscape:connector-curvature="0" />
        </g>
      </g>
    </g>
    <g
       id="g1586"
       transform="matrix(1.25,0,0,-1.25,370.63678,366.30875)"
       style="fill:#1a5bd3;fill-opacity:1">
      <path
         d="m 0,0 0.905,0 0,-2.369 2.021,0 0,-0.807 L 0,-3.176 0,0 Z"
         style="fill:#1a5bd3;fill-opacity:1;fill-rule:nonzero;stroke:none"
         id="path1588"
         inkscape:connector-curvature="0" />
    </g>
    <g
       transform="matrix(1.25,0,0,-1.25,-108.37447,796.91812)"
       id="g1590"
       style="fill:#1a5bd3;fill-opacity:1">
      <g
         id="g1592"
         clip-path="url(#clipPath1594)"
         style="fill:#1a5bd3;fill-opacity:1">
        <g
           id="g1598"
           transform="translate(387.5336,342.1179)"
           style="fill:#1a5bd3;fill-opacity:1">
          <path
             d="M 0,0 1.199,0 C 1.423,0 1.587,0.008 1.69,0.022 1.795,0.037 1.869,0.068 1.909,0.111 1.956,0.152 1.993,0.223 2.01,0.324 2.028,0.42 2.041,0.571 2.041,0.767 2.041,0.962 2.031,1.11 2.015,1.209 1.999,1.313 1.97,1.385 1.926,1.438 1.879,1.496 1.814,1.534 1.724,1.55 1.633,1.565 1.457,1.576 1.191,1.576 L 0,1.576 0,0 Z m -0.854,-0.806 0,3.175 2.045,0 C 1.555,2.369 1.793,2.364 1.906,2.358 2.015,2.35 2.132,2.334 2.258,2.305 2.54,2.242 2.727,2.061 2.812,1.764 2.842,1.656 2.862,1.536 2.877,1.409 2.886,1.281 2.889,1.083 2.889,0.826 2.889,0.543 2.884,0.329 2.87,0.184 2.859,0.035 2.835,-0.096 2.796,-0.216 2.714,-0.493 2.54,-0.669 2.275,-0.732 2.151,-0.763 2.023,-0.782 1.88,-0.794 1.742,-0.804 1.511,-0.806 1.192,-0.806 l -2.046,0 z"
             style="fill:#1a5bd3;fill-opacity:1;fill-rule:nonzero;stroke:none"
             id="path1600"
             inkscape:connector-curvature="0" />
        </g>
      </g>
    </g>
    <g
       id="g1602"
       transform="matrix(1.25,0,0,-1.25,381.66366,353.25899)">
      <path
         d="m 0,0 -0.007,0 0,0.116 0.005,0.13 -0.015,0.105 -0.025,0.093 -0.027,0.059 -0.063,0.102 -0.062,0.079 -0.055,0.042 -0.083,0.065 -0.005,-0.003 -11.809,8.273 -0.157,0.1 -0.151,0.063 -0.162,0.03 -0.146,-0.008 -0.139,-0.03 -0.156,-0.076 -0.105,-0.068 -0.372,-0.255 -11.985,-8.373 0.743,-0.766 12.113,8.29 11.603,-7.981 0,-0.012 -10e-4,-0.004 10e-4,0 0,-15.939 0.05,0 -0.053,0 0,-0.006 -23.261,0 0.001,0 0,7.357 22.071,0 0,1.07 -22.091,0 -0.472,0 -0.128,-0.026 -0.151,-0.061 -0.123,-0.105 -0.088,-0.129 -0.054,-0.119 -0.026,-0.158 -0.006,-0.168 10e-4,-0.284 0,-7.377 -10e-4,-0.122 0,-0.121 10e-4,-0.15 0.019,-0.134 0.069,-0.149 0.101,-0.126 0.118,-0.089 0.108,-0.05 0.117,-0.036 0.159,-0.011 23.642,0 0,0.007 0.359,0 0.15,0.004 0.123,0.027 0.11,0.054 0.085,0.067 0.072,0.064 0.054,0.092 0.058,0.104 0.025,0.141 0,0.171 -10e-4,0.15 -0.001,0.084 0.005,-0.006 L 0,0 Z"
         style="fill:#ef373e;fill-opacity:1;fill-rule:nonzero;stroke:none"
         id="path1604"
         inkscape:connector-curvature="0" />
    </g>
  </g>
</svg>
