<svg id="b" width="9.0025mm" height="9.2484mm" version="1.1" viewBox="0 0 31.899 32.77" xmlns="http://www.w3.org/2000/svg">
 <defs id="c">
  <clipPath id="a">
   <path id="d" d="m0 0h419.53v595.28h-419.53v-595.28z"/>
  </clipPath>
 </defs>
 <g id="e" transform="translate(-349.76 -341.69)">
  <g id="f" transform="matrix(1.25 0 0 -1.25 -108.37 796.92)" fill="#7ac476">
   <g id="g" clip-path="url(#a)" fill="#7ac476">
    <g id="h" transform="translate(368.46 354.17)">
     <path id="i" d="m0 0c0 0.237 0.053 0.405 0.157 0.514 0.107 0.107 0.273 0.159 0.503 0.159 0.232 0 0.397-0.052 0.498-0.157 0.098-0.107 0.152-0.274 0.152-0.516s-0.054-0.414-0.152-0.518c-0.101-0.104-0.266-0.156-0.498-0.156-0.23 0-0.396 0.052-0.503 0.161-0.104 0.11-0.157 0.277-0.157 0.513m0.01-4.84v2.398c0 0.204-0.02 0.34-0.056 0.397-0.035 0.061-0.112 0.095-0.23 0.102l-0.221 0.018c-0.103 8e-3 -0.153 0.063-0.153 0.157 2e-3 0.082 0.014 0.127 0.029 0.144 0.012 0.015 0.057 0.025 0.124 0.025h0.326c0.227 0 0.442 2e-3 0.646 0.01 0.2 2e-3 0.392 0.015 0.579 0.024l0.175 0.021h0.031c0.039 0 0.067-5e-3 0.077-0.022 0.016-0.018 0.024-0.047 0.024-0.092 0-7e-3 -2e-3 -0.042-9e-3 -0.092-0.027-0.397-0.042-0.828-0.042-1.281v-1.758c0-0.25 0.022-0.399 0.059-0.456 0.043-0.06 0.115-0.092 0.226-0.101l0.202-0.026c0.015-2e-3 0.036-3e-3 0.06-6e-3 0.074-7e-3 0.113-0.054 0.113-0.144 0-0.083-0.01-0.134-0.032-0.156-0.018-0.018-0.067-0.029-0.141-0.029-0.013 0-0.058 2e-3 -0.126 4e-3 -0.356 0.025-0.716 0.039-1.076 0.039-0.289 0-0.594-0.014-0.913-0.032-0.084-9e-3 -0.137-0.011-0.159-0.011-0.069 0-0.12 0.011-0.139 0.029-0.022 0.022-0.034 0.073-0.034 0.156 0 0.09 0.038 0.137 0.113 0.144 0.022 3e-3 0.043 4e-3 0.06 6e-3l0.197 0.026c0.116 0.01 0.195 0.049 0.23 0.11 0.04 0.058 0.06 0.192 0.06 0.396" fill="#7ac476"/>
    </g>
    <g id="j" transform="translate(372.73 350.48)">
     <path id="k" d="m0 0c0-0.678 0.068-1.13 0.192-1.35 0.121-0.221 0.347-0.332 0.671-0.332 0.303 0 0.528 0.121 0.664 0.357 0.138 0.236 0.209 0.625 0.209 1.157 0 0.824-0.062 1.356-0.186 1.592-0.125 0.234-0.351 0.349-0.687 0.349-0.32 0-0.545-0.116-0.67-0.35-0.125-0.237-0.193-0.71-0.193-1.423m1.78-1.575c-0.172-0.185-0.368-0.321-0.589-0.408-0.219-0.087-0.478-0.13-0.777-0.13-0.61 0-1.062 0.174-1.356 0.531-0.295 0.352-0.444 0.892-0.444 1.618 0 0.741 0.154 1.291 0.456 1.645 0.309 0.351 0.784 0.529 1.43 0.529 0.287 0 0.523-0.034 0.715-0.105 0.19-0.07 0.363-0.181 0.521-0.337v1.915c0 0.212-0.019 0.346-0.056 0.398-0.041 0.051-0.115 0.079-0.222 0.09l-0.228 7e-3c-0.07 3e-3 -0.117 0.011-0.127 0.028-0.017 0.015-0.023 0.064-0.026 0.142 0 0.068 7e-3 0.113 0.026 0.131 0.015 0.012 0.061 0.026 0.136 0.026h0.326c0.178 0 0.362 2e-3 0.56 7e-3 0.199 8e-3 0.415 0.022 0.653 0.042l0.182 9e-3h0.038c0.038 0 0.065-9e-3 0.075-0.024 0.016-0.017 0.024-0.049 0.024-0.094 0-0.01-4e-3 -0.053-0.01-0.121-0.026-0.403-0.043-0.82-0.043-1.245v-4.229c0-0.229 0.02-0.37 0.059-0.419 0.041-0.05 0.109-0.078 0.217-0.084l0.231-0.018c0.101-6e-3 0.154-0.058 0.154-0.158-2e-3 -0.08-0.015-0.127-0.031-0.141-0.016-0.017-0.058-0.026-0.123-0.026h-0.244c-0.23 0-0.442-1e-3 -0.641-9e-3 -0.2-8e-3 -0.392-0.015-0.581-0.027l-0.177-8e-3h-0.041c-0.033 0-0.053 6e-3 -0.067 0.014-0.012 0.012-0.02 0.033-0.02 0.063v0.388z" fill="#7ac476"/>
    </g>
    <g id="l" transform="translate(378.62 350.83)">
     <path id="m" d="m0 0h1.417v0.5c0 0.36-0.055 0.616-0.167 0.774-0.111 0.157-0.293 0.235-0.54 0.235-0.259 0-0.44-0.076-0.55-0.226-0.107-0.15-0.16-0.403-0.16-0.761v-0.522zm0-0.363c-3e-3 -0.045-6e-3 -0.09-7e-3 -0.137-2e-3 -0.051-3e-3 -0.116-3e-3 -0.207 0-0.512 0.066-0.872 0.199-1.083 0.132-0.212 0.355-0.316 0.668-0.316 0.222 0 0.399 0.052 0.539 0.163 0.143 0.107 0.24 0.269 0.307 0.492 0.011 0.028 0.021 0.062 0.029 0.107 0.036 0.148 0.12 0.226 0.252 0.226h0.326c0.083 0 0.137-0.014 0.164-0.04 0.025-0.022 0.035-0.085 0.035-0.178 0-0.371-0.152-0.655-0.463-0.842-0.309-0.189-0.772-0.282-1.387-0.282-0.733 0-1.257 0.164-1.58 0.485-0.315 0.323-0.473 0.857-0.473 1.593 0 0.808 0.161 1.383 0.492 1.726 0.331 0.344 0.884 0.519 1.659 0.519 0.695 0 1.188-0.15 1.482-0.454 0.291-0.298 0.441-0.808 0.441-1.536 0-0.094-0.013-0.163-0.042-0.192-0.023-0.028-0.075-0.044-0.157-0.044h-2.481z" fill="#7ac476"/>
    </g>
    <g id="n" transform="translate(385 350.49)">
     <path id="o" d="m0 0h-0.479c-0.269 0-0.472-0.075-0.611-0.214-0.139-0.144-0.209-0.359-0.209-0.644 0-0.243 0.049-0.424 0.151-0.545 0.098-0.122 0.246-0.182 0.443-0.182 0.24 0 0.416 0.063 0.533 0.192 0.116 0.13 0.172 0.33 0.172 0.603v0.79zm0.057-1.648c-0.236-0.166-0.467-0.285-0.693-0.364-0.227-0.077-0.465-0.116-0.71-0.116-0.433 0-0.756 0.102-0.984 0.309-0.224 0.208-0.338 0.505-0.338 0.897 0 0.429 0.138 0.743 0.416 0.946 0.277 0.201 0.709 0.299 1.301 0.299h0.951v0.919c0 0.217-0.052 0.373-0.155 0.471-0.102 0.099-0.272 0.147-0.503 0.147-0.214 0-0.365-0.046-0.455-0.144-0.093-0.094-0.146-0.268-0.165-0.519-0.011-0.152-0.054-0.25-0.125-0.293-0.068-0.044-0.195-0.068-0.381-0.068-0.181 0-0.308 0.024-0.386 0.07-0.075 0.049-0.113 0.128-0.113 0.239 0 0.352 0.144 0.614 0.442 0.789 0.292 0.175 0.729 0.262 1.315 0.262 0.663 0 1.132-0.107 1.41-0.323 0.281-0.211 0.419-0.57 0.419-1.083v-1.927c0-0.229 0.018-0.372 0.05-0.432 0.038-0.059 0.113-0.089 0.22-0.098l0.235-0.018c0.101-7e-3 0.153-0.06 0.153-0.165 0-0.07-8e-3 -0.114-0.026-0.135-0.016-0.025-0.049-0.035-0.099-0.035h-0.037l-0.236 0.01h-0.433c-0.217 0-0.432-7e-3 -0.636-0.023-0.036-1e-3 -0.057-3e-3 -0.063-3e-3l-0.167-0.017h-0.025c-0.027 0-0.048 4e-3 -0.061 0.012-0.012 0.013-0.025 0.036-0.036 0.071l-0.085 0.322z" fill="#7ac476"/>
    </g>
    <g id="p" transform="translate(388.32 349.33)">
     <path id="q" d="m0 0v4.817c0 0.216-0.02 0.347-0.056 0.404-0.036 0.056-0.116 0.089-0.232 0.101l-0.219 8e-3c-0.07 2e-3 -0.11 0.012-0.127 0.026-0.014 0.015-0.025 0.064-0.029 0.142 4e-3 0.073 0.015 0.119 0.028 0.135 0.014 0.011 0.057 0.024 0.128 0.024h0.324c0.183 0 0.375 3e-3 0.575 6e-3 0.198 9e-3 0.419 0.022 0.652 0.043l0.171 8e-3h0.037c0.037 0 0.063-8e-3 0.076-0.024s0.02-0.048 0.02-0.094c0-6e-3 -3e-3 -0.033-0.012-0.09-0.022-0.399-0.035-0.826-0.035-1.279v-4.227c0-0.203 0.018-0.335 0.056-0.393 0.039-0.062 0.118-0.1 0.23-0.111l0.201-0.025c0.014-3e-3 0.033-4e-3 0.061-6e-3 0.072-8e-3 0.11-0.055 0.11-0.145 0-0.082-0.011-0.134-0.031-0.156-0.021-0.017-0.067-0.029-0.14-0.029-0.016 0-0.06 2e-3 -0.126 5e-3 -0.358 0.024-0.717 0.039-1.078 0.039-0.289 0-0.593-0.015-0.914-0.032-0.08-0.01-0.134-0.012-0.157-0.012-0.07 0-0.118 0.012-0.142 0.029-0.02 0.022-0.034 0.074-0.034 0.156 0 0.09 0.039 0.137 0.113 0.145 0.024 2e-3 0.047 3e-3 0.063 6e-3l0.199 0.025c0.114 0.011 0.189 0.046 0.229 0.104 0.039 0.059 0.059 0.19 0.059 0.4" fill="#7ac476"/>
    </g>
   </g>
  </g>
  <path id="r" d="m381.66 353.26h-9e-3v-0.145l6e-3 -0.1625-0.0188-0.13125-0.0312-0.11625-0.0337-0.0737-0.0788-0.1275-0.0775-0.0987-0.0687-0.0525-0.10375-0.0813-6e-3 4e-3 -14.761-10.341-0.19625-0.125-0.18875-0.0788-0.2025-0.0375-0.1825 0.01-0.17375 0.0375-0.195 0.095-0.13125 0.085-0.465 0.31875-14.981 10.466 0.92875 0.9575 15.141-10.362 14.504 9.9762v0.015l-1e-3 5e-3h1e-3v19.924h0.0625-0.0663v7e-3h-29.076 1e-3v-9.1962h27.589v-1.3375h-28.204l-0.16 0.0325-0.18875 0.0763-0.15375 0.13125-0.11 0.16125-0.0675 0.14875-0.0325 0.1975-7e-3 0.21 1e-3 0.355v9.2212l-1e-3 0.1525v0.15125l1e-3 0.1875 0.0238 0.1675 0.0863 0.18625 0.12625 0.1575 0.1475 0.11125 0.135 0.0625 0.14625 0.045 0.19875 0.0138h29.552v-9e-3h0.44875l0.1875-5e-3 0.15375-0.0337 0.1375-0.0675 0.10625-0.0838 0.09-0.08 0.0675-0.115 0.0725-0.13 0.0312-0.17625v-0.21375l-1e-3 -0.1875-1e-3 -0.105 6e-3 7e-3 0.0225-20.004z" fill="#ef373e"/>
  <g id="s" transform="matrix(.11126 0 0 .11126 351.37 365.28)" fill="#fff">
   <path id="t" d="m46.79 6.5h15.66l11.46 14.49 11.47-14.49h15.88l-17.94 20.44 18.87 20.85h-16.35l-11.93-14.799-12.406 14.799h-16.234l19.06-20.85z"/>
   <path id="u" d="m2.7504 6.5h41.759v9.84h-30.22l0.1 5.9496h28.4v9.06h-28.45l-0.01 6.38h30.18v10.06h-41.759z"/>
   <path id="v" d="m101.76 6.5h45.6v10.73h-16.79v30.559h-11.99v-30.559h-16.82z"/>
   <path id="w" d="m149.8 6.61 38.16-0.11c3.7553-0.010825 7.3845 2.5911 8.12 6.3 0.89453 4.5111 0.86093 9.2285 0.1 13.75-0.44908 2.6685-2.84 4.12-5.03 5.25 1.9 0.95 4.229 1.7943 4.68 4.24 0.71054 3.8528 0.49 8.2791 0.49 11.75h-12v-8.7096c0-1.2795-1.8071-1.6496-3.2-1.6496h-19.73v10.359h-11.63l0.04-41.29m11.59 20.32h22.93c3.1828 0 3.1752-10.08 0-10.08h-22.93z"/>
   <path id="x" d="m197.11 47.75 19.66-41.25h18.11l19.37 41.29h-13.28l-3.25-7.0896h-24.22l-3.33 7.0896h-13.06m27.54-31.55-7.35 15.35h16.67l-7.28-15.35c-0.29138-0.61441-1.7463-0.61332-2.04 0z"/>
  </g>
 </g>
</svg>
