<svg height="9.248423mm" viewBox="0 0 31.898749 32.770001" width="9.002536mm" xmlns="http://www.w3.org/2000/svg" xmlns:xlink="http://www.w3.org/1999/xlink"><clipPath id="a"><path d="m0 0h419.528v595.275h-419.528z"/></clipPath><g transform="translate(-349.76491 -341.69149)"><g clip-path="url(#a)" fill="#13923b" transform="matrix(1.25 0 0 -1.25 -108.37447 796.91812)"><g transform="translate(368.4578 354.17)"><path d="m0 0c0 .237.053.405.157.514.107.107.273.159.503.159.232 0 .397-.052.498-.157.098-.107.152-.274.152-.516s-.054-.414-.152-.518c-.101-.104-.266-.156-.498-.156-.23 0-.396.052-.503.161-.104.11-.157.277-.157.513m.01-4.84v2.398c0 .204-.02.34-.056.397-.035.061-.112.095-.23.102l-.221.018c-.103.008-.153.063-.153.157.002.082.014.127.029.144.012.015.057.025.124.025h.326c.227 0 .442.002.646.01.2.002.392.015.579.024l.175.021h.031c.039 0 .067-.005.077-.022.016-.018.024-.047.024-.092 0-.007-.002-.042-.009-.092-.027-.397-.042-.828-.042-1.281v-1.758c0-.25.022-.399.059-.456.043-.06.115-.092.226-.101l.202-.026c.015-.002.036-.003.06-.006.074-.007.113-.054.113-.144 0-.083-.01-.134-.032-.156-.018-.018-.067-.029-.141-.029-.013 0-.058.002-.126.004-.356.025-.716.039-1.076.039-.289 0-.594-.014-.913-.032-.084-.009-.137-.011-.159-.011-.069 0-.12.011-.139.029-.022.022-.034.073-.034.156 0 .09.038.137.113.144.022.003.043.004.06.006l.197.026c.116.01.195.049.23.11.04.058.06.192.06.396" fill="#13923b"/></g><g transform="translate(372.7264 350.479)"><path d="m0 0c0-.678.068-1.13.192-1.35.121-.221.347-.332.671-.332.303 0 .528.121.664.357.138.236.209.625.209 1.157 0 .824-.062 1.356-.186 1.592-.125.234-.351.349-.687.349-.32 0-.545-.116-.67-.35-.125-.237-.193-.71-.193-1.423m1.78-1.575c-.172-.185-.368-.321-.589-.408-.219-.087-.478-.13-.777-.13-.61 0-1.062.174-1.356.531-.295.352-.444.892-.444 1.618 0 .741.154 1.291.456 1.645.309.351.784.529 1.43.529.287 0 .523-.034.715-.105.19-.07.363-.181.521-.337v1.915c0 .212-.019.346-.056.398-.041.051-.115.079-.222.09l-.228.007c-.07.003-.117.011-.127.028-.017.015-.023.064-.026.142 0 .068.007.113.026.131.015.012.061.026.136.026h.326c.178 0 .362.002.56.007.199.008.415.022.653.042l.182.009h.038c.038 0 .065-.009.075-.024.016-.017.024-.049.024-.094 0-.01-.004-.053-.01-.121-.026-.403-.043-.82-.043-1.245v-4.229c0-.229.02-.37.059-.419.041-.05.109-.078.217-.084l.231-.018c.101-.006.154-.058.154-.158-.002-.08-.015-.127-.031-.141-.016-.017-.058-.026-.123-.026h-.244c-.23 0-.442-.001-.641-.009-.2-.008-.392-.015-.581-.027l-.177-.008h-.041c-.033 0-.053.006-.067.014-.012.012-.02.033-.02.063z" fill="#13923b"/></g><g transform="translate(378.6193 350.8255)"><path d="m0 0h1.417v.5c0 .36-.055.616-.167.774-.111.157-.293.235-.54.235-.259 0-.44-.076-.55-.226-.107-.15-.16-.403-.16-.761zm0-.363c-.003-.045-.006-.09-.007-.137-.002-.051-.003-.116-.003-.207 0-.512.066-.872.199-1.083.132-.212.355-.316.668-.316.222 0 .399.052.539.163.143.107.24.269.307.492.011.028.021.062.029.107.036.148.12.226.252.226h.326c.083 0 .137-.014.164-.04.025-.022.035-.085.035-.178 0-.371-.152-.655-.463-.842-.309-.189-.772-.282-1.387-.282-.733 0-1.257.164-1.58.485-.315.323-.473.857-.473 1.593 0 .808.161 1.383.492 1.726.331.344.884.519 1.659.519.695 0 1.188-.15 1.482-.454.291-.298.441-.808.441-1.536 0-.094-.013-.163-.042-.192-.023-.028-.075-.044-.157-.044z" fill="#13923b"/></g><g transform="translate(384.9991 350.4933)"><path d="m0 0h-.479c-.269 0-.472-.075-.611-.214-.139-.144-.209-.359-.209-.644 0-.243.049-.424.151-.545.098-.122.246-.182.443-.182.24 0 .416.063.533.192.116.13.172.33.172.603zm.057-1.648c-.236-.166-.467-.285-.693-.364-.227-.077-.465-.116-.71-.116-.433 0-.756.102-.984.309-.224.208-.338.505-.338.897 0 .429.138.743.416.946.277.201.709.299 1.301.299h.951v.919c0 .217-.052.373-.155.471-.102.099-.272.147-.503.147-.214 0-.365-.046-.455-.144-.093-.094-.146-.268-.165-.519-.011-.152-.054-.25-.125-.293-.068-.044-.195-.068-.381-.068-.181 0-.308.024-.386.07-.075.049-.113.128-.113.239 0 .352.144.614.442.789.292.175.729.262 1.315.262.663 0 1.132-.107 1.41-.323.281-.211.419-.57.419-1.083v-1.927c0-.229.018-.372.05-.432.038-.059.113-.089.22-.098l.235-.018c.101-.007.153-.06.153-.165 0-.07-.008-.114-.026-.135-.016-.025-.049-.035-.099-.035h-.037l-.236.01h-.433c-.217 0-.432-.007-.636-.023-.036-.001-.057-.003-.063-.003l-.167-.017h-.025c-.027 0-.048.004-.061.012-.012.013-.025.036-.036.071z" fill="#13923b"/></g><g transform="translate(388.3223 349.3275)"><path d="m0 0v4.817c0 .216-.02.347-.056.404-.036.056-.116.089-.232.101l-.219.008c-.07.002-.11.012-.127.026-.014.015-.025.064-.029.142.004.073.015.119.028.135.014.011.057.024.128.024h.324c.183 0 .375.003.575.006.198.009.419.022.652.043l.171.008h.037c.037 0 .063-.008.076-.024s.02-.048.02-.094c0-.006-.003-.033-.012-.09-.022-.399-.035-.826-.035-1.279v-4.227c0-.203.018-.335.056-.393.039-.062.118-.1.23-.111l.201-.025c.014-.003.033-.004.061-.006.072-.008.11-.055.11-.145 0-.082-.011-.134-.031-.156-.021-.017-.067-.029-.14-.029-.016 0-.06.002-.126.005-.358.024-.717.039-1.078.039-.289 0-.593-.015-.914-.032-.08-.01-.134-.012-.157-.012-.07 0-.118.012-.142.029-.02.022-.034.074-.034.156 0 .09.039.137.113.145.024.002.047.003.063.006l.199.025c.114.011.189.046.229.104.039.059.059.19.059.4" fill="#13923b"/></g></g><path d="m381.66366 353.25899h-.009v-.145l.006-.1625-.0188-.13125-.0312-.11625-.0337-.0737-.0788-.1275-.0775-.0987-.0687-.0525-.10375-.0813-.006.004-14.76125-10.34125-.19625-.125-.18875-.0788-.2025-.0375-.1825.01-.17375.0375-.195.095-.13125.085-.465.31875-14.98125 10.46625.92875.9575 15.14125-10.3625 14.50375 9.97625v.015l-.001.005h.001v19.92375h.0625-.0663v.007h-29.07625.001v-9.19625h27.58875v-1.3375h-27.61375-.59l-.16.0325-.18875.0763-.15375.13125-.11.16125-.0675.14875-.0325.1975-.007.21.001.355v9.22125l-.001.1525v.15125l.001.1875.0238.1675.0863.18625.12625.1575.1475.11125.135.0625.14625.045.19875.0138h29.5525v-.009h.44875l.1875-.005.15375-.0337.1375-.0675.10625-.0838.09-.08.0675-.115.0725-.13.0312-.17625v-.21375l-.001-.1875-.001-.105.006.007.0225-20.00375z" fill="#ef373e"/><g fill="#1a5bd3" transform="matrix(.11126279 0 0 .11126279 351.36789 365.27829)"><path d="m46.79 6.5h15.66l11.4596 14.49 11.4704-14.49h15.88l-17.94 20.44 18.87 20.8496h-16.35l-11.9304-14.7992-12.4056 14.7992h-16.234l19.06-20.8496z"/><path d="m2.7504 6.5h41.7592v9.84h-30.2196l.1 5.9496h28.3996v9.06h-28.4496l-.01 6.38h30.1796v10.06h-41.7592z"/><path d="m101.76 6.5h45.6v10.7304h-16.7896v30.5592h-11.9904v-30.5592h-16.82z"/><path d="m149.8 6.61 38.16-.11c3.75531-.010825 7.38453 2.5910799 8.12 6.3.89453 4.511087.86093 9.228464.1 13.75-.44908 2.668488-2.84 4.12-5.03 5.25 1.9.95 4.22896 1.794277 4.68 4.24.71054 3.852847.49 8.27913.49 11.7496h-12v-8.7096c0-1.279453-1.80709-1.6496-3.2-1.6496h-19.7296v10.3592h-11.6304l.04-41.2896m11.5904 20.32h22.9296c3.18284 0 3.17515-10.08 0-10.08h-22.9296z"/><path d="m197.11 47.75 19.66-41.25h18.11l19.37 41.2896h-13.28l-3.25-7.0896h-24.22l-3.33 7.0896h-13.06m27.54-31.5496-7.35 15.3504h16.67l-7.28-15.3504c-.29138-.614406-1.74633-.613319-2.04 0z"/></g></g></svg>