<?xml version="1.0" encoding="UTF-8" standalone="no"?>
<svg
   xmlns:dc="http://purl.org/dc/elements/1.1/"
   xmlns:cc="http://creativecommons.org/ns#"
   xmlns:rdf="http://www.w3.org/1999/02/22-rdf-syntax-ns#"
   xmlns:svg="http://www.w3.org/2000/svg"
   xmlns="http://www.w3.org/2000/svg"
   xmlns:sodipodi="http://sodipodi.sourceforge.net/DTD/sodipodi-0.dtd"
   xmlns:inkscape="http://www.inkscape.org/namespaces/inkscape"
   width="1958pt"
   height="636pt"
   viewBox="0 0 1958 636"
   version="1.1"
   id="svg2"
   inkscape:version="0.91 r13725"
   sodipodi:docname="Inspiration TV - Dark.svg">
  <metadata
     id="metadata39">
    <rdf:RDF>
      <cc:Work
         rdf:about="">
        <dc:format>image/svg+xml</dc:format>
        <dc:type
           rdf:resource="http://purl.org/dc/dcmitype/StillImage" />
        <dc:title></dc:title>
      </cc:Work>
    </rdf:RDF>
  </metadata>
  <defs
     id="defs37" />
  <sodipodi:namedview
     pagecolor="#ffffff"
     bordercolor="#666666"
     borderopacity="1"
     objecttolerance="10"
     gridtolerance="10"
     guidetolerance="10"
     inkscape:pageopacity="0"
     inkscape:pageshadow="2"
     inkscape:window-width="1920"
     inkscape:window-height="1017"
     id="namedview35"
     showgrid="false"
     inkscape:zoom="0.47068437"
     inkscape:cx="1312.5722"
     inkscape:cy="378.44808"
     inkscape:window-x="-8"
     inkscape:window-y="-8"
     inkscape:window-maximized="1"
     inkscape:current-layer="svg2" />
  <g
     id="#ffffffff" />
  <g
     id="#0168b3ff">
    <path
       fill="#0168b3"
       opacity="1.00"
       d=" M 305.35 0.00 L 330.66 0.00 C 367.36 1.65 403.83 9.22 437.86 23.14 C 506.25 50.72 564.24 103.01 598.89 168.10 C 618.28 204.24 630.49 244.21 634.65 285.01 C 639.34 330.85 634.26 377.73 619.27 421.33 C 597.91 484.13 556.15 539.70 501.98 577.94 C 471.76 599.38 437.74 615.46 401.99 625.19 C 380.03 631.22 357.40 634.62 334.68 636.00 L 301.34 636.00 C 260.63 633.69 220.30 623.90 183.38 606.53 C 120.48 577.27 67.79 526.78 35.80 465.23 C 14.04 423.76 1.99 377.41 0.00 330.65 L 0.00 305.36 C 0.61 296.52 1.09 287.66 2.26 278.87 C 9.07 222.30 31.69 167.77 66.74 122.86 C 99.43 80.71 142.89 47.00 191.86 25.85 C 227.67 10.29 266.38 1.76 305.35 0.00 M 308.55 43.79 C 240.46 49.76 175.08 81.46 128.05 131.03 C 102.30 157.89 81.84 189.83 68.30 224.49 C 42.18 290.66 42.15 366.66 68.24 432.85 C 84.63 474.96 111.29 513.00 145.10 542.95 C 173.28 567.95 206.41 587.35 242.06 599.55 C 284.88 614.25 331.23 618.53 376.02 611.98 C 415.35 606.35 453.42 592.29 487.02 571.11 C 517.36 552.03 544.04 527.19 565.31 498.35 C 590.07 464.86 607.36 425.87 615.47 385.01 C 624.68 339.03 622.42 290.79 608.82 245.91 C 587.34 173.92 536.01 111.59 469.70 76.36 C 420.73 49.99 363.90 38.62 308.55 43.79 Z"
       id="path6" />
  </g>
  <g
     id="#0a0905ff">
    <path
       fill="#0a0905"
       opacity="1.00"
       d=" M 1637.09 242.21 C 1682.12 242.27 1727.16 242.29 1772.20 242.20 C 1773.17 255.18 1773.41 268.22 1774.25 281.21 C 1772.65 281.25 1771.07 281.29 1769.51 281.35 C 1768.18 275.23 1767.68 268.55 1763.69 263.42 C 1759.41 256.91 1751.70 253.52 1744.11 253.06 C 1734.75 252.40 1725.36 252.91 1716.00 252.75 C 1716.00 295.52 1716.00 338.29 1716.00 381.05 C 1716.18 385.76 1716.31 390.57 1717.80 395.09 C 1718.77 398.44 1721.91 400.58 1725.05 401.72 C 1729.56 403.53 1734.50 402.90 1739.25 403.00 C 1739.23 404.66 1739.22 406.33 1739.24 408.00 C 1715.83 408.00 1692.41 408.00 1669.00 408.00 C 1668.98 406.32 1668.98 404.65 1669.00 402.99 C 1675.23 403.05 1682.33 403.70 1687.38 399.27 C 1691.95 395.65 1691.82 389.24 1692.24 383.96 C 1692.26 340.23 1692.25 296.49 1692.24 252.75 C 1681.54 252.93 1670.78 252.20 1660.14 253.60 C 1653.24 254.40 1647.57 259.35 1644.27 265.23 C 1641.49 270.10 1640.56 275.73 1639.93 281.23 C 1638.35 281.25 1636.79 281.28 1635.25 281.32 C 1635.58 268.28 1636.53 255.25 1637.09 242.21 Z"
       id="path9" />
    <path
       fill="#0a0905"
       opacity="1.00"
       d=" M 1782.27 242.24 C 1804.90 242.24 1827.53 242.30 1850.16 242.21 C 1850.19 243.78 1850.22 245.36 1850.27 246.94 C 1844.20 247.89 1836.30 247.81 1832.83 253.84 C 1830.39 259.88 1833.58 266.33 1835.53 272.08 C 1848.39 302.23 1861.60 332.24 1874.57 362.35 C 1876.29 365.96 1877.46 369.84 1879.61 373.24 C 1891.97 342.50 1904.60 311.87 1917.09 281.18 C 1919.79 274.30 1922.91 267.45 1923.98 260.08 C 1924.76 256.22 1922.07 252.81 1919.06 250.77 C 1915.31 248.37 1910.81 247.72 1906.52 246.96 C 1906.48 245.39 1906.47 243.82 1906.48 242.25 C 1923.43 242.32 1940.39 242.09 1957.34 242.37 C 1957.23 243.93 1957.15 245.50 1957.09 247.07 C 1952.42 248.14 1947.52 249.53 1944.07 253.03 C 1938.18 258.70 1934.81 266.34 1931.81 273.81 C 1913.02 319.78 1894.05 365.68 1875.35 411.69 C 1873.71 411.71 1872.09 411.72 1870.50 411.71 C 1849.74 363.44 1828.69 315.29 1807.77 267.08 C 1805.16 261.92 1803.36 255.93 1798.56 252.30 C 1793.98 248.52 1787.91 247.53 1782.20 246.86 C 1782.20 245.31 1782.23 243.78 1782.27 242.24 Z"
       id="path11" />
    <path
       fill="#0a0905"
       opacity="1.00"
       d=" M 97.75 245.00 C 120.25 245.01 142.75 245.00 165.24 245.00 C 165.25 246.49 165.26 247.98 165.27 249.48 C 159.42 249.49 152.85 249.13 147.97 252.96 C 143.08 256.68 143.21 263.47 142.78 269.00 C 142.72 307.33 142.75 345.67 142.76 384.00 C 143.22 389.04 142.65 395.33 147.19 398.75 C 152.22 402.91 159.02 403.28 165.25 403.00 C 165.25 404.49 165.25 405.99 165.26 407.49 C 142.75 407.50 120.25 407.50 97.75 407.49 C 97.75 405.99 97.75 404.49 97.75 403.00 C 104.56 403.21 112.73 403.16 117.32 397.23 C 120.30 392.06 119.78 385.77 120.22 380.03 C 120.28 349.71 120.23 319.38 120.25 289.06 C 120.13 279.39 120.68 269.65 119.33 260.04 C 118.87 256.36 116.16 253.39 112.86 251.91 C 108.24 249.39 102.85 249.41 97.74 249.48 C 97.74 247.98 97.75 246.49 97.75 245.00 Z"
       id="path13" />
    <path
       fill="#0a0905"
       opacity="1.00"
       d=" M 386.27 287.30 C 391.79 278.86 400.83 272.76 410.83 271.20 C 421.41 269.18 432.33 271.66 441.93 276.20 C 444.69 277.33 447.82 279.07 450.81 277.75 C 453.65 276.50 454.14 273.14 454.89 270.49 C 456.19 270.52 457.50 270.56 458.81 270.60 C 458.68 286.05 458.76 301.51 458.77 316.97 C 457.46 316.98 456.15 316.99 454.85 317.01 C 453.52 307.81 451.39 298.12 445.19 290.87 C 437.64 282.06 425.44 277.10 413.90 279.16 C 404.59 280.95 396.41 289.28 396.25 299.00 C 396.18 305.15 400.00 310.54 404.60 314.28 C 419.43 326.49 437.77 333.34 453.01 344.96 C 458.82 349.54 463.50 355.72 465.64 362.86 C 468.77 372.90 467.32 384.35 461.38 393.08 C 456.65 399.99 449.80 405.51 441.85 408.24 C 433.90 410.94 425.30 411.23 417.05 410.02 C 408.12 408.63 399.97 404.01 390.96 403.08 C 387.07 403.41 386.36 407.74 385.77 410.81 C 384.52 410.78 383.28 410.77 382.04 410.76 C 381.95 395.34 382.04 379.91 381.99 364.49 C 383.31 364.50 384.63 364.53 385.95 364.55 C 387.57 374.27 389.92 384.67 397.08 391.92 C 406.54 401.03 420.87 404.99 433.59 401.48 C 440.16 399.70 445.85 394.87 448.47 388.56 C 450.98 382.85 450.22 376.15 447.17 370.80 C 443.39 363.70 436.24 359.49 429.57 355.52 C 418.64 348.80 407.17 342.91 396.89 335.18 C 390.67 330.55 385.25 324.47 382.65 317.06 C 379.34 307.29 380.47 295.92 386.27 287.30 Z"
       id="path15" />
    <path
       fill="#0a0905"
       opacity="1.00"
       d=" M 952.14 270.57 C 953.39 270.55 954.66 270.56 955.94 270.57 C 971.00 308.24 986.37 345.79 1001.58 383.40 C 1004.08 388.95 1006.41 394.88 1010.84 399.21 C 1014.15 402.40 1018.81 403.10 1023.14 403.88 C 1023.18 404.78 1023.28 406.59 1023.32 407.49 C 1006.12 407.51 988.92 407.50 971.72 407.49 C 971.75 406.57 971.79 404.73 971.81 403.81 C 976.61 403.33 983.42 402.83 984.83 397.15 C 985.45 391.82 982.85 386.76 981.11 381.86 C 978.43 375.50 976.04 369.02 973.25 362.71 C 956.75 362.74 940.24 362.85 923.73 362.65 C 920.72 368.81 918.39 375.26 915.64 381.53 C 913.74 386.47 911.06 391.54 911.59 396.97 C 913.63 403.08 921.16 403.10 926.47 403.74 C 926.48 404.68 926.50 406.56 926.51 407.50 C 912.84 407.50 899.17 407.50 885.51 407.50 C 885.50 406.56 885.49 404.68 885.48 403.74 C 889.45 402.76 894.06 402.20 896.86 398.87 C 901.39 393.34 904.16 386.65 906.91 380.12 C 921.97 343.60 937.19 307.13 952.14 270.57 M 948.71 302.00 C 941.42 319.78 933.84 337.45 926.57 355.24 C 941.22 355.25 955.86 355.26 970.50 355.24 C 963.27 337.48 956.33 319.58 948.71 302.00 Z"
       id="path17" />
    <path
       fill="#0a0905"
       opacity="1.00"
       d=" M 1327.08 271.14 C 1340.44 269.21 1354.55 271.56 1366.08 278.72 C 1379.69 287.20 1390.38 300.50 1395.17 315.85 C 1399.93 331.46 1399.83 348.52 1395.23 364.15 C 1389.46 383.01 1375.20 399.48 1356.73 406.76 C 1338.42 413.61 1316.61 411.65 1300.43 400.41 C 1285.88 390.42 1275.87 374.35 1272.92 356.98 C 1269.92 339.63 1271.13 320.95 1279.42 305.15 C 1288.91 287.32 1306.78 273.57 1327.08 271.14 M 1326.56 278.76 C 1319.51 280.15 1313.02 283.98 1308.29 289.38 C 1301.24 297.28 1297.45 307.52 1295.49 317.79 C 1293.37 329.43 1293.13 341.35 1294.23 353.11 C 1295.40 364.73 1298.27 376.49 1304.68 386.41 C 1308.60 392.66 1314.19 398.06 1321.10 400.86 C 1334.39 406.14 1350.75 403.06 1360.85 392.80 C 1368.44 385.81 1372.41 375.85 1374.38 365.91 C 1376.79 353.41 1376.94 340.56 1375.77 327.91 C 1374.86 318.64 1373.03 309.33 1369.09 300.82 C 1365.68 293.47 1360.52 286.67 1353.37 282.63 C 1345.31 278.10 1335.56 277.04 1326.56 278.76 Z"
       id="path19" />
    <path
       fill="#0a0905"
       opacity="1.00"
       d=" M 1036.24 273.57 C 1071.65 273.41 1107.06 273.54 1142.47 273.51 C 1142.73 284.11 1143.68 294.71 1143.69 305.32 C 1142.41 305.27 1141.17 305.23 1139.93 305.19 C 1139.26 298.98 1137.92 292.30 1133.09 287.90 C 1127.93 282.51 1119.93 282.04 1112.92 282.24 C 1108.03 282.26 1103.13 282.24 1098.24 282.26 C 1098.26 313.50 1098.24 344.74 1098.25 375.98 C 1098.35 382.33 1097.85 388.76 1099.03 395.05 C 1099.40 397.44 1100.49 399.84 1102.59 401.20 C 1106.63 404.01 1111.78 403.78 1116.48 403.75 C 1116.48 404.69 1116.50 406.56 1116.51 407.50 C 1098.09 407.50 1079.67 407.49 1061.25 407.50 C 1061.25 406.56 1061.26 404.69 1061.27 403.75 C 1066.12 403.78 1071.65 404.10 1075.62 400.75 C 1079.14 397.96 1079.21 393.09 1079.48 389.00 C 1079.58 353.46 1079.37 317.92 1079.58 282.38 C 1070.42 282.40 1061.07 281.47 1052.04 283.40 C 1043.03 286.44 1039.15 296.49 1038.64 305.26 C 1037.70 305.26 1035.80 305.25 1034.86 305.25 C 1035.27 294.69 1035.96 284.13 1036.24 273.57 Z"
       id="path21" />
    <path
       fill="#0a0905"
       opacity="1.00"
       d=" M 199.15 273.61 C 210.81 273.38 222.49 273.52 234.15 273.54 L 234.79 273.80 C 254.62 298.78 274.36 323.85 294.13 348.88 C 300.75 357.00 306.90 365.50 313.78 373.39 C 313.67 347.59 313.82 321.80 313.71 296.00 C 313.37 291.27 313.69 286.10 311.18 281.88 C 307.42 277.11 300.74 277.32 295.25 277.54 C 295.27 276.15 295.33 274.76 295.43 273.38 C 310.48 273.59 325.55 273.55 340.60 273.40 C 340.67 274.77 340.72 276.15 340.77 277.52 C 335.71 277.42 329.77 277.03 325.89 280.93 C 323.50 282.92 323.02 286.16 322.68 289.07 C 321.93 296.02 322.36 303.02 322.25 310.00 C 322.16 343.28 322.44 376.57 322.11 409.85 C 320.88 409.78 319.65 409.71 318.42 409.65 C 291.32 375.13 263.86 340.88 236.65 306.44 C 235.69 305.18 234.72 303.91 233.45 302.95 C 233.55 330.96 233.49 358.97 233.49 386.98 C 233.63 391.29 233.59 396.08 236.15 399.76 C 240.03 404.06 246.35 403.84 251.66 403.72 C 251.73 404.94 251.79 406.16 251.86 407.38 C 236.74 407.65 221.61 407.42 206.49 407.50 C 206.50 406.56 206.51 404.69 206.52 403.75 C 211.56 403.81 217.36 404.03 221.27 400.27 C 224.73 396.81 224.34 391.48 224.72 386.97 C 224.77 355.09 224.75 323.22 224.74 291.35 C 221.01 287.12 217.48 282.31 212.11 280.08 C 208.15 278.09 203.71 277.34 199.31 277.48 C 199.25 276.19 199.20 274.90 199.15 273.61 Z"
       id="path23" />
    <path
       fill="#0a0905"
       opacity="1.00"
       d=" M 506.16 273.61 C 517.12 273.36 528.08 273.57 539.05 273.50 C 551.74 273.58 564.64 272.94 577.08 275.95 C 587.59 278.42 596.80 285.70 601.77 295.25 C 609.24 311.08 604.45 332.72 588.95 341.93 C 575.16 350.08 558.22 348.21 543.22 345.04 C 543.32 358.70 543.15 372.36 543.31 386.02 C 543.68 390.42 543.40 395.25 545.81 399.15 C 549.60 404.06 556.39 403.88 561.99 403.75 C 561.99 404.69 562.00 406.56 562.01 407.49 C 543.42 407.51 524.83 407.48 506.24 407.51 C 506.25 406.57 506.28 404.68 506.29 403.74 C 511.17 403.79 516.74 404.10 520.68 400.69 C 524.70 397.37 524.35 391.71 524.71 387.00 C 524.78 356.34 524.75 325.68 524.73 295.02 C 524.39 290.60 524.66 285.74 522.20 281.87 C 518.38 277.17 511.81 277.28 506.31 277.52 C 506.25 276.21 506.20 274.91 506.16 273.61 M 543.20 283.84 C 543.30 302.24 543.25 320.64 543.23 339.04 C 549.11 340.14 555.08 341.32 561.10 340.96 C 568.61 340.34 575.17 335.32 579.03 329.03 C 583.01 322.41 583.60 314.34 582.69 306.82 C 581.45 298.06 577.01 289.08 568.85 284.92 C 560.97 280.67 551.52 281.33 543.20 283.84 Z"
       id="path25" />
    <path
       fill="#0a0905"
       opacity="1.00"
       d=" M 642.15 273.61 C 660.78 273.36 679.42 273.56 698.06 273.50 C 697.99 274.86 697.93 276.22 697.86 277.58 C 692.98 277.35 687.49 277.12 683.48 280.40 C 679.44 283.63 679.68 289.31 679.28 294.00 C 679.21 325.00 679.26 356.00 679.26 387.00 C 679.47 390.68 679.38 394.58 680.90 398.02 C 684.68 403.44 691.95 404.09 698.00 403.76 C 698.00 404.69 698.00 406.56 698.00 407.50 C 679.42 407.51 660.83 407.49 642.24 407.51 C 642.25 406.57 642.27 404.69 642.28 403.75 C 647.14 403.79 652.64 404.02 656.62 400.72 C 658.77 399.17 659.67 396.55 660.03 394.03 C 661.06 386.72 660.67 379.33 660.75 371.98 C 660.71 346.33 660.81 320.67 660.70 295.02 C 660.31 290.82 660.84 286.17 658.52 282.44 C 654.64 277.70 648.00 277.14 642.31 277.53 C 642.25 276.22 642.20 274.91 642.15 273.61 Z"
       id="path27" />
    <path
       fill="#0a0905"
       opacity="1.00"
       d=" M 731.25 277.54 C 731.28 276.16 731.32 274.78 731.39 273.40 C 747.56 273.63 763.74 273.43 779.91 273.51 C 788.96 273.83 798.12 273.88 806.97 276.07 C 816.22 278.32 824.40 284.61 828.99 292.95 C 835.39 305.18 833.22 321.53 823.32 331.31 C 817.26 337.33 809.05 340.54 800.89 342.52 C 810.34 356.19 819.87 369.80 829.39 383.42 C 833.54 388.88 837.71 394.60 843.56 398.38 C 848.59 401.65 854.56 403.01 860.45 403.73 C 860.47 404.67 860.50 406.56 860.52 407.50 C 849.00 407.44 837.49 407.59 825.98 407.44 L 825.31 407.13 C 810.74 386.52 796.22 365.85 781.78 345.15 C 777.31 345.37 772.84 345.12 768.39 345.35 C 768.68 359.90 768.37 374.46 768.54 389.01 C 768.93 393.25 768.95 398.59 772.98 401.18 C 777.01 404.14 782.26 403.76 786.99 403.75 C 786.99 404.69 787.00 406.56 787.01 407.49 C 768.46 407.57 749.92 407.37 731.38 407.60 C 731.32 406.29 731.30 404.99 731.31 403.69 C 736.40 403.87 742.32 404.07 746.23 400.20 C 749.37 397.42 749.43 392.92 749.72 389.05 C 749.78 359.36 749.73 329.67 749.75 299.98 C 749.64 294.13 750.31 287.82 747.62 282.41 C 743.99 277.18 736.94 277.25 731.25 277.54 M 768.57 283.10 C 768.41 301.55 768.55 320.01 768.50 338.47 C 780.45 339.35 794.11 337.92 802.95 328.95 C 815.57 316.82 812.83 292.42 796.90 284.43 C 788.15 279.65 777.89 281.43 768.57 283.10 Z"
       id="path29" />
    <path
       fill="#0a0905"
       opacity="1.00"
       d=" M 1178.75 273.51 C 1197.33 273.49 1215.90 273.51 1234.48 273.50 C 1234.49 274.49 1234.52 276.47 1234.53 277.46 C 1229.51 277.49 1223.67 276.99 1219.78 280.81 C 1216.24 283.75 1216.45 288.82 1216.03 292.98 C 1215.95 323.65 1216.03 354.33 1215.99 385.00 C 1216.12 389.36 1215.73 394.07 1217.69 398.10 C 1221.40 403.43 1228.54 404.06 1234.49 403.77 C 1234.49 404.70 1234.50 406.57 1234.50 407.50 C 1215.91 407.49 1197.32 407.53 1178.73 407.48 C 1178.74 406.55 1178.76 404.69 1178.77 403.76 C 1184.40 403.90 1191.40 403.95 1195.05 398.83 C 1197.50 394.33 1197.18 388.94 1197.26 383.98 C 1197.23 353.32 1197.27 322.66 1197.24 292.00 C 1196.94 288.27 1197.21 283.74 1193.99 281.14 C 1189.80 277.54 1183.99 277.22 1178.75 277.50 C 1178.75 276.50 1178.75 274.50 1178.75 273.51 Z"
       id="path31" />
    <path
       fill="#0a0905"
       opacity="1.00"
       d=" M 1428.74 273.52 C 1440.53 273.46 1452.32 273.54 1464.11 273.48 C 1490.52 306.68 1516.56 340.19 1543.13 373.27 C 1543.41 347.53 1543.17 321.79 1543.24 296.05 C 1542.93 291.39 1543.26 286.32 1540.88 282.13 C 1537.28 277.26 1530.59 277.23 1525.13 277.58 C 1525.04 276.22 1524.98 274.86 1524.95 273.50 C 1540.04 273.50 1555.14 273.50 1570.24 273.50 C 1570.25 274.50 1570.26 276.50 1570.26 277.49 C 1564.65 277.26 1557.90 277.26 1554.19 282.25 C 1551.94 286.05 1552.06 290.70 1551.99 294.98 C 1551.99 333.25 1552.05 371.51 1551.95 409.78 C 1550.69 409.77 1549.45 409.77 1548.23 409.79 C 1519.78 374.09 1491.57 338.20 1463.06 302.54 C 1462.92 330.70 1463.02 358.86 1463.02 387.02 C 1463.34 391.23 1463.14 395.88 1465.54 399.56 C 1469.42 404.01 1475.86 403.80 1481.25 403.77 C 1481.25 404.70 1481.25 406.56 1481.26 407.49 C 1466.17 407.50 1451.08 407.50 1435.99 407.49 C 1436.00 406.56 1436.01 404.69 1436.01 403.75 C 1441.72 403.92 1448.95 403.90 1452.32 398.38 C 1454.60 393.59 1454.18 388.08 1454.25 382.92 C 1454.25 354.27 1454.24 325.63 1454.26 296.99 C 1454.19 295.01 1454.44 292.99 1454.01 291.05 C 1450.21 286.48 1446.21 281.58 1440.41 279.55 C 1436.77 277.84 1432.71 277.44 1428.75 277.44 C 1428.75 276.46 1428.74 274.50 1428.74 273.52 Z"
       id="path33" />
  </g>
</svg>
