<svg width="631.19" height="269.9" version="1.1" viewBox="0 0 167 71.411" xmlns="http://www.w3.org/2000/svg">
 <defs>
  <radialGradient id="b" cx="46.256" cy="23.964" r="79.375" gradientTransform="matrix(1.3539 0 0 1.2722 -11.946 1.8652)" gradientUnits="userSpaceOnUse">
   <stop stop-color="#12602a" offset="0"/>
   <stop stop-color="#1e4723" offset=".21456"/>
   <stop stop-color="#162512" offset=".57737"/>
   <stop stop-color="#0b180d" offset="1"/>
  </radialGradient>
  <linearGradient id="a" x1="118.79" x2="142.91" y1="57.01" y2="-25.994" gradientTransform="translate(-23.928 27.313)" gradientUnits="userSpaceOnUse">
   <stop stop-color="#aaa8a7" offset="0"/>
   <stop stop-color="#e7e5e5" offset=".19388"/>
   <stop stop-color="#d2d1cf" offset=".3567"/>
   <stop stop-color="#cdcbc9" offset=".6164"/>
   <stop stop-color="#f4f3f7" offset=".76643"/>
   <stop stop-color="#fff" offset=".887"/>
   <stop stop-color="#e1e0e2" offset="1"/>
  </linearGradient>
 </defs>
 <path d="m149.21 71.411h-149.21v-52.675c0-18.603 13.718-18.736 17.642-18.736h149.36v52.653c0 18.714-14.107 18.759-17.789 18.759" fill="url(#a)" stroke-width="1.0796"/>
 <path d="m146.26 67.93h-141.84v-47.54c0-16.79 13.04-16.91 16.77-16.91h141.98v47.52c0 16.89-13.41 16.93-16.91 16.93" fill="url(#b)"/>
 <g fill="url(#a)">
  <path d="m50.693 14.141c-6.54 0-11.97 2.06-16.25 6.18-4.28 4.13-6.0301 9.3395-6.0301 15.63 0 5.16 1.6504 9.5103 4.9904 13.45 3.32 3.95 7.1597 6.57 12.29 7.49 3.55 2.44 6.3699 4.1597 8.4899 5.1697 2.13 1 4.2104 1.7904 6.2704 2.3704 2.06 0.57 4.0399 0.90976 5.9299 1.0098l6.0601-5.8901c-1.61 0.54-3.0199 0.8201-4.2199 0.8201-2.19 0-5.7704-0.96011-10.74-2.8701l-1.5999-0.60978c5.17-1.02 9.0002-3.7 12.26-7.63 3.26-3.95 4.8896-8.3401 4.8896-13.55 0-6.19-1.7796-11.34-6.0896-15.43s-9.7302-6.1397-16.25-6.1397zm0.02997 3.3698c9.72 0 17.62 7.9099 17.62 17.63 0 3.4668-1.0089 6.7004-2.743 9.4299h-5.1873v-3.0799c0.01-0.9-0.2601-1.5898-0.8201-2.0598-0.63-0.52-1.4599-0.63012-1.9999-0.62012v-1.9901c0.76-0.41 2.7003-1.7501 2.8603-4.7501 0.3-5.34-2.93-7.1198-9.34-10.69l-0.39016-0.22014-0.39998 0.22014c-6.42 3.57-9.64 5.35-9.34 10.68 0.16 3.01 2.0998 4.3399 2.8598 4.7599v1.9901c-0.55-0.01-1.3699 0.10012-1.9999 0.62012-0.56 0.47-0.82992 1.1598-0.82992 2.0598v3.0799h-5.1738c-1.7357-2.7295-2.7461-5.9631-2.7461-9.4299 0-9.72 7.9099-17.63 17.63-17.63zm0 4.7299c6.2 3.46 9.0298 5.0499 8.7798 9.7699-0.17 3.05-2.47 4.03-2.56 4.07l-0.29972 0.13023v3.6799l0.54984-0.08992c0.01 0 1.1401-0.19 1.7901 0.37 0.33 0.28 0.48007 0.70981 0.48007 1.3198v4.0302h5.4906c-3.2071 4.3901-8.3888 7.2497-14.231 7.2497-5.8418 0-11.027-2.8596-14.237-7.2497h5.4767v-4.0302c0-0.61 0.16041-1.0398 0.49041-1.3198 0.65-0.56 1.7697-0.37 1.7797-0.37l0.56017 0.09974v-3.6897l-0.2899-0.13023c-0.03-0.01-2.4001-1.0002-2.5601-4.0602-0.27-4.73 2.5698-6.3198 8.7798-9.7798z"/>
  <path d="m14.563 56.89h6.03v-42.15h-6.03z"/>
  <path d="m88.853 19.88h-1.81v13.3h2.3c3.06 0 5.15-0.27 6.28-0.78 1.15-0.53 2.03-1.31 2.67-2.37 0.63-1.06 0.95-2.26 0.95-3.61 0-1.32-0.36-2.53-1.06-3.61-0.71-1.06-1.7-1.83-2.97-2.28-1.28-0.44-3.4-0.65-6.36-0.65m-7.84 37.02v-42.16h10.56c4.27 0 7.65 1.06 10.16 3.17 2.5 2.11 3.75 4.97 3.75 8.57 0 2.46-0.61 4.57-1.83 6.36-1.23 1.79-3 3.14-5.29 4.02 1.35 0.88 2.67 2.1 3.95 3.62 1.29 1.53 3.1 4.2 5.43 8 1.47 2.39 2.65 4.19 3.54 5.4l2.22 3.02h-7.17l-1.85-2.78c-0.05-0.1-0.17-0.27-0.35-0.51l-1.18-1.67-1.86-3.07-2.02-3.3c-1.25-1.73-2.39-3.1-3.43-4.13-1.04-1.02-1.97-1.76-2.81-2.21-0.83-0.45-2.23-0.68-4.22-0.68h-1.57v18.35"/>
  <path d="m140.49 39.03-6.81-15.27-6.3 15.27zm-8.87-24.53h4.24l18.9 42.39h-6.17l-5.63-12.49h-17.98l-5.27 12.49h-6.21"/>
 </g>
</svg>
