<svg space="preserve" version="1.1" viewBox="0 0 1086.1 397.75" xmlns="http://www.w3.org/2000/svg">
 <g transform="matrix(4.0921 0 0 4.0921 -11.458 -8.1842)" fill="#0586bb">
  <path class="st0" d="m15 77.5 0.3 12.9c0 1.6-0.5 3-1.5 4.2-1.2 1.4-3 2.1-5.2 2.1-0.9 0-1.7-0.1-2.5-0.4-0.7-0.3-1.3-0.7-1.8-1.2s-0.9-1.1-1.1-1.8c-0.3-0.7-0.4-1.5-0.4-2.5 0-1.1 0.2-2.3 0.7-3.6l1.7 0.5c-0.4 1.1-0.6 2.1-0.6 3 0 0.6 0.1 1.1 0.3 1.6s0.5 0.9 0.8 1.2c0.3 0.4 0.8 0.7 1.3 0.9s1.1 0.3 1.7 0.3c0.7 0 1.3-0.1 1.8-0.3 0.6-0.2 1.1-0.4 1.5-0.8 0.4-0.3 0.7-0.7 1-1.2 0.2-0.5 0.4-1 0.4-1.6l-0.5-13.3z"/>
  <path class="st0" d="m22.7 92.3h-1.4c-2.6 0-3.9-1.5-3.9-4.6v-10.2h2.2v10c0 0.9 0.1 1.5 0.4 1.9 0.3 0.5 0.9 0.7 1.7 0.7h18.3c0.8 0 1.3-0.2 1.5-0.5 0.1-0.2 0.2-0.7 0.2-1.6v-2.7h2v2.1c0 1.1 0.2 1.8 0.6 2.2 0.3 0.3 0.9 0.5 1.8 0.5h17.9c0.9 0 1.3-0.4 1.3-1.2v-3.4h1.9v1c0 2.5 0.7 3.8 2 3.8 0.6 0 1-0.4 1-1.3v-3.4h1.8v1c0 2.5 0.7 3.8 2.1 3.8 0.7 0 1-0.4 1-1.3v-3.5h1.8v2.1c0 1.7 0.7 2.5 2 2.5h8.7c1 0 1.4-0.3 1.4-1 0-0.3-0.1-0.6-0.3-1l-1.2-2.1 1.7-1.2c0.7 1.2 1.1 2 1.2 2.3 0.4 0.8 0.6 1.5 0.6 2 0 0.8-0.2 1.5-0.7 2.1-0.6 0.7-1.5 1.1-2.6 1.1h-8.4c-0.5 0-1.1-0.1-1.6-0.4-0.6-0.3-1-0.6-1.2-1.1-0.6 1.1-1.4 1.6-2.5 1.6s-1.9-0.5-2.5-1.6c-0.6 1.1-1.4 1.6-2.3 1.6-1.2 0-2.1-0.5-2.6-1.6-0.5 1-1.3 1.5-2.4 1.5h-18.1c-1.3 0-2.3-0.5-2.8-1.5-0.6 1-1.5 1.5-2.6 1.5-6.2-0.1-12.1-0.1-18-0.1zm66.8-9.3h-2v-2h2zm-18.7 0h-2v-2h2zm1.4-2.6h-2v-2h2zm1.4 2.6h-2v-2h2zm-29.9 0h-2v-2h2z"/>
  <path class="st0" d="m194.2 89.1c0 0.8-0.2 1.5-0.7 2.1-0.6 0.7-1.5 1.1-2.6 1.1h-27.2c-1.3 0-2.3-0.5-2.8-1.5-0.6 1-1.5 1.5-2.6 1.5h-26.5c-1.3 0-2.3-0.5-2.8-1.5-0.6 1-1.5 1.5-2.6 1.5h-21.8c-1.2 0-2.1-0.4-2.8-1.3-0.1 0.5-0.3 1.1-0.8 1.7-1.3 2-4.3 4.2-8.8 6.5l-1-1.8c4.2-2.2 6.9-4.2 8.2-6.1 0.4-0.5 0.6-1.1 0.6-1.5 0-0.5-0.1-0.9-0.4-1.5l-1.7-2.3 1.8-1.1 1.5 2.9c0.8 1.5 1.8 2.2 3.2 2.2h21.2c0.8 0 1.3-0.2 1.5-0.5 0.1-0.2 0.2-0.7 0.2-1.6v-2.7h2v2.1c0 1.1 0.2 1.8 0.6 2.2 0.3 0.3 0.9 0.5 1.8 0.5h25.9c0.8 0 1.3-0.2 1.5-0.5 0.1-0.2 0.2-0.7 0.2-1.6v-2.7h2v2.1c0 1.1 0.2 1.8 0.6 2.2 0.3 0.3 0.9 0.5 1.8 0.5h27c1 0 1.4-0.3 1.4-1 0-0.3-0.1-0.6-0.3-1l-1.2-2.1 1.7-1.2c0.7 1.2 1.1 2 1.2 2.3 0.5 0.9 0.7 1.5 0.7 2.1zm-66.2-5.5h-2v-2h2zm2.8 0h-2v-2h2zm30.6-0.6h-2v-2h2zm30 13.5h-2v-2h2zm2.7 0h-2v-2h2z"/>
  <polygon class="st0" points="196.2 77.5 196.2 92.3 198.3 92.3 198.3 77.5"/>
 </g>
 <g transform="matrix(4.0921 0 0 4.0921 -11.458 -8.1842)">
  <path class="st1" d="m90 2h-86.5c-0.2 0-0.4 0.2-0.4 0.4v67.4c0 0.2 0.2 0.4 0.4 0.4h86.5c0.2 0 0.4-0.2 0.4-0.4v-67.4c0-0.2-0.2-0.4-0.4-0.4z" fill="#ce202b"/>
  <path class="st0" d="m93.3 2h104c0.2 0 0.4 0.2 0.4 0.4l-4e-5 67.4c0 0.2-0.19996 0.4-0.39996 0.4h-104c-0.2 0-0.4-0.2-0.4-0.4v-67.4c0-0.2 0.2-0.4 0.4-0.4z" fill="#0586bb"/>
 </g>
 <g transform="matrix(4.0921 0 0 4.0921 -11.458 -8.1842)" fill="#fff">
  <path class="st2" d="m87.6 51.4v-30.8c0-0.3 0.2-0.5 0.5-0.5h7.5c0.2 0.1 0.3 0.2 0.3 0.4v30.8c0 0.3-0.2 0.5-0.5 0.5h-7.5c-0.2 0-0.3-0.1-0.3-0.4z"/>
  <path class="st2" d="m99.5 51.5v-30.8c0-0.3 0.2-0.5 0.5-0.5h13c1.8 0 3.4 0.3 4.9 0.7 1.4 0.5 2.6 1.2 3.6 2.1s1.7 2 2.2 3.3c0.5 1.2 0.8 2.6 0.8 4.1 0 2-0.5 3.8-1.4 5.3-0.9 1.6-2.2 2.7-3.9 3.6l5.9 12.1c0.1 0.2 0.1 0.3 0 0.4s-0.2 0.2-0.3 0.2h-8.1c-0.3 0-0.6-0.2-0.7-0.5l-5-10.8h-3c-0.2 0-0.3 0.1-0.3 0.3v10.6c0 0.3-0.2 0.5-0.5 0.5h-7.3c-0.3-0.1-0.4-0.3-0.4-0.6zm8.5-24.3c-0.2 0-0.3 0.1-0.3 0.3v6.2c0 0.2 0.1 0.3 0.3 0.3h4.4c1.2 0 2.1-0.3 2.8-0.9s1-1.4 1-2.5c0-1-0.3-1.8-1-2.5-0.7-0.6-1.6-0.9-2.8-0.9z"/>
  <path class="st2" d="m137.7 20.1h7.6c0.3 0 0.5 0.2 0.6 0.5l10.8 30.8c0.1 0.3 0 0.5-0.3 0.5h-7.7c-0.3 0-0.5-0.2-0.6-0.5l-1.5-4.9h-10.3l-1.5 4.9c-0.1 0.3-0.3 0.5-0.6 0.5h-7.7c-0.3 0-0.4-0.2-0.3-0.5l11-30.8c0-0.3 0.2-0.5 0.5-0.5zm3.7 9.7-3.1 9.9h6.2l-2.9-9.9z"/>
  <path class="st2" d="m157.9 51.4v-30.8c0-0.3 0.2-0.5 0.5-0.5h6.9c0.4 0 0.7 0.2 0.8 0.5l9.6 18h0.2v-18c0-0.3 0.2-0.5 0.5-0.5h6.5c0.3 0 0.49997 0.2 0.49997 0.5l3e-5 30.8c0 0.3-0.2 0.5-0.5 0.5h-6.9c-0.4 0-0.7-0.2-0.8-0.5l-9.5-17.9h-0.3v17.9c0 0.3-0.2 0.5-0.5 0.5h-6.5c-0.4 0-0.5-0.2-0.5-0.5z"/>
  <path class="st2" d="m24.9 44.8c0 1 0.1 1.8 0.4 2.5 0.2 0.7 0.6 1.2 1 1.6s0.9 0.7 1.4 0.9 1.1 0.3 1.6 0.3c2.8 0 4.2-1.7 4.2-5v-14c0-0.3 0.2-0.5 0.5-0.5h6.9c0.3 0 0.5 0.2 0.5 0.5v14.4c0 2.1-0.3 3.8-1 5.3-0.7 1.4-1.6 2.6-2.7 3.5s-2.4 1.5-3.9 1.9-3 0.6-4.6 0.6-3.1-0.2-4.6-0.6-2.8-1.1-3.9-2-2-2.1-2.7-3.5c-0.7-1.5-1-3.2-1-5.4 0-1.4 0.2-2.9 0.6-4.5s0.9-3.1 1.7-4.4c0.1-0.2 0.4-0.3 0.7-0.2l6.2 1.7c0.2 0.1 0.3 0.2 0.3 0.3v0.4c-0.4 0.9-0.8 1.8-1.1 2.8-0.3 0.9-0.5 2.1-0.5 3.4z"/>
  <path class="st2" d="m53.6 46.7c0 0.3-0.2 0.5-0.5 0.5h-7.3c-0.3 0-0.5-0.2-0.5-0.5v-26.1c0-0.3 0.2-0.5 0.5-0.5h7.3c0.3 0 0.5 0.2 0.5 0.5z"/>
  <path class="st2" d="m58.5 27.6c0-0.3 0.2-0.5 0.5-0.5h7c0.3 0 0.5 0.2 0.5 0.5v10.6c0 0.7 0.3 1.2 0.8 1.6 0.6 0.4 1.4 0.6 2.4 0.6h4c0.8 0 1.3-0.2 1.7-0.5 0.4-0.4 0.5-1 0.5-1.9v-10.4c0-0.3 0.2-0.5 0.5-0.5h7.1c0.3 0 0.5 0.2 0.5 0.5v13.6c0 2-0.4 3.5-1.3 4.5-0.8 0.9-2.2 1.4-4.2 1.4h-7.5c-1.1 0-1.9-0.1-2.7-0.3-0.7-0.2-1.3-0.7-1.9-1.3v0.6c0 3.7-0.8 6.4-2.3 8.1s-4 2.6-7.5 2.6h-2.6c-0.3 0-0.5-0.2-0.5-0.5v-5.7c0-0.3 0.2-0.5 0.5-0.5h1c1.5 0 2.5-0.4 2.9-1.3 0.4-0.8 0.6-2.1 0.6-3.7z"/>
  <path class="st2" d="m78.6 51.1h5c0.2 0 0.3 0.2 0.3 0.3v5c0 0.2-0.2 0.3-0.3 0.3h-5c-0.2 0-0.3-0.2-0.3-0.3v-5c0-0.1 0.1-0.3 0.3-0.3z"/>
  <path class="st2" d="m71.2 51.1h5c0.2 0 0.3 0.2 0.3 0.3v5c0 0.2-0.2 0.3-0.3 0.3h-5c-0.2 0-0.3-0.2-0.3-0.3v-5c0-0.1 0.1-0.3 0.3-0.3z"/>
  <path class="st2" d="m28.1 20.1h5c0.2 0 0.3 0.2 0.3 0.3v5c0 0.2-0.2 0.3-0.3 0.3h-5c-0.2 0-0.3-0.2-0.3-0.3v-5c0-0.1 0.1-0.3 0.3-0.3z"/>
 </g>
 <g transform="translate(-174.98 13.91)" fill="#0586bb">
  <path d="m1032.4 59.03c9.9364-0.22583 19.895-0.02824 29.843-0.09598 1.1179-0.11292 2.6761 0.24276 2.5971 1.6711 0.1693 15.61-0.056 31.232 0.1128 46.836-0.1467 1.0106 1.0897 0.92024 1.7276 0.96541 5.0489 5e-3 10.099 2e-3 15.149 3e-5 6.2722-3e-3 12.545-4e-3 18.815 0.0113 0.6605-0.10162 1.6147 0.15808 2.0494-0.50247 0.271-1.8405 0.096-3.7036 0.1298-5.5553 0.022-13.775-0.034-27.551 0.022-41.326-0.1298-1.0501 0.559-2.1454 1.7107-2.0494 9.7896-0.1242 19.59-0.0056 29.38-0.05645 0.9485 0.03387 2.4108-0.03951 2.6422 1.1799 0.271 1.8348 0.096 3.6923 0.1299 5.5384 0.01 40.463-0.01 80.931 0.01 121.39 0.068 1.1066-0.1186 2.8172-1.6203 2.7438-9.8122 0.15243-19.636 0.0113-29.454 0.0677-0.9484-0.0452-2.405 0.0734-2.6817-1.1348-0.254-1.6824-0.1186-3.3874-0.1355-5.0755v-43.494c0.023-0.68877-0.085-1.8123-1.067-1.6598-6.6431-0.0442-13.288-0.0566-19.932-0.0501-5.2358 5e-3 -10.471 0.0219-15.704 0.0441-1.0501-0.18631-1.2928 0.81862-1.2251 1.6429-0.017 15.825 0.022 31.655-0.011 47.48 0.192 1.2703-0.7735 2.4446-2.1115 2.2188-9.6146 0.0565-19.24-6e-3 -28.861 0.0339-0.751-0.0621-1.5865 0.0452-2.264-0.36697-0.7452-0.5815-0.5645-1.626-0.6436-2.4446 0.011-41.795 0.01-83.584 0-125.38-0.022-1.0106 0.057-2.5688 1.3945-2.6365z" stroke-width=".56457"/>
  <path d="m1033.1 58.914c-1.2393 0-2.0664 0.8272-2.0664 2.0664v127.22c0 1.2392 0.4141 1.6523 1.2402 1.6523h30.98c1.2392 0 2.0644-0.82718 2.0644-2.0664v-47.197c0-1.3431 0.8953-2.2383 2.2383-2.2383h33.576c0.8953 0.44768 1.3437 0.89369 1.3437 1.7891v48.061c0.2951 1.2036 0.4122 1.6523 1.2383 1.6523h30.98c1.2392 0 2.0644-0.82718 2.0644-2.0664v-127.22c0-0.82614-0.4121-1.2393-1.2383-1.6523h-30.98c-1.2393 0-2.0645 0.8272-2.0645 2.0664v45.188c0 1.3431-0.8952 2.2383-2.2383 2.2383h-33.576c-0.8953 0-1.3438-0.44796-1.3438-1.791v-46.049c-0.1706-0.80834-0.4122-1.2393-1.2383-1.6523z" stroke-width="3.6181"/>
  <path d="m1160.1 58.918c-1.2392 1.9e-5 -2.0664 0.8272-2.0664 2.0664v127.22c0 1.2392 0.4141 1.6524 1.2403 1.6524h49.164c11.455 0.21453 23.402-1.7434 33.078-8.2246 8.3669-5.4763 13.815-14.521 16.4-24.045 3.3592-11.32 3.0498-23.255 3.1348-34.936-0.1298-10.01 0.022-20.212-2.7383-29.928-2.2752-9.3492-7.1193-18.376-14.916-24.242-9.4564-7.1587-21.628-9.6305-33.281-9.5684zm45.959 30.123c3.0752-3.71e-4 6.103 0.64338 9.041 1.666 4.2004 1.4001 7.4307 4.8724 9.0567 8.9316 1.2871 3.2866 1.9145 6.7453 2.2354 10.244 0.5244 8.983 0.523 18.761 0.1628 26.899-0.3839 5.7699-1.2129 11.935-4.8826 16.627-2.2188 2.9244-5.6526 4.6419-9.1699 5.4492-3.0203 0.71723-6.0921 0.92305-9.1777 0.96485h-10.658c-0.4465 0-0.6699-0.22273-0.6699-0.89258v-68.771c0-0.66984 0.4454-1.1152 1.1153-1.1152l12.947-2e-3z" stroke-width="4.1307"/>
 </g>
</svg>
