<?xml version="1.0" encoding="UTF-8" standalone="no"?>
<svg
   xmlns:dc="http://purl.org/dc/elements/1.1/"
   xmlns:cc="http://creativecommons.org/ns#"
   xmlns:rdf="http://www.w3.org/1999/02/22-rdf-syntax-ns#"
   xmlns:svg="http://www.w3.org/2000/svg"
   xmlns="http://www.w3.org/2000/svg"
   xmlns:sodipodi="http://sodipodi.sourceforge.net/DTD/sodipodi-0.dtd"
   xmlns:inkscape="http://www.inkscape.org/namespaces/inkscape"
   width="1943.656pt"
   height="329.33194pt"
   viewBox="0 0 1943.656 329.33194"
   version="1.1"
   id="svg23"
   sodipodi:docname="Irish TV - Dark.svg"
   inkscape:version="0.92.0 r15299">
  <metadata
     id="metadata29">
    <rdf:RDF>
      <cc:Work
         rdf:about="">
        <dc:format>image/svg+xml</dc:format>
        <dc:type
           rdf:resource="http://purl.org/dc/dcmitype/StillImage" />
        <dc:title></dc:title>
      </cc:Work>
    </rdf:RDF>
  </metadata>
  <defs
     id="defs27" />
  <sodipodi:namedview
     pagecolor="#ffffff"
     bordercolor="#666666"
     borderopacity="1"
     objecttolerance="10"
     gridtolerance="10"
     guidetolerance="10"
     inkscape:pageopacity="0"
     inkscape:pageshadow="2"
     inkscape:window-width="1920"
     inkscape:window-height="1017"
     id="namedview25"
     showgrid="false"
     fit-margin-top="0"
     fit-margin-left="0"
     fit-margin-right="0"
     fit-margin-bottom="0"
     inkscape:zoom="0.37699115"
     inkscape:cx="1295.7707"
     inkscape:cy="268.49962"
     inkscape:window-x="-8"
     inkscape:window-y="-8"
     inkscape:window-maximized="1"
     inkscape:current-layer="svg23" />
  <g
     id="#99b232ff"
     transform="translate(-151.94688,-139.92853)">
    <path
       d="m 165.37,140.47 c 1.85,-0.4 3.75,-0.48 5.65,-0.52 94.33,0.03 188.67,-0.01 283.01,0.02 3.98,0 7.97,-0.18 11.94,0.21 6.26,0.64 11.89,5.12 14.05,11.01 1.59,4.05 1.11,8.49 1.17,12.74 -0.01,93.71 0,187.41 0,281.11 -0.04,4.81 0.49,9.94 -1.79,14.38 -2.88,6.16 -9.6,10.07 -16.36,9.83 -97.66,-0.01 -195.33,0 -292.99,0 -6.55,0.21 -13.05,-3.45 -16.04,-9.31 -2.54,-4.54 -2.01,-9.93 -2.03,-14.93 0.01,-95.67 -0.02,-191.34 0,-287.01 -0.35,-8.06 5.46,-15.86 13.39,-17.53"
       id="path5"
       inkscape:connector-curvature="0"
       style="opacity:1;fill:#99b232"
       sodipodi:nodetypes="cccccccccccccc" />
    <path
       d="m 1611.37,157.6 c 69.18,-0.44 138.39,-0.02 207.58,-0.21 2.71,0.05 5.76,-0.25 8.07,1.52 2.71,1.7 3.98,4.95 3.83,8.07 -0.05,11.37 0.05,22.74 -0.05,34.11 0.19,4.66 -4.13,8.78 -8.75,8.56 -22.71,0.09 -45.43,-0.07 -68.13,0.07 -4.77,0.02 -8.78,4.52 -8.39,9.25 0,75.04 0.02,150.08 -0.01,225.12 0.45,4.82 -3.57,9.51 -8.48,9.41 -13.03,0.05 -26.06,0.08 -39.09,-0.01 -4.81,-0.05 -8.61,-4.77 -8.22,-9.45 -0.02,-75.05 0,-150.1 -0.01,-225.15 0.44,-4.87 -3.84,-9.36 -8.71,-9.19 -22.64,-0.1 -45.28,0.03 -67.91,-0.06 -4.62,0.16 -8.79,-3.99 -8.64,-8.6 -0.05,-11.69 -0.07,-23.37 0.01,-35.06 -0.08,-3.97 3,-7.68 6.9,-8.38 z"
       id="path7"
       inkscape:connector-curvature="0"
       style="opacity:1;fill:#99b232" />
    <path
       d="m 1858.44,157.64 c 13.15,-0.52 26.36,-0.06 39.54,-0.23 4.88,-0.51 9.62,3.64 9.49,8.61 0.09,36.68 -0.01,73.36 0.05,110.03 -0.04,4.85 1.12,9.68 3.46,13.94 17.56,34.19 35.94,67.96 54.41,101.67 1.64,2.95 3.78,6.55 7.6,6.67 4.17,0.32 6.92,-3.38 8.65,-6.67 18.56,-34 36.93,-68.1 54.54,-102.61 2.28,-4.31 3.72,-9.12 3.6,-14.04 0,-36 -0.01,-72.01 0.01,-108.02 -0.42,-4.69 3.3,-9.42 8.13,-9.52 13.02,-0.1 26.06,-0.05 39.09,-0.03 4.95,-0.11 9.06,4.63 8.55,9.5 -0.06,37.97 0.1,75.94 -0.08,113.91 -0.28,17.44 -8.06,33.44 -16.2,48.45 -18.4,34.95 -37.23,69.68 -57.21,103.76 -5.54,9.48 -15.48,15.67 -25.96,18.32 -9.46,2.62 -19.36,2.15 -29.07,2.14 -11.89,-0.18 -24.22,-3.35 -33.35,-11.27 -5.63,-4.62 -9.05,-11.15 -12.84,-17.21 -20.55,-33.86 -39.78,-68.5 -58.68,-103.3 -3.57,-6.51 -6.31,-13.47 -7.95,-20.71 -2.54,-10.47 -2.59,-21.31 -2.52,-32.01 -0.01,-33.67 0.03,-67.34 -0.02,-101.01 -0.53,-4.48 2.07,-9.49 6.76,-10.37 z"
       id="path9"
       inkscape:connector-curvature="0"
       style="opacity:1;fill:#99b232" />
  </g>
  <g
     id="#212d05ff"
     transform="translate(-151.94688,-139.92853)">
    <path
       d="m 558.43,157.5 c 14.83,-0.21 29.68,-0.04 44.52,-0.08 4.04,-0.14 7.93,2.9 8.63,6.91 0.38,2.87 0.15,5.78 0.2,8.67 0,90.35 0,180.71 0,271.06 0.49,4.93 -3.76,9.67 -8.76,9.46 -14.64,0.01 -29.28,0.05 -43.92,-0.02 -4.84,-0.03 -8.77,-4.7 -8.3,-9.46 0.03,-92.67 -0.03,-185.34 0.03,-278.01 -0.11,-4.24 3.38,-8.17 7.6,-8.53 z"
       id="path12"
       inkscape:connector-curvature="0"
       style="opacity:1;fill:#212d05" />
    <path
       d="m 649.61,161.55 c 1.69,-2.88 5.08,-4.37 8.35,-4.15 54.68,0.02 109.37,-0.01 164.05,0.01 17.96,-0.05 36.17,5.9 49.8,17.79 12.03,10.35 20.04,25.06 22.69,40.67 1.75,9.63 0.99,19.44 1.16,29.17 -0.22,12.28 0.91,24.77 -2.15,36.81 -3.93,16.93 -14.25,32.26 -28.54,42.17 -14.34,10.15 -32.1,14.7 -49.54,14.59 26.12,33.84 52.48,67.5 78.58,101.36 4,5.24 -0.38,13.79 -6.98,13.54 -17.69,0.05 -35.38,0.02 -53.07,0.01 -3.08,0.17 -5.92,-1.51 -7.67,-3.94 -29.26,-36.71 -58.51,-73.43 -87.79,-110.12 -2.2,-2.78 -5.11,-5.62 -4.84,-9.48 -0.01,-13.99 -0.05,-27.98 0.02,-41.97 -0.14,-4.48 3.77,-8.62 8.27,-8.62 25.02,-0.12 50.05,0.01 75.07,-0.06 4.52,0.05 9.19,-1.65 12.13,-5.2 2.64,-3.04 3.84,-7.11 3.78,-11.1 -0.04,-11.36 0.09,-22.71 -0.06,-34.07 -0.16,-6.68 -6.23,-12.56 -12.96,-12.29 -33.28,-0.02 -66.57,-0.02 -99.86,0 -4.23,-0.22 -8.37,3.08 -8.84,7.32 -0.3,2.99 -0.11,5.99 -0.14,8.99 -0.01,70.35 0.01,140.69 -0.01,211.04 0.49,5.01 -3.87,9.81 -8.95,9.5 -15.03,0.01 -30.07,0.03 -45.1,-0.01 -5.01,0.19 -9.18,-4.59 -8.69,-9.5 -0.01,-91.02 0.01,-182.04 -0.02,-273.06 0.1,-3.14 -0.48,-6.6 1.31,-9.4 z"
       id="path14"
       inkscape:connector-curvature="0"
       style="opacity:1;fill:#212d05" />
    <path
       d="m 934.39,157.53 c 15.52,-0.27 31.07,-0.07 46.6,-0.1 4.12,-0.13 8.01,3.14 8.56,7.24 0.29,2.76 0.09,5.55 0.14,8.33 -0.01,90.35 -0.01,180.7 0,271.05 0.49,4.89 -3.68,9.63 -8.65,9.46 -15.02,0.04 -30.04,0.02 -45.06,0.01 -4.3,0.23 -8.47,-3.16 -8.89,-7.47 -0.28,-3.03 -0.1,-6.07 -0.13,-9.1 0,-89.99 0,-179.99 0,-269.99 -0.41,-4.46 2.92,-8.94 7.43,-9.43 z"
       id="path16"
       inkscape:connector-curvature="0"
       style="opacity:1;fill:#212d05" />
    <path
       d="m 1094.42,157.53 c 29.19,-0.28 58.39,-0.04 87.58,-0.12 13.88,0.18 28.11,-1.08 41.57,3.14 21.98,6.13 40.45,23.45 47.67,45.13 4.59,12.59 4.24,26.15 4.02,39.33 -0.07,4.72 -4.58,8.59 -9.23,8.22 -15,-0.04 -30,0.04 -44.99,-0.04 -4.04,0.03 -7.76,-3.21 -8.3,-7.19 -0.51,-6.02 0.21,-12.09 -0.36,-18.1 -0.72,-6.5 -6.89,-11.61 -13.4,-11.24 -32.96,0.02 -65.92,-0.05 -98.88,0.03 -6.75,-0.08 -12.72,5.83 -12.81,12.56 -0.12,9.18 -0.1,18.37 -0.02,27.56 0.15,6.95 6.89,12.41 13.66,12.05 27.7,0.02 55.4,0 83.1,0.01 13.03,0.1 26.39,-0.88 39.01,3.12 23.78,6.67 43.15,26.51 49.44,50.37 3.83,12.86 2.65,26.39 2.83,39.61 -0.15,11.06 0.7,22.27 -1.78,33.15 -3.5,16.8 -12.93,32.36 -26.5,42.91 -12.71,10.03 -28.85,15.39 -44.99,15.49 -28.67,0.03 -57.35,0 -86.02,0.01 -9.33,-0.18 -18.69,0.43 -27.99,-0.46 -17.23,-1.8 -33.76,-9.88 -45.49,-22.66 -12.43,-13.28 -19.31,-31.32 -19.74,-49.43 -0.06,-5.01 -0.15,-10.02 0,-15.03 0.07,-4.32 3.9,-8.16 8.24,-8.19 14.31,-0.12 28.63,0 42.95,-0.06 4.08,-0.38 8.27,2.17 9.37,6.2 0.99,5.66 -0.1,11.46 0.58,17.16 1.06,6.61 7.59,11.43 14.13,11.45 33.65,0.04 67.31,0.01 100.97,0.02 5.06,0.21 10.11,-2.73 12.15,-7.41 1.82,-3.79 1.33,-8.09 1.4,-12.15 -0.06,-10.3 0.08,-20.61 -0.06,-30.9 -0.07,-6.59 -5.95,-12.21 -12.5,-12.15 -35.66,-0.26 -71.33,0.27 -106.99,-0.26 -18.09,-1.23 -35.64,-9.39 -48.1,-22.6 -12.79,-13.35 -20.08,-31.65 -20.41,-50.1 -0.07,-8.96 -0.03,-17.93 -0.02,-26.89 0.03,-15.95 5.11,-31.98 14.95,-44.61 12.9,-16.98 33.78,-27.03 54.96,-27.93 z"
       id="path18"
       inkscape:connector-curvature="0"
       style="opacity:1;fill:#212d05" />
    <path
       d="m 1315.43,157.58 c 14.17,-0.42 28.37,-0.03 42.56,-0.19 2.86,0.08 5.99,-0.39 8.62,1.1 3.03,1.6 4.7,5.09 4.49,8.47 0,34.37 -0.01,68.75 0,103.13 -0.39,4.93 3.97,9.51 8.95,9.23 36.32,0.05 72.65,0.02 108.97,0.01 5.05,0.36 9.6,-4.24 9.17,-9.3 0.02,-34.65 -0.04,-69.32 0.03,-103.98 -0.13,-4.7 4.14,-8.86 8.84,-8.63 14.98,-0.02 29.97,-0.02 44.96,0 5.08,-0.29 9.41,4.52 8.91,9.53 -0.01,92.38 0,184.76 0,277.15 0.46,4.98 -3.89,9.69 -8.92,9.42 -15,0.01 -30.01,0.02 -45,0 -4.59,0.2 -8.82,-3.82 -8.78,-8.42 -0.09,-29.7 -0.01,-59.4 -0.04,-89.1 -0.07,-3.01 0.21,-6.04 -0.26,-9.02 -0.84,-3.99 -4.82,-6.86 -8.85,-6.65 -36.34,-0.02 -72.69,-0.03 -109.03,0.01 -4.7,-0.25 -9.03,3.85 -8.92,8.57 -0.1,32.04 0.05,64.09 -0.07,96.13 0.07,4.76 -4.38,8.82 -9.09,8.49 -15,-0.01 -30,0.03 -45,-0.02 -4.96,0.14 -9.08,-4.6 -8.6,-9.46 0.01,-92.38 0.01,-184.76 0,-277.14 -0.39,-4.31 2.72,-8.65 7.06,-9.33 z"
       id="path20"
       inkscape:connector-curvature="0"
       style="opacity:1;fill:#212d05" />
  </g>
  <g
     id="#ffffffff"
     transform="translate(-151.94688,-139.92853)">
    <path
       d="m 268.17,183.29 c 8.21,-4.96 18.28,-7.21 27.76,-5.27 7.5,1.6 14.12,5.63 20.71,9.36 8.11,-4.75 16.69,-9.82 26.36,-10.04 9.46,-0.17 19.24,2.9 26.35,9.28 8.39,7.79 12.24,19.26 13.48,30.39 1.88,15.34 -1.09,31.03 -7.75,44.92 -6.05,13.1 -14.2,25.17 -23.71,36 16.43,-2.86 33.34,-3.92 49.87,-1.23 14.82,2.25 28.86,9.05 40.11,18.91 8.41,7.45 15.14,17.86 15.17,29.42 -0.19,9.55 -3.42,19.35 -10.18,26.28 -5.02,5.25 -11.49,8.69 -17.64,12.4 0.08,9.56 0.13,19.72 -4.71,28.3 -5.63,9.82 -15.53,17.73 -27.01,18.99 -12.3,1.46 -24.49,-2.87 -35.05,-8.84 -7.84,-4.52 -15.01,-10.27 -20.83,-17.22 -10.81,-12.72 -18.63,-27.72 -24.43,-43.3 -0.58,0.86 -1.08,1.75 -1.51,2.69 -6.15,16.14 -14.76,31.55 -26.59,44.22 -9.06,9.31 -20.47,16.39 -32.85,20.34 -10.53,3.34 -22.69,3.69 -32.43,-2.14 -8.01,-5 -14.77,-12.62 -17.28,-21.86 -1.98,-6.88 -1.77,-14.11 -1.78,-21.18 -6.16,-3.69 -12.61,-7.14 -17.64,-12.37 -6.74,-6.95 -10.02,-16.74 -10.19,-26.31 0.02,-11.32 6.48,-21.58 14.65,-28.96 11.5,-10.28 26.02,-17.29 41.32,-19.48 16.42,-2.51 33.23,-1.57 49.52,1.47 -11.13,-12.82 -20.64,-27.23 -26.73,-43.13 -5.6,-14.18 -6.78,-30.01 -3.67,-44.91 2.21,-10.44 7.44,-20.86 16.68,-26.73 z"
       id="path2"
       inkscape:connector-curvature="0"
       style="opacity:1;fill:#ffffff" />
  </g>
</svg>
