<svg height="258.99" viewBox="0 0 158.75 68.524978" width="600" xmlns="http://www.w3.org/2000/svg"><g fill="#007cab" transform="translate(103.94 -114.57)"><path d="m-81.732 134.58c.177-.21.56-.31 1.137-.31l22.49-.06c.334 0 .613-.1.858-.31.238-.21.367-.46.367-.74v-4.36c0-.29-.129-.53-.367-.75-.245-.21-.524-.31-.858-.31h-22.774c-1.589 0-2.931.12-4.032.36-1.096.26-1.995.67-2.671 1.24-.673.58-1.174 1.35-1.483 2.3-.311.95-.463 2.15-.463 3.6v2.9c0 1.44.152 2.64.463 3.59.309.94.81 1.71 1.483 2.29.676.58 1.575.99 2.671 1.24 1.101.25 2.443.37 4.032.37h15.398c.58 0 .972.11 1.152.32.162.21.258.67.258 1.37v1.79c0 .7-.096 1.16-.258 1.37-.18.2-.572.32-1.152.32h-28.806c-.453 0-.808-.2-1.045-.61-.246-.4-.368-.8-.368-1.19v-6.51h.003v-13.43c0-.29-.106-.57-.316-.85-.216-.28-.471-.41-.803-.41h-5.194c-.32 0-.6.13-.86.41-.23.28-.36.56-.36.85v23.32c0 .57.08 1.13.22 1.7.14.56.37 1.07.68 1.53.16.24.35.45.56.64 0 .01.3.44 1.28.74.16.05.32.09.5.12.367.07.82.11 1.342.12.012.01.022.01.032.01h33.525c3.007 0 5.105-.45 6.29-1.35 1.18-.89 1.774-2.2 1.774-3.93v-5.27c0-1.45-.151-2.65-.44-3.59-.286-.95-.777-1.72-1.453-2.3-.678-.58-1.572-.99-2.67-1.24-1.104-.25-2.451-.37-4.038-.37h-14.967c-.577 0-.96-.1-1.137-.31-.177-.22-.261-.67-.261-1.38v-1.55c0-.7.084-1.16.261-1.37"/><path d="m-98.292 123.45 3.61-3.45c.248-.24.39-.51.41-.79.028-.29-.056-.52-.236-.69l-3.88-3.72c-.18-.17-.425-.25-.721-.22-.297.02-.578.15-.828.39l-3.603 3.45c-.23.23-.37.48-.39.78-.04.3.03.53.21.7l3.884 3.72c.185.17.43.24.737.21.316-.04.579-.16.807-.38"/><path d="m54.609 130.96c-.134-.57-.352-1.07-.678-1.54-.329-.45-.734-.83-1.236-1.13-.508-.3-1.111-.45-1.822-.45h-46.735c-.3268 0-.6078.11-.8558.31-.238.22-.3595.47-.3595.74v21.88h-6.3181v-15.48c0-1.44-.1417-2.65-.4353-3.59-.2911-.95-.7746-1.72-1.453-2.3-.6809-.58-1.5821-1-2.6806-1.25-1.0986-.24-2.4377-.36-4.0247-.36h-22.984c-.319 0-.603.1-.858.29-.233.19-.35.43-.35.72v4.41c0 .32.114.58.337.79.23.21.514.32.871.32h22.685c.562 0 .919.11 1.099.31.18.22.266.64.266 1.27v1.18c0 .71-.086 1.16-.266 1.37s-.537.32-1.099.32h-16.225c-1.575 0-2.921.13-4.02.37-1.109.24-2 .66-2.686 1.24-.673.58-1.169 1.34-1.465 2.29-.317.95-.469 2.15-.469 3.59v1.63c0 1.17.129 2.13.329 2.98h-5.092c-.456 0-.803-.2-1.038-.61-.259-.4-.375-.8-.375-1.19v-33.23c0-.28-.101-.57-.314-.85-.212-.28-.481-.42-.802-.42h-5.192c-.332 0-.607.14-.855.42-.244.28-.365.57-.365.85v36.57c0 .57.068 1.12.218 1.69.147.57.374 1.07.681 1.53.306.46.713.83 1.217 1.13.501.3 1.122.46 1.871.46h17.149c.385.01.798.02 1.208.02h38.144c.3519 0 .6224-.1.8024-.32.177-.21.261-.45.261-.73v-21.84h14.289v21.84c0 .28.106.52.337.73.222.22.518.32.875.32h5.392c.357 0 .648-.1.871-.32.225-.21.336-.45.336-.73v-21.84h12.882c.448 0 .8.2 1.041.6.25.41.359.81.359 1.2v20.04c0 .28.116.52.342.73.23.22.524.32.873.32h5.303c.352 0 .643-.1.876-.32.22-.21.337-.45.337-.73v-23.55c0-.56-.059-1.12-.198-1.68m-84.234 15.25c0-.7.086-1.16.266-1.38.175-.2.555-.3 1.139-.3h17.297v6.27h-17.297c-.584 0-.964-.12-1.139-.32-.18-.21-.266-.67-.266-1.37z"/><path d="m-91.002 177.91v1.8c0 1.78-1.78 3.39-4.638 3.39h-2.789c-2.941 0-4.801-1.61-4.801-3.39v-8.68c0-1.78 1.86-3.38 4.801-3.38h2.789c2.858 0 4.638 1.6 4.638 3.38v1.73h-2.787v-1.23c0-1.07-.954-1.74-2.152-1.74h-2.334c-1.156 0-2.135.67-2.135 1.74v7.68c0 1.07.979 1.73 2.135 1.73h2.334c1.198 0 2.152-.66 2.152-1.73v-1.3z"/><path d="m-78.874 182.96v-15.21h2.807v6.26h6.911v-6.26h2.784v15.21h-2.784v-6.79h-6.911v6.79z"/><path d="m-46.741 167.71 6.002 15.26h-2.835l-1.407-3.76h-6.359l-1.374 3.76h-2.815l6.004-15.26zm-3.789 9.33h4.723l-2.366-6.31z"/><path d="m-29.894 182.96v-15.21h2.835l6.882 10.75v-10.75h2.785v15.21h-2.843l-6.849-10.67v10.67z"/><path d="m-5.4019 182.96v-15.21h2.8351l6.8749 10.75v-10.75h2.787v15.21h-2.8376l-6.8522-10.67v10.67z"/><path d="m30.682 182.96h-10.69v-15.21h10.44v2.18h-7.637v4.16h6.885v2.17h-6.885v4.56h7.887z"/><path d="m54.806 182.96h-9.963v-15.21h2.812v13.07h7.151z"/></g></svg>