<svg height="74.122787" width="199" xmlns="http://www.w3.org/2000/svg"><g transform="translate(-99.923909 -501.9714)"><path d="m99.923909 511.75092c0-5.34566 3.787281-9.72027 9.873101-9.72027 6.40724 0 9.84253 4.58937 9.84253 9.98009 0 5.92815-4.34075 9.52158-9.79668 9.52158-5.93819 0-9.918951-4.05054-9.918951-9.7814z" fill="#00beca"/><path d="m99.974507 529.65223c0-.9099.510233-1.56762 1.528933-1.56762h16.63288c.87868 0 1.45955.69639 1.45955 1.55227v25.49922c0 4.34753 2.47547 9.40381 10.11546 9.40381 7.44055 0 11.28966-4.62974 11.28966-14.08232v-1.98715l7.89951 15.03455 1.01929 5.09646s-7.75044 7.49274-21.79794 7.49274c-6.97231 0-28.147343-1.14379-28.147343-24.31105z" fill="#00beca"/><path d="m149.91979 568.60145 7.89951-20.38583 2.54823-2.54823v3.56752c0 8.58084 4.1628 15.18273 14.93429 15.18273 9.82184 0 16.73537-5.56403 16.73537-14.19831 0-4.38868-2.1244-7.87097-2.1244-7.87097l11.14162 5.56317.97666 13.55488s-7.4195 14.55136-28.33401 14.55136c-16.33149 0-23.77727-7.41632-23.77727-7.41632z" fill="#8c7b11"/><path d="m149.91979 568.60145s-8.9188-6.81563-8.9188-19.55995v-36.50108c0-2.93507 1.89393-5.47852 9.79019-5.47852 8.62939 0 9.57635 3.35895 9.57635 5.87898v15.14373h15.28937c1.10321 0 1.52894.64486 1.52894 1.6666v9.03596c0 .85444-.34859 1.52894-1.35148 1.52894h-10.11555c-2.62316 0-5.35128-1.01929-5.35128-1.01929v6.11575c0 7.62543-1.97042 15.41451-10.44774 23.18888z" fill="#fff"/><path d="m202.03107 561.46641 2.42778-26.6737 1.09691-4.64161s4.84515 7.06419 17.18857 29.78956c7.83929-14.25378 12.83874-31.28633 12.83874-31.28633.35102-1.16428 1.28056-1.44616 2.62611-1.09151l8.4619 2.6153c1.02739.36663 1.58478.77251 1.00627 2.68281-7.03837 20.48275-18.05975 37.37882-18.05975 37.37882-2.1219 3.14455-4.28338 5.81417-11.44464 5.81417-5.77752 0-7.78961-1.96783-9.80197-4.97123z" fill="#ffab00"/><path d="m202.03107 561.46641-13.19165-20.78629c-.79172-1.48151-1.39513-2.37996-1.39513-4.13946.0102-2.58628 1.35405-4.45625 5.91079-7.31118.98466-.64702 4.53351-2.05757 7.40895-2.05757 3.87765 0 6.77056 4.01343 6.77056 12.41015 0 13.66243-5.50352 21.88435-5.50352 21.88435z" fill="#c80063"/><circle cx="276.71463" cy="524.18066" fill="#fff" fill-rule="evenodd" r="22.209284"/><g transform="matrix(.02434701 0 0 .02434701 244.80282 509.68292)"><path d="m949.16553 764.90898h-161.43075c-15.34633 0-23-14.82515-23-60 0-42.12619 5.79062-59 25-59h159.43075v-175.79779h125.99997v175.79779h187.6967v119h-187.6967v161.32965c0 16.72978-13.2231 25-66 25-50.1718 0-59.99997-8.42839-59.99997-24z"/><path d="m1632.1429 980.3979c-46.5146 0-76.1429-2.47709-76.1429-33.03572v-545c-67.5356 43.02833-129.9211 79.18982-189.3899 111.46243l-58.9676-118.94547c127.7314-76.0379 199.3666-118.59056 246.856-150.13392 12.828-8.40252 24.8774-14.38304 60.5015-14.38304h53c35.1679 0 43 7.95975 43 32v688c0 24.84715-28.2533 30.03572-78.8571 30.03572z"/></g></g></svg>