<?xml version="1.0" encoding="UTF-8"?>
<!-- Created with Inkscape (http://www.inkscape.org/) -->
<svg id="svg2" width="199" height="74.123" version="1.1" xmlns="http://www.w3.org/2000/svg" xmlns:cc="http://creativecommons.org/ns#" xmlns:dc="http://purl.org/dc/elements/1.1/" xmlns:rdf="http://www.w3.org/1999/02/22-rdf-syntax-ns#">
 <metadata id="metadata7">
  <rdf:RDF>
   <cc:Work rdf:about="">
    <dc:format>image/svg+xml</dc:format>
    <dc:type rdf:resource="http://purl.org/dc/dcmitype/StillImage"/>
    <dc:title/>
   </cc:Work>
  </rdf:RDF>
 </metadata>
 <g id="layer1" transform="translate(-99.924 -501.97)">
  <g id="g3060" transform="matrix(.89057 0 0 .89057 10.934 63.039)">
   <g id="g3030" transform="matrix(.28613 0 0 .28613 86.246 382.98)">
    <path id="path3018" d="m47.801 422.39c0-20.978 14.862-38.145 38.745-38.145 25.144 0 38.625 18.01 38.625 39.165 0 23.264-17.034 37.365-38.445 37.365-23.303 0-38.925-15.896-38.925-38.385z" fill="#00beca"/>
    <path id="path3020" d="m48 492.65c0-3.5707 2.0023-6.1518 6-6.1518h65.272c3.4482 0 5.7277 2.7328 5.7277 6.0916v100.07c0 17.061 9.7145 36.903 39.696 36.903 29.199 0 44.304-18.168 44.304-55.263v-7.7981l31 59 4 20s-30.415 29.404-85.542 29.404c-27.361 0-110.46-4.4886-110.46-95.404z" fill="#00beca"/>
    <path id="path3024" d="m244 645.49 31-80 10-10v14c0 33.674 16.336 59.582 58.607 59.582 38.544 0 65.674-21.835 65.674-55.718 0-17.222-8.3368-30.888-8.3368-30.888l43.723 21.832 3.8327 53.193s-29.116 57.104-111.19 57.104c-64.09 0-93.309-29.104-93.309-29.104z" fill="#8c7b11"/>
    <path id="path3022" d="m244 645.49s-35-26.747-35-76.759v-143.24c0-11.518 7.4324-21.499 38.42-21.499 33.864 0 37.58 13.182 37.58 23.071v59.428h60c4.3293 0 6 2.5306 6 6.5402v35.46c0 3.353-1.368 6-5.3036 6h-39.696c-10.294 0-21-4-21-4v24c0 29.924-7.7325 60.491-41 91z"/>
    <path id="path3028" d="m448.5 617.49 9.5273-104.68 4.3046-18.215s19.014 27.722 67.453 116.9c30.764-55.936 50.383-122.78 50.383-122.78 1.3775-4.569 5.0253-5.6751 10.306-4.2834l33.207 10.263c4.0318 1.4388 6.2192 3.0316 3.9489 10.528-27.621 80.38-70.872 146.69-70.872 146.69-8.3269 12.34-16.809 22.817-44.912 22.817-22.673 0-30.569-7.7224-38.466-19.509z" fill="#ffab00"/>
    <path id="path3026" d="m448.5 617.49-51.768-81.572c-3.107-5.8139-5.4749-9.3396-5.4749-16.244 0.04-10.149 5.3137-17.488 23.196-28.691 3.8641-2.5391 17.791-8.0745 29.075-8.0745 15.217 0 26.57 15.75 26.57 48.701 0 53.615-21.597 85.881-21.597 85.881z" fill="#c80063"/>
   </g>
   <circle id="path3039" transform="matrix(1.1826 0 0 1.1826 -40.692 -83.593)" cx="286.76" cy="508.52" r="21.087" fill-rule="evenodd"/>
   <g id="g3056" transform="matrix(.027339 0 0 .027339 262.6 501.52)" fill="#fff">
    <path id="path3052" d="m949.17 764.91h-161.43c-15.346 0-23-14.825-23-60 0-42.126 5.7906-59 25-59h159.43v-175.8h126v175.8h187.7v119h-187.7v161.33c0 16.73-13.223 25-66 25-50.172 0-60-8.4284-60-24z"/>
    <path id="path3054" d="m1632.1 980.4c-46.515 0-76.143-2.4771-76.143-33.036v-545c-67.536 43.028-129.92 79.19-189.39 111.46l-58.968-118.95c127.73-76.038 199.37-118.59 246.86-150.13 12.828-8.4025 24.877-14.383 60.502-14.383h53c35.168 0 43 7.9598 43 32v688c0 24.847-28.253 30.036-78.857 30.036z"/>
   </g>
  </g>
 </g>
</svg>
