<svg height="74.122787" width="199" xmlns="http://www.w3.org/2000/svg"><g transform="matrix(.25482288 0 0 .25482288 -12.1809 -97.856389)"><path d="m47.801436 422.39499c0-20.97792 14.862423-38.14518 38.744954-38.14518 25.14388 0 38.625 18.01001 38.625 39.16479 0 23.2638-17.03438 37.36549-38.44507 37.36549-23.303206 0-38.924884-15.89551-38.924884-38.3851z" fill="#00beca"/><path d="m48 492.64501c0-3.57073 2.002309-6.1518 6-6.1518h65.2723c3.44818 0 5.7277 2.73283 5.7277 6.09155v100.06645c0 17.06099 9.71449 36.90334 39.69604 36.90334 29.19892 0 44.30396-18.16849 44.30396-55.2632v-7.79814l31 59 4 20s-30.41502 29.40373-85.54154 29.40373c-27.36141 0-110.45846-4.48857-110.45846-95.40373z" fill="#00beca"/><path d="m244 645.49321 31-80 10-10v14c0 33.67375 16.33605 59.58152 58.60656 59.58152 38.54378 0 65.6745-21.8349 65.6745-55.71836 0-17.22249-8.33677-30.88801-8.33677-30.88801l43.72302 21.83153 3.83269 53.19332s-29.1163 57.10384-111.19099 57.10384c-64.08958 0-93.30901-29.10384-93.30901-29.10384z" fill="#8c7b11"/><path d="m244 645.49321s-35-26.74653-35-76.75901v-143.24099c0-11.51805 7.43235-21.49932 38.41957-21.49932 33.86428 0 37.58043 13.18152 37.58043 23.07085v59.42847h60c4.3293 0 6 2.5306 6 6.54022v35.45978c0 3.35305-1.36798 6-5.3036 6h-39.6964c-10.29405 0-21-4-21-4v24c0 29.92446-7.73252 60.49107-41 91z"/><path d="m448.5 617.49321 9.52732-104.67543 4.3046-18.21507s19.01379 27.72197 67.45301 116.903c30.76369-55.93601 50.38301-122.77677 50.38301-122.77677 1.37747-4.56897 5.02528-5.67513 10.30561-4.2834l33.20698 10.2632c4.0318 1.43878 6.21917 3.03158 3.94891 10.52817-27.62063 80.38034-70.87179 146.68547-70.87179 146.68547-8.32694 12.34014-16.80925 22.81654-44.91212 22.81654-22.67268 0-30.56873-7.72236-38.46582-19.50857z" fill="#ffab00"/><path d="m448.5 617.49321-51.76793-81.57153c-3.10695-5.81387-5.4749-9.33964-5.4749-16.24446.04-10.14929 5.31369-17.48763 23.1957-28.69122 3.86409-2.53909 17.79081-8.07451 29.07489-8.07451 15.21703 0 26.56968 15.74989 26.56968 48.70109 0 53.61539-21.59744 85.88063-21.59744 85.88063z" fill="#c80063"/></g><circle cx="176.790718" cy="22.209285" fill-rule="evenodd" r="22.209283"/><g fill="#fff" transform="matrix(.02434701 0 0 .02434701 144.878915 7.711524)"><path d="m949.16553 764.90898h-161.43075c-15.34633 0-23-14.82515-23-60 0-42.12619 5.79062-59 25-59h159.43075v-175.79779h125.99997v175.79779h187.6967v119h-187.6967v161.32965c0 16.72978-13.2231 25-66 25-50.1718 0-59.99997-8.42839-59.99997-24z" fill="#fff"/><path d="m1632.1429 980.3979c-46.5146 0-76.1429-2.47709-76.1429-33.03572v-545c-67.5356 43.02833-129.9211 79.18982-189.3899 111.46243l-58.9676-118.94547c127.7314-76.0379 199.3666-118.59056 246.856-150.13392 12.828-8.40252 24.8774-14.38304 60.5015-14.38304h53c35.1679 0 43 7.95975 43 32v688c0 24.84715-28.2533 30.03572-78.8571 30.03572z" fill="#fff"/></g></svg>