<svg height="129.30609" width="267.59583" xmlns="http://www.w3.org/2000/svg"><g transform="translate(-7403.1997 -1985.2782)"><g transform="matrix(.02245897 0 0 .02245897 7475.965216 2040.888743)"><path d="m3873.2858 3280.9877c-88.223 0-145.655-10.3621-219.151-29.9587-19.673-5.5583-26.811-10.7252-26.811-31.906 0-20.7084 8.075-64.3581 14.828-78.941 7.732-16.2514 9.703-18.7243 22.47-18.7243 20.767 0 86.047 29.9588 200.122 29.9588 78.866 0 105.14-16.526 120.644-32.4131 11.664-12.9447 18.666-32.5274 18.666-54.9165 0-18.0753-3.935-40.5125-19.098-54.9743-52.968-49.8088-222.229-58.9894-289.552-128.5227-46.045-44.8698-56.397-105.8872-56.397-146.0485 0-67.171 24.872-114.3684 58.269-148.2955 53.19-53.9234 140.963-70.2169 226.339-70.2169 110.005 0 197.278 27.3759 197.278 27.3759l-14.081 127.4742s-95.355-25.1653-174.81-25.1653c-106.274 0-132.058 41.6554-131.818 82.2366 0 18.9819 6.614 35.4298 19.025 47.185 46.373 48.2536 214.643 50.6115 287.603 124.1787 44.134 44.0079 57.071 98.8909 57.071 153.9876 0 64.2772-17.865 119.7812-59.169 161.7769-49.923 49.1684-133.134 65.9091-231.428 65.9091z"/><path d="m-1054.8904 2526.029v710.4801c0 29.2543 11.417 39.5199 79.03998 39.5199 69.20598 0 77.84098-9.4477 77.84098-39.5199v-238.6358h104.1911l137.845 230.2154c7.146 12.1427 14.58 24.3509 19.648 29.2282 15.786 16.0934 50.942 18.7121 88.958 18.7121 63.899 0 78.477-10.8621 78.477-20.5833 0-6.8825-1.486-12.3995-11.712-27.2821l-158.168-244.6986s61.51-18.0584 95.17-55.313c54.438-55.1235 64.743-122.9656 64.743-171.7022 0-72.1577-19.655-127.4175-55.873-163.6186-57.258-55.2526-128.955-66.8022-230.348-66.8022zm156.88096 128.1405h144.9071c36.598.1078 66.906 6.4263 86.974 25.5982 18.987 19.5514 25.785 41.2316 25.785 76.2705 0 36.8779-7.384 66.5724-24.96 84.1669-16.647 17.2666-49.385 29.5278-86.602 29.5278h-146.1041z"/><path d="m-396.82736 2526.029h157.317v471.003c0 43.7639 9.204 91.0562 37.358 117.4937 20.551 17.8488 49.133 36.9311 114.527002 36.9311 58.627998 0 88.8939982-14.5314 113.046998-38.754 20.853-19.9761 35.487-57.3661 35.487-101.4547v-485.2191h158.264v475.7422c0 81.684-18.483 146.4483-71.313 201.7229-34.987 36.4105-96.086 77.8476-237.008998 77.8476-114.144002 0-185.059002-24.941-237.534002-77.7786-45.59-45.585-70.144-107.9778-70.144-197.0524z"/><path d="m2665.7535 3143.029h312v127h-437.8227c-21.5038 0-31.1773-9.086-31.1773-32.602v-711.398h157z"/><path d="m1999.2292 2526.0273c-28.2722 0-40.3528 9.3778-47.1933 31.137-67.7127 208.2124-131.6945 427.6051-197.4012 641.8357-7.5372 24.4488-12.1172 36.3436-12.1172 49.1065 0 22.6041 35.0029 25.9225 79.8309 25.9225 51.4619 0 69.9155-7.1159 79.2306-16.3188 3.7189-3.6491 6.7833-9.4119 9.8663-18.5697l35.8263-126.0487h289.9122l33.763 117.0453c2.8554 9.7044 5.1545 20.451 13.9179 28.9236 14.4931 13.9715 43.2393 14.9683 77.73 14.9683 50.7242 0 79.5308-5.1594 79.5308-26.973 0-8.589-1.2293-11.309-5.2145-24.3844-69.0649-235.7172-134.961-442.668-201.9781-659.9552-10.2708-31.1266-17.1192-36.6891-52.0702-36.6891zm78.5178 124.8858h29.5615c31.9676 109.998 63.0119 222.7777 93.8613 336.13h-218.4845c31.2774-111.6274 61.6901-222.4084 95.0617-336.13z"/><path d="m-2303.2852 3276.029c-65.456 0-79.831-9.7254-79.831-37.4812v-239.8943c-153.631-250.2516-208.539-361.0391-264.012-472.6245h174.014c27.099 63.5919 84.635 174.2222 164.412 319.2248h8.4c35.403-72.7671 41.267-73.5325 147.612-319.2248h173.562c-48.022 104.4785-107.414 225.4371-246.767 471.6365v240.9796c0 25.8724-12.311 37.3839-77.39 37.3839z"/><path d="m3076.5639 3270.029c-22.112 0-29.9645-11.2845-29.9645-29.9644v-680.3281c0-23.478 6.9241-33.7075 43.1488-33.7075h462.6515v128.2479h-348.8086v172.5954h298.4682v127.0494h-298.4682v189.058l356 .049v127z"/><path d="m793.98473 2526.029h156.67587c28.0737 194.7576 52.2439 347.7793 103.443 605.8364h13.4283l102.8213-571.3569c5.2335-28.5475 13.7843-34.4795 40.1719-34.4795h156.6749c25.0622 0 33.8143 6.5626 39.3843 32.4364l108.6868 573.4h13.4282c41.4404-209.792 63.1322-325.4154 102.3767-605.8364h155.5546c-65.0486 377.9212-87.6418 464.8333-141.8328 696.6347-4.6006 17.1927-8.2553 21.0573-12.1168 25.6798-10.3188 11.5609-25.3959 21.4819-108.3065 21.4819-64.535 0-90.7847-3.6375-109.7037-22.2821-7.1852-6.9049-9.4968-14.0432-14.1682-36.6677l-107.478-540.8849h-10.0737l-104.2474 546.0833c-3.5968 17.9262-5.3137 22.8366-12.2696 31.3723-8.1416 8.4721-18.658 22.579-112.2221 22.579-75.25847 0-91.138-6.7533-106.25418-21.4817-7.86381-8.5842-12.07393-22.8791-14.44789-34.9703-56.59946-234.3051-96.69862-438.729-139.525-687.5443z"/><path d="m-3235.7575 2900.8617c0-117.6982 24.2363-218.0158 98.5182-295.0251 57.1284-56.5713 140.9099-90.0436 272.0728-90.0436 110.8102 0 187.1494 20.4805 187.1494 20.4805l-7.5919 132.0639s-85.1356-17.3025-164.0205-17.3025c-81.4589 0-134.4841 20.4733-167.5517 56.1448-41.2899 42.2742-57.3807 117.0297-57.3807 192.2695 0 89.9837 21.242 151.2497 61.4415 192.9757 34.4139 35.4461 90.2577 53.673 160.4894 53.673 84.6571 0 146.4847-21.1867 161.5487-21.1867 11.999 0 17.5237 7.2004 21.3633 26.8365 4.8417 20.0954 9.1809 51.3114 9.1809 73.4473 0 23.8726-4.7947 24.8557-24.1881 32.8395-34.5462 12.906-120.1168 23.1288-188.3853 23.1288-117.7345 0-203.3649-26.1633-265.8933-85.4531-81.295-80.5908-96.7527-202.4628-96.7527-294.8485z"/><path d="m-1919.497 3276.064c-62.565 0-70.2912-11.7838-70.2912-29.6759 0-20.6506 32.4789-490.7252 58.8895-694.6384 2.6679-23.1074 15.9331-25.7207 41.105-25.7207h123.494c24.034 0 35.9622 6.1709 42.3957 26.0431l145.8668 470.9569h8.7621l132.6482-466.2917c4.562-16.8603 10.4789-30.7083 44.5798-30.7083h126.322c25.2965 0 38.3268 3.2308 41.3826 25.8454 23.6081 201.1862 41.2301 442.7525 57.357 673.1218l1.2468 21.0722c.7885 12.6027.2771 30.0652-68.9032 30.0652-69.1637 0-74.3057-11.403-76.5499-42.6732-7.16-182.6325-15.9924-383.9587-29.9494-533.4314h-8.4843c-26.3695 97.1596-78.524 262.6484-143.9983 483h-164.2652l-148.5919-483h-7.8966c-12.383 146.3032-20.964 317.0636-30.1266 537.0075-1.3858 23.6377-4.233 39.0275-74.9929 39.0275z"/></g><path d="m7403.1997 1998.4288c0-7.1884 5.0928-13.0709 13.2764-13.0709 8.6158 0 13.2353 6.1713 13.2353 13.4202 0 7.9717-5.8371 12.8037-13.1737 12.8037-7.9851 0-13.338-5.4467-13.338-13.153z" fill="#00beca"/><path d="m7403.2677 2022.5007c0-1.2235.6862-2.108 2.056-2.108h22.3663c1.1815 0 1.9626.9365 1.9626 2.0874v34.2888c0 5.8461 3.3288 12.6453 13.6023 12.6453 10.0053 0 15.1812-6.2256 15.1812-18.9365v-2.6721l10.6225 20.217 1.3707 6.8532s-10.4221 10.0755-29.3118 10.0755c-9.3757 0-37.8498-1.5381-37.8498-32.6911z" fill="#00beca"/><path d="m7470.4293 2074.8758 10.6224-27.4129 3.4267-3.4266v4.7973c0 11.5386 5.5977 20.4162 20.0821 20.4162 13.2075 0 22.5041-7.4819 22.5041-19.0925 0-5.9015-2.8567-10.5841-2.8567-10.5841l14.9822 7.4808 1.3133 18.2273s-9.977 19.5672-38.1008 19.5672c-21.961 0-31.9733-9.9727-31.9733-9.9727z" fill="#8c7b11"/><path d="m7470.4293 2074.8758s-11.9932-9.165-11.9932-26.3023v-49.0831c0-3.9468 2.5468-7.367 13.1649-7.367 11.604 0 12.8774 4.5168 12.8774 7.9055v20.3638h20.5596c1.4835 0 2.056.8672 2.056 2.2411v12.1507c0 1.1489-.4688 2.0559-1.8174 2.0559h-13.6024c-3.5273 0-7.1958-1.3706-7.1958-1.3706v8.2239c0 10.2539-2.6497 20.7279-14.0491 31.1821z"/><path d="m7540.5034 2065.2813 3.2646-35.8682 1.4751-6.2416s6.5152 9.4993 23.1134 40.0581c10.5416-19.1671 17.2643-42.0708 17.2643-42.0708.472-1.5656 1.722-1.9446 3.5314-1.4677l11.3787 3.5168c1.3815.493 2.131 1.0388 1.3531 3.6075-9.4645 27.5432-24.285 50.2634-24.285 50.2634-2.8533 4.2285-5.7598 7.8183-15.3896 7.8183-7.769 0-10.4747-2.6461-13.1807-6.6848z" fill="#ffab00"/><path d="m7540.5034 2065.2813-17.7388-27.9514c-1.0647-1.9922-1.8761-3.2003-1.8761-5.5663.014-3.4778 1.8208-5.9923 7.9483-9.8314 1.324-.87 6.0962-2.7668 9.9628-2.7668 5.2143 0 9.1044 5.3969 9.1044 16.688 0 18.3719-7.4006 29.4279-7.4006 29.4279z" fill="#c80063"/><circle cx="7640.9307" cy="2015.1431" fill-rule="evenodd" r="29.864866"/><path d="m7625.6941 2027.1029c-1.8567 0-2.2374-.5649-2.2374-1.2471v-22.4296h4.5394v7.9809c1.8329-1.0883 3.3341-1.6318 5.3997-1.6318 1.3807 0 2.8273.3053 4.0069 1.4919 1.3456 1.3408 1.6005 3.1845 1.6005 4.8572v9.7017c0 .9055-.6389 1.2758-2.3142 1.2758-1.7027 0-2.2251-.4598-2.2251-1.1634v-8.9537c0-.7265-.016-2.3406-.7161-3.0171-.3298-.3417-.9446-.5732-1.9592-.5732-1.5458 0-3.3121.865-3.7925 1.1575v11.4225c0 .5017-.3412 1.1284-2.302 1.1284z" fill="#fff"/><path d="m7654.8819 2003.4265v6.9722c-.5994-.217-1.6094-.624-3.4592-.624-1.6647 0-3.7717.2607-5.8067 2.1696-1.6088 1.5111-2.3068 3.9759-2.3068 6.6745 0 3.1056.6994 5.0206 2.1315 6.5003 1.4602 1.3925 3.2071 2.1315 7.0677 2.1315 2.9039 0 4.2946-.2302 6.1155-.5099.4468-.09.7974-.2362.7974-.8252v-22.489zm-2.7842 9.8176c1.2633 0 2.7842.4182 2.7842.4182v9.9094s-1.6135.2086-2.5645.2086c-1.4695 0-2.442-.4798-3.0939-1.1043-.92-.9085-1.2526-2.4892-1.2526-4.0154 0-1.9008.3079-3.3455 1.2999-4.4031.6094-.6077 1.6354-1.0134 2.8269-1.0134z" fill="#fff"/></g></svg>