<?xml version="1.0" encoding="UTF-8"?>
<!-- Created with Inkscape (http://www.inkscape.org/) -->
<svg id="svg6208" width="1e3" height="1108.7" version="1.1" xmlns="http://www.w3.org/2000/svg" xmlns:cc="http://creativecommons.org/ns#" xmlns:dc="http://purl.org/dc/elements/1.1/" xmlns:rdf="http://www.w3.org/1999/02/22-rdf-syntax-ns#">
 <defs id="defs6210">
  <clipPath id="clipPath3313">
   <path id="path3315" d="m54.567 770.57h111.6v44.641h-111.6v-44.641z"/>
  </clipPath>
 </defs>
 <metadata id="metadata6213">
  <rdf:RDF>
   <cc:Work rdf:about="">
    <dc:format>image/svg+xml</dc:format>
    <dc:type rdf:resource="http://purl.org/dc/dcmitype/StillImage"/>
    <dc:title/>
   </cc:Work>
  </rdf:RDF>
 </metadata>
 <g id="layer1" transform="translate(-147.56 391.92)">
  <circle id="path6240" transform="matrix(2.8607 0 0 2.8607 -317.91 -1281.8)" cx="337.5" cy="504.86" r="92.5" fill="#3ec8c2" fill-rule="evenodd"/>
  <circle id="path6242" transform="matrix(1.3131 0 0 1.3131 204.37 -932.91)" cx="337.5" cy="504.86" r="92.5" fill="#5ebea0" fill-rule="evenodd"/>
  <circle id="path6244" transform="matrix(1.3131 0 0 1.3131 204.37 -68.105)" cx="337.5" cy="504.86" r="92.5" fill="#879bab" fill-rule="evenodd"/>
  <circle id="path6246" transform="matrix(1.3131 0 0 1.3131 -173.66 -291.65)" cx="337.5" cy="504.86" r="92.5" fill="#eaa573" fill-rule="evenodd"/>
  <circle id="path6248" transform="matrix(1.3131 0 0 1.3131 582.41 -291.65)" cx="337.5" cy="504.86" r="92.5" fill="#5e4f81" fill-rule="evenodd"/>
  <circle id="path6250" transform="matrix(1.3131 0 0 1.3131 -173.66 -710)" cx="337.5" cy="504.86" r="92.5" fill="#a32e6c" fill-rule="evenodd"/>
  <circle id="path6252" transform="matrix(1.3131 0 0 1.3131 582.41 -710)" cx="337.5" cy="504.86" r="92.5" fill="#dd7181" fill-rule="evenodd"/>
  <g id="layer1-7" transform="matrix(2.5605 0 0 2.5605 268.53 34.285)" fill="#fff">
   <g id="g2993" transform="matrix(2.2177 0 0 -2.2177 -49.851 1804.2)" fill="#fff">
    <g id="g3309" fill="#fff">
     <g id="g3311" clip-path="url(#clipPath3313)" fill="#fff">
      <g id="g3321" transform="translate(79.442 808.54)" fill="#fff">
       <path id="path3323" d="m0 0c-1.802 0-3.282-0.326-4.012-0.992-0.497-0.452-0.725-1.057-0.725-1.94v-18.006c0-2.993-0.481-4.616-1.539-5.753-0.93-1-2.391-1.541-3.999-1.541-1.57 0-2.962 0.522-3.791 1.398-0.865 0.915-1.269 2.183-1.269 4.058v11.727c0 0.513-0.192 0.741-0.759 0.741h-7.971c-0.561 0-0.746-0.22-0.746-0.744v-10.601c0-4.232 1.091-6.648 2.996-8.553 2.475-2.475 6.705-3.58 10.725-3.58 4.014 0 8.2 1.423 10.673 3.708 2.428-2.213 6.839-3.706 11.708-3.706 6.432 0 11.161 2.659 13.921 7.181 1.225-1.898 2.13-3.309 3-4.595 1.281-1.893 2.447-2.588 5.056-2.588 2.471 0 3.954 0.593 5.291 2.637 3.505 5.36 6.492 11.698 8.645 17.53 0.27 0.73 0.462 1.262 0.462 1.595 0 0.342-0.222 0.61-0.753 0.778-0.514 0.163-1.896 0.587-2.589 0.798-1.152 0.351-1.57 0.454-1.82 0.454-0.466 0-0.719-0.261-0.881-0.799-1.615-5.373-4.072-11.411-6.264-15.162-0.718 1.37-2.045 3.753-3.277 5.901-1.905 3.325-3.787 6.68-4.732 8.221-0.955 1.558-1.594 1.973-2.851 1.973-2.59 0-6.427-2.324-6.427-4.491 0-0.736 0.205-1.287 0.968-2.59 0.868-1.482 1.304-2.685 1.304-4.163 0-3.685-2.752-7.023-8.067-7.023-2.523 0-4.47 0.716-5.739 2.018-1.21 1.243-1.799 2.914-1.799 5.704v4.682c0.886-0.38 1.975-0.572 3.287-0.572h4.208c0.567 0 0.766 0.228 0.766 0.74v4.508c0 0.513-0.199 0.741-0.766 0.741h-7.495v7.374c0 0.883-0.23 1.488-0.726 1.94-0.731 0.666-2.237 0.992-4.013 0.992m-20.074-7.04c-2.968 0-4.801 2.107-4.801 4.762 0 2.656 1.833 4.762 4.801 4.762s4.801-2.106 4.801-4.762c0-2.655-1.833-4.762-4.801-4.762" fill="#fff"/>
      </g>
     </g>
    </g>
   </g>
  </g>
 </g>
</svg>
