<?xml version="1.0" encoding="UTF-8" standalone="no"?>
<!-- Generator: Adobe Illustrator 16.0.0, SVG Export Plug-In . SVG Version: 6.00 Build 0)  -->

<svg
   xmlns:dc="http://purl.org/dc/elements/1.1/"
   xmlns:cc="http://creativecommons.org/ns#"
   xmlns:rdf="http://www.w3.org/1999/02/22-rdf-syntax-ns#"
   xmlns:svg="http://www.w3.org/2000/svg"
   xmlns="http://www.w3.org/2000/svg"
   xmlns:sodipodi="http://sodipodi.sourceforge.net/DTD/sodipodi-0.dtd"
   xmlns:inkscape="http://www.inkscape.org/namespaces/inkscape"
   version="1.1"
   id="svg2"
   sodipodi:docname="ITV Border.svg"
   inkscape:version="0.91 r13725"
   x="0px"
   y="0px"
   width="198.99886"
   height="129.33995"
   viewBox="0 0 198.99886 129.33995"
   enable-background="new 0 0 200 130.246"
   xml:space="preserve"><metadata
     id="metadata27"><rdf:RDF><cc:Work
         rdf:about=""><dc:format>image/svg+xml</dc:format><dc:type
           rdf:resource="http://purl.org/dc/dcmitype/StillImage" /><dc:title></dc:title></cc:Work></rdf:RDF></metadata><defs
     id="defs25" /><sodipodi:namedview
     inkscape:cy="106.35148"
     inkscape:cx="82.181045"
     inkscape:zoom="1.4142136"
     fit-margin-top="0"
     fit-margin-left="0"
     showgrid="false"
     guidetolerance="10"
     gridtolerance="10"
     objecttolerance="10"
     borderopacity="1"
     pagecolor="#ffffff"
     bordercolor="#666666"
     id="namedview4"
     inkscape:current-layer="svg2"
     inkscape:window-maximized="1"
     inkscape:window-y="-8"
     inkscape:window-x="-8"
     fit-margin-right="0"
     fit-margin-bottom="0"
     inkscape:window-height="1017"
     inkscape:window-width="1920"
     inkscape:pageshadow="2"
     inkscape:pageopacity="0"><inkscape:grid
       type="xygrid"
       enabled="true"
       visible="true"
       empspacing="5"
       id="grid2998"
       snapvisiblegridlinesonly="true"
       originx="-0.50057451"
       originy="-0.40602599" /></sodipodi:namedview><path
     id="path3018"
     inkscape:connector-curvature="0"
     sodipodi:nodetypes="ccccc"
     d="M 4.5564e-7,13.07091 C 4.5564e-7,5.8828494 5.092671,-4.11e-6 13.276512,-4.11e-6 c 8.615598,0 13.235393,6.17137651 13.235393,13.42043111 0,7.971732 -5.836937,12.803636 -13.173713,12.803636 C 5.3524103,26.224063 4.5564e-7,20.77742 4.5564e-7,13.07091 Z"
     style="fill:#00beca" /><path
     id="path3020"
     inkscape:connector-curvature="0"
     sodipodi:nodetypes="ccccccccccccc"
     d="m 0.0678479,37.143047 c 0,-1.223653 0.68601309,-2.108068 2.0559833,-2.108068 l 22.3660138,0 c 1.181505,0 1.962779,0.9365 1.962779,2.087508 l 0,34.289004 c 0,5.845846 3.328637,12.645325 13.602043,12.645325 10.005442,0 15.181723,-6.225517 15.181723,-18.936976 l 0,-2.671751 10.62258,20.217169 1.370656,6.853621 c 0,0 -10.422465,10.075003 -29.311811,10.075003 -9.375969,0 -37.8499671,-1.538218 -37.8499671,-32.691162 l 0,-29.759673 z"
     style="fill:#00beca" /><path
     id="path3024"
     inkscape:connector-curvature="0"
     sodipodi:nodetypes="ccccccccccc"
     d="m 67.229626,89.518879 10.62258,-27.413454 3.426639,-3.426638 0,4.797294 c 0,11.539206 5.597757,20.415914 20.081815,20.415914 13.20695,0 22.50377,-7.481381 22.50377,-19.092203 0,-5.901358 -2.85542,-10.58386 -2.85542,-10.58386 l 14.98126,7.481038 1.31343,18.226635 c 0,0 -9.97666,19.568163 -38.100793,19.568163 -21.960985,-3.43e-4 -31.973281,-9.972889 -31.973281,-9.972889 z"
     style="fill:#8c7b11" /><path
     id="path3022"
     inkscape:connector-curvature="0"
     sodipodi:nodetypes="cccccccccccccc"
     d="m 67.229626,89.518879 c 0,0 -11.993236,-9.165917 -11.993236,-26.302537 l 0,-49.083174 c 0,-3.947146 2.546678,-7.3672738 13.165146,-7.3672738 11.60397,0 12.877309,4.5166528 12.877309,7.9052558 l 0,20.364172 20.559485,0 c 1.4834,0 2.05565,0.867282 2.05565,2.241364 l 0,12.150176 c 0,1.149295 -0.46877,2.055983 -1.81647,2.055983 l -13.602724,0 c -3.527382,0 -7.195941,-1.370655 -7.195941,-1.370655 l 0,8.223933 c 0,10.253874 -2.64982,20.727738 -14.049219,31.182756 z"
     style="fill:#ffffff;fill-opacity:1" /><path
     id="path3028"
     inkscape:connector-curvature="0"
     sodipodi:nodetypes="cccccccccccc"
     d="m 137.30405,79.923262 3.26456,-35.867656 1.47551,-6.241623 c 0,0 6.51472,9.499328 23.11336,40.058436 10.54103,-19.167247 17.26375,-42.071244 17.26375,-42.071244 0.47253,-1.565974 1.72257,-1.94496 3.53218,-1.467629 l 11.37781,3.517102 c 1.38265,0.492751 2.13171,1.038614 1.35352,3.607565 -9.46472,27.543323 -24.28493,50.263994 -24.28493,50.263994 -2.85336,4.228473 -5.75984,7.818219 -15.38972,7.818219 -7.76853,0 -10.47455,-2.646393 -13.18057,-6.685372 l -8.52547,-12.931792 z"
     style="fill:#ffab00" /><path
     id="path3026"
     inkscape:connector-curvature="0"
     sodipodi:nodetypes="ccccccc"
     d="m 137.30405,79.923262 -17.73834,-27.95075 c -1.06534,-1.992248 -1.87677,-3.200481 -1.87677,-5.566232 0.0137,-3.478039 1.82023,-5.992506 7.94911,-9.83137 1.32337,-0.870023 6.09565,-2.76701 9.96296,-2.76701 5.21397,0 9.10355,5.396956 9.10355,16.688416 0,18.372266 -7.40051,29.426946 -7.40051,29.426946 l 0,0 z"
     style="fill:#c80063" /><path
     inkscape:connector-curvature="0"
     id="path17"
     d="m 12.486265,121.50405 c -0.441417,-0.5957 -1.09671,-1.05175 -1.940959,-1.35351 0.47901,-0.27247 0.869664,-0.61327 1.152852,-1.02733 0.431129,-0.62598 0.637689,-1.37891 0.695812,-2.20997 0.0078,-0.1162 0.01171,-0.23242 0.01171,-0.3457 0.01126,-1.92382 -1.189905,-3.51366 -3.1088708,-3.94823 -0.7211823,-0.16796 -1.4711787,-0.25681 -2.2094468,-0.27049 -1.0395543,-0.0186 -2.0781181,-0.0234 -3.1152187,-0.0234 -0.9599782,0 -1.9179529,0.004 -2.8754999,0.004 l -0.15379458,0 c -0.17090291,0.002 -0.29342985,0.0391 -0.37203798,0.0479 l -0.2768618,0.0371 -0.0283187,0.27831 c -0.007339,0.0801 -0.0219932,0.14843 -0.0234789,0.26072 -4.7273e-4,2.74901 -0.001441,5.49705 -0.001441,8.2451 0,2.27734 4.7273e-4,4.55368 0.002454,6.83102 4.7273e-4,0.15819 0.0121784,0.30566 0.0531933,0.44824 0.0537336,0.21192 0.2143715,0.42188 0.42383561,0.51757 0.20606496,0.0996 0.42282259,0.11915 0.67480989,0.12404 0.6401655,0.006 1.2832124,0.0137 1.9281953,0.0137 0.4570392,0 0.9150239,-0.005 1.3745393,-0.0176 1.4150139,-0.0371 2.8534842,-0.0361 4.2895233,-0.20312 1.1826115,-0.1367 2.1537995,-0.53612 2.8676885,-1.20116 0.714857,-0.66404 1.152312,-1.58494 1.312499,-2.69626 0.04932,-0.334 0.07422,-0.66212 0.07422,-0.98049 9.23e-4,-0.94429 -0.226618,-1.81929 -0.755399,-2.53023 z m -4.9946105,-2.5293 c -0.7778648,0.0547 -1.5649591,0.0635 -2.3579288,0.0635 -0.37107,0 -0.7431755,-9.9e-4 -1.1171944,-9.9e-4 -0.1596475,0 -0.3203079,0 -0.4804731,9.9e-4 0,-1.28222 0,-2.56836 0,-3.85058 0.7670821,-0.003 1.5322283,-0.0215 2.2890904,-0.0215 0.5810744,0 1.1591773,0.0108 1.7309322,0.0489 0.5918346,0.0381 0.9892874,0.17871 1.2290062,0.41211 0.2402365,0.23046 0.3945489,0.59962 0.3964848,1.26367 0,0.17968 -0.012178,0.37793 -0.036625,0.59863 -0.060532,0.50978 -0.2177706,0.84182 -0.4638375,1.06837 -0.2471248,0.22752 -0.6216165,0.37694 -1.1894545,0.41697 z m -3.9526474,2.85353 c 0.1537946,-9.9e-4 0.3120239,-0.003 0.4594479,-0.002 0.1601652,-9.9e-4 0.316436,9.7e-4 0.4722116,0.005 1.270021,0.0312 2.5273235,0.002 3.7455694,0.12598 0.6162365,0.0664 1.0268807,0.2744 1.2988126,0.58496 0.2710089,0.30957 0.4233628,0.75291 0.4238356,1.3535 l -0.00682,0.23926 c -0.048849,0.75489 -0.2065602,1.21974 -0.4882844,1.50878 -0.2787977,0.29201 -0.7568396,0.48632 -1.5918147,0.56151 -0.5819973,0.0527 -1.170883,0.0684 -1.7675574,0.0684 -0.8305629,0 -1.6806653,-0.0283 -2.5453998,-0.0371 0,-1.46191 0,-2.91796 0,-4.40818 z"
     style="fill:#ffffff;fill-opacity:1" /><path
     d="m 22.320678,112.11932 c -2.405292,0 -4.360343,0.76758 -5.526836,2 -1.177254,1.24022 -2.162579,2.96386 -2.162579,6.63863 0,2.62304 0.471671,4.81835 2.157221,6.60934 1.187496,1.26172 2.935042,1.97266 5.562966,1.97266 2.243124,0 4.061511,-0.50978 5.526341,-2.02734 1.531216,-1.6211 2.113258,-3.82618 2.113258,-6.55468 0,-2.66406 -0.563471,-5.00584 -2.123027,-6.59176 -0.991201,-1.03904 -2.665496,-2.04685 -5.547344,-2.04685 z m 0.01711,2.96872 c 1.119131,0 1.949694,0.31348 2.733366,1.06055 0.971707,0.91991 1.299826,2.7207 1.299826,4.58593 0,1.7129 -0.262703,3.50585 -1.292982,4.60251 -0.503907,0.48633 -1.366211,1.06349 -2.747075,1.06349 -1.287085,0 -2.12645,-0.42384 -2.729967,-0.98245 -1.200643,-1.16991 -1.353987,-3.22849 -1.353987,-4.70408 0,-1.9824 0.312024,-3.54977 1.343744,-4.6318 0.680168,-0.60742 1.686518,-0.99415 2.747075,-0.99415 z"
     inkscape:connector-curvature="0"
     id="path3034"
     style="fill:#ffffff;fill-opacity:1" /><path
     d="m 31.965167,112.30679 0,15.95698 c 0,0.65624 0.256376,0.88673 1.774941,0.88673 1.554176,0 1.748018,-0.21093 1.748018,-0.88673 l 0,-5.35936 2.340302,0 3.095725,5.16991 c 0.160615,0.27344 0.327601,0.54688 0.441371,0.65623 0.354502,0.36135 1.14405,0.41992 1.998024,0.41992 1.435072,0 1.762223,-0.24316 1.762223,-0.46093 0,-0.15528 -0.0332,-0.27929 -0.263175,-0.61329 l -3.552246,-5.49606 c 0,0 1.381833,-0.40527 2.137704,-1.2422 1.222636,-1.23828 1.454071,-2.76171 1.454071,-3.85547 0,-1.62108 -0.441372,-2.86228 -1.254849,-3.67576 -1.286116,-1.24022 -2.89648,-1.50002 -5.173325,-1.50002 l -6.508784,0 z m 3.522959,2.87793 3.254853,0 c 0.821784,0.003 1.502469,0.14457 1.953138,0.57522 0.426267,0.43944 0.579093,0.92576 0.579093,1.71288 0,0.82813 -0.165973,1.49511 -0.560522,1.89063 -0.374018,0.38671 -1.10936,0.66209 -1.94483,0.66209 l -3.28171,0 0,-4.84082 z"
     sodipodi:nodetypes="csssccccsscccscsccccscscc"
     inkscape:connector-curvature="0"
     id="path3036"
     style="fill:#ffffff;fill-opacity:1" /><path
     d="m 76.937663,112.30679 0,15.95698 c 0,0.65624 0.256377,0.88673 1.774896,0.88673 1.554221,0 1.748063,-0.21093 1.748063,-0.88673 l 0,-5.35936 2.340302,0 3.095702,5.16991 c 0.160661,0.27344 0.327647,0.54688 0.441912,0.65623 0.353489,0.36135 1.143532,0.41992 1.998024,0.41992 1.434599,0 1.76175,-0.24316 1.76175,-0.46093 0,-0.15528 -0.03325,-0.27929 -0.263671,-0.61329 l -3.55175,-5.49606 c 0,0 1.381833,-0.40527 2.137659,-1.2422 1.222659,-1.23828 1.454116,-2.76171 1.454116,-3.85547 0,-1.62108 -0.441372,-2.86228 -1.254849,-3.67576 -1.286161,-1.24022 -2.89648,-1.50002 -5.173324,-1.50002 l -6.50883,0 z m 3.522959,2.87793 3.254854,0 c 0.821783,0.003 1.502423,0.14457 1.953137,0.57522 0.426267,0.43944 0.579093,0.92576 0.579093,1.71288 0,0.82813 -0.166018,1.49511 -0.560521,1.89063 -0.374019,0.38671 -1.109361,0.66209 -1.944831,0.66209 l -3.28171,0 0,-4.84082 z"
     sodipodi:nodetypes="csssccccsscccscsccccscscc"
     inkscape:connector-curvature="0"
     id="path3036_1_"
     style="fill:#ffffff;fill-opacity:1" /><path
     inkscape:connector-curvature="0"
     id="path22"
     d="m 61.433852,119.92984 c -0.179682,-2.31835 -0.746125,-4.06642 -1.904334,-5.30271 -1.158164,-1.23437 -2.855465,-1.8965 -5.164005,-2.15432 -0.917973,-0.10157 -1.837904,-0.12888 -2.753896,-0.12888 -1.027376,0 -2.05079,0.0351 -3.060562,0.0332 -0.117169,0 -0.234339,0 -0.349572,0 l 0,0 -0.02735,0 c -0.224636,0 -0.429688,0.0351 -0.611352,0.11717 -0.273417,0.12306 -0.460911,0.3633 -0.548793,0.60743 -0.08986,0.24411 -0.107445,0.49801 -0.109381,0.75583 l 0,0.0195 0,0 c 0.0039,1.06839 0.0059,2.13476 0.0059,3.20509 0,1.17772 -0.0019,2.35351 -0.0019,3.5332 l 0,0.12108 c 0,1.23241 0.0039,2.46484 0.0039,3.69724 0,1.01171 -0.002,2.02344 -0.01173,3.03319 l 0,0 0,0.043 c 0.0019,0.4414 0.07422,0.84569 0.343742,1.16015 0.273462,0.31641 0.695339,0.44335 1.17579,0.43944 l 0.0488,0 c 0.359386,-0.006 0.720709,-0.008 1.082054,-0.008 0.869125,0 1.740207,0.0117 2.615229,0.0117 0.775389,0 1.552736,-0.008 2.331996,-0.041 3.166049,-0.12501 5.568369,-1.90821 6.425765,-4.72068 0.35547,-1.1504 0.544922,-2.33204 0.544922,-3.5332 0,-0.29487 -0.01173,-0.59177 -0.03516,-0.88862 z m -11.021482,5.49217 0,-0.002 c 0.0098,-0.666 0.01173,-1.33005 0.01173,-1.99413 0,-0.90428 -0.0039,-1.80663 -0.0039,-2.70898 l 0,-0.002 -0.002,-0.10353 c 0,-0.81642 0.01366,-1.63476 0.01366,-2.45898 0,-0.59179 -0.0059,-1.18749 -0.02929,-1.78318 l 0,-0.002 -0.0019,-0.0977 c 0,-0.35939 0.07809,-0.52928 0.16012,-0.60937 0.08012,-0.084 0.240237,-0.15429 0.568356,-0.15429 l 0.160165,0.004 c 0.867188,0.0508 1.714837,0.0117 2.533177,0.0508 1.226575,0.0547 2.064453,0.32222 2.646473,0.82419 0.58202,0.50391 0.964841,1.28517 1.175746,2.4961 0.111361,0.63085 0.169935,1.26757 0.169935,1.90038 0,0.71681 -0.07615,1.43165 -0.23632,2.13867 -0.244153,1.06837 -0.646491,1.80274 -1.22653,2.29492 -0.578171,0.48826 -1.367178,0.76366 -2.462875,0.8203 -0.298832,0.0156 -0.599623,0.0195 -0.904308,0.0195 -0.421855,0 -0.849608,-0.008 -1.283213,-0.008 -0.230467,0 -0.462892,0.002 -0.695295,0.01 l -0.06053,0.002 c -0.281251,-0.004 -0.375032,-0.0645 -0.423835,-0.11915 -0.05277,-0.0547 -0.111317,-0.20118 -0.109381,-0.48437 l 0,-0.0332 0,0 z"
     style="fill:#ffffff;fill-opacity:1" /><path
     d="m 63.992871,129.08409 c -0.496073,0 -0.671861,-0.25291 -0.671861,-0.67186 l 0,-15.27927 c 0,-0.52734 0.15429,-0.7578 0.968757,-0.7578 l 10.390591,0 0,2.88088 -7.833981,0 0,3.87595 6.7031,0 0,2.85353 -6.7031,0 0,4.24508 7.995069,0.002 0,2.85153 -10.848575,0 z"
     sodipodi:nodetypes="ccccccccccccccc"
     inkscape:connector-curvature="0"
     id="path3202"
     style="fill:#ffffff;fill-opacity:1" /></svg>