<?xml version="1.0" encoding="UTF-8" standalone="no"?>
<!-- Created with Inkscape (http://www.inkscape.org/) -->

<svg
   xmlns:dc="http://purl.org/dc/elements/1.1/"
   xmlns:cc="http://creativecommons.org/ns#"
   xmlns:rdf="http://www.w3.org/1999/02/22-rdf-syntax-ns#"
   xmlns:svg="http://www.w3.org/2000/svg"
   xmlns="http://www.w3.org/2000/svg"
   xmlns:sodipodi="http://sodipodi.sourceforge.net/DTD/sodipodi-0.dtd"
   xmlns:inkscape="http://www.inkscape.org/namespaces/inkscape"
   width="199"
   height="74.122787"
   id="svg2"
   version="1.1"
   inkscape:version="0.91 r13725"
   sodipodi:docname="ITV +1.svg">
  <defs
     id="defs4" />
  <sodipodi:namedview
     id="base"
     pagecolor="#ffffff"
     bordercolor="#666666"
     borderopacity="1.0"
     inkscape:pageopacity="0.0"
     inkscape:pageshadow="2"
     inkscape:zoom="2.8"
     inkscape:cx="66.099012"
     inkscape:cy="9.134691"
     inkscape:document-units="px"
     inkscape:current-layer="layer1"
     showgrid="false"
     inkscape:window-width="1920"
     inkscape:window-height="1017"
     inkscape:window-x="-8"
     inkscape:window-y="-8"
     inkscape:window-maximized="1"
     fit-margin-left="0"
     fit-margin-top="0"
     fit-margin-bottom="0"
     fit-margin-right="0">
    <inkscape:grid
       type="xygrid"
       id="grid2996"
       empspacing="5"
       visible="true"
       enabled="true"
       snapvisiblegridlinesonly="true"
       originx="-0.50000006"
       originy="-0.4999945" />
  </sodipodi:namedview>
  <metadata
     id="metadata7">
    <rdf:RDF>
      <cc:Work
         rdf:about="">
        <dc:format>image/svg+xml</dc:format>
        <dc:type
           rdf:resource="http://purl.org/dc/dcmitype/StillImage" />
        <dc:title></dc:title>
      </cc:Work>
    </rdf:RDF>
  </metadata>
  <g
     inkscape:label="Layer 1"
     inkscape:groupmode="layer"
     id="layer1"
     transform="translate(-99.923909,-501.9714)">
    <path
       style="fill:#00beca;fill-opacity:1;stroke:none"
       d="m 99.923909,511.75092 c 0,-5.34566 3.787281,-9.72027 9.873101,-9.72027 6.40724,0 9.84253,4.58937 9.84253,9.98009 0,5.92815 -4.34075,9.52158 -9.79668,9.52158 -5.93819,0 -9.918951,-4.05054 -9.918951,-9.7814 z"
       id="path3018"
       inkscape:connector-curvature="0"
       sodipodi:nodetypes="ccccc" />
    <path
       style="fill:#00beca;fill-opacity:1;stroke:none"
       d="m 99.974507,529.65223 c 0,-0.9099 0.510233,-1.56762 1.528933,-1.56762 l 16.63288,0 c 0.87868,0 1.45955,0.69639 1.45955,1.55227 l 0,25.49922 c 0,4.34753 2.47547,9.40381 10.11546,9.40381 7.44055,0 11.28966,-4.62974 11.28966,-14.08232 l 0,-1.98715 7.89951,15.03455 1.01929,5.09646 c 0,0 -7.75044,7.49274 -21.79794,7.49274 -6.97231,0 -28.147343,-1.14379 -28.147343,-24.31105 z"
       id="path3020"
       inkscape:connector-curvature="0"
       sodipodi:nodetypes="ccccccccccccc" />
    <path
       style="fill:#8c7b11;fill-opacity:1;stroke:none"
       d="m 149.91979,568.60145 7.89951,-20.38583 2.54823,-2.54823 0,3.56752 c 0,8.58084 4.1628,15.18273 14.93429,15.18273 9.82184,0 16.73537,-5.56403 16.73537,-14.19831 0,-4.38868 -2.1244,-7.87097 -2.1244,-7.87097 l 11.14162,5.56317 0.97666,13.55488 c 0,0 -7.4195,14.55136 -28.33401,14.55136 -16.33149,0 -23.77727,-7.41632 -23.77727,-7.41632 z"
       id="path3024"
       inkscape:connector-curvature="0"
       sodipodi:nodetypes="ccccccccccc" />
    <path
       style="fill:#ffffff;fill-opacity:1;stroke:none"
       d="m 149.91979,568.60145 c 0,0 -8.9188,-6.81563 -8.9188,-19.55995 l 0,-36.50108 c 0,-2.93507 1.89393,-5.47852 9.79019,-5.47852 8.62939,0 9.57635,3.35895 9.57635,5.87898 l 0,15.14373 15.28937,0 c 1.10321,0 1.52894,0.64486 1.52894,1.6666 l 0,9.03596 c 0,0.85444 -0.34859,1.52894 -1.35148,1.52894 l -10.11555,0 c -2.62316,0 -5.35128,-1.01929 -5.35128,-1.01929 l 0,6.11575 c 0,7.62543 -1.97042,15.41451 -10.44774,23.18888 z"
       id="path3022"
       inkscape:connector-curvature="0"
       sodipodi:nodetypes="cccccccccccccc" />
    <path
       style="fill:#ffab00;fill-opacity:1;stroke:none"
       d="m 202.03107,561.46641 2.42778,-26.6737 1.09691,-4.64161 c 0,0 4.84515,7.06419 17.18857,29.78956 7.83929,-14.25378 12.83874,-31.28633 12.83874,-31.28633 0.35102,-1.16428 1.28056,-1.44616 2.62611,-1.09151 l 8.4619,2.6153 c 1.02739,0.36663 1.58478,0.77251 1.00627,2.68281 -7.03837,20.48275 -18.05975,37.37882 -18.05975,37.37882 -2.1219,3.14455 -4.28338,5.81417 -11.44464,5.81417 -5.77752,0 -7.78961,-1.96783 -9.80197,-4.97123 z"
       id="path3028"
       inkscape:connector-curvature="0"
       sodipodi:nodetypes="cccccccccccc" />
    <path
       style="fill:#c80063;fill-opacity:1;stroke:none"
       d="m 202.03107,561.46641 -13.19165,-20.78629 c -0.79172,-1.48151 -1.39513,-2.37996 -1.39513,-4.13946 0.0102,-2.58628 1.35405,-4.45625 5.91079,-7.31118 0.98466,-0.64702 4.53351,-2.05757 7.40895,-2.05757 3.87765,0 6.77056,4.01343 6.77056,12.41015 0,13.66243 -5.50352,21.88435 -5.50352,21.88435 z"
       id="path3026"
       inkscape:connector-curvature="0"
       sodipodi:nodetypes="ccccccc" />
    <circle
       r="22.209284"
       cy="524.18066"
       cx="276.71463"
       style="fill:#ffffff;fill-opacity:1;fill-rule:evenodd;stroke:none"
       id="path3039" />
    <g
       id="g3056"
       transform="matrix(0.02434701,0,0,0.02434701,244.80282,509.68292)"
       style="fill:#000000;fill-opacity:1">
      <path
         sodipodi:nodetypes="ccccccccccccccc"
         inkscape:connector-curvature="0"
         id="path3052"
         d="m 949.16553,764.90898 -161.43075,0 c -15.34633,0 -23,-14.82515 -23,-60 0,-42.12619 5.79062,-59 25,-59 l 159.43075,0 0,-175.79779 125.99997,0 0,175.79779 187.6967,0 0,119 -187.6967,0 0,161.32965 c 0,16.72978 -13.2231,25 -66,25 -50.1718,0 -59.99997,-8.42839 -59.99997,-24 z"
         style="fill:#000000;stroke:none;fill-opacity:1" />
      <path
         sodipodi:nodetypes="ccccccccccc"
         inkscape:connector-curvature="0"
         id="path3054"
         d="m 1632.1429,980.3979 c -46.5146,0 -76.1429,-2.47709 -76.1429,-33.03572 l 0,-545 c -67.5356,43.02833 -129.9211,79.18982 -189.3899,111.46243 l -58.9676,-118.94547 c 127.7314,-76.0379 199.3666,-118.59056 246.856,-150.13392 12.828,-8.40252 24.8774,-14.38304 60.5015,-14.38304 l 53,0 c 35.1679,0 43,7.95975 43,32 l 0,688 c 0,24.84715 -28.2533,30.03572 -78.8571,30.03572 z"
         style="fill:#000000;stroke:none;fill-opacity:1" />
    </g>
  </g>
</svg>
