<svg height="1108.7367" width="1000" xmlns="http://www.w3.org/2000/svg" xmlns:xlink="http://www.w3.org/1999/xlink"><clipPath id="a"><path d="m54.567 770.569h111.602v44.641h-111.602z"/></clipPath><g fill-rule="evenodd"><circle cx="500.002009" cy="554.334374" fill="#3ec8c2" r="264.611244"/><circle cx="500.001989" cy="121.965569" fill="#5ebea0" r="121.46557"/><circle cx="500.001989" cy="986.771065" fill="#879bab" r="121.46557"/><circle cx="121.965569" cy="763.227419" fill="#eaa573" r="121.46557"/><circle cx="878.034429" cy="763.227419" fill="#5e4f81" r="121.46557"/><circle cx="121.965569" cy="344.880989" fill="#a32e6c" r="121.46557"/><circle cx="878.034429" cy="344.880989" fill="#dd7181" r="121.46557"/></g><g clip-path="url(#a)" fill="#fff" transform="matrix(5.67834316 0 0 -5.67834316 -6.66454 5045.85694)"><g fill="#fff" transform="translate(79.4419 808.537)"><path d="m0 0c-1.802 0-3.282-.326-4.012-.992-.497-.452-.725-1.057-.725-1.94v-18.006c0-2.993-.481-4.616-1.539-5.753-.93-1-2.391-1.541-3.999-1.541-1.57 0-2.962.522-3.791 1.398-.865.915-1.269 2.183-1.269 4.058v11.727c0 .513-.192.741-.759.741h-7.971c-.561 0-.746-.22-.746-.744v-10.601c0-4.232 1.091-6.648 2.996-8.553 2.475-2.475 6.705-3.58 10.725-3.58 4.014 0 8.2 1.423 10.673 3.708 2.428-2.213 6.839-3.706 11.708-3.706 6.432 0 11.161 2.659 13.921 7.181 1.225-1.898 2.13-3.309 3-4.595 1.281-1.893 2.447-2.588 5.056-2.588 2.471 0 3.954.593 5.291 2.637 3.505 5.36 6.492 11.698 8.645 17.53.27.73.462 1.262.462 1.595 0 .342-.222.61-.753.778-.514.163-1.896.587-2.589.798-1.152.351-1.57.454-1.82.454-.466 0-.719-.261-.881-.799-1.615-5.373-4.072-11.411-6.264-15.162-.718 1.37-2.045 3.753-3.277 5.901-1.905 3.325-3.787 6.68-4.732 8.221-.955 1.558-1.594 1.973-2.851 1.973-2.59 0-6.427-2.324-6.427-4.491 0-.736.205-1.287.968-2.59.868-1.482 1.304-2.685 1.304-4.163 0-3.685-2.752-7.023-8.067-7.023-2.523 0-4.47.716-5.739 2.018-1.21 1.243-1.799 2.914-1.799 5.704v4.682c.886-.38 1.975-.572 3.287-.572h4.208c.567 0 .766.228.766.74v4.508c0 .513-.199.741-.766.741h-7.495v7.374c0 .883-.23 1.488-.726 1.94-.731.666-2.237.992-4.013.992m-20.074-7.04c-2.968 0-4.801 2.107-4.801 4.762 0 2.656 1.833 4.762 4.801 4.762s4.801-2.106 4.801-4.762c0-2.655-1.833-4.762-4.801-4.762" fill="#fff"/></g></g></svg>