<?xml version="1.0" encoding="UTF-8" standalone="no"?>
<!-- Created with Inkscape (http://www.inkscape.org/) -->

<svg
   xmlns:dc="http://purl.org/dc/elements/1.1/"
   xmlns:cc="http://creativecommons.org/ns#"
   xmlns:rdf="http://www.w3.org/1999/02/22-rdf-syntax-ns#"
   xmlns:svg="http://www.w3.org/2000/svg"
   xmlns="http://www.w3.org/2000/svg"
   xmlns:sodipodi="http://sodipodi.sourceforge.net/DTD/sodipodi-0.dtd"
   xmlns:inkscape="http://www.inkscape.org/namespaces/inkscape"
   width="1000"
   height="1108.7367"
   id="svg6208"
   version="1.1"
   inkscape:version="0.91 r13725"
   sodipodi:docname="ITV Hub.svg">
  <defs
     id="defs6210">
    <clipPath
       clipPathUnits="userSpaceOnUse"
       id="clipPath2999">
      <path
         inkscape:connector-curvature="0"
         d="m 0,0 595.275,0 0,841.89 L 0,841.89 0,0 Z"
         id="path3001" />
    </clipPath>
    <clipPath
       clipPathUnits="userSpaceOnUse"
       id="clipPath3241">
      <path
         inkscape:connector-curvature="0"
         d="m 418.98,462.613 52.844,0 0,52.415 -52.844,0 0,-52.415 z"
         id="path3243" />
    </clipPath>
    <clipPath
       clipPathUnits="userSpaceOnUse"
       id="clipPath3273">
      <path
         inkscape:connector-curvature="0"
         d="m 502.866,289.864 36.883,0 0,36.582 -36.883,0 0,-36.582 z"
         id="path3275" />
    </clipPath>
    <clipPath
       clipPathUnits="userSpaceOnUse"
       id="clipPath3313">
      <path
         inkscape:connector-curvature="0"
         d="m 54.567,770.569 111.602,0 0,44.641 -111.602,0 0,-44.641 z"
         id="path3315" />
    </clipPath>
    <clipPath
       clipPathUnits="userSpaceOnUse"
       id="clipPath3329">
      <path
         inkscape:connector-curvature="0"
         d="m 0,0 595.276,0 0,841.89 L 0,841.89 0,0 Z"
         id="path3331" />
    </clipPath>
    <clipPath
       clipPathUnits="userSpaceOnUse"
       id="clipPath3345">
      <path
         inkscape:connector-curvature="0"
         d="m 54.653,390.889 166.138,0 0,134.905 -166.138,0 0,-134.905 z"
         id="path3347" />
    </clipPath>
    <clipPath
       clipPathUnits="userSpaceOnUse"
       id="clipPath3357">
      <path
         inkscape:connector-curvature="0"
         d="m 54.653,534.298 166.138,0 0,134.905 -166.138,0 0,-134.905 z"
         id="path3359" />
    </clipPath>
    <clipPath
       clipPathUnits="userSpaceOnUse"
       id="clipPath3369">
      <path
         inkscape:connector-curvature="0"
         d="m 229.295,534.298 166.138,0 0,134.905 -166.138,0 0,-134.905 z"
         id="path3371" />
    </clipPath>
    <clipPath
       clipPathUnits="userSpaceOnUse"
       id="clipPath3381">
      <path
         inkscape:connector-curvature="0"
         d="m 229.295,390.889 166.138,0 0,134.905 -166.138,0 0,-134.905 z"
         id="path3383" />
    </clipPath>
    <clipPath
       clipPathUnits="userSpaceOnUse"
       id="clipPath3401">
      <path
         inkscape:connector-curvature="0"
         d="m 491.357,699.254 49.265,0 0,48.865 -49.265,0 0,-48.865 z"
         id="path3403" />
    </clipPath>
  </defs>
  <sodipodi:namedview
     id="base"
     pagecolor="#ffffff"
     bordercolor="#666666"
     borderopacity="1.0"
     inkscape:pageopacity="0.0"
     inkscape:pageshadow="2"
     inkscape:zoom="0.28369141"
     inkscape:cx="256.94636"
     inkscape:cy="-147.93241"
     inkscape:document-units="px"
     inkscape:current-layer="layer1"
     showgrid="false"
     fit-margin-left="0.5"
     fit-margin-bottom="0.5"
     fit-margin-top="0.5"
     fit-margin-right="0.5"
     inkscape:window-width="1920"
     inkscape:window-height="1017"
     inkscape:window-x="-8"
     inkscape:window-y="-8"
     inkscape:window-maximized="1">
    <inkscape:grid
       type="xygrid"
       id="grid6227"
       empspacing="5"
       visible="true"
       enabled="true"
       snapvisiblegridlinesonly="true"
       originx="-147.55688"
       originy="-335.54667" />
  </sodipodi:namedview>
  <metadata
     id="metadata6213">
    <rdf:RDF>
      <cc:Work
         rdf:about="">
        <dc:format>image/svg+xml</dc:format>
        <dc:type
           rdf:resource="http://purl.org/dc/dcmitype/StillImage" />
        <dc:title></dc:title>
      </cc:Work>
    </rdf:RDF>
  </metadata>
  <g
     inkscape:label="Layer 1"
     inkscape:groupmode="layer"
     id="layer1"
     transform="translate(-147.55688,391.92107)">
    <circle
       style="fill:#3ec8c2;fill-opacity:1;fill-rule:evenodd;stroke:none"
       id="path6240"
       transform="matrix(2.8606621,0,0,2.8606621,-317.91457,-1281.8268)"
       cx="337.5"
       cy="504.86218"
       r="92.5" />
    <circle
       transform="matrix(1.3131413,0,0,1.3131413,204.37368,-932.91088)"
       id="path6242"
       style="fill:#5ebea0;fill-opacity:1;fill-rule:evenodd;stroke:none"
       cx="337.5"
       cy="504.86218"
       r="92.5" />
    <circle
       style="fill:#879bab;fill-opacity:1;fill-rule:evenodd;stroke:none"
       id="path6244"
       transform="matrix(1.3131413,0,0,1.3131413,204.37368,-68.105384)"
       cx="337.5"
       cy="504.86218"
       r="92.5" />
    <circle
       transform="matrix(1.3131413,0,0,1.3131413,-173.66274,-291.64903)"
       id="path6246"
       style="fill:#eaa573;fill-opacity:1;fill-rule:evenodd;stroke:none"
       cx="337.5"
       cy="504.86218"
       r="92.5" />
    <circle
       style="fill:#5e4f81;fill-opacity:1;fill-rule:evenodd;stroke:none"
       id="path6248"
       transform="matrix(1.3131413,0,0,1.3131413,582.40612,-291.64903)"
       cx="337.5"
       cy="504.86218"
       r="92.5" />
    <circle
       style="fill:#a32e6c;fill-opacity:1;fill-rule:evenodd;stroke:none"
       id="path6250"
       transform="matrix(1.3131413,0,0,1.3131413,-173.66274,-709.99546)"
       cx="337.5"
       cy="504.86218"
       r="92.5" />
    <circle
       transform="matrix(1.3131413,0,0,1.3131413,582.40612,-709.99546)"
       id="path6252"
       style="fill:#dd7181;fill-opacity:1;fill-rule:evenodd;stroke:none"
       cx="337.5"
       cy="504.86218"
       r="92.5" />
    <g
       transform="matrix(2.5604682,0,0,2.5604682,268.53477,34.285374)"
       id="layer1-7"
       inkscape:label="Layer 1"
       style="fill:#ffffff">
      <g
         id="g2993"
         inkscape:label="digitalflyers_aw_hires 2"
         transform="matrix(2.2176972,0,0,-2.2176972,-49.851207,1804.221)"
         style="fill:#ffffff">
        <g
           id="g2995"
           style="fill:#ffffff" />
        <g
           style="fill:#ffffff;fill-opacity:1"
           id="g3309">
          <g
             style="fill:#ffffff;fill-opacity:1"
             id="g3311"
             clip-path="url(#clipPath3313)">
            <g
               style="fill:#ffffff;fill-opacity:1"
               id="g3321"
               transform="translate(79.4419,808.537)">
              <path
                 inkscape:connector-curvature="0"
                 d="m 0,0 c -1.802,0 -3.282,-0.326 -4.012,-0.992 -0.497,-0.452 -0.725,-1.057 -0.725,-1.94 l 0,-18.006 c 0,-2.993 -0.481,-4.616 -1.539,-5.753 -0.93,-1 -2.391,-1.541 -3.999,-1.541 -1.57,0 -2.962,0.522 -3.791,1.398 -0.865,0.915 -1.269,2.183 -1.269,4.058 l 0,11.727 c 0,0.513 -0.192,0.741 -0.759,0.741 l -7.971,0 c -0.561,0 -0.746,-0.22 -0.746,-0.744 l 0,-10.601 c 0,-4.232 1.091,-6.648 2.996,-8.553 2.475,-2.475 6.705,-3.58 10.725,-3.58 4.014,0 8.2,1.423 10.673,3.708 2.428,-2.213 6.839,-3.706 11.708,-3.706 6.432,0 11.161,2.659 13.921,7.181 1.225,-1.898 2.13,-3.309 3,-4.595 1.281,-1.893 2.447,-2.588 5.056,-2.588 2.471,0 3.954,0.593 5.291,2.637 3.505,5.36 6.492,11.698 8.645,17.53 0.27,0.73 0.462,1.262 0.462,1.595 0,0.342 -0.222,0.61 -0.753,0.778 -0.514,0.163 -1.896,0.587 -2.589,0.798 -1.152,0.351 -1.57,0.454 -1.82,0.454 -0.466,0 -0.719,-0.261 -0.881,-0.799 -1.615,-5.373 -4.072,-11.411 -6.264,-15.162 -0.718,1.37 -2.045,3.753 -3.277,5.901 -1.905,3.325 -3.787,6.68 -4.732,8.221 -0.955,1.558 -1.594,1.973 -2.851,1.973 -2.59,0 -6.427,-2.324 -6.427,-4.491 0,-0.736 0.205,-1.287 0.968,-2.59 0.868,-1.482 1.304,-2.685 1.304,-4.163 0,-3.685 -2.752,-7.023 -8.067,-7.023 -2.523,0 -4.47,0.716 -5.739,2.018 -1.21,1.243 -1.799,2.914 -1.799,5.704 l 0,4.682 c 0.886,-0.38 1.975,-0.572 3.287,-0.572 l 4.208,0 c 0.567,0 0.766,0.228 0.766,0.74 l 0,4.508 c 0,0.513 -0.199,0.741 -0.766,0.741 l -7.495,0 0,7.374 c 0,0.883 -0.23,1.488 -0.726,1.94 C 3.282,-0.326 1.776,0 0,0 m -20.074,-7.04 c -2.968,0 -4.801,2.107 -4.801,4.762 0,2.656 1.833,4.762 4.801,4.762 2.968,0 4.801,-2.106 4.801,-4.762 0,-2.655 -1.833,-4.762 -4.801,-4.762"
                 style="fill:#ffffff;fill-opacity:1;fill-rule:nonzero;stroke:none"
                 id="path3323" />
            </g>
          </g>
        </g>
      </g>
    </g>
  </g>
</svg>
