<?xml version="1.0" encoding="UTF-8" standalone="no"?>
<!-- Generator: Adobe Illustrator 16.0.0, SVG Export Plug-In . SVG Version: 6.00 Build 0)  -->

<svg
   xmlns:dc="http://purl.org/dc/elements/1.1/"
   xmlns:cc="http://creativecommons.org/ns#"
   xmlns:rdf="http://www.w3.org/1999/02/22-rdf-syntax-ns#"
   xmlns:svg="http://www.w3.org/2000/svg"
   xmlns="http://www.w3.org/2000/svg"
   xmlns:sodipodi="http://sodipodi.sourceforge.net/DTD/sodipodi-0.dtd"
   xmlns:inkscape="http://www.inkscape.org/namespaces/inkscape"
   version="1.1"
   id="Layer_1"
   x="0px"
   y="0px"
   width="1000px"
   height="424.076px"
   viewBox="0 0 1000 424.076"
   enable-background="new 0 0 1000 424.076"
   xml:space="preserve"
   sodipodi:docname="ITV Box Office - Dark.svg"
   inkscape:version="0.92.0 r15299"><metadata
     id="metadata35"><rdf:RDF><cc:Work
         rdf:about=""><dc:format>image/svg+xml</dc:format><dc:type
           rdf:resource="http://purl.org/dc/dcmitype/StillImage" /><dc:title></dc:title></cc:Work></rdf:RDF></metadata><defs
     id="defs33" /><sodipodi:namedview
     pagecolor="#ffffff"
     bordercolor="#666666"
     borderopacity="1"
     objecttolerance="10"
     gridtolerance="10"
     guidetolerance="10"
     inkscape:pageopacity="0"
     inkscape:pageshadow="2"
     inkscape:window-width="1920"
     inkscape:window-height="1017"
     id="namedview31"
     showgrid="false"
     inkscape:zoom="0.8032733"
     inkscape:cx="354.35614"
     inkscape:cy="180.60958"
     inkscape:window-x="-8"
     inkscape:window-y="-8"
     inkscape:window-maximized="1"
     inkscape:current-layer="Layer_1" /><g
     id="g28"
     style="fill:#000000;fill-opacity:1"><path
       d="M0,0v220.636h213.021V0H0z M16.606,203.439V17.197h179.815v186.243H16.606z"
       id="path2"
       style="fill:#000000;fill-opacity:1" /><path
       d="M196.422,203.439v220.636H1000V203.439H196.422z M983.393,406.878H213.021V220.636h770.371V406.878z"
       id="path4"
       style="fill:#000000;fill-opacity:1" /><g
       id="g24"
       style="fill:#000000;fill-opacity:1"><path
         d="M269.938,345.479v-63.445c0-0.498,0.171-0.927,0.511-1.286c0.341-0.357,0.775-0.538,1.303-0.538h22.178    c5.672,0,10.508,1.719,14.507,5.156c3.998,3.436,5.997,7.643,5.997,12.619c0,1.756-0.351,3.464-1.051,5.126    c-0.701,1.661-1.623,3.135-2.766,4.419c-1.144,1.286-2.302,2.392-3.475,3.315c-1.173,0.926-2.369,1.717-3.587,2.375    c1.404,0.623,2.741,1.34,4.011,2.149c1.271,0.81,2.57,1.837,3.9,3.083c1.33,1.245,2.391,2.764,3.184,4.555    c0.791,1.791,1.188,3.729,1.188,5.815c0,3.494-0.932,6.66-2.797,9.498c-1.863,2.839-4.367,5.046-7.512,6.621    c-3.143,1.575-6.578,2.362-10.307,2.362H271.74c-0.524,0-0.956-0.18-1.295-0.538S269.938,345.979,269.938,345.479z     M285.003,307.487h7.415c1.835,0,3.412-0.678,4.733-2.032c1.321-1.355,1.982-2.994,1.982-4.917c0-1.89-0.653-3.467-1.959-4.728    s-2.891-1.892-4.757-1.892h-7.415V307.487z M285.003,333.595h8.678c1.865,0,3.475-0.679,4.827-2.035    c1.353-1.357,2.029-3.002,2.029-4.936c0-1.841-0.809-3.424-2.426-4.75c-1.616-1.326-3.405-1.988-5.364-1.988h-7.744V333.595z"
         id="path6"
         style="fill:#000000;fill-opacity:1" /><path
         d="M335.988,313.827c0-3.148,0.405-6.218,1.216-9.21c0.813-2.993,1.949-5.751,3.416-8.275    c1.466-2.525,3.252-4.848,5.357-6.968c2.105-2.119,4.422-3.919,6.948-5.4c2.526-1.479,5.279-2.635,8.259-3.46    c2.978-0.826,6.042-1.239,9.193-1.239c4.709,0,9.193,0.903,13.452,2.711c4.257,1.807,7.923,4.253,10.994,7.337    c3.072,3.085,5.515,6.762,7.323,11.029s2.713,8.761,2.713,13.476c0,4.717-0.904,9.204-2.713,13.465    c-1.809,4.26-4.251,7.919-7.323,10.978c-3.071,3.059-6.737,5.485-10.994,7.279c-4.259,1.794-8.743,2.692-13.452,2.692    c-4.711,0-9.193-0.898-13.452-2.692c-4.257-1.795-7.915-4.223-10.972-7.28c-3.058-3.06-5.482-6.719-7.275-10.98    C336.884,323.028,335.988,318.541,335.988,313.827z M351.288,313.827c0,5.216,1.879,9.705,5.638,13.469    c3.759,3.765,8.242,5.645,13.452,5.645c5.271,0,9.786-1.88,13.545-5.645c3.759-3.764,5.639-8.253,5.639-13.469    c0-5.277-1.88-9.805-5.639-13.584s-8.274-5.669-13.545-5.669c-5.21,0-9.693,1.89-13.452,5.669S351.288,308.549,351.288,313.827z"
         id="path8"
         style="fill:#000000;fill-opacity:1" /><path
         d="M420.129,346.439c-0.358-0.577-0.319-1.177,0.118-1.802l20.119-31.723l-19.324-29.991    c-0.406-0.624-0.445-1.232-0.117-1.825c0.327-0.592,0.896-0.889,1.708-0.889h13.989c0.593,0,1.107,0.297,1.545,0.889    l11.041,17.827h0.094l11.183-17.827c0.094-0.218,0.296-0.42,0.608-0.607c0.311-0.188,0.623-0.281,0.936-0.281h13.99    c0.811,0,1.396,0.297,1.754,0.889c0.358,0.593,0.32,1.201-0.117,1.825l-19.463,29.991l20.119,31.723    c0.404,0.687,0.444,1.303,0.116,1.849c-0.327,0.545-0.882,0.818-1.661,0.818h-13.287c-0.749,0-1.295-0.28-1.639-0.842    l-12.539-19.37h-0.188l-12.305,19.37c-0.438,0.562-0.967,0.842-1.591,0.842h-13.335    C421.072,347.304,420.487,347.017,420.129,346.439z"
         id="path10"
         style="fill:#000000;fill-opacity:1" /><path
         d="M535.005,313.827c0-3.148,0.405-6.218,1.217-9.21c0.812-2.993,1.949-5.751,3.416-8.275    c1.466-2.525,3.252-4.848,5.357-6.968c2.105-2.119,4.421-3.919,6.947-5.4c2.526-1.479,5.279-2.635,8.259-3.46    c2.978-0.826,6.043-1.239,9.194-1.239c4.709,0,9.193,0.903,13.451,2.711c4.258,1.807,7.923,4.253,10.995,7.337    c3.072,3.085,5.514,6.762,7.322,11.029s2.714,8.761,2.714,13.476c0,4.717-0.905,9.204-2.714,13.465    c-1.809,4.26-4.25,7.919-7.322,10.978s-6.737,5.485-10.995,7.279s-8.742,2.692-13.451,2.692c-4.711,0-9.194-0.898-13.452-2.692    c-4.258-1.795-7.915-4.223-10.972-7.28c-3.058-3.06-5.482-6.719-7.276-10.98C535.902,323.028,535.005,318.541,535.005,313.827z     M550.306,313.827c0,5.216,1.879,9.705,5.638,13.469c3.759,3.765,8.242,5.645,13.452,5.645c5.271,0,9.785-1.88,13.545-5.645    c3.758-3.764,5.638-8.253,5.638-13.469c0-5.277-1.88-9.805-5.638-13.584c-3.76-3.779-8.274-5.669-13.545-5.669    c-5.21,0-9.693,1.89-13.452,5.669S550.306,308.549,550.306,313.827z"
         id="path12"
         style="fill:#000000;fill-opacity:1" /><path
         d="M626.647,345.479v-63.445c0-0.498,0.172-0.927,0.515-1.286c0.344-0.357,0.78-0.538,1.311-0.538h39.677    c0.53,0,0.967,0.181,1.31,0.538c0.344,0.359,0.515,0.788,0.515,1.286v10.48c0,0.469-0.171,0.883-0.513,1.24    c-0.342,0.359-0.776,0.538-1.306,0.538h-26.441v13.804h21.764c0.466,0,0.878,0.187,1.234,0.562    c0.357,0.374,0.536,0.794,0.536,1.262v10.481c0,0.468-0.179,0.882-0.536,1.24c-0.356,0.358-0.769,0.537-1.234,0.537h-21.764    v23.301c0,0.468-0.188,0.89-0.565,1.265c-0.377,0.374-0.8,0.561-1.271,0.561h-11.394c-0.533,0-0.975-0.18-1.319-0.538    S626.647,345.979,626.647,345.479z"
         id="path14"
         style="fill:#000000;fill-opacity:1" /><path
         d="M693.724,345.479v-63.445c0-0.498,0.171-0.927,0.515-1.286c0.343-0.357,0.779-0.538,1.31-0.538h39.677    c0.53,0,0.967,0.181,1.31,0.538c0.344,0.359,0.516,0.788,0.516,1.286v10.48c0,0.469-0.171,0.883-0.514,1.24    c-0.342,0.359-0.776,0.538-1.306,0.538h-26.44v13.804h21.763c0.467,0,0.878,0.187,1.235,0.562    c0.357,0.374,0.535,0.794,0.535,1.262v10.481c0,0.468-0.178,0.882-0.535,1.24s-0.769,0.537-1.235,0.537H708.79v23.301    c0,0.468-0.188,0.89-0.566,1.265c-0.377,0.374-0.8,0.561-1.271,0.561H695.56c-0.533,0-0.974-0.18-1.319-0.538    C693.896,346.408,693.724,345.979,693.724,345.479z"
         id="path16"
         style="fill:#000000;fill-opacity:1" /><path
         d="M761.662,345.479v-63.445c0-0.468,0.186-0.888,0.558-1.263c0.372-0.374,0.791-0.562,1.257-0.562h11.438    c0.465,0,0.884,0.188,1.256,0.562c0.372,0.375,0.559,0.795,0.559,1.263v63.445c0,0.468-0.187,0.89-0.559,1.265    c-0.372,0.374-0.791,0.561-1.256,0.561h-11.438c-0.466,0-0.885-0.187-1.257-0.561    C761.848,346.369,761.662,345.947,761.662,345.479z"
         id="path18"
         style="fill:#000000;fill-opacity:1" /><path
         d="M801.657,313.668c0-4.685,0.856-9.153,2.572-13.404c1.713-4.25,4.015-7.904,6.902-10.96    c2.886-3.057,6.45-5.492,10.691-7.308c4.241-1.814,8.718-2.723,13.428-2.723c4.709,0,8.929,0.725,12.656,2.176    c3.728,1.45,7.244,3.688,10.551,6.714c0.404,0.375,0.615,0.827,0.633,1.356c0.015,0.531-0.165,0.983-0.539,1.357l-7.486,7.768    c-0.344,0.312-0.748,0.468-1.216,0.468s-0.858-0.167-1.17-0.501c-3.649-3.503-7.971-5.255-12.961-5.255    c-5.334,0-9.795,1.953-13.381,5.857c-3.588,3.905-5.381,8.598-5.381,14.076c0,5.417,1.809,10.046,5.428,13.888    c3.618,3.841,8.094,5.762,13.428,5.762c2.276,0,4.563-0.409,6.854-1.229c2.293-0.818,4.297-1.968,6.013-3.447    c0.312-0.284,0.731-0.409,1.263-0.378c0.53,0.031,0.937,0.203,1.217,0.516l7.486,7.973c0.311,0.345,0.46,0.775,0.445,1.29    c-0.018,0.517-0.196,0.946-0.539,1.289c-6.363,6.191-14.13,9.287-23.301,9.287c-3.151,0-6.223-0.408-9.217-1.224    c-2.995-0.815-5.725-1.96-8.191-3.434c-2.467-1.473-4.697-3.269-6.689-5.386c-1.993-2.116-3.687-4.444-5.078-6.984    c-1.392-2.539-2.478-5.308-3.254-8.302C802.046,319.917,801.657,316.836,801.657,313.668z"
         id="path20"
         style="fill:#000000;fill-opacity:1" /><path
         d="M883.158,345.479v-63.445c0-0.498,0.171-0.927,0.516-1.286c0.343-0.357,0.778-0.538,1.31-0.538h39.677    c0.53,0,0.966,0.181,1.311,0.538c0.343,0.359,0.514,0.788,0.514,1.286v10.48c0,0.469-0.171,0.883-0.513,1.24    c-0.343,0.359-0.777,0.538-1.306,0.538h-26.441v11.885h21.765c0.465,0,0.876,0.187,1.234,0.561    c0.355,0.375,0.536,0.797,0.536,1.265v10.48c0,0.53-0.172,0.959-0.513,1.286c-0.343,0.328-0.762,0.492-1.258,0.492h-21.765v12.959    h26.441c0.528,0,0.963,0.181,1.306,0.539c0.342,0.358,0.513,0.788,0.513,1.287v10.433c0,0.5-0.171,0.929-0.514,1.287    c-0.345,0.358-0.78,0.538-1.311,0.538h-39.677c-0.531,0-0.967-0.18-1.31-0.538C883.329,346.408,883.158,345.979,883.158,345.479z"
         id="path22"
         style="fill:#000000;fill-opacity:1" /></g><path
       d="M172.853,103.675c0,0.614-0.354,1.59-0.859,2.919c-3.939,10.679-9.396,22.256-15.81,32.068   c-2.44,3.74-5.151,4.824-9.677,4.824c-4.771,0-6.902-1.282-9.243-4.752c-1.589-2.35-3.243-4.915-5.483-8.383   c-5.05,8.257-13.706,13.135-25.459,13.135c-8.908,0-16.977-2.746-21.422-6.794c-4.518,4.192-12.17,6.794-19.516,6.794   c-7.354,0-15.078-2.024-19.613-6.541c-3.487-3.487-5.475-7.915-5.475-15.652v-19.389c0-0.958,0.334-1.364,1.354-1.364h14.583   c1.039,0,1.392,0.415,1.392,1.364v21.439c0,3.429,0.74,5.742,2.321,7.422c1.519,1.608,4.058,2.547,6.93,2.547   c2.937,0,5.611-0.976,7.318-2.8c1.934-2.078,2.81-5.061,2.81-10.531V87.051c0-1.617,0.425-2.72,1.328-3.551   c1.338-1.21,4.039-1.815,7.328-1.815c3.261,0,6.007,0.605,7.345,1.815c0.912,0.831,1.328,1.934,1.328,3.551v13.48h13.704   c1.039,0,1.41,0.424,1.41,1.364v8.239c0,0.949-0.37,1.365-1.41,1.365h-7.688c-2.404,0-4.391-0.353-6.018-1.048v8.556   c0,5.104,1.085,8.164,3.289,10.439c2.322,2.368,5.891,3.687,10.508,3.687c9.721,0,14.744-6.107,14.744-12.843   c0-2.71-0.796-4.905-2.386-7.616c-1.392-2.376-1.771-3.388-1.771-4.743c0-3.958,7.011-8.213,11.763-8.213   c2.294,0,3.47,0.759,5.204,3.614c1.735,2.819,5.177,8.953,8.664,15.042c2.241,3.921,4.68,8.291,5.98,10.783   c4.021-6.853,8.502-17.902,11.466-27.723c0.298-0.984,0.759-1.463,1.608-1.463c0.451,0,1.219,0.181,3.332,0.831   c1.267,0.388,3.796,1.157,4.735,1.463C172.427,102.573,172.853,103.061,172.853,103.675 M48.951,94.568   c5.431,0,8.782-3.858,8.782-8.719c0-4.843-3.352-8.7-8.782-8.7c-5.421,0-8.781,3.858-8.781,8.7   C40.17,90.71,43.53,94.568,48.951,94.568"
       id="path26"
       style="fill:#000000;fill-opacity:1" /></g></svg>