<svg enable-background="new 0 0 200 130.246" height="129.33995" viewBox="0 0 198.99886 129.33995" width="198.99886" xmlns="http://www.w3.org/2000/svg"><g transform="matrix(.02251092 0 0 .02251092 95.2131 55.3788)"><g transform="matrix(15.222118 0 0 15.222118 -4957.3018 -8309.1864)"><path d="m47.803 422.395c0-20.977 14.862-38.145 38.745-38.145 25.143 0 38.625 18.01 38.625 39.165 0 23.264-17.034 37.365-38.445 37.365-23.305 0-38.925-15.895-38.925-38.385z" fill="#00beca"/><path d="m48.001 492.645c0-3.571 2.002-6.152 6-6.152h65.271c3.448 0 5.728 2.733 5.728 6.092v100.066c0 17.06 9.714 36.903 39.695 36.903 29.199 0 44.305-18.168 44.305-55.264v-7.797l31 59 4 20.001s-30.416 29.402-85.541 29.402c-27.362 0-110.458-4.489-110.458-95.403z" fill="#00beca"/><path d="m244 645.494 31-80.001 10-10v14c0 33.675 16.336 59.58 58.605 59.58 38.542 0 65.673-21.833 65.673-55.717 0-17.222-8.333-30.887-8.333-30.887l43.72 21.832 3.833 53.191s-29.115 57.106-111.19 57.106c-64.089-.001-93.308-29.104-93.308-29.104z" fill="#8c7b11"/><path d="m244 645.494s-35-26.749-35-76.759v-143.24c0-11.519 7.432-21.5 38.42-21.5 33.864 0 37.58 13.181 37.58 23.07v59.429h59.999c4.329 0 5.999 2.531 5.999 6.541v35.458c0 3.354-1.368 6-5.301 6h-39.697c-10.294 0-21-4-21-4v24c0 29.924-7.733 60.49-41 91.001z"/><path d="m448.499 617.491 9.527-104.673 4.306-18.215s19.012 27.722 67.452 116.903c30.762-55.936 50.381-122.777 50.381-122.777 1.379-4.57 5.027-5.676 10.308-4.283l33.204 10.264c4.035 1.438 6.221 3.031 3.95 10.528-27.621 80.38-70.871 146.686-70.871 146.686-8.327 12.34-16.809 22.816-44.912 22.816-22.671 0-30.568-7.723-38.465-19.51z" fill="#ffab00"/><path d="m448.499 617.491-51.766-81.569c-3.109-5.814-5.477-9.34-5.477-16.244.04-10.15 5.312-17.488 23.198-28.691 3.862-2.539 17.789-8.075 29.075-8.075 15.216 0 26.567 15.75 26.567 48.702 0 53.616-21.597 85.877-21.597 85.877z" fill="#c80063"/></g><path d="m-3674.963 2937.473c-19.609-26.463-48.719-46.722-86.223-60.127 21.279-12.104 38.633-27.243 51.213-45.637 19.152-27.808 28.328-61.255 30.91-98.173.346-5.162.52-10.325.52-15.357.5-85.462-52.859-156.087-138.105-175.392-32.037-7.461-65.354-11.408-98.15-12.016-46.18-.824-92.316-1.041-138.387-1.041-42.645 0-85.201.172-127.738.172h-6.832c-7.592.088-13.035 1.736-16.527 2.127l-12.299 1.648-1.258 12.363c-.326 3.557-.977 6.594-1.043 11.582-.021 122.119-.064 244.195-.064 366.271 0 101.166.021 202.288.109 303.454.021 7.027.541 13.578 2.363 19.912 2.387 9.414 9.523 18.741 18.828 22.992 9.154 4.425 18.783 5.293 29.977 5.51 28.438.26 57.004.607 85.656.607 20.303 0 40.648-.218 61.061-.781 62.859-1.648 126.76-1.605 190.553-9.023 52.535-6.073 95.678-23.816 127.391-53.359 31.756-29.499 51.189-70.408 58.305-119.776 2.191-14.837 3.297-29.413 3.297-43.556.041-41.948-10.067-80.818-33.557-112.4zm-221.875-112.359c-34.555 2.43-69.52 2.82-104.746 2.82-16.484 0-33.014-.044-49.629-.044-7.092 0-14.229 0-21.344.044 0-56.96 0-114.094 0-171.054 34.076-.131 68.066-.955 101.688-.955 25.813 0 51.494.479 76.893 2.17 26.291 1.691 43.947 7.939 54.596 18.307 10.672 10.238 17.527 26.637 17.613 56.136 0 7.982-.541 16.789-1.627 26.593-2.689 22.646-9.674 37.396-20.605 47.46-10.978 10.107-27.614 16.745-52.839 18.523zm-175.588 126.762c6.832-.044 13.861-.131 20.41-.087 7.115-.044 14.057.043 20.977.217 56.418 1.388 112.271.087 166.389 5.596 27.375 2.95 45.617 12.19 57.697 25.986 12.039 13.752 18.807 33.446 18.828 60.126l-.303 10.629c-2.17 33.534-9.176 54.184-21.691 67.024-12.385 12.972-33.621 21.604-70.713 24.944-25.854 2.343-52.014 3.037-78.52 3.037-36.896 0-74.66-1.258-113.074-1.648 0-64.942 0-129.624 0-195.824z"/><path d="m-3238.09 2520.576c-106.85 0-193.699 34.098-245.518 88.846-52.297 55.094-96.068 131.663-96.068 294.907 0 116.523 20.953 214.045 95.83 293.606 52.752 56.049 130.383 87.631 247.123 87.631 99.646 0 180.424-22.646 245.496-90.06 68.021-72.014 93.877-169.97 93.877-291.178 0-118.345-25.031-222.374-94.311-292.825-44.032-46.157-118.409-90.927-246.429-90.927zm.76 131.879c49.715 0 86.611 13.926 121.424 47.113 43.166 40.865 57.742 120.861 57.742 203.72 0 76.092-11.67 155.74-57.438 204.457-22.385 21.604-60.691 47.243-122.033 47.243-57.176 0-94.463-18.828-121.273-43.643-53.336-51.971-60.148-143.419-60.148-208.969 0-88.064 13.861-157.691 59.693-205.758 30.215-26.983 74.92-44.163 122.033-44.163z"/><path d="m-2809.654 2528.904v708.855c0 29.152 11.389 39.391 78.848 39.391 69.041 0 77.652-9.37 77.652-39.391v-238.078h103.963l137.521 229.662c7.135 12.147 14.553 24.294 19.607 29.152 15.748 16.052 50.822 18.654 88.758 18.654 63.75 0 78.283-10.802 78.283-20.476 0-6.898-1.475-12.407-11.691-27.244l-157.801-244.151s61.385-18.003 94.963-55.182c54.313-55.008 64.594-122.683 64.594-171.271 0-72.013-19.607-127.151-55.744-163.288-57.133-55.094-128.67-66.635-229.814-66.635h-289.139zm156.5 127.846h144.59c36.506.131 66.744 6.422 86.764 25.553 18.936 19.521 25.725 41.125 25.725 76.091 0 36.788-7.373 66.417-24.9 83.987-16.615 17.179-49.281 29.412-86.395 29.412h-145.783v-215.043z"/><path d="m-811.846 2528.904v708.855c0 29.152 11.389 39.391 78.846 39.391 69.043 0 77.654-9.37 77.654-39.391v-238.078h103.963l137.52 229.662c7.137 12.147 14.555 24.294 19.631 29.152 15.703 16.052 50.799 18.654 88.758 18.654 63.729 0 78.262-10.802 78.262-20.476 0-6.898-1.477-12.407-11.713-27.244l-157.779-244.151s61.385-18.003 94.961-55.182c54.314-55.008 64.596-122.683 64.596-171.271 0-72.013-19.607-127.151-55.744-163.288-57.135-55.094-128.67-66.635-229.814-66.635h-289.141zm156.5 127.846h144.59c36.506.131 66.742 6.422 86.764 25.553 18.936 19.521 25.725 41.125 25.725 76.091 0 36.788-7.375 66.417-24.9 83.987-16.615 17.179-49.281 29.412-86.395 29.412h-145.783v-215.043z"/><path d="m-1500.57 2867.542c-7.982-102.988-33.145-180.642-84.596-235.562-51.449-54.834-126.848-84.248-229.4-95.701-40.779-4.512-81.645-5.725-122.336-5.725-45.639 0-91.102 1.561-135.959 1.475-5.205 0-10.41 0-15.529 0h-1.215c-9.979 0-19.088 1.561-27.158 5.205-12.146 5.467-20.475 16.139-24.379 26.984-3.992 10.844-4.773 22.123-4.859 33.576v.867c.174 47.461.26 94.832.26 142.379 0 52.318-.086 104.55-.086 156.955v5.379c0 54.747.174 109.495.174 164.242 0 44.943-.088 89.887-.521 134.743v1.909c.086 19.608 3.297 37.568 15.27 51.537 12.148 14.056 30.889 19.695 52.232 19.521h2.168c15.965-.26 32.016-.347 48.068-.347 38.609 0 77.305.521 116.176.521 34.445 0 68.977-.347 103.594-1.822 140.645-5.553 247.363-84.768 285.451-209.706 15.791-51.104 24.207-103.596 24.207-156.955 0-13.099-.521-26.288-1.562-39.475zm-489.606 243.978v-.087c.434-29.586.521-59.085.521-88.585 0-40.171-.174-80.256-.174-120.341v-.086l-.088-4.599c0-36.268.607-72.621.607-109.235 0-26.289-.26-52.752-1.301-79.214v-.087l-.086-4.339c0-15.965 3.469-23.512 7.113-27.07 3.559-3.73 10.672-6.854 25.248-6.854l7.115.174c38.523 2.256 76.178.52 112.531 2.256 54.488 2.43 91.709 14.314 117.564 36.613 25.855 22.385 42.861 57.091 52.23 110.884 4.947 28.024 7.549 56.309 7.549 84.42 0 31.843-3.383 63.598-10.498 95.006-10.846 47.46-28.719 80.083-54.486 101.947-25.684 21.69-60.734 33.924-109.408 36.44-13.275.693-26.637.867-40.172.867-18.74 0-37.742-.347-57.004-.347-10.238 0-20.563.087-30.887.434l-2.689.087c-12.494-.174-16.66-2.863-18.828-5.293-2.344-2.429-4.945-8.937-4.859-21.517v-1.474z"/><path d="m-1386.891 3274.2c-22.037 0-29.846-11.235-29.846-29.846v-678.749c0-23.426 6.854-33.664 43.035-33.664h461.58v127.977h-348.008v172.181h297.771v126.762h-297.771v188.579l355.164.087v126.673z"/></g></svg>