<?xml version="1.0" encoding="UTF-8" standalone="no"?>
<!-- Created with Inkscape (http://www.inkscape.org/) -->

<svg
   xmlns:dc="http://purl.org/dc/elements/1.1/"
   xmlns:cc="http://creativecommons.org/ns#"
   xmlns:rdf="http://www.w3.org/1999/02/22-rdf-syntax-ns#"
   xmlns:svg="http://www.w3.org/2000/svg"
   xmlns="http://www.w3.org/2000/svg"
   xmlns:sodipodi="http://sodipodi.sourceforge.net/DTD/sodipodi-0.dtd"
   xmlns:inkscape="http://www.inkscape.org/namespaces/inkscape"
   id="svg2"
   version="1.1"
   inkscape:version="0.91 r13725"
   width="199.00002"
   height="129.22685"
   sodipodi:docname="ITV Cymru Wales - Dark.svg">
  <metadata
     id="metadata8">
    <rdf:RDF>
      <cc:Work
         rdf:about="">
        <dc:format>image/svg+xml</dc:format>
        <dc:type
           rdf:resource="http://purl.org/dc/dcmitype/StillImage" />
        <dc:title></dc:title>
      </cc:Work>
    </rdf:RDF>
  </metadata>
  <defs
     id="defs6" />
  <sodipodi:namedview
     pagecolor="#ffffff"
     bordercolor="#666666"
     borderopacity="1"
     objecttolerance="10"
     gridtolerance="10"
     guidetolerance="10"
     inkscape:pageopacity="0"
     inkscape:pageshadow="2"
     inkscape:window-width="1920"
     inkscape:window-height="1017"
     id="namedview4"
     showgrid="false"
     fit-margin-left="0"
     fit-margin-top="0"
     fit-margin-bottom="0"
     fit-margin-right="0"
     inkscape:zoom="1.4142136"
     inkscape:cx="82.181618"
     inkscape:cy="106.23945"
     inkscape:window-x="-8"
     inkscape:window-y="-8"
     inkscape:window-maximized="1"
     inkscape:current-layer="g3093">
    <inkscape:grid
       type="xygrid"
       id="grid2998"
       empspacing="5"
       visible="true"
       enabled="true"
       snapvisiblegridlinesonly="true"
       originx="-0.50000133"
       originy="-0.51805932" />
  </sodipodi:namedview>
  <g
     id="layer1"
     inkscape:label="Layer 1"
     transform="translate(-7403.1997,-1985.3574)"
     style="fill:#000000">
    <g
       id="g3093"
       transform="matrix(0.02251092,0,0,0.02251092,7498.4133,2040.7363)"
       style="fill:#000000">
      <path
         sodipodi:nodetypes="ccccc"
         inkscape:connector-curvature="0"
         id="path3018"
         d="m -4229.6627,-1879.44 c 0,-319.3284 226.2376,-580.6505 589.7803,-580.6505 382.7431,0 587.9543,274.1505 587.9543,596.1711 0,354.1243 -259.2994,568.7819 -585.2154,568.7819 -354.7242,0 -592.5192,-241.9633 -592.5192,-584.3025 z"
         style="fill:#00beca;fill-opacity:1;stroke:none" />
      <path
         sodipodi:nodetypes="ccccccccccccc"
         inkscape:connector-curvature="0"
         id="path3020"
         d="m -4226.6401,-810.08593 c 0,-54.35407 30.4793,-93.64342 91.3327,-93.64342 l 993.5826,0 c 52.4886,0 87.1877,41.59946 87.1877,92.72629 l 0,1523.22331 c 0,259.7044 147.8752,561.74695 604.2579,561.74695 444.4694,0 674.4001,-276.56285 674.4001,-841.2229 l 0,-118.70421 471.8856,898.10501 60.8885,304.4423 c 0,0 -462.981,447.5871 -1302.1234,447.5871 -416.4986,0 -1681.4117,-68.3256 -1681.4117,-1452.24688 z"
         style="fill:#00beca;fill-opacity:1;stroke:none" />
      <path
         sodipodi:nodetypes="ccccccccccc"
         inkscape:connector-curvature="0"
         id="path3024"
         d="m -1243.105,1516.5874 471.88565,-1217.76943 152.22118,-152.22118 0,213.10965 c 0,512.5858 248.66928,906.95696 892.11597,906.95696 586.71797,0 999.705,-332.37345 999.705,-848.15148 0,-262.16277 -126.9033,-470.180933 -126.9033,-470.180933 l 665.557,332.322123 58.3416,809.71499 c 0,0 -443.2117,869.2414 -1692.56235,869.2414 -975.57915,0 -1420.36075,-443.0221 -1420.36075,-443.0221 z"
         style="fill:#8c7b11;fill-opacity:1;stroke:none" />
      <path
         sodipodi:nodetypes="cccccccccccccc"
         inkscape:connector-curvature="0"
         id="path3022"
         d="m -1243.105,1516.5874 c 0,0 -532.7741,-407.1388 -532.7741,-1168.4347 l 0,-2180.4312 c 0,-175.3292 113.1361,-327.2652 584.8272,-327.2652 515.48606,0 572.05373,200.6506 572.05373,351.1872 l 0,904.62715 913.32708,0 c 65.90112,0 91.33271,38.52109 91.33271,99.556 l 0,539.77295 c 0,51.04053 -20.82355,91.33271 -80.73203,91.33271 l -604.26328,0 c -156.69725,0 -319.66448,-60.88847 -319.66448,-60.88847 l 0,365.33083 c 0,455.51366 -117.70533,920.80223 -624.10683,1385.21273 z"
         style="fill:#000000;fill-opacity:1;stroke:none" />
      <path
         sodipodi:nodetypes="cccccccccccc"
         inkscape:connector-curvature="0"
         id="path3028"
         d="m 1869.8181,1090.3681 145.026,-1593.38174 65.5251,-277.27195 c 0,0 289.4302,421.9871 1026.7777,1779.51127 468.2885,-851.46455 766.9361,-1868.92249 766.9361,-1868.92249 20.9681,-69.5494 76.4954,-86.38749 156.8733,-65.20242 l 505.4805,156.22765 c 61.3726,21.90127 94.669,46.14706 60.1108,160.26104 C 4176.1031,605.14848 3517.7288,1614.453 3517.7288,1614.453 c -126.7536,187.8431 -255.8723,347.3161 -683.6575,347.3161 -345.1263,0 -465.3209,-117.5507 -585.5313,-296.9618 z"
         style="fill:#ffab00;fill-opacity:1;stroke:none" />
      <path
         sodipodi:nodetypes="ccccccc"
         inkscape:connector-curvature="0"
         id="path3026"
         d="M 1869.8181,1090.3681 1081.8006,-151.32335 c -47.2944,-88.49941 -83.33959,-142.1691 -83.33959,-247.27509 0.60888,-154.49369 80.88559,-266.19876 353.08769,-436.74113 58.8196,-38.65033 270.8138,-122.91115 442.5814,-122.91115 231.6354,0 404.4468,239.74669 404.4468,741.33374 0,816.1398 -328.7588,1307.28508 -328.7588,1307.28508 z"
         style="fill:#c80063;fill-opacity:1;stroke:none" />
      <g
         id="layer1-17"
         inkscape:label="Layer 1"
         transform="matrix(1.7988284,0,0,1.7988284,3726.2295,1854.4228)"
         style="fill:#000000">
        <g
           id="g3120"
           transform="matrix(0.55463447,0,0,0.55463447,-2625.8427,-1027.1422)"
           style="fill:#000000">
          <path
             sodipodi:nodetypes="cccccccccccccccccccccc"
             inkscape:connector-curvature="0"
             id="path3030"
             d="m 3873.2858,3280.9877 c -88.223,0 -145.655,-10.3621 -219.151,-29.9587 -19.673,-5.5583 -26.811,-10.7252 -26.811,-31.906 0,-20.7084 8.075,-64.3581 14.828,-78.941 7.732,-16.2514 9.703,-18.7243 22.47,-18.7243 20.767,0 86.047,29.9588 200.122,29.9588 78.866,0 105.14,-16.526 120.644,-32.4131 11.664,-12.9447 18.666,-32.5274 18.666,-54.9165 0,-18.0753 -3.935,-40.5125 -19.098,-54.9743 -52.968,-49.8088 -222.229,-58.9894 -289.552,-128.5227 -46.045,-44.8698 -56.397,-105.8872 -56.397,-146.0485 0,-67.171 24.872,-114.3684 58.269,-148.2955 53.19,-53.9234 140.963,-70.2169 226.339,-70.2169 110.005,0 197.278,27.3759 197.278,27.3759 l -14.081,127.4742 c 0,0 -95.355,-25.1653 -174.81,-25.1653 -106.274,0 -132.058,41.6554 -131.818,82.2366 0,18.9819 6.614,35.4298 19.025,47.185 46.373,48.2536 214.643,50.6115 287.603,124.1787 44.134,44.0079 57.071,98.8909 57.071,153.9876 0,64.2772 -17.865,119.7812 -59.169,161.7769 -49.923,49.1684 -133.134,65.9091 -231.428,65.9091 z"
             style="fill:#000000;fill-opacity:1;stroke:none" />
          <path
             id="path3036"
             d="m -1054.8904,2526.029 0,710.4801 c 0,29.2543 11.417,39.5199 79.03998,39.5199 69.20598,0 77.84098,-9.4477 77.84098,-39.5199 l 0,-238.6358 104.1911,0 137.845,230.2154 c 7.146,12.1427 14.58,24.3509 19.648,29.2282 15.786,16.0934 50.942,18.7121 88.958,18.7121 63.899,0 78.477,-10.8621 78.477,-20.5833 0,-6.8825 -1.486,-12.3995 -11.712,-27.2821 l -158.168,-244.6986 c 0,0 61.51,-18.0584 95.17,-55.313 54.438,-55.1235 64.743,-122.9656 64.743,-171.7022 0,-72.1577 -19.655,-127.4175 -55.873,-163.6186 -57.258,-55.2526 -128.955,-66.8022 -230.348,-66.8022 z m 156.88096,128.1405 144.9071,0 c 36.598,0.1078 66.906,6.4263 86.974,25.5982 18.987,19.5514 25.785,41.2316 25.785,76.2705 0,36.8779 -7.384,66.5724 -24.96,84.1669 -16.647,17.2666 -49.385,29.5278 -86.602,29.5278 l -146.1041,0 z"
             style="fill:#000000;fill-opacity:1;stroke:none"
             inkscape:connector-curvature="0"
             sodipodi:nodetypes="csssccccsscccscsccccscscc" />
          <path
             sodipodi:nodetypes="ccccccccccccccc"
             inkscape:connector-curvature="0"
             id="path2998"
             d="m -396.82736,2526.029 157.317,0 0,471.003 c 0,43.7639 9.204,91.0562 37.358,117.4937 20.551,17.8488 49.133,36.9311 114.527002,36.9311 58.627998,0 88.8939982,-14.5314 113.046998,-38.754 20.853,-19.9761 35.487,-57.3661 35.487,-101.4547 l 0,-485.2191 158.264,0 0,475.7422 c 0,81.684 -18.483,146.4483 -71.313,201.7229 -34.987,36.4105 -96.086,77.8476 -237.008998,77.8476 -114.144002,0 -185.059002,-24.941 -237.534002,-77.7786 -45.59,-45.585 -70.144,-107.9778 -70.144,-197.0524 z"
             style="fill:#000000;fill-opacity:1;stroke:none" />
          <path
             sodipodi:nodetypes="cccccccc"
             inkscape:connector-curvature="0"
             id="path3196"
             d="m 2665.7535,3143.029 312,0 0,127 -437.8227,0 c -21.5038,0 -31.1773,-9.086 -31.1773,-32.602 l 0,-711.398 157,0 z"
             style="fill:#000000;stroke:none" />
          <path
             id="path3198"
             d="m 1999.2292,2526.0273 c -28.2722,0 -40.3528,9.3778 -47.1933,31.137 -67.7127,208.2124 -131.6945,427.6051 -197.4012,641.8357 -7.5372,24.4488 -12.1172,36.3436 -12.1172,49.1065 0,22.6041 35.0029,25.9225 79.8309,25.9225 51.4619,0 69.9155,-7.1159 79.2306,-16.3188 3.7189,-3.6491 6.7833,-9.4119 9.8663,-18.5697 l 35.8263,-126.0487 289.9122,0 33.763,117.0453 c 2.8554,9.7044 5.1545,20.451 13.9179,28.9236 14.4931,13.9715 43.2393,14.9683 77.73,14.9683 50.7242,0 79.5308,-5.1594 79.5308,-26.973 0,-8.589 -1.2293,-11.309 -5.2145,-24.3844 -69.0649,-235.7172 -134.961,-442.668 -201.9781,-659.9552 -10.2708,-31.1266 -17.1192,-36.6891 -52.0702,-36.6891 l -183.6335,0 z m 78.5178,124.8858 29.5615,0 c 31.9676,109.998 63.0119,222.7777 93.8613,336.13 l -218.4845,0 c 31.2774,-111.6274 61.6901,-222.4084 95.0617,-336.13 z"
             style="fill:#000000;stroke:none"
             inkscape:connector-curvature="0" />
          <path
             sodipodi:nodetypes="cccccccccccc"
             inkscape:connector-curvature="0"
             id="path3200"
             d="m -2303.2852,3276.029 c -65.456,0 -79.831,-9.7254 -79.831,-37.4812 l 0,-239.8943 c -153.631,-250.2516 -208.539,-361.0391 -264.012,-472.6245 l 174.014,0 c 27.099,63.5919 84.635,174.2222 164.412,319.2248 l 8.4,0 c 35.403,-72.7671 41.267,-73.5325 147.612,-319.2248 l 173.562,0 c -48.022,104.4785 -107.414,225.4371 -246.767,471.6365 l 0,240.9796 c 0,25.8724 -12.311,37.3839 -77.39,37.3839 z"
             style="fill:#000000;stroke:none" />
          <path
             sodipodi:nodetypes="ccccccccccccccc"
             inkscape:connector-curvature="0"
             id="path3202"
             d="m 3076.5639,3270.029 c -22.112,0 -29.9645,-11.2845 -29.9645,-29.9644 l 0,-680.3281 c 0,-23.478 6.9241,-33.7075 43.1488,-33.7075 l 462.6515,0 0,128.2479 -348.8086,0 0,172.5954 298.4682,0 0,127.0494 -298.4682,0 0,189.058 356,0.049 0,127 z"
             style="fill:#000000;stroke:none" />
          <path
             style="fill:#000000;fill-opacity:1;stroke:none"
             d="m 793.98473,2526.029 156.67587,0 c 28.0737,194.7576 52.2439,347.7793 103.443,605.8364 l 13.4283,0 102.8213,-571.3569 c 5.2335,-28.5475 13.7843,-34.4795 40.1719,-34.4795 l 156.6749,0 c 25.0622,0 33.8143,6.5626 39.3843,32.4364 l 108.6868,573.4 13.4282,0 c 41.4404,-209.792 63.1322,-325.4154 102.3767,-605.8364 l 155.5546,0 c -65.0486,377.9212 -87.6418,464.8333 -141.8328,696.6347 -4.6006,17.1927 -8.2553,21.0573 -12.1168,25.6798 -10.3188,11.5609 -25.3959,21.4819 -108.3065,21.4819 -64.535,0 -90.7847,-3.6375 -109.7037,-22.2821 -7.1852,-6.9049 -9.4968,-14.0432 -14.1682,-36.6677 l -107.478,-540.8849 -10.0737,0 -104.2474,546.0833 c -3.5968,17.9262 -5.3137,22.8366 -12.2696,31.3723 -8.1416,8.4721 -18.658,22.579 -112.2221,22.579 -75.25847,0 -91.138,-6.7533 -106.25418,-21.4817 -7.86381,-8.5842 -12.07393,-22.8791 -14.44789,-34.9703 -56.59946,-234.3051 -96.69862,-438.729 -139.525,-687.5443 z"
             id="path3000-1"
             inkscape:connector-curvature="0"
             sodipodi:nodetypes="ccccccccccccccccccccccccc" />
          <path
             style="fill:#000000;stroke:none"
             d="m -3235.7575,2900.8617 c 0,-117.6982 24.2363,-218.0158 98.5182,-295.0251 57.1284,-56.5713 140.9099,-90.0436 272.0728,-90.0436 110.8102,0 187.1494,20.4805 187.1494,20.4805 l -7.5919,132.0639 c 0,0 -85.1356,-17.3025 -164.0205,-17.3025 -81.4589,0 -134.4841,20.4733 -167.5517,56.1448 -41.2899,42.2742 -57.3807,117.0297 -57.3807,192.2695 0,89.9837 21.242,151.2497 61.4415,192.9757 34.4139,35.4461 90.2577,53.673 160.4894,53.673 84.6571,0 146.4847,-21.1867 161.5487,-21.1867 11.999,0 17.5237,7.2004 21.3633,26.8365 4.8417,20.0954 9.1809,51.3114 9.1809,73.4473 0,23.8726 -4.7947,24.8557 -24.1881,32.8395 -34.5462,12.906 -120.1168,23.1288 -188.3853,23.1288 -117.7345,0 -203.3649,-26.1633 -265.8933,-85.4531 -81.295,-80.5908 -96.7527,-202.4628 -96.7527,-294.8485 z"
             id="path4251"
             inkscape:connector-curvature="0"
             sodipodi:nodetypes="ccccccccccccccccc" />
          <path
             style="fill:#000000;stroke:none"
             d="m -1919.497,3276.064 c -62.565,0 -70.2912,-11.7838 -70.2912,-29.6759 0,-20.6506 32.4789,-490.7252 58.8895,-694.6384 2.6679,-23.1074 15.9331,-25.7207 41.105,-25.7207 l 123.494,0 c 24.034,0 35.9622,6.1709 42.3957,26.0431 l 145.8668,470.9569 8.7621,0 132.6482,-466.2917 c 4.562,-16.8603 10.4789,-30.7083 44.5798,-30.7083 l 126.322,0 c 25.2965,0 38.3268,3.2308 41.3826,25.8454 23.6081,201.1862 41.2301,442.7525 57.357,673.1218 l 1.2468,21.0722 c 0.7885,12.6027 0.2771,30.0652 -68.9032,30.0652 -69.1637,0 -74.3057,-11.403 -76.5499,-42.6732 -7.16,-182.6325 -15.9924,-383.9587 -29.9494,-533.4314 l -8.4843,0 c -26.3695,97.1596 -78.524,262.6484 -143.9983,483 l -164.2652,0 -148.5919,-483 -7.8966,0 c -12.383,146.3032 -20.964,317.0636 -30.1266,537.0075 -1.3858,23.6377 -4.233,39.0275 -74.9929,39.0275 z"
             id="path4263"
             inkscape:connector-curvature="0"
             sodipodi:nodetypes="cccccccccccccccccccccccc" />
        </g>
      </g>
    </g>
  </g>
</svg>
