<?xml version="1.0" encoding="UTF-8"?>
<!-- Generator: Adobe Illustrator 16.0.0, SVG Export Plug-In . SVG Version: 6.00 Build 0)  -->
<svg id="svg2" width="199" height="129.34" enable-background="new 0 0 200 130.246" version="1.1" viewBox="0 0 199 129.34" xml:space="preserve" xmlns="http://www.w3.org/2000/svg" xmlns:cc="http://creativecommons.org/ns#" xmlns:dc="http://purl.org/dc/elements/1.1/" xmlns:rdf="http://www.w3.org/1999/02/22-rdf-syntax-ns#"><metadata id="metadata27"><rdf:RDF><cc:Work rdf:about=""><dc:format>image/svg+xml</dc:format><dc:type rdf:resource="http://purl.org/dc/dcmitype/StillImage"/><dc:title/></cc:Work></rdf:RDF></metadata><path id="path3018" d="m4.5564e-7 13.071c0-7.1881 5.0927-13.071 13.277-13.071 8.6156 0 13.235 6.1714 13.235 13.42 0 7.9717-5.8369 12.804-13.174 12.804-7.9858 0-13.338-5.4466-13.338-13.153z" fill="#00beca"/><path id="path3020" d="m0.067848 37.143c0-1.2237 0.68601-2.1081 2.056-2.1081h22.366c1.1815 0 1.9628 0.9365 1.9628 2.0875v34.289c0 5.8458 3.3286 12.645 13.602 12.645 10.005 0 15.182-6.2255 15.182-18.937v-2.6718l10.623 20.217 1.3707 6.8536s-10.422 10.075-29.312 10.075c-9.376 0-37.85-1.5382-37.85-32.691v-29.76z" fill="#00beca"/><path id="path3024" d="m67.23 89.519 10.623-27.413 3.4266-3.4266v4.7973c0 11.539 5.5978 20.416 20.082 20.416 13.207 0 22.504-7.4814 22.504-19.092 0-5.9014-2.8554-10.584-2.8554-10.584l14.981 7.481 1.3134 18.227s-9.9767 19.568-38.101 19.568c-21.961-3.43e-4 -31.973-9.9729-31.973-9.9729z" fill="#8c7b11"/><path id="path3022" d="m67.23 89.519s-11.993-9.1659-11.993-26.303v-49.083c0-3.9471 2.5467-7.3673 13.165-7.3673 11.604 0 12.877 4.5167 12.877 7.9053v20.364h20.559c1.4834 0 2.0556 0.86728 2.0556 2.2414v12.15c0 1.1493-0.46877 2.056-1.8165 2.056h-13.603c-3.5274 0-7.1959-1.3707-7.1959-1.3707v8.2239c0 10.254-2.6498 20.728-14.049 31.183z" fill="#fff"/><path id="path3028" d="m137.3 79.923 3.2646-35.868 1.4755-6.2416s6.5147 9.4993 23.113 40.058c10.541-19.167 17.264-42.071 17.264-42.071 0.47253-1.566 1.7226-1.945 3.5322-1.4676l11.378 3.5171c1.3826 0.49275 2.1317 1.0386 1.3535 3.6076-9.4647 27.543-24.285 50.264-24.285 50.264-2.8534 4.2285-5.7598 7.8182-15.39 7.8182-7.7685 0-10.475-2.6464-13.181-6.6854l-8.5255-12.932z" fill="#ffab00"/><path id="path3026" d="m137.3 79.923-17.738-27.951c-1.0653-1.9922-1.8768-3.2005-1.8768-5.5662 0.0137-3.478 1.8202-5.9925 7.9491-9.8314 1.3234-0.87002 6.0956-2.767 9.963-2.767 5.214 0 9.1036 5.397 9.1036 16.688 0 18.372-7.4005 29.427-7.4005 29.427z" fill="#c80063"/><path id="path17" d="m12.486 121.5c-0.44142-0.5957-1.0967-1.0518-1.941-1.3535 0.47901-0.27247 0.86966-0.61327 1.1529-1.0273 0.43113-0.62598 0.63769-1.3789 0.69581-2.21 0.0078-0.1162 0.01171-0.23242 0.01171-0.3457 0.01126-1.9238-1.1899-3.5137-3.1089-3.9482-0.72118-0.16796-1.4712-0.25681-2.2094-0.27049-1.0396-0.0186-2.0781-0.0234-3.1152-0.0234-0.95998 0-1.918 4e-3 -2.8755 4e-3h-0.15379c-0.1709 2e-3 -0.29343 0.0391-0.37204 0.0479l-0.27686 0.0371-0.028319 0.27831c-0.007339 0.0801-0.021993 0.14843-0.023479 0.26072-4.7273e-4 2.749-0.001441 5.497-0.001441 8.2451 0 2.2773 4.7273e-4 4.5537 0.002454 6.831 4.7273e-4 0.15819 0.012178 0.30566 0.053193 0.44824 0.053734 0.21192 0.21437 0.42188 0.42384 0.51757 0.20606 0.0996 0.42282 0.11915 0.67481 0.12404 0.64017 6e-3 1.2832 0.0137 1.9282 0.0137 0.45704 0 0.91502-5e-3 1.3745-0.0176 1.415-0.0371 2.8535-0.0361 4.2895-0.20312 1.1826-0.1367 2.1538-0.53612 2.8677-1.2012 0.71486-0.66404 1.1523-1.5849 1.3125-2.6963 0.04932-0.334 0.07422-0.66212 0.07422-0.98049 9.23e-4 -0.94429-0.22662-1.8193-0.7554-2.5302zm-4.9946-2.5293c-0.77786 0.0547-1.565 0.0635-2.3579 0.0635-0.37107 0-0.74318-9.9e-4 -1.1172-9.9e-4 -0.15965 0-0.32031 0-0.48047 9.9e-4v-3.8506c0.76708-3e-3 1.5322-0.0215 2.2891-0.0215 0.58107 0 1.1592 0.0108 1.7309 0.0489 0.59183 0.0381 0.98929 0.17871 1.229 0.41211 0.24024 0.23046 0.39455 0.59962 0.39648 1.2637 0 0.17968-0.012178 0.37793-0.036625 0.59863-0.060532 0.50978-0.21777 0.84182-0.46384 1.0684-0.24712 0.22752-0.62162 0.37694-1.1895 0.41697zm-3.9526 2.8535c0.15379-9.9e-4 0.31202-3e-3 0.45945-2e-3 0.16017-9.9e-4 0.31644 9.7e-4 0.47221 5e-3 1.27 0.0312 2.5273 2e-3 3.7456 0.12598 0.61624 0.0664 1.0269 0.2744 1.2988 0.58496 0.27101 0.30957 0.42336 0.75291 0.42384 1.3535l-0.00682 0.23926c-0.048849 0.75489-0.20656 1.2197-0.48828 1.5088-0.2788 0.29201-0.75684 0.48632-1.5918 0.56151-0.582 0.0527-1.1709 0.0684-1.7676 0.0684-0.83056 0-1.6807-0.0283-2.5454-0.0371v-4.4082z" fill="#fff"/><path id="path3034" d="m22.321 112.12c-2.4053 0-4.3603 0.76758-5.5268 2-1.1773 1.2402-2.1626 2.9639-2.1626 6.6386 0 2.623 0.47167 4.8184 2.1572 6.6093 1.1875 1.2617 2.935 1.9727 5.563 1.9727 2.2431 0 4.0615-0.50978 5.5263-2.0273 1.5312-1.6211 2.1133-3.8262 2.1133-6.5547 0-2.6641-0.56347-5.0058-2.123-6.5918-0.9912-1.039-2.6655-2.0468-5.5473-2.0468zm0.01711 2.9687c1.1191 0 1.9497 0.31348 2.7334 1.0606 0.97171 0.91991 1.2998 2.7207 1.2998 4.5859 0 1.7129-0.2627 3.5058-1.293 4.6025-0.50391 0.48633-1.3662 1.0635-2.7471 1.0635-1.2871 0-2.1264-0.42384-2.73-0.98245-1.2006-1.1699-1.354-3.2285-1.354-4.7041 0-1.9824 0.31202-3.5498 1.3437-4.6318 0.68017-0.60742 1.6865-0.99415 2.7471-0.99415z" fill="#fff"/><path id="path3036" d="m31.965 112.31v15.957c0 0.65624 0.25638 0.88673 1.7749 0.88673 1.5542 0 1.748-0.21093 1.748-0.88673v-5.3594h2.3403l3.0957 5.1699c0.16062 0.27344 0.3276 0.54688 0.44137 0.65623 0.3545 0.36135 1.144 0.41992 1.998 0.41992 1.4351 0 1.7622-0.24316 1.7622-0.46093 0-0.15528-0.0332-0.27929-0.26318-0.61329l-3.5522-5.4961s1.3818-0.40527 2.1377-1.2422c1.2226-1.2383 1.4541-2.7617 1.4541-3.8555 0-1.6211-0.44137-2.8623-1.2548-3.6758-1.2861-1.2402-2.8965-1.5-5.1733-1.5h-6.5088zm3.523 2.8779h3.2549c0.82178 3e-3 1.5025 0.14457 1.9531 0.57522 0.42627 0.43944 0.57909 0.92576 0.57909 1.7129 0 0.82813-0.16597 1.4951-0.56052 1.8906-0.37402 0.38671-1.1094 0.66209-1.9448 0.66209h-3.2817v-4.8408z" fill="#fff"/><path id="path3036_1_" d="m76.938 112.31v15.957c0 0.65624 0.25638 0.88673 1.7749 0.88673 1.5542 0 1.7481-0.21093 1.7481-0.88673v-5.3594h2.3403l3.0957 5.1699c0.16066 0.27344 0.32765 0.54688 0.44191 0.65623 0.35349 0.36135 1.1435 0.41992 1.998 0.41992 1.4346 0 1.7618-0.24316 1.7618-0.46093 0-0.15528-0.03325-0.27929-0.26367-0.61329l-3.5518-5.4961s1.3818-0.40527 2.1377-1.2422c1.2227-1.2383 1.4541-2.7617 1.4541-3.8555 0-1.6211-0.44137-2.8623-1.2548-3.6758-1.2862-1.2402-2.8965-1.5-5.1733-1.5h-6.5088zm3.523 2.8779h3.2549c0.82178 3e-3 1.5024 0.14457 1.9531 0.57522 0.42627 0.43944 0.57909 0.92576 0.57909 1.7129 0 0.82813-0.16602 1.4951-0.56052 1.8906-0.37402 0.38671-1.1094 0.66209-1.9448 0.66209h-3.2817v-4.8408z" fill="#fff"/><path id="path22" d="m61.434 119.93c-0.17968-2.3184-0.74612-4.0664-1.9043-5.3027-1.1582-1.2344-2.8555-1.8965-5.164-2.1543-0.91797-0.10157-1.8379-0.12888-2.7539-0.12888-1.0274 0-2.0508 0.0351-3.0606 0.0332h-0.34957-0.02735c-0.22464 0-0.42969 0.0351-0.61135 0.11717-0.27342 0.12306-0.46091 0.3633-0.54879 0.60743-0.08986 0.24411-0.10744 0.49801-0.10938 0.75583v0.0195c0.0039 1.0684 0.0059 2.1348 0.0059 3.2051 0 1.1777-0.0019 2.3535-0.0019 3.5332v0.12108c0 1.2324 0.0039 2.4648 0.0039 3.6972 0 1.0117-2e-3 2.0234-0.01173 3.0332v0.043c0.0019 0.4414 0.07422 0.84569 0.34374 1.1602 0.27346 0.31641 0.69534 0.44335 1.1758 0.43944h0.0488c0.35939-6e-3 0.72071-8e-3 1.0821-8e-3 0.86912 0 1.7402 0.0117 2.6152 0.0117 0.77539 0 1.5527-8e-3 2.332-0.041 3.166-0.12501 5.5684-1.9082 6.4258-4.7207 0.35547-1.1504 0.54492-2.332 0.54492-3.5332 0-0.29487-0.01173-0.59177-0.03516-0.88862zm-11.021 5.4922v-2e-3c0.0098-0.666 0.01173-1.33 0.01173-1.9941 0-0.90428-0.0039-1.8066-0.0039-2.709v-2e-3l-2e-3 -0.10353c0-0.81642 0.01366-1.6348 0.01366-2.459 0-0.59179-0.0059-1.1875-0.02929-1.7832v-2e-3l-0.0019-0.0977c0-0.35939 0.07809-0.52928 0.16012-0.60937 0.08012-0.084 0.24024-0.15429 0.56836-0.15429l0.16016 4e-3c0.86719 0.0508 1.7148 0.0117 2.5332 0.0508 1.2266 0.0547 2.0645 0.32222 2.6465 0.82419 0.58202 0.50391 0.96484 1.2852 1.1757 2.4961 0.11136 0.63085 0.16994 1.2676 0.16994 1.9004 0 0.71681-0.07615 1.4316-0.23632 2.1387-0.24415 1.0684-0.64649 1.8027-1.2265 2.2949-0.57817 0.48826-1.3672 0.76366-2.4629 0.8203-0.29883 0.0156-0.59962 0.0195-0.90431 0.0195-0.42186 0-0.84961-8e-3 -1.2832-8e-3 -0.23047 0-0.46289 2e-3 -0.6953 0.01l-0.06053 2e-3c-0.28125-4e-3 -0.37503-0.0645-0.42384-0.11915-0.05277-0.0547-0.11132-0.20118-0.10938-0.48437v-0.0332z" fill="#fff"/><path id="path3202" d="m63.993 129.08c-0.49607 0-0.67186-0.25291-0.67186-0.67186v-15.279c0-0.52734 0.15429-0.7578 0.96876-0.7578h10.391v2.8809h-7.834v3.876h6.7031v2.8535h-6.7031v4.2451l7.9951 2e-3v2.8515h-10.849z" fill="#fff"/></svg>
