<svg height="99.594269" width="199" xmlns="http://www.w3.org/2000/svg"><path d="m .00000005 13.070972c0-7.1883753 5.09281535-13.07097506 13.27649595-13.07097506 8.615899 0 13.235392 6.17137976 13.235392 13.42035806 0 7.971664-5.837067 12.803804-13.173737 12.803804-7.9851663 0-13.33815095-5.446817-13.33815095-13.153187z" fill="#00beca"/><path d="m .06804076 37.143116c0-1.22356.68611895-2.108 2.05598324-2.108h22.366459c1.181567 0 1.962676.936442 1.962676 2.087354v34.289157c0 5.846185 3.328804 12.645441 13.602398 12.645441 10.005415 0 15.181367-6.225685 15.181367-18.936702v-2.67214l10.62258 20.217168 1.370655 6.853277s-10.422128 10.075596-29.311995 10.075596c-9.375767 0-37.85012324-1.53807-37.85012324-32.691411z" fill="#00beca"/><path d="m67.230159 89.518671 10.62258-27.413109 3.426639-3.426639v4.797294c0 11.538778 5.597774 20.416435 20.082352 20.416435 13.20756 0 22.50428-7.482032 22.50428-19.092669 0-5.901525-2.85671-10.584205-2.85671-10.584205l14.9823 7.480876 1.31332 18.227429s-9.9771 19.567423-38.101134 19.567423c-21.961184 0-31.973627-9.972835-31.973627-9.972835z" fill="#8c7b11"/><path d="m67.230159 89.518671s-11.993235-9.165069-11.993235-26.302539v-49.083512c0-3.94682 2.546798-7.3670402 13.164998-7.3670402 11.604066 0 12.877456 4.5168302 12.877456 7.9055472v20.363989h20.559832c1.48349 0 2.05598.867145 2.05598 2.241097v12.150786c0 1.148969-.46875 2.055983-1.81735 2.055983h-13.602521c-3.527399 0-7.195941-1.370656-7.195941-1.370656v8.223933c0 10.254031-2.649655 20.728104-14.049219 31.182412z" fill="#fff"/><path d="m137.30492 79.924083 3.26467-35.868488 1.47503-6.241646s6.51534 9.499317 23.11371 40.058434c10.5416-19.16725 17.26444-42.071163 17.26444-42.071163.47201-1.565621 1.72198-1.944662 3.53136-1.467766l11.37883 3.516827c1.38155.493018 2.13108 1.038813 1.35315 3.607624-9.46459 27.543438-24.2852 50.263811-24.2852 50.263811-2.85335 4.22852-5.75993 7.818404-15.38976 7.818404-7.76911 0-10.4748-2.646174-13.18085-6.684883z" fill="#ffab00"/><path d="m137.30492 79.924083-17.739-27.951616c-1.06464-1.992203-1.87605-3.200357-1.87605-5.56639.0137-3.477795 1.82081-5.992379 7.94833-9.831444 1.32408-.870055 6.09627-2.766843 9.96291-2.766843 5.21433 0 9.10447 5.396918 9.10447 16.688104 0 18.372057-7.40066 29.428189-7.40066 29.428189z" fill="#c80063"/></svg>