<?xml version="1.0" encoding="UTF-8" standalone="no"?>
<!-- Created with Inkscape (http://www.inkscape.org/) -->

<svg
   xmlns:dc="http://purl.org/dc/elements/1.1/"
   xmlns:cc="http://creativecommons.org/ns#"
   xmlns:rdf="http://www.w3.org/1999/02/22-rdf-syntax-ns#"
   xmlns:svg="http://www.w3.org/2000/svg"
   xmlns="http://www.w3.org/2000/svg"
   xmlns:sodipodi="http://sodipodi.sourceforge.net/DTD/sodipodi-0.dtd"
   xmlns:inkscape="http://www.inkscape.org/namespaces/inkscape"
   id="svg2"
   version="1.1"
   inkscape:version="0.91 r13725"
   width="199"
   height="99.594269"
   sodipodi:docname="ITV.svg">
  <metadata
     id="metadata8">
    <rdf:RDF>
      <cc:Work
         rdf:about="">
        <dc:format>image/svg+xml</dc:format>
        <dc:type
           rdf:resource="http://purl.org/dc/dcmitype/StillImage" />
        <dc:title></dc:title>
      </cc:Work>
    </rdf:RDF>
  </metadata>
  <defs
     id="defs6" />
  <sodipodi:namedview
     pagecolor="#ffffff"
     bordercolor="#666666"
     borderopacity="1"
     objecttolerance="10"
     gridtolerance="10"
     guidetolerance="10"
     inkscape:pageopacity="0"
     inkscape:pageshadow="2"
     inkscape:window-width="1920"
     inkscape:window-height="1017"
     id="namedview4"
     showgrid="false"
     fit-margin-left="0"
     fit-margin-top="0"
     fit-margin-bottom="0"
     fit-margin-right="0"
     inkscape:zoom="5.8948449"
     inkscape:cx="123.0146"
     inkscape:cy="37.83366"
     inkscape:window-x="-8"
     inkscape:window-y="-8"
     inkscape:window-maximized="1"
     inkscape:current-layer="svg2">
    <inkscape:grid
       type="xygrid"
       id="grid2998"
       empspacing="5"
       visible="true"
       enabled="true"
       snapvisiblegridlinesonly="true"
       originx="-0.43927905"
       originy="-0.10000143" />
  </sodipodi:namedview>
  <path
     sodipodi:nodetypes="ccccc"
     inkscape:connector-curvature="0"
     id="path3018"
     d="M 5.1317318e-8,13.070972 C 5.1317318e-8,5.8825967 5.0928154,-3.0586353e-6 13.276496,-3.0586353e-6 c 8.615899,0 13.235392,6.1713797586353 13.235392,13.4203580586353 0,7.971664 -5.837067,12.803804 -13.173737,12.803804 C 5.3529847,26.224159 5.1317318e-8,20.777342 5.1317318e-8,13.070972 Z"
     style="fill:#00beca;fill-opacity:1;stroke:none" />
  <path
     sodipodi:nodetypes="ccccccccccccc"
     inkscape:connector-curvature="0"
     id="path3020"
     d="m 0.06804076,37.143116 c 0,-1.22356 0.68611895,-2.108 2.05598324,-2.108 l 22.366459,0 c 1.181567,0 1.962676,0.936442 1.962676,2.087354 l 0,34.289157 c 0,5.846185 3.328804,12.645441 13.602398,12.645441 10.005415,0 15.181367,-6.225685 15.181367,-18.936702 l 0,-2.67214 10.62258,20.217168 1.370655,6.853277 c 0,0 -10.422128,10.075596 -29.311995,10.075596 -9.375767,0 -37.85012324,-1.53807 -37.85012324,-32.691411 z"
     style="fill:#00beca;fill-opacity:1;stroke:none" />
  <path
     sodipodi:nodetypes="ccccccccccc"
     inkscape:connector-curvature="0"
     id="path3024"
     d="m 67.230159,89.518671 10.62258,-27.413109 3.426639,-3.426639 0,4.797294 c 0,11.538778 5.597774,20.416435 20.082352,20.416435 13.20756,0 22.50428,-7.482032 22.50428,-19.092669 0,-5.901525 -2.85671,-10.584205 -2.85671,-10.584205 l 14.9823,7.480876 1.31332,18.227429 c 0,0 -9.9771,19.567423 -38.101134,19.567423 -21.961184,0 -31.973627,-9.972835 -31.973627,-9.972835 z"
     style="fill:#8c7b11;fill-opacity:1;stroke:none" />
  <path
     sodipodi:nodetypes="cccccccccccccc"
     inkscape:connector-curvature="0"
     id="path3022"
     d="m 67.230159,89.518671 c 0,0 -11.993235,-9.165069 -11.993235,-26.302539 l 0,-49.083512 c 0,-3.94682 2.546798,-7.3670402 13.164998,-7.3670402 11.604066,0 12.877456,4.5168302 12.877456,7.9055472 l 0,20.363989 20.559832,0 c 1.48349,0 2.05598,0.867145 2.05598,2.241097 l 0,12.150786 c 0,1.148969 -0.46875,2.055983 -1.81735,2.055983 l -13.602521,0 c -3.527399,0 -7.195941,-1.370656 -7.195941,-1.370656 l 0,8.223933 c 0,10.254031 -2.649655,20.728104 -14.049219,31.182412 z"
     style="fill:#ffffff;fill-opacity:1;stroke:none" />
  <path
     sodipodi:nodetypes="cccccccccccc"
     inkscape:connector-curvature="0"
     id="path3028"
     d="m 137.30492,79.924083 3.26467,-35.868488 1.47503,-6.241646 c 0,0 6.51534,9.499317 23.11371,40.058434 10.5416,-19.16725 17.26444,-42.071163 17.26444,-42.071163 0.47201,-1.565621 1.72198,-1.944662 3.53136,-1.467766 l 11.37883,3.516827 c 1.38155,0.493018 2.13108,1.038813 1.35315,3.607624 -9.46459,27.543438 -24.2852,50.263811 -24.2852,50.263811 -2.85335,4.22852 -5.75993,7.818404 -15.38976,7.818404 -7.76911,0 -10.4748,-2.646174 -13.18085,-6.684883 z"
     style="fill:#ffab00;fill-opacity:1;stroke:none" />
  <path
     sodipodi:nodetypes="ccccccc"
     inkscape:connector-curvature="0"
     id="path3026"
     d="m 137.30492,79.924083 -17.739,-27.951616 c -1.06464,-1.992203 -1.87605,-3.200357 -1.87605,-5.56639 0.0137,-3.477795 1.82081,-5.992379 7.94833,-9.831444 1.32408,-0.870055 6.09627,-2.766843 9.96291,-2.766843 5.21433,0 9.10447,5.396918 9.10447,16.688104 0,18.372057 -7.40066,29.428189 -7.40066,29.428189 z"
     style="fill:#c80063;fill-opacity:1;stroke:none" />
</svg>
