<svg version="1.1" viewBox="0 0 335.14 123.77" xmlns="http://www.w3.org/2000/svg">
 <defs>
  <linearGradient id="b" x1="-111.14" x2=".35958" y1="-22.221" y2="-22.221" gradientUnits="userSpaceOnUse">
   <stop stop-color="#15e0b1" offset="0"/>
   <stop stop-color="#1be0b6" offset=".2"/>
   <stop stop-color="#26e1c7" offset=".4"/>
   <stop stop-color="#30e0d9" offset=".6"/>
   <stop stop-color="#3be1e4" offset=".8"/>
   <stop stop-color="#40dff0" offset="1"/>
  </linearGradient>
  <linearGradient id="a" x1="-24.855" x2="86.642" y1="-28.634" y2="-28.634" gradientUnits="userSpaceOnUse">
   <stop stop-color="#15e0b1" offset="0"/>
   <stop stop-color="#19dfb6" offset=".2"/>
   <stop stop-color="#26e0c6" offset=".4"/>
   <stop stop-color="#32e0d8" offset=".6"/>
   <stop stop-color="#3ae2e3" offset=".8"/>
   <stop stop-color="#40dff0" offset="1"/>
  </linearGradient>
 </defs>
 <g transform="translate(-71.162 28.434)">
  <g transform="matrix(1.6915 0 0 1.6915 -300.09 -608.39)">
   <g transform="translate(118.69 -159.1)">
    <g transform="matrix(.89057 0 0 .89057 10.934 63.039)">
     <circle transform="matrix(1.1826 0 0 1.1826 -40.692 -83.593)" cx="286.76" cy="508.52" r="21.087" fill="#40dff0" fill-rule="evenodd"/>
    </g>
    <g transform="matrix(.022063 0 0 .022063 276.85 507.73)" fill="#fff">
     <path d="m-519.81 1148.8c-62.581 0-75.411-19.04-75.411-42.036v-756h153v269c61.779-36.681 112.38-55 182-55 46.538 0 95.295 10.292 135.05 50.286 45.354 45.191 53.946 107.34 53.946 163.71v327c0 30.52-21.534 43-78 43-57.39 0-75-15.498-75-39.212v-301.79c0-24.487-0.54608-78.89-24.134-101.69-11.116-11.518-31.839-19.319-66.039-19.319-52.099 0-111.63 29.154-127.83 39.013v385c0 16.912-11.499 38.036-77.589 38.036z"/>
     <path d="m463.98 350.81v235c-20.204-7.3124-54.245-21.031-116.59-21.031-56.11 0-127.13 8.7858-195.72 73.125-54.225 50.934-77.75 134.01-77.75 224.97 0 104.67 23.571 169.22 71.844 219.09 49.214 46.936 108.09 71.844 238.22 71.844 97.877 0 144.75-7.7572 206.12-17.188 15.06-3.0431 26.875-7.9589 26.875-27.812v-758h-153zm-93.844 330.91c42.579 0 93.844 14.094 93.844 14.094v334s-54.383 7.0313-86.438 7.0313c-49.532 0-82.311-16.17-104.28-37.219-31.011-30.622-42.219-83.9-42.219-135.34 0-64.066 10.377-112.76 43.812-148.41 20.54-20.484 55.123-34.156 95.281-34.156z"/>
    </g>
   </g>
  </g>
  <g transform="translate(.00041456 3.0937e-6)">
   <g transform="matrix(2.2177 0 0 -2.2177 317.67 25.353)" fill="url(#b)">
    <path d="m0 0c0-7.823-3.713-12.327-16.301-21.045-0.496-0.344-0.367-0.798 0.025-0.798h14.745c1.045 0 1.59-0.401 1.728-1.407 0.168-1.218 0.248-2.201 0.248-3.47 0-1.297-0.127-2.382-0.335-3.37-0.221-1.049-0.684-1.465-1.693-1.465h-28.828c-1.273 0-1.812 0.414-2.283 1.507l-0.981 2.526c-0.339 0.98-0.581 1.768-0.581 2.646 0 1.454 0.783 2.182 1.794 2.904 15.201 10.843 20.482 14.763 20.482 20.588 0 3.016-2.248 5.138-6.141 5.138-3.863 0-7.354-1.567-11.067-4.494-0.987-0.778-1.852-0.669-2.379 0.314-0.734 1.371-1.757 3.727-2.384 5.953-0.369 1.314-0.118 2.312 0.716 2.895 1.023 0.715 3.379 1.889 4.587 2.367 3.355 1.328 7.559 2.297 12.345 2.297 9.141 0 16.303-4.887 16.303-13.086" fill="url(#b)"/>
   </g>
   <g transform="matrix(2.2177 0 0 -2.2177 126.33 11.131)" fill="url(#a)">
    <path d="m0 0c-1.802 0-3.282-0.326-4.012-0.992-0.497-0.452-0.725-1.057-0.725-1.94v-18.006c0-2.993-0.481-4.616-1.539-5.753-0.93-1-2.391-1.541-3.999-1.541-1.57 0-2.962 0.522-3.791 1.398-0.865 0.915-1.269 2.183-1.269 4.058v11.727c0 0.513-0.192 0.741-0.759 0.741h-7.971c-0.561 0-0.746-0.22-0.746-0.744v-10.601c0-4.232 1.091-6.648 2.996-8.553 2.475-2.475 6.705-3.58 10.725-3.58 4.014 0 8.2 1.423 10.673 3.708 2.428-2.213 6.839-3.706 11.708-3.706 6.432 0 11.161 2.659 13.921 7.181 1.225-1.898 2.13-3.309 3-4.595 1.281-1.893 2.447-2.588 5.056-2.588 2.471 0 3.954 0.593 5.291 2.637 3.505 5.36 6.492 11.698 8.645 17.53 0.27 0.73 0.462 1.262 0.462 1.595 0 0.342-0.222 0.61-0.753 0.778-0.514 0.163-1.896 0.587-2.589 0.798-1.152 0.351-1.57 0.454-1.82 0.454-0.466 0-0.719-0.261-0.881-0.799-1.615-5.373-4.072-11.411-6.264-15.162-0.718 1.37-2.045 3.753-3.277 5.901-1.905 3.325-3.787 6.68-4.732 8.221-0.955 1.558-1.594 1.973-2.851 1.973-2.59 0-6.427-2.324-6.427-4.491 0-0.736 0.205-1.287 0.968-2.59 0.868-1.482 1.304-2.685 1.304-4.163 0-3.685-2.752-7.023-8.067-7.023-2.523 0-4.47 0.716-5.739 2.018-1.21 1.243-1.799 2.914-1.799 5.704v4.682c0.886-0.38 1.975-0.572 3.287-0.572h4.208c0.567 0 0.766 0.228 0.766 0.74v4.508c0 0.513-0.199 0.741-0.766 0.741h-7.495v7.374c0 0.883-0.23 1.488-0.726 1.94-0.731 0.666-2.237 0.992-4.013 0.992m-20.074-7.04c-2.968 0-4.801 2.107-4.801 4.762 0 2.656 1.833 4.762 4.801 4.762s4.801-2.106 4.801-4.762c0-2.655-1.833-4.762-4.801-4.762" fill="url(#a)"/>
   </g>
  </g>
 </g>
</svg>
