<?xml version="1.0" encoding="UTF-8"?>
<!-- Created with Inkscape (http://www.inkscape.org/) -->
<svg id="svg2" width="247.5" height="99.5" version="1.1" xmlns="http://www.w3.org/2000/svg" xmlns:cc="http://creativecommons.org/ns#" xmlns:dc="http://purl.org/dc/elements/1.1/" xmlns:rdf="http://www.w3.org/1999/02/22-rdf-syntax-ns#" xmlns:xlink="http://www.w3.org/1999/xlink">
 <defs id="defs4">
  <linearGradient id="linearGradient3160">
   <stop id="stop3162" stop-color="#15e0b1" offset="0"/>
   <stop id="stop3164" stop-color="#19dfb6" offset=".2"/>
   <stop id="stop3166" stop-color="#26e0c6" offset=".4"/>
   <stop id="stop3168" stop-color="#32e0d8" offset=".6"/>
   <stop id="stop3170" stop-color="#3ae2e3" offset=".8"/>
   <stop id="stop3172" stop-color="#40dff0" offset="1"/>
  </linearGradient>
  <linearGradient id="linearGradient3146">
   <stop id="stop3148" stop-color="#15e0b1" offset="0"/>
   <stop id="stop3150" stop-color="#1be0b6" offset=".2"/>
   <stop id="stop3152" stop-color="#26e1c7" offset=".4"/>
   <stop id="stop3154" stop-color="#30e0d9" offset=".6"/>
   <stop id="stop3156" stop-color="#3be1e4" offset=".8"/>
   <stop id="stop3158" stop-color="#40dff0" offset="1"/>
  </linearGradient>
  <linearGradient id="linearGradient3082" x1="58.126" x2="131.02" y1="785.68" y2="792.05" gradientUnits="userSpaceOnUse">
   <stop id="stop3076" stop-color="#f00" offset="0"/>
   <stop id="stop3144" stop-color="#f00" stop-opacity=".93725" offset=".2"/>
   <stop id="stop3142" stop-color="#f00" stop-opacity=".87451" offset=".4"/>
   <stop id="stop3140" stop-color="#f00" stop-opacity=".74902" offset=".6"/>
   <stop id="stop3138" stop-color="#f00" stop-opacity=".49804" offset=".8"/>
   <stop id="stop3078" stop-color="#f00" stop-opacity="0" offset="1"/>
  </linearGradient>
  <linearGradient id="linearGradient3134" x1="-24.855" x2="86.642" y1="-28.634" y2="-28.634" gradientUnits="userSpaceOnUse" xlink:href="#linearGradient3160"/>
  <linearGradient id="linearGradient3136" x1="-111.14" x2=".35958" y1="-22.221" y2="-22.221" gradientUnits="userSpaceOnUse" xlink:href="#linearGradient3146"/>
 </defs>
 <metadata id="metadata7">
  <rdf:RDF>
   <cc:Work rdf:about="">
    <dc:format>image/svg+xml</dc:format>
    <dc:type rdf:resource="http://purl.org/dc/dcmitype/StillImage"/>
    <dc:title/>
   </cc:Work>
  </rdf:RDF>
 </metadata>
 <g id="layer1" transform="translate(-71.162 4.1682)">
  <g id="g3174">
   <g id="g3317" transform="matrix(2.2177 0 0 -2.2177 317.67 25.353)" fill="url(#linearGradient3136)">
    <path id="path3319" d="m0 0c0-7.823-3.713-12.327-16.301-21.045-0.496-0.344-0.367-0.798 0.025-0.798h14.745c1.045 0 1.59-0.401 1.728-1.407 0.168-1.218 0.248-2.201 0.248-3.47 0-1.297-0.127-2.382-0.335-3.37-0.221-1.049-0.684-1.465-1.693-1.465h-28.828c-1.273 0-1.812 0.414-2.283 1.507l-0.981 2.526c-0.339 0.98-0.581 1.768-0.581 2.646 0 1.454 0.783 2.182 1.794 2.904 15.201 10.843 20.482 14.763 20.482 20.588 0 3.016-2.248 5.138-6.141 5.138-3.863 0-7.354-1.567-11.067-4.494-0.987-0.778-1.852-0.669-2.379 0.314-0.734 1.371-1.757 3.727-2.384 5.953-0.369 1.314-0.118 2.312 0.716 2.895 1.023 0.715 3.379 1.889 4.587 2.367 3.355 1.328 7.559 2.297 12.345 2.297 9.141 0 16.303-4.887 16.303-13.086" fill="url(#linearGradient3136)"/>
   </g>
   <g id="g3321" transform="matrix(2.2177 0 0 -2.2177 126.33 11.131)" fill="url(#linearGradient3134)">
    <path id="path3323" d="m0 0c-1.802 0-3.282-0.326-4.012-0.992-0.497-0.452-0.725-1.057-0.725-1.94v-18.006c0-2.993-0.481-4.616-1.539-5.753-0.93-1-2.391-1.541-3.999-1.541-1.57 0-2.962 0.522-3.791 1.398-0.865 0.915-1.269 2.183-1.269 4.058v11.727c0 0.513-0.192 0.741-0.759 0.741h-7.971c-0.561 0-0.746-0.22-0.746-0.744v-10.601c0-4.232 1.091-6.648 2.996-8.553 2.475-2.475 6.705-3.58 10.725-3.58 4.014 0 8.2 1.423 10.673 3.708 2.428-2.213 6.839-3.706 11.708-3.706 6.432 0 11.161 2.659 13.921 7.181 1.225-1.898 2.13-3.309 3-4.595 1.281-1.893 2.447-2.588 5.056-2.588 2.471 0 3.954 0.593 5.291 2.637 3.505 5.36 6.492 11.698 8.645 17.53 0.27 0.73 0.462 1.262 0.462 1.595 0 0.342-0.222 0.61-0.753 0.778-0.514 0.163-1.896 0.587-2.589 0.798-1.152 0.351-1.57 0.454-1.82 0.454-0.466 0-0.719-0.261-0.881-0.799-1.615-5.373-4.072-11.411-6.264-15.162-0.718 1.37-2.045 3.753-3.277 5.901-1.905 3.325-3.787 6.68-4.732 8.221-0.955 1.558-1.594 1.973-2.851 1.973-2.59 0-6.427-2.324-6.427-4.491 0-0.736 0.205-1.287 0.968-2.59 0.868-1.482 1.304-2.685 1.304-4.163 0-3.685-2.752-7.023-8.067-7.023-2.523 0-4.47 0.716-5.739 2.018-1.21 1.243-1.799 2.914-1.799 5.704v4.682c0.886-0.38 1.975-0.572 3.287-0.572h4.208c0.567 0 0.766 0.228 0.766 0.74v4.508c0 0.513-0.199 0.741-0.766 0.741h-7.495v7.374c0 0.883-0.23 1.488-0.726 1.94-0.731 0.666-2.237 0.992-4.013 0.992m-20.074-7.04c-2.968 0-4.801 2.107-4.801 4.762 0 2.656 1.833 4.762 4.801 4.762s4.801-2.106 4.801-4.762c0-2.655-1.833-4.762-4.801-4.762" fill="url(#linearGradient3134)"/>
   </g>
  </g>
 </g>
</svg>
