<svg height="99.500221" width="247.49966" xmlns="http://www.w3.org/2000/svg" xmlns:xlink="http://www.w3.org/1999/xlink"><linearGradient id="a" gradientUnits="userSpaceOnUse" x1="-24.855038" x2="86.641678" y1="-28.63352" y2="-28.63352"><stop offset="0" stop-color="#15e0b1"/><stop offset=".2" stop-color="#19dfb6"/><stop offset=".40000001" stop-color="#26e0c6"/><stop offset=".60000002" stop-color="#32e0d8"/><stop offset=".80000001" stop-color="#3ae2e3"/><stop offset="1" stop-color="#40dff0"/></linearGradient><linearGradient id="b" gradientUnits="userSpaceOnUse" x1="-111.13714" x2=".359582" y1="-22.220621" y2="-22.220621"><stop offset="0" stop-color="#15e0b1"/><stop offset=".2" stop-color="#1be0b6"/><stop offset=".40000001" stop-color="#26e1c7"/><stop offset=".60000002" stop-color="#30e0d9"/><stop offset=".80000001" stop-color="#3be1e4"/><stop offset="1" stop-color="#40dff0"/></linearGradient><path d="m0 0c0-7.823-3.713-12.327-16.301-21.045-.496-.344-.367-.798.025-.798h14.745c1.045 0 1.59-.401 1.728-1.407.168-1.218.248-2.201.248-3.47 0-1.297-.127-2.382-.335-3.37-.221-1.049-.684-1.465-1.693-1.465h-28.828c-1.273 0-1.812.414-2.283 1.507l-.981 2.526c-.339.98-.581 1.768-.581 2.646 0 1.454.783 2.182 1.794 2.904 15.201 10.843 20.482 14.763 20.482 20.588 0 3.016-2.248 5.138-6.141 5.138-3.863 0-7.354-1.567-11.067-4.494-.987-.778-1.852-.669-2.379.314-.734 1.371-1.757 3.727-2.384 5.953-.369 1.314-.118 2.312.716 2.895 1.023.715 3.379 1.889 4.587 2.367 3.355 1.328 7.559 2.297 12.345 2.297 9.141 0 16.303-4.887 16.303-13.086" fill="url(#b)" transform="matrix(2.2176972 0 0 -2.2176972 246.512788 29.520786)"/><path d="m0 0c-1.802 0-3.282-.326-4.012-.992-.497-.452-.725-1.057-.725-1.94v-18.006c0-2.993-.481-4.616-1.539-5.753-.93-1-2.391-1.541-3.999-1.541-1.57 0-2.962.522-3.791 1.398-.865.915-1.269 2.183-1.269 4.058v11.727c0 .513-.192.741-.759.741h-7.971c-.561 0-.746-.22-.746-.744v-10.601c0-4.232 1.091-6.648 2.996-8.553 2.475-2.475 6.705-3.58 10.725-3.58 4.014 0 8.2 1.423 10.673 3.708 2.428-2.213 6.839-3.706 11.708-3.706 6.432 0 11.161 2.659 13.921 7.181 1.225-1.898 2.13-3.309 3-4.595 1.281-1.893 2.447-2.588 5.056-2.588 2.471 0 3.954.593 5.291 2.637 3.505 5.36 6.492 11.698 8.645 17.53.27.73.462 1.262.462 1.595 0 .342-.222.61-.753.778-.514.163-1.896.587-2.589.798-1.152.351-1.57.454-1.82.454-.466 0-.719-.261-.881-.799-1.615-5.373-4.072-11.411-6.264-15.162-.718 1.37-2.045 3.753-3.277 5.901-1.905 3.325-3.787 6.68-4.732 8.221-.955 1.558-1.594 1.973-2.851 1.973-2.59 0-6.427-2.324-6.427-4.491 0-.736.205-1.287.968-2.59.868-1.482 1.304-2.685 1.304-4.163 0-3.685-2.752-7.023-8.067-7.023-2.523 0-4.47.716-5.739 2.018-1.21 1.243-1.799 2.914-1.799 5.704v4.682c.886-.38 1.975-.572 3.287-.572h4.208c.567 0 .766.228.766.74v4.508c0 .513-.199.741-.766.741h-7.495v7.374c0 .883-.23 1.488-.726 1.94-.731.666-2.237.992-4.013.992m-20.074-7.04c-2.968 0-4.801 2.107-4.801 4.762 0 2.656 1.833 4.762 4.801 4.762s4.801-2.106 4.801-4.762c0-2.655-1.833-4.762-4.801-4.762" fill="url(#a)" transform="matrix(2.2176972 0 0 -2.2176972 55.165218 15.298916)"/></svg>