<svg height="123.76626" width="335.12537" xmlns="http://www.w3.org/2000/svg" xmlns:xlink="http://www.w3.org/1999/xlink"><clipPath id="a"><path d="m54.567 768.335h111.602v44.641h-111.602z"/></clipPath><circle cx="297.558941" cy="37.566424" fill="#434697" fill-rule="evenodd" r="37.566426"/><g fill="#fff" transform="matrix(.03731982 0 0 .03731982 297.792494 9.736035)"><path d="m-519.80823 1148.8378c-62.58119 0-75.41071-19.0396-75.41071-42.0357v-756.00003h153v269c61.77879-36.68125 112.37991-55 182-55 46.53832 0 95.29454 10.29191 135.05357 50.28572 45.354407 45.19093 53.946427 107.33617 53.946427 163.71428v327.00003c0 30.5202-21.53436 43-77.999997 43-57.38968 0-75-15.4976-75-39.2119v-301.78813c0-24.48698-.54608-78.8905-24.13387-101.69364-11.11564-11.51798-31.83921-19.31916-66.03872-19.31916-52.09892 0-111.63487 29.15427-127.82741 39.0128v385.00003c0 16.9119-11.49872 38.0357-77.58929 38.0357z" fill="#fff"/><path d="m463.98047 350.81489v235c-20.2035-7.31241-54.2452-21.03125-116.5937-21.03125-56.10985 0-127.12619 8.78578-195.71879 73.125-54.225327 50.93437-77.750007 134.00947-77.750007 224.96873 0 104.6736 23.57147 169.22013 71.843757 219.09383 49.21442 46.9362 108.09371 71.8437 238.21874 71.8437 97.8767 0 144.7507-7.7572 206.125-17.1875 15.0595-3.0431 26.875-7.9589 26.875-27.8125v-758.00001zm-93.8437 330.90625c42.5787 0 93.8437 14.09375 93.8437 14.09375v334.00001s-54.3832 7.0313-86.4375 7.0313c-49.53169 0-82.31136-16.1701-104.28124-37.21883-31.01121-30.6218-42.21875-83.9001-42.21875-135.3437 0-64.06577 10.37672-112.75981 43.8125-148.40628 20.54025-20.48393 55.12317-34.15625 95.28129-34.15625z" fill="#fff"/></g><g clip-path="url(#a)" fill="#434697" transform="matrix(2.21774188 0 0 -2.21774188 -121.015521 1827.736513)"><g fill="#434697" transform="translate(147.2578 803.8237)"><path d="m0 0c-3.686 0-7.687-1.623-10.748-3.767-1.046-.733-2.002-.454-2.449.482-.593 1.239-1.54 4.108-2.078 5.857-.401 1.306.168 2.411 1.06 2.909 3.773 2.105 9.75 3.671 16.258 3.671l.011-.001c9.882 0 15.287-3.81 15.287-10.908h.012c0-4.455-3.144-8.89-8.161-10.562 6.377-.755 9.719-4.412 9.719-9.657 0-8.065-6.114-13.512-18.892-13.512-6.464 0-10.941 1.081-14.187 2.532-1.106.495-1.622 1.148-1.622 1.969 0 1.608.837 4.704 1.506 7.076.291 1.031 1.121 1.3 2.13.692 3.055-1.838 7.354-3.113 11.236-3.113 5.438 0 7.576 1.832 7.576 4.975 0 2.943-1.632 4.247-5.324 4.247h-6.703c-.591 0-.94.457-.993.893-.216 1.774-.216 4.622-.035 6.791.044.537.448.924 1.098.924h3.942c5.337 0 6.602 1.812 6.602 4.493l-.002-.004c0 2.384-1.642 4.013-5.243 4.013" fill="#434697"/></g><g fill="#434697" transform="translate(79.4419 806.3026)"><path d="m0 0c-1.802 0-3.282-.326-4.012-.992-.496-.452-.725-1.057-.725-1.94v-18.006c0-2.994-.481-4.616-1.539-5.753-.93-1-2.391-1.541-3.999-1.541-1.57 0-2.962.522-3.791 1.398-.865.915-1.269 2.183-1.269 4.058v11.727c0 .513-.192.741-.759.741h-7.971c-.561 0-.746-.22-.746-.744v-10.601c0-4.232 1.091-6.649 2.996-8.553 2.475-2.475 6.705-3.58 10.725-3.58 4.014 0 8.2 1.422 10.673 3.708 2.428-2.213 6.839-3.707 11.708-3.707 6.432 0 11.161 2.66 13.921 7.182 1.225-1.898 2.131-3.309 3-4.595 1.282-1.893 2.447-2.588 5.056-2.588 2.471 0 3.955.593 5.291 2.637 3.505 5.36 6.493 11.698 8.646 17.53.269.73.461 1.262.461 1.595 0 .342-.222.61-.752.778-.515.163-1.897.587-2.59.798-1.152.351-1.57.454-1.819.454-.466 0-.72-.261-.882-.799-1.615-5.373-4.072-11.411-6.264-15.162-.718 1.37-2.045 3.753-3.277 5.902-1.905 3.324-3.787 6.679-4.732 8.22-.955 1.558-1.594 1.973-2.85 1.973-2.591 0-6.427-2.324-6.427-4.491 0-.736.204-1.287.967-2.59.868-1.482 1.304-2.685 1.304-4.163 0-3.685-2.752-7.023-8.067-7.023-2.522 0-4.47.716-5.738 2.018-1.211 1.243-1.8 2.914-1.8 5.704v4.682c.886-.38 1.975-.572 3.287-.572h4.208c.567 0 .766.228.766.74v4.508c0 .513-.199.741-.766.741h-7.495v7.374c0 .883-.23 1.488-.726 1.94-.731.666-2.237.992-4.013.992m-20.074-7.04c-2.968 0-4.801 2.107-4.801 4.762 0 2.656 1.833 4.762 4.801 4.762s4.801-2.106 4.801-4.762c0-2.655-1.833-4.762-4.801-4.762" fill="#434697"/></g></g></svg>