<?xml version="1.0" encoding="UTF-8" standalone="no"?>
<!-- Created with Inkscape (http://www.inkscape.org/) -->

<svg
   xmlns:dc="http://purl.org/dc/elements/1.1/"
   xmlns:cc="http://creativecommons.org/ns#"
   xmlns:rdf="http://www.w3.org/1999/02/22-rdf-syntax-ns#"
   xmlns:svg="http://www.w3.org/2000/svg"
   xmlns="http://www.w3.org/2000/svg"
   xmlns:sodipodi="http://sodipodi.sourceforge.net/DTD/sodipodi-0.dtd"
   xmlns:inkscape="http://www.inkscape.org/namespaces/inkscape"
   width="335.12506"
   height="123.77673"
   id="svg2"
   version="1.1"
   inkscape:version="0.91 r13725"
   sodipodi:docname="ITV4 +1.svg">
  <defs
     id="defs4">
    <clipPath
       id="clipPath3401"
       clipPathUnits="userSpaceOnUse">
      <path
         id="path3403"
         d="m 491.357,699.254 49.265,0 0,48.865 -49.265,0 0,-48.865 z"
         inkscape:connector-curvature="0" />
    </clipPath>
    <clipPath
       id="clipPath3381"
       clipPathUnits="userSpaceOnUse">
      <path
         id="path3383"
         d="m 229.295,390.889 166.138,0 0,134.905 -166.138,0 0,-134.905 z"
         inkscape:connector-curvature="0" />
    </clipPath>
    <clipPath
       id="clipPath3369"
       clipPathUnits="userSpaceOnUse">
      <path
         id="path3371"
         d="m 229.295,534.298 166.138,0 0,134.905 -166.138,0 0,-134.905 z"
         inkscape:connector-curvature="0" />
    </clipPath>
    <clipPath
       id="clipPath3357"
       clipPathUnits="userSpaceOnUse">
      <path
         id="path3359"
         d="m 54.653,534.298 166.138,0 0,134.905 -166.138,0 0,-134.905 z"
         inkscape:connector-curvature="0" />
    </clipPath>
    <clipPath
       id="clipPath3345"
       clipPathUnits="userSpaceOnUse">
      <path
         id="path3347"
         d="m 54.653,390.889 166.138,0 0,134.905 -166.138,0 0,-134.905 z"
         inkscape:connector-curvature="0" />
    </clipPath>
    <clipPath
       id="clipPath3329"
       clipPathUnits="userSpaceOnUse">
      <path
         id="path3331"
         d="m 0,0 595.276,0 0,841.89 L 0,841.89 0,0 Z"
         inkscape:connector-curvature="0" />
    </clipPath>
    <clipPath
       id="clipPath3313"
       clipPathUnits="userSpaceOnUse">
      <path
         id="path3315"
         d="m 54.567,770.569 111.602,0 0,44.641 -111.602,0 0,-44.641 z"
         inkscape:connector-curvature="0" />
    </clipPath>
    <clipPath
       id="clipPath3273"
       clipPathUnits="userSpaceOnUse">
      <path
         id="path3275"
         d="m 502.866,289.864 36.883,0 0,36.582 -36.883,0 0,-36.582 z"
         inkscape:connector-curvature="0" />
    </clipPath>
    <clipPath
       id="clipPath3241"
       clipPathUnits="userSpaceOnUse">
      <path
         id="path3243"
         d="m 418.98,462.613 52.844,0 0,52.415 -52.844,0 0,-52.415 z"
         inkscape:connector-curvature="0" />
    </clipPath>
    <clipPath
       id="clipPath2999"
       clipPathUnits="userSpaceOnUse">
      <path
         id="path3001"
         d="m 0,0 595.275,0 0,841.89 L 0,841.89 0,0 Z"
         inkscape:connector-curvature="0" />
    </clipPath>
    <clipPath
       clipPathUnits="userSpaceOnUse"
       id="clipPath3642">
      <path
         inkscape:connector-curvature="0"
         d="m 0.007,841.888 595.262,0 0,-841.886 -595.262,0 0,841.886 z"
         id="path3644" />
    </clipPath>
    <clipPath
       clipPathUnits="userSpaceOnUse"
       id="clipPath3700">
      <path
         inkscape:connector-curvature="0"
         d="m 54.653,503.852 166.138,0 0,165.352 -166.138,0 0,-165.352 z"
         id="path3702" />
    </clipPath>
    <clipPath
       clipPathUnits="userSpaceOnUse"
       id="clipPath3712">
      <path
         inkscape:connector-curvature="0"
         d="m 54.653,208.951 340.78,0 0,285.688 -340.78,0 0,-285.688 z"
         id="path3714" />
    </clipPath>
    <clipPath
       clipPathUnits="userSpaceOnUse"
       id="clipPath3724">
      <path
         inkscape:connector-curvature="0"
         d="m 229.295,503.852 166.138,0 0,165.352 -166.138,0 0,-165.352 z"
         id="path3726" />
    </clipPath>
    <clipPath
       clipPathUnits="userSpaceOnUse"
       id="clipPath3736">
      <path
         inkscape:connector-curvature="0"
         d="m 54.567,768.335 111.602,0 0,44.641 -111.602,0 0,-44.641 z"
         id="path3738" />
    </clipPath>
    <clipPath
       clipPathUnits="userSpaceOnUse"
       id="clipPath3752">
      <path
         inkscape:connector-curvature="0"
         d="m 491.357,699.254 49.265,0 0,48.865 -49.265,0 0,-48.865 z"
         id="path3754" />
    </clipPath>
    <clipPath
       clipPathUnits="userSpaceOnUse"
       id="clipPath3960">
      <path
         inkscape:connector-curvature="0"
         d="m 418.98,463.734 52.844,0 0,52.415 -52.844,0 0,-52.415 z"
         id="path3962" />
    </clipPath>
    <clipPath
       clipPathUnits="userSpaceOnUse"
       id="clipPath3980">
      <path
         inkscape:connector-curvature="0"
         d="m 419.528,306.624 36.883,0 0,36.583 -36.883,0 0,-36.583 z"
         id="path3982" />
    </clipPath>
    <clipPath
       clipPathUnits="userSpaceOnUse"
       id="clipPath2999-2">
      <path
         inkscape:connector-curvature="0"
         d="m 0,0 595.275,0 0,841.89 L 0,841.89 0,0 Z"
         id="path3001-1" />
    </clipPath>
    <clipPath
       clipPathUnits="userSpaceOnUse"
       id="clipPath3241-3">
      <path
         inkscape:connector-curvature="0"
         d="m 418.98,462.613 52.844,0 0,52.415 -52.844,0 0,-52.415 z"
         id="path3243-2" />
    </clipPath>
    <clipPath
       clipPathUnits="userSpaceOnUse"
       id="clipPath3273-4">
      <path
         inkscape:connector-curvature="0"
         d="m 502.866,289.864 36.883,0 0,36.582 -36.883,0 0,-36.582 z"
         id="path3275-2" />
    </clipPath>
    <clipPath
       clipPathUnits="userSpaceOnUse"
       id="clipPath3313-6">
      <path
         inkscape:connector-curvature="0"
         d="m 54.567,770.569 111.602,0 0,44.641 -111.602,0 0,-44.641 z"
         id="path3315-1" />
    </clipPath>
    <clipPath
       clipPathUnits="userSpaceOnUse"
       id="clipPath3329-2">
      <path
         inkscape:connector-curvature="0"
         d="m 0,0 595.276,0 0,841.89 L 0,841.89 0,0 Z"
         id="path3331-7" />
    </clipPath>
    <clipPath
       clipPathUnits="userSpaceOnUse"
       id="clipPath3345-1">
      <path
         inkscape:connector-curvature="0"
         d="m 54.653,390.889 166.138,0 0,134.905 -166.138,0 0,-134.905 z"
         id="path3347-5" />
    </clipPath>
    <clipPath
       clipPathUnits="userSpaceOnUse"
       id="clipPath3357-7">
      <path
         inkscape:connector-curvature="0"
         d="m 54.653,534.298 166.138,0 0,134.905 -166.138,0 0,-134.905 z"
         id="path3359-1" />
    </clipPath>
    <clipPath
       clipPathUnits="userSpaceOnUse"
       id="clipPath3369-5">
      <path
         inkscape:connector-curvature="0"
         d="m 229.295,534.298 166.138,0 0,134.905 -166.138,0 0,-134.905 z"
         id="path3371-1" />
    </clipPath>
    <clipPath
       clipPathUnits="userSpaceOnUse"
       id="clipPath3381-4">
      <path
         inkscape:connector-curvature="0"
         d="m 229.295,390.889 166.138,0 0,134.905 -166.138,0 0,-134.905 z"
         id="path3383-5" />
    </clipPath>
    <clipPath
       clipPathUnits="userSpaceOnUse"
       id="clipPath3401-8">
      <path
         inkscape:connector-curvature="0"
         d="m 491.357,699.254 49.265,0 0,48.865 -49.265,0 0,-48.865 z"
         id="path3403-2" />
    </clipPath>
    <clipPath
       clipPathUnits="userSpaceOnUse"
       id="clipPath4247">
      <path
         inkscape:connector-curvature="0"
         d="m 0,0 595.275,0 0,841.89 L 0,841.89 0,0 Z"
         id="path4249" />
    </clipPath>
    <clipPath
       clipPathUnits="userSpaceOnUse"
       id="clipPath4261">
      <path
         inkscape:connector-curvature="0"
         d="m 54.653,489.189 166.138,0 0,180.014 -166.138,0 0,-180.014 z"
         id="path4263" />
    </clipPath>
    <clipPath
       clipPathUnits="userSpaceOnUse"
       id="clipPath4501">
      <path
         inkscape:connector-curvature="0"
         d="m 54.653,250.63 340.78,0 0,228.943 -340.78,0 0,-228.943 z"
         id="path4503" />
    </clipPath>
    <clipPath
       clipPathUnits="userSpaceOnUse"
       id="clipPath4513">
      <path
         inkscape:connector-curvature="0"
         d="m 229.295,489.188 166.138,0 0,180.015 -166.138,0 0,-180.015 z"
         id="path4515" />
    </clipPath>
    <clipPath
       clipPathUnits="userSpaceOnUse"
       id="clipPath4525">
      <path
         inkscape:connector-curvature="0"
         d="m 54.567,768.335 111.602,0 0,44.641 -111.602,0 0,-44.641 z"
         id="path4527" />
    </clipPath>
    <clipPath
       clipPathUnits="userSpaceOnUse"
       id="clipPath4541">
      <path
         inkscape:connector-curvature="0"
         d="m 418.11,403.939 52.845,0 0,52.415 -52.845,0 0,-52.415 z"
         id="path4543" />
    </clipPath>
    <clipPath
       clipPathUnits="userSpaceOnUse"
       id="clipPath4561">
      <path
         inkscape:connector-curvature="0"
         d="m 0,0 595.276,0 0,841.89 L 0,841.89 0,0 Z"
         id="path4563" />
    </clipPath>
    <clipPath
       clipPathUnits="userSpaceOnUse"
       id="clipPath4581">
      <path
         inkscape:connector-curvature="0"
         d="m 491.357,699.254 49.265,0 0,48.865 -49.265,0 0,-48.865 z"
         id="path4583" />
    </clipPath>
    <clipPath
       clipPathUnits="userSpaceOnUse"
       id="clipPath3642-8">
      <path
         inkscape:connector-curvature="0"
         d="m 0.007,841.888 595.262,0 0,-841.886 -595.262,0 0,841.886 z"
         id="path3644-6" />
    </clipPath>
    <clipPath
       clipPathUnits="userSpaceOnUse"
       id="clipPath3700-2">
      <path
         inkscape:connector-curvature="0"
         d="m 54.653,503.852 166.138,0 0,165.352 -166.138,0 0,-165.352 z"
         id="path3702-4" />
    </clipPath>
    <clipPath
       clipPathUnits="userSpaceOnUse"
       id="clipPath3712-6">
      <path
         inkscape:connector-curvature="0"
         d="m 54.653,208.951 340.78,0 0,285.688 -340.78,0 0,-285.688 z"
         id="path3714-0" />
    </clipPath>
    <clipPath
       clipPathUnits="userSpaceOnUse"
       id="clipPath3724-2">
      <path
         inkscape:connector-curvature="0"
         d="m 229.295,503.852 166.138,0 0,165.352 -166.138,0 0,-165.352 z"
         id="path3726-8" />
    </clipPath>
    <clipPath
       clipPathUnits="userSpaceOnUse"
       id="clipPath3736-5">
      <path
         inkscape:connector-curvature="0"
         d="m 54.567,768.335 111.602,0 0,44.641 -111.602,0 0,-44.641 z"
         id="path3738-0" />
    </clipPath>
    <clipPath
       clipPathUnits="userSpaceOnUse"
       id="clipPath3752-8">
      <path
         inkscape:connector-curvature="0"
         d="m 491.357,699.254 49.265,0 0,48.865 -49.265,0 0,-48.865 z"
         id="path3754-6" />
    </clipPath>
    <clipPath
       clipPathUnits="userSpaceOnUse"
       id="clipPath3960-1">
      <path
         inkscape:connector-curvature="0"
         d="m 418.98,463.734 52.844,0 0,52.415 -52.844,0 0,-52.415 z"
         id="path3962-9" />
    </clipPath>
    <clipPath
       clipPathUnits="userSpaceOnUse"
       id="clipPath3980-9">
      <path
         inkscape:connector-curvature="0"
         d="m 419.528,306.624 36.883,0 0,36.583 -36.883,0 0,-36.583 z"
         id="path3982-3" />
    </clipPath>
    <clipPath
       clipPathUnits="userSpaceOnUse"
       id="clipPath2999-27">
      <path
         inkscape:connector-curvature="0"
         d="m 0,0 595.275,0 0,841.89 L 0,841.89 0,0 Z"
         id="path3001-7" />
    </clipPath>
    <clipPath
       clipPathUnits="userSpaceOnUse"
       id="clipPath3241-7">
      <path
         inkscape:connector-curvature="0"
         d="m 418.98,462.613 52.844,0 0,52.415 -52.844,0 0,-52.415 z"
         id="path3243-4" />
    </clipPath>
    <clipPath
       clipPathUnits="userSpaceOnUse"
       id="clipPath3273-3">
      <path
         inkscape:connector-curvature="0"
         d="m 502.866,289.864 36.883,0 0,36.582 -36.883,0 0,-36.582 z"
         id="path3275-8" />
    </clipPath>
    <clipPath
       clipPathUnits="userSpaceOnUse"
       id="clipPath3313-4">
      <path
         inkscape:connector-curvature="0"
         d="m 54.567,770.569 111.602,0 0,44.641 -111.602,0 0,-44.641 z"
         id="path3315-11" />
    </clipPath>
    <clipPath
       clipPathUnits="userSpaceOnUse"
       id="clipPath3329-23">
      <path
         inkscape:connector-curvature="0"
         d="m 0,0 595.276,0 0,841.89 L 0,841.89 0,0 Z"
         id="path3331-3" />
    </clipPath>
    <clipPath
       clipPathUnits="userSpaceOnUse"
       id="clipPath3345-3">
      <path
         inkscape:connector-curvature="0"
         d="m 54.653,390.889 166.138,0 0,134.905 -166.138,0 0,-134.905 z"
         id="path3347-1" />
    </clipPath>
    <clipPath
       clipPathUnits="userSpaceOnUse"
       id="clipPath3357-5">
      <path
         inkscape:connector-curvature="0"
         d="m 54.653,534.298 166.138,0 0,134.905 -166.138,0 0,-134.905 z"
         id="path3359-4" />
    </clipPath>
    <clipPath
       clipPathUnits="userSpaceOnUse"
       id="clipPath3369-7">
      <path
         inkscape:connector-curvature="0"
         d="m 229.295,534.298 166.138,0 0,134.905 -166.138,0 0,-134.905 z"
         id="path3371-9" />
    </clipPath>
    <clipPath
       clipPathUnits="userSpaceOnUse"
       id="clipPath3381-9">
      <path
         inkscape:connector-curvature="0"
         d="m 229.295,390.889 166.138,0 0,134.905 -166.138,0 0,-134.905 z"
         id="path3383-2" />
    </clipPath>
    <clipPath
       clipPathUnits="userSpaceOnUse"
       id="clipPath3401-1">
      <path
         inkscape:connector-curvature="0"
         d="m 491.357,699.254 49.265,0 0,48.865 -49.265,0 0,-48.865 z"
         id="path3403-8" />
    </clipPath>
  </defs>
  <sodipodi:namedview
     id="base"
     pagecolor="#ffffff"
     bordercolor="#666666"
     borderopacity="1.0"
     inkscape:pageopacity="0.0"
     inkscape:pageshadow="2"
     inkscape:zoom="4"
     inkscape:cx="167.4091"
     inkscape:cy="87.065645"
     inkscape:document-units="px"
     inkscape:current-layer="g3047"
     showgrid="false"
     fit-margin-left="0"
     fit-margin-top="0"
     fit-margin-bottom="0"
     fit-margin-right="0"
     inkscape:window-width="1920"
     inkscape:window-height="1017"
     inkscape:window-x="-8"
     inkscape:window-y="-8"
     inkscape:window-maximized="1" />
  <metadata
     id="metadata7">
    <rdf:RDF>
      <cc:Work
         rdf:about="">
        <dc:format>image/svg+xml</dc:format>
        <dc:type
           rdf:resource="http://purl.org/dc/dcmitype/StillImage" />
        <dc:title></dc:title>
      </cc:Work>
    </rdf:RDF>
  </metadata>
  <g
     inkscape:label="Layer 1"
     inkscape:groupmode="layer"
     id="layer1"
     transform="translate(-71.17421,28.433931)">
    <g
       transform="translate(-172.28632,-53.48512)"
       id="g3047">
      <circle
         transform="matrix(1.7815059,0,0,1.7815059,30.159707,-843.31601)"
         id="path3039-1"
         style="fill:#7d959f;fill-opacity:1;fill-rule:evenodd;stroke:none"
         cx="286.75705"
         cy="508.5213"
         r="21.086935" />
      <g
         style="fill:#ffffff"
         transform="matrix(0.04118242,0,0,0.04118242,487.04098,38.095064)"
         id="g3056">
        <path
           style="fill:#ffffff;stroke:none"
           d="m 949.16553,764.90898 -161.43075,0 c -15.34633,0 -23,-14.82515 -23,-60 0,-42.12619 5.79062,-59 25,-59 l 159.43075,0 0,-175.79779 125.99997,0 0,175.79779 187.6967,0 0,119 -187.6967,0 0,161.32965 c 0,16.72978 -13.2231,25 -66,25 -50.1718,0 -59.99997,-8.42839 -59.99997,-24 z"
           id="path3052"
           inkscape:connector-curvature="0"
           sodipodi:nodetypes="ccccccccccccccc" />
        <path
           style="fill:#ffffff;stroke:none"
           d="m 1632.1429,980.3979 c -46.5146,0 -76.1429,-2.47709 -76.1429,-33.03572 l 0,-545 c -67.5356,43.02833 -129.9211,79.18982 -189.3899,111.46243 l -58.9676,-118.94547 c 127.7314,-76.0379 199.3666,-118.59056 246.856,-150.13392 12.828,-8.40252 24.8774,-14.38304 60.5015,-14.38304 l 53,0 c 35.1679,0 43,7.95975 43,32 l 0,688 c 0,24.84715 -28.2533,30.03572 -78.8571,30.03572 z"
           id="path3054"
           inkscape:connector-curvature="0"
           sodipodi:nodetypes="ccccccccccc" />
      </g>
    </g>
    <g
       transform="translate(174.32362,-72.964936)"
       id="layer1-90"
       inkscape:label="Layer 1">
      <g
         id="g4241"
         inkscape:label="digitalflyers_aw_hires 4"
         transform="matrix(1.25,0,0,-1.25,-670.37352,421.62022)">
        <g
           style="fill:#7d959f;fill-opacity:1"
           transform="matrix(1.7741697,0,0,1.7741697,356.96817,-1160.5074)"
           id="g4521">
          <g
             style="fill:#7d959f;fill-opacity:1"
             id="g4523"
             clip-path="url(#clipPath4525)">
            <g
               style="fill:#7d959f;fill-opacity:1"
               id="g4529"
               transform="translate(160.2094,795.5854)">
              <path
                 inkscape:connector-curvature="0"
                 d="m 0,0 c -4.05,0 -6.001,-0.628 -6.001,-2.396 l 0,-7.284 -10.701,0 c -0.451,0 -0.658,0.319 -0.375,0.765 4.335,6.832 9.186,14.454 14.075,21.909 0.824,1.256 1.158,2.134 1.158,2.59 0,0.807 -0.492,1.244 -1.323,1.386 -1.199,0.205 -3.017,0.421 -4.868,0.421 -1.865,0 -3.708,-0.123 -5.043,-0.368 -1.319,-0.244 -2.066,-0.976 -2.691,-2.085 -3.779,-6.706 -8.954,-16.245 -12.183,-22.43 -0.556,-1.065 -0.789,-1.942 -0.789,-2.821 0,-0.907 0.314,-1.892 0.671,-2.992 l 0.917,-2.655 c 0.548,-1.322 1.456,-1.835 3.264,-1.835 l 17.889,0 0,-7.248 c 0,-1.518 1.436,-2.207 5.988,-2.207 4.024,0 5.972,0.673 5.972,2.216 l 0,22.589 C 5.96,-0.628 4.134,0 0,0"
                 style="fill:#7d959f;fill-opacity:1;fill-rule:nonzero;stroke:none"
                 id="path4531" />
            </g>
            <g
               style="fill:#7d959f;fill-opacity:1"
               id="g4533"
               transform="translate(79.4419,806.3068)">
              <path
                 inkscape:connector-curvature="0"
                 d="m 0,0 c -1.802,0 -3.282,-0.326 -4.012,-0.992 -0.496,-0.452 -0.725,-1.057 -0.725,-1.94 l 0,-18.006 c 0,-2.993 -0.481,-4.616 -1.539,-5.753 -0.93,-1 -2.391,-1.541 -3.999,-1.541 -1.57,0 -2.962,0.522 -3.791,1.399 -0.865,0.914 -1.269,2.182 -1.269,4.057 l 0,11.727 c 0,0.513 -0.192,0.741 -0.759,0.741 l -7.971,0 c -0.561,0 -0.746,-0.22 -0.746,-0.744 l 0,-10.601 c 0,-4.232 1.091,-6.648 2.996,-8.553 2.475,-2.475 6.705,-3.58 10.725,-3.58 4.014,0 8.2,1.423 10.673,3.708 2.428,-2.213 6.839,-3.706 11.708,-3.706 6.432,0 11.161,2.659 13.921,7.181 1.225,-1.898 2.131,-3.309 3,-4.595 1.282,-1.893 2.447,-2.588 5.056,-2.588 2.471,0 3.955,0.593 5.291,2.637 3.505,5.36 6.493,11.698 8.646,17.53 0.269,0.73 0.461,1.262 0.461,1.595 0,0.342 -0.222,0.61 -0.752,0.778 -0.515,0.163 -1.897,0.587 -2.59,0.798 -1.152,0.351 -1.57,0.454 -1.819,0.454 -0.466,0 -0.72,-0.261 -0.882,-0.799 -1.615,-5.373 -4.072,-11.411 -6.264,-15.162 -0.718,1.37 -2.045,3.753 -3.277,5.902 -1.905,3.324 -3.787,6.679 -4.732,8.22 -0.955,1.558 -1.594,1.973 -2.85,1.973 -2.591,0 -6.427,-2.324 -6.427,-4.491 0,-0.736 0.204,-1.287 0.967,-2.59 0.868,-1.482 1.304,-2.685 1.304,-4.163 0,-3.685 -2.752,-7.023 -8.067,-7.023 -2.522,0 -4.47,0.716 -5.738,2.018 -1.211,1.243 -1.8,2.914 -1.8,5.704 l 0,4.681 c 0.886,-0.379 1.975,-0.571 3.287,-0.571 l 4.208,0 c 0.567,0 0.766,0.228 0.766,0.74 l 0,4.508 c 0,0.513 -0.199,0.741 -0.766,0.741 l -7.495,0 0,7.374 c 0,0.883 -0.23,1.488 -0.726,1.94 C 3.282,-0.326 1.776,0 0,0 m -20.074,-7.04 c -2.968,0 -4.801,2.107 -4.801,4.762 0,2.656 1.833,4.762 4.801,4.762 2.968,0 4.801,-2.106 4.801,-4.762 0,-2.655 -1.833,-4.762 -4.801,-4.762"
                 style="fill:#7d959f;fill-opacity:1;fill-rule:nonzero;stroke:none"
                 id="path4535" />
            </g>
          </g>
        </g>
      </g>
    </g>
  </g>
</svg>
