<?xml version="1.0" encoding="UTF-8"?>
<!-- Generator: Adobe Illustrator 15.0.0, SVG Export Plug-In . SVG Version: 6.00 Build 0)  -->
<svg id="Layer_1" width="258.71px" height="131.23px" enable-background="new 0 0 258.71 131.229" version="1.1" viewBox="0 0 258.71 131.23" xml:space="preserve" xmlns="http://www.w3.org/2000/svg" xmlns:cc="http://creativecommons.org/ns#" xmlns:dc="http://purl.org/dc/elements/1.1/" xmlns:rdf="http://www.w3.org/1999/02/22-rdf-syntax-ns#"><metadata id="metadata29"><rdf:RDF><cc:Work rdf:about=""><dc:format>image/svg+xml</dc:format><dc:type rdf:resource="http://purl.org/dc/dcmitype/StillImage"/><dc:title/></cc:Work></rdf:RDF></metadata><g id="g4518" fill="#fff"><path id="path2" d="m56.881 36.703v46.305c0 4.664-0.374 7.876-1.13 9.649-0.756 1.761-2.511 3.569-5.265 5.425-6.323 4.295-13.985 6.437-23.004 6.437-8.024 0-14.604-1.118-19.762-3.367-5.15-2.225-7.72-5.104-7.72-8.602 0-5.199 5.044-7.805 15.104-7.805 1.101 0 2.831 0.131 5.205 0.381-0.221 1.463-0.369 2.76-0.44 3.926-0.179 3.521 1.368 5.295 4.682 5.295 3.266 0 4.908-2.272 4.908-6.817l0.035-4.521v-33.385l-21.891-11.838 49.278-1.083z"/><path id="path4" d="m159.09 36.703v34.467l18.632 11.838h-46.008v-9.708c-6.037 7.888-15.021 11.826-26.947 11.826-7.162 0-13.289-1.416-18.382-4.26-5.104-2.831-7.649-6.246-7.649-10.255v-20.952l-18.632-11.873 46.008-1.083v25.865c0 3.914 0.791 6.65 2.385 8.221 1.583 1.595 4.337 2.38 8.251 2.38 4.396 0 7.989-1.249 10.779-3.736 2.784-2.486 4.188-5.698 4.188-9.648v-10.126l-22.087-11.873 49.462-1.083z"/><path id="path6" d="m252.74 36.703v17.216c-13.277-6.306-26.793-9.446-40.522-9.446-8.614 0-12.933 1.07-12.933 3.2 0 1.737 1.772 2.605 5.342 2.605l13.658 0.523c12.23 0 22.022 1.666 29.387 5.032 7.364 3.367 11.041 7.817 11.041 13.396 0 10.601-9.78 15.896-29.363 15.896-10.684 0-22.248-1.737-34.693-5.199l-13.277 5.438v-21.464c6.187 3.748 13.718 6.889 22.582 9.459 8.852 2.558 16.775 3.819 23.807 3.819l4.104 0.047 7.543-1.689c0.381-0.262 0.571-0.583 0.571-0.999 0-2.272-2.88-3.402-8.662-3.402-34.609 0-51.92-6.294-51.92-18.87 0-11.124 10.374-16.691 31.147-16.691 9.804 0 19.369 1.594 28.673 4.782l13.515-3.653z"/></g><g id="g4529" fill="#F4CA18"><path id="path8" d="m59.042 16.18c0 8.936-7.96 16.181-17.781 16.181-9.804 0-17.763-7.245-17.763-16.181 0-8.923 7.959-16.18 17.762-16.18 9.822 0 17.782 7.257 17.782 16.18"/><g id="g4513"><path id="path10" d="m80.878 130.69v-32.873h4.385v3.082c1.035-1.202 2.207-2.106 3.51-2.713 1.303-0.595 2.885-0.904 4.741-0.904 2.421 0 4.568 0.523 6.419 1.559 1.85 1.047 3.254 2.522 4.205 4.426 0.946 1.903 1.422 3.985 1.422 6.246 0 2.439-0.523 4.628-1.57 6.567-1.047 1.951-2.558 3.45-4.557 4.485-1.987 1.035-4.081 1.547-6.276 1.547-1.605 0-3.046-0.286-4.324-0.856-1.268-0.56-2.314-1.273-3.142-2.142v11.576h-4.813zm4.362-20.856c0 3.058 0.743 5.307 2.219 6.77 1.487 1.464 3.277 2.189 5.383 2.189 2.147 0 3.975-0.75 5.497-2.261 1.535-1.511 2.29-3.866 2.29-7.043 0-3.022-0.743-5.283-2.23-6.794-1.487-1.499-3.277-2.261-5.348-2.261-2.047 0-3.861 0.798-5.449 2.403-1.571 1.607-2.362 3.939-2.362 6.997"/><path id="path12" d="m129.99 121.58v-3.498c-2.219 2.688-5.211 4.033-9.013 4.033-1.684 0-3.254-0.262-4.705-0.797-1.451-0.548-2.534-1.226-3.242-2.023-0.708-0.82-1.189-1.82-1.487-2.985-0.19-0.798-0.291-2.047-0.291-3.771v-14.719h4.824v13.171c0 2.105 0.101 3.521 0.291 4.259 0.31 1.06 0.94 1.88 1.928 2.487 0.976 0.618 2.195 0.903 3.641 0.903 1.439 0 2.802-0.297 4.069-0.928 1.267-0.618 2.159-1.451 2.688-2.522 0.523-1.07 0.785-2.617 0.785-4.64v-12.73h4.83v23.76h-4.318z"/><path id="path14" d="m141.85 121.58v-23.76h4.331v3.379c2.094-2.605 5.116-3.914 9.054-3.914 1.701 0 3.271 0.262 4.724 0.773 1.428 0.512 2.498 1.189 3.212 2.022 0.726 0.833 1.226 1.82 1.499 2.975 0.19 0.749 0.274 2.058 0.274 3.914v14.61h-4.819v-14.444c0-1.653-0.19-2.879-0.57-3.699-0.357-0.798-1.023-1.452-1.976-1.928-0.964-0.488-2.094-0.737-3.367-0.737-2.058 0-3.818 0.547-5.317 1.63-1.476 1.082-2.237 3.152-2.237 6.198v12.98h-4.808z"/><path id="path16" d="m166.21 130.8 0.916-3.426c0.952 0.202 1.713 0.321 2.261 0.321 0.987 0 1.713-0.286 2.213-0.821 0.476-0.547 0.714-1.915 0.714-4.081v-24.973h4.807v25.057c0 2.927-0.452 4.961-1.356 6.103-1.166 1.5-3.082 2.249-5.782 2.249-1.299 0-2.548-0.155-3.773-0.429m6.103-42.022h4.83v4.676h-4.83v-4.676z"/><path id="path18" d="m203.07 118.64c-1.797 1.273-3.498 2.178-5.151 2.701-1.643 0.523-3.427 0.773-5.318 0.773-3.117 0-5.509-0.631-7.198-1.916-1.689-1.272-2.511-2.891-2.511-4.878 0-1.178 0.321-2.236 0.952-3.2 0.619-0.952 1.464-1.725 2.486-2.308 1.023-0.583 2.178-1.023 3.45-1.321 0.952-0.214 2.38-0.404 4.295-0.606 3.891-0.393 6.746-0.856 8.591-1.392 0.012-0.548 0.023-0.893 0.023-1.048 0-1.642-0.452-2.796-1.368-3.462-1.226-0.904-3.046-1.368-5.473-1.368-2.272 0-3.938 0.321-5.021 1-1.095 0.654-1.88 1.832-2.403 3.521l-4.712-0.536c0.429-1.688 1.143-3.045 2.118-4.08 0.987-1.035 2.403-1.845 4.247-2.403 1.868-0.56 4.01-0.845 6.46-0.845 2.428 0 4.402 0.25 5.901 0.726 1.523 0.487 2.653 1.083 3.355 1.797 0.714 0.737 1.213 1.642 1.499 2.748 0.166 0.678 0.237 1.915 0.237 3.712v5.378c0 3.735 0.107 6.104 0.31 7.103 0.214 0.976 0.619 1.927 1.214 2.844h-5.021c-0.498-0.846-0.82-1.81-0.962-2.94m-0.404-8.983c-1.749 0.595-4.367 1.106-7.864 1.523-1.976 0.237-3.379 0.511-4.212 0.797-0.81 0.31-1.451 0.737-1.903 1.309-0.429 0.583-0.667 1.214-0.667 1.928 0 1.07 0.488 1.951 1.464 2.677 0.976 0.714 2.403 1.07 4.271 1.07 1.856 0 3.498-0.345 4.95-1.022 1.451-0.667 2.51-1.595 3.188-2.772 0.523-0.916 0.773-2.261 0.773-4.033v-1.477z"/><path id="path20" d="m219.44 121.58h-4.462v-32.79h4.818v11.695c2.034-2.142 4.628-3.212 7.793-3.212 1.737 0 3.402 0.31 4.961 0.892 1.559 0.583 2.844 1.416 3.843 2.487 1.023 1.059 1.809 2.355 2.38 3.866 0.571 1.487 0.856 3.117 0.856 4.818 0 4.081-1.213 7.222-3.617 9.447-2.402 2.225-5.306 3.331-8.673 3.331-3.354 0-5.984-1.166-7.899-3.51v2.976zm-0.048-12.064c0 2.855 0.464 4.914 1.392 6.187 1.523 2.07 3.569 3.105 6.163 3.105 2.094 0 3.926-0.773 5.461-2.296 1.535-1.535 2.296-3.808 2.296-6.829 0-3.105-0.737-5.402-2.213-6.877-1.463-1.476-3.26-2.213-5.33-2.213-2.117 0-3.926 0.762-5.473 2.284-1.522 1.535-2.296 3.748-2.296 6.639"/><path id="path22" d="m245.52 88.778h4.818v4.628h-4.818v-4.628zm0 9.042h4.818v23.76h-4.818v-23.76z"/></g></g></svg>
