<svg enable-background="new 0 0 258.71 131.229" height="131.229" viewBox="0 0 258.71 131.229" width="258.71" xmlns="http://www.w3.org/2000/svg"><g fill="#fff"><path d="m56.881 36.703v46.305c0 4.664-.374 7.876-1.13 9.649-.756 1.761-2.511 3.569-5.265 5.425-6.323 4.295-13.985 6.437-23.004 6.437-8.024 0-14.604-1.118-19.762-3.367-5.15-2.225-7.72-5.104-7.72-8.602 0-5.199 5.044-7.805 15.104-7.805 1.101 0 2.831.131 5.205.381-.221 1.463-.369 2.76-.44 3.926-.179 3.521 1.368 5.295 4.682 5.295 3.266 0 4.908-2.272 4.908-6.817l.035-4.521v-33.385l-21.891-11.838z"/><path d="m159.092 36.703v34.467l18.632 11.838h-46.008v-9.708c-6.037 7.888-15.021 11.826-26.947 11.826-7.162 0-13.289-1.416-18.382-4.26-5.104-2.831-7.649-6.246-7.649-10.255v-20.952l-18.632-11.873 46.008-1.083v25.865c0 3.914.791 6.65 2.385 8.221 1.583 1.595 4.337 2.38 8.251 2.38 4.396 0 7.989-1.249 10.779-3.736 2.784-2.486 4.188-5.698 4.188-9.648v-10.126l-22.087-11.873z"/><path d="m252.738 36.703v17.216c-13.277-6.306-26.793-9.446-40.522-9.446-8.614 0-12.933 1.07-12.933 3.2 0 1.737 1.772 2.605 5.342 2.605l13.658.523c12.23 0 22.022 1.666 29.387 5.032 7.364 3.367 11.041 7.817 11.041 13.396 0 10.601-9.78 15.896-29.363 15.896-10.684 0-22.248-1.737-34.693-5.199l-13.277 5.438v-21.464c6.187 3.748 13.718 6.889 22.582 9.459 8.852 2.558 16.775 3.819 23.807 3.819l4.104.047 7.543-1.689c.381-.262.571-.583.571-.999 0-2.272-2.88-3.402-8.662-3.402-34.609 0-51.92-6.294-51.92-18.87 0-11.124 10.374-16.691 31.147-16.691 9.804 0 19.369 1.594 28.673 4.782z"/></g><g fill="#f4ca18"><path d="m59.042 16.18c0 8.936-7.96 16.181-17.781 16.181-9.804 0-17.763-7.245-17.763-16.181 0-8.923 7.959-16.18 17.762-16.18 9.822 0 17.782 7.257 17.782 16.18"/><path d="m80.878 130.693v-32.873h4.385v3.082c1.035-1.202 2.207-2.106 3.51-2.713 1.303-.595 2.885-.904 4.741-.904 2.421 0 4.568.523 6.419 1.559 1.85 1.047 3.254 2.522 4.205 4.426.946 1.903 1.422 3.985 1.422 6.246 0 2.439-.523 4.628-1.57 6.567-1.047 1.951-2.558 3.45-4.557 4.485-1.987 1.035-4.081 1.547-6.276 1.547-1.605 0-3.046-.286-4.324-.856-1.268-.56-2.314-1.273-3.142-2.142v11.576zm4.362-20.856c0 3.058.743 5.307 2.219 6.77 1.487 1.464 3.277 2.189 5.383 2.189 2.147 0 3.975-.75 5.497-2.261 1.535-1.511 2.29-3.866 2.29-7.043 0-3.022-.743-5.283-2.23-6.794-1.487-1.499-3.277-2.261-5.348-2.261-2.047 0-3.861.798-5.449 2.403-1.571 1.607-2.362 3.939-2.362 6.997"/><path d="m129.992 121.58v-3.498c-2.219 2.688-5.211 4.033-9.013 4.033-1.684 0-3.254-.262-4.705-.797-1.451-.548-2.534-1.226-3.242-2.023-.708-.82-1.189-1.82-1.487-2.985-.19-.798-.291-2.047-.291-3.771v-14.719h4.824v13.171c0 2.105.101 3.521.291 4.259.31 1.06.94 1.88 1.928 2.487.976.618 2.195.903 3.641.903 1.439 0 2.802-.297 4.069-.928 1.267-.618 2.159-1.451 2.688-2.522.523-1.07.785-2.617.785-4.64v-12.73h4.83v23.76z"/><path d="m141.853 121.58v-23.76h4.331v3.379c2.094-2.605 5.116-3.914 9.054-3.914 1.701 0 3.271.262 4.724.773 1.428.512 2.498 1.189 3.212 2.022.726.833 1.226 1.82 1.499 2.975.19.749.274 2.058.274 3.914v14.61h-4.819v-14.444c0-1.653-.19-2.879-.57-3.699-.357-.798-1.023-1.452-1.976-1.928-.964-.488-2.094-.737-3.367-.737-2.058 0-3.818.547-5.317 1.63-1.476 1.082-2.237 3.152-2.237 6.198v12.98h-4.808z"/><path d="m166.208 130.8.916-3.426c.952.202 1.713.321 2.261.321.987 0 1.713-.286 2.213-.821.476-.547.714-1.915.714-4.081v-24.973h4.807v25.057c0 2.927-.452 4.961-1.356 6.103-1.166 1.5-3.082 2.249-5.782 2.249-1.299 0-2.548-.155-3.773-.429m6.103-42.022h4.83v4.676h-4.83z"/><path d="m203.066 118.641c-1.797 1.273-3.498 2.178-5.151 2.701-1.643.523-3.427.773-5.318.773-3.117 0-5.509-.631-7.198-1.916-1.689-1.272-2.511-2.891-2.511-4.878 0-1.178.321-2.236.952-3.2.619-.952 1.464-1.725 2.486-2.308 1.023-.583 2.178-1.023 3.45-1.321.952-.214 2.38-.404 4.295-.606 3.891-.393 6.746-.856 8.591-1.392.012-.548.023-.893.023-1.048 0-1.642-.452-2.796-1.368-3.462-1.226-.904-3.046-1.368-5.473-1.368-2.272 0-3.938.321-5.021 1-1.095.654-1.88 1.832-2.403 3.521l-4.712-.536c.429-1.688 1.143-3.045 2.118-4.08.987-1.035 2.403-1.845 4.247-2.403 1.868-.56 4.01-.845 6.46-.845 2.428 0 4.402.25 5.901.726 1.523.487 2.653 1.083 3.355 1.797.714.737 1.213 1.642 1.499 2.748.166.678.237 1.915.237 3.712v5.378c0 3.735.107 6.104.31 7.103.214.976.619 1.927 1.214 2.844h-5.021c-.498-.846-.82-1.81-.962-2.94m-.404-8.983c-1.749.595-4.367 1.106-7.864 1.523-1.976.237-3.379.511-4.212.797-.81.31-1.451.737-1.903 1.309-.429.583-.667 1.214-.667 1.928 0 1.07.488 1.951 1.464 2.677.976.714 2.403 1.07 4.271 1.07 1.856 0 3.498-.345 4.95-1.022 1.451-.667 2.51-1.595 3.188-2.772.523-.916.773-2.261.773-4.033z"/><path d="m219.437 121.58h-4.462v-32.79h4.818v11.695c2.034-2.142 4.628-3.212 7.793-3.212 1.737 0 3.402.31 4.961.892 1.559.583 2.844 1.416 3.843 2.487 1.023 1.059 1.809 2.355 2.38 3.866.571 1.487.856 3.117.856 4.818 0 4.081-1.213 7.222-3.617 9.447-2.402 2.225-5.306 3.331-8.673 3.331-3.354 0-5.984-1.166-7.899-3.51zm-.048-12.064c0 2.855.464 4.914 1.392 6.187 1.523 2.07 3.569 3.105 6.163 3.105 2.094 0 3.926-.773 5.461-2.296 1.535-1.535 2.296-3.808 2.296-6.829 0-3.105-.737-5.402-2.213-6.877-1.463-1.476-3.26-2.213-5.33-2.213-2.117 0-3.926.762-5.473 2.284-1.522 1.535-2.296 3.748-2.296 6.639"/><path d="m245.516 88.778h4.818v4.628h-4.818zm0 9.042h4.818v23.76h-4.818z"/></g></svg>