<?xml version="1.0" encoding="UTF-8"?>
<!-- Created with Inkscape (http://www.inkscape.org/) -->
<svg id="svg2" width="1785.1" height="758.2" version="1.1" viewBox="0 0 1673.5 710.82" xmlns="http://www.w3.org/2000/svg" xmlns:cc="http://creativecommons.org/ns#" xmlns:dc="http://purl.org/dc/elements/1.1/" xmlns:rdf="http://www.w3.org/1999/02/22-rdf-syntax-ns#" xmlns:xlink="http://www.w3.org/1999/xlink">
 <defs id="defs4">
  <linearGradient id="linearGradient3083" x1="765.57" x2="765.57" y1="416.38" y2="500.34" gradientUnits="userSpaceOnUse">
   <stop id="stop3043" stop-color="#92fbff" offset="0"/>
   <stop id="stop3045" stop-color="#11daca" offset="1"/>
  </linearGradient>
  <linearGradient id="linearGradient3085" x1="874.91" x2="874.91" y1="386.64" y2="495.24" gradientUnits="userSpaceOnUse">
   <stop id="stop3059" stop-color="#99f7f9" offset="0"/>
   <stop id="stop3061" stop-color="#05ddd8" offset="1"/>
  </linearGradient>
  <linearGradient id="linearGradient3087" x1="983.79" x2="983.79" y1="416.38" y2="501.19" gradientUnits="userSpaceOnUse">
   <stop id="stop3051" stop-color="#94faff" offset="0"/>
   <stop id="stop3053" stop-color="#11daca" offset="1"/>
  </linearGradient>
  <radialGradient id="radialGradient6802" cx="37.721" cy="-129.91" r="29.087" gradientTransform="matrix(-1.4319 0 0 -.17739 91.959 -178.85)" gradientUnits="userSpaceOnUse" xlink:href="#linearGradient6798"/>
  <linearGradient id="linearGradient6798">
   <stop id="stop6794" offset="0"/>
   <stop id="stop6796" stop-opacity="0" offset="1"/>
  </linearGradient>
  <linearGradient id="linearGradient4616" x2="74.527" y1="5" y2="5" gradientTransform="translate(.67223 -159.65)" gradientUnits="userSpaceOnUse">
   <stop id="stop4578-8" stop-color="#fff" offset="0"/>
   <stop id="stop4588-7" stop-color="#353534" offset=".20993"/>
   <stop id="stop4586-8" stop-color="#2d2b2a" offset=".48283"/>
   <stop id="stop4590-2" stop-color="#353534" offset=".78744"/>
   <stop id="stop4580-4" stop-color="#fff" offset="1"/>
  </linearGradient>
 </defs>
 <metadata id="metadata7">
  <rdf:RDF>
   <cc:Work rdf:about="">
    <dc:format>image/svg+xml</dc:format>
    <dc:type rdf:resource="http://purl.org/dc/dcmitype/StillImage"/>
    <dc:title/>
   </cc:Work>
  </rdf:RDF>
 </metadata>
 <g id="layer1" transform="translate(-697.53 80.178)">
  <g id="g6817" transform="matrix(19.294 0 0 19.294 906.84 3510.7)">
   <path id="rect4575-5-5-7" d="m0.67223-159.65h67.521l7 10h-67.521z" fill="url(#linearGradient4616)" stroke="#828081" stroke-width=".7"/>
   <g id="g6785" fill="#fff" stroke-width=".082643">
    <path id="path11-4" d="m10.666-158.65 7.3808 8.2e-4c0.46858 8e-3 0.97518 0.0562 1.3603 0.35041 0.3752 0.30412 0.44379 0.83634 0.36363 1.2868-0.12149 0.67436-0.31404 1.3338-0.4752 1.9991-0.1405 0.57437-0.39503 1.1487-0.86114 1.5322-0.49751 0.41569-1.1669 0.53635-1.7983 0.54214-1.5975 3e-3 -3.195 0-4.7925 8.2e-4l-0.56858 2.2834h-2.6032l1.9942-7.9957m1.9884 2.4586-0.2 0.7851c1.3107-3e-3 2.6214 7e-3 3.9313-5e-3 0.33801 0.0215 0.54048-0.31735 0.54131-0.61899 0.01488-0.16446-0.1752-0.1562-0.28512-0.16033-1.3297-2e-3 -2.6586 0-3.9875-8.3e-4z"/>
    <path id="path13-7" d="m23.368-158.64 5.4288-0.0107c0.61486 0 1.2851 0.0331 1.7967 0.41652 0.44544 0.3347 0.58015 0.93386 0.52644 1.4628-0.06034 0.51899-0.19669 1.0248-0.31735 1.5322l-0.63304 2.4256c-0.22148 0.67932-0.64709 1.314-1.2677 1.6867-0.59503 0.37106-1.3132 0.47519-2.0033 0.47271l-5.4619-3e-3c-0.60164-0.0149-1.2777-0.1347-1.6834-0.6223-0.38346-0.48677-0.36032-1.1578-0.23801-1.733l0.74874-3.0561c0.20082-0.77849 0.59255-1.5479 1.271-2.0115 0.53139-0.37933 1.1892-0.5347 1.833-0.5595m0.0059 2.5016c-0.39173 0.0917-0.62147 0.46363-0.69998 0.83469-0.1438 0.61404-0.31652 1.2239-0.42644 1.8454-0.03966 0.25124 0.22479 0.3595 0.4314 0.34132l3.9718 5e-3c0.31652 0 0.66941-0.0355 0.90163-0.2752 0.29834-0.26611 0.34214-0.68593 0.43883-1.0504 0.10082-0.47354 0.26528-0.93551 0.31735-1.419 0.03554-0.24049-0.22066-0.33884-0.41569-0.32975l-3.8082-7e-3c-0.23801-2e-3 -0.4785 0-0.71073 0.0545z"/>
    <path id="path15-1" d="m31.85-158.65 2.6611-2e-3 -0.44875 5.2594c0.17603-0.0124 0.39503-0.01 0.47437-0.2033l2.6545-5.0536 3.5883-2e-3 0.13636 5.2428c0.18512 0.0174 0.40082-0.014 0.4628-0.22148 0.70329-1.6686 1.381-3.3487 2.0743-5.0214l2.8867 2e-3c-1.052 2.3057-2.1033 4.6115-3.157 6.9172-0.22892 0.49999-0.63552 1.014-1.2231 1.0669-0.63635 0.0273-1.2744 2e-3 -1.9115 0.0124-0.33966 0-0.72974 9e-3 -0.99337-0.24049-0.21983-0.19008-0.24793-0.49751-0.26859-0.76775-0.06528-1.262-0.13058-2.5239-0.19504-3.7859-0.0157-0.28098-0.0091-0.5661-0.08181-0.84048-0.92725 1.6024-1.7975 3.238-2.7189 4.8437-0.23884 0.43304-0.69172 0.74461-1.1892 0.77105-0.63635 0.0413-1.2752 6e-3 -1.9124 0.0198-0.29669-2e-3 -0.64379 0.0256-0.87188-0.20247-0.24875-0.25206-0.26032-0.62726-0.2471-0.95866z"/>
    <path id="path17-0" d="m46.72-158.04c0.49999-0.45453 1.1958-0.5975 1.8528-0.60246l7.7288-8.3e-4 -0.56362 2.2619-6.5866-2e-3c-0.19338 4e-3 -0.40495 3e-3 -0.5661 0.12396-0.19008 0.13553-0.22644 0.38181-0.29256 0.58841l7.2197 2e-3 -0.49255 1.9719h-7.2106c-0.05124 0.21156-0.12313 0.42065-0.13884 0.63883 0.03223 0.15536 0.20082 0.13801 0.32313 0.14627l6.9089 8.3e-4 -0.56362 2.2611-7.8329 8.3e-4c-0.48181-0.0107-1.0198-0.0843-1.371-0.44875-0.31487-0.33966-0.33801-0.84874-0.24214-1.281l0.98841-4.052c0.14462-0.59089 0.35702-1.2074 0.83882-1.6099z"/>
    <path id="path19-3" d="m57.118-158.65h8.4097c0.46362 4e-3 0.97188 0.057 1.3305 0.38264 0.34875 0.32561 0.37355 0.85287 0.3033 1.295-0.12568 0.62395-0.2785 1.243-0.46446 1.8512-0.2066 0.62395-0.59585 1.2413-1.2148 1.5206-0.39338 0.19008-0.83635 0.21735-1.2661 0.22314l1.69 2.7222h-3.1098l-1.4991-2.6239h-2.9189l-0.6504 2.6231-2.5983 8.3e-4 1.9884-7.9949m1.8181 3.1297 4.771 8.3e-4c0.16363-5e-3 0.34627 0 0.48263-0.10827 0.1909-0.14875 0.24049-0.41156 0.25949-0.63965-0.0455-0.12727-0.2223-0.0959-0.32726-0.11157l-4.9743 8.3e-4z"/>
   </g>
   <g id="g6792" fill="url(#radialGradient6802)" stroke-width=".082643">
    <path id="path11-9-0-4-4" d="m9.8398-155.33-1.168 4.6816h2.6035l0.56836-2.2832c1.5975-8.3e-4 3.1955 1e-3 4.793-2e-3 0.63139-6e-3 1.3013-0.12532 1.7988-0.54102 0.14502-0.1193 0.26214-0.26159 0.36914-0.4121-2.7474-0.35063-5.4004-0.78771-8.9648-1.4434z"/>
    <path id="path13-8-2-1-8" d="m19.705-153.78-0.18945 0.77343c-0.12231 0.57519-0.14518 1.2457 0.23828 1.7324 0.40578 0.4876 1.082 0.60814 1.6836 0.62304l5.4609 2e-3c0.69007 2e-3 1.4089-0.10159 2.0039-0.47266 0.62065-0.37272 1.0461-1.0062 1.2676-1.6856l0.12891-0.49023-2.7012 0.0488s-0.19689-6e-3 -0.2168-6e-3c-0.21664 0.12331-0.48354 0.14843-0.73047 0.14843l-3.9707-6e-3c-0.20661 0.0182-0.4713-0.0886-0.43164-0.33985 0.0021-0.0118 0.0057-0.0234 0.0078-0.0352-0.0066-7e-4 -0.01687-1e-3 -0.02344-2e-3 -0.89737-0.0951-1.7108-0.19215-2.5273-0.29101z"/>
    <path id="path15-0-9-3-0" d="m44.014-153.55c-1.1088 0.0964-2.0578 0.16103-2.6973 0.16601-0.87309 7e-3 -1.746 3e-3 -2.6191 6e-3 0.0296 0.57366 0.05822 1.147 0.08789 1.7207 0.02066 0.27024 0.0497 0.57751 0.26953 0.76758 0.26363 0.24949 0.65252 0.24024 0.99219 0.24024 0.63718-0.0104 1.2758 0.0156 1.9121-0.0117 0.58759-0.0529 0.99374-0.56642 1.2227-1.0664 0.27756-0.60737 0.55475-1.2149 0.83203-1.8223zm-7.1387 0.17578c-0.9597 9.3e-4 -1.9192 7e-3 -2.8789 8e-3l-2.3652 0.043-0.0625 1.5137c-0.01322 0.3314-7.07e-4 0.70692 0.24805 0.95898 0.22809 0.22807 0.57441 0.19918 0.87109 0.20118 0.63718-0.0138 1.2758 0.0218 1.9121-0.0195 0.49751-0.0264 0.95062-0.33648 1.1895-0.76953 0.36818-0.64158 0.72722-1.2885 1.0859-1.9355z"/>
    <path id="path17-2-1-6-3" d="m55.268-154.69c-0.08591 8e-3 -0.16539 0.014-0.24805 0.0215-2.9848 0.27056-6.7925 0.7124-9.8125 1.002l-0.31445 1.2871c-0.09587 0.43222-0.07268 0.94159 0.24219 1.2812 0.35123 0.36445 0.88928 0.43656 1.3711 0.44726h7.832l0.56445-2.2617h-6.9082c-0.12231-8e-3 -0.29199 9e-3 -0.32422-0.14648 0.01571-0.21817 0.08743-0.42711 0.13867-0.63867h7.2109z"/>
    <path id="path19-9-6-4-93" d="m66.846-155.71c-0.47023 0.0405-6.5613 0.56645-10.693 0.93555l-1.0234 4.1191 2.5996-2e-3 0.65039-2.623h2.918l1.5 2.625h3.1094l-1.6895-2.7227c0.42974-6e-3 0.87224-0.0326 1.2656-0.22266 0.619-0.27933 1.0082-0.89752 1.2148-1.5215 0.05906-0.19319 0.09587-0.39272 0.14844-0.58789z"/>
   </g>
  </g>
  <path id="path3078" d="m1516.8-79.709-346.47 47.541-17.52 63.966h-309.79l-145 359.16 198.56-2.9e-4 2.4637-7.665 3.3762 7.665h148.46l-56.483 196.83 154.03-196.83h194.45l23.542-59.221 14.874-9.6724-28.744 68.893h200.57l53.016-133.5-20.44-35.861 50.096-35.587 61.229-154.21h-199.65l-23.36 58.4-14.417 9.7637 0.5475-1.0037 27.466-67.16h-57.852zm-401.5 244.37-36.5 130.21-44.165-72.635z" fill="#bdf1ed"/>
  <g id="g3066" transform="matrix(2.92 0 0 2.92 -1340.1 -1128.5)">
   <path id="path3018" d="m963 367.88-98 13.5-6.0625 23h-45.938l-9.9375 6.5625 2.6875-6.5625h-53.75l-44.25 109.5h54.094l4.0625-11 6.25 11h55.438l-12.188 43 57.062-73.219-12.125 30.219h53.938l7.2188-17.75 14.844-10.75 4.4062 7.3125-8.75 21.188h54.125l15.406-38.625-8.6562-14.656 20.469-14.406 16.656-41.812h-54l-6.8438 17.656-14.812 10.344-4.5-7.1875 8.6562-20.812h-23.5zm-110.53 58.781-22 77.281-26.188-43.469zm43.188 27.219 2.5938 3.0625-11.5 8.25z"/>
   <path id="path3020" d="m726 501.36 34.25-85h27.333l-11.583 29.167 40.707-29.167h28.647l-57.471 40.882 26.764 44.118h-35.647l-15.353-26-10.146 26z" fill="url(#linearGradient3083)"/>
   <path id="path3022" d="m846.41 495.42 29.471-102.3 56.647-7.5289z" fill="url(#linearGradient3085)"/>
   <path id="path3024" d="m925 416.36h15.353l-4.1178 10 14.529 23.764 28.942-20.764 4.9399-13h27.353l-9 22-26.75 18.75 11.75 19.25-10.167 25h-27.334l3.834-9.6668-14.167-24-29.167 20.667-4.8822 13h-27.118l8.2356-21.764 27.118-19.118-10.471-17z" fill="url(#linearGradient3087)"/>
  </g>
 </g>
</svg>
