<svg height="758.20465" viewBox="0 0 1673.4895 710.81685" width="1785.0554" xmlns="http://www.w3.org/2000/svg" xmlns:xlink="http://www.w3.org/1999/xlink"><linearGradient id="a" gradientUnits="userSpaceOnUse" x1="765.57428" x2="765.57428" y1="416.38251" y2="500.34177"><stop offset="0" stop-color="#92fbff"/><stop offset="1" stop-color="#11daca"/></linearGradient><linearGradient id="b" gradientUnits="userSpaceOnUse" x1="874.91168" x2="874.91168" y1="386.63779" y2="495.23947"><stop offset="0" stop-color="#99f7f9"/><stop offset="1" stop-color="#05ddd8"/></linearGradient><linearGradient id="c" gradientUnits="userSpaceOnUse" x1="983.78625" x2="983.78625" y1="416.38251" y2="501.18506"><stop offset="0" stop-color="#94faff"/><stop offset="1" stop-color="#11daca"/></linearGradient><radialGradient id="d" cx="37.721195" cy="-129.91432" gradientTransform="matrix(-1.4318951 0 0 -.17738683 91.959083 -178.84895)" gradientUnits="userSpaceOnUse" r="29.086914"><stop offset="0"/><stop offset="1" stop-opacity="0"/></radialGradient><linearGradient id="e" gradientUnits="userSpaceOnUse" x1=".672229" x2="75.199351" y1="-154.65" y2="-154.65"><stop offset="0" stop-color="#fff"/><stop offset=".20993218" stop-color="#353534"/><stop offset=".48283261" stop-color="#2d2b2a"/><stop offset=".78744358" stop-color="#353534"/><stop offset="1" stop-color="#fff"/></linearGradient><g transform="translate(-697.53125 80.177909)"><g transform="matrix(19.293575 0 0 19.293575 906.83888 3510.701)"><path d="m .67222944-159.65h67.52077056l7 10h-67.5207706z" fill="url(#e)" stroke="#828081" stroke-width=".7"/><g fill="#fff" stroke-width=".082643"><path d="m10.666399-158.64839 7.380824.00082c.468583.008.975184.0562 1.360299.35041.375197.30412.443792.83634.363628 1.28675-.121491.67436-.314043 1.33385-.475196 1.99912-.140496.57437-.395032 1.14874-.861137 1.5322-.497509.41569-1.166916.53635-1.798306.54214-1.597485.003-3.194969 0-4.792453.00082l-.568583 2.28342h-2.603246zm1.988384 2.45862-.199996.7851c1.310714-.003 2.621429.007 3.931316-.005.338009.0215.540484-.31735.541309-.61899.01488-.16446-.175201-.1562-.285116-.16033-1.329722-.002-2.658618 0-3.987513-.00083z"/><path d="m23.36823-158.63765 5.428802-.0107c.614862 0 1.285095.0331 1.796653.41652.445445.3347.580153.93386.526435 1.46278-.06034.51899-.19669 1.02477-.317348 1.53219l-.633043 2.42557c-.221483.67932-.647093 1.31402-1.26774 1.68674-.595028.37106-1.313193.47519-2.003261.47271l-5.461858-.003c-.60164-.0149-1.277658-.1347-1.683433-.6223-.383462-.48677-.360323-1.15783-.238012-1.73302l.748744-3.05613c.200822-.77849.592547-1.5479 1.271044-2.01152.531393-.37933 1.189231-.5347 1.833017-.5595m.0059 2.5016c-.391727.0917-.621473.46363-.699984.83469-.143802.61404-.316521 1.22394-.426436 1.84541-.03966.25124.224788.3595.431395.34132l3.97181.005c.316522 0 .669407-.0355.901632-.2752.298341-.26611.342142-.68593.438834-1.05039.100818-.47354.265282-.93551.317348-1.41897.03554-.24049-.220656-.33884-.415693-.32975l-3.808178-.007c-.238011-.002-.478501 0-.710728.0545z"/><path d="m31.849579-158.64839 2.661096-.002-.44875 5.25938c.176029-.0124.395031-.01.474369-.2033l2.654485-5.05361 3.588349-.002.136355 5.24285c.185119.0174.400816-.014.462798-.22148.70329-1.66856 1.380961-3.34869 2.074333-5.02137l2.886711.002c-1.052041 2.30574-2.103257 4.61147-3.156953 6.9172-.22892.49999-.635522 1.01403-1.223111 1.06692-.63635.0273-1.274352.002-1.911528.0124-.339662 0-.729735.009-.993366-.24049-.219829-.19008-.247928-.49751-.268589-.76775-.06528-1.26196-.130576-2.52391-.195036-3.78587-.0157-.28098-.0091-.5661-.08181-.84048-.927253 1.60245-1.797481 3.23795-2.718948 4.8437-.238836.43304-.69172.74461-1.189228.77105-.63635.0413-1.275178.006-1.912353.0198-.296688-.002-.643788.0256-.871882-.20247-.248754-.25206-.260324-.62726-.247101-.95866z"/><path d="m46.719977-158.04428c.499989-.45453 1.19584-.5975 1.852849-.60246l7.728751-.00083-.563624 2.26193-6.586627-.002c-.193384.004-.40495.003-.566103.12396-.190078.13553-.22644.38181-.292555.58841l7.21967.002-.492551 1.97186h-7.21058c-.05124.21156-.123129.42065-.138842.63883.03223.15536.200822.13801.323134.14627l6.908932.00083-.563623 2.2611-7.832879.00083c-.481808-.0107-1.019812-.0843-1.371044-.44875-.314869-.33966-.338008-.84874-.242143-1.28096l.988408-4.05198c.144621-.59089.357016-1.20741.838824-1.60988z"/><path d="m57.117915-158.64757h8.409724c.463622.004.971882.057 1.330546.38264.348753.32561.373551.85287.303302 1.29501-.125675.62395-.278504 1.24295-.464456 1.8512-.206596.62395-.595852 1.24129-1.214848 1.52062-.393382.19008-.836346.21735-1.266082.22314l1.690041 2.72225h-3.109843l-1.49914-2.62391h-2.918942l-.650398 2.62308-2.598288.00083zm1.818141 3.12968 4.770966.00083c.163632-.005.346273 0 .482633-.10827.190904-.14875.240487-.41156.259491-.63965-.0455-.12727-.222302-.0959-.327258-.11157l-4.974267.00083z"/></g><g fill="url(#d)" stroke-width=".082643"><path d="m9.8398438-155.33364-1.1679688 4.68164h2.603516l.568359-2.28321c1.597484-.00083 3.195484.001 4.792969-.002.63139-.006 1.301319-.12532 1.798828-.54102.145021-.1193.262144-.26159.369141-.4121-2.747423-.35063-5.400408-.78771-8.9648442-1.44336z"/><path d="m19.705078-153.78293-.189453.77343c-.122311.57519-.145181 1.24566.238281 1.73243.405775.4876 1.081954.60814 1.683594.62304l5.460938.002c.690068.002 1.408878-.10159 2.003906-.47266.620647-.37272 1.046095-1.00622 1.267578-1.68555l.128906-.49023-2.701172.0488s-.196894-.006-.216797-.006c-.216638.12331-.483536.14843-.730468.14843l-3.970703-.006c-.206608.0182-.471301-.0886-.431641-.33985.0021-.0118.0057-.0234.0078-.0352-.0066-.0007-.01687-.001-.02344-.002-.897371-.0951-1.710793-.19215-2.527344-.29101z"/><path d="m44.013672-153.55284c-1.108759.0964-2.057828.16103-2.697266.16601-.873093.007-1.746038.003-2.61914.006.0296.57366.05822 1.14705.08789 1.7207.02066.27024.0497.57751.269532.76758.263631.24949.652525.24024.992187.24024.637176-.0104 1.275759.0156 1.912109-.0117.587589-.0529.993737-.56642 1.222657-1.06641.277562-.60737.554753-1.21489.832031-1.82226zm-7.138672.17578c-.959703.00093-1.919199.007-2.878906.008l-2.365235.043-.0625 1.51367c-.01322.3314-.000707.70692.248047.95898.228094.22807.574406.19918.871094.20118.637175-.0138 1.275759.0218 1.912109-.0195.497508-.0264.950618-.33648 1.189453-.76953.368178-.64158.727215-1.28846 1.085938-1.93554z"/><path d="m55.267578-154.69308c-.08591.008-.165391.014-.248047.0215-2.984777.27056-6.79249.7124-9.8125 1.00196l-.314453 1.28711c-.09587.43222-.07268.94159.242188 1.28125.351232.36445.889285.43656 1.371093.44726h7.832032l.564453-2.26172h-6.908203c-.122312-.008-.291989.009-.324219-.14648.01571-.21817.08743-.42711.138672-.63867h7.210937z"/><path d="m66.845703-155.70669c-.470228.0405-6.561256.56645-10.693359.93555l-1.023438 4.11914 2.59961-.002.65039-2.62304h2.917969l1.5 2.625h3.109375l-1.689453-2.72266c.429736-.006.872243-.0326 1.265625-.22266.618996-.27933 1.008248-.89752 1.214844-1.52148.05906-.19319.09587-.39272.148437-.58789z"/></g></g><path d="m1516.7822-79.709159-346.4746 47.541012-17.5199 63.96593h-309.79218l-144.99552 359.158497 198.55901-.00029 2.46373-7.66497 3.37624 7.66497h148.46302l-56.48348 196.82526 154.02918-196.82526h194.4528l23.5424-59.22096 14.8737-9.67245-28.7436 68.89341h200.5665l53.016-133.49809-20.4399-35.86107 50.0958-35.58732 61.2286-154.211727h-199.654l-23.3599 58.399707-14.4174 9.763702.5475-1.003745 27.4661-67.159664h-57.8522zm-401.498 244.366279-36.4999 130.2131-44.1647-72.63464z" fill="#bdf1ed"/><g transform="matrix(2.9199854 0 0 2.9199854 -1340.1498 -1128.5314)"><path d="m963 367.875-98 13.5-6.0625 23h-45.9375l-9.9375 6.5625 2.6875-6.5625h-53.75l-44.25 109.5h54.09375l4.0625-11 6.25 11h55.4375l-12.1875 43 57.0625-73.21875-12.125 30.21875h53.9375l7.21875-17.75 14.84375-10.75 4.40625 7.3125-8.75 21.1875h54.125l15.4062-38.625-8.6562-14.65625 20.4688-14.40625 16.6562-41.8125h-54l-6.84375 17.65625-14.8125 10.34375-4.5-7.1875 8.65625-20.8125h-23.5zm-110.53125 58.78125-22 77.28125-26.1875-43.46875zm43.1875 27.21875 2.59375 3.0625-11.5 8.25z"/><path d="m726 501.36218 34.24986-85h27.33315l-11.58301 29.16657 40.70671-29.16657h28.64665l-57.47115 40.88221 26.76443 44.11779h-35.64664l-15.35336-26-10.14636 26z" fill="url(#a)"/><path d="m846.41107 495.42225 29.47114-102.29564 56.64665-7.52886z" fill="url(#b)"/><path d="m925 416.36218h15.35336l-4.11779 10 14.52886 23.76443 28.94228-20.76443 4.93993-13h27.35336l-9 22-26.75014 18.75014 11.75014 19.24986-10.16657 25h-27.33371l3.83398-9.66685-14.16713-24-29.16657 20.66685-4.88221 13h-27.11779l8.23557-21.76443 27.11779-19.11778-10.47115-17z" fill="url(#c)"/></g></g></svg>