<?xml version="1.0" encoding="UTF-8" standalone="no"?>
<svg
   xmlns:dc="http://purl.org/dc/elements/1.1/"
   xmlns:cc="http://creativecommons.org/ns#"
   xmlns:rdf="http://www.w3.org/1999/02/22-rdf-syntax-ns#"
   xmlns:svg="http://www.w3.org/2000/svg"
   xmlns="http://www.w3.org/2000/svg"
   xmlns:sodipodi="http://sodipodi.sourceforge.net/DTD/sodipodi-0.dtd"
   xmlns:inkscape="http://www.inkscape.org/namespaces/inkscape"
   width="358.14001pt"
   height="243.13878pt"
   viewBox="0 0 358.14001 243.13878"
   version="1.1"
   id="svg15"
   sodipodi:docname="KMTV.svg"
   inkscape:version="0.92.0 r15299">
  <metadata
     id="metadata21">
    <rdf:RDF>
      <cc:Work
         rdf:about="">
        <dc:format>image/svg+xml</dc:format>
        <dc:type
           rdf:resource="http://purl.org/dc/dcmitype/StillImage" />
        <dc:title></dc:title>
      </cc:Work>
    </rdf:RDF>
  </metadata>
  <defs
     id="defs19" />
  <sodipodi:namedview
     pagecolor="#ffffff"
     bordercolor="#666666"
     borderopacity="1"
     objecttolerance="10"
     gridtolerance="10"
     guidetolerance="10"
     inkscape:pageopacity="0"
     inkscape:pageshadow="2"
     inkscape:window-width="1920"
     inkscape:window-height="1017"
     id="namedview17"
     showgrid="false"
     inkscape:zoom="2"
     inkscape:cx="227.89879"
     inkscape:cy="184.14204"
     inkscape:window-x="-8"
     inkscape:window-y="-8"
     inkscape:window-maximized="1"
     inkscape:current-layer="svg15"
     fit-margin-top="0"
     fit-margin-left="0"
     fit-margin-right="0"
     fit-margin-bottom="0" />
  <path
     sodipodi:nodetypes="ccccsccccccccccccccc"
     style="opacity:1;fill:#ffffff;fill-opacity:1;stroke-width:1"
     inkscape:connector-curvature="0"
     id="path3-4"
     d="m 253.86245,2.9693154 c 4.99,-0.64 11.19,-1.79 14.7,2.83 l 58.39,72.6100056 c 8.8673,11.04988 14.05409,15.97039 10.14,22.129999 -1.7434,2.53356 -5.91218,3.24483 -8.64,3.88 l -223.68888,52.08667 c -5.60493,1.46725 -11.3505,3.09492 -16.93112,0.95334 -10.87486,-6.58017 -7.95758,-14.90159 -5.41,-24.12001 l 26.24,-96.810003 c 0.89,-3.91 3.82,-7.3 7.88,-8.03 l 137.32,-25.5300016 m -120.57,30.3800016 c -5.2658,1.01577 -10.14935,1.46406 -11.44,7.3 l -17.99,86.210003 c -2.74249,10.67628 3.12349,7.29892 10.55,5.51 l 203.03,-43.969999 c 8.861,-1.49544 3.55958,-5.74259 0.46,-9.92 l -47.73,-60.360004 c -4.75073,-5.846543 -6.32996,-9.9192376 -14.01,-9.0500016 z" />
  <g
     id="#ffffffff"
     transform="translate(-25.19,-52.228429)" />
  <path
     sodipodi:nodetypes="ccccccccccccccccccccccc"
     style="opacity:1;fill:#33aade"
     inkscape:connector-curvature="0"
     id="path5"
     d="m 227.55024,139.85157 30.0795,-7.06 v 30.87024 h 45.81 L 315.18,209.80157 327.73974,163.66181 H 358.14 l -24.10026,78.03 h -36.93 L 277.65,182.75157 l -20.02026,-0.05 v 20.07 c 0,9.79347 -0.95591,16.65614 4.54026,17.56 3.82,0.59 7.70999,0.41 11.55999,0.58 v 21.57 c -7.26,0.76 -14.62999,0.75 -21.90999,0.52 -6.64,-0.34 -13.73,-1.79 -18.64,-6.61 -4.8,-4.47 -5.48976,-11.45 -5.62976,-17.63 v -35.95 l -12.89029,-0.28 v -18.86976 h 12.89025 z" />
  <path
     sodipodi:nodetypes="ccccsccccccccccccccc"
     style="opacity:1;fill:#33aade"
     inkscape:connector-curvature="0"
     id="path3"
     d="m 254.47,0.61157145 c 4.99,-0.64 11.19,-1.79000005 14.7,2.82999995 l 58.39,72.6099996 c 8.8673,11.04988 14.05409,15.97039 10.14,22.13 -1.7434,2.533549 -5.91218,3.244819 -8.64,3.879999 l -223.68888,52.08667 c -5.60493,1.46725 -11.3505,3.09491 -16.93112,0.95333 -10.87486,-6.58017 -7.95758,-14.90158 -5.41,-24.12 l 26.24,-96.809999 c 0.89,-3.91 3.82,-7.3 7.88,-8.03 L 254.47,0.61157145 M 133.9,30.991571 c -5.2658,1.015775 -10.14935,1.464064 -11.44,7.3 l -17.99,86.209999 c -2.74249,10.67628 3.12349,7.29892 10.55,5.51 L 318.05,86.041571 c 8.861,-1.49544 3.55958,-5.74259 0.46,-9.92 l -47.73,-60.36 C 266.02927,9.9150304 264.45004,5.8423354 256.77,6.7115714 Z" />
  <path
     sodipodi:nodetypes="ccccccccccccccccccccccccccccccccccc"
     style="opacity:1;fill:#ffffff;fill-opacity:1"
     inkscape:connector-curvature="0"
     id="path12"
     d="m 0,134.34131 h 30.03 c 0.11,17.23 -0.04,34.47026 0.07,51.71026 l 18.8,-22.17976 h 58.92 l -0.01,9.23976 c 4.76,-5.32 10.69,-10.11 18.01,-11.06 7.16,-0.67 15.05,-0.67 21.32,3.38 3.14,1.96 5.18,5.12 7.01,8.24 4.26,-4.77 9.23,-9.35 15.66,-10.82 8.79,-2.06 18.82,-1.75 26.52,3.43 7.65,5.09 11.61,14.45 11.5,23.45 -0.04,17.43 0,34.78974 -0.02,52.21974 h -30.2 c -0.13,-14.73 0.02,-29.41974 -0.07,-44.14974 -0.14,-3.4 -0.54,-7.19 -3.02,-9.75 -4.06,-3.87 -11.58,-2.82 -14.53,1.93 -1.68,2.96 -1.62,6.49 -1.69,9.8 0.11,14.01 -0.11,28.16974 0.12,42.16974 h -30.2 c 0.18,-14.34 0.02,-28.81974 0.09,-43.16974 -0.11,-3.92 -0.06,-8.44 -3,-11.44 -2.79,-2.33 -6.96,-2.65 -10.3,-1.45 -4.1,1.89 -5.88,6.65 -5.95,10.91 -0.04,15.06 0.05,30.08974 -0.04,45.14974 H 50.99 l -16.03,-28.11974 -4.81,5.21 -0.12,22.90974 H 0.05 c -0.03,-35.83 0.08,-71.78 -0.05,-107.61 m 54.653455,59.1324 24.056295,35.69786 v -60.97 z" />
</svg>
