<?xml version="1.0" encoding="UTF-8"?>
<svg id="svg34" width="600" height="345.9" version="1.1" viewBox="0 0 158.75 91.519" xmlns="http://www.w3.org/2000/svg" xmlns:cc="http://creativecommons.org/ns#" xmlns:dc="http://purl.org/dc/elements/1.1/" xmlns:rdf="http://www.w3.org/1999/02/22-rdf-syntax-ns#">
 <metadata id="metadata40">
  <rdf:RDF>
   <cc:Work rdf:about="">
    <dc:format>image/svg+xml</dc:format>
    <dc:type rdf:resource="http://purl.org/dc/dcmitype/StillImage"/>
    <dc:title/>
   </cc:Work>
  </rdf:RDF>
 </metadata>
 <path id="path2" d="m0-6.8669e-4v32.54l8.74 9.9803v-32.54h47.77l-8.74-9.9803z" fill="#423f3f"/>
 <path id="path6" d="m150 48.999v32.53h-47.776l8.7411 9.9798 47.781 0.0098v-32.54z" fill="#423f3f"/>
 <g id="g883" transform="translate(0 -.00051677)" fill="#423f3f">
  <path id="path10" d="m27.55 24.08h-5.29v19.33h13.61v-4.86h-8.32z"/>
  <path id="path12" d="m47.03 43.64c5.6 0 9.98-4.35 9.98-9.9s-4.38-9.9-9.98-9.9c-5.59 0-9.97 4.35-9.97 9.9s4.38 9.9 9.97 9.9m0-14.89c2.7 0 4.58 2.05 4.58 4.99s-1.88 4.99-4.58 4.99c-2.69 0-4.58-2.05-4.58-4.99s1.89-4.99 4.58-4.99"/>
  <path id="path14" d="m76.74 43.61v-19.6h-5.07l0.01 8.79-11.76-9.06v19.6h5.07l-0.01-8.76z"/>
  <path id="path16" d="m138.48 24.01h-5.064l9e-3 8.79-11.758-9.07v19.61h5.064l-5e-3 -8.76 11.754 9.03z"/>
  <path id="path18" d="m86.608 24.08h-6.258v19.33h6.258c5.967 0 10.134-3.98 10.134-9.67s-4.167-9.66-10.134-9.66m-0.965 4.85h0.786c4.041 0 4.89 2.62 4.89 4.81 0 2.2-0.849 4.81-4.89 4.81h-0.786z"/>
  <path id="path20" d="m108.94 23.84c-5.594 0-9.974 4.35-9.974 9.9s4.38 9.9 9.974 9.9c5.593 0 9.978-4.35 9.978-9.9s-4.385-9.9-9.978-9.9m0 14.9c-2.693 0-4.58-2.06-4.58-5s1.887-4.99 4.58-4.99c2.697 0 4.579 2.05 4.579 4.99s-1.882 5-4.579 5"/>
  <path id="path22" d="m27.55 50.93h-5.29v19.33h13.61v-4.86h-8.32z"/>
  <path id="path24" d="m37.92 70.26h5.29v-19.34h-5.29z"/>
  <path id="path26" d="m54.69 59.9-4.53-8.97h-5.77l10.27 19.74 9.85-19.74h-5.39z"/>
  <path id="path28" d="m65.73 70.26h13.982v-4.86h-8.682v-2.45h7.741v-4.77h-7.741v-2.4h8.682v-4.85h-13.982z"/>
 </g>
</svg>
