<svg width="968" height="552" version="1.1" viewBox="0 0 256.12 146.05" xmlns="http://www.w3.org/2000/svg">
 <path d="m0-1.8669e-4v34.344l14.288 15.927v-35.983h39.952l-13.948-14.287z" fill="#e6e6e6" stroke-width="1.5958"/>
 <path d="m256.12 146.05v-34.344l-14.288-15.927v35.983h-38.629l13.948 14.288z" fill="#e6e6e6" stroke-width="1.5958"/>
 <g fill="#e6e6e6">
  <path d="m44.519 35.719h-8.5357v31.485h21.96v-7.9161h-13.425z" stroke-width="1.6212"/>
  <path d="m76.192 67.469c9.0608 0 16.148-7.0335 16.148-16.007 0-8.9738-7.0869-16.007-16.148-16.007-9.0446 0-16.131 7.0335-16.131 16.007 0 8.9738 7.0869 16.007 16.131 16.007m0-24.076c4.3686 0 7.4105 3.3146 7.4105 8.0683s-3.0418 8.0683-7.4105 8.0683c-4.3524 0-7.4105-3.3146-7.4105-8.0683s3.058-8.0683 7.4105-8.0683" stroke-width="1.6175"/>
  <path d="m123.3 67.469v-31.058h-8.2145l0.0162 13.928-19.054-14.356v31.058h8.2145l-0.0162-13.881z" stroke-width="1.6023"/>
  <path d="m137.1 35.719h-10.101v31.485h10.101c9.6313 0 16.357-6.4828 16.357-15.751 0-9.2681-6.726-15.735-16.357-15.735m-1.5576 7.8999h1.2687c6.5226 0 7.893 4.2676 7.893 7.8347 0 3.5834-1.3704 7.8347-7.893 7.8347h-1.2687z" stroke-width="1.6215"/>
  <path d="m44.519 78.846h-8.5357v31.485h21.96v-7.9161h-13.425z" stroke-width="1.6212"/>
  <path d="m61.648 110.33h8.7312v-31.485h-8.7312z" stroke-width="1.6392"/>
  <path d="m90.214 93.498-7.3272-14.46h-9.3329l16.612 31.822 15.932-31.822h-8.7182z" stroke-width="1.6148"/>
  <path d="m109.54 110.33h22.754v-7.9161h-14.129v-3.9907h12.598v-7.7696h-12.598v-3.9092h14.129v-7.8999h-22.754z" stroke-width="1.6281"/>
  <path d="m173.29 67.469c9.0608 0 16.148-7.0335 16.148-16.007 0-8.9738-7.0869-16.007-16.148-16.007-9.0446 0-16.131 7.0335-16.131 16.007 0 8.9738 7.0868 16.007 16.131 16.007m0-24.076c4.3686 0 7.4105 3.3146 7.4105 8.0683s-3.0418 8.0683-7.4105 8.0683c-4.3524 0-7.4104-3.3146-7.4104-8.0683s3.058-8.0683 7.4104-8.0683" stroke-width="1.6175"/>
  <path d="m220.4 67.469v-31.058h-8.2145l0.0162 13.928-19.054-14.356v31.058h8.2145l-0.0162-13.881z" stroke-width="1.6023"/>
 </g>
</svg>
