<?xml version="1.0" encoding="UTF-8"?>
<!-- Created with Inkscape (http://www.inkscape.org/) -->
<svg id="svg2" width="66.41mm" height="11.013mm" version="1.1" viewBox="0 0 235.31 39.023" xmlns="http://www.w3.org/2000/svg" xmlns:cc="http://creativecommons.org/ns#" xmlns:dc="http://purl.org/dc/elements/1.1/" xmlns:rdf="http://www.w3.org/1999/02/22-rdf-syntax-ns#">
 <metadata id="metadata7">
  <rdf:RDF>
   <cc:Work rdf:about="">
    <dc:format>image/svg+xml</dc:format>
    <dc:type rdf:resource="http://purl.org/dc/dcmitype/StillImage"/>
    <dc:title/>
   </cc:Work>
  </rdf:RDF>
 </metadata>
 <g id="layer1" transform="translate(-192.24 -258.99)">
  <g id="flowRoot4136" fill="#fff" stroke-width="1px">
   <path id="path4145" d="m192.24 260.22h7.5195v23.477h13.203v5.6836h-20.723v-29.16z"/>
   <path id="path4147" d="m217.17 280.86v-13.359h7.0312v2.1875q0 1.7773-0.0195 4.4726-0.0195 2.6758-0.0195 3.5742 0 2.6367 0.13672 3.8086 0.13672 1.1524 0.46875 1.6797 0.42969 0.6836 1.1133 1.0547 0.70313 0.37109 1.6016 0.37109 2.1875 0 3.4375-1.6797 1.25-1.6797 1.25-4.668v-10.801h6.9922v21.875h-6.9922v-3.1641q-1.582 1.9141-3.3594 2.832-1.7578 0.89844-3.8867 0.89844-3.7891 0-5.7812-2.3242-1.9726-2.3242-1.9726-6.7578z"/>
   <path id="path4149" d="m263.59 268.18v5.7031q-1.4258-0.97656-2.8711-1.4453-1.4258-0.46875-2.9688-0.46875-2.9297 0-4.5703 1.7188-1.6211 1.6992-1.6211 4.7656 0 3.0664 1.6211 4.7852 1.6406 1.6992 4.5703 1.6992 1.6406 0 3.1055-0.48828 1.4844-0.48828 2.7344-1.4453v5.7226q-1.6406 0.60547-3.3398 0.89844-1.6797 0.3125-3.3789 0.3125-5.918 0-9.2578-3.0273-3.3398-3.0469-3.3398-8.457 0-5.4102 3.3398-8.4375 3.3398-3.0469 9.2578-3.0469 1.7188 0 3.3789 0.3125 1.6797 0.29297 3.3398 0.89844z"/>
   <path id="path4151" d="m269.67 258.99h6.9922v16.543l8.0469-8.0273h8.125l-10.684 10.039 11.523 11.836h-8.4766l-8.5352-9.1211v9.1211h-6.9922v-30.391z"/>
   <path id="path4153" d="m293.44 267.5h6.9922l5.8789 14.844 5-14.844h6.9922l-9.1992 23.945q-1.3867 3.6523-3.2422 5.0976-1.8359 1.4648-4.8633 1.4648h-4.043v-4.5898h2.1875q1.7774 0 2.5781-0.5664 0.82031-0.56641 1.2695-2.0312l0.19531-0.60547-9.7461-22.715z"/>
   <path id="path4155" d="m356.91 261.13v6.1719q-2.4023-1.0742-4.6875-1.6211-2.2852-0.54688-4.3164-0.54688-2.6953 0-3.9844 0.74219t-1.2891 2.3047q0 1.1719 0.85937 1.8359 0.87891 0.64453 3.1641 1.1133l3.2031 0.64453q4.8633 0.97656 6.9141 2.9688t2.0508 5.6641q0 4.8242-2.8711 7.1875-2.8516 2.3438-8.7305 2.3438-2.7734 0-5.5664-0.52734-2.793-0.52735-5.5859-1.5625v-6.3477q2.793 1.4844 5.3906 2.2461 2.6172 0.74218 5.0391 0.74218 2.4609 0 3.7695-0.82031 1.3086-0.82031 1.3086-2.3438 0-1.3672-0.89844-2.1094-0.87891-0.74219-3.5352-1.3281l-2.9102-0.64453q-4.375-0.9375-6.4062-2.9883-2.0117-2.0508-2.0117-5.5274 0-4.3555 2.8125-6.6992t8.0859-2.3438q2.4023 0 4.9414 0.37109 2.5391 0.35156 5.2539 1.0742z"/>
   <path id="path4157" d="m372.77 261.29v6.2109h7.207v5h-7.207v9.2773q0 1.5234 0.60547 2.0703 0.60547 0.52735 2.4024 0.52735h3.5938v5h-5.9961q-4.1406 0-5.8789-1.7188-1.7188-1.7383-1.7188-5.8789v-9.2773h-3.4766v-5h3.4766v-6.2109h6.9922z"/>
   <path id="path4159" d="m394.08 279.53q-2.1875 0-3.3008 0.74218-1.0938 0.74219-1.0938 2.1875 0 1.3281 0.8789 2.0898 0.89844 0.74218 2.4805 0.74218 1.9727 0 3.3203-1.4062 1.3477-1.4258 1.3477-3.5547v-0.80078h-3.6328zm10.684-2.6367v12.48h-7.0508v-3.2422q-1.4062 1.9922-3.1641 2.9102-1.7578 0.89844-4.2774 0.89844-3.3984 0-5.5273-1.9726-2.1094-1.9922-2.1094-5.1562 0-3.8477 2.6367-5.6445 2.6562-1.7969 8.3203-1.7969h4.1211v-0.54688q0-1.6602-1.3086-2.4219-1.3086-0.78125-4.082-0.78125-2.2461 0-4.1797 0.44922-1.9336 0.44922-3.5938 1.3476v-5.332q2.2461-0.54687 4.5117-0.82031 2.2656-0.29297 4.5312-0.29297 5.918 0 8.5352 2.3438 2.6367 2.3242 2.6367 7.5781z"/>
   <path id="path4161" d="m427.56 273.46q-0.91797-0.42969-1.8359-0.625-0.89843-0.21485-1.8164-0.21485-2.6953 0-4.1602 1.7383-1.4453 1.7188-1.4453 4.9414v10.078h-6.9922v-21.875h6.9922v3.5938q1.3476-2.1484 3.0859-3.125 1.7578-0.9961 4.1992-0.9961 0.35157 0 0.76172 0.0391 0.41016 0.0195 1.1914 0.11719l0.0195 6.3281z"/>
  </g>
 </g>
</svg>
