<svg height="216.03197pt" viewBox="0 0 479.99121 216.03197" width="479.99121pt" xmlns="http://www.w3.org/2000/svg"><path d="m111.21292 176.49178c6.11886-.0198 12.24765-.01 18.36652-.0198 3.56024-.0595 7.44776.89254 9.79812 3.74868 3.23298 4.13544 2.31069 10.96834-2.43962 13.59638 6.37672 1.86442 9.24277 9.95679 6.0197 15.58972-2.28094 4.02635-7.11058 5.84119-11.55345 5.7916-6.72382.0198-13.45754-.01-20.18136 0-.01-12.90218 0-25.80436-.01-38.70654m8.16179 15.10378c3.73876-.13884 7.55685.4066 11.25594-.36693 3.82801-.81321 3.63959-7.05108-.16859-7.7552-3.61975-.54544-7.31884-.27768-10.95843-.23801-.32726 2.76688-.0793 5.57343-.12892 8.36014m0 6.68414c-.01 3.34208-.01 6.68415-.01 10.03614 4.34371-.19835 8.81633.53552 13.05094-.56528 4.25445-1.19005 3.94702-8.25105-.4066-9.11384-4.15527-.76362-8.42956-.18842-12.63442-.35702z"/><path d="m151.08968 176.51161c2.66771-.0397 5.33542-.0397 8.00313-.0397.01 12.9121 0 25.81428 0 38.72638-2.66771 0-5.3255 0-7.99321 0-.01-12.89226.0198-25.79444-.01-38.68671z"/><path d="m167.81988 176.49178c6.70397.0397 13.40795-.11901 20.11193.0595 5.97011.17851 11.74188 5.22633 11.25594 11.48403.26776 4.96848-3.38174 9.17334-7.86428 10.80967 3.98668 5.41475 7.91386 10.87909 11.82121 16.35334-3.12389 0-6.23787 0-9.36176.01-3.80818-5.20649-7.5271-10.47249-11.3452-15.66906-2.19168 0-4.37345 0-6.55522.01-.01 5.21641-.01 10.43281-.01 15.64922-2.67762 0-5.36516 0-8.04279 0-.01-12.90218 0-25.80436-.01-38.70654m8.0527 6.97174v9.30226c4.01644-.12892 8.08246.35702 12.05923-.30743 4.09577-.94213 4.20486-7.51718.11901-8.5684-3.99661-.83304-8.12213-.27768-12.17824-.42643z"/><path d="m208.24209 176.48186c2.69745-.01 5.39491-.01 8.09237.0297 3.75859 5.23624 7.21967 10.69066 11.20636 15.7484 3.69908-5.28583 7.30892-10.63116 11.14685-15.82774 2.61812.0496 5.23624.0496 7.86428.0496.01 12.90218 0 25.81428 0 38.71646-2.62804 0-5.25608 0-7.88412 0-.16859-8.71715.37685-17.47397-.33718-26.1713-2.67763 4.19495-5.6726 8.1618-8.5684 12.20799-1.46773 0-2.93547.01-4.4032.0198-3.06439-4.07594-6.03953-8.21138-9.01467-12.34682-.10909 8.76674-.0198 17.53348-.0496 26.2903-2.68754 0-5.36516 0-8.04279.01-.0198-12.9121 0-25.8242-.01-38.72638z"/><path d="m255.33852 176.48186c2.65779 0 5.3255-.01 8.00312 0 .31735 12.90218.0198 25.81428-.0496 38.71646-2.65779 0-5.30567 0-7.96346 0 0-12.90218-.01-25.81428.01-38.71646z"/><path d="m272.02905 176.50169c2.31069-.0198 4.63129-.0298 6.9519-.0198 6.46597 8.19155 12.92202 16.39301 19.38799 24.58456.0694-8.19155.01-16.39301.0297-24.58456 2.59828 0 5.20649 0 7.80478-.01.0595 12.9121.01 25.8242.0298 38.7363-2.29086 0-4.58172-.01-6.87257-.0595-6.39655-8.31056-12.99144-16.45252-19.4574-24.69365-.0397 8.25105 0 16.5021-.0298 24.75315-2.61812-.01-5.22632-.01-7.84444-.0198 0-12.89227.01-25.79445 0-38.68672z"/><path d="m319.72051 180.88506c7.07091-6.22795 18.31693-6.99157 26.35972-2.22143-.0793 2.62804-.0793 5.25607-.0595 7.88411-5.57343-3.41149-13.12036-4.78997-18.94171-1.20989-6.7139 4.14536-7.33868 14.82611-1.61649 20.07227 4.43295 3.88751 11.6427 4.29411 16.36326.68428-.0694-4.49246-.0793-8.975.01-13.45754 2.65779.0297 5.3255.0297 7.99321.0397.01 5.77177-.0298 11.55345.0198 17.33514-8.78657 8.3998-24.80273 8.17171-32.39925-1.70575-6.16846-7.96345-5.36517-20.67721 2.27102-27.42086z"/><path d="m357.118 176.49178c2.67762-.0198 5.36516-.0198 8.0527-.01v14.36c5.78169-.01 11.56337 0 17.34506-.01.01-4.78005 0-9.57003.01-14.36 2.67763 0 5.36517 0 8.05271.0198-.0198 12.90218 0 25.80436-.01 38.70654-2.68754 0-5.36516 0-8.04279 0-.01-5.64284 0-11.27577-.01-16.91862-5.78169-.01-11.56337-.01-17.34506 0v16.92854c-2.68754-.01-5.37508-.01-8.0527-.01.01-12.90218.01-25.80436 0-38.70654z"/><path d="m412.22747 176.2736c2.59829-.0496 5.20649-.0496 7.8147-.0397 5.52384 12.99144 11.05759 25.97296 16.60127 38.95448-2.89581.0198-5.78169.0198-8.65766-.0198-1.2198-2.96522-2.48919-5.90069-3.72884-8.84608-5.4445-.01-10.87908-.01-16.31367 0-1.24956 2.94539-2.51895 5.89078-3.73876 8.84608-2.85613.0397-5.70234.0397-8.54856.0198 5.53376-12.97161 11.09727-25.92337 16.57152-38.91481m-1.75533 23.35483c3.73875.0198 7.46759.0297 11.20635-.0198-1.86442-4.16519-3.45116-8.43948-5.37508-12.57492-2.65779 3.56025-3.73876 8.5089-5.83127 12.59475z"/><path d="m441.64167 176.53145c2.68754-.0694 5.36516-.0595 8.06262-.0496 3.73876 5.26599 7.4081 10.57166 11.13694 15.85749 3.77842-5.22633 7.40809-10.57166 11.12701-15.84757 2.66771-.0198 5.33542-.0198 8.01304 0-.01 12.90218 0 25.80436-.01 38.70654-2.64787 0-5.29574 0-7.9337 0-.0198-8.76674.0397-17.54339-.0298-26.31013-2.87597 4.14535-5.87094 8.21138-8.76674 12.3369-1.51732.01-3.01481.01-4.51229.01-2.99497-4.09578-5.9602-8.21138-8.96509-12.28732-.0992 8.7469-.0198 17.50373-.0496 26.25063-2.68754 0-5.36517 0-8.04279 0-.0198-12.89226.0297-25.77461-.0298-38.66687z"/><g transform="matrix(.79998626 0 0 .79998626 .000001 -.298371)"><path d="m420.86.57416h54.833l.28708 38.756c-.28708 0-17.799-31.005-55.12-38.756" fill="#2face3"/><path d="m420.86 179.14h54.833l.28708-38.756c-.28708 0-17.799 31.005-55.12 38.756" fill="#2face3"/><path d="m52.249 74.641-47.6557-74.641h95.3107z" fill="#da1d5d"/><path d="m-.00000177 60.861 52.24900177 79.519 51.391-79.232v117.99h-103.64z" fill="#8a3188"/><path d="m211.58 0-67.47 157.03v-157.03z" fill="#016839"/><path d="m252.34 0 67.47 157.03v-157.03z" fill="#016839"/><path d="m255.79 103.06-24.4-60.285-23.83 60.285z" fill="#d3d92e"/><path d="m192.06 139.23h78.086l16.651 39.904h-110.53z" fill="#abcd71"/><path d="m360.29 33.589v110.53h36.172s50.526 2.5837 50.526-58.278c0 0 .57416-52.249-50.526-52.249h-36.172z" fill="#2f358b"/><path d="m515.31 31.866h84.689v39.33h-84.689z" fill="#ea5b2d"/><path d="m515.31 105.65h84.689v39.33h-84.689z" fill="#c01e2f"/></g><path d="m .00239998 176.89837h4.00912932v38.8256h-4.00912932z"/><path d="m32.919597 176.89837 24.476673 31.65113v-31.65113h4.009129v38.8256h-3.376136l-24.688357-31.86209v31.86209h-4.009129v-38.8256z"/></svg>