<svg height="83.23056pt" viewBox="0 0 184.50118 83.23056" width="184.50117pt" xmlns="http://www.w3.org/2000/svg"><g stroke-width="2.520092" transform="matrix(.12201953 0 0 .12201953 0 33.227063)"><path d="m1060.6061-270.86244h138.1843l.7235 97.66871c-.7235 0-44.8552-78.13547-138.9075-97.66871" fill="#2face3"/><path d="m1060.6061 179.14h138.1843l.7235-97.668706c-.7235 0-44.8552 78.135466-138.9075 97.668706" fill="#2face3"/><path d="m131.67232-84.20715-120.096776-188.10223h240.191786z" fill="#da1d5d"/><path d="m-.00000177-118.93403 131.67232177 200.395243 129.51007-199.671973v297.34572h-261.18238731z" fill="#8a3188"/><path d="m533.20118-272.30938-170.03064 395.73013v-395.73013z" fill="#016839"/><path d="m635.92015-272.30938 170.03065 395.73013v-395.73013z" fill="#016839"/><path d="m644.61447-12.58864-61.49025-151.92378-60.05381 151.92378z" fill="#d3d92e"/><path d="m484.00898 78.563107h196.78394l41.96206 100.561773h-278.54583z" fill="#abcd71"/><path d="m907.96414-187.66199v278.545829h91.15679s127.33017 6.511163 127.33017-146.865953c0 0 1.447-131.672316-127.33017-131.672316h-91.15679z" fill="#2f358b"/><path d="m1298.6289-192.00411h213.4241v99.115241h-213.4241z" fill="#ea5b2d"/><path d="m1298.6289-6.0616008h213.4241v99.1152398h-213.4241z" fill="#c01e2f"/></g><g fill="#fff" transform="matrix(.93179081 0 0 .93179081 .00008 -393.19961)"><path d="m22.384712 495.71297c.590571.0147 1.182769.01 1.77334.008.0065 5.08411.0016 10.16986.0033 15.25398-.507598-.002-1.01357-.003-1.521168.007-3.159473-4.03151-6.268511-8.1053-9.418223-12.14494-.0016 4.04452-.0033 8.08903 0 12.13517-.584063.005-1.166499.003-1.750563.003 0-5.08412 0-10.16824 0-15.25236.527121-.002 1.055869-.008 1.584617.013 2.152412 2.82433 4.343869 5.61775 6.514176 8.42906.912701 1.20392 1.905121 2.40133 2.755998 3.61826.115511-4.00873-.0016-8.04998.05857-12.0701z" fill="#fff" stroke-width=".162692"/><path d="m .00321343 510.97509c-.00325383-5.08412-.00162691-10.16824-.00162691-15.25236.59707858-.002 1.19253018-.002 1.78960878 0 0 5.08412.00163 10.16824-.00163 15.25236-.5954517 0-1.1909033 0-1.78635497 0z" fill="#fff" stroke-width=".162692"/><path d="m70.604247 495.74919c2.638477.0156 5.276958-.0468 7.915438.0234 2.349651.0702 4.621242 2.05692 4.429991 4.51976.105383 1.95544-1.330948 3.61034-3.095138 4.25435 1.569034 2.13108 3.114652 4.28168 4.652465 6.43617-1.229468 0-2.455035 0-3.684501.004-1.498783-2.04911-2.962435-4.12165-4.465123-6.16686-.862577 0-1.721255 0-2.579933.004-.0039 2.05302-.0039 4.10604-.0039 6.15906-1.053829 0-2.111563 0-3.165395 0-.0039-5.0779 0-10.15581-.0039-15.23371m3.169295 2.74386v3.66109c1.580747-.0507 3.181008.14051 4.746142-.121 1.61197-.37079 1.654904-2.95853.04684-3.37226-1.572943-.32785-3.196621-.10928-4.792981-.16783z" stroke-width=".393569"/><g stroke-width=".820004"><path d="m36.000001 495.79201 2.714214.041 7.503038 9.55305.0164-9.58585h3.099616l-.0082 15.21108-2.714214-.0984-7.552238-9.60225-.0082 9.66785-3.042216.008z"/><path d="m56.475506 496.26761c5.207027-2.77981 12.177063 1.84501 11.332458 7.76544-.1148 5.75643-7.298037 9.21685-12.004861 6.10084-5.166027-2.89462-4.788825-11.51286.672403-13.86628m1.754809 2.52562c-3.714619 1.4022-3.89502 7.38004-.311601 9.04464 3.107816 1.73021 7.076636-1.189 6.699434-4.63302.123001-3.18982-3.427618-5.74823-6.387833-4.41162z"/><path d="m84.700051 495.80021h12.710066v2.82082l-4.780625.008-.0082 12.34926h-3.140616l-.0082-12.34926-4.772425-.008z"/><path d="m99.673328 495.80021h3.140612c-.0246 1.89421.008 3.78842.0492 5.69083 2.23862-.0328 4.48543-.0328 6.72404-.0246.008-1.89421.008-3.78022.008-5.66623h3.13242v15.17828c-1.04961 0-2.09102 0-3.13242 0 0-2.21401 0-4.41982 0-6.63383-2.26321-.008-4.51822-.008-6.77324 0 0 2.20581-.008 4.41982-.008 6.63383-1.0414.008-2.07461.0164-3.107811.0246-.082-5.06763-.0246-10.13525-.0328-15.20288z"/><path d="m148.47998 495.69361 2.96841.0164 6.51084 15.26028-3.37022.008-1.40221-3.43582-6.46163-.041-1.43501 3.46042-3.35381.0164 6.54363-15.28488m1.44321 4.03442-2.17301 5.12503 4.34602.0164z"/><path d="m159.93544 495.80021h3.14061v12.30007l7.69984.123-.0574 2.76341-10.78305-.008z"/><path d="m172.90791 495.80021h11.14385v2.82902h-7.94584l-.008 2.87821h6.44523v2.77982l-6.44523.008.0246 3.89502h8.17544v2.78801l-11.38165.008z"/></g><path d="m185.99525 509.60729v-3.21235c.62852.5587 1.46654 1.04755 2.51409 1.39672 1.04755.41903 2.09508.5587 3.1425.5587 1.67607 0 2.9332-.62852 2.9332-1.7459 0-.5587-.27935-1.04754-.76821-1.25704-.27935-.13968-.41902-.20951-.83802-.41903l-.48885-.13967-1.1872-.34917-1.11737-.34918c-.20951-.0698-.5587-.20951-1.04755-.34917-.48885-.13968-.7682-.34918-.9777-.48885-.41902-.27935-1.11737-.7682-1.39672-1.32688-.27935-.48885-.48885-1.25704-.48885-2.09507 0-1.32687.48885-2.37442 1.5364-3.1425 1.04755-.76819 2.44425-1.18719 4.19024-1.18719 1.7459 0 3.4219.41902 4.95835 1.25704v3.00305c-1.53641-.9777-3.21235-1.39673-4.8885-1.39673-1.67607 0-2.58395.48885-2.58395 1.46655 0 .48885.27935.7682.76821 1.04755.27934.13967.83802.34917 1.25704.48885.41903.13967 1.1872.34917 1.67605.48885 1.46655.48885 2.30459.83802 3.28219 1.60622 1.04755.69835 1.5364 1.7459 1.5364 3.1425 0 1.46655-.5587 2.58394-1.67604 3.42189-1.11738.83803-2.58395 1.25705-4.32995 1.25705-2.51409-.0698-4.39954-.62852-6.00584-1.67607" stroke-width=".243378"/><path d="m139.39792 495.78361h3.41103l-5.17164 15.29451h-2.75082l-3.30098-10.12288-3.41102 10.12288h-2.75082l-5.06164-15.29451h3.41103l3.19098 10.23326 3.41103-10.23326h2.42073l3.41103 10.23326z" stroke-width=".383283"/></g></svg>