<svg enable-background="new 0 0 209 90.1" height="242" viewBox="0 0 600 242" width="600" xmlns="http://www.w3.org/2000/svg"><path d="m0 0h600v241.72h-600z" fill="none"/><path d="m3.445 201.24h4.3062v39.617h-4.3062z"/><path d="m57.703 240.86-24.976-32.44v32.44h-4.3062v-39.617h3.7321l24.976 32.44v-32.44h4.0191v39.617z"/><path d="m99.043 208.71v-7.4641h33.301v7.4641h-12.632v32.153h-8.3254v-32.153z"/><path d="m167.08 223.06v17.799h-8.0383v-17.799l-15.502-21.818h9.7608l9.7608 14.067 10.048-14.067h9.1866z"/><path d="m224.78 240.86-20.383-25.55v25.55h-8.0383v-39.617h7.177l19.809 25.263v-25.263h8.0383v39.617z"/><path d="m274.74 223.35h-16.938v10.335h21.531v7.177h-29.856v-39.617h29.282v7.4641h-20.957v7.4641h16.938z"/><path d="m333.88 200.38c-3.445 0-6.3284 1.1467-8.625 3.1562-2.0096 2.0096-3.1562 4.5921-3.1562 7.75 0 2.2966.59584 4.3029 2.0312 6.3125-1.7225.86125-3.1583 2.3029-4.5938 4.3125-1.4354 2.0096-2.0312 4.6038-2.0312 7.1875 0 4.0191 1.1604 7.1721 4.0312 9.4688 2.5837 2.2966 6.0375 3.4375 10.344 3.4375 4.3062 0 8.305-1.4163 11.75-4l3.1562 3.1562h10.344l-8.3125-8.3438c2.5837-4.0191 4.0254-8.5884 4.3125-13.469h-7.7812c0 3.445-.56459 6.0217-2 8.0312l-10.031-9.7812c-2.0096-1.7225-2.5821-2.2833-3.1562-3.7188-.28708-.57416-.59375-1.4258-.59375-2 0-2.2966 2.3167-4.3125 5.1875-4.3125s6.0296 1.1408 9.1875 3.4375h.28125v-7.75c-2.8708-2.0096-6.3246-2.875-10.344-2.875zm-5.75 22.406 10.062 9.75c-2.0096 1.4354-4.0158 2.3125-6.3125 2.3125-4.0191 0-7.1875-2.2992-7.1875-6.0312 0-2.8708 1.715-5.17 3.4375-6.0312z"/><path d="m441.53 201.24h8.8995l-13.493 39.904h-7.177l-8.6124-26.411-8.8995 26.411h-7.177l-13.206-39.904h8.8995l8.3254 26.699 8.8995-26.699h6.3158l8.8995 26.699z"/><path d="m490.33 223.35h-16.938v10.335h21.531v7.177h-29.569v-39.617h28.995v7.4641h-20.957v7.4641h16.938z"/><path d="m524.5 200.97-16.938 39.906h8.3125l4.0312-9.1875h16.656l4 9.1875h8.625l-16.938-39.906h-7.75zm3.7188 10.312 5.75 13.781h-11.469l5.7188-13.781z"/><path d="m563.81 201.25v39.312h8.3438v-16.062h6.875l11.5 16.062h9.4688l-12.344-16.938c5.1675-1.4354 8.3125-5.7388 8.3125-10.906 0-3.445-1.4221-6.3029-3.7188-8.3125-2.5837-2.0096-5.7563-3.1562-10.062-3.1562h-18.375zm8.3438 7.1562h9.75c3.732 0 6.0312 2.0354 6.0312 4.9062 0 3.1579-2.2992 4.875-6.0312 4.875h-9.75z"/><path d="m419.71.00000128h54.545l.29 38.756s-17.512-31.005-54.833-38.756" fill="#2face3"/><path d="m419.71 178.56h54.545l.28708-38.756c0 .28708-17.512 31.005-54.833 38.756" fill="#2face3"/><path d="m99.617.00000128-47.368 74.64099872-47.6557-74.64099872z" fill="#da1d5d"/><path d="m0 60.861 51.962 79.234 51.388-79.234v117.7h-103.35z" fill="#8a3188"/><path d="m269.28 138.66 16.651 39.904h-110.24l15.789-39.904z" fill="#abcd71"/><path d="m359.43 33.589v110.24h36.172s50.526 2.5837 50.526-58.278c0 0 .57416-51.962-50.526-51.962z" fill="#2f358b"/><path d="m514.16 31.579h84.402v39.043h-84.402z" fill="#ea5b2d"/><path d="m514.16 105.36h84.402v39.043h-84.402z" fill="#c01e2f"/><path d="m143.54.00000128h67.464l-67.46 156.75z" fill="#016839"/><path d="m318.95.00000128h-67.464l67.46 156.75z" fill="#016839"/><path d="m206.99 102.78h47.943l-24.402-60z" fill="#d3d92e"/></svg>