<?xml version="1.0" encoding="UTF-8"?>
<!-- Generator: Adobe Illustrator 18.1.0, SVG Export Plug-In . SVG Version: 6.00 Build 0)  -->
<svg width="600" height="270.3" enable-background="new 0 0 209 90.1" version="1.1" viewBox="0 0 600 270.3" xml:space="preserve" xmlns="http://www.w3.org/2000/svg" xmlns:cc="http://creativecommons.org/ns#" xmlns:dc="http://purl.org/dc/elements/1.1/" xmlns:rdf="http://www.w3.org/1999/02/22-rdf-syntax-ns#"><metadata><rdf:RDF><cc:Work rdf:about=""><dc:format>image/svg+xml</dc:format><dc:type rdf:resource="http://purl.org/dc/dcmitype/StillImage"/><dc:title/></cc:Work></rdf:RDF></metadata><path d="m420.66 0.57389h54.806l0.28694 38.737c-0.28694 0-17.791-30.99-55.093-38.737" fill="#2face3"/><path d="m420.66 179.05h54.806l0.28694-38.737c-0.28694 0-17.791 30.99-55.093 38.737" fill="#2face3"/><path d="M99.857,0,52.224,74.605,4.5911,0z" fill="#da1d5d"/><path d="m-2.6733e-6 60.832 52.224 79.488 51.366-79.201v117.93h-103.59z" fill="#8a3188"/><path d="m144.05 0h67.432l-67.432 156.96z" fill="#016839"/><path d="m319.66 0h-67.432l67.432 156.96z" fill="#016839"/><path d="m207.46 103.01h48.207l-24.39-60.258z" fill="#d3d92e"/><path d="m270.01 139.17 16.643 39.885h-110.47l15.782-39.885z" fill="#abcd71"/><path d="m360.11 33.572v110.47h36.155s50.502 2.5825 50.502-58.25c0 0 0.57389-52.224-50.502-52.224h-36.155z" fill="#2f358b"/><path d="m515.06 31.851h84.648v39.311h-84.648z" fill="#ea5b2d"/><path d="m515.06 105.6h84.648v39.311h-84.648z" fill="#c01e2f"/><path d="m2.0086 206.6h6.5997v62.267h-6.5997z" fill="#FFF"/><path d="m101 268.87-39.311-51.076v51.076h-6.5997v-62.267h5.7389l39.311 50.789v-50.789h6.5997v62.267z" fill="#FFF"/><path d="m202.3 206.6h12.912v50.789h31.564v11.478h-44.476z" fill="#FFF"/><path d="m323.96 241.32h-26.399v16.069h33.859v11.478h-46.772v-62.267h45.911v11.478h-32.999v11.765h26.399z" fill="#FFF"/><path d="m409.76 241.32h-26.686v16.069h33.859v11.478h-46.485v-62.267h45.624v11.478h-32.999v11.765h26.686z" fill="#FFF"/><path d="m455.95 268.87v-62.267h23.242c10.043 0 18.364 2.8694 24.677 8.6083 6.3128 5.7389 9.4692 13.199 9.4692 22.382 0 9.1822-3.1564 16.643-9.4692 22.382-6.3128 5.7389-14.634 8.6083-24.677 8.6083h-23.242zm12.912-11.478h9.4692c13.773 0 22.095-7.1736 22.095-19.512 0-12.339-8.3214-19.799-22.095-19.799h-9.4692v39.311z" fill="#FFF"/><path d="m550.65 263.41v-13.199c2.5825 2.2956 6.0258 4.3042 10.33 5.7389 4.3042 1.7217 8.6083 2.2956 12.912 2.2956 6.8867 0 12.052-2.5825 12.052-7.1736 0-2.2956-1.1478-4.3042-3.1564-5.165-1.1478-0.57389-1.7217-0.86083-3.4433-1.7217l-2.0086-0.57389-4.878-1.4347-4.5911-1.4347c-0.86083-0.28694-2.2956-0.86083-4.3042-1.4347-2.0086-0.57389-3.1564-1.4347-4.0172-2.0086-1.7217-1.1478-4.5911-3.1564-5.7389-5.4519-1.1478-2.0086-2.0086-5.165-2.0086-8.6083 0-5.4519 2.0086-9.7561 6.3128-12.912 4.3042-3.1564 10.043-4.878 17.217-4.878 7.1736 0 14.06 1.7217 20.373 5.165v12.339c-6.3128-4.0172-13.199-5.7389-20.086-5.7389-6.8867 0-10.617 2.0086-10.617 6.0258 0 2.0086 1.1478 3.1564 3.1564 4.3042 1.1478 0.57389 3.4433 1.4347 5.165 2.0086 1.7217 0.57389 4.878 1.4347 6.8866 2.0086 6.0258 2.0086 9.4692 3.4433 13.486 6.5997 4.3042 2.8694 6.3128 7.1736 6.3128 12.912 0 6.0258-2.2956 10.617-6.8866 14.06-4.5911 3.4433-10.617 5.165-17.791 5.165-10.33-0.28695-18.077-2.5825-24.677-6.8867" fill="#FFF"/></svg>
