<?xml version="1.0" encoding="UTF-8" standalone="no"?>
<svg
   xmlns:dc="http://purl.org/dc/elements/1.1/"
   xmlns:cc="http://creativecommons.org/ns#"
   xmlns:rdf="http://www.w3.org/1999/02/22-rdf-syntax-ns#"
   xmlns:svg="http://www.w3.org/2000/svg"
   xmlns="http://www.w3.org/2000/svg"
   xmlns:sodipodi="http://sodipodi.sourceforge.net/DTD/sodipodi-0.dtd"
   xmlns:inkscape="http://www.inkscape.org/namespaces/inkscape"
   width="184.50117pt"
   height="83.23056pt"
   viewBox="0 0 184.50118 83.23056"
   version="1.1"
   id="svg55"
   sodipodi:docname="Made In North Wales - Dark.svg"
   inkscape:version="0.92.0 r15299">
  <metadata
     id="metadata61">
    <rdf:RDF>
      <cc:Work
         rdf:about="">
        <dc:format>image/svg+xml</dc:format>
        <dc:type
           rdf:resource="http://purl.org/dc/dcmitype/StillImage" />
        <dc:title></dc:title>
      </cc:Work>
    </rdf:RDF>
  </metadata>
  <defs
     id="defs59" />
  <sodipodi:namedview
     pagecolor="#ffffff"
     bordercolor="#666666"
     borderopacity="1"
     objecttolerance="10"
     gridtolerance="10"
     guidetolerance="10"
     inkscape:pageopacity="0"
     inkscape:pageshadow="2"
     inkscape:window-width="1920"
     inkscape:window-height="1017"
     id="namedview57"
     showgrid="false"
     fit-margin-top="0"
     fit-margin-left="0"
     fit-margin-right="0"
     fit-margin-bottom="0"
     inkscape:zoom="2.4553314"
     inkscape:cx="22.799162"
     inkscape:cy="-21.58077"
     inkscape:window-x="-8"
     inkscape:window-y="-8"
     inkscape:window-maximized="1"
     inkscape:current-layer="svg55" />
  <g
     id="#ffffffff"
     transform="translate(-127.49025,-554.78642)" />
  <g
     transform="matrix(0.12201953,0,0,0.12201953,2.1593796e-7,33.227063)"
     id="g4537">
    <path
       style="fill:#2face3;stroke-width:2.52009249"
       inkscape:connector-curvature="0"
       id="path4"
       d="m 1060.6061,-270.86244 h 138.1843 l 0.7235,97.66871 c -0.7235,0 -44.8552,-78.13547 -138.9075,-97.66871" />
    <path
       style="fill:#2face3;stroke-width:2.52009249"
       inkscape:connector-curvature="0"
       id="path6"
       d="m 1060.6061,179.14 h 138.1843 l 0.7235,-97.668706 c -0.7235,0 -44.8552,78.135466 -138.9075,97.668706" />
    <path
       style="fill:#da1d5d;stroke-width:2.52009249"
       inkscape:connector-curvature="0"
       id="path8-8"
       d="M 131.67232,-84.20715 11.575544,-272.30938 H 251.76733 Z" />
    <path
       style="fill:#8a3188;stroke-width:2.52009249"
       inkscape:connector-curvature="0"
       id="path10-7"
       d="M -1.7697e-6,-118.93403 131.67232,81.461213 261.18239,-118.21076 V 179.13496 H 2.6901078e-6 Z" />
    <path
       style="fill:#016839;stroke-width:2.52009249"
       inkscape:connector-curvature="0"
       id="path12"
       d="M 533.20118,-272.30938 363.17054,123.42075 v -395.73013 z" />
    <path
       style="fill:#016839;stroke-width:2.52009249"
       inkscape:connector-curvature="0"
       id="path14"
       d="M 635.92015,-272.30938 805.9508,123.42075 v -395.73013 z" />
    <path
       style="fill:#d3d92e;stroke-width:2.52009249"
       inkscape:connector-curvature="0"
       id="path16-0"
       d="M 644.61447,-12.58864 583.12422,-164.51242 523.07041,-12.58864 Z" />
    <path
       style="fill:#abcd71;stroke-width:2.52009249"
       inkscape:connector-curvature="0"
       id="path18"
       d="M 484.00898,78.563107 H 680.79292 L 722.75498,179.12488 H 444.20915 Z" />
    <path
       style="fill:#2f358b;stroke-width:2.52009249"
       inkscape:connector-curvature="0"
       id="path20"
       d="M 907.96414,-187.66199 V 90.883839 h 91.15679 c 0,0 127.33017,6.511163 127.33017,-146.865953 0,0 1.447,-131.672316 -127.33017,-131.672316 h -91.15679 z" />
    <path
       style="fill:#ea5b2d;stroke-width:2.52009249"
       inkscape:connector-curvature="0"
       id="path22-2"
       d="m 1298.6289,-192.00411 h 213.4241 v 99.115241 h -213.4241 z" />
    <path
       style="fill:#c01e2f;stroke-width:2.52009249"
       inkscape:connector-curvature="0"
       id="path24"
       d="M 1298.6289,-6.0616008 H 1512.053 V 93.053639 h -213.4241 z" />
  </g>
  <g
     id="g4568"
     transform="matrix(0.93179081,0,0,0.93179081,8.0472399e-5,-393.19961)">
    <g
       id="g4543">
      <path
         style="opacity:1;fill:#000000;stroke-width:0.16269171"
         inkscape:connector-curvature="0"
         id="path38"
         d="m 22.384712,495.71297 c 0.590571,0.0147 1.182769,0.01 1.77334,0.008 0.0065,5.08411 0.0016,10.16986 0.0033,15.25398 -0.507598,-0.002 -1.01357,-0.003 -1.521168,0.007 -3.159473,-4.03151 -6.268511,-8.1053 -9.418223,-12.14494 -0.0016,4.04452 -0.0033,8.08903 0,12.13517 -0.584063,0.005 -1.166499,0.003 -1.750563,0.003 0,-5.08412 0,-10.16824 0,-15.25236 0.527121,-0.002 1.055869,-0.008 1.584617,0.013 2.152412,2.82433 4.343869,5.61775 6.514176,8.42906 0.912701,1.20392 1.905121,2.40133 2.755998,3.61826 0.115511,-4.00873 -0.0016,-8.04998 0.05857,-12.0701 z" />
      <path
         style="opacity:1;fill:#000000;stroke-width:0.16269171"
         inkscape:connector-curvature="0"
         id="path52"
         d="M 0.00321343,510.97509 C -4.04016e-5,505.89097 0.00158652,500.80685 0.00158652,495.72273 c 0.59707858,-0.002 1.19253018,-0.002 1.78960878,0 0,5.08412 0.00163,10.16824 -0.00163,15.25236 -0.5954517,0 -1.1909033,0 -1.78635497,0 z" />
    </g>
    <path
       d="m 70.604247,495.74919 c 2.638477,0.0156 5.276958,-0.0468 7.915438,0.0234 2.349651,0.0702 4.621242,2.05692 4.429991,4.51976 0.105383,1.95544 -1.330948,3.61034 -3.095138,4.25435 1.569034,2.13108 3.114652,4.28168 4.652465,6.43617 -1.229468,0 -2.455035,0 -3.684501,0.004 -1.498783,-2.04911 -2.962435,-4.12165 -4.465123,-6.16686 -0.862577,0 -1.721255,0 -2.579933,0.004 -0.0039,2.05302 -0.0039,4.10604 -0.0039,6.15906 -1.053829,0 -2.111563,0 -3.165395,0 -0.0039,-5.0779 0,-10.15581 -0.0039,-15.23371 m 3.169295,2.74386 c 0,1.22167 0,2.44333 0,3.66109 1.580747,-0.0507 3.181008,0.14051 4.746142,-0.121 1.61197,-0.37079 1.654904,-2.95853 0.04684,-3.37226 -1.572943,-0.32785 -3.196621,-0.10928 -4.792981,-0.16783 z"
       id="path41"
       inkscape:connector-curvature="0"
       style="opacity:1;fill:#000000;stroke-width:0.39356923" />
    <path
       d="m 36.000001,495.79201 2.714214,0.041 7.503038,9.55305 0.0164,-9.58585 h 3.099616 l -0.0082,15.21108 -2.714214,-0.0984 -7.552238,-9.60225 -0.0082,9.66785 -3.042216,0.008 z"
       id="path3"
       inkscape:connector-curvature="0"
       style="opacity:1;fill:#030304;stroke-width:0.82000422"
       sodipodi:nodetypes="ccccccccccc" />
    <path
       d="m 56.475506,496.26761 c 5.207027,-2.77981 12.177063,1.84501 11.332458,7.76544 -0.1148,5.75643 -7.298037,9.21685 -12.004861,6.10084 -5.166027,-2.89462 -4.788825,-11.51286 0.672403,-13.86628 m 1.754809,2.52562 c -3.714619,1.4022 -3.89502,7.38004 -0.311601,9.04464 3.107816,1.73021 7.076636,-1.189 6.699434,-4.63302 0.123001,-3.18982 -3.427618,-5.74823 -6.387833,-4.41162 z"
       id="path5"
       inkscape:connector-curvature="0"
       style="opacity:1;fill:#030304;stroke-width:0.82000422" />
    <path
       d="m 84.700051,495.80021 h 12.710066 v 2.82082 l -4.780625,0.008 -0.0082,12.34926 h -3.140616 l -0.0082,-12.34926 -4.772425,-0.008 z"
       id="path9"
       inkscape:connector-curvature="0"
       style="opacity:1;fill:#030304;stroke-width:0.82000422"
       sodipodi:nodetypes="ccccccccc" />
    <path
       d="m 99.673328,495.80021 c 0.787202,0 2.353412,0 3.140612,0 -0.0246,1.89421 0.008,3.78842 0.0492,5.69083 2.23862,-0.0328 4.48543,-0.0328 6.72404,-0.0246 0.008,-1.89421 0.008,-3.78022 0.008,-5.66623 1.0414,0 2.09101,0 3.13242,0 0,5.05943 0,10.11885 0,15.17828 -1.04961,0 -2.09102,0 -3.13242,0 0,-2.21401 0,-4.41982 0,-6.63383 -2.26321,-0.008 -4.51822,-0.008 -6.77324,0 0,2.20581 -0.008,4.41982 -0.008,6.63383 -1.0414,0.008 -2.07461,0.0164 -3.107811,0.0246 -0.082,-5.06763 -0.0246,-10.13525 -0.0328,-15.20288 z"
       id="path11"
       inkscape:connector-curvature="0"
       style="opacity:1;fill:#030304;stroke-width:0.82000422" />
    <path
       d="m 148.47998,495.69361 2.96841,0.0164 6.51084,15.26028 -3.37022,0.008 -1.40221,-3.43582 -6.46163,-0.041 -1.43501,3.46042 -3.35381,0.0164 6.54363,-15.28488 m 1.44321,4.03442 -2.17301,5.12503 4.34602,0.0164 z"
       id="path15"
       inkscape:connector-curvature="0"
       style="opacity:1;fill:#030304;stroke-width:0.82000422"
       sodipodi:nodetypes="ccccccccccccc" />
    <path
       d="m 159.93544,495.80021 h 3.14061 v 12.30007 l 7.69984,0.123 -0.0574,2.76341 -10.78305,-0.008 z"
       id="path17"
       inkscape:connector-curvature="0"
       style="opacity:1;fill:#030304;stroke-width:0.82000422"
       sodipodi:nodetypes="ccccccc" />
    <path
       d="m 172.90791,495.80021 h 11.14385 v 2.82902 h -7.94584 l -0.008,2.87821 h 6.44523 v 2.77982 l -6.44523,0.008 0.0246,3.89502 h 8.17544 v 2.78801 l -11.38165,0.008 z"
       id="path19"
       inkscape:connector-curvature="0"
       style="opacity:1;fill:#030304;stroke-width:0.82000422"
       sodipodi:nodetypes="ccccccccccccc" />
    <path
       id="path38-7"
       d="m 185.99525,509.60729 v -3.21235 c 0.62852,0.5587 1.46654,1.04755 2.51409,1.39672 1.04755,0.41903 2.09508,0.5587 3.1425,0.5587 1.67607,0 2.9332,-0.62852 2.9332,-1.7459 0,-0.5587 -0.27935,-1.04754 -0.76821,-1.25704 -0.27935,-0.13968 -0.41902,-0.20951 -0.83802,-0.41903 l -0.48885,-0.13967 -1.1872,-0.34917 -1.11737,-0.34918 c -0.20951,-0.0698 -0.5587,-0.20951 -1.04755,-0.34917 -0.48885,-0.13968 -0.7682,-0.34918 -0.9777,-0.48885 -0.41902,-0.27935 -1.11737,-0.7682 -1.39672,-1.32688 -0.27935,-0.48885 -0.48885,-1.25704 -0.48885,-2.09507 0,-1.32687 0.48885,-2.37442 1.5364,-3.1425 1.04755,-0.76819 2.44425,-1.18719 4.19024,-1.18719 1.7459,0 3.4219,0.41902 4.95835,1.25704 v 3.00305 c -1.53641,-0.9777 -3.21235,-1.39673 -4.8885,-1.39673 -1.67607,0 -2.58395,0.48885 -2.58395,1.46655 0,0.48885 0.27935,0.7682 0.76821,1.04755 0.27934,0.13967 0.83802,0.34917 1.25704,0.48885 0.41903,0.13967 1.1872,0.34917 1.67605,0.48885 1.46655,0.48885 2.30459,0.83802 3.28219,1.60622 1.04755,0.69835 1.5364,1.7459 1.5364,3.1425 0,1.46655 -0.5587,2.58394 -1.67604,3.42189 -1.11738,0.83803 -2.58395,1.25705 -4.32995,1.25705 -2.51409,-0.0698 -4.39954,-0.62852 -6.00584,-1.67607"
       style="fill:#000000;stroke-width:0.2433781"
       inkscape:connector-curvature="0" />
    <path
       id="path20-8"
       d="m 139.39792,495.78361 h 3.41103 l -5.17164,15.29451 h -2.75082 l -3.30098,-10.12288 -3.41102,10.12288 h -2.75082 l -5.06164,-15.29451 h 3.41103 l 3.19098,10.23326 3.41103,-10.23326 h 2.42073 l 3.41103,10.23326 z"
       style="fill:#000000;stroke-width:0.38328272"
       inkscape:connector-curvature="0" />
  </g>
</svg>
