<svg height="269.99" viewBox="0 0 158.75 71.435514" width="600" xmlns="http://www.w3.org/2000/svg"><path d="m148.691 57.04h2.9011v11.512h7.1575v2.6023h-10.059zm-5.5859 7.0544c0-2.6589-1.8757-4.6171-4.3543-4.6171s-4.3543 1.9581-4.3543 4.6171c0 2.6641 1.8757 4.6171 4.3543 4.6171s4.3543-1.953 4.3543-4.6171m-11.672 0c0-4.0709 3.0815-7.3379 7.3173-7.3379 4.2306 0 7.3173 3.267 7.3173 7.3379 0 4.0554-3.0866 7.3379-7.3173 7.3379-4.2358 0-7.3173-3.2825-7.3173-7.3379m-5.1015 0c0-2.6589-1.8757-4.6171-4.3543-4.6171-2.4838 0-4.3543 1.9581-4.3543 4.6171 0 2.6641 1.8705 4.6171 4.3543 4.6171 2.4786 0 4.3543-1.953 4.3543-4.6171m-11.677 0c0-4.0709 3.0866-7.3379 7.3224-7.3379 4.2306 0 7.3172 3.267 7.3172 7.3379 0 4.0554-3.0866 7.3379-7.3172 7.3379-4.2358 0-7.3224-3.2825-7.3224-7.3379m-6.8329-1.0048c1.3707 0 2.2158-.62866 2.2158-1.7572 0-1.1491-.84509-1.752-2.2158-1.752h-3.066v3.5092zm-5.9672-6.0496h6.1681c3.0866 0 4.9211 1.7726 4.9211 4.2564 0 2.4786-1.8345 4.2718-4.9211 4.2718h-3.267v5.5858h-2.9011zm-8.3479 5.9672c1.3089 0 2.0973-.6029 2.0973-1.7108 0-1.0924-.7884-1.716-2.0973-1.716h-3.468v3.4267zm-6.3691-5.9672h6.5289c3.0454 0 4.8593 1.752 4.8593 4.1739 0 1.8551-1.0667 3.3443-2.9218 3.9111l4.3543 6.029h-3.3701l-4.1121-5.7095h-2.4374v5.7095h-2.9012zm-12.908 0h10.363v2.6023h-7.4564v2.7208h6.0084v2.561h-6.0084v3.6277h7.678v2.6023h-10.584zm-16.51 0h3.2052l4.1121 10.162 4.1327-10.162h3.1433l-5.926 14.191h-2.7414zm-4.9005 0h2.8805v14.114h-2.8805zm-12.259 0h2.9063v11.512h7.1575v2.6023h-10.064z"/><path d="m10.666 57.23h1.4119l8.7292 11.27v-11.27h1.5923v14.109h-1.3913l-8.7498-11.306v11.306h-1.5923zm-10.667 0h1.6335v14.109h-1.6335z"/><g fill="#2face3" transform="translate(-66.359 -102.46)"><path d="m177.86 102.46h14.47v10.218s-4.648-8.2293-14.47-10.218"/><path d="m192.32 139.49v10.218h-14.47c9.8216-1.9891 14.47-10.218 14.47-10.218"/><path d="m174.19 149.71h18.139v-11.228s-4.5037 9.6258-18.139 11.228"/></g><path d="m95.301 38.09h10.883s11.151-.92754 11.945-11.816c.40194-4.38-.2628-6.7659-.2628-6.7659s-1.0615-9.4248-12.609-10.883c-4.7768 0-9.9556.12883-9.9556.12883z" fill="#2f358b"/><path d="m136.321 18.71h22.431v-10.352h-22.431z" fill="#ea5b2d"/><path d="m136.451 38.22h22.297v-10.352h-22.297z" fill="#c01e2f"/><path d="m84.681 0h-17.917l17.917 41.858z" fill="#016839"/><path d="m38.091 0h17.917l-17.917 41.858z" fill="#016839"/><path d="m71.941 36.76h-21.107l-4.1945 10.486h29.496z" fill="#abcd71"/><path d="m61.391 10.77-6.4361 16.438h12.873z" fill="#d3d92e"/><path d="m .001 16.06v31.191h27.476v-31.191l-13.805 20.973z" fill="#8a3188"/><path d="m1.364 0 12.439 19.643 12.527-19.643z" fill="#da1d5d"/></svg>