<?xml version="1.0" encoding="UTF-8"?>
<!-- Created with Inkscape (http://www.inkscape.org/) -->
<svg id="svg2" width="600" height="685.18" version="1.1" xmlns="http://www.w3.org/2000/svg" xmlns:cc="http://creativecommons.org/ns#" xmlns:dc="http://purl.org/dc/elements/1.1/" xmlns:rdf="http://www.w3.org/1999/02/22-rdf-syntax-ns#">
 <metadata id="metadata6">
  <rdf:RDF>
   <cc:Work rdf:about="">
    <dc:format>image/svg+xml</dc:format>
    <dc:type rdf:resource="http://purl.org/dc/dcmitype/StillImage"/>
    <dc:title/>
   </cc:Work>
  </rdf:RDF>
 </metadata>
 <path id="path10" d="m350.43 503.66c0 3.484 2.815 6.3053 6.3116 6.3053 1.6662 0 3.181-0.63747 4.3171-1.7041l147.21-147.21c1.054-1.1172 1.6915-2.6382 1.6915-4.3171 0-3.484-2.8276-6.3053-6.3053-6.3053h0.0316-138.05c-8.3691 0-15.205 6.8354-15.205 15.198v135.93 2.1081z" fill="#7abf2b"/>
 <path id="path12" d="m518.91 365.66c0-3.484-2.8276-6.3053-6.3242-6.3053-1.6663 0-3.1242 0.65009-4.2477 1.7041l-147.27 147.21c-1.0604 1.1298-1.7168 2.6509-1.7168 4.3171 0 3.484 2.8402 6.3179 6.3242 6.3179h138.02c8.3755 0 15.217-6.8417 15.217-15.217v-138.03z" fill="#00a8e0"/>
 <path id="path14" d="m350.43 678.91v-0.0379c0 3.484 2.815 6.3053 6.3116 6.3053 1.6662 0 3.181-0.63747 4.3171-1.7041l0.11992-0.11361 146.98-146.96 0.11361-0.13254c1.054-1.1108 1.6915-2.6382 1.6915-4.3171 0-3.4777-2.8276-6.2989-6.3053-6.2989h0.0316-138.05c-8.3691 0-15.205 6.8354-15.205 15.192v138.06 0.0126z" fill="#ff0376"/>
 <path id="path16" d="m350.43 153.23c0 3.484 2.815 6.3053 6.3116 6.3053 1.6662 0 3.181-0.63747 4.3171-1.7041l147.21-147.22c1.054-1.1172 1.6915-2.6382 1.6915-4.3171 0-3.484-2.8276-6.299-6.3053-6.299h-138.02c-8.3691 0-15.205 6.8292-15.205 15.192v138.03z" fill="#ff7c7c"/>
 <path id="path18" d="m518.91 15.23c0-3.484-2.8276-6.3053-6.3242-6.3053-1.6663 0-3.1937 0.65009-4.3171 1.7041l-147.2 147.22c-1.0604 1.1298-1.7168 2.6509-1.7168 4.3171 0 3.484 2.8402 6.3179 6.3242 6.3179h138.02c8.3755 0 15.217-6.8417 15.217-15.217v-138.03z" fill="#ba195d"/>
 <path id="path20" d="m5.8e-4 503.62c0 3.484 2.815 6.3053 6.3116 6.3053 1.6662 0 3.181-0.63747 4.3171-1.7041l147.21-147.21c1.054-1.1172 1.6915-2.6382 1.6915-4.3171 0-3.4777-2.8276-6.2989-6.3053-6.2989h-138.02c-8.3691 0-15.205 6.8354-15.205 15.192v138.03z" fill="#ff3226"/>
 <path id="path22" d="m168.48 365.63c0-3.484-2.8276-6.3053-6.3242-6.3053-1.6663 0-3.1937 0.65009-4.3171 1.7041l-147.21 147.22c-1.0603 1.1298-1.7167 2.6509-1.7167 4.3171 0 3.484 2.8402 6.3179 6.3242 6.3179h138.02c8.3755 0 15.217-6.8354 15.217-15.217v-138.03z" fill="#ff91ae"/>
 <path id="path24" d="m175.22 503.66c0 3.484 2.815 6.3053 6.3116 6.3053 1.6663 0 3.181-0.63747 4.3171-1.7041l147.22-147.22c1.054-1.1172 1.6915-2.6382 1.6915-4.3171 0-3.4777-2.8276-6.2989-6.3053-6.2989h-138.02c-8.3691 0-15.205 6.8354-15.205 15.192v138.03z" fill="#0082b7"/>
 <path id="path26" d="m343.69 365.66c0-3.484-2.8276-6.3053-6.3242-6.3053-1.6663 0-3.1937 0.65009-4.3171 1.7041l-147.2 147.21c-1.0603 1.1298-1.7167 2.6509-1.7167 4.3171 0 3.484 2.8402 6.3179 6.3242 6.3179h138.02c8.3692 0 15.217-6.8354 15.217-15.217v-138.03z" fill="#7accb3"/>
 <path id="path28" d="m343.58 15.23c0-3.484-2.8276-6.3053-6.3242-6.3053-1.6663 0-3.1937 0.65009-4.3171 1.7041l-147.21 147.22c-1.0603 1.1298-1.7167 2.6509-1.7167 4.3171 0 3.484 2.8402 6.3179 6.3242 6.3179h138.02c8.3755 0 15.217-6.8417 15.217-15.217v-138.03z" fill="#959583"/>
 <path id="path30" d="m350.43 328.44c0 3.484 2.815 6.3053 6.3116 6.3053 1.6662 0 3.181-0.63747 4.3171-1.7041l147.21-147.21c1.054-1.1172 1.6915-2.6382 1.6915-4.3171 0-3.4777-2.8276-6.2989-6.3053-6.2989h-138.02c-8.3691 0-15.205 6.8354-15.205 15.192v138.03z" fill="#261f5d"/>
 <path id="path32" d="m518.91 190.45c0-3.484-2.8276-6.3053-6.3242-6.3053-1.6663 0-3.1937 0.65009-4.3171 1.7041l-147.2 147.21c-1.0604 1.1298-1.7168 2.6509-1.7168 4.3171 0 3.484 2.8402 6.3179 6.3242 6.3179h138.02c8.3755 0 15.217-6.8354 15.217-15.217v-138.03z" fill="#ffd700"/>
 <path id="path34" d="m168.24 190.45c0-3.484-2.8276-6.3053-6.3242-6.3053-1.6663 0-3.1937 0.65009-4.3171 1.7041l-147.2 147.21c-1.0603 1.1298-1.7168 2.6509-1.7168 4.3171 0 3.484 2.8402 6.3179 6.3242 6.3179h138.02c8.3755 0 15.217-6.8354 15.217-15.217v-138.03z" fill="#ff9000"/>
 <path id="path36" d="m175.22 328.44c0 3.484 2.815 6.3053 6.3116 6.3053 1.6663 0 3.181-0.63747 4.3171-1.7041l147.22-147.22c1.054-1.1172 1.6915-2.6382 1.6915-4.3171 0-3.4777-2.8276-6.2989-6.3053-6.2989h-138.02c-8.3691 0-15.205 6.8354-15.205 15.192v138.03z" fill="#00b12e"/>
 <path id="path38" d="m343.69 190.45c0-3.484-2.8276-6.3053-6.3242-6.3053-1.6663 0-3.1937 0.65009-4.3171 1.7041l-147.2 147.21c-1.0603 1.1298-1.7167 2.6509-1.7167 4.3171 0 3.484 2.8402 6.3179 6.3242 6.3179h138.02c8.3692 0 15.217-6.8354 15.217-15.217v-138.03z" fill="#69b8e4"/>
 <path id="path40" d="m464.46 428-0.60591-0.60591c-0.26509-0.17041-0.57435-0.27771-0.90256-0.29664l-19.212-6e-3c-1.0162-0.0505-1.824-0.88362-1.8367-1.9124l-0.0252-19.036h-0.0126c0-0.385-0.11361-0.74476-0.30927-1.0477l-0.56173-0.55542c-0.2714-0.18303-0.59329-0.29033-0.94042-0.30926h-10.799c-0.32189 0.0189-0.62485 0.11992-0.88362 0.2777l-0.61853 0.61854c-0.17042 0.2714-0.28402 0.58697-0.29665 0.9278l-0.0189 19.092c-0.0126 1.0288-0.83313 1.8935-1.8493 1.944l-19.08 6e-3v0.0126c-0.38501 0-0.74476 0.11361-1.0477 0.30927l-0.56173 0.56173c-0.19566 0.29664-0.30927 0.64378-0.31558 1.0288v10.622c6e-3 0.37239 0.11992 0.71952 0.30927 1.0099l0.55542 0.5491c0.27771 0.18935 0.61222 0.30927 0.97198 0.3282l14.037-0.0126h5.1692c1.0162 0.0568 1.824 0.88362 1.8367 1.9124l-6e-3 19.048h0.0189c0 0.41025 0.13254 0.79525 0.35345 1.1108l0.46074 0.46075c0.30927 0.21459 0.68796 0.35344 1.1045 0.35344h10.578c0.385 0 0.73845-0.11991 1.0351-0.31557l0.54911-0.54911c0.18935-0.27771 0.30927-0.61222 0.3282-0.97198v-19.187c0.0505-1.0162 0.88362-1.824 1.9061-1.8367l19.036-0.0126v-0.0189c0.42919 0 0.8142-0.13886 1.1361-0.37238l0.42287-0.42288c0.22722-0.31558 0.36607-0.70058 0.37238-1.1235v-10.578c-6e-3 -0.37238-0.1136-0.71321-0.29664-1.0035" fill="#fff"/>
 <path id="path42" d="m599.98 398.24v-3.8627c-0.0126-1.1172-0.83944-2.026-1.9061-2.1964h-13.721s-1.2308 0.0253-2.4047 1.2055c-0.9278 0.9278-16.852 16.846-16.852 16.846v2.4931h0.0126v8.4891c0.0126 1.2497 1.0098 2.2469 2.2532 2.2469v0.0126h4.9546s8.7857-8.7794 9.6314-9.6252c0.84575-0.85206 1.1992 0 1.1992 0v41.221l0.0126 6e-3v19.118h0.0126c0 1.1676 0.88362 2.1081 2.0197 2.228h12.8c1.0919-0.11992 1.9503-1.0098 2.0071-2.1144v-19.332-56.735h-0.0189z" fill="#959583"/>
</svg>
