<svg height="685.18" width="600" xmlns="http://www.w3.org/2000/svg"><path d="m350.43058 503.6601c0 3.484 2.815 6.3053 6.3116 6.3053 1.6662 0 3.181-.63747 4.3171-1.7041l147.21-147.21c1.054-1.1172 1.6915-2.6382 1.6915-4.3171 0-3.484-2.8276-6.3053-6.3053-6.3053h.0316-138.05c-8.3691 0-15.205 6.8354-15.205 15.198v135.93 2.1081z" fill="#7abf2b"/><path d="m518.91058 365.6601c0-3.484-2.8276-6.3053-6.3242-6.3053-1.6663 0-3.1242.65009-4.2477 1.7041l-147.27 147.21c-1.0604 1.1298-1.7168 2.6509-1.7168 4.3171 0 3.484 2.8402 6.3179 6.3242 6.3179h138.02c8.3755 0 15.217-6.8417 15.217-15.217v-138.03z" fill="#00a8e0"/><path d="m350.43058 678.9101v-.0379c0 3.484 2.815 6.3053 6.3116 6.3053 1.6662 0 3.181-.63747 4.3171-1.7041l.11992-.11361 146.98-146.96.11361-.13254c1.054-1.1108 1.6915-2.6382 1.6915-4.3171 0-3.4777-2.8276-6.2989-6.3053-6.2989h.0316-138.05c-8.3691 0-15.205 6.8354-15.205 15.192v138.06.0126z" fill="#ff0376"/><path d="m350.43058 153.2301c0 3.484 2.815 6.3053 6.3116 6.3053 1.6662 0 3.181-.63747 4.3171-1.7041l147.21-147.22c1.054-1.1172 1.6915-2.6382 1.6915-4.3171 0-3.484-2.8276-6.299-6.3053-6.299h-138.02c-8.3691 0-15.205 6.8292-15.205 15.192v138.03z" fill="#ff7c7c"/><path d="m518.91058 15.2301c0-3.484-2.8276-6.3053-6.3242-6.3053-1.6663 0-3.1937.65009-4.3171 1.7041l-147.2 147.22c-1.0604 1.1298-1.7168 2.6509-1.7168 4.3171 0 3.484 2.8402 6.3179 6.3242 6.3179h138.02c8.3755 0 15.217-6.8417 15.217-15.217v-138.03z" fill="#ba195d"/><path d="m .00058 503.6201c0 3.484 2.815 6.3053 6.3116 6.3053 1.6662 0 3.181-.63747 4.3171-1.7041l147.21-147.21c1.054-1.1172 1.6915-2.6382 1.6915-4.3171 0-3.4777-2.8276-6.2989-6.3053-6.2989h-138.02c-8.3691 0-15.205 6.8354-15.205 15.192v138.03z" fill="#ff3226"/><path d="m168.47858 365.6301c0-3.484-2.8276-6.3053-6.3242-6.3053-1.6663 0-3.1937.65009-4.3171 1.7041l-147.21 147.22c-1.0603 1.1298-1.7167 2.6509-1.7167 4.3171 0 3.484 2.8402 6.3179 6.3242 6.3179h138.02c8.3755 0 15.217-6.8354 15.217-15.217v-138.03z" fill="#ff91ae"/><path d="m175.21658 503.6601c0 3.484 2.815 6.3053 6.3116 6.3053 1.6663 0 3.181-.63747 4.3171-1.7041l147.22-147.22c1.054-1.1172 1.6915-2.6382 1.6915-4.3171 0-3.4777-2.8276-6.2989-6.3053-6.2989h-138.02c-8.3691 0-15.205 6.8354-15.205 15.192v138.03z" fill="#0082b7"/><path d="m343.69058 365.6601c0-3.484-2.8276-6.3053-6.3242-6.3053-1.6663 0-3.1937.65009-4.3171 1.7041l-147.2 147.21c-1.0603 1.1298-1.7167 2.6509-1.7167 4.3171 0 3.484 2.8402 6.3179 6.3242 6.3179h138.02c8.3692 0 15.217-6.8354 15.217-15.217v-138.03z" fill="#7accb3"/><path d="m343.58058 15.2301c0-3.484-2.8276-6.3053-6.3242-6.3053-1.6663 0-3.1937.65009-4.3171 1.7041l-147.21 147.22c-1.0603 1.1298-1.7167 2.6509-1.7167 4.3171 0 3.484 2.8402 6.3179 6.3242 6.3179h138.02c8.3755 0 15.217-6.8417 15.217-15.217v-138.03z" fill="#959583"/><path d="m350.43058 328.4401c0 3.484 2.815 6.3053 6.3116 6.3053 1.6662 0 3.181-.63747 4.3171-1.7041l147.21-147.21c1.054-1.1172 1.6915-2.6382 1.6915-4.3171 0-3.4777-2.8276-6.2989-6.3053-6.2989h-138.02c-8.3691 0-15.205 6.8354-15.205 15.192v138.03z" fill="#261f5d"/><path d="m518.91058 190.4501c0-3.484-2.8276-6.3053-6.3242-6.3053-1.6663 0-3.1937.65009-4.3171 1.7041l-147.2 147.21c-1.0604 1.1298-1.7168 2.6509-1.7168 4.3171 0 3.484 2.8402 6.3179 6.3242 6.3179h138.02c8.3755 0 15.217-6.8354 15.217-15.217v-138.03z" fill="#ffd700"/><path d="m168.24358 190.4501c0-3.484-2.8276-6.3053-6.3242-6.3053-1.6663 0-3.1937.65009-4.3171 1.7041l-147.2 147.21c-1.0603 1.1298-1.7168 2.6509-1.7168 4.3171 0 3.484 2.8402 6.3179 6.3242 6.3179h138.02c8.3755 0 15.217-6.8354 15.217-15.217v-138.03z" fill="#ff9000"/><path d="m175.21658 328.4401c0 3.484 2.815 6.3053 6.3116 6.3053 1.6663 0 3.181-.63747 4.3171-1.7041l147.22-147.22c1.054-1.1172 1.6915-2.6382 1.6915-4.3171 0-3.4777-2.8276-6.2989-6.3053-6.2989h-138.02c-8.3691 0-15.205 6.8354-15.205 15.192v138.03z" fill="#00b12e"/><path d="m343.69058 190.4501c0-3.484-2.8276-6.3053-6.3242-6.3053-1.6663 0-3.1937.65009-4.3171 1.7041l-147.2 147.21c-1.0603 1.1298-1.7167 2.6509-1.7167 4.3171 0 3.484 2.8402 6.3179 6.3242 6.3179h138.02c8.3692 0 15.217-6.8354 15.217-15.217v-138.03z" fill="#69b8e4"/><path d="m464.46058 428.0001-.60591-.60591c-.26509-.17041-.57435-.27771-.90256-.29664l-19.212-.006c-1.0162-.0505-1.824-.88362-1.8367-1.9124l-.0252-19.036h-.0126c0-.385-.11361-.74476-.30927-1.0477l-.56173-.55542c-.2714-.18303-.59329-.29033-.94042-.30926h-10.799c-.32189.0189-.62485.11992-.88362.2777l-.61853.61854c-.17042.2714-.28402.58697-.29665.9278l-.0189 19.092c-.0126 1.0288-.83313 1.8935-1.8493 1.944l-19.08.006v.0126c-.38501 0-.74476.11361-1.0477.30927l-.56173.56173c-.19566.29664-.30927.64378-.31558 1.0288v10.622c.006.37239.11992.71952.30927 1.0099l.55542.5491c.27771.18935.61222.30927.97198.3282l14.037-.0126h5.1692c1.0162.0568 1.824.88362 1.8367 1.9124l-.006 19.048h.0189c0 .41025.13254.79525.35345 1.1108l.46074.46075c.30927.21459.68796.35344 1.1045.35344h10.578c.385 0 .73845-.11991 1.0351-.31557l.54911-.54911c.18935-.27771.30927-.61222.3282-.97198v-19.187c.0505-1.0162.88362-1.824 1.9061-1.8367l19.036-.0126v-.0189c.42919 0 .8142-.13886 1.1361-.37238l.42287-.42288c.22722-.31558.36607-.70058.37238-1.1235v-10.578c-.006-.37238-.1136-.71321-.29664-1.0035" fill="#fff"/><path d="m599.98058 398.2401v-3.8627c-.0126-1.1172-.83944-2.026-1.9061-2.1964h-13.721s-1.2308.0253-2.4047 1.2055c-.9278.9278-16.852 16.846-16.852 16.846v2.4931h.0126v8.4891c.0126 1.2497 1.0098 2.2469 2.2532 2.2469v.0126h4.9546s8.7857-8.7794 9.6314-9.6252c.84575-.85206 1.1992 0 1.1992 0v41.221l.0126.006v19.118h.0126c0 1.1676.88362 2.1081 2.0197 2.228h12.8c1.0919-.11992 1.9503-1.0098 2.0071-2.1144v-19.332-56.735h-.0189z" fill="#959583"/></svg>