<?xml version="1.0" encoding="UTF-8" standalone="no"?>
<!-- Created with Inkscape (http://www.inkscape.org/) -->

<svg
   xmlns:dc="http://purl.org/dc/elements/1.1/"
   xmlns:cc="http://creativecommons.org/ns#"
   xmlns:rdf="http://www.w3.org/1999/02/22-rdf-syntax-ns#"
   xmlns:svg="http://www.w3.org/2000/svg"
   xmlns="http://www.w3.org/2000/svg"
   xmlns:sodipodi="http://sodipodi.sourceforge.net/DTD/sodipodi-0.dtd"
   xmlns:inkscape="http://www.inkscape.org/namespaces/inkscape"
   height="659.1"
   width="600"
   version="1.1"
   id="svg2"
   inkscape:version="0.91 r13725"
   sodipodi:docname="More4 - Dark.svg">
  <sodipodi:namedview
     pagecolor="#ffffff"
     bordercolor="#666666"
     borderopacity="1"
     objecttolerance="10"
     gridtolerance="10"
     guidetolerance="10"
     inkscape:pageopacity="0"
     inkscape:pageshadow="2"
     inkscape:window-width="1920"
     inkscape:window-height="1017"
     id="namedview48"
     showgrid="false"
     inkscape:zoom="0.71612808"
     inkscape:cx="-203.27636"
     inkscape:cy="367.24396"
     inkscape:window-x="-8"
     inkscape:window-y="-8"
     inkscape:window-maximized="1"
     inkscape:current-layer="svg2" />
  <defs
     id="defs4" />
  <metadata
     id="metadata6">
    <rdf:RDF>
      <cc:Work
         rdf:about="">
        <dc:format>image/svg+xml</dc:format>
        <dc:type
           rdf:resource="http://purl.org/dc/dcmitype/StillImage" />
        <dc:title />
      </cc:Work>
    </rdf:RDF>
  </metadata>
  <path
     style="fill:#7abf2b;fill-rule:nonzero"
     inkscape:connector-curvature="0"
     id="path10"
     d="m 337.09495,484.4896 c 0,3.349 2.7108,6.0598 6.072,6.0598 1.6046,0 3.0573,-0.60781 4.1513,-1.635 l 141.61,-141.61 c 1.015,-1.0758 1.635,-2.5406 1.635,-4.1513 0,-3.349 -2.723,-6.0659 -6.072,-6.0659 l 0.0365,0 -132.81,0 c -8.0534,0 -14.624,6.5765 -14.624,14.618 l 0,130.75 0,2.0301 z" />
  <path
     style="fill:#00a8e0;fill-rule:nonzero"
     inkscape:connector-curvature="0"
     id="path12"
     d="m 499.15765,351.7496 c 0,-3.3551 -2.723,-6.0659 -6.0841,-6.0659 -1.5985,0 -3.0026,0.62604 -4.0845,1.635 l -141.67,141.61 c -1.0211,1.088 -1.6532,2.5528 -1.6532,4.1513 0,3.3551 2.7351,6.078 6.0841,6.078 l 132.76,0 c 8.0595,0 14.642,-6.5764 14.642,-14.636 l 0,-132.78 z" />
  <path
     style="fill:#ff0376;fill-rule:nonzero"
     inkscape:connector-curvature="0"
     id="path14"
     d="m 337.09495,653.0796 0,-0.0304 c 0,3.349 2.7108,6.0598 6.072,6.0598 1.6046,0 3.0573,-0.61388 4.1513,-1.6411 l 0.12156,-0.10941 141.38,-141.37 0.10333,-0.12764 c 1.015,-1.0697 1.635,-2.5345 1.635,-4.1513 0,-3.349 -2.723,-6.0598 -6.072,-6.0598 l 0.0365,0 -132.81,0 c -8.0534,0 -14.624,6.5704 -14.624,14.612 l 0,132.81 0,0.0122 z" />
  <path
     style="fill:#ff7c7c;fill-rule:nonzero"
     inkscape:connector-curvature="0"
     id="path16"
     d="m 337.09495,147.3996 c 0,3.349 2.7108,6.0598 6.072,6.0598 1.6046,0 3.0573,-0.60781 4.1513,-1.635 l 141.61,-141.6 c 1.015,-1.0758 1.635,-2.5406 1.635,-4.1513 0,-3.349 -2.723,-6.0659 -6.072,-6.0659 l -132.77,0 c -8.0534,0 -14.624,6.5765 -14.624,14.618 l 0,132.78 z" />
  <path
     style="fill:#ba195d;fill-rule:nonzero"
     inkscape:connector-curvature="0"
     id="path18"
     d="m 499.15765,14.6196 c 0,-3.3551 -2.723,-6.0659 -6.0841,-6.0659 -1.5985,0 -3.0694,0.626 -4.1513,1.635 l -141.6,141.72 c -1.0211,1.088 -1.6532,2.5528 -1.6532,4.1513 0,3.3551 2.7351,6.078 6.0841,6.078 l 132.76,0 c 8.0595,0 14.642,-6.5764 14.642,-14.636 l 0,-132.78 z" />
  <path
     style="fill:#ff3226;fill-rule:nonzero"
     inkscape:connector-curvature="0"
     id="path20"
     d="m -0.00235,484.4596 c 0,3.349 2.7108,6.0659 6.072,6.0659 1.6046,0 3.0573,-0.61389 4.1513,-1.6411 l 141.61,-141.61 c 1.015,-1.0758 1.635,-2.5406 1.635,-4.1513 0,-3.349 -2.723,-6.0659 -6.072,-6.0659 l -132.77,0 c -8.0534,0 -14.624,6.5765 -14.624,14.618 l 0,132.78 z" />
  <path
     style="fill:#ff91ae;fill-rule:nonzero"
     inkscape:connector-curvature="0"
     id="path22"
     d="m 162.06765,351.7096 c 0,-3.3551 -2.723,-6.0659 -6.0841,-6.0659 -1.5985,0 -3.0694,0.62604 -4.1513,1.635 l -141.6,141.61 c -1.0211,1.088 -1.6532,2.5528 -1.6532,4.1513 0,3.3551 2.7351,6.078 6.0841,6.078 l 132.76,0 c 8.0595,0 14.642,-6.5764 14.642,-14.636 l 0,-132.78 z" />
  <path
     style="fill:#0082b7;fill-rule:nonzero"
     inkscape:connector-curvature="0"
     id="path24"
     d="m 168.54765,484.4896 c 0,3.349 2.7047,6.0659 6.072,6.0659 1.5985,0 3.0573,-0.61389 4.1513,-1.6411 l 141.61,-141.61 c 1.015,-1.0758 1.635,-2.5406 1.635,-4.1513 0,-3.349 -2.723,-6.0659 -6.072,-6.0659 l -132.77,0 c -8.0534,0 -14.624,6.5765 -14.624,14.618 l 0,132.78 z" />
  <path
     style="fill:#7accb3;fill-rule:nonzero"
     inkscape:connector-curvature="0"
     id="path26"
     d="m 330.61565,351.7496 c 0,-3.3551 -2.723,-6.0659 -6.0841,-6.0659 -1.5985,0 -3.0694,0.62604 -4.1513,1.635 l -141.6,141.61 c -1.0211,1.088 -1.6532,2.5528 -1.6532,4.1513 0,3.3551 2.7351,6.078 6.0841,6.078 l 132.76,0 c 8.0595,0 14.642,-6.5764 14.642,-14.636 l 0,-132.78 z" />
  <path
     style="fill:#959583;fill-rule:nonzero"
     inkscape:connector-curvature="0"
     id="path28"
     d="m 330.50165,14.6196 c 0,-3.3551 -2.723,-6.0659 -6.0841,-6.0659 -1.5985,0 -3.0694,0.626 -4.1513,1.635 l -141.6,141.61 c -1.0211,1.088 -1.6532,2.5528 -1.6532,4.1513 0,3.3551 2.7351,6.078 6.0841,6.078 l 132.76,0 c 8.0595,0 14.642,-6.5764 14.642,-14.636 l 0,-132.78 z" />
  <path
     style="fill:#261f5d;fill-rule:nonzero"
     inkscape:connector-curvature="0"
     id="path30"
     d="m 337.09495,315.9496 c 0,3.349 2.7108,6.0659 6.072,6.0659 1.6046,0 3.0573,-0.61389 4.1513,-1.6411 l 141.61,-141.61 c 1.015,-1.0758 1.635,-2.5406 1.635,-4.1513 0,-3.349 -2.723,-6.0659 -6.072,-6.0659 l -132.77,0 c -8.0534,0 -14.624,6.5765 -14.624,14.618 l 0,132.78 z" />
  <path
     style="fill:#ffd700;fill-rule:nonzero"
     inkscape:connector-curvature="0"
     id="path32"
     d="m 499.15765,183.1996 c 0,-3.3551 -2.723,-6.0659 -6.0841,-6.0659 -1.5985,0 -3.0694,0.62604 -4.1513,1.635 l -141.6,141.63 c -1.0211,1.088 -1.6532,2.5467 -1.6532,4.1513 0,3.3551 2.7351,6.078 6.0841,6.078 l 132.76,0 c 8.0595,0 14.642,-6.5764 14.642,-14.636 l 0,-132.78 z" />
  <path
     style="fill:#ff9000;fill-rule:nonzero"
     inkscape:connector-curvature="0"
     id="path34"
     d="m 161.83765,183.1996 c 0,-3.3551 -2.723,-6.0659 -6.0841,-6.0659 -1.5985,0 -3.0694,0.62604 -4.1513,1.635 l -141.6,141.61 c -1.0211,1.088 -1.6532,2.5467 -1.6532,4.1513 0,3.3551 2.7351,6.078 6.0841,6.078 l 132.76,0 c 8.0595,0 14.642,-6.5764 14.642,-14.636 l 0,-132.78 z" />
  <path
     style="fill:#00b12e;fill-rule:nonzero"
     inkscape:connector-curvature="0"
     id="path36"
     d="m 168.54765,315.9496 c 0,3.349 2.7047,6.0659 6.072,6.0659 1.5985,0 3.0573,-0.61389 4.1513,-1.6411 l 141.61,-141.61 c 1.015,-1.0758 1.635,-2.5406 1.635,-4.1513 0,-3.349 -2.723,-6.0659 -6.072,-6.0659 l -132.77,0 c -8.0534,0 -14.624,6.5765 -14.624,14.618 l 0,132.78 z" />
  <path
     style="fill:#69b8e4;fill-rule:nonzero"
     inkscape:connector-curvature="0"
     id="path38"
     d="m 330.61565,183.1996 c 0,-3.3551 -2.723,-6.0659 -6.0841,-6.0659 -1.5985,0 -3.0694,0.62604 -4.1513,1.635 l -141.6,141.61 c -1.0211,1.088 -1.6532,2.5467 -1.6532,4.1513 0,3.3551 2.7351,6.078 6.0841,6.078 l 132.76,0 c 8.0595,0 14.642,-6.5764 14.642,-14.636 l 0,-132.78 z" />
  <path
     style="fill:#ffffff;fill-rule:nonzero;fill-opacity:1"
     inkscape:connector-curvature="0"
     id="path40"
     d="m 249.58865,459.7996 c -24.318,0 -39.355,-17.359 -39.355,-41.665 0,-24.3 15.037,-41.671 39.355,-41.671 24.3,0 39.343,17.371 39.343,41.671 0,24.306 -15.043,41.665 -39.343,41.665 m 0,-69.436 c -15.049,0 -23.157,11.579 -23.157,27.771 0,16.21 8.1081,27.795 23.157,27.795 15.031,0 23.151,-11.585 23.151,-27.795 0,-16.192 -8.1203,-27.771 -23.151,-27.771" />
  <path
     style="fill:#959583;fill-rule:nonzero"
     inkscape:connector-curvature="0"
     id="path42"
     d="m 599.99765,456.4996 0,-9.8829 c -0.11548,-0.94817 -0.82662,-1.6958 -1.7626,-1.8538 l -36.645,0 c -1.1488,-0.0243 -2.0848,-0.95426 -2.1152,-2.1152 l 0,-16.63 c 0.0365,-1.1488 0.97857,-2.0848 2.1395,-2.0969 l 34.061,0 c 1.1184,-0.079 1.9936,-1.015 1.9936,-2.1456 l 0,-9.7796 c -0.0912,-1.088 -1.009,-1.9511 -2.1395,-1.9511 l 0,-0.0182 -33.885,0 0,-0.0243 c -1.1974,0 -2.1699,-0.96641 -2.1699,-2.1516 l 0,-14.186 c 0,-1.1731 0.92994,-2.103 2.0787,-2.1577 l 36.42,0 c 1.1244,-0.079 2.0118,-0.9968 2.0118,-2.1395 l 0.0122,0 0,-9.8586 c -0.12764,-1.0515 -1.0333,-1.8781 -2.1273,-1.8781 l 0,-0.0182 -52.472,0 c -1.1548,0.0304 -2.0969,0.94818 -2.1273,2.1091 l 0,76.821 c 0.0304,1.1731 0.98464,2.103 2.1516,2.103 l 52.423,0 c 1.1791,0 2.1456,-0.96033 2.1516,-2.1456" />
  <path
     style="fill:#ffffff;fill-rule:nonzero;fill-opacity:1"
     inkscape:connector-curvature="0"
     id="path44"
     d="m 448.93765,445.3096 -14.599,-19.103 c 0,0 -0.389,-0.44978 -0.389,-0.66859 0,-0.3039 0.21881,-0.43154 0.5531,-0.5531 l 0.12156,-0.0122 c 9.1171,-2.4069 17.043,-10.448 17.043,-23.024 0,-16.186 -11.554,-24.27 -27.728,-24.27 l -11.159,-0.0669 -26.136,0 c -1.1366,0.0486 -2.0605,0.98464 -2.0605,2.1273 l 0,76.742 0.0182,0 c 0,1.1913 0.95426,2.1516 2.1577,2.1638 l 11.883,0 c 1.1488,-0.0122 2.0848,-0.92386 2.1395,-2.0605 l 0,-28.202 c 0,-1.1913 0.97249,-2.1577 2.1699,-2.1577 0,0 9.5122,-0.0182 10.582,-0.0182 1.3919,0 2.3157,1.1548 2.3157,1.1548 l 23.115,30.044 c 0,0 0.26743,0.43154 1.0393,0.84485 0.5531,0.29782 1.2703,0.31606 1.2703,0.31606 l 5.9383,0 -0.006,-0.006 c 1.1548,-0.006 2.0848,-0.90563 2.1456,-2.0422 l 0.006,0 0,-10.272 c 0,0 0.0182,0.14587 0,-0.16411 -0.0182,-0.39507 -0.41939,-0.77191 -0.41939,-0.77191 m -24.993,-32.973 -20.981,0 c -1.1974,0 -2.1699,-0.97248 -2.1699,-2.1577 l -0.0122,0 0,-16.544 0.0122,0 c 0,-1.1001 0.82054,-1.9875 1.8781,-2.1334 l 21.273,0 c 6.9472,0 11.567,2.3218 11.567,10.424 0,8.1081 -4.6193,10.412 -11.567,10.412" />
  <path
     style="fill:#ffffff;fill-rule:nonzero;fill-opacity:1"
     inkscape:connector-curvature="0"
     id="path46"
     d="m 124.42765,379.7696 c 0,-1.1609 -0.90563,-2.103 -2.0544,-2.1516 l -15.706,0 0,0.0121 c -0.76584,0 -1.4284,0.389 -1.8173,0.99681 l -2.5589,3.8474 0.006,0 -19.438,29.266 -0.0122,0 c -0.37684,0.58957 -1.0454,0.98464 -1.8173,0.98464 -0.7476,0 -1.404,-0.37684 -1.787,-0.94818 l -19.486,-29.302 0.006,0 -2.6257,-3.9507 c -0.37684,-0.52879 -0.97857,-0.88132 -1.6775,-0.90563 l -0.0729,0 -15.706,0 c -1.1366,0.0486 -2.0422,0.98464 -2.0544,2.1334 l 0,76.729 0.0182,0 c 0,1.1974 0.96033,2.1699 2.1577,2.1699 l 11.877,0 c 1.1913,0 2.1577,-0.97249 2.1577,-2.1699 l 0.006,0 0,-45.67 -0.0304,-6.078 c 0,-0.80229 0.65036,-1.4405 1.4405,-1.4405 0.46194,0 0.86309,0.23097 1.1244,0.57134 l 0.0122,0 0,-0.0122 0.006,0 -0.006,0.0122 1.2338,1.8234 c 0.0122,0.0304 0.0243,0.0426 0.0486,0.0547 l 15.845,23.717 0.0243,0.0182 0.0608,0.10333 0.006,-0.0122 c 0.38291,0.62604 1.0637,1.0454 1.8538,1.0454 l 11.184,0 c 0.74153,0 1.3736,-0.38292 1.7687,-0.9421 l 1.5864,-2.3765 14.314,-21.407 0.0122,-0.0122 1.3432,-2.0118 0,-0.0122 0,0.0122 0.0243,0 c 0.26743,-0.34037 0.6625,-0.57134 1.1184,-0.57134 0.79622,0 1.4466,0.6382 1.4466,1.4405 l -0.0122,2.1942 0,0.0486 0,0.0426 0,49.463 c 0,1.1974 0.96641,2.1699 2.1638,2.1699 l 11.858,0 c 1.1913,0 2.1577,-0.97249 2.1577,-2.1699 l 0.006,0 0,-76.711 -0.006,0 z" />
</svg>
