<svg height="1201" width="1288.1116" xmlns="http://www.w3.org/2000/svg"><path d="m614.25087 882.81258c0 6.10247 4.93956 11.04203 11.06426 11.04203 2.92387 0 5.57094-1.10754 7.5644-2.97926l258.03846-258.03845c1.84951-1.9603 2.97926-4.62943 2.97926-7.56441 0-6.10247-4.96179-11.05314-11.06426-11.05314h.0665-242.0033c-14.67472 0-26.64751 11.98355-26.64751 26.63658v238.24962 3.6992z" fill="#7abf2b"/><path d="m909.55776 640.93684c0-6.11359-4.96178-11.05315-11.0863-11.05315-2.91275 0-5.47127 1.14076-7.44268 2.97926l-258.14779 258.03846c-1.86062 1.98253-3.01242 4.65165-3.01242 7.5644 0 6.11359 4.98384 11.07519 11.08631 11.07519h241.91219c14.68583 0 26.68031-11.98336 26.68031-26.66938v-241.94863z" fill="#00a8e0"/><path d="m614.25087 1190.0134v-.055c0 6.1024 4.93956 11.042 11.06426 11.042 2.92387 0 5.57094-1.1186 7.5644-2.9904l.22151-.1993 257.61935-257.60117.18829-.23258c1.84951-1.94919 2.97926-4.61831 2.97926-7.56441 0-6.10247-4.96179-11.04202-11.06426-11.04202h.0665-242.0033c-14.67472 0-26.64751 11.97243-26.64751 26.62564v242.00334.022z" fill="#ff0376"/><path d="m614.25087 268.57501c0 6.10247 4.93956 11.04203 11.06426 11.04203 2.92387 0 5.57094-1.10754 7.5644-2.97926l258.03846-258.02024c1.84951-1.96029 2.97926-4.62942 2.97926-7.5644 0-6.10247-4.96179-11.05314-11.06426-11.05314h-241.93041c-14.67472 0-26.64751 11.98355-26.64751 26.63658v241.94863z" fill="#ff7c7c"/><path d="m909.55776 26.62638c0-6.11359-4.96178-11.05315-11.0863-11.05315-2.91275 0-5.59299 1.14069-7.5644 2.97926l-258.02024 258.2389c-1.86062 1.98253-3.01242 4.65165-3.01242 7.5644 0 6.11358 4.98384 11.07519 11.08631 11.07519h241.91219c14.68583 0 26.68031-11.98336 26.68031-26.66938v-241.94863z" fill="#ba195d"/><path d="m0 882.75792c0 6.10247 4.9395568 11.05314 11.064257 11.05314 2.923865 0 5.570942-1.11862 7.564403-2.99037l258.03845-258.03846c1.84951-1.9603 2.97926-4.62942 2.97926-7.5644 0-6.10247-4.96178-11.05314-11.06425-11.05314h-241.930416c-14.674718 0-26.64751299 11.98354-26.64751299 26.63658v241.94863z" fill="#ff3226"/><path d="m295.32019 640.86395c0-6.11359-4.96179-11.05314-11.0863-11.05314-2.91275 0-5.59299 1.14075-7.56441 2.97926l-258.020229 258.03845c-1.860625 1.98253-3.012423 4.65165-3.012423 7.5644 0 6.11359 4.983836 11.07519 11.086306 11.07519h241.912186c14.68584 0 26.68032-11.98336 26.68032-26.66938v-241.94863z" fill="#ff91ae"/><path d="m307.1279 882.81258c0 6.10247 4.92844 11.05314 11.06425 11.05314 2.91275 0 5.57095-1.11861 7.56441-2.99037l258.03845-258.03845c1.84951-1.9603 2.97926-4.62943 2.97926-7.56441 0-6.10247-4.96179-11.05314-11.06426-11.05314h-241.93041c-14.67472 0-26.64751 11.98355-26.64751 26.63658v241.94864z" fill="#0082b7"/><path d="m602.44444 640.93684c0-6.11359-4.96178-11.05315-11.0863-11.05315-2.91275 0-5.59299 1.14076-7.5644 2.97926l-258.02024 258.03846c-1.86062 1.98253-3.01242 4.65165-3.01242 7.5644 0 6.11359 4.98384 11.07519 11.08631 11.07519h241.91219c14.68583 0 26.68031-11.98336 26.68031-26.66938v-241.94863z" fill="#7accb3"/><path d="m602.23672 26.62638c0-6.11359-4.96179-11.05315-11.08631-11.05315-2.91275 0-5.59299 1.14069-7.5644 2.97926l-258.02023 258.03846c-1.86063 1.98253-3.01243 4.65165-3.01243 7.5644 0 6.11359 4.98384 11.07519 11.08631 11.07519h241.91219c14.68583 0 26.68031-11.98336 26.68031-26.66938v-241.94863z" fill="#959583"/><path d="m614.25087 575.70291c0 6.10247 4.93956 11.05314 11.06426 11.05314 2.92387 0 5.57094-1.11862 7.5644-2.99038l258.03846-258.03845c1.84951-1.9603 2.97926-4.62942 2.97926-7.5644 0-6.10247-4.96179-11.05314-11.06426-11.05314h-241.93041c-14.67472 0-26.64751 11.98354-26.64751 26.63658v241.94863z" fill="#261f5d"/><path d="m909.55776 333.80894c0-6.11359-4.96178-11.05314-11.0863-11.05314-2.91275 0-5.59299 1.14075-7.5644 2.97926l-258.02024 258.07489c-1.86062 1.98253-3.01242 4.64054-3.01242 7.56441 0 6.11358 4.98384 11.07519 11.08631 11.07519h241.91219c14.68583 0 26.68031-11.98337 26.68031-26.66938v-241.94864z" fill="#ffd700"/><path d="m294.90109 333.80894c0-6.11359-4.96179-11.05314-11.0863-11.05314-2.91275 0-5.59299 1.14075-7.56441 2.97926l-258.02023 258.03845c-1.860625 1.98253-3.012423 4.64054-3.012423 7.5644 0 6.11359 4.983836 11.07519 11.086306 11.07519h241.912187c14.68584 0 26.68032-11.98336 26.68032-26.66938v-241.94863z" fill="#ff9000"/><path d="m307.1279 575.70291c0 6.10247 4.92844 11.05314 11.06425 11.05314 2.91275 0 5.57095-1.11862 7.56441-2.99038l258.03845-258.03845c1.84951-1.9603 2.97926-4.62942 2.97926-7.5644 0-6.10247-4.96179-11.05314-11.06426-11.05314h-241.93041c-14.67472 0-26.64751 11.98354-26.64751 26.63658v241.94863z" fill="#00b12e"/><path d="m602.44444 333.80894c0-6.11359-4.96178-11.05314-11.0863-11.05314-2.91275 0-5.59299 1.14075-7.5644 2.97926l-258.02024 258.03845c-1.86062 1.98253-3.01242 4.64054-3.01242 7.5644 0 6.11359 4.98384 11.07519 11.08631 11.07519h241.91219c14.68583 0 26.68031-11.98336 26.68031-26.66938v-241.94863z" fill="#69b8e4"/><path d="m454.79893 837.82304c-44.3117 0-71.71177-31.63117-71.71177-75.921 0-44.27889 27.40007-75.93193 71.71177-75.93193 44.27889 0 71.6899 31.65304 71.6899 75.93193 0 44.28983-27.41101 75.921-71.6899 75.921m0-126.52467c-27.42194 0-42.19615 21.09899-42.19615 50.60367 0 29.53749 14.77439 50.64741 42.19615 50.64741 27.38914 0 42.18521-21.10992 42.18521-50.64741 0-29.50468-14.79662-50.60367-42.18521-50.60367" fill="#fff"/><path d="m1093.3061 831.80985v-18.00839c-.2104-1.72773-1.5063-3.09004-3.2118-3.37795h-66.7737c-2.0933-.0443-3.7989-1.73883-3.8543-3.85427v-30.3028c.066-2.09331 1.7831-3.79887 3.8986-3.82092h62.0652c2.0379-.14395 3.6326-1.84951 3.6326-3.90966v-17.82016c-.1661-1.98253-1.8386-3.55525-3.8985-3.55525v-.0332h-61.7445v-.0443c-2.1819 0-3.9539-1.76097-3.9539-3.9206v-25.8494c0-2.13759 1.6945-3.83204 3.7877-3.93171h66.3637c2.0489-.14395 3.6659-1.81634 3.6659-3.89855h.022v-17.96411c-.2326-1.91602-1.8829-3.42223-3.8763-3.42223v-.0332h-95.61323c-2.10425.0554-3.82093 1.72775-3.87632 3.84315v139.98144c.0554 2.1376 1.79419 3.83204 3.92059 3.83204h95.52396c2.1485 0 3.9096-1.74989 3.9206-3.90966" fill="#959583"/><path d="m818.04805 811.4197-26.60196-34.80905s-.70883-.81958-.70883-1.21829c0-.55376.39871-.78634 1.00785-1.00784l.2215-.0222c16.61297-4.3858 31.05536-19.03811 31.05536-41.9538 0-29.49375-21.05343-44.22423-50.52532-44.22423l-20.33367-.12191h-47.62441c-2.07109.0886-3.7546 1.79419-3.7546 3.87632v139.83749h.0332c0 2.17076 1.73883 3.9206 3.93171 3.94283h21.65292c2.09332-.0222 3.79888-1.68344 3.89855-3.7546v-51.38903c0-2.17076 1.77205-3.93171 3.95394-3.93171 0 0 17.33291-.0332 19.28228-.0332 2.53629 0 4.21961 2.10425 4.21961 2.10425l42.11962 54.74548s.4873.78634 1.89379 1.53946c1.00784.54269 2.31471.57592 2.31471.57592h10.82063l-.0109-.0109c2.10425-.0109 3.79887-1.65022 3.90966-3.72125h.0109v-18.7174s.0332.2658 0-.29904c-.0332-.71989-.7642-1.40655-.7642-1.40655m-45.54166-60.08264h-38.23109c-2.18188 0-3.95395-1.77203-3.95395-3.93171h-.0222v-30.14609h.0222c0-2.00458 1.49517-3.62158 3.42223-3.88744h38.76317c12.65903 0 21.07712 4.23073 21.07712 18.99438 0 14.77439-8.41718 18.9725-21.07712 18.9725" fill="#fff"/><path d="m226.73346 691.99423c0-2.11537-1.65022-3.83204-3.74348-3.9206h-28.61911v.0221c-1.3955 0-2.6028.70883-3.31144 1.81637l-4.66277 7.01064h.0109l-35.41947 53.32783h-.0222c-.68667 1.0743-1.9049 1.79418-3.31144 1.79418-1.36226 0-2.55834-.68667-3.25623-1.72775l-35.50694-53.39342h.0109l-4.78449-7.19888c-.68667-.96354-1.78312-1.60592-3.0567-1.65021h-.13283-28.619113c-2.071086.0885-3.721249 1.79418-3.74348 3.88743v139.8138h.03316c0 2.18188 1.749891 3.95394 3.93171 3.95394h21.641994c2.170759 0 3.931711-1.77205 3.931711-3.95394h.01093v-83.21881l-.05539-11.07519c0-1.46192 1.185071-2.62485 2.624848-2.62485.84174 0 1.5727.42087 2.04886 1.04108h.0222v-.0222h.0109l-.0109.0222 2.2482 3.32256c.0222.0554.0443.0776.0886.0997l28.87239 43.21657.0443.0332.11078.18829.0109-.0222c.69773 1.14075 1.93825 1.9049 3.37795 1.9049h20.37922c1.3512 0 2.50295-.69775 3.22289-1.71667l2.8907-4.3304 26.08264-39.00734.0222-.0222 2.44755-3.66586v-.0222.0222h.0443c.4873-.62021 1.20719-1.04108 2.03792-1.04108 1.45085 0 2.63596 1.16291 2.63596 2.62485l-.0222 3.99822v.0885.0776 90.13033c0 2.18187 1.76097 3.95394 3.94282 3.95394h21.60738c2.17076 0 3.93171-1.77205 3.93171-3.95394h.0109v-139.781h-.0109z" fill="#fff"/><path d="m1186.6036 42.99102h-29.4898-29.1443v.0169h-4.3827c-3.0994.0471-5.5723 2.50444-5.5723 5.58793h-.031v10.03349l-.047.0169v59.01063l-.031.0471v3.28703c-.017 3.0993-2.4888 5.57235-5.5723 5.57235l-.017.0314h-10.0179v-.0169h-54.9564v.0169h-10.0178v-.0314c-3.084 0-5.5569-2.47316-5.5725-5.57235v-.87658h-.017v-71.92371c-.1567-2.70796-2.2227-4.86796-4.8995-5.19665h-31.94712c-2.7862.34435-4.93052 2.64532-4.93052 5.52536h-.0169v197.88363h.0169c0 3.08373 2.47314 5.55679 5.57236 5.58793h4.38269 21.89809 4.3987c2.9738-.0314 5.3532-2.34791 5.5253-5.27509v-76.4791l.017-.0169v-2.22272l.031-.0169c0-3.06788 2.473-5.55679 5.5568-5.57236l4.3985-.0169v.0314h66.2103l.017-.0314 4.3828.0169c3.0993.0169 5.5568 2.50445 5.5568 5.57236l.047.0169v10.01791h-.017v58.33679l.047.0314v10.0179h.031c0 3.08375 2.4731 5.5568 5.5724 5.58793h4.3826 29.1444 29.4897c74.6332 0 101.5097-38.81854 101.5097-104.5136 0-65.66394-26.8761-104.48248-101.5097-104.48248m3.0053 173.18429h-13.8683-8.3116-1.7062l-.017-.0471c-3.0679 0-5.5568-2.47314-5.5724-5.5568v-1.03306l-.017-.0169v-124.14228-.0169-.98615h.031c0-3.08373 2.4731-5.55678 5.5723-5.58793h4.3827l.017.0469h19.4877c41.7941 0 56.709 20.89649 56.709 68.63669 0 47.78776-14.917 68.69898-56.709 68.69898" fill="#959583"/></svg>