<svg height="113.33266" viewBox="0 0 946.17896 113.33266" width="946.17896" xmlns="http://www.w3.org/2000/svg"><path d="m0 0c-40.519-2.327-80.882-2.327-121.405 0-2.792.201-5.25 2.649-5.43 5.422-1.279 23.618-1.28 47.042 0 70.665.18 2.773 2.638 5.221 5.43 5.422 40.523 2.327 80.886 2.327 121.405 0 2.792-.201 5.25-2.649 5.431-5.422 1.279-23.623 1.279-47.047 0-70.665-.181-2.773-2.639-5.221-5.431-5.422" fill="#fd0" transform="matrix(1.3333333 0 0 -1.3333333 170.392829 111.005662)"/><path d="m0 0c-.541-.139-1.076.072-1.374.515 0 0-3.165 4.608-3.419 4.967-.253.359-.702.577-1.149.536-1.882-.195-3.796-.198-5.712-.001-.448.041-.896-.176-1.149-.535-.254-.359-3.419-4.967-3.419-4.967-.298-.443-.833-.654-1.374-.515-1.492.383-3.047.902-4.596 1.544s-3.015 1.374-4.342 2.158c-.48.284-.71.811-.607 1.336 0 0 1.02 5.497 1.095 5.93.074.433-.089.903-.434 1.191-1.469 1.193-2.824 2.544-4.04 4.039-.287.344-.757.508-1.19.434-.433-.075-5.93-1.095-5.93-1.095-.524-.103-1.052.127-1.336.607-.784 1.326-1.516 2.793-2.158 4.342s-1.161 3.104-1.544 4.596c-.139.541.072 1.076.515 1.374 0 0 4.608 3.165 4.967 3.419.359.253.576.701.535 1.149-.197 1.916-.194 3.83.001 5.712.041.447-.177.895-.536 1.149s-4.967 3.419-4.967 3.419c-.443.298-.654.833-.515 1.374.383 1.492.902 3.046 1.544 4.596.642 1.549 1.374 3.015 2.158 4.341.284.481.812.71 1.336.608 0 0 5.497-1.021 5.93-1.095s.903.089 1.19.434c1.216 1.495 2.572 2.845 4.04 4.039.345.287.508.758.434 1.191-.075.433-1.095 5.929-1.095 5.929-.103.525.127 1.052.607 1.337 1.326.784 2.793 1.516 4.342 2.158 1.549.641 3.104 1.16 4.596 1.544.541.139 1.076-.072 1.374-.516 0 0 3.165-4.608 3.419-4.966.253-.359.701-.577 1.149-.536 1.882.194 3.796.198 5.712.001.447-.041.896.176 1.149.534.254.359 3.419 4.967 3.419 4.967.298.444.833.655 1.374.516 1.492-.384 3.046-.903 4.596-1.544 1.549-.642 3.015-1.374 4.341-2.158.481-.285.711-.812.608-1.337 0 0-1.021-5.496-1.095-5.929s.089-.904.434-1.191c1.468-1.194 2.824-2.544 4.04-4.039.287-.345.757-.509 1.19-.434.433.074 5.929 1.095 5.929 1.095.525.103 1.052-.127 1.337-.608.784-1.326 1.516-2.792 2.158-4.341.641-1.55 1.16-3.104 1.544-4.596.139-.541-.072-1.076-.516-1.374 0 0-4.608-3.165-4.966-3.419-.359-.254-.576-.702-.535-1.149.197-1.916.193-3.83-.001-5.712-.041-.448.177-.896.536-1.149.358-.254 4.966-3.419 4.966-3.419.444-.298.655-.833.516-1.374-.384-1.492-.903-3.047-1.544-4.596-.642-1.55-1.374-3.016-2.158-4.342-.284-.48-.812-.71-1.336-.607 0 0-5.497 1.02-5.93 1.095-.433.074-.903-.09-1.19-.434-1.216-1.495-2.572-2.846-4.04-4.039-.345-.288-.508-.758-.434-1.191s1.095-5.93 1.095-5.93c.102-.525-.127-1.052-.608-1.336-1.326-.784-2.792-1.516-4.341-2.158-1.55-.642-3.104-1.161-4.596-1.544" transform="matrix(1.3333333 0 0 -1.3333333 101.187364 101.839529)"/><path d="m0 0c-11.293 0-20.479-9.186-20.479-20.479s9.186-20.479 20.479-20.479 20.479 9.186 20.479 20.479-9.186 20.479-20.479 20.479" fill="#fff" transform="matrix(1.3333333 0 0 -1.3333333 89.456564 29.360731)"/><path d="m0 0c .953-.55.953-1.45 0-2l-21.22-12.251c-.953-.55-1.732-.1-1.732 1v24.502c0 1.1.779 1.55 1.732 1z" transform="matrix(1.3333333 0 0 -1.3333333 108.707231 55.332997)"/><g fill="#fff"><path d="m0 0h-11.517v-50.782h11.517v28.463h8.338v11.54h-8.338z" transform="matrix(1.3333333 0 0 -1.3333333 395.341223 15.619531)"/><path d="m0 0c-4.95 0-8.972 4.032-8.972 8.976 0 4.95 4.022 8.982 8.972 8.982 4.953 0 8.979-4.032 8.979-8.982 0-4.944-4.026-8.976-8.979-8.976m0 29.456c-11.293 0-20.477-9.188-20.477-20.48 0-11.293 9.184-20.474 20.477-20.474 11.296 0 20.48 9.181 20.48 20.474 0 11.292-9.184 20.48-20.48 20.48" transform="matrix(1.3333333 0 0 -1.3333333 340.237758 68.631797)"/><path d="m0 0c-4.953 0-8.976 4.032-8.976 8.976 0 4.95 4.023 8.982 8.976 8.982 4.95 0 8.972-4.032 8.972-8.982 0-4.944-4.022-8.976-8.972-8.976m0 29.456c-11.296 0-20.48-9.188-20.48-20.48 0-11.293 9.184-20.474 20.48-20.474 11.293 0 20.477 9.181 20.477 20.474 0 11.292-9.184 20.48-20.477 20.48" transform="matrix(1.3333333 0 0 -1.3333333 443.415356 68.631797)"/><path d="m0 0c-4.354 0-8.318-1.643-11.335-4.325-3.017 2.682-6.981 4.325-11.335 4.325-9.431 0-17.076-7.645-17.076-17.076v-23.405h11.488v23.405c0 3.085 2.503 5.588 5.588 5.588 3.088 0 5.591-2.503 5.591-5.588v-23.405h11.485l.006 23.405c0 3.085 2.5 5.588 5.588 5.588 3.085 0 5.588-2.503 5.588-5.588v-23.405h11.488v23.405c0 9.431-7.645 17.076-17.076 17.076" transform="matrix(1.3333333 0 0 -1.3333333 277.72696 29.357664)"/><path d="m0 0c-3.232-3.088-4.937-6.815-4.937-11.677v-22.696h11.517v18.114c.105 4.745 2.506 9.731 7.638 10.18 1.406.136 5.406.153 5.406.153v11.559h-3.668c-3.02 0-10.638-.55-15.956-5.633" transform="matrix(1.3333333 0 0 -1.3333333 489.740554 37.502197)"/><path d="m0 0c-4.95 0-8.979 4.032-8.979 8.976 0 4.95 4.029 8.982 8.979 8.982 4.953 0 8.976-4.032 8.976-8.982 0-4.944-4.023-8.976-8.976-8.976m0 29.456c-11.293 0-20.477-9.188-20.477-20.48 0-11.293 9.184-20.474 20.477-20.474 11.296 0 20.48 9.181 20.48 20.474 0 11.292-9.184 20.48-20.48 20.48" transform="matrix(1.3333333 0 0 -1.3333333 674.82055 68.631797)"/><path d="m0 0v10.834h-11.514v-50.84h11.514v28.466h8.341v11.54z" transform="matrix(1.3333333 0 0 -1.3333333 775.104014 29.990998)"/><path d="m0 0c-3.232-3.088-4.937-7.29-4.937-12.152v-22.221h11.514v18.114c.104 4.745 2.509 9.731 7.641 10.18 1.406.136 5.406.153 5.406.153v11.559h-3.668c-3.02 0-10.638-.55-15.956-5.633" transform="matrix(1.3333333 0 0 -1.3333333 721.146149 37.502197)"/><path d="m0 0c-4.908 0-8.933 3.987-8.969 8.885l-.003.273c.104 4.856 4.129 8.797 8.972 8.797 4.95 0 8.979-4.026 8.979-8.976s-4.029-8.979-8.979-8.979m0 29.456c-11.293 0-20.477-9.188-20.477-20.48v-34.715h11.508v16.285l.752-.332c2.571-1.139 5.34-1.715 8.217-1.715 11.293 0 20.48 9.187 20.48 20.48 0 11.289-9.187 20.477-20.48 20.477" transform="matrix(1.3333333 0 0 -1.3333333 607.771351 68.579797)"/><path d="m0 0-5.705 1.331c-.355.078-2.88.225-3.18 2.444-.367 3.326 5.188 4.071 9.328 2.07l1.991-.96 4.521 8.507-5.845 1.848c-9.249 2.955-20.5-.146-22.648-9.841-1.253-5.545.895-10.648 6.441-12.276l7.697-2.219c1.34-.371 2.362-1.406 2.069-2.965-.589-3.173-6.655-2.955-10.062-1.1l-4.576 2.438-5.113-9.324 6.063-2.737c9.767-4.436 24.115-.664 26.338 8.292 1.409 5.468.368 12.715-7.319 14.492" transform="matrix(1.3333333 0 0 -1.3333333 557.544953 51.096997)"/><path d="m0 0c-3.186 0-5.777-2.591-5.777-5.776 0-3.186 2.591-5.777 5.777-5.777 3.185 0 5.776 2.591 5.776 5.777 0 3.185-2.591 5.776-5.776 5.776" transform="matrix(1.3333333 0 0 -1.3333333 810.801613 68.550597)"/><path d="m0 0h-8.338v10.834h-11.518v-50.841h11.518v28.466h8.338z" transform="matrix(1.3333333 0 0 -1.3333333 872.968678 29.990598)"/><path d="m0 0 17.564 40.007h-11.908l-10.168-23.176-10.167 23.176h-11.909l17.565-40.007z" transform="matrix(1.3333333 0 0 -1.3333333 922.760277 83.332996)"/></g></svg>