<?xml version="1.0" encoding="UTF-8"?>
<!-- Created with Inkscape (http://www.inkscape.org/) -->
<svg id="svg4567" width="616.68mm" height="135.45mm" version="1.1" viewBox="0 0 616.68 135.45" xmlns="http://www.w3.org/2000/svg" xmlns:cc="http://creativecommons.org/ns#" xmlns:dc="http://purl.org/dc/elements/1.1/" xmlns:rdf="http://www.w3.org/1999/02/22-rdf-syntax-ns#">
 <defs id="defs4561">
  <mask id="c" x="20.955" y=".115" width="20.85" height="37.819" maskUnits="userSpaceOnUse">
   <g id="g12" filter="url(#d)">
    <path id="path10" d="m41.805 0.114h-41.717v48.327h41.717z" fill="#fff"/>
   </g>
  </mask>
  <filter id="d" x="20.955" y=".115" width="20.85" height="37.819" filterUnits="userSpaceOnUse">
   <feColorMatrix id="feColorMatrix15" values="1 0 0 0 0  0 1 0 0 0  0 0 1 0 0  0 0 0 1 0"/>
  </filter>
  <mask id="a" x=".088" y=".114" width="20.889" height="48.327" maskUnits="userSpaceOnUse">
   <g id="g4" filter="url(#b)">
    <path id="path2" d="m41.805 0.114h-41.717v48.327h41.717z" fill="#fff"/>
   </g>
  </mask>
  <filter id="b" x=".088" y=".114" width="20.889" height="48.327" filterUnits="userSpaceOnUse">
   <feColorMatrix id="feColorMatrix7" values="1 0 0 0 0  0 1 0 0 0  0 0 1 0 0  0 0 0 1 0"/>
  </filter>
 </defs>
 <metadata id="metadata4564">
  <rdf:RDF>
   <cc:Work rdf:about="">
    <dc:format>image/svg+xml</dc:format>
    <dc:type rdf:resource="http://purl.org/dc/dcmitype/StillImage"/>
    <dc:title/>
   </cc:Work>
  </rdf:RDF>
 </metadata>
 <g id="layer1" transform="translate(325.35 -81.108)">
  <path id="path18" d="m-147.85 83.115 25.34 0.01764 16.845 85.178 17.283-85.189 24.966-0.0071-30.268 131.58-25.082 0.0106z" fill="#6d726f" stroke-width=".35278"/>
  <path id="path20" d="m-20.928 83.122 59.397-0.0035v18.863h-35.899v36.756h25.439v18.828h-25.439v38.262h35.877l7e-3 18.895h-59.383z" fill="#6d726f" stroke-width=".35278"/>
  <path id="path22" d="m-180.39 216.02c3.0586-0.0388 5.9478-1.1642 8.9182-1.7427-2.7622 1.0724-5.6974 1.651-8.6395 1.9544l0.40922 0.32456h-2.6317c0.60325-0.31398 1.2418-0.58561 1.9438-0.53623z" fill="#e29ab4" stroke-width=".35278"/>
  <path id="path24" d="m200.02 166.53h-22.765l1.2107-2.455 21.554-43.311v45.766zm23.729 0v-83.714h-25.007l-39.021 79.308v22.137h40.298v30.606h23.729v-30.603h16.709v-17.734h-16.709z" fill="#d52048" stroke-width=".35278"/>
  <path id="path26" d="m134.69 191.16h-20.713v-4.0552c0 14.57-9.1306 24.099-22.006 27.759h67.843v-23.704h-25.124" fill="#d52048" stroke-width=".35278"/>
  <path id="path28" transform="matrix(2.8025 0 0 2.8025 43.249 80.796)" d="m25.234 10.628v1.327c0-3.294 1.765-5.117 3.815-5.117 2.187 0 3.954 1.518 3.954 3.669 0 2.017-0.547 3.591-2.527 5.809l-8.526 9.612c-0.349 0.392-0.681 0.769-0.995 1.138 2.778 3.252 4.279 5.859 4.279 10.867v-0.605c0-2.486 1.02-4.342 2.797-6.357l7.098-7.193c4.51-5.243 6.676-6.698 6.676-13.151 0-6.386-5.369-10.512-12.68-10.512-3.21 0-6.018 0.838-8.148 2.314 2.663 1.856 4.257 4.719 4.257 8.199" fill="#d52048" mask="url(#c)"/>
  <path id="path30" transform="matrix(2.8025 0 0 2.8025 43.249 80.796)" d="m16.69 37.932c0-5.01 1.488-7.611 4.266-10.865-0.317-0.371-0.649-0.75-1-1.142l-8.541-9.612c-1.98-2.218-2.523-3.792-2.523-5.809 0-2.151 1.771-3.669 3.959-3.669 2.05 0 3.84 1.828 3.84 5.122v-1.329c0-3.48 1.609-6.344 4.287-8.199-2.119-1.477-4.916-2.315-8.127-2.315-7.312 0-12.762 4.128-12.762 10.514 0 6.453 2.17 7.903 6.681 13.146l7.105 7.192c1.777 2.017 2.815 3.876 2.815 6.364 0 2.756-1.722 4.322-3.84 4.322-2.188 0-3.959-1.436-3.959-4.326v-4.35h-8.545v4.907c0 6.722 5.603 10.558 12.504 10.558 1.6 0 3.129-0.203 4.533-0.603h-0.693v-9.906" fill="#6d726f" mask="url(#a)"/>
  <path id="path32" d="m113.98 187.11c0-14.035-4.2065-21.341-11.992-30.455-7.7826 9.1193-11.956 16.409-11.956 30.449v27.765h1.9421c12.875-3.6629 22.006-13.189 22.006-27.759" fill="#e77993" stroke-width=".35278"/>
  <path id="path34" d="m90.027 110.58v9.1362h23.948v-9.1362c0-9.7529-4.47-17.779-11.933-22.978-7.5025 5.1985-12.015 13.225-12.015 22.978" fill="#e77993" stroke-width=".35278"/>
  <path id="path36" d="m262.89 81.109h12.46l-3e-3 16.365 15.984 0.0035v12.453l-15.96 0.0174v15.663l-12.42 0.0669-0.0563-15.748-16.002 0.014 3e-3 -12.471 15.998 0.01418-4e-3 -16.379z" fill="#d52048" stroke-width=".35278"/>
  <g id="g44" transform="matrix(.35278 0 0 .35278 -325.37 81.086)" fill="#6d726f">
   <path id="path38" transform="matrix(7.9441,0,0,7.9441,-1214.8,-1.1877)" d="m186.89 0.719v47.12h-8.491v-29.03l-5.57 29.03h-5.842l-5.57-29.03v29.03h-8.491v-47.12h11.479l5.503 26.624 5.57-26.624h11.412"/>
   <path id="path40" transform="matrix(7.9441,0,0,7.9441,63.559,-1.1773)" d="m88.121 47.839h8.491v-47.12h-8.491z"/>
   <path id="path42" transform="matrix(.79997 0 0 .79997 -451.76 452.61)" d="m1062.7-565.65c-93.075 0-126.13 56.144-126.13 104.27v270.03c0 48.121 33.056 105.61 126.14 105.61 84.317 0 122.09-57.486 122.09-105.61 4e-4 -90.01-0.01-180.02-0.01-270.03 0-48.121-37.775-104.27-122.09-104.27zm0 65.498c24.289 0 37.775 20.129 37.775 39.434v268.03c0 19.324-13.486 40.098-37.775 40.098-29.681 0-41.814-20.942-41.814-40.098v-268.14c0-19.115 12.143-39.324 41.814-39.324z"/>
  </g>
 </g>
</svg>
