<svg height="384pt" viewBox="0 0 1741 384" width="1741pt" xmlns="http://www.w3.org/2000/svg" xmlns:xlink="http://www.w3.org/1999/xlink"><mask id="a" height="48.327" maskUnits="userSpaceOnUse" width="20.889" x=".088" y=".114"><path d="m41.805.114h-41.717v48.327h41.717z" fill="#fff"/></mask><mask id="b" height="37.819" maskUnits="userSpaceOnUse" width="20.85" x="20.955" y=".115"><path d="m41.805.114h-41.717v48.327h41.717z" fill="#fff"/></mask><g fill="#fff"><path d="m503.2 5.75 71.83.05 47.75 241.45 48.99-241.48 70.77-.02-85.8 372.97-71.1.03z"/><path d="m862.9808 5.77 168.3696-.01v53.4704h-101.76v104.1896h72.11v53.3704h-72.11v108.4592h101.7006l.02 53.5608h-168.3298z"/><path d="m410.95 382.48c8.67-.11 16.86-3.3 25.28-4.94-7.83 3.04-16.15 4.68-24.49 5.54l1.16.92h-7.46c1.71-.89 3.52-1.66 5.51-1.52z"/></g><g fill="#d52048"><path d="m1489.294 242.18877h-64.5305l3.4319-6.95909 61.0986-122.76905zm67.2632 0v-237.3000182h-70.8858l-110.6064 224.8118082v62.75092h114.229v86.75817h67.2632v-86.75023h47.363v-50.27065z"/><path d="m1304.1156 312.02589h-58.7153v-11.49521c0 41.3017-25.8821 68.31184-62.3776 78.68692h192.3123v-67.19171z"/><path d="m25.234 10.628v1.327c0-3.294 1.765-5.117 3.815-5.117 2.187 0 3.954 1.518 3.954 3.669 0 2.017-.547 3.591-2.527 5.809l-8.526 9.612c-.349.392-.681.769-.995 1.138 2.778 3.252 4.279 5.859 4.279 10.867v-.605c0-2.486 1.02-4.342 2.797-6.357l7.098-7.193c4.51-5.243 6.676-6.698 6.676-13.151 0-6.386-5.369-10.512-12.68-10.512-3.21 0-6.018.838-8.148 2.314 2.663 1.856 4.257 4.719 4.257 8.199" mask="url(#b)" transform="matrix(7.9441609 0 0 7.9441609 1044.9362 -.823098)"/></g><path d="m16.69 37.932c0-5.01 1.488-7.611 4.266-10.865-.317-.371-.649-.75-1-1.142l-8.541-9.612c-1.98-2.218-2.523-3.792-2.523-5.809 0-2.151 1.771-3.669 3.959-3.669 2.05 0 3.84 1.828 3.84 5.122v-1.329c0-3.48 1.609-6.344 4.287-8.199-2.119-1.477-4.916-2.315-8.127-2.315-7.312 0-12.762 4.128-12.762 10.514 0 6.453 2.17 7.903 6.681 13.146l7.105 7.192c1.777 2.017 2.815 3.876 2.815 6.364 0 2.756-1.722 4.322-3.84 4.322-2.188 0-3.959-1.436-3.959-4.326v-4.35h-8.545v4.907c0 6.722 5.603 10.558 12.504 10.558 1.6 0 3.129-.203 4.533-.603h-.693z" fill="#fff" mask="url(#a)" transform="matrix(7.9441609 0 0 7.9441609 1044.9362 -.823098)"/><path d="m1245.4003 300.53068c0-39.78436-11.9241-60.49478-33.993-86.32919-22.061 25.8503-33.8898 46.51306-33.8898 86.31331v78.7028h5.5052c36.4955-10.38302 62.3776-37.38522 62.3776-78.68692" fill="#e77993"/><path d="m1177.5175 83.607442v25.897958h67.8828v-25.897958c0-27.64568-12.6709-50.39776-33.8262-65.13418-21.2666 14.73642-34.0566 37.4885-34.0566 65.13418" fill="#e77993"/><path d="m1667.5097.06346184h35.3197l-.01 46.38962016 45.3095.01v35.29968l-45.2423.0493v44.399608l-35.2071.18963-.1597-44.639628-45.3596.0397.01-35.34974 45.3492.0402-.01-46.42963016z" fill="#d52048"/><g fill="#fff"><path d="m186.889.719v47.12h-8.491v-29.03l-5.57 29.03h-5.842l-5.57-29.03v29.03h-8.491v-47.12h11.479l5.503 26.624 5.57-26.624h11.412" transform="matrix(7.9440902 0 0 7.9440902 -1214.85 -1.187731)"/><path d="m88.121 47.839h8.491v-47.12h-8.491z" transform="matrix(7.9440902 0 0 7.9440902 63.558827 -1.177331)"/><path d="m1062.748-565.6543c-93.0749 0-126.13081 56.1443-126.13081 104.26563v270.02929c0 48.12133 33.05575 105.607427 126.14061 105.607427 84.3166 0 122.0918-57.486097 122.0918-105.607427.0004-90.00976-.01-180.01953-.01-270.02929 0-48.12133-37.7752-104.26563-122.0918-104.26563zm0 65.49805c24.2891 0 37.7754 20.12945 37.7754 39.43359v268.03321c0 19.324-13.4863 40.09765-37.7754 40.09765-29.6811 0-41.8144-20.94247-41.8144-40.09765v-268.14258c0-19.11547 12.1433-39.32422 41.8144-39.32422z" transform="matrix(.79999999 0 0 .79999999 -451.753739 452.601562)"/></g></svg>