<?xml version="1.0" encoding="UTF-8" standalone="no"?>
<svg
   xmlns:dc="http://purl.org/dc/elements/1.1/"
   xmlns:cc="http://creativecommons.org/ns#"
   xmlns:rdf="http://www.w3.org/1999/02/22-rdf-syntax-ns#"
   xmlns:svg="http://www.w3.org/2000/svg"
   xmlns="http://www.w3.org/2000/svg"
   xmlns:sodipodi="http://sodipodi.sourceforge.net/DTD/sodipodi-0.dtd"
   xmlns:inkscape="http://www.inkscape.org/namespaces/inkscape"
   width="1520.15pt"
   height="919.32532pt"
   viewBox="0 0 1520.15 919.32532"
   version="1.1"
   id="svg2"
   inkscape:version="0.91 r13725"
   sodipodi:docname="MTA-Muslim TV.svg">
  <metadata
     id="metadata37">
    <rdf:RDF>
      <cc:Work
         rdf:about="">
        <dc:format>image/svg+xml</dc:format>
        <dc:type
           rdf:resource="http://purl.org/dc/dcmitype/StillImage" />
        <dc:title></dc:title>
      </cc:Work>
    </rdf:RDF>
  </metadata>
  <defs
     id="defs35" />
  <sodipodi:namedview
     pagecolor="#ffffff"
     bordercolor="#666666"
     borderopacity="1"
     objecttolerance="10"
     gridtolerance="10"
     guidetolerance="10"
     inkscape:pageopacity="0"
     inkscape:pageshadow="2"
     inkscape:window-width="1920"
     inkscape:window-height="1017"
     id="namedview33"
     showgrid="false"
     fit-margin-top="0"
     fit-margin-left="0"
     fit-margin-right="0"
     fit-margin-bottom="0"
     inkscape:zoom="0.60551905"
     inkscape:cx="886.59155"
     inkscape:cy="729.44027"
     inkscape:window-x="-8"
     inkscape:window-y="-8"
     inkscape:window-maximized="1"
     inkscape:current-layer="svg2" />
  <g
     id="#740000ff"
     style="fill:#ffffff;fill-opacity:1">
    <path
       d="m 969.06,0 3.24,0 c 0.84,5.69 -1.15,11.32 -0.5,17.02 0.5,9.8 5.67,18.83 12.78,25.38 7.52,7.2 17.91,9.92 26.5,15.5 12.61,7.39 22.18,20.43 24.07,35.07 1.6,12.36 -2.38,24.84 -8.98,35.22 -4.34,7.08 -10.17,13.06 -16.15,18.74 18.61,0.32 37.23,-0.16 55.84,0.47 -1.2,5.14 -2.19,10.38 -4.1,15.32 -1.25,1.01 -2.91,1.2 -4.38,1.66 -22.62,4.8 -42.5,20.32 -53.45,40.57 -3.52,6.24 -4.9,13.33 -6.8,20.16 -1.81,7.03 -4.04,13.95 -5.51,21.07 90.12,0.51 180.25,0.3 270.38,0.65 21.7,0.49 43.57,-0.8 65.09,2.69 32.57,4.47 65.14,15.47 90.75,36.65 27.94,22.83 45.7,56.88 50.78,92.4 3.76,25.66 2.75,51.9 -1.59,77.43 -3.11,20.27 -9.22,39.9 -14.3,59.73 -6,23.31 -12.58,46.46 -18.3,69.84 -1.73,7.05 -3.33,14.18 -3.62,21.46 -0.5,15.42 -0.23,31.22 5.06,45.91 4.75,12.85 11.28,25.35 20.99,35.18 12.29,13.58 28.98,22.6 46.47,27.56 5.52,1.65 11.28,2.3 16.82,3.91 -106.71,0.63 -213.43,0.34 -320.15,0.36 -15.33,-0.14 -30.67,-0.23 -46,-0.3 -22.49,0.34 -45.03,-2.75 -66.67,-8.83 -15.97,-4.3 -31.1,-11.32 -45.1,-20.07 -28.05,-16.83 -49.81,-43.25 -62.91,-73.07 -12.51,-28.72 -14.78,-60.88 -11.23,-91.72 1.67,-14.56 4.98,-28.87 8.93,-42.96 5.07,-19.36 10.59,-38.6 15.41,-58.03 -14.48,-0.63 -28.97,-0.18 -43.46,-0.38 -2.17,0.18 -5.75,-0.79 -6,2.38 -26.04,97.63 -52.39,195.18 -78.32,292.83 -30.88,0.46 -61.77,0.07 -92.65,0.2 -27.02,-0.03 -54.03,0.05 -81.05,-0.03 26.09,-98.37 52.72,-196.59 78.84,-294.95 -9.92,-0.59 -19.86,-0.25 -29.79,-0.39 -8.3,0.13 -16.61,-0.3 -24.89,0.24 -4.27,20.14 -10.12,39.89 -15.29,59.81 -20.88,78.44 -41.9,156.86 -62.96,235.26 -57.8,0.12 -115.6,0.07 -173.4,0.02 4.62,-19.49 10.26,-38.73 15.31,-58.12 17.62,-65.8 35.08,-131.65 52.56,-197.49 2.68,-10.2 4.7,-20.76 3.93,-31.35 -0.31,-4.59 -2.54,-9.25 -6.66,-11.56 -7.05,-4.15 -15.93,-3.94 -23.46,-1.27 -8.25,2.94 -14.51,9.61 -19.16,16.82 -5.79,8.97 -9.65,19.04 -12.56,29.28 -19.02,70.7 -38.01,141.41 -56.98,212.12 -3.83,13.86 -7.19,27.85 -11.33,41.63 -57.78,-0.09 -115.56,0.1 -173.34,-0.1 21.74,-82.82 44.18,-165.47 65.92,-248.3 3.44,-13.21 7.38,-26.76 5.5,-40.55 -0.93,-5.2 -4.95,-9.6 -9.89,-11.34 -9.06,-3.2 -19.51,-1.3 -27.21,4.34 -8.44,6.19 -13.89,15.53 -18.1,24.92 -4.95,10.95 -7.54,22.73 -10.72,34.27 -21.31,78.82 -42.61,157.66 -63.57,236.58 -57.89,0.4 -115.8,0 -173.7,0.2 l 0,-1.52 c 2.83,-8.05 4.64,-16.41 6.94,-24.61 23.64,-88 47.24,-176 70.88,-263.99 3.72,-14.82 9.61,-29.01 16.43,-42.64 9.52,-18.95 21.33,-36.77 35.41,-52.65 19.72,-22.18 42.69,-41.52 68.14,-56.83 28.54,-17.1 60.85,-28.41 94.15,-30.74 16.97,-0.75 34.19,-0.61 50.79,3.43 17.52,3.89 34.13,11.57 48.58,22.19 14.55,10.46 26.41,24.13 36.88,38.56 5.91,-3.66 11.26,-8.14 17.08,-11.95 13.72,-9.57 27.93,-18.46 42.8,-26.13 18.59,-9.69 38.11,-17.93 58.65,-22.43 8.98,-1.89 18.04,-3.88 27.28,-3.75 C 636,246.45 698,246.77 760,246.42 c 19.27,-0.2 38.55,0.23 57.81,-0.35 2.66,-10.36 5.59,-20.65 8.11,-31.04 3.73,-15.12 -0.76,-32.83 -13.36,-42.61 -5.99,-4.99 -13.6,-7.12 -20.91,-9.32 1.4,-5.35 2.74,-10.72 4.38,-16.01 18.65,-0.24 37.3,0.26 55.94,-0.44 -2.62,-6.28 -5.62,-12.62 -5.91,-19.55 -0.97,-15.51 5.87,-30.59 16.12,-41.94 10.6,-12.17 24.07,-21.66 38.8,-28.18 10.54,-4.96 22.1,-7.7 31.95,-14.1 8.19,-4.83 15.27,-11.3 21.63,-18.34 4.41,-4.9 7.67,-10.75 10.11,-16.87 1.06,-2.75 2.11,-5.65 4.39,-7.67 m 239.65,429.78 c -13.88,5.59 -26.2,14.66 -36.54,25.38 -13.43,14.18 -23.12,32.98 -22.9,52.85 -0.22,11.88 4.07,23.81 12.01,32.69 5.44,6.1 11.95,11.61 19.85,14.18 5.51,2.02 11.37,2.79 17.23,2.72 23.11,0.08 46.22,0.29 69.32,0.2 3.06,-12.23 6.4,-24.38 9.6,-36.57 2.67,-10.39 5.8,-20.7 7.63,-31.29 1.75,-11.32 1.73,-23.12 -1.61,-34.16 -2.34,-7.76 -6.37,-15.18 -12.5,-20.59 -6.66,-5.75 -15.13,-9.2 -23.83,-10.24 -12.89,-1.48 -26.21,-0.07 -38.26,4.83 z"
       id="path5"
       inkscape:connector-curvature="0"
       style="opacity:1;fill:#ffffff;fill-opacity:1" />
    <path
       d="m 1067.46,780.63 c 18.61,-2.48 38.6,2.4 52.6,15.28 12.21,10.93 18.67,26.99 20.59,43.02 2.14,19.26 -1.34,39.88 -12.93,55.79 -8.88,12.35 -23.03,20.13 -37.78,22.98 -16.78,3.03 -35,0.37 -49.2,-9.42 -11.92,-7.76 -20.26,-20.19 -24.43,-33.65 -4.54,-13.7 -4.47,-28.53 -1.95,-42.61 2.42,-12.74 8.07,-25.09 17.44,-34.22 9.42,-9.66 22.28,-15.69 35.66,-17.17 m 4.01,14.97 c -11.27,1.22 -22.01,6.81 -29.41,15.4 -6.24,7.54 -9.08,17.26 -10.25,26.83 -1.22,10.38 -1.29,21.05 1.2,31.26 3.37,14.06 13.56,26.45 27.14,31.69 16.09,5.96 35.88,3.01 48.12,-9.5 10.72,-10.36 14.54,-25.79 14.52,-40.27 0.3,-13.4 -2.31,-27.45 -10.4,-38.43 -9.17,-12.68 -25.57,-18.93 -40.92,-16.98 z"
       id="path7"
       inkscape:connector-curvature="0"
       style="opacity:1;fill:#ffffff;fill-opacity:1" />
    <path
       d="m 54.21,782.33 c 6.09,0.13 12.18,-0.05 18.27,0.12 21.97,33.03 44.17,65.92 66.19,98.92 1.31,2.02 2.68,4 4.19,5.89 0.41,-34.98 -0.16,-69.97 0.28,-104.95 5.57,0.11 11.14,0.11 16.71,0 0.45,22.89 0.06,45.8 0.19,68.69 -0.12,21.9 0.25,43.81 -0.18,65.7 -6.02,-0.4 -12.22,0.56 -18.12,-0.46 -19.67,-28.7 -38.75,-57.85 -58.24,-86.69 -4.12,-5.88 -7.73,-12.13 -12.2,-17.75 -0.12,28.4 -0.02,56.8 -0.05,85.2 -0.14,6.56 0.33,13.14 -0.29,19.69 -5.58,-0.07 -11.17,-0.07 -16.75,0 -0.13,-44.79 -0.15,-89.58 0,-134.36 z"
       id="path9"
       inkscape:connector-curvature="0"
       style="opacity:1;fill:#ffffff;fill-opacity:1" />
    <path
       d="m 180.34,782.36 c 35.47,0.04 70.94,0.07 106.4,-0.02 0.09,5.24 0.05,10.49 0.05,15.75 -14.81,0.4 -29.64,0 -44.46,0.19 0.08,29.9 0.01,59.81 0.03,89.72 -0.21,9.56 0.43,19.17 -0.32,28.71 -5.7,-0.1 -11.4,-0.1 -17.1,0 -0.43,-2.89 -0.38,-5.81 -0.34,-8.72 0.06,-36.56 -0.06,-73.13 0.06,-109.7 -14.79,-0.28 -29.6,0.35 -44.36,-0.31 0.07,-5.21 0.02,-10.42 0.04,-15.62 z"
       id="path11"
       inkscape:connector-curvature="0"
       style="opacity:1;fill:#ffffff;fill-opacity:1" />
    <path
       d="m 311.16,782.32 c 32.24,0.11 64.49,0.12 96.73,0 0.44,5.26 0.26,10.55 0.18,15.84 -26.38,0.21 -52.76,0.04 -79.14,0.08 -0.38,13.65 -0.19,27.32 -0.11,40.98 24.7,0.24 49.4,0.08 74.1,0.08 0.45,5.21 0.28,10.44 0.18,15.67 -24.76,0.17 -49.51,-0.02 -74.27,0.09 -0.11,15.24 -0.25,30.5 0.07,45.74 27.43,0.03 54.86,-0.1 82.29,0.06 0.1,5.27 0.39,10.58 -0.19,15.84 -33.28,-0.11 -66.56,-0.09 -99.85,-0.01 -0.5,-27.55 -0.07,-55.13 -0.21,-82.7 0.14,-17.22 -0.3,-34.45 0.22,-51.67 z"
       id="path13"
       inkscape:connector-curvature="0"
       style="opacity:1;fill:#ffffff;fill-opacity:1" />
    <path
       d="m 440.03,782.32 c 16.32,0.16 32.64,0.03 48.97,0.07 11.34,0.06 22.9,-0.54 33.95,2.51 4.62,1.19 9.05,3.34 12.58,6.59 13.94,12.69 15.93,36.96 2.92,50.99 -7.24,8.11 -18.13,11.41 -28.54,13 3.47,2.42 7.38,4.22 10.5,7.14 10.5,9.57 17.2,22.29 24.95,34 4.15,6.71 8.71,13.17 12.64,20.01 -7.4,-0.25 -14.95,0.55 -22.25,-0.36 -8.27,-12.16 -15.69,-24.91 -24.03,-37.04 -4.25,-5.97 -8.34,-12.28 -14.11,-16.91 -3.9,-2.95 -8.58,-5.07 -13.53,-5.1 -8.8,-0.33 -17.62,-0.12 -26.42,-0.16 -0.31,19.85 -0.14,39.71 -0.08,59.57 -5.86,0.04 -11.72,-0.04 -17.57,0.08 -0.69,-12.22 -0.1,-24.48 -0.3,-36.71 0,-28.67 0,-57.33 0,-86 0.01,-3.9 -0.2,-7.81 0.32,-11.68 m 17.36,15 c 0.11,14.78 0.09,29.55 0.01,44.33 13.54,0.01 27.09,0.04 40.64,-0.02 7.63,-0.13 15.75,-0.9 22.21,-5.35 9.5,-6.64 11.55,-21.63 3.98,-30.46 -5.27,-6.55 -14.18,-8.37 -22.17,-8.5 -14.89,-0.05 -29.78,-0.06 -44.67,0 z"
       id="path15"
       inkscape:connector-curvature="0"
       style="opacity:1;fill:#ffffff;fill-opacity:1" />
    <path
       d="m 578.17,782.32 c 6.01,0.36 12.14,-0.46 18.09,0.41 15,21.72 29.44,43.86 44.26,65.72 8.8,12.87 17.09,26.11 26.24,38.73 0.11,-30.06 0.01,-60.12 0.05,-90.18 0.04,-4.89 -0.23,-9.8 0.28,-14.67 5.57,0.07 11.15,0.09 16.73,-0.01 0.21,44.79 0.2,89.59 0.01,134.38 -6.1,-0.15 -12.21,0.06 -18.3,-0.15 -13.87,-21.1 -28.1,-41.96 -42.08,-62.98 -9.5,-13.91 -18.49,-28.19 -28.3,-41.87 -0.38,35 0.17,70.01 -0.28,105.01 -5.57,-0.1 -11.15,-0.1 -16.72,-0.01 -0.42,-34.89 -0.06,-69.8 -0.18,-104.7 0.11,-9.9 -0.23,-19.8 0.2,-29.68 z"
       id="path17"
       inkscape:connector-curvature="0"
       style="opacity:1;fill:#ffffff;fill-opacity:1" />
    <path
       d="m 753.78,782.82 c 6.15,-1.09 12.69,-0.09 18.99,-0.46 18.59,44.66 36.81,89.5 55.12,134.28 -6.77,-0.07 -13.54,0.17 -20.29,-0.14 -5.21,-13.49 -10.29,-27.04 -15.65,-40.47 -18.67,-0.1 -37.34,0.01 -56.01,-0.05 -5.35,13.44 -9.69,27.27 -15.12,40.68 -6.22,-0.03 -12.45,-0.01 -18.66,-0.01 8.28,-21.82 16.78,-43.55 25.09,-65.35 8.92,-22.8 17.38,-45.79 26.53,-68.48 m 8.99,14.14 c -4.27,22.43 -14.58,43.04 -21.71,64.6 14.99,-0.01 29.98,-0.07 44.97,0.03 -0.33,-2.29 -1.1,-4.48 -1.97,-6.61 -7.32,-19.25 -14.77,-38.5 -21.29,-58.02 z"
       id="path19"
       inkscape:connector-curvature="0"
       style="opacity:1;fill:#ffffff;fill-opacity:1" />
    <path
       d="m 832.29,782.34 c 35.48,0.08 70.98,0.09 106.47,-0.01 0.11,5.26 0.06,10.51 0.06,15.77 -14.83,0.37 -29.66,0 -44.49,0.18 0.02,39.39 0.13,78.78 -0.05,118.16 -5.88,0.25 -11.76,0.23 -17.63,0.01 -0.19,-39.38 -0.12,-78.77 -0.03,-118.15 -14.8,-0.24 -29.6,0.23 -44.39,-0.23 0.01,-5.25 -0.04,-10.49 0.06,-15.73 z"
       id="path21"
       inkscape:connector-curvature="0"
       style="opacity:1;fill:#ffffff;fill-opacity:1" />
    <path
       d="m 965.23,782.33 c 5.87,0.08 11.74,0.09 17.61,-0.02 0.36,22.89 0.04,45.79 0.15,68.69 -0.1,21.9 0.19,43.81 -0.14,65.71 -5.88,-0.1 -11.75,-0.09 -17.62,-0.02 -0.1,-44.79 -0.11,-89.58 0,-134.36 z"
       id="path23"
       inkscape:connector-curvature="0"
       style="opacity:1;fill:#ffffff;fill-opacity:1" />
    <path
       d="m 1168.37,782.36 c 6.07,0.05 12.14,-0.02 18.21,0.05 22.78,33.92 45.52,67.85 68.24,101.8 0.69,1 1.44,1.96 2.22,2.94 0.55,-34.92 0.03,-69.87 0.25,-104.81 5.56,0.05 11.11,0.09 16.67,-0.03 0.8,10.2 0.12,20.47 0.35,30.7 0,30.33 0,60.66 0,90.99 -0.04,4.23 0.22,8.48 -0.31,12.7 -5.92,-0.1 -11.83,-0.05 -17.75,-0.04 -21.79,-31.91 -43.06,-64.2 -64.64,-96.26 -2.02,-2.87 -3.62,-6.06 -6.16,-8.52 -0.07,29.38 -0.01,58.75 -0.03,88.13 -0.18,5.56 0.42,11.17 -0.35,16.71 -5.57,-0.14 -11.14,-0.05 -16.71,-0.07 0.07,-44.76 0.04,-89.53 0.01,-134.29 z"
       id="path25"
       inkscape:connector-curvature="0"
       style="opacity:1;fill:#ffffff;fill-opacity:1" />
    <path
       d="m 1345.28,782.39 c 6.35,0.05 12.72,-0.17 19.08,0.13 16.05,39.01 32,78.05 48.02,117.07 2.2,5.69 4.91,11.2 6.69,17.05 -6.61,0.01 -13.22,0.01 -19.82,-0.01 -5.42,-13.39 -10.57,-26.88 -15.62,-40.41 -18.81,-0.44 -37.65,-0.25 -56.46,-0.1 -4.88,13.49 -9.86,26.94 -14.64,40.47 -6.2,0.12 -12.41,0.03 -18.6,0.06 2.35,-8.44 6.16,-16.4 9.09,-24.65 14.12,-36.52 28.02,-73.13 42.26,-109.61 m 9.08,14.61 c -2.4,10.55 -5.4,20.97 -9.45,31.01 -4.25,11.18 -8.3,22.43 -12.68,33.56 15.2,-0.03 30.41,-0.09 45.62,0.03 -7.75,-21.56 -16.6,-42.74 -23.49,-64.6 z"
       id="path27"
       inkscape:connector-curvature="0"
       style="opacity:1;fill:#ffffff;fill-opacity:1" />
    <path
       d="m 1435.17,782.32 c 5.84,0.1 11.69,0.08 17.55,0.02 0.19,39.48 -0.21,78.98 0.2,118.46 22.01,0.04 44.03,-0.11 66.04,0.06 0.05,5.28 0.14,10.57 -0.1,15.85 -27.9,-0.12 -55.81,-0.1 -83.71,-0.01 -0.3,-29.23 -0.04,-58.47 -0.13,-87.7 0.1,-15.56 -0.2,-31.13 0.15,-46.68 z"
       id="path29"
       inkscape:connector-curvature="0"
       style="opacity:1;fill:#ffffff;fill-opacity:1" />
    <path
       d="m 2.19,785.09 c 5.9,-0.21 11.81,-0.18 17.71,-0.03 -0.01,44.71 -0.02,89.41 0.01,134.11 -5.9,0.17 -11.81,0.26 -17.71,-0.05 0.01,-44.68 0.03,-89.36 -0.01,-134.03 z"
       id="path31"
       inkscape:connector-curvature="0"
       style="opacity:1;fill:#ffffff;fill-opacity:1" />
  </g>
</svg>
