<svg height="40.84243pt" viewBox="0 0 113.94809 40.84243" width="113.94809pt" xmlns="http://www.w3.org/2000/svg" xmlns:xlink="http://www.w3.org/1999/xlink"><linearGradient id="a" gradientUnits="userSpaceOnUse" x1="0" x2="115.22194" y1="40.84211" y2="-66.740372"><stop offset="0" stop-color="#cdcdce"/><stop offset=".07943378" stop-color="#cacbca"/><stop offset=".17469028" stop-color="#c9ced1"/><stop offset=".2381946" stop-color="#d7d7db"/><stop offset=".30728319" stop-color="#fff"/><stop offset=".34934616" stop-color="#fff"/><stop offset=".39140916" stop-color="#fff"/><stop offset=".4438422" stop-color="#dce0e7"/><stop offset=".57245964" stop-color="#e9eaf4"/><stop offset=".79014593" stop-color="#d3d4d7"/><stop offset="1" stop-color="#c9c9cd"/></linearGradient><linearGradient id="b" gradientUnits="userSpaceOnUse" x1="0" x2="115.22194" y1="40.84211" y2="-66.740372"><stop offset="0" stop-color="#cdcdce"/><stop offset=".07943378" stop-color="#cacbca"/><stop offset=".17469028" stop-color="#c9ced1"/><stop offset=".2381946" stop-color="#d7d7db"/><stop offset=".30728319" stop-color="#fff"/><stop offset=".34934616" stop-color="#fff"/><stop offset=".39455414" stop-color="#fff"/><stop offset=".50003946" stop-color="#dce0e7"/><stop offset=".57245964" stop-color="#e9eaf4"/><stop offset=".79014593" stop-color="#d3d4d7"/><stop offset="1" stop-color="#c9c9cd"/></linearGradient><g fill="url(#a)"><path d="m133.87109 18.337891a18.059001 18.059 0 0 0 -18.05859 18.058593 18.059001 18.059 0 0 0 18.05859 18.060547 18.059001 18.059 0 0 0 18.06055-18.060547 18.059001 18.059 0 0 0 -18.06055-18.058593zm3.05469 6.595703h2.94141l-6.22657 22.519531-3.9082.599609 5.41406-18.410156-6.02734 4.050781 1.73633-4.105468z" fill="url(#a)" transform="scale(.75)"/><path d="m54.966868.00082h.18378c.0476.32275-.0652.64209-.0284.96541.0284.55587.32161 1.06807.72491 1.4396.42655.40839 1.01589.56268 1.50313.87919.71526.41917 1.25809 1.15882 1.36529 1.98923.0908.70108-.135 1.40897-.50936 1.99774-.24617.40159-.57686.74079-.91606 1.06297 1.05559.0181 2.11176-.009 3.16735.0267-.0681.29155-.12422.58877-.23256.86898-.0709.0573-.16506.0681-.24844.0942-1.28305.27226-2.41068 1.15259-3.03179 2.3012-.19966.35395-.27793.75611-.3857 1.14352-.10267.39875-.22916.79127-.31254 1.19513 5.11177.0289 10.22411.017 15.33645.0369 1.23087.0278 2.47137-.0454 3.69203.15259 1.84743.25354 3.69486.87748 5.1475 2.07885 1.58481 1.29496 2.59219 3.22634 2.88034 5.2411.21327 1.45548.15599 2.94386-.0902 4.39197-.1764 1.14976-.52297 2.263215-.81112 3.388005-.34033 1.32219-.71356 2.635295-1.03801 3.961445-.0981.39989-.18888.80432-.20533 1.21725-.0284.87465-.0131 1.77086.28701 2.6041.26943.72888.63982 1.4379 1.19059 1.99548.69711.77028 1.6438 1.28191 2.63587 1.56325.3131.0936.63982.13046.95406.22179-6.05279.0357-12.10615.0193-18.1595.0204-.86955-.008-1.73966-.0131-2.60921-.017-1.27567.0193-2.55418-.15599-3.78164-.50086-.90585-.2439-1.76405-.64209-2.55816-1.1384-1.59105-.95463-2.82531-2.45322-3.56837-4.14467-.70959-1.62905-.83835-3.45322-.63699-5.202525.0947-.82587.28248-1.63756.50653-2.436775.28758-1.09813.60068-2.18946.87408-3.29157-.82133-.0357-1.64323-.0102-2.46513-.0216-.12308.0102-.32615-.0448-.34033.135-1.47704 5.537755-2.97166 11.07097-4.442448 16.60986-1.75157.0261-3.50371.004-5.25528.0113-1.53263-.002-3.06468.003-4.59722-.002 1.47978-5.57973 2.99029-11.150945 4.47186-16.73011-.56268-.0335-1.12649-.0142-1.68974-.0221-.47079.007-.94215-.017-1.41181.0136-.2422 1.14238-.57402 2.26264-.86728 3.39254-1.18433 4.44926-2.37663 8.89738-3.57113 13.34438-3.2785.007-6.5571.004-9.8356.001.2621-1.10551.582-2.19683.8684-3.29667.9995-3.7323 1.9898-7.467425 2.9813-11.202.152-.57856.2666-1.17754.2229-1.77823-.017-.26035-.144-.52468-.3777-.6557-.3999-.2354-.9036-.22349-1.3307-.072-.468.16676-.8231.5451-1.0868.95406-.3284.5088-.5474 1.07998-.7124 1.66082-1.0789 4.010235-2.156 8.02103-3.2321 12.03184-.2172.78616-.4078 1.5797-.6426 2.36133-3.2774-.005-6.5548.006-9.8322-.006 1.2331-4.6977 2.506-9.38576 3.7391-14.08403.1952-.7493.4186-1.51788.312-2.30007-.053-.29496-.2808-.54453-.561-.64323-.5139-.18151-1.1066-.0737-1.5434.24617-.4787.35111-.7879.88089-1.0266 1.41351-.2808.62111-.4277 1.28929-.6081 1.94386-1.2087 4.47082-2.4169 8.94277-3.6058 13.41926-3.2836.0227-6.5684 0-9.8526.0113v-.0862c.1605-.45661.2632-.9308.3936-1.39592 1.341-4.99152 2.6796-9.983045 4.0205-14.974.211-.84062.5451-1.6455.9319-2.41862.54-1.07488 1.2099-2.08566 2.0086-2.98641 1.1185-1.25809 2.4214-2.35509 3.865-3.2235 1.6188-.96994 3.4515-1.61147 5.3403-1.74363.9626-.0425 1.9394-.0346 2.8809.19456.9938.22064 1.936.65627 2.7556 1.25865.8253.59331 1.498 1.3687 2.0919 2.1872.3352-.2076.6387-.46172.9688-.67783.7782-.54283 1.5842-1.04708 2.4277-1.48214 1.0545-.54963 2.1617-1.01702 3.3267-1.27227.5094-.1072 1.0233-.22008 1.5474-.21271 3.5162-.0301 7.0329-.0119 10.54965-.0318 1.09303-.0113 2.18663.013 3.27909-.0199.15088-.58764.31708-1.17131.46002-1.76065.21157-.85763-.0431-1.86218-.75781-2.41692-.33976-.28304-.77141-.40386-1.18605-.52865.0794-.30346.15542-.60805.24844-.90811 1.05787-.0136 2.11573.0147 3.17302-.025-.14861-.35621-.31877-.71583-.33522-1.10891-.055-.87976.33295-1.73512.91435-2.37892.601248-.6903 1.365298-1.22859 2.200808-1.59842.59785-.28134 1.25355-.43676 1.81226-.79978.46456-.27396.86615-.64095 1.2269-1.04028.25014-.27793.43505-.60976.57346-.95689.0601-.15599.11968-.32048.249-.43506m13.59339 24.37792c-.78729.31707-1.48611.83154-2.07261 1.4396-.76178.80431-1.31141 1.87068-1.29893 2.997755-.0125.67385.23086 1.35054.68123 1.85423.30856.346005.67782.658535 1.12593.804315.31253.11458.64492.15825.97731.15428 1.31085.005 2.62169.0164 3.93196.0113.17357-.69371.36302-1.382875.54453-2.074315.15145-.58934.32899-1.17414.43279-1.774835.0993-.64209.0981-1.31141-.0913-1.93762-.13273-.44016-.36132-.86103-.70903-1.1679-.37776-.32615-.8582-.52184-1.35168-.58083-.73114-.084-1.48668-.004-2.17018.27397z" fill="url(#b)" stroke-width=".056722"/></g></svg>