<?xml version="1.0" encoding="UTF-8"?>
<svg id="svg2" width="609.46" height="595" version="1.1" viewBox="0 0 571.37 557.81" xmlns="http://www.w3.org/2000/svg" xmlns:cc="http://creativecommons.org/ns#" xmlns:dc="http://purl.org/dc/elements/1.1/" xmlns:rdf="http://www.w3.org/1999/02/22-rdf-syntax-ns#">
 <metadata id="metadata30">
  <rdf:RDF>
   <cc:Work rdf:about="">
    <dc:format>image/svg+xml</dc:format>
    <dc:type rdf:resource="http://purl.org/dc/dcmitype/StillImage"/>
    <dc:title/>
   </cc:Work>
  </rdf:RDF>
 </metadata>
 <path id="path6" d="m403.16 353.11c-1.02-8.83-2.29-21.53-2.29-32.71 0-6.94 0.91-34.84 0.91-57.34 0-18.98-4.08-52.7-4.08-71.02 0-11.02 0.82-25.97-0.41-31.22 8.78-5.72 16.48-9.34 40.67-24.03 7.85-4.75 22.85-12.76 22.85-22.4 0-4.28-1.17-7.09-7.24-12.09-4.29-3.419-8.83-4.388-13.98-4.388-12.35 0-17.96 12.348-28.27 18.668-15.81 9.65-24.18 14.44-27.39 16.23-1.33-0.61-6.69-3.78-15.31-3.78-9.03 0-19.54 4.03-19.54 15.77 0 5.35 1.69 11.17-5.46 14.95-4.03 2.55-23.67 13.77-44.59 26.37-17.6 10.66-25.81 9.8-33.26 14.29-6.84 4.13-8.67 9.28-8.67 13.77 0 3.98 2.55 8.98 3.42 10.1 4.74 6.07 8.97 9.34 16.42 9.34 12.66 0 23.11-11.02 42.65-24.9 12.15-8.67 23.32-17.65 29.85-17.65 5.82 0 9.9 4.39 9.9 22.5 0 60.56-3.73 70.15-3.73 112.19 0 7.55 0.31 21.53 0.56 27.34h-32.09v-99.23l-61.83 52.14-61.83-52.14v99.23h-200.42v-353.1h195.1l67.14 70.66 67.14-70.66h196.06v150.96c-6.22 9.59-25.15 42.04-37.9 75.2-4.19 10.81-6.13 18.62-11.59 18.62-6.07 0-6.53-5.92-7.14-11.28-1.22-11.63-3.82-33.31-5.05-41.27-2.29-15.46-5.36-31.78-22.6-31.78-12.81 0-26.17 6.99-26.17 26.07 0 10.81 5.46 29.64 14.84 54.38 3.68 9.75 23.32 61.22 26.18 68.67 5.15 13.68 12.39 17.4 23.56 17.4 14.39 0 19.34-5.26 25.26-25.41 5-17.14 13.52-45.15 20.61-62.65v114.16h-122.3zm168.21-195.97v195.97h-32.25v-143.36c6.89-14.95 23.52-41.07 32.25-52.6m-32.25-26.12v-131.02l32.25 19.386v71.732c-7.96 8.265-24.49 28.422-32.25 39.892m-259.12-98.871-17.75 18.673-48.11-50.56 61.02 26.784 4.85 5.102zm2.14 274.98h22.25l6.02-5.05v-18.77zm-68.06 45.97h26.53v-47.45l-26.53-22.34z" fill="#2bd16c"/>
 <path id="path12" d="m571.34 557.81h-571.34l2.1131e-5 -191.01h571.34v191.01z" fill="#2bd16c"/>
 <path id="path16" d="m98.295 411.42h30.445l5.67 27.55c0.61 3.07 1.13 5.61 1.54 7.64 0.4 2.05 0.75 3.99 1.07 5.82 0.29 1.85 0.58 3.76 0.84 5.73 0.26 1.99 0.52 4.42 0.84 7.29l0.75 0.14c1.04-2.77 1.91-5.03 2.6-6.88 0.73-1.86 1.45-3.59 2.23-5.27 0.76-1.71 1.59-3.5 2.52-5.44s2.08-4.29 3.5-7.04l14.71-29.54h30.15l4.58 101.9h-27.7l-0.61-33.2v-16.99c0-1.12 0.12-3.27 0.32-6.51 0.2-3.18 0.46-6.68 0.75-10.47l-0.75-0.15c-1.33 3.36-2.49 6.25-3.45 8.65-0.98 2.41-1.93 4.66-2.89 6.81-0.98 2.14-2.03 4.39-3.15 6.8-1.13 2.4-2.55 5.35-4.29 8.8l-18.2 36.26h-14.1l-7.03-33.52c-0.81-3.56-1.45-6.59-1.91-9.08-0.46-2.52-0.87-4.89-1.21-7.21-0.38-2.29-0.7-4.66-0.99-7.12-0.32-2.43-0.66-5.44-1.1-9h-0.9c-0.72 3.47-1.33 6.42-1.85 8.86-0.49 2.46-1.04 4.77-1.68 6.97-0.6 2.2-1.27 4.52-1.99 6.95-0.7 2.46-1.62 5.47-2.75 9.03l-10.567 34.12h-27.987z"/>
 <path id="path18" d="m243.82 411.42-9.49 59.67c-0.2 1.13-0.32 2.29-0.38 3.53-0.05 1.22-0.08 2.38-0.08 3.51 0 8.48 4.48 12.7 13.48 12.7 2.96 0 5.5-0.4 7.73-1.21 2.17-0.81 4.05-2.12 5.64-3.91 1.6-1.8 2.9-4.14 3.91-7.03 1.01-2.93 1.88-6.46 2.61-10.65l9.17-56.61h27.55l-10.1 63.35c-1.85 10.91-5.35 19.79-10.56 26.63-3.97 5.2-8.83 8.94-14.53 11.17-5.73 2.23-13.23 3.35-22.49 3.35-7.06 0-13.37-0.95-18.98-2.89-5.62-1.94-10.19-4.69-13.78-8.28-5.3-5.41-7.96-13.2-7.96-23.41 0-2.23 0.12-4.55 0.32-6.95s0.49-4.77 0.93-7.12l9.17-55.85z"/>
 <path id="path20" d="m306.66 477.98c3.68 4.69 7.44 8.13 11.35 10.33 3.85 2.2 8.1 3.3 12.67 3.3 3.19 0 5.68-0.84 7.5-2.55 1.85-1.68 2.75-3.85 2.75-6.48 0-2.05-0.87-3.94-2.58-5.67-1.73-1.74-4.77-3.74-9.06-5.96-5.18-2.67-9.26-5.1-12.21-7.27-2.98-2.2-5.15-4.48-6.6-6.8-1.21-1.94-2.2-4.11-2.89-6.45-0.73-2.35-1.07-4.63-1.07-6.86 0-9.61 2.86-17.46 8.56-23.59 3.16-3.47 7.18-6.25 12.07-8.39 4.92-2.17 9.75-3.25 14.56-3.25 6.71 0 12.73 1.02 18.06 3.07 5.3 2.03 10.39 5.27 15.28 9.73l-12.39 19.97c-3.56-3.59-6.71-6.02-9.4-7.35-2.72-1.34-5.85-1.97-9.41-1.97-2.66 0-4.77 0.69-6.37 2.14-1.56 1.42-2.37 3.33-2.37 5.67 0 3.56 3.01 6.83 9.03 9.81 3.16 1.74 5.85 3.16 8.05 4.29s3.76 1.94 4.66 2.46c3.99 2.34 7.14 5.61 9.49 9.81 2.34 4.19 3.53 8.71 3.53 13.63 0 5.61-0.7 10.39-2.08 14.33-1.39 3.93-3.71 7.55-6.95 10.82-3.39 3.44-7.73 6.25-13 8.33-5.32 2.12-10.73 3.16-16.23 3.16-2.98 0-5.65-0.12-8.02-0.32-2.43-0.2-4.66-0.55-6.74-1.07-2.09-0.49-4.14-1.19-6.14-2.05-1.99-0.87-4.05-1.97-6.19-3.3-2.66-1.54-4.83-3.04-6.51-4.52-1.68-1.47-3.53-3.39-5.59-5.73z"/>
 <path id="path22" d="m389.3 411.42h27.7l-16.38 101.9h-27.56z"/>
 <path id="path24" d="m490.5 511.64c-2.35 1.42-5.62 2.52-9.79 3.3-4.19 0.76-9.08 1.13-14.7 1.13-7.55 0-14.35-1.13-20.43-3.44-6.08-2.29-11.23-5.56-15.46-9.79-4.22-4.22-7.49-9.37-9.78-15.36-2.31-6.02-3.44-12.82-3.44-20.38 0-8.25 1.44-16.09 4.37-23.47 2.89-7.41 7.12-13.83 12.62-19.36 10.18-10.31 23.24-15.46 39.15-15.46 13.17 0 24.03 2.72 32.59 8.11l-4.28 27.84c-3.45-3.56-7.55-6.31-12.3-8.22-4.75-1.97-9.93-2.92-15.54-2.92-4.2 0-7.99 0.78-11.46 2.37-3.48 1.56-6.49 3.79-8.98 6.66-2.48 2.83-4.42 6.25-5.78 10.24-1.39 3.97-2.09 8.37-2.09 13.17 0 8.25 2.43 14.62 7.27 19.1 4.86 4.49 11.8 6.75 20.89 6.75 3.88 0 7.5-0.5 10.86-1.45 3.38-0.96 6.83-2.49 10.41-4.52z"/>
</svg>
