<?xml version="1.0" encoding="UTF-8" standalone="no"?>
<svg
   xmlns:dc="http://purl.org/dc/elements/1.1/"
   xmlns:cc="http://creativecommons.org/ns#"
   xmlns:rdf="http://www.w3.org/1999/02/22-rdf-syntax-ns#"
   xmlns:svg="http://www.w3.org/2000/svg"
   xmlns="http://www.w3.org/2000/svg"
   xmlns:sodipodi="http://sodipodi.sourceforge.net/DTD/sodipodi-0.dtd"
   xmlns:inkscape="http://www.inkscape.org/namespaces/inkscape"
   height="595.10394"
   viewBox="0 0 571.37 557.90601"
   width="609.4613"
   version="1.1"
   id="svg2"
   inkscape:version="0.92.0 r15299"
   sodipodi:docname="MTV Classic.svg">
  <metadata
     id="metadata38">
    <rdf:RDF>
      <cc:Work
         rdf:about="">
        <dc:format>image/svg+xml</dc:format>
        <dc:type
           rdf:resource="http://purl.org/dc/dcmitype/StillImage" />
        <dc:title />
      </cc:Work>
    </rdf:RDF>
  </metadata>
  <defs
     id="defs36" />
  <sodipodi:namedview
     pagecolor="#ffffff"
     bordercolor="#666666"
     borderopacity="1"
     objecttolerance="10"
     gridtolerance="10"
     guidetolerance="10"
     inkscape:pageopacity="0"
     inkscape:pageshadow="2"
     inkscape:window-width="1920"
     inkscape:window-height="1017"
     id="namedview34"
     showgrid="false"
     fit-margin-top="0"
     fit-margin-left="0"
     fit-margin-right="0"
     fit-margin-bottom="0"
     inkscape:zoom="0.42300732"
     inkscape:cx="-84.15411"
     inkscape:cy="278.95699"
     inkscape:window-x="-8"
     inkscape:window-y="-8"
     inkscape:window-maximized="1"
     inkscape:current-layer="svg2" />
  <path
     style="fill:#6ac4fc;fill-opacity:1"
     inkscape:connector-curvature="0"
     id="path6"
     d="m 403.16,353.10802 c -1.02,-8.83 -2.29,-21.53 -2.29,-32.71 0,-6.94 0.91,-34.84 0.91,-57.34 0,-18.98 -4.08,-52.7 -4.08,-71.02 0,-11.02 0.82,-25.97 -0.41,-31.22 8.78,-5.72 16.48,-9.34 40.67,-24.03 7.85,-4.75 22.85,-12.76 22.85,-22.4 0,-4.28 -1.17,-7.09 -7.24,-12.09 -4.29,-3.419004 -8.83,-4.388004 -13.98,-4.388004 -12.35,0 -17.96,12.348004 -28.27,18.668004 -15.81,9.65 -24.18,14.44 -27.39,16.23 -1.33,-0.61 -6.69,-3.78 -15.31,-3.78 -9.03,0 -19.54,4.03 -19.54,15.77 0,5.35 1.69,11.17 -5.46,14.95 -4.03,2.55 -23.67,13.77 -44.59,26.37 -17.6,10.66 -25.81,9.8 -33.26,14.29 -6.84,4.13 -8.67,9.28 -8.67,13.77 0,3.98 2.55,8.98 3.42,10.1 4.74,6.07 8.97,9.34 16.42,9.34 12.66,0 23.11,-11.02 42.65,-24.9 12.15,-8.67 23.32,-17.65 29.85,-17.65 5.82,0 9.9,4.39 9.9,22.5 0,60.56 -3.73,70.15 -3.73,112.19 0,7.55 0.31,21.53 0.56,27.34 h -32.09 v -99.23 l -61.83,52.14 -61.83,-52.14 v 99.23 H 0 V -0.00198364 H 195.1 L 262.24,70.658016 329.38,-0.00198364 H 525.44 V 150.95802 c -6.22,9.59 -25.15,42.04 -37.9,75.2 -4.19,10.81 -6.13,18.62 -11.59,18.62 -6.07,0 -6.53,-5.92 -7.14,-11.28 -1.22,-11.63 -3.82,-33.31 -5.05,-41.27 -2.29,-15.46 -5.36,-31.78 -22.6,-31.78 -12.81,0 -26.17,6.99 -26.17,26.07 0,10.81 5.46,29.64 14.84,54.38 3.68,9.75 23.32,61.22 26.18,68.67 5.15,13.68 12.39,17.4 23.56,17.4 14.39,0 19.34,-5.26 25.26,-25.41 5,-17.14 13.52,-45.15 20.61,-62.65 v 114.16 h -122.3 z m 168.21,-195.97 v 195.97 h -32.25 v -143.36 c 6.89,-14.95 23.52,-41.07 32.25,-52.6 m -32.25,-26.12 V 0.00801636 L 571.37,19.394016 v 71.732 c -7.96,8.265 -24.49,28.422004 -32.25,39.892004 M 280,32.147016 l -17.75,18.673 -48.11,-50.55999964 61.02,26.78399964 4.85,5.102 z m 2.14,274.980004 h 22.25 l 6.02,-5.05 v -18.77 z m -68.06,45.97 h 26.53 v -47.45 l -26.53,-22.34 z" />
  <rect
     height="191.00999"
     width="571.34003"
     y="366.89801"
     x="0.009997"
     id="rect12"
     style="fill:#6ac4fc;stroke-width:5.71610022;fill-opacity:1" />
  <g
     style="stroke-width:5.71610022;fill:#000000;fill-opacity:1"
     id="g16"
     transform="translate(0,-0.00198364)">
    <path
       inkscape:connector-curvature="0"
       id="path18"
       d="m 227.97,470.41 h -9.71 -4.57 c 0.57,-1.15 0.57,-1.72 1.14,-2.29 0,-0.57 0.58,-1.14 0.58,-1.72 0,-0.57 0.57,-1.14 0.57,-1.71 0,-0.57 0.57,-1.14 1.14,-2.29 l 2.28,-5.15 c 0.58,-1.71 1.15,-2.86 1.72,-4.57 0.57,-1.14 1.14,-2.29 1.14,-3.43 0.57,-1.15 0.57,-2.29 1.14,-3.43 0.58,-1.15 0.58,-2.86 1.15,-4.58 h 0.57 v 4.58 3.43 c 0,1.14 0,2.29 0.57,3.43 0,1.14 0.57,2.86 0.57,4.57 l 1.71,8.58 c 0,1.15 0,1.72 0.58,2.29 0,0.57 0.57,1.14 0.57,2.29 0,0.57 -0.57,0 -1.15,0 m 16,-58.91 h -27.42 l -52.57,101.8 h 30.86 l 9.14,-20.02 h 30.28 l 4,20.02 h 27.99 z"
       style="fill:#000000;fill-opacity:1" />
    <path
       inkscape:connector-curvature="0"
       id="path20"
       d="m 140.56,489.28 c -0.57,0 -1.14,0 -2.29,0.57 0.58,-1.14 0.58,-1.71 0.58,-2.29 0,-0.57 0,-1.14 0.57,-2.86 l 11.42,-73.2 h -27.42 l -16,101.8 h 53.14 l 4,-24.02 z"
       style="fill:#000000;fill-opacity:1" />
    <path
       inkscape:connector-curvature="0"
       id="path22"
       d="m 86.282,409.22 c -15.997,0 -29.138,5.14 -39.422,15.44 -5.714,5.72 -9.713,12.01 -12.57,19.44 -2.857,7.44 -4.571,15.44 -4.571,23.45 0,7.43 1.143,14.3 3.428,20.59 2.286,6.29 5.714,10.86 9.713,15.44 4,4 9.142,7.43 15.427,9.72 6.284,2.29 13.14,3.43 20.568,3.43 5.713,0 10.284,-0.57 14.855,-1.14 h 1.142 l 5.142,-28.03 c -2.285,2.86 -13.712,5.15 -21.139,4.58 -5.142,-1.14 -9.713,-2.86 -13.141,-5.72 -4.571,-4.57 -7.427,-10.87 -7.427,-18.87 0,-4.58 0.571,-9.15 2.285,-13.16 1.143,-4 3.428,-7.43 5.713,-10.29 2.286,-2.86 5.714,-5.15 9.142,-6.86 3.428,-1.72 7.427,-2.29 11.427,-2.29 6.856,0 14.856,3.43 19.426,9.72 l 4.57,-30.31 c -6.86,-4 -14.855,-5.14 -24.568,-5.14"
       style="fill:#000000;fill-opacity:1" />
  </g>
  <polygon
     id="polygon24"
     points="77.5,89.8 80.3,72 75.5,72 72.6,89.8 "
     transform="matrix(5.7134,0,0,5.7189,0.0096541,-0.25655364)"
     style="fill:#000000;fill-opacity:1" />
  <g
     style="stroke-width:5.71610022;fill:#000000;fill-opacity:1"
     id="g26"
     transform="translate(0,-0.00198364)">
    <path
       inkscape:connector-curvature="0"
       id="path28"
       d="m 516.5,409.22 c -16,0 -29.14,5.14 -39.42,15.44 -5.71,5.72 -9.71,12.01 -12.57,19.44 -2.86,7.44 -4.57,15.44 -4.57,23.45 0,7.43 1.14,14.3 3.43,20.59 2.28,6.29 5.71,10.86 9.71,15.44 4,4 9.14,7.43 15.43,9.72 6.28,2.29 13.14,3.43 20.57,3.43 5.71,0 10.28,-0.57 14.85,-1.14 h 1.14 l 5.14,-27.45 c -2.28,2.86 -13.71,5.14 -21.13,4.57 -5.15,-1.14 -9.72,-2.86 -13.15,-6.29 -4.57,-4.57 -7.42,-10.87 -7.42,-18.87 0,-4.58 0.57,-9.15 2.28,-13.16 1.14,-4 3.43,-7.43 5.72,-10.29 2.28,-2.86 5.71,-5.15 9.14,-6.86 3.43,-1.72 7.42,-2.29 11.42,-2.29 6.86,0 15.43,3.43 19.43,9.72 l 0.57,-4.57 4,-25.74 c -6.86,-4 -15.43,-5.14 -24.57,-5.14"
       style="fill:#000000;fill-opacity:1" />
    <path
       inkscape:connector-curvature="0"
       id="path30"
       d="m 274.25,478.41 c 3.43,4.58 7.43,8.01 11.43,10.3 4,2.29 8,3.43 12.57,3.43 3.43,0 5.71,-0.57 7.43,-2.29 1.71,-1.71 2.85,-4 2.85,-6.29 0,-2.29 -1.14,-4 -2.85,-5.72 -1.72,-1.71 -4.57,-4 -9.14,-5.72 -5.15,-2.86 -9.15,-5.14 -12,-7.43 -2.86,-2.29 -5.14,-4.58 -6.86,-6.86 -1.14,-1.72 -2.28,-4.01 -2.86,-6.29 -0.57,-3.44 -0.57,-5.72 -0.57,-8.01 0,-9.72 2.86,-17.73 8.57,-23.45 3.43,-3.43 7.43,-6.29 12,-8.58 5.14,-2.28 9.71,-3.43 14.29,-3.43 6.85,0 12.56,1.15 18.28,2.86 5.14,2.29 10.28,5.15 15.42,9.72 l -12.56,20.02 c -3.43,-3.43 -6.86,-6.29 -9.15,-7.43 -2.85,-1.15 -5.71,-1.72 -9.14,-1.72 -2.85,0 -4.57,0.57 -6.28,2.29 -1.72,1.14 -2.29,3.43 -2.29,5.72 0,3.43 2.86,6.86 9.14,9.72 3.43,1.71 5.72,3.43 8,4.57 2.29,1.15 4,1.72 4.57,2.29 4,2.29 6.86,5.72 9.72,9.72 2.28,4.01 3.42,8.58 3.42,13.73 0,5.72 -0.57,10.29 -2.28,14.3 -1.14,4 -3.43,7.43 -6.86,10.86 -3.43,3.43 -7.43,6.29 -13.14,8.58 -5.14,2.29 -10.85,3.43 -16,3.43 -2.85,0 -5.71,0 -7.99,-0.57 -2.29,0 -4.58,-0.57 -6.86,-1.15 -2.29,-0.57 -4,-1.14 -6.29,-2.28 -2.28,-1.15 -4,-1.72 -6.28,-3.43 -2.86,-1.72 -4.57,-2.86 -6.29,-4.58 -1.71,-1.71 -3.42,-3.43 -5.71,-5.72 z"
       style="fill:#000000;fill-opacity:1" />
    <path
       inkscape:connector-curvature="0"
       id="path32"
       d="m 347.39,478.41 c 3.42,4.58 7.42,8.01 11.42,10.3 4,2.29 8,3.43 12.57,3.43 3.43,0 5.72,-0.57 7.43,-2.29 1.71,-1.71 2.86,-4 2.86,-6.29 0,-2.29 -1.15,-4 -2.86,-5.72 -1.71,-1.71 -4.57,-4 -9.14,-5.72 -5.14,-2.86 -9.14,-5.14 -12,-7.43 -2.86,-2.29 -5.14,-4.58 -6.86,-6.86 -1.14,-1.72 -2.28,-4.01 -2.85,-6.29 -0.57,-2.29 -1.15,-4.58 -1.15,-6.87 0,-9.72 2.86,-17.73 8.57,-23.44 3.43,-3.44 7.43,-6.3 12,-8.58 5.14,-2.29 9.72,-3.43 14.29,-3.43 6.85,0 12.57,1.14 18.28,2.86 5.14,2.28 10.28,5.14 15.43,9.72 l -12.57,20.01 c -3.43,-3.43 -6.86,-6.29 -9.15,-7.43 -2.85,-1.14 -5.71,-1.72 -9.14,-1.72 -2.85,0 -4.57,0.58 -6.28,2.29 -1.72,1.14 -2.29,3.43 -2.29,5.72 0,3.43 2.86,6.86 9.14,9.72 3.43,1.72 5.72,3.43 8,4.58 2.29,1.14 4,1.71 4.57,2.28 4,2.29 6.86,5.72 9.72,9.73 2.28,4 3.42,8.57 3.42,13.72 0,5.72 -0.57,10.3 -2.28,14.3 -1.14,4 -3.43,7.43 -6.86,10.86 -3.43,3.44 -7.42,6.3 -13.14,8.58 -5.14,2.29 -10.85,3.43 -16,3.43 -2.85,0 -5.71,0 -7.99,-0.57 -2.29,0 -4.58,-0.57 -6.86,-1.14 -2.29,-0.57 -4,-1.15 -6.29,-2.29 -1.71,-1.14 -3.99,-1.71 -6.28,-3.43 -2.86,-1.72 -4.57,-2.86 -6.28,-4.58 -1.72,-1.71 -3.43,-3.43 -5.72,-5.71 z"
       style="fill:#000000;fill-opacity:1" />
  </g>
</svg>
