<svg width="235.2pt" height="230.95pt" version="1.1" viewBox="0 0 235.2 230.95" xmlns="http://www.w3.org/2000/svg">
 <g transform="matrix(.8 0 0 .8 .40833 218.48)">
  <path d="m-0.51042-81.411h294v97h-294v-97" fill="#fe3c4c"/>
 </g>
 <path d="m43.303 194.16c1-6.28 2.056-12.552 3.064-18.832 2.992-0.056 5.984-0.064 8.968-0.024-0.704 7.392-2.728 14.64-2.984 22.072-0.144 5.296 8.472 4.808 9.648 0.384 2.16-7.304 2.52-15 4.024-22.456 3.008-0.032 6.008-0.032 9.008 0-1.384 7.528-2.24 15.144-3.728 22.656-1.048 5.168-4.8 10.288-10.336 10.968-5.24 0.65601-11.44 0.67201-15.432-3.32-2.864-3.04-2.752-7.576-2.232-11.448z" fill="#fff"/>
 <path d="m16.559 196.66c1.1125 1.4855 2.4099 2.5981 3.7073 3.3408 1.2974 0.73952 2.5916 1.1125 4.0771 1.1125 1.1093 0 1.852-0.18812 2.4067-0.74276 0.55789-0.55789 0.92765-1.2974 0.92765-2.0402 0-0.74276-0.36976-1.2974-0.92765-1.8553-0.55464-0.55788-1.4823-1.2974-2.9646-1.8553-1.6672-0.92765-2.9646-1.6704-3.8922-2.4099-0.9244-0.74276-1.6672-1.4855-2.2218-2.2283-0.373-0.55464-0.74276-1.2974-0.92765-2.0402-0.18488-0.73952-0.36976-1.4823-0.36976-2.225 0-3.1527 0.9244-5.7508 2.7797-7.6061 1.1125-1.1125 2.4099-2.0402 3.8922-2.7829 1.6672-0.73952 3.1495-1.1125 4.6317-1.1125 2.2251 0 4.0771 0.373 5.9292 0.92764 1.6672 0.74277 3.3376 1.6704 5.0048 3.1527l-4.0771 6.4935c-1.1125-1.1125-2.2251-2.0402-2.9646-2.4099-0.92765-0.373-1.8553-0.55788-2.9646-0.55788-0.92765 0-1.4823 0.18488-2.0402 0.74277-0.55464 0.36976-0.73952 1.1125-0.73952 1.8553 0 1.1125 0.9244 2.225 2.9646 3.1527 1.1125 0.55464 1.852 1.1125 2.5948 1.4823 0.73952 0.373 1.2974 0.55788 1.4823 0.74276 1.2974 0.74277 2.2218 1.8553 3.1495 3.1527 0.74277 1.3007 1.1125 2.7829 1.1125 4.4534 0 1.8553-0.18488 3.3376-0.74276 4.6382-0.36976 1.2974-1.1125 2.4099-2.2218 3.5225-1.1125 1.1125-2.4099 2.0402-4.262 2.7829-1.6704 0.74277-3.5225 0.92765-5.1896 0.92765-0.92765 0-1.8553 0-2.5948-0.18488-0.74277 0-1.4823-0.18488-2.2251-0.37301-0.73952-0.18488-1.2974-0.36976-2.0369-0.73952-0.55788-0.373-1.2974-0.55789-2.0402-1.1125-0.9244-0.55788-1.4823-0.92764-2.0369-1.4855s-1.1125-1.1125-1.852-1.8553z" fill="#fff" stroke-width="5.7161"/>
 <path d="m84.053 175.27h9.859l1.8361 8.9216c0.19753 0.99417 0.36594 1.8167 0.4987 2.4741 0.12954 0.66385 0.2429 1.2921 0.34651 1.8847 0.09393 0.59911 0.18783 1.2176 0.27203 1.8556 0.0842 0.64444 0.16841 1.4314 0.272 2.3608l0.24287 0.0453c0.33681-0.89702 0.61853-1.6289 0.84198-2.228 0.2364-0.60232 0.46957-1.1625 0.72214-1.7066 0.24613-0.55377 0.5149-1.1334 0.81607-1.7616 0.30116-0.62823 0.67358-1.3892 1.1334-2.2798l4.7637-9.5661h9.7637l1.4831 32.997h-8.9701l-0.2018-10.751v-5.5019c0-0.36271 0.0389-1.0589 0.10363-2.1082 0.0648-1.0298 0.14897-2.1632 0.24287-3.3905l-0.24287-0.0486c-0.4307 1.0881-0.80633 2.0239-1.1172 2.8012-0.31734 0.78043-0.62498 1.509-0.93588 2.2053-0.31734 0.69301-0.65737 1.4216-1.02 2.202-0.36593 0.77721-0.82579 1.7325-1.3893 2.8497l-5.8937 11.742h-4.5661l-2.2765-10.855c-0.26227-1.1528-0.46954-2.1341-0.6185-2.9404-0.14898-0.81607-0.28174-1.5835-0.39184-2.3348-0.12307-0.74157-0.22666-1.509-0.3206-2.3057-0.10363-0.7869-0.21374-1.7616-0.3562-2.9145h-0.29146c-0.23315 1.1237-0.43071 2.079-0.59907 2.8691-0.15871 0.79664-0.33681 1.5447-0.54404 2.2571-0.1943 0.71244-0.41127 1.4637-0.64444 2.2506-0.22666 0.79664-0.5246 1.7714-0.89054 2.9242l-3.4221 11.049h-9.0632z" fill="#fff" stroke-width=".99495"/>
 <path d="m130.62 175.27h9.859l1.8361 8.9216c0.19753 0.99417 0.36593 1.8167 0.49869 2.4741 0.12955 0.66385 0.24291 1.2921 0.34651 1.8847 0.0939 0.59911 0.18783 1.2176 0.27203 1.8556 0.0842 0.64444 0.16841 1.4314 0.272 2.3608l0.24287 0.0453c0.33681-0.89701 0.61854-1.6289 0.84198-2.228 0.2364-0.60233 0.46957-1.1625 0.72213-1.7066 0.24613-0.55376 0.51491-1.1334 0.81608-1.7616 0.30116-0.62824 0.67357-1.3892 1.1334-2.2798l4.7637-9.5661h9.7637l1.4831 32.997h-8.9702l-0.20179-10.75v-5.5019c0-0.36271 0.0389-1.0589 0.10363-2.1081 0.0648-1.0298 0.14897-2.1632 0.24287-3.3905l-0.24287-0.0486c-0.4307 1.0881-0.80633 2.024-1.1172 2.8012-0.31734 0.78043-0.62498 1.509-0.93588 2.2053-0.31734 0.693-0.65737 1.4216-1.02 2.202-0.36592 0.7772-0.8258 1.7325-1.3893 2.8497l-5.8937 11.742h-4.5661l-2.2765-10.855c-0.26227-1.1528-0.46954-2.1341-0.61851-2.9404-0.14897-0.81607-0.28173-1.5836-0.39184-2.3348-0.12306-0.74157-0.22666-1.509-0.3206-2.3057-0.10363-0.78691-0.21374-1.7616-0.3562-2.9145h-0.29146c-0.23314 1.1237-0.4307 2.079-0.59907 2.8692-0.1587 0.79664-0.33681 1.5447-0.54404 2.2571-0.19431 0.71243-0.41127 1.4637-0.64444 2.2506-0.22666 0.79664-0.52461 1.7714-0.89053 2.9242l-3.4221 11.049h-9.0632z" fill="#fff" stroke-width=".99495"/>
 <path d="m174.3 175.26h19.183l-1.115 7.6453h-10.061l-0.55751 3.7297c0 0.37167-0.18583 0.55751-0.18583 0.74334 0 0.1891-0.18583 0.37493-0.18583 0.7466 0.37166 0 0.55751-0.18583 0.74334-0.18583h9.3146l-1.3041 7.4562h-9.8721l-0.5575 3.9156c0 0.37493-0.1891 0.56077-0.1891 0.7466s-0.18583 0.37493-0.18583 0.7466c0.37493 0 0.56076-0.18584 0.7466-0.18584h9.3146l-1.1183 7.642h-19.187z" fill="#fff" stroke-width="5.7161"/>
 <path d="m206.97 187.74c-0.0658 0.36612-0.13154 0.63828-0.16881 0.81648-0.0564 0.1782-0.13121 0.44064-0.22517 0.76788 0.3564-0.0648 0.62822-0.094 0.81582-0.094h2.4005c2.6814 0 4.013-1.1826 4.013-3.5251 0-1.9148-1.0886-2.8706-3.2724-2.8706h-2.8223l-0.74066 4.9054zm4.9594 20.525-3.3748-6.9952c-0.36579-0.75816-0.66581-1.3964-0.91886-1.931-0.24397-0.52489-0.46915-1.0238-0.66581-1.4904-0.19699-0.46008-0.38459-0.9558-0.57218-1.4839-0.1782-0.5346-0.40306-1.1696-0.66582-1.931l-0.25305 0.0486c-0.0282 0.78732-0.0658 1.471-0.0936 2.0347-0.0282 0.56052-0.0846 1.0951-0.15033 1.6038-0.0654 0.51516-0.14061 1.0498-0.22485 1.6103-0.0846 0.56377-0.19699 1.2571-0.31882 2.0833l-1.041 6.4509h-8.9268l5.3074-33.016h11.195c8.0384 0 12.049 3.2724 12.049 9.8075 0 2.8123-0.75815 5.103-2.2777 6.8656-1.5195 1.7723-3.6839 2.8868-6.4897 3.3469 0.15876 0.27216 0.30132 0.48601 0.41472 0.64801 0.11988 0.16848 0.23328 0.32724 0.3564 0.49572 0.11016 0.16848 0.22355 0.34668 0.33695 0.54432 0.11988 0.19764 0.26244 0.45036 0.4212 0.73872l6.1981 10.569h-10.306z" fill="#fff"/>
 <path d="m165.96 145.35c-0.41987-3.6348-0.94266-8.8627-0.94266-13.465 0-2.8568 0.3746-14.342 0.3746-23.604 0-7.813-1.6795-21.694-1.6795-29.235 0-4.5363 0.33754-10.69-0.16878-12.851 3.6142-2.3546 6.7839-3.8447 16.741-9.8918 3.2314-1.9553 9.406-5.2526 9.406-9.2208 0-1.7618-0.48162-2.9185-2.9803-4.9768-1.766-1.4074-3.6348-1.8063-5.7548-1.8063-5.0838 0-7.3931 5.083-11.637 7.6845-6.5081 3.9724-9.9535 5.9441-11.275 6.6809-0.54748-0.2511-2.7539-1.556-6.3022-1.556-3.7171 0-8.0435 1.6589-8.0435 6.4916 0 2.2023 0.69568 4.598-2.2476 6.1541-1.6589 1.0497-9.7436 5.6683-18.355 10.855-7.2449 4.3881-10.624 4.0341-13.691 5.8824-2.8156 1.7001-3.5689 3.82-3.5689 5.6683 0 1.6383 1.0497 3.6965 1.4078 4.1576 1.9512 2.4987 3.6924 3.8447 6.7592 3.8447 5.2114 0 9.513-4.5363 17.557-10.25 5.0015-3.5689 9.5995-7.2655 12.288-7.2655 2.3958 0 4.0753 1.8071 4.0753 9.2619 0 24.929-1.5354 28.877-1.5354 46.182 0 3.1079 0.12761 8.8627 0.23052 11.254h-13.21v-40.847l-25.452 21.463-25.452-21.463v40.847h-82.501v-145.35h80.311l27.638 29.087 27.638-29.087h80.707v62.142c-2.5604 3.9476-10.353 17.305-15.601 30.955-1.7248 4.4499-2.5234 7.6648-4.7709 7.6648-2.4987 0-2.688-2.4369-2.9391-4.6433-0.5022-4.7874-1.5725-13.712-2.0788-16.988-0.94266-6.364-2.2064-13.082-9.3031-13.082-5.2731 0-10.773 2.8774-10.773 10.732 0 4.4499 2.2476 12.201 6.1088 22.385 1.5148 4.0135 9.5995 25.201 10.777 28.267 2.12 5.6313 5.1003 7.1626 9.6983 7.1626 5.9235 0 7.9612-2.1652 10.398-10.46 2.0582-7.0555 5.5654-18.586 8.484-25.789v46.993h-50.344zm69.242-80.67v80.67h-13.275v-59.013c2.8362-6.1541 9.6818-16.906 13.275-21.652m-13.275-10.752v-53.933l13.275 7.9801v29.528c-3.2767 3.4022-10.081 11.7-13.275 16.421m-106.66-40.699-7.3066 7.6866-19.804-20.813 25.118 11.025 1.9965 2.1002zm0.88091 113.19h9.159l2.4781-2.0788v-7.7265zm-28.016 18.923h10.921v-19.532l-10.921-9.1961z"/>
</svg>
