<?xml version="1.0" encoding="UTF-8" standalone="no"?>
<svg
   xmlns:dc="http://purl.org/dc/elements/1.1/"
   xmlns:cc="http://creativecommons.org/ns#"
   xmlns:rdf="http://www.w3.org/1999/02/22-rdf-syntax-ns#"
   xmlns:svg="http://www.w3.org/2000/svg"
   xmlns="http://www.w3.org/2000/svg"
   xmlns:sodipodi="http://sodipodi.sourceforge.net/DTD/sodipodi-0.dtd"
   xmlns:inkscape="http://www.inkscape.org/namespaces/inkscape"
   width="1536.75pt"
   height="1499.4705pt"
   viewBox="0 0 1536.75 1499.4705"
   version="1.1"
   id="svg22"
   sodipodi:docname="MTV Pride.svg"
   inkscape:version="0.92.0 r15299">
  <metadata
     id="metadata28">
    <rdf:RDF>
      <cc:Work
         rdf:about="">
        <dc:format>image/svg+xml</dc:format>
        <dc:type
           rdf:resource="http://purl.org/dc/dcmitype/StillImage" />
        <dc:title />
      </cc:Work>
    </rdf:RDF>
  </metadata>
  <defs
     id="defs26" />
  <sodipodi:namedview
     pagecolor="#ffffff"
     bordercolor="#666666"
     borderopacity="1"
     objecttolerance="10"
     gridtolerance="10"
     guidetolerance="10"
     inkscape:pageopacity="0"
     inkscape:pageshadow="2"
     inkscape:window-width="1920"
     inkscape:window-height="1017"
     id="namedview24"
     showgrid="false"
     fit-margin-top="0"
     fit-margin-left="0"
     fit-margin-right="0"
     fit-margin-bottom="0"
     inkscape:zoom="0.354"
     inkscape:cx="835.6788"
     inkscape:cy="1133.7032"
     inkscape:window-x="-8"
     inkscape:window-y="-8"
     inkscape:window-maximized="1"
     inkscape:current-layer="svg22" />
  <g
     id="g4526"
     transform="matrix(1.5006152,0,0,1.5006152,0,-1.14467)">
    <path
       d="m 0,657.55 c 341.36,0 682.71,-0.01 1024.07,0 0.01,114.15 0.01,228.3 0.01,342.45 H 0 V 657.55"
       id="path2"
       inkscape:connector-curvature="0"
       style="opacity:1;fill:#b04e98"
       sodipodi:nodetypes="ccccc" />
    <path
       d="m 176.84,736.08 h 51.22 c 18.73,-0.29 38.17,1.27 55.18,9.77 15.4,7.53 24.67,24.39 25.85,41.12 0.77,16.43 -2.43,33.58 -11.69,47.42 -6.77,10.19 -17.51,17.49 -29.34,20.43 -11.75,3.13 -24,2.44 -36.03,2.52 -8.02,-0.03 -16.05,0.05 -24.08,-0.05 l -10.57,64.95985 h -50.2 L 176.84,736.08 m 44.13,41.39 -7.23,40.41 c 9.26949,0 18.18,0.34 27.15,-1.26 3.6,-0.68 7.17,-2.23 9.54,-5.11 4.93,-5.89 6.17,-14.29 4.38,-21.62 -1.16,-4.75 -4.8,-8.68 -9.36,-10.39 -7.79,-3.07 -18.17771,-2.03 -24.48,-2.03 z"
       id="path11"
       inkscape:connector-curvature="0"
       style="opacity:1;fill:#ffffff"
       sodipodi:nodetypes="cccccccccccccccccc" />
    <path
       d="m 333.52,736.08 h 53.49 c 18.64,-0.24 38.5,0.21 55.02,9.96 11.64,6.64 19.28,18.95 21.39,32.05 2.84,17.31 0.69,36.64 -10.62,50.69 -9.11,11.64 -23.41,17.89 -37.71,20.23 l 43.59,73.23985 -57.99,0 L 365.03,843.58 353.89,922.24985 H 303.64 L 333.52,736.08 m 36.92,79.25 c 8.09994,0 17.09,0.4 25.52,-1.11 5.67,-0.94 11.3,-4.26 13.5,-9.79 2.2,-5.61 2.53,-12.27 -0.04,-17.82 -2.41,-5.05 -8.17,-7.29 -13.45,-7.61 -6.37,-0.34 -12.74273,-0.15 -19.12,-0.15 z"
       id="path13"
       inkscape:connector-curvature="0"
       style="opacity:1;fill:#ffffff"
       sodipodi:nodetypes="ccccccccccccccccccc" />
    <path
       d="m 503.92,736.09 50.54,-0.01 -29.87,186.16985 H 474.3 Z"
       id="path15"
       inkscape:connector-curvature="0"
       style="opacity:1;fill:#ffffff"
       sodipodi:nodetypes="ccccc" />
    <path
       d="m 587.72,736.08 c 23.11,0.01 46.22,-0.03 69.34,0.02 16.14,0.13 32.39,4.79 45.6,14.19 13.98,9.84 23.77,24.86 28.72,41.09 7.93,27.1 4.21,57.2 -9.08,82 -11.32,21.14 -31.02,38.07 -54.27,44.5 -12.35,3.57 -25.29,4.56985 -38.09,4.36985 l -71.85,5e-5 29.63,-186.16985 m 44.47,41.9 -17.05,101.91 c 21.92006,0 31.32056,0.97581 45.21,-6.55 11.24,-6.37 17.93,-18.37 21.56,-30.39 3.41,-11.71 4.54,-24.22 2.65,-36.3 -1.63,-9.87 -7.43,-19.28 -16.52,-23.87 -10.98,-5.9 -23.4365,-4.8 -35.85,-4.8 z"
       id="path17"
       inkscape:connector-curvature="0"
       style="opacity:1;fill:#ffffff"
       sodipodi:nodetypes="cccccccccccccccc" />
    <path
       d="m 769.01,736.0902 h 107.84 l -6.75,42.76996 h -56.71 l -5.51,29.48991 h 57.48 l -7.27,40.87973 h -56.11 l -5.53,30.70041 h 56.91 l -6.7,42.31964 H 739.38 Z"
       id="path19"
       inkscape:connector-curvature="0"
       style="opacity:1;fill:#ffffff"
       sodipodi:nodetypes="ccccccccccccc" />
  </g>
  <path
     style="fill:#db7528;fill-opacity:1;stroke-width:6.53379965"
     d="m 0,185.46976 v 183.00001 h 944.27643 c 9.36375,-15.59203 29.33325,-21.43213 47.15917,-21.43213 23.1842,0 37.6011,8.52537 41.1782,10.16601 8.6337,-4.81437 31.1447,-17.69633 73.667,-43.65088 27.7297,-16.99819 42.8191,-50.21045 76.0357,-50.21045 13.8513,0 26.0612,2.60652 37.5996,11.80225 16.3257,13.44794 19.4721,21.00662 19.4721,32.51807 0,25.9276 -40.3428,47.47056 -61.456,60.24609 -0.323,0.19612 -0.6081,0.36637 -0.9287,0.56104 h 236.2134 V 185.46976 H 709.66554 l -4.34765,4.57617 -4.34766,-4.57617 z m 1450.0108,0 v 166.92042 c 20.8713,-30.84953 65.3303,-85.06453 86.7392,-107.29395 v -59.62647 z"
     id="path4-88-0"
     inkscape:connector-curvature="0" />
  <path
     style="fill:#d02530;fill-opacity:1;stroke-width:6.53379965"
     d="M 0,0 V 185.46973 H 700.9702 L 524.7392,0 Z m 885.8965,0 -176.231,185.46973 h 703.5513 V 0 Z m 564.1142,0.0264 V 185.46976 H 1536.75 V 52.16751 Z m -874.062,0.67822 129.3955,135.98585 47.7407,-50.22217 0.026,-0.003 -13.0444,-13.72266 z"
     id="path4-88-3-5"
     inkscape:connector-curvature="0" />
  <path
     style="fill:#f9c22f;fill-opacity:1;stroke-width:6.53379965"
     d="m 0,368.46978 v 212.99999 h 692.0068 c -0.3169,-1.83885 -0.5142,-3.66426 -0.5142,-5.41405 0,-12.07623 4.9221,-25.92762 23.3189,-37.03566 20.0375,-12.07621 42.1183,-9.7636 89.4551,-38.43456 56.2661,-33.88882 109.0907,-64.06489 119.9297,-70.92334 19.2305,-10.16661 14.685,-25.82065 14.685,-40.20996 0,-8.39994 2.0013,-15.33123 5.3951,-20.98242 z m 1177.0035,0 c -64.3013,39.02064 -84.9599,48.76128 -108.4571,64.06932 3.308,14.12033 1.103,54.32998 1.103,83.96925 0,17.59273 1.4062,40.498 3.2052,64.96142 h 59.9399 c -10.7339,-34.28897 -16.6421,-61.38908 -16.6421,-79.80761 0,-51.3174 35.932,-70.11768 70.3857,-70.11768 46.3684,0 54.6261,43.89406 60.7852,85.4751 1.9815,12.82351 5.2799,38.88706 8.3159,64.45019 h 66.457 c 33.387,-79.32116 76.0754,-152.25323 91.1207,-175.45019 v -37.5498 z m 359.7464,54.1992 c -23.4801,31.011 -68.2078,101.26236 -86.7391,141.4717 v 17.32909 h 86.7391 z m -596.9003,91.23048 c -17.5631,0 -47.6067,24.15246 -80.2852,47.4712 -9.8836,7.02069 -18.8999,13.76851 -27.2563,20.09911 h 134.1548 c 0.01,-2.35446 0.014,-4.64073 0.014,-7.05468 0,-48.70852 -10.9732,-60.51563 -26.6265,-60.51563 z"
     id="path4-8-3-9"
     inkscape:connector-curvature="0"
     sodipodi:nodetypes="cccscccsccccsccsscccccccccccscccsss" />
  <path
     style="fill:#66ac0d;fill-opacity:1;stroke-width:6.53379965"
     d="M 0,581.46978 V 779.4698 h 539.0479 v -96.6636 l 114.6269,96.6636 h 103.3389 l 114.6284,-96.6636 v 96.6636 h 87.6635 c 2.8974,-50.29359 6.9664,-97.42538 7.1529,-198.00002 H 832.3096 c -36.0777,27.3315 -59.8089,46.87206 -87.4556,46.87206 -20.0373,0 -31.4135,-8.79477 -44.1621,-25.12059 -1.9574,-2.51994 -7.0635,-12.34089 -8.6851,-21.75147 z m 1072.8546,0 c 3.2392,44.05266 7.768,93.2312 7.768,126.05273 0,23.19397 -0.3607,48.47792 -0.8042,71.94729 h 126.3662 c -18.7928,-49.22508 -43.1434,-113.06413 -50.1196,-131.54738 -9.2463,-24.38735 -17.0607,-46.61493 -23.2705,-66.45264 z m 182.7846,0 c 2.0327,17.11548 3.9502,34.00551 5.2661,46.5498 1.6406,14.41617 2.8784,30.33838 19.2041,30.33838 14.6851,0 19.9025,-21.00558 31.1719,-50.08008 3.4517,-8.97709 7.0783,-17.93041 10.8149,-26.8081 z m 194.3716,0 V 779.4698 h 86.7391 V 581.46978 Z m -36.7939,61.1001 c -15.1757,37.45748 -32.7117,92.61973 -46.0489,136.89992 h 46.0489 z M 575.7876,761.98393 v 17.48587 h 20.7641 z m 259.0869,0 -20.7524,17.48587 h 20.7524 z"
     id="path4-5-1-2"
     inkscape:connector-curvature="0"
     sodipodi:nodetypes="cccccccccccsccccscccccccscccccccccccccccccscc" />
  <path
     style="fill:#258dcd;fill-opacity:1;stroke-width:6.53379965"
     d="m 0,779.46981 v 170.2236 h 539.0478 v -170.2236 z m 575.7876,0 v 170.22067 h 71.354 V 822.0704 l -50.5899,-42.60059 z m 77.8872,0 51.6694,43.57177 51.6695,-43.57177 z m 160.4473,0 -55.2818,46.58054 h 59.8433 l 16.1909,-13.58204 v -32.9985 z m 57.52,0 v 170.2236 h 86.3086 c -0.6723,-15.62656 -1.5059,-53.22721 -1.5059,-73.53368 0,-39.78668 1.2507,-68.7408 2.8608,-96.68992 z m 208.1763,0 c -0.7136,37.76482 -1.6436,70.76264 -1.6436,82.27439 0,30.02663 3.4065,64.12388 6.148,87.86866 h 328.8941 V 779.46981 h -46.0489 c -3.4219,11.36085 -6.638,22.18987 -9.3838,31.60252 -15.9223,54.19522 -29.2348,68.34225 -67.938,68.34225 -30.0427,0 -49.516,-10.0053 -63.3676,-46.7988 -2.2705,-5.91435 -12.4256,-32.532 -20.2955,-53.14597 z m 4.5044,170.14305 h -0.043 l 0.054,0.10695 c -0.01,-0.0338 -0.01,-0.0728 -0.012,-0.10695 z m 365.688,-170.14305 v 170.25 h 86.7391 v -170.25 z"
     id="path4-5"
     inkscape:connector-curvature="0"
     sodipodi:nodetypes="ccccccccccccccccccccccccscccscccccsccccccccccccc" />
</svg>
