<?xml version="1.0" encoding="UTF-8" standalone="no"?>
<svg
   xmlns:dc="http://purl.org/dc/elements/1.1/"
   xmlns:cc="http://creativecommons.org/ns#"
   xmlns:rdf="http://www.w3.org/1999/02/22-rdf-syntax-ns#"
   xmlns:svg="http://www.w3.org/2000/svg"
   xmlns="http://www.w3.org/2000/svg"
   xmlns:sodipodi="http://sodipodi.sourceforge.net/DTD/sodipodi-0.dtd"
   xmlns:inkscape="http://www.inkscape.org/namespaces/inkscape"
   height="557.21539"
   width="571.37347"
   version="1.1"
   viewBox="0 0 151.17589 147.43001"
   id="svg2"
   inkscape:version="0.91 r13725"
   sodipodi:docname="MTV Live HD - Dark.svg">
  <metadata
     id="metadata36">
    <rdf:RDF>
      <cc:Work
         rdf:about="">
        <dc:format>image/svg+xml</dc:format>
        <dc:type
           rdf:resource="http://purl.org/dc/dcmitype/StillImage" />
        <dc:title></dc:title>
      </cc:Work>
    </rdf:RDF>
  </metadata>
  <defs
     id="defs34" />
  <sodipodi:namedview
     pagecolor="#ffffff"
     bordercolor="#666666"
     borderopacity="1"
     objecttolerance="10"
     gridtolerance="10"
     guidetolerance="10"
     inkscape:pageopacity="0"
     inkscape:pageshadow="2"
     inkscape:window-width="1920"
     inkscape:window-height="1017"
     id="namedview32"
     showgrid="false"
     fit-margin-top="0"
     fit-margin-left="0"
     fit-margin-right="0"
     fit-margin-bottom="0"
     inkscape:zoom="1.1979269"
     inkscape:cx="405.45206"
     inkscape:cy="319.79794"
     inkscape:window-x="-8"
     inkscape:window-y="-8"
     inkscape:window-maximized="1"
     inkscape:current-layer="svg2" />
  <path
     style="stroke-width:0.26458001"
     inkscape:connector-curvature="0"
     id="path10"
     d="m 106.67294,93.427 c -0.27,-2.336 -0.61,-5.696 -0.61,-8.654 0,-1.837 0.24,-9.218 0.24,-15.172 0,-5.021 -1.08,-13.943 -1.08,-18.79 0,-2.916 0.22,-6.872 -0.11,-8.261 2.33,-1.513 4.36,-2.471 10.76,-6.358 2.08,-1.256 6.05,-3.376 6.05,-5.926 0,-1.133 -0.31,-1.876 -1.92,-3.199 -1.13,-0.905 -2.33,-1.161 -3.69,-1.161 -3.27,0 -4.76,3.267 -7.48,4.939 -4.19,2.553 -6.4,3.821 -7.25,4.294 -0.35,-0.161 -1.769997,-1 -4.049997,-1 -2.39,0 -5.17,1.067 -5.17,4.173 0,1.415 0.45,2.955 -1.45,3.955 -1.06,0.675 -6.26,3.644 -11.79,6.977 -4.66,2.821 -6.83,2.593 -8.8,3.781 -1.81,1.093 -2.3,2.456 -2.3,3.644 0,1.053 0.68,2.376 0.91,2.672 1.25,1.606 2.37,2.471 4.34,2.471 3.35,0 6.12,-2.916 11.29,-6.588 3.21,-2.294 6.17,-4.67 7.89,-4.67 1.54,0 2.62,1.162 2.62,5.953 0,16.023 -0.98,18.561 -0.98,29.684 0,1.997 0.08,5.696 0.14,7.233 l -8.49,0 0,-26.254 -16.36,13.795 -16.35,-13.795 0,26.254 -53.02999952,0 0,-93.424 51.61999952,0 17.76,18.696 17.77,-18.696 51.869997,0 0,39.942 c -1.65,2.537 -6.65,11.123 -10.03,19.896 -1.11,2.86 -1.62,4.927 -3.06,4.927 -1.61,0 -1.73,-1.567 -1.89,-2.985 -0.33,-3.077 -1.01,-8.813 -1.34,-10.919 -0.61,-4.091 -1.42,-8.409 -5.98,-8.409 -3.39,0 -6.92,1.85 -6.92,6.898 0,2.86 1.44,7.842 3.92,14.388 0.98,2.58 6.17,16.198 6.93,18.169 1.36,3.62 3.28,4.604 6.23,4.604 3.81,0 5.12,-1.392 6.69,-6.723 1.32,-4.535 3.57,-11.946 5.45,-16.576 l 0,30.205 -32.36,0 z m 44.503,-51.85 0,51.85 -8.533,0 0,-37.931 c 1.82,-3.955 6.223,-10.866 8.533,-13.917 m -8.533,-6.911 0,-34.665 8.533,5.1289 0,18.979 c -2.106,2.187 -6.483,7.52 -8.533,10.555 m -68.559997,-26.16 -4.7,4.9405 -12.72,-13.377 16.14,7.0863 1.28,1.3499 z m 0.57,72.755 5.88,0 1.6,-1.336 0,-4.966 z m -18.01,12.163 7.02,0 0,-12.554 -7.02,-5.911 z" />
  <path
     d="m 151.17291,147.43 -151.172966521135,0 0,-50.386 151.172966521135,0 z"
     id="path16"
     inkscape:connector-curvature="0"
     style="fill:#340433;fill-opacity:1" />
  <g
     id="g4191"
     transform="translate(-0.15499874,0)">
    <path
       inkscape:connector-curvature="0"
       id="path20"
       d="m 13.792943,108.78 7.31,0 -3.11,19.38 c -0.06,0.32 -0.1,0.55 -0.12,0.69 -0.03,0.13 -0.09,0.33 -0.16,0.6 0.29,-0.06 0.5,-0.08 0.64,-0.08 l 7.43,0 -1.01,6.34 -15.2599995,0 z"
       style="fill:#ffffff" />
    <path
       inkscape:connector-curvature="0"
       id="path22"
       d="m 31.532943,108.78 7.31,0 -4.32,26.93 -7.27,0 z"
       style="fill:#ffffff" />
    <path
       inkscape:connector-curvature="0"
       id="path24"
       d="m 69.542943,108.78 15.62,0 -0.97,6.18 -8.23,0 -0.53,2.95 -0.11,0.69 c -0.04,0.13 -0.09,0.34 -0.17,0.64 0.29,-0.05 0.51,-0.08 0.65,-0.08 l 7.71,0 -1.05,6.01 -8.15,0 -0.53,3.15 -0.12,0.69 c -0.03,0.13 -0.08,0.33 -0.16,0.6 0.29,-0.05 0.51,-0.08 0.64,-0.08 l 7.63,0 -0.97,6.18 -15.54,0 z"
       style="fill:#ffffff" />
    <path
       inkscape:connector-curvature="0"
       id="path26"
       d="m 94.902943,108.78 7.309997,0 -1.42,8.88 c -0.05,0.32 -0.11,0.56 -0.16,0.69 l -0.16,0.61 c 0.3,-0.06 0.51,-0.09 0.64,-0.09 l 7.29,0 1.61,-10.09 7.27,0 -4.28,26.93 -7.27,0 1.46,-9.33 c 0.05,-0.32 0.1,-0.55 0.12,-0.69 l 0.2,-0.6 c -0.3,0.06 -0.52,0.08 -0.68,0.08 l -7.249997,0 -1.7,10.54 -7.26,0 z"
       style="fill:#ffffff" />
    <path
       inkscape:connector-curvature="0"
       id="path28"
       d="m 124.82294,128.32 -0.12,0.69 c -0.03,0.13 -0.08,0.33 -0.16,0.6 0.24,-0.05 0.41,-0.08 0.52,-0.08 l 1.58,0 c 1.37,0 2.49,-0.13 3.37,-0.4 0.87,-0.27 1.62,-0.72 2.24,-1.33 0.78,-0.78 1.39,-1.81 1.83,-3.07 0.45,-1.26 0.67,-2.67 0.67,-4.2 0,-1.86 -0.49,-3.27 -1.47,-4.24 -0.99,-0.96 -2.41,-1.45 -4.26,-1.45 l -2.02,0 z m -4.24,-19.53 9.45,0 c 2.1,0 3.9,0.29 5.4,0.89 1.51,0.59 2.75,1.42 3.72,2.5 0.97,1.07 1.68,2.36 2.14,3.85 0.46,1.5 0.68,3.14 0.68,4.95 0,1.47 -0.18,2.91 -0.56,4.29 -0.38,1.39 -0.91,2.67 -1.59,3.84 -0.69,1.17 -1.53,2.21 -2.51,3.11 -0.98,0.9 -2.06,1.63 -3.25,2.19 -0.97,0.46 -1.99,0.79 -3.07,0.99 -1.07,0.2 -2.28,0.31 -3.63,0.31 l -11.06,0 z"
       style="fill:#ffffff" />
    <path
       inkscape:connector-curvature="0"
       id="path30"
       d="m 59.352943,108.78 -5.25,11.91 c -0.12,0.28 -0.23,0.53 -0.34,0.78 -0.04,0.1 -0.09,0.2 -0.13,0.29 -0.21,0.52 -0.41,1.01 -0.58,1.47 -0.18,0.47 -0.35,0.95 -0.53,1.45 -0.17,0.51 -0.37,1.11 -0.6,1.81 l -0.1,-0.02 c 0,0.01 0,0.02 -0.01,0.03 l 0,-0.03 -0.08,-0.01 c -0.1,-0.76 -0.18,-1.39 -0.24,-1.91 -0.07,-0.51 -0.14,-1.01 -0.23,-1.5 -0.09,-0.5 -0.18,-1.01 -0.28,-1.55 -0.04,-0.22 -0.09,-0.47 -0.15,-0.73 -0.03,-0.17 -0.07,-0.34 -0.11,-0.52 l -2.38,-11.47 -7.75,0 7.19,26.93 5.6,0 14.2,-26.93 z"
       style="fill:#ffffff" />
  </g>
</svg>
