<?xml version="1.0" encoding="UTF-8" standalone="no"?>
<svg
   xmlns:dc="http://purl.org/dc/elements/1.1/"
   xmlns:cc="http://creativecommons.org/ns#"
   xmlns:rdf="http://www.w3.org/1999/02/22-rdf-syntax-ns#"
   xmlns:svg="http://www.w3.org/2000/svg"
   xmlns="http://www.w3.org/2000/svg"
   xmlns:sodipodi="http://sodipodi.sourceforge.net/DTD/sodipodi-0.dtd"
   xmlns:inkscape="http://www.inkscape.org/namespaces/inkscape"
   height="557.21466"
   width="571.38788"
   version="1.1"
   viewBox="0 0 151.17971 147.43"
   id="svg2"
   inkscape:version="0.91 r13725"
   sodipodi:docname="MTV HD.svg">
  <metadata
     id="metadata22">
    <rdf:RDF>
      <cc:Work
         rdf:about="">
        <dc:format>image/svg+xml</dc:format>
        <dc:type
           rdf:resource="http://purl.org/dc/dcmitype/StillImage" />
        <dc:title></dc:title>
      </cc:Work>
    </rdf:RDF>
  </metadata>
  <defs
     id="defs20" />
  <sodipodi:namedview
     pagecolor="#ffffff"
     bordercolor="#666666"
     borderopacity="1"
     objecttolerance="10"
     gridtolerance="10"
     guidetolerance="10"
     inkscape:pageopacity="0"
     inkscape:pageshadow="2"
     inkscape:window-width="1920"
     inkscape:window-height="1017"
     id="namedview18"
     showgrid="false"
     fit-margin-top="0"
     fit-margin-left="0"
     fit-margin-right="0"
     fit-margin-bottom="0"
     inkscape:zoom="0.42354629"
     inkscape:cx="708.25084"
     inkscape:cy="105.71718"
     inkscape:window-x="-8"
     inkscape:window-y="-8"
     inkscape:window-maximized="1"
     inkscape:current-layer="svg2" />
  <path
     style="fill:#ffffff;stroke-width:0.26458001"
     inkscape:connector-curvature="0"
     id="path6"
     d="m 106.66985,93.426 c -0.27,-2.34 -0.61,-5.7 -0.61,-8.65 0,-1.84 0.25,-9.222 0.25,-15.175 0,-5.022 -1.08,-13.944 -1.08,-18.791 0,-2.916 0.21,-6.871 -0.11,-8.26 2.32,-1.514 4.36,-2.471 10.76,-6.358 2.07,-1.257 6.04,-3.376 6.04,-5.927 0,-1.132 -0.31,-1.876 -1.91,-3.199 -1.14,-0.904 -2.34,-1.161 -3.7,-1.161 -3.27,0 -4.75,3.268 -7.48,4.94 -4.18,2.553 -6.4,3.82 -7.25,4.294 -0.35,-0.161 -1.768003,-1 -4.049003,-1 -2.387,0 -5.167,1.066 -5.167,4.172 0,1.416 0.44,2.956 -1.45,3.956 -1.06,0.674 -6.26,3.643 -11.8,6.977 -4.65,2.82 -6.82,2.593 -8.8,3.781 -1.81,1.092 -2.29,2.455 -2.29,3.643 0,1.053 0.68,2.376 0.91,2.672 1.25,1.606 2.37,2.472 4.34,2.472 3.35,0 6.11,-2.916 11.28,-6.589 3.22,-2.294 6.17,-4.669 7.9,-4.669 1.54,0 2.62,1.161 2.62,5.953 0,16.023 -0.99,18.56 -0.99,29.679 0,2 0.09,5.7 0.15,7.24 l -8.49,0 0,-26.257 -16.36,13.797 -16.36,-13.797 0,26.257 -53.02000041,0 0,-93.426 51.62000041,0 17.76,18.695 17.76,-18.695 51.876003,0 0,39.941 c -1.64,2.537 -6.65,11.123 -10.02,19.897 -1.11,2.86 -1.63,4.926 -3.07,4.926 -1.61,0 -1.73,-1.566 -1.89,-2.984 -0.32,-3.077 -1.01,-8.813 -1.34,-10.92 -0.6,-4.09 -1.41,-8.408 -5.98,-8.408 -3.38,0 -6.92,1.849 -6.92,6.898 0,2.86 1.44,7.842 3.93,14.388 0.97,2.579 6.17,16.198 6.92,18.168 1.37,3.62 3.28,4.6 6.24,4.6 3.8,0 5.11,-1.39 6.68,-6.719 1.32,-4.535 3.58,-11.946 5.45,-16.576 l 0,30.205 -32.35,0 z m 44.51,-51.85 0,51.85 -8.54,0 0,-37.93 c 1.83,-3.956 6.23,-10.866 8.54,-13.917 m -8.54,-6.911 0,-34.666 8.54,5.129 0,18.98 c -2.11,2.186 -6.48,7.52 -8.54,10.554 M 74.083847,8.506 l -4.7,4.94 -12.73,-13.377 16.15,7.087 1.28,1.349 z m 0.57,72.75 5.88,0 1.6,-1.33 0,-4.968 z m -18.01,12.17 7.02,0 0,-12.56 -7.02,-5.908 z" />
  <path
     d="m 151.1759,147.43 -151.1760534147,0 0,-50.384 151.1760534147,0 z"
     id="path12"
     style="fill:#340433;fill-opacity:1"
     inkscape:connector-curvature="0" />
  <g
     id="g4153"
     transform="translate(0.23300186,0)">
    <path
       inkscape:connector-curvature="0"
       style="fill:#00adef;fill-opacity:1"
       id="path14"
       d="m 53.953847,108.79 7.31,0 -1.41,8.88 c -0.06,0.32 -0.11,0.55 -0.17,0.69 l -0.16,0.6 c 0.3,-0.06 0.51,-0.08 0.65,-0.08 l 7.28,0 1.62,-10.09 7.26,0 -4.27,26.92 -7.27,0 1.45,-9.32 c 0.06,-0.33 0.1,-0.56 0.13,-0.69 l 0.2,-0.61 c -0.3,0.06 -0.53,0.09 -0.69,0.09 l -7.24,0 -1.7,10.53 -7.26,0 z" />
    <path
       inkscape:connector-curvature="0"
       style="fill:#00adef;fill-opacity:1"
       id="path16"
       d="m 83.883847,128.32 -0.12,0.69 c -0.03,0.14 -0.09,0.34 -0.16,0.61 0.23,-0.06 0.41,-0.09 0.52,-0.09 l 1.57,0 c 1.37,0 2.5,-0.13 3.37,-0.4 0.88,-0.27 1.63,-0.71 2.24,-1.33 0.78,-0.78 1.39,-1.81 1.84,-3.07 0.44,-1.26 0.67,-2.66 0.67,-4.19 0,-1.86 -0.5,-3.27 -1.48,-4.24 -0.98,-0.97 -2.4,-1.46 -4.26,-1.46 l -2.02,0 z m -4.24,-19.53 9.44,0 c 2.1,0 3.9,0.29 5.41,0.89 1.51,0.59 2.75,1.42 3.714,2.5 0.968,1.08 1.682,2.36 2.142003,3.85 0.46,1.5 0.68,3.14 0.68,4.95 0,1.48 -0.18,2.91 -0.56,4.3 -0.38,1.38 -0.912003,2.66 -1.595003,3.83 -0.688,1.17 -1.521,2.21 -2.501,3.11 -0.99,0.9 -2.07,1.63 -3.25,2.2 -0.97,0.45 -1.99,0.78 -3.07,0.99 -1.08,0.2 -2.29,0.3 -3.63,0.3 l -11.06,0 z" />
  </g>
</svg>
