<?xml version="1.0" encoding="UTF-8" standalone="no"?>
<svg
   xmlns:dc="http://purl.org/dc/elements/1.1/"
   xmlns:cc="http://creativecommons.org/ns#"
   xmlns:rdf="http://www.w3.org/1999/02/22-rdf-syntax-ns#"
   xmlns:svg="http://www.w3.org/2000/svg"
   xmlns="http://www.w3.org/2000/svg"
   xmlns:sodipodi="http://sodipodi.sourceforge.net/DTD/sodipodi-0.dtd"
   xmlns:inkscape="http://www.inkscape.org/namespaces/inkscape"
   height="594.98663"
   width="609.4613"
   version="1.1"
   id="svg2"
   inkscape:version="0.92.0 r15299"
   sodipodi:docname="MTV Rocks.svg"
   viewBox="0 0 571.37 557.79999">
  <metadata
     id="metadata32">
    <rdf:RDF>
      <cc:Work
         rdf:about="">
        <dc:format>image/svg+xml</dc:format>
        <dc:type
           rdf:resource="http://purl.org/dc/dcmitype/StillImage" />
        <dc:title />
      </cc:Work>
    </rdf:RDF>
  </metadata>
  <defs
     id="defs30" />
  <sodipodi:namedview
     pagecolor="#ffffff"
     bordercolor="#666666"
     borderopacity="1"
     objecttolerance="10"
     gridtolerance="10"
     guidetolerance="10"
     inkscape:pageopacity="0"
     inkscape:pageshadow="2"
     inkscape:window-width="1920"
     inkscape:window-height="1017"
     id="namedview28"
     showgrid="false"
     fit-margin-top="0"
     fit-margin-left="0"
     fit-margin-right="0"
     fit-margin-bottom="0"
     inkscape:zoom="0.42309072"
     inkscape:cx="-84.078383"
     inkscape:cy="278.90001"
     inkscape:window-x="-8"
     inkscape:window-y="-8"
     inkscape:window-maximized="1"
     inkscape:current-layer="svg2" />
  <path
     style="fill:#e8f846;fill-opacity:1"
     inkscape:connector-curvature="0"
     id="path6"
     d="m 403.16,353.11 c -1.02,-8.83 -2.29,-21.53 -2.29,-32.71 0,-6.94 0.91,-34.84 0.91,-57.34 0,-18.98 -4.08,-52.7 -4.08,-71.02 0,-11.02 0.82,-25.97 -0.41,-31.22 8.78,-5.72 16.48,-9.34 40.67,-24.03 7.85,-4.75 22.85,-12.76 22.85,-22.4 0,-4.28 -1.17,-7.09 -7.24,-12.09 -4.29,-3.419 -8.83,-4.388 -13.98,-4.388 -12.35,0 -17.96,12.348 -28.27,18.668 -15.81,9.65 -24.18,14.44 -27.39,16.23 -1.33,-0.61 -6.69,-3.78 -15.31,-3.78 -9.03,0 -19.54,4.03 -19.54,15.77 0,5.35 1.69,11.17 -5.46,14.95 -4.03,2.55 -23.67,13.77 -44.59,26.37 -17.6,10.66 -25.81,9.8 -33.26,14.29 -6.84,4.13 -8.67,9.28 -8.67,13.77 0,3.98 2.55,8.98 3.42,10.1 4.74,6.07 8.97,9.34 16.42,9.34 12.66,0 23.11,-11.02 42.65,-24.9 12.15,-8.67 23.32,-17.65 29.85,-17.65 5.82,0 9.9,4.39 9.9,22.5 0,60.56 -3.73,70.15 -3.73,112.19 0,7.55 0.31,21.53 0.56,27.34 h -32.09 v -99.23 l -61.83,52.14 -61.83,-52.14 V 353.1 H 0 V 0 H 195.1 L 262.24,70.66 329.38,0 h 196.06 v 150.96 c -6.22,9.59 -25.15,42.04 -37.9,75.2 -4.19,10.81 -6.13,18.62 -11.59,18.62 -6.07,0 -6.53,-5.92 -7.14,-11.28 -1.22,-11.63 -3.82,-33.31 -5.05,-41.27 -2.29,-15.46 -5.36,-31.78 -22.6,-31.78 -12.81,0 -26.17,6.99 -26.17,26.07 0,10.81 5.46,29.64 14.84,54.38 3.68,9.75 23.32,61.22 26.18,68.67 5.15,13.68 12.39,17.4 23.56,17.4 14.39,0 19.34,-5.26 25.26,-25.41 5,-17.14 13.52,-45.15 20.61,-62.65 V 353.07 H 403.14 Z M 571.37,157.14 V 353.11 H 539.12 V 209.75 c 6.89,-14.95 23.52,-41.07 32.25,-52.6 M 539.12,131.03 V 0.01 l 32.25,19.386 v 71.732 c -7.96,8.265 -24.49,28.422 -32.25,39.892 M 280,32.149 262.25,50.822 214.14,0.262 l 61.02,26.784 4.85,5.102 z m 2.14,274.98 h 22.25 l 6.02,-5.05 v -18.77 z m -68.06,45.97 h 26.53 v -47.45 l -26.53,-22.34 z" />
  <path
     d="M 571.35,557.8 H 0.01 L 0.011601,366.78 H 571.3516 V 557.8 Z"
     id="path12"
     style="fill:#e8f846;fill-opacity:1"
     inkscape:connector-curvature="0" />
  <path
     inkscape:connector-curvature="0"
     id="path16"
     d="m 89.193,449.91 c -0.203,1.13 -0.406,1.97 -0.521,2.52 -0.174,0.55 -0.405,1.36 -0.695,2.37 1.1,-0.2 1.939,-0.29 2.518,-0.29 h 2.518 4.891 c 8.276,0 12.386,-3.65 12.386,-10.88 0,-5.91 -3.36,-8.86 -10.1,-8.86 H 91.479 Z M 104.5,513.26 94.084,491.67 c -1.129,-2.34 -2.055,-4.31 -2.836,-5.96 -0.753,-1.62 -1.448,-3.16 -2.055,-4.6 -0.608,-1.42 -1.187,-2.95 -1.766,-4.58 -0.55,-1.65 -1.244,-3.61 -2.055,-5.96 l -0.781,0.15 c -0.087,2.43 -0.203,4.54 -0.289,6.28 -0.087,1.73 -0.261,3.38 -0.464,4.95 -0.202,1.59 -0.434,3.24 -0.694,4.97 -0.261,1.74 -0.608,3.88 -0.984,6.43 l -3.213,19.91 H 51.395 l 16.381,-101.9 h 34.554 c 24.81,0 37.19,10.1 37.19,30.27 0,8.68 -2.34,15.75 -7.03,21.19 -4.69,5.47 -11.37,8.91 -20.03,10.33 0.49,0.84 0.93,1.5 1.28,2 0.37,0.52 0.72,1.01 1.1,1.53 0.34,0.52 0.69,1.07 1.04,1.68 0.37,0.61 0.81,1.39 1.3,2.28 l 19.13,32.62 z"
     style="fill:#000000;fill-opacity:1" />
  <path
     inkscape:connector-curvature="0"
     id="path18"
     d="m 201.53,433.07 c -4.19,0 -8.04,0.81 -11.57,2.46 -3.51,1.62 -6.57,3.91 -9.15,6.8 -2.6,2.92 -4.66,6.37 -6.14,10.42 -1.47,4.02 -2.22,8.36 -2.22,13.08 0,7.12 1.85,12.68 5.52,16.67 2.23,2.43 4.98,4.34 8.25,5.73 3.27,1.39 6.69,2.06 10.25,2.06 4.19,0 8.04,-0.81 11.57,-2.43 3.51,-1.65 6.52,-3.91 9.03,-6.8 2.49,-2.93 4.46,-6.37 5.88,-10.34 1.45,-3.99 2.14,-8.36 2.14,-13.17 0,-7.75 -2.05,-13.77 -6.19,-18.05 -4.11,-4.29 -9.93,-6.43 -17.37,-6.43 m 1.68,-24.48 c 8.28,0 15.37,1.04 21.36,3.15 5.96,2.08 11.2,5.41 15.69,10.01 4.6,4.69 8.07,10.22 10.47,16.62 2.38,6.36 3.59,13.28 3.59,20.72 0,5.9 -1.01,12.07 -3.07,18.43 -2.05,6.37 -4.86,12.02 -8.42,16.91 -4.98,6.94 -11.83,12.33 -20.49,16.15 -8.68,3.82 -18.4,5.73 -29.23,5.73 -8.07,0 -15.43,-1.54 -22.11,-4.66 -6.69,-3.13 -12.45,-7.73 -17.34,-13.87 -3.7,-4.48 -6.36,-9.23 -8.04,-14.21 -1.68,-5 -2.55,-10.71 -2.55,-17.13 0,-14.18 3.85,-26.31 11.49,-36.44 11.03,-14.27 27.23,-21.41 48.65,-21.41"
     style="fill:#000000;fill-opacity:1" />
  <path
     inkscape:connector-curvature="0"
     id="path20"
     d="m 335.21,511.57 c -2.34,1.44 -5.61,2.51 -9.78,3.3 -4.2,0.75 -9.09,1.12 -14.7,1.12 -7.56,0 -14.36,-1.12 -20.41,-3.41 -6.1,-2.32 -11.25,-5.59 -15.48,-9.81 -4.23,-4.23 -7.5,-9.35 -9.78,-15.37 -2.32,-6.02 -3.45,-12.82 -3.45,-20.35 0,-8.27 1.45,-16.09 4.37,-23.5 2.9,-7.38 7.12,-13.83 12.62,-19.36 10.19,-10.3 23.24,-15.43 39.16,-15.43 13.17,0 24.02,2.7 32.59,8.08 l -4.26,27.87 c -3.47,-3.59 -7.58,-6.34 -12.33,-8.28 -4.74,-1.91 -9.92,-2.89 -15.54,-2.89 -4.19,0 -7.98,0.78 -11.46,2.37 -3.47,1.56 -6.48,3.79 -8.94,6.66 -2.52,2.83 -4.46,6.25 -5.82,10.24 -1.39,4 -2.08,8.37 -2.08,13.14 0,8.28 2.43,14.65 7.26,19.13 4.86,4.52 11.84,6.75 20.9,6.75 3.88,0 7.49,-0.49 10.85,-1.45 3.39,-0.98 6.83,-2.46 10.42,-4.51 z"
     style="fill:#000000;fill-opacity:1" />
  <path
     inkscape:connector-curvature="0"
     id="path22"
     d="m 382.13,466.89 c -0.09,2.14 -0.2,3.96 -0.29,5.5 -0.12,1.53 -0.23,3.01 -0.41,4.37 -0.14,1.39 -0.34,2.86 -0.6,4.43 -0.26,1.59 -0.55,3.5 -0.84,5.76 l -4.29,26.3 h -27.55 l 16.24,-101.9 h 27.7 l -3.39,20.66 c -0.41,2.64 -0.75,4.87 -1.04,6.66 -0.32,1.79 -0.67,3.47 -1.02,5.04 -0.34,1.59 -0.78,3.21 -1.21,4.89 -0.46,1.68 -1.01,3.76 -1.62,6.22"
     style="fill:#000000;fill-opacity:1" />
  <path
     inkscape:connector-curvature="0"
     id="path24"
     d="m 381.83,472.39 -9.03,-13.02 11.95,-9.29 0.78,0.31 c 1.54,-1.93 2.81,-3.61 3.82,-5.06 1.02,-1.42 2.09,-2.75 3.13,-3.97 1.07,-1.21 2.23,-2.51 3.44,-3.9 1.22,-1.39 2.78,-3.04 4.6,-4.98 l 19.51,-21.13 h 34.91 l -50.19,50.79 34.41,51.12 h -32.44 l -14.65,-23.74 c -1.21,-1.94 -2.2,-3.59 -2.98,-4.97 -0.75,-1.39 -1.47,-2.7 -2.14,-3.91 -0.66,-1.22 -1.36,-2.49 -2.05,-3.82 -0.73,-1.33 -1.54,-2.98 -2.46,-4.89 h -0.61"
     style="fill:#000000;fill-opacity:1" />
  <path
     inkscape:connector-curvature="0"
     id="path26"
     d="m 451.53,477.91 c 3.67,4.69 7.43,8.13 11.34,10.33 3.85,2.17 8.1,3.27 12.68,3.27 3.18,0 5.67,-0.84 7.49,-2.52 1.86,-1.67 2.75,-3.85 2.75,-6.48 0,-2.05 -0.87,-3.93 -2.57,-5.67 -1.74,-1.74 -4.75,-3.73 -9.06,-5.99 -5.18,-2.64 -9.26,-5.07 -12.22,-7.24 -2.98,-2.2 -5.15,-4.48 -6.56,-6.83 -1.25,-1.94 -2.23,-4.08 -2.93,-6.42 -0.72,-2.35 -1.07,-4.63 -1.07,-6.89 0,-9.58 2.87,-17.42 8.57,-23.56 3.15,-3.47 7.18,-6.25 12.07,-8.42 4.92,-2.14 9.75,-3.21 14.55,-3.21 6.72,0 12.74,1.01 18.06,3.03 5.3,2.06 10.42,5.3 15.31,9.76 l -12.41,19.97 c -3.56,-3.59 -6.69,-6.02 -9.41,-7.35 -2.72,-1.33 -5.84,-2 -9.4,-2 -2.67,0 -4.78,0.72 -6.37,2.14 -1.56,1.45 -2.37,3.33 -2.37,5.7 0,3.56 3.01,6.83 9.03,9.79 3.15,1.73 5.84,3.18 8.04,4.31 2.2,1.1 3.76,1.94 4.66,2.43 3.99,2.34 7.15,5.64 9.49,9.81 2.35,4.2 3.53,8.74 3.53,13.66 0,5.61 -0.69,10.39 -2.08,14.33 -1.39,3.93 -3.7,7.52 -6.95,10.79 -3.38,3.47 -7.72,6.28 -12.99,8.37 -5.33,2.08 -10.74,3.15 -16.24,3.15 -2.98,0 -5.64,-0.12 -8.01,-0.32 -2.43,-0.2 -4.66,-0.55 -6.75,-1.07 -2.08,-0.52 -4.14,-1.21 -6.1,-2.05 -2.03,-0.87 -4.08,-1.97 -6.23,-3.3 -2.63,-1.54 -4.83,-3.04 -6.51,-4.52 -1.68,-1.47 -3.53,-3.38 -5.58,-5.73 z"
     style="fill:#000000;fill-opacity:1" />
</svg>
