<?xml version="1.0" encoding="UTF-8"?>
<svg id="svg2" width="609.45" height="594.36" version="1.1" viewBox="0 0 151.17 147.43" xmlns="http://www.w3.org/2000/svg" xmlns:cc="http://creativecommons.org/ns#" xmlns:dc="http://purl.org/dc/elements/1.1/" xmlns:rdf="http://www.w3.org/1999/02/22-rdf-syntax-ns#">
 <metadata id="metadata32">
  <rdf:RDF>
   <cc:Work rdf:about="">
    <dc:format>image/svg+xml</dc:format>
    <dc:type rdf:resource="http://purl.org/dc/dcmitype/StillImage"/>
    <dc:title/>
   </cc:Work>
  </rdf:RDF>
 </metadata>
 <path id="path6" d="m106.67 93.426c-0.26999-2.336-0.60999-5.6959-0.60999-8.6539 0-1.837 0.24-9.2179 0.24-15.172 0-5.021-1.08-13.943-1.08-18.79 0-2.916 0.22-6.8719-0.11-8.2609 2.33-1.513 4.36-2.471 10.76-6.3579 2.08-1.256 6.0499-3.376 6.0499-5.9259 0-1.133-0.31-1.876-1.92-3.199-1.13-0.90499-2.33-1.161-3.69-1.161-3.27 0-4.76 3.267-7.4799 4.939-4.19 2.553-6.3999 3.821-7.2499 4.294-0.34999-0.161-1.77-0.99999-4.05-0.99999-2.39 0-5.1699 1.067-5.1699 4.173 0 1.415 0.45 2.955-1.45 3.955-1.06 0.67499-6.2599 3.644-11.79 6.9769-4.66 2.821-6.8299 2.593-8.7999 3.781-1.81 1.093-2.3 2.456-2.3 3.644 0 1.053 0.67999 2.376 0.90999 2.672 1.25 1.606 2.37 2.471 4.34 2.471 3.35 0 6.1199-2.916 11.29-6.5879 3.21-2.294 6.1699-4.67 7.8899-4.67 1.54 0 2.62 1.162 2.62 5.9529 0 16.023-0.97999 18.561-0.97999 29.684 0 1.997 0.08 5.6959 0.14 7.2329h-8.4899v-26.254l-16.36 13.795-16.35-13.795v26.254h-53.029v-93.423h51.619l17.76 18.696 17.77-18.696h51.869v39.942c-1.65 2.537-6.6499 11.123-10.03 19.896-1.11 2.86-1.62 4.927-3.06 4.927-1.61 0-1.73-1.567-1.89-2.985-0.33-3.077-1.01-8.8129-1.34-10.919-0.60999-4.091-1.42-8.4089-5.9799-8.4089-3.39 0-6.9199 1.85-6.9199 6.8979 0 2.86 1.44 7.8419 3.92 14.388 0.97999 2.58 6.1699 16.198 6.9299 18.169 1.36 3.62 3.28 4.604 6.2299 4.604 3.81 0 5.12-1.392 6.6899-6.7229 1.32-4.535 3.57-11.946 5.45-16.576v30.205h-32.36zm44.503-51.849v51.849h-8.5329v-37.931c1.82-3.955 6.2229-10.866 8.5329-13.917m-8.5329-6.9109v-34.665l8.5329 5.1288v18.979c-2.106 2.187-6.4829 7.5199-8.5329 10.555m-68.559-26.16-4.7 4.9405-12.72-13.377 16.14 7.0862 1.28 1.3499zm0.56999 72.754h5.8799l1.6-1.336v-4.966zm-18.01 12.163h7.0199v-12.554l-7.0199-5.9109z" fill="#60e440" stroke-width=".26458"/>
 <path id="path12" d="m151.17 147.43h-151.17v-50.387h151.17z" fill="#60e440" stroke-width=".99999"/>
 <g id="g4169" transform="translate(-.1545)" stroke-width=".99999">
  <path id="path16" d="m13.793 108.78h7.31l-3.11 19.38c-0.06 0.32-0.1 0.55-0.12 0.69-0.03 0.13-0.09 0.33-0.16 0.6 0.29-0.06 0.5-0.08 0.64-0.08h7.43l-1.01 6.34h-15.26z"/>
  <path id="path18" d="m31.533 108.78h7.31l-4.32 26.93h-7.27z"/>
  <path id="path20" d="m69.543 108.78h15.619l-0.97 6.18h-8.229l-0.53 2.95-0.11 0.69c-0.04 0.13-0.09 0.34-0.17 0.64 0.29-0.05 0.51-0.08 0.65-0.08h7.71l-1.05 6.01h-8.15l-0.53 3.15-0.12 0.69c-0.03 0.13-0.08 0.33-0.16 0.6 0.29-0.05 0.51-0.08 0.64-0.08h7.63l-0.97 6.18h-15.54z"/>
  <path id="path22" d="m94.902 108.78h7.308l-1.42 8.88c-0.05 0.32-0.11 0.56-0.16 0.69l-0.16 0.61c0.3-0.06 0.51-0.09 0.64-0.09h7.29l1.61-10.09h7.27l-4.28 26.93h-7.27l1.46-9.33c0.05-0.32 0.1-0.55 0.12-0.69l0.2-0.6c-0.3 0.06-0.52 0.08-0.68 0.08h-7.248l-1.7 10.54h-7.26z"/>
  <path id="path24" d="m124.82 128.32-0.12 0.69c-0.03 0.13-0.08 0.33-0.16 0.6 0.24-0.05 0.41-0.08 0.52-0.08h1.58c1.37 0 2.49-0.13 3.37-0.4 0.87-0.27 1.62-0.72 2.24-1.33 0.78-0.78 1.39-1.81 1.83-3.07 0.45-1.26 0.67-2.67 0.67-4.2 0-1.86-0.49-3.27-1.47-4.24-0.99-0.96-2.41-1.45-4.26-1.45h-2.02zm-4.24-19.53h9.45c2.1 0 3.9 0.29 5.4 0.89 1.51 0.59 2.75 1.42 3.72 2.5 0.97 1.07 1.68 2.36 2.14 3.85 0.46 1.5 0.68 3.14 0.68 4.95 0 1.47-0.18 2.91-0.56 4.29-0.38 1.39-0.91 2.67-1.59 3.84-0.69 1.17-1.53 2.21-2.51 3.11s-2.06 1.63-3.25 2.19c-0.97 0.46-1.99 0.79-3.07 0.99-1.07 0.2-2.28 0.31-3.63 0.31h-11.06z"/>
  <path id="path26" d="m59.353 108.78-5.25 11.91c-0.12 0.28-0.23 0.53-0.34 0.78-0.04 0.1-0.09 0.2-0.13 0.29-0.21 0.52-0.41 1.01-0.58 1.47-0.18 0.47-0.35 0.95-0.53 1.45-0.17 0.51-0.37 1.11-0.6 1.81l-0.1-0.02c0 0.01 0 0.02-0.01 0.03v-0.03l-0.08-0.01c-0.1-0.76-0.18-1.39-0.24-1.91-0.07-0.51-0.14-1.01-0.23-1.5-0.09-0.5-0.18-1.01-0.28-1.55-0.04-0.22-0.09-0.47-0.15-0.73-0.03-0.17-0.07-0.34-0.11-0.52l-2.38-11.47h-7.75l7.19 26.93h5.6l14.2-26.93z"/>
 </g>
</svg>
