<?xml version="1.0" encoding="UTF-8" standalone="no"?>
<svg
   xmlns:dc="http://purl.org/dc/elements/1.1/"
   xmlns:cc="http://creativecommons.org/ns#"
   xmlns:rdf="http://www.w3.org/1999/02/22-rdf-syntax-ns#"
   xmlns:svg="http://www.w3.org/2000/svg"
   xmlns="http://www.w3.org/2000/svg"
   xmlns:sodipodi="http://sodipodi.sourceforge.net/DTD/sodipodi-0.dtd"
   xmlns:inkscape="http://www.inkscape.org/namespaces/inkscape"
   height="594.36047"
   width="609.45441"
   version="1.1"
   viewBox="0 0 151.17327 147.42995"
   id="svg2"
   inkscape:version="0.92.0 r15299"
   sodipodi:docname="MTV Live HD.svg">
  <metadata
     id="metadata32">
    <rdf:RDF>
      <cc:Work
         rdf:about="">
        <dc:format>image/svg+xml</dc:format>
        <dc:type
           rdf:resource="http://purl.org/dc/dcmitype/StillImage" />
        <dc:title />
      </cc:Work>
    </rdf:RDF>
  </metadata>
  <defs
     id="defs30" />
  <sodipodi:namedview
     pagecolor="#ffffff"
     bordercolor="#666666"
     borderopacity="1"
     objecttolerance="10"
     gridtolerance="10"
     guidetolerance="10"
     inkscape:pageopacity="0"
     inkscape:pageshadow="2"
     inkscape:window-width="1920"
     inkscape:window-height="1017"
     id="namedview28"
     showgrid="false"
     fit-margin-top="0"
     fit-margin-left="0"
     fit-margin-right="0"
     fit-margin-bottom="0"
     inkscape:zoom="1.1979483"
     inkscape:cx="404.01144"
     inkscape:cy="272.12637"
     inkscape:window-x="-8"
     inkscape:window-y="-8"
     inkscape:window-maximized="1"
     inkscape:current-layer="svg2" />
  <path
     style="fill:#60e440;stroke-width:0.26458001;fill-opacity:1"
     inkscape:connector-curvature="0"
     id="path6"
     d="m 106.67104,93.426066 c -0.26999,-2.335977 -0.60999,-5.695943 -0.60999,-8.653914 0,-1.836981 0.24,-9.217908 0.24,-15.171848 0,-5.02095 -1.07999,-13.942861 -1.07999,-18.789812 0,-2.915971 0.22,-6.871931 -0.11,-8.260918 2.32998,-1.512984 4.35995,-2.470975 10.75989,-6.357936 2.07998,-1.255987 6.04994,-3.375966 6.04994,-5.925941 0,-1.132988 -0.31,-1.875981 -1.91998,-3.198968 -1.12999,-0.904991 -2.32998,-1.160988 -3.68996,-1.160988 -3.26997,0 -4.75996,3.266967 -7.47993,4.93895 -4.18996,2.552975 -6.39993,3.820962 -7.24993,4.293958 -0.34999,-0.160999 -1.76998,-0.99999 -4.049957,-0.99999 -2.389976,0 -5.169948,1.066989 -5.169948,4.172958 0,1.414986 0.449995,2.95497 -1.449986,3.95496 -1.059989,0.674993 -6.259937,3.643964 -11.789882,6.97693 -4.659953,2.820972 -6.829931,2.592975 -8.799912,3.780963 -1.809982,1.092989 -2.299977,2.455975 -2.299977,3.643963 0,1.05299 0.679993,2.375976 0.909991,2.671973 1.249988,1.605984 2.369976,2.470976 4.339957,2.470976 3.349966,0 6.119939,-2.915971 11.289887,-6.587934 3.209968,-2.293977 6.169938,-4.669954 7.889921,-4.669954 1.539985,0 2.619974,1.161989 2.619974,5.952941 0,16.02284 -0.97999,18.560814 -0.97999,29.683703 0,1.99698 0.08,5.695943 0.139998,7.232928 H 85.741251 V 67.169328 L 69.381415,80.96419 53.031578,67.169328 V 93.423066 H 0.00210807 L 0.00210807,0 H 51.621592 L 69.381415,18.695813 87.151237,0 h 51.869483 v 39.9416 c -1.64998,2.536975 -6.64993,11.122889 -10.0299,19.895802 -1.10999,2.859971 -1.61998,4.92695 -3.05997,4.92695 -1.60998,0 -1.72998,-1.566984 -1.88998,-2.98497 -0.33,-3.076969 -1.00999,-8.812912 -1.33999,-10.918891 -0.60999,-4.090959 -1.41998,-8.408916 -5.97994,-8.408916 -3.38996,0 -6.91993,1.849982 -6.91993,6.897931 0,2.859972 1.43999,7.841922 3.91996,14.387857 0.97999,2.579974 6.16994,16.197838 6.92993,18.168818 1.35999,3.619964 3.27997,4.603954 6.22994,4.603954 3.80996,0 5.11995,-1.391986 6.68993,-6.722933 1.31999,-4.534955 3.56997,-11.945881 5.44995,-16.575834 V 93.416066 H 106.66104 Z M 151.1736,41.576584 v 51.849482 h -8.53292 V 55.495445 c 1.81998,-3.954961 6.22294,-10.865891 8.53292,-13.916861 m -8.53292,-6.910931 V 0.00299997 L 151.1736,5.1318487 V 24.110659 c -2.10598,2.186978 -6.48294,7.519925 -8.53292,10.554894 M 74.081368,8.5058149 69.381415,13.446265 56.661542,0.06939931 72.80138,7.1556284 74.081368,8.5055149 Z m 0.569994,72.7542721 h 5.879941 l 1.599984,-1.335986 V 74.95815 Z m -18.00982,12.162879 h 7.01993 V 80.869091 l -7.01993,-5.910941 z" />
  <path
     d="M 151.17318,147.42995 H -3.714261e-4 V 97.042949 H 151.17318 Z"
     id="path12"
     inkscape:connector-curvature="0"
     style="fill:#60e440;fill-opacity:1;stroke-width:0.99998999" />
  <g
     id="g4169"
     transform="translate(-0.15449748)"
     style="fill:#000000;fill-opacity:1">
    <path
       d="m 13.792629,108.77995 h 7.31 l -3.11,19.38 c -0.06,0.32 -0.1,0.55 -0.12,0.69 -0.03,0.13 -0.09,0.33 -0.16,0.6 0.29,-0.06 0.5,-0.08 0.64,-0.08 h 7.43 l -1.01,6.34 H 9.5126286 Z"
       id="path16"
       inkscape:connector-curvature="0"
       style="fill:#000000;stroke-width:0.99998999;fill-opacity:1" />
    <path
       d="m 31.532629,108.77995 h 7.31 l -4.32,26.93 h -7.27 z"
       id="path18"
       inkscape:connector-curvature="0"
       style="fill:#000000;stroke-width:0.99998999;fill-opacity:1" />
    <path
       d="m 69.542629,108.77995 h 15.619 l -0.97,6.18 h -8.229 l -0.53,2.95 -0.11,0.69 c -0.04,0.13 -0.09,0.34 -0.17,0.64 0.29,-0.05 0.51,-0.08 0.65,-0.08 h 7.71 l -1.05,6.01 h -8.15 l -0.53,3.15 -0.12,0.69 c -0.03,0.13 -0.08,0.33 -0.16,0.6 0.29,-0.05 0.51,-0.08 0.64,-0.08 h 7.63 l -0.97,6.18 h -15.54 z"
       id="path20"
       inkscape:connector-curvature="0"
       style="fill:#000000;stroke-width:0.99998999;fill-opacity:1" />
    <path
       d="m 94.901629,108.77995 h 7.308001 l -1.42,8.88 c -0.05,0.32 -0.11,0.56 -0.16,0.69 l -0.16,0.61 c 0.3,-0.06 0.51,-0.09 0.64,-0.09 h 7.29 l 1.61,-10.09 h 7.27 l -4.28,26.93 h -7.27 l 1.46,-9.33 c 0.05,-0.32 0.1,-0.55 0.12,-0.69 l 0.2,-0.6 c -0.3,0.06 -0.52,0.08 -0.68,0.08 h -7.248001 l -1.7,10.54 h -7.26 z"
       id="path22"
       inkscape:connector-curvature="0"
       style="fill:#000000;stroke-width:0.99998999;fill-opacity:1" />
    <path
       d="m 124.81963,128.31995 -0.12,0.69 c -0.03,0.13 -0.08,0.33 -0.16,0.6 0.24,-0.05 0.41,-0.08 0.52,-0.08 h 1.58 c 1.37,0 2.49,-0.13 3.37,-0.4 0.87,-0.27 1.62,-0.72 2.24,-1.33 0.78,-0.78 1.39,-1.81 1.83,-3.07 0.45,-1.26 0.67,-2.67 0.67,-4.2 0,-1.86 -0.49,-3.27 -1.47,-4.24 -0.99,-0.96 -2.41,-1.45 -4.26,-1.45 h -2.02 z m -4.24,-19.53 h 9.45 c 2.1,0 3.9,0.29 5.4,0.89 1.51,0.59 2.75,1.42 3.72,2.5 0.97,1.07 1.68,2.36 2.14,3.85 0.46,1.5 0.68,3.14 0.68,4.95 0,1.47 -0.18,2.91 -0.56,4.29 -0.38,1.39 -0.91,2.67 -1.59,3.84 -0.69,1.17 -1.53,2.21 -2.51,3.11 -0.98,0.9 -2.06,1.63 -3.25,2.19 -0.97,0.46 -1.99,0.79 -3.07,0.99 -1.07,0.2 -2.28,0.31 -3.63,0.31 h -11.06 z"
       id="path24"
       inkscape:connector-curvature="0"
       style="fill:#000000;stroke-width:0.99998999;fill-opacity:1" />
    <path
       d="m 59.352629,108.77995 -5.25,11.91 c -0.12,0.28 -0.23,0.53 -0.34,0.78 -0.04,0.1 -0.09,0.2 -0.13,0.29 -0.21,0.52 -0.41,1.01 -0.58,1.47 -0.18,0.47 -0.35,0.95 -0.53,1.45 -0.17,0.51 -0.37,1.11 -0.6,1.81 l -0.1,-0.02 c 0,0.01 0,0.02 -0.01,0.03 v -0.03 l -0.08,-0.01 c -0.1,-0.76 -0.18,-1.39 -0.24,-1.91 -0.07,-0.51 -0.14,-1.01 -0.23,-1.5 -0.09,-0.5 -0.18,-1.01 -0.28,-1.55 -0.04,-0.22 -0.09,-0.47 -0.15,-0.73 -0.03,-0.17 -0.07,-0.34 -0.11,-0.52 l -2.38,-11.47 h -7.75 l 7.19,26.93 h 5.6 l 14.2,-26.93 z"
       id="path26"
       inkscape:connector-curvature="0"
       style="fill:#000000;stroke-width:0.99998999;fill-opacity:1" />
  </g>
</svg>
