<svg height="594.36047" viewBox="0 0 151.17327 147.42995" width="609.45441" xmlns="http://www.w3.org/2000/svg"><path d="m106.67104 93.426066c-.26999-2.335977-.60999-5.695943-.60999-8.653914 0-1.836981.24-9.217908.24-15.171848 0-5.02095-1.07999-13.942861-1.07999-18.789812 0-2.915971.22-6.871931-.11-8.260918 2.32998-1.512984 4.35995-2.470975 10.75989-6.357936 2.07998-1.255987 6.04994-3.375966 6.04994-5.925941 0-1.132988-.31-1.875981-1.91998-3.198968-1.12999-.904991-2.32998-1.160988-3.68996-1.160988-3.26997 0-4.75996 3.266967-7.47993 4.93895-4.18996 2.552975-6.39993 3.820962-7.24993 4.293958-.34999-.160999-1.76998-.99999-4.049957-.99999-2.389976 0-5.169948 1.066989-5.169948 4.172958 0 1.414986.449995 2.95497-1.449986 3.95496-1.059989.674993-6.259937 3.643964-11.789882 6.97693-4.659953 2.820972-6.829931 2.592975-8.799912 3.780963-1.809982 1.092989-2.299977 2.455975-2.299977 3.643963 0 1.05299.679993 2.375976.909991 2.671973 1.249988 1.605984 2.369976 2.470976 4.339957 2.470976 3.349966 0 6.119939-2.915971 11.289887-6.587934 3.209968-2.293977 6.169938-4.669954 7.889921-4.669954 1.539985 0 2.619974 1.161989 2.619974 5.952941 0 16.02284-.97999 18.560814-.97999 29.683703 0 1.99698.08 5.695943.139998 7.232928h-8.489915v-26.253738l-16.359836 13.794862-16.349837-13.794862v26.253738h-53.02946993v-93.423066h51.61948393l17.759823 18.695813 17.769822-18.695813h51.869483v39.9416c-1.64998 2.536975-6.64993 11.122889-10.0299 19.895802-1.10999 2.859971-1.61998 4.92695-3.05997 4.92695-1.60998 0-1.72998-1.566984-1.88998-2.98497-.33-3.076969-1.00999-8.812912-1.33999-10.918891-.60999-4.090959-1.41998-8.408916-5.97994-8.408916-3.38996 0-6.91993 1.849982-6.91993 6.897931 0 2.859972 1.43999 7.841922 3.91996 14.387857.97999 2.579974 6.16994 16.197838 6.92993 18.168818 1.35999 3.619964 3.27997 4.603954 6.22994 4.603954 3.80996 0 5.11995-1.391986 6.68993-6.722933 1.31999-4.534955 3.56997-11.945881 5.44995-16.575834v30.204698h-32.35968zm44.50256-51.849482v51.849482h-8.53292v-37.930621c1.81998-3.954961 6.22294-10.865891 8.53292-13.916861m-8.53292-6.910931v-34.66465303l8.53292 5.12884873v18.9788103c-2.10598 2.186978-6.48294 7.519925-8.53292 10.554894m-68.559312-26.1597381-4.699953 4.9404501-12.719873-13.37686569 16.139838 7.08622909 1.279988 1.3498865zm.569994 72.7542721h5.879941l1.599984-1.335986v-4.965951zm-18.00982 12.162879h7.01993v-12.553875l-7.01993-5.910941z" fill="#60e440" stroke-width=".26458"/><path d="m151.17318 147.42995h-151.17355143v-50.387001h151.17355143z" fill="#60e440" stroke-width=".99999"/><g stroke-width=".99999" transform="translate(-.154497)"><path d="m13.792629 108.77995h7.31l-3.11 19.38c-.06.32-.1.55-.12.69-.03.13-.09.33-.16.6.29-.06.5-.08.64-.08h7.43l-1.01 6.34h-15.2600004z"/><path d="m31.532629 108.77995h7.31l-4.32 26.93h-7.27z"/><path d="m69.542629 108.77995h15.619l-.97 6.18h-8.229l-.53 2.95-.11.69c-.04.13-.09.34-.17.64.29-.05.51-.08.65-.08h7.71l-1.05 6.01h-8.15l-.53 3.15-.12.69c-.03.13-.08.33-.16.6.29-.05.51-.08.64-.08h7.63l-.97 6.18h-15.54z"/><path d="m94.901629 108.77995h7.308001l-1.42 8.88c-.05.32-.11.56-.16.69l-.16.61c.3-.06.51-.09.64-.09h7.29l1.61-10.09h7.27l-4.28 26.93h-7.27l1.46-9.33c.05-.32.1-.55.12-.69l.2-.6c-.3.06-.52.08-.68.08h-7.248001l-1.7 10.54h-7.26z"/><path d="m124.81963 128.31995-.12.69c-.03.13-.08.33-.16.6.24-.05.41-.08.52-.08h1.58c1.37 0 2.49-.13 3.37-.4.87-.27 1.62-.72 2.24-1.33.78-.78 1.39-1.81 1.83-3.07.45-1.26.67-2.67.67-4.2 0-1.86-.49-3.27-1.47-4.24-.99-.96-2.41-1.45-4.26-1.45h-2.02zm-4.24-19.53h9.45c2.1 0 3.9.29 5.4.89 1.51.59 2.75 1.42 3.72 2.5.97 1.07 1.68 2.36 2.14 3.85.46 1.5.68 3.14.68 4.95 0 1.47-.18 2.91-.56 4.29-.38 1.39-.91 2.67-1.59 3.84-.69 1.17-1.53 2.21-2.51 3.11s-2.06 1.63-3.25 2.19c-.97.46-1.99.79-3.07.99-1.07.2-2.28.31-3.63.31h-11.06z"/><path d="m59.352629 108.77995-5.25 11.91c-.12.28-.23.53-.34.78-.04.1-.09.2-.13.29-.21.52-.41 1.01-.58 1.47-.18.47-.35.95-.53 1.45-.17.51-.37 1.11-.6 1.81l-.1-.02c0 .01 0 .02-.01.03v-.03l-.08-.01c-.1-.76-.18-1.39-.24-1.91-.07-.51-.14-1.01-.23-1.5-.09-.5-.18-1.01-.28-1.55-.04-.22-.09-.47-.15-.73-.03-.17-.07-.34-.11-.52l-2.38-11.47h-7.75l7.19 26.93h5.6l14.2-26.93z"/></g></svg>