<svg height="230.95497pt" viewBox="0 0 235.19999 230.95497" width="235.2pt" xmlns="http://www.w3.org/2000/svg"><path d="m-.51041667-81.411458h293.99999667v97h-293.99999667v-97" fill="#fe3c4c" transform="matrix(.8 0 0 .8 .408333 218.48414)"/><g fill="#fff"><path d="m43.303097 194.16298c1-6.28 2.056-12.552 3.064-18.832 2.992-.056 5.984003-.064 8.968003-.024-.704 7.392-2.728 14.64-2.984 22.072-.144 5.296 8.471998 4.808 9.647998.384 2.160001-7.304 2.52-15 4.024-22.456 3.008-.032 6.008002-.032 9.007999 0-1.384 7.528-2.239998 15.144-3.727997 22.656-1.048002 5.168-4.799999 10.28799-10.336002 10.96799-5.240001.65601-11.440001.67201-15.432001-3.31999-2.864-3.04-2.752-7.576-2.232-11.448z"/><path d="m16.558522 196.66285c1.112527 1.48553 2.409935 2.59806 3.707343 3.34083 1.297408.73952 2.591572 1.11252 4.077104 1.11252 1.109283 0 1.852049-.18812 2.406691-.74276.557886-.55789.927647-1.29741.927647-2.04018 0-.74276-.369761-1.2974-.927647-1.85529-.554642-.55788-1.482288-1.29741-2.964577-1.85529-1.667168-.92765-2.964577-1.67042-3.892223-2.40994-.924403-.74276-1.667169-1.48553-2.221811-2.2283-.373004-.55464-.742765-1.2974-.927646-2.04017-.184881-.73952-.369761-1.48229-.369761-2.22505 0-3.1527.924403-5.75076 2.779695-7.60606 1.112528-1.11252 2.409936-2.04017 3.892224-2.78294 1.667168-.73952 3.149457-1.11252 4.631746-1.11252 2.225054 0 4.077103.373 5.929153.92764 1.667169.74277 3.337581 1.67041 5.00475 3.1527l-4.077103 6.49353c-1.112528-1.11253-2.225055-2.04017-2.964578-2.40994-.927646-.373-1.855292-.55788-2.964576-.55788-.927646 0-1.482288.18488-2.040174.74277-.554642.36976-.739522 1.11252-.739522 1.85529 0 1.11253.924403 2.22505 2.964577 3.1527 1.112527.55464 1.852049 1.11253 2.594815 1.48229.739522.373 1.297408.55788 1.482289.74276 1.297407.74277 2.22181 1.8553 3.149456 3.1527.742767 1.30066 1.112527 2.78294 1.112527 4.45336 0 1.85529-.18488 3.33758-.742765 4.63823-.369762 1.29741-1.112527 2.40993-2.221811 3.52246-1.112527 1.11253-2.409935 2.04018-4.261984 2.78294-1.670413.74277-3.522462.92765-5.189632.92765-.927646 0-1.855292 0-2.594814-.18488-.742766 0-1.482288-.18488-2.225055-.37301-.739523-.18488-1.297407-.36976-2.03693-.73952-.557885-.373-1.297408-.55789-2.040173-1.11253-.924403-.55788-1.482289-.92764-2.036931-1.48553s-1.112527-1.11253-1.85205-1.85529z" stroke-width="5.7161"/><path d="m84.053245 175.2673h9.859021l1.836114 8.92165c.197534.99417.365935 1.81668.498696 2.47408.129542.66385.242904 1.29208.346506 1.88471.09393.59911.187829 1.21761.272027 1.85555.0842.64444.168411 1.43135.272002 2.36075l.242874.0453c.336806-.89702.618533-1.62888.841976-2.22796.236399-.60232.469568-1.16254.722135-1.7066.246129-.55377.514901-1.13341.816073-1.76165.301161-.62823.673581-1.38923 1.133411-2.27977l4.76368-9.56609h9.76366l1.48313 32.99686h-8.97014l-.2018-10.75051v-5.50186c0-.36271.0389-1.05894.10363-2.10815.0648-1.02978.14897-2.16319.24287-3.39049l-.24287-.0486c-.4307 1.08807-.80633 2.02394-1.11723 2.80115-.31734.78043-.62498 1.50904-.93588 2.2053-.31734.69301-.65737 1.42162-1.02005 2.20205-.36593.77721-.82579 1.73251-1.38926 2.84972l-5.893735 11.74223h-4.56612l-2.276547-10.85498c-.262272-1.15284-.469537-2.13406-.618503-2.9404-.148976-.81607-.281737-1.58354-.391839-2.33484-.123067-.74157-.226663-1.50904-.320601-2.30568-.103632-.7869-.213744-1.76164-.3562-2.91448h-.291462c-.233148 1.12371-.430708 2.07901-.599073 2.86914-.158706.79664-.336811 1.54468-.54404 2.25712-.194305.71244-.411274 1.46374-.644443 2.25064-.226663.79664-.524605 1.77138-.890535 2.92422l-3.422072 11.04929h-9.063231z" stroke-width=".99495"/><path d="m130.62092 175.2673h9.85903l1.83611 8.92165c.19753.99417.36593 1.81669.49869 2.47408.12955.66385.24291 1.29208.34651 1.88471.0939.59911.18783 1.21761.27203 1.85555.0842.64444.16841 1.43135.272 2.36075l.24287.0453c.33681-.89701.61854-1.62888.84198-2.22795.2364-.60233.46957-1.16254.72213-1.70661.24613-.55376.51491-1.13341.81608-1.76164.30116-.62824.67357-1.38924 1.13341-2.27977l4.76368-9.5661h9.76366l1.48313 32.99686h-8.97015l-.20179-10.7505v-5.50187c0-.36271.0389-1.05894.10363-2.10814.0648-1.02978.14897-2.16319.24287-3.3905l-.24287-.0486c-.4307 1.08807-.80633 2.02395-1.11723 2.80116-.31734.78043-.62498 1.50904-.93588 2.2053-.31734.693-.65737 1.42162-1.02005 2.20205-.36592.7772-.8258 1.73251-1.38926 2.84971l-5.89374 11.74223h-4.56612l-2.27654-10.85498c-.26227-1.15284-.46954-2.13406-.61851-2.94039-.14897-.81607-.28173-1.58355-.39184-2.33484-.12306-.74157-.22666-1.50905-.3206-2.30568-.10363-.78691-.21374-1.76165-.3562-2.91449h-.29146c-.23314 1.12371-.4307 2.07902-.59907 2.86915-.1587.79664-.33681 1.54468-.54404 2.25712-.19431.71243-.41127 1.46373-.64444 2.25064-.22666.79664-.52461 1.77137-.89053 2.92421l-3.42208 11.0493h-9.06323z" stroke-width=".99495"/><path d="m174.30351 175.26474h19.18335l-1.11501 7.6453h-10.06115l-.55751 3.72973c0 .37167-.18583.55751-.18583.74334 0 .1891-.18583.37493-.18583.7466.37166 0 .55751-.18583.74334-.18583h9.31455l-1.3041 7.4562h-9.87206l-.5575 3.91557c0 .37493-.1891.56077-.1891.7466s-.18583.37493-.18583.7466c.37493 0 .56076-.18584.7466-.18584h9.31455l-1.11828 7.64205h-19.1866z" stroke-width="5.7161"/><path d="m206.96741 187.73961c-.0658.36612-.13154.63828-.16881.81648-.0564.1782-.13121.44064-.22517.76788.3564-.0648.62822-.094.81582-.094h.81582 1.58468c2.68142 0 4.01304-1.1826 4.01304-3.52513 0-1.91484-1.08863-2.87064-3.27238-2.87064h-2.82234l-.74066 4.90537zm4.95944 20.52545-3.37477-6.99518c-.36579-.75816-.66581-1.39644-.91886-1.93104-.24397-.52489-.46915-1.02385-.66581-1.49041-.19699-.46008-.38459-.9558-.57218-1.48392-.1782-.5346-.40306-1.16965-.66582-1.93105l-.25305.0486c-.0282.78732-.0658 1.47097-.0936 2.03473-.0282.56052-.0846 1.09512-.15033 1.6038-.0654.51516-.14061 1.04976-.22485 1.61028-.0846.56377-.19699 1.25713-.31882 2.08333l-1.041 6.45086h-8.9268l5.30741-33.01568h11.19542c8.0384 0 12.04949 3.2724 12.04949 9.8075 0 2.81233-.75815 5.10301-2.27771 6.86558-1.51954 1.77228-3.68386 2.88684-6.48967 3.34692.15876.27216.30132.48601.41472.64801.11988.16848.23328.32724.3564.49572.11016.16848.22355.34668.33695.54432.11988.19764.26244.45036.4212.73872l6.19808 10.56891h-10.30637z"/><path d="m165.95768 145.35498c-.41987-3.6348-.94266-8.86266-.94266-13.46482 0-2.8568.3746-14.34161.3746-23.60356 0-7.81297-1.6795-21.693545-1.6795-29.23483 0-4.536297.33754-10.690348-.16878-12.85147 3.61422-2.354593 6.78387-3.844738 16.74149-9.89176 3.23139-1.9553 9.40603-5.252559 9.40603-9.220789 0-1.76183-.48162-2.91854-2.98029-4.97675-1.76595-1.40741-3.6348-1.80629-5.75476-1.80629-5.08378 0-7.3931 5.08296-11.63713 7.68454-6.50806 3.97235-9.9535 5.944109-11.27488 6.680949-.54748-.2511-2.75388-1.55601-6.30224-1.55601-3.71713 0-8.04349 1.65892-8.04349 6.491602 0 2.202286.69568 4.598043-2.24756 6.154051-1.65892 1.049688-9.74358 5.668313-18.35513 10.855006-7.24491 4.388105-10.62449 4.034093-13.69122 5.882367-2.81564 1.700082-3.56894 3.820039-3.56894 5.668313 0 1.638336 1.04969 3.696547 1.40782 4.157586 1.95118 2.498668 3.69243 3.844738 6.75916 3.844738 5.21139 0 9.51305-4.536297 17.55654-10.249891 5.00146-3.568938 9.5995-7.265484 12.28752-7.265484 2.39576 0 4.07526 1.807109 4.07526 9.261949 0 24.929053-1.53542 28.876703-1.53542 46.182133 0 3.1079.12761 8.86266.23052 11.2543h-13.20961v-40.84725l-25.45183 21.46302-25.451841-21.46302v40.84725h-82.501339v-145.35086h80.311398l27.637662 29.08664 27.63766-29.08664h80.70658v62.141508c-2.56042 3.947649-10.3528 17.305439-15.60124 30.955494-1.72478 4.449852-2.52337 7.664778-4.77094 7.664778-2.49866 0-2.68802-2.436922-2.93912-4.643324-.5022-4.787399-1.57247-13.711802-2.07879-16.988474-.94266-6.363989-2.20641-13.08199-9.30312-13.08199-5.27314 0-10.77268 2.877379-10.77268 10.731514 0 4.449852 2.24757 12.201074 6.10877 22.385102 1.51484 4.013512 9.5995 25.200732 10.77679 28.267472 2.11997 5.63126 5.10026 7.16257 9.6983 7.16257 5.92353 0 7.96116-2.16524 10.39808-10.45983 2.05821-7.05554 5.5654-18.58564 8.48395-25.78938v46.99307h-50.34385zm69.24234-80.669523v80.669523h-13.27546v-59.013026c2.83622-6.154051 9.68183-16.906146 13.27546-21.652381m-13.27546-10.752093v-53.93336l13.27546 7.98009v29.527921c-3.27667 3.40222-10.08111 11.6997-13.27546 16.421229m-106.66473-40.69947-7.30665 7.68659-19.80411-20.81263 25.11841 11.02543 1.99646 2.1002zm.88091 113.19337h9.15904l2.47808-2.07879v-7.72653zm-28.016368 18.92319h10.920867v-19.53242l-10.920867-9.19609z"/></g></svg>