<?xml version="1.0" encoding="UTF-8" standalone="no"?>
<svg
   xmlns:dc="http://purl.org/dc/elements/1.1/"
   xmlns:cc="http://creativecommons.org/ns#"
   xmlns:rdf="http://www.w3.org/1999/02/22-rdf-syntax-ns#"
   xmlns:svg="http://www.w3.org/2000/svg"
   xmlns="http://www.w3.org/2000/svg"
   xmlns:sodipodi="http://sodipodi.sourceforge.net/DTD/sodipodi-0.dtd"
   xmlns:inkscape="http://www.inkscape.org/namespaces/inkscape"
   height="594.98663"
   width="609.4613"
   version="1.1"
   id="svg2"
   inkscape:version="0.92.0 r15299"
   sodipodi:docname="MTV Hits.svg"
   viewBox="0 0 571.37 557.79999">
  <metadata
     id="metadata28">
    <rdf:RDF>
      <cc:Work
         rdf:about="">
        <dc:format>image/svg+xml</dc:format>
        <dc:type
           rdf:resource="http://purl.org/dc/dcmitype/StillImage" />
        <dc:title />
      </cc:Work>
    </rdf:RDF>
  </metadata>
  <defs
     id="defs26" />
  <sodipodi:namedview
     pagecolor="#ffffff"
     bordercolor="#666666"
     borderopacity="1"
     objecttolerance="10"
     gridtolerance="10"
     guidetolerance="10"
     inkscape:pageopacity="0"
     inkscape:pageshadow="2"
     inkscape:window-width="1920"
     inkscape:window-height="1017"
     id="namedview24"
     showgrid="false"
     fit-margin-top="0"
     fit-margin-left="0"
     fit-margin-right="0"
     fit-margin-bottom="0"
     inkscape:zoom="0.42309072"
     inkscape:cx="-84.078383"
     inkscape:cy="278.90001"
     inkscape:window-x="-8"
     inkscape:window-y="-8"
     inkscape:window-maximized="1"
     inkscape:current-layer="svg2" />
  <path
     style="fill:#fa2d7a;fill-opacity:1"
     inkscape:connector-curvature="0"
     id="path6"
     d="m 403.16,353.11 c -1.02,-8.83 -2.29,-21.53 -2.29,-32.71 0,-6.94 0.91,-34.84 0.91,-57.34 0,-18.98 -4.08,-52.7 -4.08,-71.02 0,-11.02 0.82,-25.97 -0.41,-31.22 8.78,-5.72 16.48,-9.34 40.67,-24.03 7.85,-4.75 22.85,-12.76 22.85,-22.4 0,-4.28 -1.17,-7.09 -7.24,-12.09 -4.29,-3.419 -8.83,-4.388 -13.98,-4.388 -12.35,0 -17.96,12.348 -28.27,18.668 -15.81,9.65 -24.18,14.44 -27.39,16.23 -1.33,-0.61 -6.69,-3.78 -15.31,-3.78 -9.03,0 -19.54,4.03 -19.54,15.77 0,5.35 1.69,11.17 -5.46,14.95 -4.03,2.55 -23.67,13.77 -44.59,26.37 -17.6,10.66 -25.81,9.8 -33.26,14.29 -6.84,4.13 -8.67,9.28 -8.67,13.77 0,3.98 2.55,8.98 3.42,10.1 4.74,6.07 8.97,9.34 16.42,9.34 12.66,0 23.11,-11.02 42.65,-24.9 12.15,-8.67 23.32,-17.65 29.85,-17.65 5.82,0 9.9,4.39 9.9,22.5 0,60.56 -3.73,70.15 -3.73,112.19 0,7.55 0.31,21.53 0.56,27.34 h -32.09 v -99.23 l -61.83,52.14 -61.83,-52.14 V 353.1 H 0 V 0 H 195.1 L 262.24,70.66 329.38,0 h 196.06 v 150.96 c -6.22,9.59 -25.15,42.04 -37.9,75.2 -4.19,10.81 -6.13,18.62 -11.59,18.62 -6.07,0 -6.53,-5.92 -7.14,-11.28 -1.22,-11.63 -3.82,-33.31 -5.05,-41.27 -2.29,-15.46 -5.36,-31.78 -22.6,-31.78 -12.81,0 -26.17,6.99 -26.17,26.07 0,10.81 5.46,29.64 14.84,54.38 3.68,9.75 23.32,61.22 26.18,68.67 5.15,13.68 12.39,17.4 23.56,17.4 14.39,0 19.34,-5.26 25.26,-25.41 5,-17.14 13.52,-45.15 20.61,-62.65 V 353.07 H 403.14 Z M 571.37,157.14 V 353.11 H 539.12 V 209.75 c 6.89,-14.95 23.52,-41.07 32.25,-52.6 M 539.12,131.03 V 0.01 l 32.25,19.386 v 71.732 c -7.96,8.265 -24.49,28.422 -32.25,39.892 M 280,32.149 262.25,50.822 214.14,0.262 l 61.02,26.784 4.85,5.102 z m 2.14,274.98 h 22.25 l 6.02,-5.05 v -18.77 z m -68.06,45.97 h 26.53 v -47.45 l -26.53,-22.34 z" />
  <path
     d="M 571.36,557.8 H 0.03 L 0.02593,366.79 h 571.33 V 557.8 Z"
     id="path12"
     style="fill:#fa2d7a;fill-opacity:1"
     inkscape:connector-curvature="0" />
  <path
     inkscape:connector-curvature="0"
     id="path16"
     d="m 149.54,411.42 h 27.69 l -5.35,33.66 c -0.2,1.24 -0.38,2.08 -0.55,2.6 -0.15,0.52 -0.38,1.28 -0.67,2.29 1.1,-0.2 1.94,-0.29 2.52,-0.29 h 2.52 30.76 l 6.11,-38.26 h 27.55 l -16.23,101.9 h -27.53 l 5.5,-35.34 c 0.21,-1.21 0.38,-2.08 0.52,-2.6 0.18,-0.49 0.41,-1.27 0.7,-2.29 -1.13,0.21 -1.97,0.29 -2.52,0.29 h -2.52 -30.76 l -6.43,39.94 h -27.52 z"
     style="fill:#000000;fill-opacity:1" />
  <path
     inkscape:connector-curvature="0"
     id="path18"
     d="m 253.04,411.42 h 27.7 l -16.38,101.9 H 236.8 Z"
     style="fill:#000000;fill-opacity:1" />
  <path
     inkscape:connector-curvature="0"
     id="path20"
     d="m 293.35,411.42 h 70.39 l -3.82,24.02 h -21.28 l -12.38,77.88 H 298.7 l 11.64,-73.28 c 0.2,-1.24 0.35,-2.08 0.46,-2.6 0.09,-0.52 0.35,-1.28 0.75,-2.29 -1.12,0.2 -1.93,0.29 -2.51,0.29 h -2.52 -16.99 z"
     style="fill:#000000;fill-opacity:1" />
  <path
     inkscape:connector-curvature="0"
     id="path22"
     d="m 369.64,477.98 c 3.67,4.69 7.43,8.13 11.31,10.33 3.88,2.2 8.13,3.3 12.71,3.3 3.15,0 5.67,-0.84 7.49,-2.55 1.85,-1.68 2.75,-3.85 2.75,-6.48 0,-2.05 -0.87,-3.94 -2.6,-5.67 -1.71,-1.74 -4.75,-3.74 -9.03,-5.96 -5.18,-2.67 -9.26,-5.1 -12.24,-7.27 -2.96,-2.2 -5.13,-4.48 -6.57,-6.83 -1.22,-1.91 -2.2,-4.08 -2.93,-6.42 -0.69,-2.35 -1.04,-4.63 -1.04,-6.86 0,-9.61 2.84,-17.46 8.57,-23.59 3.15,-3.47 7.17,-6.25 12.07,-8.39 4.89,-2.17 9.75,-3.25 14.55,-3.25 6.72,0 12.74,1.02 18.03,3.07 5.33,2.03 10.42,5.27 15.31,9.73 l -12.38,19.97 c -3.59,-3.59 -6.72,-6.02 -9.41,-7.35 -2.72,-1.34 -5.85,-2 -9.4,-2 -2.67,0 -4.78,0.72 -6.37,2.17 -1.56,1.42 -2.38,3.3 -2.38,5.67 0,3.56 3.01,6.83 9.03,9.81 3.16,1.74 5.85,3.16 8.05,4.29 2.2,1.12 3.76,1.94 4.66,2.43 3.99,2.37 7.15,5.64 9.49,9.84 2.35,4.19 3.5,8.71 3.5,13.63 0,5.61 -0.66,10.39 -2.05,14.33 -1.39,3.93 -3.7,7.55 -6.95,10.82 -3.38,3.44 -7.72,6.25 -13.02,8.33 -5.3,2.12 -10.71,3.16 -16.24,3.16 -2.95,0 -5.61,-0.12 -8.01,-0.32 -2.41,-0.2 -4.63,-0.55 -6.72,-1.07 -2.11,-0.49 -4.14,-1.19 -6.13,-2.05 -2,-0.87 -4.05,-1.97 -6.2,-3.3 -2.66,-1.54 -4.83,-3.04 -6.51,-4.52 -1.68,-1.48 -3.53,-3.39 -5.58,-5.73 z"
     style="fill:#000000;fill-opacity:1" />
</svg>
