<svg version="1.1" viewBox="0 0 571.37 557.81" xmlns="http://www.w3.org/2000/svg">
 <path d="m403.16 353.11c-1.02-8.83-2.29-21.53-2.29-32.71 0-6.94 0.91-34.84 0.91-57.34 0-18.98-4.08-52.7-4.08-71.02 0-11.02 0.82-25.97-0.41-31.22 8.78-5.72 16.48-9.34 40.67-24.03 7.85-4.75 22.85-12.76 22.85-22.4 0-4.28-1.17-7.09-7.24-12.09-4.29-3.419-8.83-4.388-13.98-4.388-12.35 0-17.96 12.348-28.27 18.668-15.81 9.65-24.18 14.44-27.39 16.23-1.33-0.61-6.69-3.78-15.31-3.78-9.03 0-19.54 4.03-19.54 15.77 0 5.35 1.69 11.17-5.46 14.95-4.03 2.55-23.67 13.77-44.59 26.37-17.6 10.66-25.81 9.8-33.26 14.29-6.84 4.13-8.67 9.28-8.67 13.77 0 3.98 2.55 8.98 3.42 10.1 4.74 6.07 8.97 9.34 16.42 9.34 12.66 0 23.11-11.02 42.65-24.9 12.15-8.67 23.32-17.65 29.85-17.65 5.82 0 9.9 4.39 9.9 22.5 0 60.56-3.73 70.15-3.73 112.19 0 7.55 0.31 21.53 0.56 27.34h-32.09v-99.23l-61.83 52.14-61.83-52.14v99.23h-200.42v-353.1h195.1l67.14 70.66 67.14-70.66h196.06v150.96c-6.22 9.59-25.15 42.04-37.9 75.2-4.19 10.81-6.13 18.62-11.59 18.62-6.07 0-6.53-5.92-7.14-11.28-1.22-11.63-3.82-33.31-5.05-41.27-2.29-15.46-5.36-31.78-22.6-31.78-12.81 0-26.17 6.99-26.17 26.07 0 10.81 5.46 29.64 14.84 54.38 3.68 9.75 23.32 61.22 26.18 68.67 5.15 13.68 12.39 17.4 23.56 17.4 14.39 0 19.34-5.26 25.26-25.41 5-17.14 13.52-45.15 20.61-62.65v114.16h-122.3zm168.21-195.97v195.97h-32.25v-143.36c6.89-14.95 23.52-41.07 32.25-52.6m-32.25-26.12v-131.02l32.25 19.386v71.732c-7.96 8.265-24.49 28.422-32.25 39.892m-259.12-98.871-17.75 18.673-48.11-50.56 61.02 26.784 4.85 5.102zm2.14 274.98h22.25l6.02-5.05v-18.77l-28.27 23.82zm-68.06 45.97h26.53v-47.45l-26.53-22.34v69.79z"/>
 <path d="m571.34 557.81h-571.34l2.1131e-5 -191.01h571.34v191.01z"/>
 <g transform="matrix(.27809 0 0 .27809 209.77 408.34)" fill="#fff">
  <path d="m390.7 0h155.16c-20.85 129.32-41.39 258.69-62.25 388h-104.87c15.1-94.27 29.96-188.57 45-282.85 1.06-6.49 2.15-12.99 4.16-19.27-8.19 1.69-16.57 1.09-24.87 1.18h-35.49c7.73-29.02 15.34-58.07 23.16-87.06z"/>
  <path d="m118.24 40.01c22.73-0.02 45.47-0.01 68.2-0.01 0.01 37.67-0.02 75.34 0.01 113.01 0.03 2.73-0.5 5.42-1.15 8.06 4.14-1.26 8.49-1.15 12.78-1.08 35.37 0.02 70.74 0.01 106.11 0.01v62.06c-37.07 0.01-74.13 0-111.19 0.01-2.62 0.03-5.18-0.52-7.7-1.15 0.65 2.65 1.19 5.35 1.15 8.1-0.03 37.86-0.01 75.73-0.01 113.6-22.73 0.02-45.46 0-68.19 0.01-0.01-38.24 0-76.47-0.01-114.7-0.01-2.38 0.57-4.69 1.08-6.99-2.7 0.67-5.47 1.17-8.26 1.14-33.7-0.04-67.4-0.01-101.1-0.02-3.32-0.02-6.71 0.31-9.96-0.53v-61.02c3.24-0.88 6.62-0.45 9.93-0.51 34.02-0.01 68.04 0.01 102.06-0.01 2.49-0.03 4.93 0.49 7.33 1.07-0.52-2.33-1.1-4.67-1.08-7.07 0.01-38 0.01-75.99 0-113.98z"/>
 </g>
</svg>
