<?xml version="1.0" encoding="UTF-8" standalone="no"?>
<svg
   xmlns:dc="http://purl.org/dc/elements/1.1/"
   xmlns:cc="http://creativecommons.org/ns#"
   xmlns:rdf="http://www.w3.org/1999/02/22-rdf-syntax-ns#"
   xmlns:svg="http://www.w3.org/2000/svg"
   xmlns="http://www.w3.org/2000/svg"
   xmlns:sodipodi="http://sodipodi.sourceforge.net/DTD/sodipodi-0.dtd"
   xmlns:inkscape="http://www.inkscape.org/namespaces/inkscape"
   height="557.20026"
   width="571.36975"
   version="1.1"
   viewBox="0 0 151.17491 147.426"
   id="svg2"
   inkscape:version="0.91 r13725"
   sodipodi:docname="MTV HD - Dark.svg">
  <metadata
     id="metadata26">
    <rdf:RDF>
      <cc:Work
         rdf:about="">
        <dc:format>image/svg+xml</dc:format>
        <dc:type
           rdf:resource="http://purl.org/dc/dcmitype/StillImage" />
        <dc:title></dc:title>
      </cc:Work>
    </rdf:RDF>
  </metadata>
  <defs
     id="defs24" />
  <sodipodi:namedview
     pagecolor="#ffffff"
     bordercolor="#666666"
     borderopacity="1"
     objecttolerance="10"
     gridtolerance="10"
     guidetolerance="10"
     inkscape:pageopacity="0"
     inkscape:pageshadow="2"
     inkscape:window-width="1920"
     inkscape:window-height="1017"
     id="namedview22"
     showgrid="false"
     fit-margin-top="0"
     fit-margin-left="0"
     fit-margin-right="0"
     fit-margin-bottom="0"
     inkscape:zoom="1.1979269"
     inkscape:cx="519.61858"
     inkscape:cy="254.09543"
     inkscape:window-x="-8"
     inkscape:window-y="-8"
     inkscape:window-maximized="1"
     inkscape:current-layer="svg2" />
  <path
     style="stroke-width:0.26458001"
     inkscape:connector-curvature="0"
     id="path10"
     d="m 106.66995,93.426 c -0.27,-2.34 -0.606,-5.7 -0.606,-8.65 0,-1.84 0.241,-9.222 0.241,-15.175 0,-5.022 -1.08,-13.944 -1.08,-18.791 0,-2.916 0.217,-6.871 -0.108,-8.26 2.323,-1.514 4.36,-2.471 10.76,-6.358 2.077,-1.257 6.046,-3.376 6.046,-5.927 0,-1.132 -0.309,-1.876 -1.916,-3.199 -1.135,-0.904 -2.336,-1.161 -3.698,-1.161 -3.268,0 -4.752,3.268 -7.48,4.94 -4.183,2.553 -6.398,3.82 -7.247,4.294 -0.352,-0.161 -1.769998,-1 -4.050998,-1 -2.387,0 -5.167,1.066 -5.167,4.172 0,1.416 0.44,2.956 -1.45,3.956 -1.06,0.674 -6.26,3.643 -11.8,6.977 -4.65,2.82 -6.82,2.593 -8.8,3.781 -1.81,1.092 -2.29,2.455 -2.29,3.643 0,1.053 0.68,2.376 0.91,2.672 1.25,1.606 2.37,2.472 4.34,2.472 3.35,0 6.11,-2.916 11.28,-6.589 3.22,-2.294 6.17,-4.669 7.9,-4.669 1.54,0 2.62,1.161 2.62,5.953 0,16.023 -0.99,18.56 -0.99,29.679 0,2 0.09,5.7 0.15,7.24 l -8.49,0 0,-26.257 -16.36,13.797 -16.36,-13.797 0,26.257 -53.02000045,0 0,-93.426 51.62000045,0 17.76,18.695 17.76,-18.695 51.878998,0 0,39.941 c -1.646,2.537 -6.654,11.123 -10.028,19.897 -1.108,2.86 -1.622,4.926 -3.066,4.926 -1.606,0 -1.728,-1.566 -1.889,-2.984 -0.323,-3.077 -1.011,-8.813 -1.336,-10.92 -0.606,-4.09 -1.419,-8.408 -5.98,-8.408 -3.389,0 -6.924,1.849 -6.924,6.898 0,2.86 1.444,7.842 3.926,14.388 0.974,2.579 6.17,16.198 6.927,18.168 1.363,3.62 3.278,4.6 6.234,4.6 3.807,0 5.117,-1.39 6.683,-6.719 1.323,-4.535 3.577,-11.946 5.453,-16.576 l 0,30.205 -32.358,0 z m 44.505,-51.85 0,51.85 -8.532,0 0,-37.93 c 1.823,-3.956 6.223,-10.866 8.532,-13.917 m -8.532,-6.911 0,-34.666 8.532,5.129 0,18.98 c -2.106,2.186 -6.479,7.52 -8.532,10.554 M 74.083952,8.506 l -4.7,4.94 -12.73,-13.377 16.15,7.087 1.28,1.349 z m 0.57,72.75 5.88,0 1.6,-1.33 0,-4.968 z m -18.01,12.17 7.02,0 0,-12.56 -7.02,-5.908 z" />
  <path
     d="m 151.17105,147.426 -151.171098446684,0 0,-50.38 151.171098446684,0 z"
     id="path16"
     inkscape:connector-curvature="0"
     style="fill:#340433;fill-opacity:1" />
  <g
     id="g4186"
     transform="translate(0.22900277,0)">
    <path
       d="m 53.953952,108.786 7.31,0 -1.41,8.88 c -0.06,0.32 -0.11,0.55 -0.17,0.69 l -0.16,0.6 c 0.3,-0.06 0.51,-0.08 0.65,-0.08 l 7.28,0 1.62,-10.09 7.26,0 -4.27,26.92 -7.27,0 1.45,-9.32 c 0.06,-0.33 0.1,-0.56 0.13,-0.69 l 0.2,-0.61 c -0.3,0.06 -0.53,0.09 -0.69,0.09 l -7.24,0 -1.7,10.53 -7.26,0 z"
       id="path18"
       inkscape:connector-curvature="0"
       style="fill:#00adef;fill-opacity:1" />
    <path
       d="m 83.883952,128.316 -0.12,0.69 c -0.03,0.14 -0.09,0.34 -0.16,0.61 0.23,-0.06 0.41,-0.09 0.52,-0.09 l 1.57,0 c 1.37,0 2.5,-0.13 3.37,-0.4 0.88,-0.27 1.63,-0.71 2.24,-1.33 0.78,-0.78 1.39,-1.81 1.84,-3.07 0.44,-1.26 0.67,-2.66 0.67,-4.19 0,-1.86 -0.5,-3.27 -1.48,-4.24 -0.98,-0.97 -2.4,-1.46 -4.26,-1.46 l -2.02,0 z m -4.24,-19.53 9.44,0 c 2.1,0 3.9,0.29 5.41,0.89 1.51,0.59 2.75,1.42 3.714,2.5 0.968,1.08 1.682,2.36 2.141998,3.85 0.455,1.5 0.683,3.14 0.683,4.95 0,1.48 -0.186,2.91 -0.564,4.3 -0.378,1.38 -0.910998,2.66 -1.593998,3.83 -0.688,1.17 -1.521,2.21 -2.501,3.11 -0.99,0.9 -2.07,1.63 -3.25,2.2 -0.97,0.45 -1.99,0.78 -3.07,0.99 -1.08,0.2 -2.29,0.3 -3.63,0.3 l -11.06,0 z"
       id="path20"
       inkscape:connector-curvature="0"
       style="fill:#00adef;fill-opacity:1" />
  </g>
</svg>
