<?xml version="1.0" encoding="UTF-8" standalone="no"?>
<svg
   xmlns:dc="http://purl.org/dc/elements/1.1/"
   xmlns:cc="http://creativecommons.org/ns#"
   xmlns:rdf="http://www.w3.org/1999/02/22-rdf-syntax-ns#"
   xmlns:svg="http://www.w3.org/2000/svg"
   xmlns="http://www.w3.org/2000/svg"
   xmlns:sodipodi="http://sodipodi.sourceforge.net/DTD/sodipodi-0.dtd"
   xmlns:inkscape="http://www.inkscape.org/namespaces/inkscape"
   width="760pt"
   height="413.5pt"
   viewBox="0 0 760 413.5"
   version="1.1"
   id="svg2"
   inkscape:version="0.91 r13725"
   sodipodi:docname="Mustard TV.svg">
  <metadata
     id="metadata45">
    <rdf:RDF>
      <cc:Work
         rdf:about="">
        <dc:format>image/svg+xml</dc:format>
        <dc:type
           rdf:resource="http://purl.org/dc/dcmitype/StillImage" />
        <dc:title></dc:title>
      </cc:Work>
    </rdf:RDF>
  </metadata>
  <defs
     id="defs43" />
  <sodipodi:namedview
     pagecolor="#ffffff"
     bordercolor="#666666"
     borderopacity="1"
     objecttolerance="10"
     gridtolerance="10"
     guidetolerance="10"
     inkscape:pageopacity="0"
     inkscape:pageshadow="2"
     inkscape:window-width="1920"
     inkscape:window-height="1017"
     id="namedview41"
     showgrid="false"
     inkscape:zoom="0.42873001"
     inkscape:cx="285.04302"
     inkscape:cy="438.62224"
     inkscape:window-x="-8"
     inkscape:window-y="-8"
     inkscape:window-maximized="1"
     inkscape:current-layer="svg2"
     fit-margin-top="0"
     fit-margin-left="0"
     fit-margin-right="0"
     fit-margin-bottom="0" />
  <g
     id="#d8d9dbff"
     transform="translate(0,-0.27)">
    <path
       d="m 267.39,9.48 c 2.94,-3.07 5.88,-6.15 8.83,-9.21 7.63,7.35 14.88,15.09 22.31,22.64 -22.25,21 -38.16,48.51 -45.67,78.14 -5.47,19.81 -5.86,40.6 -4.14,60.97 3.23,24.56 11.44,48.58 24.97,69.41 6.27,9.82 13.72,18.83 21.77,27.24 -7.57,7.37 -15.16,14.72 -22.69,22.14 C 240.36,247.87 219.79,203.3 216.91,157.1 212.46,103.76 231.05,48.86 267.39,9.48 Z"
       id="path5"
       inkscape:connector-curvature="0"
       style="opacity:1;fill:#d8d9db" />
    <path
       d="m 516.32,23.95 c 7.46,-7.5 15.06,-14.87 22.76,-22.12 24.69,24.8 42.44,56.47 50.67,90.49 7.27,28.86 7.78,59.38 1.67,88.5 -7.13,34.76 -23.92,67.53 -48.18,93.45 -2.46,2.76 -4.95,5.53 -8,7.67 -7.44,-7.27 -14.32,-15.08 -21.87,-22.23 23.31,-22.64 40.14,-52.05 46.99,-83.88 7.03,-32.77 4.14,-67.66 -8.55,-98.71 C 543.64,57.3 531.59,39.01 516.32,23.95 Z"
       id="path7"
       inkscape:connector-curvature="0"
       style="opacity:1;fill:#d8d9db" />
    <path
       d="m 268.79,124.01 c 3.93,-32.82 19.56,-64.06 43.52,-86.85 6.54,6.5 12.86,13.22 19.38,19.74 -17.46,16.12 -29.33,37.97 -34.15,61.18 -3.67,17.76 -3.11,36.34 1.32,53.91 5.17,20.14 15.91,38.74 30.57,53.47 -6.51,6.48 -13.17,12.81 -19.63,19.33 -31.41,-31.05 -46.76,-77.08 -41.01,-120.78 z"
       id="path9"
       inkscape:connector-curvature="0"
       style="opacity:1;fill:#d8d9db" />
    <path
       d="m 482.26,56.97 c 6.62,-6.36 13.23,-12.74 19.83,-19.12 23.94,23.47 38.59,55.89 41.53,89.19 3.06,33 -5.54,67 -24.1,94.49 -5.73,8.62 -12.61,16.4 -19.81,23.82 -6.77,-6.31 -12.9,-13.25 -19.43,-19.79 15.05,-14.28 26.23,-32.6 31.87,-52.57 11.93,-40.25 0.39,-86.73 -29.89,-116.02 z"
       id="path11"
       inkscape:connector-curvature="0"
       style="opacity:1;fill:#d8d9db" />
    <path
       d="m 319.51,151.11 c -3.08,-28.38 8.14,-57.48 28.6,-77.22 5.52,5.67 11.14,11.24 16.6,16.98 -12.47,11.68 -20.62,28.03 -21.93,45.11 -2.11,20.74 5.98,41.86 20.64,56.53 -5.61,5.36 -11.2,10.75 -16.72,16.21 -15.54,-15.13 -25.38,-36.01 -27.19,-57.61 z"
       id="path13"
       inkscape:connector-curvature="0"
       style="opacity:1;fill:#d8d9db" />
    <path
       d="m 448.32,90.04 c 5.79,-5.31 11.27,-10.96 16.98,-16.36 12.95,12.98 22.16,29.74 25.59,47.78 6.71,31.1 -4.09,65.34 -27.39,87 -5.41,-5.58 -10.81,-11.16 -16.3,-16.65 10.8,-10.78 18.89,-24.71 21.16,-39.91 4.11,-22.22 -3.8,-46.19 -20.04,-61.86 z"
       id="path15"
       inkscape:connector-curvature="0"
       style="opacity:1;fill:#d8d9db" />
  </g>
  <g
     id="#fbab1cff"
     transform="translate(0,-0.27)">
    <path
       d="m 397.5,98.79 c 10.11,-2.25 21.02,-1.38 30.41,3.12 12.53,5.87 21.82,18.04 24.31,31.63 1.33,9.15 0.76,18.82 -3.22,27.29 -6.01,13.19 -18.16,23.56 -32.34,26.87 -11.96,2.77 -25.12,0.95 -35.44,-5.88 -12.97,-8.15 -20.94,-23.47 -20.04,-38.79 0.08,-20.77 16.28,-39.7 36.32,-44.24"
       id="path18"
       inkscape:connector-curvature="0"
       style="opacity:1;fill:#fbab1c"
       sodipodi:nodetypes="cccccccc" />
  </g>
  <g
     id="#fccb55ff"
     transform="translate(0,-0.27)">
    <path
       d="m 402.26,105.13 c 18.11,-4.36 38.37,7.93 42.96,25.96 1.73,6.28 0.99,13.26 -2.25,18.93 -1,1.9 -2.82,3.47 -5.03,3.62 -6.37,0.67 -12.49,-1.86 -18.18,-4.4 -9.97,-4.77 -19.41,-10.92 -27.23,-18.76 -3.41,-3.71 -7.57,-8.39 -5.92,-13.85 3.07,-5.98 9.26,-9.89 15.65,-11.5"
       id="path21"
       inkscape:connector-curvature="0"
       style="opacity:1;fill:#fccb55"
       sodipodi:nodetypes="cccccccc" />
  </g>
  <g
     id="#fef4d3ff"
     transform="translate(0,-0.27)">
    <path
       d="m 416.97,112.62 c 13.4,-0.96 24.62,11.6 25.38,24.42 0.3,3.82 -4.33,8.13 -7.85,5.57 -4.06897,-3.28535 -2.26,-9.85 -4.78,-14.29 -3.19,-5.91 -10.15,-8.05 -14.21,-13.16 -1.18622,-1.53681 -0.74516,-2.44602 1.46,-2.54 z"
       id="path24"
       inkscape:connector-curvature="0"
       style="opacity:1;fill:#fef4d3"
       sodipodi:nodetypes="cccccc" />
  </g>
  <g
     id="#000000ff"
     style="fill:#ffffff;fill-opacity:1"
     transform="translate(0,-0.27)">
    <path
       d="m 394.36,299.57 c -0.02,-10.99 -0.19,-21.98 0.14,-32.97 7.93,0.73 15.91,0.33 23.87,0.49 0,10.83 0.02,21.67 -0.05,32.5 6.28,-0.02 12.56,0.03 18.84,0.01 0.02,7.59 0.02,15.18 0.02,22.78 -6.29,0.02 -12.58,0.03 -18.86,0.02 0.08,15.56 0.03,31.11 0.06,46.67 0.05,4.74 0.75,9.88 4.01,13.57 4.94,5.73 12.41,8.06 18.52,12.2 -3.47,6.35 -7.1,12.6 -10.59,18.93 -10.54,-5.22 -21.77,-10.37 -29.26,-19.81 -4.89,-6.19 -6.58,-14.21 -6.71,-21.95 -0.05,-16.52 -0.03,-33.04 0.04,-49.56 -4.58,-0.05 -9.16,-0.08 -13.74,-0.08 -0.01,-7.59 0,-15.18 0.01,-22.76 4.57,0 9.13,-0.03 13.7,-0.04 z"
       id="path27"
       style="opacity:1;fill:#ffffff;fill-opacity:1"
       inkscape:connector-curvature="0" />
    <path
       d="m 735.72,266.62 c 8.09,-0.01 16.19,-0.07 24.28,0.04 l 0,143.84 c -8.1,0.26 -16.19,0.09 -24.29,0.11 0.03,-4.48 0,-8.97 -0.03,-13.45 -6.79,8.46 -16.89,14.14 -27.61,15.71 -10.33,1.63 -21.12,0.66 -30.88,-3.14 -11.49,-4.45 -21.07,-13.18 -27.36,-23.69 -8.11,-13.52 -10.41,-30.34 -6.38,-45.57 4.46,-15.14 14.65,-28.73 28.51,-36.46 13.23,-7.44 29.55,-9.49 44.07,-4.85 7.85,2.34 14.76,7.46 19.61,14.05 0.15,-15.53 0.04,-31.06 0.08,-46.59 m -43.22,53.95 c -8.29,2.66 -15.63,8.22 -20.29,15.59 -7.6,11.89 -7.11,28.15 1.01,39.66 6.15,9.2 16.85,14.72 27.78,15.46 4.25,-0.04 8.42,-1.07 12.51,-2.16 9.2,-3.51 16.72,-11.03 20.53,-20.09 3.52,-8.1 3.43,-17.43 0.74,-25.76 -3.18,-8.94 -9.99,-16.48 -18.51,-20.64 -7.21,-3.9 -15.97,-3.76 -23.77,-2.06 z"
       id="path29"
       style="opacity:1;fill:#ffffff;fill-opacity:1"
       inkscape:connector-curvature="0" />
    <path
       d="m 34.06,297.21 c 9.23,-1.29 19.06,-0.2 27.22,4.54 5.88,3.21 10.13,8.61 13.12,14.5 2.53,-5.96 6.89,-11.11 12.52,-14.33 14.29,-8.13 33.65,-6.8 46.34,3.81 9.77,7.99 14.82,20.79 15.01,33.22 0,23.89 0.01,47.78 0.01,71.66 -7.94,0.03 -15.87,0.01 -23.8,0.02 -0.1,-23.55 0.22,-47.09 -0.17,-70.63 -0.05,-6.7 -3.37,-13.55 -9.34,-16.89 -6.29,-4.09 -14.74,-2.92 -20.76,1.1 -5.64,4.34 -7.98,11.83 -7.92,18.73 0.01,22.56 0.03,45.11 0.03,67.67 -7.99,0.03 -15.98,0.01 -23.96,0.02 0.01,-21.88 0.02,-43.76 0.04,-65.63 -0.01,-4 -0.58,-7.99 -1.78,-11.8 -1.36,-4.94 -5.31,-8.84 -9.88,-10.94 -7.81,-3.89 -18.37,-1 -23.04,6.39 -1.69,2.83 -3.25,5.94 -3.25,9.32 -0.38,24.21 -0.08,48.42 -0.15,72.63 -8.1,0.02 -16.2,0.1 -24.3,-0.06 l 0,-69.62 c 0.66,-6.49 1.09,-13.16 3.74,-19.23 4.74,-12.84 16.87,-22.35 30.32,-24.48 z"
       id="path31"
       style="opacity:1;fill:#ffffff;fill-opacity:1"
       inkscape:connector-curvature="0" />
    <path
       d="m 288.82,309.81 c 9.18,-9.75 23.13,-13.54 36.19,-13.06 15.33,0.09 29.85,6.54 42.15,15.32 -4.48,5.57 -8.78,11.34 -13.55,16.64 -5.15,-3.41 -10.08,-7.31 -15.95,-9.46 -7.66,-3.04 -16.47,-3.48 -24.33,-0.94 -5.02,2.16 -10.39,6.66 -9.94,12.65 -0.22,4.39 3.71,7.61 7.35,9.25 7.48,2.53 15.42,3.09 23.06,4.97 10.41,1.82 21.9,3.5 29.82,11.19 9.16,8.71 9.47,23.48 4.3,34.37 -5.94,12.36 -18.83,20.19 -32.16,22.02 -14.84,2.27 -30.53,0.33 -43.9,-6.68 -6.41,-3.24 -12.31,-7.41 -17.86,-11.95 5.67,-5.28 10.62,-11.3 16.58,-16.26 9.05,8.65 20.71,15.29 33.43,15.99 7.56,0.36 15.91,-1.84 20.84,-7.95 2.69,-3.13 3.45,-8.05 0.92,-11.51 -2.79,-4.91 -8.69,-6.28 -13.78,-7.39 -12.4,-2.19 -25.05,-4.14 -36.61,-9.36 -6.21,-3.13 -12.28,-7.86 -14.4,-14.76 -3.84,-11.35 -0.48,-24.56 7.84,-33.08 z"
       id="path33"
       style="opacity:1;fill:#ffffff;fill-opacity:1"
       inkscape:connector-curvature="0" />
    <path
       d="m 458.3,318.24 c 10.69,-13.37 27.52,-21.7 44.7,-21.5 8.91,-0.24 17.9,2.07 25.51,6.71 4.23,2.47 7.29,6.38 10.77,9.74 0.07,-4.54 0.07,-9.08 0.13,-13.61 7.79,0.01 15.58,-0.01 23.38,0.01 0.04,37 -0.01,73.99 0.03,110.99 -7.95,-0.02 -15.9,0.05 -23.85,-0.11 0.31,-4.38 0.22,-8.78 0.36,-13.17 -2.55,2.13 -4.83,4.54 -7.35,6.69 -10.02,7.95 -23.35,10.63 -35.89,9.37 -12.66,-1.01 -24.94,-6.56 -33.9,-15.58 -10.36,-10.21 -16.52,-24.36 -17.53,-38.81 -1.05,-14.69 4.54,-29.34 13.64,-40.73 m 38.06,2.21 c -9.15,2.59 -17.23,8.83 -21.79,17.2 -4.56,7.66 -5.35,17 -3.74,25.64 2.35,10.81 10.21,20.03 20.15,24.74 9.02,4.16 19.84,4.17 28.75,-0.31 8.23,-4.09 14.9,-11.34 18.01,-20.02 2.42,-5.6 2.32,-11.87 1.82,-17.84 -1.69,-11.64 -9.4,-22.36 -20.18,-27.23 -7.02,-3.75 -15.41,-3.76 -23.02,-2.18 z"
       id="path35"
       style="opacity:1;fill:#ffffff;fill-opacity:1"
       inkscape:connector-curvature="0" />
    <path
       d="m 615.57,299.48 c 7.35,-4.16 16.65,-3.38 23.97,0.48 -2.47,8.05 -5.86,15.77 -8.31,23.82 -4.08,-1.71 -8.53,-4.38 -13.06,-2.63 -7.1,1.74 -12.75,8.4 -12.52,15.85 -0.13,24.54 -0.07,49.09 -0.04,73.63 -8.03,-0.01 -16.07,0.01 -24.09,-0.01 0.02,-37.01 0.02,-74.02 0.05,-111.03 7.51,0 15.03,-0.03 22.55,0.01 0.19,4.13 0.22,8.26 0.09,12.4 2.77,-4.96 6.18,-9.85 11.36,-12.52 z"
       id="path37"
       style="opacity:1;fill:#ffffff;fill-opacity:1"
       inkscape:connector-curvature="0" />
    <path
       d="m 164.65,299.6 c 8,0.02 15.99,-0.03 23.98,-0.02 0.08,20.48 0.05,40.96 0.06,61.44 -0.07,6.36 1.48,12.86 5.36,18 4.81,6.54 12.79,10.77 20.96,10.63 9.51,0.46 18.87,-5 23.39,-13.34 3.08,-4.85 3.73,-10.74 3.85,-16.36 -0.05,-20.12 -0.03,-40.24 0.04,-60.36 8,-0.01 16,-0.02 24,0.01 -0.02,20.8 0.11,41.59 -0.06,62.39 0.23,13.06 -3.83,26.62 -13.14,36.09 -18.44,19.8 -52.85,20.84 -72.7,2.61 -7.44,-6.72 -12.86,-15.8 -14.6,-25.72 -1.11,-5.25 -1.25,-10.63 -1.17,-15.98 0.03,-19.79 0,-39.59 0.03,-59.39 z"
       id="path39"
       style="opacity:1;fill:#ffffff;fill-opacity:1"
       inkscape:connector-curvature="0" />
  </g>
</svg>
