<svg height="572" width="1517.0861" xmlns="http://www.w3.org/2000/svg" xmlns:xlink="http://www.w3.org/1999/xlink"><linearGradient id="a"><stop offset="0" stop-color="#ffe500"/><stop offset=".49999997" stop-color="#ffe500"/><stop offset="1" stop-color="#e15007"/></linearGradient><linearGradient id="b"><stop offset="0" stop-color="#da030e" stop-opacity="0"/><stop offset=".875" stop-color="#da020e" stop-opacity="0"/><stop offset="1" stop-color="#da020e"/></linearGradient><linearGradient id="c"><stop offset="0" stop-color="#740703"/><stop offset="1" stop-color="#da020e" stop-opacity="0"/></linearGradient><linearGradient id="d" gradientUnits="userSpaceOnUse" spreadMethod="reflect" x1="476.06961" x2="476.06961" y1="403.81436" y2="458.88077"><stop offset="0" stop-color="#8f0904"/><stop offset=".24960083" stop-color="#b40509"/><stop offset="1" stop-color="#da020e"/></linearGradient><linearGradient id="e" gradientUnits="userSpaceOnUse" x1="368.06281" x2="399.48285" xlink:href="#c" y1="470.93954" y2="507.00201"/><linearGradient id="f" gradientTransform="matrix(-1 0 0 1 957.3576 0)" gradientUnits="userSpaceOnUse" x1="368.06281" x2="399.48285" xlink:href="#c" y1="470.93954" y2="507.00201"/><radialGradient id="g" cx="360.50748" cy="438.59348" gradientTransform="matrix(1.0406506 0 0 1.0236802 -14.654839 -10.385967)" gradientUnits="userSpaceOnUse" r="18.755779" xlink:href="#b"/><radialGradient id="h" cx="360.50748" cy="438.59348" gradientTransform="matrix(1.0406506 0 0 1.0236802 223.00141 -10.479717)" gradientUnits="userSpaceOnUse" r="18.755779" xlink:href="#b"/><linearGradient id="i" gradientUnits="userSpaceOnUse" x1="600.95312" x2="583.94867" xlink:href="#c" y1="404.57532" y2="388.57532"/><linearGradient id="j" gradientTransform="matrix(-1 0 0 1 957.89199 0)" gradientUnits="userSpaceOnUse" x1="600.95312" x2="582.94867" xlink:href="#c" y1="404.57532" y2="385.57532"/><radialGradient id="k" cx="446.41611" cy="291.62723" gradientTransform="matrix(.81452549 0 0 .77554539 83.801067 67.229311)" gradientUnits="userSpaceOnUse" r="14.722825" spreadMethod="pad" xlink:href="#a"/><radialGradient id="l" cx="446.41611" cy="291.62723" gradientTransform="matrix(-.81452549 0 0 .77554539 874.09093 67.229311)" gradientUnits="userSpaceOnUse" r="14.722825" spreadMethod="pad" xlink:href="#a"/><radialGradient id="m" cx="478.89362" cy="288.51892" gradientTransform="matrix(1.0959884 0 0 1.0475722 -45.915845 -14.39887)" gradientUnits="userSpaceOnUse" r="8.26642" spreadMethod="pad" xlink:href="#a"/><radialGradient id="n" cx="357.13959" cy="347.09683" gradientTransform="matrix(1.0879339 -1.9052629 1.6760207 .95703319 -610.04057 702.53404)" gradientUnits="userSpaceOnUse" r="8.529018" xlink:href="#a"/><linearGradient id="o" gradientUnits="userSpaceOnUse" x1="357.73038" x2="362.27914" xlink:href="#a" y1="346.82816" y2="351.82816"/><radialGradient id="p" cx="357.13959" cy="347.09683" gradientTransform="matrix(-1.0879339 -1.9052629 -1.6760207 .95703319 1567.9326 702.53404)" gradientUnits="userSpaceOnUse" r="8.529018" xlink:href="#a"/><linearGradient id="q" gradientTransform="matrix(-1 0 0 1 957.892 0)" gradientUnits="userSpaceOnUse" x1="357.73038" x2="362.27914" xlink:href="#a" y1="346.82816" y2="351.82816"/><clipPath id="r"><path d="m423.57208 366.83504v115.7669l55.35354 35.56679 55.34943-35.56679.0823-115.59001c-1.773-1.5632-5.45473-4.98988-8.33841-6.78344h-94.44164c-2.39004 1.67837-7.17835 5.718-8.0052 6.60655z"/></clipPath><filter id="s"><feGaussianBlur stdDeviation="3.0914156"/></filter><radialGradient id="t" cx="452.37601" cy="563.3623" gradientTransform="matrix(.8567882 .00000013 -.00000011 .77036487 64.785647 129.36774)" gradientUnits="userSpaceOnUse" r="12.24228" xlink:href="#a"/><radialGradient id="u" cx="452.37601" cy="563.3623" gradientTransform="matrix(-.8567882 .00000013 .00000011 .77036487 894.85635 129.36774)" gradientUnits="userSpaceOnUse" r="12.24228" xlink:href="#a"/><radialGradient id="v" cx="479.62494" cy="566.7077" gradientTransform="matrix(.8502662 -.00000015 .00000011 .63206394 71.816002 208.58503)" gradientUnits="userSpaceOnUse" r="11.666365" xlink:href="#a"/><g transform="translate(-334.145 -1.793356)"><g transform="matrix(1.9465622 0 0 1.9465622 -316.28905 -543.13114)"><path d="m493.57029 561.89252c-1.1724 3.44726-4.90761 11.90085-13.94945 11.90085-10.28418 0-13.85073-11.12748-14.02351-11.59644l-.30441-1.0531s8.85673.73635 13.73555.73635c4.86647 0 13.20488-.4813 14.55416-.73635l-.0123.74869z"/><path d="m520.55597 556.40653 2.11031.26739c-2.51756 6.57776-7.03849 13.94945-15.89933 13.94945-8.64282 0-12.90458-5.00222-14.68992-8.34663l-1.50971-.92146s14.88737-.4813 29.98865-4.94875"/><path d="m438.99834 556.40653-2.11031.26739c2.50522 6.57776 7.04671 13.94945 15.93635 13.94945 8.59346 0 13.22545-5.26549 15.1342-8.34663l1.0243-.92146s-14.86269-.4813-29.98454-4.94875"/><path d="m486.83621 562.59431c-1.40276 2.00747-2.34479 1.90463-4.0026 1.90463-.85976 0-2.09386.6911-2.08152 1.96633.037 1.00374.85565 1.81825 2.20082 1.81825 3.06057 0 5.40124-4.2412 6.02241-6.0471 0 0 1.79356-.074 2.31599-.12752 0 0-3.20866 9.59308-11.55941 9.59308-8.36309 0-11.77332-9.4779-11.77332-9.4779s7.05083.42782 11.06988.42782c4.0314 0 6.59833-.037 7.80775-.0576" fill="url(#v)"/><path d="m440.13372 558.36628c5.43416 1.43978 9.31746 2.65743 18.47038 3.76812 0 0-.29207.92558-2.28309.85153-.76103-.0494-.86387-.23859-1.12714-.28384-.58826-.10696-1.43979.48952-1.3534 1.48092.0905.69932.67464 1.56731 2.70679 1.56731 2.03216 0 4.39752-1.6537 5.59459-3.20044 0 0 1.21354.28385 2.47643.34555 0 0-3.9121 5.46295-11.59643 5.46295-8.43714 0-11.57998-7.57326-12.88813-9.9921" fill="url(#t)"/><path d="m478.92563 513.40387c29.14124 0 61.42532-17.88624 84.09164-43.67072 2.4682-2.78907 6.60244-8.08748 16.44645-8.08748 9.86047 0 22.96662 8.98837 21.43223 25.34432-1.1436 11.91319-18.17008 38.79191-47.32366 55.32475-29.14536 16.59866-55.99528 20.14876-74.64666 20.14876-18.66783 0-45.49308-3.5501-74.65488-20.14876-29.14947-16.53284-46.17184-43.41156-47.30721-55.32475-1.5344-16.35595 11.57587-25.34432 21.41577-25.34432 9.86869 0 14.01939 5.29841 16.47936 8.08748 22.63341 25.78448 54.93395 43.67072 84.06696 43.67072z" fill="#ffe500" stroke="#000" stroke-miterlimit="3.863" stroke-width="2.097972"/><path d="m478.6788 517.36944c-29.32224 0-62.68822-17.3021-87.26328-45.2915-2.50111-2.84255-5.68509-6.4996-13.26247-6.4996-4.42631 0-9.44499 2.36947-12.77295 6.03475-2.50522 2.72325-5.31486 7.5239-4.64022 14.88326.97494 10.05381 16.90719 36.07277 45.30385 52.23127 22.88846 13.01976 47.32777 19.59752 72.63507 19.59752 25.33198 0 49.77129-6.57776 72.65975-19.59752 28.38844-16.1585 44.34537-42.17746 45.28328-52.23127.70344-7.35936-2.12676-12.16001-4.59908-14.88326-3.34441-3.66528-8.37543-6.03475-12.78117-6.03475-7.61029 0-10.79016 3.65705-13.26864 6.4996-24.56067 27.9894-57.96779 45.2915-87.29414 45.2915z" fill="#da020e"/><path d="m604.81627 371.40574.10284-6.79578c2.09386 1.60021 6.03064 1.6249 8.3343-.83096 1.04898-1.11892 1.64547-2.85078 1.55908-4.632-.0987-2.01158-1.01196-4.10133-2.51345-5.57402-8.50707-8.31373-16.06389-16.61511-16.06389-16.61511-.78159-1.2341-2.00335-2.12677-2.7109-2.43118-1.04076-.49776-4.74307-2.18847-7.56504 2.09797-2.54637 3.8833-2.16791 9.3586-1.67838 11.35784l7.97641 10.87243c2.73147 3.46371 10.42815 10.8313 12.55903 12.55081"/><path d="m434.32522 300.93405c10.04147-3.37321 19.22318-6.16228 31.5971-7.25651l1.87583-1.0531c-6.90685-5.45062-13.76845-9.16937-20.60126-9.16937-4.29055 0-13.01976 2.91659-14.96553 18.31817z"/><path d="m523.5466 300.93405c-10.04558-3.37321-19.21907-6.16228-31.58064-7.25651l-1.90052-1.0531c6.93565-5.45062 13.78079-9.16937 20.62183-9.16937 4.29467 0 12.98685 2.91659 14.97376 18.31817z"/><path d="m467.58012 293.16744c5.05159-9.71237 9.67124-13.22545 12.25462-13.22545 3.19221 0 6.95211 5.07627 9.90572 11.6458l.62116 1.48915-2.59572-.20157c-1.70306-.32087-6.55308-.38257-8.40423-.38257-1.90051 0-5.99773 0-8.46593.23036z"/><path d="m427.74746 512.0443-7.31411 13.22134c-2.20904 3.9738-4.4839 6.49548-8.21499 4.35637-3.67351-2.0774-2.82198-5.08861-.56769-9.19405l7.33467-13.23779-5.91545-3.28271-7.75016 13.99059c-4.26587 7.70079 1.10246 12.47676 5.30664 14.79276 4.48801 2.48466 11.02052 4.33169 15.24937-3.3115l7.80363-14.0523zm94.05495 27.23908-2.46409-7.58561 7.33879-2.36947-1.01608-3.15519-7.34701 2.38182-2.08975-6.48315 7.51156-2.46408-1.01196-3.12228-13.752 4.47156 7.6432 23.49728 15.15888-4.91583-.99963-3.13462zm15.7101-30.40825-8.37132 4.82533 12.39449 21.49393 8.33841-4.82122c8.61814-4.96931 9.43676-12.49733 6.04298-18.5362-4.08487-7.16601-10.82718-7.33056-18.40456-2.96184m12.64954 6.54074c3.13873 5.49997 2.50111 9.5108-2.33246 12.2793l-2.30365 1.34106-9.09944-15.72245 2.47643-1.43567c5.80439-3.33619 9.09944-.36612 11.25912 3.53776m-66.96643 10.07149.44839 3.221 6.91919-.97905 2.99064 21.24299 6.43378-.89266-2.98241-21.23066 6.81635-.94614-.46896-3.26625zm-5.85787.20116-6.47903-.35378-1.29581 24.68202 6.48315.34555zm-19.67157-3.01738-4.5127 16.86605-8.44536-20.3421-5.25316-1.41099-6.40087 23.87985 5.72212 1.51795 4.54972-17.00591 8.57288 20.51487 5.13798 1.38631 6.37619-23.88809z" fill="#ffe500"/><path d="m423.57208 366.83504v115.7669l55.35354 35.56679 55.34943-35.56679.0823-115.59001c-1.773-1.5632-5.45473-4.98988-8.33841-6.78344h-94.44164c-2.39004 1.67837-7.17835 5.718-8.0052 6.60655z" fill="#ffe500"/><path d="m423.5721 319.81244-.00002 47.0226v115.7669l55.35354 35.56679 55.34943-35.56679.0823-162.61261" style="fill:none;stroke:#b54005;stroke-width:10;stroke-miterlimit:3.863;clip-path:url(#r);filter:url(#s)"/><path d="m501.04894 449.89538v-4.3029s-1.1436-1.76888-3.97792-1.76888c-2.82609 0-4.51681.85153-4.51681 1.5632 0 1.16417 2.52991 4.50858 8.49473 4.50858m-22.32077-38.08847 4.27821-7.47043 3.35264 7.47043h5.55346c-3.3403 3.13462-4.70604 7.87768-4.70604 11.04109v3.44726c0 1.46446-.73635 3.88741-.73635 3.88741s4.82122 3.67351 5.56169 4.31113c.30852.24271.64584.3908.4237 1.02842-.38257 1.07366-3.65705 2.55047-3.99026 2.8302-.74046.65819-.9338 1.0531-.74046 1.70306.23448.62528.84742.74046 2.10209.29619 1.26701-.40726 3.89153-1.78534 6.09234-2.72737 2.19259-.95437 5.12975-.71166 5.12975-.71166v-4.21651h-8.29316v-13.39823l-1.46447-2.36124 3.65706-6.51606 3.67762 6.55719-1.44801 2.32011v6.99736h4.22474v-6.99736l-1.45624-2.32011 3.66939-6.50782 3.65294 6.50782-1.4439 2.32011v6.99736h4.25354v-6.99736l-1.50561-2.32011 3.68174-6.50782 3.66939 6.50782-1.46447 2.32011.0699 13.37766h-8.35898v6.18696c1.8964 1.78122 3.68585 5.81261 3.68585 8.1862 0 2.43118-1.58377 3.4596-1.58377 3.4596.53067 1.90874.42783 2.70268.20157 4.43042-.20157 1.75654-2.39415 4.49624-2.39415 4.49624v31.97556c0 2.17202-5.03102 1.9581-5.03102.10284v-31.35851c-2.84666-3.11405-10.59681-5.56168-10.59681-5.56168-2.84255 2.84255-4.59086 7.77895-4.59086 7.77895 1.2341.86387 3.15519 0 3.87919-.83919.71167-.83919 2.17202-1.05721 3.01532-.52655.82685.52655 1.03253.72812.74869 1.96222-.32498 1.29992-.8433 3.37733-.8433 4.82945 0 1.48915 1.67426 1.15594 2.92482 1.26701 2.52579.22214 2.94127 3.04412 2.73147 4.61965-.20568 1.58377-.94614 4.94463-.94614 7.03438 0 2.06918.11107 4.15892.31675 5.34366.21803 1.1436.62939 2.40649.51421 3.8833-.12752 1.9869-1.34928 2.30366-2.61629 1.02842-1.25056-1.25467-18.76245-19.92251-18.76245-19.92251-1.16417 3.79692 3.68173 10.27184 5.24493 12.27108 1.57553 1.99925 1.47269 3.46783.0946 4.83768-1.34928 1.3534-3.97792 2.0774-4.49213 3.35264-.53477 1.2341 1.25467 5.03513 4.93641 9.7494 3.66939 4.70604-4.2124 7.86533-8.91433 8.80736-4.73483.92969-4.73483-2.32011-4.40574-4.10132.31264-1.76477.31264-2.83844.19746-4.38929-.10284-1.57965-1.55085-3.76812-3.56244-6.38853-1.9869-2.63275-1.9869-5.0269-1.16005-11.12748.83507-6.08411.63762-9.96742.63762-9.96742s-2.09798.0864-5.14209 0c-3.02766-.11518-5.54112-1.87172-5.75503-9.21873-.20979-7.32645-.38257-24.82189-.88032-26.65659-.48541-1.81412-2.44764-2.14733-3.27448-2.39004-.85976-.21391-.9009-1.45212-.0699-1.8964 2.18848-1.06544 4.813-3.75167 3.84217-5.42182-.98316-1.67426-4.83767-1.32871-7.41694-.0658-2.5875 1.25056-5.31487 3.99849-6.0183 4.74718-.67876.74046-1.26701.74046-1.19297-.0576.0864-.85564-.47718-4.85825-.81039-6.24455-.37023-1.39865-1.62079-4.04374-2.04449-4.74306-.41549-.70344 0-.97494.70755-.70344.67875.27973 2.23372.92557 3.69407 1.31226 1.4727.44428 2.87546-.27973 3.54599-1.6537.69932-1.41921 2.06506-4.40985 2.76438-5.74679.68698-1.32049 1.79768-1.02431 2.71091-.82274.90501.21391 1.7442.77337 2.57927 1.10658.83096.34555 1.52617.27973 1.82236-.14398.28384-.40314.62939-.55534 1.13126-1.60022.48952-1.04487 1.09835-.54711 1.17651-.13163 2.50111 15.03957 9.01716 15.73067 9.01716 15.73067-.97905 2.50523-3.27448 6.4996-3.81748 7.50745-.58826.94203-.80628 2.28309-.95026 3.32384-.11107 1.03665.362 10.97116 1.05721 14.61176.70755 3.64471 2.93305 2.22549 3.65705 1.11069.67053-1.11069 2.85489-5.73446 2.85489-5.73446s.53889-1.25878.53889-2.30365c0-1.0531-1.81001-3.33619-2.22549-4.04785-.43194-.72401-1.95811-2.11031-1.95811-5.61105 0-3.48839 3.14284-5.90723 4.2741-6.82458 1.11892-.91734 1.11892-2.18847.96671-2.95361-.48952-2.69857-3.35675-8.37543-4.73483-10.55157-1.41099-2.1679-4.13424-6.28568-4.13424-6.28568h5.66041l3.64471-7.56916 3.96558 7.60207 4.14247.037zm-.91735 22.9296c1.84704-3.05235 2.62041-6.22399 2.62041-6.22399h-5.33955s.85565 3.24569 2.71914 6.22399m-5.56168-15.38924c.21391 1.56319 1.37808 2.15967 2.26251 1.70306.88033-.48542.72812-1.75243.074-2.76439-.62528-.99139-1.9252-2.09797-2.32422-1.93343-.40726.16867-.15221 2.07329-.0123 2.99476m10.58447-2.99476c-.38257-.16454-1.75242.94204-2.40238 1.93343-.62528 1.01196-.78572 2.27897.10284 2.76439.86798.45661 1.9869-.15221 2.26663-1.70306.15221-.92147.4525-2.82609.0329-2.99476" fill="url(#d)"/><path d="m96.96875 118.6875v6.96875h102.125v-6.96875h-7.53125v1.125h-87.0625v-1.125z" fill="#da020e" transform="translate(330.946 277.008)"/><path d="m427.92023 364.37918h102.1054v27.76727h-102.1054z" fill="#da020e"/><path d="m445.46503 384.08489 7.82009 1.92108 4.22062-11.76098v-2.9783zm64.44887 6.93286v-3.62218h-7.37992v-3.04411h6.03064v-13.42702h-5.55757l-1.90052-3.69408-1.85526 3.69408h-5.57403v13.42702h6.05533v3.04411h-14.51714v-3.04411h6.03886v-13.42702h-5.56579l-1.87995-3.69408-1.90052 3.69408h-5.54934v13.42702h6.06767v3.04411h-14.81744v-3.04411h6.05121v-13.42702h-5.57403l-1.86349-3.69408-1.91286 3.69408h-5.55345v13.42702h6.07178v3.04411l-11.72396.037-11.66226-2.72325 2.33657 6.3084h66.13547z" fill="#ffe500"/><path d="m434.90524 299.83981c9.85635-3.29916 17.30621-5.87021 29.44565-6.94799-5.59459-3.8833-10.55979-7.17013-16.26956-7.17013-3.00298 0-5.56991 1.14772-6.16228 3.24569-.55123 1.90874.95437 2.7397 1.48915 2.61218.55946-.14398.95848-.30852.82273-.82685-.14398-.54712.27973-1.93754 2.18847-1.93754 1.94165 0 2.67389 1.79768 2.67389 3.03178s-1.95811 3.29505-5.55757 3.29505c-3.52953 0-5.33954-2.35302-5.20379-4.52915-1.70306 2.49288-2.69446 5.01456-3.42669 9.22696" fill="url(#k)"/><path d="m366.22341 358.85328 8.0052-10.87243c.46073-1.99924.82685-7.47042-1.73185-11.35373-2.7973-4.29056-6.48315-2.59572-7.56504-2.09797-.68287.30441-1.9252 1.19296-2.69034 2.43118 0 0-7.69668 8.47416-16.16673 16.81257-1.19707 1.18885-2.51345 3.36087-2.62452 5.37245-.10284 1.78533.61705 3.57889 1.6537 4.69781 2.31599 2.4682 6.36385 2.36948 8.43302.76514l.14398 6.79579c2.13088-1.7154 9.81522-9.0871 12.54258-12.55081"/><path d="m478.92563 343.03088c45.57946 0 71.51204 42.78217 77.17245 50.29373 10.05381 13.41879 22.36191 24.31179 36.624 20.71233 20.95092-5.36011 19.8608-36.39364 19.8608-36.39364-5.0557-3.6406-13.66972-8.22323-29.37572-30.48641-15.38101-21.82302-50.18677-54.15235-104.28153-54.15235-54.1071 0-88.90464 32.32933-104.24863 54.15235-15.72244 22.26318-24.36526 26.84581-29.3716 30.48641 0 0-1.13126 31.03353 19.83612 36.39364 14.25386 3.59946 26.55374-7.29354 36.624-20.71233 5.63984-7.51156 31.58887-50.29373 77.16011-50.29373z" fill="#ffe500" stroke="#000" stroke-miterlimit="3.863" stroke-width="2.097972"/><path d="m478.92563 338.96904c43.94222 0 70.07637 37.27396 79.52752 50.72361 12.50762 16.69533 23.09621 22.99747 33.26931 20.40997 14.70226-3.74344 16.52873-23.97858 16.72618-30.10384v-.2427l-.16454-.12753c-5.18323-3.59123-13.85484-9.54371-28.38433-30.14086-8.6675-12.29987-41.57275-52.46163-100.97414-52.46163-59.38083 0-92.31487 40.16176-100.97826 52.46163-14.41018 20.46551-23.4726 26.70595-28.32673 30.03802l-.20568.16866.0247.21391c.19746 6.1376 2.02804 26.4797 16.69327 30.19434 10.18545 2.5875 20.7946-3.71464 33.26931-20.40997 9.44293-13.44965 35.60176-50.72361 79.52341-50.72361" fill="#da020e"/><path d="m455.054 307.83144c-8.06279 1.70717-13.37354 7.65143-11.63346 15.71011 1.01196 4.35226 4.89527 12.36157 17.17869 9.74939 3.41023-.64996 5.25315-2.00747 7.03849-3.71464l-2.23784-2.57104c-.8433.93791-2.10209 2.30365-4.92818 2.89191-5.94425 1.25467-9.47789-3.55422-10.35822-7.70491-1.30814-6.14993 2.27486-10.38701 6.32271-11.26323 2.89191-.63762 4.64434.1481 5.75503.58003h.037l.7528-3.15107c-1.94988-.7816-4.29056-1.29992-7.92704-.52655m67.4313 35.45325c4.61142 2.77673 9.64244 2.30366 11.99546-1.59199 1.71129-2.72325 1.72774-4.98577-.32909-9.03773-.53067-1.14772-1.22588-1.97045-1.69072-3.01532-.90912-1.69484-1.74831-3.08114-.96671-4.3934.86387-1.42333 2.86311-1.53852 4.67313-.43194 1.8964 1.14772 2.68211 3.04412 3.08114 4.33992l2.97418-1.28346c-.91324-2.44352-2.26663-4.63611-5.36011-6.46669-5.28607-3.18398-9.58485-2.34479-11.3743.63762-1.81413 2.99886-1.29992 5.49586.0658 8.05456 0 0 .84741 1.45213 1.33694 2.44352 1.19708 1.99925 2.59161 4.52093 1.61256 6.09646-1.18474 1.98691-3.22512 2.41884-5.21202 1.18474-2.54636-1.60433-3.14284-3.47194-3.67351-5.29429l-3.27037 1.39864c.7199 2.50934 2.41061 5.10918 6.1376 7.35936m-35.20477-36.75029-.18512 10.07026-9.68357-.13986.14397-10.10729-6.49137-.11929-.43193 24.71081 6.50371.13987.20568-11.32905 9.70004.17689-.18512 11.30848 6.49549.0987.4237-24.71081-6.49548-.0987zm92.99774 78.46702c.0453.0617 3.80926 1.92108 7.99286-1.8347 3.49662-3.14284 2.32422-7.44985-1.32871-11.49359l-6.73408-7.48277-18.35931 16.54518 4.33992 4.813 7.30999-6.55719 2.11031 2.38181-4.62787 10.4405 5.54111 4.42631zm3.27859-12.17235c1.71952 1.90874 1.74831 4.17538-.25093 5.93603-1.94576 1.79356-4.43042 1.38219-6.3186-.6911l-1.09835-1.22999 6.21576-5.61516zm-28.65171-6.31284 6.14994-5.10506 4.93229 5.8702 2.55047-2.12676-4.96108-5.89489 5.20379-4.38106 5.08038 6.05121 2.52168-2.10209-9.28044-11.06166-18.91877 15.887 10.21836 12.19703 2.55047-2.11854zm-7.09197-37.13204-2.20493 2.41884 5.18323 4.68547-14.36494 15.93636 4.8459 4.35637 14.34437-15.94047 5.11741 4.60731 2.1967-2.41884zm-42.30086 1.56648 2.61629-7.53624 7.27709 2.50934 1.08189-3.13462-7.28942-2.50523 2.21727-6.45434 7.49922 2.57104 1.0531-3.11816-13.6615-4.70193-8.02989 23.40267 15.05604 5.15443 1.06955-3.11816zm-78.23789-12.10694 9.28044 14.79276-20.66296-7.71313-4.59909 2.88779 13.10204 20.99206 4.98988-3.14284-9.34214-14.94497 20.87687 7.75016 4.50859-2.82609-13.12673-20.97972zm-28.90265 22.35327-4.22474 4.53326 11.84326 23.55077 2.89191-3.09348-3.21689-6.26512 5.718-6.14994 6.48314 2.74793 4.76363-5.10095zm9.98799 11.21386-4.29056 4.60731-4.40985-8.47416zm-23.94567 3.73069-4.59908 5.47529 8.59345 17.77106-18.42924-6.03475-3.96558 4.69781 18.93523 15.89933 2.87545-3.41435-13.38177-11.26322 17.93561 5.84141 1.88817-2.23784-8.55232-17.13755 13.43936 11.26734 4.19594-4.9652z" fill="#ffe500"/><path d="m355.48673 368.7335-.0206-5.45061c9.30101-8.53998 13.68618-17.1211 13.68618-17.1211s-3.41846-1.28758-4.94874-3.23334c-.75692-1.0819-1.04899-2.5587-.92147-3.5501.29619-1.85938 1.7442-2.80141 2.23784-3.01532 1.06956-.46073 3.05646-1.5056 5.26961 1.53851 2.35714 3.29505 1.73597 9.54783 1.41099 10.98762 0 0-4.33581 7.54858-16.71384 19.84434" fill="url(#n)"/><path d="m365.77913 347.15606c-1.25467 2.18847-4.41808 7.47042-12.41917 14.96965-1.32872 1.24644-4.64433 2.30365-6.52428.19334-.70344-.81862-1.16828-1.96634-1.09835-3.29917.0905-1.54262 1.01608-3.33618 1.94577-4.12601 1.61255-1.36162 8.4865-8.30138 13.37354-13.76022.13575.99551.99139 2.66154.99139 2.66154.67464.92969 1.49738 2.26663 3.7311 3.36087" fill="url(#o)"/><path d="m478.6788 517.36944c-29.32224 0-62.68822-17.3021-87.26328-45.2915-2.50111-2.84255-5.68509-6.4996-13.26247-6.4996-4.42631 0-9.44499 2.36947-12.77295 6.03475-2.50522 2.72325-5.31486 7.5239-4.64022 14.88326.97494 10.05381 16.90719 36.07277 45.30385 52.23127 22.88846 13.01976 47.32777 19.59752 72.63507 19.59752" fill="url(#e)"/><path d="m478.6788 517.36944c29.32224 0 62.68822-17.3021 87.26328-45.2915 2.50111-2.84255 5.68509-6.4996 13.26247-6.4996 4.42631 0 9.44499 2.36947 12.77295 6.03475 2.50522 2.72325 5.31486 7.5239 4.64022 14.88326-.97494 10.05381-16.90719 36.07277-45.30385 52.23127-22.88846 13.01976-47.32777 19.59752-72.63507 19.59752" fill="url(#f)"/><path d="m558.45315 389.69265c12.50762 16.69533 23.09621 22.99747 33.26931 20.40997 14.70226-3.74344 16.52873-23.97858 16.72618-30.10384v-.2427l-.16454-.12753c-5.18323-3.59123-13.85484-9.54371-28.38433-30.14086" fill="url(#i)"/><path d="m399.43884 389.69265c-12.50762 16.69533-23.09621 22.99747-33.26931 20.40997-14.70226-3.74344-16.52873-23.97858-16.72618-30.10384v-.2427l.16454-.12753c5.18323-3.59123 13.85484-9.54371 28.38433-30.14086" fill="url(#j)"/><path d="m522.98676 299.83981c-9.85635-3.29916-17.30621-5.87021-29.44565-6.94799 5.59459-3.8833 10.55979-7.17013 16.26956-7.17013 3.00298 0 5.56991 1.14772 6.16228 3.24569.55123 1.90874-.95437 2.7397-1.48915 2.61218-.55946-.14398-.95848-.30852-.82273-.82685.14398-.54712-.27973-1.93754-2.18847-1.93754-1.94165 0-2.67389 1.79768-2.67389 3.03178s1.95811 3.29505 5.55757 3.29505c3.52953 0 5.33954-2.35302 5.20379-4.52915 1.70306 2.49288 2.69446 5.01456 3.42669 9.22696" fill="url(#l)"/><path d="m479.38794 286.90193c-.30852 1.88406-2.47643 3.68997-4.66901 3.68997-2.1967 0-2.85489-.35378-2.85489-.35378-.33321.51832-.62528.91735-.97083 1.47681 1.99102-.0782 6.61067-.20569 8.46182-.20569 1.84704 0 6.96856.26739 8.07102.34555-1.78122-4.17537-5.21613-9.95508-7.58972-9.95508-.0823 0-.18511-.008-.31264-.008-.55534 0-2.47901 1.66793-3.50961 3.13247-1.35396 1.92405 3.37386 1.87775 3.37386 1.87775z" fill="url(#m)"/><path d="m602.40527 368.7335.0206-5.45061c-9.30101-8.53998-13.68618-17.1211-13.68618-17.1211s3.41846-1.28758 4.94874-3.23334c.75692-1.0819 1.04899-2.5587.92147-3.5501-.29619-1.85938-1.7442-2.80141-2.23784-3.01532-1.06956-.46073-3.05646-1.5056-5.26961 1.53851-2.35714 3.29505-1.73597 9.54783-1.41099 10.98762 0 0 4.33581 7.54858 16.71384 19.84434" fill="url(#p)"/><path d="m592.11287 347.15606c1.25467 2.18847 4.41808 7.47042 12.41917 14.96965 1.32872 1.24644 4.64433 2.30365 6.52428.19334.70344-.81862 1.16828-1.96634 1.09835-3.29917-.0905-1.54262-1.01608-3.33618-1.94577-4.12601-1.61255-1.36162-8.4865-8.30138-13.37354-13.76022-.13575.99551-.99139 2.66154-.99139 2.66154-.67464.92969-1.49738 2.26663-3.7311 3.36087" fill="url(#q)"/><path d="m423.57208 366.83504v115.7669l55.35354 35.56679 55.34943-35.56679.0823-115.59001c-1.773-1.5632-5.45473-4.98988-8.33841-6.78344h-94.44164c-2.39004 1.67837-7.17835 5.718-8.0052 6.60655z" fill="none" stroke="#000" stroke-miterlimit="3.863" stroke-width="2.097972"/><path d="m519.50828 558.36628c-5.43416 1.43978-9.31746 2.65743-18.47038 3.76812 0 0 .29207.92558 2.28309.85153.76103-.0494.86387-.23859 1.12714-.28384.58826-.10696 1.43979.48952 1.3534 1.48092-.0905.69932-.67464 1.56731-2.70679 1.56731-2.03216 0-4.39752-1.6537-5.59459-3.20044 0 0-1.21354.28385-2.47643.34555 0 0 3.9121 5.46295 11.59643 5.46295 8.43714 0 11.57998-7.57326 12.88813-9.9921" fill="url(#u)"/><path d="m335.194 439.53511c0-13.96591 11.33316-25.32375 25.31553-25.32375 13.98647 0 25.31141 11.35784 25.31141 25.32375 0 13.99059-11.32494 25.32375-25.31141 25.32375-13.98237 0-25.31553-11.33316-25.31553-25.32375z" fill="#ffe500" stroke="#000" stroke-miterlimit="3.863" stroke-width="2.097972"/><path d="m340.98926 438.59347c0-10.58865 8.73855-19.19992 19.5198-19.19992 10.78442 0 19.51662 8.61127 19.51662 19.19992 0 10.60737-8.7322 19.19992-19.51662 19.19992-10.78125 0-19.5198-8.59255-19.5198-19.19992z" fill="url(#g)"/><path d="m365.88609 456.93963c-1.11069.35378-1.59199-.42371-2.09797-.98317-1.97045-2.26663-2.47643-8.30138-2.47643-9.09944 0-.80216.29618-1.68249.85976-1.70305 4.75128-.0905 8.14506-1.46858 11.25911-4.05608 3.10994-2.54225 4.45922-5.45884 4.73483-5.97717.27151-.57591.91735-.47307 1.03665.32498.13164.66642.38257 1.8635.38257 3.1593 0 8.6963-5.86198 15.80061-13.69852 18.33463m-5.01456.78571c-.13575 0-.28796.0165-.41548.0165-3.50074 0-7.35525-1.33695-9.63833-2.63687-2.36536-1.28758-3.25392-7.35935-3.25392-10.42815 0-9.9921 4.09722-15.94047 4.76363-17.10875.64996-1.18474 2.11443-1.30815 3.1881-1.02019 1.11069.32086 1.5056.5142 2.78495.89266.66642.21803 2.01981.49364 3.03589.67464 1.01608.24271 2.11031.45662 1.45213 2.35302-.64996 1.90052-2.86312 6.46669-3.08526 11.88028-.21391 4.89938.43605 9.76586 1.54263 12.75649.72812 1.93343.72812 2.65743-.37434 2.62041m-14.46367-22.8103c-.9338-.49364-2.05683-2.90425-2.43529-3.60769-.25505-.50598-.25505-1.95399.11107-2.57104 1.56319-2.73559 3.78046-5.26961 6.63535-6.5901.34966-.15221.83919-.181.83919.65819 0 .44839.2427 1.14771.25093 1.59199 0 .44839.18923 1.36574-.37846 2.08974-.59648.72812-3.15107 5.25727-3.80514 7.79541-.10696.56768-.27973 1.16416-1.21765.6335m-.52655 16.03509c-2.6492-2.6163-4.53738-7.35525-4.53738-12.34513 0-1.93754.28796-3.7928.80217-5.55345 0 0 .47307-.78983.88444-.1193.31675.49364.7528.9914 1.10658 1.64958.39491.65819 2.44352 2.21727 2.27074 3.4884-.71578 4.66901-.074 10.87243.14809 11.9173.19746 1.03253-.0864 1.47269-.67464.9626m8.36309-30.43293c1.96222-.64996 4.05608-1.01608 6.21165-1.01608 3.27859 0 6.46257.59648 9.12 2.29131.68287.44428.87621.9626.87621 1.73186 0 2.50522-3.91621 3.34441-6.50782 3.34441-2.60807 0-5.81673-1.03253-8.08748-1.75242-2.26252-.70755-2.75616-2.0157-2.75616-2.61218 0-.5718.44017-1.75654 1.1436-1.9869m17.68056 2.78495c.34966.28384 1.27524 1.03253 1.27524 1.03253 1.82646 1.66604 3.47605 3.56655 4.43453 5.84553 1.19708 2.87134-2.51756 7.21949-3.60769 8.22322-4.91995 4.61965-8.00109 4.53327-9.74528 4.7842-1.7442.25505-2.87546-.83919-2.83021-2.15145.11107-3.84217 2.84666-10.46517 3.63237-11.71162.50187-.80216 1.37397-1.29992 1.37397-1.29992 1.82647-.50598 3.59946-1.26701 4.51681-2.31188.89678-1.06133.95026-2.41061.95026-2.41061m-11.27969-5.04747c-11.76098 0-21.28412 9.52726-21.28412 21.28001 0 11.76098 9.52314 21.28413 21.28412 21.28413 11.75276 0 21.29647-9.52315 21.29647-21.28413 0-11.75275-9.54371-21.28001-21.29647-21.28001" fill="#da020e"/><path d="m572.56098 439.48574c0-13.96591 11.33316-25.28262 25.31553-25.28262 13.99059 0 25.31552 11.31671 25.31552 25.28262 0 13.99059-11.32493 25.32787-25.31552 25.32787-13.98237 0-25.31553-11.33728-25.31553-25.32787z" fill="#ffe500" stroke="#000" stroke-miterlimit="3.863" stroke-width="2.097972"/><path d="m612.70217 450.86251c-.55535.54712-.86798.0699-.63351-.95437.19335-1.01608.83919-7.24006.1193-11.90908-.17689-1.26701 1.88406-2.82197 2.26252-3.48839.37846-.65407.81039-1.16417 1.1148-1.64135.42371-.6911.8721.0823.8721.0823.54301 1.78122.80628 3.64471.80628 5.57402 0 5.00634-1.91285 9.72883-4.54149 12.3369m-1.7154-16.64802c-.65819-2.52991-3.22923-7.07963-3.80926-7.80363-.58414-.69933-.39902-1.62902-.3908-2.07741 0-.44427.25505-1.15594.25505-1.61667 0-.80217.48541-.78571.83096-.63351 2.87134 1.32049 5.07627 3.81749 6.65592 6.57776.34966.62939.35789 2.06918.0987 2.55871-.37023.70755-1.48504 3.11816-2.43941 3.62825-.95437.52244-1.09423-.0864-1.20119-.6335m-3.19632 20.81928c-2.2872 1.27935-6.14171 2.62864-9.6589 2.62864h-.40725c-1.0819.0288-1.10658-.72401-.36612-2.64921 1.07367-2.96595 1.7442-7.85299 1.52206-12.74003-.22214-5.43827-2.4065-9.95508-3.08525-11.86794-.65819-1.8964.44016-2.12677 1.46858-2.34068 1.02019-.20157 2.36947-.49775 3.04-.71166 1.25878-.38258 1.66603-.57592 2.77673-.89267 1.08189-.27973 2.53813-.13987 3.20043 1.01608.64996 1.18473 4.7554 7.17012 4.7554 17.13755 0 3.05234-.89678 9.11589-3.24568 10.41992m-15.06838 1.82647c-7.8571-2.54636-13.70674-9.64656-13.70674-18.33463 0-1.27935.25093-2.46408.35377-3.15518.15221-.79805.7528-.92969 1.0531-.34144.27562.53478 1.64136 3.44726 4.73484 5.99774 3.13461 2.56693 6.49548 3.96969 11.27557 4.06841.58002.0288.85152.88033.85152 1.69895 0 .81039-.48952 6.83281-2.45174 9.08298-.52244.57592-1.02431 1.36574-2.11032.98317m-11.74041-26.74708c.9338-2.27897 2.59161-4.2124 4.41808-5.84141 0 0 .90501-.76515 1.25467-1.03253 0 0 .0741 1.36162.98317 2.38181.90501 1.02842 2.66154 1.8347 4.48801 2.316 0 0 .85976.52243 1.37397 1.3246.81039 1.20942 3.52541 7.8242 3.64471 11.69516.0329 1.31638-1.08601 2.41061-2.83432 2.15968-1.75242-.23448-4.82533-.181-9.74117-4.77597-1.08601-1.00785-4.80065-5.34777-3.58712-8.22734m8.02988-8.39189c2.69446-1.70306 5.8373-2.29954 9.12001-2.29954 2.17202 0 4.23708.37023 6.21576 1.02019.72812.22625 1.15594 1.39865 1.15594 1.9869 0 .58003-.4813 1.90463-2.76028 2.6163-2.27074.69932-5.46706 1.74419-8.07102 1.74419-2.6204 0-6.52428-.85153-6.52428-3.34441 0-.7528.18923-1.29992.86387-1.72363m8.91844-3.5213c-11.74864 0-21.2759 9.53137-21.2759 21.25533 0 11.78978 9.52726 21.28413 21.2759 21.28413 11.76921 0 21.29647-9.49435 21.29647-21.28413 0-11.72396-9.52726-21.25533-21.29647-21.25533" fill="#da020e"/><path d="m578.64551 438.49972c0-10.58865 8.73855-19.19992 19.5198-19.19992 10.78442 0 19.51662 8.61127 19.51662 19.19992 0 10.60737-8.7322 19.19992-19.51662 19.19992-10.78125 0-19.5198-8.59255-19.5198-19.19992z" fill="url(#h)"/></g><g fill="#fff"><path d="m994.14501 240.85423h45.20129l39.4055 98.62699 43.5176-98.62699h46.4642l.065 153.73635h-44.5861l-.032-86.51717-36.1352 86.51717h-23.8958l-35.2285-87.90947-.1296 87.90947h-34.64569z"/><path d="m1185.5707 240.85423c15.3154-.0648 30.6307-.0648 45.9137 0 .097 31.34305-.097 62.71848.097 94.06152.5829 11.00893 1.8133 24.54342 12.1422 30.98688 10.5557 5.56922 26.6481 4.92164 33.3182-6.28156 5.634-9.38996 6.0225-20.75506 6.2492-31.40781.032-29.0765.032-58.15301 0-87.22951 15.3154-.35617 30.6307-.0971 45.9461-.12952.097 32.47632-.1296 64.92026-.2915 97.39658-.2914 17.19334-7.6414 34.61334-21.6616 45.00706-18.359 13.85829-42.7405 16.28673-64.9203 13.5345-16.3515-1.97513-33.1239-8.22431-43.809-21.3055-9.4547-11.2032-12.8546-26.19476-12.9517-40.57112-.1295-31.34304 0-62.71847-.032-94.06152z"/><path d="m1341.6384 240.85423h127.9949l.032 29.2384-41.0568.0324.032 124.46557h-45.7517l-.032-124.46557-41.2511-.0324z"/><path d="m1479.4118 240.85423h49.9287l33.7715 97.04041 33.8038-97.04041h34.9048l-56.1131 153.73635h-40.215z"/><path d="m1656.105 240.85423h19.9766v30.04788h47.1778v-30.04788h20.0103l.032 78.45346h-20.0427v-33.57591h-47.1778v33.57591h-19.9766z"/><path d="m1765.0286 240.85423c17.0472-.002 33.8553.0397 50.6734.1619 13.7935.45331 27.7166 8.51572 32.541 21.85595 5.375 14.89442 3.8856 33.60959-7.6414 45.29847-7.1882 7.67387-17.9381 10.78227-28.2347 10.97654-15.7039.38855-31.6344.0635-47.3383.1606m19.9455-64.53041v50.34963c13.708.25586 28.0843 1.65614 38.5636-4.14454 13.2609-7.34035 14.1459-36.06059.097-42.28721-11.1984-4.96331-24.1265-3.92949-38.6608-3.91788z"/></g></g></svg>