<?xml version="1.0" encoding="UTF-8" standalone="no"?>
<!-- Created with Inkscape (http://www.inkscape.org/) -->

<svg
   xmlns:dc="http://purl.org/dc/elements/1.1/"
   xmlns:cc="http://creativecommons.org/ns#"
   xmlns:rdf="http://www.w3.org/1999/02/22-rdf-syntax-ns#"
   xmlns:svg="http://www.w3.org/2000/svg"
   xmlns="http://www.w3.org/2000/svg"
   xmlns:sodipodi="http://sodipodi.sourceforge.net/DTD/sodipodi-0.dtd"
   xmlns:inkscape="http://www.inkscape.org/namespaces/inkscape"
   width="13.70734mm"
   height="8.3221941mm"
   viewBox="0 0 13.70734 8.3221941"
   version="1.1"
   id="svg9631"
   inkscape:version="0.92.0 r15299"
   sodipodi:docname="My5 - Dark.svg">
  <defs
     id="defs9625" />
  <sodipodi:namedview
     id="base"
     pagecolor="#ffffff"
     bordercolor="#666666"
     borderopacity="1.0"
     inkscape:pageopacity="0.0"
     inkscape:pageshadow="2"
     inkscape:zoom="15.839192"
     inkscape:cx="20.763542"
     inkscape:cy="14.78145"
     inkscape:document-units="mm"
     inkscape:current-layer="layer1"
     showgrid="false"
     inkscape:window-width="1920"
     inkscape:window-height="1017"
     inkscape:window-x="-8"
     inkscape:window-y="-8"
     inkscape:window-maximized="1"
     fit-margin-top="0"
     fit-margin-left="0"
     fit-margin-right="0"
     fit-margin-bottom="0" />
  <metadata
     id="metadata9628">
    <rdf:RDF>
      <cc:Work
         rdf:about="">
        <dc:format>image/svg+xml</dc:format>
        <dc:type
           rdf:resource="http://purl.org/dc/dcmitype/StillImage" />
        <dc:title></dc:title>
      </cc:Work>
    </rdf:RDF>
  </metadata>
  <g
     inkscape:label="Layer 1"
     inkscape:groupmode="layer"
     id="layer1"
     transform="translate(-49.842758,-112.16628)">
    <g
       transform="matrix(0.35277777,0,0,-0.35277777,-128.07903,142.20177)"
       id="g9600"
       style="fill:#000000;fill-opacity:1">
      <g
         style="fill:#000000;fill-opacity:1"
         transform="translate(520.5839,81.1424)"
         id="g480">
        <path
           inkscape:connector-curvature="0"
           id="path482"
           style="fill:#000000;fill-opacity:1;fill-rule:nonzero;stroke:none"
           d="m 0,0 c -0.027,0.108 -0.103,0.39 -0.156,0.536 -0.02,-0.011 -0.915,-2.742 -1.329,-3.979 -0.056,0.069 -0.081,0.138 -0.092,0.209 -0.041,0.244 -0.077,0.488 -0.114,0.733 -0.087,0.584 -0.175,1.169 -0.262,1.753 -0.089,0.592 -0.178,1.183 -0.266,1.774 -0.079,0.524 -0.154,1.047 -0.235,1.57 -0.051,0.326 -0.092,0.655 -0.171,0.974 -0.073,0.291 -0.274,0.425 -0.54,0.425 -0.639,-10e-4 -1.278,-10e-4 -1.917,0 -0.195,0 -0.356,-0.076 -0.462,-0.234 C -5.62,3.649 -5.677,3.52 -5.719,3.39 -6.403,1.302 -7.083,-0.788 -7.765,-2.877 c -0.062,-0.19 -0.131,-0.379 -0.196,-0.568 -0.024,0.003 -0.048,0.005 -0.072,0.008 -0.127,0.807 -0.256,1.612 -0.38,2.419 -0.091,0.591 -0.174,1.183 -0.262,1.775 -0.092,0.625 -0.185,1.251 -0.282,1.875 -0.051,0.326 -0.095,0.654 -0.173,0.973 -0.065,0.264 -0.273,0.389 -0.543,0.388 -0.625,0 -1.251,0.014 -1.875,-0.007 -0.155,-0.006 -0.336,-0.093 -0.45,-0.201 -0.112,-0.106 -0.173,-0.279 -0.224,-0.433 -0.913,-2.771 -1.823,-5.543 -2.727,-8.317 -0.422,-1.292 -0.844,-2.585 -1.24,-3.886 -0.135,-0.443 -0.002,-0.604 0.488,-0.627 0.492,-0.023 0.986,-0.004 1.479,-0.003 0.533,10e-4 0.722,0.138 0.89,0.653 0.613,1.873 1.224,3.747 1.836,5.621 0.127,0.388 0.259,0.774 0.388,1.162 0.108,-0.474 0.182,-0.941 0.249,-1.409 0.076,-0.524 0.147,-1.049 0.22,-1.574 0.063,-0.456 0.127,-0.912 0.189,-1.369 0.063,-0.463 0.123,-0.927 0.186,-1.39 0.053,-0.389 0.093,-0.78 0.167,-1.164 0.074,-0.379 0.295,-0.534 0.675,-0.531 0.549,0.003 1.098,0.005 1.646,0.002 0.557,-0.003 0.762,0.136 0.932,0.658 0.575,1.762 1.148,3.525 1.723,5.287 0.157,0.482 0.317,0.962 0.485,1.471 0.039,-0.057 0.07,-0.082 0.075,-0.112 0.087,-0.592 0.173,-1.183 0.257,-1.775 0.075,-0.525 0.148,-1.049 0.223,-1.573 0.078,-0.545 0.162,-1.089 0.236,-1.634 0.075,-0.559 0.132,-1.121 0.214,-1.679 0.063,-0.435 0.348,-0.648 0.796,-0.644 0.549,0.005 1.097,10e-4 1.646,0 0.438,-10e-4 0.642,0.135 0.784,0.561 0.471,1.411 0.941,2.823 1.397,4.24 0.055,0.174 0.059,0.387 0.017,0.566 C 0.684,-2.74 0.344,-1.369 0,0" />
      </g>
      <g
         style="fill:#000000;fill-opacity:1"
         transform="translate(529.7999,82.2696)"
         id="g484">
        <path
           inkscape:connector-curvature="0"
           id="path486"
           style="fill:#000000;fill-opacity:1;fill-rule:nonzero;stroke:none"
           d="M 0,0 C 0.158,0.495 -0.096,0.641 -0.534,0.656 -1.054,0.674 -1.575,0.66 -2.096,0.669 -2.375,0.673 -2.626,0.615 -2.782,0.366 -2.865,0.234 -2.926,0.083 -2.973,-0.066 -3.49,-1.725 -4.002,-3.385 -4.517,-5.044 -4.539,-5.116 -4.58,-5.182 -4.631,-5.292 c -0.038,0.116 -0.064,0.179 -0.08,0.245 -0.375,1.482 -0.748,2.964 -1.125,4.446 -0.073,0.285 -0.152,0.57 -0.245,0.849 -0.082,0.243 -0.24,0.379 -0.526,0.378 C -7.308,0.624 -8.009,0.6 -8.71,0.613 c -0.067,0.001 -0.134,0 -0.215,0 0.031,-0.19 0.047,-0.307 0.086,-0.466 0.749,-3.05 1.497,-6.1 2.256,-9.148 0.125,-0.5 0.233,-1 0.104,-1.508 -0.124,-0.485 -0.28,-0.963 -0.437,-1.438 -0.24,-0.724 -0.503,-1.44 -0.737,-2.165 -0.133,-0.416 0.035,-0.621 0.469,-0.621 0.556,-10e-4 1.112,0.001 1.667,0 0.521,-0.002 0.687,0.111 0.851,0.605 1.306,3.94 2.612,7.88 3.916,11.821 C -0.496,-1.539 -0.245,-0.771 0,0" />
      </g>
      <g
         style="fill:#000000;fill-opacity:1"
         transform="translate(543.0371,70.3106)"
         id="g488">
        <path
           inkscape:connector-curvature="0"
           id="path490"
           style="fill:#000000;fill-opacity:1;fill-rule:nonzero;stroke:none"
           d="m 0,0 c -0.478,2.238 -1.762,3.903 -3.782,4.986 -0.872,0.468 -1.813,0.772 -2.799,0.786 -2.409,0.036 -4.819,0.013 -7.229,0.014 -0.067,0 -0.133,-0.006 -0.205,-0.01 0.006,-0.037 0.004,-0.059 0.012,-0.076 0.563,-1.153 1.118,-2.309 1.695,-3.454 0.15,-0.298 0.425,-0.477 0.774,-0.478 1.375,-0.003 2.75,0.017 4.125,-0.006 0.563,-0.01 1.136,-0.051 1.683,-0.173 1.887,-0.424 3.299,-1.511 4.225,-3.204 0.559,-1.023 0.821,-2.129 0.744,-3.362 0.049,0.069 0.063,0.084 0.072,0.101 C 0.121,-3.332 0.361,-1.693 0,0" />
      </g>
      <g
         style="fill:#000000;fill-opacity:1"
         transform="translate(535.2919,66.1089)"
         id="g492">
        <path
           inkscape:connector-curvature="0"
           id="path494"
           style="fill:#000000;fill-opacity:1;fill-rule:nonzero;stroke:none"
           d="m 0,0 c -1.317,0.336 -2.123,1.343 -2.197,2.745 -0.018,0.328 -0.232,0.527 -0.563,0.527 -1.091,-10e-4 -2.182,-10e-4 -3.272,0 -0.403,0 -0.662,-0.244 -0.632,-0.645 0.036,-0.481 0.061,-0.97 0.171,-1.436 0.544,-2.324 1.892,-4.02 4.045,-5.065 0.769,-0.374 1.59,-0.566 2.435,-0.661 0.294,-0.033 0.312,-0.012 0.312,0.274 0,0.653 0,1.306 0,1.959 0,0.639 0,1.278 0,1.917 0,0.309 0,0.309 -0.299,0.385" />
      </g>
      <g
         style="fill:#000000;fill-opacity:1"
         transform="translate(539.2403,70.3255)"
         id="g496">
        <path
           inkscape:connector-curvature="0"
           id="path498"
           style="fill:#000000;fill-opacity:1;fill-rule:nonzero;stroke:none"
           d="m 0,0 c -0.552,0.4 -1.156,0.697 -1.863,0.888 0.933,-0.616 1.466,-1.684 1.294,-2.812 -0.17,-1.112 -1.089,-2.117 -2.201,-2.303 -0.198,-0.033 -0.227,-0.106 -0.226,-0.278 0.005,-1.34 0.003,-2.68 0.003,-4.02 v -0.251 c 0.289,0.039 0.541,0.073 0.792,0.106 0.878,0.117 1.692,0.412 2.462,0.846 1.62,0.912 2.379,2.836 1.937,4.606 C 1.862,-1.875 1.117,-0.809 0,0" />
      </g>
      <g
         style="fill:#000000;fill-opacity:1"
         transform="translate(529.0453,76.789)"
         id="g500">
        <path
           inkscape:connector-curvature="0"
           id="path502"
           style="fill:#000000;fill-opacity:1;fill-rule:nonzero;stroke:none"
           d="m 0,0 h 0.207 c 1.319,0 2.639,0.004 3.958,-0.004 0.178,-0.002 0.25,0.057 0.304,0.222 0.547,1.676 1.103,3.349 1.655,5.024 0.087,0.262 0.168,0.527 0.258,0.814 H 6.164 c -1.209,0 -2.417,0.001 -3.625,0 C 2.123,6.056 1.953,5.932 1.823,5.538 1.368,4.163 0.913,2.789 0.459,1.413 0.307,0.953 0.159,0.491 0,0" />
      </g>
      <g
         style="fill:#000000;fill-opacity:1"
         transform="translate(534.8086,78.7971)"
         id="g504">
        <path
           inkscape:connector-curvature="0"
           id="path506"
           style="fill:#000000;fill-opacity:1;fill-rule:nonzero;stroke:none"
           d="m 0,0 c 0.096,-0.005 0.157,-0.011 0.218,-0.011 2.09,0 4.18,-0.001 6.27,0 0.393,0 0.635,0.243 0.636,0.632 C 7.125,1.53 7.112,2.44 7.13,3.349 7.138,3.741 6.911,4.053 6.426,4.051 4.794,4.044 3.163,4.046 1.531,4.052 1.368,4.053 1.307,3.996 1.259,3.847 0.878,2.672 0.488,1.5 0.102,0.327 0.068,0.226 0.038,0.123 0,0" />
      </g>
    </g>
  </g>
</svg>
