<svg height="8.322194mm" viewBox="0 0 13.70734 8.3221941" width="13.70734mm" xmlns="http://www.w3.org/2000/svg"><g transform="matrix(.35277777 0 0 -.35277777 -177.921788 30.03549)"><path d="m0 0c-.027.108-.103.39-.156.536-.02-.011-.915-2.742-1.329-3.979-.056.069-.081.138-.092.209-.041.244-.077.488-.114.733-.087.584-.175 1.169-.262 1.753-.089.592-.178 1.183-.266 1.774-.079.524-.154 1.047-.235 1.57-.051.326-.092.655-.171.974-.073.291-.274.425-.54.425-.639-.001-1.278-.001-1.917 0-.195 0-.356-.076-.462-.234-.076-.112-.133-.241-.175-.371-.684-2.088-1.364-4.178-2.046-6.267-.062-.19-.131-.379-.196-.568-.024.003-.048.005-.072.008-.127.807-.256 1.612-.38 2.419-.091.591-.174 1.183-.262 1.775-.092.625-.185 1.251-.282 1.875-.051.326-.095.654-.173.973-.065.264-.273.389-.543.388-.625 0-1.251.014-1.875-.007-.155-.006-.336-.093-.45-.201-.112-.106-.173-.279-.224-.433-.913-2.771-1.823-5.543-2.727-8.317-.422-1.292-.844-2.585-1.24-3.886-.135-.443-.002-.604.488-.627.492-.023.986-.004 1.479-.003.533.001.722.138.89.653.613 1.873 1.224 3.747 1.836 5.621.127.388.259.774.388 1.162.108-.474.182-.941.249-1.409.076-.524.147-1.049.22-1.574.063-.456.127-.912.189-1.369.063-.463.123-.927.186-1.39.053-.389.093-.78.167-1.164.074-.379.295-.534.675-.531.549.003 1.098.005 1.646.002.557-.003.762.136.932.658.575 1.762 1.148 3.525 1.723 5.287.157.482.317.962.485 1.471.039-.057.07-.082.075-.112.087-.592.173-1.183.257-1.775.075-.525.148-1.049.223-1.573.078-.545.162-1.089.236-1.634.075-.559.132-1.121.214-1.679.063-.435.348-.648.796-.644.549.005 1.097.001 1.646 0 .438-.001.642.135.784.561.471 1.411.941 2.823 1.397 4.24.055.174.059.387.017.566-.325 1.374-.665 2.745-1.009 4.114" transform="translate(520.5839 81.1424)"/><path d="m0 0c .158.495-.096.641-.534.656-.52.018-1.041.004-1.562.013-.279.004-.53-.054-.686-.303-.083-.132-.144-.283-.191-.432-.517-1.659-1.029-3.319-1.544-4.978-.022-.072-.063-.138-.114-.248-.038.116-.064.179-.08.245-.375 1.482-.748 2.964-1.125 4.446-.073.285-.152.57-.245.849-.082.243-.24.379-.526.378-.701-.002-1.402-.026-2.103-.013-.067.001-.134 0-.215 0 .031-.19.047-.307.086-.466.749-3.05 1.497-6.1 2.256-9.148.125-.5.233-1 .104-1.508-.124-.485-.28-.963-.437-1.438-.24-.724-.503-1.44-.737-2.165-.133-.416.035-.621.469-.621.556-.001 1.112.001 1.667 0 .521-.002.687.111.851.605 1.306 3.94 2.612 7.88 3.916 11.821.254.768.505 1.536.75 2.307" transform="translate(529.7999 82.2696)"/><path d="m0 0c-.478 2.238-1.762 3.903-3.782 4.986-.872.468-1.813.772-2.799.786-2.409.036-4.819.013-7.229.014-.067 0-.133-.006-.205-.01.006-.037.004-.059.012-.076.563-1.153 1.118-2.309 1.695-3.454.15-.298.425-.477.774-.478 1.375-.003 2.75.017 4.125-.006.563-.01 1.136-.051 1.683-.173 1.887-.424 3.299-1.511 4.225-3.204.559-1.023.821-2.129.744-3.362.049.069.063.084.072.101.806 1.544 1.046 3.183.685 4.876" transform="translate(543.0371 70.3106)"/><path d="m0 0c-1.317.336-2.123 1.343-2.197 2.745-.018.328-.232.527-.563.527-1.091-.001-2.182-.001-3.272 0-.403 0-.662-.244-.632-.645.036-.481.061-.97.171-1.436.544-2.324 1.892-4.02 4.045-5.065.769-.374 1.59-.566 2.435-.661.294-.033.312-.012.312.274v1.959 1.917c0 .309 0 .309-.299.385" transform="translate(535.2919 66.1089)"/><path d="m0 0c-.552.4-1.156.697-1.863.888.933-.616 1.466-1.684 1.294-2.812-.17-1.112-1.089-2.117-2.201-2.303-.198-.033-.227-.106-.226-.278.005-1.34.003-2.68.003-4.02v-.251c.289.039.541.073.792.106.878.117 1.692.412 2.462.846 1.62.912 2.379 2.836 1.937 4.606-.336 1.343-1.081 2.409-2.198 3.218" transform="translate(539.2403 70.3255)"/><path d="m0 0h .207c1.319 0 2.639.004 3.958-.004.178-.002.25.057.304.222.547 1.676 1.103 3.349 1.655 5.024.087.262.168.527.258.814h-.218c-1.209 0-2.417.001-3.625 0-.416 0-.586-.124-.716-.518-.455-1.375-.91-2.749-1.364-4.125-.152-.46-.3-.922-.459-1.413" transform="translate(529.0453 76.789)"/><path d="m0 0c .096-.005.157-.011.218-.011 2.09 0 4.18-.001 6.27 0 .393 0 .635.243.636.632.001.909-.012 1.819.006 2.728.008.392-.219.704-.704.702-1.632-.007-3.263-.005-4.895.001-.163.001-.224-.056-.272-.205-.381-1.175-.771-2.347-1.157-3.52-.034-.101-.064-.204-.102-.327" transform="translate(534.8086 78.7971)"/></g></svg>