<?xml version="1.0" encoding="UTF-8" standalone="no"?>
<svg
   xmlns:dc="http://purl.org/dc/elements/1.1/"
   xmlns:cc="http://creativecommons.org/ns#"
   xmlns:rdf="http://www.w3.org/1999/02/22-rdf-syntax-ns#"
   xmlns:svg="http://www.w3.org/2000/svg"
   xmlns="http://www.w3.org/2000/svg"
   xmlns:xlink="http://www.w3.org/1999/xlink"
   xmlns:sodipodi="http://sodipodi.sourceforge.net/DTD/sodipodi-0.dtd"
   xmlns:inkscape="http://www.inkscape.org/namespaces/inkscape"
   width="38.855453pt"
   height="23.590471pt"
   viewBox="0 0 38.855454 23.590472"
   version="1.1"
   id="svg2"
   inkscape:version="0.92.0 r15299"
   sodipodi:docname="My5.svg"
   inkscape:export-filename="C:\Users\Jasmeet\Downloads\My5.png"
   inkscape:export-xdpi="1252.684"
   inkscape:export-ydpi="1252.684">
  <metadata
     id="metadata24">
    <rdf:RDF>
      <cc:Work
         rdf:about="">
        <dc:format>image/svg+xml</dc:format>
        <dc:type
           rdf:resource="http://purl.org/dc/dcmitype/StillImage" />
        <dc:title></dc:title>
      </cc:Work>
    </rdf:RDF>
  </metadata>
  <defs
     id="defs22">
    <linearGradient
       inkscape:collect="always"
       id="linearGradient4495">
      <stop
         style="stop-color:#cbd0db;stop-opacity:1"
         offset="0"
         id="stop4491" />
      <stop
         id="stop4503"
         offset="0.20728549"
         style="stop-color:#c7cfd5;stop-opacity:1" />
      <stop
         style="stop-color:#c4ccd3;stop-opacity:1"
         offset="0.37889069"
         id="stop4507" />
      <stop
         id="stop4499"
         offset="0.53520435"
         style="stop-color:#bac2ca;stop-opacity:1" />
      <stop
         style="stop-color:#a6aeb7;stop-opacity:1"
         offset="0.73909169"
         id="stop4501" />
      <stop
         id="stop4505"
         offset="0.84273446"
         style="stop-color:#9aa2ac;stop-opacity:1" />
      <stop
         style="stop-color:#818994;stop-opacity:1"
         offset="1"
         id="stop4493" />
    </linearGradient>
    <linearGradient
       inkscape:collect="always"
       xlink:href="#linearGradient4495"
       id="linearGradient4578"
       x1="-3.2074524e-006"
       y1="-123.61599"
       x2="38.85545"
       y2="-123.61599"
       gradientUnits="userSpaceOnUse" />
    <linearGradient
       inkscape:collect="always"
       xlink:href="#linearGradient4495"
       id="linearGradient4580"
       gradientUnits="userSpaceOnUse"
       x1="-3.2074524e-006"
       y1="-123.61599"
       x2="38.85545"
       y2="-123.61599" />
    <linearGradient
       inkscape:collect="always"
       xlink:href="#linearGradient4495"
       id="linearGradient4582"
       gradientUnits="userSpaceOnUse"
       x1="-3.2074524e-006"
       y1="-123.61599"
       x2="38.85545"
       y2="-123.61599" />
    <linearGradient
       inkscape:collect="always"
       xlink:href="#linearGradient4495"
       id="linearGradient4584"
       gradientUnits="userSpaceOnUse"
       x1="-3.2074524e-006"
       y1="-123.61599"
       x2="38.85545"
       y2="-123.61599" />
    <linearGradient
       inkscape:collect="always"
       xlink:href="#linearGradient4495"
       id="linearGradient4586"
       gradientUnits="userSpaceOnUse"
       x1="-3.2074524e-006"
       y1="-123.61599"
       x2="38.85545"
       y2="-123.61599" />
    <linearGradient
       inkscape:collect="always"
       xlink:href="#linearGradient4495"
       id="linearGradient4588"
       gradientUnits="userSpaceOnUse"
       x1="-3.2074524e-006"
       y1="-123.61599"
       x2="38.85545"
       y2="-123.61599" />
    <linearGradient
       inkscape:collect="always"
       xlink:href="#linearGradient4495"
       id="linearGradient4590"
       gradientUnits="userSpaceOnUse"
       x1="-3.2074524e-006"
       y1="-123.61599"
       x2="38.85545"
       y2="-123.61599" />
    <linearGradient
       inkscape:collect="always"
       xlink:href="#linearGradient4495"
       id="linearGradient4592"
       gradientUnits="userSpaceOnUse"
       x1="-3.2074524e-006"
       y1="-123.61599"
       x2="38.85545"
       y2="-123.61599" />
  </defs>
  <sodipodi:namedview
     pagecolor="#ffffff"
     bordercolor="#666666"
     borderopacity="1"
     objecttolerance="10"
     gridtolerance="10"
     guidetolerance="10"
     inkscape:pageopacity="0"
     inkscape:pageshadow="2"
     inkscape:window-width="1920"
     inkscape:window-height="1017"
     id="namedview20"
     showgrid="false"
     fit-margin-top="0"
     fit-margin-left="0"
     fit-margin-right="0"
     fit-margin-bottom="0"
     inkscape:zoom="15.36"
     inkscape:cx="25.387502"
     inkscape:cy="17.253537"
     inkscape:window-x="-8"
     inkscape:window-y="-8"
     inkscape:window-maximized="1"
     inkscape:current-layer="svg2" />
  <g
     id="#ffffffff"
     transform="translate(-5.1335321,131.41271)" />
  <g
     id="g4570"
     style="fill:url(#linearGradient4578);fill-opacity:1"
     transform="translate(3.2074525e-6,135.41122)">
    <path
       d="m 16.23866,-131.41365 c -0.027,-0.108 -0.103,-0.39 -0.156,-0.536 -0.02,0.011 -0.915,2.742 -1.329,3.979 -0.056,-0.069 -0.081,-0.138 -0.092,-0.209 -0.041,-0.244 -0.077,-0.488 -0.114,-0.733 -0.087,-0.584 -0.175,-1.169 -0.262,-1.753 -0.089,-0.592 -0.178,-1.183 -0.266,-1.774 -0.079,-0.524 -0.154,-1.047 -0.235,-1.57 -0.051,-0.326 -0.092,-0.655 -0.171,-0.974 -0.073,-0.291 -0.274,-0.425 -0.54,-0.425 -0.639,0.001 -1.278,0.001 -1.917,0 -0.195,0 -0.356,0.076 -0.462,0.234 -0.076,0.112 -0.133,0.241 -0.175,0.371 -0.684,2.088 -1.364,4.178 -2.046,6.267 -0.062,0.19 -0.131,0.379 -0.196,0.568 -0.024,-0.003 -0.048,-0.005 -0.072,-0.008 -0.127,-0.807 -0.256,-1.612 -0.38,-2.419 -0.091,-0.591 -0.174,-1.183 -0.262,-1.775 -0.092,-0.625 -0.185,-1.251 -0.282,-1.875 -0.051,-0.326 -0.095,-0.654 -0.173,-0.973 -0.065,-0.264 -0.273,-0.389 -0.543,-0.388 -0.625,0 -1.251,-0.014 -1.875,0.007 -0.155,0.006 -0.336,0.093 -0.45,0.201 -0.112,0.106 -0.173,0.279 -0.224,0.433 -0.913,2.771 -1.823,5.543 -2.727,8.317 -0.422,1.292 -0.844,2.585 -1.24,3.886 -0.135,0.443 -0.002,0.604 0.488,0.627 0.492,0.023 0.986,0.004 1.479,0.003 0.533,-0.001 0.722,-0.138 0.89,-0.653 0.613,-1.873 1.224,-3.747 1.836,-5.621 0.127,-0.388 0.259,-0.774 0.388,-1.162 0.108,0.474 0.182,0.941 0.249,1.409 0.076,0.524 0.147,1.049 0.22,1.574 0.063,0.456 0.127,0.912 0.189,1.369 0.063,0.463 0.123,0.927 0.186,1.39 0.053,0.389 0.093,0.78 0.167,1.164 0.074,0.379 0.295,0.534 0.675,0.531 0.549,-0.003 1.098,-0.005 1.646,-0.002 0.557,0.003 0.762,-0.136 0.932,-0.658 0.575,-1.762 1.148,-3.525 1.723,-5.287 0.157,-0.482 0.317,-0.962 0.485,-1.471 0.039,0.057 0.07,0.082 0.075,0.112 0.087,0.592 0.173,1.183 0.257,1.775 0.075,0.525 0.148,1.049 0.223,1.573 0.078,0.545 0.162,1.089 0.236,1.634 0.075,0.559 0.132,1.121 0.214,1.679 0.063,0.435 0.348,0.648 0.796,0.644 0.549,-0.005 1.097,-0.001 1.646,0 0.438,10e-4 0.642,-0.135 0.784,-0.561 0.471,-1.411 0.941,-2.823 1.397,-4.24 0.055,-0.174 0.059,-0.387 0.017,-0.566 -0.325,-1.374 -0.665,-2.745 -1.009,-4.114"
       style="fill:url(#linearGradient4580);fill-opacity:1;fill-rule:nonzero;stroke:none"
       id="path482"
       inkscape:connector-curvature="0" />
    <path
       d="m 25.45466,-132.54085 c 0.158,-0.495 -0.096,-0.641 -0.534,-0.656 -0.52,-0.018 -1.041,-0.004 -1.562,-0.013 -0.279,-0.004 -0.53,0.054 -0.686,0.303 -0.083,0.132 -0.144,0.283 -0.191,0.432 -0.517,1.659 -1.029,3.319 -1.544,4.978 -0.022,0.072 -0.063,0.138 -0.114,0.248 -0.038,-0.116 -0.064,-0.179 -0.08,-0.245 -0.375,-1.482 -0.748,-2.964 -1.125,-4.446 -0.073,-0.285 -0.152,-0.57 -0.245,-0.849 -0.082,-0.243 -0.24,-0.379 -0.526,-0.378 -0.701,0.002 -1.402,0.026 -2.103,0.013 -0.067,-0.001 -0.134,0 -0.215,0 0.031,0.19 0.047,0.307 0.086,0.466 0.749,3.05 1.497,6.1 2.256,9.148 0.125,0.5 0.233,1 0.104,1.508 -0.124,0.485 -0.28,0.963 -0.437,1.438 -0.24,0.724 -0.503,1.44 -0.737,2.165 -0.133,0.416 0.035,0.621 0.469,0.621 0.556,0.001 1.112,-0.001 1.667,0 0.521,0.002 0.687,-0.111 0.851,-0.605 1.306,-3.94 2.612,-7.88 3.916,-11.821 0.254,-0.768 0.505,-1.536 0.75,-2.307"
       style="fill:url(#linearGradient4582);fill-opacity:1;fill-rule:nonzero;stroke:none"
       id="path486"
       inkscape:connector-curvature="0" />
    <path
       d="m 38.69186,-120.58185 c -0.478,-2.238 -1.762,-3.903 -3.782,-4.986 -0.872,-0.468 -1.813,-0.772 -2.799,-0.786 -2.409,-0.036 -4.819,-0.013 -7.229,-0.014 -0.067,0 -0.133,0.006 -0.205,0.01 0.006,0.037 0.004,0.059 0.012,0.076 0.563,1.153 1.118,2.309 1.695,3.454 0.15,0.298 0.425,0.477 0.774,0.478 1.375,0.003 2.75,-0.017 4.125,0.006 0.563,0.01 1.136,0.051 1.683,0.173 1.887,0.424 3.299,1.511 4.225,3.204 0.559,1.023 0.821,2.129 0.744,3.362 0.049,-0.069 0.063,-0.084 0.072,-0.101 0.806,-1.544 1.046,-3.183 0.685,-4.876"
       style="fill:url(#linearGradient4584);fill-opacity:1;fill-rule:nonzero;stroke:none"
       id="path490"
       inkscape:connector-curvature="0" />
    <path
       d="m 30.94666,-116.38015 c -1.317,-0.336 -2.123,-1.343 -2.197,-2.745 -0.018,-0.328 -0.232,-0.527 -0.563,-0.527 -1.091,0.001 -2.182,0.001 -3.272,0 -0.403,0 -0.662,0.244 -0.632,0.645 0.036,0.481 0.061,0.97 0.171,1.436 0.544,2.324 1.892,4.02 4.045,5.065 0.769,0.374 1.59,0.566 2.435,0.661 0.294,0.033 0.312,0.012 0.312,-0.274 0,-0.653 0,-1.306 0,-1.959 0,-0.639 0,-1.278 0,-1.917 0,-0.309 0,-0.309 -0.299,-0.385"
       style="fill:url(#linearGradient4586);fill-opacity:1;fill-rule:nonzero;stroke:none"
       id="path494"
       inkscape:connector-curvature="0" />
    <path
       d="m 34.89506,-120.59675 c -0.552,-0.4 -1.156,-0.697 -1.863,-0.888 0.933,0.616 1.466,1.684 1.294,2.812 -0.17,1.112 -1.089,2.117 -2.201,2.303 -0.198,0.033 -0.227,0.106 -0.226,0.278 0.005,1.34 0.003,2.68 0.003,4.02 v 0.251 c 0.289,-0.039 0.541,-0.073 0.792,-0.106 0.878,-0.117 1.692,-0.412 2.462,-0.846 1.62,-0.912 2.379,-2.836 1.937,-4.606 -0.336,-1.343 -1.081,-2.409 -2.198,-3.218"
       style="fill:url(#linearGradient4588);fill-opacity:1;fill-rule:nonzero;stroke:none"
       id="path498"
       inkscape:connector-curvature="0" />
    <path
       d="m 24.70006,-127.06025 h 0.207 c 1.319,0 2.639,-0.004 3.958,0.004 0.178,0.002 0.25,-0.057 0.304,-0.222 0.547,-1.676 1.103,-3.349 1.655,-5.024 0.087,-0.262 0.168,-0.527 0.258,-0.814 h -0.218 c -1.209,0 -2.417,-0.001 -3.625,0 -0.416,0 -0.586,0.124 -0.716,0.518 -0.455,1.375 -0.91,2.749 -1.364,4.125 -0.152,0.46 -0.3,0.922 -0.459,1.413"
       style="fill:url(#linearGradient4590);fill-opacity:1;fill-rule:nonzero;stroke:none"
       id="path502"
       inkscape:connector-curvature="0" />
    <path
       d="m 30.46336,-129.06835 c 0.096,0.005 0.157,0.011 0.218,0.011 2.09,0 4.18,0.001 6.27,0 0.393,0 0.635,-0.243 0.636,-0.632 0.001,-0.909 -0.012,-1.819 0.006,-2.728 0.008,-0.392 -0.219,-0.704 -0.704,-0.702 -1.632,0.007 -3.263,0.005 -4.895,-0.001 -0.163,-0.001 -0.224,0.056 -0.272,0.205 -0.381,1.175 -0.771,2.347 -1.157,3.52 -0.034,0.101 -0.064,0.204 -0.102,0.327"
       style="fill:url(#linearGradient4592);fill-opacity:1;fill-rule:nonzero;stroke:none"
       id="path506"
       inkscape:connector-curvature="0" />
  </g>
</svg>
