<?xml version="1.0" encoding="UTF-8"?>
<!-- Created with Inkscape (http://www.inkscape.org/) -->
<svg width="600" height="216.3" version="1.1" xmlns="http://www.w3.org/2000/svg" xmlns:cc="http://creativecommons.org/ns#" xmlns:dc="http://purl.org/dc/elements/1.1/" xmlns:rdf="http://www.w3.org/1999/02/22-rdf-syntax-ns#">
 <metadata>
  <rdf:RDF>
   <cc:Work rdf:about="">
    <dc:format>image/svg+xml</dc:format>
    <dc:type rdf:resource="http://purl.org/dc/dcmitype/StillImage"/>
    <dc:title/>
   </cc:Work>
  </rdf:RDF>
 </metadata>
 <g transform="translate(43.986 15.857)">
  <path d="m173.31 62.992c5.0548 30.196 10.139 60.185 15.061 96.117h0.33995c8.1587-35.178 16.421-64.798 24.669-94.15h27.89c8.5726 29.354 17.352 58.974 25.762 94.15h0.29562c4.6706-35.931 9.282-65.92 14.056-96.117l29.443 3.8428-26.575 132.61h-37.424c-7.3163-24.964-14.825-49.943-21.978-80.7h-0.3104c-6.533 30.758-13.229 55.737-19.909 80.7h-37.578l-27.892-132.62 34.14-3.843z" fill="#FFF"/>
  <path d="m317.68 64.949h33.596v134.5h-33.596v-134.5z" fill="#FFF"/>
  <path d="m366.37 64.949h33.654v109.35h40.764v25.156h-74.419v-134.5z" fill="#FFF"/>
  <path d="m484.54 174.29h8.5726c19.274 0 28.319-18.653 28.319-45.76 0-24.373-12.534-38.428-27.181-38.428h-9.7107v84.188zm9.7107-109.35c44.578 0 61.767 30.921 61.767 63.408 0 49.204-29.649 71.094-63.053 71.094h-50.599v-134.49h43.307z" fill="#FFF"/>
  <path d="m197.7 49.622h-7.8631c-10.36-15.047-20.78-30.034-31-46.943h-0.19214v46.943h-8.7204v-65.477h7.9667c10.391 14.987 20.722 29.857 30.905 46.706h0.17736v-46.706h8.7204v65.477z" fill="#FFF"/>
  <path d="m234.89 23.724c-2.2909-8.6021-4.5967-16.554-7.1832-26.649h-0.11824c-2.2466 10.095-4.8628 18.047-7.3901 26.649h14.692zm-1.4632-39.581 20.412 65.477h-12.252l-5.0548-17.84h-19.214l-5.5722 17.84h-9.4594l22.082-65.477h9.0603z" fill="#FFF"/>
  <path d="m265.27 49.622v-56.712h-16.746v-8.7648h44.371v8.7648h-16.717v56.712h-10.908z" fill="#FFF"/>
  <path d="m362.03 20.971v25.91c-5.587 2.2171-11.41 3.8133-17.397 3.8133-17.958 0-29.265-14.308-29.265-32.753 0-17.101 11.292-32.029 29.591-32.029 5.6757 0 11.44 2.1284 14.795 4.8184l-3.3108 7.4049c-2.7935-1.7737-7.1832-3.2961-11.174-3.2961-11.159 0-18.801 9.0456-18.801 23.293 0 14.854 8.7796 23.619 17.781 23.619 2.7935 0 5.0992-0.33995 7.3163-1.5077v-19.274h10.465z" fill="#FFF"/>
  <path d="m400.88-4.5982h-17.411v17.175h17.026v8.3952h-17.026v20.249h20.619v8.41h-31.098v-62.684h27.89v8.4544z" fill="#FFF"/>
  <path d="m449.18 17.397c0-11.558-4.375-22.555-14.78-22.555-10.361 0-14.721 10.997-14.721 22.555 0 12.002 3.8281 24.358 14.721 24.358 10.923 0 14.78-12.357 14.78-24.358m-40.661 0c0-17.544 10.952-31.497 25.881-31.497 14.898 0 25.881 13.953 25.881 31.497 0 18.711-9.9324 33.301-25.881 33.301-15.948 0-25.881-14.588-25.881-33.301" fill="#FFF"/>
  <path d="m84.304 7.1316h-106.73v171.66h106.73v-171.66zm-128.29-21.623h149.99v214.93h-149.99v-214.93z" fill="#fdda2a"/>
 </g>
</svg>
