<?xml version="1.0" encoding="UTF-8"?>
<!-- Created with Inkscape (http://www.inkscape.org/) -->
<svg width="600" height="184.58" version="1.1" xmlns="http://www.w3.org/2000/svg" xmlns:cc="http://creativecommons.org/ns#" xmlns:dc="http://purl.org/dc/elements/1.1/" xmlns:rdf="http://www.w3.org/1999/02/22-rdf-syntax-ns#">
 <metadata>
  <rdf:RDF>
   <cc:Work rdf:about="">
    <dc:format>image/svg+xml</dc:format>
    <dc:type rdf:resource="http://purl.org/dc/dcmitype/StillImage"/>
    <dc:title/>
   </cc:Work>
  </rdf:RDF>
 </metadata>
 <path d="m571.67 148.7h-1.8163v18.819h2.447c4.5029 0 7.1896-2.8884 7.1896-10.103 0-5.9535-2.5353-8.7158-7.8202-8.7158"/>
 <path d="m185.44 67.288c4.3137 25.769 8.6527 51.361 12.853 82.024h0.2901c6.9625-30.02 14.013-55.297 21.052-80.346h23.801c7.3157 25.05 14.808 50.327 21.985 80.346h0.25227c3.9858-30.663 7.9211-56.255 11.995-82.024l25.126 3.2794-22.679 113.17h-31.937c-6.2436-21.304-12.651-42.62-18.756-68.868h-0.26489c-5.5751 26.248-11.289 47.565-16.99 68.868h-32.056l-23.804-113.17 29.14-3.279z"/>
 <path d="m308.64 68.958h28.67v114.78h-28.67v-114.78z"/>
 <path d="m350.19 68.958h28.72v93.313h34.787v21.468h-63.508v-114.78z"/>
 <path d="m451.03 162.27h7.3157c16.448 0 24.167-15.918 24.167-39.051 0-20.799-10.696-32.794-23.196-32.794h-8.2869v71.845zm8.2869-93.313c38.042 0 52.711 26.387 52.711 54.111 0 41.99-25.302 60.67-53.808 60.67h-43.179v-114.78h36.957z"/>
 <path d="m206.25 55.878h-6.7102c-8.84-12.84-17.73-25.63-26.45-40.06h-0.16397v40.06h-7.4418v-55.877h6.7986c8.86 12.79 17.68 25.479 26.37 39.858h0.15136v-39.858h7.4418v55.877z"/>
 <path d="m237.99 33.778c-1.955-7.3409-3.9227-14.127-6.13-22.742h-0.10091c-1.9172 8.6148-4.1498 15.401-6.3066 22.742h12.538zm-1.25-33.778 17.42 55.877h-10.456l-4.3137-15.224h-16.397l-4.7552 15.224h-8.0725l18.85-55.877h7.7319z"/>
 <path d="m263.91 55.878v-48.397h-14.291v-7.4797h37.865v7.4797h-14.266v48.397h-9.3086z"/>
 <path d="m346.49 31.428v22.111c-4.7678 1.892-9.7374 3.2542-14.846 3.2542-15.325 0-24.974-12.21-24.974-27.951 0-14.594 9.6365-27.333 25.252-27.333 4.8435 0 9.7627 1.8163 12.626 4.1119l-2.8254 6.3192c-2.3839-1.5136-6.13-2.8128-9.5356-2.8128-9.523 0-16.044 7.7193-16.044 19.878 0 12.676 7.4923 20.156 15.174 20.156 2.3839 0 4.3516-0.29011 6.2436-1.2866v-16.447h8.9302z"/>
 <path d="m379.64 9.608h-14.858v14.657h14.53v7.1643h-14.53v17.28h17.596v7.1769h-26.538v-53.493h23.801v7.2148z"/>
 <path d="m420.86 28.378c0-9.8636-3.7335-19.248-12.613-19.248-8.8419 0-12.563 9.3843-12.563 19.248 0 10.242 3.2668 20.787 12.563 20.787 9.3212 0 12.613-10.545 12.613-20.787m-34.699 0c0-14.972 9.3464-26.879 22.086-26.879 12.714 0 22.086 11.907 22.086 26.879 0 15.968-8.4761 28.418-22.086 28.418s-22.086-12.449-22.086-28.418"/>
 <path d="m109.48 19.618h-91.08v146.49h91.08v-146.49zm-109.48-18.455h128v183.42h-128v-183.42z" fill="#fdda2a"/>
 <path d="m572.77 173.5h-9.8383v-30.789h7.7698c11.705 0 15.842 6.6472 15.842 15.401 0 8.6653-4.566 15.388-13.774 15.388m-16.738 0h-6.9247v-13.13h-8.9428v13.13h-6.9121v-30.789h6.9121v11.667h8.9428v-11.667h6.9247v30.789zm-34.813-41.069c-2.1569 25.819-13.597 42.103-28.128 51.336h108.98v-51.336h-78.782z"/>
</svg>
