<svg enable-background="new 0 0 199 59" height="58.992001" viewBox="0 0 236.83188 58.992001" width="236.83188" xmlns="http://www.w3.org/2000/svg"><path d="m0 0v58.992h40.627v-58.992zm34.751 53.053h-28.896v-47.11h28.896z" fill="#fbd42c"/><path d="m64.838 20.568h-.057c-3.241-5.279-6.513-9.942-9.813-14.636h-2.518v20.533h2.779v-14.726h.028c3.273 5.31 6.543 10.004 9.844 14.726h2.518v-20.533h-2.781zm20.061 5.897-6.456-20.533h-2.893l-7.006 20.533h3.01l1.767-5.603h6.106l1.593 5.603zm-10.682-8.127c.811-2.699 1.622-5.188 2.345-8.36h.059c.811 3.171 1.534 5.661 2.287 8.36zm13.952 8.127h3.474v-17.775h5.327v-2.758h-14.126v2.758h5.326v17.775zm13.373-20.533h-3.444v20.533h3.444zm10.713 20.883c5.298 0 8.598-4.78 8.598-10.911 0-5.749-3.649-10.326-8.598-10.326-4.951 0-8.6 4.577-8.6 10.326 0 6.132 3.3 10.911 8.6 10.911zm0-18.302c3.445 0 4.891 3.607 4.891 7.392 0 3.93-1.272 7.978-4.891 7.978s-4.892-4.047-4.892-7.978c0-3.785 1.447-7.392 4.892-7.392zm13.487 3.226h.032c3.27 5.31 6.54 10.004 9.841 14.726h2.518v-20.533h-2.779v14.636h-.058c-3.241-5.279-6.513-9.942-9.813-14.636h-2.518v20.533h2.777zm18.091 9.123h6.11l1.592 5.603h3.878l-6.454-20.533h-2.895l-7.007 20.533h3.014zm3.246-10.884h.057c.809 3.171 1.533 5.661 2.288 8.36h-4.693c.813-2.699 1.621-5.189 2.348-8.36zm19.652 13.728h-6.859v-17.774h-3.446v20.533h10.306v-2.759zm-104.725 26.243c-.725.382-1.505.5-2.431.5-2.981 0-5.876-2.876-5.876-7.744 0-4.663 2.518-7.627 6.224-7.627 1.332 0 2.779.498 3.705 1.084l1.128-2.433c-1.157-.882-3.039-1.585-4.921-1.585-6.078 0-9.842 4.899-9.842 10.501 0 6.043 3.764 10.737 9.725 10.737 1.969 0 3.909-.525 5.763-1.262v-8.479h-3.475zm10.101-6.306h5.675v-2.756h-5.675v-5.632h5.791v-2.757h-9.263v20.533h10.305v-2.76h-6.833zm16.502-11.498c-4.951 0-8.597 4.576-8.597 10.326 0 6.13 3.299 10.912 8.597 10.912 5.297 0 8.596-4.782 8.596-10.912 0-5.75-3.647-10.326-8.596-10.326zm0 18.304c-3.62 0-4.893-4.048-4.893-7.979 0-3.785 1.447-7.393 4.893-7.393 3.444 0 4.891 3.607 4.891 7.393 0 3.931-1.272 7.979-4.891 7.979zm21.797-.5c-.723.382-1.506.5-2.432.5-2.982 0-5.877-2.876-5.877-7.744 0-4.663 2.519-7.627 6.226-7.627 1.331 0 2.779.498 3.702 1.084l1.13-2.433c-1.157-.882-3.04-1.585-4.923-1.585-6.076 0-9.839 4.899-9.839 10.501 0 6.043 3.763 10.737 9.727 10.737 1.966 0 3.905-.525 5.76-1.262v-8.479h-3.474zm18.353-11.525c0-3.992-2.404-5.926-6.281-5.926h-5.414v20.533h3.473v-7.744h1.563l3.271 7.744h3.965l-4.079-8.508c2.226-1.202 3.502-3.636 3.502-6.099zm-6.774 4.222c-.349.03-1.161.06-1.449.089v-7.479h1.537c2.052 0 3.209 1.2 3.209 3.313 0 2.756-1.647 3.99-3.297 4.077zm14.416-10.148-7.007 20.533h3.009l1.767-5.604h6.108l1.596 5.604h3.876l-6.456-20.533zm-1.331 12.409c.81-2.701 1.62-5.194 2.344-8.361h.059c.809 3.167 1.533 5.66 2.287 8.361zm36.097-4.519h-7.209v-7.89h-3.445v20.533h3.445v-9.887h7.209v9.887h3.472v-20.477h-3.472zm6.8 12.641h3.444v-20.531h-3.444zm15.603-2.58c-3.358 0-6.196-2.876-6.196-7.744 0-4.663 2.579-7.627 6.109-7.627 1.332 0 2.722.615 3.562 1.143l1.099-2.491c-1.187-.822-2.864-1.585-4.66-1.585-6.05 0-9.785 4.899-9.785 10.501 0 6.043 3.764 10.737 9.729 10.737 1.678 0 3.53-.675 4.572-1.407l-.954-2.553c-.898.586-2.144 1.026-3.476 1.026zm-41.308-17.951h-5.41v20.533h3.474v-7.744h1.561c4.142 0 6.658-3.405 6.658-6.863-.001-3.992-2.401-5.926-6.283-5.926zm-.491 10.148c-.347.027-1.185.055-1.446.082v-7.473h1.561c2.028 0 3.186 1.2 3.186 3.313-.001 2.757-1.651 3.991-3.301 4.078z"/><g transform="matrix(1.2519498 0 0 1.2519498 -2.424037 -371.59971)"><path d="m166.00074 322.49399c8.36864.011 16.73727-.0178 25.1059.0151v16.52187c-.50349.0494-1.00835.0274-1.51047.0302h-23.59543c0-5.52192-.001-11.04385 0-16.56714m13.68478 2.49281v11.6049c1.29096-.008 2.58193.0165 3.87289-.0123 1.15926-.0329 2.34733-.37865 3.22535-1.16338 1.14966-.99875 1.6847-2.53666 1.77937-4.02243.0905-1.45148-.0933-2.99762-.91507-4.23371-.63382-.97405-1.67921-1.62159-2.79183-1.90695-.93372-.2452-1.89013-.27619-2.84993-.26609m-13.53612.0123v11.59261h2.60662v-4.97316c1.13045-.001 2.2609.003 3.39135-.003.01 1.65863.001 3.31727.004 4.9759h2.57233v-11.59261h-2.57233c-.001 1.46382.003 2.92765-.001 4.39147-1.13183-.003-2.26365 0-3.3941-.001v-4.3901z"/><path d="m182.29214 327.19277c.9329-.005 1.98241-.0123 2.73558.62696.80806.70653.93839 1.86168.9329 2.8714-.0439 1.06872-.17423 2.26776-.97817 3.05798-.71339.68733-1.77525.6201-2.69031.61324-.001-2.38986 0-4.77972 0-7.16958z"/></g></svg>