<svg height="233.79999" viewBox="0 0 158.74582 61.860038" width="599.98419" xmlns="http://www.w3.org/2000/svg"><path d="m158.74641 33.1-24.734 28.76h-13.641l23.99-27.93h-27.412v-9.43h41.797zm-83.935999-19.77v-4.69c0-2.23-1.275-3.36-3.883-3.36h-11.116v11.53h11.211c2.56 0 3.788-1.13 3.788-3.48zm-3.009 32.84v-12.61l-21.064 12.61zm65.101999-46.17-11.564 21.89h-8.426l-9.3927-16.61h-9.286899v16.61h-6.7264v-16.61h-10.42c.402 1.2.591 2.54.591 3.99v2.53c0 6.71-3.234 10.09-9.677 10.09h-19.093v-7.04l-1.085.18-1.121-.09v6.95c-5.157 0-8.143-.1-9.087-.31-2.796-.61-4.897-2.42-6.419-5.47l-3.918-7.67c-.731-1.4-1.652-2.1-2.737-2.1h-.319v15.55h-6.856v-21.89c5.086 0 8.154.12 9.051.35 2.915.65 5.157 2.46 6.632 5.41l3.917 7.73c.685 1.36 1.652 2.09 2.868 2.09v-15.58h6.868v7.04l1.121-.14 1.085.14v-7.04h59.154999l9.004 16.23 8.449-16.23zm-93.941999 53.68v-10.37c-.98 1.87-2.526 3.2-4.614 3.97-1.287.39-3.34.68-6.278.89l-17.311 1.21c-2.726.15-4.107 1.19-4.107 3.05l1.168 1.25zm45.396.81h-5.983l.000132 7.37h-10.656129v-7.37h-26.964v7.37h-44.75500344v-11.77c0-3.37 1.38000004-5.72 4.06800004-7.01 1.557-.71 4.401-1.27 8.5550004-1.63l17.299-1.48c2.23-.19 3.387-1.37 3.387-3.46 0-1.64-.248-2.74-.791-3.25-.519-.51-1.64-.78-3.292-.78h-13.842c-2.159 0-3.564.46-4.189 1.4-.366.68-.543 2.17-.543 4.55h-10.65200044v-5.4c0-3.62 1.54000004-6.01 4.64600004-7.28 1.994-.83 5.086-1.25 9.2040004-1.25h17.594c4.39 0 7.517.79 9.464 2.35 2.054 1.76 3.127 4.78 3.127 9.04 0 2.22-.059 3.7-.2 4.5l25.3-15.89h13.24v21.67h5.983z" fill="#fff"/><path d="m55.882411 10.98c0 1.12-.401 2.06-1.204 2.88-.802.75-1.77 1.17-2.903 1.17-1.121 0-2.1-.42-2.902-1.17-.85-.82-1.192-1.76-1.192-2.88 0-1.16.342-2.1 1.192-2.9.802-.79 1.781-1.23 2.902-1.23 1.133 0 2.101.44 2.903 1.23.803.8 1.204 1.74 1.204 2.9" fill="#ed1e25"/><path d="m116.94954 33.930036-12.084 14.030004 11.907 13.9h-10.491l-6.631598-7.64-6.6794 7.64h-10.595999l11.953999-13.9-11.895-14.030004h10.455l6.7614 7.91 6.690798-7.91z" fill="#b8babc"/></svg>