<?xml version="1.0" encoding="UTF-8"?>
<svg id="svg2" width="749.59pt" height="323.46pt" version="1.1" viewBox="0 0 749.59 323.46" xmlns="http://www.w3.org/2000/svg" xmlns:cc="http://creativecommons.org/ns#" xmlns:dc="http://purl.org/dc/elements/1.1/" xmlns:rdf="http://www.w3.org/1999/02/22-rdf-syntax-ns#">
 <metadata id="metadata18">
  <rdf:RDF>
   <cc:Work rdf:about="">
    <dc:format>image/svg+xml</dc:format>
    <dc:type rdf:resource="http://purl.org/dc/dcmitype/StillImage"/>
    <dc:title/>
   </cc:Work>
  </rdf:RDF>
 </metadata>
 <path id="path5" d="m718.32 102.88 0.03 29.86-24.84 0.11-0.09 133.08-36.19-0.01-0.31-133.15-35.67 0.04-0.11 133.15-42-0.03-0.11-29.08c-15.06 7.16-31.38 11.85-48.11 12.36-17.86 0.79-36.55-2.32-51.56-12.55-14.37-9.68-24.28-24.99-29.43-41.35-1.64-6.68-3.12-13.41-4.31-20.19 9.75 0.3 19.41 2.89 29.19 1.61 7.56-0.89 15.9-2.53 21.09-8.61 4.15-4.8 4.44-11.61 3.39-17.57-1.39-7.29-6.38-13.56-12.73-17.22-1.42-0.74-3.08-0.46-4.6-0.57-19.73 0.12-39.47-0.07-59.2 0.1l-0.11 46.72c-25.9 0.03-51.81 0-77.72 0.01-5.62 0.14-11.46 0.41-16.64 2.81-3.22 1.53-4.26 5.42-4.26 8.71-0.11 3.28 1.06 7.27 4.52 8.39 4.94 1.64 10.23 1.73 15.38 1.95 21.02 0.12 42.03-0.05 63.05 0.08 10.23 0.56 20.86 1.63 30.04 6.57 6.64 3.53 11.48 10.1 13.08 17.43 2.68 11.64 0.76 25.11-7.86 33.91-9.35 9.61-22.78 13.66-35.61 16.09-17.36 3.29-35.12 3.56-52.73 3.35-19.89-0.44-40.07-2.21-58.98-8.77-7.13-2.69-14.29-5.84-20.01-10.99-2.89-2.52-5.77-5.05-8.43-7.81l28.53-18.15c13.42 14.67 33.74 20.18 52.88 22.15 16.48 1.22 33.77 1.69 49.27-4.94 4.36-1.96 8.79-4.43 11.48-8.53 2.62-3.97 2.51-10-1.29-13.2-3.71-3.12-8.62-4.58-13.41-4.64-21.03-0.07-42.05 0.11-63.07-0.08-13.29-0.5-27.47-3.04-37.9-11.89-11.52-9.54-14.35-29.28-3.5-40.36 9.76-9.84 24.1-13.14 37.47-14.17 19.39-0.32 38.78 0.05 58.17-0.18l0.03-24.46c-48.59-0.11-97.19-0.09-145.78-0.01l-0.08 133.05-32.95 0.03-0.1-133.08c-15.53-0.08-31.07-0.1-46.6 0.01l-0.1 46.72c-29.22 0.02-58.43 0.02-87.65-0.01-2.64 0.03-5.47 0.19-7.71 1.79-5.48 3.42-5.99 12.4-0.95 16.44 3.81 3.09 8.91 4.03 13.69 4.17 24.64-0.03 49.28 0 73.93-0.03 9.99-0.01 19.86 4.27 26.7 11.56 12.08 12.78 10.99 35.42-2.08 47.15-10.15 9.39-23.85 13.82-37.29 15.84-9.83 1.72-19.84 1.12-29.76 1.56 9.08 6.3 19.41 11.33 26.42 20.15 5.81 7.65 10.59 16.13 13.99 25.13l-40.78-0.04c-5.05-10.54-10.34-21.24-18.59-29.71-7.85-8.57-18.51-15.66-30.5-15.7-14.05-0.03-28.81-1.34-41.23-8.49-4.76-2.58-8.38-6.73-11.1-11.35l32.49-16.81c8.06 4.61 14.93 11.85 24.36 13.59 15.2 3.37 30.91 3.55 46.4 2.79 9.37-0.67 19.36-1.59 27.18-7.33 6.35-4.48 9.22-13.43 6.39-20.68-3.21-5.71-10.32-7.82-16.49-8.08-21.01-0.11-42.01 0.03-63.02-0.06-13.85-0.29-28.55-3.73-38.92-13.44-10.72-9.79-11.11-29.1 0.3-38.51 10.93-9.24 25.99-9.86 39.61-10.54 18.81-0.13 37.62 0.01 56.43-0.06l0.11-26.06c-40.46-0.13-80.92 0-121.38-0.07-0.08-9.98-0.13-19.96 0.03-29.94m527.97 29.94c3.66 4.44 7.57 8.83 9.79 14.23 6.4 13.8 3.94 32-7.93 42.12-10.81 9.51-26.02 10.69-39.78 10.96 7.67 15.61 25.74 24.46 42.8 22.98 15.71-0.64 30.34-8.64 41.05-19.87 2.03-2.41 5.49-4.45 5.22-8.02l-0.04-62.47z"/>
 <path id="path7" d="m121.3 34.426 38.45-0.03-0.02 35.54h-38.41z"/>
 <path id="path6" d="m457.88 62.623v-22.033c0-10.476-5.9898-15.785-18.242-15.785h-52.222v54.167h52.668c12.027 0 17.796-5.3086 17.796-16.349zm291.71-62.623-54.326 102.84h-39.584l-44.126-78.032h-43.629v78.032h-31.6v-78.032h-48.952c1.8886 5.6375 2.7764 11.933 2.7764 18.745v11.886c0 31.523-15.193 47.402-45.461 47.402h-89.697v-33.073l-5.0972 0.84562-5.2663-0.42281v32.65c-24.227 0-38.255-0.46979-42.69-1.4564-13.135-2.8657-23.006-11.369-30.156-25.697l-18.406-36.033c-3.4342-6.577-7.7609-9.8656-12.858-9.8656h-1.4986v73.052h-32.209v-102.84c23.893 0 38.307 0.56374 42.521 1.6443 13.694 3.0536 24.227 11.557 31.156 25.416l18.402 36.315c3.2181 6.3891 7.7609 9.8186 13.474 9.8186v-73.193h32.265v33.073l5.2663-0.6577 5.0972 0.6577v-33.073h277.9l42.3 76.247 39.692-76.247z"/>
 <path id="path8" d="m368.96 51.583c0 5.2616-1.8839 9.6777-5.6563 13.53-3.7677 3.5234-8.3153 5.4965-13.638 5.4965-5.2663 0-9.8656-1.9731-13.633-5.4965-3.9932-3.8523-5.5999-8.2683-5.5999-13.53 0-5.4496 1.6067-9.8656 5.5999-13.624 3.7677-3.7113 8.367-5.7784 13.633-5.7784 5.3227 0 9.8703 2.0671 13.638 5.7784 3.7724 3.7583 5.6563 8.1743 5.6563 13.624" fill="#ed1e25"/>
</svg>
