<svg width="558.79pt" height="253.7pt" version="1.1" viewBox="0 0 558.79 253.7" xmlns="http://www.w3.org/2000/svg">
 <rect x="6.7882" y="60.236" width="544.76" height="162.92" fill="#fff"/>
 <g transform="translate(-49.12 -15.17)">
  <path d="m49.2 72.38c186.22 0.02 372.43 0.05 558.64-0.02 0.03 57.34-0.04 114.68 0.04 172.02-186.24 0.07-372.48 0.1-558.72-0.01 0.1-57.33 0.02-114.66 0.04-171.99m45.42 8.28c-0.09 0.15 0.08-0.16039 0-3.9e-4 -18.33 3.92-33.75 21.4-34.38 40.31-0.73 12.1 4.63 24.14 13.54 32.25 10.05 10.56 25.14 13.88 39.19 14.49 10.42 0.33 21.54 5.05 26.64 14.6 2.66 3.7 2 8.45 1.69 12.72-1.46 6.61-7.18 11.18-12.84 14.28-10.72 5.92-24.46 5.33-34.85-1.04-6.06-3.14-9.69-9.49-11.2-15.96-0.68-2.44-0.93-5.14-2.49-7.22-3.81-3.06-9.28-3.39-13.79-1.88-3.41 0.9-5.18 4.51-5.7 7.72-0.68 8.6 2.43 17.25 7.62 24.03 7.4 9.99 19 15.98 30.84 19 13.23 3.79 27.58 1.37 39.84-4.45 6.68-3.18 11.92-8.56 16.79-14.01 10.68-13.63 11.01-34.09 1.1-48.23-6.85-9.43-17.02-16.61-28.45-19.15-13.13-2.4144-19.455-2.2298-27.41-4.1-8.39-3.17-16.74-9.56-18.2-18.95-1.44-8.92 4.93-17.13 12.5-21.04 7.26-4.09 15.92-4.11 23.97-3.22 8.69 1.48 17.74 6.15 21.34 14.62 2.21 4.11 0.34 9.76 4.07 13.12 3.18 3.28 8.23 3.4 12.43 2.54 2.9-0.6 5.69-2.54 6.47-5.51 1.54-9.41-1.51-19.18-7.25-26.67-5.94-8.41-14.58-15.07-24.58-17.79-11.89-4.11-24.83-3.4304-36.89-0.46039m209.91 3.8604c-2.99 1.71-3.37 5.37-3.27 8.47 0.01 42.01 0.02 84.01 0 126.01 0.04 3.33-0.2 6.68 0.32 9.99 2.92 7.18 13.35 8.36 18.74 3.41 2.62-2.4 2.45-6.16 2.49-9.41-0.1-43.67 0.08-87.36-0.09-131.03 0.34-4.67-4.02-9.01-8.67-8.66-3.16 0.06-6.69-0.51-9.52 1.22m192.02 1.91c-2.06 1.93-2.24 4.92-2.22 7.56 0.03 41.67 0.02 83.34 0.01 125.01 0.1 4.28-0.66 8.98 1.86 12.77 1.5 2.75 4.99 3 7.79 3 26 0.01 52.01-0.01 78.01 0.01 2.42-0.16 5.26 0.24 7.14-1.66 4.25-3.55 4.17-10.01 2.37-14.8-1.63-4.09-6.59-5.01-10.5-4.92-21.53 0.07-43.07-0.06-64.6 0.07 0.04-17.3-0.01-34.6 0.03-51.9 7.19 0.1 14.38 0.07 21.58 0.06 3.47 0.05 7.61-0.84 9.31-4.24 1.53-3.54 1.57-7.61 0.79-11.34-1.02-4.43-5.96-6.38-10.06-6.51-7.22-0.05-14.43-0.01-21.64 0.04 0.02-11.68 0.01-23.35 0.01-35.02 22.87 0.13 45.74 0.03 68.61 0.06 3.84 0.13 7.86-1.95 9.18-5.71 0.64-3.22 0.7-6.6 0.04-9.82-1.64-3.9-6.14-5.92-10.21-5.7-26.37 0.02-52.74 0-79.1 0.01-3.06-0.1-6.11 1.02-8.4 3.03m-311.95-0.72c-3.11 1.9-4.41 5.76-4.28 9.25 0 42.01 0.03 84.02-0.01 126.03 0.08 3.41-0.43 7.18 1.68 10.12 2.9 4.46 9.23 5 13.93 3.61 4.32-0.9 6.91-5.48 6.69-9.67-0.02-39.51 0.07-79.03-0.04-118.54 10.15-0.08 20.31 0 30.47-0.06 7.81-0.56 14.78 4.2 20.38 9.15 6.53 6.43 12.71 14.79 12.32 24.4-0.12 5.59 0.72 11.57-2.2 16.65-4.6 10.7-14.08 19.17-25.37 22.16-4.21 1.17-8.8 0.75-12.81 2.59-3.27 1.48-4.45 5.23-4.74 8.53-0.23 3.8 0.54 8.38 4.11 10.49 4.56 2.99 10.36 2.15 15.39 1.03 8.96-2.14 17.78-5.62 25.19-11.19 9.94-8.28 17.85-19.48 20.74-32.23 2.33-7.45 1.79-15.36 1.58-23.05-1.38-11.84-6.35-23.36-14.61-32.02-9.45-9.99-22.37-16.67-36-18.45-14.67-0.25-29.35 0-44.01-0.12-2.83 0.1-5.9-0.27-8.41 1.32m177.95 17.84c-12.67 12.66-20.81 29.67-23.07 47.41-0.31 9.52-0.99 19.29 1.85 28.52 3.4 12.42 9.11 24.64 18.52 33.66 9.41 10.02 21.51 17.85 35.04 20.83 11.63 3.13 23.8 1.72 35.41-0.68 19.847-9.2493 37.611-23.276 45.55-40.25 1.89-4.21 3.59-8.9 2.31-13.54-1.26-3.51-5.12-4.94-8.41-5.84-3.79-0.65-8.76-0.83-10.96 3-2.57 4.9-4.08 10.37-7.39 14.89-7.12 9.99-17.39 18.17-29.41 21.21-10.65 1.78-22.14 1.11-31.76-4.18-15.3-7.44-25.55-23.05-28.39-39.59-1.35-11.57-0.47-23.76 5.02-34.24 7.04-14.06 20.41-25.24 36.06-28.05 5.33-0.53 10.74-0.5 16.08-0.01 7.59 1.36 15.02 4.41 21.03 9.3 4.12 3.85 8.33 7.74 11.37 12.53 3.27 4.62 4.71 10.37 8.51 14.61 4.47 4.39 11.58 2.1 15.69-1.61 2.24-2.91 3.25-7.07 1.76-10.55-4.88-13.71-14.29-25.7-26.06-34.18-11.44-8.68-26.02-12.93-40.3-12.53-17.91-0.61-35.55 7.06-48.45 19.29" fill="#f56101"/>
 </g>
 <g transform="translate(-49.12 -15.17)">
  <path d="m362.55 103.55c12.9-12.23 30.54-19.9 48.45-19.29 14.28-0.4 28.86 3.85 40.3 12.53 11.77 8.48 21.18 20.47 26.06 34.18 1.49 3.48 0.48 7.64-1.76 10.55-4.11 3.71-11.22 6-15.69 1.61-3.8-4.24-5.24-9.99-8.51-14.61-3.04-4.79-7.25-8.68-11.37-12.53-6.01-4.89-13.44-7.94-21.03-9.3-5.34-0.49-10.75-0.52-16.08 0.01-15.65 2.81-29.02 13.99-36.06 28.05-5.49 10.48-6.37 22.67-5.02 34.24 2.84 16.54 13.09 32.15 28.39 39.59 9.62 5.29 21.11 5.96 31.76 4.18 12.02-3.04 22.29-11.22 29.41-21.21 3.31-4.52 4.82-9.99 7.39-14.89 2.2-3.83 7.17-3.65 10.96-3 3.29 0.9 7.15 2.33 8.41 5.84 1.28 4.64-0.42 9.33-2.31 13.54-8.43 18.79-25.23 35.34-45.55 40.25-0.08 0.17 0.08-0.17 0 0-11.61 2.4-23.78 3.81-35.41 0.67999-13.53-2.98-25.63-10.81-35.04-20.83-9.41-9.02-15.12-21.24-18.52-33.66-2.84-9.23-2.16-19-1.85-28.52 2.26-17.74 10.4-34.75 23.07-47.41z" fill="#fffffe"/>
 </g>
 <g transform="translate(-49.12 -15.17)">
  <path d="m49.12 256.67 558.78-0.01 0.01 12.21-558.79-0.01z" fill="#ea3137"/>
 </g>
 <g transform="matrix(2.1681 0 0 2.1681 .001278 -3.1888e-6)">
  <path d="m53.443 13.33v-4.69c0-2.23-1.275-3.36-3.883-3.36h-11.116v11.53h11.211c2.56 0 3.788-1.13 3.788-3.48zm62.093-13.33-11.564 21.89h-8.426l-9.3927-16.61h-9.2869v16.61h-6.7264v-16.61h-10.42c0.402 1.2 0.591 2.54 0.591 3.99v2.53c0 6.71-3.234 10.09-9.677 10.09h-19.093v-7.04l-1.085 0.18-1.121-0.09v6.95c-5.157 0-8.143-0.1-9.087-0.31-2.796-0.61-4.897-2.42-6.419-5.47l-3.918-7.67c-0.731-1.4-1.652-2.1-2.737-2.1h-0.319v15.55h-6.856v-21.89c5.086 0 8.154 0.12 9.051 0.35 2.915 0.65 5.157 2.46 6.632 5.41l3.917 7.73c0.685 1.36 1.652 2.09 2.868 2.09v-15.58h6.868v7.04l1.121-0.14 1.085 0.14v-7.04h59.155l9.004 16.23 8.449-16.23z" fill="#7e807f"/>
  <path d="m34.515 10.98c0 1.12-0.401 2.06-1.204 2.88-0.802 0.75-1.77 1.17-2.903 1.17-1.121 0-2.1-0.42-2.902-1.17-0.85-0.82-1.192-1.76-1.192-2.88 0-1.16 0.342-2.1 1.192-2.9 0.802-0.79 1.781-1.23 2.902-1.23 1.133 0 2.101 0.44 2.903 1.23 0.803 0.8 1.204 1.74 1.204 2.9" fill="#ed1e25"/>
 </g>
</svg>
