<?xml version="1.0" encoding="UTF-8" standalone="no"?>
<svg
   xmlns:dc="http://purl.org/dc/elements/1.1/"
   xmlns:cc="http://creativecommons.org/ns#"
   xmlns:rdf="http://www.w3.org/1999/02/22-rdf-syntax-ns#"
   xmlns:svg="http://www.w3.org/2000/svg"
   xmlns="http://www.w3.org/2000/svg"
   xmlns:sodipodi="http://sodipodi.sourceforge.net/DTD/sodipodi-0.dtd"
   xmlns:inkscape="http://www.inkscape.org/namespaces/inkscape"
   height="233.79999"
   width="599.98419"
   version="1.1"
   viewBox="0 0 158.74582 61.860038"
   id="svg2"
   inkscape:version="0.91 r13725"
   sodipodi:docname="NDTV 24x7.svg">
  <metadata
     id="metadata14">
    <rdf:RDF>
      <cc:Work
         rdf:about="">
        <dc:format>image/svg+xml</dc:format>
        <dc:type
           rdf:resource="http://purl.org/dc/dcmitype/StillImage" />
        <dc:title></dc:title>
      </cc:Work>
    </rdf:RDF>
  </metadata>
  <defs
     id="defs12" />
  <sodipodi:namedview
     pagecolor="#ffffff"
     bordercolor="#666666"
     borderopacity="1"
     objecttolerance="10"
     gridtolerance="10"
     guidetolerance="10"
     inkscape:pageopacity="0"
     inkscape:pageshadow="2"
     inkscape:window-width="1920"
     inkscape:window-height="1017"
     id="namedview10"
     showgrid="false"
     fit-margin-top="0"
     fit-margin-left="0"
     fit-margin-right="0"
     fit-margin-bottom="0"
     inkscape:zoom="0.70710678"
     inkscape:cx="638.3428"
     inkscape:cy="-11.596885"
     inkscape:window-x="-8"
     inkscape:window-y="-8"
     inkscape:window-maximized="1"
     inkscape:current-layer="svg2" />
  <path
     inkscape:connector-curvature="0"
     id="path6"
     d="m 158.74641,33.1 -24.734,28.76 -13.641,0 23.99,-27.93 -27.412,0 0,-9.43 41.797,0 z m -41.797,0.83 z m -42.138999,-20.6 0,-4.69 c 0,-2.23 -1.275,-3.36 -3.883,-3.36 l -11.116,0 0,11.53 11.211,0 c 2.56,0 3.788,-1.13 3.788,-3.48 z m -3.009,32.84 0,-12.61 -21.064,12.61 z M 136.90341,0 l -11.564,21.89 -8.426,0 -9.3927,-16.61 -9.286899,0 0,16.61 -6.7264,0 0,-16.61 -10.42,0 c 0.402,1.2 0.591,2.54 0.591,3.99 l 0,2.53 c 0,6.71 -3.234,10.09 -9.677,10.09 l -19.093,0 0,-7.04 -1.085,0.18 -1.121,-0.09 0,6.95 c -5.157,0 -8.143,-0.1 -9.087,-0.31 -2.796,-0.61 -4.897,-2.42 -6.419,-5.47 l -3.918,-7.67 c -0.731,-1.4 -1.652,-2.1 -2.737,-2.1 l -0.319,0 0,15.55 -6.856,0 0,-21.89 c 5.086,0 8.154,0.12 9.051,0.35 2.915,0.65 5.157,2.46 6.632,5.41 l 3.917,7.73 c 0.685,1.36 1.652,2.09 2.868,2.09 l 0,-15.58 6.868,0 0,7.04 1.121,-0.14 1.085,0.14 0,-7.04 59.154999,0 9.004,16.23 8.449,-16.23 z m -93.941999,53.68 0,-10.37 c -0.98,1.87 -2.526,3.2 -4.614,3.97 -1.287,0.39 -3.34,0.68 -6.278,0.89 l -17.311,1.21 c -2.726,0.15 -4.107,1.19 -4.107,3.05 l 1.168,1.25 z m 45.396,0.81 -5.983,0 1.32e-4,7.37 -10.656129,0 0,-7.37 -26.964,0 0,7.37 -44.75500343868,0 0,-11.77 c 0,-3.37 1.38000003868,-5.72 4.06800003868,-7.01 1.557,-0.71 4.401,-1.27 8.5550004,-1.63 l 17.299,-1.48 c 2.23,-0.19 3.387,-1.37 3.387,-3.46 0,-1.64 -0.248,-2.74 -0.791,-3.25 -0.519,-0.51 -1.64,-0.78 -3.292,-0.78 l -13.842,0 c -2.159,0 -3.564,0.46 -4.189,1.4 -0.366,0.68 -0.543,2.17 -0.543,4.55 l -10.65200043868,0 0,-5.4 c 0,-3.62 1.54000003868,-6.01 4.64600003868,-7.28 1.994,-0.83 5.086,-1.25 9.2040004,-1.25 l 17.594,0 c 4.39,0 7.517,0.79 9.464,2.35 2.054,1.76 3.127,4.78 3.127,9.04 0,2.22 -0.059,3.7 -0.2,4.5 l 25.3,-15.89 13.24,0 0,21.67 5.983,0 0,8.32"
     sodipodi:nodetypes="ccccccccccsssccsscccccccccccccsssccccccccsccccccccccccccccccccccccccccccccccscccscsscccscsscscccccc"
     style="fill:#ffffff;fill-opacity:1" />
  <path
     style="fill:#ed1e25"
     inkscape:connector-curvature="0"
     id="path8"
     d="m 55.882411,10.98 c 0,1.12 -0.401,2.06 -1.204,2.88 -0.802,0.75 -1.77,1.17 -2.903,1.17 -1.121,0 -2.1,-0.42 -2.902,-1.17 -0.85,-0.82 -1.192,-1.76 -1.192,-2.88 0,-1.16 0.342,-2.1 1.192,-2.9 0.802,-0.79 1.781,-1.23 2.902,-1.23 1.133,0 2.101,0.44 2.903,1.23 0.803,0.8 1.204,1.74 1.204,2.9" />
  <path
     inkscape:connector-curvature="0"
     id="path6-0"
     d="m 116.94954,33.930036 z m 0,0 -12.084,14.030004 11.907,13.9 -10.491,0 -6.631598,-7.64 -6.6794,7.64 -10.595999,0 11.953999,-13.9 -11.895,-14.030004 10.455,0 6.7614,7.91 6.690798,-7.91 z"
     sodipodi:nodetypes="ccccccccccccccc"
     style="fill:#b8babc;fill-opacity:1" />
</svg>
