<?xml version="1.0" encoding="UTF-8" standalone="no"?>
<!-- Created with Inkscape (http://www.inkscape.org/) -->

<svg
   xmlns:dc="http://purl.org/dc/elements/1.1/"
   xmlns:cc="http://creativecommons.org/ns#"
   xmlns:rdf="http://www.w3.org/1999/02/22-rdf-syntax-ns#"
   xmlns:svg="http://www.w3.org/2000/svg"
   xmlns="http://www.w3.org/2000/svg"
   xmlns:sodipodi="http://sodipodi.sourceforge.net/DTD/sodipodi-0.dtd"
   xmlns:inkscape="http://www.inkscape.org/namespaces/inkscape"
   width="38.235821mm"
   height="13.860639mm"
   viewBox="0 0 135.48125 49.112499"
   id="svg4507"
   version="1.1"
   inkscape:version="0.91 r13725"
   sodipodi:docname="News18 - Dark.svg">
  <defs
     id="defs4509" />
  <sodipodi:namedview
     id="base"
     pagecolor="#ffffff"
     bordercolor="#666666"
     borderopacity="1.0"
     inkscape:pageopacity="0.0"
     inkscape:pageshadow="2"
     inkscape:zoom="5.6"
     inkscape:cx="53.118616"
     inkscape:cy="9.4049724"
     inkscape:document-units="px"
     inkscape:current-layer="layer1"
     showgrid="false"
     fit-margin-top="0"
     fit-margin-left="0"
     fit-margin-right="0"
     fit-margin-bottom="0"
     inkscape:window-width="1920"
     inkscape:window-height="1017"
     inkscape:window-x="-8"
     inkscape:window-y="-8"
     inkscape:window-maximized="1" />
  <metadata
     id="metadata4512">
    <rdf:RDF>
      <cc:Work
         rdf:about="">
        <dc:format>image/svg+xml</dc:format>
        <dc:type
           rdf:resource="http://purl.org/dc/dcmitype/StillImage" />
        <dc:title />
      </cc:Work>
    </rdf:RDF>
  </metadata>
  <g
     inkscape:label="Layer 1"
     inkscape:groupmode="layer"
     id="layer1"
     transform="translate(-252.25938,-427.80595)">
    <path
       d="m 252.25938,476.91845 109.86125,0 0,-36.58 -109.86125,0 0,36.58 z"
       style="fill:#000000;fill-opacity:1;fill-rule:nonzero;stroke:none"
       id="path238"
       inkscape:connector-curvature="0" />
    <g
       id="g240"
       transform="matrix(1.25,0,0,-1.25,259.46438,447.3222)">
      <path
         d="m 0,0 -0.001,-17.732 4.275,0.002 0.003,10.976 6.333,-10.988 4.212,0.012 L 14.82,0 10.504,0 10.493,-10.336 4.426,0.003"
         style="fill:#ffffff;fill-opacity:1;fill-rule:nonzero;stroke:none"
         id="path242"
         inkscape:connector-curvature="0" />
    </g>
    <g
       id="g244"
       transform="matrix(1.25,0,0,-1.25,281.10813,447.3122)">
      <path
         d="m 0,0 -0.018,-17.744 13.844,0 -0.003,3.894 -9.435,10e-4 0.002,3.575 8.274,-0.003 -10e-4,3.757 -8.274,0.002 10e-4,2.605 9.023,-0.018 L 13.414,0"
         style="fill:#ffffff;fill-opacity:1;fill-rule:nonzero;stroke:none"
         id="path246"
         inkscape:connector-curvature="0" />
    </g>
    <g
       id="g248"
       transform="matrix(1.25,0,0,-1.25,299.44563,447.3122)">
      <path
         d="m 0,0 5.028,-17.744 4.465,0.006 2.327,11.405 2.401,-11.411 3.995,0.004 5.067,17.736 L 18.742,0 16.303,-10.444 14.164,-0.004 9.419,0 7.391,-9.867 5.103,0"
         style="fill:#ffffff;fill-opacity:1;fill-rule:nonzero;stroke:none"
         id="path250"
         inkscape:connector-curvature="0" />
    </g>
    <g
       id="g252"
       transform="matrix(1.25,0,0,-1.25,341.25938,454.62095)">
      <path
         d="m 0,0 c 0,0 0.582,2.204 -2.89,2.547 -2.381,0.235 -2.872,-1.435 -2.514,-2.065 0.73,-1.282 6.229,-1.287 8.855,-3.498 2.257,-1.901 1.717,-6.248 -0.675,-7.852 -2.861,-1.918 -7.372,-1.59 -9.361,-0.688 -4.006,1.816 -3.358,5.767 -3.358,5.767 l 4.239,0 c 0,0 -0.227,-2.731 3.114,-2.734 3.496,-0.004 3.502,1.826 2.777,2.567 -0.803,0.821 -7.385,1.099 -9.192,3.833 -1.197,1.811 -1.375,5.493 1.838,7.424 3.213,1.931 7.982,0.983 9.718,-0.819 2.094,-2.173 1.763,-4.484 1.763,-4.484"
         style="fill:#ffffff;fill-opacity:1;fill-rule:nonzero;stroke:none"
         id="path254"
         inkscape:connector-curvature="0" />
    </g>
    <g
       id="g256"
       transform="matrix(1.25,0,0,-1.25,351.10438,427.80595)">
      <path
         d="m 0,0 29.309,0 -0.019,-29.251 -29.27,0"
         style="fill:#e42424;fill-opacity:1;fill-rule:nonzero;stroke:none"
         id="path258"
         inkscape:connector-curvature="0" />
    </g>
    <g
       id="g260"
       transform="matrix(1.25,0,0,-1.25,354.83813,435.0447)">
      <path
         d="m 0,0 7.132,0 0,-18.152 -4.24,0 0,13.96 -2.892,0"
         style="fill:#ffffff;fill-opacity:1;fill-rule:nonzero;stroke:none"
         id="path262"
         inkscape:connector-curvature="0" />
    </g>
    <g
       id="g264"
       transform="matrix(1.25,0,0,-1.25,374.10313,458.13345)">
      <path
         d="M 0,0 C 3.751,0.067 6.071,2.675 6.346,5.117 6.72,8.44 4.952,9.575 3.919,10.2 c 1.144,0.81 1.972,1.77 1.837,3.981 -0.326,3.053 -2.891,4.587 -5.879,4.614 -2.996,0.027 -5.33,-1.791 -5.75,-4.492 -0.363,-2.329 1.14,-3.677 1.852,-4.097 C -5.439,9.446 -6.769,7.383 -6.497,5.158 -6.242,3.059 -4.096,-0.073 0,0"
         style="fill:#ffffff;fill-opacity:1;fill-rule:nonzero;stroke:none"
         id="path266"
         inkscape:connector-curvature="0" />
    </g>
    <g
       id="g268"
       transform="matrix(1.25,0,0,-1.25,376.31063,441.35595)">
      <path
         d="m 0,0 c 0,-1 -0.77,-1.852 -1.771,-1.852 -1,0 -1.838,0.746 -1.811,1.872 0.027,1.109 0.983,1.758 1.811,1.751 C -0.77,1.763 0,1.099 0,0"
         style="fill:#e42424;fill-opacity:1;fill-rule:nonzero;stroke:none"
         id="path270"
         inkscape:connector-curvature="0" />
    </g>
    <g
       id="g272"
       transform="matrix(1.25,0,0,-1.25,376.67563,450.2697)">
      <path
         d="m 0,0 c 0,-1.153 -0.787,-2.096 -2.019,-2.144 -1.179,-0.045 -2.086,0.991 -2.099,2.137 -0.015,1.219 0.848,2.076 2.083,2.083 C -0.885,2.082 0,1.115 0,0"
         style="fill:#e42424;fill-opacity:1;fill-rule:nonzero;stroke:none"
         id="path274"
         inkscape:connector-curvature="0" />
    </g>
  </g>
</svg>
