<?xml version="1.0" encoding="UTF-8" standalone="no"?>
<!-- Created with Inkscape (http://www.inkscape.org/) -->

<svg
   xmlns:dc="http://purl.org/dc/elements/1.1/"
   xmlns:cc="http://creativecommons.org/ns#"
   xmlns:rdf="http://www.w3.org/1999/02/22-rdf-syntax-ns#"
   xmlns:svg="http://www.w3.org/2000/svg"
   xmlns="http://www.w3.org/2000/svg"
   xmlns:sodipodi="http://sodipodi.sourceforge.net/DTD/sodipodi-0.dtd"
   xmlns:inkscape="http://www.inkscape.org/namespaces/inkscape"
   height="74.254837"
   width="600.00201"
   version="1.1"
   id="svg2"
   inkscape:version="0.91 r13725"
   sodipodi:docname="Nickelodeon HD - Dark.svg">
  <defs
     id="defs42" />
  <sodipodi:namedview
     pagecolor="#ffffff"
     bordercolor="#666666"
     borderopacity="1"
     objecttolerance="10"
     gridtolerance="10"
     guidetolerance="10"
     inkscape:pageopacity="0"
     inkscape:pageshadow="2"
     inkscape:window-width="1920"
     inkscape:window-height="1017"
     id="namedview40"
     showgrid="false"
     fit-margin-top="0"
     fit-margin-left="0"
     fit-margin-right="0"
     fit-margin-bottom="0"
     inkscape:zoom="0.96"
     inkscape:cx="416.80061"
     inkscape:cy="165.51942"
     inkscape:window-x="-8"
     inkscape:window-y="-8"
     inkscape:window-maximized="1"
     inkscape:current-layer="svg2" />
  <metadata
     id="metadata4">
    <rdf:RDF>
      <cc:Work
         rdf:about="">
        <dc:format>image/svg+xml</dc:format>
        <dc:type
           rdf:resource="http://purl.org/dc/dcmitype/StillImage" />
        <dc:title />
      </cc:Work>
    </rdf:RDF>
  </metadata>
  <path
     style="fill:#f58113;fill-rule:nonzero;fill-opacity:1"
     inkscape:connector-curvature="0"
     id="path10"
     d="m 24.993372,24.235777 c -6.879279,0 -13.173685,2.815477 -17.6625933,7.330778 C 2.8154774,36.055363 0,42.349769 0,49.229148 l 0,22.841947 18.964206,0 0,-22.443535 c 0.02659,-2.735795 0.664023,-5.073078 1.779606,-6.879279 1.115553,-1.8061 2.549836,-2.841971 4.24976,-2.868565 1.699925,0.02659 3.134207,1.062465 4.249761,2.868565 1.115553,1.806101 1.753012,4.143484 1.779606,6.879279 l 0,22.443535 18.964206,0 0,-22.841947 c 0,-6.879279 -2.815478,-13.173685 -7.330779,-17.662593 -4.488808,-4.515301 -10.783214,-7.330778 -17.662593,-7.330778" />
  <path
     style="fill:#f58113;fill-rule:nonzero;fill-opacity:1"
     inkscape:connector-curvature="0"
     id="path12"
     d="m 479.15483,24.235777 c -6.87928,0 -13.17369,2.815477 -17.6626,7.330778 -4.5153,4.488808 -7.33077,10.783214 -7.33077,17.662593 l 0,22.841947 18.9913,0 -0.0266,-10.013485 0,-12.43005 c 0.0266,-2.735795 0.66403,-5.073078 1.77961,-6.879279 1.11555,-1.8061 2.54984,-2.841971 4.24976,-2.868565 1.69992,0.02659 3.13421,1.062465 4.24976,2.868565 1.11555,1.806101 1.75301,4.143484 1.77961,6.879279 l 0,22.443535 18.9642,0 0,-22.841947 c 0,-6.879279 -2.81548,-13.173685 -7.33078,-17.662593 -4.4888,-4.515301 -10.78321,-7.330778 -17.66259,-7.330778" />
  <path
     style="fill:#f58113;fill-rule:nonzero;fill-opacity:1"
     inkscape:connector-curvature="0"
     id="path14"
     d="m 70.404299,18.094011 c 1.912377,-1.912377 3.081018,-4.541895 3.081018,-7.463649 0,-2.9216539 -1.168641,-5.5511724 -3.081018,-7.4635495 -1.912377,-1.8857828 -4.541896,-3.08101847 -7.46365,-3.08101847 -2.89516,0 -5.551172,1.19523567 -7.437055,3.08101847 -1.912377,1.9123771 -3.107613,4.5418956 -3.107613,7.4635495 0,2.921654 1.195236,5.551272 3.107613,7.463649 l 2.310789,2.337384 c 3.904436,3.877842 4.170078,4.913713 0.478094,8.605697 0,0 -2.12483,2.12483 -2.12483,2.12483 -1.726418,1.726418 -2.815478,4.116889 -2.815478,6.773002 l 0,34.130953 19.17696,0 0,-34.130953 c 0,-2.656113 -1.062465,-5.046584 -2.788883,-6.773002 l -2.12483,-2.12483 c -3.691984,-3.691984 -3.426343,-4.727855 0.45154,-8.605697 l 2.337383,-2.337384 z" />
  <path
     style="fill:#f58113;fill-rule:nonzero;fill-opacity:1"
     inkscape:connector-curvature="0"
     id="path16"
     d="m 104.38673,57.202604 c -1.11556,2.071742 -2.54984,3.293572 -4.24976,3.293572 -1.699929,0 -3.134212,-1.22183 -4.249765,-3.293572 -1.115553,-2.098336 -1.779607,-4.780942 -1.779607,-7.941643 0,-3.160701 0.664024,-5.869902 1.779607,-7.941644 1.115583,-2.071742 2.549836,-3.293571 4.249765,-3.293571 1.69992,0 3.1342,1.221829 4.24976,3.293571 0.82338,1.54056 1.38119,3.426343 1.62024,5.577767 l 18.9913,0 c -0.55778,-5.949584 -3.21389,-11.341191 -7.19801,-15.32531 -4.48881,-4.488807 -10.78321,-7.304185 -17.66259,-7.304185 -6.879281,0 -13.173687,2.815478 -17.689691,7.304185 -4.488807,4.515301 -7.304184,10.810309 -7.304184,17.689689 0,6.879278 2.815477,13.173684 7.304184,17.662592 3.479431,3.479431 9.508797,7.330779 17.689691,7.330779 6.16214,0 11.84598,-2.257701 16.20242,-5.976178 3.1607,-2.682607 7.86206,-8.101009 8.65888,-16.680111 l -18.9913,0 c -0.23905,2.178018 -0.79682,4.063801 -1.62024,5.60436" />
  <path
     style="fill:#f58113;fill-rule:nonzero;fill-opacity:1"
     inkscape:connector-curvature="0"
     id="path18"
     d="m 197.80779,24.225741 c -6.87928,0 -13.17368,2.815478 -17.66259,7.330779 -4.5153,4.488807 -7.33078,10.783213 -7.33078,17.662593 0,6.879278 2.81548,13.173684 7.33078,17.662592 4.38253,4.382531 10.57146,7.330779 17.76897,7.330779 7.43705,0 13.57209,-3.320066 17.71578,-7.463549 5.23244,-6.002773 5.47149,-12.403957 5.47149,-12.403957 l -16.91896,0 c 0,0 -2.33738,5.896496 -6.37459,5.896496 -1.69992,0 -3.13421,-1.22183 -4.24976,-3.293572 -0.77026,-1.434283 -1.30151,-3.134207 -1.56705,-5.099672 l 29.45639,0 c 0,0 1.99205,-12.031638 -6.05587,-20.159441 -4.67466,-4.727855 -10.65074,-7.46365 -17.58331,-7.46365 m -5.49808,20.53176 c 0.34528,-1.460877 0.79682,-2.735795 1.24832,-3.691983 0.84994,-1.832695 2.54984,-3.293572 4.24976,-3.293572 1.69993,0 3.10762,1.195236 4.30285,3.34666 0.50466,0.929634 0.95619,2.549836 1.16864,3.612301 l -10.96987,0.02659 z" />
  <path
     style="fill:#f58113;fill-rule:nonzero;fill-opacity:1"
     inkscape:connector-curvature="0"
     id="path20"
     d="m 375.39713,24.225741 c -6.87928,0 -13.17368,2.815478 -17.66259,7.330779 -4.5154,4.488807 -7.33078,10.783213 -7.33078,17.662593 0,6.879278 2.81548,13.173684 7.33078,17.662592 4.38253,4.382531 10.57146,7.330779 17.76897,7.330779 7.43705,0 13.5721,-3.320066 17.71578,-7.463549 5.23244,-6.002773 5.47149,-12.403957 5.47149,-12.403957 l -16.91896,0 c 0,0 -2.33738,5.896496 -6.37459,5.896496 -1.69992,0 -3.13421,-1.22183 -4.24976,-3.293572 -0.77027,-1.434283 -1.30151,-3.134207 -1.56705,-5.099672 l 29.45639,0 c 0,0 2.01865,-12.031638 -6.05587,-20.159441 -4.67466,-4.727855 -10.65074,-7.46365 -17.58331,-7.46365 m -5.49808,20.53176 c 0.34529,-1.460877 0.79682,-2.735795 1.24832,-3.691983 0.84993,-1.832695 2.54984,-3.293572 4.24976,-3.293572 1.69993,0 3.10762,1.195236 4.30285,3.34666 0.50466,0.929634 0.95619,2.549836 1.16864,3.612301 l -10.96987,0.02659 z" />
  <path
     style="fill:#f58113;fill-rule:nonzero;fill-opacity:1"
     inkscape:connector-curvature="0"
     id="path22"
     d="m 233.62472,0 c -5.25904,0 -9.4822,4.2497603 -9.4822,9.482203 l 0.0266,62.577763 18.96421,0 -0.0266,-62.577763 C 243.10672,4.2497603 238.85696,0 233.62452,0" />
  <path
     style="fill:#f58113;fill-rule:nonzero;fill-opacity:1"
     inkscape:connector-curvature="0"
     id="path24"
     d="m 270.74627,24.235777 c -13.81195,0 -24.99357,11.181625 -24.99357,24.993572 0,13.811947 11.18162,24.993572 24.99357,24.993572 13.81195,0 24.99357,-11.181625 24.99357,-24.993572 0,-13.811947 -11.18162,-24.993572 -24.99357,-24.993572 m 0,36.255482 c -3.32007,0 -6.02927,-5.046584 -6.02927,-11.26191 0,-6.215226 2.7092,-11.26191 6.02927,-11.26191 3.32007,0 6.02927,5.046584 6.02927,11.26191 0,6.215225 -2.7092,11.26191 -6.02927,11.26191" />
  <path
     style="fill:#f58113;fill-rule:nonzero;fill-opacity:1"
     inkscape:connector-curvature="0"
     id="path26"
     d="m 426.81936,24.235777 c -13.81195,0 -24.99357,11.181625 -24.99357,24.993572 0,13.811947 11.18162,24.993572 24.99357,24.993572 13.81195,0 24.99357,-11.181625 24.99357,-24.993572 0,-13.811947 -11.18162,-24.993572 -24.99357,-24.993572 m 0,36.255482 c -3.32006,0 -6.02937,-5.046584 -6.02937,-11.26191 0,-6.215226 2.70921,-11.26191 6.02937,-11.26191 3.32007,0 6.02927,5.046584 6.02927,11.26191 0,6.215225 -2.7092,11.26191 -6.02927,11.26191" />
  <path
     style="fill:#f58113;fill-rule:nonzero;fill-opacity:1"
     inkscape:connector-curvature="0"
     id="path28"
     d="m 348.00004,49.234367 0.0531,0.02659 -0.0266,-39.7880008 c -0.0266,-5.2324427 -4.27626,-9.48220296 -9.5088,-9.45560871 -5.23254,0 -9.4822,4.22316601 -9.4822,9.48220301 l 0,15.5119715 c -1.93898,-0.478095 -3.95753,-0.743706 -6.02927,-0.743706 -6.87928,0 -13.17369,2.815478 -17.66259,7.330779 -4.51531,4.488807 -7.33078,10.783214 -7.33078,17.662593 0,6.852684 2.81547,13.173685 7.33078,17.662592 2.86856,2.89516 9.05729,7.330779 17.66259,7.330779 8.63229,0 14.79443,-4.435619 17.66259,-7.330779 4.5153,-4.488807 7.33078,-10.810309 7.33078,-17.662592 l 0,-0.0266 z m -24.99357,11.26191 c -3.32007,0 -6.00277,-5.046585 -6.00277,-11.26191 0,-6.215226 2.6826,-11.26191 6.00277,-11.26191 3.32007,0 6.02927,5.046584 6.02927,11.26191 0,6.215225 -2.7092,11.26191 -6.02927,11.26191" />
  <path
     style="fill:#f58113;fill-rule:nonzero;fill-opacity:1"
     inkscape:connector-curvature="0"
     id="path30"
     d="m 175.55895,68.743503 c 0,-0.637459 -0.18593,-1.22183 -0.50466,-1.726418 l -10.3848,-15.723722 7.198,-13.041215 c 2.65612,-4.515301 1.16865,-10.332617 -3.34666,-13.015123 -4.5153,-2.656113 -10.33261,-1.142148 -12.98802,3.373254 l -8.6057,15.352406 0,-10.252332 c 0,-5.232543 -4.24976,-9.482203 -9.4822,-9.482203 -5.23245,0 -9.48221,4.24976 -9.48221,9.482203 l 0,38.353918 18.96421,0 0,-15.007182 10.01349,15.007182 15.3253,-0.02659 c 1.80611,0 3.29358,-1.460877 3.29358,-3.293572" />
  <path
     style="fill:#171615;fill-rule:nonzero"
     inkscape:connector-curvature="0"
     id="path32"
     d="m 552.88612,62.240458 0,-14.263548 -13.30716,0 0,14.263548 -8.23388,0 0,-34.103858 8.23388,0 0,12.908746 13.30716,0 0,-12.908746 8.23388,0 0,34.103858 -8.23388,0 z" />
  <path
     style="fill:#171615;fill-rule:nonzero"
     inkscape:connector-curvature="0"
     id="path34"
     d="m 591.42268,45.089679 c 0,-1.938972 -0.31873,-3.532619 -0.92963,-4.780943 -0.63746,-1.274918 -1.46088,-2.284195 -2.52324,-3.054525 -1.03588,-0.743705 -2.23111,-1.274918 -3.55912,-1.593647 -1.328,-0.345294 -2.7092,-0.504649 -4.11689,-0.504649 l -4.09039,0 0,19.946687 3.90443,0 c 1.46088,0 2.89516,-0.159364 4.24976,-0.504648 1.3812,-0.345304 2.57644,-0.876516 3.61231,-1.646736 1.06246,-0.796823 1.88578,-1.8061 2.52324,-3.081018 0.6109,-1.301512 0.92963,-2.89516 0.92963,-4.780943 m 8.57921,0 c 0,3.001336 -0.55779,5.551172 -1.67333,7.729191 -1.11555,2.178018 -2.57643,3.957525 -4.38254,5.338719 -1.8061,1.407689 -3.85134,2.44356 -6.13554,3.107613 -2.28419,0.637469 -4.59498,0.982753 -6.93237,0.982753 l -12.72308,0 0,-34.103858 12.32467,0 c 2.41707,0 4.78095,0.265602 7.14482,0.823378 2.33739,0.557787 4.43562,1.513966 6.24182,2.815478 1.8327,1.274918 3.32017,3.02793 4.43562,5.205949 1.14215,2.204512 1.69993,4.887219 1.69993,8.101108" />
  <path
     inkscape:connector-curvature="0"
     id="path36"
     d="m 530.81791,18.545612 0,7.087617 67.77117,0 0,-7.087617 -67.77117,0 z"
     style="color:#000000;text-indent:0;text-align:start;text-transform:none;direction:ltr;block-progression:tb;baseline-shift:baseline;fill:#171615;enable-background:accumulate" />
  <path
     inkscape:connector-curvature="0"
     id="path38"
     d="m 530.81791,65.120664 0,7.087617 67.77117,0 0,-7.087617 -67.77117,0 z"
     style="color:#000000;text-indent:0;text-align:start;text-transform:none;direction:ltr;block-progression:tb;baseline-shift:baseline;fill:#171615;enable-background:accumulate" />
</svg>
