<svg height="160.01042pt" viewBox="0 0 899.28424 160.01042" width="899.28424pt" xmlns="http://www.w3.org/2000/svg"><g fill="#040203" transform="translate(-49.7512 -20.0288)"><path d="m421.64 89.13c.97-10.71 10.47-19.89 21.3-20.1 21.36-.17 42.72 0 64.09-.08 6.76-.04 13.49 3.07 17.7 8.4 4.77 5.77 6.25 14.03 3.88 21.12-2.24 6.82-7.89 12.46-14.8 14.49-5.1 1.59-10.49.81-15.73.95.09 20.5.03 41 .03 61.5-14.96-.02-29.93-.01-44.89.01-.26-20.51.22-41.04-.38-61.54-6.46-.03-13.41.84-19.27-2.51-8.04-4.06-12.94-13.32-11.93-22.24m4.63.74c-.8 7.16 3.36 14.43 9.79 17.56 6.82 3.19 14.53 1.39 21.76 1.9-.08 20.47-.01 40.94.04 61.41 11.87-.02 23.75.05 35.62-.04-.02-20.47-.03-40.94-.03-61.4 5.2-.06 10.4.17 15.59-.11 9.35-.7 17-9.9 15.94-19.22-.41-5.8-3.94-11.2-9.01-14.02-3.58-2.21-7.91-2.41-11.99-2.35-20.32.11-40.63-.09-60.94.09-8.65.21-16.13 7.64-16.77 16.18z"/><path d="m546.53 79.54c9.03-6.65 20.18-10.39 31.4-10.54 14.57-.46 29.17 5.31 39.61 15.45 9.64 9.13 15.72 21.88 16.82 35.11 1.49-13.72 7.76-26.92 18.11-36.15 10.34-9.55 24.45-14.83 38.52-14.43 15.5.18 30.7 7.43 40.76 19.2 10.1 11.63 15.09 27.57 13.08 42.89-1.62 14.22-9.12 27.61-20.28 36.54-10.18 8.29-23.42 12.7-36.53 12.22-12.57-.31-24.96-5.15-34.42-13.42-10.98-9.32-18.1-23.14-19.06-37.53-1.41 14.82-8.7 29.08-20.32 38.44-13.13 10.96-31.56 15.11-48.13 10.97-12.08-2.8-23.07-9.92-30.63-19.74-9.25-11.56-13.38-27.01-11.29-41.66 1.89-14.83 10.27-28.61 22.36-37.35m21.98-4.81c-13.88 2.91-26.36 11.98-33.38 24.3-5.76 9.84-7.97 21.65-6.26 32.91 1.96 13.62 9.84 26.22 21.14 34.05 11.44 8.15 26.39 11.14 40.09 8.02 11.98-2.63 22.91-9.76 30.07-19.74 9.08-12.21 12.06-28.64 7.94-43.29-3.24-12.04-11.15-22.73-21.71-29.36-11.04-7.25-25.01-9.63-37.89-6.89m110.02.15c-12.87 2.8-24.39 11.02-31.49 22.09-6.7 10.25-9.38 23.03-7.52 35.13 1.78 11.53 7.64 22.38 16.37 30.13 10.48 9.48 25.07 14.26 39.13 12.71 15.21-1.48 29.48-10.37 37.61-23.29 6.5-10.18 9.24-22.71 7.4-34.66-2.08-14.56-10.92-27.95-23.42-35.66-11.16-7.14-25.2-9.39-38.08-6.45z"/><path d="m775.09 76.05c12.3-6.94 27.31-8.84 40.96-5.23 13.32 3.41 25.23 11.95 32.67 23.51 5.86 9.09 8.97 19.92 8.89 30.73.02 16.77-.02 33.55 0 50.32-15.01.04-30.01.03-45.01.02-.06-16.48-.05-32.95-.03-49.43.06-5.6-1.22-11.44-4.7-15.94-2.17-2.87-6.59-4.24-9.58-1.78-4.95 3.97-6.5 10.73-6.66 16.79-.03 16.79-.01 33.58-.02 50.37-15.01-.03-30.03.03-45.05-.04.03-13.8.04-27.59.01-41.38.07-6.97-.34-14.03 1.2-20.88 3.27-15.48 13.34-29.51 27.32-37.06m-7.22 10.82c-10.35 9.39-16.54 23.17-16.6 37.15-.01 15.57-.04 31.14 0 46.7 11.88.04 23.75.03 35.63 0 .08-15.24-.06-30.49.06-45.74.1-7.54 2.48-15.62 8.55-20.5 4.16-3.22 10.38-2.69 14.18.84 5.67 5.2 7.57 13.22 7.55 20.66-.04 14.9.01 29.8-.02 44.71 11.87.12 23.75.01 35.62.06.2-15.25.04-30.5.09-45.75.2-11.53-3.9-22.95-10.92-32.04-8.03-10.14-20.07-17.01-32.88-18.77-14.74-2.23-30.21 2.77-41.26 12.68z"/><path d="m877.39 74.51c10.66-5.68 23.32-6.52 35.04-4.33 11.53 2.24 22.61 8.46 29.27 18.32 4.68 6.53 6.72 14.61 6.59 22.58-11.44.1-22.88-.13-34.31.17 8.71 3.19 17.16 7.49 24.29 13.49 5.96 5.02 10.79 12.22 10.75 20.27.31 8.68-4.09 16.92-10.2 22.85-8.67 8.33-20.87 12.4-32.78 12.17-13.68.16-27.89-4.64-37.25-14.93-6.85-7.16-10.55-17.09-10.16-26.99 11.3-.31 22.63.4 33.92-.4-10.44-3.96-20.86-9.21-28.34-17.71-4.8-5.41-7.34-12.87-6.14-20.07 1.67-11.03 9.62-20.34 19.32-25.42m-3.25 7.67c-6.97 5.33-12.14 13.79-11.62 22.78.45 6.48 4.53 12.11 9.4 16.15 8.19 6.84 18.24 10.8 28.01 14.83 4.28 1.94 8.96 3.51 12.35 6.93 3.26 3 2.7 8.96-.97 11.41-4.89 3.74-12.49 2.36-16.27-2.32-2.12-2.67-2.96-6.05-3.75-9.29-9.33.1-18.66-.04-27.98.09.79 6.63 3.21 13.2 7.86 18.1 13.66 14.85 37.59 18.77 55.54 9.84 9.2-4.45 16.72-13.33 17.66-23.74.76-7.74-4.09-14.74-9.95-19.29-10.21-8.67-23.44-12.09-35.18-18.05-3.62-1.75-7.45-5.18-6.7-9.62.94-6.69 9.8-8.17 14.99-5.63 4.93 1.97 7.11 7.23 8.04 12.09 9.33-.09 18.68.02 28.02-.04-.78-5.47-2.35-10.96-5.7-15.44-7.15-9.8-18.97-15.35-30.8-16.81-11.42-1.5-23.75.78-32.95 8.01m23.82 16.72c-1.59 1.52-.68 3.99.98 5.02 3.7 2.59 7.98 4.16 12.15 5.82-.34-2.89-.58-5.94-2.3-8.4-2.17-3.61-7.29-4.34-10.83-2.44m-2.15 40.57c.34 3.37.66 7.1 3.06 9.72 2.5 2.72 7.29 3.7 10.14.97 1.58-1.54.48-4.07-1.18-5.04-3.67-2.52-7.89-4.07-12.02-5.65z"/><path d="m575.63 98.8c3.55-1.39 7.72-.45 10.46 2.18 4.78 4.48 6.91 11.06 7.78 17.39.99 9.05.02 18.83-5.18 26.56-2.45 3.73-6.97 6.43-11.52 5.59-5.44-1.35-8.72-6.51-10.66-11.4-3.22-8.93-3.3-18.96-.48-28.02 1.65-4.97 4.57-10.15 9.6-12.3m1.74 4.34c-4.22 1.93-6.07 6.65-7.28 10.83-2.43 8.95-1.87 18.99 2.6 27.23 1.54 2.79 4.67 5.75 8.12 4.52 3.98-1.74 5.74-6.12 7.07-9.96 2.71-8.99 2.27-19.16-2.03-27.59-1.58-2.99-4.76-6.39-8.48-5.03z"/><path d="m686.55 98.74c3.56-1.31 7.71-.22 10.37 2.44 5.14 4.83 7.1 12.05 7.75 18.86.7 8.4-.39 17.36-5.08 24.55-2.45 3.69-6.78 6.76-11.4 5.94-4.63-.8-7.87-4.73-9.85-8.72-4.29-8.89-4.62-19.35-2.23-28.83 1.58-5.72 4.6-11.91 10.44-14.24m1.56 3.98c-2.21 1.77-4.43 3.7-5.57 6.36-4.13 9.04-4.28 19.77-.71 29.02 1.34 3.02 3.08 6.4 6.35 7.69 3.7 1.06 6.84-2.17 8.35-5.21 4.7-9.37 4.77-20.76.97-30.45-1.59-3.85-4.72-7.95-9.39-7.41z"/></g><g fill="#f4e830" transform="translate(-49.7512 -20.0288)"><path d="m236.68 78.42c3.53-2.66 7.82-3.91 11.9-5.45.3.07.9.23 1.2.3-.12.22-.36.65-.48.87-4.55.19-8.63 2.3-12.62 4.28z"/><path d="m426.27 89.87c.64-8.54 8.12-15.97 16.77-16.18 20.31-.18 40.62.02 60.94-.09 4.08-.06 8.41.14 11.99 2.35 5.07 2.82 8.6 8.22 9.01 14.02 1.06 9.32-6.59 18.52-15.94 19.22-5.19.28-10.39.05-15.59.11 0 20.46.01 40.93.03 61.4-11.87.09-23.75.02-35.62.04-.05-20.47-.12-40.94-.04-61.41-7.23-.51-14.94 1.29-21.76-1.9-6.43-3.13-10.59-10.4-9.79-17.56z"/><path d="m568.51 74.73c12.88-2.74 26.85-.36 37.89 6.89 10.56 6.63 18.47 17.32 21.71 29.36 4.12 14.65 1.14 31.08-7.94 43.29-7.16 9.98-18.09 17.11-30.07 19.74-13.7 3.12-28.65.13-40.09-8.02-11.3-7.83-19.18-20.43-21.14-34.05-1.71-11.26.5-23.07 6.26-32.91 7.02-12.32 19.5-21.39 33.38-24.3m7.12 24.07c-5.03 2.15-7.95 7.33-9.6 12.3-2.82 9.06-2.74 19.09.48 28.02 1.94 4.89 5.22 10.05 10.66 11.4 4.55.84 9.07-1.86 11.52-5.59 5.2-7.73 6.17-17.51 5.18-26.56-.87-6.33-3-12.91-7.78-17.39-2.74-2.63-6.91-3.57-10.46-2.18z"/><path d="m678.53 74.88c12.88-2.94 26.92-.69 38.08 6.45 12.5 7.71 21.34 21.1 23.42 35.66 1.84 11.95-.9 24.48-7.4 34.66-8.13 12.92-22.4 21.81-37.61 23.29-14.06 1.55-28.65-3.23-39.13-12.71-8.73-7.75-14.59-18.6-16.37-30.13-1.86-12.1.82-24.88 7.52-35.13 7.1-11.07 18.62-19.29 31.49-22.09m8.02 23.86c-5.84 2.33-8.86 8.52-10.44 14.24-2.39 9.48-2.06 19.94 2.23 28.83 1.98 3.99 5.22 7.92 9.85 8.72 4.62.82 8.95-2.25 11.4-5.94 4.69-7.19 5.78-16.15 5.08-24.55-.65-6.81-2.61-14.03-7.75-18.86-2.66-2.66-6.81-3.75-10.37-2.44z"/><path d="m767.87 86.87c11.05-9.91 26.52-14.91 41.26-12.68 12.81 1.76 24.85 8.63 32.88 18.77 7.02 9.09 11.12 20.51 10.92 32.04-.05 15.25.11 30.5-.09 45.75-11.87-.05-23.75.06-35.62-.06.03-14.91-.02-29.81.02-44.71.02-7.44-1.88-15.46-7.55-20.66-3.8-3.53-10.02-4.06-14.18-.84-6.07 4.88-8.45 12.96-8.55 20.5-.12 15.25.02 30.5-.06 45.74-11.88.03-23.75.04-35.63 0-.04-15.56-.01-31.13 0-46.7.06-13.98 6.25-27.76 16.6-37.15z"/><path d="m874.14 82.18c9.2-7.23 21.53-9.51 32.95-8.01 11.83 1.46 23.65 7.01 30.8 16.81 3.35 4.48 4.92 9.97 5.7 15.44-9.34.06-18.69-.05-28.02.04-.93-4.86-3.11-10.12-8.04-12.09-5.19-2.54-14.05-1.06-14.99 5.63-.75 4.44 3.08 7.87 6.7 9.62 11.74 5.96 24.97 9.38 35.18 18.05 5.86 4.55 10.71 11.55 9.95 19.29-.94 10.41-8.46 19.29-17.66 23.74-17.95 8.93-41.88 5.01-55.54-9.84-4.65-4.9-7.07-11.47-7.86-18.1 9.32-.13 18.65.01 27.98-.09.79 3.24 1.63 6.62 3.75 9.29 3.78 4.68 11.38 6.06 16.27 2.32 3.67-2.45 4.23-8.41.97-11.41-3.39-3.42-8.07-4.99-12.35-6.93-9.77-4.03-19.82-7.99-28.01-14.83-4.87-4.04-8.95-9.67-9.4-16.15-.52-8.99 4.65-17.45 11.62-22.78z"/></g><g fill="#f57c14" transform="scale(1.4878937 1.487893)"><path d="m149.14407 81.60742c-1.6127 2.94821-3.65376 4.68689-6.098 4.71209-2.39385-.0252-4.46011-1.76388-6.07281-4.71209-1.5875-2.99861-2.49464-6.85396-2.49464-11.36446 0-4.51051.90714-8.36586 2.49464-11.33926 1.6127-2.94821 3.67896-4.6869 6.07281-4.7121 2.44424.0252 4.4853 1.76389 6.098 4.7121 1.18432 2.21745 1.99067 4.91368 2.34345 7.98788h27.11343c-.78114-8.49185-4.5861-16.20255-10.28093-21.89738-6.42558-6.42558-15.44659-10.45732-25.27395-10.45732-9.80217 0-18.82318 4.03174-25.22356 10.45732-6.45078 6.42558-10.48252 15.4466-10.45732 25.24876-.0252 9.82736 4.00654 18.82317 10.45732 25.24876v.0504c6.40038 6.45078 15.42139 10.48252 25.22356 10.45732 9.82736.0252 18.84837-4.00654 25.27395-10.45732 0 0-.0252-.0252 0-.0504 5.69483-5.66963 9.49979-13.38033 10.28093-21.89738h-27.11343c-.35278 3.0994-1.15913 5.79562-2.34345 8.01308"/><path d="m35.70608 34.50412c-9.80216 0-18.84837 4.00654-25.24876 10.45732-6.45078 6.40039-10.45732 15.4466-10.45732 25.24876v32.80827h27.11344v-14.46386-17.79005c0-3.90574.93234-7.23193 2.51984-9.82736 1.5875-2.57023 3.65376-4.05693 6.0728-4.05693 2.41905 0 4.48531 1.4867 6.07281 4.05693 1.5875 2.59543 2.51984 5.92162 2.51984 9.82736v32.25391h27.11343v-32.80827c0-9.80216-4.00654-18.84837-10.45732-25.24876-6.40038-6.45078-15.44659-10.45732-25.24876-10.45732"/><path d="m245.0314 54.5091c3.80495-6.45078 1.66309-14.74104-4.78769-18.54599-6.45078-3.83015-14.76624-1.68829-18.5712 4.78769l-12.2716 21.92257v-14.61505c0-7.48391-6.0476-13.55672-13.55672-13.55672-7.48391 0-13.55671 6.07281-13.55671 13.55672v54.95763h27.11343v-21.6202l14.36307 22.07377h22.37614c3.98135 0 5.82083-3.98134 2.57024-8.86983l-13.9599-21.4186z"/><path d="m100.58431 25.72753c2.74662-2.72142 4.40971-6.50118 4.40971-10.65891s-1.66309-7.93748-4.40971-10.6589c-2.72143-2.72143-6.50118-4.40972-10.65891-4.40972s-7.93748 1.68829-10.63371 4.43492c-2.74662 2.69622-4.43491 6.47597-4.43491 10.6337s1.68829 7.93749 4.43491 10.65891l3.30099 3.32619c5.56883 5.56883 5.97201 7.03034.68035 12.32199l-3.0238 3.02381c-2.49464 2.46944-4.00654 5.89641-4.00654 9.67617v48.93522h27.39062v-48.93522c0-3.77976-1.5371-7.20673-4.00654-9.67617l-3.0238-3.02381c-5.29166-5.26645-4.91369-6.75316.65515-12.32199z"/></g></svg>