<svg height="74.256401" width="600.00562" xmlns="http://www.w3.org/2000/svg"><g fill="#f58113"><path d="m24.993 24.236c-6.8793 0-13.174 2.8155-17.663 7.3308-4.5145 4.488-7.33 10.783-7.33 17.662v22.842h18.964v-22.443c.0266-2.7358.66402-5.0731 1.7796-6.8793 1.1156-1.8061 2.5498-2.842 4.2498-2.8686 1.6999.02659 3.1342 1.0625 4.2498 2.8686s1.753 4.1435 1.7796 6.8793v22.444h18.963v-22.842c0-6.8793-2.8155-13.174-7.3308-17.663-4.4888-4.5153-10.783-7.3308-17.663-7.3308"/><path d="m479.15 24.236c-6.8793 0-13.174 2.8155-17.663 7.3308-4.5153 4.4888-7.3308 10.783-7.3308 17.663v22.842h18.991l-.03-10.014v-12.43c.0266-2.7358.66402-5.0731 1.7796-6.8793 1.1156-1.8061 2.5498-2.842 4.2498-2.8686 1.6999.02659 3.1342 1.0625 4.2498 2.8686s1.753 4.1435 1.7796 6.8793v22.444h18.964v-22.842c0-6.8793-2.8155-13.174-7.3308-17.663-4.4888-4.5153-10.783-7.3308-17.663-7.3308"/><path d="m70.404 18.094c1.9124-1.9124 3.081-4.5419 3.081-7.4636s-1.1686-5.5512-3.081-7.4635c-1.9124-1.8858-4.5419-3.081-7.4636-3.081-2.8952 0-5.5512 1.1952-7.4371 3.081-1.9124 1.9124-3.1076 4.5419-3.1076 7.4635 0 2.9217 1.1952 5.5513 3.1076 7.4636l2.3108 2.3374c3.9044 3.8778 4.1701 4.9137.4781 8.6057 0 0-2.1248 2.1248-2.1248 2.1248-1.7264 1.7264-2.8155 4.1169-2.8155 6.773v34.131h19.177v-34.131c0-2.6561-1.0625-5.0466-2.7889-6.773l-2.1248-2.1248c-3.692-3.692-3.4263-4.7279.45154-8.6057l2.3374-2.3374z"/><path d="m104.38 57.203c-1.1156 2.0717-2.5498 3.2936-4.2498 3.2936-1.6999 0-3.1342-1.2218-4.2498-3.2936-1.1156-2.0983-1.7796-4.7809-1.7796-7.9416s.66402-5.8699 1.7796-7.9416 2.5498-3.2936 4.2498-3.2936c1.6999 0 3.1342 1.2218 4.2498 3.2936.82339 1.5406 1.3812 3.4263 1.6202 5.5778h18.991c-.55778-5.9496-3.2139-11.341-7.198-15.325-4.4888-4.4888-10.783-7.3042-17.663-7.3042-6.8793 0-13.174 2.8155-17.69 7.3042-4.4888 4.5153-7.3042 10.81-7.3042 17.69 0 6.8793 2.8155 13.174 7.3042 17.663 3.4794 3.4794 9.5088 7.3308 17.69 7.3308 6.1621 0 11.846-2.2577 16.202-5.9762 3.1607-2.6826 7.8621-8.101 8.6589-16.68h-18.991c-.23904 2.178-.79682 4.0638-1.6202 5.6044"/><path d="m197.81 24.226c-6.8793 0-13.174 2.8155-17.663 7.3308-4.5153 4.4888-7.3308 10.783-7.3308 17.663 0 6.8793 2.8155 13.174 7.3308 17.663 4.3825 4.3825 10.571 7.3308 17.769 7.3308 7.4371 0 13.572-3.3201 17.716-7.4635 5.2324-6.0028 5.4715-12.404 5.4715-12.404h-16.919s-2.3374 5.8965-6.3746 5.8965c-1.6999 0-3.1342-1.2218-4.2498-3.2936-.77026-1.4343-1.3015-3.1342-1.567-5.0997h29.456s1.9921-12.032-6.0559-20.159c-4.6747-4.7279-10.651-7.4636-17.583-7.4636m-5.51 20.532c.34528-1.4609.79682-2.7358 1.2483-3.692.84994-1.8327 2.5498-3.2936 4.2498-3.2936 1.6999 0 3.1076 1.1952 4.3028 3.3467.50466.92964.95619 2.5498 1.1686 3.6123l-10.97.02659z"/><path d="m375.4 24.226c-6.8793 0-13.174 2.8155-17.663 7.3308-4.5154 4.4888-7.3308 10.783-7.3308 17.663 0 6.8793 2.8155 13.174 7.3308 17.663 4.3825 4.3825 10.571 7.3308 17.769 7.3308 7.4371 0 13.572-3.3201 17.716-7.4635 5.2324-6.0028 5.4715-12.404 5.4715-12.404h-16.919s-2.3374 5.8965-6.3746 5.8965c-1.6999 0-3.1342-1.2218-4.2498-3.2936-.77027-1.4343-1.3015-3.1342-1.567-5.0997h29.456s2.0186-12.032-6.0559-20.159c-4.6747-4.7279-10.651-7.4636-17.583-7.4636m-5.4981 20.532c.3453-1.4609.79683-2.7358 1.2483-3.692.84993-1.8327 2.5498-3.2936 4.2498-3.2936 1.6999 0 3.1076 1.1952 4.3028 3.3467.50466.92964.95619 2.5498 1.1686 3.6123l-10.97.02659z"/><path d="m233.62 0c-5.259 0-9.4822 4.2498-9.4822 9.4822l.0266 62.578h18.964l-.03-62.578c0-5.2324-4.25-9.4822-9.48-9.4822"/><path d="m270.74 24.236c-13.812 0-24.994 11.182-24.994 24.994s11.182 24.994 24.994 24.994 24.994-11.182 24.994-24.994-11.182-24.994-24.994-24.994m0 36.255c-3.3201 0-6.0293-5.0466-6.0293-11.262 0-6.2152 2.7092-11.262 6.0293-11.262s6.0293 5.0466 6.0293 11.262c0 6.2152-2.7092 11.262-6.0293 11.262"/><path d="m426.82 24.236c-13.812 0-24.994 11.182-24.994 24.994s11.182 24.994 24.994 24.994 24.994-11.182 24.994-24.994-11.182-24.994-24.994-24.994m0 36.255c-3.3201 0-6.0294-5.0466-6.0294-11.262 0-6.2152 2.7092-11.262 6.0294-11.262 3.3201 0 6.0293 5.0466 6.0293 11.262 0 6.2152-2.7092 11.262-6.0293 11.262"/><path d="m348 49.234.0531.02659-.0266-39.788c-.0266-5.2324-4.2763-9.4822-9.5088-9.4556-5.2325 0-9.4822 4.2232-9.4822 9.4822v15.512c-1.939-.47809-3.9575-.7437-6.0293-.7437-6.8793 0-13.174 2.8155-17.663 7.3308-4.5153 4.4888-7.3308 10.783-7.3308 17.663 0 6.8527 2.8155 13.174 7.3308 17.663 2.8686 2.8952 9.0573 7.3308 17.663 7.3308 8.6323 0 14.794-4.4356 17.663-7.3308 4.5153-4.4888 7.3308-10.81 7.3308-17.663v-.02659zm-24.994 11.262c-3.3201 0-6.0028-5.0466-6.0028-11.262 0-6.2152 2.6826-11.262 6.0028-11.262 3.3201 0 6.0293 5.0466 6.0293 11.262 0 6.2152-2.7092 11.262-6.0293 11.262"/><path d="m175.56 68.744c0-.63746-.18593-1.2218-.50466-1.7264l-10.385-15.724 7.198-13.041c2.6561-4.5153 1.1686-10.333-3.3467-13.015-4.5153-2.6561-10.333-1.1421-12.988 3.3733l-8.6057 15.352v-10.253c0-5.2325-4.2498-9.4822-9.4822-9.4822s-9.4822 4.2498-9.4822 9.4822v38.354h18.964v-15.007l10.013 15.007 15.325-.0266c1.8061 0 3.2936-1.4609 3.2936-3.2936"/></g><g fill="#fff"><path d="m552.88 62.241v-14.264h-13.307v14.264h-8.2339v-34.104h8.2339v12.909h13.307v-12.909h8.2339v34.104z"/><path d="m591.42 45.09c0-1.939-.31872-3.5326-.92963-4.7809-.63746-1.2749-1.4609-2.2842-2.5232-3.0545-1.0359-.74371-2.2311-1.2749-3.5591-1.5936-1.328-.34529-2.7092-.50465-4.1169-.50465h-4.0904v19.947h3.9044c1.4609 0 2.8952-.15936 4.2498-.50465 1.3812-.3453 2.5764-.87652 3.6123-1.6467 1.0625-.79682 1.8858-1.8061 2.5232-3.081.61091-1.3015.92964-2.8952.92964-4.7809m8.5792 0c0 3.0013-.55779 5.5512-1.6733 7.7292-1.1156 2.178-2.5764 3.9575-4.3825 5.3387-1.8061 1.4077-3.8514 2.4436-6.1356 3.1076-2.2842.63747-4.595.98275-6.9324.98275h-12.717v-34.103h12.325c2.4171 0 4.7809.2656 7.1448.82338 2.3374.55779 4.4356 1.514 6.2418 2.8155 1.8327 1.2749 3.3202 3.0279 4.4356 5.2059 1.1422 2.2045 1.6999 4.8872 1.6999 8.1011"/><path d="m530.82 18.546v7.0876h67.771v-7.0876z"/><path d="m530.82 65.121v7.0876h67.771v-7.0876z"/></g></svg>