<?xml version="1.0" encoding="UTF-8" standalone="no"?>
<!-- Created with Inkscape (http://www.inkscape.org/) -->

<svg
   xmlns:dc="http://purl.org/dc/elements/1.1/"
   xmlns:cc="http://creativecommons.org/ns#"
   xmlns:rdf="http://www.w3.org/1999/02/22-rdf-syntax-ns#"
   xmlns:svg="http://www.w3.org/2000/svg"
   xmlns="http://www.w3.org/2000/svg"
   xmlns:sodipodi="http://sodipodi.sourceforge.net/DTD/sodipodi-0.dtd"
   xmlns:inkscape="http://www.inkscape.org/namespaces/inkscape"
   height="74.256401"
   width="600.00562"
   version="1.1"
   id="svg2"
   inkscape:version="0.91 r13725"
   sodipodi:docname="Nickelodeon HD.svg">
  <defs
     id="defs40" />
  <sodipodi:namedview
     pagecolor="#ffffff"
     bordercolor="#666666"
     borderopacity="1"
     objecttolerance="10"
     gridtolerance="10"
     guidetolerance="10"
     inkscape:pageopacity="0"
     inkscape:pageshadow="2"
     inkscape:window-width="1920"
     inkscape:window-height="1017"
     id="namedview38"
     showgrid="false"
     fit-margin-top="0"
     fit-margin-left="0"
     fit-margin-right="0"
     fit-margin-bottom="0"
     inkscape:zoom="0.96"
     inkscape:cx="266.09848"
     inkscape:cy="-1.2825811"
     inkscape:window-x="-8"
     inkscape:window-y="-8"
     inkscape:window-maximized="1"
     inkscape:current-layer="svg2" />
  <metadata
     id="metadata4">
    <rdf:RDF>
      <cc:Work
         rdf:about="">
        <dc:format>image/svg+xml</dc:format>
        <dc:type
           rdf:resource="http://purl.org/dc/dcmitype/StillImage" />
        <dc:title />
      </cc:Work>
    </rdf:RDF>
  </metadata>
  <path
     d="m 24.993,24.236 c -6.8793,0 -13.174,2.8155 -17.663,7.3308 C 2.8155,36.0548 0,42.3498 0,49.2288 l 0,22.842 18.964,0 0,-22.443 c 0.0266,-2.7358 0.66402,-5.0731 1.7796,-6.8793 1.1156,-1.8061 2.5498,-2.842 4.2498,-2.8686 1.6999,0.02659 3.1342,1.0625 4.2498,2.8686 1.1156,1.8061 1.753,4.1435 1.7796,6.8793 l 0,22.444 18.963,0 0,-22.842 c 0,-6.8793 -2.8155,-13.174 -7.3308,-17.663 C 38.1662,27.0515 31.872,24.236 24.992,24.236"
     id="path8"
     inkscape:connector-curvature="0"
     style="fill:#f58113;fill-rule:nonzero;fill-opacity:1" />
  <path
     d="m 479.15,24.236 c -6.8793,0 -13.174,2.8155 -17.663,7.3308 -4.5153,4.4888 -7.3308,10.783 -7.3308,17.663 l 0,22.842 18.991,0 -0.03,-10.014 0,-12.43 c 0.0266,-2.7358 0.66402,-5.0731 1.7796,-6.8793 1.1156,-1.8061 2.5498,-2.842 4.2498,-2.8686 1.6999,0.02659 3.1342,1.0625 4.2498,2.8686 1.1156,1.8061 1.753,4.1435 1.7796,6.8793 l 0,22.444 18.964,0 0,-22.842 c 0,-6.8793 -2.8155,-13.174 -7.3308,-17.663 -4.4888,-4.5153 -10.783,-7.3308 -17.663,-7.3308"
     id="path10"
     inkscape:connector-curvature="0"
     style="fill:#f58113;fill-rule:nonzero;fill-opacity:1" />
  <path
     d="m 70.404,18.094 c 1.9124,-1.9124 3.081,-4.5419 3.081,-7.4636 0,-2.9217 -1.1686,-5.5512 -3.081,-7.4635 -1.9124,-1.8858 -4.5419,-3.081 -7.4636,-3.081 -2.8952,0 -5.5512,1.1952 -7.4371,3.081 -1.9124,1.9124 -3.1076,4.5419 -3.1076,7.4635 0,2.9217 1.1952,5.5513 3.1076,7.4636 l 2.3108,2.3374 c 3.9044,3.8778 4.1701,4.9137 0.4781,8.6057 0,0 -2.1248,2.1248 -2.1248,2.1248 -1.7264,1.7264 -2.8155,4.1169 -2.8155,6.773 l 0,34.131 19.177,0 0,-34.131 c 0,-2.6561 -1.0625,-5.0466 -2.7889,-6.773 l -2.1248,-2.1248 c -3.692,-3.692 -3.4263,-4.7279 0.45154,-8.6057 l 2.3374,-2.3374 z"
     id="path12"
     inkscape:connector-curvature="0"
     style="fill:#f58113;fill-rule:nonzero;fill-opacity:1" />
  <path
     d="m 104.38,57.203 c -1.1156,2.0717 -2.5498,3.2936 -4.2498,3.2936 -1.6999,0 -3.1342,-1.2218 -4.2498,-3.2936 -1.1156,-2.0983 -1.7796,-4.7809 -1.7796,-7.9416 0,-3.1607 0.66402,-5.8699 1.7796,-7.9416 1.11558,-2.0717 2.5498,-3.2936 4.2498,-3.2936 1.6999,0 3.1342,1.2218 4.2498,3.2936 0.82339,1.5406 1.3812,3.4263 1.6202,5.5778 l 18.991,0 c -0.55778,-5.9496 -3.2139,-11.341 -7.198,-15.325 -4.4888,-4.4888 -10.783,-7.3042 -17.663,-7.3042 -6.8793,0 -13.174,2.8155 -17.69,7.3042 -4.4888,4.5153 -7.3042,10.81 -7.3042,17.69 0,6.8793 2.8155,13.174 7.3042,17.663 3.4794,3.4794 9.5088,7.3308 17.69,7.3308 6.1621,0 11.846,-2.2577 16.202,-5.9762 3.1607,-2.6826 7.8621,-8.101 8.6589,-16.68 l -18.991,0 c -0.23904,2.178 -0.79682,4.0638 -1.6202,5.6044"
     id="path14"
     inkscape:connector-curvature="0"
     style="fill:#f58113;fill-rule:nonzero;fill-opacity:1" />
  <path
     d="m 197.81,24.226 c -6.8793,0 -13.174,2.8155 -17.663,7.3308 -4.5153,4.4888 -7.3308,10.783 -7.3308,17.663 0,6.8793 2.8155,13.174 7.3308,17.663 4.3825,4.3825 10.571,7.3308 17.769,7.3308 7.4371,0 13.572,-3.3201 17.716,-7.4635 5.2324,-6.0028 5.4715,-12.404 5.4715,-12.404 l -16.919,0 c 0,0 -2.3374,5.8965 -6.3746,5.8965 -1.6999,0 -3.1342,-1.2218 -4.2498,-3.2936 -0.77026,-1.4343 -1.3015,-3.1342 -1.567,-5.0997 l 29.456,0 c 0,0 1.9921,-12.032 -6.0559,-20.159 -4.6747,-4.7279 -10.651,-7.4636 -17.583,-7.4636 m -5.51,20.532 c 0.34528,-1.4609 0.79682,-2.7358 1.2483,-3.692 0.84994,-1.8327 2.5498,-3.2936 4.2498,-3.2936 1.6999,0 3.1076,1.1952 4.3028,3.3467 0.50466,0.92964 0.95619,2.5498 1.1686,3.6123 l -10.97,0.02659 z"
     id="path16"
     inkscape:connector-curvature="0"
     style="fill:#f58113;fill-rule:nonzero;fill-opacity:1" />
  <path
     d="m 375.4,24.226 c -6.8793,0 -13.174,2.8155 -17.663,7.3308 -4.5154,4.4888 -7.3308,10.783 -7.3308,17.663 0,6.8793 2.8155,13.174 7.3308,17.663 4.3825,4.3825 10.571,7.3308 17.769,7.3308 7.4371,0 13.572,-3.3201 17.716,-7.4635 5.2324,-6.0028 5.4715,-12.404 5.4715,-12.404 l -16.919,0 c 0,0 -2.3374,5.8965 -6.3746,5.8965 -1.6999,0 -3.1342,-1.2218 -4.2498,-3.2936 -0.77027,-1.4343 -1.3015,-3.1342 -1.567,-5.0997 l 29.456,0 c 0,0 2.0186,-12.032 -6.0559,-20.159 -4.6747,-4.7279 -10.651,-7.4636 -17.583,-7.4636 m -5.4981,20.532 c 0.3453,-1.4609 0.79683,-2.7358 1.2483,-3.692 0.84993,-1.8327 2.5498,-3.2936 4.2498,-3.2936 1.6999,0 3.1076,1.1952 4.3028,3.3467 0.50466,0.92964 0.95619,2.5498 1.1686,3.6123 l -10.97,0.02659 z"
     id="path18"
     inkscape:connector-curvature="0"
     style="fill:#f58113;fill-rule:nonzero;fill-opacity:1" />
  <path
     d="m 233.62,0 c -5.259,0 -9.4822,4.2498 -9.4822,9.4822 l 0.0266,62.578 18.964,0 -0.03,-62.578 c 0,-5.2324 -4.25,-9.4822 -9.48,-9.4822"
     id="path20"
     inkscape:connector-curvature="0"
     style="fill:#f58113;fill-rule:nonzero;fill-opacity:1" />
  <path
     d="m 270.74,24.236 c -13.812,0 -24.994,11.182 -24.994,24.994 0,13.812 11.182,24.994 24.994,24.994 13.812,0 24.994,-11.182 24.994,-24.994 0,-13.812 -11.182,-24.994 -24.994,-24.994 m 0,36.255 c -3.3201,0 -6.0293,-5.0466 -6.0293,-11.262 0,-6.2152 2.7092,-11.262 6.0293,-11.262 3.3201,0 6.0293,5.0466 6.0293,11.262 0,6.2152 -2.7092,11.262 -6.0293,11.262"
     id="path22"
     inkscape:connector-curvature="0"
     style="fill:#f58113;fill-rule:nonzero;fill-opacity:1" />
  <path
     d="m 426.82,24.236 c -13.812,0 -24.994,11.182 -24.994,24.994 0,13.812 11.182,24.994 24.994,24.994 13.812,0 24.994,-11.182 24.994,-24.994 0,-13.812 -11.182,-24.994 -24.994,-24.994 m 0,36.255 c -3.3201,0 -6.0294,-5.0466 -6.0294,-11.262 0,-6.2152 2.7092,-11.262 6.0294,-11.262 3.3201,0 6.0293,5.0466 6.0293,11.262 0,6.2152 -2.7092,11.262 -6.0293,11.262"
     id="path24"
     inkscape:connector-curvature="0"
     style="fill:#f58113;fill-rule:nonzero;fill-opacity:1" />
  <path
     d="m 348,49.234 0.0531,0.02659 -0.0266,-39.788 c -0.0266,-5.2324 -4.2763,-9.4822 -9.5088,-9.4556 -5.2325,0 -9.4822,4.2232 -9.4822,9.4822 l 0,15.512 c -1.939,-0.47809 -3.9575,-0.7437 -6.0293,-0.7437 -6.8793,0 -13.174,2.8155 -17.663,7.3308 -4.5153,4.4888 -7.3308,10.783 -7.3308,17.663 0,6.8527 2.8155,13.174 7.3308,17.663 2.8686,2.8952 9.0573,7.3308 17.663,7.3308 8.6323,0 14.794,-4.4356 17.663,-7.3308 4.5153,-4.4888 7.3308,-10.81 7.3308,-17.663 l 0,-0.02659 z m -24.994,11.262 c -3.3201,0 -6.0028,-5.0466 -6.0028,-11.262 0,-6.2152 2.6826,-11.262 6.0028,-11.262 3.3201,0 6.0293,5.0466 6.0293,11.262 0,6.2152 -2.7092,11.262 -6.0293,11.262"
     id="path26"
     inkscape:connector-curvature="0"
     style="fill:#f58113;fill-rule:nonzero;fill-opacity:1" />
  <path
     d="m 175.56,68.744 c 0,-0.63746 -0.18593,-1.2218 -0.50466,-1.7264 l -10.385,-15.724 7.198,-13.041 c 2.6561,-4.5153 1.1686,-10.333 -3.3467,-13.015 -4.5153,-2.6561 -10.333,-1.1421 -12.988,3.3733 l -8.6057,15.352 0,-10.253 c 0,-5.2325 -4.2498,-9.4822 -9.4822,-9.4822 -5.2324,0 -9.4822,4.2498 -9.4822,9.4822 l 0,38.354 18.964,0 0,-15.007 10.013,15.007 15.325,-0.0266 c 1.8061,0 3.2936,-1.4609 3.2936,-3.2936"
     id="path28"
     inkscape:connector-curvature="0"
     style="fill:#f58113;fill-rule:nonzero;fill-opacity:1" />
  <path
     d="m 552.88,62.241 0,-14.264 -13.307,0 0,14.264 -8.2339,0 0,-34.104 8.2339,0 0,12.909 13.307,0 0,-12.909 8.2339,0 0,34.104 -8.2339,0 z"
     id="path30"
     inkscape:connector-curvature="0"
     style="fill:#ffffff;fill-rule:nonzero" />
  <path
     d="m 591.42,45.09 c 0,-1.939 -0.31872,-3.5326 -0.92963,-4.7809 -0.63746,-1.2749 -1.4609,-2.2842 -2.5232,-3.0545 -1.0359,-0.74371 -2.2311,-1.2749 -3.5591,-1.5936 -1.328,-0.34529 -2.7092,-0.50465 -4.1169,-0.50465 l -4.0904,0 0,19.947 3.9044,0 c 1.4609,0 2.8952,-0.15936 4.2498,-0.50465 1.3812,-0.3453 2.5764,-0.87652 3.6123,-1.6467 1.0625,-0.79682 1.8858,-1.8061 2.5232,-3.081 0.61091,-1.3015 0.92964,-2.8952 0.92964,-4.7809 m 8.5792,0 c 0,3.0013 -0.55779,5.5512 -1.6733,7.7292 -1.1156,2.178 -2.5764,3.9575 -4.3825,5.3387 -1.8061,1.4077 -3.8514,2.4436 -6.1356,3.1076 -2.2842,0.63747 -4.595,0.98275 -6.9324,0.98275 l -12.717,0 0,-34.103 12.325,0 c 2.4171,0 4.7809,0.2656 7.1448,0.82338 2.3374,0.55779 4.4356,1.514 6.2418,2.8155 1.8327,1.2749 3.3202,3.0279 4.4356,5.2059 1.1422,2.2045 1.6999,4.8872 1.6999,8.1011"
     id="path32"
     inkscape:connector-curvature="0"
     style="fill:#ffffff;fill-rule:nonzero" />
  <path
     style="color:#000000;text-indent:0;text-align:start;text-transform:none;direction:ltr;block-progression:tb;baseline-shift:baseline;fill:#ffffff;enable-background:accumulate"
     d="m 530.82,18.546 0,7.0876 67.771,0 0,-7.0876 -67.771,0 z"
     id="path34"
     inkscape:connector-curvature="0" />
  <path
     style="color:#000000;text-indent:0;text-align:start;text-transform:none;direction:ltr;block-progression:tb;baseline-shift:baseline;fill:#ffffff;enable-background:accumulate"
     d="m 530.82,65.121 0,7.0876 67.771,0 0,-7.0876 -67.771,0 z"
     id="path36"
     inkscape:connector-curvature="0" />
</svg>
