<svg version="1.1" viewBox="0 0 181.45 103.45" xmlns="http://www.w3.org/2000/svg">
 <path d="m0 51.82v-51.63h181.41v103.26h-181.41v-51.63z" fill="#008440"/>
 <path d="m0 51.82zm145.24 46.459c0.74902-0.188 0.75417-0.21617 0.53438-2.9233-0.12206-1.5034-0.2774-2.829-0.34521-2.9458-0.0678-0.11676-0.86287-0.13603-1.7668-0.0428-1.3458 0.13877-1.7857 0.0544-2.4282-0.4657l-0.78465-0.63517v-12.454l5.1788-0.1824v-6.2264l-5.1788-0.1823-0.31386-9.838-8.6312 4.7154v5.2796h-3.4524v6.2772h3.3682l0.17281 7.2973c0.095 4.0135 0.33131 7.8226 0.52503 8.4645 0.76338 2.5298 2.7549 4.0007 5.8207 4.299 1.8385 0.17889 5.7894-0.0576 7.3014-0.43716zm-44.496-0.34821c8.831-2.6295 16.749-10.992 23.897-25.239 3.2669-6.5112 8.3832-19.765 8.0341-20.812-0.0595-0.17849-0.3004 0.15881-0.53534 0.74955s-1.4376 3.1926-2.6725 5.782c-5.1434 10.784-11.081 19.886-17.251 26.445-2.8646 3.045-4.9524 4.4705-6.5477 4.4705-1.7953 0-2.2264-0.92761-2.0102-4.326 0.1594-2.5064 0.76589-4.5123 7.2328-23.922 3.8823-11.652 7.3877-22.669 7.7897-24.481 0.98505-4.4413 1.0576-12.251 0.14293-15.379-1.1608-3.9696-2.6519-6.5535-5.3611-9.2899-3.0399-3.0705-5.2855-4.2661-9.7513-5.1919-8.771-1.8184-17.502 1.5866-25.574 9.9732-6.2012 6.4431-12.025 15.626-16.644 26.241-0.84564 1.9437-1.7169 3.534-1.9362 3.534-0.21924 0-0.36511-0.17118-0.32414-0.38039 1.6215-8.2806 1.7397-9.2338 1.8792-15.156 0.12547-5.324 0.06018-6.5287-0.50183-9.2589-0.90844-4.4133-2.6628-7.8639-5.3477-10.519-3.628-3.5871-7.4919-5.0176-13.553-5.0176-7.954 0-14.326 2.7431-20.396 8.78-4.5242 4.4998-8.2227 10.186-11.115 17.089-1.4116 3.3693-3.373 8.9997-3.1966 9.1762 0.055593 0.0556 0.57027-0.99215 1.1437-2.3283 5.2005-12.117 12.778-21.95 18.351-23.814 1.962-0.65618 4.4597-0.66438 5.7082-0.0187 1.3074 0.67608 2.7856 2.4157 3.296 3.8788 0.7367 2.1121 0.49164 6.6687-0.59646 11.091-2.6294 10.685-10.448 36.276-19.058 62.38l-1.9929 6.0418 32.436-8e-3 1.3701-5.7236c2.1861-9.1328 5.5092-20.418 8.5708-29.106 8.008-22.726 19.581-42.819 26.912-46.726 3.3747-1.7987 6.3278-1.637 8.1574 0.44674 1.7963 2.0459 1.9916 5.0115 0.63751 9.6801-1.2875 4.439-5.7637 17.818-9.1476 27.341-1.9015 5.3514-3.8765 10.93-4.3889 12.398-2.9866 8.5526-3.1451 16.353-0.44307 21.805 1.2968 2.6166 3.6548 5.3556 5.7898 6.7257 1.7888 1.1478 5.9776 2.7401 8.314 3.1602 2.173 0.39078 6.5564 0.1442 8.6807-0.48831zm66.634-0.22592c0.0808-0.20614 2.3527-5.8521 5.0486-12.547 2.696-6.6945 4.9018-12.313 4.9018-12.485 0-0.19718-1.5898-0.28075-4.2948-0.22575l-4.2948 0.0873-1.8248 6.1203c-3.2415 10.872-3.5019 11.66-3.7155 11.24-0.11509-0.22626-1.3182-4.2601-2.6736-8.9641l-2.4644-8.5528h-4.5234c-4.1784 0-4.5075 0.0419-4.3145 0.54926 2.0465 5.3806 9.7422 24.8 9.9191 25.031 0.35596 0.4629 8.0484 0.22667 8.2364-0.25294z" fill="#fff"/>
</svg>
