<?xml version="1.0" encoding="UTF-8" standalone="no"?>
<svg
   xmlns:dc="http://purl.org/dc/elements/1.1/"
   xmlns:cc="http://creativecommons.org/ns#"
   xmlns:rdf="http://www.w3.org/1999/02/22-rdf-syntax-ns#"
   xmlns:svg="http://www.w3.org/2000/svg"
   xmlns="http://www.w3.org/2000/svg"
   xmlns:sodipodi="http://sodipodi.sourceforge.net/DTD/sodipodi-0.dtd"
   xmlns:inkscape="http://www.inkscape.org/namespaces/inkscape"
   width="324.84961pt"
   height="151.64pt"
   viewBox="0 0 324.84961 151.64"
   version="1.1"
   id="svg2"
   inkscape:version="0.91 r13725"
   sodipodi:docname="OH TV - Dark.svg">
  <metadata
     id="metadata18">
    <rdf:RDF>
      <cc:Work
         rdf:about="">
        <dc:format>image/svg+xml</dc:format>
        <dc:type
           rdf:resource="http://purl.org/dc/dcmitype/StillImage" />
        <dc:title></dc:title>
      </cc:Work>
    </rdf:RDF>
  </metadata>
  <defs
     id="defs16" />
  <sodipodi:namedview
     pagecolor="#ffffff"
     bordercolor="#666666"
     borderopacity="1"
     objecttolerance="10"
     gridtolerance="10"
     guidetolerance="10"
     inkscape:pageopacity="0"
     inkscape:pageshadow="2"
     inkscape:window-width="1920"
     inkscape:window-height="1017"
     id="namedview14"
     showgrid="false"
     fit-margin-top="0"
     fit-margin-left="0"
     fit-margin-right="0"
     fit-margin-bottom="0"
     inkscape:zoom="1.9989865"
     inkscape:cx="163.41147"
     inkscape:cy="162.42168"
     inkscape:window-x="-8"
     inkscape:window-y="-8"
     inkscape:window-maximized="1"
     inkscape:current-layer="svg2" />
  <g
     id="#4c2d7bff"
     transform="translate(-0.76,-0.71)">
    <path
       d="m 132.49,8.95 47.68,-8.24 32.24,25.27 0.15,100.65 -32.29,25.72 -47.64,-8.15 -0.08,-15.9 -30.39489,10.18228 L 68.49,132.73 l 0.15,-8.6 c -10.27,1.27 -20.2,4.62 -30.49,5.85 -2.25,0.3 -4.46,-0.39 -6.67,-0.7 C 21.04,126.61 13,118.34 8.34,108.91 3.06,98.82 1.04,87.37 0.76,76.08 1.51,61.04 5.38,45.17 15.97,33.93 c 5.85,-6.35 14.43,-10.8 23.2,-10.15 9.89,1.64 19.59,4.28 29.46,6.01 l -0.1,-9.3 33.6,-5.95 30.38,10.28 -0.02,-15.87 m 4.68,3.71 0,34.13 -34.88,2.93 -0.06,-30.73 -28.84,4.76 -0.04,105.28 28.93,4.85 -0.05,-30.68 34.96,2.6 0.1,34.25 42.48,7.23 -0.03,-141.99 -42.57,7.37 M 31.62,28.96 C 24.44,31.08 18.63,36.46 14.73,42.72 7.05,54.89 4.62,69.81 5.96,83.98 c 1.29,12.49 5.66,25.33 14.91,34.18 5.85,5.73 14.75,8.87 22.75,6.26 9.65,-2.96 16.32,-11.56 20.34,-20.43 C 70.21,89.62 71.01,73.1 67.01,58.02 64.25,48.4 59.44,38.78 51.16,32.78 45.65,28.64 38.29,27 31.62,28.96 Z"
       id="path5"
       inkscape:connector-curvature="0"
       style="opacity:1;fill:#4c2d7b"
       sodipodi:nodetypes="ccccccccccccccccccccccccccccccccccccccccccc" />
    <path
       d="m 219.5,27.6496 63.87,-0.0196 12.6148,38.61 12.7248,-38.5696 16.9,0.0296 -20.28,55.44 -18.6896,0 -15.4,-41.9 -17.76,0 -0.03,41.9 -16.78,0 0.09,-41.9 -17.27,0 z"
       id="path7"
       inkscape:connector-curvature="0"
       style="opacity:1;fill:#4c2d7b"
       sodipodi:nodetypes="cccccccccccccc" />
  </g>
  <g
     id="#ffffffff"
     transform="translate(-0.76,-0.71)">
    <path
       d="m 137.17,12.66 42.57,-7.37 0.03,141.99 -42.48,-7.23 -0.1,-34.25 -34.96,-2.6 0.05,30.68 -28.93,-4.85 0.04,-105.28 28.84,-4.76 0.06,30.73 34.88,-2.93 z"
       id="path10"
       inkscape:connector-curvature="0"
       style="opacity:1;fill:#ffffff"
       sodipodi:nodetypes="ccccccccccccc" />
    <path
       d="m 31.62,28.96 c 6.67,-1.96 14.03,-0.32 19.54,3.82 8.28,6 13.09,15.62 15.85,25.24 4,15.08 3.2,31.6 -3.05,45.97 -4.02,8.87 -10.69,17.47 -20.34,20.43 -8,2.61 -16.9,-0.53 -22.75,-6.26 C 11.62,109.31 7.25,96.47 5.96,83.98 4.62,69.81 7.05,54.89 14.73,42.72 18.63,36.46 24.44,31.08 31.62,28.96 Z"
       id="path12"
       inkscape:connector-curvature="0"
       style="opacity:1;fill:#ffffff" />
  </g>
</svg>
