<?xml version="1.0" encoding="UTF-8"?>
<svg id="svg2" width="639pt" height="205pt" version="1.1" viewBox="0 0 639 205" xmlns="http://www.w3.org/2000/svg" xmlns:cc="http://creativecommons.org/ns#" xmlns:dc="http://purl.org/dc/elements/1.1/" xmlns:rdf="http://www.w3.org/1999/02/22-rdf-syntax-ns#">
 <metadata id="metadata29">
  <rdf:RDF>
   <cc:Work rdf:about="">
    <dc:format>image/svg+xml</dc:format>
    <dc:type rdf:resource="http://purl.org/dc/dcmitype/StillImage"/>
    <dc:title/>
   </cc:Work>
  </rdf:RDF>
 </metadata>
 <g id="#49562bff" fill="#fff">
  <path id="path5" d="m29.41 0h8.93c12.93 0.91 26.62 5.03 35.1 15.42 10.02 12.12 11.28 28.82 9.99 43.88-5.63-16.23-16.32-30.57-30.01-40.92 0.35-2.86-0.49-6.41-3.72-7.13-4.28-1.44-8.32 4.1-5.62 7.73 1.62 2.78 5.18 2.62 7.74 1.37 13.08 10.21 22.56 24.85 26.81 40.87-16.15-2.65-30.6-13.01-38.7-27.16-3.75-5.79-5.18-12.85-9.7-18.16-4.87-5.98-11.51-10.15-18.37-13.49 5.78-1.22 11.65-2.03 17.55-2.41z"/>
  <path id="path7" d="m120.92 18.11c11.55-0.29 24.62-0.93 33.61-9.16-1.34 15.87-8.07 31.81-20.56 42.08-10.76 9.01-24.92 12.86-38.73 13.43 6.79-12.78 17.09-23.78 29.74-30.88 2.65 2.43 7.4 1.8 8.66-1.77 1.76-3.91-2.78-8.42-6.68-6.59-2.6 0.89-3.3 3.75-3.35 6.2-13.37 7.25-24.58 18.17-32.74 30.95-0.42-11.51 1.16-23.84 7.89-33.51 4.92-7.13 13.62-10.89 22.16-10.75z"/>
  <path id="path9" d="m7.9 87.98c8.22-11.45 22.12-18.36 36.16-18.46 21.96-0.04 43.93-0.03 65.89-0.01 11.93 0.03 23.81 4.84 32.2 13.34 7.66 7.62 12.28 18.27 12.28 29.11 0.02 14.34-0.01 28.69 0.02 43.03 0.13 5.76-0.14 11.63-2.04 17.13-4.34 13.49-15.89 24.14-29.42 28.06-5.81 1.84-11.95 2.06-17.99 1.95-20.01-0.02-40.01 0-60.02-0.01-10.93 0.08-21.87-3.8-30.16-10.96-8.31-6.98-13.53-17.21-14.82-27.95v-54.4c0.87-7.45 3.41-14.77 7.9-20.83m36.65 1.73c-13.07 2.62-24.82 13.58-25.81 27.28-0.26 11.98-0.06 23.97-0.1 35.95-0.02 8.89 4.64 17.42 11.62 22.79 6.43 5.02 14.62 7.58 22.75 7.51 16.31 0.01 32.61 0.02 48.92 0 9.03-0.03 18.12-3.37 24.68-9.63 5.6-5.31 9.16-12.84 9.18-20.59 0.06-11.01 0.01-22.02 0.02-33.03 0.07-5.24-1.29-10.49-4-14.98-6.05-10.3-18.07-16.16-29.83-16.17-14-0.06-28-0.01-41.99-0.03-5.16 0.03-10.37-0.23-15.44 0.9m29.79 98.54c-3.33 1.98-3.07 7.44 0.46 9.08 3.49 2.05 8.3-1.29 7.63-5.27-0.28-3.74-5.02-6.01-8.09-3.81z"/>
  <path id="path11" d="m442.88 82.25c30.67-0.01 61.33 0 91.99 0 0.01 4.87 0.01 9.75 0 14.62-12.6 0.02-25.2 0-37.8 0.01-0.02 35.08 0 70.16-0.02 105.24-5.45 0.01-10.9 0.01-16.35 0-0.02-35.08 0-70.16-0.01-105.23-12.61-0.03-25.21 0-37.81-0.02-0.01-4.87-0.01-9.74 0-14.62z"/>
  <path id="path13" d="m537.24 82.26c5.63-0.02 11.26-0.01 16.89-0.01 11.52 33.37 22.93 66.79 34.47 100.15 11.16-33.37 22.23-66.78 33.41-100.15h16.99v0.3c-14.12 39.83-28.02 79.73-42.09 119.57-5.68 0.01-11.36 0-17.04 0-14.24-39.94-28.42-79.91-42.63-119.86z"/>
  <path id="path15" d="m175.06 85.06c5.51 0 11.01-0.01 16.51 0.02-0.03 34.87 0.02 69.75-0.03 104.62 3.19 0.05 6.38 0.06 9.58 0.06 0.01 5.08 0 10.16 0 15.24h-26.02c-0.09-39.98-0.02-79.96-0.04-119.94z"/>
  <path id="path17" d="m213.18 85.07c4.9-0.02 9.8-0.01 14.7 0-0.01 5.58 0 11.16-0.01 16.74-4.89 0.01-9.79 0.01-14.68 0-0.01-5.58 0-11.16-0.01-16.74z"/>
  <path id="path19" d="m345.62 115.61c8.49-3.97 18.28-4.23 27.37-2.57 9.21 1.73 17.65 7.33 22.5 15.38 6.31 10.22 7.16 22.69 6.52 34.4-20.98 0-41.96-0.02-62.94 0.01 0.26 7.92 2.03 16.41 7.84 22.21 6.88 6.91 18.03 8.02 26.91 4.82 6.85-2.46 11.3-9.02 12.72-15.96 4.83-0.05 9.67-0.03 14.5-0.01-1.41 8.2-5.04 16.23-11.4 21.76-7.02 6.4-16.62 9.15-25.96 9.35h-3.89c-7.26-0.68-14.6-2.71-20.4-7.3-9.25-7.05-14.11-18.53-15.23-29.88-1.01-10.79-0.45-22 3.5-32.2 3.31-8.53 9.57-16.12 17.96-20.01m5.39 12.44c-8.05 4.38-11.3 13.87-11.98 22.51 15.92 0 31.85 0.02 47.78-0.01 0-8.29-2.7-17.52-10.2-22.04-7.68-4.4-17.75-4.5-25.6-0.46z"/>
  <path id="path21" d="m213.19 117.76c4.89-0.02 9.79-0.02 14.68 0 0 29.08 0.04 58.16-0.02 87.24h-14.63c-0.08-29.08-0.02-58.16-0.03-87.24z"/>
  <path id="path23" d="m240.01 117.76c5.26-0.01 10.52-0.02 15.78 0 8.1 23.22 16.16 46.46 24.28 69.67 7.94-23.22 15.78-46.47 23.74-69.68 5.24 0 10.49-0.01 15.74 0.01-10.6 29.09-21.19 58.18-31.85 87.24h-15.45c-10.89-29.02-21.48-58.17-32.24-87.24z"/>
 </g>
</svg>
