<?xml version="1.0" encoding="UTF-8" standalone="no"?>
<svg
   xmlns:dc="http://purl.org/dc/elements/1.1/"
   xmlns:cc="http://creativecommons.org/ns#"
   xmlns:rdf="http://www.w3.org/1999/02/22-rdf-syntax-ns#"
   xmlns:svg="http://www.w3.org/2000/svg"
   xmlns="http://www.w3.org/2000/svg"
   xmlns:sodipodi="http://sodipodi.sourceforge.net/DTD/sodipodi-0.dtd"
   xmlns:inkscape="http://www.inkscape.org/namespaces/inkscape"
   width="639pt"
   height="205pt"
   viewBox="0 0 639 205"
   version="1.1"
   id="svg2"
   inkscape:version="0.91 r13725"
   sodipodi:docname="Olive TV - Dark.svg">
  <metadata
     id="metadata29">
    <rdf:RDF>
      <cc:Work
         rdf:about="">
        <dc:format>image/svg+xml</dc:format>
        <dc:type
           rdf:resource="http://purl.org/dc/dcmitype/StillImage" />
        <dc:title></dc:title>
      </cc:Work>
    </rdf:RDF>
  </metadata>
  <defs
     id="defs27" />
  <sodipodi:namedview
     pagecolor="#ffffff"
     bordercolor="#666666"
     borderopacity="1"
     objecttolerance="10"
     gridtolerance="10"
     guidetolerance="10"
     inkscape:pageopacity="0"
     inkscape:pageshadow="2"
     inkscape:window-width="1920"
     inkscape:window-height="1017"
     id="namedview25"
     showgrid="false"
     fit-margin-top="0"
     fit-margin-left="0"
     fit-margin-right="0"
     fit-margin-bottom="0"
     inkscape:zoom="1.0198272"
     inkscape:cx="375.09955"
     inkscape:cy="140.34059"
     inkscape:window-x="-8"
     inkscape:window-y="-8"
     inkscape:window-maximized="1"
     inkscape:current-layer="svg2" />
  <g
     id="#49562bff">
    <path
       d="m 29.41,0 8.93,0 C 51.27,0.91 64.96,5.03 73.44,15.42 83.46,27.54 84.72,44.24 83.43,59.3 77.8,43.07 67.11,28.73 53.42,18.38 c 0.35,-2.86 -0.49,-6.41 -3.72,-7.13 -4.28,-1.44 -8.32,4.1 -5.62,7.73 1.62,2.78 5.18,2.62 7.74,1.37 C 64.9,30.56 74.38,45.2 78.63,61.22 62.48,58.57 48.03,48.21 39.93,34.06 36.18,28.27 34.75,21.21 30.23,15.9 25.36,9.92 18.72,5.75 11.86,2.41 17.64,1.19 23.51,0.38 29.41,0 Z"
       id="path5"
       inkscape:connector-curvature="0"
       style="opacity:1;fill:#49562b" />
    <path
       d="m 120.92,18.11 c 11.55,-0.29 24.62,-0.93 33.61,-9.16 -1.34,15.87 -8.07,31.81 -20.56,42.08 -10.76,9.01 -24.92,12.86 -38.73,13.43 6.79,-12.78 17.09,-23.78 29.74,-30.88 2.65,2.43 7.4,1.8 8.66,-1.77 1.76,-3.91 -2.78,-8.42 -6.68,-6.59 -2.6,0.89 -3.3,3.75 -3.35,6.2 -13.37,7.25 -24.58,18.17 -32.74,30.95 -0.42,-11.51 1.16,-23.84 7.89,-33.51 4.92,-7.13 13.62,-10.89 22.16,-10.75 z"
       id="path7"
       inkscape:connector-curvature="0"
       style="opacity:1;fill:#49562b" />
    <path
       d="m 7.9,87.98 c 8.22,-11.45 22.12,-18.36 36.16,-18.46 21.96,-0.04 43.93,-0.03 65.89,-0.01 11.93,0.03 23.81,4.84 32.2,13.34 7.66,7.62 12.28,18.27 12.28,29.11 0.02,14.34 -0.01,28.69 0.02,43.03 0.13,5.76 -0.14,11.63 -2.04,17.13 -4.34,13.49 -15.89,24.14 -29.42,28.06 -5.81,1.84 -11.95,2.06 -17.99,1.95 -20.01,-0.02 -40.01,0 -60.02,-0.01 C 34.05,202.2 23.11,198.32 14.82,191.16 6.51,184.18 1.29,173.95 0,163.21 l 0,-54.4 C 0.87,101.36 3.41,94.04 7.9,87.98 m 36.65,1.73 c -13.07,2.62 -24.82,13.58 -25.81,27.28 -0.26,11.98 -0.06,23.97 -0.1,35.95 -0.02,8.89 4.64,17.42 11.62,22.79 6.43,5.02 14.62,7.58 22.75,7.51 16.31,0.01 32.61,0.02 48.92,0 9.03,-0.03 18.12,-3.37 24.68,-9.63 5.6,-5.31 9.16,-12.84 9.18,-20.59 0.06,-11.01 0.01,-22.02 0.02,-33.03 0.07,-5.24 -1.29,-10.49 -4,-14.98 -6.05,-10.3 -18.07,-16.16 -29.83,-16.17 -14,-0.06 -28,-0.01 -41.99,-0.03 -5.16,0.03 -10.37,-0.23 -15.44,0.9 m 29.79,98.54 c -3.33,1.98 -3.07,7.44 0.46,9.08 3.49,2.05 8.3,-1.29 7.63,-5.27 -0.28,-3.74 -5.02,-6.01 -8.09,-3.81 z"
       id="path9"
       inkscape:connector-curvature="0"
       style="opacity:1;fill:#49562b" />
    <path
       d="m 442.88,82.25 c 30.67,-0.01 61.33,0 91.99,0 0.01,4.87 0.01,9.75 0,14.62 -12.6,0.02 -25.2,0 -37.8,0.01 -0.02,35.08 0,70.16 -0.02,105.24 -5.45,0.01 -10.9,0.01 -16.35,0 -0.02,-35.08 0,-70.16 -0.01,-105.23 -12.61,-0.03 -25.21,0 -37.81,-0.02 -0.01,-4.87 -0.01,-9.74 0,-14.62 z"
       id="path11"
       inkscape:connector-curvature="0"
       style="opacity:1;fill:#49562b" />
    <path
       d="m 537.24,82.26 c 5.63,-0.02 11.26,-0.01 16.89,-0.01 11.52,33.37 22.93,66.79 34.47,100.15 11.16,-33.37 22.23,-66.78 33.41,-100.15 5.66,0 11.32,0 16.99,0 l 0,0.3 c -14.12,39.83 -28.02,79.73 -42.09,119.57 -5.68,0.01 -11.36,0 -17.04,0 -14.24,-39.94 -28.42,-79.91 -42.63,-119.86 z"
       id="path13"
       inkscape:connector-curvature="0"
       style="opacity:1;fill:#49562b" />
    <path
       d="m 175.06,85.06 c 5.51,0 11.01,-0.01 16.51,0.02 -0.03,34.87 0.02,69.75 -0.03,104.62 3.19,0.05 6.38,0.06 9.58,0.06 0.01,5.08 0,10.16 0,15.24 l -26.02,0 c -0.09,-39.98 -0.02,-79.96 -0.04,-119.94 z"
       id="path15"
       inkscape:connector-curvature="0"
       style="opacity:1;fill:#49562b" />
    <path
       d="m 213.18,85.07 c 4.9,-0.02 9.8,-0.01 14.7,0 -0.01,5.58 0,11.16 -0.01,16.74 -4.89,0.01 -9.79,0.01 -14.68,0 -0.01,-5.58 0,-11.16 -0.01,-16.74 z"
       id="path17"
       inkscape:connector-curvature="0"
       style="opacity:1;fill:#49562b" />
    <path
       d="m 345.62,115.61 c 8.49,-3.97 18.28,-4.23 27.37,-2.57 9.21,1.73 17.65,7.33 22.5,15.38 6.31,10.22 7.16,22.69 6.52,34.4 -20.98,0 -41.96,-0.02 -62.94,0.01 0.26,7.92 2.03,16.41 7.84,22.21 6.88,6.91 18.03,8.02 26.91,4.82 6.85,-2.46 11.3,-9.02 12.72,-15.96 4.83,-0.05 9.67,-0.03 14.5,-0.01 -1.41,8.2 -5.04,16.23 -11.4,21.76 -7.02,6.4 -16.62,9.15 -25.96,9.35 l -3.89,0 c -7.26,-0.68 -14.6,-2.71 -20.4,-7.3 -9.25,-7.05 -14.11,-18.53 -15.23,-29.88 -1.01,-10.79 -0.45,-22 3.5,-32.2 3.31,-8.53 9.57,-16.12 17.96,-20.01 m 5.39,12.44 c -8.05,4.38 -11.3,13.87 -11.98,22.51 15.92,0 31.85,0.02 47.78,-0.01 0,-8.29 -2.7,-17.52 -10.2,-22.04 -7.68,-4.4 -17.75,-4.5 -25.6,-0.46 z"
       id="path19"
       inkscape:connector-curvature="0"
       style="opacity:1;fill:#49562b" />
    <path
       d="m 213.19,117.76 c 4.89,-0.02 9.79,-0.02 14.68,0 0,29.08 0.04,58.16 -0.02,87.24 l -14.63,0 c -0.08,-29.08 -0.02,-58.16 -0.03,-87.24 z"
       id="path21"
       inkscape:connector-curvature="0"
       style="opacity:1;fill:#49562b" />
    <path
       d="m 240.01,117.76 c 5.26,-0.01 10.52,-0.02 15.78,0 8.1,23.22 16.16,46.46 24.28,69.67 7.94,-23.22 15.78,-46.47 23.74,-69.68 5.24,0 10.49,-0.01 15.74,0.01 -10.6,29.09 -21.19,58.18 -31.85,87.24 l -15.45,0 c -10.89,-29.02 -21.48,-58.17 -32.24,-87.24 z"
       id="path23"
       inkscape:connector-curvature="0"
       style="opacity:1;fill:#49562b" />
  </g>
</svg>
