<svg height="38.730598" viewBox="0 0 198.17983 38.730599" width="198.17982" xmlns="http://www.w3.org/2000/svg"><g fill="#fff" transform="matrix(1.25 0 0 -1.25 -53.721793 263.18484)"><path d="m51.411855 194.11605v-8.63108q0-2.79691.611823-3.47428.830331-.96144 2.512845-.96144h1.136243v-.80848h-12.695332v.80848h1.114393q1.879171 0 2.687652 1.22365.437016.67737.437016 3.21207v19.14133q0 2.7969-.589972 3.47428-.852183.96143-2.534696.96143h-1.114393v.80848h10.859863q3.976851 0 6.271188-.83033 2.294337-.80848 3.867597-2.7532 1.57326-1.94473 1.57326-4.61053 0-3.62723-2.403592-5.89972-2.38174-2.27249-6.751906-2.27249-1.070691 0-2.316188.15296-1.245497.15295-2.665801.45887zm0 1.24549q1.158094-.2185 2.053978-.32776.895884-.10925 1.529558-.10925 2.272486 0 3.911298 1.74806 1.660663 1.76992 1.660663 4.56683 0 1.92287-.78663 3.56168-.786629 1.66067-2.228784 2.46915-1.442155.83033-3.277625.83033-1.114392 0-2.862458-.41517z"/><path d="m83.472966 190.16105h-11.471685l-2.010277-4.67608q-.742928-1.72622-.742928-2.5784 0-.67737.633674-1.20179.655525-.50257 2.796906-.65553v-.80848h-9.330304v.80848q1.85732.32776 2.403591.85218 1.114393 1.04884 2.469144 4.26091l10.422846 24.38553h.764779l10.313592-24.64774q1.245497-2.97171 2.250635-3.86759 1.026989-.87404 2.840608-.98329v-.80848h-11.690194v.80848q1.769917.0874 2.38174.58997.633675.50257.633675 1.22365 0 .96144-.874034 3.03726zm-.611823 1.61696-5.025691 11.97425-5.156796-11.97425z"/><path d="m121.30689 209.87049v-.80848q-1.57326-.28406-2.38174-1.00513-1.15809-1.07069-2.05398-3.27763l-10.33544-25.21586h-.80848l-11.100223 25.54362q-.852183 1.96658-1.201796 2.4036-.546271.67737-1.354752 1.04884-.786629.39331-2.141381.50256v.80848h12.105362v-.80848q-2.05398-.19665-2.665803-.69922-.611824-.50257-.611824-1.2892 0-1.09254 1.005139-3.40873l7.538538-17.37141 6.99226 17.1529q1.02699 2.5347 1.02699 3.51798 0 .63368-.63367 1.2018-.63368.58997-2.14138.83033-.10926.0219-.37147.0655v.80848h9.13365z"/><path d="m131.1978 208.25353v-11.71204h6.51155q2.53469 0 3.38687.76478 1.13625 1.00514 1.26736 3.53983h.80848v-10.31359h-.80848q-.30592 2.16323-.61183 2.77506-.39332.76478-1.2892 1.20179-.89588.43702-2.7532.43702h-6.51155v-9.76732q0-1.96658.1748-2.40359.17481-.41517.61183-.67738.43701-.24036 1.66066-.24036h5.02569q2.51285 0 3.6491.34961 1.13624.34962 2.18508 1.37661 1.35475 1.35475 2.77505 4.0861h.87404l-2.55655-7.42928h-22.83412v.80848h1.04884q1.04884 0 1.98842.50257.69923.34961.93959 1.04884.26221.69923.26221 2.86246v19.25058q0 2.81876-.56812 3.47428-.78663.87403-2.6221.87403h-1.04884v.80848h22.83412l.32776-6.48969h-.85218q-.45887 2.33804-1.02699 3.21207-.54627.87403-1.63881 1.3329-.87404.32776-3.08097.32776z"/><path d="m179.42976 180.24077h-7.91l-10.02954 13.85343q-1.11439-.0437-1.81361-.0437-.28407 0-.61183 0-.32776.0219-.67737.0437v-8.60923q0-2.79691.61182-3.47428.83033-.96144 2.49099-.96144h1.1581v-.80848h-12.69533v.80848h1.11439q1.87917 0 2.68765 1.22365.45887.67737.45887 3.21207v19.14133q0 2.7969-.61183 3.47428-.85218.96143-2.53469.96143h-1.11439v.80848h10.79431q4.71978 0 6.94856-.69922 2.25064-.67738 3.80204-2.5347 1.57326-1.83547 1.57326-4.39201 0-2.73136-1.79176-4.74163-1.76992-2.01028-5.50641-2.84061l6.11823-8.49998q2.09768-2.92801 3.60539-3.88944 1.5077-.96144 3.93315-1.22365zm-21.04235 15.23003q.41516 0 .72107-.0219.30592 0 .50257 0 4.23906 0 6.38045 1.83547 2.16323 1.83547 2.16323 4.67607 0 2.77506-1.74807 4.50128-1.72621 1.74806-4.58867 1.74806-1.26735 0-3.43058-.41516v-12.32387z"/><path d="m199.55472 210.54787v-10.24804h-.80848q-.39332 2.94986-1.42031 4.69793-1.00514 1.74807-2.88431 2.77506-1.87917 1.02698-3.88945 1.02698-2.27248 0-3.75834-1.39845-1.48586-1.3766-1.48586-3.14652 0-1.35475.93959-2.46914 1.35475-1.63881 6.446-4.37017 4.15165-2.22878 5.65936-3.43058 1.52956-1.17994 2.33804-2.7969.83033-1.61697.83033-3.38688 0-3.36503-2.6221-5.81232-2.60025-2.42545-6.7082-2.42545-1.2892 0-2.42545.19666-.67737.10926-2.81875.78663-2.11953.69923-2.68766.69923-.54627 0-.87403-.32776-.30591-.32777-.45887-1.35476h-.80848v10.16064h.80848q.56813-3.19022 1.52956-4.78533.96144-1.57326 2.92801-2.6221 1.98843-1.04884 4.34832-1.04884 2.73135 0 4.30461 1.44215 1.59511 1.44216 1.59511 3.40873 0 1.09254-.61182 2.20694-.58997 1.11439-1.85732 2.07583-.85218.65552-4.65423 2.77505-3.80204 2.14138-5.419 3.40873-1.59511 1.26735-2.42545 2.79691-.83033 1.52955-.83033 3.36502 0 3.19023 2.4473 5.48456 2.44729 2.31619 6.22748 2.31619 2.35989 0 5.00384-1.15809 1.22365-.54627 1.72622-.54627.56812 0 .91773.32776.37147.34961.58998 1.3766z"/></g></svg>