<svg height="1288.213" width="909.21448" xmlns="http://www.w3.org/2000/svg"><g fill="#ed802f" transform="matrix(10.257958 0 0 10.257958 -7.001105 -26.493276)"><path d="m43.109746 90.702367c.07849-.04712.527999-.137295.998918-.200387 5.865379-.78583 11.392953-2.859326 15.935119-5.977558 3.439597-2.361315 7.428914-6.381454 9.700234-9.775192 2.540458-3.795872 4.087763-8.17361 4.82524-13.651878.21785-1.618315.247893-7.156116.04747-8.752424-.401955-3.201596-1.233825-6.001865-2.5445-8.565416-.522901-1.022737-1.368651-2.411493-1.430774-2.349374-.01893.01894.0079.181433.05969.361102.166381.57754.562124 2.672368.717698 3.799101.238542 1.727657.288355 6.037913.09346 8.086478-.567909 5.969164-2.381611 11.617079-5.281764 16.447507-1.538619 2.562683-3.044873 4.488408-5.183518 6.627058-2.133689 2.133683-4.048367 3.632177-6.62706 5.186557-10.301335 6.209419-22.217892 6.793407-32.620462 1.598611-4.799087-2.396551-9.00044-6.155672-12.7534316-11.411011-.8534849-1.195145-2.8001666-4.353857-2.7278259-4.426205.022918-.02291.4862922.483669 1.0297226 1.12574 4.8654049 5.748538 10.5667719 9.72617 16.8614769 11.763629 10.075162 3.261109 20.432609.929431 29.122462-6.556076 5.479445-4.720033 9.053526-11.51804 10.101952-19.21419.200478-1.47168.230246-5.052654.05299-6.374047-.732254-5.458636-3.00797-9.242148-6.662421-11.076674-1.859052-.933243-3.804497-1.338138-6.08458-1.266353-2.256003.07102-3.557613.497576-5.428481 1.778955-1.683253 1.152883-2.689724 2.238608-4.574207 4.934419-.588334.841629-1.347654 1.856001-1.687382 2.254161-1.994458 2.337494-5.421831 3.842676-7.918641 3.477595-.786243-.114965-1.627865-.357567-1.62287-.467802.0016-.03433.261488-.210562.577612-.391638 1.218794-.698116 2.705222-2.49627 3.308083-4.001843.419146-1.046785.61795-1.855165 1.15142-4.682093.891035-4.721687 1.650593-7.080619 3.147837-9.776178 3.375154-6.076429 9.007148-10.389021 15.459282-11.837656 2.051102-.460513 3.149379-.568892 5.749667-.567381 2.591859.0015 3.854891.118655 6.045651.560753 6.231374 1.257502 11.899291 4.677623 16.090722 9.709427 4.193828 5.034699 6.927124 11.551052 7.739159 18.450689.173374 1.47307.224119 4.568176.09921 6.049776-.523985 6.214744-3.258765 13.862579-6.885418 19.255128-.245952.365712-.447182.622145-.447182.569851 0-.05229.230303-.693997.511779-1.426009 1.458325-3.792545 2.312229-7.160199 2.786125-10.988087.232909-1.881288.23408-6.538593.0021-8.28608-.83851-6.315998-3.474055-11.9122-7.669796-16.285676-.493561-.514466-.976628-.977807-1.073494-1.029646-.124056-.0664.0041.265738.433511 1.123791 5.090267 10.170621 6.059588 20.74892 2.866542 31.283048-1.96568 6.484973-5.139223 11.694984-9.719214 15.956049-5.324784 4.954-11.710638 7.818972-19.579666 8.784303-1.387345.170192-7.234106.298246-6.992425.153146z"/><path d="m29.02976 76.511521c-9.038732-.718928-16.285254-4.851149-21.6638745-12.353494-1.2883948-1.79711-3.0066192-5.000595-3.8612933-7.199049-2.2668682-5.830991-2.98150356-11.989679-2.0588079-17.742685.4103841-2.558761 1.4219454-6.136692 2.5148567-8.895126.5242131-1.323071 1.9001131-4.205331 2.620038-5.4885.5714952-1.018613 1.8135021-2.953941 1.8635717-2.903873.01857.01857-.2465139.778868-.5890666 1.689548-1.4606939 3.883225-2.3194303 7.349821-2.7209002 10.983902-.1952551 1.767385-.1667432 6.526212.048719 8.134046.4579515 3.417262 1.2823347 6.146699 2.7736335 9.183236.7989916 1.626867 2.1902456 3.838506 3.2299676 5.134587.721209.899031 2.272062 2.557625 2.629399 2.812074.274617.195543.2548.136727-.382453-1.135353-4.3343992-8.652309-5.6761933-17.907906-3.8978914-26.887506 1.8249854-9.215362 6.0774734-16.581781 12.5968114-21.820968 5.253347-4.2217889 11.294146-6.5962017 18.542827-7.2884931 1.433105-.1368698 6.336783-.2097892 6.219482-.0924859-.028636.0286425-.603013.1372882-1.276389.2414347-9.064209 1.4019017-15.962004 4.9763738-21.781985 11.2875313-3.57115 3.872534-5.554259 7.156621-6.966501 11.536771-2.165673 6.71694-2.258011 14.877163-.235221 20.787006.611537 1.786679 2.418237 5.375129 2.706249 5.375129.03463 0 .0023-.224756-.07193-.499459-.569925-2.110041-.897798-5.056211-.898093-8.069843-.000324-3.269707.258215-5.717155.917615-8.686765 2.038354-9.179612 7.031735-16.85475 14.231241-21.874291 5.185221-3.6151706 11.243411-5.8418461 17.278359-6.3506354 1.677592-.1414328 5.023035-.068872 6.677015.1448207 5.797462.7490277 11.348772 2.9927152 15.565909 6.2913217 3.76574 2.945534 7.024628 6.690778 9.731658 11.184027.53659.890648.95644 1.638532.932999 1.661966-.02343.02343-.442559-.440339-.931382-1.030605-1.058292-1.277896-3.975665-4.222177-5.178124-5.225886-5.204029-4.343875-10.607871-6.87647-16.645635-7.801243-1.615859-.247491-4.909586-.33886-6.581213-.182565-6.097433.570101-11.96033 3.113518-17.222401 7.471349-3.939323 3.262388-6.918867 7.49152-8.783514 12.467216-2.261026 6.033425-2.61374 12.490436-.954147 17.466953 1.740277 5.218421 5.56578 8.189101 10.848572 8.424412 2.796742.124574 4.69891-.470357 7.003156-2.190345 1.390732-1.038099 2.500473-2.325243 4.410156-5.115163 2.157882-3.152526 4.972471-4.978827 7.997584-5.189389.838939-.0584 2.158148.134689 2.63799.386107.221446.116025.213826.125968-.375222.489516-.74563.460194-1.911539 1.606529-2.452667 2.411504-.931762 1.386069-1.306204 2.534382-1.958107 6.005103-.728306 3.877454-1.208472 5.657373-2.100705 7.786996-1.752607 4.183193-4.921688 8.090966-8.645435 10.660615-2.946275 2.033137-6.497847 3.36853-10.263358 3.859027-1.386232.180571-4.135682.254568-5.481491.147524z"/><path d="m39.756968 50.437647c-.739979-.181915-1.318781-.430486-1.812512-.778399l-.265827-.187323.757389-.26226c.416568-.144244.964299-.383281 1.217187-.531194.541213-.316557 2.316091-2.014746 3.028738-2.89786 1.662446-2.06013 2.818489-2.795367 4.812758-3.060885 1.475696-.196476 3.304772.14528 4.367173.815988.442825.279567.493837.339401.332973.390577-1.642059.522364-2.281519.950447-3.757539 2.515432-2.613664 2.7712-3.148618 3.274097-3.82969 3.600148-.353464.169216-.910004.370699-1.236755.44774-.85788.202272-2.686699.175975-3.613895-.05196z"/></g><path d="m819.57617 1057.8047v50.5508h11.45899v-6.0664h59.3125v5.0566c0 2.7802.2781 5.0547.61718 5.0547.33903 0 3.06908-.9375 6.06641-2.082l5.44922-2.0801v-50.4336zm11.45899 12.1328h59.3125v20.2207h-59.3125z"/><path d="m900.45844 1050.2126c-.9995-.4938-2.58767-2.615-3.90375-5.2137-1.2203-2.4096-2.5113-4.4828-2.86893-4.6071-.35764-.1247-18.69057 1.5228-40.73988 3.6605-22.04938 2.1377-40.20404 3.756-40.34377 3.5962-.13978-.1601-.45321-2.7771-.69658-5.8162l-.44251-5.5257 7.86552-.8898 17.74918-21.8323c9.76206-12.0078 18.08302-21.82211 18.49107-21.80949.40801.0142 2.66376 1.55737 5.01276 3.43292l4.27095 3.41019-1.31062 1.45358c-5.31311 5.8929-27.15994 32.9744-26.85043 33.284.39589.396 52.41788-4.4575 52.92373-4.9375.54504-.5172-1.21707-3.4988-4.31685-7.3045-1.7312-2.1254-3.02294-3.9891-2.87055-4.1415.6596-.6596 7.31229 1.9436 11.96453 4.6818 10.14632 5.9718 14.80745 11.8783 14.82167 18.7818.009 4.3254-1.72823 8.4241-4.08755 9.6441-2.29413 1.1863-2.52242 1.1928-4.66801.1325z"/><path d="m594.81921 1107.4257 2.69604-2.3837-58.97588-.057v-111.88571h59.89834l-3.06904 9.09921-48.06717.3542v92.9964h50.55076v4.044c0 2.2243.0305 4.9199.0732 4.8936 1.35078-.8343 9.73035-11.8818 13.41961-19.3848 7.2508-14.7463 8.74953-23.9505 8.74953-53.7346v-20.7435h-6.7401v2.6077c0 5.6023-5.13225 23.4675-5.96998 25.8427-.0376.1069-7.85781-1.5364-8.85623-2.2341-.0783-.057.66604-2.2566 1.42904-4.6598 2.89056-9.1043 4.02364-16.2975 4.43054-28.1281l.39986-11.62667h9.24075v9.43617h12.49291c10.45821 0 12.76845-.1807 14.18475-1.1086 1.41818-.92915 2.11153-.98285 4.28576-.3316 2.11369.6334 2.86023 1.3438 4.03267 3.838 1.46826 3.1236 1.40976 3.6658-.64996 6.0272-.6467.7414-3.38137 7.2624-6.07694 14.4912-2.69557 7.2287-5.32596 13.5981-5.84535 14.1542-.82398.8823-.8992.7965-.59038-.6738.64776-3.0841 1.93711-25.5185 1.52792-26.5849-.30039-.7828-1.39453-1.0495-4.30578-1.0495h-3.90306l.2209 21.7369c.26086 25.6727.51329 27.0931 7.28625 41.0082 4.91845 10.1049 8.97337 16.5028 13.82065 21.8066l3.33905 3.6534-3.05941 4.4688c-1.68273 2.4579-3.05946 4.8145-3.05946 5.237 0 1.2477-5.30223-4.2376-8.23654-8.521-3.49043-5.095-7.18583-13.1492-9.93431-21.6518-1.19831-3.7071-2.44314-7.7688-2.68775-7.7512-.20007.014-.64613.6511-1.1841 2.6961-2.54263 9.6638-10.59206 22.8792-17.37665 28.5285-3.99041 3.3226-10.19669 6.6154-14.16446 7.5149l-2.02203.4584 2.69604-2.3836z"/><path d="m557.41211 1009.9512v30.33h35.04883v-30.33zm8.08789 6.7402h18.19727v15.502h-18.19727zm-12.80664 30.2949v.0039 40.4746h20.91406l.01563-40.4687zm24.93945 0v40.4707h20.91407v-40.4707zm-18.19922 8.1231h6.74024v24.2636h-6.74024zm24.9375 0h6.74024v24.2636h-6.74024z"/><path d="m778.13963 1051.1983-2.09333 1.9554c-2.54217 2.3747-6.22166 2.7024-7.31908.6518-.38378-.7171-.69771-3.3917-.69771-5.9438 0-4.8785-1.27941-10.2118-3.49143-14.5547-.72639-1.426-1.12945-2.784-.8957-3.0177.69559-.6958 7.69052 3.3671 11.21795 6.5156l3.27933 2.927v-45.95762h10.78417v116.60372h-10.78417v-59.1797z"/><path d="m706.85889 1106.1633-3.4967-3.5407 2.40487-3.0309c7.67866-9.6777 13.74509-24.9447 15.61149-39.2884.52781-4.0564.47383-4.5285-.47249-4.1361-2.65115 1.0991-3.30622.9935-4.6812-.7545-.79069-1.0052-1.75836-3.077-2.15037-4.6041-1.94148-7.5633-2.80968-9.8567-5.26132-13.8978-1.46186-2.4096-2.56764-4.4763-2.45737-4.5928.4158-.4393 9.66436 4.5873 12.68884 6.896l3.15215 2.406v-49.77519l10.11015 3.3992v31.21359c0 28.1793-.13156 31.9834-1.35368 39.1317-2.10979 12.3411-6.92714 25.3623-12.68474 34.287-2.77881 4.3073-6.97223 9.8277-7.4654 9.8277-.24613 0-2.02109-1.5933-3.94424-3.5407z"/><path d="m680.92513 1103.9401-4.53811-2.974 2.4131-5.2357c4.9872-10.8211 10.17377-25.8804 12.42712-36.0823.96741-4.38.69261-4.3262 7.10009-1.3927 2.13736.9784 3.64916 2.1052 3.64916 2.7196 0 2.5703-3.70942 17.2108-6.1651 24.3325-2.94077 8.5286-8.91224 21.7286-9.79573 21.6534-.30387-.028-2.59454-1.3852-5.09053-3.0208z"/><path d="m749.18382 1055.4504c-3.76206 2.4778-7.2423.2933-8.43146-7.6205-.9244-6.152-2.55187-10.7451-5.05056-14.2544-.75509-1.0603-1.37282-2.1136-1.37282-2.3406 0-.7565 6.34783 2.7952 10.61566 5.9396l4.21256 3.1037v-45.15597h11.45817v111.88567h-11.45817c.0461-17.4052.0624-34.8055.0269-51.5575z"/><path d="m689.84431 1041.5276c-1.66818-1.1103-5.22419-3.233-7.90223-4.7171l-4.86918-2.6984 2.35013-4.6667c1.29255-2.5667 2.69051-4.6667 3.10665-4.6667.80113 0 13.34925 7.34 15.88965 9.2946l1.49786 1.1525-2.84588 4.1884c-1.56525 2.3036-3.14924 4.1757-3.51994 4.1602-.37068-.014-2.03888-.9367-3.70706-2.0468z"/><path d="m697.93243 1014.596c-1.29747-1.1218-4.63382-3.7403-7.41411-5.8187s-5.17107-3.8675-5.31275-3.9758c-.47029-.3592 4.9626-8.31935 5.68204-8.32537.97839-.007 15.18275 10.84617 16.0717 12.28127.5959.962.13922 1.7579-2.61044 4.5495-1.83296 1.8611-3.49575 3.3713-3.69506 3.3563-.19929-.014-1.42391-.9453-2.72138-2.0672z"/><path d="m149.82031 1001.2129-.38867 30.3672c-.21341 16.7024-.73503 33.2367-1.1582 36.7422-1.21567 10.069-5.09504 22.0177-11.10547 32.2558-1.49485 2.5463-1.47826 2.5973-3.25391 5.3926 2.31698 1.3877 6.99333 4.3435 8.55274 5.3086 1.32843-2.2225.23072.1116 4.17578-6.957 2.76608-4.9562 2.59358-10.8937 7.2168-16.8828 9.62641-12.4704 3.94185-7.0123 4.31054-46.127l.29102-30.7051h28.76562l-5.39844 10.7383h-14.07812v37.584h44.96484v-37.584h-11.07422c-6.09042 0-11.07226-.1325-11.07226-.2969 0-.1641 1.03962-2.5803 2.31055-5.3691l2.31054-5.0723h26.25l.16797 13.9258c.0921 7.6592.07091 20.7222-.04883 29.0273-.2418 16.8161.66742 32.4846 2.24024 38.5899 2.34548 9.1055 6.70006 15.1625 13.2539 18.4375h.00196c6.84435 3.4199 9.33556 1.9552 6.92383-4.0723-1.29322-3.2247-1.30699-6.0261-.06446-13 .52378-2.9393.85464-5.4403.73633-5.5586-.11832-.1183-1.36377 1.2934-2.76953 3.1368-1.40562 1.8432-3.00028 3.5221-3.54297 3.7304-1.18535.4548-3.24935-1.2966-4.59375-3.8965-1.59429-3.0827-2.21041-18.356-2.22461-55.3203l-.01367-34.3945zm25.31055 26.1738h30.20117v9.3945h-30.20117zm0 16.1074h30.20117v9.3946h-30.20117zm-8.125 22.8125-.02539 6.7442 18.88867.0097v9.3575h-15.43555v6.041h15.43555v10.0664h-24.83008v6.707h58.38672v-6.7109h-25.50195v-10.0684h16.10547v-6.039h-16.10547v-9.3965h18.79101v-6.711z"/><path d="m15.808594 1001.2129.271484 13.9258c.374487 19.2139-.866896 51.5784-2.232422 58.1894-1.803301 8.7303-6.1967108 19.4928-11.9902341 29.3731l-1.8574219 3.1679 8.9121094 4.3946 1.2968746-1.6739c2.654352-3.4254 7.948644-14.6405 9.978516-21.1367 3.875995-12.4045 4.23366-16.0717 4.677734-47.9843l.40625-29.3262 62.634766.0273.298828 37.1758c.255428 31.8719.467505 38.1681 1.429688 42.4551 2.211009 9.851 6.937958 16.9299 13.628904 20.4121 3.78062 1.9674 7.41751 2.2562 8.03906.6367.23207-.6048-.12376-2.7069-.79101-4.6699-1.28134-3.7697-1.11905-10.3257.39258-15.9434.38219-1.4215.56534-2.7118.4082-2.8691-.15704-.1571-1.55849 1.4011-3.11523 3.4629-2.07954 2.7544-3.19879 3.6933-4.22071 3.541-1.80007-.2687-3.78866-2.9742-4.628904-6.2988-.940539-3.7215-1.689224-35.323-1.496094-63.2012l.164063-23.6582h-41.103516zm17.18164 14.7617v4.6973h22.47461c-.698169 1.4039-2.129465 4.2815-3.03125 6.039h-17.779297l.013672 53.3555 41.443359.0352-.4375 3.8359c-.199472 1.9325-.555477 5.6291-.789062 8.2129-.574809 6.3579-1.028507 7.0605-4.503907 6.9785-2.668041-.0632-8.675739-1.0632-6.927734-1.207 1.814708-.1494 5.105469-3.0044 5.105469-5.8399 0-2.372-.354428-3.1314-2.175782-4.664-1.791087-1.5071-7.194196-4.3282-8.289062-4.3282-.157509 0 .481015 1.466 1.417969 3.2579 1.581364 3.0242 3.323651 10.4516 2.691406 11.4746-.383343.6203 1.03671 6.22 1.837891 7.2461v-.0059c.425958.5455 2.517273.8379 5.976562.8379 6.27008 0 8.973571-1.1165 10.28125-4.2461 1.134867-2.7162 2.195219-10.2955 2.775391-19.8477l.451172-7.4472h-42.482422v-6.041h38.925781v-5.3477l-38.927734.0137v-6.7461l36.242187-.0215v-29.5078h-18.724609c.952116-2.0142 1.905401-4.0275 2.867187-6.0371h17.201172v-4.6973h-22.818359zm8.052735 16.1094h29.529297v7.3828h-29.529297zm0 11.4101h29.529297v7.3809h-29.529297zm8.914062 40.4297c-.242787.0536-.134547.7633.1875 2.5371.30004 1.6526.477142 5.0742.394531 7.6036-.090246 2.7615.165662 4.9783.640626 5.5507.982586 1.184 3.203426.618 4.794921-1.2226 2.048264-2.3687 1.522353-6.0199-1.398437-9.7071-1.41519-1.7864-3.113815-3.6927-3.775391-4.2382-.426096-.3512-.698077-.5556-.84375-.5235zm-15.455078.9219c-.284738.0815-.816398.9817-1.949219 2.9805-1.232445 2.1745-4.102079 5.4931-6.878906 7.955-4.78677 4.2438-5.750674 6.1869-3.958984 7.9786 1.154463 1.1546 5.044975.9924 7.234375-.3008 1.029701-.6083 2.32683-2.057 2.880859-3.2188 1.392838-2.9209 3.322532-11.9022 3.056641-14.2265-.091345-.7989-.163303-1.2314-.384766-1.168zm7.427735.4883c-.173216.1732-.747049 2.3821-1.277344 4.9082-.530317 2.5259-1.38297 5.7851-1.892578 7.2441-.509681 1.4591-.775505 3.0446-.591797 3.5235.502338 1.3092 4.522993 1.0474 6.324219-.4121 2.26656-1.8365 2.110413-6.6718-.378907-11.7598-1.027554-2.1002-2.010441-3.6768-2.183593-3.5039z"/><path d="m317.36719 999.23438-1.36328 10.06442-13.68946.014v5.9941h12.9043l-1.61328 12.75h-15.31836.002v6.7285l52.41797.01v-6.7324h-8.79687v-18.7911l-18.42578-.051c.40444-3.1572.6262-4.8125 1.11718-8.6289zm-28.61524.44921c-.041.005-.0691.0182-.082.041-.15034.26469-.65064 1.68951-1.11328 3.16601-3.21868 10.2796-8.48312 20.2616-14.875 28.2071-2.24601 2.792-4.1289 5.0918-3.91211 5.3085.21693.2169 2.06114 1.5589 3.82617 2.7833l3.20899 2.2265 2.23633-2.4844c5.62842-6.2548 12.37545-18.4685 16.16601-29.2597 1.15319-3.2829 2.01466-6.0259 1.91406-6.0899-3.09575-2.0456-6.75347-3.96684-7.36914-3.89843zm58.52735 7.56841v4.3632 4.3614h13.08593 13.08789v-4.3614-4.3632h-13.08789zm-12.75196 8.0546v12.75h-13.52929l1.71679-12.7363c3.95869 0 7.80989-.014 11.8125-.014zm-45.22851 15.4356c-.16408 0-.96864 2.0378-1.78906 4.5293-3.25701 9.8912-9.14344 19.9184-15.90039 27.0879-2.30695 2.4478-4.19336 4.5933-4.19336 4.7676 0 .1741 1.52478 1.6045 3.39062 3.1777 3.33948 2.8192 3.23334 2.8112 3.39063 2.7832.16613-.03 3.63154-3.6839 4.62695-5.2363l2.69531-4.0528.006.01-.0137 45.5293 7.7168-.01-.0488-58.1133 3.50195-6.375c3.78202-8.5701 3.89673-8.7124 3.86133-8.8867-.0252-.1348-7.07977-5.207-7.24414-5.207zm56.63672 7.3828v9.3945h10.73828v25.4219c0 21.9004-.14076 25.5359-1.01758 26.2637-.74468.6177-2.59056.7239-6.87891.3945-5.6297-.4323-5.78144-.4078-3.84765.6192 3.18262 1.69 6.95509 5.7236 7.79492 8.332.42332 1.315.89865 2.6156 1.05664 2.8926.59123 1.0367 3.42623.035 7.70898-2.7207 4.59401-2.9588 4.58008-2.8271 4.58008-33.6211v-27.584h10.06641v-9.3945zm-42.95117 2.0137v20.8047h37.58398v-20.8047zm7.32031 6.375h22.95312l-.008 7.7168h-22.95117zm8.11523 18.4551v6.041h-18.79092v6.8382l18.85343.0005v9.2636h-6.47851c-5.89546 0-1.80367.01-6.27735.01l1.5918-6.8926-6.99805-1.6074-3.90625 15.8769h22.00586v14.0938h8.05274v-14.0938h21.47656v-7.3828h-21.47656v-9.3945h18.12109v-6.7109h-18.12109v-6.041z"/><path d="m420.83398 995.53906c-.6734.07983-1.69796.69595-3.67187 2.06641-2.05926 1.42971-3.74495 2.78573-3.75195 3.01173-.00439.2262.90523 1.5587 2.01953 2.9609 1.11436 1.4022 2.95601 4.1755 4.09375 6.1641 1.94838 3.4053 2.1535 3.5625 3.51172 2.7031.79314-.5018 2.57281-1.5973 3.95703-2.4355 1.38415-.8382 2.51758-1.8999 2.51758-2.3575 0-.8267-6.00808-9.95954-7.71289-11.72457-.28163-.29155-.55885-.43656-.9629-.38867zm29.48047 6.34574v67.7832h17.39063l-.94336 2.6679c-3.16441 8.9689-16.30251 21.6126-27.88477 26.834-2.01456.9082-3.77769 1.7273-3.91797 1.8203-.14034.0935 1.32374 1.9946 3.25391 4.2227 1.93025 2.2281 4.0079 4.0488 4.61719 4.0488 1.60952-.0025 8.46717-4.2739 13.65039-8.5019 6.36085-5.1885 14.41439-15.363 17.29492-21.8477l1.27539-2.8691.08594 7.0468c.04747 3.8757.31675 10.1593.60156 13.9629.46908 6.2686.68715 7.0849 2.32813 8.7246l1.81054 1.8086h13.91016c12.74671 0 14.16454-.1191 16.97656-1.4199 2.16184-1.0001 3.40181-2.121 4.19531-3.793 1.59676-3.365 1.41229-4.9115-.93164-7.8281-2.11409-2.6306-4.64276-9.5191-4.66406-12.6894-.00566-.9821-.26747-2.1929-.58203-2.6895-.71337-1.1256-1.21708.7047-2.09375 7.6192-1.31607 10.3802-3.12125 12.0761-12.86133 12.0761-9.33808 0-8.90049.7551-9.15625-15.7949l-.20703-13.3984h15.51367v-67.7832zm10.06641 10.0664h29.5293v10.7383h-29.5293zm-57.7168 4.0254v8.7246h27.53125l-2.61719 5.2011c-1.44026 2.8607-4.04892 7.1652-5.79687 9.5645-3.92511 5.3877-14.24064 15.5672-19.31836 19.0644l-3.78711 2.6075 7.13086 8.2754 11.28711-9.8985.35352 47.7344h8.68945l.35351-49.3145 4.98438 6.0333c2.74173 3.3185 5.08927 6.1658 5.2168 6.3281.3599.4588 6.91211-6.1914 6.91211-7.0157 0-.4025-3.45514-4.1972-7.67774-8.4316l-7.67773-7.6973 3.73828-5.6894c3.76705-5.7338 10.24432-18.3563 10.26562-19.9941.00532-.486-.78147-1.9203-1.74804-3.1876l-1.75782-2.3046zm57.7168 14.7656h29.5293v10.0664h-29.5293zm0 18.1191h29.5293v10.7383h-29.5293z"/><path d="m .0004879 1145.789h909.2140021v3.8424l-909.2140021.013z"/><g transform="translate(16.393123)"><path d="m142.64987 1186.4238c7.04457-1.0548 13.90078-3.4787 21.09604-3.3908.3516 14.9933-.21348 29.9995.18835 44.9927 4.43268-.2762 7.54686-3.7546 11.54004-5.2489 4.68382-2.2854 10.0834-2.0468 15.13138-1.5822 7.98636 1.2432 12.88365 9.1416 14.32772 16.5127.60275 12.2684.0879 24.5869.28882 36.8678.0628 1.8083.64041 3.5286 1.0548 5.274 3.22719 1.08 6.31625 2.5115 9.1165 4.4453-3.81738 3.2774-8.95326 1.9338-13.53662 2.0845-5.12332-.1507-10.23409.1883-15.34486.088-.55251-.4521-1.65754-1.3436-2.21006-1.7957 1.95892-2.8882 5.78886-3.2774 8.1496-5.6507 1.69522-1.419 1.05481-3.7797 1.24316-5.701-.0879-9.2546-.0502-18.5218-.0126-27.789 0-5.3493-1.63244-11.2512-6.25347-14.4658-5.01031-3.717-11.92931-2.5491-17.1782.063-2.85048 1.5571-6.61763 3.4407-6.41671 7.2581-.0753 13.4487-.0879 26.8974.0753 40.3462 3.32765 1.8333 6.66785 3.6541 9.74436 5.9144-3.41555 2.8128-7.94869 1.5445-11.97954 1.7454-5.48748-.2888-10.98751.3893-16.46244-.075-.66553-.427-1.99659-1.306-2.66212-1.7329 3.08907-2.2603 6.80599-3.629 9.53089-6.379.69065-26.3324.0251-52.7276.28882-79.0851-.21348-2.2603.56507-5.0605-1.33106-6.7934-2.77514-1.6073-5.93954-2.3231-8.92815-3.4281.12557-.6153.40183-1.8585.53996-2.4738z"/><path d="m438.25807 1186.449c5.11076-2.4236 9.50577 2.2351 11.6656 6.4041.0126 6.7683-8.37562 11.3391-13.81288 6.8939-2.637-4.0183-2.42353-10.7113 2.14728-13.298z"/><path d="m569.19162 1193.368c13.46128-6.2284 28.96938-5.9773 43.27198-3.2272 3.2272.6781 7.23293.9794 8.99093 4.2568.82878 5.814 1.93381 11.5903 3.00117 17.3666-.81622.766-2.44865 2.2854-3.27742 3.0514-3.42811-5.8014-5.11077-13.0092-11.05031-16.9647-8.53887-5.3494-19.35059-5.1987-28.88147-3.1017-11.75351 2.5491-21.48531 12.1428-24.52415 23.7456-3.3402 8.5389-2.95093 17.8187-2.48631 26.8096 1.94636 12.7078 7.05712 26.4705 18.94876 33.0253 8.09937 4.0183 17.68048 7.032 26.67141 4.3699 6.35393-1.6701 12.73297-4.7968 16.55034-10.3345 2.59934-3.4784 4.18154-7.5846 6.70553-11.1006 1.43152-.1004 2.87559-.1255 4.33222-.075-2.85047 7.4841-3.89272 15.9727-8.56398 22.5778-12.01721 5.0228-25.26502 4.8219-38.01054 3.9932-13.08456-2.7124-26.26959-9.0538-33.59041-20.7319-3.72948-6.5423-7.07889-13.7125-7.10736-21.3974-.0217-5.8768-.55594-11.8363.5274-17.6428 2.86042-15.3315 14.25238-28.4671 28.49221-34.6201z"/><path d="m629.41578 1190.9821c6.73064-.6404 13.5115.1005 20.26726-.063 15.47042 17.5926 30.06185 35.9512 45.34392 53.7196 4.47035 5.0605 8.08681 10.8996 13.07201 15.4955.7911.1381 2.3733.4395 3.1644.5776.0126-16.3243.10046-32.6486-.11301-48.9729-.18836-4.3322.1758-8.8779-1.65755-12.9213-3.64158-3.8425-9.35509-3.9807-13.86311-6.3288 2.24773-1.0674 4.48291-2.8505 7.14503-2.2729 9.07883 1.3436 18.25811.2637 27.38717.5274-.11301 1.1553-.22603 2.298-.32648 3.4532-3.85505.9544-9.40532 1.4818-10.49779 6.1154-2.46121 8.5891-1.59476 17.6428-1.75801 26.4705-.10045 20.0035.23859 40.0197-.28881 60.0232-1.04224-.1758-3.12673-.5148-4.16898-.6906-5.75118-6.5925-11.314-13.3734-16.66336-20.305-14.32772-17.1531-28.86892-34.1303-42.56878-51.7983-.90412-1.444-2.71235-1.4692-4.15642-1.9338-.13813 14.4031-.12557 28.8062.0628 43.2092 1.04225 6.9693.30138 14.0766 1.34362 21.0333 2.7249 5.7009 10.22153 4.4201 14.47841 8.2249-1.55709 1.419-3.35276 2.0845-5.39958 1.9841-9.2923-.2135-18.59716-.2637-27.88946.088-.47717-1.2683-.7911-2.5617-.95435-3.9053 3.98062-1.419 9.88249-1.8459 11.06287-6.8186 1.54453-5.726.71575-11.8037 1.56964-17.6553.3516-15.5207 0-31.0665.18836-46.5997.15068-4.7717-.5274-10.1462-4.13131-13.6371-3.2523-2.4737-7.50918-2.9886-10.98752-5.0479.0879-.4898.25115-1.4818.33905-1.9715z"/><path d="m736.93021 1190.8063c20.30494.1884 40.62243-.4144 60.92736.1884 2.61189-.314 2.56167 2.6746 3.08907 4.4577.65297 5.5754.71575 11.2262.4395 16.8266-1.04225-.113-2.08449-.2134-3.12674-.3139-1.69521-6.0651-3.49089-14.2147-10.81171-15.5332-7.59709-.992-15.31974-.4772-22.96706-.4395-2.49887-.3139-4.43268 2.185-4.20665 4.5206-.0251 9.556.0251 19.1245-.0251 28.6805-.45206 3.0012 2.61189 5.048 5.37446 4.5081 6.85622-.2888 14.1017.9669 20.68165-1.3939 3.18952-2.524 3.76715-7.1073 5.57538-10.5982 4.75917 2.0217 2.76258 7.3208 3.02628 11.3642-.20091 4.9852.28882 9.9704.0251 14.9556-.879 1.1176-1.80823 2.1849-2.80024 3.1895-2.44865-4.7089-3.64158-12.0423-10.30943-12.1177-7.15759.5651-15.1565-1.9589-21.62344 1.9339.23859 9.0537-.0879 18.1199.16324 27.1611.66553 4.2569 1.07992 10.1085 5.92698 11.6656 6.22836 1.9087 12.8711 1.4441 19.28781 1.0925 4.57081-.7409 10.02061-.7283 13.23525-4.6336 2.97605-3.83 4.21921-8.6645 6.89388-12.6828.879-.013 2.64956-.025 3.52856-.038-.59018 6.3413-2.67467 12.4065-4.24432 18.5343-.42694 2.0971-1.82079 4.3072-4.23176 4.1565-21.47275.5776-42.97062-.4772-64.44337.4018-.25114-.9543-.75343-2.8505-1.00457-3.7923 5.18611-1.2306 12.30602-2.2226 13.21014-8.7021.31393-22.088-.0251-44.2012.13813-66.3018-.12558-3.0765.46461-6.5046-1.50686-9.1542-1.95892-3.3276-6.17813-3.7169-9.58112-4.4954-.22603-1.1553-.4395-2.298-.64042-3.4407z"/><path d="m68.524932 1191.0826c5.500038-.7786 11.037747-.1131 16.550342-.1884 10.372217.063 20.794666-.8664 31.116656.3767 6.95667 1.8459 14.56631 4.4452 18.86086 10.6234 5.67583 9.2044 5.16099 21.636-.18836 30.878-4.01829 6.2409-11.00008 9.5812-17.63026 12.3312-6.44182 1.9212-13.39849 1.6575-19.978447.5902-1.720331-.3391-3.428106.2762-5.13588.4646.477172 10.0708-1.004573 20.3426 1.393845 30.2376 1.732889 5.8768 9.279742 4.4704 13.611962 7.0069-.0502.7283-.12557 2.1724-.16324 2.9007-9.807144.4772-19.626846-.226-29.433992.113-3.516005-.063-7.509184.8665-10.334546-1.8207 3.352763-3.4533 9.279745-2.8003 11.979535-6.9567 1.318502-4.6964 1.368731-9.6062 1.381288-14.4533-.05023-17.1531-.02511-34.3062-.03767-51.4718-.02511-4.395-.150685-8.8779-1.456631-13.1097-2.52399-3.9178-8.8528-2.9007-10.53546-7.5217m28.492205 3.9555c-2.398418.7785-5.211223 2.5867-4.847065 5.4874.01256 11.6531-.03767 23.3061 0 34.9466-.40183 2.9384 2.473761 4.709 4.960079 5.274 6.366477 1.419 13.549177.766 18.986427-3.1016 4.64615-2.9886 7.19526-8.3128 8.56399-13.4864.3516-6.5548 1.33106-13.838-2.51143-19.6268-4.77173-8.79-16.14852-10.2969-25.152001-9.4932z"/><path d="m386.08305 1221.835c6.80599-1.7077 15.21929-1.7831 20.40539 3.7295 2.27285 2.8505 4.67127 6.1154 4.6336 9.9327.41438 14.0138-.30137 28.0527.31393 42.0414 2.27284 3.2398 6.35392 4.5332 9.2923 7.0948-2.88815 2.637-6.89389 1.6576-10.42245 1.7706-5.93954-.2763-11.89163.339-17.80606-.025-.7032-.4521-2.1096-1.3436-2.8128-1.7957 3.39043-2.3859 7.17014-4.0936 10.73637-6.1656.18836-11.3642.0251-22.7284.12558-34.1052.0377-5.6884-2.39842-12.2056-8.12449-14.3529-5.50004-2.6244-11.82885-.4395-16.77637 2.3859-2.86303 1.8836-6.78087 4.2066-6.01488 8.2249.32648 11.9168-.4395 23.9214.37671 35.8005.5274 5.5628 9.83226 4.1062 8.61422 10.1211-7.01946 0-14.03891-.2888-21.05837-.025-3.18952.025-6.75575.6153-9.22951-1.9338 3.55367-3.3277 11.69072-3.6291 10.93729-10.0081-.0377-12.9464.0377-25.8929-.0251-38.8393-.0251-4.935-5.87675-5.8014-9.39276-7.4213.28882-.7283.89156-2.1724 1.18038-2.8881 5.66328-1.1804 11.32656-2.3608 16.81404-4.2067 3.05139 1.4566 1.51942 5.1359 1.90869 7.798 6.42927.5149 10.38477-5.6884 16.32431-7.1325z"/><path d="m239.96789 1221.9606c8.65189-2.2728 18.50926-1.6701 26.30726 3.0263 6.29114 4.508 11.82885 10.6485 13.61197 18.3837 3.65413 8.9407 1.2306 18.9111-2.54911 27.3746-5.90187 10.1713-17.0903 18.572-29.33353 17.2912-16.71359-.1883-31.78219-15.483-30.7525-32.3598-1.09247-14.7923 8.97837-28.7685 22.71591-33.716m7.3585 3.0012c-11.30145 1.5194-17.39167 13.9008-17.07774 24.3483-.62786 8.1371 1.38129 16.249 5.06053 23.4945 3.15185 6.1781 9.81971 10.5354 16.71359 10.9373 6.2158-.9921 11.80373-5.6131 13.80032-11.6405 5.02287-11.8163 3.46578-25.579-2.48632-36.7423-3.17696-5.7261-9.31741-10.3345-16.01038-10.3973z"/><path d="m309.35878 1223.8693c5.36191-3.3528 11.87908-3.403 17.95674-2.7123 7.96125 1.6952 13.95101 8.5137 16.09829 16.1736 1.16782 2.8002 1.01713 7.2957-2.23518 8.5263-13.35033 3.4017-26.03633 2.6867-38.38725 3.943-1.33106 9.8197 3.23975 19.9282 11.66561 25.1896 4.03085 3.1895 9.40531 3.0891 14.27749 2.8379 4.62104-.1004 8.07426-3.6164 11.87908-5.7763 1.30595 1.5571 2.05938 4.0435.10046 5.475-6.79343 6.5548-16.07317 12.306-25.91799 10.0331-8.01147-2.0844-15.93504-6.919-19.66452-14.5788-8.16215-16.7764-2.36074-39.756 14.22727-49.1111m7.25804 2.1724c-6.96923 2.6621-13.49895 9.3174-12.69529 17.2787 7.87792-.1392 16.32538-.2979 23.51957-.7032 2.24774-.1159 4.395-1.2055 4.23176-3.403.0251-7.5092-7.25804-14.9933-15.05604-13.1725z"/><path d="m435.45782 1223.794c3.35276-.6781 6.50461-2.2478 9.93272-2.6245 1.39384.7534 2.00914 1.9087 1.87102 3.4532-.0126 17.9442-.25115 35.8884.12557 53.8075 4.44523 3.1895 10.13363 5.5503 15.54577 3.29 6.27858-1.2432 9.83226-6.9065 13.31059-11.7033 2.88815-4.1816 6.27858-7.9989 8.99093-12.306 1.34362-3.9807-1.74545-7.2455-3.67925-10.3597-3.80482-5.4749-6.96923-11.3768-11.0503-16.6382-2.67468-3.7421-9.64391-2.9635-9.99551-8.3254 6.27859-.2512 12.56972.2385 18.86086-.025 2.96349.05 6.26603-.7283 8.77746 1.3311-1.3185 2.5617-5.88931 4.9601-3.79226 8.2375 2.51143 4.0309 4.80939 8.3003 8.03658 11.8163 2.24774.6027 3.18952-2.0594 4.42012-3.403 2.02171-3.3025 4.5457-6.4041 5.8642-10.0708-.55252-2.8756-2.61189-5.1987-3.81738-7.8106 8.1496.038 16.32432-.4144 24.47391.1005-.91667 3.8801-5.21122 4.0057-8.22494 5.3368-4.62103 1.4943-7.23292 5.8642-10.13363 9.4178-2.97605 3.943-6.19068 7.7604-8.52631 12.1177 1.15526 3.9806 4.09363 7.0697 6.19068 10.5731 4.06852 5.6131 7.2706 11.8414 11.64049 17.241 2.87559 3.5537 7.67243 4.1188 11.85396 5.0354.0879 1.3562.1758 2.7124.28882 4.0811-10.19642.1758-20.39284-.1004-30.58925.063-.12558-3.8676 3.39043-5.6256 5.92698-7.8357-4.1062-5.9772-7.48407-12.4567-12.28091-17.9316-5.11077 5.2238-7.60964 12.3186-12.30602 17.894 2.22262 2.2979 4.75917 4.2192 7.22037 6.2409-1.48175 1.1552-3.13929 1.7077-4.98519 1.6575-17.21588-.025-34.45686 0-51.67273-.1004-.65298-.4521-1.98404-1.3437-2.63701-1.7957 3.22719-3.3026 10.42245-3.1644 10.54802-8.79.25114-12.1554-.0126-24.3233.11301-36.4786.0879-2.6621-.42694-5.2614-.9669-7.8482-2.96349-1.0548-5.88931-2.1975-8.79001-3.403 1.59476-3.9304 6.03999-3.2774 9.45554-4.2443z"/></g></svg>