<?xml version="1.0" encoding="UTF-8" standalone="no"?>
<!-- Created with Inkscape (http://www.inkscape.org/) -->

<svg
   xmlns:dc="http://purl.org/dc/elements/1.1/"
   xmlns:cc="http://creativecommons.org/ns#"
   xmlns:rdf="http://www.w3.org/1999/02/22-rdf-syntax-ns#"
   xmlns:svg="http://www.w3.org/2000/svg"
   xmlns="http://www.w3.org/2000/svg"
   xmlns:sodipodi="http://sodipodi.sourceforge.net/DTD/sodipodi-0.dtd"
   xmlns:inkscape="http://www.inkscape.org/namespaces/inkscape"
   version="1.0"
   width="909.21448"
   height="1288.213"
   id="phnx-cne"
   inkscape:version="0.91 r13725"
   sodipodi:docname="Phoenix CNE.svg">
  <metadata
     id="metadata27">
    <rdf:RDF>
      <cc:Work
         rdf:about="">
        <dc:format>image/svg+xml</dc:format>
        <dc:type
           rdf:resource="http://purl.org/dc/dcmitype/StillImage" />
        <dc:title></dc:title>
      </cc:Work>
    </rdf:RDF>
  </metadata>
  <sodipodi:namedview
     pagecolor="#ffffff"
     bordercolor="#666666"
     borderopacity="1"
     objecttolerance="10"
     gridtolerance="10"
     guidetolerance="10"
     inkscape:pageopacity="0"
     inkscape:pageshadow="2"
     inkscape:window-width="1920"
     inkscape:window-height="1017"
     id="namedview25"
     showgrid="false"
     fit-margin-top="0"
     fit-margin-left="0"
     fit-margin-right="0"
     fit-margin-bottom="0"
     inkscape:zoom="0.5"
     inkscape:cx="568.98399"
     inkscape:cy="435.31371"
     inkscape:window-x="-8"
     inkscape:window-y="-8"
     inkscape:window-maximized="1"
     inkscape:current-layer="phnx-cne" />
  <defs
     id="defs2244" />
  <g
     id="g4360"
     transform="matrix(10.257958,0,0,10.257958,-7.0011053,-26.493276)">
    <path
       id="path2317"
       style="fill:#ed802f;fill-opacity:1"
       d="m 43.109746,90.702367 c 0.07849,-0.04712 0.527999,-0.137295 0.998918,-0.200387 5.865379,-0.78583 11.392953,-2.859326 15.935119,-5.977558 3.439597,-2.361315 7.428914,-6.381454 9.700234,-9.775192 2.540458,-3.795872 4.087763,-8.17361 4.82524,-13.651878 0.21785,-1.618315 0.247893,-7.156116 0.04747,-8.752424 -0.401955,-3.201596 -1.233825,-6.001865 -2.5445,-8.565416 -0.522901,-1.022737 -1.368651,-2.411493 -1.430774,-2.349374 -0.01893,0.01894 0.0079,0.181433 0.05969,0.361102 0.166381,0.57754 0.562124,2.672368 0.717698,3.799101 0.238542,1.727657 0.288355,6.037913 0.09346,8.086478 -0.567909,5.969164 -2.381611,11.617079 -5.281764,16.447507 -1.538619,2.562683 -3.044873,4.488408 -5.183518,6.627058 -2.133689,2.133683 -4.048367,3.632177 -6.62706,5.186557 C 44.118624,88.14736 32.202067,88.731348 21.799497,83.536552 17.00041,81.140001 12.799057,77.38088 9.0460654,72.125541 8.1925805,70.930396 6.2458988,67.771684 6.3182395,67.699336 c 0.022918,-0.02291 0.4862922,0.483669 1.0297226,1.12574 4.8654049,5.748538 10.5667719,9.72617 16.8614769,11.763629 10.075162,3.261109 20.432609,0.929431 29.122462,-6.556076 5.479445,-4.720033 9.053526,-11.51804 10.101952,-19.21419 0.200478,-1.47168 0.230246,-5.052654 0.05299,-6.374047 -0.732254,-5.458636 -3.00797,-9.242148 -6.662421,-11.076674 -1.859052,-0.933243 -3.804497,-1.338138 -6.08458,-1.266353 -2.256003,0.07102 -3.557613,0.497576 -5.428481,1.778955 -1.683253,1.152883 -2.689724,2.238608 -4.574207,4.934419 -0.588334,0.841629 -1.347654,1.856001 -1.687382,2.254161 -1.994458,2.337494 -5.421831,3.842676 -7.918641,3.477595 -0.786243,-0.114965 -1.627865,-0.357567 -1.62287,-0.467802 0.0016,-0.03433 0.261488,-0.210562 0.577612,-0.391638 1.218794,-0.698116 2.705222,-2.49627 3.308083,-4.001843 0.419146,-1.046785 0.61795,-1.855165 1.15142,-4.682093 0.891035,-4.721687 1.650593,-7.080619 3.147837,-9.776178 3.375154,-6.076429 9.007148,-10.389021 15.459282,-11.837656 2.051102,-0.460513 3.149379,-0.568892 5.749667,-0.567381 2.591859,0.0015 3.854891,0.118655 6.045651,0.560753 6.231374,1.257502 11.899291,4.677623 16.090722,9.709427 4.193828,5.034699 6.927124,11.551052 7.739159,18.450689 0.173374,1.47307 0.224119,4.568176 0.09921,6.049776 -0.523985,6.214744 -3.258765,13.862579 -6.885418,19.255128 -0.245952,0.365712 -0.447182,0.622145 -0.447182,0.569851 0,-0.05229 0.230303,-0.693997 0.511779,-1.426009 1.458325,-3.792545 2.312229,-7.160199 2.786125,-10.988087 0.232909,-1.881288 0.23408,-6.538593 0.0021,-8.28608 -0.83851,-6.315998 -3.474055,-11.9122 -7.669796,-16.285676 -0.493561,-0.514466 -0.976628,-0.977807 -1.073494,-1.029646 -0.124056,-0.0664 0.0041,0.265738 0.433511,1.123791 5.090267,10.170621 6.059588,20.74892 2.866542,31.283048 -1.96568,6.484973 -5.139223,11.694984 -9.719214,15.956049 -5.324784,4.954 -11.710638,7.818972 -19.579666,8.784303 -1.387345,0.170192 -7.234106,0.298246 -6.992425,0.153146 z"
       inkscape:connector-curvature="0" />
    <path
       id="path2311"
       style="fill:#ed802f;fill-opacity:1"
       d="M 29.02976,76.511521 C 19.991028,75.792593 12.744506,71.660372 7.3658855,64.158027 6.0774907,62.360917 4.3592663,59.157432 3.5045922,56.958978 1.237724,51.127987 0.52308864,44.969299 1.4457843,39.216293 1.8561684,36.657532 2.8677297,33.079601 3.960641,30.321167 c 0.5242131,-1.323071 1.9001131,-4.205331 2.620038,-5.4885 0.5714952,-1.018613 1.8135021,-2.953941 1.8635717,-2.903873 0.01857,0.01857 -0.2465139,0.778868 -0.5890666,1.689548 -1.4606939,3.883225 -2.3194303,7.349821 -2.7209002,10.983902 -0.1952551,1.767385 -0.1667432,6.526212 0.048719,8.134046 0.4579515,3.417262 1.2823347,6.146699 2.7736335,9.183236 0.7989916,1.626867 2.1902456,3.838506 3.2299676,5.134587 0.721209,0.899031 2.272062,2.557625 2.629399,2.812074 0.274617,0.195543 0.2548,0.136727 -0.382453,-1.135353 C 9.0991508,50.078525 7.7573567,40.822928 9.5356586,31.843328 11.360644,22.627966 15.613132,15.261547 22.13247,10.02236 27.385817,5.8005711 33.426616,3.4261583 40.675297,2.7338669 42.108402,2.5969971 47.01208,2.5240777 46.894779,2.641381 46.866143,2.6700235 46.291766,2.7786692 45.61839,2.8828157 36.554181,4.2847174 29.656386,7.8591895 23.836405,14.170347 c -3.57115,3.872534 -5.554259,7.156621 -6.966501,11.536771 -2.165673,6.71694 -2.258011,14.877163 -0.235221,20.787006 0.611537,1.786679 2.418237,5.375129 2.706249,5.375129 0.03463,0 0.0023,-0.224756 -0.07193,-0.499459 -0.569925,-2.110041 -0.897798,-5.056211 -0.898093,-8.069843 -3.24e-4,-3.269707 0.258215,-5.717155 0.917615,-8.686765 2.038354,-9.179612 7.031735,-16.85475 14.231241,-21.874291 5.185221,-3.6151706 11.243411,-5.8418461 17.278359,-6.3506354 1.677592,-0.1414328 5.023035,-0.068872 6.677015,0.1448207 5.797462,0.7490277 11.348772,2.9927152 15.565909,6.2913217 3.76574,2.945534 7.024628,6.690778 9.731658,11.184027 0.53659,0.890648 0.95644,1.638532 0.932999,1.661966 -0.02343,0.02343 -0.442559,-0.440339 -0.931382,-1.030605 -1.058292,-1.277896 -3.975665,-4.222177 -5.178124,-5.225886 -5.204029,-4.343875 -10.607871,-6.87647 -16.645635,-7.801243 -1.615859,-0.247491 -4.909586,-0.33886 -6.581213,-0.182565 -6.097433,0.570101 -11.96033,3.113518 -17.222401,7.471349 -3.939323,3.262388 -6.918867,7.49152 -8.783514,12.467216 -2.261026,6.033425 -2.61374,12.490436 -0.954147,17.466953 1.740277,5.218421 5.56578,8.189101 10.848572,8.424412 2.796742,0.124574 4.69891,-0.470357 7.003156,-2.190345 1.390732,-1.038099 2.500473,-2.325243 4.410156,-5.115163 2.157882,-3.152526 4.972471,-4.978827 7.997584,-5.189389 0.838939,-0.0584 2.158148,0.134689 2.63799,0.386107 0.221446,0.116025 0.213826,0.125968 -0.375222,0.489516 -0.74563,0.460194 -1.911539,1.606529 -2.452667,2.411504 -0.931762,1.386069 -1.306204,2.534382 -1.958107,6.005103 -0.728306,3.877454 -1.208472,5.657373 -2.100705,7.786996 -1.752607,4.183193 -4.921688,8.090966 -8.645435,10.660615 -2.946275,2.033137 -6.497847,3.36853 -10.263358,3.859027 -1.386232,0.180571 -4.135682,0.254568 -5.481491,0.147524 z"
       inkscape:connector-curvature="0" />
    <path
       id="path2252"
       style="fill:#ed802f;fill-opacity:1"
       d="m 39.756968,50.437647 c -0.739979,-0.181915 -1.318781,-0.430486 -1.812512,-0.778399 l -0.265827,-0.187323 0.757389,-0.26226 c 0.416568,-0.144244 0.964299,-0.383281 1.217187,-0.531194 0.541213,-0.316557 2.316091,-2.014746 3.028738,-2.89786 1.662446,-2.06013 2.818489,-2.795367 4.812758,-3.060885 1.475696,-0.196476 3.304772,0.14528 4.367173,0.815988 0.442825,0.279567 0.493837,0.339401 0.332973,0.390577 -1.642059,0.522364 -2.281519,0.950447 -3.757539,2.515432 -2.613664,2.7712 -3.148618,3.274097 -3.82969,3.600148 -0.353464,0.169216 -0.910004,0.370699 -1.236755,0.44774 -0.85788,0.202272 -2.686699,0.175975 -3.613895,-0.05196 z"
       inkscape:connector-curvature="0" />
  </g>
  <path
     style="fill:#ffffff;fill-opacity:1"
     d="M 819.57617 1057.8047 L 819.57617 1108.3555 L 831.03516 1108.3555 L 831.03516 1102.2891 L 890.34766 1102.2891 L 890.34766 1107.3457 C 890.34766 1110.1259 890.62576 1112.4004 890.96484 1112.4004 C 891.30387 1112.4004 894.03392 1111.4629 897.03125 1110.3184 L 902.48047 1108.2383 L 902.48047 1057.8047 L 819.57617 1057.8047 z M 831.03516 1069.9375 L 890.34766 1069.9375 L 890.34766 1090.1582 L 831.03516 1090.1582 L 831.03516 1069.9375 z "
     id="path2349" />
  <path
     inkscape:connector-curvature="0"
     d="m 900.45844,1050.2126 c -0.9995,-0.4938 -2.58767,-2.615 -3.90375,-5.2137 -1.2203,-2.4096 -2.5113,-4.4828 -2.86893,-4.6071 -0.35764,-0.1247 -18.69057,1.5228 -40.73988,3.6605 -22.04938,2.1377 -40.20404,3.756 -40.34377,3.5962 -0.13978,-0.1601 -0.45321,-2.7771 -0.69658,-5.8162 l -0.44251,-5.5257 7.86552,-0.8898 17.74918,-21.8323 c 9.76206,-12.0078 18.08302,-21.82211 18.49107,-21.80949 0.40801,0.0142 2.66376,1.55737 5.01276,3.43292 l 4.27095,3.41019 -1.31062,1.45358 c -5.31311,5.8929 -27.15994,32.9744 -26.85043,33.284 0.39589,0.396 52.41788,-4.4575 52.92373,-4.9375 0.54504,-0.5172 -1.21707,-3.4988 -4.31685,-7.3045 -1.7312,-2.1254 -3.02294,-3.9891 -2.87055,-4.1415 0.6596,-0.6596 7.31229,1.9436 11.96453,4.6818 10.14632,5.9718 14.80745,11.8783 14.82167,18.7818 0.009,4.3254 -1.72823,8.4241 -4.08755,9.6441 -2.29413,1.1863 -2.52242,1.1928 -4.66801,0.1325 z"
     style="fill:#ffffff;fill-opacity:1"
     id="path2327" />
  <path
     inkscape:connector-curvature="0"
     d="m 594.81921,1107.4257 2.69604,-2.3837 -58.97588,-0.057 0,-111.88571 59.89834,0 -3.06904,9.09921 -48.06717,0.3542 0,92.9964 50.55076,0 0,4.044 c 0,2.2243 0.0305,4.9199 0.0732,4.8936 1.35078,-0.8343 9.73035,-11.8818 13.41961,-19.3848 7.2508,-14.7463 8.74953,-23.9505 8.74953,-53.7346 l 0,-20.7435 -6.7401,0 0,2.6077 c 0,5.6023 -5.13225,23.4675 -5.96998,25.8427 -0.0376,0.1069 -7.85781,-1.5364 -8.85623,-2.2341 -0.0783,-0.057 0.66604,-2.2566 1.42904,-4.6598 2.89056,-9.1043 4.02364,-16.2975 4.43054,-28.1281 l 0.39986,-11.62667 9.24075,0 0,9.43617 12.49291,0 c 10.45821,0 12.76845,-0.1807 14.18475,-1.1086 1.41818,-0.92915 2.11153,-0.98285 4.28576,-0.3316 2.11369,0.6334 2.86023,1.3438 4.03267,3.838 1.46826,3.1236 1.40976,3.6658 -0.64996,6.0272 -0.6467,0.7414 -3.38137,7.2624 -6.07694,14.4912 -2.69557,7.2287 -5.32596,13.5981 -5.84535,14.1542 -0.82398,0.8823 -0.8992,0.7965 -0.59038,-0.6738 0.64776,-3.0841 1.93711,-25.5185 1.52792,-26.5849 -0.30039,-0.7828 -1.39453,-1.0495 -4.30578,-1.0495 l -3.90306,0 0.2209,21.7369 c 0.26086,25.6727 0.51329,27.0931 7.28625,41.0082 4.91845,10.1049 8.97337,16.5028 13.82065,21.8066 l 3.33905,3.6534 -3.05941,4.4688 c -1.68273,2.4579 -3.05946,4.8145 -3.05946,5.237 0,1.2477 -5.30223,-4.2376 -8.23654,-8.521 -3.49043,-5.095 -7.18583,-13.1492 -9.93431,-21.6518 -1.19831,-3.7071 -2.44314,-7.7688 -2.68775,-7.7512 -0.20007,0.014 -0.64613,0.6511 -1.1841,2.6961 -2.54263,9.6638 -10.59206,22.8792 -17.37665,28.5285 -3.99041,3.3226 -10.19669,6.6154 -14.16446,7.5149 l -2.02203,0.4584 2.69604,-2.3836 z"
     style="fill:#ffffff;fill-opacity:1"
     id="path2343" />
  <path
     style="fill:#ffffff;fill-opacity:1"
     d="M 557.41211 1009.9512 L 557.41211 1040.2812 L 592.46094 1040.2812 L 592.46094 1009.9512 L 557.41211 1009.9512 z M 565.5 1016.6914 L 583.69727 1016.6914 L 583.69727 1032.1934 L 565.5 1032.1934 L 565.5 1016.6914 z M 552.69336 1046.9863 L 552.69336 1046.9902 L 552.69336 1087.4648 L 573.60742 1087.4648 L 573.62305 1046.9961 L 552.69336 1046.9863 z M 577.63281 1046.9863 L 577.63281 1087.457 L 598.54688 1087.457 L 598.54688 1046.9863 L 577.63281 1046.9863 z M 559.43359 1055.1094 L 566.17383 1055.1094 L 566.17383 1079.373 L 559.43359 1079.373 L 559.43359 1055.1094 z M 584.37109 1055.1094 L 591.11133 1055.1094 L 591.11133 1079.373 L 584.37109 1079.373 L 584.37109 1055.1094 z "
     id="path2335" />
  <path
     inkscape:connector-curvature="0"
     d="m 778.13963,1051.1983 -2.09333,1.9554 c -2.54217,2.3747 -6.22166,2.7024 -7.31908,0.6518 -0.38378,-0.7171 -0.69771,-3.3917 -0.69771,-5.9438 0,-4.8785 -1.27941,-10.2118 -3.49143,-14.5547 -0.72639,-1.426 -1.12945,-2.784 -0.8957,-3.0177 0.69559,-0.6958 7.69052,3.3671 11.21795,6.5156 l 3.27933,2.927 0,-45.95762 10.78417,0 0,116.60372 -10.78417,0 0,-59.1797 z"
     style="fill:#ffffff;fill-opacity:1"
     id="path2345" />
  <path
     inkscape:connector-curvature="0"
     d="m 706.85889,1106.1633 -3.4967,-3.5407 2.40487,-3.0309 c 7.67866,-9.6777 13.74509,-24.9447 15.61149,-39.2884 0.52781,-4.0564 0.47383,-4.5285 -0.47249,-4.1361 -2.65115,1.0991 -3.30622,0.9935 -4.6812,-0.7545 -0.79069,-1.0052 -1.75836,-3.077 -2.15037,-4.6041 -1.94148,-7.5633 -2.80968,-9.8567 -5.26132,-13.8978 -1.46186,-2.4096 -2.56764,-4.4763 -2.45737,-4.5928 0.4158,-0.4393 9.66436,4.5873 12.68884,6.896 l 3.15215,2.406 0,-49.77519 10.11015,3.3992 0,31.21359 c 0,28.1793 -0.13156,31.9834 -1.35368,39.1317 -2.10979,12.3411 -6.92714,25.3623 -12.68474,34.287 -2.77881,4.3073 -6.97223,9.8277 -7.4654,9.8277 -0.24613,0 -2.02109,-1.5933 -3.94424,-3.5407 z"
     style="fill:#ffffff;fill-opacity:1"
     id="path2341" />
  <path
     inkscape:connector-curvature="0"
     d="m 680.92513,1103.9401 -4.53811,-2.974 2.4131,-5.2357 c 4.9872,-10.8211 10.17377,-25.8804 12.42712,-36.0823 0.96741,-4.38 0.69261,-4.3262 7.10009,-1.3927 2.13736,0.9784 3.64916,2.1052 3.64916,2.7196 0,2.5703 -3.70942,17.2108 -6.1651,24.3325 -2.94077,8.5286 -8.91224,21.7286 -9.79573,21.6534 -0.30387,-0.028 -2.59454,-1.3852 -5.09053,-3.0208 z"
     style="fill:#ffffff;fill-opacity:1"
     id="path2339" />
  <path
     inkscape:connector-curvature="0"
     d="m 749.18382,1055.4504 c -3.76206,2.4778 -7.2423,0.2933 -8.43146,-7.6205 -0.9244,-6.152 -2.55187,-10.7451 -5.05056,-14.2544 -0.75509,-1.0603 -1.37282,-2.1136 -1.37282,-2.3406 0,-0.7565 6.34783,2.7952 10.61566,5.9396 l 4.21256,3.1037 0,-45.15597 11.45817,0 0,111.88567 -11.45817,0 c 0.0461,-17.4052 0.0624,-34.8055 0.0269,-51.5575 z"
     style="fill:#ffffff;fill-opacity:1"
     id="path2337" />
  <path
     inkscape:connector-curvature="0"
     d="m 689.84431,1041.5276 c -1.66818,-1.1103 -5.22419,-3.233 -7.90223,-4.7171 l -4.86918,-2.6984 2.35013,-4.6667 c 1.29255,-2.5667 2.69051,-4.6667 3.10665,-4.6667 0.80113,0 13.34925,7.34 15.88965,9.2946 l 1.49786,1.1525 -2.84588,4.1884 c -1.56525,2.3036 -3.14924,4.1757 -3.51994,4.1602 -0.37068,-0.014 -2.03888,-0.9367 -3.70706,-2.0468 z"
     style="fill:#ffffff;fill-opacity:1"
     id="path2325" />
  <path
     inkscape:connector-curvature="0"
     d="m 697.93243,1014.596 c -1.29747,-1.1218 -4.63382,-3.7403 -7.41411,-5.8187 -2.78029,-2.0784 -5.17107,-3.8675 -5.31275,-3.9758 -0.47029,-0.3592 4.9626,-8.31935 5.68204,-8.32537 0.97839,-0.007 15.18275,10.84617 16.0717,12.28127 0.5959,0.962 0.13922,1.7579 -2.61044,4.5495 -1.83296,1.8611 -3.49575,3.3713 -3.69506,3.3563 -0.19929,-0.014 -1.42391,-0.9453 -2.72138,-2.0672 z"
     style="fill:#ffffff;fill-opacity:1"
     id="path2319" />
  <path
     style="fill:#ffffff;fill-opacity:1"
     d="M 149.82031 1001.2129 L 149.43164 1031.5801 C 149.21823 1048.2825 148.69661 1064.8168 148.27344 1068.3223 C 147.05777 1078.3913 143.1784 1090.34 137.16797 1100.5781 C 135.67312 1103.1244 135.68971 1103.1754 133.91406 1105.9707 C 136.23104 1107.3584 140.90739 1110.3142 142.4668 1111.2793 C 143.79523 1109.0568 142.69752 1111.3909 146.64258 1104.3223 C 149.40866 1099.3661 149.23616 1093.4286 153.85938 1087.4395 C 163.48579 1074.9691 157.80123 1080.4272 158.16992 1041.3125 L 158.46094 1010.6074 L 187.22656 1010.6074 L 181.82812 1021.3457 L 167.75 1021.3457 L 167.75 1058.9297 L 212.71484 1058.9297 L 212.71484 1021.3457 L 201.64062 1021.3457 C 195.5502 1021.3457 190.56836 1021.2132 190.56836 1021.0488 C 190.56836 1020.8847 191.60798 1018.4685 192.87891 1015.6797 L 195.18945 1010.6074 L 221.43945 1010.6074 L 221.60742 1024.5332 C 221.69952 1032.1924 221.67833 1045.2554 221.55859 1053.5605 C 221.31679 1070.3766 222.22601 1086.0451 223.79883 1092.1504 C 226.14431 1101.2559 230.49889 1107.3129 237.05273 1110.5879 L 237.05469 1110.5879 C 243.89904 1114.0078 246.39025 1112.5431 243.97852 1106.5156 C 242.6853 1103.2909 242.67153 1100.4895 243.91406 1093.5156 C 244.43784 1090.5763 244.7687 1088.0753 244.65039 1087.957 C 244.53207 1087.8387 243.28662 1089.2504 241.88086 1091.0938 C 240.47524 1092.937 238.88058 1094.6159 238.33789 1094.8242 C 237.15254 1095.279 235.08854 1093.5276 233.74414 1090.9277 C 232.14985 1087.845 231.53373 1072.5717 231.51953 1035.6074 L 231.50586 1001.2129 L 149.82031 1001.2129 z M 175.13086 1027.3867 L 205.33203 1027.3867 L 205.33203 1036.7812 L 175.13086 1036.7812 L 175.13086 1027.3867 z M 175.13086 1043.4941 L 205.33203 1043.4941 L 205.33203 1052.8887 L 175.13086 1052.8887 L 175.13086 1043.4941 z M 167.00586 1066.3066 L 166.98047 1073.0508 L 185.86914 1073.0605 L 185.86914 1082.418 L 170.43359 1082.418 L 170.43359 1088.459 L 185.86914 1088.459 L 185.86914 1098.5254 L 161.03906 1098.5254 L 161.03906 1105.2324 L 219.42578 1105.2324 L 219.42578 1098.5215 L 193.92383 1098.5215 L 193.92383 1088.4531 L 210.0293 1088.4531 L 210.0293 1082.4141 L 193.92383 1082.4141 L 193.92383 1073.0176 L 212.71484 1073.0176 L 212.71484 1066.3066 L 167.00586 1066.3066 z "
     id="path2938" />
  <path
     style="fill:#ffffff;fill-opacity:1"
     d="M 15.808594 1001.2129 L 16.080078 1015.1387 C 16.454565 1034.3526 15.213182 1066.7171 13.847656 1073.3281 C 12.044355 1082.0584 7.6509452 1092.8209 1.8574219 1102.7012 L 0 1105.8691 L 8.9121094 1110.2637 L 10.208984 1108.5898 C 12.863336 1105.1644 18.157628 1093.9493 20.1875 1087.4531 C 24.063495 1075.0486 24.42116 1071.3814 24.865234 1039.4688 L 25.271484 1010.1426 L 87.90625 1010.1699 L 88.205078 1047.3457 C 88.460506 1079.2176 88.672583 1085.5138 89.634766 1089.8008 C 91.845775 1099.6518 96.572724 1106.7307 103.26367 1110.2129 C 107.04429 1112.1803 110.68118 1112.4691 111.30273 1110.8496 C 111.5348 1110.2448 111.17897 1108.1427 110.51172 1106.1797 C 109.23038 1102.41 109.39267 1095.854 110.9043 1090.2363 C 111.28649 1088.8148 111.46964 1087.5245 111.3125 1087.3672 C 111.15546 1087.2101 109.75401 1088.7683 108.19727 1090.8301 C 106.11773 1093.5845 104.99848 1094.5234 103.97656 1094.3711 C 102.17649 1094.1024 100.1879 1091.3969 99.347656 1088.0723 C 98.407117 1084.3508 97.658432 1052.7493 97.851562 1024.8711 L 98.015625 1001.2129 L 56.912109 1001.2129 L 15.808594 1001.2129 z M 32.990234 1015.9746 L 32.990234 1020.6719 L 55.464844 1020.6719 C 54.766675 1022.0758 53.335379 1024.9534 52.433594 1026.7109 L 34.654297 1026.7109 L 34.667969 1080.0664 L 76.111328 1080.1016 L 75.673828 1083.9375 C 75.474356 1085.87 75.118351 1089.5666 74.884766 1092.1504 C 74.309957 1098.5083 73.856259 1099.2109 70.380859 1099.1289 C 67.712818 1099.0657 61.70512 1098.0657 63.453125 1097.9219 C 65.267833 1097.7725 68.558594 1094.9175 68.558594 1092.082 C 68.558594 1089.71 68.204166 1088.9506 66.382812 1087.418 C 64.591725 1085.9109 59.188616 1083.0898 58.09375 1083.0898 C 57.936241 1083.0898 58.574765 1084.5558 59.511719 1086.3477 C 61.093083 1089.3719 62.83537 1096.7993 62.203125 1097.8223 C 61.819782 1098.4426 63.239835 1104.0423 64.041016 1105.0684 L 64.041016 1105.0625 C 64.466974 1105.608 66.558289 1105.9004 70.017578 1105.9004 C 76.287658 1105.9004 78.991149 1104.7839 80.298828 1101.6543 C 81.433695 1098.9381 82.494047 1091.3588 83.074219 1081.8066 L 83.525391 1074.3594 L 41.042969 1074.3594 L 41.042969 1068.3184 L 79.96875 1068.3184 L 79.96875 1062.9707 L 41.041016 1062.9844 L 41.041016 1056.2383 L 77.283203 1056.2168 L 77.283203 1026.709 L 58.558594 1026.709 C 59.51071 1024.6948 60.463995 1022.6815 61.425781 1020.6719 L 78.626953 1020.6719 L 78.626953 1015.9746 L 55.808594 1015.9746 L 32.990234 1015.9746 z M 41.042969 1032.084 L 70.572266 1032.084 L 70.572266 1039.4668 L 41.042969 1039.4668 L 41.042969 1032.084 z M 41.042969 1043.4941 L 70.572266 1043.4941 L 70.572266 1050.875 L 41.042969 1050.875 L 41.042969 1043.4941 z M 49.957031 1083.9238 C 49.714244 1083.9774 49.822484 1084.6871 50.144531 1086.4609 C 50.444571 1088.1135 50.621673 1091.5351 50.539062 1094.0645 C 50.448816 1096.826 50.704724 1099.0428 51.179688 1099.6152 C 52.162274 1100.7992 54.383114 1100.2332 55.974609 1098.3926 C 58.022873 1096.0239 57.496962 1092.3727 54.576172 1088.6855 C 53.160982 1086.8991 51.462357 1084.9928 50.800781 1084.4473 C 50.374685 1084.0961 50.102704 1083.8917 49.957031 1083.9238 z M 34.501953 1084.8457 C 34.217215 1084.9272 33.685555 1085.8274 32.552734 1087.8262 C 31.320289 1090.0007 28.450655 1093.3193 25.673828 1095.7812 C 20.887058 1100.025 19.923154 1101.9681 21.714844 1103.7598 C 22.869307 1104.9144 26.759819 1104.7522 28.949219 1103.459 C 29.97892 1102.8507 31.276049 1101.402 31.830078 1100.2402 C 33.222916 1097.3193 35.15261 1088.338 34.886719 1086.0137 C 34.795374 1085.2148 34.723416 1084.7823 34.501953 1084.8457 z M 41.929688 1085.334 C 41.756472 1085.5072 41.182639 1087.7161 40.652344 1090.2422 C 40.122027 1092.7681 39.269374 1096.0273 38.759766 1097.4863 C 38.250085 1098.9454 37.984261 1100.5309 38.167969 1101.0098 C 38.670307 1102.319 42.690962 1102.0572 44.492188 1100.5977 C 46.758748 1098.7612 46.602601 1093.9259 44.113281 1088.8379 C 43.085727 1086.7377 42.10284 1085.1611 41.929688 1085.334 z "
     id="path2932" />
  <path
     style="fill:#ffffff;fill-opacity:1"
     d="m 317.36719,999.23438 -1.36328,10.06442 -13.68946,0.014 0,5.9941 12.9043,0 -1.61328,12.75 -15.31836,0 0.002,0 0,6.7285 52.41797,0.01 0,-6.7324 -8.79687,0 0,-18.7911 -18.42578,-0.051 c 0.40444,-3.1572 0.6262,-4.8125 1.11718,-8.6289 z m -28.61524,0.44921 c -0.041,0.005 -0.0691,0.0182 -0.082,0.041 -0.15034,0.26469 -0.65064,1.68951 -1.11328,3.16601 -3.21868,10.2796 -8.48312,20.2616 -14.875,28.2071 -2.24601,2.792 -4.1289,5.0918 -3.91211,5.3085 0.21693,0.2169 2.06114,1.5589 3.82617,2.7833 l 3.20899,2.2265 2.23633,-2.4844 c 5.62842,-6.2548 12.37545,-18.4685 16.16601,-29.2597 1.15319,-3.2829 2.01466,-6.0259 1.91406,-6.0899 -3.09575,-2.0456 -6.75347,-3.96684 -7.36914,-3.89843 z m 58.52735,7.56841 0,4.3632 0,4.3614 13.08593,0 13.08789,0 0,-4.3614 0,-4.3632 -13.08789,0 z m -12.75196,8.0546 0,12.75 -13.52929,0 1.71679,-12.7363 c 3.95869,0 7.80989,-0.014 11.8125,-0.014 z m -45.22851,15.4356 c -0.16408,0 -0.96864,2.0378 -1.78906,4.5293 -3.25701,9.8912 -9.14344,19.9184 -15.90039,27.0879 -2.30695,2.4478 -4.19336,4.5933 -4.19336,4.7676 0,0.1741 1.52478,1.6045 3.39062,3.1777 3.33948,2.8192 3.23334,2.8112 3.39063,2.7832 0.16613,-0.03 3.63154,-3.6839 4.62695,-5.2363 l 2.69531,-4.0528 0.006,0.01 -0.0137,45.5293 7.7168,-0.01 -0.0488,-58.1133 3.50195,-6.375 c 3.78202,-8.5701 3.89673,-8.7124 3.86133,-8.8867 -0.0252,-0.1348 -7.07977,-5.207 -7.24414,-5.207 z m 56.63672,7.3828 0,9.3945 10.73828,0 0,25.4219 c 0,21.9004 -0.14076,25.5359 -1.01758,26.2637 -0.74468,0.6177 -2.59056,0.7239 -6.87891,0.3945 -5.6297,-0.4323 -5.78144,-0.4078 -3.84765,0.6192 3.18262,1.69 6.95509,5.7236 7.79492,8.332 0.42332,1.315 0.89865,2.6156 1.05664,2.8926 l 0,0 c 0.59123,1.0367 3.42623,0.035 7.70898,-2.7207 4.59401,-2.9588 4.58008,-2.8271 4.58008,-33.6211 l 0,-27.584 10.06641,0 0,-9.3945 z m -42.95117,2.0137 0,20.8047 37.58398,0 0,-20.8047 z m 7.32031,6.375 22.95312,0 -0.008,7.7168 -22.95117,0 z m 8.11523,18.4551 0,6.041 -18.79092,0 0,6.8382 18.85343,5e-4 0,9.2636 -6.47851,0 c -5.89546,0 -1.80367,0.01 -6.27735,0.01 l 1.5918,-6.8926 -6.99805,-1.6074 -3.90625,15.8769 22.00586,0 0,14.0938 8.05274,0 0,-14.0938 21.47656,0 0,-7.3828 -21.47656,0 0,-9.3945 18.12109,0 0,-6.7109 -18.12109,0 0,-6.041 z m -18.09961,13.6523 z"
     id="path2930"
     inkscape:connector-curvature="0"
     sodipodi:nodetypes="cccccccccccccccccccsccccscsccccccccccscccsscsccccccccccscccccccccccsccccccccccccccccccccccccccccccccccccccccccc" />
  <path
     style="fill:#ffffff;fill-opacity:1"
     d="M 420.83398 995.53906 C 420.16058 995.61889 419.13602 996.23501 417.16211 997.60547 C 415.10285 999.03518 413.41716 1000.3912 413.41016 1000.6172 C 413.40577 1000.8434 414.31539 1002.1759 415.42969 1003.5781 C 416.54405 1004.9803 418.3857 1007.7536 419.52344 1009.7422 C 421.47182 1013.1475 421.67694 1013.3047 423.03516 1012.4453 C 423.8283 1011.9435 425.60797 1010.848 426.99219 1010.0098 C 428.37634 1009.1716 429.50977 1008.1099 429.50977 1007.6523 C 429.50977 1006.8256 423.50169 997.69276 421.79688 995.92773 C 421.51525 995.63618 421.23803 995.49117 420.83398 995.53906 z M 450.31445 1001.8848 L 450.31445 1069.668 L 467.70508 1069.668 L 466.76172 1072.3359 C 463.59731 1081.3048 450.45921 1093.9485 438.87695 1099.1699 C 436.86239 1100.0781 435.09926 1100.8972 434.95898 1100.9902 C 434.81864 1101.0837 436.28272 1102.9848 438.21289 1105.2129 C 440.14314 1107.441 442.22079 1109.2617 442.83008 1109.2617 C 444.4396 1109.2592 451.29725 1104.9878 456.48047 1100.7598 C 462.84132 1095.5713 470.89486 1085.3968 473.77539 1078.9121 L 475.05078 1076.043 L 475.13672 1083.0898 C 475.18419 1086.9655 475.45347 1093.2491 475.73828 1097.0527 C 476.20736 1103.3213 476.42543 1104.1376 478.06641 1105.7773 L 479.87695 1107.5859 L 493.78711 1107.5859 C 506.53382 1107.5859 507.95165 1107.4668 510.76367 1106.166 C 512.92551 1105.1659 514.16548 1104.045 514.95898 1102.373 C 516.55574 1099.008 516.37127 1097.4615 514.02734 1094.5449 C 511.91325 1091.9143 509.38458 1085.0258 509.36328 1081.8555 C 509.35762 1080.8734 509.09581 1079.6626 508.78125 1079.166 C 508.06788 1078.0404 507.56417 1079.8707 506.6875 1086.7852 C 505.37143 1097.1654 503.56625 1098.8613 493.82617 1098.8613 C 484.48809 1098.8613 484.92568 1099.6164 484.66992 1083.0664 L 484.46289 1069.668 L 499.97656 1069.668 L 499.97656 1001.8848 L 450.31445 1001.8848 z M 460.38086 1011.9512 L 489.91016 1011.9512 L 489.91016 1022.6895 L 460.38086 1022.6895 L 460.38086 1011.9512 z M 402.66406 1015.9766 L 402.66406 1024.7012 L 430.19531 1024.7012 L 427.57812 1029.9023 C 426.13786 1032.763 423.5292 1037.0675 421.78125 1039.4668 C 417.85614 1044.8545 407.54061 1055.034 402.46289 1058.5312 L 398.67578 1061.1387 L 405.80664 1069.4141 L 417.09375 1059.5156 L 417.44727 1107.25 L 426.13672 1107.25 L 426.49023 1057.9355 L 431.47461 1063.9688 C 434.21634 1067.2873 436.56388 1070.1346 436.69141 1070.2969 C 437.05131 1070.7557 443.60352 1064.1055 443.60352 1063.2812 C 443.60352 1062.8787 440.14838 1059.084 435.92578 1054.8496 L 428.24805 1047.1523 L 431.98633 1041.4629 C 435.75338 1035.7291 442.23065 1023.1066 442.25195 1021.4688 C 442.25727 1020.9828 441.47048 1019.5485 440.50391 1018.2812 L 438.74609 1015.9766 L 402.66406 1015.9766 z M 460.38086 1030.7422 L 489.91016 1030.7422 L 489.91016 1040.8086 L 460.38086 1040.8086 L 460.38086 1030.7422 z M 460.38086 1048.8613 L 489.91016 1048.8613 L 489.91016 1059.5996 L 460.38086 1059.5996 L 460.38086 1048.8613 z "
     id="path2926" />
  <path
     sodipodi:nodetypes="ccccc"
     id="path14"
     d="m 4.879e-4,1145.789 909.2140021,0 0,3.8424 -909.2140021,0.013 z"
     inkscape:connector-curvature="0"
     style="opacity:1;fill:#ffffff;fill-opacity:1" />
  <g
     id="g5688"
     transform="translate(16.393123,0)"
     style="fill:#ffffff;fill-opacity:1">
    <path
       style="opacity:1;fill:#ffffff;fill-opacity:1"
       inkscape:connector-curvature="0"
       d="m 142.64987,1186.4238 c 7.04457,-1.0548 13.90078,-3.4787 21.09604,-3.3908 0.3516,14.9933 -0.21348,29.9995 0.18835,44.9927 4.43268,-0.2762 7.54686,-3.7546 11.54004,-5.2489 4.68382,-2.2854 10.0834,-2.0468 15.13138,-1.5822 7.98636,1.2432 12.88365,9.1416 14.32772,16.5127 0.60275,12.2684 0.0879,24.5869 0.28882,36.8678 0.0628,1.8083 0.64041,3.5286 1.0548,5.274 3.22719,1.08 6.31625,2.5115 9.1165,4.4453 -3.81738,3.2774 -8.95326,1.9338 -13.53662,2.0845 -5.12332,-0.1507 -10.23409,0.1883 -15.34486,0.088 -0.55251,-0.4521 -1.65754,-1.3436 -2.21006,-1.7957 1.95892,-2.8882 5.78886,-3.2774 8.1496,-5.6507 1.69522,-1.419 1.05481,-3.7797 1.24316,-5.701 -0.0879,-9.2546 -0.0502,-18.5218 -0.0126,-27.789 0,-5.3493 -1.63244,-11.2512 -6.25347,-14.4658 -5.01031,-3.717 -11.92931,-2.5491 -17.1782,0.063 -2.85048,1.5571 -6.61763,3.4407 -6.41671,7.2581 -0.0753,13.4487 -0.0879,26.8974 0.0753,40.3462 3.32765,1.8333 6.66785,3.6541 9.74436,5.9144 -3.41555,2.8128 -7.94869,1.5445 -11.97954,1.7454 -5.48748,-0.2888 -10.98751,0.3893 -16.46244,-0.075 -0.66553,-0.427 -1.99659,-1.306 -2.66212,-1.7329 3.08907,-2.2603 6.80599,-3.629 9.53089,-6.379 0.69065,-26.3324 0.0251,-52.7276 0.28882,-79.0851 -0.21348,-2.2603 0.56507,-5.0605 -1.33106,-6.7934 -2.77514,-1.6073 -5.93954,-2.3231 -8.92815,-3.4281 0.12557,-0.6153 0.40183,-1.8585 0.53996,-2.4738 z"
       id="path16"
       sodipodi:nodetypes="cccccccccccccccccccccccccccc" />
    <path
       style="opacity:1;fill:#ffffff;fill-opacity:1"
       inkscape:connector-curvature="0"
       d="m 438.25807,1186.449 c 5.11076,-2.4236 9.50577,2.2351 11.6656,6.4041 0.0126,6.7683 -8.37562,11.3391 -13.81288,6.8939 -2.637,-4.0183 -2.42353,-10.7113 2.14728,-13.298 z"
       id="path18" />
    <path
       d="m 569.19162,1193.368 c 13.46128,-6.2284 28.96938,-5.9773 43.27198,-3.2272 3.2272,0.6781 7.23293,0.9794 8.99093,4.2568 0.82878,5.814 1.93381,11.5903 3.00117,17.3666 -0.81622,0.766 -2.44865,2.2854 -3.27742,3.0514 -3.42811,-5.8014 -5.11077,-13.0092 -11.05031,-16.9647 -8.53887,-5.3494 -19.35059,-5.1987 -28.88147,-3.1017 -11.75351,2.5491 -21.48531,12.1428 -24.52415,23.7456 -3.3402,8.5389 -2.95093,17.8187 -2.48631,26.8096 1.94636,12.7078 7.05712,26.4705 18.94876,33.0253 8.09937,4.0183 17.68048,7.032 26.67141,4.3699 6.35393,-1.6701 12.73297,-4.7968 16.55034,-10.3345 2.59934,-3.4784 4.18154,-7.5846 6.70553,-11.1006 1.43152,-0.1004 2.87559,-0.1255 4.33222,-0.075 -2.85047,7.4841 -3.89272,15.9727 -8.56398,22.5778 -12.01721,5.0228 -25.26502,4.8219 -38.01054,3.9932 -13.08456,-2.7124 -26.26959,-9.0538 -33.59041,-20.7319 -3.72948,-6.5423 -7.07889,-13.7125 -7.10736,-21.3974 -0.0217,-5.8768 -0.55594,-11.8363 0.5274,-17.6428 2.86042,-15.3315 14.25238,-28.4671 28.49221,-34.6201 z"
       id="path20"
       inkscape:connector-curvature="0"
       style="opacity:1;fill:#ffffff;fill-opacity:1"
       sodipodi:nodetypes="cccccccccccccccccssc" />
    <path
       style="opacity:1;fill:#ffffff;fill-opacity:1"
       inkscape:connector-curvature="0"
       d="m 629.41578,1190.9821 c 6.73064,-0.6404 13.5115,0.1005 20.26726,-0.063 15.47042,17.5926 30.06185,35.9512 45.34392,53.7196 4.47035,5.0605 8.08681,10.8996 13.07201,15.4955 0.7911,0.1381 2.3733,0.4395 3.1644,0.5776 0.0126,-16.3243 0.10046,-32.6486 -0.11301,-48.9729 -0.18836,-4.3322 0.1758,-8.8779 -1.65755,-12.9213 -3.64158,-3.8425 -9.35509,-3.9807 -13.86311,-6.3288 2.24773,-1.0674 4.48291,-2.8505 7.14503,-2.2729 9.07883,1.3436 18.25811,0.2637 27.38717,0.5274 -0.11301,1.1553 -0.22603,2.298 -0.32648,3.4532 -3.85505,0.9544 -9.40532,1.4818 -10.49779,6.1154 -2.46121,8.5891 -1.59476,17.6428 -1.75801,26.4705 -0.10045,20.0035 0.23859,40.0197 -0.28881,60.0232 -1.04224,-0.1758 -3.12673,-0.5148 -4.16898,-0.6906 -5.75118,-6.5925 -11.314,-13.3734 -16.66336,-20.305 -14.32772,-17.1531 -28.86892,-34.1303 -42.56878,-51.7983 -0.90412,-1.444 -2.71235,-1.4692 -4.15642,-1.9338 -0.13813,14.4031 -0.12557,28.8062 0.0628,43.2092 1.04225,6.9693 0.30138,14.0766 1.34362,21.0333 2.7249,5.7009 10.22153,4.4201 14.47841,8.2249 -1.55709,1.419 -3.35276,2.0845 -5.39958,1.9841 -9.2923,-0.2135 -18.59716,-0.2637 -27.88946,0.088 -0.47717,-1.2683 -0.7911,-2.5617 -0.95435,-3.9053 3.98062,-1.419 9.88249,-1.8459 11.06287,-6.8186 1.54453,-5.726 0.71575,-11.8037 1.56964,-17.6553 0.3516,-15.5207 0,-31.0665 0.18836,-46.5997 0.15068,-4.7717 -0.5274,-10.1462 -4.13131,-13.6371 -3.2523,-2.4737 -7.50918,-2.9886 -10.98752,-5.0479 0.0879,-0.4898 0.25115,-1.4818 0.33905,-1.9715 z"
       id="path22" />
    <path
       style="opacity:1;fill:#ffffff;fill-opacity:1"
       inkscape:connector-curvature="0"
       d="m 736.93021,1190.8063 c 20.30494,0.1884 40.62243,-0.4144 60.92736,0.1884 2.61189,-0.314 2.56167,2.6746 3.08907,4.4577 0.65297,5.5754 0.71575,11.2262 0.4395,16.8266 -1.04225,-0.113 -2.08449,-0.2134 -3.12674,-0.3139 -1.69521,-6.0651 -3.49089,-14.2147 -10.81171,-15.5332 -7.59709,-0.992 -15.31974,-0.4772 -22.96706,-0.4395 -2.49887,-0.3139 -4.43268,2.185 -4.20665,4.5206 -0.0251,9.556 0.0251,19.1245 -0.0251,28.6805 -0.45206,3.0012 2.61189,5.048 5.37446,4.5081 6.85622,-0.2888 14.1017,0.9669 20.68165,-1.3939 3.18952,-2.524 3.76715,-7.1073 5.57538,-10.5982 4.75917,2.0217 2.76258,7.3208 3.02628,11.3642 -0.20091,4.9852 0.28882,9.9704 0.0251,14.9556 -0.879,1.1176 -1.80823,2.1849 -2.80024,3.1895 -2.44865,-4.7089 -3.64158,-12.0423 -10.30943,-12.1177 -7.15759,0.5651 -15.1565,-1.9589 -21.62344,1.9339 0.23859,9.0537 -0.0879,18.1199 0.16324,27.1611 0.66553,4.2569 1.07992,10.1085 5.92698,11.6656 6.22836,1.9087 12.8711,1.4441 19.28781,1.0925 4.57081,-0.7409 10.02061,-0.7283 13.23525,-4.6336 2.97605,-3.83 4.21921,-8.6645 6.89388,-12.6828 0.879,-0.013 2.64956,-0.025 3.52856,-0.038 -0.59018,6.3413 -2.67467,12.4065 -4.24432,18.5343 -0.42694,2.0971 -1.82079,4.3072 -4.23176,4.1565 -21.47275,0.5776 -42.97062,-0.4772 -64.44337,0.4018 -0.25114,-0.9543 -0.75343,-2.8505 -1.00457,-3.7923 5.18611,-1.2306 12.30602,-2.2226 13.21014,-8.7021 0.31393,-22.088 -0.0251,-44.2012 0.13813,-66.3018 -0.12558,-3.0765 0.46461,-6.5046 -1.50686,-9.1542 -1.95892,-3.3276 -6.17813,-3.7169 -9.58112,-4.4954 -0.22603,-1.1553 -0.4395,-2.298 -0.64042,-3.4407 z"
       id="path24" />
    <path
       style="opacity:1;fill:#ffffff;fill-opacity:1"
       inkscape:connector-curvature="0"
       d="m 68.524932,1191.0826 c 5.500038,-0.7786 11.037747,-0.1131 16.550342,-0.1884 10.372217,0.063 20.794666,-0.8664 31.116656,0.3767 6.95667,1.8459 14.56631,4.4452 18.86086,10.6234 5.67583,9.2044 5.16099,21.636 -0.18836,30.878 -4.01829,6.2409 -11.00008,9.5812 -17.63026,12.3312 -6.44182,1.9212 -13.39849,1.6575 -19.978447,0.5902 -1.720331,-0.3391 -3.428106,0.2762 -5.13588,0.4646 0.477172,10.0708 -1.004573,20.3426 1.393845,30.2376 1.732889,5.8768 9.279742,4.4704 13.611962,7.0069 -0.0502,0.7283 -0.12557,2.1724 -0.16324,2.9007 -9.807144,0.4772 -19.626846,-0.226 -29.433992,0.113 -3.516005,-0.063 -7.509184,0.8665 -10.334546,-1.8207 3.352763,-3.4533 9.279745,-2.8003 11.979535,-6.9567 1.318502,-4.6964 1.368731,-9.6062 1.381288,-14.4533 -0.05023,-17.1531 -0.02511,-34.3062 -0.03767,-51.4718 -0.02511,-4.395 -0.150685,-8.8779 -1.456631,-13.1097 -2.52399,-3.9178 -8.8528,-2.9007 -10.53546,-7.5217 m 28.492205,3.9555 c -2.398418,0.7785 -5.211223,2.5867 -4.847065,5.4874 0.01256,11.6531 -0.03767,23.3061 0,34.9466 -0.40183,2.9384 2.473761,4.709 4.960079,5.274 6.366477,1.419 13.549177,0.766 18.986427,-3.1016 4.64615,-2.9886 7.19526,-8.3128 8.56399,-13.4864 0.3516,-6.5548 1.33106,-13.838 -2.51143,-19.6268 -4.77173,-8.79 -16.14852,-10.2969 -25.152001,-9.4932 z"
       id="path26" />
    <path
       style="opacity:1;fill:#ffffff;fill-opacity:1"
       inkscape:connector-curvature="0"
       d="m 386.08305,1221.835 c 6.80599,-1.7077 15.21929,-1.7831 20.40539,3.7295 2.27285,2.8505 4.67127,6.1154 4.6336,9.9327 0.41438,14.0138 -0.30137,28.0527 0.31393,42.0414 2.27284,3.2398 6.35392,4.5332 9.2923,7.0948 -2.88815,2.637 -6.89389,1.6576 -10.42245,1.7706 -5.93954,-0.2763 -11.89163,0.339 -17.80606,-0.025 -0.7032,-0.4521 -2.1096,-1.3436 -2.8128,-1.7957 3.39043,-2.3859 7.17014,-4.0936 10.73637,-6.1656 0.18836,-11.3642 0.0251,-22.7284 0.12558,-34.1052 0.0377,-5.6884 -2.39842,-12.2056 -8.12449,-14.3529 -5.50004,-2.6244 -11.82885,-0.4395 -16.77637,2.3859 -2.86303,1.8836 -6.78087,4.2066 -6.01488,8.2249 0.32648,11.9168 -0.4395,23.9214 0.37671,35.8005 0.5274,5.5628 9.83226,4.1062 8.61422,10.1211 -7.01946,0 -14.03891,-0.2888 -21.05837,-0.025 -3.18952,0.025 -6.75575,0.6153 -9.22951,-1.9338 3.55367,-3.3277 11.69072,-3.6291 10.93729,-10.0081 -0.0377,-12.9464 0.0377,-25.8929 -0.0251,-38.8393 -0.0251,-4.935 -5.87675,-5.8014 -9.39276,-7.4213 0.28882,-0.7283 0.89156,-2.1724 1.18038,-2.8881 5.66328,-1.1804 11.32656,-2.3608 16.81404,-4.2067 3.05139,1.4566 1.51942,5.1359 1.90869,7.798 6.42927,0.5149 10.38477,-5.6884 16.32431,-7.1325 z"
       id="path28" />
    <path
       style="opacity:1;fill:#ffffff;fill-opacity:1"
       inkscape:connector-curvature="0"
       d="m 239.96789,1221.9606 c 8.65189,-2.2728 18.50926,-1.6701 26.30726,3.0263 6.29114,4.508 11.82885,10.6485 13.61197,18.3837 3.65413,8.9407 1.2306,18.9111 -2.54911,27.3746 -5.90187,10.1713 -17.0903,18.572 -29.33353,17.2912 -16.71359,-0.1883 -31.78219,-15.483 -30.7525,-32.3598 -1.09247,-14.7923 8.97837,-28.7685 22.71591,-33.716 m 7.3585,3.0012 c -11.30145,1.5194 -17.39167,13.9008 -17.07774,24.3483 -0.62786,8.1371 1.38129,16.249 5.06053,23.4945 3.15185,6.1781 9.81971,10.5354 16.71359,10.9373 6.2158,-0.9921 11.80373,-5.6131 13.80032,-11.6405 5.02287,-11.8163 3.46578,-25.579 -2.48632,-36.7423 -3.17696,-5.7261 -9.31741,-10.3345 -16.01038,-10.3973 z"
       id="path30" />
    <path
       d="m 309.35878,1223.8693 c 5.36191,-3.3528 11.87908,-3.403 17.95674,-2.7123 7.96125,1.6952 13.95101,8.5137 16.09829,16.1736 1.16782,2.8002 1.01713,7.2957 -2.23518,8.5263 -13.35033,3.4017 -26.03633,2.6867 -38.38725,3.943 -1.33106,9.8197 3.23975,19.9282 11.66561,25.1896 4.03085,3.1895 9.40531,3.0891 14.27749,2.8379 4.62104,-0.1004 8.07426,-3.6164 11.87908,-5.7763 1.30595,1.5571 2.05938,4.0435 0.10046,5.475 -6.79343,6.5548 -16.07317,12.306 -25.91799,10.0331 -8.01147,-2.0844 -15.93504,-6.919 -19.66452,-14.5788 -8.16215,-16.7764 -2.36074,-39.756 14.22727,-49.1111 m 7.25804,2.1724 c -6.96923,2.6621 -13.49895,9.3174 -12.69529,17.2787 7.87792,-0.1392 16.32538,-0.2979 23.51957,-0.7032 2.24774,-0.1159 4.395,-1.2055 4.23176,-3.403 0.0251,-7.5092 -7.25804,-14.9933 -15.05604,-13.1725 z"
       id="path32"
       inkscape:connector-curvature="0"
       style="opacity:1;fill:#ffffff;fill-opacity:1"
       sodipodi:nodetypes="ccccccccccccccccc" />
    <path
       style="opacity:1;fill:#ffffff;fill-opacity:1"
       inkscape:connector-curvature="0"
       d="m 435.45782,1223.794 c 3.35276,-0.6781 6.50461,-2.2478 9.93272,-2.6245 1.39384,0.7534 2.00914,1.9087 1.87102,3.4532 -0.0126,17.9442 -0.25115,35.8884 0.12557,53.8075 4.44523,3.1895 10.13363,5.5503 15.54577,3.29 6.27858,-1.2432 9.83226,-6.9065 13.31059,-11.7033 2.88815,-4.1816 6.27858,-7.9989 8.99093,-12.306 1.34362,-3.9807 -1.74545,-7.2455 -3.67925,-10.3597 -3.80482,-5.4749 -6.96923,-11.3768 -11.0503,-16.6382 -2.67468,-3.7421 -9.64391,-2.9635 -9.99551,-8.3254 6.27859,-0.2512 12.56972,0.2385 18.86086,-0.025 2.96349,0.05 6.26603,-0.7283 8.77746,1.3311 -1.3185,2.5617 -5.88931,4.9601 -3.79226,8.2375 2.51143,4.0309 4.80939,8.3003 8.03658,11.8163 2.24774,0.6027 3.18952,-2.0594 4.42012,-3.403 2.02171,-3.3025 4.5457,-6.4041 5.8642,-10.0708 -0.55252,-2.8756 -2.61189,-5.1987 -3.81738,-7.8106 8.1496,0.038 16.32432,-0.4144 24.47391,0.1005 -0.91667,3.8801 -5.21122,4.0057 -8.22494,5.3368 -4.62103,1.4943 -7.23292,5.8642 -10.13363,9.4178 -2.97605,3.943 -6.19068,7.7604 -8.52631,12.1177 1.15526,3.9806 4.09363,7.0697 6.19068,10.5731 4.06852,5.6131 7.2706,11.8414 11.64049,17.241 2.87559,3.5537 7.67243,4.1188 11.85396,5.0354 0.0879,1.3562 0.1758,2.7124 0.28882,4.0811 -10.19642,0.1758 -20.39284,-0.1004 -30.58925,0.063 -0.12558,-3.8676 3.39043,-5.6256 5.92698,-7.8357 -4.1062,-5.9772 -7.48407,-12.4567 -12.28091,-17.9316 -5.11077,5.2238 -7.60964,12.3186 -12.30602,17.894 2.22262,2.2979 4.75917,4.2192 7.22037,6.2409 -1.48175,1.1552 -3.13929,1.7077 -4.98519,1.6575 -17.21588,-0.025 -34.45686,0 -51.67273,-0.1004 -0.65298,-0.4521 -1.98404,-1.3437 -2.63701,-1.7957 3.22719,-3.3026 10.42245,-3.1644 10.54802,-8.79 0.25114,-12.1554 -0.0126,-24.3233 0.11301,-36.4786 0.0879,-2.6621 -0.42694,-5.2614 -0.9669,-7.8482 -2.96349,-1.0548 -5.88931,-2.1975 -8.79001,-3.403 1.59476,-3.9304 6.03999,-3.2774 9.45554,-4.2443 z"
       id="path34" />
  </g>
</svg>
