<svg height="194.56801" viewBox="0 0 125.74411 51.480698" width="475.25345" xmlns="http://www.w3.org/2000/svg" xmlns:xlink="http://www.w3.org/1999/xlink"><radialGradient id="a" cx="260.15677" cy="114.34045" gradientTransform="matrix(-1.8652852 -.49980165 .16464541 -.61446503 726.59779 367.04068)" gradientUnits="userSpaceOnUse" r="79.37603"><stop offset="0" stop-color="#c29fd1"/><stop offset=".45727444" stop-color="#bc96ce"/><stop offset=".67949665" stop-color="#a06eba"/><stop offset=".84616333" stop-color="#a36fbd"/><stop offset="1" stop-color="#a777c1"/></radialGradient><g fill="url(#a)" transform="translate(-195.03699 -166.17)"><path d="m225.48 171.25c-3.2889-3.0029-7.1096-4.5267-11.355-4.5267h-18.442c-.36196 0-.64795.29046-.64795.64795v48.632c0 .35749.28599.64795.64795.64795h7.9318c.35749 0 .64795-.29046.64795-.64795v-16.4c0-.17428.143-.31281.3128-.31281h9.5495c4.3435 0 8.1642-1.5461 11.359-4.5982 3.2889-3.0789 4.9602-6.9979 4.9602-11.65 0-4.8172-1.6713-8.7853-4.9646-11.793m-11.779 19.662h-9.125c-.1698 0-.3128-.13852-.3128-.30833v-15.189c0-.17427.143-.3128.3128-.3128h9.125c3.7715 0 7.5833 2.7259 7.5833 7.9408 0 5.1657-3.8117 7.8692-7.5833 7.8692"/><path d="m239.63 166.17c-2.9716 0-5.2953 2.2924-5.2953 5.2194s2.3237 5.2238 5.2953 5.2238c1.3942 0 2.699-.53624 3.6866-1.5104.98757-.97863 1.5327-2.2969 1.5327-3.7134 0-1.4121-.54517-2.7303-1.5327-3.7134-.98757-.96969-2.2924-1.5059-3.6866-1.5059"/><path d="m243.42 180.47h-7.5743c-.35749 0-.65242.29047-.65242.64796v34.9c0 .35749.29493.64794.65242.64794h7.5743c.36195 0 .65242-.29045.65242-.64794v-34.9c0-.35749-.29047-.64796-.65242-.64796"/><path d="m277.91 206.05c-.12066-.12958-.28599-.20108-.46474-.20108-.17428 0-.33515.067-.4558.18768-2.3639 2.3326-5.273 3.5168-8.6513 3.5168-3.0655 0-5.6841-1.0591-7.7754-3.1504-2.0422-2.1136-3.0834-4.7814-3.0834-7.9184 0-3.1414 1.0412-5.8092 3.0878-7.9229 2.0868-2.0913 4.7055-3.1504 7.771-3.1504 3.3783 0 6.2874 1.1842 8.6513 3.5168.12065.12065.28152.18768.4558.18768.17875 0 .34408-.0715.46474-.20109l4.6072-4.7904c.24131-.25471.24131-.64795 0-.89819-1.9036-1.9617-4.0575-3.4542-6.3991-4.4329-2.355-.97863-4.9691-1.4746-7.7799-1.4746-5.4741 0-10.18 1.859-13.987 5.5232-1.8902 1.8187-3.3291 3.8877-4.2675 6.1488-.93395 2.2567-1.4076 4.777-1.4076 7.4939 0 5.4741 1.9081 10.086 5.6752 13.71 3.7581 3.6196 8.468 5.4562 13.987 5.4562 2.8108 0 5.4249-.50048 7.7799-1.4791 2.3416-.97863 4.4954-2.4712 6.3991-4.4284.24131-.25471.24131-.64795 0-.90267z"/><path d="m320.62 215.57-16.078-18.062c-.10281-.11618-.10281-.29493 0-.41111l13.799-15.564c.17429-.19662.21451-.46027.10722-.69711-.10722-.23683-.33514-.3843-.58986-.3843h-8.5396c-.18768 0-.36196.0804-.48708.21897l-12.561 14.112c-.076.0894-.16981.10725-.2279.10725-.1564 0-.31727-.11619-.31727-.3128v-27.205c0-.35749-.29046-.65242-.64795-.65242h-7.5073c-.36195 0-.65242.29493-.65242.65242v48.628c0 .3575.29047.64796.65242.64796h7.5073c.35749 0 .64795-.29046.64795-.64796v-8.9104c0-.076.0268-.14747.076-.20556l3.1191-3.4632c.0581-.067.14299-.10725.23238-.10725.0894 0 .16979.0357.23236.10277l11.578 13.022c.12065.13406.29493.21003.47813.21003h8.6915c.25918 0 .48262-.143.58986-.37984.10722-.23683.0671-.50495-.10282-.6971"/></g></svg>