<svg width="177.19mm" height="206.43mm" version="1.1" viewBox="0 0 177.19 206.43" xmlns="http://www.w3.org/2000/svg">
 <defs>
  <clipPath id="a">
   <path d="m0 0h841.89v595.28h-841.89z"/>
  </clipPath>
 </defs>
 <g transform="translate(16.983 57.439)" fill="#fff">
  <path transform="matrix(.26458 0 0 .26458 -19.617 -59.908)" d="m9.957 9.3301v671.63h661.84v-671.63z"/>
  <g transform="matrix(12.763 0 0 -12.763 -16.872 148.47)">
   <path d="m0 0v1.538h0.701c0.418 0 0.62-0.202 0.62-0.518 0-0.332-0.186-0.542-0.604-0.542h-0.24v-0.478zm0.675 0.838c0.111 0 0.192 0.046 0.192 0.179 0 0.143-0.154 0.162-0.255 0.162h-0.135v-0.341h0.198" fill="#fff"/>
  </g>
  <g transform="matrix(12.763 0 0 -12.763 1.7177 148.47)">
   <path d="m0 0v1.538h0.477v-1.179h0.654v-0.359z" fill="#fff"/>
  </g>
  <g transform="matrix(12.763 0 0 -12.763 16.724 148.47)">
   <path d="m0 0 0.521 1.538h0.485l0.521-1.538h-0.474l-0.057 0.202h-0.475l-0.055-0.202zm0.759 1.075-0.147-0.552h0.301z" fill="#fff"/>
  </g>
  <g transform="matrix(12.763 0 0 -12.763 47.173 148.47)">
   <path d="m0 0h-0.477v0.56l-0.541 0.978h0.533l0.251-0.521 0.25 0.521h0.526l-0.542-0.97z" fill="#fff"/>
  </g>
  <g transform="matrix(12.763 0 0 -12.763 64.548 148.47)">
   <path d="m0 0c0.378 0 0.626 0.119 0.626 0.464 0 0.166-0.084 0.309-0.242 0.353 0.093 0.061 0.19 0.176 0.19 0.334 0 0.306-0.261 0.387-0.588 0.387h-0.695v-1.538zm-0.065 1.179c0.102 0 0.195-1e-3 0.195-0.122 0-0.089-0.069-0.134-0.164-0.134h-0.198v0.256zm-0.016-0.536c0.152 0 0.263-9e-3 0.263-0.143 0-0.115-0.089-0.141-0.206-0.141h-0.208v0.284h0.151" fill="#fff"/>
  </g>
  <g transform="matrix(12.763 0 0 -12.763 83.911 128.32)">
   <path d="m0 0c-0.452 0-0.761-0.314-0.761-0.797 0-0.524 0.305-0.823 0.761-0.823 0.43 0 0.763 0.295 0.763 0.818 0 0.407-0.244 0.802-0.763 0.802m-4e-3 -0.376c0.21 6e-3 0.291-0.216 0.291-0.426 0-0.254-0.081-0.442-0.287-0.442-0.228 0-0.285 0.246-0.285 0.442 0 0.195 0.065 0.426 0.281 0.426" fill="#fff"/>
  </g>
  <g transform="matrix(12.763 0 0 -12.763 107.21 148.47)">
   <path d="m0 0h-0.477v0.56l-0.541 0.978h0.533l0.251-0.521 0.251 0.521h0.525l-0.542-0.97z" fill="#fff"/>
  </g>
  <g transform="matrix(12.763 0 0 -12.763 123.45 128.84)">
   <path d="m0 0h1.333v-0.404h-0.428v-1.134h-0.477v1.134h-0.428z" fill="#fff"/>
  </g>
  <g transform="matrix(12.763 0 0 -12.763 141.32 128.84)">
   <path d="m0 0h0.481l0.254-1.024 0.265 1.024h0.48l-0.504-1.538h-0.479z" fill="#fff"/>
  </g>
  <g transform="matrix(12.763 0 0 -12.763 -8090.8 4182.6)">
   <g clip-path="url(#a)" fill="#fff">
    <path transform="matrix(.020731 0 0 -.020731 662.37 323.53)" d="m-1312.6-416.75c29.35 71.728 82.761 134.38 144.26 192.92 68.447 59.475 153.29 82.145 232.16 116.1-89.286 7.0907-172.64 25.518-236.65 89.238-44.619 39.65-69.894 102.6-55.037 151.56 18.759 54.576 103.16 96.468 170.29 116.23h281.39v-666.05h-4.3691c-19.165 27.93-34.395 57.424-44.018 88.1-28.266 66.566-25.324 144.47-29.762 219.52-70.514-108.58-163-219.94-270.98-307.62zm241.36 387.36c18.531-0.20145 37.31 9.1231 44.281 27.928 4.486 15.58 4e-4 33.957-11.914 45.293-13.41 11.336-32.753 15.581-49.106 8.4902-16.352-7.0425-25.276-22.623-26.772-38.203 0-18.426 10.42-35.454 28.268-41.098 4.8854-1.5511 10.054-2.3538 15.242-2.4102z" fill="#231f20"/>
   </g>
  </g>
 </g>
</svg>
