<?xml version="1.0" encoding="UTF-8" standalone="no"?>
<svg
   xmlns:dc="http://purl.org/dc/elements/1.1/"
   xmlns:cc="http://creativecommons.org/ns#"
   xmlns:rdf="http://www.w3.org/1999/02/22-rdf-syntax-ns#"
   xmlns:svg="http://www.w3.org/2000/svg"
   xmlns="http://www.w3.org/2000/svg"
   xmlns:sodipodi="http://sodipodi.sourceforge.net/DTD/sodipodi-0.dtd"
   xmlns:inkscape="http://www.inkscape.org/namespaces/inkscape"
   width="285.45084pt"
   height="250.48035pt"
   viewBox="0 0 285.45083 250.48034"
   version="1.1"
   id="svg2"
   inkscape:version="0.91 r13725"
   sodipodi:docname="Playboy TV Chat.svg">
  <metadata
     id="metadata42">
    <rdf:RDF>
      <cc:Work
         rdf:about="">
        <dc:format>image/svg+xml</dc:format>
        <dc:type
           rdf:resource="http://purl.org/dc/dcmitype/StillImage" />
        <dc:title />
      </cc:Work>
    </rdf:RDF>
  </metadata>
  <defs
     id="defs40" />
  <sodipodi:namedview
     pagecolor="#ffffff"
     bordercolor="#666666"
     borderopacity="1"
     objecttolerance="10"
     gridtolerance="10"
     guidetolerance="10"
     inkscape:pageopacity="0"
     inkscape:pageshadow="2"
     inkscape:window-width="1920"
     inkscape:window-height="1017"
     id="namedview38"
     showgrid="false"
     fit-margin-top="0"
     fit-margin-left="0"
     fit-margin-right="0"
     fit-margin-bottom="0"
     inkscape:zoom="1.4142136"
     inkscape:cx="166.50696"
     inkscape:cy="162.32042"
     inkscape:window-x="-8"
     inkscape:window-y="-8"
     inkscape:window-maximized="1"
     inkscape:current-layer="svg2" />
  <g
     id="#000000ff"
     transform="translate(-53.654593,-62.989993)" />
  <g
     id="g4191"
     transform="matrix(0.95207153,0,0,0.95207153,-0.08524165,-123.85466)"
     style="fill:#ffffff;fill-opacity:1">
    <path
       d="m 148.37,323.18 1.0409,0 c 0.38979,0 0.71502,0 1.039,0.0652 0.26129,0.0645 0.45557,0.32523 0.45557,0.64923 0,0.0652 0,0.19489 -0.0658,0.26006 0,0.0652 0,0.19551 -0.0658,0.26006 l 0,0.12973 c 0,0.0652 -0.0627,0.0652 -0.0627,0.12972 -0.0658,0.0645 -0.0658,0.19489 -0.0658,0.26068 -0.0658,0.0633 -0.0658,0.12849 -0.0658,0.12849 l -3.5738,5.8486 -0.38856,0 -3.2486,-4.2882 c -0.52012,-0.64923 -0.65169,-1.2985 -0.78018,-1.6889 -0.19551,-0.3904 -0.25945,-0.71502 -0.25945,-1.0402 0,-0.324 0.12788,-0.51951 0.38794,-0.58468 0.19612,-0.12972 0.52012,-0.12972 0.84535,-0.12972 l 1.039,0 0,-9.227 -22.285,0 0,9.227 0.58345,0 c 1.1687,0 2.0141,0.19489 2.5342,0.64862 0.51951,0.45557 1.039,1.0402 1.43,1.8204 0.0645,0.12972 0.0645,0.19427 0.12849,0.32523 0.0652,0.0652 0.13157,0.19489 0.19674,0.25944 l 4.3522,6.8876 6.3023,9.6173 0.0658,5.4588 0,0.45372 c 0,0.97447 -0.19428,1.5598 -0.51951,1.8192 -0.38978,0.19551 -0.71317,0.32523 -1.1048,0.32523 l -2.9892,0 0,9.1624 23.002,0 0,-9.1624 -2.9886,0 c -0.32584,0 -0.65107,-0.12972 -0.97323,-0.32523 -0.26006,-0.1291 -0.39163,-0.7144 -0.39163,-1.6237 l 0,-6.3036 7.5369,-13.97 c 0.32584,-0.64984 0.45372,-1.3642 0.71686,-1.8844 0.19428,-0.58468 0.38855,-1.0396 0.58222,-1.4288 0.32523,-0.71563 0.71685,-1.3003 1.1706,-1.6243 0.39163,-0.32585 1.1054,-0.45557 1.9495,-0.45557 l 1.7534,0 0,-9.227 -17.284,0 0,9.227 z"
       id="path14-3"
       inkscape:connector-curvature="0"
       style="fill-rule:evenodd;fill:#ffffff;fill-opacity:1" />
    <path
       d="m 193.98,348.72 c -0.58468,0.58529 -1.2327,0.97569 -1.9508,1.1054 -0.38732,0.0658 -0.71255,0.13034 -1.0384,0.13034 l -3.8339,0 0,-8.6417 3.5745,0 c 1.2358,0 2.2748,0.38856 3.055,1.1681 0.71317,0.71563 1.1048,1.8844 1.1048,3.379 0,1.2997 -0.26007,2.2742 -0.91114,2.8588 m -6.8231,-24.756 1.6901,0 c 1.5585,0 2.9234,0.19489 3.9655,0.58468 1.1017,0.45372 1.687,1.5598 1.687,3.379 0,1.0402 -0.32277,2.0147 -0.90807,2.924 -0.64984,0.84535 -1.7559,1.2351 -3.4454,1.2351 l -2.9892,0 0,-8.1228 z m 13.061,12.216 -0.77956,0 0,-0.58406 0.32523,0 c 2.4045,0 4.6141,-0.90991 6.5636,-2.6646 2.0129,-1.7546 2.9892,-4.1585 2.9892,-7.3426 0,-4.7426 -1.9028,-9.0763 -4.9485,-10.543 -3.1552,-1.5198 -6.429,-1.015 -10.257,-1.0224 -0.90991,-0.0652 -1.7553,-0.0652 -2.6633,-0.0652 l -22.55,0 0,9.227 2.0135,0 c 0.65046,0 1.1706,0.0652 1.5622,0.32585 0.45372,0.19304 0.64739,0.97384 0.64739,2.2729 l 0,22.352 c 0,1.3009 -0.19367,2.0799 -0.64739,2.3393 -0.39163,0.19551 -0.91175,0.32523 -1.5622,0.32523 -0.0627,0 -0.1285,-0.0645 -0.1285,-0.0645 l -1.885,0.0645 0,9.1624 17.739,0 c 0,0 11.866,0.0941 16.491,-0.3572 4.9461,-0.48385 7.6162,-5.8812 7.6162,-12.119 0,-2.9234 -0.90806,-5.5873 -2.5988,-7.8627 -1.6895,-2.2735 -4.3534,-3.4441 -7.9279,-3.4441"
       id="path16-0"
       inkscape:connector-curvature="0"
       style="fill-rule:evenodd;fill:#ffffff;fill-opacity:1" />
    <path
       d="m 240.05,339.1 c 0,3.1834 -0.32585,5.848 -0.97324,7.9918 -0.65169,2.1438 -2.0817,3.1841 -4.2919,3.1841 -2.2071,0 -3.6366,-1.0402 -4.2876,-3.1841 -0.648,-2.1438 -0.90806,-4.8084 -0.90806,-7.9918 l 0,-4.2243 c 0,-4.5489 0.38917,-7.4729 1.1675,-8.8365 0.77957,-1.3655 1.6901,-2.2108 2.6639,-2.4039 0.26252,-0.0652 0.45679,-0.0652 0.71686,-0.0652 l 1.3642,0 c 0.19428,0 0.45434,0 0.648,0.0652 0.97631,0.19305 1.8838,1.0384 2.667,2.4039 0.84167,1.3636 1.2333,4.2876 1.2333,8.8365 l 0,4.21 z m 15.594,-10.657 c -0.38794,-1.2345 -0.84535,-2.469 -1.4276,-3.7048 -0.58468,-1.2327 -1.3022,-2.4039 -2.1444,-3.5087 -1.0415,-1.4946 -2.1438,-2.6633 -3.3802,-3.6384 -1.17,-0.97446 -2.4033,-1.8192 -3.6372,-2.4697 -1.9502,-0.97384 -3.8339,-1.6243 -5.6549,-1.8844 -1.8844,-0.32523 -3.3777,-0.45433 -4.6147,-0.45433 -1.2327,0 -2.7918,0.1291 -4.6104,0.45433 -1.8868,0.32646 -3.7718,0.97508 -5.7834,1.9502 -1.1706,0.7144 -2.3387,1.494 -3.5751,2.469 -1.1712,0.97508 -2.2754,2.1444 -3.3144,3.5732 -0.84535,1.1048 -1.5591,2.276 -2.078,3.5087 -0.58529,1.2358 -1.1054,2.4703 -1.4934,3.7048 -0.45742,1.4946 -0.78265,2.924 -0.91114,4.3528 -0.19428,1.4952 -0.25945,2.8594 -0.25945,4.1598 0,1.1687 0.0652,2.7291 0.25945,4.6129 0.26006,1.9495 0.71378,3.8991 1.43,5.9777 0.32277,0.91052 0.7144,1.8192 1.1681,2.7297 0.4568,0.97507 0.97631,1.8844 1.6243,2.7291 1.8844,2.5988 4.2882,4.5483 7.2141,5.848 2.924,1.2345 5.9132,2.0135 9.0302,2.1438 l 2.6012,0 c 3.1177,-0.13034 6.1074,-0.90929 9.0302,-2.1438 2.9234,-1.2997 5.331,-3.2492 7.2153,-5.848 0.64738,-0.84474 1.1669,-1.754 1.6243,-2.7291 0.45373,-0.91053 0.84167,-1.8192 1.1669,-2.7297 0.71747,-2.0786 1.2364,-4.0282 1.43,-5.9777 0.19428,-1.8838 0.32707,-3.4441 0.32707,-4.6129 0,-1.3003 -0.13279,-2.6646 -0.26006,-4.1598 -0.19796,-1.4288 -0.52074,-2.8582 -0.97692,-4.3528"
       id="path18-4"
       inkscape:connector-curvature="0"
       style="fill-rule:evenodd;fill:#ffffff;fill-opacity:1" />
    <path
       d="m 282.69,313.96 0,9.227 0.97692,0 c 0.38794,0 0.71255,0 1.039,0.0652 0.32523,0.0645 0.45434,0.32523 0.45434,0.64923 l 0,0.26006 c -0.067,0.0652 -0.067,0.19551 -0.067,0.26006 0,0.0652 -0.0621,0.0652 -0.0621,0.12973 0,0.0652 0,0.0652 -0.0664,0.12972 0,0.0645 -0.0645,0.19489 -0.0645,0.26068 0,0.0633 -0.067,0.12849 -0.067,0.12849 l -3.5087,5.6543 -0.38732,0 -3.315,-4.094 c -0.5195,-0.64923 -0.65107,-1.2985 -0.77956,-1.6889 -0.19367,-0.3904 -0.25945,-0.71502 -0.25945,-1.0402 0,-0.324 0.12849,-0.51951 0.38794,-0.58468 0.26006,-0.12972 0.51951,-0.12972 0.84535,-0.12972 l 1.1048,0 0,-9.227 -22.417,0 0,9.227 0.65046,0 c 1.1675,0 2.0129,0.19489 2.5324,0.64862 0.52013,0.45557 0.97631,1.0402 1.3655,1.8204 0.0645,0.12972 0.13157,0.19427 0.13157,0.32523 0.0621,0.0652 0.12726,0.19489 0.19366,0.25944 l 10.785,16.375 0,6.0429 c 0,0.97447 -0.19366,1.5598 -0.51889,1.8192 -0.32646,0.19551 -0.7144,0.32523 -1.106,0.32523 l -2.9228,0 0,9.1624 22.936,0 0,-9.1624 -2.9234,0 c -0.3904,0 -0.71317,-0.12972 -0.97323,-0.32523 -0.32523,-0.1291 -0.4568,-0.7144 -0.4568,-1.6237 l 0,-6.6927 7.5375,-13.581 c 0.32462,-0.64984 0.52258,-1.3642 0.71625,-1.8844 0.19366,-0.58468 0.38794,-1.0396 0.58529,-1.4288 0.32277,-0.71563 0.71378,-1.3003 1.1681,-1.6243 0.4568,-0.32585 1.1042,-0.45557 1.9495,-0.45557 l 1.7559,0 0,-9.227 -17.221,0 z"
       id="path20-2"
       inkscape:connector-curvature="0"
       style="fill-rule:evenodd;fill:#ffffff;fill-opacity:1" />
    <path
       d="m 103.8,337.93 -3.8972,0 3.8327,-12.087 0.5213,0 3.3777,12.087 -3.84,0 z m 21.963,12.151 c -0.45373,-0.45556 -0.84351,-1.2991 -1.2333,-2.4697 -0.0658,-0.12972 -0.0658,-0.25944 -0.13156,-0.38917 0,-0.13033 -0.0633,-0.26067 -0.0633,-0.39039 l -9.3579,-32.879 -17.675,0 -3.6372,12.281 -6.1099,19.429 c -0.06455,0.19428 -0.12849,0.38979 -0.25945,0.64923 -0.06455,0.1949 -0.12849,0.45557 -0.19428,0.64985 -0.26006,0.71501 -0.64985,1.3655 -1.1054,2.0147 -0.12972,0.1949 -0.25945,0.38917 -0.38917,0.58407 -0.64985,0.7808 -1.561,1.2351 -2.7279,1.2351 l -0.97692,0 0,9.1624 17.025,0 0,-9.1624 -0.648,0 c -0.65108,0 -1.0409,-0.0645 -1.3003,-0.12972 -0.26006,-0.0646 -0.45372,-0.12972 -0.51828,-0.26006 -0.13157,-0.12972 -0.19674,-0.32462 -0.19674,-0.51889 0,-0.26129 0.06517,-0.52136 0.13095,-0.7808 l 0.26006,-0.84413 13.969,0 0.26067,1.494 c 0,0.0652 0,0.13096 0.0652,0.13096 l 0,0.12972 c 0,0.38917 -0.13034,0.58468 -0.45557,0.64923 -0.324,0.0652 -0.64923,0.12972 -1.039,0.12972 l -1.8844,0 0,9.1624 21.38,0 0,-9.1624 -0.97631,0 c -0.97508,0 -1.6889,-0.25944 -2.2102,-0.7144"
       id="path22-6"
       inkscape:connector-curvature="0"
       style="fill-rule:evenodd;fill:#ffffff;fill-opacity:1" />
    <path
       d="m 24.004,331.96 c -0.65169,0.71378 -1.2991,1.2345 -2.0805,1.4946 -0.45495,0.0646 -0.97446,0.19428 -1.4288,0.25883 -0.45495,0 -0.77957,0.0658 -1.1042,0.0658 l -0.97385,0 0,-9.8774 1.3649,0 c 1.8825,0 3.2474,0.45557 4.0282,1.4306 0.77957,0.90867 1.1675,2.0135 1.1675,3.3132 0,1.4946 -0.324,2.5988 -0.97323,3.3144 m 10.592,-14.882 c -4.0288,-1.8186 -8.448,-2.8582 -13.322,-3.0525 -0.65108,-0.0652 -1.2991,-0.0652 -1.9495,-0.0652 l -19.235,0 0,9.227 1.8844,0 c 0.97631,0 1.5604,0.12972 1.8844,0.45557 0.32584,0.324 0.52135,1.0384 0.52135,2.1432 l 0,22.352 c 0,1.1048 -0.19551,1.8204 -0.52135,2.145 -0.324,0.32523 -0.90806,0.5195 -1.8844,0.5195 l -1.883,-0.07 0,9.227 23.328,0 0,-9.1624 -2.5975,0 c -1.039,0 -1.6901,-0.25944 -1.9502,-0.64923 -0.32523,-0.3904 -0.45372,-1.0402 -0.45372,-2.0153 l 0,-4.3528 4.9356,0 c 5.1994,0 9.0333,-0.9099 11.503,-2.7943 2.4045,-1.8192 4.0288,-3.8991 4.8735,-6.1081 0.32523,-0.97446 0.58345,-1.9495 0.71378,-2.8588 0.13157,-0.9099 0.19551,-1.7546 0.19551,-2.5342 0,-6.4327 -2.0141,-10.526 -6.0423,-12.412"
       id="path24-8"
       inkscape:connector-curvature="0"
       style="fill-rule:evenodd;fill:#ffffff;fill-opacity:1" />
    <path
       d="m 72.55,344.3 c -0.06578,0.45372 -0.13157,0.77895 -0.19551,1.1048 -0.38978,1.7534 -0.84351,2.7943 -1.4288,3.1834 -0.51951,0.38978 -1.6243,0.58468 -3.3144,0.58468 l -6.6927,0 0,-23.522 c 0,-1.1048 0.12911,-1.8204 0.45434,-2.0786 0.26006,-0.26068 0.77957,-0.3904 1.6243,-0.3904 l 2.4039,0 0,-9.227 -22.807,0 0,9.227 1.9483,0 c 1.1712,0 1.8204,0.26068 2.0817,0.7144 0.19366,0.58529 0.26006,1.2333 0.26006,1.8844 l 0,22.352 c 0,0.65108 -0.0664,1.3009 -0.32584,1.9502 -0.19551,0.45496 -0.84474,0.7144 -2.0159,0.7144 l -1.9483,-0.0645 0,9.227 36.648,0 0.32523,-16.96 -6.8231,0 c -0.06578,0.52012 -0.13034,0.90991 -0.19428,1.3003"
       id="path26-7"
       inkscape:connector-curvature="0"
       style="fill-rule:evenodd;fill:#ffffff;fill-opacity:1" />
  </g>
  <path
     style="fill-rule:evenodd;fill:#ffffff;fill-opacity:1"
     inkscape:connector-curvature="0"
     id="path6-8"
     d="m 123.91953,136.80188 0,0.31215 0,16.51099 0,0.25738 0.24096,-0.10405 11.34685,-4.67126 10.67875,8.69633 0.21905,0.18619 0.0548,-0.29024 2.68337,-19.54485 0.0548,-0.3231 -0.29572,0.15334 -13.03903,6.69202 -11.68638,-7.70513 -0.25739,-0.16977 z" />
  <path
     style="fill-rule:evenodd;fill:#ffffff;fill-opacity:1"
     inkscape:connector-curvature="0"
     id="path8-3"
     d="m 178.76997,136.2214 -0.24096,0.0712 -27.22807,7.73251 -0.0164,0 -0.10405,0.0329 -0.0164,0.12047 -0.6681,4.70961 -0.0329,0.2519 0.23548,-0.0657 27.5895,-8.09394 0.12048,-0.0164 0,-0.12048 0.33953,-4.38103 0.0219,-0.24095 z" />
  <path
     id="path12"
     style="fill:#ffffff;fill-rule:evenodd;fill-opacity:1"
     d="m 131.82728,85.571273 c 3.36348,0 6.39082,3.032162 6.39082,6.401225 0,3.368844 -3.02712,6.064434 -6.39082,6.064434 -3.3638,0 -6.05457,-2.69548 -6.05457,-6.064434 0,-3.369172 2.69077,-6.401225 6.05457,-6.401225 z m 3.69649,56.263317 c -0.33634,0.67369 -5.04518,-7.07481 0,-14.48696 0,0 -25.89897,-6.40068 -26.90825,-21.22497 0,0 -3.36381,-28.299777 41.70736,-34.027419 C 86.080622,49.524748 91.129753,2.3602772 91.129753,5.3886606 121.73669,18.192753 141.91678,42.786732 162.43641,71.421658 164.79121,72.095241 150.66241,33.016499 194.39051,0 c -0.67271,18.529545 2.35409,26.615274 -5.71779,53.567339 -7.40009,19.540466 -15.13589,23.583057 -15.13589,24.257187 15.80838,11.45419 8.40883,38.743594 5.04519,53.904134 l -26.90826,8.75931 1.34542,-7.74894 c -5.04552,2.69515 -13.11789,6.73802 -17.49015,9.09665" />
  <g
     id="g4316"
     transform="translate(-4.2993916,6.73378e-6)"
     style="fill:#ffffff;fill-opacity:1">
    <path
       sodipodi:nodetypes="ccccccccc"
       d="m 84.599996,227.26 15.860004,0 0,2.5 -6.549603,0 0,20.3096 -2.720001,0 0,-20.3096 -6.5904,0 z"
       id="path26"
       style="opacity:1;fill:#ffffff;fill-opacity:1"
       inkscape:connector-curvature="0" />
    <path
       sodipodi:nodetypes="ccccccc"
       d="m 116.67,227.26 c 1.01,-0.09 2.03,0.08 3.05,0 -3.12,7.88 -6.52,14.9096 -9.59,22.8096 -3.01,-7.9 -6.59,-14.9396 -9.66,-22.8096 0.81,0.06 2.42,-0.06 3.23,0 1.93,5.87 4.45,11.16 6.41,17.02 2.11,-5.85 4.46,-11.16 6.56,-17.02 z"
       id="path28"
       style="opacity:1;fill:#ffffff;fill-opacity:1"
       inkscape:connector-curvature="0" />
    <path
       sodipodi:nodetypes="ccccccccc"
       d="m 136.27,228.52 c 4.14,-2.67 10.1596,-1.9604 14.0796,0.9296 l 0,3.1404 c -3.28,-3.23 -8.7096,-4.68 -12.7096,-1.87 -6.17,3.49 -5.36,13.84 1.16,16.48 3.92,1.87 8.6096,0.34 11.5496,-2.58 l 0,3.43 c -5.55,4.18 -14.9296,2.95 -18.1096,-3.55 -3.26,-5.28 -1.32,-12.88 4.03,-15.98 z"
       id="path30"
       style="opacity:1;fill:#ffffff;fill-opacity:1"
       inkscape:connector-curvature="0" />
    <path
       sodipodi:nodetypes="cccccccccccccc"
       d="m 154.6,227.26 c 0.94,-0.08 1.89,0.07 2.84,0 l 0,9.0096 12.0104,0 0,-9.0096 2.8498,0 c -0.18,7.55 -0.0902,15.2496 -0.0502,22.8096 l -2.7996,0 0,-11.3096 -12.0104,0 0,11.3096 -2.8304,0 c 0.11,-7.56 0.0904,-15.2596 -0.01,-22.8096 z"
       id="path32"
       style="opacity:1;fill:#ffffff;fill-opacity:1"
       inkscape:connector-curvature="0" />
    <path
       inkscape:connector-curvature="0"
       id="path32-6"
       d="m 184.88907,227.24085 -10.51875,23.00157 2.82969,0 3.15,-7.13281 9.07031,0 2.75938,7.13281 2.97968,0 -10.27031,-23.00157 z m 0,5.74844 3.57031,7.68125 -7.3,0 3.72969,-7.68125 z"
       style="opacity:1;fill:#ffffff;fill-opacity:1" />
    <path
       sodipodi:nodetypes="ccccccccc"
       d="m 193.58961,227.30002 15.86001,0 0,2.5 -6.54961,0 0,20.3096 -2.72,0 0,-20.3096 -6.5904,0 z"
       id="path26-9"
       style="opacity:1;fill:#ffffff;fill-opacity:1"
       inkscape:connector-curvature="0" />
  </g>
</svg>
