<?xml version="1.0" encoding="UTF-8" standalone="no"?>
<svg
   xmlns:dc="http://purl.org/dc/elements/1.1/"
   xmlns:cc="http://creativecommons.org/ns#"
   xmlns:rdf="http://www.w3.org/1999/02/22-rdf-syntax-ns#"
   xmlns:svg="http://www.w3.org/2000/svg"
   xmlns="http://www.w3.org/2000/svg"
   xmlns:sodipodi="http://sodipodi.sourceforge.net/DTD/sodipodi-0.dtd"
   xmlns:inkscape="http://www.inkscape.org/namespaces/inkscape"
   width="1743pt"
   height="444pt"
   viewBox="0 0 1743 444"
   version="1.1"
   id="svg68"
   sodipodi:docname="Propeller TV.svg"
   inkscape:version="0.92.0 r15299">
  <metadata
     id="metadata74">
    <rdf:RDF>
      <cc:Work
         rdf:about="">
        <dc:format>image/svg+xml</dc:format>
        <dc:type
           rdf:resource="http://purl.org/dc/dcmitype/StillImage" />
        <dc:title></dc:title>
      </cc:Work>
    </rdf:RDF>
  </metadata>
  <defs
     id="defs72" />
  <sodipodi:namedview
     pagecolor="#ffffff"
     bordercolor="#666666"
     borderopacity="1"
     objecttolerance="10"
     gridtolerance="10"
     guidetolerance="10"
     inkscape:pageopacity="0"
     inkscape:pageshadow="2"
     inkscape:window-width="1920"
     inkscape:window-height="1017"
     id="namedview70"
     showgrid="false"
     inkscape:zoom="0.48881239"
     inkscape:cx="511.69154"
     inkscape:cy="55.773439"
     inkscape:window-x="-8"
     inkscape:window-y="-8"
     inkscape:window-maximized="1"
     inkscape:current-layer="svg68" />
  <g
     id="#fdc800ff">
    <path
       d=" M 186.24 0.00 L 194.71 0.00 C 230.33 1.14 266.27 12.27 294.49 34.44 C 317.06 52.08 333.15 77.28 341.16 104.67 C 342.85 109.59 343.48 114.82 345.31 119.69 C 347.67 124.52 355.83 123.65 357.11 118.42 C 358.23 110.06 357.74 101.57 358.34 93.17 C 358.85 87.86 366.74 85.73 369.73 90.23 C 388.84 117.07 400.81 149.09 402.96 182.03 C 403.60 193.74 404.40 205.72 401.50 217.21 C 393.68 251.35 376.69 283.94 350.70 307.73 C 331.72 325.22 307.95 337.16 282.87 342.98 C 280.17 343.44 277.45 345.10 276.91 347.97 C 275.84 351.66 278.64 355.90 282.56 356.04 C 291.69 356.84 300.89 356.65 310.04 357.12 C 315.74 357.38 317.81 365.96 312.90 368.85 C 289.28 384.93 261.74 394.90 233.47 398.71 C 218.11 400.80 202.57 401.31 187.10 400.60 C 171.97 399.19 157.28 394.58 143.34 388.67 C 143.34 359.57 143.33 330.48 143.35 301.38 C 166.59 314.96 194.37 320.47 221.04 316.90 C 250.27 313.22 277.85 298.37 297.21 276.19 C 314.34 256.78 325.08 231.81 327.21 206.00 C 329.86 176.97 321.65 147.11 304.46 123.55 C 287.66 100.22 262.43 83.09 234.48 76.28 C 207.80 69.66 178.89 72.27 153.90 83.79 C 127.60 95.76 105.84 117.35 93.68 143.56 C 86.03 159.92 82.08 177.99 82.25 196.05 C 82.19 243.52 82.30 290.98 82.19 338.45 C 70.57 321.53 62.92 302.09 58.76 282.04 C 58.32 279.20 55.99 276.69 53.03 276.55 C 49.75 276.10 46.26 278.50 45.98 281.90 C 45.05 290.93 45.23 300.04 44.99 309.10 C 45.12 313.99 38.79 316.93 34.95 314.14 C 32.58 312.15 31.07 309.36 29.30 306.86 C 19.98 293.11 12.37 278.12 7.59 262.18 C 2.57 245.86 0.55 228.79 0.00 211.77 L 0.00 200.24 C 0.09 193.82 0.53 187.38 1.91 181.09 C 7.74 152.50 20.73 125.13 40.45 103.50 C 60.33 81.51 87.37 66.56 116.14 59.91 C 118.93 59.18 122.50 58.74 123.77 55.71 C 125.70 52.00 123.22 46.74 118.92 46.41 C 110.13 45.52 101.28 45.69 92.47 45.27 C 86.86 44.95 84.75 36.60 89.49 33.64 C 105.89 21.89 124.01 12.35 143.40 6.63 C 157.29 2.47 171.76 0.43 186.24 0.00 Z"
       id="path2"
       fill="#fdc800"
       opacity="1.00" />
    <path
       d=" M 178.51 147.69 C 183.48 146.43 188.83 147.40 193.20 150.02 C 212.39 161.10 231.60 172.15 250.77 183.25 C 256.41 186.44 260.16 192.61 260.42 199.08 C 260.90 206.22 257.11 213.41 250.89 216.96 C 231.72 228.08 212.50 239.11 193.32 250.20 C 188.44 253.17 182.29 254.05 176.86 252.12 C 169.18 249.67 163.45 242.12 163.42 234.02 C 163.38 211.33 163.35 188.63 163.44 165.94 C 163.57 157.34 170.18 149.57 178.51 147.69 Z"
       id="path4"
       fill="#fdc800"
       opacity="1.00" />
  </g>
  <g
     id="#000000ff"
     style="fill:#ffffff;fill-opacity:1">
    <path
       fill="#000000"
       opacity="1.00"
       d=" M 1104.41 244.75 C 1104.49 186.70 1104.32 128.65 1104.50 70.60 C 1114.76 70.70 1125.03 70.60 1135.30 70.65 C 1135.27 128.69 1135.32 186.73 1135.28 244.77 C 1124.99 244.74 1114.70 244.78 1104.41 244.75 Z"
       id="path7"
       style="fill:#ffffff;fill-opacity:1" />
    <path
       fill="#000000"
       opacity="1.00"
       d=" M 1153.32 244.75 C 1153.42 186.69 1153.15 128.62 1153.46 70.56 C 1163.71 70.75 1173.96 70.58 1184.21 70.65 C 1184.18 128.69 1184.24 186.73 1184.18 244.77 C 1173.89 244.74 1163.61 244.77 1153.32 244.75 Z"
       id="path9"
       style="fill:#ffffff;fill-opacity:1" />
    <path
       fill="#000000"
       opacity="1.00"
       d=" M 1458.76 106.93 C 1499.23 106.96 1539.70 106.83 1580.18 107.00 C 1580.13 117.27 1580.27 127.55 1580.10 137.82 C 1565.03 137.75 1549.95 137.80 1534.88 137.80 C 1534.88 173.45 1534.89 209.11 1534.87 244.77 C 1524.61 244.76 1514.34 244.73 1504.09 244.79 C 1504.04 209.13 1504.07 173.46 1504.07 137.80 C 1488.96 137.77 1473.86 137.79 1458.75 137.80 C 1458.72 127.51 1458.72 117.22 1458.76 106.93 Z"
       id="path11"
       style="fill:#ffffff;fill-opacity:1" />
    <path
       fill="#000000"
       opacity="1.00"
       d=" M 1588.84 106.94 C 1599.13 106.97 1609.44 106.76 1619.74 107.07 C 1634.99 141.79 1650.27 176.50 1665.68 211.15 C 1680.94 176.48 1696.41 141.90 1711.47 107.15 C 1721.97 106.78 1732.49 106.94 1743.00 107.17 L 1743.00 107.56 C 1742.05 108.55 1741.31 109.67 1740.77 110.90 C 1720.83 156.18 1700.85 201.46 1680.83 246.71 C 1670.68 246.63 1660.52 246.68 1650.37 246.68 C 1630.00 200.04 1609.22 153.58 1588.84 106.94 Z"
       id="path13"
       style="fill:#ffffff;fill-opacity:1" />
    <path
       fill="#000000"
       opacity="1.00"
       d=" M 735.53 123.70 C 749.08 121.60 763.31 124.04 775.28 130.78 C 788.61 138.17 799.03 150.66 803.83 165.13 C 808.87 180.05 807.93 196.91 801.17 211.15 C 795.35 223.57 785.26 233.92 773.00 240.07 C 759.81 246.79 744.15 248.44 729.82 244.77 C 714.67 241.00 701.20 231.16 692.85 217.98 C 685.48 206.47 682.15 192.46 683.50 178.87 C 684.78 165.00 690.99 151.68 700.72 141.72 C 709.97 132.16 722.37 125.71 735.53 123.70 M 736.38 153.56 C 729.59 155.39 723.45 159.48 719.08 164.99 C 709.10 177.07 709.66 196.19 720.33 207.67 C 730.56 219.61 749.57 222.35 762.74 213.73 C 776.16 205.69 782.11 187.57 775.94 173.16 C 770.11 157.92 752.07 148.89 736.38 153.56 Z"
       id="path15"
       style="fill:#ffffff;fill-opacity:1" />
    <path
       fill="#000000"
       opacity="1.00"
       d=" M 986.13 137.18 C 995.86 128.83 1008.24 123.63 1021.03 122.60 C 1037.42 121.11 1054.29 126.54 1066.71 137.35 C 1083.55 151.56 1091.70 175.22 1086.92 196.77 C 1056.43 196.70 1025.94 196.75 995.44 196.80 C 999.32 205.97 1007.26 213.40 1016.90 216.14 C 1029.06 219.89 1043.04 215.77 1051.32 206.14 C 1062.30 206.02 1073.28 206.03 1084.27 206.09 C 1079.58 218.34 1071.00 229.05 1059.97 236.16 C 1046.83 244.72 1030.35 248.00 1014.95 245.04 C 999.58 242.26 985.48 233.33 976.31 220.70 C 966.94 208.03 962.81 191.67 964.96 176.06 C 966.85 161.07 974.61 146.94 986.13 137.18 M 995.52 171.79 C 1016.08 171.81 1036.63 171.81 1057.19 171.79 C 1052.69 160.74 1042.01 152.45 1030.09 151.25 C 1015.65 149.34 1000.78 158.24 995.52 171.79 Z"
       id="path17"
       style="fill:#ffffff;fill-opacity:1" />
    <path
       fill="#000000"
       opacity="1.00"
       d=" M 1219.93 139.99 C 1233.61 126.42 1253.85 120.00 1272.86 123.12 C 1290.06 125.71 1305.86 136.06 1315.24 150.70 C 1323.99 164.14 1327.14 181.04 1323.86 196.74 C 1293.35 196.73 1262.85 196.74 1232.35 196.78 C 1236.20 206.07 1244.30 213.51 1254.02 216.21 C 1266.16 219.87 1280.00 215.65 1288.28 206.11 C 1299.23 206.03 1310.19 206.08 1321.15 206.08 C 1315.39 221.28 1303.48 234.02 1288.62 240.65 C 1271.66 248.38 1251.22 247.84 1234.72 239.17 C 1217.22 230.22 1204.51 212.49 1201.92 192.98 C 1199.01 173.77 1205.93 153.45 1219.93 139.99 M 1254.98 152.06 C 1244.84 154.55 1236.29 162.17 1232.34 171.80 C 1252.91 171.81 1273.49 171.80 1294.06 171.81 C 1288.21 156.76 1270.60 147.72 1254.98 152.06 Z"
       id="path19"
       style="fill:#ffffff;fill-opacity:1" />
    <path
       fill="#000000"
       opacity="1.00"
       d=" M 523.04 124.99 C 537.92 122.41 553.71 125.51 566.46 133.62 C 578.32 141.05 587.52 152.63 592.04 165.89 C 597.32 181.18 596.29 198.55 589.13 213.07 C 583.37 224.95 573.69 234.86 561.95 240.91 C 547.65 248.39 530.38 249.88 515.00 245.02 C 510.61 243.75 506.58 241.57 502.39 239.79 C 502.37 259.79 502.51 279.80 502.32 299.80 C 492.04 299.58 481.76 299.97 471.48 299.59 C 471.73 261.07 471.47 222.56 471.61 184.04 C 471.93 169.96 477.41 156.11 486.65 145.49 C 495.93 134.74 509.01 127.30 523.04 124.99 M 526.13 153.20 C 518.46 154.93 511.47 159.47 506.81 165.79 C 497.81 177.45 498.15 195.10 507.59 206.40 C 516.91 218.41 534.85 222.33 548.32 215.29 C 562.14 208.68 569.83 191.77 565.56 177.02 C 561.49 160.23 542.91 148.96 526.13 153.20 Z"
       id="path21"
       style="fill:#ffffff;fill-opacity:1" />
    <path
       fill="#000000"
       opacity="1.00"
       d=" M 878.48 124.63 C 893.09 122.69 908.36 126.17 920.63 134.36 C 934.34 143.35 944.20 158.00 947.25 174.11 C 950.18 188.91 947.46 204.74 939.67 217.66 C 932.15 230.34 919.93 240.14 905.92 244.73 C 892.24 249.26 876.96 248.82 863.59 243.44 C 860.83 242.29 858.16 240.94 855.40 239.81 C 855.42 259.80 855.49 279.79 855.37 299.78 C 845.08 299.59 834.78 299.98 824.49 299.58 C 824.75 261.05 824.49 222.52 824.63 183.99 C 825.01 168.79 831.37 153.87 841.97 142.99 C 851.59 132.97 864.69 126.36 878.48 124.63 M 879.17 153.19 C 864.60 156.25 853.28 170.09 853.26 185.00 C 852.75 199.88 863.54 214.13 878.00 217.68 C 892.28 221.75 908.63 214.70 915.59 201.61 C 922.89 188.89 920.22 171.56 909.46 161.61 C 901.60 153.98 889.84 150.71 879.17 153.19 Z"
       id="path23"
       style="fill:#ffffff;fill-opacity:1" />
    <path
       fill="#000000"
       opacity="1.00"
       d=" M 1380.97 128.03 C 1389.67 124.41 1399.15 123.43 1408.50 123.54 C 1408.82 133.89 1408.62 144.25 1408.60 154.61 C 1400.04 153.59 1391.11 155.94 1384.36 161.34 C 1376.56 167.39 1371.85 177.11 1371.93 186.98 C 1371.88 206.25 1371.69 225.53 1371.71 244.81 C 1361.82 244.85 1351.94 244.80 1342.06 244.83 C 1342.01 228.90 1342.07 212.97 1342.07 197.03 C 1342.17 188.37 1341.46 179.56 1343.69 171.07 C 1348.18 151.81 1362.56 135.25 1380.97 128.03 Z"
       id="path25"
       style="fill:#ffffff;fill-opacity:1" />
    <path
       fill="#000000"
       opacity="1.00"
       d=" M 631.58 139.63 C 643.78 129.41 660.01 124.47 675.84 125.56 C 675.58 135.85 675.94 146.16 675.64 156.45 C 661.19 154.39 646.18 163.39 641.18 177.09 C 638.43 183.70 639.14 190.99 638.95 197.98 C 638.94 214.21 638.81 230.45 638.75 246.69 C 628.88 246.66 619.02 246.64 609.15 246.70 C 609.08 226.80 609.14 206.90 609.12 187.00 C 609.02 168.90 617.59 151.08 631.58 139.63 Z"
       id="path27"
       style="fill:#ffffff;fill-opacity:1" />
    <path
       fill="#000000"
       opacity="1.00"
       d=" M 983.73 328.93 C 984.81 324.75 990.16 320.58 994.23 323.79 C 998.77 327.27 1002.39 331.82 1005.59 336.53 C 1015.55 336.50 1025.51 336.52 1035.47 336.52 C 1038.22 332.81 1039.93 328.43 1042.79 324.80 C 1046.00 320.62 1052.53 323.42 1054.51 327.44 C 1055.62 330.65 1053.53 333.73 1052.25 336.55 C 1058.84 336.68 1065.49 336.10 1072.05 336.86 C 1076.53 338.03 1076.85 344.00 1075.32 347.55 C 1073.63 350.85 1069.39 350.30 1066.31 350.30 C 1067.76 352.30 1068.70 354.98 1067.38 357.32 C 1064.65 362.36 1061.06 366.85 1057.83 371.57 C 1063.86 371.77 1069.97 371.03 1075.96 371.98 C 1080.07 373.15 1080.04 378.58 1079.12 381.95 C 1078.25 385.05 1074.58 385.26 1071.93 385.25 C 1039.62 385.22 1007.31 385.24 975.00 385.24 C 971.11 385.09 967.07 385.74 963.31 384.55 C 960.52 383.27 960.41 379.67 960.64 377.04 C 960.70 374.55 962.34 371.98 965.00 371.79 C 970.69 371.23 976.43 371.68 982.15 371.57 C 979.79 368.03 977.28 364.59 974.33 361.52 C 972.72 359.64 970.60 357.69 970.61 355.02 C 970.87 353.24 972.08 351.82 972.98 350.33 C 970.06 350.35 966.02 350.50 964.80 347.18 C 963.31 343.45 964.09 337.17 969.02 336.72 C 975.30 336.27 981.63 336.57 987.94 336.59 C 986.26 334.26 983.65 332.04 983.73 328.93 M 982.90 350.30 C 986.20 354.58 990.77 358.17 992.60 363.40 C 993.75 366.77 991.48 369.68 989.04 371.69 C 991.82 371.56 994.62 371.53 997.42 371.45 C 997.35 364.44 997.33 357.44 997.43 350.43 C 992.58 350.28 987.74 350.39 982.90 350.30 M 1012.23 350.34 C 1012.23 357.41 1012.20 364.49 1012.25 371.57 C 1017.15 371.54 1022.06 371.52 1026.97 371.60 C 1027.24 364.50 1027.16 357.40 1027.02 350.31 C 1022.09 350.37 1017.16 350.35 1012.23 350.34 M 1041.47 350.46 C 1041.63 357.47 1041.51 364.50 1041.55 371.52 C 1043.22 371.54 1044.90 371.58 1046.59 371.64 C 1045.97 370.00 1044.43 368.23 1045.47 366.43 C 1048.45 360.68 1053.62 356.34 1056.24 350.35 C 1051.31 350.36 1046.38 350.27 1041.47 350.46 Z"
       id="path29"
       style="fill:#ffffff;fill-opacity:1" />
    <path
       fill="#000000"
       opacity="1.00"
       d=" M 1592.84 327.97 C 1593.86 323.16 1600.82 321.10 1604.25 324.66 C 1607.13 327.90 1609.45 331.60 1611.94 335.15 C 1614.29 338.07 1615.52 342.04 1613.28 345.45 C 1617.22 345.35 1621.91 346.31 1623.85 350.18 C 1625.76 354.13 1624.12 358.65 1622.30 362.32 C 1619.86 367.33 1616.92 372.07 1614.13 376.90 C 1618.28 381.10 1622.16 385.56 1626.16 389.91 C 1627.90 391.86 1629.88 394.67 1628.35 397.32 C 1626.88 399.96 1624.33 402.80 1621.04 402.53 C 1617.41 401.77 1615.52 398.23 1613.13 395.76 C 1613.16 408.86 1613.12 421.96 1613.16 435.06 C 1613.01 437.43 1613.26 440.48 1611.05 442.02 C 1608.07 443.61 1604.12 443.53 1601.34 441.56 C 1599.73 440.21 1599.74 437.89 1599.65 435.98 C 1599.61 422.52 1599.67 409.06 1599.62 395.60 C 1596.56 398.24 1593.99 401.80 1590.00 403.06 C 1586.16 404.20 1583.03 400.38 1582.27 397.02 C 1581.62 394.04 1584.15 391.83 1586.05 389.97 C 1595.41 381.62 1603.69 371.56 1608.31 359.82 C 1601.93 358.86 1595.47 359.78 1589.07 359.28 C 1581.82 359.14 1582.02 346.04 1589.06 345.61 C 1593.69 345.25 1598.35 345.53 1603.00 345.50 C 1600.62 341.43 1598.05 337.48 1595.23 333.71 C 1594.10 331.99 1592.41 330.20 1592.84 327.97 Z"
       id="path31"
       style="fill:#ffffff;fill-opacity:1" />
    <path
       fill="#000000"
       opacity="1.00"
       d=" M 741.42 327.30 C 744.03 322.54 752.26 322.20 754.98 327.02 C 756.15 329.88 755.56 333.08 755.74 336.09 C 766.23 336.06 776.73 336.13 787.23 336.05 C 787.47 332.31 786.21 327.35 789.86 324.86 C 793.53 322.58 799.53 323.27 801.69 327.34 C 802.74 330.06 802.21 333.07 802.30 335.92 C 809.86 336.39 817.46 335.76 825.02 336.26 C 829.92 336.87 831.00 343.24 829.02 346.96 C 827.69 349.48 824.66 350.20 822.04 350.13 C 815.52 350.14 809.00 350.14 802.49 350.08 C 802.24 352.34 802.44 354.95 800.77 356.74 C 797.82 359.92 792.03 360.33 788.95 357.13 C 787.10 355.28 787.36 352.50 787.12 350.12 C 776.69 350.12 766.26 350.14 755.83 350.11 C 755.57 352.29 755.87 354.75 754.47 356.62 C 751.35 360.81 743.95 360.17 741.47 355.62 C 740.68 353.90 740.83 351.95 740.65 350.12 C 733.77 350.12 726.89 350.12 720.01 350.15 C 717.55 350.10 714.65 350.14 712.91 348.10 C 710.84 345.63 710.88 341.91 712.04 339.05 C 712.99 336.73 715.69 336.03 717.97 336.10 C 725.56 336.00 733.15 336.20 740.75 336.01 C 740.85 333.11 740.35 330.06 741.42 327.30 Z"
       id="path33"
       style="fill:#ffffff;fill-opacity:1" />
    <path
       fill="#000000"
       opacity="1.00"
       d=" M 1308.55 324.66 C 1311.42 324.01 1314.89 323.56 1317.30 325.68 C 1319.49 327.74 1320.33 331.11 1319.61 334.01 C 1318.74 336.82 1315.61 337.81 1313.08 338.46 C 1298.65 341.96 1283.82 343.29 1269.07 344.53 C 1266.69 344.92 1262.13 344.27 1262.63 347.99 C 1262.30 368.99 1263.66 390.19 1260.04 411.00 C 1258.26 421.26 1254.55 431.63 1247.16 439.21 C 1244.75 441.52 1241.14 443.80 1237.75 442.21 C 1234.70 440.56 1231.58 436.78 1233.34 433.18 C 1235.16 429.26 1238.48 426.32 1240.69 422.63 C 1246.37 413.88 1247.60 403.20 1248.10 393.02 C 1248.86 376.37 1248.37 359.69 1248.56 343.03 C 1248.67 339.52 1249.36 335.56 1252.30 333.27 C 1255.62 330.73 1260.01 330.76 1264.00 330.61 C 1279.00 330.23 1293.98 328.30 1308.55 324.66 Z"
       id="path35"
       style="fill:#ffffff;fill-opacity:1" />
    <path
       fill="#000000"
       opacity="1.00"
       d=" M 1373.04 331.74 C 1392.49 331.04 1412.05 329.43 1431.00 324.79 C 1437.89 323.55 1441.72 335.42 1435.00 338.06 C 1428.93 340.47 1422.35 341.13 1415.94 342.08 C 1399.37 344.24 1382.66 345.28 1365.95 345.57 C 1364.43 345.68 1362.73 345.47 1361.48 346.49 C 1359.79 354.18 1359.12 362.08 1357.75 369.84 C 1357.63 371.56 1356.85 373.49 1357.87 375.07 C 1359.43 375.94 1361.28 375.80 1363.03 375.88 C 1371.84 375.87 1380.65 375.82 1389.47 375.90 C 1389.61 369.27 1389.41 362.64 1389.55 356.01 C 1389.56 353.65 1390.20 350.68 1392.80 349.92 C 1395.63 348.99 1399.03 348.94 1401.66 350.52 C 1403.75 351.95 1403.75 354.75 1403.82 357.02 C 1403.84 363.30 1403.76 369.58 1403.83 375.87 C 1417.22 375.96 1430.63 375.67 1444.01 376.00 C 1449.63 376.26 1451.04 383.55 1448.72 387.69 C 1447.46 390.13 1444.37 390.20 1442.00 390.24 C 1429.28 390.22 1416.56 390.25 1403.85 390.22 C 1403.72 403.46 1403.91 416.70 1403.77 429.95 C 1403.78 435.08 1400.30 440.25 1395.05 441.12 C 1387.44 442.41 1379.49 441.43 1372.29 438.76 C 1370.04 437.93 1367.59 436.61 1366.97 434.11 C 1366.13 430.18 1368.68 425.32 1372.94 424.87 C 1378.08 424.62 1382.74 428.04 1387.92 427.42 C 1389.53 427.18 1389.36 425.24 1389.50 424.05 C 1389.56 412.78 1389.46 401.52 1389.54 390.25 C 1377.35 390.13 1365.16 390.38 1352.99 390.13 C 1348.77 390.01 1343.28 388.57 1342.46 383.70 C 1341.54 377.24 1343.64 370.85 1344.30 364.46 C 1345.51 356.30 1346.50 348.10 1348.01 340.00 C 1348.62 335.86 1351.59 331.78 1356.06 331.54 C 1361.71 331.31 1367.37 332.05 1373.04 331.74 Z"
       id="path37"
       style="fill:#ffffff;fill-opacity:1" />
    <path
       fill="#000000"
       opacity="1.00"
       d=" M 1221.32 326.41 C 1225.81 325.06 1229.41 328.84 1232.68 331.31 C 1236.34 334.63 1240.74 337.46 1243.20 341.87 C 1246.37 347.44 1238.29 354.47 1233.13 350.81 C 1229.11 348.24 1225.76 344.78 1221.95 341.94 C 1219.42 339.77 1216.07 337.69 1215.64 334.08 C 1215.84 330.77 1218.16 327.54 1221.32 326.41 Z"
       id="path39"
       style="fill:#ffffff;fill-opacity:1" />
    <path
       fill="#000000"
       opacity="1.00"
       d=" M 849.53 327.69 C 876.67 327.08 903.86 327.61 931.02 327.42 C 936.03 327.57 941.33 326.82 946.05 328.92 C 950.17 330.89 951.05 335.93 951.13 340.04 C 951.17 368.35 951.14 396.66 951.15 424.97 C 951.07 428.76 950.66 433.06 947.76 435.83 C 945.10 438.18 941.36 438.45 937.98 438.54 C 910.00 438.54 882.03 438.53 854.05 438.54 C 850.61 438.48 846.77 438.30 844.07 435.90 C 841.24 433.07 840.91 428.78 840.81 425.00 C 840.81 396.99 840.82 368.98 840.80 340.98 C 840.87 337.56 841.08 333.92 843.01 330.99 C 844.45 328.84 847.09 328.03 849.53 327.69 M 856.14 341.26 C 854.40 341.50 854.50 343.63 854.42 344.93 C 854.42 369.99 854.38 395.04 854.44 420.09 C 854.17 422.71 856.01 425.48 858.90 425.06 C 883.25 425.16 907.61 425.03 931.96 425.12 C 933.37 424.97 935.12 425.38 936.27 424.28 C 937.58 422.85 937.50 420.79 937.59 419.00 C 937.58 394.65 937.57 370.30 937.59 345.95 C 937.56 344.32 937.66 341.96 935.70 341.40 C 933.18 340.86 930.58 341.08 928.04 341.04 C 904.07 341.23 880.08 340.75 856.14 341.26 Z"
       id="path41"
       style="fill:#ffffff;fill-opacity:1" />
    <path
       fill="#000000"
       opacity="1.00"
       d=" M 1632.98 329.96 C 1635.55 328.05 1638.93 328.24 1641.98 328.18 C 1654.67 328.25 1667.37 328.16 1680.07 328.22 C 1683.30 328.36 1687.50 328.41 1689.30 331.65 C 1690.73 334.53 1690.64 337.85 1690.72 340.99 C 1690.72 358.97 1690.70 376.96 1690.74 394.94 C 1690.60 397.61 1690.97 400.76 1689.07 402.93 C 1686.53 404.83 1682.97 404.82 1680.05 404.02 C 1677.11 403.12 1677.06 399.56 1676.96 397.06 C 1676.84 378.62 1677.05 360.18 1676.87 341.75 C 1665.94 341.35 1654.97 341.35 1644.05 341.75 C 1643.61 360.85 1644.10 379.97 1643.80 399.08 C 1643.83 404.09 1637.66 405.60 1633.75 404.22 C 1630.64 403.39 1630.14 399.73 1630.23 397.03 C 1630.26 377.65 1630.20 358.28 1630.25 338.91 C 1630.40 335.82 1630.47 332.17 1632.98 329.96 Z"
       id="path43"
       style="fill:#ffffff;fill-opacity:1" />
    <path
       fill="#000000"
       opacity="1.00"
       d=" M 1095.90 332.98 C 1098.17 329.83 1102.48 329.86 1105.98 329.69 C 1131.96 329.68 1157.95 329.65 1183.94 329.71 C 1187.86 329.74 1193.30 330.37 1194.43 334.96 C 1195.71 340.87 1194.89 346.98 1195.14 352.98 C 1194.99 356.54 1195.35 360.79 1192.58 363.51 C 1189.98 365.79 1186.28 365.71 1183.03 365.85 C 1165.24 365.86 1147.45 365.87 1129.66 365.84 C 1132.65 368.70 1131.89 372.90 1130.33 376.29 C 1147.23 376.19 1164.13 376.29 1181.03 376.23 C 1184.99 376.21 1189.50 376.46 1192.48 379.44 C 1195.28 382.36 1194.91 386.90 1193.49 390.38 C 1187.35 405.32 1176.52 418.38 1162.62 426.69 C 1144.13 437.81 1122.30 441.51 1101.06 442.75 C 1097.36 442.76 1093.09 443.57 1089.96 441.12 C 1086.12 437.49 1087.28 428.79 1093.45 428.59 C 1110.60 427.44 1128.02 425.85 1144.19 419.53 C 1132.58 413.59 1120.44 408.73 1108.20 404.28 C 1104.81 407.15 1101.65 411.03 1097.03 411.77 C 1091.67 412.19 1087.98 405.13 1090.87 400.78 C 1092.63 398.20 1095.54 396.78 1097.86 394.77 C 1103.48 390.06 1108.21 384.37 1112.42 378.39 C 1115.37 374.32 1117.16 369.48 1120.70 365.84 C 1115.11 365.81 1109.51 366.01 1103.93 365.74 C 1100.77 365.50 1096.98 364.73 1095.44 361.62 C 1093.31 357.05 1094.36 351.85 1094.12 346.99 C 1094.30 342.32 1093.35 337.18 1095.90 332.98 M 1110.23 341.52 C 1108.54 343.43 1109.56 346.58 1109.26 348.97 C 1109.58 350.54 1108.56 353.78 1111.06 353.77 C 1115.11 354.08 1119.19 353.88 1123.26 353.77 C 1123.05 349.60 1123.38 345.42 1123.06 341.25 C 1118.78 341.16 1114.45 340.84 1110.23 341.52 M 1137.24 341.18 C 1137.27 345.41 1137.27 349.64 1137.24 353.87 C 1141.84 353.90 1146.45 353.89 1151.06 353.88 C 1151.09 349.65 1151.08 345.41 1151.08 341.18 C 1146.46 341.16 1141.85 341.16 1137.24 341.18 M 1165.25 341.18 C 1165.26 345.41 1165.26 349.64 1165.24 353.87 C 1169.78 353.78 1174.35 354.19 1178.87 353.64 C 1180.36 352.34 1179.53 349.83 1179.83 348.05 C 1179.50 345.92 1180.50 343.10 1178.76 341.47 C 1174.29 340.82 1169.74 341.29 1165.25 341.18 M 1118.87 393.00 C 1132.44 398.60 1145.85 404.63 1159.00 411.18 C 1162.74 408.28 1166.23 405.04 1169.29 401.42 C 1171.47 398.58 1174.39 395.80 1174.78 392.06 C 1173.76 389.88 1171.01 390.09 1169.02 389.93 C 1153.66 389.92 1138.30 389.89 1122.95 389.95 C 1120.91 389.68 1120.07 391.82 1118.87 393.00 Z"
       id="path45"
       style="fill:#ffffff;fill-opacity:1" />
    <path
       fill="#000000"
       opacity="1.00"
       d=" M 1464.62 333.59 C 1466.42 331.47 1469.45 331.29 1472.04 331.27 C 1490.71 331.29 1509.37 331.28 1528.04 331.28 C 1537.92 331.53 1547.94 330.54 1557.70 332.46 C 1562.74 333.35 1566.41 337.86 1566.84 342.87 C 1568.05 354.23 1566.96 365.69 1566.34 377.06 C 1565.73 384.69 1566.00 393.01 1561.36 399.54 C 1557.77 404.81 1551.11 406.83 1545.01 406.73 C 1535.19 406.69 1525.36 404.47 1516.34 400.67 C 1510.52 398.19 1512.94 390.07 1517.05 387.14 C 1520.69 385.22 1524.59 387.75 1528.09 388.89 C 1533.80 390.88 1539.90 392.06 1545.97 391.80 C 1549.01 391.22 1549.51 387.52 1550.03 385.00 C 1551.54 373.70 1551.84 362.26 1551.73 350.87 C 1551.91 348.52 1550.64 345.75 1547.92 345.87 C 1534.56 345.51 1521.18 345.84 1507.81 345.72 C 1507.89 371.70 1507.60 397.69 1507.96 423.67 C 1529.29 423.58 1550.63 423.56 1571.96 423.68 C 1578.06 423.20 1579.19 430.86 1577.18 435.12 C 1575.99 437.89 1572.76 438.55 1570.07 438.43 C 1535.04 438.41 1500.02 438.42 1465.00 438.42 C 1462.74 438.41 1460.03 438.15 1458.78 436.00 C 1457.10 433.10 1457.19 429.35 1458.33 426.28 C 1459.40 423.71 1462.56 423.67 1464.94 423.61 C 1474.15 423.60 1483.36 423.62 1492.58 423.61 C 1492.52 397.63 1492.71 371.65 1492.49 345.67 C 1484.97 345.74 1477.45 345.78 1469.94 345.68 C 1467.51 345.62 1464.39 344.97 1463.73 342.23 C 1462.96 339.42 1462.85 336.06 1464.62 333.59 Z"
       id="path47"
       style="fill:#ffffff;fill-opacity:1" />
    <path
       fill="#000000"
       opacity="1.00"
       d=" M 1295.72 350.64 C 1302.23 349.23 1308.34 346.15 1314.97 345.36 C 1320.35 344.45 1323.35 351.23 1321.35 355.51 C 1320.43 357.18 1318.68 358.13 1316.95 358.72 C 1310.66 360.91 1304.16 362.40 1297.72 364.07 C 1298.76 369.60 1299.89 375.12 1301.19 380.60 C 1305.62 377.57 1309.53 373.86 1313.18 369.94 C 1314.57 368.53 1315.98 366.89 1317.99 366.38 C 1323.50 364.99 1329.04 372.59 1325.20 377.16 C 1319.62 383.84 1312.46 388.99 1305.36 393.95 C 1308.32 402.82 1312.91 411.09 1318.70 418.42 C 1321.63 422.41 1325.36 425.84 1327.70 430.24 C 1329.97 434.08 1327.54 438.94 1324.10 441.13 C 1321.27 442.68 1318.12 440.81 1316.05 438.87 C 1297.61 419.68 1289.38 393.21 1286.09 367.33 C 1284.75 368.01 1282.18 367.91 1282.26 369.95 C 1281.98 381.64 1282.23 393.34 1282.15 405.04 C 1282.27 409.51 1281.70 414.07 1282.75 418.48 C 1285.63 416.80 1288.00 414.30 1291.10 412.99 C 1294.07 411.72 1297.07 414.02 1298.36 416.61 C 1300.33 420.08 1299.09 424.59 1296.23 427.18 C 1291.75 431.46 1286.60 434.96 1281.41 438.28 C 1278.81 439.90 1275.26 441.36 1272.47 439.39 C 1269.15 437.09 1268.95 432.62 1268.89 428.97 C 1268.93 408.31 1268.86 387.64 1268.92 366.98 C 1268.78 362.56 1270.43 357.57 1274.87 355.83 C 1281.51 353.07 1288.88 352.82 1295.72 350.64 Z"
       id="path49"
       style="fill:#ffffff;fill-opacity:1" />
    <path
       fill="#000000"
       opacity="1.00"
       d=" M 1652.04 353.94 C 1651.83 347.52 1661.82 346.32 1664.50 351.32 C 1665.68 354.40 1665.25 357.80 1665.34 361.03 C 1665.13 369.56 1665.71 378.19 1664.10 386.62 C 1666.49 386.69 1669.23 386.08 1671.33 387.62 C 1673.03 388.85 1673.10 391.13 1673.24 393.04 C 1673.44 403.40 1673.02 413.78 1673.39 424.14 C 1673.15 427.19 1676.85 426.97 1678.98 427.11 C 1682.01 426.99 1686.46 427.39 1687.80 423.90 C 1689.41 419.11 1688.24 413.94 1689.20 409.04 C 1690.10 402.95 1700.74 403.06 1701.81 409.01 C 1702.69 414.66 1702.08 420.44 1701.68 426.12 C 1701.28 431.01 1699.66 436.72 1694.74 438.84 C 1689.12 441.08 1682.89 440.73 1676.97 440.73 C 1671.23 440.59 1663.93 439.45 1661.57 433.37 C 1658.99 425.77 1660.62 417.58 1659.99 409.72 C 1657.57 415.16 1655.19 420.74 1651.26 425.29 C 1644.77 432.95 1636.56 438.97 1627.95 444.00 L 1626.27 444.00 C 1622.62 442.79 1620.09 439.03 1620.39 435.21 C 1620.73 432.22 1623.40 430.33 1625.70 428.75 C 1632.07 424.62 1638.73 420.41 1643.07 413.99 C 1648.74 405.81 1650.02 395.62 1650.92 385.96 C 1651.93 375.31 1651.54 364.60 1652.04 353.94 Z"
       id="path51"
       style="fill:#ffffff;fill-opacity:1" />
    <path
       fill="#000000"
       opacity="1.00"
       d=" M 860.51 359.64 C 859.16 355.88 859.71 349.31 865.09 349.69 C 884.05 349.35 903.03 349.67 922.00 349.53 C 924.70 349.65 927.71 349.28 930.13 350.76 C 932.22 352.99 931.93 356.49 931.38 359.27 C 930.77 362.16 927.39 362.42 925.00 362.49 C 916.84 362.59 908.69 362.48 900.54 362.53 C 900.53 366.39 900.53 370.25 900.58 374.11 C 907.38 374.13 914.19 374.04 920.99 374.12 C 923.24 374.13 926.22 374.58 926.96 377.11 C 927.59 379.65 927.80 382.81 926.03 384.96 C 923.76 386.85 920.57 386.30 917.85 386.56 C 920.65 390.54 924.12 394.05 926.63 398.24 C 928.05 400.31 926.99 402.75 926.06 404.77 C 928.36 405.11 931.46 404.84 932.73 407.26 C 933.96 410.06 934.16 413.77 932.26 416.32 C 930.21 417.88 927.45 417.57 925.04 417.68 C 904.47 417.55 883.90 417.82 863.34 417.55 C 856.52 417.90 856.54 405.51 862.93 405.06 C 870.84 404.48 878.80 404.98 886.74 404.81 C 886.71 398.70 886.75 392.59 886.71 386.48 C 880.48 386.39 874.24 386.74 868.03 386.31 C 861.59 386.43 861.51 374.30 867.88 374.26 C 874.15 373.82 880.46 374.36 886.75 373.95 C 886.75 370.10 886.78 366.26 886.58 362.42 C 880.02 362.59 873.46 362.54 866.91 362.50 C 864.58 362.41 861.38 362.27 860.51 359.64 M 900.54 386.49 C 900.57 392.61 900.48 398.74 900.60 404.86 C 905.73 404.79 910.87 404.80 916.02 404.85 C 913.00 400.97 909.54 397.43 906.71 393.42 C 905.02 391.27 906.23 388.65 907.15 386.48 C 904.94 386.48 902.74 386.50 900.54 386.49 Z"
       id="path53"
       style="fill:#ffffff;fill-opacity:1" />
    <path
       fill="#000000"
       opacity="1.00"
       d=" M 763.75 363.62 C 764.07 360.07 762.68 355.21 766.12 352.82 C 769.22 351.83 772.76 351.94 775.89 352.80 C 779.45 355.06 778.01 360.08 778.37 363.62 C 787.25 363.62 796.13 363.61 805.02 363.61 C 808.29 363.69 812.03 363.94 814.47 366.43 C 816.74 369.04 816.99 372.69 817.13 375.99 C 817.18 382.04 817.12 388.10 817.13 394.16 C 820.41 394.30 823.91 393.69 827.03 394.97 C 829.98 396.84 829.48 401.14 828.94 404.12 C 828.49 406.85 825.53 407.89 823.08 407.83 C 811.68 407.99 800.28 407.72 788.88 407.95 C 798.80 417.16 811.32 423.02 824.08 427.16 C 826.90 428.05 830.39 429.58 830.58 433.02 C 830.81 436.84 828.41 441.89 823.96 441.61 C 818.74 441.24 814.05 438.67 809.29 436.73 C 795.42 430.74 783.39 421.19 773.04 410.30 C 765.50 422.86 752.46 430.94 739.08 436.11 C 732.87 438.39 726.62 440.76 720.09 441.90 C 714.35 443.10 711.10 435.65 713.18 431.17 C 714.82 428.57 718.09 427.97 720.85 427.24 C 734.31 424.27 747.88 418.57 757.06 407.93 C 745.03 407.77 732.99 407.93 720.96 407.86 C 718.43 407.91 715.10 407.31 714.45 404.40 C 713.91 401.50 713.50 397.95 715.47 395.50 C 718.67 393.36 722.82 394.42 726.44 394.16 C 726.47 388.09 726.38 382.02 726.46 375.96 C 726.55 372.62 726.93 368.91 729.34 366.37 C 731.87 363.89 735.65 363.67 739.00 363.61 C 747.24 363.61 755.49 363.61 763.75 363.62 M 742.22 377.37 C 741.91 377.54 741.29 377.89 740.98 378.06 C 740.28 383.39 740.85 388.80 740.67 394.17 C 748.27 394.21 755.88 394.09 763.49 394.24 C 764.05 388.58 763.66 382.88 763.78 377.20 C 756.59 377.33 749.39 376.94 742.22 377.37 M 778.33 377.21 C 778.32 382.86 778.45 388.51 778.15 394.16 C 786.45 394.19 794.75 394.17 803.06 394.17 C 802.80 388.62 803.66 382.95 802.54 377.49 C 794.50 376.82 786.39 377.37 778.33 377.21 Z"
       id="path55"
       style="fill:#ffffff;fill-opacity:1" />
    <path
       fill="#000000"
       opacity="1.00"
       d=" M 1213.28 356.35 C 1217.23 354.65 1220.99 357.71 1223.96 360.00 C 1228.10 363.46 1233.16 366.24 1235.86 371.10 C 1238.21 374.98 1234.62 379.45 1231.01 380.86 C 1228.47 381.94 1225.93 380.37 1224.01 378.83 C 1220.14 375.75 1216.20 372.76 1212.37 369.63 C 1210.45 367.97 1208.42 365.80 1208.50 363.10 C 1208.91 360.30 1210.70 357.60 1213.28 356.35 Z"
       id="path57"
       style="fill:#ffffff;fill-opacity:1" />
    <path
       fill="#000000"
       opacity="1.00"
       d=" M 986.21 390.31 C 1008.12 389.85 1030.07 390.26 1051.99 390.11 C 1055.90 390.15 1060.83 390.05 1063.29 393.71 C 1066.01 398.28 1065.08 403.89 1065.27 408.96 C 1064.98 417.44 1065.93 426.01 1064.62 434.42 C 1063.90 439.15 1058.79 440.61 1054.67 440.49 C 1033.45 440.63 1012.21 440.49 990.99 440.56 C 987.09 440.63 982.64 440.24 979.92 437.09 C 976.73 433.54 976.64 428.48 976.72 423.98 C 976.86 416.32 976.52 408.65 976.88 401.01 C 977.04 395.83 980.79 390.72 986.21 390.31 M 991.18 403.10 C 990.13 405.65 989.74 411.13 993.97 410.30 C 1013.05 410.19 1032.14 410.52 1051.22 410.13 C 1051.57 407.70 1051.58 405.24 1051.24 402.82 C 1033.17 402.44 1015.10 402.80 997.03 402.63 C 995.07 402.69 993.04 402.44 991.18 403.10 M 991.03 421.24 C 990.74 423.39 989.50 427.76 992.90 427.79 C 1011.60 427.90 1030.31 427.87 1049.02 427.80 C 1052.66 428.33 1052.75 420.45 1049.02 421.20 C 1029.69 421.15 1010.35 421.08 991.03 421.24 Z"
       id="path59"
       style="fill:#ffffff;fill-opacity:1" />
    <path
       fill="#000000"
       opacity="1.00"
       d=" M 1228.33 391.24 C 1231.23 389.75 1235.02 390.46 1237.66 392.25 C 1240.41 394.32 1239.72 398.18 1239.02 401.07 C 1235.83 413.50 1232.36 426.00 1226.36 437.40 C 1225.28 439.55 1223.43 441.42 1221.02 441.94 C 1216.76 443.15 1211.47 439.65 1211.72 435.04 C 1212.12 431.59 1214.16 428.67 1215.59 425.59 C 1219.94 416.49 1222.40 406.65 1225.05 396.95 C 1225.66 394.85 1226.39 392.51 1228.33 391.24 Z"
       id="path61"
       style="fill:#ffffff;fill-opacity:1" />
    <path
       fill="#000000"
       opacity="1.00"
       d=" M 1422.36 393.42 C 1425.40 392.42 1428.00 394.94 1429.85 397.04 C 1436.56 405.13 1442.65 413.73 1448.31 422.58 C 1450.21 425.78 1452.70 429.17 1452.20 433.11 C 1451.19 436.11 1447.81 437.35 1445.04 438.18 C 1441.63 438.87 1439.36 435.55 1437.86 433.03 C 1433.44 425.06 1428.16 417.61 1422.46 410.52 C 1420.20 407.52 1417.03 404.86 1416.32 401.01 C 1416.09 397.42 1419.24 394.58 1422.36 393.42 Z"
       id="path63"
       style="fill:#ffffff;fill-opacity:1" />
    <path
       fill="#000000"
       opacity="1.00"
       d=" M 1362.15 394.18 C 1367.36 392.05 1374.19 398.04 1371.37 403.50 C 1366.05 414.18 1357.97 423.18 1350.03 431.97 C 1347.69 434.57 1344.71 437.49 1340.89 436.88 C 1335.76 436.29 1332.80 429.39 1336.55 425.53 C 1343.21 418.19 1350.16 410.99 1355.48 402.55 C 1357.47 399.64 1358.74 395.80 1362.15 394.18 Z"
       id="path65"
       style="fill:#ffffff;fill-opacity:1" />
  </g>
</svg>
