<svg width="600pt" height="236.53pt" version="1.1" viewBox="0 0 600 236.53" xmlns="http://www.w3.org/2000/svg">
 <g stroke-width="1.973">
  <path d="m-9.4e-8 89.44c6.3925 1.2627 12.095 6.8069 12.114 13.574v40.664c10.477-13.712 24.929-25.314 42.41-28.036 27.306-5.189 58.085 7.8723 70.377 33.442 10.615 20.874 7.0634 47.924-8.5826 65.346-19.454 22.472-54.159 27.74-80.775 16.021-21.091-9.2336-35.287-31.371-35.544-54.297v-86.713m57.444 36.501c-17.915 2.6833-34.606 14.521-41.394 31.568-7.2607 17.086-3.0384 37.882 9.1942 51.614 21.308 24.307 65.01 21.979 83.833-4.242 12.233-16.356 12.825-40.269 1.1246-57.079-11.246-16.968-32.949-25.097-52.758-21.861z"/>
  <path d="m140.78 125.72c23.4-10.398 50.647-15.488 75.408-6.8266 15.113 5.3468 26.359 19.809 27.129 35.928 0.76947 26.576 0.49325 33.411 0.49325 79.788-3.8474-0.47352-8.0893-1.3614-10.299-4.9128-3.6106-4.3012-1.973-10.181-2.1308-15.271-11.483 13.653-28.904 21.821-46.74 21.979-16.514 0.67082-34.685-3.7882-45.853-16.711-10.299-11.424-9.5888-30.345 0.3946-41.729 6.9844-8.2669 17.481-12.548 27.819-14.817 21.289-4.3998 43.327-1.8152 64.34 2.8806 0.31568-10.023-0.80893-21.032-8.0893-28.648-9.7664-10.319-24.998-12.509-38.533-11.937-10.911-0.0395-21.289 3.4528-31.489 6.8858-5.1693 1.8349-10.398-2.0125-12.45-6.6096m11.68 55.481c-9.135 7.5369-10.674 22.571-2.8608 31.588 9.431 11.069 25.254 13.85 39.065 12.647 15.232-1.4403 31.608-7.9117 39.421-21.861 4.8733-8.1485 2.92-18.014 3.4133-27.01-14.068-3.1963-28.411-5.5836-42.854-5.3468-12.548-0.13811-26.3 1.4995-36.185 9.9834z"/>
  <path d="m396.09 136.91c20.065-25.254 60.867-29.95 86.023-9.7466 15.823 12.371 22.768 33.314 21.782 52.926h-108.48c1.4008 13.476 7.8328 26.606 18.724 34.912 13.653 10.911 32.515 12.864 49.128 8.9969 12.252-3.1963 22.65-11.049 31.884-19.395 14.876 12.055 33.403 19.434 52.482 20.953 10.911 0.80893 22.828-0.94704 31.351-8.3063 6.5306-5.702 8.6023-16.928 2.5057-23.656-7.2606-8.0893-18.428-10.24-28.392-13.081-13.653-4.0052-28.549-5.8796-40.151-14.758-6.6885-4.7944-10.22-13.101-9.135-21.249 1.1049-14.462 14.344-24.761 27.622-27.918 23.479-5.4455 48.595 1.0457 68.562 13.969-3.5711 3.6698-8.6615 7.4382-14.008 4.972-12.055-5.5244-24.88-10.378-38.355-10.141-8.8193-0.15784-18.231 1.756-24.899 7.8526-5.2876 4.459-7.6552 12.529-4.4984 18.862 3.5711 6.136 10.437 9.1153 16.81 11.463 14.837 5.1495 30.66 7.2804 45.004 13.831 8.8193 4.3012 17.757 11.877 18.033 22.473 1.2233 11.739-5.6625 23.124-15.666 28.924-13.278 8.188-29.615 8.7996-44.649 6.6885-14.995-2.703-29.694-7.9907-42.222-16.81-10.122 7.9315-21.545 14.936-34.508 16.81-13.416 1.8546-27.523 1.5587-40.19-3.6895-15.606-5.9782-28.786-18.526-34.567-34.291-7.4974-20.046-3.9263-44.037 9.8058-60.591m16.751-0.84839c-10.062 8.6023-15.764 21.269-17.461 34.232h95.158c-1.0852-13.614-6.8069-27.306-17.658-35.968-17.126-13.476-43.623-12.41-60.038 1.7362z"/>
 </g>
 <g transform="matrix(2.491 0 0 2.491 -127.2 -102.49)" fill="#55d6c5">
  <path d="m150.48 77.391c2.5425-0.27722 4.689 2.6217 4.7444 5.0454v16.546c3.5563-4.5227 7.873-8.6572 13.473-10.455 8.2849-2.7643 17.948-1.2673 24.91 4.0474 6.1305 4.6177 9.8057 12.317 9.4413 19.999-0.3485 9.3542-6.7008 17.996-15.382 21.394-8.5938 3.3821-19.025 2.8593-26.74-2.4395-6.4157-4.3722-10.424-11.968-10.447-19.722v-34.415m24.055 14.194c-5.3543 0.59404-10.534 3.0653-14.107 7.1364-4.1266 4.5227-5.8929 11.081-4.5068 17.053 1.3782 7.3265 7.2473 13.56 14.495 15.35 7.1681 1.7584 15.398 0.47523 20.966-4.6098 7.1365-6.0751 8.7602-17.409 3.7623-25.298-4.1742-6.9464-12.673-10.582-20.609-9.6314z" stroke-width=".79206"/>
  <path d="m172.75 41.28c-7.193 3e-6 -13.95 3.0046-18.108 8.187-3.0875 3.8481-4.5865 7.6728-4.5865 14.808 0 6.1142 2.09 10.7 5.3711 14.046 4.163 4.2459 10.314 6.4263 17.324 6.4263 10.792 0 19.824-6.6947 22.126-17.47-2.365-0.38821-3.5895 2.2319-4.8276 4.326-1.1478 1.9414-2.1487 3.4164-3.5352 4.8029-3.5166 3.1799-8.3851 5.2954-13.764 5.2954-5.6066 0-11.213-2.1668-14.749-5.7492-3.2286-3.2707-4.6381-7.782-4.6381-11.678h42.082c0-13.965-10.161-22.995-22.695-22.995zm0 3.0454c10.725-4e-6 19.419 8.4115 19.419 16.903h-38.84c0-3.31 1.3231-6.8743 3.738-9.7528 3.5408-4.2206 9.3063-7.1501 15.683-7.1501z" style="paint-order:stroke fill markers"/>
  <path d="m58.574 85.06c1.9727-0.37706 3.7323-2.0326 3.7384-4.0534v-12.143c3.233 4.0947 7.6929 7.5589 13.087 8.372 8.4266 1.5495 17.925-2.3508 21.718-9.9863 3.2757-6.2333 2.1797-14.311-2.6485-19.513-6.0034-6.7105-16.713-8.2836-24.927-4.784-6.5087 2.7573-10.889 9.3677-10.969 16.214v25.894m17.727-10.899c-5.5284-0.80126-10.679-4.3362-12.774-9.4266-2.2406-5.1021-0.93764-11.312 2.8373-15.412 6.5757-7.2585 20.062-6.5633 25.87 1.2667 3.7749 4.8841 3.9576 12.025 0.34705 17.044-3.4705 5.0668-10.168 7.4941-16.281 6.5279z" stroke-width=".59893"/>
  <path transform="scale(.75)" d="m208.48 56.52c-5.1755 0-10.64 0.42677-14.787 3.7734-5.2533 3.88-6.5504 10.853-6.5371 17v35.236c2.2609 0.24652 4.1694-2.331 4.2188-4.4863v-29.389c0.13333-4.84 0.63763-10.16 3.9043-14 1.7213-2.2343 4.3537-3.2245 7.0064-3.8723 2.5837-0.63097 6.4591-1.8315 6.1948-4.2624z" stroke-width="1.3333"/>
  <path transform="scale(.75)" d="m136.02 55.922c-0.13841-0.0059-0.27838-0.0018-0.41992 0.01367v32.145c0.14667 6.7867 0.85237 14.546 6.3457 19.293 3.9325 3.952 9.5872 5.8953 15.066 5.8953 5.4792 0 11.134-1.9433 15.066-5.8953 5.4933-4.7467 6.199-12.506 6.3457-19.293v-32.145c-0.14153-0.01553-0.28151-0.01954-0.41992-0.01367-2.0763 0.08813-3.7584 2.4839-3.8047 4.5078v30.225c-0.17333 5.28-1.6141 10.919-5.8008 14.479-3.02 2.845-7.2946 4.0751-11.387 4.0751s-8.3668-1.2301-11.387-4.0751c-4.1867-3.56-5.6274-9.1985-5.8008-14.479v-30.225c-0.0463-2.0239-1.7284-4.4197-3.8047-4.5078z" stroke-width="1.3333"/>
 </g>
</svg>
