<svg width="810.85pt" height="130.5pt" version="1.1" viewBox="0 0 810.85 130.5" xmlns="http://www.w3.org/2000/svg">
 <defs>
  <linearGradient id="a" x2="1" gradientTransform="matrix(266.56,-97.019,-97.019,-266.56,220.2,443.85)" gradientUnits="userSpaceOnUse">
   <stop stop-color="#f8b81d" offset="0"/>
   <stop stop-color="#f89a22" offset="1"/>
  </linearGradient>
 </defs>
 <g transform="matrix(3.4419 0 0 -3.4419 -857.14 1102.7)" fill="url(#a)" stroke-width=".3226">
  <path d="m354.86 308.89c0-6.6683 5.272-9.3565 9.1346-11.327 2.388-1.2136 4.4499-2.2576 4.4499-3.7191 0-1.6181-0.88737-2.5186-2.5186-2.5186-1.853 0-4.9588 2.6752-6.0028 3.693-0.30014 0.28709-0.75687 0.67858-1.3572 0.67858-0.44368 0-0.84821-0.2088-1.2266-0.63943l-3.7452-4.3977c-1.1614-1.2919-0.27404-2.3098 0.0392-2.5968 0.53503-0.57418 5.4808-5.5982 12.293-5.5982 7.4774 0 13.128 5.0502 13.128 11.732 0 6.9162-5.3634 9.6958-9.2782 11.718-2.2576 1.1614-4.215 2.1662-4.215 3.432 0 1.2528 0.90041 1.7747 1.6964 1.8661 1.7356 0.16965 3.0405-0.54808 3.693-0.95261 0.63943-0.40454 1.1614-0.78297 1.1614-0.78297 0.35233-0.19574 0.61332-0.33929 1.07-0.32624 0.52198-0.013 0.97872 0.24794 1.305 0.71772l2.9492 4.3455c0.53503 0.76992 0.99176 1.7747-0.35233 2.8056-2.1662 1.6573-5.0371 3.3537-9.9046 3.3537-7.2555 0-12.319-4.7239-12.319-11.484"/>
  <path d="m267.69 320.37c-4.7761 0-9.5522-1.8269-13.193-5.4677-3.6408-3.6539-5.4677-8.4169-5.4677-13.206 0-4.7761 1.8269-9.5522 5.4677-13.193 3.3668-3.3668 7.6992-5.1806 12.11-5.4416 0 0 11.118-0.36539 19.979-0.26099 0.13049 10.596-0.26099 19.992-0.26099 19.992-0.26099 4.3977-2.0618 8.7432-5.4286 12.11-3.6539 3.6408-8.43 5.4677-13.206 5.4677zm0-10.583c2.0749 0 4.1367-0.79602 5.7157-2.375 3.158-3.158 3.158-8.2734 0-11.431-1.579-1.5659-3.6408-2.362-5.7157-2.362s-4.1367 0.79601-5.7157 2.362c-3.1449 3.158-3.1449 8.2734 0 11.431 1.579 1.579 3.6539 2.375 5.7157 2.375z"/>
  <path d="m382.9 319.95c-1.0179 0-1.6964-0.66553-1.6964-1.7095v-5.6896c0-1.0309 0.67857-1.6964 1.6964-1.6964h6.6161v-26.36c0-1.0179 0.66552-1.6964 1.6964-1.6964h6.9554c1.0309 0 1.6964 0.67857 1.6964 1.6964v26.36h6.603c1.044 0 1.7095 0.66552 1.7095 1.6964v5.6896c0 1.044-0.66553 1.7095-1.7095 1.7095z"/>
  <path d="m311.64 319.95c-1.0179 0-1.6834-0.66553-1.6834-1.6964v-20.84c0-3.7452-1.4224-5.7287-4.1106-5.7287-0.95261 0-3.8757 0-3.8757 5.7287v20.84c0 1.0309-0.65248 1.6964-1.6703 1.6964h-6.8379c-1.0179 0-1.6703-0.66553-1.6703-1.6964v-20.84c0-9.9176 4.7239-14.955 14.054-14.955 9.3565 0 14.302 5.1806 14.302 14.955v20.84c0 1.0309-0.66552 1.6964-1.6834 1.6964z"/>
  <path d="m327.65 319.94c-1.044 0-1.7095-0.66553-1.7095-1.6964v-33.746c0-1.0309 0.66553-1.6964 1.6964-1.6964h20.409c1.0309 0 1.6964 0.66552 1.6964 1.6964v5.6896c0 1.0309-0.66552 1.6964-1.6964 1.6964h-11.745v4.9588h10.322c1.044 0 1.7095 0.66553 1.7095 1.7095v5.6896c0 1.0309-0.66552 1.7095-1.7095 1.6964l-10.322 0.0131v4.8936h11.745c1.0309 0 1.6964 0.66552 1.6964 1.7095v5.6896c0 1.0309-0.66552 1.6964-1.6964 1.6964z"/>
 </g>
 <g transform="translate(-.004059 20.313)" fill="#fff" stroke-width="1.1104">
  <path d="m704.35-18.589c8.1604-0.67509 16.404-0.08292 24.599-0.28426 12.258 0.27239 24.753-1.0423 36.763 2.1674 14.378 3.411 27.62 12.235 35.401 24.931 10.351 16.818 11.915 38.018 7.201 56.909-4.3585 17.481-17.351 32.57-34.288 38.907-14.674 6.0995-30.829 4.8796-46.345 4.9744-7.1299-0.0948-14.26 0.15411-21.378-0.0948-3.6716 0-6.9168-3.3399-6.7036-7.0115-0.0711-37.557 0.0106-75.113-0.0355-112.66-0.39085-3.3281 1.4686-6.8694 4.7849-7.8406m27.833 30.853c0.0828 21.864 0 43.727 0.0355 65.603 9.8658-0.23685 20.454 1.1844 29.515-3.6597 9.2026-4.5125 14.284-14.639 15.006-24.552 1.2318-11.891-2.0608-25.665-12.685-32.487-9.3921-6.3601-21.165-4.8559-31.872-4.9033z"/>
  <path d="m607.99-18.712v0.0017l-26.097 0.19431c-2.9609 0.15397-5.0325 3.0563-4.8075 5.8988v115.75c-0.22513 2.8425 1.8466 5.7449 4.8075 5.8988l26.097-0.19423c2.9609-0.15377 5.0343-3.0562 4.8093-5.8988l-1.5e-4 -42.103h43.491l9e-3 42.298c-0.22514 2.8425 1.8483 5.7449 4.8093 5.8988l26.099-0.19423c2.9609-0.15377 5.0342-3.0562 4.8093-5.8988v-115.75c0.22514-2.8425-1.8483-5.743-4.8093-5.897v-0.0017l-26.099 0.19431c-2.9609 0.15397-5.0345 3.0563-4.8094 5.8988l8e-3 42.17-43.509-0.06783-6e-5 -42.299c0.22514-2.8425-1.8483-5.743-4.8093-5.897z"/>
 </g>
</svg>
