<?xml version="1.0" encoding="UTF-8" standalone="no"?>
<svg
   xmlns:dc="http://purl.org/dc/elements/1.1/"
   xmlns:cc="http://creativecommons.org/ns#"
   xmlns:rdf="http://www.w3.org/1999/02/22-rdf-syntax-ns#"
   xmlns:svg="http://www.w3.org/2000/svg"
   xmlns="http://www.w3.org/2000/svg"
   xmlns:xlink="http://www.w3.org/1999/xlink"
   xmlns:sodipodi="http://sodipodi.sourceforge.net/DTD/sodipodi-0.dtd"
   xmlns:inkscape="http://www.inkscape.org/namespaces/inkscape"
   id="svg2985"
   version="1.1"
   inkscape:version="0.91 r13725"
   width="198.99429"
   height="286.4649"
   xml:space="preserve"
   sodipodi:docname="Quest.svg"><metadata
     id="metadata2991"><rdf:RDF><cc:Work
         rdf:about=""><dc:format>
          image/svg+xml
        </dc:format><dc:type
           rdf:resource="http://purl.org/dc/dcmitype/StillImage" /><dc:title></dc:title></cc:Work></rdf:RDF></metadata><defs
     id="defs2989"><linearGradient
       inkscape:collect="always"
       id="linearGradient6295"><stop
         offset="0"
         id="stop6297"
         style="stop-color:#f8ae1f;stop-opacity:1" /><stop
         offset="1"
         id="stop6299"
         style="stop-color:#f89d21;stop-opacity:1" /></linearGradient><linearGradient
       inkscape:collect="always"
       xlink:href="#linearGradient6295"
       id="linearGradient6301"
       x1="257.79498"
       y1="435.12839"
       x2="399.19565"
       y2="435.12839"
       gradientUnits="userSpaceOnUse"
       gradientTransform="matrix(0.99812015,0,0,0.99812015,0.34892254,0.53100601)" /><linearGradient
       id="b"
       gradientUnits="userSpaceOnUse"
       gradientTransform="matrix(204.27,74.347,-74.347,204.27,222.18,39.686)"
       x1="0"
       x2="1"
       y1="0"
       y2="0"><stop
         stop-color="#f8b81d"
         offset="0"
         id="stop7" /><stop
         stop-color="#f89a22"
         offset="1"
         id="stop9" /></linearGradient><linearGradient
       x1="0"
       y1="0"
       x2="1"
       y2="0"
       gradientUnits="userSpaceOnUse"
       gradientTransform="matrix(234.85876,-85.481717,-85.481717,-234.85876,211.81081,430.62751)"
       spreadMethod="pad"
       id="linearGradient932"><stop
         style="stop-opacity:1;stop-color:#fbbe30"
         offset="0"
         id="stop934" /><stop
         style="stop-opacity:1;stop-color:#fbbe30"
         offset="0.00087691"
         id="stop936" /><stop
         style="stop-opacity:1;stop-color:#faa433"
         offset="1"
         id="stop938" /></linearGradient></defs><sodipodi:namedview
     pagecolor="#ffffff"
     bordercolor="#666666"
     borderopacity="1"
     objecttolerance="10"
     gridtolerance="10"
     guidetolerance="10"
     inkscape:pageopacity="0"
     inkscape:pageshadow="2"
     inkscape:window-width="1920"
     inkscape:window-height="1017"
     id="namedview2987"
     showgrid="false"
     fit-margin-left="0"
     fit-margin-bottom="0"
     fit-margin-top="0"
     fit-margin-right="0"
     inkscape:zoom="1.268591"
     inkscape:cx="80.474098"
     inkscape:cy="212.1752"
     inkscape:window-x="-8"
     inkscape:window-y="-8"
     inkscape:window-maximized="1"
     inkscape:current-layer="g2993"><inkscape:grid
       type="xygrid"
       id="grid6288"
       empspacing="5"
       visible="true"
       enabled="true"
       snapvisiblegridlinesonly="true"
       originx="-0.47266867"
       originy="-0.50000103" /></sodipodi:namedview><g
     id="g2993"
     inkscape:groupmode="layer"
     inkscape:label="Freeview-Channel-Guide_110414A"
     transform="matrix(1.25,0,0,-1.25,-311.25822,639.54175)"><path
       d="m 328.60429,511.6334 c -37.93959,0 -70.81663,-29.77819 -70.81663,-71.76484 0,-24.77025 10.24495,-38.48763 24.87815,-54.47241 l 45.83867,-46.78688 45.73885,46.58726 c 18.27195,19.12655 25.17759,31.66459 25.17759,54.92155 0,38.56383 -30.08214,71.51532 -70.81663,71.51532 z m 0.14972,-40.34901 c 17.06453,0 30.89181,-13.85224 30.89181,-30.91677 0,-17.06453 -13.82728,-30.89182 -30.89181,-30.89182 -17.06453,0 -30.89182,13.82729 -30.89182,30.89182 0,17.06453 13.82729,30.91677 30.89182,30.91677 z"
       id="path6290"
       inkscape:connector-curvature="0"
       style="fill:url(#linearGradient6301);fill-opacity:1" /><path
       d="m 354.86342,308.89392 c 0,-6.68327 5.27809,-9.36904 9.14062,-11.33145 l 0,0 c 2.38812,-1.21483 4.45436,-2.26698 4.45436,-3.72062 l 0,0 c 0,-1.62323 -0.89641,-2.51618 -2.51964,-2.51618 l 0,0 c -1.85858,0.003 -4.96313,2.65808 -6.00491,3.68947 l 0,0 c -0.29073,0.29073 -0.75451,0.68183 -1.35673,0.68183 l 0,0 c -0.45339,0 -0.85834,-0.21459 -1.23213,-0.6403 l 0,0 -3.74831,-4.39898 c -1.15252,-1.29789 -0.2665,-2.31544 0.045,-2.60963 l 0,0 c 0.54338,-0.57107 5.48575,-5.58612 12.29708,-5.58612 l 0,0 c 7.48624,0 13.13466,5.0462 13.13466,11.73293 l 0,0 c 0,6.91517 -5.37154,9.68746 -9.28944,11.71563 l 0,0 c -2.26006,1.16291 -4.20517,2.17008 -4.20517,3.43336 l 0,0 c 0,1.2529 0.88949,1.78244 1.69245,1.86204 l 0,0 c 1.73745,0.17305 3.04226,-0.53992 3.68601,-0.94833 l 0,0 c 0.64722,-0.4084 1.16983,-0.78565 1.16983,-0.78565 l 0,0 c 0.34957,-0.19382 0.61607,-0.3288 1.05908,-0.3288 l 0,0 c 0.52608,0 0.97948,0.25265 1.31174,0.72682 l 0,0 2.94535,4.34361 c 0.54684,0.76489 0.99678,1.76859 -0.34265,2.80344 l 0,0 c -2.16661,1.65784 -5.03927,3.35375 -9.90896,3.35375 l 0,0 c -7.26127,0 -12.32824,-4.72086 -12.32824,-11.47682 m -100.38754,6.00837 c -7.29241,-7.29241 -7.29241,-19.11534 0,-26.40775 l 0,0 c 3.3676,-3.3676 7.70082,-5.18118 12.11365,-5.4373 l 0,0 -0.003,0 c 0,0 11.13071,-0.37033 19.98752,-0.25958 l 0,0 c 0.13152,10.59771 -0.25612,19.98752 -0.25612,19.98752 l 0,0 c -0.25611,4.40937 -2.0697,8.74606 -5.43729,12.11711 l 0,0 c -3.64794,3.64448 -8.42764,5.46499 -13.20388,5.46499 l 0,0 c -4.7797,0 -9.55594,-1.82051 -13.20042,-5.46499 m 7.48278,-18.92152 c -3.15301,3.15993 -3.15301,8.27536 0,11.43183 l 0,0 c 3.15993,3.15647 8.27881,3.15647 11.43182,0 l 0,0 c 3.15647,-3.15301 3.15647,-8.2719 0,-11.43183 l 0,0 c -1.57823,-1.57823 -3.64794,-2.36735 -5.71418,-2.36735 l 0,0 c -2.0697,0 -4.13595,0.78912 -5.71764,2.36735 m 120.9669,23.97118 c -1.03485,0 -1.7063,-0.66798 -1.7063,-1.70283 l 0,0 0,-5.69341 c 0.003,-1.03486 0.67145,-1.70284 1.7063,-1.70284 l 0,0 6.60713,0 0,-26.35584 c 0,-1.03485 0.66798,-1.70283 1.70283,-1.70283 l 0,0 6.95324,0 c 1.03485,0 1.70283,0.66798 1.70283,1.70283 l 0,0 0,26.35584 6.61059,0 c 0.97948,0 1.63015,0.59876 1.69937,1.53671 l 0,0 0,6.02913 c -0.0692,0.93794 -0.71989,1.53324 -1.69937,1.5367 l 0,0 -23.57662,-0.003 z m -71.29402,0.003 c -1.01755,0 -1.67514,-0.66798 -1.67514,-1.69937 l 0,0 0,-20.8424 c 0,-3.74484 -1.42595,-5.73148 -4.11864,-5.73148 l 0,0 c -0.95871,0 -3.87291,0 -3.87291,5.73148 l 0,0 0,20.8424 c 0,1.03139 -0.6576,1.69937 -1.67515,1.69937 l 0,0 -6.83556,0 c -1.01754,0 -1.67514,-0.66798 -1.67514,-1.69937 l 0,0 0,-20.8424 c 0,-9.91934 4.72778,-14.9517 14.05876,-14.9517 l 0,0 c 9.35519,0 14.30448,5.1708 14.30448,14.9517 l 0,0 0,20.8424 c 0,1.03139 -0.65759,1.69937 -1.6786,1.69937 l 0,0 -6.8321,0 z m 16.01771,-0.0104 c -1.03486,0 -1.7063,-0.66798 -1.70284,-1.70283 l 0,0 -0.003,-33.75209 c 0,-1.03485 0.67144,-1.70283 1.70629,-1.70283 l 0,0 20.39939,0 c 1.03485,0.003 1.70283,0.66798 1.70283,1.70283 l 0,0 0,5.69342 c 0,1.03485 -0.66798,1.70283 -1.70283,1.70283 l 0,0 -11.74332,0 0,4.95621 10.33468,0 c 1.03485,0 1.70283,0.66798 1.70283,1.70284 l 0,0 -0.003,5.69341 c 0.003,1.03485 -0.66452,1.70629 -1.69938,1.70283 l 0,0 -10.33467,0.003 0,4.90084 11.74332,0 c 1.03485,0 1.70283,0.67144 1.70283,1.70283 l 0,0 0,5.69342 c 0,1.03485 -0.66798,1.70283 -1.70283,1.70283 l 0,0 -20.39939,0 z"
       style="fill:url(#linearGradient932);stroke:none"
       id="path940"
       inkscape:connector-curvature="0" /></g></svg>