<svg height="286.4649" width="198.99429" xmlns="http://www.w3.org/2000/svg" xmlns:xlink="http://www.w3.org/1999/xlink"><linearGradient id="a" gradientUnits="userSpaceOnUse" x1="257.659287" x2="398.794145" y1="434.84142" y2="434.84142"><stop offset="0" stop-color="#f8ae1f"/><stop offset="1" stop-color="#f89d21"/></linearGradient><linearGradient id="b" gradientTransform="matrix(234.85876 -85.481717 -85.481717 -234.85876 211.81081 430.62751)" gradientUnits="userSpaceOnUse" spreadMethod="pad" x1="0" x2="1" y1="0" y2="0"><stop offset="0" stop-color="#fbbe30"/><stop offset=".00087691" stop-color="#fbbe30"/><stop offset="1" stop-color="#faa433"/></linearGradient><g transform="matrix(1.25 0 0 -1.25 -311.25822 639.54175)"><path d="m328.60429 511.6334c-37.93959 0-70.81663-29.77819-70.81663-71.76484 0-24.77025 10.24495-38.48763 24.87815-54.47241l45.83867-46.78688 45.73885 46.58726c18.27195 19.12655 25.17759 31.66459 25.17759 54.92155 0 38.56383-30.08214 71.51532-70.81663 71.51532zm.14972-40.34901c17.06453 0 30.89181-13.85224 30.89181-30.91677s-13.82728-30.89182-30.89181-30.89182-30.89182 13.82729-30.89182 30.89182 13.82729 30.91677 30.89182 30.91677z" fill="url(#a)"/><path d="m354.86342 308.89392c0-6.68327 5.27809-9.36904 9.14062-11.33145 2.38812-1.21483 4.45436-2.26698 4.45436-3.72062 0-1.62323-.89641-2.51618-2.51964-2.51618-1.85858.003-4.96313 2.65808-6.00491 3.68947-.29073.29073-.75451.68183-1.35673.68183-.45339 0-.85834-.21459-1.23213-.6403l-3.74831-4.39898c-1.15252-1.29789-.2665-2.31544.045-2.60963.54338-.57107 5.48575-5.58612 12.29708-5.58612 7.48624 0 13.13466 5.0462 13.13466 11.73293 0 6.91517-5.37154 9.68746-9.28944 11.71563-2.26006 1.16291-4.20517 2.17008-4.20517 3.43336 0 1.2529.88949 1.78244 1.69245 1.86204 1.73745.17305 3.04226-.53992 3.68601-.94833.64722-.4084 1.16983-.78565 1.16983-.78565.34957-.19382.61607-.3288 1.05908-.3288.52608 0 .97948.25265 1.31174.72682l2.94535 4.34361c.54684.76489.99678 1.76859-.34265 2.80344-2.16661 1.65784-5.03927 3.35375-9.90896 3.35375-7.26127 0-12.32824-4.72086-12.32824-11.47682m-100.38754 6.00837c-7.29241-7.29241-7.29241-19.11534 0-26.40775 3.3676-3.3676 7.70082-5.18118 12.11365-5.4373h-.003s11.13071-.37033 19.98752-.25958c.13152 10.59771-.25612 19.98752-.25612 19.98752-.25611 4.40937-2.0697 8.74606-5.43729 12.11711-3.64794 3.64448-8.42764 5.46499-13.20388 5.46499-4.7797 0-9.55594-1.82051-13.20042-5.46499m7.48278-18.92152c-3.15301 3.15993-3.15301 8.27536 0 11.43183 3.15993 3.15647 8.27881 3.15647 11.43182 0 3.15647-3.15301 3.15647-8.2719 0-11.43183-1.57823-1.57823-3.64794-2.36735-5.71418-2.36735-2.0697 0-4.13595.78912-5.71764 2.36735m120.9669 23.97118c-1.03485 0-1.7063-.66798-1.7063-1.70283v-5.69341c.003-1.03486.67145-1.70284 1.7063-1.70284h6.60713v-26.35584c0-1.03485.66798-1.70283 1.70283-1.70283h6.95324c1.03485 0 1.70283.66798 1.70283 1.70283v26.35584h6.61059c.97948 0 1.63015.59876 1.69937 1.53671v6.02913c-.0692.93794-.71989 1.53324-1.69937 1.5367l-23.57662-.003zm-71.29402.003c-1.01755 0-1.67514-.66798-1.67514-1.69937v-20.8424c0-3.74484-1.42595-5.73148-4.11864-5.73148-.95871 0-3.87291 0-3.87291 5.73148v20.8424c0 1.03139-.6576 1.69937-1.67515 1.69937h-6.83556c-1.01754 0-1.67514-.66798-1.67514-1.69937v-20.8424c0-9.91934 4.72778-14.9517 14.05876-14.9517 9.35519 0 14.30448 5.1708 14.30448 14.9517v20.8424c0 1.03139-.65759 1.69937-1.6786 1.69937zm16.01771-.0104c-1.03486 0-1.7063-.66798-1.70284-1.70283l-.003-33.75209c0-1.03485.67144-1.70283 1.70629-1.70283h20.39939c1.03485.003 1.70283.66798 1.70283 1.70283v5.69342c0 1.03485-.66798 1.70283-1.70283 1.70283h-11.74332v4.95621h10.33468c1.03485 0 1.70283.66798 1.70283 1.70284l-.003 5.69341c.003 1.03485-.66452 1.70629-1.69938 1.70283l-10.33467.003v4.90084h11.74332c1.03485 0 1.70283.67144 1.70283 1.70283v5.69342c0 1.03485-.66798 1.70283-1.70283 1.70283h-20.39939z" fill="url(#b)"/></g></svg>