<?xml version="1.0" encoding="UTF-8" standalone="no"?>
<svg
   xmlns:dc="http://purl.org/dc/elements/1.1/"
   xmlns:cc="http://creativecommons.org/ns#"
   xmlns:rdf="http://www.w3.org/1999/02/22-rdf-syntax-ns#"
   xmlns:svg="http://www.w3.org/2000/svg"
   xmlns="http://www.w3.org/2000/svg"
   xmlns:sodipodi="http://sodipodi.sourceforge.net/DTD/sodipodi-0.dtd"
   xmlns:inkscape="http://www.inkscape.org/namespaces/inkscape"
   width="529.67108pt"
   height="292.80002pt"
   viewBox="0 0 529.67109 292.80002"
   version="1.1"
   id="svg2"
   inkscape:version="0.91 r13725"
   sodipodi:docname="QVC Plus - Dark.svg">
  <metadata
     id="metadata43">
    <rdf:RDF>
      <cc:Work
         rdf:about="">
        <dc:format>image/svg+xml</dc:format>
        <dc:type
           rdf:resource="http://purl.org/dc/dcmitype/StillImage" />
        <dc:title></dc:title>
      </cc:Work>
    </rdf:RDF>
  </metadata>
  <defs
     id="defs41">
    <clipPath
       clipPathUnits="userSpaceOnUse"
       id="clipPath434">
      <path
         d="m 0,0 419.528,0 0,595.276 L 0,595.276 0,0 Z"
         id="path436"
         inkscape:connector-curvature="0" />
    </clipPath>
    <clipPath
       clipPathUnits="userSpaceOnUse"
       id="clipPath458">
      <path
         d="m 0,0 419.528,0 0,595.276 L 0,595.276 0,0 Z"
         id="path460"
         inkscape:connector-curvature="0" />
    </clipPath>
  </defs>
  <sodipodi:namedview
     pagecolor="#ffffff"
     bordercolor="#666666"
     borderopacity="1"
     objecttolerance="10"
     gridtolerance="10"
     guidetolerance="10"
     inkscape:pageopacity="0"
     inkscape:pageshadow="2"
     inkscape:window-width="1920"
     inkscape:window-height="1017"
     id="namedview39"
     showgrid="false"
     fit-margin-top="0"
     fit-margin-left="0"
     fit-margin-right="0"
     fit-margin-bottom="0"
     inkscape:zoom="1.2487805"
     inkscape:cx="318.27197"
     inkscape:cy="77.536445"
     inkscape:window-x="-8"
     inkscape:window-y="-8"
     inkscape:window-maximized="1"
     inkscape:current-layer="svg2" />
  <g
     id="g4171"
     transform="matrix(10.529485,0,0,10.529485,-4618.8502,-4035.8661)">
    <g
       id="g4154">
      <path
         d="m 461.1587,404.48976 -7.5475,-1.22875 10e-4,10e-4 3.30375,4.37125 2.62,3.46625 4.27,-3.25375 -2.6475,-3.35625 z"
         style="fill:#f6988d;fill-opacity:1;fill-rule:nonzero;stroke:none"
         id="path2054"
         inkscape:connector-curvature="0" />
      <g
         id="g2060"
         transform="matrix(1.25,0,0,-1.25,454.29345,408.54501)">
        <path
           inkscape:connector-curvature="0"
           id="path2062"
           style="fill:#b95858;fill-opacity:1;fill-rule:nonzero;stroke:none"
           d="M 0,0 C 0.716,0.173 1.415,0.42 2.072,0.732 L -0.29,3.857 -0.571,4.228 0,0 Z" />
      </g>
      <g
         id="g2064"
         transform="matrix(1.25,0,0,-1.25,456.15695,396.95238)">
        <path
           inkscape:connector-curvature="0"
           id="path2066"
           style="fill:#c95759;fill-opacity:1;fill-rule:nonzero;stroke:none"
           d="M 0,0 -0.179,0.138 -0.304,0.235 -0.409,0.114 c -0.181,-0.212 -0.399,-0.315 -0.666,-0.315 -0.245,0 -0.44,0.074 -0.599,0.227 -0.158,0.156 -0.235,0.343 -0.235,0.572 0,0.149 0.036,0.286 0.107,0.409 0.069,0.118 0.164,0.213 0.294,0.287 0.13,0.071 0.266,0.108 0.418,0.108 0.139,0 0.267,-0.029 0.382,-0.084 0.115,-0.055 0.212,-0.135 0.293,-0.242 L -0.311,0.942 -0.179,1.046 0,1.182 0.128,1.281 0.034,1.413 c -0.121,0.169 -0.283,0.307 -0.478,0.404 -0.197,0.096 -0.408,0.142 -0.649,0.142 -0.393,0 -0.725,-0.128 -0.989,-0.385 -0.266,-0.26 -0.399,-0.581 -0.399,-0.957 0,-0.357 0.111,-0.666 0.33,-0.916 0.256,-0.301 0.615,-0.452 1.061,-0.452 0.235,0 0.444,0.045 0.637,0.135 0.193,0.088 0.356,0.215 0.484,0.381 L 0.134,-0.103 0,0 Z" />
      </g>
      <g
         id="g2068"
         transform="matrix(1.25,0,0,-1.25,447.94895,395.20776)">
        <path
           inkscape:connector-curvature="0"
           id="path2070"
           style="fill:#c95759;fill-opacity:1;fill-rule:nonzero;stroke:none"
           d="M 0,0 C 0.435,0 0.79,-0.355 0.79,-0.793 0.79,-1.23 0.435,-1.585 0,-1.585 c -0.435,0 -0.788,0.355 -0.788,0.792 C -0.788,-0.355 -0.435,0 0,0 m 1.017,-1.682 c 0.215,0.246 0.336,0.561 0.336,0.889 0,0.747 -0.606,1.357 -1.353,1.357 -0.746,0 -1.353,-0.61 -1.353,-1.357 0,-0.749 0.607,-1.356 1.353,-1.356 0.201,0 0.397,0.047 0.578,0.134 l 0.195,-0.247 0.705,0 -0.461,0.58 z" />
      </g>
      <g
         id="g2072"
         transform="matrix(1.25,0,0,-1.25,452.20195,394.57388)">
        <path
           inkscape:connector-curvature="0"
           id="path2074"
           style="fill:#c95759;fill-opacity:1;fill-rule:nonzero;stroke:none"
           d="M 0,0 -0.662,-1.635 -1.336,0 l -0.607,0 1.132,-2.713 0.287,0 L 0.609,0 0,0 Z" />
      </g>
      <g
         id="g2076"
         transform="matrix(1.25,0,0,-1.25,461.0437,404.45563)">
        <path
           inkscape:connector-curvature="0"
           id="path2078"
           style="fill:#eb5d5e;fill-opacity:1;fill-rule:nonzero;stroke:none"
           d="M 0,0 -5.95,0.967 C -6.502,0.801 -7.087,0.708 -7.693,0.708 c -3.287,0 -5.958,2.679 -5.958,5.978 0,3.302 2.671,5.986 5.958,5.986 3.291,0 5.964,-2.684 5.964,-5.986 0,-1.307 -0.42,-2.514 -1.13,-3.499 l 3.75,-2.002 c 1.052,1.627 1.633,3.531 1.633,5.501 0,5.644 -4.583,10.245 -10.217,10.245 -5.633,0 -10.215,-4.601 -10.215,-10.245 0,-5.646 4.582,-10.236 10.215,-10.236 1.513,0 3.065,0.378 4.435,1.036 L -0.013,-0.018 0,0" />
      </g>
      <g
         id="g2080"
         transform="matrix(1.25,0,0,-1.25,453.60107,403.24863)">
        <path
           inkscape:connector-curvature="0"
           id="path2082"
           style="fill:#c05255;fill-opacity:1;fill-rule:nonzero;stroke:none"
           d="m 0,0 0.565,-4.237 c 0.098,0.024 0.196,0.048 0.293,0.075 0.628,0.171 1.24,0.398 1.821,0.674 L 0,0" />
      </g>
      <g
         id="g2084"
         transform="matrix(1.25,0,0,-1.25,453.60195,403.24388)">
        <path
           inkscape:connector-curvature="0"
           id="path2086"
           style="fill:#f39e9f;fill-opacity:1;fill-rule:nonzero;stroke:none"
           d="M 0,0 4.748,-6.282 8.17,-3.675 6.049,-0.985 0,0 Z" />
      </g>
    </g>
  </g>
  <g
     id="g3827"
     style="fill:#88868d;fill-opacity:1"
     transform="matrix(0.97253887,0,0,-0.97253887,-285.43758,539.81205)">
    <path
       d="m 611.65236,437.92087 14.06193,0 c 2.98586,0.0555 5.59767,-0.4657 7.83541,-1.56348 1.51492,-0.67703 2.66967,-1.56801 3.46425,-2.67297 0.7945,-1.28236 1.19177,-2.88523 1.19182,-4.80866 -5e-5,-2.28168 -0.78648,-4.24276 -2.35931,-5.88321 -2.43695,-2.09364 -5.31283,-3.16103 -8.62763,-3.20218 l -15.56647,0 z m -14.4929,-52.6373 14.4929,0 0,23.97879 14.98967,0 c 8.58242,0.11819 15.19704,2.49475 19.84391,7.12971 4.14175,3.41169 6.21266,7.48874 6.21273,12.23117 -7e-5,3.47794 -0.84789,6.49835 -2.54347,9.06123 -1.66558,2.72932 -3.85695,4.83815 -6.5741,6.32646 -3.01607,1.84997 -6.08538,3.09199 -9.20791,3.72604 -3.06239,0.47274 -6.17338,0.70914 -9.33299,0.70921 l -27.88074,0 z"
       id="path3815"
       inkscape:connector-curvature="0"
       sodipodi:nodetypes="ccccccccccccccccccccc"
       style="font-style:normal;font-variant:normal;font-weight:bold;font-stretch:normal;font-size:80.26306152px;line-height:100%;font-family:'DINMittelschrift LT';-inkscape-font-specification:'DINMittelschrift LT Bold';text-align:start;letter-spacing:0.49460879px;word-spacing:0px;writing-mode:lr-tb;text-anchor:start;fill:#88868d;fill-opacity:1;stroke:#000000;stroke-width:0;stroke-miterlimit:4;stroke-dasharray:none;stroke-opacity:1" />
    <path
       d="m 657.96694,385.28357 53.1939,0 0,12.33743 -38.701,0 0,50.82518 -14.4929,0 z"
       id="path3817"
       inkscape:connector-curvature="0"
       sodipodi:nodetypes="ccccccc"
       style="font-style:normal;font-variant:normal;font-weight:bold;font-stretch:normal;font-size:80.26306152px;line-height:100%;font-family:'DINMittelschrift LT';-inkscape-font-specification:'DINMittelschrift LT Bold';text-align:start;letter-spacing:0.49460879px;word-spacing:0px;writing-mode:lr-tb;text-anchor:start;fill:#88868d;fill-opacity:1;stroke:#000000;stroke-width:0;stroke-miterlimit:4;stroke-dasharray:none;stroke-opacity:1" />
    <path
       d="m 716.9359,406.94938 c 0.0765,-6.69811 2.96621,-12.0315 8.66933,-16.00019 5.54788,-4.05647 12.47756,-6.11336 20.78902,-6.17066 8.46197,0.0573 15.57464,2.30761 21.33803,6.75092 5.25365,3.58544 7.96158,8.98598 8.12379,16.20166 l 0,40.71507 -14.49289,0 0,-40.47329 c -0.0695,-3.94902 -1.23587,-6.85122 -3.49901,-8.70661 -3.30562,-2.30315 -7.12893,-3.45472 -11.46992,-3.45472 -4.3318,0 -7.79143,0.99933 -10.37888,2.99802 -2.99982,2.15628 -4.52868,4.92416 -4.58657,8.30366 l 0,41.33294 -14.4929,0 z"
       id="path3819"
       inkscape:connector-curvature="0"
       style="font-style:normal;font-variant:normal;font-weight:bold;font-stretch:normal;font-size:80.26306152px;line-height:100%;font-family:'DINMittelschrift LT';-inkscape-font-specification:'DINMittelschrift LT Bold';text-align:start;letter-spacing:0.49460879px;word-spacing:0px;writing-mode:lr-tb;text-anchor:start;fill:#88868d;fill-opacity:1;stroke:#000000;stroke-width:0;stroke-miterlimit:4;stroke-dasharray:none;stroke-opacity:1" />
    <path
       d="m 788.63362,401.06079 -7.4041,-7.08135 c 8.38739,-6.13395 18.253,-9.20091 29.59684,-9.20091 17.79495,0.17551 26.89432,6.58793 27.29812,19.2373 -6e-5,4.19613 -1.74092,8.02604 -5.22259,11.48973 -3.50783,3.51378 -8.82375,5.67185 -15.94778,6.47421 -3.5903,0.37069 -6.68998,0.70828 -9.29908,1.01278 -2.9304,0.50322 -5.15749,1.42286 -6.68127,2.75893 -1.45434,1.25182 -2.18151,2.87977 -2.1815,4.88387 0.0521,2.22251 1.13958,3.98836 3.2625,5.29759 2.14241,1.32524 4.7982,1.98788 7.96738,1.98793 6.45981,-0.10748 12.7254,-1.68084 18.79675,-4.72001 l 0,0 7.10779,8.71736 c -7.33685,4.50773 -15.77741,6.84847 -25.32173,7.02226 -8.01841,-0.0592 -13.96056,-1.7122 -17.82647,-4.9591 -5.07717,-3.62132 -7.61573,-8.23476 -7.61573,-13.84032 0,-4.6887 1.81465,-8.67889 5.444,-11.97059 3.49039,-3.17357 8.53605,-5.20896 15.13704,-6.10619 3.68355,-0.43522 6.98403,-0.81669 9.90141,-1.14441 5.96491,-0.84534 8.91375,-3.31235 8.8465,-7.40103 -0.1237,-5.04507 -4.64524,-7.61863 -13.56441,-7.7207 -7.87732,0.0537 -14.6161,1.91718 -20.21635,5.59039 z"
       id="path3821"
       inkscape:connector-curvature="0"
       style="font-style:normal;font-variant:normal;font-weight:bold;font-stretch:normal;font-size:80.26306152px;line-height:100%;font-family:'DINMittelschrift LT';-inkscape-font-specification:'DINMittelschrift LT Bold';text-align:start;letter-spacing:0.49460879px;word-spacing:0px;writing-mode:lr-tb;text-anchor:start;fill:#88868d;fill-opacity:1;stroke:#000000;stroke-width:0;stroke-miterlimit:4;stroke-dasharray:none;stroke-opacity:1" />
  </g>
</svg>
