<?xml version="1.0" encoding="UTF-8" standalone="no"?>
<svg
   xmlns:dc="http://purl.org/dc/elements/1.1/"
   xmlns:cc="http://creativecommons.org/ns#"
   xmlns:rdf="http://www.w3.org/1999/02/22-rdf-syntax-ns#"
   xmlns:svg="http://www.w3.org/2000/svg"
   xmlns="http://www.w3.org/2000/svg"
   xmlns:sodipodi="http://sodipodi.sourceforge.net/DTD/sodipodi-0.dtd"
   xmlns:inkscape="http://www.inkscape.org/namespaces/inkscape"
   width="603.27191pt"
   height="292.80002pt"
   viewBox="0 0 603.27192 292.80002"
   version="1.1"
   id="svg2"
   inkscape:version="0.91 r13725"
   sodipodi:docname="QVC Extra.svg">
  <metadata
     id="metadata43">
    <rdf:RDF>
      <cc:Work
         rdf:about="">
        <dc:format>image/svg+xml</dc:format>
        <dc:type
           rdf:resource="http://purl.org/dc/dcmitype/StillImage" />
        <dc:title></dc:title>
      </cc:Work>
    </rdf:RDF>
  </metadata>
  <defs
     id="defs41">
    <clipPath
       clipPathUnits="userSpaceOnUse"
       id="clipPath434">
      <path
         d="m 0,0 419.528,0 0,595.276 L 0,595.276 0,0 Z"
         id="path436"
         inkscape:connector-curvature="0" />
    </clipPath>
    <clipPath
       clipPathUnits="userSpaceOnUse"
       id="clipPath458">
      <path
         d="m 0,0 419.528,0 0,595.276 L 0,595.276 0,0 Z"
         id="path460"
         inkscape:connector-curvature="0" />
    </clipPath>
  </defs>
  <sodipodi:namedview
     pagecolor="#ffffff"
     bordercolor="#666666"
     borderopacity="1"
     objecttolerance="10"
     gridtolerance="10"
     guidetolerance="10"
     inkscape:pageopacity="0"
     inkscape:pageshadow="2"
     inkscape:window-width="1920"
     inkscape:window-height="1017"
     id="namedview39"
     showgrid="false"
     fit-margin-top="0"
     fit-margin-left="0"
     fit-margin-right="0"
     fit-margin-bottom="0"
     inkscape:zoom="1.2487805"
     inkscape:cx="318.27197"
     inkscape:cy="77.536435"
     inkscape:window-x="-8"
     inkscape:window-y="-8"
     inkscape:window-maximized="1"
     inkscape:current-layer="svg2" />
  <g
     id="g4171"
     transform="matrix(10.529485,0,0,10.529485,-4618.8502,-4035.8661)">
    <g
       id="g4154">
      <path
         d="m 461.1587,404.48976 -7.5475,-1.22875 10e-4,10e-4 3.30375,4.37125 2.62,3.46625 4.27,-3.25375 -2.6475,-3.35625 z"
         style="fill:#f6988d;fill-opacity:1;fill-rule:nonzero;stroke:none"
         id="path2054"
         inkscape:connector-curvature="0" />
      <g
         id="g2060"
         transform="matrix(1.25,0,0,-1.25,454.29345,408.54501)">
        <path
           inkscape:connector-curvature="0"
           id="path2062"
           style="fill:#b95858;fill-opacity:1;fill-rule:nonzero;stroke:none"
           d="M 0,0 C 0.716,0.173 1.415,0.42 2.072,0.732 L -0.29,3.857 -0.571,4.228 0,0 Z" />
      </g>
      <g
         id="g2064"
         transform="matrix(1.25,0,0,-1.25,456.15695,396.95238)">
        <path
           inkscape:connector-curvature="0"
           id="path2066"
           style="fill:#c95759;fill-opacity:1;fill-rule:nonzero;stroke:none"
           d="M 0,0 -0.179,0.138 -0.304,0.235 -0.409,0.114 c -0.181,-0.212 -0.399,-0.315 -0.666,-0.315 -0.245,0 -0.44,0.074 -0.599,0.227 -0.158,0.156 -0.235,0.343 -0.235,0.572 0,0.149 0.036,0.286 0.107,0.409 0.069,0.118 0.164,0.213 0.294,0.287 0.13,0.071 0.266,0.108 0.418,0.108 0.139,0 0.267,-0.029 0.382,-0.084 0.115,-0.055 0.212,-0.135 0.293,-0.242 L -0.311,0.942 -0.179,1.046 0,1.182 0.128,1.281 0.034,1.413 c -0.121,0.169 -0.283,0.307 -0.478,0.404 -0.197,0.096 -0.408,0.142 -0.649,0.142 -0.393,0 -0.725,-0.128 -0.989,-0.385 -0.266,-0.26 -0.399,-0.581 -0.399,-0.957 0,-0.357 0.111,-0.666 0.33,-0.916 0.256,-0.301 0.615,-0.452 1.061,-0.452 0.235,0 0.444,0.045 0.637,0.135 0.193,0.088 0.356,0.215 0.484,0.381 L 0.134,-0.103 0,0 Z" />
      </g>
      <g
         id="g2068"
         transform="matrix(1.25,0,0,-1.25,447.94895,395.20776)">
        <path
           inkscape:connector-curvature="0"
           id="path2070"
           style="fill:#c95759;fill-opacity:1;fill-rule:nonzero;stroke:none"
           d="M 0,0 C 0.435,0 0.79,-0.355 0.79,-0.793 0.79,-1.23 0.435,-1.585 0,-1.585 c -0.435,0 -0.788,0.355 -0.788,0.792 C -0.788,-0.355 -0.435,0 0,0 m 1.017,-1.682 c 0.215,0.246 0.336,0.561 0.336,0.889 0,0.747 -0.606,1.357 -1.353,1.357 -0.746,0 -1.353,-0.61 -1.353,-1.357 0,-0.749 0.607,-1.356 1.353,-1.356 0.201,0 0.397,0.047 0.578,0.134 l 0.195,-0.247 0.705,0 -0.461,0.58 z" />
      </g>
      <g
         id="g2072"
         transform="matrix(1.25,0,0,-1.25,452.20195,394.57388)">
        <path
           inkscape:connector-curvature="0"
           id="path2074"
           style="fill:#c95759;fill-opacity:1;fill-rule:nonzero;stroke:none"
           d="M 0,0 -0.662,-1.635 -1.336,0 l -0.607,0 1.132,-2.713 0.287,0 L 0.609,0 0,0 Z" />
      </g>
      <g
         id="g2076"
         transform="matrix(1.25,0,0,-1.25,461.0437,404.45563)">
        <path
           inkscape:connector-curvature="0"
           id="path2078"
           style="fill:#eb5d5e;fill-opacity:1;fill-rule:nonzero;stroke:none"
           d="M 0,0 -5.95,0.967 C -6.502,0.801 -7.087,0.708 -7.693,0.708 c -3.287,0 -5.958,2.679 -5.958,5.978 0,3.302 2.671,5.986 5.958,5.986 3.291,0 5.964,-2.684 5.964,-5.986 0,-1.307 -0.42,-2.514 -1.13,-3.499 l 3.75,-2.002 c 1.052,1.627 1.633,3.531 1.633,5.501 0,5.644 -4.583,10.245 -10.217,10.245 -5.633,0 -10.215,-4.601 -10.215,-10.245 0,-5.646 4.582,-10.236 10.215,-10.236 1.513,0 3.065,0.378 4.435,1.036 L -0.013,-0.018 0,0" />
      </g>
      <g
         id="g2080"
         transform="matrix(1.25,0,0,-1.25,453.60107,403.24863)">
        <path
           inkscape:connector-curvature="0"
           id="path2082"
           style="fill:#c05255;fill-opacity:1;fill-rule:nonzero;stroke:none"
           d="m 0,0 0.565,-4.237 c 0.098,0.024 0.196,0.048 0.293,0.075 0.628,0.171 1.24,0.398 1.821,0.674 L 0,0" />
      </g>
      <g
         id="g2084"
         transform="matrix(1.25,0,0,-1.25,453.60195,403.24388)">
        <path
           inkscape:connector-curvature="0"
           id="path2086"
           style="fill:#f39e9f;fill-opacity:1;fill-rule:nonzero;stroke:none"
           d="M 0,0 4.748,-6.282 8.17,-3.675 6.049,-0.985 0,0 Z" />
      </g>
    </g>
  </g>
  <g
     transform="matrix(0.3607562,0,0,0.3607562,286.97891,98.654502)"
     id="#bebe1eff"
     style="fill:#ffffff;fill-opacity:1">
    <path
       d="m 697.23,185.45 75.55,-172.85 28.26,0.04 75.71,172.91 -32.28,0.02 -17.3,-41.22 -81.24,-0.06 -17.62,41.27 -31.08,-0.11 m 60.01,-68.19 58.57,-0.01 -29.38,-68.26 z"
       id="path5"
       inkscape:connector-curvature="0"
       style="opacity:1;fill:#ffffff;fill-opacity:1"
       sodipodi:nodetypes="ccccccccccccc" />
    <path
       d="m 23.13,13.79 127.37,-0.02 0.02,27 -97.15,0.44 0.1,44.22 85.93,-0.01 0.04,27.05 -85.96,0 -0.03,46.02 98.22,-0.02 -0.02,27.07 -128.45,-0.02 z"
       id="path7"
       inkscape:connector-curvature="0"
       style="opacity:1;fill:#ffffff;fill-opacity:1"
       sodipodi:nodetypes="ccccccccccccc" />
    <path
       d="m 179.15,13.81 35.78,-0.03 42.2,61.21 43.33,-61.27 34.64,0.09 -59.8,84 62.26,87.69 -35.79,0.02 -44.8,-65 -45.4,65 -34.81,-0.06 62.54,-87.15 z"
       id="path9"
       inkscape:connector-curvature="0"
       style="opacity:1;fill:#ffffff;fill-opacity:1"
       sodipodi:nodetypes="ccccccccccccc" />
    <path
       d="m 358.75,13.79 139.36,0 0.08,27.94 -54.64,0.03 0.06,143.78 -30.35,-0.01 -0.05,-143.6804 -54.5,-0.0396 z"
       id="path11"
       inkscape:connector-curvature="0"
       style="opacity:1;fill:#ffffff;fill-opacity:1"
       sodipodi:nodetypes="ccccccccc" />
    <path
       d="M 532.3,13.79 612,13.76 c 15,0.49 30.47,4.22 42.43,13.69 12.22,9.52 18.51,25.29 18.2,40.56 0.35,13.44 -4.05,27.35 -13.61,37.04 -7.25,7.59 -16.92,12.35 -26.82,15.46 l 45.86,64.92 -35.71,0.1 c -14.04,-19.98 -28.17,-39.89 -42.22,-59.85 l -37.54,0.02 -0.01,59.82 -30.24,0 -0.04,-171.73 m 30.25,27.63 0.01,57.22 44.46,0.07 c 8.82,0.08 18.1,-1.9 25.1,-7.54 13.15,-10.17 13.14,-33.19 -0.35,-43.05 -7.21,-4.98 -16.17,-6.69 -24.8,-6.68 z"
       id="path13"
       inkscape:connector-curvature="0"
       style="opacity:1;fill:#ffffff;fill-opacity:1"
       sodipodi:nodetypes="cccccccccccccccccccc" />
  </g>
</svg>
