<svg id="a" width="559.55pt" height="292.8pt" version="1.1" viewBox="0 0 559.55 292.8" xmlns="http://www.w3.org/2000/svg">
 <g id="b" transform="matrix(10.529 0 0 10.529 -4618.9 -4035.9)">
  <g id="c">
   <path id="d" d="m461.16 404.49-7.5475-1.2288 1e-3 1e-3 3.3038 4.3712 2.62 3.4662 4.27-3.2538-2.6475-3.3562z" fill="#f6988d"/>
   <g id="e" transform="matrix(1.25 0 0 -1.25 454.29 408.55)">
    <path id="f" d="M 0,0 C 0.716,0.173 1.415,0.42 2.072,0.732 L -0.29,3.857 -0.571,4.228 0,0 Z" fill="#b95858"/>
   </g>
   <g id="g" transform="matrix(1.25 0 0 -1.25 456.16 396.95)">
    <path id="h" d="m0 0-0.179 0.138-0.125 0.097-0.105-0.121c-0.181-0.212-0.399-0.315-0.666-0.315-0.245 0-0.44 0.074-0.599 0.227-0.158 0.156-0.235 0.343-0.235 0.572 0 0.149 0.036 0.286 0.107 0.409 0.069 0.118 0.164 0.213 0.294 0.287 0.13 0.071 0.266 0.108 0.418 0.108 0.139 0 0.267-0.029 0.382-0.084s0.212-0.135 0.293-0.242l0.104-0.134 0.132 0.104 0.179 0.136 0.128 0.099-0.094 0.132c-0.121 0.169-0.283 0.307-0.478 0.404-0.197 0.096-0.408 0.142-0.649 0.142-0.393 0-0.725-0.128-0.989-0.385-0.266-0.26-0.399-0.581-0.399-0.957 0-0.357 0.111-0.666 0.33-0.916 0.256-0.301 0.615-0.452 1.061-0.452 0.235 0 0.444 0.045 0.637 0.135 0.193 0.088 0.356 0.215 0.484 0.381l0.103 0.132-0.134 0.103z" fill="#c95759"/>
   </g>
   <g id="i" transform="matrix(1.25 0 0 -1.25 447.95 395.21)">
    <path id="j" d="m0 0c0.435 0 0.79-0.355 0.79-0.793 0-0.437-0.355-0.792-0.79-0.792s-0.788 0.355-0.788 0.792c0 0.438 0.353 0.793 0.788 0.793m1.017-1.682c0.215 0.246 0.336 0.561 0.336 0.889 0 0.747-0.606 1.357-1.353 1.357-0.746 0-1.353-0.61-1.353-1.357 0-0.749 0.607-1.356 1.353-1.356 0.201 0 0.397 0.047 0.578 0.134l0.195-0.247h0.705l-0.461 0.58z" fill="#c95759"/>
   </g>
   <g id="k" transform="matrix(1.25 0 0 -1.25 452.2 394.57)">
    <path id="l" d="m0 0-0.662-1.635-0.674 1.635h-0.607l1.132-2.713h0.287l1.133 2.713h-0.609z" fill="#c95759"/>
   </g>
   <g id="m" transform="matrix(1.25 0 0 -1.25 461.04 404.46)">
    <path id="n" d="m0 0-5.95 0.967c-0.552-0.166-1.137-0.259-1.743-0.259-3.287 0-5.958 2.679-5.958 5.978 0 3.302 2.671 5.986 5.958 5.986 3.291 0 5.964-2.684 5.964-5.986 0-1.307-0.42-2.514-1.13-3.499l3.75-2.002c1.052 1.627 1.633 3.531 1.633 5.501 0 5.644-4.583 10.245-10.217 10.245-5.633 0-10.215-4.601-10.215-10.245 0-5.646 4.582-10.236 10.215-10.236 1.513 0 3.065 0.378 4.435 1.036l3.245 2.496 0.013 0.018" fill="#eb5d5e"/>
   </g>
   <g id="o" transform="matrix(1.25 0 0 -1.25 453.6 403.25)">
    <path id="p" d="m 0,0 0.565,-4.237 c 0.098,0.024 0.196,0.048 0.293,0.075 0.628,0.171 1.24,0.398 1.821,0.674 L 0,0" fill="#c05255"/>
   </g>
   <g id="q" transform="matrix(1.25 0 0 -1.25 453.6 403.24)">
    <path id="r" d="M 0,0 4.748,-6.282 8.17,-3.675 6.049,-0.985 0,0 Z" fill="#f39e9f"/>
   </g>
  </g>
 </g>
 <g id="s" transform="matrix(10.512 0 0 10.512 -4318.9 -4234.3)" fill="#88868d">
  <path id="t" d="m438.97 417.65 0.75-0.89875c0.52 0.42875 1.0638 0.70125 1.7238 0.70125 0.51875 0 0.8325-0.20625 0.8325-0.545v-0.0163c0-0.32125-0.1975-0.48625-1.1625-0.73375-1.1625-0.29625-1.9125-0.6175-1.9125-1.7638v-0.0163c0-1.0475 0.84-1.74 2.02-1.74 0.84 0 1.5575 0.26375 2.1425 0.73375l-0.65875 0.95625c-0.51125-0.355-1.0138-0.56875-1.5012-0.56875-0.48625 0-0.74125 0.2225-0.74125 0.5025v0.0163c0 0.38 0.2475 0.50375 1.245 0.75875 1.17 0.305 1.83 0.72625 1.83 1.7312v0.0162c0 1.1462-0.87375 1.79-2.1188 1.79-0.87375 0-1.7562-0.305-2.4488-0.92375"/>
  <path id="u" d="m445.49 413.89h-1.7562v-1.1712h4.7825v1.1712h-1.7562v4.6h-1.27v-4.6z"/>
  <path id="v" d="m451.07 416.22-2.2175-3.495h1.4838l1.3762 2.3162 1.4025-2.3162h1.4425l-2.2175 3.47v2.3h-1.27v-2.275z"/>
  <path id="w" d="m454.98 412.72h1.27v4.6162h2.8775v1.155h-4.1475v-5.7712z"/>
  <path id="x" d="m459.71 412.72h4.3525v1.13h-3.0912v1.17h2.7212v1.13h-2.7212v1.2112h3.1325v1.13h-4.3938v-5.7712z"/>
 </g>
</svg>
