<svg height="292.80002pt" viewBox="0 0 786.63581 292.80002" width="786.6358pt" xmlns="http://www.w3.org/2000/svg"><g transform="matrix(10.529485 0 0 10.529485 -4618.8502 -4035.8661)"><path d="m461.1587 404.48976-7.5475-1.22875.001.001 3.30375 4.37125 2.62 3.46625 4.27-3.25375-2.6475-3.35625z" fill="#f6988d"/><path d="m0 0c .716.173 1.415.42 2.072.732l-2.362 3.125-.281.371z" fill="#b95858" transform="matrix(1.25 0 0 -1.25 454.29345 408.54501)"/><g fill="#c95759"><path d="m0 0-.179.138-.125.097-.105-.121c-.181-.212-.399-.315-.666-.315-.245 0-.44.074-.599.227-.158.156-.235.343-.235.572 0 .149.036.286.107.409.069.118.164.213.294.287.13.071.266.108.418.108.139 0 .267-.029.382-.084s.212-.135.293-.242l.104-.134.132.104.179.136.128.099-.094.132c-.121.169-.283.307-.478.404-.197.096-.408.142-.649.142-.393 0-.725-.128-.989-.385-.266-.26-.399-.581-.399-.957 0-.357.111-.666.33-.916.256-.301.615-.452 1.061-.452.235 0 .444.045.637.135.193.088.356.215.484.381l.103.132z" transform="matrix(1.25 0 0 -1.25 456.15695 396.95238)"/><path d="m0 0c .435 0 .79-.355.79-.793 0-.437-.355-.792-.79-.792s-.788.355-.788.792c0 .438.353.793.788.793m1.017-1.682c.215.246.336.561.336.889 0 .747-.606 1.357-1.353 1.357-.746 0-1.353-.61-1.353-1.357 0-.749.607-1.356 1.353-1.356.201 0 .397.047.578.134l.195-.247h.705z" transform="matrix(1.25 0 0 -1.25 447.94895 395.20776)"/><path d="m0 0-.662-1.635-.674 1.635h-.607l1.132-2.713h.287l1.133 2.713z" transform="matrix(1.25 0 0 -1.25 452.20195 394.57388)"/></g><path d="m0 0-5.95.967c-.552-.166-1.137-.259-1.743-.259-3.287 0-5.958 2.679-5.958 5.978 0 3.302 2.671 5.986 5.958 5.986 3.291 0 5.964-2.684 5.964-5.986 0-1.307-.42-2.514-1.13-3.499l3.75-2.002c1.052 1.627 1.633 3.531 1.633 5.501 0 5.644-4.583 10.245-10.217 10.245-5.633 0-10.215-4.601-10.215-10.245 0-5.646 4.582-10.236 10.215-10.236 1.513 0 3.065.378 4.435 1.036l3.245 2.496z" fill="#eb5d5e" transform="matrix(1.25 0 0 -1.25 461.0437 404.45563)"/><path d="m0 0 .565-4.237c.098.024.196.048.293.075.628.171 1.24.398 1.821.674z" fill="#c05255" transform="matrix(1.25 0 0 -1.25 453.60107 403.24863)"/><path d="m0 0 4.748-6.282 3.422 2.607-2.121 2.69z" fill="#f39e9f" transform="matrix(1.25 0 0 -1.25 453.60195 403.24388)"/></g><g fill="#fff"><g transform="matrix(1.7146224 0 0 1.7146224 37.215018 -104.69563)"><path d="m367.07678 121.31515h7.74v14.6h14.98v-14.6h7.8v36.32h-7.8v-14.58h-14.98v14.58h-7.74z" fill="#fff"/><path d="m403.82718 121.31515c8.37506.006 18.00156-.84067 25.3696 3.33999 7.75949 4.40276 9.8951 15.35102 5.93 23.15-2.98559 5.87237-9.33951 9.60979-15.84 9.76-5.14958.11899-10.21051.0608-15.4596.07m7.6-29.06002v22.07c4.28.00008 9.14241.50092 12.8596-1.74 6.53704-3.94087 6.36486-15.25377-.37-18.87-3.57949-1.92198-8.27955-1.46508-12.4896-1.46z" fill="#fff"/></g><path d="m323.84941 139.50417h-15.48297v13.39177h15.91193c5.92508 0 9.49086-2.0778 9.49086-6.60876v-.17425c0-4.08859-3.04297-6.60876-9.91982-6.60876m6.52832-17.74845c0-3.99474-3.13682-6.26022-8.7938-6.26022h-13.21749v12.86898h12.34615c5.9251 0 9.66514-1.90354 9.66514-6.4345zm-35.05453-18.00316h28.27152c6.95728 0 12.42659 1.91695 15.91193 5.38889 2.78829 2.78827 4.169 6.17979 4.169 10.3622v.17428c0 6.86344-3.64619 10.69732-8.00288 13.12365 7.05113 2.70785 11.4078 6.78303 11.4078 14.96018v.17427c0 11.1397-9.04849 16.70284-22.8022 16.70284h-28.95517z"/><path d="m353.33544 103.75385h45.92613v11.91721h-32.61479v12.34615h28.70048v11.91721h-28.70048v12.78853h33.05716v11.91721h-46.3685z"/><path d="m443.97319 139.15691-8.08331-19.74583-8.09674 19.74583zm-14.08884-35.83204h12.34617l26.09988 61.31527h-14.00841l-5.56315-13.65986h-25.75135l-5.56314 13.65986h-13.65988z"/><path d="m468.06894 138.54832v-34.79984h13.39176v34.45131c0 9.91983 4.95993 15.05401 13.13708 15.05401s13.13708-4.95991 13.13708-14.62504v-34.88028h13.39176v34.37088c0 18.43212-10.34879 27.48061-26.70312 27.48061-16.3543 0-26.35456-9.12892-26.35456-27.05165"/><path d="m543.30952 116.10537h-18.52595v-12.34617h50.44368v12.34617h-18.52597v48.54014h-13.39176z"/><path d="m600.89418 140.63557-23.40543-36.87764h15.65724l14.5312 24.43764 14.78591-24.43764h15.2277l-23.40525 36.62295.0004 24.26336h-13.39177z"/></g></svg>