<svg id="a" width="529.67pt" height="292.8pt" version="1.1" viewBox="0 0 529.67 292.8" xmlns="http://www.w3.org/2000/svg">
 <g id="b" transform="matrix(10.529 0 0 10.529 -4618.9 -4035.9)">
  <g id="c">
   <path id="d" d="m461.16 404.49-7.5475-1.2288 1e-3 1e-3 3.3038 4.3712 2.62 3.4662 4.27-3.2538-2.6475-3.3562z" fill="#f6988d"/>
   <g id="e" transform="matrix(1.25 0 0 -1.25 454.29 408.55)">
    <path id="f" d="M 0,0 C 0.716,0.173 1.415,0.42 2.072,0.732 L -0.29,3.857 -0.571,4.228 0,0 Z" fill="#b95858"/>
   </g>
   <g id="g" transform="matrix(1.25 0 0 -1.25 456.16 396.95)">
    <path id="h" d="m0 0-0.179 0.138-0.125 0.097-0.105-0.121c-0.181-0.212-0.399-0.315-0.666-0.315-0.245 0-0.44 0.074-0.599 0.227-0.158 0.156-0.235 0.343-0.235 0.572 0 0.149 0.036 0.286 0.107 0.409 0.069 0.118 0.164 0.213 0.294 0.287 0.13 0.071 0.266 0.108 0.418 0.108 0.139 0 0.267-0.029 0.382-0.084s0.212-0.135 0.293-0.242l0.104-0.134 0.132 0.104 0.179 0.136 0.128 0.099-0.094 0.132c-0.121 0.169-0.283 0.307-0.478 0.404-0.197 0.096-0.408 0.142-0.649 0.142-0.393 0-0.725-0.128-0.989-0.385-0.266-0.26-0.399-0.581-0.399-0.957 0-0.357 0.111-0.666 0.33-0.916 0.256-0.301 0.615-0.452 1.061-0.452 0.235 0 0.444 0.045 0.637 0.135 0.193 0.088 0.356 0.215 0.484 0.381l0.103 0.132-0.134 0.103z" fill="#c95759"/>
   </g>
   <g id="i" transform="matrix(1.25 0 0 -1.25 447.95 395.21)">
    <path id="j" d="m0 0c0.435 0 0.79-0.355 0.79-0.793 0-0.437-0.355-0.792-0.79-0.792s-0.788 0.355-0.788 0.792c0 0.438 0.353 0.793 0.788 0.793m1.017-1.682c0.215 0.246 0.336 0.561 0.336 0.889 0 0.747-0.606 1.357-1.353 1.357-0.746 0-1.353-0.61-1.353-1.357 0-0.749 0.607-1.356 1.353-1.356 0.201 0 0.397 0.047 0.578 0.134l0.195-0.247h0.705l-0.461 0.58z" fill="#c95759"/>
   </g>
   <g id="k" transform="matrix(1.25 0 0 -1.25 452.2 394.57)">
    <path id="l" d="m0 0-0.662-1.635-0.674 1.635h-0.607l1.132-2.713h0.287l1.133 2.713h-0.609z" fill="#c95759"/>
   </g>
   <g id="m" transform="matrix(1.25 0 0 -1.25 461.04 404.46)">
    <path id="n" d="m0 0-5.95 0.967c-0.552-0.166-1.137-0.259-1.743-0.259-3.287 0-5.958 2.679-5.958 5.978 0 3.302 2.671 5.986 5.958 5.986 3.291 0 5.964-2.684 5.964-5.986 0-1.307-0.42-2.514-1.13-3.499l3.75-2.002c1.052 1.627 1.633 3.531 1.633 5.501 0 5.644-4.583 10.245-10.217 10.245-5.633 0-10.215-4.601-10.215-10.245 0-5.646 4.582-10.236 10.215-10.236 1.513 0 3.065 0.378 4.435 1.036l3.245 2.496 0.013 0.018" fill="#eb5d5e"/>
   </g>
   <g id="o" transform="matrix(1.25 0 0 -1.25 453.6 403.25)">
    <path id="p" d="m 0,0 0.565,-4.237 c 0.098,0.024 0.196,0.048 0.293,0.075 0.628,0.171 1.24,0.398 1.821,0.674 L 0,0" fill="#c05255"/>
   </g>
   <g id="q" transform="matrix(1.25 0 0 -1.25 453.6 403.24)">
    <path id="r" d="M 0,0 4.748,-6.282 8.17,-3.675 6.049,-0.985 0,0 Z" fill="#f39e9f"/>
   </g>
  </g>
 </g>
 <g id="s" transform="matrix(.97254 0 0 -.97254 -285.44 539.81)" fill="#fff" stroke-width="0">
  <path id="t" d="m611.65 437.92h14.062c2.9859 0.0555 5.5977-0.4657 7.8354-1.5635 1.5149-0.67703 2.6697-1.568 3.4642-2.673 0.7945-1.2824 1.1918-2.8852 1.1918-4.8087-5e-5 -2.2817-0.78648-4.2428-2.3593-5.8832-2.437-2.0936-5.3128-3.161-8.6276-3.2022h-15.566zm-14.493-52.637h14.493v23.979h14.99c8.5824 0.11819 15.197 2.4948 19.844 7.1297 4.1418 3.4117 6.2127 7.4887 6.2127 12.231-7e-5 3.4779-0.84789 6.4984-2.5435 9.0612-1.6656 2.7293-3.857 4.8382-6.5741 6.3265-3.0161 1.85-6.0854 3.092-9.2079 3.726-3.0624 0.47274-6.1734 0.70914-9.333 0.70921h-27.881z"/>
  <path id="u" d="m657.97 385.28h53.194v12.337h-38.701v50.825h-14.493z"/>
  <path id="v" d="m716.94 406.95c0.0765-6.6981 2.9662-12.032 8.6693-16 5.5479-4.0565 12.478-6.1134 20.789-6.1707 8.462 0.0573 15.575 2.3076 21.338 6.7509 5.2536 3.5854 7.9616 8.986 8.1238 16.202v40.715h-14.493v-40.473c-0.0695-3.949-1.2359-6.8512-3.499-8.7066-3.3056-2.3032-7.1289-3.4547-11.47-3.4547-4.3318 0-7.7914 0.99933-10.379 2.998-2.9998 2.1563-4.5287 4.9242-4.5866 8.3037v41.333h-14.493z"/>
  <path id="w" d="m788.63 401.06-7.4041-7.0814c8.3874-6.134 18.253-9.2009 29.597-9.2009 17.795 0.17551 26.894 6.5879 27.298 19.237-6e-5 4.1961-1.7409 8.026-5.2226 11.49-3.5078 3.5138-8.8238 5.6718-15.948 6.4742-3.5903 0.37069-6.69 0.70828-9.2991 1.0128-2.9304 0.50322-5.1575 1.4229-6.6813 2.7589-1.4543 1.2518-2.1815 2.8798-2.1815 4.8839 0.0521 2.2225 1.1396 3.9884 3.2625 5.2976 2.1424 1.3252 4.7982 1.9879 7.9674 1.9879 6.4598-0.10748 12.725-1.6808 18.797-4.72l7.1078 8.7174c-7.3368 4.5077-15.777 6.8485-25.322 7.0223-8.0184-0.0592-13.961-1.7122-17.826-4.9591-5.0772-3.6213-7.6157-8.2348-7.6157-13.84 0-4.6887 1.8146-8.6789 5.444-11.971 3.4904-3.1736 8.536-5.209 15.137-6.1062 3.6836-0.43522 6.984-0.81669 9.9014-1.1444 5.9649-0.84534 8.9138-3.3124 8.8465-7.401-0.1237-5.0451-4.6452-7.6186-13.564-7.7207-7.8773 0.0537-14.616 1.9172-20.216 5.5904z"/>
 </g>
</svg>
