<svg id="a" width="7.208mm" height="7.8479mm" version="1.1" viewBox="0 0 25.54 27.808" xmlns="http://www.w3.org/2000/svg">
 <g id="b" transform="translate(-438.66 -383.29)">
  <g id="c">
   <g id="d">
    <path id="e" d="m461.16 404.49-7.5475-1.2288 1e-3 1e-3 3.3038 4.3712 2.62 3.4662 4.27-3.2538-2.6475-3.3562z" fill="#f6988d"/>
    <g id="f" transform="matrix(1.25 0 0 -1.25 454.29 408.55)">
     <path id="g" d="M 0,0 C 0.716,0.173 1.415,0.42 2.072,0.732 L -0.29,3.857 -0.571,4.228 0,0 Z" fill="#b95858"/>
    </g>
    <g id="h" transform="matrix(1.25 0 0 -1.25 456.16 396.95)">
     <path id="i" d="m0 0-0.179 0.138-0.125 0.097-0.105-0.121c-0.181-0.212-0.399-0.315-0.666-0.315-0.245 0-0.44 0.074-0.599 0.227-0.158 0.156-0.235 0.343-0.235 0.572 0 0.149 0.036 0.286 0.107 0.409 0.069 0.118 0.164 0.213 0.294 0.287 0.13 0.071 0.266 0.108 0.418 0.108 0.139 0 0.267-0.029 0.382-0.084s0.212-0.135 0.293-0.242l0.104-0.134 0.132 0.104 0.179 0.136 0.128 0.099-0.094 0.132c-0.121 0.169-0.283 0.307-0.478 0.404-0.197 0.096-0.408 0.142-0.649 0.142-0.393 0-0.725-0.128-0.989-0.385-0.266-0.26-0.399-0.581-0.399-0.957 0-0.357 0.111-0.666 0.33-0.916 0.256-0.301 0.615-0.452 1.061-0.452 0.235 0 0.444 0.045 0.637 0.135 0.193 0.088 0.356 0.215 0.484 0.381l0.103 0.132-0.134 0.103z" fill="#c95759"/>
    </g>
    <g id="j" transform="matrix(1.25 0 0 -1.25 447.95 395.21)">
     <path id="k" d="m0 0c0.435 0 0.79-0.355 0.79-0.793 0-0.437-0.355-0.792-0.79-0.792s-0.788 0.355-0.788 0.792c0 0.438 0.353 0.793 0.788 0.793m1.017-1.682c0.215 0.246 0.336 0.561 0.336 0.889 0 0.747-0.606 1.357-1.353 1.357-0.746 0-1.353-0.61-1.353-1.357 0-0.749 0.607-1.356 1.353-1.356 0.201 0 0.397 0.047 0.578 0.134l0.195-0.247h0.705l-0.461 0.58z" fill="#c95759"/>
    </g>
    <g id="l" transform="matrix(1.25 0 0 -1.25 452.2 394.57)">
     <path id="m" d="m0 0-0.662-1.635-0.674 1.635h-0.607l1.132-2.713h0.287l1.133 2.713h-0.609z" fill="#c95759"/>
    </g>
    <g id="n" transform="matrix(1.25 0 0 -1.25 461.04 404.46)">
     <path id="o" d="m0 0-5.95 0.967c-0.552-0.166-1.137-0.259-1.743-0.259-3.287 0-5.958 2.679-5.958 5.978 0 3.302 2.671 5.986 5.958 5.986 3.291 0 5.964-2.684 5.964-5.986 0-1.307-0.42-2.514-1.13-3.499l3.75-2.002c1.052 1.627 1.633 3.531 1.633 5.501 0 5.644-4.583 10.245-10.217 10.245-5.633 0-10.215-4.601-10.215-10.245 0-5.646 4.582-10.236 10.215-10.236 1.513 0 3.065 0.378 4.435 1.036l3.245 2.496 0.013 0.018" fill="#eb5d5e"/>
    </g>
    <g id="p" transform="matrix(1.25 0 0 -1.25 453.6 403.25)">
     <path id="q" d="m 0,0 0.565,-4.237 c 0.098,0.024 0.196,0.048 0.293,0.075 0.628,0.171 1.24,0.398 1.821,0.674 L 0,0" fill="#c05255"/>
    </g>
    <g id="r" transform="matrix(1.25 0 0 -1.25 453.6 403.24)">
     <path id="s" d="M 0,0 4.748,-6.282 8.17,-3.675 6.049,-0.985 0,0 Z" fill="#f39e9f"/>
    </g>
   </g>
  </g>
 </g>
</svg>
