<svg height="161.14pt" viewBox="0 0 1088.59 161.14" width="1088.59pt" xmlns="http://www.w3.org/2000/svg"><g fill="#fefefe" transform="translate(-14.25 -15.24)"><path d="m14.27 15.27c302.58.05 605.16-.04 907.74.02 60.25-.03 120.5.06 180.75-.05-.02 53.71-.01 107.42.08 161.14-194.96-.25-389.91-.1-584.87-.14-167.91.02-335.81-.05-503.72.03.03-53.67-.02-107.33.02-161m8.01 7.99c0 48.34.01 96.68 0 145.02 275.9-.1 551.81-.03 827.71-.03-.03-48.34.02-96.67-.05-145.01-275.89.1-551.77.06-827.66.02m836.24.06c-.29 21.89-.02 43.79-.14 65.69.14 26.42-.18 52.85.18 79.27 78.67-.08 157.35.01 236.03-.08.19-48.32.08-96.63.18-144.94-78.75.09-157.5-.03-236.25.06z"/><path d="m262.44 77.34c11.03-8.02 25.11-11.06 38.57-10.12 11.52.59 22.73 4.17 32.96 9.39-3.4 2.53-6.86 4.99-10.32 7.44-3.7-2.71-8.31-3.58-12.64-4.8-9.71-2.55-20.24-3.29-29.83.14-4.88 1.84-9.75 4.64-12.49 9.24-3.26 5.17-2.4 12.45 2.01 16.71 6.96 6.66 16.85 9.63 26.35 9.45 11.16.23 21.95-3.68 31.65-8.91 3.25 2.19 6.59 4.23 9.79 6.48-11.55 9.32-26.98 12.36-41.51 12.16-12.33.17-25.03-2.95-34.95-10.49-5.89-4.4-9.96-11.54-9.56-19.02-.27-7.25 4.39-13.54 9.97-17.67z"/><path d="m503.25 76.27c11.61-7.84 26.14-10.08 39.9-9.08 10.49.87 20.45 4.74 29.83 9.34-3.59 2.25-7.04 4.72-10.68 6.89-12.03-5.44-25.87-8.36-38.86-4.83-6.23 1.82-12.65 4.84-16.32 10.44-3.17 4.91-1.9 11.6 2.01 15.7 5.83 6.22 14.43 8.91 22.71 9.7 8.57.95 17.4-.1 25.4-3.35 1.84-.66 3.32-1.99 4.72-3.32.03-2.25.04-4.51.05-6.76-9.5-.01-19.01.03-28.51-.03.01-3.22.01-6.44 0-9.66 14-.1 28-.03 42.01-.04-.02 7.48-.04 14.96 0 22.44-13.53 9.08-30.45 11.89-46.47 10.55-10.89-1.03-21.91-4.67-30.2-12.01-5.67-4.91-8.5-12.85-6.94-20.22 1.12-6.68 5.86-12.1 11.35-15.76z"/><path d="m896.71 67.27c5.19.02 10.38-.04 15.58.03-.08 7.56-.02 15.12-.04 22.69 13.43 0 26.85.19 40.27-.06-.05-7.56-.06-15.11-.01-22.67 5.25 0 10.5-.04 15.75.05-.01 18.99-.01 37.97 0 56.95-5.26.02-10.51.01-15.76-.02 0-8.32-.05-16.64-.02-24.97-13.4.01-26.81-.03-40.21-.01-.03 8.33-.02 16.67-.01 25-5.18-.01-10.36 0-15.53-.01-.01-18.99 0-37.99-.02-56.98z"/><path d="m984.98 67.24c13.36.07 26.72-.03 40.08.04 9.45.29 19.62 1.19 27.49 6.98 5.96 4.2 8.89 11.64 8.73 18.78.6 8.91-4.09 17.72-11.46 22.62-9.55 6.56-21.46 8.26-32.79 8.58-10.69.02-21.37.01-32.05.02-.03-19.01.03-38.01 0-57.02m15.54 48.51c7.13-.02 14.28.06 21.42-.02 7.12-.47 14.73-2.57 19.56-8.16 4.57-5.59 5.33-13.65 3.17-20.37-2.1-6.06-8.56-8.97-14.47-9.87-9.84-1.37-19.81-.6-29.7-.81-.02 13.08-.07 26.15.02 39.23z"/><path d="m65.79 68.29c17.09-.07 34.17.07 51.25-.05 5.64-.02 11.72.73 16.12 4.59 5.25 4.19 7.32 12.2 3.98 18.18-2.95 5.17-8.54 8.08-14.2 9.25 5.95 7.75 11.8 15.58 17.59 23.45-5.26.08-10.52.05-15.78.02-5.75-7.65-11.79-15.07-17.57-22.69-5.3-.08-10.61-.01-15.92-.06-2.45-3.25-5.1-6.36-7.46-9.68 12.72-.09 25.44.06 38.16-.08 4.07-.28 7.02-5.03 5.45-8.82-.97-3.05-4.35-4.55-7.36-4.4-15.6.01-31.19.09-46.78-.01-2.44-3.28-5.09-6.39-7.48-9.7z"/><path d="m193.24 68.29c4.46-.02 8.92 0 13.38-.05 13 18.47 26.17 36.82 39.18 55.28-4.99-.03-9.98-.04-14.97-.03-3.71-5.07-7.35-10.19-11.05-15.28-12.88.13-25.77.01-38.65.06-3.91 4.97-7.25 10.49-11.47 15.16-4.86.22-9.73.01-14.59.07 12.71-18.41 25.51-36.77 38.17-55.21m-5.36 30.42c8.1-.02 16.18.41 24.28.29-4.06-5.73-8.01-11.53-12.13-17.22-4.05 5.65-8.1 11.29-12.15 16.93z"/><path d="m362.06 68.27c4.47-.02 8.94-.02 13.41.01.11 18.41-.03 36.82.04 55.23-4.51-.01-9.02.01-13.52-.01.13-18.41-.03-36.82.07-55.23z"/><path d="m402.48 68.24c4.7.04 9.41-.04 14.11.05 14.92 13.05 29.88 26.06 44.88 39 .06-13 .03-26.01.02-39.01 4.58-.03 9.16-.01 13.75-.02.06 18.42.03 36.84.01 55.26-4.51 0-9.02 0-13.53-.01-14.92-13.03-29.73-26.16-44.71-39.12-.04 13.04-.03 26.08.01 39.12-4.84-.02-9.68-.01-14.52-.02.06-18.42.06-36.83-.02-55.25z"/><path d="m636.27 68.26c4.56.04 9.13-.02 13.7 0 .08 12.29-.05 24.58.05 36.87-.07 4.83 4.92 7.54 9.04 8.44 8.73 1.9 18.14 1.86 26.6-1.24 3.22-1.25 7.05-3.36 7.07-7.31.01-12.25-.08-24.5.03-36.75 4.57.04 9.15-.03 13.73-.01.01 12.54.05 25.08 0 37.62.04 5.05-3.29 9.54-7.55 11.98-9.2 5.64-20.36 6.94-30.95 6.64-8.78-.22-17.97-2-25.18-7.3-3.89-2.77-6.55-7.33-6.55-12.15-.03-12.27-.02-24.53.01-36.79z"/><path d="m725.27 68.22c4.82.09 9.64.05 14.46.02.04 8.03-.03 16.05.03 24.08 12.18-7.99 24.31-16.05 36.55-23.93 6.52-.33 13.08-.04 19.62-.13-9.73 6.95-19.83 13.37-29.6 20.26 12.9 11.56 25.68 23.26 38.48 34.93-5.87.14-11.74-.01-17.61.09-10.48-9.39-20.72-19.04-31.2-28.43-5.59 3.87-11.15 7.79-16.74 11.68-.09 5.56.01 11.13-.03 16.69-4.65.04-9.3-.01-13.94.08-.07-18.45-.03-36.9-.02-55.34z"/></g></svg>