<svg height="262.10641pt" viewBox="0 0 1531.24 262.10641" width="1531.24pt" xmlns="http://www.w3.org/2000/svg"><g fill="#e4007d"><path d="m896.79.3813238c10.98-2.25 23.88 5.7 24.39 17.4400002.66 8.67-7.59 15.55-15.83 15.64-10.3 1-21.44-6.77-21.75-17.59-.63-7.6900002 5.8-14.4200002 13.19-15.4900002z"/><path d="m820.36 3.4213238c11.63-.03 23.26 0 34.88-.01-28.73 62.5400002-56.14 125.6799962-84.29 188.4899962 4.25 2.76 7.64 6.58 11.59 9.72 12.18 10.14 24.8 20.23 39.53 26.43 12.95 5.55 27.72 5.89 41.29 2.61 10.29-2.55 18.76-9.57 25.08-17.86 6.84 6.55 13.7 13.08 20.46 19.73-5.92 10.57-16.28 17.92-27.13 22.81-18.61 8.11-40.16 8.88-59.41 2.57-23.89-7.66-44.46-22.74-63.68-38.44-2-1.45-3.68-3.59-5.95-4.5-9.83 8.48-21.44 15.34-34.35 17.65-12.45 2.38-26.44.89-36.62-7.22-11.92-9.29-16.55-26.41-11.56-40.58 3.21-9.55 10.71-17.49 19.99-21.38 9.47-4 20.2-4.9 30.23-2.68 9.42 1.98 18.06 6.56 25.96 11.95 24.8-56.37 49.34-112.849996 73.98-169.2899962m-121.22 187.1499962c-3.09 2.77-3.68 8.11-.83 11.25 2.03 2.22 5.17 2.94 8.07 2.82 8.2-.28 16.18-3.47 22.44-8.76-5.96-3.63-12.35-7.01-19.37-7.82-3.56-.37-7.62-.14-10.31 2.51z"/><path d="m .05 17.681324c26.43-.01 52.85-.01 79.28 0 15.1.07 30.36 5.18 41.56 15.5 12.78 10.93 18.69 28.06 18.79 44.54-.1 13.32-3.55 26.989996-11.78 37.659996-6.27 8.34-15.11 14.35-24.53 18.6 15.09 29.9 30.39 59.68 45.48 89.57-13.69 0-27.37.01-41.05-.01-13.33-28.66-26.74-57.29-40.17-85.9-10.57.05-21.15.01-31.72.02-.03 28.63-.01 57.26-.01 85.89-11.97-.07-23.94.14-35.9-.11.13-68.58.01-137.169996.05-205.759996m35.85 32.28c-.02 18.47.01 36.94-.01 55.409996 13.48-.01 26.96.01 40.44-.01 6.5-.03 13.33-.98 18.76-4.81 6.85-5.049996 11.35-13.249996 11.5-21.809996.13-6.81-1.11-14.13-5.6-19.49-5.58-6.42-14.28-9.21-22.59-9.26-14.17-.04-28.33.02-42.5-.03z"/><path d="m173.5 17.681324c43.56-.01 87.11 0 130.67-.01-.02 11.41.03 22.82-.02 34.22-31.56 0-63.12 0-94.68 0 .01 17.23.01 34.46.01 51.679996 26.81-.03 53.62.04 80.44-.03.11 10.77 0 21.54.05 32.31-26.83.05-53.66.01-80.49.02v53.57h94.7c-.03 11.37 0 22.74-.01 34.11-43.56 0-87.11 0-130.67 0-.01-68.62 0-137.249996 0-205.869996z"/><path d="m394.66 17.821324c9.54-.32 19.09-.08 28.64-.12 24.02 68.65 48.23 137.229996 72.36 205.849996-12.28 0-24.55.01-36.82-.01-4.95-14.9-10.08-29.73-14.95-44.66-23.22-.25-46.46-.24-69.69-.01-4.92 14.9-9.93 29.77-14.87 44.66-12.31.03-24.62.02-36.93.01 24.03-68.59 48.33-137.089996 72.26-205.719996m14.42 52.01c-8.26 25.55-16.38 51.139996-24.6 76.699996 16.39-.05 32.78-.01 49.18-.02-8.18-25.57-16.33-51.139996-24.58-76.679996z"/><path d="m516.93 17.681324c11.38-.01 22.76-.01 34.14 0-.01 57.24.03 114.479996-.02 171.719996 27.05.09 54.1 0 81.15.05.09 12.1 1.98 26.16 12.14 34.16-42.49-.19-84.98.09-127.47-.14.13-68.6.01-137.199996.06-205.789996z"/><path d="m1457.92 54.051324c13.59-12.05 27.02-24.28 40.58-36.36 10.9-.03 21.82-.01 32.73-.02.01 69.2-.01 138.389996.01 207.589996-11.32.01-22.64 0-33.96 0-.01-55.05.01-110.1-.01-165.149996-13.11 11.53-26.28 23-39.4 34.53.01-13.53-.08-27.06.05-40.59z"/><path d="m1051.34 73.851324c7.76-10.01 19.34-17.03 31.92-18.81 9.05-1.43 18.8-.74 26.82 4.03 9.1 5.07 15.01 15.27 14.79 25.7.31 9.49-4.18 18.069996-8.09 26.409996-4.56 9.51-11.17 18.19-19.83 24.31-12.86 9.21-29.97 12.07-45.13 7.54-3.29 7.18-4.54 15.6-2.14 23.24 1.42 4.71 6.06 7.49 10.65 8.4 9.19 1.97 18.41-1.42 26.65-5.24 14.13-6.99 26.84-16.89 37.09-28.86 11.62-14.12 20.28-30.33 30.57-45.389996 8.24-12.09 17.05-24.29 29.13-32.83 6.38-4.2 14.42-7.83 22.1-6.06 6.16 6.97 12.04 14.22 18.06 21.32-6.83 4.34-12.84 10.3-15.9 17.9-5.42 13.079996-4.01 27.589996-2.59 41.309996 1.01 10.74 2.89 21.75.49 32.43-2.46 8.47-6.37 17.23-13.92 22.33-12.15 8.18-29.03 8.57-41.6 1.07-10.22-5.88-18.38-14.66-25.47-23.95-13.34 10.53-27.68 20.2-43.74 26.05-11.09 4.05-23.46 5.38-34.92 2.08-9.62-2.64-18.46-8.81-23.41-17.58-2.69-5.03-4.33-10.54-5.58-16.08-13.51 5.19-30.06 3.43-40.88-6.64-3.61 7.43-6.34 15.36-11.29 22.06-5.82 8.29-12.23 16.9-21.53 21.5-7.03 3.59-15.44 1.14-21.74-2.82-6.46-5.95-10.5-14.39-11.63-23.07-13.74 10.88-30.29 18.66-47.82 20.54-10.14.93-21.35-1.8-28.27-9.69-7.95-8.91-7.88-22.39-3.26-32.86 13.98-31.72 28.08-63.389996 42.1-95.079996 11.28-.03 22.57-.01 33.85-.01-14.36 31.94-28.71 63.889996-43.06 95.839996-2.31 5.12-5.42 11.02-3.15 16.68 1.15 2.66 4.43 2.09 6.77 2.13 9.53-.56 18.06-5.72 25.52-11.31 6.79-5.2 12.79-11.38 18.17-18.01 1.16-1.5 2.48-2.99 2.95-4.88 6.62-26.81 13.39-53.589996 20-80.409996 10.42-.1 20.86-.03 31.29-.03-8.4 28.48-16.77 56.959996-25.14 85.449996-1.53 6.22-5.09 13.21-1.75 19.42 6.58-2.4 10.08-9.05 13.29-14.82 16.22-30.04 32.43-60.079996 48.73-90.069996 9.7.02 19.41 0 29.11.01-11.34 21.24-22.67 42.5-34 63.749996-2.09 4.08-5.16 8.16-4.48 13.02.28 3.4 3.24 5.86 6.38 6.68 10.76 3.12 22.73-3.47 27.43-13.31 4.38-9.57 8.78-19.13 13.19-28.699996 4-8.43 7.31-17.36 13.27-24.69m35.47 4.68c-6.99 3.29-11.82 9.83-15.07 16.64-4.79 10.589996-9.52 21.209996-14.29 31.799996 6.16 1.26 12.82 1.25 18.6-1.51 7.73-3.56 13.01-10.8 16.49-18.35 2.87-6.53 6.58-12.969996 7-20.259996.12-2.96-.46-6.37-2.94-8.3-2.87-2.12-6.78-1.34-9.79-.02m56.23 72.369996c5.99 6.72 12.21 13.49 19.93 18.27 3.6 2.42 8.62.57 10.88-2.86 2.86-4.28 3.53-9.58 4.12-14.59 1.42-14.78.1-29.67 1.28-44.47-12.08 14.54-24.8 28.56-36.21 43.65z"/><path d="m1359.49 71.381324c10.75-.01 21.5 0 32.26 0-.01 15.47.01 30.929996-.02 46.389996 16.11.02 32.23-.01 48.34.02.04 11.4.01 22.8.02 34.21-16.12 0-32.24 0-48.35 0 .02 15.48-.02 30.96.02 46.44-10.76.05-21.51 0-32.26.03 0-15.49 0-30.98 0-46.47-16.12-.01-32.24.01-48.35-.01-.01-11.39-.01-22.78 0-34.17 16.11-.11 32.23-.01 48.35-.05-.01-15.46.01-30.929996-.01-46.389996z"/></g></svg>