<svg id="a" width="1502.9pt" height="321.43pt" version="1.1" viewBox="0 0 1502.9 321.43" xmlns="http://www.w3.org/2000/svg">
 <path id="b" d="m1101.8 0.37938c12.07-2.18 25.8 5.22 28.89 17.44 2.03 6.84-0.7 14.61-6.45 18.78-10.69 7.88-27.42 4.79-35.04-5.95-4.28-5.86-5.4-14.25-1.73-20.68 2.91-5.25 8.46-8.66 14.33-9.59z" fill="#e4007d"/>
 <path id="c" d="m1007.3 4.8094c14.23-0.02 28.46 0 42.69-0.01-16.65 35.52-32.33 71.49-48.41 107.26-18.43 41.26-36.66 82.6-55.16 123.82 3.97 1.63 6.63 5.12 9.91 7.75 13.84 11.7 27.93 23.38 44.02 31.9 10.72 5.71 22.59 9.64 34.82 9.87 13.64 0.33 28.05-1.38 39.67-9.09 6.34-3.94 11.28-9.62 16.04-15.28 8.34 7.93 16.57 15.98 24.92 23.91-3.63 7.37-9.72 13.14-16.12 18.12-16.09 12.19-36.4 17.92-56.42 18.36-20.18 0.27-39.86-6.11-57.64-15.27-22.23-11.52-42.11-26.99-61.2-43.06-12.77 11.66-28.72 20.32-46 22.67-11.8 1.53-24.33 0.48-34.92-5.29-11.62-6.09-19.85-17.83-22.18-30.68-2.57-13.06 0.97-27.2 9.65-37.32 9.06-10.92 23.35-16.12 37.22-16.78 17.53-0.95 34.24 6.65 48.23 16.61 30.44-69.1 60.59-138.33 90.88-207.49m-147.37 227.53c-4.57 2.8-6.37 9.45-3.42 14.03 2.06 3.22 6.07 4.56 9.74 4.55 10.47-0.02 20.76-4.02 28.74-10.75-6.98-4.43-14.56-8.32-22.8-9.59-4.12-0.47-8.67-0.6-12.26 1.76z" fill="#e4007d"/>
 <path id="d" d="m0.0065306 23.269c32.75-0.01 65.51 0 98.27 0 17.39 0.11 35.21 5.29 48.53 16.8 11 8.78 18.72 21.33 22.14 34.94 4.88 19.01 3.02 39.87-5.83 57.45-7.51 14.85-21.06 25.88-36.17 32.4 18.56 36.9 37.35 73.69 55.79 110.65-16.73-0.07-33.45 0.03-50.17-0.05-16.4-35-32.82-69.99-49.26-104.98-13.58 0.01-27.16-0.05-40.74 0.03-0.02 34.99 0.01 69.98-0.02 104.97-14.18 0.02-28.35-0.01-42.53 0.02-0.03-84.07-0.01-168.15-0.01-252.23m42.54 39.57c0.02 22.69 0.01 45.38 0.01 68.07 16.91 0.04 33.82 0 50.74 0.02 8.01-0.05 16.37-1.47 23.09-6.09 8.69-6.15 14.23-16.45 14.62-27.09 0.44-9.52-1.46-20.25-9.04-26.76-6.6-6.13-15.91-8.09-24.66-8.15-18.25-0.01-36.5 0.01-54.76 0z" fill="#e4007d"/>
 <path id="e" d="m213.43 23.279c52.88-0.02 105.75-0.02 158.63 0-0.04 13.86 0.02 27.72-0.03 41.58-38.67 0.01-77.34 0.01-116.01 0 0.01 21.25-0.01 42.49 0.01 63.74 33-0.02 65.99-0.02 98.99 0 0.04 13.13-0.1 26.27 0.07 39.41-33.03 0.3-66.07-0.05-99.1 0.17 0.07 21.92 0 43.84 0.04 65.76 38.67 0.01 77.34 0 116.02 0 0 13.85-0.01 27.7 0 41.54-52.87 0.01-105.74 0.01-158.61 0.01 0-84.07 0.01-168.14-0.01-252.21z" fill="#e4007d"/>
 <path id="f" d="m396.31 275.49c29.61-84.07 59.17-168.16 88.79-252.22 11.64 0.01 23.28-0.03 34.92 0.02 29.53 84.09 59.15 168.14 88.76 252.2-15.02-0.01-30.04 0.03-45.06-0.02-6.13-18.33-12.3-36.64-18.44-54.96-28.43-0.09-56.86 0.09-85.29-0.09-6.5 18.25-12.23 36.79-18.56 55.1-15.04-0.08-30.08-0.01-45.12-0.03m76.18-94.42c20.14-0.17 40.28-0.02 60.42-0.08-10.15-31.47-20.16-62.99-30.3-94.47-10.01 31.52-20.4 62.94-30.12 94.55z" fill="#e4007d"/>
 <path id="g" d="m634.5 23.289c14.21-0.04 28.42-0.03 42.62-0.01-0.03 70.22-0.01 140.44-0.01 210.66 33.04 0.02 66.08-0.01 99.13 0.01 0.2 14.72 2.59 31.6 14.69 41.53-52.13 0.02-104.27 0.01-156.4 0-0.01-84.06 0.03-168.13-0.03-252.19z" fill="#e4007d"/>
 <path id="h" d="m1319.6 70.159c9.17-3.12 19.06-4.08 28.66-2.88 10.01 1.48 19.64 6.55 25.8 14.7 6.02 7.81 8.31 18.12 6.94 27.82-1.07 9.37-5.58 17.78-9.43 26.23-6.64 14.07-17.1 26.69-30.92 34.16-14.71 7.97-32.72 10.28-48.75 5.14-4.44 8.46-5.66 18.7-3.15 27.94 1.19 4.76 5.06 8.41 9.6 10.04 9.62 3.56 20.21 1.35 29.48-2.27 15.5-6.16 29.45-15.79 41.67-27.06 11.86-10.81 20.95-24.19 29.51-37.66 10.85-16.93 21.16-34.3 33.91-49.91 8.4-10.05 17.93-19.85 30.19-25.05 5.42-2.31 11.37-3.2 17.25-2.86 7.62 8.78 14.99 17.77 22.53 26.62-5.53 3.77-10.97 7.93-14.76 13.53-6.61 9.25-9.08 20.81-9.36 32.01-0.56 15.43 2.24 30.69 3.24 46.03 0.21 7.92 0.61 16.07-1.95 23.69-3.12 9.21-7.6 18.64-15.82 24.35-14.73 10.2-35.43 10.94-50.92 1.95-12.82-7.22-23.07-18.18-31.84-29.82-15.36 12.27-31.89 23.46-50.23 30.76-14.44 5.81-30.71 8.33-45.91 4.01-9.05-2.46-17.56-7.3-23.8-14.36-6.96-7.41-9.97-17.49-12.19-27.17-16.52 6.4-37.08 4.38-50.19-8.22-4.51 8.72-7.77 18.14-13.54 26.16-5.99 8.84-12.66 17.46-21.3 23.88-5.46 3.89-12.37 6.99-19.17 5.37-5.04-1.22-10.37-2.61-14.33-6.13-7.18-7.47-11.82-17.29-13.09-27.58-15.16 12.3-33.35 21.09-52.61 24.52-9.29 1.71-19.15 1.38-27.98-2.18-8.88-3.49-16.23-10.98-18.99-20.18-3.15-9.97-1.2-20.83 3.04-30.16 17.06-38.22 33.93-76.52 51.1-114.69 13.78 0.08 27.56 0.01 41.34 0.04-17.54 38.81-35.04 77.64-52.56 116.46-2.44 5.49-5.48 11.06-5.13 17.26 0.11 2.55 1.24 5.81 4.19 6.14 9.32 1.22 18.47-2.36 26.47-6.82 13.04-7.46 23.99-18.12 33.29-29.83 1.05-1.36 2.28-2.7 2.62-4.45 8.18-32.92 16.46-65.82 24.67-98.74 12.74-0.04 25.49-0.03 38.24-0.01-10.05 33.89-20.03 67.8-30.04 101.71-1.47 5.33-3.42 10.56-4.3 16.04-0.45 3.35-0.86 7.16 1.34 10.03 7.04-1.62 11.08-8.53 14.6-14.28 20.54-37.81 41.06-75.64 61.58-113.48 11.88-0.06 23.76-0.05 35.65 0-14.67 27.29-29.26 54.61-43.9 81.91-2.37 3.81-4.24 8.36-3.12 12.91 0.83 4.01 4.71 6.34 8.43 7.22 13.69 3.26 28.38-5.45 33.64-18.16 5.55-12.14 11.14-24.26 16.7-36.39 4.22-8.96 7.85-18.33 13.94-26.25 7.4-10.07 17.77-18.05 29.66-22.04m8.45 30.31c-5.75 4.85-9.86 11.36-12.85 18.2-5.55 12.39-11.18 24.74-16.65 37.16 10.61 2.56 22.63 0.55 30.82-7 8.9-7.63 13.09-18.88 17.75-29.28 2.32-6.03 4.4-12.8 2.44-19.21-1.04-3.6-4.64-5.87-8.3-5.76-4.94 0.3-9.5 2.74-13.21 5.89m75.53 84.6c5.66 6.71 11.86 12.98 18.67 18.53 2.77 2.11 5.59 4.4 9.01 5.35 4.57 0.59 9.06-2.15 11.14-6.17 3.4-6.4 4.01-13.82 4.57-20.92 1.2-16.78 0.06-33.63 1.17-50.42-14.86 17.88-30.46 35.14-44.56 53.63z" fill="#e4007d"/>
</svg>
