<svg height="66.588295" width="250" xmlns="http://www.w3.org/2000/svg"><g fill="#ffcf25" transform="matrix(.39507972 0 0 .39507972 -15.698269 -249.95431)"><path d="m41 633.94643v166h30.5v-63.28125l43.125 63.28125h38.375l-45.5-61.5c21.39656-2.64748 43.5-21.34873 43.5-51.4375 0-26.5336-18.7071-53.0625-58.34375-53.0625zm30.5 30h21.40625c12.4254 0 27.21875 6.33662 27.21875 24.5 0 18.48631-14.89536 24.5-26.15625 24.5h-22.46875z"/><path d="m161.5 633.94643v166h54.5c26.14657 0 38.09821-9.11309 47.6875-21.125l12.84375-16.875h52.46875v38h31v-166h-34.09375l-78.25 115.875c-9.32006 13.55097-16.52227 20.125-30.65625 20.125h-25v-38h38l20-30h-58v-38h58l20.28125-30zm167.5 46v52h-35z"/><path d="m456 769.93361v30h-85v-166h31v136z"/><path d="m559.26047 799.93361h-92.26047v-166h31v136h45.6618l34.3382-50.75761-57.44194-85.24239h36.44194l39.49493 57.50508 38.82074-57.50508h35.93687z"/></g></svg>