<?xml version="1.0" encoding="UTF-8" standalone="no"?>
<svg
   xmlns:dc="http://purl.org/dc/elements/1.1/"
   xmlns:cc="http://creativecommons.org/ns#"
   xmlns:rdf="http://www.w3.org/1999/02/22-rdf-syntax-ns#"
   xmlns:svg="http://www.w3.org/2000/svg"
   xmlns="http://www.w3.org/2000/svg"
   xmlns:sodipodi="http://sodipodi.sourceforge.net/DTD/sodipodi-0.dtd"
   xmlns:inkscape="http://www.inkscape.org/namespaces/inkscape"
   width="92.800003pt"
   height="67.199997pt"
   viewBox="0 0 92.800002 67.199997"
   version="1.1"
   id="svg2"
   inkscape:version="0.91 r13725"
   sodipodi:docname="Red Hot - Original.svg">
  <metadata
     id="metadata22">
    <rdf:RDF>
      <cc:Work
         rdf:about="">
        <dc:format>image/svg+xml</dc:format>
        <dc:type
           rdf:resource="http://purl.org/dc/dcmitype/StillImage" />
        <dc:title></dc:title>
      </cc:Work>
    </rdf:RDF>
  </metadata>
  <defs
     id="defs20" />
  <sodipodi:namedview
     pagecolor="#ffffff"
     bordercolor="#666666"
     borderopacity="1"
     objecttolerance="10"
     gridtolerance="10"
     guidetolerance="10"
     inkscape:pageopacity="0"
     inkscape:pageshadow="2"
     inkscape:window-width="1920"
     inkscape:window-height="1017"
     id="namedview18"
     showgrid="false"
     fit-margin-top="0"
     fit-margin-left="0"
     fit-margin-right="0"
     fit-margin-bottom="0"
     inkscape:zoom="3.3882353"
     inkscape:cx="80.009866"
     inkscape:cy="43.313403"
     inkscape:window-x="-8"
     inkscape:window-y="-8"
     inkscape:window-maximized="1"
     inkscape:current-layer="svg2" />
  <rect
     style="opacity:1;fill:#bc1000;fill-opacity:1;stroke:none;stroke-width:3.4000001;stroke-miterlimit:4;stroke-dasharray:none;stroke-opacity:1"
     id="rect4154"
     width="92.800003"
     height="67.199997"
     x="0"
     y="0" />
  <g
     id="#000000ff"
     transform="translate(-16,-32.905299)" />
  <g
     id="g4156"
     transform="translate(4.4000016,-18.925248)">
    <path
       d="m 0,22.873369 c 6.2825821,0.122763 12.59405,-0.274411 18.854968,0.245527 3.697335,0.166091 6.896397,3.329046 6.867512,7.076931 0.498274,3.98619 -2.448041,7.734075 -6.318689,8.528425 4.708326,2.650238 6.051498,8.319005 8.680073,12.673484 -3.336268,0 -6.679757,0 -10.016024,0 -1.877554,-3.336267 -3.545688,-6.788077 -5.546004,-10.052131 -0.707693,-1.285402 -2.274728,-1.4876 -3.5890153,-1.610363 -0.093878,3.885091 -0.014443,7.770182 -0.043328,11.662494 -2.9607571,0 -5.9215142,0 -8.889492600000018,0 0,-9.510529 0,-19.013837 0,-28.524367 M 8.896714,28.657678 c 0,1.920881 -0.00722,3.841763 -0.00722,5.762644 2.151964,-0.08666 4.419471,0.274412 6.48478,-0.469388 2.07253,-0.808793 1.949767,-4.390586 -0.238305,-4.968295 -2.029202,-0.534381 -4.159503,-0.274412 -6.2392537,-0.324961 z"
       id="path6"
       inkscape:connector-curvature="0"
       style="opacity:1;fill:#ffffff;fill-opacity:1;stroke:none;stroke-opacity:1" />
    <path
       d="m 30.019188,22.873369 c 8.282899,0 16.573018,-0.0072 24.863138,0 0,2.166408 0,4.332816 0,6.499223 -5.329362,0.0072 -10.651504,-0.0072 -15.973645,0.0072 0,1.364836 0,2.729673 0.0072,4.09451 4.896081,0.0072 9.799384,-0.0072 14.702686,0.0072 -0.0072,1.928103 -0.0072,3.863427 0.03611,5.798751 -4.910524,0.15887 -9.828269,0.02166 -14.746014,0.07221 0,1.841446 0,3.690114 0,5.538782 5.322141,0.01444 10.644283,0 15.966424,0 0.0072,2.166408 0.0072,4.340037 0.0072,6.506444 -8.29012,0 -16.580239,0.0072 -24.863138,-0.0072 -0.0072,-9.503308 -0.0072,-19.006616 0,-28.517146 z"
       id="path8"
       inkscape:connector-curvature="0"
       style="opacity:1;fill:#ffffff;fill-opacity:1;stroke:none;stroke-opacity:1" />
    <path
       d="m 57.727542,22.873369 c 4.83831,0.02889 9.67662,-0.06499 14.507709,0.04333 3.531245,0.04333 7.170809,1.530928 9.19279,4.535013 2.823551,4.14506 2.910207,9.496087 2.195293,14.283847 -0.714915,4.592784 -4.441136,8.680074 -9.149462,9.265004 -5.53156,0.816013 -11.171441,0.21664 -16.74633,0.397174 -0.0072,-9.510529 -0.0072,-19.013837 0,-28.524367 m 8.846164,6.492002 c 0,5.177714 0,10.355428 0,15.540364 2.664681,-0.09388 6.448673,0.483831 7.755739,-2.527476 1.133754,-3.177398 1.010991,-6.824184 0.07221,-10.037688 -1.16986,-3.162955 -5.054951,-3.040192 -7.827953,-2.9752 z"
       id="path10"
       inkscape:connector-curvature="0"
       style="opacity:1;fill:#ffffff;fill-opacity:1;stroke:none;stroke-opacity:1" />
    <path
       d="m 40.07132,53.044206 c 4.282265,-0.657144 9.048362,-0.288854 12.637377,2.33972 3.177398,2.310835 4.766097,6.246476 4.997181,10.081017 0.259968,4.354479 -0.259969,9.19279 -3.321825,12.565164 -4.650555,5.040509 -12.825134,5.112722 -18.696098,2.375827 -3.552909,-1.993095 -5.762644,-5.892628 -6.203147,-9.88604 -0.512717,-4.152281 -0.166092,-8.687294 2.216957,-12.254646 1.870332,-2.852436 5.040508,-4.67944 8.369555,-5.221042 m 1.205966,6.816963 c -2.231399,0.90267 -3.19184,3.365153 -3.35071,5.610995 -0.187755,2.628575 -0.252748,5.531561 1.177081,7.86406 2.159187,3.350711 8.217907,2.837994 9.438316,-1.097646 0.888227,-2.996864 0.974884,-6.311468 0.06499,-9.315553 -0.938777,-2.953536 -4.585563,-4.217274 -7.32968,-3.061856 z"
       id="path12"
       inkscape:connector-curvature="0"
       style="opacity:1;fill:#ffffff;fill-opacity:1;stroke:none;stroke-opacity:1" />
    <path
       d="m 0,53.203076 c 2.9679784,0 5.9287355,-0.0072 8.8894926,0.0072 0.00722,3.336268 0,6.672536 0,10.008804 3.4301454,0 6.8602904,0.0072 10.2904364,-0.0072 0,-3.336268 -0.0072,-6.672535 0.0072,-10.008803 2.960757,0 5.921514,-0.0072 8.889493,0 0,9.510529 0,19.013838 -0.0072,28.524367 -2.960757,0 -5.921514,0 -8.889492,0 -0.0072,-3.82732 0.0072,-7.647419 -0.0072,-11.467518 -3.422924,0 -6.845848,0.0072 -10.2687717,0 -0.028885,3.820099 0,7.640198 -0.014443,11.460297 C 5.9287355,81.727443 2.9607571,81.727443 0,81.727443 0,72.216914 0,62.713605 0,53.203076 Z"
       id="path14"
       inkscape:connector-curvature="0"
       style="opacity:1;fill:#ffffff;fill-opacity:1;stroke:none;stroke-opacity:1" />
    <path
       d="m 57.727542,53.203076 c 8.759508,-0.0072 17.511795,0 26.264081,0 0.0072,2.33972 0,4.686662 0.0072,7.033603 -2.888544,0.02166 -5.777087,0.0072 -8.658409,0.0072 -0.02889,7.156366 0,14.319954 -0.01444,21.476321 -2.960757,0.0072 -5.921514,0.0072 -8.889493,0.0072 -0.0072,-7.163588 0.0072,-14.319954 0,-21.483542 -2.902986,0 -5.805972,0 -8.701737,0 -0.01444,-2.346942 -0.01444,-4.693883 -0.0072,-7.040825 z"
       id="path16"
       inkscape:connector-curvature="0"
       style="opacity:1;fill:#ffffff;fill-opacity:1;stroke:none;stroke-opacity:1" />
  </g>
</svg>
