<?xml version="1.0" encoding="UTF-8" standalone="no"?>
<svg
   xmlns:dc="http://purl.org/dc/elements/1.1/"
   xmlns:cc="http://creativecommons.org/ns#"
   xmlns:rdf="http://www.w3.org/1999/02/22-rdf-syntax-ns#"
   xmlns:svg="http://www.w3.org/2000/svg"
   xmlns="http://www.w3.org/2000/svg"
   xmlns:sodipodi="http://sodipodi.sourceforge.net/DTD/sodipodi-0.dtd"
   xmlns:inkscape="http://www.inkscape.org/namespaces/inkscape"
   width="116.3216pt"
   height="82.207878pt"
   viewBox="0 0 116.3216 82.207878"
   version="1.1"
   id="svg2"
   inkscape:version="0.91 r13725"
   sodipodi:docname="Red Hot.svg">
  <metadata
     id="metadata22">
    <rdf:RDF>
      <cc:Work
         rdf:about="">
        <dc:format>image/svg+xml</dc:format>
        <dc:type
           rdf:resource="http://purl.org/dc/dcmitype/StillImage" />
        <dc:title></dc:title>
      </cc:Work>
    </rdf:RDF>
  </metadata>
  <defs
     id="defs20" />
  <sodipodi:namedview
     pagecolor="#ffffff"
     bordercolor="#666666"
     borderopacity="1"
     objecttolerance="10"
     gridtolerance="10"
     guidetolerance="10"
     inkscape:pageopacity="0"
     inkscape:pageshadow="2"
     inkscape:window-width="1920"
     inkscape:window-height="1017"
     id="namedview18"
     showgrid="false"
     fit-margin-top="0"
     fit-margin-left="0"
     fit-margin-right="0"
     fit-margin-bottom="0"
     inkscape:zoom="38.333506"
     inkscape:cx="139.72548"
     inkscape:cy="78.559313"
     inkscape:window-x="-8"
     inkscape:window-y="-8"
     inkscape:window-maximized="1"
     inkscape:current-layer="svg2" />
  <g
     id="#000000ff"
     transform="translate(-16,-17.897418)" />
  <g
     id="#ffffffff"
     transform="translate(-16,-17.897418)">
    <path
       d="m 16,17.94 c 8.7,0.17 17.44,-0.38 26.11,0.34 5.12,0.23 9.55,4.61 9.51,9.8 0.69,5.52 -3.39,10.71 -8.75,11.81 6.52,3.67 8.38,11.52 12.02,17.55 -4.62,0 -9.25,0 -13.87,0 -2.6,-4.62 -4.91,-9.4 -7.68,-13.92 -0.98,-1.78 -3.15,-2.06 -4.97,-2.23 -0.13,5.38 -0.02,10.76 -0.06,16.15 -4.1,0 -8.2,0 -12.31,0 0,-13.17 0,-26.33 0,-39.5 m 12.32,8.01 c 0,2.66 -0.01,5.32 -0.01,7.98 2.98,-0.12 6.12,0.38 8.98,-0.65 2.87,-1.12 2.7,-6.08 -0.33,-6.88 -2.81,-0.74 -5.76,-0.38 -8.64,-0.45 z"
       id="path6"
       inkscape:connector-curvature="0"
       style="opacity:1;fill:#bc1000" />
    <path
       d="m 57.57,17.94 c 11.47,0 22.95,-0.01 34.43,0 0,3 0,6 0,9 -7.38,0.01 -14.75,-0.01 -22.12,0.01 0,1.89 0,3.78 0.01,5.67 6.78,0.01 13.57,-0.01 20.36,0.01 -0.01,2.67 -0.01,5.35 0.05,8.03 -6.8,0.22 -13.61,0.03 -20.42,0.1 0,2.55 0,5.11 0,7.67 7.37,0.02 14.74,0 22.11,0 0.01,3 0.01,6.01 0.01,9.01 -11.48,0 -22.96,0.01 -34.43,-0.01 -0.01,-13.16 -0.01,-26.32 0,-39.49 z"
       id="path8"
       inkscape:connector-curvature="0"
       style="opacity:1;fill:#bc1000" />
    <path
       d="m 95.94,17.94 c 6.7,0.04 13.4,-0.09 20.09,0.06 4.89,0.06 9.93,2.12 12.73,6.28 3.91,5.74 4.03,13.15 3.04,19.78 -0.99,6.36 -6.15,12.02 -12.67,12.83 -7.66,1.13 -15.47,0.3 -23.19,0.55 -0.01,-13.17 -0.01,-26.33 0,-39.5 m 12.25,8.99 c 0,7.17 0,14.34 0,21.52 3.69,-0.13 8.93,0.67 10.74,-3.5 1.57,-4.4 1.4,-9.45 0.1,-13.9 -1.62,-4.38 -7,-4.21 -10.84,-4.12 z"
       id="path10"
       inkscape:connector-curvature="0"
       style="opacity:1;fill:#bc1000" />
    <path
       d="m 71.49,59.72 c 5.93,-0.91 12.53,-0.4 17.5,3.24 4.4,3.2 6.6,8.65 6.92,13.96 0.36,6.03 -0.36,12.73 -4.6,17.4 -6.44,6.98 -17.76,7.08 -25.89,3.29 C 60.5,94.85 57.44,89.45 56.83,83.92 56.12,78.17 56.6,71.89 59.9,66.95 62.49,63 66.88,60.47 71.49,59.72 m 1.67,9.44 c -3.09,1.25 -4.42,4.66 -4.64,7.77 -0.26,3.64 -0.35,7.66 1.63,10.89 2.99,4.64 11.38,3.93 13.07,-1.52 1.23,-4.15 1.35,-8.74 0.09,-12.9 -1.3,-4.09 -6.35,-5.84 -10.15,-4.24 z"
       id="path12"
       inkscape:connector-curvature="0"
       style="opacity:1;fill:#bc1000" />
    <path
       d="m 16,59.94 c 4.11,0 8.21,-0.01 12.31,0.01 0.01,4.62 0,9.24 0,13.86 4.75,0 9.5,0.01 14.25,-0.01 0,-4.62 -0.01,-9.24 0.01,-13.86 4.1,0 8.2,-0.01 12.31,0 0,13.17 0,26.33 -0.01,39.5 -4.1,0 -8.2,0 -12.31,0 -0.01,-5.3 0.01,-10.59 -0.01,-15.88 -4.74,0 -9.48,0.01 -14.22,0 -0.04,5.29 0,10.58 -0.02,15.87 -4.1,0.01 -8.21,0.01 -12.31,0.01 0,-13.17 0,-26.33 0,-39.5 z"
       id="path14"
       inkscape:connector-curvature="0"
       style="opacity:1;fill:#bc1000" />
    <path
       d="m 95.94,59.94 c 12.13,-0.01 24.25,0 36.37,0 0.01,3.24 0,6.49 0.01,9.74 -4,0.03 -8,0.01 -11.99,0.01 -0.04,9.91 0,19.83 -0.02,29.74 -4.1,0.01 -8.2,0.01 -12.31,0.01 -0.01,-9.92 0.01,-19.83 0,-29.75 -4.02,0 -8.04,0 -12.05,0 -0.02,-3.25 -0.02,-6.5 -0.01,-9.75 z"
       id="path16"
       inkscape:connector-curvature="0"
       style="opacity:1;fill:#bc1000" />
  </g>
</svg>
