<svg height="993.49243pt" viewBox="0 0 1174.0095 993.49243" width="1174.0095pt" xmlns="http://www.w3.org/2000/svg"><path d="m463.68207.99483362c48.68-3.02000002 97.83.79999998 145.33 11.95000038 72.02 16.72 140.07 50.04 197.62 96.429996 69.21 55.58 123.17 130.01 154.09 213.25l197.63003 460.84c7.36 18.74 12.11 38.48 14.44 58.46 2.38 21.88 1.58 44.44-5.18 65.52-4.9 15.48-13.21 29.92-24.46 41.66-11.88 12.51-26.76 21.9-42.6 28.56-18.94 7.96-39.21 12.34-59.55 14.71-6.2122.8875-12.4597 1.1048-18.7176 1.1176h-526.24243c-159.56508 0-295.9531-73.6417-388.54-188.8576-58.894177-73.2884-95.71-163.95-105.0699997-257.52-2.60999999-23.28-2.64999999-46.73-2.23999999-70.13 1.73999999-47.16 10.24999969-94.08 25.26999969-138.83 19.75-59.01 50.86-114.16 90.98-161.71 44.85-53.24 100.97-96.949996 163.66-127.219996 57.3-27.78 120.04-44.2000004 183.58-48.23000038" fill="#22b3fc"/><path d="m458.66207 76.914834c79.16-5.56 159.82 11.84 229.45 49.979996 60.92 33.14 113.37 81.63 151.23 139.74 33.11 50.6 55.02 108.48 63.66 168.33 8.09 55.86 4.99 113.37-9.4 167.96-17.26 65.91-51.06 127.36-97.29 177.39-44.32 48.19-100.05 85.85-161.38 108.8-80.92 30.49-171.33 34.88-254.89 12.75-57.23-15.05-111.11-42.55-157.03-79.87-53.42-43.3-96.02-99.87-122.67-163.28-31.53-74.48-40.48-158.17-26.11-237.71 7.52-41.92 21.54-82.66 41.38-120.34 31.95-60.87 79.13-113.63 135.99-152.25 61.04-41.66 133.31-66.649996 207.06-71.499996" fill="#fff"/><g fill="#22b3fc" transform="translate(-37.94793 -127.96517)"><path d="m487.59 513.88 18.46.01.02 50.75 34.35-.01v16.54h-34.36l-.01 127.03-18.46.01.01-127.03-30.31-.08.11-16.51 30.19.04z"/><path d="m739.11 513.88c6.15-.01 12.31-.03 18.48.02-.02 11.01-.01 22.03-.01 33.05-6.15.02-12.31.01-18.46 0-.01-11.02.02-22.04-.01-33.07z"/><path d="m791.59 513.88c6.15-.01 12.31-.02 18.46.01.01 64.77.01 129.54 0 194.31-6.15.03-12.31.01-18.46.01.01-64.77 0-129.55 0-194.33z"/><path d="m251.94 569c8.21-5.92 18.63-7.22 28.44-8.08.03 6.47 0 12.93.02 19.4-9.41.83-19.1 3.32-26.46 9.53-9.52 8.14-14.4 20.77-14.49 33.14l-.01 85.22h-18.5v-143.57h18.5l-.02 20.25c2.89-6.15 6.89-11.94 12.52-15.89z"/><path d="m346.05 564.07c12.57-3.69 26.12-4.18 38.91-1.27 20.61 4.78 38.28 19.38 48.32 37.83 7.09 12.9 10.18 27.82 9.42 42.48l-130.88.05c.58 15.15 8.74 29.18 20.31 38.65 10.6 9.25 24.81 14.29 38.89 13.04 20.65-.84 40.75-14.03 47.95-33.7h19.5c-5.47 16.42-17.02 30.57-31.77 39.56-13.48 8.5-29.78 12.02-45.6 10.65-33.22-2.28-62.95-29.87-67.41-62.93-2.54-17.37.46-35.8 9.85-50.79 9.75-15.58 24.74-28.29 42.51-33.57m-15.42 27.55c-10.39 8.76-16.86 21.61-18.75 34.98h112.04c-1.58-9.27-4.97-18.34-10.62-25.92-10.3-13.79-26.94-23.02-44.3-23.07-14-.52-27.86 4.85-38.37 14.01z"/><path d="m583.89 575.86c13.11-10.02 29.69-14.89 46.09-14.9 13.79-.24 28.01 2.67 39.59 10.45 7.09 4.62 12.84 11.01 17.56 17.99l.02-24.76 18.47-.02-.17 143.7-18.3-.12.01-24.93c-8.46 12.6-21.31 22.34-36.15 25.96-16.03 3.9-33.29 3.12-48.83-2.45-16.13-5.87-29.73-17.82-38.53-32.45-9.69-16.16-12.11-36.05-8.46-54.37 3.54-17.66 14.45-33.31 28.7-44.1m37.27 2.37c-19.27 2.52-36.7 15.76-44.34 33.62-4.69 11.07-5.74 23.51-3.97 35.35 2.51 16.93 13.37 32.26 28.23 40.64 11.7 6.53 25.63 8.24 38.79 6.5 16.68-2.35 31.53-13.08 40.27-27.3 7.52-12.3 9.46-27.42 7.15-41.49-2.78-16.59-13.36-31.48-27.6-40.27-11.42-7.05-25.4-8.86-38.53-7.05z"/><path d="m739.11 564.64c6.15-.03 12.3-.01 18.46-.01.04 47.84-.04 95.68.04 143.52-6.17.14-12.34.04-18.51.05.04-47.85.03-95.7.01-143.56z"/></g><path d="m891.98207 729.76483 41.31.01-.07 47.52 20.16.29-.1 30.37-19.98.02.03 113.5-41.28.1-.08-113.6-17.49-.03.01-30.53 17.5-.02z" fill="#fff"/><path d="m960.03207 777.40483h40.52003l30.07 93.85 30.6-93.86 40.22.04-52.94 144.12-36.08.01z" fill="#fff"/></svg>