<?xml version="1.0" encoding="UTF-8"?>
<!-- Created with Inkscape (http://www.inkscape.org/) -->
<svg id="Layer_1" width="484.17" height="301" version="1.1" viewBox="0 0 484.17 301" xml:space="preserve" xmlns="http://www.w3.org/2000/svg" xmlns:cc="http://creativecommons.org/ns#" xmlns:dc="http://purl.org/dc/elements/1.1/" xmlns:rdf="http://www.w3.org/1999/02/22-rdf-syntax-ns#" xmlns:xlink="http://www.w3.org/1999/xlink"><metadata id="metadata13"><rdf:RDF><cc:Work rdf:about=""><dc:format>image/svg+xml</dc:format><dc:type rdf:resource="http://purl.org/dc/dcmitype/StillImage"/><dc:title/></cc:Work></rdf:RDF></metadata><defs id="defs11"><linearGradient id="linearGradient5276" x1="489.15" x2="486.94" y1="293.13" y2="-1.9188" gradientTransform="translate(-324.48 2.8276)" gradientUnits="userSpaceOnUse"><stop id="stop3924" stop-color="#63bd2a" offset="0"/><stop id="stop5278" stop-color="#63bd2a" offset=".58442"/><stop id="stop3926" stop-color="#c3db4f" offset="1"/></linearGradient></defs><rect id="rect3007" x=".5" y=".5" width="300" height="300" fill="url(#linearGradient5276)" stroke="#8ee558"/><g id="g2990" transform="translate(.50001 67.016)"><g id="rect2400_1_"><polygon id="polygon5" points="208.45 50.066 168.13 50.066 168.13 39.073 299.7 39.073 299.7 50.072 259.35 50.072 259.35 127.89 208.45 127.89"/></g><path id="path7" d="m154.68 89.459 0.014-8e-3c10.488-3.263 18.104-13.045 18.104-24.608 0-14.231-11.535-25.767-25.766-25.767l0.094-3e-3h-108.12l4e-3 88.822h50.919v-37.874h14.823l26.542 37.874 53.146-5e-3 -29.762-38.431zm-48.202-9.553v0.011h-16.542v-30.724h16.542v-7e-3c8.482 0 15.36 6.876 15.36 15.359 0 8.484-6.878 15.361-15.36 15.361z"/></g><g id="g4178" transform="matrix(.33765 0 0 .33765 47.924 28.474)"><path id="path12" d="m804.31 229.88h58v102.17l104.44 0.01v-102.18h58v262.99l-58 0.01v-104.93l-0.3-7.12-104.08-0.04-0.06 112.09-58-0.01z"/><path id="path14" d="m1060.9 229.88c30.38-0.01 60.76 0 91.15-0.01 17.71-0.08 35.56 1.2 52.77 5.61 17.17 4.34 33.75 11.86 47.35 23.33 13.63 11.32 23.95 26.4 30.14 42.96 6.48 16.8 8.98 34.84 9.71 52.74v10.25c-0.34 19.61-3.04 39.43-10.31 57.75-6.48 16.67-17.21 31.73-31.24 42.88-14.58 11.75-32.3 19.08-50.49 23.08-17.68 3.97-35.88 4.66-53.94 4.41-28.38 0-56.76 0-85.14-0.01v-262.99m58 48v166.99c8.04 0.01 16.08 0 24.13 0 14.04-0.09 28.34 0.82 42.04-2.96 13.77-3.44 26.53-11.58 34.49-23.46 10.41-15.32 13.54-34.27 14.03-52.44 0.33-16.6-1.1-33.6-7.36-49.12-4.74-11.9-13.07-22.55-24.19-29.07-12.31-7.35-26.88-9.81-41.03-9.91-14.04-0.07-28.07-0.02-42.11-0.03z"/></g></svg>
