<?xml version="1.0" encoding="UTF-8"?>
<!-- Created with Inkscape (http://www.inkscape.org/) -->
<svg id="Layer_1" width="483.67" height="300" version="1.1" viewBox="0 0 483.67 300" xml:space="preserve" xmlns="http://www.w3.org/2000/svg" xmlns:cc="http://creativecommons.org/ns#" xmlns:dc="http://purl.org/dc/elements/1.1/" xmlns:rdf="http://www.w3.org/1999/02/22-rdf-syntax-ns#"><metadata id="metadata13"><rdf:RDF><cc:Work rdf:about=""><dc:format>image/svg+xml</dc:format><dc:type rdf:resource="http://purl.org/dc/dcmitype/StillImage"/><dc:title/></cc:Work></rdf:RDF></metadata><path id="path4498" d="m0 0h300v300h-300z" fill="#76bd1d"/><g id="g4524"><path id="path4500" d="m208.48 194.4v-77.84h-40.32v-10.96h131.52v10.96h-40.32v77.84z"/><path id="path4502" d="m154.64 156h0.08c10.48-3.28 18.08-13.04 18.08-24.64 0-14.24-11.52-25.76-25.76-25.76h0.08-108.08v88.8h50.88v-37.84h14.8l26.56 37.84h53.12zm-48.16-9.6h-16.56v-30.72h16.56c8.48 0 15.36 6.88 15.36 15.36s-6.88 15.36-15.36 15.36z"/></g><g id="g4178" transform="matrix(.33757 0 0 .33757 47.493 28.005)" fill="#fff"><path id="path12" d="m804.31 229.88h58v102.17l104.44 0.01v-102.18h58v262.99l-58 0.01v-104.93l-0.3-7.12-104.08-0.04-0.06 112.09-58-0.01z"/><path id="path14" d="m1060.9 229.88c30.38-0.01 60.76 0 91.15-0.01 17.71-0.08 35.56 1.2 52.77 5.61 17.17 4.34 33.75 11.86 47.35 23.33 13.63 11.32 23.95 26.4 30.14 42.96 6.48 16.8 8.98 34.84 9.71 52.74v10.25c-0.34 19.61-3.04 39.43-10.31 57.75-6.48 16.67-17.21 31.73-31.24 42.88-14.58 11.75-32.3 19.08-50.49 23.08-17.68 3.97-35.88 4.66-53.94 4.41-28.38 0-56.76 0-85.14-0.01v-262.99m58 48v166.99c8.04 0.01 16.08 0 24.13 0 14.04-0.09 28.34 0.82 42.04-2.96 13.77-3.44 26.53-11.58 34.49-23.46 10.41-15.32 13.54-34.27 14.03-52.44 0.33-16.6-1.1-33.6-7.36-49.12-4.74-11.9-13.07-22.55-24.19-29.07-12.31-7.35-26.88-9.81-41.03-9.91-14.04-0.07-28.07-0.02-42.11-0.03z"/></g></svg>
