<svg height="302" viewBox="0 0 302 302" width="302" xmlns="http://www.w3.org/2000/svg" xmlns:xlink="http://www.w3.org/1999/xlink"><linearGradient id="a" gradientUnits="userSpaceOnUse" x1="165.1785" x2="162.96012" y1="296.454037" y2="1.408821"><stop offset="0" stop-color="#63bd2a"/><stop offset=".58441556" stop-color="#63bd2a"/><stop offset="1" stop-color="#c3db4f"/></linearGradient><path d="m1 1h300v300h-300z" fill="url(#a)" stroke="#8ee558"/><g transform="translate(1.00001 67.515998)"><path d="m299.705 39.073v10.999h-40.351v77.82h-50.905v-77.826h-40.319v-10.993z"/><path d="m154.676 89.459.014-.008c10.488-3.263 18.104-13.045 18.104-24.608 0-14.231-11.535-25.767-25.766-25.767l.094-.003h-108.118l.004 88.822h50.919v-37.874h14.823l26.542 37.874 53.146-.005zm-48.202-9.553v.011h-16.542v-30.724h16.542v-.007c8.482 0 15.36 6.876 15.36 15.359 0 8.484-6.878 15.361-15.36 15.361z"/></g></svg>