<?xml version="1.0" encoding="UTF-8" standalone="no"?>
<svg
   xmlns:dc="http://purl.org/dc/elements/1.1/"
   xmlns:cc="http://creativecommons.org/ns#"
   xmlns:rdf="http://www.w3.org/1999/02/22-rdf-syntax-ns#"
   xmlns:svg="http://www.w3.org/2000/svg"
   xmlns="http://www.w3.org/2000/svg"
   xmlns:sodipodi="http://sodipodi.sourceforge.net/DTD/sodipodi-0.dtd"
   xmlns:inkscape="http://www.inkscape.org/namespaces/inkscape"
   height="97.078"
   width="600"
   version="1.1"
   viewBox="0 0 600.00006 97.078453"
   id="svg2"
   inkscape:version="0.91 r13725"
   sodipodi:docname="RTE One +1.svg">
  <metadata
     id="metadata28">
    <rdf:RDF>
      <cc:Work
         rdf:about="">
        <dc:format>image/svg+xml</dc:format>
        <dc:type
           rdf:resource="http://purl.org/dc/dcmitype/StillImage" />
        <dc:title></dc:title>
      </cc:Work>
    </rdf:RDF>
  </metadata>
  <defs
     id="defs26" />
  <sodipodi:namedview
     pagecolor="#ffffff"
     bordercolor="#666666"
     borderopacity="1"
     objecttolerance="10"
     gridtolerance="10"
     guidetolerance="10"
     inkscape:pageopacity="0"
     inkscape:pageshadow="2"
     inkscape:window-width="1920"
     inkscape:window-height="1017"
     id="namedview24"
     showgrid="false"
     inkscape:zoom="1.92"
     inkscape:cx="285.85907"
     inkscape:cy="37.306989"
     inkscape:window-x="-8"
     inkscape:window-y="-8"
     inkscape:window-maximized="1"
     inkscape:current-layer="svg2" />
  <path
     style="fill:#188fd7"
     inkscape:connector-curvature="0"
     id="path6"
     d="m 485.25,14.193 0,79.067 114.75,0 0,-79.067 z m 78.38,15.828 5.77,0 0,46.272 -7.61,0 0,-36.364 c -0.02,0.046 -0.23,0.112 -0.63,0.205 -0.37,0.093 -0.86,0.213 -1.46,0.352 -0.58,0.116 -1.21,0.254 -1.91,0.416 -0.69,0.139 -1.4,0.278 -2.12,0.417 -0.7,0.116 -1.33,0.233 -1.91,0.349 -0.56,0.116 -1.04,0.209 -1.43,0.278 l -0.59,0.104 0,-5.77 c 5.87,-1.506 9.83,-3.594 11.89,-6.259 z m -42.95,9.639 7.21,0 0,14.671 13.04,0 0,7.248 -13.04,0 0,14.714 -7.21,0 0,-14.714 -12.6,0 0,-7.248 12.6,0 z" />
  <g
     style="fill:#188fd7;stroke-width:2.85610008"
     id="g8">
    <path
       inkscape:connector-curvature="0"
       id="path10"
       d="m 164,83.655 c -13.89,0 -25.59,-9.939 -27.68,-24.048 l 26.3,0 c 2.91,0 9.24,0.599 9.24,0.599 l 0,-11.681 c 0,0 -6.22,0.457 -9.69,0.457 l -25.85,0 c 2.59,-13.824 13.94,-23.363 27.68,-23.363 7.26,0 16.18,3.342 16.18,3.342 l 0.17,-12.31 c 0,0 -6.35,-2.399 -16.35,-2.399 -23.13,0 -43.38,17.736 -43.38,40.328 0,24.448 20.25,40.956 43.38,40.956 10.88,0 17.38,-2.913 17.38,-2.913 l -0.32,-12.71 c 0,0 -8,3.742 -17.06,3.742" />
    <path
       inkscape:connector-curvature="0"
       id="path12"
       d="m 85.262,95.222 c 0,0 0.88,-5.912 0.88,-11.053 l 0,-56.094 -3.788,0 c -5.152,0 -13.126,0 -19.01,0.6 l -0.497,-13.052 61.393,0 -0.28,13.052 c -6.08,-0.6 -13.91,-0.6 -19.21,-0.6 l -4.67,0 0,56.094 c 0,5.141 1.03,11.053 1.03,11.053 z" />
    <path
       inkscape:connector-curvature="0"
       id="path14"
       d="M 180.46,9.1396 C 175.94,7.8543 170.03,6.969 165.08,6.969 c -13.48,0 -25.09,4.113 -34.8,12.767 l 0.15,-9.568 C 140.7,3.1417 152.35,0 165.08,0 c 5.58,0 10.41,0.77115 15.53,2.0849 z" />
    <path
       inkscape:connector-curvature="0"
       id="path16"
       d="m 27.032,13.938 c -15.851,0 -26.72,0.771 -26.72,0.771 6.4e-4,0 0.7175,7.854 0.7175,11.796 l 0,57.807 c 0,5.312 -1.031,10.91 -1.031,10.91 l 16,0 c 10e-4,0 -1.03,-5.598 -1.03,-11.967 l 0,-23.506 15.037,15.766 7.612,7.911 c 4.684,5.141 12.858,11.796 12.858,11.796 l 21.152,0 c 0,0 -9.454,-6.655 -13.858,-10.91 L 36.4345,63.691 c 13.127,-1.257 24.177,-10.939 24.177,-23.506 0,-13.366 -7.692,-25.219 -30.606,-26.162 -0.945,-0.028 -1.942,-0.085 -2.973,-0.085 z m 0.148,11.224 c 0.997,0 1.963,0.086 2.825,0.114 10.668,0.914 15.055,6.712 15.055,13.71 0,7.854 -6.181,13.795 -15.055,15.08 -1.145,0.143 -2.359,0.2 -3.59,0.2 l -11.447,0 0,-28.932 c 0,0 5.566,-0.172 12.212,-0.172 z" />
    <path
       inkscape:connector-curvature="0"
       id="path18"
       d="m 308.36,18.279 c 0,2.085 -0.03,6.055 -0.03,9.654 0,1.228 0.03,57.15 0.03,64.89 0,1.599 1.51,2.485 2.48,2.485 0.97,0 5.03,0.028 6.94,0.028 1.2,0 2.54,-1.085 2.54,-2.485 l 0.03,-29.417 -0.03,-21.735 c 0,-0.086 0.03,-1.371 0.03,-2.171 0,-0.428 0.4,-0.685 0.69,-0.685 0.2,0 0.31,0.057 0.51,0.2 1.66,1.399 41.53,51.209 44.73,55.179 0.71,0.886 1.46,1.114 2.11,1.114 l 6.89,0 c 0.8,0 1.17,-0.257 1.68,-0.628 0.34,-0.257 0.89,-1.114 0.89,-1.714 -0.06,-2.142 0.02,-10.053 0,-25.133 -0.09,-24.648 0,-48.211 -0.03,-49.639 0,-0.371 -0.14,-1.085 -0.66,-1.628 -0.51,-0.6 -1.23,-0.857 -1.83,-0.857 -0.94,0 -5.48,-0.029 -6.94,0 -0.6,0.029 -1.11,0.143 -1.65,0.628 -0.57,0.515 -0.89,1.143 -0.89,1.885 l 0,53.352 c 0,0.143 -0.17,0.457 -0.4,0.543 -0.37,0.114 -0.68,0.086 -0.94,-0.314 -1.17,-1.828 -42.59,-52.695 -44.76,-55.18 -0.57,-0.714 -1.28,-0.971 -2,-0.971 -0.82,0 -6.05,-0.029 -6.79,0 -0.6,0 -1.32,0.228 -1.83,0.743 -0.46,0.428 -0.77,1.056 -0.77,1.856" />
    <path
       inkscape:connector-curvature="0"
       id="path20"
       d="m 452.13,15.708 -6.57,0 c -8.91,-0.057 -24.5,0 -29.1,0.029 -9.85,0.057 -10.14,0.029 -13.88,0.029 -3.88,0 -5.26,1.77 -6.28,3.113 -1.06,1.342 -1.4,2.599 -1.4,4.969 0,5.97 -0.06,59.207 -0.06,64.291 0,3.256 2.71,7.169 7.25,7.169 3.72,0 18.51,-0.057 28.57,-0.029 7.99,0 16.7,-0.028 20.13,-0.028 1.03,0 1.66,-0.6 1.97,-0.971 0.34,-0.4 0.57,-1.029 0.57,-1.714 0,-0.8 0.03,-1.571 0.03,-2.685 l 0,-2.856 c 0,-0.685 -0.14,-1.428 -0.86,-2.085 -0.68,-0.628 -1.25,-0.657 -1.68,-0.657 -4.11,0 -8.54,-0.057 -11.88,-0.085 -3.51,-0.029 -16.91,0.057 -23.56,0.028 -5.32,0 -6.23,0.229 -7.49,-0.657 -1.28,-0.942 -0.85,-3.341 -0.85,-7.968 0,-5.912 0,-11.71 -0.03,-16.309 l 31.13,0 c 0.46,0 3.65,0.029 5.85,0 0.8,0 1.55,-0.457 1.83,-0.742 0.46,-0.514 0.63,-1.028 0.72,-1.485 0.22,-1.371 0.51,-2.799 0.71,-4.227 0.23,-1.457 0.4,-2.314 0.51,-3.113 0.12,-0.657 -0.57,-1.343 -1.25,-1.314 -0.8,0 -1.06,-0.029 -2.37,-0.029 -1.12,0 -26.59,-0.028 -37.13,-0.028 0,-6.512 -0.03,-14.566 0.03,-19.136 0,-1.086 0.42,-1.6 0.85,-1.999 0.43,-0.343 1,-0.629 1.63,-0.629 0.71,-0.028 1.4,0 2.23,0 3.28,0 8.74,-0.028 12.48,0 l 25.5,0 c 0.49,0 1.23,-0.143 1.8,-0.771 0.6,-0.628 0.6,-1.2 0.89,-2.999 0.34,-1.942 0.74,-3.97 0.97,-5.598 0.11,-0.799 -0.49,-1.542 -1.26,-1.514" />
    <path
       inkscape:connector-curvature="0"
       id="path22"
       d="m 254.58,14.709 c -22.31,0 -40.31,18.65 -40.31,41.327 0,22.678 18.03,41.042 40.34,41.042 22.33,0 40.5,-18.364 40.5,-41.042 0,-22.677 -18.2,-41.327 -40.53,-41.327 z m 0.05,11.624 c 15.48,0 27.85,12.367 27.85,29.218 0,16.594 -12.25,29.818 -27.82,29.818 -15.76,0 -27.73,-12.967 -27.73,-29.818 0,-16.994 12.02,-29.218 27.7,-29.218 z" />
  </g>
  <path
     style="fill:#ffffff;fill-opacity:1"
     inkscape:connector-curvature="0"
     id="path6-9"
     d="m 563.62991,30.021437 5.77,0 0,46.272 -7.61,0 0,-36.364 c -0.02,0.046 -0.23,0.112 -0.63,0.205 -0.37,0.093 -0.86,0.213 -1.46,0.352 -0.58,0.116 -1.21,0.254 -1.91,0.416 -0.69,0.139 -1.4,0.278 -2.12,0.417 -0.7,0.116 -1.33,0.233 -1.91,0.349 -0.56,0.116 -1.04,0.209 -1.43,0.278 l -0.59,0.104 0,-5.77 c 5.87,-1.506 9.83,-3.594 11.89,-6.259 z m -42.95,9.639 7.21,0 0,14.671 13.04,0 0,7.248 -13.04,0 0,14.714 -7.21,0 0,-14.714 -12.6,0 0,-7.248 12.6,0 z"
     sodipodi:nodetypes="ccccccccccccccccccccccccccc" />
</svg>
