<svg height="297.71" viewBox="0 0 158.75 78.768459" width="600" xmlns="http://www.w3.org/2000/svg"><g transform="translate(119.01 86.717)"><path d="m32.651-48.325c-2.601-2.6-5.906-3.979-9.559-3.979h-2.398c-2.208 0-4.351.385-6.36 1.142-.475-.688-1.018-1.338-1.603-1.93-2.6-2.6-5.9058-3.976-9.5553-3.976-1.111 0-2.229.141-3.3193.419-.59512-4.544-2.5558-8.551-5.8682-11.925l-.0275-.021c-.571-.591-1.2452-1.187-1.9744-1.768-.0619-.739-.172-1.445-.3371-2.081-.6639-2.494-1.8742-4.65-3.5982-6.415-2.769-2.827-6.322-4.3-10.281-4.248-3.859.027-7.227 1.458-9.999 4.265h.017c-.086.066-.169.141-.241.213l-.612.599-1.858 1.816-2.717 2.652-.021.024-.093.1c-.65.702-1.203 1.483-1.647 2.308-3.395-3.199-7.482-4.829-12.16-4.829h-.67c-1.184-1.662-2.611-3.117-4.29-4.297-3.089-2.215-6.545-3.343-10.26-3.343-4.912 0-9.167 1.765-12.638 5.249-.935.922-1.747 1.947-2.446 3.058-1.554-.433-3.15-.667-4.767-.667h-3.856c-6.948 0-12.982 2.511-17.942 7.478-4.95 4.946-7.47 11.003-7.47 17.996v7.581c0 4.957 1.75 9.209 5.18 12.648 3.44 3.44 7.7 5.184 12.654 5.184 4.916 0 9.143-1.744 12.59-5.184 2.098-2.101 3.567-4.523 4.406-7.22 1.087 1.806 2.411 3.488 3.963 5.022 4.994 4.898 11.02 7.382 17.907 7.382h3.845c4.874 0 9.119-1.761 12.593-5.242.478-.482.925-1.005 1.359-1.548 4.712 4.53 10.415 6.828 16.958 6.807l7.254-.01c.712 0 1.445-.066 2.177-.162-.02.244-.027.485-.027.705 0 3.626 1.362 6.904 3.935 9.484 2.6038 2.597 5.8956 3.969 9.5142 3.969 5.0048 0 9.3492-1.792 12.903-5.328l.017-.024.007-.007s.068-.079.11-.114c1.444.516 2.961.788 4.523.788 3.674 0 6.976-1.362 9.559-3.942 1.933-1.943 3.202-4.365 3.705-7.024 1.255-.636 2.418-1.465 3.419-2.463 2.593-2.603 3.976-5.919 3.976-9.589 0-3.653-1.383-6.959-3.976-9.553" fill="#88b94c"/><path d="m30.203-45.886c-1.964-1.968-4.355-2.969-7.11-2.969h-2.398c-2.906 0-5.558.785-7.904 2.305-.465-1.527-1.307-2.903-2.504-4.104-1.9713-1.96-4.3585-2.961-7.1137-2.961-2.597 0-4.8672.884-6.766 2.614.1445-.891.2133-1.789.2133-2.68v-.037c-.0103-4.833-1.7439-9.023-5.1217-12.456h-.0035c-.8633-.904-1.8434-1.716-2.8964-2.421.004-.048.028-.451.028-.451 0-.87-.11-1.723-.317-2.538-.505-1.889-1.427-3.529-2.731-4.864-2.112-2.167-4.733-3.237-7.756-3.209h-.035c-2.927.027-5.479 1.124-7.595 3.267l-5.366 5.246-.055.052c-1.052 1.138-1.702 2.459-1.943 3.938-.698.54-1.373 1.135-2.006 1.754-.622-1.032-1.365-1.998-2.239-2.872-2.807-2.814-6.215-4.231-10.147-4.231h-2.552c-1.049-1.957-2.522-3.615-4.403-4.932-2.497-1.799-5.284-2.711-8.262-2.711-3.966 0-7.396 1.421-10.206 4.235-1.434 1.437-2.518 3.092-3.22 4.922-1.957-1.008-4.113-1.514-6.425-1.514h-3.859c-5.992 0-11.2 2.171-15.5 6.46-4.29 4.283-6.46 9.518-6.46 15.558v7.581c0 4.004 1.41 7.44 4.18 10.209 2.76 2.769 6.2 4.169 10.202 4.169 3.966 0 7.382-1.4 10.144-4.169 2.807-2.807 4.237-6.246 4.237-10.209v-1.142c1.111-.217 2.178-.567 3.182-1.039.925 3.842 2.872 7.268 5.817 10.178 4.33 4.231 9.538 6.381 15.492 6.381h3.842c3.929 0 7.348-1.42 10.154-4.231 1.476-1.472 2.57-3.144 3.282-4.97.726 1.032 1.548 2.026 2.452 2.944 4.138 4.186 9.191 6.298 15.008 6.285l7.258-.021c2.996-.007 5.655-.853 7.9456-2.49-.1617.192-.3199.381-.4678.581-1.2348 1.723-1.8648 3.708-1.8648 5.903 0 2.731.988 5.101 2.9242 7.041 1.9641 1.964 4.3409 2.961 7.0721 2.961 4.0657 0 7.5949-1.458 10.481-4.341.6017-.588 1.1417-1.235 1.6307-1.909 1.596 1.032 3.425 1.562 5.448 1.562 2.779 0 5.17-.984 7.11-2.924 1.93-1.93 2.924-4.279 2.955-6.989 1.565-.468 2.975-1.304 4.169-2.498 1.971-1.974 2.972-4.375 2.972-7.151 0-2.755-1.001-5.142-2.972-7.113" fill="#cfcb3a"/><g fill="#fff"><path d="m-28.276-65.502c.038.038.076.082.076.082s6.033-.289 6.074-.295c1.301.031 2.312-.568 2.938-1.741l.01-.024.007-.01c.654-1.387.451-2.676-.591-3.739-.589-.613-1.325-.939-2.185-.991-.863-.045-1.623.224-2.27.808l-.017.018-4.516 4.351-.035.045c-.131.185-.196.385-.196.577 0 .241.1.472.292.668.135.148.279.216.413.251"/><path d="m-86.632-62.592h-3.859c-3.292 0-6.167 1.2-8.534 3.567-2.365 2.37-3.565 5.242-3.565 8.541v7.581c0 1.224.45 2.291 1.34 3.182.89.89 1.96 1.341 3.185 1.341 1.221 0 2.291-.451 3.157-1.348.86-.884 1.307-1.954 1.307-3.175v-7.581c0-.905.3-1.648.912-2.26.619-.613 1.345-.919 2.198-.919h3.859c1.225 0 2.284-.437 3.151-1.307.87-.873 1.311-1.929 1.311-3.157 0-1.218-.441-2.284-1.311-3.155-.867-.866-1.926-1.31-3.151-1.31"/><path d="m-51.559-62.592h-10.76v-3.175c0-1.225-.433-2.284-1.314-3.154-.866-.874-1.926-1.311-3.147-1.311s-2.287.437-3.185 1.304c-.884.87-1.342 1.936-1.342 3.161v14.725h-.013s.013.671.013.685v.038c.097 3.285 1.311 6.119 3.626 8.437 2.332 2.322 5.177 3.502 8.482 3.502h3.842c1.235 0 2.302-.451 3.172-1.348.856-.884 1.3-1.954 1.3-3.175 0-1.225-.444-2.284-1.314-3.154-.863-.874-1.93-1.311-3.158-1.311h-3.842c-1.978-.117-2.941-1.022-3.12-3.041v-3.254h10.76c1.221 0 2.291-.437 3.154-1.307.87-.873 1.307-1.929 1.307-3.157 0-1.218-.437-2.284-1.307-3.155-.863-.866-1.933-1.31-3.154-1.31"/><path d="m-12.871-42.193v-.615s-.052-.083-.058-.11c0-.011-.007-.592-.007-.592s-.035-.031-.059-.058v-.413s-.082-.017-.117-.031v-.141s-.065-.059-.113-.117v-.117l-.196-.2c-.399-.767-1.018-1.393-1.83-1.854-.011 0-.214-.209-.214-.209s-.065.006-.123.006c-.048-.061-.11-.12-.11-.12h-.289c-.066-.024-.124-.034-.19-.034-.068-.042-.147-.052-.23-.066 1.751-1.087 2.862-2.803 3.309-5.139.041-.038.086-.082.086-.082s-.007-.458-.007-.471c.035-.09.055-.2.055-.324v-.179l.017-.189.045-.454c-.007-2.205-.798-4.107-2.339-5.672-1.555-1.565-3.453-2.353-5.665-2.353l-3.629.011c-3.165.006-5.916 1.183-8.18 3.498-2.263 2.304-3.408 5.104-3.395 8.314 0 3.212 1.159 6.009 3.433 8.306 2.274 2.295 5.039 3.464 8.194 3.451l7.257-.011c1.462-.007 2.597-.609 3.413-1.771h.368v-.114h.058v-.175h.11v-.293h.121v-.454c0-.006 0-.006.003-.013h.162v-.637c.024-.024.062-.055.062-.055v-.464z"/></g><path d="m28.123-43.807c-1.4-1.4-3.075-2.095-5.029-2.095h-2.398c-3.243 0-6.04 1.159-8.365 3.488-1.091 1.09-1.923 2.287-2.4974 3.591-.141-.368-.3061-.733-.5022-1.08.6501-1.149.9666-2.363.9666-3.639 0-1.951-.6983-3.626-2.1017-5.019-1.3931-1.407-3.0717-2.105-5.022-2.105-1.9778 0-3.6633.698-5.0633 2.105-1.3758 1.373-2.0638 3.044-2.0638 5.019 0 1.355.3405 2.562 1.0113 3.639-.6708 1.104-1.0113 2.318-1.0113 3.643v5.025c-1.3724.478-2.5007 1.321-3.3744 2.532-.8771 1.217-1.3105 2.603-1.3105 4.182 0 1.927.6845 3.578 2.057 4.954 1.3999 1.399 3.0648 2.101 4.9876 2.101 3.278 0 6.0814-1.159 8.4032-3.491 1.4275-1.386 2.4078-2.965 2.9616-4.719.2993.512.6773 1.004 1.1313 1.458 1.376 1.379 3.069 2.06 5.064 2.06 1.977 0 3.663-.681 5.029-2.06 1.399-1.403 2.098-3.092 2.098-5.067v-2.363c1.981 0 3.653-.691 5.029-2.067 1.403-1.393 2.101-3.085 2.101-5.056 0-1.958-.698-3.629-2.101-5.036" fill="#354b7e"/><path d="m .81225-29.286c0 1.232-.57443 1.992-1.7233 2.291-.14445.052-.37835.09-.68105.114-.5985 0-1.1454.223-1.627.674-.4953.454-.7327 1.011-.7327 1.682 0 .653.2305 1.214.688 1.672.4643.467 1.0216.698 1.6717.698 1.9056 0 3.5567-.678 4.9566-2.026 1.4206-1.376 2.1499-3.013 2.1671-4.919v-7.165c0-.674-.2236-1.245-.688-1.699-.4609-.468-1.0216-.698-1.6683-.698-.626 0-1.1729.223-1.6476.674-.4781.447-.71545 1.001-.71545 1.647z" fill="#d7557f"/><path d="m18.331-34.01c0-.678.234-1.245.695-1.703.46-.471 1.021-.698 1.671-.698h2.398c.65 0 1.214-.234 1.671-.698.465-.454.695-1.012.695-1.665 0-.65-.23-1.204-.695-1.672-.457-.464-1.021-.695-1.671-.695h-2.398c-1.947 0-3.625.702-5.025 2.105-1.4 1.4-2.105 3.079-2.105 5.026v4.726c0 .65.234 1.211.715 1.689.478.478 1.042.715 1.689.715s1.204-.237 1.668-.715c.465-.478.692-1.039.692-1.689z" fill="#dde0eb"/><path d="m6.1418-39.69-2.8034-1.51-2.824 1.459.5744-3.131-2.2565-2.246 3.1508-.423 1.4241-2.841 1.3862 2.865 3.1473.489-2.308 2.198z" fill="#fff"/><path d="m-7.5222-47.749c.8015-1.913 1.2005-3.905 1.1936-5.965-.0069-4.055-1.4378-7.523-4.2794-10.409-1.204-1.245-2.524-2.218-3.962-2.934.309-1.259.34-2.576.027-3.776-.371-1.394-1.032-2.577-1.988-3.557-1.537-1.572-3.422-2.346-5.634-2.315-2.157.01-4.018.819-5.576 2.422l-5.29 5.173-.035.027c-.777.836-1.2 1.82-1.255 2.945-.014.192-.014.371 0 .554-1.097.718-2.126 1.585-3.106 2.583-1.094 1.118-2.019 2.301-2.769 3.55-.275-2.57-1.376-4.813-3.302-6.735-2.239-2.246-4.933-3.368-8.06-3.368h-4.454c-.801-2.256-2.205-4.072-4.21-5.479-2.006-1.445-4.193-2.164-6.556-2.164-3.172 0-5.879 1.121-8.121 3.371-2.195 2.195-3.299 4.871-3.313 8.021-.117-.13-.234-.261-.358-.381-2.249-2.246-4.939-3.368-8.062-3.368h-3.86c-5.204 0-9.678 1.864-13.408 5.593-3.74 3.732-5.6 8.221-5.6 13.477v7.581c0 3.209 1.1 5.916 3.31 8.125 2.21 2.201 4.92 3.312 8.124 3.312 3.165 0 5.854-1.111 8.059-3.312 2.243-2.246 3.375-4.957 3.375-8.125v-3.787c3.168 0 5.851-1.104 8.062-3.312.124-.121.241-.252.358-.375v.013c.038 5.26 1.902 9.707 5.593 13.36 3.777 3.691 8.249 5.538 13.422 5.538h3.842c3.134 0 5.823-1.131 8.07-3.374 2.242-2.25 3.364-4.933 3.364-8.063 0-2.005-.499-3.87-1.503-5.596 1.035-.671 1.926-1.469 2.696-2.394-.017.33-.027.67-.027 1.007.014 5.067 1.809 9.412 5.386 13.03 3.581 3.622 7.888 5.421 12.906 5.407l7.255-.017c3.064-.007 5.658-1.083 7.7561-3.233 2.112-2.157 3.1577-4.792 3.1542-7.908-.0103-1.796-.4127-3.505-1.2245-5.142m-76.438-7.702c-.739.746-1.637 1.118-2.672 1.118h-3.86c-1.042 0-1.929.368-2.672 1.111-.74.743-1.111 1.654-1.111 2.738v7.581c0 1.046-.372 1.95-1.118 2.711-.74.76-1.627 1.142-2.673 1.142-1.042 0-1.944-.382-2.704-1.142-.77-.761-1.15-1.665-1.15-2.711v-7.581c0-3.134 1.13-5.817 3.369-8.063 2.25-2.242 4.939-3.367 8.059-3.367h3.86c1.035 0 1.933.368 2.672 1.107.747.743 1.115 1.645 1.115 2.68 0 1.049-.368 1.936-1.115 2.676m35.079 0c-.743.746-1.627 1.118-2.677 1.118h-11.433v3.969c.203 2.37 1.472 3.55 3.794 3.55l3.842.124c1.053 0 1.94.368 2.686 1.108.74.743 1.111 1.633 1.111 2.679s-.371 1.95-1.111 2.711c-.746.76-1.633 1.142-2.686 1.142h-3.842c-3.134 0-5.799-1.105-8.008-3.313-2.205-2.205-3.347-4.877-3.433-8.001v-15.403c0-1.039.389-1.933 1.149-2.679.764-.743 1.665-1.108 2.711-1.108 1.042 0 1.929.365 2.676 1.108.743.746 1.111 1.64 1.111 2.679v3.853h11.433c1.05 0 1.934.368 2.677 1.107.746.743 1.111 1.645 1.111 2.68 0 1.049-.365 1.936-1.111 2.676m20.645-11.148c.743-.722 1.486-1.448 2.236-2.157.746-.715 1.492-1.431 2.242-2.16.496-.451 1.098-.667 1.779-.629.681.041 1.262.299 1.74.791.836.856.984 1.85.454 2.972-.509.963-1.297 1.427-2.353 1.396l-5.789.286c-.02-.021-.058-.038-.11-.038-.058 0-.117-.028-.172-.09-.12-.113-.127-.244-.027-.371m11.203 20.339c1.895 0 3.429 1.658 3.429 3.711 0 2.047-1.534 3.712-3.429 3.712l-7.447.017c-2.989.01-5.562-1.077-7.722-3.257-2.15-2.174-3.234-4.782-3.237-7.829-.01-3.037 1.063-5.652 3.209-7.839 2.136-2.195 4.702-3.289 7.698-3.299l3.633-.007c2.029-.007 3.752.712 5.173 2.15 1.434 1.441 2.146 3.175 2.146 5.201 0 .781-.165 1.517-.165 1.517-.608 3.24-2.559 5.177-5.861 5.809 0 0-.254.045-.347.055l-.396.066s3.12-.007 3.316-.007" fill="#354b7e"/><path d="m-24.512-53.673c.994 0 1.851.361 2.563 1.08.708.712 1.069 1.603 1.069 2.656 0 1.014-.351 1.878-1.059 2.603-.709.719-1.562 1.091-2.556 1.091-1.039 0-1.909-.358-2.617-1.08-.716-.716-1.074-1.583-1.077-2.594 0-1.052.347-1.943 1.056-2.669.719-.719 1.582-1.087 2.621-1.087" fill="#354b7e"/><path d="m34.858-50.531c-3.202-3.195-7.271-4.888-11.764-4.888h-2.397c-1.792 0-3.546.227-5.253.661-.178-.186-.347-.375-.512-.533-3.202-3.203-7.2647-4.895-11.757-4.895-.2717 0-.5538.007-.8359.021-1.0525-3.949-3.1026-7.506-6.1261-10.584l-.0172-.021h-.0069c-.368-.378-.7877-.774-1.2589-1.187-.0757-.437-.1582-.863-.2614-1.273 0-.003-.0104-.024-.0104-.024-.7945-3.006-2.277-5.627-4.3822-7.78-3.367-3.45-7.698-5.236-12.514-5.184h-.031c-4.612.034-8.805 1.806-12.121 5.136l-.007-.007-5.476 5.355s-.103.107-.141.141c-3.144-2.132-6.718-3.288-10.639-3.443-1.173-1.407-2.522-2.672-4.052-3.742v-.007l-.017-.014c-3.633-2.6-7.692-3.918-12.06-3.918-5.765 0-10.766 2.074-14.853 6.157-.55.561-1.08 1.163-1.572 1.775-1.162-.185-2.311-.289-3.422-.289h-3.86c-7.804 0-14.581 2.821-20.141 8.383s-8.38 12.359-8.38 20.205v7.581c0 5.81 2.05 10.811 6.09 14.853 4.05 4.045 9.04 6.098 14.854 6.098 5.765 0 10.742-2.053 14.794-6.098 1.059-1.067 1.995-2.209 2.793-3.423.378.42.77.833 1.169 1.232 5.621 5.5 12.38 8.289 20.113 8.289h3.842c5.462 0 10.229-1.878 14.195-5.582 4.819 3.728 10.44 5.62 16.731 5.606 0 0 4.623-.013 6.481-.02.526 3.44 2.129 6.563 4.643 9.112.516.516 1.325 1.544 2.277 2.211 7.9565 5.4902 20.284 1.5139 23.459-2.765 5.727 1.52 12.885-1.493 15.297-4.097 2.181-2.356 3.457-4.485 4.22-7.196 1.073-.667 2.047-1.438 2.91-2.297 3.189-3.199 4.878-7.272 4.878-11.788 0-4.5-1.689-8.565-4.878-11.761" fill="#fff"/><path d="m32.651-48.325c-2.601-2.6-5.906-3.979-9.559-3.979h-2.398c-2.208 0-4.351.385-6.36 1.142-.475-.688-1.018-1.338-1.603-1.93-2.6-2.6-5.9058-3.976-9.5553-3.976-1.111 0-2.229.141-3.3193.419-.59512-4.544-2.5558-8.551-5.8682-11.925l-.0275-.021c-.571-.591-1.2452-1.187-1.9744-1.768-.0619-.739-.172-1.445-.3371-2.081-.6639-2.494-1.8742-4.65-3.5982-6.415-2.769-2.827-6.322-4.3-10.281-4.248-3.859.027-7.227 1.458-9.999 4.265h.017c-.086.066-.169.141-.241.213l-.612.599-1.858 1.816-2.717 2.652-.021.024-.093.1c-.65.702-1.203 1.483-1.647 2.308-3.395-3.199-7.482-4.829-12.16-4.829h-.67c-1.184-1.662-2.611-3.117-4.29-4.297-3.089-2.215-6.545-3.343-10.26-3.343-4.912 0-9.167 1.765-12.638 5.249-.935.922-1.747 1.947-2.446 3.058-1.554-.433-3.15-.667-4.767-.667h-3.856c-6.948 0-12.982 2.511-17.942 7.478-4.95 4.946-7.47 11.003-7.47 17.996v7.581c0 4.957 1.75 9.209 5.18 12.648 3.44 3.44 7.7 5.184 12.654 5.184 4.916 0 9.143-1.744 12.59-5.184 2.098-2.101 3.567-4.523 4.406-7.22 1.087 1.806 2.411 3.488 3.963 5.022 4.994 4.898 11.02 7.382 17.907 7.382h3.845c4.874 0 9.119-1.761 12.593-5.242.478-.482.925-1.005 1.359-1.548 4.712 4.53 10.415 6.828 16.958 6.807l7.254-.01c.712 0 1.445-.066 2.177-.162-.02.244-.027.485-.027.705 0 3.626 1.362 6.904 3.935 9.484 2.6038 2.597 5.8956 3.969 9.5142 3.969 5.0048 0 9.3492-1.792 12.903-5.328l.017-.024.007-.007s.068-.079.11-.114c1.444.516 2.961.788 4.523.788 3.674 0 6.976-1.362 9.559-3.942 1.933-1.943 3.202-4.365 3.705-7.024 1.255-.636 2.418-1.465 3.419-2.463 2.593-2.603 3.976-5.919 3.976-9.589 0-3.653-1.383-6.959-3.976-9.553" fill="#7ac041"/><path d="m30.203-45.886c-1.964-1.968-4.355-2.969-7.11-2.969h-2.398c-2.906 0-5.558.785-7.904 2.305-.465-1.527-1.307-2.903-2.504-4.104-1.9713-1.96-4.3585-2.961-7.1137-2.961-2.597 0-4.8672.884-6.766 2.614.1445-.891.2133-1.789.2133-2.68v-.037c-.0103-4.833-1.7439-9.023-5.1217-12.456h-.0035c-.8633-.904-1.8434-1.716-2.8964-2.421.004-.048.028-.451.028-.451 0-.87-.11-1.723-.317-2.538-.505-1.889-1.427-3.529-2.731-4.864-2.112-2.167-4.733-3.237-7.756-3.209h-.035c-2.927.027-5.479 1.124-7.595 3.267l-5.366 5.246-.055.052c-1.052 1.138-1.702 2.459-1.943 3.938-.698.54-1.373 1.135-2.006 1.754-.622-1.032-1.365-1.998-2.239-2.872-2.807-2.814-6.215-4.231-10.147-4.231h-2.552c-1.049-1.957-2.522-3.615-4.403-4.932-2.497-1.799-5.284-2.711-8.262-2.711-3.966 0-7.396 1.421-10.206 4.235-1.434 1.437-2.518 3.092-3.22 4.922-1.957-1.008-4.113-1.514-6.425-1.514h-3.859c-5.992 0-11.2 2.171-15.5 6.46-4.29 4.283-6.46 9.518-6.46 15.558v7.581c0 4.004 1.41 7.44 4.18 10.209 2.76 2.769 6.2 4.169 10.202 4.169 3.966 0 7.382-1.4 10.144-4.169 2.807-2.807 4.237-6.246 4.237-10.209v-1.142c1.111-.217 2.178-.567 3.182-1.039.925 3.842 2.872 7.268 5.817 10.178 4.33 4.231 9.538 6.381 15.492 6.381h3.842c3.929 0 7.348-1.42 10.154-4.231 1.476-1.472 2.57-3.144 3.282-4.97.726 1.032 1.548 2.026 2.452 2.944 4.138 4.186 9.191 6.298 15.008 6.285l7.258-.021c2.996-.007 5.655-.853 7.9456-2.49-.1617.192-.3199.381-.4678.581-1.2348 1.723-1.8648 3.708-1.8648 5.903 0 2.731.988 5.101 2.9242 7.041 1.9641 1.964 4.3409 2.961 7.0721 2.961 4.0657 0 7.5949-1.458 10.481-4.341.6017-.588 1.1417-1.235 1.6307-1.909 1.596 1.032 3.425 1.562 5.448 1.562 2.779 0 5.17-.984 7.11-2.924 1.93-1.93 2.924-4.279 2.955-6.989 1.565-.468 2.975-1.304 4.169-2.498 1.971-1.974 2.972-4.375 2.972-7.151 0-2.755-1.001-5.142-2.972-7.113" fill="#c1d72d"/><g fill="#fff"><path d="m-28.276-65.502c.038.038.076.082.076.082s6.033-.289 6.074-.295c1.301.031 2.312-.568 2.938-1.741l.01-.024.007-.01c.654-1.387.451-2.676-.591-3.739-.589-.613-1.325-.939-2.185-.991-.863-.045-1.623.224-2.27.808l-.017.018-4.516 4.351-.035.045c-.131.185-.196.385-.196.577 0 .241.1.472.292.668.135.148.279.216.413.251"/><path d="m-86.632-62.592h-3.859c-3.292 0-6.167 1.2-8.534 3.567-2.365 2.37-3.565 5.242-3.565 8.541v7.581c0 1.224.45 2.291 1.34 3.182.89.89 1.96 1.341 3.185 1.341 1.221 0 2.291-.451 3.157-1.348.86-.884 1.307-1.954 1.307-3.175v-7.581c0-.905.3-1.648.912-2.26.619-.613 1.345-.919 2.198-.919h3.859c1.225 0 2.284-.437 3.151-1.307.87-.873 1.311-1.929 1.311-3.157 0-1.218-.441-2.284-1.311-3.155-.867-.866-1.926-1.31-3.151-1.31"/><path d="m-51.559-62.592h-10.76v-3.175c0-1.225-.433-2.284-1.314-3.154-.866-.874-1.926-1.311-3.147-1.311s-2.287.437-3.185 1.304c-.884.87-1.342 1.936-1.342 3.161v14.725h-.013s.013.671.013.685v.038c.097 3.285 1.311 6.119 3.626 8.437 2.332 2.322 5.177 3.502 8.482 3.502h3.842c1.235 0 2.302-.451 3.172-1.348.856-.884 1.3-1.954 1.3-3.175 0-1.225-.444-2.284-1.314-3.154-.863-.874-1.93-1.311-3.158-1.311h-3.842c-1.978-.117-2.941-1.022-3.12-3.041v-3.254h10.76c1.221 0 2.291-.437 3.154-1.307.87-.873 1.307-1.929 1.307-3.157 0-1.218-.437-2.284-1.307-3.155-.863-.866-1.933-1.31-3.154-1.31"/><path d="m-12.871-42.193v-.615s-.052-.083-.058-.11c0-.011-.007-.592-.007-.592s-.035-.031-.059-.058v-.413s-.082-.017-.117-.031v-.141s-.065-.059-.113-.117v-.117l-.196-.2c-.399-.767-1.018-1.393-1.83-1.854-.011 0-.214-.209-.214-.209s-.065.006-.123.006c-.048-.061-.11-.12-.11-.12h-.289c-.066-.024-.124-.034-.19-.034-.068-.042-.147-.052-.23-.066 1.751-1.087 2.862-2.803 3.309-5.139.041-.038.086-.082.086-.082s-.007-.458-.007-.471c.035-.09.055-.2.055-.324v-.179l.017-.189.045-.454c-.007-2.205-.798-4.107-2.339-5.672-1.555-1.565-3.453-2.353-5.665-2.353l-3.629.011c-3.165.006-5.916 1.183-8.18 3.498-2.263 2.304-3.408 5.104-3.395 8.314 0 3.212 1.159 6.009 3.433 8.306 2.274 2.295 5.039 3.464 8.194 3.451l7.257-.011c1.462-.007 2.597-.609 3.413-1.771h.368v-.114h.058v-.175h.11v-.293h.121v-.454c0-.006 0-.006.003-.013h.162v-.637c.024-.024.062-.055.062-.055v-.464z"/></g><path d="m28.123-43.807c-1.4-1.4-3.075-2.095-5.029-2.095h-2.398c-3.243 0-6.04 1.159-8.365 3.488-1.091 1.09-1.923 2.287-2.4974 3.591-.141-.368-.3061-.733-.5022-1.08.6501-1.149.9666-2.363.9666-3.639 0-1.951-.6983-3.626-2.1017-5.019-1.3931-1.407-3.0717-2.105-5.022-2.105-1.9778 0-3.6633.698-5.0633 2.105-1.3758 1.373-2.0638 3.044-2.0638 5.019 0 1.355.3405 2.562 1.0113 3.639-.6708 1.104-1.0113 2.318-1.0113 3.643v5.025c-1.3724.478-2.5007 1.321-3.3744 2.532-.8771 1.217-1.3105 2.603-1.3105 4.182 0 1.927.6845 3.578 2.057 4.954 1.3999 1.399 3.0648 2.101 4.9876 2.101 3.278 0 6.0814-1.159 8.4032-3.491 1.4275-1.386 2.4078-2.965 2.9616-4.719.2993.512.6773 1.004 1.1313 1.458 1.376 1.379 3.069 2.06 5.064 2.06 1.977 0 3.663-.681 5.029-2.06 1.399-1.403 2.098-3.092 2.098-5.067v-2.363c1.981 0 3.653-.691 5.029-2.067 1.403-1.393 2.101-3.085 2.101-5.056 0-1.958-.698-3.629-2.101-5.036" fill="#19388a"/><path d="m .81225-29.286c0 1.232-.57443 1.992-1.7233 2.291-.14445.052-.37835.09-.68105.114-.5985 0-1.1454.223-1.627.674-.4953.454-.7327 1.011-.7327 1.682 0 .653.2305 1.214.688 1.672.4643.467 1.0216.698 1.6717.698 1.9056 0 3.5567-.678 4.9566-2.026 1.4206-1.376 2.1499-3.013 2.1671-4.919v-7.165c0-.674-.2236-1.245-.688-1.699-.4609-.468-1.0216-.698-1.6683-.698-.626 0-1.1729.223-1.6476.674-.4781.447-.71545 1.001-.71545 1.647z" fill="#ec4f8f"/><path d="m18.331-34.01c0-.678.234-1.245.695-1.703.46-.471 1.021-.698 1.671-.698h2.398c.65 0 1.214-.234 1.671-.698.465-.454.695-1.012.695-1.665 0-.65-.23-1.204-.695-1.672-.457-.464-1.021-.695-1.671-.695h-2.398c-1.947 0-3.625.702-5.025 2.105-1.4 1.4-2.105 3.079-2.105 5.026v4.726c0 .65.234 1.211.715 1.689.478.478 1.042.715 1.689.715s1.204-.237 1.668-.715c.465-.478.692-1.039.692-1.689z" fill="#78bde6"/><path d="m6.1418-39.69-2.8034-1.51-2.824 1.459.5744-3.131-2.2565-2.246 3.1508-.423 1.4241-2.841 1.3862 2.865 3.1473.489-2.308 2.198z" fill="#ffcf3b"/><path d="m-7.5222-47.749c.8015-1.913 1.2005-3.905 1.1936-5.965-.0069-4.055-1.4378-7.523-4.2794-10.409-1.204-1.245-2.524-2.218-3.962-2.934.309-1.259.34-2.576.027-3.776-.371-1.394-1.032-2.577-1.988-3.557-1.537-1.572-3.422-2.346-5.634-2.315-2.157.01-4.018.819-5.576 2.422l-5.29 5.173-.035.027c-.777.836-1.2 1.82-1.255 2.945-.014.192-.014.371 0 .554-1.097.718-2.126 1.585-3.106 2.583-1.094 1.118-2.019 2.301-2.769 3.55-.275-2.57-1.376-4.813-3.302-6.735-2.239-2.246-4.933-3.368-8.06-3.368h-4.454c-.801-2.256-2.205-4.072-4.21-5.479-2.006-1.445-4.193-2.164-6.556-2.164-3.172 0-5.879 1.121-8.121 3.371-2.195 2.195-3.299 4.871-3.313 8.021-.117-.13-.234-.261-.358-.381-2.249-2.246-4.939-3.368-8.062-3.368h-3.86c-5.204 0-9.678 1.864-13.408 5.593-3.74 3.732-5.6 8.221-5.6 13.477v7.581c0 3.209 1.1 5.916 3.31 8.125 2.21 2.201 4.92 3.312 8.124 3.312 3.165 0 5.854-1.111 8.059-3.312 2.243-2.246 3.375-4.957 3.375-8.125v-3.787c3.168 0 5.851-1.104 8.062-3.312.124-.121.241-.252.358-.375v.013c.038 5.26 1.902 9.707 5.593 13.36 3.777 3.691 8.249 5.538 13.422 5.538h3.842c3.134 0 5.823-1.131 8.07-3.374 2.242-2.25 3.364-4.933 3.364-8.063 0-2.005-.499-3.87-1.503-5.596 1.035-.671 1.926-1.469 2.696-2.394-.017.33-.027.67-.027 1.007.014 5.067 1.809 9.412 5.386 13.03 3.581 3.622 7.888 5.421 12.906 5.407l7.255-.017c3.064-.007 5.658-1.083 7.7561-3.233 2.112-2.157 3.1577-4.792 3.1542-7.908-.0103-1.796-.4127-3.505-1.2245-5.142m-76.438-7.702c-.739.746-1.637 1.118-2.672 1.118h-3.86c-1.042 0-1.929.368-2.672 1.111-.74.743-1.111 1.654-1.111 2.738v7.581c0 1.046-.372 1.95-1.118 2.711-.74.76-1.627 1.142-2.673 1.142-1.042 0-1.944-.382-2.704-1.142-.77-.761-1.15-1.665-1.15-2.711v-7.581c0-3.134 1.13-5.817 3.369-8.063 2.25-2.242 4.939-3.367 8.059-3.367h3.86c1.035 0 1.933.368 2.672 1.107.747.743 1.115 1.645 1.115 2.68 0 1.049-.368 1.936-1.115 2.676m35.079 0c-.743.746-1.627 1.118-2.677 1.118h-11.433v3.969c.203 2.37 1.472 3.55 3.794 3.55l3.842.124c1.053 0 1.94.368 2.686 1.108.74.743 1.111 1.633 1.111 2.679s-.371 1.95-1.111 2.711c-.746.76-1.633 1.142-2.686 1.142h-3.842c-3.134 0-5.799-1.105-8.008-3.313-2.205-2.205-3.347-4.877-3.433-8.001v-15.403c0-1.039.389-1.933 1.149-2.679.764-.743 1.665-1.108 2.711-1.108 1.042 0 1.929.365 2.676 1.108.743.746 1.111 1.64 1.111 2.679v3.853h11.433c1.05 0 1.934.368 2.677 1.107.746.743 1.111 1.645 1.111 2.68 0 1.049-.365 1.936-1.111 2.676m20.645-11.148c.743-.722 1.486-1.448 2.236-2.157.746-.715 1.492-1.431 2.242-2.16.496-.451 1.098-.667 1.779-.629.681.041 1.262.299 1.74.791.836.856.984 1.85.454 2.972-.509.963-1.297 1.427-2.353 1.396l-5.789.286c-.02-.021-.058-.038-.11-.038-.058 0-.117-.028-.172-.09-.12-.113-.127-.244-.027-.371m11.203 20.339c1.895 0 3.429 1.658 3.429 3.711 0 2.047-1.534 3.712-3.429 3.712l-7.447.017c-2.989.01-5.562-1.077-7.722-3.257-2.15-2.174-3.234-4.782-3.237-7.829-.01-3.037 1.063-5.652 3.209-7.839 2.136-2.195 4.702-3.289 7.698-3.299l3.633-.007c2.029-.007 3.752.712 5.173 2.15 1.434 1.441 2.146 3.175 2.146 5.201 0 .781-.165 1.517-.165 1.517-.608 3.24-2.559 5.177-5.861 5.809 0 0-.254.045-.347.055l-.396.066s3.12-.007 3.316-.007" fill="#19388a"/><path d="m-24.512-53.673c.994 0 1.851.361 2.563 1.08.708.712 1.069 1.603 1.069 2.656 0 1.014-.351 1.878-1.059 2.603-.709.719-1.562 1.091-2.556 1.091-1.039 0-1.909-.358-2.617-1.08-.716-.716-1.074-1.583-1.077-2.594 0-1.052.347-1.943 1.056-2.669.719-.719 1.582-1.087 2.621-1.087" fill="#19388a"/></g></svg>