<?xml version="1.0" encoding="UTF-8" standalone="no"?>
<svg
   xmlns:dc="http://purl.org/dc/elements/1.1/"
   xmlns:cc="http://creativecommons.org/ns#"
   xmlns:rdf="http://www.w3.org/1999/02/22-rdf-syntax-ns#"
   xmlns:svg="http://www.w3.org/2000/svg"
   xmlns="http://www.w3.org/2000/svg"
   xmlns:sodipodi="http://sodipodi.sourceforge.net/DTD/sodipodi-0.dtd"
   xmlns:inkscape="http://www.inkscape.org/namespaces/inkscape"
   width="453.52393pt"
   height="298.05042pt"
   viewBox="0 0 453.52393 298.05042"
   version="1.1"
   id="svg2"
   inkscape:version="0.91 r13725"
   sodipodi:docname="S4C HD - Dark.svg">
  <metadata
     id="metadata26">
    <rdf:RDF>
      <cc:Work
         rdf:about="">
        <dc:format>image/svg+xml</dc:format>
        <dc:type
           rdf:resource="http://purl.org/dc/dcmitype/StillImage" />
        <dc:title></dc:title>
      </cc:Work>
    </rdf:RDF>
  </metadata>
  <defs
     id="defs24" />
  <sodipodi:namedview
     pagecolor="#ffffff"
     bordercolor="#666666"
     borderopacity="1"
     objecttolerance="10"
     gridtolerance="10"
     guidetolerance="10"
     inkscape:pageopacity="0"
     inkscape:pageshadow="2"
     inkscape:window-width="1920"
     inkscape:window-height="1017"
     id="namedview22"
     showgrid="false"
     fit-margin-top="0"
     fit-margin-left="0"
     fit-margin-right="0"
     fit-margin-bottom="0"
     inkscape:zoom="0.70710678"
     inkscape:cx="773.00816"
     inkscape:cy="593.61929"
     inkscape:window-x="-8"
     inkscape:window-y="-8"
     inkscape:window-maximized="1"
     inkscape:current-layer="svg2" />
  <g
     id="#66bbc2ff"
     transform="translate(-19.290071,-19.308447)" />
  <g
     id="#cce8ebff"
     transform="translate(-19.290071,-19.308447)" />
  <g
     id="g4161"
     transform="translate(-19.290071,-19.308447)">
    <path
       d="m 382.81,42.279653 8.82,0 c -0.06,7.36 -0.03,14.760347 -0.01,22.120347 6.9,0.02 13.8,0.04 20.7,-0.03 0.04,-7.36 0.05,-14.730347 -0.01,-22.090347 l 8.96967,0 0,53.04 -8.89967,0 C 412.33,87.769653 412.37,80.21 412.33,72.66 c -6.91,-0.03 -13.81,0 -20.71,-0.03 -0.04,7.56 0,15.139653 -0.03,22.689653 l -8.81033,0.0304 0.0303,-53.0704 z"
       id="path16"
       inkscape:connector-curvature="0"
       style="opacity:1;fill:#118e9b"
       sodipodi:nodetypes="cccccccccccccc" />
    <path
       d="m 431.61,42.28 c 6.77,0.1 13.54,-0.18 20.31,0.16 11.63,0.94 21.06,11.93 20.8,23.5 0.35,6.21 -0.15,12.73 -3.7,18.06 -3.99,7.06 -12.06,11.009653 -19.99,11.319653 l -17.43033,0 0,-53.04 m 8.80033,8.0176 c 0,12.31 -0.15,24.712747 0.09,37.022747 5.63,0 11.91,0.39 16.72,-3.08 4.98,-3.73 6.76,-10.28 6.43,-16.26 0.2,-6.09 -2.43,-12.59 -7.86,-15.74 -3.17995,-1.912085 -6.81456,-1.942747 -10.4399,-1.942747 z"
       id="path18"
       inkscape:connector-curvature="0"
       style="opacity:1;fill:#118e9b"
       sodipodi:nodetypes="ccccccccccccsc" />
  </g>
  <g
     id="g4139"
     transform="matrix(1.4164377,0,0,1.4164377,-371.10668,-625.97998)">
    <path
       sodipodi:nodetypes="ccccc"
       inkscape:connector-curvature="0"
       id="path3027"
       d="m 262,652.36218 0,-210.42253 249,0 -43.83803,210.42253 z"
       style="fill:#118e9b;fill-opacity:1;fill-rule:evenodd;stroke:none" />
    <g
       style="fill:#ffffff"
       transform="matrix(1.3136566,0,0,1.3136566,-63.737189,45.967051)"
       id="g3022">
      <path
         style="fill:#ffffff;stroke:none"
         d="m 275.58036,396.51396 -4.73214,7.63393 c 0,0 7.04664,4.82143 15.58035,4.82143 10.02242,0 17.63393,-6.88695 17.63393,-15.625 0,-17.87779 -21.33928,-14.47249 -21.33928,-24.0625 0,-4.77705 3.4437,-6.96428 7.76785,-6.96428 5.1424,0 9.28572,3.88393 9.28572,3.88393 l 4.375,-8.52679 c 0,0 -6.25973,-4.28571 -14.64286,-4.28571 -9.59544,0 -17.72321,6.12546 -17.72321,16.74107 0,16.80543 21.5625,13.70827 21.5625,23.52678 0,4.211 -3.02681,6.51786 -8.08036,6.51786 -4.99652,0 -9.6875,-3.66072 -9.6875,-3.66072 z"
         id="path2998"
         inkscape:connector-curvature="0"
         sodipodi:nodetypes="ccccccccccccc" />
      <path
         inkscape:connector-curvature="0"
         style="fill:#ffffff;stroke:none"
         d="m 340.5,355.375 -9.90625,0.0625 -24,33.15625 2.6875,7.78125 21.21875,0 0,11 10,0 0,-11 4.5,0 0,-9 -4.5,0 0,-32 z m -10,13.21875 0,18.78125 -12.8125,0 12.8125,-18.78125 z"
         id="path3000" />
      <path
         style="fill:#ffffff;stroke:none"
         d="m 388.25893,396.02606 4.73214,7.58612 c -4.40342,3.35114 -9.33888,5.08929 -17.54464,5.08929 -15.57406,0 -27.00893,-10.22841 -27.00893,-27.1875 0,-17.40635 11.00243,-27.94643 26.69643,-27.94643 11.54098,0 18.03571,6.38393 18.03571,6.38393 l -5.08928,7.58928 c 0,0 -4.97717,-4.55357 -12.58929,-4.55357 -6.63583,0 -16.29464,4.51971 -16.29464,18.125 0,10.18256 6.83855,18.39286 17.00893,18.39286 8.30106,0 12.05357,-3.47898 12.05357,-3.47898 z"
         id="path3002"
         inkscape:connector-curvature="0"
         sodipodi:nodetypes="ccccccccccc" />
    </g>
  </g>
</svg>
