<svg height="298.05042pt" viewBox="0 0 453.52393 298.05042" width="453.52393pt" xmlns="http://www.w3.org/2000/svg"><g transform="translate(-19.290071 -19.308447)"><path d="m382.81 42.279653h8.82c-.06 7.36-.03 14.760347-.01 22.120347 6.9.02 13.8.04 20.7-.03.04-7.36.05-14.730347-.01-22.090347h8.96967v53.04h-8.89967c-.05-7.55-.01-15.109653-.05-22.659653-6.91-.03-13.81 0-20.71-.03-.04 7.56 0 15.139653-.03 22.689653l-8.81033.0304.0303-53.0704z" fill="#fff"/><path d="m431.61 42.28c6.77.1 13.54-.18 20.31.16 11.63.94 21.06 11.93 20.8 23.5.35 6.21-.15 12.73-3.7 18.06-3.99 7.06-12.06 11.009653-19.99 11.319653h-17.43033v-53.04m8.80033 8.0176c0 12.31-.15 24.712747.09 37.022747 5.63 0 11.91.39 16.72-3.08 4.98-3.73 6.76-10.28 6.43-16.26.2-6.09-2.43-12.59-7.86-15.74-3.17995-1.912085-6.81456-1.942747-10.4399-1.942747z" fill="#fff"/></g><g transform="matrix(1.4164377 0 0 1.4164377 -371.10668 -625.97998)"><path d="m262 652.36218v-210.42253h249l-43.83803 210.42253z" fill="#118e9b" fill-rule="evenodd"/><g fill="#fff" transform="matrix(1.3136566 0 0 1.3136566 -63.737189 45.967051)"><path d="m275.58036 396.51396-4.73214 7.63393s7.04664 4.82143 15.58035 4.82143c10.02242 0 17.63393-6.88695 17.63393-15.625 0-17.87779-21.33928-14.47249-21.33928-24.0625 0-4.77705 3.4437-6.96428 7.76785-6.96428 5.1424 0 9.28572 3.88393 9.28572 3.88393l4.375-8.52679s-6.25973-4.28571-14.64286-4.28571c-9.59544 0-17.72321 6.12546-17.72321 16.74107 0 16.80543 21.5625 13.70827 21.5625 23.52678 0 4.211-3.02681 6.51786-8.08036 6.51786-4.99652 0-9.6875-3.66072-9.6875-3.66072z"/><path d="m340.5 355.375-9.90625.0625-24 33.15625 2.6875 7.78125h21.21875v11h10v-11h4.5v-9h-4.5zm-10 13.21875v18.78125h-12.8125z"/><path d="m388.25893 396.02606 4.73214 7.58612c-4.40342 3.35114-9.33888 5.08929-17.54464 5.08929-15.57406 0-27.00893-10.22841-27.00893-27.1875 0-17.40635 11.00243-27.94643 26.69643-27.94643 11.54098 0 18.03571 6.38393 18.03571 6.38393l-5.08928 7.58928s-4.97717-4.55357-12.58929-4.55357c-6.63583 0-16.29464 4.51971-16.29464 18.125 0 10.18256 6.83855 18.39286 17.00893 18.39286 8.30106 0 12.05357-3.47898 12.05357-3.47898z"/></g></g></svg>