<svg height="89.998428" viewBox="0 0 199.9875 84.373528" width="213.31999" xmlns="http://www.w3.org/2000/svg"><g fill="#fff" transform="matrix(0 1.25 1.25 0 -840.41997 -31.067277)"><path d="m42.991377 716.61281h36.034343c8.078228 0 12.253492 4.53833 12.253492 13.25192v24.32546h-9.89356v-18.97023c0-3.26759-1.724565-4.99216-4.81063-4.99216h-4.992163v20.87632h-9.712028v-20.87632h-8.985894v23.05472h-9.89356z"/><path d="m91.551513 672.95558c.363066 4.53833.726133 10.43816.726133 15.79339 0 7.62439-.726133 11.70889-2.632232 15.24879-2.541465 4.71986-7.079795 7.26133-13.342691 7.26133-8.350528 0-12.616559-4.0845-14.704191-14.25036-.09077-.63537-.363066-1.3615-.453833-2.08763-1.089199-5.89983-1.633799-8.53206-5.08293-8.53206-3.902964 0-4.175264 4.26603-4.175264 9.25819 0 4.6291.635367 8.9859 1.0892 13.07039l-9.893561-.18153c-.09077-1.17997-1.089199-7.62439-1.089199-14.34112 0-3.63067 0-7.80593 1.361499-11.89043 1.996866-6.35366 6.807496-9.89356 14.068824-9.89356 7.987462 0 11.799659 3.99373 14.250358 14.70419 1.815332 7.98746 2.359932 10.16586 5.809063 10.16586 4.26603 0 4.629097-4.53833 4.629097-10.71046 0-4.26603-.363067-8.80436-.998433-13.61499z"/><path d="m91.551513 760.18229c.363066 4.44756.726133 10.34739.726133 15.88416 0 7.53362-.726133 11.61812-2.632232 15.06725-2.541465 4.81063-7.079795 7.26133-13.342691 7.26133-8.350528 0-12.616559-4.0845-14.704191-14.06882-.09077-.8169-.363066-1.54303-.453833-2.26917-1.089199-5.80906-1.633799-8.53206-5.08293-8.53206-3.902964 0-4.175264 4.44757-4.175264 9.34896 0 4.71987.635367 8.9859 1.0892 13.07039l-9.893561-.0908c-.09077-1.17997-1.089199-7.80593-1.089199-14.52266 0-3.63066 0-7.80593 1.361499-11.79966 1.996866-6.35366 6.807496-9.80279 14.068824-9.80279 7.987462 0 11.799659 3.99373 14.250358 14.61342 1.815332 8.07823 2.359932 10.25663 5.809063 10.25663 4.26603 0 4.629097-4.71987 4.629097-10.71046 0-4.3568-.363067-8.9859-.998433-13.70576h10.43816"/><path d="m24.928822 817.27449 28.591482 14.97649c-1.543033-4.71986-2.450699-9.71203-2.450699-14.97649 0-5.35523.907666-10.34739 2.450699-15.06726z"/></g></svg>