<svg height="461.8526pt" viewBox="0 0 975.22028 461.8526" width="975.22028pt" xmlns="http://www.w3.org/2000/svg"><g fill="#01bcb5" transform="translate(-13.810553 -13.256849)"><path d="m239.68 17.8c11.97-4.11 25.1-6.16 37.55-3.01 18.55 4.52 35.09 16.29 46.3 31.65 1.29 2.23 4.38 5.25 1.74 7.63-7.96 8.08-16.32 15.77-24.32 23.8-3.88 3.86-9.6 5.02-14.89 4.46-4.98-.61-10.27-1.76-14.05-5.31-5.64-4.37-9.02-11.18-15.29-14.79-6.76-3.48-14.91-2.87-21.84-.2-6.28 2.97-11.73 7.41-16.85 12.04-8.45 8.17-16.02 18.16-17.97 30.04-.96 4.74.03 9.61 1.71 14.07 5.53 14.3 15 26.54 22.03 40.06 6.15 11.71 12.67 24.21 12.01 37.84-.62 14.66-9.72 27.88-21.77 35.79-14.33 9.56-31.98 13.07-49.01 12.48-16.53-.76-32.07-8.39-44.57-18.92-5.12-4.16-7-11.08-6.75-17.44.28-.41.84-1.24 1.13-1.65 13.2 11.25 30.77 17.58 48.16 16.37 5.07-.17 10.1-.82 15.12-1.51 8.36-.88 16.25-4.99 22.21-10.84 5.96-5.91 9-15.23 5.83-23.27-4.8-12.95-13.42-23.97-20.95-35.4-9.52-13.54-18.71-28-21.72-44.55-2.28-11.47-.41-23.56 4.72-34.02 5.6-11.65 14.65-21.25 24.52-29.41 14.04-11.2 29.98-20.03 46.95-25.91z"/><path d="m649.47 48.59c1.97-.92 4.08.11 5.98.72 6.68 2.53 13.37 5.74 18.36 10.99 1.43 1.36 1.15 3.8-.35 5-7.99 8.08-16.44 15.69-24.45 23.74-4.99 4.78-12.59 4.98-18.94 3.43-2.84-.81-5.98-1.39-8.2-3.47-.88-2.33.47-4.64 1.4-6.71 4.78-9.73 11.1-18.67 18.25-26.8 2.45-2.49 4.69-5.43 7.95-6.9z"/><path d="m568.4 113.33c1.84-1.18 3.42-3.47 5.91-2.84-1.87 5.5-2.91 11.55-6.78 16.09-5.18 6.41-11.24 12.02-16.81 18.07-22.18 23.11-41.84 48.47-60.86 74.21-5 6.48-10.57 13.7-18.91 15.78-7.82 1.39-15.43-2.18-22.9-4.03-3.91-.8-5.12-5.18-5-8.65.16-14.14 3.4-28 6.2-41.8-11.87 15.24-22.76 31.2-33.98 46.9-5.16 6.73-12.34 13.4-21.29 13.63-7.23-.02-11.79-6.54-16.44-11.15-4.44-4.25-7.9-10.26-6.47-16.61 2.95-15.8 10.43-30.25 16.97-44.79 8.05-17.66 17.4-34.95 22.33-53.83.52-1.96 2.65-3.36 4.64-2.52 7.26 2.68 15.27 3.24 22.05 7.17 3.71 2.01 5.61 6.19 6.24 10.21.94 6.75-.3 13.58-2.06 20.09-3.49 11.42-7.78 22.56-11.96 33.72 16.22-14.32 31.03-30.23 44.72-46.97 2.01-2.44 5.44-1.74 8.16-1.32 5.81 1.14 11.71 1.94 17.4 3.66 2.05.44 2.49 2.86 2.41 4.63-.17 5.4-3.05 10.14-5.14 14.97-5.1 11.1-9.48 22.52-13.26 34.13 26-28.56 54.23-55.16 84.83-78.75z"/><path d="m684.25 113.34c1.42-2.88 5.06-2.26 7.66-1.84 7.03 1.54 13.46 5.14 19.2 9.41 3.97 3.03 7.85 6.59 9.81 11.29 1.31 3.1.55 6.48.1 9.67 8.8-4.64 17.73-9.08 27.07-12.53 4.78-1.63 9.83-3.38 14.95-2.44 6.87 1.18 12.87 5.78 16.64 11.52 3.85 6.1.89 13.43-1.88 19.33-8.7 17.74-21.39 33.2-29.82 51.09-1 2.36-2.21 4.7-2.46 7.28 16.23-4.06 29.48-15.26 40.64-27.24 3.57-15.43 12.62-28.98 23.38-40.35 13.38-14.26 30.87-24.37 49.55-29.91 10.92-3.25 22.43-4.9 33.83-3.92 3.81.46 8.2 1.44 10.4 4.93 1.52 2.73 1.83 5.93 3.27 8.7 9.53 1.03 19.69 3.49 26.85 10.24 3.82 3.45 2.95 8.93.9 13.08-8.38 20.13-19.79 38.83-31.48 57.18-4.03 6.69-9.04 12.81-12.75 19.66 15.51-1.77 31.31-2.05 46.82.02 1.59891.26058 2.16989 1.40278 2.04005 2.55116-.4987 2.48607-1.90566 3.46322-3.44263 4.56143-1.47786.9664-3.27704 1.47537-5.04742 1.66741-17.37 1.35-34.71 3.3-51.89 6.17-6 8.29-12.49 16.21-19.09 24.01-3.27 3.51-6.07 7.46-9.74 10.56-.13-.6-19.79625.0381-19.92625-.56188-15.09-.42-10.79375-1.84812-25.88375-2.03812 6.12-6.94 12.67-13.54 18.14-21.02-18.41 5.23-37.01 10.97-53.47 20.95-10.18 5.54-19.48 13.39-25.37 23.48-3.31 5.38-5.51 11.52-5.98 17.84 2.02-.57 4.04-1.13 6.07-1.67.01 7.66.02 15.32 0 22.97-6.86-.56-13.54-2.66-19.7-5.67-11.55-5.31-16.98-19.66-14.01-31.65 1.99-9.8 7.8-18.44 14.99-25.22 12.01-11.55 27.71-18.06 43.24-23.39 22.01-7.41 44.89-11.72 67.71-15.78 1.22-.11 1.86-1.28 2.57-2.12 5.04-6.88 10.07-13.77 14.69-20.94-8.28 5.9-16.87 11.7-26.68 14.73-6.51 2-13.88 1.19-19.62-2.52-3.06-1.94-6.42-3.39-9.26-5.65-5.46-4.08-9.23-10.12-11.08-16.62-10.6 11.57-22.56 22.37-36.79 29.25-8.57 4.06-19.11 6.38-27.96 1.85-7.13-3.73-12.86-9.94-16.61-17-3.46-6.61-3.17-14.74.12-21.35 8.46-17.65 23.4-30.89 34.07-47.05-8.42 5.06-15.94 11.49-23.71 17.48-7.59 6.03-15.03 12.26-22.38 18.57-2.65 2.12-4.19 5.2-6.11 7.93-7.27 10.67-14.43 21.44-22.23 31.74-4.09 5.18-8.13 10.56-13.42 14.6-3.96 3.1-9.38.91-13.38-.98-9.64-5.15-19.49-14.36-18.1-26.32-10.48 10.11-21.77 19.89-35.27 25.71-8.48 3.7-18.86 4.11-26.83-1.06-5.87-4-11.63-8.42-15.99-14.09-2.74-3.5-4.18-8-3.7-12.45.7-6.81 3.82-13.03 6.93-19.03 8.26-15.06 18.05-29.22 27.84-43.31 7.34-10.25 14.52-20.65 22.78-30.2 2.29-2.89 6.3-1.91 9.5-1.9 7.28.66 15.24 1.58 21.08 6.41 3.73 2.94 4.31 8.28 2.71 12.51-3.01 8.71-8.32 16.36-13.4 23.97-9.23 13.17-18.53 26.33-26.82 40.13-3.83 6.56-7.49 13.27-10.11 20.42 12.84-.67 24.38-7.66 34.16-15.54 16.41-13.34 28.74-30.71 41.37-47.45 10.38-14.01 21.04-27.86 30.31-42.65m164.49 54.33c-11.16 11.47-21.44 24.53-26.45 39.94 21.09-5.41 39.28-18.72 53.93-34.48.77-.84 1.43-1.79 1.96-2.82 4.9-9.51 9.48-19.19 13.72-29.02-16.85 3.67-31.03 14.59-43.16 26.38z"/><path d="m298.6 128.61c13-7.93 27.72-14.97 43.33-14.06 9.65.64 16.35 8.53 21.49 15.9 4.94 5.03 10.74 10.19 11.8 17.58 1.63 8.44-4.3 15.71-9.97 21.17-17.33 15.9-39.45 25.19-61.45 32.68-3.36 1.26-6.95 1.89-10.15 3.54-.23 3.98-.84 7.97-.29 11.95 18.98 5.1 39.59-1.34 54.72-13.24.76-.67 1.65-1.03 2.68-1.08.77 6.86-1.21 14.48-6.77 18.94-11.67 9.71-25.88 16.93-41.13 18.46-9.15.67-18.84.21-27.06-4.29-10.76-5.85-19.25-15.59-24.23-26.72-3.74-9.13-1.62-19.38 1.55-28.35 8.22-22.28 25.84-39.8 45.48-52.48m45.28 16.19c-18.85 9.53-34.31 25.45-43.98 44.16 11.09-4.45 21.91-9.71 31.97-16.17 7.32-5.17 14.88-10.55 19.8-18.2 2.6-3.93 3.67-8.63 3.83-13.29-4.15-.46-7.91 1.98-11.62 3.5z"/><path d="m773.1 301.05c1.34-.83 2.67-1.68 4.06-2.45 17.24-.06 34.48-.1 51.71.02-.34 1.54-1.85 2.28-2.87 3.32-15.55 13.49-33.09 25.42-52.9 31.54.02-10.81.02-21.62 0-32.43z"/></g><g fill="#172331" transform="translate(-13.810553 -13.256849)"><path d="m54.64 280.5c15.77-8.05 34.22-9.8 51.56-6.99 16.57 2.7 32.27 11.1 43.15 23.98 14.41 16.79 20.29 39.68 18.77 61.49-.95 14.34-5.93 28.38-14.41 40 12.23 24.06 35.32 41.85 61.33 48.64 20.06 5.19 42.07 5.56 61.51-2.28 18.3-7.44 31.81-23.55 39.4-41.44 15.95-42.08 31.91-84.17 47.84-126.26.34-1.04.97-2.36 2.31-2.14 9.31-.1 18.63.01 27.95-.05 1.25-.08 2.89.09 3.14 1.65 18.55 50.01 36.87 100.12 55.47 150.12-.56 1.07-1.42 1.59-2.58 1.54-9.36.02-18.73.06-28.09-.01-1.4.14-2.18-1.23-2.48-2.36-4.66-13.02-9.45-25.98-14.06-39.01-18.86-.17-37.72.03-56.58-.11-5.25 12.53-8.56 25.85-14.93 37.89-9.46 18.49-25.53 33.5-44.84 41.23-21.49 8.58-45.4 10.54-68.2 7.14-34.71-5.39-65.73-26.47-86.29-54.57-13.17 9.27-29.67 12.92-45.6 12.57-17.35-.24-34.81-6.05-48.07-17.39-12.21-10.26-20.69-24.63-24.46-40.07-5.29-21.23-2.73-44.5 7.79-63.76 6.88-12.64 17.48-23.32 30.37-29.81m7.98 26.09c-12.13 10.03-17.76 26.02-18.36 41.4-.76 14.29 3.09 29.15 12.43 40.22-.21-9.27 3.87-18.54 11.13-24.37 6.38-5.35 14.91-7.65 23.15-7.08 15.95.1 31.57 6.34 43.51 16.84 6-16.44 5.08-35.32-2.24-51.19-5.25-11.21-15.25-20.25-27.25-23.59-14.26-4.06-30.79-1.91-42.37 7.77m314.56.18-21.42 59.95 43.21.01zm-302.5 76.89c-5.26 5.49-4.88 14.98.35 20.36 4.09 4.22 10.22 5.51 15.9 5.49 11.25-.15 22.7-3.51 31.55-10.64-6.65-10.62-18.16-17.99-30.49-19.96-6.05-1.07-13 .01-17.31 4.75z"/><path d="m185.45 275.46975h25.47c1.51247 0 2.45-.093 2.45 2.48025.02 31.32.01 62.65.01 93.98.02 4.62-.23 9.32.88 13.85 1.88 8.67 7.88 16.39 16.03 20.01 13.18 5.93 31.05 3.54 39.96-8.59 4.1-5.49 5.89-12.43 5.93-19.21.02-33.32-.01-66.63.01-99.95 0-2.19665.15786-2.57025 1.93-2.57025 7.4009.0102 15.16754-.008 22.44159 0 2.00453 0 2.36841 1.05901 2.36841 2.57025-.04 31.97 0 66.93-.02 98.91 0 8.15-1.62 16.36-5.11 23.75-5.07 10.96-14.29 19.77-25.23 24.79-14.76 6.9-31.89 7.2-47.57 3.59-14.56-3.35-28.33-12.25-35.26-25.77-4.12-7.77-5.99-16.59-6.08-25.34-.03-32.98.03-66.95-.03-99.93 0-1.4322.01-2.57025 1.82-2.57025z"/><path d="m467.92 277.9c-.27-1.33.81-2.66 2.2-2.41 15.94-.06 31.9-.01 47.85-.02 7.99.05 16.1-.42 23.95 1.38 10.67 2.19 20.85 7.8 27.53 16.53 9.6 12.46 11.15 30.34 4.54 44.51-5.52 12.11-17.15 20.84-30.03 23.74 11.88 17.22 24.2 34.13 36.23 51.25 3.09 4.77 7.06 9.09 9.6 14.15-.22.39-.66 1.19-.88 1.58-8.61.41-17.25.03-25.88.19-2.07-.07-4.89.48-6-1.81-13.09-19.26-26.38-38.39-39.35-57.73-7.03-.28-14.06-.07-21.09-.12.01 18.97.01 37.94 0 56.91.04 1.02-.12 2.86-1.61 2.67-8.32.13-16.65.06-24.98.03-1.55.26-2.3-1.42-2.09-2.71.01-49.38-.02-98.76.01-148.14m28.6 19.53c.16 17.39.06 34.78.04 52.17 7.82.12 15.64.03 23.46.05 7.11.05 14.54-1.93 19.79-6.93 11-10.76 10.31-31.98-2.8-40.81-4.98-3.34-11.08-4.66-17.02-4.59-7.82.06-15.65-.14-23.47.11z"/><path d="m591.04 277.86c-.31-1.68 1.46-2.66 2.91-2.39 43.56-.02 87.11.03 130.67-.03-7.19 6.78-13 15.42975-14.99 25.22975h-34.15976v125.39999c.0777 1.54148-.24496 2.36636-1.71024 2.7h-25.76c-1.65.28-3.04026-1.05-2.69026-2.7v-125.39999h-52.25974c-1.43.13-2.24-1.36975-2.01-2.61975-.01-6.73-.03-13.46 0-20.19z"/><path d="m743.24999 298.84c5.89-10.09 15.19001-17.94 25.37001-23.48l79.26999.07c2.20446 0 1.89 1.64138 1.89 2.6v18.09c.13 1.19-.49 2.59975-1.89 2.41975h-74.79v42.34025l44.04001.04c1.83953 0 1.88999-.34789 1.88999 3.02v17.88c0 .78576-.16178 1-1.14999 1l-44.78001.11v42.94c25.99.01 51.96001 0 77.95001.01 1.36-.29 2.82999.74 2.56999 2.23v18.87c.16 1.42-1.46999 1.93-2.58999 1.79-35.04.02-70.07.01-105.1.01-1.17.14-2.90001-.46-2.68001-1.89z"/><path d="m867.19 277.95c-.19-1.15.59-2.59 1.9-2.45 19.98-.07 39.96-.04 59.94-.01 13.91.15 28.42 4.97 37.81 15.63 12.98 14.35 13.89 37.72 2.61 53.32-6.19 8.84-15.93 14.82-26.37 17.25 15.18 21.21 30.23 42.51 45.32 63.79 1.26 1.15.54 3.6-1.34 3.28-8.69.07-17.37-.02-26.06.04-1.54-.03-3.47.15-4.38-1.37-13.31-19.42-26.56-38.88-39.87-58.3-6.96.01-13.92-.01-20.88.01-.03 19.28.07 38.58-.04 57.86.13 1.58-1.51 1.92-2.71 1.78-8.02-.03-16.04.07-24.05-.04-1.47.16-2.06-1.5-1.88-2.67-.01-49.37-.01-98.75 0-148.12m28.78 19.34c-.14 17.46-.21 34.94.04 52.41 7.99-.12 15.99.01 24-.07 6.55-.05 13.33-1.88 18.36-6.25 9.12-8.04 10.57-22.53 5.38-33.12-4.01-8.04-12.97-12.52-21.7-12.86-8.7-.2-17.39 0-26.08-.11z"/></g></svg>