<?xml version="1.0" encoding="UTF-8" standalone="no"?>
<svg
   xmlns:dc="http://purl.org/dc/elements/1.1/"
   xmlns:cc="http://creativecommons.org/ns#"
   xmlns:rdf="http://www.w3.org/1999/02/22-rdf-syntax-ns#"
   xmlns:svg="http://www.w3.org/2000/svg"
   xmlns="http://www.w3.org/2000/svg"
   xmlns:xlink="http://www.w3.org/1999/xlink"
   xmlns:sodipodi="http://sodipodi.sourceforge.net/DTD/sodipodi-0.dtd"
   xmlns:inkscape="http://www.inkscape.org/namespaces/inkscape"
   width="1733pt"
   height="276pt"
   viewBox="0 0 1733 276"
   version="1.1"
   id="svg2"
   inkscape:version="0.91 r13725"
   sodipodi:docname="Showcase - Dark.svg">
  <metadata
     id="metadata30">
    <rdf:RDF>
      <cc:Work
         rdf:about="">
        <dc:format>image/svg+xml</dc:format>
        <dc:type
           rdf:resource="http://purl.org/dc/dcmitype/StillImage" />
        <dc:title></dc:title>
      </cc:Work>
    </rdf:RDF>
  </metadata>
  <defs
     id="defs28">
    <linearGradient
       inkscape:collect="always"
       id="linearGradient4198">
      <stop
         style="stop-color:#1f534f;stop-opacity:1"
         offset="0"
         id="stop4200" />
      <stop
         style="stop-color:#183e45;stop-opacity:1"
         offset="1"
         id="stop4202" />
    </linearGradient>
    <linearGradient
       inkscape:collect="always"
       xlink:href="#linearGradient4198"
       id="linearGradient4204"
       x1="0"
       y1="138"
       x2="1403.4683"
       y2="138"
       gradientUnits="userSpaceOnUse" />
    <linearGradient
       inkscape:collect="always"
       xlink:href="#linearGradient4198"
       id="linearGradient4214"
       gradientUnits="userSpaceOnUse"
       x1="0"
       y1="138"
       x2="1403.4683"
       y2="138" />
    <linearGradient
       inkscape:collect="always"
       xlink:href="#linearGradient4198"
       id="linearGradient4216"
       gradientUnits="userSpaceOnUse"
       x1="0"
       y1="138"
       x2="1403.4683"
       y2="138" />
    <linearGradient
       inkscape:collect="always"
       xlink:href="#linearGradient4198"
       id="linearGradient4218"
       gradientUnits="userSpaceOnUse"
       x1="0"
       y1="138"
       x2="1403.4683"
       y2="138" />
    <linearGradient
       inkscape:collect="always"
       xlink:href="#linearGradient4198"
       id="linearGradient4220"
       gradientUnits="userSpaceOnUse"
       x1="0"
       y1="138"
       x2="1403.4683"
       y2="138" />
    <linearGradient
       inkscape:collect="always"
       xlink:href="#linearGradient4198"
       id="linearGradient4222"
       gradientUnits="userSpaceOnUse"
       x1="0"
       y1="138"
       x2="1403.4683"
       y2="138" />
    <linearGradient
       inkscape:collect="always"
       xlink:href="#linearGradient4198"
       id="linearGradient4224"
       gradientUnits="userSpaceOnUse"
       x1="0"
       y1="138"
       x2="1403.4683"
       y2="138" />
    <linearGradient
       inkscape:collect="always"
       xlink:href="#linearGradient4198"
       id="linearGradient4226"
       gradientUnits="userSpaceOnUse"
       x1="0"
       y1="138"
       x2="1403.4683"
       y2="138" />
    <linearGradient
       inkscape:collect="always"
       xlink:href="#linearGradient4198"
       id="linearGradient4228"
       gradientUnits="userSpaceOnUse"
       x1="0"
       y1="138"
       x2="1403.4683"
       y2="138" />
  </defs>
  <sodipodi:namedview
     pagecolor="#ffffff"
     bordercolor="#666666"
     borderopacity="1"
     objecttolerance="10"
     gridtolerance="10"
     guidetolerance="10"
     inkscape:pageopacity="0"
     inkscape:pageshadow="2"
     inkscape:window-width="1920"
     inkscape:window-height="1017"
     id="namedview26"
     showgrid="false"
     fit-margin-top="0"
     fit-margin-left="0"
     fit-margin-right="0"
     fit-margin-bottom="0"
     inkscape:zoom="0.37603555"
     inkscape:cx="927.09718"
     inkscape:cy="182.156"
     inkscape:window-x="-8"
     inkscape:window-y="-8"
     inkscape:window-maximized="1"
     inkscape:current-layer="svg2" />
  <g
     id="g4188"
     style="fill:url(#linearGradient4204);fill-opacity:1">
    <path
       d="m 195.45,0 1.2,0 c -0.03,35.99 -0.03,71.99 0,107.98 18.38,-6.13 38.28,-7.32 57.31,-3.86 16.51,3.01 32.33,12.26 41.17,26.8 9.11,14.63 11.31,32.19 12.14,49.06 0.01,30.44 0.03,60.89 -0.01,91.33 -14.18,-0.03 -28.37,0.02 -42.55,-0.02 -0.03,-26.45 0,-52.9 -0.02,-79.35 -0.22,-11.88 -0.48,-24.21 -5.19,-35.31 -2.91,-7.32 -8.95,-13.34 -16.57,-15.6 -15.19,-4.7 -31.41,-1.57 -46.32,2.68 0.02,42.54 0.06,85.08 -0.02,127.62 -14.06,-0.03 -28.12,-0.04 -42.18,0 C 154.29,183.15 154.33,94.97 154.39,6.78 168.06,4.42 181.78,2.34 195.45,0 Z"
       id="path5"
       inkscape:connector-curvature="0"
       style="opacity:1;fill:url(#linearGradient4214);fill-opacity:1" />
    <path
       d="M 20.79,111.77 C 34.96,99.99 54.01,96 72.05,96.2 c 18.21,-0.43 36.3,3.12 53.61,8.57 -2.57,11.47 -5.15,22.93 -7.62,34.42 -11.3,-4.05 -22.97,-7.59 -35.05,-8.02 -11.27,-0.89 -23.74,-0.37 -33.09,6.76 -6.36,4.89 -4.76,15.39 1.55,19.61 9.99,7.05 22.31,9.26 33.52,13.66 13.3,4.92 27.29,10.05 37.51,20.28 10.24,9.97 13.06,25.2 11.65,38.93 -0.98,10.32 -5.55,20.41 -13.45,27.26 -11.9,10.89 -28.04,15.29 -43.7,17.12 C 51.05,277.94 24.36,274.68 0,265.22 l 0,-1.55 c 2.76,-11.33 4.59,-22.86 7.31,-34.19 14.82,6.13 30.62,10.4 46.72,10.84 9.11,0.13 18.46,0.31 27.2,-2.61 4.24,-1.52 8.78,-4.18 10.03,-8.81 0.8,-3.74 1.06,-8.37 -2.02,-11.19 -4.72,-4.6 -10.68,-7.69 -16.67,-10.3 C 61.63,202.72 50.22,199.24 39.14,194.93 29.38,190.7 19.63,185.46 12.85,177.03 4.22,166.51 2.16,152 4.45,138.9 6.09,128.16 12.33,118.45 20.79,111.77 Z"
       id="path7"
       inkscape:connector-curvature="0"
       style="opacity:1;fill:url(#linearGradient4216);fill-opacity:1" />
    <path
       d="m 357.67,115.64 c 14.72,-11.86 33.61,-18.06 52.41,-18.6 20.08,-0.96 40.82,3.76 57.45,15.35 13.79,9.51 23.83,23.8 29.48,39.47 6.22,17.88 6.95,37.44 3.49,55.97 -3.77,20.14 -14.64,39.24 -31.36,51.36 -13.24,9.96 -29.5,14.79 -45.76,16.81 l -16.91,0 c -13.65,-1.61 -27.34,-5.04 -39.16,-12.28 -18.53,-10.56 -31.57,-29.28 -37.05,-49.7 -4.41,-16.99 -4.7,-35.02 -0.89,-52.16 4.02,-17.94 13.87,-34.68 28.3,-46.22 m 46.02,19.41 c -12.95,2.32 -23.53,12.23 -28.49,24.16 -5.34,12.83 -5.72,27.25 -3.77,40.84 2.16,14.86 10.82,29.74 25.15,35.68 11.03,4.22 23.62,4.46 34.75,0.48 10.8,-3.88 18.86,-13.2 23.07,-23.65 4.64,-11.94 5.18,-25.07 3.79,-37.68 -1.6,-12.95 -7.41,-26.04 -18.32,-33.73 -10.39,-7.24 -24.01,-8.65 -36.18,-6.1 z"
       id="path9"
       inkscape:connector-curvature="0"
       style="opacity:1;fill:url(#linearGradient4218);fill-opacity:1" />
    <path
       d="m 937.46,105.5 c 17.28,-5.47 35.45,-8.13 53.56,-8.47 13.48,-0.14 27.24,0.97 39.93,5.88 13.24,4.77 24.67,14.83 30.26,27.85 5.16,11.33 6.46,23.89 7.04,36.19 -0.01,33.52 -0.05,67.04 0.02,100.56 -16.87,3.68 -34.02,6.07 -51.21,7.54 -20.02,1.63 -40.57,1.54 -59.95,-4.35 -13.16,-4.05 -25.12,-13.05 -31.24,-25.56 -6.09,-12.48 -6.81,-26.96 -4.85,-40.51 2.25,-14.72 12.27,-27.45 25.18,-34.51 16.01,-8.86 34.81,-10.72 52.8,-10.55 9.34,-0.06 18.5,1.84 27.66,3.42 -0.71,-8.8 -4.17,-17.84 -11.53,-23.17 -9.15,-6.82 -21.19,-7.34 -32.15,-6.83 -13.65,0.63 -27.29,2.65 -40.31,6.87 -1.68,-11.46 -3.31,-22.93 -5.21,-34.36 m 53.09,85.29 c -8.24,1.13 -17.1,3.41 -22.83,9.86 -4.48,4.86 -5.67,11.84 -5.03,18.23 0.52,6.14 2.7,12.81 8.03,16.42 8.57,5.73 19.24,6.77 29.3,6.58 9.09,-0.27 18.36,-0.08 27.25,-2.37 -0.3,-15.19 0.1,-30.4 -0.19,-45.58 -0.25,-0.23 -0.75,-0.68 -1,-0.9 -11.55,-3.13 -23.69,-3.51 -35.53,-2.24 z"
       id="path11"
       inkscape:connector-curvature="0"
       style="opacity:1;fill:url(#linearGradient4220);fill-opacity:1" />
    <path
       d="m 1146.02,97.23 c 23.39,-3.01 47.25,0.36 69.6,7.56 -2.44,11.45 -5.4,22.8 -7.57,34.32 -11.03,-3.8 -22.34,-7.33 -34.08,-7.91 -11.35,-0.95 -23.85,-0.62 -33.48,6.22 -4.29,2.88 -5.8,8.74 -4.01,13.48 1.1,3.67 4.19,6.26 7.27,8.31 9.98,5.8 21.39,8.17 32.07,12.33 12.23,4.45 24.73,9.37 34.66,18.01 6.76,6.16 11.54,14.44 12.98,23.52 2.22,12.77 1,26.91 -6.67,37.75 -8.35,11.26 -21.45,18.11 -34.89,21.28 -30.47,7 -63.05,4.34 -92.14,-7.02 2.51,-11.71 4.89,-23.45 7.27,-35.18 11.52,3.57 22.88,8.08 34.98,9.42 11.27,1.36 22.81,1.74 34.04,-0.21 5.49,-1.15 11.66,-3.27 14.57,-8.44 1.79,-4.26 2.03,-10.15 -1.78,-13.42 -9.56,-8.47 -22.07,-12.13 -33.77,-16.55 -13.31,-4.62 -27.25,-9.28 -37.82,-18.98 -7.42,-6.58 -12.04,-16 -13.23,-25.79 -1.41,-12.28 0.52,-25.58 8.33,-35.52 10.37,-13.61 27.04,-20.95 43.67,-23.18 z"
       id="path13"
       inkscape:connector-curvature="0"
       style="opacity:1;fill:url(#linearGradient4222);fill-opacity:1" />
    <path
       d="m 1275.44,111.55 c 17.09,-11.97 38.79,-17.01 59.44,-14.37 16.1,1.53 32.1,7.68 43.87,19.01 6.92,6.91 13.15,14.71 17.18,23.69 5.34,11.24 6.94,23.81 7.49,36.12 0.01,7.53 0.29,15.11 -0.62,22.61 -40.18,-0.06 -80.36,-0.01 -120.55,-0.03 0.54,7.21 2.36,14.57 6.83,20.4 6.04,7.62 13.85,14.42 23.54,16.69 12.84,3.14 26.27,3.24 39.37,1.91 11.71,-0.81 23.01,-4.24 34.14,-7.74 1.72,11.52 3.8,22.98 5.67,34.48 -11.19,5.14 -23.41,7.37 -35.51,9.14 -12.16,1.53 -24.5,2.89 -36.72,1.17 -16.94,-1.35 -33.74,-6.62 -47.58,-16.66 -7.53,-5.38 -13.65,-12.45 -19.07,-19.88 -6.46,-8.94 -9.9,-19.59 -12.38,-30.22 -2.4,-10.44 -2.68,-21.25 -1.82,-31.89 0.92,-10.57 4.78,-20.58 8.99,-30.22 6.06,-13.56 15.57,-25.63 27.73,-34.21 m 17.2,30.97 c -5.76,6.57 -8.54,15.13 -10.03,23.6 26.23,-0.17 52.48,0.32 78.71,-0.25 -0.82,-8.43 -2.53,-17.26 -8.18,-23.9 -6.89,-8.64 -18.08,-13.25 -29.05,-12.73 -11.79,-0.62 -23.69,4.4 -31.45,13.28 z"
       id="path15"
       inkscape:connector-curvature="0"
       style="opacity:1;fill:url(#linearGradient4224);fill-opacity:1" />
    <path
       d="M 787.58,123.54 C 800.77,109.5 819,100.59 838.03,98 c 21.55,-2.57 43.72,0.26 63.89,8.32 -2.48,11.73 -6.03,23.21 -8.91,34.85 -14.89,-5.76 -31.18,-8.81 -47.09,-6.38 -9.77,1.37 -19.21,5.85 -25.85,13.23 -5.57,6.38 -10.8,13.49 -12.62,21.92 -2.17,10.2 -2.1,20.82 -0.22,31.05 1.63,8.06 6.19,15.13 11.3,21.43 3.94,4.94 9.22,8.68 15.05,11.06 11.18,4.69 23.56,4.6 35.45,3.95 10.29,-0.92 20.42,-3.32 30.07,-7 1.46,11.65 3.93,23.15 5.65,34.76 l -0.42,0.67 c -7.3,3.63 -15.45,5.03 -23.38,6.59 -20.71,3.48 -42.43,3.47 -62.57,-3 -13.9,-4.88 -26.9,-13.11 -36.04,-24.81 -7.11,-8.68 -11.97,-18.99 -15.2,-29.68 -2.37,-7.45 -4.48,-15.09 -4.67,-22.95 -0.16,-7.47 -0.33,-15.05 1.5,-22.36 4.41,-16.8 11.48,-33.38 23.61,-46.11 z"
       id="path17"
       inkscape:connector-curvature="0"
       style="opacity:1;fill:url(#linearGradient4226);fill-opacity:1" />
    <path
       d="m 505.13,101.71 c 14.75,-0.04 29.5,-0.01 44.25,-0.01 5.69,23.41 11.56,46.78 17.81,70.05 4.65,15.84 8.83,31.88 14.79,47.28 6.13,-19.93 12.5,-39.8 17.8,-59.98 5.22,-19.05 9.96,-38.23 14.72,-57.4 12.92,0.11 25.84,0 38.76,0.06 8.85,39.52 18.99,78.79 31.64,117.28 12.74,-38.55 22.9,-77.92 32.52,-117.35 14.39,0.13 28.8,-0.01 43.2,0.08 -11.49,40.99 -23.83,81.77 -38.22,121.85 -5.92,16.09 -11.97,32.15 -19.14,47.74 -11.48,-0.02 -22.95,0 -34.43,-0.01 -6.84,-19.04 -13.13,-38.27 -19.56,-57.45 -5.95,-18.82 -11.92,-37.68 -16.42,-56.91 -5.03,15.83 -8.97,32 -14,47.84 -6.74,22.32 -14.41,44.35 -21.79,66.46 -11.66,0.14 -23.32,0.04 -34.98,0.05 C 538.65,216.37 521.3,159.11 505.13,101.71 Z"
       id="path19"
       inkscape:connector-curvature="0"
       style="opacity:1;fill:url(#linearGradient4228);fill-opacity:1" />
  </g>
  <g
     id="#004a5bff"
     style="fill:#004a5b;fill-opacity:1">
    <path
       d="m 1445.69,53.81 c 17.42,-2.57 34.8,-5.53 52.19,-8.33 0.18,18.08 -0.27,36.18 0.23,54.25 7.64,-0.07 15.29,-0.02 22.94,-0.03 4.46,14.59 9.27,29.07 13.85,43.61 -12.33,0.01 -24.65,-0.01 -36.96,0.02 -0.09,16.2 -0.02,32.41 -0.06,48.62 0.2,9.35 1,19.16 5.78,27.43 3.25,5.79 9.83,8.79 16.21,9.52 17.04,2.46 33.6,-3.38 49.55,-8.59 5.74,12.69 11.41,25.4 17.49,37.94 -10.61,3.67 -21.36,6.88 -32.02,10.34 -12.82,4.23 -26.43,5.3 -39.86,4.99 -14.74,-0.33 -30.02,-2.88 -42.48,-11.24 -9.99,-6.36 -17.39,-16.33 -21.23,-27.47 -6.14,-18.31 -5.84,-37.86 -5.67,-56.93 0.02,-41.38 -0.05,-82.76 0.04,-124.13 z"
       id="path22"
       style="opacity:1;fill:#004a5b;fill-opacity:1"
       inkscape:connector-curvature="0" />
    <path
       d="m 1555.96,100.22 c 18.36,0.02 36.72,-0.08 55.09,0.05 4.64,16.94 9.97,33.68 15.21,50.44 5.75,18.72 12.01,37.28 18.78,55.66 12.97,-34.85 24.08,-70.37 34.25,-106.12 17.9,-0.12 35.8,0.02 53.71,-0.07 l 0,0.9 c -5.8,16.92 -11.02,34.04 -17.08,50.88 -14.37,40.04 -30.4,79.56 -49.69,117.51 -14.46,0 -28.92,0.02 -43.38,-0.01 -27.49,-54.18 -48.84,-111.29 -66.89,-169.24 z"
       id="path24"
       style="opacity:1;fill:#004a5b;fill-opacity:1"
       inkscape:connector-curvature="0" />
  </g>
</svg>
