<?xml version="1.0" encoding="UTF-8"?>
<!-- Created with Inkscape (http://www.inkscape.org/) -->
<svg id="svg8519" width="2372.4" height="730" version="1.1" viewBox="0 0 2372.4 730" xmlns="http://www.w3.org/2000/svg" xmlns:cc="http://creativecommons.org/ns#" xmlns:dc="http://purl.org/dc/elements/1.1/" xmlns:rdf="http://www.w3.org/1999/02/22-rdf-syntax-ns#">
 <defs id="defs8521">
  <clipPath id="clipPath1252">
   <path id="path1254" d="m411.59 515.35h94.948v18.13h-94.948v-18.13z"/>
  </clipPath>
  <clipPath id="clipPath1288">
   <path id="path1290" d="m412.39 532.67h93.284v-15.246h-93.284v15.246z"/>
  </clipPath>
  <clipPath id="clipPath1292">
   <path id="path1294" d="m412.39 517.42h93.284v15.245h-93.284v-15.245z"/>
  </clipPath>
  <linearGradient id="linearGradient1236" x2="1" gradientTransform="matrix(0 17.057 17.057 0 474.76 515.89)" gradientUnits="userSpaceOnUse">
   <stop id="stop1238" stop-color="#820021" offset="0"/>
   <stop id="stop1240" stop-color="#ae2c3f" offset=".10441"/>
   <stop id="stop1242" stop-color="#ae2c3f" offset=".90174"/>
   <stop id="stop1244" stop-color="#ba3c4c" offset="1"/>
  </linearGradient>
  <clipPath id="clipPath1202">
   <path id="path1204" d="m411.59 515.35h94.948v18.13h-94.948v-18.13z"/>
  </clipPath>
  <clipPath id="clipPath1214">
   <path id="path1216" d="m505.84 530.72h0.017v-0.016h-0.017v0.016z"/>
  </clipPath>
  <linearGradient id="linearGradient1178" x2="1" gradientTransform="matrix(0 -17.343 17.343 0 459.06 533.09)" gradientUnits="userSpaceOnUse">
   <stop id="stop1180" stop-color="#868685" offset="0"/>
   <stop id="stop1182" stop-color="#d8d9d9" offset=".020448"/>
   <stop id="stop1184" stop-color="#f5f5f5" offset=".052404"/>
   <stop id="stop1186" stop-color="#edeeee" offset=".48766"/>
   <stop id="stop1188" stop-color="#f5f5f5" offset=".89549"/>
   <stop id="stop1190" stop-color="#ebebec" offset=".92944"/>
   <stop id="stop1192" stop-color="#d8d9d9" offset=".96426"/>
   <stop id="stop1194" stop-color="#868685" offset="1"/>
  </linearGradient>
 </defs>
 <metadata id="metadata8524">
  <rdf:RDF>
   <cc:Work rdf:about="">
    <dc:format>image/svg+xml</dc:format>
    <dc:type rdf:resource="http://purl.org/dc/dcmitype/StillImage"/>
    <dc:title/>
   </cc:Work>
  </rdf:RDF>
 </metadata>
 <g id="layer1" transform="translate(-192.09 474.88)">
  <g id="g4201" transform="matrix(19.99 0 0 19.99 -3647.6 -5121.6)">
   <g id="g1166" transform="matrix(1.25 0 0 -1.25 -322.4 899.31)">
    <g id="g1168">
     <g id="g1174">
      <g id="g1176">
       <path id="path1196" d="m414.08 532.94c-1.345 0-1.823-0.794-1.823-2.114v-12.829c0-1.32 0.478-2.114 1.823-2.114h89.96c1.345 0 1.822 0.794 1.822 2.114v12.829c0 1.32-0.477 2.114-1.822 2.114h-89.96z" fill="url(#linearGradient1178)"/>
      </g>
     </g>
    </g>
   </g>
   <g id="g1198" transform="matrix(1.25 0 0 -1.25 -322.4 899.31)">
    <g id="g1200" clip-path="url(#clipPath1202)">
     <g id="g1206" transform="translate(503.93 515.35)">
      <path id="path1208" d="m0 0c1.996 0 2.605 1.241 2.605 2.482v13.166c0 1.241-0.609 2.482-2.605 2.482h-89.738c-1.997 0-2.605-1.241-2.605-2.482v-13.166c0-1.241 0.608-2.482 2.605-2.482h89.738zm-89.646 0.167c-1.344 0-2.254 0.793-2.254 2.114v13.568c0 1.321 0.91 2.114 2.254 2.114h89.554c1.344 0 2.254-0.793 2.254-2.114v-13.568c0-1.321-0.91-2.114-2.254-2.114h-89.554z" fill="#a1a2a2"/>
     </g>
     <g id="g1210">
      <g id="g1218">
       <g id="g1220" clip-path="url(#clipPath1214)" opacity=".8"></g>
      </g>
     </g>
    </g>
   </g>
   <g id="g1224" transform="matrix(1.25 0 0 -1.25 -322.4 899.31)">
    <g id="g1226">
     <g id="g1232">
      <g id="g1234">
       <path id="path1246" d="m443.66 532.94v-17.057h60.388c1.345 0 1.822 0.794 1.822 2.114v12.829c0 1.32-0.477 2.114-1.822 2.114h-60.388z" fill="url(#linearGradient1236)"/>
      </g>
     </g>
    </g>
   </g>
   <g id="g1248" transform="matrix(1.25 0 0 -1.25 -322.4 899.31)">
    <g id="g1250" clip-path="url(#clipPath1252)">
     <g id="g1256" transform="translate(452.08 519.04)">
      <path id="path1258" d="m0 0c-0.756 0-1.454 0.136-2.093 0.408-0.639 0.273-1.192 0.649-1.661 1.129-0.469 0.481-0.836 1.052-1.102 1.714s-0.4 1.377-0.4 2.146c0 0.747 0.134 1.446 0.4 2.098 0.266 0.651 0.633 1.217 1.102 1.697 0.469 0.481 1.022 0.857 1.661 1.129 0.639 0.273 1.337 0.409 2.093 0.409 0.543 0 1.07-0.059 1.581-0.176 0.512-0.118 0.985-0.268 1.422-0.449 0.096-1.42-0.25-2.13-1.038-2.13-0.139 0-0.266 0.016-0.384 0.048-0.117 0.032-0.245 0.064-0.383 0.096-0.139 0.032-0.293 0.064-0.463 0.096-0.171 0.032-0.373 0.049-0.607 0.049-0.373 0-0.724-0.067-1.055-0.201-0.33-0.133-0.614-0.326-0.854-0.576-0.24-0.251-0.429-0.553-0.567-0.905-0.139-0.352-0.208-0.748-0.208-1.185 0-0.46 0.069-0.871 0.208-1.233 0.138-0.363 0.327-0.67 0.567-0.921s0.524-0.443 0.854-0.577c0.331-0.133 0.682-0.2 1.055-0.2 0.234 0 0.442 0.016 0.623 0.048s0.343 0.064 0.487 0.096 0.28 0.064 0.407 0.096c0.128 0.032 0.261 0.048 0.4 0.048 0.777 0 1.123-0.71 1.038-2.13-0.437-0.181-0.924-0.331-1.462-0.448s-1.078-0.176-1.621-0.176" fill="#fff"/>
     </g>
     <g id="g1260" transform="translate(457.59 519.17)">
      <path id="path1262" d="m0 0c-0.224 0-0.445 0.011-0.663 0.032s-0.402 0.048-0.551 0.08v9.273c0 0.309 0.096 0.573 0.287 0.792 0.192 0.219 0.554 0.329 1.087 0.329 0.223 0 0.444-0.011 0.663-0.033 0.218-0.021 0.402-0.048 0.551-0.08v-9.272c0-0.31-0.096-0.574-0.288-0.793-0.191-0.219-0.554-0.328-1.086-0.328" fill="#fff"/>
     </g>
     <g id="g1264" transform="translate(461.96 519.17)">
      <path id="path1266" d="m0 0c-0.213 0-0.421 0.011-0.623 0.032-0.203 0.021-0.373 0.048-0.511 0.08v10.201c0.159 0.054 0.367 0.099 0.623 0.137 0.255 0.037 0.473 0.056 0.655 0.056 0.585 0 1.011-0.075 1.278-0.225 0.266-0.149 0.489-0.368 0.671-0.656l3.626-5.717v5.573c0 0.138 0.018 0.269 0.056 0.392 0.037 0.123 0.101 0.232 0.191 0.328 0.091 0.096 0.216 0.171 0.376 0.224 0.159 0.054 0.362 0.081 0.607 0.081 0.213 0 0.418-0.011 0.615-0.033 0.197-0.021 0.364-0.042 0.503-0.063v-10.218c-0.149-0.075-0.33-0.125-0.543-0.152s-0.421-0.04-0.623-0.04c-0.501 0-0.874 0.069-1.118 0.208-0.246 0.139-0.448 0.331-0.607 0.577l-3.882 6.214v-5.942c0-0.299-0.091-0.55-0.272-0.753s-0.522-0.304-1.022-0.304" fill="#fff"/>
     </g>
     <g id="g1268" transform="translate(473.3 519.23)">
      <path id="path1270" d="m0 0c-0.298 0-0.541 0.032-0.727 0.096s-0.33 0.152-0.431 0.264c-0.102 0.112-0.171 0.248-0.208 0.409-0.037 0.16-0.056 0.33-0.056 0.512v7.847c0 0.182 0.019 0.353 0.056 0.513s0.106 0.296 0.208 0.408c0.101 0.112 0.245 0.2 0.431 0.264s0.429 0.096 0.727 0.096h5.287c0.022-0.117 0.043-0.277 0.064-0.48 0.022-0.203 0.032-0.411 0.032-0.624 0-0.449-0.09-0.767-0.271-0.953-0.182-0.187-0.41-0.281-0.687-0.281h-3.259v-1.825h3.754c0.021-0.107 0.043-0.249 0.064-0.425s0.032-0.366 0.032-0.568c0-0.427-0.086-0.718-0.256-0.873s-0.383-0.232-0.639-0.232h-2.955v-1.81h4.281c0.021-0.118 0.043-0.28 0.064-0.488 0.021-0.209 0.032-0.414 0.032-0.617 0-0.459-0.091-0.779-0.272-0.961-0.181-0.181-0.41-0.272-0.686-0.272h-4.585z" fill="#fff"/>
     </g>
     <g id="g1272" transform="translate(480.98 519.17)">
      <path id="path1274" d="m0 0c-0.245 0-0.461 0.024-0.647 0.072-0.187 0.048-0.349 0.104-0.487 0.168l0.976 9.977c0.203 0.086 0.469 0.155 0.799 0.208 0.33 0.054 0.612 0.081 0.846 0.081 0.33 0 0.615-0.022 0.854-0.065 0.24-0.042 0.445-0.114 0.615-0.216 0.17-0.101 0.306-0.243 0.407-0.424 0.101-0.182 0.178-0.406 0.232-0.673l0.415-1.937c0.117-0.534 0.242-1.124 0.375-1.77s0.253-1.311 0.359-1.994h0.064c0.117 0.683 0.239 1.345 0.367 1.986s0.261 1.228 0.399 1.761l0.51 2.034c0.128 0.502 0.332 0.844 0.614 1.025 0.282 0.182 0.721 0.273 1.316 0.273 0.298 0 0.598-0.025 0.901-0.073s0.556-0.098 0.758-0.152l0.934-10.041c-0.149-0.053-0.328-0.107-0.535-0.16-0.208-0.053-0.434-0.08-0.679-0.08-0.341 0-0.629 0.059-0.863 0.176-0.234 0.118-0.362 0.337-0.383 0.657l-0.24 3.459c-0.053 0.609-0.098 1.246-0.136 1.914-0.037 0.667-0.061 1.299-0.072 1.898h-0.032c-0.138-0.556-0.279-1.156-0.423-1.802s-0.29-1.241-0.439-1.786l-0.655-2.722c-0.16-0.641-0.666-0.961-1.518-0.961-0.213 0-0.431 0.021-0.655 0.064-0.223 0.042-0.415 0.09-0.575 0.144l-0.814 3.395c-0.16 0.63-0.309 1.249-0.447 1.858-0.139 0.608-0.267 1.217-0.384 1.825h-0.048c-0.032-0.854-0.074-1.636-0.128-2.346-0.053-0.71-0.101-1.321-0.143-1.833l-0.256-3.123c-0.021-0.31-0.138-0.523-0.351-0.641-0.214-0.117-0.49-0.176-0.831-0.176" fill="#fff"/>
     </g>
     <g id="g1276" transform="translate(496.06 523.54)">
      <path id="path1278" d="m0 0h2.39l-1.192 3.923-1.198-3.923zm-2.492-4.404c-0.202 0-0.434 0.019-0.694 0.056-0.262 0.037-0.477 0.088-0.647 0.152l3.314 10.153c0.288 0.075 0.579 0.129 0.873 0.161s0.563 0.048 0.809 0.048c0.352 0 0.654-0.027 0.905-0.08 0.251-0.054 0.462-0.134 0.633-0.241s0.312-0.248 0.424-0.424 0.206-0.382 0.281-0.617l2.84-8.984c-0.181-0.075-0.399-0.131-0.655-0.168-0.255-0.037-0.506-0.056-0.75-0.056-0.278 0-0.546 0.045-0.807 0.136s-0.45 0.296-0.567 0.617l-0.544 1.649h-3.484l-0.461-1.553c-0.117-0.374-0.314-0.609-0.591-0.705s-0.57-0.144-0.879-0.144" fill="#fff"/>
     </g>
     <g id="g1280" transform="translate(423.12 522.78)">
      <path id="path1282" d="m0 0c0-1.46-0.955-2.527-2.894-2.738-1.404-0.15-3.438 0.027-4.404 0.138-0.036 0.158-0.064 0.354-0.064 0.508 0 1.278 0.691 1.569 1.338 1.569 0.672 0 1.73-0.116 2.518-0.116 0.865 0 1.129 0.294 1.129 0.573 0 0.367-0.349 0.52-1.021 0.648l-1.839 0.354c-1.531 0.293-2.348 1.352-2.348 2.476 0 1.366 0.967 2.509 2.868 2.72 1.438 0.155 3.187-0.02 4.148-0.138 0.035-0.165 0.053-0.321 0.053-0.492 0-1.274-0.671-1.549-1.319-1.549-0.497 0-1.269 0.093-2.15 0.093-0.897 0-1.269-0.248-1.269-0.55 0-0.319 0.355-0.451 0.916-0.549l1.758-0.326c1.806-0.333 2.58-1.359 2.58-2.621m3.155-1.568c0-0.783-0.307-1.235-1.836-1.235-0.203 0-0.38 0.015-0.55 0.04v10.39c0 0.789 0.269 1.612 1.813 1.612 0.194 0 0.391-0.02 0.573-0.058v-10.749zm6.25-4.019c0.2-0.103 0.612-0.227 1.131-0.241 0.886-0.019 1.371 0.321 1.73 1.116l4.764 10.626c-0.197 0.106-0.631 0.223-0.988 0.231-0.612 0.011-1.434-0.114-1.96-1.367l-1.543-3.641-3.025 4.927c-0.195 0.06-0.671 0.146-1.021 0.146-1.067 0-1.665-0.394-2.284-1.066l-2.941-3.217 2.366-3.723c0.437-0.678 1.013-1.024 1.949-1.024 0.612 0 1.121 0.139 1.357 0.252l-2.848 4.295 2.019 2.139 3.311-5.197-2.017-4.256z" fill="#ae2c3f"/>
     </g>
     <g id="g1284">
      <g id="g1296">
       <g id="g1298" clip-path="url(#clipPath1288)" opacity=".39999">
        <g id="g1300">
         <g id="g1302">
          <g id="g1304" clip-path="url(#clipPath1292)">
           <g id="g1306" transform="translate(504.17 519.89)">
            <path id="path1308" d="m0 0c1.156-1.145 1.313-2.225 1.354-2.463 0.114 0 0.156 0.506 0.156 1.261l-4e-3 12.109c0 1.402-0.456 1.876-1.644 1.876-0.402 0-0.804-0.216-1.339-0.216h-87.31c-0.536 0-0.938 0.216-1.34 0.216-1.187 0-1.643-0.474-1.643-1.876l-4e-3 -12.109c0-0.755 0.041-1.261 0.155-1.261 0.041 0.238 0.076 1.402 1.354 2.463 10.208 7.878 79.259 10.296 90.265 0" fill="#fff"/>
           </g>
          </g>
         </g>
        </g>
       </g>
      </g>
     </g>
    </g>
   </g>
  </g>
  <g id="#000000ff" transform="matrix(1.0197 0 0 1.0197 614.28 -83.146)">
   <path id="path5" d="m681.24 168.32c23.04-3.56 46.65 0.52 68.51 8.04 0.1 6.06 0.15 12.75-3.54 17.9-3.24 4.12-9.11 4.04-13.79 3.17-14.29-2.95-28.9-5.89-43.55-4.29-6.28 0.77-12.79 2.79-17.31 7.42-6.09 6.28-5.77 18.11 1.64 23.23 4.41 3.02 9.51 4.84 14.57 6.45 11.12 3.34 22.38 6.25 33.49 9.63 11.67 3.88 23.32 10.11 30.2 20.68 7.29 11.08 7.54 25.39 4.16 37.85-2.79 10.48-10.29 19.34-19.73 24.51-13.59 7.65-29.64 9.22-44.96 8.71-17.34-0.71-34.45-4.39-50.89-9.81-0.14-4.81-0.26-9.8 1.6-14.35 1.22-3.68 4.35-6.91 8.31-7.42 5.13-0.79 10.21 0.82 15.19 1.85 13.93 3.28 28.39 5.67 42.7 3.66 5.68-0.85 11.59-2.71 15.59-7.06 5.27-5.17 7.01-13.5 4.46-20.39-1.92-5.12-6.73-8.37-11.59-10.38-17.8-7.24-37.64-8.9-54.51-18.53-7.76-4.32-14.14-11.11-17.7-19.28-5.4-11.93-4.67-26.22 0.83-37.98 6.92-13.59 21.84-21.07 36.32-23.61z"/>
   <path id="path7" d="m1248.4 178.44c15.59-11.44 36-12.58 54.59-10.77 13.22 1.25 26.21 4.37 38.74 8.75-0.12 6.18 0.11 13.19-4.04 18.25-3.25 3.79-8.77 3.54-13.24 2.79-14-2.88-28.27-5.77-42.63-4.43-6.61 0.71-13.59 2.54-18.31 7.5-6.46 6.41-5.75 18.82 2.21 23.73 8.3 5.16 18.07 7.05 27.32 9.83 10.06 3.07 20.49 5.17 30.01 9.77 7.78 3.66 14.96 8.97 19.89 16.09 4.81 7.01 6.81 15.62 6.56 24.04 0 11.72-3.85 23.91-12.52 32.12-10.26 9.71-24.48 13.96-38.28 15.12-22.6 1.97-45.28-2.43-66.7-9.38-0.6-6.2-0.14-13 3.59-18.23 3.29-4.25 9.32-4.24 14.13-3.29 11.64 2.44 23.25 5.52 35.22 5.86 8.32 0.23 17.05 0.05 24.74-3.55 7.92-3.78 12.72-13.08 10.88-21.73-0.99-6.13-6.16-10.53-11.6-12.86-15.77-6.49-32.96-8.69-48.63-15.46-8.09-3.58-15.9-8.66-20.79-16.21-12.21-17.66-9.1-45.25 8.86-57.94z"/>
   <path id="path9" d="m164.06 200.03c11.44-16.67 29.91-28.28 49.86-31.48 20.07-2.99 40.75 0.62 59.46 8.15 0.8 6.86 0.94 15.11-4.59 20.16-3.68 3.68-9.46 3.04-13.95 1.4-8.61-3.09-17.66-5.34-26.87-5.04-14.93-0.16-29.61 7.28-38.4 19.32-10.02 13.54-12.81 31.25-10.66 47.68 1.83 15.08 9.37 30.1 22.48 38.37 15.43 9.76 35.41 9.16 51.98 2.66 5.35-2.34 12.24-2.56 16.73 1.67 5.26 5.03 4.74 13.05 4.04 19.69-18 7.6-37.91 10.52-57.33 8.5-19.23-2.22-37.62-11.98-49.78-27.11-12.21-15.1-18.45-34.69-18.05-54.04-0.37-17.67 4.95-35.44 15.08-49.93z"/>
   <path id="path11" d="m300.7 168.84c6.46-1.24 13.14-0.45 19.58 0.63-0.06 22.51-0.01 45.01-0.03 67.52 24.91 0.02 49.83 0.01 74.75 0.01 0.03-19.04-0.06-38.07 0.04-57.1-0.08-4.83 2.95-9.98 7.93-10.97 6.68-1.43 13.59-0.46 20.28 0.5 0.01 49.85-0.01 99.69 0.01 149.54 0.22 4.69-2.42 9.85-7.21 11.08-6.86 1.88-14.1 0.64-21.02-0.25-0.07-22.93-0.01-45.87-0.03-68.8-24.92 0-49.84-0.01-74.75 0.01 0.01 19.34-0.01 38.69 0.01 58.03 0.24 4.68-2.41 9.83-7.2 11.05-6.71 1.8-13.76 0.61-20.52-0.24-0.09-50.28-0.02-100.57-0.04-150.85-0.1-4.78 3.42-9.37 8.2-10.16z"/>
   <path id="path13" d="m596.2 169.22c6.77-1.92 13.93-0.75 20.77 0.17 0.06 50.25 0.02 100.49 0.03 150.74 0.08 4.52-3.01 9.08-7.53 10.08-6.64 1.54-13.53 0.55-20.18-0.39-0.11-49.95 0-99.89-0.05-149.84-0.16-4.52 2.37-9.48 6.96-10.76z"/>
   <path id="path15" d="m909.45 171.41c10.1-3.39 21.3-4.37 31.64-1.52 5.59 1.49 9.8 6.21 11.21 11.74 9.2 36.13 18.27 72.29 27.44 108.42 9.41-35.85 18.43-71.8 27.78-107.67 1.53-5.95 6.19-10.96 12.16-12.58 9.96-2.83 20.59-1.47 30.51 0.89 5.24 52.44 10.32 104.89 15.53 157.33-6.95 2.67-14.95 3.98-22.06 1.2-3.42-1.27-5.07-4.9-5.18-8.34-3.42-41.9-6.96-83.79-10.36-125.7-9.32 34.45-18.51 68.92-27.77 103.38-1.43 4.72-2.05 9.86-4.87 14.03-2.52 3.79-7.18 5.3-11.47 5.94-6.6 0.62-13.36 0.26-19.75-1.58-11.17-40.55-22.47-81.06-33.76-121.58-3.65 38.89-7.05 77.81-10.59 116.71-0.5 4.16-0.39 8.44-1.54 12.5-0.76 2.55-3.06 4.23-5.49 5.02-6.48 2.23-13.65 1.04-19.82-1.6 5.5-52.19 10.92-104.4 16.39-156.59z"/>
   <path id="path17" d="m1130.9 170.04c5.49-1.72 11.31-2.11 17.03-2.31 5.54 0.01 11.43 0.2 16.37 3.03 4.75 2.81 6.99 8.17 8.7 13.16 16.42 47.95 32.85 95.9 49.28 143.85-7.76 3.17-16.63 4.51-24.67 1.59-3.12-1.19-4.74-4.36-5.76-7.33-3.87-11.6-7.83-23.17-11.68-34.78-20.92 0.01-41.84-0.01-62.75 0.01-3.86 11.57-7.71 23.13-11.56 34.7-1.1 3.43-3.23 7.02-6.99 7.9-7.53 2.09-15.83 1.22-22.99-1.79 15.35-44.08 30.59-88.2 45.91-132.29 3.1-8.56 5.71-17.31 9.11-25.74m-5.47 93.2c15.69 0.01 31.39 0.01 47.08 0-7.84-23.65-15.69-47.3-23.39-71-7.94 23.65-15.79 47.33-23.69 71z"/>
   <path id="path19" d="m457.2 171.2c3.09-2.28 7.13-2.38 10.81-2.46 14.62 0.05 29.25-0.06 43.88 0.05 14.8 0.47 30.51 4.28 41.33 15.01 9.53 8.93 13.69 22.35 13.32 35.18 0.21 14.68-6.55 29.51-18.42 38.32-7.35 5.65-16.34 8.79-25.47 9.99 16.54 19.76 33.18 39.44 49.76 59.17-7.99 4.32-17.57 5.61-26.42 3.61-5.81-1.28-10.17-5.75-13.7-10.26-13.36-17.09-26.66-34.22-40.01-51.31h-10.77c-0.02 16.52 0 33.04-0.01 49.55 0.25 4.71-1.82 10.11-6.58 11.78-6.93 2.18-14.35 0.91-21.39-0.01-0.08-49.28 0-98.57-0.04-147.85-0.01-3.82 0.73-8.1 3.71-10.77m24.3 23.06c0.01 16.75-0.01 33.49 0.01 50.23 8.15 0.01 16.31 0.01 24.46 0.01 6.47-0.13 13.08-0.89 19.07-3.48 7.06-3.01 12.15-9.95 13.22-17.51 1.24-7.62-0.1-16.32-5.78-21.94-5.29-5.44-13.22-6.89-20.48-7.29-10.17-0.08-20.34-0.02-30.5-0.02z"/>
   <path id="path21" d="m763.73 174.72c1.2-4.34 6.15-5.96 10.21-5.97 38.7-0.01 77.4 0.01 116.1 0 0.92 6.29 1.83 12.98-0.28 19.13-1.35 4.07-5.62 6.43-9.76 6.32-13 0.12-26 0.01-38.99 0.05-0.03 41.95 0.01 83.91-0.02 125.86 0.08 4.54-3 9.04-7.51 10.09-6.65 1.58-13.55 0.52-20.22-0.36-0.04-45.2 0.01-90.39-0.02-135.58-16.49-0.01-32.99-0.01-49.48-0.01-0.83-6.44-1.8-13.17-0.03-19.53z"/>
  </g>
 </g>
</svg>
