<?xml version="1.0" encoding="UTF-8"?>
<!-- Created with Inkscape (http://www.inkscape.org/) -->
<svg id="svg4696" width="627.71mm" height="193.15mm" version="1.1" viewBox="0 0 627.71 193.15" xmlns="http://www.w3.org/2000/svg" xmlns:cc="http://creativecommons.org/ns#" xmlns:dc="http://purl.org/dc/elements/1.1/" xmlns:rdf="http://www.w3.org/1999/02/22-rdf-syntax-ns#">
 <defs id="defs4690">
  <linearGradient id="g" x2="1" gradientTransform="matrix(0 114.66 114.66 0 -36.287 15.516)" gradientUnits="userSpaceOnUse">
   <stop id="stop26" stop-color="#868685" offset="0"/>
   <stop id="stop28" stop-color="#d8d9d9" offset=".020448"/>
   <stop id="stop30" stop-color="#f5f5f5" offset=".052404"/>
   <stop id="stop32" stop-color="#edeeee" offset=".48766"/>
   <stop id="stop34" stop-color="#f5f5f5" offset=".89549"/>
   <stop id="stop36" stop-color="#ebebec" offset=".92944"/>
   <stop id="stop38" stop-color="#d8d9d9" offset=".96426"/>
   <stop id="stop40" stop-color="#868685" offset="1"/>
  </linearGradient>
  <clipPath id="e">
   <path id="path20" d="m411.59 515.35h94.948v18.13h-94.948z"/>
  </clipPath>
  <clipPath id="f">
   <path id="path23" d="m505.84 530.72h0.017v-0.016h-0.017z"/>
  </clipPath>
  <linearGradient id="d" x2="1" gradientTransform="matrix(0 -112.77 112.77 0 67.49 129.26)" gradientUnits="userSpaceOnUse">
   <stop id="stop11" stop-color="#820021" offset="0"/>
   <stop id="stop13" stop-color="#ae2c3f" offset=".10441"/>
   <stop id="stop15" stop-color="#ae2c3f" offset=".90174"/>
   <stop id="stop17" stop-color="#ba3c4c" offset="1"/>
  </linearGradient>
  <clipPath id="a">
   <path id="path2" d="m411.59 515.35h94.948v18.13h-94.948z"/>
  </clipPath>
  <clipPath id="b">
   <path id="path5" d="m412.39 532.67h93.284v-15.246h-93.284z"/>
  </clipPath>
  <clipPath id="c">
   <path id="path8" d="m412.39 517.42h93.284v15.245h-93.284z"/>
  </clipPath>
 </defs>
 <metadata id="metadata4693">
  <rdf:RDF>
   <cc:Work rdf:about="">
    <dc:format>image/svg+xml</dc:format>
    <dc:type rdf:resource="http://purl.org/dc/dcmitype/StillImage"/>
    <dc:title/>
   </cc:Work>
  </rdf:RDF>
 </metadata>
 <g id="layer1" transform="translate(350.14 -12.951)">
  <path id="path43" d="m-333.65 16.498c-8.892 0-12.052 5.2492-12.052 13.976v84.814c0 8.7267 3.1601 13.976 12.052 13.976h594.74c8.8919 0 12.045-5.2492 12.045-13.976v-84.814c0-8.7267-3.1535-13.976-12.045-13.976z" fill="url(#g)" stroke-width="6.6111"/>
  <g id="g59" transform="matrix(6.6111 0 0 -6.6111 -3071.2 3539.9)" clip-path="url(#e)">
   <g id="g47" transform="translate(503.93 515.35)">
    <path id="path45" d="m0 0c1.996 0 2.605 1.241 2.605 2.482v13.166c0 1.241-0.609 2.482-2.605 2.482h-89.738c-1.997 0-2.605-1.241-2.605-2.482v-13.166c0-1.241 0.608-2.482 2.605-2.482zm-89.646 0.167c-1.344 0-2.254 0.793-2.254 2.114v13.568c0 1.321 0.91 2.114 2.254 2.114h89.554c1.344 0 2.254-0.793 2.254-2.114v-13.568c0-1.321-0.91-2.114-2.254-2.114z" fill="#a1a2a2"/>
   </g>
   <g id="g57">
    <g id="g55">
     <g id="g53" clip-path="url(#f)" opacity=".8"></g>
    </g>
   </g>
  </g>
  <path id="path61" d="m-138.15 16.498v112.77h399.23c8.8919 0 12.045-5.2492 12.045-13.976v-84.814c0-8.7267-3.1535-13.976-12.045-13.976z" fill="url(#d)" stroke-width="6.6111"/>
  <g id="g109" transform="matrix(6.6111 0 0 -6.6111 -3071.2 3539.9)" clip-path="url(#a)">
   <g id="g65" transform="translate(452.08 519.04)">
    <path id="path63" d="m0 0c-0.756 0-1.454 0.136-2.093 0.408-0.639 0.273-1.192 0.649-1.661 1.129-0.469 0.481-0.836 1.052-1.102 1.714s-0.4 1.377-0.4 2.146c0 0.747 0.134 1.446 0.4 2.098 0.266 0.651 0.633 1.217 1.102 1.697 0.469 0.481 1.022 0.857 1.661 1.129 0.639 0.273 1.337 0.409 2.093 0.409 0.543 0 1.07-0.059 1.581-0.176 0.512-0.118 0.985-0.268 1.422-0.449 0.096-1.42-0.25-2.13-1.038-2.13-0.139 0-0.266 0.016-0.384 0.048-0.117 0.032-0.245 0.064-0.383 0.096-0.139 0.032-0.293 0.064-0.463 0.096-0.171 0.032-0.373 0.049-0.607 0.049-0.373 0-0.724-0.067-1.055-0.201-0.33-0.133-0.614-0.326-0.854-0.576-0.24-0.251-0.429-0.553-0.567-0.905-0.139-0.352-0.208-0.748-0.208-1.185 0-0.46 0.069-0.871 0.208-1.233 0.138-0.363 0.327-0.67 0.567-0.921s0.524-0.443 0.854-0.577c0.331-0.133 0.682-0.2 1.055-0.2 0.234 0 0.442 0.016 0.623 0.048s0.343 0.064 0.487 0.096 0.28 0.064 0.407 0.096c0.128 0.032 0.261 0.048 0.4 0.048 0.777 0 1.123-0.71 1.038-2.13-0.437-0.181-0.924-0.331-1.462-0.448s-1.078-0.176-1.621-0.176" fill="#fff"/>
   </g>
   <g id="g69" transform="translate(457.59 519.17)">
    <path id="path67" d="m0 0c-0.224 0-0.445 0.011-0.663 0.032s-0.402 0.048-0.551 0.08v9.273c0 0.309 0.096 0.573 0.287 0.792 0.192 0.219 0.554 0.329 1.087 0.329 0.223 0 0.444-0.011 0.663-0.033 0.218-0.021 0.402-0.048 0.551-0.08v-9.272c0-0.31-0.096-0.574-0.288-0.793-0.191-0.219-0.554-0.328-1.086-0.328" fill="#fff"/>
   </g>
   <g id="g73" transform="translate(461.96 519.17)">
    <path id="path71" d="m0 0c-0.213 0-0.421 0.011-0.623 0.032-0.203 0.021-0.373 0.048-0.511 0.08v10.201c0.159 0.054 0.367 0.099 0.623 0.137 0.255 0.037 0.473 0.056 0.655 0.056 0.585 0 1.011-0.075 1.278-0.225 0.266-0.149 0.489-0.368 0.671-0.656l3.626-5.717v5.573c0 0.138 0.018 0.269 0.056 0.392 0.037 0.123 0.101 0.232 0.191 0.328 0.091 0.096 0.216 0.171 0.376 0.224 0.159 0.054 0.362 0.081 0.607 0.081 0.213 0 0.418-0.011 0.615-0.033 0.197-0.021 0.364-0.042 0.503-0.063v-10.218c-0.149-0.075-0.33-0.125-0.543-0.152s-0.421-0.04-0.623-0.04c-0.501 0-0.874 0.069-1.118 0.208-0.246 0.139-0.448 0.331-0.607 0.577l-3.882 6.214v-5.942c0-0.299-0.091-0.55-0.272-0.753s-0.522-0.304-1.022-0.304" fill="#fff"/>
   </g>
   <g id="g77" transform="translate(473.3 519.23)">
    <path id="path75" d="m0 0c-0.298 0-0.541 0.032-0.727 0.096s-0.33 0.152-0.431 0.264c-0.102 0.112-0.171 0.248-0.208 0.409-0.037 0.16-0.056 0.33-0.056 0.512v7.847c0 0.182 0.019 0.353 0.056 0.513s0.106 0.296 0.208 0.408c0.101 0.112 0.245 0.2 0.431 0.264s0.429 0.096 0.727 0.096h5.287c0.022-0.117 0.043-0.277 0.064-0.48 0.022-0.203 0.032-0.411 0.032-0.624 0-0.449-0.09-0.767-0.271-0.953-0.182-0.187-0.41-0.281-0.687-0.281h-3.259v-1.825h3.754c0.021-0.107 0.043-0.249 0.064-0.425s0.032-0.366 0.032-0.568c0-0.427-0.086-0.718-0.256-0.873s-0.383-0.232-0.639-0.232h-2.955v-1.81h4.281c0.021-0.118 0.043-0.28 0.064-0.488 0.021-0.209 0.032-0.414 0.032-0.617 0-0.459-0.091-0.779-0.272-0.961-0.181-0.181-0.41-0.272-0.686-0.272z" fill="#fff"/>
   </g>
   <g id="g81" transform="translate(480.98 519.17)">
    <path id="path79" d="m0 0c-0.245 0-0.461 0.024-0.647 0.072-0.187 0.048-0.349 0.104-0.487 0.168l0.976 9.977c0.203 0.086 0.469 0.155 0.799 0.208 0.33 0.054 0.612 0.081 0.846 0.081 0.33 0 0.615-0.022 0.854-0.065 0.24-0.042 0.445-0.114 0.615-0.216 0.17-0.101 0.306-0.243 0.407-0.424 0.101-0.182 0.178-0.406 0.232-0.673l0.415-1.937c0.117-0.534 0.242-1.124 0.375-1.77s0.253-1.311 0.359-1.994h0.064c0.117 0.683 0.239 1.345 0.367 1.986s0.261 1.228 0.399 1.761l0.51 2.034c0.128 0.502 0.332 0.844 0.614 1.025 0.282 0.182 0.721 0.273 1.316 0.273 0.298 0 0.598-0.025 0.901-0.073s0.556-0.098 0.758-0.152l0.934-10.041c-0.149-0.053-0.328-0.107-0.535-0.16-0.208-0.053-0.434-0.08-0.679-0.08-0.341 0-0.629 0.059-0.863 0.176-0.234 0.118-0.362 0.337-0.383 0.657l-0.24 3.459c-0.053 0.609-0.098 1.246-0.136 1.914-0.037 0.667-0.061 1.299-0.072 1.898h-0.032c-0.138-0.556-0.279-1.156-0.423-1.802s-0.29-1.241-0.439-1.786l-0.655-2.722c-0.16-0.641-0.666-0.961-1.518-0.961-0.213 0-0.431 0.021-0.655 0.064-0.223 0.042-0.415 0.09-0.575 0.144l-0.814 3.395c-0.16 0.63-0.309 1.249-0.447 1.858-0.139 0.608-0.267 1.217-0.384 1.825h-0.048c-0.032-0.854-0.074-1.636-0.128-2.346-0.053-0.71-0.101-1.321-0.143-1.833l-0.256-3.123c-0.021-0.31-0.138-0.523-0.351-0.641-0.214-0.117-0.49-0.176-0.831-0.176" fill="#fff"/>
   </g>
   <g id="g85" transform="translate(496.06 523.54)">
    <path id="path83" d="m0 0h2.39l-1.192 3.923zm-2.492-4.404c-0.202 0-0.434 0.019-0.694 0.056-0.262 0.037-0.477 0.088-0.647 0.152l3.314 10.153c0.288 0.075 0.579 0.129 0.873 0.161s0.563 0.048 0.809 0.048c0.352 0 0.654-0.027 0.905-0.08 0.251-0.054 0.462-0.134 0.633-0.241s0.312-0.248 0.424-0.424 0.206-0.382 0.281-0.617l2.84-8.984c-0.181-0.075-0.399-0.131-0.655-0.168-0.255-0.037-0.506-0.056-0.75-0.056-0.278 0-0.546 0.045-0.807 0.136s-0.45 0.296-0.567 0.617l-0.544 1.649h-3.484l-0.461-1.553c-0.117-0.374-0.314-0.609-0.591-0.705s-0.57-0.144-0.879-0.144" fill="#fff"/>
   </g>
   <g id="g89" transform="translate(423.12 522.78)">
    <path id="path87" d="m0 0c0-1.46-0.955-2.527-2.894-2.738-1.404-0.15-3.438 0.027-4.404 0.138-0.036 0.158-0.064 0.354-0.064 0.508 0 1.278 0.691 1.569 1.338 1.569 0.672 0 1.73-0.116 2.518-0.116 0.865 0 1.129 0.294 1.129 0.573 0 0.367-0.349 0.52-1.021 0.648l-1.839 0.354c-1.531 0.293-2.348 1.352-2.348 2.476 0 1.366 0.967 2.509 2.868 2.72 1.438 0.155 3.187-0.02 4.148-0.138 0.035-0.165 0.053-0.321 0.053-0.492 0-1.274-0.671-1.549-1.319-1.549-0.497 0-1.269 0.093-2.15 0.093-0.897 0-1.269-0.248-1.269-0.55 0-0.319 0.355-0.451 0.916-0.549l1.758-0.326c1.806-0.333 2.58-1.359 2.58-2.621m3.155-1.568c0-0.783-0.307-1.235-1.836-1.235-0.203 0-0.38 0.015-0.55 0.04v10.39c0 0.789 0.269 1.612 1.813 1.612 0.194 0 0.391-0.02 0.573-0.058zm6.25-4.019c0.2-0.103 0.612-0.227 1.131-0.241 0.886-0.019 1.371 0.321 1.73 1.116l4.764 10.626c-0.197 0.106-0.631 0.223-0.988 0.231-0.612 0.011-1.434-0.114-1.96-1.367l-1.543-3.641-3.025 4.927c-0.195 0.06-0.671 0.146-1.021 0.146-1.067 0-1.665-0.394-2.284-1.066l-2.941-3.217 2.366-3.723c0.437-0.678 1.013-1.024 1.949-1.024 0.612 0 1.121 0.139 1.357 0.252l-2.848 4.295 2.019 2.139 3.311-5.197z" fill="#ae2c3f"/>
   </g>
   <g id="g107">
    <g id="g105">
     <g id="g103" clip-path="url(#b)" opacity=".39999">
      <g id="g101">
       <g id="g99">
        <g id="g97" clip-path="url(#c)">
         <g id="g95" transform="translate(504.17 519.89)">
          <path id="path93" d="m0 0c1.156-1.145 1.313-2.225 1.354-2.463 0.114 0 0.156 0.506 0.156 1.261l-4e-3 12.109c0 1.402-0.456 1.876-1.644 1.876-0.402 0-0.804-0.216-1.339-0.216h-87.31c-0.536 0-0.938 0.216-1.34 0.216-1.187 0-1.643-0.474-1.643-1.876l-4e-3 -12.109c0-0.755 0.041-1.261 0.155-1.261 0.041 0.238 0.076 1.402 1.354 2.463 10.208 7.878 79.259 10.296 90.265 0" fill="#fff"/>
         </g>
        </g>
       </g>
      </g>
     </g>
    </g>
   </g>
  </g>
  <g id="g129" transform="matrix(.2656 0 0 .2656 -222.09 157.21)">
   <path id="path111" d="m1056.6 17.81c17.95-2.81 37.05-0.48 53.03 8.5 21.86 11.64 36.19 34.71 39.68 58.93 2.29 16.64 0.96 34.05-5.54 49.66-6 14.89-16.23 28.26-29.74 37.08-10.74 6.9-23.2 11.49-36.01 12.03-7.68-0.23-15.46 0.64-23.03-0.99-17.54-3.24-33.7-13.05-44.76-27.02-22.51-28.07-25.08-69.98-7.28-101.05 11.06-19.65 31.39-33.64 53.65-37.14m4.91 24.91c-12.75 2.57-23.95 10.91-30.85 21.82-10.38 15.88-12.38 36.23-7.66 54.37 3.59 13.72 11.92 26.58 24.28 33.9 9.78 6.12 21.98 7.92 33.2 5.45 14.31-3.45 26.42-13.87 33.09-26.84 7.83-14.69 9.36-32.32 5.46-48.39-3.25-13.35-11.04-25.82-22.61-33.45-10.09-6.87-22.97-9.44-34.91-6.86z"/>
   <path id="path113" d="m146.41 20.87c7.67-1.94 15.64-2.48 23.53-2.01 4.73 0.32 9.67 1.66 13.13 5.08 3.47 3.7 5.05 8.66 6.66 13.37 16.25 47.34 32.4 94.72 48.7 142.04-7.65 3.48-16.63 4.61-24.66 1.77-3.13-1.07-4.8-4.21-5.81-7.14-3.91-11.75-7.97-23.46-11.84-35.22-21.02-0.01-42.04-0.01-63.06-0.01-3.98 11.78-7.86 23.6-11.81 35.39-1.06 3.21-3.14 6.48-6.61 7.39-7.6 2.18-16.01 1.33-23.26-1.71 18.24-53.02 36.77-105.93 55.03-158.95m18.45 22.9c-8.1 23.6-15.67 47.38-23.84 70.96 15.81 0.04 31.62 0.01 47.43 0.02-7.96-23.63-15.44-47.43-23.59-70.98z"/>
   <path id="path115" d="m255.05 21.43c7.39-2.38 15.36-2.75 23.01-1.64 5.56 0.63 10.17 4.45 13.17 8.98 24.11 37.18 48.12 74.43 72.25 111.6-0.13-36.8-1.09-73.59-1.25-110.39-0.32-4.59 2.84-9.36 7.49-10.21 6.11-1.16 12.41-0.4 18.5 0.58 0.08 53.36-0.01 106.73 0.04 160.1-6.77 2.47-14.22 2.85-21.29 1.63-5.45-0.83-9.98-4.63-12.8-9.22-24.7-38.52-49.46-77.01-74.13-115.55 0.4 35.26 0.89 70.52 1.34 105.78 0.04 6.02 1.58 13.98-4.39 17.8-6.84 3.18-14.73 1.64-21.96 0.92-0.04-53.46-0.08-106.92 0.02-160.38z"/>
   <path id="path117" d="m430.5 19.6c6.32-0.81 12.78-0.36 19.02 0.83-0.06 50.19 0.02 100.38-0.03 150.56 0.07 4.65-2.67 9.73-7.43 10.87-6.73 1.72-13.78 0.65-20.54-0.33-0.05-50.52-0.01-101.04-0.02-151.55-0.11-5.1 3.9-9.82 9-10.38z"/>
   <path id="path119" d="m492.06 22.29c10.25-3.34 21.62-4.33 32.07-1.36 5.97 1.61 10.07 7.06 11.29 12.94 9.13 35.94 18.15 71.9 27.3 107.84 9.3-36.11 18.53-72.24 27.86-108.34 1.53-5.95 6.16-10.98 12.15-12.6 10.02-2.87 20.73-1.47 30.73 0.82 5.28 52.72 10.43 105.46 15.6 158.2-6.96 2.57-14.91 3.99-22.02 1.2-3.1-1.14-4.99-4.27-5.22-7.47-3.57-42.33-6.97-84.67-10.56-126.99-10.17 37.2-19.99 74.5-30.07 111.72-1.2 4.72-4.35 9.28-9.18 10.73-8 2.65-16.73 1.63-24.78-0.25-11.4-40.82-22.77-81.66-34.02-122.52-3.97 42.3-7.66 84.62-11.53 126.93-0.2 2.92-1.46 6.05-4.26 7.35-6.85 3.41-14.96 2.07-21.81-0.66 5.39-52.52 10.92-105.03 16.45-157.54z"/>
   <path id="path121" d="m717.24 21c7.35-2.11 15.08-2.5 22.69-2.19 4.79 0.3 9.96 1.26 13.53 4.74 4.05 3.78 5.65 9.3 7.39 14.39 16.16 47.16 32.3 94.32 48.47 141.48-7.69 3.37-16.57 4.51-24.63 1.75-2.77-1.05-4.56-3.68-5.52-6.37-4.16-11.99-8-24.09-12.26-36.05-20.98 0.01-41.96 0-62.94 0-3.99 11.81-7.87 23.66-11.85 35.47-1.12 3.41-3.55 6.72-7.22 7.52-7.46 1.83-15.65 1.11-22.67-1.98 18.35-52.92 36.79-105.8 55.01-158.76m18.55 22.36c-7.84 23.83-16 47.55-23.82 71.39 15.8 0 31.61-0.01 47.41 0.01-7.94-23.78-15.74-47.6-23.59-71.4z"/>
   <path id="path123" d="m941.16 24.14c1.99-3.36 6.08-4.66 9.78-4.85 5.46-0.21 11-0.01 16.37 1.15-0.13 49.19-0.04 98.38-0.05 147.56 0.57 5.06-0.68 11.28-5.95 13.36-7.06 2.57-14.78 1.09-22.02 0.18-0.11-49.51 0.01-99.02-0.06-148.53-0.01-3.03 0.19-6.27 1.93-8.87z"/>
   <path id="path125" d="m1174.5 21.53c8.11-2.74 17.06-3.03 25.41-1.25 7.04 1.83 10.93 8.48 14.53 14.22 22.86 35.3 45.68 70.63 68.56 105.92-0.24-37.13-1.05-74.25-1.34-111.37 0.23-4.15 3-8.3 7.24-9.18 6.19-1.34 12.65-0.5 18.86 0.5 0 53.38 0.02 106.76-0.01 160.14-7.92 2.63-16.74 3.14-24.74 0.64-6.84-2.61-10.04-9.56-13.83-15.26-23.21-36.2-46.46-72.37-69.66-108.57 0.41 35.54 0.93 71.07 1.35 106.61 0.21 5.88 1.33 13.77-4.77 17.2-6.81 2.82-14.45 1.4-21.55 0.7-0.11-53.44 0-106.87-0.05-160.3z"/>
   <path id="path127" d="m795.13 25.92c1-4.31 5.9-6.19 9.9-6.18 39.03 0.02 78.06 0.01 117.09 0 1.04 5.71 1.36 11.68 0.31 17.4-0.83 4.51-4.9 8.01-9.5 8.04-13.3 0.17-26.61 0.03-39.92 0.06-0.05 41.94 0.04 83.89-0.04 125.83 0.05 4.53-2.55 9.46-7.15 10.7-6.8 1.85-13.97 0.78-20.8-0.25-0.05-45.43 0.01-90.85-0.03-136.28-16.6 0.01-33.2 0.03-49.79-0.01-0.85-6.36-1.73-13.01-0.07-19.31z"/>
  </g>
 </g>
</svg>
