<?xml version="1.0" encoding="UTF-8" standalone="no"?>
<!-- Created with Inkscape (http://www.inkscape.org/) -->

<svg
   xmlns:dc="http://purl.org/dc/elements/1.1/"
   xmlns:cc="http://creativecommons.org/ns#"
   xmlns:rdf="http://www.w3.org/1999/02/22-rdf-syntax-ns#"
   xmlns:svg="http://www.w3.org/2000/svg"
   xmlns="http://www.w3.org/2000/svg"
   xmlns:sodipodi="http://sodipodi.sourceforge.net/DTD/sodipodi-0.dtd"
   xmlns:inkscape="http://www.inkscape.org/namespaces/inkscape"
   width="2372.4458"
   height="729.99994"
   viewBox="0 0 2372.4458 729.99997"
   id="svg8519"
   version="1.1"
   inkscape:version="0.91 r13725"
   sodipodi:docname="Sky Cinema Back to the Future.svg">
  <defs
     id="defs8521">
    <clipPath
       clipPathUnits="userSpaceOnUse"
       id="clipPath1252">
      <path
         d="m 411.591,515.351 94.948,0 0,18.13 -94.948,0 0,-18.13 z"
         id="path1254"
         inkscape:connector-curvature="0" />
    </clipPath>
    <clipPath
       clipPathUnits="userSpaceOnUse"
       id="clipPath1288">
      <path
         d="m 412.392,532.67 93.284,0 0,-15.246 -93.284,0 0,15.246 z"
         id="path1290"
         inkscape:connector-curvature="0" />
    </clipPath>
    <clipPath
       clipPathUnits="userSpaceOnUse"
       id="clipPath1292">
      <path
         d="m 412.392,517.424 93.284,0 0,15.245 -93.284,0 0,-15.245 z"
         id="path1294"
         inkscape:connector-curvature="0" />
    </clipPath>
    <linearGradient
       x1="0"
       y1="0"
       x2="1"
       y2="0"
       gradientUnits="userSpaceOnUse"
       gradientTransform="matrix(0,17.057004,17.057004,0,474.76197,515.88703)"
       spreadMethod="pad"
       id="linearGradient1236">
      <stop
         style="stop-opacity:1;stop-color:#820021"
         offset="0"
         id="stop1238" />
      <stop
         style="stop-opacity:1;stop-color:#ae2c3f"
         offset="0.104411"
         id="stop1240" />
      <stop
         style="stop-opacity:1;stop-color:#ae2c3f"
         offset="0.901742"
         id="stop1242" />
      <stop
         style="stop-opacity:1;stop-color:#ba3c4c"
         offset="1"
         id="stop1244" />
    </linearGradient>
    <clipPath
       clipPathUnits="userSpaceOnUse"
       id="clipPath1202">
      <path
         d="m 411.591,515.351 94.948,0 0,18.13 -94.948,0 0,-18.13 z"
         id="path1204"
         inkscape:connector-curvature="0" />
    </clipPath>
    <clipPath
       clipPathUnits="userSpaceOnUse"
       id="clipPath1214">
      <path
         d="m 505.836,530.723 0.017,0 0,-0.016 -0.017,0 0,0.016 z"
         id="path1216"
         inkscape:connector-curvature="0" />
    </clipPath>
    <linearGradient
       x1="0"
       y1="0"
       x2="1"
       y2="0"
       gradientUnits="userSpaceOnUse"
       gradientTransform="matrix(0,-17.343138,17.343138,0,459.06457,533.09243)"
       spreadMethod="pad"
       id="linearGradient1178">
      <stop
         style="stop-opacity:1;stop-color:#868685"
         offset="0"
         id="stop1180" />
      <stop
         style="stop-opacity:1;stop-color:#d8d9d9"
         offset="0.020448"
         id="stop1182" />
      <stop
         style="stop-opacity:1;stop-color:#f5f5f5"
         offset="0.0524045"
         id="stop1184" />
      <stop
         style="stop-opacity:1;stop-color:#edeeee"
         offset="0.487663"
         id="stop1186" />
      <stop
         style="stop-opacity:1;stop-color:#f5f5f5"
         offset="0.895488"
         id="stop1188" />
      <stop
         style="stop-opacity:1;stop-color:#ebebec"
         offset="0.929442"
         id="stop1190" />
      <stop
         style="stop-opacity:1;stop-color:#d8d9d9"
         offset="0.964262"
         id="stop1192" />
      <stop
         style="stop-opacity:1;stop-color:#868685"
         offset="1"
         id="stop1194" />
    </linearGradient>
  </defs>
  <sodipodi:namedview
     id="base"
     pagecolor="#ffffff"
     bordercolor="#666666"
     borderopacity="1.0"
     inkscape:pageopacity="0.0"
     inkscape:pageshadow="2"
     inkscape:zoom="0.35"
     inkscape:cx="653.57064"
     inkscape:cy="208.86796"
     inkscape:document-units="px"
     inkscape:current-layer="layer1"
     showgrid="false"
     fit-margin-top="0"
     fit-margin-left="0"
     fit-margin-right="0"
     fit-margin-bottom="0"
     inkscape:window-width="1920"
     inkscape:window-height="1017"
     inkscape:window-x="-8"
     inkscape:window-y="-8"
     inkscape:window-maximized="1"
     units="px" />
  <metadata
     id="metadata8524">
    <rdf:RDF>
      <cc:Work
         rdf:about="">
        <dc:format>image/svg+xml</dc:format>
        <dc:type
           rdf:resource="http://purl.org/dc/dcmitype/StillImage" />
        <dc:title></dc:title>
      </cc:Work>
    </rdf:RDF>
  </metadata>
  <g
     inkscape:label="Layer 1"
     inkscape:groupmode="layer"
     id="layer1"
     transform="translate(-192.08646,474.87828)">
    <g
       id="g4201"
       transform="matrix(19.98952,0,0,19.98952,-3647.627,-5121.6388)">
      <g
         id="g1166"
         transform="matrix(1.25,0,0,-1.25,-322.40243,899.31046)">
        <g
           id="g1168">
          <g
             id="g1174">
            <g
               id="g1176">
              <path
                 inkscape:connector-curvature="0"
                 id="path1196"
                 style="fill:url(#linearGradient1178);stroke:none"
                 d="m 414.085,532.944 c -1.345,0 -1.823,-0.794 -1.823,-2.114 l 0,0 0,-12.829 c 0,-1.32 0.478,-2.114 1.823,-2.114 l 0,0 89.96,0 c 1.345,0 1.822,0.794 1.822,2.114 l 0,0 0,12.829 c 0,1.32 -0.477,2.114 -1.822,2.114 l 0,0 -89.96,0 z" />
            </g>
          </g>
        </g>
      </g>
      <g
         id="g1198"
         transform="matrix(1.25,0,0,-1.25,-322.40243,899.31046)">
        <g
           clip-path="url(#clipPath1202)"
           id="g1200">
          <g
             transform="translate(503.9336,515.3505)"
             id="g1206">
            <path
               inkscape:connector-curvature="0"
               id="path1208"
               style="fill:#a1a2a2;fill-opacity:1;fill-rule:nonzero;stroke:none"
               d="m 0,0 c 1.996,0 2.605,1.241 2.605,2.482 l 0,13.166 C 2.605,16.889 1.996,18.13 0,18.13 l -89.738,0 c -1.997,0 -2.605,-1.241 -2.605,-2.482 l 0,-13.166 C -92.343,1.241 -91.735,0 -89.738,0 L 0,0 Z m -89.646,0.167 c -1.344,0 -2.254,0.793 -2.254,2.114 l 0,13.568 c 0,1.321 0.91,2.114 2.254,2.114 l 89.554,0 c 1.344,0 2.254,-0.793 2.254,-2.114 l 0,-13.568 c 0,-1.321 -0.91,-2.114 -2.254,-2.114 l -89.554,0 z" />
          </g>
          <g
             id="g1210">
            <g
               id="g1212" />
            <g
               id="g1218">
              <g
                 style="opacity:0.80000299"
                 id="g1220"
                 clip-path="url(#clipPath1214)">
                <g
                   id="g1222" />
              </g>
            </g>
          </g>
        </g>
      </g>
      <g
         id="g1224"
         transform="matrix(1.25,0,0,-1.25,-322.40243,899.31046)">
        <g
           id="g1226">
          <g
             id="g1232">
            <g
               id="g1234">
              <path
                 inkscape:connector-curvature="0"
                 id="path1246"
                 style="fill:url(#linearGradient1236);stroke:none"
                 d="m 443.657,532.944 0,-17.057 60.388,0 c 1.345,0 1.822,0.794 1.822,2.114 l 0,0 0,12.829 c 0,1.32 -0.477,2.114 -1.822,2.114 l 0,0 -60.388,0 z" />
            </g>
          </g>
        </g>
      </g>
      <g
         id="g1248"
         transform="matrix(1.25,0,0,-1.25,-322.40243,899.31046)">
        <g
           clip-path="url(#clipPath1252)"
           id="g1250">
          <g
             transform="translate(452.075,519.0374)"
             id="g1256">
            <path
               inkscape:connector-curvature="0"
               id="path1258"
               style="fill:#ffffff;fill-opacity:1;fill-rule:nonzero;stroke:none"
               d="m 0,0 c -0.756,0 -1.454,0.136 -2.093,0.408 -0.639,0.273 -1.192,0.649 -1.661,1.129 -0.469,0.481 -0.836,1.052 -1.102,1.714 -0.266,0.662 -0.4,1.377 -0.4,2.146 0,0.747 0.134,1.446 0.4,2.098 0.266,0.651 0.633,1.217 1.102,1.697 0.469,0.481 1.022,0.857 1.661,1.129 0.639,0.273 1.337,0.409 2.093,0.409 0.543,0 1.07,-0.059 1.581,-0.176 C 2.093,10.436 2.566,10.286 3.003,10.105 3.099,8.685 2.753,7.975 1.965,7.975 1.826,7.975 1.699,7.991 1.581,8.023 1.464,8.055 1.336,8.087 1.198,8.119 1.059,8.151 0.905,8.183 0.735,8.215 0.564,8.247 0.362,8.264 0.128,8.264 -0.245,8.264 -0.596,8.197 -0.927,8.063 -1.257,7.93 -1.541,7.737 -1.781,7.487 -2.021,7.236 -2.21,6.934 -2.348,6.582 -2.487,6.23 -2.556,5.834 -2.556,5.397 c 0,-0.46 0.069,-0.871 0.208,-1.233 0.138,-0.363 0.327,-0.67 0.567,-0.921 0.24,-0.251 0.524,-0.443 0.854,-0.577 0.331,-0.133 0.682,-0.2 1.055,-0.2 0.234,0 0.442,0.016 0.623,0.048 0.181,0.032 0.343,0.064 0.487,0.096 0.144,0.032 0.28,0.064 0.407,0.096 0.128,0.032 0.261,0.048 0.4,0.048 0.777,0 1.123,-0.71 1.038,-2.13 C 2.646,0.443 2.159,0.293 1.621,0.176 1.083,0.059 0.543,0 0,0" />
          </g>
          <g
             transform="translate(457.5874,519.1654)"
             id="g1260">
            <path
               inkscape:connector-curvature="0"
               id="path1262"
               style="fill:#ffffff;fill-opacity:1;fill-rule:nonzero;stroke:none"
               d="m 0,0 c -0.224,0 -0.445,0.011 -0.663,0.032 -0.218,0.021 -0.402,0.048 -0.551,0.08 l 0,9.273 c 0,0.309 0.096,0.573 0.287,0.792 0.192,0.219 0.554,0.329 1.087,0.329 0.223,0 0.444,-0.011 0.663,-0.033 0.218,-0.021 0.402,-0.048 0.551,-0.08 l 0,-9.272 C 1.374,0.811 1.278,0.547 1.086,0.328 0.895,0.109 0.532,0 0,0" />
          </g>
          <g
             transform="translate(461.9564,519.1654)"
             id="g1264">
            <path
               inkscape:connector-curvature="0"
               id="path1266"
               style="fill:#ffffff;fill-opacity:1;fill-rule:nonzero;stroke:none"
               d="m 0,0 c -0.213,0 -0.421,0.011 -0.623,0.032 -0.203,0.021 -0.373,0.048 -0.511,0.08 l 0,10.201 c 0.159,0.054 0.367,0.099 0.623,0.137 0.255,0.037 0.473,0.056 0.655,0.056 0.585,0 1.011,-0.075 1.278,-0.225 0.266,-0.149 0.489,-0.368 0.671,-0.656 l 3.626,-5.717 0,5.573 c 0,0.138 0.018,0.269 0.056,0.392 0.037,0.123 0.101,0.232 0.191,0.328 0.091,0.096 0.216,0.171 0.376,0.224 0.159,0.054 0.362,0.081 0.607,0.081 0.213,0 0.418,-0.011 0.615,-0.033 0.197,-0.021 0.364,-0.042 0.503,-0.063 l 0,-10.218 C 7.918,0.117 7.737,0.067 7.524,0.04 7.311,0.013 7.103,0 6.901,0 6.4,0 6.027,0.069 5.783,0.208 5.537,0.347 5.335,0.539 5.176,0.785 l -3.882,6.214 0,-5.942 C 1.294,0.758 1.203,0.507 1.022,0.304 0.841,0.101 0.5,0 0,0" />
          </g>
          <g
             transform="translate(473.3041,519.2296)"
             id="g1268">
            <path
               inkscape:connector-curvature="0"
               id="path1270"
               style="fill:#ffffff;fill-opacity:1;fill-rule:nonzero;stroke:none"
               d="m 0,0 c -0.298,0 -0.541,0.032 -0.727,0.096 -0.186,0.064 -0.33,0.152 -0.431,0.264 -0.102,0.112 -0.171,0.248 -0.208,0.409 -0.037,0.16 -0.056,0.33 -0.056,0.512 l 0,7.847 c 0,0.182 0.019,0.353 0.056,0.513 0.037,0.16 0.106,0.296 0.208,0.408 0.101,0.112 0.245,0.2 0.431,0.264 0.186,0.064 0.429,0.096 0.727,0.096 l 5.287,0 C 5.309,10.292 5.33,10.132 5.351,9.929 5.373,9.726 5.383,9.518 5.383,9.305 5.383,8.856 5.293,8.538 5.112,8.352 4.93,8.165 4.702,8.071 4.425,8.071 l -3.259,0 0,-1.825 3.754,0 C 4.941,6.139 4.963,5.997 4.984,5.821 5.005,5.645 5.016,5.455 5.016,5.253 5.016,4.826 4.93,4.535 4.76,4.38 4.59,4.225 4.377,4.148 4.121,4.148 l -2.955,0 0,-1.81 4.281,0 C 5.468,2.22 5.49,2.058 5.511,1.85 5.532,1.641 5.543,1.436 5.543,1.233 5.543,0.774 5.452,0.454 5.271,0.272 5.09,0.091 4.861,0 4.585,0 L 0,0 Z" />
          </g>
          <g
             transform="translate(480.983,519.1654)"
             id="g1272">
            <path
               inkscape:connector-curvature="0"
               id="path1274"
               style="fill:#ffffff;fill-opacity:1;fill-rule:nonzero;stroke:none"
               d="M 0,0 C -0.245,0 -0.461,0.024 -0.647,0.072 -0.834,0.12 -0.996,0.176 -1.134,0.24 l 0.976,9.977 c 0.203,0.086 0.469,0.155 0.799,0.208 0.33,0.054 0.612,0.081 0.846,0.081 0.33,0 0.615,-0.022 0.854,-0.065 0.24,-0.042 0.445,-0.114 0.615,-0.216 C 3.126,10.124 3.262,9.982 3.363,9.801 3.464,9.619 3.541,9.395 3.595,9.128 L 4.01,7.191 C 4.127,6.657 4.252,6.067 4.385,5.421 4.518,4.775 4.638,4.11 4.744,3.427 l 0.064,0 C 4.925,4.11 5.047,4.772 5.175,5.413 5.303,6.054 5.436,6.641 5.574,7.174 l 0.51,2.034 c 0.128,0.502 0.332,0.844 0.614,1.025 0.282,0.182 0.721,0.273 1.316,0.273 0.298,0 0.598,-0.025 0.901,-0.073 0.303,-0.048 0.556,-0.098 0.758,-0.152 L 10.607,0.24 C 10.458,0.187 10.279,0.133 10.072,0.08 9.864,0.027 9.638,0 9.393,0 9.052,0 8.764,0.059 8.53,0.176 8.296,0.294 8.168,0.513 8.147,0.833 L 7.907,4.292 C 7.854,4.901 7.809,5.538 7.771,6.206 7.734,6.873 7.71,7.505 7.699,8.104 l -0.032,0 C 7.529,7.548 7.388,6.948 7.244,6.302 7.1,5.656 6.954,5.061 6.805,4.516 L 6.15,1.794 C 5.99,1.153 5.484,0.833 4.632,0.833 4.419,0.833 4.201,0.854 3.977,0.897 3.754,0.939 3.562,0.987 3.402,1.041 L 2.588,4.436 C 2.428,5.066 2.279,5.685 2.141,6.294 2.002,6.902 1.874,7.511 1.757,8.119 l -0.048,0 C 1.677,7.265 1.635,6.483 1.581,5.773 1.528,5.063 1.48,4.452 1.438,3.94 L 1.182,0.817 C 1.161,0.507 1.044,0.294 0.831,0.176 0.617,0.059 0.341,0 0,0" />
          </g>
          <g
             transform="translate(496.0557,523.5375)"
             id="g1276">
            <path
               inkscape:connector-curvature="0"
               id="path1278"
               style="fill:#ffffff;fill-opacity:1;fill-rule:nonzero;stroke:none"
               d="M 0,0 2.39,0 1.198,3.923 0,0 Z m -2.492,-4.404 c -0.202,0 -0.434,0.019 -0.694,0.056 -0.262,0.037 -0.477,0.088 -0.647,0.152 L -0.519,5.957 C -0.231,6.032 0.06,6.086 0.354,6.118 0.648,6.15 0.917,6.166 1.163,6.166 1.515,6.166 1.817,6.139 2.068,6.086 2.319,6.032 2.53,5.952 2.701,5.845 2.872,5.738 3.013,5.597 3.125,5.421 3.237,5.245 3.331,5.039 3.406,4.804 L 6.246,-4.18 C 6.065,-4.255 5.847,-4.311 5.591,-4.348 5.336,-4.385 5.085,-4.404 4.841,-4.404 c -0.278,0 -0.546,0.045 -0.807,0.136 -0.261,0.091 -0.45,0.296 -0.567,0.617 l -0.544,1.649 -3.484,0 -0.461,-1.553 C -1.139,-3.929 -1.336,-4.164 -1.613,-4.26 -1.89,-4.356 -2.183,-4.404 -2.492,-4.404" />
          </g>
          <g
             transform="translate(423.1164,522.7819)"
             id="g1280">
            <path
               inkscape:connector-curvature="0"
               id="path1282"
               style="fill:#ae2c3f;fill-opacity:1;fill-rule:nonzero;stroke:none"
               d="m 0,0 c 0,-1.46 -0.955,-2.527 -2.894,-2.738 -1.404,-0.15 -3.438,0.027 -4.404,0.138 -0.036,0.158 -0.064,0.354 -0.064,0.508 0,1.278 0.691,1.569 1.338,1.569 0.672,0 1.73,-0.116 2.518,-0.116 0.865,0 1.129,0.294 1.129,0.573 0,0.367 -0.349,0.52 -1.021,0.648 l -1.839,0.354 c -1.531,0.293 -2.348,1.352 -2.348,2.476 0,1.366 0.967,2.509 2.868,2.72 1.438,0.155 3.187,-0.02 4.148,-0.138 0.035,-0.165 0.053,-0.321 0.053,-0.492 0,-1.274 -0.671,-1.549 -1.319,-1.549 -0.497,0 -1.269,0.093 -2.15,0.093 -0.897,0 -1.269,-0.248 -1.269,-0.55 0,-0.319 0.355,-0.451 0.916,-0.549 L -2.58,2.621 C -0.774,2.288 0,1.262 0,0 m 3.155,-1.568 c 0,-0.783 -0.307,-1.235 -1.836,-1.235 -0.203,0 -0.38,0.015 -0.55,0.04 l 0,10.39 c 0,0.789 0.269,1.612 1.813,1.612 0.194,0 0.391,-0.02 0.573,-0.058 l 0,-10.749 z m 6.25,-4.019 c 0.2,-0.103 0.612,-0.227 1.131,-0.241 0.886,-0.019 1.371,0.321 1.73,1.116 L 17.03,5.914 C 16.833,6.02 16.399,6.137 16.042,6.145 15.43,6.156 14.608,6.031 14.082,4.778 L 12.539,1.137 9.514,6.064 C 9.319,6.124 8.843,6.21 8.493,6.21 7.426,6.21 6.828,5.816 6.209,5.144 L 3.268,1.927 5.634,-1.796 c 0.437,-0.678 1.013,-1.024 1.949,-1.024 0.612,0 1.121,0.139 1.357,0.252 L 6.092,1.727 8.111,3.866 11.422,-1.331 9.405,-5.587 Z" />
          </g>
          <g
             id="g1284">
            <g
               id="g1286" />
            <g
               id="g1296">
              <g
                 style="opacity:0.39999402"
                 id="g1298"
                 clip-path="url(#clipPath1288)">
                <g
                   id="g1300">
                  <g
                     id="g1302">
                    <g
                       id="g1304"
                       clip-path="url(#clipPath1292)">
                      <g
                         id="g1306"
                         transform="translate(504.1664,519.8869)">
                        <path
                           inkscape:connector-curvature="0"
                           id="path1308"
                           style="fill:#ffffff;fill-opacity:1;fill-rule:nonzero;stroke:none"
                           d="m 0,0 c 1.156,-1.145 1.313,-2.225 1.354,-2.463 0.114,0 0.156,0.506 0.156,1.261 L 1.506,10.907 c 0,1.402 -0.456,1.876 -1.644,1.876 -0.402,0 -0.804,-0.216 -1.339,-0.216 l -87.31,0 c -0.536,0 -0.938,0.216 -1.34,0.216 -1.187,0 -1.643,-0.474 -1.643,-1.876 l -0.004,-12.109 c 0,-0.755 0.041,-1.261 0.155,-1.261 0.041,0.238 0.076,1.402 1.354,2.463 C -80.057,7.878 -11.006,10.296 0,0" />
                      </g>
                    </g>
                  </g>
                </g>
              </g>
            </g>
          </g>
        </g>
      </g>
    </g>
    <g
       id="#000000ff"
       transform="matrix(1.0033011,0,0,1.0033011,124.2753,-80.116992)"
       style="fill:#ffffff;fill-opacity:1">
      <path
         d="m 915.59,167.8 c 17,-2.62 35.04,-0.76 50.46,7.2 15.33,7.49 27.66,20.56 34.83,36 7.64,15.74 9.71,33.73 7.75,51 -1.87,15.8 -8.04,31.12 -17.9,43.62 -10.73,13.82 -26.53,23.58 -43.65,27.11 -8.24,1.98 -16.75,1.1 -25.12,1.26 -19.36,-1.22 -37.98,-10.75 -50.63,-25.4 -24.63,-28.2 -27.85,-72.24 -9.02,-104.34 11.13,-19.31 31.29,-32.99 53.28,-36.45 m 4.93,24.91 c -14.77,2.93 -27.24,13.61 -33.86,26.93 -7.23,13.83 -8.67,30.18 -5.63,45.36 3.06,15.4 11.89,30.14 25.7,38.13 9.73,5.87 21.69,7.57 32.74,5.13 13.04,-3.18 24.31,-12.14 31.21,-23.55 9.31,-15.3 11.56,-34.38 7.32,-51.66 -3.29,-13.32 -11.01,-25.84 -22.59,-33.46 -10.08,-6.86 -22.96,-9.44 -34.89,-6.88 z"
         id="path5"
         inkscape:connector-curvature="0"
         style="opacity:1;fill:#ffffff;fill-opacity:1" />
      <path
         d="m 295.53,170.76 c 8.02,-1.82 16.31,-2.51 24.51,-1.78 4.31,0.46 8.84,1.75 11.93,4.97 2.92,3.05 4.54,7.04 5.89,10.98 16.52,48.16 32.98,96.34 49.52,144.49 -7.9,3.41 -17.13,4.67 -25.28,1.44 -3.55,-1.65 -4.76,-5.64 -5.94,-9.04 -3.68,-11.03 -7.41,-22.04 -11.12,-33.06 -20.99,-0.01 -41.98,0 -62.98,-0.01 -4.11,12.03 -7.95,24.17 -12.15,36.17 -1.28,4.3 -5.29,7.1 -9.68,7.43 -6.66,0.75 -14,0.48 -19.97,-2.87 18.69,-52.81 36.63,-105.89 55.27,-158.72 m 18.28,22.67 c -7.92,23.77 -15.84,47.54 -23.77,71.31 15.77,0.02 31.54,0.01 47.32,0.01 -7.85,-23.78 -15.63,-47.57 -23.55,-71.32 z"
         id="path7"
         inkscape:connector-curvature="0"
         style="opacity:1;fill:#ffffff;fill-opacity:1" />
      <path
         d="m 445.07,171.84 c 22.98,-6.8 47.79,-2.78 69.79,5.64 0.89,5.6 1,11.68 -1.66,16.84 -2.06,4.07 -6.53,6.97 -11.17,6.37 -5.21,-0.69 -9.96,-3.15 -15.06,-4.27 -14.12,-3.76 -30.05,-3.07 -42.67,4.86 -13.92,8.34 -22.23,23.91 -24.25,39.72 -1.62,13.99 -0.31,28.79 6.44,41.38 5.73,11.07 15.99,19.81 28.06,23.15 13.43,3.86 27.98,2.21 40.86,-2.87 5.79,-2.51 13.6,-2.06 17.63,3.33 3.74,5.24 3.62,12.23 2.66,18.33 -17.16,7.28 -36.07,10.26 -54.64,8.8 -18.44,-1.39 -36.34,-9.69 -49.11,-23.1 -13.46,-14.21 -20.99,-33.52 -21.92,-52.98 -0.99,-16 1.97,-32.38 9.49,-46.62 9.21,-18.27 25.95,-32.6 45.55,-38.58 z"
         id="path9"
         inkscape:connector-curvature="0"
         style="opacity:1;fill:#ffffff;fill-opacity:1" />
      <path
         d="m 545.76,169.64 c 6.38,-0.93 12.88,-0.3 19.22,0.7 0.06,24.55 -0.01,49.1 0.03,73.65 19.15,-22.51 38.25,-45.05 57.38,-67.58 2.97,-3.53 7.07,-6.29 11.72,-6.85 8.08,-1.03 16.54,0.16 23.82,3.88 -21.62,24.99 -43.41,49.84 -64.97,74.88 23.27,26.52 46.28,53.27 69.47,79.87 -7.57,3.67 -16.27,5.48 -24.63,4.04 -5.22,-0.79 -9.67,-4.08 -13.06,-7.98 -19.9,-23.06 -39.85,-46.08 -59.75,-69.16 0.01,21.99 0.02,43.98 0,65.97 0.08,4.52 -2.57,9.42 -7.12,10.71 -6.8,1.87 -13.96,0.72 -20.82,-0.2 -0.13,-50.2 0,-100.41 -0.06,-150.61 -0.44,-5.3 3.39,-10.61 8.77,-11.32 z"
         id="path11"
         inkscape:connector-curvature="0"
         style="opacity:1;fill:#ffffff;fill-opacity:1" />
      <path
         d="m 1229.47,169.57 c 6.23,-0.79 12.56,-0.25 18.74,0.76 0.09,22.64 0.02,45.27 0.04,67.91 25.08,0.02 50.16,0 75.23,0.01 0.05,-19.39 -0.02,-38.78 0.03,-58.17 -0.11,-5.06 3.82,-9.87 8.91,-10.47 6.41,-0.86 12.96,-0.29 19.33,0.75 0,50.23 0.01,100.47 -0.01,150.7 0.16,4.8 -2.9,9.85 -7.78,10.89 -6.72,1.59 -13.71,0.52 -20.45,-0.41 -0.04,-23.01 0.01,-46.02 -0.02,-69.03 -25.07,-0.02 -50.15,0.01 -75.22,-0.02 -0.05,19.53 0,39.06 -0.02,58.58 0.18,4.64 -2.64,9.58 -7.33,10.76 -6.75,1.79 -13.83,0.65 -20.63,-0.27 -0.09,-50.51 -0.04,-101.03 -0.02,-151.54 0.04,-5.14 3.95,-9.99 9.2,-10.45 z"
         id="path13"
         inkscape:connector-curvature="0"
         style="opacity:1;fill:#ffffff;fill-opacity:1" />
      <path
         d="m 1696.83,169.78 c 6.49,-1.17 13.19,-0.43 19.68,0.53 -0.03,30.22 0,60.44 -0.01,90.66 0.06,9.14 0.61,18.56 4.5,26.99 3.68,8.45 10.56,15.7 19.37,18.76 8.19,2.88 17.27,3.05 25.69,1.09 11.07,-2.58 20.01,-11.31 24.19,-21.71 2.88,-6.97 3.88,-14.58 3.76,-22.08 -0.02,-27.69 -0.02,-55.37 0,-83.06 -0.22,-4.93 2.9,-10.11 7.97,-11.1 6.5,-1.33 13.25,-0.48 19.77,0.43 0.01,28.93 0,57.86 0,86.78 -0.06,6.3 0.29,12.63 -0.66,18.87 -2.02,16.1 -9.19,31.87 -21.36,42.81 -12.16,10.67 -28.58,16.29 -44.73,15.24 -19,1.35 -38.46,-6.75 -50.57,-21.5 -11.02,-13.16 -15.74,-30.57 -15.91,-47.5 -0.03,-28.02 -0.05,-56.04 0.01,-84.06 -0.14,-5.05 3.11,-10.22 8.3,-11.15 z"
         id="path15"
         inkscape:connector-curvature="0"
         style="opacity:1;fill:#ffffff;fill-opacity:1" />
      <path
         d="m 1988.11,170.09 c 6.81,-1.75 13.98,-0.69 20.85,0.24 0.08,30.89 0.02,61.77 0.03,92.66 -0.86,15.77 4.6,33.8 19.29,41.77 8.4,4.48 18.38,5.09 27.65,3.58 9.66,-1.59 18.21,-7.75 23.39,-15.98 5.35,-8.38 7.16,-18.57 6.94,-28.4 -0.01,-27.66 -0.04,-55.32 0.01,-82.98 -0.1,-4.79 2.69,-9.99 7.67,-11.03 6.57,-1.48 13.42,-0.57 20.03,0.32 0.06,28.24 0.01,56.47 0.03,84.7 -0.11,7.66 0.44,15.37 -0.9,22.95 -2.5,16.38 -10.36,32.38 -23.47,42.81 -11.93,9.48 -27.43,14.26 -42.63,13.27 -19.45,1.34 -39.32,-7.34 -51.29,-22.76 -10.57,-13.27 -14.88,-30.51 -14.91,-47.24 -0.11,-27.32 -0.04,-54.65 -0.04,-81.98 -0.29,-4.94 2.2,-10.6 7.35,-11.93 z"
         id="path17"
         inkscape:connector-curvature="0"
         style="opacity:1;fill:#ffffff;fill-opacity:1" />
      <path
         d="m 117.42,172.42 c 2.64,-2.25 6.31,-2.58 9.64,-2.68 15.64,0.02 31.29,0 46.94,0.01 13.39,0.38 27.35,2.82 38.6,10.54 7.95,5.37 13.19,14.26 14.48,23.72 1.97,10.92 -0.33,22.96 -7.79,31.43 -4.63,5.7 -11.19,9.29 -17.83,12.13 10.52,2.4 20.7,8.2 26.33,17.68 6.85,10.55 6.91,24.17 3.24,35.86 -3,9.53 -10.07,17.49 -18.89,22.07 -12,6.26 -25.79,7.69 -39.12,8.06 -14.67,0.03 -29.34,-0.01 -44.01,0.02 -3.96,-0.1 -8.34,-0.16 -11.59,-2.76 -2.67,-2.74 -3.36,-6.8 -3.42,-10.49 0,-45.01 0,-90.02 0,-135.02 0.05,-3.72 0.71,-7.82 3.42,-10.57 m 23.82,22.1 c 0.02,14.15 0.01,28.31 0.01,42.47 8.57,0.02 17.15,0 25.73,0.02 7.95,-0.09 16.29,-0.66 23.37,-4.65 10.49,-5.68 12.93,-21.91 4.7,-30.47 -6.4,-6.02 -15.69,-7.09 -24.08,-7.38 -9.91,-0.01 -19.82,-0.02 -29.73,0.01 m 0.01,65.99 c 0.02,15.34 -0.03,30.67 0.02,46 12.52,-0.18 25.07,0.45 37.56,-0.67 6.55,-0.82 13.46,-2.04 18.85,-6.13 4.53,-3.4 6.67,-9.15 6.84,-14.67 0.42,-6.27 -1.22,-13.23 -6.43,-17.23 -7.34,-5.74 -17.07,-6.97 -26.11,-7.29 -10.24,-0.05 -20.49,-0.02 -30.73,-0.01 z"
         id="path19"
         inkscape:connector-curvature="0"
         style="opacity:1;fill:#ffffff;fill-opacity:1" />
      <path
         d="m 721.29,176.19 c 0.91,-4.36 5.69,-6.42 9.75,-6.44 39.09,-0.03 78.18,0.05 117.27,-0.03 1.13,5.61 1.38,11.48 0.44,17.13 -0.8,4.67 -4.97,8.48 -9.8,8.34 -13.23,0.16 -26.46,0.01 -39.7,0.06 -0.02,41.92 0.03,83.83 -0.02,125.74 0.08,4.63 -2.61,9.66 -7.35,10.84 -6.74,1.78 -13.81,0.66 -20.59,-0.28 -0.1,-45.43 0,-90.87 -0.05,-136.3 -16.58,0.01 -33.16,-0.03 -49.73,0.02 -0.94,-6.28 -1.73,-12.83 -0.22,-19.08 z"
         id="path21"
         inkscape:connector-curvature="0"
         style="opacity:1;fill:#ffffff;fill-opacity:1" />
      <path
         d="m 1075.93,175.85 c 1.13,-4.33 6,-6.2 10.09,-6.11 38.98,0.01 77.97,0.02 116.95,0 0.91,5.55 1.17,11.27 0.4,16.84 -0.75,4.58 -4.6,8.55 -9.39,8.58 -13.42,0.29 -26.86,-0.11 -40.29,0.19 0.13,41.89 0.03,83.79 0.06,125.68 0.16,4.83 -2.93,9.92 -7.85,10.94 -6.63,1.54 -13.53,0.55 -20.16,-0.46 0.02,-45.42 0.01,-90.84 0.01,-136.26 -16.58,0 -33.16,-0.01 -49.73,0.01 -0.86,-6.4 -1.77,-13.08 -0.09,-19.41 z"
         id="path23"
         inkscape:connector-curvature="0"
         style="opacity:1;fill:#ffffff;fill-opacity:1" />
      <path
         d="m 1389.4,171.37 c 4.18,-2.11 9.03,-1.57 13.57,-1.62 26.5,-0.03 53,0.07 79.5,-0.06 1.15,5.99 1.95,12.28 0.62,18.3 -0.91,4.58 -5.65,7.39 -10.09,7.25 -20.17,0.02 -40.33,0.01 -60.49,0.01 -0.02,14.33 -0.01,28.66 0,42.99 21.35,0.03 42.7,-0.03 64.06,0.03 0.64,5.82 1.7,11.83 0.27,17.62 -0.93,3.96 -4.88,6.67 -8.87,6.58 -18.49,0.08 -36.98,-0.01 -55.47,0.04 0.01,14.42 -0.02,28.83 0.02,43.24 24.07,0 48.14,-0.01 72.22,0.01 0.72,6.5 2.06,13.37 -0.31,19.69 -1.46,3.72 -5.5,5.92 -9.39,5.79 -25.35,0.03 -50.69,0 -76.03,0.02 -3.87,-0.2 -8.31,-0.18 -11.34,-2.95 -3.03,-3.31 -3.3,-8.07 -3.19,-12.33 0.05,-44.67 0,-89.34 0.02,-134 0.11,-3.92 1.18,-8.56 4.9,-10.61 z"
         id="path25"
         inkscape:connector-curvature="0"
         style="opacity:1;fill:#ffffff;fill-opacity:1" />
      <path
         d="m 1572.57,172.54 c 2.55,-2.26 6.15,-2.7 9.44,-2.79 29.78,-0.01 59.57,0.01 89.35,-0.01 0.96,6.16 1.47,12.57 0.24,18.72 -0.89,4.79 -6.17,6.95 -10.56,6.8 -21.26,-0.01 -42.52,-0.01 -63.79,-0.01 -0.01,15.66 0,31.32 0,46.99 22.65,0.02 45.3,0.01 67.95,0 1.17,5.52 1.48,11.27 0.68,16.85 -0.76,4.65 -5.23,7.99 -9.85,7.88 -19.6,0.09 -39.19,-0.01 -58.78,0.04 0.02,17.67 -0.04,35.35 0.03,53.02 0.59,5.03 -2.21,10.59 -7.37,11.85 -6.75,1.73 -13.82,0.57 -20.61,-0.32 -0.13,-48.85 0,-97.7 -0.07,-146.55 0,-4.29 0.24,-9.16 3.34,-12.47 z"
         id="path27"
         inkscape:connector-curvature="0"
         style="opacity:1;fill:#ffffff;fill-opacity:1" />
      <path
         d="m 1837.79,176.76 c 0.78,-4.72 5.79,-7.17 10.2,-7.01 39.03,0 78.07,0 117.1,0 0.88,6.02 1.64,12.34 0,18.3 -1.17,4.45 -5.62,7.38 -10.13,7.18 -13.07,0.05 -26.14,0 -39.2,0.02 -0.02,42.27 0.01,84.54 -0.02,126.81 0.02,4.55 -3.21,9.02 -7.75,9.94 -6.66,1.52 -13.59,0.48 -20.24,-0.5 0,-45.42 0,-90.83 0,-136.24 -16.57,-0.04 -33.13,0.04 -49.69,-0.05 -0.77,-6.09 -1.4,-12.36 -0.27,-18.45 z"
         id="path29"
         inkscape:connector-curvature="0"
         style="opacity:1;fill:#ffffff;fill-opacity:1" />
      <path
         d="m 2149.3,172.3 c 2.69,-2.15 6.31,-2.48 9.65,-2.56 14.36,0.01 28.72,0.02 43.09,-0.01 15.73,-0.04 32.54,3.78 44.09,15.13 7.92,7.57 12.29,18.3 13.07,29.15 1.68,15.31 -3.48,31.64 -15.12,42.03 -7.93,7.24 -18.28,11.35 -28.85,12.69 16.76,19.79 33.4,39.67 50.12,59.5 -8.29,4.29 -18.17,5.74 -27.25,3.41 -5.67,-1.51 -9.85,-5.96 -13.35,-10.41 -13.3,-17.08 -26.6,-34.16 -39.91,-51.23 -3.71,0 -7.4,0 -11.08,0.01 -0.01,17.02 -0.02,34.04 0,51.06 0.25,4.79 -2.8,9.93 -7.72,10.89 -6.67,1.59 -13.62,0.51 -20.29,-0.46 0,-49.51 0,-99.03 -0.01,-148.54 0.05,-3.76 0.7,-7.94 3.56,-10.66 m 24.46,22.95 c -0.02,16.83 -0.02,33.67 0,50.5 8.75,-0.01 17.5,0.02 26.26,-0.01 7.09,-0.22 14.48,-1.26 20.65,-5.03 5.83,-3.56 9.62,-9.96 10.42,-16.69 1.08,-7.88 -0.56,-16.84 -6.79,-22.29 -6.11,-5.23 -14.55,-6.32 -22.3,-6.48 -9.42,0 -18.83,0 -28.24,0 z"
         id="path31"
         inkscape:connector-curvature="0"
         style="opacity:1;fill:#ffffff;fill-opacity:1" />
      <path
         d="m 2288.21,172.2 c 3.64,-2.73 8.47,-2.46 12.79,-2.47 27.24,0.04 54.48,0.01 81.72,0.02 1.01,5.85 1.54,11.9 0.63,17.79 -0.8,4.8 -5.64,7.93 -10.31,7.71 -20.09,0 -40.19,0 -60.28,0 -0.01,14.33 -0.02,28.66 0,42.99 21.31,0.01 42.61,0.01 63.92,0 0.67,6.11 1.96,12.49 0.02,18.49 -1.15,3.69 -5.12,5.76 -8.79,5.74 -18.39,0.09 -36.78,-0.02 -55.16,0.05 0.01,14.41 -0.02,28.82 0.01,43.23 24.04,0 48.08,0.01 72.13,-0.01 0.75,5.79 1.44,11.73 0.39,17.52 -0.8,4.81 -5.51,8.34 -10.33,8 -23.66,-0.01 -47.33,-0.01 -70.99,0 -5.08,-0.08 -10.61,0.49 -15.16,-2.16 -3.7,-2.79 -4.2,-7.83 -4.29,-12.12 -0.03,-44 0,-88.01 -0.01,-132.02 0.04,-4.43 0.31,-9.49 3.71,-12.76 z"
         id="path33"
         inkscape:connector-curvature="0"
         style="opacity:1;fill:#ffffff;fill-opacity:1" />
    </g>
  </g>
</svg>
