<?xml version="1.0" encoding="UTF-8"?>
<!-- Created with Inkscape (http://www.inkscape.org/) -->
<svg id="svg8519" width="2530.6" height="778.67" version="1.1" viewBox="0 0 2372.4 730" xmlns="http://www.w3.org/2000/svg" xmlns:cc="http://creativecommons.org/ns#" xmlns:dc="http://purl.org/dc/elements/1.1/" xmlns:rdf="http://www.w3.org/1999/02/22-rdf-syntax-ns#">
 <defs id="defs8521">
  <clipPath id="clipPath1252">
   <path id="path1254" d="m411.59 515.35h94.948v18.13h-94.948z"/>
  </clipPath>
  <clipPath id="clipPath1288">
   <path id="path1290" d="m412.39 532.67h93.284v-15.246h-93.284z"/>
  </clipPath>
  <clipPath id="clipPath1292">
   <path id="path1294" d="m412.39 517.42h93.284v15.245h-93.284z"/>
  </clipPath>
  <linearGradient id="linearGradient1236" x2="1" gradientTransform="matrix(0 17.057 17.057 0 474.76 515.89)" gradientUnits="userSpaceOnUse">
   <stop id="stop1238" stop-color="#820021" offset="0"/>
   <stop id="stop1240" stop-color="#ae2c3f" offset=".10441"/>
   <stop id="stop1242" stop-color="#ae2c3f" offset=".90174"/>
   <stop id="stop1244" stop-color="#ba3c4c" offset="1"/>
  </linearGradient>
  <clipPath id="clipPath1202">
   <path id="path1204" d="m411.59 515.35h94.948v18.13h-94.948z"/>
  </clipPath>
  <clipPath id="clipPath1214">
   <path id="path1216" d="m505.84 530.72h0.017v-0.016h-0.017z"/>
  </clipPath>
  <linearGradient id="linearGradient1178" x2="1" gradientTransform="matrix(0 -17.343 17.343 0 459.06 533.09)" gradientUnits="userSpaceOnUse">
   <stop id="stop1180" stop-color="#868685" offset="0"/>
   <stop id="stop1182" stop-color="#d8d9d9" offset=".020448"/>
   <stop id="stop1184" stop-color="#f5f5f5" offset=".052404"/>
   <stop id="stop1186" stop-color="#edeeee" offset=".48766"/>
   <stop id="stop1188" stop-color="#f5f5f5" offset=".89549"/>
   <stop id="stop1190" stop-color="#ebebec" offset=".92944"/>
   <stop id="stop1192" stop-color="#d8d9d9" offset=".96426"/>
   <stop id="stop1194" stop-color="#868685" offset="1"/>
  </linearGradient>
 </defs>
 <metadata id="metadata8524">
  <rdf:RDF>
   <cc:Work rdf:about="">
    <dc:format>image/svg+xml</dc:format>
    <dc:type rdf:resource="http://purl.org/dc/dcmitype/StillImage"/>
    <dc:title/>
   </cc:Work>
  </rdf:RDF>
 </metadata>
 <g id="layer1" transform="translate(-192.09 474.88)">
  <g id="g4201" transform="matrix(19.99 0 0 19.99 -3647.6 -5121.6)">
   <g id="g1166" transform="matrix(1.25 0 0 -1.25 -322.4 899.31)">
    <g id="g1168">
     <g id="g1174">
      <g id="g1176">
       <path id="path1196" d="m414.08 532.94c-1.345 0-1.823-0.794-1.823-2.114v-12.829c0-1.32 0.478-2.114 1.823-2.114h89.96c1.345 0 1.822 0.794 1.822 2.114v12.829c0 1.32-0.477 2.114-1.822 2.114z" fill="url(#linearGradient1178)"/>
      </g>
     </g>
    </g>
   </g>
   <g id="g1198" transform="matrix(1.25 0 0 -1.25 -322.4 899.31)">
    <g id="g1200" clip-path="url(#clipPath1202)">
     <g id="g1206" transform="translate(503.93 515.35)">
      <path id="path1208" d="m0 0c1.996 0 2.605 1.241 2.605 2.482v13.166c0 1.241-0.609 2.482-2.605 2.482h-89.738c-1.997 0-2.605-1.241-2.605-2.482v-13.166c0-1.241 0.608-2.482 2.605-2.482zm-89.646 0.167c-1.344 0-2.254 0.793-2.254 2.114v13.568c0 1.321 0.91 2.114 2.254 2.114h89.554c1.344 0 2.254-0.793 2.254-2.114v-13.568c0-1.321-0.91-2.114-2.254-2.114z" fill="#a1a2a2"/>
     </g>
     <g id="g1210">
      <g id="g1218">
       <g id="g1220" clip-path="url(#clipPath1214)" opacity=".8"></g>
      </g>
     </g>
    </g>
   </g>
   <g id="g1224" transform="matrix(1.25 0 0 -1.25 -322.4 899.31)">
    <g id="g1226">
     <g id="g1232">
      <g id="g1234">
       <path id="path1246" d="m443.66 532.94v-17.057h60.388c1.345 0 1.822 0.794 1.822 2.114v12.829c0 1.32-0.477 2.114-1.822 2.114z" fill="url(#linearGradient1236)"/>
      </g>
     </g>
    </g>
   </g>
   <g id="g1248" transform="matrix(1.25 0 0 -1.25 -322.4 899.31)">
    <g id="g1250" clip-path="url(#clipPath1252)">
     <g id="g1256" transform="translate(452.08 519.04)">
      <path id="path1258" d="m0 0c-0.756 0-1.454 0.136-2.093 0.408-0.639 0.273-1.192 0.649-1.661 1.129-0.469 0.481-0.836 1.052-1.102 1.714s-0.4 1.377-0.4 2.146c0 0.747 0.134 1.446 0.4 2.098 0.266 0.651 0.633 1.217 1.102 1.697 0.469 0.481 1.022 0.857 1.661 1.129 0.639 0.273 1.337 0.409 2.093 0.409 0.543 0 1.07-0.059 1.581-0.176 0.512-0.118 0.985-0.268 1.422-0.449 0.096-1.42-0.25-2.13-1.038-2.13-0.139 0-0.266 0.016-0.384 0.048-0.117 0.032-0.245 0.064-0.383 0.096-0.139 0.032-0.293 0.064-0.463 0.096-0.171 0.032-0.373 0.049-0.607 0.049-0.373 0-0.724-0.067-1.055-0.201-0.33-0.133-0.614-0.326-0.854-0.576-0.24-0.251-0.429-0.553-0.567-0.905-0.139-0.352-0.208-0.748-0.208-1.185 0-0.46 0.069-0.871 0.208-1.233 0.138-0.363 0.327-0.67 0.567-0.921s0.524-0.443 0.854-0.577c0.331-0.133 0.682-0.2 1.055-0.2 0.234 0 0.442 0.016 0.623 0.048s0.343 0.064 0.487 0.096 0.28 0.064 0.407 0.096c0.128 0.032 0.261 0.048 0.4 0.048 0.777 0 1.123-0.71 1.038-2.13-0.437-0.181-0.924-0.331-1.462-0.448s-1.078-0.176-1.621-0.176" fill="#fff"/>
     </g>
     <g id="g1260" transform="translate(457.59 519.17)">
      <path id="path1262" d="m0 0c-0.224 0-0.445 0.011-0.663 0.032s-0.402 0.048-0.551 0.08v9.273c0 0.309 0.096 0.573 0.287 0.792 0.192 0.219 0.554 0.329 1.087 0.329 0.223 0 0.444-0.011 0.663-0.033 0.218-0.021 0.402-0.048 0.551-0.08v-9.272c0-0.31-0.096-0.574-0.288-0.793-0.191-0.219-0.554-0.328-1.086-0.328" fill="#fff"/>
     </g>
     <g id="g1264" transform="translate(461.96 519.17)">
      <path id="path1266" d="m0 0c-0.213 0-0.421 0.011-0.623 0.032-0.203 0.021-0.373 0.048-0.511 0.08v10.201c0.159 0.054 0.367 0.099 0.623 0.137 0.255 0.037 0.473 0.056 0.655 0.056 0.585 0 1.011-0.075 1.278-0.225 0.266-0.149 0.489-0.368 0.671-0.656l3.626-5.717v5.573c0 0.138 0.018 0.269 0.056 0.392 0.037 0.123 0.101 0.232 0.191 0.328 0.091 0.096 0.216 0.171 0.376 0.224 0.159 0.054 0.362 0.081 0.607 0.081 0.213 0 0.418-0.011 0.615-0.033 0.197-0.021 0.364-0.042 0.503-0.063v-10.218c-0.149-0.075-0.33-0.125-0.543-0.152s-0.421-0.04-0.623-0.04c-0.501 0-0.874 0.069-1.118 0.208-0.246 0.139-0.448 0.331-0.607 0.577l-3.882 6.214v-5.942c0-0.299-0.091-0.55-0.272-0.753s-0.522-0.304-1.022-0.304" fill="#fff"/>
     </g>
     <g id="g1268" transform="translate(473.3 519.23)">
      <path id="path1270" d="m0 0c-0.298 0-0.541 0.032-0.727 0.096s-0.33 0.152-0.431 0.264c-0.102 0.112-0.171 0.248-0.208 0.409-0.037 0.16-0.056 0.33-0.056 0.512v7.847c0 0.182 0.019 0.353 0.056 0.513s0.106 0.296 0.208 0.408c0.101 0.112 0.245 0.2 0.431 0.264s0.429 0.096 0.727 0.096h5.287c0.022-0.117 0.043-0.277 0.064-0.48 0.022-0.203 0.032-0.411 0.032-0.624 0-0.449-0.09-0.767-0.271-0.953-0.182-0.187-0.41-0.281-0.687-0.281h-3.259v-1.825h3.754c0.021-0.107 0.043-0.249 0.064-0.425s0.032-0.366 0.032-0.568c0-0.427-0.086-0.718-0.256-0.873s-0.383-0.232-0.639-0.232h-2.955v-1.81h4.281c0.021-0.118 0.043-0.28 0.064-0.488 0.021-0.209 0.032-0.414 0.032-0.617 0-0.459-0.091-0.779-0.272-0.961-0.181-0.181-0.41-0.272-0.686-0.272z" fill="#fff"/>
     </g>
     <g id="g1272" transform="translate(480.98 519.17)">
      <path id="path1274" d="m0 0c-0.245 0-0.461 0.024-0.647 0.072-0.187 0.048-0.349 0.104-0.487 0.168l0.976 9.977c0.203 0.086 0.469 0.155 0.799 0.208 0.33 0.054 0.612 0.081 0.846 0.081 0.33 0 0.615-0.022 0.854-0.065 0.24-0.042 0.445-0.114 0.615-0.216 0.17-0.101 0.306-0.243 0.407-0.424 0.101-0.182 0.178-0.406 0.232-0.673l0.415-1.937c0.117-0.534 0.242-1.124 0.375-1.77s0.253-1.311 0.359-1.994h0.064c0.117 0.683 0.239 1.345 0.367 1.986s0.261 1.228 0.399 1.761l0.51 2.034c0.128 0.502 0.332 0.844 0.614 1.025 0.282 0.182 0.721 0.273 1.316 0.273 0.298 0 0.598-0.025 0.901-0.073s0.556-0.098 0.758-0.152l0.934-10.041c-0.149-0.053-0.328-0.107-0.535-0.16-0.208-0.053-0.434-0.08-0.679-0.08-0.341 0-0.629 0.059-0.863 0.176-0.234 0.118-0.362 0.337-0.383 0.657l-0.24 3.459c-0.053 0.609-0.098 1.246-0.136 1.914-0.037 0.667-0.061 1.299-0.072 1.898h-0.032c-0.138-0.556-0.279-1.156-0.423-1.802s-0.29-1.241-0.439-1.786l-0.655-2.722c-0.16-0.641-0.666-0.961-1.518-0.961-0.213 0-0.431 0.021-0.655 0.064-0.223 0.042-0.415 0.09-0.575 0.144l-0.814 3.395c-0.16 0.63-0.309 1.249-0.447 1.858-0.139 0.608-0.267 1.217-0.384 1.825h-0.048c-0.032-0.854-0.074-1.636-0.128-2.346-0.053-0.71-0.101-1.321-0.143-1.833l-0.256-3.123c-0.021-0.31-0.138-0.523-0.351-0.641-0.214-0.117-0.49-0.176-0.831-0.176" fill="#fff"/>
     </g>
     <g id="g1276" transform="translate(496.06 523.54)">
      <path id="path1278" d="m0 0h2.39l-1.192 3.923zm-2.492-4.404c-0.202 0-0.434 0.019-0.694 0.056-0.262 0.037-0.477 0.088-0.647 0.152l3.314 10.153c0.288 0.075 0.579 0.129 0.873 0.161s0.563 0.048 0.809 0.048c0.352 0 0.654-0.027 0.905-0.08 0.251-0.054 0.462-0.134 0.633-0.241s0.312-0.248 0.424-0.424 0.206-0.382 0.281-0.617l2.84-8.984c-0.181-0.075-0.399-0.131-0.655-0.168-0.255-0.037-0.506-0.056-0.75-0.056-0.278 0-0.546 0.045-0.807 0.136s-0.45 0.296-0.567 0.617l-0.544 1.649h-3.484l-0.461-1.553c-0.117-0.374-0.314-0.609-0.591-0.705s-0.57-0.144-0.879-0.144" fill="#fff"/>
     </g>
     <g id="g1280" transform="translate(423.12 522.78)">
      <path id="path1282" d="m0 0c0-1.46-0.955-2.527-2.894-2.738-1.404-0.15-3.438 0.027-4.404 0.138-0.036 0.158-0.064 0.354-0.064 0.508 0 1.278 0.691 1.569 1.338 1.569 0.672 0 1.73-0.116 2.518-0.116 0.865 0 1.129 0.294 1.129 0.573 0 0.367-0.349 0.52-1.021 0.648l-1.839 0.354c-1.531 0.293-2.348 1.352-2.348 2.476 0 1.366 0.967 2.509 2.868 2.72 1.438 0.155 3.187-0.02 4.148-0.138 0.035-0.165 0.053-0.321 0.053-0.492 0-1.274-0.671-1.549-1.319-1.549-0.497 0-1.269 0.093-2.15 0.093-0.897 0-1.269-0.248-1.269-0.55 0-0.319 0.355-0.451 0.916-0.549l1.758-0.326c1.806-0.333 2.58-1.359 2.58-2.621m3.155-1.568c0-0.783-0.307-1.235-1.836-1.235-0.203 0-0.38 0.015-0.55 0.04v10.39c0 0.789 0.269 1.612 1.813 1.612 0.194 0 0.391-0.02 0.573-0.058zm6.25-4.019c0.2-0.103 0.612-0.227 1.131-0.241 0.886-0.019 1.371 0.321 1.73 1.116l4.764 10.626c-0.197 0.106-0.631 0.223-0.988 0.231-0.612 0.011-1.434-0.114-1.96-1.367l-1.543-3.641-3.025 4.927c-0.195 0.06-0.671 0.146-1.021 0.146-1.067 0-1.665-0.394-2.284-1.066l-2.941-3.217 2.366-3.723c0.437-0.678 1.013-1.024 1.949-1.024 0.612 0 1.121 0.139 1.357 0.252l-2.848 4.295 2.019 2.139 3.311-5.197z" fill="#ae2c3f"/>
     </g>
     <g id="g1284">
      <g id="g1296">
       <g id="g1298" clip-path="url(#clipPath1288)" opacity=".39999">
        <g id="g1300">
         <g id="g1302">
          <g id="g1304" clip-path="url(#clipPath1292)">
           <g id="g1306" transform="translate(504.17 519.89)">
            <path id="path1308" d="m0 0c1.156-1.145 1.313-2.225 1.354-2.463 0.114 0 0.156 0.506 0.156 1.261l-4e-3 12.109c0 1.402-0.456 1.876-1.644 1.876-0.402 0-0.804-0.216-1.339-0.216h-87.31c-0.536 0-0.938 0.216-1.34 0.216-1.187 0-1.643-0.474-1.643-1.876l-4e-3 -12.109c0-0.755 0.041-1.261 0.155-1.261 0.041 0.238 0.076 1.402 1.354 2.463 10.208 7.878 79.259 10.296 90.265 0" fill="#fff"/>
           </g>
          </g>
         </g>
        </g>
       </g>
      </g>
     </g>
    </g>
   </g>
  </g>
  <g id="#000000ff" transform="matrix(1.0031 0 0 1.0031 625.86 45.435)" fill="#fff">
   <path id="path2" d="m414.53 42.7c17.99-2.87 37.14-0.46 53.12 8.59 15.75 8.54 27.85 23.09 34.33 39.72 11.46 29.46 7.11 65.18-12.99 89.93-11.53 14.47-28.65 24.32-46.95 27.08-17.43 2.63-35.92 0.23-51.4-8.49-16.01-8.69-28.13-23.58-34.83-40.39-11.19-28.26-8.01-62.5 10.29-87.12 11.51-15.58 29.33-26.23 48.43-29.32m3.88 24.88c-13.19 2.98-24.53 12.08-31.22 23.71-8.83 14.81-10.6 33.06-7.02 49.73 3.16 14.33 11.28 27.99 23.87 35.92 11.51 7.55 26.59 9.36 39.52 4.58 12.04-4.48 22.01-13.83 27.94-25.16 8.1-15.27 9.57-33.65 5.1-50.25-3.61-13.34-11.83-25.7-23.8-32.9-10.12-6.37-22.77-8.27-34.39-5.63z"/>
   <path id="path4" d="m704.4 57.39c10.17-9.27 24.01-13.57 37.56-14.32 20.26-1.26 40.59 2.48 59.68 9.15 0.02 6.05 0.13 12.75-3.67 17.83-3.31 4.16-9.26 3.94-13.98 3.01-14.75-3.01-29.89-6.03-44.98-3.98-5.75 0.89-11.66 2.85-15.8 7.12-6.35 6.37-5.97 18.63 1.72 23.79 7.75 5.04 16.96 6.93 25.69 9.57 14.09 4.25 29.11 6.97 41.35 15.66 8.98 6.14 15.65 15.87 17.06 26.76 1.68 12.79-0.62 26.81-8.97 37-9.21 11.14-23.65 16.39-37.61 18.16-23.91 2.84-48.1-1.61-70.81-9.04-0.47-6.48-0.12-13.89 4.47-18.96 4.25-4.14 10.72-2.98 15.96-1.87 15.67 3.65 31.87 7.03 48 4.61 6.39-0.92 12.98-3.48 16.9-8.87 5.63-7.21 5.69-19.23-1.83-25.17-6.55-5.08-14.88-6.82-22.63-9.21-15.78-4.63-32.89-7.59-45.99-18.27-18.45-15.16-19.62-46.67-2.12-62.97z"/>
   <path id="path6" d="m1229.5 63.44c8.39-11.77 22.72-17.88 36.68-19.76 22.23-2.7 44.81 1.24 65.83 8.53 0.03 6.09 0.16 12.87-3.76 17.95-3.16 3.88-8.75 3.83-13.25 3.01-14.42-2.91-29.14-5.93-43.92-4.32-6.38 0.75-13.07 2.72-17.63 7.49-6.34 6.53-5.72 18.99 2.28 23.93 7.98 4.99 17.35 6.87 26.25 9.57 11.35 3.45 23.21 5.75 33.78 11.38 7.83 4.06 14.97 9.95 19.28 17.75 3.94 6.96 5.21 15.14 4.84 23.05-0.42 10.66-3.91 21.6-11.54 29.32-9.61 9.88-23.39 14.43-36.8 15.96-23.51 2.51-47.22-1.9-69.52-9.2-0.47-6.22-0.11-13.11 3.82-18.26 3.43-4.25 9.49-3.98 14.35-3.02 12.16 2.57 24.34 5.74 36.86 5.82 8.66 0.08 18-0.25 25.53-5.07 7.95-5.2 11.2-16.47 6.88-24.99-3.29-6.06-10.12-8.74-16.3-10.83-11.9-3.99-24.24-6.52-36.11-10.62-10.02-3.6-20.15-8.69-26.49-17.56-10.7-14.32-10.89-35.34-1.06-50.13z"/>
   <path id="path8" d="m176.63 47.28c10.07-3.5 21.34-4.42 31.69-1.57 5.82 1.52 10.06 6.62 11.38 12.38 9.23 36.17 18.25 72.4 27.52 108.56 9.54-36.13 18.57-72.39 28.04-108.53 1.54-5.93 6.21-10.88 12.14-12.51 9.95-2.88 20.56-1.37 30.48 0.84 5.29 52.62 10.38 105.26 15.59 157.89-7.1 2.7-15.4 4.09-22.55 0.87-3.15-1.36-4.42-4.89-4.59-8.08-3.51-42.23-6.95-84.47-10.51-126.7-9.69 36.1-19.39 72.2-29.06 108.3-1.25 5.47-3.18 11.79-8.8 14.23-8.26 3.44-17.7 2.37-26.17 0.26-11.36-40.93-22.72-81.87-34.12-122.79-3.86 42.16-7.63 84.33-11.45 126.5-0.16 3.1-1.24 6.56-4.21 8.06-6.8 3.44-14.97 2.19-21.76-0.63 5.44-52.36 11-104.71 16.38-157.08z"/>
   <path id="path10" d="m532.45 46.4c7.59-2.6 15.87-2.92 23.75-1.6 5.73 0.92 10.12 5.28 13.09 10.01 23.92 36.96 47.83 73.93 71.77 110.88-0.48-36.87-1.03-73.74-1.46-110.62-0.2-4.5 2.58-9.28 7.16-10.33 6.13-1.41 12.53-0.47 18.67 0.48 0.03 53.29-0.01 106.58 0.02 159.87-6.78 2.39-14.17 2.71-21.22 1.56-5.37-0.87-9.74-4.7-12.59-9.16-24.79-38.59-49.54-77.2-74.34-115.79 0.44 38.11 1.01 76.21 1.45 114.31 0.31 4.64-2.45 9.67-7.27 10.61-6.27 1.28-12.76 0.57-19.04-0.25 0-53.33-0.02-106.65 0.01-159.97z"/>
   <path id="path12" d="m818.73 50.7c1.15-4.42 6.13-6.18 10.26-6.12 38.84-0.05 77.67 0 116.51-0.02 0.88 6.39 1.84 13.23-0.47 19.43-1.53 4.01-5.91 6.09-10.03 5.88-12.89 0.03-25.79-0.01-38.68 0.02 0 41.04-0.04 82.09 0.02 123.14 0.45 5.01-1.14 11.09-6.32 13.02-6.91 2.32-14.39 0.95-21.44 0.12-0.19-45.42-0.02-90.86-0.09-136.29-16.56-0.01-33.12 0-49.68 0-0.86-6.32-1.67-12.92-0.08-19.18z"/>
   <path id="path14" d="m965.94 47.06c2.83-2.16 6.56-2.4 9.99-2.5h84.22c0.95 6.05 1.9 12.36 0.45 18.41-1.03 4.2-5.33 6.93-9.53 6.87-20.31 0.1-40.63 0-60.94 0.04-0.01 14.37 0 28.74-0.01 43.11 21.34 0.02 42.68 0 64.02 0.02 0.67 5.82 1.73 11.83 0.27 17.61-0.99 4.15-5.3 6.67-9.39 6.48-18.3 0.07-36.6 0-54.89 0.03-0.01 14.43-0.01 28.87 0 43.3 24.06 0.01 48.13 0 72.19 0.01 0.71 6.17 1.83 12.59 0.07 18.68-1.16 4.03-5.22 6.77-9.35 6.67-25.36 0.06-50.71 0.01-76.07 0.02-3.81-0.1-8.06-0.16-11.17-2.65-2.98-2.85-3.53-7.25-3.49-11.16 0.01-44.68-0.01-89.37 0-134.05-0.01-3.85 0.65-8.16 3.63-10.89z"/>
   <path id="path16" d="m1091.6 47.64c2.69-2.68 6.78-2.93 10.37-3.07 14.66-0.01 29.32-0.03 43.97 0.01 13.89 0.25 28.42 3.33 39.46 12.22 8.4 6.61 13.98 16.48 15.7 27 2.38 13.53 0.19 28.24-7.97 39.53-8.07 11.59-21.63 18.45-35.48 20.01 16.72 19.83 33.44 39.67 50.11 59.54-8.23 4.28-18.01 5.57-27.02 3.32-5.98-1.65-10.22-6.53-13.9-11.22-13.06-16.8-26.19-33.55-39.21-50.38-3.75-0.05-7.49-0.05-11.22-0.03-0.04 17.15 0.03 34.3-0.03 51.45 0.1 4.79-3.11 9.65-7.96 10.6-6.55 1.34-13.31 0.48-19.84-0.52-0.01-48.37 0.02-96.73-0.01-145.1-0.04-4.56-0.17-9.71 3.03-13.36m24.8 22.27c0 16.92-0.01 33.85 0 50.77 5.85 0.01 11.71 0 17.57 0.01 9.06 0.02 18.51 0.03 26.93-3.79 7.06-3.12 11.92-10.23 12.88-17.82 1.14-7.87-0.35-16.84-6.47-22.42-6.06-5.42-14.6-6.55-22.42-6.74-9.5-0.08-19-0.05-28.49-0.01z"/>
  </g>
 </g>
</svg>
