<?xml version="1.0" encoding="UTF-8" standalone="no"?>
<svg
   xmlns:dc="http://purl.org/dc/elements/1.1/"
   xmlns:cc="http://creativecommons.org/ns#"
   xmlns:rdf="http://www.w3.org/1999/02/22-rdf-syntax-ns#"
   xmlns:svg="http://www.w3.org/2000/svg"
   xmlns="http://www.w3.org/2000/svg"
   xmlns:sodipodi="http://sodipodi.sourceforge.net/DTD/sodipodi-0.dtd"
   xmlns:inkscape="http://www.inkscape.org/namespaces/inkscape"
   viewBox="0 0 687.9 120"
   version="1.1"
   id="svg30"
   sodipodi:docname="Sky Sports Premier League.svg"
   inkscape:version="0.92.0 r15299">
  <metadata
     id="metadata36">
    <rdf:RDF>
      <cc:Work
         rdf:about="">
        <dc:format>image/svg+xml</dc:format>
        <dc:type
           rdf:resource="http://purl.org/dc/dcmitype/StillImage" />
      </cc:Work>
    </rdf:RDF>
  </metadata>
  <defs
     id="defs34" />
  <sodipodi:namedview
     pagecolor="#ffffff"
     bordercolor="#666666"
     borderopacity="1"
     objecttolerance="10"
     gridtolerance="10"
     guidetolerance="10"
     inkscape:pageopacity="0"
     inkscape:pageshadow="2"
     inkscape:window-width="1920"
     inkscape:window-height="1017"
     id="namedview32"
     showgrid="false"
     inkscape:zoom="1.1677181"
     inkscape:cx="359.18126"
     inkscape:cy="30.94231"
     inkscape:window-x="-8"
     inkscape:window-y="-8"
     inkscape:window-maximized="1"
     inkscape:current-layer="svg30" />
  <path
     fill="#999"
     d="M682.2.4c.5.2 1 .4 1.4.6-.4-.3-.8-.5-1.4-.6zM686 2.9c-.5-.6-1.1-1.1-1.7-1.5.7.4 1.3.9 1.7 1.5zM683.7 119c-.5.2-.9.5-1.4.6.5-.1.9-.3 1.4-.6zM679.9 120c.6 0 1.1-.1 1.6-.2-.5.1-1.1.2-1.6.2zM679.9 0c.6 0 1.1.1 1.6.2-.5-.1-1.1-.2-1.6-.2zM686 2.9c1.1 1.4 1.8 3.2 1.8 5.1v104c0 1.9-.7 3.7-1.8 5.1 1.1-1.4 1.8-3.2 1.8-5.1V8c.1-1.9-.6-3.7-1.8-5.1zM684.3 118.6c.6-.4 1.2-1 1.7-1.5-.4.6-1 1.1-1.7 1.5z"
     id="path4" />
  <path
     d="m 682.4,120 c 3,0 5.5,-2.5 5.5,-5.5 V 5.5 c 0,-3 -2.5,-5.5 -5.5,-5.5 H 567 v 120 z"
     id="path2-6"
     style="fill:#ffffff;fill-opacity:1"
     inkscape:connector-curvature="0"
     sodipodi:nodetypes="ssssccs" />
  <path
     fill="#480C4D"
     d="M602.8 17.5c4.3 2 7.1 4.5 7.6 4.8-.2-1.1-1.1-6.5-1.6-9.8 2.5 1.7 8.3 5.8 10.3 7.1.8-2.4 3.5-10.3 3.5-10.3s4.9 7.9 5.7 9.2c1-1.1 6.9-7.6 8.4-9.2.3 3.7.6 9.1.7 9.9.3-.4 2.5-3.5 6.3-6.4-1.6 3.2-2.4 7.6-2.8 11.2-3.7-1-7.6-1.6-11.6-1.6-7.7 0-15 2-21.2 5.6-1.2-3.4-2.9-7.7-5.3-10.5m59 67.6l-3.4-3.8c-1 10.2-5.9 18.8-15.1 24.8l-1.4-5.5c-7.8 5.6-21.1 9.2-32.5 2.8 1.4-7.3 2.7-14.6 0-23.4-6.3 9.8-12 13.7-12 13.7-4.3-7.2-3.9-21.6-2.6-25.9l-7.1 2.2c0-4.8 3.5-15.1 8.5-20.9l-4.5-.7c3-6.2 7.5-11.5 13.1-15.5-1.7 2.6-1.7 9.1 3.2 11.6-2.1-3.6-2.3-8.1-.2-10.4 2.2-2.3 5.8-1.5 8.1.3-.7-2-2.7-4.6-5.7-4.7 5.7-2.9 12.2-4.6 19.1-4.6 1.3 0 2.5.1 3.8.2 2 .8 4.9 3.6 6.3 5.4 0 0 .1-2.1-1-4.6 7.4 1.8 11 4.8 12.5 6.3.3 3.2 1.3 5.1 2.5 8.2-2.4-2.7-8.5-7-11.3-8.1 0 0-.2 2.8-1.2 4.1-5.7-4.2-8.6-5.2-8.6-5.2-6.3.9-10.4 3.3-12.6 5.3l1.9 1.6c-3.8 1.2-6.3 4.4-6.3 4.4 0 .1 3.4.5 3.4.5s-.3 4 4.6 6.4c4.2 2.1 10.4-.5 16.1 1.8-3.8-4.4-6.4-6.3-6.4-6.3s-1.5-.3-2.6-.3c-1.3 0-3.3.3-5.5-.6-1-.4-2.2-1.1-3.2-1.7 0 0 2.7-2.7 6.5-3.3 0 0 3.5 1 6.3 3 1.8-1.8 3.8-1.7 3.8-1.7s-1.9 1.8-1.3 3.9c2.8 2.5 5.8 6 5.8 6 3.1-1.7 9.7-1.3 11.1.3-1.7-2.2-4.2-4.1-6.2-5.7-.2-.8-2.3-3.8-2.7-4 0 0 2 .6 3.8 2.2.5-.7 1.5-1.5 2.8-1.8 1.3 1.1 1.6 2.9 1.5 3.2-.6.7-1.2 1-1.2 1l3.2 3.5.3-2.5c7.6 10.6 11.7 22.9 6.4 38.5m-14.1-23v-5.5s-2.5-.8-5.1-2.8c-5.3.8-11.7 6.1-11.7 6.1s2.2 4.1 4.5 8.5c4.2.6 10.4-4.7 12.3-6.3m5.4 10s-.4-2.3-2.2-4.4l-4.1.1s-5.6 4.8-8.9 4.9c0 0 1.9 3.5 2.8 5.3 1.9-.4 5.1-1.9 6.5-3.4 0 0 .9 2.8.7 6.1 1.7-1.1 4.3-4 5.2-8.6m1.6-18.1c-2.1 1.7-3.8 2.7-3.8 2.7v5.5c1.5 1.7 3 3 4.1 5.5 2.1-3.7 1.7-9.2-.3-13.7"
     id="path8" />
  <g
     id="g28">
    <linearGradient
       id="a"
       gradientUnits="userSpaceOnUse"
       x1="-8599.162"
       y1="-4719.377"
       x2="-8599.162"
       y2="-4553.606"
       gradientTransform="rotate(180 -4107.903 -2290.35)">
      <stop
         offset="0"
         stop-color="#a80002"
         id="stop10" />
      <stop
         offset="1"
         stop-color="#ea021a"
         id="stop12" />
    </linearGradient>
    <path
       fill="url(#a)"
       d="M199.7 0H567v120H199.7z"
       id="path15" />
    <linearGradient
       id="b"
       gradientUnits="userSpaceOnUse"
       x1="99.851"
       y1="138.674"
       x2="99.851"
       y2="-27.096">
      <stop
         offset="0"
         stop-color="#00043b"
         id="stop17" />
      <stop
         offset="1"
         stop-color="#002672"
         id="stop19" />
    </linearGradient>
    <path
       fill="url(#b)"
       d="M199.7 120H8c-4.4 0-8-3.6-8-8V7.9C0 3.7 3.5 0 7.9 0h191.8v120z"
       id="path22" />
    <path
       fill="#FFF"
       d="M135 106.7c1.3.7 3.9 1.5 7.3 1.5 5.7.1 8.8-2.1 11.1-7.2L184 32.8c-1.3-.7-4.1-1.4-6.3-1.5-3.9-.1-9.2.7-12.6 8.8l-9.9 23.4L135.7 32c-1.3-.4-4.3-.9-6.6-.9-6.8 0-10.7 2.5-14.7 6.8L95.6 58.5l15.2 23.9c2.8 4.4 6.5 6.6 12.5 6.6 3.9 0 7.2-.9 8.7-1.6l-18.3-27.6 13-13.7L148 79.5l-13 27.2zM94.9 80.9c0 5-2 7.9-11.8 7.9-1.3 0-2.4-.1-3.5-.3V21.9c0-5.1 1.7-10.3 11.6-10.3 1.2 0 2.5.1 3.7.4v68.9zm-20.3-10c0 9.4-6.1 16.2-18.6 17.6-9 1-22.1-.2-28.3-.9-.2-1-.4-2.3-.4-3.3 0-8.2 4.4-10.1 8.6-10.1 4.3 0 11.1.7 16.2.7 5.6 0 7.2-1.9 7.2-3.7 0-2.4-2.2-3.3-6.6-4.2L41 64.9C31.2 63 26 56.2 26 49c0-8.8 6.2-16.1 18.4-17.5 9.2-1 20.5.1 26.6.9.2 1.1.3 2.1.3 3.2 0 8.2-4.3 9.9-8.5 9.9-3.2 0-8.1-.6-13.8-.6-5.8 0-8.1 1.6-8.1 3.5 0 2 2.3 2.9 5.9 3.5L58.1 54c11.6 2.2 16.5 8.8 16.5 16.9M224.3 85.3c-.6-4.7.9-7.2 3.4-7.2 2.7 0 9.2 3 18.4 3 9.8 0 13.5-3.6 13.5-8.2 0-3.2-1.4-5.8-10.4-8.3l-10-2.8c-10.7-2.9-15.1-8.3-15.1-15.1 0-8.2 6.5-15.8 21.6-15.8 6.8 0 15.2 1.6 20.2 3.6.6 4.6-.9 7-3.2 7-2.5 0-8.6-2.8-17-2.8-9 0-12.4 3.3-12.4 7.6 0 2.8 1.3 5.4 9.5 7.7l10.2 3c11.3 3.2 15.9 8.5 15.9 15.6 0 8.8-6.9 16.6-23 16.6-7.4 0-16.3-1.8-21.6-3.9M334.9 60c0 18.1-12.7 29.1-27 29.1-8.6 0-15.5-4-19.6-9.8v24.5c0 2.1-1.2 3.5-4.8 3.5-1.6 0-3.4-.2-4.2-.5V32.3c.8-.2 2.6-.6 4.2-.6 3.6 0 4.8 1.4 4.8 3.5v5.6c4.1-5.8 11-9.8 19.6-9.8 14.3.1 27 11 27 29m-9.2 0c0-12.4-8.3-20.9-19.4-20.9-7.7 0-14.8 4.4-18 10.9v20.3c3.2 6.4 10.3 10.9 18 10.9 11.1-.1 19.4-8.6 19.4-21.2M343.8 60c0-16.6 12.3-28.9 28.7-28.9 16.5 0 28.7 12.4 28.7 28.9 0 16.7-12.3 29.1-28.7 29.1S343.8 76.7 343.8 60m48.2 0c0-12.8-8.8-20.9-19.5-20.9S353 47.2 353 60c0 13 8.8 21.1 19.5 21.1S392 73 392 60M446.2 36.1c0 3.4-1.5 4.2-4.8 4.2-6.4 0-15.5 2.1-20.1 12.4v32.2c0 2.2-1.2 3.5-4.8 3.5-1.6 0-3.4-.2-4.2-.5V32.3c.8-.2 2.6-.6 4.2-.6 3.6 0 4.8 1.4 4.8 3.5V42c5.1-7.4 14-11.4 24.5-9.7.1.7.4 2.4.4 3.8M498.2 85.3c-.6-4.7.9-7.2 3.4-7.2 2.7 0 9.2 3 18.4 3 9.8 0 13.5-3.6 13.5-8.2 0-3.2-1.4-5.8-10.4-8.3l-10-2.8c-10.7-2.9-15.1-8.3-15.1-15.1 0-8.2 6.5-15.8 21.6-15.8 6.8 0 15.2 1.6 20.2 3.6.6 4.6-.9 7-3.2 7-2.4 0-8.6-2.8-17-2.8-9 0-12.4 3.3-12.4 7.6 0 2.8 1.3 5.4 9.5 7.7l10.2 2.8c11.3 3.2 15.9 8.5 15.9 15.6 0 8.8-6.9 16.6-23 16.6-7.3.2-16.2-1.6-21.6-3.7M489 85.3c-4.8 2.3-10.4 3.7-16.1 3.7-11 0-17.6-6.3-17.6-17.2v-50c0-2.1 1.2-3.5 4.8-3.5 1.6 0 3.4.4 4.2.7v13.2h22.3c.1.7.3 2.2.3 3.6 0 3.3-1.4 4.3-3.4 4.3h-19.3V71c0 6.8 3.3 9.7 9.6 9.7 5.7 0 9.1-2.2 11.8-2.2 2.6.2 3.9 2.5 3.4 6.8"
       id="path24" />
    <path
       opacity=".2"
       fill="#FFF"
       d="M8 0h559v46.3L11.5 68.5C5.1 68.7 0 74 0 80.4V8c0-4.4 3.6-8 8-8z"
       id="path26" />
  </g>
</svg>
