<?xml version="1.0" encoding="UTF-8"?>
<!-- Created with Inkscape (http://www.inkscape.org/) -->
<svg id="svg8519" width="2372.4" height="730" version="1.1" viewBox="0 0 2372.4 730" xmlns="http://www.w3.org/2000/svg" xmlns:cc="http://creativecommons.org/ns#" xmlns:dc="http://purl.org/dc/elements/1.1/" xmlns:rdf="http://www.w3.org/1999/02/22-rdf-syntax-ns#">
 <defs id="defs8521">
  <clipPath id="clipPath1252">
   <path id="path1254" d="m411.59 515.35h94.948v18.13h-94.948v-18.13z"/>
  </clipPath>
  <clipPath id="clipPath1288">
   <path id="path1290" d="m412.39 532.67h93.284v-15.246h-93.284v15.246z"/>
  </clipPath>
  <clipPath id="clipPath1292">
   <path id="path1294" d="m412.39 517.42h93.284v15.245h-93.284v-15.245z"/>
  </clipPath>
  <linearGradient id="linearGradient1236" x2="1" gradientTransform="matrix(0 17.057 17.057 0 474.76 515.89)" gradientUnits="userSpaceOnUse">
   <stop id="stop1238" stop-color="#820021" offset="0"/>
   <stop id="stop1240" stop-color="#ae2c3f" offset=".10441"/>
   <stop id="stop1242" stop-color="#ae2c3f" offset=".90174"/>
   <stop id="stop1244" stop-color="#ba3c4c" offset="1"/>
  </linearGradient>
  <clipPath id="clipPath1202">
   <path id="path1204" d="m411.59 515.35h94.948v18.13h-94.948v-18.13z"/>
  </clipPath>
  <clipPath id="clipPath1214">
   <path id="path1216" d="m505.84 530.72h0.017v-0.016h-0.017v0.016z"/>
  </clipPath>
  <linearGradient id="linearGradient1178" x2="1" gradientTransform="matrix(0 -17.343 17.343 0 459.06 533.09)" gradientUnits="userSpaceOnUse">
   <stop id="stop1180" stop-color="#868685" offset="0"/>
   <stop id="stop1182" stop-color="#d8d9d9" offset=".020448"/>
   <stop id="stop1184" stop-color="#f5f5f5" offset=".052404"/>
   <stop id="stop1186" stop-color="#edeeee" offset=".48766"/>
   <stop id="stop1188" stop-color="#f5f5f5" offset=".89549"/>
   <stop id="stop1190" stop-color="#ebebec" offset=".92944"/>
   <stop id="stop1192" stop-color="#d8d9d9" offset=".96426"/>
   <stop id="stop1194" stop-color="#868685" offset="1"/>
  </linearGradient>
 </defs>
 <metadata id="metadata8524">
  <rdf:RDF>
   <cc:Work rdf:about="">
    <dc:format>image/svg+xml</dc:format>
    <dc:type rdf:resource="http://purl.org/dc/dcmitype/StillImage"/>
    <dc:title/>
   </cc:Work>
  </rdf:RDF>
 </metadata>
 <g id="layer1" transform="translate(-192.09 474.88)">
  <g id="g4201" transform="matrix(19.99 0 0 19.99 -3647.6 -5121.6)">
   <g id="g1166" transform="matrix(1.25 0 0 -1.25 -322.4 899.31)">
    <g id="g1168">
     <g id="g1174">
      <g id="g1176">
       <path id="path1196" d="m414.08 532.94c-1.345 0-1.823-0.794-1.823-2.114v-12.829c0-1.32 0.478-2.114 1.823-2.114h89.96c1.345 0 1.822 0.794 1.822 2.114v12.829c0 1.32-0.477 2.114-1.822 2.114h-89.96z" fill="url(#linearGradient1178)"/>
      </g>
     </g>
    </g>
   </g>
   <g id="g1198" transform="matrix(1.25 0 0 -1.25 -322.4 899.31)">
    <g id="g1200" clip-path="url(#clipPath1202)">
     <g id="g1206" transform="translate(503.93 515.35)">
      <path id="path1208" d="m0 0c1.996 0 2.605 1.241 2.605 2.482v13.166c0 1.241-0.609 2.482-2.605 2.482h-89.738c-1.997 0-2.605-1.241-2.605-2.482v-13.166c0-1.241 0.608-2.482 2.605-2.482h89.738zm-89.646 0.167c-1.344 0-2.254 0.793-2.254 2.114v13.568c0 1.321 0.91 2.114 2.254 2.114h89.554c1.344 0 2.254-0.793 2.254-2.114v-13.568c0-1.321-0.91-2.114-2.254-2.114h-89.554z" fill="#a1a2a2"/>
     </g>
     <g id="g1210">
      <g id="g1218">
       <g id="g1220" clip-path="url(#clipPath1214)" opacity=".8"></g>
      </g>
     </g>
    </g>
   </g>
   <g id="g1224" transform="matrix(1.25 0 0 -1.25 -322.4 899.31)">
    <g id="g1226">
     <g id="g1232">
      <g id="g1234">
       <path id="path1246" d="m443.66 532.94v-17.057h60.388c1.345 0 1.822 0.794 1.822 2.114v12.829c0 1.32-0.477 2.114-1.822 2.114h-60.388z" fill="url(#linearGradient1236)"/>
      </g>
     </g>
    </g>
   </g>
   <g id="g1248" transform="matrix(1.25 0 0 -1.25 -322.4 899.31)">
    <g id="g1250" clip-path="url(#clipPath1252)">
     <g id="g1256" transform="translate(452.08 519.04)">
      <path id="path1258" d="m0 0c-0.756 0-1.454 0.136-2.093 0.408-0.639 0.273-1.192 0.649-1.661 1.129-0.469 0.481-0.836 1.052-1.102 1.714s-0.4 1.377-0.4 2.146c0 0.747 0.134 1.446 0.4 2.098 0.266 0.651 0.633 1.217 1.102 1.697 0.469 0.481 1.022 0.857 1.661 1.129 0.639 0.273 1.337 0.409 2.093 0.409 0.543 0 1.07-0.059 1.581-0.176 0.512-0.118 0.985-0.268 1.422-0.449 0.096-1.42-0.25-2.13-1.038-2.13-0.139 0-0.266 0.016-0.384 0.048-0.117 0.032-0.245 0.064-0.383 0.096-0.139 0.032-0.293 0.064-0.463 0.096-0.171 0.032-0.373 0.049-0.607 0.049-0.373 0-0.724-0.067-1.055-0.201-0.33-0.133-0.614-0.326-0.854-0.576-0.24-0.251-0.429-0.553-0.567-0.905-0.139-0.352-0.208-0.748-0.208-1.185 0-0.46 0.069-0.871 0.208-1.233 0.138-0.363 0.327-0.67 0.567-0.921s0.524-0.443 0.854-0.577c0.331-0.133 0.682-0.2 1.055-0.2 0.234 0 0.442 0.016 0.623 0.048s0.343 0.064 0.487 0.096 0.28 0.064 0.407 0.096c0.128 0.032 0.261 0.048 0.4 0.048 0.777 0 1.123-0.71 1.038-2.13-0.437-0.181-0.924-0.331-1.462-0.448s-1.078-0.176-1.621-0.176" fill="#fff"/>
     </g>
     <g id="g1260" transform="translate(457.59 519.17)">
      <path id="path1262" d="m0 0c-0.224 0-0.445 0.011-0.663 0.032s-0.402 0.048-0.551 0.08v9.273c0 0.309 0.096 0.573 0.287 0.792 0.192 0.219 0.554 0.329 1.087 0.329 0.223 0 0.444-0.011 0.663-0.033 0.218-0.021 0.402-0.048 0.551-0.08v-9.272c0-0.31-0.096-0.574-0.288-0.793-0.191-0.219-0.554-0.328-1.086-0.328" fill="#fff"/>
     </g>
     <g id="g1264" transform="translate(461.96 519.17)">
      <path id="path1266" d="m0 0c-0.213 0-0.421 0.011-0.623 0.032-0.203 0.021-0.373 0.048-0.511 0.08v10.201c0.159 0.054 0.367 0.099 0.623 0.137 0.255 0.037 0.473 0.056 0.655 0.056 0.585 0 1.011-0.075 1.278-0.225 0.266-0.149 0.489-0.368 0.671-0.656l3.626-5.717v5.573c0 0.138 0.018 0.269 0.056 0.392 0.037 0.123 0.101 0.232 0.191 0.328 0.091 0.096 0.216 0.171 0.376 0.224 0.159 0.054 0.362 0.081 0.607 0.081 0.213 0 0.418-0.011 0.615-0.033 0.197-0.021 0.364-0.042 0.503-0.063v-10.218c-0.149-0.075-0.33-0.125-0.543-0.152s-0.421-0.04-0.623-0.04c-0.501 0-0.874 0.069-1.118 0.208-0.246 0.139-0.448 0.331-0.607 0.577l-3.882 6.214v-5.942c0-0.299-0.091-0.55-0.272-0.753s-0.522-0.304-1.022-0.304" fill="#fff"/>
     </g>
     <g id="g1268" transform="translate(473.3 519.23)">
      <path id="path1270" d="m0 0c-0.298 0-0.541 0.032-0.727 0.096s-0.33 0.152-0.431 0.264c-0.102 0.112-0.171 0.248-0.208 0.409-0.037 0.16-0.056 0.33-0.056 0.512v7.847c0 0.182 0.019 0.353 0.056 0.513s0.106 0.296 0.208 0.408c0.101 0.112 0.245 0.2 0.431 0.264s0.429 0.096 0.727 0.096h5.287c0.022-0.117 0.043-0.277 0.064-0.48 0.022-0.203 0.032-0.411 0.032-0.624 0-0.449-0.09-0.767-0.271-0.953-0.182-0.187-0.41-0.281-0.687-0.281h-3.259v-1.825h3.754c0.021-0.107 0.043-0.249 0.064-0.425s0.032-0.366 0.032-0.568c0-0.427-0.086-0.718-0.256-0.873s-0.383-0.232-0.639-0.232h-2.955v-1.81h4.281c0.021-0.118 0.043-0.28 0.064-0.488 0.021-0.209 0.032-0.414 0.032-0.617 0-0.459-0.091-0.779-0.272-0.961-0.181-0.181-0.41-0.272-0.686-0.272h-4.585z" fill="#fff"/>
     </g>
     <g id="g1272" transform="translate(480.98 519.17)">
      <path id="path1274" d="m0 0c-0.245 0-0.461 0.024-0.647 0.072-0.187 0.048-0.349 0.104-0.487 0.168l0.976 9.977c0.203 0.086 0.469 0.155 0.799 0.208 0.33 0.054 0.612 0.081 0.846 0.081 0.33 0 0.615-0.022 0.854-0.065 0.24-0.042 0.445-0.114 0.615-0.216 0.17-0.101 0.306-0.243 0.407-0.424 0.101-0.182 0.178-0.406 0.232-0.673l0.415-1.937c0.117-0.534 0.242-1.124 0.375-1.77s0.253-1.311 0.359-1.994h0.064c0.117 0.683 0.239 1.345 0.367 1.986s0.261 1.228 0.399 1.761l0.51 2.034c0.128 0.502 0.332 0.844 0.614 1.025 0.282 0.182 0.721 0.273 1.316 0.273 0.298 0 0.598-0.025 0.901-0.073s0.556-0.098 0.758-0.152l0.934-10.041c-0.149-0.053-0.328-0.107-0.535-0.16-0.208-0.053-0.434-0.08-0.679-0.08-0.341 0-0.629 0.059-0.863 0.176-0.234 0.118-0.362 0.337-0.383 0.657l-0.24 3.459c-0.053 0.609-0.098 1.246-0.136 1.914-0.037 0.667-0.061 1.299-0.072 1.898h-0.032c-0.138-0.556-0.279-1.156-0.423-1.802s-0.29-1.241-0.439-1.786l-0.655-2.722c-0.16-0.641-0.666-0.961-1.518-0.961-0.213 0-0.431 0.021-0.655 0.064-0.223 0.042-0.415 0.09-0.575 0.144l-0.814 3.395c-0.16 0.63-0.309 1.249-0.447 1.858-0.139 0.608-0.267 1.217-0.384 1.825h-0.048c-0.032-0.854-0.074-1.636-0.128-2.346-0.053-0.71-0.101-1.321-0.143-1.833l-0.256-3.123c-0.021-0.31-0.138-0.523-0.351-0.641-0.214-0.117-0.49-0.176-0.831-0.176" fill="#fff"/>
     </g>
     <g id="g1276" transform="translate(496.06 523.54)">
      <path id="path1278" d="m0 0h2.39l-1.192 3.923-1.198-3.923zm-2.492-4.404c-0.202 0-0.434 0.019-0.694 0.056-0.262 0.037-0.477 0.088-0.647 0.152l3.314 10.153c0.288 0.075 0.579 0.129 0.873 0.161s0.563 0.048 0.809 0.048c0.352 0 0.654-0.027 0.905-0.08 0.251-0.054 0.462-0.134 0.633-0.241s0.312-0.248 0.424-0.424 0.206-0.382 0.281-0.617l2.84-8.984c-0.181-0.075-0.399-0.131-0.655-0.168-0.255-0.037-0.506-0.056-0.75-0.056-0.278 0-0.546 0.045-0.807 0.136s-0.45 0.296-0.567 0.617l-0.544 1.649h-3.484l-0.461-1.553c-0.117-0.374-0.314-0.609-0.591-0.705s-0.57-0.144-0.879-0.144" fill="#fff"/>
     </g>
     <g id="g1280" transform="translate(423.12 522.78)">
      <path id="path1282" d="m0 0c0-1.46-0.955-2.527-2.894-2.738-1.404-0.15-3.438 0.027-4.404 0.138-0.036 0.158-0.064 0.354-0.064 0.508 0 1.278 0.691 1.569 1.338 1.569 0.672 0 1.73-0.116 2.518-0.116 0.865 0 1.129 0.294 1.129 0.573 0 0.367-0.349 0.52-1.021 0.648l-1.839 0.354c-1.531 0.293-2.348 1.352-2.348 2.476 0 1.366 0.967 2.509 2.868 2.72 1.438 0.155 3.187-0.02 4.148-0.138 0.035-0.165 0.053-0.321 0.053-0.492 0-1.274-0.671-1.549-1.319-1.549-0.497 0-1.269 0.093-2.15 0.093-0.897 0-1.269-0.248-1.269-0.55 0-0.319 0.355-0.451 0.916-0.549l1.758-0.326c1.806-0.333 2.58-1.359 2.58-2.621m3.155-1.568c0-0.783-0.307-1.235-1.836-1.235-0.203 0-0.38 0.015-0.55 0.04v10.39c0 0.789 0.269 1.612 1.813 1.612 0.194 0 0.391-0.02 0.573-0.058v-10.749zm6.25-4.019c0.2-0.103 0.612-0.227 1.131-0.241 0.886-0.019 1.371 0.321 1.73 1.116l4.764 10.626c-0.197 0.106-0.631 0.223-0.988 0.231-0.612 0.011-1.434-0.114-1.96-1.367l-1.543-3.641-3.025 4.927c-0.195 0.06-0.671 0.146-1.021 0.146-1.067 0-1.665-0.394-2.284-1.066l-2.941-3.217 2.366-3.723c0.437-0.678 1.013-1.024 1.949-1.024 0.612 0 1.121 0.139 1.357 0.252l-2.848 4.295 2.019 2.139 3.311-5.197-2.017-4.256z" fill="#ae2c3f"/>
     </g>
     <g id="g1284">
      <g id="g1296">
       <g id="g1298" clip-path="url(#clipPath1288)" opacity=".39999">
        <g id="g1300">
         <g id="g1302">
          <g id="g1304" clip-path="url(#clipPath1292)">
           <g id="g1306" transform="translate(504.17 519.89)">
            <path id="path1308" d="m0 0c1.156-1.145 1.313-2.225 1.354-2.463 0.114 0 0.156 0.506 0.156 1.261l-4e-3 12.109c0 1.402-0.456 1.876-1.644 1.876-0.402 0-0.804-0.216-1.339-0.216h-87.31c-0.536 0-0.938 0.216-1.34 0.216-1.187 0-1.643-0.474-1.643-1.876l-4e-3 -12.109c0-0.755 0.041-1.261 0.155-1.261 0.041 0.238 0.076 1.402 1.354 2.463 10.208 7.878 79.259 10.296 90.265 0" fill="#fff"/>
           </g>
          </g>
         </g>
        </g>
       </g>
      </g>
     </g>
    </g>
   </g>
  </g>
  <g id="#000000ff" transform="matrix(1.0173 0 0 1.0173 869.25 -82.731)" fill="#fff">
   <path id="path5" d="m828.91 168.37c23.2-3.73 47.05 0.27 69.08 7.91 0.11 6.14 0.35 13-3.61 18.13-3.36 4.02-9.18 3.72-13.85 2.91-14.63-3.11-29.65-5.92-44.65-4.07-5.69 0.91-11.57 2.77-15.71 6.97-6.25 6.18-6.15 18.1 1.22 23.38 7.54 5.14 16.66 7.04 25.28 9.62 13.91 4.22 28.76 6.8 40.97 15.18 9.31 6.08 16.28 15.9 17.83 27.04 1.72 12.82-0.5 26.93-8.89 37.16-9.15 11.12-23.54 16.38-37.46 18.13-23.82 2.76-47.95-1.46-70.56-8.97-0.79-6.27-0.19-13.25 3.73-18.44 3.98-4.72 10.82-3.81 16.19-2.63 16.7 3.88 34.14 7.71 51.26 4.12 7.76-1.48 14.93-7.1 16.98-14.91 0.97-4.61 0.94-9.76-1.49-13.94-2.43-4.04-6.56-6.68-10.83-8.43-18.01-7.24-38.11-8.88-55.03-18.87-7.1-4.06-12.92-10.26-16.41-17.67-6.11-12.54-5.46-27.92 0.9-40.23 7.04-12.74 21.18-19.83 35.05-22.39z"/>
   <path id="path7" d="m119.49 188.69c14.61-13.67 34.57-21.19 54.52-21.21 19.41-0.09 39.29 3.07 56.63 12.14 0.47 6.08 0.06 13.03-4.45 17.63-4.32 4.14-11.06 3.44-16.26 1.61-14.01-4.96-29.2-7.11-43.95-4.81-15.9 2.65-30.25 13.44-36.74 28.26-7.18 16.26-6.97 35.48-0.47 51.91 5.78 14.86 18.57 26.97 34.06 31.11 15.15 3.97 31.6 1.58 45.41-5.65 0.02-12.31 0.01-24.61 0-36.92-10.4-0.04-20.8 0.04-31.19-0.03-3.74 0.03-7.78-2.11-8.86-5.88-1.56-5.8-0.71-11.91 0.24-17.73 17.19-0.28 34.39-0.03 51.59-0.13 3.86 0.12 8.17 0.11 11.39 2.55 2.81 2.65 3.62 6.75 3.6 10.47-0.03 21.22 0.01 42.44-0.03 63.66-13.6 7.84-28.49 13.92-44.2 15.63-15.21 1.59-31.07 1.14-45.42-4.66-15.69-6.19-29.34-17.51-38.04-31.99-10.16-16.54-14.07-36.57-12.06-55.79 1.9-18.85 10.35-37.17 24.23-50.17z"/>
   <path id="path9" d="m573.29 169.93c7.34-1.97 15.01-2.47 22.58-2.12 4.37 0.28 8.99 1.07 12.5 3.88 3.79 2.84 5.57 7.44 7.14 11.75 16.43 48.09 32.98 96.14 49.36 144.25-7.68 3.18-16.47 4.44-24.47 1.65-2.78-1.01-4.56-3.67-5.51-6.36-4.13-11.88-7.98-23.86-12.12-35.74-20.9 0.02-41.8 0.02-62.7 0-3.94 11.62-7.74 23.28-11.66 34.9-1.14 3.54-3.54 7.07-7.42 7.82-7.39 1.69-15.46 1.05-22.43-1.96 18.19-52.71 36.62-105.33 54.73-158.07m18.41 22.37c-7.88 23.65-15.79 47.3-23.64 70.96 15.68-0.04 31.36 0.01 47.04-0.02-7.73-23.67-15.55-47.31-23.4-70.94z"/>
   <path id="path11" d="m268.59 171.54c2.81-2.48 6.8-2.77 10.38-2.81 15.01 0.05 30.02 0 45.03 0.02 13.65 0.4 27.88 3.7 38.56 12.65 8.65 7.02 14.05 17.58 15.35 28.58 1.84 12.95-0.6 26.85-8.43 37.53-8.01 11.36-21.38 18.2-35.05 19.64 15.28 18.16 30.57 36.32 45.86 54.47 1.37 1.57 2.72 3.18 3.88 4.93-8.03 4.03-17.4 5.42-26.2 3.46-5.54-1.16-9.82-5.3-13.26-9.56-13.54-17.3-26.96-34.69-40.53-51.96-3.63 0.02-7.26 0.01-10.89-0.01-0.12 17.18 0.04 34.35-0.07 51.53 0.09 4.95-3.65 9.7-8.63 10.38-6.41 1.01-12.97 0.3-19.34-0.7v-145.69c0.06-4.3 0.26-9.13 3.34-12.46m24.66 22.47c0 16.82 0.01 33.65-0.01 50.47 12.58-0.36 25.37 1.12 37.77-1.56 7.71-1.59 14.88-6.66 17.69-14.2 2.87-7.84 2.62-17.28-1.98-24.42-4.49-6.8-12.93-9.36-20.67-9.93-10.92-0.72-21.87-0.23-32.8-0.36z"/>
   <path id="path13" d="m408.67 171.67c2.46-2.35 6.08-2.77 9.33-2.92h85.15c1.03 5 1.33 10.13 1.04 15.23-0.17 3.31-1.52 6.91-4.6 8.55-2.82 1.99-6.4 1.41-9.64 1.48-18.81-0.02-37.63-0.01-56.44-0.01-0.08 14.2 0.14 28.4-0.12 42.6 21.25 0.35 42.52 0.05 63.78 0.15 0.65 6.12 2.04 12.53 0.03 18.54-1.22 3.79-5.34 5.88-9.15 5.71h-54.54c-0.01 14.33-0.01 28.67 0 43h71.84c0.71 6.15 1.74 12.56 0.08 18.65-1.25 4.52-6 7.12-10.5 6.84-22.65 0.03-45.29 0-67.93 0.01-5.55-0.15-11.47 0.58-16.66-1.82-3.92-2.4-4.73-7.42-4.83-11.65-0.04-44.35 0.01-88.69-0.02-133.04 0.05-3.92 0.46-8.26 3.18-11.32z"/>
   <path id="path15" d="m649.39 175.54c0.8-4.4 5.45-6.81 9.61-6.77 39-0.05 78.01-0.01 117.02-0.02 0.87 6.24 1.75 12.85-0.29 18.96-1.17 3.65-4.78 6.24-8.6 6.25-13.37 0.1-26.75 0.01-40.13 0.04 0 40.33-0.01 80.67 0.01 121 0.01 3.94 0.43 8.41-2.3 11.65-2.19 3.03-6.04 3.95-9.56 4.15-5.31 0.23-10.64-0.19-15.88-1.06-0.05-45.24 0-90.49-0.03-135.73-16.49 0.01-32.99-0.07-49.49 0.04-1.02-6.08-1.58-12.42-0.36-18.51z"/>
  </g>
 </g>
</svg>
