<svg height="3.762481mm" viewBox="0 0 55.254374 13.331625" width="15.594012mm" xmlns="http://www.w3.org/2000/svg" xmlns:xlink="http://www.w3.org/1999/xlink"><linearGradient id="a" gradientTransform="matrix(0 -7.8613366 7.8613366 0 338.59049 450.97822)" gradientUnits="userSpaceOnUse" spreadMethod="pad" x1="0" x2="1" y1="0" y2="0"><stop offset="0" stop-color="#af6773"/><stop offset=".104411" stop-color="#c9747a"/><stop offset=".898134" stop-color="#c9747a"/><stop offset=".999673" stop-color="#d49093"/><stop offset="1" stop-color="#d49093"/></linearGradient><linearGradient id="b" gradientTransform="matrix(0 -7.8613366 7.8613366 0 338.59049 450.97822)" gradientUnits="userSpaceOnUse" spreadMethod="pad" x1="0" x2="1" y1="0" y2="0"><stop offset="0" stop-color="#810a32"/><stop offset=".104411" stop-color="#a90e3a"/><stop offset=".898134" stop-color="#a90e3a"/><stop offset=".999673" stop-color="#b94556"/><stop offset="1" stop-color="#b94556"/></linearGradient><linearGradient id="c" gradientTransform="matrix(0 7.9932039 7.9932039 0 337.14356 443.0457)" gradientUnits="userSpaceOnUse" spreadMethod="pad" x1="0" x2="1" y1="0" y2="0"><stop offset="0" stop-color="#888685"/><stop offset=".020448" stop-color="#d9d9da"/><stop offset=".0524045" stop-color="#f5f5f6"/><stop offset=".487663" stop-color="#eeefef"/><stop offset=".895488" stop-color="#f5f5f6"/><stop offset=".929442" stop-color="#ebebec"/><stop offset=".964262" stop-color="#d9d9da"/><stop offset="1" stop-color="#888685"/></linearGradient><linearGradient id="d" gradientTransform="matrix(0 7.9932039 7.9932039 0 337.14356 443.0457)" gradientUnits="userSpaceOnUse" spreadMethod="pad" x1="0" x2="1" y1="0" y2="0"><stop offset="0" stop-color="#b4b2b1"/><stop offset=".020448" stop-color="#e8e8e9"/><stop offset=".0524045" stop-color="#f9f9fa"/><stop offset=".487663" stop-color="#f5f5f5"/><stop offset=".895488" stop-color="#f9f9fa"/><stop offset=".929442" stop-color="#f4f3f4"/><stop offset=".964262" stop-color="#e8e8e9"/><stop offset="1" stop-color="#b4b2b1"/></linearGradient><g transform="translate(-309.51566 -442.83925)"><path d="m363.57066 451.19538c.92 0 1.20125-.5725 1.20125-1.14375v-6.06875c0-.57125-.28125-1.14375-1.20125-1.14375h-52.85375c-.92 0-1.20125.5725-1.20125 1.14375v6.06875c0 .57125.28125 1.14375 1.20125 1.14375zm-52.81125-.0763c-.62 0-1.03875-.36625-1.03875-.975v-6.25375c0-.60875.41875-.97375 1.03875-.97375h52.76875c.62 0 1.03875.365 1.03875.97375v6.25375c0 .60875-.41875.975-1.03875.975z" fill="#a2a2a3"/><path d="m310.66504 443.11425c-.62 0-.84.365-.84.97375v5.9125c0 .60875.22.975.84.975h13.63v-4.43125c-.8125.0638-1.6025.1325-2.37.20625l-1.44375 3.22125c-.16125.35625-.3775.515-.765.515-.01 0-.0213 0-.0325 0-.23875-.006-.42875-.0637-.52125-.11125l.93-1.96125-.8725-1.36875c-.49125.0612-.97.1225-1.4325.1875l1.16125 1.75125c-.10875.0513-.34375.11625-.625.11625-.4325 0-.6975-.15875-.89875-.4725l-.7775-1.225c-.12375.0212-.24625.04-.365.06v1.06c0 .36125-.14125.56875-.84625.56875-.0937 0-.175-.006-.25375-.0175v-1.4175c-.12.0225-.24.0462-.3575.0688.001.025.002.05.002.075 0 .6725-.44 1.165-1.3325 1.2625-.1775.0188-.37875.0263-.5825.0263-.54375 0-1.125-.0537-1.44875-.0913-.015-.0725-.0288-.1625-.0288-.23375 0-.035.001-.0688.004-.10125-.35875.1525-.64625.31-.85625.47125-.59125.49-.60625 1.02625-.62625 1.13625-.0513 0-.07-.23375-.07-.5825l.001-5.58c0-.64625.21-.865.7575-.865.18625 0 .37125.1.6175.1h13.0325v-.22625h28.59125v.22625h10.13875c.24625 0 .4325-.1.6175-.1.5475 0 .75875.21875.75875.865l.002 5.58c0 .34875-.0213.5825-.0725.5825-.0188-.11-.0913-.60875-.62375-1.13625-.295-.275-.72-.53-1.25625-.76625-.40625.4525-1.05.71875-1.88125.71875h-1.00375c-.48 0-.595-.26-.595-.58v-1.15c-.19125-.0375-.385-.0762-.58375-.1125v1.355c0 .29875-.12.49-.7425.49-.075 0-.14125-.005-.21625-.0163v-1.65375h-1.935v1.18c0 .29875-.12.49-.7425.49-.075 0-.14125-.005-.21875-.0163v-2.385c-.5325-.06-1.08375-.11625-1.64625-.1675v4.455h10.735c.62 0 .84-.36625.84-.975v-5.9125c0-.60875-.22-.97375-.84-.97375h-52.95625zm9.7175 3.79625.225.36625.1725-.41c-.1325.015-.26625.0288-.3975.0437m39.55 1.2875h.69375c.3475 0 .61625-.0812.8175-.21125-.455-.1475-.96125-.2875-1.51125-.4175zm-46.74375-.1025h.0238c.2425 0 .3825-.0513.455-.12-.165.04-.32375.0788-.47875.12" fill="url(#c)"/><path d="m324.29504 443.343h28.5925v-.22625h-28.5925zm14.20125 2.63875v.58375h1.73c.01.0488.02.11375.03.195.009.0813.015.16875.015.26125 0 .1975-.04.3325-.11875.4025-.0788.0713-.17625.1075-.295.1075h-1.36125v.83375h1.9725c.01.055.02.12875.03.225.01.0962.015.19125.015.28375 0 .2125-.0412.36-.12625.44375-.0825.0838-.18875.125-.31625.125h-2.1125c-.1375 0-.25-.015-.335-.0437-.085-.0288-.1525-.07-.19875-.12125-.0463-.0525-.0775-.115-.0962-.18875-.0163-.0738-.025-.1525-.025-.23625v-2.8625c-.285.004-.57125.006-.85625.01v3.38375c-.0688.0337-.1525.0575-.25125.07-.0975.0125-.19375.0188-.2875.0188-.23 0-.4025-.0325-.515-.0962-.11375-.0638-.20625-.1525-.28-.265l-1.78875-2.865v2.73875c0 .1375-.0412.25375-.125.3475-.0825.0937-.24.14-.47125.14-.0975 0-.19375-.005-.28625-.015-.0937-.009-.1725-.0213-.23625-.0363v-3.3175c-.2875.01-.57375.02-.8575.0312v2.82c0 .14375-.0437.265-.1325.36625s-.25625.15125-.50125.15125c-.10375 0-.205-.005-.305-.015-.10125-.009-.185-.0213-.25375-.0363v-3.23625c-1.015.0462-2.0125.0987-2.9925.15875-.0263.0487-.05.1-.0713.15375-.0637.1625-.095.345-.095.54625 0 .21125.0312.4025.095.56875.0625.1675.15125.30875.26125.42375.11.11625.24125.205.39375.26625.15125.0613.31375.0925.48625.0925.1075 0 .20375-.008.28625-.0225.085-.015.15875-.0288.225-.0437.0662-.0163.12875-.03.18875-.045.0575-.015.12-.0213.1825-.0213.35875 0 .51875.32625.48.98125-.2025.0837-.4275.1525-.675.20625-.24625.0538-.49625.0813-.74625.0813-.34875 0-.67125-.0625-.965-.1875-.29375-.12625-.55-.3-.765-.52125-.21625-.22125-.38625-.485-.50875-.79s-.18375-.63375-.18375-.98875c0-.2125.0238-.4175.07-.6125-.51625.035-1.02625.0725-1.5275.1125v4.435h28.59125v-.004-4.455c-.8175-.0763-1.66125-.1425-2.5325-.20125l.97 3.065c-.0837.0337-.18375.06-.3025.0775-.1175.0175-.2325.0263-.345.0263-.12875 0-.2525-.0213-.3725-.0625-.12-.0425-.2075-.13625-.26125-.285l-.25125-.76125h-1.605l-.2125.7175c-.0538.17125-.145.28-.2725.325-.1275.0438-.2625.0663-.405.0663-.0937 0-.2-.009-.32-.0263-.12125-.0175-.22-.04-.29875-.07l1.05375-3.22375c-.54375-.0263-1.0925-.0487-1.64875-.07l.30375 3.26375c-.0687.025-.15125.05-.24625.075-.0962.0238-.2.0362-.3125.0362-.1575 0-.29-.0275-.39875-.0813-.1075-.055-.16625-.155-.17625-.3025l-.11-1.595c-.025-.28-.045-.57375-.0637-.88125-.01-.19-.0175-.37125-.025-.55-.0337-.001-.0662-.001-.10125-.001-.0375.16-.0775.33-.11625.50625-.065.29875-.1325.5725-.20125.8225l-.3025 1.25625c-.0738.295-.3075.4425-.7.4425-.0975 0-.19875-.01-.30125-.03-.10375-.0188-.19125-.0413-.265-.0663l-.375-1.565c-.075-.29-.14375-.57625-.20625-.85625-.0438-.19-.085-.37875-.12375-.56875-.03-.001-.0562-.001-.0863-.001-.0138.28875-.03.55875-.0475.81-.025.3275-.0475.61-.0662.84625l-.11875 1.43875c-.01.1425-.0637.24-.16125.295-.0987.0537-.22625.0813-.3825.0813-.11375 0-.21375-.0113-.29875-.0337-.0863-.0225-.16125-.0475-.225-.0775l.33-3.3725c-.63875-.006-1.28125-.009-1.92625-.009-.29375 0-.58875 0-.8825.001m4.84875.1775c.055.24625.1125.5175.17375.815.0625.2975.1175.605.165.91875h.03c.0537-.31375.11-.62.17-.915.0575-.295.11875-.56625.1825-.8125l.0325-.1275c-.26-.007-.52125-.0125-.7825-.0188l.0288.14zm-9.01375-.1175 1.03375 1.63v-1.6525c-.34625.006-.69.0138-1.03375.0225m14.11375 1.415h1.10125l-.36875-1.2125c-.11875-.006-.23625-.0125-.355-.02z" fill="url(#b)"/><g fill="#fff"><path d="m328.17466 449.53175c-.34875 0-.67-.0625-.965-.18875-.29375-.125-.54875-.29875-.765-.52s-.385-.48375-.50875-.79c-.1225-.305-.18375-.63375-.18375-.98875 0-.34375.0612-.66625.18375-.96625.12375-.3.2925-.56125.50875-.7825s.47125-.395.765-.52125c.295-.125.61625-.1875.965-.1875.25 0 .49375.0275.72875.0813.23625.0537.45375.1225.655.20625.045.655-.115.9825-.47875.9825-.0637 0-.1225-.007-.17625-.0225-.0538-.015-.1125-.03-.17625-.045-.0638-.0137-.135-.0288-.21375-.0437-.0788-.015-.1725-.0225-.28-.0225-.17125 0-.33375.0312-.48625.0925-.15125.0613-.2825.15-.39375.26625-.11.115-.1975.25375-.26125.41625-.0637.1625-.095.345-.095.54625 0 .2125.0312.40125.095.56875s.15125.30875.26125.42375c.11125.11625.2425.205.39375.26625.1525.0613.315.0925.48625.0925.1075 0 .20375-.008.2875-.0225.0838-.015.1575-.03.22375-.0437.0662-.015.12875-.03.18875-.045.0588-.015.12-.0225.18375-.0225.3575 0 .5175.3275.47875.9825-.20125.0837-.42625.1525-.67375.20625-.24875.0538-.4975.0813-.7475.0813"/><path d="m330.71529 449.47287c-.1025 0-.205-.005-.305-.015-.10125-.01-.18625-.0225-.255-.0362v-4.27375c0-.1425.045-.265.1325-.365.0888-.10125.25625-.1525.50125-.1525.1025 0 .205.005.305.015.10125.01.18625.0225.255.0375v4.27375c0 .1425-.045.26375-.1325.365-.0888.10125-.25625.15125-.50125.15125"/><path d="m332.72879 449.47287c-.0987 0-.19375-.005-.2875-.015-.0925-.01-.17125-.0225-.235-.0362v-4.7025c.0737-.0237.16875-.045.2875-.0625.1175-.0175.2175-.0262.30125-.0262.27 0 .46625.035.58875.10375.1225.0687.22625.17.31.3025l1.67125 2.635v-2.56875c0-.0637.007-.12375.025-.18.0175-.0562.0462-.1075.0888-.15125.0412-.045.0987-.0787.1725-.10375.0737-.025.1675-.0375.28-.0375.0987 0 .1925.005.28375.015.09.01.1675.02.23125.03v4.70875c-.0687.035-.15125.0575-.25.07-.0987.0125-.19375.0188-.2875.0188-.23 0-.4025-.0325-.515-.0962-.1125-.0638-.20625-.1525-.28-.265l-1.78875-2.86375v2.7375c0 .13875-.0412.25375-.125.3475-.0838.0937-.24125.14-.47125.14"/><path d="m337.95891 449.44325c-.1375 0-.24875-.015-.335-.0437-.0863-.03-.1525-.07-.19875-.1225-.0462-.0512-.0788-.11375-.0962-.1875-.0163-.0737-.025-.1525-.025-.23625v-3.6175c0-.0838.009-.1625.025-.23625.0175-.0738.05-.13625.0962-.1875.0462-.0525.1125-.0925.19875-.1225.0862-.0288.1975-.0437.335-.0437h2.43625c.01.0537.02.1275.03.22125.01.0937.015.19.015.2875 0 .2075-.0425.35375-.125.44-.0838.0863-.18875.12875-.3175.12875h-1.50125v.84125h1.73c.01.05.02.115.03.19625.009.0813.0137.16875.0137.26125 0 .1975-.0387.33125-.1175.4025-.0788.0712-.17625.1075-.29375.1075h-1.3625v.83375h1.9725c.01.0538.02.12875.03.225.01.0962.015.19125.015.28375 0 .2125-.0425.36-.125.44375-.0838.0838-.19.125-.3175.125h-2.1125"/><path d="m341.49791 449.47287c-.1125 0-.2125-.0113-.29875-.0337-.085-.0213-.16-.0475-.22375-.0775l.45-4.5975c.0925-.04.21625-.0712.3675-.0962.1525-.025.2825-.0375.39-.0375.1525 0 .28375.01.39375.03.11125.02.205.0525.28375.1.0788.0462.14125.11125.1875.195.0462.0838.0825.1875.10625.31l.19125.89375c.055.24625.1125.5175.17375.815.0612.2975.11625.605.165.91875h.03c.0537-.31375.11-.62.16875-.915.0588-.295.12-.565.18375-.81125l.235-.9375c.0587-.23125.15375-.38875.28375-.4725.13-.0838.33125-.12625.60625-.12625.1375 0 .275.0112.415.0337s.25625.0462.35.07l.43 4.6275c-.0688.025-.15125.05-.24625.0737-.0962.025-.20125.0375-.31375.0375-.15625 0-.29-.0275-.3975-.0813-.1075-.0537-.16625-.155-.17625-.3025l-.11125-1.59375c-.0238-.28125-.045-.575-.0625-.8825-.0163-.3075-.0275-.59875-.0325-.875h-.015c-.0637.25625-.12875.5325-.195.83-.0662.29875-.13375.5725-.2025.82375l-.30125 1.255c-.0738.295-.3075.4425-.7.4425-.0987 0-.19875-.01-.30125-.03-.10375-.0188-.1925-.0412-.26625-.0663l-.375-1.565c-.0737-.29-.1425-.575-.20625-.85625-.0637-.28-.1225-.56-.17625-.84125h-.0225c-.015.39375-.0337.755-.0588 1.08125-.025.3275-.0462.61-.0662.845l-.1175 1.44c-.01.1425-.0638.24125-.1625.295-.0975.0538-.225.0813-.3825.0813"/><path d="m348.44479 447.45787h1.10125l-.54875-1.80875zm-1.14875 2.03c-.0925 0-.2-.009-.32-.0263-.12-.0175-.22-.04-.2975-.07l1.5275-4.68c.1325-.0337.26625-.0587.4025-.0737.135-.0138.25875-.0213.3725-.0213.1625 0 .30125.0125.41625.0362.11625.025.21375.0625.2925.11125.0787.0487.14375.11375.195.195.0525.0813.095.17625.13.285l1.30875 4.14c-.0837.035-.18375.06-.30125.0775-.11875.0175-.23375.0263-.34625.0263-.1275 0-.2525-.0213-.3725-.0625-.12-.0425-.2075-.1375-.26125-.285l-.25-.76h-1.60625l-.2125.71625c-.0538.1725-.145.28-.2725.325-.1275.0437-.2625.0662-.405.0662"/></g><path d="m357.42817 446.5425v-1.11c0-.30125.12-.4925.74125-.4925.0763 0 .1425.005.21875.0175v3.64125c0 .3-.12.49125-.7425.49125-.0763 0-.14125-.006-.2175-.0175v-1.65375h-1.93375v1.18c0 .3-.12125.49125-.74375.49125-.075 0-.14-.006-.2175-.0175v-3.64c0-.30125.12-.4925.7425-.4925.0763 0 .14125.005.21875.0175v1.585zm5.5075.4675c0-1.2375-.89125-2.07625-2.365-2.07625h-1.00375c-.48125 0-.59625.25375-.59625.58625v2.9875c0 .31875.115.57875.59625.57875h1.00375c1.47375 0 2.365-.83875 2.365-2.07625m-3.00375 1.1875v-2.375h.695c.965 0 1.32.625 1.32 1.1875 0 .56375-.355 1.1875-1.32 1.1875z" fill="#a90e3a"/><path d="m314.82804 447.8005c0 .6725-.44 1.165-1.33375 1.2625-.6475.0688-1.585-.0125-2.03-.0637-.0163-.0738-.0288-.16375-.0288-.235 0-.58875.3175-.7225.61625-.7225.31 0 .7975.0538 1.16.0538.39875 0 .52125-.13625.52125-.265 0-.16875-.16125-.23875-.47125-.29875l-.8475-.1625c-.705-.135-1.0825-.62375-1.0825-1.14125 0-.63.44625-1.15625 1.3225-1.25375.6625-.0712 1.46875.01 1.91125.0638.0163.0763.025.1475.025.2275 0 .58625-.31.7125-.6075.7125-.23 0-.585-.0425-.99125-.0425-.41375 0-.585.115-.585.25375 0 .14625.16375.2075.4225.2525l.81.15125c.8325.1525 1.18875.62625 1.18875 1.2075m1.45375.7225c0 .36125-.14125.56875-.84625.56875-.0925 0-.175-.006-.2525-.0175v-4.78875c0-.36375.12375-.74375.835-.74375.09 0 .18.01.26375.0275zm2.88125 1.8525c.0925.0475.28125.105.52125.11125.40875.009.63125-.14875.7975-.515l2.195-4.8975c-.09-.0487-.29125-.1025-.455-.10625-.2825-.005-.66125.0525-.90375.63l-.71125 1.67875-1.39375-2.27125c-.09-.0275-.31-.0675-.47125-.0675-.49125 0-.76625.18125-1.0525.49125l-1.355 1.4825 1.09 1.71625c.20125.3125.4675.4725.89875.4725.2825 0 .51625-.0638.625-.11625l-1.3125-1.98.93-.985 1.5275 2.395z" fill="#a90e3a"/><path d="m363.02504 443.343h-10.13875v3.1775c.5625.0512 1.11375.1075 1.64625.1675v-1.25625c0-.3.12-.49125.7425-.49125.0763 0 .14125.005.21875.0175v1.585h1.935v-1.11125c0-.3.11875-.49125.74-.49125.0775 0 .1425.005.21875.0175v2.28625c.19875.0362.3925.075.58375.1125v-1.83625c0-.33375.115-.58625.595-.58625h1.00375c1.47375 0 2.365.83875 2.365 2.075 0 .54125-.17 1.00625-.48375 1.35875.53625.23625.96125.49125 1.25625.76625.5325.5275.605 1.02625.62375 1.13625.0512 0 .0725-.23375.0725-.5825l-.002-5.58c0-.64625-.21125-.865-.75875-.865-.185 0-.37125.1-.6175.1m-53.1375.765-.001 5.58c0 .34875.0188.5825.07.5825.02-.11.035-.64625.62625-1.13625.21-.16125.4975-.31875.85625-.47125.0337-.50375.3325-.62125.6125-.62125.3025 0 .7775.0513 1.1375.0538.155-.0412.31375-.08.47875-.12.0463-.0437.065-.0937.065-.145 0-.16875-.16125-.23875-.47125-.29875l-.84625-.1625c-.70625-.13625-1.0825-.6225-1.0825-1.14125 0-.62875.445-1.15625 1.32125-1.25375.18625-.02.38375-.0275.5825-.0275.505 0 1.01125.0525 1.33.0913.015.0763.0238.1475.0238.22625 0 .5875-.30875.71375-.6075.71375-.22875 0-.585-.0425-.99125-.0425-.41375 0-.585.115-.585.25375 0 .14625.16375.2075.4225.25375l.81.14875c.79625.1475 1.1575.58625 1.18625 1.13375.1175-.0225.2375-.0462.3575-.0688v-3.3725c0-.3625.12375-.74125.83625-.74125.0887 0 .17875.009.26375.0263v3.89375c.11875-.02.24125-.0388.365-.06l-.31375-.49125 1.35625-1.4825c.285-.31.56125-.49125 1.05125-.49125.1625 0 .38125.04.4725.0675l1.16875 1.905c.13125-.015.265-.0288.3975-.0437l.5375-1.2675c.235-.55875.595-.63125.87375-.63125h.03c.16375.004.365.0587.45625.10625l-.7525 1.67625c.7675-.0737 1.5575-.1425 2.37-.20625v-3.20125h-13.0325c-.24625 0-.43125-.1-.6175-.1-.5475 0-.7575.21875-.7575.865m50.045 1.71375v1.7475c.55.13 1.05625.27 1.51125.4175.3575-.23.5025-.61625.5025-.9775 0-.56125-.35375-1.1875-1.32-1.1875z" fill="url(#d)"/><path d="m324.29504 443.343v3.20125c.50125-.04 1.01125-.0775 1.5275-.1125.0288-.1225.0675-.24.11375-.35375.1225-.3.2925-.56125.50875-.7825.215-.2225.47125-.395.765-.52.29375-.12625.61625-.18875.965-.18875.25 0 .4925.0263.72875.08.235.0563.45375.12375.655.2075.0437.655-.115.9825-.47875.9825-.0637 0-.1225-.007-.17625-.0225-.0538-.015-.11375-.03-.17625-.0437-.065-.015-.13625-.0312-.21375-.045-.0787-.015-.1725-.0213-.28-.0213-.1725 0-.335.03-.48625.0913-.1525.0613-.28375.15-.39375.26625-.0738.0763-.1375.16375-.19.2625.98-.06 1.9775-.1125 2.9925-.15875v-1.0375c0-.1425.0437-.265.1325-.36625.0875-.1.25375-.15.50125-.15.10125 0 .20375.004.30375.0138.10125.01.18625.0212.255.0375v1.4525c.28375-.0112.57-.0212.8575-.0312v-1.385c.0737-.0238.16875-.045.2875-.0625.1175-.0175.21875-.025.30125-.025.27 0 .46625.0337.58875.1025s.22625.16875.30875.30375l.63875 1.00375c.34375-.009.6875-.0162 1.03375-.0225v-.915c0-.065.007-.125.0263-.18125.0162-.0562.045-.1075.0875-.1525.0412-.0438.1-.0788.1725-.10375.0737-.0225.16625-.035.28-.035.0987 0 .1925.004.28375.0138.09.01.1675.02.2325.03v1.325c.285-.004.57125-.006.85625-.01v-.75375c0-.085.009-.16375.025-.23625.0187-.075.05-.1375.0962-.18875.0462-.0525.11375-.0925.19875-.12125.085-.03.1975-.045.335-.045h2.4375c.01.055.0187.12875.0288.2225.01.0925.015.18875.015.28625 0 .2075-.0425.35375-.125.44-.0838.085-.18875.13-.31625.13h-1.5025v.2575c.29375-.001.58875-.001.8825-.001.645 0 1.2875.002 1.92625.009l.12-1.225c.0937-.04.21625-.0725.3675-.0975.1525-.0225.2825-.035.39125-.035.15125 0 .2825.009.39375.0288.11.0188.20375.0525.2825.0987.0787.0475.14125.1125.1875.19625.0475.0838.0825.1875.10625.31l.1625.75375c.26125.006.5225.0113.7825.0188l.2025-.80875c.0588-.2325.15375-.38875.28375-.4725.13-.0838.3325-.125.60625-.125.1375 0 .27625.01.415.0325.14.0225.2575.0463.34875.07l.1275 1.36375c.55625.0213 1.105.0437 1.64875.07l.47375-1.455c.13375-.035.2675-.06.40375-.075.135-.015.25875-.0225.37125-.0225.1625 0 .3025.0125.4175.0375.11625.025.2125.0612.29125.11125.08.05.145.11375.19625.19625.0512.08.095.175.13.2825l.33875 1.07625c.87125.0587 1.715.125 2.5325.20125v-3.1775h-28.59125zm24.5275 2.88125c.11875.007.23625.0138.355.02l-.18-.595zm-6.53625-.49375c-.004.0925-.007.1825-.0113.27125.03 0 .0563 0 .0863.001-.0188-.0913-.0362-.18125-.0525-.2725h-.0225zm2.745.007c-.025.10375-.0513.21125-.0788.32375.035 0 .0675 0 .10125.001-.002-.11-.005-.21875-.007-.325h-.015z" fill="url(#a)"/><g fill="#fff"><path d="m325.82279 446.431c.0288-.12125.0663-.23875.11375-.35375.1225-.3.2925-.56125.5075-.7825.21625-.22125.47125-.395.76625-.52s.61625-.1875.965-.1875c.25 0 .4925.0263.72875.08.235.055.45375.12375.655.2075.0438.65375-.11625.98125-.47875.98125-.0637 0-.1225-.007-.17625-.0225-.055-.0138-.11375-.0288-.1775-.0437-.0638-.015-.135-.03-.21375-.0438-.0775-.015-.17125-.0225-.27875-.0225-.1725 0-.33375.03-.48625.0925-.1525.0613-.28375.15-.39375.265-.0738.0775-.1375.165-.19.2625-.45125.0275-.9.0575-1.34125.0875"/><path d="m330.15579 446.18575v-1.03875c0-.1425.0437-.26375.1325-.365.0888-.1.255-.15125.50125-.15125.1025 0 .20375.005.305.015.1.01.185.0225.25375.0362v1.45375c-.39875.015-.7975.0325-1.1925.05"/><path d="m332.20616 446.10437v-1.385c.0737-.025.16875-.045.2875-.0625.1175-.0175.2175-.0263.30125-.0263.27 0 .46625.035.58875.10375.1225.0687.22625.17.31.3025l.6375 1.005c-.71125.0175-1.4225.0375-2.125.0625m3.15875-.085v-.91625c0-.0637.009-.12375.025-.18.0175-.0575.0475-.1075.0888-.15125.0412-.045.1-.0787.1725-.10375.0738-.025.1675-.0375.28-.0375.0987 0 .1925.005.28375.015.0913.01.1675.02.2325.03v1.325c-.3625.005-.72125.0112-1.0825.0187"/><path d="m337.30367 445.99037v-.75375c0-.0838.009-.1625.0263-.23625.0162-.0737.0487-.1375.095-.18875.0462-.0512.1125-.0925.19875-.12125.0863-.03.1975-.045.335-.045h2.4375c.01.055.0188.12875.0288.22125.01.0937.015.19.015.28875 0 .20625-.0412.3525-.125.43875-.0837.0863-.18875.12875-.31625.12875h-1.5025v.25875c-.39625.001-.795.005-1.1925.009"/><path d="m346.08291 446.09837c-.34125-.0125-.6825-.0238-1.0275-.035-.004-.11-.007-.21875-.009-.325h-.015c-.0263.10375-.0525.21125-.0788.3225-.2825-.009-.56875-.0163-.85375-.0238l.2025-.80875c.0587-.23125.15375-.38875.28375-.4725.13-.0825.33125-.125.60625-.125.1375 0 .275.0112.415.0337.14.0213.25625.045.35.07l.12625 1.36375m-2.76625-.0788c-.3175-.006-.63625-.0125-.955-.0175-.0187-.09-.0362-.18125-.0537-.27125h-.0225c-.004.0913-.007.1825-.0113.27-.32125-.005-.645-.009-.96875-.0113l.12-1.22625c.0925-.0387.21625-.0713.3675-.095.1525-.025.2825-.0375.39-.0375.1525 0 .28375.01.39375.03.11125.0188.205.0525.28375.0987.0788.0475.14125.1125.1875.19625.0462.0838.0825.1875.10625.31l.1625.75375"/><path d="m350.35429 446.31862c-.3875-.0263-.78-.0512-1.17625-.0738l-.18125-.595-.175.57375c-.36-.02-.725-.0387-1.09125-.0562l.475-1.455c.1325-.035.2675-.0588.4025-.0738s.26-.0225.3725-.0225c.1625 0 .30125.0125.4175.0375.115.0238.2125.0613.29125.11.0787.05.14375.115.19625.19625.0512.0812.0937.175.12875.28375l.34 1.075"/></g><path d="m362.45104 448.36712c-.30125-.1325-.6375-.25875-1.0075-.38.3575-.23125.5025-.61625.5025-.9775 0-.56125-.35375-1.1875-1.32-1.1875h-.69375v1.74625c-.3075-.0738-.6275-.14375-.96125-.21125v-1.8375c0-.3325.115-.58625.59625-.58625h1.0025c1.475 0 2.36625.84 2.36625 2.07625 0 .54125-.17 1.00625-.485 1.3575m-4.06375-1.1225c-1.15625-.21375-2.45-.39875-3.85375-.55625v-1.25625c0-.3.12-.49125.74125-.49125.0775 0 .1425.005.21875.0162v1.585h1.935v-1.11c0-.3.12-.49125.74-.49125.0775 0 .1425.005.21875.0162v2.2875" fill="#c9747a"/><path d="m317.63629 447.00425.15125.22875c.4625-.065.94125-.12625 1.4325-.1875l-.65375-1.0275z" fill="url(#d)"/><path d="m311.43854 448.663c.035-.5025.3325-.62125.6125-.62125.30375 0 .7775.0513 1.1375.0538-.6925.17875-1.2825.36875-1.75.5675m2.22875-.68625c.0463-.045.065-.0962.065-.14625 0-.16875-.16125-.23875-.47-.29875l-.8475-.1625c-.70625-.135-1.0825-.62375-1.0825-1.14125 0-.63.445-1.15625 1.32125-1.25375.1875-.02.385-.0275.5825-.0275.505 0 1.01125.0525 1.33.0913.0163.0763.0238.1475.0238.2275 0 .58625-.30875.7125-.6075.7125-.22875 0-.585-.0425-.99125-.0425-.4125 0-.585.115-.585.25375 0 .14625.16375.2075.4225.2525l.81.15125c.79625.14625 1.1575.585 1.1875 1.1325-.40875.0813-.79625.165-1.15875.25125m1.515-.32v-3.37125c0-.36375.12375-.74375.83625-.74375.0888 0 .18.01.26375.0275v3.89375c-.38125.0625-.7475.1275-1.1.19375m1.46375-.2525-.31125-.4925 1.355-1.4825c.285-.31.56125-.49125 1.0525-.49125.16125 0 .38125.04.47125.0675l1.16875 1.905c-.39625.0437-.7825.0888-1.1625.135l-.65375-1.02625-.93.985.15125.22875c-.39125.055-.7725.1125-1.14125.17125m4.135-.5375.5375-1.26875c.23375-.55625.59375-.63.8725-.63h.03c.165.004.365.0575.45625.10625l-.7525 1.67625c-.3875.0375-.76875.0763-1.14375.11625" fill="#c9747a"/><path d="m330.53491 456.17037c-.0488 0-.0962-.002-.14375-.007-.0475-.004-.0838-.009-.1075-.015v-2.73875c0-.07.0163-.1275.0475-.1725.0325-.0437.105-.0663.2175-.0663h1.61c.005.025.01.0575.0138.0987.002.0412.004.0838.004.12625 0 .0975-.0187.16125-.0575.19375-.0375.0325-.085.0475-.14375.0475h-1.18v.87h1.24875c.015.0537.0225.12625.0225.21375 0 .0888-.0188.15125-.0563.18625-.0387.035-.0838.0525-.135.0525h-1.08v.99625c0 .0612-.0188.1125-.0563.15375-.0387.0412-.10625.0612-.20375.0612"/><path d="m332.94779 454.92212h.88l-.4375-1.32625zm-.63875 1.24875c-.0425 0-.0913-.005-.14375-.0137-.0538-.01-.0963-.0238-.12625-.0413l1.01375-2.9225c.0575-.015.115-.025.17125-.0312.0562-.006.11-.01.1625-.01.0725 0 .1325.006.18.0162.0475.0113.0875.0275.11875.05.0325.0238.0587.0525.08.0875s.0412.0787.06.13l.91625 2.675c-.0362.015-.0788.0288-.12625.0413-.0475.0125-.09.0187-.13.0187-.07 0-.13125-.009-.1825-.0263-.0525-.0162-.09-.06-.115-.13l-.22-.65375h-1.16625l-.21875.65375c-.0238.0675-.0587.11-.105.12875-.045.0175-.1025.0275-.16875.0275"/><path d="m335.26242 456.16587c-.0525 0-.0962-.005-.135-.0162-.0387-.01-.0712-.0213-.0987-.0338l.3025-2.895c.0425-.0175.0987-.0325.16625-.0425.0688-.0112.1275-.0162.17625-.0162.13625 0 .24.02.31125.0612.0725.0412.12.11375.14375.2175l.50375 1.98875.5075-1.975c.0238-.10375.0725-.17875.14625-.22375.0725-.0462.1725-.0687.30125-.0687.0612 0 .12375.004.1875.0137.0637.009.11625.02.16.0312l.28625 2.90875c-.0312.0125-.0662.0238-.1075.0338-.0412.0112-.0875.0162-.14.0162-.07 0-.1275-.0125-.17375-.0362-.045-.025-.0712-.07-.0775-.1375l-.19375-2.35-.55875 2.08c-.025.085-.0663.14375-.12625.17625-.0587.0325-.135.0475-.22625.0475-.0462 0-.0937-.002-.14375-.009-.05-.006-.0925-.015-.12625-.0275l-.63-2.2675-.2125 2.355c-.006.0638-.0325.1075-.0775.1325-.0462.0238-.10125.0362-.165.0362"/><path d="m338.94329 456.17037c-.0487 0-.0962-.002-.14375-.007-.0475-.004-.0837-.009-.1075-.015v-2.77125c0-.0613.0187-.1125.0575-.15375.0375-.04.105-.0612.2025-.0612.0487 0 .0975.002.145.007.0462.004.0825.01.10625.015v2.77125c0 .0612-.0187.1125-.0562.15375-.0387.0412-.10625.0612-.20375.0612"/><path d="m340.14566 456.143c-.1125 0-.185-.0225-.2175-.0662-.0312-.0437-.0475-.10125-.0475-.17125v-2.52875c0-.0613.0188-.1125.0575-.15375.0375-.0412.105-.0613.2025-.0613.0487 0 .0975.002.145.007.0462.004.0825.01.1075.015v2.4925h1.4125c.006.0337.0113.0675.0163.1025.004.035.006.0713.006.1075 0 .0975-.02.165-.0613.20125-.0412.0362-.0987.055-.17125.055h-1.45z"/><path d="m342.53716 456.17037c-.0487 0-.0962-.002-.14375-.007-.0475-.004-.0838-.009-.1075-.015v-1.2625l-1.07875-1.65c.0425-.025.0925-.0437.15-.055.0587-.0125.11-.0187.15625-.0187.0787 0 .145.01.19875.03.0525.02.0975.0587.135.11625l.7125 1.1475.70875-1.1425c.0337-.0575.0737-.0975.11875-.11875.0462-.0213.10625-.0325.17875-.0325.0425 0 .0925.005.15125.0162.0575.01.105.0275.14125.0525l-1.06 1.65v1.075c0 .0612-.02.1125-.0575.15375-.0387.0412-.10625.0612-.20375.0612"/></g></svg>