<svg width="2980.9pt" height="318pt" version="1.1" viewBox="0 0 2980.9 318" xmlns="http://www.w3.org/2000/svg">
 <defs>
  <linearGradient id="a" x1="-8600.5" x2="-8600.5" y1="-4687.6" y2="-4591.4" gradientTransform="matrix(-2.9812,0,0,-2.9812,-24493,-13655)" gradientUnits="userSpaceOnUse">
   <stop stop-color="#a80000" offset="0"/>
   <stop stop-color="#a1000c" offset=".38129"/>
   <stop stop-color="#b90019" offset="1"/>
  </linearGradient>
 </defs>
 <g transform="matrix(.84779 0 0 .84779 1015.9 .0016956)">
  <path d="m1872.2 375.09h420.6c13.753 0 25.006-11.253 25.006-25.006l-3e-4 -325.33c0-13.253-11.003-24.756-24.756-24.756h-420.85z" fill="#fff" fill-rule="evenodd"/>
  <g fill="url(#a)" stroke-width="2.9812">
   <path d="m1943.7 100.27c6.5015-2.5006 13.503-1.2503 20.005 0.25006v75.768h87.02v-65.265c-0.2501-4.7511 2.0005-9.5022 6.7516-11.253 6.2516-2.0004 12.753-0.75018 19.005 0.75018v168.04c0.5001 4.5011-2.5007 8.7521-6.5017 10.252-6.5015 2.0004-13.003 0.75014-19.255-1.0002v-77.518h-87.02v68.266c0.2501 4.251-2.2505 8.252-6.0015 10.002-6.5016 2.2505-13.503 1.0002-20.005-0.75018v-166.79c-0.2501-4.251 1.7504-9.0021 6.0015-10.753z"/>
   <path d="m2117.7 101.52c2.7507-2.0005 6.2516-2.2506 9.5024-2.2506h31.007c14.253 0 28.257 0.50012 41.76 5.0012 21.755 6.5015 40.76 21.755 50.512 42.26 8.2519 18.004 10.002 38.509 7.0016 57.764-4.0009 22.505-16.754 43.76-35.508 57.013-15.754 11.003-35.008 16.754-54.263 16.754h-40.509c-3.751-0.25006-8.2521 0-10.753-3.2508-2.7507-3.5008-2.5006-8.0019-2.5006-12.253v-150.04c0-4.0009 0.2501-8.502 3.7509-11.003m22.255 21.505v131.28h27.757c16.004-0.25006 32.508-5.2512 44.26-16.504 14.003-12.503 20.755-31.757 20.255-50.262 0.5001-14.503-4.001-29.257-13.003-40.76-8.2521-10.502-20.255-17.754-33.258-21.005-7.5018-2.2505-15.504-2.7507-23.506-2.7507z"/>
  </g>
 </g>
 <g transform="matrix(.84778 0 0 .84778 0 .0042403)">
  <path d="m624.21 9e-5h2446.3v375.09h-2446.3z" fill="url(#a)" stroke-width="2.9812"/>
  <path d="m624.21 375.09h-599.2c-13.753 0-25.006-11.253-25.006-25.006v-325.39c0-13.128 10.94-24.693 24.693-24.693h599.52z" fill="#fff" stroke-width="3.1257"/>
  <g transform="matrix(.75012 0 0 .75012 0 -6e-5)" fill="#fff">
   <path d="m1196.8 46.657c8.08-2.39 17.44-0.61 23.7 5.16 8.96 7.84 10.76 22.47 3.9 32.22-5.08 7.92-15.03 12.37-24.3 10.66-11.61-1.81-21.3-12.73-20.86-24.62-0.19-10.58 7.4-20.56 17.56-23.42z"/>
   <path d="m1017.4 133.46c21.37-5.8 43.96-4.99 65.59-1.1 16.56 3.21 33.02 8.13 47.94 16.07 0.82 7.45 0.64 15.53-3.01 22.28-2.45 4.57-7.4 7.7-12.63 7.47-7.67-0.23-14.56-3.99-21.59-6.62-14.68-6.05-30.63-9.09-46.51-8.39-14.87 0.74-29.66 5.3-41.92 13.84-11.33 7.69-20.34 18.59-26.21 30.93-6.65 14.05-9.41 29.77-8.95 45.25 0.46 14.4 3.53 28.88 10.19 41.73 7.95 15.91 21.5 28.99 37.82 36.15 20.99 9.32 45.36 8.45 66.93 1.55 8.87-2.71 17.08-7.36 26.16-9.37 5.62-1.4 12.21 0.36 15.57 5.29 4.85 6.95 5.01 16.04 4.14 24.15-14.07 7.02-29.27 11.67-44.63 14.88-25.46 5.02-52.52 5.76-77.23-3.13-24.95-8.67-46.58-26.38-60.09-49.06-11.77-19.51-17.68-42.39-17.5-65.12-0.26-25.49 7.13-51.2 21.84-72.12 15.21-21.84 38.36-37.9 64.09-44.68z"/>
   <path d="m1378.5 131.64c20.37-4.35 42.33-2.9 61.39 5.79 14.88 6.78 27.32 18.57 35.15 32.9 9.75 17.49 12.97 37.77 13.25 57.57 0 42.06 0.05 84.12-0.05 126.18 0.17 5.36-2.82 10.92-8.15 12.55-9.57 3.04-19.87 1.53-29.55-0.18-0.06-45.61 0.03-91.23-0.05-136.84-0.58-17.92-4.72-37.02-17.41-50.43-11.02-11.97-27.92-16.85-43.82-16.02-16.43 0.97-32.11 7.86-45.12 17.73-8.09 6.21-15.3 13.73-20.45 22.57-1.14 1.63-0.91 3.67-0.96 5.55 0.08 8.56 0.01 17.11 0.05 25.67 0.02 40.13 0.01 80.26-0.01 120.39 0.21 5.36-3.46 10.34-8.62 11.75-9.37 2.72-19.36 1.35-28.8-0.26-0.16-43.48-0.07-86.96-0.08-130.44 0.08-33.89-0.12-67.78 0.1-101.66 9.07-1.94 18.68-3.43 27.8-0.98 4.91 1.26 9.25 5.39 9.48 10.67 0.35 7.42-0.01 14.85 0.15 22.28 14.33-17.02 33.79-30.09 55.7-34.79z"/>
   <path d="m1579.1 150c30.74-21.87 72.51-26.73 107.67-13.3 16.58 6.46 31.22 17.69 41.88 31.93 10.87 14.34 17.8 31.44 21.11 49.08 3.01 15.84 2.86 32.18 0.27 48.06-60.29 0.07-120.59 0-180.88 0.04 2.21 17.04 8.77 33.95 20.77 46.51 10.38 11.11 24.48 18.3 39.23 21.59 22.1 4.92 45.28 2.4 66.72-4.37 7.84-2.21 15.32-5.66 23.31-7.37 5.57-1.42 11.72 1.3 14.58 6.26 4.25 7.17 3.74 15.87 3.17 23.87-19.57 8.63-40.34 14.62-61.56 17.38-19.3 2.53-39.12 2.24-58.08-2.43-16.65-4.06-32.58-11.5-45.88-22.37-14.06-11.32-25.03-26.31-31.98-42.94-9.86-23.76-12.22-50.39-7.98-75.68 5.19-30.3 22.29-58.65 47.65-76.26m17.36 30.27c-13.64 11.51-22.05 28.12-25.99 45.33-0.44 2.72-0.87 5.44-1.29 8.17 48.37 0 96.74-0.01 145.11 0-0.3-4.91-0.85-9.79-1.77-14.63-3.32-16.57-11.88-32.49-25.42-42.9-26.12-20.22-66.03-17.3-90.64 4.03z"/>
   <path d="m1879.3 133.17c21.25-6.87 45.68-4.8 64.78 7.1 11.91 7.31 21.04 18.49 27.09 31 9.14-13.12 20.8-24.75 35.02-32.29 17.83-9.56 39.11-11.94 58.81-7.71 14.06 3.02 27.23 10.4 36.75 21.24 12.31 13.79 18.58 32.08 20.24 50.29 0.97 10.37 0.4 20.8 0.55 31.21-0.04 40.16 0.05 80.34-0.06 120.5 0.17 5.76-3.84 11.05-9.43 12.42-9.4 2.54-19.36 1.27-28.79-0.52 0.01-42.8-0.01-85.61-0.02-128.42-0.23-11.22 0.66-22.52-0.93-33.67-1.46-9.94-5.03-19.84-11.76-27.44-6.16-7.04-14.97-11.41-24.12-12.93-27.02-5.03-54.58 11.73-66.73 35.54-1.21 2.79-0.57 5.94-0.69 8.89 0.02 48.58 0.05 97.16-0.02 145.74 0.28 5.65-3.22 11.29-8.82 12.76-9.59 2.65-19.77 1.3-29.4-0.44-0.01-29.46-0.01-58.92-0.01-88.38-0.17-22.64 0.32-45.29-0.26-67.92-0.73-9.29-2.85-18.66-7.59-26.77-4.58-7.96-12.01-14.27-20.7-17.29-14.94-5.25-31.92-3.43-45.78 4.04-10.33 5.46-19.26 13.56-25.69 23.31-1.78 2.98-4.3 5.92-4.24 9.58-0.1 3.75 0.03 7.5 0.02 11.25 0.04 46.59 0.01 93.19-0.01 139.78 0.3 5.58-3.05 11.21-8.58 12.75-9.48 2.73-19.63 1.5-29.16-0.36 0-50.27-0.03-100.54 0-150.8 0.02-27.01-0.01-54.02 0.01-81.03 8.65-1.91 17.74-3.44 26.53-1.45 5.05 1.07 9.59 5.03 10.31 10.32 0.86 6.75 0.19 13.59 0.4 20.37 10.8-13.94 25.39-25.23 42.28-30.67z"/>
   <path d="m2255.9 129.89c17.19-1.23 34.69-0.86 51.52 3.17 13.74 3.27 27.14 9.51 37.07 19.76 10.85 10.79 16.89 25.54 19.55 40.42 2.85 14.42 1.83 29.17 2.01 43.77-0.02 43.16 0.03 86.32-0.03 129.48-8.95 1.65-18.28 2.8-27.26 0.8-5.34-1.09-10.03-5.64-10.18-11.26-0.16-7.2 0.01-14.4-0.05-21.59-9.66 10.19-20.7 19.21-33.29 25.52-16.85 8.58-36.04 12-54.84 11.19-15.27-0.63-30.64-4.41-43.72-12.49-14.38-8.77-25.53-22.9-30.05-39.19-4.79-17.16-3.22-36.51 6.17-51.87 6.78-11.09 17.31-19.42 28.76-25.31 16.65-8.48 35.14-12.62 53.58-14.98 24.17-2.98 48.62-2.81 72.9-1.26-0.09-10.48-0.18-21.12-2.94-31.31-2.15-7.96-6.31-15.56-12.73-20.85-7.15-5.88-16.23-8.83-25.27-10.16-25.14-3.34-50.68 1.14-74.67 8.72-5.04 1.38-10 3.18-15.2 3.77-5.25 0.51-10.64-2.24-13.06-6.95-3.77-7.19-3.52-15.68-2.55-23.51 23.88-8.65 48.96-13.95 74.28-15.87m25.3 125.03c-17.4 1.05-35.09 2.99-51.35 9.62-9.34 3.91-18.36 10.1-23 19.37-7.01 13.91-3.62 32.09 7.98 42.52 7.95 7.51 18.67 11.45 29.43 12.56 16.59 1.49 33.6-1.83 48.41-9.5 13.04-6.54 24.33-16.26 33.43-27.61 0.8-1.14 2.07-2.21 1.91-3.77 0.07-14.33-0.06-28.67 0.05-42.99-15.61-0.88-31.25-0.94-46.86-0.2z"/>
   <path d="m1193.1 133.91c9.65-3.09 20.03-1.43 29.72 0.69 0 34.69-0.02 69.38 0 104.07 0.04 38.13-0.02 76.25 0.01 114.38 0.03 4.08-0.97 8.55-4.34 11.2-4.23 3.37-9.94 3.91-15.15 4.07-6.31 0.12-12.58-0.67-18.75-1.87-0.05-42.1-0.02-84.19-0.02-126.29 0.03-31.39-0.05-62.78 0.03-94.17-0.12-5.36 3.32-10.5 8.5-12.08z"/>
  </g>
  <path d="m421.97 333.52c4.0635 2.188 12.19 4.6886 22.818 4.6886 17.817 0.31257 27.507-6.5641 34.696-22.505l95.648-213.18c-4.0635-2.188-12.816-4.376-19.692-4.6886-12.19-0.31257-28.757 2.188-39.384 27.507l-30.945 73.142-60.952-98.461c-4.0635-1.2503-13.441-2.8132-20.63-2.8132-21.255 0-33.445 7.8144-45.948 21.255l-58.764 64.39 47.511 74.705c8.7521 13.753 20.317 20.63 39.072 20.63 12.19 0 22.505-2.8132 27.194-5.0012l-57.201-86.27 40.635-42.823 66.578 104.4zm-125.34-80.644c0 15.629-6.2515 24.693-36.884 24.693-4.0635 0-7.5018-0.31258-10.94-0.93773v-208.17c0-15.941 5.3138-32.195 36.258-32.195 3.7509 0 7.8144 0.31257 11.565 1.2503zm-63.452-31.257c0 29.382-19.067 50.637-58.139 55.013-28.132 3.1257-69.079-0.62514-88.458-2.8132-0.62515-3.1257-1.2503-7.1892-1.2503-10.315 0-25.631 13.753-31.57 26.881-31.57 13.441 0 34.696 2.188 50.637 2.188 17.504 0 22.505-5.9389 22.505-11.565 0-7.5018-6.8766-10.315-20.63-13.128l-36.571-6.564c-30.632-5.9389-46.886-27.194-46.886-49.699 0-27.506 19.38-50.324 57.513-54.7 28.757-3.1257 64.078 0.31257 83.145 2.8132 0.62514 3.4383 0.93772 6.564 0.93772 10.002 0 25.631-13.441 30.945-26.569 30.945-10.002 0-25.318-1.8754-43.135-1.8754-18.129 0-25.318 5.0012-25.318 10.94 0 6.2515 7.1892 9.0646 18.442 10.94l35.321 6.5641c36.259 6.8766 51.575 27.507 51.575 52.825" fill="url(#a)" stroke-width="2.9812"/>
  <path d="m25.006 0c-13.753 0-25.006 11.253-25.006 25.006v226.3c0-20.005 16.003-36.509 36.008-37.259l3455.3-69.266v-119.78c0-13.753-11.253-25.006-25.006-25.006z" fill="#fff" opacity=".2"/>
 </g>
 <path d="m1583.7 234.17c2.0534-41.961 1.0329-160.76-1.5259-177.59l-0.5064-3.3307-0.5103 5.4148c-1.8312 19.424-2.3827 42.031-2.3622 96.83 0.021 53.958 0.5541 76.962 2.3656 101.93l0.5317 7.3258 0.5049-5.0963c0.2777-2.8029 0.9538-14.27 1.5026-25.48z" fill="#fff" stroke-width=".74342"/>
 <g transform="matrix(.75058 0 0 .75586 1649.2 56.667)" fill="#fff">
  <path d="m55.86 36.07c8.84-3.92 18.73-4.03 28.21-3.59 11.59 0.69 23.87 4.73 31.11 14.31 8.38 10.71 9.52 24.91 9.25 38.01l-29.1 1c-0.6-8.33-0.42-18.05-6.73-24.42-7.77-6.27-21.29-3.29-25.27 6.08-3.01 8.16-2.87 17.32-0.38 25.59 1.78 5.96 6.9 10.14 12.21 12.95 6.8 3.5 13.49 7.22 20.29 10.71 8.58 4.21 17.17 9.1 23.31 16.61 8.46 9.7 10.49 23.19 10.37 35.64 0.22 14.44-2.09 30.01-11.4 41.58-9.41 11.09-23.72 16.54-37.81 18.5-11.43 1.71-23.89 2.06-34.33-3.64-7.41-4.35-12.11-12.3-14.31-20.42-2.91-10.46-3.42-21.4-3.28-32.2l31.05-2.45c0.07 9.14-0.7 19.13 4.29 27.25 6.13 8.77 19.99 8.12 27.2 1.05 7.66-6.92 8.22-18.27 6.69-27.8-1.25-8.18-7.17-14.97-14.47-18.52-6.41-3.68-13.61-5.53-20.22-8.76-8.11-3.67-15.8-8.73-21.31-15.81-3.67-4.45-5.98-9.81-7.96-15.17-2.73-7.91-2.71-16.35-3.42-24.59 0.59-10.48 0.75-21.37 5.22-31.1 3.66-9.42 11.45-17.04 20.79-20.81z"/>
  <path d="m913.56 32.89c13.01-0.84 27.12-1.66 38.96 4.82 8.33 4.52 13.67 13.14 15.99 22.14 5.01 17.25 4.11 35.38 4.92 53.12 0.12 16.4-0.41 32.79-1.5 49.14-0.76 6.73-1.83 13.45-3.78 19.96-2.26 8.43-7.35 16.68-15.53 20.42-9.93 4.35-21.11 3.86-31.63 2.59-11.93-1.18-24.75-4.97-32.13-15.1-8.16-11.23-9.59-25.56-10.7-38.98-0.95-17.67-1.67-35.38-0.53-53.05 0.75-16.48 0.63-33.95 8.76-48.82 5.39-9.8 16.33-15.21 27.17-16.24m9.52 19.16c-4.28 0.36-8.68 2.25-10.94 6.07-5.06 8.45-5.42 18.6-6.13 28.15-0.95 16.89-0.68 33.82-0.69 50.73 0.73 12.93-0.22 26.46 4.89 38.67 1.73 4.62 5.6 8.43 10.44 9.64 5.24 1.35 11.72 1.33 15.7-2.89 5.26-5.84 6.1-14.07 6.82-21.56 1.18-7.2 0.69-14.53 1.38-21.77 0.43-17.02 0.67-34.07-0.53-51.06-0.08-6.06-0.87-12.09-1.84-18.07-0.87-5.08-2.47-10.3-6.16-14.06-3.27-3.45-8.42-4.15-12.94-3.85z"/>
  <path d="m1095.9 37.95c10.81-6.49 23.93-5.97 36.07-5.51 10.76 0.66 22.79 4.08 28.82 13.77 7.13 10.61 6.21 23.91 7.13 36.05l-27.31-0.83c0.05-5.59-0.32-11.22-1.4-16.7-0.53-3.76-3.49-6.47-6.63-8.23-6.09-3.32-14.14-2.63-19.61 1.61-3.52 3.29-3.78 8.39-4.19 12.88-0.2 7.66 0.57 15.81 4.76 22.44 4.82 6.95 12.41 11.06 18.94 16.16 8.62 6.62 17.74 12.82 24.75 21.24 7.07 8.92 11.9 19.7 13.35 31.02 2.04 14.93 2.19 30.25-0.75 45.07-1.69 7.54-5.48 15.51-12.72 19.1-10.23 5.65-22.46 5.12-33.67 3.62-11.46-1.88-23.53-4.73-32.3-12.82-9.2-8.58-11.96-21.69-12.6-33.76-0.65-5.2-0.59-10.44-0.56-15.68l29.01 2.94c0.1 7.73-0.51 15.65 1.7 23.16 3.77 11.57 20.85 16.67 29.76 7.95 3.16-3.27 4.43-7.91 4.58-12.36 0.45-10.09-1.61-20.88-8.41-28.69-8.01-9.41-19.8-14.13-29.12-21.97-12.42-9.57-21.09-23.92-23.47-39.45-2.25-13.57-2.77-27.61 0.17-41.12 1.68-8.08 6.35-15.81 13.7-19.89z"/>
  <path d="m986.97 34.44 80.07-0.38 0.12 24.49-51.14-0.36-0.02 44.64 48.23 1.92-0.01 35.38-48.17-3.42v52.45l53.12 5.73-0.01 24.78-82.37-9.63z"/>
  <path d="m142.52 35.54 29.75-0.32-0.26 116.82c0.26 10.08-0.58 20.41 2.45 30.18 1.28 4.75 4.84 9.04 9.67 10.41 6.29 1.45 13.66-0.59 17.38-6.1 4.69-6.13 4.95-14.17 5.37-21.54l-0.12-129.73 29.53 0.11-0.18 126.57c0.18 10.79-1.94 21.7-6.6 31.47-4.5 8.93-12.36 16.1-21.88 19.3-10.18 3.39-21.03 4.75-31.74 4.24-6.59-0.4-13.4-1.92-18.66-6.13-6.25-4.66-9.55-12.04-11.89-19.25-4.18-16.2-2.05-33.03-2.9-49.53z"/>
  <path d="m254.76 35.23c18.07 0.2 36.14-0.04 54.21 0.12 10.24 0.24 20.5 4.65 26.86 12.83 7.61 9.88 9.28 22.75 9.44 34.86 0.05 13.54-2.88 27.75-11.56 38.49-7.57 9.44-19.59 14.47-31.46 15.34-6.11 0.71-12.32 0.23-18.39 1.31-0.05 22.28 0.08 44.56 0.32 66.83-9.64 0.47-19.21 1.84-28.83 2.58-0.56-57.45-0.61-114.91-0.59-172.36m28.87 23.38c-0.03 17.59 0.12 35.17-0.09 52.76 8.2-0.31 17.78 1.43 24.5-4.46 7.16-5.99 8.45-16.11 8.28-24.88-0.46-7.67-1.92-16.85-9.11-21.18-7.24-3.85-15.75-1.83-23.58-2.24z"/>
  <path d="m359.81 35.25 6.18-0.33h74.37v24.64l-51.6 0.62v38.6l48.44-0.97-0.13 27.45-48.41 1.68 0.07 44.86 53.39-2.86 0.23 24.44-82.35 5.37z"/>
  <path d="m456.83 35.1c15.05-0.44 30.12 0.05 45.18-0.26 12.39-0.23 26.11-0.17 36.44 7.7 8.92 6.45 11.89 18.03 12.11 28.51 0.25 11.74-1.58 24.66-9.78 33.68-3.89 4.55-9.62 6.71-15.07 8.72 4.65 1.43 9.71 2.2 13.65 5.27 3.1 2.28 5.4 5.54 6.63 9.18 3.47 9.64 3.06 20 3.97 30.06-0.05 7.77 0.46 15.54 1.56 23.23 0.52 3.41 3.25 5.79 5.77 7.87-11.01 0.24-22.02 0.95-33.03 0.83-3.28-5.01-3.24-11.17-3.5-16.92-0.56-10.62-0.29-21.28-1.32-31.86-1-5.42-3.24-11.45-8.49-14.06-4.96-2.48-10.68-1.44-16-1.5-2.9 0.27-5.96-0.42-8.74 0.38-0.22 21.79 0.1 43.6 0.25 65.39-9.69 0.45-19.38 0.67-29.06 1.3 0-17.88-0.48-35.75-0.29-53.64-0.02-34.63-0.37-69.25-0.28-103.88m29.3 21.54c0.09 15.44 0.09 30.88-0.01 46.31 9.11-0.37 19.36 1.23 27.12-4.72 7.34-5.59 7.88-15.78 7.24-24.23-0.27-6.93-4.45-14.01-11.32-16.11-7.47-2.23-15.36-0.95-23.03-1.25z"/>
  <path d="m571.56 34.81 30.79 0.01-0.17 58.02 34.46-0.04 0.22-57.98 28.62-0.02-0.29 154.65-28.72-0.43 0.29-67.84-34.91-0.07-0.03 67.71-29.94 0.22z"/>
  <path d="m685.27 34.86 78.44 0.01-0.04 22.97h-32.61l-17.13 0.33v37.71l28.01 0.18 18.53 0.35v28.42l-46.51-0.93-0.46 43.5 52.14 2.49-0.05 22.74-80.59-2.64 0.02-57.96 0.36-22.07z"/>
  <path d="m779.56 34.81c16.5 0.03 33.01 0.01 49.51 0.01 8.69-0.24 17.86 1.03 25.27 5.86 7.47 4.81 10.99 13.75 11.94 22.27 1.29 14.34 0.46 29.64-6.99 42.34-3.53 5.72-9.33 9.77-15.84 11.33 1.56 1.21 3.58 1.47 5.37 2.25 4.89 2.04 9.38 5.63 11.58 10.56 2.93 6.81 4.01 14.23 4.61 21.57 0.01 9.35 1 18.67 0.84 28.03 0.06 4.38 0.32 8.78 1.12 13.08 0.59 3.16 3.02 5.39 5.33 7.42l-30.54-2.04c-1.65-2.57-2.53-5.55-2.78-8.57-0.97-12.65-0.92-25.34-1.16-38.01-0.66-5.54-1.36-11.41-4.56-16.14-2.46-3.68-6.88-5.68-11.22-5.72-5.01-0.06-9.99-0.61-14.99-0.71l-0.03 66.74-27.14-1.75-0.32-158.52m27.54 20.36-0.03 48.52c5.01 0.02 10.04 0.44 15.05 0.07 5.89-0.67 11.8-4.17 14.04-9.86 3.12-6.91 3-14.64 2.56-22.05-0.75-5.54-3.03-11.63-8.29-14.35-7.15-3.9-15.59-1.81-23.33-2.33z"/>
 </g>
</svg>
