<svg height="666.66235" viewBox="0 0 4134.1937 666.66034" width="4134.127900000001" xmlns="http://www.w3.org/2000/svg"><g stroke-width="5.5556"><path d="m43.88937-.00240254c-24.443987 0-43.88741684 20.55733554-43.88741684 43.89132254v578.3295c0 24.44399 20.00007984 44.44603 44.44406584 44.44603l4045.300381.002c24.4447 0 44.444-19.99941 44.444-44.44407v-578.339319c0-23.333547-19.4467-43.88936986-43.8913-43.88936986z" fill="#fff"/><path d="m1109.4004-.0009779h2333.2504v666.6676379h-2333.2504z" fill="#003264"/><path d="m506.67073 64.443018c-54.99997 0-64.44297 28.888984-64.44297 57.222962v369.9998c6.1111 1.1111 12.22099 1.666 19.44299 1.666 54.44397 0 65.55696-16.11099 65.55696-43.88897v-382.779794c-6.66669-1.666699-13.88999-2.222698-20.55698-2.222698zm210.55988 108.329942c-37.77798 0-59.44397 13.88799-81.66595 37.77698l-104.44995 114.44993 84.44496 132.77993c15.55599 24.44399 36.10998 36.66598 69.44296 36.66598 21.66699 0 40.00098-4.99979 48.33397-8.88869l-101.66994-153.32992 72.22096-76.11096 118.32994 185.5599-72.22297 151.10992c7.2222 3.8889 21.66799 8.334 40.55698 8.334 31.66699.5555 48.88798-11.667 61.66597-39.99998l169.99986-378.8898c-7.2221-3.889-22.77794-7.77649-34.99993-8.33209-21.66699-.5555-51.11098 3.88859-69.99997 48.88897l-54.99997 129.99993-108.32994-174.99991c-7.22229-2.22219-23.88798-4.99999-36.66598-4.99999zm-426.83977.01c-14.89099.047-29.73898.6937-43.71497 2.2129-67.77797 7.77769-102.21995 48.33197-102.21995 97.22094 0 39.99998 28.88799 77.77796 83.33196 88.33396l64.99996 11.66599c24.44399 5 36.66798 10.00099 36.66798 23.33399 0 9.99999-8.88889 20.55499-39.99998 20.55499-28.33298 0-66.11096-3.8887-89.99995-3.8887-23.33299 0-47.77897 10.55599-47.77897 56.11097 0 5.55559 1.1116 12.77799 2.2227 18.33399 34.44398 3.8889 107.21994 10.55599 157.21991 4.99999 69.44396-7.77779 103.32995-45.55497 103.32995-97.77694 0-44.99998-27.22399-81.66596-91.66795-93.88895l-62.77697-11.668c-19.99999-3.33339-32.77698-8.33219-32.77698-19.44298 0-10.556 12.77799-19.44499 44.99997-19.44499 31.66699 0 58.88797 3.33389 76.66596 3.33389 23.33299 0 47.22298-9.44449 47.22298-54.99997 0-6.11119-.5549-11.66599-1.666-17.77699-23.29899-3.0556-60.25197-6.89889-97.68195-7.19729-2.1267-.017-4.2555-.022-6.3828-.016z" fill="#003264"/></g><g fill="#fff" transform="translate(.001 -.001948)"><path d="m634.8 55v32.9c-.9.2-2.4.4-3.8.4-3 0-4.3-1.1-4.3-3.1v-3.9h-.1c-3.9 4-9.9 7.7-18.1 7.7-11.5 0-17.7-7.6-17.7-15.9 0-12.2 13.2-17.9 35.8-16.4v-1.3c0-8.1-2.6-12.5-12.5-12.5-5.3 0-9.7 1.1-12.8 1.9-1.5.4-2.7.8-3.6.8-2.3 0-3.7-2.3-3.1-6.6 4.9-1.9 12.4-3.7 19.7-3.7 15-.1 20.5 7.5 20.5 19.7zm-8.2 17.8v-9.7c-14.7-.6-27.5 1-27.5 10.2 0 4.5 3.9 8.5 10.5 8.5 6.7 0 13-3.7 17-9z" transform="matrix(6.0062435 0 0 6.0062435 -2305.2779 -39.702128)"/><path d="m634.8 55v32.9c-.9.2-2.4.4-3.8.4-3 0-4.3-1.1-4.3-3.1v-3.9h-.1c-3.9 4-9.9 7.7-18.1 7.7-11.5 0-17.7-7.6-17.7-15.9 0-12.2 13.2-17.9 35.8-16.4v-1.3c0-8.1-2.6-12.5-12.5-12.5-5.3 0-9.7 1.1-12.8 1.9-1.5.4-2.7.8-3.6.8-2.3 0-3.7-2.3-3.1-6.6 4.9-1.9 12.4-3.7 19.7-3.7 15-.1 20.5 7.5 20.5 19.7zm-8.2 17.8v-9.7c-14.7-.6-27.5 1-27.5 10.2 0 4.5 3.9 8.5 10.5 8.5 6.7 0 13-3.7 17-9z" transform="matrix(6.0062435 0 0 6.0062435 -1585.3939 -39.723517)"/><path d="m787.3 87.4c-4.5 2.2-9.7 3.6-15 3.6-10.3 0-16.6-6.1-16.6-16.1v-46.2c0-2.1 1.2-3.4 4.8-3.4 1.5 0 3.2.3 4 .7v12.2h20.5c.1.8.3 2.3.3 3.6 0 3.1-1.2 4.2-3.2 4.2h-17.6v28.1c0 6.1 2.9 8.9 8.8 8.9 5.2 0 8.3-2.2 10.8-2.2s3.7 2.3 3.2 6.6" transform="matrix(5.9741589 0 0 5.9741589 -2927.6695 -48.885687)"/><path d="m937.1 89.7v-66.8c0-2.1 1.2-3.3 4.8-3.3 1.5 0 3.1.3 4 .5v66.7c0 2.2-1.1 3.3-4.6 3.3-1.6 0-3.3-.2-4.2-.4" transform="matrix(6.210808 0 0 6.210808 -3977.4781 -68.801006)"/><path d="m787.3 87.4c-4.5 2.2-9.7 3.6-15 3.6-10.3 0-16.6-6.1-16.6-16.1v-46.2c0-2.1 1.2-3.4 4.8-3.4 1.5 0 3.2.3 4 .7v12.2h20.5c.1.8.3 2.3.3 3.6 0 3.1-1.2 4.2-3.2 4.2h-17.6v28.1c0 6.1 2.9 8.9 8.8 8.9 5.2 0 8.3-2.2 10.8-2.2s3.7 2.3 3.2 6.6" transform="matrix(5.9741589 0 0 5.9741589 -1866.6629 -48.840528)"/><path d="m754 87.8v-51.7c.9-.2 2.6-.4 4.2-.4 3.4 0 4.4 1.4 4.4 3.5v3.8c4-4.4 9.9-7.9 17.5-7.9 10.6 0 19.4 6.7 19.4 22.1v27.7c0 2.1-1.2 3.4-4.8 3.4-1.5 0-3.2-.2-4.1-.4v-29.6c0-10.4-5.1-15.4-12.8-15.4-6.1 0-12.5 4.1-15.2 9v32.9c0 2.1-1.1 3.4-4.7 3.4-1.3 0-3.1-.2-3.9-.4z" transform="matrix(5.9871253 0 0 5.9871253 -2205.6183 -37.860746)"/><path d="m730.4 21.9c0-3.2 2.6-5.6 5.7-5.6s5.6 2.4 5.6 5.6c0 2.9-2.5 5.6-5.6 5.6-3.1.1-5.7-2.6-5.7-5.6zm1.2 65.9v-48.7c0-2.1 1.2-3.4 4.8-3.4 1.5 0 3.2.2 4.1.4v48.7c0 2.2-1.2 3.4-4.8 3.4-1.5 0-3.2-.2-4.1-.4z" transform="matrix(5.980721 0 0 5.980721 -1472.9004 -36.695774)"/><path d="m644.8 61.9c0-15.4 11.5-26.8 26.4-26.8 6.6 0 12.2 1.7 16.8 3.9.5 4.9-1.2 6.6-3.5 6.6-2.7 0-6.2-2.7-13.3-2.7-9.3 0-17.4 7.3-17.4 19.1s8.1 19.2 17.4 19.2c7.1 0 10.6-2.7 13.3-2.7 2.3 0 4 1.7 3.5 6.6-4.5 2.2-10.2 4-16.8 4-15-.2-26.4-11.8-26.4-27.2" transform="matrix(5.9714283 0 0 5.9714283 -833.88528 -37.290428)"/></g><g fill="#003264" transform="matrix(1.3333546 0 0 1.3333546 1050.1845 -.010931)"><path d="m2866.627 177.05267c-2.1334.08-4.3736-.30616-6.2403.78717l-64.5058 33.83985c-5.2267 2.53333-10.2406 5.98607-13.2539 11.05273-4.3467 7.10667-4.0542 16.17344-1.1875 23.77344 2.28 6.42667 7.2677 11.26812 12.121 15.82812l55.7735-29.16015v259.8789c9.5067 4.10667 20.3861 4.86649 30.5328 3.14649 8.52-1.25333 15.6665-8.84021 15.8132-17.54688v-301.59967z" fill="#003264" stroke-width="1.333333" transform="scale(.74999999)"/><path d="m2631.582 210.59375c-3.0265-.0129-6.0506.24479-9.0215.76563-7.92 1.26666-14.6272 8.46661-14.5605 16.61328v85.36101h-79.973c-7.84-.28-15.8131 4.79854-17.8398 12.54521-2.64 10.04-.4938 20.50813 1.5195 30.45479h96.2933v104.63893c9.5333 4.10666 20.5464 5.29294 30.6264 2.59961 7.36-2.02667 12.4659-9.453 12.3726-16.98633v-90.25221h75.7071c5.56.0533 11.5072.31909 16.5606-2.50758 4.6933-2.4 7.7733-7.28039 8.6933-12.40039 1.7734-9.33333-.2282-18.90536-1.9082-28.09203h-99.0528v-98.64039c-6.0958-2.73167-12.7593-4.07114-19.4176-4.09961z" fill="#003264" stroke-width="1.333333" transform="scale(.74999999)"/></g><path d="m44.444976-.0009779h4045.304524c24.4439 0 44.5125 20.0000859 44.4439 44.4439759v212.219882l-4070.304435 123.88993c-35.55598 1.1111-63.888965 30.55599-63.888965 66.11097v-402.219782c0-24.443986 19.999989-44.4439759 44.443976-44.4439759z" fill="#fff" opacity=".2" stroke-width="5.5556"/></svg>