<?xml version="1.0" encoding="UTF-8" standalone="no"?>
<!-- Generator: Adobe Illustrator 17.1.0, SVG Export Plug-In . SVG Version: 6.00 Build 0)  -->

<svg
   xmlns:dc="http://purl.org/dc/elements/1.1/"
   xmlns:cc="http://creativecommons.org/ns#"
   xmlns:rdf="http://www.w3.org/1999/02/22-rdf-syntax-ns#"
   xmlns:svg="http://www.w3.org/2000/svg"
   xmlns="http://www.w3.org/2000/svg"
   xmlns:sodipodi="http://sodipodi.sourceforge.net/DTD/sodipodi-0.dtd"
   xmlns:inkscape="http://www.inkscape.org/namespaces/inkscape"
   enable-background="new 0 0 1372 226.8"
   xml:space="preserve"
   viewBox="-440412.35 0 0 102.3"
   height="71.252998"
   width="600.34424"
   version="1.1"
   y="0px"
   x="0px"
   id="svg2"
   inkscape:version="0.91 r13725"
   sodipodi:docname="Sky_Sports_2 HD_2015.svg"><defs
     id="defs54"><linearGradient
       x1="-3700"
       y1="59"
       gradientTransform="matrix(-0.81765741,0,0,0.69447369,-2722.5439,-10.251975)"
       x2="-3700"
       gradientUnits="userSpaceOnUse"
       y2="163"
       id="SVGID_1_"><stop
         id="stop9"
         offset="0"
         stop-color="#091B4A" /><stop
         id="stop11"
         offset="0.0363"
         stop-color="#122D68" /><stop
         id="stop13"
         offset="0.896"
         stop-color="#122D68" /><stop
         id="stop15"
         offset="1"
         stop-color="#091B4A" /></linearGradient><linearGradient
       x1="465"
       y1="162"
       x2="465"
       gradientUnits="userSpaceOnUse"
       y2="59.900002"
       id="SVGID_2_"
       gradientTransform="matrix(0.69447369,0,0,0.69447369,-42.154553,-10.251975)"><stop
         id="stop22"
         offset="0"
         stop-color="#552227" /><stop
         id="stop24"
         offset="0.0739"
         stop-color="#C41C2B" /><stop
         id="stop26"
         offset="0.911"
         stop-color="#C41C2B" /><stop
         id="stop28"
         offset="1"
         stop-color="#FE3446" /></linearGradient></defs><sodipodi:namedview
     pagecolor="#ffffff"
     bordercolor="#666666"
     borderopacity="1"
     objecttolerance="10"
     gridtolerance="10"
     guidetolerance="10"
     inkscape:pageopacity="0"
     inkscape:pageshadow="2"
     inkscape:window-width="1920"
     inkscape:window-height="1017"
     id="namedview52"
     showgrid="false"
     inkscape:zoom="1.1103967"
     inkscape:cx="271.97669"
     inkscape:cy="105.78246"
     inkscape:window-x="-8"
     inkscape:window-y="-8"
     inkscape:window-maximized="1"
     inkscape:current-layer="svg2"
     fit-margin-top="0"
     fit-margin-left="0"
     fit-margin-right="0"
     fit-margin-bottom="0" /><metadata
     id="metadata4"><rdf:RDF><cc:Work
         rdf:about=""><dc:format>image/svg+xml</dc:format><dc:type
           rdf:resource="http://purl.org/dc/dcmitype/StillImage" /><dc:title></dc:title></cc:Work></rdf:RDF></metadata><path
     style="display:none;fill:#a1a2a2"
     inkscape:connector-curvature="0"
     id="path19"
     d="m 12.2,72.753 c -8.1,0 -13.5,-4.800002 -13.5,-12.700002 l 0,-80.6 c 0,-7.9 5.5,-12.7 13.5,-12.7 l 710,0 c 8.1,0 13.5,4.8 13.5,12.7 l 0,81.4 C 735.7,68.753 730.2,73.553 722.2,73.553 l -709,0 z m 710,1 c 12,0 15.6,-7.400002 15.6,-14.900002 l 0,-79 c 0,-7.4 -3.6,-14.9 -15.6,-14.9 l -711,0 c -12,0 -15.6,7.4 -15.6,14.9 l 0,79 c 0,7.4 3.6,14.900002 15.6,14.900002 l 711,0 z"
     display="none" /><g
     id="g4224"
     transform="translate(0,-31.347)"><path
       d="M 8.9124657,102.25276 C 2.2894407,102.25276 0,98.919288 0,93.432946 L 0,40.375156 C 0,34.888814 2.3712065,31.55534 8.9124657,31.55534 l 582.1720643,0 c 6.62304,0 8.91247,3.333474 8.91247,8.819816 l 0,53.405026 c 0,5.486343 -2.37121,8.819818 -8.91247,8.819818 l -581.3544069,0 z"
       id="path17"
       style="fill:url(#SVGID_1_)"
       inkscape:connector-curvature="0" /><rect
       height="70.836319"
       width="299.31815"
       y="31.347"
       x="131.46387"
       id="rect30"
       style="fill:url(#SVGID_2_)" /><g
       transform="matrix(0.8187732,0,0,0.69447369,-49.761683,-10.251975)"
       id="g32"
       style="opacity:0.4"><path
         d="m 785,139 c 6.9,6.9 7.9,13.3 8.1,14.8 0.7,0 0.9,-3 0.9,-7.6 l 0,-72.6 c 0,-8.4 -2.7,-11.3 -9.9,-11.3 -2.4,0 -4.8,1.3 -8,1.3 l -697,0 c -3.2,0 -5.6,-1.3 -8,-1.3 -7.1,0 -9.9,2.8 -9.9,11.3 l 0,72.6 c 0,4.5 0.3,7.6 0.9,7.6 0.2,-1.4 0.5,-8.4 8.1,-14.8 61.3,-47.2 648,-61.7 714,0 z"
         id="path34"
         inkscape:connector-curvature="0"
         style="fill:#ffffff" /></g><path
       d="m 84.934132,96.696972 c 0.833369,0.416685 2.569551,0.972264 4.722421,0.972264 3.680707,0.06945 5.694683,-1.3195 7.222529,-4.652974 L 116.74103,48.778288 c -0.83337,-0.416685 -2.639,-0.902816 -4.0974,-0.972263 -2.56955,-0.06945 -5.97247,0.486132 -8.19479,5.694684 L 98.198582,69.404157 85.69805,48.847736 c -0.833366,-0.27779 -2.777891,-0.625027 -4.236286,-0.625027 -4.444632,0 -6.944737,1.666737 -9.51429,4.444631 l -12.222737,13.403343 9.861526,15.486763 c 1.805632,2.847342 4.23629,4.236289 8.125343,4.236289 2.569552,0 4.652974,-0.555579 5.625236,-1.04171 L 71.53079,66.695709 79.864474,58.153683 93.753949,79.890709 85.420263,97.252551 Z M 58.891369,79.960156 c 0,3.264027 -1.250053,5.139106 -7.639211,5.139106 -0.833369,0 -1.597289,-0.06945 -2.291763,-0.138895 l 0,-42.987922 c 0,-3.264025 1.111158,-6.736394 7.569763,-6.736394 0.833368,0 1.597289,0.06945 2.361211,0.208342 l 0,44.863 z M 45.765816,73.432104 c 0,6.111368 -3.9585,10.556 -12.083842,11.389368 -5.833579,0.625027 -14.306159,-0.138895 -18.334105,-0.555579 -0.138895,-0.625026 -0.27779,-1.458395 -0.27779,-2.083421 0,-5.347447 2.847342,-6.528053 5.55579,-6.528053 2.777894,0 7.222526,0.486132 10.486553,0.486132 3.611262,0 4.72242,-1.250053 4.72242,-2.361211 0,-1.527842 -1.458395,-2.152868 -4.236289,-2.708447 L 23.959342,69.612499 C 16.945158,68.223551 13.542237,63.362235 13.542237,59.195393 c 0,-5.694684 4.027947,-10.486553 11.944948,-11.319921 5.972473,-0.625026 13.264447,0.06945 17.292394,0.555579 0.138895,0.694474 0.208342,1.3195 0.208342,2.083421 0,5.278 -2.777895,6.458605 -5.486342,6.458605 -2.083421,0 -5.278,-0.416684 -8.958711,-0.416684 -3.750158,0 -5.277999,1.041711 -5.277999,2.291763 0,1.3195 1.458394,1.875079 3.819605,2.291764 l 7.291973,1.388947 c 7.500316,1.180605 10.764343,5.486342 10.764343,10.764342 z"
       id="path36"
       inkscape:connector-curvature="0"
       style="fill:#ffffff" /><path
       d="m 463.42229,78.640656 c 0.76393,-2.222316 6.94474,-4.444631 10.06987,-5.972474 9.44485,-4.514079 15.34787,-7.63921 15.34787,-16.181236 0,-6.458606 -4.72243,-13.75058 -18.61189,-13.75058 -5.76414,0 -14.09782,1.875079 -18.12577,3.958501 -0.20834,5.416894 2.5001,7.847552 4.93076,7.847552 4.02795,0 7.50032,-2.222315 13.54224,-2.222315 4.51408,0 6.94474,2.083421 6.94474,4.514079 0,4.305737 -5.13911,5.625237 -11.45882,9.097605 -8.33368,4.583526 -14.44505,8.264237 -14.44505,16.597921 0,1.666737 0.20834,3.9585 0.55558,5.486342 l 30.83463,0 c 2.91679,0 5.90303,-1.388947 5.90303,-7.153079 0,-0.694474 -0.0695,-1.597289 -0.20835,-2.291763 l -25.27884,0 z"
       id="path38"
       inkscape:connector-curvature="0"
       style="fill:#ffffff" /><path
       d="m 187.71624,75.168288 c 0,-7.361421 -4.79187,-10.972684 -12.43108,-12.639421 l -13.195,-3.472369 c -2.43066,-0.555579 -4.44463,-1.3195 -4.44463,-3.750158 0,-2.639 2.08342,-3.68071 7.70866,-3.68071 6.59749,0 8.19478,0.347237 14.16726,0.347237 2.7779,0 5.62523,-1.3195 5.62523,-6.736395 0,-0.694473 -0.0695,-1.388948 -0.20833,-2.083421 -4.02796,-0.347237 -11.31993,-0.763921 -20.20919,-0.763921 -13.47279,0 -18.61189,5.833579 -18.61189,13.264447 0,6.944737 4.37518,10.83379 12.15328,12.639422 l 13.40335,3.125131 c 3.12513,0.763921 4.79187,2.083421 4.79187,4.027947 0,2.639 -2.36122,3.680711 -7.98645,3.680711 -6.5975,0 -9.65319,-0.486132 -15.69511,-0.486132 -2.77789,0 -5.62524,1.250053 -5.62524,6.736395 0,0.694474 0.0695,1.388948 0.20835,2.083421 4.02794,0.416684 12.77832,0.902816 21.66757,0.902816 13.54224,0.06945 18.88969,-5.694684 18.88969,-13.611684 z"
       id="path40"
       inkscape:connector-curvature="0"
       style="fill:#ffffff" /><path
       d="m 298.13755,63.362235 0,-11.389368 10.62545,0 c 4.51408,0 8.12534,0.694473 8.12534,5.416895 0,3.9585 -2.70844,5.903026 -8.12534,5.903026 l -10.62545,0 z m -0.0695,8.889263 5.62523,0 10.83379,12.917211 c 2.01397,2.500105 3.9585,3.819605 8.61147,3.819605 3.12514,0 5.20856,-0.416684 6.8753,-1.250052 L 315.91608,71.41813 c 7.917,-1.666737 11.8755,-6.805842 11.8755,-14.375605 0,-9.305947 -5.69469,-13.889474 -17.1535,-13.889474 L 294.2485,43.0836 c -5.34744,0.208342 -7.08363,2.013974 -7.08363,6.875289 l 0,38.265501 c 0.83336,0.138895 1.73619,0.208342 2.70845,0.208342 6.7364,0 8.33368,-1.944526 8.33368,-5.486342 l -0.13889,-10.694892 z"
       id="path42"
       inkscape:connector-curvature="0"
       style="fill:#ffffff" /><path
       d="m 203.68914,64.751183 0,-12.708869 11.04213,0 c 5.48633,0 8.19479,2.013974 8.19479,6.041921 0,4.23629 -2.70846,6.389158 -8.19479,6.389158 l -11.11158,0 z m -10.97269,23.681552 c 0.83337,0.138895 1.73618,0.208343 2.70844,0.208343 6.7364,0 8.33369,-1.944527 8.33369,-5.486343 l 0,-9.236499 11.45882,0 c 12.50052,0 18.75079,-5.416895 18.75079,-15.556211 0,-9.792079 -6.25027,-15.000632 -17.98687,-15.000632 l -16.18124,0 c -5.41689,0 -7.08363,2.083421 -7.08363,6.875289 l 0,38.196053 z"
       id="path44"
       inkscape:connector-curvature="0"
       style="fill:#ffffff" /><path
       d="m 270.35861,64.751183 c 0,5.208553 -0.90282,8.819815 -2.639,11.042132 -1.66674,2.222315 -4.44464,3.264026 -8.26424,3.264026 -3.8196,-0.06945 -6.5975,-1.180606 -8.40313,-3.264026 -1.73618,-2.083421 -2.639,-5.764133 -2.639,-11.042132 0,-5.208553 0.97226,-8.819816 2.70845,-10.972685 1.73618,-2.152868 4.51408,-3.194579 8.33368,-3.194579 3.8196,0 6.45861,1.041711 8.26424,3.194579 1.73618,2.152869 2.639,5.764132 2.639,10.972685 z m -10.90324,23.264868 c 7.08363,0 12.56997,-1.666737 16.45902,-5.139105 3.81961,-3.402921 5.83359,-9.444842 5.83359,-18.125763 -0.0695,-8.542027 -2.01398,-14.445053 -6.04192,-17.986869 -3.95851,-3.472369 -9.3754,-5.208552 -16.25069,-5.208552 -6.80584,0 -12.22274,1.736183 -16.25069,5.208552 -3.9585,3.541816 -5.97247,9.444842 -6.04192,17.986869 0,8.680921 1.94453,14.722842 5.83358,18.125763 3.88906,3.472368 9.3754,5.139105 16.45903,5.139105 z"
       id="path46"
       inkscape:connector-curvature="0"
       style="fill:#ffffff" /><path
       d="m 357.16782,52.320104 8.88926,0 c 2.91679,0 5.90302,-1.3195 5.90302,-7.083632 0,-0.694473 -0.0695,-1.458394 -0.20833,-2.152869 l -34.37646,0 c -2.91679,0 -5.90302,1.3195 -5.90302,7.083633 0,0.694473 0.0695,1.458394 0.20834,2.152868 l 14.58395,0 0,35.834842 c 0.83337,0.138895 1.73618,0.208342 2.70844,0.208342 6.7364,0 8.33369,-1.944526 8.33369,-5.486342 l 0,-30.556842 z"
       id="path48"
       inkscape:connector-curvature="0"
       style="fill:#ffffff" /><path
       d="m 416.19808,75.168288 c 0,-7.361421 -4.79187,-10.972684 -12.43108,-12.639421 l -13.40334,-3.055684 c -2.43066,-0.555579 -4.44463,-1.3195 -4.44463,-3.750158 0,-2.639 2.08342,-3.680711 7.70865,-3.680711 6.59751,0 8.19479,0.347237 14.16727,0.347237 2.77789,0 5.62524,-1.3195 5.62524,-6.736394 0,-0.694475 -0.0695,-1.388948 -0.20835,-2.083422 -4.02794,-0.347236 -11.31991,-0.763921 -20.20918,-0.763921 -13.47279,0 -18.6119,5.833579 -18.6119,13.264448 0,6.944737 4.37519,10.833789 12.1533,12.63942 l 13.40334,3.125133 c 3.12512,0.763921 4.79186,2.083421 4.79186,4.027946 0,2.639001 -2.3612,3.680711 -7.98644,3.680711 -6.5975,0 -9.65319,-0.486131 -15.6951,-0.486131 -2.7779,0 -5.62525,1.250052 -5.62525,6.736394 0,0.694474 0.0695,1.388948 0.20835,2.083421 4.02794,0.416685 12.77831,0.902816 21.66758,0.902816 13.54224,0.06945 18.88968,-5.694684 18.88968,-13.611684 z"
       id="path50"
       inkscape:connector-curvature="0"
       style="fill:#ffffff" /><path
       d="m 558.17876,76.21105 0,-21.3029 6.23997,0 c 8.66996,0 11.83994,5.60297 11.83994,10.65195 0,5.05297 -3.16998,10.65095 -11.83994,10.65095 l -6.22997,0 z M 585.12863,65.5601 c 0,-11.09495 -7.97996,-18.63391 -21.19989,-18.63391 l -9.00996,0 c -4.30998,0 -5.33997,2.28199 -5.33997,5.25997 l 0,26.79587 c 0,2.87599 1.02999,5.20098 5.33997,5.20098 l 9.00996,0 c 13.21993,0.001 21.19989,-7.52597 21.19989,-18.62291 m -49.56976,-4.31098 0,-10.09295 c 0,-2.72799 1.09,-4.46598 6.72997,-4.46598 0.7,0 1.28999,0.052 1.99999,0.149 l 0,33.10984 c 0,2.71998 -1.09999,4.45297 -6.74997,4.45297 -0.68999,0 -1.28999,-0.047 -1.97999,-0.14399 l 0,-15.03693 -17.58991,0 0,10.72795 c 0,2.71998 -1.09,4.45297 -6.73997,4.45297 -0.68999,0 -1.28999,-0.047 -1.97999,-0.14399 l 0,-33.10284 c 0,-2.72799 1.09,-4.46598 6.73997,-4.46598 0.69,0 1.28999,0.052 1.97999,0.149 l 0,14.40893 17.58991,0 z"
       id="path94"
       inkscape:connector-curvature="0"
       style="fill:#ffffff" /></g></svg>