<?xml version="1.0" encoding="UTF-8" standalone="no"?>
<!-- Created with Inkscape (http://www.inkscape.org/) -->

<svg
   xmlns:dc="http://purl.org/dc/elements/1.1/"
   xmlns:cc="http://creativecommons.org/ns#"
   xmlns:rdf="http://www.w3.org/1999/02/22-rdf-syntax-ns#"
   xmlns:svg="http://www.w3.org/2000/svg"
   xmlns="http://www.w3.org/2000/svg"
   xmlns:sodipodi="http://sodipodi.sourceforge.net/DTD/sodipodi-0.dtd"
   xmlns:inkscape="http://www.inkscape.org/namespaces/inkscape"
   width="2372.4458"
   height="729.99994"
   viewBox="0 0 2372.4458 729.99997"
   id="svg8519"
   version="1.1"
   inkscape:version="0.91 r13725"
   sodipodi:docname="Sky Cinema Superheroes - Dark.svg">
  <defs
     id="defs8521">
    <clipPath
       clipPathUnits="userSpaceOnUse"
       id="clipPath1252">
      <path
         d="m 411.591,515.351 94.948,0 0,18.13 -94.948,0 0,-18.13 z"
         id="path1254"
         inkscape:connector-curvature="0" />
    </clipPath>
    <clipPath
       clipPathUnits="userSpaceOnUse"
       id="clipPath1288">
      <path
         d="m 412.392,532.67 93.284,0 0,-15.246 -93.284,0 0,15.246 z"
         id="path1290"
         inkscape:connector-curvature="0" />
    </clipPath>
    <clipPath
       clipPathUnits="userSpaceOnUse"
       id="clipPath1292">
      <path
         d="m 412.392,517.424 93.284,0 0,15.245 -93.284,0 0,-15.245 z"
         id="path1294"
         inkscape:connector-curvature="0" />
    </clipPath>
    <linearGradient
       x1="0"
       y1="0"
       x2="1"
       y2="0"
       gradientUnits="userSpaceOnUse"
       gradientTransform="matrix(0,17.057004,17.057004,0,474.76197,515.88703)"
       spreadMethod="pad"
       id="linearGradient1236">
      <stop
         style="stop-opacity:1;stop-color:#820021"
         offset="0"
         id="stop1238" />
      <stop
         style="stop-opacity:1;stop-color:#ae2c3f"
         offset="0.104411"
         id="stop1240" />
      <stop
         style="stop-opacity:1;stop-color:#ae2c3f"
         offset="0.901742"
         id="stop1242" />
      <stop
         style="stop-opacity:1;stop-color:#ba3c4c"
         offset="1"
         id="stop1244" />
    </linearGradient>
    <clipPath
       clipPathUnits="userSpaceOnUse"
       id="clipPath1202">
      <path
         d="m 411.591,515.351 94.948,0 0,18.13 -94.948,0 0,-18.13 z"
         id="path1204"
         inkscape:connector-curvature="0" />
    </clipPath>
    <clipPath
       clipPathUnits="userSpaceOnUse"
       id="clipPath1214">
      <path
         d="m 505.836,530.723 0.017,0 0,-0.016 -0.017,0 0,0.016 z"
         id="path1216"
         inkscape:connector-curvature="0" />
    </clipPath>
    <linearGradient
       x1="0"
       y1="0"
       x2="1"
       y2="0"
       gradientUnits="userSpaceOnUse"
       gradientTransform="matrix(0,-17.343138,17.343138,0,459.06457,533.09243)"
       spreadMethod="pad"
       id="linearGradient1178">
      <stop
         style="stop-opacity:1;stop-color:#868685"
         offset="0"
         id="stop1180" />
      <stop
         style="stop-opacity:1;stop-color:#d8d9d9"
         offset="0.020448"
         id="stop1182" />
      <stop
         style="stop-opacity:1;stop-color:#f5f5f5"
         offset="0.0524045"
         id="stop1184" />
      <stop
         style="stop-opacity:1;stop-color:#edeeee"
         offset="0.487663"
         id="stop1186" />
      <stop
         style="stop-opacity:1;stop-color:#f5f5f5"
         offset="0.895488"
         id="stop1188" />
      <stop
         style="stop-opacity:1;stop-color:#ebebec"
         offset="0.929442"
         id="stop1190" />
      <stop
         style="stop-opacity:1;stop-color:#d8d9d9"
         offset="0.964262"
         id="stop1192" />
      <stop
         style="stop-opacity:1;stop-color:#868685"
         offset="1"
         id="stop1194" />
    </linearGradient>
  </defs>
  <sodipodi:namedview
     id="base"
     pagecolor="#ffffff"
     bordercolor="#666666"
     borderopacity="1.0"
     inkscape:pageopacity="0.0"
     inkscape:pageshadow="2"
     inkscape:zoom="0.35"
     inkscape:cx="1111.6482"
     inkscape:cy="208.86796"
     inkscape:document-units="px"
     inkscape:current-layer="layer1"
     showgrid="false"
     fit-margin-top="0"
     fit-margin-left="0"
     fit-margin-right="0"
     fit-margin-bottom="0"
     inkscape:window-width="1920"
     inkscape:window-height="1017"
     inkscape:window-x="-8"
     inkscape:window-y="-8"
     inkscape:window-maximized="1"
     units="px" />
  <metadata
     id="metadata8524">
    <rdf:RDF>
      <cc:Work
         rdf:about="">
        <dc:format>image/svg+xml</dc:format>
        <dc:type
           rdf:resource="http://purl.org/dc/dcmitype/StillImage" />
        <dc:title></dc:title>
      </cc:Work>
    </rdf:RDF>
  </metadata>
  <g
     inkscape:label="Layer 1"
     inkscape:groupmode="layer"
     id="layer1"
     transform="translate(-192.08646,474.87828)">
    <g
       id="g4201"
       transform="matrix(19.98952,0,0,19.98952,-3647.627,-5121.6388)">
      <g
         id="g1166"
         transform="matrix(1.25,0,0,-1.25,-322.40243,899.31046)">
        <g
           id="g1168">
          <g
             id="g1174">
            <g
               id="g1176">
              <path
                 inkscape:connector-curvature="0"
                 id="path1196"
                 style="fill:url(#linearGradient1178);stroke:none"
                 d="m 414.085,532.944 c -1.345,0 -1.823,-0.794 -1.823,-2.114 l 0,0 0,-12.829 c 0,-1.32 0.478,-2.114 1.823,-2.114 l 0,0 89.96,0 c 1.345,0 1.822,0.794 1.822,2.114 l 0,0 0,12.829 c 0,1.32 -0.477,2.114 -1.822,2.114 l 0,0 -89.96,0 z" />
            </g>
          </g>
        </g>
      </g>
      <g
         id="g1198"
         transform="matrix(1.25,0,0,-1.25,-322.40243,899.31046)">
        <g
           clip-path="url(#clipPath1202)"
           id="g1200">
          <g
             transform="translate(503.9336,515.3505)"
             id="g1206">
            <path
               inkscape:connector-curvature="0"
               id="path1208"
               style="fill:#a1a2a2;fill-opacity:1;fill-rule:nonzero;stroke:none"
               d="m 0,0 c 1.996,0 2.605,1.241 2.605,2.482 l 0,13.166 C 2.605,16.889 1.996,18.13 0,18.13 l -89.738,0 c -1.997,0 -2.605,-1.241 -2.605,-2.482 l 0,-13.166 C -92.343,1.241 -91.735,0 -89.738,0 L 0,0 Z m -89.646,0.167 c -1.344,0 -2.254,0.793 -2.254,2.114 l 0,13.568 c 0,1.321 0.91,2.114 2.254,2.114 l 89.554,0 c 1.344,0 2.254,-0.793 2.254,-2.114 l 0,-13.568 c 0,-1.321 -0.91,-2.114 -2.254,-2.114 l -89.554,0 z" />
          </g>
          <g
             id="g1210">
            <g
               id="g1212" />
            <g
               id="g1218">
              <g
                 style="opacity:0.80000299"
                 id="g1220"
                 clip-path="url(#clipPath1214)">
                <g
                   id="g1222" />
              </g>
            </g>
          </g>
        </g>
      </g>
      <g
         id="g1224"
         transform="matrix(1.25,0,0,-1.25,-322.40243,899.31046)">
        <g
           id="g1226">
          <g
             id="g1232">
            <g
               id="g1234">
              <path
                 inkscape:connector-curvature="0"
                 id="path1246"
                 style="fill:url(#linearGradient1236);stroke:none"
                 d="m 443.657,532.944 0,-17.057 60.388,0 c 1.345,0 1.822,0.794 1.822,2.114 l 0,0 0,12.829 c 0,1.32 -0.477,2.114 -1.822,2.114 l 0,0 -60.388,0 z" />
            </g>
          </g>
        </g>
      </g>
      <g
         id="g1248"
         transform="matrix(1.25,0,0,-1.25,-322.40243,899.31046)">
        <g
           clip-path="url(#clipPath1252)"
           id="g1250">
          <g
             transform="translate(452.075,519.0374)"
             id="g1256">
            <path
               inkscape:connector-curvature="0"
               id="path1258"
               style="fill:#ffffff;fill-opacity:1;fill-rule:nonzero;stroke:none"
               d="m 0,0 c -0.756,0 -1.454,0.136 -2.093,0.408 -0.639,0.273 -1.192,0.649 -1.661,1.129 -0.469,0.481 -0.836,1.052 -1.102,1.714 -0.266,0.662 -0.4,1.377 -0.4,2.146 0,0.747 0.134,1.446 0.4,2.098 0.266,0.651 0.633,1.217 1.102,1.697 0.469,0.481 1.022,0.857 1.661,1.129 0.639,0.273 1.337,0.409 2.093,0.409 0.543,0 1.07,-0.059 1.581,-0.176 C 2.093,10.436 2.566,10.286 3.003,10.105 3.099,8.685 2.753,7.975 1.965,7.975 1.826,7.975 1.699,7.991 1.581,8.023 1.464,8.055 1.336,8.087 1.198,8.119 1.059,8.151 0.905,8.183 0.735,8.215 0.564,8.247 0.362,8.264 0.128,8.264 -0.245,8.264 -0.596,8.197 -0.927,8.063 -1.257,7.93 -1.541,7.737 -1.781,7.487 -2.021,7.236 -2.21,6.934 -2.348,6.582 -2.487,6.23 -2.556,5.834 -2.556,5.397 c 0,-0.46 0.069,-0.871 0.208,-1.233 0.138,-0.363 0.327,-0.67 0.567,-0.921 0.24,-0.251 0.524,-0.443 0.854,-0.577 0.331,-0.133 0.682,-0.2 1.055,-0.2 0.234,0 0.442,0.016 0.623,0.048 0.181,0.032 0.343,0.064 0.487,0.096 0.144,0.032 0.28,0.064 0.407,0.096 0.128,0.032 0.261,0.048 0.4,0.048 0.777,0 1.123,-0.71 1.038,-2.13 C 2.646,0.443 2.159,0.293 1.621,0.176 1.083,0.059 0.543,0 0,0" />
          </g>
          <g
             transform="translate(457.5874,519.1654)"
             id="g1260">
            <path
               inkscape:connector-curvature="0"
               id="path1262"
               style="fill:#ffffff;fill-opacity:1;fill-rule:nonzero;stroke:none"
               d="m 0,0 c -0.224,0 -0.445,0.011 -0.663,0.032 -0.218,0.021 -0.402,0.048 -0.551,0.08 l 0,9.273 c 0,0.309 0.096,0.573 0.287,0.792 0.192,0.219 0.554,0.329 1.087,0.329 0.223,0 0.444,-0.011 0.663,-0.033 0.218,-0.021 0.402,-0.048 0.551,-0.08 l 0,-9.272 C 1.374,0.811 1.278,0.547 1.086,0.328 0.895,0.109 0.532,0 0,0" />
          </g>
          <g
             transform="translate(461.9564,519.1654)"
             id="g1264">
            <path
               inkscape:connector-curvature="0"
               id="path1266"
               style="fill:#ffffff;fill-opacity:1;fill-rule:nonzero;stroke:none"
               d="m 0,0 c -0.213,0 -0.421,0.011 -0.623,0.032 -0.203,0.021 -0.373,0.048 -0.511,0.08 l 0,10.201 c 0.159,0.054 0.367,0.099 0.623,0.137 0.255,0.037 0.473,0.056 0.655,0.056 0.585,0 1.011,-0.075 1.278,-0.225 0.266,-0.149 0.489,-0.368 0.671,-0.656 l 3.626,-5.717 0,5.573 c 0,0.138 0.018,0.269 0.056,0.392 0.037,0.123 0.101,0.232 0.191,0.328 0.091,0.096 0.216,0.171 0.376,0.224 0.159,0.054 0.362,0.081 0.607,0.081 0.213,0 0.418,-0.011 0.615,-0.033 0.197,-0.021 0.364,-0.042 0.503,-0.063 l 0,-10.218 C 7.918,0.117 7.737,0.067 7.524,0.04 7.311,0.013 7.103,0 6.901,0 6.4,0 6.027,0.069 5.783,0.208 5.537,0.347 5.335,0.539 5.176,0.785 l -3.882,6.214 0,-5.942 C 1.294,0.758 1.203,0.507 1.022,0.304 0.841,0.101 0.5,0 0,0" />
          </g>
          <g
             transform="translate(473.3041,519.2296)"
             id="g1268">
            <path
               inkscape:connector-curvature="0"
               id="path1270"
               style="fill:#ffffff;fill-opacity:1;fill-rule:nonzero;stroke:none"
               d="m 0,0 c -0.298,0 -0.541,0.032 -0.727,0.096 -0.186,0.064 -0.33,0.152 -0.431,0.264 -0.102,0.112 -0.171,0.248 -0.208,0.409 -0.037,0.16 -0.056,0.33 -0.056,0.512 l 0,7.847 c 0,0.182 0.019,0.353 0.056,0.513 0.037,0.16 0.106,0.296 0.208,0.408 0.101,0.112 0.245,0.2 0.431,0.264 0.186,0.064 0.429,0.096 0.727,0.096 l 5.287,0 C 5.309,10.292 5.33,10.132 5.351,9.929 5.373,9.726 5.383,9.518 5.383,9.305 5.383,8.856 5.293,8.538 5.112,8.352 4.93,8.165 4.702,8.071 4.425,8.071 l -3.259,0 0,-1.825 3.754,0 C 4.941,6.139 4.963,5.997 4.984,5.821 5.005,5.645 5.016,5.455 5.016,5.253 5.016,4.826 4.93,4.535 4.76,4.38 4.59,4.225 4.377,4.148 4.121,4.148 l -2.955,0 0,-1.81 4.281,0 C 5.468,2.22 5.49,2.058 5.511,1.85 5.532,1.641 5.543,1.436 5.543,1.233 5.543,0.774 5.452,0.454 5.271,0.272 5.09,0.091 4.861,0 4.585,0 L 0,0 Z" />
          </g>
          <g
             transform="translate(480.983,519.1654)"
             id="g1272">
            <path
               inkscape:connector-curvature="0"
               id="path1274"
               style="fill:#ffffff;fill-opacity:1;fill-rule:nonzero;stroke:none"
               d="M 0,0 C -0.245,0 -0.461,0.024 -0.647,0.072 -0.834,0.12 -0.996,0.176 -1.134,0.24 l 0.976,9.977 c 0.203,0.086 0.469,0.155 0.799,0.208 0.33,0.054 0.612,0.081 0.846,0.081 0.33,0 0.615,-0.022 0.854,-0.065 0.24,-0.042 0.445,-0.114 0.615,-0.216 C 3.126,10.124 3.262,9.982 3.363,9.801 3.464,9.619 3.541,9.395 3.595,9.128 L 4.01,7.191 C 4.127,6.657 4.252,6.067 4.385,5.421 4.518,4.775 4.638,4.11 4.744,3.427 l 0.064,0 C 4.925,4.11 5.047,4.772 5.175,5.413 5.303,6.054 5.436,6.641 5.574,7.174 l 0.51,2.034 c 0.128,0.502 0.332,0.844 0.614,1.025 0.282,0.182 0.721,0.273 1.316,0.273 0.298,0 0.598,-0.025 0.901,-0.073 0.303,-0.048 0.556,-0.098 0.758,-0.152 L 10.607,0.24 C 10.458,0.187 10.279,0.133 10.072,0.08 9.864,0.027 9.638,0 9.393,0 9.052,0 8.764,0.059 8.53,0.176 8.296,0.294 8.168,0.513 8.147,0.833 L 7.907,4.292 C 7.854,4.901 7.809,5.538 7.771,6.206 7.734,6.873 7.71,7.505 7.699,8.104 l -0.032,0 C 7.529,7.548 7.388,6.948 7.244,6.302 7.1,5.656 6.954,5.061 6.805,4.516 L 6.15,1.794 C 5.99,1.153 5.484,0.833 4.632,0.833 4.419,0.833 4.201,0.854 3.977,0.897 3.754,0.939 3.562,0.987 3.402,1.041 L 2.588,4.436 C 2.428,5.066 2.279,5.685 2.141,6.294 2.002,6.902 1.874,7.511 1.757,8.119 l -0.048,0 C 1.677,7.265 1.635,6.483 1.581,5.773 1.528,5.063 1.48,4.452 1.438,3.94 L 1.182,0.817 C 1.161,0.507 1.044,0.294 0.831,0.176 0.617,0.059 0.341,0 0,0" />
          </g>
          <g
             transform="translate(496.0557,523.5375)"
             id="g1276">
            <path
               inkscape:connector-curvature="0"
               id="path1278"
               style="fill:#ffffff;fill-opacity:1;fill-rule:nonzero;stroke:none"
               d="M 0,0 2.39,0 1.198,3.923 0,0 Z m -2.492,-4.404 c -0.202,0 -0.434,0.019 -0.694,0.056 -0.262,0.037 -0.477,0.088 -0.647,0.152 L -0.519,5.957 C -0.231,6.032 0.06,6.086 0.354,6.118 0.648,6.15 0.917,6.166 1.163,6.166 1.515,6.166 1.817,6.139 2.068,6.086 2.319,6.032 2.53,5.952 2.701,5.845 2.872,5.738 3.013,5.597 3.125,5.421 3.237,5.245 3.331,5.039 3.406,4.804 L 6.246,-4.18 C 6.065,-4.255 5.847,-4.311 5.591,-4.348 5.336,-4.385 5.085,-4.404 4.841,-4.404 c -0.278,0 -0.546,0.045 -0.807,0.136 -0.261,0.091 -0.45,0.296 -0.567,0.617 l -0.544,1.649 -3.484,0 -0.461,-1.553 C -1.139,-3.929 -1.336,-4.164 -1.613,-4.26 -1.89,-4.356 -2.183,-4.404 -2.492,-4.404" />
          </g>
          <g
             transform="translate(423.1164,522.7819)"
             id="g1280">
            <path
               inkscape:connector-curvature="0"
               id="path1282"
               style="fill:#ae2c3f;fill-opacity:1;fill-rule:nonzero;stroke:none"
               d="m 0,0 c 0,-1.46 -0.955,-2.527 -2.894,-2.738 -1.404,-0.15 -3.438,0.027 -4.404,0.138 -0.036,0.158 -0.064,0.354 -0.064,0.508 0,1.278 0.691,1.569 1.338,1.569 0.672,0 1.73,-0.116 2.518,-0.116 0.865,0 1.129,0.294 1.129,0.573 0,0.367 -0.349,0.52 -1.021,0.648 l -1.839,0.354 c -1.531,0.293 -2.348,1.352 -2.348,2.476 0,1.366 0.967,2.509 2.868,2.72 1.438,0.155 3.187,-0.02 4.148,-0.138 0.035,-0.165 0.053,-0.321 0.053,-0.492 0,-1.274 -0.671,-1.549 -1.319,-1.549 -0.497,0 -1.269,0.093 -2.15,0.093 -0.897,0 -1.269,-0.248 -1.269,-0.55 0,-0.319 0.355,-0.451 0.916,-0.549 L -2.58,2.621 C -0.774,2.288 0,1.262 0,0 m 3.155,-1.568 c 0,-0.783 -0.307,-1.235 -1.836,-1.235 -0.203,0 -0.38,0.015 -0.55,0.04 l 0,10.39 c 0,0.789 0.269,1.612 1.813,1.612 0.194,0 0.391,-0.02 0.573,-0.058 l 0,-10.749 z m 6.25,-4.019 c 0.2,-0.103 0.612,-0.227 1.131,-0.241 0.886,-0.019 1.371,0.321 1.73,1.116 L 17.03,5.914 C 16.833,6.02 16.399,6.137 16.042,6.145 15.43,6.156 14.608,6.031 14.082,4.778 L 12.539,1.137 9.514,6.064 C 9.319,6.124 8.843,6.21 8.493,6.21 7.426,6.21 6.828,5.816 6.209,5.144 L 3.268,1.927 5.634,-1.796 c 0.437,-0.678 1.013,-1.024 1.949,-1.024 0.612,0 1.121,0.139 1.357,0.252 L 6.092,1.727 8.111,3.866 11.422,-1.331 9.405,-5.587 Z" />
          </g>
          <g
             id="g1284">
            <g
               id="g1286" />
            <g
               id="g1296">
              <g
                 style="opacity:0.39999402"
                 id="g1298"
                 clip-path="url(#clipPath1288)">
                <g
                   id="g1300">
                  <g
                     id="g1302">
                    <g
                       id="g1304"
                       clip-path="url(#clipPath1292)">
                      <g
                         id="g1306"
                         transform="translate(504.1664,519.8869)">
                        <path
                           inkscape:connector-curvature="0"
                           id="path1308"
                           style="fill:#ffffff;fill-opacity:1;fill-rule:nonzero;stroke:none"
                           d="m 0,0 c 1.156,-1.145 1.313,-2.225 1.354,-2.463 0.114,0 0.156,0.506 0.156,1.261 L 1.506,10.907 c 0,1.402 -0.456,1.876 -1.644,1.876 -0.402,0 -0.804,-0.216 -1.339,-0.216 l -87.31,0 c -0.536,0 -0.938,0.216 -1.34,0.216 -1.187,0 -1.643,-0.474 -1.643,-1.876 l -0.004,-12.109 c 0,-0.755 0.041,-1.261 0.155,-1.261 0.041,0.238 0.076,1.402 1.354,2.463 C -80.057,7.878 -11.006,10.296 0,0" />
                      </g>
                    </g>
                  </g>
                </g>
              </g>
            </g>
          </g>
        </g>
      </g>
    </g>
    <g
       id="#000000ff"
       transform="matrix(1.0030847,0,0,1.0030847,375.35002,-79.944074)">
      <path
         d="m 1416.61,167.76 c 18.19,-2.99 37.59,-0.55 53.73,8.67 15.32,8.4 27.17,22.46 33.68,38.6 12.2,30.19 7.54,67.25 -13.73,92.29 -11.6,13.86 -28.41,23.19 -46.29,25.77 -17.19,2.5 -35.38,0.11 -50.67,-8.42 -16.2,-8.7 -28.45,-23.76 -35.17,-40.74 -11.56,-29.4 -7.56,-65.31 12.77,-89.95 11.41,-13.85 27.99,-23.26 45.68,-26.22 m 3.88,24.9 c -10.08,2.4 -19.18,8.33 -25.73,16.3 -10.54,12.72 -14.96,29.74 -13.7,46.06 1.04,18.17 9.5,36.71 25.15,46.75 13.36,8.94 31.65,9.91 45.74,2.05 15.23,-8.06 25.25,-23.9 28.34,-40.61 3.77,-20.18 -0.97,-42.85 -15.76,-57.69 -11.19,-11.52 -28.39,-16.75 -44.04,-12.86 z"
         id="path5"
         inkscape:connector-curvature="0"
         style="opacity:1;fill:#000000" />
      <path
         d="m 236.87,188.88 c 8.37,-12.12 23,-18.37 37.22,-20.23 22.15,-2.62 44.68,1.27 65.62,8.59 -0.03,6.23 0.14,13.31 -4.16,18.33 -3.72,3.95 -9.74,3.27 -14.56,2.3 -13.75,-2.87 -27.81,-5.49 -41.9,-4.06 -6.22,0.7 -12.7,2.49 -17.35,6.9 -5.62,5.19 -6.49,14.54 -2.27,20.84 3.24,4.43 8.66,6.37 13.58,8.29 12.74,4.26 25.84,7.34 38.64,11.4 11.44,3.9 22.85,10.07 29.63,20.44 7.02,10.59 7.53,24.23 4.66,36.28 -2.24,9.6 -8.16,18.23 -16.32,23.78 -11.83,8.18 -26.5,10.93 -40.64,11.24 -20.18,0.43 -40.23,-3.58 -59.33,-9.88 -0.49,-6.31 -0.11,-13.34 3.99,-18.48 3.83,-4.37 10.26,-3.64 15.37,-2.57 13.79,3.12 27.79,6.34 42.04,5.53 7.74,-0.43 16.31,-1.66 22.03,-7.42 5.54,-5.28 7.38,-13.93 4.71,-21.06 -1.85,-4.81 -6.29,-7.98 -10.84,-10 -18.44,-7.71 -39.21,-9.25 -56.6,-19.6 -10.66,-6.12 -18.03,-17.33 -19.86,-29.43 -1.52,-10.66 0.36,-22.12 6.34,-31.19 z"
         id="path7"
         inkscape:connector-curvature="0"
         style="opacity:1;fill:#000000" />
      <path
         d="m 1658.11,191.07 c 7.96,-13.58 23.7,-20.52 38.79,-22.45 22.09,-2.58 44.52,1.35 65.4,8.59 0.02,6.16 0.15,13.08 -3.92,18.13 -3.31,3.8 -8.88,3.62 -13.4,2.79 -14.43,-2.95 -29.19,-5.92 -43.98,-4.24 -6.35,0.8 -12.99,2.81 -17.44,7.64 -6.1,6.51 -5.51,18.63 2.25,23.61 7.99,5.08 17.44,6.96 26.39,9.68 11.56,3.51 23.64,5.84 34.34,11.67 7.58,4.01 14.46,9.76 18.69,17.31 4,6.98 5.3,15.19 4.94,23.15 -0.41,10.31 -3.63,20.87 -10.76,28.55 -9.82,10.68 -24.43,15.44 -38.51,16.9 -23.22,2.22 -46.69,-1.98 -68.66,-9.41 -0.35,-6.34 -0.05,-13.45 4.23,-18.54 3.71,-4.07 9.77,-3.48 14.68,-2.51 13.09,2.89 26.31,6.11 39.83,5.72 8.29,-0.22 17.44,-1.03 23.97,-6.74 7.42,-6.32 9.3,-18.99 2.57,-26.45 -4.75,-5 -11.64,-6.9 -17.98,-8.98 -11.5,-3.56 -23.33,-6.03 -34.61,-10.25 -9.7,-3.71 -19.35,-9.16 -25.09,-18.12 -9.2,-13.41 -9.43,-31.92 -1.73,-46.05 z"
         id="path9"
         inkscape:connector-curvature="0"
         style="opacity:1;fill:#000000" />
      <path
         d="m 375.81,169.79 c 6.6,-1.48 13.47,-0.54 20.09,0.4 0.1,27.93 0.01,55.85 0.04,83.78 0.07,8.03 -0.4,16.16 1.29,24.06 1.99,10.1 7.45,19.94 16.33,25.49 8.36,5.19 18.72,6.19 28.3,4.84 8.8,-1.26 17.02,-6 22.42,-13.07 6.77,-8.5 9.22,-19.61 9.21,-30.28 0.03,-28.02 -0.01,-56.04 0.02,-84.06 -0.25,-4.97 2.84,-10.23 7.94,-11.23 6.47,-1.35 13.16,-0.5 19.63,0.49 0.11,26.59 0.01,53.18 0.05,79.77 -0.08,10.63 0.53,21.4 -1.83,31.85 -3.51,16.98 -13.2,33.19 -28.19,42.37 -14.51,9.19 -32.5,11.33 -49.25,8.92 -15.79,-2.26 -30.68,-10.86 -40.08,-23.8 -9.62,-12.96 -13.72,-29.32 -13.7,-45.29 -0.04,-27.68 -0.03,-55.36 0,-83.04 -0.23,-4.89 2.71,-10.12 7.73,-11.2 z"
         id="path11"
         inkscape:connector-curvature="0"
         style="opacity:1;fill:#000000" />
      <path
         d="m 940.47,169.71 c 6.53,-1.33 13.29,-0.48 19.82,0.5 0.03,22.58 0.05,45.16 -0.01,67.74 25.12,0.09 50.25,0.08 75.37,0 -0.07,-18.64 0,-37.29 -0.03,-55.93 -0.06,-3.13 0.45,-6.44 2.52,-8.92 2.28,-3.02 6.3,-3.84 9.88,-4.01 5.26,-0.18 10.54,0.23 15.73,1.15 -0.01,50.25 0.03,100.51 -0.02,150.77 0.07,4.71 -3.01,9.54 -7.78,10.56 -6.68,1.43 -13.62,0.51 -20.3,-0.47 -0.06,-22.98 -0.02,-45.97 -0.02,-68.95 -25.11,-0.04 -50.21,-0.03 -75.32,-0.01 -0.01,19.62 0.04,39.25 -0.03,58.87 0.12,4.93 -3.31,9.88 -8.33,10.7 -6.31,1.09 -12.87,0.53 -19.14,-0.63 -0.71,-1.2 -0.19,-2.77 -0.34,-4.09 0.07,-48.97 -0.01,-97.94 0.04,-146.91 -0.03,-4.72 3.18,-9.45 7.96,-10.37 z"
         id="path13"
         inkscape:connector-curvature="0"
         style="opacity:1;fill:#000000" />
      <path
         d="m 536.29,172.34 c 2.92,-2.53 7.04,-2.69 10.72,-2.79 13.64,0.05 27.28,-0.07 40.92,0.06 16.12,0.47 32.98,5.17 44.75,16.71 10.82,10.44 15.58,25.93 14.88,40.72 -0.39,13.36 -5.73,26.7 -15.45,36 -11.38,11.04 -27.39,16.3 -43.04,16.62 -9.42,0.08 -18.83,0 -28.25,0.04 -0.04,13.79 0.05,27.58 -0.04,41.38 0.06,4.73 -3.08,9.56 -7.89,10.52 -6.57,1.37 -13.39,0.52 -19.95,-0.52 -0.01,-49.04 0.01,-98.08 -0.01,-147.12 -0.01,-4.04 0.39,-8.57 3.36,-11.62 m 24.53,22.55 c -0.01,20.07 -0.01,40.15 0,60.22 10.1,-0.16 20.24,0.48 30.31,-0.59 7.89,-0.96 16.12,-3.69 21.32,-10.04 7.51,-9.06 8.25,-22.44 4.09,-33.13 -3.83,-9.4 -13.75,-14.62 -23.42,-15.81 -10.71,-1.25 -21.54,-0.43 -32.3,-0.65 z"
         id="path15"
         inkscape:connector-curvature="0"
         style="opacity:1;fill:#000000" />
      <path
         d="m 670.24,172.16 c 2.72,-2.19 6.4,-2.46 9.76,-2.59 28.17,-0.03 56.35,0.02 84.52,-0.02 1.04,5.77 1.78,11.77 0.7,17.59 -0.75,4.77 -5.52,7.96 -10.18,7.72 -20.16,0.05 -40.31,0 -60.47,0.02 -0.02,14.37 0,28.74 -0.01,43.11 21.35,0.05 42.69,-0.05 64.03,0.05 0.59,5.9 1.75,12.01 0.15,17.85 -1.13,4.18 -5.63,6.5 -9.76,6.22 -18.13,0.03 -36.27,0.01 -54.41,0.01 -0.02,14.44 -0.01,28.87 0,43.31 24.05,0.01 48.1,0.01 72.16,0 0.72,6.09 1.78,12.41 0.15,18.43 -1.1,4.32 -5.5,7.19 -9.87,6.95 -25.34,0.01 -50.68,0.01 -76.02,0 -3.76,-0.12 -8,-0.24 -10.98,-2.83 -2.81,-2.9 -3.31,-7.17 -3.32,-11.03 -0.01,-44.3 0,-88.6 -0.01,-132.9 -0.01,-4.15 0.38,-8.86 3.56,-11.89 z"
         id="path17"
         inkscape:connector-curvature="0"
         style="opacity:1;fill:#000000" />
      <path
         d="m 796.34,172.33 c 2.92,-2.5 7.03,-2.68 10.7,-2.78 14.97,0.05 29.95,-0.07 44.92,0.07 15.29,0.44 31.48,4.76 42.27,16.21 9.51,9.72 12.96,23.88 12.09,37.15 -0.66,12.88 -6.58,25.54 -16.54,33.82 -7.75,6.56 -17.58,10.35 -27.61,11.49 16.52,19.98 33.49,39.6 49.96,59.63 -8,4.16 -17.45,5.43 -26.25,3.45 -5.85,-1.31 -10.17,-5.86 -13.77,-10.37 -13.39,-17.13 -26.72,-34.3 -40.11,-51.43 -3.71,-0.01 -7.41,-0.01 -11.12,0 -0.04,17.17 0.06,34.34 -0.04,51.5 0.05,4.75 -3.11,9.59 -7.94,10.53 -6.56,1.35 -13.35,0.52 -19.9,-0.52 0,-49.36 -0.01,-98.72 0.01,-148.08 0,-3.75 0.61,-7.87 3.33,-10.67 m 24.55,22.55 c 0.06,16.95 -0.17,33.9 0.11,50.85 8.68,-0.14 17.37,0.09 26.06,-0.14 6.82,-0.29 13.85,-1.23 19.94,-4.53 6.26,-3.44 10.39,-10.11 11.26,-17.14 1.05,-7.71 -0.36,-16.43 -6.22,-22 -5.88,-5.5 -14.35,-6.75 -22.09,-6.99 -9.69,-0.12 -19.38,-0.03 -29.06,-0.05 z"
         id="path19"
         inkscape:connector-curvature="0"
         style="opacity:1;fill:#000000" />
      <path
         d="m 1100.14,172.21 c 2.73,-2.25 6.47,-2.52 9.87,-2.64 28.14,-0.05 56.28,0.05 84.42,-0.05 1.14,6.5 2.3,13.54 0.01,19.91 -2.05,4.77 -7.78,5.88 -12.43,5.46 -19.17,-0.03 -38.34,-0.01 -57.5,0 -0.02,14.36 -0.01,28.73 -0.01,43.1 21.36,0.07 42.72,-0.1 64.08,0.09 0.54,6.05 1.84,12.36 -0.05,18.3 -1.3,3.91 -5.61,5.95 -9.54,5.73 -18.16,0.04 -36.32,0 -54.48,0.02 -0.01,14.43 -0.01,28.87 0,43.3 24.06,0.01 48.12,0 72.18,0 0.72,6.13 1.81,12.48 0.12,18.54 -1.13,4.22 -5.44,7.04 -9.73,6.83 -25.34,0.03 -50.68,0.02 -76.02,0.01 -3.77,-0.11 -8,-0.21 -11.02,-2.77 -2.86,-2.9 -3.4,-7.2 -3.36,-11.08 0.01,-44.67 0,-89.33 0.01,-134 -0.02,-3.79 0.61,-7.98 3.45,-10.75 z"
         id="path21"
         inkscape:connector-curvature="0"
         style="opacity:1;fill:#000000" />
      <path
         d="m 1226.9,171.84 c 3.22,-2.2 7.33,-2.25 11.1,-2.29 14.66,0.07 29.32,-0.07 43.97,0.07 15.71,0.44 32.42,5.07 43.16,17.22 9.54,10.44 12.41,25.4 10.89,39.12 -1.46,13.72 -9.14,26.76 -20.82,34.22 -6.88,4.65 -14.98,6.98 -23.11,8.25 16.76,19.75 33.41,39.59 50.06,59.43 -7.98,4.22 -17.45,5.48 -26.25,3.53 -6.09,-1.36 -10.5,-6.16 -14.2,-10.85 -13.25,-16.99 -26.48,-33.99 -39.73,-50.97 -3.72,-0.01 -7.44,-0.01 -11.15,0 -0.03,17.16 0.03,34.32 -0.03,51.48 0.08,4.74 -3.07,9.56 -7.87,10.54 -6.56,1.36 -13.37,0.54 -19.92,-0.5 -0.01,-49.36 0.01,-98.71 0,-148.07 -0.03,-3.96 0.65,-8.52 3.9,-11.18 m 23.92,23.05 c 0.05,16.94 -0.12,33.88 0.09,50.82 13.53,-0.56 27.45,1.46 40.65,-2.36 7.79,-2.12 14.2,-8.52 16.07,-16.4 2,-8.51 0.97,-18.64 -5.58,-24.99 -5.89,-5.54 -14.39,-6.79 -22.15,-7.03 -9.7,-0.12 -19.39,-0.03 -29.08,-0.04 z"
         id="path23"
         inkscape:connector-curvature="0"
         style="opacity:1;fill:#000000" />
      <path
         d="m 1537.99,172 c 3.14,-2.29 7.23,-2.4 10.98,-2.45 27.73,0.06 55.46,-0.06 83.19,0.06 0.9,6.06 1.89,12.37 0.4,18.42 -1.05,4.17 -5.33,6.85 -9.5,6.82 -20.31,0.08 -40.62,0 -60.93,0.03 -0.02,14.37 0,28.74 -0.01,43.11 21.33,0.02 42.66,0 63.99,0.02 0.68,5.8 1.71,11.8 0.29,17.58 -0.99,4.18 -5.34,6.73 -9.47,6.51 -18.26,0.07 -36.53,0 -54.8,0.03 -0.02,14.43 0.01,28.86 -0.01,43.29 24.07,0.09 48.16,-0.1 72.24,0.09 0.6,6.2 1.8,12.64 -0.04,18.74 -1.19,3.94 -5.19,6.63 -9.25,6.54 -25.69,0.05 -51.38,0.04 -77.06,0 -3.71,-0.14 -7.96,-0.33 -10.73,-3.12 -3.23,-3.75 -3.05,-9.03 -3.04,-13.68 0.02,-43.33 0,-86.66 0.01,-129.99 -0.03,-4.2 0.41,-9.02 3.74,-12 z"
         id="path25"
         inkscape:connector-curvature="0"
         style="opacity:1;fill:#000000" />
    </g>
  </g>
</svg>
