<svg height="206.02219mm" viewBox="0 0 2995.6049 729.99991" width="845.42627mm" xmlns="http://www.w3.org/2000/svg" xmlns:xlink="http://www.w3.org/1999/xlink"><linearGradient id="a" gradientTransform="matrix(0 433.34293 433.34293 0 1745.7256 -326.55572)" gradientUnits="userSpaceOnUse" spreadMethod="pad" x1="0" x2="1" y1="0" y2="0"><stop offset="0" stop-color="#777878"/><stop offset=".020448" stop-color="#d0d2d0"/><stop offset=".0524045" stop-color="#f3f3f2"/><stop offset=".487663" stop-color="#e9ebe9"/><stop offset=".895488" stop-color="#f3f3f2"/><stop offset=".929442" stop-color="#e6e7e6"/><stop offset=".964262" stop-color="#d0d2d0"/><stop offset="1" stop-color="#777878"/></linearGradient><linearGradient id="b" gradientTransform="matrix(0 -426.19282 426.19282 0 1824.1694 103.49868)" gradientUnits="userSpaceOnUse" spreadMethod="pad" x1="0" x2="1" y1="0" y2="0"><stop offset="0" stop-color="#820021"/><stop offset=".104411" stop-color="#ae2c3f"/><stop offset=".898134" stop-color="#ae2c3f"/><stop offset=".999673" stop-color="#b53152"/><stop offset="1" stop-color="#ba3c4c"/></linearGradient><clipPath id="c"><path d="m291.438 532.077h118.288v-15.246h-118.288z"/></clipPath><clipPath id="d"><path d="m291.438 516.831h118.289v15.245h-118.289z"/></clipPath><g fill="#fff" transform="matrix(1.0039631 0 0 1.0039631 744.71625 520.14402)"><path d="m702.51 42.77c17.25-2.62 35.56-.62 51.1 7.65 15.5 7.82 27.78 21.38 34.77 37.21 13.57 30.72 9.27 69.29-12.66 95.11-12.3 14.75-30.56 24.34-49.66 26.18-6.38.14-12.77.15-19.14-.01-18.63-1.81-36.45-10.98-48.7-25.14-24.98-28.42-28.11-73.11-8.7-105.33 11.25-18.95 31.24-32.3 52.99-35.67m6.75 24.56c-12.07 1.89-23.07 8.89-30.39 18.59-10.1 13.24-14.06 30.54-12.18 46.97 1.61 17.39 10.21 34.84 25.29 44.32 11.56 7.59 26.73 9.26 39.66 4.37 10.59-4.08 19.64-11.87 25.54-21.53 8.86-14.19 11.42-31.82 8.37-48.15-2.72-14.69-10.62-28.82-23.24-37.18-9.54-6.57-21.62-9.29-33.05-7.39z"/><path d="m101.11 44.99c6.76-1.58 13.84-.59 20.63.37.03 22.62 0 45.25.02 67.88 25 0 50 .04 75-.02-.01-19.06-.03-38.11.01-57.16-.19-5.05 3.01-10.44 8.28-11.26 6.57-1.26 13.35-.37 19.92.47.08 50.24-.01 100.48.04 150.73.39 4.98-2.97 10.13-8.01 11.07-6.69 1.36-13.64.48-20.3-.65.12-22.96 0-45.93.06-68.89-25-.06-50-.02-75-.02-.07 19.43.11 38.86-.09 58.29.08 4.54-2.29 9.43-6.85 10.88-6.95 2.02-14.34.83-21.35-.22.09-50.14-.03-100.28.06-150.42-.11-4.79 2.68-9.88 7.58-11.05z"/><path d="m296.36 46.09c6.96-2.17 14.34-2.51 21.58-2.33 4.72.19 9.75.88 13.63 3.82 3.93 3.03 5.9 7.8 7.45 12.37 16.51 48.17 32.99 96.36 49.52 144.53-7.78 3.2-16.66 4.54-24.74 1.65-3.34-1.35-5.04-4.79-6.06-8.03-3.78-11.48-7.74-22.89-11.56-34.35-21.01 0-42.03.02-63.04-.01-3.97 11.84-7.91 23.68-11.84 35.53-1.06 3.19-3.25 6.35-6.63 7.29-7.59 2.23-15.82 1.07-23.15-1.55 17.95-53.08 36.79-105.87 54.84-158.92m-5.15 93.65c15.78.01 31.55.03 47.33-.02-7.94-23.64-15.49-47.41-23.56-71.01-8.08 23.62-15.81 47.37-23.77 71.03z"/><path d="m413.1 44.62c6.34-.93 12.8-.24 19.1.69.12 45.15.01 90.29.05 135.44 25.56-.01 51.11.02 76.66-.02 1.05 6.31 2.17 12.99.08 19.2-1.55 4.45-6.67 6.28-11.01 6.3-26.31.06-52.62-.01-78.93.03-3.72-.13-7.79-.16-10.96-2.36-2.89-2.35-3.81-6.31-3.85-9.87.03-46.37-.03-92.74.03-139.1-.04-4.98 3.82-9.69 8.83-10.31z"/><path d="m534.12 45.15c6.78-1.87 13.98-.7 20.85.12.08 45.16-.01 90.32.05 135.49 25.62 0 51.24-.06 76.87.03.87 6.27 2.11 12.89.03 19.04-1.66 4.85-7.25 6.55-11.91 6.42-25.67.01-51.33-.02-77 .02-4.27-.11-9.1.02-12.59-2.82-3.62-3.87-3.48-9.54-3.43-14.49.03-43.99 0-87.97.01-131.96-.25-4.86 2.06-10.45 7.12-11.85z"/><path d="m804.46 47.39c7.35-3.17 16.03-4.6 23.66-1.59 4.16 1.53 6.01 6.03 6.65 10.1 7.04 38.66 14.63 77.23 20.91 116.03.48 2.8.61 5.69 1.59 8.39 3.61-23.66 9.38-46.9 15.06-70.13 4.52-18.44 8.92-36.93 13.52-55.36 1.07-4.38 4.61-7.79 8.91-9.03 8.51-2.61 17.74-1.82 26.27.3 10.52 44.96 22.16 89.69 30.64 135.1 3.13-19.8 6.75-39.52 10.44-59.22 4.01-22.67 7.91-45.37 11.93-68.04.48-3.65 2.66-7.26 6.31-8.44 7.07-2.53 14.9-1.17 21.76 1.4-10.2 49.49-20.35 98.99-30.54 148.48-.79 4.14-2.9 8.45-6.91 10.29-7.19 2.98-15.19 2.45-22.77 1.89-2.8-.36-5.85-.39-8.3-1.85-7.08-28.92-14.17-57.85-21.14-86.81-3.37-14.21-5.22-28.74-8.97-42.87-7.88 39.61-18.28 78.64-27.54 117.93-.97 4.31-2.58 9.02-6.57 11.44-4.08 2.21-8.87 2.54-13.41 2.61-5.95-.2-11.96-.53-17.7-2.21-11.33-52.79-22.5-105.62-33.8-158.41z"/><path d="m1273.46 46.58c7.83-2.78 16.5-2.99 24.63-1.49 6.31 1.27 10.6 6.64 13.71 11.89 23.38 36.18 46.8 72.33 70.19 108.49-.26-37.12-1.01-74.25-1.37-111.37.26-4.18 3.02-8.38 7.32-9.25 6.19-1.33 12.62-.46 18.81.52 0 53.38.02 106.77-.01 160.15-6.97 2.35-14.55 2.88-21.76 1.46-5.16-.89-9.45-4.54-12.16-8.87-23.2-36.11-46.38-72.23-69.55-108.37-1.53-2.41-3.07-4.81-4.74-7.11.41 38.14.96 76.28 1.45 114.41.06 4.33-2.6 8.93-7.03 9.91-6.37 1.55-13 .56-19.41-.11-.13-53.42.04-106.84-.08-160.26z"/><path d="m1025.12 47.03c3.75-2.55 8.52-2.31 12.87-2.29 27.11.02 54.23.02 81.34-.01 1.06 5.99 1.85 12.24.58 18.25-.93 4.48-5.47 7.37-9.89 7.25-20.25.05-40.51 0-60.77.02v42.98c21.38.02 42.75.04 64.13-.01.67 5.86 1.6 11.9.26 17.73-1.05 4.21-5.41 6.76-9.58 6.55-18.28.01-36.55-.02-54.82.02.02 14.41 0 28.82.01 43.23 24.07-.02 48.13.05 72.19-.04.94 6 1.78 12.25.35 18.24-.99 4.4-5.43 7.46-9.85 7.29-25.3.04-50.61-.01-75.91.02-3.93-.12-8.29-.21-11.46-2.85-2.6-2.74-3.24-6.72-3.33-10.36.01-45.02 0-90.03.01-135.05.06-3.9.73-8.3 3.87-10.97z"/><path d="m1149.94 47.91c2.57-2.66 6.54-3.08 10.06-3.17 28.38.02 56.78 0 85.17.01.99 5.99 1.72 12.21.54 18.22-.97 4.42-5.39 7.37-9.8 7.25-20.3.07-40.6.02-60.9.03-.02 14.33-.01 28.66 0 42.99 21.38.02 42.76-.01 64.15.02.68 5.73 1.47 11.61.35 17.33-.81 4.37-5.29 7.08-9.53 6.91-18.32 0-36.63.02-54.95-.01-.07 14.42-.02 28.84-.02 43.26 24.1 0 48.2-.01 72.3.01.76 5.98 1.68 12.17.27 18.13-.96 4.29-5.15 7.43-9.51 7.33-25.34.09-50.67-.01-76 .04-3.99-.09-8.4-.19-11.67-2.77-2.84-3.07-3.45-7.47-3.41-11.49.03-44.68-.01-89.36.02-134.04.09-3.49.64-7.26 2.93-10.05z"/></g><g transform="translate(-247.926602 337.72958)"><path d="m3178.4415 115.27032c49.898 0 65.0898-31.008229 65.0898-62.016458v-328.972072c0-31.00823-15.1918-62.01646-65.0898-62.01646h-2865.42523c-49.89801 0-65.08979 31.00823-65.08979 62.01646v328.972072c0 31.008229 15.19178 62.016458 65.08979 62.016458zm-2863.12647-4.17274c-33.58184 0-56.31954-19.814287-56.31954-52.821435v-339.016645c0-33.00714 22.7377-52.82143 56.31954-52.82143h2860.82767c33.5819 0 56.3196 19.81429 56.3196 52.82143v339.016645c0 33.007148-22.7377 52.821435-56.3196 52.821435z" fill="#939697"/><path d="m310.22774-322.84773c-33.60682 0-45.55036 19.83927-45.55036 52.82143v320.551633c0 33.007148 11.94354 52.821427 45.55036 52.821427h2870.99726c33.6068 0 45.5503-19.814279 45.5503-52.821427v-320.551633c0-32.98216-11.9435-52.82143-45.5503-52.82143z" fill="url(#a)"/><path d="m1049.1281 103.49668h1550.0617v-426.19449h-1550.0617z" fill="url(#b)"/><g fill="#fff"><path d="m1259.4818 25.084093c-18.8898 0-36.3304-3.398162-52.2967-10.194486-15.9664-6.821311-29.7839-16.2162297-41.5026-28.209743-11.7186-12.0185-20.8887-26.285783-27.5351-42.826837s-9.9696-34.406391-9.9696-53.620997c0-18.66491 3.3232-36.15545 9.9696-52.42165s15.8165-30.40855 27.5351-42.40207c11.7187-12.0185 25.5362-21.41341 41.5026-28.20974 15.9663-6.82131 33.4069-10.21947 52.2967-10.21947 13.5677 0 26.7355 1.4742 39.5036 4.39762 12.7931 2.94841 24.6117 6.67139 35.5308 11.21893 2.3987 35.48081-6.2466 53.22122-25.936 53.22122-3.4731 0-6.6464-.39979-9.5948-1.19935-2.9234-.79957-6.1217-1.59914-9.5698-2.39871-3.4731-.79956-7.321-1.59913-11.5687-2.3987-4.2727-.79957-9.32-1.22434-15.1668-1.22434-9.32 0-18.0902 1.6741-26.3608 5.02229-8.2455 3.3232-15.3417 8.1206-21.3384 14.39221-5.9968 6.27161-10.7192 13.81753-14.1674 22.61277-3.4731 8.79525-5.1972 18.66491-5.1972 29.60899 0 11.468795 1.7241 21.738241 5.1972 30.808335 3.4482 9.070095 8.1706 16.740946 14.1674 23.012554 5.9967 6.271608 13.0929 11.069013 21.3384 14.417202 8.2706 3.323203 17.0408 4.997298 26.3608 4.997298 5.8468 0 11.044-.399784 15.5666-1.199352 4.5225-.799567 8.5703-1.599135 12.1684-2.398702 3.598-.799568 6.9962-1.599136 10.1695-2.398703 3.1982-.799568 6.5214-1.199351 9.9946-1.199351 19.4145 0 28.0598 17.740405 25.9359 53.1962283-10.9191 4.5475407-23.0875 8.2955137-36.5302 11.2189317-13.4427 2.923419-26.9354 4.397622-40.5031 4.397622"/><path d="m1397.2198 21.883324c-5.597 0-11.119-.274851-16.566-.799568-5.4471-.524716-10.0446-1.199351-13.7676-1.998918v-231.699688c0-7.72082 2.3987-14.31725 7.1711-19.78929 4.7974-5.47204 13.8425-8.19557 27.1603-8.19557 5.597 0 11.094.24986 16.5661.79957 5.447.52471 10.0445 1.19935 13.7675 1.99892v231.6746932c0 7.7458107-2.3987 14.342243-7.1961 19.8142838-4.7724 5.47204-13.8425 8.195567-27.1353 8.195567"/><path d="m1506.3858 21.883324c-5.3221 0-10.5193-.274851-15.5666-.799568-5.0722-.524716-9.3199-1.199351-12.7681-1.998918v-254.887148c3.9729-1.34927 9.1701-2.47366 15.5666-3.39816 6.3716-.94948 11.8186-1.39924 16.3662-1.39924 14.617 0 25.2613 1.849 31.9327 5.59697 6.6464 3.72299 12.2184 9.19503 16.7409 16.39114l90.626 142.847737v-139.249687c0-3.44813.4498-6.72136 1.3993-9.7947.9245-3.07334 2.5236-5.79687 4.7724-8.19557 2.2737-2.3987 5.3971-4.27269 9.3949-5.59697 3.9728-1.34927 9.0451-1.99892 15.1668-1.99892 5.3221 0 10.4443.24986 15.3667.79957 4.9223.52471 9.0951 1.04943 12.5682 1.59913v255.286929c-3.723 1.873986-8.2456 3.12331-13.5677 3.797946-5.3221.674635-10.5193.999459-15.5666.999459-12.5182 0-21.8381-1.724068-27.9349-5.197189-6.1466-3.473122-11.1939-8.270527-15.1667-14.4172025l-96.9976-155.2410425v148.4447183c0 7.4709593-2.2738 13.7425673-6.7963 18.8148237-4.5226 5.072257-13.043 7.595892-25.5362 7.595892"/><path d="m1789.9299 20.284189c-7.446 0-13.5177-.799568-18.1652-2.398703s-8.2455-3.797946-10.7692-6.596432c-2.5486-2.7984864-4.2726-6.221635-5.1971-10.2194727-.9245-3.9978378-1.3993-8.2455404-1.3993-12.7930813v-196.06896c0-4.54754.4748-8.82022 1.3993-12.81806s2.6485-7.396 5.1971-10.19449c2.5237-2.79849 6.1217-4.9973 10.7692-6.59643 4.6475-1.59914 10.7192-2.3987 18.1652-2.3987h132.1036c.5497 2.92342 1.0744 6.92125 1.5991 11.99351.5497 5.07226.7996 10.26945.7996 15.59157 0 11.21893-2.2488 19.16463-6.7714 23.81212-4.5475 4.67247-10.2444 7.0212-17.1657 7.0212h-81.431v45.60034h93.7993c.5247 2.67355 1.0744 6.22163 1.5991 10.61925.5248 4.39763.7996 9.14506.7996 14.19233 0 10.66923-2.1488 17.940295-6.3965 21.8132-4.2477 3.872906-9.5699 5.796865-15.9664 5.796865h-73.8351v45.22554h106.9672c.5247 2.923419 1.0744 6.996216 1.5991 12.193405s.7996 10.344405.7996 15.416662c0 11.46879684-2.2738 19.4644724-6.7963 24.012013-4.5226 4.522554-10.2445 6.796324-17.1408 6.796324h-114.563z"/><path d="m1981.7937 21.883324c-6.1217 0-11.5188-.599676-16.1663-1.799027-4.6724-1.199351-8.7202-2.598595-12.1684-4.19773l24.3868-249.290167c5.0723-2.14884 11.7187-3.87291 19.9642-5.19719 8.2456-1.34927 15.2918-1.99892 21.1386-1.99892 8.2455 0 15.3667.52471 21.3385 1.59913 5.9967 1.04944 11.1189 2.84846 15.3667 5.39708 4.2477 2.52364 7.6458 6.07172 10.1695 10.59427 2.5236 4.54755 4.4475 10.14452 5.7968 16.81591l10.3694 48.42381c2.9234 13.3178 6.0467 28.05982 9.3699 44.20109 3.3232 16.141273 6.3216 32.757287 8.9702 49.823056h1.5991c2.9234-17.065769 5.9718-33.606823 9.1701-49.623156 3.1982-15.99136 6.5214-30.68341 9.9696-44.00121l12.7431-50.82251c3.1983-12.54322 8.2955-21.08859 15.3417-25.61115 7.0462-4.54754 18.0152-6.79632 32.8822-6.79632 7.446 0 14.9419.59967 22.5128 1.79903 7.5709 1.19935 13.8925 2.44867 18.9398 3.79794l23.3374 250.889307c-3.723 1.324284-8.1956 2.673554-13.3678 3.997838-5.1972 1.324284-10.8441 1.998919-16.9658 1.998919-8.5204 0-15.7165-1.474203-21.5634-4.397622-5.8468-2.923418-9.0451-8.4204453-9.5698-16.4161208l-5.9968-86.4282552c-1.3242-15.216766-2.4486-31.133166-3.3981-47.824136-.9245-16.66598-1.5242-32.45744-1.799-47.39936h-.7996c-3.4481 13.8675-6.9712 28.85939-10.5693 45.00066-3.598 16.14127-7.2461 31.00823-10.9691 44.625863l-16.3661 68.013215c-3.9978 16.0163376-16.641 24.0120132-37.9295 24.0120132-5.3221 0-10.7692-.52471624-16.3661-1.59913514-5.572-1.04943246-10.3694-2.24878376-14.3673-3.59805396l-20.339-84.8291201c-3.9978-15.741482-7.7208-31.208122-11.1689-46.424892-3.4732-15.19178-6.6714-30.40855-9.5948-45.60034h-1.1994c-.7996 21.33846-1.849 40.8779-3.1983 58.6183-1.3242 17.74041-2.5236 33.007148-3.573 45.800229l-6.3966 78.0327959c-.5247 7.7458107-3.4481 13.0929191-8.7702 16.0163371-5.3471 2.923419-12.2434 4.397622-20.7638 4.397622"/><path d="m2358.41-87.357593h59.7177l-29.7839-98.046967zm-62.2663 110.040484c-5.0473 0-10.8442-.474743-17.3406-1.399243-6.5465-.949486-11.9186-2.198811-16.1663-3.797946l82.8052-253.687792c7.1961-1.87399 14.4672-3.22326 21.8132-4.02282 7.346-.79957 14.0674-1.19936 20.2141-1.19936 8.7952 0 16.3411.67464 22.6128 1.99892 6.2716 1.34927 11.5437 3.34819 15.8164 6.02175 4.2727 2.64856 7.7958 6.19664 10.5943 10.59427 2.7985 4.39762 5.1472 9.54483 7.0212 15.41666l70.9616 224.478588c-4.5226 1.873987-9.9696 3.248244-16.3662 4.19773-6.3715.9245-12.6431 1.399243-18.7648 1.399243-6.9213 0-13.6176-1.149378-20.1391-3.398162-6.5215-2.27377-11.2439-7.396-14.1674-15.4166616l-13.5926-41.2027154h-87.0529l-11.5188 38.8040127c-2.9234 9.3449453-7.8457 15.2167703-14.767 17.6154723-6.9213 2.398703-14.2423 3.598054-21.9631 3.598054"/></g><path d="m2845.4316-136.97826v-60.16746c0-16.31617 6.4965-26.68557 40.1783-26.68557 4.1477 0 7.6958.27486 11.8436.9245v197.418231c0 16.2412154-6.4965 26.6106071-40.2283 26.6106071-4.0978 0-7.6708-.3248243-11.7936-.92449996v-89.65151214h-104.8683v63.965405c0 16.2412154-6.5215 26.6106071-40.2532 26.6106071-4.0728 0-7.6209-.3248243-11.8186-.92449996v-197.34326814c0-16.31617 6.5215-26.68557 40.2282-26.68557 4.1478 0 7.6959.27486 11.8436.9245v85.92853zm298.5885 25.3363c0-67.06373-48.2989-112.56412-128.2556-112.56412h-54.3706c-26.0859 0-32.3325 13.74256-32.3325 31.80779v161.93742c0 17.315635 6.2466 31.40801272 32.3325 31.40801272h54.3706c79.9567 0 128.2556-45.50039072 128.2556-112.58910272m-162.8369 64.390171v-128.780351h37.6296c52.3967 0 71.5613 33.93165 71.5613 64.39018 0 30.533483-19.1646 64.390171-71.5613 64.390171z" fill="#ae2c3f"/><path d="m535.90818-68.780141c0 36.48027-23.86209 63.1408501-72.31089 68.41299867-35.08103 3.74797293-85.90354-.67463517-110.04048-3.44813507-.89952-3.9478648-1.59914-8.8452156-1.59914-12.6931346 0-31.932729 17.26566-39.203797 33.43192-39.203797 16.79092 0 43.22662 2.898433 62.91597 2.898433 21.61331 0 28.20974-7.346027 28.20974-14.317257 0-9.17004-8.72028-12.992973-25.5112-16.191243l-45.95015-8.845216c-38.25431-7.32104-58.66827-33.781728-58.66827-61.866538 0-34.13154 24.16194-62.69109 71.66125-67.96324 35.93056-3.87291 79.63193.49973 103.64394 3.44813.87453 4.12277 1.32428 8.02066 1.32428 12.29335 0 31.83279-16.76593 38.70407-32.95717 38.70407-12.41829 0-31.70785-2.32374-53.72095-2.32374-22.41287 0-31.70785 6.19665-31.70785 13.74256 0 7.97069 8.87021 11.26891 22.88762 13.71758l43.92625 8.1456c45.12559 8.3205 64.46513 33.95663 64.46513 65.489579m78.83236 39.17881c0 19.564419-7.67085 30.8583103-45.87518 30.8583103-5.07226 0-9.49487-.37479733-13.74257-.99945948v-259.60958982c0-19.71434 6.72136-40.27822 45.3005-40.27822 4.84738 0 9.76971.49973 14.31725 1.44922v268.579739zm156.16554 100.420687c4.9973 2.573608 15.29173 5.671933 28.25972 6.021743 22.13802.474744 34.25647-8.020662 43.22662-27.884918l119.03562-265.506401c-4.92234-2.64857-15.76648-5.57199-24.68665-5.77188-15.29173-.27485-35.83062 2.84846-48.97351 34.15653l-38.55415 90.975794-75.58412-123.108414c-4.87237-1.49919-16.76593-3.64803-25.5112-3.64803-26.66058 0-41.6025 9.84468-57.06914 26.6356l-73.48525 80.38152 59.11802 93.024688c10.9191 16.9408374 25.31131 25.5861615 48.69866 25.5861615 15.29173 0 28.00985-3.4731215 33.90666-6.2965945l-71.16151-107.316955 50.44772-53.4461 82.73025 129.854772z" fill="#ae2c3f"/><g clip-path="url(#c)" opacity=".399994" transform="matrix(24.986486 0 0 -24.986486 -7014.0609 12978.883)"><g><g><g clip-path="url(#d)"><g transform="translate(408.2152 519.2938)"><path d="m0 0c1.157-1.145 1.315-2.225 1.356-2.463.113 0 .155.506.155 1.261l-.004 12.109c0 1.402-.456 1.876-1.645 1.876-.402 0-.805-.216-1.341-.216h-112.309c-.536 0-.938.216-1.341.216-1.188 0-1.645-.474-1.645-1.876l-.004-12.109c0-.755.042-1.261.156-1.261.041.238.076 1.402 1.356 2.463 10.217 7.878 104.249 10.296 115.266 0" fill="#fff"/></g></g></g></g></g></g></svg>