<?xml version="1.0" encoding="UTF-8" standalone="no"?>
<svg
   xmlns:dc="http://purl.org/dc/elements/1.1/"
   xmlns:cc="http://creativecommons.org/ns#"
   xmlns:rdf="http://www.w3.org/1999/02/22-rdf-syntax-ns#"
   xmlns:svg="http://www.w3.org/2000/svg"
   xmlns="http://www.w3.org/2000/svg"
   xmlns:sodipodi="http://sodipodi.sourceforge.net/DTD/sodipodi-0.dtd"
   xmlns:inkscape="http://www.inkscape.org/namespaces/inkscape"
   viewBox="0 0 569.7 240"
   version="1.1"
   id="svg20"
   sodipodi:docname="Sky Sports News.svg"
   width="569.70001"
   height="240"
   inkscape:version="0.92.0 r15299">
  <metadata
     id="metadata26">
    <rdf:RDF>
      <cc:Work
         rdf:about="">
        <dc:format>image/svg+xml</dc:format>
        <dc:type
           rdf:resource="http://purl.org/dc/dcmitype/StillImage" />
        <dc:title></dc:title>
      </cc:Work>
    </rdf:RDF>
  </metadata>
  <defs
     id="defs24" />
  <sodipodi:namedview
     pagecolor="#ffffff"
     bordercolor="#666666"
     borderopacity="1"
     objecttolerance="10"
     gridtolerance="10"
     guidetolerance="10"
     inkscape:pageopacity="0"
     inkscape:pageshadow="2"
     inkscape:window-width="1920"
     inkscape:window-height="1017"
     id="namedview22"
     showgrid="false"
     fit-margin-top="0"
     fit-margin-left="0"
     fit-margin-right="0"
     fit-margin-bottom="0"
     inkscape:zoom="0.99701595"
     inkscape:cx="250.11186"
     inkscape:cy="146.62426"
     inkscape:window-x="-8"
     inkscape:window-y="-8"
     inkscape:window-maximized="1"
     inkscape:current-layer="svg20" />
  <linearGradient
     id="a"
     gradientUnits="userSpaceOnUse"
     x1="-8600.4922"
     y1="-4719.145"
     x2="-8600.4922"
     y2="-4553.374"
     gradientTransform="rotate(180,-4107.903,-2290.235)">
    <stop
       offset="0"
       stop-color="#a80002"
       id="stop2" />
    <stop
       offset="1"
       stop-color="#ea021a"
       id="stop4" />
  </linearGradient>
  <path
     d="m 199.7,0 h 362 c 4.4,0 8,3.6 8,8 v 112 h -370 z"
     id="path7"
     inkscape:connector-curvature="0"
     style="fill:url(#a)"
     sodipodi:nodetypes="cssccc" />
  <linearGradient
     id="b"
     gradientUnits="userSpaceOnUse"
     x1="99.850998"
     y1="138.674"
     x2="99.850998"
     y2="-27.096001">
    <stop
       offset="0"
       stop-color="#00043b"
       id="stop9" />
    <stop
       offset="1"
       stop-color="#002672"
       id="stop11" />
  </linearGradient>
  <path
     d="M 199.7,120 H 0 V 7.9 C 0,3.7 3.5,0 7.9,0 h 191.8 z"
     id="path14"
     inkscape:connector-curvature="0"
     style="fill:url(#b)"
     sodipodi:nodetypes="ccsscc" />
  <path
     d="m 8,0 h 553.7 c 4.4,0 8,3.6 8,8 V 46.2 L 11.5,68.5 C 5.1,68.7 0,74 0,80.4 V 8 C 0,3.6 3.6,0 8,0 Z"
     id="path16"
     inkscape:connector-curvature="0"
     style="opacity:0.2;fill:#ffffff" />
  <path
     d="m 135,106.7 c 1.3,0.7 3.9,1.5 7.3,1.5 5.7,0.1 8.8,-2.1 11.1,-7.2 L 184,32.8 c -1.3,-0.7 -4.1,-1.4 -6.3,-1.5 -3.9,-0.1 -9.2,0.7 -12.6,8.8 L 155.2,63.5 135.7,32 c -1.3,-0.4 -4.3,-0.9 -6.6,-0.9 -6.8,0 -10.7,2.5 -14.7,6.8 l -18.8,20.6 15.2,23.9 c 2.8,4.4 6.5,6.6 12.5,6.6 3.9,0 7.2,-0.9 8.7,-1.6 L 113.7,59.8 126.7,46.1 148,79.5 Z M 94.9,80.9 c 0,5 -2,7.9 -11.8,7.9 -1.3,0 -2.4,-0.1 -3.5,-0.3 V 21.9 c 0,-5.1 1.7,-10.3 11.6,-10.3 1.2,0 2.5,0.1 3.7,0.4 z m -20.3,-10 c 0,9.4 -6.1,16.2 -18.6,17.6 -9,1 -22.1,-0.2 -28.3,-0.9 -0.2,-1 -0.4,-2.3 -0.4,-3.3 0,-8.2 4.4,-10.1 8.6,-10.1 4.3,0 11.1,0.7 16.2,0.7 5.6,0 7.2,-1.9 7.2,-3.7 0,-2.4 -2.2,-3.3 -6.6,-4.2 L 41,64.9 C 31.2,63 26,56.2 26,49 c 0,-8.8 6.2,-16.1 18.4,-17.5 9.2,-1 20.5,0.1 26.6,0.9 0.2,1.1 0.3,2.1 0.3,3.2 0,8.2 -4.3,9.9 -8.5,9.9 -3.2,0 -8.1,-0.6 -13.8,-0.6 -5.8,0 -8.1,1.6 -8.1,3.5 0,2 2.3,2.9 5.9,3.5 L 58.1,54 c 11.6,2.2 16.5,8.8 16.5,16.9 m 149.7,14.4 c -0.6,-4.7 0.9,-7.2 3.4,-7.2 2.7,0 9.2,3 18.4,3 9.8,0 13.5,-3.6 13.5,-8.2 0,-3.2 -1.4,-5.8 -10.4,-8.3 l -10,-2.8 c -10.7,-2.9 -15.1,-8.3 -15.1,-15.1 0,-8.2 6.5,-15.8 21.6,-15.8 6.8,0 15.2,1.6 20.2,3.6 0.6,4.6 -0.9,7 -3.2,7 -2.5,0 -8.6,-2.8 -17,-2.8 -9,0 -12.4,3.3 -12.4,7.6 0,2.8 1.3,5.4 9.5,7.7 l 10.2,3 c 11.3,3.2 15.9,8.5 15.9,15.6 0,8.8 -6.9,16.6 -23,16.6 -7.4,0 -16.3,-1.8 -21.6,-3.9 M 334.9,60 c 0,18.1 -12.7,29.1 -27,29.1 -8.6,0 -15.5,-4 -19.6,-9.8 v 24.5 c 0,2.1 -1.2,3.5 -4.8,3.5 -1.6,0 -3.4,-0.2 -4.2,-0.5 V 32.3 c 0.8,-0.2 2.6,-0.6 4.2,-0.6 3.6,0 4.8,1.4 4.8,3.5 v 5.6 c 4.1,-5.8 11,-9.8 19.6,-9.8 14.3,0.1 27,11 27,29 m -9.2,0 c 0,-12.4 -8.3,-20.9 -19.4,-20.9 -7.7,0 -14.8,4.4 -18,10.9 v 20.3 c 3.2,6.4 10.3,10.9 18,10.9 11.1,-0.1 19.4,-8.6 19.4,-21.2 m 18.1,0 c 0,-16.6 12.3,-28.9 28.7,-28.9 16.5,0 28.7,12.4 28.7,28.9 0,16.7 -12.3,29.1 -28.7,29.1 -16.4,0 -28.7,-12.4 -28.7,-29.1 m 48.2,0 c 0,-12.8 -8.8,-20.9 -19.5,-20.9 -10.7,0 -19.5,8.1 -19.5,20.9 0,13 8.8,21.1 19.5,21.1 C 383.2,81.1 392,73 392,60 m 54.2,-23.9 c 0,3.4 -1.5,4.2 -4.8,4.2 -6.4,0 -15.5,2.1 -20.1,12.4 v 32.2 c 0,2.2 -1.2,3.5 -4.8,3.5 -1.6,0 -3.4,-0.2 -4.2,-0.5 V 32.3 c 0.8,-0.2 2.6,-0.6 4.2,-0.6 3.6,0 4.8,1.4 4.8,3.5 V 42 c 5.1,-7.4 14,-11.4 24.5,-9.7 0.1,0.7 0.4,2.4 0.4,3.8 m 52,49.2 c -0.6,-4.7 0.9,-7.2 3.4,-7.2 2.7,0 9.2,3 18.4,3 9.8,0 13.5,-3.6 13.5,-8.2 0,-3.2 -1.4,-5.8 -10.4,-8.3 l -10,-2.8 C 502.4,58.9 498,53.5 498,46.7 c 0,-8.2 6.5,-15.8 21.6,-15.8 6.8,0 15.2,1.6 20.2,3.6 0.6,4.6 -0.9,7 -3.2,7 -2.4,0 -8.6,-2.8 -17,-2.8 -9,0 -12.4,3.3 -12.4,7.6 0,2.8 1.3,5.4 9.5,7.7 l 10.2,2.8 c 11.3,3.2 15.9,8.5 15.9,15.6 0,8.8 -6.9,16.6 -23,16.6 -7.3,0.2 -16.2,-1.6 -21.6,-3.7 m -9.2,0 c -4.8,2.3 -10.4,3.7 -16.1,3.7 -11,0 -17.6,-6.3 -17.6,-17.2 v -50 c 0,-2.1 1.2,-3.5 4.8,-3.5 1.6,0 3.4,0.4 4.2,0.7 v 13.2 h 22.3 c 0.1,0.7 0.3,2.2 0.3,3.6 0,3.3 -1.4,4.3 -3.4,4.3 H 464.2 V 71 c 0,6.8 3.3,9.7 9.6,9.7 5.7,0 9.1,-2.2 11.8,-2.2 2.6,0.2 3.9,2.5 3.4,6.8"
     id="path18"
     inkscape:connector-curvature="0"
     style="fill:#ffffff" />
  <path
     style="fill:#999999;fill-opacity:1;stroke-width:0.99999988"
     d="M 7.90039,240 C 3.50039,240 0,236.29961 0,232.09961 V 120 h 569.6502 v 112.09961 c 10e-6,4.2 -3.50038,7.90039 -7.90039,7.90039 z"
     id="path24-6-6-7"
     inkscape:connector-curvature="0"
     sodipodi:nodetypes="csccccc" />
  <path
     style="fill:#ffffff;fill-opacity:1;stroke-width:0.99999988"
     d="M 10.40039,237.5 C 6.00039,237.5 2.5,233.79962 2.5,229.59962 V 120 h 564.6502 v 109.59962 c 10e-6,4.2 -3.50038,7.90038 -7.9004,7.90038 z"
     id="path24-6-6-7-2"
     inkscape:connector-curvature="0"
     sodipodi:nodetypes="csccccc" />
  <g
     transform="translate(-421.9749,120)"
     style="fill:#121780"
     id="g10">
    <path
       inkscape:connector-curvature="0"
       d="m 773.5,35.8 c -0.4,-0.1 -0.9,-0.3 -1.5,-0.5 -0.7,-0.2 -1.5,-0.3 -2.3,-0.3 -3.4,0 -4.4,2.1 -4.7,3.3 l -6.5,26.2 c -0.9,3.4 -1.6,6.5 -2.2,9.2 -0.3,1.3 -0.5,2.6 -0.8,3.8 -0.3,-1.3 -0.7,-2.6 -1,-4 -0.7,-2.8 -1.6,-5.9 -2.5,-9.3 l -7.4,-24.9 c -0.5,-1.7 -1.1,-2.8 -1.9,-3.4 -0.8,-0.6 -2.2,-0.9 -4.2,-0.9 -1.3,0 -2.7,0.2 -4.2,0.7 l -0.5,0.2 -8.7,28.3 c -0.3,1.1 -0.7,2.4 -1,3.9 -0.4,1.5 -0.8,3 -1.3,4.4 -0.5,1.5 -0.9,3.1 -1.3,4.6 0,0.1 -0.1,0.2 -0.1,0.4 -0.3,-1.4 -0.6,-2.8 -0.9,-4.1 -0.5,-2.7 -1.2,-5.6 -1.9,-8.8 l -6.2,-25.9 c -0.4,-1.3 -1,-2.3 -2,-2.9 -0.9,-0.5 -2,-0.8 -3.3,-0.8 -0.9,0 -1.7,0.1 -2.5,0.3 -0.7,0.2 -1.4,0.4 -1.9,0.6 l -0.8,0.3 13.1,51.7 0.1,0.5 0.4,0.2 c 0.6,0.3 1.4,0.4 2.5,0.6 1,0.1 1.8,0.2 2.5,0.2 1.5,0 2.8,-0.3 3.9,-0.8 1.3,-0.6 2.1,-1.7 2.6,-3.4 l 11,-37 11.7,40.4 0.5,0.2 c 0.6,0.2 1.3,0.3 2.2,0.4 0.9,0.1 1.8,0.2 2.5,0.2 1.3,0 2.6,-0.3 3.8,-0.8 1.3,-0.6 2.2,-1.7 2.6,-3.2 l 13,-49.4 z m -77.1,29.7 h -40.1 c 1.4,9.8 8.2,15.6 18.5,15.6 4.3,0 7.8,-1.1 11.1,-2.2 2.2,-0.8 3.4,-1.1 4.2,-1.1 2.3,0 3.9,2.2 3.4,6.8 -4.5,2.1 -11.7,4.3 -19.2,4.3 -16,0 -27.2,-11.1 -27.2,-27.3 0,-15.4 11.1,-26.6 25.8,-26.6 16,0 23.9,12.6 23.9,25 0,1.7 -0.1,3.5 -0.4,5.5 M 656.2,58.2 H 688 c -0.3,-8.8 -6,-15.6 -15.1,-15.6 -8.2,0 -15.4,5.4 -16.7,15.6 m 124.5,27.2 c -0.5,-4.5 1,-6.9 3.4,-6.9 2.6,0 8.7,2.7 17.1,2.7 8.9,0 12.2,-3.1 12.2,-7.2 0,-2.9 -1.3,-5.3 -9.4,-7.6 l -9.1,-2.5 c -10.3,-2.8 -14.3,-7.8 -14.3,-14.1 0,-7.8 6.2,-14.7 20.2,-14.7 6.3,0 14.2,1.4 18.9,3.2 0.5,4.4 -0.9,6.8 -3.1,6.8 -2.4,0 -8,-2.6 -15.8,-2.6 -8.1,0 -11.3,2.9 -11.3,6.8 0,2.6 1.2,4.9 8.7,7 l 9.4,2.6 c 10.5,2.9 14.8,7.8 14.8,14.5 0,8.2 -6.4,15.6 -21.5,15.6 -6.8,0.1 -15.2,-1.7 -20.2,-3.6 M 591.2,87.8 V 36.1 c 0.9,-0.2 2.6,-0.4 4.2,-0.4 3.4,0 4.4,1.4 4.4,3.5 V 43 c 4,-4.4 9.9,-7.9 17.5,-7.9 10.6,0 19.4,6.7 19.4,22.1 v 27.7 c 0,2.1 -1.2,3.4 -4.8,3.4 -1.5,0 -3.2,-0.2 -4.1,-0.4 V 58.3 c 0,-10.4 -5.1,-15.4 -12.8,-15.4 -6.1,0 -12.5,4.1 -15.2,9 v 32.9 c 0,2.1 -1.1,3.4 -4.7,3.4 -1.3,0 -3,-0.2 -3.9,-0.4 z"
       id="path8" />
  </g>
</svg>
