<?xml version="1.0" encoding="UTF-8" standalone="no"?>
<!-- Generator: Adobe Illustrator 17.1.0, SVG Export Plug-In . SVG Version: 6.00 Build 0)  -->

<svg
   xmlns:dc="http://purl.org/dc/elements/1.1/"
   xmlns:cc="http://creativecommons.org/ns#"
   xmlns:rdf="http://www.w3.org/1999/02/22-rdf-syntax-ns#"
   xmlns:svg="http://www.w3.org/2000/svg"
   xmlns="http://www.w3.org/2000/svg"
   xmlns:sodipodi="http://sodipodi.sourceforge.net/DTD/sodipodi-0.dtd"
   xmlns:inkscape="http://www.inkscape.org/namespaces/inkscape"
   enable-background="new 0 0 1372 226.8"
   xml:space="preserve"
   viewBox="-733178.17 0 0 102.3"
   height="87.151001"
   width="1110.7047"
   version="1.1"
   y="0px"
   x="0px"
   id="svg2"
   inkscape:version="0.91 r13725"
   sodipodi:docname="Sky_Sports_Ryder_Cup HD_2015.svg"><defs
     id="defs54"><linearGradient
       x1="-3700"
       y1="59"
       gradientTransform="matrix(-1.5130554,0,0,0.84942495,-5038.0019,-50.880556)"
       x2="-3700"
       gradientUnits="userSpaceOnUse"
       y2="163"
       id="SVGID_1_"><stop
         id="stop9"
         offset="0"
         stop-color="#091B4A" /><stop
         id="stop11"
         offset="0.0363"
         stop-color="#122D68" /><stop
         id="stop13"
         offset="0.896"
         stop-color="#122D68" /><stop
         id="stop15"
         offset="1"
         stop-color="#091B4A" /></linearGradient><linearGradient
       x1="465"
       y1="162"
       x2="465"
       gradientUnits="userSpaceOnUse"
       y2="59.900002"
       id="SVGID_2_"
       gradientTransform="matrix(0.84942495,0,0,0.84942495,-51.560094,-50.880556)"><stop
         id="stop22"
         offset="0"
         stop-color="#552227" /><stop
         id="stop24"
         offset="0.0739"
         stop-color="#C41C2B" /><stop
         id="stop26"
         offset="0.911"
         stop-color="#C41C2B" /><stop
         id="stop28"
         offset="1"
         stop-color="#FE3446" /></linearGradient></defs><sodipodi:namedview
     pagecolor="#ffffff"
     bordercolor="#666666"
     borderopacity="1"
     objecttolerance="10"
     gridtolerance="10"
     guidetolerance="10"
     inkscape:pageopacity="0"
     inkscape:pageshadow="2"
     inkscape:window-width="1920"
     inkscape:window-height="1017"
     id="namedview52"
     showgrid="false"
     fit-margin-top="0"
     fit-margin-left="0"
     fit-margin-right="0"
     fit-margin-bottom="0"
     inkscape:zoom="0.78516903"
     inkscape:cx="666.43305"
     inkscape:cy="142.94372"
     inkscape:window-x="-8"
     inkscape:window-y="-8"
     inkscape:window-maximized="1"
     inkscape:current-layer="svg2" /><metadata
     id="metadata4"><rdf:RDF><cc:Work
         rdf:about=""><dc:format>image/svg+xml</dc:format><dc:type
           rdf:resource="http://purl.org/dc/dcmitype/StillImage" /><dc:title></dc:title></cc:Work></rdf:RDF></metadata><path
     style="display:none;fill:#a1a2a2"
     inkscape:connector-curvature="0"
     id="path19"
     d="m 12.2,88.651 c -8.1,0 -13.5,-4.800002 -13.5,-12.700002 l 0,-80.6000008 c 0,-7.8999992 5.5,-12.6999992 13.5,-12.6999992 l 710,0 c 8.1,0 13.5,4.8 13.5,12.6999992 l 0,81.4000008 C 735.7,84.651 730.2,89.451 722.2,89.451 l -709,0 z m 710,1 c 12,0 15.6,-7.400002 15.6,-14.900002 l 0,-79.0000008 c 0,-7.3999992 -3.6,-14.8999992 -15.6,-14.8999992 l -711,0 c -12,0 -15.6,7.4 -15.6,14.8999992 l 0,79.0000008 c 0,7.4 3.6,14.900002 15.6,14.900002 l 711,0 z"
     display="none" /><g
     id="g4298"><path
       d="M 16.492303,86.72629 C 4.236555,86.72629 0,82.649046 0,75.938589 L 0,11.042523 C 0,4.332066 4.3878603,0.254826 16.492303,0.254826 l 1077.295397,0 c 12.2557,0 16.4923,4.07724 16.4923,10.787697 l 0,65.320778 c 0,6.710458 -4.3879,10.787699 -16.4923,10.787699 l -1075.782341,0 z"
       id="path17"
       style="fill:url(#SVGID_1_)"
       inkscape:connector-curvature="0" /><rect
       height="86.641342"
       width="366.10214"
       y="3.5858153e-007"
       x="160.79614"
       id="rect30"
       style="fill:url(#SVGID_2_)" /><g
       transform="matrix(1.5151201,0,0,0.84942495,-92.300636,-50.880556)"
       id="g32"
       style="opacity:0.4"><path
         d="m 785,139 c 6.9,6.9 7.9,13.3 8.1,14.8 0.7,0 0.9,-3 0.9,-7.6 l 0,-72.6 c 0,-8.4 -2.7,-11.3 -9.9,-11.3 -2.4,0 -4.8,1.3 -8,1.3 l -697,0 c -3.2,0 -5.6,-1.3 -8,-1.3 -7.1,0 -9.9,2.8 -9.9,11.3 l 0,72.6 c 0,4.5 0.3,7.6 0.9,7.6 0.2,-1.4 0.5,-8.4 8.1,-14.8 61.3,-47.2 648,-61.7 714,0 z"
         id="path34"
         inkscape:connector-curvature="0"
         style="fill:#ffffff" /></g><path
       d="m 103.88467,79.930886 c 1.01931,0.509655 3.14287,1.189195 5.77609,1.189195 4.50195,0.08494 6.96529,-1.613907 8.83402,-5.691147 l 24.29355,-54.108369 c -1.01931,-0.509655 -3.22781,-1.104253 -5.0116,-1.189195 -3.14288,-0.08494 -7.30506,0.594597 -10.02322,6.965285 l -7.64482,19.451831 -15.28965,-25.142979 c -1.01931,-0.33977 -3.3977,-0.764482 -5.181494,-0.764482 -5.436319,0 -8.494249,2.03862 -11.637121,5.43632 L 73.050545,42.471246 85.11238,61.413422 c 2.208505,3.482643 5.181492,5.181493 9.938272,5.181493 3.142872,0 5.691148,-0.67954 6.880338,-1.274138 L 87.49077,43.235729 97.683869,32.787802 114.67237,59.374803 104.47927,80.610426 Z M 72.031236,59.459745 c 0,3.992297 -1.528965,6.285745 -9.343675,6.285745 -1.01931,0 -1.953677,-0.08494 -2.803102,-0.169885 l 0,-52.579405 c 0,-3.992297 1.35908,-8.239422 9.258732,-8.239422 1.01931,0 1.953677,0.08494 2.888045,0.254828 l 0,54.872851 z M 55.977104,51.475151 c 0,7.474939 -4.841722,12.911259 -14.779994,13.930569 -7.13517,0.764482 -17.498154,-0.169885 -22.424819,-0.67954 -0.169885,-0.764483 -0.33977,-1.783793 -0.33977,-2.548275 0,-6.540572 3.482643,-7.984595 6.7954,-7.984595 3.3977,0 8.834019,0.594598 12.826317,0.594598 4.417009,0 5.776089,-1.528965 5.776089,-2.888045 0,-1.868735 -1.783792,-2.633217 -5.181492,-3.312757 l -9.343674,-1.783793 c -8.579192,-1.69885 -12.741375,-7.644824 -12.741375,-12.741374 0,-6.965284 4.926665,-12.826317 14.61011,-13.845627 7.305054,-0.764482 16.224016,0.08494 21.150681,0.67954 0.169885,0.849425 0.254827,1.613908 0.254827,2.548275 0,6.45563 -3.3977,7.899652 -6.710457,7.899652 -2.548275,0 -6.455629,-0.509655 -10.957582,-0.509655 -4.586894,0 -6.455629,1.274138 -6.455629,2.803103 0,1.613907 1.783792,2.293447 4.671837,2.803102 l 8.918962,1.69885 c 9.173789,1.444022 13.166087,6.710457 13.166087,13.166087 z"
       id="path36"
       inkscape:connector-curvature="0"
       style="fill:#ffffff" /><path
       d="m 229.59956,53.598713 c 0,-9.003905 -5.86103,-13.420914 -15.2047,-15.459534 l -16.13908,-4.247125 c -2.97298,-0.67954 -5.43632,-1.613907 -5.43632,-4.586895 0,-3.227814 2.54828,-4.501952 9.42862,-4.501952 8.06954,0 10.02321,0.424713 17.32827,0.424713 3.3977,0 6.88034,-1.613908 6.88034,-8.239422 0,-0.849425 -0.0849,-1.69885 -0.25483,-2.548275 -4.92666,-0.424713 -13.84562,-0.934368 -24.71826,-0.934368 -16.47885,0 -22.76459,7.13517 -22.76459,16.224017 0,8.494249 5.35138,13.251029 14.86494,15.459534 l 16.3939,3.822412 c 3.82241,0.934368 5.86103,2.548275 5.86103,4.926665 0,3.227815 -2.88805,4.501952 -9.76839,4.501952 -8.06953,0 -11.807,-0.594597 -19.197,-0.594597 -3.3977,0 -6.88034,1.528965 -6.88034,8.239422 0,0.849425 0.0849,1.69885 0.25482,2.548274 4.92667,0.509655 15.62942,1.104253 26.50206,1.104253 16.56379,0.08494 23.10436,-6.965285 23.10436,-16.648729 z"
       id="path40"
       inkscape:connector-curvature="0"
       style="fill:#ffffff" /><path
       d="m 364.65813,39.158489 0,-13.930569 12.9962,0 c 5.52126,0 9.93827,0.849425 9.93827,6.625514 0,4.841722 -3.31275,7.220112 -9.93827,7.220112 l -12.9962,0 z m -0.0849,10.872639 6.88034,0 13.25103,15.799304 c 2.46333,3.05793 4.84172,4.671837 10.53287,4.671837 3.82241,0 6.37069,-0.509655 8.4093,-1.528965 L 386.40341,49.011818 c 9.68344,-2.03862 14.52517,-8.324364 14.52517,-17.583096 0,-11.382295 -6.96529,-16.988499 -20.9808,-16.988499 l -20.04643,-0.08494 c -6.54057,0.254828 -8.66413,2.463333 -8.66413,8.409307 l 0,46.803315 c 1.01931,0.169885 2.12356,0.254827 3.31275,0.254827 8.23943,0 10.1931,-2.378389 10.1931,-6.710457 l -0.16988,-13.081144 z"
       id="path42"
       inkscape:connector-curvature="0"
       style="fill:#ffffff" /><path
       d="m 249.13634,40.857339 0,-15.544477 13.50585,0 c 6.71046,0 10.02322,2.463332 10.02322,7.389997 0,5.181492 -3.31276,7.81471 -10.02322,7.81471 l -13.5908,0 z m -13.42092,28.96539 c 1.01931,0.169885 2.12357,0.254828 3.31276,0.254828 8.23942,0 10.1931,-2.37839 10.1931,-6.710457 l 0,-11.297352 14.01551,0 c 15.28965,0 22.93447,-6.625515 22.93447,-19.027119 0,-11.976892 -7.64482,-18.347579 -22.0001,-18.347579 l -19.7916,0 c -6.62552,0 -8.66414,2.548275 -8.66414,8.409307 l 0,46.718372 z"
       id="path44"
       inkscape:connector-curvature="0"
       style="fill:#ffffff" /><path
       d="m 330.68113,40.857339 c 0,6.370687 -1.10425,10.787697 -3.22781,13.505856 -2.03862,2.71816 -5.43632,3.992298 -10.10816,3.992298 -4.67184,-0.08494 -8.06954,-1.444023 -10.27804,-3.992298 -2.12356,-2.548275 -3.22782,-7.050227 -3.22782,-13.505856 0,-6.370687 1.1892,-10.787697 3.31276,-13.420914 2.12356,-2.633218 5.52126,-3.907355 10.1931,-3.907355 4.67184,0 7.89965,1.274137 10.10816,3.907355 2.12356,2.633217 3.22781,7.050227 3.22781,13.420914 z m -13.33597,28.455735 c 8.66413,0 15.37459,-2.038619 20.13137,-6.285744 4.67184,-4.162182 7.13517,-11.552179 7.13517,-22.169991 -0.0849,-10.447927 -2.46333,-17.668039 -7.39,-22.000106 -4.84172,-4.247125 -11.46723,-6.370688 -19.87654,-6.370688 -8.32436,0 -14.94988,2.123563 -19.87654,6.370688 -4.84173,4.332067 -7.30506,11.552179 -7.39,22.000106 0,10.617812 2.37839,18.007809 7.13517,22.169991 4.75678,4.247125 11.46724,6.285744 20.13137,6.285744 z"
       id="path46"
       inkscape:connector-curvature="0"
       style="fill:#ffffff" /><path
       d="m 436.85925,25.652632 10.87264,0 c 3.56758,0 7.22011,-1.613907 7.22011,-8.664134 0,-0.849425 -0.0849,-1.783793 -0.25483,-2.633218 l -42.04653,0 c -3.56759,0 -7.22011,1.613908 -7.22011,8.664135 0,0.849425 0.0849,1.783792 0.25482,2.633217 l 17.83793,0 0,43.830327 c 1.01931,0.169885 2.12356,0.254828 3.31276,0.254828 8.23942,0 10.1931,-2.37839 10.1931,-6.710457 l 0,-37.374698 z"
       id="path48"
       inkscape:connector-curvature="0"
       style="fill:#ffffff" /><path
       d="m 509.06037,53.598713 c 0,-9.003905 -5.86103,-13.420914 -15.20471,-15.459534 l -16.3939,-3.73747 c -2.97298,-0.67954 -5.43632,-1.613907 -5.43632,-4.586895 0,-3.227814 2.54828,-4.501952 9.42862,-4.501952 8.06954,0 10.02321,0.424713 17.32827,0.424713 3.3977,0 6.88034,-1.613908 6.88034,-8.239422 0,-0.849425 -0.0849,-1.69885 -0.25483,-2.548275 -4.92666,-0.424713 -13.84562,-0.934368 -24.71826,-0.934368 -16.47885,0 -22.76459,7.13517 -22.76459,16.224017 0,8.494249 5.35138,13.251029 14.86494,15.459534 l 16.3939,3.822412 c 3.82241,0.934368 5.86103,2.548275 5.86103,4.926665 0,3.227815 -2.88805,4.501952 -9.76839,4.501952 -8.06953,0 -11.807,-0.594597 -19.197,-0.594597 -3.3977,0 -6.88034,1.528964 -6.88034,8.239422 0,0.849425 0.0849,1.698849 0.25482,2.548274 4.92667,0.509655 15.62942,1.104253 26.50206,1.104253 16.56379,0.08494 23.10436,-6.965285 23.10436,-16.648729 z"
       id="path50"
       inkscape:connector-curvature="0"
       style="fill:#ffffff" /><g
       id="g4231"
       style="overflow:visible"
       transform="translate(-3.6e-4,-1.300405)"><path
         inkscape:connector-curvature="0"
         id="path3121"
         style="font-style:normal;font-variant:normal;font-weight:bold;font-stretch:normal;font-size:medium;line-height:125%;font-family:'Sky Text';-inkscape-font-specification:'Sky Text Bold';letter-spacing:0px;word-spacing:0px;fill:#ffffff;fill-opacity:1;stroke:none"
         d="m 592.42841,73.422677 c -2.00139,0 -3.64927,-0.338205 -4.94365,-1.014614 -1.29445,-0.676386 -2.53091,-1.868844 -3.70941,-3.577372 l -11.3021,-16.247102 -2.20707,0 0,14.39307 c -2e-5,1.708507 -0.53,3.165965 -1.58994,4.372352 -1.05998,1.206388 -3.06134,1.80957 -6.00408,1.80957 -1.23603,0 -2.45767,-0.05894 -3.66497,-0.176608 -1.20727,-0.117665 -2.22323,-0.264536 -3.04783,-0.440593 l 0,-50.06986 c 0,-1.000617 0.10331,-1.942468 0.3099,-2.825508 0.20663,-0.882952 0.58925,-1.63347 1.148,-2.251532 0.55872,-0.617952 1.35323,-1.103469 2.38357,-1.456553 1.03031,-0.352973 2.37008,-0.529471 4.01933,-0.529537 l 13.59809,0 c 3.53199,6.6e-5 6.72579,0.397545 9.58145,1.192457 2.85558,0.795046 5.29888,1.957392 7.32992,3.487104 2.03095,1.529823 3.60563,3.457522 4.72402,5.783097 1.11831,2.325685 1.67749,5.019157 1.67754,8.080436 -5e-5,4.592008 -1.16286,8.344995 -3.48845,11.258984 -2.32569,2.914033 -5.69645,4.871358 -10.11234,5.872019 l 15.27697,20.133031 c -1.29537,0.64857 -2.78155,1.178549 -4.4586,1.589958 -1.67711,0.411408 -3.51724,0.617112 -5.52035,0.617112 z m -22.16223,-31.435129 6.71011,0 c 3.53198,2.2e-5 6.0045,-0.735661 7.41752,-2.207071 1.41295,-1.471344 2.11942,-3.266984 2.11947,-5.386943 -5e-5,-2.236674 -0.75054,-4.017502 -2.25153,-5.342504 -1.50104,-1.324913 -3.69418,-1.987392 -6.5794,-1.987436 l -7.41617,0 z" /><path
         inkscape:connector-curvature="0"
         id="path3123"
         style="font-style:normal;font-variant:normal;font-weight:bold;font-stretch:normal;font-size:medium;line-height:125%;font-family:'Sky Text';-inkscape-font-specification:'Sky Text Bold';letter-spacing:0px;word-spacing:0px;fill:#ffffff;fill-opacity:1;stroke:none"
         d="m 628.8344,73.158581 c -1.23785,0 -2.44512,-0.05894 -3.62184,-0.176608 -1.17676,-0.117665 -2.17744,-0.264536 -3.00203,-0.440593 l 0,-22.517967 -21.28104,-33.291854 c 2.47204,-1.000617 5.4157,-1.500969 8.83095,-1.501013 1.64742,4.4e-5 3.2661,0.235838 4.85606,0.707381 1.58993,0.471654 2.97328,1.678483 4.15004,3.620487 l 10.50712,18.367943 10.86283,-18.545787 c 1.11921,-1.823456 2.51737,-2.970989 4.19451,-3.442643 1.67703,-0.471543 3.31054,-0.707337 4.90054,-0.707381 1.17668,4.4e-5 2.56003,0.117665 4.15003,0.353017 1.58989,0.235396 2.91485,0.559671 3.97487,0.972823 l -20.92801,33.289182 0,17.131003 c -4e-5,1.708506 -0.53002,3.165964 -1.58996,4.372352 -1.06,1.206387 -3.06134,1.80957 -6.00407,1.80957 z" /><path
         inkscape:connector-curvature="0"
         id="path3125"
         style="font-style:normal;font-variant:normal;font-weight:bold;font-stretch:normal;font-size:medium;line-height:125%;font-family:'Sky Text';-inkscape-font-specification:'Sky Text Bold';letter-spacing:0px;word-spacing:0px;fill:#ffffff;fill-opacity:1;stroke:none"
         d="m 669.7149,72.805564 c -1.64926,0 -2.98903,-0.176608 -4.01934,-0.529537 -1.03033,-0.353018 -1.82484,-0.838535 -2.38356,-1.456553 -0.55875,-0.618018 -0.94141,-1.368514 -1.148,-2.251532 -0.20663,-0.882996 -0.3099,-1.824825 -0.3099,-2.82553 l 0,-43.270804 c 0,-1.000617 0.10331,-1.942468 0.3099,-2.825508 0.20663,-0.882952 0.58925,-1.63347 1.148,-2.251532 0.55872,-0.617951 1.35323,-1.103469 2.38356,-1.456553 1.03031,-0.352973 2.37008,-0.529471 4.01934,-0.529537 l 10.94908,0 c 5.00335,6.6e-5 9.46239,0.662082 13.37711,1.98609 3.91463,1.324119 7.24095,3.222611 9.97893,5.695521 2.73789,2.472999 4.82773,5.44582 6.26952,8.918508 1.44167,3.472777 2.16254,7.358706 2.16258,11.657809 -4e-5,4.062029 -0.72091,7.859036 -2.16258,11.391043 -1.44179,3.532028 -3.54601,6.607723 -6.31264,9.227064 -2.76674,2.619384 -6.15187,4.694396 -10.15545,6.225058 -4.00363,1.530662 -8.59518,2.295993 -13.77458,2.295993 z m 6.44602,-12.450095 5.20909,0 c 2.29597,0 4.44463,-0.353459 6.44602,-1.060421 2.00132,-0.706918 3.73815,-1.766875 5.21045,-3.179894 1.47224,-1.412953 2.63505,-3.164154 3.48845,-5.253559 0.85332,-2.089362 1.28001,-4.517392 1.28005,-7.284111 -4e-5,-2.531301 -0.42673,-4.768462 -1.28005,-6.711459 -0.8534,-1.942932 -2.01621,-3.576446 -3.48845,-4.900542 -1.4723,-1.324009 -3.22394,-2.339505 -5.25491,-3.046489 -2.03101,-0.706896 -4.22327,-1.060377 -6.57671,-1.060421 l -5.03394,0 z" /><path
         inkscape:connector-curvature="0"
         id="path3127"
         style="font-style:normal;font-variant:normal;font-weight:bold;font-stretch:normal;font-size:medium;line-height:125%;font-family:'Sky Text';-inkscape-font-specification:'Sky Text Bold';letter-spacing:0px;word-spacing:0px;fill:#ffffff;fill-opacity:1;stroke:none"
         d="m 727.66441,72.805564 c -1.64925,0 -2.98902,-0.176608 -4.01933,-0.529537 -1.03033,-0.353018 -1.82485,-0.838535 -2.38357,-1.456553 -0.55874,-0.618018 -0.94141,-1.368514 -1.148,-2.251532 -0.20663,-0.882996 -0.3099,-1.824825 -0.3099,-2.82553 l 0,-43.270804 c 0,-1.000617 0.10332,-1.942468 0.3099,-2.825508 0.20664,-0.882952 0.58926,-1.63347 1.148,-2.251532 0.55872,-0.617951 1.35324,-1.103469 2.38357,-1.456553 1.03031,-0.352973 2.37008,-0.529471 4.01933,-0.529537 l 29.22808,0 c 0.11679,0.646827 0.23394,1.529382 0.35167,2.647664 0.11767,1.118414 0.17639,2.266852 0.17639,3.445336 -4e-5,2.472115 -0.50037,4.223294 -1.50101,5.253559 -1.00071,1.030376 -2.26639,1.545542 -3.79701,1.545498 l -18.01221,0 0,10.065157 20.75017,0 c 0.11854,0.589297 0.23665,1.369905 0.35436,2.341801 0.11766,0.971962 0.17639,2.016665 0.17639,3.134086 -3e-5,2.355311 -0.47117,3.959619 -1.41342,4.812967 -0.94234,0.85337 -2.11952,1.280055 -3.53159,1.280033 l -16.33602,0 0,9.978929 23.66596,0 c 0.11679,0.646782 0.23394,1.54415 0.35167,2.692146 0.11767,1.147997 0.17639,2.281622 0.17639,3.400853 -4e-5,2.531346 -0.50037,4.29736 -1.50101,5.298043 -1.00071,1.000661 -2.26639,1.501014 -3.79701,1.501014 z" /><path
         inkscape:connector-curvature="0"
         id="path3129"
         style="font-style:normal;font-variant:normal;font-weight:bold;font-stretch:normal;font-size:medium;line-height:125%;font-family:'Sky Text';-inkscape-font-specification:'Sky Text Bold';letter-spacing:0px;word-spacing:0px;fill:#ffffff;fill-opacity:1;stroke:none"
         d="m 800.39905,73.422677 c -2.00139,0 -3.64928,-0.338205 -4.94366,-1.014614 -1.29445,-0.676386 -2.5309,-1.868844 -3.70941,-3.577372 l -11.3021,-16.247102 -2.20707,0 0,14.39307 c -2e-5,1.708507 -0.53,3.165965 -1.58993,4.372352 -1.05998,1.206388 -3.06135,1.80957 -6.00408,1.80957 -1.23604,0 -2.45768,-0.05894 -3.66497,-0.176608 -1.20727,-0.117665 -2.22323,-0.264536 -3.04784,-0.440593 l 0,-50.06986 c 0,-1.000617 0.10332,-1.942468 0.30991,-2.825508 0.20663,-0.882952 0.58925,-1.63347 1.14799,-2.251532 0.55872,-0.617952 1.35324,-1.103469 2.38357,-1.456553 1.03031,-0.352973 2.37008,-0.529471 4.01934,-0.529537 l 13.59809,0 c 3.53198,6.6e-5 6.72578,0.397545 9.58145,1.192457 2.85557,0.795046 5.29888,1.957392 7.32992,3.487104 2.03094,1.529823 3.60563,3.457522 4.72402,5.783097 1.1183,2.325685 1.67749,5.019157 1.67753,8.080436 -4e-5,4.592008 -1.16285,8.344995 -3.48845,11.258984 -2.32568,2.914033 -5.69645,4.871358 -10.11233,5.872019 L 810.378,71.215518 c -1.29538,0.64857 -2.78156,1.178549 -4.4586,1.589958 -1.67712,0.411408 -3.51724,0.617112 -5.52035,0.617112 z m -22.16224,-31.435129 6.71011,0 c 3.53199,2.2e-5 6.0045,-0.735661 7.41752,-2.207071 1.41295,-1.471344 2.11943,-3.266984 2.11947,-5.386943 -4e-5,-2.236674 -0.75054,-4.017502 -2.25153,-5.342504 -1.50103,-1.324913 -3.69417,-1.987392 -6.5794,-1.987436 l -7.41617,0 z" /><path
         inkscape:connector-curvature="0"
         id="path3131"
         style="font-style:normal;font-variant:normal;font-weight:bold;font-stretch:normal;font-size:medium;line-height:125%;font-family:'Sky Text';-inkscape-font-specification:'Sky Text Bold';letter-spacing:0px;word-spacing:0px;fill:#ffffff;fill-opacity:1;stroke:none"
         d="m 857.10434,73.864616 c -4.1806,0 -8.03688,-0.750496 -11.56889,-2.25151 -3.53203,-1.501013 -6.59289,-3.576026 -9.1826,-6.225058 -2.58974,-2.648988 -4.62073,-5.798351 -6.093,-9.448045 -1.4723,-3.649671 -2.20842,-7.594455 -2.20842,-11.834329 0,-4.119449 0.73612,-7.974846 2.20842,-11.566193 1.47227,-3.591259 3.50326,-6.711415 6.093,-9.36047 2.58971,-2.648966 5.65057,-4.723978 9.1826,-6.225058 3.53201,-1.500948 7.38829,-2.251466 11.56889,-2.25151 3.002,4.4e-5 5.91599,0.323877 8.74201,0.971477 2.82592,0.64771 5.44531,1.471874 7.85811,2.472513 0.52993,7.82941 -1.3834,11.744082 -5.73999,11.744038 -0.76535,4.4e-5 -1.47185,-0.08853 -2.11947,-0.265442 -0.64769,-0.176829 -1.35419,-0.353415 -2.11947,-0.529538 -0.76538,-0.175945 -1.61873,-0.352531 -2.56009,-0.529537 -0.94143,-0.176828 -2.05978,-0.265375 -3.35505,-0.265419 -2.06068,4.4e-5 -4.00319,0.367874 -5.82758,1.103513 -1.8244,0.735727 -3.39908,1.795243 -4.72402,3.178547 -1.32498,1.383393 -2.3701,3.046533 -3.13543,4.989465 -0.76533,1.943019 -1.148,4.120884 -1.148,6.533614 0,2.531368 0.38267,4.798154 1.148,6.800382 0.76533,2.002293 1.81045,3.695081 3.13543,5.078408 1.32494,1.383349 2.89962,2.442865 4.72402,3.178548 1.82439,0.735705 3.7669,1.103535 5.82758,1.103535 1.29527,0 2.44327,-0.08853 3.44397,-0.265442 1.00066,-0.177049 1.89847,-0.353459 2.6935,-0.529537 0.79493,-0.176167 1.54543,-0.352554 2.2515,-0.529537 0.70602,-0.17705 1.4417,-0.26542 2.20708,-0.265442 4.29729,2.2e-5 6.21062,3.914694 5.73998,11.74406 -2.41282,1.000661 -5.10585,1.824847 -8.07909,2.47249 -2.97333,0.647666 -5.96099,0.971477 -8.96299,0.971477 z" /><path
         inkscape:connector-curvature="0"
         id="path3133"
         style="font-style:normal;font-variant:normal;font-weight:bold;font-stretch:normal;font-size:medium;line-height:125%;font-family:'Sky Text';-inkscape-font-specification:'Sky Text Bold';letter-spacing:0px;word-spacing:0px;fill:#ffffff;fill-opacity:1;stroke:none"
         d="m 904.26474,74.131405 c -3.88598,0 -7.35959,-0.662479 -10.4209,-1.987437 -3.06134,-1.324936 -5.65152,-3.135411 -7.77053,-5.431404 -2.11903,-2.295993 -3.73773,-4.959816 -4.85608,-7.991514 -1.11835,-3.031654 -1.67753,-6.283847 -1.67751,-9.756601 l 0,-27.551893 c -2e-5,-1.706674 0.52998,-3.163669 1.58993,-4.371005 1.05996,-1.207227 3.06133,-1.810873 6.00408,-1.810917 1.23602,4.4e-5 2.45766,0.05894 3.66495,0.176387 1.20727,0.117665 2.22233,0.265508 3.04516,0.443308 l 0,33.200238 c -2e-5,3.826677 0.94183,6.814334 2.82553,8.962991 1.88366,2.14868 4.44507,3.223009 7.68429,3.223009 3.17806,0 5.73859,-1.074329 7.68159,-3.223009 1.94293,-2.148657 2.91443,-5.136314 2.91447,-8.962991 l 0,-27.638122 c -4e-5,-1.706674 0.52949,-3.163668 1.58859,-4.371005 1.05903,-1.207226 3.06082,-1.810872 6.00542,-1.810917 1.23597,4.5e-5 2.4428,0.05894 3.62049,0.176388 1.17758,0.117665 2.17782,0.265508 3.00068,0.443308 l 0,33.114009 c -4e-5,3.472754 -0.60322,6.724948 -1.80957,9.756601 -1.20643,3.031698 -2.86913,5.695522 -4.98812,7.991514 -2.11907,2.295993 -4.70925,4.106469 -7.77053,5.431404 -3.06134,1.324958 -6.50533,1.987437 -10.33194,1.987437 z" /><path
         inkscape:connector-curvature="0"
         id="path3135"
         style="font-style:normal;font-variant:normal;font-weight:bold;font-stretch:normal;font-size:medium;line-height:125%;font-family:'Sky Text';-inkscape-font-specification:'Sky Text Bold';letter-spacing:0px;word-spacing:0px;fill:#ffffff;fill-opacity:1;stroke:none"
         d="m 943.46404,73.158581 c -1.23604,0 -2.45768,-0.05894 -3.66497,-0.176608 -1.20727,-0.117665 -2.22323,-0.264536 -3.04784,-0.440593 l 0,-50.06986 c 0,-1.000617 0.10332,-1.942468 0.30991,-2.825508 0.20663,-0.882952 0.58925,-1.63347 1.14799,-2.251532 0.55872,-0.617952 1.35324,-1.103469 2.38357,-1.456553 1.03031,-0.352973 2.37008,-0.529471 4.01934,-0.529537 l 12.186,0 c 4.29731,6.6e-5 7.99102,0.529603 11.08111,1.588611 3.09003,1.059119 5.60654,2.516113 7.54956,4.371005 1.94293,1.854981 3.37074,4.018474 4.28342,6.490479 0.9126,2.472093 1.36892,5.091455 1.36898,7.858108 -6e-5,3.061346 -0.54486,5.872505 -1.63442,8.433454 -1.08965,2.561016 -2.63514,4.768969 -4.63644,6.623884 -2.00139,1.854958 -4.38542,3.297139 -7.15208,4.326544 -2.76672,1.029426 -5.85767,1.54415 -9.27289,1.544128 l -7.32723,0 0,10.331968 c -2e-5,1.708506 -0.53,3.165964 -1.58993,4.372352 -1.05998,1.206387 -3.06135,1.80957 -6.00408,1.80957 z m 7.59401,-28.699889 4.94501,0 c 4.00269,2.2e-5 6.79857,-0.824142 8.38764,-2.472491 1.58901,-1.648305 2.38355,-3.708504 2.38357,-6.180597 -2e-5,-2.531301 -0.82418,-4.517833 -2.47249,-5.959595 -1.64837,-1.441695 -3.97355,-2.162565 -6.97555,-2.162609 l -6.26818,0 z" /></g><path
       d="m 1064.7173,54.923386 0,-26.068651 7.6358,0 c 10.6094,0 14.4884,6.855211 14.4884,13.034935 0,6.183397 -3.879,13.033716 -14.4884,13.033716 l -7.6358,0 z m 32.9661,-13.033716 c 0,-13.577038 -9.765,-22.802574 -25.9422,-22.802574 l -11.0254,0 c -5.2618,0 -6.5345,2.792501 -6.5345,6.436705 l 0,32.790479 c 0,3.520607 1.2727,6.365728 6.5345,6.365728 l 11.0254,0 c 16.1894,0 25.9544,-9.210848 25.9544,-22.790338 m -60.6704,-5.276628 0,-12.349661 c 0,-3.338276 1.3339,-5.465079 8.2354,-5.465079 0.8566,0 1.5908,0.06363 2.4474,0.183557 l 0,40.51697 c 0,3.328485 -1.346,5.449172 -8.2599,5.449172 -0.8443,0 -1.5785,-0.05874 -2.4229,-0.176214 l 0,-18.400898 -21.5246,0 0,13.12794 c 0,3.328485 -1.3339,5.449172 -8.2477,5.449172 -0.8443,0 -1.5786,-0.05874 -2.4229,-0.176214 l 0,-40.508406 c 0,-3.338276 1.3338,-5.465079 8.2477,-5.465079 0.8443,0 1.5663,0.06363 2.4229,0.183557 l 0,17.631183 21.5246,0 z"
       id="path114"
       inkscape:connector-curvature="0"
       style="fill:#ffffff" /></g></svg>