<?xml version="1.0" encoding="UTF-8"?>
<!-- Created with Inkscape (http://www.inkscape.org/) -->
<svg id="svg8519" width="2372.4" height="730" version="1.1" viewBox="0 0 2372.4 730" xmlns="http://www.w3.org/2000/svg" xmlns:cc="http://creativecommons.org/ns#" xmlns:dc="http://purl.org/dc/elements/1.1/" xmlns:rdf="http://www.w3.org/1999/02/22-rdf-syntax-ns#">
 <defs id="defs8521">
  <clipPath id="clipPath1252">
   <path id="path1254" d="m411.59 515.35h94.948v18.13h-94.948v-18.13z"/>
  </clipPath>
  <clipPath id="clipPath1288">
   <path id="path1290" d="m412.39 532.67h93.284v-15.246h-93.284v15.246z"/>
  </clipPath>
  <clipPath id="clipPath1292">
   <path id="path1294" d="m412.39 517.42h93.284v15.245h-93.284v-15.245z"/>
  </clipPath>
  <linearGradient id="linearGradient1236" x2="1" gradientTransform="matrix(0 17.057 17.057 0 474.76 515.89)" gradientUnits="userSpaceOnUse">
   <stop id="stop1238" stop-color="#820021" offset="0"/>
   <stop id="stop1240" stop-color="#ae2c3f" offset=".10441"/>
   <stop id="stop1242" stop-color="#ae2c3f" offset=".90174"/>
   <stop id="stop1244" stop-color="#ba3c4c" offset="1"/>
  </linearGradient>
  <clipPath id="clipPath1202">
   <path id="path1204" d="m411.59 515.35h94.948v18.13h-94.948v-18.13z"/>
  </clipPath>
  <clipPath id="clipPath1214">
   <path id="path1216" d="m505.84 530.72h0.017v-0.016h-0.017v0.016z"/>
  </clipPath>
  <linearGradient id="linearGradient1178" x2="1" gradientTransform="matrix(0 -17.343 17.343 0 459.06 533.09)" gradientUnits="userSpaceOnUse">
   <stop id="stop1180" stop-color="#868685" offset="0"/>
   <stop id="stop1182" stop-color="#d8d9d9" offset=".020448"/>
   <stop id="stop1184" stop-color="#f5f5f5" offset=".052404"/>
   <stop id="stop1186" stop-color="#edeeee" offset=".48766"/>
   <stop id="stop1188" stop-color="#f5f5f5" offset=".89549"/>
   <stop id="stop1190" stop-color="#ebebec" offset=".92944"/>
   <stop id="stop1192" stop-color="#d8d9d9" offset=".96426"/>
   <stop id="stop1194" stop-color="#868685" offset="1"/>
  </linearGradient>
 </defs>
 <metadata id="metadata8524">
  <rdf:RDF>
   <cc:Work rdf:about="">
    <dc:format>image/svg+xml</dc:format>
    <dc:type rdf:resource="http://purl.org/dc/dcmitype/StillImage"/>
    <dc:title/>
   </cc:Work>
  </rdf:RDF>
 </metadata>
 <g id="layer1" transform="translate(-192.09 474.88)">
  <g id="g4201" transform="matrix(19.99 0 0 19.99 -3647.6 -5121.6)">
   <g id="g1166" transform="matrix(1.25 0 0 -1.25 -322.4 899.31)">
    <g id="g1168">
     <g id="g1174">
      <g id="g1176">
       <path id="path1196" d="m414.08 532.94c-1.345 0-1.823-0.794-1.823-2.114v-12.829c0-1.32 0.478-2.114 1.823-2.114h89.96c1.345 0 1.822 0.794 1.822 2.114v12.829c0 1.32-0.477 2.114-1.822 2.114h-89.96z" fill="url(#linearGradient1178)"/>
      </g>
     </g>
    </g>
   </g>
   <g id="g1198" transform="matrix(1.25 0 0 -1.25 -322.4 899.31)">
    <g id="g1200" clip-path="url(#clipPath1202)">
     <g id="g1206" transform="translate(503.93 515.35)">
      <path id="path1208" d="m0 0c1.996 0 2.605 1.241 2.605 2.482v13.166c0 1.241-0.609 2.482-2.605 2.482h-89.738c-1.997 0-2.605-1.241-2.605-2.482v-13.166c0-1.241 0.608-2.482 2.605-2.482h89.738zm-89.646 0.167c-1.344 0-2.254 0.793-2.254 2.114v13.568c0 1.321 0.91 2.114 2.254 2.114h89.554c1.344 0 2.254-0.793 2.254-2.114v-13.568c0-1.321-0.91-2.114-2.254-2.114h-89.554z" fill="#a1a2a2"/>
     </g>
     <g id="g1210">
      <g id="g1218">
       <g id="g1220" clip-path="url(#clipPath1214)" opacity=".8"></g>
      </g>
     </g>
    </g>
   </g>
   <g id="g1224" transform="matrix(1.25 0 0 -1.25 -322.4 899.31)">
    <g id="g1226">
     <g id="g1232">
      <g id="g1234">
       <path id="path1246" d="m443.66 532.94v-17.057h60.388c1.345 0 1.822 0.794 1.822 2.114v12.829c0 1.32-0.477 2.114-1.822 2.114h-60.388z" fill="url(#linearGradient1236)"/>
      </g>
     </g>
    </g>
   </g>
   <g id="g1248" transform="matrix(1.25 0 0 -1.25 -322.4 899.31)">
    <g id="g1250" clip-path="url(#clipPath1252)">
     <g id="g1256" transform="translate(452.08 519.04)">
      <path id="path1258" d="m0 0c-0.756 0-1.454 0.136-2.093 0.408-0.639 0.273-1.192 0.649-1.661 1.129-0.469 0.481-0.836 1.052-1.102 1.714s-0.4 1.377-0.4 2.146c0 0.747 0.134 1.446 0.4 2.098 0.266 0.651 0.633 1.217 1.102 1.697 0.469 0.481 1.022 0.857 1.661 1.129 0.639 0.273 1.337 0.409 2.093 0.409 0.543 0 1.07-0.059 1.581-0.176 0.512-0.118 0.985-0.268 1.422-0.449 0.096-1.42-0.25-2.13-1.038-2.13-0.139 0-0.266 0.016-0.384 0.048-0.117 0.032-0.245 0.064-0.383 0.096-0.139 0.032-0.293 0.064-0.463 0.096-0.171 0.032-0.373 0.049-0.607 0.049-0.373 0-0.724-0.067-1.055-0.201-0.33-0.133-0.614-0.326-0.854-0.576-0.24-0.251-0.429-0.553-0.567-0.905-0.139-0.352-0.208-0.748-0.208-1.185 0-0.46 0.069-0.871 0.208-1.233 0.138-0.363 0.327-0.67 0.567-0.921s0.524-0.443 0.854-0.577c0.331-0.133 0.682-0.2 1.055-0.2 0.234 0 0.442 0.016 0.623 0.048s0.343 0.064 0.487 0.096 0.28 0.064 0.407 0.096c0.128 0.032 0.261 0.048 0.4 0.048 0.777 0 1.123-0.71 1.038-2.13-0.437-0.181-0.924-0.331-1.462-0.448s-1.078-0.176-1.621-0.176" fill="#fff"/>
     </g>
     <g id="g1260" transform="translate(457.59 519.17)">
      <path id="path1262" d="m0 0c-0.224 0-0.445 0.011-0.663 0.032s-0.402 0.048-0.551 0.08v9.273c0 0.309 0.096 0.573 0.287 0.792 0.192 0.219 0.554 0.329 1.087 0.329 0.223 0 0.444-0.011 0.663-0.033 0.218-0.021 0.402-0.048 0.551-0.08v-9.272c0-0.31-0.096-0.574-0.288-0.793-0.191-0.219-0.554-0.328-1.086-0.328" fill="#fff"/>
     </g>
     <g id="g1264" transform="translate(461.96 519.17)">
      <path id="path1266" d="m0 0c-0.213 0-0.421 0.011-0.623 0.032-0.203 0.021-0.373 0.048-0.511 0.08v10.201c0.159 0.054 0.367 0.099 0.623 0.137 0.255 0.037 0.473 0.056 0.655 0.056 0.585 0 1.011-0.075 1.278-0.225 0.266-0.149 0.489-0.368 0.671-0.656l3.626-5.717v5.573c0 0.138 0.018 0.269 0.056 0.392 0.037 0.123 0.101 0.232 0.191 0.328 0.091 0.096 0.216 0.171 0.376 0.224 0.159 0.054 0.362 0.081 0.607 0.081 0.213 0 0.418-0.011 0.615-0.033 0.197-0.021 0.364-0.042 0.503-0.063v-10.218c-0.149-0.075-0.33-0.125-0.543-0.152s-0.421-0.04-0.623-0.04c-0.501 0-0.874 0.069-1.118 0.208-0.246 0.139-0.448 0.331-0.607 0.577l-3.882 6.214v-5.942c0-0.299-0.091-0.55-0.272-0.753s-0.522-0.304-1.022-0.304" fill="#fff"/>
     </g>
     <g id="g1268" transform="translate(473.3 519.23)">
      <path id="path1270" d="m0 0c-0.298 0-0.541 0.032-0.727 0.096s-0.33 0.152-0.431 0.264c-0.102 0.112-0.171 0.248-0.208 0.409-0.037 0.16-0.056 0.33-0.056 0.512v7.847c0 0.182 0.019 0.353 0.056 0.513s0.106 0.296 0.208 0.408c0.101 0.112 0.245 0.2 0.431 0.264s0.429 0.096 0.727 0.096h5.287c0.022-0.117 0.043-0.277 0.064-0.48 0.022-0.203 0.032-0.411 0.032-0.624 0-0.449-0.09-0.767-0.271-0.953-0.182-0.187-0.41-0.281-0.687-0.281h-3.259v-1.825h3.754c0.021-0.107 0.043-0.249 0.064-0.425s0.032-0.366 0.032-0.568c0-0.427-0.086-0.718-0.256-0.873s-0.383-0.232-0.639-0.232h-2.955v-1.81h4.281c0.021-0.118 0.043-0.28 0.064-0.488 0.021-0.209 0.032-0.414 0.032-0.617 0-0.459-0.091-0.779-0.272-0.961-0.181-0.181-0.41-0.272-0.686-0.272h-4.585z" fill="#fff"/>
     </g>
     <g id="g1272" transform="translate(480.98 519.17)">
      <path id="path1274" d="m0 0c-0.245 0-0.461 0.024-0.647 0.072-0.187 0.048-0.349 0.104-0.487 0.168l0.976 9.977c0.203 0.086 0.469 0.155 0.799 0.208 0.33 0.054 0.612 0.081 0.846 0.081 0.33 0 0.615-0.022 0.854-0.065 0.24-0.042 0.445-0.114 0.615-0.216 0.17-0.101 0.306-0.243 0.407-0.424 0.101-0.182 0.178-0.406 0.232-0.673l0.415-1.937c0.117-0.534 0.242-1.124 0.375-1.77s0.253-1.311 0.359-1.994h0.064c0.117 0.683 0.239 1.345 0.367 1.986s0.261 1.228 0.399 1.761l0.51 2.034c0.128 0.502 0.332 0.844 0.614 1.025 0.282 0.182 0.721 0.273 1.316 0.273 0.298 0 0.598-0.025 0.901-0.073s0.556-0.098 0.758-0.152l0.934-10.041c-0.149-0.053-0.328-0.107-0.535-0.16-0.208-0.053-0.434-0.08-0.679-0.08-0.341 0-0.629 0.059-0.863 0.176-0.234 0.118-0.362 0.337-0.383 0.657l-0.24 3.459c-0.053 0.609-0.098 1.246-0.136 1.914-0.037 0.667-0.061 1.299-0.072 1.898h-0.032c-0.138-0.556-0.279-1.156-0.423-1.802s-0.29-1.241-0.439-1.786l-0.655-2.722c-0.16-0.641-0.666-0.961-1.518-0.961-0.213 0-0.431 0.021-0.655 0.064-0.223 0.042-0.415 0.09-0.575 0.144l-0.814 3.395c-0.16 0.63-0.309 1.249-0.447 1.858-0.139 0.608-0.267 1.217-0.384 1.825h-0.048c-0.032-0.854-0.074-1.636-0.128-2.346-0.053-0.71-0.101-1.321-0.143-1.833l-0.256-3.123c-0.021-0.31-0.138-0.523-0.351-0.641-0.214-0.117-0.49-0.176-0.831-0.176" fill="#fff"/>
     </g>
     <g id="g1276" transform="translate(496.06 523.54)">
      <path id="path1278" d="m0 0h2.39l-1.192 3.923-1.198-3.923zm-2.492-4.404c-0.202 0-0.434 0.019-0.694 0.056-0.262 0.037-0.477 0.088-0.647 0.152l3.314 10.153c0.288 0.075 0.579 0.129 0.873 0.161s0.563 0.048 0.809 0.048c0.352 0 0.654-0.027 0.905-0.08 0.251-0.054 0.462-0.134 0.633-0.241s0.312-0.248 0.424-0.424 0.206-0.382 0.281-0.617l2.84-8.984c-0.181-0.075-0.399-0.131-0.655-0.168-0.255-0.037-0.506-0.056-0.75-0.056-0.278 0-0.546 0.045-0.807 0.136s-0.45 0.296-0.567 0.617l-0.544 1.649h-3.484l-0.461-1.553c-0.117-0.374-0.314-0.609-0.591-0.705s-0.57-0.144-0.879-0.144" fill="#fff"/>
     </g>
     <g id="g1280" transform="translate(423.12 522.78)">
      <path id="path1282" d="m0 0c0-1.46-0.955-2.527-2.894-2.738-1.404-0.15-3.438 0.027-4.404 0.138-0.036 0.158-0.064 0.354-0.064 0.508 0 1.278 0.691 1.569 1.338 1.569 0.672 0 1.73-0.116 2.518-0.116 0.865 0 1.129 0.294 1.129 0.573 0 0.367-0.349 0.52-1.021 0.648l-1.839 0.354c-1.531 0.293-2.348 1.352-2.348 2.476 0 1.366 0.967 2.509 2.868 2.72 1.438 0.155 3.187-0.02 4.148-0.138 0.035-0.165 0.053-0.321 0.053-0.492 0-1.274-0.671-1.549-1.319-1.549-0.497 0-1.269 0.093-2.15 0.093-0.897 0-1.269-0.248-1.269-0.55 0-0.319 0.355-0.451 0.916-0.549l1.758-0.326c1.806-0.333 2.58-1.359 2.58-2.621m3.155-1.568c0-0.783-0.307-1.235-1.836-1.235-0.203 0-0.38 0.015-0.55 0.04v10.39c0 0.789 0.269 1.612 1.813 1.612 0.194 0 0.391-0.02 0.573-0.058v-10.749zm6.25-4.019c0.2-0.103 0.612-0.227 1.131-0.241 0.886-0.019 1.371 0.321 1.73 1.116l4.764 10.626c-0.197 0.106-0.631 0.223-0.988 0.231-0.612 0.011-1.434-0.114-1.96-1.367l-1.543-3.641-3.025 4.927c-0.195 0.06-0.671 0.146-1.021 0.146-1.067 0-1.665-0.394-2.284-1.066l-2.941-3.217 2.366-3.723c0.437-0.678 1.013-1.024 1.949-1.024 0.612 0 1.121 0.139 1.357 0.252l-2.848 4.295 2.019 2.139 3.311-5.197-2.017-4.256z" fill="#ae2c3f"/>
     </g>
     <g id="g1284">
      <g id="g1296">
       <g id="g1298" clip-path="url(#clipPath1288)" opacity=".39999">
        <g id="g1300">
         <g id="g1302">
          <g id="g1304" clip-path="url(#clipPath1292)">
           <g id="g1306" transform="translate(504.17 519.89)">
            <path id="path1308" d="m0 0c1.156-1.145 1.313-2.225 1.354-2.463 0.114 0 0.156 0.506 0.156 1.261l-4e-3 12.109c0 1.402-0.456 1.876-1.644 1.876-0.402 0-0.804-0.216-1.339-0.216h-87.31c-0.536 0-0.938 0.216-1.34 0.216-1.187 0-1.643-0.474-1.643-1.876l-4e-3 -12.109c0-0.755 0.041-1.261 0.155-1.261 0.041 0.238 0.076 1.402 1.354 2.463 10.208 7.878 79.259 10.296 90.265 0" fill="#fff"/>
           </g>
          </g>
         </g>
        </g>
       </g>
      </g>
     </g>
    </g>
   </g>
  </g>
  <g id="#000000ff" transform="matrix(1.0309 0 0 1.0309 605.81 -86.214)">
   <path id="path5" d="m652.87 171.28c10.06-3.22 21.12-4.26 31.42-1.58 6.19 1.5 10.48 6.99 11.93 12.98 9.15 36.15 18.13 72.34 27.31 108.48 8.71-33.82 17.3-67.66 25.93-101.5 1.48-6.8 3.57-14.5 10.18-18.07 9.25-4.95 20.29-3.55 30.23-1.93 1.61 0.55 4.75 0.17 4.53 2.68 4.45 44.58 8.85 89.18 13.27 133.77 0.57 7.57 1.87 15.1 1.97 22.69-6.28 2.04-13 2.97-19.53 1.75-3.96-0.85-7.14-4.25-7.44-8.32-3.75-42.53-6.93-85.12-10.91-127.63-9.81 37.5-19.84 74.94-29.73 112.41-1.19 5.55-5.51 10.24-11.11 11.45-7.44 1.49-15.29 0.99-22.57-1.04-1.15-2.07-1.45-4.47-2.13-6.7-10.67-38.82-21.32-77.65-32.01-116.47-4.02 42.87-7.62 85.79-11.63 128.66-0.36 4.39-4.39 7.42-8.53 7.94-5.89 0.56-12.06 0.26-17.43-2.47 5.54-52.36 10.71-104.75 16.25-157.1z"/>
   <path id="path7" d="m839.67 169.76c7.01-2.87 14.82-1.2 22.09-0.37-0.03 50.54 0.02 101.09-0.03 151.64 0.17 5.22-4.41 9.76-9.56 9.93-6.14 0.01-12.35 0.44-18.42-0.75 0.01-49.72-0.03-99.45 0.02-149.17-0.2-4.45 1.49-9.44 5.9-11.28z"/>
   <path id="path9" d="m245.79 171.77c3.07-2.7 7.38-3.04 11.28-3.04 13.63 0.07 27.27-0.04 40.9 0.05 15.6 0.6 31.92 4.92 43.54 15.86 10.3 9.47 15.63 23.5 15.76 37.35 0.46 13.51-3.8 27.35-12.84 37.55-7.58 8.7-18.17 14.42-29.29 17.18-14.62 3.67-29.8 1.75-44.69 2.37 0.1 13.94 0.06 27.9 0.02 41.85 0.21 5.6-4.98 10.22-10.42 10.07-5.86-0.08-11.77 0.38-17.55-0.78v-148.21c0.1-3.59 0.4-7.72 3.29-10.25m24.73 22.47c-0.04 20-0.02 40-0.01 60 14.4-0.51 29.75 1.98 43.21-4.47 7.36-3.51 12.75-10.66 14.14-18.69 1.71-9.2 0.43-19.65-6.03-26.84-6.22-6.93-15.84-9.49-24.84-9.94-8.82-0.13-17.65 0-26.47-0.06z"/>
   <path id="path11" d="m380.59 172.52c2.82-3.22 7.43-3.78 11.47-3.79 14.99 0.06 29.99-0.03 44.98 0.05 14.75 0.54 30.3 4.53 41.1 15.14 9.46 8.94 13.65 22.27 13.4 35.06 0.17 14.16-5.84 28.58-17.05 37.48-7.69 6.29-17.31 9.73-27.05 11.15 16.68 19.76 33.31 39.56 49.97 59.34-7.68 4.69-16.91 4.46-25.54 3.82-6.31-1.15-11.14-5.85-14.92-10.73-13.33-17.09-26.68-34.18-39.99-51.29-3.65 0-7.3 0-10.95 0.01-0.04 17.42 0.03 34.84-0.03 52.26 0.14 5.35-4.66 9.9-9.9 9.96-6.03-0.05-12.14 0.46-18.08-0.78 0-49.07 0.01-98.15-0.01-147.22 0.1-3.58 0.11-7.6 2.6-10.46m25.42 21.73c-0.01 16.83-0.02 33.67 0 50.5 12.28-0.41 24.74 1.08 36.87-1.4 8.04-1.63 16.14-6.4 18.95-14.51 2.75-8.09 2.53-17.87-2.58-25.01-5.16-6.88-14.16-9.05-22.31-9.52-10.31-0.15-20.62-0.01-30.93-0.06z"/>
   <path id="path13" d="m518.82 172.81c2.61-3.4 7.22-3.98 11.21-4.07 28.14 0.01 56.28 0.02 84.42 0 0.89 6.49 2.32 13.4-0.02 19.75-1.44 3.79-5.5 5.94-9.44 5.75-20.15 0.01-40.3 0.03-60.44-0.01-0.1 14.25-0.03 28.51-0.04 42.77 21.33 0.05 42.67-0.1 64 0.07 0.49 6.1 1.99 12.45-0.04 18.43-1.13 3.58-4.78 6.03-8.51 5.76-18.5 0-36.99-0.05-55.48 0.03 0.05 14.4 0 28.8 0.03 43.2 24.04 0 48.09 0.03 72.14-0.01 0.59 6.56 2.08 13.54-0.44 19.88-1.4 3.7-5.35 5.87-9.21 5.64-25.35 0-50.69-0.01-76.04 0.01-3.8-0.06-7.96-0.42-11.02-2.94-2.94-2.41-3.34-6.51-3.44-10.05-0.01-44.03 0.02-88.05-0.02-132.07 0.09-4.08-0.34-8.73 2.34-12.14z"/>
   <path id="path15" d="m893.25 172.33c2.69-2.95 6.97-3.52 10.76-3.59 28.14 0 56.29 0.02 84.43 0 0.95 6.24 2.24 12.83 0.3 19.02-1.23 4.12-5.52 6.74-9.74 6.48-20.17 0.05-40.34-0.04-60.52 0.05 0.05 14.23 0 28.47 0.03 42.71 21.29-0.02 42.59 0.05 63.89-0.04 0.79 6.15 2.06 12.63 0.06 18.68-1.15 3.52-4.79 5.83-8.44 5.62-18.5-0.02-37 0-55.5-0.01-0.03 14.41-0.02 28.83-0.01 43.24 24.05 0 48.09 0.04 72.14-0.02 0.7 6.76 2.32 14.04-0.65 20.47-1.54 3.41-5.29 5.21-8.91 5.06-25.35 0.01-50.7-0.01-76.04 0.01-3.86-0.1-8.11-0.43-11.18-3.01-3.05-2.75-3.33-7.17-3.38-11.01 0.01-44.34 0.01-88.67 0-133 0.08-3.66 0.12-7.8 2.76-10.66z"/>
   <path id="path17" d="m1018.8 171.68c3.08-2.63 7.34-2.97 11.23-2.95 14.66 0.06 29.32-0.01 43.99 0.03 15.24 0.46 31.33 4.71 42.3 15.87 10.58 10.76 14.11 26.78 12.17 41.41-1.53 12.75-8.4 24.93-19.03 32.27-7.22 5.15-15.85 8-24.57 9.24 16.53 19.92 33.39 39.56 49.92 59.49-7.87 4.54-17.16 4.45-25.92 3.67-6.7-1.43-11.58-6.73-15.56-11.96-13.01-16.67-25.95-33.39-39.04-50.01-3.57 0.02-7.13 0.02-10.68-0.01-0.19 17.38 0.09 34.76-0.14 52.13 0.04 5.11-4.17 9.7-9.26 10.06-6.22 0.1-12.5 0.44-18.65-0.65-0.04-49.75 0.02-99.5-0.03-149.25-0.04-3.34 0.61-7.06 3.27-9.34m24.77 22.56c-0.03 16.84-0.03 33.68 0 50.52 11.96-0.39 24.06 0.96 35.91-1.23 8.28-1.52 16.75-6.28 19.72-14.6 2.92-8.4 2.57-18.68-3.12-25.86-5.62-6.6-14.75-8.53-23.02-8.8-9.83-0.06-19.66 0.01-29.49-0.03z"/>
   <path id="path19" d="m1155.3 179.04c-0.1-4.94 3.72-9.22 8.59-9.84 6.96-0.97 14.03-0.22 21.04-0.45 22.72 0 45.43-0.01 68.15 0.01 0.84 6.62 2.43 13.76-0.26 20.16-1.54 3.86-5.91 5.52-9.81 5.34-19.92-0.01-39.83-0.01-59.75-0.01-0.01 14.25 0.01 28.49 0 42.74 21.25 0.02 42.51 0 63.77 0.01 0.69 6.02 1.89 12.3 0.13 18.24-0.97 3.57-4.47 6.08-8.14 5.99-18.59 0.05-37.17 0-55.76 0.02 0.02 14.43-0.05 28.85 0.04 43.27 23.97-0.04 47.95-0.02 71.93-0.01 0.65 6.65 2.24 13.77-0.55 20.16-1.41 3.37-5.04 5.38-8.62 5.31-25.35 0.06-50.71-0.02-76.06 0.03-3.61-0.07-7.47-0.28-10.6-2.27-3.19-2.03-4.28-6.07-4.16-9.65 0.07-46.35-0.05-92.7 0.06-139.05z"/>
  </g>
 </g>
</svg>
