<?xml version="1.0" encoding="UTF-8" standalone="no"?>
<!-- Created with Inkscape (http://www.inkscape.org/) -->

<svg
   xmlns:dc="http://purl.org/dc/elements/1.1/"
   xmlns:cc="http://creativecommons.org/ns#"
   xmlns:rdf="http://www.w3.org/1999/02/22-rdf-syntax-ns#"
   xmlns:svg="http://www.w3.org/2000/svg"
   xmlns="http://www.w3.org/2000/svg"
   xmlns:sodipodi="http://sodipodi.sourceforge.net/DTD/sodipodi-0.dtd"
   xmlns:inkscape="http://www.inkscape.org/namespaces/inkscape"
   width="2530.6089"
   height="778.66663"
   viewBox="0 0 2372.4458 729.99997"
   id="svg8519"
   version="1.1"
   inkscape:version="0.92.0 r15299"
   sodipodi:docname="Sky Cinema Monsters.svg">
  <defs
     id="defs8521">
    <clipPath
       clipPathUnits="userSpaceOnUse"
       id="clipPath1252">
      <path
         d="m 411.591,515.351 h 94.948 v 18.13 h -94.948 z"
         id="path1254"
         inkscape:connector-curvature="0" />
    </clipPath>
    <clipPath
       clipPathUnits="userSpaceOnUse"
       id="clipPath1288">
      <path
         d="m 412.392,532.67 h 93.284 v -15.246 h -93.284 z"
         id="path1290"
         inkscape:connector-curvature="0" />
    </clipPath>
    <clipPath
       clipPathUnits="userSpaceOnUse"
       id="clipPath1292">
      <path
         d="m 412.392,517.424 h 93.284 v 15.245 h -93.284 z"
         id="path1294"
         inkscape:connector-curvature="0" />
    </clipPath>
    <linearGradient
       x1="0"
       y1="0"
       x2="1"
       y2="0"
       gradientUnits="userSpaceOnUse"
       gradientTransform="matrix(0,17.057004,17.057004,0,474.76197,515.88703)"
       spreadMethod="pad"
       id="linearGradient1236">
      <stop
         style="stop-opacity:1;stop-color:#820021"
         offset="0"
         id="stop1238" />
      <stop
         style="stop-opacity:1;stop-color:#ae2c3f"
         offset="0.104411"
         id="stop1240" />
      <stop
         style="stop-opacity:1;stop-color:#ae2c3f"
         offset="0.901742"
         id="stop1242" />
      <stop
         style="stop-opacity:1;stop-color:#ba3c4c"
         offset="1"
         id="stop1244" />
    </linearGradient>
    <clipPath
       clipPathUnits="userSpaceOnUse"
       id="clipPath1202">
      <path
         d="m 411.591,515.351 h 94.948 v 18.13 h -94.948 z"
         id="path1204"
         inkscape:connector-curvature="0" />
    </clipPath>
    <clipPath
       clipPathUnits="userSpaceOnUse"
       id="clipPath1214">
      <path
         d="m 505.836,530.723 h 0.017 v -0.016 h -0.017 z"
         id="path1216"
         inkscape:connector-curvature="0" />
    </clipPath>
    <linearGradient
       x1="0"
       y1="0"
       x2="1"
       y2="0"
       gradientUnits="userSpaceOnUse"
       gradientTransform="matrix(0,-17.343138,17.343138,0,459.06457,533.09243)"
       spreadMethod="pad"
       id="linearGradient1178">
      <stop
         style="stop-opacity:1;stop-color:#868685"
         offset="0"
         id="stop1180" />
      <stop
         style="stop-opacity:1;stop-color:#d8d9d9"
         offset="0.020448"
         id="stop1182" />
      <stop
         style="stop-opacity:1;stop-color:#f5f5f5"
         offset="0.0524045"
         id="stop1184" />
      <stop
         style="stop-opacity:1;stop-color:#edeeee"
         offset="0.487663"
         id="stop1186" />
      <stop
         style="stop-opacity:1;stop-color:#f5f5f5"
         offset="0.895488"
         id="stop1188" />
      <stop
         style="stop-opacity:1;stop-color:#ebebec"
         offset="0.929442"
         id="stop1190" />
      <stop
         style="stop-opacity:1;stop-color:#d8d9d9"
         offset="0.964262"
         id="stop1192" />
      <stop
         style="stop-opacity:1;stop-color:#868685"
         offset="1"
         id="stop1194" />
    </linearGradient>
  </defs>
  <sodipodi:namedview
     id="base"
     pagecolor="#ffffff"
     bordercolor="#666666"
     borderopacity="1.0"
     inkscape:pageopacity="0.0"
     inkscape:pageshadow="2"
     inkscape:zoom="0.35"
     inkscape:cx="597.49429"
     inkscape:cy="208.86796"
     inkscape:document-units="px"
     inkscape:current-layer="layer1"
     showgrid="false"
     fit-margin-top="0"
     fit-margin-left="0"
     fit-margin-right="0"
     fit-margin-bottom="0"
     inkscape:window-width="1920"
     inkscape:window-height="1017"
     inkscape:window-x="-8"
     inkscape:window-y="-8"
     inkscape:window-maximized="1"
     units="px" />
  <metadata
     id="metadata8524">
    <rdf:RDF>
      <cc:Work
         rdf:about="">
        <dc:format>image/svg+xml</dc:format>
        <dc:type
           rdf:resource="http://purl.org/dc/dcmitype/StillImage" />
        <dc:title></dc:title>
      </cc:Work>
    </rdf:RDF>
  </metadata>
  <g
     inkscape:label="Layer 1"
     inkscape:groupmode="layer"
     id="layer1"
     transform="translate(-192.08646,474.87828)">
    <g
       id="g4201"
       transform="matrix(19.98952,0,0,19.98952,-3647.627,-5121.6388)">
      <g
         id="g1166"
         transform="matrix(1.25,0,0,-1.25,-322.40243,899.31046)">
        <g
           id="g1168">
          <g
             id="g1174">
            <g
               id="g1176">
              <path
                 inkscape:connector-curvature="0"
                 id="path1196"
                 style="fill:url(#linearGradient1178);stroke:none"
                 d="m 414.085,532.944 c -1.345,0 -1.823,-0.794 -1.823,-2.114 v 0 -12.829 c 0,-1.32 0.478,-2.114 1.823,-2.114 v 0 h 89.96 c 1.345,0 1.822,0.794 1.822,2.114 v 0 12.829 c 0,1.32 -0.477,2.114 -1.822,2.114 v 0 z" />
            </g>
          </g>
        </g>
      </g>
      <g
         id="g1198"
         transform="matrix(1.25,0,0,-1.25,-322.40243,899.31046)">
        <g
           clip-path="url(#clipPath1202)"
           id="g1200">
          <g
             transform="translate(503.9336,515.3505)"
             id="g1206">
            <path
               inkscape:connector-curvature="0"
               id="path1208"
               style="fill:#a1a2a2;fill-opacity:1;fill-rule:nonzero;stroke:none"
               d="M 0,0 C 1.996,0 2.605,1.241 2.605,2.482 V 15.648 C 2.605,16.889 1.996,18.13 0,18.13 h -89.738 c -1.997,0 -2.605,-1.241 -2.605,-2.482 V 2.482 C -92.343,1.241 -91.735,0 -89.738,0 Z m -89.646,0.167 c -1.344,0 -2.254,0.793 -2.254,2.114 v 13.568 c 0,1.321 0.91,2.114 2.254,2.114 h 89.554 c 1.344,0 2.254,-0.793 2.254,-2.114 V 2.281 c 0,-1.321 -0.91,-2.114 -2.254,-2.114 z" />
          </g>
          <g
             id="g1210">
            <g
               id="g1212" />
            <g
               id="g1218">
              <g
                 style="opacity:0.80000299"
                 id="g1220"
                 clip-path="url(#clipPath1214)">
                <g
                   id="g1222" />
              </g>
            </g>
          </g>
        </g>
      </g>
      <g
         id="g1224"
         transform="matrix(1.25,0,0,-1.25,-322.40243,899.31046)">
        <g
           id="g1226">
          <g
             id="g1232">
            <g
               id="g1234">
              <path
                 inkscape:connector-curvature="0"
                 id="path1246"
                 style="fill:url(#linearGradient1236);stroke:none"
                 d="m 443.657,532.944 v -17.057 h 60.388 c 1.345,0 1.822,0.794 1.822,2.114 v 0 12.829 c 0,1.32 -0.477,2.114 -1.822,2.114 v 0 z" />
            </g>
          </g>
        </g>
      </g>
      <g
         id="g1248"
         transform="matrix(1.25,0,0,-1.25,-322.40243,899.31046)">
        <g
           clip-path="url(#clipPath1252)"
           id="g1250">
          <g
             transform="translate(452.075,519.0374)"
             id="g1256">
            <path
               inkscape:connector-curvature="0"
               id="path1258"
               style="fill:#ffffff;fill-opacity:1;fill-rule:nonzero;stroke:none"
               d="m 0,0 c -0.756,0 -1.454,0.136 -2.093,0.408 -0.639,0.273 -1.192,0.649 -1.661,1.129 -0.469,0.481 -0.836,1.052 -1.102,1.714 -0.266,0.662 -0.4,1.377 -0.4,2.146 0,0.747 0.134,1.446 0.4,2.098 0.266,0.651 0.633,1.217 1.102,1.697 0.469,0.481 1.022,0.857 1.661,1.129 0.639,0.273 1.337,0.409 2.093,0.409 0.543,0 1.07,-0.059 1.581,-0.176 C 2.093,10.436 2.566,10.286 3.003,10.105 3.099,8.685 2.753,7.975 1.965,7.975 1.826,7.975 1.699,7.991 1.581,8.023 1.464,8.055 1.336,8.087 1.198,8.119 1.059,8.151 0.905,8.183 0.735,8.215 0.564,8.247 0.362,8.264 0.128,8.264 -0.245,8.264 -0.596,8.197 -0.927,8.063 -1.257,7.93 -1.541,7.737 -1.781,7.487 -2.021,7.236 -2.21,6.934 -2.348,6.582 -2.487,6.23 -2.556,5.834 -2.556,5.397 c 0,-0.46 0.069,-0.871 0.208,-1.233 0.138,-0.363 0.327,-0.67 0.567,-0.921 0.24,-0.251 0.524,-0.443 0.854,-0.577 0.331,-0.133 0.682,-0.2 1.055,-0.2 0.234,0 0.442,0.016 0.623,0.048 0.181,0.032 0.343,0.064 0.487,0.096 0.144,0.032 0.28,0.064 0.407,0.096 0.128,0.032 0.261,0.048 0.4,0.048 0.777,0 1.123,-0.71 1.038,-2.13 C 2.646,0.443 2.159,0.293 1.621,0.176 1.083,0.059 0.543,0 0,0" />
          </g>
          <g
             transform="translate(457.5874,519.1654)"
             id="g1260">
            <path
               inkscape:connector-curvature="0"
               id="path1262"
               style="fill:#ffffff;fill-opacity:1;fill-rule:nonzero;stroke:none"
               d="m 0,0 c -0.224,0 -0.445,0.011 -0.663,0.032 -0.218,0.021 -0.402,0.048 -0.551,0.08 v 9.273 c 0,0.309 0.096,0.573 0.287,0.792 0.192,0.219 0.554,0.329 1.087,0.329 0.223,0 0.444,-0.011 0.663,-0.033 0.218,-0.021 0.402,-0.048 0.551,-0.08 V 1.121 C 1.374,0.811 1.278,0.547 1.086,0.328 0.895,0.109 0.532,0 0,0" />
          </g>
          <g
             transform="translate(461.9564,519.1654)"
             id="g1264">
            <path
               inkscape:connector-curvature="0"
               id="path1266"
               style="fill:#ffffff;fill-opacity:1;fill-rule:nonzero;stroke:none"
               d="m 0,0 c -0.213,0 -0.421,0.011 -0.623,0.032 -0.203,0.021 -0.373,0.048 -0.511,0.08 v 10.201 c 0.159,0.054 0.367,0.099 0.623,0.137 0.255,0.037 0.473,0.056 0.655,0.056 0.585,0 1.011,-0.075 1.278,-0.225 C 1.688,10.132 1.911,9.913 2.093,9.625 L 5.719,3.908 v 5.573 c 0,0.138 0.018,0.269 0.056,0.392 0.037,0.123 0.101,0.232 0.191,0.328 0.091,0.096 0.216,0.171 0.376,0.224 0.159,0.054 0.362,0.081 0.607,0.081 0.213,0 0.418,-0.011 0.615,-0.033 0.197,-0.021 0.364,-0.042 0.503,-0.063 V 0.192 C 7.918,0.117 7.737,0.067 7.524,0.04 7.311,0.013 7.103,0 6.901,0 6.4,0 6.027,0.069 5.783,0.208 5.537,0.347 5.335,0.539 5.176,0.785 L 1.294,6.999 V 1.057 C 1.294,0.758 1.203,0.507 1.022,0.304 0.841,0.101 0.5,0 0,0" />
          </g>
          <g
             transform="translate(473.3041,519.2296)"
             id="g1268">
            <path
               inkscape:connector-curvature="0"
               id="path1270"
               style="fill:#ffffff;fill-opacity:1;fill-rule:nonzero;stroke:none"
               d="m 0,0 c -0.298,0 -0.541,0.032 -0.727,0.096 -0.186,0.064 -0.33,0.152 -0.431,0.264 -0.102,0.112 -0.171,0.248 -0.208,0.409 -0.037,0.16 -0.056,0.33 -0.056,0.512 v 7.847 c 0,0.182 0.019,0.353 0.056,0.513 0.037,0.16 0.106,0.296 0.208,0.408 0.101,0.112 0.245,0.2 0.431,0.264 0.186,0.064 0.429,0.096 0.727,0.096 H 5.287 C 5.309,10.292 5.33,10.132 5.351,9.929 5.373,9.726 5.383,9.518 5.383,9.305 5.383,8.856 5.293,8.538 5.112,8.352 4.93,8.165 4.702,8.071 4.425,8.071 H 1.166 V 6.246 H 4.92 C 4.941,6.139 4.963,5.997 4.984,5.821 5.005,5.645 5.016,5.455 5.016,5.253 5.016,4.826 4.93,4.535 4.76,4.38 4.59,4.225 4.377,4.148 4.121,4.148 H 1.166 V 2.338 H 5.447 C 5.468,2.22 5.49,2.058 5.511,1.85 5.532,1.641 5.543,1.436 5.543,1.233 5.543,0.774 5.452,0.454 5.271,0.272 5.09,0.091 4.861,0 4.585,0 Z" />
          </g>
          <g
             transform="translate(480.983,519.1654)"
             id="g1272">
            <path
               inkscape:connector-curvature="0"
               id="path1274"
               style="fill:#ffffff;fill-opacity:1;fill-rule:nonzero;stroke:none"
               d="M 0,0 C -0.245,0 -0.461,0.024 -0.647,0.072 -0.834,0.12 -0.996,0.176 -1.134,0.24 l 0.976,9.977 c 0.203,0.086 0.469,0.155 0.799,0.208 0.33,0.054 0.612,0.081 0.846,0.081 0.33,0 0.615,-0.022 0.854,-0.065 0.24,-0.042 0.445,-0.114 0.615,-0.216 C 3.126,10.124 3.262,9.982 3.363,9.801 3.464,9.619 3.541,9.395 3.595,9.128 L 4.01,7.191 C 4.127,6.657 4.252,6.067 4.385,5.421 4.518,4.775 4.638,4.11 4.744,3.427 H 4.808 C 4.925,4.11 5.047,4.772 5.175,5.413 5.303,6.054 5.436,6.641 5.574,7.174 l 0.51,2.034 c 0.128,0.502 0.332,0.844 0.614,1.025 0.282,0.182 0.721,0.273 1.316,0.273 0.298,0 0.598,-0.025 0.901,-0.073 0.303,-0.048 0.556,-0.098 0.758,-0.152 L 10.607,0.24 C 10.458,0.187 10.279,0.133 10.072,0.08 9.864,0.027 9.638,0 9.393,0 9.052,0 8.764,0.059 8.53,0.176 8.296,0.294 8.168,0.513 8.147,0.833 L 7.907,4.292 C 7.854,4.901 7.809,5.538 7.771,6.206 7.734,6.873 7.71,7.505 7.699,8.104 H 7.667 C 7.529,7.548 7.388,6.948 7.244,6.302 7.1,5.656 6.954,5.061 6.805,4.516 L 6.15,1.794 C 5.99,1.153 5.484,0.833 4.632,0.833 4.419,0.833 4.201,0.854 3.977,0.897 3.754,0.939 3.562,0.987 3.402,1.041 L 2.588,4.436 C 2.428,5.066 2.279,5.685 2.141,6.294 2.002,6.902 1.874,7.511 1.757,8.119 H 1.709 C 1.677,7.265 1.635,6.483 1.581,5.773 1.528,5.063 1.48,4.452 1.438,3.94 L 1.182,0.817 C 1.161,0.507 1.044,0.294 0.831,0.176 0.617,0.059 0.341,0 0,0" />
          </g>
          <g
             transform="translate(496.0557,523.5375)"
             id="g1276">
            <path
               inkscape:connector-curvature="0"
               id="path1278"
               style="fill:#ffffff;fill-opacity:1;fill-rule:nonzero;stroke:none"
               d="M 0,0 H 2.39 L 1.198,3.923 Z m -2.492,-4.404 c -0.202,0 -0.434,0.019 -0.694,0.056 -0.262,0.037 -0.477,0.088 -0.647,0.152 L -0.519,5.957 C -0.231,6.032 0.06,6.086 0.354,6.118 0.648,6.15 0.917,6.166 1.163,6.166 1.515,6.166 1.817,6.139 2.068,6.086 2.319,6.032 2.53,5.952 2.701,5.845 2.872,5.738 3.013,5.597 3.125,5.421 3.237,5.245 3.331,5.039 3.406,4.804 L 6.246,-4.18 C 6.065,-4.255 5.847,-4.311 5.591,-4.348 5.336,-4.385 5.085,-4.404 4.841,-4.404 c -0.278,0 -0.546,0.045 -0.807,0.136 -0.261,0.091 -0.45,0.296 -0.567,0.617 L 2.923,-2.002 H -0.561 L -1.022,-3.555 C -1.139,-3.929 -1.336,-4.164 -1.613,-4.26 -1.89,-4.356 -2.183,-4.404 -2.492,-4.404" />
          </g>
          <g
             transform="translate(423.1164,522.7819)"
             id="g1280">
            <path
               inkscape:connector-curvature="0"
               id="path1282"
               style="fill:#ae2c3f;fill-opacity:1;fill-rule:nonzero;stroke:none"
               d="m 0,0 c 0,-1.46 -0.955,-2.527 -2.894,-2.738 -1.404,-0.15 -3.438,0.027 -4.404,0.138 -0.036,0.158 -0.064,0.354 -0.064,0.508 0,1.278 0.691,1.569 1.338,1.569 0.672,0 1.73,-0.116 2.518,-0.116 0.865,0 1.129,0.294 1.129,0.573 0,0.367 -0.349,0.52 -1.021,0.648 l -1.839,0.354 c -1.531,0.293 -2.348,1.352 -2.348,2.476 0,1.366 0.967,2.509 2.868,2.72 1.438,0.155 3.187,-0.02 4.148,-0.138 0.035,-0.165 0.053,-0.321 0.053,-0.492 0,-1.274 -0.671,-1.549 -1.319,-1.549 -0.497,0 -1.269,0.093 -2.15,0.093 -0.897,0 -1.269,-0.248 -1.269,-0.55 0,-0.319 0.355,-0.451 0.916,-0.549 L -2.58,2.621 C -0.774,2.288 0,1.262 0,0 m 3.155,-1.568 c 0,-0.783 -0.307,-1.235 -1.836,-1.235 -0.203,0 -0.38,0.015 -0.55,0.04 v 10.39 c 0,0.789 0.269,1.612 1.813,1.612 0.194,0 0.391,-0.02 0.573,-0.058 z m 6.25,-4.019 c 0.2,-0.103 0.612,-0.227 1.131,-0.241 0.886,-0.019 1.371,0.321 1.73,1.116 L 17.03,5.914 C 16.833,6.02 16.399,6.137 16.042,6.145 15.43,6.156 14.608,6.031 14.082,4.778 L 12.539,1.137 9.514,6.064 C 9.319,6.124 8.843,6.21 8.493,6.21 7.426,6.21 6.828,5.816 6.209,5.144 L 3.268,1.927 5.634,-1.796 c 0.437,-0.678 1.013,-1.024 1.949,-1.024 0.612,0 1.121,0.139 1.357,0.252 l -2.848,4.295 2.019,2.139 3.311,-5.197 z" />
          </g>
          <g
             id="g1284">
            <g
               id="g1286" />
            <g
               id="g1296">
              <g
                 style="opacity:0.39999402"
                 id="g1298"
                 clip-path="url(#clipPath1288)">
                <g
                   id="g1300">
                  <g
                     id="g1302">
                    <g
                       id="g1304"
                       clip-path="url(#clipPath1292)">
                      <g
                         id="g1306"
                         transform="translate(504.1664,519.8869)">
                        <path
                           inkscape:connector-curvature="0"
                           id="path1308"
                           style="fill:#ffffff;fill-opacity:1;fill-rule:nonzero;stroke:none"
                           d="m 0,0 c 1.156,-1.145 1.313,-2.225 1.354,-2.463 0.114,0 0.156,0.506 0.156,1.261 L 1.506,10.907 c 0,1.402 -0.456,1.876 -1.644,1.876 -0.402,0 -0.804,-0.216 -1.339,-0.216 h -87.31 c -0.536,0 -0.938,0.216 -1.34,0.216 -1.187,0 -1.643,-0.474 -1.643,-1.876 l -0.004,-12.109 c 0,-0.755 0.041,-1.261 0.155,-1.261 0.041,0.238 0.076,1.402 1.354,2.463 C -80.057,7.878 -11.006,10.296 0,0" />
                      </g>
                    </g>
                  </g>
                </g>
              </g>
            </g>
          </g>
        </g>
      </g>
    </g>
    <g
       id="#000000ff"
       transform="matrix(1.0031441,0,0,1.0031441,625.86041,45.435088)"
       style="fill:#ffffff;fill-opacity:1">
      <path
         d="m 414.53,42.7 c 17.99,-2.87 37.14,-0.46 53.12,8.59 15.75,8.54 27.85,23.09 34.33,39.72 11.46,29.46 7.11,65.18 -12.99,89.93 -11.53,14.47 -28.65,24.32 -46.95,27.08 -17.43,2.63 -35.92,0.23 -51.4,-8.49 -16.01,-8.69 -28.13,-23.58 -34.83,-40.39 -11.19,-28.26 -8.01,-62.5 10.29,-87.12 11.51,-15.58 29.33,-26.23 48.43,-29.32 m 3.88,24.88 c -13.19,2.98 -24.53,12.08 -31.22,23.71 -8.83,14.81 -10.6,33.06 -7.02,49.73 3.16,14.33 11.28,27.99 23.87,35.92 11.51,7.55 26.59,9.36 39.52,4.58 12.04,-4.48 22.01,-13.83 27.94,-25.16 8.1,-15.27 9.57,-33.65 5.1,-50.25 -3.61,-13.34 -11.83,-25.7 -23.8,-32.9 -10.12,-6.37 -22.77,-8.27 -34.39,-5.63 z"
         id="path2"
         inkscape:connector-curvature="0"
         style="opacity:1;fill:#ffffff;fill-opacity:1" />
      <path
         d="m 704.4,57.39 c 10.17,-9.27 24.01,-13.57 37.56,-14.32 20.26,-1.26 40.59,2.48 59.68,9.15 0.02,6.05 0.13,12.75 -3.67,17.83 -3.31,4.16 -9.26,3.94 -13.98,3.01 -14.75,-3.01 -29.89,-6.03 -44.98,-3.98 -5.75,0.89 -11.66,2.85 -15.8,7.12 -6.35,6.37 -5.97,18.63 1.72,23.79 7.75,5.04 16.96,6.93 25.69,9.57 14.09,4.25 29.11,6.97 41.35,15.66 8.98,6.14 15.65,15.87 17.06,26.76 1.68,12.79 -0.62,26.81 -8.97,37 -9.21,11.14 -23.65,16.39 -37.61,18.16 -23.91,2.84 -48.1,-1.61 -70.81,-9.04 -0.47,-6.48 -0.12,-13.89 4.47,-18.96 4.25,-4.14 10.72,-2.98 15.96,-1.87 15.67,3.65 31.87,7.03 48,4.61 6.39,-0.92 12.98,-3.48 16.9,-8.87 5.63,-7.21 5.69,-19.23 -1.83,-25.17 -6.55,-5.08 -14.88,-6.82 -22.63,-9.21 C 736.73,134 719.62,131.04 706.52,120.36 688.07,105.2 686.9,73.69 704.4,57.39 Z"
         id="path4"
         inkscape:connector-curvature="0"
         style="opacity:1;fill:#ffffff;fill-opacity:1" />
      <path
         d="m 1229.49,63.44 c 8.39,-11.77 22.72,-17.88 36.68,-19.76 22.23,-2.7 44.81,1.24 65.83,8.53 0.03,6.09 0.16,12.87 -3.76,17.95 -3.16,3.88 -8.75,3.83 -13.25,3.01 -14.42,-2.91 -29.14,-5.93 -43.92,-4.32 -6.38,0.75 -13.07,2.72 -17.63,7.49 -6.34,6.53 -5.72,18.99 2.28,23.93 7.98,4.99 17.35,6.87 26.25,9.57 11.35,3.45 23.21,5.75 33.78,11.38 7.83,4.06 14.97,9.95 19.28,17.75 3.94,6.96 5.21,15.14 4.84,23.05 -0.42,10.66 -3.91,21.6 -11.54,29.32 -9.61,9.88 -23.39,14.43 -36.8,15.96 -23.51,2.51 -47.22,-1.9 -69.52,-9.2 -0.47,-6.22 -0.11,-13.11 3.82,-18.26 3.43,-4.25 9.49,-3.98 14.35,-3.02 12.16,2.57 24.34,5.74 36.86,5.82 8.66,0.08 18,-0.25 25.53,-5.07 7.95,-5.2 11.2,-16.47 6.88,-24.99 -3.29,-6.06 -10.12,-8.74 -16.3,-10.83 -11.9,-3.99 -24.24,-6.52 -36.11,-10.62 -10.02,-3.6 -20.15,-8.69 -26.49,-17.56 -10.7,-14.32 -10.89,-35.34 -1.06,-50.13 z"
         id="path6"
         inkscape:connector-curvature="0"
         style="opacity:1;fill:#ffffff;fill-opacity:1" />
      <path
         d="m 176.63,47.28 c 10.07,-3.5 21.34,-4.42 31.69,-1.57 5.82,1.52 10.06,6.62 11.38,12.38 9.23,36.17 18.25,72.4 27.52,108.56 9.54,-36.13 18.57,-72.39 28.04,-108.53 1.54,-5.93 6.21,-10.88 12.14,-12.51 9.95,-2.88 20.56,-1.37 30.48,0.84 5.29,52.62 10.38,105.26 15.59,157.89 -7.1,2.7 -15.4,4.09 -22.55,0.87 -3.15,-1.36 -4.42,-4.89 -4.59,-8.08 -3.51,-42.23 -6.95,-84.47 -10.51,-126.7 -9.69,36.1 -19.39,72.2 -29.06,108.3 -1.25,5.47 -3.18,11.79 -8.8,14.23 -8.26,3.44 -17.7,2.37 -26.17,0.26 -11.36,-40.93 -22.72,-81.87 -34.12,-122.79 -3.86,42.16 -7.63,84.33 -11.45,126.5 -0.16,3.1 -1.24,6.56 -4.21,8.06 -6.8,3.44 -14.97,2.19 -21.76,-0.63 5.44,-52.36 11,-104.71 16.38,-157.08 z"
         id="path8"
         inkscape:connector-curvature="0"
         style="opacity:1;fill:#ffffff;fill-opacity:1" />
      <path
         d="m 532.45,46.4 c 7.59,-2.6 15.87,-2.92 23.75,-1.6 5.73,0.92 10.12,5.28 13.09,10.01 23.92,36.96 47.83,73.93 71.77,110.88 -0.48,-36.87 -1.03,-73.74 -1.46,-110.62 -0.2,-4.5 2.58,-9.28 7.16,-10.33 6.13,-1.41 12.53,-0.47 18.67,0.48 0.03,53.29 -0.01,106.58 0.02,159.87 -6.78,2.39 -14.17,2.71 -21.22,1.56 -5.37,-0.87 -9.74,-4.7 -12.59,-9.16 C 606.85,158.9 582.1,120.29 557.3,81.7 c 0.44,38.11 1.01,76.21 1.45,114.31 0.31,4.64 -2.45,9.67 -7.27,10.61 -6.27,1.28 -12.76,0.57 -19.04,-0.25 0,-53.33 -0.02,-106.65 0.01,-159.97 z"
         id="path10"
         inkscape:connector-curvature="0"
         style="opacity:1;fill:#ffffff;fill-opacity:1" />
      <path
         d="m 818.73,50.7 c 1.15,-4.42 6.13,-6.18 10.26,-6.12 38.84,-0.05 77.67,0 116.51,-0.02 0.88,6.39 1.84,13.23 -0.47,19.43 -1.53,4.01 -5.91,6.09 -10.03,5.88 -12.89,0.03 -25.79,-0.01 -38.68,0.02 0,41.04 -0.04,82.09 0.02,123.14 0.45,5.01 -1.14,11.09 -6.32,13.02 -6.91,2.32 -14.39,0.95 -21.44,0.12 -0.19,-45.42 -0.02,-90.86 -0.09,-136.29 -16.56,-0.01 -33.12,0 -49.68,0 -0.86,-6.32 -1.67,-12.92 -0.08,-19.18 z"
         id="path12"
         inkscape:connector-curvature="0"
         style="opacity:1;fill:#ffffff;fill-opacity:1" />
      <path
         d="m 965.94,47.06 c 2.83,-2.16 6.56,-2.4 9.99,-2.5 28.07,0 56.15,0 84.22,0 0.95,6.05 1.9,12.36 0.45,18.41 -1.03,4.2 -5.33,6.93 -9.53,6.87 -20.31,0.1 -40.63,0 -60.94,0.04 -0.01,14.37 0,28.74 -0.01,43.11 21.34,0.02 42.68,0 64.02,0.02 0.67,5.82 1.73,11.83 0.27,17.61 -0.99,4.15 -5.3,6.67 -9.39,6.48 -18.3,0.07 -36.6,0 -54.89,0.03 -0.01,14.43 -0.01,28.87 0,43.3 24.06,0.01 48.13,0 72.19,0.01 0.71,6.17 1.83,12.59 0.07,18.68 -1.16,4.03 -5.22,6.77 -9.35,6.67 -25.36,0.06 -50.71,0.01 -76.07,0.02 -3.81,-0.1 -8.06,-0.16 -11.17,-2.65 -2.98,-2.85 -3.53,-7.25 -3.49,-11.16 0.01,-44.68 -0.01,-89.37 0,-134.05 -0.01,-3.85 0.65,-8.16 3.63,-10.89 z"
         id="path14"
         inkscape:connector-curvature="0"
         style="opacity:1;fill:#ffffff;fill-opacity:1" />
      <path
         d="m 1091.64,47.64 c 2.69,-2.68 6.78,-2.93 10.37,-3.07 14.66,-0.01 29.32,-0.03 43.97,0.01 13.89,0.25 28.42,3.33 39.46,12.22 8.4,6.61 13.98,16.48 15.7,27 2.38,13.53 0.19,28.24 -7.97,39.53 -8.07,11.59 -21.63,18.45 -35.48,20.01 16.72,19.83 33.44,39.67 50.11,59.54 -8.23,4.28 -18.01,5.57 -27.02,3.32 -5.98,-1.65 -10.22,-6.53 -13.9,-11.22 -13.06,-16.8 -26.19,-33.55 -39.21,-50.38 -3.75,-0.05 -7.49,-0.05 -11.22,-0.03 -0.04,17.15 0.03,34.3 -0.03,51.45 0.1,4.79 -3.11,9.65 -7.96,10.6 -6.55,1.34 -13.31,0.48 -19.84,-0.52 -0.01,-48.37 0.02,-96.73 -0.01,-145.1 -0.04,-4.56 -0.17,-9.71 3.03,-13.36 m 24.8,22.27 c 0,16.92 -0.01,33.85 0,50.77 5.85,0.01 11.71,0 17.57,0.01 9.06,0.02 18.51,0.03 26.93,-3.79 7.06,-3.12 11.92,-10.23 12.88,-17.82 1.14,-7.87 -0.35,-16.84 -6.47,-22.42 -6.06,-5.42 -14.6,-6.55 -22.42,-6.74 -9.5,-0.08 -19,-0.05 -28.49,-0.01 z"
         id="path16"
         inkscape:connector-curvature="0"
         style="opacity:1;fill:#ffffff;fill-opacity:1" />
    </g>
  </g>
</svg>
