<svg height="666.66235" viewBox="0 0 4277.4157 666.66034" width="4277.347700000001" xmlns="http://www.w3.org/2000/svg"><g stroke-width="5.5556"><path d="m1109.401-.00134258h3123.526700000001c24.444 0 44.444 20.00000058 44.444 44.44400058v577.780002c0 24.444-20 44.444-44.444 44.444h-3123.5267z" fill="#003264"/><path d="m43.89-.00231258c-24.444 0-43.889 20.55700058-43.889 43.89100058v578.330002c0 24.444 20.001 44.445 44.445 44.445h1065v-666.67000258z" fill="#fff"/><path d="m506.671 64.442688c-55 0-64.443 28.889-64.443 57.223002v370c6.1111 1.1111 12.221 1.666 19.443 1.666 54.444 0 65.557-16.111 65.557-43.889v-382.780002c-6.6667-1.6667-13.89-2.2227-20.557-2.2227zm210.56 108.330002c-37.778 0-59.444 13.888-81.666 37.777l-104.45 114.45 84.445 132.78c15.556 24.444 36.11 36.666 69.443 36.666 21.667 0 40.001-4.9998 48.334-8.8887l-101.67-153.33 72.221-76.111 118.33 185.56-72.223 151.11c7.2222 3.8889 21.668 8.334 40.557 8.334 31.667.5555 48.888-11.667 61.666-40l170-378.89c-7.2222-3.889-22.778-7.7765-35-8.3321-21.667-.5555-51.111 3.8886-70 48.889l-55 130-108.33-175c-7.2223-2.2222-23.888-5-36.666-5zm-426.84.01c-14.891.047-29.739.6937-43.715 2.2129-67.778 7.7777-102.22 48.332-102.22 97.221 0 40 28.888 77.778 83.332 88.334l65 11.666c24.444 5 36.668 10.001 36.668 23.334 0 10-8.8889 20.555-40 20.555-28.333 0-66.111-3.8887-90-3.8887-23.333 0-47.779 10.556-47.779 56.111 0 5.5556 1.1116 12.778 2.2227 18.334 34.444 3.8889 107.22 10.556 157.22 5 69.444-7.7778 103.33-45.555 103.33-97.777 0-45-27.224-81.666-91.668-93.889l-62.777-11.668c-20-3.3334-32.777-8.3322-32.777-19.443 0-10.556 12.778-19.445 45-19.445 31.667 0 58.888 3.3339 76.666 3.3339 23.333 0 47.223-9.4445 47.223-55 0-6.1112-.5549-11.666-1.666-17.777-23.299-3.0556-60.252-6.8989-97.682-7.1973-2.1267-.017-4.2555-.022-6.3828-.016z" fill="#003264"/></g><g fill="#fff"><path d="m634.8 55v32.9c-.9.2-2.4.4-3.8.4-3 0-4.3-1.1-4.3-3.1v-3.9h-.1c-3.9 4-9.9 7.7-18.1 7.7-11.5 0-17.7-7.6-17.7-15.9 0-12.2 13.2-17.9 35.8-16.4v-1.3c0-8.1-2.6-12.5-12.5-12.5-5.3 0-9.7 1.1-12.8 1.9-1.5.4-2.7.8-3.6.8-2.3 0-3.7-2.3-3.1-6.6 4.9-1.9 12.4-3.7 19.7-3.7 15-.1 20.5 7.5 20.5 19.7zm-8.2 17.8v-9.7c-14.7-.6-27.5 1-27.5 10.2 0 4.5 3.9 8.5 10.5 8.5 6.7 0 13-3.7 17-9z" transform="matrix(6.0062435 0 0 6.0062435 -2305.2769 -39.704441)"/><path d="m634.8 55v32.9c-.9.2-2.4.4-3.8.4-3 0-4.3-1.1-4.3-3.1v-3.9h-.1c-3.9 4-9.9 7.7-18.1 7.7-11.5 0-17.7-7.6-17.7-15.9 0-12.2 13.2-17.9 35.8-16.4v-1.3c0-8.1-2.6-12.5-12.5-12.5-5.3 0-9.7 1.1-12.8 1.9-1.5.4-2.7.8-3.6.8-2.3 0-3.7-2.3-3.1-6.6 4.9-1.9 12.4-3.7 19.7-3.7 15-.1 20.5 7.5 20.5 19.7zm-8.2 17.8v-9.7c-14.7-.6-27.5 1-27.5 10.2 0 4.5 3.9 8.5 10.5 8.5 6.7 0 13-3.7 17-9z" transform="matrix(6.0062435 0 0 6.0062435 -1585.3929 -39.72583)"/><path d="m787.3 87.4c-4.5 2.2-9.7 3.6-15 3.6-10.3 0-16.6-6.1-16.6-16.1v-46.2c0-2.1 1.2-3.4 4.8-3.4 1.5 0 3.2.3 4 .7v12.2h20.5c.1.8.3 2.3.3 3.6 0 3.1-1.2 4.2-3.2 4.2h-17.6v28.1c0 6.1 2.9 8.9 8.8 8.9 5.2 0 8.3-2.2 10.8-2.2s3.7 2.3 3.2 6.6" transform="matrix(5.9741589 0 0 5.9741589 -2927.6685 -48.888)"/><path d="m937.1 89.7v-66.8c0-2.1 1.2-3.3 4.8-3.3 1.5 0 3.1.3 4 .5v66.7c0 2.2-1.1 3.3-4.6 3.3-1.6 0-3.3-.2-4.2-.4" transform="matrix(6.210808 0 0 6.210808 -3977.4771 -68.803319)"/><path d="m787.3 87.4c-4.5 2.2-9.7 3.6-15 3.6-10.3 0-16.6-6.1-16.6-16.1v-46.2c0-2.1 1.2-3.4 4.8-3.4 1.5 0 3.2.3 4 .7v12.2h20.5c.1.8.3 2.3.3 3.6 0 3.1-1.2 4.2-3.2 4.2h-17.6v28.1c0 6.1 2.9 8.9 8.8 8.9 5.2 0 8.3-2.2 10.8-2.2s3.7 2.3 3.2 6.6" transform="matrix(5.9741589 0 0 5.9741589 -1866.6619 -48.842841)"/><path d="m754 87.8v-51.7c.9-.2 2.6-.4 4.2-.4 3.4 0 4.4 1.4 4.4 3.5v3.8c4-4.4 9.9-7.9 17.5-7.9 10.6 0 19.4 6.7 19.4 22.1v27.7c0 2.1-1.2 3.4-4.8 3.4-1.5 0-3.2-.2-4.1-.4v-29.6c0-10.4-5.1-15.4-12.8-15.4-6.1 0-12.5 4.1-15.2 9v32.9c0 2.1-1.1 3.4-4.7 3.4-1.3 0-3.1-.2-3.9-.4z" transform="matrix(5.9871253 0 0 5.9871253 -2205.6173 -37.863059)"/><path d="m730.4 21.9c0-3.2 2.6-5.6 5.7-5.6s5.6 2.4 5.6 5.6c0 2.9-2.5 5.6-5.6 5.6-3.1.1-5.7-2.6-5.7-5.6zm1.2 65.9v-48.7c0-2.1 1.2-3.4 4.8-3.4 1.5 0 3.2.2 4.1.4v48.7c0 2.2-1.2 3.400058-4.8 3.400058-1.5 0-3.2-.200058-4.1-.400058z" transform="matrix(5.980721 0 0 5.980721 -1472.8994 -36.698087)"/><path d="m644.8 61.9c0-15.4 11.5-26.8 26.4-26.8 6.6 0 12.2 1.7 16.8 3.9.5 4.9-1.2 6.6-3.5 6.6-2.7 0-6.2-2.7-13.3-2.7-9.3 0-17.4 7.3-17.4 19.1s8.1 19.2 17.4 19.2c7.1 0 10.6-2.7 13.3-2.7 2.3 0 4 1.7 3.5 6.6-4.5 2.2-10.2 4-16.8 4-15-.2-26.4-11.8-26.4-27.2" transform="matrix(5.9714283 0 0 5.9714283 -833.88428 -37.292741)"/><g transform="matrix(1.3333539 0 0 1.3333545 3391.0963 93.185188)"><path d="m18.62 29.22c4.36-2.09 9.57-2.76 14.21-1.19 2.99 1.03 4.57 3.97 5.5 6.79l92.26 247.05 89.35-244.75c1.09-3.01 2.06-6.47 5-8.22 4.67-2.76 10.54-1.86 15.29.23l-94.64 257.42c-1.6 4.85-4.66 10.06-10.1 11.1-5.48.85-11.48.83-16.48-1.85-.75-1-1.05-2.23-1.5-3.37z"/><path d="m291.99976 35.98c0-3.796926 1.92024-6.32 5.10024-7.07 3.9-.85 7.98026-.44 11.89026.25v256.84c.09 3.54-.53026 8.1-4.45026 9.37-4.02 1.23-8.48024.86-12.54024-.05z"/><path d="m392.61001 36.02c0-4.026742 1.99999-6.799749 5.47999-6.789749h65.9c20.39.25 41.38 4.639749 58.37 16.399749 15.34 10.33 26.69 26.43 31.01 44.44 4 17.92 3.92 37.16-2.65 54.48-5.4 14.27-15.86 26.28-28.48 34.69-15.13 10.08-33.28 14.71-51.26 15.78-20.58.72-40.98998.37-61.77999.37v95.64c-.21 1.96-2.03001 3.51-3.64001 4.5-4.13 1.79-8.65999.87-12.94999.37zm16.59 7.99v136.58c22.10724.11097 35.82999-.01 53.75999.04 18.14-.29 37.09-3.82 51.95-14.86 11.03-7.81 18.73-19.86 21.86-32.96 3.76-16.42 2.78-34.09-3.69-49.71-6.16-14.84-18.87-26.47-33.73-32.31-14.95-6.23-31.41-6.91-47.39-6.78-14.24-.01-18.97335-.0167-42.75999 0z"/></g><path d="m44.445-.00134258h4188.526700000001c24.444 0 44.4747 20.00001958 44.444 44.44400058v212.220002l-4213.526700000001 123.89c-35.556 1.1111-63.889 30.556-63.889 66.111v-402.220002c0-24.444 20-44.44400057 44.444-44.44400057z" opacity=".2" stroke-width="5.5556"/></g></svg>