<svg version="1.1" viewBox="0 0 569.7 240" xmlns="http://www.w3.org/2000/svg">
 <linearGradient id="d" x1="-8600.5" x2="-8600.5" y1="-4719.1" y2="-4553.4" gradientTransform="rotate(180 -4107.9 -2290.2)" gradientUnits="userSpaceOnUse">
  <stop stop-color="#a80002" offset="0"/>
  <stop stop-color="#ea021a" offset="1"/>
 </linearGradient>
 <linearGradient id="c" x1="99.851" x2="99.851" y1="138.67" y2="-27.096" gradientUnits="userSpaceOnUse">
  <stop stop-color="#00043b" offset="0"/>
  <stop stop-color="#002672" offset="1"/>
 </linearGradient>
 <path d="m199.7 0h362c4.4 0 8 3.6 8 8v112h-370z" fill="url(#d)"/>
 <path d="M 199.7,120 H 0 V 7.9 C 0,3.7 3.5,0 7.9,0 h 191.8 z" fill="url(#c)"/>
 <path d="m8 0h553.7c4.4 0 8 3.6 8 8v38.2l-558.2 22.3c-6.4 0.2-11.5 5.5-11.5 11.9v-72.4c0-4.4 3.6-8 8-8z" fill="#fff" opacity=".2"/>
 <path d="m135 106.7c1.3 0.7 3.9 1.5 7.3 1.5 5.7 0.1 8.8-2.1 11.1-7.2l30.6-68.2c-1.3-0.7-4.1-1.4-6.3-1.5-3.9-0.1-9.2 0.7-12.6 8.8l-9.9 23.4-19.5-31.5c-1.3-0.4-4.3-0.9-6.6-0.9-6.8 0-10.7 2.5-14.7 6.8l-18.8 20.6 15.2 23.9c2.8 4.4 6.5 6.6 12.5 6.6 3.9 0 7.2-0.9 8.7-1.6l-18.3-27.6 13-13.7 21.3 33.4zm-40.1-25.8c0 5-2 7.9-11.8 7.9-1.3 0-2.4-0.1-3.5-0.3v-66.6c0-5.1 1.7-10.3 11.6-10.3 1.2 0 2.5 0.1 3.7 0.4zm-20.3-10c0 9.4-6.1 16.2-18.6 17.6-9 1-22.1-0.2-28.3-0.9-0.2-1-0.4-2.3-0.4-3.3 0-8.2 4.4-10.1 8.6-10.1 4.3 0 11.1 0.7 16.2 0.7 5.6 0 7.2-1.9 7.2-3.7 0-2.4-2.2-3.3-6.6-4.2l-11.7-2.1c-9.8-1.9-15-8.7-15-15.9 0-8.8 6.2-16.1 18.4-17.5 9.2-1 20.5 0.1 26.6 0.9 0.2 1.1 0.3 2.1 0.3 3.2 0 8.2-4.3 9.9-8.5 9.9-3.2 0-8.1-0.6-13.8-0.6-5.8 0-8.1 1.6-8.1 3.5 0 2 2.3 2.9 5.9 3.5l11.3 2.1c11.6 2.2 16.5 8.8 16.5 16.9m149.7 14.4c-0.6-4.7 0.9-7.2 3.4-7.2 2.7 0 9.2 3 18.4 3 9.8 0 13.5-3.6 13.5-8.2 0-3.2-1.4-5.8-10.4-8.3l-10-2.8c-10.7-2.9-15.1-8.3-15.1-15.1 0-8.2 6.5-15.8 21.6-15.8 6.8 0 15.2 1.6 20.2 3.6 0.6 4.6-0.9 7-3.2 7-2.5 0-8.6-2.8-17-2.8-9 0-12.4 3.3-12.4 7.6 0 2.8 1.3 5.4 9.5 7.7l10.2 3c11.3 3.2 15.9 8.5 15.9 15.6 0 8.8-6.9 16.6-23 16.6-7.4 0-16.3-1.8-21.6-3.9m110.6-25.3c0 18.1-12.7 29.1-27 29.1-8.6 0-15.5-4-19.6-9.8v24.5c0 2.1-1.2 3.5-4.8 3.5-1.6 0-3.4-0.2-4.2-0.5v-74.5c0.8-0.2 2.6-0.6 4.2-0.6 3.6 0 4.8 1.4 4.8 3.5v5.6c4.1-5.8 11-9.8 19.6-9.8 14.3 0.1 27 11 27 29m-9.2 0c0-12.4-8.3-20.9-19.4-20.9-7.7 0-14.8 4.4-18 10.9v20.3c3.2 6.4 10.3 10.9 18 10.9 11.1-0.1 19.4-8.6 19.4-21.2m18.1 0c0-16.6 12.3-28.9 28.7-28.9 16.5 0 28.7 12.4 28.7 28.9 0 16.7-12.3 29.1-28.7 29.1s-28.7-12.4-28.7-29.1m48.2 0c0-12.8-8.8-20.9-19.5-20.9s-19.5 8.1-19.5 20.9c0 13 8.8 21.1 19.5 21.1s19.5-8.1 19.5-21.1m54.2-23.9c0 3.4-1.5 4.2-4.8 4.2-6.4 0-15.5 2.1-20.1 12.4v32.2c0 2.2-1.2 3.5-4.8 3.5-1.6 0-3.4-0.2-4.2-0.5v-55.6c0.8-0.2 2.6-0.6 4.2-0.6 3.6 0 4.8 1.4 4.8 3.5v6.8c5.1-7.4 14-11.4 24.5-9.7 0.1 0.7 0.4 2.4 0.4 3.8m52 49.2c-0.6-4.7 0.9-7.2 3.4-7.2 2.7 0 9.2 3 18.4 3 9.8 0 13.5-3.6 13.5-8.2 0-3.2-1.4-5.8-10.4-8.3l-10-2.8c-10.7-2.9-15.1-8.3-15.1-15.1 0-8.2 6.5-15.8 21.6-15.8 6.8 0 15.2 1.6 20.2 3.6 0.6 4.6-0.9 7-3.2 7-2.4 0-8.6-2.8-17-2.8-9 0-12.4 3.3-12.4 7.6 0 2.8 1.3 5.4 9.5 7.7l10.2 2.8c11.3 3.2 15.9 8.5 15.9 15.6 0 8.8-6.9 16.6-23 16.6-7.3 0.2-16.2-1.6-21.6-3.7m-9.2 0c-4.8 2.3-10.4 3.7-16.1 3.7-11 0-17.6-6.3-17.6-17.2v-50c0-2.1 1.2-3.5 4.8-3.5 1.6 0 3.4 0.4 4.2 0.7v13.2h22.3c0.1 0.7 0.3 2.2 0.3 3.6 0 3.3-1.4 4.3-3.4 4.3h-19.3v30.9c0 6.8 3.3 9.7 9.6 9.7 5.7 0 9.1-2.2 11.8-2.2 2.6 0.2 3.9 2.5 3.4 6.8" fill="#fff"/>
 <path d="m7.9004 240c-4.4 0-7.9004-3.7004-7.9004-7.9004v-112.1h569.65v112.1c1e-5 4.2-3.5004 7.9004-7.9004 7.9004z" fill="#999"/>
 <path d="m10.4 237.5c-4.4 0-7.9004-3.7004-7.9004-7.9004v-109.6h564.65v109.6c1e-5 4.2-3.5004 7.9004-7.9004 7.9004z" fill="#fff"/>
 <path d="m169.13 155.7v32.2c0 13-9.1894 17.1-19.877 17.1-10.688 0-19.877-4.1-19.877-17.2v-32.2h11.187v29c0 6.9 1.7979 11 8.7899 11 7.0919 0 8.8898-4.1 8.8898-11.1v-29zm7.4914 39c2.8967-1.1 5.8932 0.3 6.9919 3.2 0.99886 2.7-0.29954 5.6-3.1963 6.7-2.6969 1-5.5936-0.3-6.6923-3-1.0987-2.9 0.19985-5.9 2.8967-6.9zm56.635 0c2.8967-1.1 5.8932 0.3 6.992 3.2 0.99886 2.7-0.29954 5.6-3.1963 6.7-2.6969 1-5.5936-0.3-6.6923-3-1.0987-2.9 0.19984-5.9 2.8967-6.9zm-34.66-5.6c0.99887 4.7 4.5947 7.7 9.1895 7.6 3.6957-0.10002 6.3926-1.6 6.2928-4.9-0.0999-3.1-1.7979-4.6-8.1906-6.4-11.087-3.3-15.782-7.4-15.982-15.7-0.19985-10.9 8.1906-14.7 16.681-14.9 9.8886-0.2 17.38 3 18.579 12.2l-10.987 3c-0.49943-4.3-3.6958-6.1-7.0919-6-3.0964 0.1-5.4937 1.5-5.4937 4.6 0.10016 3.4 2.6969 4.6 8.3904 6.2 10.188 3 15.482 6.3 15.682 15.6 0.19985 10.5-8.1906 14.5-18.479 14.7-9.4891 0.19998-15.982-2.8-18.579-11.4zm57.933-8.8c-0.19985-16.2 8.2905-25.3 22.574-25.4 14.284-0.2 23.074 8.7 23.273 24.9 0.19985 16.2-8.3904 25.2-22.674 25.4-14.284 0.10002-22.974-8.8-23.173-24.9zm11.587 0c0.0997 9.5 3.8955 15.3 11.487 15.2 7.5913-0.10002 11.287-6 11.187-15.5-0.0997-9.6-3.8955-15.4-11.587-15.3-7.4914 0.1-11.187 6-11.087 15.6zm43.55 23.8 0.0997-48.3h17.18c12.386 0 17.58 5.7 17.48 16.4 0 10.3-6.093 16.4-16.481 16.4h-7.0919v15.6zm11.187-24.7h5.6934c4.7945 0 6.7922-2.4 6.7922-6.9 0-5-2.0976-7.4-6.7922-7.4h-5.6934zm65.025 24.8h-32.363v-48.3h32.363v9.7h-21.276v9.6h18.679v9.3h-18.679v10.1h21.276zm37.157-24.9c2.6969 3.7 3.9954 6.5 3.9954 6.5h0.29954s-0.29954-4.1-0.29954-10.3v-19.6h11.187l0.0997 48.3h-10.188l-17.08-23c-3.0965-4.1-4.5948-7.1-4.5948-7.1h-0.29954s0.49944 3.9 0.49944 10.9v19.2h-11.187l-0.0997-48.3h10.488z" fill="#003660"/>
</svg>
