<?xml version="1.0" encoding="UTF-8"?>
<!-- Created with Inkscape (http://www.inkscape.org/) -->
<svg id="svg8519" width="2372.4" height="730" version="1.1" viewBox="0 0 2372.4 730" xmlns="http://www.w3.org/2000/svg" xmlns:cc="http://creativecommons.org/ns#" xmlns:dc="http://purl.org/dc/elements/1.1/" xmlns:rdf="http://www.w3.org/1999/02/22-rdf-syntax-ns#">
 <defs id="defs8521">
  <clipPath id="clipPath1252">
   <path id="path1254" d="m411.59 515.35h94.948v18.13h-94.948v-18.13z"/>
  </clipPath>
  <clipPath id="clipPath1288">
   <path id="path1290" d="m412.39 532.67h93.284v-15.246h-93.284v15.246z"/>
  </clipPath>
  <clipPath id="clipPath1292">
   <path id="path1294" d="m412.39 517.42h93.284v15.245h-93.284v-15.245z"/>
  </clipPath>
  <linearGradient id="linearGradient1236" x2="1" gradientTransform="matrix(0 17.057 17.057 0 474.76 515.89)" gradientUnits="userSpaceOnUse">
   <stop id="stop1238" stop-color="#820021" offset="0"/>
   <stop id="stop1240" stop-color="#ae2c3f" offset=".10441"/>
   <stop id="stop1242" stop-color="#ae2c3f" offset=".90174"/>
   <stop id="stop1244" stop-color="#ba3c4c" offset="1"/>
  </linearGradient>
  <clipPath id="clipPath1202">
   <path id="path1204" d="m411.59 515.35h94.948v18.13h-94.948v-18.13z"/>
  </clipPath>
  <clipPath id="clipPath1214">
   <path id="path1216" d="m505.84 530.72h0.017v-0.016h-0.017v0.016z"/>
  </clipPath>
  <linearGradient id="linearGradient1178" x2="1" gradientTransform="matrix(0 -17.343 17.343 0 459.06 533.09)" gradientUnits="userSpaceOnUse">
   <stop id="stop1180" stop-color="#868685" offset="0"/>
   <stop id="stop1182" stop-color="#d8d9d9" offset=".020448"/>
   <stop id="stop1184" stop-color="#f5f5f5" offset=".052404"/>
   <stop id="stop1186" stop-color="#edeeee" offset=".48766"/>
   <stop id="stop1188" stop-color="#f5f5f5" offset=".89549"/>
   <stop id="stop1190" stop-color="#ebebec" offset=".92944"/>
   <stop id="stop1192" stop-color="#d8d9d9" offset=".96426"/>
   <stop id="stop1194" stop-color="#868685" offset="1"/>
  </linearGradient>
 </defs>
 <metadata id="metadata8524">
  <rdf:RDF>
   <cc:Work rdf:about="">
    <dc:format>image/svg+xml</dc:format>
    <dc:type rdf:resource="http://purl.org/dc/dcmitype/StillImage"/>
    <dc:title/>
   </cc:Work>
  </rdf:RDF>
 </metadata>
 <g id="layer1" transform="translate(-192.09 474.88)">
  <g id="g4201" transform="matrix(19.99 0 0 19.99 -3647.6 -5121.6)">
   <g id="g1166" transform="matrix(1.25 0 0 -1.25 -322.4 899.31)">
    <g id="g1168">
     <g id="g1174">
      <g id="g1176">
       <path id="path1196" d="m414.08 532.94c-1.345 0-1.823-0.794-1.823-2.114v-12.829c0-1.32 0.478-2.114 1.823-2.114h89.96c1.345 0 1.822 0.794 1.822 2.114v12.829c0 1.32-0.477 2.114-1.822 2.114h-89.96z" fill="url(#linearGradient1178)"/>
      </g>
     </g>
    </g>
   </g>
   <g id="g1198" transform="matrix(1.25 0 0 -1.25 -322.4 899.31)">
    <g id="g1200" clip-path="url(#clipPath1202)">
     <g id="g1206" transform="translate(503.93 515.35)">
      <path id="path1208" d="m0 0c1.996 0 2.605 1.241 2.605 2.482v13.166c0 1.241-0.609 2.482-2.605 2.482h-89.738c-1.997 0-2.605-1.241-2.605-2.482v-13.166c0-1.241 0.608-2.482 2.605-2.482h89.738zm-89.646 0.167c-1.344 0-2.254 0.793-2.254 2.114v13.568c0 1.321 0.91 2.114 2.254 2.114h89.554c1.344 0 2.254-0.793 2.254-2.114v-13.568c0-1.321-0.91-2.114-2.254-2.114h-89.554z" fill="#a1a2a2"/>
     </g>
     <g id="g1210">
      <g id="g1218">
       <g id="g1220" clip-path="url(#clipPath1214)" opacity=".8"></g>
      </g>
     </g>
    </g>
   </g>
   <g id="g1224" transform="matrix(1.25 0 0 -1.25 -322.4 899.31)">
    <g id="g1226">
     <g id="g1232">
      <g id="g1234">
       <path id="path1246" d="m443.66 532.94v-17.057h60.388c1.345 0 1.822 0.794 1.822 2.114v12.829c0 1.32-0.477 2.114-1.822 2.114h-60.388z" fill="url(#linearGradient1236)"/>
      </g>
     </g>
    </g>
   </g>
   <g id="g1248" transform="matrix(1.25 0 0 -1.25 -322.4 899.31)">
    <g id="g1250" clip-path="url(#clipPath1252)">
     <g id="g1256" transform="translate(452.08 519.04)">
      <path id="path1258" d="m0 0c-0.756 0-1.454 0.136-2.093 0.408-0.639 0.273-1.192 0.649-1.661 1.129-0.469 0.481-0.836 1.052-1.102 1.714s-0.4 1.377-0.4 2.146c0 0.747 0.134 1.446 0.4 2.098 0.266 0.651 0.633 1.217 1.102 1.697 0.469 0.481 1.022 0.857 1.661 1.129 0.639 0.273 1.337 0.409 2.093 0.409 0.543 0 1.07-0.059 1.581-0.176 0.512-0.118 0.985-0.268 1.422-0.449 0.096-1.42-0.25-2.13-1.038-2.13-0.139 0-0.266 0.016-0.384 0.048-0.117 0.032-0.245 0.064-0.383 0.096-0.139 0.032-0.293 0.064-0.463 0.096-0.171 0.032-0.373 0.049-0.607 0.049-0.373 0-0.724-0.067-1.055-0.201-0.33-0.133-0.614-0.326-0.854-0.576-0.24-0.251-0.429-0.553-0.567-0.905-0.139-0.352-0.208-0.748-0.208-1.185 0-0.46 0.069-0.871 0.208-1.233 0.138-0.363 0.327-0.67 0.567-0.921s0.524-0.443 0.854-0.577c0.331-0.133 0.682-0.2 1.055-0.2 0.234 0 0.442 0.016 0.623 0.048s0.343 0.064 0.487 0.096 0.28 0.064 0.407 0.096c0.128 0.032 0.261 0.048 0.4 0.048 0.777 0 1.123-0.71 1.038-2.13-0.437-0.181-0.924-0.331-1.462-0.448s-1.078-0.176-1.621-0.176" fill="#fff"/>
     </g>
     <g id="g1260" transform="translate(457.59 519.17)">
      <path id="path1262" d="m0 0c-0.224 0-0.445 0.011-0.663 0.032s-0.402 0.048-0.551 0.08v9.273c0 0.309 0.096 0.573 0.287 0.792 0.192 0.219 0.554 0.329 1.087 0.329 0.223 0 0.444-0.011 0.663-0.033 0.218-0.021 0.402-0.048 0.551-0.08v-9.272c0-0.31-0.096-0.574-0.288-0.793-0.191-0.219-0.554-0.328-1.086-0.328" fill="#fff"/>
     </g>
     <g id="g1264" transform="translate(461.96 519.17)">
      <path id="path1266" d="m0 0c-0.213 0-0.421 0.011-0.623 0.032-0.203 0.021-0.373 0.048-0.511 0.08v10.201c0.159 0.054 0.367 0.099 0.623 0.137 0.255 0.037 0.473 0.056 0.655 0.056 0.585 0 1.011-0.075 1.278-0.225 0.266-0.149 0.489-0.368 0.671-0.656l3.626-5.717v5.573c0 0.138 0.018 0.269 0.056 0.392 0.037 0.123 0.101 0.232 0.191 0.328 0.091 0.096 0.216 0.171 0.376 0.224 0.159 0.054 0.362 0.081 0.607 0.081 0.213 0 0.418-0.011 0.615-0.033 0.197-0.021 0.364-0.042 0.503-0.063v-10.218c-0.149-0.075-0.33-0.125-0.543-0.152s-0.421-0.04-0.623-0.04c-0.501 0-0.874 0.069-1.118 0.208-0.246 0.139-0.448 0.331-0.607 0.577l-3.882 6.214v-5.942c0-0.299-0.091-0.55-0.272-0.753s-0.522-0.304-1.022-0.304" fill="#fff"/>
     </g>
     <g id="g1268" transform="translate(473.3 519.23)">
      <path id="path1270" d="m0 0c-0.298 0-0.541 0.032-0.727 0.096s-0.33 0.152-0.431 0.264c-0.102 0.112-0.171 0.248-0.208 0.409-0.037 0.16-0.056 0.33-0.056 0.512v7.847c0 0.182 0.019 0.353 0.056 0.513s0.106 0.296 0.208 0.408c0.101 0.112 0.245 0.2 0.431 0.264s0.429 0.096 0.727 0.096h5.287c0.022-0.117 0.043-0.277 0.064-0.48 0.022-0.203 0.032-0.411 0.032-0.624 0-0.449-0.09-0.767-0.271-0.953-0.182-0.187-0.41-0.281-0.687-0.281h-3.259v-1.825h3.754c0.021-0.107 0.043-0.249 0.064-0.425s0.032-0.366 0.032-0.568c0-0.427-0.086-0.718-0.256-0.873s-0.383-0.232-0.639-0.232h-2.955v-1.81h4.281c0.021-0.118 0.043-0.28 0.064-0.488 0.021-0.209 0.032-0.414 0.032-0.617 0-0.459-0.091-0.779-0.272-0.961-0.181-0.181-0.41-0.272-0.686-0.272h-4.585z" fill="#fff"/>
     </g>
     <g id="g1272" transform="translate(480.98 519.17)">
      <path id="path1274" d="m0 0c-0.245 0-0.461 0.024-0.647 0.072-0.187 0.048-0.349 0.104-0.487 0.168l0.976 9.977c0.203 0.086 0.469 0.155 0.799 0.208 0.33 0.054 0.612 0.081 0.846 0.081 0.33 0 0.615-0.022 0.854-0.065 0.24-0.042 0.445-0.114 0.615-0.216 0.17-0.101 0.306-0.243 0.407-0.424 0.101-0.182 0.178-0.406 0.232-0.673l0.415-1.937c0.117-0.534 0.242-1.124 0.375-1.77s0.253-1.311 0.359-1.994h0.064c0.117 0.683 0.239 1.345 0.367 1.986s0.261 1.228 0.399 1.761l0.51 2.034c0.128 0.502 0.332 0.844 0.614 1.025 0.282 0.182 0.721 0.273 1.316 0.273 0.298 0 0.598-0.025 0.901-0.073s0.556-0.098 0.758-0.152l0.934-10.041c-0.149-0.053-0.328-0.107-0.535-0.16-0.208-0.053-0.434-0.08-0.679-0.08-0.341 0-0.629 0.059-0.863 0.176-0.234 0.118-0.362 0.337-0.383 0.657l-0.24 3.459c-0.053 0.609-0.098 1.246-0.136 1.914-0.037 0.667-0.061 1.299-0.072 1.898h-0.032c-0.138-0.556-0.279-1.156-0.423-1.802s-0.29-1.241-0.439-1.786l-0.655-2.722c-0.16-0.641-0.666-0.961-1.518-0.961-0.213 0-0.431 0.021-0.655 0.064-0.223 0.042-0.415 0.09-0.575 0.144l-0.814 3.395c-0.16 0.63-0.309 1.249-0.447 1.858-0.139 0.608-0.267 1.217-0.384 1.825h-0.048c-0.032-0.854-0.074-1.636-0.128-2.346-0.053-0.71-0.101-1.321-0.143-1.833l-0.256-3.123c-0.021-0.31-0.138-0.523-0.351-0.641-0.214-0.117-0.49-0.176-0.831-0.176" fill="#fff"/>
     </g>
     <g id="g1276" transform="translate(496.06 523.54)">
      <path id="path1278" d="m0 0h2.39l-1.192 3.923-1.198-3.923zm-2.492-4.404c-0.202 0-0.434 0.019-0.694 0.056-0.262 0.037-0.477 0.088-0.647 0.152l3.314 10.153c0.288 0.075 0.579 0.129 0.873 0.161s0.563 0.048 0.809 0.048c0.352 0 0.654-0.027 0.905-0.08 0.251-0.054 0.462-0.134 0.633-0.241s0.312-0.248 0.424-0.424 0.206-0.382 0.281-0.617l2.84-8.984c-0.181-0.075-0.399-0.131-0.655-0.168-0.255-0.037-0.506-0.056-0.75-0.056-0.278 0-0.546 0.045-0.807 0.136s-0.45 0.296-0.567 0.617l-0.544 1.649h-3.484l-0.461-1.553c-0.117-0.374-0.314-0.609-0.591-0.705s-0.57-0.144-0.879-0.144" fill="#fff"/>
     </g>
     <g id="g1280" transform="translate(423.12 522.78)">
      <path id="path1282" d="m0 0c0-1.46-0.955-2.527-2.894-2.738-1.404-0.15-3.438 0.027-4.404 0.138-0.036 0.158-0.064 0.354-0.064 0.508 0 1.278 0.691 1.569 1.338 1.569 0.672 0 1.73-0.116 2.518-0.116 0.865 0 1.129 0.294 1.129 0.573 0 0.367-0.349 0.52-1.021 0.648l-1.839 0.354c-1.531 0.293-2.348 1.352-2.348 2.476 0 1.366 0.967 2.509 2.868 2.72 1.438 0.155 3.187-0.02 4.148-0.138 0.035-0.165 0.053-0.321 0.053-0.492 0-1.274-0.671-1.549-1.319-1.549-0.497 0-1.269 0.093-2.15 0.093-0.897 0-1.269-0.248-1.269-0.55 0-0.319 0.355-0.451 0.916-0.549l1.758-0.326c1.806-0.333 2.58-1.359 2.58-2.621m3.155-1.568c0-0.783-0.307-1.235-1.836-1.235-0.203 0-0.38 0.015-0.55 0.04v10.39c0 0.789 0.269 1.612 1.813 1.612 0.194 0 0.391-0.02 0.573-0.058v-10.749zm6.25-4.019c0.2-0.103 0.612-0.227 1.131-0.241 0.886-0.019 1.371 0.321 1.73 1.116l4.764 10.626c-0.197 0.106-0.631 0.223-0.988 0.231-0.612 0.011-1.434-0.114-1.96-1.367l-1.543-3.641-3.025 4.927c-0.195 0.06-0.671 0.146-1.021 0.146-1.067 0-1.665-0.394-2.284-1.066l-2.941-3.217 2.366-3.723c0.437-0.678 1.013-1.024 1.949-1.024 0.612 0 1.121 0.139 1.357 0.252l-2.848 4.295 2.019 2.139 3.311-5.197-2.017-4.256z" fill="#ae2c3f"/>
     </g>
     <g id="g1284">
      <g id="g1296">
       <g id="g1298" clip-path="url(#clipPath1288)" opacity=".39999">
        <g id="g1300">
         <g id="g1302">
          <g id="g1304" clip-path="url(#clipPath1292)">
           <g id="g1306" transform="translate(504.17 519.89)">
            <path id="path1308" d="m0 0c1.156-1.145 1.313-2.225 1.354-2.463 0.114 0 0.156 0.506 0.156 1.261l-4e-3 12.109c0 1.402-0.456 1.876-1.644 1.876-0.402 0-0.804-0.216-1.339-0.216h-87.31c-0.536 0-0.938 0.216-1.34 0.216-1.187 0-1.643-0.474-1.643-1.876l-4e-3 -12.109c0-0.755 0.041-1.261 0.155-1.261 0.041 0.238 0.076 1.402 1.354 2.463 10.208 7.878 79.259 10.296 90.265 0" fill="#fff"/>
           </g>
          </g>
         </g>
        </g>
       </g>
      </g>
     </g>
    </g>
   </g>
  </g>
  <g id="#000000ff" transform="matrix(1.0109 0 0 1.0109 620.62 -81.664)">
   <path id="path5" d="m603.64 167.79c22.24-2.64 44.84 1.23 65.87 8.57 0.01 6.19 0.17 13.14-3.87 18.25-3.26 3.87-8.9 3.77-13.45 2.91-14.84-3.01-30.07-6.21-45.26-4.13-6.79 0.98-14 3.64-17.88 9.65-4.38 6.82-2.92 17.36 4.38 21.59 8.09 5 17.58 6.83 26.58 9.55 14.64 4.34 30.42 7.28 42.52 17.27 7.88 6.24 13.33 15.5 14.47 25.53 1.7 13.87-1.51 29.23-11.71 39.33-9.87 9.68-23.7 14.1-37.18 15.5-23.27 2.36-46.71-2.07-68.79-9.25-0.67-6.29-0.2-13.32 3.76-18.52 4.15-5.01 11.44-3.7 17.02-2.53 15.61 3.69 31.78 7 47.86 4.57 6.45-0.97 13.08-3.68 16.93-9.2 5.33-7.17 5.29-18.88-2.11-24.66-6.35-5-14.49-6.74-22.06-9.05-16.17-4.75-33.76-7.7-47.08-18.83-15.8-13.52-18.45-38.79-7.37-56.03 8.32-12.29 23.05-18.67 37.37-20.52z"/>
   <path id="path7" d="m1203.3 171.29c10.38-3.94 21.65-4.54 32.64-4.27 16.21 0.56 32.26 3.92 47.54 9.33 0.07 6.21 0.25 13.16-3.81 18.31-3.07 3.63-8.41 3.72-12.72 2.97-12.85-2.53-25.82-5.34-38.99-4.86-7.78 0.27-16.16 1.7-22.18 7.02-7.04 6.15-7.01 19.14 1.07 24.41 7.6 4.95 16.63 6.87 25.21 9.42 13.73 4.15 28.32 6.74 40.45 14.86 8.33 5.43 15.09 13.65 17.55 23.41 2.43 9.77 1.68 20.24-1.51 29.75-3.51 10.38-11.77 18.62-21.52 23.35-15.15 7.4-32.56 8.26-49.1 6.99-15.22-1.28-30.23-4.67-44.7-9.51-0.24-6.67-0.17-14.37 4.85-19.45 4.35-3.8 10.66-2.58 15.83-1.57 13.77 3.25 27.85 6.25 42.09 5.27 7.47-0.46 15.67-1.94 21.04-7.61 5.51-5.44 7.25-14.35 4.13-21.43-2.03-4.47-6.3-7.32-10.63-9.25-18.18-7.61-38.64-9.11-55.84-19.15-12.56-6.98-20.92-20.88-21.01-35.26-0.34-10.32 2.33-21.16 9.16-29.12 5.33-6.41 12.77-10.64 20.45-13.61z"/>
   <path id="path9" d="m223.92 171.24c10.78-3.31 22.85-4.59 33.64-0.7 6.72 2.45 9.49 9.69 10.69 16.17 8.7 34.55 17.45 69.09 26.19 103.63 9.79-36.07 18.58-72.42 28.17-108.55 1.64-5.78 6.26-10.54 12.11-12.07 10-2.79 20.72-1.46 30.67 0.95 5.06 52.7 10.39 105.38 15.5 158.07-7.12 2.7-15.37 4.15-22.57 0.97-3.08-1.2-4.5-4.61-4.75-7.7-3.44-42.07-6.94-84.14-10.43-126.21-10.53 37.42-20.15 75.12-30.47 112.6-1.16 4.06-3.98 7.73-8 9.27-6.78 2.72-14.34 2-21.4 1.01-1.67-0.53-4.38-0.23-4.66-2.48-11.24-40.26-22.34-80.57-33.61-120.82-3.93 42.4-7.65 84.83-11.55 127.23-0.23 2.97-1.89 5.91-4.7 7.14-6.78 3.04-14.61 1.76-21.29-0.93 5.37-52.53 10.89-105.06 16.46-157.58z"/>
   <path id="path11" d="m412.06 168.72c6.43-1.05 13.05-0.43 19.44 0.68v94.58c0.07 11.18 2.5 22.93 9.79 31.73 5.12 6.45 12.82 10.54 20.91 11.79 9.17 1.31 19.02 0.62 27.21-4.03 9.45-5.31 15.78-15.14 18.06-25.6 2-8.15 1.46-16.6 1.53-24.91v-72.96c-0.32-4.95 2.87-10.19 7.94-11.14 6.52-1.32 13.3-0.54 19.81 0.51 0.01 28.22 0 56.44 0 84.65-0.06 6.64 0.28 13.3-0.6 19.89-1.9 16.69-9.25 33.14-22.05 44.28-12.03 10.41-28.22 15.81-44.09 14.81-17.8 1.24-36.05-5.69-48.2-18.79-12.49-13.05-18.04-31.42-18.31-49.19 0.02-28.62-0.04-57.24 0.02-85.86 0.02-4.89 3.5-9.77 8.54-10.44z"/>
   <path id="path13" d="m710.83 168.54c6.21-0.73 12.54-0.25 18.69 0.87-0.04 50.2 0 100.4-0.02 150.6 0.08 4.65-2.72 9.73-7.48 10.86-6.72 1.72-13.75 0.63-20.5-0.33-0.04-50.51-0.03-101.02-0.01-151.52-0.12-5.22 4.1-10.01 9.32-10.48z"/>
   <path id="path15" d="m798.65 174.74c12.74-6.24 27.2-8.03 41.25-7.09 13.24 0.81 26.28 4.06 38.59 8.97 0.69 5.21 0.91 10.75-1.27 15.67-1.62 3.75-5.01 6.94-9.19 7.37-4.75 0.45-9.14-1.81-13.56-3.13-13.94-4.44-29.81-4.96-43.11 1.79-14.52 7.18-24.24 21.94-27.09 37.66-2.64 14.59-1.6 30.26 4.93 43.74 5.11 10.7 14.24 19.6 25.46 23.67 14.18 5.24 30.13 3.81 44.02-1.64 5.73-2.48 13.5-2.32 17.64 2.96 4.03 5.18 3.8 12.32 3 18.51-16.7 7.28-35.16 10.13-53.29 9.02-18.84-1.1-37.23-9.33-50.3-22.98-12.47-13.02-19.94-30.46-21.78-48.31-1.4-14.41-0.13-29.26 5.19-42.81 7.03-18.77 21.23-34.95 39.51-43.4z"/>
   <path id="path17" d="m945.74 169.81c7.9-1.89 16.09-2.5 24.19-1.87 4.16 0.4 8.49 1.56 11.7 4.39 3.54 3.24 5.2 7.89 6.75 12.3 16.4 47.96 32.88 95.89 49.25 143.85-7.69 3.2-16.46 4.51-24.47 1.71-2.96-0.96-4.72-3.77-5.72-6.54-4.13-11.94-8.02-23.96-12.16-35.89-21-0.01-41.99-0.01-62.99 0-3.91 11.69-7.8 23.4-11.7 35.1-1.09 3.44-3.36 6.91-7.08 7.8-7.52 1.97-15.8 1.23-22.9-1.89 18.31-53.02 36.67-106.01 55.13-158.96m-5.45 93.93c15.77 0.04 31.54-0.03 47.31 0.03-7.73-23.85-15.7-47.62-23.52-71.44-7.9 23.81-15.86 47.6-23.79 71.41z"/>
   <path id="path19" d="m1061.1 168.91c6.63-1.38 13.56-0.63 20.19 0.5-0.11 45.11-0.02 90.22-0.05 135.33 25.6 0.02 51.2 0 76.8 0.02 1.05 6.28 2.15 12.96 0.09 19.15-1.61 4.52-6.75 6.35-11.18 6.32-26.33 0.06-52.66-0.01-78.98 0.03-3.92-0.11-8.24-0.27-11.42-2.84-3.23-3.63-3.43-8.8-3.33-13.41 0.05-44.68-0.02-89.36 0.04-134.04-0.13-4.85 2.79-10.08 7.84-11.06z"/>
  </g>
 </g>
</svg>
