<?xml version="1.0" encoding="UTF-8" standalone="no"?>
<!-- Created with Inkscape (http://www.inkscape.org/) -->

<svg
   xmlns:dc="http://purl.org/dc/elements/1.1/"
   xmlns:cc="http://creativecommons.org/ns#"
   xmlns:rdf="http://www.w3.org/1999/02/22-rdf-syntax-ns#"
   xmlns:svg="http://www.w3.org/2000/svg"
   xmlns="http://www.w3.org/2000/svg"
   xmlns:xlink="http://www.w3.org/1999/xlink"
   xmlns:sodipodi="http://sodipodi.sourceforge.net/DTD/sodipodi-0.dtd"
   xmlns:inkscape="http://www.inkscape.org/namespaces/inkscape"
   width="15.594118mm"
   height="3.7623398mm"
   viewBox="0 0 55.254749 13.331125"
   id="svg23815"
   version="1.1"
   inkscape:version="0.91 r13725"
   sodipodi:docname="Sky Cinema Hits HD - Dark.svg">
  <defs
     id="defs23817">
    <clipPath
       clipPathUnits="userSpaceOnUse"
       id="clipPath11276">
      <path
         d="m 96.036,353.239 c 0,0 -4.583,0 -4.583,-4.584 l 0,0 0,-15.278 c 0,0 0,-4.584 4.583,-4.584 l 0,0 37.605,0 c 0,0 4.584,0 4.584,4.584 l 0,0 0,15.278 c 0,0 0,4.584 -4.584,4.584 l 0,0 -37.605,0 z"
         id="path11278"
         inkscape:connector-curvature="0" />
    </clipPath>
    <linearGradient
       x1="0"
       y1="0"
       x2="1"
       y2="0"
       gradientUnits="userSpaceOnUse"
       gradientTransform="matrix(0,-6.3945631,6.3945631,0,114.83856,344.68784)"
       spreadMethod="pad"
       id="linearGradient11252">
      <stop
         style="stop-opacity:1;stop-color:#b4b2b1"
         offset="0"
         id="stop11254" />
      <stop
         style="stop-opacity:1;stop-color:#e8e8e9"
         offset="0.020448"
         id="stop11256" />
      <stop
         style="stop-opacity:1;stop-color:#f9f9fa"
         offset="0.0524045"
         id="stop11258" />
      <stop
         style="stop-opacity:1;stop-color:#f5f5f5"
         offset="0.487663"
         id="stop11260" />
      <stop
         style="stop-opacity:1;stop-color:#f9f9fa"
         offset="0.895488"
         id="stop11262" />
      <stop
         style="stop-opacity:1;stop-color:#f4f3f4"
         offset="0.929442"
         id="stop11264" />
      <stop
         style="stop-opacity:1;stop-color:#e8e8e9"
         offset="0.964262"
         id="stop11266" />
      <stop
         style="stop-opacity:1;stop-color:#b4b2b1"
         offset="1"
         id="stop11268" />
    </linearGradient>
    <clipPath
       clipPathUnits="userSpaceOnUse"
       id="clipPath11210">
      <path
         d="m 96.036,353.239 c 0,0 -4.583,0 -4.583,-4.584 l 0,0 0,-15.278 c 0,0 0,-4.584 4.583,-4.584 l 0,0 37.605,0 c 0,0 4.584,0 4.584,4.584 l 0,0 0,15.278 c 0,0 0,4.584 -4.584,4.584 l 0,0 -37.605,0 z"
         id="path11212"
         inkscape:connector-curvature="0" />
    </clipPath>
    <linearGradient
       x1="0"
       y1="0"
       x2="1"
       y2="0"
       gradientUnits="userSpaceOnUse"
       gradientTransform="matrix(0,-7.8613366,7.8613366,0,304.30466,416.69276)"
       spreadMethod="pad"
       id="linearGradient11192">
      <stop
         style="stop-opacity:1;stop-color:#af6773"
         offset="0"
         id="stop11194" />
      <stop
         style="stop-opacity:1;stop-color:#c9747a"
         offset="0.104411"
         id="stop11196" />
      <stop
         style="stop-opacity:1;stop-color:#c9747a"
         offset="0.898134"
         id="stop11198" />
      <stop
         style="stop-opacity:1;stop-color:#d49093"
         offset="0.999673"
         id="stop11200" />
      <stop
         style="stop-opacity:1;stop-color:#d49093"
         offset="1"
         id="stop11202" />
    </linearGradient>
    <clipPath
       clipPathUnits="userSpaceOnUse"
       id="clipPath11116">
      <path
         d="m 96.036,353.239 c 0,0 -4.583,0 -4.583,-4.584 l 0,0 0,-15.278 c 0,0 0,-4.584 4.583,-4.584 l 0,0 37.605,0 c 0,0 4.584,0 4.584,4.584 l 0,0 0,15.278 c 0,0 0,4.584 -4.584,4.584 l 0,0 -37.605,0 z"
         id="path11118"
         inkscape:connector-curvature="0" />
    </clipPath>
    <linearGradient
       x1="0"
       y1="0"
       x2="1"
       y2="0"
       gradientUnits="userSpaceOnUse"
       gradientTransform="matrix(0,-7.8613366,7.8613366,0,304.30466,416.69276)"
       spreadMethod="pad"
       id="linearGradient11098">
      <stop
         style="stop-opacity:1;stop-color:#810a32"
         offset="0"
         id="stop11100" />
      <stop
         style="stop-opacity:1;stop-color:#a90e3a"
         offset="0.104411"
         id="stop11102" />
      <stop
         style="stop-opacity:1;stop-color:#a90e3a"
         offset="0.898134"
         id="stop11104" />
      <stop
         style="stop-opacity:1;stop-color:#b94556"
         offset="0.999673"
         id="stop11106" />
      <stop
         style="stop-opacity:1;stop-color:#b94556"
         offset="1"
         id="stop11108" />
    </linearGradient>
    <linearGradient
       x1="0"
       y1="0"
       x2="1"
       y2="0"
       gradientUnits="userSpaceOnUse"
       gradientTransform="matrix(0,7.9932039,7.9932039,0,302.85772,408.76024)"
       spreadMethod="pad"
       id="linearGradient11068">
      <stop
         style="stop-opacity:1;stop-color:#888685"
         offset="0"
         id="stop11070" />
      <stop
         style="stop-opacity:1;stop-color:#d9d9da"
         offset="0.020448"
         id="stop11072" />
      <stop
         style="stop-opacity:1;stop-color:#f5f5f6"
         offset="0.0524045"
         id="stop11074" />
      <stop
         style="stop-opacity:1;stop-color:#eeefef"
         offset="0.487663"
         id="stop11076" />
      <stop
         style="stop-opacity:1;stop-color:#f5f5f6"
         offset="0.895488"
         id="stop11078" />
      <stop
         style="stop-opacity:1;stop-color:#ebebec"
         offset="0.929442"
         id="stop11080" />
      <stop
         style="stop-opacity:1;stop-color:#d9d9da"
         offset="0.964262"
         id="stop11082" />
      <stop
         style="stop-opacity:1;stop-color:#888685"
         offset="1"
         id="stop11084" />
    </linearGradient>
    <clipPath
       clipPathUnits="userSpaceOnUse"
       id="clipPath11050">
      <path
         d="m 92.736,334.074 44.204,0 0,10.779 -44.204,0 0,-10.779 z"
         id="path11052"
         inkscape:connector-curvature="0" />
    </clipPath>
    <linearGradient
       inkscape:collect="always"
       xlink:href="#linearGradient11252"
       id="linearGradient24592"
       gradientUnits="userSpaceOnUse"
       gradientTransform="matrix(0,7.9932039,7.9932039,0,302.85772,408.76024)"
       spreadMethod="pad"
       x1="0"
       y1="0"
       x2="1"
       y2="0" />
    <linearGradient
       inkscape:collect="always"
       xlink:href="#linearGradient11252"
       id="linearGradient24594"
       gradientUnits="userSpaceOnUse"
       gradientTransform="matrix(0,7.9932039,7.9932039,0,302.85772,408.76024)"
       spreadMethod="pad"
       x1="0"
       y1="0"
       x2="1"
       y2="0" />
  </defs>
  <sodipodi:namedview
     id="base"
     pagecolor="#ffffff"
     bordercolor="#666666"
     borderopacity="1.0"
     inkscape:pageopacity="0.0"
     inkscape:pageshadow="2"
     inkscape:zoom="15.839192"
     inkscape:cx="16.774765"
     inkscape:cy="4.9733692"
     inkscape:document-units="px"
     inkscape:current-layer="layer1"
     showgrid="false"
     fit-margin-top="0"
     fit-margin-left="0"
     fit-margin-right="0"
     fit-margin-bottom="0"
     inkscape:window-width="1920"
     inkscape:window-height="1017"
     inkscape:window-x="-8"
     inkscape:window-y="-8"
     inkscape:window-maximized="1" />
  <metadata
     id="metadata23820">
    <rdf:RDF>
      <cc:Work
         rdf:about="">
        <dc:format>image/svg+xml</dc:format>
        <dc:type
           rdf:resource="http://purl.org/dc/dcmitype/StillImage" />
        <dc:title></dc:title>
      </cc:Work>
    </rdf:RDF>
  </metadata>
  <g
     inkscape:label="Layer 1"
     inkscape:groupmode="layer"
     id="layer1"
     transform="translate(-275.22977,-408.55379)">
    <g
       id="g4382">
      <path
         d="m 329.28477,416.90992 c 0.92,0 1.20125,-0.5725 1.20125,-1.14375 l 0,-6.06875 c 0,-0.57125 -0.28125,-1.14375 -1.20125,-1.14375 l -52.85375,0 c -0.92,0 -1.20125,0.5725 -1.20125,1.14375 l 0,6.06875 c 0,0.57125 0.28125,1.14375 1.20125,1.14375 l 52.85375,0 m -52.81125,-0.0763 c -0.62,0 -1.03875,-0.36625 -1.03875,-0.975 l 0,-6.25375 c 0,-0.60875 0.41875,-0.97375 1.03875,-0.97375 l 52.76875,0 c 0.62,0 1.03875,0.365 1.03875,0.97375 l 0,6.25375 c 0,0.60875 -0.41875,0.975 -1.03875,0.975 l -52.76875,0"
         style="fill:#a2a2a3;fill-opacity:1;fill-rule:nonzero;stroke:none"
         id="path11056"
         inkscape:connector-curvature="0" />
      <path
         d="m 276.37952,408.82879 c -0.62,0 -0.84,0.365 -0.84,0.97375 l 0,0 0,5.9125 c 0,0.60875 0.22,0.975 0.84,0.975 l 0,0 13.62875,0 0,-4.43125 c -0.81125,0.0638 -1.60125,0.1325 -2.36875,0.20625 l 0,0 -1.44375,3.22125 c -0.16125,0.35625 -0.3775,0.515 -0.76625,0.515 l 0,0 c -0.01,0 -0.0213,0 -0.0312,0 l 0,0 c -0.24,-0.006 -0.43,-0.0637 -0.52125,-0.11125 l 0,0 0.93,-1.96125 -0.8725,-1.36875 c -0.4925,0.0612 -0.97,0.1225 -1.4325,0.1875 l 0,0 1.16125,1.75125 c -0.11,0.0513 -0.34375,0.11625 -0.62625,0.11625 l 0,0 c -0.43125,0 -0.6975,-0.15875 -0.89875,-0.4725 l 0,0 -0.7775,-1.225 c -0.1225,0.0212 -0.24375,0.04 -0.36375,0.06 l 0,0 0,1.06 c 0,0.36125 -0.1425,0.56875 -0.84625,0.56875 l 0,0 c -0.0937,0 -0.17625,-0.006 -0.25375,-0.0175 l 0,0 0,-1.4175 c -0.12,0.0225 -0.24,0.0462 -0.35625,0.0688 l 0,0 c 0.001,0.025 0.001,0.05 0.001,0.075 l 0,0 c 0,0.6725 -0.44,1.165 -1.33375,1.2625 l 0,0 c -0.1775,0.0188 -0.3775,0.0263 -0.5825,0.0263 l 0,0 c -0.5425,0 -1.12375,-0.0537 -1.44625,-0.0913 l 0,0 c -0.0175,-0.0725 -0.0312,-0.1625 -0.0312,-0.23375 l 0,0 c 0,-0.035 0.002,-0.0688 0.004,-0.10125 l 0,0 c -0.3575,0.1525 -0.645,0.31 -0.85625,0.47125 l 0,0 c -0.58875,0.49 -0.60625,1.02625 -0.625,1.13625 l 0,0 c -0.0525,0 -0.0713,-0.23375 -0.0713,-0.5825 l 0,0 0.001,-5.58 c 0,-0.64625 0.21125,-0.865 0.75875,-0.865 l 0,0 c 0.185,0 0.37125,0.1 0.61875,0.1 l 0,0 13.03,0 0,-0.22625 28.5925,0 0,0.22625 10.13875,0 c 0.2475,0 0.4325,-0.1 0.6175,-0.1 l 0,0 c 0.5475,0 0.7575,0.21875 0.7575,0.865 l 0,0 0.002,5.58 c 0,0.34875 -0.0188,0.5825 -0.0713,0.5825 l 0,0 c -0.02,-0.11 -0.0913,-0.60875 -0.625,-1.13625 l 0,0 c -0.295,-0.275 -0.7175,-0.53 -1.255,-0.76625 l 0,0 c -0.405,0.4525 -1.05125,0.71875 -1.88125,0.71875 l 0,0 -1.00375,0 c -0.48,0 -0.59625,-0.26 -0.59625,-0.58 l 0,0 0,-1.15 c -0.19,-0.0375 -0.385,-0.0762 -0.5825,-0.1125 l 0,0 0,1.355 c 0,0.29875 -0.12,0.49 -0.74125,0.49 l 0,0 c -0.0775,0 -0.1425,-0.005 -0.21875,-0.0163 l 0,0 0,-1.65375 -1.93375,0 0,1.18 c 0,0.29875 -0.12,0.49 -0.7425,0.49 l 0,0 c -0.075,0 -0.14125,-0.005 -0.21875,-0.0163 l 0,0 0,-2.385 c -0.5325,-0.06 -1.08375,-0.11625 -1.64625,-0.1675 l 0,0 0,4.455 10.735,0 c 0.62,0 0.84,-0.36625 0.84,-0.975 l 0,0 0,-5.9125 c 0,-0.60875 -0.22,-0.97375 -0.84,-0.97375 l 0,0 -52.95625,0 z m 9.7175,3.79625 0.22375,0.36625 0.175,-0.41 c -0.13375,0.015 -0.26875,0.0288 -0.39875,0.0437 m 39.54875,1.2875 0.695,0 c 0.3475,0 0.615,-0.0812 0.81625,-0.21125 l 0,0 c -0.45375,-0.1475 -0.96,-0.2875 -1.51125,-0.4175 l 0,0 0,0.62875 z m -46.74375,-0.1025 c 0.009,0 0.0163,0 0.0238,0 l 0,0 c 0.24375,0 0.38375,-0.0513 0.45625,-0.12 l 0,0 c -0.165,0.04 -0.32375,0.0788 -0.48,0.12"
         style="fill:url(#linearGradient11068);stroke:none"
         id="path11086"
         inkscape:connector-curvature="0" />
      <path
         d="m 290.00827,409.05754 28.5925,0 0,-0.22625 -28.5925,0 0,0.22625 z m 14.2025,2.63875 0,0.58375 1.73,0 c 0.009,0.0488 0.0188,0.11375 0.03,0.195 l 0,0 c 0.01,0.0813 0.0137,0.16875 0.0137,0.26125 l 0,0 c 0,0.1975 -0.0387,0.3325 -0.1175,0.4025 l 0,0 c -0.0788,0.0713 -0.1775,0.1075 -0.29375,0.1075 l 0,0 -1.3625,0 0,0.83375 1.9725,0 c 0.01,0.055 0.02,0.12875 0.03,0.225 l 0,0 c 0.01,0.0962 0.015,0.19125 0.015,0.28375 l 0,0 c 0,0.2125 -0.0425,0.36 -0.125,0.44375 l 0,0 c -0.085,0.0838 -0.18875,0.125 -0.3175,0.125 l 0,0 -2.1125,0 c -0.1375,0 -0.24875,-0.015 -0.335,-0.0437 l 0,0 c -0.0863,-0.0288 -0.1525,-0.07 -0.19875,-0.12125 l 0,0 c -0.0475,-0.0525 -0.0788,-0.115 -0.095,-0.18875 l 0,0 c -0.0187,-0.0738 -0.0263,-0.1525 -0.0263,-0.23625 l 0,0 0,-2.8625 c -0.28625,0.004 -0.57125,0.006 -0.8575,0.01 l 0,0 0,3.38375 c -0.0688,0.0337 -0.15125,0.0575 -0.25,0.07 l 0,0 c -0.0987,0.0125 -0.19375,0.0188 -0.2875,0.0188 l 0,0 c -0.23125,0 -0.40125,-0.0325 -0.515,-0.0962 l 0,0 c -0.1125,-0.0638 -0.20625,-0.1525 -0.28,-0.265 l 0,0 -1.78875,-2.865 0,2.73875 c 0,0.1375 -0.0425,0.25375 -0.125,0.3475 l 0,0 c -0.0838,0.0937 -0.24125,0.14 -0.47125,0.14 l 0,0 c -0.0987,0 -0.19375,-0.005 -0.2875,-0.015 l 0,0 c -0.0937,-0.009 -0.1725,-0.0213 -0.235,-0.0363 l 0,0 0,-3.3175 c -0.2875,0.01 -0.5725,0.02 -0.85875,0.0312 l 0,0 0,2.82 c 0,0.14375 -0.0438,0.265 -0.1325,0.36625 l 0,0 c -0.0875,0.10125 -0.25375,0.15125 -0.5,0.15125 l 0,0 c -0.1025,0 -0.205,-0.005 -0.305,-0.015 l 0,0 c -0.10125,-0.009 -0.18625,-0.0213 -0.255,-0.0363 l 0,0 0,-3.23625 c -1.01375,0.0462 -2.0125,0.0987 -2.99125,0.15875 l 0,0 c -0.0263,0.0487 -0.05,0.1 -0.0712,0.15375 l 0,0 c -0.065,0.1625 -0.0962,0.345 -0.0962,0.54625 l 0,0 c 0,0.21125 0.0312,0.4025 0.0962,0.56875 l 0,0 c 0.0637,0.1675 0.15,0.30875 0.26,0.42375 l 0,0 c 0.1125,0.11625 0.2425,0.205 0.39375,0.26625 l 0,0 c 0.15375,0.0613 0.315,0.0925 0.48625,0.0925 l 0,0 c 0.10875,0 0.20375,-0.008 0.28875,-0.0225 l 0,0 c 0.0825,-0.015 0.1575,-0.0288 0.22375,-0.0437 l 0,0 c 0.0663,-0.0163 0.12875,-0.03 0.1875,-0.045 l 0,0 c 0.0587,-0.015 0.12,-0.0213 0.185,-0.0213 l 0,0 c 0.3575,0 0.5175,0.32625 0.4775,0.98125 l 0,0 c -0.20125,0.0837 -0.425,0.1525 -0.67375,0.20625 l 0,0 c -0.2475,0.0538 -0.49625,0.0813 -0.7475,0.0813 l 0,0 c -0.34875,0 -0.66875,-0.0625 -0.96375,-0.1875 l 0,0 c -0.295,-0.12625 -0.55,-0.3 -0.76625,-0.52125 l 0,0 c -0.21625,-0.22125 -0.385,-0.485 -0.5075,-0.79 l 0,0 c -0.12375,-0.305 -0.18375,-0.63375 -0.18375,-0.98875 l 0,0 c 0,-0.2125 0.0238,-0.4175 0.07,-0.6125 l 0,0 c -0.5175,0.035 -1.025,0.0725 -1.52875,0.1125 l 0,0 0,4.435 28.5925,0 0,-0.004 0,-4.455 c -0.8175,-0.0763 -1.66125,-0.1425 -2.5325,-0.20125 l 0,0 0.97,3.065 c -0.0838,0.0337 -0.185,0.06 -0.3025,0.0775 l 0,0 c -0.1175,0.0175 -0.23375,0.0263 -0.34625,0.0263 l 0,0 c -0.1275,0 -0.25125,-0.0213 -0.3725,-0.0625 l 0,0 c -0.11875,-0.0425 -0.20625,-0.13625 -0.26,-0.285 l 0,0 -0.25125,-0.76125 -1.605,0 -0.2125,0.7175 c -0.055,0.17125 -0.14625,0.28 -0.2725,0.325 l 0,0 c -0.1275,0.0438 -0.2625,0.0663 -0.405,0.0663 l 0,0 c -0.0937,0 -0.2,-0.009 -0.32125,-0.0263 l 0,0 c -0.12,-0.0175 -0.21875,-0.04 -0.2975,-0.07 l 0,0 1.0525,-3.22375 c -0.54375,-0.0263 -1.0925,-0.0487 -1.64625,-0.07 l 0,0 0.3025,3.26375 c -0.0688,0.025 -0.15125,0.05 -0.24625,0.075 l 0,0 c -0.0962,0.0238 -0.20125,0.0362 -0.31375,0.0362 l 0,0 c -0.1575,0 -0.29,-0.0275 -0.39625,-0.0813 l 0,0 c -0.10875,-0.055 -0.16875,-0.155 -0.17875,-0.3025 l 0,0 -0.11,-1.595 c -0.025,-0.28 -0.045,-0.57375 -0.0613,-0.88125 l 0,0 c -0.0112,-0.19 -0.02,-0.37125 -0.025,-0.55 l 0,0 c -0.0337,-0.001 -0.0675,-0.001 -0.1025,-0.001 l 0,0 c -0.0387,0.16 -0.0762,0.33 -0.11625,0.50625 l 0,0 c -0.0663,0.29875 -0.13375,0.5725 -0.2025,0.8225 l 0,0 -0.3025,1.25625 c -0.0725,0.295 -0.30625,0.4425 -0.69875,0.4425 l 0,0 c -0.0987,0 -0.19875,-0.01 -0.3025,-0.03 l 0,0 c -0.1025,-0.0188 -0.19125,-0.0413 -0.26375,-0.0663 l 0,0 -0.37625,-1.565 c -0.0725,-0.29 -0.14125,-0.57625 -0.20625,-0.85625 l 0,0 c -0.0437,-0.19 -0.0837,-0.37875 -0.1225,-0.56875 l 0,0 c -0.03,-0.001 -0.0575,-0.001 -0.0875,-0.001 l 0,0 c -0.0125,0.28875 -0.0275,0.55875 -0.0475,0.81 l 0,0 c -0.025,0.3275 -0.0462,0.61 -0.0662,0.84625 l 0,0 -0.1175,1.43875 c -0.01,0.1425 -0.065,0.24 -0.1625,0.295 l 0,0 c -0.0975,0.0537 -0.225,0.0813 -0.3825,0.0813 l 0,0 c -0.11375,0 -0.2125,-0.0113 -0.2975,-0.0337 l 0,0 c -0.0863,-0.0225 -0.16125,-0.0475 -0.225,-0.0775 l 0,0 0.33,-3.3725 c -0.64,-0.006 -1.2825,-0.009 -1.9275,-0.009 l 0,0 c -0.2925,0 -0.5875,0 -0.88125,0.001 m 4.85,0.1775 c 0.0538,0.24625 0.11125,0.5175 0.1725,0.815 l 0,0 c 0.0612,0.2975 0.11625,0.605 0.16625,0.91875 l 0,0 0.0288,0 c 0.0537,-0.31375 0.11,-0.62 0.16875,-0.915 l 0,0 c 0.0588,-0.295 0.12,-0.56625 0.18375,-0.8125 l 0,0 0.0325,-0.1275 c -0.26,-0.007 -0.52125,-0.0125 -0.7825,-0.0188 l 0,0 0.03,0.14 z m -9.01625,-0.1175 1.03375,1.63 0,-1.6525 c -0.345,0.006 -0.68875,0.0138 -1.03375,0.0225 m 14.115,1.415 1.10125,0 -0.37,-1.2125 c -0.1175,-0.006 -0.235,-0.0125 -0.355,-0.02 l 0,0 -0.37625,1.2325 z"
         style="fill:url(#linearGradient11098);stroke:none"
         id="path11110"
         inkscape:connector-curvature="0" />
      <path
         d="m 293.88877,415.24629 c -0.34875,0 -0.67,-0.0625 -0.965,-0.18875 -0.29375,-0.125 -0.54875,-0.29875 -0.765,-0.52 -0.21625,-0.22125 -0.385,-0.48375 -0.50875,-0.79 -0.1225,-0.305 -0.18375,-0.63375 -0.18375,-0.98875 0,-0.34375 0.0612,-0.66625 0.18375,-0.96625 0.12375,-0.3 0.2925,-0.56125 0.50875,-0.7825 0.21625,-0.22125 0.47125,-0.395 0.765,-0.52125 0.295,-0.125 0.61625,-0.1875 0.965,-0.1875 0.25,0 0.49375,0.0275 0.72875,0.0813 0.23625,0.0537 0.45375,0.1225 0.655,0.20625 0.045,0.655 -0.115,0.9825 -0.47875,0.9825 -0.0637,0 -0.1225,-0.007 -0.17625,-0.0225 -0.0538,-0.015 -0.1125,-0.03 -0.17625,-0.045 -0.0637,-0.0137 -0.135,-0.0288 -0.21375,-0.0437 -0.0788,-0.015 -0.1725,-0.0225 -0.28,-0.0225 -0.17125,0 -0.33375,0.0312 -0.48625,0.0925 -0.15125,0.0613 -0.2825,0.15 -0.39375,0.26625 -0.11,0.115 -0.1975,0.25375 -0.26125,0.41625 -0.0637,0.1625 -0.095,0.345 -0.095,0.54625 0,0.2125 0.0312,0.40125 0.095,0.56875 0.0638,0.1675 0.15125,0.30875 0.26125,0.42375 0.11125,0.11625 0.2425,0.205 0.39375,0.26625 0.1525,0.0613 0.315,0.0925 0.48625,0.0925 0.1075,0 0.20375,-0.008 0.2875,-0.0225 0.0837,-0.015 0.1575,-0.03 0.22375,-0.0437 0.0662,-0.015 0.12875,-0.03 0.18875,-0.045 0.0588,-0.015 0.12,-0.0225 0.18375,-0.0225 0.3575,0 0.5175,0.3275 0.47875,0.9825 -0.20125,0.0837 -0.42625,0.1525 -0.67375,0.20625 -0.24875,0.0538 -0.4975,0.0813 -0.7475,0.0813"
         style="fill:#ffffff;fill-opacity:1;fill-rule:nonzero;stroke:none"
         id="path11122"
         inkscape:connector-curvature="0" />
      <path
         d="m 296.42939,415.18741 c -0.1025,0 -0.205,-0.005 -0.305,-0.015 -0.10125,-0.01 -0.18625,-0.0225 -0.255,-0.0362 l 0,-4.27375 c 0,-0.1425 0.045,-0.265 0.1325,-0.365 0.0888,-0.10125 0.25625,-0.1525 0.50125,-0.1525 0.1025,0 0.205,0.005 0.305,0.015 0.10125,0.01 0.18625,0.0225 0.255,0.0375 l 0,4.27375 c 0,0.1425 -0.045,0.26375 -0.1325,0.365 -0.0888,0.10125 -0.25625,0.15125 -0.50125,0.15125"
         style="fill:#ffffff;fill-opacity:1;fill-rule:nonzero;stroke:none"
         id="path11126"
         inkscape:connector-curvature="0" />
      <path
         d="m 298.44302,415.18741 c -0.0987,0 -0.19375,-0.005 -0.2875,-0.015 -0.0925,-0.01 -0.17125,-0.0225 -0.235,-0.0362 l 0,-4.7025 c 0.0737,-0.0237 0.16875,-0.045 0.2875,-0.0625 0.1175,-0.0175 0.2175,-0.0262 0.30125,-0.0262 0.27,0 0.46625,0.035 0.58875,0.10375 0.1225,0.0687 0.22625,0.17 0.31,0.3025 l 1.67125,2.635 0,-2.56875 c 0,-0.0637 0.007,-0.12375 0.025,-0.18 0.0175,-0.0562 0.0462,-0.1075 0.0888,-0.15125 0.0412,-0.045 0.0987,-0.0787 0.1725,-0.10375 0.0738,-0.025 0.1675,-0.0375 0.28,-0.0375 0.0987,0 0.1925,0.005 0.28375,0.015 0.09,0.01 0.1675,0.02 0.23125,0.03 l 0,4.70875 c -0.0688,0.035 -0.15125,0.0575 -0.25,0.07 -0.0975,0.0125 -0.19375,0.0188 -0.2875,0.0188 -0.23,0 -0.4025,-0.0325 -0.515,-0.0962 -0.1125,-0.0638 -0.20625,-0.1525 -0.28,-0.265 l -1.78875,-2.86375 0,2.7375 c 0,0.13875 -0.0412,0.25375 -0.125,0.3475 -0.0838,0.0937 -0.24125,0.14 -0.47125,0.14"
         style="fill:#ffffff;fill-opacity:1;fill-rule:nonzero;stroke:none"
         id="path11130"
         inkscape:connector-curvature="0" />
      <path
         d="m 303.67302,415.15779 c -0.1375,0 -0.24875,-0.015 -0.335,-0.0437 -0.0862,-0.03 -0.1525,-0.07 -0.19875,-0.1225 -0.0462,-0.0512 -0.0788,-0.11375 -0.0962,-0.1875 -0.0163,-0.0737 -0.025,-0.1525 -0.025,-0.23625 l 0,-3.6175 c 0,-0.0838 0.009,-0.1625 0.025,-0.23625 0.0175,-0.0738 0.05,-0.13625 0.0962,-0.1875 0.0462,-0.0525 0.1125,-0.0925 0.19875,-0.1225 0.0863,-0.0288 0.1975,-0.0437 0.335,-0.0437 l 2.43625,0 c 0.01,0.0537 0.02,0.1275 0.03,0.22125 0.01,0.0937 0.015,0.19 0.015,0.2875 0,0.2075 -0.0425,0.35375 -0.125,0.44 -0.0838,0.0863 -0.18875,0.12875 -0.3175,0.12875 l -1.50125,0 0,0.84125 1.73,0 c 0.01,0.05 0.02,0.115 0.03,0.19625 0.009,0.0813 0.0137,0.16875 0.0137,0.26125 0,0.1975 -0.0387,0.33125 -0.1175,0.4025 -0.0787,0.0712 -0.17625,0.1075 -0.29375,0.1075 l -1.3625,0 0,0.83375 1.9725,0 c 0.01,0.0538 0.02,0.12875 0.03,0.225 0.01,0.0962 0.015,0.19125 0.015,0.28375 0,0.2125 -0.0425,0.36 -0.125,0.44375 -0.0838,0.0838 -0.19,0.125 -0.3175,0.125 l -2.1125,0"
         style="fill:#ffffff;fill-opacity:1;fill-rule:nonzero;stroke:none"
         id="path11134"
         inkscape:connector-curvature="0" />
      <path
         d="m 307.21214,415.18741 c -0.1125,0 -0.2125,-0.0113 -0.29875,-0.0337 -0.085,-0.0213 -0.16,-0.0475 -0.22375,-0.0775 l 0.45,-4.5975 c 0.0925,-0.04 0.21625,-0.0712 0.3675,-0.0962 0.1525,-0.025 0.2825,-0.0375 0.39,-0.0375 0.1525,0 0.28375,0.01 0.39375,0.03 0.11125,0.02 0.205,0.0525 0.28375,0.1 0.0788,0.0462 0.14125,0.11125 0.1875,0.195 0.0462,0.0838 0.0825,0.1875 0.10625,0.31 l 0.19125,0.89375 c 0.055,0.24625 0.1125,0.5175 0.17375,0.815 0.0613,0.2975 0.11625,0.605 0.165,0.91875 l 0.03,0 c 0.0538,-0.31375 0.11,-0.62 0.16875,-0.915 0.0587,-0.295 0.12,-0.565 0.18375,-0.81125 l 0.235,-0.9375 c 0.0587,-0.23125 0.15375,-0.38875 0.28375,-0.4725 0.13,-0.0838 0.33125,-0.12625 0.60625,-0.12625 0.1375,0 0.275,0.0112 0.415,0.0337 0.14,0.0225 0.25625,0.0462 0.35,0.07 l 0.43,4.6275 c -0.0687,0.025 -0.15125,0.05 -0.24625,0.0737 -0.0962,0.025 -0.20125,0.0375 -0.31375,0.0375 -0.15625,0 -0.29,-0.0275 -0.3975,-0.0813 -0.1075,-0.0537 -0.16625,-0.155 -0.17625,-0.3025 l -0.11125,-1.59375 c -0.0238,-0.28125 -0.045,-0.575 -0.0625,-0.8825 -0.0163,-0.3075 -0.0275,-0.59875 -0.0325,-0.875 l -0.015,0 c -0.0637,0.25625 -0.12875,0.5325 -0.195,0.83 -0.0662,0.29875 -0.13375,0.5725 -0.2025,0.82375 l -0.30125,1.255 c -0.0738,0.295 -0.3075,0.4425 -0.7,0.4425 -0.0988,0 -0.19875,-0.01 -0.30125,-0.03 -0.10375,-0.0188 -0.1925,-0.0412 -0.265,-0.0663 l -0.37625,-1.565 c -0.0737,-0.29 -0.1425,-0.575 -0.20625,-0.85625 -0.0638,-0.28 -0.1225,-0.56 -0.17625,-0.84125 l -0.0225,0 c -0.015,0.39375 -0.0337,0.755 -0.0587,1.08125 -0.025,0.3275 -0.0463,0.61 -0.0663,0.845 l -0.1175,1.44 c -0.01,0.1425 -0.0637,0.24125 -0.1625,0.295 -0.0975,0.0538 -0.225,0.0813 -0.3825,0.0813"
         style="fill:#ffffff;fill-opacity:1;fill-rule:nonzero;stroke:none"
         id="path11138"
         inkscape:connector-curvature="0" />
      <path
         d="m 314.15889,413.17241 1.10125,0 -0.54875,-1.80875 -0.5525,1.80875 m -1.14875,2.03 c -0.0925,0 -0.2,-0.009 -0.32,-0.0263 -0.12,-0.0175 -0.22,-0.04 -0.2975,-0.07 l 1.5275,-4.68 c 0.1325,-0.0337 0.26625,-0.0587 0.4025,-0.0737 0.135,-0.0138 0.25875,-0.0213 0.3725,-0.0213 0.1625,0 0.30125,0.0125 0.41625,0.0362 0.11625,0.025 0.21375,0.0625 0.2925,0.11125 0.0788,0.0487 0.14375,0.11375 0.195,0.195 0.0525,0.0813 0.095,0.17625 0.13,0.285 l 1.30875,4.14 c -0.0838,0.035 -0.18375,0.06 -0.30125,0.0775 -0.11875,0.0175 -0.23375,0.0263 -0.34625,0.0263 -0.1275,0 -0.2525,-0.0213 -0.3725,-0.0625 -0.12,-0.0425 -0.2075,-0.1375 -0.26125,-0.285 l -0.25,-0.76 -1.60625,0 -0.2125,0.71625 c -0.0537,0.1725 -0.145,0.28 -0.2725,0.325 -0.1275,0.0437 -0.2625,0.0662 -0.405,0.0662"
         style="fill:#ffffff;fill-opacity:1;fill-rule:nonzero;stroke:none"
         id="path11142"
         inkscape:connector-curvature="0" />
      <path
         d="m 323.14227,412.25704 0,-1.11 c 0,-0.30125 0.12,-0.4925 0.74125,-0.4925 0.0763,0 0.1425,0.005 0.21875,0.0175 l 0,3.64125 c 0,0.3 -0.12,0.49125 -0.7425,0.49125 -0.0763,0 -0.14125,-0.006 -0.2175,-0.0175 l 0,-1.65375 -1.93375,0 0,1.18 c 0,0.3 -0.12125,0.49125 -0.74375,0.49125 -0.075,0 -0.14,-0.006 -0.2175,-0.0175 l 0,-3.64 c 0,-0.30125 0.12,-0.4925 0.7425,-0.4925 0.0762,0 0.14125,0.005 0.21875,0.0175 l 0,1.585 1.93375,0 m 5.5075,0.4675 c 0,-1.2375 -0.89125,-2.07625 -2.365,-2.07625 l -1.00375,0 c -0.48125,0 -0.59625,0.25375 -0.59625,0.58625 l 0,2.9875 c 0,0.31875 0.115,0.57875 0.59625,0.57875 l 1.00375,0 c 1.47375,0 2.365,-0.83875 2.365,-2.07625 m -3.00375,1.1875 0,-2.375 0.695,0 c 0.965,0 1.32,0.625 1.32,1.1875 0,0.56375 -0.355,1.1875 -1.32,1.1875 l -0.695,0"
         style="fill:#a90e3a;fill-opacity:1;fill-rule:nonzero;stroke:none"
         id="path11146"
         inkscape:connector-curvature="0" />
      <path
         d="m 280.54214,413.51504 c 0,0.6725 -0.44,1.165 -1.33375,1.2625 -0.6475,0.0688 -1.585,-0.0125 -2.03,-0.0637 -0.0162,-0.0738 -0.0288,-0.16375 -0.0288,-0.235 0,-0.58875 0.3175,-0.7225 0.61625,-0.7225 0.31,0 0.7975,0.0538 1.16,0.0538 0.39875,0 0.52125,-0.13625 0.52125,-0.265 0,-0.16875 -0.16125,-0.23875 -0.47125,-0.29875 l -0.8475,-0.1625 c -0.705,-0.135 -1.0825,-0.62375 -1.0825,-1.14125 0,-0.63 0.44625,-1.15625 1.3225,-1.25375 0.6625,-0.0712 1.46875,0.01 1.91125,0.0638 0.0163,0.0763 0.025,0.1475 0.025,0.2275 0,0.58625 -0.31,0.7125 -0.6075,0.7125 -0.23,0 -0.585,-0.0425 -0.99125,-0.0425 -0.41375,0 -0.585,0.115 -0.585,0.25375 0,0.14625 0.16375,0.2075 0.4225,0.2525 l 0.81,0.15125 c 0.8325,0.1525 1.18875,0.62625 1.18875,1.2075 m 1.45375,0.7225 c 0,0.36125 -0.14125,0.56875 -0.84625,0.56875 -0.0925,0 -0.175,-0.006 -0.2525,-0.0175 l 0,-4.78875 c 0,-0.36375 0.12375,-0.74375 0.835,-0.74375 0.09,0 0.18,0.01 0.26375,0.0275 l 0,4.95375 m 2.88125,1.8525 c 0.0925,0.0475 0.28125,0.105 0.52125,0.11125 0.40875,0.009 0.63125,-0.14875 0.7975,-0.515 l 2.195,-4.8975 c -0.09,-0.0487 -0.29125,-0.1025 -0.455,-0.10625 -0.2825,-0.005 -0.66125,0.0525 -0.90375,0.63 l -0.71125,1.67875 -1.39375,-2.27125 c -0.09,-0.0275 -0.31,-0.0675 -0.47125,-0.0675 -0.49125,0 -0.76625,0.18125 -1.0525,0.49125 l -1.355,1.4825 1.09,1.71625 c 0.20125,0.3125 0.4675,0.4725 0.89875,0.4725 0.2825,0 0.51625,-0.0638 0.625,-0.11625 l -1.3125,-1.98 0.93,-0.985 1.5275,2.395 -0.93,1.96125"
         style="fill:#a90e3a;fill-opacity:1;fill-rule:nonzero;stroke:none"
         id="path11150"
         inkscape:connector-curvature="0" />
      <path
         d="m 328.73952,409.05754 -10.13875,0 0,3.1775 c 0.5625,0.0512 1.11375,0.1075 1.64625,0.1675 l 0,0 0,-1.25625 c 0,-0.3 0.12125,-0.49125 0.7425,-0.49125 l 0,0 c 0.0762,0 0.1425,0.005 0.21875,0.0175 l 0,0 0,1.585 1.93375,0 0,-1.11125 c 0,-0.3 0.12,-0.49125 0.74125,-0.49125 l 0,0 c 0.0763,0 0.1425,0.005 0.21875,0.0175 l 0,0 0,2.28625 c 0.1975,0.0362 0.3925,0.075 0.5825,0.1125 l 0,0 0,-1.83625 c 0,-0.33375 0.11625,-0.58625 0.59625,-0.58625 l 0,0 1.00375,0 c 1.475,0 2.365,0.83875 2.365,2.075 l 0,0 c 0,0.54125 -0.17,1.00625 -0.48375,1.35875 l 0,0 c 0.5375,0.23625 0.96,0.49125 1.255,0.76625 l 0,0 c 0.53375,0.5275 0.605,1.02625 0.625,1.13625 l 0,0 c 0.0525,0 0.0713,-0.23375 0.0713,-0.5825 l 0,0 -0.002,-5.58 c 0,-0.64625 -0.21,-0.865 -0.7575,-0.865 l 0,0 c -0.185,0 -0.37,0.1 -0.6175,0.1 m -53.13875,0.765 -0.001,5.58 c 0,0.34875 0.0188,0.5825 0.0713,0.5825 l 0,0 c 0.0188,-0.11 0.0362,-0.64625 0.625,-1.13625 l 0,0 c 0.21125,-0.16125 0.49875,-0.31875 0.85625,-0.47125 l 0,0 c 0.0362,-0.50375 0.33375,-0.62125 0.61375,-0.62125 l 0,0 c 0.30375,0 0.7775,0.0513 1.13625,0.0538 l 0,0 c 0.15625,-0.0412 0.315,-0.08 0.48,-0.12 l 0,0 c 0.0462,-0.0437 0.065,-0.0937 0.065,-0.145 l 0,0 c 0,-0.16875 -0.1625,-0.23875 -0.47125,-0.29875 l 0,0 -0.8475,-0.1625 c -0.705,-0.13625 -1.0825,-0.6225 -1.0825,-1.14125 l 0,0 c 0,-0.62875 0.44625,-1.15625 1.3225,-1.25375 l 0,0 c 0.18625,-0.02 0.385,-0.0275 0.58125,-0.0275 l 0,0 c 0.50625,0 1.01125,0.0525 1.33,0.0913 l 0,0 c 0.0175,0.0763 0.025,0.1475 0.025,0.22625 l 0,0 c 0,0.5875 -0.31,0.71375 -0.6075,0.71375 l 0,0 c -0.23,0 -0.585,-0.0425 -0.99125,-0.0425 l 0,0 c -0.41375,0 -0.585,0.115 -0.585,0.25375 l 0,0 c 0,0.14625 0.16375,0.2075 0.4225,0.25375 l 0,0 0.81,0.14875 c 0.79625,0.1475 1.1575,0.58625 1.1875,1.13375 l 0,0 c 0.11625,-0.0225 0.23625,-0.0462 0.35625,-0.0688 l 0,0 0,-3.3725 c 0,-0.3625 0.1225,-0.74125 0.835,-0.74125 l 0,0 c 0.09,0 0.18,0.009 0.265,0.0263 l 0,0 0,3.89375 c 0.12,-0.02 0.24125,-0.0388 0.36375,-0.06 l 0,0 -0.3125,-0.49125 1.355,-1.4825 c 0.28625,-0.31 0.5625,-0.49125 1.05375,-0.49125 l 0,0 c 0.16125,0 0.38,0.04 0.47,0.0675 l 0,0 1.17,1.905 c 0.13,-0.015 0.265,-0.0288 0.39875,-0.0437 l 0,0 0.53625,-1.2675 c 0.23375,-0.55875 0.595,-0.63125 0.8725,-0.63125 l 0,0 c 0.01,0 0.0213,0 0.0312,0 l 0,0 c 0.165,0.004 0.365,0.0587 0.455,0.10625 l 0,0 -0.75125,1.67625 c 0.7675,-0.0737 1.5575,-0.1425 2.36875,-0.20625 l 0,0 0,-3.20125 -13.03,0 c -0.2475,0 -0.43375,-0.1 -0.61875,-0.1 l 0,0 c -0.5475,0 -0.75875,0.21875 -0.75875,0.865 m 50.045,1.71375 0,1.7475 c 0.55125,0.13 1.0575,0.27 1.51125,0.4175 l 0,0 c 0.3575,-0.23 0.5025,-0.61625 0.5025,-0.9775 l 0,0 c 0,-0.56125 -0.3525,-1.1875 -1.31875,-1.1875 l 0,0 -0.695,0 z"
         style="fill:url(#linearGradient24592);stroke:none"
         id="path11180"
         inkscape:connector-curvature="0" />
      <path
         d="m 290.00827,409.05754 0,3.20125 c 0.50375,-0.04 1.01125,-0.0775 1.52875,-0.1125 l 0,0 c 0.0288,-0.1225 0.0663,-0.24 0.11375,-0.35375 l 0,0 c 0.1225,-0.3 0.29125,-0.56125 0.5075,-0.7825 l 0,0 c 0.21625,-0.2225 0.47125,-0.395 0.76625,-0.52 l 0,0 c 0.295,-0.12625 0.615,-0.18875 0.96375,-0.18875 l 0,0 c 0.25125,0 0.49375,0.0263 0.73,0.08 l 0,0 c 0.235,0.0563 0.4525,0.12375 0.65375,0.2075 l 0,0 c 0.045,0.655 -0.11375,0.9825 -0.4775,0.9825 l 0,0 c -0.0637,0 -0.1225,-0.007 -0.17625,-0.0225 l 0,0 c -0.055,-0.015 -0.11375,-0.03 -0.1775,-0.0437 l 0,0 c -0.0637,-0.015 -0.135,-0.0312 -0.21375,-0.045 l 0,0 c -0.0787,-0.015 -0.17125,-0.0213 -0.28,-0.0213 l 0,0 c -0.17125,0 -0.3325,0.03 -0.48625,0.0913 l 0,0 c -0.15125,0.0613 -0.28125,0.15 -0.39375,0.26625 l 0,0 c -0.0725,0.0763 -0.135,0.16375 -0.18875,0.2625 l 0,0 c 0.97875,-0.06 1.9775,-0.1125 2.99125,-0.15875 l 0,0 0,-1.0375 c 0,-0.1425 0.0437,-0.265 0.13375,-0.36625 l 0,0 c 0.0875,-0.1 0.255,-0.15 0.5,-0.15 l 0,0 c 0.1025,0 0.205,0.004 0.305,0.0138 l 0,0 c 0.10125,0.01 0.185,0.0212 0.25375,0.0375 l 0,0 0,1.4525 c 0.28625,-0.0112 0.57125,-0.0212 0.85875,-0.0312 l 0,0 0,-1.385 c 0.0738,-0.0238 0.16875,-0.045 0.28625,-0.0625 l 0,0 c 0.1175,-0.0175 0.21875,-0.025 0.3025,-0.025 l 0,0 c 0.27,0 0.46625,0.0337 0.58875,0.1025 l 0,0 c 0.1225,0.0688 0.225,0.16875 0.30875,0.30375 l 0,0 0.6375,1.00375 c 0.345,-0.009 0.68875,-0.0162 1.03375,-0.0225 l 0,0 0,-0.915 c 0,-0.065 0.01,-0.125 0.0263,-0.18125 l 0,0 c 0.0175,-0.0562 0.0463,-0.1075 0.0888,-0.1525 l 0,0 c 0.0412,-0.0438 0.0987,-0.0788 0.1725,-0.10375 l 0,0 c 0.0738,-0.0225 0.1675,-0.035 0.28,-0.035 l 0,0 c 0.0975,0 0.1925,0.004 0.28375,0.0138 l 0,0 c 0.0913,0.01 0.1675,0.02 0.23125,0.03 l 0,0 0,1.325 c 0.28625,-0.004 0.57125,-0.006 0.8575,-0.01 l 0,0 0,-0.75375 c 0,-0.085 0.008,-0.16375 0.0263,-0.23625 l 0,0 c 0.0163,-0.075 0.0475,-0.1375 0.095,-0.18875 l 0,0 c 0.0462,-0.0525 0.1125,-0.0925 0.19875,-0.12125 l 0,0 c 0.0862,-0.03 0.1975,-0.045 0.335,-0.045 l 0,0 2.43625,0 c 0.01,0.055 0.02,0.12875 0.03,0.2225 l 0,0 c 0.01,0.0925 0.015,0.18875 0.015,0.28625 l 0,0 c 0,0.2075 -0.0425,0.35375 -0.12625,0.44 l 0,0 c -0.0825,0.085 -0.18875,0.13 -0.31625,0.13 l 0,0 -1.50125,0 0,0.2575 c 0.29375,-0.001 0.58875,-0.001 0.88125,-0.001 l 0,0 c 0.645,0 1.2875,0.002 1.9275,0.009 l 0,0 0.12,-1.225 c 0.0925,-0.04 0.215,-0.0725 0.3675,-0.0975 l 0,0 c 0.1525,-0.0225 0.2825,-0.035 0.39,-0.035 l 0,0 c 0.1525,0 0.28375,0.009 0.39375,0.0288 l 0,0 c 0.11,0.0188 0.205,0.0525 0.28375,0.0987 l 0,0 c 0.0788,0.0475 0.14125,0.1125 0.1875,0.19625 l 0,0 c 0.0462,0.0838 0.0825,0.1875 0.1075,0.31 l 0,0 0.16125,0.75375 c 0.26125,0.006 0.5225,0.0113 0.7825,0.0188 l 0,0 0.20375,-0.80875 c 0.0587,-0.2325 0.1525,-0.38875 0.2825,-0.4725 l 0,0 c 0.12875,-0.0838 0.33125,-0.125 0.60625,-0.125 l 0,0 c 0.1375,0 0.275,0.01 0.415,0.0325 l 0,0 c 0.14,0.0225 0.25625,0.0463 0.35,0.07 l 0,0 0.1275,1.36375 c 0.55375,0.0213 1.1025,0.0437 1.64625,0.07 l 0,0 0.475,-1.455 c 0.1325,-0.035 0.2675,-0.06 0.4025,-0.075 l 0,0 c 0.135,-0.015 0.26,-0.0225 0.3725,-0.0225 l 0,0 c 0.16375,0 0.30125,0.0125 0.4175,0.0375 l 0,0 c 0.11625,0.025 0.2125,0.0612 0.29125,0.11125 l 0,0 c 0.0787,0.05 0.14375,0.11375 0.19625,0.19625 l 0,0 c 0.0513,0.08 0.0937,0.175 0.12875,0.2825 l 0,0 0.34,1.07625 c 0.87125,0.0587 1.715,0.125 2.5325,0.20125 l 0,0 0,-3.1775 -28.5925,0 z m 24.5275,2.88125 c 0.12,0.007 0.2375,0.0138 0.355,0.02 l 0,0 -0.17875,-0.595 -0.17625,0.575 z m -6.53625,-0.49375 c -0.004,0.0925 -0.006,0.1825 -0.0113,0.27125 l 0,0 c 0.03,0 0.0575,0 0.0875,0.001 l 0,0 c -0.0187,-0.0913 -0.0362,-0.18125 -0.0537,-0.2725 l 0,0 -0.0225,0 z m 2.74625,0.007 c -0.0263,0.10375 -0.0512,0.21125 -0.0788,0.32375 l 0,0 c 0.035,0 0.0688,0 0.1025,0.001 l 0,0 c -0.005,-0.11 -0.006,-0.21875 -0.009,-0.325 l 0,0 -0.015,0 z"
         style="fill:url(#linearGradient11192);stroke:none"
         id="path11204"
         inkscape:connector-curvature="0" />
      <path
         d="m 291.53689,412.14554 c 0.0287,-0.12125 0.0662,-0.23875 0.11375,-0.35375 0.1225,-0.3 0.2925,-0.56125 0.5075,-0.7825 0.21625,-0.22125 0.47125,-0.395 0.76625,-0.52 0.295,-0.125 0.61625,-0.1875 0.965,-0.1875 0.25,0 0.4925,0.0263 0.72875,0.08 0.235,0.055 0.45375,0.12375 0.655,0.2075 0.0437,0.65375 -0.11625,0.98125 -0.47875,0.98125 -0.0638,0 -0.1225,-0.007 -0.17625,-0.0225 -0.055,-0.0138 -0.11375,-0.0288 -0.1775,-0.0437 -0.0637,-0.015 -0.135,-0.03 -0.21375,-0.0438 -0.0775,-0.015 -0.17125,-0.0225 -0.27875,-0.0225 -0.1725,0 -0.33375,0.03 -0.48625,0.0925 -0.1525,0.0613 -0.28375,0.15 -0.39375,0.265 -0.0738,0.0775 -0.1375,0.165 -0.19,0.2625 -0.45125,0.0275 -0.9,0.0575 -1.34125,0.0875"
         style="fill:#ffffff;fill-opacity:1;fill-rule:nonzero;stroke:none"
         id="path11216"
         inkscape:connector-curvature="0" />
      <path
         d="m 295.86989,411.90029 0,-1.03875 c 0,-0.1425 0.0437,-0.26375 0.1325,-0.365 0.0888,-0.1 0.255,-0.15125 0.50125,-0.15125 0.1025,0 0.20375,0.005 0.305,0.015 0.1,0.01 0.185,0.0225 0.25375,0.0362 l 0,1.45375 c -0.39875,0.015 -0.7975,0.0325 -1.1925,0.05"
         style="fill:#ffffff;fill-opacity:1;fill-rule:nonzero;stroke:none"
         id="path11220"
         inkscape:connector-curvature="0" />
      <path
         d="m 297.92027,411.81891 0,-1.385 c 0.0737,-0.025 0.16875,-0.045 0.2875,-0.0625 0.1175,-0.0175 0.2175,-0.0263 0.30125,-0.0263 0.27,0 0.46625,0.035 0.58875,0.10375 0.1225,0.0687 0.22625,0.17 0.31,0.3025 l 0.6375,1.005 c -0.71125,0.0175 -1.4225,0.0375 -2.125,0.0625 m 3.15875,-0.085 0,-0.91625 c 0,-0.0637 0.009,-0.12375 0.025,-0.18 0.0175,-0.0575 0.0475,-0.1075 0.0888,-0.15125 0.0412,-0.045 0.1,-0.0787 0.1725,-0.10375 0.0738,-0.025 0.1675,-0.0375 0.28,-0.0375 0.0987,0 0.1925,0.005 0.28375,0.015 0.0913,0.01 0.1675,0.02 0.2325,0.03 l 0,1.325 c -0.3625,0.005 -0.72125,0.0112 -1.0825,0.0187"
         style="fill:#ffffff;fill-opacity:1;fill-rule:nonzero;stroke:none"
         id="path11224"
         inkscape:connector-curvature="0" />
      <path
         d="m 303.01777,411.70491 0,-0.75375 c 0,-0.0838 0.009,-0.1625 0.0263,-0.23625 0.0163,-0.0737 0.0487,-0.1375 0.095,-0.18875 0.0462,-0.0512 0.1125,-0.0925 0.19875,-0.12125 0.0863,-0.03 0.1975,-0.045 0.335,-0.045 l 2.4375,0 c 0.01,0.055 0.0188,0.12875 0.0288,0.22125 0.01,0.0937 0.015,0.19 0.015,0.28875 0,0.20625 -0.0412,0.3525 -0.125,0.43875 -0.0838,0.0863 -0.18875,0.12875 -0.31625,0.12875 l -1.5025,0 0,0.25875 c -0.39625,0.001 -0.795,0.005 -1.1925,0.009"
         style="fill:#ffffff;fill-opacity:1;fill-rule:nonzero;stroke:none"
         id="path11228"
         inkscape:connector-curvature="0" />
      <path
         d="m 311.79714,411.81292 c -0.34125,-0.0125 -0.6825,-0.0238 -1.02875,-0.035 -0.002,-0.11 -0.006,-0.21875 -0.007,-0.325 l -0.015,0 c -0.0262,0.10375 -0.0525,0.21125 -0.0787,0.3225 -0.2825,-0.009 -0.56875,-0.0163 -0.85375,-0.0238 l 0.2025,-0.80875 c 0.0587,-0.23125 0.15375,-0.38875 0.28375,-0.4725 0.13,-0.0825 0.33125,-0.125 0.60625,-0.125 0.1375,0 0.275,0.0113 0.415,0.0337 0.14,0.0213 0.25625,0.045 0.34875,0.07 l 0.1275,1.36375 m -2.76625,-0.0788 c -0.3175,-0.006 -0.63625,-0.0125 -0.955,-0.0175 -0.0188,-0.09 -0.0362,-0.18125 -0.0538,-0.27125 l -0.0225,0 c -0.004,0.0913 -0.007,0.1825 -0.0113,0.27 -0.32125,-0.005 -0.645,-0.009 -0.96875,-0.0113 l 0.12,-1.22625 c 0.0925,-0.0387 0.21625,-0.0712 0.3675,-0.095 0.1525,-0.025 0.2825,-0.0375 0.39,-0.0375 0.1525,0 0.28375,0.01 0.39375,0.03 0.11125,0.0187 0.205,0.0525 0.28375,0.0987 0.0788,0.0475 0.14125,0.1125 0.1875,0.19625 0.0462,0.0838 0.0825,0.1875 0.10625,0.31 l 0.1625,0.75375"
         style="fill:#ffffff;fill-opacity:1;fill-rule:nonzero;stroke:none"
         id="path11232"
         inkscape:connector-curvature="0" />
      <path
         d="m 316.06852,412.03316 c -0.3875,-0.0263 -0.78,-0.0512 -1.17625,-0.0738 l -0.18125,-0.595 -0.175,0.57375 c -0.36,-0.02 -0.725,-0.0387 -1.09125,-0.0562 l 0.475,-1.455 c 0.1325,-0.035 0.2675,-0.0588 0.4025,-0.0738 0.135,-0.015 0.26,-0.0225 0.3725,-0.0225 0.1625,0 0.30125,0.0125 0.4175,0.0375 0.115,0.0238 0.2125,0.0613 0.29125,0.11 0.0788,0.05 0.14375,0.115 0.19625,0.19625 0.0513,0.0812 0.0937,0.175 0.12875,0.28375 l 0.34,1.075"
         style="fill:#ffffff;fill-opacity:1;fill-rule:nonzero;stroke:none"
         id="path11236"
         inkscape:connector-curvature="0" />
      <path
         d="m 328.16514,414.08167 c -0.30125,-0.1325 -0.6375,-0.25875 -1.0075,-0.38 0.3575,-0.23125 0.5025,-0.61625 0.5025,-0.9775 0,-0.56125 -0.35375,-1.1875 -1.32,-1.1875 l -0.69375,0 0,1.74625 c -0.3075,-0.0738 -0.6275,-0.14375 -0.96125,-0.21125 l 0,-1.8375 c 0,-0.3325 0.115,-0.58625 0.59625,-0.58625 l 1.0025,0 c 1.475,0 2.36625,0.84 2.36625,2.07625 0,0.54125 -0.17,1.00625 -0.485,1.3575 m -4.06375,-1.1225 c -1.15625,-0.21375 -2.45,-0.39875 -3.85375,-0.55625 l 0,-1.25625 c 0,-0.3 0.12,-0.49125 0.74125,-0.49125 0.0775,0 0.1425,0.005 0.21875,0.0163 l 0,1.585 1.935,0 0,-1.11 c 0,-0.3 0.12,-0.49125 0.74,-0.49125 0.0775,0 0.1425,0.005 0.21875,0.0163 l 0,2.2875"
         style="fill:#c9747a;fill-opacity:1;fill-rule:nonzero;stroke:none"
         id="path11240"
         inkscape:connector-curvature="0" />
      <path
         d="m 283.34952,412.71879 0.1525,0.22875 c 0.4625,-0.065 0.94,-0.12625 1.4325,-0.1875 l 0,0 -0.65375,-1.0275 -0.93125,0.98625 z"
         style="fill:url(#linearGradient24594);stroke:none"
         id="path11270"
         inkscape:connector-curvature="0" />
      <path
         d="m 277.15277,414.37754 c 0.035,-0.5025 0.3325,-0.62125 0.6125,-0.62125 0.30375,0 0.7775,0.0513 1.1375,0.0538 -0.6925,0.17875 -1.2825,0.36875 -1.75,0.5675 m 2.22875,-0.68625 c 0.0462,-0.045 0.065,-0.0962 0.065,-0.14625 0,-0.16875 -0.16125,-0.23875 -0.47,-0.29875 l -0.8475,-0.1625 c -0.70625,-0.135 -1.0825,-0.62375 -1.0825,-1.14125 0,-0.63 0.445,-1.15625 1.32125,-1.25375 0.1875,-0.02 0.385,-0.0275 0.5825,-0.0275 0.505,0 1.01125,0.0525 1.33,0.0913 0.0163,0.0763 0.0238,0.1475 0.0238,0.2275 0,0.58625 -0.30875,0.7125 -0.6075,0.7125 -0.22875,0 -0.585,-0.0425 -0.99125,-0.0425 -0.4125,0 -0.585,0.115 -0.585,0.25375 0,0.14625 0.16375,0.2075 0.4225,0.2525 l 0.81,0.15125 c 0.79625,0.14625 1.1575,0.585 1.1875,1.1325 -0.40875,0.0813 -0.79625,0.165 -1.15875,0.25125 m 1.515,-0.32 0,-3.37125 c 0,-0.36375 0.12375,-0.74375 0.83625,-0.74375 0.0888,0 0.18,0.01 0.26375,0.0275 l 0,3.89375 c -0.38125,0.0625 -0.7475,0.1275 -1.1,0.19375 m 1.46375,-0.2525 -0.31125,-0.4925 1.355,-1.4825 c 0.285,-0.31 0.56125,-0.49125 1.0525,-0.49125 0.16125,0 0.38125,0.04 0.47125,0.0675 l 1.16875,1.905 c -0.39625,0.0437 -0.7825,0.0888 -1.1625,0.135 l -0.65375,-1.02625 -0.93,0.985 0.15125,0.22875 c -0.39125,0.055 -0.7725,0.1125 -1.14125,0.17125 m 4.135,-0.5375 0.5375,-1.26875 c 0.23375,-0.55625 0.59375,-0.63 0.8725,-0.63 0.01,0 0.02,0 0.03,0 0.165,0.004 0.365,0.0575 0.45625,0.10625 l -0.7525,1.67625 c -0.3875,0.0375 -0.76875,0.0763 -1.14375,0.11625"
         style="fill:#c9747a;fill-opacity:1;fill-rule:nonzero;stroke:none"
         id="path11282"
         inkscape:connector-curvature="0" />
    </g>
    <g
       id="g4406">
      <path
         d="m 298.75014,421.87129 c -0.0487,0 -0.0962,-0.002 -0.14375,-0.006 -0.0475,-0.005 -0.0837,-0.01 -0.1075,-0.0163 l 0,-2.77125 c 0,-0.0612 0.0187,-0.1125 0.0575,-0.1525 0.0375,-0.0413 0.105,-0.0625 0.2025,-0.0625 0.0487,0 0.0975,0.002 0.145,0.007 0.0462,0.004 0.0825,0.01 0.10625,0.015 l 0,1.24875 1.39,0 0,-1.05625 c 0,-0.0612 0.02,-0.1125 0.0575,-0.1525 0.0387,-0.0413 0.10625,-0.0625 0.20375,-0.0625 0.0488,0 0.0975,0.002 0.14625,0.007 0.0487,0.004 0.085,0.01 0.11,0.015 l 0,2.77125 c 0,0.0612 -0.0188,0.1125 -0.0575,0.15375 -0.0375,0.0412 -0.10625,0.0612 -0.20375,0.0612 -0.0487,0 -0.0975,-0.002 -0.14625,-0.006 -0.0487,-0.005 -0.085,-0.01 -0.11,-0.0163 l 0,-1.27125 -1.39,0 0,1.07875 c 0,0.0612 -0.0187,0.1125 -0.0562,0.15375 -0.0387,0.0412 -0.10625,0.0612 -0.20375,0.0612"
         style="fill:#000000;fill-opacity:1;fill-rule:nonzero;stroke:none"
         id="path11286"
         inkscape:connector-curvature="0" />
      <path
         d="m 301.77702,421.87129 c -0.0487,0 -0.0962,-0.002 -0.14375,-0.006 -0.0475,-0.005 -0.0838,-0.01 -0.1075,-0.0163 l 0,-2.77125 c 0,-0.0612 0.0187,-0.1125 0.0575,-0.1525 0.0375,-0.0413 0.105,-0.0625 0.2025,-0.0625 0.0487,0 0.0975,0.002 0.145,0.007 0.0462,0.004 0.0825,0.01 0.1075,0.015 l 0,2.77125 c 0,0.0612 -0.02,0.1125 -0.0575,0.15375 -0.0387,0.0412 -0.10625,0.0612 -0.20375,0.0612"
         style="fill:#000000;fill-opacity:1;fill-rule:nonzero;stroke:none"
         id="path11290"
         inkscape:connector-curvature="0" />
      <path
         d="m 303.53727,421.87129 c -0.0487,0 -0.0962,-0.002 -0.14375,-0.006 -0.0475,-0.005 -0.0838,-0.01 -0.1075,-0.0163 l 0,-2.51 -0.915,0 c -0.006,-0.025 -0.01,-0.0575 -0.0137,-0.0987 -0.003,-0.0413 -0.004,-0.085 -0.004,-0.13 0,-0.0975 0.0188,-0.1625 0.0587,-0.1925 0.04,-0.03 0.09,-0.0462 0.15125,-0.0462 l 2.14,0 c 0.0125,0.0462 0.0175,0.11625 0.0175,0.21125 0,0.17 -0.07,0.25625 -0.21,0.25625 l -0.7125,0 0,2.3175 c 0,0.0612 -0.02,0.1125 -0.0575,0.15375 -0.0387,0.0412 -0.10625,0.0612 -0.20375,0.0612"
         style="fill:#000000;fill-opacity:1;fill-rule:nonzero;stroke:none"
         id="path11294"
         inkscape:connector-curvature="0" />
      <path
         d="m 305.9239,421.88491 c -0.14875,0 -0.31125,-0.015 -0.4875,-0.0462 -0.175,-0.03 -0.35375,-0.0763 -0.53625,-0.13625 0,-0.0125 -0.001,-0.0238 -0.002,-0.0325 -0.001,-0.009 -0.002,-0.02 -0.002,-0.0325 0,-0.1 0.0188,-0.18125 0.055,-0.24375 0.0362,-0.0625 0.0962,-0.0937 0.17875,-0.0937 0.0387,0 0.0863,0.006 0.14125,0.0175 0.055,0.0125 0.11625,0.0263 0.185,0.0412 0.0688,0.0163 0.145,0.03 0.22875,0.0412 0.0838,0.0125 0.17625,0.0188 0.27625,0.0188 0.21125,0 0.36125,-0.0387 0.45125,-0.115 0.09,-0.075 0.13375,-0.17125 0.13375,-0.2875 0,-0.0575 -0.01,-0.1075 -0.0312,-0.14875 -0.0212,-0.0412 -0.0525,-0.0763 -0.0913,-0.105 -0.04,-0.0288 -0.0875,-0.0537 -0.145,-0.075 -0.0562,-0.0213 -0.12,-0.0425 -0.19375,-0.065 l -0.38,-0.105 c -0.29875,-0.0825 -0.50625,-0.19625 -0.62375,-0.3425 -0.1175,-0.14625 -0.17625,-0.31375 -0.17625,-0.5025 0,-0.095 0.0175,-0.19125 0.0512,-0.29125 0.0325,-0.0987 0.0913,-0.1875 0.17375,-0.2675 0.0813,-0.0787 0.19125,-0.14375 0.32875,-0.19625 0.1375,-0.0513 0.30875,-0.0775 0.51625,-0.0775 0.14,0 0.29125,0.0138 0.45125,0.0413 0.16,0.0275 0.32625,0.0712 0.5,0.1325 l 0,0.0637 c 0,0.10375 -0.0175,0.185 -0.0525,0.2425 -0.035,0.0575 -0.0925,0.0863 -0.17125,0.0863 -0.04,0 -0.0837,-0.005 -0.13,-0.015 -0.0475,-0.0113 -0.10125,-0.0213 -0.16,-0.0325 -0.06,-0.01 -0.1275,-0.0213 -0.20375,-0.0325 -0.0763,-0.01 -0.16125,-0.015 -0.25625,-0.015 -0.10625,0 -0.195,0.01 -0.265,0.0288 -0.07,0.02 -0.12625,0.0475 -0.17,0.08 -0.0425,0.0337 -0.0725,0.0712 -0.0913,0.1125 -0.0175,0.0412 -0.0275,0.0837 -0.0275,0.12625 0,0.1 0.035,0.17625 0.10375,0.22875 0.0688,0.0513 0.19125,0.10125 0.3675,0.15 l 0.4025,0.115 c 0.53375,0.14 0.8,0.4175 0.8,0.83125 0,0.135 -0.0225,0.25625 -0.0662,0.36625 -0.0437,0.11 -0.11375,0.20375 -0.2075,0.28375 -0.095,0.0787 -0.21375,0.14125 -0.3575,0.185 -0.1425,0.0437 -0.315,0.0662 -0.51625,0.0662"
         style="fill:#000000;fill-opacity:1;fill-rule:nonzero;stroke:none"
         id="path11298"
         inkscape:connector-curvature="0" />
    </g>
  </g>
</svg>
