<?xml version="1.0" encoding="UTF-8"?>
<!-- Created with Inkscape (http://www.inkscape.org/) -->
<svg id="svg8519" width="2530.6" height="778.67" version="1.1" viewBox="0 0 2372.4 730" xmlns="http://www.w3.org/2000/svg" xmlns:cc="http://creativecommons.org/ns#" xmlns:dc="http://purl.org/dc/elements/1.1/" xmlns:rdf="http://www.w3.org/1999/02/22-rdf-syntax-ns#">
 <defs id="defs8521">
  <clipPath id="clipPath1252">
   <path id="path1254" d="m411.59 515.35h94.948v18.13h-94.948z"/>
  </clipPath>
  <clipPath id="clipPath1288">
   <path id="path1290" d="m412.39 532.67h93.284v-15.246h-93.284z"/>
  </clipPath>
  <clipPath id="clipPath1292">
   <path id="path1294" d="m412.39 517.42h93.284v15.245h-93.284z"/>
  </clipPath>
  <linearGradient id="linearGradient1236" x2="1" gradientTransform="matrix(0 17.057 17.057 0 474.76 515.89)" gradientUnits="userSpaceOnUse">
   <stop id="stop1238" stop-color="#820021" offset="0"/>
   <stop id="stop1240" stop-color="#ae2c3f" offset=".10441"/>
   <stop id="stop1242" stop-color="#ae2c3f" offset=".90174"/>
   <stop id="stop1244" stop-color="#ba3c4c" offset="1"/>
  </linearGradient>
  <clipPath id="clipPath1202">
   <path id="path1204" d="m411.59 515.35h94.948v18.13h-94.948z"/>
  </clipPath>
  <clipPath id="clipPath1214">
   <path id="path1216" d="m505.84 530.72h0.017v-0.016h-0.017z"/>
  </clipPath>
  <linearGradient id="linearGradient1178" x2="1" gradientTransform="matrix(0 -17.343 17.343 0 459.06 533.09)" gradientUnits="userSpaceOnUse">
   <stop id="stop1180" stop-color="#868685" offset="0"/>
   <stop id="stop1182" stop-color="#d8d9d9" offset=".020448"/>
   <stop id="stop1184" stop-color="#f5f5f5" offset=".052404"/>
   <stop id="stop1186" stop-color="#edeeee" offset=".48766"/>
   <stop id="stop1188" stop-color="#f5f5f5" offset=".89549"/>
   <stop id="stop1190" stop-color="#ebebec" offset=".92944"/>
   <stop id="stop1192" stop-color="#d8d9d9" offset=".96426"/>
   <stop id="stop1194" stop-color="#868685" offset="1"/>
  </linearGradient>
 </defs>
 <metadata id="metadata8524">
  <rdf:RDF>
   <cc:Work rdf:about="">
    <dc:format>image/svg+xml</dc:format>
    <dc:type rdf:resource="http://purl.org/dc/dcmitype/StillImage"/>
    <dc:title/>
   </cc:Work>
  </rdf:RDF>
 </metadata>
 <g id="layer1" transform="translate(-192.09 474.88)">
  <g id="g4201" transform="matrix(19.99 0 0 19.99 -3647.6 -5121.6)">
   <g id="g1166" transform="matrix(1.25 0 0 -1.25 -322.4 899.31)">
    <g id="g1168">
     <g id="g1174">
      <g id="g1176">
       <path id="path1196" d="m414.08 532.94c-1.345 0-1.823-0.794-1.823-2.114v-12.829c0-1.32 0.478-2.114 1.823-2.114h89.96c1.345 0 1.822 0.794 1.822 2.114v12.829c0 1.32-0.477 2.114-1.822 2.114z" fill="url(#linearGradient1178)"/>
      </g>
     </g>
    </g>
   </g>
   <g id="g1198" transform="matrix(1.25 0 0 -1.25 -322.4 899.31)">
    <g id="g1200" clip-path="url(#clipPath1202)">
     <g id="g1206" transform="translate(503.93 515.35)">
      <path id="path1208" d="m0 0c1.996 0 2.605 1.241 2.605 2.482v13.166c0 1.241-0.609 2.482-2.605 2.482h-89.738c-1.997 0-2.605-1.241-2.605-2.482v-13.166c0-1.241 0.608-2.482 2.605-2.482zm-89.646 0.167c-1.344 0-2.254 0.793-2.254 2.114v13.568c0 1.321 0.91 2.114 2.254 2.114h89.554c1.344 0 2.254-0.793 2.254-2.114v-13.568c0-1.321-0.91-2.114-2.254-2.114z" fill="#a1a2a2"/>
     </g>
     <g id="g1210">
      <g id="g1218">
       <g id="g1220" clip-path="url(#clipPath1214)" opacity=".8"></g>
      </g>
     </g>
    </g>
   </g>
   <g id="g1224" transform="matrix(1.25 0 0 -1.25 -322.4 899.31)">
    <g id="g1226">
     <g id="g1232">
      <g id="g1234">
       <path id="path1246" d="m443.66 532.94v-17.057h60.388c1.345 0 1.822 0.794 1.822 2.114v12.829c0 1.32-0.477 2.114-1.822 2.114z" fill="url(#linearGradient1236)"/>
      </g>
     </g>
    </g>
   </g>
   <g id="g1248" transform="matrix(1.25 0 0 -1.25 -322.4 899.31)">
    <g id="g1250" clip-path="url(#clipPath1252)">
     <g id="g1256" transform="translate(452.08 519.04)">
      <path id="path1258" d="m0 0c-0.756 0-1.454 0.136-2.093 0.408-0.639 0.273-1.192 0.649-1.661 1.129-0.469 0.481-0.836 1.052-1.102 1.714s-0.4 1.377-0.4 2.146c0 0.747 0.134 1.446 0.4 2.098 0.266 0.651 0.633 1.217 1.102 1.697 0.469 0.481 1.022 0.857 1.661 1.129 0.639 0.273 1.337 0.409 2.093 0.409 0.543 0 1.07-0.059 1.581-0.176 0.512-0.118 0.985-0.268 1.422-0.449 0.096-1.42-0.25-2.13-1.038-2.13-0.139 0-0.266 0.016-0.384 0.048-0.117 0.032-0.245 0.064-0.383 0.096-0.139 0.032-0.293 0.064-0.463 0.096-0.171 0.032-0.373 0.049-0.607 0.049-0.373 0-0.724-0.067-1.055-0.201-0.33-0.133-0.614-0.326-0.854-0.576-0.24-0.251-0.429-0.553-0.567-0.905-0.139-0.352-0.208-0.748-0.208-1.185 0-0.46 0.069-0.871 0.208-1.233 0.138-0.363 0.327-0.67 0.567-0.921s0.524-0.443 0.854-0.577c0.331-0.133 0.682-0.2 1.055-0.2 0.234 0 0.442 0.016 0.623 0.048s0.343 0.064 0.487 0.096 0.28 0.064 0.407 0.096c0.128 0.032 0.261 0.048 0.4 0.048 0.777 0 1.123-0.71 1.038-2.13-0.437-0.181-0.924-0.331-1.462-0.448s-1.078-0.176-1.621-0.176" fill="#fff"/>
     </g>
     <g id="g1260" transform="translate(457.59 519.17)">
      <path id="path1262" d="m0 0c-0.224 0-0.445 0.011-0.663 0.032s-0.402 0.048-0.551 0.08v9.273c0 0.309 0.096 0.573 0.287 0.792 0.192 0.219 0.554 0.329 1.087 0.329 0.223 0 0.444-0.011 0.663-0.033 0.218-0.021 0.402-0.048 0.551-0.08v-9.272c0-0.31-0.096-0.574-0.288-0.793-0.191-0.219-0.554-0.328-1.086-0.328" fill="#fff"/>
     </g>
     <g id="g1264" transform="translate(461.96 519.17)">
      <path id="path1266" d="m0 0c-0.213 0-0.421 0.011-0.623 0.032-0.203 0.021-0.373 0.048-0.511 0.08v10.201c0.159 0.054 0.367 0.099 0.623 0.137 0.255 0.037 0.473 0.056 0.655 0.056 0.585 0 1.011-0.075 1.278-0.225 0.266-0.149 0.489-0.368 0.671-0.656l3.626-5.717v5.573c0 0.138 0.018 0.269 0.056 0.392 0.037 0.123 0.101 0.232 0.191 0.328 0.091 0.096 0.216 0.171 0.376 0.224 0.159 0.054 0.362 0.081 0.607 0.081 0.213 0 0.418-0.011 0.615-0.033 0.197-0.021 0.364-0.042 0.503-0.063v-10.218c-0.149-0.075-0.33-0.125-0.543-0.152s-0.421-0.04-0.623-0.04c-0.501 0-0.874 0.069-1.118 0.208-0.246 0.139-0.448 0.331-0.607 0.577l-3.882 6.214v-5.942c0-0.299-0.091-0.55-0.272-0.753s-0.522-0.304-1.022-0.304" fill="#fff"/>
     </g>
     <g id="g1268" transform="translate(473.3 519.23)">
      <path id="path1270" d="m0 0c-0.298 0-0.541 0.032-0.727 0.096s-0.33 0.152-0.431 0.264c-0.102 0.112-0.171 0.248-0.208 0.409-0.037 0.16-0.056 0.33-0.056 0.512v7.847c0 0.182 0.019 0.353 0.056 0.513s0.106 0.296 0.208 0.408c0.101 0.112 0.245 0.2 0.431 0.264s0.429 0.096 0.727 0.096h5.287c0.022-0.117 0.043-0.277 0.064-0.48 0.022-0.203 0.032-0.411 0.032-0.624 0-0.449-0.09-0.767-0.271-0.953-0.182-0.187-0.41-0.281-0.687-0.281h-3.259v-1.825h3.754c0.021-0.107 0.043-0.249 0.064-0.425s0.032-0.366 0.032-0.568c0-0.427-0.086-0.718-0.256-0.873s-0.383-0.232-0.639-0.232h-2.955v-1.81h4.281c0.021-0.118 0.043-0.28 0.064-0.488 0.021-0.209 0.032-0.414 0.032-0.617 0-0.459-0.091-0.779-0.272-0.961-0.181-0.181-0.41-0.272-0.686-0.272z" fill="#fff"/>
     </g>
     <g id="g1272" transform="translate(480.98 519.17)">
      <path id="path1274" d="m0 0c-0.245 0-0.461 0.024-0.647 0.072-0.187 0.048-0.349 0.104-0.487 0.168l0.976 9.977c0.203 0.086 0.469 0.155 0.799 0.208 0.33 0.054 0.612 0.081 0.846 0.081 0.33 0 0.615-0.022 0.854-0.065 0.24-0.042 0.445-0.114 0.615-0.216 0.17-0.101 0.306-0.243 0.407-0.424 0.101-0.182 0.178-0.406 0.232-0.673l0.415-1.937c0.117-0.534 0.242-1.124 0.375-1.77s0.253-1.311 0.359-1.994h0.064c0.117 0.683 0.239 1.345 0.367 1.986s0.261 1.228 0.399 1.761l0.51 2.034c0.128 0.502 0.332 0.844 0.614 1.025 0.282 0.182 0.721 0.273 1.316 0.273 0.298 0 0.598-0.025 0.901-0.073s0.556-0.098 0.758-0.152l0.934-10.041c-0.149-0.053-0.328-0.107-0.535-0.16-0.208-0.053-0.434-0.08-0.679-0.08-0.341 0-0.629 0.059-0.863 0.176-0.234 0.118-0.362 0.337-0.383 0.657l-0.24 3.459c-0.053 0.609-0.098 1.246-0.136 1.914-0.037 0.667-0.061 1.299-0.072 1.898h-0.032c-0.138-0.556-0.279-1.156-0.423-1.802s-0.29-1.241-0.439-1.786l-0.655-2.722c-0.16-0.641-0.666-0.961-1.518-0.961-0.213 0-0.431 0.021-0.655 0.064-0.223 0.042-0.415 0.09-0.575 0.144l-0.814 3.395c-0.16 0.63-0.309 1.249-0.447 1.858-0.139 0.608-0.267 1.217-0.384 1.825h-0.048c-0.032-0.854-0.074-1.636-0.128-2.346-0.053-0.71-0.101-1.321-0.143-1.833l-0.256-3.123c-0.021-0.31-0.138-0.523-0.351-0.641-0.214-0.117-0.49-0.176-0.831-0.176" fill="#fff"/>
     </g>
     <g id="g1276" transform="translate(496.06 523.54)">
      <path id="path1278" d="m0 0h2.39l-1.192 3.923zm-2.492-4.404c-0.202 0-0.434 0.019-0.694 0.056-0.262 0.037-0.477 0.088-0.647 0.152l3.314 10.153c0.288 0.075 0.579 0.129 0.873 0.161s0.563 0.048 0.809 0.048c0.352 0 0.654-0.027 0.905-0.08 0.251-0.054 0.462-0.134 0.633-0.241s0.312-0.248 0.424-0.424 0.206-0.382 0.281-0.617l2.84-8.984c-0.181-0.075-0.399-0.131-0.655-0.168-0.255-0.037-0.506-0.056-0.75-0.056-0.278 0-0.546 0.045-0.807 0.136s-0.45 0.296-0.567 0.617l-0.544 1.649h-3.484l-0.461-1.553c-0.117-0.374-0.314-0.609-0.591-0.705s-0.57-0.144-0.879-0.144" fill="#fff"/>
     </g>
     <g id="g1280" transform="translate(423.12 522.78)">
      <path id="path1282" d="m0 0c0-1.46-0.955-2.527-2.894-2.738-1.404-0.15-3.438 0.027-4.404 0.138-0.036 0.158-0.064 0.354-0.064 0.508 0 1.278 0.691 1.569 1.338 1.569 0.672 0 1.73-0.116 2.518-0.116 0.865 0 1.129 0.294 1.129 0.573 0 0.367-0.349 0.52-1.021 0.648l-1.839 0.354c-1.531 0.293-2.348 1.352-2.348 2.476 0 1.366 0.967 2.509 2.868 2.72 1.438 0.155 3.187-0.02 4.148-0.138 0.035-0.165 0.053-0.321 0.053-0.492 0-1.274-0.671-1.549-1.319-1.549-0.497 0-1.269 0.093-2.15 0.093-0.897 0-1.269-0.248-1.269-0.55 0-0.319 0.355-0.451 0.916-0.549l1.758-0.326c1.806-0.333 2.58-1.359 2.58-2.621m3.155-1.568c0-0.783-0.307-1.235-1.836-1.235-0.203 0-0.38 0.015-0.55 0.04v10.39c0 0.789 0.269 1.612 1.813 1.612 0.194 0 0.391-0.02 0.573-0.058zm6.25-4.019c0.2-0.103 0.612-0.227 1.131-0.241 0.886-0.019 1.371 0.321 1.73 1.116l4.764 10.626c-0.197 0.106-0.631 0.223-0.988 0.231-0.612 0.011-1.434-0.114-1.96-1.367l-1.543-3.641-3.025 4.927c-0.195 0.06-0.671 0.146-1.021 0.146-1.067 0-1.665-0.394-2.284-1.066l-2.941-3.217 2.366-3.723c0.437-0.678 1.013-1.024 1.949-1.024 0.612 0 1.121 0.139 1.357 0.252l-2.848 4.295 2.019 2.139 3.311-5.197z" fill="#ae2c3f"/>
     </g>
     <g id="g1284">
      <g id="g1296">
       <g id="g1298" clip-path="url(#clipPath1288)" opacity=".39999">
        <g id="g1300">
         <g id="g1302">
          <g id="g1304" clip-path="url(#clipPath1292)">
           <g id="g1306" transform="translate(504.17 519.89)">
            <path id="path1308" d="m0 0c1.156-1.145 1.313-2.225 1.354-2.463 0.114 0 0.156 0.506 0.156 1.261l-4e-3 12.109c0 1.402-0.456 1.876-1.644 1.876-0.402 0-0.804-0.216-1.339-0.216h-87.31c-0.536 0-0.938 0.216-1.34 0.216-1.187 0-1.643-0.474-1.643-1.876l-4e-3 -12.109c0-0.755 0.041-1.261 0.155-1.261 0.041 0.238 0.076 1.402 1.354 2.463 10.208 7.878 79.259 10.296 90.265 0" fill="#fff"/>
           </g>
          </g>
         </g>
        </g>
       </g>
      </g>
     </g>
    </g>
   </g>
  </g>
  <g id="g4532" transform="matrix(1.25 0 0 1.25 761.53 27.549)" fill="#fff">
   <g id="#000000ff" transform="matrix(.8189 0 0 .8189 2.5299 32.97)" fill="#fff">
    <path id="path2" d="m13.97 21.35c8.04-3.07 17.12-4.83 25.45-1.8 3.06 1.21 4.77 4.28 5.75 7.25 14.11 42.85 28.2 85.7 42.33 128.55 13.62-41.07 26.68-82.33 40.07-123.47 1.53-4.58 2.63-10.49 7.73-12.42 7.82-2.58 16.63-1.72 24.19 1.35-16.99 49.61-33.99 99.22-51 148.82-1.51 4.3-4.1 8.63-8.43 10.57-5.61 2.77-12.02 1.54-18.03 1.82-4.44 0.24-8.79-0.74-12.99-2.08-18.42-52.84-36.79-105.7-55.07-158.59z"/>
    <path id="path4" d="m205.32 20.19c7.73-1.98 15.78-2.59 23.73-2 4.36 0.37 8.93 1.5 12.21 4.58 3.47 3.22 5.11 7.81 6.64 12.17 16.35 47.92 32.89 95.78 49.16 143.73-7.68 3.03-16.37 4.4-24.33 1.59-3.13-1.16-4.89-4.28-5.88-7.29-3.96-11.69-7.87-23.4-11.85-35.09-21.06-0.01-42.13 0.01-63.19-0.01-3.96 11.67-7.79 23.39-11.73 35.07-1.1 3.47-3.39 6.95-7.15 7.83-7.42 1.99-15.43 0.97-22.56-1.69 18.09-53.04 36.72-105.9 54.95-158.89m18.35 22.1c-7.95 23.91-15.96 47.79-23.9 71.7 15.87 0.01 31.74 0.02 47.62 0-7.92-23.89-15.68-47.85-23.72-71.7z"/>
    <path id="path6" d="m315.07 23.1c1.92-3.05 5.62-4.22 9.03-4.49 5.6-0.43 11.24 0.12 16.78 1.04-0.01 45.09-0.01 90.19 0 135.28 25.57 0.06 51.15-0.1 76.72 0.08 0.92 6.38 2.21 13.2-0.15 19.42-1.83 4.46-7.08 5.97-11.49 5.88h-78.94c-3.63-0.14-7.67-0.28-10.6-2.71-2.73-2.73-3.42-6.82-3.42-10.53-0.01-44.02 0.02-88.05-0.01-132.07 0.03-4.01-0.45-8.47 2.08-11.9z"/>
    <path id="path8" d="m440.02 21.05c3.58-2.18 7.96-2.04 12.01-2.12 27.23 0.07 54.48-0.1 81.72 0.08 0.82 5.89 1.82 12 0.51 17.89-0.81 4.32-5.03 7.34-9.31 7.36-20.46 0.17-40.92-0.1-61.38 0.13 0.12 14.35 0.01 28.7 0.06 43.04 21.35 0.02 42.69 0.01 64.04 0.01 0.66 5.78 1.74 11.76 0.31 17.51-0.9 4.03-4.96 6.68-8.96 6.59-18.47 0.06-36.93-0.01-55.39 0.03-0.01 14.45-0.01 28.91 0 43.36 24.08 0.02 48.15 0 72.23 0.01 0.72 6.25 1.89 12.79-0.02 18.93-1.28 4.13-5.61 6.68-9.83 6.44-25.32 0.01-50.65 0-75.97 0-3.65-0.12-7.68-0.24-10.69-2.59-2.88-2.73-3.55-6.94-3.55-10.72 0.02-44.98 0.01-89.96 0.01-134.93 0.03-3.94 0.8-8.55 4.21-11.02z"/>
    <path id="path10" d="m562.12 20.86c7.66-2.68 16.07-3 24.04-1.58 5.31 0.91 9.5 4.85 12.37 9.21 24.1 37.21 48.17 74.44 72.26 111.65-0.41-36.71-0.98-73.42-1.44-110.13-0.3-4.51 2.2-9.5 6.8-10.74 6.24-1.59 12.78-0.59 19.05 0.38 0.04 53.26-0.14 106.53 0.09 159.79-6.37 2.6-13.49 2.77-20.23 1.89-5.37-0.57-10.03-3.98-13-8.37-25.07-38.83-49.84-77.86-74.99-116.64 0.38 38.22 1 76.43 1.42 114.64 0.2 4.6-2.77 9.44-7.52 10.22-6.2 1.23-12.61 0.48-18.83-0.28-0.05-53.35 0.01-106.69-0.02-160.04z"/>
    <path id="path12" d="m712.46 25.32c1.22-5.01 6.99-6.58 11.53-6.39 38.35 0.07 76.7-0.11 115.05 0.09 1.65 5.03 1.36 10.77 0.83 16.04-0.53 4.98-4.74 9.36-9.91 9.2-13.27 0.13-26.55 0.01-39.82 0.04-0.03 41.89 0 83.78-0.02 125.67 0.21 4.65-2.5 9.68-7.22 10.92-6.72 1.78-13.8 0.65-20.57-0.24-0.1-45.47 0.12-90.94-0.11-136.4-16.54 0.15-33.09 0-49.63 0.07-0.87-6.26-1.58-12.78-0.13-19z"/>
    <path id="path14" d="m864.27 19.25c6.65-1.56 13.57-0.55 20.25 0.35 0.09 50.13 0.02 100.26 0.04 150.39 0.2 4.77-2.67 9.88-7.55 11-6.66 1.62-13.61 0.55-20.3-0.35-0.05-49.87-0.01-99.74-0.02-149.62-0.35-4.99 2.39-10.56 7.58-11.77z"/>
    <path id="path16" d="m917.99 20.83c7.63-2.62 15.96-2.96 23.87-1.59 5.41 0.92 9.67 4.89 12.57 9.35 24.08 37.17 48.08 74.39 72.21 111.53-0.47-36.71-0.99-73.41-1.46-110.12-0.27-4.29 1.93-9.04 6.19-10.51 5.41-1.75 11.21-0.92 16.75-0.35 1 0.33 3.23-0.09 2.85 1.71 0.01 52.97 0.13 105.95-0.06 158.92-7.06 2.15-14.66 2.72-21.89 1.19-4.87-0.99-8.82-4.5-11.5-8.53-24.9-38.7-49.65-77.5-74.62-116.15 0.35 38.24 1.02 76.47 1.4 114.71 0.2 4.54-2.7 9.34-7.39 10.16-6.22 1.29-12.65 0.49-18.88-0.22-0.07-53.37 0-106.74-0.04-160.1z"/>
    <path id="path18" d="m1087.5 21.5c3.26-2.47 7.6-2.45 11.51-2.57 27.6 0.04 55.2-0.05 82.81 0.05 0.91 6.07 1.87 12.37 0.42 18.43-1.11 4.48-5.82 7.15-10.24 6.9-20.04-0.03-40.08 0.07-60.12-0.06-0.23 14.39-0.04 28.79-0.1 43.18 21.33 0.02 42.65 0.01 63.98 0 0.67 5.81 1.76 11.83 0.3 17.6-0.93 3.99-4.97 6.59-8.94 6.51-18.45 0.06-36.89 0-55.34 0.03-0.01 14.45 0 28.91 0 43.36 24.06 0.02 48.11 0 72.17 0.01 0.73 6.26 1.9 12.81-0.03 18.97-1.3 4.13-5.66 6.66-9.89 6.4h-75.95c-3.86-0.16-8.34-0.23-11.23-3.18-3.07-3.62-3.02-8.64-2.96-13.12 0.04-44 0-88.01 0.01-132.01 0.03-3.72 0.75-7.86 3.6-10.5z"/>
   </g>
  </g>
 </g>
</svg>
