<?xml version="1.0" encoding="UTF-8" standalone="no"?>
<!-- Generator: Adobe Illustrator 17.1.0, SVG Export Plug-In . SVG Version: 6.00 Build 0)  -->

<svg
   xmlns:dc="http://purl.org/dc/elements/1.1/"
   xmlns:cc="http://creativecommons.org/ns#"
   xmlns:rdf="http://www.w3.org/1999/02/22-rdf-syntax-ns#"
   xmlns:svg="http://www.w3.org/2000/svg"
   xmlns="http://www.w3.org/2000/svg"
   xmlns:sodipodi="http://sodipodi.sourceforge.net/DTD/sodipodi-0.dtd"
   xmlns:inkscape="http://www.inkscape.org/namespaces/inkscape"
   enable-background="new 0 0 1372 226.8"
   xml:space="preserve"
   viewBox="-440414.55 0 0 102.3"
   height="71.251999"
   width="600.34723"
   version="1.1"
   y="0px"
   x="0px"
   id="svg2"
   inkscape:version="0.91 r13725"
   sodipodi:docname="Sky_Sports_1 HD_2015.svg"><defs
     id="defs54"><linearGradient
       x1="-3700"
       y1="59"
       gradientTransform="matrix(-0.81766148,0,0,0.69446393,-2722.5575,-10.25039)"
       x2="-3700"
       gradientUnits="userSpaceOnUse"
       y2="163"
       id="SVGID_1_"><stop
         id="stop9"
         offset="0"
         stop-color="#091B4A" /><stop
         id="stop11"
         offset="0.0363"
         stop-color="#122D68" /><stop
         id="stop13"
         offset="0.896"
         stop-color="#122D68" /><stop
         id="stop15"
         offset="1"
         stop-color="#091B4A" /></linearGradient><linearGradient
       x1="465"
       y1="162"
       x2="465"
       gradientUnits="userSpaceOnUse"
       y2="59.900002"
       id="SVGID_2_"
       gradientTransform="matrix(0.69446393,0,0,0.69446393,-42.153961,-10.25039)"><stop
         id="stop22"
         offset="0"
         stop-color="#552227" /><stop
         id="stop24"
         offset="0.0739"
         stop-color="#C41C2B" /><stop
         id="stop26"
         offset="0.911"
         stop-color="#C41C2B" /><stop
         id="stop28"
         offset="1"
         stop-color="#FE3446" /></linearGradient></defs><sodipodi:namedview
     pagecolor="#ffffff"
     bordercolor="#666666"
     borderopacity="1"
     objecttolerance="10"
     gridtolerance="10"
     guidetolerance="10"
     inkscape:pageopacity="0"
     inkscape:pageshadow="2"
     inkscape:window-width="1920"
     inkscape:window-height="1017"
     id="namedview52"
     showgrid="false"
     fit-margin-top="0"
     fit-margin-left="0"
     fit-margin-right="0"
     fit-margin-bottom="0"
     inkscape:zoom="1.28"
     inkscape:cx="255.71506"
     inkscape:cy="159.41686"
     inkscape:window-x="-8"
     inkscape:window-y="-8"
     inkscape:window-maximized="1"
     inkscape:current-layer="svg2"
     showguides="false" /><metadata
     id="metadata4"><rdf:RDF><cc:Work
         rdf:about=""><dc:format>image/svg+xml</dc:format><dc:type
           rdf:resource="http://purl.org/dc/dcmitype/StillImage" /><dc:title></dc:title></cc:Work></rdf:RDF></metadata><path
     style="display:none;fill:#a1a2a2"
     inkscape:connector-curvature="0"
     id="path19"
     d="m 12.2,72.751999 c -8.1,0 -13.5,-4.800002 -13.5,-12.700002 l 0,-80.6 c 0,-7.9 5.5,-12.7 13.5,-12.7 l 710,0 c 8.1,0 13.5,4.8 13.5,12.7 l 0,81.4 c 0,7.900002 -5.5,12.700002 -13.5,12.700002 l -709,0 z m 710,1 c 12,0 15.6,-7.400002 15.6,-14.900002 l 0,-79 c 0,-7.4 -3.6,-14.9 -15.6,-14.9 l -711,0 c -12,0 -15.6,7.4 -15.6,14.9 l 0,79 c 0,7.4 3.6,14.900002 15.6,14.900002 l 711,0 z"
     display="none" /><g
     id="g4257"
     transform="translate(0,-31.348001)"><path
       d="M 8.9125102,102.25277 C 2.2894521,102.25277 0,98.919341 0,93.433076 L 0,40.376031 c 0,-5.486265 2.3712183,-8.819692 8.9125102,-8.819692 l 582.1749798,0 c 6.62306,0 8.91251,3.333427 8.91251,8.819692 l 0,53.404277 C 600,99.266573 597.62878,102.6 591.08749,102.6 l -581.3573184,0 z"
       id="path17"
       style="fill:url(#SVGID_1_)"
       inkscape:connector-curvature="0" /><rect
       height="70.83532"
       width="299.31396"
       y="31.348001"
       x="131.46202"
       id="rect30"
       style="fill:url(#SVGID_2_)" /><g
       transform="matrix(0.81877729,0,0,0.69446393,-49.761939,-10.25039)"
       id="g32"
       style="opacity:0.4"><path
         d="m 785,139 c 6.9,6.9 7.9,13.3 8.1,14.8 0.7,0 0.9,-3 0.9,-7.6 l 0,-72.6 c 0,-8.4 -2.7,-11.3 -9.9,-11.3 -2.4,0 -4.8,1.3 -8,1.3 l -697,0 c -3.2,0 -5.6,-1.3 -8,-1.3 -7.1,0 -9.9,2.8 -9.9,11.3 l 0,72.6 c 0,4.5 0.3,7.6 0.9,7.6 0.2,-1.4 0.5,-8.4 8.1,-14.8 61.3,-47.2 648,-61.7 714,0 z"
         id="path34"
         inkscape:connector-curvature="0"
         style="fill:#ffffff" /></g><path
       d="m 84.932939,96.697056 c 0.833357,0.416678 2.569517,0.97225 4.722355,0.97225 3.680659,0.06945 5.694604,-1.319482 7.222425,-4.652909 L 116.73939,48.779045 c -0.83336,-0.416679 -2.63897,-0.902803 -4.09734,-0.97225 -2.56952,-0.06945 -5.97239,0.486125 -8.19467,5.694604 L 98.1972,69.404623 85.69685,48.848491 c -0.833357,-0.277786 -2.777856,-0.625018 -4.23623,-0.625018 -4.44457,0 -6.94464,1.666714 -9.514156,4.44457 l -12.222566,13.403154 9.861388,15.486545 c 1.805606,2.847302 4.23623,4.23623 8.125228,4.23623 2.569517,0 4.652909,-0.555571 5.625158,-1.041696 L 71.529785,66.696214 79.863352,58.154308 93.752631,79.891029 85.419064,97.252627 Z M 58.890542,79.960475 c 0,3.263981 -1.250035,5.139033 -7.639104,5.139033 -0.833356,0 -1.597267,-0.06945 -2.291731,-0.138892 l 0,-42.987318 c 0,-3.26398 1.111143,-6.7363 7.569657,-6.7363 0.833357,0 1.597267,0.06945 2.361178,0.208339 l 0,44.86237 z M 45.765173,73.432514 c 0,6.111283 -3.958444,10.555852 -12.083672,11.389209 C 27.848004,85.44674 19.375544,84.68283 15.347653,84.266152 15.20876,83.641134 15.069867,82.807777 15.069867,82.18276 c 0,-5.347372 2.847303,-6.527961 5.555712,-6.527961 2.777856,0 7.222425,0.486125 10.486405,0.486125 3.611213,0 4.722355,-1.250035 4.722355,-2.361178 0,-1.52782 -1.458374,-2.152838 -4.23623,-2.708409 L 23.959006,69.612963 C 16.94492,68.224035 13.542047,63.362787 13.542047,59.196004 c 0,-5.694605 4.027891,-10.486406 11.944779,-11.319762 5.97239,-0.625018 13.264262,0.06945 17.292152,0.555571 0.138893,0.694464 0.20834,1.319481 0.20834,2.083391 0,5.277926 -2.777856,6.458515 -5.486266,6.458515 -2.083391,0 -5.277925,-0.416678 -8.958584,-0.416678 -3.750106,0 -5.277926,1.041696 -5.277926,2.291731 0,1.319481 1.458374,1.875052 3.819551,2.291731 l 7.291872,1.388928 c 7.50021,1.180588 10.764191,5.486265 10.764191,10.764191 z"
       id="path36"
       inkscape:connector-curvature="0"
       style="fill:#ffffff" /><path
       d="m 456.47114,58.362647 c -0.55557,-0.486125 -1.04169,-0.902803 -1.73616,-2.083392 -1.8056,-2.986195 -1.87505,-6.875193 1.9445,-8.333567 l 13.88928,-4.722355 6.87519,0 0,40.070569 c 0,3.055641 -0.9028,5.20848 -5.83349,5.20848 -1.9445,0 -4.23623,-0.20834 -5.20848,-0.416679 l 0,-32.709251 -10.06973,3.402873 z"
       id="path38"
       inkscape:connector-curvature="0"
       style="fill:#ffffff" /><path
       d="m 187.7136,75.168674 c 0,-7.361318 -4.7918,-10.97253 -12.4309,-12.639243 l -13.19482,-3.47232 c -2.43062,-0.555571 -4.44457,-1.319482 -4.44457,-3.750105 0,-2.638963 2.08339,-3.680659 7.70855,-3.680659 6.59741,0 8.19468,0.347232 14.16707,0.347232 2.77785,0 5.62515,-1.319482 5.62515,-6.7363 0,-0.694464 -0.0694,-1.388928 -0.20833,-2.083392 -4.0279,-0.347232 -11.31977,-0.763911 -20.2089,-0.763911 -13.47261,0 -18.61164,5.833497 -18.61164,13.264262 0,6.944639 4.37512,10.833637 12.15312,12.639243 l 13.40315,3.125088 c 3.12509,0.76391 4.79181,2.083392 4.79181,4.027891 0,2.638963 -2.36118,3.680659 -7.98634,3.680659 -6.59741,0 -9.65305,-0.486125 -15.69488,-0.486125 -2.77786,0 -5.62516,1.250035 -5.62516,6.7363 0,0.694464 0.0694,1.388928 0.20834,2.083392 4.02789,0.416678 12.77813,0.902803 21.66727,0.902803 13.54205,0.06945 18.88942,-5.694604 18.88942,-13.611493 z"
       id="path40"
       inkscape:connector-curvature="0"
       style="fill:#ffffff" /><path
       d="m 298.13337,63.362787 0,-11.389208 10.6253,0 c 4.51401,0 8.12522,0.694464 8.12522,5.416818 0,3.958445 -2.70841,5.902944 -8.12522,5.902944 l -10.6253,0 z m -0.0695,8.889139 5.62516,0 10.83364,12.917029 c 2.01394,2.50007 3.95844,3.819551 8.61135,3.819551 3.12509,0 5.20848,-0.416678 6.87519,-1.250035 L 315.91164,71.418569 c 7.91689,-1.666714 11.87534,-6.805747 11.87534,-14.375404 0,-9.305816 -5.69461,-13.889278 -17.15326,-13.889278 l -16.38935,-0.06945 c -5.34737,0.20834 -7.08353,2.013946 -7.08353,6.875193 l 0,38.264963 c 0.83335,0.138893 1.73616,0.208339 2.70841,0.208339 6.7363,0 8.33356,-1.944499 8.33356,-5.486265 l -0.13889,-10.694744 z"
       id="path42"
       inkscape:connector-curvature="0"
       style="fill:#ffffff" /><path
       d="m 203.68627,64.751715 0,-12.70869 11.04198,0 c 5.48626,0 8.19467,2.013946 8.19467,6.041836 0,4.23623 -2.70841,6.389069 -8.19467,6.389069 l -11.11142,0 z m -10.97253,23.68122 c 0.83336,0.138893 1.73616,0.208339 2.70841,0.208339 6.7363,0 8.33357,-1.944499 8.33357,-5.486265 l 0,-9.23637 11.45865,0 c 12.50035,0 18.75053,-5.416819 18.75053,-15.555992 0,-9.791942 -6.25018,-15.000421 -17.98662,-15.000421 l -16.18101,0 c -5.41681,0 -7.08353,2.083392 -7.08353,6.875193 l 0,38.195516 z"
       id="path44"
       inkscape:connector-curvature="0"
       style="fill:#ffffff" /><path
       d="m 270.35481,64.751715 c 0,5.20848 -0.9028,8.819692 -2.63896,11.041977 -1.66672,2.222284 -4.44457,3.26398 -8.26412,3.26398 -3.81956,-0.06945 -6.59741,-1.180589 -8.40302,-3.26398 -1.73616,-2.083392 -2.63896,-5.764051 -2.63896,-11.041977 0,-5.208479 0.97225,-8.819692 2.70841,-10.97253 1.73616,-2.152838 4.51401,-3.194534 8.33357,-3.194534 3.7501,0 6.45851,1.041696 8.26412,3.194534 1.73616,2.152838 2.63896,5.764051 2.63896,10.97253 z m -10.90308,23.264542 c 7.08353,0 12.56979,-1.666714 16.45879,-5.139033 3.81955,-3.402873 5.8335,-9.44471 5.8335,-18.125509 -0.0694,-8.541906 -2.01395,-14.44485 -6.04184,-17.986616 -3.95844,-3.472319 -9.37526,-5.208479 -16.25045,-5.208479 -6.80575,0 -12.22257,1.73616 -16.25046,5.208479 -3.95844,3.541766 -5.97239,9.44471 -6.04184,17.986616 0,8.680799 1.9445,14.722636 5.8335,18.125509 3.889,3.472319 9.37526,5.139033 16.4588,5.139033 z"
       id="path46"
       inkscape:connector-curvature="0"
       style="fill:#ffffff" /><path
       d="m 357.1628,52.320811 8.88914,0 c 2.91675,0 5.90294,-1.319482 5.90294,-7.083532 0,-0.694464 -0.0694,-1.458375 -0.20834,-2.152839 l -34.37596,0 c -2.91675,0 -5.90294,1.319482 -5.90294,7.083532 0,0.694464 0.0694,1.458375 0.20834,2.152839 l 14.58374,0 0,35.834339 c 0.83335,0.138892 1.73616,0.208339 2.70841,0.208339 6.7363,0 8.33356,-1.944499 8.33356,-5.486265 l 0,-30.556413 z"
       id="path48"
       inkscape:connector-curvature="0"
       style="fill:#ffffff" /><path
       d="m 416.19224,75.168674 c 0,-7.361318 -4.79181,-10.97253 -12.43091,-12.639243 l -13.40315,-3.055642 c -2.43063,-0.555571 -4.44457,-1.319481 -4.44457,-3.750105 0,-2.638963 2.08339,-3.680659 7.70855,-3.680659 6.59741,0 8.19467,0.347232 14.16706,0.347232 2.77786,0 5.62516,-1.319481 5.62516,-6.7363 0,-0.694464 -0.0695,-1.388928 -0.20834,-2.083392 -4.02789,-0.347232 -11.31976,-0.76391 -20.2089,-0.76391 -13.4726,0 -18.61163,5.833497 -18.61163,13.264261 0,6.944639 4.37512,10.833637 12.15312,12.639244 l 13.40315,3.125087 c 3.12509,0.763911 4.7918,2.083392 4.7918,4.027891 0,2.638963 -2.36118,3.680659 -7.98633,3.680659 -6.59741,0 -9.65305,-0.486125 -15.69489,-0.486125 -2.77785,0 -5.62516,1.250035 -5.62516,6.7363 0,0.694464 0.0694,1.388928 0.20834,2.083392 4.02789,0.416678 12.77814,0.902803 21.66728,0.902803 13.54204,0.06945 18.88942,-5.694604 18.88942,-13.611493 z"
       id="path50"
       inkscape:connector-curvature="0"
       style="fill:#ffffff" /><path
       d="m 558.17868,76.21205 0,-21.30286 6.23996,0 c 8.66995,0 11.83992,5.60196 11.83992,10.65193 0,5.05297 -3.16997,10.65093 -11.83992,10.65093 l -6.23996,0 z m 26.93983,-10.65093 c 0,-11.09493 -7.97995,-18.63388 -21.19987,-18.63388 l -9.00994,0 c -4.29997,0 -5.33996,2.28199 -5.33996,5.25997 l 0,26.79582 c 0,2.87699 1.03999,5.20197 5.33996,5.20197 l 9.00994,0 c 13.22992,0 21.20987,-7.52695 21.20987,-18.62388 m -49.57968,-4.31197 0,-10.09194 c 0,-2.72798 1.08999,-4.465968 6.72995,-4.465968 0.7,0 1.3,0.052 1.99999,0.149999 l 0,33.109789 c 0,2.71998 -1.09999,4.45297 -6.74996,4.45297 -0.68999,0 -1.28999,-0.048 -1.97998,-0.144 l 0,-15.0369 -17.58989,0 0,10.72793 c 0,2.71998 -1.08999,4.45297 -6.73996,4.45297 -0.68999,0 -1.28999,-0.048 -1.97998,-0.144 l 0,-33.10279 c 0,-2.72798 1.08999,-4.465968 6.73995,-4.465968 0.69,0 1.28,0.052 1.97999,0.149999 l 0,14.407909 17.58989,0 z"
       id="path94"
       inkscape:connector-curvature="0"
       style="overflow:visible;fill:#ffffff" /></g></svg>