<?xml version="1.0" encoding="UTF-8"?>
<!-- Created with Inkscape (http://www.inkscape.org/) -->
<svg id="svg8519" width="3394" height="453" version="1.1" viewBox="0 0 3394 453" xmlns="http://www.w3.org/2000/svg" xmlns:cc="http://creativecommons.org/ns#" xmlns:dc="http://purl.org/dc/elements/1.1/" xmlns:rdf="http://www.w3.org/1999/02/22-rdf-syntax-ns#" xmlns:xlink="http://www.w3.org/1999/xlink">
 <defs id="defs8521">
  <linearGradient id="linearGradient1236" x2="1" gradientTransform="matrix(0 -426.2 706.3 0 2281.3 -35.272)" gradientUnits="userSpaceOnUse">
   <stop id="stop1238" stop-color="#820021" offset="0"/>
   <stop id="stop1240" stop-color="#ae2c3f" offset=".10441"/>
   <stop id="stop1242" stop-color="#ae2c3f" offset=".90174"/>
   <stop id="stop1244" stop-color="#ba3c4c" offset="1"/>
  </linearGradient>
  <clipPath id="clipPath1214">
   <path id="path1216" d="m505.84 530.72h0.017v-0.016h-0.017v0.016z"/>
  </clipPath>
  <linearGradient id="linearGradient1178" x2="1" gradientTransform="matrix(0 433.35 433.35 0 1378.3 -465.18)" gradientUnits="userSpaceOnUse">
   <stop id="stop1180" stop-color="#868685" offset="0"/>
   <stop id="stop1182" stop-color="#d8d9d9" offset=".020448"/>
   <stop id="stop1184" stop-color="#f5f5f5" offset=".052404"/>
   <stop id="stop1186" stop-color="#edeeee" offset=".48766"/>
   <stop id="stop1188" stop-color="#f5f5f5" offset=".89549"/>
   <stop id="stop1190" stop-color="#ebebec" offset=".92944"/>
   <stop id="stop1192" stop-color="#d8d9d9" offset=".96426"/>
   <stop id="stop1194" stop-color="#868685" offset="1"/>
  </linearGradient>
  <linearGradient id="linearGradient4403" x1="212.11" x2="3564.6" y1="-264.15" y2="-264.15" gradientUnits="userSpaceOnUse">
   <stop id="stop4399" stop-color="#fff" stop-opacity=".4" offset="0"/>
   <stop id="stop4419" stop-color="#fff" stop-opacity=".15686" offset=".68826"/>
   <stop id="stop4421" stop-color="#4d4d4d" stop-opacity="0" offset=".72517"/>
   <stop id="stop4401" stop-color="#4d4d4d" stop-opacity="0" offset="1"/>
  </linearGradient>
 </defs>
 <metadata id="metadata8524">
  <rdf:RDF>
   <cc:Work rdf:about="">
    <dc:format>image/svg+xml</dc:format>
    <dc:type rdf:resource="http://purl.org/dc/dcmitype/StillImage"/>
    <dc:title/>
   </cc:Work>
  </rdf:RDF>
 </metadata>
 <g id="layer1" transform="translate(-192.09 474.88)">
  <path id="path1196" d="m254.4-461.47c-33.607 0-45.551 19.84-45.551 52.822v320.56c0 32.983 11.944 52.822 45.551 52.822h2247.8c33.607 0 45.526-19.84 45.526-52.822v-320.56c0-32.983-11.919-52.822-45.526-52.822h-2247.8z" fill="url(#linearGradient1178)"/>
  <g id="g1220" transform="matrix(24.987 0 0 -24.987 -10092 12855)" clip-path="url(#clipPath1214)" opacity=".8"></g>
  <path id="path1246" d="m993.32-461.47v426.2h2500.6c55.694 0 75.446-19.84 75.446-52.822v-320.56c0-32.983-19.752-52.822-75.446-52.822h-2500.6z" fill="url(#linearGradient1236)"/>
  <path id="path1258" d="m1203.7-113.99c-18.89 0-36.331-3.3982-52.298-10.195-15.967-6.8214-29.784-16.216-41.503-28.21-11.719-12.019-20.889-26.286-27.536-42.828s-9.9947-34.407-9.9947-53.622c0-18.665 3.3482-36.131 9.9947-52.423 6.6465-16.266 15.817-30.409 27.536-42.403 11.719-12.019 25.537-21.414 41.503-28.21 15.967-6.8214 33.408-10.22 52.298-10.22 13.568 0 26.736 1.4742 39.504 4.3977 12.793 2.9484 24.612 6.6965 35.531 11.219 2.3987 35.481-6.2468 53.222-25.936 53.222-3.4732 0-6.6466-0.39979-9.595-1.1994-2.9235-0.79958-6.1218-1.5992-9.57-2.3987-3.4732-0.79958-7.3212-1.5992-11.569-2.3987-4.2728-0.79958-9.3201-1.2244-15.167-1.2244-9.3201 0-18.09 1.6741-26.361 5.0224-8.2456 3.3232-15.342 8.1457-21.339 14.392-5.9968 6.2717-10.719 13.818-14.168 22.613-3.4732 8.7954-5.1973 18.69-5.1973 29.609 0 11.494 1.7241 21.764 5.1973 30.809 3.4482 9.0702 8.1707 16.741 14.168 23.013 5.9969 6.2717 13.093 11.069 21.339 14.417 8.2707 3.3233 17.041 4.9974 26.361 4.9974 5.847 0 11.044-0.39979 15.567-1.1994 4.5226-0.79958 8.5705-1.5992 12.169-2.3987s6.9963-1.5992 10.17-2.3987c3.1983-0.79958 6.5215-1.1994 9.9947-1.1994 19.415 0 28.06 17.741 25.936 53.222-10.919 4.5226-23.088 8.2707-36.531 11.194-13.443 2.9235-26.936 4.3977-40.504 4.3977" fill="#fff"/>
  <path id="path1262" d="m1341.4-117.19c-5.5971 0-11.119-0.27486-16.566-0.79958-5.4472-0.52473-10.045-1.1994-13.768-1.999v-231.7c0-7.721 2.3987-14.317 7.1712-19.79 4.7975-5.4721 13.843-8.2207 27.161-8.2207 5.5721 0 11.094 0.27485 16.566 0.82457 5.4472 0.52472 10.045 1.1994 13.768 1.999v231.68c0 7.7459-2.3987 14.342-7.1962 19.815-4.7725 5.4721-13.843 8.1957-27.136 8.1957" fill="#fff"/>
  <path id="path1266" d="m1450.6-117.19c-5.3222 0-10.52-0.27486-15.567-0.79958-5.0724-0.52473-9.3202-1.1994-12.768-1.999v-254.89c3.9729-1.3493 9.1701-2.4737 15.567-3.4232 6.3717-0.92451 11.819-1.3993 16.366-1.3993 14.617 0 25.262 1.874 31.933 5.622 6.6465 3.723 12.219 9.1952 16.766 16.391l90.602 142.85v-139.25c0-3.4482 0.4497-6.7215 1.3992-9.7949 0.9246-3.0734 2.5237-5.797 4.7725-8.1957 2.2739-2.3987 5.3972-4.2728 9.3951-5.5971 3.9729-1.3493 9.0453-2.0239 15.167-2.0239 5.3222 0 10.444 0.27485 15.367 0.82457 4.9224 0.52472 9.0952 1.0494 12.568 1.5742v255.32c-3.723 1.874-8.2457 3.1234-13.568 3.798-5.3222 0.67465-10.519 0.99948-15.567 0.99948-12.518 0-21.839-1.7241-27.935-5.1973-6.1467-3.4732-11.194-8.2707-15.167-14.417l-96.999-155.27v148.47c0 7.4711-2.2738 13.743-6.7964 18.815s-13.043 7.596-25.537 7.596" fill="#fff"/>
  <path id="path1270" d="m1734.1-118.79c-7.4461 0-13.518-0.79958-18.166-2.3987-4.6475-1.5992-8.2457-3.798-10.769-6.5965-2.5487-2.7985-4.2728-6.1968-5.1973-10.22-0.9245-3.9979-1.3993-8.2457-1.3993-12.793v-196.07c0-4.5476 0.4748-8.8204 1.3993-12.818 0.9245-3.9979 2.6486-7.3961 5.1973-10.195 2.5236-2.7985 6.1218-4.9974 10.769-6.5965 4.6476-1.5992 10.719-2.3987 18.166-2.3987h132.11c0.5498 2.9235 1.0745 6.9214 1.5992 11.994 0.5497 5.0723 0.7996 10.27 0.7996 15.592 0 11.219-2.2488 19.165-6.7715 23.813-4.5476 4.6726-10.245 7.0213-17.166 7.0213h-81.432v45.601h93.801c0.5248 2.6736 1.0745 6.2217 1.5992 10.619 0.5247 4.3977 0.7996 9.1452 0.7996 14.193 0 10.669-2.1489 17.941-6.3967 21.814-4.2477 3.873-9.5699 5.797-15.967 5.797h-73.836v45.226h106.97c0.5248 2.9484 1.0745 6.9963 1.5992 12.194 0.5247 5.2223 0.7996 10.345 0.7996 15.417 0 11.469-2.2738 19.465-6.7965 24.012-4.5226 4.5226-10.245 6.7964-17.141 6.7964h-114.56z" fill="#fff"/>
  <path id="path1274" d="m1926-117.19c-6.1218 0-11.519-0.59969-16.166-1.7991-4.6726-1.1994-8.7205-2.5986-12.169-4.1978l24.387-249.29c5.0723-2.1489 11.719-3.873 19.964-5.1973 8.2457-1.3493 15.292-2.0239 21.139-2.0239 8.2457 0 15.367 0.54971 21.339 1.6242 5.9969 1.0494 11.119 2.8485 15.367 5.3972 4.2477 2.5237 7.646 6.0718 10.17 10.594 2.5237 4.5476 4.4477 10.145 5.797 16.816l10.37 48.4c2.9234 13.343 6.0468 28.085 9.3701 44.227 3.3232 16.142 6.3216 32.758 8.9703 49.824h1.5991c2.9235-17.066 5.9719-33.607 9.1702-49.624s6.5216-30.684 9.9698-44.002l12.743-50.823c3.1983-12.543 8.2957-21.089 15.342-25.612 7.0463-4.5476 18.016-6.8214 32.883-6.8214 7.4461 0 14.942 0.62467 22.513 1.824s13.893 2.4487 18.94 3.798l23.338 250.89c-3.723 1.3243-8.1957 2.6736-13.368 3.9979-5.1973 1.3243-10.844 1.999-16.966 1.999-8.5206 0-15.717-1.4742-21.564-4.3977-5.847-2.9485-9.0453-8.4206-9.57-16.416l-5.9969-86.43c-1.3243-15.217-2.4487-31.134-3.3982-47.825-0.9245-16.666-1.5242-32.458-1.7991-47.425h-0.7995c-3.4482 13.893-6.9714 28.885-10.57 45.026-3.5981 16.142-7.2462 31.009-10.969 44.627l-16.366 68.014c-3.9979 16.017-16.641 24.012-37.93 24.012-5.3222 0-10.769-0.52472-16.366-1.5992-5.5721-1.0494-10.37-2.2488-14.368-3.5981l-20.339-84.831c-3.9979-15.742-7.721-31.209-11.169-46.426-3.4732-15.192-6.6715-30.409-9.595-45.601h-1.1994c-0.7996 21.339-1.849 40.879-3.1983 58.619-1.3243 17.741-2.5237 33.008-3.5731 45.801l-6.3967 78.034c-0.5247 7.7459-3.4482 13.068-8.7704 16.017-5.3472 2.9235-12.244 4.3977-20.764 4.3977" fill="#fff"/>
  <path id="path1278" d="m2302.6-226.43h59.719l-29.784-98.024-29.934 98.024zm-62.267 110.04c-5.0473 0-10.844-0.47475-17.341-1.3993-6.5465-0.92451-11.919-2.1988-16.166-3.798l82.807-253.69c7.1962-1.874 14.467-3.2233 21.814-4.0229 7.3461-0.79958 14.068-1.1994 20.214-1.1994 8.7954 0 16.341 0.67465 22.613 1.999 6.2717 1.3493 11.544 3.3482 15.817 6.0218 4.2728 2.6736 7.7959 6.1968 10.594 10.594 2.7985 4.3977 5.1473 9.545 7.0213 15.417l70.963 224.48c-4.5227 1.874-9.9698 3.2733-16.366 4.1978-6.3717 0.92452-12.643 1.3993-18.74 1.3993-6.9464 0-13.643-1.1244-20.164-3.3982-6.5216-2.2738-11.244-7.3961-14.168-15.417l-13.593-41.203h-87.054l-11.519 38.805c-2.9235 9.3451-7.8459 15.217-14.767 17.616-6.9213 2.3988-14.242 3.5981-21.964 3.5981" fill="#fff"/>
  <path id="path1282" d="m480.07-207.55c0 36.481-23.862 63.142-72.312 68.414-35.082 3.748-85.905-0.67464-110.04-3.4482-0.89952-3.9479-1.5992-8.8454-1.5992-12.693 0-31.933 17.266-39.204 33.432-39.204 16.791 0 43.227 2.8985 62.917 2.8985 21.614 0 28.21-7.3462 28.21-14.317 0-9.1702-8.7204-12.993-25.512-16.192l-45.951-8.8454c-38.255-7.3212-58.669-33.782-58.669-61.868 0-34.132 24.162-62.692 71.662-67.964 35.931-3.873 79.633 0.49974 103.65 3.4482 0.87455 4.1228 1.3243 8.0208 1.3243 12.294 0 31.833-16.766 38.705-32.958 38.705-12.418 0-31.708-2.3238-53.722-2.3238-22.413 0-31.708 6.1968-31.708 13.743 0 7.9708 8.8704 11.269 22.888 13.718l43.927 8.1457c45.126 8.3206 64.466 33.957 64.466 65.491m78.834 39.179c0 19.565-7.671 30.859-45.876 30.859-5.0723 0-9.495-0.3748-13.743-0.99948v-259.61c0-19.715 6.7215-40.279 45.301-40.279 4.8474 0 9.7699 0.49974 14.317 1.4492v268.58zm156.17 100.42c4.9974 2.5737 15.292 5.672 28.26 6.0218 22.138 0.47475 34.257-8.0208 43.227-27.885l119.04-265.51c-4.9224-2.6486-15.767-5.5721-24.687-5.772-15.292-0.27486-35.831 2.8485-48.974 34.157l-38.555 90.977-75.585-123.11c-4.8724-1.4992-16.766-3.6481-25.512-3.6481-26.661 0-41.603 9.8448-57.07 26.636l-73.486 80.383 59.119 93.026c10.919 16.941 25.312 25.587 48.699 25.587 15.292 0 28.01-3.4732 33.907-6.2967l-71.163-107.32 50.449-53.447 82.732 129.86-50.399 106.34z" fill="#ae2c3f"/>
  <path id="path1308" d="m3510.3-135.22c41.544 28.61 47.187 55.596 48.66 61.543 4.0969 0 5.6063-12.643 5.6063-31.508l-0.1437-302.57c0-35.032-16.388-46.875-59.082-46.875-14.447 0-28.894 5.3972-48.121 5.3972h-3137.8c-19.263 0-33.71-5.3972-48.157-5.3972-42.659 0-59.046 11.844-59.046 46.875l-0.14375 302.57c0 18.865 1.4735 31.508 5.5704 31.508 1.4735-5.9469 2.7313-35.032 48.66-61.543 366.86-196.85 2848.4-257.27 3244 0" fill="url(#linearGradient4403)"/>
  <path id="path11942" d="m3521-21.878c49.887 0 65.084-31 65.084-62v-329c0-31-15.197-62-65.084-62h-3263.8c-49.887 0-65.084 31-65.084 62v329c0 31 15.197 62 65.084 62h3263.8m-3261.5-4.1848c-33.588 0-56.329-19.823-56.329-52.805v-339.02c0-32.982 22.741-52.805 56.329-52.805h3259.2c33.588 0 56.33 19.823 56.33 52.805l4e-4 339.02c1e-4 32.982-22.742 52.805-56.33 52.805h-3259.2" fill="#a2a2a3"/>
  <path id="path4140" d="m2548.1-129.04c3.1723-65.97 1.5957-252.74-2.3568-279.2l-0.7822-5.2365-0.7885 8.513c-2.8286 30.538-3.6805 66.081-3.649 152.23 0.031 84.833 0.8558 121 3.6543 160.25l0.8213 11.518 0.78-8.0123c0.4289-4.4068 1.4733-22.434 2.3209-40.061z" fill="#fff"/>
  <path id="path3402" d="m2965.8-341.31s3.349-4.9962 6.161-8.7983c5.1263-6.913 14.392-16.497 21.358-22.436 2.1485-1.8068 4.6525-3.8728 4.6525-3.8728s-3.9416 0.40848-6.1611 0.86411c-5.2922 1.0291-13.057 6.1588-16.943 9.4739-6.3979 5.4361-13.428 14.297-10.26 22.153 0.4739 1.1312 1.1928 2.6159 1.1928 2.6159m35.576 9.466c10.11-0.67557 19.589-3.59 28.396-8.437 8.6491-4.8076 21.358-14.187 20.063-25.232-0.4186-3.5586-2.7567-6.261-5.7267-7.5257-3.8703-1.6732-5.8767-1.3747-10.813 0.0629-3.5702 1.0526-5.1738 1.6811-8.5465 3.6057-9.9367 5.7346-23.989 17.997-31.627 27.793-1.7694 2.2938-3.5545 4.8784-4.9368 6.638-0.9004 1.0762-1.5718 2.0896-1.4929 2.3646 0.3002 1.1233 10.727 1.0134 14.684 0.73055m-25.758 18.814c-1.0347 1.0762-2.1327 3.7472-3.2859 5.6718-0.6081 1.0212-1.7456 2.341-2.4881 2.8594-2.6303 1.9246-4.8498 2.0111-7.4091-0.21225-3.5545-3.1108-5.6081-7.9735-5.7582-12.687-0.079-2.066 0.2606-4.3206-0.1112-6.0802-0.6556-2.9223-3.6098-5.9232-5.1896-8.7276-1.864-3.323-3.3727-9.0654-3.5543-12.773-0.6557-11.579 5.4896-22.231 13.467-30.653 8.0251-8.5077 18.523-15.578 29.952-20.378 10.79-4.5406 26.619-7.62 38.475-3.5272 3.8467 1.3198 9.2337 4.5877 11.935 7.9892 0.5687 0.72272 1.0426 1.5083 1.6351 1.8775 0.5134 0.32994 1.8956 0.4635 2.9936 0.65988 3.7914 0.65203 9.2416 3.4958 11.461 5.389 4.4471 3.8414 6.9115 7.51 8.041 12.828 2.2749 10.692-3.9177 22.436-10.971 29.569-12.093 12.31-24.028 20.943-39.494 26.976-6.7771 2.6395-17.354 5.0983-25.063 4.407-2.3854-0.19651-4.8578-0.81699-7.18-0.98983-1.1769-0.10207-5.5292-1.194-5.9874-1.5397-0.5765-0.41635-1.3111-0.80913-1.4691-0.6599m13.815 23.724c0.4659 0.0864 1.2006 0.2985 1.8246 0.51847 5.4185 2.0582 7.646 7.0544 8.9809 12.522 3.0963 12.726 4.4234 40.857 4.9288 51.894 0.3792 8.2484 0.5845 16.41 0.9321 24.572 0.2923 6.9208 0.8452 16.128-0.5924 22.624-0.5292 2.3331-2.0931 5.0197-4.3444 6.4259-2.5829 1.634-8.4358 1.7597-11.651 1.0998-7.9384-1.634-10.521-6.7087-11.643-14.509-2.6935-18.626-1.406-55.178 0.1895-70.607 0.5135-5.0669 2.4566-21.391 5.1343-28.225 0.9004-2.3253 2.8515-6.9758 6.2401-6.3159m-244.48 27.95s-11.753 0.82484-19.826 1.7204c-10.292 1.092-29.62 4.4149-40.758 8.3977-3.357 1.1626-10.158 3.9985-10.75 7.4079-0.6004 3.5665 1.5954 6.3238 4.0678 9.2068 1.4218 1.6575 9.4786 9.364 11.73 11.241 9.4707 7.8478 28.665 19.985 42.827 25.876 4.834 2.0032 12.875 4.8627 12.875 4.8627s-0.6003-22.758-0.4818-45.17c0.047-11.846 0.3159-23.543 0.3159-23.543m215.33 9.0576c0.6794 6.1117-0.9162 17.675-1.1769 19.199-0.5054 3.5114-3.1752 11.611-3.6018 12.608-2.1564 4.9098-4.2654 8.9711-6.5244 12.985-3.8547 6.8972-13.001 17.824-18.452 22.499-20.205 17.377-51.5 27.275-78.356 30.535-18.207 2.1917-39.139 1.854-58.451-1.6889-6.635-1.2177-16.509-3.4644-16.509-3.4644s0.023 3.9278-0.3002 6.7008c-0.1501 1.2412-1.1137 4.572-1.6429 5.6482-1.4138 2.883-3.7124 4.3677-7.0536 4.9962-4.0442 0.76987-8.3333 0.99768-12.077-0.57344-6.1295-2.5845-8.3411-8.3034-9.3996-14.855-0.8689-5.279-1.7772-14.447-1.7772-14.447s-4.5813-2.1524-8.4123-4.0535c-11.753-5.766-22.93-12.726-32.685-19.922-2.7013-1.9875-14.328-11.681-16.903-14.101-7.1958-6.7637-13.665-13.535-18.594-22.208-3.8309-6.7716-4.9289-12.797-2.0221-19.969 4.0284-10 18.444-17.55 28.317-21.847 7.259-3.1816 29.778-10.495 39.146-11.846 4.4154-0.62846 11.272-1.8382 11.69-2.121 0.1738-0.12558 0.3002-0.23571 0.4186-0.38495 0.2132-0.30636 0.5766-10.22 0.5056-13.834-0.079-3.5665 2.6539-26.953 3.5307-31.894 0.474-2.6945 2.5118-12.993 4.5971-15.688 1.3507-1.8225 3.7599-1.6968 5.7188-0.4792 10.734 6.6223 13.989 29.655 14.786 41.376 0.4818 7.1329 0.7189 17.872 0.7189 17.872s12.314-0.35351 19.897-0.15704c7.3537 0.18078 15.466 1.3433 23.112 2.5531 9.7866 1.5397 28.854 5.6796 39.786 11.202 9.0125 4.5327 17.433 12.192 20.158 20.291 2.5434 7.4236 2.1563 12.545-1.7063 19.246-4.3364 7.5728-12.559 13.182-20.892 13.645-2.488 0.16505-11.817-1.0762-14.684-3.2837-1.1375-0.89554-1.0742-2.4824-0.2528-3.5586 0.3079-0.39279 4.6602-2.6631 7.2431-4.03 1.2875-0.69915 2.3618-1.4454 3.3571-2.3567 2.1485-1.8932 4.0679-3.9514 3.8546-6.3552-0.3001-3.1423-3.6255-5.0826-6.8167-6.3238-14.929-5.8918-44.739-10.802-59.162-11.65-5.6398-0.32994-13.649-0.61276-13.649-0.61276l1.6903 79.122s6.635 1.2648 11.856 2.1132c3.0094 0.43994 15.711 1.579 19.084 1.6654 25.711 0.67559 54.407-1.6025 78.001-12.703 10.355-4.8469 19.858-10.872 27.045-19.034 9.4944-10.833 14.463-25.617 13.144-41.061-1.4455-16.905-13.396-36.922-22.922-49.121-25.205-32.247-68.404-58.745-106.4-74.283-38.807-15.861-77.148-25.004-118.34-26.528-10.608-0.37708-33.767 0.15704-45.45 3.3779-1.6903 0.46349-3.3648 1.0291-4.9209 1.359-1.2322 0.2985-3.1438 1.1076-3.6809 1.524-0.2844 0.25917-0.5923 0.56562-0.5923 0.56562s0.7266 0.39278 1.4139 0.69914c1.2401 0.54205 6.4612 0.84841 9.1625 1.3355 2.4013 0.45563 4.9368 1.7361 5.9162 3.5036 0.9479 1.6654 1.0823 2.9773-0.064 4.3677-2.6539 3.2287-12.638 2.663-17.022 1.9875-4.5654-0.73841-10.245-2.1132-11.295-6.0724-1.2006-4.6584 1.0031-9.2225 3.4122-13.449 4.8341-8.4448 11.738-12.844 21.88-15.586 14.376-3.9278 32.535-6.6852 46.121-7.2036 30.75-1.139 59.841 4.1871 89.62 13.198 17.046 5.114 39.383 13.716 55.71 21.548 11.706 5.6089 30.189 15.963 40.568 22.726 3.27 2.1446 22.425 16.136 25.395 18.594 6.2084 5.0433 14.336 12.294 20.197 18.099 11.374 11.21 25.521 28.382 32.409 42.004 1.635 3.2837 2.9304 6.4966 5.0474 10.275 0.7345 1.2883 3.8862 9.0497 4.4075 11.296 0.5134 2.2153 1.2717 5.4754 1.3823 5.5932 0.1579 1.2019 1.5956 7.8478 1.4849 10.432zm132.46 5.7504c0.5766 0.0549 0.7188 0.0787 1.248 0.15704 9.4153 1.2726 18.641 2.9537 25.695 6.096 6.5481 2.8909 10.403 6.5202 13.902 13.017 5.3316 9.8431 5.6871 23.614 0.8688 34.046-3.6097 7.7535-11.508 14.266-18.712 17.722-7.5117 3.6136-14.866 5.3261-23.333 6.2845-14.771 1.6104-30.774-1.4219-44.091-7.8321-7.8752-3.8257-17.496-10.409-22.354-18.901-3.5702-6.2374-3.4597-14.321 0.8926-20.228 6.9114-9.4111 21.722-11.485 32.898-11.092 8.515 0.31423 23.823 2.9459 31.919 5.7896 2.2512 0.80913 10.505 4.0142 11.943 5.4596 1.0111 1.0369 1.6825 2.5059 1.2244 3.8964-1.8641 5.6168-15.569 8.5784-19.526 9.1676-10.624 1.6104-16.122-2.3724-28.183-7.1094-2.9937-1.1626-6.9825-2.451-10.047-2.7338-5.466-0.51847-12.077 0.98195-13.112 6.9444-0.5371 3.0716 3.0805 5.931 5.8372 7.1172 6.4691 2.7888 11.73 3.7707 18.112 3.8729 18.791 0.2829 39.921-2.7888 55.315-13.63 2.1248-1.4847 4.1785-3.6843 4.2101-6.4416 0-0.35351-0.5056-3.3229-1.4692-3.6293-0.1421-0.0629-0.2923 8e-3 -0.4028-0.0143-0.3555-0.10207-0.948-1.0684-1.4456-1.7047-1.1058-1.3433-5.5686-3.2522-6.4454-3.6214-10.363-4.297-29.51-6.3866-39.391-7.1958-10.347-0.87983-26.627-2.2467-30.545-2.8123-4.0205-0.56562-8.3964-1.359-11.896-2.9223-3.4834-1.5712-6.9115-5.0905-7.9383-8.979-1.8009-7.023 0.5135-15.648 4.4313-21.273 10.284-14.706 34.344-20.275 52.345-22.491 17.417-2.1603 45.568-2.1367 62.669 6.9051 2.6461 1.3983 4.0047 2.7102 3.436 5.5225-1.1058 5.2712-5.1184 8.6648-9.9288 10.157-5.0553 1.6025-15.537 2.2231-20.134 2.5059-20.624 1.1548-45.544 0.54988-65.173 5.8839-1.5404 0.43993-4.1943 1.1234-5.0711 2.0975-3.0726 3.3151 5.7108 4.2578 7.5986 4.6663 0.553 0.10983 0.6715 0.1336 1.248 0.1885l43.404 5.114m64.336 76.71c-8.3253-3.0402-10.213-16.41-10.6-23.174-1.3191-22.019 4.534-52.656 11.967-73.293 2.1247-5.876 5.1815-15.476 11.793-14.934 4.5498 0.40062 7.7961 3.8885 10.348 7.4707 6.5244 9.1518 15.102 21.556 20.79 30.189 6.3585 9.6782 12.464 19.427 18.467 28.249 0.7346 1.0684 1.4297 2.1053 2.2354 2.7652 1.0901 0.87198 2.0695 0.91912 2.5119 0.10983 0.2053-0.31424-0.1896-11.438-0.4661-13.669-0.466-3.5507-0.6793-6.4259-1.0821-9.4896-1.1059-8.9004-3.9574-21.422-6.1927-29.891-2.4644-9.4739-5.4739-19.348-7.7251-28.516-0.7188-2.9773-1.3902-5.986-1.3664-8.8219 0.023-4.1006 2.6697-6.3709 6.9667-4.8391 8.4675 2.9694 19.692 21.25 22.962 27.597 1.1138 2.1446 5.5213 13.048 6.5087 16.104 3.515 10.472 5.6397 20.401 6.6112 31.815 0.9321 11.092 0.1502 27.251-4.5654 38.186-1.7299 4.0221-5.2844 9.4346-8.2385 12.161-4.6366 4.2734-13.878 7.6121-20.245 3.9985-6.9667-3.9278-18.412-23.645-20.363-27.016-6.6429-11.532-18.072-34.086-19.842-36.615-0.3871-0.55775-0.8926-1.092-1.7773-1.359-0.6714-0.19624-0.9399 1.1941-1.1137 2.0975-1.1375 6.5673-1.9194 37.283-1.9353 38.139-0.1895 5.169-0.4423 17.848-1.943 24.093-0.9795 4.0771-1.9748 7.4236-5.7425 9.1362-2.6776 1.2019-4.7156 0.69914-7.962-0.4949m114.77-1.9639c-0.9005-0.68343-2.3538-2.1603-3.4123-3.3465-0.1659-0.16506-3.1595-4.627-3.7519-6.0017-0.5214-1.1862-0.9163-2.0424-1.2954-3.0323-2.7251-6.9994-2.6541-13.889-1.1454-21.407 1.3981-7.0151 2.7251-7.3214 6.3427-16.952 0.2291-0.5263 0.3397-0.98193 0.4187-1.5632 0.1502-1.3198-1.9984-10.197-2.1248-13.048-0.1501-4.352 3.2464-7.4393 8.9336-8.0363 0.5212-0.0473 0.9083-0.0392 1.2874-0.14931 2.267-0.54988 3.7204-4.8705 4.9605-8.3348 1.7299-4.8705 4.4312-12.294 4.4312-12.294s-7.1879-1.6497-11.034-3.0951c-4.2971-1.6104-7.5435-3.6922-9.4865-7.6121-2.3302-4.5877-0.7978-7.1329 4.0205-8.6176 1.7693-0.56563 15.719-3.2287 20.126-3.8493 5.4975-0.80127 10.671-1.4847 15.9-2.1289 4.5497-0.5499 25.418-2.9537 32.061-2.7809 10.126 0.29066 16.698 4.4384 22.614 12.962 3.1832 4.5484 5.3554 9.9531 0.5529 12.883-7.3774 4.4541-31.279 4.7919-35.663 4.8391-6.9747 0.0707-16.619-0.0472-16.619-0.0472l-4.8657 16.175s17.125-0.18079 26.745-0.21998c2.338 0 4.6761 0.12558 5.9873 0.40063 4.9131 1.0841 6.6113 4.8391 6.8088 10.252 0.2686 6.3316-0.9321 9.2461-6.0032 10.095-2.6223 0.41634-32.038 0.58914-36.026 1.0526-2.4882 0.26717-5.1184 0.65987-5.1184 0.65987s-2.1249 5.5147-3.9731 11.084c-1.8642 5.8053-3.4597 11.721-3.4597 11.721s1.4929 0.0629 2.7329 0.0629c2.0696 0.0143 4.1706-0.2829 5.8136-0.56561 8.973-1.634 22.314-3.5979 33.262-5.3104 5.8847-0.93483 8.8467-1.3512 11.943 2.5295 2.6776 3.4329 4.0678 6.3081 4.2574 10.456 0.166 3.9042-2.8278 6.4888-6.4849 9.2696-11.572 8.7983-31.35 18.335-46.09 19.969-6.8087 0.76198-8.4675 8e-3 -14.431-1.5397-1.1375-0.29065-5.2606-2.2074-5.2211-2.4116 0 0-2.2353-1.4769-2.9936-2.0661zm185.97-81.29c-7.5829 6.3159-17.377 19.191-22.054 25.876-6.2479 8.8612-12.125 19.011-17.749 26.874-1.2085 1.7675-4.8341 8.0913-4.7077 8.3034 0.2528 0.44776 3.9021 0.30637 7.654-0.32209 7.9856-1.3354 18.846-6.913 24.644-11.516 8.8387-7.0465 14.992-16.725 17.899-28.045 1.2876-5.1455 1.9431-15.931-1.7219-20.731-0.7188-0.91908-2.5513-1.6418-3.9652-0.4399m-60.22 92.477s-2.4013 7.0072-4.1627 12.506c-3.041 9.4896-9.7312 35.044-11.279 42.986-2.3302 11.783-8.9652 42.664-9.3048 43.324-0.4661 0.89554-0.7741 1.1783-1.8958 1.8932-2.7329 1.5947-3.8309 1.0684-7.1405-0.69129-4.297-2.2467-8.0725-4.5406-11.295-8.7748-6.4771-8.3663-4.9289-24.109-3.665-33.347 4.447-32.31 8.9415-46.521 21.303-78.682 0.2054-0.54988 0.2054-0.67557-0.048-1.1626-3.8546-8.162-5.932-18.021-5.932-25.986 0.031-25.209 14.597-50.15 30.932-70.182 1.2323-1.524 9.2496-11.076 12.891-10.888 3.6493 0.17278 4.2418 4.407 3.6967 7.9421-1.8326 11.642-10.071 23.504-15.703 33.324-6.3348 10.974-7.7092 15.491-10.806 25.554-0.4976 1.5711-1.7378 8.924-1.6825 9.8667 0.1263 2.7024 0.7189 6.1117 0.7189 6.1117s10.3-14.344 17.101-23.198c3.7124-4.8626 6.3822-8.0756 9.4785-11.54 3.1359-3.5193 15.213-16.002 18.689-19.293 7.3064-6.9365 10.545-9.8196 18.444-13.897 6.2637-3.2208 11.888-4.0221 17.994-8e-3 9.6839 6.3238 13.902 19.702 14.992 30.551 1.2717 12.962-1.3902 27.542-7.1405 38.642-6.8167 13.245-16.129 22.781-28.791 31.124-12.946 8.5312-28.136 14.337-43.033 13.991-2.0143-0.0473-4.3601-0.16505-4.3601-0.16505" fill="#fff"/>
 </g>
</svg>
