<?xml version="1.0" encoding="UTF-8" standalone="no"?>
<!-- Generator: Adobe Illustrator 17.1.0, SVG Export Plug-In . SVG Version: 6.00 Build 0)  -->

<svg
   xmlns:dc="http://purl.org/dc/elements/1.1/"
   xmlns:cc="http://creativecommons.org/ns#"
   xmlns:rdf="http://www.w3.org/1999/02/22-rdf-syntax-ns#"
   xmlns:svg="http://www.w3.org/2000/svg"
   xmlns="http://www.w3.org/2000/svg"
   xmlns:sodipodi="http://sodipodi.sourceforge.net/DTD/sodipodi-0.dtd"
   xmlns:inkscape="http://www.inkscape.org/namespaces/inkscape"
   enable-background="new 0 0 1372 226.8"
   xml:space="preserve"
   viewBox="-495535.13 0 0 102.3"
   height="63.581005"
   width="596.59937"
   version="1.1"
   y="0px"
   x="0px"
   id="svg2"
   inkscape:version="0.91 r13725"
   sodipodi:docname="Sky_Sports_F1 HD_2015.svg"><defs
     id="defs58"><linearGradient
       x1="-3430"
       y1="59"
       gradientTransform="matrix(-0.62090821,0,0,0.62090821,-2067.4305,1.6265951)"
       x2="-3430"
       gradientUnits="userSpaceOnUse"
       y2="163"
       id="SVGID_1_"><stop
         id="stop11"
         offset="0"
         stop-color="#091B4A" /><stop
         id="stop13"
         offset="0.0363"
         stop-color="#122D68" /><stop
         id="stop15"
         offset="0.896"
         stop-color="#122D68" /><stop
         id="stop17"
         offset="1"
         stop-color="#091B4A" /></linearGradient><linearGradient
       x1="465"
       y1="162"
       x2="465"
       gradientUnits="userSpaceOnUse"
       y2="59.900002"
       id="SVGID_2_"
       gradientTransform="matrix(0.62090821,0,0,0.62090821,-37.689128,1.6265951)"><stop
         id="stop24"
         offset="0"
         stop-color="#552227" /><stop
         id="stop26"
         offset="0.0739"
         stop-color="#C41C2B" /><stop
         id="stop28"
         offset="0.911"
         stop-color="#C41C2B" /><stop
         id="stop30"
         offset="1"
         stop-color="#FE3446" /></linearGradient></defs><sodipodi:namedview
     pagecolor="#ffffff"
     bordercolor="#666666"
     borderopacity="1"
     objecttolerance="10"
     gridtolerance="10"
     guidetolerance="10"
     inkscape:pageopacity="0"
     inkscape:pageshadow="2"
     inkscape:window-width="1920"
     inkscape:window-height="1017"
     id="namedview56"
     showgrid="false"
     fit-margin-top="0"
     fit-margin-left="0"
     fit-margin-right="0"
     fit-margin-bottom="0"
     inkscape:zoom="0.98072118"
     inkscape:cx="353.81229"
     inkscape:cy="10.91415"
     inkscape:window-x="-8"
     inkscape:window-y="-8"
     inkscape:window-maximized="1"
     inkscape:current-layer="svg2" /><metadata
     id="metadata4"><rdf:RDF><cc:Work
         rdf:about=""><dc:format>image/svg+xml</dc:format><dc:type
           rdf:resource="http://purl.org/dc/dcmitype/StillImage" /><dc:title></dc:title></cc:Work></rdf:RDF></metadata><path
     style="display:none;fill:#a1a2a2"
     inkscape:connector-curvature="0"
     id="path8"
     d="m 7.5750802,64.636544 c -5.0293565,0 -8.38226088,-2.98036 -8.38226088,-7.885533 l 0,-50.0452015 c 0,-4.905175 3.41499518,-7.885535 8.38226088,-7.885535 l 501.0729298,0 c 5.02935,0 8.38226,2.98036 8.38226,7.885535 l 0,50.5419285 c 0,4.905176 -3.415,7.885536 -8.38226,7.885536 l -501.0729298,0 z m 501.0729298,0.62091 c 7.45089,0 9.68616,-4.594721 9.68616,-9.251533 l 0,-49.0517485 c 0,-4.594721 -2.23527,-9.251532 -9.68616,-9.251532 l -501.693838,0 c -7.45089857,0 -9.6861681,4.59472 -9.6861681,9.251532 l 0,49.0517485 c 0,4.594721 2.23526953,9.251533 9.6861681,9.251533 l 501.693838,0 z"
     display="none" /><g
     id="g4217"
     transform="translate(-3.47e-7,-38.818996)"><path
       d="M 6.7678998,102.21373 C 1.7385433,102.21373 3.47e-7,99.233366 3.47e-7,94.328191 l 0,-47.437387 c 0,-4.905175 1.800633853,-7.885535 6.767899453,-7.885535 l 114.8680202,0 0,63.332641 -114.8680202,0 z"
       id="path19"
       style="fill:url(#SVGID_1_)"
       inkscape:connector-curvature="0" /><path
       d="m 385.14936,102.21373 0,-63.332642 200.52159,0 c 8.12111,0 10.92841,2.980359 10.92841,7.885534 l 0,47.747841 c 0,4.905175 -2.90756,7.885537 -10.92841,7.885537 l -200.52159,0 z"
       id="path21"
       inkscape:connector-curvature="0"
       style="fill:#1d1d1b" /><rect
       height="63.332638"
       width="267.61145"
       y="38.818996"
       x="117.53793"
       id="rect32"
       style="fill:url(#SVGID_2_)" /><g
       transform="matrix(0.62090821,0,0,0.62090821,-37.689128,1.6265951)"
       id="g34"
       style="opacity:0.4"><path
         d="m 672,139 c 7,6.9 8.8,13.3 9.1,14.8 l 0,-90.1 -18,0 -584,0 c -3.2,0 -5.6,-1.3 -8.1,-1.3 -7.1,0 -9.9,2.8 -9.9,11.3 l 0,72.6 c 0,4.5 0.3,7.6 0.9,7.6 0.2,-1.4 0.5,-8.4 8.1,-14.8 61.5,-47.3 535,-61.8 601,-0.1 z"
         id="path36"
         inkscape:connector-curvature="0"
         style="fill:#ffffff" /></g><path
       d="m 75.937074,97.246459 c 0.74509,0.372545 2.297361,0.869272 4.222176,0.869272 3.290814,0.06209 5.091448,-1.179726 6.457446,-4.160085 L 104.37467,54.403793 c -0.74509,-0.372545 -2.35945,-0.807181 -3.66336,-0.869272 -2.297358,-0.06209 -5.339809,0.434636 -7.326715,5.091448 L 87.796421,72.844767 76.620073,54.465884 c -0.745089,-0.248364 -2.483632,-0.558818 -3.78754,-0.558818 -3.973812,0 -6.209082,1.49018 -8.506442,3.973813 L 53.398106,69.864407 62.215003,83.71066 c 1.614361,2.545724 3.78754,3.787541 7.264626,3.787541 2.29736,0 4.160085,-0.496727 5.029357,-0.931363 L 63.953546,70.423225 71.404444,62.786054 83.822609,82.220481 76.37171,97.743186 Z M 52.653017,82.282572 c 0,2.918268 -1.117635,4.59472 -6.829991,4.59472 -0.74509,0 -1.428089,-0.06209 -2.048997,-0.124181 l 0,-38.434219 c 0,-2.918268 0.993453,-6.022809 6.7679,-6.022809 0.745089,0 1.428089,0.06209 2.111088,0.186272 l 0,40.110671 z M 40.917851,76.446034 c 0,5.463993 -3.539176,9.437805 -10.803802,10.182895 -5.215629,0.558817 -12.79071,-0.124182 -16.391977,-0.496727 -0.124182,-0.558817 -0.248363,-1.303907 -0.248363,-1.862724 0,-4.780993 2.545723,-5.836537 4.967265,-5.836537 2.483633,0 6.457446,0.434635 9.375714,0.434635 3.228723,0 4.222176,-1.117634 4.222176,-2.111087 0,-1.365999 -1.303907,-1.924816 -3.78754,-2.421543 l -6.82999,-1.303907 c -6.271173,-1.241816 -9.313624,-5.588174 -9.313624,-9.313623 0,-5.091447 3.601268,-9.375714 10.679622,-10.120804 5.33981,-0.558817 11.859346,0.06209 15.460614,0.496727 0.124182,0.620908 0.186273,1.179725 0.186273,1.862724 0,4.718903 -2.483633,5.774447 -4.905175,5.774447 -1.862725,0 -4.718903,-0.372545 -8.009716,-0.372545 -3.352905,0 -4.718903,0.931362 -4.718903,2.048997 0,1.179726 1.303908,1.676452 3.414996,2.048997 l 6.519536,1.241817 c 6.705808,1.055543 9.624077,4.905174 9.624077,9.624077 z"
       id="path38"
       inkscape:connector-curvature="0"
       style="fill:#ffffff" /><path
       d="m 167.83149,77.998305 c 0,-6.581627 -4.28427,-9.81035 -11.11426,-11.300529 l -11.79725,-3.104542 c -2.17318,-0.496726 -3.97382,-1.179725 -3.97382,-3.352904 0,-2.359451 1.86273,-3.290813 6.89209,-3.290813 5.89862,0 7.32671,0.310454 12.66652,0.310454 2.48364,0 5.02936,-1.179726 5.02936,-6.02281 0,-0.620908 -0.0621,-1.241816 -0.18627,-1.862725 -3.60127,-0.310454 -10.12081,-0.682999 -18.06843,-0.682999 -12.04562,0 -16.64034,5.215629 -16.64034,11.859347 0,6.209082 3.91172,9.686168 10.86589,11.30053 l 11.98353,2.794087 c 2.79409,0.682999 4.28427,1.862724 4.28427,3.601267 0,2.359451 -2.11109,3.290814 -7.14045,3.290814 -5.89863,0 -8.63062,-0.434636 -14.03252,-0.434636 -2.48364,0 -5.02936,1.117635 -5.02936,6.02281 0,0.620908 0.0621,1.241816 0.18627,1.862724 3.60127,0.372545 11.42471,0.807181 19.37234,0.807181 12.10771,0.06209 16.8887,-5.091447 16.8887,-12.169801 z"
       id="path40"
       inkscape:connector-curvature="0"
       style="fill:#ffffff" /><path
       d="m 266.55589,67.442865 0,-10.182894 9.4999,0 c 4.0359,0 7.26463,0.620908 7.26463,4.843084 0,3.539177 -2.42155,5.27772 -7.26463,5.27772 l -9.4999,0 z m -0.0621,7.947625 5.02936,0 9.68617,11.548893 c 1.80063,2.23527 3.53918,3.414995 7.69926,3.414995 2.79409,0 4.65681,-0.372545 6.14699,-1.117634 L 282.45115,74.645401 c 7.07835,-1.49018 10.61753,-6.084901 10.61753,-12.8528 0,-8.32017 -5.09145,-12.418165 -15.33644,-12.418165 l -14.65343,-0.06209 c -4.78099,0.186272 -6.33326,1.800633 -6.33326,6.146991 l 0,34.212042 c 0.74509,0.124182 1.55227,0.186273 2.42154,0.186273 6.02281,0 7.4509,-1.738543 7.4509,-4.905175 L 266.4938,75.39049 Z"
       id="path42"
       inkscape:connector-curvature="0"
       style="fill:#ffffff" /><path
       d="m 182.11238,68.684682 0,-11.36262 9.87244,0 c 4.90517,0 7.32672,1.800633 7.32672,5.401901 0,3.78754 -2.42155,5.712355 -7.32672,5.712355 l -9.93453,0 z m -9.81035,21.17297 c 0.74509,0.124181 1.55227,0.186272 2.42154,0.186272 6.02281,0 7.4509,-1.738543 7.4509,-4.905175 l 0,-8.258079 10.24498,0 c 11.17635,0 16.76453,-4.843084 16.76453,-13.908344 0,-8.754806 -5.58818,-13.411617 -16.08153,-13.411617 l -14.46716,0 c -4.84308,0 -6.33326,1.862725 -6.33326,6.146991 l 0,34.149952 z"
       id="path44"
       inkscape:connector-curvature="0"
       style="fill:#ffffff" /><path
       d="m 241.71957,68.684682 c 0,4.656811 -0.80718,7.885534 -2.35945,9.87244 -1.49018,1.986907 -3.97382,2.918269 -7.38881,2.918269 -3.415,-0.06209 -5.89863,-1.055544 -7.51299,-2.918269 -1.55227,-1.862724 -2.35945,-5.153538 -2.35945,-9.87244 0,-4.656812 0.86927,-7.885534 2.42154,-9.81035 1.55227,-1.924815 4.0359,-2.856178 7.4509,-2.856178 3.41499,0 5.77444,0.931363 7.38881,2.856178 1.55227,1.924816 2.35945,5.153538 2.35945,9.81035 z m -9.74826,20.800425 c 6.33326,0 11.23844,-1.49018 14.71552,-4.594721 3.415,-3.04245 5.21563,-8.444352 5.21563,-16.205704 -0.0621,-7.637171 -1.80063,-12.914891 -5.4019,-16.081523 -3.53918,-3.104541 -8.38226,-4.656811 -14.52925,-4.656811 -6.0849,0 -10.92799,1.55227 -14.52925,4.656811 -3.53918,3.166632 -5.33982,8.444352 -5.40191,16.081523 0,7.761352 1.73855,13.163254 5.21563,16.205704 3.47709,3.104541 8.38226,4.594721 14.71553,4.594721 z"
       id="path46"
       inkscape:connector-curvature="0"
       style="fill:#ffffff" /><path
       d="m 319.33309,57.570425 7.94763,0 c 2.60781,0 5.27772,-1.179726 5.27772,-6.333264 0,-0.620908 -0.0621,-1.303907 -0.18627,-1.924815 l -30.73496,0 c -2.60782,0 -5.27772,1.179725 -5.27772,6.333263 0,0.620909 0.0621,1.303908 0.18627,1.924816 l 13.03907,0 0,32.038863 c 0.74509,0.124182 1.55227,0.186273 2.42155,0.186273 6.02281,0 7.45089,-1.738543 7.45089,-4.905175 l 0,-27.319961 z"
       id="path48"
       inkscape:connector-curvature="0"
       style="fill:#ffffff" /><path
       d="m 396.94662,89.795561 28.74805,-40.669488 29.7415,0 c 0,0 -5.71235,10.617531 -21.48342,10.55544 l -5.33981,7.512989 10.36916,0.434636 -7.57508,10.679621 -10.61753,0.124182 -7.94762,11.36262 -15.89525,0 z"
       id="path50"
       inkscape:connector-curvature="0"
       style="fill:#ffffff" /><polygon
       transform="matrix(0.62090821,0,0,0.62090821,-37.689128,1.6265951)"
       points="800,109 846,111 797,113 842,115 794,118 840,120 801,123 836,126 804,128 833,130 800,132 829,135 797,137 826,140 785,142 798,123 780,123 814,76.6 870,78.5 820,81.1 866,83.7 816,85.6 863,88 813,90.4 860,92.7 810,94.9 856,97.7 806,99.6 853,102 803,104 850,106 "
       id="polygon52"
       style="fill:#e42227" /><path
       d="m 372.11029,77.998305 c 0,-6.581627 -4.28427,-9.81035 -11.11426,-11.300529 l -11.98352,-2.731997 c -2.17318,-0.496726 -3.97382,-1.179725 -3.97382,-3.352904 0,-2.359451 1.86273,-3.290813 6.89208,-3.290813 5.89863,0 7.32672,0.310454 12.66653,0.310454 2.48363,0 5.02936,-1.179726 5.02936,-6.02281 0,-0.620908 -0.0621,-1.241816 -0.18627,-1.862725 -3.60127,-0.310454 -10.12081,-0.682999 -18.06843,-0.682999 -12.04562,0 -16.64034,5.215629 -16.64034,11.859347 0,6.209082 3.91172,9.686168 10.86589,11.30053 l 11.98353,2.794087 c 2.79409,0.682999 4.28427,1.862724 4.28427,3.601267 0,2.359451 -2.11109,3.290814 -7.14045,3.290814 -5.89863,0 -8.63062,-0.434636 -14.03252,-0.434636 -2.48364,0 -5.02936,1.117635 -5.02936,6.02281 0,0.620908 0.0621,1.241816 0.18627,1.862724 3.60127,0.372545 11.42471,0.807181 19.37234,0.807181 12.10771,0.06209 16.8887,-5.091447 16.8887,-12.169801 z"
       id="path54"
       inkscape:connector-curvature="0"
       style="fill:#ffffff" /><path
       id="path89"
       d="m 562.68991,79.021014 0,-19.011962 5.55999,0 c 7.73999,0 10.56998,4.99899 10.56998,9.504981 0,4.508991 -2.82999,9.506981 -10.56998,9.506981 l -5.55999,0 z m 24.03996,-9.505981 c 0,-9.89998 -7.11999,-16.627967 -18.91997,-16.627967 l -8.02998,0 c -3.84999,0 -4.76999,2.036996 -4.76999,4.693991 l 0,23.911952 c 0,2.566995 0.92,4.641991 4.76999,4.641991 l 8.02998,0 c 11.79998,0 18.92997,-6.716987 18.92997,-16.619967 m -44.23992,-3.846993 0,-9.005982 c 0,-2.433995 0.97,-3.984992 6.00999,-3.984992 0.62,0 1.15,0.047 1.77,0.133 l 0,29.545942 c 0,2.427995 -0.98,3.972992 -6.01999,3.972992 -0.61,0 -1.15,-0.043 -1.76,-0.128 l 0,-13.417974 -15.69996,0 0,9.571982 c 0,2.428995 -0.97,3.973992 -6.00999,3.973992 -0.62,0 -1.15,-0.043 -1.77,-0.129 l 0,-29.538942 c 0,-2.434995 0.97,-3.984992 6.00999,-3.984992 0.62,0 1.15,0.046 1.77,0.133 l 0,12.856974 15.69996,0 z"
       style="fill:#ffffff"
       inkscape:connector-curvature="0" /></g></svg>