<svg height="666.66199" viewBox="0 0 2792.0874 666.65997" width="2792.043" xmlns="http://www.w3.org/2000/svg"><g stroke-width="5.555597"><path d="m1109.4004-.00134016h1638.1992c24.4439 0 44.4439 19.99999016 44.4439 44.44397716v577.779683c0 24.44399-20 44.44398-44.4439 44.44398h-1638.1992z" fill="#7f98a9"/><path d="m43.889976-.00231016c-24.443986 0-43.888976 20.55698916-43.888976 43.89097616v578.329684c0 24.44399 20.000989 44.44498 44.444976 44.44498h1064.999424v-666.66964016z" fill="#fff"/><path d="m506.67073 64.442656c-54.99998 0-64.44297 28.888984-64.44297 57.222974v369.9998c6.11109 1.11109 12.221 1.66599 19.44299 1.66599 54.44397 0 65.55697-16.11099 65.55697-43.88897v-382.779796c-6.6667-1.666699-13.89-2.222698-20.55699-2.222698zm210.55988 108.329944c-37.77798 0-59.44396 13.88799-81.66596 37.77698l-104.44993 114.44994 84.44494 132.77993c15.556 24.44398 36.10998 36.66598 69.44296 36.66598 21.667 0 40.00098-4.99981 48.33398-8.88871l-101.66995-153.32991 72.22097-76.11096 118.32993 185.5599-72.22296 151.10992c7.2222 3.8889 21.668 8.334 40.55698 8.334 31.66698.55549 48.88797-11.667 61.66597-39.99998l169.99986-378.8898c-7.2221-3.889-22.77794-7.77649-34.99993-8.33209-21.667-.5555-51.11098 3.8886-69.99996 48.88897l-54.99998 129.99993-108.32994-174.9999c-7.22229-2.22221-23.88798-5-36.66598-5zm-426.83977.01c-14.89099.047-29.73898.6937-43.71497 2.2129-67.77797 7.77769-102.21994 48.33197-102.21994 97.22094 0 39.99998 28.88798 77.77796 83.33195 88.33396l64.99996 11.66599c24.44399 5 36.66798 10.00099 36.66798 23.33398 0 10-8.88889 20.55499-39.99998 20.55499-28.33298 0-66.11096-3.8887-89.99995-3.8887-23.33299 0-47.77898 10.556-47.77898 56.11098 0 5.5556 1.11161 12.77799 2.22271 18.33399 34.44397 3.8889 107.21994 10.55599 157.21992 5 69.44396-7.7778 103.32994-45.55498 103.32994-97.77695 0-44.99998-27.22399-81.66596-91.66796-93.88895l-62.77696-11.66799c-19.99999-3.3334-32.77698-8.3322-32.77698-19.443 0-10.55598 12.77799-19.44499 44.99997-19.44499 31.66699 0 58.88797 3.3339 76.66596 3.3339 23.33299 0 47.22297-9.44449 47.22297-54.99996 0-6.1112-.5549-11.666-1.66599-17.777-23.29899-3.05559-60.25197-6.89889-97.68195-7.19729-2.1267-.017-4.2555-.022-6.3828-.016z" fill="#7f98a9"/></g><g fill="#fff" transform="translate(.001 -.00231)"><path d="m712.9 88.3v-66.4c0-2.1 1.2-3.4 4.8-3.4 1.5 0 3.1.3 4 .5v66.3c0 2.2-1.1 3.4-4.6 3.4-1.7.1-3.4-.1-4.2-.4" transform="matrix(6.2370331 0 0 6.2370331 -3170.0346 -62.440883)"/><path d="m642 36.8v49.1c0 13.6-10.1 22.3-25.7 22.3-7.5 0-14.9-2.1-20.8-4.9-.4-4.1.9-6.7 3.7-6.7 1.1 0 2.2.3 4.2 1.1 2.8 1.1 6.9 2.7 12.8 2.7 10.3 0 17-4.8 17-14.7v-5.7c-3.1 4.1-9.3 8-17.8 8-12.5 0-24.1-10.1-24.1-26.1 0-16.2 11.7-26.2 24.2-26.2 8.3 0 14.6 3.9 17.8 8.2v-4.1c0-2.1 1.2-3.5 4.5-3.5 1.6 0 3.4.3 4.2.5m-8.8 16.4c-2.8-5.9-8.9-9.9-15.9-9.9-9.6 0-17.2 6.9-17.2 18.6 0 11.6 7.6 18.5 17.2 18.5 7 0 13.1-4.1 15.9-9.9z" transform="matrix(5.9944815 0 0 5.9944815 -1229.9092 -41.690572)"/><path d="m730.4 21.9c0-3.2 2.6-5.6 5.7-5.6s5.6 2.4 5.6 5.6c0 2.9-2.5 5.6-5.6 5.6-3.1.1-5.7-2.6-5.7-5.6zm1.2 65.9v-48.7c0-2.1 1.2-3.4 4.8-3.4 1.5 0 3.2.2 4.1.4v48.7c0 2.2-1.2 3.4-4.8 3.4-1.5 0-3.2-.2-4.1-.4z" transform="matrix(5.9808183 0 0 5.9808183 -2965.4263 -36.693446)"/><path d="m754 87.8v-51.7c.9-.2 2.6-.4 4.2-.4 3.4 0 4.4 1.4 4.4 3.5v3.8c4-4.4 9.9-7.9 17.5-7.9 10.6 0 19.4 6.7 19.4 22.1v27.7c0 2.1-1.2 3.4-4.8 3.4-1.5 0-3.2-.2-4.1-.4v-29.6c0-10.4-5.1-15.4-12.8-15.4-6.1 0-12.5 4.1-15.2 9v32.9c0 2.1-1.1 3.4-4.7 3.4-1.3 0-3.1-.2-3.9-.4z" transform="matrix(5.9873133 0 0 5.9873133 -2522.4581 -37.830243)"/><path d="m730.4 21.9c0-3.2 2.6-5.6 5.7-5.6s5.6 2.4 5.6 5.6c0 2.9-2.5 5.6-5.6 5.6-3.1.1-5.7-2.6-5.7-5.6zm1.2 65.9v-48.7c0-2.1 1.2-3.4 4.8-3.4 1.5 0 3.2.2 4.1.4v48.7c0 2.2-1.2 3.4-4.8 3.4-1.5 0-3.2-.2-4.1-.4z" transform="matrix(5.9808183 0 0 5.9808183 -2505.0158 -36.586331)"/><path d="m906 87.5-21.5-50.6c1.2-.6 3.4-1.3 5.7-1.3 2.6 0 3.8.9 4.8 3.1l8.8 21.9c2.6 6.3 5.1 12.5 7.4 18.8h.1c2.3-6.3 4.8-12.5 7.4-18.8l8.8-21.9c.9-2.3 2.1-3.1 4.7-3.1 2.3 0 4.4.6 5.7 1.3l-20.4 47.6c-1.2 2.8-2.4 3.7-6.1 3.7-2.1-.1-3.9-.3-5.4-.7" transform="matrix(6.1024753 0 0 5.9935554 -3892.2019 -37.760192)"/></g><path d="m44.444976-.00134016h2703.198624c24.4439 0 44.4439 19.99999016 44.4439 44.44397716v212.219883l-2728.198535 123.88994c-35.55598 1.1111-63.888965 30.55598-63.888965 66.11096v-402.219783c0-24.443987 19.999989-44.44397717 44.443976-44.44397717z" fill="#fff" opacity=".2" stroke-width="5.555597"/></svg>