<svg height="4.63035mm" viewBox="0 0 53.8575 16.406751" width="15.199783mm" xmlns="http://www.w3.org/2000/svg" xmlns:xlink="http://www.w3.org/1999/xlink"><linearGradient id="a" gradientTransform="matrix(0 -9.6754198 9.6754198 0 329.12238 430.91119)" gradientUnits="userSpaceOnUse" spreadMethod="pad" x1="0" x2="1" y1="0" y2="0"><stop offset="0" stop-color="#af6773"/><stop offset=".104411" stop-color="#c9747a"/><stop offset=".898134" stop-color="#c9747a"/><stop offset=".999673" stop-color="#d49093"/><stop offset="1" stop-color="#d49093"/></linearGradient><linearGradient id="b" gradientTransform="matrix(0 9.8377168 9.8377168 0 320.21825 421.1516)" gradientUnits="userSpaceOnUse" spreadMethod="pad" x1="0" x2="1" y1="0" y2="0"><stop offset="0" stop-color="#b4b2b1"/><stop offset=".020448" stop-color="#e8e8e9"/><stop offset=".0524045" stop-color="#f9f9fa"/><stop offset=".487663" stop-color="#f5f5f5"/><stop offset=".895488" stop-color="#f9f9fa"/><stop offset=".929442" stop-color="#f4f3f4"/><stop offset=".964262" stop-color="#e8e8e9"/><stop offset="1" stop-color="#b4b2b1"/></linearGradient><linearGradient id="c" gradientTransform="matrix(0 -9.6754198 9.6754198 0 329.12238 430.91119)" gradientUnits="userSpaceOnUse" spreadMethod="pad" x1="0" x2="1" y1="0" y2="0"><stop offset="0" stop-color="#810a32"/><stop offset=".104411" stop-color="#a90e3a"/><stop offset=".898134" stop-color="#a90e3a"/><stop offset=".999673" stop-color="#b94556"/><stop offset="1" stop-color="#b94556"/></linearGradient><linearGradient id="d" gradientTransform="matrix(0 9.8377168 9.8377168 0 320.21825 421.1516)" gradientUnits="userSpaceOnUse" spreadMethod="pad" x1="0" x2="1" y1="0" y2="0"><stop offset="0" stop-color="#888685"/><stop offset=".020448" stop-color="#d9d9da"/><stop offset=".0524045" stop-color="#f5f5f6"/><stop offset=".487663" stop-color="#eeefef"/><stop offset=".895488" stop-color="#f5f5f6"/><stop offset=".929442" stop-color="#ebebec"/><stop offset=".964262" stop-color="#d9d9da"/><stop offset="1" stop-color="#888685"/></linearGradient><g transform="translate(-293.28961 -420.89473)"><path d="m345.73248 421.23635c.7625 0 1.03375.45 1.03375 1.19875 0-.74875-.27125-1.19875-1.03375-1.19875zm-34.255 0h34.255zm-16.77375 0c-.7625 0-1.03375.45-1.03375 1.19875v7.27625c0 .75.27125 1.2 1.03375 1.2h16.77375v-5.75625c-.9425.07-1.87.15-2.77375.2375l-1.91875 4.28125c-.1975.43875-.46375.6325-.94125.6325-.0138 0-.0275 0-.04-.001-.29375-.007-.52875-.0775-.64125-.135l1.14375-2.415-1.24-1.945c-.60125.0813-1.1875.165-1.75375.25375l1.58625 2.39375c-.13375.0637-.4225.1425-.77125.1425-.53 0-.85625-.19625-1.10375-.58125l-1.095-1.7225c-.105.0187-.20875.0375-.31125.0575v1.535c0 .445-.175.70125-1.0425.70125-.115 0-.21625-.007-.31125-.0225v-1.94625c-.155.0337-.31.0675-.46.10125.015.09.0238.1825.0238.2775 0 .82875-.5425 1.43375-1.64125 1.5525-.22.0238-.465.0337-.71875.0337-.66625 0-1.38375-.0662-1.78-.11125-.02-.09-.0362-.20125-.0362-.2875 0-.06.002-.115.007-.1675-.425.2-.78.4075-1.05875.6225-.725.6025-.74375 1.2625-.7675 1.39625-.065 0-.0887-.28625-.0887-.71375l.002-6.87c0-.795.25875-1.06375.93125-1.06375.22875 0 .4575.1225.76125.1225h16.03875v-.2775h-16.77375zm11.79125 4.39375.44375.725.3475-.815c-.2675.0288-.53125.06-.79125.09m-9.06875 1.71875c.14375.009.285.0137.4125.0137.4825 0 .635-.16125.64-.3175-.37.0987-.72.2-1.0525.30375m48.30625 3.5625c.72625 0 1.00625-.4075 1.0325-1.09125-.0263.68375-.30625 1.09125-1.0325 1.09125" fill="url(#d)"/><path d="m345.66961 431.17848c1.1325 0 1.4775-.70375 1.4775-1.4075v-7.46875c0-.70375-.345-1.4075-1.4775-1.4075h-50.9025c-1.1325 0-1.4775.70375-1.4775 1.4075v7.46875c0 .70375.345 1.4075 1.4775 1.4075zm-50.85-.095c-.7625 0-1.27875-.45-1.27875-1.19875v-7.69625c0-.74875.51625-1.19875 1.27875-1.19875h50.7975c.7625 0 1.27875.45 1.27875 1.19875v7.69625c0 .74875-.51625 1.19875-1.27875 1.19875z" fill="#a2a2a3"/><path d="m311.47748 421.23635v.2775h33.48625c.30375 0 .53125-.1225.76-.1225.6725 0 .93125.26875.93125 1.06375l.004 6.87c0 .4275-.025.71375-.0888.71375-.0238-.13375-.1125-.7475-.76875-1.39625-.37375-.35-.86375-.67375-1.45875-.97125l.40125 1.27125c-.1025.0425-.22625.0737-.37125.095s-.28625.0312-.425.0312c-.1575 0-.31-.025-.4575-.0763-.14875-.0512-.25625-.16875-.3225-.35l-.3075-.93625h-1.9775l-.26125.88125c-.0663.2125-.17875.345-.335.40125-.1575.0537-.32375.08-.4975.08-.115 0-.24625-.01-.395-.0312-.1475-.0213-.27-.0487-.3675-.0863l.88875-2.72125c-.48875-.10875-.99625-.21-1.525-.30375l.2775 2.98875c-.0838.03-.185.0613-.30375.0913-.11625.03-.24625.045-.385.045-.1925 0-.35625-.0325-.48875-.1-.1325-.0662-.20625-.19-.2175-.3725l-.13625-1.9625c-.025-.29125-.0475-.595-.0675-.91125-.115-.0163-.23125-.035-.34875-.0513-.0688.29875-.1375.5775-.20875.83625l-.37125 1.54375c-.0913.36375-.37875.545-.86125.545-.12125 0-.245-.0112-.37125-.0362-.12625-.0238-.23625-.0512-.32625-.0825l-.46125-1.92375c-.0913-.35875-.17625-.70875-.255-1.055-.0138-.0613-.0275-.125-.0412-.18625-.08-.007-.16125-.0175-.2425-.025-.01.175-.0213.34375-.0337.50625-.03.4025-.0575.75-.08 1.04125l-.14625 1.77c-.0113.17625-.0788.2975-.19875.36375-.12125.0675-.2775.1-.47125.1-.14 0-.26125-.0138-.36625-.04-.10625-.0275-.19875-.06-.2775-.0962l.3675-3.75625c-1.1075-.0962-2.24875-.1725-3.41875-.2325v.54625h2.13c.0125.0612.0238.14.0362.24125.0125.1.0175.20625.0175.32125 0 .2425-.0475.40875-.14375.49625-.0962.0875-.21875.13125-.36375.13125h-1.67625v1.02625h2.43c.0112.0663.0225.15875.035.27625.0125.11875.0188.23625.0188.35 0 .26125-.0512.4425-.155.54625-.10125.1025-.23125.15375-.38875.15375h-2.60125c-.16875 0-.30625-.0175-.41125-.0538-.10625-.0375-.18875-.0863-.245-.15125-.0575-.0625-.0975-.14-.1175-.23125-.0213-.09-.0325-.1875-.0325-.29v-3.42875c-.34875-.015-.7025-.0275-1.05375-.0375v4.12c-.085.0425-.1875.0712-.30875.0862-.12.015-.23875.0225-.35375.0225-.2825 0-.495-.04-.63375-.11875-.13875-.0787-.25375-.18625-.345-.32625l-2.20125-3.52375v3.36875c0 .17-.0513.3125-.15375.4275-.1025.115-.29625.1725-.58.1725-.12125 0-.23875-.006-.35375-.0188-.115-.0113-.21125-.0263-.28875-.0437v-4.22625c-.35375.004-.70375.007-1.0575.0112v3.64125c0 .17625-.0537.32625-.1625.45-.1075.12375-.31375.18625-.615.18625-.1275 0-.2525-.006-.37625-.0188-.125-.0113-.22875-.0263-.3125-.0437v-4.185c-1.1725.0275-2.34125.0687-3.495.12375-.11375.1325-.20625.28625-.27625.4625-.0787.2-.1175.425-.1175.67375 0 .25875.0388.4925.1175.6975.0788.2075.185.38125.32125.52375.13625.14125.29875.25125.485.32625.18875.0762.3875.11375.59875.11375.1325 0 .25-.009.35375-.0275.1025-.0175.19375-.0362.275-.0538.0825-.0175.15875-.0375.2325-.055.0713-.0175.1475-.0275.225-.0275.44125 0 .63875.40375.59 1.20875-.2475.10375-.52375.1875-.82875.25375-.305.0663-.6125.1-.92.1-.42875 0-.825-.0775-1.1875-.23125s-.67625-.3675-.94125-.64c-.26625-.27375-.475-.59625-.62625-.9725-.15-.375-.22625-.78125-.22625-1.21625 0-.36875.0563-.715.16875-1.04125-.66125.04-1.315.0838-1.96375.1325v5.75625h34.255c.72625 0 1.00625-.4075 1.0325-1.09125 0-.035.001-.0713.001-.10875v-7.27625c0-.74875-.27125-1.19875-1.03375-1.19875h-34.255zm13.625 5.59875v-2.04625c-.435-.009-.87125-.0163-1.31-.0213l1.31 2.0675zm10.03625-.85875c.075.3675.1425.74375.20375 1.13125h.0362c.0662-.3875.13625-.76375.2075-1.12625.0325-.16375.0663-.32.1-.47-.21875-.0288-.44-.0562-.6625-.0825.0375.1725.075.35625.115.5475m6.0625.595h.1125c-.035-.01-.0688-.0188-.10375-.0275l-.009.0275z" fill="url(#c)"/><g fill="#fff"><path d="m316.25348 429.12423c-.42875 0-.825-.0775-1.1875-.23125-.3625-.155-.67625-.36875-.94125-.64125-.26625-.2725-.475-.59625-.62625-.97125-.15-.37625-.22625-.78125-.22625-1.2175 0-.42375.0763-.82125.22625-1.19.15125-.37.36-.69.62625-.9625.265-.2725.57875-.48625.94125-.64125.3625-.15375.75875-.23125 1.1875-.23125.30875 0 .6075.0337.8975.1.29.0662.55875.15125.80625.25375.0538.80625-.1425 1.20875-.58875 1.20875-.0787 0-.15125-.009-.2175-.0275-.0675-.0175-.14-.0362-.2175-.0537-.0787-.0188-.16625-.0375-.26375-.055-.0962-.0188-.21125-.0275-.34375-.0275-.21125 0-.41125.0375-.5975.11375-.1875.0763-.35.185-.485.3275-.13625.14125-.24375.3125-.3225.5125-.0775.2-.1175.42375-.1175.6725 0 .26.04.49375.1175.7.0788.205.18625.38.3225.52125.135.1425.2975.25125.485.3275.18625.0762.38625.11375.5975.11375.1325 0 .25-.009.35375-.0275.1025-.0175.195-.0362.27625-.055.0813-.0175.15875-.0362.23125-.0538.0725-.0188.1475-.0275.22625-.0275.44125 0 .6375.4025.58875 1.20875-.2475.1025-.52375.1875-.82875.25375-.305.0663-.61125.1-.92.1"/><path d="m319.38048 429.05148c-.12625 0-.2525-.006-.37625-.0188-.12375-.0113-.2275-.0263-.3125-.045v-5.26c0-.175.055-.325.16375-.44875.10875-.125.31375-.18625.615-.18625.1275 0 .2525.006.37625.0175.12375.0125.22875.0275.3125.0462v5.25875c0 .17625-.0537.32625-.1625.45-.10875.12375-.31375.18625-.61625.18625"/><path d="m321.85873 429.05148c-.12125 0-.23875-.006-.35375-.0188-.115-.0113-.21125-.0263-.29-.045v-5.78625c.0913-.03.20875-.0562.35375-.0775s.26875-.0312.37125-.0312c.3325 0 .57375.0425.725.12625.15125.085.2775.21.38125.3725l2.05625 3.24375v-3.16125c0-.0787.01-.1525.0325-.2225.02-.07.0563-.1325.1075-.18625.0512-.055.1225-.0975.21375-.1275.09-.03.205-.045.34375-.045.12125 0 .2375.006.34875.0175.1125.0125.2075.025.28625.0362v5.79625c-.085.0425-.1875.0713-.30875.0863s-.23875.0225-.3525.0225c-.285 0-.49625-.0388-.635-.1175-.13875-.0788-.25375-.18875-.34375-.3275l-2.2025-3.525v3.37c0 .17-.0513.3125-.15375.4275-.1025.115-.29625.1725-.58.1725"/><path d="m328.29561 429.01523c-.16875 0-.30625-.0187-.4125-.055-.105-.0363-.1875-.0863-.245-.15-.0562-.0625-.0962-.14-.1175-.23125-.0212-.0913-.0312-.1875-.0312-.29v-4.45125c0-.10375.01-.2.0312-.29125.0213-.0913.0613-.1675.1175-.23125.0575-.0637.14-.11375.245-.15.10625-.0362.24375-.055.4125-.055h2.99875c.0125.0675.025.1575.0362.2725.0125.115.0188.23375.0188.355 0 .25375-.0512.43375-.15375.54-.10375.10625-.2325.15875-.39.15875h-1.84875v1.03625h2.13c.0113.06.0238.14.0362.24.0113.1.0175.2075.0175.3225 0 .2425-.0487.4075-.145.495-.0962.0888-.2175.1325-.3625.1325h-1.67625v1.02625h2.42875c.0125.0662.0238.15875.0362.2775.0113.1175.0175.23375.0175.34875 0 .26125-.0513.4425-.15375.545-.1025.10375-.2325.155-.39.155h-2.6"/><path d="m332.65136 429.05148c-.13875 0-.26125-.0138-.3675-.0413-.105-.0263-.1975-.0587-.27625-.095l.55375-5.66c.115-.0475.26625-.0875.45375-.1175.18625-.03.3475-.045.48-.045.1875 0 .34875.0112.48375.0362.13625.0238.2525.065.34875.1225.0975.0575.17375.1375.23125.24.0575.10375.10125.23125.13125.3825l.23625 1.09875c.0663.3025.13625.6375.2125 1.00375.075.36625.14375.74375.20375 1.13125h.0362c.0663-.3875.135-.76375.2075-1.12625.0725-.36375.14875-.69625.22625-1l .29-1.15375c.0725-.28375.18875-.4775.34875-.58125.15875-.1025.40875-.15375.74625-.15375.16875 0 .33875.0137.51125.04.17125.0275.315.0563.43.0863l.52875 5.69625c-.0838.03-.185.0612-.30375.0913-.1175.03-.24625.045-.385.045-.1925 0-.35625-.0338-.48875-.1-.1325-.0663-.205-.19125-.2175-.3725l-.13625-1.9625c-.03-.345-.0563-.70625-.0763-1.085-.0213-.37875-.035-.7375-.0412-1.07625h-.0188c-.0775.315-.1575.655-.24 1.02125-.0813.3675-.16375.705-.24875 1.01375l-.37125 1.54375c-.0913.36375-.3775.545-.86125.545-.12125 0-.245-.0125-.37125-.0362-.1275-.0238-.23625-.0512-.32625-.0813l-.4625-1.92625c-.09-.3575-.175-.70875-.25375-1.05375-.0788-.345-.15125-.69-.2175-1.03625h-.0263c-.0187.485-.0425.92875-.0725 1.33125-.0312.4025-.0575.75-.0825 1.04l-.145 1.77125c-.0113.17625-.0775.2975-.19875.36375-.12125.0662-.2775.1-.47125.1"/><path d="m341.20123 426.5716h1.35625l-.67625-2.225zm-1.41375 2.49875c-.115 0-.24625-.0113-.39375-.0325-.14875-.0213-.27-.05-.3675-.0863l1.88-5.75875c.16375-.0425.32875-.0738.49625-.0913.16625-.0188.31875-.0275.45875-.0275.2 0 .37.015.5125.045.1425.0312.2625.0763.36.13625.0962.0612.17625.14125.24.24125.0638.1.11625.21625.15875.35l1.61125 5.09625c-.1025.0425-.22625.0737-.37125.095s-.28625.0325-.425.0325c-.1575 0-.31-.0263-.45875-.0775-.1475-.0512-.255-.16875-.32125-.35l-.30875-.93625h-1.97625l-.26125.88125c-.0663.2125-.1775.34625-.335.4-.1575.055-.32375.0825-.49875.0825"/></g><path d="m299.82698 427.0001c0 .82875-.54125 1.43375-1.64125 1.55375-.7975.085-1.95125-.0163-2.49875-.0788-.02-.09-.0362-.20125-.0362-.28875 0-.725.3925-.89.75875-.89.38125 0 .9825.0662 1.42875.0662.49125 0 .64125-.16625.64125-.325 0-.20875-.19875-.295-.58-.3675l-1.04375-.20125c-.8675-.16625-1.33125-.76625-1.33125-1.40375 0-.775.54875-1.42375 1.6275-1.54375.815-.0875 1.8075.0125 2.3525.0788.02.0937.03.1825.03.27875 0 .7225-.38125.87875-.74875.87875-.28125 0-.72-.0525-1.21875-.0525-.50875 0-.72.14-.72.3125 0 .18.20125.255.52.31125l.99625.185c1.025.18875 1.46375.77 1.46375 1.48625m1.79.88875c0 .445-.175.70125-1.04125.70125-.115 0-.21625-.009-.3125-.0225v-5.89375c0-.4475.1525-.915 1.02875-.915.11 0 .22125.0113.325.0337v6.09625m3.545 2.28c.11375.0587.3475.12875.64125.1375.5025.01.7775-.1825.98125-.63375l2.7025-6.0275c-.11125-.06-.3575-.12625-.56125-.13125-.34625-.006-.8125.065-1.11125.77625l-.875 2.065-1.71625-2.795c-.11-.0337-.38-.0825-.57875-.0825-.605 0-.94375.22375-1.295.60375l-1.66875 1.825 1.3425 2.1125c.2475.385.575.58125 1.105.58125.3475 0 .63625-.0788.77-.14375l-1.61625-2.43625 1.145-1.2125 1.87875 2.9475z" fill="#a90e3a"/><path d="m293.74623 422.4551-.002 6.87c0 .4275.0237.71375.0887.71375.0238-.13375.0425-.79375.7675-1.39625.27875-.215.63375-.4225 1.05875-.6225.0563-.58375.41375-.72375.75125-.72375.2725 0 .65625.0337 1.01625.0525.3325-.10375.6825-.205 1.0525-.30375.001-.002.001-.005.001-.007 0-.20875-.2-.295-.58-.3675l-1.04375-.20125c-.86875-.16625-1.3325-.76625-1.3325-1.40375 0-.775.54875-1.42375 1.6275-1.54375.23-.0238.47375-.0337.71625-.0337.6225 0 1.245.065 1.63625.1125.0213.0937.0312.18125.0312.28 0 .72125-.38125.87875-.74875.87875-.2825 0-.72-.0537-1.21875-.0537-.51 0-.72.14125-.72.3125 0 .18.20125.255.51875.31125l.9975.18375c.88875.165 1.33625.62375 1.44 1.21.15-.0337.305-.0675.46-.10125v-3.9475c0-.4475.15125-.915 1.02875-.915.11 0 .22125.0113.325.0337v4.56125c.1025-.02.20625-.0388.31125-.0575l-.2475-.39 1.66875-1.82375c.35-.3825.68875-.605 1.295-.605.19875 0 .46875.0487.57875.0825l1.27125 2.07c.26-.03.52375-.0613.79125-.09l.52875-1.25c.2875-.68625.73125-.77625 1.07375-.77625h.0375c.2025.005.44875.0725.56125.13125l-.78375 1.7475c.90375-.0875 1.83125-.1675 2.77375-.2375v-3.64125h-16.03875c-.30375 0-.5325-.1225-.76125-.1225-.6725 0-.93125.26875-.93125 1.06375m9.53625 3.565.03.0437c.56625-.0888 1.1525-.1725 1.75375-.25375l-.63875-1.0025-1.145 1.2125z" fill="url(#b)"/><path d="m344.96373 421.51385h-33.48625v3.64125c.64875-.0487 1.3025-.0925 1.96375-.1325.0187-.0513.0375-.1.0575-.15.15125-.36875.36-.69.62625-.9625.265-.2725.57875-.48625.94125-.64.3625-.155.75875-.2325 1.1875-.2325.3075 0 .6075.0337.8975.10125.28875.0663.5575.15.80625.25375.0538.805-.1425 1.2075-.58875 1.2075-.08 0-.15125-.009-.2175-.0275-.0675-.0175-.14-.0362-.21875-.0538-.0775-.0188-.165-.0362-.26125-.0537-.0975-.02-.2125-.0288-.345-.0288-.21125 0-.41.0387-.59875.11375-.18625.0763-.34875.18625-.485.3275-.015.0163-.0312.0338-.045.05 1.15375-.055 2.3225-.0962 3.495-.12375v-1.07625c0-.175.0538-.325.1625-.44875.10875-.12375.31375-.18625.61625-.18625.12625 0 .25125.006.37625.0175.12375.0125.2275.0288.31125.0462v1.6175c.35375-.004.70375-.007 1.0575-.0112v-1.56125c.0888-.03.2075-.0562.3525-.0763.145-.0212.26875-.0325.37125-.0325.3325 0 .57375.0425.725.12625.15125.0863.2775.21.38125.3725l.74625 1.17625c.43875.005.875.0125 1.31.0213v-1.115c0-.0788.01-.1525.0312-.2225.0213-.07.0575-.1325.11-.18625.05-.055.1225-.0962.2125-.12625.0913-.0312.205-.0462.34375-.0462.12125 0 .2375.006.34875.0175.1125.0125.2075.025.28625.0375v1.675c.35125.01.705.0225 1.05375.0375v-1.02375c0-.10125.0113-.19875.0325-.29.02-.0913.06-.1675.1175-.23125.0562-.0637.13875-.11375.245-.15.105-.0362.2425-.055.41125-.055h3c .0125.0675.0238.1575.0362.27375.0113.115.0188.2325.0188.35375 0 .255-.0525.435-.155.54-.1025.10625-.2325.15875-.39.15875h-1.84875v.49c1.17.06 2.31125.13625 3.41875.2325l.1875-1.9025c.115-.0487.265-.0875.4525-.1175.18625-.0312.3475-.0462.48-.0462.18625 0 .34875.0125.48375.0362.13625.0238.2525.065.35.1225.095.0575.17375.1375.23.24125.0575.1025.10125.23.1325.38125l.235 1.09875c.0312.145.0638.29625.0975.45625.2225.0263.44375.0537.6625.0825.0412-.18625.0837-.3625.12625-.52875l.29-1.155c.0725-.285.18875-.4775.3475-.58.16-.10375.41-.155.7475-.155.16875 0 .34.0125.51.0412.1725.0263.315.055.43.085l.2525 2.7075c.52875.0937 1.03625.195 1.525.30375l.99125-3.0375c.165-.0438.32875-.0738.495-.0913.16625-.0188.32125-.0275.45875-.0275.20125 0 .37125.0163.515.045.14125.03.26.0763.35875.1375.0962.06.17625.14125.24.24125.0638.0987.11625.215.15875.34875l1.21 3.825c.595.2975 1.085.62125 1.45875.97125.65625.64875.745 1.2625.76875 1.39625.0638 0 .0888-.28625.0888-.71375l-.004-6.87c0-.795-.25875-1.06375-.93125-1.06375-.22875 0-.45625.1225-.76.1225m-3.75375 5.03c.035.009.0688.0175.10375.0275h1.24375l-.67625-2.225zm-7.58875-2.09875c-.0113.29125-.0238.565-.04.825.0813.007.1625.0175.2425.025-.0638-.2825-.12125-.56625-.17625-.85h-.0262zm3.37875.009c-.0788.31625-.15875.65625-.23875 1.02375-.0138.0588-.0275.1175-.0412.17625.1175.0163.23375.035.34875.0513-.002-.0575-.006-.115-.009-.17375-.0213-.37875-.035-.7375-.0412-1.0775h-.0188z" fill="url(#a)"/><g fill="#fff"><path d="m313.44223 425.02273c.0175-.05.0362-.1.0562-.15.15125-.36875.36-.69.62625-.9625.265-.2725.57875-.48625.94125-.64125.3625-.15375.75875-.23125 1.1875-.23125.30875 0 .6075.0337.8975.1s.55875.15125.80625.25375c.0538.80625-.1425 1.20875-.58875 1.20875-.0787 0-.15125-.009-.2175-.0275-.0675-.0175-.14-.0362-.2175-.0537-.0787-.0188-.16625-.0362-.26375-.055-.0962-.0188-.21125-.0275-.34375-.0275-.21125 0-.41125.0387-.5975.11375-.1875.0763-.35.185-.485.3275-.0162.0163-.0312.0325-.0462.05-.58875.0288-1.175.06-1.755.095"/><path d="m318.69173 424.80273v-1.075c0-.175.055-.325.16375-.44875.10875-.125.31375-.18625.615-.18625.1275 0 .2525.006.37625.0175.12375.0125.22875.0275.3125.0462v1.6175c-.48875.007-.97875.0175-1.4675.0288"/><path d="m326.43461 424.82223c-.4425-.0138-.885-.025-1.3325-.0337v-1.115c0-.0787.0113-.1525.0325-.2225.0213-.0688.0575-.13125.10875-.18625.0512-.0537.1225-.0962.2125-.1275.0913-.03.205-.045.345-.045.12 0 .23625.006.34875.0188.11125.0113.20625.0238.285.0362v1.675m-2.64375-.055c-.51-.005-1.02375-.007-1.53625-.007-.345 0-.69375.001-1.03875.004v-1.5625c.09-.03.2075-.055.3525-.0763s.26875-.0325.37125-.0325c.3325 0 .575.0425.725.1275.15125.085.27875.20875.38125.3725l.745 1.175"/><path d="m328.95711 424.9256c-.485-.025-.975-.0475-1.4675-.0662v-1.0225c0-.1025.01-.2.0312-.29.0212-.0913.06-.16875.1175-.2325.0575-.0625.13875-.1125.245-.14875.105-.0375.2425-.055.4125-.055h2.99875c.0125.0663.0238.1575.0362.2725.0125.115.0188.23375.0188.35375 0 .255-.0512.435-.155.54125-.1025.10625-.2325.15875-.38875.15875h-1.84875v.48875"/><path d="m338.38998 425.92547c-.42875-.0775-.86875-.15-1.32-.22-.004-.0575-.007-.115-.01-.17375-.0213-.37875-.035-.7375-.0412-1.07625h-.0175c-.0788.315-.15875.655-.24125 1.02125-.0125.06-.0263.11875-.04.17625-.3375-.0487-.68375-.0975-1.03375-.1425.0412-.185.0837-.36125.12625-.52875l.29-1.15375c.0725-.285.18875-.47875.34875-.58125.15875-.1025.40875-.155.74625-.155.16875 0 .33875.0138.51125.0412.17125.0275.315.0562.43.0863l.25125 2.70625m-3.36625-.4975c-.39375-.0463-.79375-.0913-1.2-.1325-.0625-.28375-.12125-.56625-.17625-.85h-.0262c-.0113.29-.0238.565-.0388.825-.3975-.04-.8-.0775-1.20625-.1125l.18625-1.9025c.11375-.0475.265-.0875.4525-.1175s.3475-.0462.48-.0462c.1875 0 .34875.0125.48375.0375.13625.0238.2525.065.35.1225.0962.0575.1725.1375.23.24.0575.10375.10125.23.13125.38125l.23625 1.1c.0312.145.0638.29625.0975.455"/><path d="m344.34223 427.67073c-.82375-.41375-1.845-.77875-3.02875-1.09875h1.24375l-.67625-2.22625-.67125 2.1975c-.4125-.11-.84625-.21375-1.295-.31375l.9925-3.0375c.1625-.0425.32875-.0725.495-.09.16625-.0188.32-.0275.45875-.0275.2 0 .37125.015.51375.045.14125.03.26125.0763.35875.13625.0962.0612.17625.14125.24.24125.0638.1.1175.21625.16.34875z"/></g><path d="m295.65886 428.01998c.0562-.58375.41375-.72375.75125-.72375.2725 0 .65625.0337 1.01625.0538-.67625.2125-1.27.43625-1.7675.67m2.82-.97375c0-.004 0-.006 0-.009 0-.2075-.19875-.295-.58-.3675l-1.0425-.20125c-.86875-.16625-1.33125-.76625-1.33125-1.40375 0-.775.5475-1.42375 1.62625-1.5425.23-.025.4725-.035.71625-.035.6225 0 1.245.065 1.63625.1125.02.0937.0312.1825.0312.28 0 .7225-.38125.8775-.74875.8775-.2825 0-.72-.0525-1.22-.0525-.50875 0-.72.14125-.72.3125 0 .18.20125.255.52.31125l.9975.185c.8875.16375 1.33625.6225 1.44 1.20875-.465.10375-.90625.2125-1.325.32375m1.785-.425v-3.9475c0-.4475.15125-.915 1.0275-.915.11125 0 .2225.0125.325.0337v4.56125c-.4675.0863-.91875.175-1.3525.2675m1.665-.325-.2475-.39 1.6675-1.82375c.35125-.38125.69125-.605 1.295-.605.19875 0 .46875.0487.58.0825l1.27125 2.07c-.48625.0575-.96125.1175-1.42875.18l-.63875-1.0025-1.145 1.2125.0288.045c-.47375.0738-.935.15125-1.3825.23125m5.35625-.75625.53-1.25c.2875-.68625.73125-.77625 1.07375-.77625h.0375c.2025.005.44875.0712.56125.13125l-.78375 1.7475c-.47875.0463-.9525.0962-1.41875.1475" fill="#c9747a"/><path d="m315.16098 437.28473c-.06 0-.11875-.002-.1775-.009-.0575-.005-.1025-.0113-.1325-.0188v-3.41125c0-.075.0238-.1375.0713-.18875.0462-.05.13-.075.25-.075.06 0 .11875.002.1775.007.0575.006.1025.0125.1325.02v1.53625h1.71v-1.3c0-.075.0238-.1375.0713-.18875.0462-.05.13-.075.25-.075.06 0 .12.002.18.007.06.006.105.0125.135.02v3.41c0 .0763-.0238.13875-.07.18875-.0475.0512-.13125.0763-.25125.0763-.06 0-.12-.002-.18-.009-.06-.005-.105-.0113-.135-.0188v-1.565h-1.71v1.3275c0 .0763-.0238.13875-.0713.18875-.0462.0512-.13.0763-.25.0763"/><path d="m318.88635 437.28473c-.06 0-.11875-.002-.1775-.009-.0575-.005-.1025-.0113-.1325-.0188v-3.41125c0-.075.0238-.1375.0713-.18875.0462-.05.13-.075.25-.075.06 0 .11875.002.1775.007.0575.006.1025.0125.1325.02v3.41c0 .0763-.0238.13875-.0713.18875-.0462.0512-.13.0763-.25.0763"/><path d="m321.05286 437.28473c-.06 0-.11875-.002-.1775-.009-.0575-.005-.1025-.0113-.1325-.0188v-3.09h-1.125c-.007-.03-.0125-.07-.0163-.12125-.005-.05-.006-.10375-.006-.16 0-.12.0237-.19875.0737-.23625.0475-.0375.11-.0562.185-.0562h2.63375c.015.0562.0225.1425.0225.25875 0 .21-.0863.315-.25875.315h-.8775v2.8525c0 .0763-.0237.13875-.0712.18875-.0462.0512-.13.0763-.25.0763"/><path d="m323.99023 437.30148c-.18375 0-.38375-.0188-.59875-.0563-.21625-.0375-.43625-.0937-.66125-.16875 0-.015-.001-.0288-.004-.04-.001-.0112-.002-.0238-.002-.0387 0-.12375.0225-.22375.0675-.30125.045-.0763.11875-.115.22-.115.0487 0 .10625.007.17375.0225.0675.015.14375.0312.22875.05.0838.0188.1775.0362.28125.0512.1025.015.21625.0225.34.0225.25875 0 .44375-.0475.55375-.14125.11125-.0937.16625-.21125.16625-.35375 0-.0713-.0125-.1325-.0387-.18375-.0263-.05-.0637-.0937-.1125-.12875-.0487-.0362-.10875-.0663-.1775-.0937-.07-.025-.14875-.0512-.23875-.0788l-.4675-.12875c-.3675-.10125-.62375-.2425-.76875-.4225-.14375-.18-.21625-.38625-.21625-.61875 0-.11625.0213-.235.0625-.3575.0412-.12125.1125-.23125.21375-.32875s.23625-.17875.405-.2425c.16875-.0637.38-.095.635-.095.1725 0 .3575.0162.555.05.19625.0337.4025.0888.61625.16375v.0788c0 .1275-.0213.22625-.065.2975-.0425.0713-.11375.1075-.21125.1075-.0487 0-.10125-.006-.16-.02-.0587-.0125-.12375-.0263-.1975-.0387-.0725-.0137-.15625-.0263-.25-.04-.0937-.0125-.19875-.02-.315-.02-.13125 0-.24.0125-.32625.0375-.0863.0238-.15625.0562-.20875.0975-.0525.0425-.09.0875-.1125.13875-.0225.05-.0337.1025-.0337.155 0 .12375.0425.2175.1275.28125.0838.0637.235.125.4525.185l.495.14125c.65625.1725.985.51375.985 1.02375 0 .165-.0275.315-.0813.45-.055.135-.14.25125-.25625.34875-.11625.0987-.2625.17375-.43875.22875-.17625.0537-.38875.0813-.63625.0813"/></g></svg>