<svg width="2317.8pt" height="605.25pt" version="1.1" viewBox="0 0 2317.8 605.25" xmlns="http://www.w3.org/2000/svg" xmlns:xlink="http://www.w3.org/1999/xlink">
 <defs>
  <linearGradient id="linearGradient874" x1="-8600.5" x2="-8600.5" y1="-4687.6" y2="-4591.4" gradientTransform="matrix(-2.9812,0,0,-2.9812,-24493,-13655)" gradientUnits="userSpaceOnUse">
   <stop stop-color="#a80000" offset="0"/>
   <stop stop-color="#a1000c" offset=".38129"/>
   <stop stop-color="#b90019" offset="1"/>
  </linearGradient>
 </defs>
 <g transform="translate(0 .005)">
  <path d="m624.21 9e-5h1248v375.09h-1248z" fill="url(#linearGradient874)" stroke-width="2.9812"/>
  <path d="m624.21 375.09h-599.2c-13.753 0-25.006-11.253-25.006-25.006v-325.39c0-13.128 10.94-24.693 24.693-24.693h599.52z" fill="#fff" stroke-width="3.1257"/>
  <g transform="matrix(.75012 0 0 .75012 0 -6e-5)" fill="#fff">
   <path d="m1196.8 46.657c8.08-2.39 17.44-0.61 23.7 5.16 8.96 7.84 10.76 22.47 3.9 32.22-5.08 7.92-15.03 12.37-24.3 10.66-11.61-1.81-21.3-12.73-20.86-24.62-0.19-10.58 7.4-20.56 17.56-23.42z"/>
   <path d="m1017.4 133.46c21.37-5.8 43.96-4.99 65.59-1.1 16.56 3.21 33.02 8.13 47.94 16.07 0.82 7.45 0.64 15.53-3.01 22.28-2.45 4.57-7.4 7.7-12.63 7.47-7.67-0.23-14.56-3.99-21.59-6.62-14.68-6.05-30.63-9.09-46.51-8.39-14.87 0.74-29.66 5.3-41.92 13.84-11.33 7.69-20.34 18.59-26.21 30.93-6.65 14.05-9.41 29.77-8.95 45.25 0.46 14.4 3.53 28.88 10.19 41.73 7.95 15.91 21.5 28.99 37.82 36.15 20.99 9.32 45.36 8.45 66.93 1.55 8.87-2.71 17.08-7.36 26.16-9.37 5.62-1.4 12.21 0.36 15.57 5.29 4.85 6.95 5.01 16.04 4.14 24.15-14.07 7.02-29.27 11.67-44.63 14.88-25.46 5.02-52.52 5.76-77.23-3.13-24.95-8.67-46.58-26.38-60.09-49.06-11.77-19.51-17.68-42.39-17.5-65.12-0.26-25.49 7.13-51.2 21.84-72.12 15.21-21.84 38.36-37.9 64.09-44.68z"/>
   <path d="m1378.5 131.64c20.37-4.35 42.33-2.9 61.39 5.79 14.88 6.78 27.32 18.57 35.15 32.9 9.75 17.49 12.97 37.77 13.25 57.57 0 42.06 0.05 84.12-0.05 126.18 0.17 5.36-2.82 10.92-8.15 12.55-9.57 3.04-19.87 1.53-29.55-0.18-0.06-45.61 0.03-91.23-0.05-136.84-0.58-17.92-4.72-37.02-17.41-50.43-11.02-11.97-27.92-16.85-43.82-16.02-16.43 0.97-32.11 7.86-45.12 17.73-8.09 6.21-15.3 13.73-20.45 22.57-1.14 1.63-0.91 3.67-0.96 5.55 0.08 8.56 0.01 17.11 0.05 25.67 0.02 40.13 0.01 80.26-0.01 120.39 0.21 5.36-3.46 10.34-8.62 11.75-9.37 2.72-19.36 1.35-28.8-0.26-0.16-43.48-0.07-86.96-0.08-130.44 0.08-33.89-0.12-67.78 0.1-101.66 9.07-1.94 18.68-3.43 27.8-0.98 4.91 1.26 9.25 5.39 9.48 10.67 0.35 7.42-0.01 14.85 0.15 22.28 14.33-17.02 33.79-30.09 55.7-34.79z"/>
   <path d="m1579.1 150c30.74-21.87 72.51-26.73 107.67-13.3 16.58 6.46 31.22 17.69 41.88 31.93 10.87 14.34 17.8 31.44 21.11 49.08 3.01 15.84 2.86 32.18 0.27 48.06-60.29 0.07-120.59 0-180.88 0.04 2.21 17.04 8.77 33.95 20.77 46.51 10.38 11.11 24.48 18.3 39.23 21.59 22.1 4.92 45.28 2.4 66.72-4.37 7.84-2.21 15.32-5.66 23.31-7.37 5.57-1.42 11.72 1.3 14.58 6.26 4.25 7.17 3.74 15.87 3.17 23.87-19.57 8.63-40.34 14.62-61.56 17.38-19.3 2.53-39.12 2.24-58.08-2.43-16.65-4.06-32.58-11.5-45.88-22.37-14.06-11.32-25.03-26.31-31.98-42.94-9.86-23.76-12.22-50.39-7.98-75.68 5.19-30.3 22.29-58.65 47.65-76.26m17.36 30.27c-13.64 11.51-22.05 28.12-25.99 45.33-0.44 2.72-0.87 5.44-1.29 8.17 48.37 0 96.74-0.01 145.11 0-0.3-4.91-0.85-9.79-1.77-14.63-3.32-16.57-11.88-32.49-25.42-42.9-26.12-20.22-66.03-17.3-90.64 4.03z"/>
   <path d="m1879.3 133.17c21.25-6.87 45.68-4.8 64.78 7.1 11.91 7.31 21.04 18.49 27.09 31 9.14-13.12 20.8-24.75 35.02-32.29 17.83-9.56 39.11-11.94 58.81-7.71 14.06 3.02 27.23 10.4 36.75 21.24 12.31 13.79 18.58 32.08 20.24 50.29 0.97 10.37 0.4 20.8 0.55 31.21-0.04 40.16 0.05 80.34-0.06 120.5 0.17 5.76-3.84 11.05-9.43 12.42-9.4 2.54-19.36 1.27-28.79-0.52 0.01-42.8-0.01-85.61-0.02-128.42-0.23-11.22 0.66-22.52-0.93-33.67-1.46-9.94-5.03-19.84-11.76-27.44-6.16-7.04-14.97-11.41-24.12-12.93-27.02-5.03-54.58 11.73-66.73 35.54-1.21 2.79-0.57 5.94-0.69 8.89 0.02 48.58 0.05 97.16-0.02 145.74 0.28 5.65-3.22 11.29-8.82 12.76-9.59 2.65-19.77 1.3-29.4-0.44-0.01-29.46-0.01-58.92-0.01-88.38-0.17-22.64 0.32-45.29-0.26-67.92-0.73-9.29-2.85-18.66-7.59-26.77-4.58-7.96-12.01-14.27-20.7-17.29-14.94-5.25-31.92-3.43-45.78 4.04-10.33 5.46-19.26 13.56-25.69 23.31-1.78 2.98-4.3 5.92-4.24 9.58-0.1 3.75 0.03 7.5 0.02 11.25 0.04 46.59 0.01 93.19-0.01 139.78 0.3 5.58-3.05 11.21-8.58 12.75-9.48 2.73-19.63 1.5-29.16-0.36 0-50.27-0.03-100.54 0-150.8 0.02-27.01-0.01-54.02 0.01-81.03 8.65-1.91 17.74-3.44 26.53-1.45 5.05 1.07 9.59 5.03 10.31 10.32 0.86 6.75 0.19 13.59 0.4 20.37 10.8-13.94 25.39-25.23 42.28-30.67z"/>
   <path d="m2255.9 129.89c17.19-1.23 34.69-0.86 51.52 3.17 13.74 3.27 27.14 9.51 37.07 19.76 10.85 10.79 16.89 25.54 19.55 40.42 2.85 14.42 1.83 29.17 2.01 43.77-0.02 43.16 0.03 86.32-0.03 129.48-8.95 1.65-18.28 2.8-27.26 0.8-5.34-1.09-10.03-5.64-10.18-11.26-0.16-7.2 0.01-14.4-0.05-21.59-9.66 10.19-20.7 19.21-33.29 25.52-16.85 8.58-36.04 12-54.84 11.19-15.27-0.63-30.64-4.41-43.72-12.49-14.38-8.77-25.53-22.9-30.05-39.19-4.79-17.16-3.22-36.51 6.17-51.87 6.78-11.09 17.31-19.42 28.76-25.31 16.65-8.48 35.14-12.62 53.58-14.98 24.17-2.98 48.62-2.81 72.9-1.26-0.09-10.48-0.18-21.12-2.94-31.31-2.15-7.96-6.31-15.56-12.73-20.85-7.15-5.88-16.23-8.83-25.27-10.16-25.14-3.34-50.68 1.14-74.67 8.72-5.04 1.38-10 3.18-15.2 3.77-5.25 0.51-10.64-2.24-13.06-6.95-3.77-7.19-3.52-15.68-2.55-23.51 23.88-8.65 48.96-13.95 74.28-15.87m25.3 125.03c-17.4 1.05-35.09 2.99-51.35 9.62-9.34 3.91-18.36 10.1-23 19.37-7.01 13.91-3.62 32.09 7.98 42.52 7.95 7.51 18.67 11.45 29.43 12.56 16.59 1.49 33.6-1.83 48.41-9.5 13.04-6.54 24.33-16.26 33.43-27.61 0.8-1.14 2.07-2.21 1.91-3.77 0.07-14.33-0.06-28.67 0.05-42.99-15.61-0.88-31.25-0.94-46.86-0.2z"/>
   <path d="m1193.1 133.91c9.65-3.09 20.03-1.43 29.72 0.69 0 34.69-0.02 69.38 0 104.07 0.04 38.13-0.02 76.25 0.01 114.38 0.03 4.08-0.97 8.55-4.34 11.2-4.23 3.37-9.94 3.91-15.15 4.07-6.31 0.12-12.58-0.67-18.75-1.87-0.05-42.1-0.02-84.19-0.02-126.29 0.03-31.39-0.05-62.78 0.03-94.17-0.12-5.36 3.32-10.5 8.5-12.08z"/>
  </g>
  <path d="m421.97 333.52c4.0635 2.188 12.19 4.6886 22.818 4.6886 17.817 0.31257 27.507-6.5641 34.696-22.505l95.648-213.18c-4.0635-2.188-12.816-4.376-19.692-4.6886-12.19-0.31257-28.757 2.188-39.384 27.507l-30.945 73.142-60.952-98.461c-4.0635-1.2503-13.441-2.8132-20.63-2.8132-21.255 0-33.445 7.8144-45.948 21.255l-58.764 64.39 47.511 74.705c8.7521 13.753 20.317 20.63 39.072 20.63 12.19 0 22.505-2.8132 27.194-5.0012l-57.201-86.27 40.635-42.823 66.578 104.4zm-125.34-80.644c0 15.629-6.2515 24.693-36.884 24.693-4.0635 0-7.5018-0.31258-10.94-0.93773v-208.17c0-15.941 5.3138-32.195 36.258-32.195 3.7509 0 7.8144 0.31257 11.565 1.2503zm-63.452-31.257c0 29.382-19.067 50.637-58.139 55.013-28.132 3.1257-69.079-0.62514-88.458-2.8132-0.62515-3.1257-1.2503-7.1892-1.2503-10.315 0-25.631 13.753-31.57 26.881-31.57 13.441 0 34.696 2.188 50.637 2.188 17.504 0 22.505-5.9389 22.505-11.565 0-7.5018-6.8766-10.315-20.63-13.128l-36.571-6.564c-30.632-5.9389-46.886-27.194-46.886-49.699 0-27.506 19.38-50.324 57.513-54.7 28.757-3.1257 64.078 0.31257 83.145 2.8132 0.62514 3.4383 0.93772 6.564 0.93772 10.002 0 25.631-13.441 30.945-26.569 30.945-10.002 0-25.318-1.8754-43.135-1.8754-18.129 0-25.318 5.0012-25.318 10.94 0 6.2515 7.1892 9.0646 18.442 10.94l35.321 6.5641c36.259 6.8766 51.575 27.507 51.575 52.825" fill="url(#linearGradient874)" stroke-width="2.9812"/>
  <path d="m1872.2 375.09h420.6c13.753 0 25.006-11.253 25.006-25.006v-325.33c0-13.253-11.003-24.756-24.756-24.756h-420.85z" fill="#fff" fill-rule="evenodd"/>
  <g fill="url(#linearGradient874)" stroke-width="2.9812">
   <path d="m1943.7 100.27c6.5015-2.5006 13.503-1.2503 20.005 0.25006v75.768h87.02v-65.265c-0.2501-4.7511 2.0005-9.5022 6.7516-11.253 6.2516-2.0004 12.753-0.75018 19.005 0.75018v168.04c0.5001 4.5011-2.5007 8.7521-6.5017 10.252-6.5015 2.0004-13.003 0.75014-19.255-1.0002v-77.518h-87.02v68.266c0.2501 4.251-2.2505 8.252-6.0015 10.002-6.5016 2.2505-13.503 1.0002-20.005-0.75018v-166.79c-0.2501-4.251 1.7504-9.0021 6.0015-10.753z"/>
   <path d="m2117.7 101.52c2.7507-2.0005 6.2516-2.2506 9.5024-2.2506h31.007c14.253 0 28.257 0.50012 41.76 5.0012 21.755 6.5015 40.76 21.755 50.512 42.26 8.2519 18.004 10.002 38.509 7.0016 57.764-4.0009 22.505-16.754 43.76-35.508 57.013-15.754 11.003-35.008 16.754-54.263 16.754h-40.509c-3.751-0.25006-8.2521 0-10.753-3.2508-2.7507-3.5008-2.5006-8.0019-2.5006-12.253v-150.04c0-4.0009 0.2501-8.502 3.7509-11.003m22.255 21.505v131.28h27.757c16.004-0.25006 32.508-5.2512 44.26-16.504 14.003-12.503 20.755-31.757 20.255-50.262 0.5001-14.503-4.001-29.257-13.003-40.76-8.2521-10.502-20.255-17.754-33.258-21.005-7.5018-2.2505-15.504-2.7507-23.506-2.7507z"/>
  </g>
  <path d="m25.006 0c-13.753 0-25.006 11.253-25.006 25.006v226.3c0-20.005 16.003-36.509 36.008-37.259l2281.8-69.266v-119.78c0-13.753-11.253-25.006-25.006-25.006z" fill="#fff" opacity=".2"/>
 </g>
 <g transform="matrix(.75182 0 0 .75182 482.48 438.25)">
  <path d="m486.34 28.51c7.76-2.67 17.06 0.74 20.82 8.14 3.11 6.09 2.48 14.16-2.27 19.25-5.4 6.42-15.76 7.68-22.56 2.81-5-3.51-8.02-9.7-7.22-15.83 0.53-6.44 5.19-12.2 11.23-14.37z"/>
  <path d="m417.29 36.41c2.45-3.24 6.81-3.8 10.58-4.09 5.64-0.21 11.29 0.38 16.86 1.27 0.06 58.15 0 116.3 0.03 174.45 0.17 4.99-2.51 10.65-7.74 11.83-7.39 1.77-15.11 0.66-22.51-0.46-0.04-56.79 0.02-113.57-0.03-170.36-0.04-4.31-0.05-9.1 2.81-12.64z"/>
  <path d="m1051.7 35.67c2.63-2.73 6.69-3.08 10.27-3.36 5.53-0.15 11.09 0.37 16.54 1.32-0.01 22.81 0.03 45.62-0.02 68.43 8.12-8.02 18.06-14.9 29.47-16.99 14.04-2.68 29.12-0.86 41.58 6.38 16.08 9.04 26.43 26.24 29.7 44.1 2.83 17.23 1.33 35.55-6.33 51.41-5.55 11.64-14.5 21.86-25.97 27.93-11.75 6.42-25.87 7.84-38.87 5.07-12.75-2.76-24.49-10.7-30.81-22.24-0.07 6.94 0.5 16.01-6.4 20.09-7.43 3.66-16.17 2.06-23.93 0.41 2-28.7 1.14-57.49 1.33-86.24-0.01-28.33 0.01-56.67-0.01-85.01-0.04-3.97 0.55-8.32 3.45-11.3m49.74 74.93c-9.55 2.38-18.11 8.87-22.69 17.61-0.58 10.91-0.06 21.91-0.25 32.85-0.28 9.58 3.66 19.19 10.73 25.69 10.51 9.62 26.97 11.4 39.58 5.02 9.06-4.47 15.94-12.93 18.58-22.68 2.73-10.06 2.91-20.86 0.6-31.02-2.33-10.08-8.81-19.28-17.93-24.29-8.66-4.75-19.13-5.35-28.62-3.18z"/>
  <path d="m202.07 43.17c2.68-2.35 6.4-2.91 9.84-3.13 5.7-0.27 11.39 0.36 17.03 1.18 0.15 42.6 0 85.2 0.08 127.81 0.15 13.97-3.53 29.07-14.21 38.79-11.08 10.48-27.04 13.71-41.84 13.15-12.85-0.76-25.98-2.54-37.69-8.17-3.83-1.9-8.24-4.31-9.35-8.79-0.84-6.57 0.75-14.45 6.72-18.24 4.08-2.74 9.37-1.93 13.71-0.3 9.6 3.43 19.31 8.02 29.77 7.24 7.26-0.37 14.52-3.97 18.38-10.27 2.51-4.34 3.43-9.42 3.5-14.38-0.02-38.04-0.01-76.07 0-114.11-0.05-3.92 1.08-8.06 4.06-10.78z"/>
  <path d="m753.04 41.98c4.11-1.61 8.64-1.48 12.99-1.49 13.31 0.02 26.62 0.01 39.93 0 14.45-0.04 29.47 2 42.07 9.54 11.72 6.8 20.31 18.68 22.9 32.01 3.17 15.45 1.06 32.52-8.25 45.57-8.85 12.92-23.89 20.58-39.24 22.4 18.39 21.98 36.96 43.81 55.31 65.82-9.06 4.67-19.8 6.25-29.73 3.82-6.41-1.58-11.07-6.68-15.08-11.6-14.72-18.94-29.5-37.84-44.22-56.79-3.99-0.02-7.98-0.01-11.96-0.01-0.01 17.26-0.02 34.51 0.01 51.77 0.02 4.63 0.13 9.9-3.19 13.57-3.07 3.61-8.17 4.1-12.59 4.19-5.12 0-10.23-0.45-15.26-1.33 0.03-55.14 0.02-110.28 0.01-165.41 0-4.6 1.55-10.27 6.3-12.06m24.72 26.78c-0.01 18.66-0.02 37.33 0.01 55.99 9.11-0.02 18.22 0.03 27.34-0.01 7.79-0.26 15.86-1.12 22.87-4.8 7.06-3.68 11.9-11.02 12.91-18.87 1.25-8.48-0.22-18.1-6.6-24.31-6.41-6.23-15.82-7.65-24.38-7.97-10.72-0.09-21.44-0.02-32.15-0.03z"/>
  <path d="m1472.7 51.82c6.85-2.28 14.44-1.61 21.29 0.43 0.05 11.33 0 22.66 0.03 33.99 14.98 0 29.98 0.03 44.97-0.01 1.4 5.65 1.94 11.71 0.56 17.41-1.09 4.1-5.41 6.4-9.43 6.32-12.04 0.11-24.08 0-36.11 0.04-0.01 21.33 0.01 42.65-0.01 63.98-0.03 6.29 1.64 13.14 6.56 17.42 4.73 4.12 11.47 4.63 17.44 3.79 5.14-0.62 9.74-3.15 14.63-4.68 4.72-1.5 10.72 0.19 12.99 4.86 2.33 4.78 2.01 10.32 1.7 15.49-8.43 4.75-17.6 8.44-27.26 9.54-9.2 1.05-18.78 1.08-27.61-2.03-8.47-2.83-15.99-8.54-20.73-16.13-4.96-7.77-7.34-17.05-7.23-26.23 0.03-22.01 0.01-44.01 0.01-66.01-7.04-0.04-14.08 0.09-21.11-0.08-0.73-6.61-2.42-14.23 1.32-20.22 5.05-5.43 13.23-2.86 19.76-3.44 0.12-7.1-0.05-14.19 0.06-21.29 0.09-5.39 2.75-11.29 8.17-13.15z"/>
  <path d="m541.36 92.23c21.08-6.99 43.61-9.69 65.74-7.66 11.94 1.29 24.43 5.6 32.13 15.31 8.35 10.34 9.75 24.27 10.03 37.08 0.11 16.34-0.32 32.68 0.3 49.01 0.53 10.86 2.48 21.63 5.54 32.05-5.76 2.24-12.04 3.22-18.19 2.55-4.58-0.47-8.97-3.17-11.15-7.28-3.08-5.49-3.15-11.99-3.61-18.1-4.53 6.92-9.82 13.6-16.94 17.99-11.53 7.48-25.91 9.24-39.32 7.52-11.3-1.51-22.48-7.1-28.93-16.74-6.38-9.25-7.93-21.12-5.94-32.01 1.53-9.3 6.43-18.05 13.96-23.79 10.73-8.32 24.59-11.25 37.89-11.79 12.62-0.59 25.21 1.01 37.63 3.11 0.03-8.38 0.58-17.92-5.2-24.74-5.47-5.63-13.93-6.18-21.31-6.49-11.59-0.31-22.98 2.23-34.06 5.34-4.74 1.09-10.91 2.18-14.55-1.92-4.42-5.41-4.39-12.83-4.02-19.44m45.12 64.53c-7.38 0.84-15.18 2.69-20.67 8.01-5.42 5.03-6.86 13.31-4.77 20.22 1.85 5.68 7.29 9.34 12.86 10.81 7.15 1.82 14.86 1.37 21.81-1.09 10.29-3.8 18.19-12.29 23.52-21.65 2.54-3.88 1.28-8.73 1.49-13.08 0.36-1.64-1.62-1.43-2.59-1.71-10.45-1.58-21.1-2.72-31.65-1.51z"/>
  <path d="m946.56 84.76c13.68-1.59 28-0.06 40.42 6.21 14.01 6.54 25.3 18.45 31.46 32.6 8.38 18.98 8.05 41.51-0.55 60.35-6.1 13.65-17.26 24.83-30.75 31.21-12.71 6.28-27.34 7.72-41.29 6.05-16.01-2-31.31-9.89-41.93-22.08-20.37-23.74-21.76-61.41-3.6-86.8 10.65-15.11 27.88-25.34 46.24-27.54m2.99 25.02c-13.17 2.6-24.1 12.92-28.31 25.55-4.82 14.15-3.91 30.66 3.86 43.62 6.84 12.12 21.14 19.35 34.95 17.73 11.92-1.26 22.83-8.92 28.2-19.61 5.3-9.67 6.3-21.11 5.07-31.91-1.36-10.37-5.84-20.68-13.9-27.57-8.07-6.97-19.42-9.98-29.87-7.81z"/>
  <path d="m1249 85.16c17.27-3.24 36.26-0.5 50.51 10.29 20.68 15.34 28.94 43.58 24.03 68.29-31.74 0.04-63.47-0.02-95.2 0.03 1.15 8.95 4.91 17.95 12.15 23.65 8.17 6.75 19.16 8.9 29.53 8.61 9.65 0.18 18.96-2.73 27.97-5.91 4.93-1.56 11.44-2.79 15.41 1.45 4.92 5.31 4.78 13.11 3.89 19.83-20.3 9.31-43.28 13.05-65.38 9.29-14.8-2.7-29.07-10.04-38.7-21.78-7.88-9.32-12.6-21.03-14.54-33.01-2.5-16.44-0.54-33.91 7.57-48.61 8.61-16.31 24.63-28.53 42.76-32.13m-8.23 29.57c-7.87 6.78-11.77 17.07-12.7 27.2 22.87 0.15 45.76 0.04 68.64 0.06-1.05-10.11-5.03-20.25-12.66-27.19-5.98-5.38-14.22-7.46-22.1-7.33-7.6-0.04-15.41 2.18-21.18 7.26z"/>
  <path d="m268.92 86.15c7.2-1.84 14.73-0.61 21.99 0.29 0.21 23.19 0.04 46.39 0.08 69.58 0.09 8.52-0.16 17.47 3.55 25.37 3.34 7.42 10.71 12.52 18.58 14.05 15.08 3.15 30.89-5.43 38.18-18.63 0.51-26.77-0.02-53.59 0.26-80.36 0.22-4.48 3.05-9.03 7.55-10.21 7.46-2.01 15.31-0.68 22.84 0.27 0.12 28.17 0.02 56.34 0.05 84.51-0.42 15.72 1.18 31.43 4.32 46.83-6.58 2.57-13.84 3.6-20.84 2.49-5.22-0.71-9.43-5.12-10.62-10.15-1.01-4.14-0.82-8.46-1.35-12.67-7.55 10.58-18.01 19.97-31.06 22.71-15.35 3.2-32.96 0.98-44.93-9.89-11.47-10.35-16.17-26.23-16.5-41.29-0.06-23.69 0.01-47.38-0.03-71.07-0.29-5.08 2.74-10.62 7.93-11.83z"/>
  <path d="m484.99 86.06c7.15-1.67 14.57-0.55 21.74 0.44 0.05 40.86 0.01 81.72 0.02 122.58 0.06 5.02-3.47 10.06-8.56 10.95-7.07 1.49-14.41 0.54-21.46-0.62 0.06-40.8-0.02-81.6 0.04-122.4-0.08-4.94 3.25-9.93 8.22-10.95z"/>
  <path d="m1351.1 87.42c6.55-2.02 13.83-3.27 20.49-0.99 5.12 1.83 7.91 7.32 8.29 12.49 0.23 4.34-0.04 8.68 0.14 13.03 4.04-9.18 9.9-18.12 18.99-22.94 9.77-5.43 21.48-4.87 32.13-2.95 1.59 6.15 2.67 13 0.01 19.01-2.27 4.99-8.01 7.25-13.22 6.94-9.63-0.2-20.2 0.58-27.86 7.09-6.55 5.19-9.06 13.82-9.12 21.89 0.02 22 0 44 0.01 66.01-0.03 3.27-0.44 6.78-2.6 9.39-2.34 3.23-6.57 4.05-10.3 4.3-5.82 0.29-11.65-0.28-17.37-1.29 0.02-43.14 0.04-86.29 0-129.44 0.1-0.64 0.31-1.9 0.41-2.54z"/>
  <path d="m1578.6 93.61c8.19-5.2 17.79-7.83 27.39-8.7 20.7-1.82 41.56 1.77 61.17 8.33 0.36 6.01 0.47 12.64-3.12 17.79-2.07 2.79-5.62 4.07-9.01 3.77-8.61 0.12-16.43-4.13-24.91-4.93-8.34-0.91-16.84-1.28-25.13 0.19-3.72 0.65-7.45 2.14-9.85 5.16-3.47 4.26-2.78 11.68 2.16 14.55 6.04 3.77 13.16 5.08 19.91 7.07 11.89 3.47 24.16 6.13 35.32 11.7 6.35 3.19 12.42 7.49 16.21 13.63 5.79 9.1 6.11 20.77 3.09 30.89-1.99 7.25-6.79 13.57-12.96 17.79-8.49 5.75-18.64 8.61-28.77 9.59-22.79 2.15-45.82-1.87-67.34-9.33-0.85-6.53-0.86-14.25 4.06-19.28 4.03-3.79 10-2.66 14.9-1.59 10.6 2.71 21.2 6.16 32.26 6.26 7.98 0.08 16.55 0.35 23.7-3.78 7.02-3.92 7.75-15.81 0.65-20.01-6.96-4.21-15.06-5.83-22.76-8.13-12.52-3.63-25.56-6.48-36.75-13.46-6.43-3.88-11.76-9.82-14.11-17.02-2.77-8.45-2.39-17.98 1.2-26.13 2.62-5.95 7.31-10.81 12.69-14.36z"/>
 </g>
</svg>
