<?xml version="1.0" encoding="UTF-8" standalone="no"?>
<!-- Generator: Adobe Illustrator 17.1.0, SVG Export Plug-In . SVG Version: 6.00 Build 0)  -->

<svg
   xmlns:dc="http://purl.org/dc/elements/1.1/"
   xmlns:cc="http://creativecommons.org/ns#"
   xmlns:rdf="http://www.w3.org/1999/02/22-rdf-syntax-ns#"
   xmlns:svg="http://www.w3.org/2000/svg"
   xmlns="http://www.w3.org/2000/svg"
   xmlns:sodipodi="http://sodipodi.sourceforge.net/DTD/sodipodi-0.dtd"
   xmlns:inkscape="http://www.inkscape.org/namespaces/inkscape"
   enable-background="new 0 0 1372 226.8"
   xml:space="preserve"
   viewBox="-3301048.2 0 0 102.3"
   height="320"
   width="3444.6921"
   version="1.1"
   y="0px"
   x="0px"
   id="svg2"
   inkscape:version="0.91 r13725"
   sodipodi:docname="Sky-Sports-Darts HD-Logo.svg"><defs
     id="defs66" /><sodipodi:namedview
     pagecolor="#ffffff"
     bordercolor="#666666"
     borderopacity="1"
     objecttolerance="10"
     gridtolerance="10"
     guidetolerance="10"
     inkscape:pageopacity="0"
     inkscape:pageshadow="2"
     inkscape:window-width="1920"
     inkscape:window-height="1017"
     id="namedview64"
     showgrid="false"
     inkscape:zoom="0.25"
     inkscape:cx="935.92459"
     inkscape:cy="680.39274"
     inkscape:window-x="-8"
     inkscape:window-y="-8"
     inkscape:window-maximized="1"
     inkscape:current-layer="svg2"
     fit-margin-top="0"
     fit-margin-left="0"
     fit-margin-right="0"
     fit-margin-bottom="0" /><metadata
     id="metadata4"><rdf:RDF><cc:Work
         rdf:about=""><dc:format>image/svg+xml</dc:format><dc:type
           rdf:resource="http://purl.org/dc/dcmitype/StillImage" /><dc:title></dc:title></cc:Work></rdf:RDF></metadata><linearGradient
     id="SVGID_1_"
     y2="163"
     gradientUnits="userSpaceOnUse"
     x2="-3810"
     gradientTransform="matrix(-3.591564,0,0,3.1280547,-11958.787,-405.07048)"
     y1="59"
     x1="-3810"><stop
       stop-color="#091B4A"
       offset="0"
       id="stop7" /><stop
       stop-color="#122D68"
       offset="0.0363"
       id="stop9" /><stop
       stop-color="#122D68"
       offset="0.896"
       id="stop11" /><stop
       stop-color="#091B4A"
       offset="1"
       id="stop13" /></linearGradient><path
     display="none"
     d="m 12.2,321.7 c -8.1,0 -13.5,-4.8 -13.5,-12.7 l 0,-81.3 c 0,-7.9 5.5,-12.7 13.5,-12.7 l 934,0 c 8.1,0 13.5,4.8 13.5,12.7 l 0,81.4 c 0,7.9 -5.5,12.7 -13.5,12.7 l -934,0 z m 935,1 c 12,0 15.6,-7.4 15.6,-14.9 l 0,-79 c 0,-7.4 -3.6,-14.9 -15.6,-14.9 l -935,0 c -12,0 -15.6,7.4 -15.6,14.9 l 0,79 c 0,7.4 3.6,14.9 15.6,14.9 l 936,0 z"
     id="path17"
     inkscape:connector-curvature="0"
     style="display:none;fill:#a1a2a2" /><g
     id="g4186"
     transform="translate(0,217.7)"><path
       inkscape:connector-curvature="0"
       style="fill:url(#SVGID_1_)"
       id="path15"
       d="M 39.148048,101.36158 C 10.05638,101.36158 0,87.285337 0,62.573705 L 0,-177.9737 C 0,-202.68534 10.415535,-217.7 39.148048,-217.7 l 3361.703852,0 c 29.0918,0 39.1481,15.01466 39.1481,39.7263 l 0,240.547405 C 3440,87.285337 3429.5845,102.3 3400.8519,102.3 l -3361.703852,0 z" /><g
       id="g19"
       transform="matrix(3.1280547,0,0,3.1280547,-189.87292,-405.07048)"><linearGradient
         x1="465"
         y1="162"
         x2="465"
         gradientUnits="userSpaceOnUse"
         y2="59.900002"
         id="SVGID_2_"><stop
           id="stop22"
           offset="0"
           stop-color="#552227" /><stop
           id="stop24"
           offset="0.0739"
           stop-color="#C41C2B" /><stop
           id="stop26"
           offset="0.911"
           stop-color="#C41C2B" /><stop
           id="stop28"
           offset="1"
           stop-color="#FE3446" /></linearGradient><rect
         style="fill:url(#SVGID_2_)"
         id="rect30"
         x="250"
         y="59.900002"
         width="431"
         height="102" /></g><g
       style="opacity:0.4"
       id="g32"
       transform="matrix(3.5953177,0,0,3.1280547,-218.93668,-405.07048)"><path
         style="fill:#ffffff"
         inkscape:connector-curvature="0"
         id="path34"
         d="m 1010,139 c 6.9,6.9 7.9,13.3 8.1,14.8 0.7,0 0.9,-3 0.9,-7.6 l 0,-72.6 c 0,-8.4 -2.7,-11.3 -9.9,-11.3 -2.4,0 -4.8,1.3 -8,1.3 l -921,0 c -3.2,0 -5.6,-1.3 -8,-1.3 -7.1,0 -9.9,2.8 -9.9,11.3 l 0,72.6 c 0,4.5 0.3,7.6 0.9,7.6 0.2,-1.4 0.5,-8.4 8.1,-14.8 61.3,-47.2 873,-61.7 939,0 z" /></g><path
       style="fill:#ffffff"
       inkscape:connector-curvature="0"
       id="path36"
       d="m 381.62268,77.901173 c 3.75366,1.876833 11.5738,4.379277 21.27077,4.379277 16.57869,0.312805 25.65005,-5.943304 32.53177,-20.957967 L 524.88758,-137.9346 c -3.75366,-1.87684 -11.8866,-4.06647 -18.45552,-4.37928 -11.5738,-0.31281 -26.90127,2.18964 -36.91105,25.65005 l -29.0909,68.191592 -56.6178,-92.590422 c -3.75366,-1.25122 -12.51221,-2.81525 -19.08113,-2.81525 -20.01955,0 -31.28055,7.50733 -42.85435,20.01955 l -55.05376,60.371459 44.41838,69.7556209 c 8.13294,12.8250241 19.08113,19.0811341 36.59824,19.0811341 11.5738,0 20.95796,-2.502444 25.33724,-4.692082 L 319.37439,-59.420429 357.22385,-99.45953 419.47214,-1.8642224 381.62268,77.901173 Z M 264.32062,2.5150542 c 0,14.7018568 -5.63049,23.1476048 -34.4086,23.1476048 -3.75366,0 -7.19452,-0.312805 -10.32258,-0.625611 l 0,-195.190618 c 0,-14.70185 5.00489,-30.34213 34.0958,-30.34213 3.75366,0 7.19452,0.31281 10.63538,0.93842 l 0,202.0723342 z M 205.20039,-26.88866 c 0,27.52688139 -17.82991,47.546432 -54.42815,51.300097 -26.27566,2.81525 -64.43793,-0.625611 -82.580647,-2.502443 -0.625611,-2.81525 -1.251222,-6.568915 -1.251222,-9.384165 0,-24.086021 12.825025,-29.403714 25.024438,-29.403714 12.512221,0 32.531771,2.189638 47.233631,2.189638 16.26588,0 21.27077,-5.630498 21.27077,-10.635386 0,-6.88172 -6.56892,-9.696969 -19.08114,-12.199413 l -34.4086,-6.568915 C 78.201368,-49.72346 62.8739,-69.430204 62.8739,-90.388171 c 0,-25.650049 18.142717,-47.233629 53.80254,-50.987289 26.90127,-2.81525 59.74585,0.3128 77.88856,2.50244 0.62561,3.12806 0.93842,5.9433 0.93842,9.38416 0,23.77322 -12.51222,29.09091 -24.71163,29.09091 -9.38417,0 -23.77322,-1.87683 -40.35191,-1.87683 -16.89149,0 -23.77321,4.692083 -23.77321,10.322581 0,5.943304 6.56891,8.445748 17.2043,10.322581 l 32.84457,6.25611 c 33.78299,5.317693 48.48485,24.711632 48.48485,48.484848 z" /><g
       style="fill:#ffffff"
       id="g38"
       transform="matrix(3.1280547,0,0,3.1280547,-189.87292,-405.07048)"><path
         inkscape:connector-curvature="0"
         id="path40"
         d="m 331,123 c 0,-10.6 -6.9,-15.8 -17.9,-18.2 l -19,-5 c -3.5,-0.8 -6.4,-1.9 -6.4,-5.4 0,-3.8 3,-5.3 11.1,-5.3 9.5,0 11.8,0.5 20.4,0.5 4,0 8.1,-1.9 8.1,-9.7 0,-1 -0.1,-2 -0.3,-3 -5.8,-0.5 -16.3,-1.1 -29.1,-1.1 -19.4,0 -26.8,8.4 -26.8,19.1 0,10 6.3,15.6 17.5,18.2 l 19.3,4.5 c 4.5,1.1 6.9,3 6.9,5.8 0,3.8 -3.4,5.3 -11.5,5.3 -9.5,0 -13.9,-0.7 -22.6,-0.7 -4,0 -8.1,1.8 -8.1,9.7 0,1 0.1,2 0.3,3 5.8,0.6 18.4,1.3 31.2,1.3 19.5,0.1 27.2,-8.2 27.2,-19.6 z" /><path
         inkscape:connector-curvature="0"
         id="path42"
         d="m 490,106 0,-16.5 15.3,0 c 6.5,0 11.7,1 11.7,7.8 0,5.7 -3.9,8.5 -11.7,8.5 l -15.3,0 z m -0.1,12.9 8.1,0 15.6,18.6 c 2.9,3.6 5.7,5.5 12.4,5.5 4.5,0 7.5,-0.6 9.9,-1.8 l -20.3,-23.5 c 11.4,-2.4 17.1,-9.8 17.1,-20.7 0,-13.4 -8.2,-20 -24.7,-20 l -23.6,-0.1 c -7.7,0.3 -10.2,2.9 -10.2,9.9 l 0,55.1 c 1.2,0.2 2.5,0.3 3.9,0.3 9.7,0 12,-2.8 12,-7.9 l -0.2,-15.4 z" /><path
         inkscape:connector-curvature="0"
         id="path44"
         d="m 354,108 0,-18.4 15.9,0 c 7.9,0 11.8,2.9 11.8,8.7 0,6.1 -3.9,9.2 -11.8,9.2 l -16,0 z m -15.8,34 c 1.2,0.2 2.5,0.3 3.9,0.3 9.7,0 12,-2.8 12,-7.9 l 0,-13.3 16.5,0 c 18,0 27,-7.8 27,-22.4 0,-14.1 -9,-21.6 -25.9,-21.6 l -23.3,0 c -7.8,0 -10.2,3 -10.2,9.9 l 0,55 z" /><path
         inkscape:connector-curvature="0"
         id="path46"
         d="m 450,108 c 0,7.5 -1.3,12.7 -3.8,15.9 -2.4,3.2 -6.4,4.7 -11.9,4.7 -5.5,-0.1 -9.5,-1.7 -12.1,-4.7 -2.5,-3 -3.8,-8.3 -3.8,-15.9 0,-7.5 1.4,-12.7 3.9,-15.8 2.5,-3.1 6.5,-4.6 12,-4.6 5.4,0 9.3,1.5 11.9,4.6 2.5,3.1 3.8,8.4 3.8,15.8 z m -15.7,33.5 c 10.2,0 18.1,-2.4 23.7,-7.4 5.5,-4.9 8.4,-13.6 8.4,-26.1 -0.1,-12.3 -2.9,-20.8 -8.7,-25.9 -5.7,-5 -13.5,-7.5 -23.4,-7.5 -9.8,0 -17.6,2.5 -23.4,7.5 -5.7,5.1 -8.6,13.6 -8.7,25.9 0,12.5 2.8,21.2 8.4,26.1 5.6,5 13.5,7.4 23.7,7.4 z" /><path
         inkscape:connector-curvature="0"
         id="path48"
         d="m 575,89.9 12.8,0 c 4.2,0 8.5,-1.9 8.5,-10.2 0,-1 -0.1,-2.1 -0.3,-3.1 l -49.5,0 c -4.2,0 -8.5,1.9 -8.5,10.2 0,1 0.1,2.1 0.3,3.1 l 21,0 0,51.6 c 1.2,0.2 2.5,0.3 3.9,0.3 9.7,0 12,-2.8 12,-7.9 l 0,-44 z" /></g><path
       style="fill:#ffffff"
       inkscape:connector-curvature="0"
       id="path50"
       d="m 1873.7048,-20.945356 c 0,-33.15738 -21.5836,-49.423265 -55.9922,-56.930596 l -60.3715,-13.763441 c -10.9481,-2.502444 -20.0195,-5.943304 -20.0195,-16.891497 0,-11.88661 9.3842,-16.57869 34.7214,-16.57869 29.7165,0 36.911,1.56403 63.8123,1.56403 12.5122,0 25.3373,-5.94331 25.3373,-30.34213 0,-3.12806 -0.3128,-6.25611 -0.9385,-9.38417 -18.1427,-1.56402 -50.9872,-3.44086 -91.0263,-3.44086 -60.6843,0 -83.8319,26.27566 -83.8319,59.74585 0,31.280546 19.7067,48.797653 54.7409,56.930595 l 60.3715,14.076246 c 14.0762,3.44086 21.5836,9.384164 21.5836,18.142718 0,11.8866075 -10.6354,16.5786896 -35.9727,16.5786896 -29.7165,0 -43.4799,-2.1896384 -70.694,-2.1896384 -12.5122,0 -25.3372,5.6304986 -25.3372,30.3421308 0,3.128055 0.3128,6.25611 0.9384,9.384164 18.1427,1.876833 57.5562,4.066471 97.5953,4.066471 60.9971,0.312806 85.0831,-25.650048 85.0831,-61.309872 z" /><g
       style="fill:#ffffff"
       id="g52"
       transform="matrix(3.1280547,0,0,3.1280547,-189.87292,-405.07048)"><path
         inkscape:connector-curvature="0"
         id="path54"
         d="m 714,142 c -1.9,0 -3.4,-0.2 -4.6,-0.6 -1.2,-0.4 -2.1,-1 -2.7,-1.7 -0.6,-0.7 -1.1,-1.6 -1.3,-2.6 -0.2,-1 -0.4,-2.1 -0.4,-3.2 l 0,-48.1 c 0,-1.1 0.1,-2.2 0.4,-3.2 0.2,-1 0.7,-1.9 1.3,-2.6 0.6,-0.7 1.5,-1.3 2.7,-1.7 1.2,-0.4 2.7,-0.6 4.6,-0.6 l 12.5,0 c 5.7,0 10.8,0.8 15.3,2.3 4.5,1.5 8.3,3.7 11.4,6.5 3.1,2.8 5.5,6.2 7.2,10.2 1.7,4 2.5,8.4 2.5,13.3 0,4.7 -0.8,9 -2.5,13 -1.7,4 -4.1,7.6 -7.2,10.6 -3.2,3 -7,5.4 -11.6,7.1 -4.6,1.8 -9.8,2.6 -15.8,2.6 l -11,0 z m 7.4,-14.3 6,0 c 2.6,0 5.1,-0.4 7.4,-1.2 2.3,-0.8 4.3,-2 6,-3.6 1.7,-1.6 3,-3.6 4,-6 1,-2.4 1.5,-5.2 1.5,-8.3 0,-2.9 -0.5,-5.5 -1.5,-7.7 -1,-2.2 -2.3,-4.1 -4,-5.6 -1.7,-1.5 -3.7,-2.7 -6,-3.5 -2.3,-0.8 -4.8,-1.2 -7.5,-1.2 l -5.8,0 0,37.1 z" /><path
         inkscape:connector-curvature="0"
         id="path56"
         d="m 770,143 c -1.3,0 -2.7,-0.1 -4.4,-0.4 -1.7,-0.2 -3,-0.6 -4.1,-1 l 21,-64.1 c 1.8,-0.5 3.7,-0.8 5.5,-1 1.9,-0.2 3.6,-0.3 5.1,-0.3 2.2,0 4.1,0.2 5.7,0.5 1.6,0.3 2.9,0.8 4,1.5 1.1,0.7 2,1.6 2.7,2.7 0.7,1.1 1.3,2.4 1.8,3.9 l 18,56.7 c -1.1,0.5 -2.5,0.8 -4.1,1.1 -1.6,0.2 -3.2,0.4 -4.8,0.4 -1.8,0 -3.5,-0.3 -5.1,-0.9 -1.7,-0.6 -2.8,-1.9 -3.6,-3.9 l -3.4,-10.4 -22,0 -2.9,9.8 c -0.7,2.4 -2,3.8 -3.7,4.4 -1.9,0.7 -3.7,1 -5.7,1 z m 15.8,-27.8 15,0 -7.5,-24.8 -7.6,24.8 z" /><path
         inkscape:connector-curvature="0"
         id="path58"
         d="m 874,143 c -2.3,0 -4.2,-0.4 -5.7,-1.2 -1.5,-0.8 -2.9,-2.1 -4.2,-4.1 l -13,-18.6 -2.5,0 0,16.5 c 0,2 -0.6,3.6 -1.8,5 -1.2,1.4 -3.5,2.1 -6.9,2.1 -1.4,0 -2.8,-0.1 -4.2,-0.2 -1.4,-0.1 -2.5,-0.3 -3.5,-0.5 l 0,-57.1 c 0,-1.1 0.1,-2.2 0.4,-3.2 0.2,-1 0.7,-1.9 1.3,-2.6 0.6,-0.7 1.5,-1.3 2.7,-1.7 1.2,-0.4 2.7,-0.6 4.6,-0.6 l 15.6,0 c 4,0 7.7,0.5 11,1.4 3.3,0.9 6.1,2.2 8.4,4 2.3,1.8 4.1,4 5.4,6.6 1.3,2.7 1.9,5.7 1.9,9.2 0,5.3 -1.3,9.6 -4,12.9 -2.7,3.3 -6.5,5.6 -11.6,6.7 l 17.5,23 c -1.5,0.7 -3.2,1.3 -5.1,1.8 -1.9,0.5 -4,0.8 -6.3,0.8 z m -25.4,-36 7.7,0 c 4,0 6.9,-0.8 8.5,-2.5 1.6,-1.7 2.4,-3.7 2.4,-6.2 0,-2.6 -0.9,-4.6 -2.6,-6.1 -1.7,-1.5 -4.2,-2.3 -7.5,-2.3 l -8.5,0 0,17.1 z" /><path
         inkscape:connector-curvature="0"
         id="path60"
         d="m 916,143 c -1.4,0 -2.8,-0.1 -4.2,-0.2 -1.4,-0.1 -2.5,-0.3 -3.5,-0.5 l 0,-50.5 -19.1,0 C 889.1,91 888.9,90 888.7,89 c -0.2,-1.1 -0.3,-2.3 -0.3,-3.7 0,-3.1 0.6,-5.2 1.9,-6.4 1.2,-1.2 2.8,-1.8 4.7,-1.8 l 49,0 c 0.1,0.8 0.3,1.8 0.4,2.8 0.1,1.1 0.2,2.3 0.2,3.7 0,5.5 -2.2,8.2 -6.6,8.2 l -12.8,0 0,44.3 c 0,2 -0.6,3.6 -1.8,5 -1.2,1.4 -3.5,2.1 -6.9,2.1 z" /><path
         inkscape:connector-curvature="0"
         id="path62"
         d="m 973,144 c -3.5,0 -7.4,-0.3 -11.6,-0.9 -4.2,-0.6 -8.4,-1.6 -12.4,-2.9 -0.1,-3.7 0.3,-6.8 1.3,-9.1 1,-2.4 2.9,-3.6 5.8,-3.6 1.1,0 2.2,0.1 3.5,0.4 1.2,0.2 2.6,0.5 4.1,0.8 1.5,0.3 3.1,0.5 4.8,0.8 1.7,0.2 3.5,0.4 5.5,0.4 3.3,0 5.7,-0.5 7.2,-1.6 1.5,-1 2.3,-2.4 2.3,-4.1 0,-1.6 -0.7,-2.7 -2.2,-3.5 -1.5,-0.8 -3.5,-1.6 -6,-2.3 l -7.7,-2 c -3.5,-0.9 -6.5,-2.1 -8.8,-3.5 -2.4,-1.4 -4.3,-3 -5.8,-4.8 -1.5,-1.8 -2.5,-3.6 -3.1,-5.6 -0.6,-2 -1,-4.1 -1,-6.2 0,-2.2 0.4,-4.5 1.2,-6.9 0.8,-2.4 2.1,-4.5 4.1,-6.4 2,-1.9 4.6,-3.5 7.9,-4.8 3.3,-1.2 7.5,-1.9 12.6,-1.9 3.5,0 7.1,0.3 10.7,0.9 3.6,0.6 7.4,1.6 11.4,2.9 0.2,3.7 -0.2,6.7 -1.2,9 -1,2.3 -2.9,3.4 -5.7,3.4 -1.1,0 -2.2,-0.1 -3.2,-0.3 -1.1,-0.2 -2.2,-0.4 -3.5,-0.6 -1.2,-0.2 -2.6,-0.4 -4.1,-0.6 -1.5,-0.2 -3.3,-0.3 -5.2,-0.3 -3.6,0 -6.1,0.5 -7.4,1.6 -1.3,1.1 -2,2.2 -2,3.4 0,1.3 0.6,2.3 1.7,3.1 1.1,0.8 3.2,1.6 6.3,2.3 l 8.5,2.2 c 12.8,3.4 19.2,10 19.2,19.8 0,3.1 -0.5,5.9 -1.5,8.5 -1,2.6 -2.6,4.8 -4.8,6.6 -2.2,1.9 -5,3.3 -8.4,4.3 -3.6,1 -7.7,1.5 -12.5,1.5 z" /></g><path
       d="m 3249.8932,-16.03226 0,-95.71855 28.037,0 c 38.9554,0 53.1986,25.170878 53.1986,47.861518 0,22.70412 -14.2432,47.857032 -53.1986,47.857032 l -28.037,0 z m 121.0446,-47.857032 c 0,-49.852008 -35.8551,-83.726218 -95.2541,-83.726218 l -40.483,0 c -19.3204,0 -23.9932,10.25347 -23.9932,23.63421 l 0,120.39969 c 0,12.92692 4.6728,23.3736 23.9932,23.3736 l 40.483,0 c 59.4439,0 95.2991,-33.82028 95.2991,-83.681282 m -222.7689,-19.37466 0,-45.345338 c 0,-12.25744 4.8975,-20.06661 30.2387,-20.06661 3.1452,0 5.8411,0.23362 8.9862,0.67398 l 0,148.76972 c 0,12.22149 -4.9424,20.0082 -30.3285,20.0082 -3.1002,0 -5.7961,-0.21566 -8.8964,-0.64701 l 0,-67.564202 -79.0339,0 0,48.203012 c 0,12.22149 -4.8975,20.0082 -30.2836,20.0082 -3.1003,0 -5.7962,-0.21566 -8.8964,-0.64701 l 0,-148.73828 c 0,-12.25744 4.8975,-20.06661 30.2836,-20.06661 3.1003,0 5.7512,0.23362 8.8964,0.67398 l 0,64.737968 79.0339,0 z"
       id="path114"
       inkscape:connector-curvature="0"
       style="fill:#ffffff" /></g></svg>