<svg width="1872.2pt" height="605.25pt" version="1.1" viewBox="0 0 1872.2 605.25" xmlns="http://www.w3.org/2000/svg">
 <defs>
  <linearGradient id="a" x1="-8600.5" x2="-8600.5" y1="-4687.6" y2="-4591.4" gradientTransform="matrix(-2.9812 0 0 -2.9812 -24493 -13655)" gradientUnits="userSpaceOnUse">
   <stop stop-color="#a80000" offset="0"/>
   <stop stop-color="#a1000c" offset=".38129"/>
   <stop stop-color="#b90019" offset="1"/>
  </linearGradient>
 </defs>
 <path d="m624.21 9e-5h1223c13.753 0 25.006 11.253 25.006 25.006v325.08c0 13.753-11.253 25.006-25.006 25.006h-1223z" fill="url(#a)" stroke-width="2.9812"/>
 <path d="m624.21 375.09h-599.2c-13.753 0-25.006-11.253-25.006-25.006v-325.39c0-13.128 10.94-24.693 24.693-24.693h599.52z" fill="#fff" stroke-width="3.1257"/>
 <g transform="matrix(.75012 0 0 .75012 0 -6e-5)" fill="#fff">
  <path d="m1196.8 46.657c8.08-2.39 17.44-0.61 23.7 5.16 8.96 7.84 10.76 22.47 3.9 32.22-5.08 7.92-15.03 12.37-24.3 10.66-11.61-1.81-21.3-12.73-20.86-24.62-0.19-10.58 7.4-20.56 17.56-23.42z"/>
  <path d="m1017.4 133.46c21.37-5.8 43.96-4.99 65.59-1.1 16.56 3.21 33.02 8.13 47.94 16.07 0.82 7.45 0.64 15.53-3.01 22.28-2.45 4.57-7.4 7.7-12.63 7.47-7.67-0.23-14.56-3.99-21.59-6.62-14.68-6.05-30.63-9.09-46.51-8.39-14.87 0.74-29.66 5.3-41.92 13.84-11.33 7.69-20.34 18.59-26.21 30.93-6.65 14.05-9.41 29.77-8.95 45.25 0.46 14.4 3.53 28.88 10.19 41.73 7.95 15.91 21.5 28.99 37.82 36.15 20.99 9.32 45.36 8.45 66.93 1.55 8.87-2.71 17.08-7.36 26.16-9.37 5.62-1.4 12.21 0.36 15.57 5.29 4.85 6.95 5.01 16.04 4.14 24.15-14.07 7.02-29.27 11.67-44.63 14.88-25.46 5.02-52.52 5.76-77.23-3.13-24.95-8.67-46.58-26.38-60.09-49.06-11.77-19.51-17.68-42.39-17.5-65.12-0.26-25.49 7.13-51.2 21.84-72.12 15.21-21.84 38.36-37.9 64.09-44.68z"/>
  <path d="m1378.5 131.64c20.37-4.35 42.33-2.9 61.39 5.79 14.88 6.78 27.32 18.57 35.15 32.9 9.75 17.49 12.97 37.77 13.25 57.57 0 42.06 0.05 84.12-0.05 126.18 0.17 5.36-2.82 10.92-8.15 12.55-9.57 3.04-19.87 1.53-29.55-0.18-0.06-45.61 0.03-91.23-0.05-136.84-0.58-17.92-4.72-37.02-17.41-50.43-11.02-11.97-27.92-16.85-43.82-16.02-16.43 0.97-32.11 7.86-45.12 17.73-8.09 6.21-15.3 13.73-20.45 22.57-1.14 1.63-0.91 3.67-0.96 5.55 0.08 8.56 0.01 17.11 0.05 25.67 0.02 40.13 0.01 80.26-0.01 120.39 0.21 5.36-3.46 10.34-8.62 11.75-9.37 2.72-19.36 1.35-28.8-0.26-0.16-43.48-0.07-86.96-0.08-130.44 0.08-33.89-0.12-67.78 0.1-101.66 9.07-1.94 18.68-3.43 27.8-0.98 4.91 1.26 9.25 5.39 9.48 10.67 0.35 7.42-0.01 14.85 0.15 22.28 14.33-17.02 33.79-30.09 55.7-34.79z"/>
  <path d="m1579.1 150c30.74-21.87 72.51-26.73 107.67-13.3 16.58 6.46 31.22 17.69 41.88 31.93 10.87 14.34 17.8 31.44 21.11 49.08 3.01 15.84 2.86 32.18 0.27 48.06-60.29 0.07-120.59 0-180.88 0.04 2.21 17.04 8.77 33.95 20.77 46.51 10.38 11.11 24.48 18.3 39.23 21.59 22.1 4.92 45.28 2.4 66.72-4.37 7.84-2.21 15.32-5.66 23.31-7.37 5.57-1.42 11.72 1.3 14.58 6.26 4.25 7.17 3.74 15.87 3.17 23.87-19.57 8.63-40.34 14.62-61.56 17.38-19.3 2.53-39.12 2.24-58.08-2.43-16.65-4.06-32.58-11.5-45.88-22.37-14.06-11.32-25.03-26.31-31.98-42.94-9.86-23.76-12.22-50.39-7.98-75.68 5.19-30.3 22.29-58.65 47.65-76.26m17.36 30.27c-13.64 11.51-22.05 28.12-25.99 45.33-0.44 2.72-0.87 5.44-1.29 8.17 48.37 0 96.74-0.01 145.11 0-0.3-4.91-0.85-9.79-1.77-14.63-3.32-16.57-11.88-32.49-25.42-42.9-26.12-20.22-66.03-17.3-90.64 4.03z"/>
  <path d="m1879.3 133.17c21.25-6.87 45.68-4.8 64.78 7.1 11.91 7.31 21.04 18.49 27.09 31 9.14-13.12 20.8-24.75 35.02-32.29 17.83-9.56 39.11-11.94 58.81-7.71 14.06 3.02 27.23 10.4 36.75 21.24 12.31 13.79 18.58 32.08 20.24 50.29 0.97 10.37 0.4 20.8 0.55 31.21-0.04 40.16 0.05 80.34-0.06 120.5 0.17 5.76-3.84 11.05-9.43 12.42-9.4 2.54-19.36 1.27-28.79-0.52 0.01-42.8-0.01-85.61-0.02-128.42-0.23-11.22 0.66-22.52-0.93-33.67-1.46-9.94-5.03-19.84-11.76-27.44-6.16-7.04-14.97-11.41-24.12-12.93-27.02-5.03-54.58 11.73-66.73 35.54-1.21 2.79-0.57 5.94-0.69 8.89 0.02 48.58 0.05 97.16-0.02 145.74 0.28 5.65-3.22 11.29-8.82 12.76-9.59 2.65-19.77 1.3-29.4-0.44-0.01-29.46-0.01-58.92-0.01-88.38-0.17-22.64 0.32-45.29-0.26-67.92-0.73-9.29-2.85-18.66-7.59-26.77-4.58-7.96-12.01-14.27-20.7-17.29-14.94-5.25-31.92-3.43-45.78 4.04-10.33 5.46-19.26 13.56-25.69 23.31-1.78 2.98-4.3 5.92-4.24 9.58-0.1 3.75 0.03 7.5 0.02 11.25 0.04 46.59 0.01 93.19-0.01 139.78 0.3 5.58-3.05 11.21-8.58 12.75-9.48 2.73-19.63 1.5-29.16-0.36 0-50.27-0.03-100.54 0-150.8 0.02-27.01-0.01-54.02 0.01-81.03 8.65-1.91 17.74-3.44 26.53-1.45 5.05 1.07 9.59 5.03 10.31 10.32 0.86 6.75 0.19 13.59 0.4 20.37 10.8-13.94 25.39-25.23 42.28-30.67z"/>
  <path d="m2255.9 129.89c17.19-1.23 34.69-0.86 51.52 3.17 13.74 3.27 27.14 9.51 37.07 19.76 10.85 10.79 16.89 25.54 19.55 40.42 2.85 14.42 1.83 29.17 2.01 43.77-0.02 43.16 0.03 86.32-0.03 129.48-8.95 1.65-18.28 2.8-27.26 0.8-5.34-1.09-10.03-5.64-10.18-11.26-0.16-7.2 0.01-14.4-0.05-21.59-9.66 10.19-20.7 19.21-33.29 25.52-16.85 8.58-36.04 12-54.84 11.19-15.27-0.63-30.64-4.41-43.72-12.49-14.38-8.77-25.53-22.9-30.05-39.19-4.79-17.16-3.22-36.51 6.17-51.87 6.78-11.09 17.31-19.42 28.76-25.31 16.65-8.48 35.14-12.62 53.58-14.98 24.17-2.98 48.62-2.81 72.9-1.26-0.09-10.48-0.18-21.12-2.94-31.31-2.15-7.96-6.31-15.56-12.73-20.85-7.15-5.88-16.23-8.83-25.27-10.16-25.14-3.34-50.68 1.14-74.67 8.72-5.04 1.38-10 3.18-15.2 3.77-5.25 0.51-10.64-2.24-13.06-6.95-3.77-7.19-3.52-15.68-2.55-23.51 23.88-8.65 48.96-13.95 74.28-15.87m25.3 125.03c-17.4 1.05-35.09 2.99-51.35 9.62-9.34 3.91-18.36 10.1-23 19.37-7.01 13.91-3.62 32.09 7.98 42.52 7.95 7.51 18.67 11.45 29.43 12.56 16.59 1.49 33.6-1.83 48.41-9.5 13.04-6.54 24.33-16.26 33.43-27.61 0.8-1.14 2.07-2.21 1.91-3.77 0.07-14.33-0.06-28.67 0.05-42.99-15.61-0.88-31.25-0.94-46.86-0.2z"/>
  <path d="m1193.1 133.91c9.65-3.09 20.03-1.43 29.72 0.69 0 34.69-0.02 69.38 0 104.07 0.04 38.13-0.02 76.25 0.01 114.38 0.03 4.08-0.97 8.55-4.34 11.2-4.23 3.37-9.94 3.91-15.15 4.07-6.31 0.12-12.58-0.67-18.75-1.87-0.05-42.1-0.02-84.19-0.02-126.29 0.03-31.39-0.05-62.78 0.03-94.17-0.12-5.36 3.32-10.5 8.5-12.08z"/>
 </g>
 <path d="m421.97 333.52c4.0635 2.188 12.19 4.6886 22.818 4.6886 17.817 0.31257 27.507-6.5641 34.696-22.505l95.648-213.18c-4.0635-2.188-12.816-4.376-19.692-4.6886-12.19-0.31257-28.757 2.188-39.384 27.507l-30.945 73.142-60.952-98.461c-4.0635-1.2503-13.441-2.8132-20.63-2.8132-21.255 0-33.445 7.8144-45.948 21.255l-58.764 64.39 47.511 74.705c8.7521 13.753 20.317 20.63 39.072 20.63 12.19 0 22.505-2.8132 27.194-5.0012l-57.201-86.27 40.635-42.823 66.578 104.4zm-125.34-80.644c0 15.629-6.2515 24.693-36.884 24.693-4.0635 0-7.5018-0.31258-10.94-0.93773v-208.17c0-15.941 5.3138-32.195 36.258-32.195 3.7509 0 7.8144 0.31257 11.565 1.2503zm-63.452-31.257c0 29.382-19.067 50.637-58.139 55.013-28.132 3.1257-69.079-0.62514-88.458-2.8132-0.62515-3.1257-1.2503-7.1892-1.2503-10.315 0-25.631 13.753-31.57 26.881-31.57 13.441 0 34.696 2.188 50.637 2.188 17.504 0 22.505-5.9389 22.505-11.565 0-7.5018-6.8766-10.315-20.63-13.128l-36.571-6.564c-30.632-5.9389-46.886-27.194-46.886-49.699 0-27.506 19.38-50.324 57.513-54.7 28.757-3.1257 64.078 0.31257 83.145 2.8132 0.62514 3.4383 0.93772 6.564 0.93772 10.002 0 25.631-13.441 30.945-26.569 30.945-10.002 0-25.318-1.8754-43.135-1.8754-18.129 0-25.318 5.0012-25.318 10.94 0 6.2515 7.1892 9.0646 18.442 10.94l35.321 6.5641c36.259 6.8766 51.575 27.507 51.575 52.825" fill="url(#a)" stroke-width="2.9812"/>
 <path d="m25.006 0c-13.753 0-25.006 11.253-25.006 25.006v226.3c0-20.005 16.003-36.509 36.008-37.259l1836.2-69.266v-119.78c0-13.753-11.253-25.006-25.006-25.006z" fill="#fff" opacity=".2"/>
 <g transform="matrix(.75298 0 0 .75298 371.25 438.15)">
  <path d="m277.34 28.52c2.78-0.95 5.8-0.98 8.69-0.63 8.08 1.11 14.58 8.96 14.01 17.13 0.28 9.07-8.12 17.01-17.11 16.65-8.92 0.28-16.98-7.74-16.89-16.63-0.29-7.2 4.53-14.14 11.3-16.52z"/>
  <path d="m432.12 33.17c7.25-1.8 14.86-0.62 22.14 0.46-0.02 31.78-0.01 63.56-0.01 95.34 0.01 29.97-0.24 59.96 1.79 89.88-7.95 1.29-16.86 3.37-24.38-0.51-6.81-4.35-5.33-13.36-5.39-20.24-4.84 7.71-11.51 14.5-19.88 18.3-11.93 5.39-25.74 6.64-38.42 3.4-15.4-3.84-28.63-14.68-36.26-28.49-8.92-15.2-10.74-33.46-8.89-50.69 1.49-13.99 7.57-27.42 16.92-37.91 11.33-12.55 28.38-19.58 45.26-18.73 15.07-0.12 29.31 7.44 39.28 18.46-0.07-19.16-0.01-38.31-0.04-57.47-0.27-5.06 2.6-10.68 7.88-11.8m-48.53 76.6c-10.67 1.95-20.19 9.05-25.17 18.66-5.19 9.98-6.12 21.67-4.54 32.67 1.53 10.17 5.98 20.28 14.12 26.86 16.46 13.57 44.59 9.01 55.54-9.42 1.39-1.89 0.88-4.32 0.98-6.5-0.19-14.93 0.25-29.88-0.21-44.79-7.55-14.26-25.43-20.35-40.72-17.48z"/>
  <path d="m1146.1 37.13c2.42-4 7.59-4.63 11.84-4.85 5.38-0.09 10.76 0.42 16.06 1.36-0.02 37.08 0 74.17-0.01 111.25 14.45-15.8 28.96-31.55 43.42-47.34 3.82-4.4 8.31-8.64 14.12-10.14 9.38-2.26 19.27-0.82 28.3 2.25-18.56 20.28-37.25 40.45-55.81 60.74 19.67 22.06 39.78 43.77 59.24 66.01-8.02 3.67-17.1 5.02-25.84 4-9.21-1.3-15.9-8.59-21.53-15.38-13.95-16.18-27.92-32.35-41.87-48.53-0.05 16.5-0.05 32.99 0 49.49 0.1 3.46-0.11 7.15-2.19 10.07-2.07 3.26-6.15 4.23-9.75 4.55-6.05 0.46-12.13-0.2-18.09-1.17v-168.42c0.09-4.67-0.76-9.82 2.11-13.89z"/>
  <path d="m121.1 41.09c7.53-2.15 15.53-0.87 23.15 0.18-0.02 27.22 0.04 54.43-0.03 81.65 21.22-25.01 42.44-50 63.65-75.01 3.15-3.68 7.37-6.64 12.24-7.36 9.11-1.5 18.69 0.05 26.98 4.09-23.91 27.6-47.88 55.13-71.84 82.67 25.54 29.53 51.21 58.95 76.76 88.46-8.64 4.14-18.6 6.17-28.09 4.27-5.16-0.97-9.53-4.28-13-8.08-22.25-25.7-44.42-51.45-66.7-77.12 0.07 24.39 0.01 48.77 0.04 73.16 0.25 5.23-3.1 10.66-8.36 11.89-7.43 1.74-15.18 0.64-22.63-0.47-0.05-55.15-0.01-110.31-0.02-165.47-0.24-5.29 2.33-11.37 7.85-12.86z"/>
  <path d="m685.57 43.54c3.15-2.63 7.5-2.83 11.42-3.03 15.66-0.03 31.32 0 46.99-0.02 14.74 0.19 30.04 2.04 43.06 9.46 8.46 4.71 15.28 12.49 18.09 21.83 3.78 12.47 3.22 27-4.4 37.96-5.31 8.06-13.71 13.55-22.66 16.83 11.55 2.66 22.91 8.82 29.16 19.22 7.96 12 7.96 27.63 3.54 40.93-3.46 10.4-11.47 18.89-21.17 23.79-12.21 6.2-26.1 8.01-39.62 8.48-18 0.02-36 0-54 0.01-3.74-0.12-7.93-0.52-10.78-3.22-2.6-2.93-3.36-7.02-3.45-10.83-0.02-49.67 0.03-99.34-0.02-149.01-0.02-4.34 0.61-9.19 3.84-12.4m26.43 24.46v47h26.01c7.72-0.18 15.65-0.17 23-2.86 5.46-1.91 10.69-5.4 13.24-10.76 3.8-8.09 3.57-18.95-3.17-25.45-6.43-5.98-15.63-7.38-24.06-7.88-11.67-0.13-23.35-0.01-35.02-0.05m0 73c0 16.92-0.01 33.84 0.01 50.75 14.95-0.31 29.99 0.84 44.86-1.14 8.71-1.27 18.64-4.36 22.68-12.97 4.19-9.57 3.24-22.91-5.83-29.39-7.74-5.4-17.43-6.94-26.67-7.24-11.68-0.03-23.37 0-35.05-0.01z"/>
  <path d="m889.51 84.7c14.45-1.62 29.6 0.28 42.46 7.4 13.76 7.05 24.51 19.43 30.18 33.77 7.37 18.4 6.7 39.79-1.42 57.84-6.11 13.62-17.16 24.97-30.7 31.3-12.66 6.36-27.28 7.82-41.22 6.2-19.07-2.31-37.2-13.06-47.56-29.36-15.18-24.02-14.59-57.33 2.35-80.32 10.76-14.74 27.79-24.67 45.91-26.83m3.99 24.85c-13.6 2.15-25.02 12.61-29.42 25.5-5.02 14.49-4.04 31.49 4.21 44.63 7.8 13.21 24.66 20.13 39.48 16.07 10.24-2.58 19-9.95 23.59-19.42 4.58-8.59 5.63-18.6 5.01-28.19-0.86-11.36-5.33-22.89-14.1-30.46-7.74-6.8-18.62-9.82-28.77-8.13z"/>
  <path d="m1041.6 84.8c14.01-1.68 28.74-0.15 41.4 6.4 15.31 7.26 27.18 21 32.8 36.92 9.95 27.38 2.46 61.52-21.13 79.6-26.5 20.71-68.26 18.6-92.11-5.31-23.01-23.02-25.72-62.66-7.3-89.23 10.49-15.46 27.83-25.97 46.34-28.38m3.97 24.88c-13.7 2.44-24.92 13.34-29.08 26.43-4.62 14.54-3.42 31.42 5.09 44.33 5.21 8.12 13.76 13.96 23.25 15.74 13.73 2.98 28.71-3.39 36.48-15.01 7.52-10.76 9.2-24.56 7.37-37.31-1.49-9.57-5.68-18.98-12.93-25.57-7.96-7.4-19.52-10.64-30.18-8.61z"/>
  <path d="m275.31 86.26c7.38-2.05 15.17-0.72 22.62 0.24 0.14 40.17 0.05 80.36 0.05 120.53 0.2 5.06-1.99 11.03-7.31 12.55-7.44 2.23-15.4 0.98-22.93-0.18 0.03-40.47 0-80.93 0-121.4-0.21-4.95 2.51-10.39 7.57-11.74z"/>
  <path d="m519.64 85.41c22-2.89 44.35 0.9 65.3 7.73 0.54 6.74 0.63 15.01-5 19.77-5.35 3.51-12.21 1.53-17.97 0.21-11.57-3.77-23.93-4.82-36-3.55-4.45 0.52-9.25 1.57-12.42 4.98-4.08 4.16-3.57 12.18 1.62 15.23 5.98 3.79 13.09 5.03 19.77 7.04 14.02 4.1 28.76 7.01 41.21 15.04 7.71 4.9 13.54 12.95 14.86 22.09 1.85 12.17-1.29 25.94-10.91 34.23-9.41 8.01-21.88 11.45-34 12.42-22.19 1.75-44.57-2.2-65.49-9.51-0.75-6.34-0.95-13.73 3.64-18.77 3.71-4.25 9.92-3.29 14.81-2.17 10.85 2.71 21.67 6.25 32.97 6.35 7.94 0.1 16.47 0.29 23.57-3.84 7.42-4.26 7.47-17.13-0.65-20.69-18.23-8.62-39.29-9.77-56.89-19.98-7.25-4.05-13.29-10.57-15.75-18.6-3.47-11.27-1.38-24.51 6.63-33.4 7.81-8.68 19.41-12.87 30.7-14.58z"/>
  <path d="m1288.3 96.29c8.68-6.94 19.73-10.29 30.66-11.34 20.79-1.93 41.75 1.69 61.47 8.22 0.6 5.89 0.56 12.32-2.75 17.47-1.66 2.57-4.69 4.06-7.71 4.12-9.53 0.61-18.19-4.31-27.56-5.02-9.12-0.8-18.57-1.43-27.46 1.21-5.17 1.39-9.43 6.41-8.45 11.97 0.16 5.03 5 7.8 9.15 9.41 17.84 6.4 37.27 8.69 53.91 18.22 7.81 4.35 14.24 11.59 16.35 20.41 2.09 8.8 1.29 18.35-2.38 26.65-3.7 8.2-11.12 14.2-19.3 17.62-15.28 6.6-32.45 6.47-48.72 4.93-13.42-1.51-26.69-4.53-39.39-9.11-0.82-6.46-0.83-13.99 3.91-19.04 3.65-3.75 9.39-3 14.02-1.98 10.86 2.6 21.61 6.3 32.9 6.46 8.24 0.09 17.17 0.41 24.48-4.02 7.32-4.47 7-17.24-1.18-20.66-16.58-7.7-35.33-9.36-51.83-17.32-6.23-2.94-12.29-6.81-16.29-12.53-9.81-13.8-7.21-35.07 6.17-45.67z"/>
 </g>
</svg>
