<?xml version="1.0" encoding="UTF-8" standalone="no"?>
<!-- Created with Inkscape (http://www.inkscape.org/) -->

<svg
   xmlns:dc="http://purl.org/dc/elements/1.1/"
   xmlns:cc="http://creativecommons.org/ns#"
   xmlns:rdf="http://www.w3.org/1999/02/22-rdf-syntax-ns#"
   xmlns:svg="http://www.w3.org/2000/svg"
   xmlns="http://www.w3.org/2000/svg"
   xmlns:sodipodi="http://sodipodi.sourceforge.net/DTD/sodipodi-0.dtd"
   xmlns:inkscape="http://www.inkscape.org/namespaces/inkscape"
   width="15.199783mm"
   height="4.6303496mm"
   viewBox="0 0 53.8575 16.406751"
   id="svg22086"
   version="1.1"
   inkscape:version="0.91 r13725"
   sodipodi:docname="Sky Cinema Hits.svg">
  <defs
     id="defs22088">
    <clipPath
       clipPathUnits="userSpaceOnUse"
       id="clipPath11830">
      <path
         d="m 96.036,519.591 c 0,0 -4.583,0 -4.583,-4.584 l 0,0 0,-15.278 c 0,0 0,-4.584 4.583,-4.584 l 0,0 37.605,0 c 0,0 4.584,0 4.584,4.584 l 0,0 0,15.278 c 0,0 0,4.584 -4.584,4.584 l 0,0 -37.605,0 z"
         id="path11832"
         inkscape:connector-curvature="0" />
    </clipPath>
    <linearGradient
       x1="0"
       y1="0"
       x2="1"
       y2="0"
       gradientUnits="userSpaceOnUse"
       gradientTransform="matrix(0,-9.6754198,9.6754198,0,329.12238,430.91119)"
       spreadMethod="pad"
       id="linearGradient11812">
      <stop
         style="stop-opacity:1;stop-color:#af6773"
         offset="0"
         id="stop11814" />
      <stop
         style="stop-opacity:1;stop-color:#c9747a"
         offset="0.104411"
         id="stop11816" />
      <stop
         style="stop-opacity:1;stop-color:#c9747a"
         offset="0.898134"
         id="stop11818" />
      <stop
         style="stop-opacity:1;stop-color:#d49093"
         offset="0.999673"
         id="stop11820" />
      <stop
         style="stop-opacity:1;stop-color:#d49093"
         offset="1"
         id="stop11822" />
    </linearGradient>
    <linearGradient
       x1="0"
       y1="0"
       x2="1"
       y2="0"
       gradientUnits="userSpaceOnUse"
       gradientTransform="matrix(0,9.8377168,9.8377168,0,320.21825,421.1516)"
       spreadMethod="pad"
       id="linearGradient11782">
      <stop
         style="stop-opacity:1;stop-color:#b4b2b1"
         offset="0"
         id="stop11784" />
      <stop
         style="stop-opacity:1;stop-color:#e8e8e9"
         offset="0.020448"
         id="stop11786" />
      <stop
         style="stop-opacity:1;stop-color:#f9f9fa"
         offset="0.0524045"
         id="stop11788" />
      <stop
         style="stop-opacity:1;stop-color:#f5f5f5"
         offset="0.487663"
         id="stop11790" />
      <stop
         style="stop-opacity:1;stop-color:#f9f9fa"
         offset="0.895488"
         id="stop11792" />
      <stop
         style="stop-opacity:1;stop-color:#f4f3f4"
         offset="0.929442"
         id="stop11794" />
      <stop
         style="stop-opacity:1;stop-color:#e8e8e9"
         offset="0.964262"
         id="stop11796" />
      <stop
         style="stop-opacity:1;stop-color:#b4b2b1"
         offset="1"
         id="stop11798" />
    </linearGradient>
    <clipPath
       clipPathUnits="userSpaceOnUse"
       id="clipPath11740">
      <path
         d="m 96.036,519.591 c 0,0 -4.583,0 -4.583,-4.584 l 0,0 0,-15.278 c 0,0 0,-4.584 4.583,-4.584 l 0,0 37.605,0 c 0,0 4.584,0 4.584,4.584 l 0,0 0,15.278 c 0,0 0,4.584 -4.584,4.584 l 0,0 -37.605,0 z"
         id="path11742"
         inkscape:connector-curvature="0" />
    </clipPath>
    <linearGradient
       x1="0"
       y1="0"
       x2="1"
       y2="0"
       gradientUnits="userSpaceOnUse"
       gradientTransform="matrix(0,-9.6754198,9.6754198,0,329.12238,430.91119)"
       spreadMethod="pad"
       id="linearGradient11722">
      <stop
         style="stop-opacity:1;stop-color:#810a32"
         offset="0"
         id="stop11724" />
      <stop
         style="stop-opacity:1;stop-color:#a90e3a"
         offset="0.104411"
         id="stop11726" />
      <stop
         style="stop-opacity:1;stop-color:#a90e3a"
         offset="0.898134"
         id="stop11728" />
      <stop
         style="stop-opacity:1;stop-color:#b94556"
         offset="0.999673"
         id="stop11730" />
      <stop
         style="stop-opacity:1;stop-color:#b94556"
         offset="1"
         id="stop11732" />
    </linearGradient>
    <clipPath
       clipPathUnits="userSpaceOnUse"
       id="clipPath11704">
      <path
         d="m 96.036,519.591 c 0,0 -4.583,0 -4.583,-4.584 l 0,0 0,-15.278 c 0,0 0,-4.584 4.583,-4.584 l 0,0 37.605,0 c 0,0 4.584,0 4.584,4.584 l 0,0 0,15.278 c 0,0 0,4.584 -4.584,4.584 l 0,0 -37.605,0 z"
         id="path11706"
         inkscape:connector-curvature="0" />
    </clipPath>
    <linearGradient
       x1="0"
       y1="0"
       x2="1"
       y2="0"
       gradientUnits="userSpaceOnUse"
       gradientTransform="matrix(0,9.8377168,9.8377168,0,320.21825,421.1516)"
       spreadMethod="pad"
       id="linearGradient11680">
      <stop
         style="stop-opacity:1;stop-color:#888685"
         offset="0"
         id="stop11682" />
      <stop
         style="stop-opacity:1;stop-color:#d9d9da"
         offset="0.020448"
         id="stop11684" />
      <stop
         style="stop-opacity:1;stop-color:#f5f5f6"
         offset="0.0524045"
         id="stop11686" />
      <stop
         style="stop-opacity:1;stop-color:#eeefef"
         offset="0.487663"
         id="stop11688" />
      <stop
         style="stop-opacity:1;stop-color:#f5f5f6"
         offset="0.895488"
         id="stop11690" />
      <stop
         style="stop-opacity:1;stop-color:#ebebec"
         offset="0.929442"
         id="stop11692" />
      <stop
         style="stop-opacity:1;stop-color:#d9d9da"
         offset="0.964262"
         id="stop11694" />
      <stop
         style="stop-opacity:1;stop-color:#888685"
         offset="1"
         id="stop11696" />
    </linearGradient>
  </defs>
  <sodipodi:namedview
     id="base"
     pagecolor="#ffffff"
     bordercolor="#666666"
     borderopacity="1.0"
     inkscape:pageopacity="0.0"
     inkscape:pageshadow="2"
     inkscape:zoom="15.839192"
     inkscape:cx="17.596036"
     inkscape:cy="6.7460014"
     inkscape:document-units="px"
     inkscape:current-layer="layer1"
     showgrid="false"
     fit-margin-top="0"
     fit-margin-left="0"
     fit-margin-right="0"
     fit-margin-bottom="0"
     inkscape:window-width="1920"
     inkscape:window-height="1017"
     inkscape:window-x="-8"
     inkscape:window-y="-8"
     inkscape:window-maximized="1" />
  <metadata
     id="metadata22091">
    <rdf:RDF>
      <cc:Work
         rdf:about="">
        <dc:format>image/svg+xml</dc:format>
        <dc:type
           rdf:resource="http://purl.org/dc/dcmitype/StillImage" />
        <dc:title></dc:title>
      </cc:Work>
    </rdf:RDF>
  </metadata>
  <g
     inkscape:label="Layer 1"
     inkscape:groupmode="layer"
     id="layer1"
     transform="translate(-293.28961,-420.89473)">
    <g
       id="g4351">
      <path
         d="m 345.73248,421.23635 c 0.7625,0 1.03375,0.45 1.03375,1.19875 l 0,0 c 0,-0.74875 -0.27125,-1.19875 -1.03375,-1.19875 z m -34.255,0 34.255,0 -34.255,0 z m -16.77375,0 c -0.7625,0 -1.03375,0.45 -1.03375,1.19875 l 0,0 0,7.27625 c 0,0.75 0.27125,1.2 1.03375,1.2 l 0,0 16.77375,0 0,-5.75625 c -0.9425,0.07 -1.87,0.15 -2.77375,0.2375 l 0,0 -1.91875,4.28125 c -0.1975,0.43875 -0.46375,0.6325 -0.94125,0.6325 l 0,0 c -0.0138,0 -0.0275,0 -0.04,-0.001 l 0,0 c -0.29375,-0.007 -0.52875,-0.0775 -0.64125,-0.135 l 0,0 1.14375,-2.415 -1.24,-1.945 c -0.60125,0.0813 -1.1875,0.165 -1.75375,0.25375 l 0,0 1.58625,2.39375 c -0.13375,0.0637 -0.4225,0.1425 -0.77125,0.1425 l 0,0 c -0.53,0 -0.85625,-0.19625 -1.10375,-0.58125 l 0,0 -1.095,-1.7225 c -0.105,0.0187 -0.20875,0.0375 -0.31125,0.0575 l 0,0 0,1.535 c 0,0.445 -0.175,0.70125 -1.0425,0.70125 l 0,0 c -0.115,0 -0.21625,-0.007 -0.31125,-0.0225 l 0,0 0,-1.94625 c -0.155,0.0337 -0.31,0.0675 -0.46,0.10125 l 0,0 c 0.015,0.09 0.0238,0.1825 0.0238,0.2775 l 0,0 c 0,0.82875 -0.5425,1.43375 -1.64125,1.5525 l 0,0 c -0.22,0.0238 -0.465,0.0337 -0.71875,0.0337 l 0,0 c -0.66625,0 -1.38375,-0.0662 -1.78,-0.11125 l 0,0 c -0.02,-0.09 -0.0362,-0.20125 -0.0362,-0.2875 l 0,0 c 0,-0.06 0.002,-0.115 0.007,-0.1675 l 0,0 c -0.425,0.2 -0.78,0.4075 -1.05875,0.6225 l 0,0 c -0.725,0.6025 -0.74375,1.2625 -0.7675,1.39625 l 0,0 c -0.065,0 -0.0887,-0.28625 -0.0887,-0.71375 l 0,0 0.002,-6.87 c 0,-0.795 0.25875,-1.06375 0.93125,-1.06375 l 0,0 c 0.22875,0 0.4575,0.1225 0.76125,0.1225 l 0,0 16.03875,0 0,-0.2775 -16.77375,0 z m 11.79125,4.39375 0.44375,0.725 0.3475,-0.815 c -0.2675,0.0288 -0.53125,0.06 -0.79125,0.09 m -9.06875,1.71875 c 0.14375,0.009 0.285,0.0137 0.4125,0.0137 l 0,0 c 0.4825,0 0.635,-0.16125 0.64,-0.3175 l 0,0 c -0.37,0.0987 -0.72,0.2 -1.0525,0.30375 m 48.30625,3.5625 c 0.72625,0 1.00625,-0.4075 1.0325,-1.09125 l 0,0 c -0.0263,0.68375 -0.30625,1.09125 -1.0325,1.09125"
         style="fill:url(#linearGradient11680);stroke:none"
         id="path11698"
         inkscape:connector-curvature="0" />
      <path
         d="m 345.66961,431.17848 c 1.1325,0 1.4775,-0.70375 1.4775,-1.4075 l 0,-7.46875 c 0,-0.70375 -0.345,-1.4075 -1.4775,-1.4075 l -50.9025,0 c -1.1325,0 -1.4775,0.70375 -1.4775,1.4075 l 0,7.46875 c 0,0.70375 0.345,1.4075 1.4775,1.4075 l 50.9025,0 m -50.85,-0.095 c -0.7625,0 -1.27875,-0.45 -1.27875,-1.19875 l 0,-7.69625 c 0,-0.74875 0.51625,-1.19875 1.27875,-1.19875 l 50.7975,0 c 0.7625,0 1.27875,0.45 1.27875,1.19875 l 0,7.69625 c 0,0.74875 -0.51625,1.19875 -1.27875,1.19875 l -50.7975,0"
         style="fill:#a2a2a3;fill-opacity:1;fill-rule:nonzero;stroke:none"
         id="path11710"
         inkscape:connector-curvature="0" />
      <path
         d="m 311.47748,421.23635 0,0.2775 33.48625,0 c 0.30375,0 0.53125,-0.1225 0.76,-0.1225 l 0,0 c 0.6725,0 0.93125,0.26875 0.93125,1.06375 l 0,0 0.004,6.87 c 0,0.4275 -0.025,0.71375 -0.0888,0.71375 l 0,0 c -0.0238,-0.13375 -0.1125,-0.7475 -0.76875,-1.39625 l 0,0 c -0.37375,-0.35 -0.86375,-0.67375 -1.45875,-0.97125 l 0,0 0.40125,1.27125 c -0.1025,0.0425 -0.22625,0.0737 -0.37125,0.095 l 0,0 c -0.145,0.0213 -0.28625,0.0312 -0.425,0.0312 l 0,0 c -0.1575,0 -0.31,-0.025 -0.4575,-0.0763 l 0,0 c -0.14875,-0.0512 -0.25625,-0.16875 -0.3225,-0.35 l 0,0 -0.3075,-0.93625 -1.9775,0 -0.26125,0.88125 c -0.0663,0.2125 -0.17875,0.345 -0.335,0.40125 l 0,0 c -0.1575,0.0537 -0.32375,0.08 -0.4975,0.08 l 0,0 c -0.115,0 -0.24625,-0.01 -0.395,-0.0312 l 0,0 c -0.1475,-0.0213 -0.27,-0.0487 -0.3675,-0.0863 l 0,0 0.88875,-2.72125 c -0.48875,-0.10875 -0.99625,-0.21 -1.525,-0.30375 l 0,0 0.2775,2.98875 c -0.0838,0.03 -0.185,0.0613 -0.30375,0.0913 l 0,0 c -0.11625,0.03 -0.24625,0.045 -0.385,0.045 l 0,0 c -0.1925,0 -0.35625,-0.0325 -0.48875,-0.1 l 0,0 c -0.1325,-0.0662 -0.20625,-0.19 -0.2175,-0.3725 l 0,0 -0.13625,-1.9625 c -0.025,-0.29125 -0.0475,-0.595 -0.0675,-0.91125 l 0,0 c -0.115,-0.0163 -0.23125,-0.035 -0.34875,-0.0513 l 0,0 c -0.0688,0.29875 -0.1375,0.5775 -0.20875,0.83625 l 0,0 -0.37125,1.54375 c -0.0913,0.36375 -0.37875,0.545 -0.86125,0.545 l 0,0 c -0.12125,0 -0.245,-0.0112 -0.37125,-0.0362 l 0,0 c -0.12625,-0.0238 -0.23625,-0.0512 -0.32625,-0.0825 l 0,0 -0.46125,-1.92375 c -0.0913,-0.35875 -0.17625,-0.70875 -0.255,-1.055 l 0,0 c -0.0138,-0.0613 -0.0275,-0.125 -0.0412,-0.18625 l 0,0 c -0.08,-0.007 -0.16125,-0.0175 -0.2425,-0.025 l 0,0 c -0.01,0.175 -0.0213,0.34375 -0.0337,0.50625 l 0,0 c -0.03,0.4025 -0.0575,0.75 -0.08,1.04125 l 0,0 -0.14625,1.77 c -0.0113,0.17625 -0.0788,0.2975 -0.19875,0.36375 l 0,0 c -0.12125,0.0675 -0.2775,0.1 -0.47125,0.1 l 0,0 c -0.14,0 -0.26125,-0.0138 -0.36625,-0.04 l 0,0 c -0.10625,-0.0275 -0.19875,-0.06 -0.2775,-0.0962 l 0,0 0.3675,-3.75625 c -1.1075,-0.0962 -2.24875,-0.1725 -3.41875,-0.2325 l 0,0 0,0.54625 2.13,0 c 0.0125,0.0612 0.0238,0.14 0.0362,0.24125 l 0,0 c 0.0125,0.1 0.0175,0.20625 0.0175,0.32125 l 0,0 c 0,0.2425 -0.0475,0.40875 -0.14375,0.49625 l 0,0 c -0.0962,0.0875 -0.21875,0.13125 -0.36375,0.13125 l 0,0 -1.67625,0 0,1.02625 2.43,0 c 0.0112,0.0663 0.0225,0.15875 0.035,0.27625 l 0,0 c 0.0125,0.11875 0.0188,0.23625 0.0188,0.35 l 0,0 c 0,0.26125 -0.0512,0.4425 -0.155,0.54625 l 0,0 c -0.10125,0.1025 -0.23125,0.15375 -0.38875,0.15375 l 0,0 -2.60125,0 c -0.16875,0 -0.30625,-0.0175 -0.41125,-0.0538 l 0,0 c -0.10625,-0.0375 -0.18875,-0.0863 -0.245,-0.15125 l 0,0 c -0.0575,-0.0625 -0.0975,-0.14 -0.1175,-0.23125 l 0,0 c -0.0213,-0.09 -0.0325,-0.1875 -0.0325,-0.29 l 0,0 0,-3.42875 c -0.34875,-0.015 -0.7025,-0.0275 -1.05375,-0.0375 l 0,0 0,4.12 c -0.085,0.0425 -0.1875,0.0712 -0.30875,0.0862 l 0,0 c -0.12,0.015 -0.23875,0.0225 -0.35375,0.0225 l 0,0 c -0.2825,0 -0.495,-0.04 -0.63375,-0.11875 l 0,0 c -0.13875,-0.0787 -0.25375,-0.18625 -0.345,-0.32625 l 0,0 -2.20125,-3.52375 0,3.36875 c 0,0.17 -0.0513,0.3125 -0.15375,0.4275 l 0,0 c -0.1025,0.115 -0.29625,0.1725 -0.58,0.1725 l 0,0 c -0.12125,0 -0.23875,-0.006 -0.35375,-0.0188 l 0,0 c -0.115,-0.0113 -0.21125,-0.0263 -0.28875,-0.0437 l 0,0 0,-4.22625 c -0.35375,0.004 -0.70375,0.007 -1.0575,0.0112 l 0,0 0,3.64125 c 0,0.17625 -0.0537,0.32625 -0.1625,0.45 l 0,0 c -0.1075,0.12375 -0.31375,0.18625 -0.615,0.18625 l 0,0 c -0.1275,0 -0.2525,-0.006 -0.37625,-0.0188 l 0,0 c -0.125,-0.0113 -0.22875,-0.0263 -0.3125,-0.0437 l 0,0 0,-4.185 c -1.1725,0.0275 -2.34125,0.0687 -3.495,0.12375 l 0,0 c -0.11375,0.1325 -0.20625,0.28625 -0.27625,0.4625 l 0,0 c -0.0787,0.2 -0.1175,0.425 -0.1175,0.67375 l 0,0 c 0,0.25875 0.0388,0.4925 0.1175,0.6975 l 0,0 c 0.0788,0.2075 0.185,0.38125 0.32125,0.52375 l 0,0 c 0.13625,0.14125 0.29875,0.25125 0.485,0.32625 l 0,0 c 0.18875,0.0762 0.3875,0.11375 0.59875,0.11375 l 0,0 c 0.1325,0 0.25,-0.009 0.35375,-0.0275 l 0,0 c 0.1025,-0.0175 0.19375,-0.0362 0.275,-0.0538 l 0,0 c 0.0825,-0.0175 0.15875,-0.0375 0.2325,-0.055 l 0,0 c 0.0713,-0.0175 0.1475,-0.0275 0.225,-0.0275 l 0,0 c 0.44125,0 0.63875,0.40375 0.59,1.20875 l 0,0 c -0.2475,0.10375 -0.52375,0.1875 -0.82875,0.25375 l 0,0 c -0.305,0.0663 -0.6125,0.1 -0.92,0.1 l 0,0 c -0.42875,0 -0.825,-0.0775 -1.1875,-0.23125 l 0,0 c -0.3625,-0.15375 -0.67625,-0.3675 -0.94125,-0.64 l 0,0 c -0.26625,-0.27375 -0.475,-0.59625 -0.62625,-0.9725 l 0,0 c -0.15,-0.375 -0.22625,-0.78125 -0.22625,-1.21625 l 0,0 c 0,-0.36875 0.0563,-0.715 0.16875,-1.04125 l 0,0 c -0.66125,0.04 -1.315,0.0838 -1.96375,0.1325 l 0,0 0,5.75625 34.255,0 c 0.72625,0 1.00625,-0.4075 1.0325,-1.09125 l 0,0 c 0,-0.035 0.001,-0.0713 0.001,-0.10875 l 0,0 0,-7.27625 c 0,-0.74875 -0.27125,-1.19875 -1.03375,-1.19875 l 0,0 -34.255,0 z m 13.625,5.59875 0,-2.04625 c -0.435,-0.009 -0.87125,-0.0163 -1.31,-0.0213 l 0,0 1.31,2.0675 z m 10.03625,-0.85875 c 0.075,0.3675 0.1425,0.74375 0.20375,1.13125 l 0,0 0.0362,0 c 0.0662,-0.3875 0.13625,-0.76375 0.2075,-1.12625 l 0,0 c 0.0325,-0.16375 0.0663,-0.32 0.1,-0.47 l 0,0 c -0.21875,-0.0288 -0.44,-0.0562 -0.6625,-0.0825 l 0,0 c 0.0375,0.1725 0.075,0.35625 0.115,0.5475 m 6.0625,0.595 0.1125,0 c -0.035,-0.01 -0.0688,-0.0188 -0.10375,-0.0275 l 0,0 -0.009,0.0275 z"
         style="fill:url(#linearGradient11722);stroke:none"
         id="path11734"
         inkscape:connector-curvature="0" />
      <path
         d="m 316.25348,429.12423 c -0.42875,0 -0.825,-0.0775 -1.1875,-0.23125 -0.3625,-0.155 -0.67625,-0.36875 -0.94125,-0.64125 -0.26625,-0.2725 -0.475,-0.59625 -0.62625,-0.97125 -0.15,-0.37625 -0.22625,-0.78125 -0.22625,-1.2175 0,-0.42375 0.0763,-0.82125 0.22625,-1.19 0.15125,-0.37 0.36,-0.69 0.62625,-0.9625 0.265,-0.2725 0.57875,-0.48625 0.94125,-0.64125 0.3625,-0.15375 0.75875,-0.23125 1.1875,-0.23125 0.30875,0 0.6075,0.0337 0.8975,0.1 0.29,0.0662 0.55875,0.15125 0.80625,0.25375 0.0538,0.80625 -0.1425,1.20875 -0.58875,1.20875 -0.0787,0 -0.15125,-0.009 -0.2175,-0.0275 -0.0675,-0.0175 -0.14,-0.0362 -0.2175,-0.0537 -0.0787,-0.0188 -0.16625,-0.0375 -0.26375,-0.055 -0.0962,-0.0188 -0.21125,-0.0275 -0.34375,-0.0275 -0.21125,0 -0.41125,0.0375 -0.5975,0.11375 -0.1875,0.0763 -0.35,0.185 -0.485,0.3275 -0.13625,0.14125 -0.24375,0.3125 -0.3225,0.5125 -0.0775,0.2 -0.1175,0.42375 -0.1175,0.6725 0,0.26 0.04,0.49375 0.1175,0.7 0.0788,0.205 0.18625,0.38 0.3225,0.52125 0.135,0.1425 0.2975,0.25125 0.485,0.3275 0.18625,0.0762 0.38625,0.11375 0.5975,0.11375 0.1325,0 0.25,-0.009 0.35375,-0.0275 0.1025,-0.0175 0.195,-0.0362 0.27625,-0.055 0.0813,-0.0175 0.15875,-0.0362 0.23125,-0.0538 0.0725,-0.0188 0.1475,-0.0275 0.22625,-0.0275 0.44125,0 0.6375,0.4025 0.58875,1.20875 -0.2475,0.1025 -0.52375,0.1875 -0.82875,0.25375 -0.305,0.0663 -0.61125,0.1 -0.92,0.1"
         style="fill:#ffffff;fill-opacity:1;fill-rule:nonzero;stroke:none"
         id="path11746"
         inkscape:connector-curvature="0" />
      <path
         d="m 319.38048,429.05148 c -0.12625,0 -0.2525,-0.006 -0.37625,-0.0188 -0.12375,-0.0113 -0.2275,-0.0263 -0.3125,-0.045 l 0,-5.26 c 0,-0.175 0.055,-0.325 0.16375,-0.44875 0.10875,-0.125 0.31375,-0.18625 0.615,-0.18625 0.1275,0 0.2525,0.006 0.37625,0.0175 0.12375,0.0125 0.22875,0.0275 0.3125,0.0462 l 0,5.25875 c 0,0.17625 -0.0537,0.32625 -0.1625,0.45 -0.10875,0.12375 -0.31375,0.18625 -0.61625,0.18625"
         style="fill:#ffffff;fill-opacity:1;fill-rule:nonzero;stroke:none"
         id="path11750"
         inkscape:connector-curvature="0" />
      <path
         d="m 321.85873,429.05148 c -0.12125,0 -0.23875,-0.006 -0.35375,-0.0188 -0.115,-0.0113 -0.21125,-0.0263 -0.29,-0.045 l 0,-5.78625 c 0.0913,-0.03 0.20875,-0.0562 0.35375,-0.0775 0.145,-0.0213 0.26875,-0.0312 0.37125,-0.0312 0.3325,0 0.57375,0.0425 0.725,0.12625 0.15125,0.085 0.2775,0.21 0.38125,0.3725 l 2.05625,3.24375 0,-3.16125 c 0,-0.0787 0.01,-0.1525 0.0325,-0.2225 0.02,-0.07 0.0563,-0.1325 0.1075,-0.18625 0.0512,-0.055 0.1225,-0.0975 0.21375,-0.1275 0.09,-0.03 0.205,-0.045 0.34375,-0.045 0.12125,0 0.2375,0.006 0.34875,0.0175 0.1125,0.0125 0.2075,0.025 0.28625,0.0362 l 0,5.79625 c -0.085,0.0425 -0.1875,0.0713 -0.30875,0.0863 -0.12125,0.015 -0.23875,0.0225 -0.3525,0.0225 -0.285,0 -0.49625,-0.0388 -0.635,-0.1175 -0.13875,-0.0788 -0.25375,-0.18875 -0.34375,-0.3275 l -2.2025,-3.525 0,3.37 c 0,0.17 -0.0513,0.3125 -0.15375,0.4275 -0.1025,0.115 -0.29625,0.1725 -0.58,0.1725"
         style="fill:#ffffff;fill-opacity:1;fill-rule:nonzero;stroke:none"
         id="path11754"
         inkscape:connector-curvature="0" />
      <path
         d="m 328.29561,429.01523 c -0.16875,0 -0.30625,-0.0187 -0.4125,-0.055 -0.105,-0.0363 -0.1875,-0.0863 -0.245,-0.15 -0.0562,-0.0625 -0.0962,-0.14 -0.1175,-0.23125 -0.0212,-0.0913 -0.0312,-0.1875 -0.0312,-0.29 l 0,-4.45125 c 0,-0.10375 0.01,-0.2 0.0312,-0.29125 0.0213,-0.0913 0.0613,-0.1675 0.1175,-0.23125 0.0575,-0.0637 0.14,-0.11375 0.245,-0.15 0.10625,-0.0362 0.24375,-0.055 0.4125,-0.055 l 2.99875,0 c 0.0125,0.0675 0.025,0.1575 0.0362,0.2725 0.0125,0.115 0.0188,0.23375 0.0188,0.355 0,0.25375 -0.0512,0.43375 -0.15375,0.54 -0.10375,0.10625 -0.2325,0.15875 -0.39,0.15875 l -1.84875,0 0,1.03625 2.13,0 c 0.0113,0.06 0.0238,0.14 0.0362,0.24 0.0113,0.1 0.0175,0.2075 0.0175,0.3225 0,0.2425 -0.0487,0.4075 -0.145,0.495 -0.0962,0.0888 -0.2175,0.1325 -0.3625,0.1325 l -1.67625,0 0,1.02625 2.42875,0 c 0.0125,0.0662 0.0238,0.15875 0.0362,0.2775 0.0113,0.1175 0.0175,0.23375 0.0175,0.34875 0,0.26125 -0.0513,0.4425 -0.15375,0.545 -0.1025,0.10375 -0.2325,0.155 -0.39,0.155 l -2.6,0"
         style="fill:#ffffff;fill-opacity:1;fill-rule:nonzero;stroke:none"
         id="path11758"
         inkscape:connector-curvature="0" />
      <path
         d="m 332.65136,429.05148 c -0.13875,0 -0.26125,-0.0138 -0.3675,-0.0413 -0.105,-0.0263 -0.1975,-0.0587 -0.27625,-0.095 l 0.55375,-5.66 c 0.115,-0.0475 0.26625,-0.0875 0.45375,-0.1175 0.18625,-0.03 0.3475,-0.045 0.48,-0.045 0.1875,0 0.34875,0.0112 0.48375,0.0362 0.13625,0.0238 0.2525,0.065 0.34875,0.1225 0.0975,0.0575 0.17375,0.1375 0.23125,0.24 0.0575,0.10375 0.10125,0.23125 0.13125,0.3825 l 0.23625,1.09875 c 0.0663,0.3025 0.13625,0.6375 0.2125,1.00375 0.075,0.36625 0.14375,0.74375 0.20375,1.13125 l 0.0362,0 c 0.0663,-0.3875 0.135,-0.76375 0.2075,-1.12625 0.0725,-0.36375 0.14875,-0.69625 0.22625,-1 l 0.29,-1.15375 c 0.0725,-0.28375 0.18875,-0.4775 0.34875,-0.58125 0.15875,-0.1025 0.40875,-0.15375 0.74625,-0.15375 0.16875,0 0.33875,0.0137 0.51125,0.04 0.17125,0.0275 0.315,0.0563 0.43,0.0863 l 0.52875,5.69625 c -0.0838,0.03 -0.185,0.0612 -0.30375,0.0913 -0.1175,0.03 -0.24625,0.045 -0.385,0.045 -0.1925,0 -0.35625,-0.0338 -0.48875,-0.1 -0.1325,-0.0663 -0.205,-0.19125 -0.2175,-0.3725 l -0.13625,-1.9625 c -0.03,-0.345 -0.0563,-0.70625 -0.0763,-1.085 -0.0213,-0.37875 -0.035,-0.7375 -0.0412,-1.07625 l -0.0188,0 c -0.0775,0.315 -0.1575,0.655 -0.24,1.02125 -0.0813,0.3675 -0.16375,0.705 -0.24875,1.01375 l -0.37125,1.54375 c -0.0913,0.36375 -0.3775,0.545 -0.86125,0.545 -0.12125,0 -0.245,-0.0125 -0.37125,-0.0362 -0.1275,-0.0238 -0.23625,-0.0512 -0.32625,-0.0813 l -0.4625,-1.92625 c -0.09,-0.3575 -0.175,-0.70875 -0.25375,-1.05375 -0.0788,-0.345 -0.15125,-0.69 -0.2175,-1.03625 l -0.0263,0 c -0.0187,0.485 -0.0425,0.92875 -0.0725,1.33125 -0.0312,0.4025 -0.0575,0.75 -0.0825,1.04 l -0.145,1.77125 c -0.0113,0.17625 -0.0775,0.2975 -0.19875,0.36375 -0.12125,0.0662 -0.2775,0.1 -0.47125,0.1"
         style="fill:#ffffff;fill-opacity:1;fill-rule:nonzero;stroke:none"
         id="path11762"
         inkscape:connector-curvature="0" />
      <path
         d="m 341.20123,426.5716 1.35625,0 -0.67625,-2.225 -0.68,2.225 m -1.41375,2.49875 c -0.115,0 -0.24625,-0.0113 -0.39375,-0.0325 -0.14875,-0.0213 -0.27,-0.05 -0.3675,-0.0863 l 1.88,-5.75875 c 0.16375,-0.0425 0.32875,-0.0738 0.49625,-0.0913 0.16625,-0.0188 0.31875,-0.0275 0.45875,-0.0275 0.2,0 0.37,0.015 0.5125,0.045 0.1425,0.0312 0.2625,0.0763 0.36,0.13625 0.0962,0.0612 0.17625,0.14125 0.24,0.24125 0.0638,0.1 0.11625,0.21625 0.15875,0.35 l 1.61125,5.09625 c -0.1025,0.0425 -0.22625,0.0737 -0.37125,0.095 -0.145,0.0213 -0.28625,0.0325 -0.425,0.0325 -0.1575,0 -0.31,-0.0263 -0.45875,-0.0775 -0.1475,-0.0512 -0.255,-0.16875 -0.32125,-0.35 l -0.30875,-0.93625 -1.97625,0 -0.26125,0.88125 c -0.0663,0.2125 -0.1775,0.34625 -0.335,0.4 -0.1575,0.055 -0.32375,0.0825 -0.49875,0.0825"
         style="fill:#ffffff;fill-opacity:1;fill-rule:nonzero;stroke:none"
         id="path11766"
         inkscape:connector-curvature="0" />
      <path
         d="m 299.82698,427.0001 c 0,0.82875 -0.54125,1.43375 -1.64125,1.55375 -0.7975,0.085 -1.95125,-0.0163 -2.49875,-0.0788 -0.02,-0.09 -0.0362,-0.20125 -0.0362,-0.28875 0,-0.725 0.3925,-0.89 0.75875,-0.89 0.38125,0 0.9825,0.0662 1.42875,0.0662 0.49125,0 0.64125,-0.16625 0.64125,-0.325 0,-0.20875 -0.19875,-0.295 -0.58,-0.3675 l -1.04375,-0.20125 c -0.8675,-0.16625 -1.33125,-0.76625 -1.33125,-1.40375 0,-0.775 0.54875,-1.42375 1.6275,-1.54375 0.815,-0.0875 1.8075,0.0125 2.3525,0.0788 0.02,0.0937 0.03,0.1825 0.03,0.27875 0,0.7225 -0.38125,0.87875 -0.74875,0.87875 -0.28125,0 -0.72,-0.0525 -1.21875,-0.0525 -0.50875,0 -0.72,0.14 -0.72,0.3125 0,0.18 0.20125,0.255 0.52,0.31125 l 0.99625,0.185 c 1.025,0.18875 1.46375,0.77 1.46375,1.48625 m 1.79,0.88875 c 0,0.445 -0.175,0.70125 -1.04125,0.70125 -0.115,0 -0.21625,-0.009 -0.3125,-0.0225 l 0,-5.89375 c 0,-0.4475 0.1525,-0.915 1.02875,-0.915 0.11,0 0.22125,0.0113 0.325,0.0337 l 0,6.09625 m 3.545,2.28 c 0.11375,0.0587 0.3475,0.12875 0.64125,0.1375 0.5025,0.01 0.7775,-0.1825 0.98125,-0.63375 l 2.7025,-6.0275 c -0.11125,-0.06 -0.3575,-0.12625 -0.56125,-0.13125 -0.34625,-0.006 -0.8125,0.065 -1.11125,0.77625 l -0.875,2.065 -1.71625,-2.795 c -0.11,-0.0337 -0.38,-0.0825 -0.57875,-0.0825 -0.605,0 -0.94375,0.22375 -1.295,0.60375 l -1.66875,1.825 1.3425,2.1125 c 0.2475,0.385 0.575,0.58125 1.105,0.58125 0.3475,0 0.63625,-0.0788 0.77,-0.14375 l -1.61625,-2.43625 1.145,-1.2125 1.87875,2.9475 -1.14375,2.41375"
         style="fill:#a90e3a;fill-opacity:1;fill-rule:nonzero;stroke:none"
         id="path11770"
         inkscape:connector-curvature="0" />
      <path
         d="m 293.74623,422.4551 -0.002,6.87 c 0,0.4275 0.0237,0.71375 0.0887,0.71375 l 0,0 c 0.0238,-0.13375 0.0425,-0.79375 0.7675,-1.39625 l 0,0 c 0.27875,-0.215 0.63375,-0.4225 1.05875,-0.6225 l 0,0 c 0.0563,-0.58375 0.41375,-0.72375 0.75125,-0.72375 l 0,0 c 0.2725,0 0.65625,0.0337 1.01625,0.0525 l 0,0 c 0.3325,-0.10375 0.6825,-0.205 1.0525,-0.30375 l 0,0 c 0.001,-0.002 0.001,-0.005 0.001,-0.007 l 0,0 c 0,-0.20875 -0.2,-0.295 -0.58,-0.3675 l 0,0 -1.04375,-0.20125 c -0.86875,-0.16625 -1.3325,-0.76625 -1.3325,-1.40375 l 0,0 c 0,-0.775 0.54875,-1.42375 1.6275,-1.54375 l 0,0 c 0.23,-0.0238 0.47375,-0.0337 0.71625,-0.0337 l 0,0 c 0.6225,0 1.245,0.065 1.63625,0.1125 l 0,0 c 0.0213,0.0937 0.0312,0.18125 0.0312,0.28 l 0,0 c 0,0.72125 -0.38125,0.87875 -0.74875,0.87875 l 0,0 c -0.2825,0 -0.72,-0.0537 -1.21875,-0.0537 l 0,0 c -0.51,0 -0.72,0.14125 -0.72,0.3125 l 0,0 c 0,0.18 0.20125,0.255 0.51875,0.31125 l 0,0 0.9975,0.18375 c 0.88875,0.165 1.33625,0.62375 1.44,1.21 l 0,0 c 0.15,-0.0337 0.305,-0.0675 0.46,-0.10125 l 0,0 0,-3.9475 c 0,-0.4475 0.15125,-0.915 1.02875,-0.915 l 0,0 c 0.11,0 0.22125,0.0113 0.325,0.0337 l 0,0 0,4.56125 c 0.1025,-0.02 0.20625,-0.0388 0.31125,-0.0575 l 0,0 -0.2475,-0.39 1.66875,-1.82375 c 0.35,-0.3825 0.68875,-0.605 1.295,-0.605 l 0,0 c 0.19875,0 0.46875,0.0487 0.57875,0.0825 l 0,0 1.27125,2.07 c 0.26,-0.03 0.52375,-0.0613 0.79125,-0.09 l 0,0 0.52875,-1.25 c 0.2875,-0.68625 0.73125,-0.77625 1.07375,-0.77625 l 0,0 c 0.0125,0 0.025,0 0.0375,0 l 0,0 c 0.2025,0.005 0.44875,0.0725 0.56125,0.13125 l 0,0 -0.78375,1.7475 c 0.90375,-0.0875 1.83125,-0.1675 2.77375,-0.2375 l 0,0 0,-3.64125 -16.03875,0 c -0.30375,0 -0.5325,-0.1225 -0.76125,-0.1225 l 0,0 c -0.6725,0 -0.93125,0.26875 -0.93125,1.06375 m 9.53625,3.565 0.03,0.0437 c 0.56625,-0.0888 1.1525,-0.1725 1.75375,-0.25375 l 0,0 -0.63875,-1.0025 -1.145,1.2125 z"
         style="fill:url(#linearGradient11782);stroke:none"
         id="path11800"
         inkscape:connector-curvature="0" />
      <path
         d="m 344.96373,421.51385 -33.48625,0 0,3.64125 c 0.64875,-0.0487 1.3025,-0.0925 1.96375,-0.1325 l 0,0 c 0.0187,-0.0513 0.0375,-0.1 0.0575,-0.15 l 0,0 c 0.15125,-0.36875 0.36,-0.69 0.62625,-0.9625 l 0,0 c 0.265,-0.2725 0.57875,-0.48625 0.94125,-0.64 l 0,0 c 0.3625,-0.155 0.75875,-0.2325 1.1875,-0.2325 l 0,0 c 0.3075,0 0.6075,0.0337 0.8975,0.10125 l 0,0 c 0.28875,0.0663 0.5575,0.15 0.80625,0.25375 l 0,0 c 0.0538,0.805 -0.1425,1.2075 -0.58875,1.2075 l 0,0 c -0.08,0 -0.15125,-0.009 -0.2175,-0.0275 l 0,0 c -0.0675,-0.0175 -0.14,-0.0362 -0.21875,-0.0538 l 0,0 c -0.0775,-0.0188 -0.165,-0.0362 -0.26125,-0.0537 l 0,0 c -0.0975,-0.02 -0.2125,-0.0288 -0.345,-0.0288 l 0,0 c -0.21125,0 -0.41,0.0387 -0.59875,0.11375 l 0,0 c -0.18625,0.0763 -0.34875,0.18625 -0.485,0.3275 l 0,0 c -0.015,0.0163 -0.0312,0.0338 -0.045,0.05 l 0,0 c 1.15375,-0.055 2.3225,-0.0962 3.495,-0.12375 l 0,0 0,-1.07625 c 0,-0.175 0.0538,-0.325 0.1625,-0.44875 l 0,0 c 0.10875,-0.12375 0.31375,-0.18625 0.61625,-0.18625 l 0,0 c 0.12625,0 0.25125,0.006 0.37625,0.0175 l 0,0 c 0.12375,0.0125 0.2275,0.0288 0.31125,0.0462 l 0,0 0,1.6175 c 0.35375,-0.004 0.70375,-0.007 1.0575,-0.0112 l 0,0 0,-1.56125 c 0.0888,-0.03 0.2075,-0.0562 0.3525,-0.0763 l 0,0 c 0.145,-0.0212 0.26875,-0.0325 0.37125,-0.0325 l 0,0 c 0.3325,0 0.57375,0.0425 0.725,0.12625 l 0,0 c 0.15125,0.0863 0.2775,0.21 0.38125,0.3725 l 0,0 0.74625,1.17625 c 0.43875,0.005 0.875,0.0125 1.31,0.0213 l 0,0 0,-1.115 c 0,-0.0788 0.01,-0.1525 0.0312,-0.2225 l 0,0 c 0.0213,-0.07 0.0575,-0.1325 0.11,-0.18625 l 0,0 c 0.05,-0.055 0.1225,-0.0962 0.2125,-0.12625 l 0,0 c 0.0913,-0.0312 0.205,-0.0462 0.34375,-0.0462 l 0,0 c 0.12125,0 0.2375,0.006 0.34875,0.0175 l 0,0 c 0.1125,0.0125 0.2075,0.025 0.28625,0.0375 l 0,0 0,1.675 c 0.35125,0.01 0.705,0.0225 1.05375,0.0375 l 0,0 0,-1.02375 c 0,-0.10125 0.0113,-0.19875 0.0325,-0.29 l 0,0 c 0.02,-0.0913 0.06,-0.1675 0.1175,-0.23125 l 0,0 c 0.0562,-0.0637 0.13875,-0.11375 0.245,-0.15 l 0,0 c 0.105,-0.0362 0.2425,-0.055 0.41125,-0.055 l 0,0 3,0 c 0.0125,0.0675 0.0238,0.1575 0.0362,0.27375 l 0,0 c 0.0113,0.115 0.0188,0.2325 0.0188,0.35375 l 0,0 c 0,0.255 -0.0525,0.435 -0.155,0.54 l 0,0 c -0.1025,0.10625 -0.2325,0.15875 -0.39,0.15875 l 0,0 -1.84875,0 0,0.49 c 1.17,0.06 2.31125,0.13625 3.41875,0.2325 l 0,0 0.1875,-1.9025 c 0.115,-0.0487 0.265,-0.0875 0.4525,-0.1175 l 0,0 c 0.18625,-0.0312 0.3475,-0.0462 0.48,-0.0462 l 0,0 c 0.18625,0 0.34875,0.0125 0.48375,0.0362 l 0,0 c 0.13625,0.0238 0.2525,0.065 0.35,0.1225 l 0,0 c 0.095,0.0575 0.17375,0.1375 0.23,0.24125 l 0,0 c 0.0575,0.1025 0.10125,0.23 0.1325,0.38125 l 0,0 0.235,1.09875 c 0.0312,0.145 0.0638,0.29625 0.0975,0.45625 l 0,0 c 0.2225,0.0263 0.44375,0.0537 0.6625,0.0825 l 0,0 c 0.0412,-0.18625 0.0837,-0.3625 0.12625,-0.52875 l 0,0 0.29,-1.155 c 0.0725,-0.285 0.18875,-0.4775 0.3475,-0.58 l 0,0 c 0.16,-0.10375 0.41,-0.155 0.7475,-0.155 l 0,0 c 0.16875,0 0.34,0.0125 0.51,0.0412 l 0,0 c 0.1725,0.0263 0.315,0.055 0.43,0.085 l 0,0 0.2525,2.7075 c 0.52875,0.0937 1.03625,0.195 1.525,0.30375 l 0,0 0.99125,-3.0375 c 0.165,-0.0438 0.32875,-0.0738 0.495,-0.0913 l 0,0 c 0.16625,-0.0188 0.32125,-0.0275 0.45875,-0.0275 l 0,0 c 0.20125,0 0.37125,0.0163 0.515,0.045 l 0,0 c 0.14125,0.03 0.26,0.0763 0.35875,0.1375 l 0,0 c 0.0962,0.06 0.17625,0.14125 0.24,0.24125 l 0,0 c 0.0638,0.0987 0.11625,0.215 0.15875,0.34875 l 0,0 1.21,3.825 c 0.595,0.2975 1.085,0.62125 1.45875,0.97125 l 0,0 c 0.65625,0.64875 0.745,1.2625 0.76875,1.39625 l 0,0 c 0.0638,0 0.0888,-0.28625 0.0888,-0.71375 l 0,0 -0.004,-6.87 c 0,-0.795 -0.25875,-1.06375 -0.93125,-1.06375 l 0,0 c -0.22875,0 -0.45625,0.1225 -0.76,0.1225 m -3.75375,5.03 c 0.035,0.009 0.0688,0.0175 0.10375,0.0275 l 0,0 1.24375,0 -0.67625,-2.225 -0.67125,2.1975 z m -7.58875,-2.09875 c -0.0113,0.29125 -0.0238,0.565 -0.04,0.825 l 0,0 c 0.0813,0.007 0.1625,0.0175 0.2425,0.025 l 0,0 c -0.0638,-0.2825 -0.12125,-0.56625 -0.17625,-0.85 l 0,0 -0.0262,0 z m 3.37875,0.009 c -0.0788,0.31625 -0.15875,0.65625 -0.23875,1.02375 l 0,0 c -0.0138,0.0588 -0.0275,0.1175 -0.0412,0.17625 l 0,0 c 0.1175,0.0163 0.23375,0.035 0.34875,0.0513 l 0,0 c -0.002,-0.0575 -0.006,-0.115 -0.009,-0.17375 l 0,0 c -0.0213,-0.37875 -0.035,-0.7375 -0.0412,-1.0775 l 0,0 -0.0188,0 z"
         style="fill:url(#linearGradient11812);stroke:none"
         id="path11824"
         inkscape:connector-curvature="0" />
      <path
         d="m 313.44223,425.02273 c 0.0175,-0.05 0.0362,-0.1 0.0562,-0.15 0.15125,-0.36875 0.36,-0.69 0.62625,-0.9625 0.265,-0.2725 0.57875,-0.48625 0.94125,-0.64125 0.3625,-0.15375 0.75875,-0.23125 1.1875,-0.23125 0.30875,0 0.6075,0.0337 0.8975,0.1 0.29,0.0663 0.55875,0.15125 0.80625,0.25375 0.0538,0.80625 -0.1425,1.20875 -0.58875,1.20875 -0.0787,0 -0.15125,-0.009 -0.2175,-0.0275 -0.0675,-0.0175 -0.14,-0.0362 -0.2175,-0.0537 -0.0787,-0.0188 -0.16625,-0.0362 -0.26375,-0.055 -0.0962,-0.0188 -0.21125,-0.0275 -0.34375,-0.0275 -0.21125,0 -0.41125,0.0387 -0.5975,0.11375 -0.1875,0.0763 -0.35,0.185 -0.485,0.3275 -0.0162,0.0163 -0.0312,0.0325 -0.0462,0.05 -0.58875,0.0288 -1.175,0.06 -1.755,0.095"
         style="fill:#ffffff;fill-opacity:1;fill-rule:nonzero;stroke:none"
         id="path11836"
         inkscape:connector-curvature="0" />
      <path
         d="m 318.69173,424.80273 0,-1.075 c 0,-0.175 0.055,-0.325 0.16375,-0.44875 0.10875,-0.125 0.31375,-0.18625 0.615,-0.18625 0.1275,0 0.2525,0.006 0.37625,0.0175 0.12375,0.0125 0.22875,0.0275 0.3125,0.0462 l 0,1.6175 c -0.48875,0.007 -0.97875,0.0175 -1.4675,0.0288"
         style="fill:#ffffff;fill-opacity:1;fill-rule:nonzero;stroke:none"
         id="path11840"
         inkscape:connector-curvature="0" />
      <path
         d="m 326.43461,424.82223 c -0.4425,-0.0138 -0.885,-0.025 -1.3325,-0.0337 l 0,-1.115 c 0,-0.0787 0.0113,-0.1525 0.0325,-0.2225 0.0213,-0.0688 0.0575,-0.13125 0.10875,-0.18625 0.0512,-0.0537 0.1225,-0.0962 0.2125,-0.1275 0.0913,-0.03 0.205,-0.045 0.345,-0.045 0.12,0 0.23625,0.006 0.34875,0.0188 0.11125,0.0113 0.20625,0.0238 0.285,0.0362 l 0,1.675 m -2.64375,-0.055 c -0.51,-0.005 -1.02375,-0.007 -1.53625,-0.007 -0.345,0 -0.69375,0.001 -1.03875,0.004 l 0,-1.5625 c 0.09,-0.03 0.2075,-0.055 0.3525,-0.0763 0.145,-0.0213 0.26875,-0.0325 0.37125,-0.0325 0.3325,0 0.575,0.0425 0.725,0.1275 0.15125,0.085 0.27875,0.20875 0.38125,0.3725 l 0.745,1.175"
         style="fill:#ffffff;fill-opacity:1;fill-rule:nonzero;stroke:none"
         id="path11844"
         inkscape:connector-curvature="0" />
      <path
         d="m 328.95711,424.9256 c -0.485,-0.025 -0.975,-0.0475 -1.4675,-0.0662 l 0,-1.0225 c 0,-0.1025 0.01,-0.2 0.0312,-0.29 0.0212,-0.0913 0.06,-0.16875 0.1175,-0.2325 0.0575,-0.0625 0.13875,-0.1125 0.245,-0.14875 0.105,-0.0375 0.2425,-0.055 0.4125,-0.055 l 2.99875,0 c 0.0125,0.0663 0.0238,0.1575 0.0362,0.2725 0.0125,0.115 0.0188,0.23375 0.0188,0.35375 0,0.255 -0.0512,0.435 -0.155,0.54125 -0.1025,0.10625 -0.2325,0.15875 -0.38875,0.15875 l -1.84875,0 0,0.48875"
         style="fill:#ffffff;fill-opacity:1;fill-rule:nonzero;stroke:none"
         id="path11848"
         inkscape:connector-curvature="0" />
      <path
         d="m 338.38998,425.92547 c -0.42875,-0.0775 -0.86875,-0.15 -1.32,-0.22 -0.004,-0.0575 -0.007,-0.115 -0.01,-0.17375 -0.0213,-0.37875 -0.035,-0.7375 -0.0412,-1.07625 l -0.0175,0 c -0.0788,0.315 -0.15875,0.655 -0.24125,1.02125 -0.0125,0.06 -0.0263,0.11875 -0.04,0.17625 -0.3375,-0.0487 -0.68375,-0.0975 -1.03375,-0.1425 0.0412,-0.185 0.0837,-0.36125 0.12625,-0.52875 l 0.29,-1.15375 c 0.0725,-0.285 0.18875,-0.47875 0.34875,-0.58125 0.15875,-0.1025 0.40875,-0.155 0.74625,-0.155 0.16875,0 0.33875,0.0138 0.51125,0.0412 0.17125,0.0275 0.315,0.0562 0.43,0.0863 l 0.25125,2.70625 m -3.36625,-0.4975 c -0.39375,-0.0463 -0.79375,-0.0913 -1.2,-0.1325 -0.0625,-0.28375 -0.12125,-0.56625 -0.17625,-0.85 l -0.0262,0 c -0.0113,0.29 -0.0238,0.565 -0.0388,0.825 -0.3975,-0.04 -0.8,-0.0775 -1.20625,-0.1125 l 0.18625,-1.9025 c 0.11375,-0.0475 0.265,-0.0875 0.4525,-0.1175 0.1875,-0.03 0.3475,-0.0462 0.48,-0.0462 0.1875,0 0.34875,0.0125 0.48375,0.0375 0.13625,0.0238 0.2525,0.065 0.35,0.1225 0.0962,0.0575 0.1725,0.1375 0.23,0.24 0.0575,0.10375 0.10125,0.23 0.13125,0.38125 l 0.23625,1.1 c 0.0312,0.145 0.0638,0.29625 0.0975,0.455"
         style="fill:#ffffff;fill-opacity:1;fill-rule:nonzero;stroke:none"
         id="path11852"
         inkscape:connector-curvature="0" />
      <path
         d="m 344.34223,427.67073 c -0.82375,-0.41375 -1.845,-0.77875 -3.02875,-1.09875 l 1.24375,0 -0.67625,-2.22625 -0.67125,2.1975 c -0.4125,-0.11 -0.84625,-0.21375 -1.295,-0.31375 l 0.9925,-3.0375 c 0.1625,-0.0425 0.32875,-0.0725 0.495,-0.09 0.16625,-0.0188 0.32,-0.0275 0.45875,-0.0275 0.2,0 0.37125,0.015 0.51375,0.045 0.14125,0.03 0.26125,0.0763 0.35875,0.13625 0.0962,0.0612 0.17625,0.14125 0.24,0.24125 0.0638,0.1 0.1175,0.21625 0.16,0.34875 l 1.20875,3.825"
         style="fill:#ffffff;fill-opacity:1;fill-rule:nonzero;stroke:none"
         id="path11856"
         inkscape:connector-curvature="0" />
      <path
         d="m 295.65886,428.01998 c 0.0562,-0.58375 0.41375,-0.72375 0.75125,-0.72375 0.2725,0 0.65625,0.0337 1.01625,0.0538 -0.67625,0.2125 -1.27,0.43625 -1.7675,0.67 m 2.82,-0.97375 c 0,-0.004 0,-0.006 0,-0.009 0,-0.2075 -0.19875,-0.295 -0.58,-0.3675 l -1.0425,-0.20125 c -0.86875,-0.16625 -1.33125,-0.76625 -1.33125,-1.40375 0,-0.775 0.5475,-1.42375 1.62625,-1.5425 0.23,-0.025 0.4725,-0.035 0.71625,-0.035 0.6225,0 1.245,0.065 1.63625,0.1125 0.02,0.0937 0.0312,0.1825 0.0312,0.28 0,0.7225 -0.38125,0.8775 -0.74875,0.8775 -0.2825,0 -0.72,-0.0525 -1.22,-0.0525 -0.50875,0 -0.72,0.14125 -0.72,0.3125 0,0.18 0.20125,0.255 0.52,0.31125 l 0.9975,0.185 c 0.8875,0.16375 1.33625,0.6225 1.44,1.20875 -0.465,0.10375 -0.90625,0.2125 -1.325,0.32375 m 1.785,-0.425 0,-3.9475 c 0,-0.4475 0.15125,-0.915 1.0275,-0.915 0.11125,0 0.2225,0.0125 0.325,0.0337 l 0,4.56125 c -0.4675,0.0863 -0.91875,0.175 -1.3525,0.2675 m 1.665,-0.325 -0.2475,-0.39 1.6675,-1.82375 c 0.35125,-0.38125 0.69125,-0.605 1.295,-0.605 0.19875,0 0.46875,0.0487 0.58,0.0825 l 1.27125,2.07 c -0.48625,0.0575 -0.96125,0.1175 -1.42875,0.18 l -0.63875,-1.0025 -1.145,1.2125 0.0288,0.045 c -0.47375,0.0738 -0.935,0.15125 -1.3825,0.23125 m 5.35625,-0.75625 0.53,-1.25 c 0.2875,-0.68625 0.73125,-0.77625 1.07375,-0.77625 0.0125,0 0.025,0 0.0375,0 0.2025,0.005 0.44875,0.0712 0.56125,0.13125 l -0.78375,1.7475 c -0.47875,0.0463 -0.9525,0.0962 -1.41875,0.1475"
         style="fill:#c9747a;fill-opacity:1;fill-rule:nonzero;stroke:none"
         id="path11860"
         inkscape:connector-curvature="0" />
    </g>
    <g
       id="g4372"
       style="fill:#ffffff;fill-opacity:1">
      <path
         d="m 315.16098,437.28473 c -0.06,0 -0.11875,-0.002 -0.1775,-0.009 -0.0575,-0.005 -0.1025,-0.0113 -0.1325,-0.0188 l 0,-3.41125 c 0,-0.075 0.0238,-0.1375 0.0713,-0.18875 0.0462,-0.05 0.13,-0.075 0.25,-0.075 0.06,0 0.11875,0.002 0.1775,0.007 0.0575,0.006 0.1025,0.0125 0.1325,0.02 l 0,1.53625 1.71,0 0,-1.3 c 0,-0.075 0.0238,-0.1375 0.0713,-0.18875 0.0462,-0.05 0.13,-0.075 0.25,-0.075 0.06,0 0.12,0.002 0.18,0.007 0.06,0.006 0.105,0.0125 0.135,0.02 l 0,3.41 c 0,0.0763 -0.0238,0.13875 -0.07,0.18875 -0.0475,0.0512 -0.13125,0.0763 -0.25125,0.0763 -0.06,0 -0.12,-0.002 -0.18,-0.009 -0.06,-0.005 -0.105,-0.0113 -0.135,-0.0188 l 0,-1.565 -1.71,0 0,1.3275 c 0,0.0763 -0.0238,0.13875 -0.0713,0.18875 -0.0462,0.0512 -0.13,0.0763 -0.25,0.0763"
         style="fill:#ffffff;fill-opacity:1;fill-rule:nonzero;stroke:none"
         id="path11864"
         inkscape:connector-curvature="0" />
      <path
         d="m 318.88635,437.28473 c -0.06,0 -0.11875,-0.002 -0.1775,-0.009 -0.0575,-0.005 -0.1025,-0.0113 -0.1325,-0.0188 l 0,-3.41125 c 0,-0.075 0.0238,-0.1375 0.0713,-0.18875 0.0462,-0.05 0.13,-0.075 0.25,-0.075 0.06,0 0.11875,0.002 0.1775,0.007 0.0575,0.006 0.1025,0.0125 0.1325,0.02 l 0,3.41 c 0,0.0763 -0.0238,0.13875 -0.0713,0.18875 -0.0462,0.0512 -0.13,0.0763 -0.25,0.0763"
         style="fill:#ffffff;fill-opacity:1;fill-rule:nonzero;stroke:none"
         id="path11868"
         inkscape:connector-curvature="0" />
      <path
         d="m 321.05286,437.28473 c -0.06,0 -0.11875,-0.002 -0.1775,-0.009 -0.0575,-0.005 -0.1025,-0.0113 -0.1325,-0.0188 l 0,-3.09 -1.125,0 c -0.007,-0.03 -0.0125,-0.07 -0.0163,-0.12125 -0.005,-0.05 -0.006,-0.10375 -0.006,-0.16 0,-0.12 0.0237,-0.19875 0.0737,-0.23625 0.0475,-0.0375 0.11,-0.0562 0.185,-0.0562 l 2.63375,0 c 0.015,0.0562 0.0225,0.1425 0.0225,0.25875 0,0.21 -0.0863,0.315 -0.25875,0.315 l -0.8775,0 0,2.8525 c 0,0.0763 -0.0237,0.13875 -0.0712,0.18875 -0.0462,0.0512 -0.13,0.0763 -0.25,0.0763"
         style="fill:#ffffff;fill-opacity:1;fill-rule:nonzero;stroke:none"
         id="path11872"
         inkscape:connector-curvature="0" />
      <path
         d="m 323.99023,437.30148 c -0.18375,0 -0.38375,-0.0188 -0.59875,-0.0563 -0.21625,-0.0375 -0.43625,-0.0937 -0.66125,-0.16875 0,-0.015 -0.001,-0.0288 -0.004,-0.04 -0.001,-0.0112 -0.002,-0.0238 -0.002,-0.0387 0,-0.12375 0.0225,-0.22375 0.0675,-0.30125 0.045,-0.0763 0.11875,-0.115 0.22,-0.115 0.0487,0 0.10625,0.007 0.17375,0.0225 0.0675,0.015 0.14375,0.0312 0.22875,0.05 0.0838,0.0188 0.1775,0.0362 0.28125,0.0512 0.1025,0.015 0.21625,0.0225 0.34,0.0225 0.25875,0 0.44375,-0.0475 0.55375,-0.14125 0.11125,-0.0937 0.16625,-0.21125 0.16625,-0.35375 0,-0.0713 -0.0125,-0.1325 -0.0387,-0.18375 -0.0263,-0.05 -0.0637,-0.0937 -0.1125,-0.12875 -0.0487,-0.0362 -0.10875,-0.0663 -0.1775,-0.0937 -0.07,-0.025 -0.14875,-0.0512 -0.23875,-0.0788 l -0.4675,-0.12875 c -0.3675,-0.10125 -0.62375,-0.2425 -0.76875,-0.4225 -0.14375,-0.18 -0.21625,-0.38625 -0.21625,-0.61875 0,-0.11625 0.0213,-0.235 0.0625,-0.3575 0.0412,-0.12125 0.1125,-0.23125 0.21375,-0.32875 0.10125,-0.0975 0.23625,-0.17875 0.405,-0.2425 0.16875,-0.0637 0.38,-0.095 0.635,-0.095 0.1725,0 0.3575,0.0162 0.555,0.05 0.19625,0.0337 0.4025,0.0888 0.61625,0.16375 l 0,0.0788 c 0,0.1275 -0.0213,0.22625 -0.065,0.2975 -0.0425,0.0713 -0.11375,0.1075 -0.21125,0.1075 -0.0487,0 -0.10125,-0.006 -0.16,-0.02 -0.0587,-0.0125 -0.12375,-0.0263 -0.1975,-0.0387 -0.0725,-0.0137 -0.15625,-0.0263 -0.25,-0.04 -0.0937,-0.0125 -0.19875,-0.02 -0.315,-0.02 -0.13125,0 -0.24,0.0125 -0.32625,0.0375 -0.0863,0.0238 -0.15625,0.0562 -0.20875,0.0975 -0.0525,0.0425 -0.09,0.0875 -0.1125,0.13875 -0.0225,0.05 -0.0337,0.1025 -0.0337,0.155 0,0.12375 0.0425,0.2175 0.1275,0.28125 0.0838,0.0637 0.235,0.125 0.4525,0.185 l 0.495,0.14125 c 0.65625,0.1725 0.985,0.51375 0.985,1.02375 0,0.165 -0.0275,0.315 -0.0813,0.45 -0.055,0.135 -0.14,0.25125 -0.25625,0.34875 -0.11625,0.0987 -0.2625,0.17375 -0.43875,0.22875 -0.17625,0.0537 -0.38875,0.0813 -0.63625,0.0813"
         style="fill:#ffffff;fill-opacity:1;fill-rule:nonzero;stroke:none"
         id="path11876"
         inkscape:connector-curvature="0" />
    </g>
  </g>
</svg>
