<?xml version="1.0" encoding="UTF-8" standalone="no"?>
<svg
   xmlns:dc="http://purl.org/dc/elements/1.1/"
   xmlns:cc="http://creativecommons.org/ns#"
   xmlns:rdf="http://www.w3.org/1999/02/22-rdf-syntax-ns#"
   xmlns:svg="http://www.w3.org/2000/svg"
   xmlns="http://www.w3.org/2000/svg"
   xmlns:sodipodi="http://sodipodi.sourceforge.net/DTD/sodipodi-0.dtd"
   xmlns:inkscape="http://www.inkscape.org/namespaces/inkscape"
   height="99.476997"
   width="740.04816"
   version="1.1"
   viewBox="0 0 195.80441 26.320057"
   id="svg68"
   sodipodi:docname="Sky Atlantic VIP.svg"
   inkscape:version="0.92.0 r15299">
  <metadata
     id="metadata72">
    <rdf:RDF>
      <cc:Work
         rdf:about="">
        <dc:format>image/svg+xml</dc:format>
        <dc:type
           rdf:resource="http://purl.org/dc/dcmitype/StillImage" />
        <dc:title></dc:title>
      </cc:Work>
    </rdf:RDF>
  </metadata>
  <sodipodi:namedview
     pagecolor="#ffffff"
     bordercolor="#666666"
     borderopacity="1"
     objecttolerance="10"
     gridtolerance="10"
     guidetolerance="10"
     inkscape:pageopacity="0"
     inkscape:pageshadow="2"
     inkscape:window-width="1920"
     inkscape:window-height="1017"
     id="namedview70"
     showgrid="false"
     fit-margin-top="0"
     fit-margin-left="0"
     fit-margin-right="0"
     fit-margin-bottom="0"
     inkscape:zoom="0.94666667"
     inkscape:cx="404.12442"
     inkscape:cy="71.750125"
     inkscape:window-x="-8"
     inkscape:window-y="-8"
     inkscape:window-maximized="1"
     inkscape:current-layer="svg68" />
  <defs
     id="defs36">
    <linearGradient
       id="a"
       gradientUnits="userSpaceOnUse"
       gradientTransform="matrix(0,25.178055,18.12104,0,94.854499,0.650001)"
       x1="0"
       x2="1"
       y1="0"
       y2="0">
      <stop
         stop-color="#b4b2b1"
         offset="0"
         id="stop2" />
      <stop
         stop-color="#e8e8e9"
         offset=".020448"
         id="stop4" />
      <stop
         stop-color="#f9f9fa"
         offset=".052404"
         id="stop6" />
      <stop
         stop-color="#f5f5f5"
         offset=".48766"
         id="stop8" />
      <stop
         stop-color="#f9f9fa"
         offset=".89549"
         id="stop10" />
      <stop
         stop-color="#f4f3f4"
         offset=".92944"
         id="stop12" />
      <stop
         stop-color="#e8e8e9"
         offset=".96426"
         id="stop14" />
      <stop
         stop-color="#b4b2b1"
         offset="1"
         id="stop16" />
    </linearGradient>
    <linearGradient
       id="b"
       gradientUnits="userSpaceOnUse"
       gradientTransform="matrix(0,25.178055,25.178055,0,168.70567,0.650001)"
       x1="0"
       x2="1"
       y1="0"
       y2="0">
      <stop
         stop-color="#888685"
         offset="0"
         id="stop19" />
      <stop
         stop-color="#d9d9da"
         offset=".020448"
         id="stop21" />
      <stop
         stop-color="#f5f5f6"
         offset=".052404"
         id="stop23" />
      <stop
         stop-color="#eeefef"
         offset=".48766"
         id="stop25" />
      <stop
         stop-color="#f5f5f6"
         offset=".89549"
         id="stop27" />
      <stop
         stop-color="#ebebec"
         offset=".92944"
         id="stop29" />
      <stop
         stop-color="#d9d9da"
         offset=".96426"
         id="stop31" />
      <stop
         stop-color="#888685"
         offset="1"
         id="stop33" />
    </linearGradient>
    <clipPath
       clipPathUnits="userSpaceOnUse"
       id="clipPath766">
      <path
         d="m 219.951,441.8 h 95.914 v -16.924 h -95.914 z"
         id="path768"
         inkscape:connector-curvature="0" />
    </clipPath>
    <clipPath
       clipPathUnits="userSpaceOnUse"
       id="clipPath770">
      <path
         d="m 219.951,424.876 h 95.914 V 441.8 h -95.914 z"
         id="path772"
         inkscape:connector-curvature="0" />
    </clipPath>
    <clipPath
       clipPathUnits="userSpaceOnUse"
       id="clipPath766-2">
      <path
         d="m 219.951,441.8 h 95.914 v -16.924 h -95.914 z"
         id="path768-3"
         inkscape:connector-curvature="0" />
    </clipPath>
    <clipPath
       clipPathUnits="userSpaceOnUse"
       id="clipPath770-2">
      <path
         d="m 219.951,424.876 h 95.914 V 441.8 h -95.914 z"
         id="path772-4"
         inkscape:connector-curvature="0" />
    </clipPath>
  </defs>
  <path
     id="path38"
     d="m 3.560296,0.870002 c -1.9110041,0 -2.58900559,1.150002 -2.58900559,3.070006 v 18.620039 c 0,1.92001 0.67800149,3.07001 2.58900559,3.07001 H 189.75543 V 0.870002 Z"
     style="fill:url(#b);stroke-width:1.00000215"
     inkscape:connector-curvature="0"
     sodipodi:nodetypes="ssssccs" />
  <path
     id="path40"
     d="m 131.91358,0.870002 v 0.01 H 46.548392 v 24.760055 c 36.151079,0.02 109.577988,-0.03 145.635068,-0.01 1.95101,0 2.64501,-1.15001 2.64501,-3.07001 V 3.940008 c 0,-1.920004 -0.694,-3.070006 -2.64501,-3.070006 z"
     inkscape:connector-curvature="0"
     style="fill:#003761;stroke-width:1.00000215"
     sodipodi:nodetypes="cccccsssc" />
  <path
     id="path42"
     d="m 56.130412,14.560027 h 3.472008 l -1.732004,-5.68001 -1.740004,5.68001 m -3.621007,6.38002 c -0.293,0 -0.630001,-0.02 -1.008003,-0.08 -0.379001,-0.05 -0.694,-0.13 -0.940003,-0.22 L 55.376411,5.930013 c 0.419,-0.11 0.842002,-0.190001 1.269002,-0.230001 0.425002,-0.05 0.817002,-0.07 1.173003,-0.07 0.513002,0 0.951002,0.04 1.316004,0.11 0.364,0.08 0.671002,0.200001 0.918001,0.350001 0.249,0.16 0.455001,0.360001 0.617001,0.620004 0.164001,0.25 0.298001,0.55 0.408001,0.89 l 4.12801,13.02003 c -0.263002,0.11 -0.581001,0.19 -0.951003,0.24 -0.373001,0.06 -0.738,0.08 -1.091001,0.08 -0.403003,0 -0.795003,-0.06 -1.173003,-0.19 -0.379001,-0.14 -0.655002,-0.43 -0.825002,-0.9 l -0.790001,-2.39001 h -5.059012 l -0.672001,2.25001 c -0.17,0.54 -0.455001,0.88 -0.858001,1.02 -0.402002,0.14 -0.827003,0.21 -1.277004,0.21"
     inkscape:connector-curvature="0"
     style="fill:#ffffff;stroke-width:1.00000215" />
  <path
     id="path44"
     d="m 16.730325,15.630037 c 0,2.12 -1.387003,3.67001 -4.202009,3.97001 -2.039005,0.22 -4.9910112,-0.04 -6.3910142,-0.2 -0.052,-0.22001 -0.093,-0.51001 -0.093,-0.73001 0,-1.86 1.0030022,-2.28 1.9400044,-2.28 0.976002,0 2.5130058,0.17 3.6560078,0.17 1.256003,0 1.639004,-0.43 1.639004,-0.84 0,-0.53 -0.507001,-0.75 -1.482004,-0.94 l -2.6700054,-0.51001 c -2.2230048,-0.43 -3.4100074,-1.96 -3.4100074,-3.59 0,-1.99001 1.4070031,-3.65001 4.1670091,-3.95001 2.0850047,-0.23 4.6260097,0.03 6.0180127,0.2 0.052,0.24 0.08,0.46 0.08,0.71 0,1.85 -0.976003,2.25 -1.916005,2.25 -0.721001,0 -1.842004,-0.13 -3.122007,-0.13 -1.3020022,0 -1.8420033,0.35001 -1.8420033,0.79001 0,0.47 0.516001,0.66 1.3300023,0.8 l 2.554006,0.47 c 2.620006,0.49 3.744008,1.98 3.744008,3.81001 m 4.58001,2.27 c 0,1.14 -0.447001,1.80001 -2.664005,1.80001 -0.296001,0 -0.554002,-0.02 -0.798002,-0.06 V 4.56001 c 0,-1.150003 0.390001,-2.340006 2.632006,-2.340006 0.282,0 0.567001,0.03 0.830001,0.08 v 15.600033 m 9.075021,5.84001 c 0.29,0.15001 0.888002,0.33 1.639003,0.35001 1.288003,0.03 1.992006,-0.47001 2.513006,-1.62001 L 41.45238,7.040017 c -0.285001,-0.15 -0.915002,-0.32 -1.433003,-0.33 -0.888002,-0.02 -2.083004,0.16 -2.845007,1.98 l -2.239005,5.29001 -4.394009,-7.15001 c -0.282001,-0.09 -0.973004,-0.22 -1.483005,-0.22 -1.546002,0 -2.414003,0.57 -3.313005,1.55 l -4.271011,4.67001 3.435009,5.41001 c 0.636,0.98001 1.471003,1.48001 2.828005,1.48001 0.891003,0 1.628004,-0.2 1.971004,-0.36 l -4.133008,-6.24002 2.930006,-3.10001 4.80701,7.54002 -2.927006,6.18001"
     inkscape:connector-curvature="0"
     style="fill:#003761;stroke-width:1.00000215" />
  <path
     style="fill:#ffffff;stroke-width:1.00000274"
     inkscape:connector-curvature="0"
     d="m 69.356443,20.900047 c -0.325999,0 -0.646001,-0.02 -0.962002,-0.05 -0.317,-0.03 -0.586,-0.07 -0.800001,-0.11 V 9.110017 h -4.388012 c -0.03,-0.19 -0.066,-0.40001 -0.104,-0.65001 -0.038,-0.25 -0.058,-0.54 -0.058,-0.86 0,-0.71 0.143001,-1.200001 0.431001,-1.470002 0.285,-0.270001 0.644,-0.410001 1.077002,-0.410001 H 75.66946 c 0.0297,0.180001 0.0626,0.400001 0.0928,0.650002 0.0301,0.250001 0.0466,0.540001 0.0466,0.860001 0,1.25 -0.504302,1.88001 -1.510204,1.88001 h -2.946208 v 10.16002 c 0,0.45 -0.140001,0.84001 -0.417001,1.15001 -0.279002,0.32 -0.806004,0.48 -1.579006,0.48"
     id="path46" />
  <path
     style="fill:#ffffff;stroke-width:1.00000274"
     inkscape:connector-curvature="0"
     d="m 79.314871,20.800047 c -0.433002,0 -0.786602,-0.04 -1.055203,-0.14 -0.2713,-0.09 -0.4796,-0.21 -0.627601,-0.38 -0.148001,-0.16 -0.246701,-0.36001 -0.301501,-0.59001 -0.0548,-0.23 -0.0823,-0.48 -0.0823,-0.74 V 7.300007 c 0,-0.45 0.139799,-0.83 0.419402,-1.150002 0.276798,-0.320001 0.803001,-0.470001 1.578702,-0.470001 0.323401,0 0.644103,0.01 0.962004,0.04 0.317999,0.03 0.5838,0.07 0.800302,0.12 v 11.580033 h 6.660218 c 0.0302,0.18 0.0658,0.4 0.104198,0.65 0.0383,0.24 0.0575,0.53 0.0575,0.85 0,0.73 -0.1507,1.23001 -0.452201,1.49001 -0.301501,0.26 -0.715402,0.39 -1.241605,0.39 h -6.821917"
     id="path48" />
  <path
     style="fill:#ffffff;stroke-width:1.00000274"
     inkscape:connector-curvature="0"
     d="m 94.25551,14.560027 h 3.472011 l -1.732007,-5.68001 -1.740004,5.68001 m -3.621009,6.38002 c -0.293301,0 -0.630401,-0.02 -1.008602,-0.08 -0.378303,-0.05 -0.693502,-0.13 -0.940104,-0.22 L 93.50151,5.930005 c 0.419,-0.110001 0.841002,-0.190001 1.269001,-0.230001 0.425002,-0.05 0.817003,-0.07 1.173005,-0.07 0.512001,0 0.951002,0.04 1.316002,0.11 0.364002,0.08 0.671002,0.200001 0.918003,0.350001 0.249,0.16 0.455001,0.360001 0.616002,0.620002 0.165001,0.25 0.299,0.55 0.409,0.89 l 4.127017,13.02004 c -0.263,0.11 -0.581,0.19 -0.951,0.24 -0.372,0.06 -0.73701,0.08 -1.09001,0.08 -0.403,0 -0.795,-0.06 -1.174,-0.19 -0.378004,-0.14 -0.655005,-0.43 -0.825005,-0.90001 l -0.789002,-2.39 h -5.059014 l -0.671902,2.25 c -0.169901,0.54001 -0.455001,0.88001 -0.857902,1.02001 -0.402902,0.14 -0.827702,0.21 -1.277204,0.21"
     id="path50" />
  <path
     style="fill:#ffffff;stroke-width:1.00000274"
     inkscape:connector-curvature="0"
     d="m 106.46455,20.900047 c -0.309,0 -0.611,-0.02 -0.904,-0.05 -0.29301,-0.03 -0.54301,-0.07 -0.74301,-0.11 V 5.950005 c 0.233,-0.08 0.535,-0.140001 0.90501,-0.200001 0.372,-0.05 0.688,-0.08 0.951,-0.08 0.849,0 1.469,0.11 1.855,0.330001 0.389,0.21 0.71301,0.530002 0.97601,0.950002 l 5.26801,8.28002 v -8.07002 c 0,-0.2 0.027,-0.39 0.082,-0.57 0.052,-0.180001 0.145,-0.340002 0.277,-0.470002 0.131,-0.14 0.315,-0.250001 0.545,-0.330001 0.233,-0.08 0.527,-0.12 0.88301,-0.12 0.30999,0 0.606,0.02 0.893,0.05 0.285,0.03 0.529,0.06 0.732,0.09 v 14.810043 c -0.216,0.11 -0.48,0.18 -0.789,0.22 -0.31,0.04 -0.611,0.06 -0.90501,0.06 -0.729,0 -1.269,-0.1 -1.625,-0.3 -0.356,-0.2 -0.65,-0.48 -0.883,-0.84001 l -5.63702,-9.00002 v 8.61002 c 0,0.43 -0.132,0.79001 -0.395,1.09001 -0.263,0.29 -0.759,0.44 -1.486,0.44"
     id="path52" />
  <path
     style="fill:#ffffff;stroke-width:1.00000274"
     inkscape:connector-curvature="0"
     d="m 125.9706,20.900047 c -0.326,0 -0.647,-0.02 -0.962,-0.05 -0.318,-0.03 -0.587,-0.07 -0.801,-0.11 V 9.110017 h -4.38802 c -0.03,-0.19 -0.065,-0.40001 -0.104,-0.65001 -0.038,-0.25 -0.057,-0.54 -0.057,-0.86 0,-0.71 0.142,-1.200001 0.43,-1.470002 0.285,-0.270001 0.644,-0.410001 1.07701,-0.410001 h 11.11703 c 0.03,0.180001 0.06,0.400001 0.093,0.650002 0.03,0.250001 0.047,0.540001 0.047,0.860001 0,1.25 -0.505,1.88001 -1.51101,1.88001 h -2.946 v 10.16002 c 0,0.45 -0.14001,0.84001 -0.41701,1.15001 -0.279,0.32 -0.805,0.48 -1.578,0.48"
     id="path54" />
  <path
     style="fill:#ffffff;stroke-width:1.00000274"
     inkscape:connector-curvature="0"
     d="m 135.59363,20.900057 c -0.32601,0 -0.64701,-0.02 -0.96201,-0.05 -0.318,-0.03 -0.587,-0.07 -0.801,-0.11 V 7.300037 c 0,-0.45 0.137,-0.83 0.417,-1.149999 0.28,-0.32 0.803,-0.480001 1.57901,-0.480001 0.323,0 0.644,0.02 0.962,0.05 0.318,0.03 0.583,0.07 0.8,0.12 v 13.43002 c 0,0.45 -0.14,0.84 -0.417,1.15 -0.279,0.32 -0.805,0.48 -1.578,0.48"
     id="path56" />
  <path
     style="fill:#ffffff;stroke-width:1.00000274"
     inkscape:connector-curvature="0"
     d="m 146.67165,21.080047 c -1.099,0 -2.113,-0.19 -3.039,-0.59 -0.93001,-0.39 -1.73501,-0.94001 -2.41501,-1.64001 -0.68,-0.69 -1.214,-1.52 -1.601,-2.48 -0.38601,-0.96001 -0.58101,-1.99001 -0.58101,-3.11001 0,-1.08001 0.195,-2.09001 0.58101,-3.04001 0.387,-0.94 0.921,-1.76001 1.601,-2.46001 0.68,-0.69 1.485,-1.24 2.41501,-1.630002 0.926,-0.400001 1.94,-0.600001 3.039,-0.600001 0.78901,0 1.55401,0.09 2.29701,0.26 0.743,0.170001 1.43101,0.390001 2.06601,0.650002 0.14,2.060001 -0.36401,3.090011 -1.51001,3.090011 -0.2,0 -0.386,-0.03 -0.556,-0.07 -0.17,-0.05 -0.356,-0.1 -0.557,-0.14 -0.202,-0.05 -0.424,-0.1 -0.674,-0.14 -0.246,-0.05 -0.54,-0.07 -0.88,-0.07 -0.54201,0 -1.05201,0.09 -1.53201,0.29 -0.479,0.19 -0.893,0.47 -1.241,0.83 -0.348,0.37 -0.622,0.81 -0.825,1.32 -0.20001,0.5 -0.30201,1.08001 -0.30201,1.71001 0,0.67 0.102,1.26 0.30201,1.79 0.203,0.53 0.477,0.97 0.825,1.34001 0.348,0.36 0.762,0.64 1.241,0.83 0.48,0.19 0.99,0.29 1.53201,0.29 0.34,0 0.642,-0.02 0.905,-0.07 0.263,-0.05 0.499,-0.09 0.707,-0.14 0.208,-0.05 0.406,-0.09 0.592,-0.14 0.186,-0.05 0.378,-0.07 0.581,-0.07 1.12901,0 1.63101,1.03 1.50801,3.09001 -0.63401,0.26 -1.34301,0.48 -2.12501,0.65 -0.781,0.17 -1.565,0.25 -2.35401,0.25"
     id="path58" />
  <path
     id="path62"
     d="m 3.1192952,1.270002 c -1.4090032,0 -1.9540044,0.690002 -1.9540044,2.730007 l -0.002,17.580038 c 0,1.09 0.047,1.83 0.1840004,1.83 0.047,-0.35 0.089,-2.04 1.6080036,-3.58 0.5240011,-0.49 1.2630028,-0.97001 2.2020048,-1.44001 3.136007,-1.32 6.1199964,-2.19 8.7270024,-2.8 0.317001,-0.06 0.641002,-0.14 0.913002,-0.2 0.992003,-0.21 1.991004,-0.42 2.831007,-0.58 0.366,-0.07 0.743001,-0.14001 1.057002,-0.20001 1.034002,-0.18 2.079004,-0.36 2.958007,-0.51 1.293003,-0.21 2.597006,-0.41 3.695008,-0.57 1.046001,-0.14 2.104004,-0.29 2.995006,-0.4 0.263001,-0.04 0.531001,-0.07 0.756002,-0.1 1.027001,-0.13 2.065003,-0.25 2.938005,-0.35 4.069009,-0.49 8.072018,-0.87 11.947029,-1.17 0.970001,-0.08 1.942003,-0.15 2.929006,-0.23 0.409,-0.03 0.829002,-0.06 1.180002,-0.08 h 0.0011 c 0.963001,-0.07 1.944004,-0.14 2.922006,-0.2 h 0.0011 c 1.467003,-0.1 2.948006,-0.19 4.444011,-0.27 1.019002,-0.06 2.042004,-0.11 3.073005,-0.16 1.595005,-0.08 3.198007,-0.15 4.818011,-0.22 1.069003,-0.04 2.157003,-0.08 3.073007,-0.11 18.375738,-0.57676 37.931462,-0.6047 56.496442,-0.35001 1.8399,0.01 3.73391,0.02 5.38921,0.03 0.9604,0.01 1.9362,0.02 2.75921,0.04 0.971,0.01 1.958,0.03 2.789,0.05 1.65101,0.03 3.29701,0.08 4.92301,0.13 1.03,0.03 2.05501,0.07 3.07101,0.11 1.619,0.06 3.21001,0.13 4.79101,0.21 1.068,0.06 2.15601,0.11001 3.07301,0.17001 0.524,0.03 1.058,0.06 1.507,0.09 1.167,0.07 2.35901,0.15 3.36301,0.23 3.56101,0.28 7.21101,0.6 10.30702,0.95 1.453,0.16 2.86401,0.34 4.23801,0.52 3.40701,0.51 6.92302,1.06 9.92302,1.7 1.339,0.3 2.72401,0.64 3.97701,0.98001 1.371,0.38 2.62901,0.78 3.76701,1.21 0.921,0.37 1.879,0.76 2.672,1.16 1.15001,0.7 2.40702,1.39 3.27502,2.36001 1.37301,1.66 1.55901,3.23 1.60801,3.58 0.135,0 0.186,-0.74 0.186,-1.83 l -0.006,-17.580039 c 0,-2.040005 -0.54,-2.730006 -1.951,-2.730006 -0.477,0 -0.95401,0.32 -1.59001,0.32 H 4.7082986 c -0.6350014,0 -1.1120024,-0.32 -1.5890034,-0.32 z"
     style="opacity:0.3;fill:url(#a);stroke-width:1.00000215"
     inkscape:connector-curvature="0"
     sodipodi:nodetypes="cccccccccccccccccccccccccccccccccccccccccccccssscc" />
  <path
     id="path64"
     d="M 3.7812966,0 C 0.88129021,0 -0.00171173,1.810004 -0.00171173,3.610008 v 19.110039 c 0,1.80001 0.88300194,3.60001 3.78300833,3.60001 H 131.91158 192.02145 c 2.89701,0 3.78201,-1.8 3.78201,-3.60001 V 3.610008 C 195.80346,1.810004 194.91846,0 192.02145,0 H 131.91358 Z M 3.915297,0.25 h 128.000283 59.97187 c 1.951,0 3.27201,1.150003 3.27201,3.060007 v 19.70004 c 0,1.92001 -1.32101,3.07001 -3.27201,3.07001 H 131.91358 3.9132969 c -1.9520043,0 -3.27100721,-1.15 -3.27100721,-3.07001 V 3.310007 C 0.64228969,1.400003 1.9612926,0.25 3.915297,0.25 Z"
     inkscape:connector-curvature="0"
     style="fill:#a1a2a2;stroke-width:1.00000215"
     sodipodi:nodetypes="sssscsssscsscsssscssss" />
  <g
     id="#818181ff"
     style="fill:#000000;fill-opacity:1"
     transform="matrix(0.05770238,0,0,0.05770238,124.80415,28.482757)" />
  <g
     id="g4662"
     transform="matrix(0.21959603,0,0,0.21959603,-0.00171069,20.275677)">
    <path
       id="path56-2"
       d="m 794.9145,2.84332 c -1.48455,0 -2.94633,-0.0911 -4.38078,-0.22769 -1.44812,-0.13662 -2.6731,-0.31877 -3.64762,-0.50092 v -61.20346 c 0,-2.049223 0.62387,-3.779678 1.89895,-5.236903 1.27507,-1.457225 3.65672,-2.185837 7.19049,-2.185837 1.47089,0 2.93267,0.09108 4.38078,0.227691 1.44812,0.136615 2.65489,0.318768 3.64307,0.546459 v 61.15792 c 0,2.04922 -0.63754,3.82522 -1.89895,5.2369 -1.27052,1.45723 -3.66583,2.18584 -7.18594,2.18584"
       inkscape:connector-curvature="0"
       style="fill:#ffffff;fill-opacity:1;stroke-width:4.55382872" />
    <path
       inkscape:connector-curvature="0"
       id="path748"
       style="fill:#ffffff;fill-opacity:1;fill-rule:nonzero;stroke:none;stroke-width:5.9846034"
       d="m 749.48171,3.26533 c -1.76546,0 -3.52493,-0.10773 -5.29038,-0.31719 -1.75948,-0.20946 -3.45312,-0.59845 -5.07495,-1.16101 l -21.87373,-66.716358 c 1.19693,-0.562554 2.69906,-0.969506 4.50042,-1.214876 1.79539,-0.245367 3.54289,-0.371045 5.23654,-0.371045 0.91564,0 1.86719,0.07182 2.85465,0.215447 0.98746,0.137646 1.90311,0.383013 2.74693,0.736104 0.84384,0.353093 1.60387,0.867769 2.27415,1.53206 0.67027,0.670276 1.17897,1.57395 1.53206,2.699055 l 6.79253,22.621803 c 1.34654,4.440572 2.58534,8.617828 3.71643,12.531759 1.1311,3.913931 2.29809,8.121104 3.501,12.633496 0.56853,-2.328009 1.13109,-4.512392 1.69962,-6.553141 0.56256,-2.046732 1.13109,-4.075513 1.69964,-6.080355 0.56255,-2.010828 1.14904,-4.033623 1.7475,-6.080361 0.60444,-2.040746 1.25676,-4.231112 1.96294,-6.55314 l 6.79253,-22.202875 c 0.35309,-1.196921 0.86178,-2.16643 1.53804,-2.908518 0.67029,-0.742092 1.42434,-1.304644 2.27416,-1.693642 0.84382,-0.383014 1.75947,-0.63437 2.74693,-0.736107 0.98745,-0.107724 1.97492,-0.161585 2.96238,-0.161585 1.26873,0 2.75291,0.125678 4.44057,0.371045 1.69364,0.24537 3.10601,0.580506 4.2371,1.005412 l -19.8988,60.791602 c -0.98747,2.96238 -2.4896,4.96722 -4.49444,6.02649 -2.01083,1.05928 -4.88344,1.58593 -8.62382,1.58593" />
    <path
       d="m 813.91464,-64.361578 c 2.27607,-1.895429 5.4144,-1.957574 8.22906,-1.952394 h 12.93914 c 5.94263,-0.03625 12.04839,0.681006 17.42913,3.355839 4.32685,2.055968 7.96493,5.580117 9.98724,9.938047 2.1932,4.767052 2.76028,10.196986 1.99382,15.365392 -0.81047,5.398861 -3.51119,10.525837 -7.64902,14.11731 -3.27558,2.920823 -7.36939,4.769642 -11.59267,5.852003 -5.38591,1.131561 -10.90906,0.67065 -16.36748,0.761279 l -0.0207,12.574042 c -0.0181,1.96533 -0.77681,3.93068 -2.18026,5.32118 -1.49407,1.3646 -3.60442,1.69086 -5.55164,1.83327 -3.1461,0.12948 -6.31549,-0.10357 -9.40981,-0.70171 l 0.003,-60.058128 c 0.0466,-2.263119 0.34699,-4.847323 2.19062,-6.40613 m 14.96145,12.763062 0.003,20.075478 c 2.53896,0 6.16449,0.09343 9.08097,-0.176078 2.64117,-0.302957 5.47395,-1.08495 7.24509,-3.210833 2.2916,-2.568667 2.9001,-6.289609 2.18285,-9.583302 -0.47904,-2.213922 -1.89543,-4.187031 -3.82711,-5.3652 -2.13365,-1.336121 -4.7049,-1.714171 -7.18036,-1.737475 -2.50134,-0.01295 -5.00172,-0.01036 -7.50403,-0.0026 z"
       id="path7"
       style="opacity:1;fill:#ffffff;fill-opacity:1;stroke-width:0.25893819"
       inkscape:connector-curvature="0"
       sodipodi:nodetypes="ccccccccccccccccccccccc" />
  </g>
  <g
     id="#2d2d2dff"
     style="fill:#000000;fill-opacity:1"
     transform="matrix(0.05770238,0,0,0.05770238,124.80415,28.482757)" />
</svg>
