<?xml version="1.0" encoding="UTF-8" standalone="no"?>
<!-- Generator: Adobe Illustrator 15.1.0, SVG Export Plug-In  -->

<svg
   xmlns:dc="http://purl.org/dc/elements/1.1/"
   xmlns:cc="http://creativecommons.org/ns#"
   xmlns:rdf="http://www.w3.org/1999/02/22-rdf-syntax-ns#"
   xmlns:svg="http://www.w3.org/2000/svg"
   xmlns="http://www.w3.org/2000/svg"
   xmlns:sodipodi="http://sodipodi.sourceforge.net/DTD/sodipodi-0.dtd"
   xmlns:inkscape="http://www.inkscape.org/namespaces/inkscape"
   id="svg8579"
   enable-background="new 0 0 751 80"
   xml:space="preserve"
   overflow="visible"
   version="1.1"
   y="0px"
   x="0px"
   viewBox="-1000000 0 0 84.288004"
   inkscape:version="0.91 r13725"
   width="1113.411"
   height="85.645088"
   sodipodi:docname="Sky_Sports_World_Cup 2015 HD.svg"
   style="overflow:visible"><sodipodi:namedview
     pagecolor="#ffffff"
     bordercolor="#666666"
     borderopacity="1"
     objecttolerance="10"
     gridtolerance="10"
     guidetolerance="10"
     inkscape:pageopacity="0"
     inkscape:pageshadow="2"
     inkscape:window-width="1920"
     inkscape:window-height="1017"
     id="namedview61"
     showgrid="false"
     fit-margin-left="0.5"
     fit-margin-bottom="0.5"
     fit-margin-top="0.5"
     fit-margin-right="0.5"
     inkscape:zoom="1"
     inkscape:cx="516.82659"
     inkscape:cy="-44.355371"
     inkscape:window-x="-8"
     inkscape:window-y="-8"
     inkscape:window-maximized="1"
     inkscape:current-layer="svg8579" /><metadata
     id="metadata8926"><rdf:RDF><cc:Work
         rdf:about=""><dc:format>image/svg+xml</dc:format><dc:type
           rdf:resource="http://purl.org/dc/dcmitype/StillImage" /><dc:title></dc:title></cc:Work></rdf:RDF></metadata><defs
     id="defs8581"><linearGradient
       x1="-3700"
       y1="59"
       gradientTransform="matrix(-1.5153993,0,0,0.82152493,-5045.8065,-48.909796)"
       x2="-3700"
       gradientUnits="userSpaceOnUse"
       y2="163"
       id="SVGID_1_-6"><stop
         id="stop9"
         offset="0"
         stop-color="#091B4A" /><stop
         id="stop11"
         offset="0.0363"
         stop-color="#122D68" /><stop
         id="stop13"
         offset="0.896"
         stop-color="#122D68" /><stop
         id="stop15"
         offset="1"
         stop-color="#091B4A" /></linearGradient><linearGradient
       x1="465"
       y1="162"
       x2="465"
       gradientUnits="userSpaceOnUse"
       y2="59.900002"
       id="SVGID_2_-4-9"
       gradientTransform="matrix(0.8319397,0,0,0.82152048,-55.730918,-49.266163)"><stop
         id="stop22-0"
         offset="0"
         stop-color="#552227" /><stop
         id="stop24-2"
         offset="0.0739"
         stop-color="#C41C2B" /><stop
         id="stop26-8"
         offset="0.911"
         stop-color="#C41C2B" /><stop
         id="stop28-2"
         offset="1"
         stop-color="#FE3446" /></linearGradient></defs><linearGradient
     id="SVGID_1_"
     y2="39.386002"
     gradientUnits="userSpaceOnUse"
     x2="75.736"
     y1="1.6826"
     x1="75.736"
     gradientTransform="matrix(1.0411022,0,0,1.0411022,0.50332144,0.50000001)"><stop
       id="stop8819"
       stop-color="#FFF"
       offset="0" /><stop
       id="stop8821"
       stop-color="#E7ECF5"
       offset="0.03941" /><stop
       id="stop8823"
       stop-color="#BACAE4"
       offset="0.12174" /><stop
       id="stop8825"
       stop-color="#93ACD4"
       offset="0.21007" /><stop
       id="stop8827"
       stop-color="#7293C7"
       offset="0.30316" /><stop
       id="stop8829"
       stop-color="#577EBC"
       offset="0.4025" /><stop
       id="stop8831"
       stop-color="#426EB3"
       offset="0.51032" /><stop
       id="stop8833"
       stop-color="#3363AE"
       offset="0.6308" /><stop
       id="stop8835"
       stop-color="#2B5CAA"
       offset="0.77417" /><stop
       id="stop8837"
       stop-color="#285AA9"
       offset="1" /></linearGradient><linearGradient
     id="SVGID_2_"
     y2="8.5265e-014"
     gradientUnits="userSpaceOnUse"
     x2="317.95999"
     y1="79.952003"
     x1="317.95999"><stop
       id="stop8842"
       stop-color="#D92231"
       offset="0" /><stop
       id="stop8844"
       stop-color="#D12130"
       offset="0.19309" /><stop
       id="stop8846"
       stop-color="#BD1F2C"
       offset="0.44769" /><stop
       id="stop8848"
       stop-color="#9D1A26"
       offset="0.73522" /><stop
       id="stop8850"
       stop-color="#7C131D"
       offset="1" /></linearGradient><linearGradient
     id="SVGID_3_"
     y2="39.386002"
     gradientUnits="userSpaceOnUse"
     x2="317.95999"
     y1="1.6826"
     x1="317.95999"
     gradientTransform="matrix(1.0411022,0,0,1.0411022,0.50332144,0.50000001)"><stop
       id="stop8855"
       stop-color="#FFF"
       offset="0" /><stop
       id="stop8857"
       stop-color="#FAE1E3"
       offset="0.04837" /><stop
       id="stop8859"
       stop-color="#F2B4B9"
       offset="0.12984" /><stop
       id="stop8861"
       stop-color="#EB8D95"
       offset="0.21737" /><stop
       id="stop8863"
       stop-color="#E66C76"
       offset="0.30964" /><stop
       id="stop8865"
       stop-color="#E1515D"
       offset="0.40809" /><stop
       id="stop8867"
       stop-color="#DD3C49"
       offset="0.51484" /><stop
       id="stop8869"
       stop-color="#DB2D3B"
       offset="0.63422" /><stop
       id="stop8871"
       stop-color="#D92533"
       offset="0.77626" /><stop
       id="stop8873"
       stop-color="#D92231"
       offset="1" /></linearGradient><linearGradient
     id="SVGID_4_"
     y2="39.435001"
     gradientUnits="userSpaceOnUse"
     x2="781.02002"
     gradientTransform="matrix(-1.1359864,0,0,1.1359864,1589.7153,0.5)"
     y1="1.6841"
     x1="781.02002"><stop
       id="stop8880"
       stop-color="#FFF"
       offset="0" /><stop
       id="stop8882"
       stop-color="#E7ECF5"
       offset="0.03941" /><stop
       id="stop8884"
       stop-color="#BACAE4"
       offset="0.12174" /><stop
       id="stop8886"
       stop-color="#93ACD4"
       offset="0.21007" /><stop
       id="stop8888"
       stop-color="#7293C7"
       offset="0.30316" /><stop
       id="stop8890"
       stop-color="#577EBC"
       offset="0.4025" /><stop
       id="stop8892"
       stop-color="#426EB3"
       offset="0.51032" /><stop
       id="stop8894"
       stop-color="#3363AE"
       offset="0.6308" /><stop
       id="stop8896"
       stop-color="#2B5CAA"
       offset="0.77417" /><stop
       id="stop8898"
       stop-color="#285AA9"
       offset="1" /></linearGradient><g
     id="g4226"
     transform="translate(0.5,0.55708771)"><path
       d="m 546.49475,70.451327 c -1.24748,0 -2.6792,-0.07058 -4.29517,-0.211542 -1.61601,-0.140957 -2.99063,-0.410477 -4.1239,-0.808431 L 526.8511,15.940089 c 0.84953,-0.453253 1.85562,-0.821782 3.01831,-1.105589 1.16268,-0.2837 2.50877,-0.425572 4.03825,-0.425614 2.09871,4.2e-5 3.7718,0.354306 5.01927,1.062749 1.24746,0.708571 2.04075,2.055084 2.37988,4.039562 l 2.97679,17.60377 c 0.62457,3.458661 1.17779,7.044906 1.65968,10.758714 0.48183,3.713871 0.92085,7.300095 1.31709,10.758734 l 0.25434,0 c 0.51038,-3.458639 1.06317,-7.00249 1.65838,-10.631554 0.59517,-3.629042 1.34692,-7.370999 2.25529,-11.225892 l 3.91109,-16.752499 c 0.45327,-1.984478 1.41699,-3.401938 2.89113,-4.25238 1.4741,-0.850314 3.51485,-1.275524 6.12226,-1.275567 1.30453,4.3e-5 2.58054,0.07101 3.82805,0.212818 1.24741,0.14202 2.353,0.410966 3.31676,0.807113 l 4.84797,21.346173 c 0.79238,3.571129 1.50047,7.284533 2.12425,11.140234 0.62368,3.855722 1.16306,7.399573 1.61816,10.631554 l 0.33997,0 c 0.16945,-1.588309 0.38189,-3.346171 0.63714,-5.273607 0.25515,-1.927414 0.5242,-3.854829 0.80713,-5.782286 0.28283,-1.927393 0.55188,-3.812435 0.80714,-5.655105 0.25515,-1.842628 0.52462,-3.529543 0.80843,-5.06079 l 3.06243,-18.029405 c 0.28368,-1.757798 1.02074,-2.9486 2.21118,-3.572383 1.19029,-0.623678 2.72064,-0.935548 4.59103,-0.935612 1.30449,6.4e-5 2.52384,0.14202 3.65805,0.425636 1.13405,0.283806 2.09735,0.567549 2.88983,0.851249 l -10.45896,48.900227 c -0.28381,1.24746 -0.68089,2.253572 -1.19123,3.018291 -0.51046,0.764762 -1.16231,1.359929 -1.95554,1.785565 -0.79336,0.425614 -1.71468,0.723219 -2.76397,0.892771 -1.04942,0.169659 -2.22551,0.25434 -3.52829,0.25434 -1.19042,0 -2.5512,-0.07059 -4.08236,-0.211542 -1.53127,-0.140958 -2.86351,-0.410477 -3.99674,-0.808432 l -5.52793,-23.980351 c -0.45336,-2.041605 -0.92094,-4.52226 -1.40275,-7.441967 -0.48191,-2.919664 -0.94949,-5.740275 -1.40274,-8.461897 l -0.17136,0 c -0.45334,2.721622 -0.94948,5.527967 -1.48839,8.419078 -0.53899,2.891154 -1.09136,5.386097 -1.65708,7.484786 l -4.93363,19.049336 c -0.6229,2.437816 -1.60088,4.039116 -2.93396,4.803856 -1.33314,0.764741 -3.30339,1.147111 -5.91076,1.147111 z"
       style="font-style:normal;font-variant:normal;font-weight:bold;font-stretch:normal;font-size:medium;line-height:125%;font-family:'Sky Text';-inkscape-font-specification:'Sky Text Bold';letter-spacing:0px;word-spacing:0px;fill:#ffffff;fill-opacity:1;stroke:none"
       id="path3059"
       inkscape:connector-curvature="0" /><path
       d="m 631.17609,71.048237 c -4.25111,0 -8.10596,-0.765612 -11.56457,-2.296816 -3.45864,-1.531225 -6.42115,-3.600511 -8.88752,-6.2079 -2.46639,-2.60739 -4.36569,-5.668946 -5.69794,-9.184691 -1.33225,-3.515724 -1.99836,-7.285788 -1.99836,-11.310233 0,-3.968998 0.66611,-7.696689 1.99836,-11.183052 1.33225,-3.486278 3.23155,-6.519282 5.69794,-9.099033 2.46637,-2.579666 5.42888,-4.606558 8.88752,-6.080741 3.45861,-1.474055 7.31346,-2.211115 11.56457,-2.211179 4.25276,6.4e-5 8.10846,0.737124 11.56714,2.211179 3.4586,1.474183 6.4211,3.501075 8.88754,6.080741 2.46632,2.579751 4.36563,5.612755 5.69792,9.099033 1.33218,3.486363 1.99832,7.214054 1.99836,11.183052 -4e-5,4.024445 -0.66618,7.794509 -1.99836,11.310233 -1.33229,3.515745 -3.2316,6.577301 -5.69792,9.184691 -2.46644,2.607389 -5.42894,4.676675 -8.88754,6.2079 -3.45868,1.531204 -7.31438,2.296816 -11.56714,2.296816 z m -0.0831,-12.247119 c 1.92739,2.1e-5 3.74151,-0.425168 5.44231,-1.275568 1.70073,-0.850378 3.18869,-2.026913 4.46388,-3.529585 1.2751,-1.502651 2.26737,-3.260088 2.97677,-5.27231 0.70933,-2.012181 1.06402,-4.180966 1.06406,-6.506356 -4e-5,-2.323604 -0.34044,-4.491964 -1.02122,-6.505058 -0.68087,-2.013031 -1.63075,-3.756627 -2.84964,-5.230789 -1.21895,-1.474076 -2.67878,-2.636325 -4.37951,-3.486745 -1.70082,-0.850357 -3.572,-1.275546 -5.61359,-1.275589 -1.98282,4.3e-5 -3.81075,0.411391 -5.48383,1.234046 -1.67311,0.82276 -3.13337,1.971168 -4.38083,3.445245 -1.24748,1.47414 -2.22547,3.217311 -2.93395,5.22947 -0.70853,2.012244 -1.0628,4.181029 -1.06277,6.506377 -3e-5,2.380752 0.35424,4.591484 1.06277,6.632217 0.70848,2.040776 1.6722,3.812478 2.89113,5.315129 1.21891,1.502693 2.6649,2.664942 4.33802,3.486767 1.67305,0.821847 3.50186,1.23277 5.4864,1.232749 z"
       style="font-style:normal;font-variant:normal;font-weight:bold;font-stretch:normal;font-size:medium;line-height:125%;font-family:'Sky Text';-inkscape-font-specification:'Sky Text Bold';letter-spacing:0px;word-spacing:0px;fill:#ffffff;fill-opacity:1;stroke:none"
       id="path3061"
       inkscape:connector-curvature="0" /><path
       d="m 701.66641,70.451327 c -1.92746,0 -3.51447,-0.325711 -4.76104,-0.977133 -1.24663,-0.651401 -2.43741,-1.799809 -3.57238,-3.445224 l -10.8846,-15.646931 -2.12554,0 0,13.861388 c -2e-5,1.645393 -0.51042,3.049013 -1.5312,4.210836 -1.02083,1.161823 -2.94826,1.742724 -5.78229,1.742724 -1.19038,0 -2.36689,-0.05655 -3.52958,-0.170084 -1.16268,-0.113318 -2.14111,-0.254764 -2.93525,-0.424317 l 0,-48.220273 c 0,-0.963654 0.0995,-1.870712 0.29845,-2.721133 0.199,-0.850335 0.56749,-1.573129 1.10559,-2.16836 0.53808,-0.595124 1.30325,-1.062707 2.29552,-1.402747 0.99225,-0.339935 2.28253,-0.509912 3.87086,-0.509976 l 13.09578,0 c 3.40151,6.4e-5 6.47733,0.382859 9.22751,1.148408 2.75009,0.765676 5.10314,1.885085 7.05915,3.358289 1.95592,1.473312 3.47243,3.329801 4.54951,5.569469 1.077,2.239774 1.61553,4.833748 1.61557,7.781943 -4e-5,4.422379 -1.1199,8.03673 -3.35959,10.843076 -2.23977,2.806388 -5.48602,4.691409 -9.73878,5.655105 l 14.71264,19.389314 c -1.24753,0.624612 -2.67881,1.135014 -4.29391,1.531224 -1.61516,0.396211 -3.38731,0.594317 -5.31642,0.594317 z m -21.34356,-30.27391 6.46224,0 c 3.40151,2.1e-5 5.78269,-0.708486 7.14351,-2.125542 1.36076,-1.416992 2.04114,-3.146301 2.04118,-5.187948 -4e-5,-2.154052 -0.72281,-3.869095 -2.16836,-5.145151 -1.44559,-1.275971 -3.55771,-1.913978 -6.33635,-1.91402 l -7.14222,0 z"
       style="font-style:normal;font-variant:normal;font-weight:bold;font-stretch:normal;font-size:medium;line-height:125%;font-family:'Sky Text';-inkscape-font-specification:'Sky Text Bold';letter-spacing:0px;word-spacing:0px;fill:#ffffff;fill-opacity:1;stroke:none"
       id="path3063"
       inkscape:connector-curvature="0" /><path
       d="m 725.10698,69.857011 c -1.58833,0 -2.87861,-0.170085 -3.87086,-0.509976 -0.99227,-0.339977 -1.75746,-0.80756 -2.29554,-1.402748 -0.53808,-0.595188 -0.90661,-1.317961 -1.10559,-2.16836 -0.199,-0.850378 -0.29846,-1.757415 -0.29846,-2.721154 l 0,-42.692305 c 0,-1.643629 0.5104,-3.046802 1.53123,-4.20954 1.0208,-1.162631 2.94821,-1.743978 5.78228,-1.744021 1.19036,4.3e-5 2.36687,0.05677 3.52957,0.169872 1.16267,0.113318 2.14108,0.2557 2.93527,0.426932 l 0,42.435371 24.40598,0 c 0.11417,0.679975 0.24218,1.473694 0.3841,2.381178 0.1418,0.907484 0.21277,1.956414 0.21281,3.146769 -4e-5,2.664495 -0.55283,4.478591 -1.65838,5.442309 -1.10563,0.963697 -2.62299,1.445566 -4.55211,1.445566 z"
       style="font-style:normal;font-variant:normal;font-weight:bold;font-stretch:normal;font-size:medium;line-height:125%;font-family:'Sky Text';-inkscape-font-specification:'Sky Text Bold';letter-spacing:0px;word-spacing:0px;fill:#ffffff;fill-opacity:1;stroke:none"
       id="path3065"
       inkscape:connector-curvature="0" /><path
       d="m 770.11946,69.857011 c -1.58833,0 -2.87861,-0.170085 -3.87086,-0.509976 -0.99227,-0.339977 -1.75743,-0.80756 -2.29552,-1.402748 -0.5381,-0.595188 -0.90663,-1.317961 -1.10558,-2.16836 -0.199,-0.850378 -0.29846,-1.757415 -0.29846,-2.721154 l 0,-41.672374 c 0,-0.963655 0.0995,-1.870713 0.29846,-2.721134 0.19899,-0.850335 0.56748,-1.573129 1.10558,-2.16836 0.53809,-0.595124 1.30325,-1.062707 2.29552,-1.402747 0.99225,-0.339935 2.28253,-0.509912 3.87086,-0.509976 l 10.54462,0 c 4.81853,6.4e-5 9.11286,0.637624 12.88296,1.912723 3.77002,1.275206 6.97347,3.103568 9.61031,5.485128 2.63675,2.381646 4.6494,5.24465 6.03792,8.589057 1.38842,3.344491 2.08266,7.086874 2.0827,11.227168 -4e-5,3.911977 -0.69428,7.568722 -2.0827,10.970255 -1.38852,3.401555 -3.41501,6.363634 -6.07944,8.886215 -2.66454,2.522624 -5.92463,4.520985 -9.78031,5.995104 -3.85574,1.474119 -8.27767,2.211179 -13.26575,2.211179 z m 6.2079,-11.990187 5.01668,0 c 2.21115,0 4.28044,-0.340402 6.2079,-1.021249 1.92739,-0.680804 3.60006,-1.701606 5.01797,-3.062428 1.41786,-1.360758 2.53772,-3.04727 3.35958,-5.059492 0.82181,-2.012181 1.23273,-4.350518 1.23277,-7.015035 -4e-5,-2.437794 -0.41096,-4.592314 -1.23277,-6.463537 -0.82186,-1.871159 -1.94172,-3.444331 -3.35958,-4.719515 -1.41791,-1.275099 -3.10484,-2.253083 -5.06079,-2.933951 -1.95599,-0.680783 -4.06727,-1.021206 -6.33376,-1.021249 l -4.848,0 z"
       style="font-style:normal;font-variant:normal;font-weight:bold;font-stretch:normal;font-size:medium;line-height:125%;font-family:'Sky Text';-inkscape-font-specification:'Sky Text Bold';letter-spacing:0px;word-spacing:0px;fill:#ffffff;fill-opacity:1;stroke:none"
       id="path3067"
       inkscape:connector-curvature="0" /><path
       d="m 860.38842,70.876941 c -4.02617,0 -7.74002,-0.722772 -11.14153,-2.168338 -3.40155,-1.445567 -6.34937,-3.443928 -8.84342,-5.995104 -2.49407,-2.551134 -4.45004,-5.58416 -5.86792,-9.099033 -1.41789,-3.514852 -2.12684,-7.313915 -2.12682,-11.397167 -2e-5,-3.967276 0.70893,-7.680254 2.12682,-11.138936 1.41788,-3.458597 3.37385,-6.463495 5.86792,-9.014693 2.49405,-2.551113 5.44187,-4.549473 8.84342,-5.995103 3.40151,-1.445503 7.11536,-2.168296 11.14153,-2.168339 2.89109,4.3e-5 5.69746,0.311913 8.41908,0.93559 2.72154,0.623784 5.24414,1.417503 7.56783,2.381178 0.51036,7.54019 -1.33229,11.310254 -5.52795,11.310211 -0.7371,4.3e-5 -1.4175,-0.08525 -2.04118,-0.255636 -0.62378,-0.170297 -1.30416,-0.34036 -2.0412,-0.509976 -0.73708,-0.169447 -1.55893,-0.339509 -2.46549,-0.509976 -0.90666,-0.170297 -1.9837,-0.255573 -3.23114,-0.255615 -1.98454,4.2e-5 -3.85531,0.354285 -5.61228,1.062749 -1.75703,0.708549 -3.27353,1.728926 -4.54952,3.061131 -1.27603,1.332291 -2.28257,2.933994 -3.01961,4.805153 -0.73708,1.871244 -1.10561,3.968658 -1.10559,6.292262 -2e-5,2.437858 0.36851,4.620909 1.10559,6.549174 0.73704,1.928329 1.74358,3.558585 3.01961,4.890812 1.27599,1.332247 2.79249,2.352625 4.54952,3.061131 1.75697,0.708528 3.62774,1.062771 5.61228,1.062771 1.24744,0 2.35303,-0.08525 3.31677,-0.255637 0.96368,-0.170509 1.82834,-0.340402 2.59398,-0.509976 0.76557,-0.169446 1.48836,-0.33953 2.16836,-0.509976 0.67991,-0.170509 1.38844,-0.255615 2.12554,-0.255636 4.13855,2.1e-5 5.9812,3.770085 5.52792,11.310233 -2.32366,0.963696 -4.91721,1.757436 -7.78064,2.381156 -2.86348,0.623741 -5.74079,0.93559 -8.63188,0.93559 z"
       style="font-style:normal;font-variant:normal;font-weight:bold;font-stretch:normal;font-size:medium;line-height:125%;font-family:'Sky Text';-inkscape-font-specification:'Sky Text Bold';letter-spacing:0px;word-spacing:0px;fill:#ffffff;fill-opacity:1;stroke:none"
       id="path3069"
       inkscape:connector-curvature="0" /><path
       d="m 906.51168,71.133875 c -3.7424,0 -7.08772,-0.638007 -10.03594,-1.914021 -2.94824,-1.275992 -5.44273,-3.019588 -7.48346,-5.230767 -2.04078,-2.211178 -3.59966,-4.7766 -4.6767,-7.696306 -1.07706,-2.919664 -1.61557,-6.051721 -1.61557,-9.396191 l 0,-26.534122 c 0,-1.643629 0.5104,-3.046802 1.53123,-4.20954 1.0208,-1.162631 2.94822,-1.743978 5.78226,-1.744021 1.19036,4.3e-5 2.36689,0.05677 3.52959,0.169872 1.16267,0.113318 2.14021,0.2557 2.93265,0.426932 l 0,31.973816 c -2e-5,3.685319 0.90704,6.562611 2.72116,8.631897 1.81407,2.069307 4.28089,3.10395 7.40044,3.10395 3.06067,0 5.52661,-1.034643 7.39783,-3.10395 1.87116,-2.069286 2.80675,-4.946578 2.80679,-8.631897 l 0,-26.617165 c -4e-5,-1.64363 0.50994,-3.046802 1.52991,-4.20954 1.01991,-1.162631 2.94777,-1.743979 5.78358,-1.744021 1.19034,4.2e-5 2.35259,0.05677 3.48677,0.169871 1.13408,0.113319 2.09735,0.2557 2.88984,0.426933 l 0,31.890772 c -7e-5,3.344471 -0.58097,6.476527 -1.74273,9.396191 -1.16186,2.919707 -2.76316,5.485128 -4.80385,7.696307 -2.0408,2.211178 -4.5353,3.954774 -7.48349,5.230767 -2.94828,1.276013 -6.26503,1.91402 -9.95031,1.91402 z"
       style="font-style:normal;font-variant:normal;font-weight:bold;font-stretch:normal;font-size:medium;line-height:125%;font-family:'Sky Text';-inkscape-font-specification:'Sky Text Bold';letter-spacing:0px;word-spacing:0px;fill:#ffffff;fill-opacity:1;stroke:none"
       id="path3071"
       inkscape:connector-curvature="0" /><path
       d="m 945.90801,70.196987 c -1.19039,0 -2.36691,-0.05655 -3.52958,-0.170084 -1.1627,-0.113318 -2.14111,-0.254764 -2.93527,-0.424317 l 0,-48.220273 c 0,-0.963654 0.0995,-1.870712 0.29845,-2.721133 0.199,-0.850335 0.56751,-1.573129 1.10559,-2.16836 0.53809,-0.595124 1.30327,-1.062707 2.29554,-1.402747 0.99225,-0.339935 2.28253,-0.509912 3.87086,-0.509976 l 11.73583,0 c 4.13859,6.4e-5 7.69584,0.510039 10.6718,1.529928 2.97588,1.019994 5.39943,2.423167 7.27067,4.209539 1.87114,1.786457 3.2462,3.87003 4.12518,6.250719 0.87889,2.380774 1.31836,4.903376 1.3184,7.567829 -4e-5,2.94826 -0.52473,5.655574 -1.57404,8.121921 -1.0494,2.466411 -2.53778,4.592803 -4.46517,6.379196 -1.92746,1.786436 -4.22341,3.175343 -6.88786,4.166721 -2.66452,0.991399 -5.64131,1.487109 -8.93035,1.487088 l -7.05656,0 0,9.950304 c -2e-5,1.645393 -0.51042,3.049013 -1.53122,4.210836 -1.02083,1.161823 -2.94824,1.742724 -5.78227,1.742724 z m 7.31349,-27.639711 4.76234,0 c 3.85483,2.1e-5 6.54741,-0.793697 8.0778,-2.381156 1.53031,-1.587417 2.29548,-3.571512 2.29552,-5.952285 -4e-5,-2.437795 -0.79376,-4.350944 -2.38118,-5.739447 -1.58746,-1.388439 -3.82676,-2.08268 -6.71787,-2.082722 l -6.03661,0 z"
       style="font-style:normal;font-variant:normal;font-weight:bold;font-stretch:normal;font-size:medium;line-height:125%;font-family:'Sky Text';-inkscape-font-specification:'Sky Text Bold';letter-spacing:0px;word-spacing:0px;fill:#ffffff;fill-opacity:1;stroke:none"
       id="path3073"
       inkscape:connector-curvature="0" /><path
       style="fill:#ffffff"
       inkscape:connector-curvature="0"
       d="m 100.72398,77.812245 c 0.99026,0.50937 3.00025,1.113771 5.51919,1.181442 4.33984,0.09252 6.70013,-1.567275 8.45282,-5.455584 l 23.25614,-51.866669 c -0.95875,-0.510889 -3.0953,-1.084308 -4.81812,-1.117832 -2.99826,-0.06355 -7.01775,0.543425 -9.56866,6.669093 L 116.03714,44.98598 101.26077,20.93652 c -0.95772,-0.287219 -3.285503,-0.701526 -4.978231,-0.701526 -5.229459,0 -8.132573,1.912921 -11.1627,5.199369 L 70.767204,41.13106 82.311987,59.308704 c 2.13759,3.317472 4.945755,5.008327 9.50714,5.008327 2.999308,0 5.487646,-0.696945 6.633999,-1.241411 l -13.907038,-20.958428 9.856946,-10.464118 16.173526,25.3904 -9.86549,20.767907 z M 70.216565,58.192674 c 0,3.826883 -1.500644,6.032146 -8.963786,6.032146 -0.990265,0 -1.849414,-0.0671 -2.679484,-0.195716 l 0,-50.715211 c 0,-3.8598872 1.30752,-7.8804152 8.835105,-7.8804152 0.957731,0 1.912922,0.0976 2.808165,0.287219 l 0,52.4715502 z M 54.820746,50.538491 c 0,7.143314 -4.657475,12.344348 -14.131921,13.36567 -6.857636,0.73406 -16.778403,-0.128618 -21.497719,-0.670512 -0.161153,-0.766595 -0.28874,-1.720733 -0.28874,-2.487402 0,-6.222251 3.349018,-7.654182 6.506889,-7.654182 3.286447,0 8.454374,0.571898 12.282923,0.571898 4.240618,0 5.516593,-1.437138 5.516593,-2.807124 0,-1.787885 -1.689709,-2.517386 -4.97574,-3.156309 L 29.237804,45.977193 C 21.773206,44.540056 17.78568,39.37317 17.78568,33.886874 c 0,-6.663992 4.720046,-12.247527 14.003866,-13.266766 7.017758,-0.766595 15.565519,0.09404 20.256725,0.667971 0.158601,0.798109 0.253664,1.562174 0.253664,2.392765 0,6.22069 -3.28551,7.560172 -6.44286,7.560172 -2.424831,0 -6.187167,-0.446841 -10.495351,-0.446841 -4.371797,0 -6.188104,1.213405 -6.188104,2.678548 0,1.563215 1.721775,2.200161 4.466329,2.678027 l 8.580451,1.595697 c 8.802519,1.625161 12.59942,6.633903 12.59942,12.790982 z"
       id="path8910" /><path
       style="fill:#ffffff"
       inkscape:connector-curvature="0"
       d="m 218.22902,53.991826 c 0,-8.929221 -5.81351,-13.27197 -15.07099,-15.317736 l -16.2183,-3.683003 c -2.94839,-0.65577 -5.40685,-1.558114 -5.40685,-4.505994 0,-3.194934 2.54122,-4.421665 9.33744,-4.421665 8.02783,0 9.91233,0.408716 17.20108,0.408716 3.36069,0 6.79871,-1.557594 6.79871,-8.19056 0,-0.820482 -0.0793,-1.721775 -0.24401,-2.541226 -4.91577,-0.407185 -13.67904,-0.899783 -24.48985,-0.899783 -16.29949,0 -22.52632,7.044722 -22.52632,16.052755 0,8.436571 5.32544,13.109558 14.74409,15.317736 l 16.2162,3.766916 c 3.77046,0.897742 5.8181,2.539248 5.8181,4.913169 0,3.196496 -2.8671,4.424685 -9.66476,4.424685 -8.02533,0 -11.7124,-0.571899 -19.00324,-0.571899 -3.3587,0 -6.79767,1.552492 -6.79767,8.188998 0,0.818441 0.0818,1.718235 0.24553,2.539248 4.91682,0.487507 15.48119,1.064527 26.28992,1.064527 16.28284,0 22.75849,-6.960809 22.75849,-16.545195 z"
       id="path8912" /><path
       style="fill:#ffffff"
       inkscape:connector-curvature="0"
       d="m 352.0523,39.575685 0,-13.67696 12.85865,0 c 5.49171,0 9.8305,0.815902 9.8305,6.550094 0,4.829361 -3.27426,7.126553 -9.8305,7.126553 l -12.85241,0 z m -0.0729,10.810805 6.79663,0 13.12309,15.643601 c 2.45023,3.029296 4.8303,4.587825 10.39988,4.587825 3.76837,0 6.30606,-0.490557 8.3486,-1.476803 L 373.60061,49.404939 c 9.58647,-2.046078 14.41614,-8.275409 14.41614,-17.446791 0,-11.303246 -6.88303,-16.873143 -20.80226,-16.873143 l -19.90066,-0.08032 c -6.46827,0.245023 -8.60336,2.454814 -8.60336,8.353698 l 0,46.35924 c 0.98163,0.163692 2.13509,0.241463 3.27884,0.241463 8.189,0 10.07194,-2.370486 10.07194,-6.630364 L 351.95714,50.38574 Z"
       id="path8914" /><path
       style="fill:#ffffff"
       inkscape:connector-curvature="0"
       d="m 237.46859,41.050927 0,-15.072037 13.34797,0 c 6.63911,0 9.91691,2.457418 9.91691,7.291776 0,5.161784 -3.2778,7.780261 -9.91691,7.780261 l -13.34381,0 z m -13.34693,28.667789 c 0.9857,0.163693 2.13301,0.241463 3.27583,0.241463 8.19358,0 10.07548,-2.370485 10.07548,-6.630363 l 0,-11.222041 13.92265,0 c 15.15324,0 22.68874,-6.551135 22.68874,-18.837703 0,-11.876893 -7.53529,-18.183891 -21.7861,-18.183891 l -19.57793,0 c -6.55114,0 -8.59877,2.539249 -8.59877,8.3537 l 0,46.279075 z"
       id="path8916" /><path
       style="fill:#ffffff"
       inkscape:connector-curvature="0"
       d="m 318.39347,41.70578 c 0,6.310641 -1.06453,10.727517 -3.19349,13.351095 -2.04659,2.701347 -5.40883,3.931618 -9.99416,3.931618 -4.66924,-0.08388 -8.02179,-1.392371 -10.15585,-3.931618 -2.1254,-2.538728 -3.19243,-6.96081 -3.19243,-13.351095 0,-6.30606 1.14636,-10.727518 3.27531,-13.269888 2.13051,-2.620559 5.48764,-3.848748 10.07297,-3.848748 4.58533,0 7.86365,1.228189 9.99416,3.848748 2.12385,2.54133 3.18578,6.962891 3.18578,13.269888 z M 305.2027,69.88217 c 8.59877,0 15.23653,-2.046599 19.90692,-6.224751 4.66465,-4.097361 7.04524,-11.470864 7.04524,-21.951639 -0.088,-10.317947 -2.45992,-17.527997 -7.29126,-21.787146 -4.83644,-4.178151 -11.38445,-6.305123 -19.66121,-6.305123 -8.27031,0 -14.8253,2.126972 -19.65705,6.305123 -4.83134,4.259461 -7.20943,11.469823 -7.29126,21.787146 0,10.481816 2.37705,17.854903 7.04525,21.951639 4.65372,4.177943 11.29595,6.224751 19.88505,6.224751 z"
       id="path8918" /><path
       style="fill:#ffffff"
       inkscape:connector-curvature="0"
       d="m 423.23246,26.309961 10.73064,0 c 3.5234,0 7.12196,-1.639424 7.12196,-8.604814 0,-0.815902 -0.0793,-1.800066 -0.24401,-2.618476 l -41.68782,0 c -3.52183,0 -7.12759,1.638903 -7.12759,8.598775 0,0.822003 0.0829,1.801107 0.25113,2.624619 l 17.60608,0 0,43.408755 c 0.98518,0.163693 2.12947,0.241464 3.2778,0.241464 8.18442,0 10.07194,-2.370487 10.07194,-6.630364 l 0,-37.019512 z"
       id="path8920" /><path
       style="fill:#ffffff"
       inkscape:connector-curvature="0"
       d="m 493.43398,53.991826 c 0,-8.929221 -5.82164,-13.27197 -15.07205,-15.317736 l -16.21932,-3.683003 c -2.9484,-0.65577 -5.40582,-1.558114 -5.40582,-4.505994 0,-3.194934 2.53665,-4.421665 9.33535,-4.421665 8.02992,0 9.91442,0.408716 17.20005,0.408716 3.36224,0 6.79871,-1.557594 6.79871,-8.19056 0,-0.820482 -0.0742,-1.721775 -0.24146,-2.541226 -4.91578,-0.407185 -13.68113,-0.899783 -24.49297,-0.899783 -16.29638,0 -22.52529,7.044722 -22.52529,16.052755 0,8.436571 5.32399,13.109558 14.74513,15.317736 l 16.21725,3.766916 c 3.77046,0.897742 5.81706,2.539248 5.81706,4.913169 0,3.196496 -2.8697,4.424685 -9.6632,4.424685 -8.0269,0 -11.71137,-0.571899 -19.00844,-0.571899 -3.35766,0 -6.79612,1.552492 -6.79612,8.188998 0,0.818441 0.0813,1.718235 0.24706,2.539248 4.91223,0.487507 15.48014,1.064527 26.29199,1.064527 16.30366,0 22.77932,-6.960809 22.77932,-16.545195 z"
       id="path8922" /><path
       d="M 16.517846,84.17724 C 4.2431045,84.17724 0,80.233918 0,73.743872 L 0,10.979368 C 0,4.4893233 4.3946406,0.54600201 16.517846,0.54600201 l 1078.964354,0 c 12.2747,0 16.5178,3.94332129 16.5178,10.43336599 l 0,63.175267 c 0,6.490047 -4.3946,10.433367 -16.5178,10.433367 l -1077.448955,0 z"
       id="path17"
       style="fill:url(#SVGID_1_-6)"
       inkscape:connector-curvature="0" /><rect
       height="83.79509"
       width="358.56601"
       y="-0.057087708"
       x="152.254"
       id="rect30"
       style="overflow:visible;fill:url(#SVGID_2_-4-9)" /><g
       transform="matrix(1.5174672,0,0,0.82151913,-92.457997,-48.908638)"
       id="g32"
       style="opacity:0.4"><path
         d="m 785,139 c 6.9,6.9 7.9,13.3 8.1,14.8 0.7,0 0.9,-3 0.9,-7.6 l 0,-72.6 c 0,-8.4 -2.7,-11.3 -9.9,-11.3 -2.4,0 -4.8,1.3 -8,1.3 l -697,0 c -3.2,0 -5.6,-1.3 -8,-1.3 -7.1,0 -9.9,2.8 -9.9,11.3 l 0,72.6 c 0,4.5 0.3,7.6 0.9,7.6 0.2,-1.4 0.5,-8.4 8.1,-14.8 61.3,-47.2 648,-61.7 714,0 z"
         id="path34"
         inkscape:connector-curvature="0"
         style="fill:#ffffff" /></g><path
       d="m 546.49507,70.450989 c -1.24748,0 -2.6792,-0.0706 -4.29517,-0.21154 -1.61601,-0.14096 -2.99063,-0.41048 -4.1239,-0.80843 l -11.22458,-53.49127 c 0.84953,-0.45325 1.85562,-0.82178 3.01831,-1.10559 1.16268,-0.2837 2.50877,-0.42557 4.03825,-0.42561 2.09871,4e-5 3.7718,0.3543 5.01927,1.06275 1.24746,0.70857 2.04075,2.05508 2.37988,4.03956 l 2.97679,17.60377 c 0.62457,3.45866 1.17779,7.04491 1.65968,10.75871 0.48183,3.71387 0.92085,7.3001 1.31709,10.75874 l 0.25434,0 c 0.51038,-3.45864 1.06317,-7.00249 1.65838,-10.63156 0.59517,-3.62904 1.34692,-7.371 2.25529,-11.22589 l 3.91109,-16.7525 c 0.45327,-1.98448 1.41699,-3.40194 2.89113,-4.25238 1.4741,-0.85031 3.51485,-1.27552 6.12226,-1.27556 1.30453,4e-5 2.58054,0.071 3.82805,0.21281 1.24741,0.14202 2.353,0.41097 3.31676,0.80712 l 4.84797,21.34617 c 0.79238,3.57113 1.50047,7.28453 2.12425,11.14023 0.62368,3.85573 1.16306,7.39958 1.61816,10.63156 l 0.33997,0 c 0.16945,-1.58831 0.38189,-3.34617 0.63714,-5.27361 0.25515,-1.92741 0.5242,-3.85483 0.80713,-5.78229 0.28283,-1.92739 0.55188,-3.81243 0.80714,-5.6551 0.25515,-1.84263 0.52462,-3.52954 0.80843,-5.06079 l 3.06243,-18.02941 c 0.28368,-1.75779 1.02074,-2.9486 2.21118,-3.57238 1.19029,-0.62368 2.72064,-0.93555 4.59103,-0.93561 1.30449,6e-5 2.52384,0.14202 3.65805,0.42564 1.13405,0.2838 2.09735,0.56754 2.88983,0.85124 l -10.45896,48.90023 c -0.28381,1.24746 -0.68089,2.25357 -1.19123,3.01829 -0.51046,0.76476 -1.16231,1.35993 -1.95554,1.78557 -0.79336,0.42561 -1.71468,0.72322 -2.76397,0.89277 -1.04942,0.16966 -2.22551,0.25434 -3.52829,0.25434 -1.19042,0 -2.5512,-0.0706 -4.08236,-0.21154 -1.53127,-0.14096 -2.86351,-0.41048 -3.99674,-0.80844 l -5.52793,-23.98035 c -0.45336,-2.0416 -0.92094,-4.52226 -1.40275,-7.44196 -0.48191,-2.91967 -0.94949,-5.74028 -1.40274,-8.4619 l -0.17136,0 c -0.45334,2.72162 -0.94948,5.52797 -1.48839,8.41908 -0.53899,2.89115 -1.09136,5.38609 -1.65708,7.48478 l -4.93363,19.04934 c -0.6229,2.43782 -1.60088,4.03912 -2.93396,4.80386 -1.33314,0.76474 -3.30339,1.14711 -5.91076,1.14711 z"
       style="font-style:normal;font-variant:normal;font-weight:bold;font-stretch:normal;font-size:medium;line-height:125%;font-family:'Sky Text';-inkscape-font-specification:'Sky Text Bold';letter-spacing:0px;word-spacing:0px;overflow:visible;fill:#ffffff;fill-opacity:1;stroke:none"
       id="path3059-7"
       inkscape:connector-curvature="0" /><path
       d="m 631.17641,71.047899 c -4.25111,0 -8.10596,-0.76561 -11.56457,-2.29682 -3.45864,-1.53122 -6.42115,-3.60051 -8.88752,-6.2079 -2.46639,-2.60739 -4.36569,-5.66894 -5.69794,-9.18469 -1.33225,-3.51572 -1.99836,-7.28579 -1.99836,-11.31023 0,-3.969 0.66611,-7.69669 1.99836,-11.18305 1.33225,-3.48628 3.23155,-6.51928 5.69794,-9.09904 2.46637,-2.57966 5.42888,-4.60655 8.88752,-6.08074 3.45861,-1.47405 7.31346,-2.21111 11.56457,-2.21118 4.25276,7e-5 8.10846,0.73713 11.56714,2.21118 3.4586,1.47419 6.4211,3.50108 8.88754,6.08074 2.46632,2.57976 4.36563,5.61276 5.69792,9.09904 1.33218,3.48636 1.99832,7.21405 1.99836,11.18305 -4e-5,4.02444 -0.66618,7.79451 -1.99836,11.31023 -1.33229,3.51575 -3.2316,6.5773 -5.69792,9.18469 -2.46644,2.60739 -5.42894,4.67668 -8.88754,6.2079 -3.45868,1.53121 -7.31438,2.29682 -11.56714,2.29682 z m -0.0831,-12.24712 c 1.92739,2e-5 3.74151,-0.42517 5.44231,-1.27557 1.70073,-0.85038 3.18869,-2.02691 4.46388,-3.52958 1.2751,-1.50265 2.26737,-3.26009 2.97677,-5.27231 0.70933,-2.01218 1.06402,-4.18097 1.06406,-6.50636 -4e-5,-2.3236 -0.34044,-4.49196 -1.02122,-6.50506 -0.68087,-2.01303 -1.63075,-3.75662 -2.84964,-5.23079 -1.21895,-1.47407 -2.67878,-2.63632 -4.37951,-3.48674 -1.70082,-0.85036 -3.572,-1.27555 -5.61359,-1.27559 -1.98282,4e-5 -3.81075,0.41139 -5.48383,1.23405 -1.67311,0.82276 -3.13337,1.97116 -4.38083,3.44524 -1.24748,1.47414 -2.22547,3.21731 -2.93395,5.22947 -0.70853,2.01225 -1.0628,4.18103 -1.06277,6.50638 -3e-5,2.38075 0.35424,4.59148 1.06277,6.63222 0.70848,2.04077 1.6722,3.81247 2.89113,5.31512 1.21891,1.5027 2.6649,2.66495 4.33802,3.48677 1.67305,0.82185 3.50186,1.23277 5.4864,1.23275 z"
       style="font-style:normal;font-variant:normal;font-weight:bold;font-stretch:normal;font-size:medium;line-height:125%;font-family:'Sky Text';-inkscape-font-specification:'Sky Text Bold';letter-spacing:0px;word-spacing:0px;overflow:visible;fill:#ffffff;fill-opacity:1;stroke:none"
       id="path3061-9"
       inkscape:connector-curvature="0" /><path
       d="m 701.66673,70.450989 c -1.92746,0 -3.51447,-0.32571 -4.76104,-0.97713 -1.24663,-0.6514 -2.43741,-1.79981 -3.57238,-3.44523 l -10.8846,-15.64693 -2.12554,0 0,13.86139 c -2e-5,1.64539 -0.51042,3.04901 -1.5312,4.21084 -1.02083,1.16182 -2.94826,1.74272 -5.78229,1.74272 -1.19038,0 -2.36689,-0.0566 -3.52958,-0.17008 -1.16268,-0.11332 -2.14111,-0.25477 -2.93525,-0.42432 l 0,-48.22027 c 0,-0.96366 0.0995,-1.87072 0.29845,-2.72114 0.199,-0.85033 0.56749,-1.57313 1.10559,-2.16836 0.53808,-0.59512 1.30325,-1.0627 2.29552,-1.40274 0.99225,-0.33994 2.28253,-0.50992 3.87086,-0.50998 l 13.09578,0 c 3.40151,6e-5 6.47733,0.38286 9.22751,1.14841 2.75009,0.76567 5.10314,1.88508 7.05915,3.35829 1.95592,1.47331 3.47243,3.3298 4.54951,5.56947 1.077,2.23977 1.61553,4.83374 1.61557,7.78194 -4e-5,4.42238 -1.1199,8.03673 -3.35959,10.84307 -2.23977,2.80639 -5.48602,4.69141 -9.73878,5.65511 l 14.71264,19.38931 c -1.24753,0.62462 -2.67881,1.13502 -4.29391,1.53123 -1.61516,0.39621 -3.38731,0.59431 -5.31642,0.59431 z m -21.34356,-30.27391 6.46224,0 c 3.40151,2e-5 5.78269,-0.70849 7.14351,-2.12554 1.36076,-1.41699 2.04114,-3.1463 2.04118,-5.18795 -4e-5,-2.15405 -0.72281,-3.8691 -2.16836,-5.14515 -1.44559,-1.27597 -3.55771,-1.91398 -6.33635,-1.91402 l -7.14222,0 z"
       style="font-style:normal;font-variant:normal;font-weight:bold;font-stretch:normal;font-size:medium;line-height:125%;font-family:'Sky Text';-inkscape-font-specification:'Sky Text Bold';letter-spacing:0px;word-spacing:0px;overflow:visible;fill:#ffffff;fill-opacity:1;stroke:none"
       id="path3063-9"
       inkscape:connector-curvature="0" /><path
       d="m 725.1073,69.856669 c -1.58833,0 -2.87861,-0.17008 -3.87086,-0.50997 -0.99227,-0.33998 -1.75746,-0.80756 -2.29554,-1.40275 -0.53808,-0.59519 -0.90661,-1.31796 -1.10559,-2.16836 -0.199,-0.85038 -0.29846,-1.75742 -0.29846,-2.72115 l 0,-42.69231 c 0,-1.64363 0.5104,-3.0468 1.53123,-4.20954 1.0208,-1.16263 2.94821,-1.74398 5.78228,-1.74402 1.19036,4e-5 2.36687,0.0568 3.52957,0.16987 1.16267,0.11332 2.14108,0.2557 2.93527,0.42693 l 0,42.43537 24.40598,0 c 0.11417,0.67998 0.24218,1.4737 0.3841,2.38118 0.1418,0.90749 0.21277,1.95642 0.21281,3.14677 -4e-5,2.6645 -0.55283,4.47859 -1.65838,5.44231 -1.10563,0.9637 -2.62299,1.44557 -4.55211,1.44557 z"
       style="font-style:normal;font-variant:normal;font-weight:bold;font-stretch:normal;font-size:medium;line-height:125%;font-family:'Sky Text';-inkscape-font-specification:'Sky Text Bold';letter-spacing:0px;word-spacing:0px;overflow:visible;fill:#ffffff;fill-opacity:1;stroke:none"
       id="path3065-0"
       inkscape:connector-curvature="0" /><path
       d="m 770.11978,69.856669 c -1.58833,0 -2.87861,-0.17008 -3.87086,-0.50997 -0.99227,-0.33998 -1.75743,-0.80756 -2.29552,-1.40275 -0.5381,-0.59519 -0.90663,-1.31796 -1.10558,-2.16836 -0.199,-0.85038 -0.29846,-1.75742 -0.29846,-2.72115 l 0,-41.67238 c 0,-0.96365 0.0995,-1.87071 0.29846,-2.72113 0.19899,-0.85034 0.56748,-1.57313 1.10558,-2.16836 0.53809,-0.59513 1.30325,-1.06271 2.29552,-1.40275 0.99225,-0.33993 2.28253,-0.50991 3.87086,-0.50998 l 10.54462,0 c 4.81853,7e-5 9.11286,0.63763 12.88296,1.91273 3.77002,1.2752 6.97347,3.10357 9.61031,5.48513 2.63675,2.38164 4.6494,5.24465 6.03792,8.58905 1.38842,3.34449 2.08266,7.08688 2.0827,11.22717 -4e-5,3.91198 -0.69428,7.56872 -2.0827,10.97026 -1.38852,3.40155 -3.41501,6.36363 -6.07944,8.88621 -2.66454,2.52262 -5.92463,4.52099 -9.78031,5.9951 -3.85574,1.47412 -8.27767,2.21118 -13.26575,2.21118 z m 6.2079,-11.99018 5.01668,0 c 2.21115,0 4.28044,-0.34041 6.2079,-1.02125 1.92739,-0.68081 3.60006,-1.70161 5.01797,-3.06243 1.41786,-1.36076 2.53772,-3.04727 3.35958,-5.05949 0.82181,-2.01218 1.23273,-4.35052 1.23277,-7.01504 -4e-5,-2.43779 -0.41096,-4.59231 -1.23277,-6.46353 -0.82186,-1.87116 -1.94172,-3.44434 -3.35958,-4.71952 -1.41791,-1.2751 -3.10484,-2.25308 -5.06079,-2.93395 -1.95599,-0.68078 -4.06727,-1.02121 -6.33376,-1.02125 l -4.848,0 z"
       style="font-style:normal;font-variant:normal;font-weight:bold;font-stretch:normal;font-size:medium;line-height:125%;font-family:'Sky Text';-inkscape-font-specification:'Sky Text Bold';letter-spacing:0px;word-spacing:0px;overflow:visible;fill:#ffffff;fill-opacity:1;stroke:none"
       id="path3067-0"
       inkscape:connector-curvature="0" /><path
       d="m 860.38874,70.876599 c -4.02617,0 -7.74002,-0.72277 -11.14153,-2.16833 -3.40155,-1.44557 -6.34937,-3.44393 -8.84342,-5.99511 -2.49407,-2.55113 -4.45004,-5.58416 -5.86792,-9.09903 -1.41789,-3.51485 -2.12684,-7.31392 -2.12682,-11.39717 -2e-5,-3.96727 0.70893,-7.68025 2.12682,-11.13893 1.41788,-3.4586 3.37385,-6.4635 5.86792,-9.0147 2.49405,-2.55111 5.44187,-4.54947 8.84342,-5.9951 3.40151,-1.4455 7.11536,-2.1683 11.14153,-2.16834 2.89109,4e-5 5.69746,0.31191 8.41908,0.93559 2.72154,0.62378 5.24414,1.4175 7.56783,2.38118 0.51036,7.54019 -1.33229,11.31025 -5.52795,11.31021 -0.7371,4e-5 -1.4175,-0.0852 -2.04118,-0.25564 -0.62378,-0.17029 -1.30416,-0.34036 -2.0412,-0.50997 -0.73708,-0.16945 -1.55893,-0.33951 -2.46549,-0.50998 -0.90666,-0.1703 -1.9837,-0.25557 -3.23114,-0.25561 -1.98454,4e-5 -3.85531,0.35428 -5.61228,1.06275 -1.75703,0.70854 -3.27353,1.72892 -4.54952,3.06113 -1.27603,1.33229 -2.28257,2.93399 -3.01961,4.80515 -0.73708,1.87124 -1.10561,3.96866 -1.10559,6.29226 -2e-5,2.43786 0.36851,4.62091 1.10559,6.54918 0.73704,1.92832 1.74358,3.55858 3.01961,4.89081 1.27599,1.33224 2.79249,2.35262 4.54952,3.06113 1.75697,0.70853 3.62774,1.06277 5.61228,1.06277 1.24744,0 2.35303,-0.0853 3.31677,-0.25564 0.96368,-0.17051 1.82834,-0.3404 2.59398,-0.50997 0.76557,-0.16945 1.48836,-0.33953 2.16836,-0.50998 0.67991,-0.17051 1.38844,-0.25561 2.12554,-0.25564 4.13855,3e-5 5.9812,3.77009 5.52792,11.31024 -2.32366,0.96369 -4.91721,1.75743 -7.78064,2.38115 -2.86348,0.62374 -5.74079,0.93559 -8.63188,0.93559 z"
       style="font-style:normal;font-variant:normal;font-weight:bold;font-stretch:normal;font-size:medium;line-height:125%;font-family:'Sky Text';-inkscape-font-specification:'Sky Text Bold';letter-spacing:0px;word-spacing:0px;overflow:visible;fill:#ffffff;fill-opacity:1;stroke:none"
       id="path3069-8"
       inkscape:connector-curvature="0" /><path
       d="m 906.512,71.133539 c -3.7424,0 -7.08772,-0.63801 -10.03594,-1.91402 -2.94824,-1.276 -5.44273,-3.01959 -7.48346,-5.23077 -2.04078,-2.21118 -3.59966,-4.7766 -4.6767,-7.69631 -1.07706,-2.91966 -1.61557,-6.05172 -1.61557,-9.39619 l 0,-26.53412 c 0,-1.64363 0.5104,-3.0468 1.53123,-4.20954 1.0208,-1.16263 2.94822,-1.74398 5.78226,-1.74402 1.19036,4e-5 2.36689,0.0568 3.52959,0.16987 1.16267,0.11332 2.14021,0.2557 2.93265,0.42693 l 0,31.97382 c -2e-5,3.68532 0.90704,6.56261 2.72116,8.6319 1.81407,2.0693 4.28089,3.10395 7.40044,3.10395 3.06067,0 5.52661,-1.03465 7.39783,-3.10395 1.87116,-2.06929 2.80675,-4.94658 2.80679,-8.6319 l 0,-26.61717 c -4e-5,-1.64363 0.50994,-3.0468 1.52991,-4.20954 1.01991,-1.16263 2.94777,-1.74397 5.78358,-1.74402 1.19034,5e-5 2.35259,0.0568 3.48677,0.16987 1.13408,0.11332 2.09735,0.2557 2.88984,0.42694 l 0,31.89077 c -7e-5,3.34447 -0.58097,6.47653 -1.74273,9.39619 -1.16186,2.91971 -2.76316,5.48513 -4.80385,7.69631 -2.0408,2.21118 -4.5353,3.95477 -7.48349,5.23076 -2.94828,1.27602 -6.26503,1.91402 -9.95031,1.91402 z"
       style="font-style:normal;font-variant:normal;font-weight:bold;font-stretch:normal;font-size:medium;line-height:125%;font-family:'Sky Text';-inkscape-font-specification:'Sky Text Bold';letter-spacing:0px;word-spacing:0px;overflow:visible;fill:#ffffff;fill-opacity:1;stroke:none"
       id="path3071-8"
       inkscape:connector-curvature="0" /><path
       d="m 945.90833,70.196649 c -1.19039,0 -2.36691,-0.0566 -3.52958,-0.17008 -1.1627,-0.11332 -2.14111,-0.25477 -2.93527,-0.42432 l 0,-48.22027 c 0,-0.96366 0.0995,-1.87072 0.29845,-2.72114 0.199,-0.85033 0.56751,-1.57313 1.10559,-2.16836 0.53809,-0.59512 1.30327,-1.0627 2.29554,-1.40274 0.99225,-0.33994 2.28253,-0.50992 3.87086,-0.50998 l 11.73583,0 c 4.13859,6e-5 7.69584,0.51004 10.6718,1.52993 2.97588,1.01999 5.39943,2.42316 7.27067,4.20954 1.87114,1.78645 3.2462,3.87003 4.12518,6.25072 0.87889,2.38077 1.31836,4.90337 1.3184,7.56782 -4e-5,2.94826 -0.52473,5.65558 -1.57404,8.12193 -1.0494,2.46641 -2.53778,4.5928 -4.46517,6.37919 -1.92746,1.78644 -4.22341,3.17534 -6.88786,4.16672 -2.66452,0.9914 -5.64131,1.48711 -8.93035,1.48709 l -7.05656,0 0,9.9503 c -2e-5,1.6454 -0.51042,3.04902 -1.53122,4.21084 -1.02083,1.16182 -2.94824,1.74272 -5.78227,1.74272 z m 7.31349,-27.63971 4.76234,0 c 3.85483,2e-5 6.54741,-0.7937 8.0778,-2.38116 1.53031,-1.58741 2.29548,-3.57151 2.29552,-5.95228 -4e-5,-2.4378 -0.79376,-4.35095 -2.38118,-5.73945 -1.58746,-1.38844 -3.82676,-2.08268 -6.71787,-2.08272 l -6.03661,0 z"
       style="font-style:normal;font-variant:normal;font-weight:bold;font-stretch:normal;font-size:medium;line-height:125%;font-family:'Sky Text';-inkscape-font-specification:'Sky Text Bold';letter-spacing:0px;word-spacing:0px;overflow:visible;fill:#ffffff;fill-opacity:1;stroke:none"
       id="path3073-4"
       inkscape:connector-curvature="0" /><path
       style="overflow:visible;fill:#ffffff"
       inkscape:connector-curvature="0"
       d="m 100.7243,77.811909 c 0.99026,0.50937 3.00025,1.11377 5.51919,1.18144 4.33984,0.0925 6.70013,-1.56728 8.45282,-5.45558 l 23.25614,-51.86667 c -0.95875,-0.51089 -3.0953,-1.08431 -4.81812,-1.11784 -2.99826,-0.0636 -7.01775,0.54343 -9.56866,6.6691 l -7.52821,17.76328 -14.77637,-24.04946 c -0.95772,-0.28722 -3.285503,-0.70152 -4.978231,-0.70152 -5.229459,0 -8.132573,1.91292 -11.1627,5.19937 l -14.352635,15.69669 11.544783,18.17765 c 2.13759,3.31747 4.945755,5.00832 9.50714,5.00832 2.999308,0 5.487646,-0.69694 6.633999,-1.24141 l -13.907038,-20.95843 9.856946,-10.46411 16.173526,25.3904 -9.86549,20.7679 z M 70.216885,58.192339 c 0,3.82688 -1.500644,6.03214 -8.963786,6.03214 -0.990265,0 -1.849414,-0.0671 -2.679484,-0.19571 l 0,-50.71521 c 0,-3.8598905 1.30752,-7.8804205 8.835105,-7.8804205 0.957731,0 1.912922,0.0976 2.808165,0.28722 l 0,52.4715505 z m -15.395819,-7.65419 c 0,7.14332 -4.657475,12.34435 -14.131921,13.36567 -6.857636,0.73406 -16.778405,-0.12861 -21.497715,-0.67051 -0.16116,-0.76659 -0.28874,-1.72073 -0.28874,-2.4874 0,-6.22225 3.34901,-7.65418 6.50689,-7.65418 3.28644,0 8.454369,0.5719 12.282918,0.5719 4.240618,0 5.516593,-1.43714 5.516593,-2.80713 0,-1.78788 -1.689709,-2.51738 -4.97574,-3.15631 L 29.23812,45.976859 C 21.77353,44.539719 17.786,39.372829 17.786,33.886539 c 0,-6.664 4.72005,-12.24753 14.00387,-13.26677 7.017754,-0.76659 15.565515,0.094 20.256721,0.66797 0.158601,0.79811 0.253664,1.56218 0.253664,2.39277 0,6.22069 -3.28551,7.56017 -6.44286,7.56017 -2.424831,0 -6.187167,-0.44684 -10.495351,-0.44684 -4.371794,0 -6.188104,1.2134 -6.188104,2.67855 0,1.56321 1.72178,2.20016 4.466329,2.67802 l 8.580451,1.5957 c 8.802519,1.62516 12.59942,6.6339 12.59942,12.79098 z"
       id="path8910-8" /><path
       style="overflow:visible;fill:#ffffff"
       inkscape:connector-curvature="0"
       d="m 218.22934,53.991489 c 0,-8.92922 -5.81351,-13.27197 -15.07099,-15.31774 l -16.2183,-3.683 c -2.94839,-0.65577 -5.40685,-1.55811 -5.40685,-4.50599 0,-3.19494 2.54122,-4.42167 9.33744,-4.42167 8.02783,0 9.91233,0.40872 17.20108,0.40872 3.36069,0 6.79871,-1.5576 6.79871,-8.19056 0,-0.82049 -0.0793,-1.72178 -0.24401,-2.54123 -4.91577,-0.40718 -13.67904,-0.89978 -24.48985,-0.89978 -16.29949,0 -22.52632,7.04472 -22.52632,16.05275 0,8.43657 5.32544,13.10956 14.74409,15.31774 l 16.2162,3.76691 c 3.77046,0.89775 5.8181,2.53925 5.8181,4.91317 0,3.1965 -2.8671,4.42469 -9.66476,4.42469 -8.02533,0 -11.7124,-0.5719 -19.00324,-0.5719 -3.3587,0 -6.79767,1.55249 -6.79767,8.189 0,0.81844 0.0818,1.71823 0.24553,2.53925 4.91682,0.4875 15.48119,1.06452 26.28992,1.06452 16.28284,0 22.75849,-6.96081 22.75849,-16.54519 z"
       id="path8912-1" /><path
       style="overflow:visible;fill:#ffffff"
       inkscape:connector-curvature="0"
       d="m 352.05262,39.575349 0,-13.67696 12.85865,0 c 5.49171,0 9.8305,0.8159 9.8305,6.55009 0,4.82936 -3.27426,7.12655 -9.8305,7.12655 l -12.85241,0 z m -0.0729,10.8108 6.79663,0 13.12309,15.6436 c 2.45023,3.0293 4.8303,4.58783 10.39988,4.58783 3.76837,0 6.30606,-0.49056 8.3486,-1.4768 l -17.04699,-19.73618 c 9.58647,-2.04608 14.41614,-8.27541 14.41614,-17.44679 0,-11.30325 -6.88303,-16.87314 -20.80226,-16.87314 l -19.90066,-0.0803 c -6.46827,0.24502 -8.60336,2.45481 -8.60336,8.3537 l 0,46.35924 c 0.98163,0.16369 2.13509,0.24146 3.27884,0.24146 8.189,0 10.07194,-2.37049 10.07194,-6.63037 l -0.10411,-12.94298 z"
       id="path8914-3" /><path
       style="overflow:visible;fill:#ffffff"
       inkscape:connector-curvature="0"
       d="m 237.46891,41.050589 0,-15.07204 13.34797,0 c 6.63911,0 9.91691,2.45742 9.91691,7.29178 0,5.16178 -3.2778,7.78026 -9.91691,7.78026 l -13.34381,0 z m -13.34693,28.66779 c 0.9857,0.16369 2.13301,0.24146 3.27583,0.24146 8.19358,0 10.07548,-2.37048 10.07548,-6.63036 l 0,-11.22204 13.92265,0 c 15.15324,0 22.68874,-6.55114 22.68874,-18.83771 0,-11.87689 -7.53529,-18.18389 -21.7861,-18.18389 l -19.57793,0 c -6.55114,0 -8.59877,2.53925 -8.59877,8.3537 l 0,46.27908 z"
       id="path8916-6" /><path
       style="overflow:visible;fill:#ffffff"
       inkscape:connector-curvature="0"
       d="m 318.39379,41.705439 c 0,6.31064 -1.06453,10.72752 -3.19349,13.3511 -2.04659,2.70134 -5.40883,3.93162 -9.99416,3.93162 -4.66924,-0.0839 -8.02179,-1.39238 -10.15585,-3.93162 -2.1254,-2.53873 -3.19243,-6.96081 -3.19243,-13.3511 0,-6.30606 1.14636,-10.72752 3.27531,-13.26989 2.13051,-2.62055 5.48764,-3.84874 10.07297,-3.84874 4.58533,0 7.86365,1.22819 9.99416,3.84874 2.12385,2.54133 3.18578,6.9629 3.18578,13.26989 z m -13.19077,28.17639 c 8.59877,0 15.23653,-2.0466 19.90692,-6.22475 4.66465,-4.09736 7.04524,-11.47086 7.04524,-21.95164 -0.088,-10.31794 -2.45992,-17.52799 -7.29126,-21.78714 -4.83644,-4.17815 -11.38445,-6.30513 -19.66121,-6.30513 -8.27031,0 -14.8253,2.12698 -19.65705,6.30513 -4.83134,4.25946 -7.20943,11.46982 -7.29126,21.78714 0,10.48182 2.37705,17.85491 7.04525,21.95164 4.65372,4.17794 11.29595,6.22475 19.88505,6.22475 z"
       id="path8918-0" /><path
       style="overflow:visible;fill:#ffffff"
       inkscape:connector-curvature="0"
       d="m 423.23278,26.309619 10.73064,0 c 3.5234,0 7.12196,-1.63942 7.12196,-8.60481 0,-0.8159 -0.0793,-1.80007 -0.24401,-2.61848 l -41.68782,0 c -3.52183,0 -7.12759,1.63891 -7.12759,8.59878 0,0.822 0.0829,1.80111 0.25113,2.62462 l 17.60608,0 0,43.40875 c 0.98518,0.1637 2.12947,0.24147 3.2778,0.24147 8.18442,0 10.07194,-2.37049 10.07194,-6.63037 l 0,-37.01951 z"
       id="path8920-1" /><path
       style="overflow:visible;fill:#ffffff"
       inkscape:connector-curvature="0"
       d="m 493.4343,53.991489 c 0,-8.92922 -5.82164,-13.27197 -15.07205,-15.31774 l -16.21932,-3.683 c -2.9484,-0.65577 -5.40582,-1.55811 -5.40582,-4.50599 0,-3.19494 2.53665,-4.42167 9.33535,-4.42167 8.02992,0 9.91442,0.40872 17.20005,0.40872 3.36224,0 6.79871,-1.5576 6.79871,-8.19056 0,-0.82049 -0.0742,-1.72178 -0.24146,-2.54123 -4.91578,-0.40718 -13.68113,-0.89978 -24.49297,-0.89978 -16.29638,0 -22.52529,7.04472 -22.52529,16.05275 0,8.43657 5.32399,13.10956 14.74513,15.31774 l 16.21725,3.76691 c 3.77046,0.89775 5.81706,2.53925 5.81706,4.91317 0,3.1965 -2.8697,4.42469 -9.6632,4.42469 -8.0269,0 -11.71137,-0.5719 -19.00844,-0.5719 -3.35766,0 -6.79612,1.55249 -6.79612,8.189 0,0.81844 0.0813,1.71823 0.24706,2.53925 4.91223,0.4875 15.48014,1.06452 26.29199,1.06452 16.30366,0 22.77932,-6.96081 22.77932,-16.54519 z"
       id="path8922-4" /><path
       d="m 1061.0616,52.940239 0,-25.307089 7.4129,0 c 10.2996,0 14.0654,6.654942 14.0654,12.654138 0,6.00276 -3.7658,12.652951 -14.0654,12.652951 l -7.4129,0 z m 32.0036,-12.652951 c 0,-13.180407 -9.4799,-22.136428 -25.1847,-22.136428 l -10.7035,0 c -5.1082,0 -6.3437,2.710928 -6.3437,6.248669 l 0,31.832542 c 0,3.417768 1.2355,6.179767 6.3437,6.179767 l 10.7035,0 c 15.7167,0 25.1966,-8.941766 25.1966,-22.12455 m -58.899,-5.122476 0,-11.988889 c 0,-3.240749 1.2949,-5.305421 7.995,-5.305421 0.8315,0 1.5443,0.06177 2.3759,0.178194 l 0,39.333326 c 0,3.231246 -1.3068,5.28998 -8.0187,5.28998 -0.8197,0 -1.5325,-0.05702 -2.3522,-0.171067 l 0,-17.863336 -20.8962,0 0,12.744423 c 0,3.231246 -1.2949,5.28998 -8.0069,5.28998 -0.8196,0 -1.5324,-0.05702 -2.3521,-0.171067 l 0,-39.325012 c 0,-3.240749 1.2949,-5.305421 8.0068,-5.305421 0.8197,0 1.5206,0.06177 2.3522,0.178194 l 0,17.116116 20.8962,0 z"
       id="path94"
       inkscape:connector-curvature="0"
       style="overflow:visible;fill:#ffffff" /></g></svg>