<svg height="96.837494mm" viewBox="0 0 3267.1877 343.12499" width="922.07294mm" xmlns="http://www.w3.org/2000/svg" xmlns:xlink="http://www.w3.org/1999/xlink"><linearGradient id="a" gradientTransform="matrix(0 328.23214 328.23214 0 1382.4224 -219.39297)" gradientUnits="userSpaceOnUse" spreadMethod="pad" x1="0" x2="1" y1="0" y2="0"><stop offset="0" stop-color="#777878"/><stop offset=".020448" stop-color="#d0d2d0"/><stop offset=".0524045" stop-color="#f3f3f2"/><stop offset=".487663" stop-color="#e9ebe9"/><stop offset=".895488" stop-color="#f3f3f2"/><stop offset=".929442" stop-color="#e6e7e6"/><stop offset=".964262" stop-color="#d0d2d0"/><stop offset="1" stop-color="#777878"/></linearGradient><linearGradient id="b" gradientTransform="matrix(0 -322.81634 597.27114 0 1940.9415 106.34829)" gradientUnits="userSpaceOnUse" spreadMethod="pad" x1="0" x2="1" y1="0" y2="0"><stop offset="0" stop-color="#820021"/><stop offset=".104411" stop-color="#ae2c3f"/><stop offset=".898134" stop-color="#ae2c3f"/><stop offset=".999673" stop-color="#b53152"/><stop offset="1" stop-color="#ba3c4c"/></linearGradient><clipPath id="c"><path d="m291.438 532.077h118.288v-15.246h-118.288z"/></clipPath><clipPath id="d"><path d="m291.438 516.831h118.289v15.245h-118.289z"/></clipPath><g transform="translate(-247.92647 227.86038)"><path d="m3465.8128 115.26463c37.7949 0 49.3014-23.486937 49.3014-46.973872v-249.177268c0-23.48693-11.5062-46.97387-49.3011-46.97387h-3168.58489c-37.79485 0-49.30174 23.48694-49.30174 46.97387v249.177268c0 23.486935 11.50689 46.973872 49.30174 46.973872zm-3166.84341-3.16061c-25.4363 0-42.65879-15.008174-42.65879-40.009174v-256.785446c0-25.00099 17.22249-40.00917 42.65879-40.00917h3165.10171c25.4364 0 42.659 15.00818 42.659 40.00917v256.785446c0 25.001-17.2226 40.009174-42.659 40.009174z" fill="#939697"/><path d="m295.11606-216.58438c-25.45522 0-34.50176 15.02709-34.50176 40.00917v242.799265c0 25.001 9.04654 40.009165 34.50176 40.009165h3172.80464c25.4552 0 34.5013-15.008165 34.5013-40.009165v-242.799265c0-24.98208-9.0461-40.00917-34.5013-40.00917z" fill="url(#a)"/><path d="m854.79023 106.34678h2172.27297v-322.81761h-2172.27297z" fill="url(#b)"/><g fill="#fff"><path d="m1014.121 46.953792c-14.30798 0-27.51822-2.573911-39.61176-7.721732-12.09363-5.166748-22.55958-12.282854-31.43582-21.367244-8.87616-9.1033171-15.82198-19.9099565-20.85624-32.438846-5.03426-12.528889-7.55139-26.060845-7.55139-40.614795 0-14.137586 2.51713-27.385656 7.55139-39.706359 5.03426-12.320706 11.98008-23.032716 20.85624-32.117106 8.87624-9.10332 19.34219-16.21942 31.43582-21.36724 12.09354-5.16675 25.30378-7.74066 39.61176-7.74066 10.2767 0 20.2505 1.11662 29.9216 3.33094 9.6901 2.23325 18.642 5.05319 26.9126 8.49769 1.8168 26.87466-4.7315 40.31199-19.6451 40.31199-2.6306 0-5.0342-.30282-7.2675-.90844-2.2143-.60563-4.6368-1.21126-7.2485-1.81688-2.6307-.60562-5.5453-1.21125-8.7626-1.81688-3.2364-.60563-7.0594-.92737-11.488-.92737-7.0594 0-13.7023 1.26804-19.9668 3.8041-6.24549 2.51713-11.62045 6.15088-16.1626 10.901261-4.54223 4.750381-8.11917 10.465977-10.73098 17.127862-2.63067 6.661891-3.93658 14.137586-3.93658 22.427092 0 8.686947 1.30591 16.465457 3.93658 23.335527 2.61181 6.870071 6.18875 12.680296 10.73098 17.430675 4.54215 4.7503794 9.91711 8.3841354 16.1626 10.9201944 6.2645 2.51713352 12.9074 3.78516338 19.9668 3.78516338 4.4286 0 8.3652-.30281319 11.7908-.90843958 3.4255-.6056256 6.4915-1.211252 9.2168-1.8168776 2.7253-.6056264 5.2992-1.2112528 7.7028-1.8168784 2.4225-.6056264 4.9396-.9084389 7.5704-.9084389 14.7053 0 21.2536 13.4373279 19.6449 40.2930577-8.2706 3.444498-17.4874 6.28337-27.6695 8.49769s-20.402 3.330944-30.6787 3.330944"/><path d="m1118.4495 44.529395c-4.2394 0-8.422-.208184-12.5478-.605627-4.1258-.397442-7.6082-.908439-10.4281-1.514064v-175.499074c0-5.84807 1.8168-10.84449 5.4316-14.98924 3.6338-4.14475 10.4849-6.20767 20.5724-6.20767 4.2394 0 8.4031.18925 12.5479.60563 4.1257.39744 7.6081.90844 10.428 1.51406v175.480147c0 5.867003-1.8168 10.863418-5.4506 15.008171-3.6148 4.144753-10.4849 6.207667-20.5534 6.207667"/><path d="m1201.1364 44.529395c-4.0312 0-7.9677-.208184-11.7908-.605627-3.8419-.397442-7.0593-.908439-9.6711-1.514064v-193.062234c3.0093-1.02199 6.9458-1.87365 11.7908-2.57391 4.8261-.71917 8.9519-1.05984 12.3965-1.05984 11.0715 0 19.1339 1.40051 24.1871 4.23938 5.0343 2.81995 9.2548 6.9647 12.6803 12.41534l68.6439 108.198874v-105.473564c0-2.61176.3407-5.09104 1.0599-7.41891.7003-2.32788 1.9115-4.3908 3.6148-6.20767 1.7222-1.81688 4.088-3.23632 7.1161-4.23938 3.0092-1.022 6.8512-1.51407 11.488-1.51407 4.0312 0 7.911.18925 11.6394.60563 3.7283.39744 6.889.79488 9.5197 1.21125v193.365039c-2.82 1.419435-6.2456 2.365726-10.2768 2.876723s-7.9677.757033-11.7908.757033c-9.4818 0-16.5411-1.305882-21.159-3.93657-4.6557-2.630688-8.4788-6.264444-11.4879-10.920194l-73.4701-117.586086v112.438264c0 5.658819-1.7223 10.409198-5.1478 14.251138-3.4256 3.841941-9.8793 5.753448-19.3422 5.753448"/><path d="m1415.9046 43.318143c-5.6399 0-10.2389-.605627-13.7591-1.816879s-6.2455-2.876724-8.157-4.996414c-1.9304-2.119691-3.2363-4.712528-3.9365-7.740658-.7003-3.02813-1.0599-6.245519-1.0599-9.690017v-148.510865c0-3.4445.3596-6.68081 1.0599-9.70894.7002-3.02813 2.0061-5.60204 3.9365-7.72173 1.9115-2.1197 4.6368-3.78517 8.157-4.99642s8.1192-1.81687 13.7591-1.81687h100.0608c.4164 2.21432.8138 5.24244 1.2113 9.08439.4163 3.84194.6056 7.77851.6056 11.80971 0 8.49769-1.7033 14.51609-5.1289 18.0363-3.4445 3.53912-7.7596 5.31815-13.0021 5.31815h-61.6792v34.539611h71.0475c.3974 2.025059.8138 4.712524 1.2112 8.043466.3975 3.330949.6057 6.926852.6057 10.749867 0 8.081323-1.6276 13.588733-4.845 16.522233-3.2174 2.933502-7.2486 4.390789-12.0936 4.390789h-55.9258v34.25572392h81.0214c.3975 2.21432038.8138 5.29922788 1.2113 9.23579708.3974 3.936569.6056 7.835287.6056 11.677227 0 8.686949-1.7223 14.743209-5.1478 18.187707-3.4256 3.425573-7.7596 5.147822-12.9831 5.147822z"/><path d="m1561.2303 44.529395c-4.6368 0-8.7248-.45422-12.245-1.362659-3.5391-.908439-6.6051-1.968285-9.2169-3.179537l18.4716-188.822839c3.842-1.62763 8.8763-2.93351 15.1217-3.93657 6.2456-1.022 11.5827-1.51407 16.0113-1.51407 6.2455 0 11.6394.39744 16.1627 1.21125 4.5421.79489 8.4219 2.15754 11.6394 4.08797 3.2174 1.91151 5.7912 4.59898 7.7028 8.02455 1.9115 3.4445 3.3687 7.68388 4.3907 12.73708l7.8542 36.678223c2.2143 10.087461 4.5801 21.253686 7.0972 33.479762 2.5171 12.226078 4.7882 24.811745 6.7944 37.738075h1.2112c2.2143-12.92633 4.5233-25.455219 6.9458-37.586663 2.4225-12.112527 4.9396-23.240903 7.5514-33.328364l9.6522-38.495103c2.4225-9.50076 6.2833-15.97338 11.6204-19.39896 5.3371-3.4445 13.6455-5.14782 24.9064-5.14782 5.6399 0 11.3176.45422 17.0521 1.36266 5.7346.90844 10.5228 1.85473 14.3458 2.87672l17.6768 190.034099c-2.82 1.003068-6.2077 2.025062-10.1254 3.02813-3.9365 1.003069-8.2137 1.514066-12.8506 1.514066-6.4537 0-11.9043-1.116624-16.333-3.330944-4.4286-2.214319-6.8511-6.377999-7.2486-12.434259l-4.5422-65.464391c-1.003-11.525817-1.8547-23.581567-2.5739-36.224009-.7002-12.623513-1.1545-24.584628-1.3626-35.902262h-.6057c-2.6117 10.503823-5.2802 21.85931-8.0056 34.085386-2.7253 12.226076-5.4885 23.486936-8.3084 33.801503l-12.3964 51.516065c-3.0281 12.131447-12.6046 18.187708-28.7294 18.187708-4.0312 0-8.1571-.397442-12.3964-1.211252-4.2204-.794885-7.8542-1.703324-10.8824-2.725318l-15.4056-64.253138c-3.0281-11.92326-5.848-23.638342-8.4598-35.164163-2.6307-11.506892-5.0532-23.032713-7.2675-34.539611h-.9085c-.6056 16.162644-1.4005 30.962637-2.4225 44.399961-1.003 13.437331-1.9115 25.001-2.7063 34.691017l-4.8451 59.105317c-.3974 5.867002-2.6117 9.917127-6.6429 12.131446-4.0501 2.21432-9.2737 3.330944-15.7274 3.330944"/><path d="m1846.4953-38.214264h45.2327l-22.5596-74.264886zm-47.1631 83.349284c-3.823 0-8.2138-.35959-13.1345-1.059845-4.9586-.719181-9.0276-1.665472-12.245-2.876724l62.7201-192.153791c5.4506-1.41944 10.9581-2.44143 16.5223-3.04705 5.5641-.60563 10.6552-.90845 15.311-.90845 6.6618 0 12.3774.511 17.1278 1.51407 4.7504 1.02199 8.7437 2.53606 11.9801 4.56113 3.2363 2.00613 5.9048 4.69359 8.0245 8.02454 2.1197 3.33094 3.8987 7.22966 5.3182 11.67723l53.7493 170.029508c-3.4256 1.419436-7.5514 2.460356-12.3965 3.179537-4.826.700255-9.5764 1.059845-14.2132 1.059845-5.2425 0-10.3146-.870587-15.2542-2.57391-4.9397-1.722249-8.5166-5.602041-10.731-11.677227l-10.2956-31.20866745h-65.9375l-8.7249 29.39178945c-2.2143 7.078254-5.9426 11.52582-11.1851 13.342698-5.2425 1.816879-10.7877 2.725317-16.6358 2.725317"/></g><path d="m3213.5765-75.799041v-45.573359c0-12.35855 4.9208-20.21277 30.4328-20.21277 3.1416 0 5.8291.20819 8.9708.70025v149.5328609c0 12.3017791-4.9207 20.1559911-30.4706 20.1559911-3.1038 0-5.8102-.246035-8.933-.700255v-67.90582h-79.4316v48.4500839c0 12.3017791-4.9397 20.1559911-30.4895 20.1559911-3.0849 0-5.7724-.246035-8.9519-.700255v-149.476077c0-12.35855 4.9397-20.21277 30.4705-20.21277 3.1418 0 5.8292.20819 8.9709.70025v65.085879zm226.1635 19.190778c0-50.796887-36.5836-85.260797-97.1462-85.260797h-41.1825c-19.7586 0-24.49 10.4092-24.49 24.09256v122.6582037c0 13.1155893 4.7314 23.7897483 24.49 23.7897483h41.1825c60.5626 0 97.1462-34.4639073 97.1462-85.279715m-123.3395 48.7718194v-97.5436464h28.5022c39.6875 0 54.2036 25.701257 54.2036 48.771827 0 23.127342-14.5161 48.7718194-54.2036 48.7718194z" fill="#ae2c3f"/><path d="m466.0559-24.142922c0 27.6316891-18.07415 47.825532-54.7713 51.818879-26.57185 2.838872-65.06695-.510997-83.34928-2.611762-.68134-2.990279-1.21126-6.699738-1.21126-9.614314 0-24.1871897 13.07774-29.694602 25.32274-29.694602 12.71815 0 32.74166 2.195395 47.6552 2.195395 16.37083 0 21.36724-5.56419 21.36724-10.844492 0-6.945773-6.60511-9.841423-19.32325-12.263927l-34.80458-6.699738c-28.97542-5.545264-44.43781-25.5877-44.43781-46.860315 0-25.852662 18.30127-47.484862 54.27924-51.478212 27.21532-2.9335 60.31657.37852 78.50427 2.61176.66241 3.12276 1.00307 6.07518 1.00307 9.3115 0 24.11149-12.69922 29.316086-24.96314 29.316086-9.40614 0-24.01686-1.760096-40.69051-1.760096-16.97645 0-24.01686 4.693601-24.01686 10.40919 0 6.037335 6.71867 8.535546 17.33605 10.390271l33.27159 6.16982c34.18001 6.302296 48.82859 25.720177 48.82859 49.604557m59.71094 29.6756766c0 14.8189124-5.81022 23.3733804-34.74778 23.3733804-3.84195 0-7.19182-.283887-10.4092-.757033v-196.639202c0-14.93247 5.09104-30.50842 34.3125-30.50842 3.67161 0 7.39999.37852 10.84448 1.0977zm118.28634 76.0628464c3.78517 1.949358 11.5826 4.29616 21.4051 4.561121 16.76827.359591 25.94729-6.075187 32.74166-21.121208l90.16258-201.105704c-3.72839-2.00613-11.9422-4.22045-18.69871-4.37186-11.5826-.20818-27.13962 2.15754-37.09459 25.87159l-29.20253 68.908888-57.25059-93.247488c-3.69054-1.13555-12.69922-2.76317-19.32326-2.76317-20.19384 0-31.51148 7.45678-43.22656 20.17493l-55.66081 60.884335 44.77847 70.4608054c8.27058 12.8317016 19.17185 19.3800336 36.88641 19.3800336 11.5826 0 21.21583-2.630688 25.68233-4.769305l-53.90072-81.286369 38.21122-40.482321 62.66337 98.3574579z" fill="#ae2c3f"/><g clip-path="url(#c)" opacity=".399994" transform="matrix(27.364464 0 0 -18.925814 -7711.9511 9858.7051)"><g><g><g clip-path="url(#d)"><g transform="translate(408.2152 519.2938)"><path d="m .00000493 0c1.15699997-1.145 1.31499997-2.225 1.35599997-2.463.113 0 .155.506.155 1.261l-.004 12.109c0 1.402-.456 1.876-1.64499997 1.876-.402 0-.805-.216-1.34100003-.216h-112.3090049c-.536 0-.938.216-1.341.216-1.188 0-1.645-.474-1.645-1.876l-.004-12.109c0-.755.042-1.261.156-1.261.041.238.076 1.402 1.356 2.463 10.217 7.878 104.249005 10.296 115.26600493 0" fill="#fff"/></g></g></g></g></g><g fill="#fff" transform="matrix(.61070875 0 0 .65090777 2049.7307 -201.0044)"><path d="m587.72 53.87c14.55-9.39 32.35-11.08 49.21-12.29 39.53-2.14 79.18.55 118.41 5.46-4.52 15.32-9.37 30.54-13.89 45.85-19.99-3.16-40.16-5.8-60.44-5.3-9.48.16-19.02.29-28.4 1.79-3.76.76-7.89 1.6-10.65 4.48-2.59 2.57-1.78 8.09 2.1 8.9 7.21 1.52 14.66.75 21.98.95 12.82.2 25.77-.73 38.47 1.5 8.39 1.43 17.41 4.53 22.33 11.95 4.75 6.98 4.54 15.88 3.68 23.93-1.78 16-10.02 31.87-24.09 40.33-15.41 9.32-33.9 11.1-51.5 12.11-39.35 1.41-78.76-1.66-117.71-7.15 3.69-12.46 7.53-24.88 11.25-37.34 25.07 2.95 50.29 5.58 75.57 4.84 7.01-.42 14.33-.14 20.97-2.75 3.23-1.12 5.63-4.58 4.59-8.03-.74-3.85-5.19-4.73-8.5-4.81-18.99-.19-38.34 1.45-56.96-3.27-7.4-1.82-14.78-5.66-18.72-12.44-4.94-8.49-4.52-18.86-2.92-28.22 3.28-15.83 11.82-31.1 25.22-40.49z"/><path d="m58.45 241.6c20.66-65.63 40.85-131.4 61.37-197.06 75.64.01 151.29.01 226.93-.07-6.86 21.84-13.74 43.66-20.64 65.49-42.94.13-85.89-.01-128.83.11-1.97 6.84-4.16 13.61-6.09 20.45 42.92.03 85.84.1 128.76-.06-6.22 19.66-12.31 39.36-18.6 59.01-42.75-.09-85.51.1-128.26-.1-5.74 17.35-10.93 34.9-16.42 52.34-32.74-.1-65.49.14-98.22-.11z"/><path d="m307.36 189.34c33.48-48.2 66.86-96.48 100.47-144.59 40.08.09 80.17 0 120.26.05-.25 48.16-.61 96.32-.8 144.49-23.34 0-46.68.03-70.02-.02.08-6.95.1-13.9.22-20.86-18.77-.12-37.54-.01-56.31-.05-4.88 6.93-9.59 13.98-14.37 20.98-26.49.04-52.97.05-79.45 0m114.91-56.8c12.36 0 24.73.02 37.1-.02.1-17.76.5-35.51.56-53.27-12.8 17.57-25.16 35.49-37.66 53.29z"/><path d="m770.16 44.74c54.02-.05 108.03-.05 162.04-.11-4.8 15.79-9.81 31.51-14.52 47.32-14.69.49-29.4-.11-44.09.31-5.61 18.41-11.4 36.75-17.04 55.14-4.47 13.95-8.43 28.07-13.19 41.92-24.01-.25-48.02-.05-72.03-.1 9.93-32.37 20.27-64.62 30-97.05-15.34.07-30.68.03-46.03.02 4.88-15.84 9.94-31.62 14.86-47.45z"/><path d="m947.5 89.67c9.23-6.28 20.52-8.45 31.45-9.53 11.71-.94 23.59-.96 35.17 1.17 6.47 1.3 12.99 3.35 18.32 7.38 4.12 3.07 6.86 8.19 6.33 13.41-.32 6.57-4.77 12.01-9.76 15.86-9.69 7.36-21.35 11.27-32.44 15.93 2.24 3.7 4.13 7.59 6.34 11.32 3.41-1.99 6.34-4.98 9.99-6.44 14.37-.15 28.76-.03 43.14-.05-12.8 9.04-25.96 17.56-38.67 26.72 3.98 7.82 7.75 15.74 11.65 23.6-16.95-.02-33.9.05-50.85-.04-1.73-3.39-3.43-6.78-5.15-10.17-11.6 9.14-26.23 14.08-40.97 14.2-10.55.26-22.09-1.43-30.14-8.86-7.56-6.77-9.19-18.52-5.29-27.62 3.06-7.15 9.32-12.32 15.94-16.06 11.08-6.14 23.56-9.05 35.9-11.4-4.51-7.06-9.55-14.45-9.97-23.1-.36-6.64 3.66-12.72 9.01-16.32m34.44 13.35c1.11 4.59 3.87 8.54 6.13 12.62 4.58-2.78 9.44-5.6 12.6-10.06 2.01-2.73 1.7-6.96-.99-9.14-3.2-2.57-7.72-2.75-11.56-1.86-3.71.85-7.09 4.44-6.18 8.44m-36.56 50.31c-2.65 2.04-5.09 5.18-4.46 8.73.51 3.32 3.79 5.42 6.94 5.74 6.15.69 12.09-1.81 17.11-5.17-2.24-5.3-5.18-10.26-7.45-15.54-4.33 1.44-8.51 3.46-12.14 6.24z"/><path d="m1000.49 202.8c18.45-1.17 37.02-1.16 55.43.65 13.64 1.52 27.46 4.37 39.63 10.97 8.74 4.71 14.32 13.85 16.06 23.46 3.1 16.59.16 33.7-4.96 49.58-5.8 18.25-15.2 35.84-29.61 48.74-12.73 10.97-29.64 15.32-45.96 17.37-19.92 2.37-40.06 2.55-60.08 1.52-14.99-1.06-30.36-2.63-44.23-8.84-9.5-4.19-17.38-12.3-20.36-22.35-4.14-13.3-1.96-27.56 1.21-40.82 3.9-15.5 9.23-30.93 18.14-44.32 9.81-13.67 23.38-25.18 39.65-30.21 11.37-3.45 23.27-4.79 35.08-5.75m5.01 50.81c-7.59 1.36-14.33 6.23-18.02 12.98-6.22 10.74-10.65 22.93-10.91 35.43-.08 6.7 6.73 10.4 12.52 11.43 10.03 1.7 21.43 1.85 30.09-4.25 7.73-5.79 11.21-15.23 14.16-24.05 2.07-6.8 4.58-13.92 3.35-21.12-.98-5.02-5.53-8.43-10.26-9.66-6.79-1.84-14.03-1.95-20.93-.76z"/><path d="m1379.99 205c21.19-2.77 42.64-2.61 63.96-2.04 23.88.79 47.71 2.85 71.4 5.9-4.69 15.28-9.32 30.58-14.03 45.86-25.83-4.51-52.15-6.6-78.34-4.71-6.85.72-14.39.72-20.22 4.84-3.46 2.33-3.07 8.71 1.29 9.73 7.55 1.5 15.33.79 22.98.97 14.64.26 29.62-1.13 43.89 2.93 6.67 1.88 13.31 5.56 16.72 11.84 4.25 7.53 3.64 16.58 2.53 24.85-2.28 15.46-10.71 30.53-24.5 38.47-16.16 9.41-35.36 10.89-53.64 11.82-38.4 1.05-76.85-1.87-114.85-7.33 3.71-12.31 7.34-24.65 11.19-36.91 1.39-.74 3.15.15 4.7.13 26.13 3.07 52.49 5.52 78.81 3.97 5.07-.55 10.55-.64 15.01-3.43 3.3-2 3.84-7.15 1.07-9.82-2.53-1.98-5.95-1.92-8.99-2.04-13.6.01-27.25.73-40.81-.75-8.93-1.05-18.27-2.49-25.9-7.58-7.45-4.95-10.82-14.13-10.88-22.79-.3-17.73 7.2-35.4 19.74-47.87 10.26-10.25 24.93-14.05 38.87-16.04z"/><path d="m170.73 279.74c7.68-24.39 14.98-48.9 22.89-73.21 75.58.09 151.18-.06 226.77.03-6.85 21.81-13.74 43.61-20.58 65.42-42.93.12-85.87.03-128.81.05-2.02 6.84-4.24 13.64-6.09 20.53 42.89-.04 85.78-.03 128.66 0-6.11 19.64-12.35 39.25-18.49 58.89-42.83.03-85.66-.01-128.48.02-5.53 17.4-10.77 34.9-16.37 52.28-32.69.08-65.38.02-98.07.03 12.88-41.34 25.7-82.7 38.57-124.04z"/><path d="m439.27 207.02c23.86-.32 47.74-.05 71.61-.13-9.56 30.69-19.17 61.37-28.7 92.08-1.47 4.59-2.49 10.66 1.67 14.18 4.85 3.72 11.57 3.26 17.27 2.31 7.9-1.4 13.46-8.24 15.79-15.56 9.7-30.98 19.16-62.04 28.86-93.02 23.93-.14 47.86-.05 71.79-.08-10.31 32.93-20.63 65.86-31.04 98.76-4.13 12.72-9.46 26.26-21.11 33.94-17.83 11.59-39.64 14.19-60.39 15.47-21.99.88-44.24.9-65.91-3.35-10.93-2.38-22.9-6.35-29.22-16.28-5.93-9.44-3.72-21.21-.87-31.3 9.95-32.38 20.29-64.64 30.25-97.02z"/><path d="m635.46 220.12c1.45-4.47 2.61-9.03 4.33-13.4 43.72.19 87.44.03 131.16.08 10.5-.17 21.73.57 30.79 6.42 7.34 4.69 11.06 13.38 11.59 21.83 1.06 15.29-2.51 32.26-14.52 42.74-13.31 11.61-31.94 13.71-48.92 13.42 15.88 20.04 31.87 40 47.81 60-28.27.19-56.54.03-84.81.09-7.98-11.76-15.81-23.61-23.75-35.4-3.06-4.55-5.32-9.55-8.07-14.28-4.23 16.76-9.61 33.19-14.7 49.69-23.92-.05-47.84.01-71.75-.03 13.65-43.71 27.23-87.44 40.84-131.16m62.91 28.11c-2.88 9.95-6.27 19.75-9.26 29.67 6.63.3 13.26.06 19.89.14 8.05.04 16.41-.04 23.93-3.27 4.78-2.05 8.38-6.57 9.15-11.73.66-3.97.78-8.82-2.5-11.73-3.77-3.07-8.97-3.14-13.6-3.2-9.2.09-18.41-.14-27.61.12z"/><path d="m843.15 206.76c24.17-.12 48.35-.03 72.53-.05-14.9 48.16-30.11 96.21-44.92 144.4-24.16.3-48.32-.04-72.48.16 14.91-48.18 29.99-96.32 44.87-144.51z"/><path d="m1145.31 206.66c23.83-.09 47.66-.04 71.48-.02-9.51 30.78-19.22 61.51-28.74 92.3-1.21 4.03-2.23 8.91.46 12.59 2.64 3.54 7.39 4.21 11.51 4.35 6.53.23 13.57-1.78 17.82-7.03 5.01-5.95 6.22-13.86 8.7-21 8.41-27.07 16.69-54.19 25.2-81.23 23.92.04 47.85-.15 71.78-.07-10.13 32.23-20.23 64.47-30.39 96.69-2.92 8.61-5.72 17.47-10.89 25.06-4.68 7.04-11.69 12.22-19.31 15.7-15.28 7.12-32.25 9.41-48.92 10.54-16.46.99-32.99.92-49.42-.4-11.88-1.17-24-2.67-34.96-7.64-7.22-3.23-13.81-8.87-16.22-16.62-3.01-9.37-.42-19.3 2.24-28.43 9.84-31.61 19.78-63.19 29.66-94.79z"/></g><path d="m2036.7772 33.001845c2.3971-49.84796 1.2058-190.973675-1.7808-210.967935l-.591-3.9568-.5959 6.4326c-2.1374 23.07522-2.781 49.93212-2.7573 115.030145.024 64.1013499.6467 91.43011 2.7613 121.08433l.6207 8.70296.5894-6.05423c.324-3.32982 1.1132-16.95179 1.7536-30.27107z" fill="#fff" stroke-width=".875436"/></g></svg>