<?xml version="1.0" encoding="UTF-8" standalone="no"?>
<!-- Created with Inkscape (http://www.inkscape.org/) -->

<svg
   xmlns:dc="http://purl.org/dc/elements/1.1/"
   xmlns:cc="http://creativecommons.org/ns#"
   xmlns:rdf="http://www.w3.org/1999/02/22-rdf-syntax-ns#"
   xmlns:svg="http://www.w3.org/2000/svg"
   xmlns="http://www.w3.org/2000/svg"
   xmlns:sodipodi="http://sodipodi.sourceforge.net/DTD/sodipodi-0.dtd"
   xmlns:inkscape="http://www.inkscape.org/namespaces/inkscape"
   width="2372.4458"
   height="729.99994"
   viewBox="0 0 2372.4458 729.99997"
   id="svg8519"
   version="1.1"
   inkscape:version="0.91 r13725"
   sodipodi:docname="Sky Cinema Crime and Thriller - Dark.svg">
  <defs
     id="defs8521">
    <clipPath
       clipPathUnits="userSpaceOnUse"
       id="clipPath1252">
      <path
         d="m 411.591,515.351 94.948,0 0,18.13 -94.948,0 0,-18.13 z"
         id="path1254"
         inkscape:connector-curvature="0" />
    </clipPath>
    <clipPath
       clipPathUnits="userSpaceOnUse"
       id="clipPath1288">
      <path
         d="m 412.392,532.67 93.284,0 0,-15.246 -93.284,0 0,15.246 z"
         id="path1290"
         inkscape:connector-curvature="0" />
    </clipPath>
    <clipPath
       clipPathUnits="userSpaceOnUse"
       id="clipPath1292">
      <path
         d="m 412.392,517.424 93.284,0 0,15.245 -93.284,0 0,-15.245 z"
         id="path1294"
         inkscape:connector-curvature="0" />
    </clipPath>
    <linearGradient
       x1="0"
       y1="0"
       x2="1"
       y2="0"
       gradientUnits="userSpaceOnUse"
       gradientTransform="matrix(0,17.057004,17.057004,0,474.76197,515.88703)"
       spreadMethod="pad"
       id="linearGradient1236">
      <stop
         style="stop-opacity:1;stop-color:#820021"
         offset="0"
         id="stop1238" />
      <stop
         style="stop-opacity:1;stop-color:#ae2c3f"
         offset="0.104411"
         id="stop1240" />
      <stop
         style="stop-opacity:1;stop-color:#ae2c3f"
         offset="0.901742"
         id="stop1242" />
      <stop
         style="stop-opacity:1;stop-color:#ba3c4c"
         offset="1"
         id="stop1244" />
    </linearGradient>
    <clipPath
       clipPathUnits="userSpaceOnUse"
       id="clipPath1202">
      <path
         d="m 411.591,515.351 94.948,0 0,18.13 -94.948,0 0,-18.13 z"
         id="path1204"
         inkscape:connector-curvature="0" />
    </clipPath>
    <clipPath
       clipPathUnits="userSpaceOnUse"
       id="clipPath1214">
      <path
         d="m 505.836,530.723 0.017,0 0,-0.016 -0.017,0 0,0.016 z"
         id="path1216"
         inkscape:connector-curvature="0" />
    </clipPath>
    <linearGradient
       x1="0"
       y1="0"
       x2="1"
       y2="0"
       gradientUnits="userSpaceOnUse"
       gradientTransform="matrix(0,-17.343138,17.343138,0,459.06457,533.09243)"
       spreadMethod="pad"
       id="linearGradient1178">
      <stop
         style="stop-opacity:1;stop-color:#868685"
         offset="0"
         id="stop1180" />
      <stop
         style="stop-opacity:1;stop-color:#d8d9d9"
         offset="0.020448"
         id="stop1182" />
      <stop
         style="stop-opacity:1;stop-color:#f5f5f5"
         offset="0.0524045"
         id="stop1184" />
      <stop
         style="stop-opacity:1;stop-color:#edeeee"
         offset="0.487663"
         id="stop1186" />
      <stop
         style="stop-opacity:1;stop-color:#f5f5f5"
         offset="0.895488"
         id="stop1188" />
      <stop
         style="stop-opacity:1;stop-color:#ebebec"
         offset="0.929442"
         id="stop1190" />
      <stop
         style="stop-opacity:1;stop-color:#d8d9d9"
         offset="0.964262"
         id="stop1192" />
      <stop
         style="stop-opacity:1;stop-color:#868685"
         offset="1"
         id="stop1194" />
    </linearGradient>
  </defs>
  <sodipodi:namedview
     id="base"
     pagecolor="#ffffff"
     bordercolor="#666666"
     borderopacity="1.0"
     inkscape:pageopacity="0.0"
     inkscape:pageshadow="2"
     inkscape:zoom="0.35"
     inkscape:cx="1080.7135"
     inkscape:cy="208.86796"
     inkscape:document-units="px"
     inkscape:current-layer="layer1"
     showgrid="false"
     fit-margin-top="0"
     fit-margin-left="0"
     fit-margin-right="0"
     fit-margin-bottom="0"
     inkscape:window-width="1920"
     inkscape:window-height="1017"
     inkscape:window-x="-8"
     inkscape:window-y="-8"
     inkscape:window-maximized="1"
     units="px" />
  <metadata
     id="metadata8524">
    <rdf:RDF>
      <cc:Work
         rdf:about="">
        <dc:format>image/svg+xml</dc:format>
        <dc:type
           rdf:resource="http://purl.org/dc/dcmitype/StillImage" />
        <dc:title></dc:title>
      </cc:Work>
    </rdf:RDF>
  </metadata>
  <g
     inkscape:label="Layer 1"
     inkscape:groupmode="layer"
     id="layer1"
     transform="translate(-192.08646,474.87828)">
    <g
       id="g4201"
       transform="matrix(19.98952,0,0,19.98952,-3647.627,-5121.6388)">
      <g
         id="g1166"
         transform="matrix(1.25,0,0,-1.25,-322.40243,899.31046)">
        <g
           id="g1168">
          <g
             id="g1174">
            <g
               id="g1176">
              <path
                 inkscape:connector-curvature="0"
                 id="path1196"
                 style="fill:url(#linearGradient1178);stroke:none"
                 d="m 414.085,532.944 c -1.345,0 -1.823,-0.794 -1.823,-2.114 l 0,0 0,-12.829 c 0,-1.32 0.478,-2.114 1.823,-2.114 l 0,0 89.96,0 c 1.345,0 1.822,0.794 1.822,2.114 l 0,0 0,12.829 c 0,1.32 -0.477,2.114 -1.822,2.114 l 0,0 -89.96,0 z" />
            </g>
          </g>
        </g>
      </g>
      <g
         id="g1198"
         transform="matrix(1.25,0,0,-1.25,-322.40243,899.31046)">
        <g
           clip-path="url(#clipPath1202)"
           id="g1200">
          <g
             transform="translate(503.9336,515.3505)"
             id="g1206">
            <path
               inkscape:connector-curvature="0"
               id="path1208"
               style="fill:#a1a2a2;fill-opacity:1;fill-rule:nonzero;stroke:none"
               d="m 0,0 c 1.996,0 2.605,1.241 2.605,2.482 l 0,13.166 C 2.605,16.889 1.996,18.13 0,18.13 l -89.738,0 c -1.997,0 -2.605,-1.241 -2.605,-2.482 l 0,-13.166 C -92.343,1.241 -91.735,0 -89.738,0 L 0,0 Z m -89.646,0.167 c -1.344,0 -2.254,0.793 -2.254,2.114 l 0,13.568 c 0,1.321 0.91,2.114 2.254,2.114 l 89.554,0 c 1.344,0 2.254,-0.793 2.254,-2.114 l 0,-13.568 c 0,-1.321 -0.91,-2.114 -2.254,-2.114 l -89.554,0 z" />
          </g>
          <g
             id="g1210">
            <g
               id="g1212" />
            <g
               id="g1218">
              <g
                 style="opacity:0.80000299"
                 id="g1220"
                 clip-path="url(#clipPath1214)">
                <g
                   id="g1222" />
              </g>
            </g>
          </g>
        </g>
      </g>
      <g
         id="g1224"
         transform="matrix(1.25,0,0,-1.25,-322.40243,899.31046)">
        <g
           id="g1226">
          <g
             id="g1232">
            <g
               id="g1234">
              <path
                 inkscape:connector-curvature="0"
                 id="path1246"
                 style="fill:url(#linearGradient1236);stroke:none"
                 d="m 443.657,532.944 0,-17.057 60.388,0 c 1.345,0 1.822,0.794 1.822,2.114 l 0,0 0,12.829 c 0,1.32 -0.477,2.114 -1.822,2.114 l 0,0 -60.388,0 z" />
            </g>
          </g>
        </g>
      </g>
      <g
         id="g1248"
         transform="matrix(1.25,0,0,-1.25,-322.40243,899.31046)">
        <g
           clip-path="url(#clipPath1252)"
           id="g1250">
          <g
             transform="translate(452.075,519.0374)"
             id="g1256">
            <path
               inkscape:connector-curvature="0"
               id="path1258"
               style="fill:#ffffff;fill-opacity:1;fill-rule:nonzero;stroke:none"
               d="m 0,0 c -0.756,0 -1.454,0.136 -2.093,0.408 -0.639,0.273 -1.192,0.649 -1.661,1.129 -0.469,0.481 -0.836,1.052 -1.102,1.714 -0.266,0.662 -0.4,1.377 -0.4,2.146 0,0.747 0.134,1.446 0.4,2.098 0.266,0.651 0.633,1.217 1.102,1.697 0.469,0.481 1.022,0.857 1.661,1.129 0.639,0.273 1.337,0.409 2.093,0.409 0.543,0 1.07,-0.059 1.581,-0.176 C 2.093,10.436 2.566,10.286 3.003,10.105 3.099,8.685 2.753,7.975 1.965,7.975 1.826,7.975 1.699,7.991 1.581,8.023 1.464,8.055 1.336,8.087 1.198,8.119 1.059,8.151 0.905,8.183 0.735,8.215 0.564,8.247 0.362,8.264 0.128,8.264 -0.245,8.264 -0.596,8.197 -0.927,8.063 -1.257,7.93 -1.541,7.737 -1.781,7.487 -2.021,7.236 -2.21,6.934 -2.348,6.582 -2.487,6.23 -2.556,5.834 -2.556,5.397 c 0,-0.46 0.069,-0.871 0.208,-1.233 0.138,-0.363 0.327,-0.67 0.567,-0.921 0.24,-0.251 0.524,-0.443 0.854,-0.577 0.331,-0.133 0.682,-0.2 1.055,-0.2 0.234,0 0.442,0.016 0.623,0.048 0.181,0.032 0.343,0.064 0.487,0.096 0.144,0.032 0.28,0.064 0.407,0.096 0.128,0.032 0.261,0.048 0.4,0.048 0.777,0 1.123,-0.71 1.038,-2.13 C 2.646,0.443 2.159,0.293 1.621,0.176 1.083,0.059 0.543,0 0,0" />
          </g>
          <g
             transform="translate(457.5874,519.1654)"
             id="g1260">
            <path
               inkscape:connector-curvature="0"
               id="path1262"
               style="fill:#ffffff;fill-opacity:1;fill-rule:nonzero;stroke:none"
               d="m 0,0 c -0.224,0 -0.445,0.011 -0.663,0.032 -0.218,0.021 -0.402,0.048 -0.551,0.08 l 0,9.273 c 0,0.309 0.096,0.573 0.287,0.792 0.192,0.219 0.554,0.329 1.087,0.329 0.223,0 0.444,-0.011 0.663,-0.033 0.218,-0.021 0.402,-0.048 0.551,-0.08 l 0,-9.272 C 1.374,0.811 1.278,0.547 1.086,0.328 0.895,0.109 0.532,0 0,0" />
          </g>
          <g
             transform="translate(461.9564,519.1654)"
             id="g1264">
            <path
               inkscape:connector-curvature="0"
               id="path1266"
               style="fill:#ffffff;fill-opacity:1;fill-rule:nonzero;stroke:none"
               d="m 0,0 c -0.213,0 -0.421,0.011 -0.623,0.032 -0.203,0.021 -0.373,0.048 -0.511,0.08 l 0,10.201 c 0.159,0.054 0.367,0.099 0.623,0.137 0.255,0.037 0.473,0.056 0.655,0.056 0.585,0 1.011,-0.075 1.278,-0.225 0.266,-0.149 0.489,-0.368 0.671,-0.656 l 3.626,-5.717 0,5.573 c 0,0.138 0.018,0.269 0.056,0.392 0.037,0.123 0.101,0.232 0.191,0.328 0.091,0.096 0.216,0.171 0.376,0.224 0.159,0.054 0.362,0.081 0.607,0.081 0.213,0 0.418,-0.011 0.615,-0.033 0.197,-0.021 0.364,-0.042 0.503,-0.063 l 0,-10.218 C 7.918,0.117 7.737,0.067 7.524,0.04 7.311,0.013 7.103,0 6.901,0 6.4,0 6.027,0.069 5.783,0.208 5.537,0.347 5.335,0.539 5.176,0.785 l -3.882,6.214 0,-5.942 C 1.294,0.758 1.203,0.507 1.022,0.304 0.841,0.101 0.5,0 0,0" />
          </g>
          <g
             transform="translate(473.3041,519.2296)"
             id="g1268">
            <path
               inkscape:connector-curvature="0"
               id="path1270"
               style="fill:#ffffff;fill-opacity:1;fill-rule:nonzero;stroke:none"
               d="m 0,0 c -0.298,0 -0.541,0.032 -0.727,0.096 -0.186,0.064 -0.33,0.152 -0.431,0.264 -0.102,0.112 -0.171,0.248 -0.208,0.409 -0.037,0.16 -0.056,0.33 -0.056,0.512 l 0,7.847 c 0,0.182 0.019,0.353 0.056,0.513 0.037,0.16 0.106,0.296 0.208,0.408 0.101,0.112 0.245,0.2 0.431,0.264 0.186,0.064 0.429,0.096 0.727,0.096 l 5.287,0 C 5.309,10.292 5.33,10.132 5.351,9.929 5.373,9.726 5.383,9.518 5.383,9.305 5.383,8.856 5.293,8.538 5.112,8.352 4.93,8.165 4.702,8.071 4.425,8.071 l -3.259,0 0,-1.825 3.754,0 C 4.941,6.139 4.963,5.997 4.984,5.821 5.005,5.645 5.016,5.455 5.016,5.253 5.016,4.826 4.93,4.535 4.76,4.38 4.59,4.225 4.377,4.148 4.121,4.148 l -2.955,0 0,-1.81 4.281,0 C 5.468,2.22 5.49,2.058 5.511,1.85 5.532,1.641 5.543,1.436 5.543,1.233 5.543,0.774 5.452,0.454 5.271,0.272 5.09,0.091 4.861,0 4.585,0 L 0,0 Z" />
          </g>
          <g
             transform="translate(480.983,519.1654)"
             id="g1272">
            <path
               inkscape:connector-curvature="0"
               id="path1274"
               style="fill:#ffffff;fill-opacity:1;fill-rule:nonzero;stroke:none"
               d="M 0,0 C -0.245,0 -0.461,0.024 -0.647,0.072 -0.834,0.12 -0.996,0.176 -1.134,0.24 l 0.976,9.977 c 0.203,0.086 0.469,0.155 0.799,0.208 0.33,0.054 0.612,0.081 0.846,0.081 0.33,0 0.615,-0.022 0.854,-0.065 0.24,-0.042 0.445,-0.114 0.615,-0.216 C 3.126,10.124 3.262,9.982 3.363,9.801 3.464,9.619 3.541,9.395 3.595,9.128 L 4.01,7.191 C 4.127,6.657 4.252,6.067 4.385,5.421 4.518,4.775 4.638,4.11 4.744,3.427 l 0.064,0 C 4.925,4.11 5.047,4.772 5.175,5.413 5.303,6.054 5.436,6.641 5.574,7.174 l 0.51,2.034 c 0.128,0.502 0.332,0.844 0.614,1.025 0.282,0.182 0.721,0.273 1.316,0.273 0.298,0 0.598,-0.025 0.901,-0.073 0.303,-0.048 0.556,-0.098 0.758,-0.152 L 10.607,0.24 C 10.458,0.187 10.279,0.133 10.072,0.08 9.864,0.027 9.638,0 9.393,0 9.052,0 8.764,0.059 8.53,0.176 8.296,0.294 8.168,0.513 8.147,0.833 L 7.907,4.292 C 7.854,4.901 7.809,5.538 7.771,6.206 7.734,6.873 7.71,7.505 7.699,8.104 l -0.032,0 C 7.529,7.548 7.388,6.948 7.244,6.302 7.1,5.656 6.954,5.061 6.805,4.516 L 6.15,1.794 C 5.99,1.153 5.484,0.833 4.632,0.833 4.419,0.833 4.201,0.854 3.977,0.897 3.754,0.939 3.562,0.987 3.402,1.041 L 2.588,4.436 C 2.428,5.066 2.279,5.685 2.141,6.294 2.002,6.902 1.874,7.511 1.757,8.119 l -0.048,0 C 1.677,7.265 1.635,6.483 1.581,5.773 1.528,5.063 1.48,4.452 1.438,3.94 L 1.182,0.817 C 1.161,0.507 1.044,0.294 0.831,0.176 0.617,0.059 0.341,0 0,0" />
          </g>
          <g
             transform="translate(496.0557,523.5375)"
             id="g1276">
            <path
               inkscape:connector-curvature="0"
               id="path1278"
               style="fill:#ffffff;fill-opacity:1;fill-rule:nonzero;stroke:none"
               d="M 0,0 2.39,0 1.198,3.923 0,0 Z m -2.492,-4.404 c -0.202,0 -0.434,0.019 -0.694,0.056 -0.262,0.037 -0.477,0.088 -0.647,0.152 L -0.519,5.957 C -0.231,6.032 0.06,6.086 0.354,6.118 0.648,6.15 0.917,6.166 1.163,6.166 1.515,6.166 1.817,6.139 2.068,6.086 2.319,6.032 2.53,5.952 2.701,5.845 2.872,5.738 3.013,5.597 3.125,5.421 3.237,5.245 3.331,5.039 3.406,4.804 L 6.246,-4.18 C 6.065,-4.255 5.847,-4.311 5.591,-4.348 5.336,-4.385 5.085,-4.404 4.841,-4.404 c -0.278,0 -0.546,0.045 -0.807,0.136 -0.261,0.091 -0.45,0.296 -0.567,0.617 l -0.544,1.649 -3.484,0 -0.461,-1.553 C -1.139,-3.929 -1.336,-4.164 -1.613,-4.26 -1.89,-4.356 -2.183,-4.404 -2.492,-4.404" />
          </g>
          <g
             transform="translate(423.1164,522.7819)"
             id="g1280">
            <path
               inkscape:connector-curvature="0"
               id="path1282"
               style="fill:#ae2c3f;fill-opacity:1;fill-rule:nonzero;stroke:none"
               d="m 0,0 c 0,-1.46 -0.955,-2.527 -2.894,-2.738 -1.404,-0.15 -3.438,0.027 -4.404,0.138 -0.036,0.158 -0.064,0.354 -0.064,0.508 0,1.278 0.691,1.569 1.338,1.569 0.672,0 1.73,-0.116 2.518,-0.116 0.865,0 1.129,0.294 1.129,0.573 0,0.367 -0.349,0.52 -1.021,0.648 l -1.839,0.354 c -1.531,0.293 -2.348,1.352 -2.348,2.476 0,1.366 0.967,2.509 2.868,2.72 1.438,0.155 3.187,-0.02 4.148,-0.138 0.035,-0.165 0.053,-0.321 0.053,-0.492 0,-1.274 -0.671,-1.549 -1.319,-1.549 -0.497,0 -1.269,0.093 -2.15,0.093 -0.897,0 -1.269,-0.248 -1.269,-0.55 0,-0.319 0.355,-0.451 0.916,-0.549 L -2.58,2.621 C -0.774,2.288 0,1.262 0,0 m 3.155,-1.568 c 0,-0.783 -0.307,-1.235 -1.836,-1.235 -0.203,0 -0.38,0.015 -0.55,0.04 l 0,10.39 c 0,0.789 0.269,1.612 1.813,1.612 0.194,0 0.391,-0.02 0.573,-0.058 l 0,-10.749 z m 6.25,-4.019 c 0.2,-0.103 0.612,-0.227 1.131,-0.241 0.886,-0.019 1.371,0.321 1.73,1.116 L 17.03,5.914 C 16.833,6.02 16.399,6.137 16.042,6.145 15.43,6.156 14.608,6.031 14.082,4.778 L 12.539,1.137 9.514,6.064 C 9.319,6.124 8.843,6.21 8.493,6.21 7.426,6.21 6.828,5.816 6.209,5.144 L 3.268,1.927 5.634,-1.796 c 0.437,-0.678 1.013,-1.024 1.949,-1.024 0.612,0 1.121,0.139 1.357,0.252 L 6.092,1.727 8.111,3.866 11.422,-1.331 9.405,-5.587 Z" />
          </g>
          <g
             id="g1284">
            <g
               id="g1286" />
            <g
               id="g1296">
              <g
                 style="opacity:0.39999402"
                 id="g1298"
                 clip-path="url(#clipPath1288)">
                <g
                   id="g1300">
                  <g
                     id="g1302">
                    <g
                       id="g1304"
                       clip-path="url(#clipPath1292)">
                      <g
                         id="g1306"
                         transform="translate(504.1664,519.8869)">
                        <path
                           inkscape:connector-curvature="0"
                           id="path1308"
                           style="fill:#ffffff;fill-opacity:1;fill-rule:nonzero;stroke:none"
                           d="m 0,0 c 1.156,-1.145 1.313,-2.225 1.354,-2.463 0.114,0 0.156,0.506 0.156,1.261 L 1.506,10.907 c 0,1.402 -0.456,1.876 -1.644,1.876 -0.402,0 -0.804,-0.216 -1.339,-0.216 l -87.31,0 c -0.536,0 -0.938,0.216 -1.34,0.216 -1.187,0 -1.643,-0.474 -1.643,-1.876 l -0.004,-12.109 c 0,-0.755 0.041,-1.261 0.155,-1.261 0.041,0.238 0.076,1.402 1.354,2.463 C -80.057,7.878 -11.006,10.296 0,0" />
                      </g>
                    </g>
                  </g>
                </g>
              </g>
            </g>
          </g>
        </g>
      </g>
    </g>
    <g
       id="#000000ff"
       transform="matrix(1.0225722,0,0,1.0225722,355.82371,-84.412888)">
      <path
         d="m 110.25,174.22 c 13.75,-6.12 29.2,-7.17 44.01,-5.5 11.31,1.24 22.38,4.26 32.95,8.43 0.91,6.93 0.86,15.25 -4.82,20.25 -4.02,3.71 -9.93,2.62 -14.55,0.82 -14.81,-5.42 -32.02,-7.12 -46.59,-0.08 -13.74,6.39 -23.38,19.67 -27,34.18 -3.73,15.6 -2.93,32.72 4.02,47.33 5.29,11.22 15.07,20.37 26.95,24.19 13.86,4.6 29.17,3.02 42.62,-2.24 5.52,-2.36 12.78,-2.14 16.93,2.67 4.34,5.1 3.87,12.36 3.26,18.6 -18.13,7.78 -38.28,10.58 -57.86,8.47 -20.02,-2.43 -38.98,-13.15 -50.99,-29.41 -18.53,-24.99 -21.23,-60.17 -8.55,-88.32 7.75,-17.42 22.03,-31.91 39.62,-39.39 z"
         id="path5"
         inkscape:connector-curvature="0"
         style="opacity:1;fill:#000000" />
      <path
         d="m 789.48,179.63 c 10.17,-9 24.18,-12.35 37.5,-11.83 14.06,-0.06 27.82,3.9 40.54,9.68 0.65,5.89 0.94,12.88 -3.64,17.38 -4.07,4.05 -10.48,3.54 -15.46,1.7 -10.32,-3.75 -21.8,-5.9 -32.59,-2.95 -8.12,2.22 -12.38,11.38 -11.23,19.29 0.8,7.73 6.07,13.86 11.27,19.2 13.35,13.52 26.7,27.03 40.08,40.52 5.7,-10.54 11.27,-21.15 16.92,-31.71 1.53,-3.02 4.04,-5.59 7.27,-6.75 7.01,-2.81 14.83,-1.11 21.65,1.45 -9.78,17.82 -19.64,35.6 -29.44,53.42 12.2,12.7 24.43,25.37 36.62,38.09 -7.68,3.64 -16.55,5.16 -24.93,3.45 -4.79,-1 -8.53,-4.42 -11.9,-7.74 -4.47,-4.63 -8.7,-9.48 -13.09,-14.18 -8.69,11.47 -21.39,20.47 -35.86,22.47 -16.51,2.38 -34.75,0.5 -48.38,-9.9 -19.66,-14.92 -23.61,-46.39 -8.16,-65.64 6.2,-7.82 15.25,-12.76 24.54,-15.95 -5.96,-6.86 -11.6,-14.57 -13.42,-23.66 -2.74,-13.03 1.57,-27.53 11.71,-36.34 m -1.67,87.23 c -7.07,11.31 -4.23,27.81 6.72,35.64 8.09,5.85 18.76,6.1 28.22,4.26 8.49,-1.61 15.78,-7.28 20.39,-14.47 -12.68,-12.93 -25.37,-25.84 -38.05,-38.77 -6.76,2.85 -13.36,6.96 -17.28,13.34 z"
         id="path7"
         inkscape:connector-curvature="0"
         style="opacity:1;fill:#000000" />
      <path
         d="m 209.72,171.72 c 3.21,-2.39 7.46,-2.41 11.29,-2.48 14.35,0.05 28.7,-0.06 43.04,0.06 14.93,0.36 30.71,4.26 41.63,15.02 9.11,8.61 13.29,21.33 13.28,33.66 0.38,13.21 -4.53,26.66 -14.09,35.9 -8.03,7.9 -18.91,12.41 -30.02,13.73 16.61,19.77 33.27,39.49 49.86,59.27 -8.41,4.39 -18.52,5.68 -27.68,3.07 -7.24,-2.45 -11.59,-9.19 -16.14,-14.89 -12.02,-15.41 -24.02,-30.84 -36.05,-46.25 -3.69,0 -7.39,0 -11.08,0.01 -0.03,17.07 0.03,34.15 -0.03,51.22 0.11,4.75 -3.06,9.62 -7.89,10.57 -6.52,1.34 -13.27,0.49 -19.78,-0.51 -0.01,-49.03 0.01,-98.06 -0.01,-147.08 -0.04,-3.98 0.53,-8.51 3.67,-11.3 m 24.04,22.79 c -0.01,16.85 -0.01,33.69 0,50.54 13.42,-0.47 27.2,1.43 40.31,-2.23 7.81,-2.05 14.3,-8.39 16.22,-16.28 1.99,-8.31 1.11,-18.18 -5.09,-24.58 -5.48,-5.57 -13.69,-7.03 -21.18,-7.39 -10.09,-0.16 -20.18,-0.03 -30.26,-0.06 z"
         id="path9"
         inkscape:connector-curvature="0"
         style="opacity:1;fill:#000000" />
      <path
         d="m 349.41,169.45 c 6.55,-1.39 13.35,-0.52 19.9,0.5 0,49.67 0,99.35 0.01,149.02 0.34,4.98 -2.53,10.43 -7.67,11.56 -6.61,1.49 -13.48,0.56 -20.09,-0.44 0,-49.69 0,-99.37 0,-149.06 -0.34,-5.04 2.63,-10.52 7.85,-11.58 z"
         id="path11"
         inkscape:connector-curvature="0"
         style="opacity:1;fill:#000000" />
      <path
         d="m 408.66,171.9 c 9.9,-3.32 20.85,-4.28 31.03,-1.64 5.86,1.38 10.31,6.33 11.7,12.11 9.24,36.21 18.34,72.46 27.53,108.69 8.78,-34.01 17.49,-68.03 26.24,-102.05 1.16,-4.46 2.03,-9.24 5.01,-12.92 3.49,-4.55 9.32,-6.43 14.81,-7.04 8.15,-0.81 16.41,0.19 24.33,2.16 5.15,52.38 10.32,104.76 15.48,157.14 -6.97,2.66 -15.05,4.01 -22.13,1.03 -3.2,-1.23 -4.69,-4.68 -4.87,-7.9 -3.51,-42.15 -6.96,-84.31 -10.48,-126.47 -10.09,37.41 -20.07,74.85 -30.16,112.25 -1.21,4.74 -4.55,9.11 -9.39,10.49 -7.85,2.4 -16.36,1.52 -24.21,-0.44 -11.33,-40.78 -22.64,-81.56 -34,-122.33 -3.82,42.07 -7.6,84.15 -11.41,126.22 -0.14,3.26 -1.55,6.81 -4.78,8.11 -6.69,3.01 -14.48,1.8 -21.05,-0.94 5.44,-52.16 10.91,-104.31 16.35,-156.47 z"
         id="path13"
         inkscape:connector-curvature="0"
         style="opacity:1;fill:#000000" />
      <path
         d="m 590.9,171.98 c 3.04,-2.54 7.28,-2.65 11.06,-2.74 27.66,0.01 55.32,0.01 82.99,0 0.96,6.03 1.9,12.32 0.46,18.34 -1.1,4.55 -5.89,7.14 -10.33,6.9 -19.94,0.05 -39.88,0.01 -59.82,0.02 -0.02,14.29 0,28.57 -0.01,42.86 21.24,0.02 42.47,0.01 63.71,0.01 0.68,5.82 1.76,11.85 0.26,17.62 -0.99,4.07 -5.2,6.58 -9.23,6.41 -18.24,0.1 -36.49,0.01 -54.73,0.04 -0.02,14.37 -0.01,28.75 0,43.12 23.95,0.01 47.91,-0.01 71.87,0.01 0.71,5.97 1.71,12.13 0.22,18.06 -0.99,4.16 -5.02,7.22 -9.28,7.15 -25.03,0.09 -50.06,0 -75.09,0.04 -3.93,-0.08 -8.24,-0.02 -11.6,-2.36 -3.02,-2.5 -3.78,-6.71 -3.81,-10.43 -0.03,-44.68 0.01,-89.35 -0.02,-134.03 -0.03,-3.86 0.5,-8.15 3.35,-11.02 z"
         id="path15"
         inkscape:connector-curvature="0"
         style="opacity:1;fill:#000000" />
      <path
         d="m 963.55,175.35 c 1.21,-4.46 6.23,-6.13 10.4,-6.09 38.61,-0.02 77.22,-0.02 115.83,0 0.86,6.5 1.92,13.52 -0.67,19.76 -1.68,3.92 -6.11,5.67 -10.14,5.47 -12.72,0.04 -25.44,-0.02 -38.15,0.03 -0.01,41.5 0,83 -0.01,124.5 0.26,4.79 -2.32,10.08 -7.23,11.38 -6.72,1.69 -13.78,0.7 -20.52,-0.31 -0.01,-45.19 0.01,-90.39 -0.01,-135.58 -16.48,-0.02 -32.96,0.01 -49.44,-0.02 -0.83,-6.31 -1.66,-12.89 -0.06,-19.14 z"
         id="path17"
         inkscape:connector-curvature="0"
         style="opacity:1;fill:#000000" />
      <path
         d="m 1111.38,169.56 c 6.66,-1.58 13.63,-0.64 20.31,0.39 0,22.47 -0.01,44.94 0.01,67.42 24.99,0.01 49.98,0 74.98,0 0.04,-19.11 -0.05,-38.22 0.04,-57.33 -0.12,-4.7 2.92,-9.51 7.67,-10.56 6.68,-1.45 13.62,-0.54 20.3,0.48 -0.01,49.69 0.01,99.38 -0.01,149.08 0.23,4.73 -2.25,9.96 -7.08,11.31 -6.84,1.79 -14.04,0.73 -20.91,-0.26 -0.01,-22.88 0,-45.76 -0.01,-68.65 -25,0 -49.99,-0.01 -74.99,0 -0.03,19.53 0.06,39.07 -0.04,58.6 0.08,4.69 -2.98,9.5 -7.73,10.52 -6.58,1.43 -13.41,0.53 -19.98,-0.47 0,-49.71 -0.01,-99.42 0,-149.12 -0.31,-4.87 2.45,-10.19 7.44,-11.41 z"
         id="path19"
         inkscape:connector-curvature="0"
         style="opacity:1;fill:#000000" />
      <path
         d="m 1268.09,172.06 c 2.95,-2.58 7.16,-2.71 10.9,-2.81 14.66,0.03 29.32,-0.07 43.99,0.05 14.92,0.39 30.69,4.34 41.58,15.14 9.28,8.84 13.37,21.94 13.16,34.54 0.18,13.76 -5.52,27.68 -16.04,36.69 -7.81,6.84 -17.85,10.7 -28.07,11.94 16.61,19.76 33.26,39.5 49.87,59.26 -8.13,4.28 -17.81,5.54 -26.73,3.38 -6.45,-1.72 -10.86,-7.15 -14.77,-12.19 -12.77,-16.42 -25.57,-32.82 -38.35,-49.23 -3.72,-0.02 -7.43,-0.03 -11.13,-0.01 -0.01,17.07 0.03,34.13 -0.01,51.2 0.13,4.79 -3.1,9.68 -7.96,10.61 -6.51,1.31 -13.24,0.47 -19.72,-0.54 0,-49.04 0.01,-98.08 -0.01,-147.12 -0.01,-3.82 0.5,-8.04 3.29,-10.91 m 24.42,22.45 c -0.01,16.85 -0.01,33.69 0,50.54 7.14,0.01 14.29,0.01 21.44,0.01 7.83,-0.05 15.96,-0.53 23.17,-3.91 6.71,-3.07 11.35,-9.8 12.45,-17.03 1.25,-7.85 -0.07,-16.84 -6.03,-22.58 -5.73,-5.41 -14,-6.72 -21.57,-6.99 -9.82,-0.11 -19.65,-0.02 -29.46,-0.04 z"
         id="path21"
         inkscape:connector-curvature="0"
         style="opacity:1;fill:#000000" />
      <path
         d="m 1400.32,180.93 c -0.3,-4.99 2.65,-10.4 7.8,-11.47 6.56,-1.4 13.38,-0.53 19.94,0.48 0,49.71 0,99.42 0.01,149.12 0.31,4.89 -2.48,10.23 -7.49,11.42 -6.65,1.56 -13.61,0.62 -20.27,-0.4 0.01,-49.72 -0.01,-99.43 0.01,-149.15 z"
         id="path23"
         inkscape:connector-curvature="0"
         style="opacity:1;fill:#000000" />
      <path
         d="m 1459.54,173.59 c 1.93,-3.26 5.86,-4.49 9.45,-4.72 5.47,-0.35 10.98,0.14 16.39,1.08 0,44.87 -0.01,89.74 0,134.61 25.43,0.01 50.87,-0.01 76.31,0.01 0.97,6.7 2.52,14.08 -0.63,20.43 -3.12,5.08 -9.82,4.96 -15.05,4.83 -24.68,-0.04 -49.36,0 -74.04,-0.02 -3.77,-0.11 -8.01,-0.21 -11.01,-2.78 -2.84,-2.9 -3.35,-7.19 -3.34,-11.05 0,-43.64 0.02,-87.28 -0.01,-130.92 0.03,-3.86 -0.41,-8.12 1.93,-11.47 z"
         id="path25"
         inkscape:connector-curvature="0"
         style="opacity:1;fill:#000000" />
      <path
         d="m 1584.35,169.52 c 6.62,-1.49 13.52,-0.62 20.16,0.44 -0.02,44.86 0,89.72 -0.01,134.59 25.44,0.03 50.88,-0.01 76.32,0.02 0.96,6.3 2.23,13.03 -0.03,19.2 -1.78,4.66 -7.24,6.18 -11.77,6.04 -26.02,0 -52.05,0.02 -78.06,0 -3.92,-0.14 -8.51,-0.23 -11.36,-3.31 -3.28,-4.05 -2.83,-9.57 -2.86,-14.46 0.03,-43.69 -0.01,-87.37 0.02,-131.06 -0.31,-4.92 2.51,-10.31 7.59,-11.46 z"
         id="path27"
         inkscape:connector-curvature="0"
         style="opacity:1;fill:#000000" />
      <path
         d="m 1698.61,172.56 c 2.84,-3.09 7.44,-3.19 11.35,-3.31 27.74,-0.01 55.48,0.01 83.22,-0.01 1,5.84 1.81,11.91 0.63,17.79 -0.84,4.56 -5.42,7.58 -9.9,7.43 -20.14,0.11 -40.27,0 -60.41,0.05 0,14.29 -0.01,28.57 0.01,42.86 21.24,0.01 42.48,-0.01 63.72,0.01 0.63,6.13 1.96,12.61 -0.1,18.61 -1.5,4.04 -6.1,5.73 -10.1,5.45 -17.85,0.01 -35.69,-0.02 -53.53,0.01 0,14.37 0,28.73 0,43.1 23.96,0.03 47.92,0 71.88,0.01 0.7,6.15 1.82,12.55 0.05,18.62 -1.17,4.03 -5.27,6.74 -9.39,6.61 -25.01,0.06 -50.02,0 -75.02,0.03 -3.91,-0.09 -8.23,-0.05 -11.51,-2.46 -2.92,-2.54 -3.66,-6.68 -3.69,-10.36 -0.03,-43.33 0.01,-86.67 -0.02,-130 0.02,-4.88 -0.49,-10.4 2.81,-14.44 z"
         id="path29"
         inkscape:connector-curvature="0"
         style="opacity:1;fill:#000000" />
      <path
         d="m 1822.43,171.41 c 3.7,-2.35 8.31,-2.13 12.53,-2.18 14.33,0.1 28.66,-0.13 42.99,0.12 15.93,0.57 32.89,5.69 43.27,18.49 8.73,10.51 11.18,24.95 9.59,38.22 -1.63,13.62 -9.44,26.45 -21.12,33.73 -6.76,4.4 -14.62,6.8 -22.56,7.82 16.64,19.75 33.28,39.5 49.88,59.28 -7.96,4.16 -17.39,5.46 -26.15,3.5 -6.08,-1.36 -10.48,-6.15 -14.17,-10.84 -13.2,-16.9 -26.35,-33.84 -39.57,-50.74 -3.69,0 -7.38,0 -11.05,0.01 -0.04,17.08 0.05,34.17 -0.04,51.25 0.06,4.57 -2.83,9.29 -7.43,10.4 -6.66,1.58 -13.62,0.63 -20.29,-0.39 0,-49.03 -0.01,-98.06 0.01,-147.09 0.02,-4.11 0.59,-8.92 4.11,-11.58 m 23.64,23.09 c -0.01,16.85 -0.01,33.7 0,50.55 13.58,-0.5 27.57,1.52 40.81,-2.4 7.88,-2.19 14.21,-8.87 15.9,-16.88 1.73,-8.22 0.7,-17.85 -5.5,-24.02 -5.58,-5.47 -13.78,-6.87 -21.28,-7.19 -9.98,-0.14 -19.96,-0.02 -29.93,-0.06 z"
         id="path31"
         inkscape:connector-curvature="0"
         style="opacity:1;fill:#000000" />
    </g>
  </g>
</svg>
