<svg height="240" viewBox="0 0 709.60996 240" width="709.60999" xmlns="http://www.w3.org/2000/svg" xmlns:xlink="http://www.w3.org/1999/xlink"><linearGradient id="a" gradientTransform="matrix(-1 0 0 -1 -8215.806 -4580.7)" gradientUnits="userSpaceOnUse" x1="-8599.1621" x2="-8599.1621" y1="-4719.377" y2="-4553.606"><stop offset="0" stop-color="#a80002"/><stop offset="1" stop-color="#ea021a"/></linearGradient><linearGradient id="b" gradientTransform="matrix(-.99999998 0 0 .99999998 709.55971 0)" gradientUnits="userSpaceOnUse" x1="99.850998" x2="99.850998" y1="138.674" y2="-27.096001"><stop offset="0" stop-color="#00043b"/><stop offset="1" stop-color="#002672"/></linearGradient><path d="m7.9003906 0c-4.4 0-7.9003906 3.70039-7.9003906 7.90039v112.09961h709.56055v-112.09961c.00002-4.2-3.50038-7.90039-7.90039-7.90039z" fill="url(#b)"/><g transform="matrix(.47999903 0 0 .47999903 567 .000243)"><path d="m47.72 66.75c4.27-1.63 9.009999-.77 13.299999.33v50.41h57.960001v-43.52c-.2-3.08 1.41-6.38 4.46-7.41 4.18-1.36 8.63975-.52 12.79975.5v111.94c.19 2.95-1.67975 5.81-4.47975 6.78-4.19 1.35-8.66.5-12.78-.69v-51.58h-57.960001v45.56c.17 2.76-1.519999 5.48-4.089999 6.53-4.28 1.62-8.940001.68-13.190001-.49v-111.08c-.16-2.92 1.160001-6.08 3.980001-7.28z" fill="#fff"/><path d="m163.6 67.6c1.93541-1.250479 4.18277-1.423068 6.4468-1.407001h20.66351c9.41962-.02864 18.81521.354982 27.85969 3.307001 14.45 4.25 27.14 14.48 33.54 28.21 5.52 11.92 6.78 25.54 4.66 38.43-2.52 15.09-11.04 29.21-23.67 37.96-10.48 7.39-23.33 11.21025-36.12 11.18025h-27.04c-2.47-.06-5.46.0498-7.15-2.10025-1.87-2.29-1.55-5.41-1.57-8.16v-100.06c-.01-2.57.12-5.67 2.38-7.36m14.9 14.359499v87.540751h18.52c10.64-.21 21.64-3.56025 29.54-10.93025 9.32-8.38 13.81-21.17 13.46-33.53.39-9.74-2.69-19.54-8.69-27.24-5.52-7-13.5-11.82-22.09-14.05-5.14467-1.391422-10.41037-1.790501-15.70306-1.790501z" fill="#fff"/></g><path d="m199.7 0h367.3v120h-367.3z" fill="url(#a)"/><path d="m135 106.7c1.3.7 3.9 1.5 7.3 1.5 5.7.1 8.8-2.1 11.1-7.2l30.6-68.2c-1.3-.7-4.1-1.4-6.3-1.5-3.9-.1-9.2.7-12.6 8.8l-9.9 23.4-19.5-31.5c-1.3-.4-4.3-.9-6.6-.9-6.8 0-10.7 2.5-14.7 6.8l-18.8 20.6 15.2 23.9c2.8 4.4 6.5 6.6 12.5 6.6 3.9 0 7.2-.9 8.7-1.6l-18.3-27.6 13-13.7 21.3 33.4zm-40.1-25.8c0 5-2 7.9-11.8 7.9-1.3 0-2.4-.1-3.5-.3v-66.6c0-5.1 1.7-10.3 11.6-10.3 1.2 0 2.5.1 3.7.4zm-20.3-10c0 9.4-6.1 16.2-18.6 17.6-9 1-22.1-.2-28.3-.9-.2-1-.4-2.3-.4-3.3 0-8.2 4.4-10.1 8.6-10.1 4.3 0 11.1.7 16.2.7 5.6 0 7.2-1.9 7.2-3.7 0-2.4-2.2-3.3-6.6-4.2l-11.7-2.1c-9.8-1.9-15-8.7-15-15.9 0-8.8 6.2-16.1 18.4-17.5 9.2-1 20.5.1 26.6.9.2 1.1.3 2.1.3 3.2 0 8.2-4.3 9.9-8.5 9.9-3.2 0-8.1-.6-13.8-.6-5.8 0-8.1 1.6-8.1 3.5 0 2 2.3 2.9 5.9 3.5l11.3 2.1c11.6 2.2 16.5 8.8 16.5 16.9m149.7 14.4c-.6-4.7.9-7.2 3.4-7.2 2.7 0 9.2 3 18.4 3 9.8 0 13.5-3.6 13.5-8.2 0-3.2-1.4-5.8-10.4-8.3l-10-2.8c-10.7-2.9-15.1-8.3-15.1-15.1 0-8.2 6.5-15.8 21.6-15.8 6.8 0 15.2 1.6 20.2 3.6.6 4.6-.9 7-3.2 7-2.5 0-8.6-2.8-17-2.8-9 0-12.4 3.3-12.4 7.6 0 2.8 1.3 5.4 9.5 7.7l10.2 3c11.3 3.2 15.9 8.5 15.9 15.6 0 8.8-6.9 16.6-23 16.6-7.4 0-16.3-1.8-21.6-3.9m110.6-25.3c0 18.1-12.7 29.1-27 29.1-8.6 0-15.5-4-19.6-9.8v24.5c0 2.1-1.2 3.5-4.8 3.5-1.6 0-3.4-.2-4.2-.5v-74.5c.8-.2 2.6-.6 4.2-.6 3.6 0 4.8 1.4 4.8 3.5v5.6c4.1-5.8 11-9.8 19.6-9.8 14.3.1 27 11 27 29m-9.2 0c0-12.4-8.3-20.9-19.4-20.9-7.7 0-14.8 4.4-18 10.9v20.3c3.2 6.4 10.3 10.9 18 10.9 11.1-.1 19.4-8.6 19.4-21.2m18.1 0c0-16.6 12.3-28.9 28.7-28.9 16.5 0 28.7 12.4 28.7 28.9 0 16.7-12.3 29.1-28.7 29.1s-28.7-12.4-28.7-29.1m48.2 0c0-12.8-8.8-20.9-19.5-20.9s-19.5 8.1-19.5 20.9c0 13 8.8 21.1 19.5 21.1s19.5-8.1 19.5-21.1m54.2-23.9c0 3.4-1.5 4.2-4.8 4.2-6.4 0-15.5 2.1-20.1 12.4v32.2c0 2.2-1.2 3.5-4.8 3.5-1.6 0-3.4-.2-4.2-.5v-55.6c.8-.2 2.6-.6 4.2-.6 3.6 0 4.8 1.4 4.8 3.5v6.8c5.1-7.4 14-11.4 24.5-9.7.1.7.4 2.4.4 3.8m52 49.2c-.6-4.7.9-7.2 3.4-7.2 2.7 0 9.2 3 18.4 3 9.8 0 13.5-3.6 13.5-8.2 0-3.2-1.4-5.8-10.4-8.3l-10-2.8c-10.7-2.9-15.1-8.3-15.1-15.1 0-8.2 6.5-15.8 21.6-15.8 6.8 0 15.2 1.6 20.2 3.6.6 4.6-.9 7-3.2 7-2.4 0-8.6-2.8-17-2.8-9 0-12.4 3.3-12.4 7.6 0 2.8 1.3 5.4 9.5 7.7l10.2 2.8c11.3 3.2 15.9 8.5 15.9 15.6 0 8.8-6.9 16.6-23 16.6-7.3.2-16.2-1.6-21.6-3.7m-9.2 0c-4.8 2.3-10.4 3.7-16.1 3.7-11 0-17.6-6.3-17.6-17.2v-50c0-2.1 1.2-3.5 4.8-3.5 1.6 0 3.4.4 4.2.7v13.2h22.3c.1.7.3 2.2.3 3.6 0 3.3-1.4 4.3-3.4 4.3h-19.3v30.9c0 6.8 3.3 9.7 9.6 9.7 5.7 0 9.1-2.2 11.8-2.2 2.6.2 3.9 2.5 3.4 6.8" fill="#fff"/><path d="m8 0c-4.4 0-8 3.6-8 8v72.40039c0-6.4 5.1-11.70039 11.5-11.90039l698.11-22.19922v-38.30078c0-4.4-3.6-8-8-8z" fill="#fff" opacity=".2"/><path d="m7.90039 240c-4.4 0-7.90039-3.70039-7.90039-7.90039v-112.09961h709.56055v112.09961c.00002 4.2-3.50038 7.90039-7.90039 7.90039z" fill="#999"/><path d="m10.40039 237.5c-4.4 0-7.90039-3.70038-7.90039-7.90038v-109.59962h704.5602v109.59962c.00001 4.2-3.50038 7.90038-7.9004 7.90038z" fill="#fff"/><g fill="#121780" transform="translate(-463.86706 119.99962)"><path d="m648.56396 64.084781c0-15.417321 11.41282-26.830135 26.62991-26.830135 15.41732 0 26.73003 11.512934 26.73003 26.830135 0 15.41732-11.41283 27.030361-26.73003 27.030361-15.31721 0-26.62991-11.713161-26.62991-27.030361m44.34981 0c0-11.813268-8.00899-19.021361-17.7199-19.021361-9.6108 0-17.61979 7.208093-17.61979 19.021361 0 11.813267 8.00899 19.12148 17.61979 19.12148 9.71091 0 17.7199-7.308213 17.7199-19.12148" stroke-width="1.001125"/><path d="m641.9242 64.609821c0 16.879694-11.88571 26.967561-24.96998 26.967561-7.89051 0-14.28281-3.695547-18.07825-8.989187v4.19496c0 2.696747-1.19855 4.095067-4.69435 4.095067-1.49819 0-3.19615-.29964-4.09507-.59928v-66.819643c0-2.097481 1.19856-3.395907 4.89411-3.395907 1.4982 0 2.9964.19976 3.89531.399506v26.268415c3.79544-5.293627 10.18774-8.989187 18.07825-8.989187 13.08427 0 24.96998 10.087867 24.96998 26.867695m-9.08908 0c0-11.286428-7.49099-19.077068-17.67873-19.077068-6.99158 0-13.48378 4.09508-16.38029 10.087867v18.078268c2.79663 5.992787 9.28882 10.087867 16.38029 10.087867 10.28762 0 17.67873-7.790627 17.67873-19.176934" stroke-width=".998799"/><path d="m875.30804 23.780552c0 3.406933-1.3628 4.769707-3.01757 4.769707-1.55748 0-5.15908-1.557454-9.9288-1.557454-5.25643 0-8.37135 2.530867-8.37135 8.955387v4.672374h17.13204c.0973.778733.29204 2.23884.29204 3.601627 0 3.017573-1.26545 4.08832-3.11493 4.08832h-14.30915v38.839122c0 2.141507-1.07076 3.212254-4.67236 3.212254-1.46013 0-3.11493-.19468-3.99099-.389361v-41.856695h-7.59261c-.19467-.778733-.29201-2.23884-.29201-3.601627 0-3.017573 1.26542-4.08832 3.11492-4.08832h4.7697v-4.088334c0-11.77828 7.00855-17.229374 16.64532-17.229374 4.38036 0 10.31818 1.168094 13.14106 2.43352.19469.876067.19469 1.6548.19469 2.238854" stroke-width=".973411"/><path d="m917.14632 23.777592c0 3.406947-1.36278 4.76972-3.01756 4.76972-1.55748 0-5.15909-1.557453-9.9288-1.557453-5.25644 0-8.37134 2.530866-8.37134 8.955373v4.672387h17.13204c.0973.77872.29202 2.23884.29202 3.601614 0 3.017573-1.26544 4.088333-3.11493 4.088333h-14.30913v38.839122c0 2.141507-1.07076 3.212254-4.67238 3.212254-1.46013 0-3.11493-.19468-3.99098-.389374v-41.856682h-7.59262c-.19465-.778733-.292-2.238853-.292-3.601626 0-3.017574 1.26542-4.088334 3.11491-4.088334h4.76971v-4.08832c0-11.778281 7.00856-17.229388 16.64532-17.229388 4.38036 0 10.31818 1.168094 13.14106 2.433534.19468.876066.19468 1.6548.19468 2.23884" stroke-width=".973411"/><path d="m777.81406 64.081581c0-15.417321 11.41283-26.830135 26.62991-26.830135 15.4173 0 26.73002 11.51292 26.73002 26.830135 0 15.41732-11.41283 27.030361-26.73002 27.030361-15.31721 0-26.62991-11.713161-26.62991-27.030361m44.34979 0c0-11.813268-8.00898-19.021375-17.71988-19.021375-9.61079 0-17.6198 7.208107-17.6198 19.021375 0 11.813267 8.00901 19.12148 17.6198 19.12148 9.7109 0 17.71988-7.308213 17.71988-19.12148" stroke-width="1.001125"/><path d="m731 65.4h-40.1c1.4 9.8 8.2 15.6 18.5 15.6 4.3 0 7.8-1.1 11.1-2.2 2.2-.8 3.4-1.1 4.2-1.1 2.3 0 3.9 2.2 3.4 6.8-4.5 2.1-11.7 4.3-19.1 4.3-16 0-27.2-11.1-27.2-27.3 0-15.4 11.1-26.6 25.7-26.6 16 0 23.9 12.5 23.9 25 0 1.7-.1 3.6-.4 5.5m-40.2-7.2h31.8c-.3-8.8-5.9-15.6-15.1-15.6-8.2 0-15.4 5.4-16.7 15.6" transform="matrix(1.0004026 0 0 1.0004026 315.51331 2.389004)"/><path d="m739.9 23.5c0-3.3 2.6-5.7 5.8-5.7s5.7 2.4 5.7 5.7c0 2.9-2.5 5.7-5.7 5.7s-5.8-2.7-5.8-5.7m1.2 64.3v-49c0-2.1 1.2-3.4 4.8-3.4 1.5 0 3.3.2 4.1.4v48.9c0 2.2-1.2 3.4-4.8 3.4-1.5.1-3.2-.1-4.1-.3" transform="matrix(1.0000145 0 0 1.0000145 185.68353 2.308231)"/><path d="m644.8 61.9c0-15.4 11.5-26.8 26.4-26.8 6.6 0 12.2 1.7 16.8 3.9.5 4.9-1.2 6.6-3.5 6.6-2.7 0-6.2-2.7-13.3-2.7-9.3 0-17.4 7.3-17.4 19.1s8.1 19.2 17.4 19.2c7.1 0 10.6-2.7 13.3-2.7 2.3 0 4 1.7 3.5 6.6-4.5 2.2-10.2 4-16.8 4-15-.2-26.4-11.8-26.4-27.2" transform="matrix(.99864 0 0 .99864 303.35989 2.252551)"/><path d="m705.11761 39.031206c2.3688-.9528 4.9584-1.6704 7.5288-1.2456 1.344.2064 2.6664.8688 3.4416 2.0184l11.844 16.747201c4.1016-5.6496 8.208-11.296801 12.3-16.953601.8904-1.2312 2.4216-1.8168 3.8952-1.9152 2.2536-.1536 4.5024.384 6.5736 1.2456-5.9328 8.2128-11.8776 16.418401-17.8104 24.631201 6.1824 8.740801 12.3672 17.481601 18.5472 26.224801-2.4192.948001-5.0544 1.675201-7.668 1.231201-1.3512-.2136-2.6808-.8784-3.456-2.037601l-13.0632-18.8808-12.72 18.8448c-.7224 1.120801-1.968 1.800001-3.2568 2.040001-2.5488.5472-5.1048-.2712-7.4544-1.207201 6.264-8.6352 12.5352-17.2656 18.7992-25.903201-5.832-8.28-11.6688-16.557601-17.5008-24.840001z" stroke-width=".24"/></g></svg>