<svg width="1872.2pt" height="605.26pt" version="1.1" viewBox="0 0 1872.2 605.26" xmlns="http://www.w3.org/2000/svg">
 <defs>
  <linearGradient id="a" x1="-8600.5" x2="-8600.5" y1="-4687.6" y2="-4591.4" gradientTransform="matrix(-2.9812,0,0,-2.9812,-24493,-13655)" gradientUnits="userSpaceOnUse">
   <stop stop-color="#a80000" offset="0"/>
   <stop stop-color="#a1000c" offset=".38129"/>
   <stop stop-color="#b90019" offset="1"/>
  </linearGradient>
 </defs>
 <g transform="matrix(.75042 0 0 .75042 186.17 421.3)">
  <path d="m707.27 56.33c7.39-2.06 15.18-0.71 22.66 0.21 0.17 28.16 0.02 56.32 0.07 84.48 0.12 33.63-0.65 67.3 1.72 100.87-7.91 1.24-16.66 3.26-24.2-0.42-6.73-4.19-5.81-13.18-5.73-20.02-4.62 7-10.53 13.35-18.11 17.14-13.34 6.69-29.41 7.81-43.58 3.17-15.05-4.8-27.41-16.42-34.35-30.48-7.2-13.87-8.81-29.99-7.49-45.38 1.33-16.87 9.04-33.36 21.74-44.65 11.36-10.09 26.83-15.2 41.97-14.23 14.66 0.27 28.44 7.74 38.04 18.58-0.02-19.55-0.02-39.11 0-58.66-0.05-4.55 2.65-9.4 7.26-10.61m-47.77 76.42c-8.03 1.43-15.52 5.7-20.83 11.88-6.46 7.59-9.34 17.63-9.81 27.45-0.38 10.83 1.79 22.09 7.85 31.23 5.74 8.77 15.7 14.57 26.16 15.31 14.5 1.39 30.59-5.3 37.22-18.8 0.29-16.3 0.22-32.64 0.03-48.94-6.92-14.71-25.33-20.93-40.62-18.13z"/>
  <path d="m68.21 66.53c8.12-3.45 17.66-5.13 26.08-1.76 4.54 1.76 6.71 6.59 7.36 11.12 8.46 46.36 17.64 92.6 24.84 139.18 3.18-23.67 8.94-46.89 14.53-70.07 5.69-23.29 11.32-46.6 17.03-69.88 1.11-4.91 4.97-8.8 9.74-10.27 9.46-3.03 19.75-2.09 29.26 0.27 11.55 49.9 24.77 99.46 33.83 149.91 3.44-22.36 7.6-44.6 11.73-66.84 4.39-24.82 8.69-49.65 13.07-74.47 0.58-3.89 2.81-7.8 6.68-9.17 7.85-3 16.59-1.39 24.25 1.42-11.06 54.36-22.34 108.67-33.46 163.01-0.87 4.4-2.42 9.25-6.45 11.73-4.73 2.71-10.35 3.16-15.68 3.31-6.71-0.02-13.51-0.23-19.99-2.1-7.66-31.29-15.27-62.58-22.89-93.88-3.96-16.51-6.23-33.38-10.41-49.84-8.85 43.39-20.07 86.24-30.28 129.32-1.14 4.82-2.52 10.22-6.82 13.21-4.63 2.95-10.33 3.27-15.66 3.3-6.54-0.15-13.17-0.52-19.48-2.42-12.36-58.37-24.86-116.72-37.28-175.08z"/>
  <path d="m1058.4 66.55c8.24-3.57 18.11-5.24 26.6-1.56 4.7 2 6.32 7.33 7.05 11.96 8.25 45.91 17.62 91.63 24.42 137.78 3.58-22.42 8.54-44.59 13.98-66.63 5.94-24.3 11.81-48.63 17.78-72.93 1.05-4.59 4.48-8.52 8.98-10.01 9.6-3.43 20.17-2.43 29.91-0.09 6.09 24.59 11.75 49.28 17.71 73.91 6.09 25.15 11.54 50.46 16.27 75.9 3.4-22.11 7.49-44.11 11.59-66.1 4.42-25.01 8.74-50.03 13.17-75.04 0.57-3.92 2.83-7.82 6.74-9.18 7.84-3 16.6-1.43 24.24 1.47-11.36 54.98-22.57 110-33.97 164.98-1.01 5.29-4.63 10.34-10.14 11.48-10.3 2.51-21.29 1.87-31.55-0.55-7.65-31.64-15.44-63.24-23.09-94.88-3.82-16.18-6.07-32.69-10.18-48.8-9.08 44.2-20.43 87.87-30.91 131.74-1.18 5.73-4.79 11.65-10.94 12.82-9.97 2.22-20.53 1.26-30.36-1.2-12.42-58.36-24.86-116.72-37.3-175.07z"/>
  <path d="m352.52 107.73c14.2-1.64 29.06 0.19 41.8 6.95 13.33 6.75 24.07 18.28 29.97 31.99 8.24 18.65 7.98 40.78-0.19 59.4-5.56 12.82-15.48 23.66-27.77 30.32-13.63 7.77-29.91 9.72-45.31 7.72-16.89-2.3-32.97-11.14-43.45-24.66-18.15-23.69-18.93-59.16-1.79-83.62 10.61-15.49 28.16-25.81 46.74-28.1m2.94 25.03c-11.06 2.19-20.77 9.81-25.87 19.81-5.59 10.47-6.44 22.9-4.41 34.43 2.05 10.62 7.89 20.73 16.9 26.89 8.96 5.91 20.62 7.68 30.84 4.26 9.62-3 17.55-10.38 21.86-19.42 4.64-9.09 5.34-19.61 4.48-29.62-1.22-10.66-5.69-21.36-13.93-28.48-8.04-7.02-19.42-9.96-29.87-7.87z"/>
  <path d="m483.8 128.53c9.66-13.2 25.65-21.89 42.15-21.57 12.73-0.51 26.09 3.64 34.87 13.2 10.77 10.96 13.94 26.97 14.15 41.82 0.05 23.03 0.06 46.06 0 69.09 0.13 5.08-2.7 10.69-8 11.84-7.31 1.7-14.92 0.62-22.24-0.49 0.02-26.17 0.03-52.34 0-78.51-0.31-8.54-2.16-17.82-8.58-23.95-6.77-6.7-17.08-8.18-26.14-6.8-9.87 1.94-19.29 7.57-24.73 16.16-0.8 1.04-0.78 2.38-0.8 3.63 0.02 26.02 0.06 52.04-0.01 78.06 0.03 4.94-2.47 10.53-7.66 11.81-7.39 1.87-15.13 0.67-22.56-0.36-0.01-44.01 0-88.03 0-132.04 7.46-1.97 16.09-3.9 23.18 0.2 5.91 3.84 6.23 11.57 6.37 17.91z"/>
  <path d="m806.85 107.95c16.84-2.84 35.21-0.17 49.12 10.26 20.95 15.26 29.26 43.72 24.37 68.56-31.74-0.02-63.48-0.04-95.22 0.01 1.15 8.08 4.13 16.22 10.19 21.93 8.08 7.79 19.72 10.58 30.67 10.33 9.76 0.28 19.22-2.51 28.3-5.77 4.94-1.57 11.31-3 15.53 0.92 5.16 5.06 5.28 13.09 4.24 19.77-3.13 2.56-7.5 3.31-11.22 4.86-15.91 5.77-33.14 7.42-49.91 5.53-16.3-2.02-32.29-9.57-42.86-22.35-10.88-13.01-15.88-30.25-15.59-47.05-0.11-15.95 5.07-32.01 15.07-44.5 9.17-11.68 22.72-19.78 37.31-22.5m-9.79 30.21c-7.54 6.81-11.28 16.89-12.19 26.83 22.88 0.02 45.76 0 68.65 0.01-0.99-8.88-4.06-17.71-10.01-24.5-5.49-6.58-14.12-9.8-22.53-10.01-8.52-0.44-17.52 1.8-23.92 7.67z"/>
  <path d="m1342.5 107.76c16.6-2.11 34.06 1.13 48.08 10.49 13.59 8.86 23.37 23.04 27.45 38.69 5.3 20.19 1.99 42.81-9.95 60.08-10.09 14.61-26.58 24.39-44.08 26.98-14.74 1.99-30.31 0.53-43.69-6.31-14.66-7-26.37-19.81-31.98-35.05-7.29-19.49-6.37-42.28 3.77-60.61 9.96-18.68 29.41-31.79 50.4-34.27m3.04 25c-13.2 2.57-24.08 12.9-28.35 25.52-5.89 17.2-3.22 38.27 9.97 51.48 11.71 11.74 31.79 13.5 45.27 3.76 9.34-6.49 15.08-17.3 16.68-28.41 1.6-11.44 0.4-23.61-5.24-33.85-6.91-13.71-23.27-21.73-38.33-18.5z"/>
  <path d="m1498.7 108.72c13.91-4.13 30.12-1.25 41.09 8.49 4.85 4.24 8.03 10.01 10.42 15.92 4.09-6.59 8.98-12.83 15.22-17.52 7.22-5.65 16.37-8.77 25.54-8.65 8.42-0.22 17.15 1.18 24.45 5.6 7.26 4.37 12.39 11.66 15.3 19.52 3.12 8.25 4.07 17.15 4.04 25.92-0.02 24.37 0 48.75 0 73.13 0.12 5-2.57 10.59-7.82 11.75-7.37 1.77-15.05 0.63-22.43-0.45-0.04-28.14 0-56.28-0.02-84.42-0.16-7.16-2-14.97-7.68-19.8-5.81-5.26-14.3-6.1-21.71-4.64-7.19 1.4-13.31 6.14-17.59 11.93-1.36 1.93-3 3.98-2.77 6.48 0.01 26.02 0.02 52.03 0.01 78.05 0.11 5-1.85 10.96-7.11 12.56-7.52 2.24-15.54 0.9-23.15-0.15 0.02-27.49 0-54.98 0.01-82.47-0.06-7.32-1.48-15.29-6.82-20.71-4.73-5.08-12.05-6.73-18.76-6.25-8.73 0.34-16.44 5.8-21.61 12.54-1.35 1.9-3.05 3.9-2.82 6.39 0.02 26.67 0.02 53.34 0 80.01 0.02 4.68-2.78 9.74-7.57 10.88-7.35 1.85-15.04 0.68-22.42-0.35-0.02-44 0.03-88.01-0.03-132.02 7.37-2.1 15.92-3.86 23 0.07 5.74 3.63 6.35 11.12 6.5 17.26 6.01-8.67 14.63-15.78 24.73-19.07z"/>
  <path d="m1698.4 111.36c20-7.77 44.38-5.71 61.69 7.48 20.3 15.46 28.32 43.4 23.51 67.91-31.74 0.03-63.48-0.03-95.22 0.02 1.2 8.93 4.88 17.99 12.17 23.65 8.4 6.96 19.75 8.99 30.39 8.6 9.68 0.08 18.92-3.11 27.98-6.17 4.7-1.38 10.85-2.31 14.54 1.74 4.91 5.3 4.72 13.09 3.9 19.8-20.32 9.3-43.3 13.08-65.42 9.3-15.78-2.86-30.92-11.09-40.56-24.11-12.47-16.53-15.89-38.54-12.39-58.63 3.83-21.67 18.66-41.53 39.41-49.59m-1.54 30.47c-5.37 6.5-7.91 14.83-8.75 23.11 22.88 0.14 45.77 0.03 68.65 0.05-1.09-10.07-5.02-20.2-12.6-27.14-7.26-6.54-17.64-8.19-27.06-7.08-7.86 0.83-15.37 4.8-20.24 11.06z"/>
  <path d="m1839.3 128.58c9.79-13.35 25.97-22.11 42.68-21.62 12.69-0.44 25.94 3.89 34.63 13.45 10.8 11.24 13.82 27.53 13.9 42.6-0.03 22.65 0.02 45.3-0.02 67.96 0.18 4.98-2.5 10.49-7.6 11.85-7.42 1.87-15.19 0.67-22.64-0.36-0.02-26.17 0.01-52.33-0.01-78.5-0.17-10.01-3.1-21.33-12.18-26.9-13.83-8.43-32.8-4.1-43.5 7.48-2.08 2.42-4.95 4.94-4.58 8.45 0.02 26 0.04 52 0 78 0.21 5.12-2.69 10.73-7.98 11.92-7.32 1.72-14.95 0.61-22.27-0.49 0.06-44.01-0.04-88.02 0.06-132.02 7.32-1.91 15.66-3.78 22.74-0.07 6.22 3.74 6.74 11.74 6.77 18.25z"/>
  <path d="m907.48 110.46c6.59-1.82 13.72-3.35 20.42-1.2 4.56 1.37 7.53 5.74 8.42 10.24 0.96 5.05 0.62 10.21 0.68 15.32 4.06-9.94 10.85-19.34 20.89-23.84 9.39-4.37 20.12-3.64 30.07-1.94 1.56 6.14 2.62 12.92 0.04 18.94-2.2 4.93-7.83 7.3-13 7.02-9.45-0.16-19.78 0.44-27.49 6.59-6.93 5.13-9.71 14.07-9.76 22.38 0.01 20.36-0.01 40.72 0.01 61.08-0.09 4.54 0.58 9.55-2.03 13.57-1.82 3.01-5.27 4.5-8.64 4.86-6.54 0.72-13.14-0.01-19.6-1.04 0.01-44 0.02-87.99-0.01-131.98z"/>
 </g>
 <g transform="translate(0 .005)">
  <path d="m624.21 9e-5h1223c13.753 0 25.006 11.253 25.006 25.006v325.08c0 13.753-11.253 25.006-25.006 25.006h-1223z" fill="url(#a)" stroke-width="2.9812"/>
  <path d="m624.21 375.09h-599.2c-13.753 0-25.006-11.253-25.006-25.006v-325.39c0-13.128 10.94-24.693 24.693-24.693h599.52z" fill="#fff" stroke-width="3.1257"/>
  <g transform="matrix(.75012 0 0 .75012 0 -6e-5)" fill="#fff">
   <path d="m1196.8 46.657c8.08-2.39 17.44-0.61 23.7 5.16 8.96 7.84 10.76 22.47 3.9 32.22-5.08 7.92-15.03 12.37-24.3 10.66-11.61-1.81-21.3-12.73-20.86-24.62-0.19-10.58 7.4-20.56 17.56-23.42z"/>
   <path d="m1017.4 133.46c21.37-5.8 43.96-4.99 65.59-1.1 16.56 3.21 33.02 8.13 47.94 16.07 0.82 7.45 0.64 15.53-3.01 22.28-2.45 4.57-7.4 7.7-12.63 7.47-7.67-0.23-14.56-3.99-21.59-6.62-14.68-6.05-30.63-9.09-46.51-8.39-14.87 0.74-29.66 5.3-41.92 13.84-11.33 7.69-20.34 18.59-26.21 30.93-6.65 14.05-9.41 29.77-8.95 45.25 0.46 14.4 3.53 28.88 10.19 41.73 7.95 15.91 21.5 28.99 37.82 36.15 20.99 9.32 45.36 8.45 66.93 1.55 8.87-2.71 17.08-7.36 26.16-9.37 5.62-1.4 12.21 0.36 15.57 5.29 4.85 6.95 5.01 16.04 4.14 24.15-14.07 7.02-29.27 11.67-44.63 14.88-25.46 5.02-52.52 5.76-77.23-3.13-24.95-8.67-46.58-26.38-60.09-49.06-11.77-19.51-17.68-42.39-17.5-65.12-0.26-25.49 7.13-51.2 21.84-72.12 15.21-21.84 38.36-37.9 64.09-44.68z"/>
   <path d="m1378.5 131.64c20.37-4.35 42.33-2.9 61.39 5.79 14.88 6.78 27.32 18.57 35.15 32.9 9.75 17.49 12.97 37.77 13.25 57.57 0 42.06 0.05 84.12-0.05 126.18 0.17 5.36-2.82 10.92-8.15 12.55-9.57 3.04-19.87 1.53-29.55-0.18-0.06-45.61 0.03-91.23-0.05-136.84-0.58-17.92-4.72-37.02-17.41-50.43-11.02-11.97-27.92-16.85-43.82-16.02-16.43 0.97-32.11 7.86-45.12 17.73-8.09 6.21-15.3 13.73-20.45 22.57-1.14 1.63-0.91 3.67-0.96 5.55 0.08 8.56 0.01 17.11 0.05 25.67 0.02 40.13 0.01 80.26-0.01 120.39 0.21 5.36-3.46 10.34-8.62 11.75-9.37 2.72-19.36 1.35-28.8-0.26-0.16-43.48-0.07-86.96-0.08-130.44 0.08-33.89-0.12-67.78 0.1-101.66 9.07-1.94 18.68-3.43 27.8-0.98 4.91 1.26 9.25 5.39 9.48 10.67 0.35 7.42-0.01 14.85 0.15 22.28 14.33-17.02 33.79-30.09 55.7-34.79z"/>
   <path d="m1579.1 150c30.74-21.87 72.51-26.73 107.67-13.3 16.58 6.46 31.22 17.69 41.88 31.93 10.87 14.34 17.8 31.44 21.11 49.08 3.01 15.84 2.86 32.18 0.27 48.06-60.29 0.07-120.59 0-180.88 0.04 2.21 17.04 8.77 33.95 20.77 46.51 10.38 11.11 24.48 18.3 39.23 21.59 22.1 4.92 45.28 2.4 66.72-4.37 7.84-2.21 15.32-5.66 23.31-7.37 5.57-1.42 11.72 1.3 14.58 6.26 4.25 7.17 3.74 15.87 3.17 23.87-19.57 8.63-40.34 14.62-61.56 17.38-19.3 2.53-39.12 2.24-58.08-2.43-16.65-4.06-32.58-11.5-45.88-22.37-14.06-11.32-25.03-26.31-31.98-42.94-9.86-23.76-12.22-50.39-7.98-75.68 5.19-30.3 22.29-58.65 47.65-76.26m17.36 30.27c-13.64 11.51-22.05 28.12-25.99 45.33-0.44 2.72-0.87 5.44-1.29 8.17 48.37 0 96.74-0.01 145.11 0-0.3-4.91-0.85-9.79-1.77-14.63-3.32-16.57-11.88-32.49-25.42-42.9-26.12-20.22-66.03-17.3-90.64 4.03z"/>
   <path d="m1879.3 133.17c21.25-6.87 45.68-4.8 64.78 7.1 11.91 7.31 21.04 18.49 27.09 31 9.14-13.12 20.8-24.75 35.02-32.29 17.83-9.56 39.11-11.94 58.81-7.71 14.06 3.02 27.23 10.4 36.75 21.24 12.31 13.79 18.58 32.08 20.24 50.29 0.97 10.37 0.4 20.8 0.55 31.21-0.04 40.16 0.05 80.34-0.06 120.5 0.17 5.76-3.84 11.05-9.43 12.42-9.4 2.54-19.36 1.27-28.79-0.52 0.01-42.8-0.01-85.61-0.02-128.42-0.23-11.22 0.66-22.52-0.93-33.67-1.46-9.94-5.03-19.84-11.76-27.44-6.16-7.04-14.97-11.41-24.12-12.93-27.02-5.03-54.58 11.73-66.73 35.54-1.21 2.79-0.57 5.94-0.69 8.89 0.02 48.58 0.05 97.16-0.02 145.74 0.28 5.65-3.22 11.29-8.82 12.76-9.59 2.65-19.77 1.3-29.4-0.44-0.01-29.46-0.01-58.92-0.01-88.38-0.17-22.64 0.32-45.29-0.26-67.92-0.73-9.29-2.85-18.66-7.59-26.77-4.58-7.96-12.01-14.27-20.7-17.29-14.94-5.25-31.92-3.43-45.78 4.04-10.33 5.46-19.26 13.56-25.69 23.31-1.78 2.98-4.3 5.92-4.24 9.58-0.1 3.75 0.03 7.5 0.02 11.25 0.04 46.59 0.01 93.19-0.01 139.78 0.3 5.58-3.05 11.21-8.58 12.75-9.48 2.73-19.63 1.5-29.16-0.36 0-50.27-0.03-100.54 0-150.8 0.02-27.01-0.01-54.02 0.01-81.03 8.65-1.91 17.74-3.44 26.53-1.45 5.05 1.07 9.59 5.03 10.31 10.32 0.86 6.75 0.19 13.59 0.4 20.37 10.8-13.94 25.39-25.23 42.28-30.67z"/>
   <path d="m2255.9 129.89c17.19-1.23 34.69-0.86 51.52 3.17 13.74 3.27 27.14 9.51 37.07 19.76 10.85 10.79 16.89 25.54 19.55 40.42 2.85 14.42 1.83 29.17 2.01 43.77-0.02 43.16 0.03 86.32-0.03 129.48-8.95 1.65-18.28 2.8-27.26 0.8-5.34-1.09-10.03-5.64-10.18-11.26-0.16-7.2 0.01-14.4-0.05-21.59-9.66 10.19-20.7 19.21-33.29 25.52-16.85 8.58-36.04 12-54.84 11.19-15.27-0.63-30.64-4.41-43.72-12.49-14.38-8.77-25.53-22.9-30.05-39.19-4.79-17.16-3.22-36.51 6.17-51.87 6.78-11.09 17.31-19.42 28.76-25.31 16.65-8.48 35.14-12.62 53.58-14.98 24.17-2.98 48.62-2.81 72.9-1.26-0.09-10.48-0.18-21.12-2.94-31.31-2.15-7.96-6.31-15.56-12.73-20.85-7.15-5.88-16.23-8.83-25.27-10.16-25.14-3.34-50.68 1.14-74.67 8.72-5.04 1.38-10 3.18-15.2 3.77-5.25 0.51-10.64-2.24-13.06-6.95-3.77-7.19-3.52-15.68-2.55-23.51 23.88-8.65 48.96-13.95 74.28-15.87m25.3 125.03c-17.4 1.05-35.09 2.99-51.35 9.62-9.34 3.91-18.36 10.1-23 19.37-7.01 13.91-3.62 32.09 7.98 42.52 7.95 7.51 18.67 11.45 29.43 12.56 16.59 1.49 33.6-1.83 48.41-9.5 13.04-6.54 24.33-16.26 33.43-27.61 0.8-1.14 2.07-2.21 1.91-3.77 0.07-14.33-0.06-28.67 0.05-42.99-15.61-0.88-31.25-0.94-46.86-0.2z"/>
   <path d="m1193.1 133.91c9.65-3.09 20.03-1.43 29.72 0.69 0 34.69-0.02 69.38 0 104.07 0.04 38.13-0.02 76.25 0.01 114.38 0.03 4.08-0.97 8.55-4.34 11.2-4.23 3.37-9.94 3.91-15.15 4.07-6.31 0.12-12.58-0.67-18.75-1.87-0.05-42.1-0.02-84.19-0.02-126.29 0.03-31.39-0.05-62.78 0.03-94.17-0.12-5.36 3.32-10.5 8.5-12.08z"/>
  </g>
  <path d="m421.97 333.52c4.0635 2.188 12.19 4.6886 22.818 4.6886 17.817 0.31257 27.507-6.5641 34.696-22.505l95.648-213.18c-4.0635-2.188-12.816-4.376-19.692-4.6886-12.19-0.31257-28.757 2.188-39.384 27.507l-30.945 73.142-60.952-98.461c-4.0635-1.2503-13.441-2.8132-20.63-2.8132-21.255 0-33.445 7.8144-45.948 21.255l-58.764 64.39 47.511 74.705c8.7521 13.753 20.317 20.63 39.072 20.63 12.19 0 22.505-2.8132 27.194-5.0012l-57.201-86.27 40.635-42.823 66.578 104.4zm-125.34-80.644c0 15.629-6.2515 24.693-36.884 24.693-4.0635 0-7.5018-0.31258-10.94-0.93773v-208.17c0-15.941 5.3138-32.195 36.258-32.195 3.7509 0 7.8144 0.31257 11.565 1.2503zm-63.452-31.257c0 29.382-19.067 50.637-58.139 55.013-28.132 3.1257-69.079-0.62514-88.458-2.8132-0.62515-3.1257-1.2503-7.1892-1.2503-10.315 0-25.631 13.753-31.57 26.881-31.57 13.441 0 34.696 2.188 50.637 2.188 17.504 0 22.505-5.9389 22.505-11.565 0-7.5018-6.8766-10.315-20.63-13.128l-36.571-6.564c-30.632-5.9389-46.886-27.194-46.886-49.699 0-27.506 19.38-50.324 57.513-54.7 28.757-3.1257 64.078 0.31257 83.145 2.8132 0.62514 3.4383 0.93772 6.564 0.93772 10.002 0 25.631-13.441 30.945-26.569 30.945-10.002 0-25.318-1.8754-43.135-1.8754-18.129 0-25.318 5.0012-25.318 10.94 0 6.2515 7.1892 9.0646 18.442 10.94l35.321 6.5641c36.259 6.8766 51.575 27.507 51.575 52.825" fill="url(#a)" stroke-width="2.9812"/>
  <path d="m25.006 0c-13.753 0-25.006 11.253-25.006 25.006v226.3c0-20.005 16.003-36.509 36.008-37.259l1836.2-69.266v-119.78c0-13.753-11.253-25.006-25.006-25.006z" fill="#fff" opacity=".2"/>
 </g>
</svg>
