<svg height="106.89166mm" viewBox="0 0 3764.2635 378.75" width="1062.3588mm" xmlns="http://www.w3.org/2000/svg" xmlns:xlink="http://www.w3.org/1999/xlink"><linearGradient id="a" gradientTransform="matrix(0 362.31091 362.31091 0 1500.2117 -254.13886)" gradientUnits="userSpaceOnUse" spreadMethod="pad" x1="0" x2="1" y1="0" y2="0"><stop offset="0" stop-color="#777878"/><stop offset=".020448" stop-color="#d0d2d0"/><stop offset=".0524045" stop-color="#f3f3f2"/><stop offset=".487663" stop-color="#e9ebe9"/><stop offset=".895488" stop-color="#f3f3f2"/><stop offset=".929442" stop-color="#e6e7e6"/><stop offset=".964262" stop-color="#d0d2d0"/><stop offset="1" stop-color="#777878"/></linearGradient><linearGradient id="b" gradientTransform="matrix(0 -356.33281 659.28294 0 2116.7191 105.42255)" gradientUnits="userSpaceOnUse" spreadMethod="pad" x1="0" x2="1" y1="0" y2="0"><stop offset="0" stop-color="#820021"/><stop offset=".104411" stop-color="#ae2c3f"/><stop offset=".898134" stop-color="#ae2c3f"/><stop offset=".999673" stop-color="#b53152"/><stop offset="1" stop-color="#ba3c4c"/></linearGradient><g transform="translate(-247.92647 263.48539)"><path d="m3957.7701 115.26463c41.719 0 54.4201-25.925472 54.4201-51.850942v-275.048138c0-25.92547-12.7008-51.85094-54.4198-51.85094h-3655.42343c-41.71891 0-54.4205 25.92547-54.4205 51.85094v275.048138c0 25.92547 12.70159 51.850942 54.4205 51.850942zm-3653.50117-3.48876c-28.07723 0-47.08785-16.566401-47.08785-44.163134v-283.446236c0-27.59672 19.01062-44.16313 47.08785-44.16313h3651.57867c28.0773 0 47.088 16.56641 47.088 44.16313v283.446236c0 27.596733-19.0107 44.163134-47.088 44.163134z" fill="#939697"/><path d="m300.01553-251.03866c-28.09812 0-38.08391 16.58728-38.08391 44.16313v268.007939c0 27.596733 9.98579 44.163121 38.08391 44.163121h3660.08197c28.0981 0 38.0834-16.566388 38.0834-44.163121v-268.007939c0-27.57585-9.9853-44.16313-38.0834-44.16313z" fill="url(#a)"/><path d="m917.79796 105.42088h2555.66964v-356.3342h-2555.66964z" fill="url(#b)"/><g fill="#fff"><path d="m1093.6713 39.861408c-15.7935 0-30.3753-2.841148-43.7245-8.523442-13.3492-5.703187-24.9018-13.558124-34.6996-23.5857021-9.7978-10.0484705-17.46473-21.9771109-23.02167-35.8068149-5.55695-13.829703-8.33542-28.766616-8.33542-44.831633 0-15.605423 2.77847-30.228976 8.33542-43.828876 5.55694-13.59991 13.22387-25.42409 23.02167-35.45167 9.7978-10.04848 21.3504-17.90341 34.6996-23.5857 13.3492-5.70319 27.931-8.54433 43.7245-8.54433 11.3437 0 22.353 1.23255 33.0282 3.67677 10.6962 2.46512 20.5775 5.57784 29.7068 9.37996 2.0054 29.66493-5.2228 44.49739-21.6848 44.49739-2.9037 0-5.5568-.33426-8.022-1.00275-2.4442-.66851-5.1182-1.33702-8.0011-2.00552-2.9038-.6685-6.121-1.33701-9.6724-2.00552-3.5724-.66851-7.7923-1.02365-12.6807-1.02365-7.7924 0-15.125 1.39969-22.0399 4.19906-6.8939 2.77847-12.8269 6.78949-17.8406 12.03308-5.0139 5.24359-8.9622 11.55261-11.8452 18.906168-2.9038 7.353563-4.3453 15.605423-4.3453 24.755588 0 9.588871 1.4415 18.174986 4.3453 25.758342 2.883 7.583358 6.8313 13.99683 11.8452 19.240418 5.0137 5.243588 10.9467 9.25462 17.8406 12.053986 6.9149 2.778475 14.2475 4.178158 22.0399 4.178158 4.8884 0 9.2337-.334253 13.015-1.002758 3.7811-.668505 7.1655-1.337011 10.1737-2.005516 3.0083-.668505 5.8494-1.337011 8.5026-2.005516 2.674-.668505 5.4524-1.002757 8.3564-1.002757 16.232 0 23.4602 14.8324604 21.6845 44.476491-9.1293 3.802123-19.303 6.935742-30.5423 9.379964s-22.5202 3.67678-33.8639 3.67678"/><path d="m1208.8317 37.185297c-4.6796 0-9.2964-.229798-13.8506-.668506-4.5541-.438706-8.3981-1.002758-11.5108-1.671262v-193.720299c0-6.45524 2.0055-11.97042 5.9956-16.5455 4.011-4.57508 11.5735-6.85218 22.7083-6.85218 4.6795 0 9.2755.2089 13.8507.66851 4.554.43871 8.398 1.00276 11.5107 1.67126v193.699401c0 6.476146-2.0055 11.991315-6.0165 16.566397-3.9901 4.575083-11.5735 6.852179-22.6874 6.852179"/><path d="m1300.1036 37.185297c-4.4498 0-8.795-.229798-13.015-.668506-4.2408-.438706-7.7922-1.002758-10.6752-1.671262v-213.106949c3.3217-1.1281 7.6669-2.06819 13.015-2.84115 5.3271-.79384 9.8813-1.16988 13.6835-1.16988 12.221 0 21.1205 1.54592 26.6984 4.67954 5.557 3.11273 10.2157 7.68781 13.9968 13.70436l75.7709 119.432641v-116.424371c0-2.88293.376-5.61962 1.1699-8.18918.773-2.56958 2.11-4.84668 3.9901-6.85219 1.901-2.00551 4.5125-3.57233 7.855-4.67953 3.3216-1.12811 7.5625-1.67127 12.6807-1.67127 4.4497 0 8.7324.2089 12.8479.66851 4.1154.43871 7.6042.87741 10.508 1.33701v213.441196c-3.1127 1.566808-6.894 2.611348-11.3437 3.175399-4.4498.564052-8.795.835632-13.015.835632-10.4663 0-18.2585-1.441465-23.3559-4.345285-5.139-2.903819-9.3591-6.914851-12.6806-12.053985l-81.0981-129.794477v124.112182c0 6.246347-1.9012 11.489935-5.6823 15.730765-3.7813 4.240831-10.905 6.3508-21.3504 6.3508"/><path d="m1537.1701 35.848287c-6.2254 0-11.3019-.668506-15.1876-2.005517-3.8857-1.33701-6.894-3.1754-9.0039-5.515167-2.1308-2.339769-3.5723-5.201807-4.3452-8.544334-.773-3.342526-1.17-6.893961-1.17-10.6960842v-163.9300348c0-3.80212.397-7.37444 1.17-10.71697.7729-3.34252 2.2144-6.18367 4.3452-8.52344 2.1099-2.33978 5.1182-4.17816 9.0039-5.51517s8.9622-2.00551 15.1876-2.00551h110.4497c.4596 2.44422.8982 5.78674 1.337 10.02758.4595 4.24083.6685 8.58611.6685 13.03585 0 9.37997-1.8802 16.02323-5.6614 19.90893-3.8021 3.90657-8.5653 5.8703-14.3521 5.8703h-68.083v38.125696h78.424c.4387 2.235311.8983 5.201803 1.337 8.87858.4387 3.676786.6685 7.646034.6685 11.865974 0 8.920368-1.7965 14.999586-5.348 18.237657-3.5514 3.238073-8.0012 4.846663-13.3492 4.846663h-61.7323v37.81233h89.4334c.4388 2.444223.8983 5.8494214 1.3371 10.1947056.4387 4.3452839.6685 8.648787.6685 12.8896174 0 9.588873-1.9011 16.273925-5.6823 20.076048-3.7812 3.781234-8.5652 5.682296-14.3311 5.682296z"/><path d="m1697.5843 37.185297c-5.1182 0-9.6307-.501379-13.5163-1.504137-3.9066-1.002758-7.2909-2.172642-10.1739-3.509653l20.3894-208.427397c4.2409-1.79662 9.7979-3.23809 16.6917-4.34529 6.8941-1.12811 12.7853-1.67127 17.6737-1.67127 6.894 0 12.8479.43871 17.8408 1.33701 5.0137.87742 9.2963 2.38155 12.8479 4.5124 3.5514 2.10998 6.3924 5.07647 8.5025 8.8577 2.11 3.80213 3.7185 8.48166 4.8466 14.05951l8.6696 40.48635c2.4442 11.13479 5.0557 23.460353 7.8341 36.955803 2.7784 13.495453 5.2853 27.387829 7.4998 41.656237h1.337c2.4442-14.268408 4.9929-28.098111 7.6669-41.489104 2.6741-13.370113 5.4525-25.653896 8.3355-36.788686l10.6543-42.49186c2.674-10.48718 6.9357-17.63182 12.8269-21.41307 5.8912-3.80212 15.0622-5.68229 27.4923-5.68229 6.2255 0 12.4927.50138 18.8225 1.50414 6.33 1.00276 11.6154 2.0473 15.8353 3.1754l19.5121 209.764417c-3.1128 1.107212-6.8522 2.235314-11.1767 3.342526-4.3452 1.107213-9.0665 1.671264-14.1848 1.671264-7.1237 0-13.1403-1.232557-18.0288-3.676779-4.8884-2.444222-7.5624-7.040196-8.0012-13.725249l-5.0137-72.261242c-1.1072-12.722487-2.0473-26.029927-2.8412-39.984973-.7729-13.934154-1.2743-27.137134-1.5041-39.629824h-.6685c-2.8829 11.59439-5.8285 24.12886-8.8368 37.624311-3.0083 13.49545-6.0584 25.925471-9.171 37.31095l-13.6835 56.86472864c-3.3425 13.39099636-13.9133 20.07604936-31.7122 20.07604936-4.4498 0-9.0041-.438706-13.6835-1.33701-4.6586-.877414-8.6697-1.880172-12.0123-3.008275l-17.0051-70.92423c-3.3424-13.161195-6.4551-26.092597-9.3381-38.815089-2.9038-12.701595-5.5778-25.424085-8.022-38.125695h-1.0029c-.6684 17.84074-1.5459 34.177342-2.674 49.009798-1.1071 14.832464-2.1099 27.596733-2.9873 38.292818l-5.3481 65.241936c-.4387 6.476145-2.8829 10.946774-7.3326 13.390996-4.4706 2.444222-10.2366 3.676779-17.3603 3.676779"/><path d="m2012.467-54.149236h49.929l-24.9019-81.975454zm-52.0598 92.003037c-4.22 0-9.0666-.396924-14.4982-1.169883-5.4735-.79385-9.9649-1.83839-13.5164-3.1754l69.2321-212.104188c6.0165-1.56682 12.0958-2.69492 18.2377-3.36341 6.1418-.66851 11.7615-1.00277 16.9007-1.00277 7.3534 0 13.6624.56405 18.906 1.67126 5.2437 1.1281 9.6516 2.79937 13.224 5.0347 3.5723 2.21441 6.5179 5.1809 8.8576 8.85768 2.3398 3.67678 4.3035 7.98028 5.8704 12.88962l59.3298 187.682855c-3.7812 1.566809-8.3354 2.715803-13.6835 3.509653-5.3271.772959-10.5707 1.169883-15.6889 1.169883-5.7868 0-11.3855-.960975-16.838-2.841146-5.4526-1.901062-9.4008-6.183674-11.8452-12.889617l-11.3645-34.448913h-72.7835l-9.6307 32.443397c-2.4442 7.813155-6.5596 12.72249-12.3464 14.728006-5.7868 2.005517-11.9078 3.008273-18.363 3.008273"/></g><path d="m3679.346-95.636259v-50.305021c0-13.64168 5.4317-22.31136 33.5925-22.31136 3.4678 0 6.4343.2298 9.9022.77295v165.0581352c0 13.5790138-5.4316 22.2486898-33.6342 22.2486898-3.4261 0-6.4135-.271579-9.8605-.772959v-74.956153h-87.6786v53.4804222c0 13.5790138-5.4526 22.2486898-33.6551 22.2486898-3.4052 0-6.3717-.271579-9.8813-.772959v-164.995456c0-13.64168 5.4526-22.31136 33.6341-22.31136 3.468 0 6.4344.2298 9.9023.77295v71.843431zm249.645 21.183264c0-56.070885-40.3819-94.113015-107.2324-94.113015h-45.4583c-21.8101 0-27.0327 11.48994-27.0327 26.59398v135.3932078c0 14.4773176 5.2226 26.2597232 27.0327 26.2597232h45.4583c66.8505 0 107.2324-38.042129 107.2324-94.133896m-136.1453 53.835562v-107.671137h31.4615c43.808 0 59.8313 28.369699 59.8313 53.835575 0 25.528542-16.0233 53.835562-59.8313 53.835562z" fill="#ae2c3f"/><path d="m488.70322-38.616935c0 30.5005543-19.9507 52.791026-60.45793 57.198983-29.33068 3.133619-71.82254-.564051-92.00304-2.882928-.75208-3.300746-1.33702-7.3953398-1.33702-10.6125221 0-26.6984289 14.43554-32.7776489 27.95188-32.7776489 14.03861 0 36.14107 2.423332 52.60301 2.423332 18.07053 0 23.5857-6.141893 23.5857-11.970423 0-7.666919-7.29089-10.86321-21.32949-13.537231l-38.41817-7.39534c-31.9838-6.121002-49.05158-28.244347-49.05158-51.725597 0-28.53682 20.20141-52.41498 59.91479-56.82294 30.04096-3.23808 66.57895.41782 86.65499 2.88292.73119 3.44698 1.10722 6.70594 1.10722 10.27827 0 26.61487-14.01772 32.35983-27.55494 32.35983-10.38274 0-26.51042-1.94283-44.91521-1.94283-18.73904 0-26.51042 5.18091-26.51042 11.48992 0 6.66416 7.41624 9.42175 19.13597 11.46904l36.72602 6.810407c37.72875 6.956633 53.89822 28.390579 53.89822 54.754758m65.91044 32.7567592c0 16.3574888-6.41346 25.8001258-38.35547 25.8001258-4.24084 0-7.93851-.313362-11.48994-.835632v-217.055298c0-16.48284 5.61962-33.67596 37.875-33.67596 4.05282 0 8.1683.41782 11.97041 1.21166zm130.56744 83.9600838c4.17817 2.151751 12.78517 4.74221 23.62749 5.034681 18.50924.396925 28.64127-6.705945 36.14107-23.314121l99.52372-221.985538c-4.11549-2.21442-13.1821-4.65864-20.6401-4.82577-12.78517-.22979-29.9574 2.38155-40.94594 28.55771l-32.23449 76.063368-63.19464-102.928928c-4.07372-1.25344-14.01772-3.05005-21.32951-3.05005-22.29046 0-34.78316 8.23098-47.71456 22.26959l-61.4398 67.205664 49.4276 77.7764105c9.12927 14.1639555 21.16237 21.3921685 40.71615 21.3921685 12.78516 0 23.41856-2.903819 28.3488-5.264479l-59.49697-89.725939 42.1785-44.685405 69.16941 108.569437z" fill="#ae2c3f"/><g transform="translate(-88.613684 7.182629)"><path d="m2311.0796 18.70069c3.2089-55.05597 1.6142-210.92614-2.3837-233.00936l-.7912-4.37019-.7975 7.10466c-2.8612 25.48606-3.7227 55.14891-3.6911 127.04822.032 70.79849.8659 100.98251 3.6965 133.734917l.8307 9.612225.7889-6.686756c.4338-3.67771 1.4903-18.722889 2.3474-33.433716z" fill="#fff" stroke-width="1.064457"/><g fill="#fff" transform="matrix(.93963774 0 0 .93963774 2349.0234 -222.22275)"><path d="m345.6 14.50025h59.98l-41.46 127.3395h10.85l83.35475-65.04h77.91525l-112.95 85.13025 64.97 81.84h-67.91l-55.76-70.35h-11.01l-22.46 70.35h-59.95z"/><path d="m1168.63 14.48975h59.92l-14.21 43.77h-59.87z"/><path d="m122.17 25.54c14.4-3.06 29.15-3.86 43.84-3.98h149.39l-13.86916 41.73975h-145.56084c-7.62-.02-15.5.78025-22.36 4.33025-6.82 3.43-11.88 9.49-15.48 16.1-3.68 6.76-6.54 14.54-5.44 22.34 1.58 5.72 8.62 5.59 13.38 6.21 31.98.26 63.97-.26 95.94.29 13.25.68 27.1 1.9 38.93 8.51 8.52 4.63 14.52 13.32 16.02 22.89 1.82 11.72-.24 23.75-4.19 34.84-4.36 12.03-9.6 24.06-18.18 33.73-11.13 13.16-26.92 21.85-43.52 25.97-22.19 5.9-45.29 5.45975-68.04 5.32975h-133.7l13.36-41.2395h141.31c11.34.17 23.54.11975 33.41-6.27025 7.12119-4.71414 11.21169-12.33067 14.24855-20.13286 1.18178-3.0362 2.38184-5.9897 2.87912-8.98752.232-1.39859.39368-2.81239.66233-4.19962.62-3.34-.16-7.5-3.5-9.1-3.47-1.06-7.11-1.48-10.73-1.48-28.33.02-56.67 0-85.01 0-13.43.11-27.05-.78-39.97-4.74-8.91-2.81-17.45-8.36-21.73-16.92-4.41-8.11-4.39-17.65-3.62-26.6.88-6.93 2.44-13.82 4.96-20.35 4.06-12.16 10.89-23.34 19.45-32.85 12.32-13.46 29.44-21.69 47.12-25.43z"/><path d="m1001.19 22.06c4.8193-.287571 9.6462-.432345 14.4769-.49025h131.0031l-15.46 46.5405h-106.18c-9.05.04-18.17-.30025-27.14 1.10975-8.88 1.45-17.68 4.34-25.09 9.55-11.85 7.86-19.38 20.79025-23.83 34.01025h167.82l-14.7 46.80975h-168.24l-27.34 84.18h-61.52l36.13-111.64c6.13-20.4 13.43-40.77 25.43-58.54 10.01-15.02 23.2-28.23 39.2-36.79 16.99-9.22 36.25-13.55 55.44-14.74z"/><path d="m543.42 76.79975h58.8l24.63 105.70025 92.07-105.70025h67.91l-189.61 211.58025h-68.34l53.91-61.99z"/><path d="m1147.29 80.30975h59.74l-52.92 163.46025h-59.96z"/><path d="m770.32 120.35975h95.64l-12.79 39.56025h-95.8z"/></g></g><path d="m3949.8755 21.856548c34.9479 23.91995 39.7203 46.482 40.9588 51.454 3.4132 0 4.6818-10.57073 4.6818-26.34328l-.1208-252.966508c0-29.28888-13.7737-39.19111-49.6882-39.19111-12.1426 0-24.3154 4.5124-40.5056 4.5124h-3550.21845c-16.1902 0-28.3328-4.5124-40.5057-4.5124-35.8842 0-49.6881 9.90223-49.6881 39.19111l-.1209 252.966508c0 15.77255 1.2687 26.34328 4.7121 26.34328 1.2384-4.972 2.2956-29.28888 40.9588-51.454 308.6103-164.577598 3306.76145-215.091518 3639.53625 0" fill="#fff" opacity=".4"/></g></svg>