<?xml version="1.0" encoding="UTF-8"?>
<!-- Created with Inkscape (http://www.inkscape.org/) -->
<svg id="svg21238" width="838.9mm" height="206.02mm" version="1.1" viewBox="0 0 2972.5 730" xmlns="http://www.w3.org/2000/svg" xmlns:cc="http://creativecommons.org/ns#" xmlns:dc="http://purl.org/dc/elements/1.1/" xmlns:rdf="http://www.w3.org/1999/02/22-rdf-syntax-ns#">
 <defs id="defs21240">
  <clipPath id="clipPath6800">
   <path id="path6802" d="m96.036 588.19s-4.583 0-4.583-4.584v-15.278s0-4.584 4.583-4.584h37.605s4.584 0 4.584 4.584v15.278s0 4.584-4.584 4.584h-37.605z"/>
  </clipPath>
  <linearGradient id="linearGradient6782" x2="1" gradientTransform="matrix(0 6.4463 6.4463 0 116.2 572.84)" gradientUnits="userSpaceOnUse">
   <stop id="stop6784" stop-color="#af6773" offset="0"/>
   <stop id="stop6786" stop-color="#c9747a" offset=".10441"/>
   <stop id="stop6788" stop-color="#c9747a" offset=".89813"/>
   <stop id="stop6790" stop-color="#d49093" offset=".99967"/>
   <stop id="stop6792" stop-color="#d49093" offset="1"/>
  </linearGradient>
  <linearGradient id="linearGradient6752" x2="1" gradientTransform="matrix(0 -6.5544 6.5544 0 114.84 579.34)" gradientUnits="userSpaceOnUse">
   <stop id="stop6754" stop-color="#b4b2b1" offset="0"/>
   <stop id="stop6756" stop-color="#e8e8e9" offset=".020448"/>
   <stop id="stop6758" stop-color="#f9f9fa" offset=".052404"/>
   <stop id="stop6760" stop-color="#f5f5f5" offset=".48766"/>
   <stop id="stop6762" stop-color="#f9f9fa" offset=".89549"/>
   <stop id="stop6764" stop-color="#f4f3f4" offset=".92944"/>
   <stop id="stop6766" stop-color="#e8e8e9" offset=".96426"/>
   <stop id="stop6768" stop-color="#b4b2b1" offset="1"/>
  </linearGradient>
  <clipPath id="clipPath6702">
   <path id="path6704" d="m96.036 588.19s-4.583 0-4.583-4.584v-15.278s0-4.584 4.583-4.584h37.605s4.584 0 4.584 4.584v15.278s0 4.584-4.584 4.584h-37.605z"/>
  </clipPath>
  <linearGradient id="linearGradient6684" x2="1" gradientTransform="matrix(0 6.4463 6.4463 0 116.2 572.84)" gradientUnits="userSpaceOnUse">
   <stop id="stop6686" stop-color="#810a32" offset="0"/>
   <stop id="stop6688" stop-color="#a90e3a" offset=".10441"/>
   <stop id="stop6690" stop-color="#a90e3a" offset=".89813"/>
   <stop id="stop6692" stop-color="#b94556" offset=".99967"/>
   <stop id="stop6694" stop-color="#b94556" offset="1"/>
  </linearGradient>
  <linearGradient id="linearGradient6654" x2="1" gradientTransform="matrix(0 -6.5544 6.5544 0 114.84 579.34)" gradientUnits="userSpaceOnUse">
   <stop id="stop6656" stop-color="#888685" offset="0"/>
   <stop id="stop6658" stop-color="#d9d9da" offset=".020448"/>
   <stop id="stop6660" stop-color="#f5f5f6" offset=".052404"/>
   <stop id="stop6662" stop-color="#eeefef" offset=".48766"/>
   <stop id="stop6664" stop-color="#f5f5f6" offset=".89549"/>
   <stop id="stop6666" stop-color="#ebebec" offset=".92944"/>
   <stop id="stop6668" stop-color="#d9d9da" offset=".96426"/>
   <stop id="stop6670" stop-color="#888685" offset="1"/>
  </linearGradient>
  <clipPath id="clipPath6636">
   <path id="path6638" d="m92.357 572.64h44.961v6.852h-44.961v-6.852z"/>
  </clipPath>
 </defs>
 <metadata id="metadata21243">
  <rdf:RDF>
   <cc:Work rdf:about="">
    <dc:format>image/svg+xml</dc:format>
    <dc:type rdf:resource="http://purl.org/dc/dcmitype/StillImage"/>
    <dc:title/>
   </cc:Work>
  </rdf:RDF>
 </metadata>
 <g id="layer1" transform="translate(-289.04 390.5)">
  <g id="g4229" transform="matrix(52.89 0 0 52.89 -14998 -17894)">
   <g id="g6632" transform="matrix(1.25 0 0 -1.25 173.6 1055.3)">
    <g id="g6634" clip-path="url(#clipPath6636)">
     <g id="g6640" transform="translate(136.34 572.64)">
      <path id="path6642" d="m0 0c0.755 0 0.985 0.469 0.985 0.938v4.976c0 0.469-0.23 0.938-0.985 0.938h-42.994c-0.755 0-0.985-0.469-0.985-0.938v-4.976c0-0.469 0.23-0.938 0.985-0.938h42.994m-42.959 0.063c-0.508 0-0.852 0.3-0.852 0.799v5.128c0 0.499 0.344 0.799 0.852 0.799h42.924c0.508 0 0.852-0.3 0.852-0.799v-5.128c0-0.499-0.344-0.799-0.852-0.799h-42.924" fill="#a1a2a2"/>
     </g>
    </g>
   </g>
   <g id="g6644" transform="matrix(1.25 0 0 -1.25 173.6 1055.3)">
    <g id="g6646">
     <g id="g6652">
      <path id="path6672" d="m93.299 579.29c-0.508 0-0.688-0.3-0.688-0.8v-4.848c0-0.499 0.18-0.799 0.688-0.799h11.177v3.64c-0.672-0.053-1.325-0.109-1.959-0.172l-1.186-2.646c-0.132-0.292-0.31-0.422-0.627-0.422-9e-3 0-0.018 0-0.027 1e-3 -0.197 6e-3 -0.352 0.052-0.428 0.091l0.763 1.609-0.718 1.125c-0.402-0.05-0.795-0.101-1.174-0.155l0.954-1.439c-0.089-0.042-0.282-0.094-0.513-0.094-0.354 0-0.572 0.13-0.736 0.387l-0.639 1.006c-0.1-0.016-0.201-0.032-0.298-0.048v-0.872c0-0.296-0.117-0.467-0.694-0.467-0.077 0-0.144 6e-3 -0.208 0.016v1.162c-0.099-0.019-0.196-0.037-0.293-0.056 1e-3 -0.021 2e-3 -0.042 2e-3 -0.062 0-0.552-0.361-0.955-1.093-1.035-0.146-0.016-0.31-0.022-0.478-0.022-0.445 0-0.922 0.043-1.187 0.074-0.014 0.059-0.024 0.134-0.024 0.191 0 0.027 1e-3 0.053 2e-3 0.077-0.284-0.122-0.515-0.249-0.684-0.38-0.483-0.4-0.497-0.84-0.512-0.93-0.043 0-0.059 0.191-0.059 0.477l1e-3 4.575c0 0.53 0.173 0.709 0.622 0.709 0.152 0 0.304-0.082 0.507-0.082h10.686v0.186h23.457v-0.186h7.955c0.203 0 0.355 0.082 0.507 0.082 0.449 0 0.622-0.179 0.622-0.709l1e-3 -4.575c0-0.286-0.015-0.477-0.059-0.477-0.015 0.09-0.074 0.497-0.512 0.93-0.378 0.354-1.011 0.667-1.854 0.943l2e-3 -0.863c0-0.122-0.038-0.227-0.113-0.313-0.076-0.087-0.22-0.13-0.431-0.131h-6e-3c-0.086 0-0.172 4e-3 -0.256 0.012-0.087 8e-3 -0.16 0.018-0.219 0.031l-4e-3 1.558c-0.394 0.098-0.818 0.191-1.27 0.278-0.016-0.056-0.041-0.1-0.074-0.132-0.065-0.061-0.144-0.091-0.238-0.091l-0.817-2e-3 2e-3 -0.89c0-0.094-0.028-0.172-0.085-0.236-0.058-0.063-0.163-0.095-0.318-0.095h-4e-3c-0.068 0-0.132 3e-3 -0.194 9e-3 -0.063 6e-3 -0.117 0.013-0.161 0.021l-2e-3 1.189-1.105-3e-3c-8e-3 0.041-0.016 0.089-0.025 0.144-8e-3 0.055-0.012 0.119-0.013 0.192 0 0.155 0.033 0.262 0.098 0.323 5e-3 6e-3 0.011 0.011 0.017 0.016-0.466 0.056-0.947 0.107-1.444 0.156v-3.625h8.445c0.507 0 0.688 0.3 0.688 0.799v4.848c0 0.5-0.181 0.8-0.688 0.8h-43.079zm7.948-3.11 0.187-0.304 0.145 0.34c-0.112-0.012-0.222-0.023-0.332-0.036m-5.888-0.975h0.011c0.197 0 0.312 0.041 0.372 0.096-0.132-0.032-0.26-0.063-0.383-0.096" fill="url(#linearGradient6654)"/>
     </g>
    </g>
   </g>
   <g id="g6674" transform="matrix(1.25 0 0 -1.25 173.6 1055.3)">
    <g id="g6676">
     <g id="g6682">
      <path id="path6696" d="m104.48 579.1h23.458v0.185h-23.458v-0.185zm11.644-2.162v-0.479h1.419c8e-3 -0.041 0.016-0.094 0.024-0.16 9e-3 -0.067 0.012-0.139 0.012-0.215 0-0.162-0.032-0.272-0.096-0.331-0.065-0.058-0.145-0.087-0.242-0.087h-1.117v-0.684h1.618c8e-3 -0.045 0.016-0.106 0.024-0.184 8e-3 -0.08 0.012-0.157 0.012-0.234 0-0.173-0.034-0.294-0.103-0.363-0.068-0.068-0.154-0.103-0.259-0.103h-1.732c-0.114 0-0.205 0.013-0.275 0.036-0.071 0.025-0.125 0.058-0.164 0.1-0.037 0.042-0.063 0.095-0.078 0.155-0.013 0.06-0.021 0.125-0.021 0.193v2.349c-0.234-2e-3 -0.468-4e-3 -0.703-8e-3v-2.776c-0.056-0.029-0.125-0.048-0.205-0.058-0.081-0.01-0.159-0.015-0.235-0.015-0.189 0-0.33 0.026-0.423 0.079-0.092 0.052-0.169 0.124-0.229 0.218l-1.467 2.348v-2.245c0-0.114-0.034-0.208-0.103-0.285-0.068-0.076-0.197-0.115-0.386-0.115-0.081 0-0.159 4e-3 -0.236 0.013-0.076 8e-3 -0.141 0.018-0.193 0.029v2.725c-0.236-8e-3 -0.469-0.017-0.703-0.026v-2.317c0-0.117-0.036-0.217-0.109-0.3-0.072-0.083-0.209-0.124-0.41-0.124-0.085 0-0.169 4e-3 -0.25 0.013-0.083 8e-3 -0.153 0.018-0.209 0.029v2.659c-0.829-0.037-1.648-0.08-2.45-0.129-0.023-0.041-0.043-0.086-0.062-0.133-0.052-0.133-0.078-0.283-0.078-0.447 0-0.174 0.026-0.33 0.078-0.467s0.124-0.253 0.214-0.348c0.091-0.094 0.198-0.167 0.323-0.218 0.125-0.05 0.258-0.075 0.399-0.075 0.088 0 0.166 6e-3 0.235 0.018 0.068 0.012 0.13 0.024 0.184 0.037 0.054 0.011 0.106 0.023 0.154 0.036 0.049 0.011 0.099 0.018 0.151 0.018 0.294 0 0.425-0.269 0.393-0.805-0.166-0.069-0.349-0.125-0.553-0.17-0.203-0.044-0.408-0.067-0.613-0.067-0.285 0-0.549 0.053-0.791 0.155-0.241 0.103-0.45 0.245-0.627 0.427s-0.316 0.397-0.417 0.648c-0.101 0.249-0.151 0.52-0.151 0.811 0 0.176 0.02 0.346 0.059 0.509-0.423-0.03-0.842-0.06-1.253-0.093v-3.642h23.457v2e-3 3.625c-0.67 0.065-1.365 0.123-2.083 0.175l0.788-2.495c-0.068-0.029-0.15-0.05-0.246-0.064-0.098-0.014-0.192-0.021-0.285-0.021-0.104 0-0.206 0.017-0.305 0.052-0.098 0.034-0.17 0.111-0.214 0.233l-0.205 0.622h-1.317l-0.175-0.586c-0.044-0.142-0.118-0.23-0.223-0.267-0.104-0.036-0.215-0.054-0.332-0.054-0.076 0-0.164 7e-3 -0.263 0.021-0.098 0.014-0.18 0.033-0.244 0.058l0.859 2.631c-0.444 0.023-0.892 0.042-1.346 0.06l0.248-2.667c-0.056-0.021-0.123-0.041-0.202-0.06-0.079-0.021-0.164-0.031-0.257-0.031-0.129 0-0.237 0.022-0.326 0.067-0.088 0.044-0.137 0.126-0.145 0.248l-0.09 1.307c-0.021 0.23-0.038 0.471-0.051 0.723-9e-3 0.152-0.015 0.3-0.021 0.443-0.029 1e-3 -0.056 2e-3 -0.084 3e-3 -0.032-0.131-0.063-0.267-0.095-0.41-0.054-0.244-0.11-0.468-0.165-0.674l-0.248-1.029c-0.06-0.242-0.252-0.363-0.574-0.363-0.08 0-0.163 8e-3 -0.247 0.024-0.084 0.017-0.157 0.035-0.218 0.054l-0.307 1.284c-0.061 0.237-0.117 0.472-0.17 0.702-0.035 0.154-0.068 0.309-0.1 0.463-0.023 1e-3 -0.048 1e-3 -0.071 2e-3 -0.011-0.237-0.025-0.457-0.04-0.662-0.02-0.269-0.038-0.499-0.054-0.693l-0.096-1.18c-8e-3 -0.117-0.053-0.198-0.134-0.242-0.081-0.045-0.185-0.067-0.314-0.067-0.092 0-0.173 9e-3 -0.244 0.027-0.071 0.019-0.132 0.04-0.184 0.064l0.27 2.764c-0.586 6e-3 -1.177 0.01-1.769 0.01-0.177 0-0.356-1e-3 -0.534-1e-3m-3.418-0.047 0.85-1.34v1.358c-0.284-5e-3 -0.567-0.011-0.85-0.018m7.395-0.099c0.044-0.203 0.092-0.425 0.142-0.67 0.05-0.244 0.096-0.495 0.135-0.753h0.024c0.045 0.258 0.091 0.509 0.139 0.751 0.049 0.242 0.099 0.464 0.151 0.666l0.025 0.1c-0.213 5e-3 -0.425 0.01-0.639 0.015l0.023-0.109zm4.181-1.066h0.903l-0.297 0.98c-0.101 6e-3 -0.201 0.011-0.301 0.018l-0.305-0.998z" fill="url(#linearGradient6684)"/>
     </g>
    </g>
   </g>
   <g id="g6698" transform="matrix(1.25 0 0 -1.25 173.6 1055.3)">
    <g id="g6700" clip-path="url(#clipPath6702)">
     <g id="g6706" transform="translate(107.66 574.03)">
      <path id="path6708" d="m0 0c-0.286 0-0.549 0.051-0.791 0.154-0.241 0.103-0.451 0.245-0.628 0.427s-0.316 0.397-0.416 0.648c-0.101 0.25-0.151 0.52-0.151 0.811 0 0.282 0.05 0.546 0.151 0.792 0.1 0.247 0.239 0.46 0.416 0.642s0.387 0.324 0.628 0.427c0.242 0.103 0.505 0.154 0.791 0.154 0.205 0 0.404-0.022 0.598-0.067 0.193-0.044 0.372-0.1 0.537-0.169 0.036-0.537-0.095-0.805-0.392-0.805-0.053 0-0.101 6e-3 -0.145 0.018-0.045 0.012-0.093 0.024-0.145 0.036-0.053 0.013-0.111 0.025-0.175 0.037-0.065 0.012-0.141 0.018-0.23 0.018-0.141 0-0.273-0.025-0.398-0.076-0.125-0.05-0.233-0.123-0.323-0.218-0.091-0.094-0.162-0.208-0.214-0.342-0.053-0.133-0.079-0.282-0.079-0.447 0-0.174 0.026-0.329 0.079-0.466 0.052-0.138 0.123-0.254 0.214-0.348 0.09-0.095 0.198-0.168 0.323-0.218 0.125-0.051 0.257-0.076 0.398-0.076 0.089 0 0.167 6e-3 0.236 0.018 0.068 0.012 0.129 0.024 0.184 0.037 0.054 0.012 0.105 0.024 0.154 0.036 0.048 0.012 0.098 0.018 0.151 0.018 0.293 0 0.424-0.268 0.392-0.805-0.165-0.069-0.349-0.125-0.552-0.169-0.204-0.045-0.408-0.067-0.613-0.067" fill="#fff"/>
     </g>
     <g id="g6710" transform="translate(109.74 574.07)">
      <path id="path6712" d="m0 0c-0.085 0-0.168 4e-3 -0.251 0.012-0.082 8e-3 -0.152 0.018-0.208 0.03v3.505c0 0.117 0.036 0.216 0.109 0.299 0.072 0.083 0.209 0.124 0.41 0.124 0.085 0 0.168-4e-3 0.251-0.012 0.082-8e-3 0.152-0.018 0.208-0.03v-3.504c0-0.117-0.036-0.217-0.108-0.3-0.073-0.083-0.21-0.124-0.411-0.124" fill="#fff"/>
     </g>
     <g id="g6714" transform="translate(111.39 574.07)">
      <path id="path6716" d="m0 0c-0.081 0-0.159 4e-3 -0.235 0.012-0.077 8e-3 -0.141 0.018-0.194 0.03v3.856c0.061 0.02 0.139 0.037 0.236 0.051 0.096 0.014 0.179 0.021 0.247 0.021 0.222 0 0.383-0.028 0.483-0.084 0.101-0.057 0.185-0.14 0.254-0.249l1.37-2.16v2.106c0 0.052 7e-3 0.102 0.021 0.148 0.014 0.047 0.039 0.088 0.073 0.124 0.034 0.037 0.081 0.065 0.142 0.085 0.06 0.02 0.136 0.03 0.229 0.03 0.081 0 0.158-4e-3 0.233-0.012 0.074-8e-3 0.137-0.016 0.19-0.024v-3.861c-0.057-0.029-0.125-0.048-0.206-0.058-0.08-0.01-0.159-0.015-0.235-0.015-0.189 0-0.33 0.026-0.423 0.079-0.092 0.052-0.169 0.125-0.229 0.218l-1.467 2.348v-2.246c0-0.113-0.034-0.207-0.103-0.284-0.068-0.077-0.197-0.115-0.386-0.115" fill="#fff"/>
     </g>
     <g id="g6718" transform="translate(115.68 574.1)">
      <path id="path6720" d="m0 0c-0.113 0-0.204 0.012-0.275 0.036-0.07 0.024-0.125 0.058-0.163 0.1-0.038 0.043-0.064 0.094-0.078 0.154-0.014 0.061-0.021 0.126-0.021 0.194v2.966c0 0.068 7e-3 0.133 0.021 0.193 0.014 0.061 0.04 0.112 0.078 0.155 0.038 0.042 0.093 0.076 0.163 0.1 0.071 0.024 0.162 0.036 0.275 0.036h1.998c8e-3 -0.044 0.016-0.105 0.024-0.182 8e-3 -0.076 0.012-0.155 0.012-0.236 0-0.169-0.034-0.289-0.102-0.36-0.069-0.07-0.155-0.106-0.26-0.106h-1.231v-0.69h1.418c8e-3 -0.04 0.016-0.093 0.025-0.16 8e-3 -0.067 0.012-0.138 0.012-0.215 0-0.161-0.033-0.271-0.097-0.33-0.064-0.058-0.145-0.087-0.241-0.087h-1.117v-0.684h1.618c8e-3 -0.045 0.016-0.106 0.024-0.185s0.012-0.156 0.012-0.233c0-0.174-0.034-0.295-0.103-0.363-0.068-0.069-0.155-0.103-0.259-0.103h-1.733" fill="#fff"/>
     </g>
     <g id="g6722" transform="translate(118.58 574.07)">
      <path id="path6724" d="m0 0c-0.093 0-0.174 9e-3 -0.245 0.027-0.07 0.018-0.131 0.04-0.184 0.064l0.369 3.77c0.077 0.033 0.177 0.059 0.302 0.079s0.232 0.03 0.32 0.03c0.125 0 0.232-8e-3 0.323-0.024 0.09-0.016 0.168-0.043 0.232-0.082 0.064-0.038 0.116-0.091 0.154-0.16s0.067-0.153 0.088-0.254l0.156-0.733c0.045-0.201 0.092-0.424 0.142-0.668s0.096-0.496 0.136-0.754h0.024c0.044 0.258 0.091 0.509 0.139 0.751s0.098 0.464 0.15 0.665l0.193 0.769c0.049 0.19 0.126 0.319 0.232 0.387 0.107 0.069 0.273 0.103 0.498 0.103 0.112 0 0.226-9e-3 0.34-0.027 0.115-0.018 0.21-0.037 0.287-0.057l0.353-3.795c-0.057-0.021-0.124-0.041-0.203-0.061-0.078-0.02-0.164-0.03-0.256-0.03-0.129 0-0.238 0.022-0.326 0.067-0.089 0.044-0.137 0.127-0.145 0.248l-0.091 1.307c-0.02 0.23-0.037 0.471-0.051 0.723s-0.023 0.491-0.027 0.717h-0.012c-0.053-0.209-0.106-0.436-0.16-0.68-0.055-0.245-0.11-0.469-0.166-0.675l-0.248-1.029c-0.06-0.242-0.251-0.363-0.573-0.363-0.081 0-0.163 8e-3 -0.248 0.024-0.084 0.016-0.157 0.034-0.217 0.054l-0.308 1.284c-0.06 0.238-0.117 0.472-0.169 0.702s-0.101 0.46-0.145 0.69h-0.018c-0.012-0.323-0.028-0.619-0.048-0.887-0.021-0.269-0.039-0.499-0.055-0.693l-0.096-1.18c-8e-3 -0.117-0.053-0.198-0.133-0.242-0.081-0.045-0.185-0.067-0.314-0.067" fill="#fff"/>
     </g>
     <g id="g6726" transform="translate(124.28 575.73)">
      <path id="path6728" d="m0 0h0.903l-0.45 1.483-0.453-1.483m-0.942-1.664c-0.076 0-0.164 7e-3 -0.262 0.021-0.099 0.014-0.18 0.033-0.245 0.057l1.253 3.838c0.109 0.028 0.219 0.048 0.33 0.06s0.213 0.018 0.306 0.018c0.133 0 0.247-0.01 0.342-0.03 0.094-0.02 0.174-0.051 0.239-0.091 0.064-0.04 0.118-0.094 0.16-0.16 0.042-0.067 0.078-0.145 0.106-0.233l1.074-3.396c-0.069-0.028-0.151-0.049-0.248-0.063s-0.191-0.021-0.284-0.021c-0.104 0-0.206 0.017-0.305 0.051-0.098 0.034-0.17 0.112-0.214 0.233l-0.205 0.623h-1.317l-0.174-0.587c-0.045-0.141-0.119-0.23-0.224-0.266-0.104-0.036-0.215-0.054-0.332-0.054" fill="#fff"/>
     </g>
     <g id="g6730" transform="translate(96.695 575.45)">
      <path id="path6732" d="m0 0c0-0.552-0.361-0.955-1.094-1.035-0.531-0.057-1.299 0.01-1.664 0.052-0.014 0.06-0.024 0.134-0.024 0.192 0 0.483 0.261 0.593 0.505 0.593 0.254 0 0.654-0.044 0.952-0.044 0.327 0 0.427 0.112 0.427 0.217 0 0.139-0.132 0.196-0.386 0.245l-0.695 0.134c-0.579 0.11-0.888 0.511-0.888 0.935 0 0.517 0.366 0.949 1.084 1.028 0.544 0.059 1.205-7e-3 1.568-0.052 0.013-0.062 0.02-0.121 0.02-0.186 0-0.481-0.254-0.585-0.498-0.585-0.188 0-0.48 0.035-0.813 0.035-0.339 0-0.48-0.094-0.48-0.208 0-0.12 0.134-0.17 0.347-0.207l0.664-0.123c0.683-0.126 0.975-0.514 0.975-0.991m1.192-0.593c0-0.296-0.116-0.466-0.693-0.466-0.077 0-0.144 5e-3 -0.208 0.015v3.926c0 0.299 0.101 0.61 0.685 0.61 0.073 0 0.147-8e-3 0.216-0.022v-4.063m2.362-1.519c0.076-0.038 0.232-0.085 0.428-0.091 0.335-7e-3 0.518 0.122 0.654 0.422l1.8 4.016c-0.074 0.04-0.238 0.084-0.373 0.088-0.232 4e-3 -0.542-0.044-0.741-0.517l-0.583-1.376-1.143 1.862c-0.074 0.023-0.254 0.055-0.386 0.055-0.403 0-0.629-0.149-0.863-0.403l-1.112-1.216 0.894-1.407c0.165-0.256 0.383-0.387 0.737-0.387 0.231 0 0.424 0.053 0.513 0.095l-1.077 1.624 0.763 0.808 1.252-1.964-0.763-1.609" fill="#a90e3a"/>
     </g>
     <g id="g6734" transform="translate(130.77 574.42)">
      <path id="path6736" d="m0 0c-0.069 0-0.135 3e-3 -0.198 9e-3s-0.117 0.013-0.162 0.021l-3e-3 1.189-1.104-2e-3c-8e-3 0.04-0.016 0.088-0.024 0.143-9e-3 0.055-0.013 0.119-0.013 0.192 0 0.154 0.032 0.262 0.097 0.323 0.065 0.062 0.144 0.092 0.238 0.093l0.805 1e-3 -2e-3 0.848c0 0.094 0.028 0.172 0.085 0.235 0.056 0.063 0.162 0.095 0.317 0.095 0.069 1e-3 0.135-2e-3 0.198-8e-3s0.117-0.013 0.162-0.021l2e-3 -1.147 1.116 3e-3c9e-3 -0.041 0.017-0.089 0.025-0.144s0.013-0.119 0.013-0.192c0-0.154-0.032-0.262-0.097-0.323s-0.144-0.092-0.238-0.092l-0.817-2e-3 2e-3 -0.891c0-0.093-0.028-0.172-0.085-0.235s-0.162-0.095-0.317-0.095" fill="#a90e3a"/>
     </g>
     <g id="g6738" transform="translate(134.05 573.99)">
      <path id="path6740" d="m0 0c-0.089 0-0.176 4e-3 -0.263 0.012-0.086 8e-3 -0.159 0.019-0.218 0.031l-7e-3 2.983-0.696-0.318c-0.034 0.042-0.07 0.088-0.108 0.139s-0.072 0.114-0.102 0.19c-0.029 0.076-0.044 0.152-0.045 0.228 0 0.101 0.027 0.188 0.082 0.259 0.055 0.072 0.131 0.132 0.228 0.178l0.923 0.439 0.741 2e-3 9e-3 -3.698c0-0.123-0.038-0.228-0.114-0.314-0.075-0.087-0.219-0.131-0.43-0.131" fill="#a90e3a"/>
     </g>
    </g>
   </g>
   <g id="g6742" transform="matrix(1.25 0 0 -1.25 173.6 1055.3)">
    <g id="g6744">
     <g id="g6750">
      <path id="path6770" d="m135.89 579.1h-7.955v-2.633c0.497-0.049 0.978-0.1 1.444-0.156 0.062 0.051 0.135 0.076 0.22 0.077l0.806 2e-3 -2e-3 0.847c-1e-3 0.094 0.028 0.172 0.085 0.235 0.056 0.063 0.162 0.095 0.316 0.096h6e-3c0.066 0 0.131-4e-3 0.192-9e-3 0.063-7e-3 0.117-0.013 0.162-0.021l3e-3 -1.147 1.116 2e-3c8e-3 -0.04 0.016-0.088 0.024-0.143 9e-3 -0.055 0.013-0.119 0.014-0.192 0-0.075-8e-3 -0.139-0.023-0.192 0.452-0.087 0.876-0.18 1.27-0.278l-2e-3 1.425-0.697-0.318c-0.033 0.042-0.069 0.088-0.108 0.138-0.038 0.052-0.072 0.115-0.102 0.19-0.029 0.077-0.044 0.152-0.045 0.229 0 0.101 0.027 0.187 0.082 0.259s0.131 0.131 0.228 0.178l0.923 0.439 0.742 2e-3 6e-3 -2.836c0.843-0.276 1.476-0.589 1.854-0.943 0.438-0.433 0.497-0.84 0.512-0.93 0.044 0 0.059 0.191 0.059 0.477l-1e-3 4.575c0 0.53-0.173 0.709-0.622 0.709-0.152 0-0.304-0.082-0.507-0.082m-43.227-0.627-1e-3 -4.575c0-0.286 0.016-0.477 0.059-0.477 0.015 0.09 0.029 0.53 0.512 0.93 0.169 0.131 0.4 0.258 0.684 0.38 0.027 0.418 0.273 0.517 0.503 0.517 0.251 0 0.644-0.043 0.941-0.044 0.123 0.033 0.251 0.064 0.383 0.096 0.04 0.036 0.055 0.079 0.055 0.12 0 0.139-0.132 0.197-0.386 0.245l-0.695 0.134c-0.579 0.111-0.887 0.511-0.887 0.936 0 0.516 0.365 0.948 1.083 1.028 0.153 0.016 0.315 0.023 0.478 0.023 0.414 0 0.829-0.044 1.09-0.075 0.013-0.062 0.02-0.122 0.02-0.186 0-0.482-0.254-0.585-0.498-0.585-0.188 0-0.48 0.035-0.813 0.035-0.339 0-0.479-0.094-0.479-0.208 0-0.121 0.134-0.17 0.345-0.207l0.665-0.124c0.653-0.12 0.949-0.48 0.973-0.928 0.097 0.019 0.194 0.037 0.293 0.056v2.764c0 0.298 0.102 0.61 0.685 0.61 0.074 0 0.147-8e-3 0.217-0.023v-3.19c0.097 0.016 0.198 0.032 0.298 0.048l-0.256 0.401 1.111 1.216c0.234 0.253 0.46 0.403 0.863 0.403 0.133 0 0.313-0.033 0.387-0.056l0.956-1.558c0.11 0.013 0.22 0.024 0.332 0.036l0.438 1.036c0.191 0.457 0.488 0.517 0.715 0.517h0.026c0.135-3e-3 0.299-0.047 0.373-0.088l-0.614-1.37c0.634 0.063 1.287 0.119 1.959 0.172v2.618h-10.686c-0.203 0-0.355 0.082-0.507 0.082-0.449 0-0.622-0.179-0.622-0.709m6.336-2.375 0.123-0.185c0.379 0.054 0.772 0.105 1.174 0.155l-0.534 0.838-0.763-0.808z" fill="url(#linearGradient6752)"/>
     </g>
    </g>
   </g>
   <g id="g6772" transform="matrix(1.25 0 0 -1.25 173.6 1055.3)">
    <g id="g6774">
     <g id="g6780">
      <path id="path6794" d="m104.48 579.1v-2.618c0.411 0.033 0.83 0.063 1.253 0.093 0.024 0.097 0.054 0.191 0.092 0.284 0.101 0.245 0.24 0.459 0.417 0.64 0.177 0.182 0.386 0.324 0.627 0.427 0.242 0.103 0.506 0.155 0.791 0.155 0.205 0 0.405-0.023 0.598-0.067s0.372-0.101 0.537-0.169c0.036-0.537-0.094-0.806-0.392-0.806-0.053 0-0.101 7e-3 -0.145 0.018-0.044 0.013-0.093 0.025-0.145 0.037s-0.111 0.025-0.175 0.036c-0.064 0.013-0.141 0.018-0.229 0.018-0.141 0-0.274-0.025-0.399-0.075-0.125-0.051-0.232-0.124-0.323-0.218-0.059-0.061-0.109-0.131-0.152-0.209 0.802 0.049 1.621 0.092 2.45 0.129v0.846c0 0.117 0.036 0.217 0.109 0.3 0.072 0.082 0.208 0.124 0.41 0.124 0.085 0 0.168-5e-3 0.25-0.013 0.083-8e-3 0.152-0.018 0.209-0.029v-1.188c0.234 9e-3 0.467 0.018 0.703 0.026v1.131c0.06 0.02 0.139 0.037 0.236 0.051 0.096 0.015 0.179 0.022 0.247 0.022 0.222 0 0.383-0.029 0.483-0.086 0.1-0.055 0.185-0.138 0.253-0.247l0.521-0.821c0.283 7e-3 0.566 0.013 0.85 0.018v0.748c0 0.052 7e-3 0.102 0.021 0.148s0.038 0.089 0.073 0.125c0.034 0.036 0.081 0.063 0.142 0.084 0.06 0.02 0.137 0.031 0.229 0.031 0.081 0 0.158-5e-3 0.233-0.013 0.074-8e-3 0.137-0.016 0.189-0.024v-1.085c0.235 4e-3 0.469 6e-3 0.703 8e-3v0.617c0 0.068 8e-3 0.133 0.021 0.193 0.015 0.062 0.041 0.113 0.078 0.155 0.039 0.043 0.093 0.076 0.164 0.1 0.07 0.025 0.161 0.036 0.275 0.036h1.998c8e-3 -0.044 0.016-0.104 0.024-0.182 8e-3 -0.076 0.012-0.154 0.012-0.235 0-0.17-0.034-0.29-0.103-0.36-0.068-0.072-0.155-0.107-0.259-0.107h-1.232v-0.21c0.178 0 0.357 1e-3 0.534 1e-3 0.592 0 1.183-4e-3 1.769-0.01l0.099 1.007c0.076 0.031 0.177 0.057 0.301 0.078 0.126 0.02 0.232 0.031 0.321 0.031 0.124 0 0.232-8e-3 0.322-0.024 0.091-0.017 0.168-0.044 0.233-0.082 0.064-0.039 0.115-0.092 0.153-0.161 0.039-0.069 0.068-0.153 0.088-0.254l0.134-0.623c0.214-5e-3 0.426-0.01 0.639-0.015l0.168 0.668c0.048 0.19 0.126 0.319 0.232 0.387 0.106 0.07 0.273 0.104 0.498 0.104 0.111 0 0.226-9e-3 0.34-0.028 0.114-0.018 0.21-0.037 0.286-0.058l0.105-1.127c0.454-0.018 0.902-0.037 1.346-0.06l0.394 1.206c0.109 0.028 0.219 0.048 0.329 0.061 0.111 0.011 0.214 0.017 0.306 0.017 0.134 0 0.248-9e-3 0.343-0.03 0.094-0.02 0.174-0.051 0.239-0.09 0.064-0.041 0.118-0.095 0.16-0.161 0.042-0.067 0.077-0.144 0.106-0.233l0.285-0.9c0.718-0.052 1.413-0.11 2.083-0.175v2.633h-23.457zm20.107-2.376c0.1-7e-3 0.2-0.012 0.301-0.018l-0.153 0.504-0.148-0.486zm-5.355 0.419c-3e-3 -0.077-7e-3 -0.152-9e-3 -0.225 0.023-1e-3 0.048-1e-3 0.071-2e-3 -0.015 0.076-0.03 0.151-0.045 0.227h-0.017zm2.251-6e-3c-0.021-0.088-0.044-0.179-0.065-0.272 0.028-1e-3 0.055-2e-3 0.084-3e-3 -3e-3 0.094-5e-3 0.186-7e-3 0.275h-0.012z" fill="url(#linearGradient6782)"/>
     </g>
    </g>
   </g>
   <g id="g6796" transform="matrix(1.25 0 0 -1.25 173.6 1055.3)">
    <g id="g6798" clip-path="url(#clipPath6800)">
     <g id="g6804" transform="translate(105.73 576.58)">
      <path id="path6806" d="m0 0c0.023 0.097 0.054 0.191 0.092 0.283 0.1 0.246 0.239 0.46 0.416 0.642 0.177 0.181 0.387 0.324 0.628 0.426 0.242 0.103 0.505 0.155 0.791 0.155 0.205 0 0.404-0.022 0.598-0.067 0.193-0.044 0.372-0.101 0.537-0.169 0.036-0.537-0.095-0.805-0.393-0.805-0.052 0-0.1 6e-3 -0.144 0.018-0.045 0.012-0.093 0.024-0.145 0.036-0.053 0.012-0.111 0.024-0.175 0.037-0.065 0.012-0.141 0.018-0.23 0.018-0.141 0-0.274-0.026-0.398-0.076-0.125-0.05-0.233-0.123-0.323-0.218-0.059-0.061-0.11-0.131-0.152-0.209-0.372-0.022-0.738-0.046-1.102-0.071" fill="#fff"/>
     </g>
     <g id="g6808" transform="translate(109.28 576.78)">
      <path id="path6810" d="m0 0v0.846c0 0.117 0.036 0.217 0.109 0.299 0.072 0.083 0.209 0.124 0.41 0.124 0.085 0 0.168-4e-3 0.251-0.012 0.082-8e-3 0.152-0.018 0.208-0.03v-1.186c-0.327-0.013-0.654-0.027-0.978-0.041" fill="#fff"/>
     </g>
     <g id="g6812" transform="translate(110.96 576.84)">
      <path id="path6814" d="m0 0v1.131c0.06 0.02 0.139 0.037 0.235 0.051 0.097 0.014 0.18 0.021 0.248 0.021 0.221 0 0.382-0.028 0.483-0.084 0.1-0.057 0.185-0.14 0.253-0.249l0.521-0.82c-0.582-0.014-1.164-0.03-1.74-0.05m2.59 0.068v0.748c0 0.052 7e-3 0.102 0.021 0.148 0.014 0.047 0.038 0.088 0.073 0.124 0.034 0.037 0.081 0.065 0.141 0.085 0.061 0.02 0.137 0.03 0.23 0.03 0.08 0 0.158-4e-3 0.232-0.012 0.075-8e-3 0.138-0.016 0.19-0.024v-1.085c-0.295-4e-3 -0.592-8e-3 -0.887-0.014" fill="#fff"/>
     </g>
     <g id="g6816" transform="translate(115.14 576.93)">
      <path id="path6818" d="m0 0v0.617c0 0.068 7e-3 0.133 0.021 0.193 0.014 0.061 0.04 0.112 0.079 0.155 0.038 0.042 0.092 0.075 0.163 0.1 0.07 0.024 0.162 0.036 0.274 0.036h1.999c8e-3 -0.045 0.016-0.105 0.024-0.182 8e-3 -0.076 0.012-0.155 0.012-0.236 0-0.169-0.034-0.289-0.103-0.36-0.068-0.07-0.155-0.106-0.259-0.106h-1.232v-0.211c-0.326-1e-3 -0.651-3e-3 -0.978-6e-3" fill="#fff"/>
     </g>
     <g id="g6820" transform="translate(122.34 576.83)">
      <path id="path6822" d="m0 0c-0.28 0.011-0.56 0.021-0.844 0.03-3e-3 0.094-5e-3 0.185-7e-3 0.274h-0.012c-0.022-0.087-0.044-0.178-0.066-0.271-0.232 7e-3 -0.466 0.014-0.7 0.02l0.168 0.669c0.048 0.19 0.125 0.319 0.232 0.387 0.106 0.069 0.272 0.103 0.497 0.103 0.113 0 0.226-9e-3 0.341-0.027 0.114-0.018 0.21-0.037 0.286-0.057l0.105-1.128m-2.269 0.069c-0.26 6e-3 -0.521 0.011-0.783 0.015-0.015 0.076-0.03 0.151-0.045 0.226h-0.018c-2e-3 -0.076-6e-3 -0.151-9e-3 -0.224-0.264 4e-3 -0.529 7e-3 -0.795 0.01l0.099 1.007c0.076 0.033 0.177 0.059 0.302 0.079 0.124 0.02 0.231 0.03 0.319 0.03 0.125 0 0.233-8e-3 0.323-0.024 0.091-0.016 0.168-0.043 0.233-0.082 0.064-0.038 0.115-0.091 0.153-0.16 0.039-0.069 0.068-0.153 0.088-0.254l0.133-0.623" fill="#fff"/>
     </g>
     <g id="g6824" transform="translate(125.85 576.64)">
      <path id="path6826" d="m0 0c-0.318 0.023-0.64 0.044-0.966 0.064l-0.153 0.504-0.148-0.486c-0.294 0.017-0.595 0.034-0.895 0.049l0.394 1.205c0.109 0.029 0.219 0.049 0.33 0.061s0.213 0.018 0.306 0.018c0.133 0 0.247-0.01 0.342-0.03s0.174-0.051 0.239-0.091c0.064-0.04 0.118-0.094 0.16-0.16 0.043-0.067 0.078-0.145 0.106-0.233l0.285-0.901" fill="#fff"/>
     </g>
     <g id="g6828" transform="translate(93.915 574.73)">
      <path id="path6830" d="m0 0c0.026 0.418 0.272 0.517 0.503 0.517 0.251 0 0.644-0.043 0.94-0.044-0.572-0.15-1.058-0.308-1.443-0.473m1.827 0.569c0.039 0.036 0.055 0.079 0.055 0.12 0 0.139-0.132 0.197-0.386 0.245l-0.695 0.134c-0.579 0.111-0.888 0.511-0.888 0.936 0 0.516 0.366 0.948 1.084 1.028 0.153 0.016 0.315 0.023 0.477 0.023 0.415 0 0.83-0.043 1.091-0.075 0.013-0.063 0.02-0.122 0.02-0.187 0-0.481-0.254-0.585-0.499-0.585-0.188 0-0.479 0.035-0.812 0.035-0.339 0-0.48-0.093-0.48-0.208 0-0.12 0.134-0.17 0.346-0.207l0.665-0.123c0.653-0.12 0.949-0.48 0.973-0.929-0.336-0.067-0.654-0.136-0.951-0.207m1.244 0.264v2.764c0 0.298 0.101 0.609 0.685 0.609 0.073 0 0.147-8e-3 0.216-0.022v-3.191c-0.312-0.052-0.613-0.105-0.901-0.16m1.199 0.209-0.255 0.401 1.111 1.216c0.235 0.253 0.46 0.402 0.863 0.402 0.133 0 0.313-0.032 0.386-0.055l0.957-1.558c-0.324-0.036-0.642-0.073-0.953-0.111l-0.534 0.838-0.763-0.808 0.123-0.185c-0.322-0.046-0.633-0.092-0.935-0.14m3.393 0.442 0.439 1.036c0.191 0.457 0.487 0.517 0.715 0.517h0.025c0.135-3e-3 0.3-0.048 0.374-0.088l-0.614-1.369c-0.318-0.031-0.632-0.063-0.939-0.096" fill="#c9747a"/>
     </g>
     <g id="g6832" transform="translate(132.3 575.87)">
      <path id="path6834" d="m0 0c-0.877 0.169-1.857 0.317-2.919 0.445 0.062 0.051 0.135 0.076 0.22 0.076l0.806 2e-3 -2e-3 0.848c-1e-3 0.093 0.028 0.172 0.085 0.235 0.056 0.063 0.162 0.095 0.317 0.095h5e-3c0.067 0 0.131-3e-3 0.193-8e-3 0.063-6e-3 0.117-0.013 0.161-0.021l3e-3 -1.147 1.116 2e-3c8e-3 -0.04 0.017-0.088 0.025-0.143s0.012-0.119 0.013-0.192c0-0.075-8e-3 -0.139-0.023-0.192" fill="#c9747a"/>
     </g>
     <g id="g6836" transform="translate(134.59 575.29)">
      <path id="path6838" d="m0 0c-0.314 0.103-0.656 0.2-1.027 0.293l-3e-3 1.426-0.696-0.319c-0.034 0.043-0.07 0.089-0.108 0.139-0.038 0.051-0.072 0.114-0.101 0.19-0.03 0.076-0.045 0.152-0.045 0.228 0 0.101 0.027 0.188 0.081 0.26 0.055 0.072 0.131 0.131 0.228 0.178l0.924 0.439 0.741 2e-3 6e-3 -2.836" fill="#c9747a"/>
     </g>
    </g>
   </g>
  </g>
  <g id="#000000ff" transform="matrix(1.0309 0 0 1.0309 1002.8 -1.8341)" fill="#fff">
   <path id="path5" d="m652.87 171.28c10.06-3.22 21.12-4.26 31.42-1.58 6.19 1.5 10.48 6.99 11.93 12.98 9.15 36.15 18.13 72.34 27.31 108.48 8.71-33.82 17.3-67.66 25.93-101.5 1.48-6.8 3.57-14.5 10.18-18.07 9.25-4.95 20.29-3.55 30.23-1.93 1.61 0.55 4.75 0.17 4.53 2.68 4.45 44.58 8.85 89.18 13.27 133.77 0.57 7.57 1.87 15.1 1.97 22.69-6.28 2.04-13 2.97-19.53 1.75-3.96-0.85-7.14-4.25-7.44-8.32-3.75-42.53-6.93-85.12-10.91-127.63-9.81 37.5-19.84 74.94-29.73 112.41-1.19 5.55-5.51 10.24-11.11 11.45-7.44 1.49-15.29 0.99-22.57-1.04-1.15-2.07-1.45-4.47-2.13-6.7-10.67-38.82-21.32-77.65-32.01-116.47-4.02 42.87-7.62 85.79-11.63 128.66-0.36 4.39-4.39 7.42-8.53 7.94-5.89 0.56-12.06 0.26-17.43-2.47 5.54-52.36 10.71-104.75 16.25-157.1z"/>
   <path id="path7" d="m839.67 169.76c7.01-2.87 14.82-1.2 22.09-0.37-0.03 50.54 0.02 101.09-0.03 151.64 0.17 5.22-4.41 9.76-9.56 9.93-6.14 0.01-12.35 0.44-18.42-0.75 0.01-49.72-0.03-99.45 0.02-149.17-0.2-4.45 1.49-9.44 5.9-11.28z"/>
   <path id="path9" d="m245.79 171.77c3.07-2.7 7.38-3.04 11.28-3.04 13.63 0.07 27.27-0.04 40.9 0.05 15.6 0.6 31.92 4.92 43.54 15.86 10.3 9.47 15.63 23.5 15.76 37.35 0.46 13.51-3.8 27.35-12.84 37.55-7.58 8.7-18.17 14.42-29.29 17.18-14.62 3.67-29.8 1.75-44.69 2.37 0.1 13.94 0.06 27.9 0.02 41.85 0.21 5.6-4.98 10.22-10.42 10.07-5.86-0.08-11.77 0.38-17.55-0.78v-148.21c0.1-3.59 0.4-7.72 3.29-10.25m24.73 22.47c-0.04 20-0.02 40-0.01 60 14.4-0.51 29.75 1.98 43.21-4.47 7.36-3.51 12.75-10.66 14.14-18.69 1.71-9.2 0.43-19.65-6.03-26.84-6.22-6.93-15.84-9.49-24.84-9.94-8.82-0.13-17.65 0-26.47-0.06z"/>
   <path id="path11" d="m380.59 172.52c2.82-3.22 7.43-3.78 11.47-3.79 14.99 0.06 29.99-0.03 44.98 0.05 14.75 0.54 30.3 4.53 41.1 15.14 9.46 8.94 13.65 22.27 13.4 35.06 0.17 14.16-5.84 28.58-17.05 37.48-7.69 6.29-17.31 9.73-27.05 11.15 16.68 19.76 33.31 39.56 49.97 59.34-7.68 4.69-16.91 4.46-25.54 3.82-6.31-1.15-11.14-5.85-14.92-10.73-13.33-17.09-26.68-34.18-39.99-51.29-3.65 0-7.3 0-10.95 0.01-0.04 17.42 0.03 34.84-0.03 52.26 0.14 5.35-4.66 9.9-9.9 9.96-6.03-0.05-12.14 0.46-18.08-0.78 0-49.07 0.01-98.15-0.01-147.22 0.1-3.58 0.11-7.6 2.6-10.46m25.42 21.73c-0.01 16.83-0.02 33.67 0 50.5 12.28-0.41 24.74 1.08 36.87-1.4 8.04-1.63 16.14-6.4 18.95-14.51 2.75-8.09 2.53-17.87-2.58-25.01-5.16-6.88-14.16-9.05-22.31-9.52-10.31-0.15-20.62-0.01-30.93-0.06z"/>
   <path id="path13" d="m518.82 172.81c2.61-3.4 7.22-3.98 11.21-4.07 28.14 0.01 56.28 0.02 84.42 0 0.89 6.49 2.32 13.4-0.02 19.75-1.44 3.79-5.5 5.94-9.44 5.75-20.15 0.01-40.3 0.03-60.44-0.01-0.1 14.25-0.03 28.51-0.04 42.77 21.33 0.05 42.67-0.1 64 0.07 0.49 6.1 1.99 12.45-0.04 18.43-1.13 3.58-4.78 6.03-8.51 5.76-18.5 0-36.99-0.05-55.48 0.03 0.05 14.4 0 28.8 0.03 43.2 24.04 0 48.09 0.03 72.14-0.01 0.59 6.56 2.08 13.54-0.44 19.88-1.4 3.7-5.35 5.87-9.21 5.64-25.35 0-50.69-0.01-76.04 0.01-3.8-0.06-7.96-0.42-11.02-2.94-2.94-2.41-3.34-6.51-3.44-10.05-0.01-44.03 0.02-88.05-0.02-132.07 0.09-4.08-0.34-8.73 2.34-12.14z"/>
   <path id="path15" d="m893.25 172.33c2.69-2.95 6.97-3.52 10.76-3.59 28.14 0 56.29 0.02 84.43 0 0.95 6.24 2.24 12.83 0.3 19.02-1.23 4.12-5.52 6.74-9.74 6.48-20.17 0.05-40.34-0.04-60.52 0.05 0.05 14.23 0 28.47 0.03 42.71 21.29-0.02 42.59 0.05 63.89-0.04 0.79 6.15 2.06 12.63 0.06 18.68-1.15 3.52-4.79 5.83-8.44 5.62-18.5-0.02-37 0-55.5-0.01-0.03 14.41-0.02 28.83-0.01 43.24 24.05 0 48.09 0.04 72.14-0.02 0.7 6.76 2.32 14.04-0.65 20.47-1.54 3.41-5.29 5.21-8.91 5.06-25.35 0.01-50.7-0.01-76.04 0.01-3.86-0.1-8.11-0.43-11.18-3.01-3.05-2.75-3.33-7.17-3.38-11.01 0.01-44.34 0.01-88.67 0-133 0.08-3.66 0.12-7.8 2.76-10.66z"/>
   <path id="path17" d="m1018.8 171.68c3.08-2.63 7.34-2.97 11.23-2.95 14.66 0.06 29.32-0.01 43.99 0.03 15.24 0.46 31.33 4.71 42.3 15.87 10.58 10.76 14.11 26.78 12.17 41.41-1.53 12.75-8.4 24.93-19.03 32.27-7.22 5.15-15.85 8-24.57 9.24 16.53 19.92 33.39 39.56 49.92 59.49-7.87 4.54-17.16 4.45-25.92 3.67-6.7-1.43-11.58-6.73-15.56-11.96-13.01-16.67-25.95-33.39-39.04-50.01-3.57 0.02-7.13 0.02-10.68-0.01-0.19 17.38 0.09 34.76-0.14 52.13 0.04 5.11-4.17 9.7-9.26 10.06-6.22 0.1-12.5 0.44-18.65-0.65-0.04-49.75 0.02-99.5-0.03-149.25-0.04-3.34 0.61-7.06 3.27-9.34m24.77 22.56c-0.03 16.84-0.03 33.68 0 50.52 11.96-0.39 24.06 0.96 35.91-1.23 8.28-1.52 16.75-6.28 19.72-14.6 2.92-8.4 2.57-18.68-3.12-25.86-5.62-6.6-14.75-8.53-23.02-8.8-9.83-0.06-19.66 0.01-29.49-0.03z"/>
   <path id="path19" d="m1155.3 179.04c-0.1-4.94 3.72-9.22 8.59-9.84 6.96-0.97 14.03-0.22 21.04-0.45 22.72 0 45.43-0.01 68.15 0.01 0.84 6.62 2.43 13.76-0.26 20.16-1.54 3.86-5.91 5.52-9.81 5.34-19.92-0.01-39.83-0.01-59.75-0.01-0.01 14.25 0.01 28.49 0 42.74 21.25 0.02 42.51 0 63.77 0.01 0.69 6.02 1.89 12.3 0.13 18.24-0.97 3.57-4.47 6.08-8.14 5.99-18.59 0.05-37.17 0-55.76 0.02 0.02 14.43-0.05 28.85 0.04 43.27 23.97-0.04 47.95-0.02 71.93-0.01 0.65 6.65 2.24 13.77-0.55 20.16-1.41 3.37-5.04 5.38-8.62 5.31-25.35 0.06-50.71-0.02-76.06 0.03-3.61-0.07-7.47-0.28-10.6-2.27-3.19-2.03-4.28-6.07-4.16-9.65 0.07-46.35-0.05-92.7 0.06-139.05z"/>
  </g>
 </g>
</svg>
