<svg height="240" viewBox="0 0 569.7 240" width="569.70001" xmlns="http://www.w3.org/2000/svg" xmlns:xlink="http://www.w3.org/1999/xlink"><linearGradient id="a" gradientTransform="matrix(-1 0 0 -1 -8215.806 -4580.47)" gradientUnits="userSpaceOnUse" x1="-8600.4922" x2="-8600.4922" y1="-4719.145" y2="-4553.374"><stop offset="0" stop-color="#a80002"/><stop offset="1" stop-color="#ea021a"/></linearGradient><linearGradient id="b" gradientUnits="userSpaceOnUse" x1="99.850998" x2="99.850998" y1="138.674" y2="-27.096001"><stop offset="0" stop-color="#00043b"/><stop offset="1" stop-color="#002672"/></linearGradient><path d="m199.7 0h362c4.4 0 8 3.6 8 8v112h-370z" fill="url(#a)"/><path d="m199.7 120h-199.7v-112.1c0-4.2 3.5-7.9 7.9-7.9h191.8z" fill="url(#b)"/><path d="m8 0h553.7c4.4 0 8 3.6 8 8v38.2l-558.2 22.3c-6.4.2-11.5 5.5-11.5 11.9v-72.4c0-4.4 3.6-8 8-8z" fill="#fff" opacity=".2"/><path d="m135 106.7c1.3.7 3.9 1.5 7.3 1.5 5.7.1 8.8-2.1 11.1-7.2l30.6-68.2c-1.3-.7-4.1-1.4-6.3-1.5-3.9-.1-9.2.7-12.6 8.8l-9.9 23.4-19.5-31.5c-1.3-.4-4.3-.9-6.6-.9-6.8 0-10.7 2.5-14.7 6.8l-18.8 20.6 15.2 23.9c2.8 4.4 6.5 6.6 12.5 6.6 3.9 0 7.2-.9 8.7-1.6l-18.3-27.6 13-13.7 21.3 33.4zm-40.1-25.8c0 5-2 7.9-11.8 7.9-1.3 0-2.4-.1-3.5-.3v-66.6c0-5.1 1.7-10.3 11.6-10.3 1.2 0 2.5.1 3.7.4zm-20.3-10c0 9.4-6.1 16.2-18.6 17.6-9 1-22.1-.2-28.3-.9-.2-1-.4-2.3-.4-3.3 0-8.2 4.4-10.1 8.6-10.1 4.3 0 11.1.7 16.2.7 5.6 0 7.2-1.9 7.2-3.7 0-2.4-2.2-3.3-6.6-4.2l-11.7-2.1c-9.8-1.9-15-8.7-15-15.9 0-8.8 6.2-16.1 18.4-17.5 9.2-1 20.5.1 26.6.9.2 1.1.3 2.1.3 3.2 0 8.2-4.3 9.9-8.5 9.9-3.2 0-8.1-.6-13.8-.6-5.8 0-8.1 1.6-8.1 3.5 0 2 2.3 2.9 5.9 3.5l11.3 2.1c11.6 2.2 16.5 8.8 16.5 16.9m149.7 14.4c-.6-4.7.9-7.2 3.4-7.2 2.7 0 9.2 3 18.4 3 9.8 0 13.5-3.6 13.5-8.2 0-3.2-1.4-5.8-10.4-8.3l-10-2.8c-10.7-2.9-15.1-8.3-15.1-15.1 0-8.2 6.5-15.8 21.6-15.8 6.8 0 15.2 1.6 20.2 3.6.6 4.6-.9 7-3.2 7-2.5 0-8.6-2.8-17-2.8-9 0-12.4 3.3-12.4 7.6 0 2.8 1.3 5.4 9.5 7.7l10.2 3c11.3 3.2 15.9 8.5 15.9 15.6 0 8.8-6.9 16.6-23 16.6-7.4 0-16.3-1.8-21.6-3.9m110.6-25.3c0 18.1-12.7 29.1-27 29.1-8.6 0-15.5-4-19.6-9.8v24.5c0 2.1-1.2 3.5-4.8 3.5-1.6 0-3.4-.2-4.2-.5v-74.5c.8-.2 2.6-.6 4.2-.6 3.6 0 4.8 1.4 4.8 3.5v5.6c4.1-5.8 11-9.8 19.6-9.8 14.3.1 27 11 27 29m-9.2 0c0-12.4-8.3-20.9-19.4-20.9-7.7 0-14.8 4.4-18 10.9v20.3c3.2 6.4 10.3 10.9 18 10.9 11.1-.1 19.4-8.6 19.4-21.2m18.1 0c0-16.6 12.3-28.9 28.7-28.9 16.5 0 28.7 12.4 28.7 28.9 0 16.7-12.3 29.1-28.7 29.1s-28.7-12.4-28.7-29.1m48.2 0c0-12.8-8.8-20.9-19.5-20.9s-19.5 8.1-19.5 20.9c0 13 8.8 21.1 19.5 21.1s19.5-8.1 19.5-21.1m54.2-23.9c0 3.4-1.5 4.2-4.8 4.2-6.4 0-15.5 2.1-20.1 12.4v32.2c0 2.2-1.2 3.5-4.8 3.5-1.6 0-3.4-.2-4.2-.5v-55.6c.8-.2 2.6-.6 4.2-.6 3.6 0 4.8 1.4 4.8 3.5v6.8c5.1-7.4 14-11.4 24.5-9.7.1.7.4 2.4.4 3.8m52 49.2c-.6-4.7.9-7.2 3.4-7.2 2.7 0 9.2 3 18.4 3 9.8 0 13.5-3.6 13.5-8.2 0-3.2-1.4-5.8-10.4-8.3l-10-2.8c-10.7-2.9-15.1-8.3-15.1-15.1 0-8.2 6.5-15.8 21.6-15.8 6.8 0 15.2 1.6 20.2 3.6.6 4.6-.9 7-3.2 7-2.4 0-8.6-2.8-17-2.8-9 0-12.4 3.3-12.4 7.6 0 2.8 1.3 5.4 9.5 7.7l10.2 2.8c11.3 3.2 15.9 8.5 15.9 15.6 0 8.8-6.9 16.6-23 16.6-7.3.2-16.2-1.6-21.6-3.7m-9.2 0c-4.8 2.3-10.4 3.7-16.1 3.7-11 0-17.6-6.3-17.6-17.2v-50c0-2.1 1.2-3.5 4.8-3.5 1.6 0 3.4.4 4.2.7v13.2h22.3c.1.7.3 2.2.3 3.6 0 3.3-1.4 4.3-3.4 4.3h-19.3v30.9c0 6.8 3.3 9.7 9.6 9.7 5.7 0 9.1-2.2 11.8-2.2 2.6.2 3.9 2.5 3.4 6.8" fill="#fff"/><path d="m7.90039 240c-4.4 0-7.90039-3.70039-7.90039-7.90039v-112.09961h569.6502v112.09961c.00001 4.2-3.50038 7.90039-7.90039 7.90039z" fill="#999"/><path d="m10.40039 237.5c-4.4 0-7.90039-3.70038-7.90039-7.90038v-109.59962h564.6502v109.59962c.00001 4.2-3.50038 7.90038-7.9004 7.90038z" fill="#fff"/><g fill="#480c4d" transform="translate(-70.903422 -.000002)"><path d="m332.51998 137.49981c4.3 2 7.1 4.5 7.6 4.8-.2-1.1-1.1-6.5-1.6-9.8 2.5 1.7 8.3 5.8 10.3 7.1.8-2.4 3.5-10.3 3.5-10.3s4.9 7.9 5.7 9.2c1-1.1 6.9-7.6 8.4-9.2.3 3.7.6 9.1.7 9.9.3-.4 2.5-3.5 6.3-6.4-1.6 3.2-2.4 7.6-2.8 11.2-3.7-1-7.6-1.6-11.6-1.6-7.7 0-15 2-21.2 5.6-1.2-3.4-2.9-7.7-5.3-10.5m59 67.6-3.4-3.8c-1 10.2-5.9 18.8-15.1 24.8l-1.4-5.5c-7.8 5.6-21.1 9.2-32.5 2.8 1.4-7.3 2.7-14.6 0-23.4-6.3 9.8-12 13.7-12 13.7-4.3-7.2-3.9-21.6-2.6-25.9l-7.1 2.2c0-4.8 3.5-15.1 8.5-20.9l-4.5-.7c3-6.2 7.5-11.5 13.1-15.5-1.7 2.6-1.7 9.1 3.2 11.6-2.1-3.6-2.3-8.1-.2-10.4 2.2-2.3 5.8-1.5 8.1.3-.7-2-2.7-4.6-5.7-4.7 5.7-2.9 12.2-4.6 19.1-4.6 1.3 0 2.5.1 3.8.2 2 .8 4.9 3.6 6.3 5.4 0 0 .1-2.1-1-4.6 7.4 1.8 11 4.8 12.5 6.3.3 3.2 1.3 5.1 2.5 8.2-2.4-2.7-8.5-7-11.3-8.1 0 0-.2 2.8-1.2 4.1-5.7-4.2-8.6-5.2-8.6-5.2-6.3.9-10.4 3.3-12.6 5.3l1.9 1.6c-3.8 1.2-6.3 4.4-6.3 4.4 0 .1 3.4.5 3.4.5s-.3 4 4.6 6.4c4.2 2.1 10.4-.5 16.1 1.8-3.8-4.4-6.4-6.3-6.4-6.3s-1.5-.3-2.6-.3c-1.3 0-3.3.3-5.5-.6-1-.4-2.2-1.1-3.2-1.7 0 0 2.7-2.7 6.5-3.3 0 0 3.5 1 6.3 3 1.8-1.8 3.8-1.7 3.8-1.7s-1.9 1.8-1.3 3.9c2.8 2.5 5.8 6 5.8 6 3.1-1.7 9.7-1.3 11.1.3-1.7-2.2-4.2-4.1-6.2-5.7-.2-.8-2.3-3.8-2.7-4 0 0 2 .6 3.8 2.2.5-.7 1.5-1.5 2.8-1.8 1.3 1.1 1.6 2.9 1.5 3.2-.6.7-1.2 1-1.2 1l3.2 3.5.3-2.5c7.6 10.6 11.7 22.9 6.4 38.5m-14.1-23v-5.5s-2.5-.8-5.1-2.8c-5.3.8-11.7 6.1-11.7 6.1s2.2 4.1 4.5 8.5c4.2.6 10.4-4.7 12.3-6.3m5.4 10s-.4-2.3-2.2-4.4l-4.1.1s-5.6 4.8-8.9 4.9c0 0 1.9 3.5 2.8 5.3 1.9-.4 5.1-1.9 6.5-3.4 0 0 .9 2.8.7 6.1 1.7-1.1 4.3-4 5.2-8.6m1.6-18.1c-2.1 1.7-3.8 2.7-3.8 2.7v5.5c1.5 1.7 3 3 4.1 5.5 2.1-3.7 1.7-9.2-.3-13.7"/><path d="m534.02716 170.82395.94009-3.98562h7.61897v30.00986c0 5.86072-1.63969 9.96322-5.50846 13.01046-2.92867 2.2274-6.91766 3.86707-11.72145 3.86707-6.56531 0-11.25386-2.2274-15.00409-5.86072l4.80715-6.68222c2.34429 2.22741 5.50839 4.22106 9.61088 4.22106 6.44686 0 9.25862-3.16579 9.25862-7.85436v-2.22741c-2.57639 2.6966-5.62363 3.75019-9.02317 3.75019-8.9096 0-15.9425-7.26829-15.9425-16.52688 0-9.14506 7.26827-16.17625 16.17628-16.17625 3.63328.002 6.91427 1.75822 8.78768 4.45482m-7.73241 3.40121c-4.57004 0-8.20671 3.51476-8.20671 8.32022 0 4.57169 3.63667 8.205 8.20671 8.205 4.56998 0 8.20332-3.63331 8.20332-8.205 0-4.80546-3.63334-8.32022-8.20332-8.32022m70.68085-.58774c-3.6333 0-6.68052 2.11053-7.38344 5.51008h14.53485c-.7046-3.28267-3.63495-5.51008-7.15141-5.51008m.46921 25.43484c-9.73113 0-16.87918-6.68055-16.87918-16.41 0-8.79275 6.44678-16.64544 16.64543-16.64544 7.61897 0 15.47498 5.74217 15.47498 16.41001 0 .81983 0 1.87676-.23882 3.04723h-22.97198c.81984 3.51644 3.98559 5.86072 7.85274 5.86072 3.51636 0 6.21297-1.28902 8.4404-3.63331l5.27297 5.39152c-3.39956 3.87042-8.32021 5.97927-13.59654 5.97927m-144.17861-25.43484c-3.63499 0-6.68056 2.11053-7.38519 5.51008h14.53495c-.70128-3.28267-3.63169-5.51008-7.14976-5.51008m.46917 25.43484c-9.7278 0-16.87921-6.68055-16.87921-16.41 0-8.79275 6.44516-16.64544 16.64213-16.64544 7.62056 0 15.47495 5.74217 15.47495 16.41001 0 .81983 0 1.87676-.23371 3.04723h-22.97706c.82152 3.51644 3.98896 5.86072 7.85604 5.86072 3.51474 0 6.2097-1.28902 8.44043-3.63331l5.27297 5.39152c-3.39791 3.87042-8.32024 5.97927-13.59654 5.97927m-48.17473-.81983v-46.53509h9.25859v37.74402h20.16188v8.79107zm83.69137-24.02727c-4.69029 0-8.20335 3.51476-8.20335 8.32022 0 4.57169 3.51306 8.205 8.20335 8.205 4.57163 0 8.08809-3.63331 8.08809-8.205 0-4.80546-3.51646-8.32022-8.08809-8.32022m-1.75825 24.8471c-8.32189 0-15.58848-7.61893-15.58848-16.52688 0-8.79108 7.26659-16.17625 15.58848-16.17625 4.69023 0 7.85268 1.63967 9.72948 4.57002l.93838-4.1025h7.61894v31.41411h-7.61894l-.93838-3.98729c-1.8768 2.81681-5.39154 4.80879-9.72948 4.80879m74.66824 0c-6.91595 0-15.35308-3.75019-15.35308-15.47162v-16.76399h8.67085v16.17625c0 5.39152 2.46448 7.73581 6.68223 7.73581 3.86706 0 6.68221-2.69493 6.68221-7.73581v-16.17625h8.67421v16.76399c0 11.72143-8.55735 15.47162-15.35642 15.47162" stroke-width="1.66972"/><path d="m169.91971 173.63752c-3.63492 0-6.68377 2.11049-7.38506 5.50998h14.53297c-.70127-3.28261-3.62989-5.50998-7.14791-5.50998m.46916 25.43607c-9.7276 0-16.87887-6.68043-16.87887-16.40973 0-8.7926 6.44667-16.64514 16.64513-16.64514 7.61878 0 15.47299 5.74206 15.47299 16.40972 0 .81982 0 1.87674-.23376 3.04718h-22.97489c.81815 3.51637 3.98554 5.86396 7.85252 5.86396 3.51636 0 6.21291-1.29067 8.44028-3.63659l5.27454 5.39143c-3.39782 3.86869-8.32172 5.97917-13.59794 5.97917m97.40452-25.43607c-3.63323 0-6.67875 2.11049-7.38502 5.50998h14.53463c-.70125-3.28261-3.63325-5.50998-7.14961-5.50998m.47086 25.43607c-9.72758 0-16.87887-6.68043-16.87887-16.40973 0-8.7926 6.44668-16.64514 16.64513-16.64514 7.61876 0 15.47296 5.74206 15.47296 16.40972 0 .81982 0 1.87674-.23374 3.04718h-22.97655c.82313 3.51637 3.9872 5.86396 7.85421 5.86396 3.51469 0 6.21121-1.29067 8.44026-3.63659l5.27287 5.39143c-3.39947 3.86869-8.32339 5.97917-13.59627 5.97917m-134.21277-.81982v-31.41523h7.50189l.94005 4.57161c1.4042-2.93199 4.21597-4.92226 7.9694-4.92226.81984 0 1.63965.11528 2.46114.35065v8.32173c-1.05692-.23376-1.99028-.35231-3.04719-.35231-4.21928 0-7.1496 2.57968-7.1496 7.61881v15.82533h-8.67569zm152.84983 0v-31.41523h7.50021l.9384 4.57161c1.40751-2.93199 4.21929-4.92226 7.97107-4.92226.82147 0 1.6401.11528 2.46325.35065l-.00046 8.32173c-1.05693-.23376-1.99193-.35231-3.04885-.35231-4.2193 0-7.14795 2.57968-7.14795 7.61881v15.82533h-8.67567zm-60.60129-18.52188c0-3.3995-1.87506-5.50998-4.80704-5.50998-3.39782 0-5.15599 2.11048-5.15599 5.62852v18.40167h-8.67402v-18.52021c0-3.3995-1.87507-5.50998-4.80537-5.50998-3.39948 0-5.15764 2.11048-5.15764 5.62852v18.40167h-8.67403v-31.41356h7.61878l.94003 4.10242s1.87505-4.92224 7.73566-4.92224c3.63658 0 6.68208 1.52275 8.79257 4.69015l.23543.35065.23543-.35065c3.04884-4.33785 6.79895-4.69015 9.14318-4.69015 6.68043 0 11.25203 5.0408 11.25203 12.19041v20.04464h-8.67401v-18.52188zm17.46492-17.11099c-3.04718 0-5.39142-2.34592-5.39142-5.27624 0-3.04718 2.34424-5.39142 5.39142-5.39142 3.04717 0 5.39142 2.34257 5.39142 5.39142 0 2.92865-2.34425 5.27624-5.39142 5.27624m-4.45306 4.21764h8.67235v31.41189h-8.67235zm-131.28248 6.91753h5.3931c4.69014 0 8.08797-2.57801 8.08797-7.26818 0-4.69183-3.39783-7.15129-8.08797-7.15129h-5.3931zm-9.258396 24.4977v-47.70809h15.119006c9.84613 0 17.23118 5.86062 17.23118 15.94221 0 10.19681-7.26817 16.17597-17.23118 16.17597h-5.86061v15.58991z" stroke-width="1.669689"/></g></svg>