<?xml version="1.0" encoding="UTF-8"?>
<!-- Created with Inkscape (http://www.inkscape.org/) -->
<svg id="svg22938" width="15.2mm" height="4.6303mm" version="1.1" viewBox="0 0 53.858 16.407" xmlns="http://www.w3.org/2000/svg" xmlns:cc="http://creativecommons.org/ns#" xmlns:dc="http://purl.org/dc/elements/1.1/" xmlns:rdf="http://www.w3.org/1999/02/22-rdf-syntax-ns#">
 <defs id="defs22940">
  <linearGradient id="linearGradient12044" x2="1" gradientTransform="matrix(0 -9.6754 9.6754 0 260.33 365.6)" gradientUnits="userSpaceOnUse">
   <stop id="stop12046" stop-color="#af6773" offset="0"/>
   <stop id="stop12048" stop-color="#c9747a" offset=".10441"/>
   <stop id="stop12050" stop-color="#c9747a" offset=".89813"/>
   <stop id="stop12052" stop-color="#d49093" offset=".99967"/>
   <stop id="stop12054" stop-color="#d49093" offset="1"/>
  </linearGradient>
  <linearGradient id="linearGradient12014" x2="1" gradientTransform="matrix(0 9.8377 9.8377 0 251.43 355.84)" gradientUnits="userSpaceOnUse">
   <stop id="stop12016" stop-color="#b4b2b1" offset="0"/>
   <stop id="stop12018" stop-color="#e8e8e9" offset=".020448"/>
   <stop id="stop12020" stop-color="#f9f9fa" offset=".052404"/>
   <stop id="stop12022" stop-color="#f5f5f5" offset=".48766"/>
   <stop id="stop12024" stop-color="#f9f9fa" offset=".89549"/>
   <stop id="stop12026" stop-color="#f4f3f4" offset=".92944"/>
   <stop id="stop12028" stop-color="#e8e8e9" offset=".96426"/>
   <stop id="stop12030" stop-color="#b4b2b1" offset="1"/>
  </linearGradient>
  <linearGradient id="linearGradient11954" x2="1" gradientTransform="matrix(0 -9.6754 9.6754 0 260.33 365.6)" gradientUnits="userSpaceOnUse">
   <stop id="stop11956" stop-color="#810a32" offset="0"/>
   <stop id="stop11958" stop-color="#a90e3a" offset=".10441"/>
   <stop id="stop11960" stop-color="#a90e3a" offset=".89813"/>
   <stop id="stop11962" stop-color="#b94556" offset=".99967"/>
   <stop id="stop11964" stop-color="#b94556" offset="1"/>
  </linearGradient>
  <linearGradient id="linearGradient11912" x2="1" gradientTransform="matrix(0 9.8377 9.8377 0 251.43 355.84)" gradientUnits="userSpaceOnUse">
   <stop id="stop11914" stop-color="#888685" offset="0"/>
   <stop id="stop11916" stop-color="#d9d9da" offset=".020448"/>
   <stop id="stop11918" stop-color="#f5f5f6" offset=".052404"/>
   <stop id="stop11920" stop-color="#eeefef" offset=".48766"/>
   <stop id="stop11922" stop-color="#f5f5f6" offset=".89549"/>
   <stop id="stop11924" stop-color="#ebebec" offset=".92944"/>
   <stop id="stop11926" stop-color="#d9d9da" offset=".96426"/>
   <stop id="stop11928" stop-color="#888685" offset="1"/>
  </linearGradient>
 </defs>
 <metadata id="metadata22943">
  <rdf:RDF>
   <cc:Work rdf:about="">
    <dc:format>image/svg+xml</dc:format>
    <dc:type rdf:resource="http://purl.org/dc/dcmitype/StillImage"/>
    <dc:title/>
   </cc:Work>
  </rdf:RDF>
 </metadata>
 <g id="layer1" transform="translate(-224.5 -355.59)">
  <g id="g4365">
   <path id="path11930" d="m276.94 355.93c0.7625 0 1.0338 0.45 1.0338 1.1988 0-0.74875-0.27125-1.1988-1.0338-1.1988zm-34.255 0h34.255-34.255zm-16.774 0c-0.76375 0-1.0338 0.45-1.0338 1.1988v7.2762c0 0.75 0.27 1.2 1.0338 1.2h16.774v-5.7562c-0.94375 0.07-1.87 0.15-2.775 0.2375l-1.9188 4.2812c-0.19875 0.43875-0.46375 0.6325-0.9425 0.6325-0.0113 0-0.025 0-0.0388-1e-3 -0.29375-7e-3 -0.5275-0.0775-0.64125-0.135l1.1438-2.415-1.24-1.945c-0.6 0.0813-1.1875 0.165-1.7538 0.25375l1.5862 2.3938c-0.13375 0.0637-0.4225 0.1425-0.77 0.1425-0.53125 0-0.8575-0.19625-1.1062-0.58125l-1.0938-1.7225c-0.10375 0.0188-0.20875 0.0375-0.31125 0.0575v1.535c0 0.445-0.175 0.70125-1.0412 0.70125-0.115 0-0.21625-7e-3 -0.3125-0.0225v-1.9462c-0.15625 0.0337-0.30875 0.0675-0.46 0.10125 0.0163 0.09 0.0238 0.1825 0.0238 0.2775 0 0.82875-0.5425 1.4338-1.6412 1.5525-0.21875 0.0238-0.465 0.0337-0.7175 0.0337-0.6675 0-1.3838-0.0662-1.7812-0.11125-0.02-0.09-0.0362-0.20125-0.0362-0.2875 0-0.06 2e-3 -0.115 9e-3 -0.1675-0.42625 0.2-0.78125 0.4075-1.06 0.6225-0.725 0.6025-0.745 1.2625-0.7675 1.3962-0.065 0-0.0887-0.28625-0.0887-0.71375l2e-3 -6.87c0-0.795 0.25875-1.0638 0.9325-1.0638 0.22875 0 0.455 0.1225 0.75875 0.1225h16.041v-0.2775h-16.774zm11.79 4.3938 0.445 0.725 0.345-0.815c-0.265 0.0288-0.53 0.06-0.79 0.09m-9.0675 1.7188c0.14375 9e-3 0.28375 0.0137 0.41125 0.0137 0.48125 0 0.635-0.16125 0.64-0.3175-0.37 0.0987-0.72 0.2-1.0512 0.30375m48.306 3.5625c0.725 0 1.005-0.4075 1.0312-1.0912-0.0263 0.68375-0.30625 1.0912-1.0312 1.0912" fill="url(#linearGradient11912)"/>
   <path id="path11942" d="m276.88 365.87c1.1325 0 1.4775-0.70375 1.4775-1.4075v-7.4688c0-0.70375-0.345-1.4075-1.4775-1.4075h-50.902c-1.1325 0-1.4775 0.70375-1.4775 1.4075v7.4688c0 0.70375 0.345 1.4075 1.4775 1.4075h50.902m-50.85-0.095c-0.7625 0-1.2788-0.45-1.2788-1.1988v-7.6962c0-0.74875 0.51625-1.1988 1.2788-1.1988h50.798c0.7625 0 1.2788 0.45 1.2788 1.1988v7.6962c0 0.74875-0.51625 1.1988-1.2788 1.1988h-50.798" fill="#a2a2a3"/>
   <path id="path11966" d="m242.69 355.93v0.2775h33.485c0.30375 0 0.5325-0.1225 0.76-0.1225 0.67375 0 0.9325 0.26875 0.9325 1.0638l2e-3 6.87c0 0.4275-0.0237 0.71375-0.0888 0.71375-0.0237-0.13375-0.1125-0.7475-0.7675-1.3962-0.37375-0.35-0.865-0.67375-1.46-0.97125l0.4025 1.2712c-0.1025 0.0425-0.22625 0.0737-0.37125 0.095s-0.2875 0.0312-0.4275 0.0312c-0.15625 0-0.30875-0.025-0.45625-0.0763-0.14875-0.0512-0.255-0.16875-0.32125-0.35l-0.31-0.93625h-1.975l-0.2625 0.88125c-0.0663 0.2125-0.1775 0.345-0.335 0.40125-0.15625 0.0537-0.3225 0.08-0.49875 0.08-0.115 0-0.245-0.01-0.39375-0.0312-0.14875-0.0213-0.27-0.0487-0.36625-0.0863l0.88875-2.7212c-0.49-0.10875-0.9975-0.21-1.5262-0.30375l0.27875 2.9888c-0.085 0.03-0.18625 0.0613-0.30375 0.0913-0.11875 0.03-0.24625 0.045-0.385 0.045-0.19375 0-0.35625-0.0325-0.49-0.1-0.1325-0.0662-0.205-0.19-0.21625-0.3725l-0.13625-1.9625c-0.0263-0.29125-0.0488-0.595-0.0675-0.91125-0.11625-0.0163-0.2325-0.035-0.34875-0.0513-0.0687 0.29875-0.13875 0.5775-0.21 0.83625l-0.37125 1.5438c-0.09 0.36375-0.3775 0.545-0.86 0.545-0.12125 0-0.245-0.0112-0.3725-0.0362-0.12625-0.0238-0.235-0.0512-0.32625-0.0825l-0.46125-1.9238c-0.0913-0.35875-0.175-0.70875-0.25375-1.055-0.015-0.0613-0.0288-0.125-0.0425-0.18625-0.08-7e-3 -0.16-0.0175-0.24125-0.025-0.01 0.175-0.0213 0.34375-0.0337 0.50625-0.0312 0.4025-0.0575 0.75-0.0813 1.0412l-0.145 1.77c-0.0125 0.17625-0.0788 0.2975-0.19875 0.36375-0.1225 0.0675-0.27875 0.1-0.47125 0.1-0.14 0-0.26125-0.0138-0.3675-0.04-0.10625-0.0275-0.1975-0.06-0.27625-0.0962l0.3675-3.7562c-1.1088-0.0962-2.2488-0.1725-3.4188-0.2325v0.54625h2.13c0.0112 0.0613 0.0225 0.14 0.035 0.24125 0.0125 0.1 0.0188 0.20625 0.0188 0.32125 0 0.2425-0.0487 0.40875-0.145 0.49625-0.0975 0.0875-0.2175 0.13125-0.3625 0.13125h-1.6762v1.0262h2.4288c0.0113 0.0663 0.0238 0.15875 0.0362 0.27625 0.0113 0.11875 0.0175 0.23625 0.0175 0.35 0 0.26125-0.0512 0.4425-0.15375 0.54625-0.1025 0.1025-0.2325 0.15375-0.39 0.15375h-2.6c-0.16875 0-0.3075-0.0175-0.4125-0.0538-0.105-0.0375-0.1875-0.0862-0.245-0.15125-0.0575-0.0625-0.0962-0.14-0.1175-0.23125-0.0225-0.09-0.0325-0.1875-0.0325-0.29v-3.4288c-0.34875-0.015-0.70125-0.0275-1.0538-0.0375v4.12c-0.0838 0.0425-0.1875 0.0712-0.30875 0.0862s-0.2375 0.0225-0.3525 0.0225c-0.285 0-0.49625-0.04-0.635-0.11875-0.13875-0.0787-0.2525-0.18625-0.34375-0.32625l-2.2012-3.5238v3.3688c0 0.17-0.0525 0.3125-0.155 0.4275s-0.295 0.1725-0.58 0.1725c-0.12 0-0.23875-6e-3 -0.35375-0.0188-0.115-0.0113-0.21125-0.0263-0.29-0.0437v-4.2262c-0.3525 4e-3 -0.70125 7e-3 -1.055 0.0112v3.6412c0 0.17625-0.0538 0.32625-0.16375 0.45-0.1075 0.12375-0.31375 0.18625-0.61625 0.18625-0.12625 0-0.25125-6e-3 -0.375-0.0188-0.12375-0.0113-0.22875-0.0263-0.31375-0.0437v-4.185c-1.1712 0.0275-2.34 0.0687-3.4938 0.12375-0.115 0.1325-0.20625 0.28625-0.27625 0.4625-0.0787 0.2-0.1175 0.425-0.1175 0.67375 0 0.25875 0.0388 0.4925 0.1175 0.6975 0.0788 0.2075 0.18625 0.38125 0.3225 0.52375 0.13625 0.14125 0.29625 0.25125 0.485 0.32625 0.18625 0.0763 0.385 0.11375 0.5975 0.11375 0.1325 0 0.25-9e-3 0.35375-0.0275 0.1025-0.0175 0.195-0.0362 0.27625-0.0538 0.0813-0.0175 0.15875-0.0375 0.23125-0.055s0.1475-0.0275 0.22625-0.0275c0.44125 0 0.63625 0.40375 0.59 1.2088-0.24875 0.10375-0.525 0.1875-0.83 0.25375-0.305 0.0663-0.61125 0.1-0.92 0.1-0.42875 0-0.825-0.0775-1.1862-0.23125-0.3625-0.15375-0.6775-0.3675-0.94375-0.64-0.265-0.27375-0.47375-0.59625-0.625-0.9725-0.15125-0.375-0.22625-0.78125-0.22625-1.2162 0-0.36875 0.0563-0.715 0.17-1.0412-0.66125 0.04-1.3162 0.0838-1.9638 0.1325v5.7562h34.255c0.725 0 1.005-0.4075 1.0312-1.0912 1e-3 -0.035 2e-3 -0.0713 2e-3 -0.10875v-7.2762c0-0.74875-0.27125-1.1988-1.0338-1.1988h-34.255zm13.624 5.5988v-2.0462c-0.43625-9e-3 -0.87125-0.0163-1.3112-0.0213l1.3112 2.0675zm10.036-0.85875c0.0763 0.3675 0.14375 0.74375 0.20375 1.1312h0.0362c0.0662-0.3875 0.13625-0.76375 0.20875-1.1262 0.0325-0.16375 0.065-0.32 0.0987-0.47-0.21875-0.0288-0.43875-0.0562-0.66125-0.0825 0.0362 0.1725 0.075 0.35625 0.11375 0.5475m6.0625 0.595h0.1125c-0.0337-0.01-0.0675-0.0188-0.10375-0.0275l-9e-3 0.0275z" fill="url(#linearGradient11954)"/>
   <path id="path11978" d="m247.46 363.82c-0.42875 0-0.825-0.0775-1.1875-0.23125-0.3625-0.155-0.67625-0.36875-0.94125-0.64125-0.26625-0.2725-0.475-0.59625-0.62625-0.97125-0.15-0.37625-0.22625-0.78125-0.22625-1.2175 0-0.42375 0.0762-0.82125 0.22625-1.19 0.15125-0.37 0.36-0.69 0.62625-0.9625 0.265-0.2725 0.57875-0.48625 0.94125-0.64125 0.3625-0.15375 0.75875-0.23125 1.1875-0.23125 0.30875 0 0.6075 0.0337 0.8975 0.1s0.55875 0.15125 0.80625 0.25375c0.0538 0.80625-0.1425 1.2088-0.58875 1.2088-0.0787 0-0.15125-9e-3 -0.2175-0.0275-0.0675-0.0175-0.14-0.0362-0.2175-0.0537-0.0787-0.0188-0.16625-0.0375-0.26375-0.055-0.0962-0.0188-0.21125-0.0275-0.34375-0.0275-0.21125 0-0.41125 0.0375-0.5975 0.11375-0.1875 0.0762-0.35 0.185-0.485 0.3275-0.13625 0.14125-0.24375 0.3125-0.3225 0.5125-0.0775 0.2-0.1175 0.42375-0.1175 0.6725 0 0.26 0.04 0.49375 0.1175 0.7 0.0787 0.205 0.18625 0.38 0.3225 0.52125 0.135 0.1425 0.2975 0.25125 0.485 0.3275 0.18625 0.0763 0.38625 0.11375 0.5975 0.11375 0.1325 0 0.25-9e-3 0.35375-0.0275 0.1025-0.0175 0.195-0.0362 0.27625-0.055 0.0812-0.0175 0.15875-0.0362 0.23125-0.0537 0.0725-0.0188 0.1475-0.0275 0.22625-0.0275 0.44125 0 0.6375 0.4025 0.58875 1.2088-0.2475 0.1025-0.52375 0.1875-0.82875 0.25375-0.305 0.0662-0.61125 0.1-0.92 0.1" fill="#fff"/>
   <path id="path11982" d="m250.59 363.74c-0.12625 0-0.2525-6e-3 -0.37625-0.0188-0.12375-0.0112-0.2275-0.0263-0.3125-0.045v-5.26c0-0.175 0.055-0.325 0.16375-0.44875 0.10875-0.125 0.31375-0.18625 0.615-0.18625 0.1275 0 0.2525 6e-3 0.37625 0.0175 0.12375 0.0125 0.22875 0.0275 0.3125 0.0462v5.2588c0 0.17625-0.0537 0.32625-0.1625 0.45-0.10875 0.12375-0.31375 0.18625-0.61625 0.18625" fill="#fff"/>
   <path id="path11986" d="m253.07 363.74c-0.12125 0-0.23875-6e-3 -0.35375-0.0188-0.115-0.0112-0.21125-0.0263-0.29-0.045v-5.7862c0.0913-0.03 0.20875-0.0563 0.35375-0.0775 0.145-0.0213 0.26875-0.0312 0.37125-0.0312 0.3325 0 0.57375 0.0425 0.725 0.12625 0.15125 0.085 0.2775 0.21 0.38125 0.3725l2.0562 3.2438v-3.1612c0-0.0788 0.01-0.1525 0.0325-0.2225 0.02-0.07 0.0563-0.1325 0.1075-0.18625 0.0512-0.055 0.1225-0.0975 0.21375-0.1275 0.09-0.03 0.205-0.045 0.34375-0.045 0.12125 0 0.2375 6e-3 0.34875 0.0175 0.1125 0.0125 0.2075 0.025 0.28625 0.0362v5.7962c-0.085 0.0425-0.1875 0.0713-0.30875 0.0863s-0.23875 0.0225-0.3525 0.0225c-0.285 0-0.49625-0.0387-0.635-0.1175-0.13875-0.0787-0.25375-0.18875-0.34375-0.3275l-2.2025-3.525v3.37c0 0.17-0.0512 0.3125-0.15375 0.4275-0.1025 0.115-0.29625 0.1725-0.58 0.1725" fill="#fff"/>
   <path id="path11990" d="m259.51 363.71c-0.16875 0-0.30625-0.0188-0.4125-0.055-0.105-0.0362-0.1875-0.0863-0.245-0.15-0.0563-0.0625-0.0962-0.14-0.1175-0.23125-0.0213-0.0913-0.0312-0.1875-0.0312-0.29v-4.4512c0-0.10375 0.01-0.2 0.0312-0.29125 0.0213-0.0913 0.0612-0.1675 0.1175-0.23125 0.0575-0.0638 0.14-0.11375 0.245-0.15 0.10625-0.0362 0.24375-0.055 0.4125-0.055h2.9988c0.0125 0.0675 0.025 0.1575 0.0362 0.2725 0.0125 0.115 0.0188 0.23375 0.0188 0.355 0 0.25375-0.0513 0.43375-0.15375 0.54-0.10375 0.10625-0.2325 0.15875-0.39 0.15875h-1.8488v1.0362h2.13c0.0113 0.06 0.0238 0.14 0.0362 0.24 0.0113 0.1 0.0175 0.2075 0.0175 0.3225 0 0.2425-0.0488 0.4075-0.145 0.495-0.0962 0.0888-0.2175 0.1325-0.3625 0.1325h-1.6762v1.0262h2.4288c0.0125 0.0663 0.0237 0.15875 0.0362 0.2775 0.0112 0.1175 0.0175 0.23375 0.0175 0.34875 0 0.26125-0.0512 0.4425-0.15375 0.545-0.1025 0.10375-0.2325 0.155-0.39 0.155h-2.6" fill="#fff"/>
   <path id="path11994" d="m263.86 363.74c-0.13875 0-0.26125-0.0138-0.3675-0.0412-0.105-0.0263-0.1975-0.0587-0.27625-0.095l0.55375-5.66c0.115-0.0475 0.26625-0.0875 0.45375-0.1175 0.18625-0.03 0.3475-0.045 0.48-0.045 0.1875 0 0.34875 0.0113 0.48375 0.0362 0.13625 0.0238 0.2525 0.065 0.34875 0.1225 0.0975 0.0575 0.17375 0.1375 0.23125 0.24 0.0575 0.10375 0.10125 0.23125 0.13125 0.3825l0.23625 1.0988c0.0662 0.3025 0.13625 0.6375 0.2125 1.0038 0.075 0.36625 0.14375 0.74375 0.20375 1.1312h0.0362c0.0662-0.3875 0.135-0.76375 0.2075-1.1262 0.0725-0.36375 0.14875-0.69625 0.22625-1l0.29-1.1538c0.0725-0.28375 0.18875-0.4775 0.34875-0.58125 0.15875-0.1025 0.40875-0.15375 0.74625-0.15375 0.16875 0 0.33875 0.0138 0.51125 0.04 0.17125 0.0275 0.315 0.0562 0.43 0.0863l0.52875 5.6962c-0.0838 0.03-0.185 0.0613-0.30375 0.0913-0.1175 0.03-0.24625 0.045-0.385 0.045-0.1925 0-0.35625-0.0337-0.48875-0.1s-0.205-0.19125-0.2175-0.3725l-0.13625-1.9625c-0.03-0.345-0.0562-0.70625-0.0763-1.085-0.0213-0.37875-0.035-0.7375-0.0412-1.0762h-0.0188c-0.0775 0.315-0.1575 0.655-0.24 1.0212-0.0812 0.3675-0.16375 0.705-0.24875 1.0138l-0.37125 1.5438c-0.0912 0.36375-0.3775 0.545-0.86125 0.545-0.12125 0-0.245-0.0125-0.37125-0.0362-0.1275-0.0238-0.23625-0.0513-0.32625-0.0813l-0.4625-1.9262c-0.09-0.3575-0.175-0.70875-0.25375-1.0538-0.0788-0.345-0.15125-0.69-0.2175-1.0362h-0.0263c-0.0188 0.485-0.0425 0.92875-0.0725 1.3312-0.0312 0.4025-0.0575 0.75-0.0825 1.04l-0.145 1.7712c-0.0113 0.17625-0.0775 0.2975-0.19875 0.36375-0.12125 0.0662-0.2775 0.1-0.47125 0.1" fill="#fff"/>
   <path id="path11998" d="m272.41 361.26h1.3562l-0.67625-2.225-0.68 2.225m-1.4138 2.4988c-0.115 0-0.24625-0.0113-0.39375-0.0325-0.14875-0.0213-0.27-0.05-0.3675-0.0863l1.88-5.7588c0.16375-0.0425 0.32875-0.0738 0.49625-0.0913 0.16625-0.0188 0.31875-0.0275 0.45875-0.0275 0.2 0 0.37 0.015 0.5125 0.045 0.1425 0.0312 0.2625 0.0763 0.36 0.13625 0.0963 0.0612 0.17625 0.14125 0.24 0.24125 0.0638 0.1 0.11625 0.21625 0.15875 0.35l1.6112 5.0962c-0.1025 0.0425-0.22625 0.0737-0.37125 0.095s-0.28625 0.0325-0.425 0.0325c-0.1575 0-0.31-0.0263-0.45875-0.0775-0.1475-0.0513-0.255-0.16875-0.32125-0.35l-0.30875-0.93625h-1.9762l-0.26125 0.88125c-0.0663 0.2125-0.1775 0.34625-0.335 0.4-0.1575 0.055-0.32375 0.0825-0.49875 0.0825" fill="#fff"/>
   <path id="path12002" d="m231.04 361.69c0 0.82875-0.54125 1.4338-1.6412 1.5538-0.7975 0.085-1.9512-0.0163-2.4988-0.0788-0.02-0.09-0.0362-0.20125-0.0362-0.28875 0-0.725 0.3925-0.89 0.75875-0.89 0.38125 0 0.9825 0.0662 1.4288 0.0662 0.49125 0 0.64125-0.16625 0.64125-0.325 0-0.20875-0.19875-0.295-0.58-0.3675l-1.0438-0.20125c-0.8675-0.16625-1.3312-0.76625-1.3312-1.4038 0-0.775 0.54875-1.4238 1.6275-1.5438 0.815-0.0875 1.8075 0.0125 2.3525 0.0788 0.02 0.0937 0.03 0.1825 0.03 0.27875 0 0.7225-0.38125 0.87875-0.74875 0.87875-0.28125 0-0.72-0.0525-1.2188-0.0525-0.50875 0-0.72 0.14-0.72 0.3125 0 0.18 0.20125 0.255 0.52 0.31125l0.99625 0.185c1.025 0.18875 1.4638 0.77 1.4638 1.4862m1.79 0.88875c0 0.445-0.175 0.70125-1.0412 0.70125-0.115 0-0.21625-9e-3 -0.3125-0.0225v-5.8938c0-0.4475 0.1525-0.915 1.0288-0.915 0.11 0 0.22125 0.0113 0.325 0.0337v6.0962m3.545 2.28c0.11375 0.0587 0.3475 0.12875 0.64125 0.1375 0.5025 0.01 0.7775-0.1825 0.98125-0.63375l2.7025-6.0275c-0.11125-0.06-0.3575-0.12625-0.56125-0.13125-0.34625-6e-3 -0.8125 0.065-1.1112 0.77625l-0.875 2.065-1.7162-2.795c-0.11-0.0337-0.38-0.0825-0.57875-0.0825-0.605 0-0.94375 0.22375-1.295 0.60375l-1.6688 1.825 1.3425 2.1125c0.2475 0.385 0.575 0.58125 1.105 0.58125 0.3475 0 0.63625-0.0788 0.77-0.14375l-1.6162-2.4362 1.145-1.2125 1.8788 2.9475-1.1438 2.4138" fill="#a90e3a"/>
   <path id="path12032" d="m224.96 357.15-2e-3 6.87c0 0.4275 0.0237 0.71375 0.0887 0.71375 0.0225-0.13375 0.0425-0.79375 0.7675-1.3962 0.27875-0.215 0.63375-0.4225 1.06-0.6225 0.0563-0.58375 0.41375-0.72375 0.75-0.72375 0.2725 0 0.6575 0.0337 1.0175 0.0525 0.33125-0.10375 0.68125-0.205 1.0512-0.30375v-7e-3c0-0.20875-0.1975-0.295-0.57875-0.3675l-1.0438-0.20125c-0.86875-0.16625-1.3312-0.76625-1.3312-1.4038 0-0.775 0.54875-1.4238 1.6262-1.5438 0.23-0.0238 0.47375-0.0337 0.71625-0.0337 0.6225 0 1.2462 0.065 1.6375 0.1125 0.0187 0.0937 0.03 0.18125 0.03 0.28 0 0.72125-0.38125 0.87875-0.7475 0.87875-0.2825 0-0.72-0.0537-1.22-0.0537-0.51 0-0.72 0.14125-0.72 0.3125 0 0.18 0.2 0.255 0.51875 0.31125l0.9975 0.18375c0.8875 0.165 1.3362 0.62375 1.44 1.21 0.15125-0.0337 0.30375-0.0675 0.46-0.10125v-3.9475c0-0.4475 0.1525-0.915 1.0288-0.915 0.11 0 0.22125 0.0113 0.325 0.0337v4.5612c0.1025-0.02 0.2075-0.0387 0.31125-0.0575l-0.24875-0.39 1.6688-1.8238c0.3525-0.3825 0.69125-0.605 1.2962-0.605 0.1975 0 0.4675 0.0487 0.57875 0.0825l1.2712 2.07c0.26-0.03 0.525-0.0613 0.79-0.09l0.53-1.25c0.28875-0.68625 0.73125-0.77625 1.075-0.77625h0.0362c0.2025 5e-3 0.44875 0.0725 0.56125 0.13125l-0.78375 1.7475c0.905-0.0875 1.8312-0.1675 2.775-0.2375v-3.6412h-16.041c-0.30375 0-0.53-0.1225-0.75875-0.1225-0.67375 0-0.9325 0.26875-0.9325 1.0638m9.5362 3.565 0.03 0.0437c0.56625-0.0888 1.1538-0.1725 1.7538-0.25375l-0.63875-1.0025-1.145 1.2125z" fill="url(#linearGradient12014)"/>
   <path id="path12056" d="m276.17 356.21h-33.485v3.6412c0.6475-0.0487 1.3025-0.0925 1.9638-0.1325 0.0175-0.0512 0.0362-0.1 0.0563-0.15 0.15125-0.36875 0.36-0.69 0.625-0.9625 0.26625-0.2725 0.58125-0.48625 0.94375-0.64 0.36125-0.155 0.7575-0.2325 1.1862-0.2325 0.30875 0 0.6075 0.0337 0.89625 0.10125 0.29125 0.0663 0.56 0.15 0.8075 0.25375 0.055 0.805-0.1425 1.2075-0.58875 1.2075-0.0788 0-0.1525-9e-3 -0.21875-0.0275-0.0663-0.0175-0.1375-0.0362-0.21625-0.0538-0.0788-0.0187-0.1675-0.0362-0.26375-0.0537-0.095-0.02-0.21125-0.0288-0.34375-0.0288-0.2125 0-0.41125 0.0387-0.5975 0.11375-0.18875 0.0763-0.34875 0.18625-0.485 0.3275-0.0163 0.0162-0.0312 0.0337-0.0463 0.05 1.1538-0.055 2.3225-0.0962 3.4938-0.12375v-1.0762c0-0.175 0.055-0.325 0.16375-0.44875s0.31375-0.18625 0.61625-0.18625c0.1275 0 0.2525 6e-3 0.37625 0.0175 0.12375 0.0125 0.2275 0.0288 0.3125 0.0463v1.6175c0.35375-4e-3 0.7025-7e-3 1.055-0.0112v-1.5612c0.0913-0.03 0.20875-0.0562 0.355-0.0762 0.145-0.0213 0.2675-0.0325 0.37125-0.0325 0.33125 0 0.57375 0.0425 0.72375 0.12625 0.15125 0.0862 0.27875 0.21 0.38 0.3725l0.74625 1.1762c0.44 5e-3 0.875 0.0125 1.3112 0.0213v-1.115c0-0.0788 0.0113-0.1525 0.0325-0.2225s0.0575-0.1325 0.10875-0.18625c0.05-0.055 0.12125-0.0962 0.2125-0.12625 0.09-0.0312 0.205-0.0462 0.34375-0.0462 0.12125 0 0.2375 6e-3 0.34875 0.0175 0.1125 0.0125 0.2075 0.025 0.28625 0.0375v1.675c0.3525 0.01 0.705 0.0225 1.0538 0.0375v-1.0238c0-0.10125 0.01-0.19875 0.0325-0.29 0.0213-0.0913 0.06-0.1675 0.1175-0.23125 0.0575-0.0638 0.14-0.11375 0.245-0.15 0.105-0.0362 0.24375-0.055 0.4125-0.055h2.9988c0.0125 0.0675 0.0238 0.1575 0.0362 0.27375 0.0125 0.115 0.0175 0.2325 0.0175 0.35375 0 0.255-0.05 0.435-0.15375 0.54-0.1025 0.10625-0.23125 0.15875-0.38875 0.15875h-1.8488v0.49c1.17 0.06 2.31 0.13625 3.4188 0.2325l0.185-1.9025c0.115-0.0487 0.26625-0.0875 0.45375-0.1175 0.1875-0.0312 0.3475-0.0462 0.48125-0.0462 0.18625 0 0.3475 0.0125 0.4825 0.0362 0.13625 0.0238 0.2525 0.065 0.35 0.1225 0.0962 0.0575 0.17375 0.1375 0.23 0.24125 0.0575 0.1025 0.10125 0.23 0.13125 0.38125l0.23625 1.0988c0.0325 0.145 0.065 0.29625 0.0987 0.45625 0.2225 0.0263 0.4425 0.0537 0.66125 0.0825 0.0412-0.18625 0.0838-0.3625 0.12625-0.52875l0.29125-1.155c0.0712-0.285 0.1875-0.4775 0.3475-0.58 0.16-0.10375 0.4075-0.155 0.74625-0.155 0.16875 0 0.33875 0.0125 0.51125 0.0412 0.1725 0.0263 0.315 0.055 0.43 0.085l0.25125 2.7075c0.52875 0.0937 1.0362 0.195 1.5262 0.30375l0.99125-3.0375c0.1625-0.0438 0.3275-0.0738 0.495-0.0913 0.16625-0.0188 0.31875-0.0275 0.45875-0.0275 0.2 0 0.37125 0.0163 0.5125 0.045 0.14375 0.03 0.2625 0.0763 0.35875 0.1375 0.0987 0.06 0.17875 0.14125 0.2425 0.24125 0.0625 0.0988 0.11625 0.215 0.15875 0.34875l1.2088 3.825c0.595 0.2975 1.0862 0.62125 1.46 0.97125 0.655 0.64875 0.74375 1.2625 0.7675 1.3962 0.065 0 0.0888-0.28625 0.0888-0.71375l-2e-3 -6.87c0-0.795-0.25875-1.0638-0.9325-1.0638-0.2275 0-0.45625 0.1225-0.76 0.1225m-3.7538 5.03c0.0362 9e-3 0.07 0.0175 0.10375 0.0275h1.2438l-0.67625-2.225-0.67125 2.1975zm-7.5888-2.0988c-0.0113 0.29125-0.025 0.565-0.0387 0.825 0.0812 7e-3 0.16125 0.0175 0.24125 0.025-0.0625-0.2825-0.12125-0.56625-0.175-0.85h-0.0275zm3.38 9e-3c-0.0788 0.31625-0.15875 0.65625-0.24125 1.0238-0.0125 0.0588-0.025 0.1175-0.0388 0.17625 0.11625 0.0163 0.2325 0.035 0.34875 0.0513-4e-3 -0.0575-7e-3 -0.115-0.01-0.17375-0.0213-0.37875-0.035-0.7375-0.0412-1.0775h-0.0175z" fill="url(#linearGradient12044)"/>
   <path id="path12068" d="m244.65 359.72c0.0175-0.05 0.0363-0.1 0.0563-0.15 0.15125-0.36875 0.36-0.69 0.62625-0.9625 0.265-0.2725 0.57875-0.48625 0.94125-0.64125 0.3625-0.15375 0.75875-0.23125 1.1875-0.23125 0.30875 0 0.6075 0.0337 0.8975 0.1s0.55875 0.15125 0.80625 0.25375c0.0538 0.80625-0.1425 1.2088-0.58875 1.2088-0.0787 0-0.15125-9e-3 -0.2175-0.0275-0.0675-0.0175-0.14-0.0362-0.2175-0.0537-0.0787-0.0188-0.16625-0.0362-0.26375-0.055-0.0962-0.0188-0.21125-0.0275-0.34375-0.0275-0.21125 0-0.41125 0.0387-0.5975 0.11375-0.1875 0.0762-0.35 0.185-0.485 0.3275-0.0162 0.0163-0.0312 0.0325-0.0462 0.05-0.58875 0.0288-1.175 0.06-1.755 0.095" fill="#fff"/>
   <path id="path12072" d="m249.9 359.5v-1.075c0-0.175 0.055-0.325 0.16375-0.44875 0.10875-0.125 0.31375-0.18625 0.615-0.18625 0.1275 0 0.2525 6e-3 0.37625 0.0175 0.12375 0.0125 0.22875 0.0275 0.3125 0.0462v1.6175c-0.48875 7e-3 -0.97875 0.0175-1.4675 0.0288" fill="#fff"/>
   <path id="path12076" d="m257.64 359.51c-0.4425-0.0138-0.885-0.025-1.3325-0.0337v-1.115c0-0.0788 0.0113-0.1525 0.0325-0.2225 0.0212-0.0687 0.0575-0.13125 0.10875-0.18625 0.0512-0.0537 0.1225-0.0962 0.2125-0.1275 0.0913-0.03 0.205-0.045 0.345-0.045 0.12 0 0.23625 6e-3 0.34875 0.0188 0.11125 0.0113 0.20625 0.0238 0.285 0.0362v1.675m-2.6438-0.055c-0.51-5e-3 -1.0238-7e-3 -1.5362-7e-3 -0.345 0-0.69375 1e-3 -1.0388 4e-3v-1.5625c0.09-0.03 0.2075-0.055 0.3525-0.0762 0.145-0.0213 0.26875-0.0325 0.37125-0.0325 0.3325 0 0.575 0.0425 0.725 0.1275 0.15125 0.085 0.27875 0.20875 0.38125 0.3725l0.745 1.175" fill="#fff"/>
   <path id="path12080" d="m260.17 359.62c-0.485-0.025-0.975-0.0475-1.4675-0.0663v-1.0225c0-0.1025 0.01-0.2 0.0312-0.29 0.0213-0.0913 0.06-0.16875 0.1175-0.2325 0.0575-0.0625 0.13875-0.1125 0.245-0.14875 0.105-0.0375 0.2425-0.055 0.4125-0.055h2.9988c0.0125 0.0663 0.0238 0.1575 0.0362 0.2725 0.0125 0.115 0.0188 0.23375 0.0188 0.35375 0 0.255-0.0513 0.435-0.155 0.54125-0.1025 0.10625-0.2325 0.15875-0.38875 0.15875h-1.8488v0.48875" fill="#fff"/>
   <path id="path12084" d="m269.6 360.62c-0.42875-0.0775-0.86875-0.15-1.32-0.22-4e-3 -0.0575-8e-3 -0.115-0.01-0.17375-0.0212-0.37875-0.035-0.7375-0.0412-1.0762h-0.0175c-0.0788 0.315-0.15875 0.655-0.24125 1.0212-0.0125 0.06-0.0263 0.11875-0.04 0.17625-0.3375-0.0487-0.68375-0.0975-1.0338-0.1425 0.0412-0.185 0.0838-0.36125 0.12625-0.52875l0.29-1.1538c0.0725-0.285 0.18875-0.47875 0.34875-0.58125 0.15875-0.1025 0.40875-0.155 0.74625-0.155 0.16875 0 0.33875 0.0138 0.51125 0.0412 0.17125 0.0275 0.315 0.0562 0.43 0.0863l0.25125 2.7062m-3.3662-0.4975c-0.39375-0.0462-0.79375-0.0913-1.2-0.1325-0.0625-0.28375-0.12125-0.56625-0.17625-0.85h-0.0263c-0.0113 0.29-0.0238 0.565-0.0387 0.825-0.3975-0.04-0.8-0.0775-1.2062-0.1125l0.18625-1.9025c0.11375-0.0475 0.265-0.0875 0.4525-0.1175s0.3475-0.0462 0.48-0.0462c0.1875 0 0.34875 0.0125 0.48375 0.0375 0.13625 0.0237 0.2525 0.065 0.35 0.1225 0.0962 0.0575 0.1725 0.1375 0.23 0.24 0.0575 0.10375 0.10125 0.23 0.13125 0.38125l0.23625 1.1c0.0312 0.145 0.0637 0.29625 0.0975 0.455" fill="#fff"/>
   <path id="path12088" d="m275.55 362.36c-0.82375-0.41375-1.845-0.77875-3.0288-1.0988h1.2438l-0.67625-2.2262-0.67125 2.1975c-0.4125-0.11-0.84625-0.21375-1.295-0.31375l0.9925-3.0375c0.1625-0.0425 0.32875-0.0725 0.495-0.09 0.16625-0.0188 0.32-0.0275 0.45875-0.0275 0.2 0 0.37125 0.015 0.51375 0.045 0.14125 0.03 0.26125 0.0763 0.35875 0.13625 0.0962 0.0613 0.17625 0.14125 0.24 0.24125 0.0638 0.1 0.1175 0.21625 0.16 0.34875l1.2088 3.825" fill="#fff"/>
   <path id="path12092" d="m226.87 362.71c0.0562-0.58375 0.41375-0.72375 0.75125-0.72375 0.2725 0 0.65625 0.0337 1.0162 0.0537-0.67625 0.2125-1.27 0.43625-1.7675 0.67m2.82-0.97375v-9e-3c0-0.2075-0.19875-0.295-0.58-0.3675l-1.0425-0.20125c-0.86875-0.16625-1.3312-0.76625-1.3312-1.4038 0-0.775 0.5475-1.4238 1.6262-1.5425 0.23-0.025 0.4725-0.035 0.71625-0.035 0.6225 0 1.245 0.065 1.6362 0.1125 0.02 0.0937 0.0312 0.1825 0.0312 0.28 0 0.7225-0.38125 0.8775-0.74875 0.8775-0.2825 0-0.72-0.0525-1.22-0.0525-0.50875 0-0.72 0.14125-0.72 0.3125 0 0.18 0.20125 0.255 0.52 0.31125l0.9975 0.185c0.8875 0.16375 1.3362 0.6225 1.44 1.2088-0.465 0.10375-0.90625 0.2125-1.325 0.32375m1.785-0.425v-3.9475c0-0.4475 0.15125-0.915 1.0275-0.915 0.11125 0 0.2225 0.0125 0.325 0.0337v4.5612c-0.4675 0.0863-0.91875 0.175-1.3525 0.2675m1.665-0.325-0.2475-0.39 1.6675-1.8238c0.35125-0.38125 0.69125-0.605 1.295-0.605 0.19875 0 0.46875 0.0488 0.58 0.0825l1.2712 2.07c-0.48625 0.0575-0.96125 0.1175-1.4288 0.18l-0.63875-1.0025-1.145 1.2125 0.0287 0.045c-0.47375 0.0737-0.935 0.15125-1.3825 0.23125m5.3562-0.75625 0.53-1.25c0.2875-0.68625 0.73125-0.77625 1.0738-0.77625h0.0375c0.2025 5e-3 0.44875 0.0713 0.56125 0.13125l-0.78375 1.7475c-0.47875 0.0462-0.9525 0.0962-1.4188 0.1475" fill="#c9747a"/>
  </g>
  <g id="g4386" fill="#fff">
   <path id="path12096" d="m243.29 371.99c-0.06 0-0.11875-2e-3 -0.1775-9e-3 -0.0575-5e-3 -0.1025-0.0125-0.1325-0.02v-3.37c0-0.0863 0.02-0.15625 0.06-0.21125 0.0387-0.0537 0.1275-0.0812 0.2675-0.0812h1.98c7e-3 0.03 0.0137 0.07 0.0175 0.12 4e-3 0.0512 5e-3 0.1025 5e-3 0.155 0 0.12-0.0237 0.2-0.07 0.24-0.0475 0.0387-0.10625 0.0587-0.1775 0.0587h-1.4512v1.0688h1.5362c0.0188 0.0675 0.0275 0.15625 0.0275 0.265s-0.0238 0.185-0.07 0.2275c-0.0475 0.0437-0.1025 0.065-0.16625 0.065h-1.3275v1.2262c0 0.075-0.0238 0.13875-0.0712 0.18875-0.0463 0.0513-0.13 0.0763-0.25 0.0763"/>
   <path id="path12100" d="m246.26 370.46h1.0825l-0.5375-1.6325-0.545 1.6325zm-0.78625 1.5362c-0.0525 0-0.11125-5e-3 -0.1775-0.0163-0.065-0.0113-0.1175-0.0288-0.155-0.0512l1.2475-3.5962c0.0713-0.0188 0.14125-0.0312 0.21125-0.0387 0.0687-8e-3 0.13625-0.0113 0.2-0.0113 0.09 0 0.16375 6e-3 0.22125 0.02 0.0587 0.0125 0.1075 0.0337 0.1475 0.0613 0.0387 0.0288 0.0713 0.0637 0.0975 0.1075 0.0263 0.0425 0.0513 0.0962 0.0738 0.16l1.1275 3.2925c-0.045 0.0187-0.0962 0.035-0.155 0.05-0.0575 0.015-0.11125 0.0225-0.16 0.0225-0.0863 0-0.16125-0.01-0.225-0.0312-0.0638-0.02-0.11125-0.0738-0.14125-0.16l-0.27125-0.805h-1.435l-0.26875 0.805c-0.03 0.0825-0.0738 0.135-0.13 0.1575-0.0563 0.0225-0.125 0.0337-0.2075 0.0337"/>
   <path id="path12104" d="m249.11 371.99c-0.0637 0-0.11875-6e-3 -0.16625-0.02-0.0462-0.0125-0.0875-0.0275-0.12125-0.0425l0.3725-3.5612c0.0525-0.0225 0.12125-0.0412 0.205-0.0537 0.0837-0.0138 0.15625-0.02 0.21625-0.02 0.1675 0 0.29625 0.025 0.38375 0.0762 0.0875 0.05 0.14625 0.14 0.17625 0.2675l0.61875 2.4475 0.625-2.4312c0.03-0.1275 0.09-0.21875 0.18-0.275 0.09-0.0562 0.21375-0.085 0.37125-0.085 0.075 0 0.15125 6e-3 0.23 0.0175 0.0788 0.0113 0.145 0.0238 0.1975 0.0387l0.3525 3.5788c-0.0375 0.015-0.0813 0.03-0.1325 0.0425-0.0513 0.0137-0.1075 0.02-0.17125 0.02-0.0863 0-0.1575-0.015-0.21375-0.045-0.0563-0.03-0.0888-0.0863-0.0962-0.16875l-0.23875-2.8925-0.6875 2.56c-0.03 0.105-0.0813 0.1775-0.155 0.2175-0.0725 0.0387-0.16625 0.0588-0.27875 0.0588-0.0563 0-0.115-4e-3 -0.1775-0.0113-0.0613-7e-3 -0.11375-0.0188-0.155-0.0337l-0.775-2.7912-0.26125 2.8975c-7e-3 0.0788-0.04 0.13375-0.0962 0.16375-0.0563 0.03-0.12375 0.045-0.2025 0.045"/>
   <path id="path12108" d="m253.64 371.99c-0.06 0-0.11875-2e-3 -0.1775-9e-3 -0.0575-5e-3 -0.1025-0.0125-0.1325-0.02v-3.41c0-0.075 0.0238-0.1375 0.0712-0.18875 0.0463-0.05 0.13-0.075 0.25-0.075 0.06 0 0.11875 2e-3 0.1775 7e-3 0.0575 6e-3 0.1025 0.0125 0.1325 0.02v3.41c0 0.075-0.0238 0.13875-0.0712 0.18875-0.0463 0.0513-0.13 0.0763-0.25 0.0763"/>
   <path id="path12112" d="m255.12 371.96c-0.13875 0-0.2275-0.0275-0.2675-0.0813-0.0387-0.055-0.0588-0.125-0.0588-0.21125v-3.1125c0-0.075 0.0238-0.1375 0.07-0.18875 0.0475-0.05 0.13-0.075 0.25-0.075 0.0613 0 0.12 2e-3 0.1775 7e-3 0.0588 6e-3 0.1025 0.0125 0.1325 0.02v3.0675h1.7388c7e-3 0.0413 0.015 0.0838 0.02 0.12625 5e-3 0.0437 9e-3 0.0875 9e-3 0.1325 0 0.12-0.025 0.2025-0.0762 0.2475-0.0513 0.045-0.12125 0.0675-0.21125 0.0675h-1.7838z"/>
   <path id="path12116" d="m258.06 371.99c-0.06 0-0.11875-2e-3 -0.1775-9e-3 -0.0575-5e-3 -0.1025-0.0125-0.1325-0.02v-1.5525l-1.3275-2.0312c0.0525-0.03 0.11375-0.0525 0.18625-0.0675 0.07-0.015 0.135-0.0225 0.19125-0.0225 0.0975 0 0.17875 0.0113 0.24375 0.0362 0.0663 0.025 0.12125 0.0725 0.16625 0.14375l0.87875 1.4125 0.87125-1.4075c0.0413-0.0713 0.09-0.12 0.14625-0.14625 0.0563-0.0263 0.13-0.0387 0.22-0.0387 0.0525 0 0.11375 6e-3 0.18625 0.0188 0.07 0.0137 0.12875 0.035 0.17375 0.065l-1.305 2.0312v1.3225c0 0.075-0.0238 0.13875-0.0713 0.18875-0.0462 0.0513-0.13 0.0763-0.25 0.0763"/>
  </g>
 </g>
</svg>
