<svg height="453" viewBox="0 0 3239.9998 424.68751" width="3455.9998" xmlns="http://www.w3.org/2000/svg" xmlns:xlink="http://www.w3.org/1999/xlink"><clipPath id="a"><path d="m412.392 532.67h93.284v-15.246h-93.284z"/></clipPath><clipPath id="b"><path d="m412.392 517.424h93.284v15.245h-93.284z"/></clipPath><linearGradient id="c" gradientTransform="matrix(0 -399.55305 399.55305 0 1671.8397 -34.434947)" gradientUnits="userSpaceOnUse" spreadMethod="pad" x1="0" x2="1" y1="0" y2="0"><stop offset="0" stop-color="#820021"/><stop offset=".104411" stop-color="#ae2c3f"/><stop offset=".901742" stop-color="#ae2c3f"/><stop offset="1" stop-color="#ba3c4c"/></linearGradient><clipPath id="d"><path d="m505.836 530.723h.017v-.016h-.017z"/></clipPath><linearGradient id="e" gradientTransform="matrix(0 406.25562 406.25562 0 1304.1348 -437.46411)" gradientUnits="userSpaceOnUse" spreadMethod="pad" x1="0" x2="1" y1="0" y2="0"><stop offset="0" stop-color="#868685"/><stop offset=".020448" stop-color="#d8d9d9"/><stop offset=".0524045" stop-color="#f5f5f5"/><stop offset=".487663" stop-color="#edeeee"/><stop offset=".895488" stop-color="#f5f5f5"/><stop offset=".929442" stop-color="#ebebec"/><stop offset=".964262" stop-color="#d8d9d9"/><stop offset="1" stop-color="#868685"/></linearGradient><g transform="translate(-192.07736 446.55447)"><path d="m250.50756-433.98718c-31.50605 0-42.70299 18.5991-42.70299 49.51954v300.513851c0 30.920436 11.19694 49.519546 42.70299 49.519546h2107.27464c31.506 0 42.6795-18.59911 42.6795-49.519546v-300.513851c0-30.92044-11.1735-49.51954-42.6795-49.51954z" fill="url(#e)"/><path d="m3371.0565-21.866959c46.7554 0 61.0207-29.069895 61.0207-58.13979l-.0004-308.407931c-.0001-29.06989-14.2646-58.13979-61.02-58.13979h-3117.95842c-46.77888 0-61.02102 29.0699-61.02102 58.13979v308.407931c0 29.069895 14.24214 58.13979 61.02102 58.13979zm-3115.80307-3.911904c-31.48262 0-52.79898-18.575687-52.79898-49.519548v-317.824609c0-30.94386 21.31636-49.51955 52.79898-49.51955h3113.64817c31.4826 0 52.7986 18.57569 52.7986 49.51955v317.824609c0 30.943861-21.3162 49.519548-52.7988 49.519548z" fill="#a1a2a2"/><g clip-path="url(#d)" opacity=".800003" transform="matrix(22.132436 0 0 -22.132436 -8917.4253 11384.095)"><g/></g><path d="m943.21904-433.98718v399.552937h2430.44726c31.506 0 42.679-18.59911 42.679-49.519546v-300.513851c0-30.92044-11.173-49.51954-42.679-49.51954z" fill="url(#c)"/><g fill="#fff"><path d="m1140.4071-108.23102c-17.709 0-34.0594-3.18574-49.0277-9.55722-14.9682-6.39492-27.9221-15.20255-38.9082-26.44634-10.9861-11.26723-19.5829-24.64266-25.8138-40.14973-6.231-15.50706-9.3699-32.25563-9.3699-50.26913 0-17.49816 3.1389-33.87193 9.3699-49.14476 6.2309-15.24939 14.8277-28.5077 25.8138-39.75149 10.9861-11.26722 23.94-20.07487 38.9082-26.44635 14.9683-6.39491 31.3187-9.58065 49.0277-9.58065 12.7195 0 25.0643 1.38205 37.0343 4.12272 11.9933 2.76411 23.0731 6.27779 33.3097 10.51763 2.2487 33.2629-5.8562 49.89435-24.3148 49.89435-3.256 0-6.2309-.3748-8.9949-1.12438-2.7407-.74958-5.7391-1.49917-8.9716-2.24876-3.2561-.74959-6.8634-1.49917-10.8457-2.24876-4.0055-.74959-8.7374-1.1478-14.2186-1.1478-8.7374 0-16.9594 1.56944-24.713 4.70834-7.7301 3.11546-14.3827 7.6364-20.0046 13.49255-5.6219 5.87957-10.0491 12.95379-13.2817 21.19924-3.2561 8.24545-4.8723 17.52158-4.8723 27.75812 0 10.7753 1.6162 20.4028 4.8723 28.8825 3.2326 8.50312 7.6598 15.69446 13.2817 21.57403s12.2745 10.37709 20.0046 13.51598c7.7536 3.11547 15.9756 4.68491 24.713 4.68491 5.4812 0 10.3536-.37479 14.5935-1.12437 4.2398-.74959 8.0346-1.49918 11.4078-2.24877 3.373-.74959 6.5588-1.49916 9.5338-2.24875 2.9983-.74959 6.1137-1.12439 9.3697-1.12439 18.2009 0 26.3059 16.63145 24.3148 49.89435-10.2366 4.23984-21.6444 7.75353-34.2468 10.4942-12.6024 2.74068-25.2517 4.12273-37.9712 4.12273"/><path d="m1269.5327-111.22936c-5.2472 0-10.4239-.25768-15.5305-.74959-5.1066-.49192-9.4167-1.12437-12.907-1.87396v-217.21607c0-7.23819 2.2488-13.42229 6.7229-18.55226 4.4975-5.12998 12.9772-7.70669 25.4625-7.70669 5.2237 0 10.4005.25767 15.5305.77301 5.1066.49192 9.4166 1.12438 12.907 1.87397v217.19264c0 7.26161-2.2488 13.44571-6.7464 18.57569-4.4741 5.12997-12.9771 7.68326-25.439 7.68326"/><path d="m1371.8747-111.22936c-4.9894 0-9.8618-.25768-14.5935-.74959-4.7552-.49192-8.7373-1.12437-11.97-1.87396v-238.95407c3.7246-1.26493 8.5968-2.31904 14.5935-3.20918 5.9733-.86671 11.0799-1.31177 15.3432-1.31177 13.7033 0 23.6822 1.75684 29.9365 5.27053 6.231 3.49026 11.4547 8.62024 15.718 15.36652l84.9375 133.91828v-130.54515c0-3.23258.4216-6.3012 1.3117-9.18242.8667-2.88123 2.3659-5.43451 4.4741-7.68326 2.1317-2.24876 5.0597-4.00561 8.8077-5.24711 3.7245-1.26493 8.4797-1.89739 14.2187-1.89739 4.9894 0 9.7915.25767 14.406.77301 4.6147.49192 8.5267.98383 11.7827 1.47575v239.35229c-3.4903 1.75684-7.7301 2.92807-12.7196 3.56053-4.9895.63247-9.8617.93699-14.5935.93699-11.7357 0-20.4731-1.6163-26.1887-4.87232-5.7624-3.25602-10.4942-7.75353-14.2187-13.51597l-90.9342-145.5603v139.18882c0 7.00394-2.1316 12.8835-6.3715 17.6387-4.2398 4.75518-12.2276 7.12107-23.9399 7.12107"/><path d="m1637.6897-112.73322c-6.9806 0-12.6726-.74959-17.0297-2.24875-4.3569-1.49918-7.7301-3.56054-10.096-6.1841-2.3893-2.62355-4.0056-5.80929-4.8723-9.58064-.8667-3.74793-1.3117-7.73012-1.3117-11.99339v-183.81263c0-4.26327.445-8.26887 1.3117-12.0168s2.483-6.93368 4.8723-9.55722c2.3659-2.62355 5.7391-4.68492 10.096-6.18409 4.3571-1.49918 10.0491-2.24876 17.0297-2.24876h123.8457c.5154 2.74068 1.0073 6.48861 1.4992 11.24379.5154 4.7552.7496 9.6275.7496 14.61694 0 10.51764-2.1082 17.96664-6.3481 22.32361-4.2633 4.3804-9.6041 6.58231-16.0927 6.58231h-76.3407v42.74984h87.9359c.492 2.50644 1.0073 5.83272 1.4992 9.95545.4918 4.12273.7496 8.57339.7496 13.30515 0 10.0023-2.0146 16.81885-5.9967 20.44966-3.9822 3.63081-8.9716 5.43451-14.9683 5.43451h-69.2197v42.39846h100.2807c.4919 2.76411 1.0072 6.55889 1.4992 11.4312.4918 4.89573.7495 9.69777.7495 14.45297 0 10.75187-2.1317 18.24773-6.3714 22.51101-4.2399 4.23985-9.6041 6.37148-16.0694 6.37148z"/><path d="m1817.5647-111.22936c-5.739 0-10.7988-.5622-15.1557-1.68658-4.3805-1.12437-8.1752-2.43615-11.4078-3.93532l22.8624-233.70697c4.7552-2.01451 10.9861-3.63081 18.7163-4.87231 7.7301-1.26493 14.3357-1.89739 19.8171-1.89739 7.7301 0 14.4062.51534 20.0046 1.5226 5.6219.98383 10.424 2.6704 14.4062 5.0597 3.9821 2.36589 7.1678 5.69217 9.5338 9.93202 2.3659 4.26328 4.1696 9.51038 5.4344 15.76474l9.7213 45.3734c2.7406 12.50872 5.6687 26.32922 8.7841 41.46149 3.1155 15.13228 5.9264 30.70962 8.4095 46.7086h1.4992c2.7406-15.99898 5.5984-31.50604 8.5968-46.5212 2.9983-15.01515 6.1137-28.76538 9.3464-41.25068l11.9465-47.64557c2.9983-11.75913 7.7769-19.77035 14.3827-24.01019 6.6057-4.26327 16.8891-6.39491 30.8267-6.39491 6.9805 0 14.0079.58562 21.1056 1.71 7.0976 1.12437 13.024 2.2956 17.7558 3.56053l21.8785 235.20614c-3.4902 1.2415-7.6832 2.50643-12.5321 3.74794-4.8724 1.24149-10.1663 1.87396-15.9053 1.87396-7.9878 0-14.734-1.38205-20.2154-4.12273-5.4813-2.7641-8.4797-7.89408-8.9716-15.38994l-5.6219-81.02561c-1.2415-14.26556-2.2956-29.18701-3.1857-44.83463-.8667-15.62418-1.4289-30.42851-1.6866-44.45983h-.7496c-3.2326 13.02406-6.5355 27.0788-9.9086 42.21108-3.3731 15.13227-6.7931 29.06989-10.2834 41.83629l-15.3431 63.76168c-3.7479 15.01515-15.6007 22.51102-35.5585 22.51102-4.9895 0-10.0959-.49192-15.3431-1.49918-5.2236-.98383-9.7212-2.1082-13.4692-3.37314l-19.0676-79.52642c-3.7478-14.75748-7.2381-29.25729-10.4707-43.52285-3.2561-14.24214-6.2543-28.50772-8.995-42.74986h-1.1244c-.7496 20.00459-1.7335 38.32261-2.9983 54.95406-1.2415 16.63145-2.3659 30.94385-3.3498 42.93724l-5.9967 73.15494c-.4918 7.26161-3.2325 12.25105-8.2219 15.01515-5.013 2.74068-11.4781 4.12273-19.4659 4.12273"/><path d="m2170.6362-213.64394h55.9847l-27.922-91.8946zm-58.374 103.16183c-4.7318 0-10.1663-.44508-16.2567-1.31178-6.1372-.86671-11.1735-2.06136-15.1557-3.56054l77.6291-237.82969c6.7462-1.75684 13.5627-3.02177 20.4496-3.77135 6.8868-.74959 13.188-1.12438 18.9504-1.12438 8.2455 0 15.3197.63246 21.1993 1.87396 5.8795 1.26493 10.8222 3.13889 14.8277 5.64532 4.0057 2.50643 7.3085 5.8093 9.9321 9.93202 2.6235 4.12272 4.8254 8.94818 6.5823 14.45297l66.5258 210.44636c-4.2399 1.75685-9.3464 3.06862-15.3432 3.93533-5.9732.8667-11.8528 1.31178-17.5684 1.31178-6.512 0-12.7898-1.05411-18.9036-3.18574-6.1138-2.13164-10.541-6.93368-13.2817-14.45297l-12.743-38.62712h-81.6112l-10.7987 36.37836c-2.7407 8.76079-7.3553 14.26556-13.8439 16.51433-6.4887 2.24875-13.3521 3.37314-20.5902 3.37314"/></g><path d="m462.06425-195.94433c0 34.19988-22.37047 59.1939-67.79071 64.13648-32.8881 3.51369-80.53368-.63246-103.16183-3.23259-.84328-3.70108-1.49916-8.2923-1.49916-11.89968 0-29.93661 16.18637-36.75316 31.34208-36.75316 15.7413 0 40.5245 2.71726 58.98307 2.71726 20.26226 0 26.44634-6.88683 26.44634-13.42229 0-8.59681-8.17517-12.18078-23.91649-15.17912l-43.07779-8.2923c-35.86302-6.86339-55.0009-31.67002-55.0009-57.99924 0-31.99797 22.65157-58.77225 67.18168-63.71484 33.68453-3.63081 74.65411.46849 97.16512 3.23259.81987 3.86506 1.24151 7.51929 1.24151 11.52489 0 29.84291-15.71789 36.28466-30.89701 36.28466-11.64201 0-29.72578-2.17848-50.36284-2.17848-21.01183 0-29.72578 5.8093-29.72578 12.88351 0 7.47244 8.31573 10.56449 21.45691 12.86009l41.18041 7.63642c42.30477 7.80038 60.43539 31.834 60.43539 61.3958m73.90453 36.72973c0 18.34145-7.19134 28.92935-43.00752 28.92935-4.75518 0-8.90133-.35137-12.88352-.93698v-243.38132c0-18.48198 6.30122-37.76041 42.46876-37.76041 4.54436 0 9.159.46849 13.42228 1.35863zm146.40358 94.143363c4.68492 2.412731 14.33584 5.317378 26.4932 5.645322 20.75416.445066 32.11509-7.519288 40.5245-26.141824l111.59468-248.909521c-4.61465-2.48299-14.78091-5.22367-23.14349-5.41107-14.33583-.25767-33.59083 2.6704-45.91216 32.02139l-36.14411 85.28887-70.85934-115.41287c-4.56779-1.40548-15.71789-3.41999-23.91649-3.41999-24.99402 0-39.00192 9.22928-53.50172 24.9706l-68.89168 75.35685 55.42254 87.20969c10.23655 15.88186 23.7291 23.98676 45.6545 23.98676 14.33583 0 26.25894-3.25602 31.78715-5.90299l-66.71319-100.60855 47.29421-50.10516 77.55876 121.73751z" fill="#ae2c3f"/><g clip-path="url(#a)" opacity=".399994" transform="matrix(36.651188 0 0 -23.424573 -14903.813 12049.998)"><g><g><g clip-path="url(#b)"><g transform="translate(504.1664 519.8869)"><path d="m-5.9463958 0c1.156-1.145 1.313-2.225 1.354-2.463.114 0 .156.506.156 1.261l-.004 12.109c0 1.402-.456 1.876-1.644 1.876-.402 0-.804-.216-1.339-.216h-81.3636042c-.536 0-.938.216-1.34.216-1.187 0-1.643-.474-1.643-1.876l-.004-12.109c0-.755.041-1.261.155-1.261.041.238.076 1.402 1.354 2.463 10.208 7.878 73.312604 10.296 84.3186042 0" fill="#fff"/></g></g></g></g></g><path d="m2402.8667-123.58571c3.2088-61.75196 1.6142-236.5793-2.3837-261.34832l-.7912-4.90169-.7977 7.96873c-2.8611 28.58572-3.7227 61.8562-3.6909 142.50002.032 79.40912.8657 113.26415 3.6964 149.999985l.8308 10.781271.7889-7.500007c.4336-4.125 1.4902-20.999989 2.3474-37.499989z" fill="#fff" stroke-width="1.127334"/><g fill="#fff" transform="matrix(.51045953 0 0 .61472752 2466.1187 -416.78479)"><path d="m868.05 7.9999944c5.4 43.0599996 11.20472 86.0599996 16.72504 129.0999956 3.84968 28.28 7.66976 56.6 9.9 85.05-9.25032-4.87-17.93992-11.465-28.35008-13.625-.1 4.91.85504 9.745 1.62504 14.575 6.8 40.15 13.24 80.39 18 120.85.63 5.72 1.64 11.42 1.75 17.2-1.12-.42-2.32-.7-3.1-1.65-5.86-6.03-11.51-12.26-17.4-18.25 11.37 70.47 23.59 140.84 34.75 211.35 2.82 10.61 3.25 21.64 5.55 32.35 1.97-6.84 2.14-14.04 3.25-21.05 4.03-43.24 6.4-86.625 9.7-129.925 3.69 7.7 7.76 15.2 11.65 22.8 2.52 4.58 4.55 9.44 7.55 13.75.89.16 1.79.32 2.7.5.0704-19.34.26-38.67.25-58 .46-11.02-.41-22.06.6-33.05.04-21.38.06-42.745.35-64.125 7.19 14.39 14.23512 28.83 21.47496 43.2 1.1-1.46 3.19976-2.69 2.75008-4.8-2.24032-36.76-4.90984-73.51-6.65008-110.3-.81976-7.39-.64968-14.855-.9-22.275 1.72032.63 2.55032 2.335 3.5 3.775 8.91016 14.42 17.88504 28.8 26.57504 43.35 1.24 1.89 3.87 1.34 5.8 1.35 9.98-.95 19.6851-3.785 29.125-7.075 14.1302-5.12 28.175-11.835 38.625-22.925 7.46 1.45 14.78 3.97 21.75 7.05.16 24.58-.2753 49.17-.125 73.75.5698 13.82-1.1098 27.99 2.85 41.45 3.0302 9.64 10.985 16.455 18.175 23.075 12.81 11.22 26.2447 21.705 39.675 32.175 5.8197 4.71 13.8098 3.975 20.8 3.575 8.3698-.63 15.7899-4.805 23.3-8.175 7.0697-3.26 14.015-6.82 20.825-10.6 9.05-5 16.8-12.38 22.1-21.25 3.36-5.44 4.1552-11.905 5.225-18.075 2-13.26 2.915-26.665 2.825-40.075.47-24.2-3.7-48.155-6-72.175l-.475-.75c-.1601-4.74-1.045-9.41-1.675-14.1-.95-6.28-1.62-12.74-4.35-18.55-2.48-5.54-6.39-10.33-10.8-14.45-11.73-10.84-24.5149-20.72-38.725-28.1-6.0097-3.44-12.965-.41-18.825 1.8-20.46 8.67-39.3652 20.555-58.025 32.525-4.3902 2.64-8.0798 6.725-9.35 11.775-1.0797 4.26-3.2597 8.11-5.8 11.65-6.8899-.69-13.125-3.915-19.725-5.775 2.56-33.68 6.09-67.275 8.5-100.975.35-6.4 1.9649-13.235-.825-19.325-2.9703-7.119996-8.215-12.894996-12.875-18.924996-17.25-21.17-34.3948-42.435-52.275-63.075-3.8098-.56-7.555.38-11.075 1.75-11.6 4.2-23.14 8.635-34.85 12.525-1.65.57-3.4.76-5.1 1-1.73-10.09.62-20.255.8-30.3749996-16.59-.2-33.22496.7649996-49.82496-.125-11.74032-.73-23.49976-.895-35.25008-1.375zm125.9 43.2499996c1.56184-.03938 3.08496.4675 4.45 1.3.95 1.7 1.29504 3.62 1.47504 5.55 5.23996 28.35 6.87496 57.159996 8.47496 85.899996.47 6.61-.12 13.325.8 19.875.32 13.78.44 27.555.25 41.325-3.11.56-6.26.22-9.35-.2-9.04-.9-18.10496.47-26.97496 2.05-4.56008.51-9.06504 1.385-13.62504 1.825-1.07-39.3-.46504-78.625-.87496-117.924996.02-8.98-.0352-17.945.0248-26.925-.02-2.25.7-5.26 3.35-5.65 9.96-3.01 20.30504-4.53 30.42504-6.9.52-.1425 1.05432-.211875 1.57496-.225zm180.7 140.649996c1.33 4.75.12 9.71-1.4 14.25-3.34 7.31-9.28 13.01-15.7 17.65-5.73 4.41-13.4849 4.96-18.825 10-.7298-1.15-1.045-2.385-.975-3.725.02-4.39-.31-8.845.85-13.125 11.52-9.03 23.91-16.89 36.05-25.05zm-202.75 28.4c3.33.16 6.74-.04 10 .85 8.92.72 17.7552 2.32 26.425 4.55l.875 2.175c.04.83.095 1.66.175 2.5-3.3302 5.4-7.365 10.295-11.325 15.225-3.78 1.38-5.71488-2.56-8.02504-4.65-6.16976-6.77-12.30496-13.59-18.12496-20.65zm206.375 17.85c2.7599 20.56 5.5099 41.135 7.1 61.825.5999 7.33.045 14.715.875 22.025.46 6.03-.63 12.02-.45 18.05-.12 11.71-1.2351 23.38-2.625 35-.9701 6.05-1.515 12.31-3.975 18-5.64 3.24-11.25 6.595-17.4 8.775-1.51.68-3.1749.755-4.775.625-4.3099-4.43-9.2201-8.565-12.25-14.025-2.02-22.11-3.8799-44.305-4.65-66.525-.9199-6.92-.555-13.94-.825-20.9-1.21-17.46-.725-35-.875-52.5 2.57-1.15 5.14-2.305 7.8-3.275 4.81-2.26 9.825-4.045 14.575-6.475 5.8-.52 11.645-.53 17.475-.6z"/><path d="m640.57 58.809994c2.51-.65 5.81.07 6.95 2.64.95 13.1.56 26.33 1.57 39.419996.14.68.43 2.05.57 2.74 1.13-.11 2.35-.1 3.29-.88 6.75-4.629996 13.37-9.449996 20.26-13.869996 3.28-2 6.58-4.17 10.33-5.18 3.5-.51 6.08 2.48 7.84 5.1 5.1 7.56 8.97 15.869996 12.86 24.109996 4.38 10.15 9.52 20.14 12 30.98 1.28 4.19-3.03 6.6-5.79 8.71-13.88 9.72-28.18 18.88-42.98 27.16-3.41 2.17-5.11-3.11-7.43-4.75 2.87-3.43 5.88-6.76 8.97-10.01 1.22-1.1.43-2.87.17-4.23-3.63-11.52-6.71-23.21-10.38-34.71-.1-.61-.3-1.82-.4-2.43-3.23-.82-6.56-.3-9.5 1.2-.27.51-.81 1.53-1.08 2.04-.69 18.37.08 36.75-.05 55.13-.08 22.68.13 45.36.1 68.04.77 6.3.32 12.65.43 18.98.08 16.4.19 32.8.43 49.2 2.89 7.22 9.93 11.4 14.39 17.37-4.09.21-8.15-.22-12.17-.84-5.98-.1-12.02-.55-17.94-.6-9.62-.92-19.37-.27-28.91 1.02-4.3.54-8.7.08-12.95.99-5.56.01-11.48 1.06-16.7-1.37-2.72-1.24-5.46-2.47-8.27-3.5.14-.33.41-.98.55-1.31 5.03-2.92 9.39-6.84 13.58-10.83 3.69-3.74 7.46-7.9 8.49-13.23 3.08-14.75 3.44-29.86 4.4-44.84.13-43.7.72-87.39 1.23-131.07-.14-1.65.36-3.5-.49-5 1.42-3.72.3-8.07.65-12.04-2.49.73-4.96 1.5-7.41 2.32-1.13.04-2.26.08-3.37.12-.52-.85-1.08-1.69-1.58-2.53 1.69-2.2 3.94-3.83 6-5.66 14.77-14.529996 29.5-29.109996 44.21-43.699996 2.09-2.46 5.04-3.94 8.13-4.69z"/><path d="m201.49 68.589994c8.51.8 16.99 2.39 25.59 2.22 14 .71 28.06.83 42.05-.25 11.17-.43 22.28-2.37 33.46-2.09-.53 3.58-4.04 5.26-5.71 8.19-4.91 8.26-8.86 17.19-11.04 26.559996-.92 6.88-1.31 13.83-1.33 20.77-.37 36.95-.13 73.91.34 110.86-.39 1.72 1.47 2.41 2.82 1.77 21.31-5.31 43.37-6.95 65.28-6.3 7.88.34 16.08-.31 23.67 2.14-.15.86-.29 1.72-.43 2.58-2.38.87-4.86 1.68-6.78 3.4-6.01 4.97-11.49 10.55-17.14 15.92-1.42 1.55-3.77 3.09-3.05 5.54 2.18 12.21 2.7 24.66 5.09 36.83 4.66 16.97 10.16 33.71 14.49 50.79 1.81 0 3.49-.66 4.72-2.02 2.64-2.71 5.81-4.83 8.61-7.36 1.04-11.01 1.43-22.1 1.71-33.16.75-7.63.48-15.29.72-22.94.29-40.19-.49-80.48-5.34-120.42-2.23.53-4.49 1.03-6.55 2.05-10.55 4.77-20.87 10.08-30.69 16.21-2.65 1.55-5.13 3.72-6.1 6.73-2.23 6.96-1.6 14.41-1.22 21.6-1.61.51-3.21 1.03-4.81 1.55-8.39-13.51-17.09-26.98-23.03-41.8-1.7-5.08-4.35-10.24-3.34-15.75 4.09-1.95 7.42-5.08 11.15-7.59 14.91-10.55 30.63-20.16 47.55-27.13 2.3-.78 5.53-2.39 7.43-.03 15.67 15.7 30.84 31.9 45.86 48.22 8.09 9.04 16.95 18.46 19.38 30.79 2.3 14.4 2.64 29 2.7 43.55-.13 16.65.42 33.33-.78 49.95-.09 12.78-.46 25.55-.47 38.33 5.74 2.61 12.39 2.85 18.44 1.25-.26 1.84-1.68 3.1-2.96 4.3-8.37 7.63-16.86 15.14-25.42 22.55-5.84 4.9-8.75 12.34-14.56 17.27-6.2 5.46-15.5 5.93-23.07 3.5-7.75-4.02-7.73-13.74-8.36-21.29-10.11 7.27-20.02 14.83-29.9 22.41-4.66 3.6-10.83 1.56-16.02.56-3.79-1.05-8.64-2.54-9.68-6.88-4.39-13.28-8.7-26.59-13.11-39.86-4.77-14.92-10.37-29.64-13.58-45.01-1.37-4.93 1.07-9.76 3.52-13.89 6.61-10.65 16.09-19.03 25.08-27.59-13.99 2.67-28.55 4.9-41.04 12.17-.11 34.4.31 68.79.2 103.19.67 14.68-.03 29.38.46 44.06.03 17.3.13 34.6.58 51.89 1.03 13.49 3.2 28.18 12.56 38.64 3.37 4.18 8.84 5.58 12.59 9.28-.49 1.57-1.15 3.07-1.93 4.52-1.69.01-3.37.11-5.04-.11-18.57-3.01-37.3-5.18-56.1-5.93-17.7-.13-35.48-.8-53.09 1.33-.88-2.89-3.81-5.16-3.6-8.28 9.81-5.49 19.26-13.12 23.12-24.07 4.9-13.89 5.54-28.78 6.75-43.32 1.25-26.33 1.64-52.71.89-79.06-.67-17.65-.52-35.38-2.74-52.93-18.41 14.41-41.2 21.68-63.73 26.68.19 36.63.69 73.26.94 109.89.37 7.69-.36 15.44.55 23.1 2.24 8.4 10.5 12.71 17.39 16.85 1.58 1.05 4.13 3.31 2.71 5.23-2.87.36-5.51-1.03-8.24-1.62-8.77-1.89-17.74-2.47-26.65-3.26-29.64-1.99-59.37-2.49-89.07-2.65-1.06-.32-3.99-1.34-1.8-2.32.08-.86.24-2.56.32-3.42 10.59-4.18 21.24-10.26 27.12-20.39 3.59-6.05 3.68-13.25 4.29-20.04.83-13.34.59-26.72 1.11-40.08.02-18.49-.38-36.98-.65-55.47-14.05-6.51-28.12-13.01-41.82-20.24-9.55-4.71-16.32-13.37-22.12-22.03-4.87-7.65-9.23-15.67-12.6399998-24.09v-2.05c15.2799998-6.93 32.1099998-9.33 48.5899998-11.59.01 1.63.48 3.78-1.26 4.72-10.27 6.15-21.12 11.34-31.13 17.95 3.36 3.93 7.55 6.99 11.74 9.96 11.58 8.02 24.12 14.55 36.8 20.64 3.46 1.55 6.87 3.65 10.78 3.69.62-6.47.22-12.99.29-19.48-.45-13.3-.1-26.64-1.1-39.92-.33-10.02.01-20.07-.9-30.05-.81-33.38-2.3-66.74-3.54-100.09-2.04-10.46-11.21-17.589996-20.85-20.839996.17-1.99 1.36-3.99 3.42-4.44 3.38-.31 6.79.05 10.17.27 4.64.68 9.33.25 14 .35 6.98-.09 13.99.32 20.95-.46 10.66-.21 21.33-.26 32-.52 9.12-.71 18.28-.84 27.43-.88-.32 1.97-.65 3.93-.97 5.89-5.67 2.9-9.26 8.649996-10.77 14.689996-1.1 6.27-.95 12.67-1.03 19.02 0 16.67-.04 33.34.56 49.99.35 14 .12 28.03 1.06 42.01.18 10.68.23 21.37.63 32.05.81 13.61.82 27.28 1.83 40.9 6.58-.91 12.5-4.22 18.37-7.12 15.92-8.78 31.43-18.53 45.54-30.03.15-56.66-1.42-113.36-5.91-169.829996-.21-5.91-4.93-10.15-9.91-12.53-2.78-1.12-3.63-4.1-3.3-6.85z"/><path d="m1314.84 67.429994c3.04-.58 3.78 2.7 3.68 5.03.11 13.86.68 27.709996.84 41.569996.46 8.15-.31 16.41.87 24.48 9.68-.11 19.36.33 29.05.29.2 1.76.37 3.53.6 5.29.83 2.89.37 5.96 1.24 8.84.33 3.13.63 6.28.81 9.43-9.31.2-18.62.36-27.93.44-1.29-.09-2.5.28-3.65.73-1.75 28.13-.31 56.32-.89 84.48-.5 24.37-1.66 48.72-2.33 73.09-.82 3.58-.34 7.3-.6 10.94-1.06 27.64-2.56 55.3-3.51 82.95-.41 7.04-1.91 15.16 2.7 21.21 7.47 7.56 16.11 13.93 24.98 19.76-1.84 2.08-3.51 4.43-5.81 6-1.8.01-3.34-1.13-4.92-1.75-18.27-9.07-36.73-17.81-54.34-28.14-4.48-2.63-8.87-5.73-11.7-10.17-2.78-4.08-3.57-9.11-3.61-13.94.34-26 .68-52 1.74-77.98.86-25.71 3.71-51.28 4.22-77 .51-26.63.26-53.39-2.44-79.87-.21-3.87-.73-7.7-1.54-11.48-14.2.06-28.39-.2-42.58-.2-.18-2.5-.28-5-.09-7.5 17.21-9.59 33.04-21.58 47.89-34.51 14.52-12.86 27.66-27.269996 39.2-42.859996 2.47-3.24 4.84-6.63 8.12-9.13z"/><path d="m492.65 85.889994c2.27-1.25 4.43-3.43 7.21-3.18 4.08.67 7.74 2.7 11.59 4.08 2.15 9.82 2.13 20.089996 3.69 30.019996.12 1.16.24 2.33.36 3.5.36.27 1.06.8 1.42 1.07 5.32-4.28 11.23-7.76 16.98-11.43 5.31-3.32 11.52-6.23 17.94-5.24 4.06.98 6.23 4.96 8.18 8.29 4.38 8.87 8.17 18.03 11.8 27.23 4.11 9.99 8.52 20.02 10.51 30.68-.24 3.39-1.84 6.53-4.8 8.32-13.08 8.5-26.48 16.51-39.88 24.49-1.5.83-2.95 1.99-4.75 1.85-.97-1.71-2.2-3.24-3.58-4.61 3.25-3.21 6.25-6.66 9.27-10.07-.2-.14-.62-.43-.82-.57-.86-5.16-2.56-10.13-3.91-15.18-3.07-11.13-6.43-22.18-9.58-33.28-.66-3.08-4.34-6.67-7.28-3.86-.83 3.23-.3 6.61-.28 9.9.72 22.73 1.66 45.44 2.12 68.17 1.15 7.87.03 15.96 1.31 23.84.91 14.75 2.89 29.42 3.73 44.18 2.03 17.98 1.93 36.23 4.79 54.14 1.83 4.99 7.09 7.42 11.5 9.7.29.48.86 1.45 1.14 1.94-.17.58-.53 1.76-.71 2.34-27.86.68-55.74.55-83.62.58-2.96 0-5.94.15-8.88-.34 1.54-3.82 4.21-7.22 7.79-9.3 3.61-2.03 7.25-4.18 10.13-7.19 1.05-1.04 1.47-2.47 1.35-3.91.02-28.35-.03-56.69-.09-85.03.31-4.02-.71-7.97-.54-11.99.02-21.36-.29-42.73-.48-64.09-1.15-12.47-.12-25.09-1.81-37.53-10.15-.01-20.38-.49-30.47.79-1.78-.48-4.49-1.54-4.67-3.64 20.95-15.1 41.86-30.31 63.34-44.669996z"/><path d="m1403.23 95.199994c1.36-2.69 2.83-5.58 5.73-6.92.65.36 1.96 1.08 2.61 1.44 1.03 8.43.84 16.929996 1.31 25.389996.75 3.25.34 6.61.57 9.92.67 16.41 1.7 32.8 2.3 49.22 4.74-.11 9.51.12 14.25-.3 3.34.64 6.67-.33 10.03-.27 5.24.06 10.49.01 15.73-.18-.32 6.59.14 13.31-1.15 19.81-12.64.51-25.3 1.09-37.9 2.21.14 14.86-.09 29.72.13 44.57.66 2.23.37 4.57.42 6.86-.06 24.67.4 49.35.48 74.02.96 11.3.42 22.67.8 34.01.35 20.64.92 41.25 1.28 61.91.7 11.19.32 22.45 1.52 33.61 10.62 5.44 21.06 11.22 31.66 16.69 2.87 1.13 5.66 4.17 8.89 3.22 7.14-4.85 13.5-10.77 20.07-16.34 1.65-1.03.59-3 .21-4.42-10.84-3.34-22.13-4.78-33.17-7.25-3.83-1.05-8.96-.75-11.02-4.83 7.16-1.93 14.67-.83 21.99-.57 16.98.88 33.96 1.96 50.93 3.02 1.79.34 4.6.37 4.68 2.92.4 3.32-2.84 4.82-4.81 6.78-7.87 7.19-14.87 15.25-22.31 22.87-4.47 4.52-7.4 10.52-12.89 13.99-1.9 1.62-4.61 1.39-6.82.73-18.04-5.58-35.95-11.62-53.52-18.52-16.16-6.46-32.66-12.95-46.74-23.39-1.89-1.78-4.49-3.5-4.63-6.34-1.55-26.68-1.15-53.4-1.19-80.12.08-10.34.33-20.67.66-31 .13-44.45-1-88.88-1.92-133.32-7.16.36-14.35.35-21.48-.27-3.12-.12-4.64-3.96-3.44-6.52.9-1.53 2.1-2.85 3.35-4.12 13.95-14.1 27.04-29.13 38.25-45.54 9.62-13.55 17.69-28.13 25.14-42.969996z"/><path d="m1651.03 134.93999c2.8-2.1 5.8.6 6.24 3.5 1.66 8.78 1.57 17.79 3.05 26.6 10.41-6.25 20.9-12.37 31.19-18.83 2.28-1.39 4.1-3.74 6.92-4.08 1.88-.35 4.5-.25 5.6 1.63 4.66 6.51 8.61 13.51 12.79 20.34 6.46 11.31 13.07 22.61 17.82 34.77 1.68 3.97 1.95 8.47 1.15 12.68-3.02 6.13-9.04 9.84-13.95 14.31-14.09 11.39-28.37 22.55-42.72 33.61-1.34-2.06-3.2-3.68-4.96-5.33 3.86-5.93 8.42-11.39 12.47-17.19.3-1.35-.16-2.69-.51-3.97-3.51-10.92-6.78-21.92-10.28-32.85-1.74-5.57-3.43-11.14-5.22-16.68-3.69 2.56-7.39 5.13-11.21 7.5.44 30.05 1.96 60.07 2.43 90.13 1.05 10.28.43 20.72 1.02 31.06 1.02 8.89.19 17.95 1.16 26.86.51 22.75 1.71 45.47 2.79 68.19.98 7.86 6.94 13.88 13.45 17.77 8.22 4.92 17.49 7.83 26.78 9.97 1.6.43 3.23.71 4.88 1.17 3.87.51 7.72 1.31 11.64 1.7-.05 2.2-.15 4.4-.23 6.6-8.45.48-16.91-.1-25.35.04-3.64-.23-7.32.18-10.88-.55-11.46.03-22.89-1.27-34.02-3.97-11.14-2.46-22.14-5.5-33.04-8.84-13.74-4.04-28.11-7.05-42.48-5.33-.95-2.21-1.94-4.41-2.56-6.72 12.01-1.06 20.33-11.28 26.62-20.61 4.89-10.04 4.88-21.54 5.11-32.46.33-31.36-.42-62.71-.62-94.07-.88-8.23-.3-16.62-.65-24.91.08-17.3-1.19-34.54-.89-51.84-4.97-.28-9.91.68-14.87.48-.1-1.21-.18-2.43-.24-3.64 2.16-3.27 4.01-6.83 7.01-9.44 18.39-15.62 36.28-31.84 54.56-47.6z"/><path d="m1519.175 159.22499c-2.6795.0758-5.3563.39375-7.9 1.075-19.11 14.91-37.605 30.66-56.825 45.4-2.05 9.59-2.25 19.525-3.55 29.225-.11 6.44-2.61 12.585-2.55 19.025 1.13 26.31.865 52.63 1.225 78.95-.1 6.44-2.175 12.63-2.425 19.05 3.74 3.89 7.19 8.06 10.9 12 13.32 13.7 26.675 27.62 42.475 38.5 2.46 1.91 5.645 2.275 8.625 2.825 7.6.7 15.27 1.585 22.9.425 3.7.23 6.49-2.585 8.55-5.325 6.94-10.2 14.8-19.735 22.3-29.525 4-5.61 8.95-10.625 11.95-16.875-6.58-9.49-11.56-20.29-19.6-28.65-.91.08-2.74.255-3.65.325-.68 6.25-2.15 12.345-3.5 18.475-3.89 15.94-8.125 31.95-15.275 46.8-.81 1.49-1.675 4.49-3.875 3-11.06-6.22-19.21-17.535-22.05-29.875-1.72-10.27-1.155-20.75-2.025-31.1-.28-12.98-.515-25.96-.525-38.95-.09-1.68.15-3.48-.7-5 .98-1.54.58-3.335.2-4.975.46-7.04-1.705-14.705 1.975-21.275 10.59-.12 20.795 3.04 31.025 5.4 6.13 1.49 12.23 3.095 18.35 4.675 1.29.39 2.575.68 3.925 1 4.44 1.18 8.915 2.24 13.375 3.4 1.61.36 3.745.845 4.925-.725 8.89-8.28 14.37-19.42 19.95-30-1.92-6.64-4.855-13.04-7.125-19.6-3.39-8.95-6.82-17.885-10.1-26.875-2.11-5.1-3.6-10.465-5.9-15.475-6.79-4.28-14.09-7.79-21.1-11.75-2.63-1.37-5.27-2.72-7.9-4.05-6.95-3.43-13.795-7.285-21.275-9.425-1.5863-.0937-3.1923-.14547-4.8-.1zm-1.75 17.525c1.8802.0446 3.5194.99375 3.9 3.225 3.89 10 7.84 19.955 11.8 29.925 5.12 12.61 9.77 25.43 15.2 37.9-.03.85-.035 1.7-.025 2.55-6.1.31-12.18-.84-18.2-1.5-8.64-.5-17.23-1.73-25.85-2.45.03-10.2 1.12-20.345 1.5-30.525 1.24-11.95.32-24.565 5.45-35.725 1.0012-2.04187 3.8076-3.45728 6.2249-3.4z"/><path d="m772.27 179.64999c8.47 1.67 17.2.56 25.76 1.56 7.67.15 15.28.98 22.87 1.94 4.27.15 8.61.36 12.82-.64-.1.84-.19 1.69-.28 2.53-3.63 5.92-7.11 12-9.73 18.45-9.28 20.04-20.13 39.28-30.89 58.56-9.68 17.08-18.29 34.75-27.82 51.92-25.14 45.17-52.55 89.21-83.96 130.31-17.09.33-34.16-1.14-51.12-3.16-16.1-2.51-32.14-5.68-47.79-10.27-5.4-1.45-10.71-3.24-16-5.03-3.69-1.33-7.42-2.54-11.05-4.02-3.79-1.44-7.5-3.05-11.21-4.64-6.63-2.89-13.1-6.11-19.45-9.54-.45-3.72 2.3-6.99 3.89-10.18 6.7-10.54 15.58-19.43 24.6-27.96 13.04.88 26.04 2.44 39.06 3.52 3.23.94 7.04-.41 9.89 1.71-.31 1.85-2.25 2.02-3.63 2.54-10.74 2.96-21.54 5.68-32.23 8.82-2.26.42-2.56 3.03-3.46 4.75-1.73 4.72-4.07 9.42-4.2 14.55 7.7 3.68 16.41 4.21 24.71 5.68 27.3 3.7 55.03 5.39 82.49 2.6 9.96-16.33 20.36-32.4 30.5-48.63 3.02-4.42 5.52-9.19 8.88-13.37 1.54-1.92.63-4.61.23-6.79-7.01-24.7-14.75-49.19-22.36-73.71-3.3-10.35-6.58-20.71-9.95-31.03-1.73-4.98-3.26-10.04-5.02-15.01-1.87-5.07-3.36-10.3-5.73-15.17-2.89-3.58-7.92-4.32-12.23-4.76.39-1.34 1.04-2.58 1.89-3.69 3.45-.04 6.89-.15 10.34-.35 10.92-1.08 21.99-.52 32.95-1.28 14.24.2 28.42-1.8 42.61-2.26-2.76 5.98-10.96 5.26-14.53 10.46-1.8 2.01-2.03 4.87-1.31 7.38 5.55 21.22 11.12 42.45 17.12 63.55.87 2.38 1.08 5.21 3.15 6.94 10.07-15.76 18.8-32.33 28.03-48.6 3.7-6.81 7.46-13.59 10.89-20.54 1.66-3.37 1.81-7.2 3.13-10.68 1.25-4.05 2.59-8.08 4.02-12.07.68-1.74 1.4-3.48 2.09-5.22-6.92-.66-12.81-4.83-17.97-9.17z"/><path d="m901.94 552.59999c2.82 10.61 3.25 21.65 5.55 32.36 1.97-6.84 2.14-14.05 3.25-21.06-.29 7.4-.69 14.83-2.24 22.1h-2.37l.58-.66c-.91-11-4.26-21.68-4.77-32.74z"/></g></g></svg>