<?xml version="1.0" encoding="UTF-8" standalone="no"?>
<svg
   xmlns:dc="http://purl.org/dc/elements/1.1/"
   xmlns:cc="http://creativecommons.org/ns#"
   xmlns:rdf="http://www.w3.org/1999/02/22-rdf-syntax-ns#"
   xmlns:svg="http://www.w3.org/2000/svg"
   xmlns="http://www.w3.org/2000/svg"
   xmlns:sodipodi="http://sodipodi.sourceforge.net/DTD/sodipodi-0.dtd"
   xmlns:inkscape="http://www.inkscape.org/namespaces/inkscape"
   height="474.00003"
   width="3399.2261"
   version="1.1"
   viewBox="0 0 899.37857 125.41159"
   id="svg2"
   inkscape:version="0.91 r13725"
   sodipodi:docname="Sky Atlantic +1.svg">
  <metadata
     id="metadata80">
    <rdf:RDF>
      <cc:Work
         rdf:about="">
        <dc:format>image/svg+xml</dc:format>
        <dc:type
           rdf:resource="http://purl.org/dc/dcmitype/StillImage" />
        <dc:title></dc:title>
      </cc:Work>
    </rdf:RDF>
  </metadata>
  <sodipodi:namedview
     pagecolor="#ffffff"
     bordercolor="#666666"
     borderopacity="1"
     objecttolerance="10"
     gridtolerance="10"
     guidetolerance="10"
     inkscape:pageopacity="0"
     inkscape:pageshadow="2"
     inkscape:window-width="1920"
     inkscape:window-height="1017"
     id="namedview78"
     showgrid="false"
     fit-margin-top="0"
     fit-margin-left="0"
     fit-margin-right="0"
     fit-margin-bottom="0"
     inkscape:zoom="0.24"
     inkscape:cx="1812.873"
     inkscape:cy="336.53004"
     inkscape:window-x="-8"
     inkscape:window-y="-8"
     inkscape:window-maximized="1"
     inkscape:current-layer="svg2" />
  <defs
     id="defs4">
    <linearGradient
       id="c"
       gradientUnits="userSpaceOnUse"
       gradientTransform="matrix(0,119.98463,102.7997,0,537.03902,3.0824104)"
       x1="0"
       x2="1"
       y1="0"
       y2="0">
      <stop
         stop-color="#b4b2b1"
         offset="0"
         id="stop7" />
      <stop
         stop-color="#e8e8e9"
         offset=".020448"
         id="stop9" />
      <stop
         stop-color="#f9f9fa"
         offset=".052404"
         id="stop11" />
      <stop
         stop-color="#f5f5f5"
         offset=".48766"
         id="stop13" />
      <stop
         stop-color="#f9f9fa"
         offset=".89549"
         id="stop15" />
      <stop
         stop-color="#f4f3f4"
         offset=".92944"
         id="stop17" />
      <stop
         stop-color="#e8e8e9"
         offset=".96426"
         id="stop19" />
      <stop
         stop-color="#b4b2b1"
         offset="1"
         id="stop21" />
    </linearGradient>
    <linearGradient
       id="b"
       gradientUnits="userSpaceOnUse"
       gradientTransform="matrix(0,119.98463,103.0582,0,480.41758,3.0824104)"
       x1="0"
       x2="1"
       y1="0"
       y2="0">
      <stop
         stop-color="#888685"
         offset="0"
         id="stop24" />
      <stop
         stop-color="#d9d9da"
         offset=".020448"
         id="stop26" />
      <stop
         stop-color="#f5f5f6"
         offset=".052404"
         id="stop28" />
      <stop
         stop-color="#eeefef"
         offset=".48766"
         id="stop30" />
      <stop
         stop-color="#f5f5f6"
         offset=".89549"
         id="stop32" />
      <stop
         stop-color="#ebebec"
         offset=".92944"
         id="stop34" />
      <stop
         stop-color="#d9d9da"
         offset=".96426"
         id="stop36" />
      <stop
         stop-color="#888685"
         offset="1"
         id="stop38" />
    </linearGradient>
  </defs>
  <path
     d="m 15.473303,4.1283304 c -8.0016205,0 -10.8364703,5.464481 -10.8364703,14.6468586 l 0,88.745291 c 1.131e-4,9.12218 2.8348498,14.64159 10.8364703,14.64159 l 868.445117,0 c 7.97669,0 10.80535,-5.51941 10.80535,-14.64159 l 0,-88.745291 c 0,-9.1807966 -2.82866,-14.6455386 -10.80535,-14.6455386 -287.84111,2.6e-4 -573.92846,2.6e-4 -868.445117,2.6e-4 z"
     id="path40"
     style="fill:url(#b);stroke-width:3.3348999"
     inkscape:connector-curvature="0" />
  <g
     id="g42"
     style="stroke-width:0.88235003"
     transform="matrix(6.58641,0,0,6.58641,0,0.00234036)">
    <path
       d="m 112.99,0.63529 -79.31,0 0,17.912 79.31002,0 z"
       id="path44"
       inkscape:connector-curvature="0"
       style="fill:#003761"
       sodipodi:nodetypes="ccccc" />
    <path
       d="m 40.613,10.535 2.512,0 -1.253,-4.1115 -1.259,4.1115 m -2.62,4.615 c -0.212,0 -0.456,-0.018 -0.729,-0.053 C 36.99,15.053 36.761,15 36.583,14.938 l 3.485,-10.65 c 0.302,-0.0792 0.608,-0.1321 0.917,-0.1674 0.308,-0.0353 0.591,-0.053 0.849,-0.053 0.371,0 0.688,0.0265 0.952,0.0883 0.264,0.0529 0.486,0.1412 0.665,0.2559 0.18,0.1058 0.329,0.2558 0.445,0.4411 0.119,0.1853 0.216,0.3971 0.296,0.6442 l 2.987,9.4239 c -0.191,0.07 -0.42,0.132 -0.689,0.176 -0.27,0.035 -0.533,0.053 -0.789,0.053 -0.292,0 -0.575,-0.044 -0.848,-0.141 -0.274,-0.097 -0.474,-0.309 -0.598,-0.644 l -0.571,-1.73 -3.66,0 -0.486,1.633 c -0.123,0.388 -0.33,0.635 -0.621,0.732 -0.291,0.106 -0.599,0.15 -0.924,0.15"
       id="path46"
       inkscape:connector-curvature="0"
       style="fill:#ffffff" />
    <path
       d="m 12.106,11.303 c 0,1.535 -1.003,2.656 -3.0407,2.876 C 7.59,14.338 5.4547,14.153 4.4409,14.038 4.4038,13.871 4.3738,13.668 4.3738,13.509 c 0,-1.35 0.7262,-1.65 1.4038,-1.65 0.7059,0 1.8186,0.115 2.6453,0.115 0.9089,0 1.1859,-0.3 1.1859,-0.6 0,-0.38 -0.367,-0.539 -1.0729,-0.68 L 6.6044,10.324 C 4.9968,10.015 4.1382,8.9029 4.1382,7.7206 c 0,-1.4294 1.0165,-2.6294 3.0142,-2.85 1.5088,-0.1677 3.3466,0.0176 4.3546,0.1412 0.038,0.1764 0.057,0.3353 0.057,0.5205 0,1.3324 -0.706,1.6236 -1.386,1.6236 -0.5215,0 -1.3324,-0.0971 -2.2589,-0.0971 -0.9415,0 -1.3323,0.2559 -1.3323,0.5735 0,0.3353 0.3732,0.4765 0.9617,0.5824 l 1.8486,0.3441 c 1.8949,0.3441 2.7089,1.4206 2.7089,2.7442 m 3.313,1.65 c 0,0.821 -0.323,1.297 -1.927,1.297 -0.214,0 -0.401,-0.018 -0.577,-0.035 l 0,-10.915 c 0,-0.8294 0.281,-1.6941 1.903,-1.6941 0.205,0 0.411,0.0176 0.601,0.0617 l 0,11.285 m 6.567,4.226 c 0.21,0.106 0.642,0.239 1.185,0.247 0.932,0.027 1.442,-0.335 1.819,-1.173 L 29.993,5.0996 C 29.786,4.9849 29.33,4.8614 28.956,4.8525 28.313,4.8437 27.449,4.9672 26.898,6.2908 l -1.62,3.8208 -3.179,-5.1708 C 21.894,4.8702 21.394,4.7819 21.026,4.7819 c -1.119,0 -1.747,0.4148 -2.398,1.1206 l -3.09,3.3794 2.485,3.9087 c 0.461,0.715 1.065,1.077 2.047,1.077 0.644,0 1.178,-0.142 1.426,-0.265 l -2.991,-4.5089 2.12,-2.25 3.478,5.4619 -2.117,4.473"
       id="path48"
       inkscape:connector-curvature="0"
       style="fill:#003761" />
  </g>
  <g
     id="g50"
     style="fill:#ffffff;stroke-width:0.88235003"
     transform="matrix(6.58641,0,0,6.58641,0,0.00234036)">
    <path
       d="m 50.182,15.115 c -0.236,0 -0.468,-0.009 -0.695,-0.027 C 49.256,15.062 49.062,15.035 48.907,15 l 0,-8.4088 -3.175,0 C 45.71,6.4588 45.685,6.3 45.657,6.1235 45.629,5.9382 45.616,5.7353 45.616,5.4971 c 0,-0.5118 0.102,-0.8648 0.31,-1.0677 0.207,-0.1941 0.467,-0.2912 0.78,-0.2912 l 8.043,0 c 0.022,0.1324 0.046,0.2912 0.068,0.4677 0.022,0.1853 0.034,0.3882 0.034,0.6264 0,0.9 -0.365,1.3589 -1.093,1.3589 l -2.132,0 0,7.3498 c 0,0.327 -0.101,0.609 -0.301,0.83 -0.202,0.229 -0.584,0.344 -1.143,0.344"
       id="path52"
       inkscape:connector-curvature="0" />
    <path
       d="m 57.387,15.053 c -0.313,0 -0.569,-0.035 -0.763,-0.106 -0.196,-0.062 -0.347,-0.159 -0.454,-0.273 -0.107,-0.115 -0.179,-0.256 -0.218,-0.424 -0.04,-0.168 -0.06,-0.353 -0.06,-0.538 l 0,-8.4355 c 0,-0.3177 0.101,-0.6 0.304,-0.8294 0.2,-0.2295 0.581,-0.3442 1.142,-0.3442 0.234,0 0.466,0.0089 0.696,0.0353 0.23,0.0265 0.422,0.053 0.579,0.0883 l 0,8.3735 4.819,0 c 0.022,0.132 0.047,0.291 0.075,0.468 0.028,0.185 0.042,0.388 0.042,0.626 0,0.53 -0.109,0.882 -0.327,1.077 -0.219,0.185 -0.518,0.282 -0.899,0.282 l -4.936,0"
       id="path54"
       inkscape:connector-curvature="0" />
    <path
       d="m 68.197,10.535 2.512,0 -1.253,-4.1115 -1.259,4.1115 m -2.62,4.615 c -0.212,0 -0.456,-0.018 -0.729,-0.053 C 64.574,15.053 64.346,15 64.167,14.938 l 3.485,-10.65 c 0.303,-0.0792 0.609,-0.1321 0.918,-0.1674 0.307,-0.0353 0.591,-0.053 0.849,-0.053 0.371,0 0.687,0.0265 0.951,0.0883 0.264,0.0529 0.486,0.1412 0.665,0.2559 0.181,0.1058 0.329,0.2558 0.446,0.4411 0.119,0.1853 0.216,0.3971 0.296,0.6442 l 2.986,9.4239 c -0.19,0.07 -0.42,0.132 -0.689,0.176 -0.269,0.035 -0.533,0.053 -0.788,0.053 -0.292,0 -0.576,-0.044 -0.849,-0.141 C 72.163,14.912 71.963,14.7 71.84,14.365 l -0.571,-1.73 -3.661,0 -0.486,1.633 c -0.123,0.388 -0.329,0.635 -0.62,0.732 -0.292,0.106 -0.599,0.15 -0.925,0.15"
       id="path56"
       inkscape:connector-curvature="0" />
    <path
       d="m 77.031,15.115 c -0.224,0 -0.442,-0.009 -0.655,-0.027 C 76.165,15.062 75.984,15.035 75.839,15 l 0,-10.694 c 0.169,-0.0531 0.387,-0.106 0.655,-0.1413 0.27,-0.0353 0.497,-0.0618 0.688,-0.0618 0.615,0 1.062,0.0794 1.342,0.2383 0.282,0.1588 0.516,0.3882 0.706,0.6882 l 3.812,5.9916 0,-5.8416 c 0,-0.15 0.02,-0.2823 0.059,-0.4147 0.038,-0.1235 0.106,-0.2382 0.2,-0.3441 0.095,-0.0971 0.229,-0.1765 0.395,-0.2294 0.169,-0.0618 0.381,-0.0883 0.638,-0.0883 0.225,0 0.439,0.0177 0.647,0.0353 0.207,0.0265 0.383,0.0441 0.53,0.0706 l 0,10.712 c -0.157,0.079 -0.347,0.132 -0.571,0.158 -0.224,0.027 -0.442,0.036 -0.655,0.036 -0.528,0 -0.918,-0.071 -1.176,-0.212 -0.258,-0.15 -0.47,-0.353 -0.638,-0.609 l -4.079,-6.5117 0,6.2297 c 0,0.309 -0.096,0.573 -0.286,0.785 -0.191,0.212 -0.549,0.318 -1.075,0.318"
       id="path58"
       inkscape:connector-curvature="0" />
    <path
       d="m 91.144,15.115 c -0.236,0 -0.468,-0.009 -0.697,-0.027 C 90.218,15.062 90.024,15.035 89.869,15 l 0,-8.4088 -3.175,0 C 86.672,6.4588 86.646,6.3 86.619,6.1235 86.591,5.9382 86.576,5.7353 86.576,5.4971 c 0,-0.5118 0.104,-0.8648 0.312,-1.0677 0.206,-0.1941 0.466,-0.2912 0.78,-0.2912 l 8.043,0 c 0.022,0.1324 0.044,0.2912 0.068,0.4677 0.021,0.1853 0.033,0.3882 0.033,0.6264 0,0.9 -0.365,1.3589 -1.092,1.3589 l -2.133,0 0,7.3498 c 0,0.327 -0.101,0.609 -0.301,0.83 -0.202,0.229 -0.583,0.344 -1.142,0.344"
       id="path60"
       inkscape:connector-curvature="0" />
    <path
       d="m 98.106,15.115 c -0.235,0 -0.467,-0.009 -0.696,-0.027 C 97.181,15.062 96.986,15.035 96.831,15 l 0,-9.7235 c 0,-0.3177 0.099,-0.6 0.302,-0.8294 0.202,-0.2295 0.581,-0.3442 1.142,-0.3442 0.234,0 0.466,0.0177 0.696,0.0353 0.23,0.0265 0.423,0.053 0.579,0.0883 l 0,9.7145 c 0,0.327 -0.101,0.609 -0.301,0.83 -0.203,0.229 -0.583,0.344 -1.143,0.344"
       id="path62"
       inkscape:connector-curvature="0" />
    <path
       d="m 106.12,15.256 c -0.79,0 -1.53,-0.141 -2.2,-0.432 -0.67,-0.283 -1.25,-0.68 -1.74,-1.183 -0.5,-0.503 -0.88,-1.103 -1.16,-1.8 -0.28,-0.688 -0.42,-1.438 -0.42,-2.241 0,-0.7853 0.14,-1.5177 0.42,-2.2059 0.28,-0.6794 0.66,-1.2706 1.16,-1.7823 0.49,-0.503 1.07,-0.8912 1.74,-1.1824 0.67,-0.2823 1.41,-0.4235 2.2,-0.4235 0.57,0 1.13,0.0617 1.66,0.1853 0.54,0.1235 1.04,0.2823 1.5,0.4676 0.1,1.4912 -0.26,2.2324 -1.09,2.2324 -0.15,0 -0.28,-0.0177 -0.41,-0.053 -0.12,-0.0264 -0.25,-0.0617 -0.4,-0.097 -0.15,-0.0353 -0.31,-0.0706 -0.49,-0.0971 -0.18,-0.0353 -0.39,-0.0529 -0.63,-0.0529 -0.4,0 -0.76,0.0706 -1.11,0.2117 -0.35,0.1412 -0.65,0.3353 -0.9,0.6 -0.25,0.2647 -0.45,0.5824 -0.6,0.953 -0.14,0.3617 -0.22,0.7764 -0.22,1.2441 0,0.476 0.08,0.909 0.22,1.288 0.15,0.38 0.35,0.706 0.6,0.971 0.25,0.256 0.55,0.459 0.9,0.6 0.35,0.141 0.71,0.212 1.11,0.212 0.24,0 0.46,-0.018 0.65,-0.053 0.19,-0.036 0.36,-0.071 0.51,-0.097 0.15,-0.036 0.3,-0.071 0.43,-0.106 0.14,-0.036 0.27,-0.044 0.42,-0.044 0.82,0 1.18,0.741 1.09,2.232 -0.46,0.185 -0.97,0.344 -1.53,0.468 -0.57,0.123 -1.14,0.185 -1.71,0.185"
       id="path64"
       inkscape:connector-curvature="0" />
  </g>
  <path
     style="fill:#003761;stroke-width:2.80749989"
     inkscape:connector-curvature="0"
     id="path70"
     d="m 795.50661,97.882983 c -1.25142,0 -2.43698,-0.03952 -3.55667,-0.16466 -1.11969,-0.125142 -2.10765,-0.204179 -2.89802,-0.368839 l 0,-20.931612 -19.49577,0 c -0.19759,-0.704746 -0.26346,-1.567566 -0.46105,-2.516009 -0.13173,-0.994547 -0.19765,-2.107651 -0.19765,-3.385414 0,-2.726774 0.59284,-4.62366 1.71253,-5.698566 1.18555,-1.03209 2.5687,-1.568224 4.2153,-1.568224 l 14.22664,0 0,-14.943247 c 0,-1.651213 0.52692,-3.013941 1.51488,-4.128362 1.05382,-1.072926 2.96388,-1.651213 5.66431,-1.651213 1.18555,0 2.37111,0.08299 3.4908,0.165319 1.11969,0.123825 2.04178,0.247649 2.89802,0.371474 l 0,20.186029 19.75923,0 c 0.13173,0.701453 0.32932,1.527389 0.39518,2.47649 0.13173,0.989941 0.19759,2.103044 0.19759,3.426913 0,2.726774 -0.52691,4.584141 -1.71246,5.657726 -1.11969,1.066998 -2.5687,1.607084 -4.2153,1.607084 l -14.42424,0 0,15.688829 c 0,1.646602 -0.52691,3.009989 -1.51488,4.123092 -0.98796,1.119691 -2.89802,1.65319 -5.59844,1.65319"
     sodipodi:nodetypes="csccccscscscscccccscscscc" />
  <path
     style="fill:#003761;stroke-width:2.80749989"
     inkscape:connector-curvature="0"
     id="path72"
     d="m 856.10158,97.882983 c -1.51488,0 -2.96389,-0.08562 -4.4129,-0.204179 -1.51487,-0.16466 -2.76629,-0.32932 -3.75425,-0.540086 l 0,-50.566508 -11.9214,5.408102 c -0.52692,-0.742947 -1.11969,-1.527389 -1.8442,-2.353325 -0.65864,-0.908266 -1.18555,-1.939697 -1.71246,-3.219437 -0.46105,-1.321234 -0.72451,-2.600973 -0.72451,-3.880713 0,-1.692048 0.46105,-3.178601 1.38315,-4.375352 0.92209,-1.238245 2.23938,-2.2295 3.88598,-3.054777 l 15.80738,-7.389293 12.58005,0 -3.4e-4,62.660474 c -10e-6,2.068132 -0.5927,3.839877 -1.90972,5.288887 -1.31729,1.481942 -3.75426,2.226207 -7.37678,2.226207"
     sodipodi:nodetypes="cccccccsccccscc" />
  <path
     d="m 16.642238,6.0462904 c -7.9939601,0 -11.0811738,3.312704 -11.0811738,13.0180416 L 5.550037,102.81054 c 0,5.22961 0.2656924,8.71382 1.040097,8.71382 0.2657495,-1.62684 0.5088817,-9.6425 9.124808,-17.02587 2.97413,-2.325003 7.169008,-4.650006 12.48908,-6.856453 17.791623,-6.276849 34.715887,-10.459219 49.507377,-13.311135 1.798045,-0.34908 3.635668,-0.698159 5.179278,-0.987961 5.625968,-0.987962 11.297166,-1.975923 16.063692,-2.786052 2.075101,-0.289802 4.218061,-0.638882 5.993491,-0.928684 5.86345,-0.875992 11.78909,-1.745398 16.77613,-2.443558 7.33919,-0.987961 14.73494,-1.917966 20.9659,-2.673427 5.93129,-0.697501 11.93044,-1.395001 16.99099,-1.975923 1.48706,-0.115921 3.00805,-0.290461 4.28591,-0.465 5.82387,-0.580922 11.70992,-1.161843 16.66869,-1.685463 23.07495,-2.324344 45.78802,-4.125727 67.76603,-5.520729 l 0.006,0 c 5.50157,-0.40704 11.01444,-0.755461 16.61779,-1.103882 2.31824,-0.116579 4.69868,-0.291119 6.69463,-0.40704 5.46199,-0.290461 11.03142,-0.639541 16.57822,-0.930001 8.32303,-0.465001 16.72523,-0.871382 25.21224,-1.278422 5.78429,-0.290461 11.59118,-0.522961 17.43767,-0.755462 9.04112,-0.40704 18.13879,-0.755461 27.32693,-1.045922 6.06699,-0.2325 12.23577,-0.40704 17.43767,-0.58158 18.02005,-0.465 36.32282,-0.929342 51.74758,-1.161842 5.64293,-0.05862 11.38198,-0.17454 16.2107,-0.232501 l 3.00804,0 c 5.82953,-0.05862 11.77779,-0.116579 16.76483,-0.174539 7.84808,0 15.82621,-0.05796 22.55475,-0.05796 10.43772,0.05796 21.18077,0.05796 30.5668,0.115921 5.45069,0.05796 10.98619,0.116579 15.65659,0.17454 5.50723,0.115921 11.10492,0.17454 15.82056,0.290461 9.36906,0.116579 18.67595,0.349079 27.9489,0.580921 5.82385,0.17454 11.64772,0.34908 17.41504,0.52362 9.15987,0.29046 18.20665,0.638881 27.14034,1.045921 6.10657,0.232501 12.26969,0.522961 17.47159,0.755462 2.94021,0.17454 5.9935,0.348421 8.5379,0.465 6.61546,0.348421 13.40055,0.755461 19.05479,1.103883 20.24218,1.337041 40.93665,2.847963 58.46481,4.474807 l 0,0.05862 c 8.25518,0.755461 16.28423,1.568882 24.08704,2.498884 19.28097,2.382304 39.24042,4.997767 56.25968,8.080211 7.63322,1.389732 15.43603,3.016575 22.56041,4.650005 7.80281,1.79809 14.9272,3.714735 21.37303,5.749936 5.25845,1.745399 10.62996,3.602766 15.15331,5.519412 6.50237,3.372242 13.68328,6.625928 18.60248,11.275934 7.74629,7.903688 8.82062,15.399028 9.10333,17.025868 0.79154,0 1.07426,-3.48421 1.07426,-8.71382 l -0.0597,-83.746206 c 0,-9.7044156 -3.05326,-13.0173836 -11.08232,-13.0173836 -2.71401,2.6e-4 -5.3715,1.511585 -8.99019,1.511585 l -846.495903,0 c -3.611362,0 -6.314087,-1.511325 -9.021902,-1.511325 z"
     id="path74"
     style="opacity:0.3;fill:url(#c);stroke-width:0.93927997"
     inkscape:connector-curvature="0" />
  <path
     d="M 15.486669,0.00191036 C 3.6140281,0.00191036 0,8.6031044 0,17.204296 l 0,91.063714 c 0,8.60185 3.6147646,17.14442 15.502531,17.14442 l 868.352529,0 c 11.89758,0 15.52352,-8.54257 15.52352,-17.14442 l 0,-91.063714 c 0,-8.6031676 -3.62594,-17.204365642065 -15.52352,-17.204365642065 z m 0.565986,1.16224004 867.332755,0 c 7.98836,0 13.37059,5.522769 13.37059,14.6468566 l 0,93.856343 c 0,9.12218 -5.38223,14.64159 -13.37059,14.64159 l -867.332755,0 0.0039,0 C 8.0569228,124.30236 2.6593925,118.78295 2.6593925,109.66735 l 0,-93.856343 c 0,-9.1228356 5.404329,-14.6455366 13.4125255,-14.6455366 z"
     id="path76"
     inkscape:connector-curvature="0"
     style="fill:#a1a2a2" />
</svg>
