<svg width="1872.2pt" height="606.75pt" version="1.1" viewBox="0 0 1872.2 606.75" xmlns="http://www.w3.org/2000/svg" xmlns:xlink="http://www.w3.org/1999/xlink">
 <defs>
  <linearGradient id="a" x1="-8600.5" x2="-8600.5" y1="-4687.6" y2="-4591.4" gradientTransform="matrix(-2.9812,0,0,-2.9812,-24493,-13655)" gradientUnits="userSpaceOnUse">
   <stop stop-color="#a80000" offset="0"/>
   <stop stop-color="#a1000c" offset=".38129"/>
   <stop stop-color="#b90019" offset="1"/>
  </linearGradient>
  <linearGradient id="linearGradient968" x1="-8600.5" x2="-8600.5" y1="-4687.6" y2="-4591.4" gradientTransform="matrix(-2.9812,0,0,-2.9812,-24493,-13655)" gradientUnits="userSpaceOnUse" xlink:href="#a"/>
 </defs>
 <g transform="matrix(.75213 0 0 .75213 334.73 441.51)">
  <path d="m353.06 30.31c7.41-2.01 15.21-0.75 22.68 0.29 0.01 23.96 0.04 47.92-0.01 71.87 8.27-10.47 19.93-19.04 33.41-20.91 13.77-1.98 28.99 0.28 39.83 9.6 13.15 11.08 17.9 29.19 17.54 45.82-0.03 23.02 0 46.05-0.01 69.08 0.14 5.02-3.45 10.03-8.5 10.95-7.08 1.55-14.43 0.51-21.51-0.57 0.02-25.13-0.01-50.27 0.01-75.4-0.1-8.15-1.13-16.79-5.84-23.7-4.77-7-13.38-10.53-21.66-10.61-10.41-0.58-20.82 3.82-28.18 11.08-2.28 2.64-5.26 5.47-5.08 9.24 0.02 26.35 0.03 52.69 0 79.04 0.02 4.68-2.86 9.7-7.66 10.76-7.33 1.81-15 0.67-22.35-0.4 0.05-58.48-0.01-116.96 0.03-175.43 0-4.56 2.63-9.53 7.3-10.71z"/>
  <path d="m809.42 30.43c7.51-2.17 15.5-0.92 23.09 0.21 0 57.78-0.04 115.55 0.02 173.33 0.48 5.28-2.03 11.59-7.66 12.88-7.34 1.81-15.01 0.66-22.37-0.37-0.02-57.85 0.03-115.7-0.03-173.54-0.39-4.99 1.76-10.93 6.95-12.51z"/>
  <path d="m879.47 34.54c5.06-3.93 13.17-3.21 17.22 1.85 2.99 3.83 2.87 9.08 2.17 13.65-1.91 11.26-6.52 22.16-13.74 31.05-6.4 7.82-16.41 12.4-26.53 11.98 5.16-16.66 10.48-33.28 15.66-49.94 1.01-3.21 2.51-6.46 5.22-8.59z"/>
  <path d="m1169.6 34.86c21.43-2.54 43.98 2.2 61.68 14.83 18.17 12.53 30.32 32.66 34.99 54.06 3.57 17.26 3.09 35.46-1.88 52.4-6.17 20.46-19.11 39.25-37.4 50.64-19.94 12.72-45.13 15.72-67.96 10.41-21.29-5.03-40.14-18.98-51.5-37.64-18.8-30.2-19.77-70.57-2.65-101.71 12.83-23.78 37.85-40.33 64.72-42.99m1.96 27.89c-15.1 2.69-28.39 12.63-36.17 25.72-9.76 15.64-12.1 34.99-8.94 52.93 2.72 14.95 10.07 29.45 22.05 39.06 10.37 8.55 24.22 12.87 37.6 11.18 12.69-1.44 24.36-8.31 32.87-17.68 13.58-14.99 19.03-36.21 16.81-56.08-1.79-17.24-9.69-34.37-23.66-45.04-11.28-8.96-26.4-12.75-40.56-10.09z"/>
  <path d="m75.07 54.99c10.03-11.28 25.05-16.99 39.78-18.64 24.08-2.42 48.44 1.76 71.18 9.7-0.15 7.11 0.09 15.29-5.05 20.88-4.82 4.37-11.91 3-17.7 1.78-14.91-3.16-30.21-5.67-45.48-4.03-7.23 1-14.92 3.38-19.7 9.24-5.91 7.23-5.04 19.6 2.97 24.97 8.73 5.69 19.14 7.78 28.99 10.73 16.26 4.9 33.81 8.01 47.45 18.87 9.89 7.38 16.2 19.16 17.01 31.46 0.95 13.73-2.08 28.57-11.6 38.98-10.18 11.28-25.27 16.66-40 18.61-26.6 3.25-53.52-1.7-78.82-9.89-0.55-6.96-0.2-14.69 4.17-20.47 3.23-4.03 8.88-4.43 13.62-3.73 8.23 1.32 16.24 3.72 24.48 4.99 9.77 1.76 19.75 2.29 29.65 1.52 7.43-0.72 15.38-2.63 20.69-8.26 5.9-5.89 7.8-15.36 4.74-23.1-2.12-5.29-7.13-8.67-12.15-10.89-20.37-8.46-43.32-10.08-62.44-21.6-13.36-7.71-22.01-22.67-22.37-38.04-0.45-11.76 2.66-24.12 10.58-33.08z"/>
  <path d="m1460.1 48.95c6.92-2.5 14.68-1.72 21.64 0.31 0.05 11.32 0 22.65 0.03 33.98 14.98 0.02 29.97 0 44.96 0.01 1.29 6.01 2.25 12.58 0.06 18.48-1.67 4.25-6.67 5.5-10.79 5.29-11.41-0.03-22.83-0.02-34.23-0.01-0.01 21.66 0 43.33-0.01 64.99 0.01 6.04 1.83 12.55 6.66 16.53 5.1 4.23 12.29 4.59 18.56 3.45 4.68-0.79 8.88-3.15 13.4-4.5 4.79-1.46 10.84 0.29 13.03 5.08 2.16 4.77 1.96 10.2 1.57 15.31-8.46 4.79-17.7 8.45-27.41 9.57-10.54 1.18-21.69 0.94-31.45-3.65-8.57-3.86-15.53-10.96-19.45-19.47-3.45-7.25-4.67-15.35-4.67-23.32 0.02-21.33 0.01-42.67 0.01-64-6.97-0.01-13.94 0.01-20.91-0.01-0.81-6.71-2.59-14.52 1.51-20.48 5.05-5.15 12.99-2.68 19.4-3.26 0.1-7.12-0.22-14.25 0.15-21.36 0.29-5.23 2.62-11.06 7.94-12.94z"/>
  <path d="m547.49 81.79c13.97-1.69 28.61-0.03 41.25 6.42 13.47 6.5 24.42 17.92 30.56 31.54 8.69 18.92 8.52 41.57 0.11 60.56-6 13.66-16.97 25.06-30.45 31.49-12.71 6.52-27.44 8.03-41.48 6.44-17.88-2.14-34.95-11.63-45.59-26.25-17.02-23.64-17.5-58.09-0.79-82.02 10.55-15.39 27.88-25.87 46.39-28.18m3.98 24.85c-14.45 2.48-26.08 14.33-29.86 28.28-3.88 14.17-2.55 30.32 5.8 42.7 8.07 12.85 24.94 19.24 39.5 14.96 9.86-2.66 18.23-9.83 22.78-18.92 5.02-9.33 6.03-20.3 4.96-30.69-1.21-10.47-5.59-20.91-13.56-28.01-7.92-7.1-19.17-10.23-29.62-8.32z"/>
  <path d="m700.59 81.75c13.93-1.63 28.51 0.08 41.08 6.56 13.69 6.62 24.7 18.37 30.76 32.28 8.3 18.75 8.02 40.97-0.26 59.68-6 13.67-16.96 25.07-30.43 31.52-12.91 6.61-27.89 8.1-42.14 6.37-17.03-2.2-33.3-11.06-43.84-24.7-17.89-23.29-18.93-58.05-2.62-82.45 10.55-16.04 28.39-27 47.45-29.26m2.9 25.03c-13.44 2.62-24.4 13.33-28.52 26.22-4.62 14.46-3.52 31.26 4.88 44.15 5.19 8.38 13.98 14.3 23.65 16.09 14.01 2.91 29.25-3.83 36.8-15.92 7.09-10.64 8.6-24.07 6.81-36.49-1.55-9.67-5.78-19.22-13.21-25.79-8.08-7.34-19.74-10.45-30.41-8.26z"/>
  <path d="m266.16 82.57c18.96-2.62 38.85 0.33 55.62 9.8 0.57 6.48 0.51 14.03-4.41 18.96-2.93 3.27-7.84 3.53-11.8 2.32-6.77-2.13-13.4-5.05-20.55-5.67-9.73-1.07-20.1 1.05-27.92 7.15-8.37 6.44-13.23 16.62-14.66 26.93-1.32 10.9-0.26 22.51 5.36 32.15 5.74 10.19 16.79 16.83 28.32 18.03 9.95 1.34 19.78-1.6 28.91-5.28 4.89-2.04 11.4-2.52 15.32 1.7 4.65 4.97 4.23 12.48 3.28 18.74-17.21 9.34-37.36 12.57-56.71 10.14-18.39-2.53-35.6-13.3-45.4-29.14-15.75-25.27-14.04-60.69 5.17-83.69 9.85-11.89 24.2-19.88 39.47-22.14z"/>
  <path d="m909.73 96.78c8.23-8.91 20.36-13.06 32.12-14.58 21.49-2.45 43.27 1.21 63.67 8 0.48 5.86 0.59 12.31-2.79 17.41-1.63 2.6-4.64 4.09-7.67 4.15-9.04 0.66-17.27-3.88-26.1-4.82-7.68-0.92-15.47-1.26-23.16-0.28-4.3 0.62-9 1.72-11.94 5.18-3.58 4.14-3.27 11.55 1.51 14.66 5.91 4.02 13.13 5.19 19.85 7.23 14.64 4.29 30.15 7.28 42.92 16.1 8.28 5.55 13.63 15.17 13.86 25.15 0.57 10.39-2.24 21.6-10 28.94-8.4 8.19-20.17 11.85-31.57 13.3-23.32 2.67-46.92-1.52-69.02-8.95-1.28-6.3-1-13.57 3.21-18.77 2.71-3.27 7.31-3.71 11.25-3.06 8.2 1.34 16.03 4.36 24.23 5.74 7.17 1.43 14.52 1.51 21.81 1.25 5.02-0.36 10.21-1.24 14.57-3.91 4.98-3.06 6.46-10.08 4.28-15.27-1.82-4.15-6.27-6.04-10.22-7.59-16.65-6.15-34.71-8.45-50.49-16.89-6.94-3.62-13.02-9.25-16.11-16.54-4.92-11.94-3-26.78 5.79-36.45z"/>
  <path d="m1300.8 82.91c7.07-1.4 14.39-0.48 21.44 0.69-0.04 25.48-0.01 50.97-0.02 76.45 0.15 8.28 1.33 17.28 6.97 23.77 5.55 6.53 14.36 9.64 22.81 9.2 10.49-0.29 20.39-5.92 26.88-14.04 1.73-2.36 4.26-4.73 3.87-7.94-0.06-25.66-0.03-51.33-0.02-77-0.09-4.93 3.21-9.97 8.2-11.01 7.2-1.68 14.67-0.43 21.92 0.38 0.28 26.2 0.04 52.41 0.12 78.61-0.13 17.7 0.67 35.49 4.53 52.82-6.86 2.64-14.47 3.77-21.72 2.3-4.4-0.83-7.91-4.38-9.33-8.53-1.57-4.55-1.19-9.44-1.78-14.15-5.41 7.56-12.12 14.36-20.33 18.84-8.34 4.43-18 5.64-27.32 5.15-10.52-0.6-21.22-4.22-28.89-11.65-10.89-10.11-15.52-25.33-15.9-39.84-0.04-24.32 0-48.64-0.02-72.96-0.11-5.08 3.46-10.13 8.59-11.09z"/>
 </g>
 <g transform="matrix(1 0 0 1 0 .005)">
  <path d="m624.21 9e-5h1223c13.753 0 25.006 11.253 25.006 25.006v325.08c0 13.753-11.253 25.006-25.006 25.006h-1223z" fill="url(#linearGradient968)" stroke-width="2.9812"/>
  <path d="m624.21 375.09h-599.2c-13.753 0-25.006-11.253-25.006-25.006v-325.39c0-13.128 10.94-24.693 24.693-24.693h599.52z" fill="#fff" stroke-width="3.1257"/>
  <g transform="matrix(.75012 0 0 .75012 0 -6e-5)" fill="#fff">
   <path d="m1196.8 46.657c8.08-2.39 17.44-0.61 23.7 5.16 8.96 7.84 10.76 22.47 3.9 32.22-5.08 7.92-15.03 12.37-24.3 10.66-11.61-1.81-21.3-12.73-20.86-24.62-0.19-10.58 7.4-20.56 17.56-23.42z"/>
   <path d="m1017.4 133.46c21.37-5.8 43.96-4.99 65.59-1.1 16.56 3.21 33.02 8.13 47.94 16.07 0.82 7.45 0.64 15.53-3.01 22.28-2.45 4.57-7.4 7.7-12.63 7.47-7.67-0.23-14.56-3.99-21.59-6.62-14.68-6.05-30.63-9.09-46.51-8.39-14.87 0.74-29.66 5.3-41.92 13.84-11.33 7.69-20.34 18.59-26.21 30.93-6.65 14.05-9.41 29.77-8.95 45.25 0.46 14.4 3.53 28.88 10.19 41.73 7.95 15.91 21.5 28.99 37.82 36.15 20.99 9.32 45.36 8.45 66.93 1.55 8.87-2.71 17.08-7.36 26.16-9.37 5.62-1.4 12.21 0.36 15.57 5.29 4.85 6.95 5.01 16.04 4.14 24.15-14.07 7.02-29.27 11.67-44.63 14.88-25.46 5.02-52.52 5.76-77.23-3.13-24.95-8.67-46.58-26.38-60.09-49.06-11.77-19.51-17.68-42.39-17.5-65.12-0.26-25.49 7.13-51.2 21.84-72.12 15.21-21.84 38.36-37.9 64.09-44.68z"/>
   <path d="m1378.5 131.64c20.37-4.35 42.33-2.9 61.39 5.79 14.88 6.78 27.32 18.57 35.15 32.9 9.75 17.49 12.97 37.77 13.25 57.57 0 42.06 0.05 84.12-0.05 126.18 0.17 5.36-2.82 10.92-8.15 12.55-9.57 3.04-19.87 1.53-29.55-0.18-0.06-45.61 0.03-91.23-0.05-136.84-0.58-17.92-4.72-37.02-17.41-50.43-11.02-11.97-27.92-16.85-43.82-16.02-16.43 0.97-32.11 7.86-45.12 17.73-8.09 6.21-15.3 13.73-20.45 22.57-1.14 1.63-0.91 3.67-0.96 5.55 0.08 8.56 0.01 17.11 0.05 25.67 0.02 40.13 0.01 80.26-0.01 120.39 0.21 5.36-3.46 10.34-8.62 11.75-9.37 2.72-19.36 1.35-28.8-0.26-0.16-43.48-0.07-86.96-0.08-130.44 0.08-33.89-0.12-67.78 0.1-101.66 9.07-1.94 18.68-3.43 27.8-0.98 4.91 1.26 9.25 5.39 9.48 10.67 0.35 7.42-0.01 14.85 0.15 22.28 14.33-17.02 33.79-30.09 55.7-34.79z"/>
   <path d="m1579.1 150c30.74-21.87 72.51-26.73 107.67-13.3 16.58 6.46 31.22 17.69 41.88 31.93 10.87 14.34 17.8 31.44 21.11 49.08 3.01 15.84 2.86 32.18 0.27 48.06-60.29 0.07-120.59 0-180.88 0.04 2.21 17.04 8.77 33.95 20.77 46.51 10.38 11.11 24.48 18.3 39.23 21.59 22.1 4.92 45.28 2.4 66.72-4.37 7.84-2.21 15.32-5.66 23.31-7.37 5.57-1.42 11.72 1.3 14.58 6.26 4.25 7.17 3.74 15.87 3.17 23.87-19.57 8.63-40.34 14.62-61.56 17.38-19.3 2.53-39.12 2.24-58.08-2.43-16.65-4.06-32.58-11.5-45.88-22.37-14.06-11.32-25.03-26.31-31.98-42.94-9.86-23.76-12.22-50.39-7.98-75.68 5.19-30.3 22.29-58.65 47.65-76.26m17.36 30.27c-13.64 11.51-22.05 28.12-25.99 45.33-0.44 2.72-0.87 5.44-1.29 8.17 48.37 0 96.74-0.01 145.11 0-0.3-4.91-0.85-9.79-1.77-14.63-3.32-16.57-11.88-32.49-25.42-42.9-26.12-20.22-66.03-17.3-90.64 4.03z"/>
   <path d="m1879.3 133.17c21.25-6.87 45.68-4.8 64.78 7.1 11.91 7.31 21.04 18.49 27.09 31 9.14-13.12 20.8-24.75 35.02-32.29 17.83-9.56 39.11-11.94 58.81-7.71 14.06 3.02 27.23 10.4 36.75 21.24 12.31 13.79 18.58 32.08 20.24 50.29 0.97 10.37 0.4 20.8 0.55 31.21-0.04 40.16 0.05 80.34-0.06 120.5 0.17 5.76-3.84 11.05-9.43 12.42-9.4 2.54-19.36 1.27-28.79-0.52 0.01-42.8-0.01-85.61-0.02-128.42-0.23-11.22 0.66-22.52-0.93-33.67-1.46-9.94-5.03-19.84-11.76-27.44-6.16-7.04-14.97-11.41-24.12-12.93-27.02-5.03-54.58 11.73-66.73 35.54-1.21 2.79-0.57 5.94-0.69 8.89 0.02 48.58 0.05 97.16-0.02 145.74 0.28 5.65-3.22 11.29-8.82 12.76-9.59 2.65-19.77 1.3-29.4-0.44-0.01-29.46-0.01-58.92-0.01-88.38-0.17-22.64 0.32-45.29-0.26-67.92-0.73-9.29-2.85-18.66-7.59-26.77-4.58-7.96-12.01-14.27-20.7-17.29-14.94-5.25-31.92-3.43-45.78 4.04-10.33 5.46-19.26 13.56-25.69 23.31-1.78 2.98-4.3 5.92-4.24 9.58-0.1 3.75 0.03 7.5 0.02 11.25 0.04 46.59 0.01 93.19-0.01 139.78 0.3 5.58-3.05 11.21-8.58 12.75-9.48 2.73-19.63 1.5-29.16-0.36 0-50.27-0.03-100.54 0-150.8 0.02-27.01-0.01-54.02 0.01-81.03 8.65-1.91 17.74-3.44 26.53-1.45 5.05 1.07 9.59 5.03 10.31 10.32 0.86 6.75 0.19 13.59 0.4 20.37 10.8-13.94 25.39-25.23 42.28-30.67z"/>
   <path d="m2255.9 129.89c17.19-1.23 34.69-0.86 51.52 3.17 13.74 3.27 27.14 9.51 37.07 19.76 10.85 10.79 16.89 25.54 19.55 40.42 2.85 14.42 1.83 29.17 2.01 43.77-0.02 43.16 0.03 86.32-0.03 129.48-8.95 1.65-18.28 2.8-27.26 0.8-5.34-1.09-10.03-5.64-10.18-11.26-0.16-7.2 0.01-14.4-0.05-21.59-9.66 10.19-20.7 19.21-33.29 25.52-16.85 8.58-36.04 12-54.84 11.19-15.27-0.63-30.64-4.41-43.72-12.49-14.38-8.77-25.53-22.9-30.05-39.19-4.79-17.16-3.22-36.51 6.17-51.87 6.78-11.09 17.31-19.42 28.76-25.31 16.65-8.48 35.14-12.62 53.58-14.98 24.17-2.98 48.62-2.81 72.9-1.26-0.09-10.48-0.18-21.12-2.94-31.31-2.15-7.96-6.31-15.56-12.73-20.85-7.15-5.88-16.23-8.83-25.27-10.16-25.14-3.34-50.68 1.14-74.67 8.72-5.04 1.38-10 3.18-15.2 3.77-5.25 0.51-10.64-2.24-13.06-6.95-3.77-7.19-3.52-15.68-2.55-23.51 23.88-8.65 48.96-13.95 74.28-15.87m25.3 125.03c-17.4 1.05-35.09 2.99-51.35 9.62-9.34 3.91-18.36 10.1-23 19.37-7.01 13.91-3.62 32.09 7.98 42.52 7.95 7.51 18.67 11.45 29.43 12.56 16.59 1.49 33.6-1.83 48.41-9.5 13.04-6.54 24.33-16.26 33.43-27.61 0.8-1.14 2.07-2.21 1.91-3.77 0.07-14.33-0.06-28.67 0.05-42.99-15.61-0.88-31.25-0.94-46.86-0.2z"/>
   <path d="m1193.1 133.91c9.65-3.09 20.03-1.43 29.72 0.69 0 34.69-0.02 69.38 0 104.07 0.04 38.13-0.02 76.25 0.01 114.38 0.03 4.08-0.97 8.55-4.34 11.2-4.23 3.37-9.94 3.91-15.15 4.07-6.31 0.12-12.58-0.67-18.75-1.87-0.05-42.1-0.02-84.19-0.02-126.29 0.03-31.39-0.05-62.78 0.03-94.17-0.12-5.36 3.32-10.5 8.5-12.08z"/>
  </g>
  <path d="m421.97 333.52c4.0635 2.188 12.19 4.6886 22.818 4.6886 17.817 0.31257 27.507-6.5641 34.696-22.505l95.648-213.18c-4.0635-2.188-12.816-4.376-19.692-4.6886-12.19-0.31257-28.757 2.188-39.384 27.507l-30.945 73.142-60.952-98.461c-4.0635-1.2503-13.441-2.8132-20.63-2.8132-21.255 0-33.445 7.8144-45.948 21.255l-58.764 64.39 47.511 74.705c8.7521 13.753 20.317 20.63 39.072 20.63 12.19 0 22.505-2.8132 27.194-5.0012l-57.201-86.27 40.635-42.823 66.578 104.4zm-125.34-80.644c0 15.629-6.2515 24.693-36.884 24.693-4.0635 0-7.5018-0.31258-10.94-0.93773v-208.17c0-15.941 5.3138-32.195 36.258-32.195 3.7509 0 7.8144 0.31257 11.565 1.2503zm-63.452-31.257c0 29.382-19.067 50.637-58.139 55.013-28.132 3.1257-69.079-0.62514-88.458-2.8132-0.62515-3.1257-1.2503-7.1892-1.2503-10.315 0-25.631 13.753-31.57 26.881-31.57 13.441 0 34.696 2.188 50.637 2.188 17.504 0 22.505-5.9389 22.505-11.565 0-7.5018-6.8766-10.315-20.63-13.128l-36.571-6.564c-30.632-5.9389-46.886-27.194-46.886-49.699 0-27.506 19.38-50.324 57.513-54.7 28.757-3.1257 64.078 0.31257 83.145 2.8132 0.62514 3.4383 0.93772 6.564 0.93772 10.002 0 25.631-13.441 30.945-26.569 30.945-10.002 0-25.318-1.8754-43.135-1.8754-18.129 0-25.318 5.0012-25.318 10.94 0 6.2515 7.1892 9.0646 18.442 10.94l35.321 6.5641c36.259 6.8766 51.575 27.507 51.575 52.825" fill="url(#linearGradient968)" stroke-width="2.9812"/>
  <path d="m25.006 0c-13.753 0-25.006 11.253-25.006 25.006v226.3c0-20.005 16.003-36.509 36.008-37.259l1836.2-69.266v-119.78c0-13.753-11.253-25.006-25.006-25.006z" fill="#fff" opacity=".2"/>
 </g>
</svg>
