<?xml version="1.0" encoding="UTF-8" standalone="no"?>
<!-- Created with Inkscape (http://www.inkscape.org/) -->

<svg
   xmlns:dc="http://purl.org/dc/elements/1.1/"
   xmlns:cc="http://creativecommons.org/ns#"
   xmlns:rdf="http://www.w3.org/1999/02/22-rdf-syntax-ns#"
   xmlns:svg="http://www.w3.org/2000/svg"
   xmlns="http://www.w3.org/2000/svg"
   xmlns:sodipodi="http://sodipodi.sourceforge.net/DTD/sodipodi-0.dtd"
   xmlns:inkscape="http://www.inkscape.org/namespaces/inkscape"
   width="15.199783mm"
   height="4.6303144mm"
   viewBox="0 0 53.8575 16.406626"
   id="svg20278"
   version="1.1"
   inkscape:version="0.91 r13725"
   sodipodi:docname="Sky Cinema Comedy - Dark.svg">
  <defs
     id="defs20280">
    <clipPath
       clipPathUnits="userSpaceOnUse"
       id="clipPath7566">
      <path
         d="m 96.036,553.89 c 0,0 -4.583,0 -4.583,-4.584 l 0,0 0,-15.278 c 0,0 0,-4.584 4.583,-4.584 l 0,0 37.605,0 c 0,0 4.584,0 4.584,4.584 l 0,0 0,15.278 c 0,0 0,4.584 -4.584,4.584 l 0,0 -37.605,0 z"
         id="path7568"
         inkscape:connector-curvature="0" />
    </clipPath>
    <linearGradient
       x1="0"
       y1="0"
       x2="1"
       y2="0"
       gradientUnits="userSpaceOnUse"
       gradientTransform="matrix(0,-9.6754198,9.6754198,0,488.90403,674.17539)"
       spreadMethod="pad"
       id="linearGradient7548">
      <stop
         style="stop-opacity:1;stop-color:#af6773"
         offset="0"
         id="stop7550" />
      <stop
         style="stop-opacity:1;stop-color:#c9747a"
         offset="0.104411"
         id="stop7552" />
      <stop
         style="stop-opacity:1;stop-color:#c9747a"
         offset="0.898134"
         id="stop7554" />
      <stop
         style="stop-opacity:1;stop-color:#d49093"
         offset="0.999673"
         id="stop7556" />
      <stop
         style="stop-opacity:1;stop-color:#d49093"
         offset="1"
         id="stop7558" />
    </linearGradient>
    <linearGradient
       x1="0"
       y1="0"
       x2="1"
       y2="0"
       gradientUnits="userSpaceOnUse"
       gradientTransform="matrix(0,9.8377168,9.8377168,0,479.9999,664.4158)"
       spreadMethod="pad"
       id="linearGradient7518">
      <stop
         style="stop-opacity:1;stop-color:#b4b2b1"
         offset="0"
         id="stop7520" />
      <stop
         style="stop-opacity:1;stop-color:#e8e8e9"
         offset="0.020448"
         id="stop7522" />
      <stop
         style="stop-opacity:1;stop-color:#f9f9fa"
         offset="0.0524045"
         id="stop7524" />
      <stop
         style="stop-opacity:1;stop-color:#f5f5f5"
         offset="0.487663"
         id="stop7526" />
      <stop
         style="stop-opacity:1;stop-color:#f9f9fa"
         offset="0.895488"
         id="stop7528" />
      <stop
         style="stop-opacity:1;stop-color:#f4f3f4"
         offset="0.929442"
         id="stop7530" />
      <stop
         style="stop-opacity:1;stop-color:#e8e8e9"
         offset="0.964262"
         id="stop7532" />
      <stop
         style="stop-opacity:1;stop-color:#b4b2b1"
         offset="1"
         id="stop7534" />
    </linearGradient>
    <clipPath
       clipPathUnits="userSpaceOnUse"
       id="clipPath7476">
      <path
         d="m 96.036,553.89 c 0,0 -4.583,0 -4.583,-4.584 l 0,0 0,-15.278 c 0,0 0,-4.584 4.583,-4.584 l 0,0 37.605,0 c 0,0 4.584,0 4.584,4.584 l 0,0 0,15.278 c 0,0 0,4.584 -4.584,4.584 l 0,0 -37.605,0 z"
         id="path7478"
         inkscape:connector-curvature="0" />
    </clipPath>
    <linearGradient
       x1="0"
       y1="0"
       x2="1"
       y2="0"
       gradientUnits="userSpaceOnUse"
       gradientTransform="matrix(0,-9.6754198,9.6754198,0,488.90403,674.17539)"
       spreadMethod="pad"
       id="linearGradient7458">
      <stop
         style="stop-opacity:1;stop-color:#810a32"
         offset="0"
         id="stop7460" />
      <stop
         style="stop-opacity:1;stop-color:#a90e3a"
         offset="0.104411"
         id="stop7462" />
      <stop
         style="stop-opacity:1;stop-color:#a90e3a"
         offset="0.898134"
         id="stop7464" />
      <stop
         style="stop-opacity:1;stop-color:#b94556"
         offset="0.999673"
         id="stop7466" />
      <stop
         style="stop-opacity:1;stop-color:#b94556"
         offset="1"
         id="stop7468" />
    </linearGradient>
    <clipPath
       clipPathUnits="userSpaceOnUse"
       id="clipPath7440">
      <path
         d="m 96.036,553.89 c 0,0 -4.583,0 -4.583,-4.584 l 0,0 0,-15.278 c 0,0 0,-4.584 4.583,-4.584 l 0,0 37.605,0 c 0,0 4.584,0 4.584,4.584 l 0,0 0,15.278 c 0,0 0,4.584 -4.584,4.584 l 0,0 -37.605,0 z"
         id="path7442"
         inkscape:connector-curvature="0" />
    </clipPath>
    <linearGradient
       x1="0"
       y1="0"
       x2="1"
       y2="0"
       gradientUnits="userSpaceOnUse"
       gradientTransform="matrix(0,9.8377168,9.8377168,0,479.9999,664.4158)"
       spreadMethod="pad"
       id="linearGradient7416">
      <stop
         style="stop-opacity:1;stop-color:#888685"
         offset="0"
         id="stop7418" />
      <stop
         style="stop-opacity:1;stop-color:#d9d9da"
         offset="0.020448"
         id="stop7420" />
      <stop
         style="stop-opacity:1;stop-color:#f5f5f6"
         offset="0.0524045"
         id="stop7422" />
      <stop
         style="stop-opacity:1;stop-color:#eeefef"
         offset="0.487663"
         id="stop7424" />
      <stop
         style="stop-opacity:1;stop-color:#f5f5f6"
         offset="0.895488"
         id="stop7426" />
      <stop
         style="stop-opacity:1;stop-color:#ebebec"
         offset="0.929442"
         id="stop7428" />
      <stop
         style="stop-opacity:1;stop-color:#d9d9da"
         offset="0.964262"
         id="stop7430" />
      <stop
         style="stop-opacity:1;stop-color:#888685"
         offset="1"
         id="stop7432" />
    </linearGradient>
  </defs>
  <sodipodi:namedview
     id="base"
     pagecolor="#ffffff"
     bordercolor="#666666"
     borderopacity="1.0"
     inkscape:pageopacity="0.0"
     inkscape:pageshadow="2"
     inkscape:zoom="15.839192"
     inkscape:cx="18.047366"
     inkscape:cy="9.3942378"
     inkscape:document-units="px"
     inkscape:current-layer="layer1"
     showgrid="false"
     fit-margin-top="0"
     fit-margin-left="0"
     fit-margin-right="0"
     fit-margin-bottom="0"
     inkscape:window-width="1920"
     inkscape:window-height="1017"
     inkscape:window-x="-8"
     inkscape:window-y="-8"
     inkscape:window-maximized="1" />
  <metadata
     id="metadata20283">
    <rdf:RDF>
      <cc:Work
         rdf:about="">
        <dc:format>image/svg+xml</dc:format>
        <dc:type
           rdf:resource="http://purl.org/dc/dcmitype/StillImage" />
        <dc:title></dc:title>
      </cc:Work>
    </rdf:RDF>
  </metadata>
  <g
     inkscape:label="Layer 1"
     inkscape:groupmode="layer"
     id="layer1"
     transform="translate(-453.07126,-664.1589)">
    <g
       id="g4408">
      <g
         id="g4386">
        <g
           id="g4365">
          <path
             d="m 505.51413,664.50015 c 0.7625,0 1.03375,0.45 1.03375,1.19875 l 0,0 c 0,-0.74875 -0.27125,-1.19875 -1.03375,-1.19875 z m -34.255,0 34.255,0 -34.255,0 z m -16.77375,0 c -0.7625,0 -1.03375,0.45 -1.03375,1.19875 l 0,0 0,7.2775 c 0,0.75 0.27125,1.2 1.03375,1.2 l 0,0 16.77375,0 0,-5.7575 c -0.9425,0.0712 -1.87,0.15 -2.77375,0.2375 l 0,0 -1.91875,4.28125 c -0.1975,0.43875 -0.46375,0.6325 -0.94125,0.6325 l 0,0 c -0.0138,0 -0.0275,0 -0.04,0 l 0,0 c -0.29375,-0.008 -0.52875,-0.0788 -0.64125,-0.13625 l 0,0 1.14375,-2.415 -1.24,-1.945 c -0.60125,0.0813 -1.1875,0.16625 -1.75375,0.255 l 0,0 1.58625,2.3925 c -0.13375,0.0638 -0.4225,0.1425 -0.77125,0.1425 l 0,0 c -0.53,0 -0.85625,-0.19625 -1.10375,-0.58 l 0,0 -1.095,-1.7225 c -0.105,0.0175 -0.20875,0.0362 -0.31125,0.0562 l 0,0 0,1.53625 c 0,0.445 -0.175,0.7 -1.0425,0.7 l 0,0 c -0.115,0 -0.21625,-0.007 -0.31125,-0.0213 l 0,0 0,-1.94625 c -0.155,0.0325 -0.31,0.0662 -0.46,0.1 l 0,0 c 0.015,0.09 0.0238,0.18375 0.0238,0.2775 l 0,0 c 0,0.82875 -0.5425,1.43375 -1.64125,1.55375 l 0,0 c -0.22,0.0238 -0.465,0.0325 -0.71875,0.0325 l 0,0 c -0.66625,0 -1.38375,-0.065 -1.78,-0.11125 l 0,0 c -0.02,-0.0887 -0.0362,-0.2 -0.0362,-0.2875 l 0,0 c 0,-0.06 0.002,-0.115 0.007,-0.16625 l 0,0 c -0.425,0.19875 -0.78,0.40625 -1.05875,0.62125 l 0,0 c -0.725,0.6025 -0.74375,1.2625 -0.7675,1.39625 l 0,0 c -0.065,0 -0.0888,-0.28625 -0.0888,-0.71375 l 0,0 0.002,-6.87 c 0,-0.79375 0.25875,-1.0625 0.93125,-1.0625 l 0,0 c 0.22875,0 0.4575,0.12125 0.76125,0.12125 l 0,0 16.03875,0 0,-0.2775 -16.77375,0 z m 11.79125,4.39375 0.44375,0.72625 0.3475,-0.81625 c -0.2675,0.0287 -0.53125,0.06 -0.79125,0.09 m -9.06875,1.72 c 0.14375,0.008 0.285,0.0125 0.4125,0.0125 l 0,0 c 0.4825,0 0.635,-0.16125 0.64,-0.31625 l 0,0 c -0.37,0.0975 -0.72,0.19875 -1.0525,0.30375 m 48.30625,3.5625 c 0.72625,0 1.00625,-0.4075 1.0325,-1.0925 l 0,0 c -0.0263,0.685 -0.30625,1.0925 -1.0325,1.0925"
             style="fill:url(#linearGradient7416);stroke:none"
             id="path7434"
             inkscape:connector-curvature="0" />
          <path
             d="m 505.45126,674.44265 c 1.1325,0 1.4775,-0.70375 1.4775,-1.4075 l 0,-7.46875 c 0,-0.70375 -0.345,-1.4075 -1.4775,-1.4075 l -50.9025,0 c -1.1325,0 -1.4775,0.70375 -1.4775,1.4075 l 0,7.46875 c 0,0.70375 0.345,1.4075 1.4775,1.4075 l 50.9025,0 m -50.85,-0.095 c -0.7625,0 -1.27875,-0.45 -1.27875,-1.19875 l 0,-7.69625 c 0,-0.74875 0.51625,-1.19875 1.27875,-1.19875 l 50.7975,0 c 0.7625,0 1.27875,0.45 1.27875,1.19875 l 0,7.69625 c 0,0.74875 -0.51625,1.19875 -1.27875,1.19875 l -50.7975,0"
             style="fill:#a2a2a3;fill-opacity:1;fill-rule:nonzero;stroke:none"
             id="path7446"
             inkscape:connector-curvature="0" />
          <path
             d="m 471.25913,664.50015 0,0.2775 33.48625,0 c 0.30375,0 0.53125,-0.12125 0.76,-0.12125 l 0,0 c 0.6725,0 0.93125,0.26875 0.93125,1.0625 l 0,0 0.004,6.87 c 0,0.4275 -0.025,0.71375 -0.0888,0.71375 l 0,0 c -0.0238,-0.13375 -0.1125,-0.74625 -0.76875,-1.39625 l 0,0 c -0.37375,-0.35 -0.86375,-0.6725 -1.45875,-0.97125 l 0,0 0.40125,1.2725 c -0.1025,0.0413 -0.22625,0.0738 -0.37125,0.095 l 0,0 c -0.145,0.02 -0.28625,0.0312 -0.425,0.0312 l 0,0 c -0.1575,0 -0.31,-0.025 -0.4575,-0.0775 l 0,0 c -0.14875,-0.0512 -0.25625,-0.1675 -0.3225,-0.35 l 0,0 -0.3075,-0.935 -1.9775,0 -0.26125,0.88125 c -0.0662,0.21125 -0.17875,0.345 -0.335,0.4 l 0,0 c -0.1575,0.055 -0.32375,0.0812 -0.4975,0.0812 l 0,0 c -0.115,0 -0.24625,-0.0113 -0.395,-0.0312 l 0,0 c -0.1475,-0.0213 -0.27,-0.05 -0.3675,-0.0862 l 0,0 0.88875,-2.72125 c -0.48875,-0.10875 -0.99625,-0.21 -1.525,-0.305 l 0,0 0.2775,2.98875 c -0.0838,0.0312 -0.185,0.0612 -0.30375,0.0912 l 0,0 c -0.11625,0.03 -0.24625,0.0463 -0.385,0.0463 l 0,0 c -0.1925,0 -0.35625,-0.0338 -0.48875,-0.1 l 0,0 c -0.1325,-0.0662 -0.20625,-0.19125 -0.2175,-0.3725 l 0,0 -0.13625,-1.9625 c -0.025,-0.2925 -0.0475,-0.59625 -0.0675,-0.91125 l 0,0 c -0.115,-0.0175 -0.23125,-0.035 -0.34875,-0.0525 l 0,0 c -0.0687,0.29875 -0.1375,0.57875 -0.20875,0.8375 l 0,0 -0.37125,1.5425 c -0.0913,0.36375 -0.37875,0.54625 -0.86125,0.54625 l 0,0 c -0.12125,0 -0.245,-0.0125 -0.37125,-0.0375 l 0,0 c -0.12625,-0.0238 -0.23625,-0.05 -0.32625,-0.0813 l 0,0 -0.46125,-1.92625 c -0.0913,-0.3575 -0.17625,-0.7075 -0.255,-1.05375 l 0,0 c -0.0138,-0.0612 -0.0275,-0.12375 -0.0412,-0.185 l 0,0 c -0.08,-0.009 -0.16125,-0.0175 -0.2425,-0.025 l 0,0 c -0.01,0.175 -0.0213,0.34375 -0.0337,0.50625 l 0,0 c -0.03,0.4025 -0.0575,0.74875 -0.08,1.04 l 0,0 -0.14625,1.77125 c -0.0113,0.175 -0.0788,0.2975 -0.19875,0.36375 l 0,0 c -0.12125,0.0662 -0.2775,0.1 -0.47125,0.1 l 0,0 c -0.14,0 -0.26125,-0.0138 -0.36625,-0.0412 l 0,0 c -0.10625,-0.0275 -0.19875,-0.0588 -0.2775,-0.0963 l 0,0 0.3675,-3.75625 c -1.1075,-0.095 -2.24875,-0.1725 -3.41875,-0.2325 l 0,0 0,0.54625 2.13,0 c 0.0125,0.0612 0.0238,0.14125 0.0362,0.24125 l 0,0 c 0.0125,0.1 0.0175,0.2075 0.0175,0.3225 l 0,0 c 0,0.24125 -0.0475,0.4075 -0.14375,0.495 l 0,0 c -0.0962,0.0875 -0.21875,0.13125 -0.36375,0.13125 l 0,0 -1.67625,0 0,1.02625 2.43,0 c 0.0112,0.0675 0.0225,0.16 0.035,0.2775 l 0,0 c 0.0125,0.11875 0.0188,0.235 0.0188,0.35 l 0,0 c 0,0.26 -0.0512,0.4425 -0.155,0.545 l 0,0 c -0.10125,0.10375 -0.23125,0.15375 -0.38875,0.15375 l 0,0 -2.60125,0 c -0.16875,0 -0.30625,-0.0175 -0.41125,-0.0538 l 0,0 c -0.10625,-0.0362 -0.18875,-0.0862 -0.245,-0.15 l 0,0 c -0.0575,-0.0638 -0.0975,-0.14 -0.1175,-0.23125 l 0,0 c -0.0213,-0.0912 -0.0325,-0.1875 -0.0325,-0.29125 l 0,0 0,-3.42875 c -0.34875,-0.0138 -0.7025,-0.0263 -1.05375,-0.0375 l 0,0 0,4.12125 c -0.085,0.0413 -0.1875,0.07 -0.30875,0.085 l 0,0 c -0.12,0.0163 -0.23875,0.0238 -0.35375,0.0238 l 0,0 c -0.2825,0 -0.495,-0.04 -0.63375,-0.11875 l 0,0 c -0.13875,-0.0787 -0.25375,-0.1875 -0.345,-0.3275 l 0,0 -2.20125,-3.52375 0,3.37 c 0,0.16875 -0.0512,0.31125 -0.15375,0.42625 l 0,0 c -0.1025,0.11625 -0.29625,0.17375 -0.58,0.17375 l 0,0 c -0.12125,0 -0.23875,-0.008 -0.35375,-0.0188 l 0,0 c -0.115,-0.0113 -0.21125,-0.0275 -0.28875,-0.045 l 0,0 0,-4.225 c -0.35375,0.003 -0.70375,0.006 -1.0575,0.0113 l 0,0 0,3.64 c 0,0.1775 -0.0537,0.32625 -0.1625,0.45 l 0,0 c -0.1075,0.125 -0.31375,0.1875 -0.615,0.1875 l 0,0 c -0.1275,0 -0.2525,-0.008 -0.37625,-0.0188 l 0,0 c -0.125,-0.0113 -0.22875,-0.0275 -0.3125,-0.045 l 0,0 0,-4.185 c -1.1725,0.0275 -2.34125,0.0688 -3.495,0.125 l 0,0 c -0.11375,0.1325 -0.20625,0.28625 -0.27625,0.46125 l 0,0 c -0.0788,0.20125 -0.1175,0.425 -0.1175,0.6725 l 0,0 c 0,0.26125 0.0387,0.495 0.1175,0.7 l 0,0 c 0.0788,0.20625 0.185,0.38125 0.32125,0.5225 l 0,0 c 0.13625,0.1425 0.29875,0.2525 0.485,0.3275 l 0,0 c 0.18875,0.075 0.3875,0.11375 0.59875,0.11375 l 0,0 c 0.1325,0 0.25,-0.01 0.35375,-0.0275 l 0,0 c 0.1025,-0.0188 0.19375,-0.0375 0.275,-0.055 l 0,0 c 0.0825,-0.0175 0.15875,-0.0362 0.2325,-0.0538 l 0,0 c 0.0713,-0.02 0.1475,-0.0287 0.225,-0.0287 l 0,0 c 0.44125,0 0.63875,0.4025 0.59,1.20875 l 0,0 c -0.2475,0.10375 -0.52375,0.1875 -0.82875,0.25375 l 0,0 c -0.305,0.0675 -0.6125,0.1 -0.92,0.1 l 0,0 c -0.42875,0 -0.825,-0.0762 -1.1875,-0.23125 l 0,0 c -0.3625,-0.15375 -0.67625,-0.3675 -0.94125,-0.64 l 0,0 c -0.26625,-0.2725 -0.475,-0.59625 -0.62625,-0.9725 l 0,0 c -0.15,-0.375 -0.22625,-0.78 -0.22625,-1.2175 l 0,0 c 0,-0.36625 0.0563,-0.7125 0.16875,-1.03875 l 0,0 c -0.66125,0.0388 -1.315,0.0838 -1.96375,0.13125 l 0,0 0,5.7575 34.255,0 c 0.72625,0 1.00625,-0.4075 1.0325,-1.0925 l 0,0 c 0,-0.035 0.001,-0.0712 0.001,-0.1075 l 0,0 0,-7.2775 c 0,-0.74875 -0.27125,-1.19875 -1.03375,-1.19875 l 0,0 -34.255,0 z m 13.625,5.59875 0,-2.04625 c -0.435,-0.009 -0.87125,-0.0163 -1.31,-0.02 l 0,0 1.31,2.06625 z m 10.03625,-0.85875 c 0.075,0.3675 0.1425,0.74375 0.20375,1.1325 l 0,0 0.0362,0 c 0.0663,-0.38875 0.13625,-0.76375 0.2075,-1.1275 l 0,0 c 0.0325,-0.1625 0.0662,-0.32 0.1,-0.47 l 0,0 c -0.21875,-0.0288 -0.44,-0.055 -0.6625,-0.0825 l 0,0 c 0.0375,0.17375 0.075,0.35625 0.115,0.5475 m 6.0625,0.595 0.1125,0 c -0.035,-0.009 -0.0687,-0.0175 -0.10375,-0.0275 l 0,0 -0.009,0.0275 z"
             style="fill:url(#linearGradient7458);stroke:none"
             id="path7470"
             inkscape:connector-curvature="0" />
          <path
             d="m 476.03513,672.3884 c -0.42875,0 -0.825,-0.0775 -1.1875,-0.23125 -0.3625,-0.155 -0.67625,-0.36875 -0.94125,-0.64125 -0.26625,-0.2725 -0.475,-0.59625 -0.62625,-0.97125 -0.15,-0.37625 -0.22625,-0.78125 -0.22625,-1.2175 0,-0.42375 0.0763,-0.82125 0.22625,-1.19 0.15125,-0.37 0.36,-0.69 0.62625,-0.9625 0.265,-0.2725 0.57875,-0.48625 0.94125,-0.64125 0.3625,-0.15375 0.75875,-0.23125 1.1875,-0.23125 0.30875,0 0.6075,0.0338 0.8975,0.1 0.29,0.0662 0.55875,0.15125 0.80625,0.25375 0.0537,0.80625 -0.1425,1.20875 -0.58875,1.20875 -0.0788,0 -0.15125,-0.009 -0.2175,-0.0275 -0.0675,-0.0175 -0.14,-0.0362 -0.2175,-0.055 -0.0788,-0.0175 -0.16625,-0.0362 -0.26375,-0.0538 -0.0962,-0.0187 -0.21125,-0.0275 -0.34375,-0.0275 -0.21125,0 -0.41125,0.0375 -0.5975,0.11375 -0.1875,0.0762 -0.35,0.185 -0.485,0.3275 -0.13625,0.14125 -0.24375,0.3125 -0.3225,0.5125 -0.0775,0.2 -0.1175,0.42375 -0.1175,0.6725 0,0.26 0.04,0.49375 0.1175,0.7 0.0788,0.205 0.18625,0.38 0.3225,0.52125 0.135,0.1425 0.2975,0.25125 0.485,0.3275 0.18625,0.0762 0.38625,0.11375 0.5975,0.11375 0.1325,0 0.25,-0.009 0.35375,-0.0275 0.1025,-0.0187 0.195,-0.0362 0.27625,-0.055 0.0812,-0.0175 0.15875,-0.0362 0.23125,-0.0538 0.0725,-0.0187 0.1475,-0.0275 0.22625,-0.0275 0.44125,0 0.6375,0.4025 0.58875,1.20875 -0.2475,0.1025 -0.52375,0.1875 -0.82875,0.25375 -0.305,0.0662 -0.61125,0.1 -0.92,0.1"
             style="fill:#ffffff;fill-opacity:1;fill-rule:nonzero;stroke:none"
             id="path7482"
             inkscape:connector-curvature="0" />
          <path
             d="m 479.16213,672.31577 c -0.12625,0 -0.2525,-0.006 -0.37625,-0.0188 -0.12375,-0.0113 -0.2275,-0.0263 -0.3125,-0.045 l 0,-5.26 c 0,-0.175 0.055,-0.325 0.16375,-0.44875 0.10875,-0.125 0.31375,-0.18625 0.615,-0.18625 0.1275,0 0.2525,0.006 0.37625,0.0175 0.12375,0.0125 0.22875,0.0275 0.3125,0.0462 l 0,5.25875 c 0,0.17625 -0.0537,0.32625 -0.1625,0.45 -0.10875,0.12375 -0.31375,0.18625 -0.61625,0.18625"
             style="fill:#ffffff;fill-opacity:1;fill-rule:nonzero;stroke:none"
             id="path7486"
             inkscape:connector-curvature="0" />
          <path
             d="m 481.64038,672.31577 c -0.12125,0 -0.23875,-0.006 -0.35375,-0.0188 -0.115,-0.0113 -0.21125,-0.0263 -0.29,-0.045 l 0,-5.78625 c 0.0913,-0.03 0.20875,-0.0562 0.35375,-0.0775 0.145,-0.0213 0.26875,-0.0312 0.37125,-0.0312 0.3325,0 0.57375,0.0425 0.725,0.12625 0.15125,0.085 0.2775,0.21 0.38125,0.3725 l 2.05625,3.24375 0,-3.16125 c 0,-0.0788 0.01,-0.15375 0.0325,-0.2225 0.02,-0.07 0.0562,-0.1325 0.1075,-0.18625 0.0512,-0.055 0.1225,-0.0975 0.21375,-0.1275 0.09,-0.03 0.205,-0.045 0.34375,-0.045 0.12125,0 0.2375,0.006 0.34875,0.0175 0.1125,0.0125 0.2075,0.025 0.28625,0.0362 l 0,5.79625 c -0.085,0.0425 -0.1875,0.0712 -0.30875,0.0862 -0.12125,0.015 -0.23875,0.0225 -0.3525,0.0225 -0.285,0 -0.49625,-0.0388 -0.635,-0.1175 -0.13875,-0.0788 -0.25375,-0.18875 -0.34375,-0.3275 l -2.2025,-3.525 0,3.37 c 0,0.17 -0.0512,0.3125 -0.15375,0.4275 -0.1025,0.115 -0.29625,0.1725 -0.58,0.1725"
             style="fill:#ffffff;fill-opacity:1;fill-rule:nonzero;stroke:none"
             id="path7490"
             inkscape:connector-curvature="0" />
          <path
             d="m 488.07726,672.2794 c -0.16875,0 -0.30625,-0.0187 -0.4125,-0.055 -0.105,-0.0362 -0.1875,-0.0862 -0.245,-0.15 -0.0562,-0.0625 -0.0962,-0.14 -0.1175,-0.23125 -0.0213,-0.0913 -0.0312,-0.1875 -0.0312,-0.29 l 0,-4.45125 c 0,-0.10375 0.01,-0.2 0.0312,-0.29125 0.0213,-0.0913 0.0613,-0.1675 0.1175,-0.23125 0.0575,-0.0637 0.14,-0.11375 0.245,-0.15 0.10625,-0.0362 0.24375,-0.055 0.4125,-0.055 l 2.99875,0 c 0.0125,0.0675 0.025,0.1575 0.0362,0.2725 0.0125,0.115 0.0188,0.23375 0.0188,0.355 0,0.25375 -0.0512,0.43375 -0.15375,0.54 -0.10375,0.10625 -0.2325,0.15875 -0.39,0.15875 l -1.84875,0 0,1.03625 2.13,0 c 0.0112,0.06 0.0238,0.14 0.0362,0.24 0.0113,0.1 0.0175,0.2075 0.0175,0.3225 0,0.2425 -0.0487,0.4075 -0.145,0.495 -0.0962,0.0888 -0.2175,0.1325 -0.3625,0.1325 l -1.67625,0 0,1.02625 2.42875,0 c 0.0125,0.0662 0.0238,0.15875 0.0362,0.2775 0.0113,0.1175 0.0175,0.23375 0.0175,0.34875 0,0.26125 -0.0512,0.4425 -0.15375,0.545 -0.1025,0.10375 -0.2325,0.155 -0.39,0.155 l -2.6,0"
             style="fill:#ffffff;fill-opacity:1;fill-rule:nonzero;stroke:none"
             id="path7494"
             inkscape:connector-curvature="0" />
          <path
             d="m 492.43301,672.31577 c -0.13875,0 -0.26125,-0.0138 -0.3675,-0.0412 -0.105,-0.0275 -0.1975,-0.0588 -0.27625,-0.095 l 0.55375,-5.66 c 0.115,-0.0475 0.26625,-0.0875 0.45375,-0.1175 0.18625,-0.03 0.3475,-0.045 0.48,-0.045 0.1875,0 0.34875,0.0113 0.48375,0.0362 0.13625,0.0237 0.2525,0.065 0.34875,0.1225 0.0975,0.0575 0.17375,0.1375 0.23125,0.24 0.0575,0.10375 0.10125,0.23125 0.13125,0.3825 l 0.23625,1.09875 c 0.0663,0.3025 0.13625,0.6375 0.2125,1.00375 0.075,0.36625 0.14375,0.74375 0.20375,1.13125 l 0.0362,0 c 0.0663,-0.3875 0.135,-0.76375 0.2075,-1.12625 0.0725,-0.36375 0.14875,-0.69625 0.22625,-1 l 0.29,-1.15375 c 0.0725,-0.28375 0.18875,-0.4775 0.34875,-0.58125 0.15875,-0.1025 0.40875,-0.15375 0.74625,-0.15375 0.16875,0 0.33875,0.0137 0.51125,0.04 0.17125,0.0275 0.315,0.0562 0.43,0.0862 l 0.52875,5.69625 c -0.0838,0.03 -0.185,0.06 -0.30375,0.0912 -0.1175,0.03 -0.24625,0.045 -0.385,0.045 -0.1925,0 -0.35625,-0.0338 -0.48875,-0.1 -0.1325,-0.0662 -0.205,-0.19125 -0.2175,-0.3725 l -0.13625,-1.9625 c -0.03,-0.345 -0.0562,-0.70625 -0.0762,-1.085 -0.0213,-0.37875 -0.035,-0.7375 -0.0413,-1.07625 l -0.0187,0 c -0.0775,0.315 -0.1575,0.655 -0.24,1.02125 -0.0813,0.36625 -0.16375,0.705 -0.24875,1.01375 l -0.37125,1.54375 c -0.0913,0.36375 -0.3775,0.545 -0.86125,0.545 -0.12125,0 -0.245,-0.0125 -0.37125,-0.0362 -0.1275,-0.0237 -0.23625,-0.0512 -0.32625,-0.0812 l -0.4625,-1.92625 c -0.09,-0.3575 -0.175,-0.70875 -0.25375,-1.05375 -0.0787,-0.345 -0.15125,-0.69 -0.2175,-1.03625 l -0.0263,0 c -0.0188,0.485 -0.0425,0.92875 -0.0725,1.33125 -0.0312,0.4025 -0.0575,0.75 -0.0825,1.04 l -0.145,1.77125 c -0.0112,0.17625 -0.0775,0.2975 -0.19875,0.36375 -0.12125,0.0662 -0.2775,0.1 -0.47125,0.1"
             style="fill:#ffffff;fill-opacity:1;fill-rule:nonzero;stroke:none"
             id="path7498"
             inkscape:connector-curvature="0" />
          <path
             d="m 500.98288,669.83577 1.35625,0 -0.67625,-2.225 -0.68,2.225 m -1.41375,2.49875 c -0.115,0 -0.24625,-0.0113 -0.39375,-0.0325 -0.14875,-0.0213 -0.27,-0.05 -0.3675,-0.0862 l 1.88,-5.75875 c 0.16375,-0.0425 0.32875,-0.0738 0.49625,-0.0913 0.16625,-0.0187 0.31875,-0.0275 0.45875,-0.0275 0.2,0 0.37,0.015 0.5125,0.045 0.1425,0.0312 0.2625,0.0762 0.36,0.13625 0.0962,0.0612 0.17625,0.14125 0.24,0.24125 0.0637,0.1 0.11625,0.21625 0.15875,0.35 l 1.61125,5.09625 c -0.1025,0.0425 -0.22625,0.0737 -0.37125,0.095 -0.145,0.0213 -0.28625,0.0325 -0.425,0.0325 -0.1575,0 -0.31,-0.0263 -0.45875,-0.0775 -0.1475,-0.0512 -0.255,-0.16875 -0.32125,-0.35 l -0.30875,-0.93625 -1.97625,0 -0.26125,0.88125 c -0.0662,0.2125 -0.1775,0.34625 -0.335,0.4 -0.1575,0.055 -0.32375,0.0825 -0.49875,0.0825"
             style="fill:#ffffff;fill-opacity:1;fill-rule:nonzero;stroke:none"
             id="path7502"
             inkscape:connector-curvature="0" />
          <path
             d="m 459.60863,670.26427 c 0,0.82875 -0.54125,1.43375 -1.64125,1.55375 -0.7975,0.085 -1.95125,-0.0163 -2.49875,-0.0788 -0.02,-0.09 -0.0362,-0.20125 -0.0362,-0.28875 0,-0.725 0.3925,-0.89 0.75875,-0.89 0.38125,0 0.9825,0.0662 1.42875,0.0662 0.49125,0 0.64125,-0.16625 0.64125,-0.325 0,-0.20875 -0.19875,-0.295 -0.58,-0.3675 l -1.04375,-0.20125 c -0.8675,-0.16625 -1.33125,-0.76625 -1.33125,-1.40375 0,-0.775 0.54875,-1.42375 1.6275,-1.54375 0.815,-0.0875 1.8075,0.0125 2.3525,0.0788 0.02,0.0937 0.03,0.1825 0.03,0.27875 0,0.7225 -0.38125,0.87875 -0.74875,0.87875 -0.28125,0 -0.72,-0.0525 -1.21875,-0.0525 -0.50875,0 -0.72,0.14 -0.72,0.3125 0,0.18 0.20125,0.255 0.52,0.31125 l 0.99625,0.185 c 1.025,0.18875 1.46375,0.77 1.46375,1.48625 m 1.79,0.88875 c 0,0.445 -0.175,0.70125 -1.04125,0.70125 -0.115,0 -0.21625,-0.009 -0.3125,-0.0225 l 0,-5.89375 c 0,-0.4475 0.1525,-0.915 1.02875,-0.915 0.11,0 0.22125,0.0113 0.325,0.0338 l 0,6.09625 m 3.545,2.28125 c 0.11375,0.0575 0.3475,0.1275 0.64125,0.13625 0.5025,0.01 0.7775,-0.1825 0.98125,-0.63375 l 2.7025,-6.0275 c -0.11125,-0.06 -0.3575,-0.12625 -0.56125,-0.13125 -0.34625,-0.006 -0.8125,0.065 -1.11125,0.77625 l -0.875,2.065 -1.71625,-2.795 c -0.11,-0.0337 -0.38,-0.0825 -0.57875,-0.0825 -0.605,0 -0.94375,0.22375 -1.295,0.605 l -1.66875,1.82375 1.3425,2.1125 c 0.2475,0.385 0.575,0.58125 1.105,0.58125 0.3475,0 0.63625,-0.0788 0.77,-0.14375 l -1.61625,-2.43625 1.145,-1.2125 1.87875,2.9475 -1.14375,2.415"
             style="fill:#a90e3a;fill-opacity:1;fill-rule:nonzero;stroke:none"
             id="path7506"
             inkscape:connector-curvature="0" />
          <path
             d="m 453.52788,665.7189 -0.002,6.87 c 0,0.4275 0.0238,0.71375 0.0888,0.71375 l 0,0 c 0.0238,-0.13375 0.0425,-0.79375 0.7675,-1.39625 l 0,0 c 0.27875,-0.215 0.63375,-0.4225 1.05875,-0.62125 l 0,0 c 0.0562,-0.585 0.41375,-0.72375 0.75125,-0.72375 l 0,0 c 0.2725,0 0.65625,0.0337 1.01625,0.0525 l 0,0 c 0.3325,-0.105 0.6825,-0.20625 1.0525,-0.30375 l 0,0 c 0.001,-0.004 0.001,-0.005 0.001,-0.009 l 0,0 c 0,-0.20875 -0.2,-0.29375 -0.58,-0.36625 l 0,0 -1.04375,-0.2025 c -0.86875,-0.16625 -1.3325,-0.76625 -1.3325,-1.40375 l 0,0 c 0,-0.775 0.54875,-1.4225 1.6275,-1.54375 l 0,0 c 0.23,-0.0238 0.47375,-0.0338 0.71625,-0.0338 l 0,0 c 0.6225,0 1.245,0.065 1.63625,0.1125 l 0,0 c 0.0213,0.0937 0.0312,0.1825 0.0312,0.28 l 0,0 c 0,0.72125 -0.38125,0.8775 -0.74875,0.8775 l 0,0 c -0.2825,0 -0.72,-0.0525 -1.21875,-0.0525 l 0,0 c -0.51,0 -0.72,0.14125 -0.72,0.3125 l 0,0 c 0,0.18 0.20125,0.25625 0.51875,0.31125 l 0,0 0.9975,0.185 c 0.88875,0.16375 1.33625,0.6225 1.44,1.20875 l 0,0 c 0.15,-0.0338 0.305,-0.0675 0.46,-0.1 l 0,0 0,-3.9475 c 0,-0.4475 0.15125,-0.915 1.02875,-0.915 l 0,0 c 0.11,0 0.22125,0.0113 0.325,0.0325 l 0,0 0,4.56125 c 0.1025,-0.02 0.20625,-0.0388 0.31125,-0.0562 l 0,0 -0.2475,-0.39125 1.66875,-1.82375 c 0.35,-0.38125 0.68875,-0.605 1.295,-0.605 l 0,0 c 0.19875,0 0.46875,0.0488 0.57875,0.0825 l 0,0 1.27125,2.07 c 0.26,-0.03 0.52375,-0.0613 0.79125,-0.09 l 0,0 0.52875,-1.25 c 0.2875,-0.685 0.73125,-0.77625 1.07375,-0.77625 l 0,0 c 0.0125,0 0.025,0 0.0375,0.001 l 0,0 c 0.2025,0.005 0.44875,0.0712 0.56125,0.13 l 0,0 -0.78375,1.7475 c 0.90375,-0.0875 1.83125,-0.16625 2.77375,-0.2375 l 0,0 0,-3.64125 -16.03875,0 c -0.30375,0 -0.5325,-0.12125 -0.76125,-0.12125 l 0,0 c -0.6725,0 -0.93125,0.26875 -0.93125,1.0625 m 9.53625,3.565 0.03,0.045 c 0.56625,-0.0888 1.1525,-0.17375 1.75375,-0.255 l 0,0 -0.63875,-1.0025 -1.145,1.2125 z"
             style="fill:url(#linearGradient7518);stroke:none"
             id="path7536"
             inkscape:connector-curvature="0" />
          <path
             d="m 504.74538,664.77765 -33.48625,0 0,3.64125 c 0.64875,-0.0475 1.3025,-0.0925 1.96375,-0.13125 l 0,0 c 0.0188,-0.0512 0.0375,-0.10125 0.0575,-0.15125 l 0,0 c 0.15125,-0.36875 0.36,-0.68875 0.62625,-0.9625 l 0,0 c 0.265,-0.2725 0.57875,-0.48625 0.94125,-0.64 l 0,0 c 0.3625,-0.15375 0.75875,-0.2325 1.1875,-0.2325 l 0,0 c 0.3075,0 0.6075,0.0338 0.8975,0.10125 l 0,0 c 0.28875,0.0662 0.5575,0.15125 0.80625,0.25375 l 0,0 c 0.0538,0.805 -0.1425,1.20875 -0.58875,1.20875 l 0,0 c -0.08,0 -0.15125,-0.01 -0.2175,-0.0275 l 0,0 c -0.0675,-0.0175 -0.14,-0.0375 -0.21875,-0.055 l 0,0 c -0.0775,-0.0187 -0.165,-0.0362 -0.26125,-0.0538 l 0,0 c -0.0975,-0.0187 -0.2125,-0.0275 -0.345,-0.0275 l 0,0 c -0.21125,0 -0.41,0.0375 -0.59875,0.11375 l 0,0 c -0.18625,0.075 -0.34875,0.185 -0.485,0.32625 l 0,0 c -0.015,0.0163 -0.0312,0.0338 -0.045,0.0512 l 0,0 c 1.15375,-0.0562 2.3225,-0.0975 3.495,-0.125 l 0,0 0,-1.075 c 0,-0.175 0.0537,-0.325 0.1625,-0.45 l 0,0 c 0.10875,-0.12375 0.31375,-0.185 0.61625,-0.185 l 0,0 c 0.12625,0 0.25125,0.005 0.37625,0.0175 l 0,0 c 0.12375,0.0125 0.2275,0.0275 0.31125,0.045 l 0,0 0,1.61875 c 0.35375,-0.005 0.70375,-0.009 1.0575,-0.0113 l 0,0 0,-1.5625 c 0.0888,-0.0287 0.2075,-0.055 0.3525,-0.0762 l 0,0 c 0.145,-0.0213 0.26875,-0.0312 0.37125,-0.0312 l 0,0 c 0.3325,0 0.57375,0.0412 0.725,0.12625 l 0,0 c 0.15125,0.085 0.2775,0.20875 0.38125,0.3725 l 0,0 0.74625,1.17625 c 0.43875,0.004 0.875,0.0113 1.31,0.02 l 0,0 0,-1.115 c 0,-0.0788 0.01,-0.1525 0.0312,-0.22125 l 0,0 c 0.0212,-0.07 0.0575,-0.13375 0.11,-0.1875 l 0,0 c 0.05,-0.0538 0.1225,-0.0963 0.2125,-0.12625 l 0,0 c 0.0913,-0.0312 0.205,-0.045 0.34375,-0.045 l 0,0 c 0.12125,0 0.2375,0.005 0.34875,0.0175 l 0,0 c 0.1125,0.0125 0.2075,0.0238 0.28625,0.0362 l 0,0 0,1.675 c 0.35125,0.0113 0.705,0.0237 1.05375,0.0375 l 0,0 0,-1.0225 c 0,-0.1025 0.0113,-0.2 0.0325,-0.29125 l 0,0 c 0.02,-0.09 0.06,-0.1675 0.1175,-0.23125 l 0,0 c 0.0562,-0.0638 0.13875,-0.11375 0.245,-0.15 l 0,0 c 0.105,-0.0362 0.2425,-0.0538 0.41125,-0.0538 l 0,0 3,0 c 0.0125,0.0663 0.0237,0.1575 0.0362,0.2725 l 0,0 c 0.0112,0.11375 0.0187,0.2325 0.0187,0.35375 l 0,0 c 0,0.255 -0.0525,0.435 -0.155,0.54 l 0,0 c -0.1025,0.1075 -0.2325,0.16 -0.39,0.16 l 0,0 -1.84875,0 0,0.48875 c 1.17,0.06 2.31125,0.1375 3.41875,0.2325 l 0,0 0.1875,-1.9025 c 0.115,-0.0487 0.265,-0.0875 0.4525,-0.1175 l 0,0 c 0.18625,-0.0312 0.3475,-0.045 0.48,-0.045 l 0,0 c 0.18625,0 0.34875,0.01 0.48375,0.035 l 0,0 c 0.13625,0.0237 0.2525,0.0662 0.35,0.1225 l 0,0 c 0.095,0.0575 0.17375,0.1375 0.23,0.24125 l 0,0 c 0.0575,0.1025 0.10125,0.23 0.1325,0.38125 l 0,0 0.235,1.09875 c 0.0312,0.14625 0.0638,0.2975 0.0975,0.45625 l 0,0 c 0.2225,0.0275 0.44375,0.0538 0.6625,0.0825 l 0,0 c 0.0413,-0.18625 0.0838,-0.36125 0.12625,-0.52875 l 0,0 0.29,-1.15375 c 0.0725,-0.285 0.18875,-0.47875 0.3475,-0.58125 l 0,0 c 0.16,-0.10375 0.41,-0.15375 0.7475,-0.15375 l 0,0 c 0.16875,0 0.34,0.0125 0.51,0.04 l 0,0 c 0.1725,0.0275 0.315,0.0562 0.43,0.0862 l 0,0 0.2525,2.70625 c 0.52875,0.095 1.03625,0.19625 1.525,0.305 l 0,0 0.99125,-3.03875 c 0.165,-0.0425 0.32875,-0.0725 0.495,-0.09 l 0,0 c 0.16625,-0.02 0.32125,-0.0287 0.45875,-0.0287 l 0,0 c 0.20125,0 0.37125,0.0162 0.515,0.0462 l 0,0 c 0.14125,0.03 0.26,0.075 0.35875,0.13625 l 0,0 c 0.0962,0.0613 0.17625,0.14125 0.24,0.24125 l 0,0 c 0.0637,0.1 0.11625,0.215 0.15875,0.34875 l 0,0 1.21,3.825 c 0.595,0.29875 1.085,0.62125 1.45875,0.97125 l 0,0 c 0.65625,0.65 0.745,1.2625 0.76875,1.39625 l 0,0 c 0.0638,0 0.0888,-0.28625 0.0888,-0.71375 l 0,0 -0.004,-6.87 c 0,-0.79375 -0.25875,-1.0625 -0.93125,-1.0625 l 0,0 c -0.22875,0 -0.45625,0.12125 -0.76,0.12125 m -3.75375,5.03 c 0.035,0.01 0.0688,0.0188 0.10375,0.0275 l 0,0 1.24375,0 -0.67625,-2.225 -0.67125,2.1975 z m -7.58875,-2.0975 c -0.0112,0.29 -0.0238,0.56375 -0.04,0.825 l 0,0 c 0.0812,0.007 0.1625,0.0162 0.2425,0.025 l 0,0 c -0.0638,-0.28375 -0.12125,-0.5675 -0.17625,-0.85 l 0,0 -0.0263,0 z m 3.37875,0.009 c -0.0788,0.315 -0.15875,0.65625 -0.23875,1.0225 l 0,0 c -0.0138,0.0588 -0.0275,0.11875 -0.0413,0.17625 l 0,0 c 0.1175,0.0175 0.23375,0.035 0.34875,0.0525 l 0,0 c -0.002,-0.0588 -0.006,-0.115 -0.009,-0.17375 l 0,0 c -0.0213,-0.38 -0.035,-0.73875 -0.0412,-1.0775 l 0,0 -0.0188,0 z"
             style="fill:url(#linearGradient7548);stroke:none"
             id="path7560"
             inkscape:connector-curvature="0" />
          <path
             d="m 473.22388,668.28702 c 0.0175,-0.05 0.0362,-0.1 0.0562,-0.15 0.15125,-0.36875 0.36,-0.69 0.62625,-0.9625 0.265,-0.2725 0.57875,-0.48625 0.94125,-0.64125 0.3625,-0.15375 0.75875,-0.23125 1.1875,-0.23125 0.30875,0 0.6075,0.0338 0.8975,0.1 0.29,0.0662 0.55875,0.15125 0.80625,0.25375 0.0537,0.80625 -0.1425,1.20875 -0.58875,1.20875 -0.0788,0 -0.15125,-0.009 -0.2175,-0.0275 -0.0675,-0.0175 -0.14,-0.0362 -0.2175,-0.0538 -0.0788,-0.0188 -0.16625,-0.0362 -0.26375,-0.055 -0.0962,-0.0175 -0.21125,-0.0275 -0.34375,-0.0275 -0.21125,0 -0.41125,0.0387 -0.5975,0.11375 -0.1875,0.0762 -0.35,0.185 -0.485,0.3275 -0.0163,0.0163 -0.0312,0.0338 -0.0462,0.05 -0.58875,0.0288 -1.175,0.06 -1.755,0.095"
             style="fill:#ffffff;fill-opacity:1;fill-rule:nonzero;stroke:none"
             id="path7572"
             inkscape:connector-curvature="0" />
          <path
             d="m 478.47338,668.0669 0,-1.075 c 0,-0.175 0.055,-0.325 0.16375,-0.44875 0.10875,-0.125 0.31375,-0.18625 0.615,-0.18625 0.1275,0 0.2525,0.006 0.37625,0.0175 0.12375,0.0125 0.22875,0.0275 0.3125,0.0462 l 0,1.6175 c -0.48875,0.008 -0.97875,0.0175 -1.4675,0.0288"
             style="fill:#ffffff;fill-opacity:1;fill-rule:nonzero;stroke:none"
             id="path7576"
             inkscape:connector-curvature="0" />
          <path
             d="m 486.21626,668.0864 c -0.4425,-0.0138 -0.885,-0.025 -1.3325,-0.0338 l 0,-1.115 c 0,-0.0788 0.0113,-0.1525 0.0325,-0.2225 0.0212,-0.0688 0.0575,-0.13125 0.10875,-0.18625 0.0512,-0.0538 0.1225,-0.0963 0.2125,-0.1275 0.0913,-0.03 0.205,-0.045 0.345,-0.045 0.12,0 0.23625,0.006 0.34875,0.0187 0.11125,0.0113 0.20625,0.0238 0.285,0.0362 l 0,1.675 m -2.64375,-0.055 c -0.51,-0.005 -1.02375,-0.007 -1.53625,-0.007 -0.345,0 -0.69375,0.001 -1.03875,0.004 l 0,-1.5625 c 0.09,-0.03 0.2075,-0.055 0.3525,-0.0762 0.145,-0.0213 0.26875,-0.0325 0.37125,-0.0325 0.3325,0 0.575,0.0425 0.725,0.1275 0.15125,0.085 0.27875,0.20875 0.38125,0.3725 l 0.745,1.175"
             style="fill:#ffffff;fill-opacity:1;fill-rule:nonzero;stroke:none"
             id="path7580"
             inkscape:connector-curvature="0" />
          <path
             d="m 488.73876,668.18977 c -0.485,-0.025 -0.975,-0.0475 -1.4675,-0.0662 l 0,-1.0225 c 0,-0.1025 0.01,-0.2 0.0312,-0.29 0.0213,-0.0912 0.06,-0.16875 0.1175,-0.2325 0.0575,-0.0625 0.13875,-0.1125 0.245,-0.14875 0.105,-0.0362 0.2425,-0.055 0.4125,-0.055 l 2.99875,0 c 0.0125,0.0662 0.0238,0.1575 0.0362,0.2725 0.0125,0.115 0.0188,0.23375 0.0188,0.35375 0,0.255 -0.0512,0.435 -0.155,0.54125 -0.1025,0.10625 -0.2325,0.15875 -0.38875,0.15875 l -1.84875,0 0,0.48875"
             style="fill:#ffffff;fill-opacity:1;fill-rule:nonzero;stroke:none"
             id="path7584"
             inkscape:connector-curvature="0" />
          <path
             d="m 498.17163,669.18965 c -0.42875,-0.0775 -0.86875,-0.15 -1.32,-0.22 -0.004,-0.0575 -0.007,-0.115 -0.01,-0.17375 -0.0213,-0.37875 -0.035,-0.7375 -0.0412,-1.07625 l -0.0175,0 c -0.0787,0.315 -0.15875,0.655 -0.24125,1.02125 -0.0125,0.06 -0.0263,0.11875 -0.04,0.17625 -0.3375,-0.0488 -0.68375,-0.0962 -1.03375,-0.1425 0.0413,-0.185 0.0838,-0.36125 0.12625,-0.52875 l 0.29,-1.15375 c 0.0725,-0.285 0.18875,-0.47875 0.34875,-0.58125 0.15875,-0.1025 0.40875,-0.15375 0.74625,-0.15375 0.16875,0 0.33875,0.0125 0.51125,0.04 0.17125,0.0275 0.315,0.0562 0.43,0.0862 l 0.25125,2.70625 m -3.36625,-0.4975 c -0.39375,-0.0462 -0.79375,-0.0912 -1.2,-0.1325 -0.0625,-0.28375 -0.12125,-0.56625 -0.17625,-0.85 l -0.0263,0 c -0.0112,0.29 -0.0238,0.565 -0.0387,0.825 -0.3975,-0.04 -0.8,-0.0775 -1.20625,-0.1125 l 0.18625,-1.9025 c 0.11375,-0.0475 0.265,-0.0875 0.4525,-0.1175 0.1875,-0.03 0.3475,-0.045 0.48,-0.045 0.1875,0 0.34875,0.0112 0.48375,0.0362 0.13625,0.0237 0.2525,0.065 0.35,0.1225 0.0962,0.0575 0.1725,0.1375 0.23,0.24 0.0575,0.10375 0.10125,0.23 0.13125,0.38125 l 0.23625,1.1 c 0.0312,0.145 0.0638,0.29625 0.0975,0.455"
             style="fill:#ffffff;fill-opacity:1;fill-rule:nonzero;stroke:none"
             id="path7588"
             inkscape:connector-curvature="0" />
          <path
             d="m 504.12388,670.93502 c -0.82375,-0.41375 -1.845,-0.77875 -3.02875,-1.09875 l 1.24375,0 -0.67625,-2.22625 -0.67125,2.1975 c -0.4125,-0.11 -0.84625,-0.215 -1.295,-0.31375 l 0.9925,-3.0375 c 0.1625,-0.0425 0.32875,-0.0725 0.495,-0.0913 0.16625,-0.0175 0.32,-0.0263 0.45875,-0.0263 0.2,0 0.37125,0.015 0.51375,0.045 0.14125,0.03 0.26125,0.0762 0.35875,0.13625 0.0962,0.0612 0.17625,0.14125 0.24,0.24125 0.0637,0.1 0.1175,0.21625 0.16,0.34875 l 1.20875,3.825"
             style="fill:#ffffff;fill-opacity:1;fill-rule:nonzero;stroke:none"
             id="path7592"
             inkscape:connector-curvature="0" />
          <path
             d="m 455.44051,671.28415 c 0.0562,-0.58375 0.41375,-0.72375 0.75125,-0.72375 0.2725,0 0.65625,0.0338 1.01625,0.0538 -0.67625,0.2125 -1.27,0.43625 -1.7675,0.67 m 2.82,-0.97375 c 0,-0.004 0,-0.006 0,-0.009 0,-0.2075 -0.19875,-0.295 -0.58,-0.3675 l -1.0425,-0.2 c -0.86875,-0.1675 -1.33125,-0.7675 -1.33125,-1.405 0,-0.775 0.5475,-1.42375 1.62625,-1.5425 0.23,-0.025 0.4725,-0.035 0.71625,-0.035 0.6225,0 1.245,0.065 1.63625,0.1125 0.02,0.0937 0.0312,0.1825 0.0312,0.28 0,0.7225 -0.38125,0.8775 -0.74875,0.8775 -0.2825,0 -0.72,-0.0525 -1.22,-0.0525 -0.50875,0 -0.72,0.14125 -0.72,0.3125 0,0.18 0.20125,0.255 0.52,0.31125 l 0.9975,0.185 c 0.8875,0.16375 1.33625,0.6225 1.44,1.20875 -0.465,0.10375 -0.90625,0.2125 -1.325,0.32375 m 1.785,-0.425 0,-3.9475 c 0,-0.4475 0.15125,-0.915 1.0275,-0.915 0.11125,0 0.2225,0.0125 0.325,0.0337 l 0,4.56125 c -0.4675,0.0863 -0.91875,0.175 -1.3525,0.2675 m 1.665,-0.325 -0.2475,-0.39 1.6675,-1.82375 c 0.35125,-0.38125 0.69125,-0.605 1.295,-0.605 0.19875,0 0.46875,0.0487 0.58,0.0825 l 1.27125,2.07 c -0.48625,0.0575 -0.96125,0.1175 -1.42875,0.18 l -0.63875,-1.0025 -1.145,1.2125 0.0288,0.045 c -0.47375,0.0738 -0.935,0.15125 -1.3825,0.23125 m 5.35625,-0.75625 0.53,-1.25 c 0.2875,-0.68625 0.73125,-0.77625 1.07375,-0.77625 0.0125,0 0.025,0 0.0375,0 0.2025,0.005 0.44875,0.0712 0.56125,0.13125 l -0.78375,1.7475 c -0.47875,0.0462 -0.9525,0.0962 -1.41875,0.1475"
             style="fill:#c9747a;fill-opacity:1;fill-rule:nonzero;stroke:none"
             id="path7596"
             inkscape:connector-curvature="0" />
        </g>
      </g>
    </g>
    <g
       id="g4431">
      <path
         d="m 471.36488,680.54327 c -0.255,0 -0.49125,-0.0462 -0.70875,-0.1375 -0.2175,-0.0925 -0.40625,-0.22125 -0.56625,-0.38625 -0.15875,-0.165 -0.28375,-0.36125 -0.37375,-0.59 -0.09,-0.22875 -0.135,-0.47875 -0.135,-0.74875 0,-0.2625 0.045,-0.50875 0.135,-0.7375 0.09,-0.22875 0.215,-0.4275 0.37375,-0.59625 0.16,-0.16875 0.34875,-0.30125 0.56625,-0.39625 0.2175,-0.0963 0.45375,-0.14375 0.70875,-0.14375 0.19125,0 0.37375,0.0188 0.54875,0.0563 0.17375,0.0375 0.34,0.0875 0.4975,0.15125 0.004,0.0263 0.007,0.05 0.009,0.0713 0.002,0.02 0.002,0.0412 0.002,0.0638 0,0.12 -0.0262,0.21375 -0.0787,0.28125 -0.0525,0.0675 -0.1175,0.10125 -0.19625,0.10125 -0.0375,0 -0.0788,-0.006 -0.12375,-0.0225 -0.045,-0.015 -0.0975,-0.0312 -0.155,-0.05 -0.0587,-0.0187 -0.12625,-0.0362 -0.205,-0.0512 -0.0788,-0.015 -0.17125,-0.0225 -0.27625,-0.0225 -0.16125,0 -0.31125,0.0312 -0.45,0.0937 -0.13875,0.0612 -0.26,0.14875 -0.3625,0.26125 -0.10375,0.1125 -0.185,0.24875 -0.2425,0.4075 -0.0587,0.16 -0.0875,0.3375 -0.0875,0.5325 0,0.2025 0.0288,0.38375 0.0875,0.5425 0.0575,0.16 0.13875,0.295 0.2425,0.405 0.1025,0.11125 0.22375,0.195 0.3625,0.25125 0.13875,0.0563 0.28875,0.0838 0.45,0.0838 0.105,0 0.19625,-0.007 0.2725,-0.0225 0.0775,-0.015 0.14375,-0.0312 0.2,-0.05 0.0563,-0.0187 0.105,-0.0362 0.14625,-0.0512 0.0412,-0.015 0.0825,-0.0225 0.12375,-0.0225 0.0937,0 0.16875,0.0312 0.225,0.0937 0.0563,0.0613 0.085,0.1525 0.085,0.2725 l 0,0.0725 c 0,0.0225 -0.004,0.0488 -0.0113,0.0788 -0.1575,0.0675 -0.32125,0.12 -0.49,0.155 -0.16875,0.0362 -0.36,0.0538 -0.57375,0.0538"
         style="fill:#070707;fill-opacity:1;fill-rule:nonzero;stroke:none"
         id="path7600"
         inkscape:connector-curvature="0" />
      <path
         d="m 474.49376,680.00302 c 0.1575,0 0.30625,-0.035 0.445,-0.10375 0.13875,-0.07 0.26,-0.165 0.365,-0.285 0.105,-0.12 0.1875,-0.2625 0.2475,-0.4275 0.06,-0.165 0.09,-0.34125 0.09,-0.52875 0,-0.1875 -0.0288,-0.3625 -0.0863,-0.52625 -0.0587,-0.1625 -0.13875,-0.30375 -0.2425,-0.4225 -0.10375,-0.1175 -0.22375,-0.21 -0.3625,-0.2775 -0.13875,-0.0675 -0.28875,-0.10125 -0.45,-0.10125 -0.15875,0 -0.30625,0.0325 -0.445,0.0975 -0.13875,0.0663 -0.26,0.1575 -0.3625,0.27625 -0.10375,0.1175 -0.185,0.2575 -0.245,0.41875 -0.06,0.16125 -0.09,0.3375 -0.09,0.53 0,0.195 0.0288,0.375 0.0863,0.54 0.0587,0.165 0.13875,0.3075 0.2425,0.4275 0.10375,0.12 0.22375,0.21375 0.3625,0.28125 0.13875,0.0675 0.2875,0.10125 0.445,0.10125 m 0.006,0.5625 c -0.2675,0 -0.51125,-0.05 -0.7325,-0.14875 -0.22125,-0.1 -0.41,-0.23625 -0.5675,-0.41125 -0.15875,-0.17375 -0.28125,-0.37625 -0.36875,-0.6075 -0.0888,-0.23125 -0.1325,-0.47875 -0.1325,-0.745 0,-0.26375 0.0437,-0.51 0.1325,-0.74 0.0875,-0.23125 0.21,-0.43125 0.36875,-0.6 0.1575,-0.16875 0.34625,-0.30125 0.5675,-0.4 0.22125,-0.0975 0.465,-0.14625 0.7325,-0.14625 0.26625,0 0.51,0.0488 0.73125,0.14625 0.22125,0.0987 0.41,0.23125 0.5675,0.4 0.15875,0.16875 0.28125,0.3675 0.36875,0.59625 0.0888,0.22875 0.1325,0.47625 0.1325,0.74375 0,0.26625 -0.0437,0.51375 -0.1325,0.745 -0.0875,0.23125 -0.21,0.43375 -0.36875,0.6075 -0.1575,0.175 -0.34625,0.31125 -0.5675,0.41125 -0.22125,0.0987 -0.465,0.14875 -0.73125,0.14875"
         style="fill:#070707;fill-opacity:1;fill-rule:nonzero;stroke:none"
         id="path7604"
         inkscape:connector-curvature="0" />
      <path
         d="m 476.947,680.52077 c -0.0638,0 -0.11875,-0.006 -0.16625,-0.02 -0.0462,-0.0125 -0.0875,-0.0275 -0.12125,-0.0425 l 0.3725,-3.56125 c 0.0525,-0.0225 0.12125,-0.0412 0.205,-0.0538 0.0837,-0.0137 0.15625,-0.02 0.21625,-0.02 0.1675,0 0.29625,0.025 0.38375,0.0763 0.0875,0.05 0.14625,0.14 0.17625,0.2675 l 0.62,2.4475 0.62375,-2.43125 c 0.03,-0.1275 0.09,-0.21875 0.18,-0.275 0.09,-0.0562 0.21375,-0.085 0.37125,-0.085 0.075,0 0.15125,0.006 0.23,0.0175 0.0788,0.0113 0.145,0.0237 0.1975,0.0387 l 0.3525,3.57875 c -0.0375,0.015 -0.0813,0.03 -0.1325,0.0425 -0.0513,0.0137 -0.1075,0.02 -0.17125,0.02 -0.0863,0 -0.1575,-0.015 -0.21375,-0.045 -0.0562,-0.03 -0.0887,-0.0863 -0.0962,-0.16875 l -0.23875,-2.8925 -0.6875,2.56 c -0.03,0.105 -0.0813,0.1775 -0.155,0.2175 -0.0725,0.0388 -0.16625,0.0588 -0.27875,0.0588 -0.0563,0 -0.115,-0.004 -0.1775,-0.0113 -0.0613,-0.007 -0.1125,-0.0187 -0.15375,-0.0337 l -0.77625,-2.79125 -0.26125,2.8975 c -0.007,0.0788 -0.04,0.13375 -0.0962,0.16375 -0.0562,0.03 -0.12375,0.045 -0.2025,0.045"
         style="fill:#070707;fill-opacity:1;fill-rule:nonzero;stroke:none"
         id="path7608"
         inkscape:connector-curvature="0" />
      <path
         d="m 481.466,680.49252 c -0.13875,0 -0.2275,-0.0275 -0.2675,-0.0813 -0.0388,-0.055 -0.0588,-0.125 -0.0588,-0.21125 l 0,-3.0725 c 0,-0.0862 0.02,-0.15625 0.0588,-0.21125 0.04,-0.0538 0.12875,-0.0813 0.2675,-0.0813 l 1.89125,0 c 0.007,0.03 0.0137,0.0712 0.0187,0.12375 0.006,0.0525 0.009,0.105 0.009,0.1575 0,0.10875 -0.0238,0.185 -0.07,0.2275 -0.0475,0.0438 -0.10375,0.065 -0.17125,0.065 l -1.37375,0 0,0.97875 1.4525,0 c 0.004,0.03 0.008,0.0688 0.0138,0.11625 0.005,0.0462 0.009,0.0962 0.009,0.14875 0,0.105 -0.0225,0.1775 -0.065,0.21875 -0.0437,0.0425 -0.0962,0.0625 -0.16,0.0625 l -1.25,0 0,0.985 1.6375,0 c 0.004,0.03 0.009,0.0688 0.0138,0.115 0.006,0.0475 0.009,0.0962 0.009,0.14875 0,0.1125 -0.0225,0.1925 -0.0675,0.24 -0.045,0.0462 -0.10125,0.07 -0.16875,0.07 l -1.7275,0 z"
         style="fill:#070707;fill-opacity:1;fill-rule:nonzero;stroke:none"
         id="path7612"
         inkscape:connector-curvature="0" />
      <path
         d="m 484.60613,679.91852 0.50125,0 c 0.17625,0 0.34125,-0.0275 0.4975,-0.0812 0.15625,-0.055 0.29125,-0.135 0.4075,-0.2425 0.11625,-0.10625 0.20875,-0.24125 0.27625,-0.4025 0.0675,-0.16125 0.10125,-0.35 0.10125,-0.5675 0,-0.195 -0.0337,-0.36875 -0.10125,-0.52125 -0.0675,-0.15125 -0.16,-0.27875 -0.27625,-0.3825 -0.11625,-0.10375 -0.2525,-0.18125 -0.41,-0.23375 -0.1575,-0.0525 -0.32625,-0.0788 -0.50625,-0.0788 l -0.49,0 0,2.51 z m -0.30375,0.57375 c -0.13875,0 -0.2275,-0.0263 -0.2675,-0.0812 -0.0387,-0.055 -0.0587,-0.125 -0.0587,-0.21125 l 0,-3.0725 c 0,-0.0862 0.02,-0.15625 0.0587,-0.21125 0.04,-0.0538 0.12875,-0.0812 0.2675,-0.0812 l 0.77125,0 c 0.30375,0 0.5775,0.0425 0.82125,0.12625 0.24375,0.085 0.45125,0.20625 0.62125,0.36375 0.17125,0.1575 0.3025,0.34625 0.395,0.5675 0.0913,0.22125 0.1375,0.47 0.1375,0.74375 0,0.25875 -0.045,0.5 -0.135,0.725 -0.09,0.225 -0.22125,0.42125 -0.39375,0.58875 -0.1725,0.16625 -0.3825,0.29875 -0.6275,0.39625 -0.24625,0.0975 -0.525,0.14625 -0.83625,0.14625 l -0.75375,0 z"
         style="fill:#070707;fill-opacity:1;fill-rule:nonzero;stroke:none"
         id="path7616"
         inkscape:connector-curvature="0" />
      <path
         d="m 488.60713,680.5264 c -0.06,0 -0.11875,-0.002 -0.1775,-0.009 -0.0575,-0.005 -0.1025,-0.0125 -0.1325,-0.02 l 0,-1.5525 -1.3275,-2.03125 c 0.0525,-0.03 0.11375,-0.0525 0.18625,-0.0675 0.07,-0.015 0.135,-0.0225 0.19125,-0.0225 0.0975,0 0.17875,0.0113 0.24375,0.0362 0.0662,0.0238 0.12125,0.0725 0.16625,0.14375 l 0.87875,1.4125 0.87125,-1.4075 c 0.0412,-0.0713 0.09,-0.12 0.14625,-0.14625 0.0562,-0.0263 0.13,-0.0388 0.22,-0.0388 0.0525,0 0.11375,0.006 0.18625,0.0188 0.07,0.0137 0.12875,0.035 0.17375,0.065 l -1.305,2.03125 0,1.3225 c 0,0.075 -0.0238,0.13875 -0.0713,0.18875 -0.0462,0.0512 -0.13,0.0762 -0.25,0.0762"
         style="fill:#070707;fill-opacity:1;fill-rule:nonzero;stroke:none"
         id="path7620"
         inkscape:connector-curvature="0" />
    </g>
  </g>
</svg>
