<svg width="1872.2pt" height="605.25pt" version="1.1" viewBox="0 0 1872.2 605.25" xmlns="http://www.w3.org/2000/svg">
 <defs>
  <linearGradient id="a" x1="-8600.5" x2="-8600.5" y1="-4687.6" y2="-4591.4" gradientTransform="matrix(-2.9812 0 0 -2.9812 -24493 -13655)" gradientUnits="userSpaceOnUse">
   <stop stop-color="#a80000" offset="0"/>
   <stop stop-color="#a1000c" offset=".38129"/>
   <stop stop-color="#b90019" offset="1"/>
  </linearGradient>
 </defs>
 <path d="m624.21 9e-5h1223c13.753 0 25.006 11.253 25.006 25.006v325.08c0 13.753-11.253 25.006-25.006 25.006h-1223z" fill="url(#a)" stroke-width="2.9812"/>
 <path d="m624.21 375.09h-599.2c-13.753 0-25.006-11.253-25.006-25.006v-325.39c0-13.128 10.94-24.693 24.693-24.693h599.52z" fill="#fff" stroke-width="3.1257"/>
 <g transform="matrix(.75012 0 0 .75012 0 -6e-5)" fill="#fff">
  <path d="m1196.8 46.657c8.08-2.39 17.44-0.61 23.7 5.16 8.96 7.84 10.76 22.47 3.9 32.22-5.08 7.92-15.03 12.37-24.3 10.66-11.61-1.81-21.3-12.73-20.86-24.62-0.19-10.58 7.4-20.56 17.56-23.42z"/>
  <path d="m1017.4 133.46c21.37-5.8 43.96-4.99 65.59-1.1 16.56 3.21 33.02 8.13 47.94 16.07 0.82 7.45 0.64 15.53-3.01 22.28-2.45 4.57-7.4 7.7-12.63 7.47-7.67-0.23-14.56-3.99-21.59-6.62-14.68-6.05-30.63-9.09-46.51-8.39-14.87 0.74-29.66 5.3-41.92 13.84-11.33 7.69-20.34 18.59-26.21 30.93-6.65 14.05-9.41 29.77-8.95 45.25 0.46 14.4 3.53 28.88 10.19 41.73 7.95 15.91 21.5 28.99 37.82 36.15 20.99 9.32 45.36 8.45 66.93 1.55 8.87-2.71 17.08-7.36 26.16-9.37 5.62-1.4 12.21 0.36 15.57 5.29 4.85 6.95 5.01 16.04 4.14 24.15-14.07 7.02-29.27 11.67-44.63 14.88-25.46 5.02-52.52 5.76-77.23-3.13-24.95-8.67-46.58-26.38-60.09-49.06-11.77-19.51-17.68-42.39-17.5-65.12-0.26-25.49 7.13-51.2 21.84-72.12 15.21-21.84 38.36-37.9 64.09-44.68z"/>
  <path d="m1378.5 131.64c20.37-4.35 42.33-2.9 61.39 5.79 14.88 6.78 27.32 18.57 35.15 32.9 9.75 17.49 12.97 37.77 13.25 57.57 0 42.06 0.05 84.12-0.05 126.18 0.17 5.36-2.82 10.92-8.15 12.55-9.57 3.04-19.87 1.53-29.55-0.18-0.06-45.61 0.03-91.23-0.05-136.84-0.58-17.92-4.72-37.02-17.41-50.43-11.02-11.97-27.92-16.85-43.82-16.02-16.43 0.97-32.11 7.86-45.12 17.73-8.09 6.21-15.3 13.73-20.45 22.57-1.14 1.63-0.91 3.67-0.96 5.55 0.08 8.56 0.01 17.11 0.05 25.67 0.02 40.13 0.01 80.26-0.01 120.39 0.21 5.36-3.46 10.34-8.62 11.75-9.37 2.72-19.36 1.35-28.8-0.26-0.16-43.48-0.07-86.96-0.08-130.44 0.08-33.89-0.12-67.78 0.1-101.66 9.07-1.94 18.68-3.43 27.8-0.98 4.91 1.26 9.25 5.39 9.48 10.67 0.35 7.42-0.01 14.85 0.15 22.28 14.33-17.02 33.79-30.09 55.7-34.79z"/>
  <path d="m1579.1 150c30.74-21.87 72.51-26.73 107.67-13.3 16.58 6.46 31.22 17.69 41.88 31.93 10.87 14.34 17.8 31.44 21.11 49.08 3.01 15.84 2.86 32.18 0.27 48.06-60.29 0.07-120.59 0-180.88 0.04 2.21 17.04 8.77 33.95 20.77 46.51 10.38 11.11 24.48 18.3 39.23 21.59 22.1 4.92 45.28 2.4 66.72-4.37 7.84-2.21 15.32-5.66 23.31-7.37 5.57-1.42 11.72 1.3 14.58 6.26 4.25 7.17 3.74 15.87 3.17 23.87-19.57 8.63-40.34 14.62-61.56 17.38-19.3 2.53-39.12 2.24-58.08-2.43-16.65-4.06-32.58-11.5-45.88-22.37-14.06-11.32-25.03-26.31-31.98-42.94-9.86-23.76-12.22-50.39-7.98-75.68 5.19-30.3 22.29-58.65 47.65-76.26m17.36 30.27c-13.64 11.51-22.05 28.12-25.99 45.33-0.44 2.72-0.87 5.44-1.29 8.17 48.37 0 96.74-0.01 145.11 0-0.3-4.91-0.85-9.79-1.77-14.63-3.32-16.57-11.88-32.49-25.42-42.9-26.12-20.22-66.03-17.3-90.64 4.03z"/>
  <path d="m1879.3 133.17c21.25-6.87 45.68-4.8 64.78 7.1 11.91 7.31 21.04 18.49 27.09 31 9.14-13.12 20.8-24.75 35.02-32.29 17.83-9.56 39.11-11.94 58.81-7.71 14.06 3.02 27.23 10.4 36.75 21.24 12.31 13.79 18.58 32.08 20.24 50.29 0.97 10.37 0.4 20.8 0.55 31.21-0.04 40.16 0.05 80.34-0.06 120.5 0.17 5.76-3.84 11.05-9.43 12.42-9.4 2.54-19.36 1.27-28.79-0.52 0.01-42.8-0.01-85.61-0.02-128.42-0.23-11.22 0.66-22.52-0.93-33.67-1.46-9.94-5.03-19.84-11.76-27.44-6.16-7.04-14.97-11.41-24.12-12.93-27.02-5.03-54.58 11.73-66.73 35.54-1.21 2.79-0.57 5.94-0.69 8.89 0.02 48.58 0.05 97.16-0.02 145.74 0.28 5.65-3.22 11.29-8.82 12.76-9.59 2.65-19.77 1.3-29.4-0.44-0.01-29.46-0.01-58.92-0.01-88.38-0.17-22.64 0.32-45.29-0.26-67.92-0.73-9.29-2.85-18.66-7.59-26.77-4.58-7.96-12.01-14.27-20.7-17.29-14.94-5.25-31.92-3.43-45.78 4.04-10.33 5.46-19.26 13.56-25.69 23.31-1.78 2.98-4.3 5.92-4.24 9.58-0.1 3.75 0.03 7.5 0.02 11.25 0.04 46.59 0.01 93.19-0.01 139.78 0.3 5.58-3.05 11.21-8.58 12.75-9.48 2.73-19.63 1.5-29.16-0.36 0-50.27-0.03-100.54 0-150.8 0.02-27.01-0.01-54.02 0.01-81.03 8.65-1.91 17.74-3.44 26.53-1.45 5.05 1.07 9.59 5.03 10.31 10.32 0.86 6.75 0.19 13.59 0.4 20.37 10.8-13.94 25.39-25.23 42.28-30.67z"/>
  <path d="m2255.9 129.89c17.19-1.23 34.69-0.86 51.52 3.17 13.74 3.27 27.14 9.51 37.07 19.76 10.85 10.79 16.89 25.54 19.55 40.42 2.85 14.42 1.83 29.17 2.01 43.77-0.02 43.16 0.03 86.32-0.03 129.48-8.95 1.65-18.28 2.8-27.26 0.8-5.34-1.09-10.03-5.64-10.18-11.26-0.16-7.2 0.01-14.4-0.05-21.59-9.66 10.19-20.7 19.21-33.29 25.52-16.85 8.58-36.04 12-54.84 11.19-15.27-0.63-30.64-4.41-43.72-12.49-14.38-8.77-25.53-22.9-30.05-39.19-4.79-17.16-3.22-36.51 6.17-51.87 6.78-11.09 17.31-19.42 28.76-25.31 16.65-8.48 35.14-12.62 53.58-14.98 24.17-2.98 48.62-2.81 72.9-1.26-0.09-10.48-0.18-21.12-2.94-31.31-2.15-7.96-6.31-15.56-12.73-20.85-7.15-5.88-16.23-8.83-25.27-10.16-25.14-3.34-50.68 1.14-74.67 8.72-5.04 1.38-10 3.18-15.2 3.77-5.25 0.51-10.64-2.24-13.06-6.95-3.77-7.19-3.52-15.68-2.55-23.51 23.88-8.65 48.96-13.95 74.28-15.87m25.3 125.03c-17.4 1.05-35.09 2.99-51.35 9.62-9.34 3.91-18.36 10.1-23 19.37-7.01 13.91-3.62 32.09 7.98 42.52 7.95 7.51 18.67 11.45 29.43 12.56 16.59 1.49 33.6-1.83 48.41-9.5 13.04-6.54 24.33-16.26 33.43-27.61 0.8-1.14 2.07-2.21 1.91-3.77 0.07-14.33-0.06-28.67 0.05-42.99-15.61-0.88-31.25-0.94-46.86-0.2z"/>
  <path d="m1193.1 133.91c9.65-3.09 20.03-1.43 29.72 0.69 0 34.69-0.02 69.38 0 104.07 0.04 38.13-0.02 76.25 0.01 114.38 0.03 4.08-0.97 8.55-4.34 11.2-4.23 3.37-9.94 3.91-15.15 4.07-6.31 0.12-12.58-0.67-18.75-1.87-0.05-42.1-0.02-84.19-0.02-126.29 0.03-31.39-0.05-62.78 0.03-94.17-0.12-5.36 3.32-10.5 8.5-12.08z"/>
 </g>
 <path d="m421.97 333.52c4.0635 2.188 12.19 4.6886 22.818 4.6886 17.817 0.31257 27.507-6.5641 34.696-22.505l95.648-213.18c-4.0635-2.188-12.816-4.376-19.692-4.6886-12.19-0.31257-28.757 2.188-39.384 27.507l-30.945 73.142-60.952-98.461c-4.0635-1.2503-13.441-2.8132-20.63-2.8132-21.255 0-33.445 7.8144-45.948 21.255l-58.764 64.39 47.511 74.705c8.7521 13.753 20.317 20.63 39.072 20.63 12.19 0 22.505-2.8132 27.194-5.0012l-57.201-86.27 40.635-42.823 66.578 104.4zm-125.34-80.644c0 15.629-6.2515 24.693-36.884 24.693-4.0635 0-7.5018-0.31258-10.94-0.93773v-208.17c0-15.941 5.3138-32.195 36.258-32.195 3.7509 0 7.8144 0.31257 11.565 1.2503zm-63.452-31.257c0 29.382-19.067 50.637-58.139 55.013-28.132 3.1257-69.079-0.62514-88.458-2.8132-0.62515-3.1257-1.2503-7.1892-1.2503-10.315 0-25.631 13.753-31.57 26.881-31.57 13.441 0 34.696 2.188 50.637 2.188 17.504 0 22.505-5.9389 22.505-11.565 0-7.5018-6.8766-10.315-20.63-13.128l-36.571-6.564c-30.632-5.9389-46.886-27.194-46.886-49.699 0-27.506 19.38-50.324 57.513-54.7 28.757-3.1257 64.078 0.31257 83.145 2.8132 0.62514 3.4383 0.93772 6.564 0.93772 10.002 0 25.631-13.441 30.945-26.569 30.945-10.002 0-25.318-1.8754-43.135-1.8754-18.129 0-25.318 5.0012-25.318 10.94 0 6.2515 7.1892 9.0646 18.442 10.94l35.321 6.5641c36.259 6.8766 51.575 27.507 51.575 52.825" fill="url(#a)" stroke-width="2.9812"/>
 <path d="m25.006 0c-13.753 0-25.006 11.253-25.006 25.006v226.3c0-20.005 16.003-36.509 36.008-37.259l1836.2-69.266v-119.78c0-13.753-11.253-25.006-25.006-25.006z" fill="#fff" opacity=".2"/>
 <g transform="matrix(.75183 0 0 .75183 184.53 438.27)">
  <path d="m197.37 28.66c9.03-3.51 20.26 1.92 22.55 11.45 2.98 9.47-4.14 20.4-14.03 21.4-8.99 1.62-18.36-5.44-19.28-14.52-1.24-7.68 3.57-15.58 10.76-18.33z"/>
  <path d="m1644.4 28.42c9.37-3.23 20.62 3.12 22.13 13.03 2.09 9.3-5.11 19.26-14.6 20.1-8.99 1.45-18.15-5.63-19.04-14.66-1.19-7.88 3.93-16.06 11.51-18.47z"/>
  <path d="m619.93 40.47c26.26-4.53 53.39-0.14 78.33 8.6 0 6.78 0.17 14.37-4.21 20.01-3.5 4.28-9.6 4.26-14.58 3.38-13.33-2.66-26.79-5.62-40.47-5.23-9.2-0.13-19.16 1.29-26.41 7.42-8 6.67-8.17 21.08 0.63 27.13 8.49 5.58 18.59 7.74 28.2 10.59 15.88 4.76 32.86 7.77 46.55 17.73 9.95 6.84 17.05 17.79 18.53 29.84 1.68 13.84-0.77 28.94-9.62 40.08-9.57 11.94-24.67 17.91-39.43 20.19-27.29 3.89-55.05-1.15-81.02-9.58-0.56-7.27-0.22-15.56 4.92-21.25 5.17-4.89 12.93-3.06 19.17-1.74 16.62 3.98 33.81 7.23 50.95 4.95 6.29-0.97 12.85-2.96 17.35-7.72 6.28-6.13 8.29-16.29 4.52-24.26-2.4-4.84-7.18-7.92-11.99-10.02-19.72-8.09-41.72-9.92-60.47-20.48-9.3-5.07-16.82-13.33-20.72-23.2-5.27-13.06-4.34-28.28 1.74-40.9 7.42-14.24 22.79-22.42 38.03-25.54z"/>
  <path d="m59.41 43.44c3.24-2.58 7.61-2.74 11.57-2.94 32.45 0 64.91-0.02 97.36 0.01 1.01 5.75 1.1 11.61 0.82 17.42-0.26 3.31-1.31 7.04-4.36 8.84-3.48 2.34-7.82 2.01-11.8 2-22.16-0.03-44.33-0.02-66.49-0.01-0.01 17.33-0.01 34.66 0 51.99h75c1.24 6.06 1.8 12.38 0.76 18.52-0.77 5.27-5.99 9.08-11.22 8.74-21.51-0.02-43.03-0.01-64.55-0.01 0 19.99 0 39.97 0.01 59.95 0.17 5.26-3.14 10.79-8.51 11.96-7.4 1.7-15.1 0.63-22.51-0.48 0.02-54.81 0-109.62 0.01-164.43 0.11-4.07 0.84-8.61 3.91-11.56z"/>
  <path d="m1156.8 43.51c11.5-3.81 24.35-5.01 36.04-1.37 6.14 1.79 10.27 7.4 11.74 13.42 10.12 39.99 20.25 79.97 30.34 119.97 10.26-39.7 20.4-79.44 30.65-119.14 1.57-6.76 6.61-12.66 13.39-14.56 11.13-3.33 23.07-1.74 34.18 0.87 5.81 58.27 11.56 116.55 17.21 174.84-7.9 2.87-17.01 4.52-24.96 0.97-3.74-1.49-5.12-5.69-5.25-9.39-3.75-46.49-7.82-92.95-11.41-139.46-11.23 41.24-22.19 82.56-33.3 123.83-1.33 5.53-5.12 10.75-10.81 12.3-8.72 2.58-18.14 1.6-26.85-0.56-11.6-41.74-23.19-83.49-34.78-125.23-1-3.45-1.95-6.91-2.71-10.41-4.49 46.46-8.46 92.97-12.7 139.46-0.18 3.69-1.5 7.89-5.21 9.41-7.51 3.54-16.37 2.13-23.76-0.99 6.08-57.99 12.15-115.97 18.19-173.96z"/>
  <path d="m742.8 51.58c6.73-1.92 14.02-1.33 20.68 0.63 0.06 11.34-0.01 22.69 0.03 34.03 15.02 0.02 30.04-0.01 45.05 0.02 1.29 5.33 1.66 10.93 0.81 16.35-0.73 4.36-4.96 7.35-9.25 7.32-12.21 0.18-24.41 0.01-36.62 0.07 0 21.35 0.01 42.69 0 64.03 0.03 6.18 1.56 12.93 6.36 17.2 4.87 4.33 11.92 4.86 18.1 3.91 5.04-0.69 9.53-3.25 14.37-4.67 4.56-1.37 10.21 0.18 12.61 4.5 2.6 4.83 2.12 10.54 1.91 15.83-14.26 8.58-31.46 12.05-47.91 9.4-9.78-1.74-19.22-6.71-25.35-14.66-6.36-8.05-9.51-18.37-9.6-28.57 0.02-22.32 0.01-44.65 0.01-66.97-7.01 0-14.01 0-21 0.01-0.93-6.55-2.46-14.04 1.08-20.06 4.92-5.76 13.33-3.09 19.91-3.7 0.07-7.13-0.09-14.26 0.06-21.39 0.1-5.57 3.09-11.59 8.75-13.28z"/>
  <path d="m420.55 84.78c13.96-2.02 28.89-0.71 41.41 6.21 11.73 6.17 20.91 16.66 26.21 28.75 6 13.72 7.86 29.31 4.87 44.02-31.73 0-63.45-0.02-95.18 0 1.11 8.4 4.41 16.85 10.87 22.57 7.87 7.17 18.84 9.85 29.27 9.7 7.89 0.22 15.74-1.28 23.19-3.8 5.41-1.74 10.91-4.23 16.73-3.37 3.27 0.52 5.82 3.02 7.24 5.9 2.66 5.13 2.34 11.14 1.61 16.69-15.05 6.53-31.29 11.02-47.82 10.57-16.81 0.51-34.16-4.01-47.47-14.55-12.05-9.41-19.8-23.6-22.74-38.49-3.5-18.18-1.38-37.91 8.31-53.95 9.12-15.82 25.46-27.27 43.5-30.25m-10.08 29.78c-7.98 6.77-12 17.18-12.84 27.42 22.87 0.04 45.73 0.02 68.59 0.01-1.04-9.95-4.9-19.9-12.27-26.86-6.14-5.71-14.78-7.89-22.99-7.66-7.36 0.04-14.85 2.25-20.49 7.09z"/>
  <path d="m841.7 92.12c16.58-5.17 33.9-8.44 51.32-8.13 12.24-0.22 25.06 0.94 35.94 7.02 8.35 4.55 14.53 12.59 17.3 21.64 4.6 14.67 2.93 30.21 3.24 45.33-0.18 20.14-0.27 40.67 5.89 60.09-6.26 2.28-13.14 3.44-19.75 2.23-5.16-0.97-9.29-5.1-10.97-9.96-1.68-4.87-1.87-10.07-2.26-15.15-4.62 7.22-10.26 14.08-17.72 18.5-11.39 7.03-25.35 8.69-38.44 7.02-10.66-1.43-21.23-6.42-27.82-15.13-6.67-8.58-8.92-19.99-7.56-30.63 0.97-8.66 4.39-17.28 10.71-23.44 9.13-9.32 22.28-13.33 34.96-14.66 14.77-1.55 29.66 0.1 44.22 2.65-0.02-7.6 0.59-15.85-3.56-22.61-3.07-5.22-9.28-7.19-14.93-8.01-11.79-1.6-23.8-0.07-35.26 2.92-5.56 1.34-11.22 3.57-17.03 2.46-2.98-0.67-5.21-3.14-6.38-5.86-2.31-5.08-2.35-10.82-1.9-16.28m39.45 65.51c-7.37 1.41-15.08 4.96-18.65 11.94-3.24 6.74-3.02 15.94 2.63 21.36 6.96 6.33 17.26 6.84 26.07 5.14 12.41-2.47 22.03-12.09 28.16-22.71 2.96-4.29 1.16-9.76 1.64-14.6-13.11-2.27-26.67-3.71-39.85-1.13z"/>
  <path d="m1408.5 84.7c16.85-2.04 34.58 1.36 48.63 11.16 14.89 9.98 24.87 26.5 27.88 44.07 3.02 18.01-0.23 37.32-10.32 52.7-9.95 15.22-26.72 25.59-44.64 28.31-16.47 2.42-34.01 0.12-48.42-8.57-13.05-7.47-23.15-19.77-28.1-33.96-7.1-19.96-5.56-43.15 5.39-61.45 10.25-17.75 29.28-29.86 49.58-32.26m3.94 24.86c-14.15 2.16-25.86 13.37-29.98 26.88-5.27 16.83-2.63 37.17 10.13 50.05 11.2 11.59 30.49 13.72 44.02 5.01 10.82-6.71 17.21-19.07 18.41-31.53 1.81-15.08-2.09-31.87-13.79-42.25-7.76-6.8-18.63-9.86-28.79-8.16z"/>
  <path d="m1719.3 93.28c10.3-6.48 22.54-9.74 34.7-9.31 17.49-0.38 35.06 7.38 46.18 20.95 13.28 16.15 17.96 38.48 14.03 58.83-31.74 0-63.48 0-95.21 0.01 1.11 8.85 4.81 17.76 11.9 23.48 8.59 7.19 20.25 9.24 31.16 8.77 9.34 0.03 18.23-3.08 26.97-6.03 4.73-1.4 10.79-2.55 14.7 1.31 5.25 5.21 5.15 13.32 4.21 20.15-10.7 4.6-21.92 8.29-33.5 9.77-16.84 1.9-34.66 1.18-50.12-6.43-14.52-6.82-25.9-19.68-31.3-34.74-5.75-15.72-6.31-33.34-1.66-49.42 4.52-15.21 14.38-28.94 27.94-37.34m10.26 23.27c-6.79 6.69-9.89 16.16-10.87 25.44 22.89 0.02 45.78 0.01 68.67 0.01-1.05-9.77-4.75-19.56-11.91-26.48-5.91-5.75-14.35-8.15-22.43-8.06-8.58-0.13-17.52 2.69-23.46 9.09z"/>
  <path d="m196.82 85.91c7.08-1.4 14.4-0.48 21.45 0.68-0.06 40.81 0.03 81.62-0.04 122.42 0.06 4.93-3.29 9.94-8.27 10.94-7.13 1.66-14.54 0.55-21.69-0.45-0.05-40.86 0-81.72-0.03-122.57-0.08-5.06 3.52-10.04 8.58-11.02z"/>
  <path d="m234.72 88.82c8.32-3.38 17.92-5.07 26.58-1.95 3.9 1.47 5.35 5.74 6.62 9.32 8.78 26.23 17.81 52.37 26.48 78.63 1.81 5.74 3.44 11.53 5.02 17.35 2.35-9.14 5.3-18.1 8.65-26.92 7.52-21.66 14.53-43.49 21.95-65.19 1.63-4.54 2.54-10.33 7.37-12.65 8.27-3.84 17.97-2.11 26.16 1.09-15.03 40.3-30.08 80.6-45.14 120.9-1.6 4.59-4.81 9.02-9.72 10.33-6.73 1.94-13.94 1.52-20.76 0.28-2.05-0.61-5.07-0.62-5.6-3.21-15.87-42.66-31.72-85.32-47.61-127.98z"/>
  <path d="m981.68 87.58c6.69-2.1 14.11-3.49 20.93-1.16 4.29 1.47 7.01 5.67 7.93 9.95 1.01 5.1 0.64 10.33 0.73 15.5 3.89-9.68 10.42-18.82 20.01-23.49 9.56-4.77 20.69-4.15 30.92-2.31 1.62 6.18 2.64 13.07-0.04 19.11-2.28 4.88-7.96 7.11-13.1 6.83-9.44-0.17-19.76 0.48-27.42 6.67-6.86 5.16-9.59 14.05-9.64 22.33 0 22.01-0.01 44.01 0.01 66.02 0.01 3.48-0.57 7.25-3.03 9.9-2.43 2.82-6.32 3.55-9.84 3.76-5.83 0.28-11.67-0.27-17.4-1.28-0.02-43.95 0.09-87.89-0.06-131.83z"/>
  <path d="m1489.9 88.84c8.25-3.43 17.82-5.04 26.44-2.01 3.31 1.25 5.05 4.6 6.17 7.75 7.96 23.61 16.03 47.18 23.87 70.83 3.1 8.81 5.84 17.75 8.14 26.81 2.8-10.96 6.72-21.57 10.54-32.2 7.24-21.78 14.65-43.5 21.87-65.29 1.08-3.65 3.71-7.02 7.47-8.15 7.96-2.63 16.67-1.07 24.31 1.92-15.07 40.37-30.15 80.73-45.21 121.1-1.66 4.46-4.76 8.84-9.58 10.12-8.41 2.26-17.48 1.53-25.72-1.05-16.13-43.27-32.22-86.54-48.3-129.83z"/>
  <path d="m1642.9 85.96c7.1-1.52 14.45-0.45 21.56 0.56-0.01 40.84 0.03 81.68-0.02 122.51 0.02 4.69-2.93 9.5-7.61 10.74-7.32 1.95-15.01 0.73-22.37-0.29 0-40.83-0.01-81.66 0-122.48-0.09-5.02 3.39-10.05 8.44-11.04z"/>
  <path d="m1838.5 103.54c7.22-10.82 20.24-15.96 32.62-18 22.23-3.11 44.88 0.67 66.06 7.61 0.64 6.27 0.58 13.36-3.54 18.53-3.26 3.8-8.77 3.33-13.23 2.78-7.84-1.31-15.27-4.6-23.29-4.92-9.55-0.49-19.92-1.57-28.71 2.93-6.31 3.18-7.26 13.47-1.07 17.24 7.42 4.64 16.33 5.76 24.55 8.41 9.92 2.81 20.03 5.23 29.36 9.75 6.65 3.16 13.13 7.4 17.22 13.69 6.32 9.4 6.56 21.77 3.27 32.31-2.74 9.13-10.01 16.33-18.49 20.33-14.32 7.02-30.76 7.44-46.36 6.39-14.99-1.19-29.76-4.52-43.95-9.45-0.95-6.5-0.89-14.18 3.94-19.22 3.72-3.68 9.43-2.89 14.08-1.85 10.57 2.54 21.03 6.1 32 6.4 8.31 0.11 17.22 0.54 24.73-3.67 7.78-4.19 7.73-17.47-0.68-20.98-17.18-7.97-36.71-9.48-53.61-18.22-7.11-3.41-13.6-8.69-17.07-15.89-5.08-10.75-4.39-24.18 2.17-34.17z"/>
 </g>
</svg>
