<svg height="729.99994" viewBox="0 0 2372.4458 729.99997" width="2372.4458" xmlns="http://www.w3.org/2000/svg" xmlns:xlink="http://www.w3.org/1999/xlink"><clipPath id="a"><path d="m411.591 515.351h94.948v18.13h-94.948z"/></clipPath><clipPath id="b"><path d="m412.392 532.67h93.284v-15.246h-93.284z"/></clipPath><clipPath id="c"><path d="m412.392 517.424h93.284v15.245h-93.284z"/></clipPath><linearGradient id="d" gradientTransform="matrix(0 17.057004 17.057004 0 474.76197 515.88703)" gradientUnits="userSpaceOnUse" spreadMethod="pad" x1="0" x2="1" y1="0" y2="0"><stop offset="0" stop-color="#820021"/><stop offset=".104411" stop-color="#ae2c3f"/><stop offset=".901742" stop-color="#ae2c3f"/><stop offset="1" stop-color="#ba3c4c"/></linearGradient><clipPath id="e"><path d="m411.591 515.351h94.948v18.13h-94.948z"/></clipPath><clipPath id="f"><path d="m505.836 530.723h.017v-.016h-.017z"/></clipPath><linearGradient id="g" gradientTransform="matrix(0 -17.343138 17.343138 0 459.06457 533.09243)" gradientUnits="userSpaceOnUse" spreadMethod="pad" x1="0" x2="1" y1="0" y2="0"><stop offset="0" stop-color="#868685"/><stop offset=".020448" stop-color="#d8d9d9"/><stop offset=".0524045" stop-color="#f5f5f5"/><stop offset=".487663" stop-color="#edeeee"/><stop offset=".895488" stop-color="#f5f5f5"/><stop offset=".929442" stop-color="#ebebec"/><stop offset=".964262" stop-color="#d8d9d9"/><stop offset="1" stop-color="#868685"/></linearGradient><path d="m414.085 532.944c-1.345 0-1.823-.794-1.823-2.114v-12.829c0-1.32.478-2.114 1.823-2.114h89.96c1.345 0 1.822.794 1.822 2.114v12.829c0 1.32-.477 2.114-1.822 2.114z" fill="url(#g)" transform="matrix(24.9869 0 0 -24.9869 -10284.383283 13330.023906)"/><g clip-path="url(#e)" transform="matrix(24.9869 0 0 -24.9869 -10284.383283 13330.023906)"><g transform="translate(503.9336 515.3505)"><path d="m0 0c1.996 0 2.605 1.241 2.605 2.482v13.166c0 1.241-.609 2.482-2.605 2.482h-89.738c-1.997 0-2.605-1.241-2.605-2.482v-13.166c0-1.241.608-2.482 2.605-2.482zm-89.646.167c-1.344 0-2.254.793-2.254 2.114v13.568c0 1.321.91 2.114 2.254 2.114h89.554c1.344 0 2.254-.793 2.254-2.114v-13.568c0-1.321-.91-2.114-2.254-2.114h-89.554z" fill="#a1a2a2"/></g><g><g/><g><g clip-path="url(#f)" opacity=".800003"><g/></g></g></g></g><path d="m443.657 532.944v-17.057h60.388c1.345 0 1.822.794 1.822 2.114v12.829c0 1.32-.477 2.114-1.822 2.114z" fill="url(#d)" transform="matrix(24.9869 0 0 -24.9869 -10284.383283 13330.023906)"/><g clip-path="url(#a)" transform="matrix(24.9869 0 0 -24.9869 -10284.383283 13330.023906)"><g transform="translate(452.075 519.0374)"><path d="m0 0c-.756 0-1.454.136-2.093.408-.639.273-1.192.649-1.661 1.129-.469.481-.836 1.052-1.102 1.714s-.4 1.377-.4 2.146c0 .747.134 1.446.4 2.098.266.651.633 1.217 1.102 1.697.469.481 1.022.857 1.661 1.129.639.273 1.337.409 2.093.409.543 0 1.07-.059 1.581-.176.512-.118.985-.268 1.422-.449.096-1.42-.25-2.13-1.038-2.13-.139 0-.266.016-.384.048-.117.032-.245.064-.383.096-.139.032-.293.064-.463.096-.171.032-.373.049-.607.049-.373 0-.724-.067-1.055-.201-.33-.133-.614-.326-.854-.576-.24-.251-.429-.553-.567-.905-.139-.352-.208-.748-.208-1.185 0-.46.069-.871.208-1.233.138-.363.327-.67.567-.921s.524-.443.854-.577c.331-.133.682-.2 1.055-.2.234 0 .442.016.623.048s.343.064.487.096.28.064.407.096c.128.032.261.048.4.048.777 0 1.123-.71 1.038-2.13-.437-.181-.924-.331-1.462-.448s-1.078-.176-1.621-.176" fill="#fff"/></g><g transform="translate(457.5874 519.1654)"><path d="m0 0c-.224 0-.445.011-.663.032s-.402.048-.551.08v9.273c0 .309.096.573.287.792.192.219.554.329 1.087.329.223 0 .444-.011.663-.033.218-.021.402-.048.551-.08v-9.272c0-.31-.096-.574-.288-.793-.191-.219-.554-.328-1.086-.328" fill="#fff"/></g><g transform="translate(461.9564 519.1654)"><path d="m0 0c-.213 0-.421.011-.623.032-.203.021-.373.048-.511.08v10.201c.159.054.367.099.623.137.255.037.473.056.655.056.585 0 1.011-.075 1.278-.225.266-.149.489-.368.671-.656l3.626-5.717v5.573c0 .138.018.269.056.392.037.123.101.232.191.328.091.096.216.171.376.224.159.054.362.081.607.081.213 0 .418-.011.615-.033.197-.021.364-.042.503-.063v-10.218c-.149-.075-.33-.125-.543-.152s-.421-.04-.623-.04c-.501 0-.874.069-1.118.208-.246.139-.448.331-.607.577l-3.882 6.214v-5.942c0-.299-.091-.55-.272-.753s-.522-.304-1.022-.304" fill="#fff"/></g><g transform="translate(473.3041 519.2296)"><path d="m0 0c-.298 0-.541.032-.727.096s-.33.152-.431.264c-.102.112-.171.248-.208.409-.037.16-.056.33-.056.512v7.847c0 .182.019.353.056.513s.106.296.208.408c.101.112.245.2.431.264s.429.096.727.096h5.287c.022-.117.043-.277.064-.48.022-.203.032-.411.032-.624 0-.449-.09-.767-.271-.953-.182-.187-.41-.281-.687-.281h-3.259v-1.825h3.754c.021-.107.043-.249.064-.425s.032-.366.032-.568c0-.427-.086-.718-.256-.873s-.383-.232-.639-.232h-2.955v-1.81h4.281c.021-.118.043-.28.064-.488.021-.209.032-.414.032-.617 0-.459-.091-.779-.272-.961-.181-.181-.41-.272-.686-.272z" fill="#fff"/></g><g transform="translate(480.983 519.1654)"><path d="m0 0c-.245 0-.461.024-.647.072-.187.048-.349.104-.487.168l.976 9.977c.203.086.469.155.799.208.33.054.612.081.846.081.33 0 .615-.022.854-.065.24-.042.445-.114.615-.216.17-.101.306-.243.407-.424.101-.182.178-.406.232-.673l.415-1.937c.117-.534.242-1.124.375-1.77s.253-1.311.359-1.994h.064c.117.683.239 1.345.367 1.986s.261 1.228.399 1.761l.51 2.034c.128.502.332.844.614 1.025.282.182.721.273 1.316.273.298 0 .598-.025.901-.073s.556-.098.758-.152l.934-10.041c-.149-.053-.328-.107-.535-.16-.208-.053-.434-.08-.679-.08-.341 0-.629.059-.863.176-.234.118-.362.337-.383.657l-.24 3.459c-.053.609-.098 1.246-.136 1.914-.037.667-.061 1.299-.072 1.898h-.032c-.138-.556-.279-1.156-.423-1.802s-.29-1.241-.439-1.786l-.655-2.722c-.16-.641-.666-.961-1.518-.961-.213 0-.431.021-.655.064-.223.042-.415.09-.575.144l-.814 3.395c-.16.63-.309 1.249-.447 1.858-.139.608-.267 1.217-.384 1.825h-.048c-.032-.854-.074-1.636-.128-2.346-.053-.71-.101-1.321-.143-1.833l-.256-3.123c-.021-.31-.138-.523-.351-.641-.214-.117-.49-.176-.831-.176" fill="#fff"/></g><g transform="translate(496.0557 523.5375)"><path d="m0 0h2.39l-1.192 3.923zm-2.492-4.404c-.202 0-.434.019-.694.056-.262.037-.477.088-.647.152l3.314 10.153c.288.075.579.129.873.161s.563.048.809.048c.352 0 .654-.027.905-.08.251-.054.462-.134.633-.241s.312-.248.424-.424.206-.382.281-.617l2.84-8.984c-.181-.075-.399-.131-.655-.168-.255-.037-.506-.056-.75-.056-.278 0-.546.045-.807.136s-.45.296-.567.617l-.544 1.649h-3.484l-.461-1.553c-.117-.374-.314-.609-.591-.705s-.57-.144-.879-.144" fill="#fff"/></g><g transform="translate(423.1164 522.7819)"><path d="m0 0c0-1.46-.955-2.527-2.894-2.738-1.404-.15-3.438.027-4.404.138-.036.158-.064.354-.064.508 0 1.278.691 1.569 1.338 1.569.672 0 1.73-.116 2.518-.116.865 0 1.129.294 1.129.573 0 .367-.349.52-1.021.648l-1.839.354c-1.531.293-2.348 1.352-2.348 2.476 0 1.366.967 2.509 2.868 2.72 1.438.155 3.187-.02 4.148-.138.035-.165.053-.321.053-.492 0-1.274-.671-1.549-1.319-1.549-.497 0-1.269.093-2.15.093-.897 0-1.269-.248-1.269-.55 0-.319.355-.451.916-.549l1.758-.326c1.806-.333 2.58-1.359 2.58-2.621m3.155-1.568c0-.783-.307-1.235-1.836-1.235-.203 0-.38.015-.55.04v10.39c0 .789.269 1.612 1.813 1.612.194 0 .391-.02.573-.058zm6.25-4.019c.2-.103.612-.227 1.131-.241.886-.019 1.371.321 1.73 1.116l4.764 10.626c-.197.106-.631.223-.988.231-.612.011-1.434-.114-1.96-1.367l-1.543-3.641-3.025 4.927c-.195.06-.671.146-1.021.146-1.067 0-1.665-.394-2.284-1.066l-2.941-3.217 2.366-3.723c.437-.678 1.013-1.024 1.949-1.024.612 0 1.121.139 1.357.252l-2.848 4.295 2.019 2.139 3.311-5.197z" fill="#ae2c3f"/></g><g><g/><g><g clip-path="url(#b)" opacity=".399994"><g><g><g clip-path="url(#c)"><g transform="translate(504.1664 519.8869)"><path d="m0 0c1.156-1.145 1.313-2.225 1.354-2.463.114 0 .156.506.156 1.261l-.004 12.109c0 1.402-.456 1.876-1.644 1.876-.402 0-.804-.216-1.339-.216h-87.31c-.536 0-.938.216-1.34.216-1.187 0-1.643-.474-1.643-1.876l-.004-12.109c0-.755.041-1.261.155-1.261.041.238.076 1.402 1.354 2.463 10.208 7.878 79.259 10.296 90.265 0" fill="#fff"/></g></g></g></g></g></g></g></g><g fill="#fff" transform="matrix(1.0026046 0 0 1.0026046 -67.43782 395.019836)"><path d="m1442.53 167.76c17.3-2.84 35.69-.81 51.37 7.3 15.06 7.54 27.11 20.59 34.17 35.82 8.31 17.72 10.21 38.13 6.6 57.28-3.56 18.95-13.45 36.9-28.56 49.06-26.97 22.08-69.12 22.53-96.67 1.24-11.05-8.46-19.61-20-24.9-32.84-7.49-18.12-8.86-38.59-4.51-57.66 3.92-17.02 13.12-33.02 26.75-44.09 10.18-8.46 22.72-13.93 35.75-16.11m7.56 24.39c-10.67 1.55-20.55 7.16-27.78 15.1-9.85 10.76-14.92 25.29-15.45 39.74-.73 18.93 5.83 39.06 20.75 51.4 12.44 10.64 30.9 13.76 46 7.24 16.1-6.65 27.31-22.08 31.43-38.69 5.12-20.14 1.09-43.14-12.82-58.98-10.19-11.91-26.56-18.37-42.13-15.81z"/><path d="m1063.8 181.78c7.61-7.86 18.35-12.03 29.08-13.23 15.78-1.77 31.84 1.23 46.49 7.17 1.54.72 3.38 1.09 4.64 2.32 1.26 6.46.71 14.71-5.23 18.76-4.5 2.85-10.17 1.73-14.87.06-9.21-3.34-19.31-5.2-29.03-3.23-6.65 1.23-12.56 6.44-13.64 13.26-1.7 7.45 1.64 14.92 6.38 20.54 7.46 8.81 16.01 16.61 24.05 24.88 6.68 7.12 13.73 13.88 20.6 20.82 5.67-10.62 11.41-21.21 17.11-31.82 1.73-3.5 4.95-6.15 8.72-7.2 6.77-1.96 14.04-.47 20.47 2.05-9.75 17.97-19.8 35.78-29.51 53.78 12.43 12.56 24.47 25.52 36.85 38.13-8.93 4.22-19.89 6.05-29.21 2.13-8.71-4.9-14.14-13.71-21.29-20.44-8.45 12.06-21.86 20.41-36.46 22.47-16.67 2.31-35.11.18-48.65-10.58-17.75-13.79-22.14-41.12-11.01-60.34 6.09-10.38 16.74-17.26 27.94-21.1-6.12-6.95-11.7-14.88-13.41-24.16-2.53-12.14 1.24-25.43 9.98-34.27m2.24 83.21c-8.4 10.21-7.56 26.8 2.16 35.88 7.49 7.44 18.95 8.79 28.92 6.97 9.16-1.32 17.54-6.83 22.33-14.76-12.69-12.9-25.48-25.71-37.97-38.81-5.82 2.43-11.45 5.73-15.44 10.72z"/><path d="m2101.27 173.24c15.14-5.82 31.82-5.92 47.65-3.3 9.05 1.48 17.97 3.95 26.4 7.6.78 6.06.75 12.7-2.68 18.01-2.2 3.53-6.5 5.55-10.61 4.89-5.14-.83-9.91-3.07-14.95-4.26-13.48-3.42-28.51-3.04-40.82 3.97-14.18 7.77-23.05 22.99-25.43 38.69-2.41 15.69-.53 32.66 7.93 46.36 5.57 8.99 14.29 15.99 24.33 19.36 10.14 3.44 21.23 3.43 31.63 1.15 4.92-1.04 9.54-3.08 14.39-4.37 5.22-1.43 11.59.18 14.58 4.94 3.41 5.2 3.12 11.75 2.35 17.66-17.26 7.51-36.4 10.13-55.1 8.77-17.5-1.55-34.55-9.07-46.98-21.58-12.93-12.7-20.73-30.12-22.85-48.03-2.32-18.79.75-38.45 10.08-55.04 8.73-15.82 23.12-28.5 40.08-34.82z"/><path d="m541.64 170.72c9.27-1.92 18.92-3.15 28.3-1.27 6.84 1 11.51 6.92 13.33 13.24 16.78 48.81 33.53 97.64 50.33 146.44-7.09 2.91-15.02 4.15-22.55 2.41-3.78-.9-6.76-3.96-7.81-7.67-3.87-11.82-7.96-23.57-11.88-35.37-21.05.02-42.1-.01-63.15.01-4 11.98-7.86 24.01-11.85 35.99-1.19 4.15-5.04 6.99-9.25 7.45-6.86.83-14.06.29-20.43-2.53 18.41-52.87 36.56-105.83 54.96-158.7m18.19 22.04c-7.95 23.89-15.79 47.81-23.6 71.75 15.8-.04 31.59.02 47.38-.03-7.98-23.89-15.47-47.96-23.78-71.72z"/><path d="m660.01 172.14c10.32-3.27 21.73-4.42 32.24-1.34 6.02 1.8 9.97 7.42 11.33 13.34 9.04 35.8 17.89 71.65 27.05 107.42 3.76-12.59 6.58-25.45 9.96-38.14 5.96-23.11 11.74-46.25 17.75-69.34 1.59-6.41 6.58-11.87 13.01-13.6 9.84-2.74 20.27-1.2 30.07 1.01 5.31 52.59 10.32 105.22 15.73 157.8-6.4 2.6-13.67 3.69-20.42 1.93-4.01-.96-6.8-4.67-6.94-8.73-3.61-42.36-7.08-84.73-10.72-127.08-10.08 37.48-19.88 75.04-29.88 112.54-1.14 5.14-4.93 9.64-10.08 11.06-7.8 2.19-16.14 1.2-23.88-.76-11.33-41.01-22.4-82.09-33.91-123.04-3.78 42.3-7.57 84.59-11.35 126.88 0 4.1-2.63 8.09-6.69 9.13-5.99 1.59-12.47.88-18.2-1.34-1.88-.4-.77-2.72-.9-3.98 5.33-51.25 10.52-102.51 15.83-153.76z"/><path d="m883.66 170.82c9.61-2.35 19.87-3.28 29.6-1.02 5.92 1.42 9.87 6.67 11.6 12.25 16.91 49.01 33.71 98.06 50.56 147.08-7.21 3-15.34 4.18-22.99 2.3-3.6-.95-6.25-3.96-7.3-7.45-3.93-11.84-7.93-23.65-11.93-35.47-21.05-.02-42.1 0-63.15-.01-3.97 11.92-7.83 23.87-11.78 35.8-1.17 4.11-4.88 7.21-9.13 7.63-6.9.83-14.2.39-20.58-2.55 17.49-50.48 34.93-101 52.41-151.49.86-2.36 1.38-4.89 2.69-7.07m-5.61 93.67c15.79.01 31.59.01 47.38 0-7.85-23.96-15.62-47.94-23.67-71.84-8.1 23.88-15.78 47.91-23.71 71.84z"/><path d="m1257.45 171.4c5.12-2.58 11.06-1.77 16.6-1.9 13.29.15 26.61-.33 39.9.26 16.31.9 33.72 6.85 43.5 20.68 11.21 16.29 11.42 39.38 1.04 56.12-7.81 12.68-22.16 20.08-36.66 21.86 16.71 19.81 33.37 39.65 50.08 59.47-8.3 4.29-18.14 5.61-27.21 3.36-6.66-1.85-11.18-7.47-15.19-12.73-12.64-16.1-25.07-32.38-37.86-48.35-3.51-.99-7.47-.16-11.14-.41-.02 16.76-.02 33.52.01 50.27.01 2.84-.46 5.86-2.33 8.1-2.23 2.72-5.81 3.81-9.19 4.05-5.53.38-11.06-.22-16.5-1.07-.01-49.71 0-99.43-.01-149.15-.05-3.99 1.07-8.62 4.96-10.56m23.06 23.6c-.01 16.83-.01 33.66 0 50.49 8.14.02 16.28-.01 24.43.03 7.7-.04 15.73-1.22 22.45-5.22 5.73-3.36 9.48-9.55 10.25-16.1 1.14-7.8-.33-16.8-6.51-22.25-6.24-5.61-15.04-6.67-23.08-6.92-9.18-.08-18.37 0-27.54-.03z"/><path d="m1561.92 172.13c10.14-3.17 21.29-4.36 31.65-1.51 5.87 1.58 10.19 6.67 11.59 12.48 9.36 36.14 17.96 72.49 27.54 108.57 9.02-35.05 17.96-70.13 26.86-105.21 1.36-6.79 5.61-13.4 12.48-15.59 10.15-3.32 21.14-1.66 31.34.64 5.18 52.61 10.31 105.24 15.67 157.84-6.64 2.5-14.12 3.78-21.02 1.68-3.83-1.13-6.28-4.92-6.36-8.81-3.62-42.21-6.98-84.45-10.73-126.65-9.11 33.81-17.95 67.69-26.96 101.52-1.25 4.41-2.14 8.92-3.67 13.24-1.63 4.58-5.8 7.99-10.5 9.03-7.5 1.64-15.32.79-22.69-1.09-11.19-41.02-22.55-82-33.74-123.02-4.01 41.02-7.43 82.11-11.16 123.16-.31 4.26-.5 9.71-4.91 11.88-6.78 3.24-14.84 1.72-21.58-.9 5.46-52.41 10.74-104.84 16.19-157.26z"/><path d="m1787.83 170.75c9.88-2.08 20.34-3.43 30.25-.78 5.64 1.48 9.37 6.61 11.12 11.92 16.92 49.07 33.72 98.18 50.63 147.25-7.46 2.99-15.95 4.39-23.76 2.01-4.07-1.26-6.18-5.31-7.22-9.14-3.67-11.15-7.62-22.21-11.09-33.42-21.13-.15-42.26-.13-63.38-.02-4.03 12.26-7.98 24.54-12.12 36.75-1.31 3.94-5.29 6.25-9.24 6.69-6.74.78-13.67.06-20.01-2.39 18.03-53.04 36.57-105.91 54.82-158.87m-5.44 93.73c15.82.03 31.65.03 47.48 0-7.94-23.94-15.71-47.93-23.69-71.85-8.18 23.87-15.75 47.94-23.79 71.85z"/><path d="m1898.51 171.47c8.55-2.7 17.96-3.45 26.64-.89 5.04 1.59 8.42 5.95 11.11 10.26 23.53 36.62 47.17 73.17 70.7 109.78-.3-34.58-.94-69.16-1.3-103.74-.2-5.24-1.16-11.98 3.75-15.48 6.65-4.03 14.84-2.04 22.09-1.13 0 53.31.01 106.62 0 159.94-7.31 2.37-15.29 2.8-22.78 1.09-5.1-1.14-9.02-5.01-11.55-9.42-24.51-38.45-49.15-76.83-73.68-115.27.63 38.13 1.04 76.26 1.52 114.4.43 4.4-2.06 9.06-6.44 10.33-6.55 1.78-13.45.78-20.07.05 0-53.31-.01-106.62.01-159.92z"/><path d="m2198 173.98c2.69-3.76 7.72-4.31 12-4.46 27.96-.07 55.92.03 83.88-.05.98 5.97 1.77 12.17.61 18.17-.91 4.34-5.02 7.67-9.49 7.36-20.34.01-40.67-.01-61 0-.01 14.33 0 28.67 0 43h63.92c.6 6.63 2.46 13.88-.82 20.1-1.71 3.32-5.7 4.28-9.12 4.16-17.99-.02-35.99 0-53.97-.01-.02 14.33-.02 28.66-.01 42.99 24.04.02 48.07 0 72.1.01.66 6.04 1.67 12.27.22 18.27-.98 4.18-4.91 7.5-9.28 7.24-26.04-.01-52.07-.01-78.11 0-4.02-.06-8.72-.96-11.05-4.58-2.28-3.63-1.86-8.09-1.9-12.18.04-42 .02-83.99.01-125.99.14-4.68-.71-9.89 2.01-14.03z"/><path d="m210.41 170.63c5.7-1.79 11.74-.95 17.61-1.13 15.38.22 30.91-.89 46.12 1.94 16.01 2.83 31.63 9.65 43.33 21.13 11.08 10.71 18 25.27 20.45 40.39 2.99 17.83 1.02 36.71-6.92 53.05-6.28 12.92-16.3 23.97-28.55 31.47-13.87 8.58-30.17 12.72-46.39 13.26-13.02.03-26.05 0-39.08.02-3.7 0-7.73-.69-10.48-3.37-2.16-2.19-2.71-5.41-2.75-8.36.01-46.01-.02-92.03.01-138.04-.2-4.4 2.2-9.11 6.65-10.36m21.35 24.37c-.01 36.75-.01 73.49 0 110.24 14.88-.41 30.34 1.75 44.58-3.77 13.9-4.85 25.27-16.19 29.96-30.17 5.17-15.4 5.32-33.04-1.76-47.88-6.08-12.66-18.16-21.81-31.55-25.57-13.37-4.08-27.48-2.56-41.23-2.85z"/><path d="m358.8 172.77c2.96-2.79 7.3-3.08 11.16-3.26 8.34-.05 16.69.01 25.03-.01 11.78.09 23.75-.64 35.32 2.11 11.54 2.63 22.84 8.47 29.94 18.19 8.4 11.23 10.46 26.18 8.12 39.76-2.21 12.66-9.78 24.35-20.8 31.06-6.78 4.28-14.58 6.71-22.49 7.82 16.76 19.75 33.36 39.63 50.07 59.41-7.91 4.24-17.29 5.45-26.06 3.7-6.25-1.32-10.95-6.1-14.7-10.98-13.2-16.92-26.42-33.82-39.57-50.78-3.69-.05-7.38-.05-11.06-.03-.02 17.08 0 34.16 0 51.24.22 4.57-2.69 9.11-7.18 10.36-6.81 1.83-13.96.65-20.83-.23-.02-49.38.02-98.77-.02-148.16.02-3.56.39-7.56 3.07-10.2m24.96 22.23c-.01 16.83-.01 33.66 0 50.49 9.08-.01 18.16.06 27.25-.02 7.6-.43 15.6-1.92 21.79-6.65 4.95-3.71 7.76-9.75 8.27-15.83.83-7.53-.86-16.02-6.79-21.2-6.35-5.5-15.15-6.56-23.23-6.77-9.1-.06-18.2 0-27.29-.02z"/></g></svg>