<?xml version="1.0" encoding="UTF-8"?>
<!-- Created with Inkscape (http://www.inkscape.org/) -->
<svg id="svg4696" width="627.71mm" height="193.15mm" version="1.1" viewBox="0 0 627.71 193.15" xmlns="http://www.w3.org/2000/svg" xmlns:cc="http://creativecommons.org/ns#" xmlns:dc="http://purl.org/dc/elements/1.1/" xmlns:rdf="http://www.w3.org/1999/02/22-rdf-syntax-ns#">
 <defs id="defs4690">
  <linearGradient id="g" x2="1" gradientTransform="matrix(0 114.66 114.66 0 2.2662 29.124)" gradientUnits="userSpaceOnUse">
   <stop id="stop26" stop-color="#868685" offset="0"/>
   <stop id="stop28" stop-color="#d8d9d9" offset=".020448"/>
   <stop id="stop30" stop-color="#f5f5f5" offset=".052404"/>
   <stop id="stop32" stop-color="#edeeee" offset=".48766"/>
   <stop id="stop34" stop-color="#f5f5f5" offset=".89549"/>
   <stop id="stop36" stop-color="#ebebec" offset=".92944"/>
   <stop id="stop38" stop-color="#d8d9d9" offset=".96426"/>
   <stop id="stop40" stop-color="#868685" offset="1"/>
  </linearGradient>
  <clipPath id="e">
   <path id="path20" d="m411.59 515.35h94.948v18.13h-94.948z"/>
  </clipPath>
  <clipPath id="f">
   <path id="path23" d="m505.84 530.72h0.017v-0.016h-0.017z"/>
  </clipPath>
  <linearGradient id="d" x2="1" gradientTransform="matrix(0 -112.77 112.77 0 106.04 142.87)" gradientUnits="userSpaceOnUse">
   <stop id="stop11" stop-color="#820021" offset="0"/>
   <stop id="stop13" stop-color="#ae2c3f" offset=".10441"/>
   <stop id="stop15" stop-color="#ae2c3f" offset=".90174"/>
   <stop id="stop17" stop-color="#ba3c4c" offset="1"/>
  </linearGradient>
  <clipPath id="a">
   <path id="path2" d="m411.59 515.35h94.948v18.13h-94.948z"/>
  </clipPath>
  <clipPath id="b">
   <path id="path5" d="m412.39 532.67h93.284v-15.246h-93.284z"/>
  </clipPath>
  <clipPath id="c">
   <path id="path8" d="m412.39 517.42h93.284v15.245h-93.284z"/>
  </clipPath>
 </defs>
 <metadata id="metadata4693">
  <rdf:RDF>
   <cc:Work rdf:about="">
    <dc:format>image/svg+xml</dc:format>
    <dc:type rdf:resource="http://purl.org/dc/dcmitype/StillImage"/>
    <dc:title/>
   </cc:Work>
  </rdf:RDF>
 </metadata>
 <g id="layer1" transform="translate(311.59 -26.558)">
  <path id="path43" d="m-295.1 30.105c-8.892 0-12.052 5.2492-12.052 13.976v84.814c0 8.7267 3.1601 13.976 12.052 13.976h594.74c8.8919 0 12.045-5.2492 12.045-13.976v-84.814c0-8.7267-3.1535-13.976-12.045-13.976z" fill="url(#g)" stroke-width="6.6111"/>
  <g id="g59" transform="matrix(6.6111 0 0 -6.6111 -3032.7 3553.5)" clip-path="url(#e)">
   <g id="g47" transform="translate(503.93 515.35)">
    <path id="path45" d="m0 0c1.996 0 2.605 1.241 2.605 2.482v13.166c0 1.241-0.609 2.482-2.605 2.482h-89.738c-1.997 0-2.605-1.241-2.605-2.482v-13.166c0-1.241 0.608-2.482 2.605-2.482zm-89.646 0.167c-1.344 0-2.254 0.793-2.254 2.114v13.568c0 1.321 0.91 2.114 2.254 2.114h89.554c1.344 0 2.254-0.793 2.254-2.114v-13.568c0-1.321-0.91-2.114-2.254-2.114z" fill="#a1a2a2"/>
   </g>
   <g id="g57">
    <g id="g55">
     <g id="g53" clip-path="url(#f)" opacity=".8"></g>
    </g>
   </g>
  </g>
  <path id="path61" d="m-99.595 30.105v112.77h399.23c8.8919 0 12.045-5.2492 12.045-13.976v-84.814c0-8.7267-3.1535-13.976-12.045-13.976z" fill="url(#d)" stroke-width="6.6111"/>
  <g id="g109" transform="matrix(6.6111 0 0 -6.6111 -3032.7 3553.5)" clip-path="url(#a)">
   <g id="g65" transform="translate(452.08 519.04)">
    <path id="path63" d="m0 0c-0.756 0-1.454 0.136-2.093 0.408-0.639 0.273-1.192 0.649-1.661 1.129-0.469 0.481-0.836 1.052-1.102 1.714s-0.4 1.377-0.4 2.146c0 0.747 0.134 1.446 0.4 2.098 0.266 0.651 0.633 1.217 1.102 1.697 0.469 0.481 1.022 0.857 1.661 1.129 0.639 0.273 1.337 0.409 2.093 0.409 0.543 0 1.07-0.059 1.581-0.176 0.512-0.118 0.985-0.268 1.422-0.449 0.096-1.42-0.25-2.13-1.038-2.13-0.139 0-0.266 0.016-0.384 0.048-0.117 0.032-0.245 0.064-0.383 0.096-0.139 0.032-0.293 0.064-0.463 0.096-0.171 0.032-0.373 0.049-0.607 0.049-0.373 0-0.724-0.067-1.055-0.201-0.33-0.133-0.614-0.326-0.854-0.576-0.24-0.251-0.429-0.553-0.567-0.905-0.139-0.352-0.208-0.748-0.208-1.185 0-0.46 0.069-0.871 0.208-1.233 0.138-0.363 0.327-0.67 0.567-0.921s0.524-0.443 0.854-0.577c0.331-0.133 0.682-0.2 1.055-0.2 0.234 0 0.442 0.016 0.623 0.048s0.343 0.064 0.487 0.096 0.28 0.064 0.407 0.096c0.128 0.032 0.261 0.048 0.4 0.048 0.777 0 1.123-0.71 1.038-2.13-0.437-0.181-0.924-0.331-1.462-0.448s-1.078-0.176-1.621-0.176" fill="#fff"/>
   </g>
   <g id="g69" transform="translate(457.59 519.17)">
    <path id="path67" d="m0 0c-0.224 0-0.445 0.011-0.663 0.032s-0.402 0.048-0.551 0.08v9.273c0 0.309 0.096 0.573 0.287 0.792 0.192 0.219 0.554 0.329 1.087 0.329 0.223 0 0.444-0.011 0.663-0.033 0.218-0.021 0.402-0.048 0.551-0.08v-9.272c0-0.31-0.096-0.574-0.288-0.793-0.191-0.219-0.554-0.328-1.086-0.328" fill="#fff"/>
   </g>
   <g id="g73" transform="translate(461.96 519.17)">
    <path id="path71" d="m0 0c-0.213 0-0.421 0.011-0.623 0.032-0.203 0.021-0.373 0.048-0.511 0.08v10.201c0.159 0.054 0.367 0.099 0.623 0.137 0.255 0.037 0.473 0.056 0.655 0.056 0.585 0 1.011-0.075 1.278-0.225 0.266-0.149 0.489-0.368 0.671-0.656l3.626-5.717v5.573c0 0.138 0.018 0.269 0.056 0.392 0.037 0.123 0.101 0.232 0.191 0.328 0.091 0.096 0.216 0.171 0.376 0.224 0.159 0.054 0.362 0.081 0.607 0.081 0.213 0 0.418-0.011 0.615-0.033 0.197-0.021 0.364-0.042 0.503-0.063v-10.218c-0.149-0.075-0.33-0.125-0.543-0.152s-0.421-0.04-0.623-0.04c-0.501 0-0.874 0.069-1.118 0.208-0.246 0.139-0.448 0.331-0.607 0.577l-3.882 6.214v-5.942c0-0.299-0.091-0.55-0.272-0.753s-0.522-0.304-1.022-0.304" fill="#fff"/>
   </g>
   <g id="g77" transform="translate(473.3 519.23)">
    <path id="path75" d="m0 0c-0.298 0-0.541 0.032-0.727 0.096s-0.33 0.152-0.431 0.264c-0.102 0.112-0.171 0.248-0.208 0.409-0.037 0.16-0.056 0.33-0.056 0.512v7.847c0 0.182 0.019 0.353 0.056 0.513s0.106 0.296 0.208 0.408c0.101 0.112 0.245 0.2 0.431 0.264s0.429 0.096 0.727 0.096h5.287c0.022-0.117 0.043-0.277 0.064-0.48 0.022-0.203 0.032-0.411 0.032-0.624 0-0.449-0.09-0.767-0.271-0.953-0.182-0.187-0.41-0.281-0.687-0.281h-3.259v-1.825h3.754c0.021-0.107 0.043-0.249 0.064-0.425s0.032-0.366 0.032-0.568c0-0.427-0.086-0.718-0.256-0.873s-0.383-0.232-0.639-0.232h-2.955v-1.81h4.281c0.021-0.118 0.043-0.28 0.064-0.488 0.021-0.209 0.032-0.414 0.032-0.617 0-0.459-0.091-0.779-0.272-0.961-0.181-0.181-0.41-0.272-0.686-0.272z" fill="#fff"/>
   </g>
   <g id="g81" transform="translate(480.98 519.17)">
    <path id="path79" d="m0 0c-0.245 0-0.461 0.024-0.647 0.072-0.187 0.048-0.349 0.104-0.487 0.168l0.976 9.977c0.203 0.086 0.469 0.155 0.799 0.208 0.33 0.054 0.612 0.081 0.846 0.081 0.33 0 0.615-0.022 0.854-0.065 0.24-0.042 0.445-0.114 0.615-0.216 0.17-0.101 0.306-0.243 0.407-0.424 0.101-0.182 0.178-0.406 0.232-0.673l0.415-1.937c0.117-0.534 0.242-1.124 0.375-1.77s0.253-1.311 0.359-1.994h0.064c0.117 0.683 0.239 1.345 0.367 1.986s0.261 1.228 0.399 1.761l0.51 2.034c0.128 0.502 0.332 0.844 0.614 1.025 0.282 0.182 0.721 0.273 1.316 0.273 0.298 0 0.598-0.025 0.901-0.073s0.556-0.098 0.758-0.152l0.934-10.041c-0.149-0.053-0.328-0.107-0.535-0.16-0.208-0.053-0.434-0.08-0.679-0.08-0.341 0-0.629 0.059-0.863 0.176-0.234 0.118-0.362 0.337-0.383 0.657l-0.24 3.459c-0.053 0.609-0.098 1.246-0.136 1.914-0.037 0.667-0.061 1.299-0.072 1.898h-0.032c-0.138-0.556-0.279-1.156-0.423-1.802s-0.29-1.241-0.439-1.786l-0.655-2.722c-0.16-0.641-0.666-0.961-1.518-0.961-0.213 0-0.431 0.021-0.655 0.064-0.223 0.042-0.415 0.09-0.575 0.144l-0.814 3.395c-0.16 0.63-0.309 1.249-0.447 1.858-0.139 0.608-0.267 1.217-0.384 1.825h-0.048c-0.032-0.854-0.074-1.636-0.128-2.346-0.053-0.71-0.101-1.321-0.143-1.833l-0.256-3.123c-0.021-0.31-0.138-0.523-0.351-0.641-0.214-0.117-0.49-0.176-0.831-0.176" fill="#fff"/>
   </g>
   <g id="g85" transform="translate(496.06 523.54)">
    <path id="path83" d="m0 0h2.39l-1.192 3.923zm-2.492-4.404c-0.202 0-0.434 0.019-0.694 0.056-0.262 0.037-0.477 0.088-0.647 0.152l3.314 10.153c0.288 0.075 0.579 0.129 0.873 0.161s0.563 0.048 0.809 0.048c0.352 0 0.654-0.027 0.905-0.08 0.251-0.054 0.462-0.134 0.633-0.241s0.312-0.248 0.424-0.424 0.206-0.382 0.281-0.617l2.84-8.984c-0.181-0.075-0.399-0.131-0.655-0.168-0.255-0.037-0.506-0.056-0.75-0.056-0.278 0-0.546 0.045-0.807 0.136s-0.45 0.296-0.567 0.617l-0.544 1.649h-3.484l-0.461-1.553c-0.117-0.374-0.314-0.609-0.591-0.705s-0.57-0.144-0.879-0.144" fill="#fff"/>
   </g>
   <g id="g89" transform="translate(423.12 522.78)">
    <path id="path87" d="m0 0c0-1.46-0.955-2.527-2.894-2.738-1.404-0.15-3.438 0.027-4.404 0.138-0.036 0.158-0.064 0.354-0.064 0.508 0 1.278 0.691 1.569 1.338 1.569 0.672 0 1.73-0.116 2.518-0.116 0.865 0 1.129 0.294 1.129 0.573 0 0.367-0.349 0.52-1.021 0.648l-1.839 0.354c-1.531 0.293-2.348 1.352-2.348 2.476 0 1.366 0.967 2.509 2.868 2.72 1.438 0.155 3.187-0.02 4.148-0.138 0.035-0.165 0.053-0.321 0.053-0.492 0-1.274-0.671-1.549-1.319-1.549-0.497 0-1.269 0.093-2.15 0.093-0.897 0-1.269-0.248-1.269-0.55 0-0.319 0.355-0.451 0.916-0.549l1.758-0.326c1.806-0.333 2.58-1.359 2.58-2.621m3.155-1.568c0-0.783-0.307-1.235-1.836-1.235-0.203 0-0.38 0.015-0.55 0.04v10.39c0 0.789 0.269 1.612 1.813 1.612 0.194 0 0.391-0.02 0.573-0.058zm6.25-4.019c0.2-0.103 0.612-0.227 1.131-0.241 0.886-0.019 1.371 0.321 1.73 1.116l4.764 10.626c-0.197 0.106-0.631 0.223-0.988 0.231-0.612 0.011-1.434-0.114-1.96-1.367l-1.543-3.641-3.025 4.927c-0.195 0.06-0.671 0.146-1.021 0.146-1.067 0-1.665-0.394-2.284-1.066l-2.941-3.217 2.366-3.723c0.437-0.678 1.013-1.024 1.949-1.024 0.612 0 1.121 0.139 1.357 0.252l-2.848 4.295 2.019 2.139 3.311-5.197z" fill="#ae2c3f"/>
   </g>
   <g id="g107">
    <g id="g105">
     <g id="g103" clip-path="url(#b)" opacity=".39999">
      <g id="g101">
       <g id="g99">
        <g id="g97" clip-path="url(#c)">
         <g id="g95" transform="translate(504.17 519.89)">
          <path id="path93" d="m0 0c1.156-1.145 1.313-2.225 1.354-2.463 0.114 0 0.156 0.506 0.156 1.261l-4e-3 12.109c0 1.402-0.456 1.876-1.644 1.876-0.402 0-0.804-0.216-1.339-0.216h-87.31c-0.536 0-0.938 0.216-1.34 0.216-1.187 0-1.643-0.474-1.643-1.876l-4e-3 -12.109c0-0.755 0.041-1.261 0.155-1.261 0.041 0.238 0.076 1.402 1.354 2.463 10.208 7.878 79.259 10.296 90.265 0" fill="#fff"/>
         </g>
        </g>
       </g>
      </g>
     </g>
    </g>
   </g>
  </g>
  <g id="g129" transform="matrix(.26563 0 0 .26563 -196.99 164.18)">
   <path id="path111" d="m702.51 42.77c17.25-2.62 35.56-0.62 51.1 7.65 15.5 7.82 27.78 21.38 34.77 37.21 13.57 30.72 9.27 69.29-12.66 95.11-12.3 14.75-30.56 24.34-49.66 26.18-6.38 0.14-12.77 0.15-19.14-0.01-18.63-1.81-36.45-10.98-48.7-25.14-24.98-28.42-28.11-73.11-8.7-105.33 11.25-18.95 31.24-32.3 52.99-35.67m6.75 24.56c-12.07 1.89-23.07 8.89-30.39 18.59-10.1 13.24-14.06 30.54-12.18 46.97 1.61 17.39 10.21 34.84 25.29 44.32 11.56 7.59 26.73 9.26 39.66 4.37 10.59-4.08 19.64-11.87 25.54-21.53 8.86-14.19 11.42-31.82 8.37-48.15-2.72-14.69-10.62-28.82-23.24-37.18-9.54-6.57-21.62-9.29-33.05-7.39z"/>
   <path id="path113" d="m101.11 44.99c6.76-1.58 13.84-0.59 20.63 0.37 0.03 22.62 0 45.25 0.02 67.88 25 0 50 0.04 75-0.02-0.01-19.06-0.03-38.11 0.01-57.16-0.19-5.05 3.01-10.44 8.28-11.26 6.57-1.26 13.35-0.37 19.92 0.47 0.08 50.24-0.01 100.48 0.04 150.73 0.39 4.98-2.97 10.13-8.01 11.07-6.69 1.36-13.64 0.48-20.3-0.65 0.12-22.96 0-45.93 0.06-68.89-25-0.06-50-0.02-75-0.02-0.07 19.43 0.11 38.86-0.09 58.29 0.08 4.54-2.29 9.43-6.85 10.88-6.95 2.02-14.34 0.83-21.35-0.22 0.09-50.14-0.03-100.28 0.06-150.42-0.11-4.79 2.68-9.88 7.58-11.05z"/>
   <path id="path115" d="m296.36 46.09c6.96-2.17 14.34-2.51 21.58-2.33 4.72 0.19 9.75 0.88 13.63 3.82 3.93 3.03 5.9 7.8 7.45 12.37 16.51 48.17 32.99 96.36 49.52 144.53-7.78 3.2-16.66 4.54-24.74 1.65-3.34-1.35-5.04-4.79-6.06-8.03-3.78-11.48-7.74-22.89-11.56-34.35-21.01 0-42.03 0.02-63.04-0.01-3.97 11.84-7.91 23.68-11.84 35.53-1.06 3.19-3.25 6.35-6.63 7.29-7.59 2.23-15.82 1.07-23.15-1.55 17.95-53.08 36.79-105.87 54.84-158.92m-5.15 93.65c15.78 0.01 31.55 0.03 47.33-0.02-7.94-23.64-15.49-47.41-23.56-71.01-8.08 23.62-15.81 47.37-23.77 71.03z"/>
   <path id="path117" d="m413.1 44.62c6.34-0.93 12.8-0.24 19.1 0.69 0.12 45.15 0.01 90.29 0.05 135.44 25.56-0.01 51.11 0.02 76.66-0.02 1.05 6.31 2.17 12.99 0.08 19.2-1.55 4.45-6.67 6.28-11.01 6.3-26.31 0.06-52.62-0.01-78.93 0.03-3.72-0.13-7.79-0.16-10.96-2.36-2.89-2.35-3.81-6.31-3.85-9.87 0.03-46.37-0.03-92.74 0.03-139.1-0.04-4.98 3.82-9.69 8.83-10.31z"/>
   <path id="path119" d="m534.12 45.15c6.78-1.87 13.98-0.7 20.85 0.12 0.08 45.16-0.01 90.32 0.05 135.49 25.62 0 51.24-0.06 76.87 0.03 0.87 6.27 2.11 12.89 0.03 19.04-1.66 4.85-7.25 6.55-11.91 6.42-25.67 0.01-51.33-0.02-77 0.02-4.27-0.11-9.1 0.02-12.59-2.82-3.62-3.87-3.48-9.54-3.43-14.49 0.03-43.99 0-87.97 0.01-131.96-0.25-4.86 2.06-10.45 7.12-11.85z"/>
   <path id="path121" d="m804.46 47.39c7.35-3.17 16.03-4.6 23.66-1.59 4.16 1.53 6.01 6.03 6.65 10.1 7.04 38.66 14.63 77.23 20.91 116.03 0.48 2.8 0.61 5.69 1.59 8.39 3.61-23.66 9.38-46.9 15.06-70.13 4.52-18.44 8.92-36.93 13.52-55.36 1.07-4.38 4.61-7.79 8.91-9.03 8.51-2.61 17.74-1.82 26.27 0.3 10.52 44.96 22.16 89.69 30.64 135.1 3.13-19.8 6.75-39.52 10.44-59.22 4.01-22.67 7.91-45.37 11.93-68.04 0.48-3.65 2.66-7.26 6.31-8.44 7.07-2.53 14.9-1.17 21.76 1.4-10.2 49.49-20.35 98.99-30.54 148.48-0.79 4.14-2.9 8.45-6.91 10.29-7.19 2.98-15.19 2.45-22.77 1.89-2.8-0.36-5.85-0.39-8.3-1.85-7.08-28.92-14.17-57.85-21.14-86.81-3.37-14.21-5.22-28.74-8.97-42.87-7.88 39.61-18.28 78.64-27.54 117.93-0.97 4.31-2.58 9.02-6.57 11.44-4.08 2.21-8.87 2.54-13.41 2.61-5.95-0.2-11.96-0.53-17.7-2.21-11.33-52.79-22.5-105.62-33.8-158.41z"/>
   <path id="path123" d="m1273.5 46.58c7.83-2.78 16.5-2.99 24.63-1.49 6.31 1.27 10.6 6.64 13.71 11.89 23.38 36.18 46.8 72.33 70.19 108.49-0.26-37.12-1.01-74.25-1.37-111.37 0.26-4.18 3.02-8.38 7.32-9.25 6.19-1.33 12.62-0.46 18.81 0.52 0 53.38 0.02 106.77-0.01 160.15-6.97 2.35-14.55 2.88-21.76 1.46-5.16-0.89-9.45-4.54-12.16-8.87-23.2-36.11-46.38-72.23-69.55-108.37-1.53-2.41-3.07-4.81-4.74-7.11 0.41 38.14 0.96 76.28 1.45 114.41 0.06 4.33-2.6 8.93-7.03 9.91-6.37 1.55-13 0.56-19.41-0.11-0.13-53.42 0.04-106.84-0.08-160.26z"/>
   <path id="path125" d="m1025.1 47.03c3.75-2.55 8.52-2.31 12.87-2.29 27.11 0.02 54.23 0.02 81.34-0.01 1.06 5.99 1.85 12.24 0.58 18.25-0.93 4.48-5.47 7.37-9.89 7.25-20.25 0.05-40.51 0-60.77 0.02v42.98c21.38 0.02 42.75 0.04 64.13-0.01 0.67 5.86 1.6 11.9 0.26 17.73-1.05 4.21-5.41 6.76-9.58 6.55-18.28 0.01-36.55-0.02-54.82 0.02 0.02 14.41 0 28.82 0.01 43.23 24.07-0.02 48.13 0.05 72.19-0.04 0.94 6 1.78 12.25 0.35 18.24-0.99 4.4-5.43 7.46-9.85 7.29-25.3 0.04-50.61-0.01-75.91 0.02-3.93-0.12-8.29-0.21-11.46-2.85-2.6-2.74-3.24-6.72-3.33-10.36 0.01-45.02 0-90.03 0.01-135.05 0.06-3.9 0.73-8.3 3.87-10.97z"/>
   <path id="path127" d="m1149.9 47.91c2.57-2.66 6.54-3.08 10.06-3.17 28.38 0.02 56.78 0 85.17 0.01 0.99 5.99 1.72 12.21 0.54 18.22-0.97 4.42-5.39 7.37-9.8 7.25-20.3 0.07-40.6 0.02-60.9 0.03-0.02 14.33-0.01 28.66 0 42.99 21.38 0.02 42.76-0.01 64.15 0.02 0.68 5.73 1.47 11.61 0.35 17.33-0.81 4.37-5.29 7.08-9.53 6.91-18.32 0-36.63 0.02-54.95-0.01-0.07 14.42-0.02 28.84-0.02 43.26 24.1 0 48.2-0.01 72.3 0.01 0.76 5.98 1.68 12.17 0.27 18.13-0.96 4.29-5.15 7.43-9.51 7.33-25.34 0.09-50.67-0.01-76 0.04-3.99-0.09-8.4-0.19-11.67-2.77-2.84-3.07-3.45-7.47-3.41-11.49 0.03-44.68-0.01-89.36 0.02-134.04 0.09-3.49 0.64-7.26 2.93-10.05z"/>
  </g>
 </g>
</svg>
