<svg height="729.99994" viewBox="0 0 2372.4458 729.99997" width="2372.4458" xmlns="http://www.w3.org/2000/svg" xmlns:xlink="http://www.w3.org/1999/xlink"><clipPath id="a"><path d="m411.591 515.351h94.948v18.13h-94.948z"/></clipPath><clipPath id="b"><path d="m412.392 532.67h93.284v-15.246h-93.284z"/></clipPath><clipPath id="c"><path d="m412.392 517.424h93.284v15.245h-93.284z"/></clipPath><linearGradient id="d" gradientTransform="matrix(0 17.057004 17.057004 0 474.76197 515.88703)" gradientUnits="userSpaceOnUse" spreadMethod="pad" x1="0" x2="1" y1="0" y2="0"><stop offset="0" stop-color="#820021"/><stop offset=".104411" stop-color="#ae2c3f"/><stop offset=".901742" stop-color="#ae2c3f"/><stop offset="1" stop-color="#ba3c4c"/></linearGradient><clipPath id="e"><path d="m411.591 515.351h94.948v18.13h-94.948z"/></clipPath><clipPath id="f"><path d="m505.836 530.723h.017v-.016h-.017z"/></clipPath><linearGradient id="g" gradientTransform="matrix(0 -17.343138 17.343138 0 459.06457 533.09243)" gradientUnits="userSpaceOnUse" spreadMethod="pad" x1="0" x2="1" y1="0" y2="0"><stop offset="0" stop-color="#868685"/><stop offset=".020448" stop-color="#d8d9d9"/><stop offset=".0524045" stop-color="#f5f5f5"/><stop offset=".487663" stop-color="#edeeee"/><stop offset=".895488" stop-color="#f5f5f5"/><stop offset=".929442" stop-color="#ebebec"/><stop offset=".964262" stop-color="#d8d9d9"/><stop offset="1" stop-color="#868685"/></linearGradient><path d="m414.085 532.944c-1.345 0-1.823-.794-1.823-2.114v-12.829c0-1.32.478-2.114 1.823-2.114h89.96c1.345 0 1.822.794 1.822 2.114v12.829c0 1.32-.477 2.114-1.822 2.114z" fill="url(#g)" transform="matrix(24.9869 0 0 -24.9869 -10284.383283 13330.023906)"/><g clip-path="url(#e)" transform="matrix(24.9869 0 0 -24.9869 -10284.383283 13330.023906)"><g transform="translate(503.9336 515.3505)"><path d="m0 0c1.996 0 2.605 1.241 2.605 2.482v13.166c0 1.241-.609 2.482-2.605 2.482h-89.738c-1.997 0-2.605-1.241-2.605-2.482v-13.166c0-1.241.608-2.482 2.605-2.482zm-89.646.167c-1.344 0-2.254.793-2.254 2.114v13.568c0 1.321.91 2.114 2.254 2.114h89.554c1.344 0 2.254-.793 2.254-2.114v-13.568c0-1.321-.91-2.114-2.254-2.114h-89.554z" fill="#a1a2a2"/></g><g><g/><g><g clip-path="url(#f)" opacity=".800003"><g/></g></g></g></g><path d="m443.657 532.944v-17.057h60.388c1.345 0 1.822.794 1.822 2.114v12.829c0 1.32-.477 2.114-1.822 2.114z" fill="url(#d)" transform="matrix(24.9869 0 0 -24.9869 -10284.383283 13330.023906)"/><g clip-path="url(#a)" transform="matrix(24.9869 0 0 -24.9869 -10284.383283 13330.023906)"><g transform="translate(452.075 519.0374)"><path d="m0 0c-.756 0-1.454.136-2.093.408-.639.273-1.192.649-1.661 1.129-.469.481-.836 1.052-1.102 1.714s-.4 1.377-.4 2.146c0 .747.134 1.446.4 2.098.266.651.633 1.217 1.102 1.697.469.481 1.022.857 1.661 1.129.639.273 1.337.409 2.093.409.543 0 1.07-.059 1.581-.176.512-.118.985-.268 1.422-.449.096-1.42-.25-2.13-1.038-2.13-.139 0-.266.016-.384.048-.117.032-.245.064-.383.096-.139.032-.293.064-.463.096-.171.032-.373.049-.607.049-.373 0-.724-.067-1.055-.201-.33-.133-.614-.326-.854-.576-.24-.251-.429-.553-.567-.905-.139-.352-.208-.748-.208-1.185 0-.46.069-.871.208-1.233.138-.363.327-.67.567-.921s.524-.443.854-.577c.331-.133.682-.2 1.055-.2.234 0 .442.016.623.048s.343.064.487.096.28.064.407.096c.128.032.261.048.4.048.777 0 1.123-.71 1.038-2.13-.437-.181-.924-.331-1.462-.448s-1.078-.176-1.621-.176" fill="#fff"/></g><g transform="translate(457.5874 519.1654)"><path d="m0 0c-.224 0-.445.011-.663.032s-.402.048-.551.08v9.273c0 .309.096.573.287.792.192.219.554.329 1.087.329.223 0 .444-.011.663-.033.218-.021.402-.048.551-.08v-9.272c0-.31-.096-.574-.288-.793-.191-.219-.554-.328-1.086-.328" fill="#fff"/></g><g transform="translate(461.9564 519.1654)"><path d="m0 0c-.213 0-.421.011-.623.032-.203.021-.373.048-.511.08v10.201c.159.054.367.099.623.137.255.037.473.056.655.056.585 0 1.011-.075 1.278-.225.266-.149.489-.368.671-.656l3.626-5.717v5.573c0 .138.018.269.056.392.037.123.101.232.191.328.091.096.216.171.376.224.159.054.362.081.607.081.213 0 .418-.011.615-.033.197-.021.364-.042.503-.063v-10.218c-.149-.075-.33-.125-.543-.152s-.421-.04-.623-.04c-.501 0-.874.069-1.118.208-.246.139-.448.331-.607.577l-3.882 6.214v-5.942c0-.299-.091-.55-.272-.753s-.522-.304-1.022-.304" fill="#fff"/></g><g transform="translate(473.3041 519.2296)"><path d="m0 0c-.298 0-.541.032-.727.096s-.33.152-.431.264c-.102.112-.171.248-.208.409-.037.16-.056.33-.056.512v7.847c0 .182.019.353.056.513s.106.296.208.408c.101.112.245.2.431.264s.429.096.727.096h5.287c.022-.117.043-.277.064-.48.022-.203.032-.411.032-.624 0-.449-.09-.767-.271-.953-.182-.187-.41-.281-.687-.281h-3.259v-1.825h3.754c.021-.107.043-.249.064-.425s.032-.366.032-.568c0-.427-.086-.718-.256-.873s-.383-.232-.639-.232h-2.955v-1.81h4.281c.021-.118.043-.28.064-.488.021-.209.032-.414.032-.617 0-.459-.091-.779-.272-.961-.181-.181-.41-.272-.686-.272z" fill="#fff"/></g><g transform="translate(480.983 519.1654)"><path d="m0 0c-.245 0-.461.024-.647.072-.187.048-.349.104-.487.168l.976 9.977c.203.086.469.155.799.208.33.054.612.081.846.081.33 0 .615-.022.854-.065.24-.042.445-.114.615-.216.17-.101.306-.243.407-.424.101-.182.178-.406.232-.673l.415-1.937c.117-.534.242-1.124.375-1.77s.253-1.311.359-1.994h.064c.117.683.239 1.345.367 1.986s.261 1.228.399 1.761l.51 2.034c.128.502.332.844.614 1.025.282.182.721.273 1.316.273.298 0 .598-.025.901-.073s.556-.098.758-.152l.934-10.041c-.149-.053-.328-.107-.535-.16-.208-.053-.434-.08-.679-.08-.341 0-.629.059-.863.176-.234.118-.362.337-.383.657l-.24 3.459c-.053.609-.098 1.246-.136 1.914-.037.667-.061 1.299-.072 1.898h-.032c-.138-.556-.279-1.156-.423-1.802s-.29-1.241-.439-1.786l-.655-2.722c-.16-.641-.666-.961-1.518-.961-.213 0-.431.021-.655.064-.223.042-.415.09-.575.144l-.814 3.395c-.16.63-.309 1.249-.447 1.858-.139.608-.267 1.217-.384 1.825h-.048c-.032-.854-.074-1.636-.128-2.346-.053-.71-.101-1.321-.143-1.833l-.256-3.123c-.021-.31-.138-.523-.351-.641-.214-.117-.49-.176-.831-.176" fill="#fff"/></g><g transform="translate(496.0557 523.5375)"><path d="m0 0h2.39l-1.192 3.923zm-2.492-4.404c-.202 0-.434.019-.694.056-.262.037-.477.088-.647.152l3.314 10.153c.288.075.579.129.873.161s.563.048.809.048c.352 0 .654-.027.905-.08.251-.054.462-.134.633-.241s.312-.248.424-.424.206-.382.281-.617l2.84-8.984c-.181-.075-.399-.131-.655-.168-.255-.037-.506-.056-.75-.056-.278 0-.546.045-.807.136s-.45.296-.567.617l-.544 1.649h-3.484l-.461-1.553c-.117-.374-.314-.609-.591-.705s-.57-.144-.879-.144" fill="#fff"/></g><g transform="translate(423.1164 522.7819)"><path d="m0 0c0-1.46-.955-2.527-2.894-2.738-1.404-.15-3.438.027-4.404.138-.036.158-.064.354-.064.508 0 1.278.691 1.569 1.338 1.569.672 0 1.73-.116 2.518-.116.865 0 1.129.294 1.129.573 0 .367-.349.52-1.021.648l-1.839.354c-1.531.293-2.348 1.352-2.348 2.476 0 1.366.967 2.509 2.868 2.72 1.438.155 3.187-.02 4.148-.138.035-.165.053-.321.053-.492 0-1.274-.671-1.549-1.319-1.549-.497 0-1.269.093-2.15.093-.897 0-1.269-.248-1.269-.55 0-.319.355-.451.916-.549l1.758-.326c1.806-.333 2.58-1.359 2.58-2.621m3.155-1.568c0-.783-.307-1.235-1.836-1.235-.203 0-.38.015-.55.04v10.39c0 .789.269 1.612 1.813 1.612.194 0 .391-.02.573-.058zm6.25-4.019c.2-.103.612-.227 1.131-.241.886-.019 1.371.321 1.73 1.116l4.764 10.626c-.197.106-.631.223-.988.231-.612.011-1.434-.114-1.96-1.367l-1.543-3.641-3.025 4.927c-.195.06-.671.146-1.021.146-1.067 0-1.665-.394-2.284-1.066l-2.941-3.217 2.366-3.723c.437-.678 1.013-1.024 1.949-1.024.612 0 1.121.139 1.357.252l-2.848 4.295 2.019 2.139 3.311-5.197z" fill="#ae2c3f"/></g><g><g/><g><g clip-path="url(#b)" opacity=".399994"><g><g><g clip-path="url(#c)"><g transform="translate(504.1664 519.8869)"><path d="m0 0c1.156-1.145 1.313-2.225 1.354-2.463.114 0 .156.506.156 1.261l-.004 12.109c0 1.402-.456 1.876-1.644 1.876-.402 0-.804-.216-1.339-.216h-87.31c-.536 0-.938.216-1.34.216-1.187 0-1.643-.474-1.643-1.876l-.004-12.109c0-.755.041-1.261.155-1.261.041.238.076 1.402 1.354 2.463 10.208 7.878 79.259 10.296 90.265 0" fill="#fff"/></g></g></g></g></g></g></g></g><g fill="#fff" transform="matrix(1.0171992 0 0 1.0171992 423.24425 392.175211)"><path d="m1278.64 186.65c9.71-12.6 25.88-18.39 41.32-19.39 20.63-1.44 41.36 2.29 60.8 9.1.01 6.26.1 13.27-4.02 18.42-3.4 3.79-9.04 3.55-13.61 2.7-13.85-2.85-27.98-5.74-42.18-4.42-6.91.65-14.25 2.6-19.07 7.89-6.17 6.57-5.33 18.83 2.65 23.59 8.55 5.27 18.58 7.13 28.07 10.02 9.61 2.93 19.57 4.96 28.72 9.25 8.42 3.93 16.36 9.58 21.37 17.56 4.88 7.53 6.42 16.78 5.87 25.62-.45 8.22-2.56 16.53-7.22 23.4-4.06 6.24-10.09 10.95-16.63 14.35-11.32 5.66-24.15 7.86-36.74 7.26-19.56.88-38.9-3.5-57.42-9.42-.63-6.24-.2-13.21 3.67-18.42 3.42-4.53 9.78-4.03 14.76-3.12 11.87 2.5 23.74 5.67 35.96 5.78 9.01.14 18.83-.09 26.56-5.33 8.04-5.44 10.96-17.41 5.77-25.72-5.14-7.16-14.28-9.21-22.21-11.72-16.95-5.18-35.57-7.83-49.72-19.34-16.73-13.81-19.21-40.71-6.7-58.06z"/><path d="m264.4 169.88c7.66-1.94 15.62-2.5 23.49-2.01 4.31.28 8.75 1.36 12.15 4.17 3.25 2.69 4.96 6.7 6.41 10.56 16.71 48.56 33.2 97.2 50 145.73-7.68 3.48-16.67 4.65-24.72 1.77-3.13-1.09-4.76-4.23-5.79-7.16-3.91-11.74-7.96-23.43-11.82-35.18-21.02-.01-42.04 0-63.06-.01-3.98 11.78-7.86 23.6-11.82 35.39-1.09 3.52-3.58 6.91-7.4 7.64-7.41 1.77-15.61 1.14-22.53-2.12 18.47-52.89 36.78-105.84 55.09-158.78m18.4 22.91c-7.9 23.66-15.79 47.32-23.76 70.95 15.8.02 31.6 0 47.41.01-8.01-23.61-15.36-47.46-23.65-70.96z"/><path d="m380.97 168.84c6.59-1.3 13.4-.47 19.99.48.09 50.24.03 100.48.03 150.72.1 4.51-2.52 9.36-7.02 10.7-6.82 1.93-13.98.7-20.87-.12-.24-50.21-.02-100.43-.11-150.65-.38-4.98 2.94-10.15 7.98-11.13z"/><path d="m551.89 172.12c7.69-3.81 16.68-4.84 25.08-3.14 4.16.75 7.84 3.39 10 7.02 12.91 20.68 25.73 41.43 38.63 62.12 11.96-18.97 23.66-38.1 35.52-57.13 2.91-4.8 5.78-10.72 11.83-11.99 7.8-1.64 16.31-.82 23.45 2.83-18.13 28.38-36.4 56.67-54.6 85.02-1.32 2.23-3.41 4.35-3.07 7.16.04 18.34.01 36.68.03 55.02.17 4.54-1.79 9.66-6.3 11.4-5.95 2.19-12.45 1.17-18.61.63-1.13-.36-3.63.08-3.09-1.91-.02-21.73-.02-43.47 0-65.2.21-2.13-1.36-3.74-2.37-5.43-18.88-28.77-37.66-57.61-56.5-86.4z"/><path d="m922.01 169.9c7.8-2.05 15.95-2.54 23.98-1.98 4.68.36 9.58 1.75 12.85 5.31 3.89 4.37 5.39 10.18 7.29 15.57 15.94 46.57 31.9 93.12 47.84 139.69-7.85 3.18-16.87 4.61-24.97 1.51-3.19-1.24-4.7-4.58-5.69-7.61-3.87-11.53-7.82-23.03-11.61-34.58-21.02-.13-42.04-.01-63.06-.07-3.96 11.72-7.8 23.47-11.76 35.19-1.11 3.38-3.31 6.8-6.97 7.71-7.57 2.06-15.82 1.13-23.04-1.78 18.36-52.99 36.7-106 55.14-158.96m18.38 22.59c-7.94 23.74-15.86 47.49-23.75 71.26 15.77 0 31.55.01 47.32-.01-7.86-23.75-15.59-47.54-23.57-71.25z"/><path d="m1038.43 168.66c6.4-.96 12.95-.34 19.32.7.02 45.13-.02 90.26.01 135.39 25.54-.01 51.08.02 76.62-.02 1.02 6.24 2.01 12.83.15 19.01-1.61 4.72-6.97 6.62-11.57 6.51-26 .02-52-.02-78 .02-4.15-.15-8.97-.05-12.19-3.07-3.55-3.81-3.05-9.41-3.03-14.23.03-44.65-.01-89.31.02-133.96-.13-4.98 3.69-9.67 8.67-10.35z"/><path d="m115.23 171.15c2.47-1.92 5.74-2.26 8.76-2.4 29.83-.03 59.66.06 89.49-.04.97 6.25 1.7 12.78.2 19.01-.98 4.32-5.61 6.55-9.72 6.51-21.49.09-42.99-.06-64.48.07.06 15.65-.01 31.29.03 46.94 22.66.07 45.32-.11 67.98.09.84 5.81 1.73 11.82.32 17.61-1.04 4.29-5.45 7.1-9.75 7.02-19.52.11-39.05-.02-58.57.06.03 18.02 0 36.03.02 54.04.2 4.68-2.65 9.74-7.45 10.79-6.73 1.76-13.8.64-20.57-.35.02-49.83 0-99.67.01-149.51.13-3.52.92-7.44 3.73-9.84z"/><path d="m437.47 171.48c2.87-2.45 6.88-2.67 10.49-2.75 15 .05 29.99 0 44.99.03 15.05.37 30.98 4.43 41.88 15.41 9.27 8.97 13.32 22.18 12.96 34.85.28 15.17-6.88 30.53-19.39 39.31-7.18 5.28-15.84 8.21-24.63 9.36 16.47 19.96 33.32 39.62 49.92 59.49-8.4 4.53-18.61 5.83-27.82 3.25-7.17-2.21-11.53-8.78-15.96-14.35-12.22-15.7-24.44-31.41-36.7-47.08-3.66-.01-7.31 0-10.96.01-.01 17.02.02 34.04-.01 51.06.11 4.61-2.66 9.55-7.31 10.75-6.75 1.8-13.83.65-20.63-.25-.13-49.53.01-99.06-.07-148.6-.08-3.7.62-7.7 3.24-10.49m24.78 22.77v50.5c8.91-.02 17.83.03 26.74-.02 6.85-.27 13.91-1.39 19.91-4.88 6.52-3.88 10.36-11.29 10.8-18.76.51-6.93-1.03-14.57-6.23-19.54-5.56-5.59-13.84-6.91-21.39-7.27-9.94-.08-19.89 0-29.83-.03z"/><path d="m755.5 175.34c.85-4.33 5.48-6.52 9.54-6.57 39.14-.11 78.29.12 117.43-.12 1.35 5.66 1.46 11.68.48 17.4-.85 4.74-5.18 8.38-10.03 8.16-13.15.13-26.29-.04-39.43.07.04 41.59-.01 83.18.02 124.78.28 4.93-2.32 10.57-7.46 11.8-6.73 1.73-13.78.63-20.54-.32.01-45.41-.07-90.81.04-136.22-16.61-.17-33.22-.02-49.83-.07-.85-6.24-1.65-12.7-.22-18.91z"/><path d="m1155.62 171.56c2.55-2.27 6.15-2.66 9.43-2.81 28.47-.03 56.94.04 85.42-.03 1.02 6.02 2 12.32.54 18.35-1 4.47-5.59 7.31-10.01 7.17-20.17.05-40.35-.05-60.52.05.05 14.31 0 28.63.03 42.95 21.33.03 42.67-.03 64 .04.66 6.05 1.88 12.35.07 18.32-1.22 4-5.63 6.09-9.57 5.91-18.17-.01-36.34-.02-54.51 0 .01 14.42-.02 28.83.02 43.25 24.05-.02 48.11-.01 72.17-.01.72 6.53 2.08 13.44-.34 19.78-1.45 3.71-5.48 5.81-9.34 5.71-25.33.03-50.66 0-75.99.02-3.68-.17-7.74-.19-10.82-2.47-3.06-2.61-3.8-6.91-3.72-10.73.04-45.36.01-90.72.01-136.08.02-3.35.83-6.88 3.13-9.42z"/></g></svg>