<!-- Generator: Adobe Illustrator 17.1.0, SVG Export Plug-In . SVG Version: 6.00 Build 0)  -->
<svg xmlns:rdf="http://www.w3.org/1999/02/22-rdf-syntax-ns#" xmlns="http://www.w3.org/2000/svg" enable-background="new 0 0 1372 226.8" xml:space="preserve" viewBox="0 0 958.3 102.3" height="100%" width="100%" version="1.1" y="0px" x="0px" xmlns:cc="http://creativecommons.org/ns#" xmlns:dc="http://purl.org/dc/elements/1.1/"><metadata><rdf:RDF><cc:Work rdf:about=""><dc:format>image/svg+xml</dc:format><dc:type rdf:resource="http://purl.org/dc/dcmitype/StillImage"/><dc:title/></cc:Work></rdf:RDF></metadata>
<linearGradient id="SVGID_1_" y2="163" gradientUnits="userSpaceOnUse" x2="-3810" gradientTransform="matrix(-1,0,0,1,-3329.6878,-59.900002)" y1="59" x1="-3810">
	<stop stop-color="#091B4A" offset="0"/>
	<stop stop-color="#122D68" offset="0.0363"/>
	<stop stop-color="#122D68" offset="0.896"/>
	<stop stop-color="#091B4A" offset="1"/>
</linearGradient>
<path fill="url(#SVGID_1_)" d="M10.9,102c-8.1,0-10.9-4.5-10.9-12.4v-76.9c0-7.9,2.9-12.7,10.9-12.7h936c8.1,0,10.9,4.8,10.9,12.7v76.9c0,7.9-2.9,12.7-10.9,12.7h-936z"/>
<path fill="#a1a2a2" display="none" d="m12.2,104c-8.1,0-13.5-4.8-13.5-12.7v-81.3c0-7.9,5.5-12.7,13.5-12.7h934c8.1,0,13.5,4.8,13.5,12.7v81.4c0,7.9-5.5,12.7-13.5,12.7h-934zm935,1c12,0,15.6-7.4,15.6-14.9v-79c0-7.4-3.6-14.9-15.6-14.9h-935c-12,0-15.6,7.4-15.6,14.9v79c0,7.4,3.6,14.9,15.6,14.9h936z"/>
<g transform="translate(-60.7,-59.900002)">
	<linearGradient id="SVGID_2_" y2="59.9" gradientUnits="userSpaceOnUse" x2="465" y1="162" x1="465">
		<stop stop-color="#552227" offset="0"/>
		<stop stop-color="#C41C2B" offset="0.0739"/>
		<stop stop-color="#C41C2B" offset="0.911"/>
		<stop stop-color="#FE3446" offset="1"/>
	</linearGradient>
	<rect height="102" width="431" y="59.9" x="250" fill="url(#SVGID_2_)"/>
</g>
<g opacity="0.4" transform="translate(-60.7,-59.900002)">
		<path fill="#FFF" d="m1010,139c6.9,6.9,7.9,13.3,8.1,14.8,0.7,0,0.9-3,0.9-7.6v-72.6c0-8.4-2.7-11.3-9.9-11.3-2.4,0-4.8,1.3-8,1.3h-921c-3.2,0-5.6-1.3-8-1.3-7.1,0-9.9,2.8-9.9,11.3v72.6c0,4.5,0.3,7.6,0.9,7.6,0.2-1.4,0.5-8.4,8.1-14.8,61.3-47.2,873-61.7,939,0z"/>
</g>
<path fill="#FFF" d="m122,94.5c1.2,0.6,3.7,1.4,6.8,1.4,5.3,0.1,8.2-1.9,10.4-6.7l28.6-63.7c-1.2-0.6-3.8-1.3-5.9-1.4-3.7-0.1-8.6,0.7-11.8,8.2l-9.3,21.8-18.1-29.6c-1.2-0.4-4-0.9-6.1-0.9-6.4,0-10,2.4-13.7,6.4l-17.6,19.3,14.2,22.3c2.6,4.1,6.1,6.1,11.7,6.1,3.7,0,6.7-0.8,8.1-1.5l-17.2-25.6,12.1-12.8,19.9,31.2-12.1,25.5zm-37.5-24.1c0,4.7-1.8,7.4-11,7.4-1.2,0-2.3-0.1-3.3-0.2v-62.4c0-4.7,1.6-9.7,10.9-9.7,1.2,0,2.3,0.1,3.4,0.3v64.6zm-18.9-9.4c0,8.8-5.7,15.2-17.4,16.4-8.4,0.9-20.6-0.2-26.4-0.8-0.2-0.9-0.4-2.1-0.4-3,0-7.7,4.1-9.4,8-9.4,4,0,10.4,0.7,15.1,0.7,5.2,0,6.8-1.8,6.8-3.4,0-2.2-2.1-3.1-6.1-3.9l-11-2.1c-9.2-1.8-14.1-8.1-14.1-14.8,0-8.2,5.8-15.1,17.2-16.3,8.6-0.9,19.1,0.1,24.9,0.8,0.2,1,0.3,1.9,0.3,3,0,7.6-4,9.3-7.9,9.3-3,0-7.6-0.6-12.9-0.6-5.4,0-7.6,1.5-7.6,3.3,0,1.9,2.1,2.7,5.5,3.3l10.5,2c10.8,1.7,15.5,7.9,15.5,15.5z"/>
<g fill="#FFF" transform="translate(-60.7,-59.900002)">
	<path d="m331,123c0-10.6-6.9-15.8-17.9-18.2l-19-5c-3.5-0.8-6.4-1.9-6.4-5.4,0-3.8,3-5.3,11.1-5.3,9.5,0,11.8,0.5,20.4,0.5,4,0,8.1-1.9,8.1-9.7,0-1-0.1-2-0.3-3-5.8-0.5-16.3-1.1-29.1-1.1-19.4,0-26.8,8.4-26.8,19.1,0,10,6.3,15.6,17.5,18.2l19.3,4.5c4.5,1.1,6.9,3,6.9,5.8,0,3.8-3.4,5.3-11.5,5.3-9.5,0-13.9-0.7-22.6-0.7-4,0-8.1,1.8-8.1,9.7,0,1,0.1,2,0.3,3,5.8,0.6,18.4,1.3,31.2,1.3,19.5,0.1,27.2-8.2,27.2-19.6z"/>
	<path d="M490,106v-16.5h15.3c6.5,0,11.7,1,11.7,7.8,0,5.7-3.9,8.5-11.7,8.5h-15.3zm-0.1,12.9h8.1l15.6,18.6c2.9,3.6,5.7,5.5,12.4,5.5,4.5,0,7.5-0.6,9.9-1.8l-20.3-23.5c11.4-2.4,17.1-9.8,17.1-20.7,0-13.4-8.2-20-24.7-20l-23.6-0.1c-7.7,0.3-10.2,2.9-10.2,9.9v55.1c1.2,0.2,2.5,0.3,3.9,0.3,9.7,0,12-2.8,12-7.9l-0.2-15.4z"/>
	<path d="M354,108v-18.4h15.9c7.9,0,11.8,2.9,11.8,8.7,0,6.1-3.9,9.2-11.8,9.2h-16zm-15.8,34c1.2,0.2,2.5,0.3,3.9,0.3,9.7,0,12-2.8,12-7.9v-13.3h16.5c18,0,27-7.8,27-22.4,0-14.1-9-21.6-25.9-21.6h-23.3c-7.8,0-10.2,3-10.2,9.9v55z"/>
	<path d="m450,108c0,7.5-1.3,12.7-3.8,15.9-2.4,3.2-6.4,4.7-11.9,4.7-5.5-0.1-9.5-1.7-12.1-4.7-2.5-3-3.8-8.3-3.8-15.9,0-7.5,1.4-12.7,3.9-15.8s6.5-4.6,12-4.6c5.4,0,9.3,1.5,11.9,4.6,2.5,3.1,3.8,8.4,3.8,15.8zm-15.7,33.5c10.2,0,18.1-2.4,23.7-7.4,5.5-4.9,8.4-13.6,8.4-26.1-0.1-12.3-2.9-20.8-8.7-25.9-5.7-5-13.5-7.5-23.4-7.5-9.8,0-17.6,2.5-23.4,7.5-5.7,5.1-8.6,13.6-8.7,25.9,0,12.5,2.8,21.2,8.4,26.1,5.6,5,13.5,7.4,23.7,7.4z"/>
	<path d="m575,89.9h12.8c4.2,0,8.5-1.9,8.5-10.2,0-1-0.1-2.1-0.3-3.1h-49.5c-4.2,0-8.5,1.9-8.5,10.2,0,1,0.1,2.1,0.3,3.1h21v51.6c1.2,0.2,2.5,0.3,3.9,0.3,9.7,0,12-2.8,12-7.9v-44z"/>
</g>
<path fill="#FFF" d="m599,62.9c0-10.6-6.9-15.8-17.9-18.2l-19.3-4.4c-3.5-0.8-6.4-1.9-6.4-5.4,0-3.8,3-5.3,11.1-5.3,9.5,0,11.8,0.5,20.4,0.5,4,0,8.1-1.9,8.1-9.7,0-1-0.1-2-0.3-3-5.8-0.5-16.3-1.1-29.1-1.1-19.4,0-26.8,8.4-26.8,19.1,0,10,6.3,15.6,17.5,18.2l19.3,4.5c4.5,1.1,6.9,3,6.9,5.8,0,3.8-3.4,5.3-11.5,5.3-9.5,0-13.9-0.7-22.6-0.7-4,0-8.1,1.8-8.1,9.7,0,1,0.1,2,0.3,3,5.8,0.6,18.4,1.3,31.2,1.3,19.5,0.1,27.2-8.2,27.2-19.6z"/>
<g fill="#FFF" transform="translate(-60.7,-59.900002)">
	<path d="m714,142c-1.9,0-3.4-0.2-4.6-0.6s-2.1-1-2.7-1.7-1.1-1.6-1.3-2.6-0.4-2.1-0.4-3.2v-48.1c0-1.1,0.1-2.2,0.4-3.2,0.2-1,0.7-1.9,1.3-2.6s1.5-1.3,2.7-1.7,2.7-0.6,4.6-0.6h12.5c5.7,0,10.8,0.8,15.3,2.3s8.3,3.7,11.4,6.5,5.5,6.2,7.2,10.2,2.5,8.4,2.5,13.3c0,4.7-0.8,9-2.5,13s-4.1,7.6-7.2,10.6c-3.2,3-7,5.4-11.6,7.1-4.6,1.8-9.8,2.6-15.8,2.6h-11zm7.4-14.3h6c2.6,0,5.1-0.4,7.4-1.2s4.3-2,6-3.6,3-3.6,4-6,1.5-5.2,1.5-8.3c0-2.9-0.5-5.5-1.5-7.7s-2.3-4.1-4-5.6-3.7-2.7-6-3.5-4.8-1.2-7.5-1.2h-5.8v37.1z"/>
	<path d="m770,143c-1.3,0-2.7-0.1-4.4-0.4-1.7-0.2-3-0.6-4.1-1l21-64.1c1.8-0.5,3.7-0.8,5.5-1,1.9-0.2,3.6-0.3,5.1-0.3,2.2,0,4.1,0.2,5.7,0.5s2.9,0.8,4,1.5,2,1.6,2.7,2.7,1.3,2.4,1.8,3.9l18,56.7c-1.1,0.5-2.5,0.8-4.1,1.1-1.6,0.2-3.2,0.4-4.8,0.4-1.8,0-3.5-0.3-5.1-0.9-1.7-0.6-2.8-1.9-3.6-3.9l-3.4-10.4h-22l-2.9,9.8c-0.7,2.4-2,3.8-3.7,4.4-1.9,0.7-3.7,1-5.7,1zm15.8-27.8h15l-7.5-24.8-7.6,24.8z"/>
	<path d="m874,143c-2.3,0-4.2-0.4-5.7-1.2s-2.9-2.1-4.2-4.1l-13-18.6h-2.5v16.5c0,2-0.6,3.6-1.8,5s-3.5,2.1-6.9,2.1c-1.4,0-2.8-0.1-4.2-0.2s-2.5-0.3-3.5-0.5v-57.1c0-1.1,0.1-2.2,0.4-3.2,0.2-1,0.7-1.9,1.3-2.6s1.5-1.3,2.7-1.7,2.7-0.6,4.6-0.6h15.6c4,0,7.7,0.5,11,1.4s6.1,2.2,8.4,4,4.1,4,5.4,6.6c1.3,2.7,1.9,5.7,1.9,9.2,0,5.3-1.3,9.6-4,12.9s-6.5,5.6-11.6,6.7l17.5,23c-1.5,0.7-3.2,1.3-5.1,1.8s-4,0.8-6.3,0.8zm-25.4-36h7.7c4,0,6.9-0.8,8.5-2.5s2.4-3.7,2.4-6.2c0-2.6-0.9-4.6-2.6-6.1s-4.2-2.3-7.5-2.3h-8.5v17.1z"/>
	<path d="m916,143c-1.4,0-2.8-0.1-4.2-0.2s-2.5-0.3-3.5-0.5v-50.5h-19.1c-0.1-0.8-0.3-1.8-0.5-2.8-0.2-1.1-0.3-2.3-0.3-3.7,0-3.1,0.6-5.2,1.9-6.4,1.2-1.2,2.8-1.8,4.7-1.8h49c0.1,0.8,0.3,1.8,0.4,2.8,0.1,1.1,0.2,2.3,0.2,3.7,0,5.5-2.2,8.2-6.6,8.2h-12.8v44.3c0,2-0.6,3.6-1.8,5s-3.5,2.1-6.9,2.1z"/>
	<path d="m973,144c-3.5,0-7.4-0.3-11.6-0.9s-8.4-1.6-12.4-2.9c-0.1-3.7,0.3-6.8,1.3-9.1,1-2.4,2.9-3.6,5.8-3.6,1.1,0,2.2,0.1,3.5,0.4,1.2,0.2,2.6,0.5,4.1,0.8s3.1,0.5,4.8,0.8c1.7,0.2,3.5,0.4,5.5,0.4,3.3,0,5.7-0.5,7.2-1.6,1.5-1,2.3-2.4,2.3-4.1,0-1.6-0.7-2.7-2.2-3.5s-3.5-1.6-6-2.3l-7.7-2c-3.5-0.9-6.5-2.1-8.8-3.5-2.4-1.4-4.3-3-5.8-4.8s-2.5-3.6-3.1-5.6-1-4.1-1-6.2c0-2.2,0.4-4.5,1.2-6.9s2.1-4.5,4.1-6.4,4.6-3.5,7.9-4.8c3.3-1.2,7.5-1.9,12.6-1.9,3.5,0,7.1,0.3,10.7,0.9s7.4,1.6,11.4,2.9c0.2,3.7-0.2,6.7-1.2,9s-2.9,3.4-5.7,3.4c-1.1,0-2.2-0.1-3.2-0.3-1.1-0.2-2.2-0.4-3.5-0.6-1.2-0.2-2.6-0.4-4.1-0.6s-3.3-0.3-5.2-0.3c-3.6,0-6.1,0.5-7.4,1.6s-2,2.2-2,3.4c0,1.3,0.6,2.3,1.7,3.1s3.2,1.6,6.3,2.3l8.5,2.2c12.8,3.4,19.2,10,19.2,19.8,0,3.1-0.5,5.9-1.5,8.5s-2.6,4.8-4.8,6.6c-2.2,1.9-5,3.3-8.4,4.3-3.6,1-7.7,1.5-12.5,1.5z"/>
</g>
</svg>
