<?xml version="1.0" encoding="UTF-8" standalone="no"?>
<!-- Generator: Adobe Illustrator 17.1.0, SVG Export Plug-In . SVG Version: 6.00 Build 0)  -->

<svg
   xmlns:dc="http://purl.org/dc/elements/1.1/"
   xmlns:cc="http://creativecommons.org/ns#"
   xmlns:rdf="http://www.w3.org/1999/02/22-rdf-syntax-ns#"
   xmlns:svg="http://www.w3.org/2000/svg"
   xmlns="http://www.w3.org/2000/svg"
   xmlns:sodipodi="http://sodipodi.sourceforge.net/DTD/sodipodi-0.dtd"
   xmlns:inkscape="http://www.inkscape.org/namespaces/inkscape"
   enable-background="new 0 0 1372 226.8"
   xml:space="preserve"
   viewBox="-671577.08 0 0 102.3"
   height="48.809006"
   width="592.17932"
   version="1.1"
   y="0px"
   x="0px"
   id="svg2"
   inkscape:version="0.91 r13725"
   sodipodi:docname="Sky_Sports_News_HQ HD_2015.svg"><defs
     id="defs64"><linearGradient
       x1="-3890"
       y1="59"
       gradientTransform="matrix(-0.52682296,0,0,0.47572125,-1754.1559,-28.495702)"
       x2="-3890"
       gradientUnits="userSpaceOnUse"
       y2="163"
       id="SVGID_1_"><stop
         id="stop9"
         offset="0"
         stop-color="#091B4A" /><stop
         id="stop11"
         offset="0.0363"
         stop-color="#122D68" /><stop
         id="stop13"
         offset="0.896"
         stop-color="#122D68" /><stop
         id="stop15"
         offset="1"
         stop-color="#091B4A" /></linearGradient><linearGradient
       x1="465"
       y1="162"
       x2="465"
       gradientUnits="userSpaceOnUse"
       y2="59.900002"
       id="SVGID_2_"
       gradientTransform="matrix(0.47572125,0,0,0.47572125,-28.87628,-28.495702)"><stop
         id="stop22"
         offset="0"
         stop-color="#552227" /><stop
         id="stop24"
         offset="0.0739"
         stop-color="#C41C2B" /><stop
         id="stop26"
         offset="0.911"
         stop-color="#C41C2B" /><stop
         id="stop28"
         offset="1"
         stop-color="#FE3446" /></linearGradient></defs><sodipodi:namedview
     pagecolor="#ffffff"
     bordercolor="#666666"
     borderopacity="1"
     objecttolerance="10"
     gridtolerance="10"
     guidetolerance="10"
     inkscape:pageopacity="0"
     inkscape:pageshadow="2"
     inkscape:window-width="1920"
     inkscape:window-height="1017"
     id="namedview62"
     showgrid="false"
     fit-margin-top="0"
     fit-margin-left="0"
     fit-margin-right="0"
     fit-margin-bottom="0"
     inkscape:zoom="1.4583959"
     inkscape:cx="258.92385"
     inkscape:cy="-79.721959"
     inkscape:window-x="-8"
     inkscape:window-y="-8"
     inkscape:window-maximized="1"
     inkscape:current-layer="svg2" /><metadata
     id="metadata4"><rdf:RDF><cc:Work
         rdf:about=""><dc:format>image/svg+xml</dc:format><dc:type
           rdf:resource="http://purl.org/dc/dcmitype/StillImage" /><dc:title></dc:title></cc:Work></rdf:RDF></metadata><path
     style="display:none;fill:#a1a2a2"
     inkscape:connector-curvature="0"
     id="path19"
     d="m 5.8037992,49.522584 c -3.8533421,0 -6.42223683,-2.28346 -6.42223683,-6.041661 l 0,-38.3431336 c 0,-3.758198 2.61646683,-6.04165994 6.42223683,-6.04165994 l 518.5361608,0 c 3.85334,0 6.42224,2.28346194 6.42224,6.04165994 l 0,38.7237106 c 0,3.758194 -2.61647,6.041664 -6.42224,6.041664 l -523.2933733,0 z m 518.5361608,0.47572 c 5.70866,0 7.42125,-3.52034 7.42125,-7.088246 l 0,-37.5819796 c 0,-3.520337 -1.71259,-7.088247 -7.42125,-7.088247 l -518.5361608,0 c -5.70865495,0 -7.4212515,3.520337 -7.4212515,7.088247 l 0,37.5819796 c 0,3.520336 1.71259655,7.088246 7.4212515,7.088246 l 518.5361608,0 z"
     display="none" /><g
     id="g4180"><path
       d="M 5.7423703,48.571144 C 1.4751043,48.571144 0,46.287674 0,42.529481 L 0,6.1843764 C 0,2.4261784 1.5277865,0.14271646 5.7423703,0.14271646 l 579.5052597,0 c 4.26726,0 5.74237,2.28346194 5.74237,6.04165994 l 0,36.5829646 c 0,3.758203 -1.52778,6.041663 -5.74237,6.041663 l -579.5052597,0 z"
       id="path17"
       style="fill:url(#SVGID_1_)"
       inkscape:connector-curvature="0" /><rect
       height="48.523567"
       width="205.03586"
       y="-4.7876738e-009"
       x="90.054031"
       id="rect30"
       style="fill:url(#SVGID_2_)" /><g
       transform="matrix(0.52965585,0,0,0.47572125,-32.284947,-28.495702)"
       id="g32"
       style="opacity:0.4"><path
         d="m 1170,139 c 6.9,6.9 7.9,13.3 8.1,14.8 0.7,0 0.9,-3 0.9,-7.6 l 0,-72.6 c 0,-8.4 -2.7,-11.3 -9.9,-11.3 -2.4,0 -4.8,1.3 -8,1.3 l -1080,0 c -3.2,0 -5.6,-1.3 -8,-1.3 -7.1,0 -9.9,2.8 -9.9,11.3 l 0,72.6 c 0,4.5 0.3,7.6 0.9,7.6 0.2,-1.4 0.5,-8.4 8.1,-14.8 61.3,-47.2 1030,-61.7 1100,0 z"
         id="path34"
         inkscape:connector-curvature="0"
         style="fill:#ffffff" /></g><path
       d="m 475.38824,19.552144 0,-8.753271 c 0,-2.3310346 0.95145,-3.8057706 5.75623,-3.8057706 0.57087,0 1.09416,0.04757 1.7126,0.142717 l 0,28.2102706 c 0,2.331034 -0.95144,3.80577 -5.75623,3.80577 -0.57086,0 -1.09416,-0.04757 -1.66502,-0.142717 l 0,-12.844473 -14.98522,0 0,9.133848 c 0,2.331034 -0.95144,3.80577 -5.75623,3.80577 -0.57086,0 -1.09416,-0.04757 -1.66502,-0.142717 l 0,-28.257842 c 0,-2.3310346 0.90387,-3.8057706 5.75622,-3.8057706 0.57087,0 1.09416,0.04757 1.66503,0.142716 l 0,12.2736096 14.93764,0 z"
       id="path36"
       inkscape:connector-curvature="0"
       style="fill:#ffffff" /><path
       d="m 513.44595,31.920897 c 0.57086,-0.951443 1.04658,-1.950457 1.47473,-3.044616 0.66601,-1.855313 0.99902,-3.80577 0.99902,-5.851372 0,-2.235889 -0.38058,-4.329063 -1.14174,-6.27952 -0.76115,-1.950457 -1.80774,-3.663054 -3.18733,-5.090217 -1.37959,-1.427164 -3.04461,-2.5688956 -4.99507,-3.4251946 -1.95046,-0.808726 -4.0912,-1.236875 -6.46981,-1.236875 -2.37861,0 -4.56692,0.428149 -6.46981,1.236875 -1.95046,0.808727 -3.61548,1.9504586 -4.99507,3.4251946 -1.37959,1.427163 -2.47375,3.13976 -3.18733,5.090217 -0.76116,1.950457 -1.14174,4.043631 -1.14174,6.27952 0,1.902885 0.28544,3.710626 0.80873,5.37565 0.52329,1.665025 1.33202,3.234905 2.33103,4.566924 0.99902,1.379592 2.23589,2.521323 3.66306,3.520338 1.42716,0.951442 3.04461,1.665024 4.85236,2.093173 0,0 1.56988,0.523294 4.28149,0.523294 0.66601,0 1.33202,-0.04757 1.99803,-0.09515 1.95045,-0.142716 3.85334,-0.761154 5.61351,-1.712596 0.38057,-0.190289 0.71358,-0.428149 1.04658,-0.66601 l 1.37959,0.951443 c 0.47573,0.333004 0.95145,0.618437 1.42717,0.90387 0.47572,0.285433 0.90387,0.475721 1.33202,0.618438 2.42618,0.713582 4.32906,-0.285433 6.04166,-3.56791 l -5.66108,-3.615481 z m -13.41534,1.046586 c -1.18931,0 -2.28347,-0.23786 -3.28248,-0.761154 -0.99902,-0.523293 -1.85531,-1.189303 -2.5689,-2.045601 -0.71358,-0.856298 -1.28444,-1.902885 -1.71259,-3.13976 -0.42815,-1.189303 -0.61844,-2.521323 -0.61844,-3.948486 0,-1.379592 0.19029,-2.66404 0.61844,-3.805771 0.42815,-1.189303 0.99901,-2.235889 1.71259,-3.092188 0.71359,-0.856298 1.61746,-1.56988 2.61647,-2.045601 0.99902,-0.475721 2.09317,-0.713582 3.28248,-0.713582 1.1893,0 2.33103,0.237861 3.33005,0.761154 0.99901,0.523293 1.85531,1.189303 2.61646,2.045602 0.71359,0.856298 1.28445,1.902884 1.66503,3.092188 0.38057,1.189303 0.61844,2.47375 0.61844,3.80577 0,1.379591 -0.19029,2.711611 -0.61844,3.900914 -0.14272,0.333005 -0.28543,0.66601 -0.42815,0.999015 l -3.56791,-2.331035 c -2.0456,-1.379591 -3.80577,-0.380577 -4.70964,0.285433 -0.90387,0.66601 -1.52231,1.56988 -1.80774,2.616467 l 5.61351,3.80577 c -0.90387,0.428149 -1.80774,0.570865 -2.75918,0.570865"
       id="path38"
       inkscape:connector-curvature="0"
       style="fill:#ffffff" /><path
       d="m 313.64302,18.362841 -0.14272,0.04757 0,17.078393 c 0,2.378606 -0.61843,3.853342 -5.42322,3.853342 -0.71358,0 -1.14173,-0.04757 -1.66502,-0.09514 l 0,-26.878251 c 0,-2.6640395 0.95144,-4.3290636 5.09021,-4.3290636 1.33202,0 2.80676,0.09514 3.4252,0.190289 l 14.89007,20.9793076 0.14272,-0.04757 0,-17.458969 c 0,-2.4261796 0.52329,-3.7581986 4.85236,-3.7581986 0.95144,0 1.61745,0.04757 2.18831,0.142716 l 0,26.9733956 c 0,2.664039 -0.90387,4.329063 -5.09021,4.329063 -1.33202,0 -2.80676,-0.09514 -3.4252,-0.190288 L 313.26244,18.505558 Z"
       id="path40"
       inkscape:connector-curvature="0"
       style="fill:#ffffff" /><path
       d="m 439.23343,30.018012 c 0,-5.042646 -3.28248,-7.516396 -8.56298,-8.705699 l -9.18142,-2.093174 c -1.66503,-0.380577 -3.09219,-0.90387 -3.09219,-2.568894 0,-1.807741 1.42716,-2.521323 5.28051,-2.521323 4.56692,0 5.61351,0.237861 9.75228,0.237861 1.90289,0 3.85334,-0.856299 3.85334,-4.6620695 0,-0.4757211 -0.0476,-0.9990141 -0.14271,-1.4271631 -2.80676,-0.237861 -7.75426,-0.523294 -13.89106,-0.523294 -9.229,0 -12.79691,3.9960596 -12.79691,9.0862766 0,4.804785 2.99705,7.421252 8.3727,8.705699 l 9.18142,2.140746 c 2.14074,0.523293 3.28248,1.427163 3.28248,2.806755 0,1.807741 -1.61746,2.521323 -5.4708,2.521323 -4.56692,0 -6.6601,-0.333005 -10.79887,-0.333005 -1.90289,0 -3.85334,0.90387 -3.85334,4.662068 0,0.475721 0.0476,0.951443 0.14271,1.427164 2.80676,0.285433 8.80085,0.618437 14.93765,0.618437 9.32414,0 12.98719,-3.948486 12.98719,-9.371708 z"
       id="path42"
       inkscape:connector-curvature="0"
       style="fill:#ffffff" /><path
       d="m 401.17573,10.465868 c 0.38058,-2.3786066 3.28248,-3.3300486 7.70668,-2.0931736 l -6.37466,30.3034436 c -0.57087,0.142717 -2.23589,0.66601 -3.80577,0.66601 -3.13976,0 -4.99507,-0.333005 -5.70866,-2.997044 l -4.32906,-16.840532 -4.13877,16.79296 c -0.71359,2.759184 -2.75919,3.13976 -5.18537,3.13976 -2.28346,0 -3.75819,-0.523293 -4.32906,-0.666009 L 368.82668,8.1348334 c 4.70965,-1.332019 7.56397,-0.333005 7.99212,2.1883186 l 3.33005,19.504571 0.0951,0 5.23294,-21.7880336 c 0.57086,-0.142716 1.04659,-0.428149 2.75918,-0.428149 2.61647,0 4.42421,0.570865 4.9475,2.8543276 l 4.66207,19.409427 0.14272,0 3.28247,-19.694859 z"
       id="path44"
       inkscape:connector-curvature="0"
       style="fill:#ffffff" /><path
       d="m 350.27356,32.872339 0,-5.898943 10.98916,0 c 2.61646,0 4.04363,-0.951443 4.04363,-4.281492 0,-0.808726 -0.0951,-1.56988 -0.23786,-2.093173 l -14.60465,0 0,-6.517381 11.32217,0 c 2.61647,0 4.04363,-0.951443 4.04363,-4.2814915 0,-0.8087271 -0.0951,-1.5698811 -0.23786,-2.0931741 l -16.93568,0 c -4.85235,0 -5.75622,2.5688956 -5.75622,5.0426456 l 0,26.021953 19.55214,0 c 2.61647,0 4.04363,-0.951443 4.04363,-4.281492 0,-0.808726 -0.0951,-1.56988 -0.23786,-2.093173 l -15.79395,0 z"
       id="path46"
       inkscape:connector-curvature="0"
       style="fill:#ffffff" /><path
       d="m 58.180709,44.76537 c 0.570865,0.285433 1.760168,0.66601 3.234904,0.66601 2.521323,0.04757 3.900915,-0.90387 4.947501,-3.187332 L 79.968742,11.940604 c -0.570866,-0.285432 -1.807741,-0.618437 -2.806755,-0.66601 -1.760169,-0.04757 -4.091203,0.333005 -5.613511,3.900915 L 67.266985,26.069525 58.704002,11.988176 c -0.570865,-0.190288 -1.902885,-0.428149 -2.9019,-0.428149 -3.044616,0 -4.757212,1.141731 -6.517381,3.044616 l -8.372694,9.18142 6.755242,10.608584 c 1.236875,1.950457 2.9019,2.9019 5.565939,2.9019 1.760168,0 3.187332,-0.380577 3.853342,-0.713582 l -8.087261,-12.368753 5.708655,-5.851371 9.514425,14.890075 -5.708655,11.893031 z M 40.341162,33.300488 c 0,2.23589 -0.856298,3.520338 -5.232934,3.520338 -0.570865,0 -1.094159,-0.04757 -1.56988,-0.09515 l 0,-29.4471456 c 0,-2.23589 0.761154,-4.614496 5.185362,-4.614496 0.570865,0 1.094158,0.04757 1.617452,0.142716 l 0,30.7315936 z M 31.35003,28.828709 c 0,4.186347 -2.711611,7.230963 -8.27755,7.801828 -3.996058,0.428149 -9.799857,-0.09514 -12.559041,-0.380577 -0.09514,-0.428149 -0.190288,-0.999015 -0.190288,-1.427164 0,-3.663053 1.950457,-4.471779 3.80577,-4.471779 1.902885,0 4.947501,0.333004 7.183391,0.333004 2.47375,0 3.234904,-0.856298 3.234904,-1.617452 0,-1.046587 -0.999014,-1.474736 -2.901899,-1.855313 L 16.412383,26.212242 C 11.607598,25.260799 9.2765643,21.93075 9.2765643,19.076423 c 0,-3.900914 2.7591827,-7.183391 8.1824057,-7.754256 4.091202,-0.42815 9.086276,0.04757 11.845459,0.380577 0.09514,0.475721 0.142716,0.90387 0.142716,1.427163 0,3.615482 -1.902885,4.424208 -3.758198,4.424208 -1.427163,0 -3.615481,-0.285433 -6.136804,-0.285433 -2.568895,0 -3.615481,0.713582 -3.615481,1.56988 0,0.903871 0.999014,1.284448 2.616467,1.56988 l 4.995073,0.951443 c 5.137789,0.808726 7.373679,3.758198 7.373679,7.373679 z"
       id="path48"
       inkscape:connector-curvature="0"
       style="fill:#ffffff" /><path
       d="m 128.58745,30.018012 c 0,-5.042646 -3.28247,-7.516396 -8.51541,-8.658127 l -9.0387,-2.378606 c -1.66502,-0.380577 -3.04462,-0.903871 -3.04462,-2.568895 0,-1.807741 1.42717,-2.521323 5.28051,-2.521323 4.51935,0 5.61351,0.237861 9.70471,0.237861 1.90289,0 3.85335,-0.90387 3.85335,-4.6144966 0,-0.475721 -0.0476,-0.951443 -0.14272,-1.427164 -2.75918,-0.237861 -7.75426,-0.523293 -13.84349,-0.523293 -9.22899,0 -12.74933,3.9960586 -12.74933,9.0862766 0,4.757212 2.99704,7.421251 8.32512,8.658126 l 9.18142,2.140746 c 2.14075,0.523293 3.28248,1.427164 3.28248,2.759183 0,1.807741 -1.61745,2.521323 -5.47079,2.521323 -4.51936,0 -6.61253,-0.333005 -10.75131,-0.333005 -1.90288,0 -3.85334,0.856298 -3.85334,4.614496 0,0.475721 0.0476,0.951443 0.14272,1.427164 2.75918,0.285433 8.75327,0.618438 14.8425,0.618438 9.27657,0.04757 12.93962,-3.900915 12.93962,-9.324137 z"
       id="path50"
       inkscape:connector-curvature="0"
       style="fill:#ffffff" /><path
       d="m 204.22713,21.93075 0,-7.8494 7.27854,0 c 3.09219,0 5.56594,0.475721 5.56594,3.710626 0,2.711611 -1.85532,4.04363 -5.56594,4.04363 l -7.27854,0 z m -0.0476,6.136805 3.85334,0 7.42125,8.848415 c 1.3796,1.712596 2.71162,2.616467 5.89895,2.616467 2.14074,0 3.56791,-0.285433 4.70964,-0.856299 L 216.4056,27.496689 c 5.42322,-1.141731 8.13483,-4.662068 8.13483,-9.84743 0,-6.374665 -3.90091,-9.5144256 -11.75031,-9.5144256 l -11.22703,-0.04757 c -3.66305,0.142716 -4.85235,1.379592 -4.85235,4.7096406 l 0,26.212241 c 0.57086,0.09515 1.1893,0.142717 1.85531,0.142717 4.6145,0 5.70865,-1.33202 5.70865,-3.758198 l -0.0951,-7.326107 z"
       id="path52"
       inkscape:connector-curvature="0"
       style="fill:#ffffff" /><path
       d="m 139.52904,22.882193 0,-8.753271 7.56397,0 c 3.7582,0 5.61351,1.379592 5.61351,4.138775 0,2.901899 -1.85531,4.376635 -5.61351,4.376635 l -7.61154,0 z m -7.51639,16.174523 c 0.57086,0.09514 1.1893,0.142716 1.85531,0.142716 4.6145,0 5.70865,-1.33202 5.70865,-3.758198 l 0,-6.327093 7.84941,0 c 8.56298,0 12.84447,-3.710625 12.84447,-10.656156 0,-6.707669 -4.28149,-10.2755796 -12.32118,-10.2755796 l -11.08431,0 c -3.71062,0 -4.85235,1.427164 -4.85235,4.7096416 l 0,26.164669 z"
       id="path54"
       inkscape:connector-curvature="0"
       style="fill:#ffffff" /><path
       d="m 185.19828,22.882193 c 0,3.567909 -0.61844,6.04166 -1.80774,7.563968 -1.14173,1.522308 -3.04461,2.23589 -5.66108,2.23589 -2.61647,-0.04757 -4.51935,-0.808726 -5.75623,-2.23589 -1.1893,-1.427164 -1.80774,-3.948487 -1.80774,-7.563968 0,-3.567909 0.66601,-6.04166 1.85531,-7.516396 1.18931,-1.474736 3.09219,-2.188318 5.70866,-2.188318 2.56889,0 4.42421,0.713582 5.66108,2.188318 1.1893,1.474736 1.80774,3.996059 1.80774,7.516396 z m -7.46882,15.936662 c 4.85236,0 8.61055,-1.141731 11.27459,-3.520337 2.61647,-2.331035 3.99606,-6.469809 3.99606,-12.416325 -0.0476,-5.851371 -1.37959,-9.895002 -4.13877,-12.32118 -2.71162,-2.3786076 -6.42224,-3.5679106 -11.13188,-3.5679106 -4.66207,0 -8.3727,1.189303 -11.13188,3.5679106 -2.71161,2.426178 -4.0912,6.469809 -4.13877,12.32118 0,5.946516 1.33202,10.08529 3.99606,12.416325 2.66403,2.378606 6.42223,3.520337 11.27459,3.520337 z"
       id="path56"
       inkscape:connector-curvature="0"
       style="fill:#ffffff" /><path
       d="m 244.66344,14.271638 6.08923,0 c 1.99803,0 4.04363,-0.90387 4.04363,-4.8523566 0,-0.475722 -0.0476,-0.999015 -0.14272,-1.474736 l -23.5482,0 c -1.99803,0 -4.04363,0.90387 -4.04363,4.8523566 0,0.475722 0.0476,0.999015 0.14272,1.474736 l 9.99015,0 0,24.547217 c 0.57086,0.09514 1.1893,0.142716 1.85531,0.142716 4.61449,0 5.70865,-1.332019 5.70865,-3.758198 l 0,-20.931735 z"
       id="path58"
       inkscape:connector-curvature="0"
       style="fill:#ffffff" /><path
       d="m 285.09974,30.018012 c 0,-5.042646 -3.28247,-7.516396 -8.51541,-8.658127 l -9.18142,-2.093174 c -1.66502,-0.380576 -3.04461,-0.90387 -3.04461,-2.568894 0,-1.807741 1.42716,-2.521323 5.2805,-2.521323 4.51936,0 5.61352,0.237861 9.70472,0.237861 1.90288,0 3.85334,-0.903871 3.85334,-4.6144965 0,-0.4757221 -0.0476,-0.9514431 -0.14272,-1.4271641 -2.75918,-0.237861 -7.75425,-0.523294 -13.84348,-0.523294 -9.229,0 -12.74933,3.9960596 -12.74933,9.0862766 0,4.757213 2.99704,7.421252 8.32512,8.658127 l 9.18142,2.140746 c 2.14074,0.523293 3.28247,1.427163 3.28247,2.759183 0,1.807741 -1.61745,2.521323 -5.47079,2.521323 -4.51935,0 -6.61253,-0.333005 -10.7513,-0.333005 -1.90289,0 -3.85334,0.856298 -3.85334,4.614496 0,0.475721 0.0476,0.951442 0.14271,1.427164 2.75919,0.285432 8.75327,0.618437 14.84251,0.618437 9.27656,0.04757 12.93962,-3.900914 12.93962,-9.324136 z"
       id="path60"
       inkscape:connector-curvature="0"
       style="fill:#ffffff" /><path
       inkscape:connector-curvature="0"
       d="m 546.94065,20.386313 0,-6.899865 c 0,-1.869963 0.74998,-3.04994 4.59991,-3.04994 0.48999,0 0.88998,0.03 1.36997,0.1 l 0,22.659556 c 0,1.849963 -0.74998,3.03994 -4.61991,3.03994 -0.46999,0 -0.87998,-0.02 -1.34997,-0.1 l 0,-10.289798 -12.02976,0 0,7.349856 c 0,1.849963 -0.74999,3.03994 -4.61991,3.03994 -0.46999,0 -0.87999,-0.02 -1.34998,-0.1 l 0,-22.649552 c 0,-1.869963 0.73999,-3.04994 4.59991,-3.04994 0.46999,0 0.88998,0.03 1.36998,0.1 l 0,9.849807 12.02976,0 z m 33.91933,2.959942 c 0,-7.589852 -5.44989,-12.74975 -14.50971,-12.74975 l -6.15988,0 c -2.95994,0 -3.65993,1.559969 -3.65993,3.599929 l 0,18.329641 c 0,1.969961 0.69999,3.55993 3.65993,3.55993 l 6.15988,0 c 9.05982,0 14.50971,-5.149899 14.50971,-12.73975 m -18.42963,7.279857 0,-14.569714 4.25991,0 c 5.93989,0 8.09984,3.829924 8.09984,7.289857 0,3.449932 -2.15995,7.279857 -8.09984,7.279857 l -4.25991,0"
       id="path41"
       style="fill:#ffffff" /></g></svg>