<?xml version="1.0" encoding="UTF-8"?>
<!-- Generator: Adobe Illustrator 17.1.0, SVG Export Plug-In . SVG Version: 6.00 Build 0)  -->
<!DOCTYPE svg PUBLIC "-//W3C//DTD SVG 1.1//EN" "http://www.w3.org/Graphics/SVG/1.1/DTD/svg11.dtd">
<svg version="1.1" id="MIX_ARTWORK" xmlns="http://www.w3.org/2000/svg" xmlns:xlink="http://www.w3.org/1999/xlink" x="0px" y="0px" viewBox="0 0 830.5 102.3" enable-background="new 0 0 830.5 102.3" xml:space="preserve">
<g id="Grey_x5F_Shade_x5F_Lighter">
</g>
<g>
	<linearGradient id="SVGID_1_" gradientUnits="userSpaceOnUse" x1="725.5714" y1="102.3001" x2="725.5714" y2="-4.240064e-09">
		<stop offset="0" style="stop-color:#8F8F8F"/>
		<stop offset="7.390000e-02" style="stop-color:#D1D1D1"/>
		<stop offset="1" style="stop-color:#DADADC"/>
	</linearGradient>
	<path fill="url(#SVGID_1_)" d="M820,0H620.2v102.3H820c8.1,0,10.9-4.8,10.9-12.7V12.7C831,4.8,828.1,0,820,0z"/>
	<g>
		
			<linearGradient id="SVGID_2_" gradientUnits="userSpaceOnUse" x1="-3484.8269" y1="-0.89" x2="-3484.8269" y2="103.1258" gradientTransform="matrix(-1 0 0 1 -3390.2778 0)">
			<stop offset="0" style="stop-color:#091B4A"/>
			<stop offset="3.634356e-02" style="stop-color:#122D68"/>
			<stop offset="0.8955" style="stop-color:#122D68"/>
			<stop offset="1" style="stop-color:#091B4A"/>
		</linearGradient>
		<path fill="url(#SVGID_2_)" d="M10.9,102.3C2.9,102.3,0,97.5,0,89.6V12.7C0,4.8,2.9,0,10.9,0h178.2v102.3H10.9z"/>
		<path display="none" fill="#A1A2A2" d="M12.2,104.5c-8.1,0-13.5-4.8-13.5-12.7V10.5c0-7.9,5.5-12.7,13.5-12.7h807.1    c8.1,0,13.5,4.8,13.5,12.7v81.4c0,7.9-5.5,12.7-13.5,12.7H12.2z M819.9,105.5c12,0,15.6-7.4,15.6-14.9v-79    c0-7.4-3.6-14.9-15.6-14.9H11.7C-0.3-3.2-4,4.2-4,11.7v79c0,7.4,3.6,14.9,15.6,14.9H819.9z"/>
		<g>
			<linearGradient id="SVGID_3_" gradientUnits="userSpaceOnUse" x1="404.6423" y1="102.2995" x2="404.6423" y2="7.011013e-06">
				<stop offset="0" style="stop-color:#552227"/>
				<stop offset="7.388183e-02" style="stop-color:#C41C2B"/>
				<stop offset="0.9114" style="stop-color:#C41C2B"/>
				<stop offset="1" style="stop-color:#FE3446"/>
			</linearGradient>
			<rect x="189.1" y="0" fill="url(#SVGID_3_)" width="431.1" height="102.3"/>
		</g>
		<g opacity="0.4">
			<g>
				<path fill="#FFFFFF" d="M821.4,78.7c6.9,6.9,7.9,13.3,8.1,14.8c0.7,0,0.9-3,0.9-7.6l0-72.6c0-8.4-2.7-11.3-9.9-11.3      c-2.4,0-4.8,1.3-8,1.3H18.8c-3.2,0-5.6-1.3-8-1.3c-7.1,0-9.9,2.8-9.9,11.3l0,72.6c0,4.5,0.3,7.6,0.9,7.6      c0.2-1.4,0.5-8.4,8.1-14.8C71.1,31.5,755.4,17,821.4,78.7z"/>
			</g>
		</g>
		<path fill="#FFFFFF" d="M122.2,94.5c1.2,0.6,3.7,1.4,6.8,1.4c5.3,0.1,8.2-1.9,10.4-6.7L168,25.5c-1.2-0.6-3.8-1.3-5.9-1.4    c-3.7-0.1-8.6,0.7-11.8,8.2L141,54.1l-18.1-29.6c-1.2-0.4-4-0.9-6.1-0.9c-6.4,0-10,2.4-13.7,6.4L85.4,49.4l14.2,22.3    c2.6,4.1,6.1,6.1,11.7,6.1c3.7,0,6.7-0.8,8.1-1.5l-17.1-25.8l12.1-12.8l19.9,31.2L122.2,94.5z M84.8,70.3c0,4.7-1.8,7.4-11,7.4    c-1.2,0-2.3-0.1-3.3-0.2V15.2c0-4.7,1.6-9.7,10.9-9.7c1.2,0,2.3,0.1,3.4,0.3V70.3z M65.8,60.9c0,8.8-5.7,15.2-17.4,16.4    c-8.4,0.9-20.6-0.2-26.4-0.8c-0.2-0.9-0.4-2.1-0.4-3c0-7.7,4.1-9.4,8-9.4c4,0,10.4,0.7,15.1,0.7c5.2,0,6.8-1.8,6.8-3.4    c0-2.2-2.1-3.1-6.1-3.9l-11-2.1c-9.2-1.8-14.1-8.1-14.1-14.8c0-8.2,5.8-15.1,17.2-16.3c8.6-0.9,19.1,0.1,24.9,0.8    c0.2,1,0.3,1.9,0.3,3c0,7.6-4,9.3-7.9,9.3c-3,0-7.6-0.6-12.9-0.6c-5.4,0-7.6,1.5-7.6,3.3c0,1.9,2.1,2.7,5.5,3.3l10.5,2    C61.2,47.2,65.8,53.4,65.8,60.9z"/>
		<g>
			<path fill="#FFFFFF" d="M270.5,63.1c0-10.6-6.9-15.8-17.9-18.2l-19.3-4.4c-3.5-0.8-6.4-1.9-6.4-5.4c0-3.8,3-5.3,11.1-5.3     c9.5,0,11.8,0.5,20.4,0.5c4,0,8.1-1.9,8.1-9.7c0-1-0.1-2-0.3-3c-5.8-0.5-16.3-1.1-29.1-1.1c-19.4,0-26.8,8.4-26.8,19.1     c0,10,6.3,15.6,17.5,18.2l19.3,4.5c4.5,1.1,6.9,3,6.9,5.8c0,3.8-3.4,5.3-11.5,5.3c-9.5,0-13.9-0.7-22.6-0.7c-4,0-8.1,1.8-8.1,9.7     c0,1,0.1,2,0.3,3c5.8,0.6,18.4,1.3,31.2,1.3C262.8,82.8,270.5,74.5,270.5,63.1L270.5,63.1z"/>
			<path fill="#FFFFFF" d="M429.6,46V29.7h15.3c6.5,0,11.7,1,11.7,7.8c0,5.7-3.9,8.5-11.7,8.5H429.6z M429.5,58.8h8.1l15.6,18.6     c2.9,3.6,5.7,5.5,12.4,5.5c4.5,0,7.5-0.6,9.9-1.8l-20.3-23.5c11.4-2.4,17.1-9.8,17.1-20.7c0-13.4-8.2-20-24.7-20l-23.6-0.1     c-7.7,0.3-10.2,2.9-10.2,9.9v55.1c1.2,0.2,2.5,0.3,3.9,0.3c9.7,0,12-2.8,12-7.9L429.5,58.8z"/>
			<path fill="#FFFFFF" d="M293.4,47.7V29.8h15.9c7.9,0,11.8,2.9,11.8,8.7c0,6.1-3.9,9.2-11.8,9.2H293.4z M277.5,81.8     c1.2,0.2,2.5,0.3,3.9,0.3c9.7,0,12-2.8,12-7.9V60.9h16.5c18,0,27-7.8,27-22.4c0-14.1-9-21.6-25.9-21.6h-23.3     c-7.8,0-10.2,3-10.2,9.9V81.8z"/>
			<path fill="#FFFFFF" d="M389.6,48.5c0,7.5-1.3,12.7-3.8,15.9c-2.4,3.2-6.4,4.7-11.9,4.7c-5.5-0.1-9.5-1.7-12.1-4.7     c-2.5-3-3.8-8.3-3.8-15.9c0-7.5,1.4-12.7,3.9-15.8c2.5-3.1,6.5-4.6,12-4.6s9.3,1.5,11.9,4.6C388.3,35.8,389.6,41,389.6,48.5     L389.6,48.5z M373.9,82c10.2,0,18.1-2.4,23.7-7.4c5.5-4.9,8.4-13.6,8.4-26.1c-0.1-12.3-2.9-20.8-8.7-25.9     c-5.7-5-13.5-7.5-23.4-7.5c-9.8,0-17.6,2.5-23.4,7.5c-5.7,5.1-8.6,13.6-8.7,25.9c0,12.5,2.8,21.2,8.4,26.1     C355.8,79.6,363.7,82,373.9,82L373.9,82z"/>
			<path fill="#FFFFFF" d="M514.1,30.2h12.8c4.2,0,8.5-1.9,8.5-10.2c0-1-0.1-2.1-0.3-3.1h-49.5c-4.2,0-8.5,1.9-8.5,10.2     c0,1,0.1,2.1,0.3,3.1h20.9v51.6c1.2,0.2,2.5,0.3,3.9,0.3c9.7,0,12-2.8,12-7.9V30.2z"/>
		</g>
		<path fill="#FFFFFF" d="M599,63.1c0-10.6-6.9-15.8-17.9-18.2l-19.3-4.4c-3.5-0.8-6.4-1.9-6.4-5.4c0-3.8,3-5.3,11.1-5.3    c9.5,0,11.8,0.5,20.4,0.5c4,0,8.1-1.9,8.1-9.7c0-1-0.1-2-0.3-3c-5.8-0.5-16.3-1.1-29.1-1.1c-19.4,0-26.8,8.4-26.8,19.1    c0,10,6.3,15.6,17.5,18.2l19.3,4.5c4.5,1.1,6.9,3,6.9,5.8c0,3.8-3.4,5.3-11.5,5.3c-9.5,0-13.9-0.7-22.6-0.7c-4,0-8.1,1.8-8.1,9.7    c0,1,0.1,2,0.3,3c5.8,0.6,18.4,1.3,31.2,1.3C591.3,82.8,599,74.5,599,63.1L599,63.1z"/>
	</g>
	<linearGradient id="SVGID_4_" gradientUnits="userSpaceOnUse" x1="745.1531" y1="51.6405" x2="819.6446" y2="51.6405">
		<stop offset="0" style="stop-color:#122D68"/>
		<stop offset="1" style="stop-color:#122D68"/>
	</linearGradient>
	<path fill="url(#SVGID_4_)" d="M816.9,6.6c-1.8,0.8-3.7,1.8-5.2,3.1c-0.6-0.3-0.5,0.5-0.8,0.7c-1.9,1.4-3.3,3.1-5,4.4   c0.2,0.1,0.2,0.4,0,0.5l-0.8,0.6l0.2,0.2c-2.2,2.1-4.7,4.9-7,7.3c-0.2,0.6-0.4,1.4-1,1.7l0.2,0.2c-0.8,0.6-1.1,1-1.6,1.8   c0.1-0.2-0.1-0.3-0.1-0.4l-0.4,0.3l0.2,0.2c-0.1,0-0.1,0-0.2,0c-0.1,0.1-0.2,0.2-0.4,0.3c0.6,0.8-0.7,0.8-0.8,1.4   c-0.1-0.1-0.2-0.3-0.3-0.2l-0.2,0.2c0.1,0.1,0.2,0.2,0.1,0.4l-0.2-0.2c-0.1,0.2-0.5,0.2-0.4,0.5l0.2,0.2l-0.4,0.3   c0,0.5,0-0.2-0.2-0.2c-0.8,0.2,0.1,0.7-0.4,1l-0.3-0.4c-0.1,0.1-0.3,0.2-0.2,0.3l0.3,0.4c-0.2,0-0.4,0-0.5-0.2   c-0.1,0.1-0.3,0.2-0.2,0.3c0.1,0.1,0.2,0.3,0.3,0.2c-1.5,0.7-1.9,2.8-3.3,3.6c-1.4,1.6-1.9,3.3-3.2,4.9l0.2,0.2   c0.7-0.8,1.2-1.3,1.8-2.2c-0.9,1.9-2.8,3.3-3.3,5.4l0.1,0.2c-0.1,0.1-0.2,0.2-0.2,0.3l0.2,0.2c0.4-0.6,0.9-0.9,1.4-1.5   c-0.7,2.6-2.8,3.9-3.9,6.3c0.1,0.4,0.2,0.7,0.4,0.9c0-0.1,0.1,0.2,0.1,0.1l1.3,1.6c-0.3-0.1-0.3,0-0.5-0.1c0.3,0.6,0.6,0.8,1,1.5   c0.1,0.2,0.2,0.4,0.3,0.6l0.2,0c0,0.3,0.1,0.4,0.2,0.8c0.1,0.1,0.1,0.2,0.2,0.4c0.2,0.4,0.4,0.7,0.7,1.1l0.6,1.8   c0.2,0.4,0.5,0.7,0.7,1.1c0.7,1.2,1.8,2,2.6,3.2c1.1,1.4,2,3.8,2.6,5.1c1.4,3,3.6,4.5,4.9,7.6c0.7,1.7,1.7,2.9,2.8,4.4   c0.4,0.5,0.7,1,1.1,1.4c0.2,0.2,0.4,0.4,0.6,0.6c0.6,0.9,1.8,1.9,1.3,2.5c-0.2,0.3,0.9,1.5,1.4,2.5c0.1,0.2,0.3,0.4,0.4,0.5   c0.4,0.6,0.5,1.3,0.5,1.3c0.1,0.1,0.1,0.2,0.2,0.3c0.4,0.4,1.4,2.3,1.9,3.2l0,0c0,0.1,0.1,0.3,0.1,0.4c0.1,0.1,0.1,0.2,0.1,0.2   c0,0,0,0,0,0.1c0.3,1,0.4,2,0.4,3c0,0.7-0.1,1.4-0.2,2.3c0,0-0.1,0-0.2,0c-0.2,0.6,0.1,1.1-0.4,1.4l-0.4-0.1   c0.2,0.7-0.5,0.3-0.8,0.5c-0.8-0.6-0.8,0.8-1.9,0.6c-1,0.8-2.1-1-3.2-0.4c-0.1-1.4-1.9-1.7-2.1-3.1c-0.9-1.1-2.4-2.1-3-3.4   c-1-1.4-1.2-3.1-2.1-4.6c-0.5-0.8-0.1,0.7-0.6-0.1l0.2,1.1l-0.5-0.8c0,0,0,0,0,0c-0.4-0.6-1.4-0.9-1.8-1.6   c-0.1-0.1-0.1-0.2-0.2-0.4c-1.2-1.6-2.3-2.9-3.3-4.6l0.2-0.2c0.5,0.2,0.8,0.8,1.1,1.2l0.2-0.2c-1-1.3-1.9-2.6-2.8-3.9   c-2.5-2.2-3.5-5.1-5-7.9c-1.3-2.5-3.4-3.8-5.1-6c-0.6-0.8-1.2-1.5-1.5-2.3c0,0.4,0.4,0.7,0.4,1.1c0.3,0.6,1.3,1.4,1.4,2.2   c-0.3-1.1-1.6-2.1-2.5-2.5l-0.2,0.2l-0.6-0.8c-0.5,0.5-0.7,1.4-1.4,1.5c0.3,0.8-0.6,0.9-1,1.5c0.1,0.6-0.4,1.3-0.7,1.9   c-0.6,0.3-0.8,1-1,1.5l-0.2-0.2c-0.1,0.1-0.3,0.2-0.2,0.3c-0.1,0.7-0.7,1.7-1.3,2.4c-2.4,3.4-4.2,7.3-6.5,10.8   c-1.6,2.5-3.5,4.8-6,6.7c-0.7,1.5-2.4,3-4.2,3l-0.2-0.2c-0.2,0.4-0.5-0.1-0.7-0.1c-0.2-0.5-1.4,0-1.9-0.5c-1,0-1.3-1.3-2.2-1.4   c0.7-0.7-0.3-1.6,0.4-2.3c0.4-0.4,0.8-1.2,1.4-1.5c0-0.5,0.2-1.2,0.5-1.7l0.2,0.2c0.1-0.1,0.3-0.2,0.2-0.3   c-0.1-0.1-0.2-0.3-0.3-0.2l0.4-0.3l-0.2-0.2c0.2-0.8,0.6-1.5,1-2.1c1.1-1.6,2.7-3,3.4-4.8c5-7.2,9.1-15.1,14.6-21.9   c0.4-0.6,0.8-1.5,0.7-2.1c-0.1,0.1-0.2,0.2-0.4,0.2c-0.1-0.1-0.2-0.2-0.1-0.4l0.2,0.2c0.3-0.7-0.3-1.5-0.7-2.2   c-0.2-0.1-0.3,0-0.4,0.1l0.1,1.1c-0.8-1.6-2.4-3-2.8-4.5c-1.3-0.4-1.1-1.9-2.3-2.7c-1.2-2.8-3.1-4.8-4.5-7.7   c-0.5,0.3,0,0.7,0.1,1.1c-2.2-3.5-4.3-7.6-6.4-11.4c0-0.1-0.1-0.1-0.1-0.2c-0.7-1.4-0.6-3.1,0.2-4.4c0.4-0.9,1.6-1.7,2.3-2.1   c-0.4-0.4,0.2-0.7,0.3-1c0.8-0.8,1.2-2.2,2.5-2.5c-0.3-0.2,0-0.6,0.1-0.9c0.4-0.1,0.7-0.5,1.1-0.8c0.4,0.1,1,0.1,1.4,0.6   c2.3,2.7,4.1,5.7,6,8.7c2.1,3.4,4.1,6.8,6.6,9.9l-0.2,0.2c0.1,0.1,0.5,0.6,0.5,0.6l0.2-0.2c1.5,2.6,3.4,4.7,5.3,7.2l0.4,0   c3.1-3.3,5.5-6.8,8.6-9.8c0.7-0.9,1.5-2.3,2.5-2.6l0.2-0.2l-0.2-0.2c0.6-0.6,0.9-1.4,1.7-1.6l-0.2-0.2c0.3-0.3,0.6-0.7,0.9-1   c8.4-8.7,16.3-17.8,27.5-22.9c0.6-0.6,1.3-0.8,2-1.1c0,0.2-0.5,0.5-0.1,0.7C819.9,3.5,818,5.4,816.9,6.6z"/>
	<linearGradient id="SVGID_5_" gradientUnits="userSpaceOnUse" x1="641.7931" y1="49.5286" x2="715.9633" y2="49.5286">
		<stop offset="0" style="stop-color:#122D68"/>
		<stop offset="1" style="stop-color:#122D68"/>
	</linearGradient>
	<path fill="url(#SVGID_5_)" d="M649,82.6c-1.5,0-2.9-0.2-4.1-0.5c-1.2-0.3-2.2-0.7-3.1-1.1l6.2-62.9c1.3-0.5,3-1,5-1.3   c2.1-0.3,3.9-0.5,5.3-0.5c2.1,0,3.9,0.1,5.4,0.4c1.5,0.3,2.8,0.7,3.9,1.4c1.1,0.6,1.9,1.5,2.6,2.7c0.6,1.1,1.1,2.6,1.5,4.2   l2.6,12.2c0.7,3.4,1.5,7.1,2.4,11.1c0.8,4.1,1.6,8.3,2.3,12.6h0.4c0.7-4.3,1.5-8.5,2.3-12.5c0.8-4,1.6-7.7,2.5-11.1l3.2-12.8   c0.8-3.2,2.1-5.3,3.9-6.5c1.8-1.1,4.6-1.7,8.3-1.7c1.9,0,3.8,0.2,5.7,0.5c1.9,0.3,3.5,0.6,4.8,1l5.9,63.3c-0.9,0.3-2.1,0.7-3.4,1   s-2.7,0.5-4.3,0.5c-2.2,0-4-0.4-5.4-1.1c-1.5-0.7-2.3-2.1-2.4-4.1l-1.5-21.8c-0.3-3.8-0.6-7.9-0.9-12.1c-0.2-4.2-0.4-8.2-0.5-12   h-0.2c-0.9,3.5-1.8,7.3-2.7,11.4c-0.9,4.1-1.8,7.8-2.8,11.3l-4.1,17.2c-1,4-4.2,6.1-9.6,6.1c-1.3,0-2.7-0.1-4.1-0.4   c-1.4-0.3-2.6-0.6-3.6-0.9l-5.1-21.4c-1-4-2-7.9-2.8-11.7c-0.9-3.8-1.7-7.7-2.4-11.5h-0.3c-0.2,5.4-0.5,10.3-0.8,14.8   c-0.3,4.5-0.6,8.3-0.9,11.6l-1.6,19.7c-0.1,2-0.9,3.3-2.2,4C652.9,82.3,651.1,82.6,649,82.6z"/>
	<linearGradient id="SVGID_6_" gradientUnits="userSpaceOnUse" x1="725.0438" y1="49.5286" x2="741.3915" y2="49.5286">
		<stop offset="0" style="stop-color:#122D68"/>
		<stop offset="1" style="stop-color:#122D68"/>
	</linearGradient>
	<path fill="url(#SVGID_6_)" d="M732.7,82.6c-1.4,0-2.8-0.1-4.2-0.2c-1.4-0.1-2.5-0.3-3.5-0.5V23.5c0-2,0.6-3.6,1.8-5   c1.2-1.4,3.5-2.1,6.9-2.1c1.4,0,2.8,0.1,4.2,0.2c1.4,0.1,2.5,0.3,3.5,0.5v58.4c0,2-0.6,3.6-1.8,5C738.4,81.9,736.1,82.6,732.7,82.6   z"/>
	<g>
		<path opacity="0.4" fill="#FFFFFF" d="M830.4,13.3c0-8.4-2.7-11.3-9.9-11.3c-2.4,0-4.8,1.3-8,1.3H620.2v38.7    C721.8,47.9,801,59.7,821.4,78.7c6.9,6.9,7.9,13.3,8.1,14.8c0.7,0,0.9-3,0.9-7.6L830.4,13.3z"/>
	</g>
</g>
</svg>