<svg height="778.66663" viewBox="0 0 2372.4458 729.99997" width="2530.6089" xmlns="http://www.w3.org/2000/svg" xmlns:xlink="http://www.w3.org/1999/xlink"><clipPath id="a"><path d="m411.591 515.351h94.948v18.13h-94.948z"/></clipPath><clipPath id="b"><path d="m412.392 532.67h93.284v-15.246h-93.284z"/></clipPath><clipPath id="c"><path d="m412.392 517.424h93.284v15.245h-93.284z"/></clipPath><linearGradient id="d" gradientTransform="matrix(0 17.057004 17.057004 0 474.76197 515.88703)" gradientUnits="userSpaceOnUse" spreadMethod="pad" x1="0" x2="1" y1="0" y2="0"><stop offset="0" stop-color="#820021"/><stop offset=".104411" stop-color="#ae2c3f"/><stop offset=".901742" stop-color="#ae2c3f"/><stop offset="1" stop-color="#ba3c4c"/></linearGradient><clipPath id="e"><path d="m411.591 515.351h94.948v18.13h-94.948z"/></clipPath><clipPath id="f"><path d="m505.836 530.723h.017v-.016h-.017z"/></clipPath><linearGradient id="g" gradientTransform="matrix(0 -17.343138 17.343138 0 459.06457 533.09243)" gradientUnits="userSpaceOnUse" spreadMethod="pad" x1="0" x2="1" y1="0" y2="0"><stop offset="0" stop-color="#868685"/><stop offset=".020448" stop-color="#d8d9d9"/><stop offset=".0524045" stop-color="#f5f5f5"/><stop offset=".487663" stop-color="#edeeee"/><stop offset=".895488" stop-color="#f5f5f5"/><stop offset=".929442" stop-color="#ebebec"/><stop offset=".964262" stop-color="#d8d9d9"/><stop offset="1" stop-color="#868685"/></linearGradient><path d="m414.085 532.944c-1.345 0-1.823-.794-1.823-2.114v-12.829c0-1.32.478-2.114 1.823-2.114h89.96c1.345 0 1.822.794 1.822 2.114v12.829c0 1.32-.477 2.114-1.822 2.114z" fill="url(#g)" transform="matrix(24.9869 0 0 -24.9869 -10284.383283 13330.023906)"/><g clip-path="url(#e)" transform="matrix(24.9869 0 0 -24.9869 -10284.383283 13330.023906)"><g transform="translate(503.9336 515.3505)"><path d="m0 0c1.996 0 2.605 1.241 2.605 2.482v13.166c0 1.241-.609 2.482-2.605 2.482h-89.738c-1.997 0-2.605-1.241-2.605-2.482v-13.166c0-1.241.608-2.482 2.605-2.482zm-89.646.167c-1.344 0-2.254.793-2.254 2.114v13.568c0 1.321.91 2.114 2.254 2.114h89.554c1.344 0 2.254-.793 2.254-2.114v-13.568c0-1.321-.91-2.114-2.254-2.114z" fill="#a1a2a2"/></g><g><g/><g><g clip-path="url(#f)" opacity=".800003"><g/></g></g></g></g><path d="m443.657 532.944v-17.057h60.388c1.345 0 1.822.794 1.822 2.114v12.829c0 1.32-.477 2.114-1.822 2.114z" fill="url(#d)" transform="matrix(24.9869 0 0 -24.9869 -10284.383283 13330.023906)"/><g clip-path="url(#a)" transform="matrix(24.9869 0 0 -24.9869 -10284.383283 13330.023906)"><g transform="translate(452.075 519.0374)"><path d="m0 0c-.756 0-1.454.136-2.093.408-.639.273-1.192.649-1.661 1.129-.469.481-.836 1.052-1.102 1.714s-.4 1.377-.4 2.146c0 .747.134 1.446.4 2.098.266.651.633 1.217 1.102 1.697.469.481 1.022.857 1.661 1.129.639.273 1.337.409 2.093.409.543 0 1.07-.059 1.581-.176.512-.118.985-.268 1.422-.449.096-1.42-.25-2.13-1.038-2.13-.139 0-.266.016-.384.048-.117.032-.245.064-.383.096-.139.032-.293.064-.463.096-.171.032-.373.049-.607.049-.373 0-.724-.067-1.055-.201-.33-.133-.614-.326-.854-.576-.24-.251-.429-.553-.567-.905-.139-.352-.208-.748-.208-1.185 0-.46.069-.871.208-1.233.138-.363.327-.67.567-.921s.524-.443.854-.577c.331-.133.682-.2 1.055-.2.234 0 .442.016.623.048s.343.064.487.096.28.064.407.096c.128.032.261.048.4.048.777 0 1.123-.71 1.038-2.13-.437-.181-.924-.331-1.462-.448s-1.078-.176-1.621-.176" fill="#fff"/></g><g transform="translate(457.5874 519.1654)"><path d="m0 0c-.224 0-.445.011-.663.032s-.402.048-.551.08v9.273c0 .309.096.573.287.792.192.219.554.329 1.087.329.223 0 .444-.011.663-.033.218-.021.402-.048.551-.08v-9.272c0-.31-.096-.574-.288-.793-.191-.219-.554-.328-1.086-.328" fill="#fff"/></g><g transform="translate(461.9564 519.1654)"><path d="m0 0c-.213 0-.421.011-.623.032-.203.021-.373.048-.511.08v10.201c.159.054.367.099.623.137.255.037.473.056.655.056.585 0 1.011-.075 1.278-.225.266-.149.489-.368.671-.656l3.626-5.717v5.573c0 .138.018.269.056.392.037.123.101.232.191.328.091.096.216.171.376.224.159.054.362.081.607.081.213 0 .418-.011.615-.033.197-.021.364-.042.503-.063v-10.218c-.149-.075-.33-.125-.543-.152s-.421-.04-.623-.04c-.501 0-.874.069-1.118.208-.246.139-.448.331-.607.577l-3.882 6.214v-5.942c0-.299-.091-.55-.272-.753s-.522-.304-1.022-.304" fill="#fff"/></g><g transform="translate(473.3041 519.2296)"><path d="m0 0c-.298 0-.541.032-.727.096s-.33.152-.431.264c-.102.112-.171.248-.208.409-.037.16-.056.33-.056.512v7.847c0 .182.019.353.056.513s.106.296.208.408c.101.112.245.2.431.264s.429.096.727.096h5.287c.022-.117.043-.277.064-.48.022-.203.032-.411.032-.624 0-.449-.09-.767-.271-.953-.182-.187-.41-.281-.687-.281h-3.259v-1.825h3.754c.021-.107.043-.249.064-.425s.032-.366.032-.568c0-.427-.086-.718-.256-.873s-.383-.232-.639-.232h-2.955v-1.81h4.281c.021-.118.043-.28.064-.488.021-.209.032-.414.032-.617 0-.459-.091-.779-.272-.961-.181-.181-.41-.272-.686-.272z" fill="#fff"/></g><g transform="translate(480.983 519.1654)"><path d="m0 0c-.245 0-.461.024-.647.072-.187.048-.349.104-.487.168l.976 9.977c.203.086.469.155.799.208.33.054.612.081.846.081.33 0 .615-.022.854-.065.24-.042.445-.114.615-.216.17-.101.306-.243.407-.424.101-.182.178-.406.232-.673l.415-1.937c.117-.534.242-1.124.375-1.77s.253-1.311.359-1.994h.064c.117.683.239 1.345.367 1.986s.261 1.228.399 1.761l.51 2.034c.128.502.332.844.614 1.025.282.182.721.273 1.316.273.298 0 .598-.025.901-.073s.556-.098.758-.152l.934-10.041c-.149-.053-.328-.107-.535-.16-.208-.053-.434-.08-.679-.08-.341 0-.629.059-.863.176-.234.118-.362.337-.383.657l-.24 3.459c-.053.609-.098 1.246-.136 1.914-.037.667-.061 1.299-.072 1.898h-.032c-.138-.556-.279-1.156-.423-1.802s-.29-1.241-.439-1.786l-.655-2.722c-.16-.641-.666-.961-1.518-.961-.213 0-.431.021-.655.064-.223.042-.415.09-.575.144l-.814 3.395c-.16.63-.309 1.249-.447 1.858-.139.608-.267 1.217-.384 1.825h-.048c-.032-.854-.074-1.636-.128-2.346-.053-.71-.101-1.321-.143-1.833l-.256-3.123c-.021-.31-.138-.523-.351-.641-.214-.117-.49-.176-.831-.176" fill="#fff"/></g><g transform="translate(496.0557 523.5375)"><path d="m0 0h2.39l-1.192 3.923zm-2.492-4.404c-.202 0-.434.019-.694.056-.262.037-.477.088-.647.152l3.314 10.153c.288.075.579.129.873.161s.563.048.809.048c.352 0 .654-.027.905-.08.251-.054.462-.134.633-.241s.312-.248.424-.424.206-.382.281-.617l2.84-8.984c-.181-.075-.399-.131-.655-.168-.255-.037-.506-.056-.75-.056-.278 0-.546.045-.807.136s-.45.296-.567.617l-.544 1.649h-3.484l-.461-1.553c-.117-.374-.314-.609-.591-.705s-.57-.144-.879-.144" fill="#fff"/></g><g transform="translate(423.1164 522.7819)"><path d="m0 0c0-1.46-.955-2.527-2.894-2.738-1.404-.15-3.438.027-4.404.138-.036.158-.064.354-.064.508 0 1.278.691 1.569 1.338 1.569.672 0 1.73-.116 2.518-.116.865 0 1.129.294 1.129.573 0 .367-.349.52-1.021.648l-1.839.354c-1.531.293-2.348 1.352-2.348 2.476 0 1.366.967 2.509 2.868 2.72 1.438.155 3.187-.02 4.148-.138.035-.165.053-.321.053-.492 0-1.274-.671-1.549-1.319-1.549-.497 0-1.269.093-2.15.093-.897 0-1.269-.248-1.269-.55 0-.319.355-.451.916-.549l1.758-.326c1.806-.333 2.58-1.359 2.58-2.621m3.155-1.568c0-.783-.307-1.235-1.836-1.235-.203 0-.38.015-.55.04v10.39c0 .789.269 1.612 1.813 1.612.194 0 .391-.02.573-.058zm6.25-4.019c.2-.103.612-.227 1.131-.241.886-.019 1.371.321 1.73 1.116l4.764 10.626c-.197.106-.631.223-.988.231-.612.011-1.434-.114-1.96-1.367l-1.543-3.641-3.025 4.927c-.195.06-.671.146-1.021.146-1.067 0-1.665-.394-2.284-1.066l-2.941-3.217 2.366-3.723c.437-.678 1.013-1.024 1.949-1.024.612 0 1.121.139 1.357.252l-2.848 4.295 2.019 2.139 3.311-5.197z" fill="#ae2c3f"/></g><g><g/><g><g clip-path="url(#b)" opacity=".399994"><g><g><g clip-path="url(#c)"><g transform="translate(504.1664 519.8869)"><path d="m0 0c1.156-1.145 1.313-2.225 1.354-2.463.114 0 .156.506.156 1.261l-.004 12.109c0 1.402-.456 1.876-1.644 1.876-.402 0-.804-.216-1.339-.216h-87.31c-.536 0-.938.216-1.34.216-1.187 0-1.643-.474-1.643-1.876l-.004-12.109c0-.755.041-1.261.155-1.261.041.238.076 1.402 1.354 2.463 10.208 7.878 79.259 10.296 90.265 0" fill="#fff"/></g></g></g></g></g></g></g></g><g transform="matrix(1.0031441 0 0 1.0031441 433.77395 520.313368)"><path d="m414.53 42.7c17.99-2.87 37.14-.46 53.12 8.59 15.75 8.54 27.85 23.09 34.33 39.72 11.46 29.46 7.11 65.18-12.99 89.93-11.53 14.47-28.65 24.32-46.95 27.08-17.43 2.63-35.92.23-51.4-8.49-16.01-8.69-28.13-23.58-34.83-40.39-11.19-28.26-8.01-62.5 10.29-87.12 11.51-15.58 29.33-26.23 48.43-29.32m3.88 24.88c-13.19 2.98-24.53 12.08-31.22 23.71-8.83 14.81-10.6 33.06-7.02 49.73 3.16 14.33 11.28 27.99 23.87 35.92 11.51 7.55 26.59 9.36 39.52 4.58 12.04-4.48 22.01-13.83 27.94-25.16 8.1-15.27 9.57-33.65 5.1-50.25-3.61-13.34-11.83-25.7-23.8-32.9-10.12-6.37-22.77-8.27-34.39-5.63z"/><path d="m704.4 57.39c10.17-9.27 24.01-13.57 37.56-14.32 20.26-1.26 40.59 2.48 59.68 9.15.02 6.05.13 12.75-3.67 17.83-3.31 4.16-9.26 3.94-13.98 3.01-14.75-3.01-29.89-6.03-44.98-3.98-5.75.89-11.66 2.85-15.8 7.12-6.35 6.37-5.97 18.63 1.72 23.79 7.75 5.04 16.96 6.93 25.69 9.57 14.09 4.25 29.11 6.97 41.35 15.66 8.98 6.14 15.65 15.87 17.06 26.76 1.68 12.79-.62 26.81-8.97 37-9.21 11.14-23.65 16.39-37.61 18.16-23.91 2.84-48.1-1.61-70.81-9.04-.47-6.48-.12-13.89 4.47-18.96 4.25-4.14 10.72-2.98 15.96-1.87 15.67 3.65 31.87 7.03 48 4.61 6.39-.92 12.98-3.48 16.9-8.87 5.63-7.21 5.69-19.23-1.83-25.17-6.55-5.08-14.88-6.82-22.63-9.21-15.78-4.63-32.89-7.59-45.99-18.27-18.45-15.16-19.62-46.67-2.12-62.97z"/><path d="m1229.49 63.44c8.39-11.77 22.72-17.88 36.68-19.76 22.23-2.7 44.81 1.24 65.83 8.53.03 6.09.16 12.87-3.76 17.95-3.16 3.88-8.75 3.83-13.25 3.01-14.42-2.91-29.14-5.93-43.92-4.32-6.38.75-13.07 2.72-17.63 7.49-6.34 6.53-5.72 18.99 2.28 23.93 7.98 4.99 17.35 6.87 26.25 9.57 11.35 3.45 23.21 5.75 33.78 11.38 7.83 4.06 14.97 9.95 19.28 17.75 3.94 6.96 5.21 15.14 4.84 23.05-.42 10.66-3.91 21.6-11.54 29.32-9.61 9.88-23.39 14.43-36.8 15.96-23.51 2.51-47.22-1.9-69.52-9.2-.47-6.22-.11-13.11 3.82-18.26 3.43-4.25 9.49-3.98 14.35-3.02 12.16 2.57 24.34 5.74 36.86 5.82 8.66.08 18-.25 25.53-5.07 7.95-5.2 11.2-16.47 6.88-24.99-3.29-6.06-10.12-8.74-16.3-10.83-11.9-3.99-24.24-6.52-36.11-10.62-10.02-3.6-20.15-8.69-26.49-17.56-10.7-14.32-10.89-35.34-1.06-50.13z"/><path d="m176.63 47.28c10.07-3.5 21.34-4.42 31.69-1.57 5.82 1.52 10.06 6.62 11.38 12.38 9.23 36.17 18.25 72.4 27.52 108.56 9.54-36.13 18.57-72.39 28.04-108.53 1.54-5.93 6.21-10.88 12.14-12.51 9.95-2.88 20.56-1.37 30.48.84 5.29 52.62 10.38 105.26 15.59 157.89-7.1 2.7-15.4 4.09-22.55.87-3.15-1.36-4.42-4.89-4.59-8.08-3.51-42.23-6.95-84.47-10.51-126.7-9.69 36.1-19.39 72.2-29.06 108.3-1.25 5.47-3.18 11.79-8.8 14.23-8.26 3.44-17.7 2.37-26.17.26-11.36-40.93-22.72-81.87-34.12-122.79-3.86 42.16-7.63 84.33-11.45 126.5-.16 3.1-1.24 6.56-4.21 8.06-6.8 3.44-14.97 2.19-21.76-.63 5.44-52.36 11-104.71 16.38-157.08z"/><path d="m532.45 46.4c7.59-2.6 15.87-2.92 23.75-1.6 5.73.92 10.12 5.28 13.09 10.01 23.92 36.96 47.83 73.93 71.77 110.88-.48-36.87-1.03-73.74-1.46-110.62-.2-4.5 2.58-9.28 7.16-10.33 6.13-1.41 12.53-.47 18.67.48.03 53.29-.01 106.58.02 159.87-6.78 2.39-14.17 2.71-21.22 1.56-5.37-.87-9.74-4.7-12.59-9.16-24.79-38.59-49.54-77.2-74.34-115.79.44 38.11 1.01 76.21 1.45 114.31.31 4.64-2.45 9.67-7.27 10.61-6.27 1.28-12.76.57-19.04-.25 0-53.33-.02-106.65.01-159.97z"/><path d="m818.73 50.7c1.15-4.42 6.13-6.18 10.26-6.12 38.84-.05 77.67 0 116.51-.02.88 6.39 1.84 13.23-.47 19.43-1.53 4.01-5.91 6.09-10.03 5.88-12.89.03-25.79-.01-38.68.02 0 41.04-.04 82.09.02 123.14.45 5.01-1.14 11.09-6.32 13.02-6.91 2.32-14.39.95-21.44.12-.19-45.42-.02-90.86-.09-136.29-16.56-.01-33.12 0-49.68 0-.86-6.32-1.67-12.92-.08-19.18z"/><path d="m965.94 47.06c2.83-2.16 6.56-2.4 9.99-2.5h84.22c.95 6.05 1.9 12.36.45 18.41-1.03 4.2-5.33 6.93-9.53 6.87-20.31.1-40.63 0-60.94.04-.01 14.37 0 28.74-.01 43.11 21.34.02 42.68 0 64.02.02.67 5.82 1.73 11.83.27 17.61-.99 4.15-5.3 6.67-9.39 6.48-18.3.07-36.6 0-54.89.03-.01 14.43-.01 28.87 0 43.3 24.06.01 48.13 0 72.19.01.71 6.17 1.83 12.59.07 18.68-1.16 4.03-5.22 6.77-9.35 6.67-25.36.06-50.71.01-76.07.02-3.81-.1-8.06-.16-11.17-2.65-2.98-2.85-3.53-7.25-3.49-11.16.01-44.68-.01-89.37 0-134.05-.01-3.85.65-8.16 3.63-10.89z"/><path d="m1091.64 47.64c2.69-2.68 6.78-2.93 10.37-3.07 14.66-.01 29.32-.03 43.97.01 13.89.25 28.42 3.33 39.46 12.22 8.4 6.61 13.98 16.48 15.7 27 2.38 13.53.19 28.24-7.97 39.53-8.07 11.59-21.63 18.45-35.48 20.01 16.72 19.83 33.44 39.67 50.11 59.54-8.23 4.28-18.01 5.57-27.02 3.32-5.98-1.65-10.22-6.53-13.9-11.22-13.06-16.8-26.19-33.55-39.21-50.38-3.75-.05-7.49-.05-11.22-.03-.04 17.15.03 34.3-.03 51.45.1 4.79-3.11 9.65-7.96 10.6-6.55 1.34-13.31.48-19.84-.52-.01-48.37.02-96.73-.01-145.1-.04-4.56-.17-9.71 3.03-13.36m24.8 22.27c0 16.92-.01 33.85 0 50.77 5.85.01 11.71 0 17.57.01 9.06.02 18.51.03 26.93-3.79 7.06-3.12 11.92-10.23 12.88-17.82 1.14-7.87-.35-16.84-6.47-22.42-6.06-5.42-14.6-6.55-22.42-6.74-9.5-.08-19-.05-28.49-.01z"/></g></svg>