<?xml version="1.0" encoding="UTF-8"?>
<!-- Created with Inkscape (http://www.inkscape.org/) -->
<svg id="svg5155" width="1062.4mm" height="106.89mm" version="1.1" viewBox="0 0 3764.3 378.75" xmlns="http://www.w3.org/2000/svg" xmlns:cc="http://creativecommons.org/ns#" xmlns:dc="http://purl.org/dc/elements/1.1/" xmlns:rdf="http://www.w3.org/1999/02/22-rdf-syntax-ns#">
 <defs id="defs5157">
  <linearGradient id="linearGradient672-6" x2="1" gradientTransform="matrix(0 362.31 362.31 0 1500.2 -254.14)" gradientUnits="userSpaceOnUse">
   <stop id="stop674-6" stop-color="#777878" offset="0"/>
   <stop id="stop676-6" stop-color="#d0d2d0" offset=".020448"/>
   <stop id="stop678-4" stop-color="#f3f3f2" offset=".052404"/>
   <stop id="stop680-3" stop-color="#e9ebe9" offset=".48766"/>
   <stop id="stop682-0" stop-color="#f3f3f2" offset=".89549"/>
   <stop id="stop684-1" stop-color="#e6e7e6" offset=".92944"/>
   <stop id="stop686-3" stop-color="#d0d2d0" offset=".96426"/>
   <stop id="stop688-6" stop-color="#777878" offset="1"/>
  </linearGradient>
  <linearGradient id="linearGradient704-0" x2="1" gradientTransform="matrix(0 -356.33 659.28 0 2116.7 105.42)" gradientUnits="userSpaceOnUse">
   <stop id="stop706-9" stop-color="#820021" offset="0"/>
   <stop id="stop708-8" stop-color="#ae2c3f" offset=".10441"/>
   <stop id="stop710-4" stop-color="#ae2c3f" offset=".89813"/>
   <stop id="stop712-5" stop-color="#b53152" offset=".99967"/>
   <stop id="stop714-1" stop-color="#ba3c4c" offset="1"/>
  </linearGradient>
 </defs>
 <metadata id="metadata5160">
  <rdf:RDF>
   <cc:Work rdf:about="">
    <dc:format>image/svg+xml</dc:format>
    <dc:type rdf:resource="http://purl.org/dc/dcmitype/StillImage"/>
    <dc:title/>
   </cc:Work>
  </rdf:RDF>
 </metadata>
 <g id="layer1" transform="translate(-247.93 263.49)">
  <path id="path644-1" d="m3957.8 115.26c41.719 0 54.42-25.925 54.42-51.851v-275.05c0-25.925-12.701-51.851-54.42-51.851h-3655.4c-41.719 0-54.42 25.925-54.42 51.851v275.05c0 25.925 12.702 51.851 54.42 51.851zm-3653.5-3.4888c-28.077 0-47.088-16.566-47.088-44.163v-283.45c0-27.597 19.011-44.163 47.088-44.163h3651.6c28.077 0 47.088 16.566 47.088 44.163v283.45c0 27.597-19.011 44.163-47.088 44.163z" fill="#939697"/>
  <path id="path690-9" d="m300.02-251.04c-28.098 0-38.084 16.587-38.084 44.163v268.01c0 27.597 9.9858 44.163 38.084 44.163h3660.1c28.098 0 38.083-16.566 38.083-44.163v-268.01c0-27.576-9.9853-44.163-38.083-44.163z" fill="url(#linearGradient672-6)"/>
  <path id="path716-4" d="m917.8 105.42h2555.7v-356.33h-2555.7z" fill="url(#linearGradient704-0)"/>
  <path id="path728-9" d="m1093.7 39.861c-15.794 0-30.375-2.8411-43.724-8.5234-13.349-5.7032-24.902-13.558-34.7-23.586-9.7978-10.048-17.465-21.977-23.022-35.807-5.557-13.83-8.3354-28.767-8.3354-44.832 0-15.605 2.7785-30.229 8.3354-43.829 5.5569-13.6 13.224-25.424 23.022-35.452 9.7978-10.048 21.35-17.903 34.7-23.586 13.349-5.7032 27.931-8.5443 43.724-8.5443 11.344 0 22.353 1.2326 33.028 3.6768 10.696 2.4651 20.578 5.5778 29.707 9.38 2.0054 29.665-5.2228 44.497-21.685 44.497-2.9037 0-5.5568-0.33426-8.022-1.0028-2.4442-0.66851-5.1182-1.337-8.0011-2.0055-2.9038-0.6685-6.121-1.337-9.6724-2.0055-3.5724-0.66851-7.7923-1.0236-12.681-1.0236-7.7924 0-15.125 1.3997-22.04 4.1991-6.8939 2.7785-12.827 6.7895-17.841 12.033-5.0139 5.2436-8.9622 11.553-11.845 18.906-2.9038 7.3536-4.3453 15.605-4.3453 24.756 0 9.5889 1.4415 18.175 4.3453 25.758 2.883 7.5834 6.8313 13.997 11.845 19.24 5.0137 5.2436 10.947 9.2546 17.841 12.054 6.9149 2.7785 14.248 4.1782 22.04 4.1782 4.8884 0 9.2337-0.33425 13.015-1.0028 3.7811-0.6685 7.1655-1.337 10.174-2.0055 3.0083-0.6685 5.8494-1.337 8.5026-2.0055 2.674-0.6685 5.4524-1.0028 8.3564-1.0028 16.232 0 23.46 14.832 21.684 44.476-9.1293 3.8021-19.303 6.9357-30.542 9.38s-22.52 3.6768-33.864 3.6768" fill="#fff"/>
  <path id="path732-1" d="m1208.8 37.185c-4.6796 0-9.2964-0.2298-13.851-0.66851-4.5541-0.43871-8.3981-1.0028-11.511-1.6713v-193.72c0-6.4552 2.0055-11.97 5.9956-16.546 4.011-4.5751 11.574-6.8522 22.708-6.8522 4.6795 0 9.2755 0.2089 13.851 0.66851 4.554 0.43871 8.398 1.0028 11.511 1.6713v193.7c0 6.4761-2.0055 11.991-6.0165 16.566-3.9901 4.5751-11.574 6.8522-22.687 6.8522" fill="#fff"/>
  <path id="path736-6" d="m1300.1 37.185c-4.4498 0-8.795-0.2298-13.015-0.66851-4.2408-0.43871-7.7922-1.0028-10.675-1.6713v-213.11c3.3217-1.1281 7.6669-2.0682 13.015-2.8412 5.3271-0.79384 9.8813-1.1699 13.684-1.1699 12.221 0 21.12 1.5459 26.698 4.6795 5.557 3.1127 10.216 7.6878 13.997 13.704l75.771 119.43v-116.42c0-2.8829 0.376-5.6196 1.1699-8.1892 0.773-2.5696 2.11-4.8467 3.9901-6.8522 1.901-2.0055 4.5125-3.5723 7.855-4.6795 3.3216-1.1281 7.5625-1.6713 12.681-1.6713 4.4497 0 8.7324 0.2089 12.848 0.66851 4.1154 0.43871 7.6042 0.87741 10.508 1.337v213.44c-3.1127 1.5668-6.894 2.6113-11.344 3.1754-4.4498 0.56405-8.795 0.83563-13.015 0.83563-10.466 0-18.258-1.4415-23.356-4.3453-5.139-2.9038-9.3591-6.9149-12.681-12.054l-81.098-129.79v124.11c0 6.2463-1.9012 11.49-5.6823 15.731-3.7813 4.2408-10.905 6.3508-21.35 6.3508" fill="#fff"/>
  <path id="path740-5" d="m1537.2 35.848c-6.2254 0-11.302-0.66851-15.188-2.0055-3.8857-1.337-6.894-3.1754-9.0039-5.5152-2.1308-2.3398-3.5723-5.2018-4.3452-8.5443-0.773-3.3425-1.17-6.894-1.17-10.696v-163.93c0-3.8021 0.397-7.3744 1.17-10.717 0.7729-3.3425 2.2144-6.1837 4.3452-8.5234 2.1099-2.3398 5.1182-4.1782 9.0039-5.5152s8.9622-2.0055 15.188-2.0055h110.45c0.4596 2.4442 0.8982 5.7867 1.337 10.028 0.4595 4.2408 0.6685 8.5861 0.6685 13.036 0 9.38-1.8802 16.023-5.6614 19.909-3.8021 3.9066-8.5653 5.8703-14.352 5.8703h-68.083v38.126h78.424c0.4387 2.2353 0.8983 5.2018 1.337 8.8786 0.4387 3.6768 0.6685 7.646 0.6685 11.866 0 8.9204-1.7965 15-5.348 18.238-3.5514 3.2381-8.0012 4.8467-13.349 4.8467h-61.732v37.812h89.433c0.4388 2.4442 0.8983 5.8494 1.3371 10.195 0.4387 4.3453 0.6685 8.6488 0.6685 12.89 0 9.5889-1.9011 16.274-5.6823 20.076-3.7812 3.7812-8.5652 5.6823-14.331 5.6823z" fill="#fff"/>
  <path id="path744-1" d="m1697.6 37.185c-5.1182 0-9.6307-0.50138-13.516-1.5041-3.9066-1.0028-7.2909-2.1726-10.174-3.5097l20.389-208.43c4.2409-1.7966 9.7979-3.2381 16.692-4.3453 6.8941-1.1281 12.785-1.6713 17.674-1.6713 6.894 0 12.848 0.43871 17.841 1.337 5.0137 0.87742 9.2963 2.3816 12.848 4.5124 3.5514 2.11 6.3924 5.0765 8.5025 8.8577 2.11 3.8021 3.7185 8.4817 4.8466 14.06l8.6696 40.486c2.4442 11.135 5.0557 23.46 7.8341 36.956 2.7784 13.495 5.2853 27.388 7.4998 41.656h1.337c2.4442-14.268 4.9929-28.098 7.6669-41.489 2.6741-13.37 5.4525-25.654 8.3355-36.789l10.654-42.492c2.674-10.487 6.9357-17.632 12.827-21.413 5.8912-3.8021 15.062-5.6823 27.492-5.6823 6.2255 0 12.493 0.50138 18.822 1.5041 6.33 1.0028 11.615 2.0473 15.835 3.1754l19.512 209.76c-3.1128 1.1072-6.8522 2.2353-11.177 3.3425-4.3452 1.1072-9.0665 1.6713-14.185 1.6713-7.1237 0-13.14-1.2326-18.029-3.6768-4.8884-2.4442-7.5624-7.0402-8.0012-13.725l-5.0137-72.261c-1.1072-12.722-2.0473-26.03-2.8412-39.985-0.7729-13.934-1.2743-27.137-1.5041-39.63h-0.6685c-2.8829 11.594-5.8285 24.129-8.8368 37.624-3.0083 13.495-6.0584 25.925-9.171 37.311l-13.684 56.865c-3.3425 13.391-13.913 20.076-31.712 20.076-4.4498 0-9.0041-0.43871-13.684-1.337-4.6586-0.87741-8.6697-1.8802-12.012-3.0083l-17.005-70.924c-3.3424-13.161-6.4551-26.093-9.3381-38.815-2.9038-12.702-5.5778-25.424-8.022-38.126h-1.0029c-0.6684 17.841-1.5459 34.177-2.674 49.01-1.1071 14.832-2.1099 27.597-2.9873 38.293l-5.3481 65.242c-0.4387 6.4761-2.8829 10.947-7.3326 13.391-4.4706 2.4442-10.237 3.6768-17.36 3.6768" fill="#fff"/>
  <path id="path748-5" d="m2012.5-54.149h49.929l-24.902-81.975zm-52.06 92.003c-4.22 0-9.0666-0.39692-14.498-1.1699-5.4735-0.79385-9.9649-1.8384-13.516-3.1754l69.232-212.1c6.0165-1.5668 12.096-2.6949 18.238-3.3634 6.1418-0.66851 11.762-1.0028 16.901-1.0028 7.3534 0 13.662 0.56405 18.906 1.6713 5.2437 1.1281 9.6516 2.7994 13.224 5.0347 3.5723 2.2144 6.5179 5.1809 8.8576 8.8577 2.3398 3.6768 4.3035 7.9803 5.8704 12.89l59.33 187.68c-3.7812 1.5668-8.3354 2.7158-13.684 3.5097-5.3271 0.77296-10.571 1.1699-15.689 1.1699-5.7868 0-11.386-0.96098-16.838-2.8411-5.4526-1.9011-9.4008-6.1837-11.845-12.89l-11.364-34.449h-72.784l-9.6307 32.443c-2.4442 7.8132-6.5596 12.722-12.346 14.728-5.7868 2.0055-11.908 3.0083-18.363 3.0083" fill="#fff"/>
  <path id="path752-9" d="m3679.3-95.636v-50.305c0-13.642 5.4317-22.311 33.592-22.311 3.4678 0 6.4343 0.2298 9.9022 0.77295v165.06c0 13.579-5.4316 22.249-33.634 22.249-3.4261 0-6.4135-0.27158-9.8605-0.77296v-74.956h-87.679v53.48c0 13.579-5.4526 22.249-33.655 22.249-3.4052 0-6.3717-0.27158-9.8813-0.77296v-165c0-13.642 5.4526-22.311 33.634-22.311 3.468 0 6.4344 0.2298 9.9023 0.77295v71.843zm249.64 21.183c0-56.071-40.382-94.113-107.23-94.113h-45.458c-21.81 0-27.033 11.49-27.033 26.594v135.39c0 14.477 5.2226 26.26 27.033 26.26h45.458c66.85 0 107.23-38.042 107.23-94.134m-136.15 53.836v-107.67h31.462c43.808 0 59.831 28.37 59.831 53.836 0 25.529-16.023 53.836-59.831 53.836z" fill="#ae2c3f"/>
  <path id="path756-9" d="m488.7-38.617c0 30.501-19.951 52.791-60.458 57.199-29.331 3.1336-71.823-0.56405-92.003-2.8829-0.75208-3.3007-1.337-7.3953-1.337-10.613 0-26.698 14.436-32.778 27.952-32.778 14.039 0 36.141 2.4233 52.603 2.4233 18.071 0 23.586-6.1419 23.586-11.97 0-7.6669-7.2909-10.863-21.329-13.537l-38.418-7.3953c-31.984-6.121-49.052-28.244-49.052-51.726 0-28.537 20.201-52.415 59.915-56.823 30.041-3.2381 66.579 0.41782 86.655 2.8829 0.73119 3.447 1.1072 6.7059 1.1072 10.278 0 26.615-14.018 32.36-27.555 32.36-10.383 0-26.51-1.9428-44.915-1.9428-18.739 0-26.51 5.1809-26.51 11.49 0 6.6642 7.4162 9.4218 19.136 11.469l36.726 6.8104c37.729 6.9566 53.898 28.391 53.898 54.755m65.91 32.757c0 16.357-6.4135 25.8-38.355 25.8-4.2408 0-7.9385-0.31336-11.49-0.83563v-217.06c0-16.483 5.6196-33.676 37.875-33.676 4.0528 0 8.1683 0.41782 11.97 1.2117zm130.57 83.96c4.1782 2.1518 12.785 4.7422 23.627 5.0347 18.509 0.39692 28.641-6.7059 36.141-23.314l99.524-221.99c-4.1155-2.2144-13.182-4.6586-20.64-4.8258-12.785-0.22979-29.957 2.3816-40.946 28.558l-32.234 76.063-63.195-102.93c-4.0737-1.2534-14.018-3.05-21.33-3.05-22.29 0-34.783 8.231-47.715 22.27l-61.44 67.206 49.428 77.776c9.1293 14.164 21.162 21.392 40.716 21.392 12.785 0 23.419-2.9038 28.349-5.2645l-59.497-89.726 42.178-44.685 69.169 108.57z" fill="#ae2c3f"/>
  <g id="g4606" transform="translate(-88.614 7.1826)" fill="#fff">
   <path id="path4140-5" d="m2311.1 18.701c3.2089-55.056 1.6142-210.93-2.3837-233.01l-0.7912-4.3702-0.7975 7.1047c-2.8612 25.486-3.7227 55.149-3.6911 127.05 0.032 70.798 0.8659 100.98 3.6965 133.73l0.8307 9.6122 0.7889-6.6868c0.4338-3.6777 1.4903-18.723 2.3474-33.434z" stroke-width="1.0645"/>
   <g id="#ffffffff" transform="matrix(.93964 0 0 .93964 2349 -222.22)">
    <path id="path5" d="m345.6 14.5h59.98l-41.46 127.34h10.85l83.355-65.04h77.915l-112.95 85.13 64.97 81.84h-67.91l-55.76-70.35h-11.01l-22.46 70.35h-59.95z"/>
    <path id="path7" d="m1168.6 14.49h59.92l-14.21 43.77h-59.87z"/>
    <path id="path9" d="m122.17 25.54c14.4-3.06 29.15-3.86 43.84-3.98h149.39l-13.869 41.74h-145.56c-7.62-0.02-15.5 0.78025-22.36 4.3302-6.82 3.43-11.88 9.49-15.48 16.1-3.68 6.76-6.54 14.54-5.44 22.34 1.58 5.72 8.62 5.59 13.38 6.21 31.98 0.26 63.97-0.26 95.94 0.29 13.25 0.68 27.1 1.9 38.93 8.51 8.52 4.63 14.52 13.32 16.02 22.89 1.82 11.72-0.24 23.75-4.19 34.84-4.36 12.03-9.6 24.06-18.18 33.73-11.13 13.16-26.92 21.85-43.52 25.97-22.19 5.9-45.29 5.4598-68.04 5.3298h-133.7l13.36-41.24h141.31c11.34 0.17 23.54 0.11975 33.41-6.2702 7.1212-4.7141 11.212-12.331 14.249-20.133 1.1818-3.0362 2.3818-5.9897 2.8791-8.9875 0.232-1.3986 0.39368-2.8124 0.66233-4.1996 0.62-3.34-0.16-7.5-3.5-9.1-3.47-1.06-7.11-1.48-10.73-1.48-28.33 0.02-56.67 0-85.01 0-13.43 0.11-27.05-0.78-39.97-4.74-8.91-2.81-17.45-8.36-21.73-16.92-4.41-8.11-4.39-17.65-3.62-26.6 0.88-6.93 2.44-13.82 4.96-20.35 4.06-12.16 10.89-23.34 19.45-32.85 12.32-13.46 29.44-21.69 47.12-25.43z"/>
    <path id="path11" d="m1001.2 22.06c4.8193-0.28757 9.6462-0.43234 14.477-0.49025h131l-15.46 46.54h-106.18c-9.05 0.04-18.17-0.30025-27.14 1.1098-8.88 1.45-17.68 4.34-25.09 9.55-11.85 7.86-19.38 20.79-23.83 34.01h167.82l-14.7 46.81h-168.24l-27.34 84.18h-61.52l36.13-111.64c6.13-20.4 13.43-40.77 25.43-58.54 10.01-15.02 23.2-28.23 39.2-36.79 16.99-9.22 36.25-13.55 55.44-14.74z"/>
    <path id="path13" d="m543.42 76.8h58.8l24.63 105.7 92.07-105.7h67.91l-189.61 211.58h-68.34l53.91-61.99z"/>
    <path id="path15" d="m1147.3 80.31h59.74l-52.92 163.46h-59.96z"/>
    <path id="path17" d="m770.32 120.36h95.64l-12.79 39.56h-95.8z"/>
   </g>
  </g>
  <path id="path782-0-5" d="m3949.9 21.857c34.948 23.92 39.72 46.482 40.959 51.454 3.4132 0 4.6818-10.571 4.6818-26.343l-0.1208-252.97c0-29.289-13.774-39.191-49.688-39.191-12.143 0-24.315 4.5124-40.506 4.5124h-3550.2c-16.19 0-28.333-4.5124-40.506-4.5124-35.884 0-49.688 9.9022-49.688 39.191l-0.1209 252.97c0 15.773 1.2687 26.343 4.7121 26.343 1.2384-4.972 2.2956-29.289 40.959-51.454 308.61-164.58 3306.8-215.09 3639.5 0" fill="#fff" opacity=".4"/>
 </g>
</svg>
