<?xml version="1.0" encoding="UTF-8" standalone="no"?>
<!-- Created with Inkscape (http://www.inkscape.org/) -->

<svg
   xmlns:dc="http://purl.org/dc/elements/1.1/"
   xmlns:cc="http://creativecommons.org/ns#"
   xmlns:rdf="http://www.w3.org/1999/02/22-rdf-syntax-ns#"
   xmlns:svg="http://www.w3.org/2000/svg"
   xmlns="http://www.w3.org/2000/svg"
   xmlns:xlink="http://www.w3.org/1999/xlink"
   xmlns:sodipodi="http://sodipodi.sourceforge.net/DTD/sodipodi-0.dtd"
   xmlns:inkscape="http://www.inkscape.org/namespaces/inkscape"
   width="203.0677mm"
   height="50.258221mm"
   viewBox="0 0 203.0677 50.258221"
   version="1.1"
   id="svg4536"
   inkscape:version="0.92.1 r15371"
   sodipodi:docname="Sky Ocean Rescue - Dark.svg">
  <defs
     id="defs4530">
    <linearGradient
       inkscape:collect="always"
       xlink:href="#linearGradient4526"
       id="linearGradient4528"
       x1="5722.5601"
       y1="197.8933"
       x2="6032.8901"
       y2="197.8933"
       gradientUnits="userSpaceOnUse" />
    <linearGradient
       inkscape:collect="always"
       id="linearGradient4526">
      <stop
         style="stop-color:#4cb4ae;stop-opacity:1;"
         offset="0"
         id="stop4522" />
      <stop
         style="stop-color:#0077a4;stop-opacity:1"
         offset="1"
         id="stop4524" />
    </linearGradient>
    <linearGradient
       inkscape:collect="always"
       xlink:href="#linearGradient4526"
       id="linearGradient5286"
       gradientUnits="userSpaceOnUse"
       x1="5722.5601"
       y1="197.8933"
       x2="6032.8901"
       y2="197.8933" />
  </defs>
  <sodipodi:namedview
     id="base"
     pagecolor="#ffffff"
     bordercolor="#666666"
     borderopacity="1.0"
     inkscape:pageopacity="0.0"
     inkscape:pageshadow="2"
     inkscape:zoom="0.35"
     inkscape:cx="-289.10706"
     inkscape:cy="-130.73812"
     inkscape:document-units="mm"
     inkscape:current-layer="layer1"
     showgrid="false"
     fit-margin-top="0"
     fit-margin-left="0"
     fit-margin-right="0"
     fit-margin-bottom="0"
     inkscape:window-width="1920"
     inkscape:window-height="1017"
     inkscape:window-x="-8"
     inkscape:window-y="-8"
     inkscape:window-maximized="1" />
  <metadata
     id="metadata4533">
    <rdf:RDF>
      <cc:Work
         rdf:about="">
        <dc:format>image/svg+xml</dc:format>
        <dc:type
           rdf:resource="http://purl.org/dc/dcmitype/StillImage" />
        <dc:title></dc:title>
      </cc:Work>
    </rdf:RDF>
  </metadata>
  <g
     inkscape:label="Layer 1"
     inkscape:groupmode="layer"
     id="layer1"
     transform="translate(-59.483981,-63.983985)">
    <g
       style="fill:#0077a4;fill-opacity:1"
       id="Group_935"
       transform="matrix(0.26458333,0,0,0.26458333,-1454.61,36.745748)">
      <g
         style="fill:#0077a4;fill-opacity:1"
         id="XMLID_41_">
        <path
           style="fill:#0077a4;fill-opacity:1"
           class="cls-1"
           d="m 6104.38,213.65 a 38.8,38.8 0 0 0 -38.75,38.75 v 38.2 a 0.54,0.54 0 0 0 1.08,0 v -38.2 a 37.72,37.72 0 0 1 37.7,-37.68 0.54,0.54 0 0 0 0,-1.07 z"
           id="XMLID_43_"
           inkscape:connector-curvature="0" />
        <path
           style="fill:#0077a4;fill-opacity:1"
           class="cls-1"
           d="m 6066.17,292.55 a 1.8,1.8 0 0 1 -1.83,-1.83 v -38.2 a 40.22,40.22 0 0 1 40.15,-40.16 1.83,1.83 0 0 1 0,3.66 36.48,36.48 0 0 0 -36.4,36.38 v 38.2 a 2,2 0 0 1 -1.95,1.95 z"
           id="XMLID_42_"
           inkscape:connector-curvature="0" />
      </g>
      <g
         style="fill:#0077a4;fill-opacity:1"
         id="XMLID_51_">
        <path
           style="fill:#0077a4;fill-opacity:1"
           class="cls-1"
           d="m 6302.98,218.7 a 38.74,38.74 0 1 0 -19.27,72.34 38.34,38.34 0 0 0 19.2,-5.06 0.55753924,0.55753924 0 0 0 -0.55,-0.97 37.67,37.67 0 1 1 0,-65.4 0.57,0.57 0 0 0 0.76,-0.23 c 0.2,-0.1 0.1,-0.43 -0.1,-0.64 z"
           id="XMLID_53_"
           inkscape:connector-curvature="0" />
        <path
           style="fill:#0077a4;fill-opacity:1"
           class="cls-1"
           d="m 6283.6,292.44 a 40.15,40.15 0 1 1 19.92,-75.02 1.9,1.9 0 0 1 0.64,2.58 2,2 0 0 1 -1.6,0.97 3.14,3.14 0 0 1 -0.98,-0.22 36.37,36.37 0 1 0 -18.1,67.92 35.9,35.9 0 0 0 18,-4.73 1.92,1.92 0 0 1 2.57,0.64 2.15,2.15 0 0 1 0.22,1.4 1.7,1.7 0 0 1 -0.86,1.08 38.54,38.54 0 0 1 -19.8,5.38 z"
           id="XMLID_52_"
           inkscape:connector-curvature="0" />
      </g>
      <g
         style="fill:#0077a4;fill-opacity:1"
         id="XMLID_44_">
        <path
           style="fill:#0077a4;fill-opacity:1"
           class="cls-1"
           d="m 6145.18,290.07 a 37.6,37.6 0 0 1 -37.68,-37.13 h 76.43 v -0.54 a 38.75,38.75 0 1 0 -38.75,38.75 0.5,0.5 0 0 0 0.54,-0.54 0.58,0.58 0 0 0 -0.54,-0.5 z m 0,-75.35 a 37.6,37.6 0 0 1 37.67,37.14 h -75.45 a 37.77,37.77 0 0 1 37.78,-37.14 z"
           id="XMLID_48_"
           inkscape:connector-curvature="0" />
        <path
           style="fill:#0077a4;fill-opacity:1"
           class="cls-1"
           d="m 6145.18,292.44 a 40.15,40.15 0 1 1 40.15,-40.15 v 1.8 h -76.43 a 36.54,36.54 0 0 0 36.28,34.55 1.8,1.8 0 0 1 1.83,1.83 1.84,1.84 0 0 1 -1.8,1.93 z m -36.38,-41.87 h 72.65 a 36.37,36.37 0 0 0 -72.65,0 z"
           id="XMLID_45_"
           inkscape:connector-curvature="0" />
      </g>
      <g
         style="fill:#0077a4;fill-opacity:1"
         id="XMLID_38_">
        <path
           style="fill:#0077a4;fill-opacity:1"
           class="cls-1"
           d="m 6394.15,213.54 a 0.5,0.5 0 0 0 -0.54,0.54 v 38.2 a 37.67,37.67 0 1 1 -75.32,0 v -38.2 a 0.54,0.54 0 1 0 -1.07,0 v 38.2 a 38.75,38.75 0 1 0 77.5,0 v -38.2 a 0.5,0.5 0 0 0 -0.54,-0.54 z"
           id="XMLID_40_"
           inkscape:connector-curvature="0" />
        <path
           style="fill:#0077a4;fill-opacity:1"
           class="cls-1"
           d="m 6355.94,292.44 a 40.22,40.22 0 0 1 -40.15,-40.15 v -38.24 a 1.8,1.8 0 0 1 1.8,-1.83 1.9,1.9 0 0 1 1.83,1.83 v 38.2 a 36.38,36.38 0 1 0 72.76,0 v -38.2 a 1.83,1.83 0 1 1 3.66,0 v 38.2 a 39.97,39.97 0 0 1 -39.93,40.16 z"
           id="XMLID_39_"
           inkscape:connector-curvature="0" />
      </g>
      <g
         style="fill:#0077a4;fill-opacity:1"
         id="XMLID_31_">
        <path
           style="fill:#0077a4;fill-opacity:1"
           class="cls-1"
           d="m 6488.66,251.65 a 38.75,38.75 0 1 0 -38.75,38.75 0.54,0.54 0 0 0 0,-1.08 37.6,37.6 0 0 1 -37.65,-37.14 h 76.43 z m -76.43,-0.54 a 37.68,37.68 0 0 1 75.35,0 z"
           id="XMLID_35_"
           inkscape:connector-curvature="0" />
        <path
           style="fill:#0077a4;fill-opacity:1"
           class="cls-1"
           d="m 6449.9,291.8 a 40.15,40.15 0 1 1 40.16,-40.15 v 1.83 h -76.43 a 36.54,36.54 0 0 0 36.28,34.55 1.8,1.8 0 0 1 1.86,1.83 1.84,1.84 0 0 1 -1.83,1.93 z m -36.27,-41.98 h 72.66 a 36.37,36.37 0 0 0 -72.7,0 z"
           id="XMLID_32_"
           inkscape:connector-curvature="0" />
      </g>
      <g
         style="fill:#0077a4;fill-opacity:1"
         id="XMLID_24_">
        <path
           style="fill:#0077a4;fill-opacity:1"
           class="cls-1"
           d="m 6103.52,183.18 a 38.75,38.75 0 1 0 -38.75,-38.74 38.8,38.8 0 0 0 38.75,38.74 z m 0,-76.42 a 37.67,37.67 0 1 1 -37.67,37.67 37.72,37.72 0 0 1 37.67,-37.67 z"
           id="XMLID_28_"
           inkscape:connector-curvature="0" />
        <path
           style="fill:#0077a4;fill-opacity:1"
           class="cls-1"
           d="m 6103.52,184.6 a 40.15,40.15 0 1 1 40.15,-40.16 40.22,40.22 0 0 1 -40.15,40.15 z m 0,-76.55 a 36.38,36.38 0 1 0 36.38,36.4 36.48,36.48 0 0 0 -36.38,-36.4 z"
           id="XMLID_25_"
           inkscape:connector-curvature="0" />
      </g>
      <g
         style="fill:#0077a4;fill-opacity:1"
         id="XMLID_17_">
        <path
           style="fill:#0077a4;fill-opacity:1"
           class="cls-1"
           d="m 6264.44,105.68 a 38.75,38.75 0 0 0 0,77.5 0.54,0.54 0 1 0 0,-1.07 37.6,37.6 0 0 1 -37.67,-37.1 h 76.42 v -0.55 a 38.66,38.66 0 0 0 -38.78,-38.75 z m -37.67,38.22 a 37.68,37.68 0 0 1 75.35,0 z"
           id="XMLID_21_"
           inkscape:connector-curvature="0" />
        <path
           style="fill:#0077a4;fill-opacity:1"
           class="cls-1"
           d="m 6264.44,184.6 a 40.15,40.15 0 1 1 40.15,-40.16 v 1.83 h -76.45 a 36.54,36.54 0 0 0 36.27,34.55 1.8,1.8 0 0 1 1.83,1.83 1.9,1.9 0 0 1 -1.83,1.94 z m -36.27,-42 h 72.66 a 36.37,36.37 0 0 0 -72.66,0 z"
           id="XMLID_18_"
           inkscape:connector-curvature="0" />
      </g>
      <g
         style="fill:#0077a4;fill-opacity:1"
         id="XMLID_14_">
        <path
           style="fill:#0077a4;fill-opacity:1"
           class="cls-1"
           d="m 6411.7,182.65 v -38.22 a 37.67,37.67 0 1 1 75.34,0 v 38.22 a 0.54,0.54 0 1 0 1.08,0 v -38.22 a 38.75,38.75 0 1 0 -77.5,0 v 38.22 a 0.54,0.54 0 1 0 1.08,0 z"
           id="XMLID_16_"
           inkscape:connector-curvature="0" />
        <path
           style="fill:#0077a4;fill-opacity:1"
           class="cls-1"
           d="m 6487.58,184.6 a 1.8,1.8 0 0 1 -1.83,-1.84 v -38.33 a 36.38,36.38 0 1 0 -72.76,0 v 38.22 a 1.85,1.85 0 0 1 -3.7,0 v -38.22 a 40.15,40.15 0 1 1 80.3,0 v 38.22 a 2.1,2.1 0 0 1 -2.04,1.93 z"
           id="XMLID_15_"
           inkscape:connector-curvature="0" />
      </g>
      <g
         style="fill:#0077a4;fill-opacity:1"
         id="XMLID_11_">
        <path
           style="fill:#0077a4;fill-opacity:1"
           class="cls-1"
           d="m 6196.3,183.2 a 38.34,38.34 0 0 0 19.17,-5.07 0.55509008,0.55509008 0 1 0 -0.54,-0.97 37.7,37.7 0 1 1 -18.73,-70.4 37.76,37.76 0 0 1 18.73,4.95 0.55,0.55 0 1 0 0.54,-0.94 38.78,38.78 0 1 0 -19.16,72.44 z"
           id="XMLID_13_"
           inkscape:connector-curvature="0" />
        <path
           style="fill:#0077a4;fill-opacity:1"
           class="cls-1"
           d="m 6196.3,184.6 a 40.15,40.15 0 1 1 19.92,-75.04 1.9,1.9 0 0 1 0.65,2.58 1.92,1.92 0 0 1 -2.6,0.65 36.37,36.37 0 1 0 -18.07,67.9 35.9,35.9 0 0 0 17.98,-4.75 1.8813426,1.8813426 0 0 1 1.93,3.23 38.54,38.54 0 0 1 -19.8,5.4 z"
           id="XMLID_12_"
           inkscape:connector-curvature="0" />
      </g>
      <g
         style="fill:#0077a4;fill-opacity:1"
         id="XMLID_4_">
        <path
           style="fill:#0077a4;fill-opacity:1"
           class="cls-1"
           d="m 6355.83,182.86 a 38.77,38.77 0 0 0 37.68,-29.82 v 29.28 a 0.55,0.55 0 1 0 1.1,0 v -38.2 a 38.75,38.75 0 1 0 -38.75,38.74 z m 0,-76.53 a 37.67,37.67 0 1 1 -37.67,37.67 37.72,37.72 0 0 1 37.67,-37.67 z"
           id="XMLID_8_"
           inkscape:connector-curvature="0" />
        <path
           style="fill:#0077a4;fill-opacity:1"
           class="cls-1"
           d="m 6394.04,184.15 a 1.8,1.8 0 0 1 -1.83,-1.83 v -21.3 a 40.08,40.08 0 1 1 3.8,-16.9 v 38.2 a 2,2 0 0 1 -1.94,1.83 z m -38.2,-76.42 a 36.38,36.38 0 1 0 36.37,36.38 36.48,36.48 0 0 0 -36.35,-36.35 z"
           id="XMLID_5_"
           inkscape:connector-curvature="0" />
      </g>
      <g
         style="fill:#0077a4;fill-opacity:1"
         id="XMLID_1_">
        <path
           style="fill:#0077a4;fill-opacity:1"
           class="cls-1"
           d="m 6233.77,219.14 a 18.87,18.87 0 0 0 -13.57,-5.6 19.32,19.32 0 0 0 -13.56,5.6 19.1,19.1 0 0 0 0,27.13 l 13.13,13.13 a 0.1,0.1 0 0 0 0.1,0.1 18.109006,18.109006 0 1 1 -25.6,25.62 0.53740115,0.53740115 0 1 0 -0.76,0.76 19.23,19.23 0 0 0 27.15,0 19.27,19.27 0 0 0 0.1,-27.02 c 0,-0.1 -0.1,-0.1 -0.1,-0.22 l -13.24,-13.24 a 18.08,18.08 0 0 1 12.8,-30.9 18.36,18.36 0 0 1 12.8,5.28 0.52,0.52 0 0 0 0.78,0 0.4,0.4 0 0 0 0,-0.64 z"
           id="XMLID_3_"
           inkscape:connector-curvature="0" />
        <path
           style="fill:#0077a4;fill-opacity:1"
           class="cls-1"
           d="m 6206.96,292.87 a 20.44,20.44 0 0 1 -14.53,-6.03 2,2 0 0 1 -0.54,-1.3 1.78,1.78 0 0 1 0.5,-1.28 1.76,1.76 0 0 1 2.6,0 16.95,16.95 0 0 0 11.94,4.95 16.68,16.68 0 0 0 11.95,-4.92 16.95,16.95 0 0 0 4.95,-11.95 16.68,16.68 0 0 0 -4.95,-11.94 c -0.1,-0.1 -0.1,-0.2 -0.2,-0.2 l -13.02,-13.05 a 20.66,20.66 0 0 1 0,-29.06 20.53,20.53 0 0 1 29.07,0 1.83,1.83 0 0 1 -2.6,2.57 16.9,16.9 0 0 0 -11.83,-4.95 16.85,16.85 0 0 0 -11.94,28.74 l 13.24,13.24 c 0.1,0.1 0.22,0.22 0.22,0.33 A 20.62,20.62 0 0 1 6207,292.9 Z"
           id="XMLID_2_"
           inkscape:connector-curvature="0" />
      </g>
    </g>
    <g
       style="fill:url(#linearGradient4528);fill-opacity:1"
       id="Group_936"
       transform="matrix(0.26458333,0,0,0.26458333,-1454.61,36.745748)">
      <path
         style="fill:url(#linearGradient5286);fill-opacity:1"
         class="cls-1"
         d="m 5818.18,219.43 c 0,18.4 -12.06,31.87 -36.5,34.56 -17.66,1.9 -43.3,-0.35 -55.56,-1.75 a 32.1,32.1 0 0 1 -0.76,-6.46 c 0,-16.04 8.62,-19.8 16.8,-19.8 8.5,0 21.86,1.5 31.77,1.5 10.98,0 14.2,-3.67 14.2,-7.2 0,-4.65 -4.4,-6.48 -12.8,-8.2 l -23.27,-4.4 c -19.16,-3.78 -29.5,-17.14 -29.5,-31.35 0,-17.23 12.17,-31.65 36.18,-34.24 18.1,-1.93 40.16,0.23 52.33,1.73 a 29.72,29.72 0 0 1 0.64,6.14 c 0,16.04 -8.5,19.5 -16.65,19.5 -6.25,0 -15.94,-1.2 -27.14,-1.2 -11.3,0 -15.93,3.13 -15.93,6.9 0,3.98 4.4,5.7 11.52,6.9 l 22.17,4.08 c 22.72,4.4 32.52,17.33 32.52,33.27 m 39.83,19.8 c 0,9.92 -3.88,15.62 -23.15,15.62 a 34.42,34.42 0 0 1 -6.9,-0.53 v -131 c 0,-10 3.35,-20.35 22.83,-20.35 a 31.53,31.53 0 0 1 7.23,0.75 z m 78.7,50.62 a 35.04,35.04 0 0 0 14.22,3 c 11.2,0.23 17.33,-3.97 21.86,-14.1 l 60.08,-133.94 a 33.86,33.86 0 0 0 -12.5,-2.9 c -7.74,-0.1 -18.08,1.4 -24.65,17.24 l -19.5,45.86 -38.1,-62.13 a 55.2,55.2 0 0 0 -12.8,-1.83 c -13.48,0 -21,4.96 -28.88,13.46 l -37.04,40.6 29.86,46.94 c 5.5,8.6 12.8,12.92 24.55,12.92 7.75,0 14.2,-1.83 17.1,-3.23 l -35.95,-54.16 25.42,-27.02 41.77,65.57 z"
         id="XMLID_1_2"
         inkscape:connector-curvature="0" />
    </g>
  </g>
</svg>
