<svg height="729.99994" viewBox="0 0 2372.4458 729.99997" width="2372.4458" xmlns="http://www.w3.org/2000/svg" xmlns:xlink="http://www.w3.org/1999/xlink"><clipPath id="a"><path d="m411.591 515.351h94.948v18.13h-94.948z"/></clipPath><clipPath id="b"><path d="m412.392 532.67h93.284v-15.246h-93.284z"/></clipPath><clipPath id="c"><path d="m412.392 517.424h93.284v15.245h-93.284z"/></clipPath><linearGradient id="d" gradientTransform="matrix(0 17.057004 17.057004 0 474.76197 515.88703)" gradientUnits="userSpaceOnUse" spreadMethod="pad" x1="0" x2="1" y1="0" y2="0"><stop offset="0" stop-color="#820021"/><stop offset=".104411" stop-color="#ae2c3f"/><stop offset=".901742" stop-color="#ae2c3f"/><stop offset="1" stop-color="#ba3c4c"/></linearGradient><clipPath id="e"><path d="m411.591 515.351h94.948v18.13h-94.948z"/></clipPath><clipPath id="f"><path d="m505.836 530.723h.017v-.016h-.017z"/></clipPath><linearGradient id="g" gradientTransform="matrix(0 -17.343138 17.343138 0 459.06457 533.09243)" gradientUnits="userSpaceOnUse" spreadMethod="pad" x1="0" x2="1" y1="0" y2="0"><stop offset="0" stop-color="#868685"/><stop offset=".020448" stop-color="#d8d9d9"/><stop offset=".0524045" stop-color="#f5f5f5"/><stop offset=".487663" stop-color="#edeeee"/><stop offset=".895488" stop-color="#f5f5f5"/><stop offset=".929442" stop-color="#ebebec"/><stop offset=".964262" stop-color="#d8d9d9"/><stop offset="1" stop-color="#868685"/></linearGradient><path d="m414.085 532.944c-1.345 0-1.823-.794-1.823-2.114v-12.829c0-1.32.478-2.114 1.823-2.114h89.96c1.345 0 1.822.794 1.822 2.114v12.829c0 1.32-.477 2.114-1.822 2.114z" fill="url(#g)" transform="matrix(24.9869 0 0 -24.9869 -10284.383283 13330.023906)"/><g clip-path="url(#e)" transform="matrix(24.9869 0 0 -24.9869 -10284.383283 13330.023906)"><g transform="translate(503.9336 515.3505)"><path d="m0 0c1.996 0 2.605 1.241 2.605 2.482v13.166c0 1.241-.609 2.482-2.605 2.482h-89.738c-1.997 0-2.605-1.241-2.605-2.482v-13.166c0-1.241.608-2.482 2.605-2.482zm-89.646.167c-1.344 0-2.254.793-2.254 2.114v13.568c0 1.321.91 2.114 2.254 2.114h89.554c1.344 0 2.254-.793 2.254-2.114v-13.568c0-1.321-.91-2.114-2.254-2.114h-89.554z" fill="#a1a2a2"/></g><g><g/><g><g clip-path="url(#f)" opacity=".800003"><g/></g></g></g></g><path d="m443.657 532.944v-17.057h60.388c1.345 0 1.822.794 1.822 2.114v12.829c0 1.32-.477 2.114-1.822 2.114z" fill="url(#d)" transform="matrix(24.9869 0 0 -24.9869 -10284.383283 13330.023906)"/><g clip-path="url(#a)" transform="matrix(24.9869 0 0 -24.9869 -10284.383283 13330.023906)"><g transform="translate(452.075 519.0374)"><path d="m0 0c-.756 0-1.454.136-2.093.408-.639.273-1.192.649-1.661 1.129-.469.481-.836 1.052-1.102 1.714s-.4 1.377-.4 2.146c0 .747.134 1.446.4 2.098.266.651.633 1.217 1.102 1.697.469.481 1.022.857 1.661 1.129.639.273 1.337.409 2.093.409.543 0 1.07-.059 1.581-.176.512-.118.985-.268 1.422-.449.096-1.42-.25-2.13-1.038-2.13-.139 0-.266.016-.384.048-.117.032-.245.064-.383.096-.139.032-.293.064-.463.096-.171.032-.373.049-.607.049-.373 0-.724-.067-1.055-.201-.33-.133-.614-.326-.854-.576-.24-.251-.429-.553-.567-.905-.139-.352-.208-.748-.208-1.185 0-.46.069-.871.208-1.233.138-.363.327-.67.567-.921s.524-.443.854-.577c.331-.133.682-.2 1.055-.2.234 0 .442.016.623.048s.343.064.487.096.28.064.407.096c.128.032.261.048.4.048.777 0 1.123-.71 1.038-2.13-.437-.181-.924-.331-1.462-.448s-1.078-.176-1.621-.176" fill="#fff"/></g><g transform="translate(457.5874 519.1654)"><path d="m0 0c-.224 0-.445.011-.663.032s-.402.048-.551.08v9.273c0 .309.096.573.287.792.192.219.554.329 1.087.329.223 0 .444-.011.663-.033.218-.021.402-.048.551-.08v-9.272c0-.31-.096-.574-.288-.793-.191-.219-.554-.328-1.086-.328" fill="#fff"/></g><g transform="translate(461.9564 519.1654)"><path d="m0 0c-.213 0-.421.011-.623.032-.203.021-.373.048-.511.08v10.201c.159.054.367.099.623.137.255.037.473.056.655.056.585 0 1.011-.075 1.278-.225.266-.149.489-.368.671-.656l3.626-5.717v5.573c0 .138.018.269.056.392.037.123.101.232.191.328.091.096.216.171.376.224.159.054.362.081.607.081.213 0 .418-.011.615-.033.197-.021.364-.042.503-.063v-10.218c-.149-.075-.33-.125-.543-.152s-.421-.04-.623-.04c-.501 0-.874.069-1.118.208-.246.139-.448.331-.607.577l-3.882 6.214v-5.942c0-.299-.091-.55-.272-.753s-.522-.304-1.022-.304" fill="#fff"/></g><g transform="translate(473.3041 519.2296)"><path d="m0 0c-.298 0-.541.032-.727.096s-.33.152-.431.264c-.102.112-.171.248-.208.409-.037.16-.056.33-.056.512v7.847c0 .182.019.353.056.513s.106.296.208.408c.101.112.245.2.431.264s.429.096.727.096h5.287c.022-.117.043-.277.064-.48.022-.203.032-.411.032-.624 0-.449-.09-.767-.271-.953-.182-.187-.41-.281-.687-.281h-3.259v-1.825h3.754c.021-.107.043-.249.064-.425s.032-.366.032-.568c0-.427-.086-.718-.256-.873s-.383-.232-.639-.232h-2.955v-1.81h4.281c.021-.118.043-.28.064-.488.021-.209.032-.414.032-.617 0-.459-.091-.779-.272-.961-.181-.181-.41-.272-.686-.272z" fill="#fff"/></g><g transform="translate(480.983 519.1654)"><path d="m0 0c-.245 0-.461.024-.647.072-.187.048-.349.104-.487.168l.976 9.977c.203.086.469.155.799.208.33.054.612.081.846.081.33 0 .615-.022.854-.065.24-.042.445-.114.615-.216.17-.101.306-.243.407-.424.101-.182.178-.406.232-.673l.415-1.937c.117-.534.242-1.124.375-1.77s.253-1.311.359-1.994h.064c.117.683.239 1.345.367 1.986s.261 1.228.399 1.761l.51 2.034c.128.502.332.844.614 1.025.282.182.721.273 1.316.273.298 0 .598-.025.901-.073s.556-.098.758-.152l.934-10.041c-.149-.053-.328-.107-.535-.16-.208-.053-.434-.08-.679-.08-.341 0-.629.059-.863.176-.234.118-.362.337-.383.657l-.24 3.459c-.053.609-.098 1.246-.136 1.914-.037.667-.061 1.299-.072 1.898h-.032c-.138-.556-.279-1.156-.423-1.802s-.29-1.241-.439-1.786l-.655-2.722c-.16-.641-.666-.961-1.518-.961-.213 0-.431.021-.655.064-.223.042-.415.09-.575.144l-.814 3.395c-.16.63-.309 1.249-.447 1.858-.139.608-.267 1.217-.384 1.825h-.048c-.032-.854-.074-1.636-.128-2.346-.053-.71-.101-1.321-.143-1.833l-.256-3.123c-.021-.31-.138-.523-.351-.641-.214-.117-.49-.176-.831-.176" fill="#fff"/></g><g transform="translate(496.0557 523.5375)"><path d="m0 0h2.39l-1.192 3.923zm-2.492-4.404c-.202 0-.434.019-.694.056-.262.037-.477.088-.647.152l3.314 10.153c.288.075.579.129.873.161s.563.048.809.048c.352 0 .654-.027.905-.08.251-.054.462-.134.633-.241s.312-.248.424-.424.206-.382.281-.617l2.84-8.984c-.181-.075-.399-.131-.655-.168-.255-.037-.506-.056-.75-.056-.278 0-.546.045-.807.136s-.45.296-.567.617l-.544 1.649h-3.484l-.461-1.553c-.117-.374-.314-.609-.591-.705s-.57-.144-.879-.144" fill="#fff"/></g><g transform="translate(423.1164 522.7819)"><path d="m0 0c0-1.46-.955-2.527-2.894-2.738-1.404-.15-3.438.027-4.404.138-.036.158-.064.354-.064.508 0 1.278.691 1.569 1.338 1.569.672 0 1.73-.116 2.518-.116.865 0 1.129.294 1.129.573 0 .367-.349.52-1.021.648l-1.839.354c-1.531.293-2.348 1.352-2.348 2.476 0 1.366.967 2.509 2.868 2.72 1.438.155 3.187-.02 4.148-.138.035-.165.053-.321.053-.492 0-1.274-.671-1.549-1.319-1.549-.497 0-1.269.093-2.15.093-.897 0-1.269-.248-1.269-.55 0-.319.355-.451.916-.549l1.758-.326c1.806-.333 2.58-1.359 2.58-2.621m3.155-1.568c0-.783-.307-1.235-1.836-1.235-.203 0-.38.015-.55.04v10.39c0 .789.269 1.612 1.813 1.612.194 0 .391-.02.573-.058zm6.25-4.019c.2-.103.612-.227 1.131-.241.886-.019 1.371.321 1.73 1.116l4.764 10.626c-.197.106-.631.223-.988.231-.612.011-1.434-.114-1.96-1.367l-1.543-3.641-3.025 4.927c-.195.06-.671.146-1.021.146-1.067 0-1.665-.394-2.284-1.066l-2.941-3.217 2.366-3.723c.437-.678 1.013-1.024 1.949-1.024.612 0 1.121.139 1.357.252l-2.848 4.295 2.019 2.139 3.311-5.197z" fill="#ae2c3f"/></g><g><g/><g><g clip-path="url(#b)" opacity=".399994"><g><g><g clip-path="url(#c)"><g transform="translate(504.1664 519.8869)"><path d="m0 0c1.156-1.145 1.313-2.225 1.354-2.463.114 0 .156.506.156 1.261l-.004 12.109c0 1.402-.456 1.876-1.644 1.876-.402 0-.804-.216-1.339-.216h-87.31c-.536 0-.938.216-1.34.216-1.187 0-1.643-.474-1.643-1.876l-.004-12.109c0-.755.041-1.261.155-1.261.041.238.076 1.402 1.354 2.463 10.208 7.878 79.259 10.296 90.265 0" fill="#fff"/></g></g></g></g></g></g></g></g><g transform="matrix(1.0225722 0 0 1.0225722 163.73725 390.465392)"><path d="m110.25 174.22c13.75-6.12 29.2-7.17 44.01-5.5 11.31 1.24 22.38 4.26 32.95 8.43.91 6.93.86 15.25-4.82 20.25-4.02 3.71-9.93 2.62-14.55.82-14.81-5.42-32.02-7.12-46.59-.08-13.74 6.39-23.38 19.67-27 34.18-3.73 15.6-2.93 32.72 4.02 47.33 5.29 11.22 15.07 20.37 26.95 24.19 13.86 4.6 29.17 3.02 42.62-2.24 5.52-2.36 12.78-2.14 16.93 2.67 4.34 5.1 3.87 12.36 3.26 18.6-18.13 7.78-38.28 10.58-57.86 8.47-20.02-2.43-38.98-13.15-50.99-29.41-18.53-24.99-21.23-60.17-8.55-88.32 7.75-17.42 22.03-31.91 39.62-39.39z"/><path d="m789.48 179.63c10.17-9 24.18-12.35 37.5-11.83 14.06-.06 27.82 3.9 40.54 9.68.65 5.89.94 12.88-3.64 17.38-4.07 4.05-10.48 3.54-15.46 1.7-10.32-3.75-21.8-5.9-32.59-2.95-8.12 2.22-12.38 11.38-11.23 19.29.8 7.73 6.07 13.86 11.27 19.2 13.35 13.52 26.7 27.03 40.08 40.52 5.7-10.54 11.27-21.15 16.92-31.71 1.53-3.02 4.04-5.59 7.27-6.75 7.01-2.81 14.83-1.11 21.65 1.45-9.78 17.82-19.64 35.6-29.44 53.42 12.2 12.7 24.43 25.37 36.62 38.09-7.68 3.64-16.55 5.16-24.93 3.45-4.79-1-8.53-4.42-11.9-7.74-4.47-4.63-8.7-9.48-13.09-14.18-8.69 11.47-21.39 20.47-35.86 22.47-16.51 2.38-34.75.5-48.38-9.9-19.66-14.92-23.61-46.39-8.16-65.64 6.2-7.82 15.25-12.76 24.54-15.95-5.96-6.86-11.6-14.57-13.42-23.66-2.74-13.03 1.57-27.53 11.71-36.34m-1.67 87.23c-7.07 11.31-4.23 27.81 6.72 35.64 8.09 5.85 18.76 6.1 28.22 4.26 8.49-1.61 15.78-7.28 20.39-14.47-12.68-12.93-25.37-25.84-38.05-38.77-6.76 2.85-13.36 6.96-17.28 13.34z"/><path d="m209.72 171.72c3.21-2.39 7.46-2.41 11.29-2.48 14.35.05 28.7-.06 43.04.06 14.93.36 30.71 4.26 41.63 15.02 9.11 8.61 13.29 21.33 13.28 33.66.38 13.21-4.53 26.66-14.09 35.9-8.03 7.9-18.91 12.41-30.02 13.73 16.61 19.77 33.27 39.49 49.86 59.27-8.41 4.39-18.52 5.68-27.68 3.07-7.24-2.45-11.59-9.19-16.14-14.89-12.02-15.41-24.02-30.84-36.05-46.25-3.69 0-7.39 0-11.08.01-.03 17.07.03 34.15-.03 51.22.11 4.75-3.06 9.62-7.89 10.57-6.52 1.34-13.27.49-19.78-.51-.01-49.03.01-98.06-.01-147.08-.04-3.98.53-8.51 3.67-11.3m24.04 22.79c-.01 16.85-.01 33.69 0 50.54 13.42-.47 27.2 1.43 40.31-2.23 7.81-2.05 14.3-8.39 16.22-16.28 1.99-8.31 1.11-18.18-5.09-24.58-5.48-5.57-13.69-7.03-21.18-7.39-10.09-.16-20.18-.03-30.26-.06z"/><path d="m349.41 169.45c6.55-1.39 13.35-.52 19.9.5 0 49.67 0 99.35.01 149.02.34 4.98-2.53 10.43-7.67 11.56-6.61 1.49-13.48.56-20.09-.44 0-49.69 0-99.37 0-149.06-.34-5.04 2.63-10.52 7.85-11.58z"/><path d="m408.66 171.9c9.9-3.32 20.85-4.28 31.03-1.64 5.86 1.38 10.31 6.33 11.7 12.11 9.24 36.21 18.34 72.46 27.53 108.69 8.78-34.01 17.49-68.03 26.24-102.05 1.16-4.46 2.03-9.24 5.01-12.92 3.49-4.55 9.32-6.43 14.81-7.04 8.15-.81 16.41.19 24.33 2.16 5.15 52.38 10.32 104.76 15.48 157.14-6.97 2.66-15.05 4.01-22.13 1.03-3.2-1.23-4.69-4.68-4.87-7.9-3.51-42.15-6.96-84.31-10.48-126.47-10.09 37.41-20.07 74.85-30.16 112.25-1.21 4.74-4.55 9.11-9.39 10.49-7.85 2.4-16.36 1.52-24.21-.44-11.33-40.78-22.64-81.56-34-122.33-3.82 42.07-7.6 84.15-11.41 126.22-.14 3.26-1.55 6.81-4.78 8.11-6.69 3.01-14.48 1.8-21.05-.94 5.44-52.16 10.91-104.31 16.35-156.47z"/><path d="m590.9 171.98c3.04-2.54 7.28-2.65 11.06-2.74 27.66.01 55.32.01 82.99 0 .96 6.03 1.9 12.32.46 18.34-1.1 4.55-5.89 7.14-10.33 6.9-19.94.05-39.88.01-59.82.02-.02 14.29 0 28.57-.01 42.86 21.24.02 42.47.01 63.71.01.68 5.82 1.76 11.85.26 17.62-.99 4.07-5.2 6.58-9.23 6.41-18.24.1-36.49.01-54.73.04-.02 14.37-.01 28.75 0 43.12 23.95.01 47.91-.01 71.87.01.71 5.97 1.71 12.13.22 18.06-.99 4.16-5.02 7.22-9.28 7.15-25.03.09-50.06 0-75.09.04-3.93-.08-8.24-.02-11.6-2.36-3.02-2.5-3.78-6.71-3.81-10.43-.03-44.68.01-89.35-.02-134.03-.03-3.86.5-8.15 3.35-11.02z"/><path d="m963.55 175.35c1.21-4.46 6.23-6.13 10.4-6.09 38.61-.02 77.22-.02 115.83 0 .86 6.5 1.92 13.52-.67 19.76-1.68 3.92-6.11 5.67-10.14 5.47-12.72.04-25.44-.02-38.15.03-.01 41.5 0 83-.01 124.5.26 4.79-2.32 10.08-7.23 11.38-6.72 1.69-13.78.7-20.52-.31-.01-45.19.01-90.39-.01-135.58-16.48-.02-32.96.01-49.44-.02-.83-6.31-1.66-12.89-.06-19.14z"/><path d="m1111.38 169.56c6.66-1.58 13.63-.64 20.31.39 0 22.47-.01 44.94.01 67.42 24.99.01 49.98 0 74.98 0 .04-19.11-.05-38.22.04-57.33-.12-4.7 2.92-9.51 7.67-10.56 6.68-1.45 13.62-.54 20.3.48-.01 49.69.01 99.38-.01 149.08.23 4.73-2.25 9.96-7.08 11.31-6.84 1.79-14.04.73-20.91-.26-.01-22.88 0-45.76-.01-68.65-25 0-49.99-.01-74.99 0-.03 19.53.06 39.07-.04 58.6.08 4.69-2.98 9.5-7.73 10.52-6.58 1.43-13.41.53-19.98-.47 0-49.71-.01-99.42 0-149.12-.31-4.87 2.45-10.19 7.44-11.41z"/><path d="m1268.09 172.06c2.95-2.58 7.16-2.71 10.9-2.81 14.66.03 29.32-.07 43.99.05 14.92.39 30.69 4.34 41.58 15.14 9.28 8.84 13.37 21.94 13.16 34.54.18 13.76-5.52 27.68-16.04 36.69-7.81 6.84-17.85 10.7-28.07 11.94 16.61 19.76 33.26 39.5 49.87 59.26-8.13 4.28-17.81 5.54-26.73 3.38-6.45-1.72-10.86-7.15-14.77-12.19-12.77-16.42-25.57-32.82-38.35-49.23-3.72-.02-7.43-.03-11.13-.01-.01 17.07.03 34.13-.01 51.2.13 4.79-3.1 9.68-7.96 10.61-6.51 1.31-13.24.47-19.72-.54 0-49.04.01-98.08-.01-147.12-.01-3.82.5-8.04 3.29-10.91m24.42 22.45c-.01 16.85-.01 33.69 0 50.54 7.14.01 14.29.01 21.44.01 7.83-.05 15.96-.53 23.17-3.91 6.71-3.07 11.35-9.8 12.45-17.03 1.25-7.85-.07-16.84-6.03-22.58-5.73-5.41-14-6.72-21.57-6.99-9.82-.11-19.65-.02-29.46-.04z"/><path d="m1400.32 180.93c-.3-4.99 2.65-10.4 7.8-11.47 6.56-1.4 13.38-.53 19.94.48 0 49.71 0 99.42.01 149.12.31 4.89-2.48 10.23-7.49 11.42-6.65 1.56-13.61.62-20.27-.4.01-49.72-.01-99.43.01-149.15z"/><path d="m1459.54 173.59c1.93-3.26 5.86-4.49 9.45-4.72 5.47-.35 10.98.14 16.39 1.08 0 44.87-.01 89.74 0 134.61 25.43.01 50.87-.01 76.31.01.97 6.7 2.52 14.08-.63 20.43-3.12 5.08-9.82 4.96-15.05 4.83-24.68-.04-49.36 0-74.04-.02-3.77-.11-8.01-.21-11.01-2.78-2.84-2.9-3.35-7.19-3.34-11.05 0-43.64.02-87.28-.01-130.92.03-3.86-.41-8.12 1.93-11.47z"/><path d="m1584.35 169.52c6.62-1.49 13.52-.62 20.16.44-.02 44.86 0 89.72-.01 134.59 25.44.03 50.88-.01 76.32.02.96 6.3 2.23 13.03-.03 19.2-1.78 4.66-7.24 6.18-11.77 6.04-26.02 0-52.05.02-78.06 0-3.92-.14-8.51-.23-11.36-3.31-3.28-4.05-2.83-9.57-2.86-14.46.03-43.69-.01-87.37.02-131.06-.31-4.92 2.51-10.31 7.59-11.46z"/><path d="m1698.61 172.56c2.84-3.09 7.44-3.19 11.35-3.31 27.74-.01 55.48.01 83.22-.01 1 5.84 1.81 11.91.63 17.79-.84 4.56-5.42 7.58-9.9 7.43-20.14.11-40.27 0-60.41.05 0 14.29-.01 28.57.01 42.86 21.24.01 42.48-.01 63.72.01.63 6.13 1.96 12.61-.1 18.61-1.5 4.04-6.1 5.73-10.1 5.45-17.85.01-35.69-.02-53.53.01v43.1c23.96.03 47.92 0 71.88.01.7 6.15 1.82 12.55.05 18.62-1.17 4.03-5.27 6.74-9.39 6.61-25.01.06-50.02 0-75.02.03-3.91-.09-8.23-.05-11.51-2.46-2.92-2.54-3.66-6.68-3.69-10.36-.03-43.33.01-86.67-.02-130 .02-4.88-.49-10.4 2.81-14.44z"/><path d="m1822.43 171.41c3.7-2.35 8.31-2.13 12.53-2.18 14.33.1 28.66-.13 42.99.12 15.93.57 32.89 5.69 43.27 18.49 8.73 10.51 11.18 24.95 9.59 38.22-1.63 13.62-9.44 26.45-21.12 33.73-6.76 4.4-14.62 6.8-22.56 7.82 16.64 19.75 33.28 39.5 49.88 59.28-7.96 4.16-17.39 5.46-26.15 3.5-6.08-1.36-10.48-6.15-14.17-10.84-13.2-16.9-26.35-33.84-39.57-50.74-3.69 0-7.38 0-11.05.01-.04 17.08.05 34.17-.04 51.25.06 4.57-2.83 9.29-7.43 10.4-6.66 1.58-13.62.63-20.29-.39 0-49.03-.01-98.06.01-147.09.02-4.11.59-8.92 4.11-11.58m23.64 23.09c-.01 16.85-.01 33.7 0 50.55 13.58-.5 27.57 1.52 40.81-2.4 7.88-2.19 14.21-8.87 15.9-16.88 1.73-8.22.7-17.85-5.5-24.02-5.58-5.47-13.78-6.87-21.28-7.19-9.98-.14-19.96-.02-29.93-.06z"/></g></svg>