<?xml version="1.0" encoding="UTF-8" standalone="no"?>
<!-- Created with Inkscape (http://www.inkscape.org/) -->

<svg
   xmlns:dc="http://purl.org/dc/elements/1.1/"
   xmlns:cc="http://creativecommons.org/ns#"
   xmlns:rdf="http://www.w3.org/1999/02/22-rdf-syntax-ns#"
   xmlns:svg="http://www.w3.org/2000/svg"
   xmlns="http://www.w3.org/2000/svg"
   xmlns:sodipodi="http://sodipodi.sourceforge.net/DTD/sodipodi-0.dtd"
   xmlns:inkscape="http://www.inkscape.org/namespaces/inkscape"
   width="2372.4458"
   height="729.99994"
   viewBox="0 0 2372.4458 729.99997"
   id="svg8519"
   version="1.1"
   inkscape:version="0.91 r13725"
   sodipodi:docname="Sky Cinema Musicals - Dark.svg">
  <defs
     id="defs8521">
    <clipPath
       clipPathUnits="userSpaceOnUse"
       id="clipPath1252">
      <path
         d="m 411.591,515.351 94.948,0 0,18.13 -94.948,0 0,-18.13 z"
         id="path1254"
         inkscape:connector-curvature="0" />
    </clipPath>
    <clipPath
       clipPathUnits="userSpaceOnUse"
       id="clipPath1288">
      <path
         d="m 412.392,532.67 93.284,0 0,-15.246 -93.284,0 0,15.246 z"
         id="path1290"
         inkscape:connector-curvature="0" />
    </clipPath>
    <clipPath
       clipPathUnits="userSpaceOnUse"
       id="clipPath1292">
      <path
         d="m 412.392,517.424 93.284,0 0,15.245 -93.284,0 0,-15.245 z"
         id="path1294"
         inkscape:connector-curvature="0" />
    </clipPath>
    <linearGradient
       x1="0"
       y1="0"
       x2="1"
       y2="0"
       gradientUnits="userSpaceOnUse"
       gradientTransform="matrix(0,17.057004,17.057004,0,474.76197,515.88703)"
       spreadMethod="pad"
       id="linearGradient1236">
      <stop
         style="stop-opacity:1;stop-color:#820021"
         offset="0"
         id="stop1238" />
      <stop
         style="stop-opacity:1;stop-color:#ae2c3f"
         offset="0.104411"
         id="stop1240" />
      <stop
         style="stop-opacity:1;stop-color:#ae2c3f"
         offset="0.901742"
         id="stop1242" />
      <stop
         style="stop-opacity:1;stop-color:#ba3c4c"
         offset="1"
         id="stop1244" />
    </linearGradient>
    <clipPath
       clipPathUnits="userSpaceOnUse"
       id="clipPath1202">
      <path
         d="m 411.591,515.351 94.948,0 0,18.13 -94.948,0 0,-18.13 z"
         id="path1204"
         inkscape:connector-curvature="0" />
    </clipPath>
    <clipPath
       clipPathUnits="userSpaceOnUse"
       id="clipPath1214">
      <path
         d="m 505.836,530.723 0.017,0 0,-0.016 -0.017,0 0,0.016 z"
         id="path1216"
         inkscape:connector-curvature="0" />
    </clipPath>
    <linearGradient
       x1="0"
       y1="0"
       x2="1"
       y2="0"
       gradientUnits="userSpaceOnUse"
       gradientTransform="matrix(0,-17.343138,17.343138,0,459.06457,533.09243)"
       spreadMethod="pad"
       id="linearGradient1178">
      <stop
         style="stop-opacity:1;stop-color:#868685"
         offset="0"
         id="stop1180" />
      <stop
         style="stop-opacity:1;stop-color:#d8d9d9"
         offset="0.020448"
         id="stop1182" />
      <stop
         style="stop-opacity:1;stop-color:#f5f5f5"
         offset="0.0524045"
         id="stop1184" />
      <stop
         style="stop-opacity:1;stop-color:#edeeee"
         offset="0.487663"
         id="stop1186" />
      <stop
         style="stop-opacity:1;stop-color:#f5f5f5"
         offset="0.895488"
         id="stop1188" />
      <stop
         style="stop-opacity:1;stop-color:#ebebec"
         offset="0.929442"
         id="stop1190" />
      <stop
         style="stop-opacity:1;stop-color:#d8d9d9"
         offset="0.964262"
         id="stop1192" />
      <stop
         style="stop-opacity:1;stop-color:#868685"
         offset="1"
         id="stop1194" />
    </linearGradient>
  </defs>
  <sodipodi:namedview
     id="base"
     pagecolor="#ffffff"
     bordercolor="#666666"
     borderopacity="1.0"
     inkscape:pageopacity="0.0"
     inkscape:pageshadow="2"
     inkscape:zoom="0.35"
     inkscape:cx="1111.6482"
     inkscape:cy="208.86796"
     inkscape:document-units="px"
     inkscape:current-layer="layer1"
     showgrid="false"
     fit-margin-top="0"
     fit-margin-left="0"
     fit-margin-right="0"
     fit-margin-bottom="0"
     inkscape:window-width="1920"
     inkscape:window-height="1017"
     inkscape:window-x="-8"
     inkscape:window-y="-8"
     inkscape:window-maximized="1"
     units="px" />
  <metadata
     id="metadata8524">
    <rdf:RDF>
      <cc:Work
         rdf:about="">
        <dc:format>image/svg+xml</dc:format>
        <dc:type
           rdf:resource="http://purl.org/dc/dcmitype/StillImage" />
        <dc:title></dc:title>
      </cc:Work>
    </rdf:RDF>
  </metadata>
  <g
     inkscape:label="Layer 1"
     inkscape:groupmode="layer"
     id="layer1"
     transform="translate(-192.08646,474.87828)">
    <g
       id="g4201"
       transform="matrix(19.98952,0,0,19.98952,-3647.627,-5121.6388)">
      <g
         id="g1166"
         transform="matrix(1.25,0,0,-1.25,-322.40243,899.31046)">
        <g
           id="g1168">
          <g
             id="g1174">
            <g
               id="g1176">
              <path
                 inkscape:connector-curvature="0"
                 id="path1196"
                 style="fill:url(#linearGradient1178);stroke:none"
                 d="m 414.085,532.944 c -1.345,0 -1.823,-0.794 -1.823,-2.114 l 0,0 0,-12.829 c 0,-1.32 0.478,-2.114 1.823,-2.114 l 0,0 89.96,0 c 1.345,0 1.822,0.794 1.822,2.114 l 0,0 0,12.829 c 0,1.32 -0.477,2.114 -1.822,2.114 l 0,0 -89.96,0 z" />
            </g>
          </g>
        </g>
      </g>
      <g
         id="g1198"
         transform="matrix(1.25,0,0,-1.25,-322.40243,899.31046)">
        <g
           clip-path="url(#clipPath1202)"
           id="g1200">
          <g
             transform="translate(503.9336,515.3505)"
             id="g1206">
            <path
               inkscape:connector-curvature="0"
               id="path1208"
               style="fill:#a1a2a2;fill-opacity:1;fill-rule:nonzero;stroke:none"
               d="m 0,0 c 1.996,0 2.605,1.241 2.605,2.482 l 0,13.166 C 2.605,16.889 1.996,18.13 0,18.13 l -89.738,0 c -1.997,0 -2.605,-1.241 -2.605,-2.482 l 0,-13.166 C -92.343,1.241 -91.735,0 -89.738,0 L 0,0 Z m -89.646,0.167 c -1.344,0 -2.254,0.793 -2.254,2.114 l 0,13.568 c 0,1.321 0.91,2.114 2.254,2.114 l 89.554,0 c 1.344,0 2.254,-0.793 2.254,-2.114 l 0,-13.568 c 0,-1.321 -0.91,-2.114 -2.254,-2.114 l -89.554,0 z" />
          </g>
          <g
             id="g1210">
            <g
               id="g1212" />
            <g
               id="g1218">
              <g
                 style="opacity:0.80000299"
                 id="g1220"
                 clip-path="url(#clipPath1214)">
                <g
                   id="g1222" />
              </g>
            </g>
          </g>
        </g>
      </g>
      <g
         id="g1224"
         transform="matrix(1.25,0,0,-1.25,-322.40243,899.31046)">
        <g
           id="g1226">
          <g
             id="g1232">
            <g
               id="g1234">
              <path
                 inkscape:connector-curvature="0"
                 id="path1246"
                 style="fill:url(#linearGradient1236);stroke:none"
                 d="m 443.657,532.944 0,-17.057 60.388,0 c 1.345,0 1.822,0.794 1.822,2.114 l 0,0 0,12.829 c 0,1.32 -0.477,2.114 -1.822,2.114 l 0,0 -60.388,0 z" />
            </g>
          </g>
        </g>
      </g>
      <g
         id="g1248"
         transform="matrix(1.25,0,0,-1.25,-322.40243,899.31046)">
        <g
           clip-path="url(#clipPath1252)"
           id="g1250">
          <g
             transform="translate(452.075,519.0374)"
             id="g1256">
            <path
               inkscape:connector-curvature="0"
               id="path1258"
               style="fill:#ffffff;fill-opacity:1;fill-rule:nonzero;stroke:none"
               d="m 0,0 c -0.756,0 -1.454,0.136 -2.093,0.408 -0.639,0.273 -1.192,0.649 -1.661,1.129 -0.469,0.481 -0.836,1.052 -1.102,1.714 -0.266,0.662 -0.4,1.377 -0.4,2.146 0,0.747 0.134,1.446 0.4,2.098 0.266,0.651 0.633,1.217 1.102,1.697 0.469,0.481 1.022,0.857 1.661,1.129 0.639,0.273 1.337,0.409 2.093,0.409 0.543,0 1.07,-0.059 1.581,-0.176 C 2.093,10.436 2.566,10.286 3.003,10.105 3.099,8.685 2.753,7.975 1.965,7.975 1.826,7.975 1.699,7.991 1.581,8.023 1.464,8.055 1.336,8.087 1.198,8.119 1.059,8.151 0.905,8.183 0.735,8.215 0.564,8.247 0.362,8.264 0.128,8.264 -0.245,8.264 -0.596,8.197 -0.927,8.063 -1.257,7.93 -1.541,7.737 -1.781,7.487 -2.021,7.236 -2.21,6.934 -2.348,6.582 -2.487,6.23 -2.556,5.834 -2.556,5.397 c 0,-0.46 0.069,-0.871 0.208,-1.233 0.138,-0.363 0.327,-0.67 0.567,-0.921 0.24,-0.251 0.524,-0.443 0.854,-0.577 0.331,-0.133 0.682,-0.2 1.055,-0.2 0.234,0 0.442,0.016 0.623,0.048 0.181,0.032 0.343,0.064 0.487,0.096 0.144,0.032 0.28,0.064 0.407,0.096 0.128,0.032 0.261,0.048 0.4,0.048 0.777,0 1.123,-0.71 1.038,-2.13 C 2.646,0.443 2.159,0.293 1.621,0.176 1.083,0.059 0.543,0 0,0" />
          </g>
          <g
             transform="translate(457.5874,519.1654)"
             id="g1260">
            <path
               inkscape:connector-curvature="0"
               id="path1262"
               style="fill:#ffffff;fill-opacity:1;fill-rule:nonzero;stroke:none"
               d="m 0,0 c -0.224,0 -0.445,0.011 -0.663,0.032 -0.218,0.021 -0.402,0.048 -0.551,0.08 l 0,9.273 c 0,0.309 0.096,0.573 0.287,0.792 0.192,0.219 0.554,0.329 1.087,0.329 0.223,0 0.444,-0.011 0.663,-0.033 0.218,-0.021 0.402,-0.048 0.551,-0.08 l 0,-9.272 C 1.374,0.811 1.278,0.547 1.086,0.328 0.895,0.109 0.532,0 0,0" />
          </g>
          <g
             transform="translate(461.9564,519.1654)"
             id="g1264">
            <path
               inkscape:connector-curvature="0"
               id="path1266"
               style="fill:#ffffff;fill-opacity:1;fill-rule:nonzero;stroke:none"
               d="m 0,0 c -0.213,0 -0.421,0.011 -0.623,0.032 -0.203,0.021 -0.373,0.048 -0.511,0.08 l 0,10.201 c 0.159,0.054 0.367,0.099 0.623,0.137 0.255,0.037 0.473,0.056 0.655,0.056 0.585,0 1.011,-0.075 1.278,-0.225 0.266,-0.149 0.489,-0.368 0.671,-0.656 l 3.626,-5.717 0,5.573 c 0,0.138 0.018,0.269 0.056,0.392 0.037,0.123 0.101,0.232 0.191,0.328 0.091,0.096 0.216,0.171 0.376,0.224 0.159,0.054 0.362,0.081 0.607,0.081 0.213,0 0.418,-0.011 0.615,-0.033 0.197,-0.021 0.364,-0.042 0.503,-0.063 l 0,-10.218 C 7.918,0.117 7.737,0.067 7.524,0.04 7.311,0.013 7.103,0 6.901,0 6.4,0 6.027,0.069 5.783,0.208 5.537,0.347 5.335,0.539 5.176,0.785 l -3.882,6.214 0,-5.942 C 1.294,0.758 1.203,0.507 1.022,0.304 0.841,0.101 0.5,0 0,0" />
          </g>
          <g
             transform="translate(473.3041,519.2296)"
             id="g1268">
            <path
               inkscape:connector-curvature="0"
               id="path1270"
               style="fill:#ffffff;fill-opacity:1;fill-rule:nonzero;stroke:none"
               d="m 0,0 c -0.298,0 -0.541,0.032 -0.727,0.096 -0.186,0.064 -0.33,0.152 -0.431,0.264 -0.102,0.112 -0.171,0.248 -0.208,0.409 -0.037,0.16 -0.056,0.33 -0.056,0.512 l 0,7.847 c 0,0.182 0.019,0.353 0.056,0.513 0.037,0.16 0.106,0.296 0.208,0.408 0.101,0.112 0.245,0.2 0.431,0.264 0.186,0.064 0.429,0.096 0.727,0.096 l 5.287,0 C 5.309,10.292 5.33,10.132 5.351,9.929 5.373,9.726 5.383,9.518 5.383,9.305 5.383,8.856 5.293,8.538 5.112,8.352 4.93,8.165 4.702,8.071 4.425,8.071 l -3.259,0 0,-1.825 3.754,0 C 4.941,6.139 4.963,5.997 4.984,5.821 5.005,5.645 5.016,5.455 5.016,5.253 5.016,4.826 4.93,4.535 4.76,4.38 4.59,4.225 4.377,4.148 4.121,4.148 l -2.955,0 0,-1.81 4.281,0 C 5.468,2.22 5.49,2.058 5.511,1.85 5.532,1.641 5.543,1.436 5.543,1.233 5.543,0.774 5.452,0.454 5.271,0.272 5.09,0.091 4.861,0 4.585,0 L 0,0 Z" />
          </g>
          <g
             transform="translate(480.983,519.1654)"
             id="g1272">
            <path
               inkscape:connector-curvature="0"
               id="path1274"
               style="fill:#ffffff;fill-opacity:1;fill-rule:nonzero;stroke:none"
               d="M 0,0 C -0.245,0 -0.461,0.024 -0.647,0.072 -0.834,0.12 -0.996,0.176 -1.134,0.24 l 0.976,9.977 c 0.203,0.086 0.469,0.155 0.799,0.208 0.33,0.054 0.612,0.081 0.846,0.081 0.33,0 0.615,-0.022 0.854,-0.065 0.24,-0.042 0.445,-0.114 0.615,-0.216 C 3.126,10.124 3.262,9.982 3.363,9.801 3.464,9.619 3.541,9.395 3.595,9.128 L 4.01,7.191 C 4.127,6.657 4.252,6.067 4.385,5.421 4.518,4.775 4.638,4.11 4.744,3.427 l 0.064,0 C 4.925,4.11 5.047,4.772 5.175,5.413 5.303,6.054 5.436,6.641 5.574,7.174 l 0.51,2.034 c 0.128,0.502 0.332,0.844 0.614,1.025 0.282,0.182 0.721,0.273 1.316,0.273 0.298,0 0.598,-0.025 0.901,-0.073 0.303,-0.048 0.556,-0.098 0.758,-0.152 L 10.607,0.24 C 10.458,0.187 10.279,0.133 10.072,0.08 9.864,0.027 9.638,0 9.393,0 9.052,0 8.764,0.059 8.53,0.176 8.296,0.294 8.168,0.513 8.147,0.833 L 7.907,4.292 C 7.854,4.901 7.809,5.538 7.771,6.206 7.734,6.873 7.71,7.505 7.699,8.104 l -0.032,0 C 7.529,7.548 7.388,6.948 7.244,6.302 7.1,5.656 6.954,5.061 6.805,4.516 L 6.15,1.794 C 5.99,1.153 5.484,0.833 4.632,0.833 4.419,0.833 4.201,0.854 3.977,0.897 3.754,0.939 3.562,0.987 3.402,1.041 L 2.588,4.436 C 2.428,5.066 2.279,5.685 2.141,6.294 2.002,6.902 1.874,7.511 1.757,8.119 l -0.048,0 C 1.677,7.265 1.635,6.483 1.581,5.773 1.528,5.063 1.48,4.452 1.438,3.94 L 1.182,0.817 C 1.161,0.507 1.044,0.294 0.831,0.176 0.617,0.059 0.341,0 0,0" />
          </g>
          <g
             transform="translate(496.0557,523.5375)"
             id="g1276">
            <path
               inkscape:connector-curvature="0"
               id="path1278"
               style="fill:#ffffff;fill-opacity:1;fill-rule:nonzero;stroke:none"
               d="M 0,0 2.39,0 1.198,3.923 0,0 Z m -2.492,-4.404 c -0.202,0 -0.434,0.019 -0.694,0.056 -0.262,0.037 -0.477,0.088 -0.647,0.152 L -0.519,5.957 C -0.231,6.032 0.06,6.086 0.354,6.118 0.648,6.15 0.917,6.166 1.163,6.166 1.515,6.166 1.817,6.139 2.068,6.086 2.319,6.032 2.53,5.952 2.701,5.845 2.872,5.738 3.013,5.597 3.125,5.421 3.237,5.245 3.331,5.039 3.406,4.804 L 6.246,-4.18 C 6.065,-4.255 5.847,-4.311 5.591,-4.348 5.336,-4.385 5.085,-4.404 4.841,-4.404 c -0.278,0 -0.546,0.045 -0.807,0.136 -0.261,0.091 -0.45,0.296 -0.567,0.617 l -0.544,1.649 -3.484,0 -0.461,-1.553 C -1.139,-3.929 -1.336,-4.164 -1.613,-4.26 -1.89,-4.356 -2.183,-4.404 -2.492,-4.404" />
          </g>
          <g
             transform="translate(423.1164,522.7819)"
             id="g1280">
            <path
               inkscape:connector-curvature="0"
               id="path1282"
               style="fill:#ae2c3f;fill-opacity:1;fill-rule:nonzero;stroke:none"
               d="m 0,0 c 0,-1.46 -0.955,-2.527 -2.894,-2.738 -1.404,-0.15 -3.438,0.027 -4.404,0.138 -0.036,0.158 -0.064,0.354 -0.064,0.508 0,1.278 0.691,1.569 1.338,1.569 0.672,0 1.73,-0.116 2.518,-0.116 0.865,0 1.129,0.294 1.129,0.573 0,0.367 -0.349,0.52 -1.021,0.648 l -1.839,0.354 c -1.531,0.293 -2.348,1.352 -2.348,2.476 0,1.366 0.967,2.509 2.868,2.72 1.438,0.155 3.187,-0.02 4.148,-0.138 0.035,-0.165 0.053,-0.321 0.053,-0.492 0,-1.274 -0.671,-1.549 -1.319,-1.549 -0.497,0 -1.269,0.093 -2.15,0.093 -0.897,0 -1.269,-0.248 -1.269,-0.55 0,-0.319 0.355,-0.451 0.916,-0.549 L -2.58,2.621 C -0.774,2.288 0,1.262 0,0 m 3.155,-1.568 c 0,-0.783 -0.307,-1.235 -1.836,-1.235 -0.203,0 -0.38,0.015 -0.55,0.04 l 0,10.39 c 0,0.789 0.269,1.612 1.813,1.612 0.194,0 0.391,-0.02 0.573,-0.058 l 0,-10.749 z m 6.25,-4.019 c 0.2,-0.103 0.612,-0.227 1.131,-0.241 0.886,-0.019 1.371,0.321 1.73,1.116 L 17.03,5.914 C 16.833,6.02 16.399,6.137 16.042,6.145 15.43,6.156 14.608,6.031 14.082,4.778 L 12.539,1.137 9.514,6.064 C 9.319,6.124 8.843,6.21 8.493,6.21 7.426,6.21 6.828,5.816 6.209,5.144 L 3.268,1.927 5.634,-1.796 c 0.437,-0.678 1.013,-1.024 1.949,-1.024 0.612,0 1.121,0.139 1.357,0.252 L 6.092,1.727 8.111,3.866 11.422,-1.331 9.405,-5.587 Z" />
          </g>
          <g
             id="g1284">
            <g
               id="g1286" />
            <g
               id="g1296">
              <g
                 style="opacity:0.39999402"
                 id="g1298"
                 clip-path="url(#clipPath1288)">
                <g
                   id="g1300">
                  <g
                     id="g1302">
                    <g
                       id="g1304"
                       clip-path="url(#clipPath1292)">
                      <g
                         id="g1306"
                         transform="translate(504.1664,519.8869)">
                        <path
                           inkscape:connector-curvature="0"
                           id="path1308"
                           style="fill:#ffffff;fill-opacity:1;fill-rule:nonzero;stroke:none"
                           d="m 0,0 c 1.156,-1.145 1.313,-2.225 1.354,-2.463 0.114,0 0.156,0.506 0.156,1.261 L 1.506,10.907 c 0,1.402 -0.456,1.876 -1.644,1.876 -0.402,0 -0.804,-0.216 -1.339,-0.216 l -87.31,0 c -0.536,0 -0.938,0.216 -1.34,0.216 -1.187,0 -1.643,-0.474 -1.643,-1.876 l -0.004,-12.109 c 0,-0.755 0.041,-1.261 0.155,-1.261 0.041,0.238 0.076,1.402 1.354,2.463 C -80.057,7.878 -11.006,10.296 0,0" />
                      </g>
                    </g>
                  </g>
                </g>
              </g>
            </g>
          </g>
        </g>
      </g>
    </g>
    <g
       id="#000000ff"
       transform="matrix(1.010938,0,0,1.010938,620.61794,-81.664242)">
      <path
         d="m 603.64,167.79 c 22.24,-2.64 44.84,1.23 65.87,8.57 0.01,6.19 0.17,13.14 -3.87,18.25 -3.26,3.87 -8.9,3.77 -13.45,2.91 -14.84,-3.01 -30.07,-6.21 -45.26,-4.13 -6.79,0.98 -14,3.64 -17.88,9.65 -4.38,6.82 -2.92,17.36 4.38,21.59 8.09,5 17.58,6.83 26.58,9.55 14.64,4.34 30.42,7.28 42.52,17.27 7.88,6.24 13.33,15.5 14.47,25.53 1.7,13.87 -1.51,29.23 -11.71,39.33 -9.87,9.68 -23.7,14.1 -37.18,15.5 -23.27,2.36 -46.71,-2.07 -68.79,-9.25 -0.67,-6.29 -0.2,-13.32 3.76,-18.52 4.15,-5.01 11.44,-3.7 17.02,-2.53 15.61,3.69 31.78,7 47.86,4.57 6.45,-0.97 13.08,-3.68 16.93,-9.2 5.33,-7.17 5.29,-18.88 -2.11,-24.66 -6.35,-5 -14.49,-6.74 -22.06,-9.05 -16.17,-4.75 -33.76,-7.7 -47.08,-18.83 -15.8,-13.52 -18.45,-38.79 -7.37,-56.03 8.32,-12.29 23.05,-18.67 37.37,-20.52 z"
         id="path5"
         inkscape:connector-curvature="0"
         style="opacity:1;fill:#000000" />
      <path
         d="m 1203.33,171.29 c 10.38,-3.94 21.65,-4.54 32.64,-4.27 16.21,0.56 32.26,3.92 47.54,9.33 0.07,6.21 0.25,13.16 -3.81,18.31 -3.07,3.63 -8.41,3.72 -12.72,2.97 -12.85,-2.53 -25.82,-5.34 -38.99,-4.86 -7.78,0.27 -16.16,1.7 -22.18,7.02 -7.04,6.15 -7.01,19.14 1.07,24.41 7.6,4.95 16.63,6.87 25.21,9.42 13.73,4.15 28.32,6.74 40.45,14.86 8.33,5.43 15.09,13.65 17.55,23.41 2.43,9.77 1.68,20.24 -1.51,29.75 -3.51,10.38 -11.77,18.62 -21.52,23.35 -15.15,7.4 -32.56,8.26 -49.1,6.99 -15.22,-1.28 -30.23,-4.67 -44.7,-9.51 -0.24,-6.67 -0.17,-14.37 4.85,-19.45 4.35,-3.8 10.66,-2.58 15.83,-1.57 13.77,3.25 27.85,6.25 42.09,5.27 7.47,-0.46 15.67,-1.94 21.04,-7.61 5.51,-5.44 7.25,-14.35 4.13,-21.43 -2.03,-4.47 -6.3,-7.32 -10.63,-9.25 -18.18,-7.61 -38.64,-9.11 -55.84,-19.15 -12.56,-6.98 -20.92,-20.88 -21.01,-35.26 -0.34,-10.32 2.33,-21.16 9.16,-29.12 5.33,-6.41 12.77,-10.64 20.45,-13.61 z"
         id="path7"
         inkscape:connector-curvature="0"
         style="opacity:1;fill:#000000" />
      <path
         d="m 223.92,171.24 c 10.78,-3.31 22.85,-4.59 33.64,-0.7 6.72,2.45 9.49,9.69 10.69,16.17 8.7,34.55 17.45,69.09 26.19,103.63 9.79,-36.07 18.58,-72.42 28.17,-108.55 1.64,-5.78 6.26,-10.54 12.11,-12.07 10,-2.79 20.72,-1.46 30.67,0.95 5.06,52.7 10.39,105.38 15.5,158.07 -7.12,2.7 -15.37,4.15 -22.57,0.97 -3.08,-1.2 -4.5,-4.61 -4.75,-7.7 -3.44,-42.07 -6.94,-84.14 -10.43,-126.21 -10.53,37.42 -20.15,75.12 -30.47,112.6 -1.16,4.06 -3.98,7.73 -8,9.27 -6.78,2.72 -14.34,2 -21.4,1.01 -1.67,-0.53 -4.38,-0.23 -4.66,-2.48 -11.24,-40.26 -22.34,-80.57 -33.61,-120.82 -3.93,42.4 -7.65,84.83 -11.55,127.23 -0.23,2.97 -1.89,5.91 -4.7,7.14 -6.78,3.04 -14.61,1.76 -21.29,-0.93 5.37,-52.53 10.89,-105.06 16.46,-157.58 z"
         id="path9"
         inkscape:connector-curvature="0"
         style="opacity:1;fill:#000000" />
      <path
         d="m 412.06,168.72 c 6.43,-1.05 13.05,-0.43 19.44,0.68 0,31.52 0,63.05 0,94.58 0.07,11.18 2.5,22.93 9.79,31.73 5.12,6.45 12.82,10.54 20.91,11.79 9.17,1.31 19.02,0.62 27.21,-4.03 9.45,-5.31 15.78,-15.14 18.06,-25.6 2,-8.15 1.46,-16.6 1.53,-24.91 0,-24.32 0,-48.64 0,-72.96 -0.32,-4.95 2.87,-10.19 7.94,-11.14 6.52,-1.32 13.3,-0.54 19.81,0.51 0.01,28.22 0,56.44 0,84.65 -0.06,6.64 0.28,13.3 -0.6,19.89 -1.9,16.69 -9.25,33.14 -22.05,44.28 -12.03,10.41 -28.22,15.81 -44.09,14.81 -17.8,1.24 -36.05,-5.69 -48.2,-18.79 -12.49,-13.05 -18.04,-31.42 -18.31,-49.19 0.02,-28.62 -0.04,-57.24 0.02,-85.86 0.02,-4.89 3.5,-9.77 8.54,-10.44 z"
         id="path11"
         inkscape:connector-curvature="0"
         style="opacity:1;fill:#000000" />
      <path
         d="m 710.83,168.54 c 6.21,-0.73 12.54,-0.25 18.69,0.87 -0.04,50.2 0,100.4 -0.02,150.6 0.08,4.65 -2.72,9.73 -7.48,10.86 -6.72,1.72 -13.75,0.63 -20.5,-0.33 -0.04,-50.51 -0.03,-101.02 -0.01,-151.52 -0.12,-5.22 4.1,-10.01 9.32,-10.48 z"
         id="path13"
         inkscape:connector-curvature="0"
         style="opacity:1;fill:#000000" />
      <path
         d="m 798.65,174.74 c 12.74,-6.24 27.2,-8.03 41.25,-7.09 13.24,0.81 26.28,4.06 38.59,8.97 0.69,5.21 0.91,10.75 -1.27,15.67 -1.62,3.75 -5.01,6.94 -9.19,7.37 -4.75,0.45 -9.14,-1.81 -13.56,-3.13 -13.94,-4.44 -29.81,-4.96 -43.11,1.79 -14.52,7.18 -24.24,21.94 -27.09,37.66 -2.64,14.59 -1.6,30.26 4.93,43.74 5.11,10.7 14.24,19.6 25.46,23.67 14.18,5.24 30.13,3.81 44.02,-1.64 5.73,-2.48 13.5,-2.32 17.64,2.96 4.03,5.18 3.8,12.32 3,18.51 -16.7,7.28 -35.16,10.13 -53.29,9.02 -18.84,-1.1 -37.23,-9.33 -50.3,-22.98 -12.47,-13.02 -19.94,-30.46 -21.78,-48.31 -1.4,-14.41 -0.13,-29.26 5.19,-42.81 7.03,-18.77 21.23,-34.95 39.51,-43.4 z"
         id="path15"
         inkscape:connector-curvature="0"
         style="opacity:1;fill:#000000" />
      <path
         d="m 945.74,169.81 c 7.9,-1.89 16.09,-2.5 24.19,-1.87 4.16,0.4 8.49,1.56 11.7,4.39 3.54,3.24 5.2,7.89 6.75,12.3 16.4,47.96 32.88,95.89 49.25,143.85 -7.69,3.2 -16.46,4.51 -24.47,1.71 -2.96,-0.96 -4.72,-3.77 -5.72,-6.54 -4.13,-11.94 -8.02,-23.96 -12.16,-35.89 -21,-0.01 -41.99,-0.01 -62.99,0 -3.91,11.69 -7.8,23.4 -11.7,35.1 -1.09,3.44 -3.36,6.91 -7.08,7.8 -7.52,1.97 -15.8,1.23 -22.9,-1.89 18.31,-53.02 36.67,-106.01 55.13,-158.96 m -5.45,93.93 c 15.77,0.04 31.54,-0.03 47.31,0.03 -7.73,-23.85 -15.7,-47.62 -23.52,-71.44 -7.9,23.81 -15.86,47.6 -23.79,71.41 z"
         id="path17"
         inkscape:connector-curvature="0"
         style="opacity:1;fill:#000000" />
      <path
         d="m 1061.11,168.91 c 6.63,-1.38 13.56,-0.63 20.19,0.5 -0.11,45.11 -0.02,90.22 -0.05,135.33 25.6,0.02 51.2,0 76.8,0.02 1.05,6.28 2.15,12.96 0.09,19.15 -1.61,4.52 -6.75,6.35 -11.18,6.32 -26.33,0.06 -52.66,-0.01 -78.98,0.03 -3.92,-0.11 -8.24,-0.27 -11.42,-2.84 -3.23,-3.63 -3.43,-8.8 -3.33,-13.41 0.05,-44.68 -0.02,-89.36 0.04,-134.04 -0.13,-4.85 2.79,-10.08 7.84,-11.06 z"
         id="path19"
         inkscape:connector-curvature="0"
         style="opacity:1;fill:#000000" />
    </g>
  </g>
</svg>
