<svg height="666.66803" viewBox="0 0 3084.0496 666.66602" width="3084.0005" xmlns="http://www.w3.org/2000/svg"><path d="m43.89036-.00240405c-24.443981 0-43.88936 20.55733205-43.88936 43.89131405v578.32938c0 24.44398 20.000076 44.44601 44.444056 44.44601l2995.114944.008c24.4442 0 44.446-19.99941 44.446-44.44406v-578.33933c0-23.333555-19.447-43.8893609-43.8914-43.8893609z" fill="#fff" stroke-width="5.5556"/><path d="m1109.4002-.00061775h1283.3433v666.66748775h-1283.3433z" fill="#0082dc" stroke-width="5.5556"/><g fill="#fff" transform="translate(-730.25844 1215.2975)"><path d="m1972.9-881.99c0-92.38 68.45-160.83 159.72-160.83 91.823 0 159.72 69.007 159.72 160.83 0 92.936-68.45 161.94-159.72 161.94-91.267 0-159.72-69.007-159.72-161.94m268.24 0c0-71.233-48.973-116.31-108.52-116.31-59.546 0-108.52 45.077-108.52 116.31 0 72.346 48.972 117.42 108.52 117.42 59.546 0 108.52-45.077 108.52-117.42" stroke-width="5.5651"/><path d="m591.2 87.8v-51.7c.9-.2 2.6-.4 4.2-.4 3.4 0 4.4 1.4 4.4 3.5v3.8c4-4.4 9.9-7.9 17.5-7.9 10.6 0 19.4 6.7 19.4 22.1v27.7c0 2.1-1.2 3.4-4.8 3.4-1.5 0-3.2-.2-4.1-.4v-29.6c0-10.4-5.1-15.4-12.8-15.4-6.1 0-12.5 4.1-15.2 9v32.9c0 2.1-1.1 3.4-4.7 3.4-1.3 0-3-.2-3.9-.4z" fill="#fff" transform="matrix(6.0673 0 0 6.0673 -1238.2 -1254.4)"/><path d="m696.4 65.5h-40.1c1.4 9.8 8.2 15.6 18.5 15.6 4.3 0 7.8-1.1 11.1-2.2 2.2-.8 3.4-1.1 4.2-1.1 2.3 0 3.9 2.2 3.4 6.8-4.5 2.1-11.7 4.3-19.2 4.3-16 0-27.2-11.1-27.2-27.3 0-15.4 11.1-26.6 25.8-26.6 16 0 23.9 12.6 23.9 25 0 1.7-.1 3.5-.4 5.5m-40.2-7.3h31.8c-.3-8.8-6-15.6-15.1-15.6-8.2 0-15.4 5.4-16.7 15.6" fill="#fff" transform="matrix(5.986 0 0 5.986 -1199.8 -1252.8)"/></g><path d="m506.67061 64.443363c-54.99996 0-64.44295 28.888978-64.44295 57.222957v369.99972c6.11109 1.1111 12.22099 1.666 19.44298 1.666 54.44396 0 65.55696-16.111 65.55696-43.88897v-382.779708c-6.6667-1.666699-13.88999-2.222699-20.55699-2.222699zm210.55983 108.329917c-37.77797 0-59.44394 13.88799-81.66593 37.77697l-104.44992 114.44991 84.44494 132.77991c15.55598 24.44397 36.10997 36.66597 69.44294 36.66597 21.66699 0 40.00097-4.9998 48.33396-8.8887l-101.66992-153.32989 72.22095-76.11093 118.32991 185.55985-72.22294 151.10989c7.22218 3.8889 21.66797 8.33399 40.55696 8.33399 31.66698.5555 48.88797-11.66699 61.66595-39.99997l169.99986-378.8897c-7.2222-3.889-22.77797-7.7765-34.99997-8.3321-21.66697-.5555-51.11095 3.8886-69.99994 48.88897l-54.99996 129.99989-108.32991-174.99986c-7.22229-2.2222-23.88798-5-36.66598-5zm-426.83966.01c-14.89099.047-29.73898.6937-43.71497 2.2129-67.77795 7.7777-102.21992 48.33197-102.21992 97.22093 0 39.99997 28.88797 77.77794 83.33193 88.33393l64.99996 11.66598c24.44397 5 36.66797 10.001 36.66797 23.33399 0 9.99999-8.8889 20.55498-39.99997 20.55498-28.33298 0-66.11095-3.88869-89.99993-3.88869-23.33299 0-47.77896 10.55598-47.77896 56.11095 0 5.5556 1.1116 12.77799 2.22269 18.33399 34.44398 3.8889 107.21992 10.55599 157.21988 5 69.44395-7.7778 103.32992-45.55497 103.32992-97.77693 0-44.99996-27.22397-81.66593-91.66793-93.88893l-62.77695-11.66799c-19.99998-3.3334-32.77698-8.3322-32.77698-19.44298 0-10.55599 12.778-19.44499 44.99997-19.44499 31.66697 0 58.88796 3.3339 76.66594 3.3339 23.33298 0 47.22296-9.4445 47.22296-54.99996 0-6.1112-.5549-11.66599-1.666-17.77698-23.29898-3.0556-60.25194-6.8989-97.68191-7.1973-2.1267-.017-4.2555-.022-6.3828-.016z" fill="#0082dc" stroke-width="5.5556"/><g fill="#0082dc" transform="matrix(1.3333546 0 0 1.3333546 -.000454 -.005237)"><path d="m2866.627 177.05267c-2.1334.08-4.3736-.30616-6.2403.78717l-64.5058 33.83985c-5.2267 2.53333-10.2406 5.98607-13.2539 11.05273-4.3467 7.10667-4.0542 16.17344-1.1875 23.77344 2.28 6.42667 7.2677 11.26812 12.121 15.82812l55.7735-29.16015v259.8789c9.5067 4.10667 20.3861 4.86649 30.5328 3.14649 8.52-1.25333 15.6665-8.84021 15.8132-17.54688v-301.59967z" fill="#0082dc" stroke-width="1.333333" transform="scale(.74999999)"/><path d="m2631.582 210.59375c-3.0265-.0129-6.0506.24479-9.0215.76563-7.92 1.26666-14.6272 8.46661-14.5605 16.61328v85.36101h-79.973c-7.84-.28-15.8131 4.79854-17.8398 12.54521-2.64 10.04-.4938 20.50813 1.5195 30.45479h96.2933v104.63893c9.5333 4.10666 20.5464 5.29294 30.6264 2.59961 7.36-2.02667 12.4659-9.453 12.3726-16.98633v-90.25221h75.7071c5.56.0533 11.5072.31909 16.5606-2.50758 4.6933-2.4 7.7733-7.28039 8.6933-12.40039 1.7734-9.33333-.2282-18.90536-1.9082-28.09203h-99.0528v-98.64039c-6.0958-2.73167-12.7593-4.07114-19.4176-4.09961z" fill="#0082dc" stroke-width="1.333333" transform="scale(.74999999)"/></g><path d="m44.444965-.00061775h2995.160535c24.444 0 44.444 19.99998475 44.444 44.44396675v212.219841l-3020.160549 123.8899c-35.555973 1.1111-63.888951 30.55598-63.888951 66.11095v-402.219691c0-24.443982 19.999985-44.44396675 44.443965-44.44396675z" fill="#fff" opacity=".2" stroke-width="5.5556"/></svg>