<!-- Generator: Adobe Illustrator 17.1.0, SVG Export Plug-In . SVG Version: 6.00 Build 0)  -->
<svg xmlns:rdf="http://www.w3.org/1999/02/22-rdf-syntax-ns#" xmlns="http://www.w3.org/2000/svg" enable-background="new 0 0 1372 226.8" xml:space="preserve" viewBox="0 0 617 102.3" height="100%" width="100%" version="1.1" y="0px" x="0px" xmlns:cc="http://creativecommons.org/ns#" xmlns:dc="http://purl.org/dc/elements/1.1/"><metadata><rdf:RDF><cc:Work rdf:about=""><dc:format>image/svg+xml</dc:format><dc:type rdf:resource="http://purl.org/dc/dcmitype/StillImage"/><dc:title/></cc:Work></rdf:RDF></metadata>
<g transform="translate(-60.7,-59.900002)">
		<linearGradient id="SVGID_1_" y2="163" gradientUnits="userSpaceOnUse" x2="-3420" gradientTransform="matrix(-1,0,0,1,-3268.9878,0)" y1="59" x1="-3420">
		<stop stop-color="#091B4A" offset="0"/>
		<stop stop-color="#122D68" offset="0.0363"/>
		<stop stop-color="#122D68" offset="0.896"/>
		<stop stop-color="#091B4A" offset="1"/>
	</linearGradient>
	<path fill="url(#SVGID_1_)" d="m71.6,162c-8.1,0-10.9-4.8-10.9-12.7v-76.4c0-7.9,2.9-12.7,10.9-12.7h178v102h-178z"/>
	<path fill="#a1a2a2" display="none" d="m72.9,164c-8.1,0-13.5-4.8-13.5-12.7v-80.6c0-7.9,5.5-12.7,13.5-12.7h593c8.1,0,13.5,4.8,13.5,12.7v81.4c0,7.9-5.5,12.7-13.5,12.7h-593zm-0.6-107c-12,0-15.6,7.4-15.6,14.9v79c0,7.4,3.6,14.9,15.6,14.9h594c12,0,15.6-7.4,15.6-14.9v-79c0-7.4-3.6-14.9-15.6-14.9"/>
		<linearGradient id="SVGID_2_" y2="59.1" gradientUnits="userSpaceOnUse" x2="-3730" gradientTransform="matrix(-1,0,0,1,-3268.9878,0)" y1="163" x1="-3730">
		<stop stop-color="#552227" offset="0"/>
		<stop stop-color="#C41C2B" offset="0.0739"/>
		<stop stop-color="#C41C2B" offset="0.911"/>
		<stop stop-color="#FE3446" offset="1"/>
	</linearGradient>
	<path fill="url(#SVGID_2_)" d="M250,162v-102h417c8.1,0,10.9,4.8,10.9,12.7v76.9c0,7.9-2.9,12.7-10.9,12.7h-417z"/>
	<g opacity="0.4">
			<path fill="#FFF" d="m668,139c6.9,6.9,7.9,13.3,8.1,14.8,0.7,0,0.9-3,0.9-7.6v-72.6c0-8.4-2.7-11.3-9.9-11.3-2.4,0-4.8,1.3-8,1.3h-580c-3.2,0-5.6-1.3-8-1.3-7.1,0-9.9,2.8-9.9,11.3v72.6c0,4.5,0.3,7.6,0.9,7.6,0.2-1.4,0.5-8.4,8.1-14.8,61.4-47.2,532-61.7,598,0z"/>
	</g>
	<path fill="#FFF" d="m183,154c1.2,0.6,3.7,1.4,6.8,1.4,5.3,0.1,8.2-1.9,10.4-6.7l28.6-63.7c-1.2-0.6-3.8-1.3-5.9-1.4-3.7-0.1-8.6,0.7-11.8,8.2l-9,22.9-18-29.6c-1.2-0.4-4-0.9-6.1-0.9-6.4,0-10,2.4-13.7,6.4l-17.6,19.3,14.2,22.3c2.6,4.1,6.1,6.1,11.7,6.1,3.7,0,6.7-0.8,8.1-1.5l-17-26,12-12.3,20,31.3-12,25zm-37.5-24.1c0,4.7-1.8,7.4-11,7.4-1.2,0-2.3-0.1-3.3-0.2v-61.9c0-4.7,1.6-9.7,10.9-9.7,1.2,0,2.3,0.1,3.4,0.3v64.6zm-18.9-9.4c0,8.8-5.7,15.2-17.4,16.4-8.4,0.9-20.6-0.2-26.4-0.8-0.2-0.9-0.4-2.1-0.4-3,0-7.7,4.1-9.4,8-9.4,4,0,10.4,0.7,15.1,0.7,5.2,0,6.8-1.8,6.8-3.4,0-2.2-2.1-3.1-6.1-3.9l-11-2.1c-10.1-2-15-9-15-15,0-8.2,5.8-15.1,17.2-16.3,8.6-0.9,19.1,0.1,24.9,0.8,0.2,1,0.3,1.9,0.3,3,0,7.6-4,9.3-7.9,9.3-3,0-7.6-0.6-12.9-0.6-5.4,0-7.6,1.5-7.6,3.3,0,1.9,2.1,2.7,5.5,3.3l10.5,2c10.8,1.7,15.5,7.9,15.5,15.5z"/>
		<path fill="#FFF" d="m331,123c0-10.6-6.9-15.8-17.9-18.2l-19-5c-3.5-0.8-6.4-1.9-6.4-5.4,0-3.8,3-5.3,11.1-5.3,9.5,0,11.8,0.5,20.4,0.5,4,0,8.1-1.9,8.1-9.7,0-1-0.1-2-0.3-3-5.8-0.5-16.3-1.1-29.1-1.1-19.4,0-26.8,8.4-26.8,19.1,0,10,6.3,15.6,17.5,18.2l19.3,4.5c4.5,1.1,6.9,3,6.9,5.8,0,3.8-3.4,5.3-11.5,5.3-9.5,0-13.9-0.7-22.6-0.7-4,0-8.1,1.8-8.1,9.7,0,1,0.1,2,0.3,3,5.8,0.6,18.4,1.3,31.2,1.3,19.5,0.1,27.2-8.2,27.2-19.6z"/>
		<path fill="#FFF" d="m660,123c0-10.6-6.9-15.8-17.9-18.2l-19.3-4.4c-3.5-0.8-6.4-1.9-6.4-5.4,0-3.8,3-5.3,11.1-5.3,9.5,0,11.8,0.5,20.4,0.5,4,0,8.1-1.9,8.1-9.7,0-1-0.1-2-0.3-3-5.8-0.5-16.3-1.1-29.1-1.1-19.4,0-26.8,8.4-26.8,19.1,0,10,6.3,15.6,17.5,18.2l19.3,4.5c4.5,1.1,6.9,3,6.9,5.8,0,3.8-3.4,5.3-11.5,5.3-9.5,0-13.9-0.7-22.6-0.7-4,0-8.1,1.8-8.1,9.7,0,1,0.1,2,0.3,3,5.8,0.6,18.4,1.3,31.2,1.3,19.5,0.1,27.2-8.2,27.2-19.6z"/>
		<path fill="#FFF" d="M490,106v-16.4h15.3c6.5,0,11.7,1,11.7,7.8,0,5.7-3.9,8.5-11.7,8.5h-15.3zm-0.1,12.8h8.1l15.6,18.6c2.9,3.6,5.7,5.5,12.4,5.5,4.5,0,7.5-0.6,9.9-1.8l-20.3-23.5c11.4-2.4,17.1-9.8,17.1-20.7,0-13.4-8.2-20-24.7-20l-23.6-0.1c-7.7,0.3-10.2,2.9-10.2,9.9v55.1c1.2,0.2,2.5,0.3,3.9,0.3,9.7,0,12-2.8,12-7.9l-0.2-15.4z"/>
		<path fill="#FFF" d="M354,108v-18.3h15.9c7.9,0,11.8,2.9,11.8,8.7,0,6.1-3.9,9.2-11.8,9.2h-16zm-15.8,34.1c1.2,0.2,2.5,0.3,3.9,0.3,9.7,0,12-2.8,12-7.9v-13.3h16.5c18,0,27-7.8,27-22.4,0-14.1-9-21.6-25.9-21.6h-23.3c-7.8,0-10.2,3-10.2,9.9v55z"/>
		<path fill="#FFF" d="m450,108c0,7.5-1.3,12.7-3.8,15.9-2.4,3.2-6.4,4.7-11.9,4.7-5.5-0.1-9.5-1.7-12.1-4.7-2.5-3-3.8-8.3-3.8-15.9,0-7.5,1.4-12.7,3.9-15.8s6.5-4.6,12-4.6,9.3,1.5,11.9,4.6c2.5,3.1,3.8,8.3,3.8,15.8zm-15.7,33.5c10.2,0,18.1-2.4,23.7-7.4,5.5-4.9,8.4-13.6,8.4-26.1-0.1-12.3-2.9-20.8-8.7-25.9-5.7-5-13.5-7.5-23.4-7.5-9.8,0-17.6,2.5-23.4,7.5-5.7,5.1-8.6,13.6-8.7,25.9,0,12.5,2.8,21.2,8.4,26.1,5.6,5,13.5,7.4,23.7,7.4z"/>
		<path fill="#FFF" d="m575,90.1h12.8c4.2,0,8.5-1.9,8.5-10.2,0-1-0.1-2.1-0.3-3.1h-49.5c-4.2,0-8.5,1.9-8.5,10.2,0,1,0.1,2.1,0.3,3.1h21v51.6c1.2,0.2,2.5,0.3,3.9,0.3,9.7,0,12-2.8,12-7.9v-44z"/>
</g>
</svg>