<?xml version="1.0" encoding="UTF-8" standalone="no"?>
<!-- Generator: Adobe Illustrator 17.1.0, SVG Export Plug-In . SVG Version: 6.00 Build 0)  -->

<svg
   xmlns:dc="http://purl.org/dc/elements/1.1/"
   xmlns:cc="http://creativecommons.org/ns#"
   xmlns:rdf="http://www.w3.org/1999/02/22-rdf-syntax-ns#"
   xmlns:svg="http://www.w3.org/2000/svg"
   xmlns="http://www.w3.org/2000/svg"
   xmlns:sodipodi="http://sodipodi.sourceforge.net/DTD/sodipodi-0.dtd"
   xmlns:inkscape="http://www.inkscape.org/namespaces/inkscape"
   version="1.1"
   id="Layer_1"
   x="0px"
   y="0px"
   viewBox="54.1 387.1 561.99902 59.900002"
   enable-background="new 54.1 387.1 487.6 59.8"
   xml:space="preserve"
   inkscape:version="0.91 r13725"
   sodipodi:docname="Sky Sports The Open HD.svg"
   width="561.99902"
   height="59.900002"><metadata
     id="metadata79"><rdf:RDF><cc:Work
         rdf:about=""><dc:format>image/svg+xml</dc:format><dc:type
           rdf:resource="http://purl.org/dc/dcmitype/StillImage" /><dc:title></dc:title></cc:Work></rdf:RDF></metadata><defs
     id="defs77" /><sodipodi:namedview
     pagecolor="#ffffff"
     bordercolor="#666666"
     borderopacity="1"
     objecttolerance="10"
     gridtolerance="10"
     guidetolerance="10"
     inkscape:pageopacity="0"
     inkscape:pageshadow="2"
     inkscape:window-width="640"
     inkscape:window-height="480"
     id="namedview75"
     showgrid="false"
     fit-margin-top="0"
     fit-margin-left="0"
     fit-margin-right="0"
     fit-margin-bottom="0"
     inkscape:zoom="1.279782"
     inkscape:cx="450.53815"
     inkscape:cy="116.05395"
     inkscape:current-layer="Layer_1" /><linearGradient
     id="SVGID_1_"
     gradientUnits="userSpaceOnUse"
     x1="751.80261"
     y1="809.90417"
     x2="751.80261"
     y2="769.21429"
     gradientTransform="matrix(-1.7182693,0,0,-1.4908,1626.9507,1594.1479)"><stop
       offset="0"
       style="stop-color:#161E49"
       id="stop4" /><stop
       offset="3.634360e-02"
       style="stop-color:#233166"
       id="stop6" /><stop
       offset="0.8955"
       style="stop-color:#233166"
       id="stop8" /><stop
       offset="1"
       style="stop-color:#161E49"
       id="stop10" /></linearGradient><path
     d="m 61.476523,447.00001 c -5.532394,0 -7.376525,-2.8 -7.376525,-7.5 l 0,-44.9 c 0,-4.6 1.844131,-7.5 7.376525,-7.5 l 547.245947,0 c 5.5324,0 7.37653,2.8 7.37653,7.5 l 0,44.9 c 0,4.6 -1.84413,7.5 -7.37653,7.5 l -547.245947,0 z"
     id="path12"
     style="fill:url(#SVGID_1_)"
     inkscape:connector-curvature="0" /><g
     id="g14"
     transform="translate(-1.5258789e-6,0.1000061)"><linearGradient
       id="SVGID_2_"
       gradientUnits="userSpaceOnUse"
       x1="194.60001"
       y1="769.53772"
       x2="194.60001"
       y2="809.53772"
       gradientTransform="matrix(1.4908,0,0,-1.4908,0,1594.0479)"><stop
         offset="0"
         style="stop-color:#552327"
         id="stop17" /><stop
         offset="7.388180e-02"
         style="stop-color:#C4202C"
         id="stop19" /><stop
         offset="0.9114"
         style="stop-color:#C4202C"
         id="stop21" /><stop
         offset="1"
         style="stop-color:#EF3C4B"
         id="stop23" /></linearGradient><rect
       x="164.39999"
       y="387.10001"
       width="251.39999"
       height="59.599998"
       id="rect25"
       style="fill:url(#SVGID_2_)" /></g><g
     id="g27"
     transform="matrix(1.1528328,0,0,1,-8.3752366,0.1000061)"
     style="opacity:0.4"><g
       id="g29"><path
         d="m 536.2,433 c 4,4 4.6,7.8 4.8,8.6 0.4,0 0.6,-1.8 0.6,-4.5 l 0,-42.3 c 0,-4.9 -1.6,-6.6 -5.8,-6.6 -1.3,0 -2.8,0.7 -4.6,0.7 l -466,0 c -1.9,0 -3.3,-0.7 -4.6,-0.7 -4.2,0 -5.8,1.6 -5.8,6.6 l 0,42.3 c 0,2.7 0.1,4.5 0.6,4.5 0.1,-0.9 0.3,-4.9 4.8,-8.6 35.5,-27.4 437.6,-35.9 476,0 z"
         id="path31"
         inkscape:connector-curvature="0"
         style="fill:#ffffff" /></g></g><path
     d="m 125.5,442.40001 c 0.7,0.3 2.1,0.7 4,0.9 3.1,0 4.8,-1.2 6.1,-3.9 l 16.4,-37.3 c -0.7,-0.3 -2.2,-0.7 -3.4,-0.7 -2.1,0 -5.1,0.4 -6.9,4.8 l -5.4,12.7 -10.6,-17.3 c -0.7,-0.1 -2.4,-0.4 -3.6,-0.4 -3.7,0 -5.8,1.3 -8.1,3.7 l -10.3,11.2 8.3,13 c 1.5,2.4 3.6,3.6 6.9,3.6 2.1,0 3.9,-0.4 4.8,-0.9 l -10,-15.1 7,-7.5 11.6,18.2 -6.8,15 z m -21.9,-14.1 c 0,2.7 -1,4.3 -6.400002,4.3 -0.7,0 -1.3,0 -1.9,-0.1 l 0,-36.4 c 0,-2.8 0.9,-5.7 6.400002,-5.7 0.7,0 1.3,0 1.9,0.1 l 0,37.8 z m -11.000002,-5.5 c 0,5.1 -3.3,8.8 -10.1,9.5 -4.9,0.6 -12.1,-0.1 -15.4,-0.4 -0.1,-0.6 -0.1,-1.2 -0.1,-1.8 0,-4.5 2.4,-5.5 4.6,-5.5 2.4,0 6.1,0.4 8.8,0.4 3,0 3.9,-1 3.9,-1.9 0,-1.3 -1.2,-1.8 -3.6,-2.2 l -6.4,-1.3 c -5.4,-1 -8.2,-4.8 -8.2,-8.6 0,-4.8 3.4,-8.8 10,-9.5 5.1,-0.6 11.2,0 14.5,0.4 0.1,0.6 0.1,1.2 0.1,1.8 0,4.5 -2.4,5.4 -4.6,5.4 -1.8,0 -4.5,-0.3 -7.5,-0.3 -3.1,0 -4.5,0.9 -4.5,1.9 0,1 1.2,1.6 3.1,1.9 l 6.3,1 c 6.4,1.2 9.1,4.8 9.1,9.2 z"
     id="path33"
     inkscape:connector-curvature="0"
     style="fill:#ffffff" /><g
     id="g35"
     transform="translate(-1.5258789e-6,0.1000061)"><path
       d="m 212,423.9 c 0,-6.3 -4,-9.2 -10.4,-10.6 l -11.2,-2.5 c -2.1,-0.4 -3.7,-1 -3.7,-3.1 0,-2.2 1.8,-3.1 6.4,-3.1 5.5,0 6.9,0.3 11.9,0.3 2.4,0 4.8,-1 4.8,-5.7 0,-0.6 0,-1.2 -0.1,-1.8 -3.4,-0.3 -9.5,-0.6 -17,-0.6 -11.3,0 -15.7,4.9 -15.7,11.2 0,5.8 3.7,9.1 10.3,10.6 l 11.2,2.7 c 2.7,0.6 4,1.8 4,3.4 0,2.2 -1.9,3.1 -6.7,3.1 -5.5,0 -8.1,-0.4 -13.1,-0.4 -2.4,0 -4.8,1 -4.8,5.7 0,0.6 0,1.2 0.1,1.8 3.4,0.3 10.7,0.7 18.2,0.7 11.2,-0.3 15.8,-5.1 15.8,-11.7 l 0,0 z"
       id="path37"
       inkscape:connector-curvature="0"
       style="fill:#ffffff" /><path
       d="m 304.7,413.9 0,-9.5 8.9,0 c 3.9,0 6.9,0.6 6.9,4.5 0,3.3 -2.2,4.9 -6.9,4.9 l -8.9,0 0,0.1 z m -0.1,7.5 4.8,0 9.1,10.9 c 1.6,2.1 3.3,3.1 7.2,3.1 2.7,0 4.3,-0.3 5.8,-1 l -11.8,-13.7 c 6.7,-1.5 10,-5.7 10,-12.1 0,-7.9 -4.8,-11.6 -14.5,-11.6 l -13.9,0 c -4.5,0.1 -6,1.6 -6,5.8 l 0,32.1 c 0.7,0.1 1.5,0.1 2.2,0.1 5.7,0 7,-1.6 7,-4.6 l 0,-9 z"
       id="path39"
       inkscape:connector-curvature="0"
       style="fill:#ffffff" /><path
       d="m 225.3,414.8 0,-10.4 9.2,0 c 4.6,0 6.9,1.6 6.9,5.1 0,3.6 -2.2,5.4 -6.9,5.4 l -9.2,0 z m -9.3,20 c 0.7,0.1 1.5,0.1 2.2,0.1 5.7,0 7,-1.6 7,-4.6 l 0,-7.8 9.7,0 c 10.4,0 15.7,-4.5 15.7,-13.1 0,-8.2 -5.2,-12.7 -15.1,-12.7 l -13.5,0 c -4.5,0 -6,1.8 -6,5.8 l 0,32.3 0,0 z"
       id="path41"
       inkscape:connector-curvature="0"
       style="fill:#ffffff" /><path
       d="m 281.3,415.3 c 0,4.3 -0.7,7.5 -2.2,9.2 -1.5,1.9 -3.7,2.7 -6.9,2.7 -3.3,0 -5.5,-0.9 -7,-2.7 -1.5,-1.8 -2.2,-4.8 -2.2,-9.2 0,-4.3 0.7,-7.5 2.2,-9.2 1.5,-1.7 3.9,-2.7 7,-2.7 3.1,0 5.5,0.9 6.9,2.7 1.5,1.9 2.2,4.9 2.2,9.2 l 0,0 z m -9.1,19.5 c 6,0 10.6,-1.5 13.9,-4.3 3.3,-2.8 4.9,-7.9 4.9,-15.2 0,-7.2 -1.6,-12.1 -5.1,-15.1 -3.3,-2.8 -7.9,-4.3 -13.6,-4.3 -5.7,0 -10.3,1.5 -13.6,4.3 -3.3,3 -5.1,7.9 -5.1,15.1 0,7.3 1.6,12.4 4.9,15.2 3.1,3 7.8,4.3 13.7,4.3 l 0,0 z"
       id="path43"
       inkscape:connector-curvature="0"
       style="fill:#ffffff" /><path
       d="m 353.9,404.7 7.5,0 c 2.4,0 4.9,-1.2 4.9,-6 0,-0.6 0,-1.2 -0.1,-1.8 l -28.9,0 c -2.4,0 -4.9,1.2 -4.9,6 0,0.6 0,1.2 0.1,1.8 l 12.2,0 0,30.1 c 0.7,0.1 1.5,0.1 2.2,0.1 5.7,0 7,-1.6 7,-4.6 l 0,-25.6 z"
       id="path45"
       inkscape:connector-curvature="0"
       style="fill:#ffffff" /></g><path
     d="m 403.6,424.00001 c 0,-6.3 -4,-9.2 -10.4,-10.6 l -11.2,-2.5 c -2.1,-0.4 -3.7,-1 -3.7,-3.1 0,-2.2 1.8,-3.1 6.4,-3.1 5.5,0 6.9,0.3 11.9,0.3 2.4,0 4.8,-1 4.8,-5.7 0,-0.6 0,-1.2 -0.1,-1.8 -3.4,-0.3 -9.5,-0.6 -17,-0.6 -11.3,0 -15.7,4.9 -15.7,11.2 0,5.8 3.7,9.1 10.3,10.6 l 11.2,2.7 c 2.7,0.6 4,1.8 4,3.4 0,2.2 -1.9,3.1 -6.7,3.1 -5.5,0 -8.1,-0.4 -13.1,-0.4 -2.4,0 -4.8,1 -4.8,5.7 0,0.6 0,1.2 0.1,1.8 3.4,0.3 10.7,0.7 18.2,0.7 11.3,-0.3 15.8,-5.1 15.8,-11.7 l 0,0 z"
     id="path47"
     inkscape:connector-curvature="0"
     style="fill:#ffffff" /><g
     id="g49"
     transform="translate(-1.5258789e-6,0.1000061)"><path
       d="m 476.6,399.5 c 2.4,0 4.8,0 7.3,0 0,-0.1 0,-0.1 0,-0.3 0,-1.5 0,-3.1 0,-4.6 0,-0.1 0,-0.1 0,-0.3 0,-0.6 -0.1,-0.9 -1,-1 -0.1,0 -0.1,0 -0.3,0 -0.4,0 -0.6,-0.4 -0.4,-0.9 0,0 0.1,-0.1 0.3,-0.1 0.7,0 1.3,0 2.1,0 1,0 2.2,0 3.3,0 0.1,0 0.3,-0.1 0.4,0.1 0,0.4 0,0.7 -0.3,0.7 -0.1,0 -0.4,0 -0.6,0.1 -0.6,0.1 -0.7,0.3 -0.7,0.7 0,0.1 0,0.3 0,0.3 0,3.9 0,7.8 0,11.6 l 0,0.1 c 0,0.6 0.3,0.9 0.9,0.9 0.1,0 0.1,0 0.3,0 0.4,0.1 0.7,0.3 0.6,0.9 0,0 -0.1,0.1 -0.3,0.1 -0.9,0 -1.8,0 -2.5,0 -0.9,0 -1.8,0 -2.8,0 -0.1,0 -0.3,0 -0.4,-0.1 0,-0.4 0,-0.7 0.3,-0.7 0.3,0 0.4,0 0.7,-0.1 0.6,-0.1 0.7,-0.3 0.7,-0.9 0,-1.9 0,-3.9 0,-5.8 0,-0.1 0,-0.1 -0.1,-0.1 -2.4,0 -4.6,0 -7,0 0,0 0,0 -0.1,0 l 0,0.1 c 0,1.9 0,3.9 0,5.8 0,0.7 0.3,0.9 0.9,1 0.1,0 0.3,0 0.4,0 0.1,0 0.3,0.1 0.3,0.3 0.1,0.4 0,0.6 -0.4,0.6 -1.8,0 -3.4,0 -5.2,0 -0.1,0 -0.4,0 -0.4,-0.1 0,-0.4 0,-0.7 0.3,-0.7 0.3,0 0.4,0 0.7,-0.1 0.4,-0.1 0.6,-0.3 0.7,-0.7 0,-0.1 0,-0.3 0,-0.4 0,-3.9 0,-7.8 0,-11.5 0,-0.9 -0.1,-1 -1,-1.2 l -0.1,0 c -0.4,0 -0.6,-0.4 -0.4,-0.9 l 0.1,-0.1 c 0.1,0 0.3,0 0.4,0 1.6,0 3.3,0 5.1,0 0.1,0 0.4,-0.1 0.4,0.1 0,0.2 0,0.6 -0.3,0.7 -0.3,0 -0.6,0.1 -0.7,0.1 -0.4,0.1 -0.6,0.3 -0.6,0.7 -0.6,2.1 -0.6,3.7 -0.6,5.7 0,-0.2 0,-0.2 0,0 z"
       id="path51"
       inkscape:connector-curvature="0"
       style="fill:#ffffff" /><path
       d="m 493.6,393.4 c 0,0.1 0,0.1 0,0.3 0,3.9 0,7.8 0,11.6 0,0.3 0,0.4 0,0.7 0.1,0.6 0.4,0.9 1,1 1.3,0.3 2.8,0.3 4.2,0 0.6,-0.1 0.9,-0.4 1,-0.9 0.1,-0.3 0.1,-0.4 0.3,-0.7 0.1,-0.1 0.1,-0.3 0.3,-0.4 0.4,-0.1 0.7,0 0.6,0.4 -0.1,0.7 -0.3,1.6 -0.4,2.4 -0.1,0.4 -0.1,0.4 -0.6,0.4 -3.4,0 -7,0 -10.4,0 -0.1,0 -0.4,0.1 -0.4,-0.3 0,-0.4 0.1,-0.6 0.4,-0.7 0.1,0 0.4,0 0.6,0 0.4,0 0.6,-0.3 0.7,-0.7 l 0,-0.1 c 0,-4.2 0,-8.2 0,-12.4 0,-0.4 -0.1,-0.7 -0.6,-0.9 -0.1,0 -0.3,0 -0.6,0 -0.4,0 -0.7,-0.3 -0.6,-0.7 l 0.1,-0.1 0.1,0 c 3.4,0 6.7,0 10.1,0 0.4,0 0.4,0 0.6,0.4 0,0.6 0,1.3 0,1.9 0,0.1 0,0.3 -0.1,0.3 -0.1,0 -0.3,0 -0.4,-0.1 -0.1,0 -0.1,-0.3 -0.1,-0.3 -0.3,-0.9 -0.9,-1.3 -1.8,-1.3 -1.2,0 -2.5,0 -3.7,0 -0.1,0.2 -0.1,0.2 -0.3,0.2 z"
       id="path53"
       inkscape:connector-curvature="0"
       style="fill:#ffffff" /><path
       d="m 465.9,393.1 c 0,0.1 0,0.1 0,0.3 0,4.2 0,8.5 0,12.7 0,0.7 0.3,1 1,1.2 0.6,0 0.7,0.1 0.7,0.7 0,0.1 -0.1,0.3 -0.3,0.3 -0.6,0 -1.2,0 -1.9,0 -1.2,0 -2.4,0 -3.6,0 -0.1,0 -0.4,0 -0.4,-0.3 0,-0.4 0.1,-0.6 0.4,-0.7 0.3,0 0.4,0 0.7,-0.1 0.4,-0.1 0.6,-0.3 0.6,-0.7 0,-4.3 0,-8.8 0,-13.1 l 0,-0.1 c -0.9,0 -1.9,0 -2.8,0.1 -0.7,0 -1.2,0.6 -1.6,1.2 -0.1,0.3 -0.4,0.4 -0.7,0.4 -0.3,0 -0.3,0 -0.3,-0.3 0.1,-0.6 0.1,-1.3 0.3,-1.9 0,-0.3 0.1,-0.3 0.4,-0.3 4,0 8.2,0 12.2,0 0.3,0 0.3,0.1 0.4,0.3 0.1,0.6 0.1,1.3 0.3,1.9 0,0.1 0,0.3 -0.3,0.3 -0.3,0 -0.7,-0.1 -0.9,-0.4 -0.4,-0.9 -1.2,-1.3 -2.2,-1.3 -0.5,-0.2 -1.3,-0.2 -2,-0.2 z"
       id="path55"
       inkscape:connector-curvature="0"
       style="fill:#ffffff" /><path
       d="m 498.7,399.8 c 0,0.7 0,1.3 0,2.1 0,0.1 0,0.4 -0.3,0.4 -0.3,0 -0.4,0 -0.6,-0.3 -0.1,-0.3 -0.1,-0.4 -0.3,-0.7 -0.3,-0.7 -0.7,-1 -1.5,-1 -0.3,0 -0.6,0 -0.9,0 -0.1,0 -0.4,0 -0.6,0 -0.3,0 -0.4,-0.1 -0.4,-0.4 0,-0.3 0.1,-0.4 0.4,-0.4 0.4,0 0.9,0 1.5,0 0.9,0 1.5,-0.4 1.6,-1.2 0.1,-0.3 0.1,-0.6 0.6,-0.6 0.3,0 0.4,0 0.4,0.3 0,0.3 0,0.6 0,0.9 0.1,0.3 0.1,0.6 0.1,0.9 l 0,0 z"
       id="path57"
       inkscape:connector-curvature="0"
       style="fill:#ffffff" /></g><g
     id="g59"
     transform="translate(-1.5258789e-6,0.1000061)"><path
       d="m 448.3,440.5 c -0.1,-0.4 -0.1,-0.7 0.1,-0.9 2.8,-1.8 4.5,-4.5 5.5,-7.6 1.6,-5.4 1.6,-10.6 -0.1,-15.8 -1.2,-3.3 -3.3,-5.8 -6.7,-7 -5.1,-1.8 -11.3,0 -14,6.4 -0.9,2.1 -1.2,4.3 -1.5,6.6 -0.3,3.9 0.1,7.8 1.6,11.3 1,2.5 2.5,4.6 4.9,6.1 0.3,0.1 0.4,0.4 0.3,0.9 -0.1,0 -0.3,0 -0.6,-0.1 -6.1,-2.1 -9.8,-6.3 -11,-12.5 -0.9,-4.3 -0.4,-8.6 1.8,-12.5 2.5,-4.6 6.6,-7.3 11.8,-8.1 4.2,-0.7 8.2,0 11.9,2.2 4.2,2.5 6.6,6.1 7.6,10.9 0.9,4 0.4,8.1 -1.3,11.8 -2.1,4.2 -5.4,7 -9.7,8.3 -0.3,-0.2 -0.5,-0.2 -0.6,0 z"
       id="path61"
       inkscape:connector-curvature="0"
       style="fill:#ffffff" /><path
       d="m 467.7,412.9 c 0,0.3 0,0.4 0,0.6 0,7.8 0,15.5 0,23.3 0,1.3 0.3,1.6 1.6,1.8 0.1,0 0.4,0 0.6,0.1 0.3,0 0.6,0.3 0.6,0.6 0.1,0.7 0,0.9 -0.7,0.9 -3,0 -6,0 -9.1,0 -0.3,0 -0.6,0.1 -0.6,-0.3 0,-0.6 0.1,-1 0.6,-1 0.3,0 0.7,-0.1 1,-0.1 0.7,0 1.3,-0.6 1.3,-1.3 0,-0.3 0,-0.6 0,-0.9 0,-7.2 0,-14.3 0,-21.3 0,-0.3 0,-0.6 0,-0.9 -0.1,-0.7 -0.6,-1.2 -1.2,-1.2 -0.3,0 -0.7,0 -1,-0.1 -0.6,0 -0.9,-0.7 -0.6,-1.3 0,-0.1 0.3,-0.1 0.4,-0.1 2.8,0 5.5,0 8.3,0 1.3,0 2.5,0 3.9,0.1 1.8,0.1 3.6,0.6 5.2,1.6 2.7,1.8 3.6,4.3 3.3,7.5 -0.3,3.7 -2.7,6 -6.1,7 -1.9,0.6 -3.9,0.7 -5.8,0.6 -0.3,0 -0.4,-0.1 -0.4,-0.4 0,-0.3 0.1,-0.4 0.4,-0.4 1,-0.1 2.1,-0.1 3.1,-0.3 2.2,-0.6 3.6,-2.1 4.2,-4.3 0.4,-1.8 0.4,-3.6 -0.1,-5.4 -0.6,-2.1 -2.1,-3.3 -4.2,-3.7 -1.5,-1 -3.1,-1 -4.7,-1.1 z"
       id="path63"
       inkscape:connector-curvature="0"
       style="fill:#ffffff" /><path
       d="m 525.8,432.4 c 0,-0.1 0,-0.3 0,-0.4 0,-4.9 0,-9.8 0,-14.8 0,-0.7 0,-1.5 -0.1,-2.2 -0.1,-1.5 -0.7,-2.1 -2.2,-2.2 -0.7,-0.1 -0.9,-0.3 -0.9,-1 0,-0.3 0.1,-0.4 0.3,-0.4 2.7,0 5.4,0 7.9,0 0.3,0 0.3,0.1 0.3,0.4 0,0.7 -0.1,0.9 -0.9,1 -1.5,0.1 -1.9,0.6 -2.2,2.1 -0.1,0.9 -0.1,1.8 -0.1,2.5 0,7.3 0,14.6 0,21.9 0,0.7 0,0.6 -0.7,0.7 -0.7,0 -1.2,-0.3 -1.5,-0.7 -1.2,-1.6 -2.5,-3.3 -3.7,-5.1 -4.8,-6.6 -9.5,-13 -14.3,-19.5 -0.9,-1.2 -1.9,-1.9 -3.4,-2.1 -0.7,0 -0.9,-0.4 -0.9,-1.2 0,-0.1 0.1,-0.3 0.3,-0.3 2.1,0 4,0 6.1,0 0.6,0 0.9,0.4 1,0.9 1.2,1.5 2.2,3.1 3.4,4.6 3.7,5.1 7.5,10.1 11.2,15.2 0.1,0.3 0.3,0.5 0.4,0.6 l 0,0 z"
       id="path65"
       inkscape:connector-curvature="0"
       style="fill:#ffffff" /><path
       d="m 488.5,413 c 0,0.3 0,0.4 0,0.6 0,6.9 0,13.9 0,20.7 0,0.4 0,0.7 0,1.2 0.1,1.3 0.9,2.2 2.2,2.4 2.1,0.4 4.2,0.4 6.3,0 1,-0.1 1.9,-0.7 2.2,-1.8 0.1,-0.4 0.3,-0.7 0.4,-1.2 0.1,-0.1 0.1,-0.4 0.3,-0.4 0.3,-0.1 0.7,-0.1 1,-0.3 0,0.3 0.1,0.4 0,0.7 -0.1,1.3 -0.4,2.8 -0.7,4.2 -0.1,0.7 -0.3,0.7 -0.9,0.7 -6,0 -12.1,0 -18,0 -0.3,0 -0.6,0.1 -0.6,-0.3 0,-0.6 0.1,-1 0.6,-1 0.3,0 0.6,0 1,-0.1 0.7,-0.1 1.3,-0.6 1.3,-1.3 0,-0.1 0,-0.4 0,-0.7 0,-7.3 0,-14.6 0,-21.8 0,-1.2 -0.3,-1.8 -1,-1.9 -0.3,-0.1 -0.7,-0.1 -1,-0.1 -0.7,0 -1,-0.6 -0.7,-1.2 0,-0.1 0.1,-0.1 0.3,-0.1 0.1,0 0.3,0 0.4,0 5.7,0 11.3,0 17,0 0.9,0 0.9,0 0.9,0.9 0,1.2 0,2.2 0,3.4 0,0.1 -0.1,0.4 -0.1,0.6 -0.3,-0.1 -0.6,-0.1 -0.7,-0.3 -0.1,0 -0.1,-0.3 -0.1,-0.4 -0.6,-1.5 -1.6,-2.4 -3.3,-2.4 -2.2,0 -4.3,0 -6.6,0 0.1,-0.1 0,-0.1 -0.2,-0.1 z"
       id="path67"
       inkscape:connector-curvature="0"
       style="fill:#ffffff" /><path
       d="m 439.8,411.3 c 0.4,-0.6 1.3,-0.7 2.1,-0.3 0.7,0.4 1,1 1.5,1.8 0,0.1 -0.1,0.3 0,0.4 0,0.1 0.1,0.4 0.3,0.4 0.1,0 0.4,-0.1 0.4,-0.1 0,-0.7 0.4,-0.9 1,-1 0,-0.7 0.3,-1.2 0.9,-1.5 0.7,-0.3 1.6,-0.1 2.2,0.4 1.5,1.2 1,3.9 -0.3,4.8 -0.6,0.3 -0.6,0.3 -0.1,0.9 0.1,0.1 0.1,0.3 0.1,0.4 -0.1,0 -0.3,-0.1 -0.4,-0.1 -0.4,-0.3 -0.7,-0.1 -1,0.1 -0.3,0.4 -0.3,0.7 0.1,1 0.7,0.4 0.9,1 0.7,1.9 0,0.6 0,1 -0.1,1.6 -0.1,1.6 -0.3,3.4 -0.4,5.1 -0.1,0.9 -0.1,1.9 -0.4,2.8 -0.1,0.7 -0.6,1.3 -1.2,1.8 -0.7,0.4 -1,1.2 -0.9,2.1 0,0.3 0.1,0.3 0.4,0.3 0.3,0 0.4,0 0.7,0.1 0.6,0.1 0.7,0.1 0.7,0.9 0,0.3 -0.1,0.7 0.4,0.9 0.1,0 0.1,0.3 0.1,0.4 0,0.3 0.1,0.6 0.1,0.9 0,0.4 0.1,0.7 0.4,1.2 0.3,0.3 0.3,0.9 0.3,1.3 0.1,0.9 0.1,0.9 -0.9,1.2 -1.5,0.3 -3.1,0.4 -4.8,0.3 -0.9,-0.1 -1.9,-0.3 -2.8,-0.4 -0.4,0 -0.6,-0.1 -0.4,-0.7 0.1,-0.3 0,-0.6 0.1,-0.9 0.1,-0.4 0.1,-0.7 0.4,-1 0.3,-0.3 0.1,-0.9 0.1,-1.3 0,-0.1 0,-0.3 0,-0.6 0,-0.1 0.1,-0.3 0.1,-0.3 0.6,0 0.4,-0.4 0.4,-0.9 0,-0.7 0.1,-0.9 1,-0.9 0.3,0 0.7,0 0.7,-0.1 0.1,-0.4 0.1,-0.9 0,-1.2 -0.1,-0.4 -0.4,-0.7 -0.7,-1 -1,-0.6 -1.3,-1.6 -1.5,-2.7 -0.1,-1.3 -0.3,-2.8 -0.4,-4.2 -0.1,-1 -0.1,-2.2 -0.1,-3.3 0,-0.6 -0.1,-1.2 0,-1.8 0.1,-1 0.9,-1.3 1.8,-1.5 0.3,0 0.4,-0.1 0.7,-0.1 1.1,-3 1.4,-5.5 -1.3,-7.1 z m 6.4,2.2 0,0 c -0.3,0.1 -0.4,0 -0.6,0 -0.6,-0.3 -0.9,-0.1 -1.2,0.4 -0.1,0.3 -0.1,0.4 -0.1,0.7 0,1.2 -0.1,2.2 0.3,3.4 0.3,0 0.7,0.1 0.9,0.1 0.4,-0.6 0.7,-1 1,-1.5 -0.3,-0.1 -0.7,-0.3 -1,-0.3 l 0,-0.1 c 0.1,0 0.3,0 0.4,0 0.6,0.1 1.2,0 1.6,-0.4 0.7,-0.7 1,-2.1 0.6,-3 -0.4,-0.9 -1.5,-1.5 -2.2,-1 -0.3,0.1 -0.4,0.4 -0.6,0.7 0,0.3 0.3,0.4 0.4,0.7 0.4,0.1 0.5,0.1 0.5,0.3 z"
       id="path69"
       inkscape:connector-curvature="0"
       style="fill:#ffffff" /><path
       d="m 506.1,416.8 c 0.7,0.9 1.3,1.9 2.1,2.8 0.1,0.1 0,0.3 0,0.4 0,4.9 0,9.7 0,14.6 0,0.6 0,1.2 0.1,1.8 0.3,1.2 1.2,1.9 2.4,2.1 0.6,0 0.9,0.9 0.6,1.3 0,0.1 -0.3,0.1 -0.4,0.1 -2.5,0 -5.2,0 -7.8,0 -0.3,0 -0.4,-0.1 -0.4,-0.4 0,-0.7 0,-0.9 0.9,-0.9 1.2,-0.1 2.2,-1.2 2.4,-2.7 0,-0.4 0,-0.7 0,-1.2 0,-5.8 0,-11.5 0,-17.3 0,-0.2 0,-0.3 0.1,-0.6 0,0.1 0,0.1 0,0 z"
       id="path71"
       inkscape:connector-curvature="0"
       style="fill:#ffffff" /><path
       d="m 497.3,424.8 c 0,1.2 0,2.5 0,3.7 0,0.1 -0.1,0.4 -0.3,0.4 -0.3,0 -0.6,0 -0.9,-0.1 -0.1,-0.1 -0.3,-0.4 -0.3,-0.7 -0.6,-1.8 -1.6,-2.5 -3.4,-2.5 -0.6,0 -1,0 -1.6,0 -0.4,0 -0.7,-0.1 -0.7,-0.6 0,-0.5 0.3,-0.4 0.6,-0.4 0.6,0 1.2,0 1.8,0 1.6,0 2.7,-0.7 3.1,-2.2 0.1,-0.3 0.1,-0.6 0.3,-0.9 0.1,-0.1 0.3,-0.4 0.4,-0.4 0.6,-0.1 0.9,0 0.9,0.6 0.3,0.9 0.3,1.9 0.1,3.1 0.2,0 0.2,0 0,0 z"
       id="path73"
       inkscape:connector-curvature="0"
       style="fill:#ffffff" /></g><path
     style="overflow:visible;fill:#ffffff"
     inkscape:connector-curvature="0"
     id="path94"
     d="m 582.84252,424.81623 0,-17.90885 5.2458,0 c 7.28864,0 9.95357,4.70944 9.95357,8.95484 0,4.24792 -2.66493,8.95401 -9.95357,8.95401 l -5.2458,0 z m 22.64773,-8.95401 c 0,-9.32726 -6.70857,-15.6651 -17.82227,-15.6651 l -7.57447,0 c -3.61489,0 -4.48918,1.91842 -4.48918,4.42195 l 0,22.52666 c 0,2.41862 0.87429,4.37318 4.48918,4.37318 l 7.57447,0 c 11.12211,0 17.83068,-6.32774 17.83068,-15.65669 m -41.68057,-3.62498 0,-8.48407 c 0,-2.29336 0.91634,-3.75444 5.65773,-3.75444 0.58847,0 1.09288,0.0437 1.68134,0.1261 l 0,27.83467 c 0,2.28663 -0.92473,3.74352 -5.67454,3.74352 -0.58006,0 -1.08447,-0.0403 -1.66453,-0.12106 l 0,-12.64119 -14.78743,0 0,9.01873 c 0,2.28663 -0.91633,3.74352 -5.66614,3.74352 -0.58006,0 -1.08447,-0.0403 -1.66452,-0.12106 l 0,-27.82879 c 0,-2.29336 0.91633,-3.75444 5.66612,-3.75444 0.58007,0 1.07607,0.0437 1.66454,0.1261 l 0,12.11241 14.78743,0 z" /></svg>