<svg height="4.630314mm" viewBox="0 0 53.8575 16.406626" width="15.199783mm" xmlns="http://www.w3.org/2000/svg" xmlns:xlink="http://www.w3.org/1999/xlink"><linearGradient id="a" gradientTransform="matrix(0 -9.6754198 9.6754198 0 488.90403 674.17539)" gradientUnits="userSpaceOnUse" spreadMethod="pad" x1="0" x2="1" y1="0" y2="0"><stop offset="0" stop-color="#af6773"/><stop offset=".104411" stop-color="#c9747a"/><stop offset=".898134" stop-color="#c9747a"/><stop offset=".999673" stop-color="#d49093"/><stop offset="1" stop-color="#d49093"/></linearGradient><linearGradient id="b" gradientTransform="matrix(0 9.8377168 9.8377168 0 479.9999 664.4158)" gradientUnits="userSpaceOnUse" spreadMethod="pad" x1="0" x2="1" y1="0" y2="0"><stop offset="0" stop-color="#b4b2b1"/><stop offset=".020448" stop-color="#e8e8e9"/><stop offset=".0524045" stop-color="#f9f9fa"/><stop offset=".487663" stop-color="#f5f5f5"/><stop offset=".895488" stop-color="#f9f9fa"/><stop offset=".929442" stop-color="#f4f3f4"/><stop offset=".964262" stop-color="#e8e8e9"/><stop offset="1" stop-color="#b4b2b1"/></linearGradient><linearGradient id="c" gradientTransform="matrix(0 -9.6754198 9.6754198 0 488.90403 674.17539)" gradientUnits="userSpaceOnUse" spreadMethod="pad" x1="0" x2="1" y1="0" y2="0"><stop offset="0" stop-color="#810a32"/><stop offset=".104411" stop-color="#a90e3a"/><stop offset=".898134" stop-color="#a90e3a"/><stop offset=".999673" stop-color="#b94556"/><stop offset="1" stop-color="#b94556"/></linearGradient><linearGradient id="d" gradientTransform="matrix(0 9.8377168 9.8377168 0 479.9999 664.4158)" gradientUnits="userSpaceOnUse" spreadMethod="pad" x1="0" x2="1" y1="0" y2="0"><stop offset="0" stop-color="#888685"/><stop offset=".020448" stop-color="#d9d9da"/><stop offset=".0524045" stop-color="#f5f5f6"/><stop offset=".487663" stop-color="#eeefef"/><stop offset=".895488" stop-color="#f5f5f6"/><stop offset=".929442" stop-color="#ebebec"/><stop offset=".964262" stop-color="#d9d9da"/><stop offset="1" stop-color="#888685"/></linearGradient><g transform="translate(-453.07126 -664.1589)"><path d="m505.51413 664.50015c.7625 0 1.03375.45 1.03375 1.19875 0-.74875-.27125-1.19875-1.03375-1.19875zm-34.255 0h34.255zm-16.77375 0c-.7625 0-1.03375.45-1.03375 1.19875v7.2775c0 .75.27125 1.2 1.03375 1.2h16.77375v-5.7575c-.9425.0712-1.87.15-2.77375.2375l-1.91875 4.28125c-.1975.43875-.46375.6325-.94125.6325-.0138 0-.0275 0-.04 0-.29375-.008-.52875-.0788-.64125-.13625l1.14375-2.415-1.24-1.945c-.60125.0813-1.1875.16625-1.75375.255l1.58625 2.3925c-.13375.0638-.4225.1425-.77125.1425-.53 0-.85625-.19625-1.10375-.58l-1.095-1.7225c-.105.0175-.20875.0362-.31125.0562v1.53625c0 .445-.175.7-1.0425.7-.115 0-.21625-.007-.31125-.0213v-1.94625c-.155.0325-.31.0662-.46.1.015.09.0238.18375.0238.2775 0 .82875-.5425 1.43375-1.64125 1.55375-.22.0238-.465.0325-.71875.0325-.66625 0-1.38375-.065-1.78-.11125-.02-.0887-.0362-.2-.0362-.2875 0-.06.002-.115.007-.16625-.425.19875-.78.40625-1.05875.62125-.725.6025-.74375 1.2625-.7675 1.39625-.065 0-.0888-.28625-.0888-.71375l.002-6.87c0-.79375.25875-1.0625.93125-1.0625.22875 0 .4575.12125.76125.12125h16.03875v-.2775h-16.77375zm11.79125 4.39375.44375.72625.3475-.81625c-.2675.0287-.53125.06-.79125.09m-9.06875 1.72c.14375.008.285.0125.4125.0125.4825 0 .635-.16125.64-.31625-.37.0975-.72.19875-1.0525.30375m48.30625 3.5625c.72625 0 1.00625-.4075 1.0325-1.0925-.0263.685-.30625 1.0925-1.0325 1.0925" fill="url(#d)"/><path d="m505.45126 674.44265c1.1325 0 1.4775-.70375 1.4775-1.4075v-7.46875c0-.70375-.345-1.4075-1.4775-1.4075h-50.9025c-1.1325 0-1.4775.70375-1.4775 1.4075v7.46875c0 .70375.345 1.4075 1.4775 1.4075zm-50.85-.095c-.7625 0-1.27875-.45-1.27875-1.19875v-7.69625c0-.74875.51625-1.19875 1.27875-1.19875h50.7975c.7625 0 1.27875.45 1.27875 1.19875v7.69625c0 .74875-.51625 1.19875-1.27875 1.19875z" fill="#a2a2a3"/><path d="m471.25913 664.50015v.2775h33.48625c.30375 0 .53125-.12125.76-.12125.6725 0 .93125.26875.93125 1.0625l.004 6.87c0 .4275-.025.71375-.0888.71375-.0238-.13375-.1125-.74625-.76875-1.39625-.37375-.35-.86375-.6725-1.45875-.97125l.40125 1.2725c-.1025.0413-.22625.0738-.37125.095-.145.02-.28625.0312-.425.0312-.1575 0-.31-.025-.4575-.0775-.14875-.0512-.25625-.1675-.3225-.35l-.3075-.935h-1.9775l-.26125.88125c-.0662.21125-.17875.345-.335.4-.1575.055-.32375.0812-.4975.0812-.115 0-.24625-.0113-.395-.0312-.1475-.0213-.27-.05-.3675-.0862l.88875-2.72125c-.48875-.10875-.99625-.21-1.525-.305l.2775 2.98875c-.0838.0312-.185.0612-.30375.0912-.11625.03-.24625.0463-.385.0463-.1925 0-.35625-.0338-.48875-.1s-.20625-.19125-.2175-.3725l-.13625-1.9625c-.025-.2925-.0475-.59625-.0675-.91125-.115-.0175-.23125-.035-.34875-.0525-.0687.29875-.1375.57875-.20875.8375l-.37125 1.5425c-.0913.36375-.37875.54625-.86125.54625-.12125 0-.245-.0125-.37125-.0375-.12625-.0238-.23625-.05-.32625-.0813l-.46125-1.92625c-.0913-.3575-.17625-.7075-.255-1.05375-.0138-.0612-.0275-.12375-.0412-.185-.08-.009-.16125-.0175-.2425-.025-.01.175-.0213.34375-.0337.50625-.03.4025-.0575.74875-.08 1.04l-.14625 1.77125c-.0113.175-.0788.2975-.19875.36375-.12125.0662-.2775.1-.47125.1-.14 0-.26125-.0138-.36625-.0412-.10625-.0275-.19875-.0588-.2775-.0963l.3675-3.75625c-1.1075-.095-2.24875-.1725-3.41875-.2325v.54625h2.13c.0125.0612.0238.14125.0362.24125.0125.1.0175.2075.0175.3225 0 .24125-.0475.4075-.14375.495-.0962.0875-.21875.13125-.36375.13125h-1.67625v1.02625h2.43c.0112.0675.0225.16.035.2775.0125.11875.0188.235.0188.35 0 .26-.0512.4425-.155.545-.10125.10375-.23125.15375-.38875.15375h-2.60125c-.16875 0-.30625-.0175-.41125-.0538-.10625-.0362-.18875-.0862-.245-.15-.0575-.0638-.0975-.14-.1175-.23125-.0213-.0912-.0325-.1875-.0325-.29125v-3.42875c-.34875-.0138-.7025-.0263-1.05375-.0375v4.12125c-.085.0413-.1875.07-.30875.085-.12.0163-.23875.0238-.35375.0238-.2825 0-.495-.04-.63375-.11875-.13875-.0787-.25375-.1875-.345-.3275l-2.20125-3.52375v3.37c0 .16875-.0512.31125-.15375.42625-.1025.11625-.29625.17375-.58.17375-.12125 0-.23875-.008-.35375-.0188-.115-.0113-.21125-.0275-.28875-.045v-4.225c-.35375.003-.70375.006-1.0575.0113v3.64c0 .1775-.0537.32625-.1625.45-.1075.125-.31375.1875-.615.1875-.1275 0-.2525-.008-.37625-.0188-.125-.0113-.22875-.0275-.3125-.045v-4.185c-1.1725.0275-2.34125.0688-3.495.125-.11375.1325-.20625.28625-.27625.46125-.0788.20125-.1175.425-.1175.6725 0 .26125.0387.495.1175.7.0788.20625.185.38125.32125.5225.13625.1425.29875.2525.485.3275.18875.075.3875.11375.59875.11375.1325 0 .25-.01.35375-.0275.1025-.0188.19375-.0375.275-.055.0825-.0175.15875-.0362.2325-.0538.0713-.02.1475-.0287.225-.0287.44125 0 .63875.4025.59 1.20875-.2475.10375-.52375.1875-.82875.25375-.305.0675-.6125.1-.92.1-.42875 0-.825-.0762-1.1875-.23125-.3625-.15375-.67625-.3675-.94125-.64-.26625-.2725-.475-.59625-.62625-.9725-.15-.375-.22625-.78-.22625-1.2175 0-.36625.0563-.7125.16875-1.03875-.66125.0388-1.315.0838-1.96375.13125v5.7575h34.255c.72625 0 1.00625-.4075 1.0325-1.0925 0-.035.001-.0712.001-.1075v-7.2775c0-.74875-.27125-1.19875-1.03375-1.19875h-34.255zm13.625 5.59875v-2.04625c-.435-.009-.87125-.0163-1.31-.02zm10.03625-.85875c.075.3675.1425.74375.20375 1.1325h.0362c.0663-.38875.13625-.76375.2075-1.1275.0325-.1625.0662-.32.1-.47-.21875-.0288-.44-.055-.6625-.0825.0375.17375.075.35625.115.5475m6.0625.595h.1125c-.035-.009-.0687-.0175-.10375-.0275l-.009.0275z" fill="url(#c)"/><g fill="#fff"><path d="m476.03513 672.3884c-.42875 0-.825-.0775-1.1875-.23125-.3625-.155-.67625-.36875-.94125-.64125-.26625-.2725-.475-.59625-.62625-.97125-.15-.37625-.22625-.78125-.22625-1.2175 0-.42375.0763-.82125.22625-1.19.15125-.37.36-.69.62625-.9625.265-.2725.57875-.48625.94125-.64125.3625-.15375.75875-.23125 1.1875-.23125.30875 0 .6075.0338.8975.1s.55875.15125.80625.25375c.0537.80625-.1425 1.20875-.58875 1.20875-.0788 0-.15125-.009-.2175-.0275-.0675-.0175-.14-.0362-.2175-.055-.0788-.0175-.16625-.0362-.26375-.0538-.0962-.0187-.21125-.0275-.34375-.0275-.21125 0-.41125.0375-.5975.11375-.1875.0762-.35.185-.485.3275-.13625.14125-.24375.3125-.3225.5125-.0775.2-.1175.42375-.1175.6725 0 .26.04.49375.1175.7.0788.205.18625.38.3225.52125.135.1425.2975.25125.485.3275.18625.0762.38625.11375.5975.11375.1325 0 .25-.009.35375-.0275.1025-.0187.195-.0362.27625-.055.0812-.0175.15875-.0362.23125-.0538.0725-.0187.1475-.0275.22625-.0275.44125 0 .6375.4025.58875 1.20875-.2475.1025-.52375.1875-.82875.25375-.305.0662-.61125.1-.92.1"/><path d="m479.16213 672.31577c-.12625 0-.2525-.006-.37625-.0188-.12375-.0113-.2275-.0263-.3125-.045v-5.26c0-.175.055-.325.16375-.44875.10875-.125.31375-.18625.615-.18625.1275 0 .2525.006.37625.0175.12375.0125.22875.0275.3125.0462v5.25875c0 .17625-.0537.32625-.1625.45-.10875.12375-.31375.18625-.61625.18625"/><path d="m481.64038 672.31577c-.12125 0-.23875-.006-.35375-.0188-.115-.0113-.21125-.0263-.29-.045v-5.78625c.0913-.03.20875-.0562.35375-.0775s.26875-.0312.37125-.0312c.3325 0 .57375.0425.725.12625.15125.085.2775.21.38125.3725l2.05625 3.24375v-3.16125c0-.0788.01-.15375.0325-.2225.02-.07.0562-.1325.1075-.18625.0512-.055.1225-.0975.21375-.1275.09-.03.205-.045.34375-.045.12125 0 .2375.006.34875.0175.1125.0125.2075.025.28625.0362v5.79625c-.085.0425-.1875.0712-.30875.0862s-.23875.0225-.3525.0225c-.285 0-.49625-.0388-.635-.1175-.13875-.0788-.25375-.18875-.34375-.3275l-2.2025-3.525v3.37c0 .17-.0512.3125-.15375.4275-.1025.115-.29625.1725-.58.1725"/><path d="m488.07726 672.2794c-.16875 0-.30625-.0187-.4125-.055-.105-.0362-.1875-.0862-.245-.15-.0562-.0625-.0962-.14-.1175-.23125-.0213-.0913-.0312-.1875-.0312-.29v-4.45125c0-.10375.01-.2.0312-.29125.0213-.0913.0613-.1675.1175-.23125.0575-.0637.14-.11375.245-.15.10625-.0362.24375-.055.4125-.055h2.99875c.0125.0675.025.1575.0362.2725.0125.115.0188.23375.0188.355 0 .25375-.0512.43375-.15375.54-.10375.10625-.2325.15875-.39.15875h-1.84875v1.03625h2.13c.0112.06.0238.14.0362.24.0113.1.0175.2075.0175.3225 0 .2425-.0487.4075-.145.495-.0962.0888-.2175.1325-.3625.1325h-1.67625v1.02625h2.42875c.0125.0662.0238.15875.0362.2775.0113.1175.0175.23375.0175.34875 0 .26125-.0512.4425-.15375.545-.1025.10375-.2325.155-.39.155h-2.6"/><path d="m492.43301 672.31577c-.13875 0-.26125-.0138-.3675-.0412-.105-.0275-.1975-.0588-.27625-.095l.55375-5.66c.115-.0475.26625-.0875.45375-.1175.18625-.03.3475-.045.48-.045.1875 0 .34875.0113.48375.0362.13625.0237.2525.065.34875.1225.0975.0575.17375.1375.23125.24.0575.10375.10125.23125.13125.3825l.23625 1.09875c.0663.3025.13625.6375.2125 1.00375.075.36625.14375.74375.20375 1.13125h.0362c.0663-.3875.135-.76375.2075-1.12625.0725-.36375.14875-.69625.22625-1l .29-1.15375c.0725-.28375.18875-.4775.34875-.58125.15875-.1025.40875-.15375.74625-.15375.16875 0 .33875.0137.51125.04.17125.0275.315.0562.43.0862l.52875 5.69625c-.0838.03-.185.06-.30375.0912-.1175.03-.24625.045-.385.045-.1925 0-.35625-.0338-.48875-.1s-.205-.19125-.2175-.3725l-.13625-1.9625c-.03-.345-.0562-.70625-.0762-1.085-.0213-.37875-.035-.7375-.0413-1.07625h-.0187c-.0775.315-.1575.655-.24 1.02125-.0813.36625-.16375.705-.24875 1.01375l-.37125 1.54375c-.0913.36375-.3775.545-.86125.545-.12125 0-.245-.0125-.37125-.0362-.1275-.0237-.23625-.0512-.32625-.0812l-.4625-1.92625c-.09-.3575-.175-.70875-.25375-1.05375-.0787-.345-.15125-.69-.2175-1.03625h-.0263c-.0188.485-.0425.92875-.0725 1.33125-.0312.4025-.0575.75-.0825 1.04l-.145 1.77125c-.0112.17625-.0775.2975-.19875.36375-.12125.0662-.2775.1-.47125.1"/><path d="m500.98288 669.83577h1.35625l-.67625-2.225zm-1.41375 2.49875c-.115 0-.24625-.0113-.39375-.0325-.14875-.0213-.27-.05-.3675-.0862l1.88-5.75875c.16375-.0425.32875-.0738.49625-.0913.16625-.0187.31875-.0275.45875-.0275.2 0 .37.015.5125.045.1425.0312.2625.0762.36.13625.0962.0612.17625.14125.24.24125.0637.1.11625.21625.15875.35l1.61125 5.09625c-.1025.0425-.22625.0737-.37125.095s-.28625.0325-.425.0325c-.1575 0-.31-.0263-.45875-.0775-.1475-.0512-.255-.16875-.32125-.35l-.30875-.93625h-1.97625l-.26125.88125c-.0662.2125-.1775.34625-.335.4-.1575.055-.32375.0825-.49875.0825"/></g><path d="m459.60863 670.26427c0 .82875-.54125 1.43375-1.64125 1.55375-.7975.085-1.95125-.0163-2.49875-.0788-.02-.09-.0362-.20125-.0362-.28875 0-.725.3925-.89.75875-.89.38125 0 .9825.0662 1.42875.0662.49125 0 .64125-.16625.64125-.325 0-.20875-.19875-.295-.58-.3675l-1.04375-.20125c-.8675-.16625-1.33125-.76625-1.33125-1.40375 0-.775.54875-1.42375 1.6275-1.54375.815-.0875 1.8075.0125 2.3525.0788.02.0937.03.1825.03.27875 0 .7225-.38125.87875-.74875.87875-.28125 0-.72-.0525-1.21875-.0525-.50875 0-.72.14-.72.3125 0 .18.20125.255.52.31125l.99625.185c1.025.18875 1.46375.77 1.46375 1.48625m1.79.88875c0 .445-.175.70125-1.04125.70125-.115 0-.21625-.009-.3125-.0225v-5.89375c0-.4475.1525-.915 1.02875-.915.11 0 .22125.0113.325.0338v6.09625m3.545 2.28125c.11375.0575.3475.1275.64125.13625.5025.01.7775-.1825.98125-.63375l2.7025-6.0275c-.11125-.06-.3575-.12625-.56125-.13125-.34625-.006-.8125.065-1.11125.77625l-.875 2.065-1.71625-2.795c-.11-.0337-.38-.0825-.57875-.0825-.605 0-.94375.22375-1.295.605l-1.66875 1.82375 1.3425 2.1125c.2475.385.575.58125 1.105.58125.3475 0 .63625-.0788.77-.14375l-1.61625-2.43625 1.145-1.2125 1.87875 2.9475z" fill="#a90e3a"/><path d="m453.52788 665.7189-.002 6.87c0 .4275.0238.71375.0888.71375.0238-.13375.0425-.79375.7675-1.39625.27875-.215.63375-.4225 1.05875-.62125.0562-.585.41375-.72375.75125-.72375.2725 0 .65625.0337 1.01625.0525.3325-.105.6825-.20625 1.0525-.30375.001-.004.001-.005.001-.009 0-.20875-.2-.29375-.58-.36625l-1.04375-.2025c-.86875-.16625-1.3325-.76625-1.3325-1.40375 0-.775.54875-1.4225 1.6275-1.54375.23-.0238.47375-.0338.71625-.0338.6225 0 1.245.065 1.63625.1125.0213.0937.0312.1825.0312.28 0 .72125-.38125.8775-.74875.8775-.2825 0-.72-.0525-1.21875-.0525-.51 0-.72.14125-.72.3125 0 .18.20125.25625.51875.31125l.9975.185c.88875.16375 1.33625.6225 1.44 1.20875.15-.0338.305-.0675.46-.1v-3.9475c0-.4475.15125-.915 1.02875-.915.11 0 .22125.0113.325.0325v4.56125c.1025-.02.20625-.0388.31125-.0562l-.2475-.39125 1.66875-1.82375c.35-.38125.68875-.605 1.295-.605.19875 0 .46875.0488.57875.0825l1.27125 2.07c.26-.03.52375-.0613.79125-.09l.52875-1.25c.2875-.685.73125-.77625 1.07375-.77625.0125 0 .025 0 .0375.001.2025.005.44875.0712.56125.13l-.78375 1.7475c.90375-.0875 1.83125-.16625 2.77375-.2375v-3.64125h-16.03875c-.30375 0-.5325-.12125-.76125-.12125-.6725 0-.93125.26875-.93125 1.0625m9.53625 3.565.03.045c.56625-.0888 1.1525-.17375 1.75375-.255l-.63875-1.0025z" fill="url(#b)"/><path d="m504.74538 664.77765h-33.48625v3.64125c.64875-.0475 1.3025-.0925 1.96375-.13125.0188-.0512.0375-.10125.0575-.15125.15125-.36875.36-.68875.62625-.9625.265-.2725.57875-.48625.94125-.64s.75875-.2325 1.1875-.2325c.3075 0 .6075.0338.8975.10125.28875.0662.5575.15125.80625.25375.0538.805-.1425 1.20875-.58875 1.20875-.08 0-.15125-.01-.2175-.0275-.0675-.0175-.14-.0375-.21875-.055-.0775-.0187-.165-.0362-.26125-.0538-.0975-.0187-.2125-.0275-.345-.0275-.21125 0-.41.0375-.59875.11375-.18625.075-.34875.185-.485.32625-.015.0163-.0312.0338-.045.0512 1.15375-.0562 2.3225-.0975 3.495-.125v-1.075c0-.175.0537-.325.1625-.45.10875-.12375.31375-.185.61625-.185.12625 0 .25125.005.37625.0175.12375.0125.2275.0275.31125.045v1.61875c.35375-.005.70375-.009 1.0575-.0113v-1.5625c.0888-.0287.2075-.055.3525-.0762.145-.0213.26875-.0312.37125-.0312.3325 0 .57375.0412.725.12625.15125.085.2775.20875.38125.3725l.74625 1.17625c.43875.004.875.0113 1.31.02v-1.115c0-.0788.01-.1525.0312-.22125.0212-.07.0575-.13375.11-.1875.05-.0538.1225-.0963.2125-.12625.0913-.0312.205-.045.34375-.045.12125 0 .2375.005.34875.0175.1125.0125.2075.0238.28625.0362v1.675c.35125.0113.705.0237 1.05375.0375v-1.0225c0-.1025.0113-.2.0325-.29125.02-.09.06-.1675.1175-.23125.0562-.0638.13875-.11375.245-.15.105-.0362.2425-.0538.41125-.0538h3c .0125.0663.0237.1575.0362.2725.0112.11375.0187.2325.0187.35375 0 .255-.0525.435-.155.54-.1025.1075-.2325.16-.39.16h-1.84875v.48875c1.17.06 2.31125.1375 3.41875.2325l.1875-1.9025c.115-.0487.265-.0875.4525-.1175.18625-.0312.3475-.045.48-.045.18625 0 .34875.01.48375.035.13625.0237.2525.0662.35.1225.095.0575.17375.1375.23.24125.0575.1025.10125.23.1325.38125l.235 1.09875c.0312.14625.0638.2975.0975.45625.2225.0275.44375.0538.6625.0825.0413-.18625.0838-.36125.12625-.52875l.29-1.15375c.0725-.285.18875-.47875.3475-.58125.16-.10375.41-.15375.7475-.15375.16875 0 .34.0125.51.04.1725.0275.315.0562.43.0862l.2525 2.70625c.52875.095 1.03625.19625 1.525.305l.99125-3.03875c.165-.0425.32875-.0725.495-.09.16625-.02.32125-.0287.45875-.0287.20125 0 .37125.0162.515.0462.14125.03.26.075.35875.13625.0962.0613.17625.14125.24.24125.0637.1.11625.215.15875.34875l1.21 3.825c.595.29875 1.085.62125 1.45875.97125.65625.65.745 1.2625.76875 1.39625.0638 0 .0888-.28625.0888-.71375l-.004-6.87c0-.79375-.25875-1.0625-.93125-1.0625-.22875 0-.45625.12125-.76.12125m-3.75375 5.03c.035.01.0688.0188.10375.0275h1.24375l-.67625-2.225zm-7.58875-2.0975c-.0112.29-.0238.56375-.04.825.0812.007.1625.0162.2425.025-.0638-.28375-.12125-.5675-.17625-.85h-.0263zm3.37875.009c-.0788.315-.15875.65625-.23875 1.0225-.0138.0588-.0275.11875-.0413.17625.1175.0175.23375.035.34875.0525-.002-.0588-.006-.115-.009-.17375-.0213-.38-.035-.73875-.0412-1.0775h-.0188z" fill="url(#a)"/><g fill="#fff"><path d="m473.22388 668.28702c.0175-.05.0362-.1.0562-.15.15125-.36875.36-.69.62625-.9625.265-.2725.57875-.48625.94125-.64125.3625-.15375.75875-.23125 1.1875-.23125.30875 0 .6075.0338.8975.1s.55875.15125.80625.25375c.0537.80625-.1425 1.20875-.58875 1.20875-.0788 0-.15125-.009-.2175-.0275-.0675-.0175-.14-.0362-.2175-.0538-.0788-.0188-.16625-.0362-.26375-.055-.0962-.0175-.21125-.0275-.34375-.0275-.21125 0-.41125.0387-.5975.11375-.1875.0762-.35.185-.485.3275-.0163.0163-.0312.0338-.0462.05-.58875.0288-1.175.06-1.755.095"/><path d="m478.47338 668.0669v-1.075c0-.175.055-.325.16375-.44875.10875-.125.31375-.18625.615-.18625.1275 0 .2525.006.37625.0175.12375.0125.22875.0275.3125.0462v1.6175c-.48875.008-.97875.0175-1.4675.0288"/><path d="m486.21626 668.0864c-.4425-.0138-.885-.025-1.3325-.0338v-1.115c0-.0788.0113-.1525.0325-.2225.0212-.0688.0575-.13125.10875-.18625.0512-.0538.1225-.0963.2125-.1275.0913-.03.205-.045.345-.045.12 0 .23625.006.34875.0187.11125.0113.20625.0238.285.0362v1.675m-2.64375-.055c-.51-.005-1.02375-.007-1.53625-.007-.345 0-.69375.001-1.03875.004v-1.5625c.09-.03.2075-.055.3525-.0762.145-.0213.26875-.0325.37125-.0325.3325 0 .575.0425.725.1275.15125.085.27875.20875.38125.3725l.745 1.175"/><path d="m488.73876 668.18977c-.485-.025-.975-.0475-1.4675-.0662v-1.0225c0-.1025.01-.2.0312-.29.0213-.0912.06-.16875.1175-.2325.0575-.0625.13875-.1125.245-.14875.105-.0362.2425-.055.4125-.055h2.99875c.0125.0662.0238.1575.0362.2725.0125.115.0188.23375.0188.35375 0 .255-.0512.435-.155.54125-.1025.10625-.2325.15875-.38875.15875h-1.84875v.48875"/><path d="m498.17163 669.18965c-.42875-.0775-.86875-.15-1.32-.22-.004-.0575-.007-.115-.01-.17375-.0213-.37875-.035-.7375-.0412-1.07625h-.0175c-.0787.315-.15875.655-.24125 1.02125-.0125.06-.0263.11875-.04.17625-.3375-.0488-.68375-.0962-1.03375-.1425.0413-.185.0838-.36125.12625-.52875l.29-1.15375c.0725-.285.18875-.47875.34875-.58125.15875-.1025.40875-.15375.74625-.15375.16875 0 .33875.0125.51125.04.17125.0275.315.0562.43.0862l.25125 2.70625m-3.36625-.4975c-.39375-.0462-.79375-.0912-1.2-.1325-.0625-.28375-.12125-.56625-.17625-.85h-.0263c-.0112.29-.0238.565-.0387.825-.3975-.04-.8-.0775-1.20625-.1125l.18625-1.9025c.11375-.0475.265-.0875.4525-.1175s.3475-.045.48-.045c.1875 0 .34875.0112.48375.0362.13625.0237.2525.065.35.1225.0962.0575.1725.1375.23.24.0575.10375.10125.23.13125.38125l.23625 1.1c.0312.145.0638.29625.0975.455"/><path d="m504.12388 670.93502c-.82375-.41375-1.845-.77875-3.02875-1.09875h1.24375l-.67625-2.22625-.67125 2.1975c-.4125-.11-.84625-.215-1.295-.31375l.9925-3.0375c.1625-.0425.32875-.0725.495-.0913.16625-.0175.32-.0263.45875-.0263.2 0 .37125.015.51375.045.14125.03.26125.0762.35875.13625.0962.0612.17625.14125.24.24125.0637.1.1175.21625.16.34875l1.20875 3.825"/></g><path d="m455.44051 671.28415c.0562-.58375.41375-.72375.75125-.72375.2725 0 .65625.0338 1.01625.0538-.67625.2125-1.27.43625-1.7675.67m2.82-.97375c0-.004 0-.006 0-.009 0-.2075-.19875-.295-.58-.3675l-1.0425-.2c-.86875-.1675-1.33125-.7675-1.33125-1.405 0-.775.5475-1.42375 1.62625-1.5425.23-.025.4725-.035.71625-.035.6225 0 1.245.065 1.63625.1125.02.0937.0312.1825.0312.28 0 .7225-.38125.8775-.74875.8775-.2825 0-.72-.0525-1.22-.0525-.50875 0-.72.14125-.72.3125 0 .18.20125.255.52.31125l.9975.185c.8875.16375 1.33625.6225 1.44 1.20875-.465.10375-.90625.2125-1.325.32375m1.785-.425v-3.9475c0-.4475.15125-.915 1.0275-.915.11125 0 .2225.0125.325.0337v4.56125c-.4675.0863-.91875.175-1.3525.2675m1.665-.325-.2475-.39 1.6675-1.82375c.35125-.38125.69125-.605 1.295-.605.19875 0 .46875.0487.58.0825l1.27125 2.07c-.48625.0575-.96125.1175-1.42875.18l-.63875-1.0025-1.145 1.2125.0288.045c-.47375.0738-.935.15125-1.3825.23125m5.35625-.75625.53-1.25c.2875-.68625.73125-.77625 1.07375-.77625h.0375c.2025.005.44875.0712.56125.13125l-.78375 1.7475c-.47875.0462-.9525.0962-1.41875.1475" fill="#c9747a"/><g fill="#070707"><path d="m471.36488 680.54327c-.255 0-.49125-.0462-.70875-.1375-.2175-.0925-.40625-.22125-.56625-.38625-.15875-.165-.28375-.36125-.37375-.59s-.135-.47875-.135-.74875c0-.2625.045-.50875.135-.7375s.215-.4275.37375-.59625c.16-.16875.34875-.30125.56625-.39625.2175-.0963.45375-.14375.70875-.14375.19125 0 .37375.0188.54875.0563.17375.0375.34.0875.4975.15125.004.0263.007.05.009.0713.002.02.002.0412.002.0638 0 .12-.0262.21375-.0787.28125s-.1175.10125-.19625.10125c-.0375 0-.0788-.006-.12375-.0225-.045-.015-.0975-.0312-.155-.05-.0587-.0187-.12625-.0362-.205-.0512-.0788-.015-.17125-.0225-.27625-.0225-.16125 0-.31125.0312-.45.0937-.13875.0612-.26.14875-.3625.26125-.10375.1125-.185.24875-.2425.4075-.0587.16-.0875.3375-.0875.5325 0 .2025.0288.38375.0875.5425.0575.16.13875.295.2425.405.1025.11125.22375.195.3625.25125.13875.0563.28875.0838.45.0838.105 0 .19625-.007.2725-.0225.0775-.015.14375-.0312.2-.05.0563-.0187.105-.0362.14625-.0512.0412-.015.0825-.0225.12375-.0225.0937 0 .16875.0312.225.0937.0563.0613.085.1525.085.2725v.0725c0 .0225-.004.0488-.0113.0788-.1575.0675-.32125.12-.49.155-.16875.0362-.36.0538-.57375.0538"/><path d="m474.49376 680.00302c.1575 0 .30625-.035.445-.10375.13875-.07.26-.165.365-.285s.1875-.2625.2475-.4275.09-.34125.09-.52875-.0288-.3625-.0863-.52625c-.0587-.1625-.13875-.30375-.2425-.4225-.10375-.1175-.22375-.21-.3625-.2775s-.28875-.10125-.45-.10125c-.15875 0-.30625.0325-.445.0975-.13875.0663-.26.1575-.3625.27625-.10375.1175-.185.2575-.245.41875s-.09.3375-.09.53c0 .195.0288.375.0863.54.0587.165.13875.3075.2425.4275s.22375.21375.3625.28125.2875.10125.445.10125m.006.5625c-.2675 0-.51125-.05-.7325-.14875-.22125-.1-.41-.23625-.5675-.41125-.15875-.17375-.28125-.37625-.36875-.6075-.0888-.23125-.1325-.47875-.1325-.745 0-.26375.0437-.51.1325-.74.0875-.23125.21-.43125.36875-.6.1575-.16875.34625-.30125.5675-.4.22125-.0975.465-.14625.7325-.14625.26625 0 .51.0488.73125.14625.22125.0987.41.23125.5675.4.15875.16875.28125.3675.36875.59625.0888.22875.1325.47625.1325.74375 0 .26625-.0437.51375-.1325.745-.0875.23125-.21.43375-.36875.6075-.1575.175-.34625.31125-.5675.41125-.22125.0987-.465.14875-.73125.14875"/><path d="m476.947 680.52077c-.0638 0-.11875-.006-.16625-.02-.0462-.0125-.0875-.0275-.12125-.0425l.3725-3.56125c.0525-.0225.12125-.0412.205-.0538.0837-.0137.15625-.02.21625-.02.1675 0 .29625.025.38375.0763.0875.05.14625.14.17625.2675l.62 2.4475.62375-2.43125c.03-.1275.09-.21875.18-.275.09-.0562.21375-.085.37125-.085.075 0 .15125.006.23.0175.0788.0113.145.0237.1975.0387l.3525 3.57875c-.0375.015-.0813.03-.1325.0425-.0513.0137-.1075.02-.17125.02-.0863 0-.1575-.015-.21375-.045-.0562-.03-.0887-.0863-.0962-.16875l-.23875-2.8925-.6875 2.56c-.03.105-.0813.1775-.155.2175-.0725.0388-.16625.0588-.27875.0588-.0563 0-.115-.004-.1775-.0113-.0613-.007-.1125-.0187-.15375-.0337l-.77625-2.79125-.26125 2.8975c-.007.0788-.04.13375-.0962.16375s-.12375.045-.2025.045"/><path d="m481.466 680.49252c-.13875 0-.2275-.0275-.2675-.0813-.0388-.055-.0588-.125-.0588-.21125v-3.0725c0-.0862.02-.15625.0588-.21125.04-.0538.12875-.0813.2675-.0813h1.89125c.007.03.0137.0712.0187.12375.006.0525.009.105.009.1575 0 .10875-.0238.185-.07.2275-.0475.0438-.10375.065-.17125.065h-1.37375v.97875h1.4525c.004.03.008.0688.0138.11625.005.0462.009.0962.009.14875 0 .105-.0225.1775-.065.21875-.0437.0425-.0962.0625-.16.0625h-1.25v.985h1.6375c.004.03.009.0688.0138.115.006.0475.009.0962.009.14875 0 .1125-.0225.1925-.0675.24-.045.0462-.10125.07-.16875.07h-1.7275z"/><path d="m484.60613 679.91852h.50125c.17625 0 .34125-.0275.4975-.0812.15625-.055.29125-.135.4075-.2425.11625-.10625.20875-.24125.27625-.4025s.10125-.35.10125-.5675c0-.195-.0337-.36875-.10125-.52125-.0675-.15125-.16-.27875-.27625-.3825s-.2525-.18125-.41-.23375-.32625-.0788-.50625-.0788h-.49zm-.30375.57375c-.13875 0-.2275-.0263-.2675-.0812-.0387-.055-.0587-.125-.0587-.21125v-3.0725c0-.0862.02-.15625.0587-.21125.04-.0538.12875-.0812.2675-.0812h.77125c.30375 0 .5775.0425.82125.12625.24375.085.45125.20625.62125.36375.17125.1575.3025.34625.395.5675.0913.22125.1375.47.1375.74375 0 .25875-.045.5-.135.725s-.22125.42125-.39375.58875c-.1725.16625-.3825.29875-.6275.39625-.24625.0975-.525.14625-.83625.14625h-.75375z"/><path d="m488.60713 680.5264c-.06 0-.11875-.002-.1775-.009-.0575-.005-.1025-.0125-.1325-.02v-1.5525l-1.3275-2.03125c.0525-.03.11375-.0525.18625-.0675.07-.015.135-.0225.19125-.0225.0975 0 .17875.0113.24375.0362.0662.0238.12125.0725.16625.14375l.87875 1.4125.87125-1.4075c.0412-.0713.09-.12.14625-.14625.0562-.0263.13-.0388.22-.0388.0525 0 .11375.006.18625.0188.07.0137.12875.035.17375.065l-1.305 2.03125v1.3225c0 .075-.0238.13875-.0713.18875-.0462.0512-.13.0762-.25.0762"/></g></g></svg>