<?xml version="1.0" encoding="UTF-8"?>
<!-- Generator: Adobe Illustrator 17.1.0, SVG Export Plug-In . SVG Version: 6.00 Build 0)  -->
<!DOCTYPE svg PUBLIC "-//W3C//DTD SVG 1.1//EN" "http://www.w3.org/Graphics/SVG/1.1/DTD/svg11.dtd">
<svg version="1.1" id="Layer_1" xmlns="http://www.w3.org/2000/svg" xmlns:xlink="http://www.w3.org/1999/xlink" x="0px" y="0px" viewBox="54.1 387.1 487.6 59.8" enable-background="new 54.1 387.1 487.6 59.8" xml:space="preserve">
<linearGradient id="SVGID_1_" gradientUnits="userSpaceOnUse" x1="751.8026" y1="809.9042" x2="751.8026" y2="769.2143" gradientTransform="matrix(-1.4908 0 0 -1.4908 1418.7323 1594.0479)">
	<stop offset="0" style="stop-color:#161E49"/>
	<stop offset="3.634360e-02" style="stop-color:#233166"/>
	<stop offset="0.8955" style="stop-color:#233166"/>
	<stop offset="1" style="stop-color:#161E49"/>
</linearGradient>
<path fill="url(#SVGID_1_)" d="M60.5,446.9c-4.8,0-6.4-2.8-6.4-7.5v-44.9c0-4.6,1.6-7.5,6.4-7.5h474.8c4.8,0,6.4,2.8,6.4,7.5v44.9  c0,4.6-1.6,7.5-6.4,7.5H60.5z"/>
<g>
	
		<linearGradient id="SVGID_2_" gradientUnits="userSpaceOnUse" x1="194.6" y1="769.5377" x2="194.6" y2="809.5377" gradientTransform="matrix(1.4908 0 0 -1.4908 0 1594.0479)">
		<stop offset="0" style="stop-color:#552327"/>
		<stop offset="7.388180e-02" style="stop-color:#C4202C"/>
		<stop offset="0.9114" style="stop-color:#C4202C"/>
		<stop offset="1" style="stop-color:#EF3C4B"/>
	</linearGradient>
	<rect x="164.4" y="387.1" fill="url(#SVGID_2_)" width="251.4" height="59.6"/>
</g>
<g opacity="0.4">
	<g>
		<path fill="#FFFFFF" d="M536.2,433c4,4,4.6,7.8,4.8,8.6c0.4,0,0.6-1.8,0.6-4.5v-42.3c0-4.9-1.6-6.6-5.8-6.6    c-1.3,0-2.8,0.7-4.6,0.7h-466c-1.9,0-3.3-0.7-4.6-0.7c-4.2,0-5.8,1.6-5.8,6.6v42.3c0,2.7,0.1,4.5,0.6,4.5c0.1-0.9,0.3-4.9,4.8-8.6    C95.7,405.6,497.8,397.1,536.2,433z"/>
	</g>
</g>
<path fill="#FFFFFF" d="M125.5,442.3c0.7,0.3,2.1,0.7,4,0.9c3.1,0,4.8-1.2,6.1-3.9l16.4-37.3c-0.7-0.3-2.2-0.7-3.4-0.7  c-2.1,0-5.1,0.4-6.9,4.8l-5.4,12.7l-10.6-17.3c-0.7-0.1-2.4-0.4-3.6-0.4c-3.7,0-5.8,1.3-8.1,3.7l-10.3,11.2l8.3,13  c1.5,2.4,3.6,3.6,6.9,3.6c2.1,0,3.9-0.4,4.8-0.9l-10-15.1l7-7.5l11.6,18.2L125.5,442.3z M103.6,428.2c0,2.7-1,4.3-6.4,4.3  c-0.7,0-1.3,0-1.9-0.1V396c0-2.8,0.9-5.7,6.4-5.7c0.7,0,1.3,0,1.9,0.1V428.2z M92.6,422.7c0,5.1-3.3,8.8-10.1,9.5  c-4.9,0.6-12.1-0.1-15.4-0.4c-0.1-0.6-0.1-1.2-0.1-1.8c0-4.5,2.4-5.5,4.6-5.5c2.4,0,6.1,0.4,8.8,0.4c3,0,3.9-1,3.9-1.9  c0-1.3-1.2-1.8-3.6-2.2l-6.4-1.3c-5.4-1-8.2-4.8-8.2-8.6c0-4.8,3.4-8.8,10-9.5c5.1-0.6,11.2,0,14.5,0.4c0.1,0.6,0.1,1.2,0.1,1.8  c0,4.5-2.4,5.4-4.6,5.4c-1.8,0-4.5-0.3-7.5-0.3c-3.1,0-4.5,0.9-4.5,1.9s1.2,1.6,3.1,1.9l6.3,1C89.9,414.7,92.6,418.3,92.6,422.7z"/>
<g>
	<path fill="#FFFFFF" d="M212,423.9c0-6.3-4-9.2-10.4-10.6l-11.2-2.5c-2.1-0.4-3.7-1-3.7-3.1c0-2.2,1.8-3.1,6.4-3.1   c5.5,0,6.9,0.3,11.9,0.3c2.4,0,4.8-1,4.8-5.7c0-0.6,0-1.2-0.1-1.8c-3.4-0.3-9.5-0.6-17-0.6c-11.3,0-15.7,4.9-15.7,11.2   c0,5.8,3.7,9.1,10.3,10.6l11.2,2.7c2.7,0.6,4,1.8,4,3.4c0,2.2-1.9,3.1-6.7,3.1c-5.5,0-8.1-0.4-13.1-0.4c-2.4,0-4.8,1-4.8,5.7   c0,0.6,0,1.2,0.1,1.8c3.4,0.3,10.7,0.7,18.2,0.7C207.4,435.3,212,430.5,212,423.9L212,423.9z"/>
	<path fill="#FFFFFF" d="M304.7,413.9v-9.5h8.9c3.9,0,6.9,0.6,6.9,4.5c0,3.3-2.2,4.9-6.9,4.9h-8.9V413.9z M304.6,421.4h4.8l9.1,10.9   c1.6,2.1,3.3,3.1,7.2,3.1c2.7,0,4.3-0.3,5.8-1l-11.8-13.7c6.7-1.5,10-5.7,10-12.1c0-7.9-4.8-11.6-14.5-11.6h-13.9   c-4.5,0.1-6,1.6-6,5.8v32.1c0.7,0.1,1.5,0.1,2.2,0.1c5.7,0,7-1.6,7-4.6V421.4z"/>
	<path fill="#FFFFFF" d="M225.3,414.8v-10.4h9.2c4.6,0,6.9,1.6,6.9,5.1c0,3.6-2.2,5.4-6.9,5.4H225.3z M216,434.8   c0.7,0.1,1.5,0.1,2.2,0.1c5.7,0,7-1.6,7-4.6v-7.8h9.7c10.4,0,15.7-4.5,15.7-13.1c0-8.2-5.2-12.7-15.1-12.7H222c-4.5,0-6,1.8-6,5.8   L216,434.8L216,434.8z"/>
	<path fill="#FFFFFF" d="M281.3,415.3c0,4.3-0.7,7.5-2.2,9.2c-1.5,1.9-3.7,2.7-6.9,2.7c-3.3,0-5.5-0.9-7-2.7s-2.2-4.8-2.2-9.2   c0-4.3,0.7-7.5,2.2-9.2s3.9-2.7,7-2.7c3.1,0,5.5,0.9,6.9,2.7C280.6,408,281.3,411,281.3,415.3L281.3,415.3z M272.2,434.8   c6,0,10.6-1.5,13.9-4.3c3.3-2.8,4.9-7.9,4.9-15.2c0-7.2-1.6-12.1-5.1-15.1c-3.3-2.8-7.9-4.3-13.6-4.3c-5.7,0-10.3,1.5-13.6,4.3   c-3.3,3-5.1,7.9-5.1,15.1c0,7.3,1.6,12.4,4.9,15.2C261.6,433.5,266.3,434.8,272.2,434.8L272.2,434.8z"/>
	<path fill="#FFFFFF" d="M353.9,404.7h7.5c2.4,0,4.9-1.2,4.9-6c0-0.6,0-1.2-0.1-1.8h-28.9c-2.4,0-4.9,1.2-4.9,6c0,0.6,0,1.2,0.1,1.8   h12.2v30.1c0.7,0.1,1.5,0.1,2.2,0.1c5.7,0,7-1.6,7-4.6V404.7z"/>
</g>
<path fill="#FFFFFF" d="M403.6,423.9c0-6.3-4-9.2-10.4-10.6l-11.2-2.5c-2.1-0.4-3.7-1-3.7-3.1c0-2.2,1.8-3.1,6.4-3.1  c5.5,0,6.9,0.3,11.9,0.3c2.4,0,4.8-1,4.8-5.7c0-0.6,0-1.2-0.1-1.8c-3.4-0.3-9.5-0.6-17-0.6c-11.3,0-15.7,4.9-15.7,11.2  c0,5.8,3.7,9.1,10.3,10.6l11.2,2.7c2.7,0.6,4,1.8,4,3.4c0,2.2-1.9,3.1-6.7,3.1c-5.5,0-8.1-0.4-13.1-0.4c-2.4,0-4.8,1-4.8,5.7  c0,0.6,0,1.2,0.1,1.8c3.4,0.3,10.7,0.7,18.2,0.7C399.1,435.3,403.6,430.5,403.6,423.9L403.6,423.9z"/>
<g>
	<path fill="#FFFFFF" d="M476.6,399.5c2.4,0,4.8,0,7.3,0c0-0.1,0-0.1,0-0.3c0-1.5,0-3.1,0-4.6c0-0.1,0-0.1,0-0.3c0-0.6-0.1-0.9-1-1   c-0.1,0-0.1,0-0.3,0c-0.4,0-0.6-0.4-0.4-0.9c0,0,0.1-0.1,0.3-0.1c0.7,0,1.3,0,2.1,0c1,0,2.2,0,3.3,0c0.1,0,0.3-0.1,0.4,0.1   c0,0.4,0,0.7-0.3,0.7c-0.1,0-0.4,0-0.6,0.1c-0.6,0.1-0.7,0.3-0.7,0.7c0,0.1,0,0.3,0,0.3c0,3.9,0,7.8,0,11.6v0.1   c0,0.6,0.3,0.9,0.9,0.9c0.1,0,0.1,0,0.3,0c0.4,0.1,0.7,0.3,0.6,0.9c0,0-0.1,0.1-0.3,0.1c-0.9,0-1.8,0-2.5,0c-0.9,0-1.8,0-2.8,0   c-0.1,0-0.3,0-0.4-0.1c0-0.4,0-0.7,0.3-0.7s0.4,0,0.7-0.1c0.6-0.1,0.7-0.3,0.7-0.9c0-1.9,0-3.9,0-5.8c0-0.1,0-0.1-0.1-0.1   c-2.4,0-4.6,0-7,0c0,0,0,0-0.1,0v0.1c0,1.9,0,3.9,0,5.8c0,0.7,0.3,0.9,0.9,1c0.1,0,0.3,0,0.4,0c0.1,0,0.3,0.1,0.3,0.3   c0.1,0.4,0,0.6-0.4,0.6c-1.8,0-3.4,0-5.2,0c-0.1,0-0.4,0-0.4-0.1c0-0.4,0-0.7,0.3-0.7s0.4,0,0.7-0.1c0.4-0.1,0.6-0.3,0.7-0.7   c0-0.1,0-0.3,0-0.4c0-3.9,0-7.8,0-11.5c0-0.9-0.1-1-1-1.2h-0.1c-0.4,0-0.6-0.4-0.4-0.9l0.1-0.1c0.1,0,0.3,0,0.4,0   c1.6,0,3.3,0,5.1,0c0.1,0,0.4-0.1,0.4,0.1s0,0.6-0.3,0.7c-0.3,0-0.6,0.1-0.7,0.1c-0.4,0.1-0.6,0.3-0.6,0.7   C476.6,395.9,476.6,397.5,476.6,399.5C476.6,399.3,476.6,399.3,476.6,399.5z"/>
	<path fill="#FFFFFF" d="M493.6,393.4c0,0.1,0,0.1,0,0.3c0,3.9,0,7.8,0,11.6c0,0.3,0,0.4,0,0.7c0.1,0.6,0.4,0.9,1,1   c1.3,0.3,2.8,0.3,4.2,0c0.6-0.1,0.9-0.4,1-0.9c0.1-0.3,0.1-0.4,0.3-0.7c0.1-0.1,0.1-0.3,0.3-0.4c0.4-0.1,0.7,0,0.6,0.4   c-0.1,0.7-0.3,1.6-0.4,2.4c-0.1,0.4-0.1,0.4-0.6,0.4c-3.4,0-7,0-10.4,0c-0.1,0-0.4,0.1-0.4-0.3c0-0.4,0.1-0.6,0.4-0.7   c0.1,0,0.4,0,0.6,0c0.4,0,0.6-0.3,0.7-0.7v-0.1c0-4.2,0-8.2,0-12.4c0-0.4-0.1-0.7-0.6-0.9c-0.1,0-0.3,0-0.6,0   c-0.4,0-0.7-0.3-0.6-0.7l0.1-0.1h0.1c3.4,0,6.7,0,10.1,0c0.4,0,0.4,0,0.6,0.4c0,0.6,0,1.3,0,1.9c0,0.1,0,0.3-0.1,0.3   c-0.1,0-0.3,0-0.4-0.1c-0.1,0-0.1-0.3-0.1-0.3c-0.3-0.9-0.9-1.3-1.8-1.3c-1.2,0-2.5,0-3.7,0C493.8,393.4,493.8,393.4,493.6,393.4z"/>
	<path fill="#FFFFFF" d="M465.9,393.1c0,0.1,0,0.1,0,0.3c0,4.2,0,8.5,0,12.7c0,0.7,0.3,1,1,1.2c0.6,0,0.7,0.1,0.7,0.7   c0,0.1-0.1,0.3-0.3,0.3c-0.6,0-1.2,0-1.9,0c-1.2,0-2.4,0-3.6,0c-0.1,0-0.4,0-0.4-0.3c0-0.4,0.1-0.6,0.4-0.7c0.3,0,0.4,0,0.7-0.1   c0.4-0.1,0.6-0.3,0.6-0.7c0-4.3,0-8.8,0-13.1v-0.1c-0.9,0-1.9,0-2.8,0.1c-0.7,0-1.2,0.6-1.6,1.2c-0.1,0.3-0.4,0.4-0.7,0.4   s-0.3,0-0.3-0.3c0.1-0.6,0.1-1.3,0.3-1.9c0-0.3,0.1-0.3,0.4-0.3c4,0,8.2,0,12.2,0c0.3,0,0.3,0.1,0.4,0.3c0.1,0.6,0.1,1.3,0.3,1.9   c0,0.1,0,0.3-0.3,0.3s-0.7-0.1-0.9-0.4c-0.4-0.9-1.2-1.3-2.2-1.3C467.4,393.1,466.6,393.1,465.9,393.1z"/>
	<path fill="#FFFFFF" d="M498.7,399.8c0,0.7,0,1.3,0,2.1c0,0.1,0,0.4-0.3,0.4c-0.3,0-0.4,0-0.6-0.3c-0.1-0.3-0.1-0.4-0.3-0.7   c-0.3-0.7-0.7-1-1.5-1c-0.3,0-0.6,0-0.9,0c-0.1,0-0.4,0-0.6,0c-0.3,0-0.4-0.1-0.4-0.4s0.1-0.4,0.4-0.4c0.4,0,0.9,0,1.5,0   c0.9,0,1.5-0.4,1.6-1.2c0.1-0.3,0.1-0.6,0.6-0.6c0.3,0,0.4,0,0.4,0.3s0,0.6,0,0.9C498.7,399.2,498.7,399.5,498.7,399.8L498.7,399.8   z"/>
</g>
<g>
	<path fill="#FFFFFF" d="M448.3,440.5c-0.1-0.4-0.1-0.7,0.1-0.9c2.8-1.8,4.5-4.5,5.5-7.6c1.6-5.4,1.6-10.6-0.1-15.8   c-1.2-3.3-3.3-5.8-6.7-7c-5.1-1.8-11.3,0-14,6.4c-0.9,2.1-1.2,4.3-1.5,6.6c-0.3,3.9,0.1,7.8,1.6,11.3c1,2.5,2.5,4.6,4.9,6.1   c0.3,0.1,0.4,0.4,0.3,0.9c-0.1,0-0.3,0-0.6-0.1c-6.1-2.1-9.8-6.3-11-12.5c-0.9-4.3-0.4-8.6,1.8-12.5c2.5-4.6,6.6-7.3,11.8-8.1   c4.2-0.7,8.2,0,11.9,2.2c4.2,2.5,6.6,6.1,7.6,10.9c0.9,4,0.4,8.1-1.3,11.8c-2.1,4.2-5.4,7-9.7,8.3   C448.6,440.3,448.4,440.3,448.3,440.5z"/>
	<path fill="#FFFFFF" d="M467.7,412.9c0,0.3,0,0.4,0,0.6c0,7.8,0,15.5,0,23.3c0,1.3,0.3,1.6,1.6,1.8c0.1,0,0.4,0,0.6,0.1   c0.3,0,0.6,0.3,0.6,0.6c0.1,0.7,0,0.9-0.7,0.9c-3,0-6,0-9.1,0c-0.3,0-0.6,0.1-0.6-0.3c0-0.6,0.1-1,0.6-1c0.3,0,0.7-0.1,1-0.1   c0.7,0,1.3-0.6,1.3-1.3c0-0.3,0-0.6,0-0.9c0-7.2,0-14.3,0-21.3c0-0.3,0-0.6,0-0.9c-0.1-0.7-0.6-1.2-1.2-1.2c-0.3,0-0.7,0-1-0.1   c-0.6,0-0.9-0.7-0.6-1.3c0-0.1,0.3-0.1,0.4-0.1c2.8,0,5.5,0,8.3,0c1.3,0,2.5,0,3.9,0.1c1.8,0.1,3.6,0.6,5.2,1.6   c2.7,1.8,3.6,4.3,3.3,7.5c-0.3,3.7-2.7,6-6.1,7c-1.9,0.6-3.9,0.7-5.8,0.6c-0.3,0-0.4-0.1-0.4-0.4s0.1-0.4,0.4-0.4   c1-0.1,2.1-0.1,3.1-0.3c2.2-0.6,3.6-2.1,4.2-4.3c0.4-1.8,0.4-3.6-0.1-5.4c-0.6-2.1-2.1-3.3-4.2-3.7   C470.9,413,469.3,413,467.7,412.9z"/>
	<path fill="#FFFFFF" d="M525.8,432.4c0-0.1,0-0.3,0-0.4c0-4.9,0-9.8,0-14.8c0-0.7,0-1.5-0.1-2.2c-0.1-1.5-0.7-2.1-2.2-2.2   c-0.7-0.1-0.9-0.3-0.9-1c0-0.3,0.1-0.4,0.3-0.4c2.7,0,5.4,0,7.9,0c0.3,0,0.3,0.1,0.3,0.4c0,0.7-0.1,0.9-0.9,1   c-1.5,0.1-1.9,0.6-2.2,2.1c-0.1,0.9-0.1,1.8-0.1,2.5c0,7.3,0,14.6,0,21.9c0,0.7,0,0.6-0.7,0.7c-0.7,0-1.2-0.3-1.5-0.7   c-1.2-1.6-2.5-3.3-3.7-5.1c-4.8-6.6-9.5-13-14.3-19.5c-0.9-1.2-1.9-1.9-3.4-2.1c-0.7,0-0.9-0.4-0.9-1.2c0-0.1,0.1-0.3,0.3-0.3   c2.1,0,4,0,6.1,0c0.6,0,0.9,0.4,1,0.9c1.2,1.5,2.2,3.1,3.4,4.6c3.7,5.1,7.5,10.1,11.2,15.2C525.5,432.1,525.7,432.3,525.8,432.4   L525.8,432.4z"/>
	<path fill="#FFFFFF" d="M488.5,413c0,0.3,0,0.4,0,0.6c0,6.9,0,13.9,0,20.7c0,0.4,0,0.7,0,1.2c0.1,1.3,0.9,2.2,2.2,2.4   c2.1,0.4,4.2,0.4,6.3,0c1-0.1,1.9-0.7,2.2-1.8c0.1-0.4,0.3-0.7,0.4-1.2c0.1-0.1,0.1-0.4,0.3-0.4c0.3-0.1,0.7-0.1,1-0.3   c0,0.3,0.1,0.4,0,0.7c-0.1,1.3-0.4,2.8-0.7,4.2c-0.1,0.7-0.3,0.7-0.9,0.7c-6,0-12.1,0-18,0c-0.3,0-0.6,0.1-0.6-0.3   c0-0.6,0.1-1,0.6-1c0.3,0,0.6,0,1-0.1c0.7-0.1,1.3-0.6,1.3-1.3c0-0.1,0-0.4,0-0.7c0-7.3,0-14.6,0-21.8c0-1.2-0.3-1.8-1-1.9   c-0.3-0.1-0.7-0.1-1-0.1c-0.7,0-1-0.6-0.7-1.2c0-0.1,0.1-0.1,0.3-0.1c0.1,0,0.3,0,0.4,0c5.7,0,11.3,0,17,0c0.9,0,0.9,0,0.9,0.9   c0,1.2,0,2.2,0,3.4c0,0.1-0.1,0.4-0.1,0.6c-0.3-0.1-0.6-0.1-0.7-0.3c-0.1,0-0.1-0.3-0.1-0.4c-0.6-1.5-1.6-2.4-3.3-2.4   c-2.2,0-4.3,0-6.6,0C488.8,413,488.7,413,488.5,413z"/>
	<path fill="#FFFFFF" d="M439.8,411.3c0.4-0.6,1.3-0.7,2.1-0.3c0.7,0.4,1,1,1.5,1.8c0,0.1-0.1,0.3,0,0.4c0,0.1,0.1,0.4,0.3,0.4   c0.1,0,0.4-0.1,0.4-0.1c0-0.7,0.4-0.9,1-1c0-0.7,0.3-1.2,0.9-1.5c0.7-0.3,1.6-0.1,2.2,0.4c1.5,1.2,1,3.9-0.3,4.8   c-0.6,0.3-0.6,0.3-0.1,0.9c0.1,0.1,0.1,0.3,0.1,0.4c-0.1,0-0.3-0.1-0.4-0.1c-0.4-0.3-0.7-0.1-1,0.1c-0.3,0.4-0.3,0.7,0.1,1   c0.7,0.4,0.9,1,0.7,1.9c0,0.6,0,1-0.1,1.6c-0.1,1.6-0.3,3.4-0.4,5.1c-0.1,0.9-0.1,1.9-0.4,2.8c-0.1,0.7-0.6,1.3-1.2,1.8   c-0.7,0.4-1,1.2-0.9,2.1c0,0.3,0.1,0.3,0.4,0.3c0.3,0,0.4,0,0.7,0.1c0.6,0.1,0.7,0.1,0.7,0.9c0,0.3-0.1,0.7,0.4,0.9   c0.1,0,0.1,0.3,0.1,0.4c0,0.3,0.1,0.6,0.1,0.9c0,0.4,0.1,0.7,0.4,1.2c0.3,0.3,0.3,0.9,0.3,1.3c0.1,0.9,0.1,0.9-0.9,1.2   c-1.5,0.3-3.1,0.4-4.8,0.3c-0.9-0.1-1.9-0.3-2.8-0.4c-0.4,0-0.6-0.1-0.4-0.7c0.1-0.3,0-0.6,0.1-0.9c0.1-0.4,0.1-0.7,0.4-1   c0.3-0.3,0.1-0.9,0.1-1.3c0-0.1,0-0.3,0-0.6c0-0.1,0.1-0.3,0.1-0.3c0.6,0,0.4-0.4,0.4-0.9c0-0.7,0.1-0.9,1-0.9c0.3,0,0.7,0,0.7-0.1   c0.1-0.4,0.1-0.9,0-1.2c-0.1-0.4-0.4-0.7-0.7-1c-1-0.6-1.3-1.6-1.5-2.7c-0.1-1.3-0.3-2.8-0.4-4.2c-0.1-1-0.1-2.2-0.1-3.3   c0-0.6-0.1-1.2,0-1.8c0.1-1,0.9-1.3,1.8-1.5c0.3,0,0.4-0.1,0.7-0.1C442.2,415.4,442.5,412.9,439.8,411.3z M446.2,413.5L446.2,413.5   c-0.3,0.1-0.4,0-0.6,0c-0.6-0.3-0.9-0.1-1.2,0.4c-0.1,0.3-0.1,0.4-0.1,0.7c0,1.2-0.1,2.2,0.3,3.4c0.3,0,0.7,0.1,0.9,0.1   c0.4-0.6,0.7-1,1-1.5c-0.3-0.1-0.7-0.3-1-0.3v-0.1c0.1,0,0.3,0,0.4,0c0.6,0.1,1.2,0,1.6-0.4c0.7-0.7,1-2.1,0.6-3   c-0.4-0.9-1.5-1.5-2.2-1c-0.3,0.1-0.4,0.4-0.6,0.7c0,0.3,0.3,0.4,0.4,0.7C446.1,413.3,446.2,413.3,446.2,413.5z"/>
	<path fill="#FFFFFF" d="M506.1,416.8c0.7,0.9,1.3,1.9,2.1,2.8c0.1,0.1,0,0.3,0,0.4c0,4.9,0,9.7,0,14.6c0,0.6,0,1.2,0.1,1.8   c0.3,1.2,1.2,1.9,2.4,2.1c0.6,0,0.9,0.9,0.6,1.3c0,0.1-0.3,0.1-0.4,0.1c-2.5,0-5.2,0-7.8,0c-0.3,0-0.4-0.1-0.4-0.4   c0-0.7,0-0.9,0.9-0.9c1.2-0.1,2.2-1.2,2.4-2.7c0-0.4,0-0.7,0-1.2c0-5.8,0-11.5,0-17.3C506,417.2,506,417.1,506.1,416.8   C506.1,416.9,506.1,416.9,506.1,416.8z"/>
	<path fill="#FFFFFF" d="M497.3,424.8c0,1.2,0,2.5,0,3.7c0,0.1-0.1,0.4-0.3,0.4c-0.3,0-0.6,0-0.9-0.1c-0.1-0.1-0.3-0.4-0.3-0.7   c-0.6-1.8-1.6-2.5-3.4-2.5c-0.6,0-1,0-1.6,0c-0.4,0-0.7-0.1-0.7-0.6s0.3-0.4,0.6-0.4c0.6,0,1.2,0,1.8,0c1.6,0,2.7-0.7,3.1-2.2   c0.1-0.3,0.1-0.6,0.3-0.9c0.1-0.1,0.3-0.4,0.4-0.4c0.6-0.1,0.9,0,0.9,0.6C497.5,422.6,497.5,423.6,497.3,424.8   C497.5,424.8,497.5,424.8,497.3,424.8z"/>
</g>
</svg>