<?xml version="1.0" encoding="UTF-8" standalone="no"?>
<svg
   xmlns:dc="http://purl.org/dc/elements/1.1/"
   xmlns:cc="http://creativecommons.org/ns#"
   xmlns:rdf="http://www.w3.org/1999/02/22-rdf-syntax-ns#"
   xmlns:svg="http://www.w3.org/2000/svg"
   xmlns="http://www.w3.org/2000/svg"
   xmlns:sodipodi="http://sodipodi.sourceforge.net/DTD/sodipodi-0.dtd"
   xmlns:inkscape="http://www.inkscape.org/namespaces/inkscape"
   viewBox="0 0 830.45999 120"
   version="1.1"
   id="svg30"
   sodipodi:docname="Sky Sports Premier League HD.svg"
   width="830.46002"
   height="120"
   inkscape:version="0.92.0 r15299">
  <metadata
     id="metadata36">
    <rdf:RDF>
      <cc:Work
         rdf:about="">
        <dc:format>image/svg+xml</dc:format>
        <dc:type
           rdf:resource="http://purl.org/dc/dcmitype/StillImage" />
        <dc:title />
      </cc:Work>
    </rdf:RDF>
  </metadata>
  <defs
     id="defs34">
    <linearGradient
       y2="-27.096001"
       x2="99.850998"
       y1="138.674"
       x1="99.850998"
       gradientUnits="userSpaceOnUse"
       id="b-3"
       gradientTransform="matrix(-0.99999998,0,0,0.99999998,830.45971,6.694327e-7)">
      <stop
         id="stop19-4"
         stop-color="#00043b"
         offset="0" />
      <stop
         id="stop21"
         stop-color="#002672"
         offset="1" />
    </linearGradient>
    <linearGradient
       gradientTransform="rotate(180,-4107.903,-2290.35)"
       y2="-4553.606"
       x2="-8599.1621"
       y1="-4719.377"
       x1="-8599.1621"
       gradientUnits="userSpaceOnUse"
       id="a">
      <stop
         id="stop10"
         stop-color="#a80002"
         offset="0" />
      <stop
         id="stop12"
         stop-color="#ea021a"
         offset="1" />
    </linearGradient>
    <linearGradient
       y2="-27.096001"
       x2="99.850998"
       y1="138.674"
       x1="99.850998"
       gradientUnits="userSpaceOnUse"
       id="b">
      <stop
         id="stop17"
         stop-color="#00043b"
         offset="0" />
      <stop
         id="stop19"
         stop-color="#002672"
         offset="1" />
    </linearGradient>
  </defs>
  <sodipodi:namedview
     pagecolor="#ffffff"
     bordercolor="#666666"
     borderopacity="1"
     objecttolerance="10"
     gridtolerance="10"
     guidetolerance="10"
     inkscape:pageopacity="0"
     inkscape:pageshadow="2"
     inkscape:window-width="1920"
     inkscape:window-height="1017"
     id="namedview32"
     showgrid="false"
     fit-margin-top="0"
     fit-margin-left="0"
     fit-margin-right="0"
     fit-margin-bottom="0"
     inkscape:zoom="1.1677181"
     inkscape:cx="382.97109"
     inkscape:cy="85.738912"
     inkscape:window-x="-8"
     inkscape:window-y="-8"
     inkscape:window-maximized="1"
     inkscape:current-layer="svg30" />
  <path
     id="path24-6"
     d="m 687.9,120 h 134.55972 c 4.4,0 7.99997,-3.6 7.99999,-8 L 830.46014,7.9000022 C 830.46016,3.7000012 826.95986,6.6943269e-7 822.55985,6.6943269e-7 H 687.9 Z"
     style="fill:url(#b-3);stroke-width:0.99999988"
     inkscape:connector-curvature="0"
     sodipodi:nodetypes="csssscc" />
  <g
     id="#ffffffff"
     transform="matrix(0.47999903,0,0,0.47999903,687.9,2.425e-4)">
    <path
       d="m 47.72,66.75 c 4.27,-1.63 9.009999,-0.77 13.299999,0.33 v 50.41 H 118.98 V 73.97 c -0.2,-3.08 1.41,-6.38 4.46,-7.41 4.18,-1.36 8.63975,-0.52 12.79975,0.5 V 179 c 0.19,2.95 -1.67975,5.81 -4.47975,6.78 -4.19,1.35 -8.66,0.5 -12.78,-0.69 V 133.51 H 61.019999 v 45.56 c 0.17,2.76 -1.519999,5.48 -4.089999,6.53 -4.28,1.62 -8.940001,0.68 -13.190001,-0.49 V 74.03 C 43.579999,71.11 44.9,67.95 47.72,66.75 Z"
       id="path7"
       inkscape:connector-curvature="0"
       style="opacity:1;fill:#ffffff"
       sodipodi:nodetypes="ccccccccccccccccc" />
    <path
       d="m 163.6,67.6 c 1.93541,-1.250479 4.18277,-1.423068 6.4468,-1.407001 h 20.66351 c 9.41962,-0.02864 18.81521,0.354982 27.85969,3.307001 14.45,4.25 27.14,14.48 33.54,28.21 5.52,11.92 6.78,25.54 4.66,38.43 -2.52,15.09 -11.04,29.21 -23.67,37.96 -10.48,7.39 -23.33,11.21025 -36.12,11.18025 h -27.04 c -2.47,-0.06 -5.46,0.0498 -7.15,-2.10025 -1.87,-2.29 -1.55,-5.41 -1.57,-8.16 V 74.96 c -0.01,-2.57 0.12,-5.67 2.38,-7.36 m 14.9,14.359499 v 87.540751 h 18.52 c 10.64,-0.21 21.64,-3.56025 29.54,-10.93025 9.32,-8.38 13.81,-21.17 13.46,-33.53 0.39,-9.74 -2.69,-19.54 -8.69,-27.24 -5.52,-7 -13.5,-11.82 -22.09,-14.05 -5.14467,-1.391422 -10.41037,-1.790501 -15.70306,-1.790501 z"
       id="path9"
       inkscape:connector-curvature="0"
       style="opacity:1;fill:#ffffff"
       sodipodi:nodetypes="ccccccccccccccccccccsc" />
  </g>
  <path
     style="fill:url(#a)"
     inkscape:connector-curvature="0"
     id="path15"
     d="M 199.7,0 H 567 V 120 H 199.7 Z" />
  <path
     style="fill:url(#b)"
     inkscape:connector-curvature="0"
     id="path22"
     d="M 199.7,120 H 8 c -4.4,0 -8,-3.6 -8,-8 V 7.9 C 0,3.7 3.5,0 7.9,0 h 191.8 z" />
  <path
     style="fill:#ffffff"
     inkscape:connector-curvature="0"
     id="path24"
     d="m 135,106.7 c 1.3,0.7 3.9,1.5 7.3,1.5 5.7,0.1 8.8,-2.1 11.1,-7.2 L 184,32.8 c -1.3,-0.7 -4.1,-1.4 -6.3,-1.5 -3.9,-0.1 -9.2,0.7 -12.6,8.8 L 155.2,63.5 135.7,32 c -1.3,-0.4 -4.3,-0.9 -6.6,-0.9 -6.8,0 -10.7,2.5 -14.7,6.8 l -18.8,20.6 15.2,23.9 c 2.8,4.4 6.5,6.6 12.5,6.6 3.9,0 7.2,-0.9 8.7,-1.6 L 113.7,59.8 126.7,46.1 148,79.5 Z M 94.9,80.9 c 0,5 -2,7.9 -11.8,7.9 -1.3,0 -2.4,-0.1 -3.5,-0.3 V 21.9 c 0,-5.1 1.7,-10.3 11.6,-10.3 1.2,0 2.5,0.1 3.7,0.4 z m -20.3,-10 c 0,9.4 -6.1,16.2 -18.6,17.6 -9,1 -22.1,-0.2 -28.3,-0.9 -0.2,-1 -0.4,-2.3 -0.4,-3.3 0,-8.2 4.4,-10.1 8.6,-10.1 4.3,0 11.1,0.7 16.2,0.7 5.6,0 7.2,-1.9 7.2,-3.7 0,-2.4 -2.2,-3.3 -6.6,-4.2 L 41,64.9 C 31.2,63 26,56.2 26,49 c 0,-8.8 6.2,-16.1 18.4,-17.5 9.2,-1 20.5,0.1 26.6,0.9 0.2,1.1 0.3,2.1 0.3,3.2 0,8.2 -4.3,9.9 -8.5,9.9 -3.2,0 -8.1,-0.6 -13.8,-0.6 -5.8,0 -8.1,1.6 -8.1,3.5 0,2 2.3,2.9 5.9,3.5 L 58.1,54 c 11.6,2.2 16.5,8.8 16.5,16.9 m 149.7,14.4 c -0.6,-4.7 0.9,-7.2 3.4,-7.2 2.7,0 9.2,3 18.4,3 9.8,0 13.5,-3.6 13.5,-8.2 0,-3.2 -1.4,-5.8 -10.4,-8.3 l -10,-2.8 c -10.7,-2.9 -15.1,-8.3 -15.1,-15.1 0,-8.2 6.5,-15.8 21.6,-15.8 6.8,0 15.2,1.6 20.2,3.6 0.6,4.6 -0.9,7 -3.2,7 -2.5,0 -8.6,-2.8 -17,-2.8 -9,0 -12.4,3.3 -12.4,7.6 0,2.8 1.3,5.4 9.5,7.7 l 10.2,3 c 11.3,3.2 15.9,8.5 15.9,15.6 0,8.8 -6.9,16.6 -23,16.6 -7.4,0 -16.3,-1.8 -21.6,-3.9 M 334.9,60 c 0,18.1 -12.7,29.1 -27,29.1 -8.6,0 -15.5,-4 -19.6,-9.8 v 24.5 c 0,2.1 -1.2,3.5 -4.8,3.5 -1.6,0 -3.4,-0.2 -4.2,-0.5 V 32.3 c 0.8,-0.2 2.6,-0.6 4.2,-0.6 3.6,0 4.8,1.4 4.8,3.5 v 5.6 c 4.1,-5.8 11,-9.8 19.6,-9.8 14.3,0.1 27,11 27,29 m -9.2,0 c 0,-12.4 -8.3,-20.9 -19.4,-20.9 -7.7,0 -14.8,4.4 -18,10.9 v 20.3 c 3.2,6.4 10.3,10.9 18,10.9 11.1,-0.1 19.4,-8.6 19.4,-21.2 m 18.1,0 c 0,-16.6 12.3,-28.9 28.7,-28.9 16.5,0 28.7,12.4 28.7,28.9 0,16.7 -12.3,29.1 -28.7,29.1 -16.4,0 -28.7,-12.4 -28.7,-29.1 m 48.2,0 c 0,-12.8 -8.8,-20.9 -19.5,-20.9 -10.7,0 -19.5,8.1 -19.5,20.9 0,13 8.8,21.1 19.5,21.1 C 383.2,81.1 392,73 392,60 m 54.2,-23.9 c 0,3.4 -1.5,4.2 -4.8,4.2 -6.4,0 -15.5,2.1 -20.1,12.4 v 32.2 c 0,2.2 -1.2,3.5 -4.8,3.5 -1.6,0 -3.4,-0.2 -4.2,-0.5 V 32.3 c 0.8,-0.2 2.6,-0.6 4.2,-0.6 3.6,0 4.8,1.4 4.8,3.5 V 42 c 5.1,-7.4 14,-11.4 24.5,-9.7 0.1,0.7 0.4,2.4 0.4,3.8 m 52,49.2 c -0.6,-4.7 0.9,-7.2 3.4,-7.2 2.7,0 9.2,3 18.4,3 9.8,0 13.5,-3.6 13.5,-8.2 0,-3.2 -1.4,-5.8 -10.4,-8.3 l -10,-2.8 C 502.4,58.9 498,53.5 498,46.7 c 0,-8.2 6.5,-15.8 21.6,-15.8 6.8,0 15.2,1.6 20.2,3.6 0.6,4.6 -0.9,7 -3.2,7 -2.4,0 -8.6,-2.8 -17,-2.8 -9,0 -12.4,3.3 -12.4,7.6 0,2.8 1.3,5.4 9.5,7.7 l 10.2,2.8 c 11.3,3.2 15.9,8.5 15.9,15.6 0,8.8 -6.9,16.6 -23,16.6 -7.3,0.2 -16.2,-1.6 -21.6,-3.7 m -9.2,0 c -4.8,2.3 -10.4,3.7 -16.1,3.7 -11,0 -17.6,-6.3 -17.6,-17.2 v -50 c 0,-2.1 1.2,-3.5 4.8,-3.5 1.6,0 3.4,0.4 4.2,0.7 v 13.2 h 22.3 c 0.1,0.7 0.3,2.2 0.3,3.6 0,3.3 -1.4,4.3 -3.4,4.3 H 464.2 V 71 c 0,6.8 3.3,9.7 9.6,9.7 5.7,0 9.1,-2.2 11.8,-2.2 2.6,0.2 3.9,2.5 3.4,6.8" />
  <path
     sodipodi:nodetypes="cscccccc"
     inkscape:connector-curvature="0"
     id="path28"
     d="M 8,0 C 3.6,0 0,3.6 0,8 V 80.40039 C 0,74.00039 5.1,68.7 11.5,68.5 L 830.51,46.30078 V 8 c 0,-4.4 -3.6,-8 -8,-8 z"
     style="opacity:0.2;fill:#ffffff" />
  <path
     d="M 687.9,120 V 0 h -121 v 120 z"
     id="path2"
     inkscape:connector-curvature="0"
     style="fill:#ffffff"
     sodipodi:nodetypes="ccccc" />
  <path
     d="m 602.8,17.5 c 4.3,2 7.1,4.5 7.6,4.8 -0.2,-1.1 -1.1,-6.5 -1.6,-9.8 2.5,1.7 8.3,5.8 10.3,7.1 0.8,-2.4 3.5,-10.3 3.5,-10.3 0,0 4.9,7.9 5.7,9.2 1,-1.1 6.9,-7.6 8.4,-9.2 0.3,3.7 0.6,9.1 0.7,9.9 0.3,-0.4 2.5,-3.5 6.3,-6.4 -1.6,3.2 -2.4,7.6 -2.8,11.2 -3.7,-1 -7.6,-1.6 -11.6,-1.6 -7.7,0 -15,2 -21.2,5.6 -1.2,-3.4 -2.9,-7.7 -5.3,-10.5 m 59,67.6 -3.4,-3.8 c -1,10.2 -5.9,18.8 -15.1,24.8 l -1.4,-5.5 c -7.8,5.6 -21.1,9.2 -32.5,2.8 1.4,-7.3 2.7,-14.6 0,-23.4 -6.3,9.8 -12,13.7 -12,13.7 -4.3,-7.2 -3.9,-21.6 -2.6,-25.9 l -7.1,2.2 c 0,-4.8 3.5,-15.1 8.5,-20.9 l -4.5,-0.7 c 3,-6.2 7.5,-11.5 13.1,-15.5 -1.7,2.6 -1.7,9.1 3.2,11.6 -2.1,-3.6 -2.3,-8.1 -0.2,-10.4 2.2,-2.3 5.8,-1.5 8.1,0.3 -0.7,-2 -2.7,-4.6 -5.7,-4.7 5.7,-2.9 12.2,-4.6 19.1,-4.6 1.3,0 2.5,0.1 3.8,0.2 2,0.8 4.9,3.6 6.3,5.4 0,0 0.1,-2.1 -1,-4.6 7.4,1.8 11,4.8 12.5,6.3 0.3,3.2 1.3,5.1 2.5,8.2 -2.4,-2.7 -8.5,-7 -11.3,-8.1 0,0 -0.2,2.8 -1.2,4.1 -5.7,-4.2 -8.6,-5.2 -8.6,-5.2 -6.3,0.9 -10.4,3.3 -12.6,5.3 l 1.9,1.6 c -3.8,1.2 -6.3,4.4 -6.3,4.4 0,0.1 3.4,0.5 3.4,0.5 0,0 -0.3,4 4.6,6.4 4.2,2.1 10.4,-0.5 16.1,1.8 -3.8,-4.4 -6.4,-6.3 -6.4,-6.3 0,0 -1.5,-0.3 -2.6,-0.3 -1.3,0 -3.3,0.3 -5.5,-0.6 -1,-0.4 -2.2,-1.1 -3.2,-1.7 0,0 2.7,-2.7 6.5,-3.3 0,0 3.5,1 6.3,3 1.8,-1.8 3.8,-1.7 3.8,-1.7 0,0 -1.9,1.8 -1.3,3.9 2.8,2.5 5.8,6 5.8,6 3.1,-1.7 9.7,-1.3 11.1,0.3 -1.7,-2.2 -4.2,-4.1 -6.2,-5.7 -0.2,-0.8 -2.3,-3.8 -2.7,-4 0,0 2,0.6 3.8,2.2 0.5,-0.7 1.5,-1.5 2.8,-1.8 1.3,1.1 1.6,2.9 1.5,3.2 -0.6,0.7 -1.2,1 -1.2,1 l 3.2,3.5 0.3,-2.5 c 7.6,10.6 11.7,22.9 6.4,38.5 m -14.1,-23 v -5.5 c 0,0 -2.5,-0.8 -5.1,-2.8 -5.3,0.8 -11.7,6.1 -11.7,6.1 0,0 2.2,4.1 4.5,8.5 4.2,0.6 10.4,-4.7 12.3,-6.3 m 5.4,10 c 0,0 -0.4,-2.3 -2.2,-4.4 l -4.1,0.1 c 0,0 -5.6,4.8 -8.9,4.9 0,0 1.9,3.5 2.8,5.3 1.9,-0.4 5.1,-1.9 6.5,-3.4 0,0 0.9,2.8 0.7,6.1 1.7,-1.1 4.3,-4 5.2,-8.6 M 654.7,54 c -2.1,1.7 -3.8,2.7 -3.8,2.7 v 5.5 c 1.5,1.7 3,3 4.1,5.5 2.1,-3.7 1.7,-9.2 -0.3,-13.7"
     id="path8"
     inkscape:connector-curvature="0"
     style="fill:#480c4d" />
</svg>
