<svg height="240" viewBox="0 0 569.7 240" width="569.70001" xmlns="http://www.w3.org/2000/svg" xmlns:xlink="http://www.w3.org/1999/xlink"><linearGradient id="a" gradientTransform="matrix(-1 0 0 -1 -8215.806 -4580.47)" gradientUnits="userSpaceOnUse" x1="-8600.4922" x2="-8600.4922" y1="-4719.145" y2="-4553.374"><stop offset="0" stop-color="#a80002"/><stop offset="1" stop-color="#ea021a"/></linearGradient><linearGradient id="b" gradientUnits="userSpaceOnUse" x1="99.850998" x2="99.850998" y1="138.674" y2="-27.096001"><stop offset="0" stop-color="#00043b"/><stop offset="1" stop-color="#002672"/></linearGradient><path d="m199.7 0h362c4.4 0 8 3.6 8 8v112h-370z" fill="url(#a)"/><path d="m199.7 120h-199.7v-112.1c0-4.2 3.5-7.9 7.9-7.9h191.8z" fill="url(#b)"/><path d="m8 0h553.7c4.4 0 8 3.6 8 8v38.2l-558.2 22.3c-6.4.2-11.5 5.5-11.5 11.9v-72.4c0-4.4 3.6-8 8-8z" fill="#fff" opacity=".2"/><path d="m135 106.7c1.3.7 3.9 1.5 7.3 1.5 5.7.1 8.8-2.1 11.1-7.2l30.6-68.2c-1.3-.7-4.1-1.4-6.3-1.5-3.9-.1-9.2.7-12.6 8.8l-9.9 23.4-19.5-31.5c-1.3-.4-4.3-.9-6.6-.9-6.8 0-10.7 2.5-14.7 6.8l-18.8 20.6 15.2 23.9c2.8 4.4 6.5 6.6 12.5 6.6 3.9 0 7.2-.9 8.7-1.6l-18.3-27.6 13-13.7 21.3 33.4zm-40.1-25.8c0 5-2 7.9-11.8 7.9-1.3 0-2.4-.1-3.5-.3v-66.6c0-5.1 1.7-10.3 11.6-10.3 1.2 0 2.5.1 3.7.4zm-20.3-10c0 9.4-6.1 16.2-18.6 17.6-9 1-22.1-.2-28.3-.9-.2-1-.4-2.3-.4-3.3 0-8.2 4.4-10.1 8.6-10.1 4.3 0 11.1.7 16.2.7 5.6 0 7.2-1.9 7.2-3.7 0-2.4-2.2-3.3-6.6-4.2l-11.7-2.1c-9.8-1.9-15-8.7-15-15.9 0-8.8 6.2-16.1 18.4-17.5 9.2-1 20.5.1 26.6.9.2 1.1.3 2.1.3 3.2 0 8.2-4.3 9.9-8.5 9.9-3.2 0-8.1-.6-13.8-.6-5.8 0-8.1 1.6-8.1 3.5 0 2 2.3 2.9 5.9 3.5l11.3 2.1c11.6 2.2 16.5 8.8 16.5 16.9m149.7 14.4c-.6-4.7.9-7.2 3.4-7.2 2.7 0 9.2 3 18.4 3 9.8 0 13.5-3.6 13.5-8.2 0-3.2-1.4-5.8-10.4-8.3l-10-2.8c-10.7-2.9-15.1-8.3-15.1-15.1 0-8.2 6.5-15.8 21.6-15.8 6.8 0 15.2 1.6 20.2 3.6.6 4.6-.9 7-3.2 7-2.5 0-8.6-2.8-17-2.8-9 0-12.4 3.3-12.4 7.6 0 2.8 1.3 5.4 9.5 7.7l10.2 3c11.3 3.2 15.9 8.5 15.9 15.6 0 8.8-6.9 16.6-23 16.6-7.4 0-16.3-1.8-21.6-3.9m110.6-25.3c0 18.1-12.7 29.1-27 29.1-8.6 0-15.5-4-19.6-9.8v24.5c0 2.1-1.2 3.5-4.8 3.5-1.6 0-3.4-.2-4.2-.5v-74.5c.8-.2 2.6-.6 4.2-.6 3.6 0 4.8 1.4 4.8 3.5v5.6c4.1-5.8 11-9.8 19.6-9.8 14.3.1 27 11 27 29m-9.2 0c0-12.4-8.3-20.9-19.4-20.9-7.7 0-14.8 4.4-18 10.9v20.3c3.2 6.4 10.3 10.9 18 10.9 11.1-.1 19.4-8.6 19.4-21.2m18.1 0c0-16.6 12.3-28.9 28.7-28.9 16.5 0 28.7 12.4 28.7 28.9 0 16.7-12.3 29.1-28.7 29.1s-28.7-12.4-28.7-29.1m48.2 0c0-12.8-8.8-20.9-19.5-20.9s-19.5 8.1-19.5 20.9c0 13 8.8 21.1 19.5 21.1s19.5-8.1 19.5-21.1m54.2-23.9c0 3.4-1.5 4.2-4.8 4.2-6.4 0-15.5 2.1-20.1 12.4v32.2c0 2.2-1.2 3.5-4.8 3.5-1.6 0-3.4-.2-4.2-.5v-55.6c.8-.2 2.6-.6 4.2-.6 3.6 0 4.8 1.4 4.8 3.5v6.8c5.1-7.4 14-11.4 24.5-9.7.1.7.4 2.4.4 3.8m52 49.2c-.6-4.7.9-7.2 3.4-7.2 2.7 0 9.2 3 18.4 3 9.8 0 13.5-3.6 13.5-8.2 0-3.2-1.4-5.8-10.4-8.3l-10-2.8c-10.7-2.9-15.1-8.3-15.1-15.1 0-8.2 6.5-15.8 21.6-15.8 6.8 0 15.2 1.6 20.2 3.6.6 4.6-.9 7-3.2 7-2.4 0-8.6-2.8-17-2.8-9 0-12.4 3.3-12.4 7.6 0 2.8 1.3 5.4 9.5 7.7l10.2 2.8c11.3 3.2 15.9 8.5 15.9 15.6 0 8.8-6.9 16.6-23 16.6-7.3.2-16.2-1.6-21.6-3.7m-9.2 0c-4.8 2.3-10.4 3.7-16.1 3.7-11 0-17.6-6.3-17.6-17.2v-50c0-2.1 1.2-3.5 4.8-3.5 1.6 0 3.4.4 4.2.7v13.2h22.3c.1.7.3 2.2.3 3.6 0 3.3-1.4 4.3-3.4 4.3h-19.3v30.9c0 6.8 3.3 9.7 9.6 9.7 5.7 0 9.1-2.2 11.8-2.2 2.6.2 3.9 2.5 3.4 6.8" fill="#fff"/><path d="m7.90039 240c-4.4 0-7.90039-3.70039-7.90039-7.90039v-112.09961h569.6502v112.09961c.00001 4.2-3.50038 7.90039-7.90039 7.90039z" fill="#999"/><path d="m10.40039 237.5c-4.4 0-7.90039-3.70038-7.90039-7.90038v-109.59962h564.6502v109.59962c.00001 4.2-3.50038 7.90038-7.9004 7.90038z" fill="#fff"/><g transform="translate(-401.2749 120)"><path d="m695.9 22c-9.9 10-22.4 19.6-39.1 19.6l-10 14.2h19.8l-14.5 20.6h-19.8l-15.1 21.6h-27.9l53.3-76z"/><path d="m697 92.4 36.5 2.5-.1.2-47.7 2.9 15.5-22.1 43.7 2.7-.1.2-40 2.6-.2.2 36.5 2.4-.1.2-40.1 2.6-.1.2 36.5 2.4-.1.2-40.1 2.7zm85.8-67.6-60.9 2.7-.1.2 57.3 2.3-.1.1-60.8 2.8-.2.2 57.3 2.2-.1.2-60.9 2.8-.1.2 57.3 2.3-.1.2-60.8 2.7-.2.2 57.3 2.3-.1.1-60.8 2.8-.2.2 57.3 2.3-.1.1-60.8 2.8-.1.2 57.2 2.3-.1.1-60.8 2.8-.1.2 57.3 2.2-.2.2-60.8 2.8-.1.2 57.3 2.3-.2.2-60.8 2.7-.1.1 57.3 2.3-.2.2-68.5 3.1 38.2-54.4 64.6 2.6z" fill="#dc2826"/></g></svg>