<?xml version="1.0" encoding="UTF-8"?>
<!-- Created with Inkscape (http://www.inkscape.org/) -->
<svg id="svg8519" width="2372.4" height="730" version="1.1" viewBox="0 0 2372.4 730" xmlns="http://www.w3.org/2000/svg" xmlns:cc="http://creativecommons.org/ns#" xmlns:dc="http://purl.org/dc/elements/1.1/" xmlns:rdf="http://www.w3.org/1999/02/22-rdf-syntax-ns#">
 <defs id="defs8521">
  <clipPath id="clipPath1252">
   <path id="path1254" d="m411.59 515.35h94.948v18.13h-94.948v-18.13z"/>
  </clipPath>
  <clipPath id="clipPath1288">
   <path id="path1290" d="m412.39 532.67h93.284v-15.246h-93.284v15.246z"/>
  </clipPath>
  <clipPath id="clipPath1292">
   <path id="path1294" d="m412.39 517.42h93.284v15.245h-93.284v-15.245z"/>
  </clipPath>
  <linearGradient id="linearGradient1236" x2="1" gradientTransform="matrix(0 17.057 17.057 0 474.76 515.89)" gradientUnits="userSpaceOnUse">
   <stop id="stop1238" stop-color="#820021" offset="0"/>
   <stop id="stop1240" stop-color="#ae2c3f" offset=".10441"/>
   <stop id="stop1242" stop-color="#ae2c3f" offset=".90174"/>
   <stop id="stop1244" stop-color="#ba3c4c" offset="1"/>
  </linearGradient>
  <clipPath id="clipPath1202">
   <path id="path1204" d="m411.59 515.35h94.948v18.13h-94.948v-18.13z"/>
  </clipPath>
  <clipPath id="clipPath1214">
   <path id="path1216" d="m505.84 530.72h0.017v-0.016h-0.017v0.016z"/>
  </clipPath>
  <linearGradient id="linearGradient1178" x2="1" gradientTransform="matrix(0 -17.343 17.343 0 459.06 533.09)" gradientUnits="userSpaceOnUse">
   <stop id="stop1180" stop-color="#868685" offset="0"/>
   <stop id="stop1182" stop-color="#d8d9d9" offset=".020448"/>
   <stop id="stop1184" stop-color="#f5f5f5" offset=".052404"/>
   <stop id="stop1186" stop-color="#edeeee" offset=".48766"/>
   <stop id="stop1188" stop-color="#f5f5f5" offset=".89549"/>
   <stop id="stop1190" stop-color="#ebebec" offset=".92944"/>
   <stop id="stop1192" stop-color="#d8d9d9" offset=".96426"/>
   <stop id="stop1194" stop-color="#868685" offset="1"/>
  </linearGradient>
 </defs>
 <metadata id="metadata8524">
  <rdf:RDF>
   <cc:Work rdf:about="">
    <dc:format>image/svg+xml</dc:format>
    <dc:type rdf:resource="http://purl.org/dc/dcmitype/StillImage"/>
    <dc:title/>
   </cc:Work>
  </rdf:RDF>
 </metadata>
 <g id="layer1" transform="translate(-192.09 474.88)">
  <g id="g4201" transform="matrix(19.99 0 0 19.99 -3647.6 -5121.6)">
   <g id="g1166" transform="matrix(1.25 0 0 -1.25 -322.4 899.31)">
    <g id="g1168">
     <g id="g1174">
      <g id="g1176">
       <path id="path1196" d="m414.08 532.94c-1.345 0-1.823-0.794-1.823-2.114v-12.829c0-1.32 0.478-2.114 1.823-2.114h89.96c1.345 0 1.822 0.794 1.822 2.114v12.829c0 1.32-0.477 2.114-1.822 2.114h-89.96z" fill="url(#linearGradient1178)"/>
      </g>
     </g>
    </g>
   </g>
   <g id="g1198" transform="matrix(1.25 0 0 -1.25 -322.4 899.31)">
    <g id="g1200" clip-path="url(#clipPath1202)">
     <g id="g1206" transform="translate(503.93 515.35)">
      <path id="path1208" d="m0 0c1.996 0 2.605 1.241 2.605 2.482v13.166c0 1.241-0.609 2.482-2.605 2.482h-89.738c-1.997 0-2.605-1.241-2.605-2.482v-13.166c0-1.241 0.608-2.482 2.605-2.482h89.738zm-89.646 0.167c-1.344 0-2.254 0.793-2.254 2.114v13.568c0 1.321 0.91 2.114 2.254 2.114h89.554c1.344 0 2.254-0.793 2.254-2.114v-13.568c0-1.321-0.91-2.114-2.254-2.114h-89.554z" fill="#a1a2a2"/>
     </g>
     <g id="g1210">
      <g id="g1218">
       <g id="g1220" clip-path="url(#clipPath1214)" opacity=".8"></g>
      </g>
     </g>
    </g>
   </g>
   <g id="g1224" transform="matrix(1.25 0 0 -1.25 -322.4 899.31)">
    <g id="g1226">
     <g id="g1232">
      <g id="g1234">
       <path id="path1246" d="m443.66 532.94v-17.057h60.388c1.345 0 1.822 0.794 1.822 2.114v12.829c0 1.32-0.477 2.114-1.822 2.114h-60.388z" fill="url(#linearGradient1236)"/>
      </g>
     </g>
    </g>
   </g>
   <g id="g1248" transform="matrix(1.25 0 0 -1.25 -322.4 899.31)">
    <g id="g1250" clip-path="url(#clipPath1252)">
     <g id="g1256" transform="translate(452.08 519.04)">
      <path id="path1258" d="m0 0c-0.756 0-1.454 0.136-2.093 0.408-0.639 0.273-1.192 0.649-1.661 1.129-0.469 0.481-0.836 1.052-1.102 1.714s-0.4 1.377-0.4 2.146c0 0.747 0.134 1.446 0.4 2.098 0.266 0.651 0.633 1.217 1.102 1.697 0.469 0.481 1.022 0.857 1.661 1.129 0.639 0.273 1.337 0.409 2.093 0.409 0.543 0 1.07-0.059 1.581-0.176 0.512-0.118 0.985-0.268 1.422-0.449 0.096-1.42-0.25-2.13-1.038-2.13-0.139 0-0.266 0.016-0.384 0.048-0.117 0.032-0.245 0.064-0.383 0.096-0.139 0.032-0.293 0.064-0.463 0.096-0.171 0.032-0.373 0.049-0.607 0.049-0.373 0-0.724-0.067-1.055-0.201-0.33-0.133-0.614-0.326-0.854-0.576-0.24-0.251-0.429-0.553-0.567-0.905-0.139-0.352-0.208-0.748-0.208-1.185 0-0.46 0.069-0.871 0.208-1.233 0.138-0.363 0.327-0.67 0.567-0.921s0.524-0.443 0.854-0.577c0.331-0.133 0.682-0.2 1.055-0.2 0.234 0 0.442 0.016 0.623 0.048s0.343 0.064 0.487 0.096 0.28 0.064 0.407 0.096c0.128 0.032 0.261 0.048 0.4 0.048 0.777 0 1.123-0.71 1.038-2.13-0.437-0.181-0.924-0.331-1.462-0.448s-1.078-0.176-1.621-0.176" fill="#fff"/>
     </g>
     <g id="g1260" transform="translate(457.59 519.17)">
      <path id="path1262" d="m0 0c-0.224 0-0.445 0.011-0.663 0.032s-0.402 0.048-0.551 0.08v9.273c0 0.309 0.096 0.573 0.287 0.792 0.192 0.219 0.554 0.329 1.087 0.329 0.223 0 0.444-0.011 0.663-0.033 0.218-0.021 0.402-0.048 0.551-0.08v-9.272c0-0.31-0.096-0.574-0.288-0.793-0.191-0.219-0.554-0.328-1.086-0.328" fill="#fff"/>
     </g>
     <g id="g1264" transform="translate(461.96 519.17)">
      <path id="path1266" d="m0 0c-0.213 0-0.421 0.011-0.623 0.032-0.203 0.021-0.373 0.048-0.511 0.08v10.201c0.159 0.054 0.367 0.099 0.623 0.137 0.255 0.037 0.473 0.056 0.655 0.056 0.585 0 1.011-0.075 1.278-0.225 0.266-0.149 0.489-0.368 0.671-0.656l3.626-5.717v5.573c0 0.138 0.018 0.269 0.056 0.392 0.037 0.123 0.101 0.232 0.191 0.328 0.091 0.096 0.216 0.171 0.376 0.224 0.159 0.054 0.362 0.081 0.607 0.081 0.213 0 0.418-0.011 0.615-0.033 0.197-0.021 0.364-0.042 0.503-0.063v-10.218c-0.149-0.075-0.33-0.125-0.543-0.152s-0.421-0.04-0.623-0.04c-0.501 0-0.874 0.069-1.118 0.208-0.246 0.139-0.448 0.331-0.607 0.577l-3.882 6.214v-5.942c0-0.299-0.091-0.55-0.272-0.753s-0.522-0.304-1.022-0.304" fill="#fff"/>
     </g>
     <g id="g1268" transform="translate(473.3 519.23)">
      <path id="path1270" d="m0 0c-0.298 0-0.541 0.032-0.727 0.096s-0.33 0.152-0.431 0.264c-0.102 0.112-0.171 0.248-0.208 0.409-0.037 0.16-0.056 0.33-0.056 0.512v7.847c0 0.182 0.019 0.353 0.056 0.513s0.106 0.296 0.208 0.408c0.101 0.112 0.245 0.2 0.431 0.264s0.429 0.096 0.727 0.096h5.287c0.022-0.117 0.043-0.277 0.064-0.48 0.022-0.203 0.032-0.411 0.032-0.624 0-0.449-0.09-0.767-0.271-0.953-0.182-0.187-0.41-0.281-0.687-0.281h-3.259v-1.825h3.754c0.021-0.107 0.043-0.249 0.064-0.425s0.032-0.366 0.032-0.568c0-0.427-0.086-0.718-0.256-0.873s-0.383-0.232-0.639-0.232h-2.955v-1.81h4.281c0.021-0.118 0.043-0.28 0.064-0.488 0.021-0.209 0.032-0.414 0.032-0.617 0-0.459-0.091-0.779-0.272-0.961-0.181-0.181-0.41-0.272-0.686-0.272h-4.585z" fill="#fff"/>
     </g>
     <g id="g1272" transform="translate(480.98 519.17)">
      <path id="path1274" d="m0 0c-0.245 0-0.461 0.024-0.647 0.072-0.187 0.048-0.349 0.104-0.487 0.168l0.976 9.977c0.203 0.086 0.469 0.155 0.799 0.208 0.33 0.054 0.612 0.081 0.846 0.081 0.33 0 0.615-0.022 0.854-0.065 0.24-0.042 0.445-0.114 0.615-0.216 0.17-0.101 0.306-0.243 0.407-0.424 0.101-0.182 0.178-0.406 0.232-0.673l0.415-1.937c0.117-0.534 0.242-1.124 0.375-1.77s0.253-1.311 0.359-1.994h0.064c0.117 0.683 0.239 1.345 0.367 1.986s0.261 1.228 0.399 1.761l0.51 2.034c0.128 0.502 0.332 0.844 0.614 1.025 0.282 0.182 0.721 0.273 1.316 0.273 0.298 0 0.598-0.025 0.901-0.073s0.556-0.098 0.758-0.152l0.934-10.041c-0.149-0.053-0.328-0.107-0.535-0.16-0.208-0.053-0.434-0.08-0.679-0.08-0.341 0-0.629 0.059-0.863 0.176-0.234 0.118-0.362 0.337-0.383 0.657l-0.24 3.459c-0.053 0.609-0.098 1.246-0.136 1.914-0.037 0.667-0.061 1.299-0.072 1.898h-0.032c-0.138-0.556-0.279-1.156-0.423-1.802s-0.29-1.241-0.439-1.786l-0.655-2.722c-0.16-0.641-0.666-0.961-1.518-0.961-0.213 0-0.431 0.021-0.655 0.064-0.223 0.042-0.415 0.09-0.575 0.144l-0.814 3.395c-0.16 0.63-0.309 1.249-0.447 1.858-0.139 0.608-0.267 1.217-0.384 1.825h-0.048c-0.032-0.854-0.074-1.636-0.128-2.346-0.053-0.71-0.101-1.321-0.143-1.833l-0.256-3.123c-0.021-0.31-0.138-0.523-0.351-0.641-0.214-0.117-0.49-0.176-0.831-0.176" fill="#fff"/>
     </g>
     <g id="g1276" transform="translate(496.06 523.54)">
      <path id="path1278" d="m0 0h2.39l-1.192 3.923-1.198-3.923zm-2.492-4.404c-0.202 0-0.434 0.019-0.694 0.056-0.262 0.037-0.477 0.088-0.647 0.152l3.314 10.153c0.288 0.075 0.579 0.129 0.873 0.161s0.563 0.048 0.809 0.048c0.352 0 0.654-0.027 0.905-0.08 0.251-0.054 0.462-0.134 0.633-0.241s0.312-0.248 0.424-0.424 0.206-0.382 0.281-0.617l2.84-8.984c-0.181-0.075-0.399-0.131-0.655-0.168-0.255-0.037-0.506-0.056-0.75-0.056-0.278 0-0.546 0.045-0.807 0.136s-0.45 0.296-0.567 0.617l-0.544 1.649h-3.484l-0.461-1.553c-0.117-0.374-0.314-0.609-0.591-0.705s-0.57-0.144-0.879-0.144" fill="#fff"/>
     </g>
     <g id="g1280" transform="translate(423.12 522.78)">
      <path id="path1282" d="m0 0c0-1.46-0.955-2.527-2.894-2.738-1.404-0.15-3.438 0.027-4.404 0.138-0.036 0.158-0.064 0.354-0.064 0.508 0 1.278 0.691 1.569 1.338 1.569 0.672 0 1.73-0.116 2.518-0.116 0.865 0 1.129 0.294 1.129 0.573 0 0.367-0.349 0.52-1.021 0.648l-1.839 0.354c-1.531 0.293-2.348 1.352-2.348 2.476 0 1.366 0.967 2.509 2.868 2.72 1.438 0.155 3.187-0.02 4.148-0.138 0.035-0.165 0.053-0.321 0.053-0.492 0-1.274-0.671-1.549-1.319-1.549-0.497 0-1.269 0.093-2.15 0.093-0.897 0-1.269-0.248-1.269-0.55 0-0.319 0.355-0.451 0.916-0.549l1.758-0.326c1.806-0.333 2.58-1.359 2.58-2.621m3.155-1.568c0-0.783-0.307-1.235-1.836-1.235-0.203 0-0.38 0.015-0.55 0.04v10.39c0 0.789 0.269 1.612 1.813 1.612 0.194 0 0.391-0.02 0.573-0.058v-10.749zm6.25-4.019c0.2-0.103 0.612-0.227 1.131-0.241 0.886-0.019 1.371 0.321 1.73 1.116l4.764 10.626c-0.197 0.106-0.631 0.223-0.988 0.231-0.612 0.011-1.434-0.114-1.96-1.367l-1.543-3.641-3.025 4.927c-0.195 0.06-0.671 0.146-1.021 0.146-1.067 0-1.665-0.394-2.284-1.066l-2.941-3.217 2.366-3.723c0.437-0.678 1.013-1.024 1.949-1.024 0.612 0 1.121 0.139 1.357 0.252l-2.848 4.295 2.019 2.139 3.311-5.197-2.017-4.256z" fill="#ae2c3f"/>
     </g>
     <g id="g1284">
      <g id="g1296">
       <g id="g1298" clip-path="url(#clipPath1288)" opacity=".39999">
        <g id="g1300">
         <g id="g1302">
          <g id="g1304" clip-path="url(#clipPath1292)">
           <g id="g1306" transform="translate(504.17 519.89)">
            <path id="path1308" d="m0 0c1.156-1.145 1.313-2.225 1.354-2.463 0.114 0 0.156 0.506 0.156 1.261l-4e-3 12.109c0 1.402-0.456 1.876-1.644 1.876-0.402 0-0.804-0.216-1.339-0.216h-87.31c-0.536 0-0.938 0.216-1.34 0.216-1.187 0-1.643-0.474-1.643-1.876l-4e-3 -12.109c0-0.755 0.041-1.261 0.155-1.261 0.041 0.238 0.076 1.402 1.354 2.463 10.208 7.878 79.259 10.296 90.265 0" fill="#fff"/>
           </g>
          </g>
         </g>
        </g>
       </g>
      </g>
     </g>
    </g>
   </g>
  </g>
  <g id="#000000ff" transform="matrix(1.0038 0 0 1.0038 625.84 -80.191)">
   <path id="path5" d="m296.51 167.8c17.97-2.8 37.12-0.47 53.08 8.58 13.25 7.22 24.08 18.62 30.89 32.05 8.77 16.69 11.31 36.21 8.87 54.78-2.72 20.73-12.94 40.65-29.11 54.06-11.65 9.52-26.19 15.64-41.24 16.7-6.02 0.02-12.04 0.15-18.06-0.07-19.59-1.93-38.21-12.06-50.51-27.42-23.94-29.44-25.77-74.48-4.87-106.03 11.41-17.39 30.46-29.37 50.95-32.65m4.96 24.88c-14.5 2.9-26.83 13.22-33.55 26.22-7.76 14.31-9.12 31.44-5.79 47.21 3.36 15.5 12.66 30.29 26.94 37.8 8.97 5.01 19.68 6.51 29.75 4.65 12.6-2.44 23.58-10.63 30.89-21.01 9.89-14.3 13.14-32.61 10.18-49.61-2.52-14.86-10.29-29.3-22.94-37.88-10.15-7.21-23.3-9.93-35.48-7.38z"/>
   <path id="path7" d="m1189 170.91c10.39-2.98 21.33-3.25 32.06-2.75 15.1 0.99 30.08 4.08 44.26 9.36-0.18 6.11 0.07 12.95-3.92 18.03-3.22 3.92-8.89 3.83-13.44 2.99-14.43-2.96-29.19-6.01-43.99-4.33-6.05 0.79-12.4 2.53-16.84 6.95-5.92 5.53-6.49 15.8-1.13 21.9 2.53 2.64 5.92 4.26 9.25 5.69 7.96 3.28 16.4 5.12 24.62 7.62 10.23 2.95 20.79 5.32 30.16 10.58 8.12 4.42 15.38 10.94 19.36 19.41 4.62 10.02 4.63 21.63 2.07 32.21-2 8.12-6.49 15.65-12.94 21.01-9.1 7.65-20.83 11.48-32.48 12.97-23.96 2.95-48.19-1.64-70.98-8.95-0.7-6.36-0.23-13.49 3.85-18.7 3.7-4.36 10.08-3.73 15.12-2.75 12.14 2.63 24.31 5.74 36.81 5.71 8.65 0.03 18.09-0.36 25.4-5.56 6.96-4.92 9.86-14.54 7.05-22.53-1.81-4.91-6.28-8.2-10.88-10.27-18.17-7.63-38.59-9.15-55.83-19.09-7.34-4.1-13.4-10.39-17.03-17.99-6.03-12.29-5.54-27.27 0.32-39.53 5.74-11.33 17.28-18.41 29.13-21.98z"/>
   <path id="path9" d="m421.92 172.24c10.04-3.2 21.09-4.2 31.37-1.52 5.84 1.45 10.36 6.43 11.69 12.24 9.25 36.18 18.2 72.45 27.56 108.61 9.34-36.16 18.55-72.36 27.92-108.51 1.64-6.18 6.71-11.1 12.93-12.57 9.81-2.46 20.18-1.16 29.9 1.13 4.8 48.45 9.54 96.9 14.33 145.35 0.37 4.31 0.97 8.6 1.12 12.93-7.16 2.46-15.29 3.96-22.5 0.84-3.01-1.27-4.46-4.54-4.67-7.63-3.51-42.08-6.93-84.18-10.48-126.26-10.56 37.48-20.16 75.25-30.53 112.79-1.51 5.71-6.79 9.63-12.51 10.38-6.92 0.95-14.2 0.68-20.88-1.44-3.5-10.71-6.11-21.75-9.27-32.58-7.4-26.64-14.8-53.29-22.2-79.93-0.91-3.07-1.52-6.23-2.8-9.18-3.85 42.04-7.6 84.09-11.41 126.13-0.21 3.14-1.71 6.43-4.75 7.74-6.78 3.06-14.53 1.67-21.25-0.84 1.93-21.68 4.48-43.3 6.64-64.96 3.3-30.9 6.36-61.83 9.79-92.72z"/>
   <path id="path11" d="m704.97 172.96c13.91-5.16 29.12-5.32 43.67-3.38 10.14 1.52 20.15 4.21 29.62 8.17 0.57 6.99 0.91 15.5-5.06 20.43-4.14 3.85-10.21 2.59-14.95 0.72-14.75-5.38-31.89-7.06-46.37 0.01-12.74 5.88-22.07 17.74-26.16 31.01-4.29 13.78-4.22 28.88-0.14 42.69 4.12 13.44 13.58 25.63 26.82 31.01 14.52 6.12 31.26 4.83 45.72-0.81 5.47-2.34 12.64-2.5 17.07 1.99 4.66 4.74 4.3 11.96 3.94 18.1 0.13 1.63-1.78 1.9-2.86 2.46-17.14 6.84-35.95 9.35-54.3 7.56-20.49-2.11-40-12.87-52.34-29.41-20.07-26.89-21.99-65.57-6.03-94.87 8.83-16.41 23.78-29.44 41.37-35.68z"/>
   <path id="path13" d="m943.94 169.87c6.59-1.35 13.42-0.48 20.03 0.4 0.07 29.59 0.01 59.17 0.03 88.75-0.1 8.38 0.2 16.94 2.89 24.96 2.73 8.01 7.76 15.52 15.14 19.93 8.03 4.98 17.91 5.83 27.12 4.77 8.85-1.12 17.23-5.69 22.75-12.73 6.85-8.33 9.49-19.34 9.6-29.94-0.02-27.34 0.03-54.67-0.02-82.01-0.1-3.53-0.07-7.39 2.19-10.34 2.19-3.37 6.48-4.27 10.23-4.4 5.01-0.14 10.07 0.04 14.99 1.08 0.67 1.41 0.24 3.1 0.39 4.63-0.07 27.34-0.01 54.69-0.03 82.03-0.04 6.05 0.24 12.13-0.58 18.15-1.8 15.58-8.42 30.81-19.65 41.9-10.45 9.99-24.56 16.09-38.97 16.95-8.01-0.21-16.16 0.73-24.04-1.16-14.28-2.89-27.39-11.13-36.08-22.83-7.98-10.66-12.29-23.74-13.5-36.92-0.64-6.36-0.39-12.75-0.43-19.13 0.01-24.32-0.02-48.64 0.01-72.95-0.19-4.92 2.87-10.13 7.93-11.14z"/>
   <path id="path15" d="m1108.9 169.86c6.6-1.34 13.44-0.49 20.04 0.47 0.09 50.21 0.02 100.43 0.04 150.65 0.15 4.55-2.44 9.47-7.03 10.76-6.83 1.95-14.02 0.73-20.91-0.17-0.14-50.2-0.02-100.4-0.06-150.6-0.29-4.92 2.87-10.15 7.92-11.11z"/>
   <path id="path17" d="m105.53 171.53c3.37-2.22 7.58-1.77 11.42-1.79 37.44 0.02 74.88 0.01 112.32 0 0.94 6.31 1.8 12.99-0.27 19.17-1.37 4.14-5.8 6.49-10 6.33-13 0.03-26 0-38.99 0.01-0.01 41.91-0.02 83.81 0 125.72 0.24 4.61-2.45 9.6-7.12 10.83-6.79 1.88-13.92 0.59-20.79-0.19-0.24-45.45-0.02-90.91-0.11-136.36-14.99 0.02-29.99-0.04-44.99 0.03-1.55-0.1-3.21 0.23-4.67-0.36-1.03-4.86-0.89-9.88-0.8-14.82 0.1-3.19 1.05-6.84 4-8.57z"/>
   <path id="path19" d="m803.44 172.43c2.91-2.46 6.97-2.66 10.62-2.7 14.99 0.05 29.97 0 44.96 0.03 14.11 0.38 28.83 3.96 39.66 13.47 8.95 7.62 13.99 19.08 14.84 30.69 1.55 14.71-2.98 30.4-13.78 40.8-7.99 8.09-18.98 12.53-30.12 14.05 16.66 19.82 33.37 39.61 50.01 59.46-8.4 4.36-18.42 5.78-27.61 3.3-5.33-1.54-9.24-5.8-12.67-9.92-13.39-17.22-26.81-34.41-40.21-51.62-3.64 0.01-7.27 0-10.9 0.03 0.01 16.65 0.03 33.29-0.01 49.94 0.17 4.66-1.88 9.94-6.6 11.59-6.95 2.29-14.39 0.8-21.49 0.1-0.34-48.54-0.02-97.11-0.16-145.66 0-4.65 0.03-9.96 3.46-13.56m24.81 22.82v50.5c9.25-0.04 18.5 0.07 27.75-0.05 7.14-0.5 14.72-1.66 20.59-6.08 10.08-7.63 11.77-23.13 5.55-33.68-4.78-7.86-14.59-10.2-23.17-10.62-10.24-0.17-20.48-0.02-30.72-0.07z"/>
   <path id="path21" d="m1299.7 172.71c2.44-2.42 6.1-2.81 9.37-2.96 28.55-0.01 57.11 0 85.67 0 1.01 5.84 1.56 11.9 0.61 17.78-0.76 4.84-5.66 7.96-10.35 7.73-20.05-0.04-40.1 0.05-60.15-0.06-0.18 14.35-0.04 28.69-0.07 43.04 21.31 0.01 42.62 0.01 63.93 0 0.64 6.34 2.08 13.04-0.26 19.2-1.54 3.63-5.73 5.21-9.44 5.07-18.08 0.01-36.16-0.05-54.25 0.03 0.06 14.41-0.07 28.83 0.07 43.24 24.03-0.08 48.05 0 72.08-0.04 0.69 5.8 1.47 11.74 0.39 17.54-0.8 4.8-5.51 8.31-10.33 7.96-25.64 0.01-51.29 0.03-76.93-0.01-3.73-0.24-8.17-0.44-10.73-3.56-2.74-3.59-2.8-8.37-2.8-12.69 0.03-43.66-0.01-87.32 0.01-130.98 0.09-3.92 0.48-8.21 3.18-11.29z"/>
  </g>
 </g>
</svg>
