<svg height="729.99994" viewBox="0 0 2372.4458 729.99997" width="2372.4458" xmlns="http://www.w3.org/2000/svg" xmlns:xlink="http://www.w3.org/1999/xlink"><clipPath id="a"><path d="m411.591 515.351h94.948v18.13h-94.948z"/></clipPath><clipPath id="b"><path d="m412.392 532.67h93.284v-15.246h-93.284z"/></clipPath><clipPath id="c"><path d="m412.392 517.424h93.284v15.245h-93.284z"/></clipPath><linearGradient id="d" gradientTransform="matrix(0 17.057004 17.057004 0 474.76197 515.88703)" gradientUnits="userSpaceOnUse" spreadMethod="pad" x1="0" x2="1" y1="0" y2="0"><stop offset="0" stop-color="#820021"/><stop offset=".104411" stop-color="#ae2c3f"/><stop offset=".901742" stop-color="#ae2c3f"/><stop offset="1" stop-color="#ba3c4c"/></linearGradient><clipPath id="e"><path d="m411.591 515.351h94.948v18.13h-94.948z"/></clipPath><clipPath id="f"><path d="m505.836 530.723h.017v-.016h-.017z"/></clipPath><linearGradient id="g" gradientTransform="matrix(0 -17.343138 17.343138 0 459.06457 533.09243)" gradientUnits="userSpaceOnUse" spreadMethod="pad" x1="0" x2="1" y1="0" y2="0"><stop offset="0" stop-color="#868685"/><stop offset=".020448" stop-color="#d8d9d9"/><stop offset=".0524045" stop-color="#f5f5f5"/><stop offset=".487663" stop-color="#edeeee"/><stop offset=".895488" stop-color="#f5f5f5"/><stop offset=".929442" stop-color="#ebebec"/><stop offset=".964262" stop-color="#d8d9d9"/><stop offset="1" stop-color="#868685"/></linearGradient><path d="m414.085 532.944c-1.345 0-1.823-.794-1.823-2.114v-12.829c0-1.32.478-2.114 1.823-2.114h89.96c1.345 0 1.822.794 1.822 2.114v12.829c0 1.32-.477 2.114-1.822 2.114z" fill="url(#g)" transform="matrix(24.9869 0 0 -24.9869 -10284.383283 13330.023906)"/><g clip-path="url(#e)" transform="matrix(24.9869 0 0 -24.9869 -10284.383283 13330.023906)"><g transform="translate(503.9336 515.3505)"><path d="m0 0c1.996 0 2.605 1.241 2.605 2.482v13.166c0 1.241-.609 2.482-2.605 2.482h-89.738c-1.997 0-2.605-1.241-2.605-2.482v-13.166c0-1.241.608-2.482 2.605-2.482zm-89.646.167c-1.344 0-2.254.793-2.254 2.114v13.568c0 1.321.91 2.114 2.254 2.114h89.554c1.344 0 2.254-.793 2.254-2.114v-13.568c0-1.321-.91-2.114-2.254-2.114h-89.554z" fill="#a1a2a2"/></g><g><g/><g><g clip-path="url(#f)" opacity=".800003"><g/></g></g></g></g><path d="m443.657 532.944v-17.057h60.388c1.345 0 1.822.794 1.822 2.114v12.829c0 1.32-.477 2.114-1.822 2.114z" fill="url(#d)" transform="matrix(24.9869 0 0 -24.9869 -10284.383283 13330.023906)"/><g clip-path="url(#a)" transform="matrix(24.9869 0 0 -24.9869 -10284.383283 13330.023906)"><g transform="translate(452.075 519.0374)"><path d="m0 0c-.756 0-1.454.136-2.093.408-.639.273-1.192.649-1.661 1.129-.469.481-.836 1.052-1.102 1.714s-.4 1.377-.4 2.146c0 .747.134 1.446.4 2.098.266.651.633 1.217 1.102 1.697.469.481 1.022.857 1.661 1.129.639.273 1.337.409 2.093.409.543 0 1.07-.059 1.581-.176.512-.118.985-.268 1.422-.449.096-1.42-.25-2.13-1.038-2.13-.139 0-.266.016-.384.048-.117.032-.245.064-.383.096-.139.032-.293.064-.463.096-.171.032-.373.049-.607.049-.373 0-.724-.067-1.055-.201-.33-.133-.614-.326-.854-.576-.24-.251-.429-.553-.567-.905-.139-.352-.208-.748-.208-1.185 0-.46.069-.871.208-1.233.138-.363.327-.67.567-.921s.524-.443.854-.577c.331-.133.682-.2 1.055-.2.234 0 .442.016.623.048s.343.064.487.096.28.064.407.096c.128.032.261.048.4.048.777 0 1.123-.71 1.038-2.13-.437-.181-.924-.331-1.462-.448s-1.078-.176-1.621-.176" fill="#fff"/></g><g transform="translate(457.5874 519.1654)"><path d="m0 0c-.224 0-.445.011-.663.032s-.402.048-.551.08v9.273c0 .309.096.573.287.792.192.219.554.329 1.087.329.223 0 .444-.011.663-.033.218-.021.402-.048.551-.08v-9.272c0-.31-.096-.574-.288-.793-.191-.219-.554-.328-1.086-.328" fill="#fff"/></g><g transform="translate(461.9564 519.1654)"><path d="m0 0c-.213 0-.421.011-.623.032-.203.021-.373.048-.511.08v10.201c.159.054.367.099.623.137.255.037.473.056.655.056.585 0 1.011-.075 1.278-.225.266-.149.489-.368.671-.656l3.626-5.717v5.573c0 .138.018.269.056.392.037.123.101.232.191.328.091.096.216.171.376.224.159.054.362.081.607.081.213 0 .418-.011.615-.033.197-.021.364-.042.503-.063v-10.218c-.149-.075-.33-.125-.543-.152s-.421-.04-.623-.04c-.501 0-.874.069-1.118.208-.246.139-.448.331-.607.577l-3.882 6.214v-5.942c0-.299-.091-.55-.272-.753s-.522-.304-1.022-.304" fill="#fff"/></g><g transform="translate(473.3041 519.2296)"><path d="m0 0c-.298 0-.541.032-.727.096s-.33.152-.431.264c-.102.112-.171.248-.208.409-.037.16-.056.33-.056.512v7.847c0 .182.019.353.056.513s.106.296.208.408c.101.112.245.2.431.264s.429.096.727.096h5.287c.022-.117.043-.277.064-.48.022-.203.032-.411.032-.624 0-.449-.09-.767-.271-.953-.182-.187-.41-.281-.687-.281h-3.259v-1.825h3.754c.021-.107.043-.249.064-.425s.032-.366.032-.568c0-.427-.086-.718-.256-.873s-.383-.232-.639-.232h-2.955v-1.81h4.281c.021-.118.043-.28.064-.488.021-.209.032-.414.032-.617 0-.459-.091-.779-.272-.961-.181-.181-.41-.272-.686-.272z" fill="#fff"/></g><g transform="translate(480.983 519.1654)"><path d="m0 0c-.245 0-.461.024-.647.072-.187.048-.349.104-.487.168l.976 9.977c.203.086.469.155.799.208.33.054.612.081.846.081.33 0 .615-.022.854-.065.24-.042.445-.114.615-.216.17-.101.306-.243.407-.424.101-.182.178-.406.232-.673l.415-1.937c.117-.534.242-1.124.375-1.77s.253-1.311.359-1.994h.064c.117.683.239 1.345.367 1.986s.261 1.228.399 1.761l.51 2.034c.128.502.332.844.614 1.025.282.182.721.273 1.316.273.298 0 .598-.025.901-.073s.556-.098.758-.152l.934-10.041c-.149-.053-.328-.107-.535-.16-.208-.053-.434-.08-.679-.08-.341 0-.629.059-.863.176-.234.118-.362.337-.383.657l-.24 3.459c-.053.609-.098 1.246-.136 1.914-.037.667-.061 1.299-.072 1.898h-.032c-.138-.556-.279-1.156-.423-1.802s-.29-1.241-.439-1.786l-.655-2.722c-.16-.641-.666-.961-1.518-.961-.213 0-.431.021-.655.064-.223.042-.415.09-.575.144l-.814 3.395c-.16.63-.309 1.249-.447 1.858-.139.608-.267 1.217-.384 1.825h-.048c-.032-.854-.074-1.636-.128-2.346-.053-.71-.101-1.321-.143-1.833l-.256-3.123c-.021-.31-.138-.523-.351-.641-.214-.117-.49-.176-.831-.176" fill="#fff"/></g><g transform="translate(496.0557 523.5375)"><path d="m0 0h2.39l-1.192 3.923zm-2.492-4.404c-.202 0-.434.019-.694.056-.262.037-.477.088-.647.152l3.314 10.153c.288.075.579.129.873.161s.563.048.809.048c.352 0 .654-.027.905-.08.251-.054.462-.134.633-.241s.312-.248.424-.424.206-.382.281-.617l2.84-8.984c-.181-.075-.399-.131-.655-.168-.255-.037-.506-.056-.75-.056-.278 0-.546.045-.807.136s-.45.296-.567.617l-.544 1.649h-3.484l-.461-1.553c-.117-.374-.314-.609-.591-.705s-.57-.144-.879-.144" fill="#fff"/></g><g transform="translate(423.1164 522.7819)"><path d="m0 0c0-1.46-.955-2.527-2.894-2.738-1.404-.15-3.438.027-4.404.138-.036.158-.064.354-.064.508 0 1.278.691 1.569 1.338 1.569.672 0 1.73-.116 2.518-.116.865 0 1.129.294 1.129.573 0 .367-.349.52-1.021.648l-1.839.354c-1.531.293-2.348 1.352-2.348 2.476 0 1.366.967 2.509 2.868 2.72 1.438.155 3.187-.02 4.148-.138.035-.165.053-.321.053-.492 0-1.274-.671-1.549-1.319-1.549-.497 0-1.269.093-2.15.093-.897 0-1.269-.248-1.269-.55 0-.319.355-.451.916-.549l1.758-.326c1.806-.333 2.58-1.359 2.58-2.621m3.155-1.568c0-.783-.307-1.235-1.836-1.235-.203 0-.38.015-.55.04v10.39c0 .789.269 1.612 1.813 1.612.194 0 .391-.02.573-.058zm6.25-4.019c.2-.103.612-.227 1.131-.241.886-.019 1.371.321 1.73 1.116l4.764 10.626c-.197.106-.631.223-.988.231-.612.011-1.434-.114-1.96-1.367l-1.543-3.641-3.025 4.927c-.195.06-.671.146-1.021.146-1.067 0-1.665-.394-2.284-1.066l-2.941-3.217 2.366-3.723c.437-.678 1.013-1.024 1.949-1.024.612 0 1.121.139 1.357.252l-2.848 4.295 2.019 2.139 3.311-5.197z" fill="#ae2c3f"/></g><g><g/><g><g clip-path="url(#b)" opacity=".399994"><g><g><g clip-path="url(#c)"><g transform="translate(504.1664 519.8869)"><path d="m0 0c1.156-1.145 1.313-2.225 1.354-2.463.114 0 .156.506.156 1.261l-.004 12.109c0 1.402-.456 1.876-1.644 1.876-.402 0-.804-.216-1.339-.216h-87.31c-.536 0-.938.216-1.34.216-1.187 0-1.643-.474-1.643-1.876l-.004-12.109c0-.755.041-1.261.155-1.261.041.238.076 1.402 1.354 2.463 10.208 7.878 79.259 10.296 90.265 0" fill="#fff"/></g></g></g></g></g></g></g></g><g fill="#fff" transform="matrix(1.0026237 0 0 1.0026237 184.14166 395.010786)"><path d="m1181.09 167.17c19.04-2.25 39.17 1.58 55.1 12.57 15 10.1 25.75 25.89 30.79 43.18 6.03 20.73 4.9 43.56-3.51 63.49-6.64 15.72-18.31 29.43-33.26 37.78-16.55 9.42-36.57 11.9-55.14 8.31-19.82-3.75-37.77-15.93-48.74-32.83-16.01-24.38-18.6-56.58-8.26-83.66 5.43-13.9 14.68-26.38 26.85-35.09 10.6-7.62 23.22-12.28 36.17-13.75m2.17 25.15c-9.14 1.67-17.71 6.15-24.37 12.63-9.71 9.34-15.44 22.31-17.13 35.57-1.94 16.04 1.04 33.03 10.07 46.6 6.88 10.4 17.64 18.41 29.96 20.95 12.03 2.66 25-.22 35.04-7.29 14.23-9.97 22.71-26.75 24.32-43.85 2.03-19.51-4.32-40.6-19.4-53.72-10.3-9.24-24.87-13.35-38.49-10.89z"/><path d="m1623.44 167.54c16.76-2.47 34.43-.4 49.62 7.34 14.89 7.41 26.9 20.13 34.07 35.08 8.46 17.44 10.44 37.58 7.32 56.59-3.33 19.63-13.4 38.34-29.06 50.84-26.86 21.81-68.6 22.31-96.08 1.36-14.28-10.75-24.34-26.61-28.95-43.8-5.23-19.5-4.35-40.69 3.06-59.52 5.54-13.86 14.88-26.29 27.16-34.87 9.71-6.88 21.11-11.26 32.86-13.02m3.03 25.18c-8.89 1.98-17.05 6.75-23.43 13.2-10.4 10.57-15.86 25.29-16.65 39.96-1.01 18.94 5.23 39.17 19.9 51.84 12.37 11.03 31.06 14.56 46.41 8.06 16.26-6.51 27.6-22.02 31.79-38.69 5.17-20.34 1.08-43.63-13.13-59.5-10.88-12.53-28.64-18.68-44.89-14.87z"/><path d="m187.55 168.72c22.26-2.82 44.85 1.34 65.91 8.53.16 6.42.34 13.87-4.41 18.85-4.43 3.95-10.86 2.68-16.16 1.67-12.07-2.72-24.45-4.78-36.86-4.03-6.96.47-14.29 1.94-19.77 6.52-5.76 4.74-7.29 13.73-3.55 20.14 3.12 5.1 9 7.52 14.38 9.5 12.72 4.26 25.84 7.24 38.61 11.37 11.62 4.03 23.25 10.43 29.88 21.18 6.29 9.92 6.77 22.38 4.6 33.63-2.34 12.18-10.47 23.01-21.5 28.7-9.37 5.11-20.07 7.21-30.63 8.01-21.9 1.39-43.78-2.85-64.55-9.57-.11-5.97-.26-12.48 3.2-17.65 1.77-2.75 4.96-4.34 8.19-4.43 5.12-.17 10.1 1.28 15.06 2.33 12.76 2.99 25.97 5.02 39.08 3.62 7.04-.91 14.49-3.19 19.24-8.79 4.24-4.87 5.21-11.97 3.52-18.06-1.91-5.98-7.55-9.67-13.1-11.9-17.65-6.83-37.24-8.55-53.71-18.4-9.37-5.47-17.18-14.21-19.85-24.9-3.29-13.28-1.16-28.4 7.69-39.15 8.41-10.45 21.77-15.43 34.73-17.17z"/><path d="m773.2 185.12c7.35-9.63 19.15-14.97 30.97-16.42 17.73-2.2 35.96 1.49 52.02 9.1 1.59 6.85.71 16.33-6.48 19.73-7.13 3.02-14.25-1.43-21.12-3.02-8.56-1.89-18.05-2.94-26.27.81-5.97 2.7-9.4 9.3-9.12 15.72-.27 8.35 5.39 15.19 10.73 20.98 13.49 13.77 27 27.5 40.63 41.13 5.64-10.55 11.34-21.07 16.99-31.61 1.83-3.78 5.34-6.59 9.42-7.61 6.63-1.62 13.72-.33 19.92 2.33-9.87 17.81-19.66 35.67-29.5 53.49 12.19 12.86 24.52 25.59 36.81 38.37-7.51 3.61-16.11 5.05-24.35 3.69-4.39-.73-8.22-3.29-11.31-6.39-5.13-5.01-9.87-10.41-14.68-15.73-8.4 11.76-21.39 20.21-35.75 22.39-17.4 2.66-36.92.34-50.74-11.43-15.82-13.28-20.02-37.45-11.6-55.94 5.61-12.02 17.15-20.2 29.46-24.36-4.6-6.37-9.91-12.53-12.08-20.27-3.63-11.71-1.6-25.24 6.05-34.96m3.69 81.86c-7.27 10.85-5.2 27.06 5.13 35.27 8.77 7.21 21.23 7.48 31.75 4.61 7.52-2.01 13.88-7.18 17.97-13.73-12.68-12.92-25.39-25.82-38-38.8-6.58 2.65-12.9 6.62-16.85 12.65z"/><path d="m309.3 182.31c12.67-9.09 28.21-13.79 43.75-14.04 16.19-.02 32.49 2.88 47.41 9.3.75 7.12.73 15.78-5.29 20.77-4.34 3.6-10.31 2.01-15.07.25-14.49-5.2-31.19-6.74-45.48-.1-14.91 6.74-25.07 21.55-28.15 37.38-3.01 15.39-1.79 32.09 5.54 46.14 5.48 10.6 15.13 18.98 26.51 22.65 13.62 4.54 28.65 2.91 41.88-2.19 5.49-2.27 12.64-2.5 17.03 2.08 4.77 5.18 4.55 12.8 3.71 19.34-13.88 6.1-29.04 9.05-44.17 9.13-13.15.45-26.46-2.06-38.28-7.91-15.8-7.62-28.52-21.13-35.63-37.13-7.4-16.5-9.23-35.27-6.24-53.03 3.52-20.84 15.11-40.43 32.48-52.64z"/><path d="m427.73 170.84c7.04-3.3 15.08-1.37 22.48-.6.07 50.56.06 101.14.01 151.7.2 5.2-4.33 9.26-9.2 9.98-6.24.89-12.58.1-18.77-.82 0-49.71 0-99.43 0-149.15-.12-4.27 1.26-9.21 5.48-11.11z"/><path d="m528.99 172.95c3.18-3.03 7.84-3.33 12.01-3.45 28.97-.02 57.95.03 86.92-.03.83 6.18 1.84 12.6.25 18.74-.96 4.08-4.95 7.02-9.13 6.78-21.68.03-43.36 0-65.04.01v47h67.81c.94 6.44 2.4 13.41-.36 19.6-1.68 3.54-5.65 5.28-9.43 5.14-19.34.04-38.68 0-58.01.02-.04 18.44.04 36.89-.04 55.33.11 5-4.21 9.04-8.95 9.78-6.31.99-12.74.12-19.02-.75 0-48.71-.01-97.42.01-146.13.2-4.1-.15-8.88 2.98-12.04z"/><path d="m655.13 170.24c6.89-2.34 14.26-.75 21.3-.05.15 50.27.04 100.54.06 150.81.27 4.93-3.18 9.64-8.06 10.62-6.46 1.28-13.19.61-19.61-.55-.65-1.22-.23-2.76-.35-4.09.08-48.96-.02-97.92.04-146.88-.05-4.24 2.52-8.47 6.62-9.86z"/><path d="m968.42 169.7c6.43-1.48 13.04-.21 19.5.5.19 22.6.02 45.2.08 67.8 25.08 0 50.16.01 75.24-.01.01-19.34.01-38.68 0-58.02-.2-4.37 2.68-8.63 6.93-9.84 6.92-2.19 14.31-.66 21.34.18-.04 49.87.03 99.74-.03 149.61.24 4.85-2.31 10.02-7.23 11.41-6.85 1.91-14.08.66-21-.18-.01-22.96.01-45.93-.01-68.9-25.08 0-50.16.01-75.23 0-.05 19.94.05 39.89-.05 59.83.07 5-4.17 9-8.9 9.78-6.33 1-12.77.15-19.06-.74 0-46.36 0-92.71 0-139.07.12-4.81-.37-9.67.41-14.44.62-4.07 4.13-7.03 8.01-7.91z"/><path d="m1291.39 178.04c.65-5.22 5.82-8.22 10.73-8.32 8.95-.52 17.94-.08 26.92-.22 11.72.13 23.59-.66 35.14 1.83 10.64 2.2 21.07 6.98 28.52 15.05 13.63 15.08 15.2 38.73 6.41 56.6-7.28 14.64-22.87 23.56-38.76 25.46 16.72 19.77 33.38 39.6 50.04 59.43-8.11 4.29-17.76 5.54-26.69 3.51-7.03-1.75-11.74-7.69-15.92-13.17-12.57-16.17-25.2-32.28-37.76-48.45-3.68-.01-7.35-.01-11.01 0-.02 17.08 0 34.17-.01 51.26.23 4.65-2.81 9.23-7.39 10.41-6.75 1.72-13.82.6-20.61-.31 0-43.02 0-86.03 0-129.05.22-8-.48-16.06.39-24.03m27.61 16.96v50.49c8.99-.01 17.98.04 26.97-.01 8.74-.43 18.24-2.35 24.56-8.89 6.88-7.63 7.6-19.54 3.58-28.7-3.83-8.39-13.41-11.87-22.02-12.52-11.01-.77-22.06-.2-33.09-.37z"/><path d="m1432.04 172.15c3.7-2.68 8.52-2.61 12.9-2.67 14.01.12 28.03-.15 42.04.14 15.27.52 31.38 4.81 42.31 16.08 13.94 14.7 15.88 38.2 7.59 56.18-7.02 15.24-22.99 24.65-39.28 26.56 16.71 19.78 33.34 39.63 50.04 59.42-7.89 4.23-17.25 5.43-25.99 3.71-6.08-1.32-10.79-5.79-14.44-10.57-13.37-17.08-26.64-34.23-40.04-51.27-3.65.03-7.29.02-10.92.03-.05 17.43.1 34.86-.07 52.28 0 4.69-3.67 8.72-8.18 9.64-6.53 1.28-13.25.38-19.75-.58 0-49.71-.01-99.42 0-149.14.01-3.54.71-7.59 3.79-9.81m24.2 22.86c.09 16.86-.15 33.72.13 50.58 12.51-.7 25.25 1.22 37.58-1.58 7.91-1.73 15.65-6.79 18.25-14.8 2.91-9.03 2.12-20.43-5.23-27.16-6.18-5.66-14.97-6.76-22.99-7.01-9.25-.09-18.49-.02-27.74-.03z"/><path d="m1740.59 171.74c3.7-2.24 8.22-2.21 12.43-2.26 13.65.09 27.31-.1 40.96.09 14.89.44 30.63 4.19 41.72 14.72 8.05 7.38 12.64 18.02 13.61 28.81 1.33 12.36-1.17 25.46-8.59 35.63-8.14 11.39-21.55 17.98-35.23 19.72 16.69 19.78 33.4 39.54 49.97 59.42-7.93 4.25-17.35 5.44-26.13 3.66-5.98-1.38-10.56-5.83-14.22-10.51-13.29-17.1-26.67-34.14-39.94-51.26-3.65-.01-7.29-.01-10.92 0 .01 15.43-.02 30.85.02 46.28-.09 3.83.35 8.09-1.93 11.42-2.08 3.04-5.82 4.41-9.36 4.7-5.6.42-11.21-.2-16.74-1.01.01-50.05.01-100.09 0-150.13-.07-3.53 1.24-7.33 4.35-9.28m23.66 23.27v50.48c9.25-.03 18.5.1 27.76-.05 9.5-.54 20.18-3.22 25.79-11.61 4.65-7.45 4.92-17.3 1.72-25.35-3.5-8.45-12.91-12.24-21.46-13.03-11.24-.91-22.55-.26-33.81-.44z"/></g></svg>