<?xml version="1.0" encoding="UTF-8"?>
<!-- Created with Inkscape (http://www.inkscape.org/) -->
<svg id="svg8519" width="3456" height="453" version="1.1" viewBox="0 0 3240 424.69" xmlns="http://www.w3.org/2000/svg" xmlns:cc="http://creativecommons.org/ns#" xmlns:dc="http://purl.org/dc/elements/1.1/" xmlns:rdf="http://www.w3.org/1999/02/22-rdf-syntax-ns#">
 <defs id="defs8521">
  <clipPath id="clipPath1288">
   <path id="path1290" d="m412.39 532.67h93.284v-15.246h-93.284z"/>
  </clipPath>
  <clipPath id="clipPath1292">
   <path id="path1294" d="m412.39 517.42h93.284v15.245h-93.284z"/>
  </clipPath>
  <linearGradient id="linearGradient1236" x2="1" gradientTransform="matrix(0 -399.55 399.55 0 1671.8 -34.435)" gradientUnits="userSpaceOnUse">
   <stop id="stop1238" stop-color="#820021" offset="0"/>
   <stop id="stop1240" stop-color="#ae2c3f" offset=".10441"/>
   <stop id="stop1242" stop-color="#ae2c3f" offset=".90174"/>
   <stop id="stop1244" stop-color="#ba3c4c" offset="1"/>
  </linearGradient>
  <clipPath id="clipPath1214">
   <path id="path1216" d="m505.84 530.72h0.017v-0.016h-0.017z"/>
  </clipPath>
  <linearGradient id="linearGradient1178" x2="1" gradientTransform="matrix(0 406.26 406.26 0 1304.1 -437.46)" gradientUnits="userSpaceOnUse">
   <stop id="stop1180" stop-color="#868685" offset="0"/>
   <stop id="stop1182" stop-color="#d8d9d9" offset=".020448"/>
   <stop id="stop1184" stop-color="#f5f5f5" offset=".052404"/>
   <stop id="stop1186" stop-color="#edeeee" offset=".48766"/>
   <stop id="stop1188" stop-color="#f5f5f5" offset=".89549"/>
   <stop id="stop1190" stop-color="#ebebec" offset=".92944"/>
   <stop id="stop1192" stop-color="#d8d9d9" offset=".96426"/>
   <stop id="stop1194" stop-color="#868685" offset="1"/>
  </linearGradient>
 </defs>
 <metadata id="metadata8524">
  <rdf:RDF>
   <cc:Work rdf:about="">
    <dc:format>image/svg+xml</dc:format>
    <dc:type rdf:resource="http://purl.org/dc/dcmitype/StillImage"/>
    <dc:title/>
   </cc:Work>
  </rdf:RDF>
 </metadata>
 <g id="layer1" transform="translate(-192.08 446.55)">
  <path id="path1196" d="m250.51-433.99c-31.506 0-42.703 18.599-42.703 49.52v300.51c0 30.92 11.197 49.52 42.703 49.52h2107.3c31.506 0 42.68-18.599 42.68-49.52v-300.51c0-30.92-11.174-49.52-42.68-49.52z" fill="url(#linearGradient1178)"/>
  <path id="path1208" d="m3371.1-21.867c46.755 0 61.021-29.07 61.021-58.14l-4e-4 -308.41c-1e-4 -29.07-14.265-58.14-61.02-58.14h-3118c-46.779 0-61.021 29.07-61.021 58.14v308.41c0 29.07 14.242 58.14 61.021 58.14zm-3115.8-3.9119c-31.483 0-52.799-18.576-52.799-49.52v-317.82c0-30.944 21.316-49.52 52.799-49.52h3113.6c31.483 0 52.799 18.576 52.799 49.52v317.82c0 30.944-21.316 49.52-52.799 49.52z" fill="#a1a2a2"/>
  <g id="g1220" transform="matrix(22.132 0 0 -22.132 -8917.4 11384)" clip-path="url(#clipPath1214)" opacity=".8"></g>
  <path id="path1246" d="m943.22-433.99v399.55h2430.4c31.506 0 42.679-18.599 42.679-49.52v-300.51c0-30.92-11.173-49.52-42.679-49.52z" fill="url(#linearGradient1236)"/>
  <path id="path1258" d="m1140.4-108.23c-17.709 0-34.059-3.1857-49.028-9.5572-14.968-6.3949-27.922-15.203-38.908-26.446-10.986-11.267-19.583-24.643-25.814-40.15-6.231-15.507-9.3699-32.256-9.3699-50.269 0-17.498 3.1389-33.872 9.3699-49.145 6.2309-15.249 14.828-28.508 25.814-39.751 10.986-11.267 23.94-20.075 38.908-26.446 14.968-6.3949 31.319-9.5806 49.028-9.5806 12.72 0 25.064 1.382 37.034 4.1227 11.993 2.7641 23.073 6.2778 33.31 10.518 2.2487 33.263-5.8562 49.894-24.315 49.894-3.256 0-6.2309-0.3748-8.9949-1.1244-2.7407-0.74958-5.7391-1.4992-8.9716-2.2488-3.2561-0.74959-6.8634-1.4992-10.846-2.2488-4.0055-0.74959-8.7374-1.1478-14.219-1.1478-8.7374 0-16.959 1.5694-24.713 4.7083-7.7301 3.1155-14.383 7.6364-20.005 13.493-5.6219 5.8796-10.049 12.954-13.282 21.199-3.2561 8.2454-4.8723 17.522-4.8723 27.758 0 10.775 1.6162 20.403 4.8723 28.882 3.2326 8.5031 7.6598 15.694 13.282 21.574s12.274 10.377 20.005 13.516c7.7536 3.1155 15.976 4.6849 24.713 4.6849 5.4812 0 10.354-0.37479 14.594-1.1244 4.2398-0.74959 8.0346-1.4992 11.408-2.2488 3.373-0.74959 6.5588-1.4992 9.5338-2.2488 2.9983-0.74959 6.1137-1.1244 9.3697-1.1244 18.201 0 26.306 16.631 24.315 49.894-10.237 4.2398-21.644 7.7535-34.247 10.494-12.602 2.7407-25.252 4.1227-37.971 4.1227" fill="#fff"/>
  <path id="path1262" d="m1269.5-111.23c-5.2472 0-10.424-0.25768-15.53-0.74959-5.1066-0.49192-9.4167-1.1244-12.907-1.874v-217.22c0-7.2382 2.2488-13.422 6.7229-18.552 4.4975-5.13 12.977-7.7067 25.462-7.7067 5.2237 0 10.4 0.25767 15.53 0.77301 5.1066 0.49192 9.4166 1.1244 12.907 1.874v217.19c0 7.2616-2.2488 13.446-6.7464 18.576-4.4741 5.13-12.977 7.6833-25.439 7.6833" fill="#fff"/>
  <path id="path1266" d="m1371.9-111.23c-4.9894 0-9.8618-0.25768-14.594-0.74959-4.7552-0.49192-8.7373-1.1244-11.97-1.874v-238.95c3.7246-1.2649 8.5968-2.319 14.594-3.2092 5.9733-0.86671 11.08-1.3118 15.343-1.3118 13.703 0 23.682 1.7568 29.936 5.2705 6.231 3.4903 11.455 8.6202 15.718 15.367l84.938 133.92v-130.55c0-3.2326 0.4216-6.3012 1.3117-9.1824 0.8667-2.8812 2.3659-5.4345 4.4741-7.6833 2.1317-2.2488 5.0597-4.0056 8.8077-5.2471 3.7245-1.2649 8.4797-1.8974 14.219-1.8974 4.9894 0 9.7915 0.25767 14.406 0.77301 4.6147 0.49192 8.5267 0.98383 11.783 1.4758v239.35c-3.4903 1.7568-7.7301 2.9281-12.72 3.5605-4.9895 0.63247-9.8617 0.93699-14.594 0.93699-11.736 0-20.473-1.6163-26.189-4.8723-5.7624-3.256-10.494-7.7535-14.219-13.516l-90.934-145.56v139.19c0 7.0039-2.1316 12.884-6.3715 17.639-4.2398 4.7552-12.228 7.1211-23.94 7.1211" fill="#fff"/>
  <path id="path1270" d="m1637.7-112.73c-6.9806 0-12.673-0.74959-17.03-2.2488-4.3569-1.4992-7.7301-3.5605-10.096-6.1841-2.3893-2.6236-4.0056-5.8093-4.8723-9.5806-0.8667-3.7479-1.3117-7.7301-1.3117-11.993v-183.81c0-4.2633 0.445-8.2689 1.3117-12.017s2.483-6.9337 4.8723-9.5572c2.3659-2.6236 5.7391-4.6849 10.096-6.1841 4.3571-1.4992 10.049-2.2488 17.03-2.2488h123.85c0.5154 2.7407 1.0073 6.4886 1.4992 11.244 0.5154 4.7552 0.7496 9.6275 0.7496 14.617 0 10.518-2.1082 17.967-6.3481 22.324-4.2633 4.3804-9.6041 6.5823-16.093 6.5823h-76.341v42.75h87.936c0.492 2.5064 1.0073 5.8327 1.4992 9.9554 0.4918 4.1227 0.7496 8.5734 0.7496 13.305 0 10.002-2.0146 16.819-5.9967 20.45-3.9822 3.6308-8.9716 5.4345-14.968 5.4345h-69.22v42.398h100.28c0.4919 2.7641 1.0072 6.5589 1.4992 11.431 0.4918 4.8957 0.7495 9.6978 0.7495 14.453 0 10.752-2.1317 18.248-6.3714 22.511-4.2399 4.2398-9.6041 6.3715-16.069 6.3715z" fill="#fff"/>
  <path id="path1274" d="m1817.6-111.23c-5.739 0-10.799-0.5622-15.156-1.6866-4.3805-1.1244-8.1752-2.4362-11.408-3.9353l22.862-233.71c4.7552-2.0145 10.986-3.6308 18.716-4.8723 7.7301-1.2649 14.336-1.8974 19.817-1.8974 7.7301 0 14.406 0.51534 20.005 1.5226 5.6219 0.98383 10.424 2.6704 14.406 5.0597 3.9821 2.3659 7.1678 5.6922 9.5338 9.932 2.3659 4.2633 4.1696 9.5104 5.4344 15.765l9.7213 45.373c2.7406 12.509 5.6687 26.329 8.7841 41.461 3.1155 15.132 5.9264 30.71 8.4095 46.709h1.4992c2.7406-15.999 5.5984-31.506 8.5968-46.521 2.9983-15.015 6.1137-28.765 9.3464-41.251l11.946-47.646c2.9983-11.759 7.7769-19.77 14.383-24.01 6.6057-4.2633 16.889-6.3949 30.827-6.3949 6.9805 0 14.008 0.58562 21.106 1.71 7.0976 1.1244 13.024 2.2956 17.756 3.5605l21.878 235.21c-3.4902 1.2415-7.6832 2.5064-12.532 3.7479-4.8724 1.2415-10.166 1.874-15.905 1.874-7.9878 0-14.734-1.382-20.215-4.1227-5.4813-2.7641-8.4797-7.8941-8.9716-15.39l-5.6219-81.026c-1.2415-14.266-2.2956-29.187-3.1857-44.835-0.8667-15.624-1.4289-30.429-1.6866-44.46h-0.7496c-3.2326 13.024-6.5355 27.079-9.9086 42.211-3.3731 15.132-6.7931 29.07-10.283 41.836l-15.343 63.762c-3.7479 15.015-15.601 22.511-35.558 22.511-4.9895 0-10.096-0.49192-15.343-1.4992-5.2236-0.98383-9.7212-2.1082-13.469-3.3731l-19.068-79.526c-3.7478-14.757-7.2381-29.257-10.471-43.523-3.2561-14.242-6.2543-28.508-8.995-42.75h-1.1244c-0.7496 20.005-1.7335 38.323-2.9983 54.954-1.2415 16.631-2.3659 30.944-3.3498 42.937l-5.9967 73.155c-0.4918 7.2616-3.2325 12.251-8.2219 15.015-5.013 2.7407-11.478 4.1227-19.466 4.1227" fill="#fff"/>
  <path id="path1278" d="m2170.6-213.64h55.985l-27.922-91.895zm-58.374 103.16c-4.7318 0-10.166-0.44508-16.257-1.3118-6.1372-0.86671-11.174-2.0614-15.156-3.5605l77.629-237.83c6.7462-1.7568 13.563-3.0218 20.45-3.7714 6.8868-0.74959 13.188-1.1244 18.95-1.1244 8.2455 0 15.32 0.63246 21.199 1.874 5.8795 1.2649 10.822 3.1389 14.828 5.6453 4.0057 2.5064 7.3085 5.8093 9.9321 9.932 2.6235 4.1227 4.8254 8.9482 6.5823 14.453l66.526 210.45c-4.2399 1.7568-9.3464 3.0686-15.343 3.9353-5.9732 0.8667-11.853 1.3118-17.568 1.3118-6.512 0-12.79-1.0541-18.904-3.1857-6.1138-2.1316-10.541-6.9337-13.282-14.453l-12.743-38.627h-81.611l-10.799 36.378c-2.7407 8.7608-7.3553 14.266-13.844 16.514-6.4887 2.2488-13.352 3.3731-20.59 3.3731" fill="#fff"/>
  <path id="path1282" d="m462.06-195.94c0 34.2-22.37 59.194-67.791 64.136-32.888 3.5137-80.534-0.63246-103.16-3.2326-0.84328-3.7011-1.4992-8.2923-1.4992-11.9 0-29.937 16.186-36.753 31.342-36.753 15.741 0 40.524 2.7173 58.983 2.7173 20.262 0 26.446-6.8868 26.446-13.422 0-8.5968-8.1752-12.181-23.916-15.179l-43.078-8.2923c-35.863-6.8634-55.001-31.67-55.001-57.999 0-31.998 22.652-58.772 67.182-63.715 33.685-3.6308 74.654 0.46849 97.165 3.2326 0.81987 3.8651 1.2415 7.5193 1.2415 11.525 0 29.843-15.718 36.285-30.897 36.285-11.642 0-29.726-2.1785-50.363-2.1785-21.012 0-29.726 5.8093-29.726 12.884 0 7.4724 8.3157 10.564 21.457 12.86l41.18 7.6364c42.305 7.8004 60.435 31.834 60.435 61.396m73.905 36.73c0 18.341-7.1913 28.929-43.008 28.929-4.7552 0-8.9013-0.35137-12.884-0.93698v-243.38c0-18.482 6.3012-37.76 42.469-37.76 4.5444 0 9.159 0.46849 13.422 1.3586zm146.4 94.143c4.6849 2.4127 14.336 5.3174 26.493 5.6453 20.754 0.44507 32.115-7.5193 40.524-26.142l111.59-248.91c-4.6146-2.483-14.781-5.2237-23.143-5.4111-14.336-0.25767-33.591 2.6704-45.912 32.021l-36.144 85.289-70.859-115.41c-4.5678-1.4055-15.718-3.42-23.916-3.42-24.994 0-39.002 9.2293-53.502 24.971l-68.892 75.357 55.423 87.21c10.237 15.882 23.729 23.987 45.654 23.987 14.336 0 26.259-3.256 31.787-5.903l-66.713-100.61 47.294-50.105 77.559 121.74z" fill="#ae2c3f"/>
  <g id="g1298" transform="matrix(36.651 0 0 -23.425 -14904 12050)" clip-path="url(#clipPath1288)" opacity=".39999">
   <g id="g1300">
    <g id="g1302">
     <g id="g1304" clip-path="url(#clipPath1292)">
      <g id="g1306" transform="translate(504.17 519.89)">
       <path id="path1308" d="m-5.9464 0c1.156-1.145 1.313-2.225 1.354-2.463 0.114 0 0.156 0.506 0.156 1.261l-4e-3 12.109c0 1.402-0.456 1.876-1.644 1.876-0.402 0-0.804-0.216-1.339-0.216h-81.364c-0.536 0-0.938 0.216-1.34 0.216-1.187 0-1.643-0.474-1.643-1.876l-4e-3 -12.109c0-0.755 0.041-1.261 0.155-1.261 0.041 0.238 0.076 1.402 1.354 2.463 10.208 7.878 73.313 10.296 84.319 0" fill="#fff"/>
      </g>
     </g>
    </g>
   </g>
  </g>
  <path id="path4140" d="m2402.9-123.59c3.2088-61.752 1.6142-236.58-2.3837-261.35l-0.7912-4.9017-0.7977 7.9687c-2.8611 28.586-3.7227 61.856-3.6909 142.5 0.032 79.409 0.8657 113.26 3.6964 150l0.8308 10.781 0.7889-7.5c0.4336-4.125 1.4902-21 2.3474-37.5z" fill="#fff" stroke-width="1.1273"/>
  <g id="g831" transform="matrix(.51046 0 0 .61473 2466.1 -416.78)" fill="#fff">
   <path id="path6-7" d="m868.05 8c5.4 43.06 11.205 86.06 16.725 129.1 3.8497 28.28 7.6698 56.6 9.9 85.05-9.2503-4.87-17.94-11.465-28.35-13.625-0.1 4.91 0.85504 9.745 1.625 14.575 6.8 40.15 13.24 80.39 18 120.85 0.63 5.72 1.64 11.42 1.75 17.2-1.12-0.42-2.32-0.7-3.1-1.65-5.86-6.03-11.51-12.26-17.4-18.25 11.37 70.47 23.59 140.84 34.75 211.35 2.82 10.61 3.25 21.64 5.55 32.35 1.97-6.84 2.14-14.04 3.25-21.05 4.03-43.24 6.4-86.625 9.7-129.92 3.69 7.7 7.76 15.2 11.65 22.8 2.52 4.58 4.55 9.44 7.55 13.75 0.89 0.16 1.79 0.32 2.7 0.5 0.0704-19.34 0.26-38.67 0.25-58 0.46-11.02-0.41-22.06 0.6-33.05 0.04-21.38 0.06-42.745 0.35-64.125 7.19 14.39 14.235 28.83 21.475 43.2 1.1-1.46 3.1998-2.69 2.7501-4.8-2.2403-36.76-4.9098-73.51-6.6501-110.3-0.81976-7.39-0.64968-14.855-0.9-22.275 1.7203 0.63 2.5503 2.335 3.5 3.775 8.9102 14.42 17.885 28.8 26.575 43.35 1.24 1.89 3.87 1.34 5.8 1.35 9.98-0.95 19.685-3.785 29.125-7.075 14.13-5.12 28.175-11.835 38.625-22.925 7.46 1.45 14.78 3.97 21.75 7.05 0.16 24.58-0.2753 49.17-0.125 73.75 0.5698 13.82-1.1098 27.99 2.85 41.45 3.0302 9.64 10.985 16.455 18.175 23.075 12.81 11.22 26.245 21.705 39.675 32.175 5.8197 4.71 13.81 3.975 20.8 3.575 8.3698-0.63 15.79-4.805 23.3-8.175 7.0697-3.26 14.015-6.82 20.825-10.6 9.05-5 16.8-12.38 22.1-21.25 3.36-5.44 4.1552-11.905 5.225-18.075 2-13.26 2.915-26.665 2.825-40.075 0.47-24.2-3.7-48.155-6-72.175l-0.475-0.75c-0.1601-4.74-1.045-9.41-1.675-14.1-0.95-6.28-1.62-12.74-4.35-18.55-2.48-5.54-6.39-10.33-10.8-14.45-11.73-10.84-24.515-20.72-38.725-28.1-6.0097-3.44-12.965-0.41-18.825 1.8-20.46 8.67-39.365 20.555-58.025 32.525-4.3902 2.64-8.0798 6.725-9.35 11.775-1.0797 4.26-3.2597 8.11-5.8 11.65-6.8899-0.69-13.125-3.915-19.725-5.775 2.56-33.68 6.09-67.275 8.5-100.98 0.35-6.4 1.9649-13.235-0.825-19.325-2.9703-7.12-8.215-12.895-12.875-18.925-17.25-21.17-34.395-42.435-52.275-63.075-3.8098-0.56-7.555 0.38-11.075 1.75-11.6 4.2-23.14 8.635-34.85 12.525-1.65 0.57-3.4 0.76-5.1 1-1.73-10.09 0.62-20.255 0.8-30.375-16.59-0.2-33.225 0.765-49.825-0.125-11.74-0.73-23.5-0.895-35.25-1.375zm125.9 43.25c1.5618-0.03938 3.085 0.4675 4.45 1.3 0.95 1.7 1.295 3.62 1.475 5.55 5.24 28.35 6.875 57.16 8.475 85.9 0.47 6.61-0.12 13.325 0.8 19.875 0.32 13.78 0.44 27.555 0.25 41.325-3.11 0.56-6.26 0.22-9.35-0.2-9.04-0.9-18.105 0.47-26.975 2.05-4.5601 0.51-9.065 1.385-13.625 1.825-1.07-39.3-0.46504-78.625-0.87496-117.92 0.02-8.98-0.0352-17.945 0.0248-26.925-0.02-2.25 0.7-5.26 3.35-5.65 9.96-3.01 20.305-4.53 30.425-6.9 0.52-0.1425 1.0543-0.21188 1.575-0.225zm180.7 140.65c1.33 4.75 0.12 9.71-1.4 14.25-3.34 7.31-9.28 13.01-15.7 17.65-5.73 4.41-13.485 4.96-18.825 10-0.7298-1.15-1.045-2.385-0.975-3.725 0.02-4.39-0.31-8.845 0.85-13.125 11.52-9.03 23.91-16.89 36.05-25.05zm-202.75 28.4c3.33 0.16 6.74-0.04 10 0.85 8.92 0.72 17.755 2.32 26.425 4.55l0.875 2.175c0.04 0.83 0.095 1.66 0.175 2.5-3.3302 5.4-7.365 10.295-11.325 15.225-3.78 1.38-5.7149-2.56-8.025-4.65-6.1698-6.77-12.305-13.59-18.125-20.65zm206.38 17.85c2.7599 20.56 5.5099 41.135 7.1 61.825 0.5999 7.33 0.045 14.715 0.875 22.025 0.46 6.03-0.63 12.02-0.45 18.05-0.12 11.71-1.2351 23.38-2.625 35-0.9701 6.05-1.515 12.31-3.975 18-5.64 3.24-11.25 6.595-17.4 8.775-1.51 0.68-3.1749 0.755-4.775 0.625-4.3099-4.43-9.2201-8.565-12.25-14.025-2.02-22.11-3.8799-44.305-4.65-66.525-0.9199-6.92-0.555-13.94-0.825-20.9-1.21-17.46-0.725-35-0.875-52.5 2.57-1.15 5.14-2.305 7.8-3.275 4.81-2.26 9.825-4.045 14.575-6.475 5.8-0.52 11.645-0.53 17.475-0.6z"/>
   <path id="path12-9" d="m640.57 58.81c2.51-0.65 5.81 0.07 6.95 2.64 0.95 13.1 0.56 26.33 1.57 39.42 0.14 0.68 0.43 2.05 0.57 2.74 1.13-0.11 2.35-0.1 3.29-0.88 6.75-4.63 13.37-9.45 20.26-13.87 3.28-2 6.58-4.17 10.33-5.18 3.5-0.51 6.08 2.48 7.84 5.1 5.1 7.56 8.97 15.87 12.86 24.11 4.38 10.15 9.52 20.14 12 30.98 1.28 4.19-3.03 6.6-5.79 8.71-13.88 9.72-28.18 18.88-42.98 27.16-3.41 2.17-5.11-3.11-7.43-4.75 2.87-3.43 5.88-6.76 8.97-10.01 1.22-1.1 0.43-2.87 0.17-4.23-3.63-11.52-6.71-23.21-10.38-34.71-0.1-0.61-0.3-1.82-0.4-2.43-3.23-0.82-6.56-0.3-9.5 1.2l-1.08 2.04c-0.69 18.37 0.08 36.75-0.05 55.13-0.08 22.68 0.13 45.36 0.1 68.04 0.77 6.3 0.32 12.65 0.43 18.98 0.08 16.4 0.19 32.8 0.43 49.2 2.89 7.22 9.93 11.4 14.39 17.37-4.09 0.21-8.15-0.22-12.17-0.84-5.98-0.1-12.02-0.55-17.94-0.6-9.62-0.92-19.37-0.27-28.91 1.02-4.3 0.54-8.7 0.08-12.95 0.99-5.56 0.01-11.48 1.06-16.7-1.37-2.72-1.24-5.46-2.47-8.27-3.5 0.14-0.33 0.41-0.98 0.55-1.31 5.03-2.92 9.39-6.84 13.58-10.83 3.69-3.74 7.46-7.9 8.49-13.23 3.08-14.75 3.44-29.86 4.4-44.84 0.13-43.7 0.72-87.39 1.23-131.07-0.14-1.65 0.36-3.5-0.49-5 1.42-3.72 0.3-8.07 0.65-12.04-2.49 0.73-4.96 1.5-7.41 2.32-1.13 0.04-2.26 0.08-3.37 0.12-0.52-0.85-1.08-1.69-1.58-2.53 1.69-2.2 3.94-3.83 6-5.66 14.77-14.53 29.5-29.11 44.21-43.7 2.09-2.46 5.04-3.94 8.13-4.69z"/>
   <path id="path14-1" d="m201.49 68.59c8.51 0.8 16.99 2.39 25.59 2.22 14 0.71 28.06 0.83 42.05-0.25 11.17-0.43 22.28-2.37 33.46-2.09-0.53 3.58-4.04 5.26-5.71 8.19-4.91 8.26-8.86 17.19-11.04 26.56-0.92 6.88-1.31 13.83-1.33 20.77-0.37 36.95-0.13 73.91 0.34 110.86-0.39 1.72 1.47 2.41 2.82 1.77 21.31-5.31 43.37-6.95 65.28-6.3 7.88 0.34 16.08-0.31 23.67 2.14-0.15 0.86-0.29 1.72-0.43 2.58-2.38 0.87-4.86 1.68-6.78 3.4-6.01 4.97-11.49 10.55-17.14 15.92-1.42 1.55-3.77 3.09-3.05 5.54 2.18 12.21 2.7 24.66 5.09 36.83 4.66 16.97 10.16 33.71 14.49 50.79 1.81 0 3.49-0.66 4.72-2.02 2.64-2.71 5.81-4.83 8.61-7.36 1.04-11.01 1.43-22.1 1.71-33.16 0.75-7.63 0.48-15.29 0.72-22.94 0.29-40.19-0.49-80.48-5.34-120.42-2.23 0.53-4.49 1.03-6.55 2.05-10.55 4.77-20.87 10.08-30.69 16.21-2.65 1.55-5.13 3.72-6.1 6.73-2.23 6.96-1.6 14.41-1.22 21.6-1.61 0.51-3.21 1.03-4.81 1.55-8.39-13.51-17.09-26.98-23.03-41.8-1.7-5.08-4.35-10.24-3.34-15.75 4.09-1.95 7.42-5.08 11.15-7.59 14.91-10.55 30.63-20.16 47.55-27.13 2.3-0.78 5.53-2.39 7.43-0.03 15.67 15.7 30.84 31.9 45.86 48.22 8.09 9.04 16.95 18.46 19.38 30.79 2.3 14.4 2.64 29 2.7 43.55-0.13 16.65 0.42 33.33-0.78 49.95-0.09 12.78-0.46 25.55-0.47 38.33 5.74 2.61 12.39 2.85 18.44 1.25-0.26 1.84-1.68 3.1-2.96 4.3-8.37 7.63-16.86 15.14-25.42 22.55-5.84 4.9-8.75 12.34-14.56 17.27-6.2 5.46-15.5 5.93-23.07 3.5-7.75-4.02-7.73-13.74-8.36-21.29-10.11 7.27-20.02 14.83-29.9 22.41-4.66 3.6-10.83 1.56-16.02 0.56-3.79-1.05-8.64-2.54-9.68-6.88-4.39-13.28-8.7-26.59-13.11-39.86-4.77-14.92-10.37-29.64-13.58-45.01-1.37-4.93 1.07-9.76 3.52-13.89 6.61-10.65 16.09-19.03 25.08-27.59-13.99 2.67-28.55 4.9-41.04 12.17-0.11 34.4 0.31 68.79 0.2 103.19 0.67 14.68-0.03 29.38 0.46 44.06 0.03 17.3 0.13 34.6 0.58 51.89 1.03 13.49 3.2 28.18 12.56 38.64 3.37 4.18 8.84 5.58 12.59 9.28-0.49 1.57-1.15 3.07-1.93 4.52-1.69 0.01-3.37 0.11-5.04-0.11-18.57-3.01-37.3-5.18-56.1-5.93-17.7-0.13-35.48-0.8-53.09 1.33-0.88-2.89-3.81-5.16-3.6-8.28 9.81-5.49 19.26-13.12 23.12-24.07 4.9-13.89 5.54-28.78 6.75-43.32 1.25-26.33 1.64-52.71 0.89-79.06-0.67-17.65-0.52-35.38-2.74-52.93-18.41 14.41-41.2 21.68-63.73 26.68 0.19 36.63 0.69 73.26 0.94 109.89 0.37 7.69-0.36 15.44 0.55 23.1 2.24 8.4 10.5 12.71 17.39 16.85 1.58 1.05 4.13 3.31 2.71 5.23-2.87 0.36-5.51-1.03-8.24-1.62-8.77-1.89-17.74-2.47-26.65-3.26-29.64-1.99-59.37-2.49-89.07-2.65-1.06-0.32-3.99-1.34-1.8-2.32 0.08-0.86 0.24-2.56 0.32-3.42 10.59-4.18 21.24-10.26 27.12-20.39 3.59-6.05 3.68-13.25 4.29-20.04 0.83-13.34 0.59-26.72 1.11-40.08 0.02-18.49-0.38-36.98-0.65-55.47-14.05-6.51-28.12-13.01-41.82-20.24-9.55-4.71-16.32-13.37-22.12-22.03-4.87-7.65-9.23-15.67-12.64-24.09v-2.05c15.28-6.93 32.11-9.33 48.59-11.59 0.01 1.63 0.48 3.78-1.26 4.72-10.27 6.15-21.12 11.34-31.13 17.95 3.36 3.93 7.55 6.99 11.74 9.96 11.58 8.02 24.12 14.55 36.8 20.64 3.46 1.55 6.87 3.65 10.78 3.69 0.62-6.47 0.22-12.99 0.29-19.48-0.45-13.3-0.1-26.64-1.1-39.92-0.33-10.02 0.01-20.07-0.9-30.05-0.81-33.38-2.3-66.74-3.54-100.09-2.04-10.46-11.21-17.59-20.85-20.84 0.17-1.99 1.36-3.99 3.42-4.44 3.38-0.31 6.79 0.05 10.17 0.27 4.64 0.68 9.33 0.25 14 0.35 6.98-0.09 13.99 0.32 20.95-0.46 10.66-0.21 21.33-0.26 32-0.52 9.12-0.71 18.28-0.84 27.43-0.88-0.32 1.97-0.65 3.93-0.97 5.89-5.67 2.9-9.26 8.65-10.77 14.69-1.1 6.27-0.95 12.67-1.03 19.02 0 16.67-0.04 33.34 0.56 49.99 0.35 14 0.12 28.03 1.06 42.01 0.18 10.68 0.23 21.37 0.63 32.05 0.81 13.61 0.82 27.28 1.83 40.9 6.58-0.91 12.5-4.22 18.37-7.12 15.92-8.78 31.43-18.53 45.54-30.03 0.15-56.66-1.42-113.36-5.91-169.83-0.21-5.91-4.93-10.15-9.91-12.53-2.78-1.12-3.63-4.1-3.3-6.85z"/>
   <path id="path16-3" d="m1314.8 67.43c3.04-0.58 3.78 2.7 3.68 5.03 0.11 13.86 0.68 27.71 0.84 41.57 0.46 8.15-0.31 16.41 0.87 24.48 9.68-0.11 19.36 0.33 29.05 0.29 0.2 1.76 0.37 3.53 0.6 5.29 0.83 2.89 0.37 5.96 1.24 8.84 0.33 3.13 0.63 6.28 0.81 9.43-9.31 0.2-18.62 0.36-27.93 0.44-1.29-0.09-2.5 0.28-3.65 0.73-1.75 28.13-0.31 56.32-0.89 84.48-0.5 24.37-1.66 48.72-2.33 73.09-0.82 3.58-0.34 7.3-0.6 10.94-1.06 27.64-2.56 55.3-3.51 82.95-0.41 7.04-1.91 15.16 2.7 21.21 7.47 7.56 16.11 13.93 24.98 19.76-1.84 2.08-3.51 4.43-5.81 6-1.8 0.01-3.34-1.13-4.92-1.75-18.27-9.07-36.73-17.81-54.34-28.14-4.48-2.63-8.87-5.73-11.7-10.17-2.78-4.08-3.57-9.11-3.61-13.94 0.34-26 0.68-52 1.74-77.98 0.86-25.71 3.71-51.28 4.22-77 0.51-26.63 0.26-53.39-2.44-79.87-0.21-3.87-0.73-7.7-1.54-11.48-14.2 0.06-28.39-0.2-42.58-0.2-0.18-2.5-0.28-5-0.09-7.5 17.21-9.59 33.04-21.58 47.89-34.51 14.52-12.86 27.66-27.27 39.2-42.86 2.47-3.24 4.84-6.63 8.12-9.13z"/>
   <path id="path18-5" d="m492.65 85.89c2.27-1.25 4.43-3.43 7.21-3.18 4.08 0.67 7.74 2.7 11.59 4.08 2.15 9.82 2.13 20.09 3.69 30.02 0.12 1.16 0.24 2.33 0.36 3.5 0.36 0.27 1.06 0.8 1.42 1.07 5.32-4.28 11.23-7.76 16.98-11.43 5.31-3.32 11.52-6.23 17.94-5.24 4.06 0.98 6.23 4.96 8.18 8.29 4.38 8.87 8.17 18.03 11.8 27.23 4.11 9.99 8.52 20.02 10.51 30.68-0.24 3.39-1.84 6.53-4.8 8.32-13.08 8.5-26.48 16.51-39.88 24.49-1.5 0.83-2.95 1.99-4.75 1.85-0.97-1.71-2.2-3.24-3.58-4.61 3.25-3.21 6.25-6.66 9.27-10.07-0.2-0.14-0.62-0.43-0.82-0.57-0.86-5.16-2.56-10.13-3.91-15.18-3.07-11.13-6.43-22.18-9.58-33.28-0.66-3.08-4.34-6.67-7.28-3.86-0.83 3.23-0.3 6.61-0.28 9.9 0.72 22.73 1.66 45.44 2.12 68.17 1.15 7.87 0.03 15.96 1.31 23.84 0.91 14.75 2.89 29.42 3.73 44.18 2.03 17.98 1.93 36.23 4.79 54.14 1.83 4.99 7.09 7.42 11.5 9.7 0.29 0.48 0.86 1.45 1.14 1.94-0.17 0.58-0.53 1.76-0.71 2.34-27.86 0.68-55.74 0.55-83.62 0.58-2.96 0-5.94 0.15-8.88-0.34 1.54-3.82 4.21-7.22 7.79-9.3 3.61-2.03 7.25-4.18 10.13-7.19 1.05-1.04 1.47-2.47 1.35-3.91 0.02-28.35-0.03-56.69-0.09-85.03 0.31-4.02-0.71-7.97-0.54-11.99 0.02-21.36-0.29-42.73-0.48-64.09-1.15-12.47-0.12-25.09-1.81-37.53-10.15-0.01-20.38-0.49-30.47 0.79-1.78-0.48-4.49-1.54-4.67-3.64 20.95-15.1 41.86-30.31 63.34-44.67z"/>
   <path id="path20-1" d="m1403.2 95.2c1.36-2.69 2.83-5.58 5.73-6.92 0.65 0.36 1.96 1.08 2.61 1.44 1.03 8.43 0.84 16.93 1.31 25.39 0.75 3.25 0.34 6.61 0.57 9.92 0.67 16.41 1.7 32.8 2.3 49.22 4.74-0.11 9.51 0.12 14.25-0.3 3.34 0.64 6.67-0.33 10.03-0.27 5.24 0.06 10.49 0.01 15.73-0.18-0.32 6.59 0.14 13.31-1.15 19.81-12.64 0.51-25.3 1.09-37.9 2.21 0.14 14.86-0.09 29.72 0.13 44.57 0.66 2.23 0.37 4.57 0.42 6.86-0.06 24.67 0.4 49.35 0.48 74.02 0.96 11.3 0.42 22.67 0.8 34.01 0.35 20.64 0.92 41.25 1.28 61.91 0.7 11.19 0.32 22.45 1.52 33.61 10.62 5.44 21.06 11.22 31.66 16.69 2.87 1.13 5.66 4.17 8.89 3.22 7.14-4.85 13.5-10.77 20.07-16.34 1.65-1.03 0.59-3 0.21-4.42-10.84-3.34-22.13-4.78-33.17-7.25-3.83-1.05-8.96-0.75-11.02-4.83 7.16-1.93 14.67-0.83 21.99-0.57 16.98 0.88 33.96 1.96 50.93 3.02 1.79 0.34 4.6 0.37 4.68 2.92 0.4 3.32-2.84 4.82-4.81 6.78-7.87 7.19-14.87 15.25-22.31 22.87-4.47 4.52-7.4 10.52-12.89 13.99-1.9 1.62-4.61 1.39-6.82 0.73-18.04-5.58-35.95-11.62-53.52-18.52-16.16-6.46-32.66-12.95-46.74-23.39-1.89-1.78-4.49-3.5-4.63-6.34-1.55-26.68-1.15-53.4-1.19-80.12 0.08-10.34 0.33-20.67 0.66-31 0.13-44.45-1-88.88-1.92-133.32-7.16 0.36-14.35 0.35-21.48-0.27-3.12-0.12-4.64-3.96-3.44-6.52 0.9-1.53 2.1-2.85 3.35-4.12 13.95-14.1 27.04-29.13 38.25-45.54 9.62-13.55 17.69-28.13 25.14-42.97z"/>
   <path id="path22-1" d="m1651 134.94c2.8-2.1 5.8 0.6 6.24 3.5 1.66 8.78 1.57 17.79 3.05 26.6 10.41-6.25 20.9-12.37 31.19-18.83 2.28-1.39 4.1-3.74 6.92-4.08 1.88-0.35 4.5-0.25 5.6 1.63 4.66 6.51 8.61 13.51 12.79 20.34 6.46 11.31 13.07 22.61 17.82 34.77 1.68 3.97 1.95 8.47 1.15 12.68-3.02 6.13-9.04 9.84-13.95 14.31-14.09 11.39-28.37 22.55-42.72 33.61-1.34-2.06-3.2-3.68-4.96-5.33 3.86-5.93 8.42-11.39 12.47-17.19 0.3-1.35-0.16-2.69-0.51-3.97-3.51-10.92-6.78-21.92-10.28-32.85-1.74-5.57-3.43-11.14-5.22-16.68-3.69 2.56-7.39 5.13-11.21 7.5 0.44 30.05 1.96 60.07 2.43 90.13 1.05 10.28 0.43 20.72 1.02 31.06 1.02 8.89 0.19 17.95 1.16 26.86 0.51 22.75 1.71 45.47 2.79 68.19 0.98 7.86 6.94 13.88 13.45 17.77 8.22 4.92 17.49 7.83 26.78 9.97 1.6 0.43 3.23 0.71 4.88 1.17 3.87 0.51 7.72 1.31 11.64 1.7-0.05 2.2-0.15 4.4-0.23 6.6-8.45 0.48-16.91-0.1-25.35 0.04-3.64-0.23-7.32 0.18-10.88-0.55-11.46 0.03-22.89-1.27-34.02-3.97-11.14-2.46-22.14-5.5-33.04-8.84-13.74-4.04-28.11-7.05-42.48-5.33-0.95-2.21-1.94-4.41-2.56-6.72 12.01-1.06 20.33-11.28 26.62-20.61 4.89-10.04 4.88-21.54 5.11-32.46 0.33-31.36-0.42-62.71-0.62-94.07-0.88-8.23-0.3-16.62-0.65-24.91 0.08-17.3-1.19-34.54-0.89-51.84-4.97-0.28-9.91 0.68-14.87 0.48-0.1-1.21-0.18-2.43-0.24-3.64 2.16-3.27 4.01-6.83 7.01-9.44 18.39-15.62 36.28-31.84 54.56-47.6z"/>
   <path id="path24-3" d="m1519.2 159.22c-2.6795 0.0758-5.3563 0.39375-7.9 1.075-19.11 14.91-37.605 30.66-56.825 45.4-2.05 9.59-2.25 19.525-3.55 29.225-0.11 6.44-2.61 12.585-2.55 19.025 1.13 26.31 0.865 52.63 1.225 78.95-0.1 6.44-2.175 12.63-2.425 19.05 3.74 3.89 7.19 8.06 10.9 12 13.32 13.7 26.675 27.62 42.475 38.5 2.46 1.91 5.645 2.275 8.625 2.825 7.6 0.7 15.27 1.585 22.9 0.425 3.7 0.23 6.49-2.585 8.55-5.325 6.94-10.2 14.8-19.735 22.3-29.525 4-5.61 8.95-10.625 11.95-16.875-6.58-9.49-11.56-20.29-19.6-28.65-0.91 0.08-2.74 0.255-3.65 0.325-0.68 6.25-2.15 12.345-3.5 18.475-3.89 15.94-8.125 31.95-15.275 46.8-0.81 1.49-1.675 4.49-3.875 3-11.06-6.22-19.21-17.535-22.05-29.875-1.72-10.27-1.155-20.75-2.025-31.1-0.28-12.98-0.515-25.96-0.525-38.95-0.09-1.68 0.15-3.48-0.7-5 0.98-1.54 0.58-3.335 0.2-4.975 0.46-7.04-1.705-14.705 1.975-21.275 10.59-0.12 20.795 3.04 31.025 5.4 6.13 1.49 12.23 3.095 18.35 4.675 1.29 0.39 2.575 0.68 3.925 1 4.44 1.18 8.915 2.24 13.375 3.4 1.61 0.36 3.745 0.845 4.925-0.725 8.89-8.28 14.37-19.42 19.95-30-1.92-6.64-4.855-13.04-7.125-19.6-3.39-8.95-6.82-17.885-10.1-26.875-2.11-5.1-3.6-10.465-5.9-15.475-6.79-4.28-14.09-7.79-21.1-11.75-2.63-1.37-5.27-2.72-7.9-4.05-6.95-3.43-13.795-7.285-21.275-9.425-1.5863-0.0937-3.1923-0.14547-4.8-0.1zm-1.75 17.525c1.8802 0.0446 3.5194 0.99375 3.9 3.225 3.89 10 7.84 19.955 11.8 29.925 5.12 12.61 9.77 25.43 15.2 37.9-0.03 0.85-0.035 1.7-0.025 2.55-6.1 0.31-12.18-0.84-18.2-1.5-8.64-0.5-17.23-1.73-25.85-2.45 0.03-10.2 1.12-20.345 1.5-30.525 1.24-11.95 0.32-24.565 5.45-35.725 1.0012-2.0419 3.8076-3.4573 6.2249-3.4z"/>
   <path id="path28" d="m772.27 179.65c8.47 1.67 17.2 0.56 25.76 1.56 7.67 0.15 15.28 0.98 22.87 1.94 4.27 0.15 8.61 0.36 12.82-0.64-0.1 0.84-0.19 1.69-0.28 2.53-3.63 5.92-7.11 12-9.73 18.45-9.28 20.04-20.13 39.28-30.89 58.56-9.68 17.08-18.29 34.75-27.82 51.92-25.14 45.17-52.55 89.21-83.96 130.31-17.09 0.33-34.16-1.14-51.12-3.16-16.1-2.51-32.14-5.68-47.79-10.27-5.4-1.45-10.71-3.24-16-5.03-3.69-1.33-7.42-2.54-11.05-4.02-3.79-1.44-7.5-3.05-11.21-4.64-6.63-2.89-13.1-6.11-19.45-9.54-0.45-3.72 2.3-6.99 3.89-10.18 6.7-10.54 15.58-19.43 24.6-27.96 13.04 0.88 26.04 2.44 39.06 3.52 3.23 0.94 7.04-0.41 9.89 1.71-0.31 1.85-2.25 2.02-3.63 2.54-10.74 2.96-21.54 5.68-32.23 8.82-2.26 0.42-2.56 3.03-3.46 4.75-1.73 4.72-4.07 9.42-4.2 14.55 7.7 3.68 16.41 4.21 24.71 5.68 27.3 3.7 55.03 5.39 82.49 2.6 9.96-16.33 20.36-32.4 30.5-48.63 3.02-4.42 5.52-9.19 8.88-13.37 1.54-1.92 0.63-4.61 0.23-6.79-7.01-24.7-14.75-49.19-22.36-73.71-3.3-10.35-6.58-20.71-9.95-31.03-1.73-4.98-3.26-10.04-5.02-15.01-1.87-5.07-3.36-10.3-5.73-15.17-2.89-3.58-7.92-4.32-12.23-4.76 0.39-1.34 1.04-2.58 1.89-3.69 3.45-0.04 6.89-0.15 10.34-0.35 10.92-1.08 21.99-0.52 32.95-1.28 14.24 0.2 28.42-1.8 42.61-2.26-2.76 5.98-10.96 5.26-14.53 10.46-1.8 2.01-2.03 4.87-1.31 7.38 5.55 21.22 11.12 42.45 17.12 63.55 0.87 2.38 1.08 5.21 3.15 6.94 10.07-15.76 18.8-32.33 28.03-48.6 3.7-6.81 7.46-13.59 10.89-20.54 1.66-3.37 1.81-7.2 3.13-10.68 1.25-4.05 2.59-8.08 4.02-12.07 0.68-1.74 1.4-3.48 2.09-5.22-6.92-0.66-12.81-4.83-17.97-9.17z"/>
   <path id="path36" d="m901.94 552.6c2.82 10.61 3.25 21.65 5.55 32.36 1.97-6.84 2.14-14.05 3.25-21.06-0.29 7.4-0.69 14.83-2.24 22.1h-2.37l0.58-0.66c-0.91-11-4.26-21.68-4.77-32.74z"/>
  </g>
 </g>
</svg>
