<svg height="729.99994" viewBox="0 0 2372.4458 729.99997" width="2372.4458" xmlns="http://www.w3.org/2000/svg" xmlns:xlink="http://www.w3.org/1999/xlink"><clipPath id="a"><path d="m411.591 515.351h94.948v18.13h-94.948z"/></clipPath><clipPath id="b"><path d="m412.392 532.67h93.284v-15.246h-93.284z"/></clipPath><clipPath id="c"><path d="m412.392 517.424h93.284v15.245h-93.284z"/></clipPath><linearGradient id="d" gradientTransform="matrix(0 17.057004 17.057004 0 474.76197 515.88703)" gradientUnits="userSpaceOnUse" spreadMethod="pad" x1="0" x2="1" y1="0" y2="0"><stop offset="0" stop-color="#820021"/><stop offset=".104411" stop-color="#ae2c3f"/><stop offset=".901742" stop-color="#ae2c3f"/><stop offset="1" stop-color="#ba3c4c"/></linearGradient><clipPath id="e"><path d="m411.591 515.351h94.948v18.13h-94.948z"/></clipPath><clipPath id="f"><path d="m505.836 530.723h.017v-.016h-.017z"/></clipPath><linearGradient id="g" gradientTransform="matrix(0 -17.343138 17.343138 0 459.06457 533.09243)" gradientUnits="userSpaceOnUse" spreadMethod="pad" x1="0" x2="1" y1="0" y2="0"><stop offset="0" stop-color="#868685"/><stop offset=".020448" stop-color="#d8d9d9"/><stop offset=".0524045" stop-color="#f5f5f5"/><stop offset=".487663" stop-color="#edeeee"/><stop offset=".895488" stop-color="#f5f5f5"/><stop offset=".929442" stop-color="#ebebec"/><stop offset=".964262" stop-color="#d8d9d9"/><stop offset="1" stop-color="#868685"/></linearGradient><path d="m414.085 532.944c-1.345 0-1.823-.794-1.823-2.114v-12.829c0-1.32.478-2.114 1.823-2.114h89.96c1.345 0 1.822.794 1.822 2.114v12.829c0 1.32-.477 2.114-1.822 2.114z" fill="url(#g)" transform="matrix(24.9869 0 0 -24.9869 -10284.383283 13330.023906)"/><g clip-path="url(#e)" transform="matrix(24.9869 0 0 -24.9869 -10284.383283 13330.023906)"><g transform="translate(503.9336 515.3505)"><path d="m0 0c1.996 0 2.605 1.241 2.605 2.482v13.166c0 1.241-.609 2.482-2.605 2.482h-89.738c-1.997 0-2.605-1.241-2.605-2.482v-13.166c0-1.241.608-2.482 2.605-2.482zm-89.646.167c-1.344 0-2.254.793-2.254 2.114v13.568c0 1.321.91 2.114 2.254 2.114h89.554c1.344 0 2.254-.793 2.254-2.114v-13.568c0-1.321-.91-2.114-2.254-2.114h-89.554z" fill="#a1a2a2"/></g><g><g/><g><g clip-path="url(#f)" opacity=".800003"><g/></g></g></g></g><path d="m443.657 532.944v-17.057h60.388c1.345 0 1.822.794 1.822 2.114v12.829c0 1.32-.477 2.114-1.822 2.114z" fill="url(#d)" transform="matrix(24.9869 0 0 -24.9869 -10284.383283 13330.023906)"/><g clip-path="url(#a)" transform="matrix(24.9869 0 0 -24.9869 -10284.383283 13330.023906)"><g transform="translate(452.075 519.0374)"><path d="m0 0c-.756 0-1.454.136-2.093.408-.639.273-1.192.649-1.661 1.129-.469.481-.836 1.052-1.102 1.714s-.4 1.377-.4 2.146c0 .747.134 1.446.4 2.098.266.651.633 1.217 1.102 1.697.469.481 1.022.857 1.661 1.129.639.273 1.337.409 2.093.409.543 0 1.07-.059 1.581-.176.512-.118.985-.268 1.422-.449.096-1.42-.25-2.13-1.038-2.13-.139 0-.266.016-.384.048-.117.032-.245.064-.383.096-.139.032-.293.064-.463.096-.171.032-.373.049-.607.049-.373 0-.724-.067-1.055-.201-.33-.133-.614-.326-.854-.576-.24-.251-.429-.553-.567-.905-.139-.352-.208-.748-.208-1.185 0-.46.069-.871.208-1.233.138-.363.327-.67.567-.921s.524-.443.854-.577c.331-.133.682-.2 1.055-.2.234 0 .442.016.623.048s.343.064.487.096.28.064.407.096c.128.032.261.048.4.048.777 0 1.123-.71 1.038-2.13-.437-.181-.924-.331-1.462-.448s-1.078-.176-1.621-.176" fill="#fff"/></g><g transform="translate(457.5874 519.1654)"><path d="m0 0c-.224 0-.445.011-.663.032s-.402.048-.551.08v9.273c0 .309.096.573.287.792.192.219.554.329 1.087.329.223 0 .444-.011.663-.033.218-.021.402-.048.551-.08v-9.272c0-.31-.096-.574-.288-.793-.191-.219-.554-.328-1.086-.328" fill="#fff"/></g><g transform="translate(461.9564 519.1654)"><path d="m0 0c-.213 0-.421.011-.623.032-.203.021-.373.048-.511.08v10.201c.159.054.367.099.623.137.255.037.473.056.655.056.585 0 1.011-.075 1.278-.225.266-.149.489-.368.671-.656l3.626-5.717v5.573c0 .138.018.269.056.392.037.123.101.232.191.328.091.096.216.171.376.224.159.054.362.081.607.081.213 0 .418-.011.615-.033.197-.021.364-.042.503-.063v-10.218c-.149-.075-.33-.125-.543-.152s-.421-.04-.623-.04c-.501 0-.874.069-1.118.208-.246.139-.448.331-.607.577l-3.882 6.214v-5.942c0-.299-.091-.55-.272-.753s-.522-.304-1.022-.304" fill="#fff"/></g><g transform="translate(473.3041 519.2296)"><path d="m0 0c-.298 0-.541.032-.727.096s-.33.152-.431.264c-.102.112-.171.248-.208.409-.037.16-.056.33-.056.512v7.847c0 .182.019.353.056.513s.106.296.208.408c.101.112.245.2.431.264s.429.096.727.096h5.287c.022-.117.043-.277.064-.48.022-.203.032-.411.032-.624 0-.449-.09-.767-.271-.953-.182-.187-.41-.281-.687-.281h-3.259v-1.825h3.754c.021-.107.043-.249.064-.425s.032-.366.032-.568c0-.427-.086-.718-.256-.873s-.383-.232-.639-.232h-2.955v-1.81h4.281c.021-.118.043-.28.064-.488.021-.209.032-.414.032-.617 0-.459-.091-.779-.272-.961-.181-.181-.41-.272-.686-.272z" fill="#fff"/></g><g transform="translate(480.983 519.1654)"><path d="m0 0c-.245 0-.461.024-.647.072-.187.048-.349.104-.487.168l.976 9.977c.203.086.469.155.799.208.33.054.612.081.846.081.33 0 .615-.022.854-.065.24-.042.445-.114.615-.216.17-.101.306-.243.407-.424.101-.182.178-.406.232-.673l.415-1.937c.117-.534.242-1.124.375-1.77s.253-1.311.359-1.994h.064c.117.683.239 1.345.367 1.986s.261 1.228.399 1.761l.51 2.034c.128.502.332.844.614 1.025.282.182.721.273 1.316.273.298 0 .598-.025.901-.073s.556-.098.758-.152l.934-10.041c-.149-.053-.328-.107-.535-.16-.208-.053-.434-.08-.679-.08-.341 0-.629.059-.863.176-.234.118-.362.337-.383.657l-.24 3.459c-.053.609-.098 1.246-.136 1.914-.037.667-.061 1.299-.072 1.898h-.032c-.138-.556-.279-1.156-.423-1.802s-.29-1.241-.439-1.786l-.655-2.722c-.16-.641-.666-.961-1.518-.961-.213 0-.431.021-.655.064-.223.042-.415.09-.575.144l-.814 3.395c-.16.63-.309 1.249-.447 1.858-.139.608-.267 1.217-.384 1.825h-.048c-.032-.854-.074-1.636-.128-2.346-.053-.71-.101-1.321-.143-1.833l-.256-3.123c-.021-.31-.138-.523-.351-.641-.214-.117-.49-.176-.831-.176" fill="#fff"/></g><g transform="translate(496.0557 523.5375)"><path d="m0 0h2.39l-1.192 3.923zm-2.492-4.404c-.202 0-.434.019-.694.056-.262.037-.477.088-.647.152l3.314 10.153c.288.075.579.129.873.161s.563.048.809.048c.352 0 .654-.027.905-.08.251-.054.462-.134.633-.241s.312-.248.424-.424.206-.382.281-.617l2.84-8.984c-.181-.075-.399-.131-.655-.168-.255-.037-.506-.056-.75-.056-.278 0-.546.045-.807.136s-.45.296-.567.617l-.544 1.649h-3.484l-.461-1.553c-.117-.374-.314-.609-.591-.705s-.57-.144-.879-.144" fill="#fff"/></g><g transform="translate(423.1164 522.7819)"><path d="m0 0c0-1.46-.955-2.527-2.894-2.738-1.404-.15-3.438.027-4.404.138-.036.158-.064.354-.064.508 0 1.278.691 1.569 1.338 1.569.672 0 1.73-.116 2.518-.116.865 0 1.129.294 1.129.573 0 .367-.349.52-1.021.648l-1.839.354c-1.531.293-2.348 1.352-2.348 2.476 0 1.366.967 2.509 2.868 2.72 1.438.155 3.187-.02 4.148-.138.035-.165.053-.321.053-.492 0-1.274-.671-1.549-1.319-1.549-.497 0-1.269.093-2.15.093-.897 0-1.269-.248-1.269-.55 0-.319.355-.451.916-.549l1.758-.326c1.806-.333 2.58-1.359 2.58-2.621m3.155-1.568c0-.783-.307-1.235-1.836-1.235-.203 0-.38.015-.55.04v10.39c0 .789.269 1.612 1.813 1.612.194 0 .391-.02.573-.058zm6.25-4.019c.2-.103.612-.227 1.131-.241.886-.019 1.371.321 1.73 1.116l4.764 10.626c-.197.106-.631.223-.988.231-.612.011-1.434-.114-1.96-1.367l-1.543-3.641-3.025 4.927c-.195.06-.671.146-1.021.146-1.067 0-1.665-.394-2.284-1.066l-2.941-3.217 2.366-3.723c.437-.678 1.013-1.024 1.949-1.024.612 0 1.121.139 1.357.252l-2.848 4.295 2.019 2.139 3.311-5.197z" fill="#ae2c3f"/></g><g><g/><g><g clip-path="url(#b)" opacity=".399994"><g><g><g clip-path="url(#c)"><g transform="translate(504.1664 519.8869)"><path d="m0 0c1.156-1.145 1.313-2.225 1.354-2.463.114 0 .156.506.156 1.261l-.004 12.109c0 1.402-.456 1.876-1.644 1.876-.402 0-.804-.216-1.339-.216h-87.31c-.536 0-.938.216-1.34.216-1.187 0-1.643-.474-1.643-1.876l-.004-12.109c0-.755.041-1.261.155-1.261.041.238.076 1.402 1.354 2.463 10.208 7.878 79.259 10.296 90.265 0" fill="#fff"/></g></g></g></g></g></g></g></g><g transform="matrix(1.010938 0 0 1.010938 428.53148 393.214038)"><path d="m603.64 167.79c22.24-2.64 44.84 1.23 65.87 8.57.01 6.19.17 13.14-3.87 18.25-3.26 3.87-8.9 3.77-13.45 2.91-14.84-3.01-30.07-6.21-45.26-4.13-6.79.98-14 3.64-17.88 9.65-4.38 6.82-2.92 17.36 4.38 21.59 8.09 5 17.58 6.83 26.58 9.55 14.64 4.34 30.42 7.28 42.52 17.27 7.88 6.24 13.33 15.5 14.47 25.53 1.7 13.87-1.51 29.23-11.71 39.33-9.87 9.68-23.7 14.1-37.18 15.5-23.27 2.36-46.71-2.07-68.79-9.25-.67-6.29-.2-13.32 3.76-18.52 4.15-5.01 11.44-3.7 17.02-2.53 15.61 3.69 31.78 7 47.86 4.57 6.45-.97 13.08-3.68 16.93-9.2 5.33-7.17 5.29-18.88-2.11-24.66-6.35-5-14.49-6.74-22.06-9.05-16.17-4.75-33.76-7.7-47.08-18.83-15.8-13.52-18.45-38.79-7.37-56.03 8.32-12.29 23.05-18.67 37.37-20.52z"/><path d="m1203.33 171.29c10.38-3.94 21.65-4.54 32.64-4.27 16.21.56 32.26 3.92 47.54 9.33.07 6.21.25 13.16-3.81 18.31-3.07 3.63-8.41 3.72-12.72 2.97-12.85-2.53-25.82-5.34-38.99-4.86-7.78.27-16.16 1.7-22.18 7.02-7.04 6.15-7.01 19.14 1.07 24.41 7.6 4.95 16.63 6.87 25.21 9.42 13.73 4.15 28.32 6.74 40.45 14.86 8.33 5.43 15.09 13.65 17.55 23.41 2.43 9.77 1.68 20.24-1.51 29.75-3.51 10.38-11.77 18.62-21.52 23.35-15.15 7.4-32.56 8.26-49.1 6.99-15.22-1.28-30.23-4.67-44.7-9.51-.24-6.67-.17-14.37 4.85-19.45 4.35-3.8 10.66-2.58 15.83-1.57 13.77 3.25 27.85 6.25 42.09 5.27 7.47-.46 15.67-1.94 21.04-7.61 5.51-5.44 7.25-14.35 4.13-21.43-2.03-4.47-6.3-7.32-10.63-9.25-18.18-7.61-38.64-9.11-55.84-19.15-12.56-6.98-20.92-20.88-21.01-35.26-.34-10.32 2.33-21.16 9.16-29.12 5.33-6.41 12.77-10.64 20.45-13.61z"/><path d="m223.92 171.24c10.78-3.31 22.85-4.59 33.64-.7 6.72 2.45 9.49 9.69 10.69 16.17 8.7 34.55 17.45 69.09 26.19 103.63 9.79-36.07 18.58-72.42 28.17-108.55 1.64-5.78 6.26-10.54 12.11-12.07 10-2.79 20.72-1.46 30.67.95 5.06 52.7 10.39 105.38 15.5 158.07-7.12 2.7-15.37 4.15-22.57.97-3.08-1.2-4.5-4.61-4.75-7.7-3.44-42.07-6.94-84.14-10.43-126.21-10.53 37.42-20.15 75.12-30.47 112.6-1.16 4.06-3.98 7.73-8 9.27-6.78 2.72-14.34 2-21.4 1.01-1.67-.53-4.38-.23-4.66-2.48-11.24-40.26-22.34-80.57-33.61-120.82-3.93 42.4-7.65 84.83-11.55 127.23-.23 2.97-1.89 5.91-4.7 7.14-6.78 3.04-14.61 1.76-21.29-.93 5.37-52.53 10.89-105.06 16.46-157.58z"/><path d="m412.06 168.72c6.43-1.05 13.05-.43 19.44.68v94.58c.07 11.18 2.5 22.93 9.79 31.73 5.12 6.45 12.82 10.54 20.91 11.79 9.17 1.31 19.02.62 27.21-4.03 9.45-5.31 15.78-15.14 18.06-25.6 2-8.15 1.46-16.6 1.53-24.91 0-24.32 0-48.64 0-72.96-.32-4.95 2.87-10.19 7.94-11.14 6.52-1.32 13.3-.54 19.81.51.01 28.22 0 56.44 0 84.65-.06 6.64.28 13.3-.6 19.89-1.9 16.69-9.25 33.14-22.05 44.28-12.03 10.41-28.22 15.81-44.09 14.81-17.8 1.24-36.05-5.69-48.2-18.79-12.49-13.05-18.04-31.42-18.31-49.19.02-28.62-.04-57.24.02-85.86.02-4.89 3.5-9.77 8.54-10.44z"/><path d="m710.83 168.54c6.21-.73 12.54-.25 18.69.87-.04 50.2 0 100.4-.02 150.6.08 4.65-2.72 9.73-7.48 10.86-6.72 1.72-13.75.63-20.5-.33-.04-50.51-.03-101.02-.01-151.52-.12-5.22 4.1-10.01 9.32-10.48z"/><path d="m798.65 174.74c12.74-6.24 27.2-8.03 41.25-7.09 13.24.81 26.28 4.06 38.59 8.97.69 5.21.91 10.75-1.27 15.67-1.62 3.75-5.01 6.94-9.19 7.37-4.75.45-9.14-1.81-13.56-3.13-13.94-4.44-29.81-4.96-43.11 1.79-14.52 7.18-24.24 21.94-27.09 37.66-2.64 14.59-1.6 30.26 4.93 43.74 5.11 10.7 14.24 19.6 25.46 23.67 14.18 5.24 30.13 3.81 44.02-1.64 5.73-2.48 13.5-2.32 17.64 2.96 4.03 5.18 3.8 12.32 3 18.51-16.7 7.28-35.16 10.13-53.29 9.02-18.84-1.1-37.23-9.33-50.3-22.98-12.47-13.02-19.94-30.46-21.78-48.31-1.4-14.41-.13-29.26 5.19-42.81 7.03-18.77 21.23-34.95 39.51-43.4z"/><path d="m945.74 169.81c7.9-1.89 16.09-2.5 24.19-1.87 4.16.4 8.49 1.56 11.7 4.39 3.54 3.24 5.2 7.89 6.75 12.3 16.4 47.96 32.88 95.89 49.25 143.85-7.69 3.2-16.46 4.51-24.47 1.71-2.96-.96-4.72-3.77-5.72-6.54-4.13-11.94-8.02-23.96-12.16-35.89-21-.01-41.99-.01-62.99 0-3.91 11.69-7.8 23.4-11.7 35.1-1.09 3.44-3.36 6.91-7.08 7.8-7.52 1.97-15.8 1.23-22.9-1.89 18.31-53.02 36.67-106.01 55.13-158.96m-5.45 93.93c15.77.04 31.54-.03 47.31.03-7.73-23.85-15.7-47.62-23.52-71.44-7.9 23.81-15.86 47.6-23.79 71.41z"/><path d="m1061.11 168.91c6.63-1.38 13.56-.63 20.19.5-.11 45.11-.02 90.22-.05 135.33 25.6.02 51.2 0 76.8.02 1.05 6.28 2.15 12.96.09 19.15-1.61 4.52-6.75 6.35-11.18 6.32-26.33.06-52.66-.01-78.98.03-3.92-.11-8.24-.27-11.42-2.84-3.23-3.63-3.43-8.8-3.33-13.41.05-44.68-.02-89.36.04-134.04-.13-4.85 2.79-10.08 7.84-11.06z"/></g></svg>