<?xml version="1.0" encoding="UTF-8" standalone="no"?>
<!-- Created with Inkscape (http://www.inkscape.org/) -->

<svg
   xmlns:dc="http://purl.org/dc/elements/1.1/"
   xmlns:cc="http://creativecommons.org/ns#"
   xmlns:rdf="http://www.w3.org/1999/02/22-rdf-syntax-ns#"
   xmlns:svg="http://www.w3.org/2000/svg"
   xmlns="http://www.w3.org/2000/svg"
   xmlns:sodipodi="http://sodipodi.sourceforge.net/DTD/sodipodi-0.dtd"
   xmlns:inkscape="http://www.inkscape.org/namespaces/inkscape"
   width="838.89575mm"
   height="206.0222mm"
   viewBox="0 0 2972.4653 729.99997"
   id="svg21238"
   version="1.1"
   inkscape:version="0.91 r13725"
   sodipodi:docname="Sky Cinema Premiere +1 - Dark.svg">
  <defs
     id="defs21240">
    <clipPath
       clipPathUnits="userSpaceOnUse"
       id="clipPath6800">
      <path
         d="m 96.036,588.189 c 0,0 -4.583,0 -4.583,-4.584 l 0,0 0,-15.278 c 0,0 0,-4.584 4.583,-4.584 l 0,0 37.605,0 c 0,0 4.584,0 4.584,4.584 l 0,0 0,15.278 c 0,0 0,4.584 -4.584,4.584 l 0,0 -37.605,0 z"
         id="path6802"
         inkscape:connector-curvature="0" />
    </clipPath>
    <linearGradient
       x1="0"
       y1="0"
       x2="1"
       y2="0"
       gradientUnits="userSpaceOnUse"
       gradientTransform="matrix(0,6.4463126,6.4463126,0,116.20463,572.83974)"
       spreadMethod="pad"
       id="linearGradient6782">
      <stop
         style="stop-opacity:1;stop-color:#af6773"
         offset="0"
         id="stop6784" />
      <stop
         style="stop-opacity:1;stop-color:#c9747a"
         offset="0.104411"
         id="stop6786" />
      <stop
         style="stop-opacity:1;stop-color:#c9747a"
         offset="0.898134"
         id="stop6788" />
      <stop
         style="stop-opacity:1;stop-color:#d49093"
         offset="0.999673"
         id="stop6790" />
      <stop
         style="stop-opacity:1;stop-color:#d49093"
         offset="1"
         id="stop6792" />
    </linearGradient>
    <linearGradient
       x1="0"
       y1="0"
       x2="1"
       y2="0"
       gradientUnits="userSpaceOnUse"
       gradientTransform="matrix(0,-6.5544441,6.5544441,0,114.83862,579.34444)"
       spreadMethod="pad"
       id="linearGradient6752">
      <stop
         style="stop-opacity:1;stop-color:#b4b2b1"
         offset="0"
         id="stop6754" />
      <stop
         style="stop-opacity:1;stop-color:#e8e8e9"
         offset="0.020448"
         id="stop6756" />
      <stop
         style="stop-opacity:1;stop-color:#f9f9fa"
         offset="0.0524045"
         id="stop6758" />
      <stop
         style="stop-opacity:1;stop-color:#f5f5f5"
         offset="0.487663"
         id="stop6760" />
      <stop
         style="stop-opacity:1;stop-color:#f9f9fa"
         offset="0.895488"
         id="stop6762" />
      <stop
         style="stop-opacity:1;stop-color:#f4f3f4"
         offset="0.929442"
         id="stop6764" />
      <stop
         style="stop-opacity:1;stop-color:#e8e8e9"
         offset="0.964262"
         id="stop6766" />
      <stop
         style="stop-opacity:1;stop-color:#b4b2b1"
         offset="1"
         id="stop6768" />
    </linearGradient>
    <clipPath
       clipPathUnits="userSpaceOnUse"
       id="clipPath6702">
      <path
         d="m 96.036,588.189 c 0,0 -4.583,0 -4.583,-4.584 l 0,0 0,-15.278 c 0,0 0,-4.584 4.583,-4.584 l 0,0 37.605,0 c 0,0 4.584,0 4.584,4.584 l 0,0 0,15.278 c 0,0 0,4.584 -4.584,4.584 l 0,0 -37.605,0 z"
         id="path6704"
         inkscape:connector-curvature="0" />
    </clipPath>
    <linearGradient
       x1="0"
       y1="0"
       x2="1"
       y2="0"
       gradientUnits="userSpaceOnUse"
       gradientTransform="matrix(0,6.4463126,6.4463126,0,116.20463,572.83974)"
       spreadMethod="pad"
       id="linearGradient6684">
      <stop
         style="stop-opacity:1;stop-color:#810a32"
         offset="0"
         id="stop6686" />
      <stop
         style="stop-opacity:1;stop-color:#a90e3a"
         offset="0.104411"
         id="stop6688" />
      <stop
         style="stop-opacity:1;stop-color:#a90e3a"
         offset="0.898134"
         id="stop6690" />
      <stop
         style="stop-opacity:1;stop-color:#b94556"
         offset="0.999673"
         id="stop6692" />
      <stop
         style="stop-opacity:1;stop-color:#b94556"
         offset="1"
         id="stop6694" />
    </linearGradient>
    <linearGradient
       x1="0"
       y1="0"
       x2="1"
       y2="0"
       gradientUnits="userSpaceOnUse"
       gradientTransform="matrix(0,-6.5544441,6.5544441,0,114.83862,579.34444)"
       spreadMethod="pad"
       id="linearGradient6654">
      <stop
         style="stop-opacity:1;stop-color:#888685"
         offset="0"
         id="stop6656" />
      <stop
         style="stop-opacity:1;stop-color:#d9d9da"
         offset="0.020448"
         id="stop6658" />
      <stop
         style="stop-opacity:1;stop-color:#f5f5f6"
         offset="0.0524045"
         id="stop6660" />
      <stop
         style="stop-opacity:1;stop-color:#eeefef"
         offset="0.487663"
         id="stop6662" />
      <stop
         style="stop-opacity:1;stop-color:#f5f5f6"
         offset="0.895488"
         id="stop6664" />
      <stop
         style="stop-opacity:1;stop-color:#ebebec"
         offset="0.929442"
         id="stop6666" />
      <stop
         style="stop-opacity:1;stop-color:#d9d9da"
         offset="0.964262"
         id="stop6668" />
      <stop
         style="stop-opacity:1;stop-color:#888685"
         offset="1"
         id="stop6670" />
    </linearGradient>
    <clipPath
       clipPathUnits="userSpaceOnUse"
       id="clipPath6636">
      <path
         d="m 92.357,572.637 44.961,0 0,6.852 -44.961,0 0,-6.852 z"
         id="path6638"
         inkscape:connector-curvature="0" />
    </clipPath>
  </defs>
  <sodipodi:namedview
     id="base"
     pagecolor="#ffffff"
     bordercolor="#666666"
     borderopacity="1.0"
     inkscape:pageopacity="0.0"
     inkscape:pageshadow="2"
     inkscape:zoom="0.35"
     inkscape:cx="1451.4055"
     inkscape:cy="326.72875"
     inkscape:document-units="px"
     inkscape:current-layer="layer1"
     showgrid="false"
     fit-margin-top="0"
     fit-margin-left="0"
     fit-margin-right="0"
     fit-margin-bottom="0"
     inkscape:window-width="1920"
     inkscape:window-height="1017"
     inkscape:window-x="-8"
     inkscape:window-y="-8"
     inkscape:window-maximized="1" />
  <metadata
     id="metadata21243">
    <rdf:RDF>
      <cc:Work
         rdf:about="">
        <dc:format>image/svg+xml</dc:format>
        <dc:type
           rdf:resource="http://purl.org/dc/dcmitype/StillImage" />
        <dc:title></dc:title>
      </cc:Work>
    </rdf:RDF>
  </metadata>
  <g
     inkscape:label="Layer 1"
     inkscape:groupmode="layer"
     id="layer1"
     transform="translate(-289.04242,390.49821)">
    <g
       id="g4229"
       transform="matrix(52.889667,0,0,52.889667,-14998.305,-17893.638)">
      <g
         id="g6632"
         transform="matrix(1.25,0,0,-1.25,173.59598,1055.2981)">
        <g
           clip-path="url(#clipPath6636)"
           id="g6634">
          <g
             transform="translate(136.3357,572.637)"
             id="g6640">
            <path
               inkscape:connector-curvature="0"
               id="path6642"
               style="fill:#a1a2a2;fill-opacity:1;fill-rule:nonzero;stroke:none"
               d="m 0,0 c 0.755,0 0.985,0.469 0.985,0.938 l 0,4.976 C 0.985,6.383 0.755,6.852 0,6.852 l -42.994,0 c -0.755,0 -0.985,-0.469 -0.985,-0.938 l 0,-4.976 C -43.979,0.469 -43.749,0 -42.994,0 L 0,0 m -42.959,0.063 c -0.508,0 -0.852,0.3 -0.852,0.799 l 0,5.128 c 0,0.499 0.344,0.799 0.852,0.799 l 42.924,0 c 0.508,0 0.852,-0.3 0.852,-0.799 l 0,-5.128 c 0,-0.499 -0.344,-0.799 -0.852,-0.799 l -42.924,0" />
          </g>
        </g>
      </g>
      <g
         id="g6644"
         transform="matrix(1.25,0,0,-1.25,173.59598,1055.2981)">
        <g
           id="g6646">
          <g
             id="g6652">
            <path
               inkscape:connector-curvature="0"
               id="path6672"
               style="fill:url(#linearGradient6654);stroke:none"
               d="m 93.299,579.289 c -0.508,0 -0.688,-0.3 -0.688,-0.8 l 0,0 0,-4.848 c 0,-0.499 0.18,-0.799 0.688,-0.799 l 0,0 11.177,0 0,3.64 c -0.672,-0.053 -1.325,-0.109 -1.959,-0.172 l 0,0 -1.186,-2.646 c -0.132,-0.292 -0.31,-0.422 -0.627,-0.422 l 0,0 c -0.009,0 -0.018,0 -0.027,0.001 l 0,0 c -0.197,0.006 -0.352,0.052 -0.428,0.091 l 0,0 0.763,1.609 -0.718,1.125 c -0.402,-0.05 -0.795,-0.101 -1.174,-0.155 l 0,0 0.954,-1.439 c -0.089,-0.042 -0.282,-0.094 -0.513,-0.094 l 0,0 c -0.354,0 -0.572,0.13 -0.736,0.387 l 0,0 -0.639,1.006 c -0.1,-0.016 -0.201,-0.032 -0.298,-0.048 l 0,0 0,-0.872 c 0,-0.296 -0.117,-0.467 -0.694,-0.467 l 0,0 c -0.077,0 -0.144,0.006 -0.208,0.016 l 0,0 0,1.162 c -0.099,-0.019 -0.196,-0.037 -0.293,-0.056 l 0,0 c 0.001,-0.021 0.002,-0.042 0.002,-0.062 l 0,0 c 0,-0.552 -0.361,-0.955 -1.093,-1.035 l 0,0 c -0.146,-0.016 -0.31,-0.022 -0.478,-0.022 l 0,0 c -0.445,0 -0.922,0.043 -1.187,0.074 l 0,0 c -0.014,0.059 -0.024,0.134 -0.024,0.191 l 0,0 c 0,0.027 0.001,0.053 0.002,0.077 l 0,0 c -0.284,-0.122 -0.515,-0.249 -0.684,-0.38 l 0,0 c -0.483,-0.4 -0.497,-0.84 -0.512,-0.93 l 0,0 c -0.043,0 -0.059,0.191 -0.059,0.477 l 0,0 0.001,4.575 c 0,0.53 0.173,0.709 0.622,0.709 l 0,0 c 0.152,0 0.304,-0.082 0.507,-0.082 l 0,0 10.686,0 0,0.186 23.457,0 0,-0.186 7.955,0 c 0.203,0 0.355,0.082 0.507,0.082 l 0,0 c 0.449,0 0.622,-0.179 0.622,-0.709 l 0,0 0.001,-4.575 c 0,-0.286 -0.015,-0.477 -0.059,-0.477 l 0,0 c -0.015,0.09 -0.074,0.497 -0.512,0.93 l 0,0 c -0.378,0.354 -1.011,0.667 -1.854,0.943 l 0,0 0.002,-0.863 c 0,-0.122 -0.038,-0.227 -0.113,-0.313 l 0,0 c -0.076,-0.087 -0.22,-0.13 -0.431,-0.131 l 0,0 -0.006,0 c -0.086,0 -0.172,0.004 -0.256,0.012 l 0,0 c -0.087,0.008 -0.16,0.018 -0.219,0.031 l 0,0 -0.004,1.558 c -0.394,0.098 -0.818,0.191 -1.27,0.278 l 0,0 c -0.016,-0.056 -0.041,-0.1 -0.074,-0.132 l 0,0 c -0.065,-0.061 -0.144,-0.091 -0.238,-0.091 l 0,0 -0.817,-0.002 0.002,-0.89 c 0,-0.094 -0.028,-0.172 -0.085,-0.236 l 0,0 c -0.058,-0.063 -0.163,-0.095 -0.318,-0.095 l 0,0 -0.004,0 c -0.068,0 -0.132,0.003 -0.194,0.009 l 0,0 c -0.063,0.006 -0.117,0.013 -0.161,0.021 l 0,0 -0.002,1.189 -1.105,-0.003 c -0.008,0.041 -0.016,0.089 -0.025,0.144 l 0,0 c -0.008,0.055 -0.012,0.119 -0.013,0.192 l 0,0 c 0,0.155 0.033,0.262 0.098,0.323 l 0,0 c 0.005,0.006 0.011,0.011 0.017,0.016 l 0,0 c -0.466,0.056 -0.947,0.107 -1.444,0.156 l 0,0 0,-3.625 8.445,0 c 0.507,0 0.688,0.3 0.688,0.799 l 0,0 0,4.848 c 0,0.5 -0.181,0.8 -0.688,0.8 l 0,0 -43.079,0 z m 7.948,-3.11 0.187,-0.304 0.145,0.34 c -0.112,-0.012 -0.222,-0.023 -0.332,-0.036 m -5.888,-0.975 0.011,0 c 0.197,0 0.312,0.041 0.372,0.096 l 0,0 c -0.132,-0.032 -0.26,-0.063 -0.383,-0.096" />
          </g>
        </g>
      </g>
      <g
         id="g6674"
         transform="matrix(1.25,0,0,-1.25,173.59598,1055.2981)">
        <g
           id="g6676">
          <g
             id="g6682">
            <path
               inkscape:connector-curvature="0"
               id="path6696"
               style="fill:url(#linearGradient6684);stroke:none"
               d="m 104.476,579.1 23.458,0 0,0.185 -23.458,0 0,-0.185 z m 11.644,-2.162 0,-0.479 1.419,0 c 0.008,-0.041 0.016,-0.094 0.024,-0.16 l 0,0 c 0.009,-0.067 0.012,-0.139 0.012,-0.215 l 0,0 c 0,-0.162 -0.032,-0.272 -0.096,-0.331 l 0,0 c -0.065,-0.058 -0.145,-0.087 -0.242,-0.087 l 0,0 -1.117,0 0,-0.684 1.618,0 c 0.008,-0.045 0.016,-0.106 0.024,-0.184 l 0,0 c 0.008,-0.08 0.012,-0.157 0.012,-0.234 l 0,0 c 0,-0.173 -0.034,-0.294 -0.103,-0.363 l 0,0 c -0.068,-0.068 -0.154,-0.103 -0.259,-0.103 l 0,0 -1.732,0 c -0.114,0 -0.205,0.013 -0.275,0.036 l 0,0 c -0.071,0.025 -0.125,0.058 -0.164,0.1 l 0,0 c -0.037,0.042 -0.063,0.095 -0.078,0.155 l 0,0 c -0.013,0.06 -0.021,0.125 -0.021,0.193 l 0,0 0,2.349 c -0.234,-0.002 -0.468,-0.004 -0.703,-0.008 l 0,0 0,-2.776 c -0.056,-0.029 -0.125,-0.048 -0.205,-0.058 l 0,0 c -0.081,-0.01 -0.159,-0.015 -0.235,-0.015 l 0,0 c -0.189,0 -0.33,0.026 -0.423,0.079 l 0,0 c -0.092,0.052 -0.169,0.124 -0.229,0.218 l 0,0 -1.467,2.348 0,-2.245 c 0,-0.114 -0.034,-0.208 -0.103,-0.285 l 0,0 c -0.068,-0.076 -0.197,-0.115 -0.386,-0.115 l 0,0 c -0.081,0 -0.159,0.004 -0.236,0.013 l 0,0 c -0.076,0.008 -0.141,0.018 -0.193,0.029 l 0,0 0,2.725 c -0.236,-0.008 -0.469,-0.017 -0.703,-0.026 l 0,0 0,-2.317 c 0,-0.117 -0.036,-0.217 -0.109,-0.3 l 0,0 c -0.072,-0.083 -0.209,-0.124 -0.41,-0.124 l 0,0 c -0.085,0 -0.169,0.004 -0.25,0.013 l 0,0 c -0.083,0.008 -0.153,0.018 -0.209,0.029 l 0,0 0,2.659 c -0.829,-0.037 -1.648,-0.08 -2.45,-0.129 l 0,0 c -0.023,-0.041 -0.043,-0.086 -0.062,-0.133 l 0,0 c -0.052,-0.133 -0.078,-0.283 -0.078,-0.447 l 0,0 c 0,-0.174 0.026,-0.33 0.078,-0.467 l 0,0 c 0.052,-0.137 0.124,-0.253 0.214,-0.348 l 0,0 c 0.091,-0.094 0.198,-0.167 0.323,-0.218 l 0,0 c 0.125,-0.05 0.258,-0.075 0.399,-0.075 l 0,0 c 0.088,0 0.166,0.006 0.235,0.018 l 0,0 c 0.068,0.012 0.13,0.024 0.184,0.037 l 0,0 c 0.054,0.011 0.106,0.023 0.154,0.036 l 0,0 c 0.049,0.011 0.099,0.018 0.151,0.018 l 0,0 c 0.294,0 0.425,-0.269 0.393,-0.805 l 0,0 c -0.166,-0.069 -0.349,-0.125 -0.553,-0.17 l 0,0 c -0.203,-0.044 -0.408,-0.067 -0.613,-0.067 l 0,0 c -0.285,0 -0.549,0.053 -0.791,0.155 l 0,0 c -0.241,0.103 -0.45,0.245 -0.627,0.427 l 0,0 c -0.177,0.182 -0.316,0.397 -0.417,0.648 l 0,0 c -0.101,0.249 -0.151,0.52 -0.151,0.811 l 0,0 c 0,0.176 0.02,0.346 0.059,0.509 l 0,0 c -0.423,-0.03 -0.842,-0.06 -1.253,-0.093 l 0,0 0,-3.642 23.457,0 0,0.002 0,3.625 c -0.67,0.065 -1.365,0.123 -2.083,0.175 l 0,0 0.788,-2.495 c -0.068,-0.029 -0.15,-0.05 -0.246,-0.064 l 0,0 c -0.098,-0.014 -0.192,-0.021 -0.285,-0.021 l 0,0 c -0.104,0 -0.206,0.017 -0.305,0.052 l 0,0 c -0.098,0.034 -0.17,0.111 -0.214,0.233 l 0,0 -0.205,0.622 -1.317,0 -0.175,-0.586 c -0.044,-0.142 -0.118,-0.23 -0.223,-0.267 l 0,0 c -0.104,-0.036 -0.215,-0.054 -0.332,-0.054 l 0,0 c -0.076,0 -0.164,0.007 -0.263,0.021 l 0,0 c -0.098,0.014 -0.18,0.033 -0.244,0.058 l 0,0 0.859,2.631 c -0.444,0.023 -0.892,0.042 -1.346,0.06 l 0,0 0.248,-2.667 c -0.056,-0.021 -0.123,-0.041 -0.202,-0.06 l 0,0 c -0.079,-0.021 -0.164,-0.031 -0.257,-0.031 l 0,0 c -0.129,0 -0.237,0.022 -0.326,0.067 l 0,0 c -0.088,0.044 -0.137,0.126 -0.145,0.248 l 0,0 -0.09,1.307 c -0.021,0.23 -0.038,0.471 -0.051,0.723 l 0,0 c -0.009,0.152 -0.015,0.3 -0.021,0.443 l 0,0 c -0.029,0.001 -0.056,0.002 -0.084,0.003 l 0,0 c -0.032,-0.131 -0.063,-0.267 -0.095,-0.41 l 0,0 c -0.054,-0.244 -0.11,-0.468 -0.165,-0.674 l 0,0 -0.248,-1.029 c -0.06,-0.242 -0.252,-0.363 -0.574,-0.363 l 0,0 c -0.08,0 -0.163,0.008 -0.247,0.024 l 0,0 c -0.084,0.017 -0.157,0.035 -0.218,0.054 l 0,0 -0.307,1.284 c -0.061,0.237 -0.117,0.472 -0.17,0.702 l 0,0 c -0.035,0.154 -0.068,0.309 -0.1,0.463 l 0,0 c -0.023,10e-4 -0.048,10e-4 -0.071,0.002 l 0,0 c -0.011,-0.237 -0.025,-0.457 -0.04,-0.662 l 0,0 c -0.02,-0.269 -0.038,-0.499 -0.054,-0.693 l 0,0 -0.096,-1.18 c -0.008,-0.117 -0.053,-0.198 -0.134,-0.242 l 0,0 c -0.081,-0.045 -0.185,-0.067 -0.314,-0.067 l 0,0 c -0.092,0 -0.173,0.009 -0.244,0.027 l 0,0 c -0.071,0.019 -0.132,0.04 -0.184,0.064 l 0,0 0.27,2.764 c -0.586,0.006 -1.177,0.01 -1.769,0.01 l 0,0 c -0.177,0 -0.356,-10e-4 -0.534,-10e-4 m -3.418,-0.047 0.85,-1.34 0,1.358 c -0.284,-0.005 -0.567,-0.011 -0.85,-0.018 m 7.395,-0.099 c 0.044,-0.203 0.092,-0.425 0.142,-0.67 l 0,0 c 0.05,-0.244 0.096,-0.495 0.135,-0.753 l 0,0 0.024,0 c 0.045,0.258 0.091,0.509 0.139,0.751 l 0,0 c 0.049,0.242 0.099,0.464 0.151,0.666 l 0,0 0.025,0.1 c -0.213,0.005 -0.425,0.01 -0.639,0.015 l 0,0 0.023,-0.109 z m 4.181,-1.066 0.903,0 -0.297,0.98 c -0.101,0.006 -0.201,0.011 -0.301,0.018 l 0,0 -0.305,-0.998 z" />
          </g>
        </g>
      </g>
      <g
         id="g6698"
         transform="matrix(1.25,0,0,-1.25,173.59598,1055.2981)">
        <g
           clip-path="url(#clipPath6702)"
           id="g6700">
          <g
             transform="translate(107.6564,574.0258)"
             id="g6706">
            <path
               inkscape:connector-curvature="0"
               id="path6708"
               style="fill:#ffffff;fill-opacity:1;fill-rule:nonzero;stroke:none"
               d="m 0,0 c -0.286,0 -0.549,0.051 -0.791,0.154 -0.241,0.103 -0.451,0.245 -0.628,0.427 -0.177,0.182 -0.316,0.397 -0.416,0.648 -0.101,0.25 -0.151,0.52 -0.151,0.811 0,0.282 0.05,0.546 0.151,0.792 0.1,0.247 0.239,0.46 0.416,0.642 0.177,0.182 0.387,0.324 0.628,0.427 C -0.549,4.004 -0.286,4.055 0,4.055 0.205,4.055 0.404,4.033 0.598,3.988 0.791,3.944 0.97,3.888 1.135,3.819 1.171,3.282 1.04,3.014 0.743,3.014 0.69,3.014 0.642,3.02 0.598,3.032 0.553,3.044 0.505,3.056 0.453,3.068 0.4,3.081 0.342,3.093 0.278,3.105 0.213,3.117 0.137,3.123 0.048,3.123 -0.093,3.123 -0.225,3.098 -0.35,3.047 -0.475,2.997 -0.583,2.924 -0.673,2.829 -0.764,2.735 -0.835,2.621 -0.887,2.487 -0.94,2.354 -0.966,2.205 -0.966,2.04 -0.966,1.866 -0.94,1.711 -0.887,1.574 -0.835,1.436 -0.764,1.32 -0.673,1.226 -0.583,1.131 -0.475,1.058 -0.35,1.008 -0.225,0.957 -0.093,0.932 0.048,0.932 0.137,0.932 0.215,0.938 0.284,0.95 0.352,0.962 0.413,0.974 0.468,0.987 0.522,0.999 0.573,1.011 0.622,1.023 0.67,1.035 0.72,1.041 0.773,1.041 1.066,1.041 1.197,0.773 1.165,0.236 1,0.167 0.816,0.111 0.613,0.067 0.409,0.022 0.205,0 0,0" />
          </g>
          <g
             transform="translate(109.7397,574.0742)"
             id="g6710">
            <path
               inkscape:connector-curvature="0"
               id="path6712"
               style="fill:#ffffff;fill-opacity:1;fill-rule:nonzero;stroke:none"
               d="M 0,0 C -0.085,0 -0.168,0.004 -0.251,0.012 -0.333,0.02 -0.403,0.03 -0.459,0.042 l 0,3.505 c 0,0.117 0.036,0.216 0.109,0.299 0.072,0.083 0.209,0.124 0.41,0.124 0.085,0 0.168,-0.004 0.251,-0.012 C 0.393,3.95 0.463,3.94 0.519,3.928 l 0,-3.504 C 0.519,0.307 0.483,0.207 0.411,0.124 0.338,0.041 0.201,0 0,0" />
          </g>
          <g
             transform="translate(111.3908,574.0742)"
             id="g6714">
            <path
               inkscape:connector-curvature="0"
               id="path6716"
               style="fill:#ffffff;fill-opacity:1;fill-rule:nonzero;stroke:none"
               d="M 0,0 C -0.081,0 -0.159,0.004 -0.235,0.012 -0.312,0.02 -0.376,0.03 -0.429,0.042 l 0,3.856 c 0.061,0.02 0.139,0.037 0.236,0.051 0.096,0.014 0.179,0.021 0.247,0.021 0.222,0 0.383,-0.028 0.483,-0.084 0.101,-0.057 0.185,-0.14 0.254,-0.249 l 1.37,-2.16 0,2.106 c 0,0.052 0.007,0.102 0.021,0.148 C 2.196,3.778 2.221,3.819 2.255,3.855 2.289,3.892 2.336,3.92 2.397,3.94 2.457,3.96 2.533,3.97 2.626,3.97 2.707,3.97 2.784,3.966 2.859,3.958 2.933,3.95 2.996,3.942 3.049,3.934 l 0,-3.861 C 2.992,0.044 2.924,0.025 2.843,0.015 2.763,0.005 2.684,0 2.608,0 2.419,0 2.278,0.026 2.185,0.079 2.093,0.131 2.016,0.204 1.956,0.297 l -1.467,2.348 0,-2.246 C 0.489,0.286 0.455,0.192 0.386,0.115 0.318,0.038 0.189,0 0,0" />
          </g>
          <g
             transform="translate(115.6795,574.0984)"
             id="g6718">
            <path
               inkscape:connector-curvature="0"
               id="path6720"
               style="fill:#ffffff;fill-opacity:1;fill-rule:nonzero;stroke:none"
               d="M 0,0 C -0.113,0 -0.204,0.012 -0.275,0.036 -0.345,0.06 -0.4,0.094 -0.438,0.136 -0.476,0.179 -0.502,0.23 -0.516,0.29 -0.53,0.351 -0.537,0.416 -0.537,0.484 l 0,2.966 c 0,0.068 0.007,0.133 0.021,0.193 0.014,0.061 0.04,0.112 0.078,0.155 0.038,0.042 0.093,0.076 0.163,0.1 0.071,0.024 0.162,0.036 0.275,0.036 l 1.998,0 C 2.006,3.89 2.014,3.829 2.022,3.752 2.03,3.676 2.034,3.597 2.034,3.516 2.034,3.347 2,3.227 1.932,3.156 1.863,3.086 1.777,3.05 1.672,3.05 l -1.231,0 0,-0.69 1.418,0 C 1.867,2.32 1.875,2.267 1.884,2.2 1.892,2.133 1.896,2.062 1.896,1.985 1.896,1.824 1.863,1.714 1.799,1.655 1.735,1.597 1.654,1.568 1.558,1.568 l -1.117,0 0,-0.684 1.618,0 C 2.067,0.839 2.075,0.778 2.083,0.699 2.091,0.62 2.095,0.543 2.095,0.466 2.095,0.292 2.061,0.171 1.992,0.103 1.924,0.034 1.837,0 1.733,0 L 0,0" />
          </g>
          <g
             transform="translate(118.5815,574.0742)"
             id="g6722">
            <path
               inkscape:connector-curvature="0"
               id="path6724"
               style="fill:#ffffff;fill-opacity:1;fill-rule:nonzero;stroke:none"
               d="m 0,0 c -0.093,0 -0.174,0.009 -0.245,0.027 -0.07,0.018 -0.131,0.04 -0.184,0.064 l 0.369,3.77 C 0.017,3.894 0.117,3.92 0.242,3.94 0.367,3.96 0.474,3.97 0.562,3.97 0.687,3.97 0.794,3.962 0.885,3.946 0.975,3.93 1.053,3.903 1.117,3.864 1.181,3.826 1.233,3.773 1.271,3.704 1.309,3.635 1.338,3.551 1.359,3.45 L 1.515,2.717 C 1.56,2.516 1.607,2.293 1.657,2.049 1.707,1.805 1.753,1.553 1.793,1.295 l 0.024,0 C 1.861,1.553 1.908,1.804 1.956,2.046 2.004,2.288 2.054,2.51 2.106,2.711 L 2.299,3.48 C 2.348,3.67 2.425,3.799 2.531,3.867 2.638,3.936 2.804,3.97 3.029,3.97 3.141,3.97 3.255,3.961 3.369,3.943 3.484,3.925 3.579,3.906 3.656,3.886 L 4.009,0.091 C 3.952,0.07 3.885,0.05 3.806,0.03 3.728,0.01 3.642,0 3.55,0 3.421,0 3.312,0.022 3.224,0.067 3.135,0.111 3.087,0.194 3.079,0.315 L 2.988,1.622 C 2.968,1.852 2.951,2.093 2.937,2.345 2.923,2.597 2.914,2.836 2.91,3.062 l -0.012,0 C 2.845,2.853 2.792,2.626 2.738,2.382 2.683,2.137 2.628,1.913 2.572,1.707 L 2.324,0.678 C 2.264,0.436 2.073,0.315 1.751,0.315 1.67,0.315 1.588,0.323 1.503,0.339 1.419,0.355 1.346,0.373 1.286,0.393 L 0.978,1.677 C 0.918,1.915 0.861,2.149 0.809,2.379 0.757,2.609 0.708,2.839 0.664,3.069 l -0.018,0 C 0.634,2.746 0.618,2.45 0.598,2.182 0.577,1.913 0.559,1.683 0.543,1.489 L 0.447,0.309 C 0.439,0.192 0.394,0.111 0.314,0.067 0.233,0.022 0.129,0 0,0" />
          </g>
          <g
             transform="translate(124.2779,575.7264)"
             id="g6726">
            <path
               inkscape:connector-curvature="0"
               id="path6728"
               style="fill:#ffffff;fill-opacity:1;fill-rule:nonzero;stroke:none"
               d="M 0,0 0.903,0 0.453,1.483 0,0 m -0.942,-1.664 c -0.076,0 -0.164,0.007 -0.262,0.021 -0.099,0.014 -0.18,0.033 -0.245,0.057 l 1.253,3.838 C -0.087,2.28 0.023,2.3 0.134,2.312 0.245,2.324 0.347,2.33 0.44,2.33 0.573,2.33 0.687,2.32 0.782,2.3 0.876,2.28 0.956,2.249 1.021,2.209 1.085,2.169 1.139,2.115 1.181,2.049 1.223,1.982 1.259,1.904 1.287,1.816 L 2.361,-1.58 C 2.292,-1.608 2.21,-1.629 2.113,-1.643 2.016,-1.657 1.922,-1.664 1.829,-1.664 c -0.104,0 -0.206,0.017 -0.305,0.051 -0.098,0.034 -0.17,0.112 -0.214,0.233 l -0.205,0.623 -1.317,0 -0.174,-0.587 C -0.431,-1.485 -0.505,-1.574 -0.61,-1.61 -0.714,-1.646 -0.825,-1.664 -0.942,-1.664" />
          </g>
          <g
             transform="translate(96.6951,575.4456)"
             id="g6730">
            <path
               inkscape:connector-curvature="0"
               id="path6732"
               style="fill:#a90e3a;fill-opacity:1;fill-rule:nonzero;stroke:none"
               d="m 0,0 c 0,-0.552 -0.361,-0.955 -1.094,-1.035 -0.531,-0.057 -1.299,0.01 -1.664,0.052 -0.014,0.06 -0.024,0.134 -0.024,0.192 0,0.483 0.261,0.593 0.505,0.593 0.254,0 0.654,-0.044 0.952,-0.044 0.327,0 0.427,0.112 0.427,0.217 0,0.139 -0.132,0.196 -0.386,0.245 l -0.695,0.134 c -0.579,0.11 -0.888,0.511 -0.888,0.935 0,0.517 0.366,0.949 1.084,1.028 0.544,0.059 1.205,-0.007 1.568,-0.052 0.013,-0.062 0.02,-0.121 0.02,-0.186 0,-0.481 -0.254,-0.585 -0.498,-0.585 -0.188,0 -0.48,0.035 -0.813,0.035 -0.339,0 -0.48,-0.094 -0.48,-0.208 0,-0.12 0.134,-0.17 0.347,-0.207 L -0.975,0.991 C -0.292,0.865 0,0.477 0,0 m 1.192,-0.593 c 0,-0.296 -0.116,-0.466 -0.693,-0.466 -0.077,0 -0.144,0.005 -0.208,0.015 l 0,3.926 c 0,0.299 0.101,0.61 0.685,0.61 0.073,0 0.147,-0.008 0.216,-0.022 l 0,-4.063 M 3.554,-2.112 C 3.63,-2.15 3.786,-2.197 3.982,-2.203 4.317,-2.21 4.5,-2.081 4.636,-1.781 l 1.8,4.016 C 6.362,2.275 6.198,2.319 6.063,2.323 5.831,2.327 5.521,2.279 5.322,1.806 L 4.739,0.43 3.596,2.292 C 3.522,2.315 3.342,2.347 3.21,2.347 2.807,2.347 2.581,2.198 2.347,1.944 L 1.235,0.728 2.129,-0.679 c 0.165,-0.256 0.383,-0.387 0.737,-0.387 0.231,0 0.424,0.053 0.513,0.095 L 2.302,0.653 3.065,1.461 4.317,-0.503 3.554,-2.112" />
          </g>
          <g
             transform="translate(130.7668,574.4201)"
             id="g6734">
            <path
               inkscape:connector-curvature="0"
               id="path6736"
               style="fill:#a90e3a;fill-opacity:1;fill-rule:nonzero;stroke:none"
               d="M 0,0 C -0.069,0 -0.135,0.003 -0.198,0.009 -0.261,0.015 -0.315,0.022 -0.36,0.03 L -0.363,1.219 -1.467,1.217 c -0.008,0.04 -0.016,0.088 -0.024,0.143 -0.009,0.055 -0.013,0.119 -0.013,0.192 0,0.154 0.032,0.262 0.097,0.323 0.065,0.062 0.144,0.092 0.238,0.093 l 0.805,0.001 -0.002,0.848 c 0,0.094 0.028,0.172 0.085,0.235 0.056,0.063 0.162,0.095 0.317,0.095 C 0.105,3.148 0.171,3.145 0.234,3.139 0.297,3.133 0.351,3.126 0.396,3.118 L 0.398,1.971 1.514,1.974 C 1.523,1.933 1.531,1.885 1.539,1.83 1.547,1.775 1.552,1.711 1.552,1.638 1.552,1.484 1.52,1.376 1.455,1.315 1.39,1.254 1.311,1.223 1.217,1.223 L 0.4,1.221 0.402,0.33 C 0.402,0.237 0.374,0.158 0.317,0.095 0.26,0.032 0.155,0 0,0" />
          </g>
          <g
             transform="translate(134.0513,573.9869)"
             id="g6738">
            <path
               inkscape:connector-curvature="0"
               id="path6740"
               style="fill:#a90e3a;fill-opacity:1;fill-rule:nonzero;stroke:none"
               d="M 0,0 C -0.089,0 -0.176,0.004 -0.263,0.012 -0.349,0.02 -0.422,0.031 -0.481,0.043 L -0.488,3.026 -1.184,2.708 c -0.034,0.042 -0.07,0.088 -0.108,0.139 -0.038,0.051 -0.072,0.114 -0.102,0.19 -0.029,0.076 -0.044,0.152 -0.045,0.228 0,0.101 0.027,0.188 0.082,0.259 0.055,0.072 0.131,0.132 0.228,0.178 L -0.206,4.141 0.535,4.143 0.544,0.445 C 0.544,0.322 0.506,0.217 0.43,0.131 0.355,0.044 0.211,0 0,0" />
          </g>
        </g>
      </g>
      <g
         id="g6742"
         transform="matrix(1.25,0,0,-1.25,173.59598,1055.2981)">
        <g
           id="g6744">
          <g
             id="g6750">
            <path
               inkscape:connector-curvature="0"
               id="path6770"
               style="fill:url(#linearGradient6752);stroke:none"
               d="m 135.888,579.1 -7.955,0 0,-2.633 c 0.497,-0.049 0.978,-0.1 1.444,-0.156 l 0,0 c 0.062,0.051 0.135,0.076 0.22,0.077 l 0,0 0.806,0.002 -0.002,0.847 c -0.001,0.094 0.028,0.172 0.085,0.235 l 0,0 c 0.056,0.063 0.162,0.095 0.316,0.096 l 0,0 c 0.002,0 0.004,0 0.006,0 l 0,0 c 0.066,0 0.131,-0.004 0.192,-0.009 l 0,0 c 0.063,-0.007 0.117,-0.013 0.162,-0.021 l 0,0 0.003,-1.147 1.116,0.002 c 0.008,-0.04 0.016,-0.088 0.024,-0.143 l 0,0 c 0.009,-0.055 0.013,-0.119 0.014,-0.192 l 0,0 c 0,-0.075 -0.008,-0.139 -0.023,-0.192 l 0,0 c 0.452,-0.087 0.876,-0.18 1.27,-0.278 l 0,0 -0.002,1.425 -0.697,-0.318 c -0.033,0.042 -0.069,0.088 -0.108,0.138 l 0,0 c -0.038,0.052 -0.072,0.115 -0.102,0.19 l 0,0 c -0.029,0.077 -0.044,0.152 -0.045,0.229 l 0,0 c 0,0.101 0.027,0.187 0.082,0.259 l 0,0 c 0.055,0.072 0.131,0.131 0.228,0.178 l 0,0 0.923,0.439 0.742,0.002 0.006,-2.836 c 0.843,-0.276 1.476,-0.589 1.854,-0.943 l 0,0 c 0.438,-0.433 0.497,-0.84 0.512,-0.93 l 0,0 c 0.044,0 0.059,0.191 0.059,0.477 l 0,0 -0.001,4.575 c 0,0.53 -0.173,0.709 -0.622,0.709 l 0,0 c -0.152,0 -0.304,-0.082 -0.507,-0.082 m -43.227,-0.627 -0.001,-4.575 c 0,-0.286 0.016,-0.477 0.059,-0.477 l 0,0 c 0.015,0.09 0.029,0.53 0.512,0.93 l 0,0 c 0.169,0.131 0.4,0.258 0.684,0.38 l 0,0 c 0.027,0.418 0.273,0.517 0.503,0.517 l 0,0 c 0.251,0 0.644,-0.043 0.941,-0.044 l 0,0 c 0.123,0.033 0.251,0.064 0.383,0.096 l 0,0 c 0.04,0.036 0.055,0.079 0.055,0.12 l 0,0 c 0,0.139 -0.132,0.197 -0.386,0.245 l 0,0 -0.695,0.134 c -0.579,0.111 -0.887,0.511 -0.887,0.936 l 0,0 c 0,0.516 0.365,0.948 1.083,1.028 l 0,0 c 0.153,0.016 0.315,0.023 0.478,0.023 l 0,0 c 0.414,0 0.829,-0.044 1.09,-0.075 l 0,0 c 0.013,-0.062 0.02,-0.122 0.02,-0.186 l 0,0 c 0,-0.482 -0.254,-0.585 -0.498,-0.585 l 0,0 c -0.188,0 -0.48,0.035 -0.813,0.035 l 0,0 c -0.339,0 -0.479,-0.094 -0.479,-0.208 l 0,0 c 0,-0.121 0.134,-0.17 0.345,-0.207 l 0,0 0.665,-0.124 c 0.653,-0.12 0.949,-0.48 0.973,-0.928 l 0,0 c 0.097,0.019 0.194,0.037 0.293,0.056 l 0,0 0,2.764 c 0,0.298 0.102,0.61 0.685,0.61 l 0,0 c 0.074,0 0.147,-0.008 0.217,-0.023 l 0,0 0,-3.19 c 0.097,0.016 0.198,0.032 0.298,0.048 l 0,0 -0.256,0.401 1.111,1.216 c 0.234,0.253 0.46,0.403 0.863,0.403 l 0,0 c 0.133,0 0.313,-0.033 0.387,-0.056 l 0,0 0.956,-1.558 c 0.11,0.013 0.22,0.024 0.332,0.036 l 0,0 0.438,1.036 c 0.191,0.457 0.488,0.517 0.715,0.517 l 0,0 c 0.009,0 0.017,0 0.026,0 l 0,0 c 0.135,-0.003 0.299,-0.047 0.373,-0.088 l 0,0 -0.614,-1.37 c 0.634,0.063 1.287,0.119 1.959,0.172 l 0,0 0,2.618 -10.686,0 c -0.203,0 -0.355,0.082 -0.507,0.082 l 0,0 c -0.449,0 -0.622,-0.179 -0.622,-0.709 m 6.336,-2.375 0.123,-0.185 c 0.379,0.054 0.772,0.105 1.174,0.155 l 0,0 -0.534,0.838 -0.763,-0.808 z" />
          </g>
        </g>
      </g>
      <g
         id="g6772"
         transform="matrix(1.25,0,0,-1.25,173.59598,1055.2981)">
        <g
           id="g6774">
          <g
             id="g6780">
            <path
               inkscape:connector-curvature="0"
               id="path6794"
               style="fill:url(#linearGradient6782);stroke:none"
               d="m 104.476,579.1 0,-2.618 c 0.411,0.033 0.83,0.063 1.253,0.093 l 0,0 c 0.024,0.097 0.054,0.191 0.092,0.284 l 0,0 c 0.101,0.245 0.24,0.459 0.417,0.64 l 0,0 c 0.177,0.182 0.386,0.324 0.627,0.427 l 0,0 c 0.242,0.103 0.506,0.155 0.791,0.155 l 0,0 c 0.205,0 0.405,-0.023 0.598,-0.067 l 0,0 c 0.193,-0.044 0.372,-0.101 0.537,-0.169 l 0,0 c 0.036,-0.537 -0.094,-0.806 -0.392,-0.806 l 0,0 c -0.053,0 -0.101,0.007 -0.145,0.018 l 0,0 c -0.044,0.013 -0.093,0.025 -0.145,0.037 l 0,0 c -0.052,0.012 -0.111,0.025 -0.175,0.036 l 0,0 c -0.064,0.013 -0.141,0.018 -0.229,0.018 l 0,0 c -0.141,0 -0.274,-0.025 -0.399,-0.075 l 0,0 c -0.125,-0.051 -0.232,-0.124 -0.323,-0.218 l 0,0 c -0.059,-0.061 -0.109,-0.131 -0.152,-0.209 l 0,0 c 0.802,0.049 1.621,0.092 2.45,0.129 l 0,0 0,0.846 c 0,0.117 0.036,0.217 0.109,0.3 l 0,0 c 0.072,0.082 0.208,0.124 0.41,0.124 l 0,0 c 0.085,0 0.168,-0.005 0.25,-0.013 l 0,0 c 0.083,-0.008 0.152,-0.018 0.209,-0.029 l 0,0 0,-1.188 c 0.234,0.009 0.467,0.018 0.703,0.026 l 0,0 0,1.131 c 0.06,0.02 0.139,0.037 0.236,0.051 l 0,0 c 0.096,0.015 0.179,0.022 0.247,0.022 l 0,0 c 0.222,0 0.383,-0.029 0.483,-0.086 l 0,0 c 0.1,-0.055 0.185,-0.138 0.253,-0.247 l 0,0 0.521,-0.821 c 0.283,0.007 0.566,0.013 0.85,0.018 l 0,0 0,0.748 c 0,0.052 0.007,0.102 0.021,0.148 l 0,0 c 0.014,0.046 0.038,0.089 0.073,0.125 l 0,0 c 0.034,0.036 0.081,0.063 0.142,0.084 l 0,0 c 0.06,0.02 0.137,0.031 0.229,0.031 l 0,0 c 0.081,0 0.158,-0.005 0.233,-0.013 l 0,0 c 0.074,-0.008 0.137,-0.016 0.189,-0.024 l 0,0 0,-1.085 c 0.235,0.004 0.469,0.006 0.703,0.008 l 0,0 0,0.617 c 0,0.068 0.008,0.133 0.021,0.193 l 0,0 c 0.015,0.062 0.041,0.113 0.078,0.155 l 0,0 c 0.039,0.043 0.093,0.076 0.164,0.1 l 0,0 c 0.07,0.025 0.161,0.036 0.275,0.036 l 0,0 1.998,0 c 0.008,-0.044 0.016,-0.104 0.024,-0.182 l 0,0 c 0.008,-0.076 0.012,-0.154 0.012,-0.235 l 0,0 c 0,-0.17 -0.034,-0.29 -0.103,-0.36 l 0,0 c -0.068,-0.072 -0.155,-0.107 -0.259,-0.107 l 0,0 -1.232,0 0,-0.21 c 0.178,0 0.357,10e-4 0.534,10e-4 l 0,0 c 0.592,0 1.183,-0.004 1.769,-0.01 l 0,0 0.099,1.007 c 0.076,0.031 0.177,0.057 0.301,0.078 l 0,0 c 0.126,0.02 0.232,0.031 0.321,0.031 l 0,0 c 0.124,0 0.232,-0.008 0.322,-0.024 l 0,0 c 0.091,-0.017 0.168,-0.044 0.233,-0.082 l 0,0 c 0.064,-0.039 0.115,-0.092 0.153,-0.161 l 0,0 c 0.039,-0.069 0.068,-0.153 0.088,-0.254 l 0,0 0.134,-0.623 c 0.214,-0.005 0.426,-0.01 0.639,-0.015 l 0,0 0.168,0.668 c 0.048,0.19 0.126,0.319 0.232,0.387 l 0,0 c 0.106,0.07 0.273,0.104 0.498,0.104 l 0,0 c 0.111,0 0.226,-0.009 0.34,-0.028 l 0,0 c 0.114,-0.018 0.21,-0.037 0.286,-0.058 l 0,0 0.105,-1.127 c 0.454,-0.018 0.902,-0.037 1.346,-0.06 l 0,0 0.394,1.206 c 0.109,0.028 0.219,0.048 0.329,0.061 l 0,0 c 0.111,0.011 0.214,0.017 0.306,0.017 l 0,0 c 0.134,0 0.248,-0.009 0.343,-0.03 l 0,0 c 0.094,-0.02 0.174,-0.051 0.239,-0.09 l 0,0 c 0.064,-0.041 0.118,-0.095 0.16,-0.161 l 0,0 c 0.042,-0.067 0.077,-0.144 0.106,-0.233 l 0,0 0.285,-0.9 c 0.718,-0.052 1.413,-0.11 2.083,-0.175 l 0,0 0,2.633 -23.457,0 z m 20.107,-2.376 c 0.1,-0.007 0.2,-0.012 0.301,-0.018 l 0,0 -0.153,0.504 -0.148,-0.486 z m -5.355,0.419 c -0.003,-0.077 -0.007,-0.152 -0.009,-0.225 l 0,0 c 0.023,-10e-4 0.048,-10e-4 0.071,-0.002 l 0,0 c -0.015,0.076 -0.03,0.151 -0.045,0.227 l 0,0 -0.017,0 z m 2.251,-0.006 c -0.021,-0.088 -0.044,-0.179 -0.065,-0.272 l 0,0 c 0.028,-10e-4 0.055,-0.002 0.084,-0.003 l 0,0 c -0.003,0.094 -0.005,0.186 -0.007,0.275 l 0,0 -0.012,0 z" />
          </g>
        </g>
      </g>
      <g
         id="g6796"
         transform="matrix(1.25,0,0,-1.25,173.59598,1055.2981)">
        <g
           clip-path="url(#clipPath6800)"
           id="g6798">
          <g
             transform="translate(105.7295,576.575)"
             id="g6804">
            <path
               inkscape:connector-curvature="0"
               id="path6806"
               style="fill:#ffffff;fill-opacity:1;fill-rule:nonzero;stroke:none"
               d="m 0,0 c 0.023,0.097 0.054,0.191 0.092,0.283 0.1,0.246 0.239,0.46 0.416,0.642 0.177,0.181 0.387,0.324 0.628,0.426 0.242,0.103 0.505,0.155 0.791,0.155 0.205,0 0.404,-0.022 0.598,-0.067 C 2.718,1.395 2.897,1.338 3.062,1.27 3.098,0.733 2.967,0.465 2.669,0.465 2.617,0.465 2.569,0.471 2.525,0.483 2.48,0.495 2.432,0.507 2.38,0.519 2.327,0.531 2.269,0.543 2.205,0.556 2.14,0.568 2.064,0.574 1.975,0.574 1.834,0.574 1.701,0.548 1.577,0.498 1.452,0.448 1.344,0.375 1.254,0.28 1.195,0.219 1.144,0.149 1.102,0.071 0.73,0.049 0.364,0.025 0,0" />
          </g>
          <g
             transform="translate(109.2809,576.7751)"
             id="g6808">
            <path
               inkscape:connector-curvature="0"
               id="path6810"
               style="fill:#ffffff;fill-opacity:1;fill-rule:nonzero;stroke:none"
               d="m 0,0 0,0.846 c 0,0.117 0.036,0.217 0.109,0.299 0.072,0.083 0.209,0.124 0.41,0.124 0.085,0 0.168,-0.004 0.251,-0.012 0.082,-0.008 0.152,-0.018 0.208,-0.03 l 0,-1.186 C 0.651,0.028 0.324,0.014 0,0" />
          </g>
          <g
             transform="translate(110.9621,576.8411)"
             id="g6812">
            <path
               inkscape:connector-curvature="0"
               id="path6814"
               style="fill:#ffffff;fill-opacity:1;fill-rule:nonzero;stroke:none"
               d="m 0,0 0,1.131 c 0.06,0.02 0.139,0.037 0.235,0.051 0.097,0.014 0.18,0.021 0.248,0.021 0.221,0 0.382,-0.028 0.483,-0.084 0.1,-0.057 0.185,-0.14 0.253,-0.249 L 1.74,0.05 C 1.158,0.036 0.576,0.02 0,0 m 2.59,0.068 0,0.748 c 0,0.052 0.007,0.102 0.021,0.148 0.014,0.047 0.038,0.088 0.073,0.124 0.034,0.037 0.081,0.065 0.141,0.085 0.061,0.02 0.137,0.03 0.23,0.03 0.08,0 0.158,-0.004 0.232,-0.012 0.075,-0.008 0.138,-0.016 0.19,-0.024 l 0,-1.085 C 3.182,0.078 2.885,0.074 2.59,0.068" />
          </g>
          <g
             transform="translate(115.1422,576.9315)"
             id="g6816">
            <path
               inkscape:connector-curvature="0"
               id="path6818"
               style="fill:#ffffff;fill-opacity:1;fill-rule:nonzero;stroke:none"
               d="M 0,0 0,0.617 C 0,0.685 0.007,0.75 0.021,0.81 0.035,0.871 0.061,0.922 0.1,0.965 c 0.038,0.042 0.092,0.075 0.163,0.1 0.07,0.024 0.162,0.036 0.274,0.036 l 1.999,0 C 2.544,1.056 2.552,0.996 2.56,0.919 2.568,0.843 2.572,0.764 2.572,0.683 2.572,0.514 2.538,0.394 2.469,0.323 2.401,0.253 2.314,0.217 2.21,0.217 l -1.232,0 0,-0.211 C 0.652,0.005 0.327,0.003 0,0" />
          </g>
          <g
             transform="translate(122.3421,576.8322)"
             id="g6820">
            <path
               inkscape:connector-curvature="0"
               id="path6822"
               style="fill:#ffffff;fill-opacity:1;fill-rule:nonzero;stroke:none"
               d="m 0,0 c -0.28,0.011 -0.56,0.021 -0.844,0.03 -0.003,0.094 -0.005,0.185 -0.007,0.274 l -0.012,0 C -0.885,0.217 -0.907,0.126 -0.929,0.033 c -0.232,0.007 -0.466,0.014 -0.7,0.02 l 0.168,0.669 c 0.048,0.19 0.125,0.319 0.232,0.387 0.106,0.069 0.272,0.103 0.497,0.103 0.113,0 0.226,-0.009 0.341,-0.027 0.114,-0.018 0.21,-0.037 0.286,-0.057 L 0,0 M -2.269,0.069 C -2.529,0.075 -2.79,0.08 -3.052,0.084 -3.067,0.16 -3.082,0.235 -3.097,0.31 l -0.018,0 C -3.117,0.234 -3.121,0.159 -3.124,0.086 -3.388,0.09 -3.653,0.093 -3.919,0.096 l 0.099,1.007 c 0.076,0.033 0.177,0.059 0.302,0.079 0.124,0.02 0.231,0.03 0.319,0.03 0.125,0 0.233,-0.008 0.323,-0.024 0.091,-0.016 0.168,-0.043 0.233,-0.082 0.064,-0.038 0.115,-0.091 0.153,-0.16 0.039,-0.069 0.068,-0.153 0.088,-0.254 l 0.133,-0.623" />
          </g>
          <g
             transform="translate(125.8497,576.6415)"
             id="g6824">
            <path
               inkscape:connector-curvature="0"
               id="path6826"
               style="fill:#ffffff;fill-opacity:1;fill-rule:nonzero;stroke:none"
               d="M 0,0 C -0.318,0.023 -0.64,0.044 -0.966,0.064 L -1.119,0.568 -1.267,0.082 c -0.294,0.017 -0.595,0.034 -0.895,0.049 l 0.394,1.205 c 0.109,0.029 0.219,0.049 0.33,0.061 0.111,0.012 0.213,0.018 0.306,0.018 0.133,0 0.247,-0.01 0.342,-0.03 0.095,-0.02 0.174,-0.051 0.239,-0.091 0.064,-0.04 0.118,-0.094 0.16,-0.16 0.043,-0.067 0.078,-0.145 0.106,-0.233 L 0,0" />
          </g>
          <g
             transform="translate(93.9152,574.7313)"
             id="g6828">
            <path
               inkscape:connector-curvature="0"
               id="path6830"
               style="fill:#c9747a;fill-opacity:1;fill-rule:nonzero;stroke:none"
               d="m 0,0 c 0.026,0.418 0.272,0.517 0.503,0.517 0.251,0 0.644,-0.043 0.94,-0.044 C 0.871,0.323 0.385,0.165 0,0 m 1.827,0.569 c 0.039,0.036 0.055,0.079 0.055,0.12 0,0.139 -0.132,0.197 -0.386,0.245 L 0.801,1.068 c -0.579,0.111 -0.888,0.511 -0.888,0.936 0,0.516 0.366,0.948 1.084,1.028 0.153,0.016 0.315,0.023 0.477,0.023 0.415,0 0.83,-0.043 1.091,-0.075 0.013,-0.063 0.02,-0.122 0.02,-0.187 0,-0.481 -0.254,-0.585 -0.499,-0.585 -0.188,0 -0.479,0.035 -0.812,0.035 -0.339,0 -0.48,-0.093 -0.48,-0.208 0,-0.12 0.134,-0.17 0.346,-0.207 L 1.805,1.705 C 2.458,1.585 2.754,1.225 2.778,0.776 2.442,0.709 2.124,0.64 1.827,0.569 m 1.244,0.264 0,2.764 c 0,0.298 0.101,0.609 0.685,0.609 0.073,0 0.147,-0.008 0.216,-0.022 l 0,-3.191 C 3.66,0.941 3.359,0.888 3.071,0.833 M 4.27,1.042 4.015,1.443 5.126,2.659 c 0.235,0.253 0.46,0.402 0.863,0.402 0.133,0 0.313,-0.032 0.386,-0.055 L 7.332,1.448 C 7.008,1.412 6.69,1.375 6.379,1.337 L 5.845,2.175 5.082,1.367 5.205,1.182 C 4.883,1.136 4.572,1.09 4.27,1.042 M 7.663,1.484 8.102,2.52 c 0.191,0.457 0.487,0.517 0.715,0.517 0.009,0 0.017,0 0.025,0 0.135,-0.003 0.3,-0.048 0.374,-0.088 L 8.602,1.58 C 8.284,1.549 7.97,1.517 7.663,1.484" />
          </g>
          <g
             transform="translate(132.296,575.8663)"
             id="g6832">
            <path
               inkscape:connector-curvature="0"
               id="path6834"
               style="fill:#c9747a;fill-opacity:1;fill-rule:nonzero;stroke:none"
               d="m 0,0 c -0.877,0.169 -1.857,0.317 -2.919,0.445 0.062,0.051 0.135,0.076 0.22,0.076 l 0.806,0.002 -0.002,0.848 c -10e-4,0.093 0.028,0.172 0.085,0.235 0.056,0.063 0.162,0.095 0.317,0.095 0.001,0 0.003,0 0.005,0 0.067,0 0.131,-0.003 0.193,-0.008 0.063,-0.006 0.117,-0.013 0.161,-0.021 l 0.003,-1.147 1.116,0.002 C -0.007,0.487 0.002,0.439 0.01,0.384 0.018,0.329 0.022,0.265 0.023,0.192 0.023,0.117 0.015,0.053 0,0" />
          </g>
          <g
             transform="translate(134.593,575.2944)"
             id="g6836">
            <path
               inkscape:connector-curvature="0"
               id="path6838"
               style="fill:#c9747a;fill-opacity:1;fill-rule:nonzero;stroke:none"
               d="M 0,0 C -0.314,0.103 -0.656,0.2 -1.027,0.293 L -1.03,1.719 -1.726,1.4 c -0.034,0.043 -0.07,0.089 -0.108,0.139 -0.038,0.051 -0.072,0.114 -0.101,0.19 -0.03,0.076 -0.045,0.152 -0.045,0.228 0,0.101 0.027,0.188 0.081,0.26 0.055,0.072 0.131,0.131 0.228,0.178 L -0.747,2.834 -0.006,2.836 0,0" />
          </g>
        </g>
      </g>
    </g>
    <g
       id="#000000ff"
       transform="matrix(1.0308546,0,0,1.0308546,1002.7719,-1.8341457)">
      <path
         d="m 652.87,171.28 c 10.06,-3.22 21.12,-4.26 31.42,-1.58 6.19,1.5 10.48,6.99 11.93,12.98 9.15,36.15 18.13,72.34 27.31,108.48 8.71,-33.82 17.3,-67.66 25.93,-101.5 1.48,-6.8 3.57,-14.5 10.18,-18.07 9.25,-4.95 20.29,-3.55 30.23,-1.93 1.61,0.55 4.75,0.17 4.53,2.68 4.45,44.58 8.85,89.18 13.27,133.77 0.57,7.57 1.87,15.1 1.97,22.69 -6.28,2.04 -13,2.97 -19.53,1.75 -3.96,-0.85 -7.14,-4.25 -7.44,-8.32 -3.75,-42.53 -6.93,-85.12 -10.91,-127.63 -9.81,37.5 -19.84,74.94 -29.73,112.41 -1.19,5.55 -5.51,10.24 -11.11,11.45 -7.44,1.49 -15.29,0.99 -22.57,-1.04 -1.15,-2.07 -1.45,-4.47 -2.13,-6.7 -10.67,-38.82 -21.32,-77.65 -32.01,-116.47 -4.02,42.87 -7.62,85.79 -11.63,128.66 -0.36,4.39 -4.39,7.42 -8.53,7.94 -5.89,0.56 -12.06,0.26 -17.43,-2.47 5.54,-52.36 10.71,-104.75 16.25,-157.1 z"
         id="path5"
         inkscape:connector-curvature="0"
         style="opacity:1;fill:#000000" />
      <path
         d="m 839.67,169.76 c 7.01,-2.87 14.82,-1.2 22.09,-0.37 -0.03,50.54 0.02,101.09 -0.03,151.64 0.17,5.22 -4.41,9.76 -9.56,9.93 -6.14,0.01 -12.35,0.44 -18.42,-0.75 0.01,-49.72 -0.03,-99.45 0.02,-149.17 -0.2,-4.45 1.49,-9.44 5.9,-11.28 z"
         id="path7"
         inkscape:connector-curvature="0"
         style="opacity:1;fill:#000000" />
      <path
         d="m 245.79,171.77 c 3.07,-2.7 7.38,-3.04 11.28,-3.04 13.63,0.07 27.27,-0.04 40.9,0.05 15.6,0.6 31.92,4.92 43.54,15.86 10.3,9.47 15.63,23.5 15.76,37.35 0.46,13.51 -3.8,27.35 -12.84,37.55 -7.58,8.7 -18.17,14.42 -29.29,17.18 -14.62,3.67 -29.8,1.75 -44.69,2.37 0.1,13.94 0.06,27.9 0.02,41.85 0.21,5.6 -4.98,10.22 -10.42,10.07 -5.86,-0.08 -11.77,0.38 -17.55,-0.78 0,-49.4 0,-98.81 0,-148.21 0.1,-3.59 0.4,-7.72 3.29,-10.25 m 24.73,22.47 c -0.04,20 -0.02,40 -0.01,60 14.4,-0.51 29.75,1.98 43.21,-4.47 7.36,-3.51 12.75,-10.66 14.14,-18.69 1.71,-9.2 0.43,-19.65 -6.03,-26.84 -6.22,-6.93 -15.84,-9.49 -24.84,-9.94 -8.82,-0.13 -17.65,0 -26.47,-0.06 z"
         id="path9"
         inkscape:connector-curvature="0"
         style="opacity:1;fill:#000000" />
      <path
         d="m 380.59,172.52 c 2.82,-3.22 7.43,-3.78 11.47,-3.79 14.99,0.06 29.99,-0.03 44.98,0.05 14.75,0.54 30.3,4.53 41.1,15.14 9.46,8.94 13.65,22.27 13.4,35.06 0.17,14.16 -5.84,28.58 -17.05,37.48 -7.69,6.29 -17.31,9.73 -27.05,11.15 16.68,19.76 33.31,39.56 49.97,59.34 -7.68,4.69 -16.91,4.46 -25.54,3.82 -6.31,-1.15 -11.14,-5.85 -14.92,-10.73 -13.33,-17.09 -26.68,-34.18 -39.99,-51.29 -3.65,0 -7.3,0 -10.95,0.01 -0.04,17.42 0.03,34.84 -0.03,52.26 0.14,5.35 -4.66,9.9 -9.9,9.96 -6.03,-0.05 -12.14,0.46 -18.08,-0.78 0,-49.07 0.01,-98.15 -0.01,-147.22 0.1,-3.58 0.11,-7.6 2.6,-10.46 m 25.42,21.73 c -0.01,16.83 -0.02,33.67 0,50.5 12.28,-0.41 24.74,1.08 36.87,-1.4 8.04,-1.63 16.14,-6.4 18.95,-14.51 2.75,-8.09 2.53,-17.87 -2.58,-25.01 -5.16,-6.88 -14.16,-9.05 -22.31,-9.52 -10.31,-0.15 -20.62,-0.01 -30.93,-0.06 z"
         id="path11"
         inkscape:connector-curvature="0"
         style="opacity:1;fill:#000000" />
      <path
         d="m 518.82,172.81 c 2.61,-3.4 7.22,-3.98 11.21,-4.07 28.14,0.01 56.28,0.02 84.42,0 0.89,6.49 2.32,13.4 -0.02,19.75 -1.44,3.79 -5.5,5.94 -9.44,5.75 -20.15,0.01 -40.3,0.03 -60.44,-0.01 -0.1,14.25 -0.03,28.51 -0.04,42.77 21.33,0.05 42.67,-0.1 64,0.07 0.49,6.1 1.99,12.45 -0.04,18.43 -1.13,3.58 -4.78,6.03 -8.51,5.76 -18.5,0 -36.99,-0.05 -55.48,0.03 0.05,14.4 0,28.8 0.03,43.2 24.04,0 48.09,0.03 72.14,-0.01 0.59,6.56 2.08,13.54 -0.44,19.88 -1.4,3.7 -5.35,5.87 -9.21,5.64 -25.35,0 -50.69,-0.01 -76.04,0.01 -3.8,-0.06 -7.96,-0.42 -11.02,-2.94 -2.94,-2.41 -3.34,-6.51 -3.44,-10.05 -0.01,-44.03 0.02,-88.05 -0.02,-132.07 0.09,-4.08 -0.34,-8.73 2.34,-12.14 z"
         id="path13"
         inkscape:connector-curvature="0"
         style="opacity:1;fill:#000000" />
      <path
         d="m 893.25,172.33 c 2.69,-2.95 6.97,-3.52 10.76,-3.59 28.14,0 56.29,0.02 84.43,0 0.95,6.24 2.24,12.83 0.3,19.02 -1.23,4.12 -5.52,6.74 -9.74,6.48 -20.17,0.05 -40.34,-0.04 -60.52,0.05 0.05,14.23 0,28.47 0.03,42.71 21.29,-0.02 42.59,0.05 63.89,-0.04 0.79,6.15 2.06,12.63 0.06,18.68 -1.15,3.52 -4.79,5.83 -8.44,5.62 -18.5,-0.02 -37,0 -55.5,-0.01 -0.03,14.41 -0.02,28.83 -0.01,43.24 24.05,0 48.09,0.04 72.14,-0.02 0.7,6.76 2.32,14.04 -0.65,20.47 -1.54,3.41 -5.29,5.21 -8.91,5.06 -25.35,0.01 -50.7,-0.01 -76.04,0.01 -3.86,-0.1 -8.11,-0.43 -11.18,-3.01 -3.05,-2.75 -3.33,-7.17 -3.38,-11.01 0.01,-44.34 0.01,-88.67 0,-133 0.08,-3.66 0.12,-7.8 2.76,-10.66 z"
         id="path15"
         inkscape:connector-curvature="0"
         style="opacity:1;fill:#000000" />
      <path
         d="m 1018.75,171.68 c 3.08,-2.63 7.34,-2.97 11.23,-2.95 14.66,0.06 29.32,-0.01 43.99,0.03 15.24,0.46 31.33,4.71 42.3,15.87 10.58,10.76 14.11,26.78 12.17,41.41 -1.53,12.75 -8.4,24.93 -19.03,32.27 -7.22,5.15 -15.85,8 -24.57,9.24 16.53,19.92 33.39,39.56 49.92,59.49 -7.87,4.54 -17.16,4.45 -25.92,3.67 -6.7,-1.43 -11.58,-6.73 -15.56,-11.96 -13.01,-16.67 -25.95,-33.39 -39.04,-50.01 -3.57,0.02 -7.13,0.02 -10.68,-0.01 -0.19,17.38 0.09,34.76 -0.14,52.13 0.04,5.11 -4.17,9.7 -9.26,10.06 -6.22,0.1 -12.5,0.44 -18.65,-0.65 -0.04,-49.75 0.02,-99.5 -0.03,-149.25 -0.04,-3.34 0.61,-7.06 3.27,-9.34 m 24.77,22.56 c -0.03,16.84 -0.03,33.68 0,50.52 11.96,-0.39 24.06,0.96 35.91,-1.23 8.28,-1.52 16.75,-6.28 19.72,-14.6 2.92,-8.4 2.57,-18.68 -3.12,-25.86 -5.62,-6.6 -14.75,-8.53 -23.02,-8.8 -9.83,-0.06 -19.66,0.01 -29.49,-0.03 z"
         id="path17"
         inkscape:connector-curvature="0"
         style="opacity:1;fill:#000000" />
      <path
         d="m 1155.29,179.04 c -0.1,-4.94 3.72,-9.22 8.59,-9.84 6.96,-0.97 14.03,-0.22 21.04,-0.45 22.72,0 45.43,-0.01 68.15,0.01 0.84,6.62 2.43,13.76 -0.26,20.16 -1.54,3.86 -5.91,5.52 -9.81,5.34 -19.92,-0.01 -39.83,-0.01 -59.75,-0.01 -0.01,14.25 0.01,28.49 0,42.74 21.25,0.02 42.51,0 63.77,0.01 0.69,6.02 1.89,12.3 0.13,18.24 -0.97,3.57 -4.47,6.08 -8.14,5.99 -18.59,0.05 -37.17,0 -55.76,0.02 0.02,14.43 -0.05,28.85 0.04,43.27 23.97,-0.04 47.95,-0.02 71.93,-0.01 0.65,6.65 2.24,13.77 -0.55,20.16 -1.41,3.37 -5.04,5.38 -8.62,5.31 -25.35,0.06 -50.71,-0.02 -76.06,0.03 -3.61,-0.07 -7.47,-0.28 -10.6,-2.27 -3.19,-2.03 -4.28,-6.07 -4.16,-9.65 0.07,-46.35 -0.05,-92.7 0.06,-139.05 z"
         id="path19"
         inkscape:connector-curvature="0"
         style="opacity:1;fill:#000000" />
    </g>
  </g>
</svg>
