<svg height="729.99994" viewBox="0 0 2372.4458 729.99997" width="2372.4458" xmlns="http://www.w3.org/2000/svg" xmlns:xlink="http://www.w3.org/1999/xlink"><clipPath id="a"><path d="m411.591 515.351h94.948v18.13h-94.948z"/></clipPath><clipPath id="b"><path d="m412.392 532.67h93.284v-15.246h-93.284z"/></clipPath><clipPath id="c"><path d="m412.392 517.424h93.284v15.245h-93.284z"/></clipPath><linearGradient id="d" gradientTransform="matrix(0 17.057004 17.057004 0 474.76197 515.88703)" gradientUnits="userSpaceOnUse" spreadMethod="pad" x1="0" x2="1" y1="0" y2="0"><stop offset="0" stop-color="#820021"/><stop offset=".104411" stop-color="#ae2c3f"/><stop offset=".901742" stop-color="#ae2c3f"/><stop offset="1" stop-color="#ba3c4c"/></linearGradient><clipPath id="e"><path d="m411.591 515.351h94.948v18.13h-94.948z"/></clipPath><clipPath id="f"><path d="m505.836 530.723h.017v-.016h-.017z"/></clipPath><linearGradient id="g" gradientTransform="matrix(0 -17.343138 17.343138 0 459.06457 533.09243)" gradientUnits="userSpaceOnUse" spreadMethod="pad" x1="0" x2="1" y1="0" y2="0"><stop offset="0" stop-color="#868685"/><stop offset=".020448" stop-color="#d8d9d9"/><stop offset=".0524045" stop-color="#f5f5f5"/><stop offset=".487663" stop-color="#edeeee"/><stop offset=".895488" stop-color="#f5f5f5"/><stop offset=".929442" stop-color="#ebebec"/><stop offset=".964262" stop-color="#d8d9d9"/><stop offset="1" stop-color="#868685"/></linearGradient><path d="m414.085 532.944c-1.345 0-1.823-.794-1.823-2.114v-12.829c0-1.32.478-2.114 1.823-2.114h89.96c1.345 0 1.822.794 1.822 2.114v12.829c0 1.32-.477 2.114-1.822 2.114z" fill="url(#g)" transform="matrix(24.9869 0 0 -24.9869 -10284.383283 13330.023906)"/><g clip-path="url(#e)" transform="matrix(24.9869 0 0 -24.9869 -10284.383283 13330.023906)"><g transform="translate(503.9336 515.3505)"><path d="m0 0c1.996 0 2.605 1.241 2.605 2.482v13.166c0 1.241-.609 2.482-2.605 2.482h-89.738c-1.997 0-2.605-1.241-2.605-2.482v-13.166c0-1.241.608-2.482 2.605-2.482zm-89.646.167c-1.344 0-2.254.793-2.254 2.114v13.568c0 1.321.91 2.114 2.254 2.114h89.554c1.344 0 2.254-.793 2.254-2.114v-13.568c0-1.321-.91-2.114-2.254-2.114h-89.554z" fill="#a1a2a2"/></g><g><g/><g><g clip-path="url(#f)" opacity=".800003"><g/></g></g></g></g><path d="m443.657 532.944v-17.057h60.388c1.345 0 1.822.794 1.822 2.114v12.829c0 1.32-.477 2.114-1.822 2.114z" fill="url(#d)" transform="matrix(24.9869 0 0 -24.9869 -10284.383283 13330.023906)"/><g clip-path="url(#a)" transform="matrix(24.9869 0 0 -24.9869 -10284.383283 13330.023906)"><g transform="translate(452.075 519.0374)"><path d="m0 0c-.756 0-1.454.136-2.093.408-.639.273-1.192.649-1.661 1.129-.469.481-.836 1.052-1.102 1.714s-.4 1.377-.4 2.146c0 .747.134 1.446.4 2.098.266.651.633 1.217 1.102 1.697.469.481 1.022.857 1.661 1.129.639.273 1.337.409 2.093.409.543 0 1.07-.059 1.581-.176.512-.118.985-.268 1.422-.449.096-1.42-.25-2.13-1.038-2.13-.139 0-.266.016-.384.048-.117.032-.245.064-.383.096-.139.032-.293.064-.463.096-.171.032-.373.049-.607.049-.373 0-.724-.067-1.055-.201-.33-.133-.614-.326-.854-.576-.24-.251-.429-.553-.567-.905-.139-.352-.208-.748-.208-1.185 0-.46.069-.871.208-1.233.138-.363.327-.67.567-.921s.524-.443.854-.577c.331-.133.682-.2 1.055-.2.234 0 .442.016.623.048s.343.064.487.096.28.064.407.096c.128.032.261.048.4.048.777 0 1.123-.71 1.038-2.13-.437-.181-.924-.331-1.462-.448s-1.078-.176-1.621-.176" fill="#fff"/></g><g transform="translate(457.5874 519.1654)"><path d="m0 0c-.224 0-.445.011-.663.032s-.402.048-.551.08v9.273c0 .309.096.573.287.792.192.219.554.329 1.087.329.223 0 .444-.011.663-.033.218-.021.402-.048.551-.08v-9.272c0-.31-.096-.574-.288-.793-.191-.219-.554-.328-1.086-.328" fill="#fff"/></g><g transform="translate(461.9564 519.1654)"><path d="m0 0c-.213 0-.421.011-.623.032-.203.021-.373.048-.511.08v10.201c.159.054.367.099.623.137.255.037.473.056.655.056.585 0 1.011-.075 1.278-.225.266-.149.489-.368.671-.656l3.626-5.717v5.573c0 .138.018.269.056.392.037.123.101.232.191.328.091.096.216.171.376.224.159.054.362.081.607.081.213 0 .418-.011.615-.033.197-.021.364-.042.503-.063v-10.218c-.149-.075-.33-.125-.543-.152s-.421-.04-.623-.04c-.501 0-.874.069-1.118.208-.246.139-.448.331-.607.577l-3.882 6.214v-5.942c0-.299-.091-.55-.272-.753s-.522-.304-1.022-.304" fill="#fff"/></g><g transform="translate(473.3041 519.2296)"><path d="m0 0c-.298 0-.541.032-.727.096s-.33.152-.431.264c-.102.112-.171.248-.208.409-.037.16-.056.33-.056.512v7.847c0 .182.019.353.056.513s.106.296.208.408c.101.112.245.2.431.264s.429.096.727.096h5.287c.022-.117.043-.277.064-.48.022-.203.032-.411.032-.624 0-.449-.09-.767-.271-.953-.182-.187-.41-.281-.687-.281h-3.259v-1.825h3.754c.021-.107.043-.249.064-.425s.032-.366.032-.568c0-.427-.086-.718-.256-.873s-.383-.232-.639-.232h-2.955v-1.81h4.281c.021-.118.043-.28.064-.488.021-.209.032-.414.032-.617 0-.459-.091-.779-.272-.961-.181-.181-.41-.272-.686-.272z" fill="#fff"/></g><g transform="translate(480.983 519.1654)"><path d="m0 0c-.245 0-.461.024-.647.072-.187.048-.349.104-.487.168l.976 9.977c.203.086.469.155.799.208.33.054.612.081.846.081.33 0 .615-.022.854-.065.24-.042.445-.114.615-.216.17-.101.306-.243.407-.424.101-.182.178-.406.232-.673l.415-1.937c.117-.534.242-1.124.375-1.77s.253-1.311.359-1.994h.064c.117.683.239 1.345.367 1.986s.261 1.228.399 1.761l.51 2.034c.128.502.332.844.614 1.025.282.182.721.273 1.316.273.298 0 .598-.025.901-.073s.556-.098.758-.152l.934-10.041c-.149-.053-.328-.107-.535-.16-.208-.053-.434-.08-.679-.08-.341 0-.629.059-.863.176-.234.118-.362.337-.383.657l-.24 3.459c-.053.609-.098 1.246-.136 1.914-.037.667-.061 1.299-.072 1.898h-.032c-.138-.556-.279-1.156-.423-1.802s-.29-1.241-.439-1.786l-.655-2.722c-.16-.641-.666-.961-1.518-.961-.213 0-.431.021-.655.064-.223.042-.415.09-.575.144l-.814 3.395c-.16.63-.309 1.249-.447 1.858-.139.608-.267 1.217-.384 1.825h-.048c-.032-.854-.074-1.636-.128-2.346-.053-.71-.101-1.321-.143-1.833l-.256-3.123c-.021-.31-.138-.523-.351-.641-.214-.117-.49-.176-.831-.176" fill="#fff"/></g><g transform="translate(496.0557 523.5375)"><path d="m0 0h2.39l-1.192 3.923zm-2.492-4.404c-.202 0-.434.019-.694.056-.262.037-.477.088-.647.152l3.314 10.153c.288.075.579.129.873.161s.563.048.809.048c.352 0 .654-.027.905-.08.251-.054.462-.134.633-.241s.312-.248.424-.424.206-.382.281-.617l2.84-8.984c-.181-.075-.399-.131-.655-.168-.255-.037-.506-.056-.75-.056-.278 0-.546.045-.807.136s-.45.296-.567.617l-.544 1.649h-3.484l-.461-1.553c-.117-.374-.314-.609-.591-.705s-.57-.144-.879-.144" fill="#fff"/></g><g transform="translate(423.1164 522.7819)"><path d="m0 0c0-1.46-.955-2.527-2.894-2.738-1.404-.15-3.438.027-4.404.138-.036.158-.064.354-.064.508 0 1.278.691 1.569 1.338 1.569.672 0 1.73-.116 2.518-.116.865 0 1.129.294 1.129.573 0 .367-.349.52-1.021.648l-1.839.354c-1.531.293-2.348 1.352-2.348 2.476 0 1.366.967 2.509 2.868 2.72 1.438.155 3.187-.02 4.148-.138.035-.165.053-.321.053-.492 0-1.274-.671-1.549-1.319-1.549-.497 0-1.269.093-2.15.093-.897 0-1.269-.248-1.269-.55 0-.319.355-.451.916-.549l1.758-.326c1.806-.333 2.58-1.359 2.58-2.621m3.155-1.568c0-.783-.307-1.235-1.836-1.235-.203 0-.38.015-.55.04v10.39c0 .789.269 1.612 1.813 1.612.194 0 .391-.02.573-.058zm6.25-4.019c.2-.103.612-.227 1.131-.241.886-.019 1.371.321 1.73 1.116l4.764 10.626c-.197.106-.631.223-.988.231-.612.011-1.434-.114-1.96-1.367l-1.543-3.641-3.025 4.927c-.195.06-.671.146-1.021.146-1.067 0-1.665-.394-2.284-1.066l-2.941-3.217 2.366-3.723c.437-.678 1.013-1.024 1.949-1.024.612 0 1.121.139 1.357.252l-2.848 4.295 2.019 2.139 3.311-5.197z" fill="#ae2c3f"/></g><g><g/><g><g clip-path="url(#b)" opacity=".399994"><g><g><g clip-path="url(#c)"><g transform="translate(504.1664 519.8869)"><path d="m0 0c1.156-1.145 1.313-2.225 1.354-2.463.114 0 .156.506.156 1.261l-.004 12.109c0 1.402-.456 1.876-1.644 1.876-.402 0-.804-.216-1.339-.216h-87.31c-.536 0-.938.216-1.34.216-1.187 0-1.643-.474-1.643-1.876l-.004-12.109c0-.755.041-1.261.155-1.261.041.238.076 1.402 1.354 2.463 10.208 7.878 79.259 10.296 90.265 0" fill="#fff"/></g></g></g></g></g></g></g></g><g fill="#fff" transform="matrix(1.0171885 0 0 1.0171885 677.38355 392.180144)"><path d="m228.48 179.66c11.42-9.04 26.24-12.61 40.59-12.67 18.6-.41 37.13 3.18 54.65 9.32.15 6.46.36 13.97-4.39 19.01-4.19 3.8-10.36 2.77-15.41 1.69-13.45-2.77-27.24-5.33-41.02-3.84-6.08.7-12.37 2.53-16.97 6.77-5.42 4.97-6.5 13.77-2.83 20.06 2.58 4.25 7.39 6.27 11.76 8.15 9.85 3.71 20.15 6.03 30.21 9.08 11.61 3.01 23.38 7.06 32.66 14.94 7.57 6.27 12.62 15.46 13.67 25.25 1.21 11.08-.55 22.85-6.53 32.41-7.52 11.58-20.76 18.05-33.96 20.67-10.48 2.4-21.28 1.25-31.92 1.48-15.5-1.22-30.95-4.4-45.56-9.74-.06-6.54-.02-13.99 4.75-19.07 4.47-4.06 11.09-2.73 16.44-1.62 15.49 3.69 31.53 6.88 47.49 4.57 5.51-.89 11.21-2.72 15.11-6.92 5.8-5.59 7.55-15.09 3.84-22.28-2.68-5.08-8.09-7.78-13.24-9.73-12.61-4.57-25.83-7.15-38.53-11.41-10.01-3.57-20.13-8.53-26.68-17.22-13.37-17.12-11.39-45.11 5.87-58.9z"/><path d="m692.28 174.2c7.91-4.16 16.75-6.24 25.63-6.91 20.71-1.53 41.51 2.22 61.06 8.97.17 6.34.35 13.51-3.97 18.66-3.67 3.79-9.48 3.4-14.22 2.4-14.84-3.05-30.12-6.09-45.29-3.79-6.5 1.23-13.53 3.88-17.05 9.87-4.35 7.12-2.29 17.91 5.48 21.76 10.94 5.9 23.38 7.98 35.13 11.71 13.72 3.54 28.02 8.36 37.88 19.08 7.27 7.72 10.55 18.56 10.09 29.04-.11 12.46-4.67 25.37-14.47 33.48-12.83 10.65-30.2 14.24-46.54 13.53-19.4.88-38.54-3.57-56.93-9.33-.89-6.4-.29-13.58 3.76-18.86 4.2-4.64 11.16-3.53 16.61-2.35 15.57 3.69 31.66 6.97 47.72 4.69 5.5-.89 11.26-2.62 15.18-6.83 5.82-5.45 7.6-14.7 4.25-21.92-2.13-4.47-6.54-7.23-10.91-9.16-16.72-6.78-35.07-8.81-51.36-16.74-8.19-3.96-15.56-10.02-19.86-18.15-6.84-12.2-6.84-27.56-1.27-40.24 3.78-8.38 10.95-14.84 19.08-18.91z"/><path d="m498.53 168.74c6.5-1.1 13.17-.39 19.65.57.17 49.9.02 99.8.07 149.7.31 4.93-2.25 10.48-7.35 11.82-6.75 1.77-13.84.67-20.63-.26-.04-50.56-.02-101.11-.02-151.67-.08-4.79 3.52-9.34 8.28-10.16z"/><path d="m359.3 171.3c2.71-2.18 6.38-2.52 9.74-2.56 14 .03 28.01-.02 42.02.02 14.92.45 30.36 4.47 41.98 14.24 23.43 19.79 23.57 60.46.72 80.75-11.11 9.92-26.04 14.84-40.78 15.25-9.74.01-19.48-.02-29.22.01-.01 13.68-.02 27.36.01 41.05.24 4.84-2.86 9.94-7.82 10.93-6.65 1.5-13.61.58-20.24-.58.09-49.45.02-98.91.03-148.37.02-3.79.69-7.99 3.56-10.74m24.47 22.95c-.03 20-.02 39.99-.01 59.99 14.18-.59 29.18 2.06 42.59-3.83 9.83-4.21 15.63-14.97 15.43-25.43.4-7.94-1.82-16.38-7.69-22.01-6.62-6.4-16.14-8.48-25.08-8.71-8.41-.03-16.83 0-25.24-.01z"/><path d="m553.8 171.81c2.38-2.42 5.99-2.89 9.23-3.05 28.62-.04 57.25.02 85.88-.03 1.01 5.98 1.71 12.18.57 18.18-.98 4.71-5.85 7.64-10.48 7.34-20.08 0-40.16 0-60.24 0-.02 14.33-.01 28.66 0 42.99 21.37 0 42.74.05 64.11-.03.76 5.72 1.48 11.6.41 17.32-.81 4.25-5.1 7.08-9.29 6.96-18.41.06-36.83-.06-55.25.06.03 14.4-.01 28.79.02 43.2 24.1.01 48.2-.02 72.3.01.75 6.09 1.75 12.43.16 18.47-1.1 4.48-5.71 7.3-10.18 7.03-25.33-.01-50.65-.01-75.98-.01-3.87-.13-8.22-.32-11.23-3.07-3.45-4.27-3.14-10.05-3.09-15.21.02-43.34 0-86.68.01-130.01.13-3.53.66-7.38 3.05-10.15z"/></g></svg>