<?xml version="1.0" encoding="UTF-8"?>
<!-- Created with Inkscape (http://www.inkscape.org/) -->
<svg id="svg4639" width="845.43mm" height="206.02mm" version="1.1" viewBox="0 0 845.43 206.02" xmlns="http://www.w3.org/2000/svg" xmlns:cc="http://creativecommons.org/ns#" xmlns:dc="http://purl.org/dc/elements/1.1/" xmlns:rdf="http://www.w3.org/1999/02/22-rdf-syntax-ns#">
 <defs id="defs4633">
  <linearGradient id="a" x2="1" gradientTransform="matrix(0 433.34 433.34 0 1745.7 -326.56)" gradientUnits="userSpaceOnUse">
   <stop id="stop2" stop-color="#777878" offset="0"/>
   <stop id="stop4" stop-color="#d0d2d0" offset=".020448"/>
   <stop id="stop6" stop-color="#f3f3f2" offset=".052404"/>
   <stop id="stop8" stop-color="#e9ebe9" offset=".48766"/>
   <stop id="stop10" stop-color="#f3f3f2" offset=".89549"/>
   <stop id="stop12" stop-color="#e6e7e6" offset=".92944"/>
   <stop id="stop14" stop-color="#d0d2d0" offset=".96426"/>
   <stop id="stop16" stop-color="#777878" offset="1"/>
  </linearGradient>
  <linearGradient id="b" x2="1" gradientTransform="matrix(0 -426.19 426.19 0 1824.2 103.5)" gradientUnits="userSpaceOnUse">
   <stop id="stop19" stop-color="#820021" offset="0"/>
   <stop id="stop21" stop-color="#ae2c3f" offset=".10441"/>
   <stop id="stop23" stop-color="#ae2c3f" offset=".89813"/>
   <stop id="stop25" stop-color="#b53152" offset=".99967"/>
   <stop id="stop27" stop-color="#ba3c4c" offset="1"/>
  </linearGradient>
  <clipPath id="c">
   <path id="path30" d="m291.44 532.08h118.29v-15.246h-118.29z"/>
  </clipPath>
  <clipPath id="d">
   <path id="path33" d="m291.44 516.83h118.29v15.245h-118.29z"/>
  </clipPath>
 </defs>
 <metadata id="metadata4636">
  <rdf:RDF>
   <cc:Work rdf:about="">
    <dc:format>image/svg+xml</dc:format>
    <dc:type rdf:resource="http://purl.org/dc/dcmitype/StillImage"/>
    <dc:title/>
   </cc:Work>
  </rdf:RDF>
 </metadata>
 <g id="layer1" transform="translate(393.23 -15.583)">
  <g id="g72" transform="matrix(.28222 0 0 .28222 -463.2 110.9)">
   <path id="path36" d="m3178.4 115.27c49.898 0 65.09-31.008 65.09-62.016v-328.97c0-31.008-15.192-62.016-65.09-62.016h-2865.4c-49.898 0-65.09 31.008-65.09 62.016v328.97c0 31.008 15.192 62.016 65.09 62.016zm-2863.1-4.1727c-33.582 0-56.32-19.814-56.32-52.821v-339.02c0-33.007 22.738-52.821 56.32-52.821h2860.8c33.582 0 56.32 19.814 56.32 52.821v339.02c0 33.007-22.738 52.821-56.32 52.821z" fill="#939697"/>
   <path id="path38" d="m310.23-322.85c-33.607 0-45.55 19.839-45.55 52.821v320.55c0 33.007 11.944 52.821 45.55 52.821h2871c33.607 0 45.55-19.814 45.55-52.821v-320.55c0-32.982-11.944-52.821-45.55-52.821z" fill="url(#a)"/>
   <path id="path40" d="m1049.1 103.5h1550.1v-426.19h-1550.1z" fill="url(#b)"/>
   <g id="g54" fill="#fff">
    <path id="path42" d="m1259.5 25.084c-18.89 0-36.33-3.3982-52.297-10.194-15.966-6.8213-29.784-16.216-41.503-28.21-11.719-12.018-20.889-26.286-27.535-42.827s-9.9696-34.406-9.9696-53.621c0-18.665 3.3232-36.155 9.9696-52.422s15.816-30.409 27.535-42.402c11.719-12.018 25.536-21.413 41.503-28.21 15.966-6.8213 33.407-10.219 52.297-10.219 13.568 0 26.736 1.4742 39.504 4.3976 12.793 2.9484 24.612 6.6714 35.531 11.219 2.3987 35.481-6.2466 53.221-25.936 53.221-3.4731 0-6.6464-0.39979-9.5948-1.1994-2.9234-0.79957-6.1217-1.5991-9.5698-2.3987-3.4731-0.79956-7.321-1.5991-11.569-2.3987-4.2727-0.79957-9.32-1.2243-15.167-1.2243-9.32 0-18.09 1.6741-26.361 5.0223-8.2455 3.3232-15.342 8.1206-21.338 14.392-5.9968 6.2716-10.719 13.818-14.167 22.613-3.4731 8.7952-5.1972 18.665-5.1972 29.609 0 11.469 1.7241 21.738 5.1972 30.808 3.4482 9.0701 8.1706 16.741 14.167 23.013 5.9967 6.2716 13.093 11.069 21.338 14.417 8.2706 3.3232 17.041 4.9973 26.361 4.9973 5.8468 0 11.044-0.39978 15.567-1.1994 4.5225-0.79957 8.5703-1.5991 12.168-2.3987 3.598-0.79957 6.9962-1.5991 10.17-2.3987 3.1982-0.79957 6.5214-1.1994 9.9946-1.1994 19.414 0 28.06 17.74 25.936 53.196-10.919 4.5475-23.088 8.2955-36.53 11.219-13.443 2.9234-26.935 4.3976-40.503 4.3976"/>
    <path id="path44" d="m1397.2 21.883c-5.597 0-11.119-0.27485-16.566-0.79957-5.4471-0.52472-10.045-1.1994-13.768-1.9989v-231.7c0-7.7208 2.3987-14.317 7.1711-19.789 4.7974-5.472 13.842-8.1956 27.16-8.1956 5.597 0 11.094 0.24986 16.566 0.79957 5.447 0.52471 10.044 1.1994 13.768 1.9989v231.67c0 7.7458-2.3987 14.342-7.1961 19.814-4.7724 5.472-13.842 8.1956-27.135 8.1956"/>
    <path id="path46" d="m1506.4 21.883c-5.3221 0-10.519-0.27485-15.567-0.79957-5.0722-0.52472-9.3199-1.1994-12.768-1.9989v-254.89c3.9729-1.3493 9.1701-2.4737 15.567-3.3982 6.3716-0.94948 11.819-1.3992 16.366-1.3992 14.617 0 25.261 1.849 31.933 5.597 6.6464 3.723 12.218 9.195 16.741 16.391l90.626 142.85v-139.25c0-3.4481 0.4498-6.7214 1.3993-9.7947 0.9245-3.0733 2.5236-5.7969 4.7724-8.1956 2.2737-2.3987 5.3971-4.2727 9.3949-5.597 3.9728-1.3493 9.0451-1.9989 15.167-1.9989 5.3221 0 10.444 0.24986 15.367 0.79957 4.9223 0.52471 9.0951 1.0494 12.568 1.5991v255.29c-3.723 1.874-8.2456 3.1233-13.568 3.7979-5.3221 0.67464-10.519 0.99946-15.567 0.99946-12.518 0-21.838-1.7241-27.935-5.1972-6.1466-3.4731-11.194-8.2705-15.167-14.417l-96.998-155.24v148.44c0 7.471-2.2738 13.743-6.7963 18.815-4.5226 5.0723-13.043 7.5959-25.536 7.5959"/>
    <path id="path48" d="m1789.9 20.284c-7.446 0-13.518-0.79957-18.165-2.3987s-8.2455-3.7979-10.769-6.5964c-2.5486-2.7985-4.2726-6.2216-5.1971-10.219-0.9245-3.9978-1.3993-8.2455-1.3993-12.793v-196.07c0-4.5475 0.4748-8.8202 1.3993-12.818s2.6485-7.396 5.1971-10.194c2.5237-2.7985 6.1217-4.9973 10.769-6.5964 4.6475-1.5991 10.719-2.3987 18.165-2.3987h132.1c0.5497 2.9234 1.0744 6.9212 1.5991 11.994 0.5497 5.0723 0.7996 10.269 0.7996 15.592 0 11.219-2.2488 19.165-6.7714 23.812-4.5475 4.6725-10.244 7.0212-17.166 7.0212h-81.431v45.6h93.799c0.5247 2.6736 1.0744 6.2216 1.5991 10.619 0.5248 4.3976 0.7996 9.1451 0.7996 14.192 0 10.669-2.1488 17.94-6.3965 21.813-4.2477 3.8729-9.5699 5.7969-15.966 5.7969h-73.835v45.226h106.97c0.5247 2.9234 1.0744 6.9962 1.5991 12.193s0.7996 10.344 0.7996 15.417c0 11.469-2.2738 19.464-6.7963 24.012-4.5226 4.5226-10.244 6.7963-17.141 6.7963z"/>
    <path id="path50" d="m1981.8 21.883c-6.1217 0-11.519-0.59968-16.166-1.799-4.6724-1.1994-8.7202-2.5986-12.168-4.1977l24.387-249.29c5.0723-2.1488 11.719-3.8729 19.964-5.1972 8.2456-1.3493 15.292-1.9989 21.139-1.9989 8.2455 0 15.367 0.52471 21.338 1.5991 5.9967 1.0494 11.119 2.8485 15.367 5.3971 4.2477 2.5236 7.6458 6.0717 10.17 10.594 2.5236 4.5476 4.4475 10.145 5.7968 16.816l10.369 48.424c2.9234 13.318 6.0467 28.06 9.3699 44.201 3.3232 16.141 6.3216 32.757 8.9702 49.823h1.5991c2.9234-17.066 5.9718-33.607 9.1701-49.623 3.1982-15.991 6.5214-30.683 9.9696-44.001l12.743-50.823c3.1983-12.543 8.2955-21.089 15.342-25.611 7.0462-4.5475 18.015-6.7963 32.882-6.7963 7.446 0 14.942 0.59967 22.513 1.799 7.5709 1.1994 13.892 2.4487 18.94 3.7979l23.337 250.89c-3.723 1.3243-8.1956 2.6736-13.368 3.9978-5.1972 1.3243-10.844 1.9989-16.966 1.9989-8.5204 0-15.716-1.4742-21.563-4.3976-5.8468-2.9234-9.0451-8.4204-9.5698-16.416l-5.9968-86.428c-1.3242-15.217-2.4486-31.133-3.3981-47.824-0.9245-16.666-1.5242-32.457-1.799-47.399h-0.7996c-3.4481 13.868-6.9712 28.859-10.569 45.001-3.598 16.141-7.2461 31.008-10.969 44.626l-16.366 68.013c-3.9978 16.016-16.641 24.012-37.93 24.012-5.3221 0-10.769-0.52472-16.366-1.5991-5.572-1.0494-10.369-2.2488-14.367-3.5981l-20.339-84.829c-3.9978-15.741-7.7208-31.208-11.169-46.425-3.4732-15.192-6.6714-30.409-9.5948-45.6h-1.1994c-0.7996 21.338-1.849 40.878-3.1983 58.618-1.3242 17.74-2.5236 33.007-3.573 45.8l-6.3966 78.033c-0.5247 7.7458-3.4481 13.093-8.7702 16.016-5.3471 2.9234-12.243 4.3976-20.764 4.3976"/>
    <path id="path52" d="m2358.4-87.358h59.718l-29.784-98.047zm-62.266 110.04c-5.0473 0-10.844-0.47474-17.341-1.3992-6.5465-0.94949-11.919-2.1988-16.166-3.7979l82.805-253.69c7.1961-1.874 14.467-3.2233 21.813-4.0228 7.346-0.79957 14.067-1.1994 20.214-1.1994 8.7952 0 16.341 0.67464 22.613 1.9989 6.2716 1.3493 11.544 3.3482 15.816 6.0218 4.2727 2.6486 7.7958 6.1966 10.594 10.594 2.7985 4.3976 5.1472 9.5448 7.0212 15.417l70.962 224.48c-4.5226 1.874-9.9696 3.2482-16.366 4.1977-6.3715 0.9245-12.643 1.3992-18.765 1.3992-6.9213 0-13.618-1.1494-20.139-3.3982-6.5215-2.2738-11.244-7.396-14.167-15.417l-13.593-41.203h-87.053l-11.519 38.804c-2.9234 9.3449-7.8457 15.217-14.767 17.615-6.9213 2.3987-14.242 3.5981-21.963 3.5981"/>
   </g>
   <path id="path56" d="m2845.4-136.98v-60.167c0-16.316 6.4965-26.686 40.178-26.686 4.1477 0 7.6958 0.27486 11.844 0.9245v197.42c0 16.241-6.4965 26.611-40.228 26.611-4.0978 0-7.6708-0.32482-11.794-0.9245v-89.652h-104.87v63.965c0 16.241-6.5215 26.611-40.253 26.611-4.0728 0-7.6209-0.32482-11.819-0.9245v-197.34c0-16.316 6.5215-26.686 40.228-26.686 4.1478 0 7.6959 0.27486 11.844 0.9245v85.929zm298.59 25.336c0-67.064-48.299-112.56-128.26-112.56h-54.371c-26.086 0-32.332 13.743-32.332 31.808v161.94c0 17.316 6.2466 31.408 32.332 31.408h54.371c79.957 0 128.26-45.5 128.26-112.59m-162.84 64.39v-128.78h37.63c52.397 0 71.561 33.932 71.561 64.39 0 30.533-19.165 64.39-71.561 64.39z" fill="#ae2c3f"/>
   <path id="path58" d="m535.91-68.78c0 36.48-23.862 63.141-72.311 68.413-35.081 3.748-85.904-0.67464-110.04-3.4481-0.89952-3.9479-1.5991-8.8452-1.5991-12.693 0-31.933 17.266-39.204 33.432-39.204 16.791 0 43.227 2.8984 62.916 2.8984 21.613 0 28.21-7.346 28.21-14.317 0-9.17-8.7203-12.993-25.511-16.191l-45.95-8.8452c-38.254-7.321-58.668-33.782-58.668-61.867 0-34.132 24.162-62.691 71.661-67.963 35.931-3.8729 79.632 0.49973 103.64 3.4481 0.87453 4.1228 1.3243 8.0207 1.3243 12.293 0 31.833-16.766 38.704-32.957 38.704-12.418 0-31.708-2.3237-53.721-2.3237-22.413 0-31.708 6.1966-31.708 13.743 0 7.9707 8.8702 11.269 22.888 13.718l43.926 8.1456c45.126 8.3205 64.465 33.957 64.465 65.49m78.832 39.179c0 19.564-7.6708 30.858-45.875 30.858-5.0723 0-9.4949-0.3748-13.743-0.99946v-259.61c0-19.714 6.7214-40.278 45.3-40.278 4.8474 0 9.7697 0.49973 14.317 1.4492zm156.17 100.42c4.9973 2.5736 15.292 5.6719 28.26 6.0217 22.138 0.47474 34.256-8.0207 43.227-27.885l119.04-265.51c-4.9223-2.6486-15.766-5.572-24.687-5.7719-15.292-0.27485-35.831 2.8485-48.974 34.157l-38.554 90.976-75.584-123.11c-4.8724-1.4992-16.766-3.648-25.511-3.648-26.661 0-41.602 9.8447-57.069 26.636l-73.485 80.382 59.118 93.025c10.919 16.941 25.311 25.586 48.699 25.586 15.292 0 28.01-3.4731 33.907-6.2966l-71.162-107.32 50.448-53.446 82.73 129.85z" fill="#ae2c3f"/>
   <g id="g70" transform="matrix(24.986 0 0 -24.986 -7014.1 12979)" clip-path="url(#c)" opacity=".39999">
    <g id="g68">
     <g id="g66">
      <g id="g64" clip-path="url(#d)">
       <g id="g62" transform="translate(408.22 519.29)">
        <path id="path60" d="m0 0c1.157-1.145 1.315-2.225 1.356-2.463 0.113 0 0.155 0.506 0.155 1.261l-4e-3 12.109c0 1.402-0.456 1.876-1.645 1.876-0.402 0-0.805-0.216-1.341-0.216h-112.31c-0.536 0-0.938 0.216-1.341 0.216-1.188 0-1.645-0.474-1.645-1.876l-4e-3 -12.109c0-0.755 0.042-1.261 0.156-1.261 0.041 0.238 0.076 1.402 1.356 2.463 10.217 7.878 104.25 10.296 115.27 0" fill="#fff"/>
       </g>
      </g>
     </g>
    </g>
   </g>
  </g>
  <g id="g92" transform="matrix(.28331 0 0 .28331 -168.71 169.47)" fill="#fff">
   <path id="path74" d="m1056.6 17.81c17.95-2.81 37.05-0.48 53.03 8.5 21.86 11.64 36.19 34.71 39.68 58.93 2.29 16.64 0.96 34.05-5.54 49.66-6 14.89-16.23 28.26-29.74 37.08-10.74 6.9-23.2 11.49-36.01 12.03-7.68-0.23-15.46 0.64-23.03-0.99-17.54-3.24-33.7-13.05-44.76-27.02-22.51-28.07-25.08-69.98-7.28-101.05 11.06-19.65 31.39-33.64 53.65-37.14m4.91 24.91c-12.75 2.57-23.95 10.91-30.85 21.82-10.38 15.88-12.38 36.23-7.66 54.37 3.59 13.72 11.92 26.58 24.28 33.9 9.78 6.12 21.98 7.92 33.2 5.45 14.31-3.45 26.42-13.87 33.09-26.84 7.83-14.69 9.36-32.32 5.46-48.39-3.25-13.35-11.04-25.82-22.61-33.45-10.09-6.87-22.97-9.44-34.91-6.86z"/>
   <path id="path76" d="m146.41 20.87c7.67-1.94 15.64-2.48 23.53-2.01 4.73 0.32 9.67 1.66 13.13 5.08 3.47 3.7 5.05 8.66 6.66 13.37 16.25 47.34 32.4 94.72 48.7 142.04-7.65 3.48-16.63 4.61-24.66 1.77-3.13-1.07-4.8-4.21-5.81-7.14-3.91-11.75-7.97-23.46-11.84-35.22-21.02-0.01-42.04-0.01-63.06-0.01-3.98 11.78-7.86 23.6-11.81 35.39-1.06 3.21-3.14 6.48-6.61 7.39-7.6 2.18-16.01 1.33-23.26-1.71 18.24-53.02 36.77-105.93 55.03-158.95m18.45 22.9c-8.1 23.6-15.67 47.38-23.84 70.96 15.81 0.04 31.62 0.01 47.43 0.02-7.96-23.63-15.44-47.43-23.59-70.98z"/>
   <path id="path78" d="m255.05 21.43c7.39-2.38 15.36-2.75 23.01-1.64 5.56 0.63 10.17 4.45 13.17 8.98 24.11 37.18 48.12 74.43 72.25 111.6-0.13-36.8-1.09-73.59-1.25-110.39-0.32-4.59 2.84-9.36 7.49-10.21 6.11-1.16 12.41-0.4 18.5 0.58 0.08 53.36-0.01 106.73 0.04 160.1-6.77 2.47-14.22 2.85-21.29 1.63-5.45-0.83-9.98-4.63-12.8-9.22-24.7-38.52-49.46-77.01-74.13-115.55 0.4 35.26 0.89 70.52 1.34 105.78 0.04 6.02 1.58 13.98-4.39 17.8-6.84 3.18-14.73 1.64-21.96 0.92-0.04-53.46-0.08-106.92 0.02-160.38z"/>
   <path id="path80" d="m430.5 19.6c6.32-0.81 12.78-0.36 19.02 0.83-0.06 50.19 0.02 100.38-0.03 150.56 0.07 4.65-2.67 9.73-7.43 10.87-6.73 1.72-13.78 0.65-20.54-0.33-0.05-50.52-0.01-101.04-0.02-151.55-0.11-5.1 3.9-9.82 9-10.38z"/>
   <path id="path82" d="m492.06 22.29c10.25-3.34 21.62-4.33 32.07-1.36 5.97 1.61 10.07 7.06 11.29 12.94 9.13 35.94 18.15 71.9 27.3 107.84 9.3-36.11 18.53-72.24 27.86-108.34 1.53-5.95 6.16-10.98 12.15-12.6 10.02-2.87 20.73-1.47 30.73 0.82 5.28 52.72 10.43 105.46 15.6 158.2-6.96 2.57-14.91 3.99-22.02 1.2-3.1-1.14-4.99-4.27-5.22-7.47-3.57-42.33-6.97-84.67-10.56-126.99-10.17 37.2-19.99 74.5-30.07 111.72-1.2 4.72-4.35 9.28-9.18 10.73-8 2.65-16.73 1.63-24.78-0.25-11.4-40.82-22.77-81.66-34.02-122.52-3.97 42.3-7.66 84.62-11.53 126.93-0.2 2.92-1.46 6.05-4.26 7.35-6.85 3.41-14.96 2.07-21.81-0.66 5.39-52.52 10.92-105.03 16.45-157.54z"/>
   <path id="path84" d="m717.24 21c7.35-2.11 15.08-2.5 22.69-2.19 4.79 0.3 9.96 1.26 13.53 4.74 4.05 3.78 5.65 9.3 7.39 14.39 16.16 47.16 32.3 94.32 48.47 141.48-7.69 3.37-16.57 4.51-24.63 1.75-2.77-1.05-4.56-3.68-5.52-6.37-4.16-11.99-8-24.09-12.26-36.05-20.98 0.01-41.96 0-62.94 0-3.99 11.81-7.87 23.66-11.85 35.47-1.12 3.41-3.55 6.72-7.22 7.52-7.46 1.83-15.65 1.11-22.67-1.98 18.35-52.92 36.79-105.8 55.01-158.76m18.55 22.36c-7.84 23.83-16 47.55-23.82 71.39 15.8 0 31.61-0.01 47.41 0.01-7.94-23.78-15.74-47.6-23.59-71.4z"/>
   <path id="path86" d="m941.16 24.14c1.99-3.36 6.08-4.66 9.78-4.85 5.46-0.21 11-0.01 16.37 1.15-0.13 49.19-0.04 98.38-0.05 147.56 0.57 5.06-0.68 11.28-5.95 13.36-7.06 2.57-14.78 1.09-22.02 0.18-0.11-49.51 0.01-99.02-0.06-148.53-0.01-3.03 0.19-6.27 1.93-8.87z"/>
   <path id="path88" d="m1174.5 21.53c8.11-2.74 17.06-3.03 25.41-1.25 7.04 1.83 10.93 8.48 14.53 14.22 22.86 35.3 45.68 70.63 68.56 105.92-0.24-37.13-1.05-74.25-1.34-111.37 0.23-4.15 3-8.3 7.24-9.18 6.19-1.34 12.65-0.5 18.86 0.5 0 53.38 0.02 106.76-0.01 160.14-7.92 2.63-16.74 3.14-24.74 0.64-6.84-2.61-10.04-9.56-13.83-15.26-23.21-36.2-46.46-72.37-69.66-108.57 0.41 35.54 0.93 71.07 1.35 106.61 0.21 5.88 1.33 13.77-4.77 17.2-6.81 2.82-14.45 1.4-21.55 0.7-0.11-53.44 0-106.87-0.05-160.3z"/>
   <path id="path90" d="m795.13 25.92c1-4.31 5.9-6.19 9.9-6.18 39.03 0.02 78.06 0.01 117.09 0 1.04 5.71 1.36 11.68 0.31 17.4-0.83 4.51-4.9 8.01-9.5 8.04-13.3 0.17-26.61 0.03-39.92 0.06-0.05 41.94 0.04 83.89-0.04 125.83 0.05 4.53-2.55 9.46-7.15 10.7-6.8 1.85-13.97 0.78-20.8-0.25-0.05-45.43 0.01-90.85-0.03-136.28-16.6 0.01-33.2 0.03-49.79-0.01-0.85-6.36-1.73-13.01-0.07-19.31z"/>
  </g>
 </g>
</svg>
