<svg height="99.999992mm" viewBox="0 0 608.87616 99.999992" width="608.87616mm" xmlns="http://www.w3.org/2000/svg" xmlns:xlink="http://www.w3.org/1999/xlink"><linearGradient id="a" gradientTransform="matrix(0 95.661421 95.661421 0 -28.44652 81.67759)" gradientUnits="userSpaceOnUse" spreadMethod="pad" x1="0" x2="1" y1="0" y2="0"><stop offset="0" stop-color="#777878"/><stop offset=".020448" stop-color="#d0d2d0"/><stop offset=".0524045" stop-color="#f3f3f2"/><stop offset=".48766" stop-color="#e9ebe9"/><stop offset=".89549" stop-color="#f3f3f2"/><stop offset=".92944" stop-color="#e6e7e6"/><stop offset=".96426" stop-color="#d0d2d0"/><stop offset="1" stop-color="#777878"/></linearGradient><clipPath id="b"><path d="m291.438 532.077h118.288v-15.246h-118.288z"/></clipPath><clipPath id="c"><path d="m291.438 516.831h118.289v15.245h-118.289z"/></clipPath><clipPath id="d"><path d="m291.438 532.077h118.288v-15.246h-118.288z"/></clipPath><clipPath id="e"><path d="m291.438 516.831h118.289v15.245h-118.289z"/></clipPath><g transform="translate(263.61605 -79.17858)"><path d="m-249.86028 82.49643c-7.41568 0-10.05365 4.37666-10.05365 11.6613v70.75951c0 7.28544 2.63797 11.66233 10.05365 11.66233h581.36615c7.41649 0 10.05417-4.37689 10.05417-11.66233v-70.76003c0-7.28464-2.63768-11.66078-10.05417-11.66078z" fill="url(#a)"/><g clip-path="url(#d)" opacity=".399994" transform="matrix(5.5157198 0 0 -5.5157198 -1866.6862 3018.7966)"><g><g><g clip-path="url(#e)"><g transform="translate(408.2152 519.2938)"><path d="m-9.4999778 0c1.157-1.145 1.315-2.225 1.356-2.463.113 0 .155.506.155 1.261l-.004 12.109c0 1.402-.456 1.876-1.645 1.876-.4020002 0-.8050002-.216-1.3410002-.216h-102.809022c-.536 0-.938.216-1.341.216-1.188 0-1.645-.474-1.645-1.876l-.004-12.109c0-.755.042-1.261.156-1.261.041.238.076 1.402 1.356 2.463 10.217 7.878 94.749022 10.296 105.7660222 0" fill="#fff"/></g></g></g></g></g><path d="m-86.74623 176.57957h289.77421l.00003-94.08163h-289.77399z" fill="#b30f38"/><path d="m330.8914 179.17857c11.01189 0 14.3687-6.84623 14.3687-13.68923v-72.62153c0-6.8438-3.35681-13.68923-14.3687-13.68923h-580.13796c-11.0127 0-14.36949 6.84543-14.36949 13.68923v72.62153c0 6.843 3.35679 13.68923 14.36949 13.68923zm-579.62837-.91968c-7.41649 0-12.43226-4.37677-12.43226-11.6614v-74.83782c0-7.28464 5.01577-11.66141 12.43226-11.66141h579.11877c7.41651 0 12.43227 4.37677 12.43227 11.66141v74.83782c0 7.28463-5.01576 11.6614-12.43227 11.6614z" fill="#939695"/><path d="m-200.04168 138.54847c0 8.05387-5.26732 13.93917-15.95971 15.10313-7.74974.82989-18.96789-.14964-24.29346-.76357-.19817-.86872-.35186-1.95017-.35186-2.79948 0-7.05007 3.81138-8.65729 7.37766-8.65729 3.70541 0 9.54461.64224 13.88984.64224 4.77068 0 6.22907-1.62258 6.22907-3.16266 0-2.02297-1.92834-2.86338-5.63456-3.57276l-10.14397-1.95098c-8.44456-1.61773-12.94994-7.45936-12.94994-13.65688 0-7.53457 5.33366-13.8421 15.8206-15.00363 7.93011-.8574 17.57906.11081 22.87551.76033.19575.91078.29686 1.7698.29686 2.71617 0 7.02499-3.70542 8.5408-7.27575 8.5408-2.74529 0-7.00072-.51444-11.85877-.51444-4.94864 0-7.00073 1.36941-7.00073 3.03729 0 1.75524 1.95584 2.48402 5.05298 3.02516l9.69749 1.7981c9.96036 1.83774 14.22874 7.49576 14.22874 14.45847zm17.40354 8.64758c0 4.32095-1.69699 6.81226-10.12779 6.81226-1.11704 0-2.09496-.0825-3.03163-.21678v-57.31132c0-4.35332 1.48022-8.89348 9.9992-8.89348 1.07174 0 2.154.11001 3.16022.32112zm34.47304 22.17099c1.1041.56459 3.37701 1.2505 6.23635 1.32735 4.89121.10677 7.56531-1.77142 9.54542-6.15547l26.27517-58.61036c-1.08388-.584-3.48055-1.23109-5.45175-1.2772-3.37378-.0566-7.90827.63092-10.80967 7.54429l-8.50684 20.0833-16.6869-27.18028c-1.07659-.33083-3.70378-.80402-5.63454-.80402-5.88046 0-9.179 2.17262-12.59403 5.87803l-16.22341 17.74406 13.04861 20.53952c2.41123 3.74181 5.59169 5.64911 10.75144 5.64911 3.37539 0 6.1862-.76761 7.48766-1.39125l-15.7122-23.69166 11.13483-11.79811 18.26742 28.6678" fill="#231f20"/><path d="m257.37917 123.4952v-13.28186c0-3.60175 1.4341-5.89079 8.86929-5.89079.91561 0 1.69883.0607 2.61445.20409v43.5797c0 3.58521-1.43407 5.87423-8.88032 5.87423-.90458 0-1.6933-.0717-2.60342-.20408v-19.7904h-23.14948v14.12025c0 3.58521-1.4396 5.87423-8.88582 5.87423-.89905 0-1.6823-.0717-2.60892-.20408v-43.56315c0-3.60175 1.4396-5.89079 8.88029-5.89079.91561 0 1.69886.0607 2.61445.20409v18.96856zm65.91287 5.59293c0-14.80419-10.66189-24.84831-28.31219-24.84831h-12.00221c-5.75842 0-7.13732 3.03364-7.13732 7.02151v35.74737c0 3.82239 1.3789 6.93326 7.13732 6.93326h12.00221c17.6503 0 28.31219-10.04413 28.31219-24.85383m-35.94595 14.21401v-28.42801h8.30668c11.56644 0 15.797 7.49034 15.797 14.214 0 6.74021-4.23056 14.21401-15.797 14.21401z"/><g clip-path="url(#b)" fill="#cf5d6a" transform="matrix(5.5157198 0 0 -5.5157198 -1866.6865 3018.797)"><g fill="#cf5d6a"><g fill="#cf5d6a"><g clip-path="url(#c)" fill="#cf5d6a"><g fill="#cf5d6a" transform="translate(408.2152 519.2938)"><path d="m668.46289-733.14258v140.9043c347.07591-27.19807 770.01871-30.2114 1095.20901-.5293v-140.375z" fill="#cf5d6a" transform="matrix(.04796896 0 0 -.04796896 -117.57854 -22.601053)"/></g></g></g></g></g><g fill="#fff"><path d="m-12.88322 95.27419c-1.01756-.10515-2.02945-.15773-3.00736-.15773-2.25755 0-3.86881.529-4.79091 1.57162-.90027 1.01837-1.35809 2.24622-1.35809 3.65931l.58562 43.64797-28.69125-44.34198c-.94557-1.45676-2.07717-2.58594-3.36165-3.35759-1.32249-.7935-3.37297-1.17933-6.27032-1.17933-.98277 0-2.09011.089-3.29046.26531-1.22786.18118-2.25917.45943-3.06641.82666l-.40282.18442v67.31699l.52334.13103c.59532.14722 1.39125.2548 2.4363.32759 1.02483.0647 2.0618.10435 3.08582.10435 2.35137 0 3.94888-.49422 4.88474-1.51016.90835-.98681 1.36779-2.2357 1.36779-3.72078l-.58724-45.28188 29.70477 46.28245c.80563 1.24889 1.84906 2.27372 3.09957 3.04619 1.29095.79592 3.19502 1.18418 5.82221 1.18418 2.20497 0 4.15999-.3284 5.81331-.97469l.43841-.17148v-67.34448l-.52253-.13023c-.58238-.14479-1.39448-.27178-2.41284-.37774"/><path d="m43.082965 152.37359-.07279-.60503h-29.894844v-16.64644h22.177454c1.346756 0 2.494545-.44488 3.412596-1.32412.94152-.90027 1.398535-2.37725 1.398535-4.51589 0-.98116-.0566-1.92672-.160152-2.81081l-.331629-2.72021h-26.496804v-16.5429h24.443902c1.407424 0 2.622338-.45944 3.608334-1.36618 1.002189-.9221 1.510956-2.49696 1.510956-4.68009 0-.97468-.05659-1.96878-.157718-2.95721-.107579-1.00138-.232145-1.77304-.378539-2.35946l-.130228-.52253h-35.148438c-2.8003 0-4.58383.58157-5.45095 1.7787-.80481 1.11299-1.21329 2.54792-1.21329 4.26676v56.24039c0 1.72045.40848 3.15619 1.21329 4.26757.86548 1.19631 2.64904 1.77789 5.45095 1.77789h31.6226c1.426025 0 2.632843-.50393 3.587301-1.49883.96094-1.00138 1.428459-2.58918 1.428459-4.85562 0-.98601-.0566-1.93157-.159359-2.81162-.102711-.85901-.190077-1.56353-.258022-2.11437"/><path d="m129.91302 95.49744c-1.01513-.25318-2.14511-.38098-3.3592-.38098-1.69217 0-3.12304.32435-4.25464.96498-1.21491.68915-1.98739 1.94289-2.29719 3.72563l-4.81273 27.49575-1.12755 6.07619c-.40928 2.20092-.82021 4.45118-1.22867 6.75241-.4109 2.30445-.80481 4.57251-1.17933 6.80417-.12377.73121-.24265 1.4511-.35753 2.15724-.50877-2.64822-1.07093-5.4469-1.67918-8.36366-.92858-4.43663-1.91622-8.86112-2.93862-13.15215l-7.503854-31.49558-.382587-.11244c-1.909736-.56539-4.05646-.85254-6.377094-.85254-2.361062 0-4.351681.38664-5.917644 1.15102-1.664652.8129-2.742062 2.23408-3.199897 4.21742l-6.595481 27.08727c-1.163955 4.71649-2.205778 9.22915-3.097953 13.41179-.557292 2.61183-1.051507 5.1824-1.478598 7.68341-.396345-2.51476-.831506-5.12821-1.298231-7.81283-.761126-4.3614-1.520666-8.63706-2.279385-12.83103l-5.18078-27.92444c-.385021-1.91458-1.226238-3.24921-2.50182-3.96748-1.198722-.67298-2.69838-1.01513-4.457647-1.01513-1.35808 0-2.580297.1464-3.634238.43598-1.025631.28391-1.942888.60826-2.729097.96497l-.503926.22891 14.176163 66.53158.361554.13023c1.005416.35994 2.286661.61474 3.812989.75872 1.489948.13831 2.80596.20868 3.9125.20868 2.289069 0 4.13975-.35509 5.497856-1.05476 1.442191-.74334 2.475918-2.29556 3.074485-4.62266l7.539435-31.10653c.615553-2.52204 1.294182-5.49139 2.018109-8.8231.503925-2.32468 1.000575-4.64046 1.488334-6.94814.142346.6398.278236 1.2877.408464 1.94045.342159 1.7148.668126 3.394.975492 5.03924.309801 1.65251.617987 3.22089.927762 4.70031.3098 1.48103.603435 2.83912.88085 4.09124l8.725249 35.79552.35023.12537c1.0224.36157 2.26724.59937 3.70057.70695 1.39366.10354 2.62879.15611 3.67305.15611 2.36109 0 4.33308-.33001 5.86105-.98196 1.66057-.70776 2.77195-2.29232 3.30501-4.71892l12.78167-62.1629-.53708-.21354c-.71503-.28391-1.57649-.55326-2.56087-.80077"/><path d="m168.04535 124.18949-9.06899-2.57704c-3.88093-1.06851-6.59064-2.17342-8.05955-3.28399-1.37507-1.03859-2.04319-2.54308-2.04319-4.60002 0-.86225.18767-1.72045.55893-2.55277.36237-.81776.98682-1.57809 1.85393-2.26078.88488-.69481 2.08767-1.26021 3.57275-1.68082 1.51257-.42708 3.45951-.64385 5.78662-.64385 2.08606 0 3.99418.1189 5.67339.35428 1.71479.24104 3.2476.48208 4.55633.71665 1.32816.23942 2.53093.47966 3.57518.71504 1.10652.24994 2.14511.37774 3.08907.37774 2.0343 0 3.53232-.77085 4.45198-2.29071.85254-1.40823 1.2853-3.36488 1.2853-5.81574v-1.93157l-.46186-.16177c-3.93433-1.37993-7.76674-2.39424-11.39127-3.01626-3.62693-.62121-7.07916-.93667-10.26207-.93667-4.72943 0-8.72845.60423-11.88384 1.79568-3.16429 1.19632-5.7381 2.7372-7.65186 4.57818-1.92429 1.85554-3.30099 3.97558-4.08802 6.30106-.7765 2.28909-1.1688 4.56443-1.1688 6.7613 0 4.39941 1.38396 8.35719 4.11631 11.76251 2.72346 3.39643 7.57502 6.07377 14.41561 7.95843l8.53919 2.36674c1.60803.46914 3.06398.9488 4.32581 1.42441 1.20681.45701 2.24459.99976 3.08258 1.61126.80401.58966 1.42846 1.30632 1.85473 2.12974.42709.82585.64386 1.84583.64386 3.03082 0 2.41851-.91403 4.36868-2.79543 5.96295-1.88791 1.59994-5.15088 2.41123-9.69912 2.41123-2.22438 0-4.28699-.13589-6.13201-.40443-1.86444-.27016-3.57923-.57915-5.10069-.91887l-4.17132-.92616c-1.28368-.28472-2.408-.42869-3.34303-.42869-2.1063 0-3.65771.82504-4.61296 2.45328-.88249 1.50773-1.3298 3.47893-1.3298 5.85861 0 .32193.0161.59614.0566.83152.0243.1739.0405.37855.0405.61069v.49745l.47239.15692c4.13573 1.37912 8.24233 2.42822 12.20415 3.11575 3.97478.68997 7.70524 1.0402 11.08712 1.0402 4.57576 0 8.56102-.51282 11.84259-1.52471 3.29936-1.01593 6.08349-2.4638 8.27469-4.30154 2.2066-1.85069 3.8494-4.09043 4.88312-6.65777 1.02402-2.54388 1.54414-5.40322 1.54414-8.49794 0-9.64733-6.23959-16.17892-18.52787-19.41034"/></g></g></svg>