<svg height="96.308334mm" viewBox="0 0 3728.076 341.25" width="1052.1459mm" xmlns="http://www.w3.org/2000/svg" xmlns:xlink="http://www.w3.org/1999/xlink"><linearGradient id="a" gradientTransform="matrix(0 17.056933 17.056933 0 353.72042 515.29392)" gradientUnits="userSpaceOnUse" spreadMethod="pad" x1="0" x2="1" y1="0" y2="0"><stop offset="0" stop-color="#820021"/><stop offset=".104411" stop-color="#ae2c3f"/><stop offset=".898134" stop-color="#ae2c3f"/><stop offset=".999673" stop-color="#b53152"/><stop offset="1" stop-color="#ba3c4c"/></linearGradient><linearGradient id="b" gradientTransform="matrix(0 -17.343092 17.343092 0 350.58097 532.5054)" gradientUnits="userSpaceOnUse" spreadMethod="pad" x1="0" x2="1" y1="0" y2="0"><stop offset="0" stop-color="#777878"/><stop offset=".020448" stop-color="#d0d2d0"/><stop offset=".0524045" stop-color="#f3f3f2"/><stop offset=".487663" stop-color="#e9ebe9"/><stop offset=".895488" stop-color="#f3f3f2"/><stop offset=".929442" stop-color="#e6e7e6"/><stop offset=".964262" stop-color="#d0d2d0"/><stop offset="1" stop-color="#777878"/></linearGradient><clipPath id="c"><path d="m409.823 530.13h.017v-.017h-.017z"/></clipPath><linearGradient id="d" gradientTransform="matrix(74.162089 0 0 -18.821368 3848.9671 31.112686)" gradientUnits="userSpaceOnUse" x1="-48.299145" x2="1.50433" y1="8.565908" y2="8.565908"><stop offset="0" stop-color="#fff" stop-opacity=".156863"/><stop offset=".4695738" stop-color="#fff" stop-opacity=".156863"/><stop offset=".49477473" stop-color="#4d4d4d" stop-opacity="0"/><stop offset=".77287889" stop-color="#fff" stop-opacity="0"/><stop offset=".87269789" stop-color="#fff" stop-opacity=".156863"/><stop offset="1" stop-color="#fff" stop-opacity=".156863"/></linearGradient><g transform="translate(-247.92661 225.98094)"><g clip-path="url(#c)" opacity=".800003" transform="matrix(24.609029 0 0 -24.609029 -6904.3581 12784.558)"><g/></g><path d="m293.13 532.357c-1.345 0-1.823-.794-1.823-2.114v-12.829c0-1.321.478-2.114 1.823-2.114h141.88281c1.345 0 1.82299.793 1.82299 2.114v12.829c0 1.32-.47799 2.114-1.82299 2.114z" fill="url(#b)" transform="matrix(25.443997 0 0 -18.822602 -7151.4693 9805.5738)"/><path d="m322.702 515.294h83.84641v17.057h-83.84641z" fill="url(#a)" transform="matrix(31.475798 0 0 -18.822602 -9305.8221 9805.5738)"/><g fill="#fff"><path d="m1009.9426 47.33076c-14.22984 0-27.36806-2.559874-39.39568-7.679622-12.02762-5.13857-22.43652-12.215868-31.26435-21.250717-8.82781-9.0536718-15.73572-19.8013789-20.7425-32.261941-5.00686-12.460563-7.51019-25.918723-7.51019-40.393304 0-14.060484 2.50333-27.236302 7.51019-39.489822 5.00678-12.253514 11.91469-22.907104 20.7425-31.941954 8.82783-9.05367 19.23673-16.13097 31.26435-21.25071 12.02762-5.13858 25.16584-7.69845 39.39568-7.69845 10.2207 0 20.1402 1.11054 29.7586 3.31277 9.6371 2.22107 18.5402 5.02564 26.7657 8.45136 1.8069 26.72809-4.7057 40.09213-19.5378 40.09213-2.6164 0-5.0069-.30115-7.2279-.90348-2.2023-.60232-4.6116-1.20465-7.2091-1.80697-2.6164-.60232-5.515-1.20464-8.7149-1.80696-3.2187-.60233-7.0208-.92231-11.4253-.92231-7.0208 0-13.62759 1.26111-19.8578 3.78333-6.21145 2.50342-11.55711 6.117352-16.07453 10.841831-4.51741 4.72447-8.07488 10.408893-10.6724 17.034448-2.61636 6.625559-3.91513 14.060487-3.91513 22.304787 0 8.639574 1.29877 16.375664 3.91513 23.208269 2.59752 6.832604 6.15499 12.611143 10.6724 17.335616 4.51742 4.7244736 9.86308 8.338413 16.07453 10.8606415 6.23021 2.50340603 12.837 3.76451998 19.8578 3.76451998 4.4045 0 8.3196-.30116036 11.7265-.90348452 3.4069-.60232301 6.4562-1.20464606 9.1666-1.80696906 2.7105-.6023241 5.2704-1.2046471 7.6608-1.8069702 2.4093-.6023241 4.9127-.9034856 7.529-.9034856 14.6252 0 21.1378 13.3640478 19.5379 40.0733209-8.2255 3.425713-17.3921 6.249104-27.5187 8.451348-10.1265 2.202244-20.2907 3.312778-30.5114 3.312778"/><path d="m1113.7022 44.919584c-4.2161 0-8.376-.207049-12.4793-.602323-4.1034-.395274-7.5667-.903485-10.3713-1.505808v-174.541993c0-5.81618 1.807-10.78535 5.4021-14.9075 3.614-4.12214 10.4278-6.17381 20.4602-6.17381 4.2163 0 8.3572.18823 12.4794.60232 4.1033.39528 7.5666.90348 10.3713 1.50581v174.523168c0 5.835006-1.8071 10.804173-5.421 14.926323-3.5952 4.122149-10.4277 6.173813-20.4414 6.173813"/><path d="m1195.9381 44.919584c-4.0091 0-7.9242-.207049-11.7265-.602323-3.8209-.395274-7.0207-.903485-9.6182-1.505808v-192.009353c2.9927-1.01643 6.9079-1.86345 11.7265-2.55989 4.7996-.71526 8.903-1.05406 12.3287-1.05406 11.0112 0 19.0297 1.39286 24.0554 4.21626 5.0068 2.80457 9.2042 6.92672 12.6111 12.34763l68.2696 107.608816v-104.898356c0-2.59753.3388-5.06329 1.054-7.37847.6965-2.31517 1.9011-4.36684 3.5951-6.1738 1.7129-1.80698 4.0658-3.21868 7.0773-4.21628 2.9928-1.01641 6.8139-1.5058 11.4254-1.5058 4.0091 0 7.8678.18823 11.5758.60232 3.708.39528 6.8515.79054 9.4678 1.20465v192.310525c-2.8045 1.411696-6.2114 2.352825-10.2206 2.861035-4.0093.50821-7.9244.752904-11.7265.752904-9.4302 0-16.451-1.29876-21.0438-3.915101-4.6303-2.616342-8.4324-6.230281-11.4252-10.860642l-73.0694-116.944826v111.825079c0 5.627958-1.7128 10.352431-5.1197 14.173419-3.4069 3.820989-9.8254 5.722071-19.2368 5.722071"/><path d="m1409.5352 43.714938c-5.6092 0-10.183-.602324-13.684-1.80697-3.5011-1.204646-6.2116-2.861036-8.1126-4.969166-1.9198-2.108132-3.2186-4.686829-3.9151-7.698445s-1.0541-6.211459-1.0541-9.637173v-147.700964c0-3.42571.3576-6.64438 1.0541-9.65599s1.9953-5.57149 3.9151-7.67962c1.901-2.10813 4.6115-3.76451 8.1126-4.96917 3.501-1.20465 8.0748-1.80697 13.684-1.80697h99.5152c.4139 2.20225.8092 5.21386 1.2045 9.03485.4142 3.82099.6023 7.73609.6023 11.74531 0 8.45134-1.694 14.43693-5.1009 17.93793-3.4257 3.51983-7.7172 5.28916-12.9311 5.28916h-61.3429v34.351243h70.6601c.3953 2.01402.8094 4.68683 1.2047 7.999608.3953 3.312777.6022 6.889072.6022 10.691238 0 8.03725-1.6187 13.514627-4.8186 16.432131-3.1997 2.917504-7.209 4.366844-12.0276 4.366844h-55.6208v34.0689097h80.5796c.3952 2.2022445.8093 5.2703286 1.2046 9.1854305.3954 3.9151008.6024 7.7925568.6024 11.6135458 0 8.639574-1.7129 14.662807-5.1198 18.08852-3.4069 3.406892-7.7172 5.119748-12.9123 5.119748z"/><path d="m1554.0684 44.919584c-4.6115 0-8.6774-.451742-12.1783-1.355227-3.5198-.903484-6.569-1.957551-9.1665-3.162197l18.3708-187.79311c3.821-1.61873 8.8278-2.9175 15.0393-3.9151 6.2115-1.01641 11.5194-1.5058 15.9239-1.5058 6.2114 0 11.5759.39527 16.0745 1.20464 4.5174.79056 8.376 2.14578 11.5759 4.06569 3.1998 1.90107 5.7596 4.57388 7.6608 7.98079 1.9011 3.4257 3.3504 7.64196 4.3668 12.6676l7.8114 36.478202c2.2023 10.032453 4.5551 21.137785 7.0584 33.297186 2.5035 12.1594 4.7622 24.676432 6.7573 37.532268h1.2048c2.2021-12.855836 4.4986-25.316398 6.9078-37.381687 2.4093-12.046465 4.9127-23.114158 7.5102-33.146602l9.5996-38.285177c2.4093-9.44894 6.2491-15.88626 11.557-19.29317 5.308-3.4257 13.5712-5.11974 24.7706-5.11974 5.609 0 11.2559.45175 16.9592 1.35523 5.7032.90347 10.4653 1.84461 14.2675 2.86103l17.5802 188.99775c-2.8045.997598-6.1737 2.014018-10.0701 3.011616-3.915.997598-8.1689 1.505808-12.7804 1.505808-6.4186 0-11.8395-1.110533-16.244-3.312778-4.4044-2.202244-6.8137-6.343217-7.209-12.366449l-4.5175-65.107382c-.9975-11.462964-1.8445-23.452962-2.5597-36.02646-.6965-12.554674-1.1483-24.45056-1.3553-35.706475h-.6023c-2.5976 10.446541-5.2516 21.7401-7.9621 33.89951-2.7103 12.159396-5.4585 23.358845-8.2631 33.617163l-12.3288 51.235124c-3.0116 12.065288-12.5358 18.08852-28.5726 18.08852-4.0092 0-8.1126-.395274-12.3289-1.204646-4.1974-.79055-7.8114-1.694036-10.823-2.710456l-15.3216-63.902734c-3.0115-11.858239-5.8162-23.50943-8.4137-34.972394-2.6163-11.444145-5.0256-22.907108-7.2278-34.351257h-.9035c-.6023 16.07451-1.3928 30.793782-2.4093 44.157832-.9976 13.364048-1.9011 24.864658-2.6916 34.50183l-4.8186 58.782986c-.3953 5.835007-2.5976 9.863044-6.6068 12.065288-4.028 2.202245-9.2231 3.312778-15.6415 3.312778"/><path d="m1837.7776-37.372832h44.9861l-22.4366-73.859888zm-46.9059 82.894739c-3.8021 0-8.169-.357628-13.0628-1.054065-4.9316-.715259-8.9785-1.656389-12.1784-2.861036l62.3782-191.105886c5.4209-1.41169 10.8984-2.42812 16.4322-3.03043 5.5338-.60233 10.5971-.90348 15.2275-.90348 6.6255 0 12.3099.50821 17.0344 1.50579 4.7245 1.01643 8.6961 2.52224 11.9147 4.53625 3.2187 1.9952 5.8727 4.66801 7.9808 7.98079s3.8775 7.19023 5.2891 11.61355l53.4562 169.102255c-3.4068 1.411696-7.5102 2.446938-12.3288 3.162197-4.7998.696437-9.5242 1.054065-14.1358 1.054065-5.2138 0-10.2582-.86584-15.171-2.559873-4.9126-1.712857-8.4701-5.571491-10.6724-11.613547l-10.2394-31.03847029h-65.578l-8.6772 29.23150129c-2.2023 7.039653-5.9103 11.462965-11.1242 13.269935-5.2138 1.806971-10.7288 2.710454-16.5451 2.710454"/></g><path d="m3675.9555-74.752671v-45.324819c0-12.29116 4.8938-20.10255 30.2668-20.10255 3.1244 0 5.7973.20705 8.9219.69644v148.7173837c0 12.2346913-4.894 20.0460723-30.3045 20.0460723-3.0869 0-5.7784-.244694-8.8842-.696437v-67.535496h-78.9985v48.1858607c0 12.2346913-4.9127 20.0460723-30.3231 20.0460723-3.0681 0-5.741-.244694-8.9032-.696437v-148.660909c0-12.29116 4.9127-20.10255 30.3044-20.10255 3.1246 0 5.7974.20705 8.9219.69644v64.730929zm224.9301 19.086124c0-50.519873-36.384-84.795823-96.6164-84.795823h-40.958c-19.6508 0-24.3564 10.35242-24.3564 23.96117v121.9892868c0 13.0440632 4.7056 23.6600102 24.3564 23.6600102h40.958c60.2324 0 96.6164-34.2759581 96.6164-84.814644m-122.6669 48.5058449v-97.0116979h28.3468c39.471 0 53.908 25.5611 53.908 48.505853 0 23.001219-14.437 48.5058449-53.908 48.5058449z" fill="#ae2c3f"/><path d="m464.86644-23.378228c0 27.4809992-17.97559 47.564715-54.47262 51.536285-26.42692 2.82339-64.7121-.50821-82.89474-2.59752-.67761-2.97397-1.20464-6.6632-1.20464-9.561882 0-24.0552849 13.00642-29.532662 25.18465-29.532662 12.64878 0 32.56308 2.183422 47.39531 2.183422 16.28154 0 21.25071-5.533845 21.25071-10.785352 0-6.907894-6.5691-9.787753-19.21788-12.197046l-34.61477-6.6632c-28.8174-5.515022-44.19546-25.448159-44.19546-46.604767 0-25.71167 18.20146-47.22591 53.98323-51.19747 27.06689-2.9175 59.98762.37645 78.07615 2.59751.65878 3.10573.99759 6.04206.99759 9.26072 0 23.98-12.62997 29.156218-24.827 29.156218-9.35484 0-23.88589-1.750508-40.46861-1.750508-16.88387 0-23.88588 4.668013-23.88588 10.352434 0 6.004412 6.68203 8.48899 17.24151 10.333609l33.09013 6.136171c33.99362 6.267924 48.56232 25.579915 48.56232 49.334038m59.38531 29.51384c0 14.738098-5.77854 23.245914-34.5583 23.245914-3.821 0-7.15259-.282339-10.35242-.752905v-195.566831c0-14.85103 5.06327-30.34204 34.12536-30.34204 3.65158 0 7.35964.37645 10.78536 1.09172zm117.64126 75.648038c3.76451 1.938729 11.51942 4.272731 21.28836 4.536248 16.67683.357628 25.80579-6.042056 32.5631-21.006025l89.67088-200.008963c-3.70805-1.9952-11.87706-4.19745-18.59673-4.34803-11.51944-.20705-26.99162 2.14578-36.8923 25.7305l-29.04328 68.533094-56.93837-92.738964c-3.67041-1.12936-12.62997-2.7481-19.21787-2.7481-20.08372 0-31.33964 7.41611-42.99083 20.06489l-55.35727 60.552317 44.53427 70.076548c8.22548 12.761725 19.06731 19.274345 36.68526 19.274345 11.51944 0 21.10013-2.616342 25.54227-4.743296l-53.60677-80.843077 38.00283-40.261546 62.32164 97.821064z" fill="#ae2c3f"/><path d="m2022.7235 34.543816c2.3897-49.69573 1.2021-190.390436-1.7754-210.323636l-.5892-3.94472-.5941 6.41296c-2.1308 23.00474-2.7725 49.77962-2.7488 114.678838.024 63.9055998.6447 91.150895 2.7528 120.714568l.6188 8.676363.5876-6.035726c.323-3.319655 1.1098-16.900043 1.7483-30.178647z" fill="#fff" stroke-width=".872762"/><path d="m3848.9672 31.112691c85.7313 21.550472 97.3778 41.877547 100.4154 46.357039 8.4544 0 11.5692-9.523619 11.5692-23.73375v-227.90796c0-26.38756-33.8178-35.3089-121.9224-35.3089-29.8133 0-59.6265 4.06542-99.3001 4.06542h-3254.9029c-39.67375 0-69.56404-4.06542-99.30008-4.06542-88.10455 0-121.92246 8.92134-121.92246 35.3089l-.59331 227.90796c0 14.210131 3.14448 23.73375 11.49217 23.73375 3.14446-4.479492 5.63632-26.387561 100.49259-46.357039 767.13269-128.700516 2657.74389-193.784811 3473.97189 0" fill="url(#d)"/><path d="m3919.1947 115.26906c43.549 0 56.8079-23.35859 56.8079-46.717187v-247.815633c0-23.35858-13.2589-46.71718-56.8079-46.71718h-3614.46017c-43.54909 0-56.80792 23.3586-56.80792 46.71718v247.815633c0 23.358597 13.25883 46.717187 56.80792 46.717187zm-3612.45396-3.14334c-29.30892 0-49.15352-14.926163-49.15352-39.790537v-255.382253c0-24.86438 19.8446-39.79053 49.15352-39.79053h3610.44716c29.3091 0 49.1539 14.92615 49.1539 39.79053v255.382253c0 24.864374-19.8448 39.790537-49.1539 39.790537z" fill="#939697"/><g fill="#fff" transform="matrix(1.0000017 0 0 1.0000017 55.837022 137.1478)"><path d="m2281.5779-262.51078s2.5228-3.76368 4.6411-6.62786c3.8617-5.20764 10.8414-12.42729 16.0895-16.90109 1.6185-1.36109 3.5048-2.91745 3.5048-2.91745s-2.9693.30772-4.6413.65095c-3.9866.77524-9.8358 4.63951-12.7633 7.1368-4.8196 4.09508-10.1154 10.77029-7.7294 16.68804.357.85216.8986 1.97061.8986 1.97061m26.7999 7.13087c7.6163-.50891 14.7566-2.70441 21.3912-6.35565 6.5155-3.62166 16.0895-10.68744 15.1136-19.00779-.3153-2.68075-2.0766-4.71644-4.314-5.6692-2.9155-1.26047-4.427-1.03561-8.1458.0474-2.6895.79298-3.8975 1.26641-6.4382 2.71625-7.4854 4.31994-18.071 13.55756-23.8248 20.93698-1.3329 1.72797-2.6777 3.67492-3.719 5.0005-.6783.81073-1.184 1.57411-1.1246 1.78124.2262.84622 8.0805.76339 11.0616.55033m-19.4038 14.17301c-.7795.81075-1.6066 2.82278-2.4753 4.27262-.4581.76932-1.315 1.76349-1.8744 2.15405-1.9814 1.44986-3.6534 1.51496-5.5813-.15989-2.6777-2.34342-4.2247-6.0065-4.3377-9.55715-.06-1.55636.1963-3.25475-.084-4.58032-.4939-2.20141-2.7193-4.46201-3.9094-6.57462-1.4042-2.50322-2.5407-6.82909-2.6775-9.62226-.4939-8.72275 4.1354-16.74722 10.1452-23.09104 6.0454-6.40893 13.9533-11.73489 22.5633-15.35063 8.128-3.42046 20.0524-5.74021 28.9837-2.65707 2.8978.99419 6.9559 3.45597 8.9909 6.01835.4284.54443.7854 1.1362 1.2317 1.41433.3868.24854 1.428.34916 2.2551.49709 2.8561.49118 6.9618 2.63341 8.6338 4.05957 3.35 2.89379 5.2065 5.65737 6.0574 9.66368 1.7137 8.05407-2.9513 16.90109-8.2649 22.2744-9.1099 9.2731-18.1007 15.77671-29.7513 20.32153-5.1053 1.98838-13.0727 3.84063-18.8801 3.31987-1.797-.14803-3.6595-.61545-5.4088-.74565-.8866-.0769-4.1652-.89949-4.5104-1.15986-.4343-.31364-.9877-.60953-1.1067-.49711m10.4072 17.87165c.3509.0651.9044.22486 1.3744.39057 4.0819 1.55043 5.7599 5.31412 6.7655 9.43288 2.3324 9.58675 3.3322 30.77819 3.7129 39.09263.2856 6.21363.4403 12.36216.7021 18.51069.2202 5.21353.6367 12.14914-.4462 17.04312-.3987 1.75756-1.5768 3.78143-3.2727 4.84072-1.9457 1.23089-6.3548 1.32558-8.7765.82847-5.9801-1.23089-7.9258-5.05376-8.7708-10.93007-2.029-14.03098-1.0591-41.56624.1428-53.18869.3868-3.81695 1.8506-16.11403 3.8677-21.26247.6783-1.75165 2.1481-5.25494 4.7008-4.75785m-184.1723 21.0553s-8.854.62137-14.9352 1.29599c-7.7531.82258-22.3134 3.32577-30.7033 6.32607-2.5288.87584-7.652 3.01214-8.0982 5.58044-.4523 2.68667 1.2018 4.76377 3.0643 6.93558 1.0711 1.24865 7.1403 7.05397 8.8361 8.46831 7.1344 5.91181 21.5935 15.05474 32.2624 19.49303 3.6415 1.50905 9.6989 3.66311 9.6989 3.66311s-.4522-17.14372-.363-34.02704c.035-8.92396.238-17.73549.238-17.73549m162.21 6.82317c.5118 4.604-.6902 13.31491-.8866 14.46297-.3807 2.64521-2.3919 8.74643-2.7133 9.49799-1.6244 3.69858-3.2132 6.75806-4.9149 9.78202-2.9038 5.19578-9.7941 13.42735-13.8998 16.94841-15.2208 13.09006-38.7957 20.54642-59.0265 23.00229-13.7155 1.65104-29.4836 1.3966-44.032-1.2723-4.9982-.91728-12.4361-2.60974-12.4361-2.60974s.017 2.95887-.2261 5.04782c-.1131.93503-.839 3.44415-1.2376 4.25488-1.0651 2.17181-2.7966 3.29026-5.3136 3.76368-3.0465.57995-6.2776.75156-9.098-.43198-4.6174-1.94696-6.2834-6.25508-7.0808-11.19049-.6545-3.9767-1.3388-10.88272-1.3388-10.88272s-3.4511-1.62146-6.337-3.05356c-8.854-4.34363-17.2736-9.58674-24.6222-15.0074-2.0349-1.49719-10.7937-8.79967-12.7335-10.62235-5.4207-5.09517-10.294-10.19627-14.0069-16.72946-2.8859-5.10109-3.713-9.64001-1.5233-15.04291 3.0347-7.53329 13.8939-13.22025 21.3317-16.45724 5.4683-2.3967 22.4325-7.90611 29.4895-8.92397 3.3262-.47343 8.491-1.38475 8.8063-1.59778.131-.0946.2262-.17756.3154-.28998.1606-.23079.4343-7.69899.3809-10.42114-.06-2.68666 1.9992-20.3038 2.6597-24.02607.357-2.02979 1.8921-9.78794 3.463-11.81773 1.0175-1.37291 2.8324-1.27822 4.3081-.36099 8.0864 4.98867 10.5379 22.33952 11.1388 31.16878.3629 5.37331.5415 13.46288.5415 13.46288s9.2764-.26631 14.9887-.1183c5.5396.13618 11.6506 1.01194 17.4104 1.92327 7.3724 1.15988 21.7364 4.27852 29.9715 8.4387 6.7892 3.41454 13.1322 9.18434 15.1852 15.28555 1.9159 5.59227 1.6243 9.45062-1.2854 14.49846-3.2667 5.70472-9.4608 9.92997-15.7384 10.27913-1.8742.12434-8.9017-.81073-11.0616-2.47363-.8568-.67462-.8092-1.87-.1904-2.68073.232-.29589 3.5106-2.00612 5.4563-3.03581.9699-.52668 1.7792-1.08886 2.529-1.77532 1.6184-1.42618 3.0644-2.97661 2.9037-4.78744-.2261-2.36711-2.7312-3.82879-5.1351-4.76379-11.246-4.43832-33.7023-8.13691-44.5674-8.77602-4.2485-.24855-10.2821-.4616-10.2821-.4616l1.2733 59.60354s4.9982.95276 8.9314 1.59186c2.267.33142 11.835 1.18948 14.3758 1.25457 19.3681.50893 40.9854-1.20721 58.7589-9.569 7.8007-3.65124 14.9589-8.19015 20.3736-14.33868 7.1522-8.16058 10.8949-19.29776 9.9012-30.93205-1.0889-12.73499-10.0916-27.81341-17.2676-37.00367-18.9872-24.29234-51.5293-44.25291-80.1501-55.9582-29.2336-11.94793-58.1161-18.83617-89.1467-19.98422-7.9912-.28406-25.4373.1183-34.2378 2.54463-1.2733.34915-2.5347.77522-3.707 1.02378-.9282.22486-2.3682.83439-2.7728 1.14803-.2143.19523-.4462.42609-.4462.42609s.5473.29588 1.0651.52667c.9342.40833 4.8673.63911 6.9022 1.00602 1.8089.34323 3.719 1.30782 4.4567 2.63933.7141 1.25454.8154 2.24281-.048 3.29025-1.9992 2.43219-9.5203 2.0061-12.8228 1.49718-3.4391-.55625-7.7174-1.59186-8.5088-4.57441-.9044-3.50921.7557-6.94743 2.5705-10.13117 3.6416-6.36159 8.8421-9.67551 16.4822-11.74081 10.8295-2.95889 24.5091-5.03601 34.7436-5.42659 23.1644-.85806 45.0791 3.15417 67.5116 9.94183 12.8406 3.85245 29.6679 10.33238 41.9672 16.23237 8.8182 4.22526 22.742 12.02486 30.5606 17.12003 2.4633 1.61555 16.8927 12.15505 19.13 14.0073 4.6769 3.7992 10.7998 9.26128 15.2148 13.63449 8.5684 8.44462 19.2253 21.38081 24.4139 31.64217 1.2317 2.47363 2.2075 4.894 3.8023 7.74041.5533.97052 2.9275 6.81726 3.3202 8.50972.3867 1.66883.958 4.12467 1.0413 4.21345.1189.90542 1.202 5.91182 1.1186 7.85876zm99.7858 4.3318c.4344.0414.5415.0593.9402.1183 7.0926.95868 14.0425 2.22508 19.3561 4.59217 4.9328 2.17774 7.8365 4.91172 10.4725 9.8057 4.0164 7.41493 4.2842 17.78874.6545 25.6475-2.7192 5.84082-8.6695 10.74663-14.0961 13.35044-5.6587 2.72217-11.1985 4.01224-17.577 4.73421-11.127 1.21312-23.1823-1.07111-33.2144-5.9-5.9324-2.88196-13.1798-7.84102-16.8393-14.2381-2.6894-4.69869-2.6062-10.78804.6725-15.23819 5.2064-7.08946 16.3632-8.65174 24.7827-8.35586 6.4144.23671 17.946 2.21916 24.0451 4.36139 1.6958.60953 7.9138 3.02395 8.9967 4.11282.7617.78114 1.2674 1.88775.9224 2.93519-1.4043 4.23119-11.728 6.46218-14.7091 6.90602-8.0031 1.21313-12.1445-1.78716-21.2305-5.35555-2.2552-.87584-5.26-1.84634-7.5688-2.05938-4.1176-.39057-9.0979.73971-9.8774 5.23129-.4046 2.31384 2.3206 4.46791 4.3972 5.36146 4.8733 2.10081 8.8362 2.84051 13.6439 2.91748 14.1557.21311 30.0727-2.10082 41.6698-10.26731 1.6006-1.11844 3.1477-2.77542 3.1715-4.85255 0-.2663-.3809-2.50321-1.1068-2.73399-.107-.0474-.2202.006-.3034-.0108-.2678-.0769-.7142-.80482-1.089-1.28415-.833-1.01193-4.1949-2.44995-4.8554-2.72807-7.8067-3.23702-22.2301-4.81113-29.6739-5.42067-7.7948-.66279-20.0584-1.69247-23.0097-2.11854-3.0287-.42609-6.3251-1.02379-8.9611-2.2014-2.6241-1.18356-5.2065-3.83471-5.98-6.76399-1.3566-5.29047.3868-11.78815 3.3382-16.02526 7.7472-11.07801 25.8717-15.27368 39.4323-16.94251 13.1203-1.62736 34.3271-1.60961 47.2093 5.20171 1.9933 1.05336 3.0168 2.04163 2.5884 4.16017-.833 3.97082-3.8558 6.52727-7.4795 7.65166-3.8082 1.2072-11.7041 1.67469-15.1672 1.88775-15.5361.8699-34.3091.41423-49.0955 4.43238-1.1604.33141-3.1596.84625-3.8201 1.58005-2.3147 2.49729 4.302 3.20741 5.7241 3.51515.4166.0827.5058.10064.9401.142l32.6967 3.85245m48.4648 57.78679c-6.2715-2.29018-7.6936-12.36219-7.9852-17.45736-.9937-16.58744 3.4155-39.66666 9.0147-55.21257 1.6006-4.42646 3.9033-11.65795 8.8837-11.24962 3.4274.3018 5.8729 2.92928 7.7949 5.62777 4.9149 6.89417 11.3768 16.23829 15.661 22.74188 4.7899 7.29068 9.3895 14.6346 13.9117 21.28021.5534.80483 1.077 1.58597 1.6839 2.08306.8212.65687 1.559.69238 1.8923.0827.1546-.23672-.1428-8.61624-.3511-10.29689-.3511-2.6748-.5118-4.84072-.8152-7.14863-.8331-6.70479-2.9811-16.13768-4.665-22.51704-1.8565-7.13679-4.1236-14.57538-5.8194-21.4814-.5415-2.24282-1.0473-4.50932-1.0294-6.64562.017-3.08906 2.0112-4.7993 5.2481-3.64535 6.3787 2.23692 14.834 16.00752 17.2974 20.78906.8391 1.61553 4.1593 9.82936 4.9031 12.13137 2.6479 7.88837 4.2484 15.36838 4.9803 23.96688.7022 8.35586.1131 20.52865-3.4392 28.76614-1.3031 3.02989-3.9808 7.10722-6.2061 9.16069-3.4928 3.21923-10.4546 5.73428-15.2506 3.01213-5.2481-2.95888-13.87-17.81242-15.3397-20.35113-5.0042-8.68724-13.6143-25.67709-14.947-27.58261-.2916-.42016-.6724-.82258-1.3389-1.02378-.5058-.14783-.708.89951-.8389 1.58005-.8569 4.94722-1.4459 28.08561-1.4579 28.73065-.1428 3.89387-.3332 13.44511-1.4637 18.1497-.7379 3.07134-1.4876 5.59228-4.3259 6.88237-2.0171.90541-3.5523.52667-5.9979-.37281m86.4573-1.47946c-.6783-.51484-1.7731-1.62737-2.5705-2.52095-.125-.12434-2.3801-3.48556-2.8263-4.52117-.3928-.89356-.6903-1.5386-.9759-2.28424-2.0528-5.27272-1.9993-10.46258-.8628-16.12587 1.0532-5.28454 2.0528-5.51532 4.778-12.7705.1726-.39647.2559-.7397.3154-1.1776.1132-.99419-1.5054-7.68125-1.6006-9.8294-.1131-3.27842 2.4455-5.60411 6.7298-6.05385.3926-.0356.6842-.0295.9698-.11247 1.7077-.41424 2.8026-3.66901 3.7368-6.27872 1.3031-3.669 3.3381-9.26128 3.3381-9.26128s-5.4148-1.24273-8.3125-2.33159c-3.237-1.21314-5.6826-2.78135-7.1462-5.73431-1.7554-3.45594-.601-5.37329 3.0286-6.49175 1.3329-.4261 11.841-2.43219 15.1613-2.89969 4.1413-.60361 8.0387-1.11847 11.9778-1.60371 3.4274-.41425 19.1479-2.22509 24.1521-2.09488 7.6283.21895 12.5789 3.34352 17.0357 9.76427 2.3979 3.42637 4.0343 7.49778.4165 9.70511-5.5575 3.35535-23.5631 3.60982-26.8655 3.64532-5.2541.0533-12.5193-.0356-12.5193-.0356l-3.6654 12.18463s12.9002-.13619 20.1476-.16572c1.7612 0 3.5225.0946 4.5103.3018 3.7011.81665 4.9803 3.64534 5.1291 7.72267.2024 4.76969-.7021 6.96519-4.5223 7.60431-1.9754.31363-24.1342.44381-27.139.79297-1.8744.20126-3.8557.49708-3.8557.49708s-1.6007 4.15426-2.993 8.34994c-1.4043 4.3732-2.6062 8.82928-2.6062 8.82928s1.1246.0474 2.0587.0474c1.559.0108 3.1417-.21311 4.3794-.42608 6.7595-1.23089 16.8095-2.71031 25.0565-4.0004 4.433-.70421 6.6643-1.01786 8.9969 1.90551 2.0171 2.58607 3.0643 4.75196 3.2071 7.87653.1251 2.94111-2.1302 4.88807-4.8851 6.98292-8.7172 6.62789-23.6166 13.81204-34.7198 15.04293-5.1291.57401-6.3787.006-10.8711-1.15989-.8569-.21895-3.9629-1.66287-3.9331-1.81672 0 0-1.6839-1.11254-2.2552-1.55639zm140.093-61.23682c-5.7123 4.75787-13.0906 14.45706-16.6132 19.49305-4.7066 6.67521-9.1336 14.32095-13.3702 20.2446-.9104 1.3315-3.6416 6.09529-3.5464 6.25506.1905.33731 2.9395.2308 5.7659-.24263 6.0156-1.00601 14.1972-5.20761 18.5647-8.6754 6.6583-5.30823 11.2937-12.59889 13.4833-21.12636.97-3.87613 1.4638-12.00118-1.2971-15.61694-.5415-.69235-1.9219-1.2368-2.987-.33138m-45.3648 69.6637s-1.8089 5.27861-3.1358 9.42104c-2.2909 7.14864-7.3307 26.399056-8.4969 32.381891-1.7554 8.876626-6.7536 32.139291-7.0094 32.636378-.3512.674621-.5832.887657-1.4282 1.426169-2.0587 1.20129-2.8858.804815-5.379-.520756-3.237-1.692487-6.0811-3.420455-8.5089-6.610126-4.8792-6.302397-3.713-18.161565-2.7608-25.120825 3.3499-24.339691 6.7357-35.044871 16.0477-59.272151.1548-.41423.1548-.50891-.036-.8758-2.9037-6.14856-4.4687-13.57532-4.4687-19.57592.023-18.99003 10.996-37.77887 23.3012-52.86911.9283-1.14806 6.9679-8.34403 9.7108-8.20201 2.7491.13016 3.1954 3.31985 2.7848 5.98284-1.3805 8.7701-7.5866 17.70591-11.8291 25.10307-4.7721 8.26709-5.8074 11.66978-8.14 19.25043-.3748 1.18355-1.3091 6.72255-1.2674 7.43269.095 2.03572.5415 4.604.5415 4.604s7.7591-10.8058 12.8823-17.47509c2.7966-3.66308 4.8078-6.08344 7.1403-8.69317 2.3623-2.65114 11.4602-12.05445 14.0783-14.53399 5.504-5.22536 7.9435-7.39717 13.8939-10.46849 4.7185-2.42627 8.9551-3.02987 13.5547-.006 7.295 4.76378 10.4724 14.84169 11.2935 23.0141.958 9.76427-1.0472 20.74762-5.379 29.10939-5.1351 9.97731-12.1504 17.16146-21.6886 23.44612-9.7526 6.42666-21.1949 10.79987-32.4171 10.5395-1.5174-.0356-3.2845-.12433-3.2845-.12433"/><path d="m2851.6381-150.13814c6.5684.86245 13.2054 1.42772 19.7341 2.09576l1.8915 7.99462c-10.9155-.68533-22.11-.84517-33.0823-.84517-10.4482 0-21.1013.11982-31.5325.84517l1.5039-7.97734c5.4919-.70237 10.9951-1.17078 16.5212-2.05573.5013-9.65062.5868-39.68162.5868-53.34092v-6.26428c0-4.65398-.086-29.41435-.5868-37.31165-5.4861-1.14781-11.1944-1.38769-16.7375-1.8902l-1.1282-7.77771 39.1095-.14256c17.165 0 32.0966 1.37041 40.2773 4.71674 15.0914 6.30429 16.863 16.9199 16.863 21.55092 0 27.51847-26.9124 40.06998-50.3438 43.33627l.98-8.58262c14.191-3.54619 24.5422-11.48375 24.5422-29.04896 0-8.80546-4.3238-15.8178-11.4337-19.364-4.2044-2.07277-10.8982-3.02072-17.1877-3.22058-.4614 7.17219-.5809 26.21082-.5809 38.17411v6.66968c0 12.24888.1195 43.81581.6039 52.43845zm112.9075.0801c5.4063.96498 10.9323 1.4675 16.316 2.01571l1.9141 8.09739c-11.1375-1.06776-22.9757-.94794-34.0676-.94794-9.1436 0-18.367.27991-27.4137.84517l1.5268-8.0974c5.4464-.27967 11.0121-1.05072 16.4015-1.97569.5638-8.92552.7236-35.0106.7236-49.31496v-9.30796c0-4.7911-.1598-29.9512-.6438-38.11135-5.4692-.82788-10.8755-1.45045-16.2991-2.03276l-1.8914-8.14311c11.1547 1.21057 23.272 1.0107 34.3469 1.0107 9.024 0 18.3897.0173 27.3967-1.02775l-1.994 8.16016c-5.4462.58231-10.9097 1.49047-16.3388 2.19284-.3987 5.52188-.5811 21.47679-.5811 38.77915v9.73065c0 18.75281.1824 41.72008.6039 48.12715zm113.5295-16.98267c-8.3973-9.95326-15.5755-19.07841-19.6716-23.95523-5.5887 7.57785-19.3354 29.2145-25.5279 41.2178 3.8624.72511 7.7191 1.35336 11.6388 1.75309l1.1052 7.75473h-2.6321c-2.5123 0-15.957-.62256-24.981-.62256-6.8761 0-13.5872.35971-20.4805.90792l2.672-8.04009c3.4979-.50251 7.3148-.86814 10.5905-2.11304 6.7167-4.53391 33.7429-40.43514 40.8585-49.57757-5.4635-7.01235-12.8182-16.68002-19.7741-25.66829-7.1326-9.14221-13.7695-17.50223-17.3244-21.37403-3.6004-1.10779-7.3776-1.58732-11.035-2.29562l-1.1451-8.13718c8.6652 1.45045 18.2472 1.17054 26.8325 1.17054 9.8672 0 19.7971-.36539 29.664-.78786l-2.3129 7.92027c-3.8568.42247-7.7194.90224-11.5533 1.65031 4.3409 6.98938 15.8318 23.98933 20.8564 30.73906 5.3493-7.26928 16.0597-22.68168 20.7254-30.80181l-2.7745-.56551c-2.3355-.42246-4.6428-.78217-6.8933-1.12483l-1.5496-7.93756c8.2208.68532 16.5212.90792 24.8388.90792 6.3122 0 12.6243-.36539 18.9366-.90792l-.7462 7.75474c-3.7202.96499-7.4346 1.65031-11.2174 2.5812l-1.2817 1.28469c-5.5091 5.16217-10.4937 10.96395-15.4559 16.58316-7.2748 8.25725-14.7323 16.95969-18.1277 20.99135 17.4442 23.93225 34.5294 48.26423 52.4347 71.77403l-12.7214 2.51821c-12.4647-9.44507-23.8359-21.8365-33.9478-33.59993zm143.9776 17.14251c-4.7798-13.96194-9.0241-28.56327-14.9317-42.12548-6.9502.1428-26.2058 1.02774-33.2016 1.81584-1.8061 5.72174-8.2208 28.6033-10.1691 40.30964 4.2442.98796 8.6422 1.37064 12.9663 1.85587l1.5267 7.99462c-9.3487-.56526-18.8112-.84517-28.1202-.84517-7.0128 0-14.0485.27991-20.9988.90792l1.1223-8.05737c4.7455-.48523 9.3885-1.13053 14.0485-2.09576 6.1699-12.19157 32.1193-82.15544 37.7024-97.16218-3.8738-.76536-7.7365-1.16509-11.6159-1.63326l-.3192-7.93188c8.0384.54253 16.2363.84517 24.3374.84517 10.3514 0 20.8394-.11982 31.0939-.84517l-1.1508 7.93188c-3.6974.42814-7.4345.8679-11.0692 1.69601 2.7915 9.00532 10.3458 30.76179 15.8147 45.72875 4.2785 11.88348 13.6043 37.30596 20.7598 51.37068 4.8024.94226 9.565 1.54755 14.3904 2.17579l1.1678 8.19449c-9.4682-1.58756-20.9649-1.12507-30.3704-1.12507-9.7873 0-19.8367.11982-29.6241.90792l1.8915-8.09739c4.9619-.44521 9.8443-.86791 14.7493-1.81585zm71.452-96.95688c-5.4918-.80515-11.1947-1.21056-16.7262-1.67305l-1.1052-7.85751 38.1067-.15985c14.7893 0 35.5318.15985 46.7662 4.63101 8.9842 3.56917 14.9714 10.23317 14.9714 20.12913 0 10.67292-11.1716 23.54981-22.8503 30.73906 11.1146 18.83307 32.3587 48.34997 46.6066 63.47676l-13.5644 1.83312c-11.3141-5.21924-46.0825-44.72372-56.0749-56.8298-4.341.32537-8.8017.68532-11.7756.7881v1.85016c0 9.49055.262 31.14448.6837 39.98972 5.3494.88519 10.8526 1.41066 16.2818 1.89589l1.5267 8.05737c-9.867-.80514-20.0588-.90792-29.926-.90792-10.2088 0-20.7994 0-30.9685.90792l1.5039-8.09739c5.5091-.44521 11.1375-.93067 16.4986-1.97569.484-7.84047.6664-34.99331.6664-50.18287v-9.62789c0-5.32201-.1824-30.21926-.6209-36.98627zm-102.3181 7.33227c-4.5461 12.56857-10.9152 29.91662-13.5302 37.52881l26.5306.48522c-3.2756-9.81047-9.5081-27.46117-13.0004-38.01403zm142.7491 35.39304c6.3351-2.33563 16.4414-9.02237 16.4414-23.2242 0-8.01736-7.0358-19.40402-31.8517-20.06637-.4044 9.12514-.6664 33.42304-.6664 43.59321v2.51821c4.9848-.1428 10.511-.76512 16.0767-2.82085z" fill-rule="evenodd" stroke-width=".667536"/><circle cx="2749.5864" cy="-193.4408" r="17.8125" stroke-width=".891194"/></g></g></svg>