<?xml version="1.0" encoding="UTF-8" standalone="no"?>
<svg
   xmlns:dc="http://purl.org/dc/elements/1.1/"
   xmlns:cc="http://creativecommons.org/ns#"
   xmlns:rdf="http://www.w3.org/1999/02/22-rdf-syntax-ns#"
   xmlns:svg="http://www.w3.org/2000/svg"
   xmlns="http://www.w3.org/2000/svg"
   xmlns:sodipodi="http://sodipodi.sourceforge.net/DTD/sodipodi-0.dtd"
   xmlns:inkscape="http://www.inkscape.org/namespaces/inkscape"
   viewBox="0 0 922.8 120"
   version="1.1"
   id="svg32"
   sodipodi:docname="Sky Sports Cricket.svg"
   inkscape:version="0.92.0 r15299">
  <metadata
     id="metadata38">
    <rdf:RDF>
      <cc:Work
         rdf:about="">
        <dc:format>image/svg+xml</dc:format>
        <dc:type
           rdf:resource="http://purl.org/dc/dcmitype/StillImage" />
      </cc:Work>
    </rdf:RDF>
  </metadata>
  <defs
     id="defs36" />
  <sodipodi:namedview
     pagecolor="#ffffff"
     bordercolor="#666666"
     borderopacity="1"
     objecttolerance="10"
     gridtolerance="10"
     guidetolerance="10"
     inkscape:pageopacity="0"
     inkscape:pageshadow="2"
     inkscape:window-width="1920"
     inkscape:window-height="1017"
     id="namedview34"
     showgrid="false"
     inkscape:zoom="1.231036"
     inkscape:cx="513.74727"
     inkscape:cy="63.415354"
     inkscape:window-x="-8"
     inkscape:window-y="-8"
     inkscape:window-maximized="1"
     inkscape:current-layer="svg32" />
  <path
     d="m 917.3,120 c 3,0 5.5,-2.5 5.5,-5.5 V 5.499999 c 0,-3 -2.5,-5.5 -5.5,-5.5 H 567 V 120 Z"
     id="path2-3"
     style="fill:#ffffff;fill-opacity:1"
     inkscape:connector-curvature="0"
     sodipodi:nodetypes="ssssccs" />
  <g
     fill="#121780"
     id="g10">
    <path
       d="M677.1 39.8c0 3.4-1.5 4.2-4.7 4.2-6 0-14.3 1.9-18.4 11.3v29.6c0 2.2-1.1 3.4-4.7 3.4-1.5 0-3.3-.2-4.1-.4V36.1c.9-.2 2.6-.4 4.1-.4 3.6 0 4.7 1.3 4.7 3.4v6.2c4.9-7 13-10.6 22.7-9.1.2.7.4 2.2.4 3.6M684.4 23.5c0-3.3 2.6-5.7 5.8-5.7 3.2 0 5.7 2.4 5.7 5.7 0 2.9-2.5 5.7-5.7 5.7s-5.8-2.7-5.8-5.7m1.2 64.3v-49c0-2.1 1.2-3.4 4.8-3.4 1.5 0 3.3.2 4.1.4v48.9c0 2.2-1.2 3.4-4.8 3.4-1.5.1-3.2-.1-4.1-.3M760.8 87.8V24.7c0-2.1 1.2-3.4 4.8-3.4 1.5 0 3.1.3 4 .5v37.5L791 38.1c2-2.1 3.5-2.6 6.1-2.6 2 0 4.8.5 6.7 1.3L779 61l26.7 25.9c-2.2.9-5 1.3-7.1 1.3-2.6 0-4.1-.5-6.1-2.6l-22.9-22.5v21.7c0 2.2-1.1 3.4-4.7 3.4-1.5 0-3.2-.2-4.1-.4M591.2 61.9c0-15.4 11.5-26.8 26.4-26.8 6.6 0 12.2 1.7 16.8 3.9.5 4.9-1.2 6.6-3.5 6.6-2.7 0-6.2-2.7-13.3-2.7-9.3 0-17.4 7.3-17.4 19.1s8.1 19.2 17.4 19.2c7.1 0 10.6-2.7 13.3-2.7 2.3 0 4 1.7 3.5 6.6-4.5 2.2-10.2 4-16.8 4-14.9-.2-26.4-11.8-26.4-27.2M897.3 85.4c-4.5 2.2-9.7 3.6-15 3.6-10.3 0-16.6-6.1-16.6-16.1V26.7c0-2.1 1.2-3.4 4.8-3.4 1.5 0 3.2.3 4 .7v12.2H895c.1.8.3 2.3.3 3.6 0 3.1-1.2 4.2-3.2 4.2h-17.6v28.1c0 6.1 2.9 8.9 8.8 8.9 5.2 0 8.3-2.2 10.8-2.2 2.4 0 3.7 2.3 3.2 6.6M855.8 65.4h-40.1c1.4 9.8 8.2 15.6 18.5 15.6 4.3 0 7.8-1.1 11.1-2.2 2.2-.8 3.4-1.1 4.2-1.1 2.3 0 3.9 2.2 3.4 6.8-4.5 2.1-11.7 4.3-19.1 4.3-16 0-27.2-11.1-27.2-27.3 0-15.4 11.1-26.6 25.7-26.6 16 0 23.9 12.5 23.9 25 0 1.7-.1 3.6-.4 5.5m-40.2-7.2h31.8c-.3-8.8-6-15.6-15.1-15.6-8.2 0-15.4 5.4-16.7 15.6M706.7 61.9c0-15.4 11.5-26.8 26.4-26.8 6.6 0 12.2 1.7 16.8 3.9.5 4.9-1.2 6.6-3.5 6.6-2.7 0-6.2-2.7-13.3-2.7-9.3 0-17.4 7.3-17.4 19.1s8.1 19.2 17.4 19.2c7.1 0 10.6-2.7 13.3-2.7 2.3 0 4 1.7 3.5 6.6-4.5 2.2-10.2 4-16.8 4-15-.2-26.4-11.8-26.4-27.2"
       id="path8" />
  </g>
  <g
     id="g30">
    <linearGradient
       id="a"
       gradientUnits="userSpaceOnUse"
       x1="-8599.162"
       y1="-4719.377"
       x2="-8599.162"
       y2="-4553.606"
       gradientTransform="rotate(180 -4107.903 -2290.35)">
      <stop
         offset="0"
         stop-color="#a80002"
         id="stop12" />
      <stop
         offset="1"
         stop-color="#ea021a"
         id="stop14" />
    </linearGradient>
    <path
       fill="url(#a)"
       d="M199.7 0H567v120H199.7z"
       id="path17" />
    <linearGradient
       id="b"
       gradientUnits="userSpaceOnUse"
       x1="99.851"
       y1="138.674"
       x2="99.851"
       y2="-27.096">
      <stop
         offset="0"
         stop-color="#00043b"
         id="stop19" />
      <stop
         offset="1"
         stop-color="#002672"
         id="stop21" />
    </linearGradient>
    <path
       fill="url(#b)"
       d="M199.7 120H8c-4.4 0-8-3.6-8-8V7.9C0 3.7 3.5 0 7.9 0h191.8v120z"
       id="path24" />
    <path
       fill="#FFF"
       d="M135 106.7c1.3.7 3.9 1.5 7.3 1.5 5.7.1 8.8-2.1 11.1-7.2L184 32.8c-1.3-.7-4.1-1.4-6.3-1.5-3.9-.1-9.2.7-12.6 8.8l-9.9 23.4L135.7 32c-1.3-.4-4.3-.9-6.6-.9-6.8 0-10.7 2.5-14.7 6.8L95.6 58.5l15.2 23.9c2.8 4.4 6.5 6.6 12.5 6.6 3.9 0 7.2-.9 8.7-1.6l-18.3-27.6 13-13.7L148 79.5l-13 27.2zM94.9 80.9c0 5-2 7.9-11.8 7.9-1.3 0-2.4-.1-3.5-.3V21.9c0-5.1 1.7-10.3 11.6-10.3 1.2 0 2.5.1 3.7.4v68.9zm-20.3-10c0 9.4-6.1 16.2-18.6 17.6-9 1-22.1-.2-28.3-.9-.2-1-.4-2.3-.4-3.3 0-8.2 4.4-10.1 8.6-10.1 4.3 0 11.1.7 16.2.7 5.6 0 7.2-1.9 7.2-3.7 0-2.4-2.2-3.3-6.6-4.2L41 64.9C31.2 63 26 56.2 26 49c0-8.8 6.2-16.1 18.4-17.5 9.2-1 20.5.1 26.6.9.2 1.1.3 2.1.3 3.2 0 8.2-4.3 9.9-8.5 9.9-3.2 0-8.1-.6-13.8-.6-5.8 0-8.1 1.6-8.1 3.5 0 2 2.3 2.9 5.9 3.5L58.1 54c11.6 2.2 16.5 8.8 16.5 16.9M224.3 85.3c-.6-4.7.9-7.2 3.4-7.2 2.7 0 9.2 3 18.4 3 9.8 0 13.5-3.6 13.5-8.2 0-3.2-1.4-5.8-10.4-8.3l-10-2.8c-10.7-2.9-15.1-8.3-15.1-15.1 0-8.2 6.5-15.8 21.6-15.8 6.8 0 15.2 1.6 20.2 3.6.6 4.6-.9 7-3.2 7-2.5 0-8.6-2.8-17-2.8-9 0-12.4 3.3-12.4 7.6 0 2.8 1.3 5.4 9.5 7.7l10.2 3c11.3 3.2 15.9 8.5 15.9 15.6 0 8.8-6.9 16.6-23 16.6-7.4 0-16.3-1.8-21.6-3.9M334.9 60c0 18.1-12.7 29.1-27 29.1-8.6 0-15.5-4-19.6-9.8v24.5c0 2.1-1.2 3.5-4.8 3.5-1.6 0-3.4-.2-4.2-.5V32.3c.8-.2 2.6-.6 4.2-.6 3.6 0 4.8 1.4 4.8 3.5v5.6c4.1-5.8 11-9.8 19.6-9.8 14.3.1 27 11 27 29m-9.2 0c0-12.4-8.3-20.9-19.4-20.9-7.7 0-14.8 4.4-18 10.9v20.3c3.2 6.4 10.3 10.9 18 10.9 11.1-.1 19.4-8.6 19.4-21.2M343.8 60c0-16.6 12.3-28.9 28.7-28.9 16.5 0 28.7 12.4 28.7 28.9 0 16.7-12.3 29.1-28.7 29.1S343.8 76.7 343.8 60m48.2 0c0-12.8-8.8-20.9-19.5-20.9S353 47.2 353 60c0 13 8.8 21.1 19.5 21.1S392 73 392 60M446.2 36.1c0 3.4-1.5 4.2-4.8 4.2-6.4 0-15.5 2.1-20.1 12.4v32.2c0 2.2-1.2 3.5-4.8 3.5-1.6 0-3.4-.2-4.2-.5V32.3c.8-.2 2.6-.6 4.2-.6 3.6 0 4.8 1.4 4.8 3.5V42c5.1-7.4 14-11.4 24.5-9.7.1.7.4 2.4.4 3.8M498.2 85.3c-.6-4.7.9-7.2 3.4-7.2 2.7 0 9.2 3 18.4 3 9.8 0 13.5-3.6 13.5-8.2 0-3.2-1.4-5.8-10.4-8.3l-10-2.8c-10.7-2.9-15.1-8.3-15.1-15.1 0-8.2 6.5-15.8 21.6-15.8 6.8 0 15.2 1.6 20.2 3.6.6 4.6-.9 7-3.2 7-2.4 0-8.6-2.8-17-2.8-9 0-12.4 3.3-12.4 7.6 0 2.8 1.3 5.4 9.5 7.7l10.2 2.8c11.3 3.2 15.9 8.5 15.9 15.6 0 8.8-6.9 16.6-23 16.6-7.3.2-16.2-1.6-21.6-3.7M489 85.3c-4.8 2.3-10.4 3.7-16.1 3.7-11 0-17.6-6.3-17.6-17.2v-50c0-2.1 1.2-3.5 4.8-3.5 1.6 0 3.4.4 4.2.7v13.2h22.3c.1.7.3 2.2.3 3.6 0 3.3-1.4 4.3-3.4 4.3h-19.3V71c0 6.8 3.3 9.7 9.6 9.7 5.7 0 9.1-2.2 11.8-2.2 2.6.2 3.9 2.5 3.4 6.8"
       id="path26" />
    <path
       opacity=".2"
       fill="#FFF"
       d="M8 0h559v46.3L11.5 68.5C5.1 68.7 0 74 0 80.4V8c0-4.4 3.6-8 8-8z"
       id="path28" />
  </g>
</svg>
