<svg height="427.01178" viewBox="0 0 3267.1964 400.32354" width="3485.0095" xmlns="http://www.w3.org/2000/svg" xmlns:xlink="http://www.w3.org/1999/xlink"><clipPath id="a"><path d="m412.392 532.67h93.284v-15.246h-93.284z"/></clipPath><clipPath id="b"><path d="m412.392 517.424h93.284v15.245h-93.284z"/></clipPath><linearGradient id="c" gradientTransform="matrix(0 -376.63101 376.63101 0 1586.9472 -33.71464)" gradientUnits="userSpaceOnUse" spreadMethod="pad" x1="0" x2="1" y1="0" y2="0"><stop offset="0" stop-color="#820021"/><stop offset=".104411" stop-color="#ae2c3f"/><stop offset=".901742" stop-color="#ae2c3f"/><stop offset="1" stop-color="#ba3c4c"/></linearGradient><clipPath id="d"><path d="m505.836 530.723h.017v-.016h-.017z"/></clipPath><linearGradient id="e" gradientTransform="matrix(0 382.94906 382.94906 0 1240.3372 -413.62235)" gradientUnits="userSpaceOnUse" spreadMethod="pad" x1="0" x2="1" y1="0" y2="0"><stop offset="0" stop-color="#868685"/><stop offset=".020448" stop-color="#d8d9d9"/><stop offset=".0524045" stop-color="#f5f5f5"/><stop offset=".487663" stop-color="#edeeee"/><stop offset=".895488" stop-color="#f5f5f5"/><stop offset=".929442" stop-color="#ebebec"/><stop offset=".964262" stop-color="#d8d9d9"/><stop offset="1" stop-color="#868685"/></linearGradient><g transform="translate(-192.07751 422.19121)"><path d="m247.15571-410.3449c-29.69857 0-40.25316 17.53209-40.25316 46.67865v283.273619c0 29.146557 10.55459 46.678653 40.25316 46.678653h1986.38199c29.6986 0 40.2311-17.532096 40.2311-46.678653v-283.273619c0-29.14656-10.5325-46.67865-40.2311-46.67865z" fill="url(#e)"/><path d="m3401.7535-21.867669c44.0731 0 57.5203-27.40218 57.5203-54.804359v-290.714822c0-27.40218-13.4472-54.80436-57.5203-54.80436h-3152.1557c-44.09521 0-57.52029 27.40218-57.52029 54.80436v290.714822c0 27.402179 13.42508 54.804359 57.52029 54.804359zm-3150.12427-3.687481c-29.6765 0-49.76996-17.510015-49.76996-46.678653v-299.591277c0-29.16864 20.09346-46.67865 49.76996-46.67865h3148.09247c29.6765 0 49.7702 17.51001 49.7702 46.67865v299.591277c0 29.168638-20.0933 46.678653-49.7697 46.678653z" fill="#a1a2a2"/><g clip-path="url(#d)" opacity=".800003" transform="matrix(22.080725 0 0 -22.080725 -8896.1413 11357.445)"><g/></g><path d="m900.12691-410.3449v376.630922h2504.08659c29.6986 0 40.231-17.532096 40.231-46.678653v-283.273619c0-29.14656-10.5324-46.67865-40.231-46.67865z" fill="url(#c)"/><g fill="#fff"><path d="m1086.0025-103.27709c-16.693 0-32.1054-3.00298-46.215-9.00894-14.1095-6.02803-26.3202-14.33039-36.676-24.92913-10.3559-10.62083-18.45953-23.22893-24.333-37.84637s-8.83229-30.40516-8.83229-47.38523c0-16.4943 2.95882-31.92873 8.83229-46.32536 5.87347-14.37456 13.9771-26.87225 24.333-37.47099 10.3558-10.62083 22.5665-18.92319 36.676-24.92914 14.1096-6.02804 29.522-9.03102 46.215-9.03102 11.9898 0 23.6264 1.30276 34.9096 3.88621 11.3054 2.60552 21.7495 5.91763 31.3988 9.91424 2.1198 31.35463-5.5202 47.03195-22.9198 47.03195-3.0692 0-5.8734-.35329-8.479-1.05988-2.5834-.70658-5.4098-1.41316-8.4569-2.11975-3.0692-.70658-6.4696-1.41316-10.2234-2.11975-3.7758-.70658-8.2361-1.08195-13.403-1.08195-8.2361 0-15.9864 1.47941-23.2951 4.43822-7.2867 2.93674-13.5576 7.19832-18.857 12.7185-5.2993 5.54226-9.4726 12.21064-12.5197 19.98306-3.0693 7.77241-4.5928 16.51638-4.5928 26.16566 0 10.15713 1.5235 19.23231 4.5928 27.22553 3.0471 8.0153 7.2204 14.79409 12.5197 20.33635 5.2994 5.54226 11.5703 9.78176 18.857 12.74058 7.3087 2.93673 15.059 4.41614 23.2951 4.41614 5.1669 0 9.7597-.35329 13.7563-1.05987 3.9966-.70659 7.5737-1.41317 10.7533-2.11975 3.1797-.70659 6.1826-1.41317 8.9869-2.11975 2.8263-.70659 5.7631-1.05988 8.8323-1.05988 17.1567 0 24.7966 15.67732 22.9198 47.03195-9.6493 3.99661-20.4026 7.30872-32.282 9.89216-11.8795 2.58345-23.8031 3.88621-35.7929 3.88621"/><path d="m1207.7202-106.10343c-4.9461 0-9.8259-.24289-14.6395-.70658-4.8136-.4637-8.8765-1.05988-12.1665-1.76646v-204.75456c0-6.82295 2.1197-12.65226 6.3372-17.48794 4.2395-4.83568 12.2327-7.26456 24.0017-7.26456 4.924 0 9.8039.24289 14.6395.72867 4.8136.46369 8.8765 1.05987 12.1665 1.76646v204.73248c0 6.84502-2.1197 12.67433-6.3592 17.51001-4.2175 4.83568-12.2328 7.24248-23.9797 7.24248"/><path d="m1304.1909-106.10343c-4.7032 0-9.296-.24289-13.7563-.70658-4.4824-.4637-8.2361-1.05988-11.2832-1.76646v-225.24548c3.5108-1.19236 8.1036-2.18599 13.7562-3.02506 5.6306-.81698 10.4442-1.23652 14.4629-1.23652 12.9172 0 22.3236 1.65606 28.2192 4.96817 5.8735 3.29002 10.7975 8.1257 14.8162 14.48495l80.0647 126.23551v-123.05588c0-3.04714.3974-5.93972 1.2365-8.65565.817-2.71593 2.2301-5.12273 4.2174-7.24248 2.0094-2.11975 4.7694-3.7758 8.3024-4.94608 3.5108-1.19236 7.9932-1.78854 13.403-1.78854 4.7032 0 9.2297.24289 13.5796.72867 4.3499.46369 8.0374.92739 11.1066 1.39108v225.62085c-3.29 1.65606-7.2866 2.76009-11.9898 3.35627s-9.296.88323-13.7563.88323c-11.0625 0-19.2986-1.52357-24.6863-4.59279-5.4318-3.06922-9.8921-7.30872-13.403-12.74058l-85.7173-137.20962v131.20366c0 6.60214-2.0094 12.1444-6.006 16.62679s-11.5261 6.71254-22.5665 6.71254"/><path d="m1554.7564-107.52101c-6.5801 0-11.9457-.70658-16.0527-2.11975s-7.2866-3.35627-9.5168-5.82931c-2.2522-2.47304-3.7758-5.47602-4.5928-9.03102-.817-3.53291-1.2365-7.28664-1.2365-11.30533v-173.26745c0-4.01869.4195-7.79449 1.2365-11.32741s2.3406-6.53589 4.5928-9.00894c2.2302-2.47304 5.4098-4.41614 9.5168-5.82931 4.107-1.41316 9.4726-2.11975 16.0527-2.11975h116.7408c.4858 2.58345.9495 6.11636 1.4132 10.59875.4857 4.48239.7065 9.07518.7065 13.77837 0 9.91425-1.9872 16.93592-5.9838 21.04293-4.0187 4.1291-9.0531 6.20469-15.1695 6.20469h-71.9611v40.29732h82.8911c.4637 2.36264.9494 5.4981 1.4131 9.38431s.7066 8.08155.7066 12.54185c0 9.42847-1.8989 15.85396-5.6526 19.27647-3.7538 3.42252-8.457 5.12273-14.1096 5.12273h-65.2486v39.96611h94.5276c.4637 2.60553.9495 6.18261 1.4132 10.7754.4637 4.61487.7066 9.14142.7066 13.62381 0 10.13505-2.0094 17.20088-6.006 21.21957-3.9966 3.99661-9.0531 6.00596-15.1474 6.00596z"/><path d="m1724.3121-106.10343c-5.4098 0-10.1792-.52994-14.2862-1.58981-4.1291-1.05988-7.7062-2.2964-10.7533-3.70956l21.5507-220.2994c4.4824-1.89894 10.3559-3.42251 17.6425-4.59279 7.2867-1.19236 13.5134-1.78854 18.6803-1.78854 7.2867 0 13.5797.48578 18.857 1.43525 5.2994.92739 9.8259 2.5172 13.5796 4.76944 3.7537 2.23015 6.7567 5.36561 8.9869 9.36222 2.2301 4.0187 3.9303 8.96478 5.1227 14.86033l9.1635 42.77037c2.5835 11.7911 5.3435 24.81873 8.2803 39.08288 2.9367 14.26415 5.5864 28.94783 7.927 44.02897h1.4131c2.5835-15.08114 5.2773-29.69858 8.1037-43.85232 2.8263-14.15375 5.763-27.11513 8.8102-38.88416l11.2611-44.9122c2.8264-11.08452 7.3308-18.63613 13.5576-22.63274 6.2268-4.01869 15.9202-6.02804 29.0582-6.02804 6.5801 0 13.2043.55202 19.8948 1.6119 6.6904 1.05987 12.2768 2.16391 16.7372 3.35627l20.6234 221.71256c-3.2901 1.17027-7.2425 2.36263-11.8132 3.53291-4.5928 1.17028-9.5831 1.76646-14.9929 1.76646-7.5295 0-13.8887-1.30276-19.0556-3.88621-5.1669-2.60552-7.9932-7.4412-8.4569-14.50703l-5.2994-76.37723c-1.1703-13.44716-2.1639-27.51259-3.003-42.26251-.817-14.72784-1.3469-28.68286-1.5898-41.90922h-.7066c-3.0471 12.27689-6.1605 25.52532-9.3401 39.78947-3.1797 14.26415-6.4034 27.40218-9.6935 39.43618l-14.4628 60.10373c-3.533 14.15374-14.7058 21.21958-33.5186 21.21958-4.7032 0-9.5168-.4637-14.4629-1.41317-4.924-.92739-9.1635-1.98727-12.6964-3.17962l-17.9737-74.96407c-3.5329-13.91085-6.8229-27.57882-9.8701-41.02598-3.0692-13.42508-5.8955-26.87225-8.479-40.29733h-1.0598c-.7066 18.85694-1.634 36.12407-2.8264 51.80138-1.1703 15.67732-2.2301 29.16864-3.1575 40.47397l-5.6527 68.95811c-.4637 6.84502-3.0471 11.54822-7.7503 14.15374-4.7253 2.58345-10.8196 3.88621-18.3491 3.88621"/><path d="m2057.1282-202.64256h52.7729l-26.3202-86.62268zm-55.0252 97.24351c-4.4603 0-9.583-.41953-15.324-1.23652-5.7851-.81698-10.5325-1.9431-14.2862-3.35627l73.1755-224.1856c6.3593-1.65605 12.7847-2.84841 19.2765-3.555 6.4917-.70658 12.4314-1.05987 17.8633-1.05987 7.7724 0 14.4408.59618 19.983 1.76646 5.5423 1.19236 10.2013 2.95881 13.9771 5.32145s6.8892 5.47602 9.3623 9.36223c2.473 3.88621 4.5486 8.43484 6.2046 13.62381l62.7093 198.37323c-3.9966 1.65605-8.8102 2.89258-14.4629 3.70956-5.6306.81699-11.1728 1.23652-16.5605 1.23652-6.1385 0-12.0561-.99363-17.8192-3.00298-5.763-2.00934-9.9363-6.53589-12.5197-13.6238l-12.0119-36.41112h-76.9293l-10.1792 34.29137c-2.5834 8.25819-6.9333 13.44716-13.0497 15.56691s-12.586 3.17962-19.409 3.17962"/></g><path d="m446.57557-185.95837c0 32.23786-21.08709 55.79799-63.90162 60.45703-31.00134 3.3121-75.91353-.59618-97.24351-3.04714-.79491-3.48876-1.41317-7.81658-1.41317-11.21701 0-28.21917 15.25778-34.64466 29.54401-34.64466 14.83825 0 38.19966 2.56136 55.59927 2.56136 19.09983 0 24.92914-6.49173 24.92914-12.65225 0-8.10363-7.70618-11.48198-22.54442-14.30831l-40.60646-7.81658c-33.80559-6.46965-51.84554-29.85314-51.84554-54.67187 0-30.16227 21.35206-55.40054 63.32752-60.05958 31.75208-3.42251 70.37127.44162 91.59085 3.04714.77282 3.64332 1.17028 7.08792 1.17028 10.86372 0 28.13084-14.81617 34.20304-29.12448 34.20304-10.97412 0-28.02044-2.0535-47.47356-2.0535-19.80641 0-28.02044 5.47602-28.02044 12.1444 0 7.04375 7.83866 9.9584 20.22594 12.12231l38.81792 7.19832c39.87779 7.35288 56.96827 30.00771 56.96827 57.87358m69.66469 34.62258c0 17.2892-6.77879 27.26969-40.54021 27.26969-4.48239 0-8.39068-.33121-12.1444-.88323v-229.41873c0-17.42169 5.93971-35.59413 40.03235-35.59413 4.28366 0 8.63357.44162 12.65226 1.28068zm138.00453 88.742431c4.41614 2.274314 13.5134 5.012324 24.9733 5.321454 19.56352.419534 30.27267-7.087912 38.19965-24.642089l105.19258-234.629786c-4.34991-2.34055-13.93294-4.924-21.81576-5.10065-13.5134-.24288-31.66376 2.51721-43.27822 30.18436l-34.07056 80.39592-66.79419-108.79174c-4.30574-1.32484-14.81617-3.22378-22.54442-3.22378-23.56014 0-36.76441 8.6998-50.43238 23.53805l-64.93941 71.03369 52.24299 82.20654c9.64928 14.97073 22.36778 22.61066 43.03534 22.61066 13.5134 0 24.75249-3.06922 29.96354-5.56434l-62.8859-94.83671 44.58098-47.23067 73.10928 114.75352z" fill="#ae2c3f"/><g clip-path="url(#a)" opacity=".399994" transform="matrix(34.630373 0 0 -22.080725 -14071.521 11357.445)"><g><g><g clip-path="url(#b)"><g transform="translate(504.1664 519.8869)"><path d="m0 0c1.156-1.145 1.313-2.225 1.354-2.463.114 0 .156.506.156 1.261l-.004 12.109c0 1.402-.456 1.876-1.644 1.876-.402 0-.804-.216-1.339-.216h-87.31c-.536 0-.938.216-1.34.216-1.187 0-1.643-.474-1.643-1.876l-.004-12.109c0-.755.041-1.261.155-1.261.041.238.076 1.402 1.354 2.463 10.208 7.878 79.259 10.296 90.265 0" fill="#fff"/></g></g></g></g></g><g fill="#fff" transform="matrix(.93749999 0 0 .93749999 2355.8342 -224.81381)"><g transform="matrix(1.9537635 0 0 1.9537635 -.002226 -122.53)"><path d="m99.43 21.22h-20l3.75-21.17h62.56l-3.75 21.17h-21.06l-19.12 107.21h-21.5z"/><path d="m322.93 21.22h-20l3.75-21.17h62.56l-3.75 21.17h-21.06l-19.12 107.21h-21.5z"/><path d="m545.31.05h24.88l-36.05 58.11 14.85 70.27h-21.62l-9.34-44.32-11.59 18.67-4.57 25.65h-21.5l22.94-128.38h21.44l-8.27 46.44z"/></g><g stroke-width="1.953763"><path d="m764.9548-81.071137h28.81801l-10.62847 59.023196-31.12345 13.6763447zm24.93002 101.165875 30.12704-13.1488284 17.95508-100.6969716a24.53927 24.53927 0 0 0 -24.16805-28.642168h-83.38663l-44.81933 250.76554h42.00591l15.63011-87.919356 7.97136-3.477699 19.18595 91.338445h42.37713z"/><path d="m462.12146-81.071137h28.81801l-10.62847 59.023196-31.12346 13.6763447zm24.93002 101.165875 30.12703-13.1488284 17.95509-100.6969716a24.53927 24.53927 0 0 0 -24.16806-28.642168h-83.38662l-44.81934 250.78508h42.00592l15.63011-87.919359 7.97135-3.477699 19.18596 91.338448h42.37713z"/><path d="m954.70431-45.727555-8.75286 48.9808516-62.26644 27.1768504-10.17911 56.659142h57.5188l-7.44384 41.361171h-99.38795l41.12672-230.71993a24.500194 24.500194 0 0 1 24.10944-20.26053h78.97113l-7.32662 41.361175h-57.40157l-11.19506 62.520433z"/><path d="m329.07016-81.071137h30.28334l-10.49171 58.847357-32.97953 14.3796998zm74.75099-13.070677a24.578345 24.578345 0 0 0 -24.28528-28.290496h-64.68911v-.0977a24.480657 24.480657 0 0 0 -24.10944 20.18238l-41.1658 230.71993h41.98638l15.63011-87.294142 32.97953-14.399237-18.22861 101.595699h42.12314z"/><path d="m9.2586128 49.909169 77.1736582-33.721958-12.699462 70.80439h-29.052464l7.93228-45.131937-45.5422273 19.90885-6.64279598 37.473184a24.578345 24.578345 0 0 0 24.08990428 29.130612h63.262862v.09769a24.597883 24.597883 0 0 0 24.207132-20.22145l28.68125-160.853352-76.919673 33.62427 10.960613-62.071067h29.072l-6.623257 36.418152 45.659457-19.928388 5.21654-28.661711a24.578345 24.578345 0 0 0 -24.12897-29.150154h-63.341017a24.53927 24.53927 0 0 0 -24.187593 20.26053z"/></g></g><path d="m2278.1882-118.06858c3.2089-58.03196 1.6142-222.32754-2.3837-245.60443l-.7912-4.60643-.7976 7.4887c-2.8612 26.86369-3.7227 58.12993-3.691 133.91567.032 74.62544.8657 106.44101 3.6964 140.963831l.8308 10.131799.7889-7.048209c.4338-3.8765 1.4902-19.734921 2.3474-35.240931z" fill="#fff" stroke-width="1.092852"/></g></svg>