<svg height="240" viewBox="0 0 709.60996 240" width="709.60999" xmlns="http://www.w3.org/2000/svg" xmlns:xlink="http://www.w3.org/1999/xlink"><linearGradient id="a" gradientTransform="matrix(-1 0 0 -1 -8215.806 -4580.7)" gradientUnits="userSpaceOnUse" x1="-8599.1621" x2="-8599.1621" y1="-4719.377" y2="-4553.606"><stop offset="0" stop-color="#a80002"/><stop offset="1" stop-color="#ea021a"/></linearGradient><linearGradient id="b" gradientTransform="matrix(-.99999998 0 0 .99999998 709.55971 0)" gradientUnits="userSpaceOnUse" x1="99.850998" x2="99.850998" y1="138.674" y2="-27.096001"><stop offset="0" stop-color="#00043b"/><stop offset="1" stop-color="#002672"/></linearGradient><path d="m7.9003906 0c-4.4 0-7.9003906 3.70039-7.9003906 7.90039v112.09961h709.56055v-112.09961c.00002-4.2-3.50038-7.90039-7.90039-7.90039z" fill="url(#b)"/><g transform="matrix(.47999903 0 0 .47999903 567 .000243)"><path d="m47.72 66.75c4.27-1.63 9.009999-.77 13.299999.33v50.41h57.960001v-43.52c-.2-3.08 1.41-6.38 4.46-7.41 4.18-1.36 8.63975-.52 12.79975.5v111.94c.19 2.95-1.67975 5.81-4.47975 6.78-4.19 1.35-8.66.5-12.78-.69v-51.58h-57.960001v45.56c.17 2.76-1.519999 5.48-4.089999 6.53-4.28 1.62-8.940001.68-13.190001-.49v-111.08c-.16-2.92 1.160001-6.08 3.980001-7.28z" fill="#fff"/><path d="m163.6 67.6c1.93541-1.250479 4.18277-1.423068 6.4468-1.407001h20.66351c9.41962-.02864 18.81521.354982 27.85969 3.307001 14.45 4.25 27.14 14.48 33.54 28.21 5.52 11.92 6.78 25.54 4.66 38.43-2.52 15.09-11.04 29.21-23.67 37.96-10.48 7.39-23.33 11.21025-36.12 11.18025h-27.04c-2.47-.06-5.46.0498-7.15-2.10025-1.87-2.29-1.55-5.41-1.57-8.16v-100.06c-.01-2.57.12-5.67 2.38-7.36m14.9 14.359499v87.540751h18.52c10.64-.21 21.64-3.56025 29.54-10.93025 9.32-8.38 13.81-21.17 13.46-33.53.39-9.74-2.69-19.54-8.69-27.24-5.52-7-13.5-11.82-22.09-14.05-5.14467-1.391422-10.41037-1.790501-15.70306-1.790501z" fill="#fff"/></g><path d="m199.7 0h367.3v120h-367.3z" fill="url(#a)"/><path d="m135 106.7c1.3.7 3.9 1.5 7.3 1.5 5.7.1 8.8-2.1 11.1-7.2l30.6-68.2c-1.3-.7-4.1-1.4-6.3-1.5-3.9-.1-9.2.7-12.6 8.8l-9.9 23.4-19.5-31.5c-1.3-.4-4.3-.9-6.6-.9-6.8 0-10.7 2.5-14.7 6.8l-18.8 20.6 15.2 23.9c2.8 4.4 6.5 6.6 12.5 6.6 3.9 0 7.2-.9 8.7-1.6l-18.3-27.6 13-13.7 21.3 33.4zm-40.1-25.8c0 5-2 7.9-11.8 7.9-1.3 0-2.4-.1-3.5-.3v-66.6c0-5.1 1.7-10.3 11.6-10.3 1.2 0 2.5.1 3.7.4zm-20.3-10c0 9.4-6.1 16.2-18.6 17.6-9 1-22.1-.2-28.3-.9-.2-1-.4-2.3-.4-3.3 0-8.2 4.4-10.1 8.6-10.1 4.3 0 11.1.7 16.2.7 5.6 0 7.2-1.9 7.2-3.7 0-2.4-2.2-3.3-6.6-4.2l-11.7-2.1c-9.8-1.9-15-8.7-15-15.9 0-8.8 6.2-16.1 18.4-17.5 9.2-1 20.5.1 26.6.9.2 1.1.3 2.1.3 3.2 0 8.2-4.3 9.9-8.5 9.9-3.2 0-8.1-.6-13.8-.6-5.8 0-8.1 1.6-8.1 3.5 0 2 2.3 2.9 5.9 3.5l11.3 2.1c11.6 2.2 16.5 8.8 16.5 16.9m149.7 14.4c-.6-4.7.9-7.2 3.4-7.2 2.7 0 9.2 3 18.4 3 9.8 0 13.5-3.6 13.5-8.2 0-3.2-1.4-5.8-10.4-8.3l-10-2.8c-10.7-2.9-15.1-8.3-15.1-15.1 0-8.2 6.5-15.8 21.6-15.8 6.8 0 15.2 1.6 20.2 3.6.6 4.6-.9 7-3.2 7-2.5 0-8.6-2.8-17-2.8-9 0-12.4 3.3-12.4 7.6 0 2.8 1.3 5.4 9.5 7.7l10.2 3c11.3 3.2 15.9 8.5 15.9 15.6 0 8.8-6.9 16.6-23 16.6-7.4 0-16.3-1.8-21.6-3.9m110.6-25.3c0 18.1-12.7 29.1-27 29.1-8.6 0-15.5-4-19.6-9.8v24.5c0 2.1-1.2 3.5-4.8 3.5-1.6 0-3.4-.2-4.2-.5v-74.5c.8-.2 2.6-.6 4.2-.6 3.6 0 4.8 1.4 4.8 3.5v5.6c4.1-5.8 11-9.8 19.6-9.8 14.3.1 27 11 27 29m-9.2 0c0-12.4-8.3-20.9-19.4-20.9-7.7 0-14.8 4.4-18 10.9v20.3c3.2 6.4 10.3 10.9 18 10.9 11.1-.1 19.4-8.6 19.4-21.2m18.1 0c0-16.6 12.3-28.9 28.7-28.9 16.5 0 28.7 12.4 28.7 28.9 0 16.7-12.3 29.1-28.7 29.1s-28.7-12.4-28.7-29.1m48.2 0c0-12.8-8.8-20.9-19.5-20.9s-19.5 8.1-19.5 20.9c0 13 8.8 21.1 19.5 21.1s19.5-8.1 19.5-21.1m54.2-23.9c0 3.4-1.5 4.2-4.8 4.2-6.4 0-15.5 2.1-20.1 12.4v32.2c0 2.2-1.2 3.5-4.8 3.5-1.6 0-3.4-.2-4.2-.5v-55.6c.8-.2 2.6-.6 4.2-.6 3.6 0 4.8 1.4 4.8 3.5v6.8c5.1-7.4 14-11.4 24.5-9.7.1.7.4 2.4.4 3.8m52 49.2c-.6-4.7.9-7.2 3.4-7.2 2.7 0 9.2 3 18.4 3 9.8 0 13.5-3.6 13.5-8.2 0-3.2-1.4-5.8-10.4-8.3l-10-2.8c-10.7-2.9-15.1-8.3-15.1-15.1 0-8.2 6.5-15.8 21.6-15.8 6.8 0 15.2 1.6 20.2 3.6.6 4.6-.9 7-3.2 7-2.4 0-8.6-2.8-17-2.8-9 0-12.4 3.3-12.4 7.6 0 2.8 1.3 5.4 9.5 7.7l10.2 2.8c11.3 3.2 15.9 8.5 15.9 15.6 0 8.8-6.9 16.6-23 16.6-7.3.2-16.2-1.6-21.6-3.7m-9.2 0c-4.8 2.3-10.4 3.7-16.1 3.7-11 0-17.6-6.3-17.6-17.2v-50c0-2.1 1.2-3.5 4.8-3.5 1.6 0 3.4.4 4.2.7v13.2h22.3c.1.7.3 2.2.3 3.6 0 3.3-1.4 4.3-3.4 4.3h-19.3v30.9c0 6.8 3.3 9.7 9.6 9.7 5.7 0 9.1-2.2 11.8-2.2 2.6.2 3.9 2.5 3.4 6.8" fill="#fff"/><path d="m8 0c-4.4 0-8 3.6-8 8v72.40039c0-6.4 5.1-11.70039 11.5-11.90039l698.11-22.19922v-38.30078c0-4.4-3.6-8-8-8z" fill="#fff" opacity=".2"/><path d="m7.90039 240c-4.4 0-7.90039-3.70039-7.90039-7.90039v-112.09961h709.56055v112.09961c.00002 4.2-3.50038 7.90039-7.90039 7.90039z" fill="#999"/><path d="m10.40039 237.5c-4.4 0-7.90039-3.70038-7.90039-7.90038v-109.59962h704.5602v109.59962c.00001 4.2-3.50038 7.90038-7.9004 7.90038z" fill="#fff"/><g fill="#121780"><g transform="matrix(4.45461214 0 0 4.45461214 -1527.805781 104.220797)"><path d="m406.3 25.9h5.4c.2 0 .4-.1.5-.6.1-.7.3-1.8.4-2.2 0-.2 0-.3 0-.4 0 0-.1-.1-.1-.1h-.2c-.4 0-.5.3-.6.5-.5 1.3-.7 1.7-3 1.7h-.8c-1.9 0-2.9-.2-2.9-1.9v-11.9h4.2c.9 0 1.4.4 1.8 1.3 0 .1.1.4.5.4.2 0 .2-.2.2-.3v-2.1c0-.3-.1-.4-.4-.4h-10.3c-.1 0-.1 0-.2 0-.1.1-.1.2 0 .4 0 .4.3.5.4.5h.3.1c.3 0 .4 0 .7.3.2.2.1.5.1 1.2v.2 10.5.5c0 .6 0 1-.1 1.2-.3.3-.4.3-.7.3h-.1c-.1 0-.1 0-.3 0-.1 0-.4 0-.4.5v.4h.2z"/><path d="m409.8 19.9c.1 0 .2 0 .2-.1.1-.1.1-.4.1-2.3v-.6c0-1.4 0-1.5-.1-1.6-.1 0-.1 0-.2 0h-.1c-.2 0-.4.1-.5.5-.2.6-.5 1.3-1.8 1.3h-1.5c-.2 0-.3.3-.3.3v.1c0 .1.1.3.3.3h1.5c1.2 0 1.6.8 1.7 1.4.1.4.2.6.4.6.1.1.2.1.3.1z"/><path d="m399.4 25.8h.2c.1-.1.1-.2 0-.4 0-.4-.3-.5-.4-.5h-.3s-.5 0-.8-.3c-.2-.2-.2-.6-.2-1.2v-.3-10.6c0-.7 0-1.1.2-1.2.3-.3.8-.3.8-.3h.3c.1 0 .4 0 .4-.5 0-.2 0-.3 0-.4 0 0-.1 0-.2 0h-5.6c-.1 0-.1 0-.2 0-.1.1-.1.2 0 .4 0 .4.3.5.4.5h.3s.5 0 .8.3c.2.2.2.6.2 1.2v4.7h-7.3v-4.4-.3c0-.7 0-1.1.2-1.2.3-.3 1.2-.4 1.2-.4.1 0 .4 0 .4-.5 0-.2 0-.3 0-.4 0 0-.1 0-.2 0h-5.6c-.1 0-.1 0-.2 0-.1.1-.1.2 0 .4 0 .4.3.5.4.5 0 0 .9.1 1.2.4.2.2.2.6.2 1.2v.3 10.4.3c0 .7 0 1.1-.2 1.2-.3.3-.8.3-.8.3-.1 0-.3 0-.3 0-.1 0-.4 0-.4.5v.4h.2 5.6.2c.1-.1.1-.2 0-.4 0-.4-.3-.5-.4-.5h-.3s-.5 0-.8-.3c-.2-.2-.2-.6-.2-1.2v-.3-5.1h7.3v5.1.3c0 .7 0 1.1-.2 1.2-.3.3-.8.3-.8.3-.1 0-.3 0-.3 0-.1 0-.4 0-.4.5v.4h.2 5.4z"/><path d="m374.8 23.3c0 .7 0 1.1-.2 1.2-.3.3-.8.3-.8.3h-.3c-.1 0-.4 0-.4.5v.4h.2 5.6.2c.1-.1.1-.2 0-.4 0-.4-.3-.5-.4-.5h-.3s-.5 0-.8-.3c-.2-.2-.2-.6-.2-1.2v-12.6h1.7c1.9 0 2.2.4 2.9 1.4.2.3.7.3.7.3h.1.1s.1-.1 0-.3l-.3-2.1c0-.1-.1-.1-.1-.2h-12.6s-.1.1-.1.2l-.3 2.1-.00006.3h.10006.1s.5 0 .7-.3c.7-1.1 1-1.4 2.9-1.4h1.70008z"/></g><g transform="matrix(1.4360509 0 0 1.4360509 190.013432 -321.06644)"><path d="m442.3 29.1c-.3 0-1.9 0-1.9 0h-4.4s-1.6 0-1.9 0-.3 0-.3.7.4.7.7.7c.4.1 1.5.2 2 .9.3.5.6 1.6.6 3.6v.6 14.8l-14.5-19.9c-.7-1-1-1.4-1.6-1.4-1.3 0-5.1 0-6 0-.2 0-.3 0-.3.3s.1.6.1.7c.1.3.6.4.8.4 1.5.1 2.4.7 3.3 2 1 1.3 7.4 10.2 10.2 14 2 2.8 7.3 10.1 7.5 10.3.8 1 1.1 1 1.3 1h .2.6c.3 0 .3-.3.3-.3v-4.4-.1-17.5-.6c0-2 .3-3.1.6-3.6.5-.7 1.6-.8 2-.9.2 0 .6-.1.7-.7.3-.5.2-.6 0-.6z" transform="matrix(1.734104 0 0 1.734104 -487.82434 276.08697)"/><path d="m129.8635 319.09275c-16.12716 0-29.13294 11.79191-29.13294 29.65318 0 14.21965 8.49711 24.62428 20.1156 28.26589.52023.17341.69365.17341.69365 0 .34682-.86705-.34683-1.21387-.34683-1.38728-.52023-.34682-1.04046-.69364-1.56069-1.04046-2.42774-1.90752-5.0289-4.33526-7.28324-10.05781-1.90751-4.68208-4.50867-14.56647-1.56069-26.7052 2.42775-10.0578 9.53757-16.12716 18.90173-16.12716 9.36417 0 16.47399 6.06936 18.90174 16.12716 2.94797 12.13873.34682 22.02312-1.5607 26.7052-2.25433 5.72255-4.85549 8.15029-7.28323 10.05781-.34682.34682-1.04047.69364-1.5607 1.04046 0 0-.69364.34682-.34682 1.38728 0 .17341.34682 0 .69364 0 .34683 0 .69365-.17341.69365-.17341 11.27167-3.81503 19.42196-14.04624 19.42196-28.09248.34682-17.86127-12.83237-29.65318-28.78613-29.65318z" stroke-width="1.734104"/><g transform="matrix(1.734104 0 0 1.734104 -487.82434 276.08697)"><path d="m394.2 37.3c0 2.6-1.1 4.8-3.1 6.3-1.9 1.4-4.4 2.1-7.4 2.1-.4 0-.9 0-1.2 0 0 0 0 0-.3 0-.4 0-.4-.1-.4-.5s.1-.4.4-.4h.6c4.4 0 7-2.5 7-7 0-4.6-2.2-6.9-6.4-6.9h-3v21.7.6c0 1.4 0 2.3.3 2.6.5.5.7.5 1.4.6.2 0 .2 0 .6.1.2 0 .6.1.7.7 0 .6 0 .7-.3.7s-1.9 0-1.9 0h-6.1s-1.6 0-1.9 0-.3 0-.3-.7.4-.7.7-.7c.4-.1.4 0 .6-.1.7-.1.9-.1 1.4-.6.3-.3.3-1.2.3-2.6v-18.9-.5c0-1.4 0-2.3-.3-2.6-.5-.5-.7-.5-1.4-.6-.2 0-.2 0-.6-.1-.2 0-.6-.1-.7-.7 0-.6 0-.7.3-.7h1.9 8.9c6.5.1 10.2 3.1 10.2 8.2z"/><path d="m409.2 38.6s-.4 0-.6.9c-.3 1.3-1.2 2.7-3.3 2.7 0 0-1.8 0-2.1 0s-.5.3-.5.5.1.5.5.5h2.1c2.1 0 2.9 1.4 3.3 2.7.2.9.6.9.6.9h.6c.2 0 .3-.4.3-4.3s0-4-.3-4c-.2.1-.6.1-.6.1z"/><path d="m413.9 52.1c-.1 0-.1 0-.4 0-.7 0-.9.6-.9.8-.9 2.3-1.2 3.2-5.5 3.2-.1 0-.5 0-.5 0-3.6 0-5.3-.4-5.3-3.5v-21.7h6.7c1.6 0 2.7.7 3.3 2.4.1.2.2.8.9.8.2 0 .2-.2.2-.5 0-1 0-3.4 0-3.8 0-.5-.1-.6-.7-.6-.4 0-.6 0-1.9 0h-6-1.8-5.9-.2s-1.6 0-1.9 0-.3 0-.3.7.4.7.7.7c.4.1.4 0 .6.1.7.1.9.1 1.4.6.3.3.3 1.2.3 2.6v.5 18.4.5c0 1.4 0 2.3-.3 2.6-.5.5-.7.5-1.4.6-.2 0-.2 0-.6.1-.2 0-.6.1-.7.7 0 .6 0 .7.3.7h1.9 6.1 1.4.1.4 8.8c.4 0 .6 0 .7-1 .3-1.4.6-3.9.7-4.1.1-.5.1-.8-.2-.8z"/><path d="m423.5 56.5c-.9-.1-1.3-.2-2-1.2-.3-.4-.6-1.1-.6-2.7v-.4-.1-.1-14.4l-2.2-3.1v17.5.5c0 1.6-.3 2.3-.6 2.7-.8 1.1-1.1 1.1-2 1.2-.2 0-.6-.1-.7.7 0 .7 0 .7.3.7h1.8 4.6 1.8c.3 0 .3 0 .3-.7-.1-.7-.5-.6-.7-.6z"/></g><path d="m131.77102 366.08697s-.17341-.34682-.17341-.52023c0-.86705-.17341-1.73411.34682-2.60116.34682-.52023.69364-.86705 1.21387-1.21387s1.04046-.69364 1.38729-1.38729c.52023-.86705.69364-1.7341.86705-2.60115.17341-1.56069.34682-3.12139.52023-4.68208.17341-1.21387.17341-2.25434.34682-3.46821s.17341-2.42775.17341-3.81503c0-1.56069 0-3.12139 0-4.68208 0-.17341 0-.34682-.17341-.52023.34682-.17341.52023-.17341.52023-.17341s.17341-.17341-.34682-.17341c-.34682-.52023-.86705-1.04046-1.56069-1.21387h-.17341c0-.86706.34682-1.73411 1.21387-2.25434.34682-.17341.52023 0 .69364 0s .34682.34682.52023.52023c.34682.17341.69364.17341.69364.17341-.17341-.52023-.34682-.69364-.69364-.86705-.17341 0-.17341-.69364 0-.86705.52023-.17341 1.04046-.52023 1.56069-1.21388.86706-1.04046 1.38729-2.77456 1.21388-4.33526 0-.17341 0-.34682 0-.69364 0-.17341-.86705-3.29479-4.16185-3.29479-1.5607 0-2.42775.86705-2.77457 2.08092v.86705c-1.04046-.17341-1.90751 1.04046-1.90751 1.04046v.17342c.17341.52023-.17341 1.04046-.86705.86705-.69365-.17341-.69365-1.04047-.34683-1.38729-.34682-.69364-1.04046-2.25433-2.42774-3.29479-1.21387-1.04047-3.2948-.52023-3.64162.17341.17341.17341.86705.34682 1.90751 1.7341 1.5607 2.08093 1.73411 3.2948 1.73411 4.33526v3.98844c0 .52023-.34682 1.21387-.34682 1.21387l.17341.34682v.17341c-1.04046 0-1.90752.17342-2.77457.69365-.86705.34682-1.7341 1.21387-1.7341 2.25433v4.68208c0 1.21388.17341 2.42775.17341 3.81503.17341 1.21387.17341 2.25434.34682 3.46821.17341 1.56069.34682 3.12139.52023 4.68208.17341.86705.34682 1.90751.86705 2.60116.34682.52023.86705 1.04046 1.38729 1.38728.52023.34682.86705.69364 1.21387 1.21387.52023.69364.34682 1.73411.34682 2.60116 0 .17341-.17341.52023-.17341.52023-.17341 0-2.77457.17341-2.94798.52023 0 .34682-.17341 2.25433-.17341 2.42775 1.21387 0 2.25434-.17342 3.64162-.17342h-.17341c-.52023 0-.69364.17342-1.21387.17342-.86706 0-1.38729 0-2.25434.17341 0 0-1.04046 0-1.04046.34682 0 .17341-.34682 3.4682-.34682 3.4682.17341 0 1.38728.17341 3.12139.17341 0 0 0 0-.17341 0-.52024 0-.34683.17342-1.5607.17342-1.04046 0-1.38728-.17342-1.56069-.17342s-.69364 0-.69364.34683c0 .17341-.52023 3.29479-.52023 3.4682s.17341.34682 2.42774.86706c1.04046.17341 2.60116.52023 5.20231.52023h.69364c2.60116 0 4.16185-.34682 5.20232-.52023 2.25433-.52024 1.90751-.69365 1.90751-.86706s-.52023-3.29479-.52023-3.4682c0-.34683-.52023-.34683-.69364-.34683 0 0-.52023.17342-1.38729.17342-1.21387 0-1.04046-.17342-1.56069-.17342 0 0 0 0-.17341 0 1.7341 0 2.94798 0 3.12139-.17341 0 0-.34682-3.29479-.34682-3.4682s-1.04047-.34682-1.04047-.34682c-.52023 0-.86705 0-1.38728 0-.17341 0-.34682 0-.34682 0-.69364 0-.86705-.34683-1.56069-.34683 0 0 0 0-.17341 0 1.21387 0 2.42774 0 3.4682.17342s-.17341-1.90752-.17341-2.42775c.52024-.69364-1.90751-.86705-2.42774-.86705zm3.81503-29.82659c-.52023.17341-1.04046.52023-1.21388 1.21387-.17341.34682-.17341.86705-.17341 1.21388-.69364-.17342-1.38728-.34683-1.90751-.34683h-.17341l.17341-.52023s-.17341-.52023-.34682-1.21387c0-.34682 0-3.81503 0-4.68208 0-.34682.17341-.69364.17341-.86705.17341-.34682.52023-.69364.52023-.86706.34682-.17341.69364-.34682.86705-.34682.52023.52024 1.21388.52024 1.38729.52024s0-.34683-.34682-.34683c-.69365-.34682-1.04047-.86705-.86706-1.7341s.86706-1.38728 1.90752-1.38728c.69364 0 1.38728.34682 2.08092.86705.86705.69364 1.21388 1.7341 1.38729 2.94798 0 1.21387-.52024 2.60115-1.38729 3.4682-.69364.69365-1.56069.86706-2.25433.86706-.34682 0-.52023 0-.86705-.17341-.17342 0-.17342 0-.34683 0s-.34682 0-.34682 0 .17341.17341 1.04047.34682c.34682 0 .52023.17341.86705.17341-.17341.52023-.17341.86705-.17341.86705z" stroke-width="1.734104"/></g></g></svg>