<?xml version="1.0" encoding="UTF-8" standalone="no"?>
<svg
   xmlns:dc="http://purl.org/dc/elements/1.1/"
   xmlns:cc="http://creativecommons.org/ns#"
   xmlns:rdf="http://www.w3.org/1999/02/22-rdf-syntax-ns#"
   xmlns:svg="http://www.w3.org/2000/svg"
   xmlns="http://www.w3.org/2000/svg"
   xmlns:xlink="http://www.w3.org/1999/xlink"
   xmlns:sodipodi="http://sodipodi.sourceforge.net/DTD/sodipodi-0.dtd"
   xmlns:inkscape="http://www.inkscape.org/namespaces/inkscape"
   viewBox="0 0 709.60996 240"
   version="1.1"
   id="svg30"
   sodipodi:docname="Sky Sports Premier League HD.svg"
   width="709.60999"
   height="240"
   inkscape:version="0.92.0 r15299">
  <metadata
     id="metadata36">
    <rdf:RDF>
      <cc:Work
         rdf:about="">
        <dc:format>image/svg+xml</dc:format>
        <dc:type
           rdf:resource="http://purl.org/dc/dcmitype/StillImage" />
        <dc:title />
      </cc:Work>
    </rdf:RDF>
  </metadata>
  <defs
     id="defs34">
    <linearGradient
       y2="-27.096001"
       x2="99.850998"
       y1="138.674"
       x1="99.850998"
       gradientUnits="userSpaceOnUse"
       id="b-6"
       gradientTransform="matrix(-0.99999998,0,0,0.99999998,709.55971,6.694327e-7)">
      <stop
         id="stop19-4"
         stop-color="#00043b"
         offset="0" />
      <stop
         id="stop21"
         stop-color="#002672"
         offset="1" />
    </linearGradient>
    <linearGradient
       gradientTransform="rotate(180,-4107.903,-2290.35)"
       y2="-4553.606"
       x2="-8599.1621"
       y1="-4719.377"
       x1="-8599.1621"
       gradientUnits="userSpaceOnUse"
       id="a">
      <stop
         id="stop10"
         stop-color="#a80002"
         offset="0" />
      <stop
         id="stop12"
         stop-color="#ea021a"
         offset="1" />
    </linearGradient>
    <linearGradient
       inkscape:collect="always"
       xlink:href="#b-6"
       id="linearGradient4552"
       gradientUnits="userSpaceOnUse"
       gradientTransform="matrix(-0.99999998,0,0,0.99999998,709.55971,0)"
       x1="99.850998"
       y1="138.674"
       x2="99.850998"
       y2="-27.096001" />
  </defs>
  <sodipodi:namedview
     pagecolor="#ffffff"
     bordercolor="#666666"
     borderopacity="1"
     objecttolerance="10"
     gridtolerance="10"
     guidetolerance="10"
     inkscape:pageopacity="0"
     inkscape:pageshadow="2"
     inkscape:window-width="1920"
     inkscape:window-height="1017"
     id="namedview32"
     showgrid="false"
     fit-margin-top="0"
     fit-margin-left="0"
     fit-margin-right="0"
     fit-margin-bottom="0"
     inkscape:zoom="1.6514028"
     inkscape:cx="309.24872"
     inkscape:cy="153.41004"
     inkscape:window-x="-8"
     inkscape:window-y="-8"
     inkscape:window-maximized="1"
     inkscape:current-layer="svg30"
     inkscape:snap-others="false"
     showguides="false" />
  <path
     style="fill:url(#linearGradient4552);stroke-width:0.99999988"
     d="M 7.9003906,0 C 3.5003906,0 0,3.70039 0,7.90039 V 120 H 709.56055 V 7.90039 C 709.56057,3.70039 706.06017,0 701.66016,0 Z"
     id="path24-6-6"
     inkscape:connector-curvature="0"
     sodipodi:nodetypes="csccccc" />
  <g
     id="#ffffffff"
     transform="matrix(0.47999903,0,0,0.47999903,567,2.425e-4)">
    <path
       d="m 47.72,66.75 c 4.27,-1.63 9.009999,-0.77 13.299999,0.33 v 50.41 H 118.98 V 73.97 c -0.2,-3.08 1.41,-6.38 4.46,-7.41 4.18,-1.36 8.63975,-0.52 12.79975,0.5 V 179 c 0.19,2.95 -1.67975,5.81 -4.47975,6.78 -4.19,1.35 -8.66,0.5 -12.78,-0.69 V 133.51 H 61.019999 v 45.56 c 0.17,2.76 -1.519999,5.48 -4.089999,6.53 -4.28,1.62 -8.940001,0.68 -13.190001,-0.49 V 74.03 C 43.579999,71.11 44.9,67.95 47.72,66.75 Z"
       id="path7"
       inkscape:connector-curvature="0"
       style="opacity:1;fill:#ffffff"
       sodipodi:nodetypes="ccccccccccccccccc" />
    <path
       d="m 163.6,67.6 c 1.93541,-1.250479 4.18277,-1.423068 6.4468,-1.407001 h 20.66351 c 9.41962,-0.02864 18.81521,0.354982 27.85969,3.307001 14.45,4.25 27.14,14.48 33.54,28.21 5.52,11.92 6.78,25.54 4.66,38.43 -2.52,15.09 -11.04,29.21 -23.67,37.96 -10.48,7.39 -23.33,11.21025 -36.12,11.18025 h -27.04 c -2.47,-0.06 -5.46,0.0498 -7.15,-2.10025 -1.87,-2.29 -1.55,-5.41 -1.57,-8.16 V 74.96 c -0.01,-2.57 0.12,-5.67 2.38,-7.36 m 14.9,14.359499 v 87.540751 h 18.52 c 10.64,-0.21 21.64,-3.56025 29.54,-10.93025 9.32,-8.38 13.81,-21.17 13.46,-33.53 0.39,-9.74 -2.69,-19.54 -8.69,-27.24 -5.52,-7 -13.5,-11.82 -22.09,-14.05 -5.14467,-1.391422 -10.41037,-1.790501 -15.70306,-1.790501 z"
       id="path9"
       inkscape:connector-curvature="0"
       style="opacity:1;fill:#ffffff"
       sodipodi:nodetypes="ccccccccccccccccccccsc" />
  </g>
  <path
     style="fill:url(#a)"
     inkscape:connector-curvature="0"
     id="path15"
     d="M 199.7,0 H 567 V 120 H 199.7 Z" />
  <path
     style="fill:#ffffff"
     inkscape:connector-curvature="0"
     id="path24"
     d="m 135,106.7 c 1.3,0.7 3.9,1.5 7.3,1.5 5.7,0.1 8.8,-2.1 11.1,-7.2 L 184,32.8 c -1.3,-0.7 -4.1,-1.4 -6.3,-1.5 -3.9,-0.1 -9.2,0.7 -12.6,8.8 L 155.2,63.5 135.7,32 c -1.3,-0.4 -4.3,-0.9 -6.6,-0.9 -6.8,0 -10.7,2.5 -14.7,6.8 l -18.8,20.6 15.2,23.9 c 2.8,4.4 6.5,6.6 12.5,6.6 3.9,0 7.2,-0.9 8.7,-1.6 L 113.7,59.8 126.7,46.1 148,79.5 Z M 94.9,80.9 c 0,5 -2,7.9 -11.8,7.9 -1.3,0 -2.4,-0.1 -3.5,-0.3 V 21.9 c 0,-5.1 1.7,-10.3 11.6,-10.3 1.2,0 2.5,0.1 3.7,0.4 z m -20.3,-10 c 0,9.4 -6.1,16.2 -18.6,17.6 -9,1 -22.1,-0.2 -28.3,-0.9 -0.2,-1 -0.4,-2.3 -0.4,-3.3 0,-8.2 4.4,-10.1 8.6,-10.1 4.3,0 11.1,0.7 16.2,0.7 5.6,0 7.2,-1.9 7.2,-3.7 0,-2.4 -2.2,-3.3 -6.6,-4.2 L 41,64.9 C 31.2,63 26,56.2 26,49 c 0,-8.8 6.2,-16.1 18.4,-17.5 9.2,-1 20.5,0.1 26.6,0.9 0.2,1.1 0.3,2.1 0.3,3.2 0,8.2 -4.3,9.9 -8.5,9.9 -3.2,0 -8.1,-0.6 -13.8,-0.6 -5.8,0 -8.1,1.6 -8.1,3.5 0,2 2.3,2.9 5.9,3.5 L 58.1,54 c 11.6,2.2 16.5,8.8 16.5,16.9 m 149.7,14.4 c -0.6,-4.7 0.9,-7.2 3.4,-7.2 2.7,0 9.2,3 18.4,3 9.8,0 13.5,-3.6 13.5,-8.2 0,-3.2 -1.4,-5.8 -10.4,-8.3 l -10,-2.8 c -10.7,-2.9 -15.1,-8.3 -15.1,-15.1 0,-8.2 6.5,-15.8 21.6,-15.8 6.8,0 15.2,1.6 20.2,3.6 0.6,4.6 -0.9,7 -3.2,7 -2.5,0 -8.6,-2.8 -17,-2.8 -9,0 -12.4,3.3 -12.4,7.6 0,2.8 1.3,5.4 9.5,7.7 l 10.2,3 c 11.3,3.2 15.9,8.5 15.9,15.6 0,8.8 -6.9,16.6 -23,16.6 -7.4,0 -16.3,-1.8 -21.6,-3.9 M 334.9,60 c 0,18.1 -12.7,29.1 -27,29.1 -8.6,0 -15.5,-4 -19.6,-9.8 v 24.5 c 0,2.1 -1.2,3.5 -4.8,3.5 -1.6,0 -3.4,-0.2 -4.2,-0.5 V 32.3 c 0.8,-0.2 2.6,-0.6 4.2,-0.6 3.6,0 4.8,1.4 4.8,3.5 v 5.6 c 4.1,-5.8 11,-9.8 19.6,-9.8 14.3,0.1 27,11 27,29 m -9.2,0 c 0,-12.4 -8.3,-20.9 -19.4,-20.9 -7.7,0 -14.8,4.4 -18,10.9 v 20.3 c 3.2,6.4 10.3,10.9 18,10.9 11.1,-0.1 19.4,-8.6 19.4,-21.2 m 18.1,0 c 0,-16.6 12.3,-28.9 28.7,-28.9 16.5,0 28.7,12.4 28.7,28.9 0,16.7 -12.3,29.1 -28.7,29.1 -16.4,0 -28.7,-12.4 -28.7,-29.1 m 48.2,0 c 0,-12.8 -8.8,-20.9 -19.5,-20.9 -10.7,0 -19.5,8.1 -19.5,20.9 0,13 8.8,21.1 19.5,21.1 C 383.2,81.1 392,73 392,60 m 54.2,-23.9 c 0,3.4 -1.5,4.2 -4.8,4.2 -6.4,0 -15.5,2.1 -20.1,12.4 v 32.2 c 0,2.2 -1.2,3.5 -4.8,3.5 -1.6,0 -3.4,-0.2 -4.2,-0.5 V 32.3 c 0.8,-0.2 2.6,-0.6 4.2,-0.6 3.6,0 4.8,1.4 4.8,3.5 V 42 c 5.1,-7.4 14,-11.4 24.5,-9.7 0.1,0.7 0.4,2.4 0.4,3.8 m 52,49.2 c -0.6,-4.7 0.9,-7.2 3.4,-7.2 2.7,0 9.2,3 18.4,3 9.8,0 13.5,-3.6 13.5,-8.2 0,-3.2 -1.4,-5.8 -10.4,-8.3 l -10,-2.8 C 502.4,58.9 498,53.5 498,46.7 c 0,-8.2 6.5,-15.8 21.6,-15.8 6.8,0 15.2,1.6 20.2,3.6 0.6,4.6 -0.9,7 -3.2,7 -2.4,0 -8.6,-2.8 -17,-2.8 -9,0 -12.4,3.3 -12.4,7.6 0,2.8 1.3,5.4 9.5,7.7 l 10.2,2.8 c 11.3,3.2 15.9,8.5 15.9,15.6 0,8.8 -6.9,16.6 -23,16.6 -7.3,0.2 -16.2,-1.6 -21.6,-3.7 m -9.2,0 c -4.8,2.3 -10.4,3.7 -16.1,3.7 -11,0 -17.6,-6.3 -17.6,-17.2 v -50 c 0,-2.1 1.2,-3.5 4.8,-3.5 1.6,0 3.4,0.4 4.2,0.7 v 13.2 h 22.3 c 0.1,0.7 0.3,2.2 0.3,3.6 0,3.3 -1.4,4.3 -3.4,4.3 H 464.2 V 71 c 0,6.8 3.3,9.7 9.6,9.7 5.7,0 9.1,-2.2 11.8,-2.2 2.6,0.2 3.9,2.5 3.4,6.8" />
  <path
     sodipodi:nodetypes="cscccccc"
     inkscape:connector-curvature="0"
     id="path28"
     d="M 8,0 C 3.6,0 0,3.6 0,8 V 80.40039 C 0,74.00039 5.1,68.7 11.5,68.5 L 709.61,46.30078 V 8 c 0,-4.4 -3.6,-8 -8,-8 z"
     style="opacity:0.2;fill:#ffffff" />
  <path
     style="fill:#999999;fill-opacity:1;stroke-width:0.99999988"
     d="M 7.90039,240 C 3.50039,240 0,236.29961 0,232.09961 V 120 h 709.56055 v 112.09961 c 2e-5,4.2 -3.50038,7.90039 -7.90039,7.90039 z"
     id="path24-6-6-7"
     inkscape:connector-curvature="0"
     sodipodi:nodetypes="csccccc" />
  <path
     style="fill:#ffffff;fill-opacity:1;stroke-width:0.99999988"
     d="M 10.40039,237.5 C 6.00039,237.5 2.5,233.79962 2.5,229.59962 V 120 h 704.5602 v 109.59962 c 10e-6,4.2 -3.50038,7.90038 -7.9004,7.90038 z"
     id="path24-6-6-7-2"
     inkscape:connector-curvature="0"
     sodipodi:nodetypes="csccccc" />
  <g
     id="g4675"
     transform="translate(-0.948422)">
    <path
       style="fill:#480c4d;fill-opacity:1"
       inkscape:connector-curvature="0"
       id="path8"
       d="m 332.51998,137.49981 c 4.3,2 7.1,4.5 7.6,4.8 -0.2,-1.1 -1.1,-6.5 -1.6,-9.8 2.5,1.7 8.3,5.8 10.3,7.1 0.8,-2.4 3.5,-10.3 3.5,-10.3 0,0 4.9,7.9 5.7,9.2 1,-1.1 6.9,-7.6 8.4,-9.2 0.3,3.7 0.6,9.1 0.7,9.9 0.3,-0.4 2.5,-3.5 6.3,-6.4 -1.6,3.2 -2.4,7.6 -2.8,11.2 -3.7,-1 -7.6,-1.6 -11.6,-1.6 -7.7,0 -15,2 -21.2,5.6 -1.2,-3.4 -2.9,-7.7 -5.3,-10.5 m 59,67.6 -3.4,-3.8 c -1,10.2 -5.9,18.8 -15.1,24.8 l -1.4,-5.5 c -7.8,5.6 -21.1,9.2 -32.5,2.8 1.4,-7.3 2.7,-14.6 0,-23.4 -6.3,9.8 -12,13.7 -12,13.7 -4.3,-7.2 -3.9,-21.6 -2.6,-25.9 l -7.1,2.2 c 0,-4.8 3.5,-15.1 8.5,-20.9 l -4.5,-0.7 c 3,-6.2 7.5,-11.5 13.1,-15.5 -1.7,2.6 -1.7,9.1 3.2,11.6 -2.1,-3.6 -2.3,-8.1 -0.2,-10.4 2.2,-2.3 5.8,-1.5 8.1,0.3 -0.7,-2 -2.7,-4.6 -5.7,-4.7 5.7,-2.9 12.2,-4.6 19.1,-4.6 1.3,0 2.5,0.1 3.8,0.2 2,0.8 4.9,3.6 6.3,5.4 0,0 0.1,-2.1 -1,-4.6 7.4,1.8 11,4.8 12.5,6.3 0.3,3.2 1.3,5.1 2.5,8.2 -2.4,-2.7 -8.5,-7 -11.3,-8.1 0,0 -0.2,2.8 -1.2,4.1 -5.7,-4.2 -8.6,-5.2 -8.6,-5.2 -6.3,0.9 -10.4,3.3 -12.6,5.3 l 1.9,1.6 c -3.8,1.2 -6.3,4.4 -6.3,4.4 0,0.1 3.4,0.5 3.4,0.5 0,0 -0.3,4 4.6,6.4 4.2,2.1 10.4,-0.5 16.1,1.8 -3.8,-4.4 -6.4,-6.3 -6.4,-6.3 0,0 -1.5,-0.3 -2.6,-0.3 -1.3,0 -3.3,0.3 -5.5,-0.6 -1,-0.4 -2.2,-1.1 -3.2,-1.7 0,0 2.7,-2.7 6.5,-3.3 0,0 3.5,1 6.3,3 1.8,-1.8 3.8,-1.7 3.8,-1.7 0,0 -1.9,1.8 -1.3,3.9 2.8,2.5 5.8,6 5.8,6 3.1,-1.7 9.7,-1.3 11.1,0.3 -1.7,-2.2 -4.2,-4.1 -6.2,-5.7 -0.2,-0.8 -2.3,-3.8 -2.7,-4 0,0 2,0.6 3.8,2.2 0.5,-0.7 1.5,-1.5 2.8,-1.8 1.3,1.1 1.6,2.9 1.5,3.2 -0.6,0.7 -1.2,1 -1.2,1 l 3.2,3.5 0.3,-2.5 c 7.6,10.6 11.7,22.9 6.4,38.5 m -14.1,-23 v -5.5 c 0,0 -2.5,-0.8 -5.1,-2.8 -5.3,0.8 -11.7,6.1 -11.7,6.1 0,0 2.2,4.1 4.5,8.5 4.2,0.6 10.4,-4.7 12.3,-6.3 m 5.4,10 c 0,0 -0.4,-2.3 -2.2,-4.4 l -4.1,0.1 c 0,0 -5.6,4.8 -8.9,4.9 0,0 1.9,3.5 2.8,5.3 1.9,-0.4 5.1,-1.9 6.5,-3.4 0,0 0.9,2.8 0.7,6.1 1.7,-1.1 4.3,-4 5.2,-8.6 m 1.6,-18.1 c -2.1,1.7 -3.8,2.7 -3.8,2.7 v 5.5 c 1.5,1.7 3,3 4.1,5.5 2.1,-3.7 1.7,-9.2 -0.3,-13.7" />
    <path
       sodipodi:nodetypes="cccscsccsscsscccsssccccccsssccsccccccccsssccscccccccccccsssccssccccccccsccsssccsc"
       style="fill:#480c4d;fill-opacity:1;stroke-width:1.66971958"
       d="m 534.02716,170.82395 0.94009,-3.98562 h 7.61897 v 30.00986 c 0,5.86072 -1.63969,9.96322 -5.50846,13.01046 -2.92867,2.2274 -6.91766,3.86707 -11.72145,3.86707 -6.56531,0 -11.25386,-2.2274 -15.00409,-5.86072 l 4.80715,-6.68222 c 2.34429,2.22741 5.50839,4.22106 9.61088,4.22106 6.44686,0 9.25862,-3.16579 9.25862,-7.85436 v -2.22741 c -2.57639,2.6966 -5.62363,3.75019 -9.02317,3.75019 -8.9096,0 -15.9425,-7.26829 -15.9425,-16.52688 0,-9.14506 7.26827,-16.17625 16.17628,-16.17625 3.63328,0.002 6.91427,1.75822 8.78768,4.45482 m -7.73241,3.40121 c -4.57004,0 -8.20671,3.51476 -8.20671,8.32022 0,4.57169 3.63667,8.205 8.20671,8.205 4.56998,0 8.20332,-3.63331 8.20332,-8.205 0,-4.80546 -3.63334,-8.32022 -8.20332,-8.32022 m 70.68085,-0.58774 c -3.6333,0 -6.68052,2.11053 -7.38344,5.51008 h 14.53485 c -0.7046,-3.28267 -3.63495,-5.51008 -7.15141,-5.51008 m 0.46921,25.43484 c -9.73113,0 -16.87918,-6.68055 -16.87918,-16.41 0,-8.79275 6.44678,-16.64544 16.64543,-16.64544 7.61897,0 15.47498,5.74217 15.47498,16.41001 0,0.81983 0,1.87676 -0.23882,3.04723 h -22.97198 c 0.81984,3.51644 3.98559,5.86072 7.85274,5.86072 3.51636,0 6.21297,-1.28902 8.4404,-3.63331 l 5.27297,5.39152 c -3.39956,3.87042 -8.32021,5.97927 -13.59654,5.97927 M 453.2662,173.63742 c -3.63499,0 -6.68056,2.11053 -7.38519,5.51008 h 14.53495 c -0.70128,-3.28267 -3.63169,-5.51008 -7.14976,-5.51008 m 0.46917,25.43484 c -9.7278,0 -16.87921,-6.68055 -16.87921,-16.41 0,-8.79275 6.44516,-16.64544 16.64213,-16.64544 7.62056,0 15.47495,5.74217 15.47495,16.41001 0,0.81983 0,1.87676 -0.23371,3.04723 h -22.97706 c 0.82152,3.51644 3.98896,5.86072 7.85604,5.86072 3.51474,0 6.2097,-1.28902 8.44043,-3.63331 l 5.27297,5.39152 c -3.39791,3.87042 -8.32024,5.97927 -13.59654,5.97927 m -48.17473,-0.81983 v -46.53509 h 9.25859 v 37.74402 h 20.16188 v 8.79107 z m 83.69137,-24.02727 c -4.69029,0 -8.20335,3.51476 -8.20335,8.32022 0,4.57169 3.51306,8.205 8.20335,8.205 4.57163,0 8.08809,-3.63331 8.08809,-8.205 0,-4.80546 -3.51646,-8.32022 -8.08809,-8.32022 m -1.75825,24.8471 c -8.32189,0 -15.58848,-7.61893 -15.58848,-16.52688 0,-8.79108 7.26659,-16.17625 15.58848,-16.17625 4.69023,0 7.85268,1.63967 9.72948,4.57002 l 0.93838,-4.1025 h 7.61894 v 31.41411 h -7.61894 l -0.93838,-3.98729 c -1.8768,2.81681 -5.39154,4.80879 -9.72948,4.80879 m 74.66824,0 c -6.91595,0 -15.35308,-3.75019 -15.35308,-15.47162 v -16.76399 h 8.67085 v 16.17625 c 0,5.39152 2.46448,7.73581 6.68223,7.73581 3.86706,0 6.68221,-2.69493 6.68221,-7.73581 v -16.17625 h 8.67421 v 16.76399 c 0,11.72143 -8.55735,15.47162 -15.35642,15.47162"
       inkscape:connector-curvature="0"
       id="path44_1_-8-1" />
    <path
       sodipodi:nodetypes="cccccsssccsccccccccsssccscccccccsccsscccccccsccssccccssccssscccccscccsscccccssscccccccsssccccsssccc"
       style="overflow:visible;fill:#480c4d;fill-opacity:1;stroke-width:1.66968906"
       d="m 169.91971,173.63752 c -3.63492,0 -6.68377,2.11049 -7.38506,5.50998 h 14.53297 c -0.70127,-3.28261 -3.62989,-5.50998 -7.14791,-5.50998 m 0.46916,25.43607 c -9.7276,0 -16.87887,-6.68043 -16.87887,-16.40973 0,-8.7926 6.44667,-16.64514 16.64513,-16.64514 7.61878,0 15.47299,5.74206 15.47299,16.40972 0,0.81982 0,1.87674 -0.23376,3.04718 h -22.97489 c 0.81815,3.51637 3.98554,5.86396 7.85252,5.86396 3.51636,0 6.21291,-1.29067 8.44028,-3.63659 l 5.27454,5.39143 c -3.39782,3.86869 -8.32172,5.97917 -13.59794,5.97917 m 97.40452,-25.43607 c -3.63323,0 -6.67875,2.11049 -7.38502,5.50998 H 274.943 c -0.70125,-3.28261 -3.63325,-5.50998 -7.14961,-5.50998 m 0.47086,25.43607 c -9.72758,0 -16.87887,-6.68043 -16.87887,-16.40973 0,-8.7926 6.44668,-16.64514 16.64513,-16.64514 7.61876,0 15.47296,5.74206 15.47296,16.40972 0,0.81982 0,1.87674 -0.23374,3.04718 h -22.97655 c 0.82313,3.51637 3.9872,5.86396 7.85421,5.86396 3.51469,0 6.21121,-1.29067 8.44026,-3.63659 l 5.27287,5.39143 c -3.39947,3.86869 -8.32339,5.97917 -13.59627,5.97917 m -134.21277,-0.81982 v -31.41523 h 7.50189 l 0.94005,4.57161 c 1.4042,-2.93199 4.21597,-4.92226 7.9694,-4.92226 0.81984,0 1.63965,0.11528 2.46114,0.35065 v 8.32173 c -1.05692,-0.23376 -1.99028,-0.35231 -3.04719,-0.35231 -4.21928,0 -7.1496,2.57968 -7.1496,7.61881 v 15.82533 h -8.67569 z m 152.84983,0 v -31.41523 h 7.50021 l 0.9384,4.57161 c 1.40751,-2.93199 4.21929,-4.92226 7.97107,-4.92226 0.82147,0 1.6401,0.11528 2.46325,0.35065 l -4.6e-4,8.32173 c -1.05693,-0.23376 -1.99193,-0.35231 -3.04885,-0.35231 -4.2193,0 -7.14795,2.57968 -7.14795,7.61881 v 15.82533 h -8.67567 z m -60.60129,-18.52188 c 0,-3.3995 -1.87506,-5.50998 -4.80704,-5.50998 -3.39782,0 -5.15599,2.11048 -5.15599,5.62852 v 18.40167 h -8.67402 v -18.52021 c 0,-3.3995 -1.87507,-5.50998 -4.80537,-5.50998 -3.39948,0 -5.15764,2.11048 -5.15764,5.62852 v 18.40167 h -8.67403 v -31.41356 h 7.61878 l 0.94003,4.10242 c 0,0 1.87505,-4.92224 7.73566,-4.92224 3.63658,0 6.68208,1.52275 8.79257,4.69015 l 0.23543,0.35065 0.23543,-0.35065 c 3.04884,-4.33785 6.79895,-4.69015 9.14318,-4.69015 6.68043,0 11.25203,5.0408 11.25203,12.19041 v 20.04464 h -8.67401 v -18.52188 z m 17.46492,-17.11099 c -3.04718,0 -5.39142,-2.34592 -5.39142,-5.27624 0,-3.04718 2.34424,-5.39142 5.39142,-5.39142 3.04717,0 5.39142,2.34257 5.39142,5.39142 0,2.92865 -2.34425,5.27624 -5.39142,5.27624 m -4.45306,4.21764 h 8.67235 v 31.41189 h -8.67235 z m -131.28248,6.91753 h 5.3931 c 4.69014,0 8.08797,-2.57801 8.08797,-7.26818 0,-4.69183 -3.39783,-7.15129 -8.08797,-7.15129 h -5.3931 z m -9.258396,24.4977 v -47.70809 h 15.119006 c 9.84613,0 17.23118,5.86062 17.23118,15.94221 0,10.19681 -7.26817,16.17597 -17.23118,16.17597 h -5.86061 v 15.58991 z"
       inkscape:connector-curvature="0"
       id="path44_1_-5-4-02" />
  </g>
</svg>
