<?xml version="1.0" encoding="UTF-8" standalone="no"?>
<!-- Created with Inkscape (http://www.inkscape.org/) -->

<svg
   xmlns:dc="http://purl.org/dc/elements/1.1/"
   xmlns:cc="http://creativecommons.org/ns#"
   xmlns:rdf="http://www.w3.org/1999/02/22-rdf-syntax-ns#"
   xmlns:svg="http://www.w3.org/2000/svg"
   xmlns="http://www.w3.org/2000/svg"
   xmlns:sodipodi="http://sodipodi.sourceforge.net/DTD/sodipodi-0.dtd"
   xmlns:inkscape="http://www.inkscape.org/namespaces/inkscape"
   width="2372.4458"
   height="729.99994"
   viewBox="0 0 2372.4458 729.99997"
   id="svg8519"
   version="1.1"
   inkscape:version="0.91 r13725"
   sodipodi:docname="Sky Cinema Christmas - Dark.svg">
  <defs
     id="defs8521">
    <clipPath
       clipPathUnits="userSpaceOnUse"
       id="clipPath1252">
      <path
         d="m 411.591,515.351 94.948,0 0,18.13 -94.948,0 0,-18.13 z"
         id="path1254"
         inkscape:connector-curvature="0" />
    </clipPath>
    <clipPath
       clipPathUnits="userSpaceOnUse"
       id="clipPath1288">
      <path
         d="m 412.392,532.67 93.284,0 0,-15.246 -93.284,0 0,15.246 z"
         id="path1290"
         inkscape:connector-curvature="0" />
    </clipPath>
    <clipPath
       clipPathUnits="userSpaceOnUse"
       id="clipPath1292">
      <path
         d="m 412.392,517.424 93.284,0 0,15.245 -93.284,0 0,-15.245 z"
         id="path1294"
         inkscape:connector-curvature="0" />
    </clipPath>
    <linearGradient
       x1="0"
       y1="0"
       x2="1"
       y2="0"
       gradientUnits="userSpaceOnUse"
       gradientTransform="matrix(0,17.057004,17.057004,0,474.76197,515.88703)"
       spreadMethod="pad"
       id="linearGradient1236">
      <stop
         style="stop-opacity:1;stop-color:#820021"
         offset="0"
         id="stop1238" />
      <stop
         style="stop-opacity:1;stop-color:#ae2c3f"
         offset="0.104411"
         id="stop1240" />
      <stop
         style="stop-opacity:1;stop-color:#ae2c3f"
         offset="0.901742"
         id="stop1242" />
      <stop
         style="stop-opacity:1;stop-color:#ba3c4c"
         offset="1"
         id="stop1244" />
    </linearGradient>
    <clipPath
       clipPathUnits="userSpaceOnUse"
       id="clipPath1202">
      <path
         d="m 411.591,515.351 94.948,0 0,18.13 -94.948,0 0,-18.13 z"
         id="path1204"
         inkscape:connector-curvature="0" />
    </clipPath>
    <clipPath
       clipPathUnits="userSpaceOnUse"
       id="clipPath1214">
      <path
         d="m 505.836,530.723 0.017,0 0,-0.016 -0.017,0 0,0.016 z"
         id="path1216"
         inkscape:connector-curvature="0" />
    </clipPath>
    <linearGradient
       x1="0"
       y1="0"
       x2="1"
       y2="0"
       gradientUnits="userSpaceOnUse"
       gradientTransform="matrix(0,-17.343138,17.343138,0,459.06457,533.09243)"
       spreadMethod="pad"
       id="linearGradient1178">
      <stop
         style="stop-opacity:1;stop-color:#868685"
         offset="0"
         id="stop1180" />
      <stop
         style="stop-opacity:1;stop-color:#d8d9d9"
         offset="0.020448"
         id="stop1182" />
      <stop
         style="stop-opacity:1;stop-color:#f5f5f5"
         offset="0.0524045"
         id="stop1184" />
      <stop
         style="stop-opacity:1;stop-color:#edeeee"
         offset="0.487663"
         id="stop1186" />
      <stop
         style="stop-opacity:1;stop-color:#f5f5f5"
         offset="0.895488"
         id="stop1188" />
      <stop
         style="stop-opacity:1;stop-color:#ebebec"
         offset="0.929442"
         id="stop1190" />
      <stop
         style="stop-opacity:1;stop-color:#d8d9d9"
         offset="0.964262"
         id="stop1192" />
      <stop
         style="stop-opacity:1;stop-color:#868685"
         offset="1"
         id="stop1194" />
    </linearGradient>
  </defs>
  <sodipodi:namedview
     id="base"
     pagecolor="#ffffff"
     bordercolor="#666666"
     borderopacity="1.0"
     inkscape:pageopacity="0.0"
     inkscape:pageshadow="2"
     inkscape:zoom="0.35"
     inkscape:cx="1080.7135"
     inkscape:cy="208.86796"
     inkscape:document-units="px"
     inkscape:current-layer="layer1"
     showgrid="false"
     fit-margin-top="0"
     fit-margin-left="0"
     fit-margin-right="0"
     fit-margin-bottom="0"
     inkscape:window-width="1920"
     inkscape:window-height="1017"
     inkscape:window-x="-8"
     inkscape:window-y="-8"
     inkscape:window-maximized="1"
     units="px" />
  <metadata
     id="metadata8524">
    <rdf:RDF>
      <cc:Work
         rdf:about="">
        <dc:format>image/svg+xml</dc:format>
        <dc:type
           rdf:resource="http://purl.org/dc/dcmitype/StillImage" />
        <dc:title></dc:title>
      </cc:Work>
    </rdf:RDF>
  </metadata>
  <g
     inkscape:label="Layer 1"
     inkscape:groupmode="layer"
     id="layer1"
     transform="translate(-192.08646,474.87828)">
    <g
       id="g4201"
       transform="matrix(19.98952,0,0,19.98952,-3647.627,-5121.6388)">
      <g
         id="g1166"
         transform="matrix(1.25,0,0,-1.25,-322.40243,899.31046)">
        <g
           id="g1168">
          <g
             id="g1174">
            <g
               id="g1176">
              <path
                 inkscape:connector-curvature="0"
                 id="path1196"
                 style="fill:url(#linearGradient1178);stroke:none"
                 d="m 414.085,532.944 c -1.345,0 -1.823,-0.794 -1.823,-2.114 l 0,0 0,-12.829 c 0,-1.32 0.478,-2.114 1.823,-2.114 l 0,0 89.96,0 c 1.345,0 1.822,0.794 1.822,2.114 l 0,0 0,12.829 c 0,1.32 -0.477,2.114 -1.822,2.114 l 0,0 -89.96,0 z" />
            </g>
          </g>
        </g>
      </g>
      <g
         id="g1198"
         transform="matrix(1.25,0,0,-1.25,-322.40243,899.31046)">
        <g
           clip-path="url(#clipPath1202)"
           id="g1200">
          <g
             transform="translate(503.9336,515.3505)"
             id="g1206">
            <path
               inkscape:connector-curvature="0"
               id="path1208"
               style="fill:#a1a2a2;fill-opacity:1;fill-rule:nonzero;stroke:none"
               d="m 0,0 c 1.996,0 2.605,1.241 2.605,2.482 l 0,13.166 C 2.605,16.889 1.996,18.13 0,18.13 l -89.738,0 c -1.997,0 -2.605,-1.241 -2.605,-2.482 l 0,-13.166 C -92.343,1.241 -91.735,0 -89.738,0 L 0,0 Z m -89.646,0.167 c -1.344,0 -2.254,0.793 -2.254,2.114 l 0,13.568 c 0,1.321 0.91,2.114 2.254,2.114 l 89.554,0 c 1.344,0 2.254,-0.793 2.254,-2.114 l 0,-13.568 c 0,-1.321 -0.91,-2.114 -2.254,-2.114 l -89.554,0 z" />
          </g>
          <g
             id="g1210">
            <g
               id="g1212" />
            <g
               id="g1218">
              <g
                 style="opacity:0.80000299"
                 id="g1220"
                 clip-path="url(#clipPath1214)">
                <g
                   id="g1222" />
              </g>
            </g>
          </g>
        </g>
      </g>
      <g
         id="g1224"
         transform="matrix(1.25,0,0,-1.25,-322.40243,899.31046)">
        <g
           id="g1226">
          <g
             id="g1232">
            <g
               id="g1234">
              <path
                 inkscape:connector-curvature="0"
                 id="path1246"
                 style="fill:url(#linearGradient1236);stroke:none"
                 d="m 443.657,532.944 0,-17.057 60.388,0 c 1.345,0 1.822,0.794 1.822,2.114 l 0,0 0,12.829 c 0,1.32 -0.477,2.114 -1.822,2.114 l 0,0 -60.388,0 z" />
            </g>
          </g>
        </g>
      </g>
      <g
         id="g1248"
         transform="matrix(1.25,0,0,-1.25,-322.40243,899.31046)">
        <g
           clip-path="url(#clipPath1252)"
           id="g1250">
          <g
             transform="translate(452.075,519.0374)"
             id="g1256">
            <path
               inkscape:connector-curvature="0"
               id="path1258"
               style="fill:#ffffff;fill-opacity:1;fill-rule:nonzero;stroke:none"
               d="m 0,0 c -0.756,0 -1.454,0.136 -2.093,0.408 -0.639,0.273 -1.192,0.649 -1.661,1.129 -0.469,0.481 -0.836,1.052 -1.102,1.714 -0.266,0.662 -0.4,1.377 -0.4,2.146 0,0.747 0.134,1.446 0.4,2.098 0.266,0.651 0.633,1.217 1.102,1.697 0.469,0.481 1.022,0.857 1.661,1.129 0.639,0.273 1.337,0.409 2.093,0.409 0.543,0 1.07,-0.059 1.581,-0.176 C 2.093,10.436 2.566,10.286 3.003,10.105 3.099,8.685 2.753,7.975 1.965,7.975 1.826,7.975 1.699,7.991 1.581,8.023 1.464,8.055 1.336,8.087 1.198,8.119 1.059,8.151 0.905,8.183 0.735,8.215 0.564,8.247 0.362,8.264 0.128,8.264 -0.245,8.264 -0.596,8.197 -0.927,8.063 -1.257,7.93 -1.541,7.737 -1.781,7.487 -2.021,7.236 -2.21,6.934 -2.348,6.582 -2.487,6.23 -2.556,5.834 -2.556,5.397 c 0,-0.46 0.069,-0.871 0.208,-1.233 0.138,-0.363 0.327,-0.67 0.567,-0.921 0.24,-0.251 0.524,-0.443 0.854,-0.577 0.331,-0.133 0.682,-0.2 1.055,-0.2 0.234,0 0.442,0.016 0.623,0.048 0.181,0.032 0.343,0.064 0.487,0.096 0.144,0.032 0.28,0.064 0.407,0.096 0.128,0.032 0.261,0.048 0.4,0.048 0.777,0 1.123,-0.71 1.038,-2.13 C 2.646,0.443 2.159,0.293 1.621,0.176 1.083,0.059 0.543,0 0,0" />
          </g>
          <g
             transform="translate(457.5874,519.1654)"
             id="g1260">
            <path
               inkscape:connector-curvature="0"
               id="path1262"
               style="fill:#ffffff;fill-opacity:1;fill-rule:nonzero;stroke:none"
               d="m 0,0 c -0.224,0 -0.445,0.011 -0.663,0.032 -0.218,0.021 -0.402,0.048 -0.551,0.08 l 0,9.273 c 0,0.309 0.096,0.573 0.287,0.792 0.192,0.219 0.554,0.329 1.087,0.329 0.223,0 0.444,-0.011 0.663,-0.033 0.218,-0.021 0.402,-0.048 0.551,-0.08 l 0,-9.272 C 1.374,0.811 1.278,0.547 1.086,0.328 0.895,0.109 0.532,0 0,0" />
          </g>
          <g
             transform="translate(461.9564,519.1654)"
             id="g1264">
            <path
               inkscape:connector-curvature="0"
               id="path1266"
               style="fill:#ffffff;fill-opacity:1;fill-rule:nonzero;stroke:none"
               d="m 0,0 c -0.213,0 -0.421,0.011 -0.623,0.032 -0.203,0.021 -0.373,0.048 -0.511,0.08 l 0,10.201 c 0.159,0.054 0.367,0.099 0.623,0.137 0.255,0.037 0.473,0.056 0.655,0.056 0.585,0 1.011,-0.075 1.278,-0.225 0.266,-0.149 0.489,-0.368 0.671,-0.656 l 3.626,-5.717 0,5.573 c 0,0.138 0.018,0.269 0.056,0.392 0.037,0.123 0.101,0.232 0.191,0.328 0.091,0.096 0.216,0.171 0.376,0.224 0.159,0.054 0.362,0.081 0.607,0.081 0.213,0 0.418,-0.011 0.615,-0.033 0.197,-0.021 0.364,-0.042 0.503,-0.063 l 0,-10.218 C 7.918,0.117 7.737,0.067 7.524,0.04 7.311,0.013 7.103,0 6.901,0 6.4,0 6.027,0.069 5.783,0.208 5.537,0.347 5.335,0.539 5.176,0.785 l -3.882,6.214 0,-5.942 C 1.294,0.758 1.203,0.507 1.022,0.304 0.841,0.101 0.5,0 0,0" />
          </g>
          <g
             transform="translate(473.3041,519.2296)"
             id="g1268">
            <path
               inkscape:connector-curvature="0"
               id="path1270"
               style="fill:#ffffff;fill-opacity:1;fill-rule:nonzero;stroke:none"
               d="m 0,0 c -0.298,0 -0.541,0.032 -0.727,0.096 -0.186,0.064 -0.33,0.152 -0.431,0.264 -0.102,0.112 -0.171,0.248 -0.208,0.409 -0.037,0.16 -0.056,0.33 -0.056,0.512 l 0,7.847 c 0,0.182 0.019,0.353 0.056,0.513 0.037,0.16 0.106,0.296 0.208,0.408 0.101,0.112 0.245,0.2 0.431,0.264 0.186,0.064 0.429,0.096 0.727,0.096 l 5.287,0 C 5.309,10.292 5.33,10.132 5.351,9.929 5.373,9.726 5.383,9.518 5.383,9.305 5.383,8.856 5.293,8.538 5.112,8.352 4.93,8.165 4.702,8.071 4.425,8.071 l -3.259,0 0,-1.825 3.754,0 C 4.941,6.139 4.963,5.997 4.984,5.821 5.005,5.645 5.016,5.455 5.016,5.253 5.016,4.826 4.93,4.535 4.76,4.38 4.59,4.225 4.377,4.148 4.121,4.148 l -2.955,0 0,-1.81 4.281,0 C 5.468,2.22 5.49,2.058 5.511,1.85 5.532,1.641 5.543,1.436 5.543,1.233 5.543,0.774 5.452,0.454 5.271,0.272 5.09,0.091 4.861,0 4.585,0 L 0,0 Z" />
          </g>
          <g
             transform="translate(480.983,519.1654)"
             id="g1272">
            <path
               inkscape:connector-curvature="0"
               id="path1274"
               style="fill:#ffffff;fill-opacity:1;fill-rule:nonzero;stroke:none"
               d="M 0,0 C -0.245,0 -0.461,0.024 -0.647,0.072 -0.834,0.12 -0.996,0.176 -1.134,0.24 l 0.976,9.977 c 0.203,0.086 0.469,0.155 0.799,0.208 0.33,0.054 0.612,0.081 0.846,0.081 0.33,0 0.615,-0.022 0.854,-0.065 0.24,-0.042 0.445,-0.114 0.615,-0.216 C 3.126,10.124 3.262,9.982 3.363,9.801 3.464,9.619 3.541,9.395 3.595,9.128 L 4.01,7.191 C 4.127,6.657 4.252,6.067 4.385,5.421 4.518,4.775 4.638,4.11 4.744,3.427 l 0.064,0 C 4.925,4.11 5.047,4.772 5.175,5.413 5.303,6.054 5.436,6.641 5.574,7.174 l 0.51,2.034 c 0.128,0.502 0.332,0.844 0.614,1.025 0.282,0.182 0.721,0.273 1.316,0.273 0.298,0 0.598,-0.025 0.901,-0.073 0.303,-0.048 0.556,-0.098 0.758,-0.152 L 10.607,0.24 C 10.458,0.187 10.279,0.133 10.072,0.08 9.864,0.027 9.638,0 9.393,0 9.052,0 8.764,0.059 8.53,0.176 8.296,0.294 8.168,0.513 8.147,0.833 L 7.907,4.292 C 7.854,4.901 7.809,5.538 7.771,6.206 7.734,6.873 7.71,7.505 7.699,8.104 l -0.032,0 C 7.529,7.548 7.388,6.948 7.244,6.302 7.1,5.656 6.954,5.061 6.805,4.516 L 6.15,1.794 C 5.99,1.153 5.484,0.833 4.632,0.833 4.419,0.833 4.201,0.854 3.977,0.897 3.754,0.939 3.562,0.987 3.402,1.041 L 2.588,4.436 C 2.428,5.066 2.279,5.685 2.141,6.294 2.002,6.902 1.874,7.511 1.757,8.119 l -0.048,0 C 1.677,7.265 1.635,6.483 1.581,5.773 1.528,5.063 1.48,4.452 1.438,3.94 L 1.182,0.817 C 1.161,0.507 1.044,0.294 0.831,0.176 0.617,0.059 0.341,0 0,0" />
          </g>
          <g
             transform="translate(496.0557,523.5375)"
             id="g1276">
            <path
               inkscape:connector-curvature="0"
               id="path1278"
               style="fill:#ffffff;fill-opacity:1;fill-rule:nonzero;stroke:none"
               d="M 0,0 2.39,0 1.198,3.923 0,0 Z m -2.492,-4.404 c -0.202,0 -0.434,0.019 -0.694,0.056 -0.262,0.037 -0.477,0.088 -0.647,0.152 L -0.519,5.957 C -0.231,6.032 0.06,6.086 0.354,6.118 0.648,6.15 0.917,6.166 1.163,6.166 1.515,6.166 1.817,6.139 2.068,6.086 2.319,6.032 2.53,5.952 2.701,5.845 2.872,5.738 3.013,5.597 3.125,5.421 3.237,5.245 3.331,5.039 3.406,4.804 L 6.246,-4.18 C 6.065,-4.255 5.847,-4.311 5.591,-4.348 5.336,-4.385 5.085,-4.404 4.841,-4.404 c -0.278,0 -0.546,0.045 -0.807,0.136 -0.261,0.091 -0.45,0.296 -0.567,0.617 l -0.544,1.649 -3.484,0 -0.461,-1.553 C -1.139,-3.929 -1.336,-4.164 -1.613,-4.26 -1.89,-4.356 -2.183,-4.404 -2.492,-4.404" />
          </g>
          <g
             transform="translate(423.1164,522.7819)"
             id="g1280">
            <path
               inkscape:connector-curvature="0"
               id="path1282"
               style="fill:#ae2c3f;fill-opacity:1;fill-rule:nonzero;stroke:none"
               d="m 0,0 c 0,-1.46 -0.955,-2.527 -2.894,-2.738 -1.404,-0.15 -3.438,0.027 -4.404,0.138 -0.036,0.158 -0.064,0.354 -0.064,0.508 0,1.278 0.691,1.569 1.338,1.569 0.672,0 1.73,-0.116 2.518,-0.116 0.865,0 1.129,0.294 1.129,0.573 0,0.367 -0.349,0.52 -1.021,0.648 l -1.839,0.354 c -1.531,0.293 -2.348,1.352 -2.348,2.476 0,1.366 0.967,2.509 2.868,2.72 1.438,0.155 3.187,-0.02 4.148,-0.138 0.035,-0.165 0.053,-0.321 0.053,-0.492 0,-1.274 -0.671,-1.549 -1.319,-1.549 -0.497,0 -1.269,0.093 -2.15,0.093 -0.897,0 -1.269,-0.248 -1.269,-0.55 0,-0.319 0.355,-0.451 0.916,-0.549 L -2.58,2.621 C -0.774,2.288 0,1.262 0,0 m 3.155,-1.568 c 0,-0.783 -0.307,-1.235 -1.836,-1.235 -0.203,0 -0.38,0.015 -0.55,0.04 l 0,10.39 c 0,0.789 0.269,1.612 1.813,1.612 0.194,0 0.391,-0.02 0.573,-0.058 l 0,-10.749 z m 6.25,-4.019 c 0.2,-0.103 0.612,-0.227 1.131,-0.241 0.886,-0.019 1.371,0.321 1.73,1.116 L 17.03,5.914 C 16.833,6.02 16.399,6.137 16.042,6.145 15.43,6.156 14.608,6.031 14.082,4.778 L 12.539,1.137 9.514,6.064 C 9.319,6.124 8.843,6.21 8.493,6.21 7.426,6.21 6.828,5.816 6.209,5.144 L 3.268,1.927 5.634,-1.796 c 0.437,-0.678 1.013,-1.024 1.949,-1.024 0.612,0 1.121,0.139 1.357,0.252 L 6.092,1.727 8.111,3.866 11.422,-1.331 9.405,-5.587 Z" />
          </g>
          <g
             id="g1284">
            <g
               id="g1286" />
            <g
               id="g1296">
              <g
                 style="opacity:0.39999402"
                 id="g1298"
                 clip-path="url(#clipPath1288)">
                <g
                   id="g1300">
                  <g
                     id="g1302">
                    <g
                       id="g1304"
                       clip-path="url(#clipPath1292)">
                      <g
                         id="g1306"
                         transform="translate(504.1664,519.8869)">
                        <path
                           inkscape:connector-curvature="0"
                           id="path1308"
                           style="fill:#ffffff;fill-opacity:1;fill-rule:nonzero;stroke:none"
                           d="m 0,0 c 1.156,-1.145 1.313,-2.225 1.354,-2.463 0.114,0 0.156,0.506 0.156,1.261 L 1.506,10.907 c 0,1.402 -0.456,1.876 -1.644,1.876 -0.402,0 -0.804,-0.216 -1.339,-0.216 l -87.31,0 c -0.536,0 -0.938,0.216 -1.34,0.216 -1.187,0 -1.643,-0.474 -1.643,-1.876 l -0.004,-12.109 c 0,-0.755 0.041,-1.261 0.155,-1.261 0.041,0.238 0.076,1.402 1.354,2.463 C -80.057,7.878 -11.006,10.296 0,0" />
                      </g>
                    </g>
                  </g>
                </g>
              </g>
            </g>
          </g>
        </g>
      </g>
    </g>
    <g
       id="#000000ff"
       transform="matrix(1.019704,0,0,1.019704,614.28461,-83.146473)">
      <path
         d="m 681.24,168.32 c 23.04,-3.56 46.65,0.52 68.51,8.04 0.1,6.06 0.15,12.75 -3.54,17.9 -3.24,4.12 -9.11,4.04 -13.79,3.17 -14.29,-2.95 -28.9,-5.89 -43.55,-4.29 -6.28,0.77 -12.79,2.79 -17.31,7.42 -6.09,6.28 -5.77,18.11 1.64,23.23 4.41,3.02 9.51,4.84 14.57,6.45 11.12,3.34 22.38,6.25 33.49,9.63 11.67,3.88 23.32,10.11 30.2,20.68 7.29,11.08 7.54,25.39 4.16,37.85 -2.79,10.48 -10.29,19.34 -19.73,24.51 -13.59,7.65 -29.64,9.22 -44.96,8.71 -17.34,-0.71 -34.45,-4.39 -50.89,-9.81 -0.14,-4.81 -0.26,-9.8 1.6,-14.35 1.22,-3.68 4.35,-6.91 8.31,-7.42 5.13,-0.79 10.21,0.82 15.19,1.85 13.93,3.28 28.39,5.67 42.7,3.66 5.68,-0.85 11.59,-2.71 15.59,-7.06 5.27,-5.17 7.01,-13.5 4.46,-20.39 -1.92,-5.12 -6.73,-8.37 -11.59,-10.38 -17.8,-7.24 -37.64,-8.9 -54.51,-18.53 -7.76,-4.32 -14.14,-11.11 -17.7,-19.28 -5.4,-11.93 -4.67,-26.22 0.83,-37.98 6.92,-13.59 21.84,-21.07 36.32,-23.61 z"
         id="path5"
         inkscape:connector-curvature="0"
         style="opacity:1;fill:#000000" />
      <path
         d="m 1248.44,178.44 c 15.59,-11.44 36,-12.58 54.59,-10.77 13.22,1.25 26.21,4.37 38.74,8.75 -0.12,6.18 0.11,13.19 -4.04,18.25 -3.25,3.79 -8.77,3.54 -13.24,2.79 -14,-2.88 -28.27,-5.77 -42.63,-4.43 -6.61,0.71 -13.59,2.54 -18.31,7.5 -6.46,6.41 -5.75,18.82 2.21,23.73 8.3,5.16 18.07,7.05 27.32,9.83 10.06,3.07 20.49,5.17 30.01,9.77 7.78,3.66 14.96,8.97 19.89,16.09 4.81,7.01 6.81,15.62 6.56,24.04 0,11.72 -3.85,23.91 -12.52,32.12 -10.26,9.71 -24.48,13.96 -38.28,15.12 -22.6,1.97 -45.28,-2.43 -66.7,-9.38 -0.6,-6.2 -0.14,-13 3.59,-18.23 3.29,-4.25 9.32,-4.24 14.13,-3.29 11.64,2.44 23.25,5.52 35.22,5.86 8.32,0.23 17.05,0.05 24.74,-3.55 7.92,-3.78 12.72,-13.08 10.88,-21.73 -0.99,-6.13 -6.16,-10.53 -11.6,-12.86 -15.77,-6.49 -32.96,-8.69 -48.63,-15.46 -8.09,-3.58 -15.9,-8.66 -20.79,-16.21 -12.21,-17.66 -9.1,-45.25 8.86,-57.94 z"
         id="path7"
         inkscape:connector-curvature="0"
         style="opacity:1;fill:#000000" />
      <path
         d="m 164.06,200.03 c 11.44,-16.67 29.91,-28.28 49.86,-31.48 20.07,-2.99 40.75,0.62 59.46,8.15 0.8,6.86 0.94,15.11 -4.59,20.16 -3.68,3.68 -9.46,3.04 -13.95,1.4 -8.61,-3.09 -17.66,-5.34 -26.87,-5.04 -14.93,-0.16 -29.61,7.28 -38.4,19.32 -10.02,13.54 -12.81,31.25 -10.66,47.68 1.83,15.08 9.37,30.1 22.48,38.37 15.43,9.76 35.41,9.16 51.98,2.66 5.35,-2.34 12.24,-2.56 16.73,1.67 5.26,5.03 4.74,13.05 4.04,19.69 -18,7.6 -37.91,10.52 -57.33,8.5 -19.23,-2.22 -37.62,-11.98 -49.78,-27.11 -12.21,-15.1 -18.45,-34.69 -18.05,-54.04 -0.37,-17.67 4.95,-35.44 15.08,-49.93 z"
         id="path9"
         inkscape:connector-curvature="0"
         style="opacity:1;fill:#000000" />
      <path
         d="m 300.7,168.84 c 6.46,-1.24 13.14,-0.45 19.58,0.63 -0.06,22.51 -0.01,45.01 -0.03,67.52 24.91,0.02 49.83,0.01 74.75,0.01 0.03,-19.04 -0.06,-38.07 0.04,-57.1 -0.08,-4.83 2.95,-9.98 7.93,-10.97 6.68,-1.43 13.59,-0.46 20.28,0.5 0.01,49.85 -0.01,99.69 0.01,149.54 0.22,4.69 -2.42,9.85 -7.21,11.08 -6.86,1.88 -14.1,0.64 -21.02,-0.25 -0.07,-22.93 -0.01,-45.87 -0.03,-68.8 -24.92,0 -49.84,-0.01 -74.75,0.01 0.01,19.34 -0.01,38.69 0.01,58.03 0.24,4.68 -2.41,9.83 -7.2,11.05 -6.71,1.8 -13.76,0.61 -20.52,-0.24 -0.09,-50.28 -0.02,-100.57 -0.04,-150.85 -0.1,-4.78 3.42,-9.37 8.2,-10.16 z"
         id="path11"
         inkscape:connector-curvature="0"
         style="opacity:1;fill:#000000" />
      <path
         d="m 596.2,169.22 c 6.77,-1.92 13.93,-0.75 20.77,0.17 0.06,50.25 0.02,100.49 0.03,150.74 0.08,4.52 -3.01,9.08 -7.53,10.08 -6.64,1.54 -13.53,0.55 -20.18,-0.39 -0.11,-49.95 0,-99.89 -0.05,-149.84 -0.16,-4.52 2.37,-9.48 6.96,-10.76 z"
         id="path13"
         inkscape:connector-curvature="0"
         style="opacity:1;fill:#000000" />
      <path
         d="m 909.45,171.41 c 10.1,-3.39 21.3,-4.37 31.64,-1.52 5.59,1.49 9.8,6.21 11.21,11.74 9.2,36.13 18.27,72.29 27.44,108.42 9.41,-35.85 18.43,-71.8 27.78,-107.67 1.53,-5.95 6.19,-10.96 12.16,-12.58 9.96,-2.83 20.59,-1.47 30.51,0.89 5.24,52.44 10.32,104.89 15.53,157.33 -6.95,2.67 -14.95,3.98 -22.06,1.2 -3.42,-1.27 -5.07,-4.9 -5.18,-8.34 -3.42,-41.9 -6.96,-83.79 -10.36,-125.7 -9.32,34.45 -18.51,68.92 -27.77,103.38 -1.43,4.72 -2.05,9.86 -4.87,14.03 -2.52,3.79 -7.18,5.3 -11.47,5.94 -6.6,0.62 -13.36,0.26 -19.75,-1.58 -11.17,-40.55 -22.47,-81.06 -33.76,-121.58 -3.65,38.89 -7.05,77.81 -10.59,116.71 -0.5,4.16 -0.39,8.44 -1.54,12.5 -0.76,2.55 -3.06,4.23 -5.49,5.02 -6.48,2.23 -13.65,1.04 -19.82,-1.6 5.5,-52.19 10.92,-104.4 16.39,-156.59 z"
         id="path15"
         inkscape:connector-curvature="0"
         style="opacity:1;fill:#000000" />
      <path
         d="m 1130.93,170.04 c 5.49,-1.72 11.31,-2.11 17.03,-2.31 5.54,0.01 11.43,0.2 16.37,3.03 4.75,2.81 6.99,8.17 8.7,13.16 16.42,47.95 32.85,95.9 49.28,143.85 -7.76,3.17 -16.63,4.51 -24.67,1.59 -3.12,-1.19 -4.74,-4.36 -5.76,-7.33 -3.87,-11.6 -7.83,-23.17 -11.68,-34.78 -20.92,0.01 -41.84,-0.01 -62.75,0.01 -3.86,11.57 -7.71,23.13 -11.56,34.7 -1.1,3.43 -3.23,7.02 -6.99,7.9 -7.53,2.09 -15.83,1.22 -22.99,-1.79 15.35,-44.08 30.59,-88.2 45.91,-132.29 3.1,-8.56 5.71,-17.31 9.11,-25.74 m -5.47,93.2 c 15.69,0.01 31.39,0.01 47.08,0 -7.84,-23.65 -15.69,-47.3 -23.39,-71 -7.94,23.65 -15.79,47.33 -23.69,71 z"
         id="path17"
         inkscape:connector-curvature="0"
         style="opacity:1;fill:#000000" />
      <path
         d="m 457.2,171.2 c 3.09,-2.28 7.13,-2.38 10.81,-2.46 14.62,0.05 29.25,-0.06 43.88,0.05 14.8,0.47 30.51,4.28 41.33,15.01 9.53,8.93 13.69,22.35 13.32,35.18 0.21,14.68 -6.55,29.51 -18.42,38.32 -7.35,5.65 -16.34,8.79 -25.47,9.99 16.54,19.76 33.18,39.44 49.76,59.17 -7.99,4.32 -17.57,5.61 -26.42,3.61 -5.81,-1.28 -10.17,-5.75 -13.7,-10.26 -13.36,-17.09 -26.66,-34.22 -40.01,-51.31 -3.59,0 -7.18,0 -10.77,0 -0.02,16.52 0,33.04 -0.01,49.55 0.25,4.71 -1.82,10.11 -6.58,11.78 -6.93,2.18 -14.35,0.91 -21.39,-0.01 -0.08,-49.28 0,-98.57 -0.04,-147.85 -0.01,-3.82 0.73,-8.1 3.71,-10.77 m 24.3,23.06 c 0.01,16.75 -0.01,33.49 0.01,50.23 8.15,0.01 16.31,0.01 24.46,0.01 6.47,-0.13 13.08,-0.89 19.07,-3.48 7.06,-3.01 12.15,-9.95 13.22,-17.51 1.24,-7.62 -0.1,-16.32 -5.78,-21.94 -5.29,-5.44 -13.22,-6.89 -20.48,-7.29 -10.17,-0.08 -20.34,-0.02 -30.5,-0.02 z"
         id="path19"
         inkscape:connector-curvature="0"
         style="opacity:1;fill:#000000" />
      <path
         d="m 763.73,174.72 c 1.2,-4.34 6.15,-5.96 10.21,-5.97 38.7,-0.01 77.4,0.01 116.1,0 0.92,6.29 1.83,12.98 -0.28,19.13 -1.35,4.07 -5.62,6.43 -9.76,6.32 -13,0.12 -26,0.01 -38.99,0.05 -0.03,41.95 0.01,83.91 -0.02,125.86 0.08,4.54 -3,9.04 -7.51,10.09 -6.65,1.58 -13.55,0.52 -20.22,-0.36 -0.04,-45.2 0.01,-90.39 -0.02,-135.58 -16.49,-0.01 -32.99,-0.01 -49.48,-0.01 -0.83,-6.44 -1.8,-13.17 -0.03,-19.53 z"
         id="path21"
         inkscape:connector-curvature="0"
         style="opacity:1;fill:#000000" />
    </g>
  </g>
</svg>
