<?xml version="1.0" encoding="UTF-8" standalone="no"?>
<svg
   xmlns:dc="http://purl.org/dc/elements/1.1/"
   xmlns:cc="http://creativecommons.org/ns#"
   xmlns:rdf="http://www.w3.org/1999/02/22-rdf-syntax-ns#"
   xmlns:svg="http://www.w3.org/2000/svg"
   xmlns="http://www.w3.org/2000/svg"
   xmlns:sodipodi="http://sodipodi.sourceforge.net/DTD/sodipodi-0.dtd"
   xmlns:inkscape="http://www.inkscape.org/namespaces/inkscape"
   width="338.8363pt"
   height="123.81238pt"
   viewBox="0 0 338.8363 123.81238"
   version="1.1"
   id="svg2"
   inkscape:version="0.91 r13725"
   sodipodi:docname="SmileTV3.svg">
  <metadata
     id="metadata32">
    <rdf:RDF>
      <cc:Work
         rdf:about="">
        <dc:format>image/svg+xml</dc:format>
        <dc:type
           rdf:resource="http://purl.org/dc/dcmitype/StillImage" />
        <dc:title></dc:title>
      </cc:Work>
    </rdf:RDF>
  </metadata>
  <defs
     id="defs30" />
  <sodipodi:namedview
     pagecolor="#ffffff"
     bordercolor="#666666"
     borderopacity="1"
     objecttolerance="10"
     gridtolerance="10"
     guidetolerance="10"
     inkscape:pageopacity="0"
     inkscape:pageshadow="2"
     inkscape:window-width="1920"
     inkscape:window-height="1017"
     id="namedview28"
     showgrid="false"
     fit-margin-top="0"
     fit-margin-left="0"
     fit-margin-right="0"
     fit-margin-bottom="0"
     inkscape:zoom="2.4510638"
     inkscape:cx="183.80384"
     inkscape:cy="108.269"
     inkscape:window-x="-8"
     inkscape:window-y="-8"
     inkscape:window-maximized="1"
     inkscape:current-layer="svg2" />
  <g
     id="#030203ff"
     transform="translate(-18.4,-17.195121)" />
  <path
     sodipodi:nodetypes="ccccc"
     style="opacity:1;fill:#bc1e7c"
     inkscape:connector-curvature="0"
     id="path6"
     d="m 252.6,0.0148786 c 28.73,0.02 57.46,-0.05 86.18,0.01 0.08,41.2600004 0.07,82.5200004 0,123.7800014 -28.72,0.01 -57.45,0.01 -86.18,0 -0.01,-41.260001 -0.02,-82.530001 0,-123.7900014" />
  <path
     style="opacity:1;fill:#bc1e7c"
     inkscape:connector-curvature="0"
     id="path8"
     d="m 181.85,20.504879 c 3.47,-0.93 6.97,-1.75 10.47,-2.57 0.04,4.21 0.04,8.41 0.08,12.62 3.28,-0.26 6.58,-0.3 9.87,-0.31 0.18,1.99 0.31,4 0.45,6 -3.46,0 -6.91,0 -10.37,0.08 -0.07,7.52 0.13,15.04 0.31,22.56 0.08,2.31 0.61,4.78 2.31,6.47 2.5,1.66 5.4,0.38 7.92,-0.47 0.62,1.87 1.24,3.74 1.86,5.61 -5.46,2.38 -12.26,4.02 -17.71,0.82 -4.65,-2.75 -4.87,-8.74 -4.94,-13.53 0.14,-7.17 -0.36,-14.33 -0.28,-21.5 -1.74,0.13 -3.48,0.25 -5.21,0.35 -0.11,-2 -0.21,-3.99 -0.3,-5.98 1.83,-0.06 3.66,-0.1 5.5,-0.16 0.03,-3.33 0.03,-6.66 0.04,-9.99 z" />
  <path
     style="opacity:1;fill:#bc1e7c"
     inkscape:connector-curvature="0"
     id="path10"
     d="m 205.01,31.584879 c 3.43,-0.76 6.88,-1.47 10.36,-2.04 3.43,9.47 6.76,18.97 10.12,28.46 3.58,-9.54 6.88,-19.18 10.42,-28.74 2.87,0.53 5.73,1.11 8.58,1.73 -5.48,13.59 -10.97,27.18 -16.39,40.79 -2.44,0.02 -4.88,0.03 -7.31,0.04 -5.27,-13.41 -10.65,-26.78 -15.78,-40.24 z" />
  <path
     style="opacity:1;fill:#bcde04"
     inkscape:connector-curvature="0"
     id="path13"
     d="m 123.33,7.3648786 c 3.34,-0.83 6.7,-1.58 10.07,-2.29 -0.1,35.4200004 0.02,70.8300004 -0.07,106.2500014 -3.33,-0.01 -6.66,0 -9.98,-0.01 -0.02,-34.650001 0.01,-69.300001 -0.02,-103.9500014 z" />
  <path
     style="opacity:1;fill:#bcde04"
     inkscape:connector-curvature="0"
     id="path15"
     d="m 105.34,7.8048786 c 3.35,-0.03 6.7,-0.03 10.05,0 -0.06,5.8300004 -0.04,11.6700004 -0.04,17.5100004 -3.34,0.01 -6.67,0.01 -10.01,0 0,-5.84 0,-11.67 0,-17.5100004 z" />
  <path
     style="opacity:1;fill:#bcde04"
     inkscape:connector-curvature="0"
     id="path17"
     d="m 2.54,49.784879 c 0.53,-4.67 3.54,-9.24 8.2,-10.62 4.8,-1.38 10.17,-1.27 14.84,0.56 5.51,2.85 5.29,9.93 6.35,15.19 -2.64,0.62 -5.28,1.25 -7.91,1.92 -0.61,-2.41 -0.57,-5.26 -2.3,-7.21 -3.19,-2.31 -9.19,-1.18 -9.94,3.16 -0.88,4.36 -0.3,9.55 2.99,12.82 4.44,4.32 10.79,6.48 14.33,11.77 4.21,6.27 3.94,14.33 2.92,21.5 -0.8,5.840001 -4.32,12.010001 -10.46,13.390001 -5.67,1.16 -12.7,1.12 -16.8,-3.63 -4.35,-4.96 -4.25,-11.990001 -4.76,-18.180001 2.92,-0.57 5.84,-1.12 8.76,-1.67 0.26,4.13 0.24,8.62 2.67,12.180001 2.29,3.05 7.07,2.53 9.84,0.45 2.62,-2.850001 2.43,-7.080001 2.32,-10.700001 -0.03,-3.33 -1.52,-6.55 -4,-8.77 -4.23,-3.86 -10,-5.91 -13.43,-10.68 -4.53,-6.1 -4.62,-14.25 -3.62,-21.48 z" />
  <path
     style="opacity:1;fill:#bcde04"
     inkscape:connector-curvature="0"
     id="path19"
     d="m 55.01,40.134879 c 3.43,-2.42 8.19,-2.38 11.86,-0.51 3.24,1.93 4.6,5.67 5.88,9.01 1.78,-3.28 3.46,-6.97 6.81,-8.95 4.39,-2.46 10.68,-1.77 13.89,2.31 3.2,3.79 3.81,8.98 3.92,13.76 -0.02,18.53 0.02,37.05 -0.04,55.580001 -3.33,-0.02 -6.66,-0.01 -9.99,-0.02 0.01,-17.510001 -0.02,-35.030001 0.02,-52.540001 -0.03,-2.75 -0.16,-5.7 -1.62,-8.12 -1.67,-2.53 -5.79,-2.85 -7.72,-0.42 -2.59,3.25 -4.55,7.35 -4.44,11.59 0.04,16.5 0.03,33 0.01,49.500001 -3.33,-0.01 -6.65,-0.01 -9.98,0 C 63.58,93.484879 63.6,75.634879 63.6,57.794879 c -0.08,-2.85 -0.18,-6.33 -2.73,-8.18 -2.26,-1.71 -5.67,-1.2 -7.3,1.12 -2.76,3.73 -4.78,8.32 -4.49,13.04 0.07,15.85 0.02,31.7 0.03,47.540001 -3.34,0.01 -6.68,0.01 -10.02,0 -0.01,-23.930001 -0.01,-47.850001 0,-71.780001 2.85,-0.02 5.7,-0.02 8.55,0 0.32,3.14 0.64,6.29 0.96,9.43 1.75,-3.17 3.4,-6.63 6.41,-8.83 z" />
  <path
     style="opacity:1;fill:#bcde04"
     inkscape:connector-curvature="0"
     id="path21"
     d="m 147.26,42.464879 c 4.43,-4.54 11.53,-4.84 17.36,-3.48 6.33,1.47 10.12,7.7 11.39,13.69 1.57,7.69 1,15.59 1.1,23.39 -9.1,0 -18.2,0 -27.29,0 0.38,7.5 -0.28,15.48 3.13,22.41 2.27,5.080001 10.54,5.700001 13.43,0.94 1.82,-3.36 2.18,-7.23 2.71,-10.93 2.74,0.43 5.47,0.9 8.19,1.48 -0.89,6.38 -1.64,13.400001 -6.13,18.410001 -4.14,4.41 -10.76,4.71 -16.37,3.89 -4.89,-0.74 -8.75,-4.53 -10.78,-8.87 -2.92,-6.090001 -3.25,-12.970001 -3.45,-19.600001 -0.46,-8.04 -0.11,-16.09 0.36,-24.12 0.56,-6.11 1.84,-12.71 6.35,-17.21 m 5.86,7.87 c -3.31,5.33 -2.6,11.93 -3.03,17.92 5.91,0.06 11.82,0.03 17.74,0.04 0.05,-4.49 0.11,-9.02 -0.8,-13.43 -0.62,-2.73 -1.96,-5.64 -4.68,-6.82 -3.12,-1.11 -7.34,-0.79 -9.23,2.29 z" />
  <path
     style="opacity:1;fill:#bcde04"
     inkscape:connector-curvature="0"
     id="path23"
     d="m 105.35,39.554879 c 3.31,-0.04 6.62,-0.04 9.93,-0.05 0.19,23.93 0.03,47.87 0.07,71.810001 -3.33,0.01 -6.67,0.01 -10.01,0 0,-23.920001 0,-47.840001 0.01,-71.760001 z" />
  <path
     style="opacity:1;fill:#fcfefc"
     inkscape:connector-curvature="0"
     id="path26"
     d="m 269.95,18.524879 c 9,-6.59 20.63,-9.3500004 31.65,-7.88 7.48,0.95 14.77,5.07 18.51,11.75 4.38,7.96 4.13,18.4 -0.91,26.01 -2.35,3.67 -5.83,6.4 -9.53,8.62 5.78,2.26 11.02,6.23 13.95,11.79 4.91,8.88 4.25,20.43 -1.05,29.01 -4.78,7.580001 -13.11,12.380001 -21.86,13.820001 -11.65,1.91 -24.27,-0.01 -34.16,-6.7 1.37,-3.81 2.73,-7.620001 3.91,-11.500001 1.43,-0.18 2.9,-0.33 4.16,0.56 8.15,4.25 18.21,6.390001 26.99,2.84 7.28,-2.93 10.79,-11.72 8.92,-19.09 -0.98,-4.85 -4.54,-8.93 -8.99,-10.98 -6.24,-3.03 -13.37,-2.79 -20.13,-2.7 -1.32,-3.61 -0.89,-7.55 -0.67,-11.29 0.62,-2.15 3.23,-1.29 4.86,-1.49 6.6,0.21 13.88,-0.95 18.7,-5.85 5.41,-5.46 4.4,-16.19 -2.68,-19.74 -6.1,-2.9 -13.36,-1.87 -19.35,0.8 -2.77,1.12 -5.14,3.49 -8.32,3.23 -1.4,-3.71 -2.72,-7.46 -4,-11.21 z" />
</svg>
