<svg height="73pt" viewBox="0 0 200.346 73" width="200.34599pt" xmlns="http://www.w3.org/2000/svg"><path d="m149.356 0h50.99v73h-50.99c-.01-24.33-.01-48.67 0-73" fill="#bf1f7f"/><path d="m172.45 25.87c4.04-4.39 9.37-7.74 15.35-8.6 7.23-1.11 15.78.33 20.36 6.59 5.37 7.47 2.62 17.86-2.73 24.57-5.98 8.18-13.25 15.28-19.99 22.81 8.69.04 17.38-.02 26.07.03-.01 3.08-.01 6.15-.01 9.23-14 .01-28 .01-42 0 0-2.1-.01-4.2-.02-6.3 7.29-7.98 14.84-15.74 21.66-24.14 3.29-4.48 6.85-9.35 7.15-15.11.32-4.01-2.21-8.35-6.35-9.1-5.66-.95-10.66 2.66-14.73 6.13-1.6-2.02-3.19-4.06-4.76-6.11z" fill="#fafafa" transform="translate(-17.654 -14)"/><path d="m107.63089 11.952497c2.05378-.550435 4.12531-1.035766 6.19685-1.521096.0237 2.491757.0237 4.977596.0473 7.469353 1.94132-.153885 3.89448-.17756 5.84172-.183479.10653 1.177814.18347 2.367468.26634 3.551201-2.04786 0-4.0898 0-6.13766.04735-.0414 4.450835.0769 8.90167.18348 13.352505.0473 1.367211.36104 2.829121 1.36721 3.829375 1.47967.982498 3.19608.224909 4.68758-.278177.36696 1.10679.73392 2.21358 1.10087 3.32037-3.23159 1.408642-7.25628 2.379303-10.48195.48533-2.75218-1.627632-2.88239-5.172912-2.92382-8.007951.0829-4.243682-.21307-8.481445-.16572-12.725127-1.02985.07694-2.0597.147967-3.08363.207154-.0651-1.183733-.12429-2.361549-.17755-3.539363 1.08311-.03551 2.16623-.05919 3.25526-.0947.0178-1.970915.0178-3.94183.0237-5.912745z" fill="#bc1e7c"/><path d="m121.33852 18.510376c2.0301-.449818 4.07204-.870043 6.13173-1.207407 2.0301 5.604977 4.00102 11.227707 5.98969 16.844518 2.11888-5.646405 4.07204-11.351996 6.16725-17.010241 1.69865.31369 3.39139.656972 5.07821 1.023929-3.24343 8.043466-6.49277 16.08693-9.70069 24.14223-1.44415.01184-2.88831.01776-4.32654.02367-3.11914-7.936927-6.30338-15.85018-9.33965-23.816704z" fill="#bc1e7c"/><g fill="#bcde04"><path d="m72.994875 4.1753742c1.976834-.491249 3.965505-.935149 5.960095-1.355374-.05919 20.9639078.01184 41.9218948-.04143 62.8857998-1.970915-.0059-3.94183 0-5.906826-.0059-.01184-20.508169.0059-41.016337-.01184-61.5245078z"/><path d="m62.3472 4.4357952c1.982752-.01776 3.965504-.01776 5.948257 0-.03551 3.450581-.02367 6.9070798-.02367 10.3635788-1.976834.0059-3.947748.0059-5.924582 0 0-3.456499 0-6.9070798 0-10.3635788z"/><path d="m1.50334 29.282346c.31369-2.764016 2.095207-5.468845 4.853304-6.28562 2.840959-.816776 6.019281-.751671 8.783297.331445 3.261183 1.686819 3.130973 5.877232 3.758351 8.990449-1.562527.366957-3.125054.739833-4.681663 1.136384-.361038-1.426398-.337363-3.113217-1.361292-4.267357-1.888054-1.367211-5.439252-.698402-5.883152 1.870298-.520842 2.580537-.177559 5.652324 1.769681 7.587726 2.627886 2.556863 6.386238 3.835294 8.481444 6.966267 2.491758 3.711002 2.331954 8.481445 1.72825 12.725127-.473493 3.456499-2.556863 7.108314-6.190922 7.92509-3.355882.686565-7.516702.66289-9.943354-2.148475-2.574619-2.935657-2.515432-7.096477-2.817284-10.76013 1.72825-.337364 3.456499-.66289 5.184749-.988417.153885 2.444408.142048 5.101888 1.580283 7.208932 1.355374 1.805193 4.184495 1.497422 5.823965.26634 1.55069-1.686819 1.438235-4.190414 1.37313-6.33297-.01776-1.970915-.899637-3.876724-2.367465-5.190668-2.503595-2.284604-5.918664-3.49793-7.948765-6.321132-2.681155-3.610385-2.734423-8.434095-2.142557-12.713289z"/><path d="m32.558567 23.570836c2.030102-1.432317 4.847385-1.408642 7.019535-.301852 1.917647 1.142302 2.722585 3.355882 3.480174 5.332716 1.053522-1.941322 2.047858-4.125309 4.03061-5.297204 2.598293-1.455991 6.321132-1.047603 8.221023 1.367211 1.893973 2.243174 2.255011 5.31496 2.320116 8.144081-.01184 10.967283.01184 21.928648-.02367 32.895931-1.970915-.01184-3.94183-.0059-5.912745-.01184.0059-10.36358-.01184-20.733078.01184-31.096658-.01776-1.627632-.0947-3.373638-.958823-4.805954-.988417-1.497422-3.426906-1.686819-4.569208-.248584-1.532934 1.923565-2.692992 4.350217-2.627887 6.859731.02367 9.765794.01776 19.531589.0059 29.297383-1.970915-.0059-3.935911-.0059-5.906826 0-.01776-10.558895-.0059-21.123709-.0059-31.682605-.04735-1.686819-.106536-3.746514-1.615795-4.841466-1.337618-1.012092-3.355883-.71024-4.320625.66289-1.633551 2.207661-2.829121 4.924328-2.65748 7.717937.04143 9.381082.01184 18.762163.01776 28.137326-1.976834.0059-3.953668.0059-5.930501 0-.0059-14.163362-.0059-28.320804 0-42.484166 1.686819-.01184 3.373638-.01184 5.060457 0 .189397 1.85846.378795 3.722839.568192 5.5813 1.035766-1.876217 2.012345-3.924074 3.793863-5.22618z"/><path d="m87.158237 24.949884c2.621968-2.687073 6.824219-2.864633 10.2748-2.059694 3.746513.870043 5.989683 4.55737 6.741363 8.10265.92922 4.551452.59186 9.227196.65105 13.843753-5.385986 0-10.77197 0-16.152035 0 .22491 4.438998-.165722 9.162091 1.852542 13.263725 1.343537 3.006681 6.238271 3.373638 7.948765.556354 1.077197-1.988671 1.290268-4.279193 1.603958-6.469099 1.62171.254503 3.23751.53268 4.84738.875962-.52676 3.776108-.97066 7.931009-3.62814 10.89626-2.450322 2.61013-6.368478 2.78769-9.688848 2.30236-2.894226-.437981-5.17883-2.681155-6.380319-5.249855-1.728249-3.604466-1.923565-7.676506-2.041939-11.60058-.272258-4.758605-.06511-9.523129.213072-14.275816.331445-3.616303 1.089034-7.522621 3.758351-10.18602m3.468337 4.657989c-1.959077 3.154647-1.538852 7.060965-1.793355 10.606244 3.49793.03551 6.99586.01776 10.499709.02368.02959-2.65748.06511-5.338634-.473493-7.948765-.366957-1.615795-1.160058-3.338126-2.769934-4.036528-1.846623-.656972-4.344299-.467575-5.462927 1.355374z"/><path d="m62.353119 23.227553c1.959077-.02367 3.918155-.02367 5.877232-.02959.112455 14.163362.01776 28.332642.04143 42.501922-1.970915.0059-3.947748.0059-5.924582 0 0-14.157443 0-28.314886.0059-42.472329z"/></g></svg>