<svg height="13.518597mm" viewBox="0 0 131.64062 47.900539" width="37.151909mm" xmlns="http://www.w3.org/2000/svg" xmlns:xlink="http://www.w3.org/1999/xlink"><linearGradient id="a" gradientUnits="userSpaceOnUse" x1="19.950512" x2="20.068821" y1="-.318677" y2="39.329811"><stop offset="0" stop-color="#5a0200"/><stop offset="1" stop-color="#d31930"/></linearGradient><g transform="translate(-311.32255 -474.12625)"><path d="m19.628906 0c-10.8251897 0-19.628906 8.8095656-19.628906 19.634766 0 10.82519 8.8037162 19.628906 19.628906 19.628906 10.8252 0 19.632813-8.803716 19.632813-19.628906 0-10.8252004-8.807613-19.634766-19.632813-19.634766z" fill="url(#a)" transform="translate(311.32255 474.12625)"/><g fill="#d31930"><path d="m441.78154 520.40067-1.15723-1.48437 2.24609-2.02638h-.91796l-2.7002 2.50489v-2.50489h-.70801v5.01954h.70801v-1.75294l.88867-.78125.80566 1.05958 1.11817 1.47461h.89843zm0 0"/><path d="m437.64091 521.27469c-.0195-.12213-.0341-.24902-.039-.37109-.005-.12695-.01-.25391-.0244-.37598-.0146-.12212-.0341-.23926-.0586-.35156 0-.005-.005-.01-.005-.0146-.0293-.10737-.0684-.20509-.12212-.28809-.0586-.0976-.13673-.17578-.23438-.23926-.0976-.0684-.22461-.11225-.37597-.1416v-.0146c.32226-.083.55663-.23925.70312-.46875.15137-.22949.2246-.49805.2246-.80077 0-.41504-.14647-.73243-.42969-.9668-.28807-.23438-.68358-.35157-1.19628-.35157h-2.50488v5.02442h.708v-2.14355h1.7334c.1709 0 .3125.0195.41993.0684.0684.039.12695.0781.18066.12695.0244.0195.0489.0489.0733.0733.0635.0781.10738.17577.13672.28808.0341.11225.0586.22462.0781.34668.0244.12212.039.24902.044.37597.005.12697.01.24415.0146.35157.005.11225.0195.20996.0341.30273.0195.0879.0489.15625.0976.20997h.7959c-.0781-.083-.13183-.18067-.1709-.29298-.0341-.11225-.0635-.22949-.083-.34667m-1.0107-2.24121c-.11225.0684-.24413.11225-.39062.13672-.15625.0244-.30761.0341-.47363.0341h-1.40625c-.0244-.01-.0489-.0146-.0733-.0244v-1.72852h1.7627c.33203 0 .57618.0781.72754.23926.14649.16114.21973.36621.21973.62011 0 .18555-.0341.33204-.0976.44923-.0684.11225-.15625.20507-.26856.27344"/><path d="m432.79716 518.41336c-.10737-.31737-.26856-.5957-.4834-.83984-.20996-.24415-.47851-.43946-.7959-.58593-.32226-.14649-.68847-.21973-1.11328-.21973-.4248 0-.79589.0732-1.11328.21973-.31739.14647-.58594.34178-.80079.58593-.12212.1416-.2246.29785-.3125.46387-.0684.11712-.12212.24413-.16601.37597-.10737.31739-.16112.64454-.16112.98633 0 .34668.0538.67383.16112.99121.10738.31739.26856.59571.47851.83985.21485.24414.4834.43945.80079.58105s.68848.20996 1.11328.20996c.42481 0 .79102-.0684 1.11328-.20996.31739-.1416.58594-.33691.7959-.58105.21484-.24414.37598-.52246.4834-.83985.10738-.31738.16113-.64453.16113-.99121 0-.22949-.0244-.4541-.0733-.66894-.0244-.10738-.0537-.21485-.0879-.31739m-.64934 1.73829c-.0733.24414-.18555.46386-.33204.66406-.14649.19531-.33691.35644-.57617.47851-.23438.11713-.50782.17578-.83497.17578-.32226 0-.60057-.0586-.83495-.17578-.23437-.12212-.42968-.2832-.57617-.47851-.15138-.2002-.25879-.41992-.32715-.66406-.0733-.24415-.10738-.49805-.10738-.75196 0-.2539.0341-.50293.10738-.74707.0537-.19531.13671-.38086.24414-.542.0244-.039.0537-.083.083-.12212.14648-.20019.3418-.35644.57617-.47851.23438-.11713.51269-.17578.83495-.17578.32715 0 .60059.0586.83496.17578.23927.12212.42969.27832.57618.47851.13184.1709.23437.3711.30274.58106.01.0292.0195.0537.0293.083.0635.24414.1025.49316.1025.74706 0 .25392-.039.50782-.1025.75195"/><path d="m426.87919 517.91044-.82031 3.15917h-.0195l-.91798-3.24706-.25879-.93263h-.77148l-.24903.88868-.94237 3.29101h-.0146l-.83007-3.30566-.21485-.87403h-.72754l.23926.87403 1.12793 4.14551h.74218l1.20118-4.11621.0293-.1025h.0146l.0293.1025 1.19142 4.11621h.7373l1.12305-3.95509.30273-1.06445h-.70801zm0 0"/><path d="m416.35673 517.45145h1.77734v4.46289h.708v-4.46289h1.77735v-.56153h-4.2627zm0 0"/><path d="m412.68974 519.61454h2.76855v-.56642h-2.76855v-1.59667h2.97364v-.56153h-3.68653v5.02442h3.70605v-.56153h-2.99316zm0 0"/><path d="m410.58525 519.0286v1.93359h-.0195l-1.19629-1.73828-1.61133-2.33399h-.75195v5.01954h.67383v-4.02832h.0146l.99121 1.44042 1.79199 2.5879h.77636v-5.01954h-.66894zm0 0"/><path d="m400.55106 519.82937h1.69923v.0879c0 .19532-.0292.38575-.0928.55665-.0781.20019-.19043.37598-.33692.52247-.14649.14647-.32715.26366-.53711.34667-.21484.0879-.46386.12695-.74219.12695-.29785 0-.55664-.0537-.78614-.16112-.22948-.11225-.41991-.2588-.57616-.44923-.15137-.18066-.26856-.39551-.34669-.63965-.0146-.0341-.0195-.0732-.0341-.11225-.0586-.20507-.0879-.41991-.0879-.64452 0-.26857.0341-.52735.10738-.78614.0684-.2539.17579-.4834.32227-.67871.14648-.20019.33692-.36133.57129-.4834.22949-.12213.50781-.18067.83008-.18067.2002 0 .38573.0195.56152.0635.18066.0489.33691.11225.47851.20508.13673.0879.25392.2002.35157.33692.0927.1416.15625.30762.19043.49804h.71289c-.0538-.29785-.1416-.54687-.2832-.75684-.13672-.20994-.30762-.38084-.50781-.51757-.2002-.13671-.42969-.23437-.68849-.29785-.2539-.0635-.52733-.0976-.81542-.0976-.41993 0-.79102.0733-1.1084.22462-.31738.14648-.58105.34667-.79101.5957-.20997.24413-.37111.53711-.47852.86913-.10737.32715-.16114.67872-.16114 1.04493 0 .21485.0244.4248.0781.62989.0244.10737.0538.20996.0928.31737.11225.30274.28321.57618.50293.81055.21972.23438.4834.41993.80079.56153.3125.13671.66893.20507 1.06445.20507.3125 0 .625-.0538.93261-.1709.3125-.11712.5713-.30272.77637-.5664l.19043.62011h.44434v-2.6416h-2.33399zm0 0"/><path d="m396.73759 520.15652v.81055h-.0146l-2.80762-4.07715h-.75195v5.02442h.66894v-4.0332h.0146l1.5625 2.26073 1.22559 1.77247h.77636v-5.02442h-.67383zm0 0"/><path d="m391.79618 516.88992v5.01954h.71289v-5.01954zm0 0"/><path d="m386.91337 517.45145h1.77734v4.46289h.70801v-4.46289h1.77734v-.56153h-4.26269zm0 0"/><path d="m386.16141 519.50711c-.16113-.10737-.34179-.19531-.54687-.2539-.20508-.0684-.41016-.12212-.625-.1709-.20995-.044-.41992-.0879-.625-.12695-.20019-.039-.38574-.0928-.54688-.15137-.16113-.0586-.29296-.1416-.38574-.23925-.0195-.0195-.039-.039-.0586-.0586-.0586-.0879-.0879-.19532-.0879-.31739 0-.16114.0341-.29785.1025-.41016.0635-.11225.15625-.19532.26368-.26367.11225-.0635.23926-.11225.38575-.1416.14647-.0244.29296-.039.43945-.039.37108 0 .66893.0781.9082.23925.23926.16114.37597.42482.41503.78614h.67383c-.01-.27344-.0684-.5127-.17089-.71289-.1025-.2002-.24415-.36621-.41505-.49805-.17577-.13183-.38085-.22461-.62011-.28808-.22949-.0586-.48827-.0928-.76171-.0928-.24415 0-.47853.0293-.7129.0879-.22949.0635-.43456.14648-.62011.26855-.17579.11712-.32715.27343-.43458.45898-.10737.18554-.16596.40527-.16596.65917 0 .0586.005.11712.01.16602.0195.15625.0684.29297.13672.40527.0976.15137.22949.27343.38574.3711.16601.0976.34669.17577.55176.23437.20508.0586.41015.11225.625.15625.20997.044.41993.0879.62012.12695.20507.044.39062.0976.55176.16601.16112.0684.29296.15625.39062.26368.0928.10737.14649.24902.14649.42481 0 .18066-.044.33203-.12212.44921-.083.11713-.18555.20997-.31739.27833-.12695.0684-.27344.11225-.43456.14647-.16114.0244-.32228.039-.4834.039-.19532 0-.39063-.0244-.58107-.0733-.19042-.044-.35643-.11712-.49316-.20996-.1416-.1025-.25879-.22949-.34667-.38085-.083-.15137-.13184-.33691-.13184-.542h-.66895c0 .30274.0537.56641.1709.79103.11712.21972.27832.40526.4834.54687.2002.1416.42969.24901.69825.31738.26855.0733.55175.10737.8496.10737.24415 0 .48829-.0293.73731-.083.24414-.0538.46875-.13671.66894-.25879.19531-.11712.36133-.27343.48829-.46386.12695-.19044.19042-.41992.19042-.6836 0-.24902-.0489-.45897-.14649-.62011-.0976-.16601-.22948-.30274-.39062-.41016"/><path d="m380.1995 516.88992h-.78125l-.52734 1.26465-1.55274 3.75977h.72266l.60059-1.51367h2.25098l.58594 1.51367h.78612l-1.52344-3.66699zm-1.31348 2.94923.63965-1.66016.26367-.68359h.0147l.26856.71289.62011 1.63086zm0 0"/><path d="m376.49345 520.59599c-.0732.18066-.17579.33202-.30762.46386-.13672.12695-.29297.22949-.47363.30274-.18067.0733-.39063.10737-.62012.10737-.32227 0-.5957-.0538-.8252-.16602-.22949-.11713-.41504-.26367-.5664-.4541-.14649-.19043-.24903-.41504-.32227-.66894-.0684-.2588-.10254-.52735-.10254-.81544 0-.26367.0342-.51269.10254-.75684.0391-.1416.0928-.26855.16113-.39062.0488-.0927.10254-.18066.16114-.26366.15136-.19044.33691-.3418.56152-.45412.22949-.11225.50293-.16601.82031-.16601.37598 0 .69336.0879.9668.26856.19531.12695.33691.29785.43457.52245.0342.0879.0684.17579.0928.27833h.70801c-.0147-.1025-.0391-.19043-.0635-.2832-.0488-.15138-.10743-.29298-.19043-.42481-.12695-.20508-.28809-.37598-.4834-.50782-.19531-.13671-.41504-.23925-.66895-.3125-.24901-.0684-.51268-.10737-.78612-.10737-.41016 0-.77148.0733-1.08887.20995-.31738.13672-.58105.32715-.79101.56152-.18555.20997-.32715.44923-.43457.71778-.0146.044-.0342.0879-.0488.12695-.10743.32227-.16113.66406-.16113 1.03027 0 .36622.0488.70802.15136 1.03028.10254.31739.25391.5957.45899.83007.20508.23438.46386.41993.7666.55177.3125.13183.67383.19531 1.08398.19531.6836 0 1.22071-.1709 1.61621-.52246.39063-.35644.625-.84473.69336-1.47949h-.708c-.0195.20507-.0635.40039-.13672.57617"/><path d="m371.29325 517.48075c-.43945-.39551-1.07422-.59083-1.89453-.59083h-1.83106v5.02442h1.83106c.44434 0 .82519-.0586 1.15234-.17578.32227-.11712.59082-.28809.7959-.5127.20996-.21972.36621-.49805.46387-.82031.10254-.32715.15137-.70313.15137-1.12305 0-.36133-.0488-.6787-.13672-.96191-.1123-.34179-.28321-.62012-.53223-.83984m-.1416 2.68555c-.0684.21972-.15625.40039-.25879.54199-.10254.14648-.22461.26367-.35645.34667-.13183.083-.26367.15138-.3955.19531-.13672.044-.26368.0733-.38575.083-.11718.0146-.21972.0195-.29785.0195h-1.18164v-3.90136h1.19629c.32715 0 .60547.044.83008.13184.22461.083.41016.20996.54687.38086.10743.11713.18555.25879.24903.41504.0195.0586.0439.12212.0586.18554.0635.23926.0928.50781.0928.81055 0 .30762-.0342.57128-.0977.79101"/><path d="m364.96024 516.88992h-.78125l-1.01074 2.44142-1.06445 2.583h.72265l.59571-1.51367h2.25586l.58593 1.51367h.78125l-1.22558-2.96387zm-1.31347 2.94923.23925-.61524.66407-1.72851h.0146l.58593 1.54785.30274.7959zm0 0"/><path d="m361.53251 517.57352c-.20996-.24415-.47852-.43946-.7959-.58593-.31738-.14649-.68848-.21973-1.11328-.21973-.42481 0-.7959.0732-1.11328.21973-.31739.14647-.58594.34178-.7959.58593-.21973.24414-.37598.52247-.48828.83984-.10743.31739-.15625.64454-.15625.98633 0 .29786.0391.59082.12695.86915.01.044.0195.083.0293.12212.1123.31738.26856.5957.48828.83984.20996.24414.47852.43945.7959.58105.31738.14649.68848.21485 1.11328.21485.42481 0 .7959-.0684 1.11328-.21485.31738-.1416.58594-.33691.7959-.58105.21484-.24414.37597-.52246.4834-.83985.0928-.27344.1416-.55664.15625-.8496 0-.0489.005-.0927.005-.14161 0-.34179-.0537-.66894-.16113-.98633-.10743-.31737-.26856-.5957-.4834-.83984m-.0781 2.08497c-.0147.16601-.0439.32713-.0928.49316-.0684.24902-.17578.46875-.32715.66406s-.3418.35644-.57617.47851c-.23438.11713-.5127.17578-.83496.17578-.32715 0-.60059-.0586-.83985-.17578-.22949-.12212-.4248-.2832-.57129-.47851-.1416-.18555-.24414-.39062-.3125-.61524-.005-.0146-.0147-.0341-.0195-.0489-.0684-.24902-.10254-.49805-.10254-.75195 0-.24902.0342-.50293.10254-.74707.0732-.24414.18067-.46875.33203-.66406.14649-.2002.3418-.35645.57129-.47852.23926-.11712.5127-.17578.83985-.17578.32226 0 .60058.0586.83496.17578.23437.12213.4248.27832.57617.47852.15137.19531.25879.41992.32715.66406.0732.24414.10742.49805.10742.74707 0 .0879-.01.1709-.0146.25879"/><path d="m356.50809 521.27469c-.0195-.12213-.0342-.24902-.0391-.37109-.005-.12695-.01-.25391-.0195-.37598-.01-.0635-.0147-.12212-.0293-.18066-.01-.0586-.0195-.11712-.0342-.1709-.0293-.11225-.0732-.21485-.12695-.30274-.0586-.0976-.13672-.17577-.23437-.23926-.0928-.0684-.21973-.11225-.37598-.1416v-.0146c.32715-.083.56152-.23925.70801-.46875.14648-.22948.21972-.49805.21972-.80077 0-.41504-.1416-.73243-.42968-.9668-.28809-.23437-.6836-.35156-1.19141-.35156h-2.50977v5.02441h.71289v-2.14355h1.72852c.17578 0 .31738.0195.41992.0684.10254.0537.19043.11713.25391.20019.0635.0781.11229.17579.1416.28809.005.0195.01.044.0147.0684.0195.0879.0439.18066.0586.27832.0293.12213.0391.24903.0439.37598.005.12695.01.24413.0147.35156.005.11225.0195.20996.0342.30274.0195.0879.0537.15625.10253.20996h.79102c-.0732-.083-.13184-.18068-.16602-.29298-.0391-.11225-.0684-.22948-.0879-.34667m-1.01074-2.24121c-.1123.0684-.24414.11225-.39551.13671-.14648.0244-.30273.0341-.46875.0341h-1.47461v-1.75293h1.75782c.33203 0 .57617.0781.72265.23927.15137.16112.2295.3662.2295.62011 0 .18555-.0342.33202-.10254.44921-.0684.11225-.15625.20509-.26856.27344"/><path d="m350.78544 519.26297v-.0146c.2539-.0927.44922-.23926.58594-.43457.13671-.19531.20507-.4248.20507-.69336 0-.2539-.0586-.46875-.18066-.63964-.12208-.1709-.26856-.30763-.44434-.41016-.083-.044-.17578-.083-.28808-.1025-.1123-.0244-.23438-.039-.36133-.0538-.13184-.0146-.26367-.0195-.39551-.0244-.13183 0-.2539 0-.36621 0h-1.93359v5.02441h2.57812c.25879 0 .49317-.039.69336-.12695.20508-.0781.3711-.18555.50781-.32226.13672-.12695.23926-.2832.3125-.45899.0635-.16114.0977-.32715.10254-.49805 0-.0146 0-.0244 0-.039 0-.30761-.0879-.57129-.25879-.78613-.17578-.21485-.4248-.35645-.75683-.41992m-2.47071-1.81153h1.4209c.15137 0 .29785.01.43457.0244.13672.0146.25879.0538.36133.11225.10743.0537.19043.13184.24903.23927.0586.1025.0879.24413.0879.41991 0 .26856-.0879.46875-.26368.60547-.18066.13184-.46875.19532-.86914.19532h-1.4209zm2.77344 3.05177c-.01.2539-.0977.45897-.25879.60546-.17578.16114-.4248.24414-.7373.24414h-1.77735v-1.73828h1.6211c.15137 0 .29297.0146.42969.0341.1416.0292.26367.0732.37109.13671.10742.0586.19531.14649.25879.25879.0635.10738.0977.24415.0977.40528 0 .0195-.005.0341-.005.0538"/><path d="m339.72098 520.01981v-.40527h2.77344v-.56642h-2.77344v-1.59667h2.97364v-.56153h-3.68164v5.02442h3.70117v-.56153h-2.99317zm0 0"/><path d="m334.85282 519.43387v2.48047h.70801v-2.2998h2.44629v-.56642h-2.44629v-1.59667h2.79297v-.56153h-3.50098zm0 0"/><path d="m333.40751 516.88992v5.01954h.70801v-5.01954zm0 0"/><path d="m329.84794 518.47684v-1.58692h-.70801v5.02442h3.53027v-.56153h-2.82226zm0 0"/><path d="m327.57255 518.14969v2.8125h-.0146l-2.05078-2.97363-.76172-1.09864h-.75196v5.02442h.67383v-4.0332h.0147l.0439.0684 2.73926 3.96483h.77637v-5.02441h-.66895zm0 0"/><path d="m322.96806 517.87625c-.0684-.1025-.14161-.20995-.22461-.30273-.21485-.24415-.47852-.44433-.80079-.58593-.31738-.14649-.68847-.21973-1.11328-.21973-.41992 0-.79101.0732-1.1084.21973-.32226.1416-.58593.34178-.80078.58593-.0928.1025-.17578.21484-.24414.33203-.0977.15625-.17578.32715-.23926.50781-.10742.31739-.16113.64454-.16113.98633 0 .34668.0537.67383.16113.99121.10743.31739.26856.59571.4834.83985.21485.24414.47852.43945.80078.58105.31739.1416.68848.21485 1.1084.21485.42481 0 .7959-.0733 1.11328-.21485.32227-.1416.58594-.33691.80079-.58105.21484-.24414.37597-.52246.48339-.83985.10743-.31738.16114-.64453.16114-.99121 0-.34179-.0537-.66894-.16114-.98633-.0684-.19042-.15136-.37109-.25878-.53711m-.39551 2.2754c-.0684.24414-.18067.46386-.33203.66406-.14649.19531-.33692.35644-.57129.47851-.23438.11713-.5127.17578-.83985.17578-.32226 0-.60058-.0586-.83496-.17578-.23437-.12212-.4248-.2832-.57617-.47851-.14648-.2002-.25879-.41992-.32715-.66406-.0684-.24415-.10254-.49805-.10254-.75196 0-.2539.0342-.50293.10254-.74707.0684-.24902.18067-.46875.32715-.66406.0293-.039.0586-.0733.0879-.1025.13672-.15137.29785-.27344.48828-.37597.23438-.11713.5127-.17579.83496-.17579.32715 0 .60547.0586.83985.17579.18554.0976.33691.21483.46875.35643.0391.039.0732.0781.10253.12213.15137.19531.26367.41504.33203.66406.0684.24415.10254.49316.10254.74708 0 .2539-.0342.50781-.10254.75195"/><path d="m317.18192 519.50711c-.16113-.10737-.34179-.19531-.54687-.2539-.20508-.0684-.41504-.12212-.625-.1709-.20996-.044-.41992-.0879-.625-.12695-.20508-.039-.38575-.0928-.54688-.15137-.16113-.0586-.29297-.1416-.38574-.23925-.10254-.0928-.15137-.21485-.15137-.37599 0-.16113.0391-.29785.10254-.41015.0684-.11225.15625-.19531.26856-.26368.1123-.0635.24414-.11225.38574-.1416.14648-.0244.29297-.039.43945-.039.37109 0 .67383.0781.9082.23927.14649.1025.25879.24902.33203.4248.0391.10737.0684.22948.0879.36132h.66895c-.005-.1416-.0244-.27344-.0537-.3955-.0293-.11712-.0684-.22461-.11718-.31739-.10254-.2002-.23926-.36621-.41504-.49805-.18067-.13183-.38086-.2246-.62012-.28808-.22949-.0586-.4834-.0928-.76172-.0928-.23926 0-.47851.0293-.71289.0879-.22949.0635-.43457.14648-.62012.26856-.18066.11712-.32226.27344-.43457.45897-.10742.18555-.16601.40528-.16601.65919 0 .005.005.0146.005.0195 0 .21973.0488.40528.1416.55175.0977.15138.22461.27344.39062.3711.16114.0976.3418.17578.54688.23438s.41016.11225.625.15625c.20996.044.41504.0879.625.12695.20019.044.38574.0976.54687.16601.16114.0684.29297.15625.38575.26367.0977.10738.14648.24903.14648.42482 0 .18066-.0391.33202-.11719.44921-.083.11712-.18554.20996-.3125.27832-.13183.0684-.27832.11225-.43945.14648-.16113.0244-.32227.039-.4834.039-.20019 0-.39062-.0244-.58105-.0732-.19042-.044-.35156-.11726-.49804-.20998-.1416-.1025-.25391-.22949-.3418-.38086-.0879-.15137-.13183-.33692-.13183-.54199h-.66895c0 .30274.0586.56641.17578.79101.11719.21973.27344.40528.47852.54688.20019.1416.43457.24902.69824.31738.26856.0733.55176.10738.84961.10738.24414 0 .48828-.0293.73242-.083.24903-.0537.47364-.13673.67383-.25879.19531-.11712.36133-.27344.4834-.46387.13183-.19043.19043-.41992.19043-.68359 0-.24903-.0439-.45899-.1416-.62013-.0977-.16601-.22461-.30272-.39063-.41015"/><path d="m442.91922 477.36844h-7.70018s.005 20.0293 0 20.2588c-.2002-.3125-12.6416-20.2588-12.6416-20.2588h-7.77344v33.02246h7.63671v-20.12695c.7373 1.14746 12.47559 20.11719 12.47559 20.11719h8.00293zm0 0"/><path d="m380.75126 498.09599c-.01-.0537-.0292-.1075-.039-.16603-.0341-.15136-.0733-.30272-.11713-.4541-.0341-.1416-.0781-.27344-.12212-.41015-.0489-.1416-.1025-.28809-.15625-.42481-.0586-.1416-.11713-.27344-.18066-.40528-.0586-.13182-.12695-.26366-.19531-.40038-.0732-.13184-.15137-.26368-.2295-.39063-.0781-.12695-.15136-.24902-.23437-.36621-.0928-.13671-.19043-.26366-.28809-.39063-.0879-.10737-.1709-.21972-.25879-.32715-.11718-.13182-.24414-.25878-.36621-.38573-.0928-.0928-.17578-.19043-.27343-.27833-.14649-.1416-.30762-.27344-.47364-.41015-.0782-.0684-.15632-.1416-.24421-.20996-.25391-.19043-.51758-.38086-.80078-.55664-2.00684-1.25489-4.73145-1.88476-7.36329-2.49024-1.24511-.28808-2.52441-.58105-3.70605-.9375-1.3916-.41503-2.46582-.99608-2.73926-1.46972-.37597-.64941-.30273-1.64063-.0391-2.2461.0684-.15136.15625-.29296.25879-.42969.68359-.88379 2.1582-1.43066 3.94531-1.43066 1.35743 0 2.63184.32715 3.54004.86915.19532.122.37598.24901.53711.38574.2002.17577.36621.36132.49805.55663.39062.60059.52246 1.29883.61523 2.29982l.0439.49316h7.53907l-.0147-.56153c-.0293-.94238-.14649-1.82128-.3418-2.63672-.24903-1.04491-.62989-1.9873-1.14747-2.82226-.25878-.41993-.55664-.81055-.88378-1.17677-.34668-.38573-.72754-.7373-1.15235-1.05468-1.93847-1.48925-4.67285-2.34863-8.35937-2.62695h-1.60157c-.76171.0489-1.48437.13672-2.17773.26856-.0537.01-.10254.0195-.14648.0293-.10254.0195-.2002.0439-.30274.0684-.18066.039-.36133.0781-.53223.122-.29785.0781-.58593.16114-.86425.24903-.91797.30274-1.76758.69336-2.5586 1.17676-.17578.1025-.34179.20996-.50781.31739-.10742.0781-.21484.14647-.31738.2246-1.03028.74707-1.84082 1.57227-2.45117 2.48535-1.1084 1.66505-1.53809 3.63281-1.33301 6.01075.13672 1.53809.72265 2.75879 1.37695 3.67187.49317.68359 1.02051 1.19629 1.4209 1.5332.4834.40039 1.02051.74708 1.60156 1.05469 1.88477 1.01075 4.21387 1.59669 6.48926 2.16798 1.3623.34178 2.76855.69823 4.03809 1.13281 1.0205.35156 2.43164.92772 2.93945 1.89941.59082 1.13281.19043 2.24609-.44922 2.97851-.22949.26368-.48828.47852-.74707.625-.9082.53712-2.2168.83497-3.69141.83497-.28808 0-.57129-.0146-.85449-.039-.083-.005-.16113-.0146-.24414-.0244-.20019-.0195-.40039-.039-.59082-.0732-.0879-.01-.1709-.0292-.25391-.044-.19043-.0341-.37597-.0732-.55664-.11713-.0732-.0195-.1416-.039-.21484-.0537-.19531-.0538-.38574-.11225-.56641-.17579-.0586-.0195-.11718-.039-.17089-.0635-.0879-.0292-.1709-.0635-.25391-.0976-.12695-.0537-.25879-.11225-.37598-.17088-.0439-.0195-.083-.039-.12695-.0635-.12695-.0684-.24902-.14648-.36621-.21973-.0439-.0293-.0879-.0586-.13184-.0928-.13183-.0928-.2539-.18555-.36133-.28808-.45898-.4248-.80078-.94727-1.03027-1.54785-.22949-.61035-.3418-1.29883-.32715-2.05079l.01-.55175h-7.65136l.005.54687c.005.27832.0147.54688.0293.81543.33203 5.3418 3.48632 8.81836 9.1748 10.07325 1.46973.32714 2.97852.48827 4.48731.48827 4.62402 0 8.70117-1.5039 10.91796-4.02832.50293-.57129.92286-1.22558 1.25489-1.93359.58105-1.23047.89842-2.63184.92772-4.11621 0-.01 0-.0195 0-.0293.01-.52246-.0146-1.05469-.0781-1.59668-.0244-.18067-.0537-.36133-.0879-.542"/><path d="m410.5999 495.84012c-.0684-.12212-.14161-.23926-.21485-.35645-.13671-.22461-.2832-.43945-.43945-.64452-.82032-1.0791-1.90919-1.9336-3.21289-2.49024.64452-.39551 1.23535-.83496 1.75781-1.4209.61523-.67871 1.06445-1.59667 1.35254-2.62695.1416-.49805.24414-1.02051.30273-1.55274.11224-.98145.083-1.99218-.0879-2.94433-.0586-.35157-.1416-.68848-.23925-1.01563-.0489-.16601-.11225-.32715-.17579-.48827-.0928-.24415-.19531-.47853-.3125-.70313-.63476-1.19629-1.58202-2.17285-2.75879-2.82715-1.45996-.81055-3.25195-1.15235-5.34667-1.30371-.34669-.0195-.70313-.039-1.06934-.0586-.53222-.0146-1.08399-.0292-1.65527-.0341-.44434-.005-14.55079-.005-14.55079-.005l.005 33.00781s13.18847.01 13.74024.0195c.54198.0146 1.10351.0195 1.6455.0195.98145 0 1.75781-.0341 2.44629-.10737 2.23633-.23438 4.14551-.8252 5.69336-1.75782.33691-.2002.6543-.41992.95215-.64941.98145-.75684 1.74316-1.66504 2.29003-2.70996.25879-.49805.46875-1.02539.6299-1.58204v-.005c.0292-.1025.0635-.20996.0879-.3125.0244-.0928.039-.19042.0635-.28809.0146-.0684.0341-.14647.0489-.21972.0489-.2539.0879-.50781.12213-.77148 0-.0244.005-.0489.01-.0684.22461-2.09472-.0781-4.00878-.83008-5.60547-.0781-.1709-.16601-.33203-.2539-.49804m-18.56446-11.32325v-.625h4.69239c2.38281 0 4.6875.14649 5.40039 1.63086.17578.35645.27343.84962.29297 1.37208.0244.72754-.10737 1.5039-.4541 2.04589-.81055 1.28418-3.05665 1.32325-4.917 1.32325h-5.01465zm5.55665 19.34083h-5.55176v-5.72267c0-.26855 0-.53222 0-.80077 0-.0146.005-.0341.005-.0537 0-.37598-.005-.75196-.005-1.12794.15136.01.69823.01 1.31836.005 1.48437 0 3.73046-.01 4.2041-.01.99609 0 1.97265-.01 2.85156.13673.82031.1416 1.54296.39062 2.08496.80566.24414.17579.45898.38574.62012.63965.2832.43945.46386 1.00097.54198 1.60156.0244.19531.044.39063.044.58594.005.11225.005.23437 0 .34667-.01.33204-.0537.6543-.12212.95704-.039.17578-.0928.33691-.14648.49316-.10737.29785-.24415.57129-.41992.78614-.97656 1.25488-3.28614 1.35741-5.4248 1.35741m-.46875-26.2207v-.083zm0 0"/></g><path d="m344.43739 498.594c-.39062-1.60156-3.37402-1.29393-4.08691-2.68553-.42969-.83497-.20508-2.03125-.19531-3.19825.0195-2.07519-.42969-3.87207-1.09375-5.49805-1.05469-2.56835-2.66602-4.71192-3.89161-6.84082-.85449-1.48437-1.38672-3.10058-2.30468-4.59961-.24414.625.0879 1.4502-.0635 2.16798-.0439.0879-.083.11712-.12208.11712-.10742 0-.20508-.24415-.38086-.24415h-.01c-.18555.21485-.26367.54688-.38086.83496-.10254-.0976-.25391-.18555-.41504-.18555-.0732 0-.14648.0146-.22461.0538-.13178-.12212-.13666-.38573-.39545-.38573-.0147 0-.0293.005-.0537.005-.25391.52246-.0977 1.48437.0684 1.98242-.43457.44921-.3418 1.24511-.5127 1.97754-.11718.49316-.41992.86914-.44921 1.34277-.0391.70313.20996 1.27929.51269 1.85547-.20508.47363-.30273 1.03027-.3125 1.60156-.0244 1.1377.29297 2.31934.8252 2.93945-.20997.7129-.12696 1.52344-.19532 2.30469-.0781.89843-.12695 1.71875.19532 2.36328.47851.96192 1.54296 1.0791 2.49023 1.59668-.52734.73242-1.46484 1.04981-1.59668 2.17285.19531.1709.53223.19531.89844.19531.15137 0 .30762-.005.45898-.005h.17578c-.30761.92774-1.11328 1.24024-1.98242 1.46974-.78125.21484-1.69922.28807-2.66113.28807-.35156 0-.70313-.01-1.05469-.0244-.83984-.039-1.68457-.11712-2.48535-.19531-.0244-.005-.0488-.005-.0732-.01-.47363-.044-1.10352-.12212-1.67481-.12212-.95214 0-1.73339.20996-1.31836 1.08887-.85937.35156-.80566.83984-.44921 1.66015.16113.36134.20019.56153.38574.70801.34668.27344.81055.3418 1.31347.3418.45899 0 .95704-.0538 1.44532-.0538.19043 0 .38086.005.5664.0293-.52246.34668-1.34277.75684-2.17773 1.27929-.67871.42481-1.69434 1.00099-1.5332 1.85548.11718.60546.89843.56152 1.5332.7666.1416.32715-.37598.50292-.25391 1.02051.28321.20996.74707.23437 1.21582.25879-.0195.40527-.14648.70312-.12695 1.15233.21484.26368.53711.35157.88867.35157.42481 0 .89356-.12695 1.28418-.2246.11719.20018.32227.3125.5127.44432h.31738c.78613-.48827 1.15234-.26855 1.98242-.51269.30274-.0879.5957-.46875 1.02051-.63965.29297-.11225.65918-.083.96191-.18555 1.24512-.43945 1.9336-1.08886 2.75391-1.91893.18066-.18555.36621-.37599.57129-.58107.50293-.50292 1.1084-1.11816 1.83105-1.11816.0928 0 .18067.0146.27832.0341.59571.13673.93262.92774.83008 1.72364.0293.0244.0537.0341.0732.0341.15625 0 .0147-.6543.24414-.67384.36133.21485.13184.91798.0684 1.2793 1.00586-.79101-.0146-2.1289-.44922-2.8125.26367-.55176.8545-1.0498 1.40625-1.59667.32227-.32228.65918-.68848 1.01563-1.00587.16601-.14648.34179-.2832.51758-.40038.32226-.20997.73242-.25392 1.02539-.44923.43945-.29296.68847-1.09862 1.27441-1.15234h.0879c.68359 0 .9082.77637 1.51367.96192-.0781-1.00587.64942-1.86035.38086-2.93945" fill="#fff"/><path d="m335.39442 480.23952c.38086.66406.7959 1.31836 1.23047 2.01171.95703 1.5088 1.94336 3.07617 2.67578 4.86329.3711.89843.64453 1.79687.83008 2.69531l.95215.30761 5.90332-5.34179-7.81738-1.87012 3.83789-3.64258c-1.45508-1.21582-3.09571-2.20703-4.87793-2.93945l-3.34473 2.72949c.19043.40039.39063.80079.61035 1.18653" fill="#df1837"/><path d="m330.66298 489.89284c-.5127-.67871-.8252-1.83594-.80078-3.00294.0146-.58593.1123-1.13281.28808-1.58202-.26855-.52735-.52734-1.14259-.4834-1.88478.0195-.31737.13672-.59081.25391-.8496.0781-.18066.15625-.35156.2002-.53711.0488-.21972.0781-.46386.10253-.68847.0244-.19044.0488-.38087.083-.56642l-6.22558-1.49413-5.26367 3.64746 8.02246 2.58789-14.40918 11.74805c.53711 2.87108 1.72363 5.5127 3.4082 7.76367l14.69726-13.94044c.01-.40527.0342-.81053.12696-1.20116" fill="#df1837"/><path d="m348.48036 486.81667c-.27344.0928-.53711.19531-.78125.33202-.26855.15138-.4541.41016-.70312.57618-.8545.57128-1.85059.7959-2.74903 1.2793-.16601.0879-.31738.19042-.46387.29785-.31738.23926-.60058.52246-.87402.81542-.58594.62013-1.5625 1.45996-2.50488 1.85548.01.24902.0147.49316.0147.74218 0 .29785-.0195.60059-.0391.90332-.0439.83008-.0879 1.61133.20019 2.16797.0537.1025.12208.18555.2002.26855 1.24512-.55175 2.37793-1.64062 3.08594-2.57812.43945-.0684.76171-.25879 1.21093-.31738.3418-.32227.57618-.81055.87891-1.20606.13184-.18066.2832-.34179.46387-.45898.0684-.044.1416-.0732.21972-.1025.28321-.1025.62012-.12212.86914-.27831.46387-.29785.83497-.94726 1.2793-1.40625.15625-.16601.3125-.33204.46387-.49316-.2002-.82031-.46387-1.6211-.77149-2.39746" fill="#fff"/></g></svg>