<?xml version="1.0" encoding="UTF-8" standalone="no"?>
<!-- Created with Inkscape (http://www.inkscape.org/) -->

<svg
   xmlns:dc="http://purl.org/dc/elements/1.1/"
   xmlns:cc="http://creativecommons.org/ns#"
   xmlns:rdf="http://www.w3.org/1999/02/22-rdf-syntax-ns#"
   xmlns:svg="http://www.w3.org/2000/svg"
   xmlns="http://www.w3.org/2000/svg"
   xmlns:sodipodi="http://sodipodi.sourceforge.net/DTD/sodipodi-0.dtd"
   xmlns:inkscape="http://www.inkscape.org/namespaces/inkscape"
   width="21.674314mm"
   height="6.5044813mm"
   viewBox="0 0 76.798752 23.047374"
   id="svg80942"
   version="1.1"
   inkscape:version="0.91 r13725"
   sodipodi:docname="Sonlife.svg">
  <defs
     id="defs80944">
    <clipPath
       clipPathUnits="userSpaceOnUse"
       id="clipPath2564">
      <path
         d="m 221.328,180.542 63.413,0 0,18.788 -63.413,0 0,-18.788 z"
         id="path2566"
         inkscape:connector-curvature="0" />
    </clipPath>
    <clipPath
       clipPathUnits="userSpaceOnUse"
       id="clipPath2436">
      <path
         d="m 211.635,177.534 82.8,0 0,24.803 -82.8,0 0,-24.803 z"
         id="path2438"
         inkscape:connector-curvature="0" />
    </clipPath>
  </defs>
  <sodipodi:namedview
     id="base"
     pagecolor="#ffffff"
     bordercolor="#666666"
     borderopacity="1.0"
     inkscape:pageopacity="0.0"
     inkscape:pageshadow="2"
     inkscape:zoom="11.2"
     inkscape:cx="48.215884"
     inkscape:cy="8.5796723"
     inkscape:document-units="px"
     inkscape:current-layer="layer1"
     showgrid="false"
     fit-margin-top="0"
     fit-margin-left="0"
     fit-margin-right="0"
     fit-margin-bottom="0"
     inkscape:window-width="1920"
     inkscape:window-height="1017"
     inkscape:window-x="-8"
     inkscape:window-y="-8"
     inkscape:window-maximized="1" />
  <metadata
     id="metadata80947">
    <rdf:RDF>
      <cc:Work
         rdf:about="">
        <dc:format>image/svg+xml</dc:format>
        <dc:type
           rdf:resource="http://purl.org/dc/dcmitype/StillImage" />
        <dc:title></dc:title>
      </cc:Work>
    </rdf:RDF>
  </metadata>
  <g
     inkscape:label="Layer 1"
     inkscape:groupmode="layer"
     id="layer1"
     transform="translate(-266.1071,-352.25296)">
    <g
       transform="matrix(1.25,0,0,-1.25,-10.553652,601.41396)"
       id="g2432">
      <g
         id="g2434"
         clip-path="url(#clipPath2436)">
        <g
           id="g2440"
           transform="translate(248.3743,189.0078)">
          <path
             d="M 0,0 C 0.161,-0.31 0.375,-0.561 0.642,-0.753 0.908,-0.945 1.221,-1.088 1.581,-1.181 1.94,-1.274 2.312,-1.32 2.697,-1.32 c 0.26,0 0.539,0.021 0.836,0.065 0.298,0.043 0.577,0.127 0.837,0.251 0.261,0.124 0.477,0.294 0.651,0.511 C 5.195,-0.276 5.282,0 5.282,0.335 5.282,0.694 5.167,0.986 4.937,1.209 4.708,1.432 4.407,1.618 4.036,1.767 3.663,1.915 3.242,2.046 2.771,2.157 2.3,2.269 1.823,2.393 1.339,2.529 0.843,2.653 0.36,2.805 -0.111,2.985 c -0.472,0.179 -0.893,0.412 -1.265,0.697 -0.372,0.285 -0.673,0.642 -0.902,1.069 -0.23,0.428 -0.344,0.946 -0.344,1.553 0,0.682 0.145,1.274 0.437,1.776 0.291,0.502 0.672,0.921 1.144,1.256 0.471,0.334 1.004,0.582 1.599,0.743 0.595,0.161 1.19,0.242 1.785,0.242 0.694,0 1.361,-0.077 1.999,-0.232 C 4.981,9.934 5.548,9.682 6.044,9.336 6.54,8.988 6.933,8.545 7.225,8.006 7.516,7.467 7.662,6.812 7.662,6.044 l -2.827,0 C 4.81,6.441 4.726,6.769 4.584,7.03 4.441,7.29 4.252,7.494 4.017,7.643 3.781,7.792 3.512,7.897 3.208,7.959 2.904,8.021 2.572,8.052 2.213,8.052 1.977,8.052 1.742,8.027 1.506,7.978 1.271,7.928 1.057,7.841 0.865,7.718 0.672,7.594 0.514,7.439 0.391,7.253 0.267,7.067 0.205,6.831 0.205,6.546 0.205,6.286 0.254,6.075 0.353,5.914 0.452,5.752 0.648,5.604 0.939,5.467 1.23,5.331 1.633,5.195 2.148,5.058 2.662,4.922 3.335,4.748 4.166,4.538 4.413,4.488 4.758,4.398 5.198,4.268 5.638,4.138 6.075,3.93 6.509,3.645 6.943,3.36 7.318,2.978 7.634,2.501 7.95,2.024 8.108,1.413 8.108,0.669 8.108,0.062 7.99,-0.502 7.755,-1.023 7.519,-1.544 7.169,-1.993 6.704,-2.371 6.239,-2.749 5.663,-3.044 4.975,-3.254 4.287,-3.465 3.49,-3.571 2.585,-3.571 c -0.732,0 -1.441,0.091 -2.129,0.27 -0.688,0.18 -1.296,0.462 -1.823,0.846 -0.527,0.384 -0.945,0.874 -1.255,1.469 -0.31,0.595 -0.459,1.302 -0.447,2.12 l 2.827,0 C -0.242,0.688 -0.161,0.31 0,0"
             style="fill:#336e7d;fill-opacity:1;fill-rule:nonzero;stroke:none"
             id="path2442"
             inkscape:connector-curvature="0" />
        </g>
        <g
           id="g2444"
           transform="translate(264.2556,188.0035)">
          <path
             d="m 0,0 c 0.285,0 0.558,0.028 0.818,0.084 0.26,0.055 0.49,0.149 0.688,0.279 0.198,0.13 0.356,0.307 0.474,0.53 0.118,0.223 0.177,0.508 0.177,0.855 0,0.682 -0.192,1.169 -0.576,1.46 C 1.196,3.499 0.688,3.645 0.056,3.645 l -3.18,0 L -3.124,0 0,0 Z m -0.167,5.635 c 0.52,0 0.948,0.124 1.283,0.372 0.335,0.248 0.502,0.651 0.502,1.209 0,0.309 -0.056,0.564 -0.167,0.762 C 1.339,8.176 1.19,8.331 1.004,8.443 0.818,8.555 0.604,8.632 0.363,8.675 0.121,8.719 -0.13,8.74 -0.391,8.74 l -2.733,0 0,-3.105 2.957,0 z m 0.371,5.374 c 0.633,0 1.209,-0.056 1.73,-0.167 C 2.455,10.73 2.901,10.547 3.273,10.293 3.645,10.039 3.933,9.701 4.138,9.28 4.342,8.858 4.444,8.337 4.444,7.718 4.444,7.048 4.292,6.49 3.989,6.044 3.685,5.598 3.236,5.232 2.641,4.947 3.459,4.711 4.069,4.299 4.472,3.71 4.875,3.121 5.077,2.411 5.077,1.581 c 0,-0.67 -0.13,-1.249 -0.391,-1.739 -0.26,-0.49 -0.61,-0.89 -1.05,-1.2 C 3.195,-1.668 2.693,-1.897 2.129,-2.046 1.565,-2.194 0.985,-2.269 0.39,-2.269 l -6.434,0 0,13.278 6.248,0 z"
             style="fill:#336e7d;fill-opacity:1;fill-rule:nonzero;stroke:none"
             id="path2446"
             inkscape:connector-curvature="0" />
        </g>
        <g
           id="g2448"
           transform="translate(274.2046,199.0128)">
          <path
             d="m 0,0 5.542,-8.908 0.037,0 0,8.908 2.734,0 0,-13.278 -2.92,0 -5.523,8.889 -0.037,0 0,-8.889 -2.734,0 L -2.901,0 0,0 Z"
             style="fill:#336e7d;fill-opacity:1;fill-rule:nonzero;stroke:none"
             id="path2450"
             inkscape:connector-curvature="0" />
        </g>
        <g
           id="g2452"
           transform="translate(221.8109,181.382)">
          <path
             d="m 0,0 c 0.038,-0.077 0.089,-0.139 0.155,-0.184 0.065,-0.046 0.143,-0.079 0.233,-0.099 0.089,-0.02 0.185,-0.03 0.287,-0.03 0.058,0 0.122,0.009 0.191,0.025 0.068,0.017 0.132,0.044 0.192,0.08 0.059,0.037 0.109,0.083 0.148,0.141 0.04,0.057 0.06,0.126 0.06,0.208 0,0.062 -0.014,0.116 -0.043,0.162 C 1.195,0.349 1.159,0.387 1.114,0.419 1.069,0.45 1.02,0.475 0.966,0.495 0.911,0.515 0.858,0.531 0.806,0.544 L 0.309,0.666 C 0.245,0.682 0.182,0.703 0.12,0.728 0.059,0.753 0.005,0.786 -0.041,0.828 -0.086,0.87 -0.123,0.921 -0.152,0.981 -0.18,1.042 -0.194,1.116 -0.194,1.203 c 0,0.054 0.011,0.118 0.032,0.191 0.02,0.073 0.059,0.141 0.117,0.206 0.057,0.064 0.136,0.119 0.236,0.164 0.1,0.045 0.228,0.067 0.384,0.067 0.11,0 0.216,-0.014 0.316,-0.043 C 0.991,1.758 1.078,1.714 1.153,1.656 1.228,1.598 1.288,1.525 1.333,1.439 1.378,1.353 1.4,1.252 1.4,1.138 l -0.212,0 C 1.183,1.223 1.164,1.297 1.13,1.361 1.095,1.424 1.051,1.477 0.995,1.52 0.94,1.563 0.877,1.595 0.805,1.617 0.733,1.639 0.657,1.65 0.578,1.65 0.505,1.65 0.435,1.642 0.367,1.627 0.299,1.611 0.24,1.586 0.189,1.551 0.138,1.517 0.097,1.472 0.066,1.416 0.034,1.359 0.019,1.289 0.019,1.206 0.019,1.154 0.028,1.109 0.045,1.07 0.063,1.032 0.088,0.999 0.119,0.972 0.15,0.945 0.186,0.923 0.227,0.906 0.267,0.89 0.31,0.876 0.356,0.866 L 0.9,0.731 C 0.979,0.71 1.054,0.685 1.123,0.655 1.193,0.624 1.255,0.587 1.308,0.542 1.361,0.497 1.403,0.443 1.433,0.378 1.463,0.313 1.478,0.235 1.478,0.144 1.478,0.119 1.476,0.085 1.47,0.044 1.465,0.002 1.453,-0.042 1.433,-0.089 1.413,-0.136 1.385,-0.183 1.348,-0.231 1.312,-0.279 1.262,-0.323 1.199,-0.361 1.135,-0.4 1.056,-0.431 0.963,-0.455 0.869,-0.479 0.756,-0.491 0.625,-0.491 c -0.131,0 -0.253,0.015 -0.366,0.046 -0.112,0.03 -0.208,0.076 -0.287,0.139 -0.079,0.062 -0.14,0.142 -0.183,0.24 -0.043,0.098 -0.061,0.216 -0.055,0.353 l 0.213,0 C -0.055,0.173 -0.037,0.077 0,0"
             style="fill:#336e7d;fill-opacity:1;fill-rule:nonzero;stroke:none"
             id="path2454"
             inkscape:connector-curvature="0" />
        </g>
        <g
           id="g2456"
           transform="translate(224.0812,181.6929)">
          <path
             d="m 0,0 c 0.032,-0.118 0.082,-0.223 0.15,-0.316 0.068,-0.092 0.155,-0.167 0.261,-0.223 0.106,-0.056 0.233,-0.084 0.381,-0.084 0.148,0 0.275,0.028 0.38,0.084 0.105,0.056 0.192,0.131 0.259,0.223 C 1.499,-0.223 1.549,-0.118 1.581,0 1.614,0.118 1.63,0.237 1.63,0.358 1.63,0.481 1.614,0.601 1.581,0.717 1.549,0.834 1.499,0.939 1.431,1.031 1.364,1.124 1.277,1.198 1.172,1.255 1.067,1.311 0.94,1.339 0.792,1.339 0.644,1.339 0.517,1.311 0.411,1.255 0.305,1.198 0.218,1.124 0.15,1.031 0.082,0.939 0.032,0.834 0,0.717 -0.032,0.601 -0.048,0.481 -0.048,0.358 -0.048,0.237 -0.032,0.118 0,0 m -0.195,0.798 c 0.043,0.14 0.109,0.263 0.197,0.371 C 0.089,1.276 0.199,1.361 0.331,1.425 0.464,1.489 0.617,1.52 0.792,1.52 0.967,1.52 1.12,1.489 1.252,1.425 1.383,1.361 1.492,1.276 1.58,1.169 1.667,1.061 1.733,0.938 1.777,0.798 1.82,0.659 1.842,0.512 1.842,0.358 1.842,0.204 1.82,0.057 1.777,-0.083 1.733,-0.222 1.667,-0.345 1.58,-0.452 1.492,-0.558 1.383,-0.643 1.252,-0.706 1.12,-0.77 0.967,-0.802 0.792,-0.802 c -0.175,0 -0.328,0.032 -0.461,0.096 -0.132,0.063 -0.242,0.148 -0.329,0.254 -0.088,0.107 -0.154,0.23 -0.197,0.369 -0.044,0.14 -0.066,0.287 -0.066,0.441 0,0.154 0.022,0.301 0.066,0.44"
             style="fill:#336e7d;fill-opacity:1;fill-rule:nonzero;stroke:none"
             id="path2458"
             inkscape:connector-curvature="0" />
        </g>
        <g
           id="g2460"
           transform="translate(226.8016,183.1663)">
          <path
             d="m 0,0 1.3,-1.887 0.006,0 0,1.887 0.213,0 0,-2.231 -0.238,0 -1.3,1.887 -0.006,0 0,-1.887 -0.213,0 0,2.231 L 0,0 Z"
             style="fill:#336e7d;fill-opacity:1;fill-rule:nonzero;stroke:none"
             id="path2462"
             inkscape:connector-curvature="0" />
        </g>
        <g
           id="g2464"
           transform="translate(229.2922,183.1663)">
          <path
             d="m 0,0 0,-2.05 1.25,0 0,-0.181 -1.462,0 0,2.231 L 0,0 Z"
             style="fill:#336e7d;fill-opacity:1;fill-rule:nonzero;stroke:none"
             id="path2466"
             inkscape:connector-curvature="0" />
        </g>
        <path
           d="m 231.298,180.935 -0.212,0 0,2.231 0.212,0 0,-2.231 z"
           style="fill:#336e7d;fill-opacity:1;fill-rule:nonzero;stroke:none"
           id="path2468"
           inkscape:connector-curvature="0" />
        <g
           id="g2470"
           transform="translate(233.4922,183.1663)">
          <path
             d="m 0,0 0,-0.181 -1.203,0 0,-0.806 1.069,0 0,-0.182 -1.069,0 0,-1.062 -0.213,0 0,2.231 L 0,0 Z"
             style="fill:#336e7d;fill-opacity:1;fill-rule:nonzero;stroke:none"
             id="path2472"
             inkscape:connector-curvature="0" />
        </g>
        <g
           id="g2474"
           transform="translate(235.6079,183.1663)">
          <path
             d="m 0,0 0,-0.181 -1.328,0 0,-0.806 1.244,0 0,-0.182 -1.244,0 0,-0.881 1.344,0 0,-0.181 -1.557,0 0,2.231 L 0,0 Z"
             style="fill:#336e7d;fill-opacity:1;fill-rule:nonzero;stroke:none"
             id="path2476"
             inkscape:connector-curvature="0" />
        </g>
        <g
           id="g2478"
           transform="translate(238.3579,181.1162)">
          <path
             d="M 0,0 C 0.079,0 0.154,0.007 0.225,0.02 0.296,0.034 0.358,0.058 0.413,0.094 0.467,0.129 0.509,0.177 0.541,0.236 0.572,0.295 0.588,0.37 0.588,0.459 0.588,0.603 0.537,0.711 0.436,0.783 0.335,0.855 0.19,0.891 0,0.891 l -0.731,0 L -0.731,0 0,0 Z m 0,1.072 c 0.085,0 0.159,0.01 0.222,0.03 C 0.284,1.121 0.336,1.149 0.378,1.183 0.42,1.217 0.451,1.257 0.472,1.303 0.493,1.349 0.503,1.398 0.503,1.45 0.503,1.729 0.335,1.869 0,1.869 l -0.731,0 0,-0.797 0.731,0 z M 0,2.05 C 0.094,2.05 0.184,2.041 0.27,2.024 0.357,2.006 0.433,1.976 0.498,1.933 0.564,1.89 0.617,1.834 0.656,1.764 0.696,1.694 0.716,1.607 0.716,1.503 0.716,1.445 0.706,1.388 0.688,1.333 0.669,1.278 0.642,1.228 0.608,1.183 0.573,1.138 0.533,1.1 0.486,1.069 0.439,1.038 0.386,1.016 0.328,1.003 l 0,-0.006 C 0.472,0.978 0.586,0.919 0.672,0.82 0.757,0.721 0.8,0.599 0.8,0.453 0.8,0.418 0.797,0.378 0.791,0.333 0.784,0.288 0.772,0.242 0.753,0.195 0.734,0.148 0.707,0.102 0.672,0.056 0.636,0.01 0.589,-0.03 0.53,-0.064 0.47,-0.098 0.397,-0.127 0.311,-0.148 0.224,-0.17 0.121,-0.181 0,-0.181 l -0.944,0 0,2.231 0.944,0 z"
             style="fill:#336e7d;fill-opacity:1;fill-rule:nonzero;stroke:none"
             id="path2480"
             inkscape:connector-curvature="0" />
        </g>
        <g
           id="g2482"
           transform="translate(240.8173,182.1069)">
          <path
             d="M 0,0 C 0.065,0 0.126,0.01 0.184,0.03 0.243,0.049 0.294,0.078 0.338,0.116 0.381,0.153 0.416,0.199 0.442,0.252 0.468,0.305 0.481,0.366 0.481,0.434 0.481,0.572 0.442,0.68 0.363,0.759 0.283,0.839 0.163,0.878 0,0.878 l -0.794,0 L -0.794,0 0,0 Z M 0.016,1.059 C 0.107,1.059 0.194,1.048 0.277,1.025 0.359,1.002 0.431,0.967 0.492,0.92 0.554,0.874 0.603,0.813 0.639,0.739 0.676,0.665 0.694,0.578 0.694,0.478 0.694,0.336 0.657,0.214 0.584,0.109 0.511,0.005 0.403,-0.061 0.259,-0.091 l 0,-0.006 C 0.332,-0.107 0.393,-0.127 0.441,-0.155 0.489,-0.183 0.528,-0.219 0.558,-0.263 0.588,-0.306 0.61,-0.357 0.623,-0.414 0.637,-0.471 0.646,-0.533 0.65,-0.6 0.652,-0.638 0.654,-0.683 0.656,-0.737 0.658,-0.792 0.663,-0.846 0.669,-0.902 0.675,-0.957 0.685,-1.009 0.698,-1.058 0.712,-1.107 0.73,-1.145 0.753,-1.172 l -0.234,0 C 0.506,-1.151 0.496,-1.126 0.489,-1.095 0.482,-1.065 0.477,-1.034 0.473,-1.002 0.47,-0.969 0.468,-0.938 0.466,-0.906 0.464,-0.875 0.461,-0.848 0.459,-0.825 0.455,-0.746 0.448,-0.667 0.439,-0.589 0.43,-0.511 0.41,-0.441 0.38,-0.38 0.349,-0.318 0.306,-0.269 0.248,-0.231 0.191,-0.194 0.113,-0.177 0.013,-0.181 l -0.807,0 0,-0.991 -0.212,0 0,2.231 1.022,0 z"
             style="fill:#336e7d;fill-opacity:1;fill-rule:nonzero;stroke:none"
             id="path2484"
             inkscape:connector-curvature="0" />
        </g>
        <g
           id="g2486"
           transform="translate(242.3501,181.6929)">
          <path
             d="m 0,0 c 0.032,-0.118 0.082,-0.223 0.15,-0.316 0.068,-0.092 0.155,-0.167 0.261,-0.223 0.106,-0.056 0.233,-0.084 0.381,-0.084 0.148,0 0.275,0.028 0.38,0.084 0.105,0.056 0.192,0.131 0.259,0.223 C 1.499,-0.223 1.549,-0.118 1.581,0 1.614,0.118 1.63,0.237 1.63,0.358 1.63,0.481 1.614,0.601 1.581,0.717 1.549,0.834 1.499,0.939 1.431,1.031 1.364,1.124 1.277,1.198 1.172,1.255 1.067,1.311 0.94,1.339 0.792,1.339 0.644,1.339 0.517,1.311 0.411,1.255 0.305,1.198 0.218,1.124 0.15,1.031 0.082,0.939 0.032,0.834 0,0.717 -0.032,0.601 -0.048,0.481 -0.048,0.358 -0.048,0.237 -0.032,0.118 0,0 m -0.195,0.798 c 0.043,0.14 0.109,0.263 0.197,0.371 C 0.089,1.276 0.199,1.361 0.331,1.425 0.464,1.489 0.617,1.52 0.792,1.52 0.967,1.52 1.12,1.489 1.252,1.425 1.383,1.361 1.492,1.276 1.58,1.169 1.667,1.061 1.733,0.938 1.777,0.798 1.82,0.659 1.842,0.512 1.842,0.358 1.842,0.204 1.82,0.057 1.777,-0.083 1.733,-0.222 1.667,-0.345 1.58,-0.452 1.492,-0.558 1.383,-0.643 1.252,-0.706 1.12,-0.77 0.967,-0.802 0.792,-0.802 c -0.175,0 -0.328,0.032 -0.461,0.096 -0.132,0.063 -0.242,0.148 -0.329,0.254 -0.088,0.107 -0.154,0.23 -0.197,0.369 -0.044,0.14 -0.066,0.287 -0.066,0.441 0,0.154 0.022,0.301 0.066,0.44"
             style="fill:#336e7d;fill-opacity:1;fill-rule:nonzero;stroke:none"
             id="path2488"
             inkscape:connector-curvature="0" />
        </g>
        <g
           id="g2490"
           transform="translate(246.0299,181.8101)">
          <path
             d="M 0,0 -0.431,1.144 -0.878,0 0,0 Z m -0.303,1.356 0.875,-2.231 -0.228,0 -0.272,0.694 -1.016,0 -0.269,-0.694 -0.225,0 0.897,2.231 0.238,0 z"
             style="fill:#336e7d;fill-opacity:1;fill-rule:nonzero;stroke:none"
             id="path2492"
             inkscape:connector-curvature="0" />
        </g>
        <g
           id="g2494"
           transform="translate(247.7831,181.1162)">
          <path
             d="M 0,0 C 0.16,0 0.298,0.017 0.414,0.052 0.529,0.086 0.625,0.141 0.7,0.216 0.775,0.291 0.83,0.388 0.866,0.506 0.901,0.625 0.919,0.768 0.919,0.934 0.919,1.101 0.901,1.244 0.866,1.363 0.83,1.481 0.775,1.578 0.7,1.653 0.625,1.728 0.529,1.783 0.414,1.817 0.298,1.852 0.16,1.869 0,1.869 l -0.453,0 L -0.453,0 0,0 Z M 0.106,2.05 C 0.446,2.042 0.702,1.947 0.873,1.764 1.045,1.582 1.131,1.305 1.131,0.934 1.131,0.564 1.045,0.287 0.873,0.105 0.702,-0.078 0.446,-0.173 0.106,-0.181 l -0.772,0 0,2.231 0.772,0 z"
             style="fill:#336e7d;fill-opacity:1;fill-rule:nonzero;stroke:none"
             id="path2496"
             inkscape:connector-curvature="0" />
        </g>
        <g
           id="g2498"
           transform="translate(251.1096,182.721)">
          <path
             d="M 0,0 C -0.043,0.068 -0.095,0.125 -0.156,0.17 -0.218,0.216 -0.286,0.251 -0.36,0.275 -0.433,0.299 -0.511,0.311 -0.592,0.311 -0.74,0.311 -0.867,0.283 -0.973,0.227 -1.08,0.17 -1.167,0.096 -1.234,0.003 -1.302,-0.09 -1.352,-0.194 -1.385,-0.311 -1.417,-0.428 -1.433,-0.547 -1.433,-0.67 c 0,-0.121 0.016,-0.24 0.048,-0.358 0.033,-0.118 0.083,-0.223 0.151,-0.316 0.067,-0.092 0.154,-0.167 0.261,-0.223 0.106,-0.056 0.233,-0.085 0.381,-0.085 0.104,0 0.198,0.019 0.281,0.057 0.083,0.037 0.155,0.088 0.216,0.153 0.06,0.064 0.109,0.14 0.146,0.226 0.038,0.087 0.062,0.18 0.072,0.28 l 0.213,0 C 0.321,-1.073 0.289,-1.197 0.239,-1.308 0.189,-1.418 0.124,-1.512 0.045,-1.589 -0.034,-1.666 -0.127,-1.726 -0.235,-1.767 -0.342,-1.809 -0.461,-1.83 -0.592,-1.83 c -0.175,0 -0.329,0.032 -0.461,0.096 -0.133,0.063 -0.242,0.148 -0.33,0.254 -0.087,0.107 -0.153,0.229 -0.197,0.369 -0.044,0.14 -0.065,0.287 -0.065,0.441 0,0.154 0.021,0.301 0.065,0.44 0.044,0.14 0.11,0.263 0.197,0.371 0.088,0.107 0.197,0.192 0.33,0.256 0.132,0.063 0.286,0.095 0.461,0.095 0.106,0 0.21,-0.015 0.311,-0.047 C -0.18,0.414 -0.089,0.368 -0.006,0.306 0.076,0.245 0.145,0.169 0.2,0.08 0.255,-0.01 0.29,-0.113 0.305,-0.23 l -0.213,0 C 0.074,-0.144 0.043,-0.068 0,0"
             style="fill:#336e7d;fill-opacity:1;fill-rule:nonzero;stroke:none"
             id="path2500"
             inkscape:connector-curvature="0" />
        </g>
        <g
           id="g2502"
           transform="translate(253.2769,181.8101)">
          <path
             d="M 0,0 -0.431,1.144 -0.878,0 0,0 Z m -0.303,1.356 0.875,-2.231 -0.228,0 -0.272,0.694 -1.016,0 -0.269,-0.694 -0.224,0 0.897,2.231 0.237,0 z"
             style="fill:#336e7d;fill-opacity:1;fill-rule:nonzero;stroke:none"
             id="path2504"
             inkscape:connector-curvature="0" />
        </g>
        <g
           id="g2506"
           transform="translate(254.5173,181.382)">
          <path
             d="m 0,0 c 0.038,-0.077 0.089,-0.139 0.155,-0.184 0.066,-0.046 0.143,-0.079 0.232,-0.099 0.09,-0.02 0.186,-0.03 0.288,-0.03 0.059,0 0.122,0.009 0.191,0.025 0.068,0.017 0.133,0.044 0.192,0.08 0.059,0.037 0.109,0.083 0.148,0.141 0.04,0.057 0.06,0.126 0.06,0.208 0,0.062 -0.014,0.116 -0.043,0.162 C 1.195,0.349 1.159,0.387 1.114,0.419 1.069,0.45 1.02,0.475 0.966,0.495 0.911,0.515 0.859,0.531 0.806,0.544 L 0.31,0.666 C 0.245,0.682 0.182,0.703 0.12,0.728 0.059,0.753 0.005,0.786 -0.04,0.828 -0.087,0.87 -0.123,0.921 -0.152,0.981 -0.18,1.042 -0.194,1.116 -0.194,1.203 c 0,0.054 0.011,0.118 0.032,0.191 0.021,0.073 0.06,0.141 0.117,0.206 0.057,0.064 0.136,0.119 0.236,0.164 0.1,0.045 0.228,0.067 0.384,0.067 0.111,0 0.216,-0.014 0.316,-0.043 C 0.991,1.758 1.078,1.714 1.153,1.656 1.228,1.598 1.288,1.525 1.333,1.439 1.378,1.353 1.4,1.252 1.4,1.138 l -0.212,0 C 1.184,1.223 1.164,1.297 1.13,1.361 1.096,1.424 1.05,1.477 0.995,1.52 0.94,1.563 0.877,1.595 0.805,1.617 0.733,1.639 0.658,1.65 0.578,1.65 0.505,1.65 0.435,1.642 0.367,1.627 0.299,1.611 0.24,1.586 0.189,1.551 0.138,1.517 0.097,1.472 0.066,1.416 0.035,1.359 0.019,1.289 0.019,1.206 0.019,1.154 0.028,1.109 0.046,1.07 0.063,1.032 0.088,0.999 0.119,0.972 0.15,0.945 0.186,0.923 0.227,0.906 0.267,0.89 0.311,0.876 0.356,0.866 L 0.9,0.731 C 0.979,0.71 1.054,0.685 1.124,0.655 1.193,0.624 1.255,0.587 1.308,0.542 1.361,0.497 1.403,0.443 1.433,0.378 1.463,0.313 1.478,0.235 1.478,0.144 1.478,0.119 1.476,0.085 1.471,0.044 1.465,0.002 1.453,-0.042 1.433,-0.089 1.413,-0.136 1.385,-0.183 1.348,-0.231 1.312,-0.279 1.262,-0.323 1.199,-0.361 1.135,-0.4 1.057,-0.431 0.963,-0.455 0.869,-0.479 0.757,-0.491 0.625,-0.491 c -0.131,0 -0.253,0.015 -0.365,0.046 -0.113,0.03 -0.209,0.076 -0.288,0.139 -0.079,0.062 -0.14,0.142 -0.183,0.24 -0.042,0.098 -0.061,0.216 -0.055,0.353 l 0.213,0 C -0.055,0.173 -0.037,0.077 0,0"
             style="fill:#336e7d;fill-opacity:1;fill-rule:nonzero;stroke:none"
             id="path2508"
             inkscape:connector-curvature="0" />
        </g>
        <g
           id="g2510"
           transform="translate(258.1739,183.1663)">
          <path
             d="m 0,0 0,-0.181 -0.778,0 0,-2.05 -0.213,0 0,2.05 -0.775,0 0,0.181 L 0,0 Z"
             style="fill:#336e7d;fill-opacity:1;fill-rule:nonzero;stroke:none"
             id="path2512"
             inkscape:connector-curvature="0" />
        </g>
        <path
           d="m 258.924,180.935 -0.212,0 0,2.231 0.212,0 0,-2.231 z"
           style="fill:#336e7d;fill-opacity:1;fill-rule:nonzero;stroke:none"
           id="path2514"
           inkscape:connector-curvature="0" />
        <g
           id="g2516"
           transform="translate(259.9361,183.1663)">
          <path
             d="m 0,0 1.3,-1.887 0.007,0 0,1.887 0.212,0 0,-2.231 -0.238,0 -1.299,1.887 -0.007,0 0,-1.887 -0.212,0 0,2.231 L 0,0 Z"
             style="fill:#336e7d;fill-opacity:1;fill-rule:nonzero;stroke:none"
             id="path2518"
             inkscape:connector-curvature="0" />
        </g>
        <g
           id="g2520"
           transform="translate(263.9676,180.9351)">
          <path
             d="m 0,0 -0.028,0.406 -0.006,0 C -0.072,0.327 -0.118,0.259 -0.173,0.201 -0.229,0.144 -0.29,0.097 -0.356,0.061 -0.423,0.024 -0.494,-0.002 -0.57,-0.019 c -0.076,-0.016 -0.155,-0.025 -0.236,-0.025 -0.175,0 -0.329,0.032 -0.461,0.096 -0.132,0.063 -0.242,0.148 -0.33,0.254 -0.087,0.107 -0.153,0.229 -0.197,0.369 -0.043,0.139 -0.065,0.286 -0.065,0.441 0,0.154 0.022,0.301 0.065,0.44 0.044,0.14 0.11,0.263 0.197,0.371 0.088,0.107 0.198,0.192 0.33,0.256 0.132,0.063 0.286,0.095 0.461,0.095 0.117,0 0.227,-0.015 0.331,-0.047 C -0.371,2.2 -0.278,2.153 -0.197,2.091 -0.115,2.028 -0.047,1.951 0.009,1.859 0.066,1.768 0.104,1.66 0.125,1.538 l -0.212,0 C -0.094,1.602 -0.115,1.667 -0.151,1.733 -0.188,1.798 -0.237,1.858 -0.298,1.912 -0.36,1.967 -0.433,2.011 -0.519,2.045 -0.604,2.08 -0.7,2.097 -0.806,2.097 -0.954,2.097 -1.081,2.069 -1.187,2.013 -1.294,1.956 -1.381,1.882 -1.448,1.789 -1.516,1.696 -1.566,1.592 -1.598,1.475 -1.631,1.358 -1.647,1.239 -1.647,1.116 c 0,-0.121 0.016,-0.24 0.049,-0.358 0.032,-0.118 0.082,-0.223 0.15,-0.316 0.067,-0.093 0.154,-0.167 0.261,-0.223 0.106,-0.057 0.233,-0.085 0.381,-0.085 0.123,0 0.233,0.021 0.329,0.061 0.097,0.041 0.179,0.098 0.246,0.171 0.066,0.072 0.116,0.159 0.15,0.259 0.033,0.1 0.049,0.209 0.047,0.328 l -0.76,0 0,0.181 0.947,0 L 0.153,0 0,0 Z"
             style="fill:#336e7d;fill-opacity:1;fill-rule:nonzero;stroke:none"
             id="path2522"
             inkscape:connector-curvature="0" />
        </g>
        <g
           id="g2524"
           transform="translate(266.2581,183.1663)">
          <path
             d="m 0,0 1.3,-1.887 0.007,0 0,1.887 0.212,0 0,-2.231 -0.238,0 -1.299,1.887 -0.007,0 0,-1.887 -0.212,0 0,2.231 L 0,0 Z"
             style="fill:#336e7d;fill-opacity:1;fill-rule:nonzero;stroke:none"
             id="path2526"
             inkscape:connector-curvature="0" />
        </g>
        <g
           id="g2528"
           transform="translate(270.0771,183.1663)">
          <path
             d="m 0,0 0,-0.181 -1.328,0 0,-0.806 1.244,0 0,-0.182 -1.244,0 0,-0.881 1.344,0 0,-0.181 -1.557,0 0,2.231 L 0,0 Z"
             style="fill:#336e7d;fill-opacity:1;fill-rule:nonzero;stroke:none"
             id="path2530"
             inkscape:connector-curvature="0" />
        </g>
        <g
           id="g2532"
           transform="translate(272.2301,183.1663)">
          <path
             d="m 0,0 0,-0.181 -0.778,0 0,-2.05 -0.213,0 0,2.05 -0.775,0 0,0.181 L 0,0 Z"
             style="fill:#336e7d;fill-opacity:1;fill-rule:nonzero;stroke:none"
             id="path2534"
             inkscape:connector-curvature="0" />
        </g>
        <g
           id="g2536"
           transform="translate(272.7551,183.1663)">
          <path
             d="m 0,0 0.506,-1.953 0.007,0 0.543,1.953 0.266,0 0.547,-1.953 0.006,0 L 2.384,0 2.597,0 1.982,-2.231 l -0.225,0 -0.566,1.997 -0.006,0 -0.563,-1.997 -0.231,0 L -0.228,0 0,0 Z"
             style="fill:#336e7d;fill-opacity:1;fill-rule:nonzero;stroke:none"
             id="path2538"
             inkscape:connector-curvature="0" />
        </g>
        <g
           id="g2540"
           transform="translate(276.0414,181.6929)">
          <path
             d="m 0,0 c 0.032,-0.118 0.082,-0.223 0.15,-0.316 0.067,-0.092 0.155,-0.167 0.261,-0.223 0.106,-0.056 0.233,-0.084 0.381,-0.084 0.148,0 0.274,0.028 0.38,0.084 0.105,0.056 0.191,0.131 0.259,0.223 0.068,0.093 0.118,0.198 0.15,0.316 0.032,0.118 0.048,0.237 0.048,0.358 0,0.123 -0.016,0.243 -0.048,0.359 C 1.549,0.834 1.499,0.939 1.431,1.031 1.363,1.124 1.277,1.198 1.172,1.255 1.066,1.311 0.94,1.339 0.792,1.339 0.644,1.339 0.517,1.311 0.411,1.255 0.305,1.198 0.217,1.124 0.15,1.031 0.082,0.939 0.032,0.834 0,0.717 -0.033,0.601 -0.048,0.481 -0.048,0.358 -0.048,0.237 -0.033,0.118 0,0 m -0.195,0.798 c 0.043,0.14 0.109,0.263 0.196,0.371 0.088,0.107 0.198,0.192 0.33,0.256 C 0.464,1.489 0.617,1.52 0.792,1.52 0.967,1.52 1.12,1.489 1.251,1.425 1.383,1.361 1.492,1.276 1.579,1.169 1.667,1.061 1.733,0.938 1.776,0.798 1.82,0.659 1.842,0.512 1.842,0.358 1.842,0.204 1.82,0.057 1.776,-0.083 1.733,-0.222 1.667,-0.345 1.579,-0.452 1.492,-0.558 1.383,-0.643 1.251,-0.706 1.12,-0.77 0.967,-0.802 0.792,-0.802 c -0.175,0 -0.328,0.032 -0.461,0.096 -0.132,0.063 -0.242,0.148 -0.33,0.254 -0.087,0.107 -0.153,0.23 -0.196,0.369 -0.044,0.14 -0.066,0.287 -0.066,0.441 0,0.154 0.022,0.301 0.066,0.44"
             style="fill:#336e7d;fill-opacity:1;fill-rule:nonzero;stroke:none"
             id="path2542"
             inkscape:connector-curvature="0" />
        </g>
        <g
           id="g2544"
           transform="translate(279.5334,182.1069)">
          <path
             d="m 0,0 c 0.065,0 0.126,0.01 0.184,0.03 0.059,0.019 0.11,0.048 0.153,0.086 0.045,0.037 0.079,0.083 0.105,0.136 0.026,0.053 0.04,0.114 0.04,0.182 0,0.138 -0.04,0.246 -0.119,0.325 C 0.283,0.839 0.163,0.878 0,0.878 l -0.794,0 L -0.794,0 0,0 Z M 0.016,1.059 C 0.107,1.059 0.194,1.048 0.277,1.025 0.359,1.002 0.431,0.967 0.492,0.92 0.554,0.874 0.603,0.813 0.639,0.739 0.676,0.665 0.694,0.578 0.694,0.478 0.694,0.336 0.658,0.214 0.585,0.109 0.512,0.005 0.403,-0.061 0.259,-0.091 l 0,-0.006 C 0.332,-0.107 0.393,-0.127 0.441,-0.155 0.489,-0.183 0.528,-0.219 0.558,-0.263 0.588,-0.306 0.61,-0.357 0.624,-0.414 0.637,-0.471 0.646,-0.533 0.65,-0.6 0.652,-0.638 0.654,-0.683 0.656,-0.737 0.658,-0.792 0.663,-0.846 0.669,-0.902 0.675,-0.957 0.685,-1.009 0.698,-1.058 0.712,-1.107 0.73,-1.145 0.753,-1.172 l -0.234,0 C 0.507,-1.151 0.496,-1.126 0.489,-1.095 0.482,-1.065 0.477,-1.034 0.473,-1.002 0.47,-0.969 0.468,-0.938 0.466,-0.906 0.464,-0.875 0.461,-0.848 0.46,-0.825 0.455,-0.746 0.448,-0.667 0.439,-0.589 0.43,-0.511 0.41,-0.441 0.38,-0.38 0.349,-0.318 0.306,-0.269 0.249,-0.231 0.191,-0.194 0.112,-0.177 0.012,-0.181 l -0.806,0 0,-0.991 -0.212,0 0,2.231 1.022,0 z"
             style="fill:#336e7d;fill-opacity:1;fill-rule:nonzero;stroke:none"
             id="path2546"
             inkscape:connector-curvature="0" />
        </g>
        <g
           id="g2548"
           transform="translate(281.1366,183.1663)">
          <path
             d="M 0,0 0,-1.2 1.297,0 1.585,0 0.587,-0.922 1.631,-2.231 1.356,-2.231 0.428,-1.069 0,-1.466 l 0,-0.765 -0.212,0 0,2.231 L 0,0 Z"
             style="fill:#336e7d;fill-opacity:1;fill-rule:nonzero;stroke:none"
             id="path2550"
             inkscape:connector-curvature="0" />
        </g>
        <g
           id="g2552"
           transform="translate(244.3765,194.928)">
          <path
             d="M 0,0 C -0.064,-0.076 -0.207,-0.108 -0.306,-0.147 -0.503,-0.221 -0.7,-0.295 -0.897,-0.369 -0.993,-0.407 -1.09,-0.444 -1.186,-0.482 -1.382,-0.608 -1.577,-0.734 -1.773,-0.859 -2.209,-1.054 -2.7,-1.199 -3.064,-1.467 c -0.43,-0.316 -0.728,-0.91 -1.37,-0.997 0,-0.516 -0.093,-1.517 0.167,-1.782 0.041,-0.027 0.347,0.145 0.39,0.172 0.25,0.153 0.498,0.336 0.675,0.562 0.078,0.113 0.156,0.226 0.235,0.339 0.201,0.059 0.402,0.118 0.603,0.176 0.175,0.208 0.349,0.417 0.524,0.625 0.16,0.121 0.411,0.146 0.583,0.255 0.088,0.056 0.153,0.147 0.218,0.227 0.107,0.113 0.215,0.226 0.322,0.339 0.058,0.059 0.115,0.118 0.172,0.176 0.166,0.134 0.316,0.274 0.512,0.382 0.093,0.051 0.251,0.051 0.314,0.134 0.123,0.163 0.15,0.432 0.226,0.637 C 0.41,-0.095 0.226,0.004 0,0 m -3.064,-5.843 c -0.144,-0.027 -0.259,0.124 -0.213,0.26 0.027,0.083 0.085,0.1 0.163,0.134 0.273,0.008 0.282,-0.349 0.05,-0.394 m -1.425,1.778 c -0.078,0.2 -0.115,0.62 -0.071,0.901 10e-4,0.072 0.003,0.145 0.004,0.218 0.002,0.125 0.003,0.251 0.004,0.377 -0.073,0.459 -0.093,0.912 -0.218,1.312 -0.472,1.515 -1.371,2.587 -2.112,3.826 -0.239,0.4 -0.427,0.849 -0.641,1.27 C -7.57,3.932 -7.735,4.293 -7.8,4.334 -7.863,4.205 -7.871,3.99 -7.842,3.81 -7.836,3.737 -7.83,3.664 -7.825,3.592 -7.839,3.494 -7.859,3.418 -7.879,3.34 -7.928,3.384 -7.977,3.427 -8.026,3.47 -8.137,3.412 -8.206,3.259 -8.227,3.114 -8.305,3.124 -8.382,3.22 -8.495,3.156 -8.551,3.216 -8.607,3.276 -8.663,3.336 -8.888,3.295 -8.761,2.598 -8.701,2.443 -8.85,2.308 -8.873,2.087 -8.915,1.84 -8.92,1.762 -8.926,1.683 -8.931,1.605 -8.968,1.489 -9.061,1.394 -9.099,1.27 c -0.1,-0.325 0.039,-0.76 0.193,-0.939 -0.155,-0.398 -0.181,-1.064 -0.021,-1.475 0.04,-0.104 0.09,-0.211 0.151,-0.298 0.035,-0.044 0.07,-0.089 0.104,-0.134 0.006,-0.028 -0.044,-0.186 -0.054,-0.247 -10e-4,-0.172 -0.003,-0.344 -0.004,-0.516 -0.039,-0.233 -0.087,-0.593 -0.042,-0.855 0.099,-0.581 0.365,-0.68 0.83,-0.884 0.135,-0.063 0.271,-0.126 0.406,-0.189 0.002,-0.002 0.003,-0.005 0.004,-0.008 -0.041,-0.032 -0.083,-0.064 -0.125,-0.096 -0.194,-0.147 -0.378,-0.306 -0.512,-0.512 -0.038,-0.059 -0.127,-0.195 -0.075,-0.297 0.053,-0.077 0.526,-0.061 0.675,-0.059 l 0,-0.004 c -0.201,-0.514 -0.78,-0.609 -1.396,-0.713 -0.158,-0.008 -0.316,-0.016 -0.473,-0.025 l -0.462,0 c -0.202,0.031 -0.405,0 -0.595,0.029 -0.235,0.038 -0.472,0.025 -0.695,0.063 -0.4,0.069 -1.361,0.156 -1.492,-0.176 -0.009,-0.049 0.069,-0.153 0.092,-0.201 -0.128,-0.052 -0.4,-0.238 -0.348,-0.448 0.027,-0.11 0.101,-0.176 0.138,-0.273 0.043,-0.109 0.052,-0.221 0.138,-0.285 0.295,-0.218 1.043,-0.158 1.547,-0.155 l 0,-0.004 c -0.151,-0.074 -0.302,-0.148 -0.453,-0.222 -0.377,-0.166 -0.773,-0.375 -1.047,-0.65 -0.114,-0.113 -0.275,-0.315 -0.143,-0.519 0.019,-0.03 0.042,-0.07 0.071,-0.088 0.197,-0.056 0.394,-0.112 0.591,-0.168 0.004,-0.011 0.009,-0.022 0.013,-0.034 -0.077,-0.113 -0.163,-0.189 -0.147,-0.389 0.092,-0.045 0.202,-0.061 0.323,-0.08 0.069,-0.011 0.156,0.003 0.218,-0.013 -0.022,-0.15 -0.045,-0.301 -0.067,-0.452 0.257,-0.271 0.62,-0.194 0.985,-0.071 0.061,-0.061 0.084,-0.14 0.172,-0.177 0.208,-0.087 0.495,0.111 0.674,0.151 0.144,0.013 0.288,0.026 0.432,0.038 0.029,0.02 0.059,0.039 0.088,0.059 0.119,0.07 0.238,0.139 0.356,0.209 0.123,0.023 0.246,0.045 0.369,0.067 0.119,0.055 0.238,0.109 0.356,0.164 0.172,0.075 0.363,0.15 0.512,0.256 0.355,0.33 0.709,0.662 1.064,0.993 0.066,0.03 0.132,0.061 0.197,0.092 0.377,0.116 0.642,-0.118 0.713,-0.398 0.028,-0.111 0.006,-0.235 0,-0.348 0.004,-0.003 0.008,-0.006 0.012,-0.008 0.069,0.08 0.084,0.166 0.072,0.314 0.318,-0.029 0.052,-0.384 0.109,-0.545 l 0,-0.008 c 0.056,0.019 0.097,0.125 0.121,0.18 0.15,0.346 -0.061,0.598 -0.218,0.813 -0.038,0.052 -0.091,0.101 -0.117,0.163 -0.013,0.056 0.057,0.131 0.084,0.168 0.099,0.143 0.226,0.281 0.36,0.39 0.304,0.245 0.567,0.553 0.91,0.758 0.157,0.07 0.315,0.14 0.473,0.21 0.187,0.126 0.215,0.385 0.478,0.444 0.329,0.075 0.525,-0.321 0.733,-0.423 0.022,0.448 0.383,1.052 0.113,1.437 -0.396,0.568 -1.503,0.343 -1.781,1.053"
             style="fill:#c6d1cf;fill-opacity:1;fill-rule:nonzero;stroke:none"
             id="path2554"
             inkscape:connector-curvature="0" />
        </g>
        <g
           id="g2556"
           transform="translate(235.2366,193.9899)">
          <path
             d="M 0,0 C -0.01,0.077 -0.02,0.154 -0.03,0.231 -0.034,0.323 -0.039,0.414 -0.043,0.505 -0.012,0.688 -0.018,0.86 0.026,1.02 0.044,1.095 0.063,1.171 0.081,1.247 0.047,1.31 0.013,1.373 -0.021,1.435 -0.079,1.567 -0.11,1.709 -0.137,1.872 -0.191,2.194 -0.007,2.382 0.069,2.579 0.083,2.716 0.097,2.854 0.111,2.991 0.044,2.979 -0.069,3.025 -0.137,3.042 -0.33,3.085 -0.523,3.128 -0.716,3.171 -1.387,3.319 -2.058,3.468 -2.729,3.616 -3.59,3.065 -4.452,2.514 -5.313,1.962 l -0.009,0 c 1.333,-0.395 2.666,-0.791 3.998,-1.187 l 0,-0.004 c -4.193,-3.082 -8.387,-6.164 -12.58,-9.246 -10e-4,-0.003 -0.003,-0.006 -0.004,-0.009 l 6.127,0 c 2.678,2.284 5.356,4.568 8.034,6.851 0.045,0.107 0.023,0.337 0.021,0.472 -0.002,0.174 0.029,0.308 0.052,0.441 C 0.177,-0.507 0.074,-0.299 0,0 M 8.085,5.069 C 6.874,5.07 5.663,5.072 4.452,5.073 3.942,4.698 3.432,4.322 2.922,3.946 2.792,3.851 2.662,3.755 2.532,3.659 2.49,3.628 2.428,3.557 2.378,3.552 2.401,3.451 2.56,3.259 2.618,3.166 2.801,2.886 2.984,2.606 3.166,2.327 3.609,1.623 4.029,0.931 4.358,0.103 4.485,-0.219 4.604,-0.586 4.649,-0.981 5.693,-0.26 6.737,0.461 7.781,1.183 7.784,1.187 7.787,1.191 7.79,1.195 6.673,1.45 5.556,1.704 4.439,1.958 5.651,2.991 6.864,4.023 8.077,5.056 8.08,5.06 8.082,5.064 8.085,5.069"
             style="fill:#336e7d;fill-opacity:1;fill-rule:evenodd;stroke:none"
             id="path2558"
             inkscape:connector-curvature="0" />
        </g>
      </g>
    </g>
  </g>
</svg>
