<?xml version="1.0" encoding="UTF-8" standalone="no"?>
<svg
   xmlns:dc="http://purl.org/dc/elements/1.1/"
   xmlns:cc="http://creativecommons.org/ns#"
   xmlns:rdf="http://www.w3.org/1999/02/22-rdf-syntax-ns#"
   xmlns:svg="http://www.w3.org/2000/svg"
   xmlns="http://www.w3.org/2000/svg"
   xmlns:xlink="http://www.w3.org/1999/xlink"
   xmlns:sodipodi="http://sodipodi.sourceforge.net/DTD/sodipodi-0.dtd"
   xmlns:inkscape="http://www.inkscape.org/namespaces/inkscape"
   width="468pt"
   height="564pt"
   viewBox="0 0 468 564"
   version="1.1"
   id="svg30"
   sodipodi:docname="Sony Mix.svg"
   inkscape:version="0.92.0 r15299"
   inkscape:export-filename="C:\Users\Jasmeet\Desktop\Sony Mix3.png"
   inkscape:export-xdpi="90"
   inkscape:export-ydpi="90">
  <metadata
     id="metadata36">
    <rdf:RDF>
      <cc:Work
         rdf:about="">
        <dc:format>image/svg+xml</dc:format>
        <dc:type
           rdf:resource="http://purl.org/dc/dcmitype/StillImage" />
        <dc:title />
      </cc:Work>
    </rdf:RDF>
  </metadata>
  <defs
     id="defs34">
    <linearGradient
       inkscape:collect="always"
       id="linearGradient4787">
      <stop
         style="stop-color:#0ea786;stop-opacity:1;"
         offset="0"
         id="stop4783" />
      <stop
         style="stop-color:#09a885;stop-opacity:1"
         offset="1"
         id="stop4785" />
    </linearGradient>
    <linearGradient
       inkscape:collect="always"
       id="linearGradient4779">
      <stop
         style="stop-color:#fba819;stop-opacity:1;"
         offset="0"
         id="stop4775" />
      <stop
         style="stop-color:#faa21b;stop-opacity:1"
         offset="1"
         id="stop4777" />
    </linearGradient>
    <linearGradient
       inkscape:collect="always"
       id="linearGradient4771">
      <stop
         style="stop-color:#bc1e51;stop-opacity:1;"
         offset="0"
         id="stop4767" />
      <stop
         style="stop-color:#bc1e48;stop-opacity:1"
         offset="1"
         id="stop4769" />
    </linearGradient>
    <linearGradient
       inkscape:collect="always"
       id="linearGradient4763">
      <stop
         style="stop-color:#ed145a;stop-opacity:1;"
         offset="0"
         id="stop4759" />
      <stop
         style="stop-color:#ed1459;stop-opacity:1"
         offset="1"
         id="stop4761" />
    </linearGradient>
    <linearGradient
       inkscape:collect="always"
       id="linearGradient4755">
      <stop
         style="stop-color:#c82d65;stop-opacity:1;"
         offset="0"
         id="stop4751" />
      <stop
         style="stop-color:#c43895;stop-opacity:1"
         offset="1"
         id="stop4753" />
    </linearGradient>
    <linearGradient
       id="linearGradient4749"
       inkscape:collect="always">
      <stop
         id="stop4745"
         offset="0"
         style="stop-color:#f68d1f;stop-opacity:1" />
      <stop
         style="stop-color:#f36e2a;stop-opacity:1"
         offset="0.39021045"
         id="stop4571" />
      <stop
         id="stop4747"
         offset="1"
         style="stop-color:#ed2237;stop-opacity:1" />
    </linearGradient>
    <linearGradient
       inkscape:collect="always"
       id="linearGradient4530">
      <stop
         style="stop-color:#f58220;stop-opacity:1;"
         offset="0"
         id="stop4526" />
      <stop
         style="stop-color:#ed2237;stop-opacity:1"
         offset="1"
         id="stop4528" />
    </linearGradient>
    <linearGradient
       inkscape:collect="always"
       xlink:href="#linearGradient4530"
       id="linearGradient4536"
       x1="233.23253"
       y1="111.29291"
       x2="233.23253"
       y2="424.11435"
       gradientUnits="userSpaceOnUse"
       gradientTransform="scale(1.3333333)" />
    <linearGradient
       inkscape:collect="always"
       xlink:href="#linearGradient4755"
       id="linearGradient4757"
       x1="184.67342"
       y1="132.18874"
       x2="405.5506"
       y2="275.40482"
       gradientUnits="userSpaceOnUse" />
    <linearGradient
       inkscape:collect="always"
       xlink:href="#linearGradient4763"
       id="linearGradient4765"
       x1="148.76546"
       y1="133.24434"
       x2="430.9046"
       y2="299.27362"
       gradientUnits="userSpaceOnUse" />
    <linearGradient
       inkscape:collect="always"
       xlink:href="#linearGradient4771"
       id="linearGradient4773"
       x1="123.22724"
       y1="160.72067"
       x2="423.3002"
       y2="336.88913"
       gradientUnits="userSpaceOnUse" />
    <linearGradient
       inkscape:collect="always"
       xlink:href="#linearGradient4779"
       id="linearGradient4781"
       x1="107.52593"
       y1="136.312"
       x2="443.57861"
       y2="384.7222"
       gradientUnits="userSpaceOnUse" />
    <linearGradient
       inkscape:collect="always"
       xlink:href="#linearGradient4787"
       id="linearGradient4789"
       x1="82.8293"
       y1="142.12054"
       x2="328.7865"
       y2="356.31097"
       gradientUnits="userSpaceOnUse" />
    <linearGradient
       inkscape:collect="always"
       xlink:href="#linearGradient4749"
       id="linearGradient4567"
       x1="194.89641"
       y1="170.31973"
       x2="304.52051"
       y2="394.94473"
       gradientUnits="userSpaceOnUse" />
  </defs>
  <sodipodi:namedview
     pagecolor="#ffffff"
     bordercolor="#666666"
     borderopacity="1"
     objecttolerance="10"
     gridtolerance="10"
     guidetolerance="10"
     inkscape:pageopacity="0"
     inkscape:pageshadow="2"
     inkscape:window-width="1920"
     inkscape:window-height="1017"
     id="namedview32"
     showgrid="false"
     showguides="false"
     inkscape:zoom="0.70710678"
     inkscape:cx="317.86623"
     inkscape:cy="307.85064"
     inkscape:window-x="-8"
     inkscape:window-y="-8"
     inkscape:window-maximized="1"
     inkscape:current-layer="svg30" />
  <path
     style="opacity:1;fill:#ffffff;fill-opacity:1;stroke-width:0.75296748"
     d="m 10.8705,121.71975 h 447.39975 v 331.2 H 10.8705 Z"
     id="rect4742"
     inkscape:connector-curvature="0"
     sodipodi:nodetypes="ccccc" />
  <path
     style="opacity:1;fill:url(#linearGradient4536);fill-opacity:1;stroke-width:1.33333337"
     d="M 0 148.21289 L 0 752 L 624 752 L 624 148.2793 L 0 148.21289 z M 15.494141 163.29297 L 107.62695 163.29297 C 95.547966 187.79836 89.533879 214.92432 86.701172 241.95508 C 85.004252 266.43376 85.700583 291.16334 90.470703 315.28125 C 90.68449 316.08296 91.137763 317.66118 91.351562 318.46289 C 92.500669 324.42224 94.237799 330.26127 96.068359 336.04688 C 96.161826 336.28739 96.347873 336.75557 96.441406 336.99609 C 96.65518 337.69092 97.108791 339.09231 97.335938 339.78711 C 97.429537 340.02763 97.619371 340.49552 97.712891 340.72266 C 99.636997 345.9471 101.64045 351.15928 104.07227 356.16992 C 104.13907 356.30355 104.25936 356.55581 104.32617 356.68945 C 105.54208 359.21481 106.79796 361.72958 108.10742 364.21484 C 108.16089 364.33511 108.28084 364.56106 108.34766 364.66797 C 118.40903 383.80194 131.99809 400.9714 147.81836 415.64258 C 162.55635 429.77928 179.65851 441.2439 197.50977 451.07812 C 220.19798 463.66485 244.34336 473.45933 268.72852 482.22461 C 274.79472 484.22886 280.76858 486.56517 286.95508 488.19531 C 338.33088 505.21817 392.17665 513.32834 443.53906 530.41797 C 459.25245 535.8562 475.06096 542.07149 488.28906 552.38672 C 499.28576 560.48393 507.43632 573.07008 508.47852 586.85938 C 508.45185 592.45792 506.51418 597.8953 504.0957 602.89258 L 15.626953 602.89258 L 15.494141 163.29297 z M 378.86523 210.99414 C 385.10375 210.95802 391.35838 211.19064 397.52148 211.2207 C 419.22092 212.18276 441.09575 216.33901 460.87109 225.55859 C 469.55624 229.44686 476.67793 236.42196 481.06055 244.83984 C 486.77939 255.8499 488.08853 268.47748 487.52734 280.7168 C 528.36078 281.09092 569.19393 280.75674 610.02734 280.87695 L 610.02734 378.88672 C 598.00178 373.3416 585.57383 368.75566 573.1875 364.11914 C 541.94779 353.08237 510.25454 343.18342 477.97266 335.6875 L 476.42383 335.21875 C 443.36693 326.27975 409.90848 318.43513 377.69336 306.63672 C 366.53632 302.46785 355.48516 297.83177 345.16992 291.8457 C 335.68312 286.22041 327.30625 278.30956 322.24219 268.42188 C 322.17539 268.28825 322.04172 268.0226 321.98828 267.90234 C 318.15344 260.27281 317.59171 251.37472 319.35547 243.11719 C 319.40894 242.90339 319.52856 242.48754 319.58203 242.28711 C 319.80915 241.5923 320.25138 240.20263 320.47852 239.50781 L 320.65234 238.90625 L 320.90625 238.50586 C 325.95698 227.10831 336.99317 219.81246 348.31055 215.60352 C 358.11469 211.86224 368.46771 211.05434 378.86523 210.99414 z M 190.42969 293.46875 C 190.75009 294.77881 191.09383 296.08303 191.45898 297.37891 C 191.66332 298.084 191.87741 298.785 192.10352 299.48047 C 191.87698 298.785 191.66137 298.084 191.45703 297.37891 C 191.09188 296.08303 190.74967 294.77882 190.42969 293.46875 z M 225.69531 342.43555 C 226.87857 343.27439 228.07601 344.08879 229.28516 344.87891 C 230.74868 345.81423 232.22401 346.73362 233.71094 347.63672 C 232.22401 346.73405 230.74868 345.81618 229.28516 344.88086 C 228.07601 344.09074 226.87857 343.2748 225.69531 342.43555 z M 436.51953 375.05859 C 433.33146 375.14233 430.14406 375.23714 426.95703 375.3457 C 424.84255 375.40424 422.72992 375.48363 420.61719 375.58203 C 422.72995 375.48363 424.84449 375.40219 426.95898 375.34375 C 430.14534 375.23521 433.33257 375.14185 436.51953 375.05859 z M 560.14844 376.86719 C 562.72865 377.07739 565.30565 377.31199 567.88281 377.57422 C 569.86139 377.73581 571.83849 377.91668 573.81445 378.10938 C 571.83849 377.91682 569.86139 377.73777 567.88281 377.57617 C 565.30565 377.31399 562.72866 377.07739 560.14844 376.86719 z M 83.355469 539.41992 L 83.355469 602.89062 L 311.6875 602.89062 L 311.6875 539.41992 L 83.355469 539.41992 z "
     transform="scale(0.75)"
     id="path6" />
  <path
     style="opacity:1;fill:#ffffff"
     inkscape:connector-curvature="0"
     id="path19"
     d="m 218.6205,475.89017 c -0.32,-4.17 4.45974,-6.92967 8.23974,-6.76967 h 34.39026 v 74.91967 c 0.11,4.13 -4.51026,6.61983 -8.21026,6.39983 H 218.6205 Z"
     sodipodi:nodetypes="ccccccc" />
  <path
     style="opacity:1;fill:#fbd8da;fill-opacity:1;stroke-width:1.33333337"
     d="M 216.02734 626.24023 C 212.26734 626.21357 208.53398 627.34638 205.33398 629.37305 C 186.97398 640.27971 168.61391 651.21444 150.25391 662.12109 C 131.73391 651.10776 113.22669 640.08076 94.693359 629.10742 C 92.293907 627.60776 89.556757 626.74412 86.763672 626.41211 C 86.763027 626.41203 86.762363 626.41219 86.761719 626.41211 C 86.296738 626.35688 85.830081 626.31734 85.363281 626.29102 C 85.362631 626.29098 85.361979 626.29105 85.361328 626.29102 C 84.89388 626.26469 84.427604 626.25224 83.960938 626.25391 L 50.787109 626.25391 L 50.787109 657.10742 L 50.787109 725.42773 C 50.267109 730.8544 56.266224 734.66594 61.212891 734.58594 L 107.35938 734.58594 L 107.35938 691.58008 C 107.79202 691.8419 108.22259 692.1065 108.65625 692.36914 L 139.51953 711.17383 C 139.9112 711.43216 140.31144 711.67375 140.7207 711.90039 C 140.92393 712.01297 141.13466 712.11009 141.3418 712.21484 C 141.55192 712.32108 141.7588 712.43503 141.97266 712.5332 C 141.97318 712.53345 141.97408 712.53296 141.97461 712.5332 C 142.39862 712.7278 142.82869 712.90743 143.26562 713.07031 C 144.5786 713.55994 145.94409 713.90515 147.33203 714.10742 C 147.7945 714.1748 148.25846 714.22634 148.72461 714.26172 C 149.19138 714.2972 149.65881 714.31697 150.12695 714.32031 C 151.52881 714.33031 152.9322 714.19521 154.30469 713.91602 C 154.30531 713.91589 154.30602 713.91614 154.30664 713.91602 C 155.22203 713.72971 156.12281 713.47953 157.00195 713.16406 C 158.32066 712.69086 159.58844 712.07164 160.77344 711.30664 C 171.33579 704.87874 182.19338 698.3666 193.13281 691.79297 L 193.13281 734.58594 L 238.85352 734.58594 C 243.93352 734.75927 250.11994 731.06773 249.61328 725.42773 L 249.61328 657.13477 L 249.61328 626.24023 L 216.02734 626.24023 z "
     transform="scale(0.75)"
     id="path23" />
  <path
     style="opacity:1;fill:#fbd8da;stroke-width:1.33333337"
     d="m 583.77344,626.201 h -57.09375 c -9.29334,0.0133 -19.74615,0.10679 -27.13281,6.61345 L 372.41406,734.414 h 56.97266 c 5.68,-0.0933 11.547,0.58548 17.01367,-1.28119 4.09333,-1.32 7.47951,-4.05234 10.82617,-6.65234 z"
     transform="scale(0.75)"
     id="path168"
     inkscape:connector-curvature="0"
     sodipodi:nodetypes="cccccccc" />
  <path
     style="opacity:1;fill:#ffffff"
     inkscape:connector-curvature="0"
     id="path21"
     d="m 277.27024,469.25025 h 43.72 c 5.67,0.09 11.86,0.58992 16.48,4.26992 l 96.63,77.79 -40.09,-1.7e-4 c -4.6,-0.02 -9.26,0.38017 -13.8,-0.50983 -3.69,-0.78 -6.79,-3.07 -9.66,-5.39 z"
     sodipodi:nodetypes="cccccccc" />
  <path
     d="M 468.00003,108.06 H 0 V -0.93266123 h 468.00003 z"
     id="path12"
     inkscape:connector-curvature="0"
     style="fill:#000000;fill-rule:nonzero;stroke-width:0.07604316" />
  <path
     d="m 168.15424,94.600361 c -16.3219,0 -31.46438,-4.895051 -41.58496,-13.976733 -7.63397,-6.846774 -11.31674,-16.180464 -11.31674,-25.765704 0,-9.459769 3.84048,-18.856422 11.31674,-25.67141 9.39665,-8.56246 25.98623,-13.929586 41.58496,-13.929586 17.2983,0 31.11762,4.359858 41.69447,13.945555 7.52363,6.831033 11.14336,16.165255 11.14336,25.656201 0,9.208067 -3.84048,18.997863 -11.14336,25.765704 -9.85368,9.144951 -25.32466,13.976733 -41.69447,13.976733 v -10.46658 c 8.67196,0 16.69984,-2.99055 22.31867,-8.578429 5.58765,-5.540429 8.16932,-12.355493 8.16932,-20.698188 0,-7.979969 -2.80166,-15.441324 -8.16932,-20.745335 -5.54043,-5.445983 -13.77218,-8.515313 -22.31867,-8.515313 -8.56246,0 -16.79489,3.037773 -22.33463,8.515313 -5.35147,5.304239 -8.15335,12.780574 -8.15335,20.745335 0,7.948791 2.83321,15.408625 8.15335,20.698188 5.54042,5.50887 13.741,8.578429 22.33463,8.578429 v 10.46658 z"
     id="path28"
     inkscape:connector-curvature="0"
     style="fill:#ffffff;fill-rule:nonzero;stroke-width:0.07604316" />
  <path
     d="m 55.080342,15.307116 c -8.735838,0 -18.651866,1.62124 -27.072125,5.383019 -7.791383,3.478443 -14.150112,9.097044 -14.150112,18.400164 -0.01572,8.373872 5.320056,13.28474 5.178388,13.158508 2.266542,2.077651 5.918211,5.634798 15.456532,7.728266 4.249748,0.92864 13.363065,2.360988 22.429691,3.321033 9.018718,0.94438 17.880028,1.841614 21.484477,2.754436 2.880363,0.724029 7.681119,1.731426 7.681119,7.130111 0,5.383019 -5.052459,7.035665 -5.949617,7.381965 -0.881416,0.362019 -6.972704,3.147959 -17.896,3.147959 -8.106201,0 -17.817673,-2.439617 -21.359003,-3.698815 -4.092338,-1.448014 -8.357903,-3.368256 -12.355492,-8.26361 -0.991603,-1.211976 -2.56562,-4.533009 -2.56562,-7.82256 H 16.04351 V 91.69247 h 11.017893 v -3.761779 c 0,-0.424975 0.535146,-2.172097 2.39247,-1.337827 2.282283,1.038825 9.049897,3.730373 16.101379,5.209869 5.792207,1.196235 9.522124,2.061986 16.715807,2.061986 11.741825,0 18.05341,-1.904577 22.412964,-3.147959 4.10808,-1.164753 9.192097,-3.289627 13.315918,-6.579254 2.235059,-1.778573 7.130109,-6.327399 7.130109,-14.60637 0,-7.948791 -4.26549,-12.874867 -5.776465,-14.370636 -2.030428,-2.04617 -4.533008,-3.620187 -7.130111,-4.847828 -2.250801,-1.070383 -5.83943,-2.345247 -8.751807,-3.069254 C 77.773829,45.858368 64.94603,44.142682 58.807826,43.49738 52.385981,42.820573 41.210678,41.907622 36.75607,40.522572 c -1.369386,-0.440716 -4.10808,-1.731351 -4.10808,-4.926609 0,-2.282283 1.259199,-4.218266 3.746038,-5.776466 3.966411,-2.471175 11.946381,-4.029375 20.273107,-4.029375 9.837703,-0.01572 18.179638,2.23506 23.467682,4.596048 1.810056,0.802712 3.919189,1.967465 5.603393,3.33685 1.88876,1.54246 4.548825,4.753382 5.493205,9.223275 h 8.909215 v -24.19085 h -9.931995 v 2.817399 c 0,0.912974 -0.94438,2.093392 -2.707213,1.117531 -4.45438,-2.329431 -17.01542,-7.366225 -32.424046,-7.381966"
     id="path30"
     inkscape:connector-curvature="0"
     style="fill:#ffffff;fill-rule:nonzero;stroke-width:0.07604316" />
  <path
     d="m 260.26532,19.691765 48.46307,43.724817 -0.50368,-29.434026 c -0.0472,-3.871966 -0.7555,-5.477465 -4.94227,-5.477465 h -9.11682 v -8.798194 h 41.44276 v 8.798194 h -8.89324 c -4.24975,0 -4.53301,1.369385 -4.59605,5.477465 l 0.7555,56.254448 H 308.6971 L 252.89968,40.43786 v 35.351704 c 0.0629,3.824819 0.23609,5.634798 4.20244,5.634798 h 9.94721 v 8.814163 h -40.68765 v -8.814163 h 9.52212 c 3.54141,0 3.39982,-3.384072 3.39982,-5.83943 V 34.31707 c 0,-2.65999 -0.37776,-5.792208 -5.94962,-5.792208 h -7.71154 V 19.69473 h 34.64374 z"
     id="path32"
     inkscape:connector-curvature="0"
     style="fill:#ffffff;fill-rule:nonzero;stroke-width:0.07604316" />
  <path
     d="m 382.93815,81.414477 c 0.36202,0 2.12487,-0.06295 2.45543,-0.157402 0.94438,-0.299055 1.60542,-0.975862 1.90458,-1.699869 0.12592,-0.283314 0.18887,-1.62124 0.18887,-1.88876 V 63.741141 c 0,-0.314803 -0.0157,-0.472197 -0.59811,-1.22764 -0.61385,-0.802712 -25.37256,-28.866744 -26.49039,-30.094841 -1.41661,-1.526795 -3.88778,-3.919189 -7.63397,-3.919189 h -8.61797 v -8.798193 h 48.58929 v 8.798193 h -5.85517 c -1.33783,0 -2.2508,1.290681 -1.10179,2.72303 0,0 16.35384,19.549175 16.49529,19.753731 0.17312,0.204625 0.29904,0.25184 0.48793,0.06295 0.22035,-0.188883 16.76219,-19.643469 16.90439,-19.800878 0.78697,-0.928639 0.25184,-2.73877 -1.44801,-2.73877 h -6.0284 V 19.70134 h 39.82152 v 8.798194 h -8.89249 c -3.22666,0 -4.54882,0.61385 -6.95703,3.35259 -1.13327,1.259199 -26.11246,29.8112 -26.82043,30.582278 -0.34627,0.393501 -0.31479,0.991603 -0.31479,1.306422 v 13.914378 c 0,0.283314 0.063,1.605424 0.18887,1.904577 0.29907,0.708289 0.94438,1.400868 1.90458,1.699869 0.33053,0.09445 2.04617,0.141661 2.42395,0.141661 h 9.11302 v 8.814163 h -48.33608 v -8.814163 l 8.62482,0.01572 z"
     id="path34"
     inkscape:connector-curvature="0"
     style="fill:#ffffff;fill-rule:nonzero;stroke-width:0.07604316" />
  <path
     style="opacity:1;fill:url(#linearGradient4567);stroke-width:1.00212908;fill-opacity:1"
     d="m 80.719464,122.46975 c -9.059247,18.37904 -13.569474,38.72287 -15.693988,58.99594 -1.272704,18.35902 -0.750305,36.90732 2.827296,54.99575 0.16034,0.60128 0.500242,1.78416 0.660583,2.38544 0.861831,4.46951 2.164873,8.84897 3.537789,13.18818 0.07015,0.18038 0.210232,0.53157 0.280382,0.71195 0.16034,0.52112 0.500496,1.57222 0.670858,2.09332 0.07015,0.18038 0.2117,0.53134 0.281849,0.70169 1.443066,3.91834 2.945535,7.82718 4.769411,11.58517 0.05011,0.10021 0.140729,0.29025 0.190835,0.39047 0.911938,1.89403 1.854008,3.77888 2.836104,5.64284 0.04008,0.0902 0.130452,0.2604 0.180559,0.34058 7.54603,14.35048 17.737728,27.22677 29.602928,38.23015 11.05349,10.60253 23.8802,19.2018 37.26864,26.57746 17.01616,9.44005 35.12442,16.78572 53.41329,23.35969 4.54965,1.50319 9.0298,3.25615 13.66967,4.47875 38.53185,12.76714 78.91666,18.84967 117.43847,31.66689 11.78503,4.07867 23.64095,8.73999 33.56203,16.47641 8.24752,6.07291 14.36037,15.51179 15.14203,25.85376 -0.02,4.19891 -1.47291,8.27759 -3.28677,12.02555 h 79.44907 v -20.65277 -65.24946 -37.20846 -44.89469 c -9.01916,-4.15884 -18.34025,-7.59693 -27.62999,-11.07432 -23.42978,-8.27758 -47.19907,-15.70315 -71.4105,-21.32509 l -1.16263,-0.35084 c -24.79267,-6.70424 -49.88563,-12.58785 -74.04697,-21.43666 -8.36778,-3.12665 -16.65669,-6.60384 -24.39314,-11.09339 -7.1151,-4.21897 -13.39764,-10.15135 -17.1957,-17.56711 -0.0501,-0.10021 -0.15076,-0.30028 -0.19085,-0.39048 -2.87612,-5.72215 -3.29722,-12.39565 -1.9744,-18.5888 0.0401,-0.16035 0.13019,-0.4721 0.17028,-0.62242 0.17036,-0.52111 0.50197,-1.5634 0.67233,-2.08451 l 0.13065,-0.45067 0.18936,-0.30093 c 3.78805,-8.54816 12.06639,-14.01992 20.55442,-17.17663 11.76499,-4.48953 24.58132,-3.34689 36.90751,-3.28677 16.27457,0.72154 32.68057,3.83814 47.51207,10.75283 6.51385,2.9162 11.85509,8.14749 15.14203,14.4609 4.28913,8.25754 5.27105,17.72826 4.85016,26.90776 30.62507,0.28059 61.25031,0.0302 91.87537,0.12036 v -73.67704 -14.5108 H 259.74044 178.0263 146.55905 142.4605 99.168821 84.938388 Z m -3.757984,20.26816 c -0.446882,1.38316 -0.877039,2.77221 -1.29034,4.16608 0.413477,-1.39446 0.843254,-2.78233 1.29034,-4.16608 z m -4.56096,16.83606 c -0.627342,2.8404 -1.188866,5.69523 -1.685222,8.56115 0.496355,-2.86592 1.05788,-5.72075 1.685222,-8.56115 z m -3.517239,21.88878 c -0.284456,2.76655 -0.513267,5.53794 -0.681134,8.31015 0.167894,-2.77265 0.396613,-5.54316 0.681134,-8.31015 z m 73.268949,35.67737 c 0.41297,1.98354 0.89381,3.95005 1.44154,5.89387 0.30651,1.05764 0.64585,2.10077 1.01729,3.1297 -0.37177,-1.02893 -0.71225,-2.07206 -1.01876,-3.1297 -0.54772,-1.94382 -1.02752,-3.91034 -1.44007,-5.89387 z m 27.11914,39.68637 c 0.88744,0.62913 1.7854,1.23942 2.69225,1.83201 2.19529,1.40298 4.42589,2.75973 6.69096,4.06186 -2.26506,-1.30178 -4.49567,-2.6574 -6.69096,-4.06038 -0.90685,-0.59259 -1.80481,-1.20405 -2.69225,-1.83349 z m 3.41155,10.98476 c 1.91574,1.21868 3.86876,2.37734 5.85422,3.47467 -1.98546,-1.09733 -3.93847,-2.25596 -5.85422,-3.47467 z m -77.452647,12.36612 c 1.076791,1.39531 2.180346,2.76943 3.308785,4.12057 -1.12868,-1.35144 -2.231784,-2.72494 -3.308785,-4.12057 z m 239.775537,0.94537 c -4.92997,0.091 -9.86028,0.21821 -14.78826,0.38607 -1.58586,0.0439 -3.17018,0.10383 -4.75472,0.17763 1.58457,-0.0738 3.17033,-0.13526 4.7562,-0.17909 4.92797,-0.16786 9.8569,-0.29365 14.78678,-0.38461 z m 85.10514,1.52815 c 1.93516,0.15765 3.86852,0.33326 5.80139,0.52993 5.93573,0.48478 11.8533,1.1885 17.77262,1.85258 -5.91929,-0.66364 -11.83689,-1.36633 -17.77262,-1.85111 -1.93287,-0.19664 -3.86622,-0.37375 -5.80139,-0.5314 z m -317.52178,6.39885 c 0.80151,0.89282 1.62433,1.76544 2.46471,2.62031 -0.84038,-0.85487 -1.6632,-1.72749 -2.46471,-2.62031 z m 5.03658,5.13346 c 3.49287,3.28755 7.22367,6.33202 11.00092,9.29074 -3.77725,-2.95872 -7.50805,-6.00319 -11.00092,-9.29074 z m 16.39862,13.36873 c 2.57986,1.84162 5.22105,3.5914 7.91377,5.25532 -2.69272,-1.66383 -5.33391,-3.41374 -7.91377,-5.25532 z m 266.55116,69.24086 c 4.11966,2.2249 8.20948,4.50334 12.25897,6.85099 -4.04948,-2.34765 -8.13932,-4.62609 -12.25897,-6.85099 z m 34.21969,20.70268 c 1.33797,0.94298 2.6623,1.90674 3.96937,2.89335 -1.30707,-0.98661 -2.6314,-1.95037 -3.96937,-2.89335 z m 9.72672,7.48954 c 1.8742,1.5854 3.69907,3.22544 5.46669,4.92502 0.58946,0.56678 1.17224,1.14034 1.74834,1.72045 1.72732,1.73937 3.39285,3.53842 4.98667,5.40357 -1.59384,-1.86512 -3.25934,-3.66423 -4.98667,-5.40357 -0.57586,-0.57987 -1.15914,-1.15392 -1.74834,-1.72045 -1.76736,-1.69933 -3.59278,-3.33984 -5.46669,-4.92502 z"
     id="path7-2"
     inkscape:connector-curvature="0" />
  <path
     style="opacity:1;fill:url(#linearGradient4789);stroke-width:1.00212908;fill-opacity:1"
     inkscape:connector-curvature="0"
     id="path10"
     d="m 84.938425,122.47001 h 14.230234 c -7.075032,19.24088 -11.33408,39.63421 -11.775017,60.15781 -0.911938,17.84792 2.435173,36.01652 10.331951,52.11071 7.305517,15.42277 18.288857,28.92145 31.055977,40.16534 21.05474,18.359 46.23824,31.52698 72.58421,40.54614 9.44006,3.27696 19.15069,5.71214 28.77113,8.38782 25.43404,7.04497 50.98833,13.63898 76.44241,20.57371 22.17712,6.23324 44.58472,12.41638 65.29873,22.67818 -20.17286,-3.54753 -40.42589,-6.65413 -60.72902,-9.34986 -20.3332,-2.82601 -40.75659,-5.11086 -61.01964,-8.48803 -28.41036,-4.62984 -56.75057,-10.52236 -83.90827,-20.23299 C 150.34739,323.31672 135.0048,315.83082 121.46603,305.67925 113.88994,299.82682 106.30382,293.794 100.25096,286.3081 81.79174,265.05294 69.665978,237.83511 68.373231,209.55503 67.491358,203.0011 67.320996,196.33695 68.202869,189.773 69.60585,166.60378 75.057432,143.51472 84.938425,122.47001 Z" />
  <path
     style="opacity:1;fill:url(#linearGradient4781);stroke-width:1.00212908;fill-opacity:1"
     inkscape:connector-curvature="0"
     id="path13-6"
     d="m 99.168659,122.47001 h 43.291981 c -14.72128,15.8637 -24.31166,36.54765 -26.4963,58.11347 -0.8017,12.62682 -0.40085,25.55429 3.48741,37.70009 6.84454,21.57584 21.77627,39.75446 39.40372,53.5638 25.14342,19.7219 55.63821,31.39671 86.56391,38.42163 24.75259,5.49167 49.88599,8.96906 74.73879,13.93962 34.57345,6.8746 69.01663,14.94174 102.26727,26.75685 11.98547,4.35926 23.96091,9.00914 35.09456,15.30251 v 65.24862 c -2.41513,-3.65777 -5.09081,-7.14518 -7.70637,-10.66265 -7.96693,-10.42214 -18.1686,-18.91018 -29.07176,-26.12551 -15.60315,-10.36201 -32.13828,-19.24087 -48.86382,-27.63872 -20.71401,-10.2618 -43.12161,-16.44494 -65.29873,-22.67818 -25.45408,-6.93473 -51.00837,-13.52874 -76.44241,-20.57371 -9.62044,-2.67568 -19.33107,-5.11086 -28.77113,-8.38782 -26.34597,-9.01916 -51.52947,-22.18714 -72.58421,-40.54614 -12.76712,-11.24389 -23.75046,-24.74257 -31.055977,-40.16534 -7.896778,-16.09419 -11.243889,-34.26279 -10.331951,-52.11071 0.440937,-20.5236 4.699985,-40.91693 11.775017,-60.15781 z" />
  <path
     style="opacity:1;fill:url(#linearGradient4773);stroke-width:1.00212908;fill-opacity:1"
     inkscape:connector-curvature="0"
     id="path16-1"
     d="m 142.46064,122.47001 h 4.0987 c -10.76286,12.8473 -18.80996,28.39032 -21.3253,45.07577 -2.1646,22.93873 1.97419,46.91968 14.12,66.72175 9.5102,15.50294 23.2995,28.24 39.18324,37.01865 16.24452,9.02918 34.13252,14.68119 52.19089,18.75986 26.09544,5.83239 52.80218,8.24752 79.43877,10.11148 35.84616,1.90405 72.60425,-0.16034 107.36811,10.4021 14.23024,3.94839 27.40823,10.88312 39.98495,18.4993 v 37.20906 c -11.13365,-6.29337 -23.10909,-10.94325 -35.09456,-15.30251 -33.25064,-11.81511 -67.69382,-19.88225 -102.26727,-26.75685 -24.8528,-4.97056 -49.9862,-8.44795 -74.73879,-13.93962 -30.9257,-7.02492 -61.42049,-18.69973 -86.56391,-38.42163 -17.62745,-13.80934 -32.55918,-31.98796 -39.40372,-53.5638 -3.88826,-12.1458 -4.28911,-25.07327 -3.48741,-37.70009 2.18464,-21.56582 11.77502,-42.24977 26.4963,-58.11347 z" />
  <path
     style="opacity:1;fill:url(#linearGradient4765);stroke-width:1.00212908;fill-opacity:1"
     inkscape:connector-curvature="0"
     id="path19-5"
     d="m 146.55934,122.47001 h 31.46686 c -10.14155,11.8151 -19.49141,24.37178 -27.41825,37.79029 -11.11362,18.70975 -12.85732,42.03931 -7.01491,62.77337 4.35926,15.04195 15.47287,27.19778 28.37028,35.62568 14.04985,8.97908 29.57283,16.04409 45.99772,19.24088 21.14493,4.00852 42.72077,5.44156 64.22646,5.40148 12.70699,0.0301 25.34384,-1.44307 38.0308,-1.79381 19.71187,-0.67143 39.4438,-0.68145 59.1657,-0.40085 15.52298,0.26055 31.066,0.50106 46.52885,2.0744 10.55242,0.86183 21.04471,2.41513 31.59713,3.20682 -2.25479,-2.70575 -5.78228,-3.55756 -8.86884,-4.95052 -27.00738,-11.1537 -54.9768,-19.81209 -83.2168,-27.23787 -2.39509,-0.59126 -4.71001,-1.413 -6.94476,-2.43517 24.21144,5.62194 47.98195,13.04772 71.41172,21.3253 9.28974,3.47739 18.60954,6.91469 27.6287,11.07353 v 44.89538 c -12.57672,-7.61618 -25.75471,-14.55091 -39.98495,-18.4993 -34.76386,-10.56244 -71.52195,-8.49805 -107.36811,-10.4021 -26.63659,-1.86396 -53.34333,-4.27909 -79.43877,-10.11148 -18.05837,-4.07867 -35.94637,-9.73068 -52.19089,-18.75986 -15.88374,-8.77865 -29.67304,-21.51571 -39.18324,-37.01865 -12.14581,-19.80207 -16.2846,-43.78302 -14.12,-66.72175 2.51534,-16.68545 10.56244,-32.22847 21.3253,-45.07577 z" />
  <path
     style="opacity:1;fill:#dc7e08;stroke-width:1.00212908"
     inkscape:connector-curvature="0"
     id="path37"
     d="m 240.4889,179.1805 0.19041,-0.30064 -0.12026,0.37078 -0.20042,0.38081 z" />
  <path
     style="opacity:1;fill:#dc7e08;stroke-width:1.00212908"
     inkscape:connector-curvature="0"
     id="path39"
     d="m 239.51684,182.3372 c 0.0401,-0.16034 0.13028,-0.471 0.17036,-0.62132 l -0.10021,0.37079 z" />
  <path
     style="opacity:1;fill:#dc7e08;stroke-width:1.00212908"
     inkscape:connector-curvature="0"
     id="path41"
     d="m 241.49103,200.9267 0.0802,0.17036 0.11024,0.22047 c -0.0501,-0.10022 -0.15032,-0.30064 -0.19041,-0.39083 z" />
  <path
     style="opacity:1;fill:#dc8c37;stroke-width:1.00212908"
     inkscape:connector-curvature="0"
     id="path44"
     d="m 67.852124,236.4622 c 0.160341,0.60127 0.501065,1.78378 0.661405,2.38506 -0.16034,-0.60128 -0.501064,-1.78379 -0.661405,-2.38506 z" />
  <path
     style="opacity:1;fill:#dc7600;stroke-width:1.00212908"
     inkscape:connector-curvature="0"
     id="path47"
     d="m 72.051045,252.03528 c 0.07015,0.18038 0.210447,0.53113 0.280596,0.71151 l -0.190404,-0.36076 z" />
  <path
     style="opacity:1;fill:#dc7600;stroke-width:1.00212908"
     inkscape:connector-curvature="0"
     id="path49"
     d="m 81.080228,273.16016 c 0.04009,0.0902 0.130277,0.26056 0.180384,0.34073 l -0.09019,-0.15032 z" />
  <path
     style="opacity:1;fill:#dc7c02;stroke-width:1.00212908"
     inkscape:connector-curvature="0"
     id="path55"
     d="m 73.003068,254.84124 c 0.07015,0.18039 0.210447,0.53113 0.280596,0.70149 l -0.160341,-0.29061 z" />
  <path
     style="opacity:1;fill:#dc7300;stroke-width:1.00212908"
     inkscape:connector-curvature="0"
     id="path58"
     d="m 78.053798,267.12735 c 0.05011,0.10021 0.140299,0.29061 0.190405,0.39083 l -0.09019,-0.18039 z" />
  <path
     inkscape:connector-curvature="0"
     style="opacity:1;fill:url(#linearGradient4757);fill-opacity:1;stroke-width:1.00210488"
     d="m 178.02597,122.46975 c -10.1413,11.81482 -19.4913,24.37366 -27.41794,37.79185 -0.69459,1.16932 -1.35255,2.35605 -1.97436,3.55972 -2.1e-4,3.8e-4 2e-4,0.001 0,0.002 -0.62159,1.20329 -1.20738,2.42252 -1.75712,3.6566 -1.8e-4,4.1e-4 1.8e-4,0.001 0,0.002 -0.27475,0.61684 -0.54156,1.23746 -0.79854,1.86133 -1.7e-4,4.2e-4 1.7e-4,10e-4 0,10e-4 -0.77122,1.87245 -1.4627,3.77501 -2.07565,5.70289 -1.4e-4,4.5e-4 1.4e-4,10e-4 0,0.002 -1.63467,5.14174 -2.71304,10.45943 -3.26026,15.8404 -0.13686,1.34533 -0.24016,2.6956 -0.31122,4.04707 -0.0356,0.67576 -0.063,1.35205 -0.0822,2.02868 -0.077,2.70645 -0.0237,5.41772 0.1556,8.12058 0.13444,2.02713 0.33991,4.04984 0.61506,6.06106 0.18345,1.34085 0.39807,2.67662 0.64295,4.00598 0.34325,1.86343 0.75058,3.71177 1.21251,5.54436 0.0324,0.12843 0.061,0.25781 0.0939,0.38606 0.1678,0.65325 0.34282,1.30397 0.52552,1.95236 0.1364,0.47063 0.27916,0.93689 0.42863,1.40187 0.29837,0.92817 0.62166,1.84565 0.9703,2.75089 2.3e-4,5.8e-4 0.002,7.5e-4 0.002,0.001 0.34867,0.90521 0.72204,1.80004 1.11856,2.6819 0.19839,0.44123 0.40222,0.8785 0.61212,1.3138 0.0698,0.14498 0.14463,0.28727 0.21579,0.43157 0.35623,0.72241 0.72436,1.43893 1.11122,2.14465 0.4641,0.84661 0.94877,1.68059 1.45471,2.50281 2.52988,4.11162 5.56744,7.91456 8.96169,11.38525 0.67878,0.69407 1.37107,1.37467 2.07713,2.04189 1.41231,1.33461 2.87629,2.61541 4.38323,3.84008 1.50668,1.22452 3.05681,2.39265 4.63865,3.50395 0.79091,0.55564 1.58959,1.0968 2.39565,1.62353 1.7562,1.12235 3.53482,2.21476 5.33592,3.27348 2.70166,1.5881 5.45329,3.10069 8.24975,4.52415 6.52495,3.32162 13.29789,6.15956 20.27061,8.35103 1.9922,0.62614 4.00062,1.19933 6.02437,1.71601 1.01188,0.25834 2.02661,0.50296 3.04595,0.7325 4.6e-4,1.1e-4 7.5e-4,-1e-4 0.001,0 1.01887,0.22943 2.0419,0.44471 3.06797,0.64442 2.64305,0.50105 5.29328,0.96155 7.94881,1.38426 1.32777,0.21134 2.65638,0.41368 3.9869,0.60625 2.66104,0.38514 5.32814,0.73337 7.99874,1.04663 14.68824,1.72293 29.50549,2.39091 44.29028,2.36337 3.17667,0.008 6.34962,-0.0794 9.51952,-0.21873 3.16978,-0.13935 6.33671,-0.33161 9.50335,-0.53579 6.3336,-0.40837 12.66487,-0.86392 19.0082,-1.03929 19.7114,-0.67141 39.44191,-0.68134 59.16333,-0.40074 3.88065,0.0651 7.76204,0.12909 11.6436,0.21284 4.9e-4,10e-6 7.5e-4,-1e-5 10e-4,0 0.0475,7.5e-4 0.0949,0.002 0.14239,0.003 3.77097,0.0819 7.54146,0.18367 11.31038,0.32294 l 0.18789,0.006 c 4.9e-4,1e-5 7.6e-4,-2e-5 0.002,0 1.93919,0.0722 3.87786,0.15556 5.81592,0.25101 5e-4,3e-5 7.6e-4,-2e-5 0.002,0 5.81514,0.28644 11.62488,0.68862 17.42283,1.27856 2.63804,0.21546 5.27238,0.47385 7.90478,0.75304 5.26481,0.55842 10.52274,1.20011 15.78755,1.74097 2.63248,0.27048 5.26676,0.5155 7.9048,0.71341 -0.003,-0.004 -0.007,-0.008 -0.0103,-0.0117 0.007,0.004 0.0137,0.008 0.0205,0.0117 v -2.22537 c -9.01895,-4.15874 -18.33834,-7.59527 -27.62786,-11.07258 -23.42921,-8.27738 -47.1994,-15.70277 -71.41025,-21.32458 l -1.16261,-0.35082 -3.07677,-0.82792 c -0.69901,0.49661 -1.23807,0.91378 -2.39565,1.63967 -9.25945,5.40135 -18.53816,11.02257 -28.75963,14.42972 -16.08379,5.4214 -33.09988,7.24536 -49.96531,8.15728 -17.63704,1.03217 -35.5047,-0.52057 -52.50042,-5.47096 -4.28899,-1.24261 -8.56754,-2.48554 -12.81646,-3.82837 -11.26367,-3.67771 -21.84563,-9.27998 -31.55603,-16.03416 -7.33541,-5.23098 -14.39059,-11.04337 -19.90216,-18.21845 -7.857,-10.34122 -12.08604,-23.54892 -10.93362,-36.5362 0.8117,-10.5221 5.79208,-20.24266 12.19553,-28.4499 12.45607,-15.76352 30.32375,-26.59621 49.26353,-32.77919 17.136,-5.74207 35.03434,-8.55142 52.8718,-11.02662 z m 62.65112,56.41104 -0.18935,0.30092 -0.13065,0.45066 0.19964,-0.3802 z m -0.99231,2.83603 c -0.0401,0.15032 -0.13019,0.46206 -0.17028,0.6224 l 0.0704,-0.25102 z m 1.80408,19.21077 0.0808,0.17027 0.11009,0.22019 c -0.0501,-0.10021 -0.15075,-0.30027 -0.19083,-0.39046 z m 120.39792,52.21564 c 1.15743,0.40709 2.33579,0.76128 3.5333,1.05691 -1.19812,-0.29578 -2.37525,-0.6495 -3.5333,-1.05691 z m 14.10824,3.90174 c 4.88144,1.344 9.75098,2.73185 14.60735,4.16597 -4.85592,-1.4339 -9.72633,-2.82212 -14.60735,-4.16597 z"
     id="path19-7"
     sodipodi:nodetypes="ccccccccccccccccccccccccccccccccccccccccsscccccccccccccccccccccccccccccccccccccccccccccccccccccccc" />
  <path
     style="opacity:1;fill:#ffffff;fill-opacity:1;stroke-width:0.99999994"
     inkscape:connector-curvature="0"
     id="path23-7-0"
     d="m 38.067,469.69044 h 24.88008 c 2.8,-0.01 5.65,0.63993 8.05,2.13993 13.9,8.23 27.779998,16.49999 41.67,24.75999 13.77,-8.17999 27.54,-16.37999 41.31,-24.55999 2.4,-1.52 5.2,-2.37043 8.02,-2.35043 h 25.18942 v 23.17043 c -22.3296,14.22062 -45.17383,27.57282 -66.62942,40.62999 -4.74,3.06 -11.24,3 -15.94,-0.1 l -66.55008,-40.55 z"
     sodipodi:nodetypes="cccccccccccc" />
</svg>
