<?xml version="1.0" encoding="UTF-8" standalone="no"?>
<!-- Creator: CorelDRAW X5 -->

<svg
   xmlns:osb="http://www.openswatchbook.org/uri/2009/osb"
   xmlns:dc="http://purl.org/dc/elements/1.1/"
   xmlns:cc="http://creativecommons.org/ns#"
   xmlns:rdf="http://www.w3.org/1999/02/22-rdf-syntax-ns#"
   xmlns:svg="http://www.w3.org/2000/svg"
   xmlns="http://www.w3.org/2000/svg"
   xmlns:sodipodi="http://sodipodi.sourceforge.net/DTD/sodipodi-0.dtd"
   xmlns:inkscape="http://www.inkscape.org/namespaces/inkscape"
   xml:space="preserve"
   height="762.71887"
   width="630"
   version="1.1"
   viewBox="0 0 6562.5004 7944.9892"
   id="svg2"
   inkscape:version="0.92.0 r15299"
   sodipodi:docname="Sony Sab.svg"
   style="fill-rule:evenodd"><sodipodi:namedview
     pagecolor="#ffffff"
     bordercolor="#666666"
     borderopacity="1"
     objecttolerance="10"
     gridtolerance="10"
     guidetolerance="10"
     inkscape:pageopacity="0"
     inkscape:pageshadow="2"
     inkscape:window-width="1920"
     inkscape:window-height="1017"
     id="namedview38"
     showgrid="false"
     fit-margin-top="0"
     fit-margin-left="0"
     fit-margin-right="0"
     fit-margin-bottom="0"
     inkscape:zoom="1.0004928"
     inkscape:cx="317.12148"
     inkscape:cy="398.46435"
     inkscape:window-x="-8"
     inkscape:window-y="-8"
     inkscape:window-maximized="1"
     inkscape:current-layer="svg2"
     showguides="false" /><metadata
     id="metadata4"><rdf:RDF><cc:Work
         rdf:about=""><dc:format>image/svg+xml</dc:format><dc:type
           rdf:resource="http://purl.org/dc/dcmitype/StillImage" /><dc:title></dc:title></cc:Work></rdf:RDF></metadata><defs
     id="defs6"><linearGradient
       id="linearGradient870"
       osb:paint="solid"><stop
         style="stop-color:#fee502;stop-opacity:1;"
         offset="0"
         id="stop868" /></linearGradient><style
       type="text/css"
       id="style8">
    .fil0 {fill:black}
    .fil4 {fill:#1C31A0}
    .fil2 {fill:#54D344}
    .fil3 {fill:#F93C30}
    .fil6 {fill:white}
    .fil1 {fill:black;fill-rule:nonzero}
    .fil5 {fill:white;fill-rule:nonzero}
   </style><filter
       inkscape:collect="always"
       style="color-interpolation-filters:sRGB"
       id="filter1285"
       x="-0.010361404"
       width="1.0207227"
       y="-0.014247741"
       height="1.0284956"><feGaussianBlur
         inkscape:collect="always"
         stdDeviation="21.93612"
         id="feGaussianBlur1287" /></filter></defs><path
     d="M 150.01322,1706.6065 H 6429.1982 V 6319.0386 H 150.01322 Z"
     id="path14"
     inkscape:connector-curvature="0"
     style="fill:#fee502;fill-opacity:1;fill-rule:nonzero;stroke-width:1.06631041" /><g
     transform="matrix(1.066293,0,0,1.066293,0,0.02169378)"
     style="fill-rule:evenodd"
     id="g833"><path
       style="fill:#000000;fill-rule:nonzero"
       inkscape:connector-curvature="0"
       id="path12-0"
       d="M 6154.5,1430.0797 H 0 V -0.02034505 h 6154.5 z" /><path
       style="fill:#ffffff;fill-rule:nonzero"
       inkscape:connector-curvature="0"
       id="path28-5"
       d="m 2211.4,1252.9797 c -214.91,0 -413.8,-64.109 -547.12,-183.59 -99.806,-90.33605 -148.62,-212.72005 -148.62,-338.75005 0,-124.58 50.267,-248.42 148.62,-338.03 123.84,-112.19 341.67,-182.85 547.12,-182.85 227.3,0 409.42,56.824 548.57,183.59 98.349,89.607 146.43,212 146.43,337.3 0,120.93 -50.996,249.15 -146.43,338.75005 -129.68,120.2 -332.93,183.59 -548.57,183.59 v -137.7 c 113.64,0 220.01,-39.34 293.59,-112.92 73.579,-72.85205 107.09,-162.45005 107.09,-271.73005 0,-104.91 -36.425,-203.25 -107.09,-273.19 -72.852,-71.394 -181.4,-112.19 -293.59,-112.19 -112.92,0 -220.74,40.068 -293.59,112.19 -70.666,69.937 -107.09,168.29 -107.09,273.19 0,104.18 37.154,202.53 107.09,271.73005 72.851,72.851 180.68,112.92 293.59,112.92 z" /><path
       style="fill:#ffffff;fill-rule:nonzero"
       inkscape:connector-curvature="0"
       id="path30-2"
       d="m 724.38,210.19965 c -115.11,0 -245.51,21.126 -356.24,70.666 -101.99,45.896 -185.76,119.48 -185.76,241.86 0,110.73 69.937,174.84 67.752,173.39 29.869,26.955 77.95,74.308 203.25,101.26 56.095,12.384 176.3,31.326 295.04,43.711 118.74,12.384 235.31,24.77 282.66,36.425 37.883,9.4707 101.26,22.584 101.26,93.978 0,70.66605 -67.023,92.52105 -78.679,96.89205 -11.657,4.3711 -91.793,41.525 -235.31,41.525 -106.36,0 -233.85,-32.054 -280.47,-48.811 -53.909,-18.941 -110.01,-44.44 -162.45,-108.55005 -13.113,-16.028 -34.24,-59.738 -34.24,-102.72 h -130.44 v 364.99005 h 144.98 v -49.538 c 0,-5.828 7.2852,-28.412 32.054,-17.484 29.869,13.842 118.74,48.811 211.26,68.48 76.494,15.299 125.3,26.955 220.01,26.955 154.44,0 237.5,-24.77 294.32,-41.525 54.638,-15.299 120.93,-42.982 175.58,-86.692 29.141,-23.312 93.249,-83.05 93.249,-191.60005 0,-104.91 -56.095,-169.01 -75.765,-189.41 -26.226,-26.226 -59.009,-47.353 -93.249,-63.38 -29.869,-13.842 -77.223,-31.326 -115.11,-40.068 -75.037,-18.941 -244.05,-41.525 -324.92,-49.538 -84.507,-8.7421 -230.94,-21.126 -289.95,-39.34 -17.484,-5.8282 -53.909,-22.584 -53.909,-64.837 0,-29.869 16.755,-55.367 49.538,-75.765 51.724,-32.783 156.63,-53.182 266.63,-53.182 128.94,0 238.95,29.869 308.16,60.466 24.041,10.928 51.724,26.226 73.579,43.711 25.498,20.399 59.738,62.652 72.851,121.67 h 116.57 v -318.43 h -130.4 v 37.154 c 0,12.384 -12.384,27.683 -35.698,14.57 -58.28,-30.597 -223.65,-96.892 -426.17,-96.892" /><path
       style="fill:#ffffff;fill-rule:nonzero"
       inkscape:connector-curvature="0"
       id="path32-2"
       d="m 3422.7,267.86965 637.45,574.79 -6.5566,-386.84 c -0.7289,-50.996 -10.199,-72.123 -65.566,-72.123 h -119.41 v -115.83 h 544.93 v 115.83 h -117.27 c -55.367,0 -59.009,18.213 -59.738,72.123 l 9.4706,739.44005 H 4059.48 L 3325.91,540.30965 v 464.78005 c 0.7289,50.996 2.914,74.308 55.367,74.308 h 130.4 v 115.83 h -534.73 v -115.83 h 125.3 c 46.625,0 44.44,-44.44 44.44,-76.494 V 460.21365 c 0,-34.969 -5.0997,-76.494 -77.95,-76.494 h -101.38 v -115.84 h 455.32 z" /><path
       style="fill:#ffffff;fill-rule:nonzero"
       inkscape:connector-curvature="0"
       id="path34-3"
       d="m 5036,1079.4797 c 5.0996,0 27.683,-0.7289 32.054,-2.1856 12.384,-3.6425 21.126,-13.113 25.498,-21.855 1.4572,-4.371 2.1856,-21.855 2.1856,-25.497 V 847.19205 c 0,-4.3711 0,-6.5566 -8.0137,-16.028 -8.0135,-10.928 -333.66,-379.55 -348.23,-395.58 -18.213,-20.399 -50.996,-51.724 -100.53,-51.724 h -112.92 v -115.84 h 638.9 v 115.83 h -77.223 c -17.484,0 -29.869,16.755 -14.57,35.697 0,0 214.91,257.16 217.1,259.35 2.1855,2.914 3.6426,3.6425 6.5566,1.457 2.914,-2.9141 220.01,-258.62 222.2,-260.81 10.199,-12.384 3.6426,-35.697 -18.941,-35.697 h -79.408 v -115.83 h 523.79 v 115.83 h -117.29 c -42.254,0 -59.738,8.0136 -91.063,43.711 -15.299,16.755 -343.85,391.94 -352.6,402.14 -5.0997,5.8282 -4.3712,13.113 -4.3712,17.484 v 182.85005 c 0,3.6425 0.7289,21.126 2.1856,25.498 4.3711,8.7422 12.384,18.213 25.498,21.855 4.371,1.457 26.955,2.1856 31.326,2.1856 h 120.2 v 115.83 h -636.21 v -115.83 h 113.64 z" /></g><path
     d="M 902.21587,5653.8861 H 3298.4285 v 666.1028 H 902.21587 Z"
     id="path16"
     inkscape:connector-curvature="0"
     style="fill:#ac1f9c;fill-opacity:1;fill-rule:nonzero;stroke-width:1.06631041" /><path
     d="m 3292.6598,2685.2781 c 2.4278,-275.0014 248.0878,-431.4932 800.7351,-426.6308 244.3236,2.2072 503.2131,68.6405 682.8758,165.3102 179.8759,96.6706 283.6172,305.4659 280.5249,558.8425 l 1372.5547,3.09 V 1706.6374 H 1168.8148 C 991.37007,2017.1684 892.71503,2383.1155 888.95097,2804.4039 863.56958,5712.019 5269.5671,4957.178 5259.6505,6109.7528 c -0.8827,77.2478 -20.7472,147.0016 -57.6053,209.2314 H 6429.2618 V 4052.3283 C 5134.3346,3404.6514 3285.7789,3425.5511 3292.4966,2685.3184"
     id="path18"
     inkscape:connector-curvature="0"
     style="fill:#ff4d00;fill-opacity:1;fill-rule:nonzero;stroke-width:1.06631041" /><path
     d="M 1475.4751,6098.0561 H 6556.5133 V 2402.9659 H 1475.4751 Z"
     id="path14-4"
     inkscape:connector-curvature="0"
     style="fill:#000000;fill-opacity:0;fill-rule:nonzero;stroke:#000000;stroke-width:206.67663574;stroke-linecap:square;stroke-miterlimit:21.79999924;stroke-dasharray:none;stroke-opacity:0.09803922;paint-order:markers stroke fill;filter:url(#filter1285)"
     transform="matrix(1.2311122,0,0,1.2408843,-1654.5364,-1209.6481)" /><path
     style="fill:#fe3609;fill-opacity:1;fill-rule:nonzero;stroke-width:1.06631052"
     d="M 0,1569.9884 V 7944.9892 H 6562.5008 V 1569.9884 Z m 150.00409,136.6374 H 6429.1797 V 6319.0532 H 150.00409 Z"
     id="path10"
     inkscape:connector-curvature="0" /><g
     transform="matrix(10.452005,0,0,10.452005,-28.977083,6347.1676)"
     id="#ffffffff"
     style="fill:#ffffff;fill-opacity:1"><path
       d="m 99.22,24.05 c 17.88,-4.34 36.43,-6.45 54.81,-4.94 14.01,1.4 27.85,4.37 41.25,8.7 3.55,1.25 7.33,1.94 10.62,3.82 l -15.76,19.44 c -1.48,1.85 -3.38,4.08 -6.04,3.61 -7.07,-1.44 -14.05,-3.37 -20.85,-5.81 -13.66,-4.34 -29.03247,-5.693482 -42.57,-0.13 -2.69346,1.106924 -5.09133,3.530718 -5.11,6.28 -0.0233,3.432733 2.93446,6.673249 6.5,7.51 8.83457,2.073274 17.95,0.47 26.91,1.1 12.76,0.76 25.52,1.9 38.17,3.76 8.13,1.19 16.03,4.09 22.97,8.5 4.88,3.11 8.85,7.9 10.15,13.63 2.15,11.09 -0.77,23.72 -9.7,31.16 -9.49,7.94 -21.62,11.94 -33.59,14.34 -11.51,2.4 -23.31,2.46 -35.01,2.84 -17.56,0.46 -35.25,-1.58 -52.04,-6.81 -13.19,-4.11 -26.12,-10.1 -36.33,-19.6 L 69.39,93.37 c 3.38,-3.22 8.65,-3.24 12.73,-1.41 10.52,4.67 20.36,10.81 31.19,14.79 12.07,4.27 25.08,5.55 37.81,4.72 5.68,-0.77 12.04,-1.87 16.15,-6.25 3.39,-3.57 2.11,-10.11 -2.48,-11.98 -6.65,-2.41 -13.83,-2.43 -20.82,-2.69 C 129.65,89.93 115.26,89.84 101.04,87.9 90.51,86.25 79.61,83.55 71.05,76.89 60.75,68.48 59.8,52.03 67.72,41.7 75.31,31.8 87.57,27.19 99.22,24.05 Z"
       id="path11"
       style="opacity:1;fill:#ffffff;fill-opacity:1"
       inkscape:connector-curvature="0"
       sodipodi:nodetypes="cccccccssscccccccccccccccccccc" /><path
       d="m 256.76999,22.420249 c 0,0 2.39445,-1.52025 3.74025,-1.52025 H 330.96 c 5.44,0.16 10.99,0.400001 16.23,2.010001 5.98,2.05 10.42,7.03 13.37,12.46 l 54.15214,97.28975 H 373.03 c -4.8,0.25 -10.42,-1.19975 -13.12,-5.65975 l -5.95,-13.05 c 6.84,-4.53 14.09,-8.9 19.15,-15.51 -4.67,2.11 -8.97,4.99 -13.8,6.79 -13.34,5.59 -27.96,6.65 -42.26,6.93 -12.81,-0.23 -25.77,-1.82 -37.8,-6.43 -4.83,-1.76 -9.34,-4.27 -13.92,-6.56 4.65,6.34 11.53,10.53 18.09,14.64 l -5.89,12.75 c -2.16,4.68 -7.82,6.23975 -12.47,6.09975 h -42.20112 l 49.90577,-90.369751 c -4.80188,-0.808161 -9.48278,-0.75 -15.99466,-0.75 V 22.420249 M 318.55,47.97 300.9,81.4 c 11.77,2.41 23.98,2.36 35.74,-0.11 z"
       id="path13"
       style="opacity:1;fill:#ffffff;fill-opacity:1"
       inkscape:connector-curvature="0"
       sodipodi:nodetypes="csccccccccccccccccccccccc" /><path
       d="m 414.24,22.42 c 1.22,-0.35 2.46631,-0.680499 3.74024,-0.68 L 520.07,21.78 c 11.3,-0.07 22.88,0.66 33.53,4.75 5.29,2.19 10.7,5.07 13.86,10.04 5.12,7.76 5.12,18.77 -0.69,26.17 -2.94,3.98 -7.51,6.14 -11.81,8.29 5.86,2.81 12.31,5.37 16.24,10.85 3.92,5.15 4.87,11.85 4.58,18.16 -0.19,7.42 -3.52,14.76 -9.22,19.56 -7.2,6.17 -16.53,8.99 -25.64,10.88 -12.11,2.6 -24.56,1.95975 -36.85,2.17975 H 441 c -3.04,-0.08 -6.52,-0.55975 -8.74,-2.94975 -2.25,-2.28 -2.47,-5.69 -2.53,-8.71 -0.06,-26.24 -0.03,-52.470001 -0.13,-78.710001 -5.11667,-0.957952 -10.08502,-0.75 -15.35,-0.75 0.04,-6.37 0.06,-12.74975 -0.01,-19.11975 m 62.97974,20.70975 V 64.279998 H 508.92 c 3.92,-0.3 8.11,-0.719998 11.52,-2.839998 5.27,-3.51 5.12,-12.28 -0.12,-15.74 -3.36,-2.07 -7.4,-2.660001 -11.29,-2.570001 h -31.81026 m 0,41.669999 V 110.66975 H 508.46 c 5.3,-0.41 11.28,0.16025 15.65,-3.47975 5.53,-4.06 6.54,-12.99 1.81,-18.04 -3.55,-3.73 -9.06,-4.510002 -13.97,-4.350002 z"
       id="path15"
       style="opacity:1;fill:#ffffff;fill-opacity:1"
       inkscape:connector-curvature="0"
       sodipodi:nodetypes="cscccccccccccccccccccccccccccccc" /></g></svg>