<?xml version="1.0" encoding="UTF-8" standalone="no"?>
<!-- Created with Inkscape (http://www.inkscape.org/) -->

<svg
   xmlns:dc="http://purl.org/dc/elements/1.1/"
   xmlns:cc="http://creativecommons.org/ns#"
   xmlns:rdf="http://www.w3.org/1999/02/22-rdf-syntax-ns#"
   xmlns:svg="http://www.w3.org/2000/svg"
   xmlns="http://www.w3.org/2000/svg"
   xmlns:sodipodi="http://sodipodi.sourceforge.net/DTD/sodipodi-0.dtd"
   xmlns:inkscape="http://www.inkscape.org/namespaces/inkscape"
   width="418.56979mm"
   height="56.044018mm"
   viewBox="0 0 1483.1213 198.58116"
   id="svg3394"
   version="1.1"
   inkscape:version="0.91 r13725"
   sodipodi:docname="Studio 66 TV.svg">
  <defs
     id="defs3396" />
  <sodipodi:namedview
     id="base"
     pagecolor="#ffffff"
     bordercolor="#666666"
     borderopacity="1.0"
     inkscape:pageopacity="0.0"
     inkscape:pageshadow="2"
     inkscape:zoom="0.49497475"
     inkscape:cx="589.62702"
     inkscape:cy="-44.113976"
     inkscape:document-units="px"
     inkscape:current-layer="layer1"
     showgrid="false"
     fit-margin-top="0"
     fit-margin-left="0"
     fit-margin-right="0"
     fit-margin-bottom="0"
     inkscape:window-width="1920"
     inkscape:window-height="1017"
     inkscape:window-x="-8"
     inkscape:window-y="-8"
     inkscape:window-maximized="1" />
  <metadata
     id="metadata3399">
    <rdf:RDF>
      <cc:Work
         rdf:about="">
        <dc:format>image/svg+xml</dc:format>
        <dc:type
           rdf:resource="http://purl.org/dc/dcmitype/StillImage" />
        <dc:title></dc:title>
      </cc:Work>
    </rdf:RDF>
  </metadata>
  <g
     inkscape:label="Layer 1"
     inkscape:groupmode="layer"
     id="layer1"
     transform="translate(481.56068,-275.92877)">
    <path
       style="opacity:1;fill:#ffffff;fill-opacity:1"
       inkscape:connector-curvature="0"
       id="path8"
       d="m -476.47318,314.60228 c 5.35,-22.04999 26.8625,-39.2625 49.7375,-38.55 14.95,-1.05 30.225,4.63751 40.675,15.4125 8.3125,8.325 13.1375,19.73751 14.4125,31.35 -10.6375,0.075 -21.2875,0.1125 -31.9375,0 -1.5625,-1.125 -1.6625,-3.35 -2.6125,-4.92499 -3.075,-7.5125 -11.0375,-12.76251 -19.2375,-11.83751 -15.8875,-1.2 -27.25,18.45 -19.8125,32.05 3.05,6.875 10.2375,10.13751 17,12.2375 -4.6875,8.97501 -9.3375,17.9625 -13.675,27.10001 -11.05,-3.425 -21.525,-9.82501 -27.9,-19.6875 -8.425,-12.4875 -10.225,-28.70001 -6.65,-43.15001 z" />
    <path
       style="opacity:1;fill:#ffffff;fill-opacity:1"
       inkscape:connector-curvature="0"
       id="path10"
       d="m 453.91432,297.68979 c 17.35,-13.91251 39.5375,-22.22501 61.8875,-21.63751 36.525,-0.95 72.3,21.175 88.45,53.8375 4.4375,8.4375 7.45,17.5375 9.3,26.875 -10.575,0.15 -21.15,0.0125 -31.725,0.075 -4.7,-15.9375 -14.8,-30.425 -28.9625,-39.3125 -17.4875,-11.5 -40.425,-14.32499 -60.1125,-7.1 -20.65,7.32501 -37.025,25.2125 -42.8125,46.3125 -10.5625,0.1625 -21.1375,0.1125 -31.7125,0.05 4.375,-23.1125 17.2625,-44.475 35.6875,-59.1 z" />
    <path
       style="opacity:1;fill:#ffffff;fill-opacity:1"
       inkscape:connector-curvature="0"
       id="path12"
       d="m 738.82682,278.83978 c 11.6375,-0.0625 23.2875,-0.025 34.9375,-0.025 -18.875,31.5875 -37.525,63.3125 -56.3125,94.95 -5.675,9.4625 -10.8625,19.625 -11.9125,30.775 -0.6875,12.375 5.4625,25.20001 16.3375,31.47501 1.3625,1.07499 3.9625,1.52499 3.6,3.8125 0.0875,10.02499 0.025,20.0625 0,30.09999 -19.1625,-5.11249 -35.975,-18.8 -44.375,-36.8125 -4.7125,-10.0125 -6.4125,-21.275 -5.65,-32.275 1.725,-15.34999 8.5875,-29.53749 16.4375,-42.63749 15.6625,-26.45001 31.2625,-52.92501 46.9375,-79.36251 z" />
    <path
       style="opacity:1;fill:#ffffff;fill-opacity:1"
       inkscape:connector-curvature="0"
       id="path14"
       d="m 928.93932,278.83978 c 11.6375,-0.0625 23.275,-0.0375 34.925,-0.0125 -19.5,32.63749 -38.8,65.38749 -58.15,98.1 -6.1625,10.81249 -11.9375,23.275 -9.4375,36.0125 1.5875,9.77499 7.7875,18.66249 16.4125,23.5125 1.2,0.825 3.275,1.3875 2.9125,3.3125 0.025,10.0625 0.0375,20.125 -0.0375,30.18749 -22.025,-5.8875 -41.0125,-23.225 -47.575,-45.225 -2.5375,-9.3125 -3.625,-19.225 -1.7,-28.75 2.2375,-12.6375 7.9,-24.3375 14.2625,-35.375 16.1625,-27.2375 32.2,-54.5375 48.3875,-81.7625 z" />
    <path
       style="opacity:1;fill:#ffffff;fill-opacity:1"
       inkscape:connector-curvature="0"
       id="path16"
       d="m -314.93568,280.61478 107,0.0122 15.65,0 0.0125,29.78785 -122.7375,0.025 0.075,-29.82501 z"
       sodipodi:nodetypes="ccccccc" />
    <path
       style="opacity:1;fill:#ffffff;fill-opacity:1"
       inkscape:connector-curvature="0"
       id="path18"
       d="m -129.96068,280.71478 c 10.325,0.05 20.7,-0.6 30.975,0.45 -0.025,35.3125 0.0125,70.6375 -0.0125,105.9625 -0.1375,12.3 0.4875,25.4375 7.4,36.07501 4.225,7.02499 11.1625,11.77499 18.2625,15.54999 1.85,0.725 1.05,3.05 1.275,4.55 -0.1125,9.4375 0.075,18.8875 -0.1125,28.325 -19.4875,-5.9 -37.4625,-18.35 -47.8,-36.15 -8.4,-14.5625 -10.025,-31.825 -10.05,-48.3125 0.025,-35.48749 -0.0875,-70.96249 0.0625,-106.45 z" />
    <path
       style="opacity:1;fill:#ffffff;fill-opacity:1"
       inkscape:connector-curvature="0"
       id="path20"
       d="m -8.22318,280.62728 c 10.25,-0.0125 20.5,0.025 30.75,-0.0125 0.175,36.325 0.05,72.65001 0.0625,108.975 -0.325,16.16251 -2.1375,33.125 -10.775,47.1875 -10.575,17.23751 -28.35,29.4125 -47.6375,34.92501 -0.0875,-10.75001 0.0125,-21.48751 -0.0625,-32.22501 9.9125,-4.5 19.025,-11.95 23.2875,-22.2 4.075,-9.9125 4.2625,-20.8375 4.2875,-31.4 0.075,-35.0875 -0.1,-70.1625 0.0875,-105.25 z" />
    <path
       style="opacity:1;fill:#ffffff;fill-opacity:1"
       inkscape:connector-curvature="0"
       id="path22"
       d="m 84.11432,280.62728 30.9,-3.5e-4 0.0125,188.338 -30.9875,-1.5e-4 0.075,-188.33785 z"
       sodipodi:nodetypes="cccccc" />
    <path
       style="opacity:1;fill:#ffffff;fill-opacity:1"
       inkscape:connector-curvature="0"
       id="path24"
       d="m 151.35182,280.83978 c 18,-0.39999 36.6375,0.4 53.4875,7.42501 17.225,7.1125 31.475,20.26249 41.5875,35.76249 14.375,21.6375 18.725,49.475 12.125,74.55001 -7.2875,27.98749 -27.475,53.1625 -54.625,63.95 -16.725,6.55 -34.9625,6.6625 -52.65,6.4875 0.0375,-9.9375 0.0125,-19.875 0.0125,-29.8125 12.7375,-0.10001 25.8,0.48749 38.025,-3.73751 26.5875,-9.09999 44.4,-37.925 41.4125,-65.75 -1.625,-21.6125 -14.975,-42.1 -34.3375,-51.94999 -13.775,-7.33751 -29.9125,-7.0625 -45.0875,-7.13751 0.0125,-9.92499 -0.0625,-19.85 0.05,-29.7875 z" />
    <path
       style="opacity:1;fill:#ffffff;fill-opacity:1"
       inkscape:connector-curvature="0"
       id="path26"
       d="m 320.53932,280.62651 30.9625,0 -0.0375,188.33842 -30.9125,0 z"
       sodipodi:nodetypes="ccccc" />
    <path
       style="opacity:1;fill:#ffffff;fill-opacity:1"
       inkscape:connector-curvature="0"
       id="path28"
       d="m 776.35182,345.28978 c 14.3,8.3 26.1,21.21251 31.3,37.07501 9.8,26.5375 0.3875,58.6 -22.15,75.675 -7.1125,5.2375 -15,9.7125 -23.7,11.6375 0,-10.4625 -0.1125,-20.9125 0.025,-31.3625 4.5625,-3.7875 10.0375,-6.675 13.425,-11.75 9.55,-13.6 8.8,-33.975 -2.6,-46.3 -3.275,-3.775 -7.5375,-6.4625 -11.625,-9.2375 5.1625,-8.5375 10.2375,-17.15 15.325,-25.7375 z" />
    <path
       style="opacity:1;fill:#ffffff;fill-opacity:1"
       inkscape:connector-curvature="0"
       id="path30"
       d="m 966.40182,345.26479 c 8.05,5.03749 15.825,10.82499 21.4625,18.58749 14.29998,18.625 17.78748,44.875 8.6375,66.525 -7.6125,19.0625 -24.625,34.4625 -44.6875,39.2375 0.0375,-10.41249 -0.1125,-20.8375 0.0625,-31.25 2.05,-2.2375 4.95,-3.47499 7.2875,-5.42499 16.05,-12.41251 16.9875,-39.0875 2.95,-53.3625 -3.175,-3.46251 -7.1875,-5.9375 -11.025,-8.5625 5.25,-8.4875 10.25,-17.1375 15.3125,-25.75 z" />
    <path
       style="opacity:1;fill:#ffffff;fill-opacity:1"
       inkscape:connector-curvature="0"
       id="path32"
       d="m -268.86068,347.42728 30.725,-0.0375 -0.025,121.57515 -30.7125,-1.5e-4 z"
       sodipodi:nodetypes="ccccc" />
    <path
       style="opacity:1;fill:#ffffff;fill-opacity:1"
       inkscape:connector-curvature="0"
       id="path34"
       d="m -392.96068,362.55229 c 12.175,6.28749 22.85,16.41249 27.55,29.5125 3.975,9.75 3.8,20.47499 3.1125,30.8 -2.225,19.1875 -14.925,36.49999 -31.925,45.3875 -11.85,6.15 -25.725,7.29999 -38.775,5.375 -25.3875,-4.2375 -46.35,-26.68751 -48.5625,-52.3875 10.1625,-0.0875 20.3375,-0.0125 30.5,-0.0625 2.075,7.7625 6.3875,15.11249 13.375,19.3875 9.7375,6.0875 23.0875,5.95 32.5,-0.75 12.2125,-8.475 16.4875,-26.5625 8.8875,-39.45 -2.425,-4.50001 -6.4875,-7.75 -10.65,-10.55 4.7625,-9.03751 9.3,-18.18751 13.9875,-27.2625 z" />
    <path
       style="opacity:1;fill:#ffffff;fill-opacity:1"
       inkscape:connector-curvature="0"
       id="path10-5"
       d="m 453.78882,452.84298 c 17.35,13.91251 39.5375,22.22501 61.8875,21.63751 36.525,0.95 72.3,-21.175 88.45,-53.8375 4.4375,-8.4375 7.45,-17.5375 9.3,-26.875 -10.575,-0.15 -21.15,-0.0125 -31.725,-0.075 -4.7,15.9375 -14.8,30.425 -28.9625,39.3125 -17.4875,11.5 -40.425,14.32499 -60.1125,7.1 -20.65,-7.32501 -37.025,-25.2125 -42.8125,-46.3125 -10.5625,-0.1625 -21.1375,-0.1125 -31.7125,-0.05 4.375,23.1125 17.2625,44.475 35.6875,59.1 z" />
  </g>
</svg>
