<?xml version="1.0" encoding="UTF-8" standalone="no"?>
<!-- Generator: Adobe Illustrator 16.0.0, SVG Export Plug-In . SVG Version: 6.00 Build 0)  -->

<svg
   xmlns:dc="http://purl.org/dc/elements/1.1/"
   xmlns:cc="http://creativecommons.org/ns#"
   xmlns:rdf="http://www.w3.org/1999/02/22-rdf-syntax-ns#"
   xmlns:svg="http://www.w3.org/2000/svg"
   xmlns="http://www.w3.org/2000/svg"
   xmlns:sodipodi="http://sodipodi.sourceforge.net/DTD/sodipodi-0.dtd"
   xmlns:inkscape="http://www.inkscape.org/namespaces/inkscape"
   version="1.1"
   id="svg2"
   sodipodi:docname="Syfy Plus 1.svg"
   inkscape:version="0.92.1 r15371"
   x="0px"
   y="0px"
   width="1336.6406"
   height="267"
   viewBox="-200 303.248 1253.1006 250.31248"
   enable-background="new -200 303.248 1000 245.279"
   xml:space="preserve"><metadata
     id="metadata18"><rdf:RDF><cc:Work
         rdf:about=""><dc:format>image/svg+xml</dc:format><dc:type
           rdf:resource="http://purl.org/dc/dcmitype/StillImage" /><dc:title></dc:title></cc:Work></rdf:RDF></metadata><defs
     id="defs16"><pattern
       y="0"
       x="0"
       height="6"
       width="6"
       patternUnits="userSpaceOnUse"
       id="EMFhbasepattern" /></defs><sodipodi:namedview
     showgrid="false"
     inkscape:cy="299.45204"
     inkscape:cx="473.36022"
     inkscape:zoom="0.64"
     borderopacity="1.0"
     bordercolor="#666666"
     pagecolor="#ffffff"
     id="base"
     inkscape:window-maximized="1"
     inkscape:current-layer="svg2"
     inkscape:pageshadow="2"
     inkscape:pageopacity="0.0"
     inkscape:document-units="px"
     inkscape:window-x="-8"
     inkscape:window-height="1017"
     inkscape:window-y="-8"
     inkscape:window-width="1920"
     fit-margin-top="0"
     fit-margin-left="0"
     fit-margin-right="0"
     fit-margin-bottom="0" /><g
     style="fill:#e1ff01;fill-rule:evenodd;stroke:none;stroke-width:1;fill-opacity:1"
     id="g22"
     transform="matrix(1.1908301,0,0,1.1908301,-200,302.17627)"><g
       id="Page-1"
       style="fill:#e1ff01;fill-opacity:1"><g
         id="logo"
         style="fill:#e1ff01;fill-opacity:1"><g
           id="Group"
           style="fill:#e1ff01;fill-opacity:1"><g
             id="Shape"
             style="fill:#e1ff01;fill-opacity:1"><path
               inkscape:connector-curvature="0"
               id="path8"
               d="M 184.2,0.9 H 42 l -42,42 v 57.8 c 1.9,1.9 2.9,2.9 4.8,4.8 H 94.5 V 84.9 h 89.7 L 189,80.1 V 5.7 c -1.8,-1.9 -2.9,-2.9 -4.8,-4.8 z"
               style="fill:#e1ff01;fill-opacity:1" /><path
               inkscape:connector-curvature="0"
               id="path10-2"
               d="M 4.9,126.1 C 3,128 2,129 0.1,130.9 v 75.3 c 1.9,1.9 2.9,2.9 4.8,4.8 h 142.2 l 42,-42 v -58.8 c -1.9,-1.9 -2.9,-2.9 -4.8,-4.8 H 94.6 V 126 H 4.9 Z"
               style="fill:#e1ff01;fill-opacity:1" /><path
               inkscape:connector-curvature="0"
               id="path12-7"
               d="m 416.4,5.7 c -1.9,-1.9 -2.9,-2.9 -4.8,-4.8 h -83 v 0 c -1.9,1.9 -2.9,2.9 -4.8,4.8 v 99.8 H 302.7 V 5.7 c -1.9,-1.9 -2.9,-2.9 -4.8,-4.8 h -83 C 213,2.8 212,3.8 210.1,5.7 v 99.8 l 56.8,56.9 v 43.9 c 1.9,1.9 2.9,2.9 4.8,4.8 h 83 c 1.9,-1.9 2.9,-2.9 4.8,-4.8 v -43.9 l 56.8,-56.9 V 5.7 Z"
               style="fill:#e1ff01;fill-opacity:1" /><path
               inkscape:connector-curvature="0"
               id="path14"
               d="M 853.9,5.7 C 852,3.8 851,2.8 849.1,0.9 h -83 v 0 c -1.9,1.9 -2.9,2.9 -4.8,4.8 v 99.8 H 740.2 V 5.7 c -1.9,-1.9 -2.9,-2.9 -4.8,-4.8 h -83 c -1.9,1.9 -2.9,2.9 -4.8,4.8 v 99.8 l 56.8,56.9 v 43.9 c 1.9,1.9 2.9,2.9 4.8,4.8 h 83 c 1.9,-1.9 2.9,-2.9 4.8,-4.8 v -43.9 l 56.8,-56.9 V 5.7 Z"
               style="fill:#e1ff01;fill-opacity:1" /></g><path
             inkscape:connector-curvature="0"
             id="path17"
             d="M 621.7,0.9 H 479.5 l -42,42 v 163.4 c 1.9,1.9 2.9,2.9 4.8,4.8 h 83 c 1.9,-1.9 2.9,-2.9 4.8,-4.8 v -26.1 h 91.6 c 1.9,-1.9 2.9,-2.9 4.8,-4.8 v -65 c -1.9,-1.9 -2.9,-2.9 -4.8,-4.8 H 530.1 V 84.9 h 91.6 c 1.9,-1.9 2.9,-2.9 4.8,-4.8 V 5.7 c -1.8,-1.9 -2.9,-2.9 -4.8,-4.8 z"
             style="fill:#e1ff01;fill-opacity:1" /></g></g></g></g><g
     id="g4523"
     transform="matrix(1.0008772,0,0,1.0008772,1.1683503,314.6209)"
     style="fill:#e1ff01;fill-opacity:1"><path
       d="m 995.10543,-11.362935 h 34.98167 V 206.67519 h 20.9232 v 32.055 h -73.61153 v -32.055 h 20.5575 V 20.68269 h -20.5575 V 6.0526022 Z"
       id="path10"
       style="opacity:1;fill:#e1ff01;fill-opacity:1;stroke-width:0.93783778"
       inkscape:connector-curvature="0"
       sodipodi:nodetypes="cccccccccccc" /><path
       d="m 891.87715,63.654877 h 31.43717 v 37.953753 h 38.41318 v 31.87781 h -38.41318 v 38.33812 h -31.43717 v -38.33812 h -38.50686 v -31.87781 h 38.50686 z"
       id="path12"
       style="opacity:1;fill:#e1ff01;fill-opacity:1;stroke-width:0.93783778"
       inkscape:connector-curvature="0"
       sodipodi:nodetypes="ccccccccccccc" /></g></svg>