<svg width="1336.6" height="267" enable-background="new -200 303.248 1000 245.279" version="1.1" viewBox="-200 303.25 1253.1 250.31" xml:space="preserve" xmlns="http://www.w3.org/2000/svg"><g transform="matrix(1.1908 0 0 1.1908 -200 302.18)" fill="#00d7e0" fill-rule="evenodd"><path d="m184.2 0.9h-142.2l-42 42v57.8l4.8 4.8h89.7v-20.6h89.7l4.8-4.8v-74.4c-1.8-1.9-2.9-2.9-4.8-4.8z"/><path d="m4.9 126.1-4.8 4.8v75.3l4.8 4.8h142.2l42-42v-58.8l-4.8-4.8h-89.7v20.6h-89.7z"/><path d="m416.4 5.7-4.8-4.8h-83l-4.8 4.8v99.8h-21.1v-99.8l-4.8-4.8h-83l-4.8 4.8v99.8l56.8 56.9v43.9l4.8 4.8h83l4.8-4.8v-43.9l56.8-56.9v-99.8z"/><path d="m853.9 5.7-4.8-4.8h-83l-4.8 4.8v99.8h-21.1v-99.8l-4.8-4.8h-83l-4.8 4.8v99.8l56.8 56.9v43.9l4.8 4.8h83l4.8-4.8v-43.9l56.8-56.9v-99.8z"/><path d="m621.7 0.9h-142.2l-42 42v163.4l4.8 4.8h83l4.8-4.8v-26.1h91.6l4.8-4.8v-65l-4.8-4.8h-91.6v-20.7h91.6l4.8-4.8v-74.4c-1.8-1.9-2.9-2.9-4.8-4.8z"/></g><g transform="matrix(1.0009 0 0 1.0009 1.1684 314.62)" fill="#00d7e0" stroke-width=".93784"><path d="m995.11-11.363h34.982v218.04h20.923v32.055h-73.612v-32.055h20.558v-185.99h-20.558v-14.63z"/><path d="m891.88 63.655h31.437v37.954h38.413v31.878h-38.413v38.338h-31.437v-38.338h-38.507v-31.878h38.507z"/></g></svg>
