<svg width="1084.6" height="267" enable-background="new -200 303.248 1000 245.279" version="1.1" viewBox="-200 303.25 1016.8 250.31" xml:space="preserve" xmlns="http://www.w3.org/2000/svg"><g transform="matrix(1.1908 0 0 1.1908 -200 302.18)" fill="#00d7e0" fill-rule="evenodd"><path d="m184.2 0.9h-142.2l-42 42v57.8l4.8 4.8h89.7v-20.6h89.7l4.8-4.8v-74.4c-1.8-1.9-2.9-2.9-4.8-4.8z"/><path d="m4.9 126.1-4.8 4.8v75.3l4.8 4.8h142.2l42-42v-58.8l-4.8-4.8h-89.7v20.6h-89.7z"/><path d="m416.4 5.7-4.8-4.8h-83l-4.8 4.8v99.8h-21.1v-99.8l-4.8-4.8h-83l-4.8 4.8v99.8l56.8 56.9v43.9l4.8 4.8h83l4.8-4.8v-43.9l56.8-56.9v-99.8z"/><path d="m853.9 5.7-4.8-4.8h-83l-4.8 4.8v99.8h-21.1v-99.8l-4.8-4.8h-83l-4.8 4.8v99.8l56.8 56.9v43.9l4.8 4.8h83l4.8-4.8v-43.9l56.8-56.9v-99.8z"/><path d="m621.7 0.9h-142.2l-42 42v163.4l4.8 4.8h83l4.8-4.8v-26.1h91.6l4.8-4.8v-65l-4.8-4.8h-91.6v-20.7h91.6l4.8-4.8v-74.4c-1.8-1.9-2.9-2.9-4.8-4.8z"/></g></svg>
