<svg enable-background="new -200 303.248 1000 245.279" height="267" viewBox="-200 303.248 1229.4798 250.31248" width="1311.4451" xmlns="http://www.w3.org/2000/svg"><g fill="#e1ff01" fill-rule="evenodd" transform="matrix(1.1908301 0 0 1.1908301 -200 302.17626)"><g fill="#e1ff01"><path d="m184.2.9h-142.2l-42 42v57.8c1.9 1.9 2.9 2.9 4.8 4.8h89.7v-20.6h89.7l4.8-4.8v-74.4c-1.8-1.9-2.9-2.9-4.8-4.8z"/><path d="m4.9 126.1c-1.9 1.9-2.9 2.9-4.8 4.8v75.3l4.8 4.8h142.2l42-42v-58.8c-1.9-1.9-2.9-2.9-4.8-4.8h-89.7v20.6h-89.7z"/><path d="m416.4 5.7c-1.9-1.9-2.9-2.9-4.8-4.8h-83c-1.9 1.9-2.9 2.9-4.8 4.8v99.8h-21.1v-99.8c-1.9-1.9-2.9-2.9-4.8-4.8h-83c-1.9 1.9-2.9 2.9-4.8 4.8v99.8l56.8 56.9v43.9c1.9 1.9 2.9 2.9 4.8 4.8h83c1.9-1.9 2.9-2.9 4.8-4.8v-43.9l56.8-56.9v-99.8z"/><path d="m853.9 5.7c-1.9-1.9-2.9-2.9-4.8-4.8h-83c-1.9 1.9-2.9 2.9-4.8 4.8v99.8h-21.1v-99.8c-1.9-1.9-2.9-2.9-4.8-4.8h-83c-1.9 1.9-2.9 2.9-4.8 4.8v99.8l56.8 56.9v43.9c1.9 1.9 2.9 2.9 4.8 4.8h83c1.9-1.9 2.9-2.9 4.8-4.8v-43.9l56.8-56.9v-99.8z"/></g><path d="m621.7.9h-142.2l-42 42v163.4c1.9 1.9 2.9 2.9 4.8 4.8h83c1.9-1.9 2.9-2.9 4.8-4.8v-26.1h91.6c1.9-1.9 2.9-2.9 4.8-4.8v-65c-1.9-1.9-2.9-2.9-4.8-4.8h-91.6v-20.7h91.6l4.8-4.8v-74.4c-1.8-1.9-2.9-2.9-4.8-4.8z" fill="#e1ff01"/></g><g fill="#e1ff01" transform="matrix(4.5001558 0 0 4.483364 315.09624 27.41979)"><path d="m118.58 61.523v55.831h7.2329v-24.521h3.5v24.521h7.2329v-55.831h-7.2329v24.077h-3.5v-24.077z" fill="#e1ff01" stroke-width=".66323"/><path d="m140.78 61.523v55.831h13.746l4.2204-4.2192v-47.393l-4.2204-4.2192zm7.2329 7.2329h3.4987v41.365h-3.4987z" fill="#e1ff01" stroke-width=".66323"/></g></svg>