<?xml version="1.0" encoding="UTF-8" standalone="no"?>
<!-- Generator: Adobe Illustrator 19.1.0, SVG Export Plug-In . SVG Version: 6.00 Build 0)  -->

<svg
   xmlns:dc="http://purl.org/dc/elements/1.1/"
   xmlns:cc="http://creativecommons.org/ns#"
   xmlns:rdf="http://www.w3.org/1999/02/22-rdf-syntax-ns#"
   xmlns:svg="http://www.w3.org/2000/svg"
   xmlns="http://www.w3.org/2000/svg"
   xmlns:xlink="http://www.w3.org/1999/xlink"
   xmlns:sodipodi="http://sodipodi.sourceforge.net/DTD/sodipodi-0.dtd"
   xmlns:inkscape="http://www.inkscape.org/namespaces/inkscape"
   version="1.1"
   id="Layer_1"
   x="0px"
   y="0px"
   viewBox="0 0 899.5 576"
   style="enable-background:new 0 0 899.5 576;"
   xml:space="preserve"
   inkscape:version="0.91 r13725"
   sodipodi:docname="TBN UK.svg"><metadata
     id="metadata364"><rdf:RDF><cc:Work
         rdf:about=""><dc:format>image/svg+xml</dc:format><dc:type
           rdf:resource="http://purl.org/dc/dcmitype/StillImage" /><dc:title /></cc:Work></rdf:RDF></metadata><defs
     id="defs362"><linearGradient
       inkscape:collect="always"
       id="linearGradient4549"><stop
         style="stop-color:#a8aaac;stop-opacity:1"
         offset="0"
         id="stop4551" /><stop
         style="stop-color:#7e8083;stop-opacity:1"
         offset="1"
         id="stop4553" /></linearGradient><linearGradient
       id="linearGradient4543"
       inkscape:collect="always"><stop
         id="stop4545"
         offset="0"
         style="stop-color:#1d64b1;stop-opacity:1" /><stop
         id="stop4547"
         offset="1"
         style="stop-color:#224699;stop-opacity:1" /></linearGradient><linearGradient
       inkscape:collect="always"
       id="linearGradient4535"><stop
         style="stop-color:#ed2239;stop-opacity:1"
         offset="0"
         id="stop4537" /><stop
         style="stop-color:#c0202e;stop-opacity:1"
         offset="1"
         id="stop4539" /></linearGradient><radialGradient
       inkscape:collect="always"
       xlink:href="#linearGradient4543"
       id="radialGradient4525"
       cx="107"
       cy="467.1"
       fx="107"
       fy="467.1"
       r="107"
       gradientTransform="matrix(1,0,0,1.017757,0,-8.2942991)"
       gradientUnits="userSpaceOnUse" /><radialGradient
       inkscape:collect="always"
       xlink:href="#linearGradient4543"
       id="radialGradient4533"
       cx="549.29999"
       cy="467.10001"
       fx="549.29999"
       fy="467.10001"
       r="107"
       gradientTransform="matrix(1,0,0,1.017757,0,-8.2942991)"
       gradientUnits="userSpaceOnUse" /><radialGradient
       inkscape:collect="always"
       xlink:href="#linearGradient4535"
       id="radialGradient4541"
       cx="328.1"
       cy="467.1"
       fx="328.1"
       fy="467.1"
       r="107"
       gradientTransform="matrix(1,0,0,1.017757,0,-8.2942991)"
       gradientUnits="userSpaceOnUse" /><radialGradient
       inkscape:collect="always"
       xlink:href="#linearGradient4549"
       id="radialGradient4555"
       cx="783.45"
       cy="441.9"
       fx="783.45"
       fy="441.9"
       r="116.15"
       gradientTransform="matrix(1,0,0,0.72061989,0,123.45807)"
       gradientUnits="userSpaceOnUse" /></defs><sodipodi:namedview
     pagecolor="#ffffff"
     bordercolor="#666666"
     borderopacity="1"
     objecttolerance="10"
     gridtolerance="10"
     guidetolerance="10"
     inkscape:pageopacity="0"
     inkscape:pageshadow="2"
     inkscape:window-width="1920"
     inkscape:window-height="1017"
     id="namedview360"
     showgrid="false"
     inkscape:zoom="2.561423"
     inkscape:cx="179.63021"
     inkscape:cy="75.978273"
     inkscape:window-x="-8"
     inkscape:window-y="-8"
     inkscape:window-maximized="1"
     inkscape:current-layer="Layer_1" /><style
     type="text/css"
     id="style3">
	.Drop_x0020_Shadow{fill:none;}
	.Outer_x0020_Glow_x0020_5_x0020_pt{fill:none;}
	.Blue_x0020_Neon{fill:none;stroke:#8AACDA;stroke-width:7;stroke-linecap:round;stroke-linejoin:round;}
	.Chrome_x0020_Highlight{fill:url(#SVGID_1_);stroke:#FFFFFF;stroke-width:0.3629;stroke-miterlimit:1;}
	.Jive_GS{fill:#FFDD00;}
	.Alyssa_GS{fill:#A6D0E4;}
	.st0{fill:#A4A6A7;}
	.st1{fill:#EBEBEB;}
	.st2{fill:url(#SVGID_2_);}
	.st3{fill:url(#SVGID_3_);}
	.st4{fill:url(#SVGID_4_);}
	.st5{fill:#9D9A95;}
	.st6{fill:#204998;}
	.st7{fill:#E4432D;}
	.st8{fill:#A6A3A5;}
	.st9{fill:url(#SVGID_5_);}
	.st10{fill:#D0C7BE;}
	.st11{fill:#F2F2F2;}
	.st12{fill:#D0C7BE;stroke:#F2F2F2;stroke-width:2;stroke-miterlimit:10;}
</style><linearGradient
     id="SVGID_1_"
     gradientUnits="userSpaceOnUse"
     x1="128.7669"
     y1="48"
     x2="128.7669"
     y2="47"><stop
       offset="0"
       style="stop-color:#656565"
       id="stop6" /><stop
       offset="0.618"
       style="stop-color:#1B1B1B"
       id="stop8" /><stop
       offset="0.6292"
       style="stop-color:#545454"
       id="stop10" /><stop
       offset="0.9831"
       style="stop-color:#3E3E3E"
       id="stop12" /></linearGradient><path
     inkscape:connector-curvature="0"
     class="st1"
     d="M 484.7,361.80001"
     id="path22-9"
     style="fill:#ffffff;fill-opacity:1" /><path
     inkscape:connector-curvature="0"
     class="st6"
     d="m 15.8,374.90001 182.3,0 0,53 -59.8,0 0,134.29999 -62.6,0 0,-134.29999 -59.9,0 z"
     id="path53-6"
     style="fill:#ffffff;fill-opacity:1"
     sodipodi:nodetypes="ccccccccc" /><path
     inkscape:connector-curvature="0"
     class="st7"
     d="m 350.9,435.70001 0,-0.5 c 0,-8.6 -6.7,-12.8 -20.1,-12.8 l -27,0 0,26.2 27.3,0 c 13.2,-0.1 19.8,-4.4 19.8,-12.9 m 4.8,65.49999 0,-0.5 c 0,-4.1 -1.7,-7.39999 -5.1,-9.89999 -3.4,-2.5 -8.5,-3.7 -15.3,-3.7 l -31.6,0 0,27.79999 31.3,0 c 6.8,0 11.9,-1.2 15.4,-3.7 3.6,-2.6 5.3,-5.9 5.3,-10 m 63.2,9.1 c 0,7.5 -1.5,14.4 -4.6,20.7 -3,6.3 -7.6,11.8 -13.7,16.5 -6.1,4.6 -13.6,8.3 -22.7,10.8 -9,2.6 -19.4,3.9 -31.2,3.9 l -104,0 0,-187.29999 104.9,0 c 13,0 23.8,1.4 32.2,4.3 8.5,2.9 15.5,7 21,12.6 3.4,3.4 6.2,7.5 8.3,12.3 2.1,4.8 3.2,10.4 3.2,16.9 l 0,0.5 c 0,11.2 -3,20.3 -9.1,27.2 -6.1,6.9 -14.2,12.1 -24.4,15.7 12.2,3.6 21.9,8.8 29.1,15.8 7.2,7 10.8,16.89999 10.8,29.69999 l 0,0.4 z"
     id="path55-9"
     style="fill:#ffffff;fill-opacity:1"
     sodipodi:nodetypes="csscccccsssccsccccccsccsccsssscsscc" /><path
     inkscape:connector-curvature="0"
     class="st6"
     d="m 580.9,374.90001 62.1,0 0,187.29999 -55.7,0 -69.6,-86.39999 0,86.39999 -62.1,0 0,-187.29999 58.6,0 66.6,82.7 0,-82.7 z"
     id="path57-7"
     style="fill:#ffffff;fill-opacity:1"
     sodipodi:nodetypes="cccccccccccc" /><path
     inkscape:connector-curvature="0"
     class="st8"
     d="m 837.6,507 -40,-57.39999 0,57.39999 -58.3,0 c -14.7,-0.4 -25.7,-3.7 -33,-9.9 -7.8,-6.69999 -13,-13.39999 -15.5,-20.19999 -2.5,-6.8 -3.8,-15.4 -3.8,-25.8 l 0,-75.1 35.4,0 0,74.2 c 0,5.7 0.6,10.2 1.8,13.5 1.2,3.3 3.5,6.1 6.8,8.3 3.3,2.2 7.1,3.3 11.4,3.3 5.2,0 9.3,-1.3 12.4,-3.8 3,-2.5 5,-5.4 6,-8.5 1,-3.1 1.5,-7.4 1.5,-12.7 l 0,-74.3 35.4,0 0,55.5 38.5,-55.5 41.3,0 -47.4,63.1 50.7,67.99999 -43.2,0 z"
     id="path59-1"
     style="fill:#ffffff;fill-opacity:1"
     sodipodi:nodetypes="cccccssccsssscssccccccccc" /><polygon
     class="st0"
     points="370,171.3 367.6,166.4 364.6,170.9 363.6,185.5 366,190.4 369,185.9 "
     id="polygon14" /><polygon
     class="st0"
     points="284.9,170.7 281.9,166.2 279.5,171.1 280.5,185.7 283.5,190.2 285.8,185.3 "
     id="polygon16" /><polygon
     class="st0"
     points="200,183.5 196.4,179.5 194.8,184.7 198,198.9 201.7,203 203.3,197.8 "
     id="polygon18" /><polygon
     class="st0"
     points="450.8,183.9 449.2,178.9 445.8,182.8 442.9,196.4 444.5,201.3 447.9,197.5 "
     id="polygon20" /><path
     class="st1"
     d="M484.7,361.8"
     id="path22" /><linearGradient
     id="SVGID_2_"
     gradientUnits="userSpaceOnUse"
     x1="299.2237"
     y1="51.4492"
     x2="347.5379"
     y2="51.4492"><stop
       offset="0"
       style="stop-color:#C4BEB6"
       id="stop25" /><stop
       offset="0.5209"
       style="stop-color:#C4BEB6"
       id="stop27" /><stop
       offset="1"
       style="stop-color:#817C7E"
       id="stop29" /></linearGradient><path
     class="st2"
     d="M347.5,57c-0.1-2.6-0.7-5.1-1.5-7.4c-3.1-1.1-11.7-3.8-22.8-3.8c-11.1,0-19.5,2.7-22.4,3.8  c-0.9,2.3-1.4,4.8-1.5,7.4c2.7-1,11.7-4.1,24-4.1C335.3,52.9,344.8,56,347.5,57z"
     id="path31" /><linearGradient
     id="SVGID_3_"
     gradientUnits="userSpaceOnUse"
     x1="301.5843"
     y1="23.8795"
     x2="345.1809"
     y2="23.8795"><stop
       offset="0"
       style="stop-color:#C4BEB6"
       id="stop34" /><stop
       offset="0.5209"
       style="stop-color:#C4BEB6"
       id="stop36" /><stop
       offset="1"
       style="stop-color:#817C7E"
       id="stop38" /></linearGradient><path
     class="st3"
     d="M345.2,47.8c-2.6-5.3-7-9.6-12.5-11.9l-3.8-15.2l13.1,4.9v-18l-13.1,5.7L333.6,0h-18.3l4.8,13.3l-13.1-5.7v18  l13.1-4.9l-3.7,14.3c-6.5,2-11.9,6.6-14.9,12.7c3.8-1.3,11.6-3.4,21.6-3.4C333.3,44.4,341.3,46.5,345.2,47.8z"
     id="path40" /><linearGradient
     id="SVGID_4_"
     gradientUnits="userSpaceOnUse"
     x1="162.6613"
     y1="252.201"
     x2="484.6148"
     y2="252.201"><stop
       offset="0"
       style="stop-color:#C4BEB6"
       id="stop43" /><stop
       offset="0.5209"
       style="stop-color:#C4BEB6"
       id="stop45" /><stop
       offset="1"
       style="stop-color:#817C7E"
       id="stop47" /></linearGradient><path
     class="st4"
     d="M162.7,246.7l3.7,15.6l4.1-4.2l16.9-3.6l6.3,2.4l-4.7,4.8l-17,3.6l-5.4-2.1l2.8,12.1l0.6,2.6  c101.2-25.2,205.8-25.2,307,0l3.6-14.9l-5.9,2.3l-17-3.6l-4.7-4.8l6.3-2.4l16.9,3.6l4.4,4.5l1.2-4.8l2.6-11.2  C378.5,219.7,268.7,219.7,162.7,246.7z M259.2,250.6l-17.2,2.1l-6-3l5.1-4.3l17.2-2.1l6,3L259.2,250.6z M332.1,247.1h-17.3l-5.6-3.7  l5.6-3.7h17.3l5.6,3.7L332.1,247.1z M404.8,252.7l-17.2-2.1l-5.1-4.3l6-3l17.2,2.1l5.1,4.3L404.8,252.7z"
     id="path49" /><path
     class="st5"
     d="M170.7,281.8l1.8,7.6c99.7,23.6,202.4,23.7,302.1,0.4l2-8.5C375.7,257.5,271.6,257.6,170.7,281.8z M194.4,285.4  c85.9-18.1,174.1-18,260,0C368.5,303.4,280.3,303.4,194.4,285.4z"
     id="path51" /><path
     class="st6"
     d="M15.8,374.9h182.3v53h-59.8v134.3H75.7V427.9H15.8V374.9z M0,576h214V358.2H0V576z"
     id="path53"
     style="fill-opacity:1;fill:url(#radialGradient4525)" /><path
     class="st7"
     d="M350.9,435.7v-0.5c0-8.6-6.7-12.8-20.1-12.8h-27v26.2h27.3C344.3,448.5,350.9,444.2,350.9,435.7 M355.7,501.2  v-0.5c0-4.1-1.7-7.4-5.1-9.9c-3.4-2.5-8.5-3.7-15.3-3.7h-31.6v27.8h31.3c6.8,0,11.9-1.2,15.4-3.7C354,508.6,355.7,505.3,355.7,501.2   M418.9,510.3c0,7.5-1.5,14.4-4.6,20.7c-3,6.3-7.6,11.8-13.7,16.5c-6.1,4.6-13.6,8.3-22.7,10.8c-9,2.6-19.4,3.9-31.2,3.9h-104V374.9  h104.9c13,0,23.8,1.4,32.2,4.3c8.5,2.9,15.5,7,21,12.6c3.4,3.4,6.2,7.5,8.3,12.3c2.1,4.8,3.2,10.4,3.2,16.9v0.5  c0,11.2-3,20.3-9.1,27.2c-6.1,6.9-14.2,12.1-24.4,15.7c12.2,3.6,21.9,8.8,29.1,15.8c7.2,7,10.8,16.9,10.8,29.7V510.3z M435.1,358.2  h-214V576h214V358.2z"
     id="path55"
     style="fill-opacity:1;fill:url(#radialGradient4541)" /><path
     class="st6"
     d="M580.9,374.9H643v187.3h-55.7l-69.6-86.4v86.4h-62.1V374.9h58.6l66.6,82.7V374.9z M442.3,576h214V358.2h-214  V576z"
     id="path57"
     style="fill-opacity:1.0;fill:url(#radialGradient4533)" /><path
     class="st8"
     d="M667.3,358.2v101.3c0,36.5,29.6,66.1,66.1,66.1h166.2V358.2H667.3z M837.6,507l-40-57.4V507h-58.3  c-14.7-0.4-25.7-3.7-33-9.9c-7.8-6.7-13-13.4-15.5-20.2c-2.5-6.8-3.8-15.4-3.8-25.8V376h35.4v74.2c0,5.7,0.6,10.2,1.8,13.5  c1.2,3.3,3.5,6.1,6.8,8.3c3.3,2.2,7.1,3.3,11.4,3.3c5.2,0,9.3-1.3,12.4-3.8c3-2.5,5-5.4,6-8.5c1-3.1,1.5-7.4,1.5-12.7V376h35.4v55.5  l38.5-55.5h41.3l-47.4,63.1l50.7,68H837.6z"
     id="path59"
     style="fill-opacity:1;fill:url(#radialGradient4555)" /><polygon
     class="st0"
     points="160.2,193.1 154.9,190.1 151.6,195.1 155,209.4 160.3,212.4 163.6,207.4 "
     id="polygon61" /><path
     class="st0"
     d="M168.3,183.7l-6.3,8.6l3.5,14.7l8,4c0.4-0.1,0.9-0.2,1.3-0.3L168.3,183.7z"
     id="path63" /><g
     id="g65"><path
       class="st0"
       d="M151,176.9l-3.9,4.3c0.3,1.4,0.6,2.9,1.2,4.3l1.9,8.2l3.5-5.4L151,176.9z"
       id="path67" /><polygon
       class="st0"
       points="152.6,176.6 155.4,188.2 160.7,191.2 167.3,182.3  "
       id="polygon69" /></g><g
     id="g71"><polygon
       class="st0"
       points="156.7,223.6 162.6,225.9 159.8,214.3 154.2,211.1  "
       id="polygon73" /><path
       class="st0"
       d="M175.2,213.4l-10.1-4.8l-3.6,5.4c0.5,1.9,0.7,3.1,1.2,5l1.6,6.6L175.2,213.4z"
       id="path75" /></g><polygon
     class="st0"
     points="486.5,193.8 491.7,190.8 495.1,195.9 491.6,210.2 486.4,213.2 483,208.1 "
     id="polygon77" /><path
     class="st0"
     d="M478.4,184.4l6.3,8.6l-3.5,14.7l-8,4c-0.4-0.1-0.9-0.2-1.3-0.3L478.4,184.4z"
     id="path79" /><g
     id="g81"><path
       class="st0"
       d="M495.7,177.7l3.9,4.3c-0.3,1.4-0.6,2.9-1.2,4.3l-1.9,8.2l-3.5-5.4L495.7,177.7z"
       id="path83" /><polygon
       class="st0"
       points="494.1,177.4 491.3,188.9 485.9,191.9 479.3,183  "
       id="polygon85" /></g><g
     id="g87"><polygon
       class="st0"
       points="490,224.4 484,226.6 486.8,215.1 492.4,211.9  "
       id="polygon89" /><path
       class="st0"
       d="M471.4,214.2l10.1-4.8l3.6,5.4c-0.5,1.9-0.7,3.1-1.2,5l-1.6,6.6L471.4,214.2z"
       id="path91" /></g><g
     id="g93"><polygon
       class="st0"
       points="239.3,171.5 235.2,176.8 237.8,192.6 243.3,196.4 247.4,191.1 244.8,175.2  "
       id="polygon95" /><polygon
       class="st0"
       points="234.1,175.2 238.2,169.8 236.2,157 223.6,168.9  "
       id="polygon97" /><polygon
       class="st0"
       points="238,156.8 240,169.7 245.5,173.4 253.5,164.1  "
       id="polygon99" /><polygon
       class="st0"
       points="248.6,192.6 244.5,197.9 246.5,210.8 259.1,198.8  "
       id="polygon101" /><polygon
       class="st0"
       points="244.8,211 242.7,198.1 237.2,194.4 229.2,203.6  "
       id="polygon103" /><polygon
       class="st0"
       points="246.7,174.7 249.2,190.7 259.3,196.8 254.4,165.8  "
       id="polygon105" /><path
       class="st0"
       d="M233.3,176.8l-10.1-6l5,31.3c0.4-0.5,0.8-1,1.2-1.4l6.4-8.1L233.3,176.8z"
       id="path107" /></g><g
     id="g109"><polygon
       class="st0"
       points="325.4,160.8 320.4,165.5 320.3,182 325.3,186.7 330.3,182 330.4,165.5  "
       id="polygon111" /><polygon
       class="st0"
       points="319.5,163.7 324.5,158.9 324.6,145.5 309.8,155.6  "
       id="polygon113" /><polygon
       class="st0"
       points="326.4,145.6 326.4,159 331.3,163.7 341,155.6  "
       id="polygon115" /><polygon
       class="st0"
       points="331.4,183.7 326.3,188.5 326.2,201.9 341,191.8  "
       id="polygon117" /><polygon
       class="st0"
       points="324.4,201.8 324.5,188.4 319.5,183.7 309.9,191.8  "
       id="polygon119" /><polygon
       class="st0"
       points="332.3,165.2 332.3,181.9 341.6,189.8 341.6,157.4  "
       id="polygon121" /><path
       class="st0"
       d="M318.4,165.2l-9.3-7.8l-0.1,31.3c0,0.7,0,0.5,0,1.2l9.3-8.4L318.4,165.2z"
       id="path123" /></g><g
     id="g125"><polygon
       class="st0"
       points="407.3,171.2 401.8,174.8 399.2,190.4 403.2,195.7 408.6,192 411.2,176.4  "
       id="polygon127" /><polygon
       class="st0"
       points="401.2,173 406.8,169.3 408.9,156.6 393.3,163.8  "
       id="polygon129" /><polygon
       class="st0"
       points="410.6,157 408.5,169.7 412.4,174.9 422.8,168.7  "
       id="polygon131" /><polygon
       class="st0"
       points="409.3,193.8 403.8,197.5 401.7,210.2 417.2,203  "
       id="polygon133" /><polygon
       class="st0"
       points="400,209.8 402.1,197.1 398.1,191.9 387.8,198.1  "
       id="polygon135" /><polygon
       class="st0"
       points="413.1,176.5 410.5,192.2 418,201.1 423.1,170.5  "
       id="polygon137" /><path
       class="st0"
       d="M400,174.3l-7.6-8.8l-4.9,29.6c-0.1,0.6-0.1,0.5-0.2,1.1l10.1-6.5L400,174.3z"
       id="path139" /></g><linearGradient
     id="SVGID_5_"
     gradientUnits="userSpaceOnUse"
     x1="157.1878"
     y1="219.8529"
     x2="488.1685"
     y2="219.8529"><stop
       offset="0"
       style="stop-color:#C4BEB6"
       id="stop142" /><stop
       offset="0.5209"
       style="stop-color:#C4BEB6"
       id="stop144" /><stop
       offset="1"
       style="stop-color:#817C7E"
       id="stop146" /></linearGradient><path
     class="st9"
     d="M487.7,230.1l0.4-2l-6,2.3l-13.8-15.3l0.5-2.1c-7.3-1.6-14.7-3.2-22-4.6l-4.5,2.7l-2.8-4.1  c-6.6-1.2-13.2-2.2-19.8-3.2l0,0.3l-19.3,9.2L386,199.7c-5.9-0.6-11.8-1-17.7-1.5l-3.1,2.6l-2.7-2.9c-8.4-0.5-16.7-0.8-25.1-1  l-11.9,8.2l-12.1-8.3c-8.9,0.1-17.7,0.4-26.6,0.9l-2.4,2.6l-2.8-2.3c-6.8,0.4-13.7,1-20.5,1.6l-14.9,14.1l-19.3-9.2l-0.1-0.8  c-6.7,1-13.3,2-19.9,3.2l-3.4,4.9l-5.3-3.2c-6.9,1.3-13.8,2.8-20.7,4.3l0.2,0.8l-13.3,14.7l-6.9-2.6l1,4.3c0.1,0,0.2-0.1,0.3-0.1  c0.7,0,1.4,0.6,1.4,1.4c0,0.7-0.5,1.2-1.1,1.3l2.2,10.2c106.7-27.5,217.2-27.5,323.9,0l2.3-10.2c-0.5-0.2-0.8-0.7-0.8-1.2  C486.4,230.7,487,230.1,487.7,230.1z M180.2,227.9c-0.7,0-1.4-0.6-1.4-1.4c0-0.7,0.6-1.4,1.4-1.4c0.7,0,1.4,0.6,1.4,1.4  C181.5,227.3,180.9,227.9,180.2,227.9z M204.6,223c-0.9,0-1.6-0.7-1.6-1.6c0-0.9,0.7-1.6,1.6-1.6c0.9,0,1.6,0.7,1.6,1.6  C206.2,222.3,205.5,223,204.6,223z M230.9,218.9c-1,0-1.9-0.8-1.9-1.9c0-1,0.9-1.9,1.9-1.9c1.1,0,1.9,0.9,1.9,1.9  C232.8,218.1,231.9,218.9,230.9,218.9z M258.6,215.7c-1.2,0-2.2-1-2.2-2.2c0-1.2,1-2.2,2.2-2.2c1.2,0,2.2,1,2.2,2.2  C260.7,214.7,259.8,215.7,258.6,215.7z M284.1,213.8c-1.3,0-2.4-1.1-2.4-2.4c0-1.3,1.1-2.4,2.4-2.4c1.4,0,2.4,1.1,2.4,2.4  C286.5,212.7,285.4,213.8,284.1,213.8z M309.3,213c-1.5,0-2.7-1.2-2.7-2.7c0-1.5,1.2-2.7,2.7-2.7c1.5,0,2.7,1.2,2.7,2.7  C312,211.7,310.8,213,309.3,213z M336.9,213c-1.5,0-2.7-1.2-2.7-2.7c0-1.5,1.2-2.7,2.7-2.7c1.5,0,2.7,1.2,2.7,2.7  C339.7,211.7,338.4,213,336.9,213z M362.2,213.8c-1.4,0-2.4-1.1-2.4-2.4c0-1.3,1.1-2.4,2.4-2.4c1.3,0,2.4,1.1,2.4,2.4  C364.6,212.7,363.5,213.8,362.2,213.8z M387.7,215.7c-1.2,0-2.2-1-2.2-2.2c0-1.2,1-2.2,2.2-2.2c1.2,0,2.2,1,2.2,2.2  C389.8,214.7,388.9,215.7,387.7,215.7z M415.3,218.9c-1,0-1.9-0.8-1.9-1.9c0-1,0.8-1.9,1.9-1.9c1,0,1.9,0.9,1.9,1.9  C417.2,218.1,416.4,218.9,415.3,218.9z M441.6,223c-0.9,0-1.6-0.7-1.6-1.6c0-0.9,0.7-1.6,1.6-1.6c0.9,0,1.6,0.7,1.6,1.6  C443.3,222.3,442.5,223,441.6,223z M466,227.9c-0.7,0-1.4-0.6-1.4-1.4c0-0.7,0.6-1.4,1.4-1.4c0.7,0,1.4,0.6,1.4,1.4  C467.4,227.3,466.8,227.9,466,227.9z"
     id="path148" /><path
     class="st5"
     d="M496.3,145.4c0-4.9,4-9,8.9-9c-0.1-0.8-0.2-1.5-0.3-2.3c-0.3,0-0.6,0-0.9,0c-5.7,0-10.4-4.7-10.4-10.4  c0-4.1,2.4-7.6,5.8-9.3c-0.3-0.7-0.7-1.4-1-2.1c-0.9,0.3-1.9,0.4-2.9,0.4c-5.7,0-10.4-4.7-10.4-10.4c0-2.2,0.7-4.3,1.9-6  c-0.6-0.6-1.2-1.2-1.8-1.7c-1.8,1.6-4.2,2.6-6.8,2.6c-5.7,0-10.4-4.7-10.4-10.4c0-1,0.2-2,0.4-3c-0.6-0.3-1.3-0.5-1.9-0.8  c-1,4-4.5,6.9-8.8,6.9c-5,0-9.1-4.1-9.1-9.1c0-0.6,0.1-1.1,0.2-1.7c-0.6,0-1.2-0.1-1.9-0.1c0,4.2-3.5,7.6-7.7,7.6  c-1.2,0-2.5-1.8-3.5-2.3c0.2,0.8,0.5,3.1,0.5,4c0,6-4.9,10.9-10.9,10.9c-6,0-10.9-4.9-10.9-10.9c0-6,4.9-10.9,10.9-10.9  c0.7,0,1.4,0.1,2.1,0.2c-1-1.5-2-3-3.1-4.5c-1.7,3.9-5.5,6.6-10,6.6c-6,0-10.9-4.9-10.9-10.9c0-4.2,2.4-7.8,5.8-9.7  c-0.6-0.4-1.3-0.8-2-1.2c-1.1,4.5-5.2,7.9-10.1,7.9c-5.7,0-10.4-4.7-10.4-10.4c0-1.3,0.3-2.6,0.7-3.8c-0.7-0.1-1.5-0.1-2.2-0.2  c0,0.3,0.1,0.5,0.1,0.8c0,5-4.1,9.1-9.1,9.1c-4.9,0-8.9-4-9-8.9c-0.8,0.1-1.6,0.2-2.4,0.4c0.6,1.1,1,2.3,1,3.7  c0,4.3-3.5,7.7-7.7,7.7c-4.2,0-7.7-3.4-7.7-7.6c-1.5,0.5-2.9,1-4.3,1.6c-3.5-1.2-12.1-3.7-22.9-3.7c-11,0-19.5,2.6-22.7,3.7  c-1.5-0.6-2.9-1.1-4.4-1.6c0,4.2-3.5,7.6-7.7,7.6c-4.3,0-7.7-3.5-7.7-7.7c0-1.3,0.4-2.6,1-3.7c-0.8-0.1-1.6-0.3-2.4-0.4  c-0.1,4.9-4.1,8.9-9,8.9c-5,0-9.1-4.1-9.1-9.1c0-0.3,0.1-0.5,0.1-0.8c-0.7,0-1.5,0.1-2.2,0.2c0.5,1.2,0.7,2.5,0.7,3.8  c0,5.7-4.7,10.4-10.4,10.4c-4.9,0-9-3.4-10.1-7.9c-0.7,0.4-1.3,0.8-2,1.2c3.5,1.8,5.8,5.5,5.8,9.7c0,6-4.9,10.9-10.9,10.9  c-4.5,0-8.3-2.7-10-6.6c-1.1,1.4-2.1,2.9-3.1,4.5c0.7-0.1,1.4-0.2,2.1-0.2c6,0,10.9,4.9,10.9,10.9c0,6-4.9,10.9-10.9,10.9  c-6,0-10.9-4.9-10.9-10.9c0-0.8,0.5-3.9,0.7-4.7c-1,0.5-2.9,1.8-4.1,1.8c-4.2,0-7.2-2.2-7.3-6.5c-0.6,0-1.3,0.1-1.9,0.1  c0.1,0.6,0.2,1.1,0.2,1.7c0,5-4.1,9.1-9.1,9.1c-4.3,0-7.8-2.9-8.8-6.9c-0.6,0.2-1.3,0.5-1.9,0.8c0.3,0.9,0.4,2,0.4,3  c0,5.7-4.7,10.4-10.4,10.4c-2.6,0-5-1-6.8-2.5c-0.6,0.6-1.2,1.1-1.8,1.7c1.2,1.7,1.9,3.7,1.9,5.9c0,5.7-4.7,10.4-10.4,10.4  c-1,0-1.9-0.1-2.7-0.4c-0.4,0.7-0.7,1.4-1,2.2c3.3,1.7,5.6,5.2,5.6,9.2c0,5.7-4.7,10.4-10.4,10.4c-0.2,0-0.4,0-0.7,0  c-0.1,0.8-0.2,1.5-0.3,2.3c4.8,0.2,8.6,4.2,8.6,9c0,4.8-3.8,8.7-8.5,9c0.1,0.8,0.2,1.5,0.3,2.3c0.8-0.3,1.7-0.5,2.7-0.5  c4.3,0,7.7,3.5,7.7,7.7c0,4-3.1,7.3-7.1,7.7c0.1,0.3,0.2,0.6,0.3,0.9c0,0.1,0.1,0.3,0.1,0.4c-0.1,0-0.2,0-0.2,0l1.1,4.9  c0.1,0.4,0.1,0.8,0.2,1.2l4.4-4.9l18.5,7.1l7,29.2c5.9-1.3,11.9-2.6,17.8-3.7l-1.6-1l-5.4-25.5l7-10.1l10.5,6.4l5.4,25.5l-1.4,2  c5.7-1,11.5-1.9,17.3-2.8l-5.1-32.3l15.5-14.7l19.3,9.2l5.4,33.6c5.7-0.5,11.4-1,17-1.4l-4-3.2l-1.9-27.2l8.8-9.5l10,8.2l1.9,27.2  l-3.6,3.9c6.6-0.3,13.2-0.6,19.8-0.7l-2.1-1.4l-0.1-37.7l18.3-12.6l18.3,12.5l0.1,37.7l-2.3,1.6c6.1,0.2,12.2,0.4,18.4,0.8l-3.3-3.6  l1.9-27.2l10-8.2l8.8,9.5l-1.9,27.2l-3.7,3c4.5,0.3,9.1,0.7,13.6,1.2l5.4-34.2l19.3-9.2l15.6,14.7l-5.2,32.9  c5.7,0.8,11.4,1.8,17.1,2.7l-1.9-2.8l5.4-25.5l10.5-6.4l7,10.1l-5.4,25.5l-2.5,1.5c6.4,1.2,12.8,2.6,19.1,4l7-29.1l19.2-7.3l3.8,4.2  l1.5-6.6c-3.9-0.4-7-3.6-7-7.6c0-4.3,3.5-7.7,7.7-7.7c1,0,1.9,0.2,2.8,0.5c0.1-0.8,0.2-1.5,0.3-2.3  C500.2,154.2,496.3,150.3,496.3,145.4z M425.4,99.9c5.7,0,10.4,4.7,10.4,10.4c0,5.7-4.7,10.4-10.4,10.4c-5.7,0-10.4-4.7-10.4-10.4  C415,104.6,419.6,99.9,425.4,99.9z M324.4,63c5.4,0,9.9,4.4,9.9,9.9c0,5.4-4.4,9.9-9.9,9.9s-9.9-4.4-9.9-9.9  C314.6,67.4,319,63,324.4,63z M221.1,99.9c5.7,0,10.4,4.7,10.4,10.4c0,5.7-4.7,10.4-10.4,10.4s-10.4-4.7-10.4-10.4  C210.7,104.6,215.4,99.9,221.1,99.9z M211.4,159c-15.2-0.3-22.6-0.7-41.6,7.4c-3.2,1.4-5.7,3.1-7.6,4.9c-0.3-1.4-0.5-2.9-0.7-4.5  c-4.8-35.1,2.3-62.2,27.6-70.7c6.9-2.8,14.5-2.6,22,0c-5,18.5-3,40,7.2,59.6c0.5,1.2,1.1,2.3,1.8,3.4  C216.8,159.1,213.9,159,211.4,159z M215.6,130.1c0-5,4.1-9.1,9.1-9.1c5,0,9.1,4.1,9.1,9.1c0,5-4.1,9.1-9.1,9.1  C219.6,139.2,215.6,135.1,215.6,130.1z M232.1,153.6c-4.3,0-7.7-3.5-7.7-7.7c0-4.3,3.5-7.7,7.7-7.7c4.3,0,7.7,3.5,7.7,7.7  C239.8,150.2,236.4,153.6,232.1,153.6z M251.5,152.6c-1.6-5.6-4.6-12.5-8.7-21.1c-12-27.2-2.2-59.5,17.1-66  c13.8-4.6,33,2.8,44.8,17.2c0.2,3.1,0.8,7,1.8,11.8c4.2,19.2,5.1,36.1,5.2,47C280.7,142.5,264.3,148,251.5,152.6z M325.2,141.2  C325.1,141.2,325.1,141.2,325.2,141.2L325.2,141.2c-0.3,0-0.5,0.1-0.7,0.1l0-0.1c-0.3,0-0.5,0-0.8,0c-3.9-0.4-6.9-3.6-6.9-7.6  c0-4.3,3.5-7.7,7.7-7.7c4.3,0,7.7,3.5,7.7,7.7C332.2,137.6,329.1,140.9,325.2,141.2z M324.4,125.3c-5.4,0-9.9-4.4-9.9-9.9  c0-5.4,4.4-9.9,9.9-9.9s9.9,4.4,9.9,9.9C334.3,120.8,329.9,125.3,324.4,125.3z M324.4,104.9c-6,0-10.9-4.9-10.9-10.9  c0-6,4.9-10.9,10.9-10.9c6,0,10.9,4.9,10.9,10.9C335.4,100,330.5,104.9,324.4,104.9z M395,152.7c-10.4-4.4-23.9-10-57.6-11.2  c0.2-11.3,1.3-29.2,5.5-47.1c1.6-6.8,2.1-11.7,1.9-15.2c11.9-12.1,29.1-18,41.7-13.7c19.4,6.5,29.1,38.8,17.1,66  C399.6,140.1,396.6,147,395,152.7z M414.4,153.6c-4.3,0-7.7-3.5-7.7-7.7c0-4.3,3.5-7.7,7.7-7.7c4.3,0,7.7,3.5,7.7,7.7  C422.1,150.2,418.6,153.6,414.4,153.6z M421.9,139.2c-5,0-9.1-4.1-9.1-9.1c0-5,4.1-9.1,9.1-9.1c5,0,9.1,4.1,9.1,9.1  C430.9,135.1,426.9,139.2,421.9,139.2z M485.1,166.8c-0.1,1.1-0.3,2.1-0.5,3.1c-1.7-1.3-3.7-2.5-6.1-3.5  c-19.9-8.4-32.6-8.2-50.7-8.1c-0.3,0-0.5,0-0.8,0c0.5-0.8,0.9-1.7,1.3-2.6c10.2-19.7,12.2-41.1,7.2-59.6c7.4-2.6,15.1-2.8,22,0  C482.8,104.6,489.9,131.7,485.1,166.8z"
     id="path150" /><g
     id="g152"><path
       class="st10"
       d="M288.3,64.3c-4.3,0-7.8-3.5-7.8-7.8c0-4.3,3.5-7.8,7.8-7.8c4.3,0,7.8,3.5,7.8,7.8   C296.1,60.8,292.6,64.3,288.3,64.3z"
       id="path154" /><path
       class="st11"
       d="M288.3,49.7c3.7,0,6.8,3,6.8,6.8c0,3.7-3,6.8-6.8,6.8c-3.7,0-6.8-3-6.8-6.8C281.5,52.8,284.6,49.7,288.3,49.7    M288.3,47.7c-4.8,0-8.8,3.9-8.8,8.8c0,4.8,3.9,8.8,8.8,8.8c4.8,0,8.8-3.9,8.8-8.8C297.1,51.7,293.2,47.7,288.3,47.7L288.3,47.7z"
       id="path156" /></g><g
     id="g158"><path
       class="st10"
       d="M270.1,61.3c-5,0-9.1-4.1-9.1-9.1c0-5,4.1-9.1,9.1-9.1s9.1,4.1,9.1,9.1C279.2,57.3,275.1,61.3,270.1,61.3z"
       id="path160" /><path
       class="st11"
       d="M270.1,44.1c4.5,0,8.1,3.6,8.1,8.1c0,4.5-3.6,8.1-8.1,8.1s-8.1-3.6-8.1-8.1C262,47.8,265.6,44.1,270.1,44.1    M270.1,42.1c-5.6,0-10.1,4.5-10.1,10.1c0,5.6,4.5,10.1,10.1,10.1s10.1-4.5,10.1-10.1C280.2,46.7,275.7,42.1,270.1,42.1L270.1,42.1   z"
       id="path162" /></g><g
     id="g164"><path
       class="st10"
       d="M249.2,65.9c-5.8,0-10.4-4.7-10.4-10.4c0-5.8,4.7-10.4,10.4-10.4c5.8,0,10.4,4.7,10.4,10.4   C259.7,61.2,255,65.9,249.2,65.9z"
       id="path166" /><path
       class="st11"
       d="M249.2,46c5.2,0,9.4,4.2,9.4,9.4c0,5.2-4.2,9.4-9.4,9.4c-5.2,0-9.4-4.2-9.4-9.4C239.8,50.2,244,46,249.2,46    M249.2,44c-6.3,0-11.4,5.1-11.4,11.4c0,6.3,5.1,11.4,11.4,11.4c6.3,0,11.4-5.1,11.4-11.4C260.7,49.1,255.5,44,249.2,44L249.2,44z"
       id="path168" /></g><g
     id="g170"><path
       class="st10"
       d="M232.1,79.8c-6.1,0-11-4.9-11-11s4.9-11,11-11s11,4.9,11,11S238.2,79.8,232.1,79.8z"
       id="path172" /><path
       class="st11"
       d="M232.1,58.8c5.5,0,10,4.5,10,10s-4.5,10-10,10c-5.5,0-10-4.5-10-10S226.6,58.8,232.1,58.8 M232.1,56.8   c-6.6,0-12,5.4-12,12s5.4,12,12,12c6.6,0,12-5.4,12-12S238.7,56.8,232.1,56.8L232.1,56.8z"
       id="path174" /></g><g
     id="g176"><path
       class="st10"
       d="M221.1,99.4c-6.1,0-11-4.9-11-11c0-6.1,4.9-11,11-11s11,4.9,11,11C232.1,94.4,227.2,99.4,221.1,99.4z"
       id="path178" /><path
       class="st11"
       d="M221.1,78.4c5.5,0,10,4.5,10,10c0,5.5-4.5,10-10,10s-10-4.5-10-10C211.1,82.9,215.6,78.4,221.1,78.4    M221.1,76.4c-6.6,0-12,5.4-12,12c0,6.6,5.4,12,12,12c6.6,0,12-5.4,12-12C233.1,81.8,227.7,76.4,221.1,76.4L221.1,76.4z"
       id="path180" /></g><g
     id="g182"><path
       class="st10"
       d="M221.1,120.8c-5.8,0-10.4-4.7-10.4-10.4c0-5.8,4.7-10.5,10.4-10.5c5.8,0,10.4,4.7,10.4,10.5   C231.6,116.1,226.9,120.8,221.1,120.8z"
       id="path184" /><path
       class="st11"
       d="M221.1,100.9c5.2,0,9.4,4.2,9.4,9.4c0,5.2-4.2,9.4-9.4,9.4c-5.2,0-9.4-4.2-9.4-9.4   C211.7,105.1,215.9,100.9,221.1,100.9 M221.1,98.9c-6.3,0-11.4,5.1-11.4,11.4c0,6.3,5.1,11.4,11.4,11.4c6.3,0,11.4-5.1,11.4-11.4   C232.6,104,227.4,98.9,221.1,98.9L221.1,98.9z"
       id="path186" /></g><g
     id="g188"><path
       class="st10"
       d="M224.6,139.2c-5,0-9.1-4.1-9.1-9.1c0-5,4.1-9.1,9.1-9.1c5,0,9.1,4.1,9.1,9.1   C233.7,135.1,229.6,139.2,224.6,139.2z"
       id="path190" /><path
       class="st11"
       d="M224.6,122c4.5,0,8.1,3.6,8.1,8.1c0,4.5-3.6,8.1-8.1,8.1c-4.5,0-8.1-3.6-8.1-8.1   C216.5,125.7,220.1,122,224.6,122 M224.6,120c-5.6,0-10.1,4.5-10.1,10.1c0,5.6,4.5,10.1,10.1,10.1c5.6,0,10.1-4.5,10.1-10.1   C234.7,124.5,230.2,120,224.6,120L224.6,120z"
       id="path192" /></g><g
     id="g194"><path
       class="st10"
       d="M232.1,153.7c-4.3,0-7.8-3.5-7.8-7.8s3.5-7.8,7.8-7.8s7.8,3.5,7.8,7.8S236.4,153.7,232.1,153.7z"
       id="path196" /><path
       class="st11"
       d="M232.1,139.1c3.7,0,6.8,3,6.8,6.8c0,3.7-3,6.8-6.8,6.8c-3.7,0-6.8-3-6.8-6.8   C225.3,142.2,228.4,139.1,232.1,139.1 M232.1,137.1c-4.8,0-8.8,3.9-8.8,8.8c0,4.8,3.9,8.8,8.8,8.8c4.8,0,8.8-3.9,8.8-8.8   C240.9,141.1,236.9,137.1,232.1,137.1L232.1,137.1z"
       id="path198" /></g><g
     id="g200"><path
       class="st10"
       d="M206,85.2c-4.3,0-7.8-3.5-7.8-7.8c0-4.3,3.5-7.8,7.8-7.8s7.8,3.5,7.8,7.8C213.7,81.8,210.3,85.2,206,85.2z"
       id="path202" /><path
       class="st11"
       d="M206,70.7c3.7,0,6.8,3,6.8,6.8c0,3.7-3,6.8-6.8,6.8c-3.7,0-6.8-3-6.8-6.8C199.2,73.7,202.2,70.7,206,70.7    M206,68.7c-4.8,0-8.8,3.9-8.8,8.8c0,4.8,3.9,8.8,8.8,8.8c4.8,0,8.8-3.9,8.8-8.8C214.7,72.6,210.8,68.7,206,68.7L206,68.7z"
       id="path204" /></g><g
     id="g206"><path
       class="st10"
       d="M188.7,90c-5,0-9.1-4.1-9.1-9.1s4.1-9.1,9.1-9.1s9.1,4.1,9.1,9.1S193.8,90,188.7,90z"
       id="path208" /><path
       class="st11"
       d="M188.7,72.8c4.5,0,8.1,3.6,8.1,8.1c0,4.5-3.6,8.1-8.1,8.1c-4.5,0-8.1-3.6-8.1-8.1   C180.6,76.4,184.3,72.8,188.7,72.8 M188.7,70.8c-5.6,0-10.1,4.5-10.1,10.1c0,5.6,4.5,10.1,10.1,10.1c5.6,0,10.1-4.5,10.1-10.1   C198.9,75.3,194.3,70.8,188.7,70.8L188.7,70.8z"
       id="path210" /></g><g
     id="g212"><path
       class="st10"
       d="M168.1,97.2c-5.8,0-10.4-4.7-10.4-10.4s4.7-10.4,10.4-10.4c5.8,0,10.4,4.7,10.4,10.4S173.9,97.2,168.1,97.2z"
       id="path214" /><path
       class="st11"
       d="M168.1,77.3c5.2,0,9.4,4.2,9.4,9.4c0,5.2-4.2,9.4-9.4,9.4c-5.2,0-9.4-4.2-9.4-9.4   C158.7,81.6,162.9,77.3,168.1,77.3 M168.1,75.3c-6.3,0-11.4,5.1-11.4,11.4s5.1,11.4,11.4,11.4c6.3,0,11.4-5.1,11.4-11.4   S174.4,75.3,168.1,75.3L168.1,75.3z"
       id="path216" /></g><g
     id="g218"><path
       class="st10"
       d="M151,112.7c-5.8,0-10.4-4.7-10.4-10.4c0-5.8,4.7-10.4,10.4-10.4c5.8,0,10.4,4.7,10.4,10.4   C161.5,108,156.8,112.7,151,112.7z"
       id="path220" /><path
       class="st11"
       d="M151,92.8c5.2,0,9.4,4.2,9.4,9.4c0,5.2-4.2,9.4-9.4,9.4c-5.2,0-9.4-4.2-9.4-9.4   C141.6,97.1,145.8,92.8,151,92.8 M151,90.8c-6.3,0-11.4,5.1-11.4,11.4c0,6.3,5.1,11.4,11.4,11.4c6.3,0,11.4-5.1,11.4-11.4   C162.5,96,157.3,90.8,151,90.8L151,90.8z"
       id="path222" /></g><g
     id="g224"><path
       class="st10"
       d="M142.4,134.1c-5.8,0-10.4-4.7-10.4-10.4c0-5.8,4.7-10.4,10.4-10.4c5.8,0,10.4,4.7,10.4,10.4   C152.9,129.5,148.2,134.1,142.4,134.1z"
       id="path226" /><path
       class="st11"
       d="M142.4,114.3c5.2,0,9.4,4.2,9.4,9.4c0,5.2-4.2,9.4-9.4,9.4c-5.2,0-9.4-4.2-9.4-9.4   C133,118.5,137.2,114.3,142.4,114.3 M142.4,112.3c-6.3,0-11.4,5.1-11.4,11.4c0,6.3,5.1,11.4,11.4,11.4c6.3,0,11.4-5.1,11.4-11.4   C153.9,117.4,148.8,112.3,142.4,112.3L142.4,112.3z"
       id="path228" /></g><g
     id="g230"><path
       class="st10"
       d="M141.1,154.5c-5,0-9.1-4.1-9.1-9.1s4.1-9.1,9.1-9.1c5,0,9.1,4.1,9.1,9.1S146.1,154.5,141.1,154.5z"
       id="path232" /><path
       class="st11"
       d="M141.1,137.3c4.5,0,8.1,3.6,8.1,8.1c0,4.5-3.6,8.1-8.1,8.1s-8.1-3.6-8.1-8.1   C133,140.9,136.6,137.3,141.1,137.3 M141.1,135.3c-5.6,0-10.1,4.5-10.1,10.1c0,5.6,4.5,10.1,10.1,10.1s10.1-4.5,10.1-10.1   C151.2,139.8,146.7,135.3,141.1,135.3L141.1,135.3z"
       id="path234" /></g><g
     id="g236"><path
       class="st10"
       d="M144.6,171.6c-4.3,0-7.8-3.5-7.8-7.8s3.5-7.8,7.8-7.8c4.3,0,7.8,3.5,7.8,7.8S148.9,171.6,144.6,171.6z"
       id="path238" /><path
       class="st11"
       d="M144.6,157.1c3.7,0,6.8,3,6.8,6.8c0,3.7-3,6.8-6.8,6.8c-3.7,0-6.8-3-6.8-6.8   C137.8,160.1,140.9,157.1,144.6,157.1 M144.6,155.1c-4.8,0-8.8,3.9-8.8,8.8c0,4.8,3.9,8.8,8.8,8.8c4.8,0,8.8-3.9,8.8-8.8   C153.4,159,149.4,155.1,144.6,155.1L144.6,155.1z"
       id="path240" /></g><g
     id="g242"><path
       class="st10"
       d="M358.2,64.3c-4.3,0-7.8-3.5-7.8-7.8c0-4.3,3.5-7.8,7.8-7.8c4.3,0,7.8,3.5,7.8,7.8   C365.9,60.8,362.4,64.3,358.2,64.3z"
       id="path244" /><path
       class="st11"
       d="M358.2,49.7c3.7,0,6.8,3,6.8,6.8c0,3.7-3,6.8-6.8,6.8c-3.7,0-6.8-3-6.8-6.8C351.4,52.8,354.4,49.7,358.2,49.7    M358.2,47.7c-4.8,0-8.8,3.9-8.8,8.8c0,4.8,3.9,8.8,8.8,8.8c4.8,0,8.8-3.9,8.8-8.8C366.9,51.7,363,47.7,358.2,47.7L358.2,47.7z"
       id="path246" /></g><g
     id="g248"><path
       class="st10"
       d="M376.4,61.3c-5,0-9.1-4.1-9.1-9.1c0-5,4.1-9.1,9.1-9.1c5,0,9.1,4.1,9.1,9.1C385.5,57.3,381.4,61.3,376.4,61.3   z"
       id="path250" /><path
       class="st11"
       d="M376.4,44.1c4.5,0,8.1,3.6,8.1,8.1c0,4.5-3.6,8.1-8.1,8.1c-4.5,0-8.1-3.6-8.1-8.1   C368.2,47.8,371.9,44.1,376.4,44.1 M376.4,42.1c-5.6,0-10.1,4.5-10.1,10.1c0,5.6,4.5,10.1,10.1,10.1c5.6,0,10.1-4.5,10.1-10.1   C386.5,46.7,381.9,42.1,376.4,42.1L376.4,42.1z"
       id="path252" /></g><g
     id="g254"><path
       class="st10"
       d="M397.2,65.9c-5.8,0-10.4-4.7-10.4-10.4c0-5.8,4.7-10.4,10.4-10.4c5.8,0,10.4,4.7,10.4,10.4   C407.7,61.2,403,65.9,397.2,65.9z"
       id="path256" /><path
       class="st11"
       d="M397.2,46c5.2,0,9.4,4.2,9.4,9.4c0,5.2-4.2,9.4-9.4,9.4c-5.2,0-9.4-4.2-9.4-9.4C387.8,50.2,392,46,397.2,46    M397.2,44c-6.3,0-11.4,5.1-11.4,11.4c0,6.3,5.1,11.4,11.4,11.4c6.3,0,11.4-5.1,11.4-11.4C408.7,49.1,403.5,44,397.2,44L397.2,44z"
       id="path258" /></g><g
     id="g260"><path
       class="st10"
       d="M414.4,79.8c-6.1,0-11-4.9-11-11s4.9-11,11-11c6.1,0,11,4.9,11,11S420.4,79.8,414.4,79.8z"
       id="path262" /><path
       class="st11"
       d="M414.4,58.8c5.5,0,10,4.5,10,10s-4.5,10-10,10c-5.5,0-10-4.5-10-10S408.9,58.8,414.4,58.8 M414.4,56.8   c-6.6,0-12,5.4-12,12s5.4,12,12,12c6.6,0,12-5.4,12-12S421,56.8,414.4,56.8L414.4,56.8z"
       id="path264" /></g><g
     id="g266"><path
       class="st10"
       d="M425.3,99.4c-6.1,0-11-4.9-11-11c0-6.1,4.9-11,11-11s11,4.9,11,11C436.3,94.4,431.4,99.4,425.3,99.4z"
       id="path268" /><path
       class="st11"
       d="M425.3,78.4c5.5,0,10,4.5,10,10c0,5.5-4.5,10-10,10c-5.5,0-10-4.5-10-10C415.4,82.9,419.8,78.4,425.3,78.4    M425.3,76.4c-6.6,0-12,5.4-12,12c0,6.6,5.4,12,12,12s12-5.4,12-12C437.3,81.8,431.9,76.4,425.3,76.4L425.3,76.4z"
       id="path270" /></g><g
     id="g272"><path
       class="st10"
       d="M324.4,82.9c-5.6,0-10.1-4.5-10.1-10.1s4.5-10.1,10.1-10.1s10.1,4.5,10.1,10.1S330,82.9,324.4,82.9z"
       id="path274" /><path
       class="st11"
       d="M324.4,63.8c5,0,9.1,4.1,9.1,9.1c0,5-4.1,9.1-9.1,9.1c-5,0-9.1-4.1-9.1-9.1C315.4,67.8,319.4,63.8,324.4,63.8    M324.4,61.8c-6.1,0-11.1,5-11.1,11.1c0,6.1,5,11.1,11.1,11.1s11.1-5,11.1-11.1C335.5,66.7,330.6,61.8,324.4,61.8L324.4,61.8z"
       id="path276" /></g><g
     id="g278"><path
       class="st10"
       d="M324.4,104.8c-6,0-10.8-4.9-10.8-10.8s4.9-10.8,10.8-10.8S335.3,88,335.3,94S330.4,104.8,324.4,104.8z"
       id="path280" /><path
       class="st11"
       d="M324.4,84.1c5.4,0,9.8,4.4,9.8,9.8c0,5.4-4.4,9.8-9.8,9.8c-5.4,0-9.8-4.4-9.8-9.8   C314.6,88.6,319,84.1,324.4,84.1 M324.4,82.1c-6.5,0-11.8,5.3-11.8,11.8c0,6.5,5.3,11.8,11.8,11.8s11.8-5.3,11.8-11.8   C336.3,87.5,331,82.1,324.4,82.1L324.4,82.1z"
       id="path282" /></g><g
     id="g284"><path
       class="st10"
       d="M324.4,125.5c-5.6,0-10.1-4.5-10.1-10.1s4.5-10.1,10.1-10.1s10.1,4.5,10.1,10.1S330,125.5,324.4,125.5z"
       id="path286" /><path
       class="st11"
       d="M324.4,106.3c5,0,9.1,4.1,9.1,9.1c0,5-4.1,9.1-9.1,9.1c-5,0-9.1-4.1-9.1-9.1   C315.4,110.4,319.4,106.3,324.4,106.3 M324.4,104.3c-6.1,0-11.1,5-11.1,11.1s5,11.1,11.1,11.1s11.1-5,11.1-11.1   S330.6,104.3,324.4,104.3L324.4,104.3z"
       id="path288" /></g><g
     id="g290"><path
       class="st10"
       d="M324.4,141.1c-4.1,0-7.5-3.4-7.5-7.5c0-4.1,3.4-7.5,7.5-7.5s7.5,3.4,7.5,7.5   C331.9,137.7,328.6,141.1,324.4,141.1z"
       id="path292" /><path
       class="st11"
       d="M324.4,127.1c3.6,0,6.5,2.9,6.5,6.5s-2.9,6.5-6.5,6.5c-3.6,0-6.5-2.9-6.5-6.5S320.9,127.1,324.4,127.1    M324.4,125.1c-4.7,0-8.5,3.8-8.5,8.5s3.8,8.5,8.5,8.5s8.5-3.8,8.5-8.5S329.1,125.1,324.4,125.1L324.4,125.1z"
       id="path294" /></g><g
     id="g296"><path
       class="st10"
       d="M425.3,120.8c-5.8,0-10.4-4.7-10.4-10.4c0-5.8,4.7-10.5,10.4-10.5c5.8,0,10.4,4.7,10.4,10.5   C435.8,116.1,431.1,120.8,425.3,120.8z"
       id="path298" /><path
       class="st11"
       d="M425.3,100.9c5.2,0,9.4,4.2,9.4,9.4c0,5.2-4.2,9.4-9.4,9.4c-5.2,0-9.4-4.2-9.4-9.4   C415.9,105.1,420.1,100.9,425.3,100.9 M425.3,98.9c-6.3,0-11.4,5.1-11.4,11.4c0,6.3,5.1,11.4,11.4,11.4c6.3,0,11.4-5.1,11.4-11.4   C436.8,104,431.6,98.9,425.3,98.9L425.3,98.9z"
       id="path300" /></g><g
     id="g302"><path
       class="st10"
       d="M421.9,139.2c-5,0-9.1-4.1-9.1-9.1c0-5,4.1-9.1,9.1-9.1c5,0,9.1,4.1,9.1,9.1   C431,135.1,426.9,139.2,421.9,139.2z"
       id="path304" /><path
       class="st11"
       d="M421.9,122c4.5,0,8.1,3.6,8.1,8.1c0,4.5-3.6,8.1-8.1,8.1c-4.5,0-8.1-3.6-8.1-8.1   C413.7,125.7,417.4,122,421.9,122 M421.9,120c-5.6,0-10.1,4.5-10.1,10.1c0,5.6,4.5,10.1,10.1,10.1c5.6,0,10.1-4.5,10.1-10.1   C432,124.5,427.4,120,421.9,120L421.9,120z"
       id="path306" /></g><g
     id="g308"><path
       class="st10"
       d="M414.4,153.7c-4.3,0-7.8-3.5-7.8-7.8s3.5-7.8,7.8-7.8s7.8,3.5,7.8,7.8S418.6,153.7,414.4,153.7z"
       id="path310" /><path
       class="st11"
       d="M414.4,139.1c3.7,0,6.8,3,6.8,6.8c0,3.7-3,6.8-6.8,6.8c-3.7,0-6.8-3-6.8-6.8   C407.6,142.2,410.6,139.1,414.4,139.1 M414.4,137.1c-4.8,0-8.8,3.9-8.8,8.8c0,4.8,3.9,8.8,8.8,8.8c4.8,0,8.8-3.9,8.8-8.8   C423.1,141.1,419.2,137.1,414.4,137.1L414.4,137.1z"
       id="path312" /></g><g
     id="g314"><path
       class="st10"
       d="M440.5,85.2c-4.3,0-7.8-3.5-7.8-7.8c0-4.3,3.5-7.8,7.8-7.8s7.8,3.5,7.8,7.8C448.3,81.8,444.8,85.2,440.5,85.2   z"
       id="path316" /><path
       class="st11"
       d="M440.5,70.7c3.7,0,6.8,3,6.8,6.8c0,3.7-3,6.8-6.8,6.8c-3.7,0-6.8-3-6.8-6.8C433.7,73.7,436.8,70.7,440.5,70.7    M440.5,68.7c-4.8,0-8.8,3.9-8.8,8.8c0,4.8,3.9,8.8,8.8,8.8c4.8,0,8.8-3.9,8.8-8.8C449.3,72.6,445.3,68.7,440.5,68.7L440.5,68.7z"
       id="path318" /></g><g
     id="g320"><path
       class="st10"
       d="M457.7,90c-5,0-9.1-4.1-9.1-9.1s4.1-9.1,9.1-9.1s9.1,4.1,9.1,9.1S462.7,90,457.7,90z"
       id="path322" /><path
       class="st11"
       d="M457.7,72.8c4.5,0,8.1,3.6,8.1,8.1c0,4.5-3.6,8.1-8.1,8.1c-4.5,0-8.1-3.6-8.1-8.1   C449.6,76.4,453.3,72.8,457.7,72.8 M457.7,70.8c-5.6,0-10.1,4.5-10.1,10.1c0,5.6,4.5,10.1,10.1,10.1s10.1-4.5,10.1-10.1   C467.8,75.3,463.3,70.8,457.7,70.8L457.7,70.8z"
       id="path324" /></g><g
     id="g326"><path
       class="st10"
       d="M478.3,97.2c-5.8,0-10.4-4.7-10.4-10.4s4.7-10.4,10.4-10.4c5.8,0,10.5,4.7,10.5,10.4S484.1,97.2,478.3,97.2z"
       id="path328" /><path
       class="st11"
       d="M478.3,77.3c5.2,0,9.4,4.2,9.4,9.4c0,5.2-4.2,9.4-9.4,9.4c-5.2,0-9.4-4.2-9.4-9.4   C468.9,81.6,473.1,77.3,478.3,77.3 M478.3,75.3c-6.3,0-11.4,5.1-11.4,11.4s5.1,11.4,11.4,11.4c6.3,0,11.4-5.1,11.4-11.4   S484.6,75.3,478.3,75.3L478.3,75.3z"
       id="path330" /></g><g
     id="g332"><path
       class="st10"
       d="M495.5,112.7c-5.8,0-10.4-4.7-10.4-10.4c0-5.8,4.7-10.4,10.4-10.4c5.8,0,10.4,4.7,10.4,10.4   C505.9,108,501.2,112.7,495.5,112.7z"
       id="path334" /><path
       class="st11"
       d="M495.5,92.8c5.2,0,9.4,4.2,9.4,9.4c0,5.2-4.2,9.4-9.4,9.4c-5.2,0-9.4-4.2-9.4-9.4   C486,97.1,490.3,92.8,495.5,92.8 M495.5,90.8c-6.3,0-11.4,5.1-11.4,11.4c0,6.3,5.1,11.4,11.4,11.4c6.3,0,11.4-5.1,11.4-11.4   C506.9,96,501.8,90.8,495.5,90.8L495.5,90.8z"
       id="path336" /></g><g
     id="g338"><path
       class="st10"
       d="M504,134.1c-5.8,0-10.4-4.7-10.4-10.4c0-5.8,4.7-10.4,10.4-10.4c5.8,0,10.4,4.7,10.4,10.4   C514.5,129.5,509.8,134.1,504,134.1z"
       id="path340" /><path
       class="st11"
       d="M504,114.3c5.2,0,9.4,4.2,9.4,9.4c0,5.2-4.2,9.4-9.4,9.4c-5.2,0-9.4-4.2-9.4-9.4   C494.6,118.5,498.8,114.3,504,114.3 M504,112.3c-6.3,0-11.4,5.1-11.4,11.4c0,6.3,5.1,11.4,11.4,11.4c6.3,0,11.4-5.1,11.4-11.4   C515.5,117.4,510.3,112.3,504,112.3L504,112.3z"
       id="path342" /></g><g
     id="g344"><path
       class="st10"
       d="M505.4,154.5c-5,0-9.1-4.1-9.1-9.1s4.1-9.1,9.1-9.1c5,0,9.1,4.1,9.1,9.1S510.4,154.5,505.4,154.5z"
       id="path346" /><path
       class="st11"
       d="M505.4,137.3c4.5,0,8.1,3.6,8.1,8.1c0,4.5-3.6,8.1-8.1,8.1s-8.1-3.6-8.1-8.1   C497.3,140.9,500.9,137.3,505.4,137.3 M505.4,135.3c-5.6,0-10.1,4.5-10.1,10.1c0,5.6,4.5,10.1,10.1,10.1s10.1-4.5,10.1-10.1   C515.5,139.8,510.9,135.3,505.4,135.3L505.4,135.3z"
       id="path348" /></g><g
     id="g350"><path
       class="st10"
       d="M501.9,171.6c-4.3,0-7.8-3.5-7.8-7.8s3.5-7.8,7.8-7.8c4.3,0,7.8,3.5,7.8,7.8S506.2,171.6,501.9,171.6z"
       id="path352" /><path
       class="st11"
       d="M501.9,157.1c3.7,0,6.8,3,6.8,6.8c0,3.7-3,6.8-6.8,6.8c-3.7,0-6.8-3-6.8-6.8   C495.1,160.1,498.1,157.1,501.9,157.1 M501.9,155.1c-4.8,0-8.8,3.9-8.8,8.8c0,4.8,3.9,8.8,8.8,8.8c4.8,0,8.8-3.9,8.8-8.8   C510.7,159,506.7,155.1,501.9,155.1L501.9,155.1z"
       id="path354" /></g><path
     class="st12"
     d="M325.2,54.4"
     id="path356" /><path
     class="st12"
     d="M325.2,54.4"
     id="path358" /></svg>