<?xml version="1.0" encoding="UTF-8" standalone="no"?>
<svg
   xmlns:dc="http://purl.org/dc/elements/1.1/"
   xmlns:cc="http://creativecommons.org/ns#"
   xmlns:rdf="http://www.w3.org/1999/02/22-rdf-syntax-ns#"
   xmlns:svg="http://www.w3.org/2000/svg"
   xmlns="http://www.w3.org/2000/svg"
   xmlns:sodipodi="http://sodipodi.sourceforge.net/DTD/sodipodi-0.dtd"
   xmlns:inkscape="http://www.inkscape.org/namespaces/inkscape"
   height="231.37752"
   width="731.78607"
   version="1.1"
   viewBox="0 0 193.6184 61.217519"
   id="svg2"
   inkscape:version="0.91 r13725"
   sodipodi:docname="TCM +1.svg">
  <metadata
     id="metadata16">
    <rdf:RDF>
      <cc:Work
         rdf:about="">
        <dc:format>image/svg+xml</dc:format>
        <dc:type
           rdf:resource="http://purl.org/dc/dcmitype/StillImage" />
        <dc:title></dc:title>
      </cc:Work>
    </rdf:RDF>
  </metadata>
  <defs
     id="defs14" />
  <sodipodi:namedview
     pagecolor="#ffffff"
     bordercolor="#666666"
     borderopacity="1"
     objecttolerance="10"
     gridtolerance="10"
     guidetolerance="10"
     inkscape:pageopacity="0"
     inkscape:pageshadow="2"
     inkscape:window-width="1920"
     inkscape:window-height="1017"
     id="namedview12"
     showgrid="false"
     fit-margin-top="0"
     fit-margin-left="0"
     fit-margin-right="0"
     fit-margin-bottom="0"
     inkscape:zoom="0.96"
     inkscape:cx="296.7173"
     inkscape:cy="220.64374"
     inkscape:window-x="-8"
     inkscape:window-y="-8"
     inkscape:window-maximized="1"
     inkscape:current-layer="svg2" />
  <g
     transform="matrix(1.2196434,0,0,1.2196434,641.70318,171.8718)"
     id="g4"
     style="fill:#ffffff;fill-opacity:1">
    <path
       d="m -525.17,-140.92 c -0.54,0 -0.97,0.35 -0.97,0.77 l 0,36.7 c 0,0.43 0.43,0.77 0.97,0.77 l 156.8,0 c 0.53,0 0.98,-0.34 0.98,-0.77 l 0,-36.7 c 0,-0.42 -0.45,-0.77 -0.98,-0.77 z m 122.4,3.38 31.76,0 c 0.11,0 0.2,0.28 0.2,0.63 l 0,30.07 c 0,0.35 -0.09,0.63 -0.2,0.63 l -31.76,0 c -0.11,0 -0.2,-0.28 -0.2,-0.63 l 0,-30.07 c 0,-0.35 0.09,-0.63 0.2,-0.63 z m -55.65,7.61 1.57,0.12 1.14,6.89 c 0,0 -0.09,0.05 -1.57,0.52 -0.3,0.11 -0.44,-0.01 -0.46,-0.14 -1.05,-2.59 -4.38,-4.27 -8.01,-4.36 -1.6,0.19 -3.6,0 -4.34,1.7 -0.37,0.8 -0.37,6.46 -0.14,7.53 0.13,0.69 0.45,1.47 1.2,1.72 4.07,0.97 8.52,-0.05 12.06,-2.1 0.26,-0.1 0.45,0.02 0.53,0.27 l 0.78,2.92 c -7.04,2.41 -17,3.45 -23.45,-0.93 -1.95,-1.38 -3.26,-2.98 -3.26,-5.5 0,-2.45 1.57,-4.31 3.5,-5.66 5.55,-3.55 12.69,-3.09 19.23,-1.94 0.92,0.16 1.22,-1.04 1.22,-1.04 z m -55.05,0.91 25.57,0 c 0,0 0.97,4.12 1.51,6.04 l -1.48,0.6 c -0.42,0.18 -0.47,-0.1 -0.7,-0.36 -1.25,-2.56 -3.99,-4.45 -6.68,-3.55 l 0.01,9.66 c -0.02,0.33 0.09,0.57 0.51,0.74 0.47,0.19 1.08,0.43 1.56,0.57 0.55,0.14 0.63,0.34 0.6,0.56 l -0.01,1.62 -16.21,0 0,-1.62 c -0.03,-0.22 0.05,-0.42 0.59,-0.56 0.48,-0.14 1.09,-0.38 1.56,-0.57 0.43,-0.17 0.53,-0.41 0.52,-0.74 l 0,-9.66 c -2.68,-0.9 -5.42,0.99 -6.67,3.55 -0.24,0.26 -0.28,0.54 -0.71,0.36 l -1.48,-0.6 c 0.55,-1.92 1.51,-6.04 1.51,-6.04 z m 64.18,0 13.3,0 4.27,4.62 c 0.04,0.05 0.1,0.07 0.16,0.07 0.06,0 0.12,-0.03 0.16,-0.08 l 3.94,-4.61 13.34,0 0,1.63 c 0.04,0.22 -0.05,0.42 -0.6,0.56 -0.47,0.13 -1.08,0.38 -1.56,0.57 -0.41,0.17 -0.52,0.41 -0.51,0.74 l 0,8.89 c -0.01,0.33 0.1,0.57 0.51,0.74 0.48,0.19 1.09,0.43 1.56,0.57 0.55,0.14 0.64,0.34 0.6,0.56 l 0,1.62 -15.88,0 0,-1.62 c -0.03,-0.22 0.05,-0.42 0.6,-0.56 0.48,-0.14 1.08,-0.38 1.56,-0.57 0.41,-0.17 0.52,-0.41 0.51,-0.74 l -0.02,-7.3 c 0,-0.16 -0.09,-0.29 -0.24,-0.29 -0.09,0 -0.18,0.04 -0.23,0.11 l -7.74,9.13 -7.67,-8.92 c -0.05,-0.04 -0.1,-0.07 -0.16,-0.07 -0.15,0 -0.27,0.13 -0.27,0.29 l 0.01,7.05 c -0.01,0.33 0.09,0.57 0.51,0.74 0.48,0.19 1.09,0.43 1.56,0.57 0.55,0.14 0.63,0.34 0.6,0.56 l 0,1.62 -8.31,0 0,-1.62 c -0.03,-0.22 0.05,-0.42 0.59,-0.56 0.48,-0.14 1.1,-0.38 1.57,-0.57 0.42,-0.17 0.52,-0.41 0.51,-0.74 l 0,-8.89 c 0.01,-0.33 -0.09,-0.57 -0.51,-0.74 -0.47,-0.19 -1.09,-0.44 -1.57,-0.57 -0.54,-0.14 -0.62,-0.34 -0.59,-0.56 z m 10.59,2.68 -0.01,0.01 -1.34,0 c -0.17,0 -0.32,0.15 -0.32,0.33 0,0.09 0.04,0.17 0.1,0.23 l 4.79,5.11 c 0.16,0.16 0.41,0.16 0.57,-0.01 l 0.56,-0.65 c 0.15,-0.17 0.14,-0.45 -0.01,-0.62 l -4.04,-4.27 c -0.08,-0.09 -0.19,-0.13 -0.3,-0.13 z m 17.36,0.36 c -0.04,0 -0.09,0.01 -0.13,0.02 l -1.13,0.46 c -0.18,0.07 -0.33,0.29 -0.33,0.49 l 0,7.86 c 0,0.2 0.15,0.3 0.33,0.23 l 1.13,-0.45 c 0.18,-0.08 0.33,-0.3 0.33,-0.5 l 0,-7.85 c 0,-0.16 -0.08,-0.25 -0.2,-0.26 z m -52.53,0.14 c -0.03,0 -0.05,0 -0.07,0.01 -0.58,0.05 -3.2,1.61 -3.2,4.29 0,2.76 2.61,4.49 3.2,4.54 0.35,0.08 0.53,-0.35 0.31,-0.58 -1.26,-1.23 -1.32,-2.73 -1.32,-3.84 -0.01,-1.31 0.06,-2.61 1.32,-3.83 0.21,-0.22 0.06,-0.61 -0.24,-0.59 z m -26.05,0.26 c -0.04,0 -0.08,0.01 -0.13,0.03 l -1.13,0.44 c -0.19,0.08 -0.33,0.3 -0.33,0.5 l 0,7.86 c 0,0.2 0.14,0.3 0.33,0.23 l 1.13,-0.46 c 0.18,-0.07 0.33,-0.29 0.33,-0.49 l 0,-7.86 c 0,-0.15 -0.08,-0.24 -0.2,-0.25 z"
       id="path6"
       inkscape:connector-curvature="0"
       style="fill:#ffffff;fill-opacity:1" />
    <path
       d="m -385.62,-119.83 0,-3.78 -4.96,0 0,-4.96 -3.78,0 0,4.96 -4.99,0 0,3.78 4.99,0 0,4.96 3.78,0 0,-4.96 z"
       id="path8"
       inkscape:connector-curvature="0"
       style="fill:#ffffff;fill-opacity:1" />
    <path
       d="m -378.62,-135.22 -4.04,3.05 0,4.27 4.04,-3.01 0,22.03 4.02,0 0,-26.34 z"
       id="path10"
       inkscape:connector-curvature="0"
       style="fill:#ffffff;fill-opacity:1" />
  </g>
  <path
     inkscape:connector-curvature="0"
     id="path20"
     d="m 3.1097724,54.888421 0,6.269871 -1.103978,0 0,-6.269871 -1.994958,0 0,-0.98998 5.095894,0 0,0.98998 z"
     style="fill:#ffffff;fill-opacity:1" />
  <path
     inkscape:connector-curvature="0"
     id="path22"
     d="m 10.212625,61.21829 c -1.4789694,0 -2.6009461,-1.009979 -2.6009461,-2.509948 l 0,-4.809901 1.1019771,0 0,4.759902 c 0,0.96998 0.5899878,1.569968 1.498969,1.569968 0.907982,0 1.506969,-0.599988 1.506969,-1.569968 l 0,-4.759902 1.102977,0 0,4.809901 c 0,1.499969 -1.132976,2.509948 -2.609946,2.509948"
     style="fill:#ffffff;fill-opacity:1" />
  <path
     inkscape:connector-curvature="0"
     id="path24"
     d="m 21.678388,61.158292 -1.670965,-3.209934 c 0.814983,-0.229995 1.44597,-0.889982 1.44597,-1.92996 0,-1.229975 -0.874982,-2.119957 -2.251954,-2.119957 l -2.812942,0 0,7.259851 1.100978,0 0,-3.059937 1.375971,0 1.530969,3.059937 z m -1.323973,-5.129895 c 0,0.709986 -0.499989,1.139977 -1.231974,1.139977 l -1.632966,0 0,-2.279953 1.632966,0 c 0.731985,0 1.231974,0.419991 1.231974,1.139976"
     style="fill:#ffffff;fill-opacity:1" />
  <path
     inkscape:connector-curvature="0"
     id="path26"
     d="m 29.305229,61.158292 -3.355929,-5.109895 0,5.109895 -1.099977,0 0,-7.259851 1.009979,0 3.352929,5.099895 0,-5.099895 1.100979,0 0,7.259851 z"
     style="fill:#ffffff;fill-opacity:1" />
  <path
     inkscape:connector-curvature="0"
     id="path28"
     d="m 33.992132,61.158292 0,-7.259851 4.638906,0 0,0.98998 -3.538927,0 0,2.119956 3.018938,0 0,0.97998 -3.018938,0 0,2.179955 3.538927,0 0,0.98998 z"
     style="fill:#ffffff;fill-opacity:1" />
  <path
     inkscape:connector-curvature="0"
     id="path30"
     d="m 47.209861,61.158292 -1.669965,-3.209934 c 0.81998,-0.229995 1.449969,-0.889982 1.449969,-1.92996 0,-1.229975 -0.879983,-2.119957 -2.249953,-2.119957 l -2.819942,0 0,7.259851 1.099976,0 0,-3.059937 1.379971,0 1.529969,3.059937 z m -1.319975,-5.129895 c 0,0.709986 -0.499988,1.139977 -1.239972,1.139977 l -1.629968,0 0,-2.279953 1.629968,0 c 0.739984,0 1.239972,0.419991 1.239972,1.139976"
     style="fill:#ffffff;fill-opacity:1" />
  <path
     inkscape:connector-curvature="0"
     id="path32"
     d="m 56.609665,61.21829 c -0.749983,0 -1.40997,-0.269994 -1.909961,-0.769984 -0.709985,-0.719985 -0.699984,-1.519968 -0.699984,-2.919939 0,-1.399972 -0.01,-2.199955 0.699984,-2.91994 0.499991,-0.48999 1.159978,-0.769984 1.909961,-0.769984 1.329973,0 2.339951,0.779983 2.589948,2.229954 l -1.119979,0 c -0.169994,-0.729985 -0.669985,-1.239975 -1.469969,-1.239975 -0.42999,0 -0.819983,0.159997 -1.069978,0.429991 -0.359992,0.399992 -0.439991,0.809984 -0.439991,2.269954 0,1.459969 0.08,1.879961 0.439991,2.269953 0.249995,0.269994 0.639988,0.429991 1.069978,0.429991 0.799984,0 1.299975,-0.50999 1.479971,-1.239975 l 1.109977,0 c -0.249997,1.449971 -1.269974,2.229954 -2.589948,2.229954"
     style="fill:#ffffff;fill-opacity:1" />
  <path
     inkscape:connector-curvature="0"
     id="path34"
     d="m 62.029554,61.158292 0,-7.259851 1.099976,0 0,6.269871 3.499929,0 0,0.98998 z"
     style="fill:#ffffff;fill-opacity:1" />
  <path
     inkscape:connector-curvature="0"
     id="path36"
     d="m 74.589293,61.158292 -2.659944,-7.259851 -0.889981,0 -2.659947,7.259851 1.169977,0 0.499989,-1.45997 2.859942,0 0.499988,1.45997 z m -1.979959,-2.399951 -2.229954,0 1.129978,-3.219934 z"
     style="fill:#ffffff;fill-opacity:1" />
  <path
     inkscape:connector-curvature="0"
     id="path38"
     d="m 79.329194,61.21829 c -1.099976,0 -1.879959,-0.249994 -2.569945,-0.95998 l 0.729985,-0.719985 c 0.52999,0.529989 1.109978,0.689986 1.85996,0.689986 0.939983,0 1.499971,-0.399992 1.499971,-1.109977 0,-0.319994 -0.09,-0.579988 -0.289994,-0.759985 -0.179996,-0.169996 -0.369993,-0.239995 -0.789985,-0.299993 l -0.859981,-0.119998 c -0.589989,-0.08 -1.059979,-0.289994 -1.379971,-0.579988 -0.349993,-0.339993 -0.529989,-0.799983 -0.529989,-1.389971 0,-1.269974 0.91998,-2.129956 2.429949,-2.129956 0.949981,0 1.629965,0.239995 2.249953,0.819983 l -0.699984,0.699985 c -0.449993,-0.429991 -0.969981,-0.559988 -1.579968,-0.559988 -0.859983,0 -1.329973,0.47999 -1.329973,1.129976 0,0.259995 0.08,0.49999 0.279993,0.669987 0.179999,0.159996 0.479991,0.289994 0.809985,0.339992 l 0.829982,0.119998 c 0.669986,0.109998 1.049977,0.259995 1.359971,0.539989 0.389993,0.349993 0.579988,0.869982 0.579988,1.489969 0,1.339973 -1.079976,2.129956 -2.599947,2.129956"
     style="fill:#ffffff;fill-opacity:1" />
  <path
     inkscape:connector-curvature="0"
     id="path40"
     d="m 87.019036,61.21829 c -1.089977,0 -1.869961,-0.249994 -2.569945,-0.95998 l 0.739984,-0.719985 c 0.529989,0.529989 1.109977,0.689986 1.849961,0.689986 0.949981,0 1.499968,-0.399992 1.499968,-1.109977 0,-0.319994 -0.09,-0.579988 -0.279993,-0.759985 -0.189997,-0.169996 -0.369993,-0.239995 -0.799983,-0.299993 l -0.859983,-0.119998 c -0.589987,-0.08 -1.059977,-0.289994 -1.36997,-0.579988 -0.359993,-0.339993 -0.52999,-0.799983 -0.52999,-1.389971 0,-1.269974 0.91998,-2.129956 2.429949,-2.129956 0.949981,0 1.629966,0.239995 2.249953,0.819983 l -0.709985,0.699985 c -0.439989,-0.429991 -0.969979,-0.559988 -1.579968,-0.559988 -0.849981,0 -1.319971,0.47999 -1.319971,1.129976 0,0.259995 0.08,0.49999 0.269994,0.669987 0.189997,0.159996 0.479991,0.289994 0.819983,0.339992 l 0.819984,0.119998 c 0.679984,0.109998 1.059976,0.259995 1.359971,0.539989 0.399992,0.349993 0.589986,0.869982 0.589986,1.489969 0,1.339973 -1.089977,2.129956 -2.609945,2.129956"
     style="fill:#ffffff;fill-opacity:1" />
  <path
     inkscape:connector-curvature="0"
     id="path42"
     d="m 92.898914,53.898441 1.099979,0 0,7.259851 -1.099979,0 z"
     style="fill:#ffffff;fill-opacity:1" />
  <path
     inkscape:connector-curvature="0"
     id="path44"
     d="m 100.01877,61.21829 c -0.749986,0 -1.409973,-0.269994 -1.909962,-0.769984 -0.709985,-0.719985 -0.699987,-1.519968 -0.699987,-2.919939 0,-1.399972 -0.01,-2.199955 0.699987,-2.91994 0.499989,-0.48999 1.159976,-0.769984 1.909962,-0.769984 1.32997,0 2.32995,0.779983 2.58995,2.229954 l -1.11998,0 c -0.18,-0.729985 -0.66999,-1.239975 -1.46997,-1.239975 -0.429994,0 -0.819984,0.159997 -1.069981,0.429991 -0.359992,0.399992 -0.439989,0.809984 -0.439989,2.269954 0,1.459969 0.08,1.879961 0.439989,2.269953 0.249997,0.269994 0.639987,0.429991 1.069981,0.429991 0.79998,0 1.29998,-0.50999 1.47997,-1.239975 l 1.10998,0 c -0.25,1.449971 -1.27998,2.229954 -2.58995,2.229954"
     style="fill:#ffffff;fill-opacity:1" />
  <path
     inkscape:connector-curvature="0"
     id="path46"
     d="m 115.03846,61.158292 0,-4.8499 -1.66997,3.539926 -0.81998,0 -1.70996,-3.539926 0,4.8499 -1.09998,0 0,-7.259851 1.09998,0 2.11995,4.519907 2.07996,-4.519907 1.09998,0 0,7.259851 z"
     style="fill:#ffffff;fill-opacity:1" />
  <path
     inkscape:connector-curvature="0"
     id="path48"
     d="m 124.76825,57.528367 c 0,-1.399972 0.02,-2.199955 -0.68999,-2.91994 -0.50999,-0.48999 -1.13997,-0.769984 -1.91996,-0.769984 -0.77998,0 -1.40997,0.279994 -1.90996,0.769984 -0.70998,0.719985 -0.69998,1.519968 -0.69998,2.91994 0,1.399971 -0.01,2.199954 0.69998,2.919939 0.49999,0.49999 1.12998,0.769984 1.90996,0.769984 0.77999,0 1.40997,-0.269994 1.91996,-0.769984 0.70999,-0.719985 0.68999,-1.519968 0.68999,-2.919939 m -1.09998,0 c 0,1.459969 -0.08,1.859961 -0.42999,2.249953 -0.25999,0.279994 -0.64998,0.449991 -1.07998,0.449991 -0.42999,0 -0.82998,-0.169997 -1.07997,-0.449991 -0.36,-0.389992 -0.43,-0.789984 -0.43,-2.249953 0,-1.45997 0.07,-1.869962 0.43,-2.249954 0.24999,-0.279994 0.64998,-0.449991 1.07997,-0.449991 0.43,0 0.81999,0.169997 1.07998,0.449991 0.34999,0.379992 0.42999,0.789984 0.42999,2.249954"
     style="fill:#ffffff;fill-opacity:1" />
  <path
     inkscape:connector-curvature="0"
     id="path50"
     d="m 130.42813,61.158292 -0.85998,0 -2.38995,-7.259851 1.13998,0 1.67996,5.279891 1.66997,-5.279891 1.15997,0 z"
     style="fill:#ffffff;fill-opacity:1" />
  <path
     inkscape:connector-curvature="0"
     id="path52"
     d="m 135.60803,53.898441 1.09997,0 0,7.259851 -1.09997,0 z"
     style="fill:#ffffff;fill-opacity:1" />
  <path
     inkscape:connector-curvature="0"
     id="path54"
     d="m 140.38793,61.158292 0,-7.259851 4.6399,0 0,0.98998 -3.53993,0 0,2.119956 3.01994,0 0,0.97998 -3.01994,0 0,2.179955 3.53993,0 0,0.98998 z"
     style="fill:#ffffff;fill-opacity:1" />
  <path
     inkscape:connector-curvature="0"
     id="path56"
     d="m 150.24772,61.21829 c -1.08998,0 -1.87996,-0.249994 -2.56995,-0.95998 l 0.72999,-0.719985 c 0.53999,0.529989 1.11998,0.689986 1.85996,0.689986 0.94998,0 1.49997,-0.399992 1.49997,-1.109977 0,-0.319994 -0.09,-0.579988 -0.27999,-0.759985 -0.19,-0.169996 -0.37,-0.239995 -0.79999,-0.299993 l -0.85998,-0.119998 c -0.58999,-0.08 -1.05998,-0.289994 -1.36997,-0.579988 -0.35999,-0.339993 -0.52999,-0.799983 -0.52999,-1.389971 0,-1.269974 0.90998,-2.129956 2.42995,-2.129956 0.94998,0 1.61997,0.239995 2.24995,0.819983 l -0.70998,0.699985 c -0.44999,-0.429991 -0.96998,-0.559988 -1.57997,-0.559988 -0.84998,0 -1.31997,0.47999 -1.31997,1.129976 0,0.259995 0.08,0.49999 0.26999,0.669987 0.19,0.159996 0.47999,0.289994 0.81999,0.339992 l 0.82998,0.119998 c 0.66998,0.109998 1.03998,0.259995 1.34997,0.539989 0.38999,0.349993 0.58999,0.869982 0.58999,1.489969 0,1.339973 -1.08998,2.129956 -2.60995,2.129956"
     style="fill:#ffffff;fill-opacity:1" />
</svg>
