<svg height="178.21" viewBox="0 0 158.75 47.151829" width="600" xmlns="http://www.w3.org/2000/svg"><g stroke-width=".77021" transform="translate(21.923 -192.54)"><path d="m-19.527 234.81v4.83h-.851v-4.83h-1.536v-.76h3.925v.76z"/><path d="m-14.057 239.69c-1.139 0-2.003-.78-2.003-1.93v-3.71h.849v3.67c0 .74.454 1.21 1.154 1.21s1.161-.47 1.161-1.21v-3.67h.85v3.71c0 1.15-.873 1.93-2.011 1.93"/><path d="m-5.2253 239.64-1.287-2.47c.6277-.18 1.1137-.69 1.1137-1.49 0-.94-.674-1.63-1.7345-1.63h-2.1666v5.59h.848v-2.35h1.0598l1.1792 2.35zm-1.0198-3.95c0 .55-.3851.88-.9489.88h-1.2577v-1.76h1.2577c.5638 0 .9489.33.9489.88"/><path d="m .64905 239.64-2.5848-3.93v3.93h-.8472v-5.59h.7779l2.5825 3.93v-3.93h.848v5.59z"/><path d="m4.259 239.64v-5.59h3.573v.76h-2.7258v1.64h2.3253v.75h-2.3253v1.68h2.7258v.76z"/><path d="m14.44 239.64-1.287-2.47c.632-.18 1.117-.69 1.117-1.49 0-.94-.678-1.63-1.733-1.63h-2.172v5.59h.847v-2.35h1.063l1.179 2.35zm-1.017-3.95c0 .55-.385.88-.955.88h-1.256v-1.76h1.256c.57 0 .955.33.955.88"/><path d="m21.68 239.69c-.578 0-1.086-.21-1.472-.59-.546-.56-.539-1.17-.539-2.25s-.007-1.7.539-2.25c.386-.38.894-.6 1.472-.6 1.024 0 1.802.61 1.994 1.72h-.862c-.131-.56-.516-.95-1.132-.95-.332 0-.632.12-.825.33-.277.31-.338.62-.338 1.75 0 1.12.061 1.44.338 1.75.193.2.493.33.825.33.616 0 1.001-.4 1.139-.96h.855c-.192 1.12-.978 1.72-1.994 1.72"/><path d="m25.854 239.64v-5.59h.847v4.83h2.696v.76z"/><path d="m35.528 239.64-2.049-5.59h-.685l-2.049 5.59h.901l.385-1.12h2.203l.385 1.12zm-1.525-1.85h-1.718l.871-2.48z"/><path d="m39.179 239.69c-.848 0-1.448-.19-1.98-.74l.562-.55c.409.4.855.53 1.433.53.724 0 1.155-.31 1.155-.86 0-.24-.069-.45-.223-.58-.139-.13-.285-.19-.608-.23l-.663-.1c-.454-.06-.816-.22-1.063-.44-.269-.27-.408-.62-.408-1.07 0-.98.709-1.65 1.872-1.65.731 0 1.255.19 1.733.64l-.539.54c-.347-.34-.748-.44-1.217-.44-.663 0-1.025.37-1.025.87 0 .2.062.39.216.52.139.12.37.22.624.26l.639.09c.516.09.809.21 1.047.42.301.27.447.67.447 1.15 0 1.03-.832 1.64-2.002 1.64"/><path d="m45.102 239.69c-.84 0-1.441-.19-1.98-.74l.57-.55c.408.4.855.53 1.425.53.732 0 1.155-.31 1.155-.86 0-.24-.069-.45-.215-.58-.147-.13-.285-.19-.617-.23l-.662-.1c-.454-.06-.816-.22-1.055-.44-.277-.27-.408-.62-.408-1.07 0-.98.708-1.65 1.871-1.65.732 0 1.256.19 1.733.64l-.547.54c-.338-.34-.747-.44-1.217-.44-.654 0-1.016.37-1.016.87 0 .2.061.39.208.52.146.12.369.22.631.26l.632.09c.524.09.816.21 1.047.42.308.27.455.67.455 1.15 0 1.03-.84 1.64-2.01 1.64"/><path d="m49.63 234.05h.848v5.59h-.848z"/><path d="m55.114 239.69c-.577 0-1.086-.21-1.471-.59-.547-.56-.539-1.17-.539-2.25s-.008-1.7.539-2.25c.385-.38.894-.6 1.471-.6 1.025 0 1.795.61 1.995 1.72h-.863c-.138-.56-.516-.95-1.132-.95-.331 0-.631.12-.824.33-.277.31-.339.62-.339 1.75 0 1.12.062 1.44.339 1.75.193.2.493.33.824.33.616 0 1.002-.4 1.14-.96h.855c-.192 1.12-.986 1.72-1.995 1.72"/><path d="m66.683 239.64v-3.73l-1.286 2.72h-.632l-1.317-2.72v3.73h-.847v-5.59h.847l1.633 3.48 1.602-3.48h.847v5.59z"/><path d="m74.177 236.85c0-1.08.015-1.7-.532-2.25-.392-.38-.878-.6-1.478-.6-.601 0-1.086.22-1.471.6-.547.55-.54 1.17-.54 2.25s-.007 1.69.54 2.25c.385.38.87.59 1.471.59.6 0 1.086-.21 1.478-.59.547-.56.532-1.17.532-2.25m-.847 0c0 1.12-.062 1.43-.332 1.73-.2.22-.5.35-.831.35-.332 0-.64-.13-.832-.35-.277-.3-.331-.61-.331-1.73 0-1.13.054-1.44.331-1.74.192-.21.5-.34.832-.34.331 0 .631.13.831.34.27.3.332.61.332 1.74"/><path d="m78.536 239.64h-.662l-1.841-5.59h.878l1.294 4.07 1.286-4.07h.894z"/><path d="m82.526 234.05h.847v5.59h-.847z"/><path d="m86.208 239.64v-5.59h3.573v.76h-2.726v1.64h2.326v.75h-2.326v1.68h2.726v.76z"/><path d="m93.802 239.69c-.84 0-1.448-.19-1.98-.74l.563-.55c.416.4.862.53 1.432.53.732 0 1.156-.31 1.156-.86 0-.24-.07-.45-.216-.58-.147-.13-.285-.19-.616-.23l-.663-.1c-.454-.06-.816-.22-1.055-.44-.277-.27-.408-.62-.408-1.07 0-.98.701-1.65 1.872-1.65.731 0 1.247.19 1.732.64l-.546.54c-.347-.34-.747-.44-1.217-.44-.655 0-1.017.37-1.017.87 0 .2.062.39.208.52.146.12.37.22.632.26l.639.09c.516.09.801.21 1.04.42.3.27.454.67.454 1.15 0 1.03-.839 1.64-2.01 1.64"/></g><path d="m .725 0c-.401 0-.725.32-.725.72v34.48c0 .4.324.72.724.72h116.28c.398 0 .729-.32.729-.72v-34.48c0-.4-.33-.72-.73-.72zm62.895 10.32 1.479.11 1.071 6.47s-.085.05-1.479.49c-.277.11-.408-.01-.431-.13-.986-2.44-4.121-4.02-7.526-4.09-1.509.17-3.381-.01-4.082 1.59-.346.76-.346 6.07-.123 7.08.124.65.424 1.37 1.125 1.61 3.828.91 8.002-.05 11.322-1.97.254-.1.423.01.5.25l.74 2.74c-6.616 2.26-15.967 3.25-22.028-.87-1.833-1.3-3.065-2.8-3.065-5.17 0-2.3 1.471-4.05 3.288-5.31 5.214-3.33 11.923-2.91 18.061-1.82.871.15 1.148-.98 1.148-.98zm-51.712.85h24.016s.909 3.87 1.425 5.67l-1.394.57c-.393.17-.44-.09-.663-.34-1.171-2.41-3.7448-4.17-6.2665-3.33l.0047 9.07c-.0147.31.0871.54.4822.69.4429.18 1.015.41 1.4648.54.5114.13.5916.32.5593.53l-.0036 1.52h-15.228v-1.52c-.0346-.21.0441-.4.5563-.53.4475-.13 1.0232-.36 1.4653-.54.3944-.15.4969-.38.4822-.69l.0031-9.07c-2.5232-.84-5.0925.92-6.2679 3.33-.2225.25-.2656.51-.6649.34l-1.389-.57c.513-1.8 1.418-5.67 1.418-5.67zm60.292 0h12.485l4.021 4.35c.031.04.092.05.154.05.054 0 .1-.02.138-.06l3.705-4.34h12.532v1.54c.038.2-.047.38-.563.52-.446.12-1.016.35-1.463.53-.393.16-.485.39-.477.69v8.36c-.008.31.084.54.477.69.447.18 1.017.41 1.463.54.516.13.601.32.563.53v1.52h-14.911v-1.52c-.039-.21.045-.4.554-.53.454-.13 1.024-.36 1.471-.54.385-.15.493-.38.478-.69l-.016-6.85c0-.16-.092-.28-.231-.28-.085 0-.17.04-.216.11l-7.27 8.57-7.202-8.38c-.046-.04-.092-.06-.154-.06-.139 0-.254.12-.254.27l.008 6.62c-.008.31.092.54.485.69.447.18 1.024.41 1.463.54.516.13.594.32.563.53v1.52h-7.803v-1.52c-.031-.21.047-.4.555-.53.454-.13 1.024-.36 1.471-.54.393-.15.493-.38.477-.69v-8.36c.016-.3-.084-.53-.477-.69-.447-.18-1.017-.41-1.471-.53-.508-.14-.586-.32-.555-.52zm9.952 2.52-.016.01h-1.263c-.154 0-.293.14-.293.31 0 .08.039.16.093.21l4.498 4.8c.146.16.385.15.531-.01l.531-.6c.139-.17.131-.43-.015-.58l-3.789-4.02c-.077-.09-.177-.13-.277-.12zm16.298.34c-.038-.01-.08 0-.124.02l-1.055.43c-.17.06-.309.27-.309.46v7.38c0 .19.139.28.309.22l1.055-.42c.177-.07.315-.28.315-.47v-7.38c0-.15-.077-.23-.191-.24zm-49.294.13c-.036-.01-.074-.01-.116 0-.539.06-3.004 1.52-3.004 4.04 0 2.59 2.45 4.21 3.004 4.26.332.07.501-.33.293-.54-1.186-1.16-1.24-2.57-1.248-3.61 0-1.23.062-2.45 1.248-3.6.182-.19.075-.52-.177-.55zm-24.522.24c-.0371 0-.0779.01-.121.03l-1.0649.42c-.1725.07-.3114.28-.3114.47v7.37c0 .19.1389.29.3114.22l1.0649-.42c.1725-.07.3104-.28.3104-.47v-7.38c0-.14-.0778-.23-.1894-.24z" stroke-width=".77021"/><path d="m121.682 0v35.35h4.151v-16.22h8.24v16.22h4.11v-35.35h-4.11v15.42h-8.24v-15.42z"/><path d="m142.303 0v35.35h8.45c5.57 0 8-3.36 8-7.86v-19.64c0-4.49-2.43-7.85-8-7.85zm4.27 3.79h3.91c2.79 0 4.04 1.53 4.04 4.28v19.25c0 2.7-1.25 4.23-4.04 4.23h-3.91z"/></svg>