<?xml version="1.0" encoding="UTF-8" standalone="no"?>
<svg
   xmlns:dc="http://purl.org/dc/elements/1.1/"
   xmlns:cc="http://creativecommons.org/ns#"
   xmlns:rdf="http://www.w3.org/1999/02/22-rdf-syntax-ns#"
   xmlns:svg="http://www.w3.org/2000/svg"
   xmlns="http://www.w3.org/2000/svg"
   xmlns:sodipodi="http://sodipodi.sourceforge.net/DTD/sodipodi-0.dtd"
   xmlns:inkscape="http://www.inkscape.org/namespaces/inkscape"
   height="178.21"
   width="600"
   version="1.1"
   viewBox="0 0 158.75 47.151829"
   id="svg2"
   inkscape:version="0.91 r13725"
   sodipodi:docname="TCM HD - Dark.svg">
  <metadata
     id="metadata60">
    <rdf:RDF>
      <cc:Work
         rdf:about="">
        <dc:format>image/svg+xml</dc:format>
        <dc:type
           rdf:resource="http://purl.org/dc/dcmitype/StillImage" />
      </cc:Work>
    </rdf:RDF>
  </metadata>
  <defs
     id="defs58" />
  <sodipodi:namedview
     pagecolor="#ffffff"
     bordercolor="#666666"
     borderopacity="1"
     objecttolerance="10"
     gridtolerance="10"
     guidetolerance="10"
     inkscape:pageopacity="0"
     inkscape:pageshadow="2"
     inkscape:window-width="1920"
     inkscape:window-height="1017"
     id="namedview56"
     showgrid="false"
     inkscape:zoom="1.357645"
     inkscape:cx="276.3102"
     inkscape:cy="63.233475"
     inkscape:window-x="-8"
     inkscape:window-y="-8"
     inkscape:window-maximized="1"
     inkscape:current-layer="svg2" />
  <g
     style="stroke-width:0.77021003"
     id="g6"
     transform="translate(21.923,-192.54)">
    <path
       inkscape:connector-curvature="0"
       id="path8"
       d="m -19.527,234.81 0,4.83 -0.851,0 0,-4.83 -1.536,0 0,-0.76 3.925,0 0,0.76 z" />
    <path
       inkscape:connector-curvature="0"
       id="path10"
       d="m -14.057,239.69 c -1.139,0 -2.003,-0.78 -2.003,-1.93 l 0,-3.71 0.849,0 0,3.67 c 0,0.74 0.454,1.21 1.154,1.21 0.7,0 1.161,-0.47 1.161,-1.21 l 0,-3.67 0.85,0 0,3.71 c 0,1.15 -0.873,1.93 -2.011,1.93" />
    <path
       inkscape:connector-curvature="0"
       id="path12"
       d="m -5.2253,239.64 -1.287,-2.47 c 0.6277,-0.18 1.1137,-0.69 1.1137,-1.49 0,-0.94 -0.674,-1.63 -1.7345,-1.63 l -2.1666,0 0,5.59 0.848,0 0,-2.35 1.0598,0 1.1792,2.35 z m -1.0198,-3.95 c 0,0.55 -0.3851,0.88 -0.9489,0.88 l -1.2577,0 0,-1.76 1.2577,0 c 0.5638,0 0.9489,0.33 0.9489,0.88" />
    <path
       inkscape:connector-curvature="0"
       id="path14"
       d="m 0.64905,239.64 -2.5848,-3.93 0,3.93 -0.8472,0 0,-5.59 0.7779,0 2.5825,3.93 0,-3.93 0.848,0 0,5.59 z" />
    <path
       inkscape:connector-curvature="0"
       id="path16"
       d="m 4.259,239.64 0,-5.59 3.573,0 0,0.76 -2.7258,0 0,1.64 2.3253,0 0,0.75 -2.3253,0 0,1.68 2.7258,0 0,0.76 z" />
    <path
       inkscape:connector-curvature="0"
       id="path18"
       d="m 14.44,239.64 -1.287,-2.47 c 0.632,-0.18 1.117,-0.69 1.117,-1.49 0,-0.94 -0.678,-1.63 -1.733,-1.63 l -2.172,0 0,5.59 0.847,0 0,-2.35 1.063,0 1.179,2.35 z m -1.017,-3.95 c 0,0.55 -0.385,0.88 -0.955,0.88 l -1.256,0 0,-1.76 1.256,0 c 0.57,0 0.955,0.33 0.955,0.88" />
    <path
       inkscape:connector-curvature="0"
       id="path20"
       d="m 21.68,239.69 c -0.578,0 -1.086,-0.21 -1.472,-0.59 -0.546,-0.56 -0.539,-1.17 -0.539,-2.25 0,-1.08 -0.007,-1.7 0.539,-2.25 0.386,-0.38 0.894,-0.6 1.472,-0.6 1.024,0 1.802,0.61 1.994,1.72 l -0.862,0 c -0.131,-0.56 -0.516,-0.95 -1.132,-0.95 -0.332,0 -0.632,0.12 -0.825,0.33 -0.277,0.31 -0.338,0.62 -0.338,1.75 0,1.12 0.061,1.44 0.338,1.75 0.193,0.2 0.493,0.33 0.825,0.33 0.616,0 1.001,-0.4 1.139,-0.96 l 0.855,0 c -0.192,1.12 -0.978,1.72 -1.994,1.72" />
    <path
       inkscape:connector-curvature="0"
       id="path22"
       d="m 25.854,239.64 0,-5.59 0.847,0 0,4.83 2.696,0 0,0.76 z" />
    <path
       inkscape:connector-curvature="0"
       id="path24"
       d="m 35.528,239.64 -2.049,-5.59 -0.685,0 -2.049,5.59 0.901,0 0.385,-1.12 2.203,0 0.385,1.12 z m -1.525,-1.85 -1.718,0 0.871,-2.48 z" />
    <path
       inkscape:connector-curvature="0"
       id="path26"
       d="m 39.179,239.69 c -0.848,0 -1.448,-0.19 -1.98,-0.74 l 0.562,-0.55 c 0.409,0.4 0.855,0.53 1.433,0.53 0.724,0 1.155,-0.31 1.155,-0.86 0,-0.24 -0.069,-0.45 -0.223,-0.58 -0.139,-0.13 -0.285,-0.19 -0.608,-0.23 l -0.663,-0.1 c -0.454,-0.06 -0.816,-0.22 -1.063,-0.44 -0.269,-0.27 -0.408,-0.62 -0.408,-1.07 0,-0.98 0.709,-1.65 1.872,-1.65 0.731,0 1.255,0.19 1.733,0.64 l -0.539,0.54 c -0.347,-0.34 -0.748,-0.44 -1.217,-0.44 -0.663,0 -1.025,0.37 -1.025,0.87 0,0.2 0.062,0.39 0.216,0.52 0.139,0.12 0.37,0.22 0.624,0.26 l 0.639,0.09 c 0.516,0.09 0.809,0.21 1.047,0.42 0.301,0.27 0.447,0.67 0.447,1.15 0,1.03 -0.832,1.64 -2.002,1.64" />
    <path
       inkscape:connector-curvature="0"
       id="path28"
       d="m 45.102,239.69 c -0.84,0 -1.441,-0.19 -1.98,-0.74 l 0.57,-0.55 c 0.408,0.4 0.855,0.53 1.425,0.53 0.732,0 1.155,-0.31 1.155,-0.86 0,-0.24 -0.069,-0.45 -0.215,-0.58 -0.147,-0.13 -0.285,-0.19 -0.617,-0.23 l -0.662,-0.1 c -0.454,-0.06 -0.816,-0.22 -1.055,-0.44 -0.277,-0.27 -0.408,-0.62 -0.408,-1.07 0,-0.98 0.708,-1.65 1.871,-1.65 0.732,0 1.256,0.19 1.733,0.64 l -0.547,0.54 c -0.338,-0.34 -0.747,-0.44 -1.217,-0.44 -0.654,0 -1.016,0.37 -1.016,0.87 0,0.2 0.061,0.39 0.208,0.52 0.146,0.12 0.369,0.22 0.631,0.26 l 0.632,0.09 c 0.524,0.09 0.816,0.21 1.047,0.42 0.308,0.27 0.455,0.67 0.455,1.15 0,1.03 -0.84,1.64 -2.01,1.64" />
    <path
       inkscape:connector-curvature="0"
       id="path30"
       d="m 49.63,234.05 0.848,0 0,5.59 -0.848,0 z" />
    <path
       inkscape:connector-curvature="0"
       id="path32"
       d="m 55.114,239.69 c -0.577,0 -1.086,-0.21 -1.471,-0.59 -0.547,-0.56 -0.539,-1.17 -0.539,-2.25 0,-1.08 -0.008,-1.7 0.539,-2.25 0.385,-0.38 0.894,-0.6 1.471,-0.6 1.025,0 1.795,0.61 1.995,1.72 l -0.863,0 c -0.138,-0.56 -0.516,-0.95 -1.132,-0.95 -0.331,0 -0.631,0.12 -0.824,0.33 -0.277,0.31 -0.339,0.62 -0.339,1.75 0,1.12 0.062,1.44 0.339,1.75 0.193,0.2 0.493,0.33 0.824,0.33 0.616,0 1.002,-0.4 1.14,-0.96 l 0.855,0 c -0.192,1.12 -0.986,1.72 -1.995,1.72" />
    <path
       inkscape:connector-curvature="0"
       id="path34"
       d="m 66.683,239.64 0,-3.73 -1.286,2.72 -0.632,0 -1.317,-2.72 0,3.73 -0.847,0 0,-5.59 0.847,0 1.633,3.48 1.602,-3.48 0.847,0 0,5.59 z" />
    <path
       inkscape:connector-curvature="0"
       id="path36"
       d="m 74.177,236.85 c 0,-1.08 0.015,-1.7 -0.532,-2.25 -0.392,-0.38 -0.878,-0.6 -1.478,-0.6 -0.601,0 -1.086,0.22 -1.471,0.6 -0.547,0.55 -0.54,1.17 -0.54,2.25 0,1.08 -0.007,1.69 0.54,2.25 0.385,0.38 0.87,0.59 1.471,0.59 0.6,0 1.086,-0.21 1.478,-0.59 0.547,-0.56 0.532,-1.17 0.532,-2.25 m -0.847,0 c 0,1.12 -0.062,1.43 -0.332,1.73 -0.2,0.22 -0.5,0.35 -0.831,0.35 -0.332,0 -0.64,-0.13 -0.832,-0.35 -0.277,-0.3 -0.331,-0.61 -0.331,-1.73 0,-1.13 0.054,-1.44 0.331,-1.74 0.192,-0.21 0.5,-0.34 0.832,-0.34 0.331,0 0.631,0.13 0.831,0.34 0.27,0.3 0.332,0.61 0.332,1.74" />
    <path
       inkscape:connector-curvature="0"
       id="path38"
       d="m 78.536,239.64 -0.662,0 -1.841,-5.59 0.878,0 1.294,4.07 1.286,-4.07 0.894,0 z" />
    <path
       inkscape:connector-curvature="0"
       id="path40"
       d="m 82.526,234.05 0.847,0 0,5.59 -0.847,0 z" />
    <path
       inkscape:connector-curvature="0"
       id="path42"
       d="m 86.208,239.64 0,-5.59 3.573,0 0,0.76 -2.726,0 0,1.64 2.326,0 0,0.75 -2.326,0 0,1.68 2.726,0 0,0.76 z" />
    <path
       inkscape:connector-curvature="0"
       id="path44"
       d="m 93.802,239.69 c -0.84,0 -1.448,-0.19 -1.98,-0.74 l 0.563,-0.55 c 0.416,0.4 0.862,0.53 1.432,0.53 0.732,0 1.156,-0.31 1.156,-0.86 0,-0.24 -0.07,-0.45 -0.216,-0.58 -0.147,-0.13 -0.285,-0.19 -0.616,-0.23 l -0.663,-0.1 c -0.454,-0.06 -0.816,-0.22 -1.055,-0.44 -0.277,-0.27 -0.408,-0.62 -0.408,-1.07 0,-0.98 0.701,-1.65 1.872,-1.65 0.731,0 1.247,0.19 1.732,0.64 l -0.546,0.54 c -0.347,-0.34 -0.747,-0.44 -1.217,-0.44 -0.655,0 -1.017,0.37 -1.017,0.87 0,0.2 0.062,0.39 0.208,0.52 0.146,0.12 0.37,0.22 0.632,0.26 l 0.639,0.09 c 0.516,0.09 0.801,0.21 1.04,0.42 0.3,0.27 0.454,0.67 0.454,1.15 0,1.03 -0.839,1.64 -2.01,1.64" />
  </g>
  <path
     style="stroke-width:0.77021003"
     inkscape:connector-curvature="0"
     id="path50"
     d="M 0.725,0 C 0.324,0 0,0.32 0,0.72 L 0,35.2 c 0,0.4 0.324,0.72 0.724,0.72 l 116.28,0 c 0.398,0 0.729,-0.32 0.729,-0.72 l 0,-34.48 c 0,-0.4 -0.33,-0.72 -0.73,-0.72 z m 62.895,10.32 1.479,0.11 1.071,6.47 c 0,0 -0.085,0.05 -1.479,0.49 -0.277,0.11 -0.408,-0.01 -0.431,-0.13 -0.986,-2.44 -4.121,-4.02 -7.526,-4.09 -1.509,0.17 -3.381,-0.01 -4.082,1.59 -0.346,0.76 -0.346,6.07 -0.123,7.08 0.124,0.65 0.424,1.37 1.125,1.61 3.828,0.91 8.002,-0.05 11.322,-1.97 0.254,-0.1 0.423,0.01 0.5,0.25 l 0.74,2.74 C 59.6,26.73 50.249,27.72 44.188,23.6 c -1.833,-1.3 -3.065,-2.8 -3.065,-5.17 0,-2.3 1.471,-4.05 3.288,-5.31 5.214,-3.33 11.923,-2.91 18.061,-1.82 0.871,0.15 1.148,-0.98 1.148,-0.98 z m -51.712,0.85 24.016,0 c 0,0 0.909,3.87 1.425,5.67 l -1.394,0.57 c -0.393,0.17 -0.44,-0.09 -0.663,-0.34 -1.171,-2.41 -3.7448,-4.17 -6.2665,-3.33 l 0.0047,9.07 c -0.0147,0.31 0.0871,0.54 0.4822,0.69 0.4429,0.18 1.015,0.41 1.4648,0.54 0.5114,0.13 0.5916,0.32 0.5593,0.53 l -0.0036,1.52 -15.228,0 0,-1.52 c -0.0346,-0.21 0.0441,-0.4 0.5563,-0.53 0.4475,-0.13 1.0232,-0.36 1.4653,-0.54 0.3944,-0.15 0.4969,-0.38 0.4822,-0.69 l 0.0031,-9.07 c -2.5232,-0.84 -5.0925,0.92 -6.2679,3.33 -0.2225,0.25 -0.2656,0.51 -0.6649,0.34 L 10.49,16.84 c 0.513,-1.8 1.418,-5.67 1.418,-5.67 z m 60.292,0 12.485,0 4.021,4.35 c 0.031,0.04 0.092,0.05 0.154,0.05 0.054,0 0.1,-0.02 0.138,-0.06 l 3.705,-4.34 12.532,0 0,1.54 c 0.038,0.2 -0.047,0.38 -0.563,0.52 -0.446,0.12 -1.016,0.35 -1.463,0.53 -0.393,0.16 -0.485,0.39 -0.477,0.69 l 0,8.36 c -0.008,0.31 0.084,0.54 0.477,0.69 0.447,0.18 1.017,0.41 1.463,0.54 0.516,0.13 0.601,0.32 0.563,0.53 l 0,1.52 -14.911,0 0,-1.52 c -0.039,-0.21 0.045,-0.4 0.554,-0.53 0.454,-0.13 1.024,-0.36 1.471,-0.54 0.385,-0.15 0.493,-0.38 0.478,-0.69 l -0.016,-6.85 c 0,-0.16 -0.092,-0.28 -0.231,-0.28 -0.085,0 -0.17,0.04 -0.216,0.11 l -7.27,8.57 -7.202,-8.38 c -0.046,-0.04 -0.092,-0.06 -0.154,-0.06 -0.139,0 -0.254,0.12 -0.254,0.27 l 0.008,6.62 c -0.008,0.31 0.092,0.54 0.485,0.69 0.447,0.18 1.024,0.41 1.463,0.54 0.516,0.13 0.594,0.32 0.563,0.53 l 0,1.52 -7.803,0 0,-1.52 c -0.031,-0.21 0.047,-0.4 0.555,-0.53 0.454,-0.13 1.024,-0.36 1.471,-0.54 0.393,-0.15 0.493,-0.38 0.477,-0.69 l 0,-8.36 c 0.016,-0.3 -0.084,-0.53 -0.477,-0.69 -0.447,-0.18 -1.017,-0.41 -1.471,-0.53 -0.508,-0.14 -0.586,-0.32 -0.555,-0.52 z m 9.952,2.52 -0.016,0.01 -1.263,0 c -0.154,0 -0.293,0.14 -0.293,0.31 0,0.08 0.039,0.16 0.093,0.21 l 4.498,4.8 c 0.146,0.16 0.385,0.15 0.531,-0.01 l 0.531,-0.6 c 0.139,-0.17 0.131,-0.43 -0.015,-0.58 l -3.789,-4.02 c -0.077,-0.09 -0.177,-0.13 -0.277,-0.12 z m 16.298,0.34 c -0.038,-0.01 -0.08,0 -0.124,0.02 l -1.055,0.43 c -0.17,0.06 -0.309,0.27 -0.309,0.46 l 0,7.38 c 0,0.19 0.139,0.28 0.309,0.22 l 1.055,-0.42 c 0.177,-0.07 0.315,-0.28 0.315,-0.47 l 0,-7.38 c 0,-0.15 -0.077,-0.23 -0.191,-0.24 z m -49.294,0.13 c -0.036,-0.01 -0.074,-0.01 -0.116,0 -0.539,0.06 -3.004,1.52 -3.004,4.04 0,2.59 2.45,4.21 3.004,4.26 0.332,0.07 0.501,-0.33 0.293,-0.54 -1.186,-1.16 -1.24,-2.57 -1.248,-3.61 0,-1.23 0.062,-2.45 1.248,-3.6 0.182,-0.19 0.075,-0.52 -0.177,-0.55 z M 24.634,14.4 c -0.0371,0 -0.0779,0.01 -0.121,0.03 l -1.0649,0.42 c -0.1725,0.07 -0.3114,0.28 -0.3114,0.47 l 0,7.37 c 0,0.19 0.1389,0.29 0.3114,0.22 l 1.0649,-0.42 c 0.1725,-0.07 0.3104,-0.28 0.3104,-0.47 l 0,-7.38 c 0,-0.14 -0.0778,-0.23 -0.1894,-0.24 z" />
  <path
     inkscape:connector-curvature="0"
     id="path52"
     d="m 121.682,0 0,35.35 4.151,0 0,-16.22 8.24,0 0,16.22 4.11,0 0,-35.35 -4.11,0 0,15.42 -8.24,0 0,-15.42 z" />
  <path
     inkscape:connector-curvature="0"
     id="path54"
     d="m 142.303,0 0,35.35 8.45,0 c 5.57,0 8,-3.36 8,-7.86 l 0,-19.64 c 0,-4.49 -2.43,-7.85 -8,-7.85 z m 4.27,3.79 3.91,0 c 2.79,0 4.04,1.53 4.04,4.28 l 0,19.25 c 0,2.7 -1.25,4.23 -4.04,4.23 l -3.91,0 z" />
</svg>
