<svg height="231.37788" viewBox="0 0 152.85784 61.219999" width="577.73041" xmlns="http://www.w3.org/2000/svg"><path d="m107.01936 17.93c-.1-.11-.23-.16-.36-.15l-.02.01h-1.64c-.2 0-.38.18-.38.4 0 .11.05.21.12.28l5.84 6.23c.19.2.5.19.69-.01l.69-.79c.18-.21.17-.55-.02-.75z"/><path d="m63.669361 18.39c-.7.07-3.9 1.97-3.9 5.24 0 3.37 3.18 5.47 3.9 5.54.43.09.65-.43.38-.71-1.54-1.5-1.61-3.33-1.62-4.68 0-1.6.08-3.18 1.62-4.68.27-.28.05-.8-.38-.71"/><path d="m31.824361 18.74-1.382.54c-.224.09-.405.37-.405.61v9.58c0 .24.181.37.405.28l1.382-.55c.224-.09.403-.36.403-.6v-9.59c0-.24-.179-.37-.403-.27"/><path d="m127.65936 18.24-1.37.56c-.22.08-.4.35-.4.6v9.58c0 .25.18.37.4.29l1.37-.55c.23-.09.41-.36.41-.61v-9.58c0-.25-.18-.37-.41-.29"/><path d="m133.99936 30.52c.58.23 1.32.53 1.9.69.67.18.78.42.73.69v1.98h-19.36v-1.98c-.05-.27.06-.51.72-.69.59-.16 1.33-.46 1.91-.69.5-.2.64-.5.62-.9l-.02-8.9c0-.2-.12-.36-.3-.36-.11 0-.22.05-.28.14l-9.44 11.13-9.35-10.88c-.06-.05-.12-.08-.2-.08-.18 0-.33.16-.33.35l.01 8.6c-.01.4.12.7.63.9.58.23 1.33.53 1.9.69.67.18.77.42.73.69v1.98h-10.129999v-1.98c-.04-.27.06-.51.72-.69.59-.16 1.33-.46 1.91-.69.51-.2.64-.5.62-.9v-10.85c.02-.4-.11-.69-.62-.9-.58-.23-1.32-.53-1.91-.69-.66-.18-.76-.42-.72-.68v-1.99h16.239999-.03l5.22 5.64c.04.06.12.07.2.07.07 0 .13-.03.18-.08l4.81-5.63h16.27v1.99c.05.26-.06.5-.73.68-.58.16-1.32.46-1.9.69-.51.21-.63.5-.62.9v10.85c-.01.4.11.7.62.9m-76.629999.12c-2.38-1.68-3.98-3.63-3.98-6.71 0-2.98 1.91-5.25 4.27-6.89 6.77-4.33 15.48-3.78 23.45-2.37 1.13.2 1.49-1.27 1.49-1.27l1.92.14 1.39 8.41s-.11.06-1.92.63c-.36.14-.53-.01-.56-.17-1.28-3.16-5.35-5.21-9.77-5.31-1.96.23-4.39-.01-5.3 2.07-.45.98-.45 7.88-.16 9.19.16.84.55 1.78 1.46 2.09 4.97 1.18 10.39-.06 14.7-2.56.33-.13.55.02.65.33l.96 3.55c-8.59 2.94-20.73 4.22-28.6-1.13m-10.69-8.03c-.51.22-.57-.12-.86-.44-1.52-3.13-4.862-5.42-8.136-4.33l.006 11.78c-.019.4.113.7.626.9.575.23 1.318.53 1.902.69.664.18.768.42.726.69l-.005 1.98h-19.771v-1.98c-.045-.27.057-.51.722-.69.581-.16 1.329-.46 1.903-.69.512-.2.645-.5.626-.9l.004-11.78c-3.276-1.09-6.612 1.2-8.138 4.33-.289.32-.345.66-.864.44l-1.802-.74c.666-2.34 1.84-7.36 1.84-7.36h31.181s1.18 5.02 1.85 7.36zm105.229999-22.61h-150.96999915c-.521 0-.941.42-.941.94v44.76c0 .52.42.94.939.94h150.96999915c.52 0 .95-.42.95-.94v-44.76c0-.52-.43-.94-.95-.94"/><path d="m104.73936 18.49v-.02l-.04-.04z"/><path d="m32.228361 28.6c0 .24-.18.51-.404.6l-1.381.55c-.224.09-.406-.04-.406-.28v-9.58c0-.24.182-.52.406-.61l1.381-.54c.224-.1.404.03.404.27z"/><path d="m3.1083609 54.89v6.27h-1.104v-6.27h-1.99500005v-.99h5.09600005v.99z"/><path d="m10.211361 61.22c-1.4790001 0-2.6010001-1.01-2.6010001-2.51v-4.81h1.102v4.76c0 .97.59 1.57 1.4990001 1.57.908 0 1.507-.6 1.507-1.57v-4.76h1.103v4.81c0 1.5-1.133 2.51-2.61 2.51"/><path d="m21.677361 61.16-1.671-3.21c.815-.23 1.446-.89 1.446-1.93 0-1.23-.875-2.12-2.252-2.12h-2.813v7.26h1.101v-3.06h1.376l1.531 3.06zm-1.324-5.13c0 .71-.5 1.14-1.232 1.14h-1.633v-2.28h1.633c.732 0 1.232.42 1.232 1.14"/><path d="m29.304361 61.16-3.356-5.11v5.11h-1.1v-7.26h1.01l3.353 5.1v-5.1h1.101v7.26z"/><path d="m33.991361 61.16v-7.26h4.639v.99h-3.539v2.12h3.019v.98h-3.019v2.18h3.539v.99z"/><path d="m47.209361 61.16-1.67-3.21c.82-.23 1.45-.89 1.45-1.93 0-1.23-.88-2.12-2.25-2.12h-2.82v7.26h1.1v-3.06h1.38l1.53 3.06zm-1.32-5.13c0 .71-.5 1.14-1.24 1.14h-1.63v-2.28h1.63c.74 0 1.24.42 1.24 1.14"/><path d="m56.609361 61.22c-.75 0-1.41-.27-1.91-.77-.71-.72-.7-1.52-.7-2.92s-.01-2.2.7-2.92c.5-.49 1.16-.77 1.91-.77 1.33 0 2.34.78 2.59 2.23h-1.12c-.17-.73-.67-1.24-1.47-1.24-.43 0-.82.16-1.07.43-.36.4-.44.81-.44 2.27s.08 1.88.44 2.27c.25.27.64.43 1.07.43.8 0 1.3-.51 1.48-1.24h1.11c-.25 1.45-1.27 2.23-2.59 2.23"/><path d="m62.029361 61.16v-7.26h1.1v6.27h3.5v.99z"/><path d="m74.589361 61.16-2.66-7.26h-.89l-2.66 7.26h1.17l.5-1.46h2.86l.5 1.46zm-1.98-2.4h-2.23l1.13-3.22z"/><path d="m79.329361 61.22c-1.1 0-1.88-.25-2.57-.96l.73-.72c.53.53 1.11.69 1.86.69.94 0 1.5-.4 1.5-1.11 0-.32-.09-.58-.29-.76-.18-.17-.37-.24-.79-.3l-.86-.12c-.59-.08-1.06-.29-1.38-.58-.35-.34-.53-.8-.53-1.39 0-1.27.92-2.13 2.43-2.13.95 0 1.63.24 2.25.82l-.7.7c-.45-.43-.97-.56-1.58-.56-.86 0-1.33.48-1.33 1.13 0 .26.08.5.28.67.18.16.48.29.81.34l.83.12c.67.11 1.05.26 1.36.54.39.35.58.87.58 1.49 0 1.34-1.08 2.13-2.6 2.13"/><path d="m87.019361 61.22c-1.09 0-1.87-.25-2.57-.96l.74-.72c.53.53 1.11.69 1.85.69.95 0 1.5-.4 1.5-1.11 0-.32-.09-.58-.28-.76-.19-.17-.37-.24-.8-.3l-.86-.12c-.59-.08-1.06-.29-1.37-.58-.36-.34-.53-.8-.53-1.39 0-1.27.92-2.13 2.43-2.13.95 0 1.63.24 2.25.82l-.71.7c-.44-.43-.97-.56-1.58-.56-.85 0-1.32.48-1.32 1.13 0 .26.08.5.27.67.19.16.48.29.82.34l.82.12c.68.11 1.06.26 1.36.54.4.35.59.87.59 1.49 0 1.34-1.09 2.13-2.61 2.13"/><path d="m92.899361 53.9h1.1v7.26h-1.1z"/><path d="m100.01936 61.22c-.749999 0-1.409999-.27-1.909999-.77-.71-.72-.7-1.52-.7-2.92s-.01-2.2.7-2.92c.5-.49 1.16-.77 1.909999-.77 1.33 0 2.33.78 2.59 2.23h-1.12c-.18-.73-.67-1.24-1.47-1.24-.429999 0-.819999.16-1.069999.43-.36.4-.44.81-.44 2.27s.08 1.88.44 2.27c.25.27.64.43 1.069999.43.8 0 1.3-.51 1.48-1.24h1.11c-.25 1.45-1.28 2.23-2.59 2.23"/><path d="m115.03936 61.16v-4.85l-1.67 3.54h-.82l-1.71-3.54v4.85h-1.1v-7.26h1.1l2.12 4.52 2.08-4.52h1.1v7.26z"/><path d="m124.76936 57.53c0-1.4.02-2.2-.69-2.92-.51-.49-1.14-.77-1.92-.77s-1.41.28-1.91.77c-.71.72-.7 1.52-.7 2.92s-.01 2.2.7 2.92c.5.5 1.13.77 1.91.77s1.41-.27 1.92-.77c.71-.72.69-1.52.69-2.92m-1.1 0c0 1.46-.08 1.86-.43 2.25-.26.28-.65.45-1.08.45s-.83-.17-1.08-.45c-.36-.39-.43-.79-.43-2.25s.07-1.87.43-2.25c.25-.28.65-.45 1.08-.45s.82.17 1.08.45c.35.38.43.79.43 2.25"/><path d="m130.42936 61.16h-.86l-2.39-7.26h1.14l1.68 5.28 1.67-5.28h1.16z"/><path d="m135.60936 53.9h1.1v7.26h-1.1z"/><path d="m140.38936 61.16v-7.26h4.64v.99h-3.54v2.12h3.02v.98h-3.02v2.18h3.54v.99z"/><path d="m150.24936 61.22c-1.09 0-1.88-.25-2.57-.96l.73-.72c.54.53 1.12.69 1.86.69.95 0 1.5-.4 1.5-1.11 0-.32-.09-.58-.28-.76-.19-.17-.37-.24-.8-.3l-.86-.12c-.59-.08-1.06-.29-1.37-.58-.36-.34-.53-.8-.53-1.39 0-1.27.91-2.13 2.43-2.13.95 0 1.62.24 2.25.82l-.71.7c-.45-.43-.97-.56-1.58-.56-.85 0-1.32.48-1.32 1.13 0 .26.08.5.27.67.19.16.48.29.82.34l.83.12c.67.11 1.04.26 1.35.54.39.35.59.87.59 1.49 0 1.34-1.09 2.13-2.61 2.13"/></svg>