<svg height="231.37752" viewBox="0 0 193.6184 61.217519" width="731.78607" xmlns="http://www.w3.org/2000/svg"><g transform="matrix(1.2196434 0 0 1.2196434 641.70318 171.8718)"><path d="m-525.17-140.92c-.54 0-.97.35-.97.77v36.7c0 .43.43.77.97.77h156.8c.53 0 .98-.34.98-.77v-36.7c0-.42-.45-.77-.98-.77zm122.4 3.38h31.76c.11 0 .2.28.2.63v30.07c0 .35-.09.63-.2.63h-31.76c-.11 0-.2-.28-.2-.63v-30.07c0-.35.09-.63.2-.63zm-55.65 7.61 1.57.12 1.14 6.89s-.09.05-1.57.52c-.3.11-.44-.01-.46-.14-1.05-2.59-4.38-4.27-8.01-4.36-1.6.19-3.6 0-4.34 1.7-.37.8-.37 6.46-.14 7.53.13.69.45 1.47 1.2 1.72 4.07.97 8.52-.05 12.06-2.1.26-.1.45.02.53.27l.78 2.92c-7.04 2.41-17 3.45-23.45-.93-1.95-1.38-3.26-2.98-3.26-5.5 0-2.45 1.57-4.31 3.5-5.66 5.55-3.55 12.69-3.09 19.23-1.94.92.16 1.22-1.04 1.22-1.04zm-55.05.91h25.57s.97 4.12 1.51 6.04l-1.48.6c-.42.18-.47-.1-.7-.36-1.25-2.56-3.99-4.45-6.68-3.55l.01 9.66c-.02.33.09.57.51.74.47.19 1.08.43 1.56.57.55.14.63.34.6.56l-.01 1.62h-16.21v-1.62c-.03-.22.05-.42.59-.56.48-.14 1.09-.38 1.56-.57.43-.17.53-.41.52-.74v-9.66c-2.68-.9-5.42.99-6.67 3.55-.24.26-.28.54-.71.36l-1.48-.6c.55-1.92 1.51-6.04 1.51-6.04zm64.18 0h13.3l4.27 4.62c.04.05.1.07.16.07s.12-.03.16-.08l3.94-4.61h13.34v1.63c.04.22-.05.42-.6.56-.47.13-1.08.38-1.56.57-.41.17-.52.41-.51.74v8.89c-.01.33.1.57.51.74.48.19 1.09.43 1.56.57.55.14.64.34.6.56v1.62h-15.88v-1.62c-.03-.22.05-.42.6-.56.48-.14 1.08-.38 1.56-.57.41-.17.52-.41.51-.74l-.02-7.3c0-.16-.09-.29-.24-.29-.09 0-.18.04-.23.11l-7.74 9.13-7.67-8.92c-.05-.04-.1-.07-.16-.07-.15 0-.27.13-.27.29l.01 7.05c-.01.33.09.57.51.74.48.19 1.09.43 1.56.57.55.14.63.34.6.56v1.62h-8.31v-1.62c-.03-.22.05-.42.59-.56.48-.14 1.1-.38 1.57-.57.42-.17.52-.41.51-.74v-8.89c.01-.33-.09-.57-.51-.74-.47-.19-1.09-.44-1.57-.57-.54-.14-.62-.34-.59-.56zm10.59 2.68-.01.01h-1.34c-.17 0-.32.15-.32.33 0 .09.04.17.1.23l4.79 5.11c.16.16.41.16.57-.01l.56-.65c.15-.17.14-.45-.01-.62l-4.04-4.27c-.08-.09-.19-.13-.3-.13zm17.36.36c-.04 0-.09.01-.13.02l-1.13.46c-.18.07-.33.29-.33.49v7.86c0 .2.15.3.33.23l1.13-.45c.18-.08.33-.3.33-.5v-7.85c0-.16-.08-.25-.2-.26zm-52.53.14c-.03 0-.05 0-.07.01-.58.05-3.2 1.61-3.2 4.29 0 2.76 2.61 4.49 3.2 4.54.35.08.53-.35.31-.58-1.26-1.23-1.32-2.73-1.32-3.84-.01-1.31.06-2.61 1.32-3.83.21-.22.06-.61-.24-.59zm-26.05.26c-.04 0-.08.01-.13.03l-1.13.44c-.19.08-.33.3-.33.5v7.86c0 .2.14.3.33.23l1.13-.46c.18-.07.33-.29.33-.49v-7.86c0-.15-.08-.24-.2-.25z"/><path d="m-385.62-119.83v-3.78h-4.96v-4.96h-3.78v4.96h-4.99v3.78h4.99v4.96h3.78v-4.96z"/><path d="m-378.62-135.22-4.04 3.05v4.27l4.04-3.01v22.03h4.02v-26.34z"/></g><path d="m3.1097724 54.888421v6.269871h-1.103978v-6.269871h-1.994958v-.98998h5.095894v.98998z"/><path d="m10.212625 61.21829c-1.4789694 0-2.6009461-1.009979-2.6009461-2.509948v-4.809901h1.1019771v4.759902c0 .96998.5899878 1.569968 1.498969 1.569968.907982 0 1.506969-.599988 1.506969-1.569968v-4.759902h1.102977v4.809901c0 1.499969-1.132976 2.509948-2.609946 2.509948"/><path d="m21.678388 61.158292-1.670965-3.209934c.814983-.229995 1.44597-.889982 1.44597-1.92996 0-1.229975-.874982-2.119957-2.251954-2.119957h-2.812942v7.259851h1.100978v-3.059937h1.375971l1.530969 3.059937zm-1.323973-5.129895c0 .709986-.499989 1.139977-1.231974 1.139977h-1.632966v-2.279953h1.632966c.731985 0 1.231974.419991 1.231974 1.139976"/><path d="m29.305229 61.158292-3.355929-5.109895v5.109895h-1.099977v-7.259851h1.009979l3.352929 5.099895v-5.099895h1.100979v7.259851z"/><path d="m33.992132 61.158292v-7.259851h4.638906v.98998h-3.538927v2.119956h3.018938v.97998h-3.018938v2.179955h3.538927v.98998z"/><path d="m47.209861 61.158292-1.669965-3.209934c.81998-.229995 1.449969-.889982 1.449969-1.92996 0-1.229975-.879983-2.119957-2.249953-2.119957h-2.819942v7.259851h1.099976v-3.059937h1.379971l1.529969 3.059937zm-1.319975-5.129895c0 .709986-.499988 1.139977-1.239972 1.139977h-1.629968v-2.279953h1.629968c.739984 0 1.239972.419991 1.239972 1.139976"/><path d="m56.609665 61.21829c-.749983 0-1.40997-.269994-1.909961-.769984-.709985-.719985-.699984-1.519968-.699984-2.919939 0-1.399972-.01-2.199955.699984-2.91994.499991-.48999 1.159978-.769984 1.909961-.769984 1.329973 0 2.339951.779983 2.589948 2.229954h-1.119979c-.169994-.729985-.669985-1.239975-1.469969-1.239975-.42999 0-.819983.159997-1.069978.429991-.359992.399992-.439991.809984-.439991 2.269954 0 1.459969.08 1.879961.439991 2.269953.249995.269994.639988.429991 1.069978.429991.799984 0 1.299975-.50999 1.479971-1.239975h1.109977c-.249997 1.449971-1.269974 2.229954-2.589948 2.229954"/><path d="m62.029554 61.158292v-7.259851h1.099976v6.269871h3.499929v.98998z"/><path d="m74.589293 61.158292-2.659944-7.259851h-.889981l-2.659947 7.259851h1.169977l.499989-1.45997h2.859942l.499988 1.45997zm-1.979959-2.399951h-2.229954l1.129978-3.219934z"/><path d="m79.329194 61.21829c-1.099976 0-1.879959-.249994-2.569945-.95998l.729985-.719985c.52999.529989 1.109978.689986 1.85996.689986.939983 0 1.499971-.399992 1.499971-1.109977 0-.319994-.09-.579988-.289994-.759985-.179996-.169996-.369993-.239995-.789985-.299993l-.859981-.119998c-.589989-.08-1.059979-.289994-1.379971-.579988-.349993-.339993-.529989-.799983-.529989-1.389971 0-1.269974.91998-2.129956 2.429949-2.129956.949981 0 1.629965.239995 2.249953.819983l-.699984.699985c-.449993-.429991-.969981-.559988-1.579968-.559988-.859983 0-1.329973.47999-1.329973 1.129976 0 .259995.08.49999.279993.669987.179999.159996.479991.289994.809985.339992l.829982.119998c.669986.109998 1.049977.259995 1.359971.539989.389993.349993.579988.869982.579988 1.489969 0 1.339973-1.079976 2.129956-2.599947 2.129956"/><path d="m87.019036 61.21829c-1.089977 0-1.869961-.249994-2.569945-.95998l.739984-.719985c.529989.529989 1.109977.689986 1.849961.689986.949981 0 1.499968-.399992 1.499968-1.109977 0-.319994-.09-.579988-.279993-.759985-.189997-.169996-.369993-.239995-.799983-.299993l-.859983-.119998c-.589987-.08-1.059977-.289994-1.36997-.579988-.359993-.339993-.52999-.799983-.52999-1.389971 0-1.269974.91998-2.129956 2.429949-2.129956.949981 0 1.629966.239995 2.249953.819983l-.709985.699985c-.439989-.429991-.969979-.559988-1.579968-.559988-.849981 0-1.319971.47999-1.319971 1.129976 0 .259995.08.49999.269994.669987.189997.159996.479991.289994.819983.339992l.819984.119998c.679984.109998 1.059976.259995 1.359971.539989.399992.349993.589986.869982.589986 1.489969 0 1.339973-1.089977 2.129956-2.609945 2.129956"/><path d="m92.898914 53.898441h1.099979v7.259851h-1.099979z"/><path d="m100.01877 61.21829c-.749986 0-1.409973-.269994-1.909962-.769984-.709985-.719985-.699987-1.519968-.699987-2.919939 0-1.399972-.01-2.199955.699987-2.91994.499989-.48999 1.159976-.769984 1.909962-.769984 1.32997 0 2.32995.779983 2.58995 2.229954h-1.11998c-.18-.729985-.66999-1.239975-1.46997-1.239975-.429994 0-.819984.159997-1.069981.429991-.359992.399992-.439989.809984-.439989 2.269954 0 1.459969.08 1.879961.439989 2.269953.249997.269994.639987.429991 1.069981.429991.79998 0 1.29998-.50999 1.47997-1.239975h1.10998c-.25 1.449971-1.27998 2.229954-2.58995 2.229954"/><path d="m115.03846 61.158292v-4.8499l-1.66997 3.539926h-.81998l-1.70996-3.539926v4.8499h-1.09998v-7.259851h1.09998l2.11995 4.519907 2.07996-4.519907h1.09998v7.259851z"/><path d="m124.76825 57.528367c0-1.399972.02-2.199955-.68999-2.91994-.50999-.48999-1.13997-.769984-1.91996-.769984-.77998 0-1.40997.279994-1.90996.769984-.70998.719985-.69998 1.519968-.69998 2.91994 0 1.399971-.01 2.199954.69998 2.919939.49999.49999 1.12998.769984 1.90996.769984.77999 0 1.40997-.269994 1.91996-.769984.70999-.719985.68999-1.519968.68999-2.919939m-1.09998 0c0 1.459969-.08 1.859961-.42999 2.249953-.25999.279994-.64998.449991-1.07998.449991-.42999 0-.82998-.169997-1.07997-.449991-.36-.389992-.43-.789984-.43-2.249953 0-1.45997.07-1.869962.43-2.249954.24999-.279994.64998-.449991 1.07997-.449991.43 0 .81999.169997 1.07998.449991.34999.379992.42999.789984.42999 2.249954"/><path d="m130.42813 61.158292h-.85998l-2.38995-7.259851h1.13998l1.67996 5.279891 1.66997-5.279891h1.15997z"/><path d="m135.60803 53.898441h1.09997v7.259851h-1.09997z"/><path d="m140.38793 61.158292v-7.259851h4.6399v.98998h-3.53993v2.119956h3.01994v.97998h-3.01994v2.179955h3.53993v.98998z"/><path d="m150.24772 61.21829c-1.08998 0-1.87996-.249994-2.56995-.95998l.72999-.719985c.53999.529989 1.11998.689986 1.85996.689986.94998 0 1.49997-.399992 1.49997-1.109977 0-.319994-.09-.579988-.27999-.759985-.19-.169996-.37-.239995-.79999-.299993l-.85998-.119998c-.58999-.08-1.05998-.289994-1.36997-.579988-.35999-.339993-.52999-.799983-.52999-1.389971 0-1.269974.90998-2.129956 2.42995-2.129956.94998 0 1.61997.239995 2.24995.819983l-.70998.699985c-.44999-.429991-.96998-.559988-1.57997-.559988-.84998 0-1.31997.47999-1.31997 1.129976 0 .259995.08.49999.26999.669987.19.159996.47999.289994.81999.339992l.82998.119998c.66998.109998 1.03998.259995 1.34997.539989.38999.349993.58999.869982.58999 1.489969 0 1.339973-1.08998 2.129956-2.60995 2.129956"/></svg>