<?xml version="1.0" encoding="UTF-8" standalone="no"?>
<svg
   xmlns:dc="http://purl.org/dc/elements/1.1/"
   xmlns:cc="http://creativecommons.org/ns#"
   xmlns:rdf="http://www.w3.org/1999/02/22-rdf-syntax-ns#"
   xmlns:svg="http://www.w3.org/2000/svg"
   xmlns="http://www.w3.org/2000/svg"
   xmlns:sodipodi="http://sodipodi.sourceforge.net/DTD/sodipodi-0.dtd"
   xmlns:inkscape="http://www.inkscape.org/namespaces/inkscape"
   height="231.37788"
   width="577.73041"
   version="1.1"
   viewBox="0 0 152.85784 61.219999"
   id="svg2"
   inkscape:version="0.91 r13725"
   sodipodi:docname="TCM - Dark.svg">
  <metadata
     id="metadata66">
    <rdf:RDF>
      <cc:Work
         rdf:about="">
        <dc:format>image/svg+xml</dc:format>
        <dc:type
           rdf:resource="http://purl.org/dc/dcmitype/StillImage" />
        <dc:title></dc:title>
      </cc:Work>
    </rdf:RDF>
  </metadata>
  <defs
     id="defs64" />
  <sodipodi:namedview
     pagecolor="#ffffff"
     bordercolor="#666666"
     borderopacity="1"
     objecttolerance="10"
     gridtolerance="10"
     guidetolerance="10"
     inkscape:pageopacity="0"
     inkscape:pageshadow="2"
     inkscape:window-width="1920"
     inkscape:window-height="1017"
     id="namedview62"
     showgrid="false"
     fit-margin-top="0"
     fit-margin-left="0"
     fit-margin-right="0"
     fit-margin-bottom="0"
     inkscape:zoom="0.96"
     inkscape:cx="231.28193"
     inkscape:cy="368.40069"
     inkscape:window-x="-8"
     inkscape:window-y="-8"
     inkscape:window-maximized="1"
     inkscape:current-layer="svg2" />
  <path
     inkscape:connector-curvature="0"
     id="path6"
     d="m 107.01936,17.93 c -0.1,-0.11 -0.23,-0.16 -0.36,-0.15 l -0.02,0.01 -1.64,0 c -0.2,0 -0.38,0.18 -0.38,0.4 0,0.11 0.05,0.21 0.12,0.28 l 5.84,6.23 c 0.19,0.2 0.5,0.19 0.69,-0.01 l 0.69,-0.79 c 0.18,-0.21 0.17,-0.55 -0.02,-0.75 z" />
  <path
     inkscape:connector-curvature="0"
     id="path8"
     d="m 63.669361,18.39 c -0.7,0.07 -3.9,1.97 -3.9,5.24 0,3.37 3.18,5.47 3.9,5.54 0.43,0.09 0.65,-0.43 0.38,-0.71 -1.54,-1.5 -1.61,-3.33 -1.62,-4.68 0,-1.6 0.08,-3.18 1.62,-4.68 0.27,-0.28 0.05,-0.8 -0.38,-0.71" />
  <path
     inkscape:connector-curvature="0"
     id="path10"
     d="m 31.824361,18.74 -1.382,0.54 c -0.224,0.09 -0.405,0.37 -0.405,0.61 l 0,9.58 c 0,0.24 0.181,0.37 0.405,0.28 l 1.382,-0.55 c 0.224,-0.09 0.403,-0.36 0.403,-0.6 l 0,-9.59 c 0,-0.24 -0.179,-0.37 -0.403,-0.27" />
  <path
     inkscape:connector-curvature="0"
     id="path12"
     d="m 127.65936,18.24 -1.37,0.56 c -0.22,0.08 -0.4,0.35 -0.4,0.6 l 0,9.58 c 0,0.25 0.18,0.37 0.4,0.29 l 1.37,-0.55 c 0.23,-0.09 0.41,-0.36 0.41,-0.61 l 0,-9.58 c 0,-0.25 -0.18,-0.37 -0.41,-0.29" />
  <path
     inkscape:connector-curvature="0"
     id="path14"
     d="m 133.99936,30.52 c 0.58,0.23 1.32,0.53 1.9,0.69 0.67,0.18 0.78,0.42 0.73,0.69 l 0,1.98 -19.36,0 0,-1.98 c -0.05,-0.27 0.06,-0.51 0.72,-0.69 0.59,-0.16 1.33,-0.46 1.91,-0.69 0.5,-0.2 0.64,-0.5 0.62,-0.9 l -0.02,-8.9 c 0,-0.2 -0.12,-0.36 -0.3,-0.36 -0.11,0 -0.22,0.05 -0.28,0.14 l -9.44,11.13 -9.35,-10.88 c -0.06,-0.05 -0.12,-0.08 -0.2,-0.08 -0.18,0 -0.33,0.16 -0.33,0.35 l 0.01,8.6 c -0.01,0.4 0.12,0.7 0.63,0.9 0.58,0.23 1.33,0.53 1.9,0.69 0.67,0.18 0.77,0.42 0.73,0.69 l 0,1.98 -10.129999,0 0,-1.98 c -0.04,-0.27 0.06,-0.51 0.72,-0.69 0.59,-0.16 1.33,-0.46 1.91,-0.69 0.51,-0.2 0.64,-0.5 0.62,-0.9 l 0,-10.85 c 0.02,-0.4 -0.11,-0.69 -0.62,-0.9 -0.58,-0.23 -1.32,-0.53 -1.91,-0.69 -0.66,-0.18 -0.76,-0.42 -0.72,-0.68 l 0,-1.99 16.239999,0 -0.03,0 5.22,5.64 c 0.04,0.06 0.12,0.07 0.2,0.07 0.07,0 0.13,-0.03 0.18,-0.08 l 4.81,-5.63 16.27,0 0,1.99 c 0.05,0.26 -0.06,0.5 -0.73,0.68 -0.58,0.16 -1.32,0.46 -1.9,0.69 -0.51,0.21 -0.63,0.5 -0.62,0.9 l 0,10.85 c -0.01,0.4 0.11,0.7 0.62,0.9 m -76.629999,0.12 c -2.38,-1.68 -3.98,-3.63 -3.98,-6.71 0,-2.98 1.91,-5.25 4.27,-6.89 6.77,-4.33 15.48,-3.78 23.45,-2.37 1.13,0.2 1.49,-1.27 1.49,-1.27 l 1.92,0.14 1.39,8.41 c 0,0 -0.11,0.06 -1.92,0.63 -0.36,0.14 -0.53,-0.01 -0.56,-0.17 -1.28,-3.16 -5.35,-5.21 -9.77,-5.31 -1.96,0.23 -4.39,-0.01 -5.3,2.07 -0.45,0.98 -0.45,7.88 -0.16,9.19 0.16,0.84 0.55,1.78 1.46,2.09 4.97,1.18 10.39,-0.06 14.7,-2.56 0.33,-0.13 0.55,0.02 0.65,0.33 l 0.96,3.55 c -8.59,2.94 -20.73,4.22 -28.6,-1.13 m -10.69,-8.03 c -0.51,0.22 -0.57,-0.12 -0.86,-0.44 -1.52,-3.13 -4.862,-5.42 -8.136,-4.33 l 0.006,11.78 c -0.019,0.4 0.113,0.7 0.626,0.9 0.575,0.23 1.318,0.53 1.902,0.69 0.664,0.18 0.768,0.42 0.726,0.69 l -0.005,1.98 -19.771,0 0,-1.98 c -0.045,-0.27 0.057,-0.51 0.722,-0.69 0.581,-0.16 1.329,-0.46 1.903,-0.69 0.512,-0.2 0.645,-0.5 0.626,-0.9 l 0.004,-11.78 c -3.276,-1.09 -6.612,1.2 -8.138,4.33 -0.289,0.32 -0.345,0.66 -0.864,0.44 l -1.802,-0.74 c 0.666,-2.34 1.84,-7.36 1.84,-7.36 l 31.181,0 c 0,0 1.18,5.02 1.85,7.36 z M 151.90936,0 0.93936085,0 c -0.521,0 -0.941,0.42 -0.941,0.94 l 0,44.76 c 0,0.52 0.42,0.94 0.939,0.94 l 150.96999915,0 c 0.52,0 0.95,-0.42 0.95,-0.94 l 0,-44.76 c 0,-0.52 -0.43,-0.94 -0.95,-0.94" />
  <path
     inkscape:connector-curvature="0"
     id="path16"
     d="m 104.73936,18.49 0,-0.02 -0.04,-0.04 z" />
  <path
     inkscape:connector-curvature="0"
     id="path18"
     d="m 32.228361,28.6 c 0,0.24 -0.18,0.51 -0.404,0.6 l -1.381,0.55 c -0.224,0.09 -0.406,-0.04 -0.406,-0.28 l 0,-9.58 c 0,-0.24 0.182,-0.52 0.406,-0.61 l 1.381,-0.54 c 0.224,-0.1 0.404,0.03 0.404,0.27 z" />
  <path
     inkscape:connector-curvature="0"
     id="path20"
     d="m 3.1083609,54.89 0,6.27 -1.104,0 0,-6.27 -1.99500005,0 0,-0.99 5.09600005,0 0,0.99 z" />
  <path
     inkscape:connector-curvature="0"
     id="path22"
     d="m 10.211361,61.22 c -1.4790001,0 -2.6010001,-1.01 -2.6010001,-2.51 l 0,-4.81 1.102,0 0,4.76 c 0,0.97 0.59,1.57 1.4990001,1.57 0.908,0 1.507,-0.6 1.507,-1.57 l 0,-4.76 1.103,0 0,4.81 c 0,1.5 -1.133,2.51 -2.61,2.51" />
  <path
     inkscape:connector-curvature="0"
     id="path24"
     d="m 21.677361,61.16 -1.671,-3.21 c 0.815,-0.23 1.446,-0.89 1.446,-1.93 0,-1.23 -0.875,-2.12 -2.252,-2.12 l -2.813,0 0,7.26 1.101,0 0,-3.06 1.376,0 1.531,3.06 z m -1.324,-5.13 c 0,0.71 -0.5,1.14 -1.232,1.14 l -1.633,0 0,-2.28 1.633,0 c 0.732,0 1.232,0.42 1.232,1.14" />
  <path
     inkscape:connector-curvature="0"
     id="path26"
     d="m 29.304361,61.16 -3.356,-5.11 0,5.11 -1.1,0 0,-7.26 1.01,0 3.353,5.1 0,-5.1 1.101,0 0,7.26 z" />
  <path
     inkscape:connector-curvature="0"
     id="path28"
     d="m 33.991361,61.16 0,-7.26 4.639,0 0,0.99 -3.539,0 0,2.12 3.019,0 0,0.98 -3.019,0 0,2.18 3.539,0 0,0.99 z" />
  <path
     inkscape:connector-curvature="0"
     id="path30"
     d="m 47.209361,61.16 -1.67,-3.21 c 0.82,-0.23 1.45,-0.89 1.45,-1.93 0,-1.23 -0.88,-2.12 -2.25,-2.12 l -2.82,0 0,7.26 1.1,0 0,-3.06 1.38,0 1.53,3.06 z m -1.32,-5.13 c 0,0.71 -0.5,1.14 -1.24,1.14 l -1.63,0 0,-2.28 1.63,0 c 0.74,0 1.24,0.42 1.24,1.14" />
  <path
     inkscape:connector-curvature="0"
     id="path32"
     d="m 56.609361,61.22 c -0.75,0 -1.41,-0.27 -1.91,-0.77 -0.71,-0.72 -0.7,-1.52 -0.7,-2.92 0,-1.4 -0.01,-2.2 0.7,-2.92 0.5,-0.49 1.16,-0.77 1.91,-0.77 1.33,0 2.34,0.78 2.59,2.23 l -1.12,0 c -0.17,-0.73 -0.67,-1.24 -1.47,-1.24 -0.43,0 -0.82,0.16 -1.07,0.43 -0.36,0.4 -0.44,0.81 -0.44,2.27 0,1.46 0.08,1.88 0.44,2.27 0.25,0.27 0.64,0.43 1.07,0.43 0.8,0 1.3,-0.51 1.48,-1.24 l 1.11,0 c -0.25,1.45 -1.27,2.23 -2.59,2.23" />
  <path
     inkscape:connector-curvature="0"
     id="path34"
     d="m 62.029361,61.16 0,-7.26 1.1,0 0,6.27 3.5,0 0,0.99 z" />
  <path
     inkscape:connector-curvature="0"
     id="path36"
     d="m 74.589361,61.16 -2.66,-7.26 -0.89,0 -2.66,7.26 1.17,0 0.5,-1.46 2.86,0 0.5,1.46 z m -1.98,-2.4 -2.23,0 1.13,-3.22 z" />
  <path
     inkscape:connector-curvature="0"
     id="path38"
     d="m 79.329361,61.22 c -1.1,0 -1.88,-0.25 -2.57,-0.96 l 0.73,-0.72 c 0.53,0.53 1.11,0.69 1.86,0.69 0.94,0 1.5,-0.4 1.5,-1.11 0,-0.32 -0.09,-0.58 -0.29,-0.76 -0.18,-0.17 -0.37,-0.24 -0.79,-0.3 l -0.86,-0.12 c -0.59,-0.08 -1.06,-0.29 -1.38,-0.58 -0.35,-0.34 -0.53,-0.8 -0.53,-1.39 0,-1.27 0.92,-2.13 2.43,-2.13 0.95,0 1.63,0.24 2.25,0.82 l -0.7,0.7 c -0.45,-0.43 -0.97,-0.56 -1.58,-0.56 -0.86,0 -1.33,0.48 -1.33,1.13 0,0.26 0.08,0.5 0.28,0.67 0.18,0.16 0.48,0.29 0.81,0.34 l 0.83,0.12 c 0.67,0.11 1.05,0.26 1.36,0.54 0.39,0.35 0.58,0.87 0.58,1.49 0,1.34 -1.08,2.13 -2.6,2.13" />
  <path
     inkscape:connector-curvature="0"
     id="path40"
     d="m 87.019361,61.22 c -1.09,0 -1.87,-0.25 -2.57,-0.96 l 0.74,-0.72 c 0.53,0.53 1.11,0.69 1.85,0.69 0.95,0 1.5,-0.4 1.5,-1.11 0,-0.32 -0.09,-0.58 -0.28,-0.76 -0.19,-0.17 -0.37,-0.24 -0.8,-0.3 l -0.86,-0.12 c -0.59,-0.08 -1.06,-0.29 -1.37,-0.58 -0.36,-0.34 -0.53,-0.8 -0.53,-1.39 0,-1.27 0.92,-2.13 2.43,-2.13 0.95,0 1.63,0.24 2.25,0.82 l -0.71,0.7 c -0.44,-0.43 -0.97,-0.56 -1.58,-0.56 -0.85,0 -1.32,0.48 -1.32,1.13 0,0.26 0.08,0.5 0.27,0.67 0.19,0.16 0.48,0.29 0.82,0.34 l 0.82,0.12 c 0.68,0.11 1.06,0.26 1.36,0.54 0.4,0.35 0.59,0.87 0.59,1.49 0,1.34 -1.09,2.13 -2.61,2.13" />
  <path
     inkscape:connector-curvature="0"
     id="path42"
     d="m 92.899361,53.9 1.1,0 0,7.26 -1.1,0 z" />
  <path
     inkscape:connector-curvature="0"
     id="path44"
     d="m 100.01936,61.22 c -0.749999,0 -1.409999,-0.27 -1.909999,-0.77 -0.71,-0.72 -0.7,-1.52 -0.7,-2.92 0,-1.4 -0.01,-2.2 0.7,-2.92 0.5,-0.49 1.16,-0.77 1.909999,-0.77 1.33,0 2.33,0.78 2.59,2.23 l -1.12,0 c -0.18,-0.73 -0.67,-1.24 -1.47,-1.24 -0.429999,0 -0.819999,0.16 -1.069999,0.43 -0.36,0.4 -0.44,0.81 -0.44,2.27 0,1.46 0.08,1.88 0.44,2.27 0.25,0.27 0.64,0.43 1.069999,0.43 0.8,0 1.3,-0.51 1.48,-1.24 l 1.11,0 c -0.25,1.45 -1.28,2.23 -2.59,2.23" />
  <path
     inkscape:connector-curvature="0"
     id="path46"
     d="m 115.03936,61.16 0,-4.85 -1.67,3.54 -0.82,0 -1.71,-3.54 0,4.85 -1.1,0 0,-7.26 1.1,0 2.12,4.52 2.08,-4.52 1.1,0 0,7.26 z" />
  <path
     inkscape:connector-curvature="0"
     id="path48"
     d="m 124.76936,57.53 c 0,-1.4 0.02,-2.2 -0.69,-2.92 -0.51,-0.49 -1.14,-0.77 -1.92,-0.77 -0.78,0 -1.41,0.28 -1.91,0.77 -0.71,0.72 -0.7,1.52 -0.7,2.92 0,1.4 -0.01,2.2 0.7,2.92 0.5,0.5 1.13,0.77 1.91,0.77 0.78,0 1.41,-0.27 1.92,-0.77 0.71,-0.72 0.69,-1.52 0.69,-2.92 m -1.1,0 c 0,1.46 -0.08,1.86 -0.43,2.25 -0.26,0.28 -0.65,0.45 -1.08,0.45 -0.43,0 -0.83,-0.17 -1.08,-0.45 -0.36,-0.39 -0.43,-0.79 -0.43,-2.25 0,-1.46 0.07,-1.87 0.43,-2.25 0.25,-0.28 0.65,-0.45 1.08,-0.45 0.43,0 0.82,0.17 1.08,0.45 0.35,0.38 0.43,0.79 0.43,2.25" />
  <path
     inkscape:connector-curvature="0"
     id="path50"
     d="m 130.42936,61.16 -0.86,0 -2.39,-7.26 1.14,0 1.68,5.28 1.67,-5.28 1.16,0 z" />
  <path
     inkscape:connector-curvature="0"
     id="path52"
     d="m 135.60936,53.9 1.1,0 0,7.26 -1.1,0 z" />
  <path
     inkscape:connector-curvature="0"
     id="path54"
     d="m 140.38936,61.16 0,-7.26 4.64,0 0,0.99 -3.54,0 0,2.12 3.02,0 0,0.98 -3.02,0 0,2.18 3.54,0 0,0.99 z" />
  <path
     inkscape:connector-curvature="0"
     id="path56"
     d="m 150.24936,61.22 c -1.09,0 -1.88,-0.25 -2.57,-0.96 l 0.73,-0.72 c 0.54,0.53 1.12,0.69 1.86,0.69 0.95,0 1.5,-0.4 1.5,-1.11 0,-0.32 -0.09,-0.58 -0.28,-0.76 -0.19,-0.17 -0.37,-0.24 -0.8,-0.3 l -0.86,-0.12 c -0.59,-0.08 -1.06,-0.29 -1.37,-0.58 -0.36,-0.34 -0.53,-0.8 -0.53,-1.39 0,-1.27 0.91,-2.13 2.43,-2.13 0.95,0 1.62,0.24 2.25,0.82 l -0.71,0.7 c -0.45,-0.43 -0.97,-0.56 -1.58,-0.56 -0.85,0 -1.32,0.48 -1.32,1.13 0,0.26 0.08,0.5 0.27,0.67 0.19,0.16 0.48,0.29 0.82,0.34 l 0.83,0.12 c 0.67,0.11 1.04,0.26 1.35,0.54 0.39,0.35 0.59,0.87 0.59,1.49 0,1.34 -1.09,2.13 -2.61,2.13" />
</svg>
