<svg height="219.64" width="600" xmlns="http://www.w3.org/2000/svg" xmlns:xlink="http://www.w3.org/1999/xlink"><linearGradient id="a" gradientTransform="matrix(10.538625 86.296926 -86.296926 10.538625 113.27418 388.81711)" gradientUnits="userSpaceOnUse" x1="0" x2="1" y1="0" y2="0"><stop offset="0" stop-color="#fff"/><stop offset=".91327" stop-color="#b8bab8"/><stop offset="1" stop-color="#b8bab8"/></linearGradient><radialGradient id="b" cx="0" cy="0" gradientTransform="matrix(-.00001463 323.07386 -581.9203 -.0000256 172.56737 132.23975)" gradientUnits="userSpaceOnUse" r="1"><stop offset="0" stop-color="#28292b"/><stop offset="1" stop-color="#040606"/></radialGradient><g transform="translate(182.38667 -316.12541)"><path d="m197.21 535.76h220.41v-219.64h-220.41zm-379.59 0h363.67v-219.64h-363.67z" fill="url(#b)"/><path d="m233.01 450.62c0 3.9742.18286 9.0577.80459 13.666h88.26v49.25l33.476-10.362v-38.888h25.588v-29.014h-25.588v-90.503c-4.7787-.79239-11.118-.79239-15.104-.79239-59.417 0-107.44 43.533-107.44 106.64m89.065-73.851v58.503h-54.651c3.5475-29.721 26.307-53.09 54.651-58.503m-337.02 49.177c0 47.751 35.487 82.762 83.238 82.762 44.02 0 81.165-32.634 81.165-81.97v-9.5453h-73.607l-13.8 27.868h50.713c-5.949 18.944-21.419 31.866-43.947 31.866-28.538 0-48.775-21.017-48.775-50.262 0-29.501 19.286-50.884 46.556-50.884 16.384 0 28.209 8.314 34.621 17.542h41.875c-15.92-33.44-46.162-49.36-76.407-49.36-44.557 0-81.641 32.634-81.641 81.97m-135.61-79.581v29.002h53.261v133.34h33.39v-133.34h43.923l14.263-29.002h-144.84z" fill="url(#a)"/></g></svg>