<svg height="600" viewBox="0 0 158.75 158.75" width="600" xmlns="http://www.w3.org/2000/svg"><g transform="translate(-27.081 -50.275)"><path d="m185.83 96.85c0-11.92-4.54-23.84-13.64-32.933-18.19-18.191-47.68-18.187-65.87 0l-65.736 65.733.002.01c-18.051 18.19-18.007 47.58.136 65.73 18.14 18.14 47.533 18.18 65.728.13.04-.05 65.74-65.74 65.74-65.74 9.09-9.09 13.64-21.01 13.64-32.93z" fill="#ea1d2c"/><path d="m172.32 129.65c18.05-18.2 18.02-47.589-.13-65.731-18.14-18.148-47.53-18.19-65.73-.133.04.046 65.82 65.824 65.86 65.864" fill="#ac1e2d"/><path d="m40.591 129.65c-18.054 18.2-18.012 47.59.133 65.74 18.142 18.14 47.535 18.18 65.736.13-.05-.05-65.824-65.82-65.869-65.87" fill="#e98596"/><path d="m172.32 129.65c-.04-.04-65.73-65.731-65.73-65.731-18.187-18.191-47.68-18.191-65.867-.007-18.19 18.191-18.187 47.688 0 65.878l65.737 65.73c.04-.04 65.82-65.82 65.86-65.87" fill="#ea1d2c"/><path d="m172.19 195.38c18.14-18.14 18.19-47.53.13-65.73l-65.86 65.86c18.19 18.06 47.59 18.02 65.73-.13" fill="#e98596"/><g fill="#fff"><path d="m148.43 153.54-18.12 18.12c-.68.68-1.6 1.06-2.58 1.06-1 0-1.96-.4-2.65-1.09-.85-.84-1.19-1.82-1.06-2.99l2.9-21.96-10.8 10.79c-.69.69-1.6 1.07-2.58 1.07-.99 0-1.96-.4-2.66-1.1-1.43-1.44-1.43-3.77 0-5.21l18.12-18.12c.69-.68 1.65-1.08 2.64-1.08 1 0 1.96.41 2.7 1.15.71.71 1.09 1.85.95 2.9-.01.1-1.15 8.38-2.9 22.03l10.8-10.81c.7-.69 1.66-1.09 2.66-1.09.98 0 1.9.38 2.58 1.06.7.69 1.08 1.63 1.08 2.64 0 1-.38 1.94-1.08 2.63"/><path d="m152.59 189.71c0-1.01-.38-1.94-1.07-2.63l-9.54-9.54 3.62-3.63 4.77 4.77c.7.7 1.63 1.08 2.61 1.08s1.9-.38 2.6-1.08c.71-.7 1.09-1.64 1.1-2.63s-.37-1.92-1.07-2.61l-4.77-4.77 3.47-3.46 9.05 9.05c.7.7 1.64 1.09 2.64 1.09s1.93-.39 2.63-1.09c.7-.69 1.07-1.62 1.06-2.63-.01-.99-.4-1.92-1.09-2.61l-11.79-11.78c-.75-.75-1.73-1.16-2.78-1.16-1.02 0-1.99.39-2.72 1.12l-17.3 17.31c-.74.74-1.15 1.72-1.15 2.77 0 1.04.41 2.02 1.15 2.76l.02-.02c.26.31 12.25 12.3 12.25 12.3.7.7 1.67 1.1 2.66 1.1.97 0 1.89-.38 2.58-1.07s1.07-1.63 1.07-2.64"/><path d="m80.574 80.996-14.008-14.008c-.7-.697-1.617-1.086-2.59-1.083-.992 0-1.933.399-2.649 1.112-1.437 1.437-1.437 3.775-.004 5.208l4.167 4.166-15.061 15.062c-.74.739-1.151 1.712-1.161 2.743-.013 1.037.389 2.02 1.128 2.756.74.736 1.722 1.148 2.769 1.148 1.041 0 2.024-.412 2.763-1.148l15.064-15.061 4.342 4.345c.71.71 1.651 1.099 2.649 1.099.979 0 1.9-.38 2.588-1.067 1.456-1.456 1.456-3.82.003-5.272"/><path d="m102.35 102.19c-.74-.74-1.72-1.15-2.766-1.15-1.04 0-2.026.41-2.765 1.15l-5.966 5.97-8.223-8.225 5.969-5.969c1.524-1.524 1.54-3.992.032-5.5-.742-.739-1.721-1.147-2.765-1.147s-2.03.408-2.766 1.147l-17.827 17.824c-1.527 1.53-1.527 4.01 0 5.54.726.72 1.689 1.12 2.714 1.12 1.044 0 2.033-.4 2.782-1.16l6.618-6.61 8.222 8.22-6.617 6.62c-1.524 1.52-1.524 4 0 5.53.729.73 1.695 1.13 2.72 1.13 1.044 0 2.03-.41 2.782-1.16l17.826-17.83c1.53-1.53 1.54-3.99.03-5.5"/><path d="m115.53 116.88c-.45 0-.89.08-1.28.23l-26.436 9.84c-.499.16-.972.45-1.336.82-.693.69-1.079 1.62-1.083 2.61-.006 1.01.38 1.95 1.083 2.65.993 1 2.552 1.34 3.878.85l5.24-1.99 8.624 8.62-1.99 5.25c-.51 1.36-.19 2.84.84 3.87.68.68 1.6 1.06 2.56 1.06.98 0 1.91-.39 2.62-1.09.34-.34.63-.77.85-1.25l9.9-26.51c.48-1.37.14-2.87-.91-3.92-.67-.66-1.6-1.04-2.56-1.04zm-6.06 9.73-2.59 6.86-4.25-4.24z"/></g></g></svg>