<svg height="339.56" viewBox="0 0 158.75 89.841138" width="600" xmlns="http://www.w3.org/2000/svg"><g fill="#65256e" transform="translate(-28.35 -123.07)"><path d="m28.35 199.52c1.7928-.15726 1.8243.62907 1.8243 2.6421v10.348h3.4599v-8.744c0-2.4219 1.5098-3.9317 3.6486-3.9631 2.1388 0 3.1453 1.5412 3.1139 3.9002v8.8069h3.3655v-8.8069c0-2.3905 1.4154-3.9002 3.5228-3.9317 2.013 0 2.9566 1.5727 2.9252 3.8373v5.3156c0 3.4284 2.1388 4.2777 5.3471 3.5228v-2.1074c-1.8557.25162-1.8872-.59762-1.8872-1.8872v-4.8438c0-3.4913-1.1009-6.6367-5.2213-6.6367-2.1703-.0315-4.2148.88069-5.4414 2.9252-.78634-1.9186-2.5163-2.8308-4.5293-2.8623s-4.0575.8807-5.0325 2.7679c0-2.7364-2.7364-3.2082-5.0954-2.5163z"/><path d="m69.645 198.45c-1.9816-.88069-4.0575-1.4154-6.2278-1.4154-4.9382-.0944-8.5239 2.6735-8.6182 7.7061 0 4.2776 2.2332 7.9892 6.8568 7.9892 2.2332 0 4.372-1.1952 5.2213-3.3026v.62907c0 2.5163 2.2332 2.7679 4.4035 2.359v-2.3275c-1.667.15727-1.6356-.72343-1.6356-2.1074zm-3.3026 6.4479c-.09436 2.7994-1.4154 4.7809-3.9631 4.7809-2.7993 0-4.1518-2.1703-4.1518-4.9382.09435-3.2712 2.0445-4.9382 4.9382-4.9382.97505 0 2.1388.15727 3.1768.62906z"/><path d="m70.306 199.49c1.8557-.15726 1.7614.47181 1.7614 2.4848v10.537h3.4284v-8.8069c0-2.4534 1.6985-3.9317 3.8373-3.9317 2.0445 0 3.6171 1.4469 3.6171 3.8373v5.41c0 3.6171 2.2646 3.9946 5.1583 3.4284v-2.1703c-1.4783.15727-1.7614-.25163-1.7614-1.384v-5.41c.09436-3.7744-1.8872-6.4794-6.0076-6.4794-2.1388 0-4.0889.88069-5.064 2.7994 0-2.5163-2.5792-3.1139-5.0011-2.5163z"/><path d="m102.7 202.38c-.78633-3.6486-3.9631-5.4729-7.2343-5.4729-3.9946 0-8.0835 2.6735-8.0835 7.9577 0 5.2527 4.026 7.8948 7.9892 7.8948 3.3655 0 6.6367-1.8872 7.423-5.7245h-3.3026c-.69197 1.8872-2.4219 2.7994-4.1204 2.7679-2.2961-.0315-4.5922-1.6985-4.5922-4.9382s2.4219-4.8753 4.7495-4.9067c1.6356-.0315 3.2397.78633 3.9002 2.4219z"/><path d="m106.83 203.77c0-2.4848 1.7299-3.9946 3.9002-3.9946 2.1388 0 3.1453.97505 3.4913 2.9566.0944.66052.0629 1.4783.0629 5.756 0 3.0824 1.4154 4.6236 5.3156 3.9631l-.0315-2.359c-1.667.15727-1.8243-.4089-1.8243-1.8243v-3.7744c0-.75488-.0315-1.4154-.12581-2.1388-.34599-3.0195-2.4534-5.2527-5.6616-5.2527-2.013-.12581-4.026.72343-5.1269 2.3276v-9.8764h-3.4284v22.961h3.4284z"/><path d="m132.7 208.92c-1.3525.62907-3.2397 1.1323-5.0011 1.1323-3.334.0944-5.6931-1.6041-5.5987-4.7495 1.4154.84924 3.4284 1.3525 5.41 1.2581 2.8937-.0944 5.6931-1.4783 5.8503-4.4978.15727-3.743-3.4913-5.1898-6.7939-5.0954-4.026.0944-7.6117 2.6421-7.7061 7.5488-.25163 5.3471 3.2397 8.4295 8.6182 8.2722 1.8872-.0944 3.6486-.31454 5.3156-1.1638zm-10.348-5.9132c.50325-2.2646 2.1388-3.3026 4.2462-3.3341 1.5412 0 3.5542.56616 3.4599 2.359-.0944 1.5727-1.8243 2.1703-3.1768 2.1703-1.5727 0-3.397-.40889-4.5293-1.1952z"/><path d="m133.5 208.04c.25163 3.7744 3.5857 4.8438 6.9512 4.8438s6.6052-1.4469 6.6052-4.8124c0-3.5857-3.0824-4.1204-6.2592-4.5293-2.359-.28308-3.5857-.56616-3.6171-1.8243-.0944-1.3525 1.5412-2.1074 3.1139-2.1074 1.6041 0 3.4284.4718 3.4284 1.9816h3.0195c.0944-3.0195-2.9566-4.5607-6.4479-4.5607-3.3026 0-6.4479 1.5098-6.4479 4.7495.0944 3.4284 3.5857 3.7744 6.6996 4.1833 1.9816.25162 3.397.66052 3.397 2.0445-.0944 1.8557-1.9501 2.3276-3.6171 2.3276-1.6356 0-3.3655-.72344-3.4599-2.2961z"/><path d="m153.13 192.69h-3.0195l-.34599 4.6866h-3.0824v2.2332l3.0824.22017v6.8883c0 5.9447 4.0575 7.1399 9.2473 5.5358l-.34599-2.5792c-3.1139 1.1009-5.5358.84924-5.5358-3.0195v-6.8254h5.2527v-2.4534h-5.2527z"/><path d="m172.47 208.92c-1.3525.62907-3.2397 1.1323-5.0011 1.1323-3.334.0944-5.6931-1.6041-5.5987-4.7495 1.4154.84924 3.4284 1.3525 5.41 1.2581 2.8937-.0944 5.6931-1.4783 5.8503-4.4978.15727-3.743-3.4913-5.1898-6.7939-5.0954-4.026.0944-7.6117 2.6421-7.7061 7.5488-.25163 5.3471 3.2397 8.4295 8.6182 8.2722 1.8872-.0944 3.6486-.31454 5.3156-1.1638zm-10.348-5.9132c.50325-2.2646 2.1388-3.3026 4.2462-3.3341 1.5412 0 3.5542.56616 3.4599 2.359-.0944 1.5727-1.8243 2.1703-3.1768 2.1703-1.5727 0-3.397-.40889-4.5293-1.1952z"/><path d="m178.41 199.55c-.15727-2.4534-2.6106-2.8308-4.8438-2.3275l.0315 2.3275c1.6356-.0944 1.6356.59762 1.6356 1.9501v11.009h3.397v-8.7755c0-2.4534 1.8243-3.7744 3.8688-3.7744 1.1009 0 2.1074.31453 3.0195.91215l.84924-2.9566c-.97505-.72343-2.2332-1.1009-3.4913-1.0694-1.8558 0-3.8688.9436-4.4664 2.705z"/></g><path d="m128.12 56.14c.5718 8.5263 8.1059 10.948 15.707 10.948 7.6098 0 14.925-3.271 14.925-10.881 0-8.0975-6.9623-9.3083-14.143-10.233-5.3311-.63907-8.1059-1.2781-8.1732-4.1202-.21024-3.0607 3.4812-4.7593 7.038-4.7593 3.6241 0 7.7443 1.0595 7.7443 4.4734h6.8278c.21014-6.8194-6.6849-10.309-14.572-10.309-7.4668 0-14.572 3.4139-14.572 10.738.21023 7.7443 8.1059 8.5264 15.136 9.4513 4.4818.57178 7.6771 1.4967 7.6771 4.6247-.21024 4.1875-4.4061 5.2554-8.1732 5.2554-3.6914 0-7.6014-1.6313-7.82-5.1881zm-18.768-34.686h-6.8194l-.782 10.586h-6.9623v5.0536l6.9623.49609v15.564c0 13.437 9.1654 16.136 20.895 12.512l-.78198-5.8272c-7.038 2.4805-12.512 1.9172-12.512-6.8278v-15.421h11.873v-5.5497h-11.873zm-22.316 27.58c-.21025 6.3232-3.1953 10.805-8.9552 10.805-6.3233 0-9.384-4.9106-9.384-11.167.21864-7.3912 4.6247-11.158 11.158-11.158 2.2031 0 4.835.3616 7.181 1.4211zm7.4668-14.572c-4.4818-1.9928-9.1738-3.2037-14.076-3.2037-11.158-.21015-19.264 6.0458-19.474 17.414 0 9.6699 5.0452 18.053 15.497 18.053 5.0452 0 9.8801-2.6992 11.797-7.4584v1.4211c0 5.6842 5.0452 6.256 9.9474 5.331v-5.2638c-3.7671.36161-3.6914-1.6312-3.6914-4.7593zm-59.567 12.008c0-5.6086 3.91-9.0225 8.8122-9.0225 4.835 0 7.1137 2.2031 7.8957 6.6849.21021 1.4883.13452 3.3382.13452 13 0 6.9707 3.2037 10.452 12.016 8.9552l-.06727-5.3311c-3.7671.36161-4.1286-.91651-4.1286-4.1202v-8.5263c0-1.7069-.06727-3.2037-.27748-4.8349-.782-6.8194-5.5497-11.873-12.798-11.873-4.5491-.27754-9.0981 1.6397-11.587 5.2638v-22.316h-7.7443v51.881h7.743zm-20.323-25.02h-6.8278l-.78199 10.586h-6.9623v5.0536l6.9623.49609v15.564c0 13.437 9.1738 16.136 20.895 12.512l-.782-5.8272c-7.0296 2.4805-12.504 1.9172-12.504-6.8278v-15.421h11.865v-5.5497h-11.864z" fill="#ca3493"/><path d="m156.92094 10.42689c-.13456-.35315-.45405-.80723-.49611-1.1688-.084-.0591-.12609-.143-.13456-.244-.0589-.0671-.0589-.0421-.0757-.13455-.0673-.0671-.059-.0505-.084-.13454-.0757-.0671-.1092-.11762-.13457-.2186-.084-.0675-.10091-.15149-.19337-.21861-.017-.0756-.0673-.143-.13455-.1935-.0421-.18505-.44567-.68949-.62223-.78198-.017-.0926-.13456-.19352-.21864-.2437-.0505-.23555-.52975-.56338-.70632-.73996-.23546-.2186-.49611-.43726-.73156-.6727-.10091-.0243-.2943-.20167-.37839-.27756-.12611-.0926-.2943-.20168-.38679-.31953-.0673-.0182-.14295-.0675-.18499-.13456-.0757-.0182-.14294-.0675-.19338-.143-.28587-.0505-.46248-.37836-.75678-.46246-.0673-.0675-.11773-.10942-.21862-.13454-.0673-.059-.0421-.059-.13454-.0756-.0673-.0671-.0505-.059-.13457-.084-.0673-.0675-.0505-.059-.14293-.084-.0338-.0675-.10091-.10944-.18499-.10944-.0338-.0671-.10919-.1092-.19338-.1092-.0588-.10102-.23545-.17657-.35316-.18503-.13455-.21861-.65587-.3784-.89131-.4877-.31953-.15147-.63065-.30271-.95017-.43728-.7568-.31952-1.5304-.60539-2.3124-.86607-3.6241-1.2108-7.4248-1.6649-11.242-1.7406h-.26908c0-.14301-4.9443.34474-5.7262.46248-.77361.11761-1.5472.25217-2.3124.43723-1.0763.25218-2.1526.51292-3.2037.8661-.78201.26062-1.5472.54656-2.304.86608-.31952.13456-.63906.28574-.95016.43725-.26066.11762-.58862.3784-.8745.40361-.059.10102-.22704.18504-.35317.19351-.0336.0756-.10091.10943-.18499.10943-.0338.0756-.10931.10921-.19338.10921-.059.059-.0421.059-.13454.084-.0336.0675-.10102.10944-.18498.10102-.0673.0756-.11774.10943-.21862.14301-.0673.0671-.11771.10955-.21865.13456-.15975.23552-.53815.26062-.70633.51291-.0757.0182-.14296.0675-.19338.13455-.24385.0591-.61384.42882-.81563.62224-.10091.0243-.31112.22707-.3784.32792-.20179.0421-.44564.39523-.59701.54659-.15976.15963-.34474.3952-.53815.5129-.0336.15965-.31952.40362-.43724.54658-.13455.15963-.27748.3952-.43726.51291-.017.0756-.0673.14301-.13453.1935-.0252.13454-.15137.20167-.1934.35314-.0673.0591-.10931.10919-.13455.21015-.0589.0671-.0589.0505-.0757.14301-.0925.0505-.12612.14301-.13455.244-.28591.17658-.46248.8829-.57179 1.194-.32794.87452-.54658 1.8583-.46249 2.7917.0841.96699.20181 1.8415.53817 2.7496.13454.33634.45407.75679.49611 1.1099.084.0505.11769.14301.13455.2437.059.0675.059.0421.0757.13453.0926.0591.16818.18506.1934.3027.0673.0421.0673.084.13455.13454.0421.22707.38679.5718.57177.75679.0252.14303.22705.26911.32794.37838.10932.13454.20181.28603.35316.3868.0336.18503.39521.42042.53816.56338.16816.16811.46247.31113.57177.52135.14297.0243.31114.25216.43725.35315.16818.12608.40362.22707.53815.40361.0757.0182.14296.0671.1934.13455.31952.0591.51293.43723.84084.52131.059.0675.10932.10919.21864.13456.0673.059.0421.059.13456.0756.0673.0671.0421.0591.13454.084.0673.0675.0421.059.13455.084.0421.0756.10932.10921.1934.10921.059.0926.18497.15147.2943.15964.0673.10101.23545.17658.35317.19351.13454.20167.597.32793.81562.42882.26909.13454.53815.26909.81564.38681.65587.26908 1.3118.52131 1.9844.75676.8661.31111 1.7406.56337 2.6319.7904.55498.13455 1.1184.26911 1.6817.3784.35317.0675.70633.13455 1.0595.19351.31954.0505.84087.0243 1.1184.18504-.15136.53818-.40362 1.0679-.63066 1.5724-.16816.3784-.55496.87449-.597 1.2781-.0673.0337-.10932.1092-.10932.19351-.0673.0336-.10931.10102-.10931.18504-.059.0671-.059.0505-.0757.13456-.0673.0675-.059.0505-.0841.14301-.0757.0591-.1092.10919-.13456.21014-.14295.0926-.15135.28572-.3027.38677-.0336.15964-.23544.36998-.35316.51294-.1092.14302-.22705.30271-.35317.43723-.23544.25217-.5718.46248-.75677.7568-.10931.0243-.32794.23553-.40363.32793-.0757.0182-.14294.0671-.19337.13455-.0673.0182-.12612.0505-.15976.10953h.24385c.007.20166 2.8842-.61384 3.2793-.75679.30272-.11763.5886-.2437.8745-.38677.20181-.10102.47929-.30273.70632-.31952.0505-.0926.14295-.1261.24386-.14302.0337-.0671.10091-.10944.18498-.10944.0673-.059.0505-.0505.13455-.0756.0673-.0671.0505-.0591.14294-.084.059-.059.0421-.059.13455-.084.0673-.10101.25226-.21013.3784-.24399.12614-.18502.40362-.20167.54655-.40362.0673-.0182.14296-.0671.18499-.13453.21021-.0421.43725-.31953.62222-.46248.21022-.15965.43725-.30272.63066-.48771.25224-.0505.61382-.51293.81563-.68111.22704-.20166.56339-.41202.73153-.68108.22706-.0421.60543-.55498.78203-.73156.0673-.059.12613-.1681.19338-.2186.34474-.23551.9838-.13453 1.4126-.15963.82405-.059 1.6481-.13456 2.4721-.2437 1.6985-.22708 3.3718-.58019 5.0199-1.0343 1.0174-.27756 2.0097-.64746 2.9851-1.0343.41201-.15148.79882-.33634 1.194-.51291.31111-.13454.73155-.45408 1.0595-.48769.0673-.10102.23544-.17658.35317-.19352.059-.084.14294-.12608.24384-.13455.0421-.0756.1092-.10943.19338-.10943.0673-.059.0421-.059.13454-.0756.0673-.0675.0421-.059.13455-.084.0673-.0671.0505-.0591.13455-.084.0673-.059.0505-.059.14296-.0756.059-.0756.1092-.1092.21022-.14301.17658-.26062.59702-.28603.7904-.56338.15137-.0336.35317-.23553.48771-.32794.13455-.0926.28591-.23552.41203-.35318.14295-.0336.47929-.34473.56338-.4877.12611-.0243.33634-.26908.41202-.37838.15975-.0336.35315-.31954.46246-.43725.13455-.14301.26068-.36156.42885-.46248.0252-.1092.19339-.25214.27748-.35316.10091-.13452.19337-.3027.31952-.40358.0337-.17658.22703-.26912.27747-.46249.0757-.0675.10931-.11763.13454-.2186.059-.0671.059-.0421.0841-.13456.059-.0671.059-.0505.0757-.13455.26064-.16811.45405-.83242.57179-1.1183.29418-.72315.47929-1.5052.54655-2.2787.0926-1.1099-.10101-2.2956-.48772-3.3382" fill="#ca3493"/><path d="m144.71995 8.7201308-4.9022 11.4780002h-.79884l-4.9442-11.4780002v-.2860299h2.0601l1.6733 4.0362001 1.5976 4.3136h.0505l1.5304-4.2295 1.6817-4.1202001h2.0517zm-18.112 7.1305012v-5.053601l-2.2619-.16811v-1.6397003h2.2619l.26067-3.4390998h2.2114v3.4390998h3.8596v1.8079003h-3.8596v5.011501c0 2.833699 1.7826 3.018699 4.0698 2.211499l.25227 1.891901c-3.8091 1.1856-6.7942.302719-6.7942-4.061401" fill="#fff"/></svg>