<?xml version="1.0" encoding="UTF-8" standalone="no"?>
<svg
   xmlns:dc="http://purl.org/dc/elements/1.1/"
   xmlns:cc="http://creativecommons.org/ns#"
   xmlns:rdf="http://www.w3.org/1999/02/22-rdf-syntax-ns#"
   xmlns:svg="http://www.w3.org/2000/svg"
   xmlns="http://www.w3.org/2000/svg"
   xmlns:sodipodi="http://sodipodi.sourceforge.net/DTD/sodipodi-0.dtd"
   xmlns:inkscape="http://www.inkscape.org/namespaces/inkscape"
   width="479.88489pt"
   height="291.6597pt"
   viewBox="0 0 479.88488 291.6597"
   version="1.1"
   id="svg26"
   sodipodi:docname="Thats Thames Valley - Dark.svg"
   inkscape:version="0.92.0 r15299">
  <metadata
     id="metadata32">
    <rdf:RDF>
      <cc:Work
         rdf:about="">
        <dc:format>image/svg+xml</dc:format>
        <dc:type
           rdf:resource="http://purl.org/dc/dcmitype/StillImage" />
        <dc:title></dc:title>
      </cc:Work>
    </rdf:RDF>
  </metadata>
  <defs
     id="defs30" />
  <sodipodi:namedview
     pagecolor="#ffffff"
     bordercolor="#666666"
     borderopacity="1"
     objecttolerance="10"
     gridtolerance="10"
     guidetolerance="10"
     inkscape:pageopacity="0"
     inkscape:pageshadow="2"
     inkscape:window-width="1920"
     inkscape:window-height="1017"
     id="namedview28"
     showgrid="false"
     fit-margin-top="0"
     fit-margin-left="0"
     fit-margin-right="0"
     fit-margin-bottom="0"
     inkscape:zoom="0.70710678"
     inkscape:cx="568.46861"
     inkscape:cy="57.743143"
     inkscape:window-x="-8"
     inkscape:window-y="-8"
     inkscape:window-maximized="1"
     inkscape:current-layer="svg26" />
  <g
     id="g4735"
     transform="matrix(0.90428086,0,0,0.90428086,0,206.92769)">
    <path
       sodipodi:nodetypes="ccccccccccccc"
       d="m 300.05369,23.474146 c 5.06057,-0.622838 12.4438,-1.686855 14.9092,4.139282 2.89361,8.966284 -0.68772,18.814922 2.14101,27.807156 2.93253,7.928218 15.90834,8.551057 19.32098,0.713669 4.11332,-10.445525 0.84343,-22.006969 -2.58219,-32.180003 3.5424,0.01298 7.09776,0.01298 10.65314,-0.03893 1.44031,4.878904 2.8417,9.757808 3.90572,14.727542 1.20466,7.82381 0.87072,9.603811 -0.0389,15.493114 -1.20675,6.864202 -5.99482,13.287227 -12.96284,14.987058 -9.35555,2.348621 -21.43603,1.258653 -27.0805,-7.603823 -5.37199,-8.784622 -1.68686,-19.463711 -3.39966,-29.039858 -0.63582,-1.972322 -3.25693,-1.66106 -4.76212,-2.439609 -0.0389,-2.192911 -0.0779,-4.385564 -0.10381,-6.565499"
       id="path23"
       inkscape:connector-curvature="0"
       style="opacity:1;fill:#65256e;fill-opacity:1;stroke-width:1.29758084" />
    <path
       inkscape:connector-curvature="0"
       id="path22"
       d="M 19.496011,9.6439406 H 10.366167 L 9.3200251,23.814473 H 0 v 6.752361 l 9.3200251,0.665711 v 20.827654 c 0,17.974563 12.2683699,21.588399 27.9603849,16.738201 L 36.234269,60.999853 C 26.818993,64.328569 19.496071,63.567637 19.496071,51.870008 V 31.232545 H 35.378277 V 23.814383 H 19.496071 Z"
       style="fill:#65256e;fill-opacity:1;stroke-width:3.0236268" />
    <path
       inkscape:connector-curvature="0"
       id="path16"
       d="m 47.654021,43.14561 c 0,-7.513102 5.230568,-12.078179 11.792749,-12.078179 6.46693,0 9.510215,2.948195 10.556387,8.939654 0.285431,1.997174 0.19019,4.469828 0.19019,17.403998 0,9.320023 4.279637,13.980041 16.072386,11.982938 l -0.0952,-7.13274 c -5.040388,0.475531 -5.515999,-1.236352 -5.515999,-5.515999 V 45.332904 c 0,-2.282474 -0.0952,-4.279637 -0.38041,-6.466931 -1.046142,-9.129844 -7.418162,-15.882205 -17.118558,-15.882205 -6.08657,-0.380401 -12.17313,2.187383 -15.501835,7.037791 V 0.15901125 H 37.287484 V 69.584511 h 10.366207 z"
       style="fill:#65256e;fill-opacity:1;stroke-width:3.0236268" />
    <path
       inkscape:connector-curvature="0"
       id="path8-8"
       d="m 128.11988,30.295513 c 5.42075,-0.475491 5.516,1.902073 5.516,7.988723 v 31.288485 h 10.46144 V 43.134133 c 0,-7.322921 4.56507,-11.887989 11.03201,-11.982929 6.46693,0 9.51022,4.660008 9.41527,11.792749 v 26.628768 h 10.17601 V 42.943953 c 0,-7.227982 4.27965,-11.792749 10.65164,-11.887999 6.08656,0 8.93965,4.755258 8.84471,11.602569 v 16.072386 c 0,10.366201 6.46693,12.934165 16.16764,10.651632 v -6.371986 c -5.61094,0.760802 -5.70619,-1.806982 -5.70619,-5.706189 V 42.658523 c 0,-10.556397 -3.32871,-20.066913 -15.78726,-20.066913 -6.56219,-0.0952 -12.74399,2.662884 -16.45277,8.844714 -2.3776,-5.801129 -7.60835,-8.559283 -13.69491,-8.654524 -6.08656,-0.0952 -12.26836,2.662905 -15.21641,8.369094 0,-8.273853 -8.27385,-9.700396 -15.40658,-7.608352 z"
       style="fill:#65256e;fill-opacity:1;stroke-width:3.0236268" />
    <path
       inkscape:connector-curvature="0"
       id="path10-0"
       d="m 127.30566,27.060242 c -5.99161,-2.662874 -12.26836,-4.279637 -18.83054,-4.279637 -14.931268,-0.28543 -25.773095,8.083664 -26.058216,23.300368 0,12.933871 6.752361,24.156369 20.732396,24.156369 6.75236,0 13.21929,-3.613846 15.78726,-9.985836 v 1.902073 c 0,7.608352 6.75236,8.369104 13.31454,7.132742 v -7.037492 c -5.04038,0.475521 -4.94544,-2.187383 -4.94544,-6.372 z m -9.98583,19.496052 c -0.28531,8.464344 -4.27965,14.455653 -11.98294,14.455653 -8.464033,0 -12.553489,-6.56217 -12.553489,-14.931274 0.28529,-9.890886 6.181806,-14.931274 14.931269,-14.931274 2.94819,0 6.46693,0.475531 9.60547,1.902043 z"
       style="fill:#65256e;fill-opacity:1;stroke-width:3.0236268" />
    <path
       inkscape:connector-curvature="0"
       id="path18"
       d="m 247.8124,58.717482 c -4.08946,1.902073 -9.79566,3.423645 -15.12147,3.423645 -10.08077,0.28544 -17.21381,-4.850198 -16.92837,-14.360713 4.27964,2.567784 10.3662,4.089456 16.35781,3.804026 8.74947,-0.28543 17.21381,-4.469827 17.68912,-13.599672 0.47553,-11.317428 -10.55638,-15.692015 -20.54221,-15.406585 -12.17312,0.285431 -23.01495,7.988723 -23.30037,22.824757 -0.76084,16.167636 9.79565,25.487663 26.05822,25.012042 5.70619,-0.28543 11.032,-0.951051 16.07239,-3.518895 z M 216.52391,40.838173 c 1.52163,-6.847311 6.46692,-9.985836 12.83892,-10.081077 4.66001,0 10.74657,1.711853 10.46145,7.132732 -0.28543,4.755258 -5.51601,6.56218 -9.60547,6.56218 -4.75525,0 -10.27125,-1.236332 -13.6949,-3.613835 z"
       style="fill:#65256e;fill-opacity:1;stroke-width:3.0236268" />
    <path
       inkscape:connector-curvature="0"
       id="path20"
       d="m 248.79228,56.056499 c 0.76083,11.412379 10.84182,14.645844 21.01784,14.645844 10.17601,0 19.97166,-4.374887 19.97166,-14.550904 0,-10.841817 -9.32004,-12.45855 -18.92549,-13.694912 -7.13273,-0.855921 -10.84182,-1.711853 -10.93676,-5.515999 -0.28543,-4.089456 4.66001,-6.37199 9.41527,-6.37199 4.8502,0 10.3662,1.426542 10.3662,5.99162 h 9.12985 c 0.28543,-9.129845 -8.93966,-13.789863 -19.49605,-13.789863 -9.98583,0 -19.49605,4.565078 -19.49605,14.360724 0.28543,10.366196 10.84182,11.412378 20.2571,12.64874 5.99162,0.760801 10.27125,1.997163 10.27125,6.1818 -0.28543,5.610949 -5.89637,7.037791 -10.93676,7.037791 -4.94543,0 -10.17601,-2.187413 -10.46144,-6.942551 z"
       style="fill:#65256e;fill-opacity:1;stroke-width:3.0236268" />
    <path
       sodipodi:nodetypes="csccscc"
       inkscape:connector-curvature="0"
       id="path8"
       d="m 398.28488,0 v 53.258783 c 0,15.311676 7.4844,18.925752 23.77388,16.643079 l -0.44024,-7.988687 c -9.13528,1.236352 -11.44685,-1.141262 -11.44685,-8.749492 V 0.001567 Z"
       style="fill:#65256e;fill-opacity:1;stroke-width:2.81063437" />
    <path
       sodipodi:nodetypes="csccscc"
       inkscape:connector-curvature="0"
       id="path8-7"
       d="m 420.71038,0 v 53.258783 c 0,15.311676 7.48438,18.925752 23.77387,16.643079 l -0.44024,-7.98869 c -9.13529,1.236356 -11.44685,-1.141256 -11.44685,-8.749489 V 0.001567 Z"
       style="fill:#65256e;fill-opacity:1;stroke-width:2.81063437" />
    <path
       inkscape:connector-curvature="0"
       id="path18-6"
       d="m 481.69349,58.717481 c -4.08946,1.902072 -9.79566,3.423645 -15.12148,3.423645 -10.08076,0.285439 -17.21381,-4.850199 -16.92836,-14.360713 4.27963,2.567784 10.36619,4.089455 16.35781,3.804026 8.74947,-0.28543 17.21381,-4.469828 17.68912,-13.599672 0.47553,-11.317428 -10.55639,-15.692015 -20.54221,-15.406585 -12.17312,0.285431 -23.01495,7.988722 -23.30037,22.824757 -0.76084,16.167635 9.79565,25.487664 26.05822,25.012043 5.70619,-0.28543 11.032,-0.951051 16.07239,-3.518895 z M 450.405,40.838172 c 1.52163,-6.847311 6.46692,-9.985836 12.83892,-10.081077 4.66,0 10.74656,1.711853 10.46144,7.132732 -0.28543,4.755257 -5.516,6.56218 -9.60546,6.56218 -4.75525,0 -10.27126,-1.236332 -13.6949,-3.613835 z"
       style="fill:#65256e;fill-opacity:1;stroke-width:3.0236268" />
    <path
       inkscape:connector-curvature="0"
       id="path10-0-2"
       d="m 394.32794,27.060242 c -5.99161,-2.662874 -12.26836,-4.279637 -18.83054,-4.279637 -14.93127,-0.28543 -25.7731,8.083663 -26.05822,23.300366 0,12.933871 6.75236,24.156371 20.7324,24.156371 6.75236,0 13.21929,-3.613846 15.78727,-9.985838 v 1.902073 c 0,7.608354 6.75236,8.369106 13.31454,7.132744 v -7.037494 c -5.04039,0.475521 -4.94545,-2.187383 -4.94545,-6.372 z m -9.98582,19.49605 c -0.28531,8.464344 -4.27965,14.455653 -11.98294,14.455653 -8.46405,0 -12.5535,-6.562169 -12.5535,-14.931273 0.28529,-9.890886 6.18181,-14.931273 14.93128,-14.931273 2.94818,0 6.46693,0.47553 9.60547,1.902042 z"
       style="fill:#65256e;fill-opacity:1;stroke-width:3.0236268" />
    <path
       inkscape:connector-curvature="0"
       id="path23-8"
       d="m 488.48127,22.973295 c -2.16913,-0.02897 -4.39378,0.267412 -6.2915,0.500977 0.0259,2.179941 0.0651,4.372512 0.104,6.565429 1.50519,0.778551 4.12639,0.466637 4.76221,2.438966 0.47911,2.6787 0.53117,5.445259 0.48193,8.230956 h -0.001 c -0.002,0.222474 -0.005,0.445374 -0.007,0.667969 -0.0649,5.935903 -0.34847,11.907053 1.69337,17.569335 4.1004,12.612569 24.27766,15.195331 31.37548,4.062012 0.0389,6.552823 0.89558,14.896733 -5.29394,19.152833 -7.9802,4.814063 -17.69956,1.647285 -25.65381,-1.596682 -0.18166,2.802787 -0.32517,5.605207 -0.50683,8.39502 9.64111,4.80108 21.94257,7.098495 31.6875,1.324222 7.03294,-4.08741 9.91386,-12.61221 9.81005,-20.384768 0.0389,-15.558104 -0.0253,-31.129606 0.0395,-46.700683 -3.62028,-0.01298 -7.21494,0.06487 -10.82226,0.09082 -0.57094,10.744044 2.06284,22.266494 -2.4917,32.387695 -3.23101,7.655784 -16.12894,6.670403 -18.20508,-1.322754 -1.53512,-5.495863 -0.88107,-11.230191 -0.86279,-16.898437 l 0.0102,-0.0044 c 0.001,-0.149429 -0.006,-0.297489 -0.006,-0.446777 -2.7e-4,-0.08555 -0.002,-0.170837 -0.003,-0.256348 -0.006,-3.099443 -0.24299,-6.165691 -1.20117,-9.134766 -1.54087,-3.641345 -5.00245,-4.592345 -8.61768,-4.640625 z"
       style="opacity:1;fill:#65256e;fill-opacity:1;stroke-width:1.29758263" />
  </g>
  <g
     id="g4721"
     transform="translate(-18.859599,236.89447)">
    <path
       d="m 406.12297,-67.146396 c 1.72891,25.78031 24.50917,33.10261 47.49203,33.10261 23.00916,0 45.12756,-9.89026 45.12756,-32.90003 0,-24.48378 -21.05137,-28.14478 -42.76309,-30.94072 -16.11923,-1.9323 -24.50918,-3.864494 -24.71267,-12.457934 -0.63568,-9.2544 10.52584,-14.39033 21.28025,-14.39033 10.95791,0 23.41584,3.20353 23.41584,13.52588 h 20.64469 c 0.63538,-20.61929 -20.21261,-31.17052 -44.06022,-31.17052 -22.57678,0 -44.06023,10.32234 -44.06023,32.46765 0.63567,23.415844 24.50919,25.780614 45.76555,28.577164 13.55127,1.72885 23.21265,4.52546 23.21265,13.98335 -0.63569,12.66141 -13.32239,15.89034 -24.71267,15.89034 -11.1614,0 -22.98376,-4.93244 -23.64472,-15.68685 z M 349.37563,-172.02375 h -20.61929 l -2.36448,32.00807 H 305.3405 v 15.28017 l 21.05136,1.49998 v 47.059664 c 0,40.62841 27.71271,48.78917 63.17859,37.83155 l -2.36441,-17.61924 c -21.28025,7.50009 -37.83156,5.79688 -37.83156,-20.64469 v -46.627284 h 35.89946 v -16.78018 h -35.89946 z m -67.47515,83.391494 c -0.63572,19.11897 -9.66138,32.67024 -27.07714,32.67024 -19.11927,0 -28.37367,-14.8478 -28.37367,-33.76479 0.66109,-22.348194 13.98334,-33.737574 33.73757,-33.737574 6.66134,0 14.61922,1.09334 21.71264,4.29687 z m 22.57678,-44.060224 c -13.55127,-6.02547 -27.7381,-9.68677 -42.5605,-9.68677 -33.73758,-0.63541 -58.24706,18.28021 -58.88202,52.653354 0,29.23812 15.25478,54.58545 46.85707,54.58545 15.25478,0 29.87369,-8.16137 35.66967,-22.55138 v 4.29687 c 0,17.18687 15.25478,18.91578 30.07718,16.11892 v -15.91574 c -11.39029,1.09337 -11.1614,-4.93213 -11.1614,-14.39033 z m -180.1081,36.307664 c 0,-16.958294 11.82237,-27.280644 26.64477,-27.280644 14.61921,0 21.50913,6.66135 23.87361,20.21262 0.63559,4.500064 0.40674,10.093454 0.40674,39.307084 0,21.07677 9.68677,31.6029 36.33184,27.07714 l -0.2034,-16.11923 c -11.39029,1.09337 -12.48333,-2.77118 -12.48333,-12.45793 v -25.7803 c 0,-5.16102 -0.2034,-9.686794 -0.83899,-14.618914 -2.36448,-20.6193 -16.7802,-35.89946 -38.69631,-35.89946 -13.75476,-0.83918 -27.50922,4.95783 -35.03472,15.91573 v -67.47514 h -23.41583 v 156.868534 h 23.4119 z M 62.920092,-172.03584 H 42.275405 l -2.364442,32.00806 H 18.859599 v 15.28017 l 21.051364,1.49999 v 47.059654 c 0,40.62841 27.738104,48.78917 63.178587,37.83156 l -2.36447,-17.61925 c -21.254861,7.5001 -37.807377,5.79689 -37.807377,-20.64468 v -46.627284 h 35.875276 v -16.78019 H 62.920727 Z"
       id="path28"
       inkscape:connector-curvature="0"
       style="fill:#ca3493;stroke-width:3.02362204" />
    <path
       sodipodi:nodetypes="cccccccccccccccccccccccccccccccccccccccccccccccccccccccccccccccccccccccccccccccccccccccccccccccccccccccccccccccccccccccccccccccccccccccccccccccccccc"
       d="m 493.20613,-205.36556 c -0.40686,-1.06779 -1.37289,-2.44076 -1.50006,-3.53401 -0.25398,-0.1787 -0.38124,-0.43238 -0.40686,-0.73777 -0.17808,-0.20288 -0.17808,-0.12729 -0.22888,-0.40682 -0.20349,-0.20289 -0.1784,-0.1527 -0.25399,-0.4068 -0.22888,-0.20289 -0.33018,-0.35564 -0.40689,-0.66097 -0.25398,-0.20409 -0.30511,-0.45804 -0.58468,-0.66099 -0.0514,-0.22859 -0.20349,-0.43238 -0.40682,-0.58507 -0.1273,-0.55952 -1.34754,-2.08476 -1.88139,-2.36441 -0.0514,-0.27999 -0.40686,-0.58513 -0.66109,-0.73686 -0.15269,-0.71221 -1.60176,-1.70345 -2.13564,-2.23736 -0.71194,-0.66096 -1.50005,-1.32211 -2.21196,-2.03399 -0.30511,-0.0735 -0.88986,-0.60977 -1.14411,-0.83924 -0.38131,-0.27998 -0.88985,-0.6098 -1.16951,-0.96613 -0.20349,-0.055 -0.43222,-0.2041 -0.55933,-0.40686 -0.2289,-0.055 -0.43221,-0.2041 -0.58471,-0.43238 -0.86437,-0.15269 -1.39837,-1.14402 -2.28822,-1.3983 -0.20349,-0.2041 -0.35597,-0.33085 -0.66103,-0.4068 -0.20348,-0.1784 -0.12729,-0.1784 -0.40679,-0.22859 -0.20349,-0.20288 -0.15269,-0.17839 -0.40689,-0.25398 -0.20349,-0.2041 -0.15269,-0.1784 -0.43217,-0.25399 -0.1022,-0.20409 -0.30511,-0.3309 -0.55934,-0.3309 -0.10219,-0.20289 -0.33015,-0.33018 -0.58471,-0.33018 -0.17778,-0.30545 -0.71191,-0.53388 -1.06782,-0.55946 -0.40683,-0.661 -1.9831,-1.14414 -2.69499,-1.47462 -0.96613,-0.45799 -1.90684,-0.91528 -2.87295,-1.32217 -2.28828,-0.96611 -4.62735,-1.83047 -6.99182,-2.61867 -10.95791,-3.661 -22.44979,-5.03403 -33.99156,-5.26292 h -0.8136 c 0,-0.43241 -14.94969,1.04237 -17.31386,1.39837 -2.33911,0.35561 -4.67815,0.76246 -6.99182,1.32202 -3.25433,0.76249 -6.50865,1.55087 -9.68678,2.61875 -2.36451,0.78802 -4.67815,1.6526 -6.96642,2.6187 -0.96612,0.40686 -1.93228,0.86397 -2.87293,1.32208 -0.78814,0.35564 -1.77977,1.14414 -2.64416,1.22037 -0.17839,0.30544 -0.68648,0.55949 -1.06785,0.5851 -0.1016,0.22858 -0.30512,0.33087 -0.55934,0.33087 -0.1022,0.22859 -0.33052,0.33021 -0.58471,0.33021 -0.17839,0.1784 -0.12729,0.1784 -0.4068,0.25399 -0.10159,0.20409 -0.30544,0.3309 -0.55931,0.30544 -0.20349,0.22859 -0.356,0.33088 -0.66102,0.43241 -0.20349,0.20289 -0.35591,0.33124 -0.66112,0.40686 -0.48302,0.71212 -1.62716,0.78802 -2.13567,1.55085 -0.22889,0.055 -0.43226,0.20409 -0.58471,0.40682 -0.73731,0.1787 -1.85602,1.29659 -2.46616,1.88142 -0.30511,0.0735 -0.94071,0.68658 -1.14413,0.99151 -0.61014,0.12729 -1.34745,1.19502 -1.80514,1.65268 -0.48305,0.48266 -1.04236,1.19494 -1.62716,1.55082 -0.1016,0.48272 -0.96611,1.22039 -1.32205,1.65265 -0.40683,0.48266 -0.83899,1.19493 -1.32211,1.55084 -0.0514,0.22859 -0.20349,0.43241 -0.40677,0.58507 -0.0762,0.4068 -0.45768,0.60978 -0.58476,1.06777 -0.20349,0.17869 -0.33051,0.33014 -0.40683,0.63541 -0.17809,0.20289 -0.17809,0.15269 -0.22889,0.43241 -0.27969,0.15269 -0.38134,0.43241 -0.40683,0.73776 -0.86448,0.53391 -1.39837,2.66956 -1.72888,3.61021 -0.99156,2.64421 -1.65264,5.61879 -1.39839,8.44104 0.25428,2.92381 0.6102,5.568 1.62722,8.31375 0.4068,1.01697 1.37294,2.28825 1.50005,3.35592 0.25399,0.15269 0.35585,0.43241 0.40683,0.73686 0.1784,0.20409 0.1784,0.12729 0.22889,0.40677 0.27999,0.17869 0.50851,0.55955 0.58476,0.91525 0.20349,0.12729 0.20349,0.25398 0.40683,0.40679 0.1273,0.68658 1.16951,1.72891 1.72882,2.28825 0.0762,0.43247 0.68651,0.81369 0.99157,1.14408 0.33054,0.4068 0.6102,0.86485 1.06782,1.16954 0.10159,0.55946 1.19497,1.27119 1.62719,1.70344 0.50846,0.50831 1.39834,0.94074 1.72882,1.57637 0.43228,0.0735 0.94077,0.76244 1.32208,1.06779 0.50851,0.38122 1.22039,0.68658 1.62716,1.22037 0.22889,0.055 0.43225,0.20288 0.58477,0.40683 0.96611,0.17869 1.55091,1.32201 2.54238,1.57624 0.17839,0.20409 0.33054,0.33015 0.66108,0.40686 0.20349,0.17839 0.1273,0.17839 0.40686,0.22858 0.20349,0.20289 0.1273,0.1787 0.4068,0.25399 0.20349,0.20409 0.12729,0.17839 0.40683,0.25398 0.12729,0.22859 0.33054,0.33021 0.58477,0.33021 0.1784,0.27999 0.55928,0.45799 0.88985,0.48269 0.20349,0.30542 0.71191,0.53391 1.06785,0.5851 0.4068,0.60978 1.8051,0.99154 2.46613,1.29659 0.81362,0.4068 1.62716,0.81363 2.46619,1.16957 1.9831,0.8136 3.96639,1.57625 6.00007,2.28816 2.61876,0.94068 5.26292,1.70341 7.95787,2.38987 1.67805,0.40682 3.38162,0.81368 5.08483,1.14413 1.06785,0.2041 2.13568,0.40683 3.20353,0.58511 0.96617,0.15269 2.54247,0.0735 3.38162,0.55949 -0.45766,1.62725 -1.2204,3.22892 -1.90688,4.75434 -0.50845,1.14414 -1.67799,2.64413 -1.8051,3.8645 -0.20349,0.10189 -0.33054,0.33018 -0.33054,0.58509 -0.20349,0.1016 -0.33052,0.30545 -0.33052,0.5595 -0.17839,0.20288 -0.17839,0.15269 -0.22889,0.40686 -0.20349,0.20409 -0.17839,0.15269 -0.25428,0.4324 -0.22889,0.1787 -0.33018,0.33015 -0.40686,0.63539 -0.43223,0.27999 -0.45762,0.86391 -0.91525,1.16944 -0.1016,0.48269 -0.71189,1.11868 -1.06782,1.55094 -0.33018,0.43244 -0.68652,0.91528 -1.06786,1.32202 -0.71188,0.76246 -1.72891,1.39836 -2.28818,2.28827 -0.33052,0.0735 -0.99157,0.71216 -1.22043,0.99154 -0.22889,0.0551 -0.4322,0.20289 -0.58468,0.40683 -0.20349,0.055 -0.38134,0.15269 -0.48305,0.33118 h 0.73731 c 0.0211,0.60974 8.72073,-1.85602 9.91537,-2.28825 0.9153,-0.35567 1.7797,-0.73686 2.64415,-1.16945 0.6102,-0.30544 1.4492,-0.91534 2.13565,-0.9661 0.15269,-0.27999 0.43222,-0.38128 0.73734,-0.43245 0.10189,-0.20288 0.30511,-0.3309 0.5593,-0.3309 0.20349,-0.17839 0.1527,-0.15269 0.40683,-0.22858 0.20349,-0.20289 0.1527,-0.1787 0.4322,-0.25399 0.17839,-0.17839 0.1273,-0.17839 0.40683,-0.25398 0.20349,-0.30542 0.76274,-0.63535 1.14414,-0.73774 0.3814,-0.55943 1.22039,-0.60977 1.65256,-1.22039 0.20349,-0.0551 0.43226,-0.20289 0.55934,-0.40677 0.63559,-0.12729 1.32208,-0.96613 1.88136,-1.39837 0.63562,-0.48271 1.32208,-0.9153 1.90687,-1.47465 0.76269,-0.15269 1.85596,-1.5509 2.46616,-2.05941 0.68648,-0.60975 1.70348,-1.2458 2.21187,-2.05933 0.68654,-0.1273 1.83059,-1.67805 2.36456,-2.21196 0.20349,-0.1784 0.38137,-0.50828 0.58471,-0.66097 1.04237,-0.71209 2.97464,-0.40676 4.27117,-0.48265 2.49162,-0.1784 4.98323,-0.40686 7.4747,-0.73686 5.13562,-0.68661 10.19504,-1.75428 15.17827,-3.12734 3.07624,-0.83923 6.07658,-1.95767 9.02582,-3.12733 1.24576,-0.45802 2.41533,-1.01696 3.61021,-1.55084 0.94068,-0.4068 2.21193,-1.37297 3.20352,-1.47459 0.20349,-0.30545 0.71188,-0.53392 1.06785,-0.58514 0.1784,-0.25398 0.4322,-0.38121 0.73728,-0.40682 0.1273,-0.22859 0.33018,-0.33088 0.58471,-0.33088 0.20349,-0.17839 0.1273,-0.17839 0.4068,-0.22858 0.20349,-0.2041 0.1273,-0.1784 0.40683,-0.25399 0.20349,-0.20288 0.15269,-0.17869 0.40683,-0.25398 0.20348,-0.1784 0.15269,-0.1784 0.43226,-0.22859 0.17839,-0.22858 0.33018,-0.33018 0.63562,-0.43241 0.53391,-0.78801 1.80516,-0.86484 2.38987,-1.70345 0.45769,-0.10159 1.06786,-0.71215 1.47465,-0.99156 0.40683,-0.27999 0.86449,-0.71213 1.24582,-1.06788 0.43223,-0.1016 1.4492,-1.04234 1.70346,-1.47462 0.3813,-0.0735 1.01696,-0.8136 1.24578,-1.14408 0.48303,-0.1016 1.0678,-0.96617 1.39831,-1.32208 0.40683,-0.43241 0.7882,-1.09322 1.29668,-1.39837 0.0762,-0.33018 0.58474,-0.76237 0.839,-1.06782 0.30511,-0.40674 0.58468,-0.91525 0.9661,-1.22027 0.1019,-0.53391 0.68646,-0.81372 0.83897,-1.3984 0.22888,-0.20409 0.33051,-0.35567 0.4068,-0.66096 0.17839,-0.20289 0.17839,-0.1273 0.25428,-0.40686 0.17839,-0.20288 0.17839,-0.15269 0.22889,-0.40683 0.78808,-0.5083 1.37288,-2.51692 1.72888,-3.38131 0.88948,-2.18654 1.44919,-4.55116 1.65256,-6.88993 0.27999,-3.35592 -0.30542,-6.94103 -1.47468,-10.09346"
       id="path30"
       inkscape:connector-curvature="0"
       style="fill:#ca3493;stroke-width:3.02362204" />
    <path
       sodipodi:nodetypes="ccccccccccccccccccccccccsccc"
       d="m 456.31494,-210.52616 -14.8224,34.70514 h -2.41539 l -14.94939,-34.70514 v -0.86484 h 6.22896 l 5.05943,12.20394 4.83054,13.0427 h 0.15269 l 4.62735,-12.78841 5.08482,-12.45793 h 6.20357 z m -54.76384,21.55994 v -15.28018 l -6.83913,-0.5083 v -4.95783 h 6.83913 l 0.78816,-10.39854 h 6.68645 v 10.39854 h 11.66997 v 5.46641 h -11.66997 v 15.15288 c 0,8.56804 5.3899,9.12741 12.30553,6.68674 l 0.76277,5.72039 c -11.51728,3.58481 -20.54309,0.91531 -20.54309,-12.28014"
       id="path30-0"
       inkscape:connector-curvature="0"
       style="fill:#ffffff;fill-opacity:1;stroke-width:3.02362204" />
  </g>
</svg>
