<?xml version="1.0" encoding="UTF-8" standalone="no"?>
<svg
   xmlns:dc="http://purl.org/dc/elements/1.1/"
   xmlns:cc="http://creativecommons.org/ns#"
   xmlns:rdf="http://www.w3.org/1999/02/22-rdf-syntax-ns#"
   xmlns:svg="http://www.w3.org/2000/svg"
   xmlns="http://www.w3.org/2000/svg"
   xmlns:sodipodi="http://sodipodi.sourceforge.net/DTD/sodipodi-0.dtd"
   xmlns:inkscape="http://www.inkscape.org/namespaces/inkscape"
   width="604.80353pt"
   height="369.82947pt"
   viewBox="0 0 604.80353 369.82947"
   version="1.1"
   id="svg57"
   sodipodi:docname="Thats Salisbury.svg"
   inkscape:version="0.92.0 r15299">
  <metadata
     id="metadata63">
    <rdf:RDF>
      <cc:Work
         rdf:about="">
        <dc:format>image/svg+xml</dc:format>
        <dc:type
           rdf:resource="http://purl.org/dc/dcmitype/StillImage" />
        <dc:title></dc:title>
      </cc:Work>
    </rdf:RDF>
  </metadata>
  <defs
     id="defs61" />
  <sodipodi:namedview
     pagecolor="#ffffff"
     bordercolor="#666666"
     borderopacity="1"
     objecttolerance="10"
     gridtolerance="10"
     guidetolerance="10"
     inkscape:pageopacity="0"
     inkscape:pageshadow="2"
     inkscape:window-width="1920"
     inkscape:window-height="1017"
     id="namedview59"
     showgrid="false"
     fit-margin-top="0"
     fit-margin-left="0"
     fit-margin-right="0"
     fit-margin-bottom="0"
     inkscape:zoom="0.46613743"
     inkscape:cx="562.12246"
     inkscape:cy="455.05209"
     inkscape:window-x="-8"
     inkscape:window-y="-8"
     inkscape:window-maximized="1"
     inkscape:current-layer="svg57" />
  <path
     style="opacity:1;fill:#ffffff;stroke-width:0.81314629;fill-opacity:1"
     inkscape:connector-curvature="0"
     id="path10-8"
     d="m 498.32674,240.61844 c 8.85517,-2.75656 19.02763,-1.97595 26.9802,2.97612 0.86194,0.5448 2.37439,1.18719 1.52059,2.51262 -1.45554,4.98458 -3.06557,9.93665 -4.16331,15.01881 -7.37524,-4.57801 -16.84839,-6.91175 -25.12622,-3.40709 -5.3993,2.00848 -9.68458,6.59462 -11.38404,12.09149 -0.99204,3.94376 -1.08149,8.05014 -1.01644,12.09961 0.008,14.17314 -0.008,28.33815 0.0243,42.50317 -6.0742,-0.0406 -12.14027,-0.11384 -18.20635,0.0488 -0.2846,-18.76746 -0.0569,-37.55114 -0.12197,-56.32668 -0.11384,-3.80552 0.39844,-7.81433 -0.97578,-11.44097 -1.49619,-2.95172 -5.28545,-2.81348 -8.0908,-3.03304 0.008,-4.20396 0.13009,-8.41606 -0.14637,-12.61189 7.22074,-1.20346 15.76691,-2.12231 21.85737,2.83788 2.9192,2.18737 3.9519,5.87904 4.62681,9.29426 2.34186,-6.23683 8.05014,-10.53837 14.22191,-12.56311 z" />
  <path
     style="opacity:1;fill:#ffffff;fill-opacity:1;stroke-width:2.39936566"
     d="m 526.77107,239.04661 c -4.01094,-0.0536 -8.12455,0.49449 -11.63363,0.92635 0.0479,4.03094 0.12044,8.08524 0.19221,12.14018 2.78325,1.43963 7.63012,0.86286 8.80582,4.50991 0.88592,4.95318 0.98219,10.06884 0.89113,15.21988 h -0.002 c -0.004,0.41138 -0.0102,0.82356 -0.0123,1.23514 -0.12004,10.97612 -0.64437,22.01738 3.13121,32.48754 7.58206,23.32195 44.89192,28.09774 58.01652,7.51109 0.072,12.11685 1.65603,27.54561 -9.78903,35.41558 -14.75624,8.9017 -32.72834,3.04601 -47.43657,-2.95243 -0.33593,5.18265 -0.60128,10.36461 -0.93719,15.52325 17.82742,8.87771 40.57411,13.12588 58.59349,2.44863 13.00464,-7.55803 18.33173,-23.32129 18.13979,-37.69355 0.072,-28.76856 -0.0468,-57.56189 0.073,-86.35444 -6.69426,-0.0239 -13.34115,0.12003 -20.01146,0.16788 -1.05573,19.86685 3.81439,41.17308 -4.60742,59.88822 -5.97448,14.15634 -29.82409,12.33427 -33.6631,-2.44591 -2.8386,-10.16242 -1.62918,-20.76578 -1.59538,-31.24696 l 0.0184,-0.008 c 0.002,-0.27632 -0.0102,-0.55008 -0.0102,-0.82614 -5.2e-4,-0.15827 -0.004,-0.3159 -0.006,-0.47401 -0.0102,-5.7312 -0.44933,-11.40101 -2.2211,-16.89115 -2.84923,-6.73321 -9.25005,-8.49172 -15.93498,-8.58098 z"
     id="path23-8"
     inkscape:connector-curvature="0" />
  <path
     style="fill:#ffffff;stroke-width:2.63365245;fill-opacity:1"
     d="m 218.30902,299.70172 c 1.38022,20.70314 19.66812,26.56828 38.12738,26.56828 18.46033,0 36.23116,-7.93626 36.23116,-26.39711 0,-19.66811 -16.90752,-22.60094 -34.3323,-24.84375 -12.93939,-1.55276 -19.66811,-3.10561 -19.84061,-10.00658 -0.51759,-7.41872 8.45376,-11.55936 17.08028,-11.55936 8.79878,0 18.80534,2.58793 18.80534,10.86909 h 16.56251 c 0.51759,-16.56251 -16.21751,-25.01654 -35.36732,-25.01654 -18.11531,0 -35.36731,8.28124 -35.36731,26.05156 0.51759,18.80533 19.66811,20.70315 36.74734,22.94597 10.86909,1.38019 18.63284,3.62312 18.63284,11.21435 -0.51759,10.17908 -10.69658,12.76688 -19.84063,12.76688 -8.97127,0 -18.46033,-3.96811 -18.97809,-12.59439 z"
     id="path8-6"
     inkscape:connector-curvature="0" />
  <path
     style="opacity:1;fill:#ffffff;stroke-width:0.82398748;fill-opacity:1"
     inkscape:connector-curvature="0"
     id="path6-1"
     d="m 294.05935,199.19826 c 5.90799,0.0412 11.81598,0.0247 17.72397,0.0247 -0.13184,18.50676 0.14007,37.01352 -0.14008,55.52028 2.79332,-3.41955 5.25704,-7.21813 9.03091,-9.69834 7.25109,-5.14992 16.67751,-5.99863 25.23873,-4.51545 10.22569,1.95285 19.38019,8.71779 24.14285,17.98765 5.27352,9.84665 6.14694,21.45663 4.78736,32.37447 -1.37605,10.65416 -6.4683,21.19296 -15.3756,27.52118 -8.553,6.44359 -19.52027,8.68484 -30.04259,8.62715 -12.10438,0.18128 -24.0934,-2.79331 -35.10187,-7.67955 -0.51088,-1.46671 -0.18952,-3.07348 -0.25544,-4.58962 0.008,-38.52142 0.0165,-77.04284 -0.008,-115.57249 m 28.32869,60.65372 c -6.74022,5.47952 -9.35226,14.4857 -9.77249,22.86566 -0.15656,8.32228 0.0494,16.64454 -0.0824,24.96682 9.03914,3.55139 19.38842,5.084 28.74068,1.77157 7.17693,-2.71091 12.49989,-9.43465 13.82651,-16.94942 1.85398,-8.84139 1.68094,-18.75396 -3.02404,-26.70543 -5.67727,-10.00321 -20.63264,-13.23325 -29.68827,-5.9492 z" />
  <path
     id="path20"
     d="m 201.12642,206.04681 c 8.20822,-4.90982 20.06732,4.45661 15.76179,13.47054 -2.71929,9.41679 -17.49911,9.49232 -20.9234,0.62947 -2.79482,-5.03572 -0.0252,-11.88429 5.16161,-14.10001 z"
     inkscape:connector-curvature="0"
     style="opacity:1;fill:#ffffff;fill-opacity:1;stroke-width:2.51785731" />
  <g
     transform="matrix(2.4424658,0,0,2.4424658,83.266961,0)"
     id="g920">
    <path
       d="m 127.78019,55.999796 c 0.57043,8.5061 8.0867,10.922 15.67,10.922 7.5918,0 14.89,-3.2632 14.89,-10.855 0,-8.0783 -6.9458,-9.2863 -14.11,-10.209 -5.3184,-0.63755 -8.0867,-1.2751 -8.1538,-4.1105 -0.20974,-3.0535 3.4729,-4.748 7.0213,-4.748 3.6155,0 7.726,1.057 7.726,4.4628 h 6.8116 c 0.20963,-6.8032 -6.669,-10.285 -14.538,-10.285 -7.4492,0 -14.538,3.4058 -14.538,10.712 0.20973,7.726 8.0867,8.5061 15.1,9.4289 4.4712,0.57043 7.6589,1.4932 7.6589,4.6138 -0.20974,4.1776 -4.3957,5.2429 -8.1538,5.2429 -3.6826,0 -7.5834,-1.6274 -7.8015,-5.1758 z m -18.724,-34.603 h -6.8032 l -0.78014,10.561 h -6.945798 v 5.0416 l 6.945798,0.49493 v 15.527 c 0,13.405 9.1437,16.098 20.846,12.482 l -0.78014,-5.8134 c -7.0214,2.4747 -12.482,1.9126 -12.482,-6.8116 v -15.385 h 11.845 v -5.5365 h -11.845 z m -22.263998,27.515 c -0.20974,6.3083 -3.1877,10.779 -8.934,10.779 -6.3083,0 -9.3618,-4.899 -9.3618,-11.14 0.21812,-7.3737 4.6138,-11.132 11.132,-11.132 2.1978,0 4.8235,0.36074 7.1639,1.4177 z m 7.4491,-14.538 c -4.4712,-1.9881 -9.152,-3.1961 -14.043,-3.1961 -11.132,-0.20964 -19.218,6.0315 -19.428,17.373 0,9.647 5.0332,18.011 15.46,18.011 5.0332,0 9.8567,-2.6928 11.769,-7.4408 v 1.4177 c 0,5.6707 5.0332,6.2412 9.9238,5.3184 v -5.2513 c -3.7581,0.36074 -3.6826,-1.6274 -3.6826,-4.748 z m -59.425,11.979 c 0,-5.5953 3.9007,-9.0011 8.7913,-9.0011 4.8235,0 7.0968,2.1978 7.877,6.669 0.20973,1.4848 0.13422,3.3303 0.13422,12.969 0,6.9542 3.1961,10.427 11.987,8.934 l -0.0671,-5.3184 c -3.7581,0.36074 -4.1188,-0.91435 -4.1188,-4.1104 v -8.5061 c 0,-1.7029 -0.0671,-3.1961 -0.27682,-4.8235 -0.78015,-6.8032 -5.5365,-11.845 -12.768,-11.845 -4.5383,-0.2769 -9.0766,1.6358 -11.56,5.2513 v -22.264 h -7.726 v 51.758 h 7.726 z m -20.279,-24.95 H 7.7256916 l -0.78015,10.561 H -2.5838302e-4 v 5.0416 L 6.9455416,37.500326 v 15.527 c 0,13.405 9.1521004,16.098 20.8460004,12.482 l -0.78015,-5.8134 c -7.0129,2.4747 -12.474,1.9126 -12.474,-6.8116 v -15.385 h 11.836 v -5.5365 h -11.836 z"
       id="path30-0"
       inkscape:connector-curvature="0"
       style="fill:#ca3493" />
    <path
       sodipodi:nodetypes="cccccccccccccccccccccccccccccccccccccccccccccccccccccccccccccccccccccccccccccccccccccccccccccccccccccccccccccccccccccccccccccccccccccccccccccccccccc"
       d="m 156.52209,10.402686 c -0.13424,-0.35232 -0.45297,-0.8053204 -0.49493,-1.1660004 -0.0838,-0.0589 -0.12579,-0.14266 -0.13423,-0.24342 -0.0588,-0.0669 -0.0588,-0.042 -0.0755,-0.13423 -0.0671,-0.0669 -0.0588,-0.0504 -0.0838,-0.13422 -0.0755,-0.0669 -0.109,-0.11734 -0.13424,-0.21808 -0.0838,-0.0673 -0.1006,-0.15113 -0.19292,-0.2181 -0.0169,-0.0754 -0.0671,-0.14266 -0.13423,-0.19304 -0.042,-0.18461 -0.4446,-0.68786 -0.62076,-0.78013 -0.0169,-0.0923 -0.13424,-0.19305 -0.21812,-0.24312 -0.0504,-0.23498 -0.52849,-0.56204 -0.70465,-0.7382 -0.23489,-0.21808 -0.49493,-0.43623 -0.72982,-0.67111 -0.1006,-0.0242 -0.29361,-0.20119 -0.37749,-0.2769 -0.12581,-0.0923 -0.29361,-0.2012 -0.38588,-0.31877 -0.0671,-0.0182 -0.14261,-0.0673 -0.18454,-0.13423 -0.0755,-0.0181 -0.14261,-0.0673 -0.19292,-0.14268 -0.2852,-0.0504 -0.46138,-0.37746 -0.75498,-0.46135 -0.0671,-0.0673 -0.11746,-0.10923 -0.21812,-0.13423 -0.0671,-0.0589 -0.042,-0.0589 -0.13422,-0.0754 -0.0671,-0.0669 -0.0504,-0.0589 -0.13424,-0.0838 -0.0671,-0.0673 -0.0504,-0.0589 -0.14261,-0.0838 -0.0336,-0.0673 -0.10061,-0.10922 -0.18454,-0.10922 -0.0336,-0.0669 -0.10899,-0.10889 -0.19292,-0.10889 -0.0587,-0.10072 -0.23489,-0.17616 -0.35233,-0.1846 -0.13423,-0.21809 -0.65431,-0.3775 -0.88919,-0.48655 -0.31878,-0.15111 -0.62916,-0.30199 -0.94793,-0.43623 -0.75499,-0.31877 -1.5267,-0.60396 -2.3069,-0.86403 -3.6155,-1.20800001 -7.4072,-1.66090001 -11.216,-1.73640001 h -0.26843 c 0,-0.14267 -4.9326,0.34393 -5.7127,0.46139 -0.77177,0.11734 -1.5435,0.25157 -2.3069,0.4362 -1.0738,0.25157001 -2.1475,0.51169001 -3.1961,0.86404001 -0.78015,0.26001 -1.5435,0.54527 -2.2985,0.86404 -0.31877,0.13423 -0.63755,0.28505 -0.94792,0.4362 -0.26004,0.11734 -0.58722,0.3775 -0.87242,0.40266 -0.0588,0.10072 -0.22651,0.1846 -0.35233,0.19305 -0.0336,0.0754 -0.10061,0.10922 -0.18455,0.10922 -0.0336,0.0754 -0.109,0.10889 -0.19292,0.10889 -0.0588,0.0589 -0.042,0.0589 -0.13423,0.0838 -0.0336,0.0673 -0.10072,0.10923 -0.18454,0.10072 -0.0671,0.0754 -0.11746,0.10923 -0.21811,0.14268 -0.0671,0.0669 -0.11743,0.10923 -0.21812,0.13423 -0.15938,0.23498 -0.53687,0.26001 -0.70465,0.5117 -0.0755,0.0181 -0.14262,0.0673 -0.19292,0.13423 -0.24328,0.0589 -0.61239,0.42781 -0.81371,0.62077 -0.10061,0.0242 -0.31038,0.22653 -0.37749,0.32715 -0.20132,0.042 -0.4446,0.39428 -0.5956,0.54528 -0.15938,0.15926 -0.34393,0.39427 -0.53688,0.51169 -0.0336,0.15928 -0.31877,0.40266 -0.43621,0.54527 -0.13423,0.15927 -0.27681,0.39428 -0.43621,0.51171 -0.0169,0.0754 -0.0671,0.14267 -0.13422,0.19304 -0.0251,0.13423 -0.15101,0.2012 -0.19294,0.35231 -0.0671,0.0589 -0.109,0.10889 -0.13423,0.20965 -0.0588,0.0669 -0.0588,0.0504 -0.0755,0.14267 -0.0922,0.0504 -0.12581,0.14267 -0.13422,0.24342 -0.28523,0.17615 -0.46138,0.8808104 -0.57044,1.1912004 -0.32716,0.87243 -0.54527,1.8539 -0.46138,2.785 0.0839,0.96469 0.20132,1.8371 0.53688,2.7431 0.13422,0.33555 0.45299,0.755 0.49494,1.1073 0.0838,0.0504 0.11742,0.14267 0.13422,0.24312 0.0588,0.0673 0.0588,0.042 0.0755,0.13422 0.0923,0.0589 0.16778,0.18461 0.19294,0.30197 0.0671,0.042 0.0671,0.0838 0.13423,0.13423 0.042,0.22653 0.38588,0.57044 0.57042,0.755 0.0251,0.14268 0.22651,0.26847 0.32716,0.37748 0.109,0.13422 0.20134,0.28534 0.35232,0.38588 0.0336,0.1846 0.39428,0.41942 0.53689,0.56204 0.16776,0.16771 0.46137,0.31039 0.57042,0.52011 0.14262,0.0242 0.31039,0.25157 0.43622,0.35232 0.16777,0.12578 0.40265,0.22652 0.53687,0.40265 0.0755,0.0182 0.14261,0.0669 0.19293,0.13424 0.31877,0.0589 0.51171,0.43619 0.83886,0.52007 0.0588,0.0673 0.10901,0.10889 0.21812,0.13424 0.0671,0.0589 0.042,0.0589 0.13423,0.0754 0.0671,0.0669 0.042,0.0589 0.13422,0.0838 0.0671,0.0673 0.042,0.0589 0.13424,0.0838 0.042,0.0754 0.109,0.10889 0.19293,0.10889 0.0588,0.0923 0.18454,0.15112 0.29361,0.15927 0.0671,0.10072 0.23489,0.17616 0.35233,0.19305 0.13423,0.20119 0.59559,0.32715 0.8137,0.42781 0.26843,0.13423 0.53687,0.26845 0.8137,0.38588 0.65432,0.26846 1.3086,0.52009 1.9797,0.75497 0.86404,0.31039 1.7364,0.56204 2.6257,0.78854 0.55366,0.13423 1.1157,0.26846 1.6777,0.3775 0.35233,0.0673 0.70465,0.13423 1.057,0.19305 0.31877,0.0504 0.83887,0.0242 1.1157,0.1846 -0.15101,0.53689 -0.40266,1.0654 -0.62916,1.5687 -0.16777,0.3775 -0.55365,0.87242 -0.59559,1.2751 -0.0671,0.0335 -0.109,0.10889 -0.109,0.19305 -0.0671,0.0335 -0.10901,0.10072 -0.10901,0.1846 -0.0588,0.0669 -0.0588,0.0504 -0.0755,0.13424 -0.0671,0.0673 -0.0588,0.0504 -0.0839,0.14266 -0.0755,0.0589 -0.109,0.10889 -0.13423,0.20965 -0.14262,0.0923 -0.151,0.28504 -0.30199,0.38586 -0.0336,0.15926 -0.23489,0.3691 -0.35233,0.51172 -0.109,0.14268 -0.2265,0.302 -0.35232,0.4362 -0.23489,0.25156 -0.57044,0.46138 -0.75498,0.755 -0.109,0.0242 -0.32716,0.23497 -0.40267,0.32715 -0.0755,0.0181 -0.14261,0.0669 -0.19292,0.13423 -0.0671,0.0181 -0.12581,0.0504 -0.15939,0.10923 h 0.24328 c 0.008,0.20119 2.8773,-0.61238 3.2716,-0.755 0.302,-0.11734 0.5872,-0.24312 0.87242,-0.38585 0.20134,-0.10072 0.47816,-0.30201 0.70465,-0.31877 0.0504,-0.0923 0.14261,-0.12579 0.24328,-0.14268 0.0336,-0.0669 0.1006,-0.10923 0.18454,-0.10923 0.0671,-0.0589 0.0504,-0.0504 0.13423,-0.0754 0.0671,-0.0669 0.0504,-0.0589 0.1426,-0.0838 0.0588,-0.0589 0.042,-0.0589 0.13424,-0.0838 0.0671,-0.10072 0.25166,-0.20963 0.37749,-0.24342 0.12585,-0.18459 0.40266,-0.20119 0.54527,-0.40265 0.0671,-0.0181 0.14261,-0.0669 0.18454,-0.13423 0.20972,-0.042 0.43621,-0.31877 0.62076,-0.46138 0.20972,-0.15927 0.43621,-0.302 0.62915,-0.48655 0.25165,-0.0504 0.61238,-0.51172 0.81371,-0.67949 0.22649,-0.20119 0.56204,-0.41105 0.7298,-0.67947 0.2265,-0.042 0.60399,-0.55366 0.78016,-0.72982 0.0671,-0.0589 0.12584,-0.16771 0.19293,-0.21808 0.34392,-0.23497 0.98147,-0.13423 1.4093,-0.15926 0.8221,-0.0589 1.6442,-0.13424 2.4663,-0.24313 1.6945,-0.22653 3.3639,-0.5788 5.008,-1.0318 1.015,-0.2769 2.0049,-0.64592 2.978,-1.0318 0.41104,-0.15112 0.79692,-0.33554 1.1912,-0.5117 0.31038,-0.13422 0.72982,-0.453 1.057,-0.48654 0.0671,-0.10072 0.23489,-0.17615 0.35233,-0.19305 0.0588,-0.0838 0.14261,-0.12578 0.24326,-0.13423 0.042,-0.0754 0.109,-0.10923 0.19293,-0.10923 0.0671,-0.0589 0.042,-0.0589 0.13422,-0.0754 0.0671,-0.0673 0.042,-0.0589 0.13423,-0.0838 0.0671,-0.0669 0.0504,-0.0589 0.13423,-0.0838 0.0671,-0.0589 0.0504,-0.0589 0.14262,-0.0754 0.0588,-0.0754 0.109,-0.10889 0.20972,-0.14267 0.17616,-0.26001 0.5956,-0.28535 0.78854,-0.56204 0.151,-0.0335 0.35233,-0.23498 0.48655,-0.32716 0.13422,-0.0923 0.28523,-0.23497 0.41105,-0.35235 0.14261,-0.0335 0.47815,-0.34392 0.56204,-0.48654 0.12581,-0.0242 0.33554,-0.26846 0.41104,-0.37749 0.15938,-0.0335 0.35232,-0.31878 0.46138,-0.43621 0.13422,-0.14267 0.26005,-0.36069 0.42782,-0.46138 0.0251,-0.10889 0.19293,-0.25156 0.27682,-0.35232 0.10061,-0.13422 0.19292,-0.30199 0.31877,-0.40264 0.0336,-0.17616 0.22649,-0.26847 0.27681,-0.46139 0.0755,-0.0673 0.109,-0.11734 0.13423,-0.21808 0.0588,-0.0669 0.0588,-0.042 0.0839,-0.13424 0.0588,-0.0669 0.0588,-0.0504 0.0755,-0.13423 0.26002,-0.16771 0.45297,-0.83046 0.57043,-1.1157 0.29349,-0.72143 0.47816,-1.5016 0.54527,-2.2733 0.0923,-1.1073 -0.10072,-2.2901 -0.48657,-3.3303"
       id="path32-6"
       inkscape:connector-curvature="0"
       style="fill:#ca3493" />
    <path
       sodipodi:nodetypes="ccccccccccccccccccccccccsccc"
       d="m 144.35028,8.6997592 -4.89059,11.4509998 h -0.79693 L 133.73026,8.6997592 V 8.4144091 h 2.0552 l 1.6693,4.0265999 1.59389,4.3034 h 0.0504 l 1.52671,-4.2195 1.6777,-4.1104999 h 2.04679 z M 126.28129,15.813359 V 10.77176 l -2.2566,-0.16771 V 8.9682492 h 2.2566 l 0.26004,-3.4309999 h 2.2062 v 3.4309999 h 3.8504 V 10.77185 h -3.8504 v 4.999599 c 0,2.827 1.7784,3.0116 4.0601,2.2062 l 0.25166,1.8874 c -3.8001,1.1828 -6.7781,0.30201 -6.7781,-4.0517"
       id="path32-9"
       inkscape:connector-curvature="0"
       style="fill:#ffffff;fill-opacity:1;stroke:none;stroke-opacity:1" />
  </g>
  <path
     style="opacity:1;fill:#ffffff;stroke-width:0.82165664;fill-opacity:1"
     inkscape:connector-curvature="0"
     id="path14-7"
     d="m 91.922955,245.98848 c 11.963325,-7.12376 26.514875,-7.45242 39.957165,-5.69407 7.6825,1.29822 15.15136,3.7221 22.27512,6.86084 -0.10681,18.13395 -0.008,36.26792 -0.0493,54.39367 0.0904,2.55535 0.008,5.28325 1.24069,7.60033 1.93912,2.07879 4.92995,2.17738 7.5839,1.98841 -0.074,4.35477 0.0165,8.70956 -0.041,13.07255 -7.0909,1.24892 -15.79225,1.89803 -21.21519,-3.79605 -3.12229,-3.1716 -2.4814,-7.81396 -3.12229,-11.80721 -4.15758,9.50657 -13.85313,15.94836 -24.05811,16.95899 -7.04982,0.62446 -14.39543,-0.0328 -20.771482,-3.30305 -9.350471,-4.37122 -15.636146,-13.47517 -18.577682,-23.15429 -2.842932,-9.83524 -3.155162,-20.44282 -0.632673,-30.38487 2.703252,-9.39153 8.85746,-17.87103 17.410903,-22.73525 m 19.251424,9.39154 c -8.98071,1.70906 -16.654979,9.09575 -18.372244,18.13397 -2.259556,9.14504 -1.207835,19.55543 4.330126,27.35295 7.419568,10.15568 24.682578,11.03486 32.636208,1.06816 3.9193,-4.97924 5.81733,-11.36352 5.91594,-17.65741 0.15611,-8.77529 0.0247,-17.55059 0.074,-26.32588 -7.71536,-3.26198 -16.36741,-3.94395 -24.58398,-2.57179 z" />
  <path
     style="fill:#ffffff;stroke-width:2.62913203;fill-opacity:1"
     d="m 0,299.68338 c 1.37785,20.66761 19.634359,26.52268 38.061947,26.52268 18.42864,0 36.168972,-7.92263 36.168972,-26.3518 0,-19.63435 -16.878505,-22.56215 -34.27337,-24.80111 -12.917189,-1.55009 -19.634358,-3.10028 -19.806566,-9.9894 -0.516704,-7.40599 8.439252,-11.53952 17.050974,-11.53952 8.783667,0 18.773053,2.58349 18.773053,10.85043 H 72.5091 c 0.516698,-16.53408 -16.189674,-24.9736 -35.306618,-24.9736 -18.084222,0 -35.306612,8.26703 -35.306612,26.00684 0.5167,18.77306 19.634356,20.66762 36.684277,22.90659 10.850428,1.37782 18.600847,3.6169 18.600847,11.1951 -0.516703,10.16161 -10.67822,12.74497 -19.806566,12.74497 -8.955876,0 -18.428639,-3.9613 -18.945526,-12.57277 z"
     id="path8"
     inkscape:connector-curvature="0" />
  <g
     transform="matrix(0.99990257,0,0,0.99990257,-321.12355,-144.43775)"
     id="g4549"
     style="fill:#ffffff;fill-opacity:1">
    <path
       d="m 523.60548,349.68786 c 3.73994,-0.88384 8.12639,-0.83473 11.28528,1.64492 5.77768,4.41918 5.40941,14.69787 -0.97385,18.37234 -5.78586,3.72357 -15.27074,1.09662 -17.03023,-5.93316 -1.80859,-5.54853 0.85111,-12.40645 6.7188,-14.0841 z"
       id="path8-2"
       inkscape:connector-curvature="0"
       style="opacity:1;fill:#ffffff;stroke-width:0.81836724;fill-opacity:1" />
    <path
       d="m 518.0815,386.53894 c 6.3178,-0.0164 12.63559,0.0164 18.95339,-0.0164 -0.0327,27.40712 0.0327,54.81424 -0.0409,82.22136 -6.3178,-0.0491 -12.62741,0 -18.9452,-0.0327 0.1473,-27.39076 0.0573,-54.78151 0.0327,-82.17226 z"
       id="path22"
       inkscape:connector-curvature="0"
       style="opacity:1;fill:#ffffff;stroke-width:0.81836724;fill-opacity:1" />
  </g>
  <path
     style="fill:#ffffff;stroke-width:2.64373231;fill-opacity:1"
     d="m 162.85965,197.93931 v 96.98531 c 0,27.88345 11.77676,34.46369 37.40881,30.30776 L 199.5757,310.6847 c -14.3745,2.25144 -18.01148,-2.07822 -18.01148,-15.93323 v -96.81084 z"
     id="path12"
     inkscape:connector-curvature="0" />
  <path
     style="opacity:1;fill:#ffffff;fill-opacity:1;stroke-width:0.99256086"
     inkscape:connector-curvature="0"
     id="path26-2"
     d="m 377.0742,294.53425 v -53.16191 h 18.89861 v 49.27107 c 0.01,6.6303 2.51093,13.73704 8.2777,17.47899 8.04968,5.10177 19.64278,2.88836 25.70733,-4.31764 3.51367,-4.01987 5.2705,-9.44918 5.21095,-14.74945 v -47.68297 h 18.82863 v 59.52422 c 0.19852,3.2159 -0.2876,6.68986 1.23102,9.65762 1.71712,2.42185 5.09159,2.28289 7.73181,2.29281 v 11.85118 c -6.11417,1.12159 -12.7244,2.18363 -18.71946,0.0298 -5.21095,-2.06453 -7.2854,-7.96034 -7.24571,-13.17129 -3.64269,6.21344 -9.63775,10.99758 -16.67501,12.71471 -10.97774,2.77917 -23.90088,2.37222 -32.97286,-5.19109 -7.59559,-8.05005 -9.33574,-14.95246 -10.27301,-24.54603 z"
     sodipodi:nodetypes="cccccccccccccccccc" />
</svg>
