<svg height="319.55991pt" viewBox="0 0 568.50934 319.5599" width="568.50934pt" xmlns="http://www.w3.org/2000/svg"><g transform="matrix(2.443888 0 0 2.443888 90.700641 0)"><path d="m127.78019 55.999796c.57043 8.5061 8.0867 10.922 15.67 10.922 7.5918 0 14.89-3.2632 14.89-10.855 0-8.0783-6.9458-9.2863-14.11-10.209-5.3184-.63755-8.0867-1.2751-8.1538-4.1105-.20974-3.0535 3.4729-4.748 7.0213-4.748 3.6155 0 7.726 1.057 7.726 4.4628h6.8116c.20963-6.8032-6.669-10.285-14.538-10.285-7.4492 0-14.538 3.4058-14.538 10.712.20973 7.726 8.0867 8.5061 15.1 9.4289 4.4712.57043 7.6589 1.4932 7.6589 4.6138-.20974 4.1776-4.3957 5.2429-8.1538 5.2429-3.6826 0-7.5834-1.6274-7.8015-5.1758zm-18.724-34.603h-6.8032l-.78014 10.561h-6.945798v5.0416l6.945798.49493v15.527c0 13.405 9.1437 16.098 20.846 12.482l-.78014-5.8134c-7.0214 2.4747-12.482 1.9126-12.482-6.8116v-15.385h11.845v-5.5365h-11.845zm-22.263998 27.515c-.20974 6.3083-3.1877 10.779-8.934 10.779-6.3083 0-9.3618-4.899-9.3618-11.14.21812-7.3737 4.6138-11.132 11.132-11.132 2.1978 0 4.8235.36074 7.1639 1.4177zm7.4491-14.538c-4.4712-1.9881-9.152-3.1961-14.043-3.1961-11.132-.20964-19.218 6.0315-19.428 17.373 0 9.647 5.0332 18.011 15.46 18.011 5.0332 0 9.8567-2.6928 11.769-7.4408v1.4177c0 5.6707 5.0332 6.2412 9.9238 5.3184v-5.2513c-3.7581.36074-3.6826-1.6274-3.6826-4.748zm-59.425 11.979c0-5.5953 3.9007-9.0011 8.7913-9.0011 4.8235 0 7.0968 2.1978 7.877 6.669.20973 1.4848.13422 3.3303.13422 12.969 0 6.9542 3.1961 10.427 11.987 8.934l-.0671-5.3184c-3.7581.36074-4.1188-.91435-4.1188-4.1104v-8.5061c0-1.7029-.0671-3.1961-.27682-4.8235-.78015-6.8032-5.5365-11.845-12.768-11.845-4.5383-.2769-9.0766 1.6358-11.56 5.2513v-22.264h-7.726v51.758h7.726zm-20.279-24.95h-6.8116004l-.78015 10.561h-6.94579998v5.0416l6.94579998.49493v15.527c0 13.405 9.1521004 16.098 20.8460004 12.482l-.78015-5.8134c-7.0129 2.4747-12.474 1.9126-12.474-6.8116v-15.385h11.836v-5.5365h-11.836z" fill="#ca3493"/><path d="m156.52209 10.402686c-.13424-.35232-.45297-.8053204-.49493-1.1660004-.0838-.0589-.12579-.14266-.13423-.24342-.0588-.0669-.0588-.042-.0755-.13423-.0671-.0669-.0588-.0504-.0838-.13422-.0755-.0669-.109-.11734-.13424-.21808-.0838-.0673-.1006-.15113-.19292-.2181-.0169-.0754-.0671-.14266-.13423-.19304-.042-.18461-.4446-.68786-.62076-.78013-.0169-.0923-.13424-.19305-.21812-.24312-.0504-.23498-.52849-.56204-.70465-.7382-.23489-.21808-.49493-.43623-.72982-.67111-.1006-.0242-.29361-.20119-.37749-.2769-.12581-.0923-.29361-.2012-.38588-.31877-.0671-.0182-.14261-.0673-.18454-.13423-.0755-.0181-.14261-.0673-.19292-.14268-.2852-.0504-.46138-.37746-.75498-.46135-.0671-.0673-.11746-.10923-.21812-.13423-.0671-.0589-.042-.0589-.13422-.0754-.0671-.0669-.0504-.0589-.13424-.0838-.0671-.0673-.0504-.0589-.14261-.0838-.0336-.0673-.10061-.10922-.18454-.10922-.0336-.0669-.10899-.10889-.19292-.10889-.0587-.10072-.23489-.17616-.35233-.1846-.13423-.21809-.65431-.3775-.88919-.48655-.31878-.15111-.62916-.30199-.94793-.43623-.75499-.31877-1.5267-.60396-2.3069-.86403-3.6155-1.20800001-7.4072-1.66090001-11.216-1.73640001h-.26843c0-.14267-4.9326.34393-5.7127.46139-.77177.11734-1.5435.25157-2.3069.4362-1.0738.25157001-2.1475.51169001-3.1961.86404001-.78015.26001-1.5435.54527-2.2985.86404-.31877.13423-.63755.28505-.94792.4362-.26004.11734-.58722.3775-.87242.40266-.0588.10072-.22651.1846-.35233.19305-.0336.0754-.10061.10922-.18455.10922-.0336.0754-.109.10889-.19292.10889-.0588.0589-.042.0589-.13423.0838-.0336.0673-.10072.10923-.18454.10072-.0671.0754-.11746.10923-.21811.14268-.0671.0669-.11743.10923-.21812.13423-.15938.23498-.53687.26001-.70465.5117-.0755.0181-.14262.0673-.19292.13423-.24328.0589-.61239.42781-.81371.62077-.10061.0242-.31038.22653-.37749.32715-.20132.042-.4446.39428-.5956.54528-.15938.15926-.34393.39427-.53688.51169-.0336.15928-.31877.40266-.43621.54527-.13423.15927-.27681.39428-.43621.51171-.0169.0754-.0671.14267-.13422.19304-.0251.13423-.15101.2012-.19294.35231-.0671.0589-.109.10889-.13423.20965-.0588.0669-.0588.0504-.0755.14267-.0922.0504-.12581.14267-.13422.24342-.28523.17615-.46138.8808104-.57044 1.1912004-.32716.87243-.54527 1.8539-.46138 2.785.0839.96469.20132 1.8371.53688 2.7431.13422.33555.45299.755.49494 1.1073.0838.0504.11742.14267.13422.24312.0588.0673.0588.042.0755.13422.0923.0589.16778.18461.19294.30197.0671.042.0671.0838.13423.13423.042.22653.38588.57044.57042.755.0251.14268.22651.26847.32716.37748.109.13422.20134.28534.35232.38588.0336.1846.39428.41942.53689.56204.16776.16771.46137.31039.57042.52011.14262.0242.31039.25157.43622.35232.16777.12578.40265.22652.53687.40265.0755.0182.14261.0669.19293.13424.31877.0589.51171.43619.83886.52007.0588.0673.10901.10889.21812.13424.0671.0589.042.0589.13423.0754.0671.0669.042.0589.13422.0838.0671.0673.042.0589.13424.0838.042.0754.109.10889.19293.10889.0588.0923.18454.15112.29361.15927.0671.10072.23489.17616.35233.19305.13423.20119.59559.32715.8137.42781.26843.13423.53687.26845.8137.38588.65432.26846 1.3086.52009 1.9797.75497.86404.31039 1.7364.56204 2.6257.78854.55366.13423 1.1157.26846 1.6777.3775.35233.0673.70465.13423 1.057.19305.31877.0504.83887.0242 1.1157.1846-.15101.53689-.40266 1.0654-.62916 1.5687-.16777.3775-.55365.87242-.59559 1.2751-.0671.0335-.109.10889-.109.19305-.0671.0335-.10901.10072-.10901.1846-.0588.0669-.0588.0504-.0755.13424-.0671.0673-.0588.0504-.0839.14266-.0755.0589-.109.10889-.13423.20965-.14262.0923-.151.28504-.30199.38586-.0336.15926-.23489.3691-.35233.51172-.109.14268-.2265.302-.35232.4362-.23489.25156-.57044.46138-.75498.755-.109.0242-.32716.23497-.40267.32715-.0755.0181-.14261.0669-.19292.13423-.0671.0181-.12581.0504-.15939.10923h.24328c.008.20119 2.8773-.61238 3.2716-.755.302-.11734.5872-.24312.87242-.38585.20134-.10072.47816-.30201.70465-.31877.0504-.0923.14261-.12579.24328-.14268.0336-.0669.1006-.10923.18454-.10923.0671-.0589.0504-.0504.13423-.0754.0671-.0669.0504-.0589.1426-.0838.0588-.0589.042-.0589.13424-.0838.0671-.10072.25166-.20963.37749-.24342.12585-.18459.40266-.20119.54527-.40265.0671-.0181.14261-.0669.18454-.13423.20972-.042.43621-.31877.62076-.46138.20972-.15927.43621-.302.62915-.48655.25165-.0504.61238-.51172.81371-.67949.22649-.20119.56204-.41105.7298-.67947.2265-.042.60399-.55366.78016-.72982.0671-.0589.12584-.16771.19293-.21808.34392-.23497.98147-.13423 1.4093-.15926.8221-.0589 1.6442-.13424 2.4663-.24313 1.6945-.22653 3.3639-.5788 5.008-1.0318 1.015-.2769 2.0049-.64592 2.978-1.0318.41104-.15112.79692-.33554 1.1912-.5117.31038-.13422.72982-.453 1.057-.48654.0671-.10072.23489-.17615.35233-.19305.0588-.0838.14261-.12578.24326-.13423.042-.0754.109-.10923.19293-.10923.0671-.0589.042-.0589.13422-.0754.0671-.0673.042-.0589.13423-.0838.0671-.0669.0504-.0589.13423-.0838.0671-.0589.0504-.0589.14262-.0754.0588-.0754.109-.10889.20972-.14267.17616-.26001.5956-.28535.78854-.56204.151-.0335.35233-.23498.48655-.32716.13422-.0923.28523-.23497.41105-.35235.14261-.0335.47815-.34392.56204-.48654.12581-.0242.33554-.26846.41104-.37749.15938-.0335.35232-.31878.46138-.43621.13422-.14267.26005-.36069.42782-.46138.0251-.10889.19293-.25156.27682-.35232.10061-.13422.19292-.30199.31877-.40264.0336-.17616.22649-.26847.27681-.46139.0755-.0673.109-.11734.13423-.21808.0588-.0669.0588-.042.0839-.13424.0588-.0669.0588-.0504.0755-.13423.26002-.16771.45297-.83046.57043-1.1157.29349-.72143.47816-1.5016.54527-2.2733.0923-1.1073-.10072-2.2901-.48657-3.3303" fill="#ca3493"/><path d="m144.35028 8.6997592-4.89059 11.4509998h-.79693l-4.9325-11.4509998v-.2853501h2.0552l1.6693 4.0265999 1.59389 4.3034h.0504l1.52671-4.2195 1.6777-4.1104999h2.04679zm-18.06899 7.1135998v-5.041599l-2.2566-.16771v-1.6358008h2.2566l.26004-3.4309999h2.2062v3.4309999h3.8504v1.8036008h-3.8504v4.999599c0 2.827 1.7784 3.0116 4.0601 2.2062l.25166 1.8874c-3.8001 1.1828-6.7781.30201-6.7781-4.0517" fill="#fff"/></g><g fill="#fff"><path d="m268.36304 232.84134c7.07888-.67106 14.7388-.56467 21.01567 3.208 5.98227 3.36349 9.74676 9.64037 11.46533 16.13002 1.51398 5.19663 2.06229 10.62241 2.07865 16.01545.008 9.81222-.0164 19.62445.008 29.42849.09 2.19322.0164 4.76289 1.8004 6.35871 2.24233 2.18504 5.614 1.64492 8.45374 1.46488-.0736 3.83814-.10639 7.67628.0491 11.51442-6.15412 1.57127-12.92201 2.24233-19.02704.17186-6.64514-2.36508-10.1232-9.55034-10.2705-16.25277-.19641-11.69447.0327-23.39712-.1064-35.09159-.33553-5.72857-2.25051-12.00545-7.18525-15.40986-3.67448-2.72516-8.55195-2.58604-12.86473-2.02136-4.78745.92475-9.1248 4.00181-11.65355 8.1673-2.67606 4.16549-3.32257 9.25573-3.28984 14.10865.0327 15.5899-.0409 31.1798.0409 46.76969-6.14595.0409-12.2837.008-18.42146.0245.0655-16.71106 0-33.42212.0409-50.13318-.0491-5.06569-1.51398-10.23777-4.66469-14.25595-7.43895-7.82359-21.62126-5.9659-27.8163 2.51238-3.02796 4.04274-4.29643 9.24755-4.30461 14.24778.0491 15.88451-.0164 31.76902.0327 47.65351-6.32598-.0737-12.66015.0246-18.98613-.0655.0818-19.9518 0-39.90359.0409-59.84719-.17181-3.04438-.0573-6.40787-1.84947-9.02664-1.98863-2.31598-5.35212-2.16049-8.1182-1.99682.11457-4.13276-.22914-8.30643.17186-12.40645 7.37349-1.91498 16.26095-2.68424 22.70151 2.17686 3.54353 2.67606 5.13934 7.08706 4.87746 11.43259 7.8727-14.68969 28.74925-19.1989 42.68604-10.76153 4.3619 2.64333 7.49625 6.85792 9.56671 11.46533 4.57467-8.68288 13.88769-14.41964 23.52805-15.58172z" stroke-width=".818367"/><path d="m430.31271 233.16029c8.87994-2.75998 19.13986-1.97999 27.1198 2.99997.9.6 2.39998 1.19999 1.55999 2.57998-1.49999 4.97997-3.11998 9.95993-4.19997 15.05989-7.43994-4.55996-16.97987-6.89995-25.31981-3.41997-5.39996 2.03998-9.71993 6.65995-11.39991 12.17991-1.01999 3.95997-1.13999 8.09994-1.07999 12.17991.06 14.27989 0 28.49979.06 42.77969-6.11996-.06-12.23991-.12-18.29987.06-.3-18.89987-.06-37.79973-.18-56.69959-.06-3.83997.42-7.85994-.95999-11.51991-1.49999-2.93998-5.33996-2.81998-8.15994-3.05998.06-4.19997.18-8.45994-.12-12.65991 7.25995-1.19999 15.83988-2.15998 22.01983 2.81998 2.93998 2.21998 3.95997 5.93996 4.61997 9.35993 2.33998-6.23995 8.09994-10.61992 14.33989-12.6599z"/><path d="m497.29023 239.07399c11.99895-7.14497 26.59383-7.47462 40.07616-5.71103 7.70538 1.30208 15.19649 3.73319 22.34146 6.88127-.10713 18.18797-.008 36.37594-.0494 54.55567.0906 2.56296.008 5.29899 1.24439 7.62296 1.94489 2.08499 4.94463 2.18388 7.60648 1.99434-.0742 4.36774.0165 8.73549-.0412 13.11149-7.11201 1.25264-15.83926 1.90368-21.27836-3.80737-3.13158-3.18104-2.48879-7.83722-3.13158-11.84237-4.16997 9.53488-13.89439 15.99585-24.12977 17.0095-7.07081.62632-14.4383-.0329-20.83334-3.31289-9.37831-4.38424-15.68271-13.5153-18.63301-23.22325-2.85139-9.86452-3.16455-20.5037-.63455-30.47535 2.7113-9.41951 8.88384-17.92426 17.46276-22.80297m19.30875 9.41951c-9.00745 1.71415-16.70458 9.12284-18.42696 18.18798-2.26628 9.17228-1.21143 19.61367 4.34303 27.43441 7.44166 10.18592 24.75608 11.06772 32.7334 1.07134 3.93097-4.99407 5.83466-11.39736 5.93355-17.70999.15658-8.80143.0248-17.60286.0742-26.40429-7.73834-3.27169-16.41615-3.9557-24.65719-2.57945z" stroke-width=".824104"/><path d="m8.9934138 248.11596c13.5945702-17.17815 40.5371502-21.10693 58.9070702-9.53428 8.37539 5.21098 14.095954 14.05485 16.10144 23.64666-5.9918-.0247-11.97539-.0165-17.95898-.0165-2.20274-4.70962-5.69591-8.96716-10.59456-11.01375-8.63017-4.25755-19.42199-2.52329-26.94257 3.23015-11.56442 8.87674-12.80553 27.27134-4.33974 38.65495 6.83839 9.09867 20.29323 12.43567 30.50971 7.29044 5.46578-2.41645 9.45209-7.38085 11.65484-12.83841 6.09866.13151 12.21375-.19726 18.312397.17261-2.06302 8.23564-6.065777 16.15075-12.690467 21.64118-16.41375 13.64389-42.67413 12.73977-58.54542-1.34795-6.8959202-6.17263-11.4986802-14.86033-12.74800022-24.03297-1.93150998-12.37813.24658-25.95627 8.33428002-35.8522z" stroke-width=".821921"/><path d="m84.49302 287.55967v-53.56035h19.04025v49.64035c.01 6.68 2.52975 13.84 8.33974 17.61 8.11001 5.14 19.79 2.91 25.90001-4.35 3.54-4.05 5.31-9.52 5.25-14.86v-48.04035h18.96975v59.97035c.20001 3.24-.28976 6.74 1.24024 9.73 1.72999 2.44 5.12976 2.3 7.78976 2.31v11.94c-6.15999 1.13-12.81976 2.2-18.85976.03-5.25-2.08-7.34-8.02-7.30001-13.27-3.66999 6.26-9.70999 11.08-16.79999 12.81-11.06001 2.8-24.08001 2.39-33.219996-5.23-7.652499-8.11038-9.4057-15.06452-10.349994-24.73z"/><path d="m312.62816 191.97967c5.84808.0603 11.75644 0 17.6648 0-.12058 18.50884.12058 36.9574-.12058 55.40597 2.77331-3.37622 5.24518-7.17445 8.98313-9.64631 7.23472-5.1246 16.63987-5.96866 25.20097-4.52171 10.18891 1.92927 19.3529 8.68168 24.05547 17.96625 5.30547 9.82717 6.14952 21.40274 4.82316 32.31512-1.38666 10.61094-6.45097 21.16159-15.3738 27.43168-8.50081 6.45098-19.47348 8.68168-29.96384 8.62139-12.05788.18086-24.05547-2.77331-35.02815-7.65676-.5426-1.44694-.18087-3.07475-.24116-4.58199 0-38.46466 0-76.869 0-115.33364m28.21544 60.53056c-6.69212 5.48634-9.28456 14.46946-9.70658 22.7894-.18087 8.31994.0603 16.63988-.12058 24.95982 9.04341 3.55707 19.35289 5.06432 28.69776 1.74839 7.17443-2.71302 12.4799-9.40514 13.80627-16.88105 1.86897-8.86253 1.6881-18.74999-3.01447-26.7082-5.6672-9.94775-20.61898-13.20338-29.6624-5.90836z"/><g transform="translate(24.795172 -159.14594)"><path d="m437.65607 357.62648c3.77997-.83999 8.15994-.77999 11.33991 1.67999 5.75997 4.43997 5.39997 14.69989-1.01999 18.35986-5.75995 3.71998-15.23989 1.08-17.03987-5.93995-1.79999-5.51996.89999-12.41991 6.71995-14.0999z" fill="#fff"/><path d="m432.13611 394.52621c6.35996-.06 12.6599 0 18.95986-.06 0 27.4198.06 54.83959 0 82.2594-6.35996-.06-12.6599 0-18.95986-.06.12-27.35981.06-54.7796 0-82.1394z" fill="#fff"/></g></g></svg>