<svg height="908.88617" viewBox="0 0 348.06908 225.44624" width="1403.2391" xmlns="http://www.w3.org/2000/svg"><g transform="matrix(1.6828093 0 0 1.6828093 45.4301 -.005577)"><path d="m122.052 52.58c.53548 7.9849 7.5911 10.253 14.71 10.253 7.1265 0 13.977-3.0632 13.977-10.19 0-7.5833-6.5202-8.7172-13.245-9.5834-4.9925-.59848-7.5911-1.1969-7.6541-3.8586-.19689-2.8664 3.2601-4.457 6.5911-4.457 3.394 0 7.2525.99219 7.2525 4.1893h6.3942c.19679-6.3863-6.2603-9.6543-13.647-9.6543-6.9927 0-13.647 3.1971-13.647 10.056.19688 7.2525 7.5911 7.9849 14.174 8.8511 4.1972.53547 7.1895 1.4017 7.1895 4.331-.19689 3.9215-4.1263 4.9216-7.6541 4.9216-3.457 0-7.1186-1.5277-7.3234-4.8587zm-17.576-32.483h-6.3863l-.73234 9.9141h-6.5202v4.7327l6.5202.46459v14.576c0 12.584 8.5833 15.111 19.568 11.717l-.73233-5.4571c-6.5911 2.323-11.717 1.7954-11.717-6.3942v-14.442h11.119v-5.1972h-11.119zm-20.899 25.829c-.19689 5.9217-2.9924 10.119-8.3865 10.119-5.9217 0-8.7881-4.5988-8.7881-10.458.20475-6.9218 4.331-10.45 10.45-10.45 2.0632 0 4.5279.33864 6.7249 1.3308zm6.9926-13.647c-4.1972-1.8662-8.5912-3.0002-13.182-3.0002-10.45-.1968-18.041 5.6619-18.238 16.308 0 9.0558 4.7248 16.907 14.513 16.907 4.7248 0 9.2527-2.5278 11.048-6.9848v1.3308c0 5.3232 4.7248 5.8587 9.3157 4.9925v-4.9295c-3.5278.33864-3.457-1.5277-3.457-4.457zm-55.784 11.245c0-5.2524 3.6617-8.4495 8.2526-8.4495 4.5279 0 6.6619 2.0632 7.3943 6.2604.19686 1.3938.12598 3.1262.12598 12.174 0 6.5281 3.0002 9.7882 11.253 8.3865l-.063-4.9925c-3.5278.33864-3.8664-.85831-3.8664-3.8586v-7.9849c0-1.5985-.063-3.0002-.25986-4.5279-.73234-6.3863-5.1972-11.119-11.985-11.119-4.2602-.25992-8.5203 1.5356-10.851 4.9295v-20.899h-7.2525v48.586h7.2525zm-19.033-23.427h-6.3942l-.73233 9.9141h-6.5202v4.7327l6.5202.46459v14.576c0 12.584 8.5912 15.111 19.568 11.717l-.73234-5.4571c-6.5832 2.323-11.71 1.7954-11.71-6.3942v-14.442h11.111v-5.1972h-11.111z" fill="#ca3493"/><path d="m149.02796 9.76867c-.12601-.33072-.42521-.75596-.4646-1.0946-.0787-.0553-.11808-.13392-.12601-.22851-.0552-.0628-.0552-.0394-.0709-.126-.063-.0628-.0552-.0473-.0787-.12599-.0709-.0628-.10227-.11016-.12602-.20472-.0787-.0632-.0945-.14187-.18109-.20473-.0159-.0708-.063-.13392-.12601-.18121-.0394-.1733-.41736-.64571-.58271-.73233-.0159-.0867-.12602-.18122-.20476-.22822-.0473-.22059-.49611-.5276-.66147-.69297-.2205-.20471-.4646-.40949-.6851-.62998-.0945-.0227-.27561-.18886-.35435-.25993-.11811-.0867-.27562-.18887-.36224-.29924-.063-.0171-.13387-.0632-.17323-.12601-.0709-.017-.13387-.0632-.1811-.13392-.26772-.0473-.43311-.35434-.70872-.43309-.063-.0632-.11026-.10248-.20474-.126-.063-.0553-.0394-.0553-.126-.0708-.063-.0628-.0473-.0553-.12602-.0787-.063-.0632-.0473-.0553-.13386-.0787-.0316-.0632-.0945-.10248-.17324-.10248-.0316-.0628-.10226-.10227-.1811-.10227-.0551-.0946-.22049-.16536-.33073-.17328-.12601-.20473-.61422-.35437-.83471-.45673-.29924-.14185-.5906-.28349-.88983-.40951-.70873-.29923-1.4332-.56695-2.1655-.81107-3.394-1.134-6.9533-1.5592-10.528-1.63h-.25199c0-.13393-4.6303.32285-5.3626.43312-.72448.11014-1.4489.23615-2.1655.40946-1.008.23616-2.0159.48034-3.0002.81109-.73235.24408-1.4489.51186-2.1576.81109-.29923.12601-.59848.26759-.88982.40947-.24411.11016-.55124.35437-.81897.37799-.0552.0946-.21262.17329-.33074.18122-.0315.0708-.0945.10248-.17324.10248-.0316.0708-.10237.10227-.1811.10227-.0552.0553-.0394.0553-.126.0787-.0315.0632-.0946.10248-.17323.0946-.063.0708-.11026.10248-.20474.13393-.063.0628-.11023.10259-.20476.12601-.14961.22057-.50397.24407-.66147.48034-.0709.017-.13388.0632-.1811.12601-.22837.0553-.57486.40159-.76384.58272-.0945.0227-.29136.21265-.35436.3071-.18898.0394-.41735.37013-.5591.51187-.14962.1495-.32285.37011-.50398.48033-.0315.14952-.29923.37799-.40947.51187-.12601.1495-.25986.37011-.40949.48034-.0159.0708-.063.13393-.12599.18122-.0236.12599-.14176.18886-.18112.33071-.063.0553-.10237.10226-.126.1968-.0552.0628-.0552.0473-.0709.13393-.0866.0473-.11811.13393-.126.22851-.26775.16536-.43311.82683-.53548 1.1182-.30712.81898-.51187 1.7403-.43312 2.6144.0788.90557.18899 1.7245.50399 2.575.126.31498.42523.70873.46461 1.0395.0787.0473.11022.13392.126.22822.0552.0632.0552.0394.0709.12599.0867.0553.1575.1733.18111.28347.063.0394.063.0787.12601.126.0394.21265.36223.53549.53546.70873.0236.13394.21263.25202.30711.35435.10238.126.189.26786.33074.36224.0315.17328.37011.39372.50398.5276.15748.15743.4331.29137.53546.48824.13389.0227.29138.23615.40949.33072.15749.11808.37798.21265.50397.37798.0709.0171.13388.0628.18111.12601.29923.0553.48036.40946.78745.4882.0552.0632.10238.10226.20476.12602.063.0553.0394.0553.12601.0708.063.0628.0394.0553.12599.0787.063.0632.0394.0553.12601.0787.0394.0708.10238.10227.18112.10227.0552.0867.17322.14186.27561.14951.063.0946.2205.16536.33074.18122.126.18886.55909.3071.76383.40159.25199.126.50397.252.76384.36224.61422.252 1.2284.48821 1.8584.7087.8111.29136 1.63.5276 2.4648.74021.51974.12601 1.0473.25202 1.5749.35437.33074.0632.66147.12601.9922.18122.29925.0473.78747.0227 1.0473.17329-.14175.504-.37799 1.0001-.59061 1.4726-.15748.35437-.51972.81896-.55909 1.1969-.063.0315-.10237.10227-.10237.18122-.063.0315-.10237.0946-.10237.17329-.0552.0628-.0552.0473-.0709.12602-.063.0632-.0552.0473-.0788.13392-.0709.0553-.10226.10226-.12601.1968-.13387.0867-.14174.26757-.28348.36221-.0315.1495-.22049.34648-.33073.48036-.10227.13394-.21263.28349-.33074.40947-.22049.23615-.53549.4331-.70871.70873-.10237.0227-.30712.22058-.378.30711-.0709.017-.13386.0628-.18109.126-.063.017-.11811.0473-.14962.10258h.22837c.007.18886 2.701-.57486 3.0711-.70873.28349-.11016.55122-.22822.81896-.36221.189-.0946.44885-.2835.66147-.29923.0473-.0867.13387-.11809.22837-.13394.0316-.0628.0945-.10248.17323-.10248.063-.0553.0473-.0473.12601-.0708.063-.0628.0473-.0553.13386-.0787.0552-.0553.0394-.0553.12601-.0787.063-.0946.23624-.19678.35436-.2285.11814-.17327.37799-.18886.51185-.37798.063-.017.13388-.0628.17324-.12599.19686-.0394.40948-.29924.58271-.43311.19687-.14951.40948-.28349.59061-.45674.23622-.0473.57484-.48036.76383-.63785.21262-.18886.52761-.38586.68508-.63783.21263-.0394.56698-.51974.73236-.6851.063-.0553.11812-.15743.1811-.20472.32285-.22056.92133-.12599 1.3229-.14949.77172-.0553 1.5434-.12602 2.3152-.22823 1.5907-.21266 3.1577-.54334 4.7011-.96858.95283-.25994 1.882-.60634 2.7955-.96859.38585-.14186.74809-.31498 1.1182-.48034.29135-.12599.68509-.42524.9922-.45672.063-.0946.22049-.16536.33073-.18122.0552-.0787.13387-.11808.22836-.12601.0394-.0708.10227-.10248.1811-.10248.063-.0553.0394-.0553.126-.0708.063-.0632.0394-.0553.126-.0787.063-.0628.0473-.0553.12601-.0787.063-.0553.0473-.0553.13388-.0708.0552-.0708.10226-.10226.19687-.13393.16536-.24407.5591-.26786.74021-.5276.14175-.0315.33074-.22057.45674-.30711.126-.0867.26775-.22056.38586-.33075.13387-.0315.44885-.32284.5276-.45673.1181-.0227.31498-.252.38585-.35436.14961-.0315.33073-.29924.4331-.40948.126-.13393.24412-.33859.40161-.4331.0236-.10227.18111-.23614.25986-.33074.0945-.12598.18109-.28347.29923-.37795.0316-.16537.21261-.25203.25985-.43312.0709-.0632.10237-.11016.126-.20472.0552-.0628.0552-.0394.0788-.12601.0552-.0628.0552-.0473.0709-.12601.24409-.15743.42522-.77956.53548-1.0473.2755-.67723.44886-1.4096.51185-2.134.0867-1.0394-.0946-2.1498-.45675-3.1262" fill="#ca3493"/><path d="m137.60188 8.1699603-4.5909 10.7490007h-.7481l-4.63-10.7500007v-.26786h1.9293l1.567 3.7797987 1.4962 4.039701h.0473l1.4332-3.9609 1.5749-3.8585997h1.9214zm-16.962 6.6777007v-4.732701l-2.1183-.1574297v-1.5356h2.1183l.24411-3.2207h2.071v3.2207h3.6144v1.6930997h-3.6144v4.693301c0 2.6538 1.6694 2.827 3.8113 2.071l.23625 1.7718c-3.5672 1.1103-6.3627.2835-6.3627-3.8034" fill="#fff"/></g><g fill="#65256e" transform="translate(-45.464908 25.025032)"><g stroke-width=".512899"><path d="m178.34288 107.70651 10.12974.0308-.17951 40.61644c3.857-.0154 7.90377.50777 11.56586-1.00528 3.69287-1.34892 6.47791-4.67251 7.44729-8.45257.80012-2.61065 1.01554-5.34953 1.0258-8.06789l9.54504-.0359c.15387 5.54444-.61548 11.49406-4.07241 16.02809-1.94902 2.66194-4.68277 4.6366-7.66784 5.99065l14.14062 23.04967-10.23746.005-12.37624-19.79275-9.37579.49238.18977 19.19267-10.13487.0974z"/><path d="m139.39352 130.45869c3.86725-.80012 8.39102-1.11812 11.69408 1.44125 1.6977 1.26685 2.39011 3.34409 2.66195 5.36491 1.68743-4.25705 5.97527-6.98567 10.39132-7.63706 4.5648-.80012 9.45272.18465 13.2174 2.92866l-2.46704 8.69876c-4.0519-2.43114-9.1655-3.55439-13.68927-1.80541-3.98522 1.40022-6.84719 5.43673-6.72923 9.6784l.0257 26.60918-10.14513.1231.005-33.88722c-.0308-1.20531-.0256-2.52346-.73857-3.55438-1.01041-1.1489-2.68246-.91809-4.0519-1.01554z"/><path d="m111.92158 130.61769c5.93937-1.44638 12.40702-.91809 17.92581 1.77463 5.23669 2.46191 9.27833 7.24213 10.96577 12.76604 1.70795 5.88295 1.63102 12.36086-.75396 18.05404-2.13879 5.15976-6.42149 9.35014-11.57612 11.47354-6.02143 2.56962-13.01224 2.75939-19.14138.45648-5.30337-1.83618-9.878431-5.77524-12.355731-10.82729-3.082521-6.48304-3.277422-14.26884-.533415-20.90575 2.610654-6.51381 8.744926-11.15554 15.469026-12.79169m3.01072 8.60644c-4.85715 1.08221-8.83212 5.10847-9.92459 9.95023-.99503 4.8828-.3539 10.44775 3.13381 14.24832 4.74431 5.42647 13.97136 5.84705 19.21831.91809 4.31348-3.81083 5.31876-10.24771 3.9288-15.61776-.71293-3.25691-2.82607-6.1394-5.62137-7.92428-3.15945-2.02082-7.12929-2.40037-10.73496-1.5746z"/><path d="m45.464909 130.94594c3.780063-.72318 8.037122-1.21557 11.514574.80013 3.118424 1.89259 4.118576 5.74446 4.231414 9.16549.05642 5.4675-.05642 10.94013.06668 16.4025.343643 3.56465 1.559212 7.46781 4.764829 9.47324 4.364767 2.51833 10.904224 1.92337 13.781585-2.56962 3.446679-5.16489 3.256906-11.6787 3.241519-17.63346l-.02052-15.70495 10.037425-.0513.04103 47.01228c0 5.65215-1.595114 11.52996-5.452112 15.79215-3.369744 3.75442-8.24741 5.7496-13.109689 6.67794-2.600395.15387-5.211049.13848-7.811445.0103-4.898182-.81551-9.668139-2.41062-14.053422-4.76483l.548801-7.92428c6.236847 3.19023 13.504621 5.14437 20.500558 3.71338 4.441702-.89244 8.314086-4.30322 9.314238-8.79108.974508-4.45196.466738-9.06805.518028-13.59181-1.595115 3.94932-5.31363 6.78052-9.493753 7.44729-4.893053.72318-10.165651.40006-14.545805-2.08237-3.687741-2.07211-6.077848-5.88295-7.23187-9.86817-2.128529-7.49345-.851412-15.35106-1.369439-23.01376-.10258-1.07196-.343643-2.26188-1.297634-2.90814-1.133506-.98989-2.744008-.77447-4.139092-.79499z"/></g><g stroke-width="2.695236"><path d="m216.53665 162.65062c.74437 11.19251 10.6071 14.36372 20.56276 14.36372 9.95567 0 19.53939-4.29054 19.53939-14.27046 0-10.63298-9.11825-12.21859-18.51574-13.43118-6.9785-.83945-10.6071-1.67889-10.70008-5.40987-.27912-4.01079 4.55926-6.24918 9.21151-6.24918 4.74523 0 10.1419 1.39907 10.1419 5.87615h8.93228c.27915-8.95411-8.74604-13.52442-19.07418-13.52442-9.7697 0-19.07419 4.47705-19.07419 14.08396.27912 10.16643 10.6071 11.1925 19.81861 12.40509 5.86187.74618 10.04892 1.95871 10.04892 6.06267-.27912 5.50313-5.76888 6.90196-10.70009 6.90196-4.83822 0-9.95566-2.14525-10.23489-6.80871z"/><path d="m268.47385 149.98301c0-7.36851 5.11745-11.84557 11.5375-11.84557 6.32707 0 9.3045 2.89145 10.32788 8.76761.27914 1.95868.18597 4.3838.18597 17.06866 0 9.14063 4.18705 13.71094 15.72455 11.75231l-.0933-6.99522c-4.93147.46636-5.39667-1.21253-5.39667-5.40987v-11.19251c0-2.2385-.093-4.19729-.37216-6.34243-1.02351-8.95412-7.25746-15.57631-16.74793-15.57631-5.95485-.37311-11.90971 2.14524-15.16636 6.90196v-29.28644h-10.14191v68.08706h10.14191z"/><path d="m304.9404 117.04722c0 4.10404 3.1634 6.06266 6.23409 6.06266 2.97742 0 5.95485-2.05199 5.95485-6.06266 0-3.91753-2.97743-5.96941-6.04784-5.96941s-6.14083 1.95868-6.14083 5.96941zm11.16529 14.36372h-10.14191v44.49027h10.14191z"/><path d="m331.91972 137.47711c-.46522-7.27525-7.72266-8.39431-14.32895-6.90196l.0932 6.90196c4.83822-.27979 4.83822 1.77217 4.83822 5.7829v32.64471h10.04892v-26.02278c0-7.27525 5.39667-11.19251 11.44451-11.19251 3.25666 0 6.23408.93271 8.93229 2.70494l2.51223-8.76761c-2.88445-2.14522-6.6063-3.26447-10.32788-3.17121-5.48966 0-11.44451 2.79819-13.21232 8.02129z"/><path d="m391.5653 165.265c-4.0008 1.86543-9.58372 3.35773-14.79415 3.35773-9.86268.27982-16.84091-4.75683-16.56196-14.08396 4.18705 2.51832 10.14191 4.01051 16.00378 3.73074 8.56007-.27979 16.84118-4.3838 17.30638-13.33791.4652-11.09926-10.32788-15.3898-20.09757-15.11004-11.90971.27982-22.51681 7.83479-22.79604 22.38502-.74434 15.85608 9.58372 24.9967 25.49424 24.53042 5.58265-.27981 10.79308-.93271 15.72455-3.45098zm-30.61249-17.53494c1.48871-6.71545 6.32707-9.79341 12.56088-9.88667 4.55926 0 10.51412 1.67889 10.23489 6.99522-.27912 4.66357-5.39667 6.43569-9.39748 6.43569-4.65225 0-10.04892-1.21254-13.39856-3.54424z"/></g></g><g fill="#65256e" transform="matrix(.59651035 0 0 .59651035 -47.803 191.37718)"><path d="m232.0023-130.9149h-8.95399l-1.02599 13.8976h-9.14052v6.62229l9.14052.65292v20.426504c0 17.62833 12.03205 21.17258 27.42186 16.41579l-1.02601-7.64832c-9.23392 3.26459-16.4158 2.51833-16.4158-8.95403v-20.239944h15.57629v-7.27532h-15.57629z" stroke-width="2.965389"/><path d="m259.61797-98.058496c0-7.368404 5.12984-11.845534 11.56561-11.845534 6.34238 0 9.32705 2.8914 10.35306 8.76747.28006 1.958714.18659 4.383744.18659 17.068794 0 9.1405 4.19722 13.71076 15.76282 11.75214l-.0934-6.99538c-4.94332.46638-5.40976-1.21251-5.40976-5.40976v-11.19256c0-2.2385-.0934-4.197204-.37308-6.342384-1.02598-8.954-7.27527-15.5763-16.78883-15.5763-5.96934-.37308-11.93867 2.14527-15.20329 6.90226v-29.28738h-10.16657v68.088324h10.16654z" stroke-width="2.965389"/><path d="m174.46218-117.58808c3.86725-.80012 8.39102-1.11812 11.69408 1.44125 1.6977 1.26685 2.39011 3.34409 2.66195 5.36491 1.68743-4.25705 5.97527-6.98567 10.39132-7.63706 4.5648-.80012 9.45272.18465 13.2174 2.92866l-2.46704 8.69876c-4.0519-2.43114-9.1655-3.55439-13.68927-1.80541-3.98522 1.40022-6.84719 5.43673-6.72923 9.678397l.0257 26.609178-10.14513.1231.005-33.887215c-.0308-1.20531-.0256-2.52346-.73857-3.55438-1.01041-1.1489-2.68246-.91809-4.0519-1.01554z" stroke-width=".512899"/><path d="m146.99024-117.42908c5.93937-1.44638 12.40702-.91809 17.92581 1.77463 5.23669 2.46191 9.27833 7.24213 10.96577 12.76604 1.70795 5.882947 1.63102 12.360857-.75396 18.054037-2.13879 5.15976-6.42149 9.35014-11.57612 11.47354-6.02143 2.569618-13.01224 2.759388-19.14138.45648-5.30337-1.83618-9.87843-5.77524-12.35573-10.82729-3.08252-6.48304-3.27742-14.26884-.53342-20.905747 2.61066-6.51381 8.74493-11.15554 15.46903-12.79169m3.01072 8.60644c-4.85715 1.08221-8.83212 5.10847-9.92459 9.950227-.99503 4.8828-.3539 10.44775 3.13381 14.24832 4.74431 5.42647 13.97136 5.84705 19.21831.91809 4.31348-3.81083 5.31876-10.24771 3.9288-15.61776-.71293-3.256907-2.82607-6.139397-5.62137-7.924277-3.15945-2.02082-7.12929-2.40037-10.73496-1.5746z" stroke-width=".512899"/><path d="m80.230775-111.60377c5.50304-.46637 5.22325 1.39907 5.22325 7.36841v31.244666h10.16669v-26.11496c0-7.275126 5.036715-11.658956 11.379165-11.658956 6.06266 0 10.7263 4.29057 10.7263 11.379166v16.042559c0 10.72628 6.71553 11.845499 15.29642 10.166679v-6.435721c-4.38385.466331-5.22325-.746199-5.22325-4.104038v-16.042559c.27983-11.192626-5.59632-19.213906-17.8149-19.213906-6.34245 0-12.125315 2.6115-15.016625 8.30108 0-7.46167-7.64819-9.23376-14.83007-7.46167z" stroke-width="2.562299"/></g></svg>