<svg height="361.08" viewBox="0 0 158.75 95.535009" width="600" xmlns="http://www.w3.org/2000/svg"><g fill="#fff" transform="translate(-240.46 -81.535)"><path d="m242.48 149.99v20.385c0 5.8606 2.4753 7.2439 7.8627 6.3702l-.1456-3.0577c-3.0213.47322-3.7858-.43682-3.7858-3.3489v-20.348z"/><path d="m266.44 160.36c-2.2933-1.0192-4.6958-1.6381-7.2075-1.6381-5.715-.10921-9.8648 3.0941-9.974 8.9183 0 4.9506 2.5845 9.246 7.9355 9.246 2.5845 0 5.0598-1.3833 6.0426-3.8222v.72803c0 2.9121 2.5845 3.2033 5.0962 2.7301v-2.6937c-1.9293.182-1.8929-.83724-1.8929-2.4389zm-3.8222 7.4623c-.10921 3.2397-1.6381 5.533-4.5866 5.533-3.2397 0-4.805-2.5117-4.805-5.715.1092-3.7857 2.3661-5.715 5.715-5.715 1.1284 0 2.4753.18201 3.6766.72803z"/><path d="m267.98 161.56c2.1477-.18201 2.0385.54602 2.0385 2.8757v12.194h3.9678v-10.192c0-2.8393 1.9657-4.5502 4.441-4.5502 2.3661 0 4.1862 1.6745 4.1862 4.441v6.261c0 4.1862 2.6209 4.623 5.9698 3.9678v-2.5117c-1.7109.182-2.0385-.29122-2.0385-1.6017v-6.261c.10921-4.3682-2.1841-7.4987-6.9527-7.4987-2.4753 0-4.7322 1.0192-5.8606 3.2397 0-2.9121-2.9849-3.6037-5.7878-2.9121z"/><path d="m305.81 164.91c-.91003-4.2226-4.5866-6.3338-8.3723-6.3338-4.623 0-9.3552 3.0941-9.3552 9.2096 0 6.079 4.6594 9.1368 9.246 9.1368 3.895 0 7.6807-2.1841 8.5907-6.6251h-3.83c-.80083 2.1841-2.8029 3.2397-4.7686 3.2033-2.6573-.0364-5.3146-1.9657-5.3146-5.715s2.8029-5.6422 5.4966-5.6786c1.8929-.0364 3.7493.91003 4.5138 2.8029z"/><path d="m323.04 160.36c-2.2933-1.0192-4.6958-1.6381-7.2075-1.6381-5.715-.10921-9.8648 3.0941-9.974 8.9183 0 4.9506 2.5845 9.246 7.9355 9.246 2.5845 0 5.0598-1.3833 6.0426-3.8222v.72803c0 2.9121 2.5845 3.2033 5.0962 2.7301v-2.6937c-1.9293.182-1.8929-.83724-1.8929-2.4389zm-3.8222 7.4623c-.1092 3.2397-1.6381 5.533-4.5866 5.533-3.2397 0-4.805-2.5117-4.805-5.715.1092-3.7857 2.3661-5.715 5.715-5.715 1.1284 0 2.4753.18201 3.6765.72803z"/><path d="m324.77 171.46c.29121 4.3682 4.1498 5.6058 8.0447 5.6058 3.895 0 7.6443-1.6745 7.6443-5.5694 0-4.1498-3.5673-4.7686-7.2439-5.2418-2.7301-.32762-4.1498-.65522-4.1862-2.1113-.10921-1.5653 1.7837-2.4389 3.6037-2.4389 1.8565 0 3.9678.54602 3.9678 2.2933h3.4945c.1092-3.4945-3.4217-5.2782-7.4623-5.2782-3.8221 0-7.4623 1.7473-7.4623 5.4966.1092 3.9678 4.1498 4.3682 7.7535 4.8414 2.2933.29121 3.9314.76443 3.9314 2.3661-.10921 2.1477-2.2569 2.6937-4.1862 2.6937-1.8929 0-3.895-.83724-4.0042-2.6573z"/><path d="m345.69 166.51c0-2.8757 2.0021-4.623 4.5138-4.623 2.4753 0 3.6402 1.1284 4.0406 3.4217.1092.76442.0728 1.7109.0728 6.6614 0 3.5674 1.6381 5.351 6.1518 4.5866l-.0364-2.7301c-1.9293.182-2.1113-.47322-2.1113-2.1113v-4.3682c0-.87363-.0364-1.6381-.14561-2.4753-.40041-3.4945-2.8393-6.079-6.5523-6.079-2.3297-.1456-4.6594.83723-5.9334 2.6937v-11.43h-3.9678v26.573h3.9678z"/><path d="m360.62 153.66c0 1.6017 1.2376 2.3661 2.4389 2.3661 1.1648 0 2.3297-.80083 2.3297-2.3661 0-1.5289-1.1648-2.3297-2.3661-2.3297-1.2012 0-2.4025.76443-2.4025 2.3297zm4.3682 5.6058h-3.9678v17.363h3.9678z"/><path d="m371.72 161.64c-.182-2.8393-3.0213-3.2761-5.6058-2.6937l.0364 2.6937c1.8929-.10921 1.8929.69163 1.8929 2.2569v12.74h3.9314v-10.156c0-2.8393 2.1113-4.3682 4.4774-4.3682 1.274 0 2.4389.36401 3.4945 1.0556l.98284-3.4217c-1.1284-.83723-2.5845-1.274-4.0406-1.2376-2.1477 0-4.4774 1.092-5.169 3.1305z"/><path d="m395.58 172.48c-1.5653.72803-3.7494 1.3105-5.7878 1.3105-3.8586.1092-6.5887-1.8565-6.4794-5.4966 1.6381.98284 3.9678 1.5653 6.261 1.4561 3.3489-.10921 6.5887-1.7109 6.7707-5.2054.18201-4.3318-4.0406-6.0062-7.8627-5.897-4.6594.1092-8.8091 3.0577-8.9184 8.7363-.29121 6.1882 3.7494 9.7556 9.974 9.5736 2.1841-.1092 4.2226-.36401 6.1518-1.3468zm-11.976-6.8435c.58242-2.6209 2.4753-3.8222 4.9142-3.8586 1.7837 0 4.1134.65523 4.0042 2.7301-.1092 1.8201-2.1113 2.5117-3.6765 2.5117-1.8201 0-3.9314-.47322-5.2418-1.3832z"/></g><path d="m128.11 56.155c.57193 8.5283 8.1078 10.951 15.711 10.951 7.6116 0 14.929-3.2717 14.929-10.883 0-8.0994-6.964-9.3105-14.147-10.236-5.3323-.63923-8.1078-1.2784-8.1751-4.1212-.21028-3.0615 3.482-4.7604 7.0397-4.7604 3.625 0 7.7462 1.0597 7.7462 4.4744h6.8294c.21019-6.821-6.6864-10.311-14.576-10.311-7.4686 0-14.576 3.4147-14.576 10.74.21028 7.7462 8.1078 8.5284 15.139 9.4535 4.4829.57191 7.6789 1.4971 7.6789 4.6258-.21029 4.1885-4.4072 5.2566-8.1751 5.2566-3.6922 0-7.6032-1.6317-7.8219-5.1894zm-18.772-34.694h-6.821l-.78219 10.589h-6.964v5.0548l6.964.49621v15.568c0 13.44 9.1676 16.14 20.9 12.515l-.78216-5.8285c-7.0397 2.4811-12.515 1.9176-12.515-6.8294v-15.425h11.876v-5.551h-11.876zm-22.322 27.587c-.2103 6.3247-3.196 10.808-8.9573 10.808-6.3248 0-9.3862-4.9118-9.3862-11.169.21869-7.3929 4.6258-11.161 11.161-11.161 2.2036 0 4.8361.36169 7.1827 1.4214zm7.4686-14.576c-4.4828-1.9933-9.176-3.2044-14.079-3.2044-11.161-.21019-19.269 6.0472-19.479 17.418 0 9.6722 5.0464 18.058 15.501 18.058 5.0464 0 9.8824-2.6998 11.8-7.4602v1.4214c0 5.6855 5.0464 6.2574 9.9497 5.3323v-5.2651c-3.768.3617-3.6923-1.6316-3.6923-4.7604zm-59.581 12.01c0-5.6099 3.9109-9.0246 8.8143-9.0246 4.8361 0 7.1154 2.2036 7.8976 6.6864.21026 1.4887.13455 3.339.13455 13.003 0 6.9724 3.2044 10.454 12.019 8.9573l-.0673-5.3324c-3.768.3617-4.1296-.91672-4.1296-4.1212v-8.5284c0-1.7073-.0673-3.2044-.27755-4.8361-.78218-6.821-5.551-11.876-12.801-11.876-4.5501-.27761-9.1003 1.6401-11.59 5.265v-22.323h-7.7462v51.893h7.7462zm-20.33-25.03h-6.8294l-.78218 10.589h-6.964v5.0548l6.964.49621v15.568c0 13.44 9.176 16.14 20.9 12.515l-.78218-5.8285c-7.0313 2.4811-12.507 1.9176-12.507-6.8294v-15.425h11.867v-5.551h-11.87z" fill="#ca3493"/><path d="m156.92396 10.43025c-.13459-.35323-.45416-.80742-.49623-1.1691-.084-.05911-.12612-.14303-.13459-.24406-.0589-.06712-.0589-.04211-.0757-.13458-.0673-.06712-.059-.05051-.084-.13457-.0757-.06712-.10922-.11765-.1346-.21865-.084-.06751-.10093-.15153-.19342-.21866-.017-.07562-.0673-.14303-.13458-.19354-.0421-.18509-.44577-.68965-.62238-.78216-.017-.09262-.13459-.19356-.21869-.24376-.0505-.23561-.52987-.56351-.70648-.74014-.23552-.21865-.49623-.43736-.73174-.67286-.10093-.0243-.29436-.20172-.37847-.27763-.12615-.09262-.29438-.20173-.38689-.31961-.0673-.0182-.14298-.06751-.18503-.13459-.0757-.01821-.14298-.06752-.19343-.14303-.28593-.05051-.46258-.37845-.75696-.46257-.0673-.06751-.11775-.10945-.21866-.13457-.0673-.05901-.0421-.05901-.13458-.07562-.0673-.06712-.0505-.05901-.1346-.08402-.0673-.06751-.0505-.05901-.14296-.08402-.0338-.06751-.10094-.10947-.18504-.10947-.0338-.06712-.10921-.10923-.19342-.10923-.0588-.10104-.23551-.17661-.35325-.18507-.13458-.21866-.65602-.37849-.89152-.48782-.3196-.1515-.63079-.30278-.95039-.43738-.75697-.3196-1.5307-.60553-2.3129-.86627-3.625-1.2111-7.4266-1.6653-11.245-1.741h-.26914c0-.14304-4.9454.34482-5.7276.46259-.77379.11764-1.5476.25223-2.3129.43733-1.0766.25224-2.1531.51304-3.2044.8663-.78219.26068-1.5476.54669-2.3045.86628-.31959.13459-.63921.28581-.95038.43735-.26072.11765-.58876.37849-.87471.40371-.059.10104-.22709.18508-.35325.19356-.0336.07562-.10093.10946-.18504.10946-.0338.07562-.10933.10924-.19342.10924-.059.05901-.0421.05901-.13457.08402-.0336.06751-.10104.10947-.18503.10104-.0673.07562-.11776.10946-.21867.14304-.0673.06712-.11773.10958-.2187.13459-.15979.23558-.53828.26068-.70649.51303-.0757.01821-.143.06751-.19343.13458-.24391.05911-.61398.42892-.81582.62239-.10093.0243-.31119.22712-.37849.328-.20184.04211-.44575.39532-.59715.54672-.1598.15967-.34482.39529-.53828.51302-.0336.15969-.31959.40372-.43734.54671-.13458.15967-.27754.39529-.43737.51303-.017.07562-.0673.14304-.13456.19354-.0252.13457-.1514.20172-.19344.35322-.0673.05911-.10934.10922-.13459.2102-.0589.06712-.0589.05051-.0757.14304-.0925.05051-.12615.14304-.13458.24406-.28598.17662-.46259.88311-.57193 1.1943-.32802.87473-.54671 1.8587-.4626 2.7923.0841.96722.20186 1.8419.5383 2.7503.13457.33642.45418.75697.49623 1.1102.084.05051.11771.14304.13458.24376.059.06751.059.04211.0757.13456.0926.05911.16823.1851.19345.30277.0673.04211.0673.08402.13458.13457.0421.22712.38689.57194.57191.75697.0252.14307.2271.26918.32801.37847.10935.13457.20186.2861.35325.38689.0336.18508.3953.42052.53829.56352.16819.16815.46257.3112.5719.52147.14301.0243.31121.25222.43735.35323.16823.12611.40372.22713.53828.40371.0757.0182.143.0671.19345.13458.31959.0591.51305.43733.84104.52143.059.0675.10934.10922.21869.13459.0673.059.0421.059.13458.0756.0673.0671.0421.0591.13458.084.0673.0675.0421.059.13458.084.0421.0756.10935.10924.19345.10924.059.0926.18501.1515.29437.15967.0673.10104.23551.17663.35325.19356.13457.20172.59714.32801.81581.42892.26916.13457.53828.26915.81583.3869.65603.26915 1.3121.52144 1.9849.75694.86631.31118 1.741.5635 2.6325.79059.55512.13458 1.1186.26917 1.6821.37849.35325.0675.70649.13458 1.0597.19355.31961.0505.84107.0243 1.1186.18509-.15139.5383-.40371 1.0682-.6308 1.5728-.16821.37849-.5551.87469-.59715 1.2784-.0673.0337-.10934.10923-.10934.19355-.0673.0336-.10934.10105-.10934.18509-.059.0671-.059.0505-.0757.13459-.0673.0675-.059.0505-.0841.14304-.0757.0591-.10922.10922-.13459.21019-.14298.0926-.15138.28579-.30277.38686-.0336.15968-.2355.37007-.35324.51307-.10922.14305-.2271.30277-.35325.43733-.2355.25223-.57194.46259-.75696.75698-.10933.0243-.32801.23558-.40372.32801-.0757.0182-.14297.0671-.19341.13458-.0673.0182-.12615.0505-.1598.10955h.2439c.007.20171 2.8848-.61398 3.2801-.75697.30279-.11765.58874-.24375.8747-.38686.20186-.10104.47941-.3028.7065-.31959.0505-.0926.14298-.12613.24391-.14306.0337-.0671.10093-.10946.18502-.10946.0673-.059.0505-.0505.13458-.0756.0673-.0671.0505-.0591.14298-.084.059-.059.0421-.059.13458-.084.0673-.10103.25232-.21018.37849-.24404.12617-.18507.40372-.20173.54668-.40372.0673-.0182.143-.0671.18503-.13457.21026-.0421.43735-.3196.62237-.46258.21027-.15969.43735-.30279.63081-.48783.25229-.0505.61396-.51305.81582-.68127.2271-.20171.56352-.41212.7317-.68124.22712-.0422.60558-.55511.78222-.73173.0673-.059.12616-.16814.19342-.21865.34482-.23557.98403-.13457 1.413-.15967.82424-.059 1.6485-.13459 2.4727-.24376 1.6989-.22713 3.3726-.58033 5.0211-1.0345 1.0177-.27763 2.0102-.64762 2.9858-1.0345.41211-.15151.79901-.33642 1.1943-.51303.31118-.13457.73172-.45419 1.0597-.4878.0673-.10105.2355-.17663.35325-.19357.059-.084.14298-.12611.2439-.13458.0421-.0756.10922-.10946.19343-.10946.0673-.059.0421-.059.13457-.0756.0673-.0675.0421-.059.13458-.084.0673-.0671.0505-.0591.13458-.084.0673-.059.0505-.059.14299-.0756.059-.0756.10923-.10923.21028-.14305.17662-.26068.59716-.28609.79058-.56351.15141-.0336.35325-.23558.48783-.32802.13458-.0926.28597-.23557.41212-.35326.14299-.0336.4794-.34481.56351-.48781.12615-.0243.33643-.26915.41212-.37847.15979-.0336.35324-.31962.46257-.43736.13458-.14304.26075-.36164.42896-.46259.0252-.10922.19343-.2522.27754-.35324.10093-.13455.19341-.30277.31959-.40368.0337-.17662.22709-.26918.27754-.4626.0757-.06751.10933-.11766.13457-.21865.059-.06712.059-.04211.0841-.13459.059-.06712.059-.05051.0757-.13458.2607-.16815.45415-.83262.57193-1.1186.29424-.72332.4794-1.5055.54667-2.2793.0926-1.1102-.10103-2.2961-.48784-3.339" fill="#ca3493"/><path d="m144.72006 8.7221065-4.9034 11.4800005h-.79902l-4.9454-11.4800005v-.2861001h2.0606l1.6737 4.0371006 1.598 4.3146h.0505l1.5307-4.2305 1.68209-4.1212006h2.05221zm-18.116 7.1322005v-5.054l-2.2625-.16815v-1.6401008h2.2625l.26073-3.4398998h2.212v3.4398998h3.8605v1.8083008h-3.8605v5.0127c0 2.8344 1.783 3.0194 4.0707 2.212l.25233 1.8924c-3.81 1.1859-6.7958.30279-6.7958-4.0623" fill="#fff"/></svg>