<?xml version="1.0" encoding="UTF-8" standalone="no"?>
<svg
   xmlns:dc="http://purl.org/dc/elements/1.1/"
   xmlns:cc="http://creativecommons.org/ns#"
   xmlns:rdf="http://www.w3.org/1999/02/22-rdf-syntax-ns#"
   xmlns:svg="http://www.w3.org/2000/svg"
   xmlns="http://www.w3.org/2000/svg"
   xmlns:sodipodi="http://sodipodi.sourceforge.net/DTD/sodipodi-0.dtd"
   xmlns:inkscape="http://www.inkscape.org/namespaces/inkscape"
   width="274.65332pt"
   height="179.81387pt"
   viewBox="0 0 274.65332 179.81387"
   version="1.1"
   id="svg41"
   sodipodi:docname="Thats Norfolk - Dark.svg"
   inkscape:version="0.92.1 r15371">
  <metadata
     id="metadata47">
    <rdf:RDF>
      <cc:Work
         rdf:about="">
        <dc:format>image/svg+xml</dc:format>
        <dc:type
           rdf:resource="http://purl.org/dc/dcmitype/StillImage" />
        <dc:title></dc:title>
      </cc:Work>
    </rdf:RDF>
  </metadata>
  <defs
     id="defs45" />
  <sodipodi:namedview
     pagecolor="#ffffff"
     bordercolor="#666666"
     borderopacity="1"
     objecttolerance="10"
     gridtolerance="10"
     guidetolerance="10"
     inkscape:pageopacity="0"
     inkscape:pageshadow="2"
     inkscape:window-width="1920"
     inkscape:window-height="1017"
     id="namedview43"
     showgrid="false"
     fit-margin-top="0"
     fit-margin-left="0"
     fit-margin-right="0"
     fit-margin-bottom="0"
     inkscape:zoom="2.4583333"
     inkscape:cx="208.41355"
     inkscape:cy="70.82015"
     inkscape:window-x="-8"
     inkscape:window-y="-8"
     inkscape:window-maximized="1"
     inkscape:current-layer="svg41" />
  <g
     id="g4613"
     transform="translate(-6.74,-52.628293)">
    <path
       inkscape:connector-curvature="0"
       id="path12-0"
       d="m 148.93252,231.23385 h 8.57467 v -31.9722 h 13.06257 v -6.58735 h -13.06257 v -5.06104 c 0,-9.63995 7.61316,-10.44337 14.42475,-7.63173 l 0.96162,-6.10543 c -12.10082,-4.01666 -23.80098,-1.687 -23.80098,13.57629 v 5.22168 H 141.8 v 6.58735 h 7.13217 z"
       style="fill:#65256e;stroke-width:2.32136798" />
    <path
       d="m 245.06871,172.20031 8.77459,0.0267 -0.15549,35.18281 c 3.34101,-0.0133 6.84641,0.43984 10.01859,-0.8708 3.19884,-1.16846 5.6113,-4.04742 6.45099,-7.32179 0.69308,-2.2614 0.87969,-4.63387 0.88857,-6.98857 l 8.26812,-0.0311 c 0.13328,4.80271 -0.53314,9.95639 -3.52761,13.88386 -1.68828,2.30583 -4.05631,4.01632 -6.64204,5.18923 l 12.2489,19.9661 -8.8679,0.004 -10.72056,-17.14489 -8.12151,0.42651 0.16439,16.62509 -8.77904,0.0844 z"
       id="path7"
       inkscape:connector-curvature="0"
       style="opacity:1;fill:#65256e;fill-opacity:1;stroke-width:0.44428352"
       sodipodi:nodetypes="cccccccccccccccc" />
    <path
       inkscape:connector-curvature="0"
       id="path24"
       d="m 118.87103,198.64415 c -0.39548,-6.1696 -6.56508,-7.11874 -12.18103,-5.85322 l 0.0791,5.85322 c 4.11315,-0.23731 4.11315,1.50286 4.11315,4.90409 v 27.68314 h 8.54267 v -22.06829 c 0,-6.1696 4.5877,-9.4918 9.72907,-9.4918 2.76832,0 5.29957,0.79097 7.59332,2.29375 l 2.13564,-7.43512 c -2.45194,-1.81925 -5.61595,-2.76831 -8.77995,-2.68922 -4.6668,0 -9.72908,2.37284 -11.23188,6.80236 z"
       style="fill:#65256e;fill-opacity:1;stroke-width:2.17293143" />
    <path
       inkscape:connector-curvature="0"
       id="path12-7"
       d="m 10.589548,198.06486 c 4.70664,-0.39887 4.46733,1.19659 4.46733,6.30203 v 26.72288 h 8.69534 v -22.33554 c 0,-6.22226 4.30779,-9.97166 9.73235,-9.97166 5.18526,0 9.17397,3.66963 9.17397,9.73235 v 13.72084 c 0,9.17397 5.74364,10.13121 13.08269,8.69535 v -5.50433 c -3.74941,0.39885 -4.46734,-0.6382 -4.46734,-3.5101 v -13.72084 c 0.23933,-9.57281 -4.7864,-16.43323 -15.23668,-16.43323 -5.42456,0 -10.37051,2.23355 -12.84337,7.09973 0,-6.3818 -6.54135,-7.89743 -12.68384,-6.3818 z"
       style="fill:#65256e;fill-opacity:1;stroke-width:2.19147778" />
    <path
       inkscape:connector-curvature="0"
       id="path12"
       d="m 222.73,172.21642 v 45.47933 c 0,13.07539 5.52248,16.16107 17.54212,14.21222 l -0.32486,-6.82184 c -6.74063,1.05576 -8.44613,-0.97454 -8.44613,-7.47157 v -45.39752 z"
       style="fill:#65256e;stroke-width:1.23972571" />
    <path
       inkscape:connector-curvature="0"
       id="path10-0"
       d="m 215.14686,212.04209 c 0,-13.4026 -9.60823,-20.18525 -20.2666,-20.2666 -10.33493,-0.0807 -20.83109,6.62082 -20.83109,20.2666 0,13.48396 10.17348,20.26661 20.42806,20.34672 10.33495,0.0807 20.66963,-6.70155 20.66963,-20.34672 z m -32.3775,0 c 0,-8.47788 6.13632,-12.51517 12.11128,-12.51517 5.89411,0 11.4653,4.27936 11.4653,12.51517 0,8.39716 -5.89411,12.59529 -11.78834,12.59529 -5.89412,0 -11.78836,-4.19851 -11.78836,-12.59529 z"
       style="fill:#65256e;stroke-width:1.23253667" />
    <path
       inkscape:connector-curvature="0"
       id="path10"
       d="m 102.52692,211.98981 c 0,-13.4026 -9.608228,-20.18525 -20.266598,-20.2666 -10.33494,-0.0807 -20.8311,6.62082 -20.8311,20.2666 0,13.48396 10.17348,20.26661 20.42807,20.34672 10.33494,0.0807 20.669628,-6.70155 20.669628,-20.34672 z m -32.377498,0 c 0,-8.47788 6.13631,-12.51517 12.11127,-12.51517 5.89412,0 11.46531,4.27936 11.46531,12.51517 0,8.39716 -5.89412,12.59529 -11.78835,12.59529 -5.89412,0 -11.78835,-4.19851 -11.78835,-12.59529 z"
       style="fill:#65256e;stroke-width:1.23253667" />
  </g>
  <g
     id="g824"
     transform="matrix(1.0962354,0,0,1.0962354,-3.8848147,90.847927)">
    <path
       d="m 205.39025,5.6038972 c 0.90111,13.4370648 12.77438,17.2538448 24.75413,17.2538448 11.99254,0 23.52063,-5.154782 23.52063,-17.1478278 0,-12.7612486 -10.97226,-14.6693861 -22.28881,-16.1270352 -8.40143,-1.007128 -12.77438,-2.014155 -12.88039,-6.493289 -0.33133,-4.823605 5.48612,-7.500281 11.09156,-7.500281 5.71146,0 12.20458,1.669666 12.20458,7.049793 h 10.76022 c 0.33116,-10.746926 -10.5349,-16.246347 -22.9653,-16.246347 -11.76739,0 -22.9653,5.38011 -22.9653,16.922332 0.33131,12.2045749 12.77437,13.4370645 23.85214,14.894714 7.06308,0.90109393 12.09855,2.35879392 12.09855,7.2882475 -0.33132,6.5991375 -6.94377,8.2821145 -12.88039,8.2821145 -5.81747,0 -11.97924,-2.570828 -12.32388,-8.1762658 z M 175.8132,-49.058801 h -10.74693 l -1.23239,16.683541 h -10.97225 v 7.964232 l 10.97225,0.781817 V 0.89941843 c 0,21.17647357 14.44406,25.42893257 32.92922,19.71747757 l -1.23238,-9.183259 C 184.43916,15.342803 175.81325,14.454953 175.81325,0.67341712 V -23.629716 h 18.71115 v -8.745897 h -18.71115 z m -35.16904,43.4652844 c -0.33133,9.9650925 -5.03564,17.0283486 -14.11288,17.0283486 -9.96509,0 -14.7887,-7.7389041 -14.7887,-17.598821 0.34456,-11.64807 7.28825,-17.585358 17.58536,-17.585358 3.47197,0 7.61959,0.569866 11.31673,2.239482 z m 11.76721,-22.9653004 c -7.06308,-3.140458 -14.45735,-5.048764 -22.18279,-5.048764 -17.58536,-0.331177 -30.359563,9.527898 -30.691077,27.4432555 0,15.2391854 7.950937,28.4512585 24.422617,28.4512585 7.95093,0 15.57053,-4.253805 18.59167,-11.754087 v 2.239483 c 0,8.957931 7.95094,9.859075 15.67655,8.401426 v -8.295409 c -5.93661,0.569866 -5.81747,-2.570828 -5.81747,-7.5002818 z M 58.537535,-9.6356248 c 0,-8.8387882 6.161943,-14.2188982 13.887553,-14.2188982 7.619593,0 11.210708,3.471973 12.443197,10.53506 0.331278,2.3455 0.212001,5.2607989 0.212001,20.4865219 0,10.9855481 5.048765,16.4716751 18.936654,14.1128811 l -0.10602,-8.401426 C 97.974308,13.448381 97.404509,11.434142 97.404509,6.3852256 V -7.0518392 c 0,-2.6899708 -0.106017,-5.0487648 -0.437295,-7.6195928 -1.232389,-10.746926 -8.745897,-18.711158 -20.168471,-18.711158 -7.169104,-0.437396 -14.338041,2.584122 -18.260165,8.295409 V -60.256215 H 46.334003 V 21.504763 H 58.538578 Z M 26.508623,-49.058801 H 15.748404 L 14.516032,-32.37526 H 3.5437778 v 7.964232 l 10.9722542,0.781817 V 0.89941843 c 0,21.17647357 14.457352,25.42893257 32.929214,19.71747757 L 46.212858,11.433637 C 35.134587,15.342803 26.507159,14.454953 26.507159,0.67341712 V -23.629716 h 18.697696 v -8.745897 H 26.507159 Z"
       id="path20"
       inkscape:connector-curvature="0"
       style="fill:#ca3493;stroke-width:1.68280935" />
    <path
       sodipodi:nodetypes="cccccccccccccccccccccccccccccccccccccccccccccccccccccccccccccccccccccccccccccccccccccccccccccccccccccccccccccccccccccccccccccccccccccccccccccccccccc"
       d="m 250.78565,-66.439412 c -0.21205,-0.556538 -0.71554,-1.272136 -0.78183,-1.842003 -0.13244,-0.09306 -0.19871,-0.225362 -0.21205,-0.384539 -0.0929,-0.10568 -0.0929,-0.0663 -0.11931,-0.212034 -0.10602,-0.10568 -0.0929,-0.0796 -0.13244,-0.212017 -0.11931,-0.10568 -0.1721,-0.185378 -0.21207,-0.344504 -0.13243,-0.106354 -0.15902,-0.238741 -0.30474,-0.344522 -0.0267,-0.119143 -0.10601,-0.225362 -0.21205,-0.304942 -0.0663,-0.291631 -0.70234,-1.086607 -0.98059,-1.232372 -0.0267,-0.145899 -0.21207,-0.304958 -0.34457,-0.384051 -0.0796,-0.37121 -0.83486,-0.88785 -1.11313,-1.166136 -0.37106,-0.344488 -0.78183,-0.689094 -1.15289,-1.060136 -0.15903,-0.0382 -0.4638,-0.317816 -0.5963,-0.437413 -0.19876,-0.145899 -0.46382,-0.317832 -0.60958,-0.503564 -0.10602,-0.02878 -0.22528,-0.106353 -0.29152,-0.212051 -0.11931,-0.02861 -0.22528,-0.106353 -0.30475,-0.225361 -0.45053,-0.0796 -0.72885,-0.596287 -1.19265,-0.728808 -0.10601,-0.106354 -0.18554,-0.172455 -0.34453,-0.212034 -0.10602,-0.09306 -0.0663,-0.09306 -0.21204,-0.119143 -0.10601,-0.105681 -0.0796,-0.09306 -0.21207,-0.132437 -0.10601,-0.106354 -0.0796,-0.09306 -0.22526,-0.132437 -0.0532,-0.106354 -0.15902,-0.172455 -0.29153,-0.172455 -0.0532,-0.10568 -0.17208,-0.172101 -0.30475,-0.172101 -0.0927,-0.159193 -0.37105,-0.278269 -0.55656,-0.291597 -0.21205,-0.344521 -1.03361,-0.596337 -1.40466,-0.768589 -0.50356,-0.238707 -0.99386,-0.47706 -1.49741,-0.689128 -1.19266,-0.503547 -2.4118,-0.954068 -3.64412,-1.364876 -5.71146,-1.908306 -11.70108,-2.623836 -17.71662,-2.742979 h -0.42405 c 0,-0.225379 -7.79192,0.543295 -9.02424,0.728858 -1.21916,0.185345 -2.43822,0.397396 -3.64412,0.689043 -1.69627,0.397413 -3.39238,0.808321 -5.04877,1.36491 -1.2324,0.41074 -2.43822,0.861363 -3.63082,1.36491 -0.50355,0.212051 -1.00713,0.450303 -1.4974,0.68906 -0.41079,0.185378 -0.92763,0.596337 -1.37817,0.636085 -0.0929,0.159194 -0.3578,0.291614 -0.55657,0.304959 -0.053,0.119143 -0.15903,0.172454 -0.29153,0.172454 -0.0532,0.119143 -0.17227,0.172101 -0.30476,0.172101 -0.0929,0.09306 -0.0663,0.09306 -0.21204,0.132437 -0.053,0.106354 -0.15919,0.172455 -0.29151,0.159194 -0.10602,0.119143 -0.18555,0.172454 -0.34454,0.225379 -0.10601,0.10568 -0.18549,0.172639 -0.34457,0.21205 -0.25176,0.371178 -0.84808,0.410724 -1.11313,0.808321 -0.11931,0.02861 -0.22529,0.106354 -0.30475,0.212051 -0.38431,0.09306 -0.96738,0.675799 -1.2854,0.980607 -0.15903,0.0382 -0.4903,0.357849 -0.59632,0.51679 -0.31802,0.0663 -0.70232,0.622859 -0.94086,0.86138 -0.25178,0.25158 -0.5433,0.622825 -0.8481,0.808304 -0.053,0.251614 -0.50355,0.636085 -0.68906,0.86138 -0.21205,0.25158 -0.4373,0.622824 -0.6891,0.80832 -0.0267,0.119143 -0.10601,0.225379 -0.21201,0.304959 -0.0397,0.212017 -0.23856,0.317815 -0.30479,0.556522 -0.10602,0.09306 -0.17227,0.172084 -0.21204,0.331177 -0.0929,0.10568 -0.0929,0.0796 -0.11931,0.225378 -0.14573,0.0796 -0.19876,0.225379 -0.21203,0.384539 -0.45057,0.27827 -0.72884,1.391397 -0.90111,1.881718 -0.51683,1.378187 -0.86138,2.928593 -0.72886,4.399537 0.1326,1.523901 0.31803,2.902004 0.84812,4.333234 0.21203,0.530051 0.71558,1.192657 0.78185,1.74928 0.13243,0.0796 0.18548,0.225362 0.21203,0.384051 0.0929,0.106353 0.0929,0.0663 0.11931,0.212017 0.1459,0.09306 0.26504,0.291631 0.30478,0.477026 0.10601,0.0663 0.10601,0.132437 0.21205,0.212034 0.0663,0.357849 0.60956,0.901128 0.90107,1.192658 0.0397,0.225395 0.35782,0.424101 0.51681,0.596303 0.17229,0.212034 0.31805,0.450757 0.55657,0.609581 0.053,0.291597 0.62283,0.662556 0.84811,0.88785 0.26501,0.264925 0.72882,0.49032 0.90107,0.821615 0.22531,0.0382 0.49034,0.397396 0.6891,0.556539 0.26502,0.198706 0.63607,0.357849 0.84808,0.636068 0.11931,0.02878 0.2253,0.105681 0.30478,0.212051 0.50354,0.09306 0.80835,0.689043 1.32512,0.821547 0.0929,0.106354 0.17229,0.172085 0.34458,0.212068 0.10601,0.09306 0.0663,0.09306 0.21205,0.119143 0.10601,0.10568 0.0663,0.09306 0.21201,0.132437 0.10602,0.106354 0.0663,0.09306 0.21206,0.132437 0.0663,0.119143 0.17228,0.172101 0.30479,0.172101 0.0929,0.1459 0.29149,0.238723 0.46379,0.251597 0.10602,0.159194 0.37106,0.278269 0.55658,0.304959 0.21203,0.317815 0.94084,0.51679 1.28538,0.675799 0.42405,0.212034 0.84808,0.424068 1.28539,0.609581 1.03362,0.424068 2.06717,0.821564 3.12734,1.192607 1.36492,0.490303 2.74298,0.88785 4.14779,1.245632 0.87462,0.212051 1.7624,0.424102 2.65025,0.596338 0.55658,0.106353 1.11313,0.21205 1.66969,0.304958 0.50358,0.0796 1.32516,0.0382 1.7624,0.291614 -0.23854,0.848136 -0.63608,1.682978 -0.99388,2.478105 -0.26501,0.596338 -0.87459,1.378154 -0.94084,2.014155 -0.10602,0.05301 -0.17227,0.172101 -0.17227,0.304959 -0.10602,0.05301 -0.17227,0.159194 -0.17227,0.291614 -0.0929,0.10568 -0.0929,0.0796 -0.11931,0.212067 -0.10602,0.106354 -0.0929,0.0796 -0.13261,0.225362 -0.11931,0.09306 -0.17208,0.172084 -0.21205,0.331177 -0.22528,0.1459 -0.23852,0.450269 -0.47704,0.609531 -0.053,0.25158 -0.37104,0.583059 -0.55656,0.808354 -0.1721,0.225395 -0.35781,0.47706 -0.55657,0.68906 -0.37104,0.397395 -0.90113,0.728825 -1.19262,1.192657 -0.17227,0.0382 -0.51683,0.371194 -0.63611,0.516808 -0.11931,0.02861 -0.22526,0.10568 -0.30474,0.212034 -0.10601,0.02861 -0.19875,0.0796 -0.25178,0.172623 h 0.38431 c 0.0118,0.317815 4.54526,-0.96738 5.16807,-1.192658 0.47706,-0.185378 0.9276,-0.384051 1.37816,-0.60953 0.31805,-0.159194 0.75532,-0.477077 1.11312,-0.503547 0.0796,-0.1459 0.22528,-0.198723 0.38431,-0.225396 0.0532,-0.10568 0.15902,-0.172454 0.29151,-0.172454 0.10602,-0.09306 0.0796,-0.0796 0.21205,-0.119143 0.10602,-0.105681 0.0796,-0.09306 0.22526,-0.132437 0.0929,-0.09306 0.0663,-0.09306 0.21205,-0.132437 0.10602,-0.159194 0.39755,-0.331144 0.59632,-0.384522 0.19881,-0.291581 0.63609,-0.317816 0.86135,-0.636069 0.10602,-0.02861 0.22529,-0.10568 0.29153,-0.212017 0.33128,-0.0663 0.68907,-0.503564 0.98059,-0.728841 0.33129,-0.251597 0.68907,-0.47706 0.99388,-0.768607 0.39752,-0.0796 0.96735,-0.808354 1.28538,-1.07338 0.3578,-0.317815 0.88787,-0.649329 1.15286,-1.073346 0.35782,-0.0663 0.95412,-0.874623 1.23242,-1.152893 0.10602,-0.09306 0.19878,-0.264924 0.30476,-0.344504 0.5433,-0.371161 1.55042,-0.212018 2.22619,-0.251564 1.29866,-0.09306 2.59725,-0.212067 3.89604,-0.384067 2.67684,-0.357866 5.31381,-0.914338 7.91105,-1.629936 1.60344,-0.437429 3.16705,-1.020354 4.7043,-1.629952 0.64931,-0.238723 1.25889,-0.530051 1.88172,-0.808321 0.49028,-0.212017 1.15287,-0.715598 1.66968,-0.768573 0.10602,-0.159193 0.37104,-0.278269 0.55655,-0.304958 0.0929,-0.132437 0.22528,-0.198706 0.38429,-0.212051 0.0663,-0.119143 0.1721,-0.172454 0.30476,-0.172454 0.10601,-0.09306 0.0663,-0.09306 0.21203,-0.119143 0.10602,-0.106354 0.0663,-0.09306 0.21204,-0.132437 0.10601,-0.105681 0.0796,-0.09306 0.21205,-0.132437 0.10601,-0.09306 0.0796,-0.09306 0.22529,-0.119143 0.0929,-0.119143 0.17209,-0.172084 0.3313,-0.225379 0.27827,-0.410723 0.94085,-0.450757 1.24563,-0.88785 0.23854,-0.05301 0.55657,-0.371178 0.7686,-0.516808 0.21204,-0.145899 0.45058,-0.37116 0.64933,-0.556589 0.22528,-0.05301 0.75533,-0.543278 0.88785,-0.76859 0.19874,-0.0382 0.53006,-0.424068 0.64932,-0.59632 0.25176,-0.05301 0.55655,-0.503564 0.72882,-0.689077 0.21203,-0.225378 0.41081,-0.569782 0.67583,-0.728825 0.0397,-0.1721 0.30478,-0.397378 0.4373,-0.556572 0.15902,-0.212 0.30474,-0.477026 0.50355,-0.636018 0.0532,-0.278286 0.35778,-0.424118 0.43727,-0.728858 0.11931,-0.106354 0.17227,-0.185378 0.21204,-0.344505 0.0929,-0.10568 0.0929,-0.0663 0.1326,-0.212051 0.0929,-0.10568 0.0929,-0.0796 0.11931,-0.212051 0.41076,-0.264924 0.71557,-1.31185 0.90111,-1.762406 0.46362,-1.139649 0.75535,-2.372088 0.86135,-3.591115 0.1459,-1.749112 -0.15919,-3.617704 -0.76862,-5.260799"
       id="path22"
       inkscape:connector-curvature="0"
       style="fill:#ca3493;stroke-width:1.68280935" />
    <path
       sodipodi:nodetypes="ccccccccccccccccccccccccsccc"
       d="m 231.55774,-69.129735 -7.72561,18.088519 h -1.25891 l -7.79141,-18.090202 v -0.450757 h 3.24665 l 2.63696,6.36068 2.51782,6.798047 h 0.0796 l 2.41181,-6.66544 2.65025,-6.493287 h 3.23335 z m -28.54382,11.237297 v -7.964234 l -3.56469,-0.264924 v -2.584122 h 3.56469 l 0.4108,-5.419824 h 3.48509 v 5.419824 h 6.08235 v 2.849164 h -6.08235 v 7.897931 c 0,4.46584 2.80929,4.757303 6.4137,3.485099 l 0.39756,2.981601 c -6.00292,1.868424 -10.70721,0.477077 -10.70721,-6.400397"
       id="path22-1"
       inkscape:connector-curvature="0"
       style="fill:#ffffff;fill-opacity:1;stroke-width:1.68280935" />
  </g>
</svg>
