<?xml version="1.0" encoding="UTF-8" standalone="no"?>
<svg
   xmlns:dc="http://purl.org/dc/elements/1.1/"
   xmlns:cc="http://creativecommons.org/ns#"
   xmlns:rdf="http://www.w3.org/1999/02/22-rdf-syntax-ns#"
   xmlns:svg="http://www.w3.org/2000/svg"
   xmlns="http://www.w3.org/2000/svg"
   xmlns:sodipodi="http://sodipodi.sourceforge.net/DTD/sodipodi-0.dtd"
   xmlns:inkscape="http://www.inkscape.org/namespaces/inkscape"
   height="406.87918"
   width="598.45007"
   version="1.1"
   viewBox="0 0 158.33992 107.65381"
   id="svg2"
   inkscape:version="0.91 r13725"
   sodipodi:docname="Thats Cambridge.svg"
   inkscape:export-filename="C:\Users\Jasmeet\Desktop\Thats Oxford.png"
   inkscape:export-xdpi="601.55396"
   inkscape:export-ydpi="601.55396">
  <metadata
     id="metadata38">
    <rdf:RDF>
      <cc:Work
         rdf:about="">
        <dc:format>image/svg+xml</dc:format>
        <dc:type
           rdf:resource="http://purl.org/dc/dcmitype/StillImage" />
        <dc:title></dc:title>
      </cc:Work>
    </rdf:RDF>
  </metadata>
  <defs
     id="defs36" />
  <sodipodi:namedview
     pagecolor="#ffffff"
     bordercolor="#666666"
     borderopacity="1"
     objecttolerance="10"
     gridtolerance="10"
     guidetolerance="10"
     inkscape:pageopacity="0"
     inkscape:pageshadow="2"
     inkscape:window-width="1920"
     inkscape:window-height="1017"
     id="namedview34"
     showgrid="false"
     fit-margin-top="0"
     fit-margin-left="0"
     fit-margin-right="0"
     fit-margin-bottom="0"
     inkscape:zoom="0.96"
     inkscape:cx="94.673973"
     inkscape:cy="311.98961"
     inkscape:window-x="-8"
     inkscape:window-y="-8"
     inkscape:window-maximized="1"
     inkscape:current-layer="svg2" />
  <path
     style="fill:#ca3493"
     inkscape:connector-curvature="0"
     id="path30"
     d="m 127.78019,55.999796 c 0.57043,8.5061 8.0867,10.922 15.67,10.922 7.5918,0 14.89,-3.2632 14.89,-10.855 0,-8.0783 -6.9458,-9.2863 -14.11,-10.209 -5.3184,-0.63755 -8.0867,-1.2751 -8.1538,-4.1105 -0.20974,-3.0535 3.4729,-4.748 7.0213,-4.748 3.6155,0 7.726,1.057 7.726,4.4628 l 6.8116,0 c 0.20963,-6.8032 -6.669,-10.285 -14.538,-10.285 -7.4492,0 -14.538,3.4058 -14.538,10.712 0.20973,7.726 8.0867,8.5061 15.1,9.4289 4.4712,0.57043 7.6589,1.4932 7.6589,4.6138 -0.20974,4.1776 -4.3957,5.2429 -8.1538,5.2429 -3.6826,0 -7.5834,-1.6274 -7.8015,-5.1758 z m -18.724,-34.603 -6.8032,0 -0.78014,10.561 -6.945798,0 0,5.0416 6.945798,0.49493 0,15.527 c 0,13.405 9.1437,16.098 20.846,12.482 l -0.78014,-5.8134 c -7.0214,2.4747 -12.482,1.9126 -12.482,-6.8116 l 0,-15.385 11.845,0 0,-5.5365 -11.845,0 z m -22.263998,27.515 c -0.20974,6.3083 -3.1877,10.779 -8.934,10.779 -6.3083,0 -9.3618,-4.899 -9.3618,-11.14 0.21812,-7.3737 4.6138,-11.132 11.132,-11.132 2.1978,0 4.8235,0.36074 7.1639,1.4177 z m 7.4491,-14.538 c -4.4712,-1.9881 -9.152,-3.1961 -14.043,-3.1961 -11.132,-0.20964 -19.218,6.0315 -19.428,17.373 0,9.647 5.0332,18.011 15.46,18.011 5.0332,0 9.8567,-2.6928 11.769,-7.4408 l 0,1.4177 c 0,5.6707 5.0332,6.2412 9.9238,5.3184 l 0,-5.2513 c -3.7581,0.36074 -3.6826,-1.6274 -3.6826,-4.748 z m -59.425,11.979 c 0,-5.5953 3.9007,-9.0011 8.7913,-9.0011 4.8235,0 7.0968,2.1978 7.877,6.669 0.20973,1.4848 0.13422,3.3303 0.13422,12.969 0,6.9542 3.1961,10.427 11.987,8.934 l -0.0671,-5.3184 c -3.7581,0.36074 -4.1188,-0.91435 -4.1188,-4.1104 l 0,-8.5061 c 0,-1.7029 -0.0671,-3.1961 -0.27682,-4.8235 -0.78015,-6.8032 -5.5365,-11.845 -12.768,-11.845 -4.5383,-0.2769 -9.0766,1.6358 -11.56,5.2513 l 0,-22.264 -7.726,0 0,51.758 7.726,0 z m -20.279,-24.95 -6.8116004,0 -0.78015,10.561 -6.94579998302,0 0,5.0416 6.94579998302,0.49493 0,15.527 c 0,13.405 9.1521004,16.098 20.8460004,12.482 l -0.78015,-5.8134 c -7.0129,2.4747 -12.474,1.9126 -12.474,-6.8116 l 0,-15.385 11.836,0 0,-5.5365 -11.836,0 z" />
  <g
     id="#ffffffff"
     transform="matrix(0.33073028,0,0,0.33073026,-25.775751,102.51373)" />
  <path
     style="opacity:1;fill:#ffffff;fill-opacity:1;stroke:#ffffff;stroke-width:0.68406016;stroke-linecap:square;stroke-linejoin:miter;stroke-miterlimit:4;stroke-dasharray:none;stroke-opacity:1"
     inkscape:connector-curvature="0"
     id="path6"
     d="m 69.364022,71.06173 c 0.949104,0 1.89821,0 2.850164,0 0,3.434446 0,6.868893 0,10.300489 2.317182,-1.256922 5.101792,-1.866864 7.69259,-1.174264 1.895358,0.470276 3.61116,1.673039 4.657168,3.32329 1.761396,2.605051 1.98941,6.022388 1.122966,8.989408 -0.695439,2.277282 -2.499595,4.175495 -4.762625,4.936481 -3.773617,1.276872 -7.917754,0.66409 -11.560263,-0.749587 0.0028,-8.541932 0,-17.083874 0,-25.625817 m 2.739008,13.025247 c 0.03421,3.582652 0.03421,7.168154 0,10.750816 2.305781,0.880693 4.922231,1.262622 7.313518,0.490225 1.58469,-0.475975 2.890064,-1.750008 3.454397,-3.30049 0.544384,-1.413678 0.544384,-2.975571 0.344869,-4.457656 -0.32207,-1.97516 -1.482084,-3.944632 -3.374592,-4.762616 -2.550896,-1.083068 -5.58917,-0.35628 -7.738192,1.279721 z" />
  <path
     style="fill:#ffffff;fill-opacity:1"
     d="m 18.42476,86.081243 c -0.939045,-4.35723 -4.732836,-6.535736 -8.639239,-6.535736 -4.7703972,0 -9.6534767,3.192745 -9.6534767,9.503231 0,6.272823 4.8079586,9.428109 9.5407958,9.428109 4.0191869,0 7.9255879,-2.253738 8.8646029,-6.836324 l -3.952115,0 c -0.826364,2.253737 -2.892267,3.34299 -4.9206393,3.305434 -2.7420248,-0.03757 -5.4840491,-2.028379 -5.4840491,-5.897219 0,-3.868839 2.8922668,-5.822096 5.6718518,-5.859652 1.9532516,-0.03757 3.8688406,0.93904 4.6577146,2.892265 z"
     id="path14-8"
     inkscape:connector-curvature="0" />
  <path
     style="fill:#ffffff;fill-opacity:1"
     d="m 36.204113,81.423738 c -2.366417,-1.051697 -4.845516,-1.690333 -7.4373,-1.690333 -5.897214,-0.112689 -10.179324,3.192746 -10.292005,9.202644 0,5.108446 2.666901,9.540798 8.188511,9.540798 2.666903,0 5.221124,-1.427409 6.235258,-3.94407 l 0,0.751249 c 0,3.004944 2.666903,3.305435 5.258686,2.817142 l 0,-2.779586 c -1.990813,0.187802 -1.95325,-0.863928 -1.95325,-2.516662 z m -3.944066,7.70022 c -0.11268,3.342991 -1.690328,5.709407 -4.732835,5.709407 -3.342993,0 -4.9582,-2.591774 -4.9582,-5.897208 0.112681,-3.906407 2.441539,-5.89722 5.897214,-5.89722 1.164377,0 2.554222,0.187813 3.793719,0.75125 z"
     id="path16-9"
     inkscape:connector-curvature="0" />
  <path
     style="fill:#ffffff;fill-opacity:1"
     d="m 36.467803,82.704162 c 2.145123,-0.188168 2.182813,0.752685 2.182813,3.161321 l 0,12.381603 4.139843,0 0,-10.462383 c 0,-2.897856 1.806507,-4.704355 4.365627,-4.741932 2.55912,0 3.763417,1.844076 3.725846,4.666669 l 0,10.537646 4.026892,0 0,-10.537646 c 0,-2.860279 1.693556,-4.666669 4.215105,-4.704355 2.408597,0 3.537633,1.881762 3.500063,4.591406 l 0,6.36023 c 0,4.102153 2.559119,5.118356 6.397919,4.215102 l 0,-2.521552 c -2.220385,0.301074 -2.258076,-0.715064 -2.258076,-2.258066 l 0,-5.795714 c 0,-4.177416 -1.317252,-7.940949 -6.247395,-7.940949 -2.59681,-0.03767 -5.043097,1.053759 -6.51075,3.500059 -0.940873,-2.295644 -3.010805,-3.387111 -5.419403,-3.424796 -2.408597,-0.03768 -4.854884,1.05377 -6.021492,3.311847 0,-3.274162 -3.27416,-3.838678 -6.096754,-3.010805 z"
     id="path8-7"
     inkscape:connector-curvature="0" />
  <path
     style="fill:#ffffff;fill-opacity:1"
     d="M 90.994631,82.661606 C 90.806829,79.731774 87.876998,79.281048 85.210103,79.88202 l 0.03757,2.779586 c 1.953253,-0.1127 1.953253,0.713683 1.953253,2.328849 l 0,13.146206 4.056752,0 0,-10.479817 c 0,-2.92982 2.178612,-4.507474 4.620148,-4.507474 1.314625,0 2.516659,0.375624 3.605916,1.089264 l 1.014181,-3.530803 c -1.164381,-0.863918 -2.66691,-1.314622 -4.169435,-1.277055 -2.216167,0 -4.620147,1.12682 -5.3338,3.230312 z"
     id="path24-7"
     inkscape:connector-curvature="0"
     sodipodi:nodetypes="cccsccssccccc" />
  <path
     style="fill:#ffffff;fill-opacity:1"
     d="m 100.34495,74.43411 c 0,1.652766 1.27706,2.441539 2.51666,2.441539 1.20195,0 2.40398,-0.826361 2.40398,-2.441539 0,-1.577654 -1.20193,-2.403983 -2.44155,-2.403983 -1.23948,0 -2.47909,0.788806 -2.47909,2.403983 z m 4.50741,5.78453 -4.09425,0 0,17.916594 4.09431,0 z"
     id="path22-6"
     inkscape:connector-curvature="0"
     sodipodi:nodetypes="sssssccccc" />
  <path
     style="fill:#ffffff;fill-opacity:1"
     d="m 109.32645,88.987229 c 0,-3.287418 1.56517,-6.051923 4.8446,-6.051923 3.20494,0 4.80736,2.764397 4.80736,6.051923 0,3.436929 -1.60242,5.865169 -4.73287,5.865169 -3.31668,0 -4.9192,-2.577643 -4.9192,-5.865169 z m 9.7638,-18.26739 0,11.805471 c -1.15529,-2.091974 -3.20495,-2.988611 -5.88806,-2.988611 -5.36643,0 -8.04954,4.520213 -7.93782,9.451394 0,5.080584 2.64587,9.488744 8.12415,9.488744 2.64586,0 5.18,-1.419549 6.18621,-3.922491 l 0,0.747148 c 0,2.98861 2.64587,3.287417 5.21736,2.801748 l 0,-2.764398 c -1.97517,0.186787 -1.93782,-0.859221 -1.93782,-2.502941 0,-7.583525 0.0374,-14.532301 0.0374,-22.115827 z"
     id="path18-5"
     inkscape:connector-curvature="0" />
  <path
     style="fill:#ffffff;fill-opacity:1"
     d="m 157.41943,93.875215 c -1.60242,0.747148 -3.83851,1.344848 -5.92541,1.344848 -3.95023,0.112075 -6.74518,-1.905219 -6.63345,-5.640955 1.67701,1.008646 4.06207,1.606304 6.40988,1.494251 3.42851,-0.112063 6.74529,-1.755815 6.93162,-5.342148 0.18632,-4.445511 -4.13656,-6.163976 -8.04955,-6.051923 -4.77012,0.112074 -9.01851,3.138014 -9.13035,8.965724 -0.29813,6.35073 3.83851,10.011765 10.21104,9.82501 2.23598,-0.112074 4.32288,-0.373573 6.29805,-1.382198 z M 145.1584,86.852061 c 0.59627,-2.689695 2.53414,-3.922491 5.03093,-3.959841 1.82609,0 4.21115,0.672434 4.09931,2.801748 -0.11179,1.867868 -2.16149,2.577643 -3.76391,2.577643 -1.86333,0 -4.02483,-0.485648 -5.36643,-1.41955 z"
     id="path28-9"
     inkscape:connector-curvature="0" />
  <path
     style="opacity:1;fill:#ffffff;fill-opacity:1;stroke:#ffffff;stroke-width:0.69004393;stroke-miterlimit:4;stroke-dasharray:none;stroke-opacity:1"
     inkscape:connector-curvature="0"
     id="path20-7-0"
     d="m 128.51253,80.934711 c 3.8125,-1.635979 8.1684,-0.937313 11.86301,0.66992 0.0546,4.447908 0.009,8.892944 0.023,13.340851 -0.0259,2.104617 0.0892,4.220761 -0.15814,6.316758 -0.27601,2.29441 -1.74522,4.48817 -3.94475,5.32485 -3.76649,1.40597 -8.02175,0.63254 -11.47198,-1.26795 0.16389,-0.80506 0.3249,-1.61298 0.46292,-2.42379 2.5934,1.44047 5.62384,2.39503 8.6054,1.8545 1.35135,-0.17826 2.69119,-0.97756 3.20009,-2.28864 0.76767,-1.84875 0.45715,-3.901628 0.52328,-5.848138 -2.21101,1.331214 -4.87918,2.188017 -7.4611,1.598607 -2.07014,-0.373778 -3.98788,-1.610104 -5.06608,-3.430087 -1.45771,-2.211011 -1.68484,-4.979823 -1.3657,-7.54448 0.3824,-2.737172 2.21678,-5.244334 4.79006,-6.302401 m -1.30247,4.752674 c -0.84817,1.506601 -0.85393,3.300717 -0.68142,4.971198 0.2904,2.196642 1.70787,4.367398 3.90738,5.022945 2.44391,0.799294 5.0747,-0.08917 7.10745,-1.503725 0.0259,-3.61698 0.0173,-7.23396 0.006,-10.85094 -1.88324,-0.741804 -3.96774,-1.184574 -5.97463,-0.741804 -1.82286,0.310531 -3.50772,1.446224 -4.36453,3.102326 z" />
  <path
     style="fill:#ca3493"
     inkscape:connector-curvature="0"
     id="path32"
     d="m 156.52209,10.402686 c -0.13424,-0.35232 -0.45297,-0.8053204 -0.49493,-1.1660004 -0.0838,-0.0589 -0.12579,-0.14266 -0.13423,-0.24342 -0.0588,-0.0669 -0.0588,-0.042 -0.0755,-0.13423 -0.0671,-0.0669 -0.0588,-0.0504 -0.0838,-0.13422 -0.0755,-0.0669 -0.109,-0.11734 -0.13424,-0.21808 -0.0838,-0.0673 -0.1006,-0.15113 -0.19292,-0.2181 -0.0169,-0.0754 -0.0671,-0.14266 -0.13423,-0.19304 -0.042,-0.18461 -0.4446,-0.68786 -0.62076,-0.78013 -0.0169,-0.0923 -0.13424,-0.19305 -0.21812,-0.24312 -0.0504,-0.23498 -0.52849,-0.56204 -0.70465,-0.7382 -0.23489,-0.21808 -0.49493,-0.43623 -0.72982,-0.67111 -0.1006,-0.0242 -0.29361,-0.20119 -0.37749,-0.2769 -0.12581,-0.0923 -0.29361,-0.2012 -0.38588,-0.31877 -0.0671,-0.0182 -0.14261,-0.0673 -0.18454,-0.13423 -0.0755,-0.0181 -0.14261,-0.0673 -0.19292,-0.14268 -0.2852,-0.0504 -0.46138,-0.37746 -0.75498,-0.46135 -0.0671,-0.0673 -0.11746,-0.10923 -0.21812,-0.13423 -0.0671,-0.0589 -0.042,-0.0589 -0.13422,-0.0754 -0.0671,-0.0669 -0.0504,-0.0589 -0.13424,-0.0838 -0.0671,-0.0673 -0.0504,-0.0589 -0.14261,-0.0838 -0.0336,-0.0673 -0.10061,-0.10922 -0.18454,-0.10922 -0.0336,-0.0669 -0.10899,-0.10889 -0.19292,-0.10889 -0.0587,-0.10072 -0.23489,-0.17616 -0.35233,-0.1846 -0.13423,-0.21809 -0.65431,-0.3775 -0.88919,-0.48655 -0.31878,-0.15111 -0.62916,-0.30199 -0.94793,-0.43623 -0.75499,-0.31877 -1.5267,-0.60396 -2.3069,-0.86403 -3.6155,-1.20800001 -7.4072,-1.66090001 -11.216,-1.73640001 l -0.26843,0 c 0,-0.14267 -4.9326,0.34393 -5.7127,0.46139 -0.77177,0.11734 -1.5435,0.25157 -2.3069,0.4362 -1.0738,0.25157001 -2.1475,0.51169001 -3.1961,0.86404001 -0.78015,0.26001 -1.5435,0.54527 -2.2985,0.86404 -0.31877,0.13423 -0.63755,0.28505 -0.94792,0.4362 -0.26004,0.11734 -0.58722,0.3775 -0.87242,0.40266 -0.0588,0.10072 -0.22651,0.1846 -0.35233,0.19305 -0.0336,0.0754 -0.10061,0.10922 -0.18455,0.10922 -0.0336,0.0754 -0.109,0.10889 -0.19292,0.10889 -0.0588,0.0589 -0.042,0.0589 -0.13423,0.0838 -0.0336,0.0673 -0.10072,0.10923 -0.18454,0.10072 -0.0671,0.0754 -0.11746,0.10923 -0.21811,0.14268 -0.0671,0.0669 -0.11743,0.10923 -0.21812,0.13423 -0.15938,0.23498 -0.53687,0.26001 -0.70465,0.5117 -0.0755,0.0181 -0.14262,0.0673 -0.19292,0.13423 -0.24328,0.0589 -0.61239,0.42781 -0.81371,0.62077 -0.10061,0.0242 -0.31038,0.22653 -0.37749,0.32715 -0.20132,0.042 -0.4446,0.39428 -0.5956,0.54528 -0.15938,0.15926 -0.34393,0.39427 -0.53688,0.51169 -0.0336,0.15928 -0.31877,0.40266 -0.43621,0.54527 -0.13423,0.15927 -0.27681,0.39428 -0.43621,0.51171 -0.0169,0.0754 -0.0671,0.14267 -0.13422,0.19304 -0.0251,0.13423 -0.15101,0.2012 -0.19294,0.35231 -0.0671,0.0589 -0.109,0.10889 -0.13423,0.20965 -0.0588,0.0669 -0.0588,0.0504 -0.0755,0.14267 -0.0922,0.0504 -0.12581,0.14267 -0.13422,0.24342 -0.28523,0.17615 -0.46138,0.8808104 -0.57044,1.1912004 -0.32716,0.87243 -0.54527,1.8539 -0.46138,2.785 0.0839,0.96469 0.20132,1.8371 0.53688,2.7431 0.13422,0.33555 0.45299,0.755 0.49494,1.1073 0.0838,0.0504 0.11742,0.14267 0.13422,0.24312 0.0588,0.0673 0.0588,0.042 0.0755,0.13422 0.0923,0.0589 0.16778,0.18461 0.19294,0.30197 0.0671,0.042 0.0671,0.0838 0.13423,0.13423 0.042,0.22653 0.38588,0.57044 0.57042,0.755 0.0251,0.14268 0.22651,0.26847 0.32716,0.37748 0.109,0.13422 0.20134,0.28534 0.35232,0.38588 0.0336,0.1846 0.39428,0.41942 0.53689,0.56204 0.16776,0.16771 0.46137,0.31039 0.57042,0.52011 0.14262,0.0242 0.31039,0.25157 0.43622,0.35232 0.16777,0.12578 0.40265,0.22652 0.53687,0.40265 0.0755,0.0182 0.14261,0.0669 0.19293,0.13424 0.31877,0.0589 0.51171,0.43619 0.83886,0.52007 0.0588,0.0673 0.10901,0.10889 0.21812,0.13424 0.0671,0.0589 0.042,0.0589 0.13423,0.0754 0.0671,0.0669 0.042,0.0589 0.13422,0.0838 0.0671,0.0673 0.042,0.0589 0.13424,0.0838 0.042,0.0754 0.109,0.10889 0.19293,0.10889 0.0588,0.0923 0.18454,0.15112 0.29361,0.15927 0.0671,0.10072 0.23489,0.17616 0.35233,0.19305 0.13423,0.20119 0.59559,0.32715 0.8137,0.42781 0.26843,0.13423 0.53687,0.26845 0.8137,0.38588 0.65432,0.26846 1.3086,0.52009 1.9797,0.75497 0.86404,0.31039 1.7364,0.56204 2.6257,0.78854 0.55366,0.13423 1.1157,0.26846 1.6777,0.3775 0.35233,0.0673 0.70465,0.13423 1.057,0.19305 0.31877,0.0504 0.83887,0.0242 1.1157,0.1846 -0.15101,0.53689 -0.40266,1.0654 -0.62916,1.5687 -0.16777,0.3775 -0.55365,0.87242 -0.59559,1.2751 -0.0671,0.0335 -0.109,0.10889 -0.109,0.19305 -0.0671,0.0335 -0.10901,0.10072 -0.10901,0.1846 -0.0588,0.0669 -0.0588,0.0504 -0.0755,0.13424 -0.0671,0.0673 -0.0588,0.0504 -0.0839,0.14266 -0.0755,0.0589 -0.109,0.10889 -0.13423,0.20965 -0.14262,0.0923 -0.151,0.28504 -0.30199,0.38586 -0.0336,0.15926 -0.23489,0.3691 -0.35233,0.51172 -0.109,0.14268 -0.2265,0.302 -0.35232,0.4362 -0.23489,0.25156 -0.57044,0.46138 -0.75498,0.755 -0.109,0.0242 -0.32716,0.23497 -0.40267,0.32715 -0.0755,0.0181 -0.14261,0.0669 -0.19292,0.13423 -0.0671,0.0181 -0.12581,0.0504 -0.15939,0.10923 l 0.24328,0 c 0.008,0.20119 2.8773,-0.61238 3.2716,-0.755 0.302,-0.11734 0.5872,-0.24312 0.87242,-0.38585 0.20134,-0.10072 0.47816,-0.30201 0.70465,-0.31877 0.0504,-0.0923 0.14261,-0.12579 0.24328,-0.14268 0.0336,-0.0669 0.1006,-0.10923 0.18454,-0.10923 0.0671,-0.0589 0.0504,-0.0504 0.13423,-0.0754 0.0671,-0.0669 0.0504,-0.0589 0.1426,-0.0838 0.0588,-0.0589 0.042,-0.0589 0.13424,-0.0838 0.0671,-0.10072 0.25166,-0.20963 0.37749,-0.24342 0.12585,-0.18459 0.40266,-0.20119 0.54527,-0.40265 0.0671,-0.0181 0.14261,-0.0669 0.18454,-0.13423 0.20972,-0.042 0.43621,-0.31877 0.62076,-0.46138 0.20972,-0.15927 0.43621,-0.302 0.62915,-0.48655 0.25165,-0.0504 0.61238,-0.51172 0.81371,-0.67949 0.22649,-0.20119 0.56204,-0.41105 0.7298,-0.67947 0.2265,-0.042 0.60399,-0.55366 0.78016,-0.72982 0.0671,-0.0589 0.12584,-0.16771 0.19293,-0.21808 0.34392,-0.23497 0.98147,-0.13423 1.4093,-0.15926 0.8221,-0.0589 1.6442,-0.13424 2.4663,-0.24313 1.6945,-0.22653 3.3639,-0.5788 5.008,-1.0318 1.015,-0.2769 2.0049,-0.64592 2.978,-1.0318 0.41104,-0.15112 0.79692,-0.33554 1.1912,-0.5117 0.31038,-0.13422 0.72982,-0.453 1.057,-0.48654 0.0671,-0.10072 0.23489,-0.17615 0.35233,-0.19305 0.0588,-0.0838 0.14261,-0.12578 0.24326,-0.13423 0.042,-0.0754 0.109,-0.10923 0.19293,-0.10923 0.0671,-0.0589 0.042,-0.0589 0.13422,-0.0754 0.0671,-0.0673 0.042,-0.0589 0.13423,-0.0838 0.0671,-0.0669 0.0504,-0.0589 0.13423,-0.0838 0.0671,-0.0589 0.0504,-0.0589 0.14262,-0.0754 0.0588,-0.0754 0.109,-0.10889 0.20972,-0.14267 0.17616,-0.26001 0.5956,-0.28535 0.78854,-0.56204 0.151,-0.0335 0.35233,-0.23498 0.48655,-0.32716 0.13422,-0.0923 0.28523,-0.23497 0.41105,-0.35235 0.14261,-0.0335 0.47815,-0.34392 0.56204,-0.48654 0.12581,-0.0242 0.33554,-0.26846 0.41104,-0.37749 0.15938,-0.0335 0.35232,-0.31878 0.46138,-0.43621 0.13422,-0.14267 0.26005,-0.36069 0.42782,-0.46138 0.0251,-0.10889 0.19293,-0.25156 0.27682,-0.35232 0.10061,-0.13422 0.19292,-0.30199 0.31877,-0.40264 0.0336,-0.17616 0.22649,-0.26847 0.27681,-0.46139 0.0755,-0.0673 0.109,-0.11734 0.13423,-0.21808 0.0588,-0.0669 0.0588,-0.042 0.0839,-0.13424 0.0588,-0.0669 0.0588,-0.0504 0.0755,-0.13423 0.26002,-0.16771 0.45297,-0.83046 0.57043,-1.1157 0.29349,-0.72143 0.47816,-1.5016 0.54527,-2.2733 0.0923,-1.1073 -0.10072,-2.2901 -0.48657,-3.3303"
     sodipodi:nodetypes="cccccccccccccccccccccccccccccccccccccccccccccccccccccccccccccccccccccccccccccccccccccccccccccccccccccccccccccccccccccccccccccccccccccccccccccccccccc" />
  <path
     style="fill:#ffffff;stroke:none;stroke-opacity:1;fill-opacity:1"
     inkscape:connector-curvature="0"
     id="path32-9"
     d="m 144.35028,8.6997592 -4.89059,11.4509998 -0.79693,0 -4.9325,-11.4509998 0,-0.2853501 2.0552,0 1.6693,4.0265999 1.59389,4.3034 0.0504,0 1.52671,-4.2195 1.6777,-4.1104999 2.04679,0 z m -18.06899,7.1135998 0,-5.041599 -2.2566,-0.16771 0,-1.6358008 2.2566,0 0.26004,-3.4309999 2.2062,0 0,3.4309999 3.8504,0 0,1.8036008 -3.8504,0 0,4.999599 c 0,2.827 1.7784,3.0116 4.0601,2.2062 l 0.25166,1.8874 c -3.8001,1.1828 -6.7781,0.30201 -6.7781,-4.0517"
     sodipodi:nodetypes="ccccccccccccccccccccccccsccc" />
</svg>
