<?xml version="1.0" encoding="UTF-8"?>
<svg id="svg57" width="442.32pt" height="329.94pt" version="1.1" viewBox="0 0 442.32 329.94" xmlns="http://www.w3.org/2000/svg" xmlns:cc="http://creativecommons.org/ns#" xmlns:dc="http://purl.org/dc/elements/1.1/" xmlns:rdf="http://www.w3.org/1999/02/22-rdf-syntax-ns#">
 <metadata id="metadata63">
  <rdf:RDF>
   <cc:Work rdf:about="">
    <dc:format>image/svg+xml</dc:format>
    <dc:type rdf:resource="http://purl.org/dc/dcmitype/StillImage"/>
    <dc:title/>
   </cc:Work>
  </rdf:RDF>
 </metadata>
 <g id="g920" transform="matrix(2.4425 0 0 2.4425 27.791 0)">
  <path id="path30-0" d="m127.78 56c0.57043 8.5061 8.0867 10.922 15.67 10.922 7.5918 0 14.89-3.2632 14.89-10.855 0-8.0783-6.9458-9.2863-14.11-10.209-5.3184-0.63755-8.0867-1.2751-8.1538-4.1105-0.20974-3.0535 3.4729-4.748 7.0213-4.748 3.6155 0 7.726 1.057 7.726 4.4628h6.8116c0.20963-6.8032-6.669-10.285-14.538-10.285-7.4492 0-14.538 3.4058-14.538 10.712 0.20973 7.726 8.0867 8.5061 15.1 9.4289 4.4712 0.57043 7.6589 1.4932 7.6589 4.6138-0.20974 4.1776-4.3957 5.2429-8.1538 5.2429-3.6826 0-7.5834-1.6274-7.8015-5.1758zm-18.724-34.603h-6.8032l-0.78014 10.561h-6.9458v5.0416l6.9458 0.49493v15.527c0 13.405 9.1437 16.098 20.846 12.482l-0.78014-5.8134c-7.0214 2.4747-12.482 1.9126-12.482-6.8116v-15.385h11.845v-5.5365h-11.845zm-22.264 27.515c-0.20974 6.3083-3.1877 10.779-8.934 10.779-6.3083 0-9.3618-4.899-9.3618-11.14 0.21812-7.3737 4.6138-11.132 11.132-11.132 2.1978 0 4.8235 0.36074 7.1639 1.4177zm7.4491-14.538c-4.4712-1.9881-9.152-3.1961-14.043-3.1961-11.132-0.20964-19.218 6.0315-19.428 17.373 0 9.647 5.0332 18.011 15.46 18.011 5.0332 0 9.8567-2.6928 11.769-7.4408v1.4177c0 5.6707 5.0332 6.2412 9.9238 5.3184v-5.2513c-3.7581 0.36074-3.6826-1.6274-3.6826-4.748zm-59.425 11.979c0-5.5953 3.9007-9.0011 8.7913-9.0011 4.8235 0 7.0968 2.1978 7.877 6.669 0.20973 1.4848 0.13422 3.3303 0.13422 12.969 0 6.9542 3.1961 10.427 11.987 8.934l-0.0671-5.3184c-3.7581 0.36074-4.1188-0.91435-4.1188-4.1104v-8.5061c0-1.7029-0.0671-3.1961-0.27682-4.8235-0.78015-6.8032-5.5365-11.845-12.768-11.845-4.5383-0.2769-9.0766 1.6358-11.56 5.2513v-22.264h-7.726v51.758h7.726zm-20.279-24.95h-6.8116l-0.78015 10.561h-6.9458v5.0416l6.9458 0.49493v15.527c0 13.405 9.1521 16.098 20.846 12.482l-0.78015-5.8134c-7.0129 2.4747-12.474 1.9126-12.474-6.8116v-15.385h11.836v-5.5365h-11.836z" fill="#ca3493"/>
  <path id="path32-6" d="m156.52 10.403c-0.13424-0.35232-0.45297-0.80532-0.49493-1.166-0.0838-0.0589-0.12579-0.14266-0.13423-0.24342-0.0588-0.0669-0.0588-0.042-0.0755-0.13423-0.0671-0.0669-0.0588-0.0504-0.0838-0.13422-0.0755-0.0669-0.109-0.11734-0.13424-0.21808-0.0838-0.0673-0.1006-0.15113-0.19292-0.2181-0.0169-0.0754-0.0671-0.14266-0.13423-0.19304-0.042-0.18461-0.4446-0.68786-0.62076-0.78013-0.0169-0.0923-0.13424-0.19305-0.21812-0.24312-0.0504-0.23498-0.52849-0.56204-0.70465-0.7382-0.23489-0.21808-0.49493-0.43623-0.72982-0.67111-0.1006-0.0242-0.29361-0.20119-0.37749-0.2769-0.12581-0.0923-0.29361-0.2012-0.38588-0.31877-0.0671-0.0182-0.14261-0.0673-0.18454-0.13423-0.0755-0.0181-0.14261-0.0673-0.19292-0.14268-0.2852-0.0504-0.46138-0.37746-0.75498-0.46135-0.0671-0.0673-0.11746-0.10923-0.21812-0.13423-0.0671-0.0589-0.042-0.0589-0.13422-0.0754-0.0671-0.0669-0.0504-0.0589-0.13424-0.0838-0.0671-0.0673-0.0504-0.0589-0.14261-0.0838-0.0336-0.0673-0.10061-0.10922-0.18454-0.10922-0.0336-0.0669-0.10899-0.10889-0.19292-0.10889-0.0587-0.10072-0.23489-0.17616-0.35233-0.1846-0.13423-0.21809-0.65431-0.3775-0.88919-0.48655-0.31878-0.15111-0.62916-0.30199-0.94793-0.43623-0.75499-0.31877-1.5267-0.60396-2.3069-0.86403-3.6155-1.208-7.4072-1.6609-11.216-1.7364h-0.26843c0-0.14267-4.9326 0.34393-5.7127 0.46139-0.77177 0.11734-1.5435 0.25157-2.3069 0.4362-1.0738 0.25157-2.1475 0.51169-3.1961 0.86404-0.78015 0.26001-1.5435 0.54527-2.2985 0.86404-0.31877 0.13423-0.63755 0.28505-0.94792 0.4362-0.26004 0.11734-0.58722 0.3775-0.87242 0.40266-0.0588 0.10072-0.22651 0.1846-0.35233 0.19305-0.0336 0.0754-0.10061 0.10922-0.18455 0.10922-0.0336 0.0754-0.109 0.10889-0.19292 0.10889-0.0588 0.0589-0.042 0.0589-0.13423 0.0838-0.0336 0.0673-0.10072 0.10923-0.18454 0.10072-0.0671 0.0754-0.11746 0.10923-0.21811 0.14268-0.0671 0.0669-0.11743 0.10923-0.21812 0.13423-0.15938 0.23498-0.53687 0.26001-0.70465 0.5117-0.0755 0.0181-0.14262 0.0673-0.19292 0.13423-0.24328 0.0589-0.61239 0.42781-0.81371 0.62077-0.10061 0.0242-0.31038 0.22653-0.37749 0.32715-0.20132 0.042-0.4446 0.39428-0.5956 0.54528-0.15938 0.15926-0.34393 0.39427-0.53688 0.51169-0.0336 0.15928-0.31877 0.40266-0.43621 0.54527-0.13423 0.15927-0.27681 0.39428-0.43621 0.51171-0.0169 0.0754-0.0671 0.14267-0.13422 0.19304-0.0251 0.13423-0.15101 0.2012-0.19294 0.35231-0.0671 0.0589-0.109 0.10889-0.13423 0.20965-0.0588 0.0669-0.0588 0.0504-0.0755 0.14267-0.0922 0.0504-0.12581 0.14267-0.13422 0.24342-0.28523 0.17615-0.46138 0.88081-0.57044 1.1912-0.32716 0.87243-0.54527 1.8539-0.46138 2.785 0.0839 0.96469 0.20132 1.8371 0.53688 2.7431 0.13422 0.33555 0.45299 0.755 0.49494 1.1073 0.0838 0.0504 0.11742 0.14267 0.13422 0.24312 0.0588 0.0673 0.0588 0.042 0.0755 0.13422 0.0923 0.0589 0.16778 0.18461 0.19294 0.30197 0.0671 0.042 0.0671 0.0838 0.13423 0.13423 0.042 0.22653 0.38588 0.57044 0.57042 0.755 0.0251 0.14268 0.22651 0.26847 0.32716 0.37748 0.109 0.13422 0.20134 0.28534 0.35232 0.38588 0.0336 0.1846 0.39428 0.41942 0.53689 0.56204 0.16776 0.16771 0.46137 0.31039 0.57042 0.52011 0.14262 0.0242 0.31039 0.25157 0.43622 0.35232 0.16777 0.12578 0.40265 0.22652 0.53687 0.40265 0.0755 0.0182 0.14261 0.0669 0.19293 0.13424 0.31877 0.0589 0.51171 0.43619 0.83886 0.52007 0.0588 0.0673 0.10901 0.10889 0.21812 0.13424 0.0671 0.0589 0.042 0.0589 0.13423 0.0754 0.0671 0.0669 0.042 0.0589 0.13422 0.0838 0.0671 0.0673 0.042 0.0589 0.13424 0.0838 0.042 0.0754 0.109 0.10889 0.19293 0.10889 0.0588 0.0923 0.18454 0.15112 0.29361 0.15927 0.0671 0.10072 0.23489 0.17616 0.35233 0.19305 0.13423 0.20119 0.59559 0.32715 0.8137 0.42781 0.26843 0.13423 0.53687 0.26845 0.8137 0.38588 0.65432 0.26846 1.3086 0.52009 1.9797 0.75497 0.86404 0.31039 1.7364 0.56204 2.6257 0.78854 0.55366 0.13423 1.1157 0.26846 1.6777 0.3775 0.35233 0.0673 0.70465 0.13423 1.057 0.19305 0.31877 0.0504 0.83887 0.0242 1.1157 0.1846-0.15101 0.53689-0.40266 1.0654-0.62916 1.5687-0.16777 0.3775-0.55365 0.87242-0.59559 1.2751-0.0671 0.0335-0.109 0.10889-0.109 0.19305-0.0671 0.0335-0.10901 0.10072-0.10901 0.1846-0.0588 0.0669-0.0588 0.0504-0.0755 0.13424-0.0671 0.0673-0.0588 0.0504-0.0839 0.14266-0.0755 0.0589-0.109 0.10889-0.13423 0.20965-0.14262 0.0923-0.151 0.28504-0.30199 0.38586-0.0336 0.15926-0.23489 0.3691-0.35233 0.51172-0.109 0.14268-0.2265 0.302-0.35232 0.4362-0.23489 0.25156-0.57044 0.46138-0.75498 0.755-0.109 0.0242-0.32716 0.23497-0.40267 0.32715-0.0755 0.0181-0.14261 0.0669-0.19292 0.13423-0.0671 0.0181-0.12581 0.0504-0.15939 0.10923h0.24328c8e-3 0.20119 2.8773-0.61238 3.2716-0.755 0.302-0.11734 0.5872-0.24312 0.87242-0.38585 0.20134-0.10072 0.47816-0.30201 0.70465-0.31877 0.0504-0.0923 0.14261-0.12579 0.24328-0.14268 0.0336-0.0669 0.1006-0.10923 0.18454-0.10923 0.0671-0.0589 0.0504-0.0504 0.13423-0.0754 0.0671-0.0669 0.0504-0.0589 0.1426-0.0838 0.0588-0.0589 0.042-0.0589 0.13424-0.0838 0.0671-0.10072 0.25166-0.20963 0.37749-0.24342 0.12585-0.18459 0.40266-0.20119 0.54527-0.40265 0.0671-0.0181 0.14261-0.0669 0.18454-0.13423 0.20972-0.042 0.43621-0.31877 0.62076-0.46138 0.20972-0.15927 0.43621-0.302 0.62915-0.48655 0.25165-0.0504 0.61238-0.51172 0.81371-0.67949 0.22649-0.20119 0.56204-0.41105 0.7298-0.67947 0.2265-0.042 0.60399-0.55366 0.78016-0.72982 0.0671-0.0589 0.12584-0.16771 0.19293-0.21808 0.34392-0.23497 0.98147-0.13423 1.4093-0.15926 0.8221-0.0589 1.6442-0.13424 2.4663-0.24313 1.6945-0.22653 3.3639-0.5788 5.008-1.0318 1.015-0.2769 2.0049-0.64592 2.978-1.0318 0.41104-0.15112 0.79692-0.33554 1.1912-0.5117 0.31038-0.13422 0.72982-0.453 1.057-0.48654 0.0671-0.10072 0.23489-0.17615 0.35233-0.19305 0.0588-0.0838 0.14261-0.12578 0.24326-0.13423 0.042-0.0754 0.109-0.10923 0.19293-0.10923 0.0671-0.0589 0.042-0.0589 0.13422-0.0754 0.0671-0.0673 0.042-0.0589 0.13423-0.0838 0.0671-0.0669 0.0504-0.0589 0.13423-0.0838 0.0671-0.0589 0.0504-0.0589 0.14262-0.0754 0.0588-0.0754 0.109-0.10889 0.20972-0.14267 0.17616-0.26001 0.5956-0.28535 0.78854-0.56204 0.151-0.0335 0.35233-0.23498 0.48655-0.32716 0.13422-0.0923 0.28523-0.23497 0.41105-0.35235 0.14261-0.0335 0.47815-0.34392 0.56204-0.48654 0.12581-0.0242 0.33554-0.26846 0.41104-0.37749 0.15938-0.0335 0.35232-0.31878 0.46138-0.43621 0.13422-0.14267 0.26005-0.36069 0.42782-0.46138 0.0251-0.10889 0.19293-0.25156 0.27682-0.35232 0.10061-0.13422 0.19292-0.30199 0.31877-0.40264 0.0336-0.17616 0.22649-0.26847 0.27681-0.46139 0.0755-0.0673 0.109-0.11734 0.13423-0.21808 0.0588-0.0669 0.0588-0.042 0.0839-0.13424 0.0588-0.0669 0.0588-0.0504 0.0755-0.13423 0.26002-0.16771 0.45297-0.83046 0.57043-1.1157 0.29349-0.72143 0.47816-1.5016 0.54527-2.2733 0.0923-1.1073-0.10072-2.2901-0.48657-3.3303" fill="#ca3493"/>
  <path id="path32-9" d="m144.35 8.6998-4.8906 11.451h-0.79693l-4.9325-11.451v-0.28535h2.0552l1.6693 4.0266 1.5939 4.3034h0.0504l1.5267-4.2195 1.6777-4.1105h2.0468zm-18.069 7.1136v-5.0416l-2.2566-0.16771v-1.6358h2.2566l0.26004-3.431h2.2062v3.431h3.8504v1.8036h-3.8504v4.9996c0 2.827 1.7784 3.0116 4.0601 2.2062l0.25166 1.8874c-3.8001 1.1828-6.7781 0.30201-6.7781-4.0517" fill="#fff"/>
 </g>
 <g id="g4625" transform="matrix(1.5882 0 0 1.5882 -1.6854e-6 -15.133)" fill="#65256e">
  <path id="path8-1" d="m1.0612e-6 172.75c0.88191 13.229 12.567 16.976 24.362 16.976 11.795 0 23.15-5.071 23.15-16.867 0-12.567-10.803-14.441-21.937-15.874-8.2678-0.99215-12.567-1.9844-12.677-6.3938-0.33072-4.7403 5.4016-7.386 10.914-7.386 5.6221 0 12.016 1.6536 12.016 6.945h10.583c0.33072-10.583-10.362-15.985-22.598-15.985-11.575 0-22.598 5.2914-22.598 16.646 0.33072 12.016 12.567 13.229 23.48 14.662 6.945 0.88189 11.906 2.315 11.906 7.1656-0.33072 6.5041-6.8347 8.1576-12.677 8.1576-5.7323 0-11.795-2.5355-12.126-8.0474z" stroke-width="1.6828"/>
  <path id="path14-6" d="m224.58 176.07c-4.7403 2.2048-11.355 3.9686-17.528 3.9686-11.685 0.33072-19.953-5.6221-19.623-16.646 4.9608 2.9764 12.016 4.7403 18.96 4.4095 10.142-0.33072 19.953-5.1812 20.505-15.764 0.55118-13.118-12.237-18.189-23.812-17.858-14.111 0.33072-26.678 9.26-27.009 26.457-0.88191 18.74 11.355 29.543 30.205 28.993 6.6143-0.33072 12.788-1.1024 18.63-4.0788zm-36.265-20.715c1.7638-7.9371 7.4962-11.575 14.882-11.685 5.4016 0 12.457 1.9844 12.126 8.268-0.33072 5.5119-6.3938 7.6065-11.134 7.6065-5.5119 0-11.906-1.4331-15.874-4.189z" stroke-width="1.6828"/>
  <path id="path13" d="m222.53 135.67c4.4403-0.8495 9.4409-1.4279 13.526 0.93988 3.6631 2.2232 4.838 6.7478 4.9705 10.766 0.0663 6.4225-0.0662 12.851 0.0784 19.267 0.40366 4.1873 1.8316 8.7722 5.5971 11.128 5.1271 2.9582 12.809 2.2593 16.189-3.0184 4.0487-6.067 3.8258-13.719 3.8077-20.713l-0.0241-18.448 11.791-0.0603 0.0482 55.224c0 6.6394-1.8737 13.544-6.4044 18.551-3.9583 4.4102-9.688 6.7539-15.4 7.8444-3.0546 0.18075-6.1212 0.16267-9.1759 0.0121-5.7537-0.95795-11.357-2.8317-16.508-5.5971l0.64466-9.3084c7.3262 3.7475 15.863 6.0429 24.081 4.362 5.2175-1.0483 9.7663-5.0548 10.941-10.327 1.1447-5.2296 0.54825-10.652 0.60851-15.966-1.8737 4.6391-6.2418 7.9649-11.152 8.7481-5.7477 0.84949-11.941 0.46994-17.086-2.4461-4.3319-2.434-7.1394-6.9105-8.495-11.592-2.5003-8.8023-1.0001-18.032-1.6086-27.034-0.1205-1.2592-0.40367-2.657-1.5243-3.4161-1.3315-1.1628-3.2233-0.90975-4.8621-0.93385z" stroke-width=".60249"/>
  <path id="path4585" d="m125.33 135.16c5.6029-1.7414 12.077-1.2493 17.112 1.8929 0.56787 0.37855 1.5143 0.75714 0.98431 1.6278-0.94644 3.1422-1.9686 6.2844-2.65 9.5022-4.6943-2.8772-10.714-4.3536-15.976-2.1579-3.4072 1.2872-6.1329 4.2022-7.1929 7.6851-0.64357 2.4986-0.7193 5.1108-0.68142 7.6851 0.0378 9.0101 0 17.982 0.0378 26.992-3.8615-0.0378-7.7229-0.0758-11.547 0.0378-0.18925-11.925-0.0378-23.85-0.11351-35.775-0.038-2.4229 0.26499-4.9593-0.60573-7.2686-0.94643-1.855-3.3693-1.7793-5.1486-1.9307 0.038-2.65 0.11352-5.3379-0.0758-7.9879 4.5808-0.75714 9.9944-1.3629 13.894 1.7793 1.855 1.4007 2.4986 3.7479 2.915 5.9058 1.4764-3.9372 5.1108-6.7008 9.0479-7.9879z"/>
  <path id="path26-2-8" d="m47.9 169.54v-34h12.087v31.512c0.0063 4.2405 1.6059 8.7856 5.2941 11.179 5.1482 3.2629 12.563 1.8473 16.441-2.7614 2.2472-2.5709 3.3708-6.0433 3.3327-9.4331v-30.496h12.042v38.069c0.12697 2.0567-0.18394 4.2785 0.7873 6.1766 1.0982 1.5489 3.2564 1.46 4.9449 1.4664v7.5795c-3.9104 0.71732-8.138 1.3966-11.972 0.0192-3.3327-1.3204-4.6594-5.0911-4.634-8.4238-2.3297 3.9738-6.1639 7.0336-10.665 8.1318-7.0209 1.7775-15.286 1.5172-21.088-3.32-4.8578-5.1485-5.9707-9.5629-6.5702-15.699z" stroke-width=".6348"/>
  <path id="path4585-4" d="m164.16 135.16c5.6029-1.7415 12.077-1.2493 17.112 1.8929 0.56788 0.37857 1.5143 0.75716 0.9843 1.6279-0.94643 3.1422-1.9686 6.2843-2.65 9.5022-4.6943-2.8772-10.714-4.3536-15.976-2.1579-3.4072 1.2871-6.1329 4.2022-7.1929 7.6851-0.64357 2.4986-0.71929 5.1108-0.68141 7.685 0.0378 9.0101 0 17.982 0.0378 26.992-3.8615-0.0378-7.7229-0.0758-11.547 0.0378-0.18926-11.925-0.0378-23.85-0.11351-35.775-0.038-2.4229 0.26499-4.9593-0.60573-7.2686-0.94644-1.855-3.3693-1.7793-5.1486-1.9307 0.038-2.65 0.11351-5.3379-0.0758-7.9879 4.5808-0.75715 9.9944-1.3629 13.894 1.7793 1.855 1.4007 2.4986 3.7479 2.915 5.9058 1.4764-3.9372 5.1108-6.7008 9.0479-7.9879z"/>
 </g>
</svg>
