<svg height="179.81387pt" viewBox="0 0 274.65332 179.81387" width="274.65332pt" xmlns="http://www.w3.org/2000/svg"><g fill="#fff" transform="translate(-6.74 -52.628293)"><path d="m148.93252 231.23385h8.57467v-31.9722h13.06257v-6.58735h-13.06257v-5.06104c0-9.63995 7.61316-10.44337 14.42475-7.63173l.96162-6.10543c-12.10082-4.01666-23.80098-1.687-23.80098 13.57629v5.22168h-7.29258v6.58735h7.13217z" stroke-width="2.321368"/><path d="m245.06871 172.20031 8.77459.0267-.15549 35.18281c3.34101-.0133 6.84641.43984 10.01859-.8708 3.19884-1.16846 5.6113-4.04742 6.45099-7.32179.69308-2.2614.87969-4.63387.88857-6.98857l8.26812-.0311c.13328 4.80271-.53314 9.95639-3.52761 13.88386-1.68828 2.30583-4.05631 4.01632-6.64204 5.18923l12.2489 19.9661-8.8679.004-10.72056-17.14489-8.12151.42651.16439 16.62509-8.77904.0844z" stroke-width=".444284"/><path d="m118.87103 198.64415c-.39548-6.1696-6.56508-7.11874-12.18103-5.85322l.0791 5.85322c4.11315-.23731 4.11315 1.50286 4.11315 4.90409v27.68314h8.54267v-22.06829c0-6.1696 4.5877-9.4918 9.72907-9.4918 2.76832 0 5.29957.79097 7.59332 2.29375l2.13564-7.43512c-2.45194-1.81925-5.61595-2.76831-8.77995-2.68922-4.6668 0-9.72908 2.37284-11.23188 6.80236z" stroke-width="2.172931"/><path d="m10.589548 198.06486c4.70664-.39887 4.46733 1.19659 4.46733 6.30203v26.72288h8.69534v-22.33554c0-6.22226 4.30779-9.97166 9.73235-9.97166 5.18526 0 9.17397 3.66963 9.17397 9.73235v13.72084c0 9.17397 5.74364 10.13121 13.08269 8.69535v-5.50433c-3.74941.39885-4.46734-.6382-4.46734-3.5101v-13.72084c.23933-9.57281-4.7864-16.43323-15.23668-16.43323-5.42456 0-10.37051 2.23355-12.84337 7.09973 0-6.3818-6.54135-7.89743-12.68384-6.3818z" stroke-width="2.191478"/><path d="m222.73 172.21642v45.47933c0 13.07539 5.52248 16.16107 17.54212 14.21222l-.32486-6.82184c-6.74063 1.05576-8.44613-.97454-8.44613-7.47157v-45.39752z" stroke-width="1.239726"/><path d="m215.14686 212.04209c0-13.4026-9.60823-20.18525-20.2666-20.2666-10.33493-.0807-20.83109 6.62082-20.83109 20.2666 0 13.48396 10.17348 20.26661 20.42806 20.34672 10.33495.0807 20.66963-6.70155 20.66963-20.34672zm-32.3775 0c0-8.47788 6.13632-12.51517 12.11128-12.51517 5.89411 0 11.4653 4.27936 11.4653 12.51517 0 8.39716-5.89411 12.59529-11.78834 12.59529-5.89412 0-11.78836-4.19851-11.78836-12.59529z" stroke-width="1.232537"/><path d="m102.52692 211.98981c0-13.4026-9.608228-20.18525-20.266598-20.2666-10.33494-.0807-20.8311 6.62082-20.8311 20.2666 0 13.48396 10.17348 20.26661 20.42807 20.34672 10.33494.0807 20.669628-6.70155 20.669628-20.34672zm-32.377498 0c0-8.47788 6.13631-12.51517 12.11127-12.51517 5.89412 0 11.46531 4.27936 11.46531 12.51517 0 8.39716-5.89412 12.59529-11.78835 12.59529-5.89412 0-11.78835-4.19851-11.78835-12.59529z" stroke-width="1.232537"/></g><g stroke-width="1.682809" transform="matrix(1.0962354 0 0 1.0962354 -3.884815 90.847927)"><path d="m205.39025 5.6038972c.90111 13.4370648 12.77438 17.2538448 24.75413 17.2538448 11.99254 0 23.52063-5.154782 23.52063-17.1478278 0-12.7612486-10.97226-14.6693861-22.28881-16.1270352-8.40143-1.007128-12.77438-2.014155-12.88039-6.493289-.33133-4.823605 5.48612-7.500281 11.09156-7.500281 5.71146 0 12.20458 1.669666 12.20458 7.049793h10.76022c.33116-10.746926-10.5349-16.246347-22.9653-16.246347-11.76739 0-22.9653 5.38011-22.9653 16.922332.33131 12.2045749 12.77437 13.4370645 23.85214 14.894714 7.06308.90109393 12.09855 2.35879392 12.09855 7.2882475-.33132 6.5991375-6.94377 8.2821145-12.88039 8.2821145-5.81747 0-11.97924-2.570828-12.32388-8.1762658zm-29.57705-54.6626982h-10.74693l-1.23239 16.683541h-10.97225v7.964232l10.97225.781817v24.52862943c0 21.17647357 14.44406 25.42893257 32.92922 19.71747757l-1.23238-9.183259c-11.09156 3.909166-19.71747 3.021316-19.71747-10.76021988v-24.30313312h18.71115v-8.745897h-18.71115zm-35.16904 43.4652844c-.33133 9.9650925-5.03564 17.0283486-14.11288 17.0283486-9.96509 0-14.7887-7.7389041-14.7887-17.598821.34456-11.64807 7.28825-17.585358 17.58536-17.585358 3.47197 0 7.61959.569866 11.31673 2.239482zm11.76721-22.9653004c-7.06308-3.140458-14.45735-5.048764-22.18279-5.048764-17.58536-.331177-30.359563 9.527898-30.691077 27.4432555 0 15.2391854 7.950937 28.4512585 24.422617 28.4512585 7.95093 0 15.57053-4.253805 18.59167-11.754087v2.239483c0 8.957931 7.95094 9.859075 15.67655 8.401426v-8.295409c-5.93661.569866-5.81747-2.570828-5.81747-7.5002818zm-93.873835 18.9231922c0-8.8387882 6.161943-14.2188982 13.887553-14.2188982 7.619593 0 11.210708 3.471973 12.443197 10.53506.331278 2.3455.212001 5.2607989.212001 20.4865219 0 10.9855481 5.048765 16.4716751 18.936654 14.1128811l-.10602-8.401426c-5.936612.569867-6.506411-1.444372-6.506411-6.4932884v-13.4370648c0-2.6899708-.106017-5.0487648-.437295-7.6195928-1.232389-10.746926-8.745897-18.711158-20.168471-18.711158-7.169104-.437396-14.338041 2.584122-18.260165 8.295409v-35.169034h-12.204575v81.760978h12.204575zm-32.028912-39.4231762h-10.760219l-1.232372 16.683541h-10.9722542v7.964232l10.9722542.781817v24.52862943c0 21.17647357 14.457352 25.42893257 32.929214 19.71747757l-1.232388-9.183259c-11.078271 3.909166-19.705699 3.021316-19.705699-10.76021988v-24.30313312h18.697696v-8.745897h-18.697696z" fill="#ca3493"/><path d="m250.78565-66.439412c-.21205-.556538-.71554-1.272136-.78183-1.842003-.13244-.09306-.19871-.225362-.21205-.384539-.0929-.10568-.0929-.0663-.11931-.212034-.10602-.10568-.0929-.0796-.13244-.212017-.11931-.10568-.1721-.185378-.21207-.344504-.13243-.106354-.15902-.238741-.30474-.344522-.0267-.119143-.10601-.225362-.21205-.304942-.0663-.291631-.70234-1.086607-.98059-1.232372-.0267-.145899-.21207-.304958-.34457-.384051-.0796-.37121-.83486-.88785-1.11313-1.166136-.37106-.344488-.78183-.689094-1.15289-1.060136-.15903-.0382-.4638-.317816-.5963-.437413-.19876-.145899-.46382-.317832-.60958-.503564-.10602-.02878-.22528-.106353-.29152-.212051-.11931-.02861-.22528-.106353-.30475-.225361-.45053-.0796-.72885-.596287-1.19265-.728808-.10601-.106354-.18554-.172455-.34453-.212034-.10602-.09306-.0663-.09306-.21204-.119143-.10601-.105681-.0796-.09306-.21207-.132437-.10601-.106354-.0796-.09306-.22526-.132437-.0532-.106354-.15902-.172455-.29153-.172455-.0532-.10568-.17208-.172101-.30475-.172101-.0927-.159193-.37105-.278269-.55656-.291597-.21205-.344521-1.03361-.596337-1.40466-.768589-.50356-.238707-.99386-.47706-1.49741-.689128-1.19266-.503547-2.4118-.954068-3.64412-1.364876-5.71146-1.908306-11.70108-2.623836-17.71662-2.742979h-.42405c0-.225379-7.79192.543295-9.02424.728858-1.21916.185345-2.43822.397396-3.64412.689043-1.69627.397413-3.39238.808321-5.04877 1.36491-1.2324.41074-2.43822.861363-3.63082 1.36491-.50355.212051-1.00713.450303-1.4974.68906-.41079.185378-.92763.596337-1.37817.636085-.0929.159194-.3578.291614-.55657.304959-.053.119143-.15903.172454-.29153.172454-.0532.119143-.17227.172101-.30476.172101-.0929.09306-.0663.09306-.21204.132437-.053.106354-.15919.172455-.29151.159194-.10602.119143-.18555.172454-.34454.225379-.10601.10568-.18549.172639-.34457.21205-.25176.371178-.84808.410724-1.11313.808321-.11931.02861-.22529.106354-.30475.212051-.38431.09306-.96738.675799-1.2854.980607-.15903.0382-.4903.357849-.59632.51679-.31802.0663-.70232.622859-.94086.86138-.25178.25158-.5433.622825-.8481.808304-.053.251614-.50355.636085-.68906.86138-.21205.25158-.4373.622824-.6891.80832-.0267.119143-.10601.225379-.21201.304959-.0397.212017-.23856.317815-.30479.556522-.10602.09306-.17227.172084-.21204.331177-.0929.10568-.0929.0796-.11931.225378-.14573.0796-.19876.225379-.21203.384539-.45057.27827-.72884 1.391397-.90111 1.881718-.51683 1.378187-.86138 2.928593-.72886 4.399537.1326 1.523901.31803 2.902004.84812 4.333234.21203.530051.71558 1.192657.78185 1.74928.13243.0796.18548.225362.21203.384051.0929.106353.0929.0663.11931.212017.1459.09306.26504.291631.30478.477026.10601.0663.10601.132437.21205.212034.0663.357849.60956.901128.90107 1.192658.0397.225395.35782.424101.51681.596303.17229.212034.31805.450757.55657.609581.053.291597.62283.662556.84811.88785.26501.264925.72882.49032.90107.821615.22531.0382.49034.397396.6891.556539.26502.198706.63607.357849.84808.636068.11931.02878.2253.105681.30478.212051.50354.09306.80835.689043 1.32512.821547.0929.106354.17229.172085.34458.212068.10601.09306.0663.09306.21205.119143.10601.10568.0663.09306.21201.132437.10602.106354.0663.09306.21206.132437.0663.119143.17228.172101.30479.172101.0929.1459.29149.238723.46379.251597.10602.159194.37106.278269.55658.304959.21203.317815.94084.51679 1.28538.675799.42405.212034.84808.424068 1.28539.609581 1.03362.424068 2.06717.821564 3.12734 1.192607 1.36492.490303 2.74298.88785 4.14779 1.245632.87462.212051 1.7624.424102 2.65025.596338.55658.106353 1.11313.21205 1.66969.304958.50358.0796 1.32516.0382 1.7624.291614-.23854.848136-.63608 1.682978-.99388 2.478105-.26501.596338-.87459 1.378154-.94084 2.014155-.10602.05301-.17227.172101-.17227.304959-.10602.05301-.17227.159194-.17227.291614-.0929.10568-.0929.0796-.11931.212067-.10602.106354-.0929.0796-.13261.225362-.11931.09306-.17208.172084-.21205.331177-.22528.1459-.23852.450269-.47704.609531-.053.25158-.37104.583059-.55656.808354-.1721.225395-.35781.47706-.55657.68906-.37104.397395-.90113.728825-1.19262 1.192657-.17227.0382-.51683.371194-.63611.516808-.11931.02861-.22526.10568-.30474.212034-.10601.02861-.19875.0796-.25178.172623h.38431c.0118.317815 4.54526-.96738 5.16807-1.192658.47706-.185378.9276-.384051 1.37816-.60953.31805-.159194.75532-.477077 1.11312-.503547.0796-.1459.22528-.198723.38431-.225396.0532-.10568.15902-.172454.29151-.172454.10602-.09306.0796-.0796.21205-.119143.10602-.105681.0796-.09306.22526-.132437.0929-.09306.0663-.09306.21205-.132437.10602-.159194.39755-.331144.59632-.384522.19881-.291581.63609-.317816.86135-.636069.10602-.02861.22529-.10568.29153-.212017.33128-.0663.68907-.503564.98059-.728841.33129-.251597.68907-.47706.99388-.768607.39752-.0796.96735-.808354 1.28538-1.07338.3578-.317815.88787-.649329 1.15286-1.073346.35782-.0663.95412-.874623 1.23242-1.152893.10602-.09306.19878-.264924.30476-.344504.5433-.371161 1.55042-.212018 2.22619-.251564 1.29866-.09306 2.59725-.212067 3.89604-.384067 2.67684-.357866 5.31381-.914338 7.91105-1.629936 1.60344-.437429 3.16705-1.020354 4.7043-1.629952.64931-.238723 1.25889-.530051 1.88172-.808321.49028-.212017 1.15287-.715598 1.66968-.768573.10602-.159193.37104-.278269.55655-.304958.0929-.132437.22528-.198706.38429-.212051.0663-.119143.1721-.172454.30476-.172454.10601-.09306.0663-.09306.21203-.119143.10602-.106354.0663-.09306.21204-.132437.10601-.105681.0796-.09306.21205-.132437.10601-.09306.0796-.09306.22529-.119143.0929-.119143.17209-.172084.3313-.225379.27827-.410723.94085-.450757 1.24563-.88785.23854-.05301.55657-.371178.7686-.516808.21204-.145899.45058-.37116.64933-.556589.22528-.05301.75533-.543278.88785-.76859.19874-.0382.53006-.424068.64932-.59632.25176-.05301.55655-.503564.72882-.689077.21203-.225378.41081-.569782.67583-.728825.0397-.1721.30478-.397378.4373-.556572.15902-.212.30474-.477026.50355-.636018.0532-.278286.35778-.424118.43727-.728858.11931-.106354.17227-.185378.21204-.344505.0929-.10568.0929-.0663.1326-.212051.0929-.10568.0929-.0796.11931-.212051.41076-.264924.71557-1.31185.90111-1.762406.46362-1.139649.75535-2.372088.86135-3.591115.1459-1.749112-.15919-3.617704-.76862-5.260799" fill="#ca3493"/><path d="m231.55774-69.129735-7.72561 18.088519h-1.25891l-7.79141-18.090202v-.450757h3.24665l2.63696 6.36068 2.51782 6.798047h.0796l2.41181-6.66544 2.65025-6.493287h3.23335zm-28.54382 11.237297v-7.964234l-3.56469-.264924v-2.584122h3.56469l.4108-5.419824h3.48509v5.419824h6.08235v2.849164h-6.08235v7.897931c0 4.46584 2.80929 4.757303 6.4137 3.485099l.39756 2.981601c-6.00292 1.868424-10.70721.477077-10.70721-6.400397" fill="#fff"/></g></svg>