<svg height="685.65771pt" viewBox="0 0 760.69202 685.65771" width="760.69202pt" xmlns="http://www.w3.org/2000/svg"><g fill="#fff" transform="translate(-98.427441 -89.852772)"><path d="m670.88 355.61c6.88-2.16 14.03-3.36 21.16-4.37 11.09 0 22.83.47 32.7 6.13 8.11 4.44 13.56 13.34 13.71 22.6 0 8.53-4.94 17.2-12.87 20.68-8.07 3.25-19.97 2.77-24.07-6.23-2.5-4.52-3.07-9.84-5.71-14.28-1.31-2.23-4.4-3.44-6.69-1.91-5.1 2.88-7.13 8.77-9 13.96-3.38 9.87-4.31 20.61-2.54 30.89.87 5.03 4.64 9.29 9.5 10.84 7.9 2.62 16.73 2.5 24.61-.22 10.28-3.67 18.81-11 26.06-18.98 6.8-7.47 12.21-16.04 17.24-24.76 2.32-3.57 4.64-7.85 8.95-9.24 2.3-.38 5.37-.84 6.95 1.35 1.87 2.54 2.68 5.79 2.53 8.92-.88 10.03-2.71 19.96-3.48 30-.33 2.89.52 6.38 3.4 7.7 5.12 2.51 11.36-.43 16.38 2.46 1.91.81 2.47 3.03 2.64 4.91.34 4.3-1.67 8.62-4.96 11.35-4.49 3.9-11.24 2.58-15.87 6.26-5.09 3.7-5.83 10.47-7.06 16.16-3.64 16.48-4.79 33.45-3.98 50.29.18 4.17 2.12 8.47 5.84 10.61 6.77 3.95 15.63 2.93 21.92-1.51 6.33-4.59 11.47-10.59 17.56-15.47 2.92-2.68 7.57-1.47 9.79 1.5 1.43 4.13-1.46 7.65-3.32 11.04-3.42 6.32-8.82 11.18-13.64 16.39-11.19 11.7-24.47 22.16-40.28 26.62-12.72 3.49-27.05 3.57-38.9-2.81-9.77-5.16-16.63-14.94-19.04-25.63-3.43-14.49-.69-29.41 1.77-43.81 2.24-11.6 3.34-23.36 4.94-35.04.09-1.83.7-4.2-1.24-5.29-2.18-.64-4.46.12-6.64.37-8.05 1.28-16.44 3.89-22.15 10.02-4.79 5.09-6.89 12.03-7.69 18.84-3.24 25.39-7.2 50.68-10.33 76.08-1.36 9.15-1.6 18.54-4.55 27.39-5.14 15.99-13.79 30.76-24.54 43.6-10.21 12.33-24.1 21.01-38.57 27.51-5.37 2.24-11.01 4.97-17 4.05-1.79-.78-3.37-2.08-4.44-3.7-1.21-2.49.17-5.19 1.53-7.3 9.51-13.94 15.91-29.73 21.06-45.72 4.27-13.68 7.62-27.7 9.14-41.97-11.83 7.54-23.34 16.72-37.5 19.27-10.19 1.67-21.38.66-30.13-5.23-5.51-3.63-9.46-9.07-12.73-14.7-11.88 12.41-27.12 21.78-43.86 25.89-12.68 3.08-26.59 1.85-38.11-4.46-11.83-6.36-19.08-18.93-21.35-31.87-3.97-18.74-2.8-38.91 5.39-56.4 6.52-13.8 16.26-26.44 29.25-34.7 9.52-6.2 20.41-9.93 31.47-12.25 13.15-3.02 27.3-4.33 40.21.45 8.2 3.12 17.46 2.5 25.52-.76 7.85-3.05 15.9-5.75 24.16-7.44 4.03-.79 7.07 3.65 6.09 7.32-3.34 25.29-10.61 50.27-9.31 76 .25 4.98.77 10.27 3.81 14.44 4.25 6.16 13.47 7.88 19.78 3.94 6.77-4.14 12.19-11.31 12.53-19.45.82-14.03 2.08-28.02 3.46-42 .15-5.71 1.84-11.65-.15-17.21-3.2-5.84-12.1-1.08-15.38-6.84-1.56-4.95.61-10.45 4.18-13.98 2.71-2.72 7.04-1.77 10.18-3.72 4.33-2.36 5.77-7.5 6.45-12.04 2.73-17.29 8.31-34.51 18.84-48.69 8.94-12.24 21.88-21.44 36.38-25.85m-167.48 113.05c-8.04 1.4-14.56 7.28-18.22 14.38-8.85 16.47-11.69 35.49-12.01 53.98 1.04 7.59 1.98 16.36 8.2 21.66 4.51 4.08 11.76 3.83 16.47.21 5.77-4.47 10.23-10.62 12.84-17.43 6.67-17.29 8.58-36.01 8.16-54.42-.25-4.86.82-10.38-2.42-14.5-2.99-3.94-8.43-4.83-13.02-3.88z"/><path d="m383.13 386.63c12.17-.98 24.37-1.62 36.53-2.85.36 2.6.59 5.22.74 7.85-9.33.93-18.7 1.37-28.04 2.15.26 4.3.67 8.6 1.07 12.89 8.26-.72 16.53-1.25 24.79-1.96.14 2.6.3 5.21.48 7.82-8.22.77-16.46 1.2-24.68 1.89.19 4.43.58 8.84.89 13.27 9.47-.72 18.94-1.44 28.42-2.15.15 2.59.32 5.19.51 7.78-12.35 1.05-24.74 1.73-37.08 2.92-1.08-16.55-2.64-33.06-3.63-49.61z"/><path d="m364.46 387.92c2.92-.17 5.84-.33 8.76-.48 1.11 16.54 2.74 33.04 3.54 49.6-2.84.11-5.67.28-8.5.49-.82-6.93-.88-13.92-1.63-20.85-7.85.86-15.75.94-23.59 1.88.53 6.94 1.25 13.86 1.55 20.82-2.93.18-5.87.36-8.8.51-.96-16.46-2.48-32.89-3.61-49.34 2.85-.22 5.68-.48 8.52-.82.85 6.88 1.21 13.81 1.79 20.73 7.82-.6 15.63-1.28 23.45-1.9-.42-6.89-.86-13.77-1.48-20.64z"/><path d="m285.64 394.15c13.37-1.31 26.78-2.13 40.17-3.08.3 2.69.53 5.39.71 8.1-5.28.32-10.57.56-15.82 1.12 1.29 13.75 2.02 27.54 3.22 41.3-2.91.23-5.81.51-8.72.77-1.24-13.72-2.25-27.47-3.08-41.22-5.26.14-10.51.52-15.76.85-.24-2.62-.49-5.23-.72-7.84z"/><path d="m375.92 469.93c6.85-6.94 16.4-10.94 26.09-11.55 6.16-.39 12.7 2.2 16.2 7.43 3.81 5.57 4.17 12.7 3.92 19.23-.59 11.38-7.44 22.16-17.44 27.59-7.2 3.61-16.83 3.02-23.04-2.32-3.13-2.9-4.6-7.01-5.8-10.99-11.19 11.33-16.68 26.93-20.03 42.18-3.84 17.2-4.6 34.85-6.48 52.32-.31 3.21-3.13 5.54-6.25 5.83-11.97 1.73-23.97 3.32-35.97 4.88-3.2.31-6.76.83-9.68-.86-2.95-1.77-3.76-5.51-3.84-8.7-.06-5.61.89-11.15 1.13-16.74-6.22 5.28-11.9 11.21-18.63 15.87-16.32 11.51-36.01 18.9-56.14 18.57-10.75.15-21.41-1.97-31.59-5.3-12.83-4.16-24.35-12.95-30.58-25.06-7.97-15.39-8.4-33.71-4.38-50.3 4.2-17.33 14.59-32.99 28.72-43.84 12.12-9.44 26.73-15.44 41.84-18.05 14.8-2.91 30.72-3.73 44.96 2.07 7.28 2.93 13.41 9 15.47 16.69 1.98 7.31 2.28 15.47-1 22.45-4 8.49-12.94 14.67-22.43 14.59-5.26.14-11.05-1.07-14.61-5.25-3.37-3.61-3.79-8.95-2.88-13.58.95-4.94 4.29-9.12 4.8-14.16.17-3.28-3.34-5.17-6.25-4.86-6.82-.21-12.35 4.66-16.25 9.76-9.4 11.48-13.08 26.58-13.35 41.17-.27 9.53 1.62 19.46 7.15 27.41 6.49 9.41 18.11 14.73 29.45 14.25 16.62-.88 30.71-11.19 42.5-22.09 4.62-4.03 8.18-9.55 8.8-15.75 1.08-14.99 3.07-29.9 4.08-44.89.39-5.94-2.79-11.23-3.65-16.95-.31-3.78 2.57-6.78 5.51-8.68 10.19-6.9 22.63-9.08 34.6-10.67 5.49-.36 11.08-1.35 16.54-.23 3.3.64 5.97 3.34 6.67 6.62 1.24 5.63.25 11.44.22 17.15 3.81-5.12 6.99-10.77 11.62-15.24z"/><path d="m510.6 616.32c2.93-.39 5.87-.61 8.83-.74 1.03 13.86 2.08 27.72 3.15 41.58 8.62-.87 17.3-1.17 25.93-2.06.05 2.66.96 5.45.21 8.06-11.43.68-22.83 1.82-34.26 2.51-1.41-16.44-2.37-32.92-3.86-49.35z"/><path d="m466.15 619.59c12.19-.93 24.39-1.76 36.56-2.84.36 2.6.6 5.22.79 7.85-9.36.6-18.68 1.66-28.04 2.08.34 4.3.79 8.59 1.03 12.9 8.23-.88 16.53-1.01 24.76-1.99.18 2.63.37 5.26.57 7.9-8.28.6-16.56 1.19-24.82 1.98.44 4.35.73 8.7.94 13.07 9.49-.61 18.97-1.3 28.44-2.14.17 2.64.34 5.3.49 7.95-12.38.63-24.71 2.1-37.1 2.56-.95-16.46-2.46-32.88-3.62-49.32z"/><path d="m447.74 620.93c2.87-.17 5.75-.38 8.62-.58 1.13 16.48 2.49 32.95 3.64 49.44-2.41.25-4.82.47-7.23.66-9.95-11.1-19.95-22.16-30-33.18.97 11.71 1.83 23.44 2.72 35.16-2.9.18-5.81.35-8.71.51-.96-16.48-2.52-32.92-3.6-49.39 2.67-.17 5.34-.34 8.02-.51 9.8 10.61 19.4 21.42 29.11 32.12-.88-11.41-1.73-22.82-2.57-34.23z"/><path d="m394.72 624.86c2.88-.14 5.75-.3 8.63-.48 1.21 16.45 2.42 32.89 3.7 49.34-2.43.28-4.87.5-7.3.68-10-11.05-19.93-22.17-30.02-33.13 1.1 11.71 1.8 23.47 2.77 35.19-2.9.18-5.8.36-8.7.51-.98-16.48-2.57-32.92-3.6-49.4 2.67-.18 5.33-.37 8-.55 9.78 10.65 19.41 21.44 29.13 32.16-.95-11.44-1.73-22.88-2.61-34.32z"/><path d="m306.6 681.39c6.12-17.16 11.97-34.41 18.14-51.56 2.7-.14 5.4-.3 8.11-.44 8.42 16.07 16.9 32.11 25.51 48.07-3.12.19-6.23.41-9.34.7-1.94-3.87-3.91-7.73-5.89-11.58-7.78.67-15.57 1.18-23.35 1.85-1.41 4.08-2.8 8.16-4.19 12.25-2.99.28-5.98.54-8.99.71m15.75-20.95c5.65-.5 11.3-.9 16.96-1.23-3.22-6.43-6.62-12.75-9.94-19.12-2.41 6.76-4.64 13.58-7.02 20.35z"/><path d="m288.52 632.97c2.92-.22 5.84-.44 8.76-.66 1.24 16.48 2.61 32.95 3.67 49.44-2.87.35-5.75.59-8.63.78-.79-6.96-.83-13.97-1.57-20.93-7.89.54-15.75 1.31-23.64 1.87.52 6.95 1.27 13.88 1.59 20.85-2.96.18-5.93.33-8.9.38-.78-16.44-2.47-32.83-3.53-49.25 2.95-.19 5.91-.41 8.85-.67.21 6.88.97 13.72 1.46 20.58 7.78-.87 15.61-.93 23.38-1.85-.3-6.86-.78-13.71-1.44-20.54z"/><path d="m215.42 642.46c9.69-8.18 25.25-8.04 34.8.32-1.71 2.28-3.43 4.56-5.12 6.86-4.95-4-11.68-6.53-17.97-4.38-8.78 2.55-13.33 12.95-10.84 21.44 1.7 7.45 8.79 13.69 16.68 12.97 5.68.09 10.47-3.44 14.14-7.45 1.99 1.74 4.01 3.45 6.05 5.14-4.86 6.61-12.93 10.61-21.15 10.43-9 .34-17.88-4.8-22.15-12.71-5.92-10.41-3.86-24.95 5.56-32.62z"/></g><g fill="#ac2275" transform="translate(-98.427441 -89.852772)"><path d="m648.35 98.28c3.43-3.24 6.45-7.87 11.59-8.31 6.38-1.01 12.62 4.66 12.35 11.09.02 3.75-2.36 6.85-4.93 9.32-52.6 52.88-104.89 106.07-157.48 158.97 52.39 1.79 104.67 6.53 156.63 13.45 44.2 6.1 88.42 13.47 131.22 26.3 16.4 4.74 32.17 14.34 40.78 29.5 9.31 15.57 10 34.13 12.34 51.64 4.1 35.47 7.19 71.09 7.89 106.8 1.77 60.18-2.79 120.41-10.8 180.04-1.93 12.96-6.24 25.93-14.67 36.17-8.89 11-21.88 17.83-35.22 21.87-29.86 9.14-60.5 15.48-91.25 20.82-35.67 6.05-71.59 10.51-107.62 13.78-46.57 4.19-93.35 6.43-140.12 5.63-44.42-.87-88.78-3.98-132.94-8.88-54.64-6.32-109.31-14.67-162.23-30.02-14.12-3.87-28.17-10.2-38.01-21.39-6.91-7.64-11.43-17.2-14.01-27.11-2.53-9.4-3.19-19.15-4.54-28.75-6.04-49.5-9.49-99.35-8.82-149.23.54-44.5 4.19-88.91 9.86-133.04 1.29-11.94 3.3-24.08 8.83-34.88 4.96-10.08 12.96-18.53 22.6-24.26 8.69-5.35 18.51-8.4 28.27-11.13 36.34-10.3 73.57-17.06 110.9-22.59 52.38-7.52 105.14-12.33 158-14.43 10.55-.39 21.11-.27 31.65-.84-29.65-28.82-59-57.94-88.58-86.82-3.91-4.12-9.36-7.76-10.02-13.89-1.46-8.1 5.71-16.37 13.97-15.92 4.48-.23 8.35 2.43 11.32 5.52 32.77 32.3 65.69 64.44 98.48 96.74 51.54-52.03 103-104.14 154.56-156.15m22.53 257.33c-14.5 4.41-27.44 13.61-36.38 25.85-10.53 14.18-16.11 31.4-18.84 48.69-.68 4.54-2.12 9.68-6.45 12.04-3.14 1.95-7.47 1-10.18 3.72-3.57 3.53-5.74 9.03-4.18 13.98 3.28 5.76 12.18 1 15.38 6.84 1.99 5.56.3 11.5.15 17.21-1.38 13.98-2.64 27.97-3.46 42-.34 8.14-5.76 15.31-12.53 19.45-6.31 3.94-15.53 2.22-19.78-3.94-3.04-4.17-3.56-9.46-3.81-14.44-1.3-25.73 5.97-50.71 9.31-76 .98-3.67-2.06-8.11-6.09-7.32-8.26 1.69-16.31 4.39-24.16 7.44-8.06 3.26-17.32 3.88-25.52.76-12.91-4.78-27.06-3.47-40.21-.45-11.06 2.32-21.95 6.05-31.47 12.25-12.99 8.26-22.73 20.9-29.25 34.7-8.19 17.49-9.36 37.66-5.39 56.4 2.27 12.94 9.52 25.51 21.35 31.87 11.52 6.31 25.43 7.54 38.11 4.46 16.74-4.11 31.98-13.48 43.86-25.89 3.27 5.63 7.22 11.07 12.73 14.7 8.75 5.89 19.94 6.9 30.13 5.23 14.16-2.55 25.67-11.73 37.5-19.27-1.52 14.27-4.87 28.29-9.14 41.97-5.15 15.99-11.55 31.78-21.06 45.72-1.36 2.11-2.74 4.81-1.53 7.3 1.07 1.62 2.65 2.92 4.44 3.7 5.99.92 11.63-1.81 17-4.05 14.47-6.5 28.36-15.18 38.57-27.51 10.75-12.84 19.4-27.61 24.54-43.6 2.95-8.85 3.19-18.24 4.55-27.39 3.13-25.4 7.09-50.69 10.33-76.08.8-6.81 2.9-13.75 7.69-18.84 5.71-6.13 14.1-8.74 22.15-10.02 2.18-.25 4.46-1.01 6.64-.37 1.94 1.09 1.33 3.46 1.24 5.29-1.6 11.68-2.7 23.44-4.94 35.04-2.46 14.4-5.2 29.32-1.77 43.81 2.41 10.69 9.27 20.47 19.04 25.63 11.85 6.38 26.18 6.3 38.9 2.81 15.81-4.46 29.09-14.92 40.28-26.62 4.82-5.21 10.22-10.07 13.64-16.39 1.86-3.39 4.75-6.91 3.32-11.04-2.22-2.97-6.87-4.18-9.79-1.5-6.09 4.88-11.23 10.88-17.56 15.47-6.29 4.44-15.15 5.46-21.92 1.51-3.72-2.14-5.66-6.44-5.84-10.61-.81-16.84.34-33.81 3.98-50.29 1.23-5.69 1.97-12.46 7.06-16.16 4.63-3.68 11.38-2.36 15.87-6.26 3.29-2.73 5.3-7.05 4.96-11.35-.17-1.88-.73-4.1-2.64-4.91-5.02-2.89-11.26.05-16.38-2.46-2.88-1.32-3.73-4.81-3.4-7.7.77-10.04 2.6-19.97 3.48-30 .15-3.13-.66-6.38-2.53-8.92-1.58-2.19-4.65-1.73-6.95-1.35-4.31 1.39-6.63 5.67-8.95 9.24-5.03 8.72-10.44 17.29-17.24 24.76-7.25 7.98-15.78 15.31-26.06 18.98-7.88 2.72-16.71 2.84-24.61.22-4.86-1.55-8.63-5.81-9.5-10.84-1.77-10.28-.84-21.02 2.54-30.89 1.87-5.19 3.9-11.08 9-13.96 2.29-1.53 5.38-.32 6.69 1.91 2.64 4.44 3.21 9.76 5.71 14.28 4.1 9 16 9.48 24.07 6.23 7.93-3.48 12.87-12.15 12.87-20.68-.15-9.26-5.6-18.16-13.71-22.6-9.87-5.66-21.61-6.13-32.7-6.13-7.13 1.01-14.28 2.21-21.16 4.37m-287.75 31.02c.99 16.55 2.55 33.06 3.63 49.61 12.34-1.19 24.73-1.87 37.08-2.92-.19-2.59-.36-5.19-.51-7.78-9.48.71-18.95 1.43-28.42 2.15-.31-4.43-.7-8.84-.89-13.27 8.22-.69 16.46-1.12 24.68-1.89-.18-2.61-.34-5.22-.48-7.82-8.26.71-16.53 1.24-24.79 1.96-.4-4.29-.81-8.59-1.07-12.89 9.34-.78 18.71-1.22 28.04-2.15-.15-2.63-.38-5.25-.74-7.85-12.16 1.23-24.36 1.87-36.53 2.85m-18.67 1.29c.62 6.87 1.06 13.75 1.48 20.64-7.82.62-15.63 1.3-23.45 1.9-.58-6.92-.94-13.85-1.79-20.73-2.84.34-5.67.6-8.52.82 1.13 16.45 2.65 32.88 3.61 49.34 2.93-.15 5.87-.33 8.8-.51-.3-6.96-1.02-13.88-1.55-20.82 7.84-.94 15.74-1.02 23.59-1.88.75 6.93.81 13.92 1.63 20.85 2.83-.21 5.66-.38 8.5-.49-.8-16.56-2.43-33.06-3.54-49.6-2.92.15-5.84.31-8.76.48m-78.82 6.23c.23 2.61.48 5.22.72 7.84 5.25-.33 10.5-.71 15.76-.85.83 13.75 1.84 27.5 3.08 41.22 2.91-.26 5.81-.54 8.72-.77-1.2-13.76-1.93-27.55-3.22-41.3 5.25-.56 10.54-.8 15.82-1.12-.18-2.71-.41-5.41-.71-8.1-13.39.95-26.8 1.77-40.17 3.08m90.28 75.78c-4.63 4.47-7.81 10.12-11.62 15.24.03-5.71 1.02-11.52-.22-17.15-.7-3.28-3.37-5.98-6.67-6.62-5.46-1.12-11.05-.13-16.54.23-11.97 1.59-24.41 3.77-34.6 10.67-2.94 1.9-5.82 4.9-5.51 8.68.86 5.72 4.04 11.01 3.65 16.95-1.01 14.99-3 29.9-4.08 44.89-.62 6.2-4.18 11.72-8.8 15.75-11.79 10.9-25.88 21.21-42.5 22.09-11.34.48-22.96-4.84-29.45-14.25-5.53-7.95-7.42-17.88-7.15-27.41.27-14.59 3.95-29.69 13.35-41.17 3.9-5.1 9.43-9.97 16.25-9.76 2.91-.31 6.42 1.58 6.25 4.86-.51 5.04-3.85 9.22-4.8 14.16-.91 4.63-.49 9.97 2.88 13.58 3.56 4.18 9.35 5.39 14.61 5.25 9.49.08 18.43-6.1 22.43-14.59 3.28-6.98 2.98-15.14 1-22.45-2.06-7.69-8.19-13.76-15.47-16.69-14.24-5.8-30.16-4.98-44.96-2.07-15.11 2.61-29.72 8.61-41.84 18.05-14.13 10.85-24.52 26.51-28.72 43.84-4.02 16.59-3.59 34.91 4.38 50.3 6.23 12.11 17.75 20.9 30.58 25.06 10.18 3.33 20.84 5.45 31.59 5.3 20.13.33 39.82-7.06 56.14-18.57 6.73-4.66 12.41-10.59 18.63-15.87-.24 5.59-1.19 11.13-1.13 16.74.08 3.19.89 6.93 3.84 8.7 2.92 1.69 6.48 1.17 9.68.86 12-1.56 24-3.15 35.97-4.88 3.12-.29 5.94-2.62 6.25-5.83 1.88-17.47 2.64-35.12 6.48-52.32 3.35-15.25 8.84-30.85 20.03-42.18 1.2 3.98 2.67 8.09 5.8 10.99 6.21 5.34 15.84 5.93 23.04 2.32 10-5.43 16.85-16.21 17.44-27.59.25-6.53-.11-13.66-3.92-19.23-3.5-5.23-10.04-7.82-16.2-7.43-9.69.61-19.24 4.61-26.09 11.55m134.68 146.39c1.49 16.43 2.45 32.91 3.86 49.35 11.43-.69 22.83-1.83 34.26-2.51.75-2.61-.16-5.4-.21-8.06-8.63.89-17.31 1.19-25.93 2.06-1.07-13.86-2.12-27.72-3.15-41.58-2.96.13-5.9.35-8.83.74m-44.45 3.27c1.16 16.44 2.67 32.86 3.62 49.32 12.39-.46 24.72-1.93 37.1-2.56-.15-2.65-.32-5.31-.49-7.95-9.47.84-18.95 1.53-28.44 2.14-.21-4.37-.5-8.72-.94-13.07 8.26-.79 16.54-1.38 24.82-1.98-.2-2.64-.39-5.27-.57-7.9-8.23.98-16.53 1.11-24.76 1.99-.24-4.31-.69-8.6-1.03-12.9 9.36-.42 18.68-1.48 28.04-2.08-.19-2.63-.43-5.25-.79-7.85-12.17 1.08-24.37 1.91-36.56 2.84m-18.41 1.34c.84 11.41 1.69 22.82 2.57 34.23-9.71-10.7-19.31-21.51-29.11-32.12-2.68.17-5.35.34-8.02.51 1.08 16.47 2.64 32.91 3.6 49.39 2.9-.16 5.81-.33 8.71-.51-.89-11.72-1.75-23.45-2.72-35.16 10.05 11.02 20.05 22.08 30 33.18 2.41-.19 4.82-.41 7.23-.66-1.15-16.49-2.51-32.96-3.64-49.44-2.87.2-5.75.41-8.62.58m-53.02 3.93c.88 11.44 1.66 22.88 2.61 34.32-9.72-10.72-19.35-21.51-29.13-32.16-2.67.18-5.33.37-8 .55 1.03 16.48 2.62 32.92 3.6 49.4 2.9-.15 5.8-.33 8.7-.51-.97-11.72-1.67-23.48-2.77-35.19 10.09 10.96 20.02 22.08 30.02 33.13 2.43-.18 4.87-.4 7.3-.68-1.28-16.45-2.49-32.89-3.7-49.34-2.88.18-5.75.34-8.63.48m-88.12 56.53c3.01-.17 6-.43 8.99-.71 1.39-4.09 2.78-8.17 4.19-12.25 7.78-.67 15.57-1.18 23.35-1.85 1.98 3.85 3.95 7.71 5.89 11.58 3.11-.29 6.22-.51 9.34-.7-8.61-15.96-17.09-32-25.51-48.07-2.71.14-5.41.3-8.11.44-6.17 17.15-12.02 34.4-18.14 51.56m-18.08-48.42c.66 6.83 1.14 13.68 1.44 20.54-7.77.92-15.6.98-23.38 1.85-.49-6.86-1.25-13.7-1.46-20.58-2.94.26-5.9.48-8.85.67 1.06 16.42 2.75 32.81 3.53 49.25 2.97-.05 5.94-.2 8.9-.38-.32-6.97-1.07-13.9-1.59-20.85 7.89-.56 15.75-1.33 23.64-1.87.74 6.96.78 13.97 1.57 20.93 2.88-.19 5.76-.43 8.63-.78-1.06-16.49-2.43-32.96-3.67-49.44-2.92.22-5.84.44-8.76.66m-73.1 9.49c-9.42 7.67-11.48 22.21-5.56 32.62 4.27 7.91 13.15 13.05 22.15 12.71 8.22.18 16.29-3.82 21.15-10.43-2.04-1.69-4.06-3.4-6.05-5.14-3.67 4.01-8.46 7.54-14.14 7.45-7.89.72-14.98-5.52-16.68-12.97-2.49-8.49 2.06-18.89 10.84-21.44 6.29-2.15 13.02.38 17.97 4.38 1.69-2.3 3.41-4.58 5.12-6.86-9.55-8.36-25.11-8.5-34.8-.32z"/><path d="m503.4 468.66c4.59-.95 10.03-.06 13.02 3.88 3.24 4.12 2.17 9.64 2.42 14.5.42 18.41-1.49 37.13-8.16 54.42-2.61 6.81-7.07 12.96-12.84 17.43-4.71 3.62-11.96 3.87-16.47-.21-6.22-5.3-7.16-14.07-8.2-21.66.32-18.49 3.16-37.51 12.01-53.98 3.66-7.1 10.18-12.98 18.22-14.38z"/><path d="m322.35 660.44c2.38-6.77 4.61-13.59 7.02-20.35 3.32 6.37 6.72 12.69 9.94 19.12-5.66.33-11.31.73-16.96 1.23z"/></g></svg>