<?xml version="1.0" encoding="UTF-8" standalone="no"?>
<!-- Created with Inkscape (http://www.inkscape.org/) -->

<svg
   xmlns:dc="http://purl.org/dc/elements/1.1/"
   xmlns:cc="http://creativecommons.org/ns#"
   xmlns:rdf="http://www.w3.org/1999/02/22-rdf-syntax-ns#"
   xmlns:svg="http://www.w3.org/2000/svg"
   xmlns="http://www.w3.org/2000/svg"
   xmlns:sodipodi="http://sodipodi.sourceforge.net/DTD/sodipodi-0.dtd"
   xmlns:inkscape="http://www.inkscape.org/namespaces/inkscape"
   width="11.873759mm"
   height="6.465745mm"
   viewBox="0 0 42.072375 22.91012"
   id="svg9718"
   version="1.1"
   inkscape:version="0.91 r13725"
   sodipodi:docname="The Store - Dark.svg">
  <defs
     id="defs9720">
    <clipPath
       clipPathUnits="userSpaceOnUse"
       id="clipPath2112">
      <path
         d="m 358.138,115.468 33.658,0 0,25.647 -33.658,0 0,-25.647 z"
         id="path2114"
         inkscape:connector-curvature="0" />
    </clipPath>
    <clipPath
       clipPathUnits="userSpaceOnUse"
       id="clipPath2120">
      <path
         d="m 358.085,141.169 33.764,0 0,-25.753 -33.764,0 0,25.753 z"
         id="path2122"
         inkscape:connector-curvature="0" />
    </clipPath>
    <clipPath
       clipPathUnits="userSpaceOnUse"
       id="clipPath2124">
      <path
         d="m 358.138,115.469 33.658,0 0,25.647 -33.658,0 0,-25.647 z"
         id="path2126"
         inkscape:connector-curvature="0" />
    </clipPath>
  </defs>
  <sodipodi:namedview
     id="base"
     pagecolor="#ffffff"
     bordercolor="#666666"
     borderopacity="1.0"
     inkscape:pageopacity="0.0"
     inkscape:pageshadow="2"
     inkscape:zoom="11.2"
     inkscape:cx="12.096704"
     inkscape:cy="18.684657"
     inkscape:document-units="px"
     inkscape:current-layer="layer1"
     showgrid="false"
     fit-margin-top="0"
     fit-margin-left="0"
     fit-margin-right="0"
     fit-margin-bottom="0"
     inkscape:window-width="1920"
     inkscape:window-height="1017"
     inkscape:window-x="-8"
     inkscape:window-y="-8"
     inkscape:window-maximized="1" />
  <metadata
     id="metadata9723">
    <rdf:RDF>
      <cc:Work
         rdf:about="">
        <dc:format>image/svg+xml</dc:format>
        <dc:type
           rdf:resource="http://purl.org/dc/dcmitype/StillImage" />
        <dc:title></dc:title>
      </cc:Work>
    </rdf:RDF>
  </metadata>
  <g
     inkscape:label="Layer 1"
     inkscape:groupmode="layer"
     id="layer1"
     transform="translate(-321.82095,-419.76655)">
    <g
       id="g2132"
       transform="matrix(1.25,0,0,-1.25,339.33658,420.49905)">
      <path
         inkscape:connector-curvature="0"
         id="path2134"
         style="fill:#5d5782;fill-opacity:1;fill-rule:nonzero;stroke:none"
         d="m 0,0 0,-1.977 0.648,0 0,1.977 0.626,0 0,0.586 -1.904,0 L -0.63,0 0,0 Z" />
    </g>
    <g
       id="g2136"
       transform="matrix(1.25,0,0,-1.25,342.50382,422.96979)">
      <path
         inkscape:connector-curvature="0"
         id="path2138"
         style="fill:#5d5782;fill-opacity:1;fill-rule:nonzero;stroke:none"
         d="m 0,0 0,1.029 0.79,0 0,-1.029 0.67,0 0,2.562 -0.67,0 0,-0.93 -0.79,0 0,0.93 -0.67,0 L -0.67,0 0,0 Z" />
    </g>
    <g
       id="g2140"
       transform="matrix(1.25,0,0,-1.25,347.16495,422.96979)">
      <path
         inkscape:connector-curvature="0"
         id="path2142"
         style="fill:#5d5782;fill-opacity:1;fill-rule:nonzero;stroke:none"
         d="m 0,0 0,0.582 -0.98,0 0,0.45 0.87,0 0,0.582 -0.87,0 0,0.363 0.947,0 0,0.585 -1.599,0 L -1.632,0 0,0 Z" />
    </g>
    <g
       id="g2144"
       transform="matrix(1.25,0,0,-1.25,-125.85155,587.01292)">
      <g
         id="g2146"
         clip-path="url(#clipPath2124)">
        <g
           id="g2148"
           transform="translate(378.9654,117.6283)">
          <path
             inkscape:connector-curvature="0"
             id="path2150"
             style="fill:#5d5782;fill-opacity:1;fill-rule:nonzero;stroke:none"
             d="m 0,0 c 0.002,0.005 0.004,0.01 0.004,0.016 0,0.019 -0.014,0.035 -0.033,0.038 -0.011,0.002 -0.028,0.004 -0.05,0.005 -0.025,0.002 -5.143,0.485 -7.026,-0.885 -0.334,-0.243 -0.441,-0.538 -0.381,-0.791 0.106,-0.441 0.949,-0.478 1.27,-0.236 1.739,1.308 4.223,1.523 6.059,1.801 0.082,0.012 0.123,0.023 0.142,0.036 10e-4,0 0.002,0.001 0.003,0.001 C -0.006,-0.01 -0.002,-0.005 0,0" />
        </g>
        <g
           id="g2152"
           transform="translate(366.0397,123.0389)">
          <path
             inkscape:connector-curvature="0"
             id="path2154"
             style="fill:#5d5782;fill-opacity:1;fill-rule:nonzero;stroke:none"
             d="m 0,0 c -0.712,1.07 -2.897,2.669 -2.897,2.669 -0.943,0.689 -1.346,1.76 -1.005,2.359 0.592,1.04 1.955,0.431 2.79,-0.373 0.062,-0.06 0.2,-0.181 0.29,-0.28 0.048,-0.051 0.091,-0.096 0.174,-0.106 0.064,-0.008 0.143,0.072 0.143,0.072 0.337,0.341 1.081,1.367 0.447,2.419 C -0.65,7.742 -2.416,8.386 -4.004,7.96 -5.178,7.646 -5.875,6.887 -6.307,6.049 -6.606,5.485 -6.771,4.54 -6.758,3.832 c 0.01,-0.574 0.23,-1.206 0.447,-1.682 0.44,-1.002 2.622,-2.99 3.258,-3.547 1.374,-1.203 1.224,-2.697 0.532,-3.149 -0.703,-0.459 -1.707,-0.336 -2.55,0.859 -0.431,0.611 -0.621,1.655 -0.671,1.979 -0.004,0.04 -0.009,0.084 -0.035,0.107 -0.018,0.016 -0.047,0.021 -0.076,0.026 l 0,0 c 0,0 -0.001,10e-4 -0.001,10e-4 -0.011,0.001 -0.022,0.003 -0.032,0.006 -0.006,0.001 -0.013,0.001 -0.019,0.001 -0.163,0.025 -0.423,0.047 -0.616,-0.014 -0.997,-0.319 -1.589,-1.574 -1.313,-3.162 0.212,-1.216 1.23,-2.266 1.982,-2.564 0.438,-0.17 1.147,-0.285 1.688,-0.26 3.382,0.155 4.918,2.623 4.975,5.251 C 0.831,-1.395 0.428,-0.656 0,0" />
        </g>
        <g
           id="g2156"
           transform="translate(387.1189,127.163)">
          <path
             inkscape:connector-curvature="0"
             id="path2158"
             style="fill:#5d5782;fill-opacity:1;fill-rule:nonzero;stroke:none"
             d="M 0,0 C -0.154,0.108 -0.095,0.426 0.09,0.967 0.274,1.507 0.536,1.703 0.829,1.686 1.185,1.666 1.305,1.182 1.038,0.676 0.783,0.19 0.185,-0.095 0,0 m -11.534,-5.46 c -0.591,0.034 -0.959,0.985 -0.894,2.124 0.053,0.927 0.357,1.691 0.809,1.926 0.014,0.006 0.037,0.017 0.053,0.021 0.067,0.017 0.105,-0.02 0.108,-0.141 0,-0.01 -0.031,-1.587 0.974,-2.144 -0.096,-1.078 -0.48,-1.818 -1.05,-1.786 M 4.675,0.553 4.676,0.555 C 4.671,0.644 4.582,0.767 4.301,0.825 4.113,0.863 3.913,0.863 3.863,0.757 3.778,0.448 3.362,-0.637 2.655,-1.39 2.061,-2.022 1.17,-2.283 0.917,-2.283 c -0.569,0 -0.738,0.48 -0.738,0.981 0,0.024 0.001,0.047 0.003,0.071 0.597,0.129 1.821,0.824 2.257,1.505 C 3.365,1.721 2.903,2.769 2.22,3.224 1.349,3.804 -0.283,3.239 -1.302,1.82 -1.512,1.529 -1.667,1.235 -1.782,0.938 -1.914,1.456 -2.212,1.882 -2.66,2.109 -3.65,2.613 -5.008,2.041 -5.673,0.733 -5.753,0.576 -5.819,0.418 -5.872,0.259 c -0.256,0.68 -0.79,1.052 -1.436,1.052 -0.853,0 -1.567,-1.043 -1.567,-2.074 0,-0.536 0.29,-0.83 0.602,-0.859 0.076,-0.006 0.249,0.053 0.333,0.134 0.073,0.061 0.114,0.094 0.203,0.094 0.066,0 0.318,-0.058 0.318,-0.07 l -0.002,-0.399 c -0.012,-0.377 -0.272,-1.155 -0.795,-1.282 -0.618,-0.15 -0.958,0.356 -1.016,0.518 0.116,1.937 -1.081,3.16 -2.17,2.322 -0.018,-0.013 -0.115,0.296 -0.487,0.347 -1.565,0.211 -2.586,-1.073 -2.787,-3.384 -0.036,-0.412 0.021,-0.748 0.072,-1.128 -0.122,-0.313 -0.565,-1.384 -1.039,-1.821 -0.556,-0.513 -0.975,-0.566 -1.136,-0.53 -0.656,0.144 -0.513,2.418 -0.406,3.382 0.458,0.046 1.1,0.128 1.311,0.178 0.488,0.113 0.843,0.476 0.811,1.295 -0.019,0.485 -0.206,1.095 -0.576,1.009 -0.003,-0.001 -1.324,-0.245 -1.324,-0.245 0.287,0.798 0.349,1.384 0.424,1.779 0.171,0.897 -0.167,1.467 -1.234,1.212 -1.316,-0.315 -1.712,-0.826 -1.775,-0.9 -0.197,-0.23 0.048,-2.565 0.052,-2.58 -0.235,-0.029 -0.79,-0.123 -0.908,-0.346 -0.075,-0.145 -0.071,-0.559 -0.063,-0.75 0.018,-0.465 0.114,-0.836 0.298,-0.867 0.185,-0.031 0.567,-0.01 0.567,-0.01 -0.089,-0.707 -0.154,-1.919 -0.12,-2.656 0.073,-1.588 0.649,-2.756 2.33,-2.729 2.251,0.036 3.261,1.852 3.535,2.519 0.464,-0.923 0.938,-1.309 1.787,-1.32 1.345,-0.019 2.521,1.507 2.794,3.455 0.304,-0.147 0.707,-0.202 1.025,-0.148 0.337,0.058 0.609,0.278 0.828,0.505 l 0,-2.464 2.358,0.618 0,4.191 c -10e-4,0.18 0.083,0.791 0.164,1.003 0.142,0.373 0.324,0.76 0.786,0.679 0.168,-0.029 0.254,-0.194 0.287,-0.394 0.06,-0.562 0.284,-0.935 0.72,-1.001 0.335,-0.051 0.708,0.217 1.005,0.602 -0.025,-1.192 0.314,-2.937 1.345,-3.51 0.39,-0.217 1.224,-0.293 2.136,0.072 1.141,0.457 3.301,2.036 3.299,4.746 0,0.016 -10e-4,0.033 -0.002,0.049" />
        </g>
      </g>
    </g>
  </g>
</svg>
