<?xml version="1.0" encoding="UTF-8"?>
<!-- Created with Inkscape (http://www.inkscape.org/) -->
<svg id="svg9718" width="11.874mm" height="6.4657mm" version="1.1" viewBox="0 0 42.072 22.91" xmlns="http://www.w3.org/2000/svg" xmlns:cc="http://creativecommons.org/ns#" xmlns:dc="http://purl.org/dc/elements/1.1/" xmlns:rdf="http://www.w3.org/1999/02/22-rdf-syntax-ns#">
 <defs id="defs9720">
  <clipPath id="clipPath2124">
   <path id="path2126" d="m358.14 115.47h33.658v25.647h-33.658v-25.647z"/>
  </clipPath>
 </defs>
 <metadata id="metadata9723">
  <rdf:RDF>
   <cc:Work rdf:about="">
    <dc:format>image/svg+xml</dc:format>
    <dc:type rdf:resource="http://purl.org/dc/dcmitype/StillImage"/>
    <dc:title/>
   </cc:Work>
  </rdf:RDF>
 </metadata>
 <g id="layer1" transform="translate(-321.82 -419.77)">
  <g id="g2132" transform="matrix(1.25 0 0 -1.25 339.34 420.5)">
   <path id="path2134" d="m0 0v-1.977h0.648v1.977h0.626v0.586h-1.904v-0.586h0.63z" fill="#5d5782"/>
  </g>
  <g id="g2136" transform="matrix(1.25 0 0 -1.25 342.5 422.97)">
   <path id="path2138" d="m0 0v1.029h0.79v-1.029h0.67v2.562h-0.67v-0.93h-0.79v0.93h-0.67v-2.562h0.67z" fill="#5d5782"/>
  </g>
  <g id="g2140" transform="matrix(1.25 0 0 -1.25 347.16 422.97)">
   <path id="path2142" d="m0 0v0.582h-0.98v0.45h0.87v0.582h-0.87v0.363h0.947v0.585h-1.599v-2.562h1.632z" fill="#5d5782"/>
  </g>
  <g id="g2144" transform="matrix(1.25 0 0 -1.25 -125.85 587.01)">
   <g id="g2146" clip-path="url(#clipPath2124)">
    <g id="g2148" transform="translate(378.97 117.63)">
     <path id="path2150" d="m0 0c2e-3 5e-3 4e-3 0.01 4e-3 0.016 0 0.019-0.014 0.035-0.033 0.038-0.011 2e-3 -0.028 4e-3 -0.05 5e-3 -0.025 2e-3 -5.143 0.485-7.026-0.885-0.334-0.243-0.441-0.538-0.381-0.791 0.106-0.441 0.949-0.478 1.27-0.236 1.739 1.308 4.223 1.523 6.059 1.801 0.082 0.012 0.123 0.023 0.142 0.036 1e-3 0 2e-3 1e-3 3e-3 1e-3 6e-3 5e-3 0.01 0.01 0.012 0.015" fill="#5d5782"/>
    </g>
    <g id="g2152" transform="translate(366.04 123.04)">
     <path id="path2154" d="m0 0c-0.712 1.07-2.897 2.669-2.897 2.669-0.943 0.689-1.346 1.76-1.005 2.359 0.592 1.04 1.955 0.431 2.79-0.373 0.062-0.06 0.2-0.181 0.29-0.28 0.048-0.051 0.091-0.096 0.174-0.106 0.064-8e-3 0.143 0.072 0.143 0.072 0.337 0.341 1.081 1.367 0.447 2.419-0.592 0.982-2.358 1.626-3.946 1.2-1.174-0.314-1.871-1.073-2.303-1.911-0.299-0.564-0.464-1.509-0.451-2.217 0.01-0.574 0.23-1.206 0.447-1.682 0.44-1.002 2.622-2.99 3.258-3.547 1.374-1.203 1.224-2.697 0.532-3.149-0.703-0.459-1.707-0.336-2.55 0.859-0.431 0.611-0.621 1.655-0.671 1.979-4e-3 0.04-9e-3 0.084-0.035 0.107-0.018 0.016-0.047 0.021-0.076 0.026l-1e-3 1e-3c-0.011 1e-3 -0.022 3e-3 -0.032 6e-3 -6e-3 1e-3 -0.013 1e-3 -0.019 1e-3 -0.163 0.025-0.423 0.047-0.616-0.014-0.997-0.319-1.589-1.574-1.313-3.162 0.212-1.216 1.23-2.266 1.982-2.564 0.438-0.17 1.147-0.285 1.688-0.26 3.382 0.155 4.918 2.623 4.975 5.251 0.02 0.921-0.383 1.66-0.811 2.316" fill="#5d5782"/>
    </g>
    <g id="g2156" transform="translate(387.12 127.16)">
     <path id="path2158" d="m0 0c-0.154 0.108-0.095 0.426 0.09 0.967 0.184 0.54 0.446 0.736 0.739 0.719 0.356-0.02 0.476-0.504 0.209-1.01-0.255-0.486-0.853-0.771-1.038-0.676m-11.534-5.46c-0.591 0.034-0.959 0.985-0.894 2.124 0.053 0.927 0.357 1.691 0.809 1.926 0.014 6e-3 0.037 0.017 0.053 0.021 0.067 0.017 0.105-0.02 0.108-0.141 0-0.01-0.031-1.587 0.974-2.144-0.096-1.078-0.48-1.818-1.05-1.786m16.209 6.013 1e-3 2e-3c-5e-3 0.089-0.094 0.212-0.375 0.27-0.188 0.038-0.388 0.038-0.438-0.068-0.085-0.309-0.501-1.394-1.208-2.147-0.594-0.632-1.485-0.893-1.738-0.893-0.569 0-0.738 0.48-0.738 0.981 0 0.024 1e-3 0.047 3e-3 0.071 0.597 0.129 1.821 0.824 2.257 1.505 0.926 1.447 0.464 2.495-0.219 2.95-0.871 0.58-2.503 0.015-3.522-1.404-0.21-0.291-0.365-0.585-0.48-0.882-0.132 0.518-0.43 0.944-0.878 1.171-0.99 0.504-2.348-0.068-3.013-1.376-0.08-0.157-0.146-0.315-0.199-0.474-0.256 0.68-0.79 1.052-1.436 1.052-0.853 0-1.567-1.043-1.567-2.074 0-0.536 0.29-0.83 0.602-0.859 0.076-6e-3 0.249 0.053 0.333 0.134 0.073 0.061 0.114 0.094 0.203 0.094 0.066 0 0.318-0.058 0.318-0.07l-2e-3 -0.399c-0.012-0.377-0.272-1.155-0.795-1.282-0.618-0.15-0.958 0.356-1.016 0.518 0.116 1.937-1.081 3.16-2.17 2.322-0.018-0.013-0.115 0.296-0.487 0.347-1.565 0.211-2.586-1.073-2.787-3.384-0.036-0.412 0.021-0.748 0.072-1.128-0.122-0.313-0.565-1.384-1.039-1.821-0.556-0.513-0.975-0.566-1.136-0.53-0.656 0.144-0.513 2.418-0.406 3.382 0.458 0.046 1.1 0.128 1.311 0.178 0.488 0.113 0.843 0.476 0.811 1.295-0.019 0.485-0.206 1.095-0.576 1.009-3e-3 -1e-3 -1.324-0.245-1.324-0.245 0.287 0.798 0.349 1.384 0.424 1.779 0.171 0.897-0.167 1.467-1.234 1.212-1.316-0.315-1.712-0.826-1.775-0.9-0.197-0.23 0.048-2.565 0.052-2.58-0.235-0.029-0.79-0.123-0.908-0.346-0.075-0.145-0.071-0.559-0.063-0.75 0.018-0.465 0.114-0.836 0.298-0.867 0.185-0.031 0.567-0.01 0.567-0.01-0.089-0.707-0.154-1.919-0.12-2.656 0.073-1.588 0.649-2.756 2.33-2.729 2.251 0.036 3.261 1.852 3.535 2.519 0.464-0.923 0.938-1.309 1.787-1.32 1.345-0.019 2.521 1.507 2.794 3.455 0.304-0.147 0.707-0.202 1.025-0.148 0.337 0.058 0.609 0.278 0.828 0.505v-2.464l2.358 0.618v4.191c-1e-3 0.18 0.083 0.791 0.164 1.003 0.142 0.373 0.324 0.76 0.786 0.679 0.168-0.029 0.254-0.194 0.287-0.394 0.06-0.562 0.284-0.935 0.72-1.001 0.335-0.051 0.708 0.217 1.005 0.602-0.025-1.192 0.314-2.937 1.345-3.51 0.39-0.217 1.224-0.293 2.136 0.072 1.141 0.457 3.301 2.036 3.299 4.746 0 0.016-1e-3 0.033-2e-3 0.049" fill="#5d5782"/>
    </g>
   </g>
  </g>
 </g>
</svg>
