<svg height="747pt" viewBox="0 0 1717.83 747" width="1717.83pt" xmlns="http://www.w3.org/2000/svg"><path d="m51.61 291.96.11-.6104h1440.28l-72.98 449.1404-1419.02.01v-1.44z" fill="#a900ff"/><path d="m150.563 0v333.125l631.837.0117 46-333.1367z" fill="#a900ff" transform="scale(.8)"/><g fill="#fff"><path d="m16.04 0h211.91l-8.6 62.34-72.04.25-26.86 203.91-68.31.06 26.93-204.05-71.7-.02z"/><path d="m239.17 0h67.82l-14.13 100.79 76.13-.07 14.42-100.72h67.97l-23.65 168.14-13.68 98.36h-67.78l13.56-100.24-76.23.02-13.48 100.21-68.33.02z"/><path d="m477.43 0h185.29l-8.86 64.22-116.6-.04-5.76 39.09 107.44.02-7.87 60.02-107.71.03-5.87 39.37 117.26-.01-8.83 63.83-185.4-.03z"/><path d="m51.72 291.35 121.85.14 52.1 283.38 131.46-283.37h122.09l-224.24 449-104.89-.01-.67-4.11z"/><path d="m535.68 291.5h103.76l97.41 449h-122.12l-16.44-89.8096h-119.54l-40.37 89.8096h-122.22zm32.03 127.1896-49.57 130.84h67.32l-13.35-130.84z"/><path d="m769.34 291.49 115 .01c-13.57 97.21-27.42 194.38-40.99 291.59-.91 6.88-2.43 13.88-.95 20.8 1.5 11.09 7.8 21.38 17.05 27.7 11.49 7.92 25.68 11.55 39.55 11.27 15.64.44 31.43-3.72 44.8-11.86 14.12-8.66 24.32-23.52 26.87-39.94 14.14-99.85 28.07-199.72 42.29-299.56h114.89l-38.03 271.34c-2.84 18.46-4.36 37.24-10.05 55.12-10.09 32.57-30.39 61.73-57.14 82.81-23.7 19.07-51.94 31.96-81.27 39.58-13.33 3.34-26.91 5.38-40.57 6.65h-31.39c-13.69-1.08-27.22-3.5-40.57-6.64-10.76-3.02-21.25-6.93-31.28-11.86-26.82-12.99-49.97-34.85-61.59-62.57-7.54-17.26-10.62-36.2-10.49-54.96.36-14.8 2.94-29.4 4.96-44.03 12.98-91.82 25.74-183.67 38.91-275.45z"/><path d="m1153.04 291.5h114.69l-47.48 336.99 182.51.02-15.16 111.99h-297.35z"/><path d="m1360.64 291.49 357.19-.02-15.35 104.01-120.89-.02-47.18 345.03-115.39.01 47.4704-345.02-120.9804-.07z"/></g></svg>