<?xml version="1.0" encoding="UTF-8" standalone="no"?>
<svg
   xmlns:dc="http://purl.org/dc/elements/1.1/"
   xmlns:cc="http://creativecommons.org/ns#"
   xmlns:rdf="http://www.w3.org/1999/02/22-rdf-syntax-ns#"
   xmlns:svg="http://www.w3.org/2000/svg"
   xmlns="http://www.w3.org/2000/svg"
   xmlns:sodipodi="http://sodipodi.sourceforge.net/DTD/sodipodi-0.dtd"
   xmlns:inkscape="http://www.inkscape.org/namespaces/inkscape"
   width="1717.83pt"
   height="747pt"
   viewBox="0 0 1717.83 747"
   version="1.1"
   id="svg2"
   inkscape:version="0.91 r13725"
   sodipodi:docname="The Vault - Dark.svg">
  <metadata
     id="metadata54">
    <rdf:RDF>
      <cc:Work
         rdf:about="">
        <dc:format>image/svg+xml</dc:format>
        <dc:type
           rdf:resource="http://purl.org/dc/dcmitype/StillImage" />
        <dc:title></dc:title>
      </cc:Work>
    </rdf:RDF>
  </metadata>
  <defs
     id="defs52" />
  <sodipodi:namedview
     pagecolor="#ffffff"
     bordercolor="#666666"
     borderopacity="1"
     objecttolerance="10"
     gridtolerance="10"
     guidetolerance="10"
     inkscape:pageopacity="0"
     inkscape:pageshadow="2"
     inkscape:window-width="1920"
     inkscape:window-height="1017"
     id="namedview50"
     showgrid="false"
     inkscape:zoom="0.37931875"
     inkscape:cx="925.89747"
     inkscape:cy="547.27122"
     inkscape:window-x="-8"
     inkscape:window-y="-8"
     inkscape:window-maximized="1"
     inkscape:current-layer="svg2"
     fit-margin-top="0"
     fit-margin-left="0"
     fit-margin-right="0"
     fit-margin-bottom="0" />
  <path
     style="opacity:1;fill:#a900ff;fill-opacity:1"
     inkscape:connector-curvature="0"
     id="path32"
     d="m 51.61,291.96 0.11,-0.6104 1440.28,0 L 1419.02,740.49 0,740.5 0,739.06 Z"
     sodipodi:nodetypes="ccccccc" />
  <g
     id="g4206"
     style="fill:#a900ff;fill-opacity:1">
    <path
       id="path22"
       transform="scale(0.8,0.8)"
       d="m 150.563,0 0,333.125 L 782.4,333.1367 828.4,0 Z"
       style="opacity:1;fill:#a900ff;fill-opacity:1"
       inkscape:connector-curvature="0"
       sodipodi:nodetypes="ccccc" />
  </g>
  <path
     style="opacity:1;fill:#000000;fill-opacity:1"
     inkscape:connector-curvature="0"
     id="path5"
     d="m 16.04,0 211.91,0 -8.6,62.34 -72.04,0.25 L 120.45,266.5 52.14,266.56 79.07,62.51 7.37,62.49 Z"
     sodipodi:nodetypes="ccccccccc" />
  <path
     style="opacity:1;fill:#000000;fill-opacity:1"
     inkscape:connector-curvature="0"
     id="path7"
     d="m 239.17,0 67.82,0 -14.13,100.79 76.13,-0.07 L 383.41,0 l 67.97,0 -23.65,168.14 -13.68,98.36 -67.78,0 13.56,-100.24 -76.23,0.02 -13.48,100.21 -68.33,0.02 z"
     sodipodi:nodetypes="cccccccccccccc" />
  <path
     style="opacity:1;fill:#000000;fill-opacity:1"
     inkscape:connector-curvature="0"
     id="path9"
     d="m 477.43,0 185.29,0 -8.86,64.22 -116.6,-0.04 -5.76,39.09 107.44,0.02 -7.87,60.02 -107.71,0.03 -5.87,39.37 117.26,-0.01 -8.83,63.83 -185.4,-0.03 z"
     sodipodi:nodetypes="ccccccccccccc" />
  <path
     style="opacity:1;fill:#000000;fill-opacity:1"
     inkscape:connector-curvature="0"
     id="path11"
     d="m 51.72,291.35 121.85,0.14 52.1,283.38 131.46,-283.37 122.09,0 -224.24,449 -104.89,-0.01 -0.67,-4.11 z"
     sodipodi:nodetypes="ccccccccc" />
  <path
     sodipodi:nodetypes="cccccccccccccc"
     style="opacity:1;fill:#000000;fill-opacity:1"
     inkscape:connector-curvature="0"
     id="path13"
     d="m 535.68,291.5 103.76,0 97.41,449 -122.12,0 -16.44,-89.8096 -119.54,0 -40.37,89.8096 -122.22,0 219.52,-449 m 32.03,127.1896 -49.57,130.84 67.32,0 -13.35,-130.84 z" />
  <path
     style="opacity:1;fill:#000000;fill-opacity:1"
     inkscape:connector-curvature="0"
     id="path15"
     d="m 769.34,291.49 115,0.01 c -13.57,97.21 -27.42,194.38 -40.99,291.59 -0.91,6.88 -2.43,13.88 -0.95,20.8 1.5,11.09 7.8,21.38 17.05,27.7 11.49,7.92 25.68,11.55 39.55,11.27 15.64,0.44 31.43,-3.72 44.8,-11.86 14.12,-8.66 24.32,-23.52 26.87,-39.94 14.14,-99.85 28.07,-199.72 42.29,-299.56 l 114.89,0 -38.03,271.34 c -2.84,18.46 -4.36,37.24 -10.05,55.12 -10.09,32.57 -30.39,61.73 -57.14,82.81 -23.7,19.07 -51.94,31.96 -81.27,39.58 -13.33,3.34 -26.91,5.38 -40.57,6.65 l -31.39,0 c -13.69,-1.08 -27.22,-3.5 -40.57,-6.64 -10.76,-3.02 -21.25,-6.93 -31.28,-11.86 -26.82,-12.99 -49.97,-34.85 -61.59,-62.57 -7.54,-17.26 -10.62,-36.2 -10.49,-54.96 0.36,-14.8 2.94,-29.4 4.96,-44.03 12.98,-91.82 25.74,-183.67 38.91,-275.45 z"
     sodipodi:nodetypes="cccccccccccccccccccccc" />
  <path
     style="opacity:1;fill:#000000;fill-opacity:1"
     inkscape:connector-curvature="0"
     id="path17"
     d="m 1153.04,291.5 114.69,0 -47.48,336.99 182.51,0.02 -15.16,111.99 -297.35,0 z"
     sodipodi:nodetypes="ccccccc" />
  <path
     style="opacity:1;fill:#000000;fill-opacity:1"
     inkscape:connector-curvature="0"
     id="path19"
     d="m 1360.64,291.49 357.19,-0.02 -15.35,104.01 -120.89,-0.02 -47.18,345.03 -115.39,0.01 47.4704,-345.02 -120.9804,-0.07 z"
     sodipodi:nodetypes="ccccccccc" />
</svg>
