<?xml version="1.0" encoding="UTF-8" standalone="no"?>
<svg
   xmlns:dc="http://purl.org/dc/elements/1.1/"
   xmlns:cc="http://creativecommons.org/ns#"
   xmlns:rdf="http://www.w3.org/1999/02/22-rdf-syntax-ns#"
   xmlns:svg="http://www.w3.org/2000/svg"
   xmlns="http://www.w3.org/2000/svg"
   xmlns:sodipodi="http://sodipodi.sourceforge.net/DTD/sodipodi-0.dtd"
   xmlns:inkscape="http://www.inkscape.org/namespaces/inkscape"
   width="1160.2559pt"
   height="596.80792pt"
   viewBox="0 0 1160.2559 596.80792"
   version="1.1"
   id="svg2"
   inkscape:version="0.91 r13725"
   sodipodi:docname="TJC Choice.svg">
  <metadata
     id="metadata28">
    <rdf:RDF>
      <cc:Work
         rdf:about="">
        <dc:format>image/svg+xml</dc:format>
        <dc:type
           rdf:resource="http://purl.org/dc/dcmitype/StillImage" />
        <dc:title></dc:title>
      </cc:Work>
    </rdf:RDF>
  </metadata>
  <defs
     id="defs26" />
  <sodipodi:namedview
     pagecolor="#ffffff"
     bordercolor="#666666"
     borderopacity="1"
     objecttolerance="10"
     gridtolerance="10"
     guidetolerance="10"
     inkscape:pageopacity="0"
     inkscape:pageshadow="2"
     inkscape:window-width="1920"
     inkscape:window-height="1017"
     id="namedview24"
     showgrid="false"
     fit-margin-top="0"
     fit-margin-left="0"
     fit-margin-right="0"
     fit-margin-bottom="0"
     inkscape:zoom="0.70710678"
     inkscape:cx="779.17872"
     inkscape:cy="488.6857"
     inkscape:window-x="-8"
     inkscape:window-y="-8"
     inkscape:window-maximized="1"
     inkscape:current-layer="svg2" />
  <path
     sodipodi:nodetypes="cccccccccccccccccccccccccccccccc"
     style="opacity:1;fill:#ffffff;fill-opacity:1"
     inkscape:connector-curvature="0"
     id="path5"
     d="m 76.39,0 39.07,0 0,104.8 374.2,-0.05 0,35.88 -202.82,0.19 c -0.02,110.83 0,221.66 -0.01,332.5 0.35,20.73 -0.49,41.78 -6.47,61.78 -5.18,17.77 -14.99,34.75 -30.14,45.81 -15.85,11.78 -36.07,16.11 -55.53,15.89 -14.06,-0.36 -28.1,-2.59 -41.52,-6.8 l 6.98,-35.52 c 17.24,4.43 36.08,6.78 53.13,0.34 12.58,-4.64 22.45,-15.03 27.68,-27.23 4.61,-10.46 6.57,-21.93 6.82,-33.31 0.08,-117.83 -0.26,-235.64 -0.27,-353.46 l -132.06,0.02 c 0.02,79.83 0,159.67 0.01,239.5 0.09,14.35 -0.84,28.99 3.04,42.99 3.13,12.33 10.33,24.16 21.66,30.51 13.71,7.83 30.32,7.91 45.5,5.39 11.11,-1.88 21.97,-5.16 32.35,-9.53 l 6.98,34.27 c -22.13,7.97 -45.53,13.89 -69.23,12.77 -17.16,-0.8 -34.49,-6.37 -47.59,-17.77 C 94.46,467.26 85.9,450.6 81.23,433.4 77.89,421.03 76.22,408.19 76.39,395.37 l 0,-254.55 L 0.01,140.83 0,104.8 l 76.41,0 z" />
  <path
     sodipodi:nodetypes="cccccccccccccccccc"
     style="opacity:1;fill:#ffffff;fill-opacity:1"
     inkscape:connector-curvature="0"
     id="path7"
     d="m 596.57,219.94 14.26,-0.01 0.05,64.87 c 4.72,-12.42 16.72,-20.96 29.59,-23.2 6.97,-1.14 14.16,-0.77 21.1,0.49 8.79,1.65 17.45,6.17 22.41,13.83 5.67,8.63 6.45,19.34 6.75,29.39 0.02,24.91 0,49.83 0.01,74.75 l -14.24,0.02 c 0.02,-23.56 -0.01,-47.13 0.01,-70.69 -0.01,-8.26 -0.56,-16.96 -4.7,-24.3 -3.34,-6 -9.55,-10.08 -16.22,-11.39 -9.66,-1.89 -20.3,-0.69 -28.53,5 -8.63,5.74 -13.68,15.63 -15.41,25.65 -1.07,5.6 -0.8,11.31 -0.82,16.98 l 0,58.75 -14.21,-0.03 c -0.05,-53.37 -0.03,-106.74 -0.05,-160.11 z" />
  <path
     sodipodi:nodetypes="ccccc"
     style="opacity:1;fill:#ffffff;fill-opacity:1"
     inkscape:connector-curvature="0"
     id="path9"
     d="m 873.74,219.92 14.13,0.01 -0.01,22.69 -14.12,0.01 z" />
  <path
     sodipodi:nodetypes="cccccccccccccccccc"
     style="opacity:1;fill:#ffffff;fill-opacity:1"
     inkscape:connector-curvature="0"
     id="path11"
     d="m 485.08,268.73 c 11.44,-7.39 25.74,-9.08 38.99,-6.98 10.14,1.72 20.03,6.48 26.79,14.38 5.86,6.85 8.68,15.75 9.81,24.57 l -14.16,0.01 c -2.04,-8.67 -6.13,-17.37 -13.58,-22.65 -7.31,-4.99 -16.67,-5.86 -25.24,-4.74 -11.92,1.52 -22.16,9.87 -27.65,20.34 -7.76,14.68 -8.84,32.56 -3.76,48.29 2.83,8.72 7.87,16.99 15.35,22.46 10.25,7.86 25.13,9.55 36.68,3.61 11,-5.54 18,-17.33 19.07,-29.43 l 14.19,0 c -1.78,13.63 -7.65,27.39 -18.93,35.79 -10.94,8.44 -25.6,10.13 -38.92,8.14 -14.33,-2.13 -27.47,-10.88 -34.99,-23.26 -9.42,-15.33 -11.51,-34.34 -8.4,-51.83 2.69,-15.46 11.12,-30.42 24.75,-38.7 z" />
  <path
     style="opacity:1;fill:#ffffff;fill-opacity:1"
     inkscape:connector-curvature="0"
     id="path13"
     d="m 770.08,262.02 c 13.84,-2.55 28.96,-0.9 40.9,6.96 13.35,8.3 21.61,23.03 24.34,38.27 3.02,16.94 1.22,35.27 -7.4,50.4 -7.28,12.93 -20.51,22.35 -35.19,24.73 -12.85,2.03 -26.7,0.78 -38.08,-5.92 -13.66,-7.6 -22.49,-21.94 -25.66,-36.98 -3.63,-17.2 -2.1,-35.94 6.29,-51.57 7.04,-13.19 20.09,-23.05 34.8,-25.89 m 3.85,11.62 c -11.18,2.12 -20.57,10.2 -25.78,20.13 -6.96,13.22 -8.5,29.03 -5.04,43.51 2.64,11.1 8.59,21.9 18.31,28.28 8.1,5.65 18.56,7.04 28.13,5.3 11.19,-1.99 20.67,-9.96 25.94,-19.84 7.03,-13.07 8.68,-28.78 5.39,-43.18 -2.52,-11.22 -8.4,-22.14 -18.07,-28.71 -8.26,-5.9 -19.05,-7.37 -28.88,-5.49 z" />
  <path
     sodipodi:nodetypes="cccccccccccccccccc"
     style="opacity:1;fill:#ffffff;fill-opacity:1"
     inkscape:connector-curvature="0"
     id="path15"
     d="m 950.36,269.05 c 11.71,-7.76 26.53,-9.52 40.18,-7.18 10.39,1.9 20.5,7.04 27.08,15.46 5.23,6.69 7.76,15.06 8.86,23.38 l -14.19,0.01 c -1.97,-8.42 -5.86,-16.86 -12.92,-22.19 -7.31,-5.37 -16.94,-6.34 -25.7,-5.24 -11.69,1.44 -21.84,9.45 -27.41,19.62 -7.78,14.07 -9.21,31.28 -4.91,46.68 2.73,9.72 8.05,19.06 16.35,25.04 10.28,7.7 25.09,9.29 36.55,3.31 10.93,-5.58 17.81,-17.32 18.95,-29.36 l 14.16,0.01 c -1.77,13.34 -7.37,26.8 -18.23,35.24 -11.23,9.07 -26.65,10.83 -40.5,8.54 -14.43,-2.38 -27.47,-11.55 -34.77,-24.19 -8.99,-15.38 -10.79,-34.17 -7.61,-51.48 2.81,-14.99 10.97,-29.43 24.11,-37.65 z" />
  <path
     style="opacity:1;fill:#ffffff;fill-opacity:1"
     inkscape:connector-curvature="0"
     id="path17"
     d="m 1081.64,268.43 c 11.43,-7.55 25.98,-8.86 39.19,-6.38 15.64,3.1 28.33,15.42 33.91,30.09 4.2,10.73 5.62,22.39 5.51,33.85 -29.73,0.19 -59.47,0.02 -89.21,0.09 0.22,10.99 2.77,22.41 9.61,31.26 5.56,7.18 13.68,12.78 22.86,13.83 9.32,1.08 19.48,-0.06 27.3,-5.63 7.7,-5.64 12.38,-14.51 14.7,-23.6 4.72,-0.01 9.45,-0.03 14.18,0.02 -2.39,10.33 -6.69,20.51 -14.13,28.23 -6.9,7.46 -16.83,11.34 -26.76,12.51 -12.35,1.37 -25.58,0.53 -36.51,-5.94 -11.42,-6.35 -18.82,-18.15 -22.23,-30.51 -4.51,-16.47 -4.37,-34.33 1.1,-50.55 3.72,-10.93 10.59,-21.07 20.48,-27.27 m 6.55,11.43 c -10.6,8.08 -15.46,21.41 -17.19,34.21 24.98,0.11 49.96,0.03 74.94,0.03 -0.38,-8.44 -2.49,-16.92 -6.99,-24.14 -5.27,-8.6 -14.17,-15.25 -24.27,-16.66 -9.24,-1.44 -19.13,0.66 -26.49,6.56 z" />
  <path
     sodipodi:nodetypes="ccccc"
     style="opacity:1;fill:#ffffff;fill-opacity:1"
     inkscape:connector-curvature="0"
     id="path19"
     d="m 873.74,264.25 14.12,0.01 0.01,115.81 -14.13,0.03 z" />
  <g
     id="#492565ff"
     transform="translate(-86.34,-34.67)"
     style="fill:#8460a0;fill-opacity:1">
    <path
       d="m 579.95,139.43 c 37.41,-0.61 75.61,8.01 107.33,28.35 11.25,7.24 21.78,15.78 30.37,26.08 -9.3,8.6 -18.59,17.21 -27.87,25.83 -22.77,-24.09 -54.57,-38.89 -87.31,-42.93 -57.64,-7.48 -118.11,21.59 -148.73,70.91 -14.3,22.82 -21.84,49.49 -23.29,76.29 -2.13,35.07 5.11,71.4 24.45,101.11 19.29,30.12 49.86,52.34 83.84,63.07 37.01,12.12 78.65,8.56 113.31,-9.07 13.98,-7.15 27.04,-16.34 37.74,-27.89 9.27,8.63 18.56,17.24 27.86,25.84 -10.52,12.54 -23.78,22.56 -37.94,30.64 -33.39,18.88 -72.67,25.83 -110.71,23.29 -43.38,-3.25 -86.11,-20.17 -118.48,-49.5 -22.5,-20.3 -39.27,-46.7 -48.64,-75.5 -8.98,-27.3 -11.76,-56.38 -10.24,-84.99 1.66,-31.13 9.43,-62.26 25.02,-89.4 12.66,-22.31 30.53,-41.52 51.49,-56.26 36.49672,-21.67602 74.91488,-36.06563 111.8,-35.87 z"
       id="path22"
       inkscape:connector-curvature="0"
       style="opacity:1;fill:#8460a0;fill-opacity:1"
       sodipodi:nodetypes="cccccccccccccccccccc" />
  </g>
</svg>
