<?xml version="1.0" encoding="UTF-8" standalone="no"?>
<svg
   xmlns:dc="http://purl.org/dc/elements/1.1/"
   xmlns:cc="http://creativecommons.org/ns#"
   xmlns:rdf="http://www.w3.org/1999/02/22-rdf-syntax-ns#"
   xmlns:svg="http://www.w3.org/2000/svg"
   xmlns="http://www.w3.org/2000/svg"
   xmlns:sodipodi="http://sodipodi.sourceforge.net/DTD/sodipodi-0.dtd"
   xmlns:inkscape="http://www.inkscape.org/namespaces/inkscape"
   width="631.31pt"
   height="596.80792pt"
   viewBox="0 0 631.31002 596.80792"
   version="1.1"
   id="svg2"
   inkscape:version="0.91 r13725"
   sodipodi:docname="TJC - Dark.svg">
  <metadata
     id="metadata28">
    <rdf:RDF>
      <cc:Work
         rdf:about="">
        <dc:format>image/svg+xml</dc:format>
        <dc:type
           rdf:resource="http://purl.org/dc/dcmitype/StillImage" />
        <dc:title></dc:title>
      </cc:Work>
    </rdf:RDF>
  </metadata>
  <defs
     id="defs26" />
  <sodipodi:namedview
     pagecolor="#ffffff"
     bordercolor="#666666"
     borderopacity="1"
     objecttolerance="10"
     gridtolerance="10"
     guidetolerance="10"
     inkscape:pageopacity="0"
     inkscape:pageshadow="2"
     inkscape:window-width="1920"
     inkscape:window-height="1017"
     id="namedview24"
     showgrid="false"
     fit-margin-top="0"
     fit-margin-left="0"
     fit-margin-right="0"
     fit-margin-bottom="0"
     inkscape:zoom="0.70710678"
     inkscape:cx="779.17872"
     inkscape:cy="488.68577"
     inkscape:window-x="-8"
     inkscape:window-y="-8"
     inkscape:window-maximized="1"
     inkscape:current-layer="svg2" />
  <path
     sodipodi:nodetypes="cccccccccccccccccccccccccccccccc"
     style="opacity:1;fill:#000000"
     inkscape:connector-curvature="0"
     id="path5"
     d="m 76.39,-2.4414062e-5 39.07,0 0,104.800004414062 374.2,-0.05 0,35.88 -202.82,0.19 c -0.02,110.83 0,221.66 -0.01,332.5 0.35,20.73 -0.49,41.78 -6.47,61.78 -5.18,17.77 -14.99,34.75 -30.14,45.81 -15.85,11.78 -36.07,16.11 -55.53,15.89 -14.06,-0.36 -28.1,-2.59 -41.52,-6.8 l 6.98,-35.52 c 17.24,4.43 36.08,6.78 53.13,0.34 12.58,-4.64 22.45,-15.03 27.68,-27.23 4.61,-10.46 6.57,-21.93 6.82,-33.31 0.08,-117.83 -0.26,-235.64 -0.27,-353.46 l -132.06,0.02 c 0.02,79.83 0,159.67 0.01,239.5 0.09,14.35 -0.84,28.99 3.04,42.99 3.13,12.33 10.33,24.16 21.66,30.51 13.71,7.83 30.32,7.91 45.5,5.39 11.11,-1.88 21.97,-5.16 32.35,-9.53 l 6.98,34.27 c -22.13,7.97 -45.53,13.89 -69.23,12.77 -17.16,-0.8 -34.49,-6.37 -47.59,-17.77 -13.71,-11.71 -22.27,-28.37 -26.94,-45.57 -3.34,-12.37 -5.01,-25.21 -4.84,-38.03 l 0,-254.55 -76.38,0.01 -0.01,-36.03 76.41,0 z" />
  <g
     id="#492565ff"
     transform="translate(-86.34,-34.670024)">
    <path
       d="m 579.95,139.43 c 37.41,-0.61 75.61,8.01 107.33,28.35 11.25,7.24 21.78,15.78 30.37,26.08 -9.3,8.6 -18.59,17.21 -27.87,25.83 -22.77,-24.09 -54.57,-38.89 -87.31,-42.93 -57.64,-7.48 -118.11,21.59 -148.73,70.91 -14.3,22.82 -21.84,49.49 -23.29,76.29 -2.13,35.07 5.11,71.4 24.45,101.11 19.29,30.12 49.86,52.34 83.84,63.07 37.01,12.12 78.65,8.56 113.31,-9.07 13.98,-7.15 27.04,-16.34 37.74,-27.89 9.27,8.63 18.56,17.24 27.86,25.84 -10.52,12.54 -23.78,22.56 -37.94,30.64 -33.39,18.88 -72.67,25.83 -110.71,23.29 -43.38,-3.25 -86.11,-20.17 -118.48,-49.5 -22.5,-20.3 -39.27,-46.7 -48.64,-75.5 -8.98,-27.3 -11.76,-56.38 -10.24,-84.99 1.66,-31.13 9.43,-62.26 25.02,-89.4 12.66,-22.31 30.53,-41.52 51.49,-56.26 36.49672,-21.67602 74.91488,-36.06563 111.8,-35.87 z"
       id="path22"
       inkscape:connector-curvature="0"
       style="opacity:1;fill:#492565"
       sodipodi:nodetypes="cccccccccccccccccccc" />
  </g>
</svg>
