<?xml version="1.0" encoding="UTF-8" standalone="no"?>
<svg
   xmlns:dc="http://purl.org/dc/elements/1.1/"
   xmlns:cc="http://creativecommons.org/ns#"
   xmlns:rdf="http://www.w3.org/1999/02/22-rdf-syntax-ns#"
   xmlns:svg="http://www.w3.org/2000/svg"
   xmlns="http://www.w3.org/2000/svg"
   xmlns:sodipodi="http://sodipodi.sourceforge.net/DTD/sodipodi-0.dtd"
   xmlns:inkscape="http://www.inkscape.org/namespaces/inkscape"
   width="719.80847pt"
   height="324.04498pt"
   viewBox="0 0 719.80847 324.04498"
   version="1.1"
   id="svg20"
   sodipodi:docname="TLC Plus 2 - Dark.svg"
   inkscape:version="0.92.0 r15299">
  <metadata
     id="metadata26">
    <rdf:RDF>
      <cc:Work
         rdf:about="">
        <dc:format>image/svg+xml</dc:format>
        <dc:type
           rdf:resource="http://purl.org/dc/dcmitype/StillImage" />
        <dc:title></dc:title>
      </cc:Work>
    </rdf:RDF>
  </metadata>
  <defs
     id="defs24" />
  <sodipodi:namedview
     pagecolor="#ffffff"
     bordercolor="#666666"
     borderopacity="1"
     objecttolerance="10"
     gridtolerance="10"
     guidetolerance="10"
     inkscape:pageopacity="0"
     inkscape:pageshadow="2"
     inkscape:window-width="1920"
     inkscape:window-height="1017"
     id="namedview22"
     showgrid="false"
     fit-margin-top="0"
     fit-margin-left="0"
     fit-margin-right="0"
     fit-margin-bottom="0"
     inkscape:zoom="0.60245498"
     inkscape:cx="479.03282"
     inkscape:cy="300.15273"
     inkscape:window-x="-8"
     inkscape:window-y="-8"
     inkscape:window-maximized="1"
     inkscape:current-layer="svg20" />
  <g
     id="g4552"
     style="fill:#eb2d37;fill-opacity:1">
    <path
       d="m 46.81,3.375015 c 7.11,-3.93 16,-4.27 23.56,-1.45 6.61,2.51 11.54,8.65 12.78,15.59 1.4,6.76 -0.18,13.85 -3.63,19.75 -4.7,8.26 -11.84,14.69 -18.19,21.64 -4.84,4.93 -9.23,10.34 -14.62,14.71 l 37.42,-0.45 v 7.63 l -53.88,-0.09 c 9.22,-10.66 19.29,-20.59 28.84,-30.97 5.81,-6.22 12.41,-12.36 14.96,-20.75 1.85,-6.06 1.1,-13.67 -4.1,-17.88 -5.95,-4.6 -15.07,-4.07 -20.83,0.61 -3.78,3.02 -5.71,7.65 -6.95,12.2 l -8.12,-1.72 c 1.51,-7.62 5.85,-14.97 12.76,-18.82 z"
       id="path2"
       inkscape:connector-curvature="0"
       style="opacity:1;fill:#eb2d37;fill-opacity:1"
       sodipodi:nodetypes="cccccccccccccccc" />
    <path
       d="m 13.75,32.165015 h 7.75 v 15 h 13.75 v 7.5 H 21.5 v 14.87 l -7.75,0.01 v -14.88 H 0 v -7.5 h 13.74 z"
       id="path4"
       inkscape:connector-curvature="0"
       style="opacity:1;fill:#eb2d37;fill-opacity:1"
       sodipodi:nodetypes="ccccccccccccc" />
  </g>
  <g
     id="g928"
     transform="matrix(1.6478512,0,0,1.6478512,94.729504,2.6914665e-7)">
    <g
       id="g918">
      <path
         d="m 128.719,0 h 122.04 c -0.051,0.75 -0.145,1.502 -0.145,2.252 -0.007,64.048 -0.006,128.096 -0.012,192.144 0,0.728 -0.077,1.458 -0.117,2.165 H 128.869 v -2.317 C 128.869,130.247 128.87,66.25 128.863,2.252 128.864,1.502 128.77,0.75 128.719,0 Z"
         id="path3-9"
         inkscape:connector-curvature="0"
         style="fill:#eb2d37"
         sodipodi:nodetypes="ccccccscc" />
      <path
         d="M 0,188.524 V 8.197 C 0.12,7.825 0.279,7.46 0.351,7.08 0.837,4.515 2.206,2.561 4.455,1.269 5.348,0.756 6.339,0.418 7.286,0 h 114.451 v 196.646 h -2.256 -69.802 c -13.556,0 -27.111,0.004 -40.667,-0.004 -4.102,0 -7.469,-2.488 -8.507,-6.248 C 0.332,189.771 0.168,189.148 0,188.524 Z"
         id="path5-5"
         inkscape:connector-curvature="0"
         style="clip-rule:evenodd;fill:#eb2d37;fill-rule:evenodd"
         sodipodi:nodetypes="ccscccccsccc" />
      <path
         d="m 257.742,0 c 38.15,0 76.301,0 114.451,0 0.112,0.096 0.207,0.238 0.338,0.28 4.799,1.546 6.794,4.307 6.794,9.466 0.003,59.091 0.003,118.182 0.003,177.273 0,0.304 0.008,0.607 -0.009,0.911 -0.256,5.301 -3.813,8.713 -9.092,8.713 -36.88,0.002 -73.761,0.002 -110.644,0.002 -0.543,0 -1.087,0 -1.842,0 0.001,-65.65 0.001,-131.147 0.001,-196.645 z"
         id="path7-6"
         inkscape:connector-curvature="0"
         style="clip-rule:evenodd;fill:#eb2d37;fill-rule:evenodd" />
      <path
         d="m 280.43,100.772 c 0.459,3.345 0.644,6.754 1.423,10.021 5.214,21.881 24.733,36.096 47.13,34.408 10.027,-0.755 18.744,-4.633 26.22,-11.323 1.379,-1.233 1.403,-2.002 0.133,-3.281 -2.958,-2.979 -5.93,-5.95 -8.906,-8.909 -1.287,-1.277 -2.002,-1.295 -3.399,-0.143 -6.91,5.702 -14.806,7.865 -23.531,5.857 -10.536,-2.425 -17.562,-9.021 -20.456,-19.433 -2.83,-10.183 -0.296,-19.339 7.254,-26.701 10.32,-10.062 25.494,-10.442 36.697,-1.296 1.509,1.234 2.125,1.222 3.504,-0.148 2.942,-2.925 5.878,-5.857 8.801,-8.804 1.327,-1.342 1.295,-2.137 -0.148,-3.404 -10.825,-9.485 -23.409,-13.205 -37.557,-10.786 -21.434,3.662 -36.85,22.207 -37.165,43.942 z"
         id="path9-2"
         inkscape:connector-curvature="0"
         style="clip-rule:evenodd;fill:#eb2d37;fill-rule:evenodd" />
      <path
         d="m 163.285,92.653 c -0.001,-11.128 -0.002,-22.256 0,-33.385 0.001,-2.392 0.442,-2.84 2.812,-2.843 3.895,-0.005 7.789,-0.005 11.684,0 2.427,0.003 2.838,0.406 2.838,2.803 0.003,19.829 0.019,39.657 -0.017,59.485 -0.005,2.776 0.632,5.207 2.79,7.069 1.595,1.376 3.464,1.995 5.58,1.99 8.195,-0.019 16.388,-0.009 24.583,-0.006 2.219,10e-4 2.635,0.42 2.637,2.664 0.005,4.098 0.01,8.194 -0.003,12.292 -0.006,1.828 -0.524,2.369 -2.338,2.372 -10.673,0.013 -21.349,0.126 -32.019,-0.038 -6.793,-0.104 -12.583,-2.471 -16.036,-8.81 -1.855,-3.406 -2.495,-7.135 -2.503,-10.968 -0.025,-10.874 -0.008,-21.75 -0.008,-32.625 z"
         id="path11-7"
         inkscape:connector-curvature="0"
         style="clip-rule:evenodd;fill:#fff0e6;fill-rule:evenodd" />
      <path
         d="m 70.117,73.813 c 0,0.876 0,1.569 0,2.261 0,21.952 10e-4,43.905 0,65.856 0,2.879 -0.299,3.171 -3.235,3.171 -3.844,0.002 -7.688,0.008 -11.533,-0.003 -2.113,-0.007 -2.568,-0.471 -2.568,-2.589 -0.002,-22.206 -10e-4,-44.411 -10e-4,-66.616 0,-0.604 0,-1.207 0,-2.081 -0.666,0 -1.245,0 -1.825,0 -8.144,0 -16.288,0.002 -24.431,-0.002 -2.247,-0.001 -2.677,-0.419 -2.682,-2.638 -0.009,-4.098 -0.013,-8.194 0.003,-12.292 0.007,-1.925 0.516,-2.452 2.419,-2.453 23.166,-0.007 46.332,-0.007 69.499,0 1.861,10e-4 2.356,0.506 2.361,2.317 0.008,4.249 0.008,8.498 0,12.746 -0.004,1.811 -0.502,2.313 -2.361,2.316 -7.841,0.01 -15.681,0.005 -23.521,0.005 -0.603,0.002 -1.208,0.002 -2.125,0.002 z"
         id="path13"
         inkscape:connector-curvature="0"
         style="clip-rule:evenodd;fill:#fff0e6;fill-rule:evenodd" />
      <path
         d="m 280.43,100.772 c 0.314,-21.735 15.73,-40.281 37.163,-43.941 14.147,-2.418 26.731,1.301 37.557,10.786 1.443,1.267 1.476,2.062 0.148,3.404 -2.923,2.947 -5.858,5.878 -8.801,8.804 -1.379,1.37 -1.995,1.382 -3.504,0.148 -11.203,-9.146 -26.377,-8.766 -36.697,1.296 -7.55,7.362 -10.084,16.518 -7.254,26.701 2.894,10.412 9.92,17.008 20.456,19.433 8.726,2.008 16.621,-0.155 23.531,-5.857 1.397,-1.152 2.112,-1.135 3.399,0.143 2.977,2.959 5.948,5.93 8.906,8.909 1.271,1.279 1.246,2.048 -0.133,3.281 -7.476,6.69 -16.192,10.568 -26.22,11.323 -22.396,1.688 -41.916,-12.527 -47.13,-34.408 -0.777,-3.268 -0.962,-6.677 -1.421,-10.022 z"
         id="path15"
         inkscape:connector-curvature="0"
         style="clip-rule:evenodd;fill:#fff0e6;fill-rule:evenodd" />
    </g>
  </g>
</svg>
