<?xml version="1.0" encoding="UTF-8" standalone="no"?>
<!-- Generator: Adobe Illustrator 16.0.4, SVG Export Plug-In . SVG Version: 6.00 Build 0)  -->

<svg
   xmlns:dc="http://purl.org/dc/elements/1.1/"
   xmlns:cc="http://creativecommons.org/ns#"
   xmlns:rdf="http://www.w3.org/1999/02/22-rdf-syntax-ns#"
   xmlns:svg="http://www.w3.org/2000/svg"
   xmlns="http://www.w3.org/2000/svg"
   xmlns:sodipodi="http://sodipodi.sourceforge.net/DTD/sodipodi-0.dtd"
   xmlns:inkscape="http://www.inkscape.org/namespaces/inkscape"
   version="1.1"
   id="svg2985"
   x="0px"
   y="0px"
   width="1277.1313"
   height="549.00043"
   viewBox="0 0.221 1277.1314 549.00044"
   enable-background="new 0 0.221 505.208 169.98"
   xml:space="preserve"
   inkscape:version="0.91 r13725"
   sodipodi:docname="TLC +1.svg"><metadata
     id="metadata27"><rdf:RDF><cc:Work
         rdf:about=""><dc:format>image/svg+xml</dc:format><dc:type
           rdf:resource="http://purl.org/dc/dcmitype/StillImage" /><dc:title></dc:title></cc:Work></rdf:RDF></metadata><defs
     id="defs25" /><sodipodi:namedview
     pagecolor="#ffffff"
     bordercolor="#666666"
     borderopacity="1"
     objecttolerance="10"
     gridtolerance="10"
     guidetolerance="10"
     inkscape:pageopacity="0"
     inkscape:pageshadow="2"
     inkscape:window-width="1920"
     inkscape:window-height="1017"
     id="namedview23"
     showgrid="false"
     fit-margin-top="0"
     fit-margin-left="0"
     fit-margin-right="0"
     fit-margin-bottom="0"
     inkscape:zoom="0.28503111"
     inkscape:cx="629.87803"
     inkscape:cy="654.17086"
     inkscape:window-x="-8"
     inkscape:window-y="-8"
     inkscape:window-maximized="1"
     inkscape:current-layer="svg2985" /><g
     id="g4157"
     transform="translate(218.1139,0)"><path
       style="fill:#eb2d37"
       inkscape:connector-curvature="0"
       id="path6"
       d="m 359.35926,0.22146 c 113.56907,0 227.14461,0 340.71368,0 -0.14211,2.09613 -0.40372,4.19226 -0.40372,6.2884 -0.0226,178.81081 -0.0162,357.6184 -0.0323,536.42598 0,2.03154 -0.2164,4.07277 -0.32944,6.04617 -113.34945,0 -226.15306,0 -339.52835,0 0,-2.30607 0,-4.38283 0,-6.46927 0,-178.6687 0.003,-357.33741 -0.0161,-536.00611 0.003,-2.08968 -0.26161,-4.18904 -0.40372,-6.28517 z m 96.50287,258.67058 c 0,30.36325 -0.0485,60.72326 0.0226,91.08651 0.0258,10.70029 1.81192,21.1099 6.98927,30.6184 9.63769,17.69602 25.80278,24.3074 44.76811,24.59485 29.78834,0.45863 59.59283,0.13888 89.39087,0.10335 5.06108,-0.006 6.51448,-1.518 6.5274,-6.62107 0.0323,-11.43991 0.0226,-22.87982 0.003,-34.31651 -0.003,-6.26256 -1.16595,-7.43497 -7.36069,-7.4382 -22.87659,-0.01 -45.75642,-0.0355 -68.63302,0.0161 -5.90728,0.0129 -11.12339,-1.71502 -15.57727,-5.55847 -6.02356,-5.19673 -7.79994,-11.98252 -7.78702,-19.73401 0.10012,-55.35536 0.0581,-110.71394 0.0484,-166.07253 0,-6.69212 -1.14658,-7.81286 -7.92268,-7.82255 -10.8747,-0.0129 -21.74617,-0.0129 -32.62087,0 -6.6146,0.01 -7.84838,1.25962 -7.85161,7.93559 -0.003,31.07058 0,62.14115 0.003,93.20849 z" /><path
       style="clip-rule:evenodd;fill:#eb2d37;fill-rule:evenodd"
       inkscape:connector-curvature="0"
       id="path8"
       d="M 0,526.54789 C 0,358.73774 0,190.92113 0,23.10451 0.33589807,22.06775 0.77837918,21.05037 0.9786261,19.98454 2.3319077,12.82409 6.1559781,7.36898 12.437918,3.76454 c 2.490167,-1.4308 5.261326,-2.3739 7.900064,-3.54308 106.508758,0 213.020738,0 319.526268,0 0,182.92556 0,365.85436 0,548.99632 -2.64843,0 -4.47326,0 -6.29809,0 -64.96075,0 -129.9215,0 -194.87579,0 -37.84343,0 -75.690103,0.0129 -113.533543,-0.01 -11.449602,0 -20.8547479,-6.94727 -23.7518687,-17.44409 C 0.92694948,530.02961 0.46831942,528.28875 0,526.54789 Z M 195.75106,206.29492 c 2.56122,0 4.2504,0 5.93635,0 21.88505,0 43.77333,0.0129 65.66484,-0.0129 5.19028,-0.006 6.57908,-1.41141 6.592,-6.46603 0.0226,-11.85979 0.0226,-23.72281 0,-35.58582 -0.0129,-5.05462 -1.39849,-6.46604 -6.592,-6.46927 -64.67975,-0.0194 -129.35305,-0.0194 -194.026348,0 -5.316232,0 -6.73411,1.47279 -6.753489,6.84715 -0.04522,11.43992 -0.0323,22.8766 -0.0065,34.31651 0.01292,6.19151 1.214401,7.36069 7.486651,7.36392 22.734486,0.01 45.472206,0.006 68.206686,0.006 1.61813,0 3.23625,0 5.09661,0 0,2.43526 0,4.12444 0,5.80716 0,61.98935 -0.003,123.98192 0,185.97772 0,5.91375 1.26931,7.20889 7.17013,7.22827 10.73582,0.0291 21.46518,0.0129 32.19777,0.006 8.1972,0 9.03049,-0.81391 9.03049,-8.84962 0.003,-61.28525 0,-122.57373 0,-183.85898 -0.003,-1.93141 -0.003,-3.86283 -0.003,-6.31101 z" /><path
       style="clip-rule:evenodd;fill:#eb2d37;fill-rule:evenodd"
       inkscape:connector-curvature="0"
       id="path10"
       d="m 719.56795,0.22146 c 106.50875,0 213.02074,0 319.52305,0 0.3165,0.26807 0.5813,0.66533 0.9463,0.78161 13.3972,4.315 18.9621,12.0245 18.9621,26.42936 0.013,164.97117 0.013,329.94234 0.013,494.91351 0,0.84943 0.023,1.69564 -0.029,2.54184 -0.7138,14.7989 -10.6422,24.32354 -25.3797,24.32354 -102.95924,0.006 -205.92492,0.006 -308.89383,0.006 -1.51477,0 -3.036,0 -5.14182,0 0,-183.28407 0,-366.13858 0,-548.99632 z" /><path
       style="clip-rule:evenodd;fill:#eb2d37;fill-rule:evenodd"
       inkscape:connector-curvature="0"
       id="path12"
       d="m 782.90411,281.5587 c 1.28223,9.33732 1.80223,18.85551 3.97587,27.9732 14.55343,61.08823 69.04644,100.77265 131.57192,96.06362 27.99259,-2.10905 52.32905,-12.9353 73.20317,-31.60995 3.84991,-3.44618 3.91774,-5.59076 0.37143,-9.16614 -8.26503,-8.3167 -16.55267,-16.6108 -24.86292,-24.86937 -3.59475,-3.56569 -5.58753,-3.61414 -9.49235,-0.39727 -19.29476,15.91963 -41.33161,21.95611 -65.69391,16.3492 -29.41369,-6.76964 -49.03143,-25.18267 -57.10913,-54.25077 -7.90329,-28.43184 -0.83006,-53.99239 20.25078,-74.54677 28.80972,-28.08947 71.17486,-29.14884 102.45214,-3.61736 4.20841,3.44296 5.93312,3.41066 9.7798,-0.41341 8.21335,-8.16491 16.40733,-16.35242 24.56901,-24.5787 3.70133,-3.74655 3.61413,-5.96542 -0.41665,-9.50204 C 961.27891,162.5119 926.14849,152.12813 886.6514,158.87839 826.82279,169.1039 783.78262,220.88065 782.90411,281.5587 Z" /><path
       style="clip-rule:evenodd;fill:#fff0e6;fill-rule:evenodd"
       inkscape:connector-curvature="0"
       id="path14"
       d="m 455.86213,258.89204 c -0.003,-31.06734 -0.006,-62.13791 0,-93.20526 0,-6.67597 1.23378,-7.9259 7.85161,-7.93559 10.8747,-0.0129 21.74617,-0.0129 32.62087,0 6.7761,0.01 7.92268,1.13366 7.92268,7.82255 0.01,55.35859 0.0549,110.71717 -0.0485,166.07253 -0.0129,7.75149 1.76346,14.53728 7.78702,19.73401 4.45388,3.84022 9.67322,5.57139 15.57727,5.55847 22.8766,-0.0517 45.7532,-0.0258 68.63302,-0.0162 6.19474,0.003 7.35746,1.17241 7.36069,7.4382 0.0162,11.43668 0.0291,22.8766 -0.003,34.31651 -0.0161,5.10307 -1.46955,6.61461 -6.5274,6.62107 -29.79804,0.0355 -59.60253,0.35205 -89.39087,-0.10335 -18.96856,-0.28746 -35.13042,-6.89883 -44.76811,-24.59485 -5.18058,-9.5085 -6.96343,-19.91811 -6.98927,-30.6184 -0.0743,-30.36648 -0.0258,-60.72649 -0.0258,-91.08974 z" /><path
       style="clip-rule:evenodd;fill:#fff0e6;fill-rule:evenodd"
       inkscape:connector-curvature="0"
       id="path16"
       d="m 195.75106,206.29492 c 0,2.44495 0,4.37637 0,6.31101 0,61.28525 0.003,122.57373 0,183.85898 0,8.03571 -0.83329,8.84962 -9.03049,8.84962 -10.73259,0.007 -21.46195,0.0226 -32.19777,-0.007 -5.90082,-0.0194 -7.17013,-1.31452 -7.17013,-7.22827 -0.003,-61.99257 0,-123.98514 0,-185.97772 0,-1.68272 0,-3.3719 0,-5.80716 -1.86036,0 -3.47848,0 -5.09661,0 -22.73448,0 -45.472199,0.003 -68.206685,-0.006 -6.27225,-0.003 -7.473732,-1.16918 -7.486651,-7.36392 -0.02584,-11.43991 -0.03553,-22.87659 0.0065,-34.31651 0.01938,-5.37436 1.437256,-6.84392 6.753489,-6.84715 64.673297,-0.0194 129.346597,-0.0194 194.026347,0 5.19351,0 6.57908,1.41465 6.592,6.46927 0.0226,11.85979 0.0226,23.7228 0,35.58582 -0.0129,5.05462 -1.40172,6.45957 -6.592,6.46603 -21.89151,0.0258 -43.77979,0.0129 -65.66484,0.0129 -1.68272,0 -3.3719,0 -5.93312,0 z" /><path
       style="clip-rule:evenodd;fill:#fff0e6;fill-rule:evenodd"
       inkscape:connector-curvature="0"
       id="path18"
       d="m 782.90411,281.5587 c 0.87851,-60.68128 43.91545,-112.4548 103.75375,-122.67708 39.49709,-6.75026 74.62428,3.63351 104.85187,30.11455 4.03078,3.53662 4.11798,5.75872 0.41665,9.50204 -8.16168,8.22627 -16.35566,16.41379 -24.56901,24.5787 -3.84668,3.8273 -5.57462,3.8596 -9.7798,0.41341 -31.28051,-25.53471 -73.64242,-24.47211 -102.45214,3.61736 -21.08084,20.55438 -28.15407,46.11493 -20.25078,74.54677 8.07447,29.0681 27.69221,47.48113 57.10913,54.25077 24.3623,5.60368 46.39915,-0.4328 65.69391,-16.3492 3.90482,-3.21687 5.8976,-3.16842 9.49235,0.39727 8.31025,8.2618 16.60112,16.55267 24.86292,24.86937 3.54631,3.57215 3.47848,5.71996 -0.37143,9.16614 -20.87412,18.67465 -45.21059,29.5009 -73.20317,31.60995 -62.52549,4.70903 -117.01849,-34.97539 -131.57192,-96.06362 -2.1801,-9.12092 -2.7001,-18.63911 -3.98233,-27.97643 z" /></g><g
     style="font-style:normal;font-weight:normal;font-size:39.64761353px;line-height:125%;font-family:Sans;letter-spacing:0px;word-spacing:0px;fill:#ee2e26;fill-opacity:1;stroke:none"
     id="text4334"
     transform="matrix(4.7724788,0,0,4.7724788,-2088.1757,-42.655209)"><path
       inkscape:connector-curvature="0"
       style="font-variant:normal;font-weight:bold;font-stretch:normal;font-family:Arial;-inkscape-font-specification:'Arial Bold';fill:#ee2e26"
       id="path221392"
       d="m 444.97924,33.396287 0,-7.37585 -7.43393,0 0,-5.091466 7.43393,0 0,-7.37585 4.95595,0 0,7.37585 7.45329,0 0,5.091466 -7.45329,0 0,7.37585 z" /><path
       inkscape:connector-curvature="0"
       style="font-variant:normal;font-weight:bold;font-stretch:normal;font-family:Arial;-inkscape-font-specification:'Arial Bold';fill:#ee2e26"
       id="path221394"
       d="m 474.65687,37.481075 -5.43993,0 0,-20.501378 c -1.98755,1.858501 -4.33001,3.233001 -7.02738,4.123507 l 0,-4.936593 c 1.41966,-0.464599 2.96195,-1.345441 4.62684,-2.642529 1.66488,-1.29704 2.80707,-2.810282 3.42658,-4.5397289 l 4.41389,0 z" /></g></svg>