<?xml version="1.0" encoding="UTF-8" standalone="no"?>
<!-- Generator: Adobe Illustrator 16.0.4, SVG Export Plug-In . SVG Version: 6.00 Build 0)  -->

<svg
   xmlns:dc="http://purl.org/dc/elements/1.1/"
   xmlns:cc="http://creativecommons.org/ns#"
   xmlns:rdf="http://www.w3.org/1999/02/22-rdf-syntax-ns#"
   xmlns:svg="http://www.w3.org/2000/svg"
   xmlns="http://www.w3.org/2000/svg"
   xmlns:sodipodi="http://sodipodi.sourceforge.net/DTD/sodipodi-0.dtd"
   xmlns:inkscape="http://www.inkscape.org/namespaces/inkscape"
   version="1.1"
   id="Ebene_1"
   x="0px"
   y="0px"
   width="379.33px"
   height="196.646px"
   viewBox="0 0 379.33 196.646"
   enable-background="new 0 0 379.33 196.646"
   xml:space="preserve"
   inkscape:version="0.91 r13725"
   sodipodi:docname="TLC.svg"><metadata
     id="metadata24"><rdf:RDF><cc:Work
         rdf:about=""><dc:format>image/svg+xml</dc:format><dc:type
           rdf:resource="http://purl.org/dc/dcmitype/StillImage" /></cc:Work></rdf:RDF></metadata><defs
     id="defs22" /><sodipodi:namedview
     pagecolor="#ffffff"
     bordercolor="#666666"
     borderopacity="1"
     objecttolerance="10"
     gridtolerance="10"
     guidetolerance="10"
     inkscape:pageopacity="0"
     inkscape:pageshadow="2"
     inkscape:window-width="1920"
     inkscape:window-height="1017"
     id="namedview20"
     showgrid="false"
     inkscape:zoom="1.0737182"
     inkscape:cx="122.23748"
     inkscape:cy="97.128697"
     inkscape:window-x="-8"
     inkscape:window-y="-8"
     inkscape:window-maximized="1"
     inkscape:current-layer="Ebene_1" /><path
     fill="#EB2D37"
     d="M128.719,0c40.68,0,81.36,0,122.04,0c-0.051,0.75-0.145,1.502-0.145,2.252  c-0.007,64.048-0.006,128.096-0.012,192.144c0,0.728-0.077,1.458-0.117,2.165c-40.602,0-81.005,0-121.616,0c0-0.825,0-1.57,0-2.317  c0-63.997,0.001-127.994-0.006-191.992C128.864,1.502,128.77,0.75,128.719,0z M163.285,92.653c0,10.875-0.017,21.751,0.008,32.626  c0.009,3.833,0.648,7.562,2.503,10.968c3.453,6.339,9.243,8.706,16.036,8.81c10.67,0.164,21.346,0.051,32.019,0.038  c1.813-0.003,2.332-0.544,2.338-2.372c0.013-4.098,0.008-8.194,0.003-12.292c-0.002-2.244-0.418-2.663-2.637-2.664  c-8.195-0.003-16.389-0.013-24.583,0.006c-2.116,0.005-3.985-0.614-5.58-1.99c-2.158-1.862-2.794-4.293-2.79-7.069  c0.036-19.828,0.021-39.657,0.017-59.485c0-2.396-0.411-2.799-2.838-2.803c-3.895-0.005-7.79-0.005-11.684,0  c-2.37,0.003-2.811,0.452-2.812,2.843C163.283,70.396,163.284,81.525,163.285,92.653z"
     id="path3" /><path
     fill-rule="evenodd"
     clip-rule="evenodd"
     fill="#EB2D37"
     d="M0,188.524C0,128.416,0,68.306,0,8.197  C0.12,7.825,0.279,7.46,0.351,7.08c0.486-2.565,1.855-4.519,4.104-5.811C5.348,0.756,6.339,0.418,7.286,0  c38.15,0,76.301,0,114.451,0c0,65.522,0,131.046,0,196.646c-0.949,0-1.602,0-2.256,0c-23.268,0-46.536,0-69.802,0  c-13.556,0-27.111,0.004-40.667-0.004c-4.102,0-7.469-2.488-8.507-6.248C0.332,189.771,0.168,189.148,0,188.524z M70.117,73.813  c0.917,0,1.522,0,2.126,0c7.839,0,15.679,0.005,23.521-0.005c1.859-0.003,2.356-0.505,2.361-2.316c0.008-4.249,0.008-8.498,0-12.746  c-0.004-1.811-0.5-2.316-2.361-2.317c-23.167-0.007-46.333-0.007-69.499,0c-1.904,0.001-2.412,0.527-2.419,2.453  c-0.016,4.098-0.012,8.194-0.003,12.292c0.005,2.219,0.435,2.637,2.682,2.638c8.143,0.004,16.287,0.002,24.431,0.002  c0.58,0,1.16,0,1.825,0c0,0.874,0,1.477,0,2.081c0,22.205-0.001,44.41,0.001,66.616c0,2.118,0.455,2.582,2.568,2.589  c3.845,0.011,7.689,0.005,11.533,0.003c2.936,0,3.235-0.292,3.235-3.171c0.001-21.951,0-43.904,0-65.856  C70.117,75.382,70.117,74.69,70.117,73.813z"
     id="path5" /><path
     fill-rule="evenodd"
     clip-rule="evenodd"
     fill="#EB2D37"
     d="M257.742,0c38.15,0,76.301,0,114.451,0  c0.112,0.096,0.207,0.238,0.338,0.28c4.799,1.546,6.794,4.307,6.794,9.466c0.003,59.091,0.003,118.182,0.003,177.273  c0,0.304,0.008,0.607-0.009,0.911c-0.256,5.301-3.813,8.713-9.092,8.713c-36.88,0.002-73.761,0.002-110.644,0.002  c-0.543,0-1.087,0-1.842,0C257.742,130.995,257.742,65.498,257.742,0z"
     id="path7" /><path
     fill-rule="evenodd"
     clip-rule="evenodd"
     fill="#EB2D37"
     d="M280.43,100.772c0.459,3.345,0.644,6.754,1.423,10.021  c5.214,21.881,24.733,36.096,47.13,34.408c10.027-0.755,18.744-4.633,26.22-11.323c1.379-1.233,1.403-2.002,0.133-3.281  c-2.958-2.979-5.93-5.95-8.906-8.909c-1.287-1.277-2.002-1.295-3.399-0.143c-6.91,5.702-14.806,7.865-23.531,5.857  c-10.536-2.425-17.562-9.021-20.456-19.433c-2.83-10.183-0.296-19.339,7.254-26.701c10.32-10.062,25.494-10.442,36.697-1.296  c1.509,1.234,2.125,1.222,3.504-0.148c2.942-2.925,5.878-5.857,8.801-8.804c1.327-1.342,1.295-2.137-0.148-3.404  c-10.825-9.485-23.409-13.205-37.557-10.786C296.161,60.492,280.745,79.037,280.43,100.772z"
     id="path9" /><path
     fill-rule="evenodd"
     clip-rule="evenodd"
     fill="#FFF0E6"
     d="M163.285,92.653c-0.001-11.128-0.002-22.256,0-33.385  c0.001-2.392,0.442-2.84,2.812-2.843c3.895-0.005,7.789-0.005,11.684,0c2.427,0.003,2.838,0.406,2.838,2.803  c0.003,19.829,0.019,39.657-0.017,59.485c-0.005,2.776,0.632,5.207,2.79,7.069c1.595,1.376,3.464,1.995,5.58,1.99  c8.195-0.019,16.388-0.009,24.583-0.006c2.219,0.001,2.635,0.42,2.637,2.664c0.005,4.098,0.01,8.194-0.003,12.292  c-0.006,1.828-0.524,2.369-2.338,2.372c-10.673,0.013-21.349,0.126-32.019-0.038c-6.793-0.104-12.583-2.471-16.036-8.81  c-1.855-3.406-2.495-7.135-2.503-10.968C163.268,114.404,163.285,103.528,163.285,92.653z"
     id="path11" /><path
     fill-rule="evenodd"
     clip-rule="evenodd"
     fill="#FFF0E6"
     d="M70.117,73.813c0,0.876,0,1.569,0,2.261  c0,21.952,0.001,43.905,0,65.856c0,2.879-0.299,3.171-3.235,3.171c-3.844,0.002-7.688,0.008-11.533-0.003  c-2.113-0.007-2.568-0.471-2.568-2.589c-0.002-22.206-0.001-44.411-0.001-66.616c0-0.604,0-1.207,0-2.081c-0.666,0-1.245,0-1.825,0  c-8.144,0-16.288,0.002-24.431-0.002c-2.247-0.001-2.677-0.419-2.682-2.638c-0.009-4.098-0.013-8.194,0.003-12.292  c0.007-1.925,0.516-2.452,2.419-2.453c23.166-0.007,46.332-0.007,69.499,0c1.861,0.001,2.356,0.506,2.361,2.317  c0.008,4.249,0.008,8.498,0,12.746c-0.004,1.811-0.502,2.313-2.361,2.316c-7.841,0.01-15.681,0.005-23.521,0.005  C71.639,73.813,71.034,73.813,70.117,73.813z"
     id="path13" /><path
     fill-rule="evenodd"
     clip-rule="evenodd"
     fill="#FFF0E6"
     d="M280.43,100.772c0.314-21.735,15.73-40.281,37.163-43.941  c14.147-2.418,26.731,1.301,37.557,10.786c1.443,1.267,1.476,2.062,0.148,3.404c-2.923,2.947-5.858,5.878-8.801,8.804  c-1.379,1.37-1.995,1.382-3.504,0.148c-11.203-9.146-26.377-8.766-36.697,1.296c-7.55,7.362-10.084,16.518-7.254,26.701  c2.894,10.412,9.92,17.008,20.456,19.433c8.726,2.008,16.621-0.155,23.531-5.857c1.397-1.152,2.112-1.135,3.399,0.143  c2.977,2.959,5.948,5.93,8.906,8.909c1.271,1.279,1.246,2.048-0.133,3.281c-7.476,6.69-16.192,10.568-26.22,11.323  c-22.396,1.688-41.916-12.527-47.13-34.408C281.074,107.526,280.889,104.117,280.43,100.772z"
     id="path15" /></svg>