<svg version="1.1" viewBox="0 0 996.71 479.31" xml:space="preserve" xmlns="http://www.w3.org/2000/svg">
<g transform="matrix(.72965 0 0 .72965 0 .0002553)" fill="#eb122b"><path d="m851.8-3.4989e-4c24.8 0 45.3 20.5 45.3 45.4v566.1c0 25-20.4 45.4-45.3 45.4h-337.6c-24.9 0.1-45.3-20.4-45.3-45.4v-566.1c0-24.9 20.4-45.4 45.3-45.4z"/><path d="m382.9-3.4989e-4c24.8 0 45.3 20.5 45.3 45.4v566.1c0 25-20.4 45.4-45.3 45.4h-337.6c-24.9 0.1-45.3-20.4-45.3-45.4v-566.1c0-24.9 20.4-45.4 45.3-45.4z"/><path d="m1320.7-3.4989e-4c24.8 0 45.3 20.5 45.3 45.4v566.1c0 25-20.4 45.4-45.3 45.4h-337.6c-24.9 0.1-45.3-20.4-45.3-45.4v-566.1c0-24.9 20.4-45.4 45.3-45.4z"/></g><g transform="matrix(.72965 0 0 .72965 0 .0002553)" fill="#fff"><path d="m338.4 236v-49.5c0-2.9-2.4-5.2-5.3-5.2h-249.8c-2.9 0-5.3 2.4-5.3 5.3v49.5c0 2.9 2.4 5.3 5.3 5.3h74c12.5 0 22.5 10.1 22.5 22.5v223.6c0 2.9 2.4 5.3 5.3 5.3h49.4c2.9 0 5.3-2.4 5.3-5.3v-223.7c0-12.5 10-22.5 22.5-22.5h70.9c2.8 0 5.2-2.4 5.2-5.3z"/><path d="m778.5 487.5v-49.4c0-2.9-2.3-5.4-5.3-5.4h-91.1c-15.9 0-28.7-12.9-28.7-28.8v-217.5c0-2.9-2.3-5.3-5.3-5.3h-49.3c-2.9 0-5.3 2.4-5.3 5.3v236.6c0 39.5 20.4 69.8 67.7 69.8h112c3 0 5.3-2.4 5.3-5.3z"/><path d="m1228.4 264.7c2 2 5.6 2 7.6 0l34.9-35c1.8-1.9 1.9-4.9 0.3-7-28-26.5-65.7-42.7-107.1-42.7-86.4 0-156.5 70.3-156.5 157 0 86.6 70.1 156.9 156.5 156.9 41.5 0 79.2-16.3 107.1-42.7 1.6-2 1.6-5.1-0.3-7l-34.9-35c-2-2-5.6-2-7.7 0l0.1-0.1c-17 15.3-39.6 24.7-64.3 24.7-53.3 0-96.6-43.4-96.6-96.9s43.3-96.9 96.6-96.9c24.7 0.1 47.2 9.4 64.3 24.7z"/></g>
</svg>
