<svg height="34.799999" viewBox="0 0 266 34.8" width="266" xmlns="http://www.w3.org/2000/svg" xmlns:xlink="http://www.w3.org/1999/xlink"><radialGradient id="a" cx="163.472" cy="18.7862" gradientTransform="matrix(0 -1 .8971 0 146.6181 182.2582)" gradientUnits="userSpaceOnUse" r="19.1467"><stop offset="0" stop-color="#7a7979" stop-opacity=".54902"/><stop offset=".1748" stop-color="#7a7979" stop-opacity=".627451"/><stop offset=".3539" stop-color="#7a7979" stop-opacity=".705882"/><stop offset=".5349" stop-color="#7a7979" stop-opacity=".784314"/><stop offset=".7173" stop-color="#5f5d5e"/><stop offset=".899" stop-color="#3c393a"/><stop offset="1" stop-color="#302d2e"/></radialGradient><radialGradient id="b" cx="150.9431" cy="7.3709" gradientUnits="userSpaceOnUse" r="29.269199"><stop offset="0" stop-color="#c3c3c3"/><stop offset=".1748" stop-color="#b1b0b1"/><stop offset=".3539" stop-color="#9a999a"/><stop offset=".5349" stop-color="#6e6c6d"/><stop offset=".7173" stop-color="#595758"/><stop offset=".899" stop-color="#3c393a"/><stop offset="1" stop-color="#2d2b2c"/></radialGradient><linearGradient id="c" gradientUnits="userSpaceOnUse" x1="151.357711" x2="169.410946" y1="17.393025" y2="17.393025"><stop offset="0" stop-color="#1ed0e6"/><stop offset=".1204" stop-color="#1ebedc"/><stop offset=".2558" stop-color="#1fb7d8"/><stop offset=".405" stop-color="#21a9cf"/><stop offset=".6054" stop-color="#21a2d1"/><stop offset=".8969" stop-color="#228fd8"/><stop offset="1" stop-color="#2286db"/></linearGradient><linearGradient id="d"><stop offset=".06084582" stop-color="#0d92b0"/><stop offset="1" stop-color="#0d92b0" stop-opacity="0"/></linearGradient><linearGradient id="e" gradientUnits="userSpaceOnUse" x1="153.5379" x2="159.37869" xlink:href="#d" y1="22.819201" y2="18.186899"/><linearGradient id="f"><stop offset="0" stop-color="#0d75b1"/><stop offset=".3933" stop-color="#0d7db1" stop-opacity=".6067"/><stop offset=".9898" stop-color="#0d92b0" stop-opacity=".010152"/><stop offset="1" stop-color="#0d92b0" stop-opacity="0"/></linearGradient><linearGradient id="g" gradientUnits="userSpaceOnUse" x1="166.0779" x2="159.2301" xlink:href="#f" y1="22.419701" y2="16.377501"/><linearGradient id="h"><stop offset="0" stop-color="#1ed0e6"/><stop offset=".07903945" stop-color="#1fc6e0"/><stop offset=".2755" stop-color="#20b1d3"/><stop offset=".405" stop-color="#21a9cf"/><stop offset=".6054" stop-color="#21a2d1"/><stop offset=".8969" stop-color="#228fd8"/><stop offset="1" stop-color="#2286db"/></linearGradient><linearGradient id="i" gradientUnits="userSpaceOnUse" x1="92.574799" x2="1.8068" xlink:href="#h" y1="11.1523" y2="24.009501"/><linearGradient id="j" gradientUnits="userSpaceOnUse" x1="91.394501" x2=".6265" xlink:href="#h" y1="5.7568" y2="18.614"/><linearGradient id="k" gradientUnits="userSpaceOnUse" x1="93.857498" x2="3.0895" xlink:href="#h" y1="14.335" y2="27.1922"/><linearGradient id="l" gradientUnits="userSpaceOnUse" x1="34.4799" x2="49.4552" xlink:href="#f" y1="44.446201" y2="13.6638"/><linearGradient id="m" gradientUnits="userSpaceOnUse" x1="3.4696" x2="18.444799" xlink:href="#f" y1="29.5625" y2="-1.2199"/><linearGradient id="n" gradientUnits="userSpaceOnUse" x1="54.669498" x2="69.644798" xlink:href="#f" y1="53.863499" y2="23.0811"/><linearGradient id="o" gradientUnits="userSpaceOnUse" x1="54.4412" x2="46.745602" xlink:href="#d" y1="40.7299" y2="22.010799"/><linearGradient id="p" gradientUnits="userSpaceOnUse" x1="33.158298" x2="25.4627" xlink:href="#d" y1="49.308498" y2="30.5895"/><linearGradient id="q" gradientUnits="userSpaceOnUse" x1="87.249199" x2="79.553596" xlink:href="#d" y1="27.5842" y2="8.8651"/><g fill="#424242"><path d="m140 .9c-1.4 0-2.7.9-3.1 2.3l-6.1 20.6-8.1-22.9h-3.4c-1 0-1.9.6-2.2 1.6l-7.7 21.5-6.4-21.4c-.3-1-1.2-1.7-2.3-1.7h-4.7l10.3 33h3c1.3 0 2.5-.8 3-2.1l7.8-20.6 8.6 22.7h3.6c1 0 1.8-.6 2.1-1.5l9.8-31.4h-4.2z"/><path d="m218.5.9h-4.3c-1.1 0-2 .9-2 2v31h18.3c1.8 0 3.2-1.4 3.2-3.2v-2.7h-15.3v-27.1z"/><path d="m201.4 23.4c4.4-2 6.9-6 6.9-11.1 0-5.5-3.8-11.4-12-11.4h-13.9c-1.1 0-2 .9-2 2v31h3.1c1.8 0 3.2-1.4 3.2-3.2v-6.6h7.2l8.1 9.8h7.5l-8.6-10.5zm-4.9-5.2h-8c-.8 0-1.2 0-1.2 0h-.6v-11.3h9.9c2.1 0 3.4 1 4.1 1.9.8 1 1.3 2.4 1.3 3.7-.1 2.3-2 5.7-5.5 5.7z"/><path d="m247.9.9h-9.5c-1.1 0-2 .9-2 2v31h11.5c12.5 0 18.1-8.3 18.1-16.5s-5.6-16.5-18.1-16.5zm.7 27.1h-6v-21.1h6c3.5 0 6.4 1.2 8.4 3.4 1.7 1.9 2.7 4.5 2.7 7.1 0 5.1-4.2 10.6-11.1 10.6z"/></g><circle cx="160.39999" cy="17.4" fill="url(#c)" r="9"/><circle cx="160.39999" cy="17.4" fill="url(#e)" r="9"/><circle cx="160.39999" cy="17.4" fill="url(#g)" r="9"/><path d="m166.4 1c-.5-.1-.9-.3-1.4-.4-7.5-2-15.6 6.1-16.3 15.5.6-5.8 5.6-10.4 11.6-10.4 6.4 0 11.7 5.2 11.7 11.7 0 .4 0 .9-.1 1.3-.7 9.4-8.8 17.5-16.3 15.5-.5-.1-.9-.2-1.4-.4 1.9.6 3.9 1 6.1 1 10.1 0 17.7-7.5 17.7-17.4.1-7.8-4.6-14.1-11.6-16.4z" fill="url(#a)"/><path d="m160.4 29.1c-6.4 0-11.7-5.2-11.7-11.7 0-.4 0-.9.1-1.3.7-9.4 8.8-17.5 16.3-15.5.5.1.9.2 1.4.4-1.9-.6-3.9-1-6.1-1-10.1 0-17.7 7.5-17.7 17.4 0 7.8 4.7 14.1 11.7 16.4.5.1.9.3 1.4.4 7.5 2 15.6-6.1 16.3-15.5-.8 5.8-5.7 10.4-11.7 10.4z" fill="url(#b)"/><path d="m48.7.9h-14.6c-1.3 0-2.3 1-2.3 2.3v30.7h5.6c1.7 0 3.1-1.4 3.1-3.1v-5.1h7l5.7 8.1h9.4l-6.8-9.6.8-.5c3.2-2 5.3-6.2 5.3-10.4 0-8.5-6.8-12.4-13.2-12.4zm.1 16.9s-5 0-5.9 0c-1.7 0-2.4 0-2.4 0v-9h8.3c2.9 0 4.5 2.3 4.5 4.5 0 1.7-1.3 4.5-4.5 4.5z" fill="url(#i)"/><path d="m10.6 33.9h5.6c1.7 0 3.1-1.4 3.1-3.1v-19.8c0-1.3 0-2.1 0-2.1h8c1.4 0 2.6-1.2 2.6-2.6v-5.4h-28.2c-1 0-1.7.8-1.7 1.7v6.3h10.6z" fill="url(#j)"/><path d="m73.6 33.9h5.6c1.7 0 3.1-1.4 3.1-3.1v-21.9h8c1.4 0 2.6-1.2 2.6-2.6v-5.4h-28.2c-.9 0-1.7.7-1.7 1.7v6.3h10.6z" fill="url(#k)"/><path d="m48.7.9h-14.6c-1.3 0-2.3 1-2.3 2.3v30.7h5.6c1.7 0 3.1-1.4 3.1-3.1v-5.1h7l5.7 8.1h9.4l-6.8-9.6.8-.5c3.2-2 5.3-6.2 5.3-10.4 0-8.5-6.8-12.4-13.2-12.4zm.1 16.9s-5 0-5.9 0c-1.7 0-2.4 0-2.4 0v-9h8.3c2.9 0 4.5 2.3 4.5 4.5 0 1.7-1.3 4.5-4.5 4.5z" fill="url(#l)"/><path d="m10.6 33.9h5.6c1.7 0 3.1-1.4 3.1-3.1v-19.8c0-1.3 0-2.1 0-2.1h8c1.4 0 2.6-1.2 2.6-2.6v-5.4h-28.2c-1 0-1.7.8-1.7 1.7v6.3h10.6z" fill="url(#m)"/><path d="m73.6 33.9h5.6c1.7 0 3.1-1.4 3.1-3.1v-21.9h8c1.4 0 2.6-1.2 2.6-2.6v-5.4h-28.2c-.9 0-1.7.7-1.7 1.7v6.3h10.6z" fill="url(#n)"/><path d="m48.7.9h-14.6c-1.3 0-2.3 1-2.3 2.3v30.7h5.6c1.7 0 3.1-1.4 3.1-3.1v-5.1h7l5.7 8.1h9.4l-6.8-9.6.8-.5c3.2-2 5.3-6.2 5.3-10.4 0-8.5-6.8-12.4-13.2-12.4zm.1 16.9s-5 0-5.9 0c-1.7 0-2.4 0-2.4 0v-9h8.3c2.9 0 4.5 2.3 4.5 4.5 0 1.7-1.3 4.5-4.5 4.5z" fill="url(#o)"/><path d="m10.6 33.9h5.6c1.7 0 3.1-1.4 3.1-3.1v-19.8c0-1.3 0-2.1 0-2.1h8c1.4 0 2.6-1.2 2.6-2.6v-5.4h-28.2c-1 0-1.7.8-1.7 1.7v6.3h10.6z" fill="url(#p)"/><path d="m73.6 33.9h5.6c1.7 0 3.1-1.4 3.1-3.1v-21.9h8c1.4 0 2.6-1.2 2.6-2.6v-5.4h-28.2c-.9 0-1.7.7-1.7 1.7v6.3h10.6z" fill="url(#q)"/></svg>