<svg id="q" width="352.53" height="37.12" version="1.1" viewBox="0 0 330.5 34.8" xml:space="preserve" xmlns="http://www.w3.org/2000/svg" xmlns:xlink="http://www.w3.org/1999/xlink"><defs id="r"><linearGradient id="c" x1="330.5" x2="269.1" y1=".51523" y2="33.9" gradientUnits="userSpaceOnUse" xlink:href="#a"/><linearGradient id="b" x1="93.857" x2="3.0895" y1="14.335" y2="27.192" gradientUnits="userSpaceOnUse" xlink:href="#a"/></defs><path id="s" class="st0" d="m140 0.9c-1.4 0-2.7 0.9-3.1 2.3l-6.1 20.6-8.1-22.9h-3.4c-1 0-1.9 0.6-2.2 1.6l-7.7 21.5-6.4-21.4c-0.3-1-1.2-1.7-2.3-1.7h-4.7l10.3 33h3c1.3 0 2.5-0.8 3-2.1l7.8-20.6 8.6 22.7h3.6c1 0 1.8-0.6 2.1-1.5l9.8-31.4h-4.2z" fill="#eaeaea"/><path id="t" class="st0" d="m218.5 0.9h-4.3c-1.1 0-2 0.9-2 2v31h18.3c1.8 0 3.2-1.4 3.2-3.2v-2.7h-15.3v-27.1z" fill="#eaeaea"/><path id="u" class="st0" d="m201.4 23.4c4.4-2 6.9-6 6.9-11.1 0-5.5-3.8-11.4-12-11.4h-13.9c-1.1 0-2 0.9-2 2v31h3.1c1.8 0 3.2-1.4 3.2-3.2v-6.6h7.2l8.1 9.8h7.5l-8.6-10.5zm-4.9-5.2h-9.8v-11.3h9.9c2.1 0 3.4 1 4.1 1.9 0.8 1 1.3 2.4 1.3 3.7-0.1 2.3-2 5.7-5.5 5.7z" fill="#eaeaea"/><path id="v" class="st0" d="m247.9 0.9h-9.5c-1.1 0-2 0.9-2 2v31h11.5c12.5 0 18.1-8.3 18.1-16.5s-5.6-16.5-18.1-16.5zm0.7 27.1h-6v-21.1h6c3.5 0 6.4 1.2 8.4 3.4 1.7 1.9 2.7 4.5 2.7 7.1 0 5.1-4.2 10.6-11.1 10.6z" fill="#eaeaea"/><g id="w"><g id="x"><linearGradient id="k" x1="143.76" x2="162.17" y1="22.151" y2="22.151" gradientTransform="matrix(.981 0 0 .981 10.326 -4.3374)" gradientUnits="userSpaceOnUse"><stop id="y" stop-color="#1ED0E6" offset="0"/><stop id="z" stop-color="#1EBEDC" offset=".1204"/><stop id="aa" stop-color="#1FB7D8" offset=".2558"/><stop id="ab" stop-color="#21A9CF" offset=".405"/><stop id="ac" stop-color="#21A2D1" offset=".6054"/><stop id="ad" stop-color="#228FD8" offset=".8969"/><stop id="ae" stop-color="#2286DB" offset="1"/></linearGradient><circle id="af" class="st1" cx="160.4" cy="17.4" r="9" fill="url(#k)"/><linearGradient id="j" x1="153.54" x2="159.38" y1="22.819" y2="18.187" gradientUnits="userSpaceOnUse"><stop id="ag" stop-color="#0D92B0" offset=".060846"/><stop id="ah" stop-color="#0D92B0" stop-opacity="0" offset="1"/></linearGradient><circle id="ai" class="st2" cx="160.4" cy="17.4" r="9" fill="url(#j)"/><linearGradient id="i" x1="166.08" x2="159.23" y1="22.42" y2="16.378" gradientUnits="userSpaceOnUse"><stop id="aj" stop-color="#0D75B1" offset="0"/><stop id="ak" stop-color="#0D7DB1" stop-opacity=".6067" offset=".3933"/><stop id="al" stop-color="#0D92B0" stop-opacity=".010152" offset=".9898"/><stop id="am" stop-color="#0D92B0" stop-opacity="0" offset="1"/></linearGradient><circle id="an" class="st3" cx="160.4" cy="17.4" r="9" fill="url(#i)"/></g><radialGradient id="h" cx="163.47" cy="18.786" r="19.147" gradientTransform="matrix(0 -1 .8971 0 146.62 182.26)" gradientUnits="userSpaceOnUse"><stop id="ao" stop-color="#fff" offset="0"/><stop id="ap" stop-color="#FBFBFB" offset=".1748"/><stop id="aq" stop-color="#EFEFEF" offset=".3539"/><stop id="ar" stop-color="#DADADA" offset=".5349"/><stop id="as" stop-color="#BDBDBD" offset=".7173"/><stop id="at" stop-color="#999" offset=".899"/><stop id="au" stop-color="#818181" offset="1"/></radialGradient><path id="av" class="st4" d="m166.4 1c-0.5-0.1-0.9-0.3-1.4-0.4-7.5-2-15.6 6.1-16.3 15.5 0.6-5.8 5.6-10.4 11.6-10.4 6.4 0 11.7 5.2 11.7 11.7 0 0.4 0 0.9-0.1 1.3-0.7 9.4-8.8 17.5-16.3 15.5-0.5-0.1-0.9-0.2-1.4-0.4 1.9 0.6 3.9 1 6.1 1 10.1 0 17.7-7.5 17.7-17.4 0.1-7.8-4.6-14.1-11.6-16.4z" fill="url(#h)"/><radialGradient id="g" cx="150.94" cy="7.3709" r="29.269" gradientUnits="userSpaceOnUse"><stop id="aw" stop-color="#fff" offset="0"/><stop id="ax" stop-color="#FBFBFB" offset=".1748"/><stop id="ay" stop-color="#EFEFEF" offset=".3539"/><stop id="az" stop-color="#DADADA" offset=".5349"/><stop id="ba" stop-color="#BDBDBD" offset=".7173"/><stop id="bb" stop-color="#999" offset=".899"/><stop id="bc" stop-color="#818181" offset="1"/></radialGradient><path id="bd" class="st5" d="m160.4 29.1c-6.4 0-11.7-5.2-11.7-11.7 0-0.4 0-0.9 0.1-1.3 0.7-9.4 8.8-17.5 16.3-15.5 0.5 0.1 0.9 0.2 1.4 0.4-1.9-0.6-3.9-1-6.1-1-10.1 0-17.7 7.5-17.7 17.4 0 7.8 4.7 14.1 11.7 16.4 0.5 0.1 0.9 0.3 1.4 0.4 7.5 2 15.6-6.1 16.3-15.5-0.8 5.8-5.7 10.4-11.7 10.4z" fill="url(#g)"/></g><g id="be"><linearGradient id="f" x1="92.575" x2="1.8068" y1="11.152" y2="24.01" gradientUnits="userSpaceOnUse"><stop id="bf" stop-color="#1ED0E6" offset="0"/><stop id="bg" stop-color="#1FC6E0" offset=".079039"/><stop id="bh" stop-color="#20B1D3" offset=".2755"/><stop id="bi" stop-color="#21A9CF" offset=".405"/><stop id="bj" stop-color="#21A2D1" offset=".6054"/><stop id="bk" stop-color="#228FD8" offset=".8969"/><stop id="bl" stop-color="#2286DB" offset="1"/></linearGradient><path id="bm" class="st6" d="m48.7 0.9h-14.6c-1.3 0-2.3 1-2.3 2.3v30.7h5.6c1.7 0 3.1-1.4 3.1-3.1v-5.1h7l5.7 8.1h9.4l-6.8-9.6 0.8-0.5c3.2-2 5.3-6.2 5.3-10.4 0-8.5-6.8-12.4-13.2-12.4zm0.1 16.9h-8.3v-9h8.3c2.9 0 4.5 2.3 4.5 4.5 0 1.7-1.3 4.5-4.5 4.5z" fill="url(#f)"/><linearGradient id="e" x1="91.395" x2=".6265" y1="5.7568" y2="18.614" gradientUnits="userSpaceOnUse"><stop id="bn" stop-color="#1ED0E6" offset="0"/><stop id="bo" stop-color="#1FC6E0" offset=".079039"/><stop id="bp" stop-color="#20B1D3" offset=".2755"/><stop id="bq" stop-color="#21A9CF" offset=".405"/><stop id="br" stop-color="#21A2D1" offset=".6054"/><stop id="bs" stop-color="#228FD8" offset=".8969"/><stop id="bt" stop-color="#2286DB" offset="1"/></linearGradient><path id="bu" class="st7" d="m10.6 33.9h5.6c1.7 0 3.1-1.4 3.1-3.1v-21.9h8c1.4 0 2.6-1.2 2.6-2.6v-5.4h-28.2c-1 0-1.7 0.8-1.7 1.7v6.3h10.6z" fill="url(#e)"/><linearGradient id="a" x1="93.857" x2="3.0895" y1="14.335" y2="27.192" gradientUnits="userSpaceOnUse"><stop id="bv" stop-color="#1ED0E6" offset="0"/><stop id="bw" stop-color="#1FC6E0" offset=".079039"/><stop id="bx" stop-color="#20B1D3" offset=".2755"/><stop id="by" stop-color="#21A9CF" offset=".405"/><stop id="bz" stop-color="#21A2D1" offset=".6054"/><stop id="ca" stop-color="#228FD8" offset=".8969"/><stop id="cb" stop-color="#2286DB" offset="1"/></linearGradient><path id="cc" class="st8" d="m73.6 33.9h5.6c1.7 0 3.1-1.4 3.1-3.1v-21.9h8c1.4 0 2.6-1.2 2.6-2.6v-5.4h-28.2c-0.9 0-1.7 0.7-1.7 1.7v6.3h10.6z" fill="url(#b)"/></g><g id="cd"><linearGradient id="d" x1="34.48" x2="49.455" y1="44.446" y2="13.664" gradientUnits="userSpaceOnUse"><stop id="ce" stop-color="#0D75B1" offset="0"/><stop id="cf" stop-color="#0D7DB1" stop-opacity=".6067" offset=".3933"/><stop id="cg" stop-color="#0D92B0" stop-opacity=".010152" offset=".9898"/><stop id="ch" stop-color="#0D92B0" stop-opacity="0" offset="1"/></linearGradient><path id="ci" class="st9" d="m48.7 0.9h-14.6c-1.3 0-2.3 1-2.3 2.3v30.7h5.6c1.7 0 3.1-1.4 3.1-3.1v-5.1h7l5.7 8.1h9.4l-6.8-9.6 0.8-0.5c3.2-2 5.3-6.2 5.3-10.4 0-8.5-6.8-12.4-13.2-12.4zm0.1 16.9h-8.3v-9h8.3c2.9 0 4.5 2.3 4.5 4.5 0 1.7-1.3 4.5-4.5 4.5z" fill="url(#d)"/><linearGradient id="p" x1="3.4696" x2="18.445" y1="29.562" y2="-1.2199" gradientUnits="userSpaceOnUse"><stop id="cj" stop-color="#0D75B1" offset="0"/><stop id="ck" stop-color="#0D7DB1" stop-opacity=".6067" offset=".3933"/><stop id="cl" stop-color="#0D92B0" stop-opacity=".010152" offset=".9898"/><stop id="cm" stop-color="#0D92B0" stop-opacity="0" offset="1"/></linearGradient><path id="cn" class="st10" d="m10.6 33.9h5.6c1.7 0 3.1-1.4 3.1-3.1v-21.9h8c1.4 0 2.6-1.2 2.6-2.6v-5.4h-28.2c-1 0-1.7 0.8-1.7 1.7v6.3h10.6z" fill="url(#p)"/><linearGradient id="o" x1="54.669" x2="69.645" y1="53.863" y2="23.081" gradientUnits="userSpaceOnUse"><stop id="co" stop-color="#0D75B1" offset="0"/><stop id="cp" stop-color="#0D7DB1" stop-opacity=".6067" offset=".3933"/><stop id="cq" stop-color="#0D92B0" stop-opacity=".010152" offset=".9898"/><stop id="cr" stop-color="#0D92B0" stop-opacity="0" offset="1"/></linearGradient><path id="cs" class="st11" d="m73.6 33.9h5.6c1.7 0 3.1-1.4 3.1-3.1v-21.9h8c1.4 0 2.6-1.2 2.6-2.6v-5.4h-28.2c-0.9 0-1.7 0.7-1.7 1.7v6.3h10.6z" fill="url(#o)"/></g><g id="ct"><linearGradient id="n" x1="54.441" x2="46.746" y1="40.73" y2="22.011" gradientUnits="userSpaceOnUse"><stop id="cu" stop-color="#0D92B0" offset=".060846"/><stop id="cv" stop-color="#0D92B0" stop-opacity="0" offset="1"/></linearGradient><path id="cw" class="st12" d="m48.7 0.9h-14.6c-1.3 0-2.3 1-2.3 2.3v30.7h5.6c1.7 0 3.1-1.4 3.1-3.1v-5.1h7l5.7 8.1h9.4l-6.8-9.6 0.8-0.5c3.2-2 5.3-6.2 5.3-10.4 0-8.5-6.8-12.4-13.2-12.4zm0.1 16.9h-8.3v-9h8.3c2.9 0 4.5 2.3 4.5 4.5 0 1.7-1.3 4.5-4.5 4.5z" fill="url(#n)"/><linearGradient id="m" x1="33.158" x2="25.463" y1="49.308" y2="30.59" gradientUnits="userSpaceOnUse"><stop id="cx" stop-color="#0D92B0" offset=".060846"/><stop id="cy" stop-color="#0D92B0" stop-opacity="0" offset="1"/></linearGradient><path id="cz" class="st13" d="m10.6 33.9h5.6c1.7 0 3.1-1.4 3.1-3.1v-21.9h8c1.4 0 2.6-1.2 2.6-2.6v-5.4h-28.2c-1 0-1.7 0.8-1.7 1.7v6.3h10.6z" fill="url(#m)"/><linearGradient id="l" x1="87.249" x2="79.554" y1="27.584" y2="8.8651" gradientUnits="userSpaceOnUse"><stop id="da" stop-color="#0D92B0" offset=".060846"/><stop id="db" stop-color="#0D92B0" stop-opacity="0" offset="1"/></linearGradient><path id="dc" class="st14" d="m73.6 33.9h5.6c1.7 0 3.1-1.4 3.1-3.1v-21.9h8c1.4 0 2.6-1.2 2.6-2.6v-5.4h-28.2c-0.9 0-1.7 0.7-1.7 1.7v6.3h10.6z" fill="url(#l)"/></g><g id="dd" fill="url(#c)"><path id="de" class="st0" d="m312.4 0.9h-9.5c-1.1 0-2 0.9-2 2v31h11.5c12.5 0 18.1-8.3 18.1-16.5s-5.6-16.5-18.1-16.5zm0.70001 27.1h-6v-21.1h6c3.5 0 6.4 1.2 8.4 3.4 1.7 1.9 2.7 4.5 2.7 7.1 0 5.1-4.2 10.6-11.1 10.6z"/><path id="df" d="m272.3 0.90073c-1.8 0-3.1988 1.3989-3.1988 3.1989v29.8h3.1c1.8 0 3.1988-1.4007 3.1988-3.2007v-10.15h16.503v13.35h3.1c1.8 0 3.1988-1.4007 3.1988-3.2007v-29.799h-3.1c-1.8 0-3.1988 1.3989-3.1988 3.1989v10.151h-16.503v-13.35h-1.9995z"/></g></svg>
