<?xml version="1.0" encoding="UTF-8" standalone="no"?>
<!-- Generator: Adobe Illustrator 20.1.0, SVG Export Plug-In . SVG Version: 6.00 Build 0)  -->

<svg
   xmlns:dc="http://purl.org/dc/elements/1.1/"
   xmlns:cc="http://creativecommons.org/ns#"
   xmlns:rdf="http://www.w3.org/1999/02/22-rdf-syntax-ns#"
   xmlns:svg="http://www.w3.org/2000/svg"
   xmlns="http://www.w3.org/2000/svg"
   xmlns:sodipodi="http://sodipodi.sourceforge.net/DTD/sodipodi-0.dtd"
   xmlns:inkscape="http://www.inkscape.org/namespaces/inkscape"
   version="1.1"
   id="Layer_1"
   x="0px"
   y="0px"
   width="266"
   height="34.799999"
   viewBox="0 0 266 34.8"
   xml:space="preserve"
   inkscape:version="0.91 r13725"
   sodipodi:docname="TRT World - Dark.svg"><metadata
     id="metadata207"><rdf:RDF><cc:Work
         rdf:about=""><dc:format>image/svg+xml</dc:format><dc:type
           rdf:resource="http://purl.org/dc/dcmitype/StillImage" /><dc:title></dc:title></cc:Work></rdf:RDF></metadata><defs
     id="defs205"><radialGradient
       gradientUnits="userSpaceOnUse"
       gradientTransform="matrix(0,-1,0.8971,0,146.6181,182.2582)"
       r="19.1467"
       cy="18.7862"
       cx="163.472"
       id="SVGID_4_"><stop
         id="stop57"
         style="stop-color:#7a7979;stop-opacity:0.54901963"
         offset="0" /><stop
         id="stop59"
         style="stop-color:#7a7979;stop-opacity:0.627451"
         offset="0.1748" /><stop
         id="stop61"
         style="stop-color:#7a7979;stop-opacity:0.70588237"
         offset="0.3539" /><stop
         id="stop63"
         style="stop-color:#7a7979;stop-opacity:0.78431374"
         offset="0.5349" /><stop
         id="stop65"
         style="stop-color:#5f5d5e;stop-opacity:1"
         offset="0.7173" /><stop
         id="stop67"
         style="stop-color:#3c393a;stop-opacity:1"
         offset="0.899" /><stop
         id="stop69"
         style="stop-color:#302d2e;stop-opacity:1"
         offset="1" /></radialGradient><radialGradient
       gradientUnits="userSpaceOnUse"
       r="29.269199"
       cy="7.3709002"
       cx="150.9431"
       id="SVGID_5_"><stop
         id="stop74"
         style="stop-color:#c3c3c3;stop-opacity:1"
         offset="0" /><stop
         id="stop76"
         style="stop-color:#b1b0b1;stop-opacity:1"
         offset="0.1748" /><stop
         id="stop78"
         style="stop-color:#9a999a;stop-opacity:1"
         offset="0.3539" /><stop
         id="stop80"
         style="stop-color:#6e6c6d;stop-opacity:1"
         offset="0.5349" /><stop
         id="stop82"
         style="stop-color:#595758;stop-opacity:1"
         offset="0.7173" /><stop
         id="stop84"
         style="stop-color:#3c393a;stop-opacity:1"
         offset="0.899" /><stop
         id="stop86"
         style="stop-color:#2d2b2c;stop-opacity:1"
         offset="1" /></radialGradient><linearGradient
       id="SVGID_1_"
       gradientUnits="userSpaceOnUse"
       x1="143.76311"
       y1="22.1513"
       x2="162.166"
       y2="22.1513"
       gradientTransform="matrix(0.981,0,0,0.981,10.3261,-4.3374)"><stop
         offset="0"
         style="stop-color:#1ED0E6"
         id="stop22" /><stop
         offset="0.1204"
         style="stop-color:#1EBEDC"
         id="stop24" /><stop
         offset="0.2558"
         style="stop-color:#1FB7D8"
         id="stop26" /><stop
         offset="0.405"
         style="stop-color:#21A9CF"
         id="stop28" /><stop
         offset="0.6054"
         style="stop-color:#21A2D1"
         id="stop30" /><stop
         offset="0.8969"
         style="stop-color:#228FD8"
         id="stop32" /><stop
         offset="1"
         style="stop-color:#2286DB"
         id="stop34" /></linearGradient><linearGradient
       id="SVGID_2_"
       gradientUnits="userSpaceOnUse"
       x1="153.5379"
       y1="22.819201"
       x2="159.37869"
       y2="18.186899"><stop
         offset="6.084582e-02"
         style="stop-color:#0D92B0"
         id="stop39" /><stop
         offset="1"
         style="stop-color:#0D92B0;stop-opacity:0"
         id="stop41" /></linearGradient><linearGradient
       id="SVGID_3_"
       gradientUnits="userSpaceOnUse"
       x1="166.0779"
       y1="22.419701"
       x2="159.2301"
       y2="16.377501"><stop
         offset="0"
         style="stop-color:#0D75B1"
         id="stop46" /><stop
         offset="0.3933"
         style="stop-color:#0D7DB1;stop-opacity:0.6067"
         id="stop48" /><stop
         offset="0.9898"
         style="stop-color:#0D92B0;stop-opacity:1.015157e-02"
         id="stop50" /><stop
         offset="1"
         style="stop-color:#0D92B0;stop-opacity:0"
         id="stop52" /></linearGradient></defs><sodipodi:namedview
     pagecolor="#ffffff"
     bordercolor="#666666"
     borderopacity="1"
     objecttolerance="10"
     gridtolerance="10"
     guidetolerance="10"
     inkscape:pageopacity="0"
     inkscape:pageshadow="2"
     inkscape:window-width="1920"
     inkscape:window-height="1017"
     id="namedview203"
     showgrid="false"
     fit-margin-top="0"
     fit-margin-left="0"
     fit-margin-right="0"
     fit-margin-bottom="0"
     inkscape:zoom="4.3308271"
     inkscape:cx="148.70441"
     inkscape:cy="39.375595"
     inkscape:window-x="-8"
     inkscape:window-y="-8"
     inkscape:window-maximized="1"
     inkscape:current-layer="Layer_1" /><style
     type="text/css"
     id="style3">
	.st0{fill:#EAEAEA;}
	.st1{fill:url(#SVGID_1_);}
	.st2{fill:url(#SVGID_2_);}
	.st3{fill:url(#SVGID_3_);}
	.st4{fill:url(#SVGID_4_);}
	.st5{fill:url(#SVGID_5_);}
	.st6{fill:url(#SVGID_6_);}
	.st7{fill:url(#SVGID_7_);}
	.st8{fill:url(#SVGID_8_);}
	.st9{fill:url(#SVGID_9_);}
	.st10{fill:url(#SVGID_10_);}
	.st11{fill:url(#SVGID_11_);}
	.st12{fill:url(#SVGID_12_);}
	.st13{fill:url(#SVGID_13_);}
	.st14{fill:url(#SVGID_14_);}
</style><g
     id="White-dot" /><g
     id="Blue-dot" /><g
     id="Com" /><g
     id="WHITE-BLACK" /><path
     class="st0"
     d="m 140,0.9 c -1.4,0 -2.7,0.9 -3.1,2.3 l -6.1,20.6 -8.1,-22.9 -3.4,0 c -1,0 -1.9,0.6 -2.2,1.6 L 109.4,24 103,2.6 c -0.3,-1 -1.2,-1.7 -2.3,-1.7 l -4.7,0 10.3,33 3,0 c 1.3,0 2.5,-0.8 3,-2.1 l 7.8,-20.6 8.6,22.7 3.6,0 c 1,0 1.8,-0.6 2.1,-1.5 L 144.2,1 140,1 Z"
     id="path9"
     inkscape:connector-curvature="0"
     style="fill:#424242;fill-opacity:1" /><path
     class="st0"
     d="m 218.5,0.9 -4.3,0 c -1.1,0 -2,0.9 -2,2 l 0,31 18.3,0 c 1.8,0 3.2,-1.4 3.2,-3.2 l 0,-2.7 -15.3,0 0,-27.1 z"
     id="path11"
     inkscape:connector-curvature="0"
     style="fill:#424242;fill-opacity:1" /><path
     class="st0"
     d="m 201.4,23.4 c 4.4,-2 6.9,-6 6.9,-11.1 0,-5.5 -3.8,-11.4 -12,-11.4 l -13.9,0 c -1.1,0 -2,0.9 -2,2 l 0,31 3.1,0 c 1.8,0 3.2,-1.4 3.2,-3.2 l 0,-6.6 7.2,0 8.1,9.8 7.5,0 -8.6,-10.5 0.5,0 z m -4.9,-5.2 -8,0 c -0.8,0 -1.2,0 -1.2,0 l -0.6,0 0,-11.3 9.9,0 c 2.1,0 3.4,1 4.1,1.9 0.8,1 1.3,2.4 1.3,3.7 -0.1,2.3 -2,5.7 -5.5,5.7 z"
     id="path13"
     inkscape:connector-curvature="0"
     style="fill:#424242;fill-opacity:1" /><path
     class="st0"
     d="m 247.9,0.9 -9.5,0 c -1.1,0 -2,0.9 -2,2 l 0,31 11.5,0 C 260.4,33.9 266,25.6 266,17.4 266,9.2 260.4,0.9 247.9,0.9 Z m 0.7,27.1 -6,0 0,-21.1 6,0 c 3.5,0 6.4,1.2 8.4,3.4 1.7,1.9 2.7,4.5 2.7,7.1 0,5.1 -4.2,10.6 -11.1,10.6 z"
     id="path15"
     inkscape:connector-curvature="0"
     style="fill:#424242;fill-opacity:1" /><circle
     class="st1"
     cx="160.39999"
     cy="17.4"
     r="9"
     id="circle36"
     style="fill:url(#SVGID_1_)" /><circle
     class="st2"
     cx="160.39999"
     cy="17.4"
     r="9"
     id="circle43"
     style="fill:url(#SVGID_2_)" /><circle
     class="st3"
     cx="160.39999"
     cy="17.4"
     r="9"
     id="circle54"
     style="fill:url(#SVGID_3_)" /><path
     style="fill:url(#SVGID_4_)"
     inkscape:connector-curvature="0"
     id="path71"
     d="m 166.4,1 c -0.5,-0.1 -0.9,-0.3 -1.4,-0.4 -7.5,-2 -15.6,6.1 -16.3,15.5 0.6,-5.8 5.6,-10.4 11.6,-10.4 6.4,0 11.7,5.2 11.7,11.7 l 0,0 c 0,0.4 0,0.9 -0.1,1.3 -0.7,9.4 -8.8,17.5 -16.3,15.5 -0.5,-0.1 -0.9,-0.2 -1.4,-0.4 1.9,0.6 3.9,1 6.1,1 10.1,0 17.7,-7.5 17.7,-17.4 C 178.1,9.6 173.4,3.3 166.4,1 Z"
     class="st4" /><path
     style="fill:url(#SVGID_5_)"
     inkscape:connector-curvature="0"
     id="path88"
     d="m 160.4,29.1 c -6.4,0 -11.7,-5.2 -11.7,-11.7 l 0,0 c 0,-0.4 0,-0.9 0.1,-1.3 0.7,-9.4 8.8,-17.5 16.3,-15.5 0.5,0.1 0.9,0.2 1.4,0.4 -1.9,-0.6 -3.9,-1 -6.1,-1 -10.1,0 -17.7,7.5 -17.7,17.4 0,7.8 4.7,14.1 11.7,16.4 0.5,0.1 0.9,0.3 1.4,0.4 7.5,2 15.6,-6.1 16.3,-15.5 -0.8,5.8 -5.7,10.4 -11.7,10.4 z"
     class="st5" /><g
     id="g90"><g
       id="g92"><linearGradient
         id="SVGID_6_"
         gradientUnits="userSpaceOnUse"
         x1="92.574799"
         y1="11.1523"
         x2="1.8068"
         y2="24.009501"><stop
           offset="0"
           style="stop-color:#1ED0E6"
           id="stop95" /><stop
           offset="7.903945e-02"
           style="stop-color:#1FC6E0"
           id="stop97" /><stop
           offset="0.2755"
           style="stop-color:#20B1D3"
           id="stop99" /><stop
           offset="0.405"
           style="stop-color:#21A9CF"
           id="stop101" /><stop
           offset="0.6054"
           style="stop-color:#21A2D1"
           id="stop103" /><stop
           offset="0.8969"
           style="stop-color:#228FD8"
           id="stop105" /><stop
           offset="1"
           style="stop-color:#2286DB"
           id="stop107" /></linearGradient><path
         class="st6"
         d="m 48.7,0.9 -14.6,0 c -1.3,0 -2.3,1 -2.3,2.3 l 0,30.7 5.6,0 c 1.7,0 3.1,-1.4 3.1,-3.1 l 0,-5.1 7,0 5.7,8.1 9.4,0 -6.8,-9.6 0.8,-0.5 c 3.2,-2 5.3,-6.2 5.3,-10.4 C 61.9,4.8 55.1,0.9 48.7,0.9 Z m 0.1,16.9 c 0,0 -5,0 -5.9,0 -1.7,0 -2.4,0 -2.4,0 l 0,-9 8.3,0 c 2.9,0 4.5,2.3 4.5,4.5 0,1.7 -1.3,4.5 -4.5,4.5 z"
         id="path109"
         inkscape:connector-curvature="0"
         style="fill:url(#SVGID_6_)" /><linearGradient
         id="SVGID_7_"
         gradientUnits="userSpaceOnUse"
         x1="91.394501"
         y1="5.7568002"
         x2="0.62650001"
         y2="18.614"><stop
           offset="0"
           style="stop-color:#1ED0E6"
           id="stop112" /><stop
           offset="7.903945e-02"
           style="stop-color:#1FC6E0"
           id="stop114" /><stop
           offset="0.2755"
           style="stop-color:#20B1D3"
           id="stop116" /><stop
           offset="0.405"
           style="stop-color:#21A9CF"
           id="stop118" /><stop
           offset="0.6054"
           style="stop-color:#21A2D1"
           id="stop120" /><stop
           offset="0.8969"
           style="stop-color:#228FD8"
           id="stop122" /><stop
           offset="1"
           style="stop-color:#2286DB"
           id="stop124" /></linearGradient><path
         class="st7"
         d="m 10.6,33.9 5.6,0 c 1.7,0 3.1,-1.4 3.1,-3.1 l 0,-19.8 c 0,-1.3 0,-2.1 0,-2.1 l 8,0 c 1.4,0 2.6,-1.2 2.6,-2.6 l 0,-5.4 -28.2,0 C 0.7,0.9 0,1.7 0,2.6 l 0,6.3 10.6,0 0,25 z"
         id="path126"
         inkscape:connector-curvature="0"
         style="fill:url(#SVGID_7_)" /><linearGradient
         id="SVGID_8_"
         gradientUnits="userSpaceOnUse"
         x1="93.857498"
         y1="14.335"
         x2="3.0895"
         y2="27.1922"><stop
           offset="0"
           style="stop-color:#1ED0E6"
           id="stop129" /><stop
           offset="7.903945e-02"
           style="stop-color:#1FC6E0"
           id="stop131" /><stop
           offset="0.2755"
           style="stop-color:#20B1D3"
           id="stop133" /><stop
           offset="0.405"
           style="stop-color:#21A9CF"
           id="stop135" /><stop
           offset="0.6054"
           style="stop-color:#21A2D1"
           id="stop137" /><stop
           offset="0.8969"
           style="stop-color:#228FD8"
           id="stop139" /><stop
           offset="1"
           style="stop-color:#2286DB"
           id="stop141" /></linearGradient><path
         class="st8"
         d="m 73.6,33.9 5.6,0 c 1.7,0 3.1,-1.4 3.1,-3.1 l 0,-21.9 8,0 c 1.4,0 2.6,-1.2 2.6,-2.6 l 0,-5.4 -28.2,0 C 63.8,0.9 63,1.6 63,2.6 l 0,6.3 10.6,0 0,25 z"
         id="path143"
         inkscape:connector-curvature="0"
         style="fill:url(#SVGID_8_)" /></g><g
       id="g145"><linearGradient
         id="SVGID_9_"
         gradientUnits="userSpaceOnUse"
         x1="34.4799"
         y1="44.446201"
         x2="49.4552"
         y2="13.6638"><stop
           offset="0"
           style="stop-color:#0D75B1"
           id="stop148" /><stop
           offset="0.3933"
           style="stop-color:#0D7DB1;stop-opacity:0.6067"
           id="stop150" /><stop
           offset="0.9898"
           style="stop-color:#0D92B0;stop-opacity:1.015157e-02"
           id="stop152" /><stop
           offset="1"
           style="stop-color:#0D92B0;stop-opacity:0"
           id="stop154" /></linearGradient><path
         class="st9"
         d="m 48.7,0.9 -14.6,0 c -1.3,0 -2.3,1 -2.3,2.3 l 0,30.7 5.6,0 c 1.7,0 3.1,-1.4 3.1,-3.1 l 0,-5.1 7,0 5.7,8.1 9.4,0 -6.8,-9.6 0.8,-0.5 c 3.2,-2 5.3,-6.2 5.3,-10.4 C 61.9,4.8 55.1,0.9 48.7,0.9 Z m 0.1,16.9 c 0,0 -5,0 -5.9,0 -1.7,0 -2.4,0 -2.4,0 l 0,-9 8.3,0 c 2.9,0 4.5,2.3 4.5,4.5 0,1.7 -1.3,4.5 -4.5,4.5 z"
         id="path156"
         inkscape:connector-curvature="0"
         style="fill:url(#SVGID_9_)" /><linearGradient
         id="SVGID_10_"
         gradientUnits="userSpaceOnUse"
         x1="3.4696"
         y1="29.5625"
         x2="18.444799"
         y2="-1.2199"><stop
           offset="0"
           style="stop-color:#0D75B1"
           id="stop159" /><stop
           offset="0.3933"
           style="stop-color:#0D7DB1;stop-opacity:0.6067"
           id="stop161" /><stop
           offset="0.9898"
           style="stop-color:#0D92B0;stop-opacity:1.015157e-02"
           id="stop163" /><stop
           offset="1"
           style="stop-color:#0D92B0;stop-opacity:0"
           id="stop165" /></linearGradient><path
         class="st10"
         d="m 10.6,33.9 5.6,0 c 1.7,0 3.1,-1.4 3.1,-3.1 l 0,-19.8 c 0,-1.3 0,-2.1 0,-2.1 l 8,0 c 1.4,0 2.6,-1.2 2.6,-2.6 l 0,-5.4 -28.2,0 C 0.7,0.9 0,1.7 0,2.6 l 0,6.3 10.6,0 0,25 z"
         id="path167"
         inkscape:connector-curvature="0"
         style="fill:url(#SVGID_10_)" /><linearGradient
         id="SVGID_11_"
         gradientUnits="userSpaceOnUse"
         x1="54.669498"
         y1="53.863499"
         x2="69.644798"
         y2="23.0811"><stop
           offset="0"
           style="stop-color:#0D75B1"
           id="stop170" /><stop
           offset="0.3933"
           style="stop-color:#0D7DB1;stop-opacity:0.6067"
           id="stop172" /><stop
           offset="0.9898"
           style="stop-color:#0D92B0;stop-opacity:1.015157e-02"
           id="stop174" /><stop
           offset="1"
           style="stop-color:#0D92B0;stop-opacity:0"
           id="stop176" /></linearGradient><path
         class="st11"
         d="m 73.6,33.9 5.6,0 c 1.7,0 3.1,-1.4 3.1,-3.1 l 0,-21.9 8,0 c 1.4,0 2.6,-1.2 2.6,-2.6 l 0,-5.4 -28.2,0 C 63.8,0.9 63,1.6 63,2.6 l 0,6.3 10.6,0 0,25 z"
         id="path178"
         inkscape:connector-curvature="0"
         style="fill:url(#SVGID_11_)" /></g><g
       id="g180"><linearGradient
         id="SVGID_12_"
         gradientUnits="userSpaceOnUse"
         x1="54.4412"
         y1="40.7299"
         x2="46.745602"
         y2="22.010799"><stop
           offset="6.084582e-02"
           style="stop-color:#0D92B0"
           id="stop183" /><stop
           offset="1"
           style="stop-color:#0D92B0;stop-opacity:0"
           id="stop185" /></linearGradient><path
         class="st12"
         d="m 48.7,0.9 -14.6,0 c -1.3,0 -2.3,1 -2.3,2.3 l 0,30.7 5.6,0 c 1.7,0 3.1,-1.4 3.1,-3.1 l 0,-5.1 7,0 5.7,8.1 9.4,0 -6.8,-9.6 0.8,-0.5 c 3.2,-2 5.3,-6.2 5.3,-10.4 C 61.9,4.8 55.1,0.9 48.7,0.9 Z m 0.1,16.9 c 0,0 -5,0 -5.9,0 -1.7,0 -2.4,0 -2.4,0 l 0,-9 8.3,0 c 2.9,0 4.5,2.3 4.5,4.5 0,1.7 -1.3,4.5 -4.5,4.5 z"
         id="path187"
         inkscape:connector-curvature="0"
         style="fill:url(#SVGID_12_)" /><linearGradient
         id="SVGID_13_"
         gradientUnits="userSpaceOnUse"
         x1="33.158298"
         y1="49.308498"
         x2="25.4627"
         y2="30.5895"><stop
           offset="6.084582e-02"
           style="stop-color:#0D92B0"
           id="stop190" /><stop
           offset="1"
           style="stop-color:#0D92B0;stop-opacity:0"
           id="stop192" /></linearGradient><path
         class="st13"
         d="m 10.6,33.9 5.6,0 c 1.7,0 3.1,-1.4 3.1,-3.1 l 0,-19.8 c 0,-1.3 0,-2.1 0,-2.1 l 8,0 c 1.4,0 2.6,-1.2 2.6,-2.6 l 0,-5.4 -28.2,0 C 0.7,0.9 0,1.7 0,2.6 l 0,6.3 10.6,0 0,25 z"
         id="path194"
         inkscape:connector-curvature="0"
         style="fill:url(#SVGID_13_)" /><linearGradient
         id="SVGID_14_"
         gradientUnits="userSpaceOnUse"
         x1="87.249199"
         y1="27.5842"
         x2="79.553596"
         y2="8.8650999"><stop
           offset="6.084582e-02"
           style="stop-color:#0D92B0"
           id="stop197" /><stop
           offset="1"
           style="stop-color:#0D92B0;stop-opacity:0"
           id="stop199" /></linearGradient><path
         class="st14"
         d="m 73.6,33.9 5.6,0 c 1.7,0 3.1,-1.4 3.1,-3.1 l 0,-21.9 8,0 c 1.4,0 2.6,-1.2 2.6,-2.6 l 0,-5.4 -28.2,0 C 63.8,0.9 63,1.6 63,2.6 l 0,6.3 10.6,0 0,25 z"
         id="path201"
         inkscape:connector-curvature="0"
         style="fill:url(#SVGID_14_)" /></g></g></svg>