<?xml version="1.0" encoding="UTF-8" standalone="no"?>
<svg
   xmlns:dc="http://purl.org/dc/elements/1.1/"
   xmlns:cc="http://creativecommons.org/ns#"
   xmlns:rdf="http://www.w3.org/1999/02/22-rdf-syntax-ns#"
   xmlns:svg="http://www.w3.org/2000/svg"
   xmlns="http://www.w3.org/2000/svg"
   xmlns:sodipodi="http://sodipodi.sourceforge.net/DTD/sodipodi-0.dtd"
   xmlns:inkscape="http://www.inkscape.org/namespaces/inkscape"
   width="1270.1328pt"
   height="549.6864pt"
   viewBox="0 0 1270.1328 549.6864"
   version="1.1"
   id="svg2"
   inkscape:version="0.91 r13725"
   sodipodi:docname="True Crime.svg">
  <metadata
     id="metadata32">
    <rdf:RDF>
      <cc:Work
         rdf:about="">
        <dc:format>image/svg+xml</dc:format>
        <dc:type
           rdf:resource="http://purl.org/dc/dcmitype/StillImage" />
        <dc:title></dc:title>
      </cc:Work>
    </rdf:RDF>
  </metadata>
  <defs
     id="defs30" />
  <sodipodi:namedview
     pagecolor="#ffffff"
     bordercolor="#666666"
     borderopacity="1"
     objecttolerance="10"
     gridtolerance="10"
     guidetolerance="10"
     inkscape:pageopacity="0"
     inkscape:pageshadow="2"
     inkscape:window-width="1920"
     inkscape:window-height="1017"
     id="namedview28"
     showgrid="false"
     fit-margin-top="0"
     fit-margin-left="0"
     fit-margin-right="0"
     fit-margin-bottom="0"
     inkscape:zoom="2.9003934"
     inkscape:cx="1155.2725"
     inkscape:cy="75.378646"
     inkscape:window-x="-8"
     inkscape:window-y="-8"
     inkscape:window-maximized="1"
     inkscape:current-layer="svg2" />
  <g
     id="#f51c4eff"
     transform="translate(-0.42715243,0)">
    <path
       d="m 0.49,0 252.73,0 c 0.06,7.41 0.02,14.83 0.02,22.24 -38.06,0.02 -76.11,0.01 -114.17,0.01 -0.02,101.85 0,203.71 -0.01,305.56 -8.15,0 -16.29,0.01 -24.43,0 -0.01,-101.85 0,-203.7 -0.01,-305.56 C 76.56,22.24 38.5,22.26 0.44,22.25 0.45,14.83 0.38,7.41 0.49,0 Z"
       id="path5"
       inkscape:connector-curvature="0"
       style="opacity:1;fill:#f51c4e" />
    <path
       d="m 1035.2,0 233.02,0 c 0.06,7.41 0.02,14.83 0.02,22.24 -69.56,0.02 -139.12,0 -208.68,0.02 0,43.18 0,86.36 0,129.55 62.54,0.01 125.08,-0.01 187.62,0.01 0.01,7.35 0.01,14.7 0,22.05 -62.53,0.02 -125.07,0 -187.61,0.01 -0.01,43.96 -0.01,87.91 0,131.87 70.33,0.01 140.66,-0.01 210.99,0 0,7.36 0,14.71 0,22.06 -78.48,0.01 -156.96,0 -235.43,0 0.04,-109.27 -0.11,-218.54 0.07,-327.81 z"
       id="path7"
       inkscape:connector-curvature="0"
       style="opacity:1;fill:#f51c4e" />
    <path
       d="m 331.82,0.19 c 46.71,0.01 93.42,-0.04 140.13,0.03 27.9,0.14 56.57,6.82 79.39,23.44 18.08,13.06 30.59,33.49 33.98,55.52 2.04,14.17 1.35,28.85 -2.72,42.6 -5.07,16.71 -15.66,31.59 -29.56,42.11 -18,13.8 -40.27,20.85 -62.49,24.01 36.01,46.65 72.06,93.26 108.07,139.91 -10.34,0 -20.67,0.02 -31.01,-0.01 -34.77,-45.24 -69.54,-90.46 -104.33,-135.68 -35.7,0.01 -71.39,0 -107.09,0.01 -0.01,45.22 0,90.45 -0.01,135.68 -8.12,0.01 -16.24,0.01 -24.36,0 -0.01,-109.21 -0.01,-218.41 0,-327.62 m 24.37,22.06 c 0,49.27 -0.01,98.54 0,147.81 32.27,0.01 64.54,0 96.81,0 10.05,-0.04 20.14,0.27 30.15,-0.91 16.09,-1.82 32.12,-6.39 45.92,-15.03 13.1,-8.15 23.73,-20.51 29,-35.08 4.72,-13.51 5.03,-28.38 2.06,-42.3 C 556.67,60.61 546.06,46.56 532.22,37.78 514.14,26.13 492.15,22.62 471,22.27 432.73,22.22 394.46,22.26 356.19,22.25 Z"
       id="path9"
       inkscape:connector-curvature="0"
       style="opacity:1;fill:#f51c4e" />
    <path
       d="m 669.63,0.19 c 8.14,-0.01 16.28,-0.01 24.43,0 0.01,57.62 0,115.24 0,172.85 -0.11,17.71 -0.27,35.59 3.43,53.01 4.05,20.54 13.03,40.54 27.95,55.49 13.28,13.64 30.98,22.51 49.53,26.38 17.05,3.52 34.75,3.89 51.97,1.35 19.93,-2.96 39.48,-11.1 54.14,-25.17 15.68,-14.85 25.02,-35.31 29.38,-56.22 3.7,-17.02 3.59,-34.52 3.48,-51.85 0,-58.61 -0.01,-117.23 0,-175.84 8.12,-0.01 16.24,-0.01 24.37,0 0,53.94 0,107.87 0,161.81 -0.13,21.34 0.92,42.88 -3.16,63.96 -5.35,29.95 -19.66,59.17 -43.57,78.6 -16.67,13.83 -37.33,22.31 -58.57,25.98 -34.85,5.67 -72.45,1.88 -103.25,-16.33 -15.72,-9.39 -29.15,-22.58 -38.77,-38.16 -9.64,-15.59 -15.85,-33.19 -18.75,-51.26 -3.4,-19.76 -2.48,-39.88 -2.62,-59.83 0.01,-54.92 0,-109.85 0.01,-164.77 z"
       id="path11"
       inkscape:connector-curvature="0"
       style="opacity:1;fill:#f51c4e" />
    <path
       d="m 397.56,468.62 c 7.95,-14.34 23.03,-24.39 39.3,-26.26 12.81,-1.45 26.38,0.38 37.49,7.23 3.97,2.4 7.55,5.38 10.95,8.54 -3.94,4.53 -7.87,9.07 -11.82,13.6 -7.36,-6.63 -16.29,-12.52 -26.51,-12.87 -11.38,-1.02 -22.95,4.32 -29.66,13.52 -9.1,12.4 -9.66,30.15 -2.12,43.43 5.14,9.1 14.69,15.69 25.15,16.76 6.53,0.61 13.36,-0.06 19.32,-2.94 5.37,-2.67 10.13,-6.38 14.56,-10.38 3.95,3.97 7.89,7.95 11.8,11.96 -7.46,8.04 -16.98,14.51 -27.8,16.93 -13.93,3.05 -29.25,1.8 -41.64,-5.65 -13.55,-7.74 -22.92,-21.97 -25.3,-37.32 -1.94,-12.43 -0.01,-25.58 6.28,-36.55 z"
       id="path13"
       inkscape:connector-curvature="0"
       style="opacity:1;fill:#f51c4e" />
    <path
       d="m 509.88,443.69 c 16.02,0.02 32.03,-0.05 48.05,0.04 10.35,0.12 21.2,3.17 28.71,10.6 9.29,9.77 10.83,25.45 5.14,37.41 -4.07,8.59 -12.53,14.29 -21.51,16.74 9.36,13.13 18.74,26.25 28.08,39.39 -7.23,0 -14.46,0.02 -21.68,-0.01 -8.55,-12.1 -17.1,-24.2 -25.67,-36.3 -7.63,0 -15.25,0 -22.87,0.01 -0.01,12.1 0,24.2 -0.01,36.3 -6.08,0.01 -12.16,0.01 -18.24,0 -0.01,-34.72 -0.01,-69.45 0,-104.18 m 18.25,16.56 c -0.01,11.69 -0.01,23.37 0,35.06 8.94,-0.01 17.89,0.02 26.83,-0.01 5.95,0.01 12.29,-1.4 16.69,-5.67 5.39,-5.06 5.97,-13.75 2.98,-20.22 -3.24,-6.47 -10.94,-8.86 -17.7,-9.09 -9.6,-0.17 -19.2,-0.02 -28.8,-0.07 z"
       id="path15"
       inkscape:connector-curvature="0"
       style="opacity:1;fill:#f51c4e" />
    <path
       d="m 623.43,547.87 c 0.01,-34.73 -0.01,-69.45 0.01,-104.18 6.06,0 12.12,0 18.18,0 0.02,34.73 0,69.45 0.01,104.18 -6.07,0.01 -12.13,0.01 -18.2,0 z"
       id="path17"
       inkscape:connector-curvature="0"
       style="opacity:1;fill:#f51c4e" />
    <path
       d="m 674.44,547.87 c 0,-34.73 -0.02,-69.45 0,-104.18 6.51,-0.01 13.03,0 19.54,0 10.57,16.38 21.11,32.78 31.66,49.18 10.58,-16.38 21.1,-32.79 31.67,-49.18 6.52,-0.01 13.04,0 19.56,0 0.01,34.73 0.01,69.46 0,104.18 -6.08,0.01 -12.16,0.01 -18.24,0 -0.01,-24.84 0,-49.68 -0.01,-74.52 -11.04,16.42 -21.98,32.91 -33.07,49.29 -11.18,-16.2 -21.88,-32.74 -32.92,-49.05 -0.02,24.76 0,49.52 0,74.28 -6.07,0.01 -12.13,0.01 -18.19,0 z"
       id="path19"
       inkscape:connector-curvature="0"
       style="opacity:1;fill:#f51c4e" />
    <path
       d="m 808.5,443.69 c 25.71,-0.01 51.41,0 77.12,0 0.01,5.52 0.01,11.04 0,16.56 -19.65,0.01 -39.29,-0.01 -58.93,0.01 0,8.91 0,17.82 0,26.74 17.42,0.01 34.83,-0.01 52.25,0 -0.01,5.52 0.01,11.04 -0.01,16.57 -17.41,-0.01 -34.82,-0.01 -52.24,0 -0.01,9.24 0,18.49 0,27.74 19.89,0.01 39.79,-0.01 59.68,0 0.01,5.52 0,11.04 0,16.56 -25.96,0.01 -51.91,0.01 -77.87,0 0,-34.72 0,-69.45 0,-104.18 z"
       id="path21"
       inkscape:connector-curvature="0"
       style="opacity:1;fill:#f51c4e" />
  </g>
</svg>
