<?xml version="1.0" encoding="UTF-8"?>
<!-- Created with Inkscape (http://www.inkscape.org/) -->
<svg id="svg2" width="600" height="233.2" version="1.1" xmlns="http://www.w3.org/2000/svg" xmlns:cc="http://creativecommons.org/ns#" xmlns:dc="http://purl.org/dc/elements/1.1/" xmlns:rdf="http://www.w3.org/1999/02/22-rdf-syntax-ns#">
 <metadata id="metadata6">
  <rdf:RDF>
   <cc:Work rdf:about="">
    <dc:format>image/svg+xml</dc:format>
    <dc:type rdf:resource="http://purl.org/dc/dcmitype/StillImage"/>
    <dc:title/>
   </cc:Work>
  </rdf:RDF>
 </metadata>
 <path id="path10" d="m89.848 49.758h32.288v45.906h-32.288v130.89h-60.154v-130.89h-29.693v-45.906h29.693v-49.745h60.154v49.745z" fill="#fff"/>
 <path id="path12" d="m188.75 77.858h-0.73696v-28.097h-56.531v176.79h60.154v-79.515c0-29.739 18.7-35.942 45.615-36.863v-60.554c-33.301 0.6448-43.527 18.639-48.501 28.235" fill="#fff"/>
 <path id="path14" d="m434.34 226.56h-57.283v-21.495h-0.73695c-12.406 25.901-37.186 28.097-52.539 28.097-12.405 0-41.592-2.9172-59.479-25.533-16.044-20.082-18.224-34.668-18.224-62.396v-95.467h60.554v86.347c0 13.864 0 40.502 32.503 40.502 17.487 0 34.637-13.956 34.637-46.075v-80.774h60.569v176.79z" fill="#fff"/>
 <path id="path16" d="m599.99 156.36c-0.62948-41.776-35.006-75.139-76.813-74.525-41.792 0.6295-75.139 35.021-74.525 76.797 0.62949 41.807 35.021 75.154 76.797 74.54 41.807-0.6295 75.17-35.021 74.54-76.813" fill="#d8e823"/>
 <path id="path18" d="m462.02 129.56v19.146h22.278v50.144h21.08v-50.067h19.591l19.115 50.052h19.361l26.377-69.274-22.308-0.015-13.741 37.447h-0.0307l-13.757-37.447-77.964 0.015z" fill="#282b38"/>
</svg>
