<?xml version="1.0" encoding="UTF-8" standalone="no"?>
<svg
   xmlns:dc="http://purl.org/dc/elements/1.1/"
   xmlns:cc="http://creativecommons.org/ns#"
   xmlns:rdf="http://www.w3.org/1999/02/22-rdf-syntax-ns#"
   xmlns:svg="http://www.w3.org/2000/svg"
   xmlns="http://www.w3.org/2000/svg"
   xmlns:sodipodi="http://sodipodi.sourceforge.net/DTD/sodipodi-0.dtd"
   xmlns:inkscape="http://www.inkscape.org/namespaces/inkscape"
   height="400.84"
   viewBox="0 0 600 400.8396"
   width="600"
   version="1.1"
   id="svg2"
   inkscape:version="0.91 r13725"
   sodipodi:docname="TV One.svg"
   inkscape:export-filename="C:\Users\Jasmeet\Downloads\tvone.default.png"
   inkscape:export-xdpi="599.94012"
   inkscape:export-ydpi="599.94012">
  <metadata
     id="metadata16">
    <rdf:RDF>
      <cc:Work
         rdf:about="">
        <dc:format>image/svg+xml</dc:format>
        <dc:type
           rdf:resource="http://purl.org/dc/dcmitype/StillImage" />
      </cc:Work>
    </rdf:RDF>
  </metadata>
  <defs
     id="defs14" />
  <sodipodi:namedview
     pagecolor="#ffffff"
     bordercolor="#666666"
     borderopacity="1"
     objecttolerance="10"
     gridtolerance="10"
     guidetolerance="10"
     inkscape:pageopacity="0"
     inkscape:pageshadow="2"
     inkscape:window-width="1920"
     inkscape:window-height="1017"
     id="namedview12"
     showgrid="false"
     inkscape:zoom="1.357645"
     inkscape:cx="271.34487"
     inkscape:cy="272.22898"
     inkscape:window-x="-8"
     inkscape:window-y="-8"
     inkscape:window-maximized="1"
     inkscape:current-layer="svg2" />
  <path
     style="fill:#f15e28"
     inkscape:connector-curvature="0"
     id="path6"
     d="m 399.58,0 c -85.72304,0.08997996 -161.89807,54.689048 -189.52,135.84 9.45039,-4.16885 19.66101,-6.33763 29.99,-6.37 41.36129,-0.002 74.89166,33.52871 74.89,74.89 0.002,41.36129 -33.52871,74.89166 -74.89,74.89 -9.14907,-0.0285 -18.21546,-1.73336 -26.75,-5.03 30.26108,76.40624 104.09943,126.59634 186.28,126.62 C 510.26891,400.84 600,311.10891 600,200.42 600,89.73109 510.26891,0 399.58,0 Z"
     sodipodi:nodetypes="cccccccsc" />
  <path
     style="fill:#f15e28"
     inkscape:connector-curvature="0"
     id="path8"
     d="m 240.05,150.54 a 53.82,53.82 0 0 0 -53.82,53.82 53.82,53.82 0 0 0 53.82,53.82 53.82,53.82 0 0 0 53.82,-53.82 53.82,53.82 0 0 0 -53.82,-53.82 z m 0,14.04 a 39.776,39.776 0 0 1 39.78,39.78 39.776,39.776 0 0 1 -39.78,39.78 39.776,39.776 0 0 1 -39.78,-39.78 39.776,39.776 0 0 1 39.78,-39.78 z" />
  <path
     style="fill:#e49e56"
     inkscape:connector-curvature="0"
     id="path10"
     d="m 0,158.1 0,23.33 29.783,0 0,71.17 29.204,0 0,-71.17 29.783,0 c 8.261,20.3 18.52,48.29 27.16,71.17 l 31.66,0 35.07,-94.5 -29.66,0 -20.95,68.01 -21.27,-68.01 z" />
  <path
     style="fill:#ffffff;fill-opacity:1"
     inkscape:connector-curvature="0"
     id="path6-9"
     d="m 329.27,155.3498 27.27,0 35.58,52.28 0,-52.28 27.53,0 0,94.5 -27.53,0 -35.39,-51.89 0,51.89 -27.46,0 z m 105.48,0 78.26,0 0,20.17 -48.99,0 0,15.03 45.44,0 0,19.27 -45.44,0 0,18.63 50.41,0 0,21.4 -79.68,0 z"
     sodipodi:nodetypes="cccccccccccccccccccccccc" />
</svg>
