<svg height="427.56265" viewBox="0 0 600 400.8396" width="640" xmlns="http://www.w3.org/2000/svg"><path d="m399.58 0c-85.72304.08997996-161.89807 54.689048-189.52 135.84 9.45039-4.16885 19.66101-6.33763 29.99-6.37 41.36129-.002 74.89166 33.52871 74.89 74.89.002 41.36129-33.52871 74.89166-74.89 74.89-9.14907-.0285-18.21546-1.73336-26.75-5.03 30.26108 76.40624 104.09943 126.59634 186.28 126.62 110.68891 0 200.42-89.73109 200.42-200.42s-89.73109-200.42-200.42-200.42z" fill="#f15e28"/><path d="m240.05 150.54c-29.72397 0-53.82 24.09603-53.82 53.82s24.09603 53.82 53.82 53.82 53.82-24.09603 53.82-53.82-24.09603-53.82-53.82-53.82z" fill="#f15e28"/><path d="m0 158.1v23.33h29.783v71.17h29.204v-71.17h29.783c8.261 20.3 18.52 48.29 27.16 71.17h31.66l35.07-94.5h-29.66l-20.95 68.01-21.27-68.01z" fill="#e49e56"/><path d="m329.27 155.3498h27.27l35.58 52.28v-52.28h27.53v94.5h-27.53l-35.39-51.89v51.89h-27.46zm105.48 0h78.26v20.17h-48.99v15.03h45.44v19.27h-45.44v18.63h50.41v21.4h-79.68z" fill="#fff"/><path d="m240.0496 164.57955c21.9708-.002 39.78221 17.8092 39.78 39.78.002 21.9708-17.8092 39.78221-39.78 39.78-21.9708.002-39.78221-17.8092-39.78-39.78-.002-21.9708 17.8092-39.78221 39.78-39.78z" fill="#fff"/></svg>