<?xml version="1.0" encoding="UTF-8" standalone="no"?>
<svg
   xmlns:dc="http://purl.org/dc/elements/1.1/"
   xmlns:cc="http://creativecommons.org/ns#"
   xmlns:rdf="http://www.w3.org/1999/02/22-rdf-syntax-ns#"
   xmlns:svg="http://www.w3.org/2000/svg"
   xmlns="http://www.w3.org/2000/svg"
   xmlns:sodipodi="http://sodipodi.sourceforge.net/DTD/sodipodi-0.dtd"
   xmlns:inkscape="http://www.inkscape.org/namespaces/inkscape"
   height="427.56265"
   viewBox="0 0 600 400.8396"
   width="640"
   version="1.1"
   id="svg2"
   inkscape:version="0.92.0 r15299"
   sodipodi:docname="TV One.svg"
   inkscape:export-filename="C:\Users\Jasmeet\Downloads\tvone.default.png"
   inkscape:export-xdpi="599.94012"
   inkscape:export-ydpi="599.94012">
  <metadata
     id="metadata16">
    <rdf:RDF>
      <cc:Work
         rdf:about="">
        <dc:format>image/svg+xml</dc:format>
        <dc:type
           rdf:resource="http://purl.org/dc/dcmitype/StillImage" />
      </cc:Work>
    </rdf:RDF>
  </metadata>
  <defs
     id="defs14" />
  <sodipodi:namedview
     pagecolor="#ffffff"
     bordercolor="#666666"
     borderopacity="1"
     objecttolerance="10"
     gridtolerance="10"
     guidetolerance="10"
     inkscape:pageopacity="0"
     inkscape:pageshadow="2"
     inkscape:window-width="1920"
     inkscape:window-height="1017"
     id="namedview12"
     showgrid="false"
     inkscape:zoom="1.357645"
     inkscape:cx="151.65231"
     inkscape:cy="272.22898"
     inkscape:window-x="-8"
     inkscape:window-y="-8"
     inkscape:window-maximized="1"
     inkscape:current-layer="svg2" />
  <path
     style="fill:#f15e28"
     inkscape:connector-curvature="0"
     id="path6"
     d="m 399.58,0 c -85.72304,0.08997996 -161.89807,54.689048 -189.52,135.84 9.45039,-4.16885 19.66101,-6.33763 29.99,-6.37 41.36129,-0.002 74.89166,33.52871 74.89,74.89 0.002,41.36129 -33.52871,74.89166 -74.89,74.89 -9.14907,-0.0285 -18.21546,-1.73336 -26.75,-5.03 30.26108,76.40624 104.09943,126.59634 186.28,126.62 C 510.26891,400.84 600,311.10891 600,200.42 600,89.73109 510.26891,0 399.58,0 Z"
     sodipodi:nodetypes="cccccccsc" />
  <path
     style="fill:#f15e28"
     inkscape:connector-curvature="0"
     id="path8"
     d="m 240.05,150.54 c -29.72397,0 -53.82,24.09603 -53.82,53.82 0,29.72397 24.09603,53.82 53.82,53.82 29.72397,0 53.82,-24.09603 53.82,-53.82 0,-29.72397 -24.09603,-53.82 -53.82,-53.82 z"
     sodipodi:nodetypes="sssss" />
  <path
     style="fill:#e49e56"
     inkscape:connector-curvature="0"
     id="path10"
     d="m 0,158.1 v 23.33 H 29.783 V 252.6 H 58.987 V 181.43 H 88.77 c 8.261,20.3 18.52,48.29 27.16,71.17 h 31.66 l 35.07,-94.5 H 153 l -20.95,68.01 -21.27,-68.01 z" />
  <path
     style="fill:#ffffff;fill-opacity:1"
     inkscape:connector-curvature="0"
     id="path6-9"
     d="m 329.27,155.3498 h 27.27 l 35.58,52.28 v -52.28 h 27.53 v 94.5 h -27.53 l -35.39,-51.89 v 51.89 h -27.46 z m 105.48,0 h 78.26 v 20.17 h -48.99 v 15.03 h 45.44 v 19.27 h -45.44 v 18.63 h 50.41 v 21.4 h -79.68 z"
     sodipodi:nodetypes="cccccccccccccccccccccccc" />
  <path
     style="fill:#ffffff;stroke-width:1;fill-opacity:1"
     inkscape:connector-curvature="0"
     id="path8-0"
     d="m 240.0496,164.57955 c 21.9708,-0.002 39.78221,17.8092 39.78,39.78 0.002,21.9708 -17.8092,39.78221 -39.78,39.78 -21.9708,0.002 -39.78221,-17.8092 -39.78,-39.78 -0.002,-21.9708 17.8092,-39.78221 39.78,-39.78 z"
     sodipodi:nodetypes="ccccc" />
</svg>
