<?xml version="1.0" encoding="UTF-8" standalone="no"?>
<svg
   xmlns:dc="http://purl.org/dc/elements/1.1/"
   xmlns:cc="http://creativecommons.org/ns#"
   xmlns:rdf="http://www.w3.org/1999/02/22-rdf-syntax-ns#"
   xmlns:svg="http://www.w3.org/2000/svg"
   xmlns="http://www.w3.org/2000/svg"
   xmlns:sodipodi="http://sodipodi.sourceforge.net/DTD/sodipodi-0.dtd"
   xmlns:inkscape="http://www.inkscape.org/namespaces/inkscape"
   width="499.19156pt"
   height="536.52112pt"
   viewBox="0 0 499.19156 536.52112"
   version="1.1"
   id="svg9"
   sodipodi:docname="TV3 Plus 1.svg"
   inkscape:version="0.92.0 r15299">
  <metadata
     id="metadata15">
    <rdf:RDF>
      <cc:Work
         rdf:about="">
        <dc:format>image/svg+xml</dc:format>
        <dc:type
           rdf:resource="http://purl.org/dc/dcmitype/StillImage" />
        <dc:title />
      </cc:Work>
    </rdf:RDF>
  </metadata>
  <defs
     id="defs13" />
  <sodipodi:namedview
     pagecolor="#ffffff"
     bordercolor="#666666"
     borderopacity="1"
     objecttolerance="10"
     gridtolerance="10"
     guidetolerance="10"
     inkscape:pageopacity="0"
     inkscape:pageshadow="2"
     inkscape:window-width="1920"
     inkscape:window-height="1017"
     id="namedview11"
     showgrid="false"
     fit-margin-top="0"
     fit-margin-left="0"
     fit-margin-right="0"
     fit-margin-bottom="0"
     inkscape:zoom="0.6675088"
     inkscape:cx="-72.316953"
     inkscape:cy="442.60442"
     inkscape:window-x="-8"
     inkscape:window-y="-8"
     inkscape:window-maximized="1"
     inkscape:current-layer="svg9" />
  <g
     id="#000000ff"
     style="fill:#9066c6;fill-opacity:1"
     transform="translate(-125.31843,-106.49086)">
    <path
       d="m 219.7,123.65 c 38.11,-14.95 79.75,-19.07 120.38,-16.4 35.9,2.39 71.9,10.66 103.66,27.98 22.78,12.42 43.28,29.7 57.54,51.53 10.87,16.67 18.11,36.16 18.31,56.22 0.03,19.47 -3.07,39.31 -11.77,56.89 -7.34,15.03 -18.83,27.86 -32.54,37.37 -17.64,12.31 -38.3,19.54 -59.18,24.08 31.65,7.3 63.47,20.36 85.89,44.67 18.52,19.79 27.73,47.15 27.24,74.06 0.64,34.56 -10.36,69.74 -33.07,96.12 -20.87,24.67 -49.68,41.47 -79.97,51.92 -44.88,15.44 -93.53,18.26 -140.32,11.39 -34.06,-5.1 -67.66,-15.85 -96.88,-34.35 -21.1,-13.35 -39.73,-31.02 -52.73,-52.44 -1.89,-2.96 -0.86,-7.39 2.42,-8.91 31.52,-18.21 63.06,-36.41 94.59,-54.6 2.6,-1.72 6.25,-1.23 8.26,1.17 8.58,8.86 18.89,15.98 30.12,21.05 19.41,8.82 41.53,10.99 62.44,7.28 14.53,-2.63 29.05,-9.42 37.85,-21.67 8.6,-11.6 10.59,-27.15 7.03,-40.95 -2.85,-11.71 -11.06,-21.65 -21.47,-27.51 -15.25,-8.8 -33.19,-10.81 -50.46,-11.57 -8.37,-0.45 -16.74,-0.42 -25.11,-0.48 -2.69,0.09 -5.25,-1.82 -5.93,-4.41 -0.36,-2.34 -0.23,-4.72 -0.23,-7.07 0.04,-26.03 -0.04,-52.07 0.04,-78.1 -0.14,-3.28 2.83,-6.22 6.11,-6.04 14.32,0.01 28.7,-0.32 42.87,-2.53 13.66,-2.17 27.78,-6.78 37.49,-17.1 9.31,-9.83 12.39,-24.11 11.17,-37.28 -0.96,-9.96 -6.16,-19.28 -13.83,-25.65 -10.8,-8.98 -24.79,-13.59 -38.68,-14.53 -20.85,-0.61 -43.16,2.09 -60.38,14.86 -3.31,2.3 -6.07,5.25 -9.08,7.91 -2,1.69 -5.02,1.49 -7.14,0.14 -30.26,-17.42 -60.47,-34.92 -90.74,-52.33 -2.39,-1.42 -5.5,-2.7 -6.11,-5.75 -0.89,-3.13 1.44,-5.74 3.19,-8.03 20.26,-25.98 48.53,-44.96 79.02,-56.94 z"
       id="path2"
       style="opacity:1;fill:#9066c6;fill-opacity:1"
       inkscape:connector-curvature="0" />
    <path
       d="m 612.59,109.26 c 3.96,-0.07 7.93,-0.04 11.91,-0.04 0.01,22.14 -0.01,44.28 0.01,66.42 -5.27,0.02 -10.54,0.03 -15.8,-0.01 0.03,-16.11 -0.03,-32.22 0.03,-48.33 -4.42,1.94 -9.29,1.93 -14.01,2.04 -0.02,-3.4 -0.02,-6.79 -0.01,-10.18 7.07,-0.14 15.05,-2.79 17.87,-9.9 z"
       id="path4"
       style="opacity:1;fill:#9066c6;fill-opacity:1"
       inkscape:connector-curvature="0" />
    <path
       d="m 551.75,118.53 c 4.15,-0.01 8.31,-0.01 12.46,0 0.01,7.44 0,14.87 0.01,22.31 7.4,0.01 14.81,0 22.21,0.01 0.01,4.15 0.01,8.3 0,12.46 -7.4,0.01 -14.8,0 -22.21,0.01 -0.01,7.44 0.01,14.89 -0.01,22.34 -4.15,-0.01 -8.3,0 -12.45,-0.01 -0.03,-7.44 0,-14.89 -0.02,-22.34 -7.46,0.01 -14.92,-0.03 -22.37,0.03 -0.09,-4.16 -0.05,-8.33 -0.06,-12.49 7.48,-0.02 14.96,0 22.44,-0.01 0,-7.44 -0.01,-14.87 0,-22.31 z"
       id="path6"
       style="opacity:1;fill:#9066c6;fill-opacity:1"
       inkscape:connector-curvature="0" />
  </g>
</svg>
