<svg height="536.53656pt" viewBox="0 0 404.03787 536.53656" width="404.03787pt" xmlns="http://www.w3.org/2000/svg"><path d="m97.359719 16.027815c39.220001-14.7299998 81.920001-18.2399998 123.450001-14.8199998 36.58 3.11 73.19 12.5699998 104.82 31.6399998 24.7 14.89 46.3 36.02 58.71 62.31 6.5 13.790005 10.36 28.990005 9.98 44.300005-.32 19.14-3.74 38.6-12.67 55.69-7.65 14.89-19.42 27.47-33.31 36.74-17.27 11.63-37.27 18.52-57.5 22.95 30.81 7.1 61.68 19.63 84.04 42.7 15.53 15.87 25.32 36.98 28.06 58.96 2.4 20.4.86 41.31-4.56 61.13-7.56 27.99-24.55 53.06-47.06 71.22-29.47 23.94-66.24 37.3-103.35 43.6-42.3 7-86.06 4.93-127.61-5.58-33.910001-8.8-66.720001-24.19-92.610001-48.14-10.28-9.54-19.3700002-20.41-26.6800002-32.39-2.17-3.03-.89000003-7.63 2.5-9.15 31.4900002-18.17 62.9800002-36.36 94.4800002-54.52 2.440001-1.6 5.930001-1.29 7.910001.9 12.15 12.6 27.74 21.77 44.58 26.49 16.3 4.53 33.69 5.04 50.26 1.73 14.36-2.91 28.56-10.16 36.83-22.64 9.61-14.22 10.16-33.67 2.52-48.87-6.43-12.63-19.31-20.53-32.52-24.53-19.89-6.01-40.95-5.43-61.51-5.77-3.24-.1-5.87-3.23-5.6-6.43-.01-27.68-.03-55.36.01-83.04-.18-3.4 2.97-6.41 6.36-6.14 15.04.04 30.16-.36 45.02-2.91 12.88-2.32 26.06-7 35.19-16.79 9.23-9.8 12.29-23.98 11.1-37.08-.97-10.4-6.57-20.07-14.74-26.5-10.63-8.43-24.12-12.82-37.56-13.78-18.04-.49-36.87 1.26-52.99 10.01-5.94 3.17-11.27 7.38-15.98 12.16-1.97 2.15-5.41 2.32-7.79.77-30.430001-17.52-60.820001-35.12-91.260001-52.630005-2.19-1.29-4.93-2.5-5.59-5.22-1.15-3.49 1.66-6.33 3.57-8.87 20.89-26.52 50.1-45.67 81.5-57.5z" fill="#5c368d"/></svg>