<?xml version="1.0" encoding="UTF-8" standalone="no"?>
<svg
   xmlns:dc="http://purl.org/dc/elements/1.1/"
   xmlns:cc="http://creativecommons.org/ns#"
   xmlns:rdf="http://www.w3.org/1999/02/22-rdf-syntax-ns#"
   xmlns:svg="http://www.w3.org/2000/svg"
   xmlns="http://www.w3.org/2000/svg"
   xmlns:sodipodi="http://sodipodi.sourceforge.net/DTD/sodipodi-0.dtd"
   xmlns:inkscape="http://www.inkscape.org/namespaces/inkscape"
   width="404.03787pt"
   height="536.53656pt"
   viewBox="0 0 404.03787 536.53656"
   version="1.1"
   id="svg9"
   sodipodi:docname="TV3.svg"
   inkscape:version="0.92.0 r15299">
  <metadata
     id="metadata15">
    <rdf:RDF>
      <cc:Work
         rdf:about="">
        <dc:format>image/svg+xml</dc:format>
        <dc:type
           rdf:resource="http://purl.org/dc/dcmitype/StillImage" />
        <dc:title />
      </cc:Work>
    </rdf:RDF>
  </metadata>
  <defs
     id="defs13" />
  <sodipodi:namedview
     pagecolor="#ffffff"
     bordercolor="#666666"
     borderopacity="1"
     objecttolerance="10"
     gridtolerance="10"
     guidetolerance="10"
     inkscape:pageopacity="0"
     inkscape:pageshadow="2"
     inkscape:window-width="1920"
     inkscape:window-height="1017"
     id="namedview11"
     showgrid="false"
     fit-margin-top="0"
     fit-margin-left="0"
     fit-margin-right="0"
     fit-margin-bottom="0"
     inkscape:zoom="0.6675088"
     inkscape:cx="-332.58597"
     inkscape:cy="349.201"
     inkscape:window-x="-8"
     inkscape:window-y="-8"
     inkscape:window-maximized="1"
     inkscape:current-layer="svg9"
     units="mm" />
  <path
     inkscape:connector-curvature="0"
     style="opacity:1;fill:#9066c6;fill-opacity:1"
     id="path4"
     d="M 97.359719,16.027815 C 136.57972,1.2978152 179.27972,-2.2121848 220.80972,1.2078152 c 36.58,3.11 73.19,12.5699998 104.82,31.6399998 24.7,14.89 46.3,36.02 58.71,62.31 6.5,13.790005 10.36,28.990005 9.98,44.300005 -0.32,19.14 -3.74,38.6 -12.67,55.69 -7.65,14.89 -19.42,27.47 -33.31,36.74 -17.27,11.63 -37.27,18.52 -57.5,22.95 30.81,7.1 61.68,19.63 84.04,42.7 15.53,15.87 25.32,36.98 28.06,58.96 2.4,20.4 0.86,41.31 -4.56,61.13 -7.56,27.99 -24.55,53.06 -47.06,71.22 -29.47,23.94 -66.24,37.3 -103.35,43.6 -42.3,7 -86.06,4.93 -127.61,-5.58 -33.910001,-8.8 -66.720001,-24.19 -92.610001,-48.14 -10.28,-9.54 -19.3700002,-20.41 -26.6800002,-32.39 -2.17,-3.03 -0.89000003,-7.63 2.5,-9.15 31.4900002,-18.17 62.9800002,-36.36 94.4800002,-54.52 2.440001,-1.6 5.930001,-1.29 7.910001,0.9 12.15,12.6 27.74,21.77 44.58,26.49 16.3,4.53 33.69,5.04 50.26,1.73 14.36,-2.91 28.56,-10.16 36.83,-22.64 9.61,-14.22 10.16,-33.67 2.52,-48.87 -6.43,-12.63 -19.31,-20.53 -32.52,-24.53 -19.89,-6.01 -40.95,-5.43 -61.51,-5.77 -3.24,-0.1 -5.87,-3.23 -5.6,-6.43 -0.01,-27.68 -0.03,-55.36 0.01,-83.04 -0.18,-3.4 2.97,-6.41 6.36,-6.14 15.04,0.04 30.16,-0.36 45.02,-2.91 12.88,-2.32 26.06,-7 35.19,-16.79 9.23,-9.8 12.29,-23.98 11.1,-37.08 -0.97,-10.4 -6.57,-20.07 -14.74,-26.5 -10.63,-8.43 -24.12,-12.82 -37.56,-13.78 -18.04,-0.49 -36.87,1.26 -52.99,10.01 -5.94,3.17 -11.27,7.38 -15.98,12.16 -1.97,2.15 -5.41,2.32 -7.79,0.77 -30.430001,-17.52 -60.820001,-35.12 -91.260001,-52.630005 -2.19,-1.29 -4.93,-2.5 -5.59,-5.22 -1.15,-3.49 1.66,-6.33 3.57,-8.87 20.89,-26.52 50.1,-45.67 81.5,-57.5 z" />
</svg>
