<svg id="c" width="724.81pt" height="266.36pt" version="1.1" viewBox="0 0 724.81 266.36" xmlns="http://www.w3.org/2000/svg">
 <defs id="d">
  <linearGradient id="b" x1="47.74" x2="628.12" y1="175.96" y2="175.96" gradientTransform="translate(-47.74 -42.779)" gradientUnits="userSpaceOnUse">
   <stop id="e" stop-color="#4321bf" offset="0"/>
   <stop id="f" stop-color="#3f2ac0" offset=".21444"/>
   <stop id="g" stop-color="#3434c4" offset=".3934"/>
   <stop id="h" stop-color="#313dc3" offset=".46686"/>
   <stop id="i" stop-color="#0047de" offset="1"/>
  </linearGradient>
  <linearGradient id="a" x1="475.94" x2="772.55" y1="199.42" y2="199.42" gradientTransform="translate(-47.74 -42.779)" gradientUnits="userSpaceOnUse">
   <stop id="j" stop-color="#186dea" offset="0"/>
   <stop id="k" stop-color="#ff2bae" offset="1"/>
  </linearGradient>
 </defs>
 <path id="l" d="m410.67 8.4612c14.71-4.88 30.1-7.85 45.61-8.39 26.94-0.86 54.13 6.09 77.3 19.88 18.02 10.89 34.14 25.03 46.8 41.89-24.09-18.93-52.97-33.98-84.15-34.98-19.57-0.95-39.17 3.86-56.56 12.74-15.96 8.3-30.62 19.02-43.56 31.5-18.93 17.67-34.61 38.41-49.61 59.41-16.15 23.73-31.39 48.06-46.75 72.3-13.71 21.01-27.14 42.33-40.49 63.55h-71.81l-23.23-134.23 36.46-19.52h-67.618l-33.702 153.75h-66l33.73-153.75h-67.09l11.12-50.38h209.48l15.93 116.09c17.01-23.04 32.21-47.38 49.56-70.17 17.93-23.78 38.38-45.76 61.67-64.39 19.1-14.7 39.93-27.61 62.91-35.3" fill="url(#b)"/>
 <path id="m" d="m453.44 68.481c14.96-13.28 34.75-21.48 54.85-21.4 22.4-0.84 44.77 8.36 60.74 23.97l-26.42 44.31c-2.86-6.99-7.34-13.67-14.03-17.49-11.05-7.45-26.44-7.17-37.54 0.06-6.26 3.71-10.77 9.82-13.49 16.49-3.48 9.18-1.92 19.89 3.48 28 3.88 5.47 9.12 10.07 15.4 12.57 12.84 5.49 28.83 2.24 38.5-7.85 3.84-3.86 6.03-8.93 9.05-13.38 10.01-16.92 20.51-33.56 30.45-50.53 5.46-9.72 14.2-17.13 23.38-23.22 13.23-8.28 28.77-13.18 44.44-12.96 17.96-0.65 35.78 5.54 50.38 15.82 12.39 8.75 22.02 21.28 27.38 35.47 6.02 16.36 6.53 34.88 0.65 51.35-2.49 7.53-6.62 14.36-10.7 21.1-11.12 18.57-22.69 36.87-33.56 55.58-8.1 13.33-16.33 26.5-24.32 39.9h-54.96c12.43-21.28 25.75-42.03 38.09-63.36-17.86-1.8-35.15-9.2598-48.52-21.25-0.84939-0.77642-1.7488-1.601-2.4125-2.3325l26.282-44.528c3.82 10.68 13.11 19.34 24.24 21.85 10.16 2.31 21.48 0.2 29.68-6.38 7.69-5.84 12.7-15.29 12.59-25.02 0.43-14.94-11.33-28.7-25.72-31.84-11.02-2.71-23.43 0.3-31.71 8.13-3.81 3.33-6.33 7.78-8.91 12.06-30.86 50.8-61.49 101.95-92.38 152.67h-54.39c12.5-21.23 25.51-42.16 38.13-63.32-14.22-1.54-28.07-6.51-39.92-14.55-16.03-10.63-27.62-27.6-32.09-46.27-2.35-9.15-2.17-18.69-1.2-28.01 2.79-17.38 11.53-33.78 24.56-45.64" fill="url(#a)"/>
 <path id="n" transform="scale(.75)" d="m491.72 46.281c-7.3465 4.2604-20.889 14.603-30.256 22.475-6.0145 5.2797-12.66 10.703-17.894 15.698-9.8269 8.9723-19.308 19.179-27.684 28.223-3.6615 3.9631-7.1968 7.9788-10.618 12.378-28.093 33.067-50.921 70.066-76.107 105.27l-1.178 1.6827 0.4436 4.3583 25.615-36.68c5.665-8.5192 12.011-17.589 18.133-26.121 30.387-44.347 76.666-94.506 119.55-127.28z" fill="#b4acce" fill-opacity=".96078" stroke-width="1.3333"/>
 <path id="o" d="m435.17 107.06c5.24-18.72 17.76-35.63 34.99-44.9-4.14 3.54-8.42 6.95-12.06 11.03-7.5426 7.7771-13.371 17.357-16.556 27.663l-0.35441 1.1468c-2.645 8.5588-3.4554 17.384-3.5135 26.22-0.0257 3.9079 0.4432 7.5891 1.2347 11.115 1.2886 5.7412 3.0423 11.38 5.3588 16.795 3.8762 8.9931 9.7372 17.027 16.736 23.848 2.4269 2.4216 5.2055 4.8201 7.8508 6.4859 1.2117 0.75957 2.447 1.4861 3.6528 2.2463-12.14-5.16-21.49-15.24-28.74-26.01-3.69-5.04-5.29-11.15-7.82-16.77-3.73-12.57-4.14-26.17-0.78-38.87z" fill="#c8c6e0"/>
 <path id="p" d="m535.24 96.931c5.5976 1.5168 7.0149 4.1089 9.1789 6.7455l-1.0889 1.5645c-2.224-2.7689-4.7-6.24-8.09-8.31z" fill="#bcb1db"/>
 <path id="q" d="m584.29 77.704c5.3913-6.2049 12.16-11.257 19.01-15.723-4.6172 4.0325-9.4014 8.0722-13.51 12.667-3.1411 3.512-5.293 7.1306-7.3994 10.626l-34.541 57.308c-3.04 5.02-8.11 8.12-12.86 11.29 3.4747-3.6216 5.97-6.1928 8.01-9.13l33.452-55.275c2.4286-4.2009 5.0946-8.578 7.8381-11.762z" fill="#dbc6ee"/>
 <path id="r" d="m15.18 67.09h4.03l-9.7938 40.781h-3.7z" fill="#b6adcd" fill-opacity=".94118"/>
 <path id="s" d="m669.12 96.991c1.9855 1.0602 3.883 2.3229 5.6418 3.7601 5.4074 4.4188 9.0667 10.585 10.808 17.4 2.3001 9.0009-0.40886 18.415-5.58 25.77-1.7994 2.5592-4.1053 4.5812-6.6155 6.3867-1.8072 1.2998-3.6946 2.505-5.4945 3.7733 1.6941-1.5578 3.3638-3.1767 4.9091-4.8975 2.6508-2.9518 4.727-6.2892 6.3509-9.9625 3.5649-8.0638 3.5486-17.171 1.26-25.43-1.2719-4.5897-4.0512-8.5942-7.0202-12.267-1.2994-1.6074-2.7194-3.1235-4.2598-4.533z" fill="#eccae6"/>
 <path id="t" d="m72.34 112.61h4.11l-32.91 149.25h-3.93z" fill="#b4acce" fill-opacity=".96078"/>
 <path id="u" d="m173.03 132.66 22.712 129.13-3.81 0.07-22.511-127.44z" fill="#b4acce" fill-opacity=".96078"/>
 <path id="v" d="m610.14 145.13c0.95179 1.3552 1.4079 1.7191 1.987 2.3288l-18.797 30.771c2.32 4.49 7.01 7.11 11.06 9.86-5.07-2.6-10.18-5.58-13.98-9.89z" fill="#e1c3e3"/>
 <path id="w" d="m472.26 261.86 35.516-58.83c1.4995 0.28619 2.354 0.0886 3.3538 0l-35.42 58.83z" fill="#cec9e7"/>
 <path id="x" d="m605.56 261.86 35.516-58.83c1.4995 0.28619 2.354 0.0886 3.3538 0l-35.42 58.83z" fill="#e3c2e4"/>
</svg>
