<?xml version="1.0" encoding="UTF-8" standalone="no"?>
<svg
   xmlns:dc="http://purl.org/dc/elements/1.1/"
   xmlns:cc="http://creativecommons.org/ns#"
   xmlns:rdf="http://www.w3.org/1999/02/22-rdf-syntax-ns#"
   xmlns:svg="http://www.w3.org/2000/svg"
   xmlns="http://www.w3.org/2000/svg"
   xmlns:xlink="http://www.w3.org/1999/xlink"
   xmlns:sodipodi="http://sodipodi.sourceforge.net/DTD/sodipodi-0.dtd"
   xmlns:inkscape="http://www.inkscape.org/namespaces/inkscape"
   width="724.80804pt"
   height="266.36093pt"
   viewBox="0 0 724.80804 266.36093"
   version="1.1"
   id="svg24"
   sodipodi:docname="TV99 - Dark.svg"
   inkscape:version="0.92.0 r15299">
  <metadata
     id="metadata30">
    <rdf:RDF>
      <cc:Work
         rdf:about="">
        <dc:format>image/svg+xml</dc:format>
        <dc:type
           rdf:resource="http://purl.org/dc/dcmitype/StillImage" />
        <dc:title></dc:title>
      </cc:Work>
    </rdf:RDF>
  </metadata>
  <defs
     id="defs28">
    <linearGradient
       inkscape:collect="always"
       id="linearGradient4520">
      <stop
         style="stop-color:#0d4290;stop-opacity:1"
         offset="0"
         id="stop4516" />
      <stop
         style="stop-color:#c5007a;stop-opacity:1"
         offset="1"
         id="stop4518" />
    </linearGradient>
    <linearGradient
       inkscape:collect="always"
       id="linearGradient4512">
      <stop
         style="stop-color:#251269;stop-opacity:1;"
         offset="0"
         id="stop4508" />
      <stop
         id="stop4541"
         offset="0.21443728"
         style="stop-color:#24186d;stop-opacity:1" />
      <stop
         id="stop4537"
         offset="0.39339665"
         style="stop-color:#1f1f75;stop-opacity:1" />
      <stop
         style="stop-color:#1d2473;stop-opacity:1"
         offset="0.46686417"
         id="stop4539" />
      <stop
         style="stop-color:#00277a;stop-opacity:1"
         offset="1"
         id="stop4510" />
    </linearGradient>
    <linearGradient
       inkscape:collect="always"
       xlink:href="#linearGradient4512"
       id="linearGradient4514"
       x1="47.74"
       y1="175.95929"
       x2="628.12"
       y2="175.95929"
       gradientUnits="userSpaceOnUse"
       gradientTransform="translate(-47.74,-42.778813)" />
    <linearGradient
       inkscape:collect="always"
       xlink:href="#linearGradient4520"
       id="linearGradient4522"
       x1="475.94478"
       y1="199.41657"
       x2="772.54809"
       y2="199.41657"
       gradientUnits="userSpaceOnUse"
       gradientTransform="translate(-47.74,-42.778813)" />
  </defs>
  <sodipodi:namedview
     pagecolor="#ffffff"
     bordercolor="#666666"
     borderopacity="1"
     objecttolerance="10"
     gridtolerance="10"
     guidetolerance="10"
     inkscape:pageopacity="0"
     inkscape:pageshadow="2"
     inkscape:window-width="1920"
     inkscape:window-height="1017"
     id="namedview26"
     showgrid="false"
     fit-margin-top="0"
     fit-margin-left="0"
     fit-margin-right="0"
     fit-margin-bottom="0"
     inkscape:zoom="2"
     inkscape:cx="612.83993"
     inkscape:cy="145.53394"
     inkscape:window-x="-8"
     inkscape:window-y="-8"
     inkscape:window-maximized="1"
     inkscape:current-layer="svg24" />
  <path
     sodipodi:nodetypes="cccccccccccccccccccccccc"
     style="opacity:1;fill:url(#linearGradient4514);fill-opacity:1"
     inkscape:connector-curvature="0"
     id="path19"
     d="m 410.67,8.461187 c 14.71,-4.88 30.1,-7.85 45.61,-8.39 26.94,-0.86 54.13,6.09 77.3,19.88 18.02,10.89 34.14,25.03 46.8,41.89 -24.09,-18.93 -52.97,-33.98 -84.15,-34.98 -19.57,-0.95 -39.17,3.86 -56.56,12.74 -15.96,8.3 -30.62,19.02 -43.56,31.5 -18.93,17.67 -34.61,38.410003 -49.61,59.410003 -16.15,23.73 -31.39,48.06 -46.75,72.3 -13.71,21.01 -27.14,42.32976 -40.49,63.54976 H 187.45 L 164.22,132.13119 200.68,112.61094 H 133.0625 L 99.36,266.36095 h -66 l 33.73,-153.75001 -67.09,0 11.12,-50.379753 H 220.6 l 15.93,116.090003 c 17.01,-23.04 32.21,-47.38 49.56,-70.17 17.93,-23.780003 38.38,-45.760003 61.67,-64.390003 19.1,-14.7 39.93,-27.61 62.91,-35.3" />
  <g
     id="g4535">
    <path
       d="m 453.44,68.481187 c 14.96,-13.28 34.75,-21.48 54.85,-21.4 22.4,-0.84 44.77,8.36 60.74,23.97 l -26.42,44.310003 c -2.86,-6.99 -7.34,-13.67 -14.03,-17.490003 -11.05,-7.45 -26.44,-7.17 -37.54,0.06 -6.26,3.710003 -10.77,9.820003 -13.49,16.490003 -3.48,9.18 -1.92,19.89 3.48,28 3.88,5.47 9.12,10.07 15.4,12.57 12.84,5.49 28.83,2.24 38.5,-7.85 3.84,-3.86 6.03,-8.93 9.05,-13.38 10.01,-16.92 20.51,-33.56 30.45,-50.530003 5.46,-9.72 14.2,-17.13 23.38,-23.22 13.23,-8.28 28.77,-13.18 44.44,-12.96 17.96,-0.65 35.78,5.54 50.38,15.82 12.39,8.75 22.02,21.28 27.38,35.47 6.02,16.360003 6.53,34.880003 0.65,51.350003 -2.49,7.53 -6.62,14.36 -10.7,21.1 -11.12,18.57 -22.69,36.87 -33.56,55.58 -8.1,13.33 -16.33,26.49976 -24.32,39.89976 h -54.96 c 12.43,-21.28 25.75,-42.03001 38.09,-63.36001 -17.86,-1.8 -35.15,-9.25975 -48.52,-21.24975 -0.84939,-0.77642 -1.74879,-1.60104 -2.41249,-2.3325 L 610.56,134.80119 c 3.82,10.68 13.11,19.34 24.24,21.85 10.16,2.31 21.48,0.2 29.68,-6.38 7.69,-5.84 12.7,-15.29 12.59,-25.02 0.43,-14.94 -11.33,-28.700003 -25.72,-31.840003 -11.02,-2.71 -23.43,0.3 -31.71,8.130003 -3.81,3.33 -6.33,7.78 -8.91,12.06 -30.86,50.8 -61.49,101.94976 -92.38,152.66976 h -54.39 c 12.5,-21.23 25.51,-42.15976 38.13,-63.31976 -14.22,-1.54 -28.07,-6.51 -39.92,-14.55 -16.03,-10.63 -27.62,-27.6 -32.09,-46.27 -2.35,-9.15 -2.17,-18.69 -1.2,-28.01 2.79,-17.380003 11.53,-33.780003 24.56,-45.640003"
       id="path21"
       inkscape:connector-curvature="0"
       style="opacity:1;fill:url(#linearGradient4522);fill-opacity:1"
       sodipodi:nodetypes="cccccccccccccccccccccccccccccccccccccc" />
  </g>
  <path
     style="opacity:1;fill:#7e6ea8;fill-opacity:0.94117647;stroke-width:1.33333325"
     d="m 491.72,46.280919 c -7.34654,4.260379 -20.8886,14.602555 -30.25622,22.474736 -6.01453,5.279707 -12.65974,10.702889 -17.89379,15.698124 -9.82694,8.972275 -19.30805,19.179341 -27.68418,28.223161 -3.66149,3.96314 -7.1968,7.97877 -10.61823,12.37775 -28.09332,33.06665 -50.92076,70.06562 -76.10742,105.26562 l -1.17798,1.68274 0.4436,4.35828 25.61524,-36.67969 c 5.665,-8.51915 12.01113,-17.58943 18.13281,-26.12109 C 402.5605,129.21389 448.84,79.054251 491.72,46.280919 Z"
     transform="scale(0.74999999)"
     id="path13"
     inkscape:connector-curvature="0"
     sodipodi:nodetypes="ccccccccccc" />
  <path
     style="opacity:1;fill:#8a85bd;fill-opacity:1;stroke-width:0.99999994"
     inkscape:connector-curvature="0"
     id="path16"
     d="m 435.17004,107.06069 c 5.24,-18.720001 17.76,-35.630001 34.99,-44.900001 -4.14,3.54 -8.42,6.95 -12.06,11.03 -7.54264,7.777123 -13.37064,17.356923 -16.55559,27.663161 l -0.35441,1.14684 c -2.64496,8.55885 -3.45537,17.38386 -3.51346,26.21959 -0.0257,3.90793 0.4432,7.58911 1.23466,11.11531 1.28861,5.74116 3.0423,11.37969 5.3588,16.7951 3.87618,8.99309 9.73725,17.02656 16.73639,23.84783 2.42693,2.42162 5.2055,4.82011 7.85083,6.48586 1.21168,0.75957 2.44696,1.48611 3.65278,2.2463 -12.14,-5.16 -21.49,-15.24 -28.74,-26.00999 -3.69,-5.04 -5.29,-11.15001 -7.82,-16.77 -3.73,-12.57 -4.14,-26.17001 -0.78,-38.87 z"
     sodipodi:nodetypes="cccssssccccccc" />
  <path
     style="opacity:1;fill:#826dbb;fill-opacity:1;stroke-width:0.99999994"
     inkscape:connector-curvature="0"
     id="path18"
     d="m 535.24004,96.930689 c 5.59755,1.516751 7.01493,4.108881 9.17886,6.745501 l -1.08886,1.5645 c -2.22395,-2.76887 -4.7,-6.240001 -8.09,-8.310001 z"
     sodipodi:nodetypes="cccc" />
  <path
     style="opacity:1;fill:#ab79d6;fill-opacity:1;stroke-width:0.99999994"
     inkscape:connector-curvature="0"
     id="path21-6"
     d="m 584.29,77.703686 c 5.39129,-6.204883 12.16008,-11.25709 19.01004,-15.722997 -4.61716,4.032479 -9.40145,8.072224 -13.50972,12.666728 -3.14107,3.512015 -5.29298,7.13064 -7.39943,10.625517 l -34.54086,57.307746 c -3.03999,5.02 -8.10999,8.12001 -12.85999,11.29 3.47468,-3.62156 5.97,-6.19281 8.01,-9.13 l 33.45189,-55.275091 c 2.42858,-4.200947 5.09459,-8.577969 7.83807,-11.761903 z"
     sodipodi:nodetypes="ccccccccc" />
  <path
     style="opacity:1;fill:#7e6ea8;fill-opacity:0.94117647;stroke-width:0.99999994"
     inkscape:connector-curvature="0"
     id="path26"
     d="m 15.180057,67.090438 h 4.03 L 9.416307,107.87094 H 5.7163065 Z"
     sodipodi:nodetypes="ccccc" />
  <path
     style="opacity:1;fill:#d27fc2;fill-opacity:1;stroke-width:0.99999994"
     inkscape:connector-curvature="0"
     id="path29"
     d="m 669.12003,96.990689 c 1.98549,1.060238 3.88304,2.32286 5.6418,3.760071 5.4074,4.41881 9.0667,10.58482 10.80821,17.39993 2.30008,9.00094 -0.40886,18.4154 -5.58,25.77 -1.79939,2.55917 -4.10528,4.58116 -6.61548,6.38666 -1.80715,1.29982 -3.69464,2.50504 -5.49453,3.77333 1.69409,-1.55782 3.36376,-3.17668 4.90912,-4.89752 2.6508,-2.95182 4.72697,-6.28915 6.35088,-9.96248 3.56487,-8.06384 3.54857,-17.17137 1.26,-25.43 -1.27187,-4.58971 -4.05116,-8.59424 -7.02019,-12.26695 -1.29945,-1.607433 -2.71939,-3.123527 -4.25981,-4.533041 z"
     sodipodi:nodetypes="csssscssssc" />
  <path
     style="opacity:1;fill:#7e6ea8;fill-opacity:0.94117647;stroke-width:0.99999994"
     inkscape:connector-curvature="0"
     id="path32"
     d="m 72.340057,112.61094 h 4.11 l -32.91,149.25 h -3.93 z"
     sodipodi:nodetypes="ccccc" />
  <path
     style="opacity:1;fill:#766fa9;fill-opacity:1;stroke-width:0.99999994"
     inkscape:connector-curvature="0"
     id="path35"
     d="m 173.02755,132.65844 22.7125,129.13249 -3.81,0.07 -22.51125,-127.44187 z"
     sodipodi:nodetypes="ccccc" />
  <path
     style="opacity:1;fill:#be7fc2;fill-opacity:1;stroke-width:0.99999994"
     inkscape:connector-curvature="0"
     id="path38"
     d="m 610.14004,145.13068 c 0.95179,1.35522 1.40788,1.71906 1.98695,2.32884 l -18.79696,30.77116 c 2.32001,4.49 7.01001,7.11 11.06001,9.86 -5.07,-2.6 -10.18,-5.58 -13.98,-9.89 z"
     sodipodi:nodetypes="cccccc" />
  <path
     style="opacity:1;fill:#8f84c7;fill-opacity:1;stroke-width:0.99999994"
     inkscape:connector-curvature="0"
     id="path23-5"
     d="m 472.26,261.86093 35.51623,-58.82999 c 1.49952,0.28619 2.35399,0.0886 3.35379,0 l -35.41999,58.82999 z"
     sodipodi:nodetypes="ccccc" />
  <path
     style="opacity:1;fill:#c37cc6;fill-opacity:1;stroke-width:0.99999994"
     inkscape:connector-curvature="0"
     id="path23-5-4"
     d="m 605.55974,261.86093 35.51623,-58.82998 c 1.49952,0.28619 2.35399,0.0886 3.35379,0 l -35.41999,58.82998 z"
     sodipodi:nodetypes="ccccc" />
</svg>
