<?xml version="1.0" encoding="UTF-8"?>
<svg id="svg2" width="1605.2pt" height="291pt" version="1.1" viewBox="0 0 1605.2 291" xmlns="http://www.w3.org/2000/svg" xmlns:cc="http://creativecommons.org/ns#" xmlns:dc="http://purl.org/dc/elements/1.1/" xmlns:rdf="http://www.w3.org/1999/02/22-rdf-syntax-ns#">
 <metadata id="metadata39">
  <rdf:RDF>
   <cc:Work rdf:about="">
    <dc:format>image/svg+xml</dc:format>
    <dc:type rdf:resource="http://purl.org/dc/dcmitype/StillImage"/>
    <dc:title/>
   </cc:Work>
  </rdf:RDF>
 </metadata>
 <path id="path16" d="m1362.5 0h0.59c-42.69 96.94-85 194.06-127.69 291h-74.15c23.19-34.24 47.15-67.97 70.27-102.26 10.81-15.81 21.83-31.48 32.85-47.15 23.33-33.09 46.04-66.61 69.11-99.89 9.73-13.85 19-28.05 29.02-41.7z" fill="#f5cc29"/>
 <path id="path18" d="m388.63 51.2c48.21 0.11 96.42-0.03 144.63 0.08-0.04 60.34-0.02 120.68-0.01 181.02-78.69-0.01-157.39 0.04-236.08-0.03 30.07-60.56 60.89-120.75 91.46-181.07" fill="#f5cc29"/>
 <path id="path20" d="m1569.5 58.65c2.04-0.56 4.19-0.35 6.31-0.38h29.4l0.02 171.85h-46.58l0.02-127.94-28.78 6.77-9.01-36.48c16.18-4.69 32.43-9.16 48.62-13.82z" fill="#f5cc29"/>
 <path id="path22" d="m1445.9 85.5 18.21-0.01 0.01 50.19h50.48l-0.02 17.52h-50.46l-0.01 50.2-18.21-0.01v-50.17l-50.46-0.02v-17.52l50.46-0.02z" fill="#f5cc29"/>
 <path id="path25" d="m0.023052 50.81c117.66-0.04 235.31-0.03 352.96 0-30.56 60.57-61.1 121.16-91.81 181.66-87.06-0.08-174.12 0.03-261.17-0.06 0.02-60.53-0.03-121.07 0.02-181.6"/>
 <path id="path27" d="m1043.8 81.1c16.47-1.55 33.39 3.59 46.08 14.26l-7.86 10.44c-9.28-7.75-21.08-12.97-33.31-12.71-7.44-0.28-15.44 1.7-20.76 7.19-5.17 5.01-6.2 13.33-3.28 19.76 2.05 4.46 6.45 7.17 10.77 9.12 12.71 5.66 27.12 6.05 39.64 12.26 7.58 3.48 14.6 9.39 17.02 17.65 2.78 9.96 1.16 21.51-5.66 29.52-5.44 6.61-13.48 10.6-21.75 12.32-21.31 4.21-44.06-2.93-59.77-17.78l8.35-9.8c9.03 8.18 20.04 14.81 32.37 16.13 9.89 1.29 21.27 0.52 28.82-6.76 5.3-4.92 6.32-12.96 4.29-19.62-2.06-5.73-7.74-8.9-13.08-11.02-11.85-4.59-24.84-5.39-36.45-10.69-7.25-3.11-14.28-8.13-17.33-15.68-3.84-9.79-2.89-21.65 3.52-30.15 6.58-8.89 17.57-13.61 28.39-14.44z"/>
 <path id="path29" d="m904.9 82.3 11.09-0.05 32.09 98.2 33.67-97.89h14.16l-42.12 118.71-11.34 0.01-32.34-95.56-32.29 95.56h-11.14l-42.12-118.73 14.6-0.01 33.44 97.51z"/>
 <path id="path31" d="m591.94 82.55c4.24 0.02 8.47-0.11 12.71 0.1 24.44 31.46 49.24 62.64 73.78 94.02-0.02-31.37-0.01-62.74-0.01-94.11 4.35-0.04 8.7-0.01 13.06-0.03 0.03 39.26-0.01 78.52 0.02 117.79-3.58 0.01-7.15 0.01-10.72-0.01-25.24-32.11-50.57-64.15-75.77-96.28-0.02 32.1-0.01 64.2-0.01 96.3-4.36 0-8.71 0-13.06-0.01 0.02-39.26 0.02-78.52 0-117.77z"/>
 <path id="path33" d="m722.6 82.58 85.27-0.04v12.23l-71.83 0.01 0.01 40.06h64.25l-0.01 12.23-64.24 0.02 0.02 41.09 72.78 0.02v12.1h-86.26z"/>
 <path id="path18-4" d="m419.44 89.65c-14.84 7.85-26.13 22.36-29.29 38.94-2.42 12.99-1.42 26.83 4.05 38.96 3.86 9.64 11.1 17.58 19.4 23.66 14.44 10.06 33.03 11.89 50.01 8.99 14.43-2.65 26.65-11.82 36.55-22.23-5.37-6.8-12.19-12.28-17.64-19-6 5.74-12.32 11.57-20.2 14.56-15.13 6.02-34.79 0.19-42.63-14.49-4.07-6.89-4.28-15.16-3.72-22.91 1.04-8.98 6.33-17.21 13.8-22.23 9.46-6.6 22.16-7.38 32.84-3.48 7.82 2.63 13.83 8.49 19.42 14.31 6.26-5.91 12.8-11.56 18.64-17.9-7.43-9.02-17.02-16.43-28.07-20.4-17.08-6.61-37.07-5.66-53.16 3.22z" fill="#fff"/>
 <path id="path25-7" d="m32.413 83.24c0 8.46 0.01 16.92 0 25.38 14.72 0.02 29.45-0.03 44.18 0.03-0.02 30.53 0 61.05-0.01 91.58 9.54 0 19.09 0.01 28.63-0.01-0.02-30.53-0.03-61.06 0-91.59 14.75-0.02 29.5-0.01 44.24 0-0.01-8.46-0.01-16.93 0-25.39-39.01 0-78.03 0.01-117.04 0m145.63 0c19.92 39.14 39.49 78.46 59.55 117.53 19.62-39.21 39.39-78.34 59.05-117.52-10.5 0-21.01-0.03-31.52 0.01-9.13 19.6-18.52 39.09-27.51 58.75-9.53-19.52-18.81-39.16-28.2-58.75-10.46-0.04-20.92 0-31.37-0.02z" fill="#fff"/>
</svg>
