<svg height="52.519791mm" viewBox="0 0 52.519791 52.519791" width="52.519791mm" xmlns="http://www.w3.org/2000/svg" xmlns:xlink="http://www.w3.org/1999/xlink"><linearGradient id="a" gradientTransform="matrix(148.87485 0 0 -148.87485 1462.9552 788.93793)" gradientUnits="userSpaceOnUse" spreadMethod="pad" x1="0" x2="1" y1="0" y2="0"><stop offset="0" stop-color="#f39409"/><stop offset=".35490708" stop-color="#e4291d"/><stop offset=".36" stop-color="#e4291d"/><stop offset=".36161352" stop-color="#e4291d"/><stop offset=".753245" stop-color="#b73f8a"/><stop offset=".75472158" stop-color="#b73f8a"/><stop offset="1" stop-color="#0c5ca6"/></linearGradient><linearGradient id="b"><stop offset="0" stop-color="#f08300"/><stop offset=".35" stop-color="#e3000f"/><stop offset=".8" stop-color="#a72879"/><stop offset=".995025" stop-color="#064496"/><stop offset="1" stop-color="#064496"/></linearGradient><linearGradient id="c" gradientTransform="matrix(127.1696 -.4089055 -.4089055 -127.1696 1477.0028 772.31567)" gradientUnits="userSpaceOnUse" spreadMethod="pad" x1="0" x2="1" xlink:href="#b" y1="0" y2="0"/><linearGradient id="d" gradientTransform="matrix(127.1696 -.4089055 -.4089055 -127.1696 1477.1105 805.81055)" gradientUnits="userSpaceOnUse" spreadMethod="pad" x1="0" x2="1" xlink:href="#b" y1="0" y2="0"/><path d="m1524.443 818.979c-.306-.344-.458-.782-.458-1.313v-25.359c.213-.052.526-.094.937-.136.412-.041.818-.062 1.218-.062.851 0 1.43.177 1.735.521.307.344.459.782.459 1.313v25.359c-.212.053-.526.094-.939.136-.411.042-.818.062-1.216.062-.852 0-1.43-.177-1.736-.521m-8.137-1.146c-.332-.355-.498-.803-.498-1.334v-13.53c0-2.157-.566-3.877-1.697-5.169-1.13-1.293-2.653-1.939-4.568-1.939-1.995 0-3.533.646-4.609 1.939-1.077 1.292-1.616 3.012-1.616 5.169v15.208c-.213.052-.526.093-.937.135-.412.042-.831.063-1.257.063-.851 0-1.442-.178-1.774-.542-.333-.355-.5-.803-.5-1.334v-13.394c0-1.574.232-3.033.698-4.388.467-1.355 1.152-2.544 2.055-3.564.905-1.033 2.015-1.835 3.331-2.419 1.317-.584 2.84-.875 4.569-.875 1.703 0 3.226.291 4.569.875s2.466 1.386 3.371 2.419c.904 1.02 1.596 2.209 2.076 3.564.477 1.355.717 2.814.717 4.388v15.072c-.213.052-.518.093-.918.135-.398.042-.811.063-1.238.063-.85 0-1.441-.178-1.774-.542m18.041-1.157c-.332-.136-.585-.323-.758-.563s-.293-.511-.36-.802c-.066-.293-.099-.605-.099-.928v-2.762h-1.717c-.426 0-.778-.136-1.058-.396-.279-.271-.418-.73-.418-1.397 0-.282.013-.573.04-.865s.066-.532.119-.72h3.034v-9.443c0-.98.147-1.876.439-2.689s.718-1.511 1.277-2.105c.558-.605 1.243-1.064 2.052-1.397.812-.334 1.74-.5 2.772-.5 1.146 0 2.147.136 3.012.407.866.26 1.688.624 2.46 1.083.021.136.042.271.042.417v.427c0 .751-.146 1.293-.448 1.648-.292.343-.689.521-1.188.521-.22 0-.439-.042-.657-.125-.23-.084-.469-.178-.719-.282-.261-.104-.542-.198-.865-.281-.313-.084-.678-.125-1.074-.125-.928 0-1.636.281-2.116.833-.48.553-.719 1.334-.719 2.346v9.265h5.263c.428 0 .782.136 1.063.397.271.271.418.729.418 1.396 0 .657-.073 1.189-.198 1.585h-6.546v4.971c-.5.188-1.077.282-1.715.282-.558 0-1.004-.063-1.336-.198m30.265-5.055c-1.303-.261-2.397-.532-3.272-.824-.032-.136-.043-.261-.043-.386v-.375c0-.698.136-1.282.396-1.761.271-.479.678-.719 1.241-.719.324 0 .657.052 1.021.145.355.095.771.198 1.23.323.469.126.991.23 1.575.324.594.093 1.271.145 2.043.145 1.511 0 2.564-.271 3.147-.822.584-.553.876-1.481.876-2.794v-1.011c-1.752.333-3.325.5-4.701.5-1.47 0-2.721-.156-3.774-.479-1.052-.313-1.917-.761-2.615-1.335-.689-.573-1.199-1.26-1.533-2.052-.333-.803-.5-1.679-.5-2.637 0-.792.136-1.543.416-2.252.282-.699.699-1.324 1.241-1.855.542-.532 1.22-.949 2.033-1.251.812-.302 1.74-.459 2.772-.459.907 0 1.71.094 2.418.292.698.188 1.335.459 1.897.813.553.344 1.042.751 1.449 1.209.417.47.782.959 1.105 1.46h.031c.031-.501.084-.981.146-1.439.063-.448.188-.844.375-1.178.188-.334.448-.594.782-.792s.761-.302 1.293-.302c.479 0 .896.041 1.261.114.354.084.656.178.896.282-.187.646-.333 1.23-.438 1.782-.115.543-.198 1.094-.26 1.658-.073.552-.104 1.156-.126 1.792-.01.636-.02 1.355-.02 2.158v4.19c0 1.282-.125 2.408-.376 3.377-.25.969-.687 1.803-1.313 2.48-.625.678-1.449 1.188-2.48 1.533-1.022.344-2.304.521-3.847.521-1.594 0-3.043-.125-4.346-.375m.323-15.396c-.614.449-.917 1.106-.917 1.95 0 1.063.428 1.886 1.293 2.46.865.573 2.178.855 3.929.855 1.063 0 2.272-.115 3.627-.355v-1.678c-.531-1.116-1.272-2.043-2.21-2.793-.948-.74-2.052-1.115-3.335-1.115-.98 0-1.782.229-2.387.676m-10.839 14.666c-.908-.646-1.627-1.626-2.158-2.929h-.083v1.397c0 .751-.178 1.345-.532 1.793-.365.437-.949.656-1.782.656-.366 0-.709-.031-1.012-.104-.312-.062-.604-.135-.896-.219v-19.178c.209-.052.521-.094.939-.136.405-.041.812-.062 1.219-.062.844 0 1.427.177 1.73.521.302.344.459.782.459 1.313v9.547c0 1.512.416 2.638 1.261 3.357.833.719 1.949 1.084 3.324 1.084h.72c1.491 0 2.231.74 2.231 2.23 0 .448-.073.949-.241 1.512-.291.052-.604.094-.927.135-.334.042-.698.063-1.105.063-1.199 0-2.241-.323-3.147-.98" fill="url(#d)" transform="matrix(.35277777 0 0 -.35277777 -516.098003 304.579507)"/><path d="m1532.224 784.75c-.333-.354-.5-.802-.5-1.334v-9.193h-12.128v10.871c-.212.052-.525.094-.937.135-.412.043-.831.063-1.255.063-.853 0-1.443-.177-1.776-.542-.333-.354-.499-.802-.499-1.334v-24.191c.213-.053.525-.095.938-.136.411-.042.831-.063 1.256-.063.85 0 1.442.177 1.775.542.332.354.498.802.498 1.334v9.444h12.128v-11.121c.215-.053.533-.095.96-.136.425-.042.851-.063 1.277-.063.852 0 1.443.177 1.776.542.333.354.499.802.499 1.334v24.192c-.212.052-.532.094-.958.135-.425.043-.851.063-1.278.063-.852 0-1.444-.177-1.776-.542m10.625.479c-.991 0-1.626-.198-1.897-.583-.282-.386-.417-.876-.417-1.49v-21.806c0-.614.135-1.105.417-1.49.271-.386.906-.584 1.897-.584h5.336c2.21 0 4.191.345 5.931 1.043 1.741.688 3.221 1.625 4.451 2.814 1.219 1.178 2.147 2.574 2.793 4.169.636 1.595.959 3.315.959 5.149 0 1.95-.333 3.7-.979 5.274-.657 1.563-1.585 2.908-2.794 4.034-1.209 1.115-2.679 1.97-4.409 2.574-1.731.594-3.669.896-5.827.896zm2.147-4.064h3.471c1.282 0 2.481-.188 3.596-.563 1.116-.365 2.085-.918 2.907-1.657.824-.73 1.481-1.637 1.961-2.71.478-1.085.719-2.314.719-3.7 0-1.543-.241-2.898-.719-4.034-.48-1.147-1.137-2.106-1.961-2.867-.822-.75-1.782-1.323-2.887-1.709-1.104-.386-2.282-.584-3.532-.584h-3.555z" fill="url(#c)" transform="matrix(.35277777 0 0 -.35277777 -516.098003 304.579507)"/><path d="m1462.955 788.938c0-41.045 33.392-74.438 74.438-74.438 41.045 0 74.437 33.393 74.437 74.438s-33.392 74.437-74.437 74.437c-41.046 0-74.438-33.392-74.438-74.437m4.122 0c0 38.772 31.544 70.315 70.316 70.315s70.315-31.543 70.315-70.315c0-38.771-31.543-70.315-70.315-70.315s-70.316 31.544-70.316 70.315" fill="url(#a)" transform="matrix(.35277777 0 0 -.35277777 -516.098003 304.579507)"/></svg>