<?xml version="1.0" encoding="UTF-8" standalone="no"?>
<svg
   xmlns:dc="http://purl.org/dc/elements/1.1/"
   xmlns:cc="http://creativecommons.org/ns#"
   xmlns:rdf="http://www.w3.org/1999/02/22-rdf-syntax-ns#"
   xmlns:svg="http://www.w3.org/2000/svg"
   xmlns="http://www.w3.org/2000/svg"
   xmlns:sodipodi="http://sodipodi.sourceforge.net/DTD/sodipodi-0.dtd"
   xmlns:inkscape="http://www.inkscape.org/namespaces/inkscape"
   width="1740pt"
   height="594pt"
   viewBox="0 0 1740 594"
   version="1.1"
   id="svg2"
   inkscape:version="0.91 r13725"
   sodipodi:docname="Ummah Channel.svg">
  <metadata
     id="metadata39">
    <rdf:RDF>
      <cc:Work
         rdf:about="">
        <dc:format>image/svg+xml</dc:format>
        <dc:type
           rdf:resource="http://purl.org/dc/dcmitype/StillImage" />
      </cc:Work>
    </rdf:RDF>
  </metadata>
  <defs
     id="defs37" />
  <sodipodi:namedview
     pagecolor="#ffffff"
     bordercolor="#666666"
     borderopacity="1"
     objecttolerance="10"
     gridtolerance="10"
     guidetolerance="10"
     inkscape:pageopacity="0"
     inkscape:pageshadow="2"
     inkscape:window-width="1920"
     inkscape:window-height="1017"
     id="namedview35"
     showgrid="false"
     inkscape:zoom="0.37452276"
     inkscape:cx="843.84675"
     inkscape:cy="205.49582"
     inkscape:window-x="-8"
     inkscape:window-y="-8"
     inkscape:window-maximized="1"
     inkscape:current-layer="svg2" />
  <path
     style="opacity:1;fill:#00a272;fill-opacity:1"
     inkscape:connector-curvature="0"
     id="path5"
     d="m 10.36,0 46.11,0 c 10.71,1.1 21,6.19 27.95,14.46 6.31,7.34 9.83,16.95 9.85,26.61 0.02,56.98 -0.01,113.95 0.02,170.93 0.18,12.51 1.21,25.75 7.97,36.64 5,8.13 13.67,13.31 22.77,15.61 10.53,2.83 21.56,2.76 32.37,2.28 9.96,-0.77 20.4,-2.52 28.62,-8.59 6.47,-4.76 10.46,-12.14 12.5,-19.78 2.41,-8.84 2.9,-18.07 2.99,-27.2 0.04,-66.29 -0.03,-132.58 0.04,-198.88 C 201.38,6.05 206.35,0.75 212.24,0 l 46.07,0 c 10.23,1.21 20.12,5.89 26.97,13.67 6.68,7.42 10.58,17.34 10.5,27.34 -0.02,58.01 0.05,116.01 -0.04,174.02 -0.56,32.15 -8.89,65.6 -30.28,90.41 -18.3,21.58 -44.96,34.52 -72.36,40.05 -20.71,4.32 -42.03,5.09 -63.11,3.78 C 109.41,347.79 88.79,343.65 69.96,335 55.55,328.42 42.32,319.07 31.78,307.2 13.92,287.33 4.52,261.14 1.44,234.88 0.67,229.16 0.44,223.38 0,217.63 L 0,10.41 C 0.85,5.14 5.11,0.9 10.36,0 Z" />
  <path
     style="opacity:1;fill:#00a272;fill-opacity:1"
     inkscape:connector-curvature="0"
     id="path7"
     d="m 325.34,0 102.13,0 c 4.5,0.97 8.49,4.18 9.77,8.7 20.96,61.59 41.93,123.17 62.9,184.76 19.98,-61.5 39.67,-123.1 59.55,-184.63 1.29,-4.76 5.62,-8.29 10.5,-8.83 l 74.16,0 c 8.38,0.97 16.59,4.13 23.03,9.66 9.45,7.84 14.96,20.04 14.71,32.31 -0.02,96 0.03,192.01 -0.03,288.01 0.24,6.5 -5.51,12.47 -12.04,12.29 -21.99,0.03 -43.99,0.06 -65.98,-0.02 -6.46,0.07 -12.06,-5.86 -11.76,-12.28 -0.1,-51.62 0.12,-103.24 -0.11,-154.85 -4.94,13.02 -9.19,26.3 -13.84,39.42 -13.78,39.79 -27.54,79.58 -41.33,119.36 -1.54,5.09 -6.69,8.62 -11.98,8.39 -17.68,0 -35.37,0 -53.05,0 -3.27,0.07 -6.55,-1.09 -8.9,-3.39 -2.68,-2.47 -3.48,-6.17 -4.69,-9.45 -13.89,-39.78 -27.81,-79.56 -41.72,-119.34 -4.03,-10.93 -7.33,-22.16 -11.83,-32.9 -0.32,51.29 0.03,102.6 -0.17,153.89 -0.29,5.99 -5.69,11.16 -11.69,11.15 -21.99,0.08 -43.98,0.04 -65.96,0.02 -6.57,0.22 -12.3,-5.73 -12.17,-12.24 C 314.8,224.34 314.85,118.64 314.82,12.95 314.44,6.73 319.18,0.92 325.34,0 Z" />
  <path
     style="opacity:1;fill:#00a272;fill-opacity:1"
     inkscape:connector-curvature="0"
     id="path9"
     d="m 713.24,0 101.47,0 c 4.45,0.7 8.48,3.8 9.91,8.13 21.13,61.74 41.94,123.6 63.22,185.29 19.82,-61.64 39.68,-123.27 59.54,-184.89 1.31,-4.51 5.38,-7.76 9.95,-8.53 l 74.93,0 c 6.19,0.91 12.35,2.66 17.68,6.03 12,7.22 19.83,20.91 19.68,34.95 0.01,96.35 0.01,192.71 0,289.05 0.28,6.37 -5.29,12.23 -11.67,12.22 -21.99,0.09 -43.98,0.04 -65.96,0.02 -6.56,0.23 -12.42,-5.75 -12.13,-12.29 -0.08,-51.81 0.11,-103.62 -0.1,-155.43 -17.82,51.54 -35.7,103.07 -53.51,154.62 -1.27,3.5 -2.11,7.48 -5.09,10 -2.46,2.32 -5.89,3.27 -9.2,3.13 -17.66,-0.04 -35.31,0.03 -52.97,-0.03 -5.02,0.08 -9.77,-3.37 -11.35,-8.11 -18.48,-52.61 -36.72,-105.3 -55.29,-157.87 -0.13,51.24 0,102.48 -0.06,153.73 0.28,6.58 -5.7,12.53 -12.27,12.26 -21.65,0.03 -43.3,0.01 -64.95,0.01 -6.68,0.41 -12.9,-5.54 -12.56,-12.26 -0.04,-104.01 0,-208.02 -0.02,-312.04 0.02,-2.84 -0.17,-5.71 0.29,-8.53 0.98,-5 5.48,-8.79 10.46,-9.46 z" />
  <path
     style="opacity:1;fill:#00a272;fill-opacity:1"
     inkscape:connector-curvature="0"
     id="path11"
     d="m 1221.35,0 75.23,0 c 4.59,0.82 8.6,4.07 9.95,8.59 39.56,105.72 79.17,211.43 118.71,317.16 3.31,7.54 -3.08,16.89 -11.31,16.52 -23.98,0.06 -47.97,0 -71.95,0.02 -5.25,0.34 -10.45,-3.03 -12.14,-8.03 -7.16,-20.91 -14.2,-41.87 -21.38,-62.77 -33.92,0.02 -67.84,-0.02 -101.76,0.02 -7.3,20.74 -14.62,41.47 -21.93,62.21 -1.54,5.01 -6.49,8.75 -11.78,8.56 -23.31,0.03 -46.63,0 -69.94,0.01 -3.08,0.07 -6.21,-0.78 -8.56,-2.81 -4.21,-3.31 -5.46,-9.48 -3.32,-14.32 40.12,-105.61 80.25,-211.21 120.36,-316.82 1.41,-4.38 5.34,-7.51 9.82,-8.34 m 12.24,195.09 c 16.09,-0.02 32.19,0.1 48.29,-0.06 -7.92,-22.95 -15.8,-45.92 -23.68,-68.88 -8.4,22.9 -16.35,45.98 -24.61,68.94 z" />
  <path
     style="opacity:1;fill:#00a272;fill-opacity:1"
     inkscape:connector-curvature="0"
     id="path13"
     d="m 1457.26,0 46.04,0 c 15.16,1.53 29.15,11.7 34.63,26.02 1.86,4.75 2.89,9.84 2.83,14.95 -0.01,26.98 0.01,53.97 -0.01,80.96 34.86,0.41 69.74,-0.01 104.61,0.19 0.09,-36.71 -0.04,-73.41 0.06,-110.12 -0.14,-6.03 4.89,-11.32 10.79,-12 l 46.01,0 c 11.2,1.29 21.92,6.9 28.8,15.91 5.03,6.19 7.42,13.95 8.98,21.64 l 0,294.54 c -1.66,5.32 -6.11,10.22 -12.05,10.16 -23.64,0.06 -47.3,0.08 -70.94,-0.01 -6.35,-0.04 -11.8,-5.85 -11.6,-12.16 -0.05,-41.65 0,-83.29 -0.02,-124.94 -34.88,0 -69.76,-0.02 -104.63,0.01 0,40.29 -0.02,80.59 0.01,120.88 -0.08,3.2 0.38,6.63 -1.24,9.56 -2.07,4.27 -6.79,6.95 -11.52,6.7 -23.02,-0.01 -46.04,0.01 -69.06,-0.01 -6.63,0.34 -12.74,-5.61 -12.39,-12.27 -0.02,-105.98 -0.03,-211.96 0.01,-317.93 -0.23,-6.04 4.8,-11.35 10.69,-12.08 z" />
  <path
     sodipodi:nodetypes="ccccccccccc"
     style="opacity:1;fill:#ffffff;fill-opacity:1"
     inkscape:connector-curvature="0"
     id="path16"
     d="m 0,391.59 c 1.15,-9.76 10.06,-17.89 19.99,-17.51 559.67,-0.02 1119.34,0 1679.01,-0.01 8.02,0.16 16.08,-0.33 24.09,0.27 8.79,1.16 15.15,8.84 16.91,17.2 l 0,184.68 c -1.16,3.75 -2.48,7.61 -5.12,10.61 -3.29,3.94 -8.22,6.07 -13.12,7.17 L 17.51,594 C 8.57,592.26 0.75,585.04 0,575.69 l 0,-184.1" />
  <g
     id="#ffffffff"
     style="fill:#333133;fill-opacity:1">
    <path
       d="m 145.83,414.81 c 18.75,-4.12 39.73,-1.67 55.49,9.87 12.26,8.82 19.75,23.17 21.4,38.05 l -29.49,0.04 c -1.33,-8.65 -7.13,-16.23 -14.8,-20.28 -9.39,-5.18 -21.15,-5.07 -30.89,-0.89 -8.06,3.45 -14.06,10.57 -17.42,18.54 -4.6,10.94 -5.53,23.14 -4.25,34.85 1.35,10.64 5.22,21.54 13.36,28.87 7.91,7.19 19.3,9.51 29.67,7.93 7.59,-1.19 14.61,-5.56 18.87,-11.98 3.81,-5.48 5.61,-12.04 6.61,-18.56 l 29.47,0.04 c -1.36,15.68 -7.73,31.41 -19.73,41.94 -12.65,11.48 -30.46,15.77 -47.2,14.39 -15.31,-0.99 -30.53,-7.03 -41.45,-17.99 C 103,527.47 96.4,510.25 95.14,493.07 c -1.46,-19.06 2.68,-39.12 14.17,-54.69 8.77,-11.98 22.04,-20.43 36.52,-23.57 z"
       id="path21"
       inkscape:connector-curvature="0"
       style="opacity:1;fill:#333133;fill-opacity:1"
       sodipodi:nodetypes="ccccccccccccccccccc" />
    <path
       d="m 347.27,416.23 30.49,0 0,53.08 56.03,0 0.01,-53.08 30.46,0.01 0.03,138.3 -30.58,-0.09 0.05,-59.61 -55.99,0 -0.02,59.76 -30.47,0 z"
       id="path23"
       inkscape:connector-curvature="0"
       style="opacity:1;fill:#333133;fill-opacity:1"
       sodipodi:nodetypes="ccccccccccccc" />
    <path
       d="m 631.54,416.24 31.27,0.02 51.78,138.3 -31.41,-0.02 -10.8,-30.8 -51.66,0.04 -10.89,30.81 -30.84,0 52.55,-138.35 m -2.88,84.89 35.81,0 -17.44,-50.92 z"
       id="path25"
       inkscape:connector-curvature="0"
       style="opacity:1;fill:#333133;fill-opacity:1"
       sodipodi:nodetypes="ccccccccccccc" />
    <path
       d="m 829.31,416.23 30.32,0.05 58.01,92.98 0.12,-93.07 28.41,0.02 0.11,138.32 -30.52,0.03 -57.84,-92.81 -0.13,92.85 -28.47,0 z"
       id="path27"
       inkscape:connector-curvature="0"
       style="opacity:1;fill:#333133;fill-opacity:1"
       sodipodi:nodetypes="ccccccccccc" />
    <path
       d="m 1075.72,416.24 30.22,-0.02 58.12,93.02 0.1,-93.01 28.5,0 -0.01,138.37 -30.4,-0.01 -57.92,-92.74 -0.02,92.7 -28.6,0.01 z"
       id="path29"
       inkscape:connector-curvature="0"
       style="opacity:1;fill:#333133;fill-opacity:1"
       sodipodi:nodetypes="ccccccccccc" />
    <path
       d="m 1322.15,416.23 103.56,0 0,25.57 -73.07,-0.01 -0.02,29.62 67.07,-0.01 0.04,23.6 -67.09,0.12 0,33.82 74.62,-0.03 0.04,25.65 -105.15,0.04 z"
       id="path31"
       inkscape:connector-curvature="0"
       style="opacity:1;fill:#333133;fill-opacity:1"
       sodipodi:nodetypes="ccccccccccccc" />
    <path
       d="m 1550.56,416.22 30.36,0.01 0,112.62 67.54,0.06 0.04,25.67 -97.96,0 z"
       id="path33"
       inkscape:connector-curvature="0"
       style="opacity:1;fill:#333133;fill-opacity:1"
       sodipodi:nodetypes="ccccccc" />
  </g>
</svg>
