<svg height="376.52979pt" viewBox="0 0 812.39905 376.52979" width="812.39905pt" xmlns="http://www.w3.org/2000/svg"><g fill="#f8981d"><path d="m374.82188 2.7997765c7.88-4.58 18.89-3.53 25.34 3.07 4.62 4.6100005 6.61 11.2900005 6.6 17.7000005.01 60.66.02 121.320003 0 181.980003-.01 6.62-2.2 13.53-7.16 18.11-6.61 6.21-17.22 6.83-25.09 2.78-5.68-3.02-8.76-9.12-10.27-15.12-6.47 10.34-18.04 16.48-29.8 18.6-16.34 2.79-33.65-1.67-46.91-11.54-13.54-9.99-22.98-24.85-27.92-40.81-5.6-17.82-5.23-37.18-.53-55.17 4.28-16.17 12.87-31.720003 26.34-42.000003 22.59-17.44 57.34-16.58 78.86 2.28-.03-18.4 0-36.79-.02-55.19-.73-9.21 2-19.8300005 10.56-24.6900005m-51.91 104.3500035c-8.44 2.42-14.98 9.15-18.9 16.8-7.49 14.65-8.05 32.64-1.51 47.73 2.77 6.34 6.96 12.23 12.76 16.12 9.47 6.47 22.9 6.25 32.26-.31 7.07-4.94 11.52-12.8 14.01-20.9 3.38-11.22 3.72-23.43.45-34.71-2.19-7.46-6.14-14.63-12.28-19.54-7.37-5.97-17.73-7.76-26.79-5.19z"/><path d="m623.92188 21.069777c3.8-1.01 7.75-.87 11.65-.86 49.62.03 99.25-.03 148.87.03 10.88.03 21.2 7.26 25.15 17.36 2.02 4.68 2.14 9.87 2.03 14.88-.01 49.020003-.02 98.040003.01 147.050003.12 4.65-.39 9.4-2.33 13.67-4.25 10.07-14.87 16.99-25.82 16.68-51.3-.04-102.61.05-153.91-.04-14.24-.23-26.63-13.1-26.5-27.31-.03-51.67-.04-103.350003 0-155.020003.01-12.18 9.02-23.59 20.85-26.44m88 22.99c-1.93.51-3.71 1.4-5.45 2.33-13.05 7.01-26.15 13.92-39.2 20.93-7.14 3.78-11.16 12.42-9.61 20.33 1.31 7.81 7.92 14.360003 15.77 15.520003 4.78.9 9.67-.45 13.79-2.9 12.82-6.880003 25.67-13.700003 38.5-20.560003 5.03-2.63 8.75-7.59 9.83-13.16 1.42-6.54-.92-13.71-5.91-18.17-4.67-4.32-11.59-5.98-17.72-4.32m-14.12 59.470003c0 26.67.01 53.35 0 80.02.02 2.98-.22 6.02.54 8.94 1.37 5.76 5.63 10.73 11.11 12.98 5.83 2.5 12.92 1.73 18.08-1.97 5.12-3.56 8.24-9.74 8.06-15.97-.02-34.65 0-69.29-.01-103.940003-12.6 6.64-25.2 13.28-37.78 19.940003z"/><path d="m16.021882 68.309777c8.46-2.15 18.27 1.24 22.75 8.93 2.64 4.23 3.71 9.28 3.71 14.24.02 25.370003 0 50.740003.01 76.110003-.1 7.59 2.72 15.38 8.46 20.5 10.3 9.46 27.78 9.41 38.02-.11 5.65-5.14 8.43-12.87 8.33-20.41.01-25.36-.01-50.72.01-76.080003-.04-6.4 1.87-13.07 6.419998-17.74 7.28-7.67 20.65-8.08 28.52-1.07 5.33 4.66 7.6 11.95 7.55 18.87-.01 25.990003.04 51.990003-.03 77.980003-.04 15.78-5.29 32.12-16.91 43.2-12.53 12.18-30.329998 17.14-47.409998 17.89-17.86.78-36.75-1.96-51.75-12.32-11.31-7.69-19.0599998-19.99-21.9299998-33.29-2.31999997-9.65-1.65999997-19.62-1.74999997-29.45.04-22.01-.08-44.03.05-66.040003.17-9.47 6.32999997-19.15 15.94999977-21.21z"/><path d="m171.54188 71.599777c7.35-5.18 17.47-4.79 25.47-1.37 6.04 2.6 9.01 9.25 8.91 15.55 6.93-6.71 15.07-12.56 24.52-15.03 6.84-1.69 14.71-.94 20.43 3.46 5.39 4.15 7.25 11.85 5.29 18.22-1.58 4.84-5.78 8.190003-9.99 10.720003-10.21 5.92-21.36 10.22-31.07 17-5.95 4.09-9.34 11.18-9.24 18.35-.07 22.34.01 44.68-.04 67.02-.02 6.41-2.04 13.09-6.69 17.68-6.47 6.54-17.42 7.55-25.27 2.97-7.48-4.3-10.8-13.33-10.53-21.63.02-38.65-.03-77.3.02-115.940003-.02-6.5 2.75-13.21 8.19-17z"/><path d="m447.98188 68.109777c8.25-1.73 17.53 1.76 21.85 9.17 3.85 6 3.85 13.36 3.69 20.22v70.010003c-.12 7.62 2.7 15.44 8.46 20.58 10.27 9.43 27.7 9.42 37.94-.06 5.7-5.13 8.47-12.89 8.4-20.45.03-25.36.01-50.72.01-76.080003-.07-6.61 2-13.53 6.87-18.2 7.38-7.25 20.39-7.48 28.09-.6 5.3 4.66 7.58 11.93 7.51 18.83v61.030003c-.11 12.71.92 25.77-3.29 38-4.47 14.48-15.44 26.6-29.23 32.8-16.71 7.67-35.8 8.66-53.81 6.18-15.84-2.33-31.68-9.44-41.55-22.45-8.44-10.91-11.96-24.93-11.9-38.55.03-26.31-.08-52.63.06-78.940003.1-9.82 6.79-19.86 16.9-21.49z"/><path d="m325.83188 355.51978.01-92.5 68.27.01v14.52l-52.06.01v23.97l46.16.01-.01 14.52h-46.15v24.97l52.72.01v14.49z"/><path d="m532.07188 287.01978c3.79-2.1 8.19-2.57 12.45-2.57v17.05c-6.13-.07-12.59 1.53-17.07 5.94-5.37 5.13-7.3 12.82-7.48 20.04-.1 9.36-.01 18.72-.05 28.08l-15.93-.02v-69.51h15.94c-.02 5.13.03 10.26-.04 15.39 2.59-5.8 6.52-11.28 12.18-14.4z"/><path d="m590.04188 285.14978c10.83-1.97 22.6.53 31.16 7.61 12.8 10.13 16.74 29.36 9.39 43.85-5.89 12.45-19.39 20.54-33.1 20.43-12.49.34-25.12-5.96-31.77-16.64-7.38-11.5-7.42-27.22-.06-38.74 5.32-8.62 14.44-14.7 24.38-16.51m-.11 15.04c-9.6 3.05-14.97 13.62-13.67 23.29.64 6.82 4.6 13.32 10.57 16.76 7.87 4.64 18.82 3.43 25.27-3.13 8.75-8.76 8.2-24.88-1.21-32.96-5.6-5-13.92-6.37-20.96-3.96z"/><path d="m685.65188 285.95978c11.36-3.77 24.72-.07 32.58 8.95 10.21 11.52 11.58 29.15 5.73 43.02-5.16 12.5-18.9 20.59-32.35 18.96-8.28-.46-15.21-5.9-20.2-12.13l.02 31.77h-15.94l.01-90.5 15.92-.01c0 3.86.02 7.72-.01 11.59 3.66-4.96 8.31-9.56 14.24-11.65m.39 13.28c-5.89 1.54-10.67 6.1-13.02 11.64-4.01 9.32-2.03 21.56 6.17 28.01 7.09 5.7 18.18 5.46 24.92-.72 8.12-7.42 9.03-20.71 3.8-30.03-4.14-7.53-13.66-11.32-21.87-8.9z"/><path d="m771.34188 285.35978c9.91-2.15 21.06-.36 28.86 6.43 9.84 8.43 13.1 22.29 11.99 34.77l-51.1.02c.96 6.47 4.65 12.8 10.84 15.49 9.51 4.44 21.02 1.1 28.01-6.35l9.36 8.36c-5.62 6.39-13.22 11.37-21.79 12.48-11.7 1.93-24.53-1.48-32.75-10.28-10.06-10.54-12.05-27.09-6.79-40.39 3.9-10.05 12.77-18.16 23.37-20.53m-4.09 16.89c-3.7 3.65-5.53 8.72-6.31 13.76l35.71.01c-.72-5.42-2.59-11.09-6.96-14.67-6.25-5.41-16.67-5.06-22.44.9z"/><path d="m416.71188 286.02978h15.93c.03 13.51-.04 27.02.04 40.53.04 5.31 1.95 11.19 6.79 14 6.29 3.42 15.19 2.46 19.88-3.23 3-3.49 3.82-8.26 3.79-12.73.01-12.86 0-25.71.01-38.57h15.9l.01 69.49-15.91.04c-.01-3.57-.03-7.13.02-10.69-3.91 5.21-8.97 10.22-15.58 11.55-8.03 1.56-17.33.41-23.39-5.53-5.42-5.21-7.52-12.95-7.48-20.29-.03-14.85 0-29.71-.01-44.57z"/></g></svg>