<svg height="546.25513" width="1295.7325" xmlns="http://www.w3.org/2000/svg"><g transform="translate(-114.61499 322.81258)"><path d="m761.61377-212.92613h309.27966v203.96458h-309.27966z" fill="#fff"/><path d="m380.30069 222.94253c-151.79074 0-265.1857-90.98365-265.1857-196.986169v-223.003481c0-4.85261 3.51464-8.57706 8.57706-8.57706h159.53325c5.78205 0 9.14887 3.85527 9.14887 9.14886v215.570031c0 40.53013 34.77713 76.87502 76.24963 76.87502h20.65836c39.02027 0 76.92035-32.22412 76.92035-75.98215v-216.674411c0-5.25641 3.48415-8.93735 9.14887-8.93735h158.44057c5.23673 0 9.66974 2.7183 9.66974 8.70731v222.301431c0 113.291309-122.56011 197.557969-263.161 197.557969z" fill="#00bdc9"/><path d="m696.35333-114.67072c0-109.25363 90.22602-207.64186 208.62412-207.64186 117.27085 0 209.13745 94.60414 209.13745 209.13758 0 114.7497014-93.2501 208.713421-208.71335 208.713421-111.187 0-209.04822-89.1740596-209.04822-210.209141z" fill="#00bdc9"/><g fill="#fff" transform="matrix(.70660649 0 0 .7092126 620.243536 -490.550337)"><path d="m244 645.49321 31-80 10-10v14c0 33.67375 16.33605 59.58152 58.60656 59.58152 38.54378 0 65.6745-21.8349 65.6745-55.71836 0-17.22249-8.33677-30.88801-8.33677-30.88801l43.72302 21.83153 3.83269 53.19332s-29.1163 57.10384-111.19099 57.10384c-64.08958 0-93.30901-29.10384-93.30901-29.10384z"/><path d="m244 645.49321s-35-26.74653-35-76.75901v-143.24099c0-11.51805 7.43235-21.49932 38.41957-21.49932 33.86428 0 37.58043 13.18152 37.58043 23.07085v59.42847h60c4.3293 0 6 2.5306 6 6.54022v35.45978c0 3.35305-1.36798 6-5.3036 6h-39.6964c-10.29405 0-21-4-21-4v24c0 29.92446-7.73252 60.49107-41 91z"/><path d="m448.5 617.49321 9.52732-104.67543 4.3046-18.21507s19.01379 27.72197 67.45301 116.903c30.76369-55.93601 50.38301-122.77677 50.38301-122.77677 1.37747-4.56897 5.02528-5.67513 10.30561-4.2834l33.20698 10.2632c4.0318 1.43878 6.21976 3.03158 3.9495 10.52817-27.62063 80.38034-70.87238 146.68547-70.87238 146.68547-8.32694 12.34014-16.80925 22.81654-44.91212 22.81654-22.67268 0-30.56873-7.72236-38.46582-19.50857z"/><path d="m448.5 617.49321-51.76793-81.57153c-3.10695-5.81387-5.4749-9.33964-5.4749-16.24446.04-10.14929 5.31369-17.48763 23.1957-28.69122 3.86409-2.53909 17.79081-8.07451 29.07489-8.07451 15.21703 0 26.56968 15.74989 26.56968 48.70109 0 53.61539-21.59744 85.88063-21.59744 85.88063z"/></g><g fill="#00bdc9" transform="matrix(.25600914 0 0 .25600914 971.8159 -263.00828)"><path d="m949.16553 764.90898h-161.43075c-15.34633 0-23-14.82515-23-60 0-42.12619 5.79062-59 25-59h159.43075v-175.79779h125.99997v175.79779h187.6967v119h-187.6967v161.32965c0 16.72978-13.2231 25-66 25-50.1718 0-59.99997-8.42839-59.99997-24z" fill="#00bdc9"/><path d="m1632.1429 980.3979c-46.5146 0-76.1429-2.47709-76.1429-33.03572v-545c-67.5356 43.02833-129.9211 79.18982-189.3899 111.46243l-58.9676-118.94547c127.7314-76.0379 199.3666-118.59056 246.856-150.13392 12.828-8.40252 24.8774-14.38304 60.5015-14.38304h53c35.1679 0 43 7.95975 43 32v688c0 24.84715-28.2533 30.03572-78.8571 30.03572z" fill="#00bdc9"/></g></g></svg>