<svg height="67.158745pt" viewBox="0 0 551.58795 67.158744" width="551.58795pt" xmlns="http://www.w3.org/2000/svg"><g fill="#fff" transform="translate(-107.556 -45.598006)"><path d="m599.41 47.344005h7.15023v12.065999h12.5595v-12.065999h7.37025v32.000249h-7.37025v-13.794h-12.5595v13.794h-7.1505v-32.000249z" fill="#fff"/><path d="m641.35033 47.344005c2.09794.0018 4.19517.04085 6.28967.195995 6.03.75 10.79 6.2 11.2 12.2 1.23 7.1-1.2 16-8.63 18.62-2.91652.807086-5.90453.984254-8.91293.984254h-10.65707l-.03-32.000249m7.16973 5.9835v19.784249h5.50822c2.45991-.01223 4.82849-.402671 6.52205-2.391753 2.85-3.97 2.59-9.69.58-13.96-1.62459-2.47473-4.16125-3.203131-6.85382-3.379995-.46294-.03041-.93045-.0525-1.39881-.0525z" fill="#fff"/></g><g fill="#fff" transform="matrix(.50381656 0 0 .50381656 0 -107.56484)"><path d="m0 216.8h41.9l22.1 84 22.9-84.2h41.9l-43.8 126.6h-41.8z"/><path d="m134.9 343.2v-126.4h41.6v126.6h-41.6z"/><path d="m276.5 265.1c-1.3-13.1-9.6-20.8-22.4-20.8-14.7 0-23.5 12.5-23.5 37.1 0 17.9 4 34.4 25.1 34.4 13.3 0 19.7-9.3 21.3-21.3h40c-4 32.5-27.5 52.3-60.8 52.3-41.9 0-67.2-25.6-67.2-66.9 0-40.8 27.7-66.4 63.2-66.4 38.7 0 60.2 19.2 63.7 51.7h-39.4z"/><path d="m330.6 343.2v-126.4h103.2v29.6h-61.8v18.1h56.3v29.6h-56.3v20h64.2v29.6h-105.6z"/><path d="m454.3 343.2v-126.4h41.6v97h57.1v29.6h-98.6v-.2z"/><path d="m559.3 343.2 45.3-126.6h42.1l45.3 126.6h-41.3l-4.8-16.8h-41.3l-4.8 16.8zm66.1-88.3-12.8 45.3h26.1z"/><path d="m782.7 285.9-1.6-28.8v-40.3h39.7v126.6h-38.9l-45.3-69 1.6 28.8v40h-39.7v-126.4h38.9z"/><path d="m838.4 343.2v-126.4h55.5c40.8 0 66.1 18.9 66.1 60.8 0 47.7-26.7 65.8-67.2 65.8h-54.4zm41.6-29.3h8.8c19.5 0 29.9-10.1 29.9-34.1 0-26.4-8.5-33.3-30.7-33.3h-8z"/></g></svg>