<?xml version="1.0" encoding="UTF-8" standalone="no"?>
<!-- Generator: Adobe Illustrator 18.0.0, SVG Export Plug-In . SVG Version: 6.00 Build 0)  -->

<svg
   xmlns:dc="http://purl.org/dc/elements/1.1/"
   xmlns:cc="http://creativecommons.org/ns#"
   xmlns:rdf="http://www.w3.org/1999/02/22-rdf-syntax-ns#"
   xmlns:svg="http://www.w3.org/2000/svg"
   xmlns="http://www.w3.org/2000/svg"
   xmlns:sodipodi="http://sodipodi.sourceforge.net/DTD/sodipodi-0.dtd"
   xmlns:inkscape="http://www.inkscape.org/namespaces/inkscape"
   version="1.1"
   id="Layer_1"
   x="0px"
   y="0px"
   width="960"
   height="133.3"
   viewBox="0 213.4 960 133.3"
   enable-background="new 0 213.4 960 133.3"
   xml:space="preserve"
   sodipodi:docname="Viceland - Dark.svg"
   inkscape:version="0.92.0 r15299"><metadata
     id="metadata25"><rdf:RDF><cc:Work
         rdf:about=""><dc:format>image/svg+xml</dc:format><dc:type
           rdf:resource="http://purl.org/dc/dcmitype/StillImage" /><dc:title></dc:title></cc:Work></rdf:RDF></metadata><defs
     id="defs23" /><sodipodi:namedview
     pagecolor="#ffffff"
     bordercolor="#666666"
     borderopacity="1"
     objecttolerance="10"
     gridtolerance="10"
     guidetolerance="10"
     inkscape:pageopacity="0"
     inkscape:pageshadow="2"
     inkscape:window-width="1920"
     inkscape:window-height="1017"
     id="namedview21"
     showgrid="false"
     fit-margin-top="0"
     fit-margin-left="0"
     fit-margin-right="0"
     fit-margin-bottom="0"
     inkscape:zoom="0.29583333"
     inkscape:cx="480"
     inkscape:cy="66.749998"
     inkscape:window-x="-8"
     inkscape:window-y="-8"
     inkscape:window-maximized="1"
     inkscape:current-layer="Layer_1" /><g
     id="g18"
     style="fill:#000000;fill-opacity:1"
     transform="translate(0,-0.1)"><path
       d="m 0,216.8 h 41.9 l 22.1,84 22.9,-84.2 h 41.9 L 85,343.2 H 43.2 Z"
       id="path2"
       style="fill:#000000;fill-opacity:1"
       inkscape:connector-curvature="0" /><path
       d="M 134.9,343.2 V 216.8 h 41.6 v 126.6 h -41.6 z"
       id="path4"
       style="fill:#000000;fill-opacity:1"
       inkscape:connector-curvature="0" /><path
       d="m 276.5,265.1 c -1.3,-13.1 -9.6,-20.8 -22.4,-20.8 -14.7,0 -23.5,12.5 -23.5,37.1 0,17.9 4,34.4 25.1,34.4 13.3,0 19.7,-9.3 21.3,-21.3 h 40 c -4,32.5 -27.5,52.3 -60.8,52.3 -41.9,0 -67.2,-25.6 -67.2,-66.9 0,-40.8 27.7,-66.4 63.2,-66.4 38.7,0 60.2,19.2 63.7,51.7 h -39.4 z"
       id="path6"
       style="fill:#000000;fill-opacity:1"
       inkscape:connector-curvature="0" /><path
       d="M 330.6,343.2 V 216.8 h 103.2 v 29.6 H 372 v 18.1 h 56.3 v 29.6 H 372 v 20 h 64.2 v 29.6 H 330.6 Z"
       id="path8"
       style="fill:#000000;fill-opacity:1"
       inkscape:connector-curvature="0" /><path
       d="M 454.3,343.2 V 216.8 h 41.6 v 97 H 553 v 29.6 h -98.6 v -0.2 z"
       id="path10"
       style="fill:#000000;fill-opacity:1"
       inkscape:connector-curvature="0" /><path
       d="m 559.3,343.2 45.3,-126.6 h 42.1 L 692,343.2 h -41.3 l -4.8,-16.8 h -41.3 l -4.8,16.8 z m 66.1,-88.3 -12.8,45.3 h 26.1 z"
       id="path12"
       style="fill:#000000;fill-opacity:1"
       inkscape:connector-curvature="0" /><path
       d="m 782.7,285.9 -1.6,-28.8 v -40.3 h 39.7 v 126.6 h -38.9 l -45.3,-69 1.6,28.8 v 40 H 698.5 V 216.8 h 38.9 z"
       id="path14"
       style="fill:#000000;fill-opacity:1"
       inkscape:connector-curvature="0" /><path
       d="M 838.4,343.2 V 216.8 h 55.5 c 40.8,0 66.1,18.9 66.1,60.8 0,47.7 -26.7,65.8 -67.2,65.8 H 838.4 Z M 880,313.9 h 8.8 c 19.5,0 29.9,-10.1 29.9,-34.1 0,-26.4 -8.5,-33.3 -30.7,-33.3 h -8 z"
       id="path16"
       style="fill:#000000;fill-opacity:1"
       inkscape:connector-curvature="0" /></g></svg>