<?xml version="1.0" encoding="UTF-8" standalone="no"?>
<svg
   xmlns:dc="http://purl.org/dc/elements/1.1/"
   xmlns:cc="http://creativecommons.org/ns#"
   xmlns:rdf="http://www.w3.org/1999/02/22-rdf-syntax-ns#"
   xmlns:svg="http://www.w3.org/2000/svg"
   xmlns="http://www.w3.org/2000/svg"
   xmlns:sodipodi="http://sodipodi.sourceforge.net/DTD/sodipodi-0.dtd"
   xmlns:inkscape="http://www.inkscape.org/namespaces/inkscape"
   width="551.58795pt"
   height="67.158745pt"
   viewBox="0 0 551.58795 67.158744"
   version="1.1"
   id="svg34"
   sodipodi:docname="Viceland HD.svg"
   inkscape:version="0.92.0 r15299">
  <metadata
     id="metadata40">
    <rdf:RDF>
      <cc:Work
         rdf:about="">
        <dc:format>image/svg+xml</dc:format>
        <dc:type
           rdf:resource="http://purl.org/dc/dcmitype/StillImage" />
        <dc:title></dc:title>
      </cc:Work>
    </rdf:RDF>
  </metadata>
  <defs
     id="defs38" />
  <sodipodi:namedview
     pagecolor="#ffffff"
     bordercolor="#666666"
     borderopacity="1"
     objecttolerance="10"
     gridtolerance="10"
     guidetolerance="10"
     inkscape:pageopacity="0"
     inkscape:pageshadow="2"
     inkscape:window-width="1920"
     inkscape:window-height="1017"
     id="namedview36"
     showgrid="false"
     fit-margin-top="0"
     fit-margin-left="0"
     fit-margin-right="0"
     fit-margin-bottom="0"
     inkscape:zoom="1.2102273"
     inkscape:cx="128.57565"
     inkscape:cy="-4.5125234"
     inkscape:window-x="-8"
     inkscape:window-y="-8"
     inkscape:window-maximized="1"
     inkscape:current-layer="svg34" />
  <g
     id="g4530"
     style="fill:#ffffff;fill-opacity:1"
     transform="translate(-107.556,-45.598006)">
    <path
       sodipodi:nodetypes="cccccccccccccc"
       d="m 599.41,47.344005 h 7.15023 v 12.065999 h 12.5595 V 47.344005 h 7.37025 v 32.000249 h -7.37025 v -13.794 h -12.5595 v 13.794 h -7.1505 V 47.344005 Z"
       id="path29"
       inkscape:connector-curvature="0"
       style="opacity:1;fill:#ffffff;fill-opacity:1" />
    <path
       sodipodi:nodetypes="ccccscccccccssc"
       d="m 641.35033,47.344005 c 2.09794,0.0018 4.19517,0.04085 6.28967,0.195995 6.03,0.75 10.79,6.2 11.2,12.2 1.23,7.1 -1.2,16 -8.63,18.62 -2.91652,0.807086 -5.90453,0.984254 -8.91293,0.984254 H 630.64 l -0.03,-32.000249 m 7.16973,5.9835 v 19.784249 h 5.50822 c 2.45991,-0.01223 4.82849,-0.402671 6.52205,-2.391753 2.85,-3.97 2.59,-9.69 0.58,-13.96 -1.62459,-2.47473 -4.16125,-3.203131 -6.85382,-3.379995 -0.46294,-0.03041 -0.93045,-0.0525 -1.39881,-0.0525 z"
       id="path31"
       inkscape:connector-curvature="0"
       style="opacity:1;fill:#ffffff;fill-opacity:1" />
  </g>
  <g
     id="g18"
     style="fill:#ffffff;fill-opacity:1"
     transform="matrix(0.50381656,0,0,0.50381656,0,-107.56484)">
    <path
       d="m 0,216.8 h 41.9 l 22.1,84 22.9,-84.2 h 41.9 L 85,343.2 H 43.2 Z"
       id="path2"
       style="fill:#ffffff;fill-opacity:1"
       inkscape:connector-curvature="0" />
    <path
       d="M 134.9,343.2 V 216.8 h 41.6 v 126.6 h -41.6 z"
       id="path4"
       style="fill:#ffffff;fill-opacity:1"
       inkscape:connector-curvature="0" />
    <path
       d="m 276.5,265.1 c -1.3,-13.1 -9.6,-20.8 -22.4,-20.8 -14.7,0 -23.5,12.5 -23.5,37.1 0,17.9 4,34.4 25.1,34.4 13.3,0 19.7,-9.3 21.3,-21.3 h 40 c -4,32.5 -27.5,52.3 -60.8,52.3 -41.9,0 -67.2,-25.6 -67.2,-66.9 0,-40.8 27.7,-66.4 63.2,-66.4 38.7,0 60.2,19.2 63.7,51.7 h -39.4 z"
       id="path6"
       style="fill:#ffffff;fill-opacity:1"
       inkscape:connector-curvature="0" />
    <path
       d="M 330.6,343.2 V 216.8 h 103.2 v 29.6 H 372 v 18.1 h 56.3 v 29.6 H 372 v 20 h 64.2 v 29.6 H 330.6 Z"
       id="path8"
       style="fill:#ffffff;fill-opacity:1"
       inkscape:connector-curvature="0" />
    <path
       d="M 454.3,343.2 V 216.8 h 41.6 v 97 H 553 v 29.6 h -98.6 v -0.2 z"
       id="path10"
       style="fill:#ffffff;fill-opacity:1"
       inkscape:connector-curvature="0" />
    <path
       d="m 559.3,343.2 45.3,-126.6 h 42.1 L 692,343.2 h -41.3 l -4.8,-16.8 h -41.3 l -4.8,16.8 z m 66.1,-88.3 -12.8,45.3 h 26.1 z"
       id="path12"
       style="fill:#ffffff;fill-opacity:1"
       inkscape:connector-curvature="0" />
    <path
       d="m 782.7,285.9 -1.6,-28.8 v -40.3 h 39.7 v 126.6 h -38.9 l -45.3,-69 1.6,28.8 v 40 H 698.5 V 216.8 h 38.9 z"
       id="path14"
       style="fill:#ffffff;fill-opacity:1"
       inkscape:connector-curvature="0" />
    <path
       d="M 838.4,343.2 V 216.8 h 55.5 c 40.8,0 66.1,18.9 66.1,60.8 0,47.7 -26.7,65.8 -67.2,65.8 H 838.4 Z M 880,313.9 h 8.8 c 19.5,0 29.9,-10.1 29.9,-34.1 0,-26.4 -8.5,-33.3 -30.7,-33.3 h -8 z"
       id="path16"
       style="fill:#ffffff;fill-opacity:1"
       inkscape:connector-curvature="0" />
  </g>
</svg>
