<?xml version="1.0" encoding="UTF-8" standalone="no"?>
<svg
   xmlns:dc="http://purl.org/dc/elements/1.1/"
   xmlns:cc="http://creativecommons.org/ns#"
   xmlns:rdf="http://www.w3.org/1999/02/22-rdf-syntax-ns#"
   xmlns:svg="http://www.w3.org/2000/svg"
   xmlns="http://www.w3.org/2000/svg"
   xmlns:sodipodi="http://sodipodi.sourceforge.net/DTD/sodipodi-0.dtd"
   xmlns:inkscape="http://www.inkscape.org/namespaces/inkscape"
   width="3000pt"
   height="417pt"
   viewBox="0 0 3000 417"
   version="1.1"
   id="svg2"
   inkscape:version="0.91 r13725"
   sodipodi:docname="Viceland.svg"
   inkscape:export-filename="C:\Users\Jasmeet\Desktop\Viceland - Dark.png"
   inkscape:export-xdpi="96"
   inkscape:export-ydpi="96">
  <metadata
     id="metadata25">
    <rdf:RDF>
      <cc:Work
         rdf:about="">
        <dc:format>image/svg+xml</dc:format>
        <dc:type
           rdf:resource="http://purl.org/dc/dcmitype/StillImage" />
        <dc:title></dc:title>
      </cc:Work>
    </rdf:RDF>
  </metadata>
  <defs
     id="defs23" />
  <sodipodi:namedview
     pagecolor="#ffffff"
     bordercolor="#666666"
     borderopacity="1"
     objecttolerance="10"
     gridtolerance="10"
     guidetolerance="10"
     inkscape:pageopacity="0"
     inkscape:pageshadow="2"
     inkscape:window-width="1920"
     inkscape:window-height="1017"
     id="namedview21"
     showgrid="false"
     fit-margin-top="0"
     fit-margin-left="0"
     fit-margin-right="0"
     fit-margin-bottom="0"
     inkscape:zoom="0.43444641"
     inkscape:cx="2261.1866"
     inkscape:cy="170.55203"
     inkscape:window-x="-8"
     inkscape:window-y="-8"
     inkscape:window-maximized="1"
     inkscape:current-layer="svg2" />
  <g
     id="g4153"
     style="fill:#ffffff;fill-opacity:1">
    <g
       id="#000000ff"
       style="fill:#ffffff;fill-opacity:1">
      <path
         sodipodi:nodetypes="ccccccccccccccccccccccccccc"
         style="opacity:1;fill:#ffffff;fill-opacity:1"
         inkscape:connector-curvature="0"
         id="path5"
         d="m 777.53,0 22.98,0 c 38.39,1.59 77.6,9.4 110.63,29.87 26.48,16.14 47.49,40.73 59.82,69.15 8.78,19.81 13.71,41.18 15.89,62.69 l -123.31,0.02 c -1.64,-17.68 -8.08,-35.7 -21.46,-47.9 -12.92,-11.92 -30.86,-16.91 -48.14,-16.86 -13.54,-0.24 -27.35,3.57 -38.22,11.79 -11.77,8.72 -19.71,21.64 -24.89,35.15 -7.99,21.05 -10.14,43.78 -10.51,66.13 0.07,21.33 1.19,43.11 8.25,63.43 4.82,13.91 13.32,27.03 25.84,35.15 14.23,9.41 31.85,12.02 48.61,11.3 15.21,-0.7 30.48,-6.61 40.97,-17.88 12.48,-13.23 18.3,-31.3 20.61,-49.01 l 125,-0.01 c -3.53,32.27 -13.96,64.2 -32.8,90.84 -17.16,24.6 -41.42,44.01 -68.84,56.02 -24.05,10.71 -50.28,15.81 -76.48,17.12 l -23.02,0 c -27.74,-1.26 -55.52,-6.06 -81.36,-16.45 -30.79,-12.23 -58.43,-32.8 -77.9,-59.71 -21.73,-29.58 -33.36,-65.62 -37.17,-101.88 -4.29,-41.72 -0.36,-84.99 16.18,-123.84 C 621.43,83.7 643.09,55.71 670.92,35.9 701.8,13.52 739.61,1.82 777.53,0 Z" />
      <path
         sodipodi:nodetypes="cccccccccc"
         style="opacity:1;fill:#ffffff;fill-opacity:1"
         inkscape:connector-curvature="0"
         id="path7"
         d="m 0,10.25 130.85,-0.02 69.17,262.9 71.92,-262.9 131.02,0.03 C 357.23,142.44 311.29,274.55 265.52,406.72 l -130.45,0.03 C 98.21,298.69 61.32,190.65 24.46,82.59 16.23,58.93 8.51,35.09 0,11.53 Z" />
      <path
         sodipodi:nodetypes="ccccc"
         style="opacity:1;fill:#ffffff;fill-opacity:1"
         inkscape:connector-curvature="0"
         id="path9"
         d="m 421.25,10.26 129.73,-0.02 -0.01,396.52 -129.71,-0.01 z" />
      <path
         sodipodi:nodetypes="ccccccccccccc"
         style="opacity:1;fill:#ffffff;fill-opacity:1"
         inkscape:connector-curvature="0"
         id="path11"
         d="m 1032.45,10.35 322.76,-0.11 0.04,92.75 -193.01,0.03 -0.02,56.42 176.06,0.13 c -0.07,30.81 -0.01,61.62 -0.03,92.42 l -176.01,0.03 0,61.96 200.75,0.02 -0.01,92.76 -330.4,0.03 z" />
      <path
         sodipodi:nodetypes="ccccccc"
         style="opacity:1;fill:#ffffff;fill-opacity:1"
         inkscape:connector-curvature="0"
         id="path13"
         d="m 1419.02,10.24 129.96,0 0.03,303.76 177.99,0 -0.02,92.76 -307.96,0 z" />
      <path
         sodipodi:nodetypes="cccccccccccccc"
         style="opacity:1;fill:#ffffff;fill-opacity:1"
         inkscape:connector-curvature="0"
         id="path15"
         d="m 1889.41,10.28 132.13,-0.02 c 47.19,132.19 94.63,264.3 141.82,396.49 l -129.38,0.01 -15.26,-52.1 -129.12,-0.16 -14.82,52.26 -127.22,-0.19 c 47.32,-132.08 94.56,-264.19 141.85,-396.29 m 61.66,131.71 c -12.12,43.29 -24.61,86.49 -36.55,129.82 l 81.44,-0.08 -41.5,-141.19 z" />
      <path
         sodipodi:nodetypes="ccccccccccccccccc"
         style="opacity:1;fill:#ffffff;fill-opacity:1"
         inkscape:connector-curvature="0"
         id="path17"
         d="m 2182.8,10.24 121.69,0.1 c 43.27,66.63 86.87,133.05 130.26,199.6 3.54,5.15 6.6,10.65 10.45,15.58 -0.99,-20.84 -2.26,-41.68 -3.35,-62.52 -0.48,-11.02 -1.57,-22.01 -1.35,-33.05 0.01,-39.9 -0.04,-79.81 0.02,-119.71 l 124.23,0.02 0,396.48 -121.54,0.03 c -45.5,-69.47 -90.98,-138.94 -136.48,-208.41 -1.49,-2.19 -2.76,-4.55 -4.55,-6.51 1.48,24.38 2.68,48.78 4.07,73.16 1.25,16.64 0.58,33.34 0.75,50.01 -0.01,30.58 0.02,61.16 -0.02,91.74 l -124.19,0 z" />
      <path
         sodipodi:nodetypes="ccccccccccccccccccccc"
         style="opacity:1;fill:#ffffff;fill-opacity:1"
         inkscape:connector-curvature="0"
         id="path19"
         d="m 2619.76,10.25 135.24,0 c 25.7,0.17 51.48,-0.79 77.08,2.06 36.73,3.95 73.81,14.53 103.73,36.91 25.07,18.42 43.36,45.23 53.03,74.66 7,20.51 9.99,42.13 11.16,63.69 l 0,26.05 c -1.48,35.66 -7.67,71.95 -24.59,103.75 -14.44,27.63 -37.64,50.46 -65.4,64.62 -36.83,19.05 -78.98,24.51 -119.97,24.77 -56.76,-0.03 -113.51,-0.01 -170.27,-0.01 l -0.01,-396.5 m 129.75,92.75 0,211 c 12.15,-0.14 24.32,0.3 36.47,-0.27 14.23,-0.84 28.61,-3.72 41.29,-10.49 14.84,-7.6 26.24,-21.01 32.69,-36.27 8.59,-20.12 10.42,-42.34 10.27,-63.98 -0.65,-22.26 -2.04,-45.54 -12.65,-65.61 -6.95,-13.51 -19.7,-23.4 -34.04,-28.05 -23.84,-7.92 -49.31,-6.09 -74.03,-6.33 z" />
    </g>
  </g>
</svg>
