<svg height="11.172881mm" viewBox="0 0 38.885181 39.588949" width="10.974262mm" xmlns="http://www.w3.org/2000/svg" xmlns:xlink="http://www.w3.org/1999/xlink"><clipPath id="a"><path d="m0 0h419.528v595.275h-419.528z"/></clipPath><clipPath id="b"><path d="m0 0h419.528v595.275h-419.528z"/></clipPath><g transform="translate(-383.41455 -363.9964)"><path d="m420.43924 369.5414c-4.0775-5.145-13.6625-5.545-16.5025-5.545-.41375 0-.66625.009-.71625.01l-.725.004c-.0563-.002-.3075-.0113-.71875-.0113-2.84125 0-12.42625.4-16.5025 5.54375-1.78875 2.2575-2.29 5.13-1.49125 8.5375 3.39375 14.46125 15.56625 25.305 18.68 25.4925.1475.009.29125.0125.4275.0125.19625 0 .32125-.009.36625-.0138 1.77375-.085 5.74-3.25375 9.23875-7.38375 2.67875-3.1625 7.46625-9.71875 9.435-18.1075.8-3.4075.29875-6.28125-1.49125-8.53875" fill="#fff"/><path d="m0 0-.963 2.573h-1.141l1.692-4.227h.805l1.711 4.227h-1.128z" transform="matrix(1.25 0 0 -1.25 390.98937 381.75928)"/><g clip-path="url(#b)" transform="matrix(1.25 0 0 -1.25 342.38537 717.89227)"><g transform="translate(41.7162 271.4877)"><path d="m0 0c-.299 0-.539-.239-.539-.539 0-.299.24-.538.539-.538s.539.239.539.538c0 .3-.24.539-.539.539"/></g></g><path d="m0 0h-.97v-.862h-.443v-.843h.443v-2.028h.97v2.028h.684v.843h-.684z" transform="matrix(1.25 0 0 -1.25 401.66712 379.16078)"/><g clip-path="url(#a)" transform="matrix(1.25 0 0 -1.25 342.38537 717.89227)"><g transform="translate(44.6759 270.1929)"><path d="m0 0c-.317 0-.57-.101-.748-.285-.038-.045-.082-.089-.127-.146v.361h-.963v-2.871h.963v1.54c0 .374.184.59.507.59.165 0 .324-.089.381-.222.057-.12.063-.139.063-.456v-1.452h.963v1.826c0 .399-.057.583-.253.798-.19.209-.456.317-.786.317"/></g></g><path d="m393.92787 383.82728h1.205v-3.58875h-1.205z"/><path d="m0 0-.405 1.083h-.48l.712-1.779h.338l.72 1.779h-.474z" transform="matrix(1.25 0 0 -1.25 416.93224 378.34953)"/><path d="m0 0h .36v-1.387h.437v1.387h.363v.392h-1.16z" transform="matrix(1.25 0 0 -1.25 414.32899 377.48615)"/><path d="m405.56624 380.58678c-.1975-.22125-.30125-.285-.53875-.3725-.16625-.055-.34-.095-.5225-.095-.96625 0-1.71125.8325-1.71125 1.90125 0 1.09375.7525 1.925 1.72625 1.925.365 0 .71375-.13375.9275-.36375.0238-.0325.0712-.08.11875-.15125v.39625h1.20375v-3.58875h-1.20375zm-.73625 2.26625c-.43625 0-.785-.365-.785-.81625 0-.46.34875-.82375.785-.82375.4275 0 .77625.3725.77625.82375s-.34875.81625-.77625.81625"/><path d="m410.07412 380.61065c-.19-.23-.29375-.30875-.515-.38875-.15875-.055-.325-.0863-.49875-.0863-.99125 0-1.735.83125-1.735 1.94875 0 1.06875.68875 1.8225 1.67875 1.8225.43625 0 .71375-.1275 1.07-.48375v.34c0 .54-.285.86375-.77625.86375-.30875 0-.49125-.11875-.57875-.35625h-1.355c.0562.34125.11875.46.3725.73625.38.43625.88.635 1.56125.635.6575 0 1.15625-.19 1.52125-.57875.35625-.38.45875-.705.45875-1.48125v-3.34375h-1.20375v.3725zm-.71375 2.22625c-.435 0-.78375-.365-.78375-.81625s.34875-.81625.78375-.81625c.42875 0 .7775.365.7775.81625s-.34875.81625-.7775.81625"/><path d="m413.74212 380.13528c-1.18875 0-1.9175.72875-1.9175 1.925 0 1.15625.76875 1.91 1.94125 1.91.6175 0 1.14875-.215 1.4575-.595.15875-.1975.21375-.31625.30875-.64125h-1.16375c-.15125.245-.30125.3325-.58625.3325-.49125 0-.7375-.26125-.7375-.8h2.535v-.135c0-1.23625-.69625-1.99625-1.8375-1.99625m-.66625 1.39375c.0637-.36375.31-.5775.67375-.5775.365 0 .62625.22125.705.5775z"/></g></svg>