<svg height="65.636" viewBox="0 0 158.75 17.366251" width="600" xmlns="http://www.w3.org/2000/svg"><g transform="translate(-20.719 -136.99)"><path d="m127.23 137c-4.0656 0-8.6056 2.9872-8.6056 8.693 0 5.6909 4.54 8.6675 8.6056 8.6675 4.0706 0 8.6238-2.9766 8.6238-8.6675 0-5.7058-4.5532-8.693-8.6238-8.693zm0 1.4015c4.5676 0 7.0803 3.78 7.0803 7.2915 0 3.6108-2.714 7.266-7.0803 7.266-4.5576 0-7.0621-3.767-7.0621-7.266 0-5.01 3.8663-7.2915 7.0621-7.2915z" stroke-width="2.4851"/><path d="m124.82 142.31c-.57406 0-1.076.17725-1.5034.53512-.7157.59392-1.1431 1.6344-1.1431 2.7775v.10195c0 1.1431.42736 2.1836 1.1431 2.7775.42743.35785.92937.53875 1.5034.53875.78529 0 1.5306-.35205 2.0276-.65524.6337-.40506 1.2043-.93627 1.7983-1.6818.49205.56908 1.3136 1.1758 2.166 1.1758l.38951-.0473c.8499-.19633 1.4015-1.0429 1.4015-2.1587 0-1.1307-.5367-1.9574-1.4015-2.1587l-.38951-.0436c-.85238 0-1.6739.60557-2.166 1.1722-.59395-.74553-1.1667-1.2766-1.8129-1.6891-.4821-.29821-1.2278-.64432-2.0131-.64432zm0 1.2522c.39263 0 .86594.16178 1.3505.45504.57653.37276 1.1076.88843 1.6891 1.6563-.57903.76789-1.1116 1.2837-1.6782 1.649-.49703.30319-.96884.46596-1.3615.46596-.27336 0-.50625-.0811-.70258-.24754-.50944-.42495-.69165-1.2201-.69165-1.8165v-.10196c0-.60139.18228-1.3904.69165-1.8129.19633-.16644.42922-.24754.70258-.24754zm5.9919 1.1613.1055.007c.29821.0721.42956.52533.42956.94283 0 .41749-.13141.86962-.42956.93919l-.1055.0149c-.41003 0-.96941-.42625-1.285-.82635l-.0982-.12749.0982-.12748c.31559-.39761.87496-.82269 1.285-.82269z" stroke-width="2.4851"/><path d="m21.119 137.3h.74335a.40007.40007 0 0 1  .37526.26138l5.423 14.673 5.4801-14.674a.40007.40007 0 0 1  .37479-.2601h.71832a.40007.40007 0 0 1  .37336.5438l-6.1334 15.932a.40007.40007 0 0 1 -.37336.25634h-.93573a.40007.40007 0 0 1 -.37405-.25813l-6.0457-15.932a.40007.40007 0 0 1  .37404-.54201z"/><path d="m36.741 153.64v-15.932a.40007.40007 0 0 1  .40006-.40007h.70941a.40007.40007 0 0 1  .40007.40007v15.932a.40007.40007 0 0 1 -.40007.40007h-.70941a.40007.40007 0 0 1 -.40006-.40007z"/><path d="m41.505 153.64v-15.932a.40007.40007 0 0 1  .40007-.40007h5.4422c.75285 0 1.4327.12291 2.0396.36874.60688.23814 1.1293.57231 1.5672 1.0025.44556.42252.78741.9257 1.0256 1.5096.23815.58384.35722 1.2138.35722 1.8898 0 .61457-.0999 1.1869-.2996 1.717-.19974.52239-.48398.98332-.85272 1.3828-.36875.39948-.81431.73365-1.3367 1.0025-.5147.26887-1.087.44172-1.717.51855l3.811 6.7434a.40007.40007 0 0 1 -.34829.59692h-.81952a.40007.40007 0 0 1 -.34932-.20507l-3.9187-7.02h-3.4915v6.825a.40007.40007 0 0 1 -.40007.40007h-.7094a.40007.40007 0 0 1 -.40007-.40007zm1.5095-8.1847h4.0792c1.1139 0 2.0089-.30728 2.6849-.92186.67603-.61458 1.014-1.4327 1.014-2.4544 0-1.0371-.33802-1.8668-1.014-2.489-.67602-.62225-1.571-.93338-2.6849-.93338h-4.0792z"/><path d="m53.692 145.66c0-1.3982.22663-2.635.67988-3.7105.46093-1.0832 1.0678-1.9897 1.8207-2.7195.76053-.7298 1.6286-1.2829 2.6042-1.6593.97564-.38411 1.9743-.57616 2.996-.57616.89881 0 1.7362.12291 2.5121.36874s1.475.59152 2.0972 1.0371c.62226.43789 1.16.96411 1.6132 1.5787.38893.51209.69582 1.0789.92066 1.7004.0694.19194-.036.41518-.22415.49464l-.61244.2587c-.2119.0895-.43787-.0166-.51914-.23172-.4234-1.1208-1.1004-2.0189-2.0309-2.6944-1.0294-.76053-2.2816-1.1408-3.7566-1.1408-.85272 0-1.6747.15365-2.466.46093-.78359.30729-1.4827.76822-2.0972 1.3828-.60688.61458-1.0985 1.379-1.475 2.2931-.36873.9065-.55311 1.959-.55311 3.1574 0 1.2138.18438 2.2778.55311 3.1919.37643.90649.86425 1.667 1.4634 2.2816.6069.61457 1.2944 1.0793 2.0627 1.3943.7759.31496 1.5556.47245 2.3392.47245 1.0986 0 2.0204-.18437 2.7656-.55312.75285-.36874 1.3598-.82967 1.8207-1.3828.46861-.5531.80278-1.1446 1.0025-1.7746.20742-.62994.31881-1.2099.33417-1.74h-5.7764a.40007.40007 0 0 1 -.40007-.40006v-.57113a.40007.40007 0 0 1  .40007-.40007h6.7937a.40007.40007 0 0 1  .40007.40007v7.0587a.40007.40007 0 0 1 -.40007.40007h-.39195a.40007.40007 0 0 1 -.3997-.383l-.12193-2.855c-.15364.36105-.39179.749-.71444 1.1638-.31497.40716-.71828.78743-1.2099 1.1408-.48398.35338-1.0678.64914-1.7515.88729s-1.4826.35722-2.3968.35722c-.97564 0-1.9359-.18821-2.8808-.56464-.93722-.3841-1.7784-.94106-2.5236-1.6709-.73749-.7298-1.3367-1.6325-1.7976-2.708-.45325-1.0832-.67988-2.3316-.67988-3.7451z"/><path d="m72.079 153.64v-15.932a.40007.40007 0 0 1  .40007-.40007h.70941a.40007.40007 0 0 1  .40007.40007v15.932a.40007.40007 0 0 1 -.40007.40007h-.70941a.40007.40007 0 0 1 -.40007-.40007z"/><path d="m76.84 153.64v-15.932a.40007.40007 0 0 1  .40007-.40007h1.4385a.40007.40007 0 0 1  .33151.17612l9.526 14.101v-13.877a.40007.40007 0 0 1  .40007-.40007h.68636a.40007.40007 0 0 1  .40007.40007v15.932a.40007.40007 0 0 1 -.40007.40007h-.96697a.40007.40007 0 0 1 -.33074-.17497l-9.9983-14.69v14.465a.40007.40007 0 0 1 -.40007.40007h-.68637a.40007.40007 0 0 1 -.40007-.40007z"/><path d="m98.997 153.64v-15.932a.40007.40007 0 0 1  .40007-.40007h1.4385a.40007.40007 0 0 1  .36481.23587l6.5428 14.537 6.5542-14.537a.40007.40007 0 0 1  .36471-.23563h1.4156a.40007.40007 0 0 1  .40007.40007v15.932a.40007.40007 0 0 1 -.40007.40007h-.68635a.40007.40007 0 0 1 -.40007-.40007v-14.085l-6.4503 14.25a.40007.40007 0 0 1 -.36446.23509h-.9009a.40007.40007 0 0 1 -.36468-.23557l-6.4274-14.249v14.085a.40007.40007 0 0 1 -.40007.40007h-.68636a.40007.40007 0 0 1 -.40007-.40007z"/><path d="m136.08 137.3h.74336a.40007.40007 0 0 1  .37527.26138l5.423 14.673 5.4801-14.674a.40007.40007 0 0 1  .37478-.2601h.71833a.40007.40007 0 0 1  .37335.5438l-6.1334 15.932a.40007.40007 0 0 1 -.37336.25634h-.93574a.40007.40007 0 0 1 -.37404-.25813l-6.0457-15.932a.40007.40007 0 0 1  .37404-.54201z"/><path d="m151.7 153.64v-15.932a.40007.40007 0 0 1  .40007-.40007h.7094a.40007.40007 0 0 1  .40007.40007v15.932a.40007.40007 0 0 1 -.40007.40007h-.7094a.40007.40007 0 0 1 -.40007-.40007z"/><path d="m156.47 153.64v-15.932a.40007.40007 0 0 1  .40006-.40007h9.0638a.40007.40007 0 0 1  .40007.40007v.57112a.40007.40007 0 0 1 -.40007.40007h-7.9773v6.3032h7.2398a.40007.40007 0 0 1  .40007.40007v.55961a.40007.40007 0 0 1 -.40007.40006h-7.2398v6.3263h7.9773a.40007.40007 0 0 1  .40007.40007v.57112a.40007.40007 0 0 1 -.40007.40007h-9.0638a.40007.40007 0 0 1 -.40006-.40007z"/><path d="m168.25 149.26.6379-.20033c.2414-.0758.45173.0679.49617.31688.0687.38516.18351.75231.34425 1.1015.23046.48398.54159.91802.93338 1.3021.39947.37642.86809.67602 1.4058.89881.54543.2151 1.1638.32265 1.8552.32265.6453 0 1.2176-.0806 1.717-.24198.50703-.16901.93339-.39948 1.2791-.6914.3457-.29192.60689-.63377.78358-1.0256.18438-.39179.27656-.81815.27656-1.2791 0-.78358-.26119-1.4442-.78358-1.982-.5147-.54543-1.2522-.92954-2.2125-1.1523l-2.5236-.58769c-.56847-.12291-1.087-.30728-1.5556-.5531-.46861-.24584-.87576-.54928-1.2215-.91034-.33801-.36106-.60689-.77591-.80663-1.2445-.19205-.47629-.28807-1.014-.28807-1.6132 0-.6453.14596-1.256.43788-1.8322.29192-.57616.67603-1.0755 1.1523-1.498.48397-.42253 1.0448-.76053 1.6824-1.014.63761-.25351 1.3021-.38026 1.9935-.38026.85273 0 1.594.11523 2.224.3457.63761.23047 1.1715.53391 1.6017.91033.43789.37643.78743.81431 1.0486 1.3136.20327.38263.36466.7792.48418 1.1897.0565.19413-.0625.40945-.25307.47739l-.58519.20864c-.21811.0777-.43323-.0434-.50134-.26462-.0859-.27905-.19638-.55107-.33147-.81605-.19206-.39947-.45325-.74901-.78359-1.0486-.33033-.2996-.73365-.53776-1.2099-.71445-.46861-.18437-1.0179-.27655-1.6478-.27655-.50702 0-.98717.0806-1.4404.24199-.45325.15364-.85656.37642-1.2099.66834s-.63762.64146-.85272 1.0486c-.21511.40716-.32266.85656-.32266 1.3482 0 .75285.22663 1.3828.67988 1.8898.46093.49933 1.1178.85271 1.9705 1.0601l2.5466.58768c1.306.31497 2.3316.84504 3.0767 1.5902s1.1178 1.7093 1.1178 2.8923c0 .6453-.1306 1.2522-.3918 1.8207-.25351.5608-.6261 1.0563-1.1178 1.4865-.48398.42252-1.064.76053-1.74 1.014-.67603.25351-1.4404.38026-2.2931.38026-.92954 0-1.7477-.14212-2.4545-.42636-.70675-.28424-1.3136-.65298-1.8207-1.1062-.49934-.46093-.89498-.991-1.1869-1.5902-.24159-.49589-.40427-1.0076-.48801-1.535-.0289-.18239.10089-.37661.27724-.43199z"/></g></svg>