<?xml version="1.0" encoding="UTF-8" standalone="no"?>
<!-- Created with Inkscape (http://www.inkscape.org/) -->

<svg
   xmlns:dc="http://purl.org/dc/elements/1.1/"
   xmlns:cc="http://creativecommons.org/ns#"
   xmlns:rdf="http://www.w3.org/1999/02/22-rdf-syntax-ns#"
   xmlns:svg="http://www.w3.org/2000/svg"
   xmlns="http://www.w3.org/2000/svg"
   xmlns:sodipodi="http://sodipodi.sourceforge.net/DTD/sodipodi-0.dtd"
   xmlns:inkscape="http://www.inkscape.org/namespaces/inkscape"
   width="14.012428mm"
   height="5.3887124mm"
   viewBox="0 0 49.650336 19.093863"
   id="svg9680"
   version="1.1"
   inkscape:version="0.91 r13725"
   sodipodi:docname="Viva +1.svg">
  <defs
     id="defs9682">
    <clipPath
       clipPathUnits="userSpaceOnUse"
       id="clipPath2318">
      <path
         d="m 99.662,343.614 39.721,0 0,15.276 -39.721,0 0,-15.276 z"
         id="path2320"
         inkscape:connector-curvature="0" />
    </clipPath>
    <clipPath
       clipPathUnits="userSpaceOnUse"
       id="clipPath2302">
      <path
         d="m 96.722,336.682 45.105,0 0,27.534 -45.105,0 0,-27.534 z"
         id="path2304"
         inkscape:connector-curvature="0" />
    </clipPath>
    <clipPath
       clipPathUnits="userSpaceOnUse"
       id="clipPath2286">
      <path
         d="m 99.662,343.614 39.721,0 0,15.276 -39.721,0 0,-15.276 z"
         id="path2288"
         inkscape:connector-curvature="0" />
    </clipPath>
  </defs>
  <sodipodi:namedview
     id="base"
     pagecolor="#ffffff"
     bordercolor="#666666"
     borderopacity="1.0"
     inkscape:pageopacity="0.0"
     inkscape:pageshadow="2"
     inkscape:zoom="0.35"
     inkscape:cx="-310.17483"
     inkscape:cy="-139.02449"
     inkscape:document-units="px"
     inkscape:current-layer="layer1"
     showgrid="false"
     fit-margin-top="0"
     fit-margin-left="0"
     fit-margin-right="0"
     fit-margin-bottom="0"
     inkscape:window-width="1920"
     inkscape:window-height="1017"
     inkscape:window-x="-8"
     inkscape:window-y="-8"
     inkscape:window-maximized="1" />
  <metadata
     id="metadata9685">
    <rdf:RDF>
      <cc:Work
         rdf:about="">
        <dc:format>image/svg+xml</dc:format>
        <dc:type
           rdf:resource="http://purl.org/dc/dcmitype/StillImage" />
        <dc:title></dc:title>
      </cc:Work>
    </rdf:RDF>
  </metadata>
  <g
     inkscape:label="Layer 1"
     inkscape:groupmode="layer"
     id="layer1"
     transform="translate(-258.03197,-374.24385)">
    <g
       transform="matrix(1.25,0,0,-1.25,133.45377,822.85521)"
       id="g2282">
      <g
         id="g2284"
         clip-path="url(#clipPath2286)">
        <g
           id="g2290"
           transform="translate(112.0422,355.2974)">
          <path
             d="m 0,0 -2.468,-4.024 c -0.073,-0.119 -0.118,-0.331 -0.1,-0.47 l 0.757,-5.747 c 0.018,-0.139 0.147,-0.238 0.286,-0.22 l 2.759,0.364 c 0.139,0.018 0.238,0.147 0.22,0.286 L 0.167,-0.035 C 0.148,0.104 0.073,0.12 0,0"
             style="fill:#d83267;fill-opacity:1;fill-rule:nonzero;stroke:none"
             id="path2292"
             inkscape:connector-curvature="0" />
        </g>
        <g
           id="g2294"
           transform="translate(110.7359,355.3248)">
          <path
             d="M 0,0 -3.431,-0.452 C -3.57,-0.47 -3.744,-0.583 -3.817,-0.702 l -3.414,-5.567 c -0.073,-0.119 -0.148,-0.103 -0.166,0.035 l -0.647,4.918 c -0.019,0.139 -0.147,0.238 -0.286,0.219 l -2.522,-0.331 c -0.139,-0.019 -0.238,-0.148 -0.219,-0.287 l 1.287,-9.775 c 0.018,-0.139 0.147,-0.238 0.286,-0.219 l 2.521,0.331 c 0.139,0.019 0.313,0.131 0.386,0.251 l 6.71,10.943 C 0.193,-0.065 0.139,0.019 0,0"
             style="fill:#d83267;fill-opacity:1;fill-rule:nonzero;stroke:none"
             id="path2296"
             inkscape:connector-curvature="0" />
        </g>
      </g>
    </g>
    <g
       transform="matrix(1.25,0,0,-1.25,133.45377,822.85521)"
       id="g2298">
      <g
         id="g2300"
         clip-path="url(#clipPath2302)">
        <g
           id="g2306"
           transform="translate(124.2757,357.1078)">
          <path
             d="m 0,0 -3.383,-0.445 c -0.139,-0.019 -0.312,-0.132 -0.386,-0.251 l -3.432,-5.595 c -0.073,-0.12 -0.149,-0.103 -0.167,0.035 l -0.65,4.943 c -0.019,0.139 -0.148,0.239 -0.287,0.219 l -2.521,-0.331 c -0.139,-0.019 -0.238,-0.148 -0.219,-0.287 l 1.287,-9.775 c 0.018,-0.14 0.147,-0.237 0.286,-0.219 l 2.495,0.328 c 0.139,0.018 0.313,0.131 0.386,0.25 l 6.71,10.944 C 0.193,-0.065 0.139,0.018 0,0"
             style="fill:#d83267;fill-opacity:1;fill-rule:nonzero;stroke:none"
             id="path2308"
             inkscape:connector-curvature="0" />
        </g>
        <g
           id="g2310"
           transform="translate(125.4909,351.0782)">
          <path
             d="M 0,0 1.489,2.429 C 1.562,2.548 1.637,2.533 1.656,2.393 L 1.937,0.255 0,0 Z M 3.91,6.704 0.48,6.253 C 0.341,6.234 0.167,6.121 0.094,6.002 L -6.602,-4.939 c -0.073,-0.12 -0.019,-0.202 0.12,-0.184 l 3.38,0.445 c 0.14,0.018 0.314,0.13 0.386,0.25 l 0.975,1.59 4.016,0.528 0.182,-1.379 c 0.018,-0.14 0.147,-0.238 0.286,-0.22 l 2.521,0.332 c 0.139,0.018 0.238,0.147 0.22,0.286 L 4.196,6.485 C 4.178,6.624 4.049,6.722 3.91,6.704"
             style="fill:#d83267;fill-opacity:1;fill-rule:nonzero;stroke:none"
             id="path2312"
             inkscape:connector-curvature="0" />
        </g>
      </g>
    </g>
    <g
       transform="matrix(1.25,0,0,-1.25,133.45377,822.85521)"
       id="g2314">
      <g
         id="g2316"
         clip-path="url(#clipPath2318)">
        <g
           id="g2322"
           transform="translate(136.1594,355.7885)">
          <path
             d="m 0,0 c 0.015,-0.116 -0.073,-0.182 -0.189,-0.197 l -1.715,-0.226 0.224,-1.704 c 0.015,-0.117 -0.025,-0.219 -0.141,-0.235 l -0.741,-0.097 c -0.117,-0.015 -0.182,0.073 -0.198,0.189 l -0.224,1.705 -1.705,-0.225 c -0.116,-0.015 -0.218,0.025 -0.233,0.142 L -5.02,0.093 c -0.016,0.116 0.073,0.182 0.189,0.197 l 1.705,0.225 -0.226,1.715 c -0.015,0.116 0.025,0.218 0.142,0.234 l 0.741,0.097 c 0.116,0.015 0.182,-0.073 0.197,-0.189 l 0.226,-1.715 1.714,0.225 c 0.117,0.016 0.219,-0.024 0.235,-0.141 L 0,0 Z"
             style="fill:#d83267;fill-opacity:1;fill-rule:nonzero;stroke:none"
             id="path2324"
             inkscape:connector-curvature="0" />
        </g>
        <g
           id="g2326"
           transform="translate(136.5696,353.7308)">
          <path
             d="M 0,0 C -0.073,-0.01 -0.141,0.042 -0.15,0.115 L -0.217,0.62 C -0.226,0.693 -0.173,0.748 -0.1,0.757 L 0.79,0.874 0.36,4.142 -0.475,3.762 C -0.494,3.753 -0.52,3.743 -0.553,3.738 -0.599,3.732 -0.63,3.755 -0.636,3.808 l -0.083,0.625 c -0.004,0.033 0.006,0.061 0.037,0.079 l 1.125,0.54 C 0.487,5.078 0.519,5.089 0.592,5.098 L 1.031,5.156 C 1.117,5.168 1.162,5.133 1.174,5.047 L 1.707,0.995 2.597,1.112 C 2.67,1.122 2.736,1.083 2.746,1.01 L 2.812,0.505 C 2.822,0.432 2.77,0.365 2.697,0.355 L 0,0 Z"
             style="fill:#d83267;fill-opacity:1;fill-rule:nonzero;stroke:none"
             id="path2328"
             inkscape:connector-curvature="0" />
        </g>
      </g>
    </g>
  </g>
</svg>
