<svg height="348.75006pt" viewBox="0 0 831.94799 348.75006" width="831.94794pt" xmlns="http://www.w3.org/2000/svg"><g fill="#c22634" stroke="#000" stroke-width="1.477711" transform="matrix(7.3438533 0 0 7.3438533 924.40671 5862.4216)"><path d="m-95.570312-783.25977 10.117187 14.88282h-7.832031l-6.816404-9.96094-6.75782 9.96094h-7.87109l10.11719-14.88282-9.72656-14.27734h7.85156l6.38672 9.39453 6.367185-9.39453h7.890625z"/><path d="m-64.710937-783.25977 10.117187 14.88282h-7.832031l-6.816406-9.96094-6.757813 9.96094h-7.871094l10.117188-14.88282-9.726563-14.27734h7.851563l6.386719 9.39453 6.367187-9.39453h7.890625z"/><path d="m-33.851562-783.25977 10.117187 14.88282h-7.832031l-6.816406-9.96094-6.757813 9.96094h-7.871094l10.117188-14.88282-9.726563-14.27734h7.851563l6.386719 9.39453 6.367187-9.39453h7.890625z"/></g><g transform="matrix(3.7185278 0 0 3.7185278 2450.9093 -2030.5049)"><path d="m-637.93555 633.95898h-11.75781l-1.85547 5.3125h-7.55859l10.80078-29.16015h8.96484l10.80078 29.16015h-7.55859zm-9.88281-5.41015h7.98828l-3.98437-11.60156z"/><path d="m-598.48242 637.10352q-2.8125 1.36718-5.83985 2.05078-3.02734.68359-6.25.68359-7.28515 0-11.54296-4.0625-4.25782-4.08203-4.25782-11.05469 0-7.05078 4.33594-11.09375 4.33594-4.04297 11.875-4.04297 2.91016 0 5.56641.54688 2.67578.54687 5.03906 1.62109v6.03516q-2.44141-1.38672-4.86328-2.07031-2.40235-.6836-4.82422-.6836-4.49219 0-6.93359 2.51953-2.42188 2.5-2.42188 7.16797 0 4.62891 2.34375 7.14844 2.34375 2.51953 6.66016 2.51953 1.17187 0 2.16797-.13672 1.01562-.15625 1.8164-.46875v-5.66406h-4.58984v-5.03906h11.71875z"/><path d="m-591.88086 610.11133h20.29297v5.68359h-12.77344v5.42969h12.01172v5.68359h-12.01172v6.67969h13.20313v5.68359h-20.72266z"/><path d="m-524.41992 637.10352q-2.8125 1.36718-5.83985 2.05078-3.02734.68359-6.25.68359-7.28515 0-11.54296-4.0625-4.25782-4.08203-4.25782-11.05469 0-7.05078 4.33594-11.09375 4.33594-4.04297 11.875-4.04297 2.91016 0 5.56641.54688 2.67578.54687 5.03906 1.62109v6.03516q-2.44141-1.38672-4.86328-2.07031-2.40235-.6836-4.82422-.6836-4.49219 0-6.93359 2.51953-2.42188 2.5-2.42188 7.16797 0 4.62891 2.34375 7.14844 2.34375 2.51953 6.66016 2.51953 1.17187 0 2.16797-.13672 1.01562-.15625 1.8164-.46875v-5.66406h-4.58984v-5.03906h11.71875z"/><path d="m-500.12305 633.95898h-11.75781l-1.85547 5.3125h-7.55859l10.80078-29.16015h8.96484l10.80078 29.16015h-7.55859zm-9.88281-5.41015h7.98828l-3.98437-11.60156z"/><path d="m-486.88086 610.11133h12.48047q5.56641 0 8.53516 2.48047 2.98828 2.46093 2.98828 7.03125 0 4.58984-2.98828 7.07031-2.96875 2.46094-8.53516 2.46094h-4.96094v10.11718h-7.51953zm7.51953 5.44922v8.14453h4.16016q2.1875 0 3.3789-1.05469 1.19141-1.07422 1.19141-3.02734 0-1.95313-1.19141-3.00782-1.1914-1.05468-3.3789-1.05468z"/><path d="m-437.29102 611.0293v6.17187q-2.40234-1.07422-4.6875-1.62109-2.28515-.54688-4.3164-.54688-2.69531 0-3.98438.74219-1.28906.74219-1.28906 2.30469 0 1.17187.85938 1.83594.8789.64453 3.16406 1.11328l3.20312.64453q4.86328.97656 6.91407 2.96875 2.05078 1.99219 2.05078 5.66406 0 4.82422-2.8711 7.1875-2.85156 2.34375-8.73047 2.34375-2.77343 0-5.5664-.52734-2.79297-.52735-5.58594-1.5625v-6.34766q2.79297 1.48438 5.39063 2.24609 2.61718.74219 5.03906.74219 2.46094 0 3.76953-.82031 1.30859-.82031 1.30859-2.34375 0-1.36719-.89843-2.10938-.87891-.74218-3.53516-1.32812l-2.91016-.64453q-4.375-.9375-6.40625-2.98828-2.01172-2.05078-2.01172-5.52735 0-4.35547 2.8125-6.69922 2.8125-2.34375 8.08594-2.34375 2.40235 0 4.94141.3711 2.53906.35156 5.2539 1.07422z"/></g></svg>