<?xml version="1.0" encoding="UTF-8"?>
<!-- Generator: Adobe Illustrator 16.0.0, SVG Export Plug-In . SVG Version: 6.00 Build 0)  -->
<!DOCTYPE svg  PUBLIC '-//W3C//DTD SVG 1.1//EN'  'http://www.w3.org/Graphics/SVG/1.1/DTD/svg11.dtd'>
<svg id="svg33" width="831.95px" height="348.75px" enable-background="new 0 0 831.95 348.75" version="1.1" viewBox="0 0 831.95 348.75" xml:space="preserve" xmlns="http://www.w3.org/2000/svg">
<g id="flowRoot4561" transform="matrix(7.3439 0 0 7.3439 924.41 5862.4)" fill="#C22634" stroke="#000" stroke-width="1.4777">
	<path id="path4501" d="m-95.57-783.26 10.117 14.883h-7.832l-6.816-9.961-6.758 9.961h-7.871l10.117-14.883-9.727-14.277h7.852l6.387 9.394 6.367-9.394h7.891l-9.727 14.277z"/>
	<path id="path4503" d="m-64.711-783.26 10.117 14.883h-7.832l-6.816-9.961-6.758 9.961h-7.871l10.117-14.883-9.727-14.277h7.852l6.387 9.394 6.367-9.394h7.891l-9.727 14.277z"/>
	<path id="path4505" d="m-33.852-783.26 10.117 14.883h-7.832l-6.816-9.961-6.758 9.961h-7.871l10.117-14.883-9.727-14.277h7.852l6.387 9.394 6.367-9.394h7.891l-9.727 14.277z"/>
</g>
<g id="flowRoot4502" transform="matrix(3.7185 0 0 3.7185 2450.9 -2030.5)">
	<path id="path4512" d="m-637.94 633.96h-11.758l-1.856 5.312h-7.559l10.801-29.16h8.965l10.801 29.16h-7.559l-1.835-5.312zm-9.883-5.41h7.988l-3.984-11.602-4.004 11.602z"/>
	<path id="path4514" d="m-598.48 637.1c-1.875 0.911-3.822 1.595-5.84 2.051s-4.102 0.684-6.25 0.684c-4.857 0-8.704-1.354-11.543-4.063-2.838-2.721-4.258-6.406-4.258-11.055 0-4.7 1.445-8.399 4.336-11.094s6.849-4.043 11.875-4.043c1.94 0 3.796 0.182 5.566 0.547 1.784 0.365 3.464 0.905 5.039 1.621v6.035c-1.628-0.924-3.249-1.615-4.863-2.07-1.602-0.455-3.21-0.683-4.824-0.683-2.995 0-5.306 0.84-6.934 2.519-1.615 1.667-2.422 4.056-2.422 7.168 0 3.086 0.781 5.469 2.344 7.149s3.783 2.52 6.66 2.52c0.781 0 1.504-0.046 2.168-0.137 0.677-0.104 1.283-0.26 1.817-0.469v-5.664h-4.59v-5.039h11.719v14.023z"/>
	<path id="path4516" d="m-591.88 610.11h20.293v5.684h-12.773v5.43h12.012v5.683h-12.012v6.68h13.203v5.683h-20.723v-29.16z"/>
	<path id="path4518" d="m-524.42 637.1c-1.875 0.911-3.822 1.595-5.84 2.051-2.019 0.456-4.102 0.684-6.25 0.684-4.857 0-8.705-1.354-11.543-4.063-2.839-2.721-4.258-6.406-4.258-11.055 0-4.7 1.445-8.399 4.336-11.094s6.849-4.043 11.875-4.043c1.94 0 3.796 0.182 5.567 0.547 1.784 0.365 3.464 0.905 5.039 1.621v6.035c-1.628-0.924-3.249-1.615-4.863-2.07-1.601-0.455-3.21-0.683-4.824-0.683-2.995 0-5.306 0.84-6.934 2.519-1.615 1.667-2.422 4.056-2.422 7.168 0 3.086 0.782 5.469 2.344 7.149s3.782 2.52 6.66 2.52c0.781 0 1.504-0.046 2.168-0.137 0.677-0.104 1.282-0.26 1.816-0.469v-5.664h-4.59v-5.039h11.719v14.023z"/>
	<path id="path4520" d="m-500.12 633.96h-11.758l-1.855 5.312h-7.559l10.801-29.16h8.965l10.801 29.16h-7.558l-1.837-5.312zm-9.883-5.41h7.988l-3.984-11.602-4.004 11.602z"/>
	<path id="path4522" d="m-486.88 610.11h12.48c3.711 0 6.556 0.827 8.535 2.481 1.992 1.64 2.988 3.984 2.988 7.031 0 3.06-0.996 5.417-2.988 7.07-1.98 1.641-4.824 2.461-8.535 2.461h-4.961v10.117h-7.519v-29.16zm7.519 5.449v8.144h4.16c1.458 0 2.585-0.351 3.379-1.055 0.794-0.716 1.191-1.725 1.191-3.028 0-1.302-0.397-2.305-1.191-3.008s-1.921-1.055-3.379-1.055h-4.16z"/>
	<path id="path4524" d="m-437.29 611.03v6.172c-1.602-0.716-3.164-1.256-4.687-1.621-1.524-0.365-2.962-0.547-4.316-0.547-1.797 0-3.125 0.247-3.984 0.742s-1.289 1.263-1.289 2.305c0 0.781 0.286 1.393 0.859 1.836 0.586 0.43 1.641 0.801 3.164 1.113l3.203 0.645c3.242 0.651 5.547 1.64 6.914 2.969 1.367 1.328 2.051 3.216 2.051 5.664 0 3.216-0.957 5.612-2.871 7.187-1.901 1.562-4.811 2.344-8.731 2.344-1.849 0-3.704-0.176-5.566-0.527s-3.724-0.872-5.586-1.563v-6.348c1.862 0.99 3.659 1.738 5.391 2.246 1.745 0.495 3.425 0.742 5.039 0.742 1.64 0 2.897-0.273 3.769-0.82s1.309-1.328 1.309-2.344c0-0.911-0.299-1.615-0.899-2.109-0.586-0.495-1.764-0.938-3.535-1.328l-2.91-0.645c-2.917-0.625-5.052-1.621-6.406-2.988-1.341-1.367-2.012-3.209-2.012-5.527 0-2.904 0.938-5.137 2.813-6.699s4.57-2.344 8.086-2.344c1.601 0 3.249 0.124 4.941 0.371 1.692 0.234 3.443 0.592 5.253 1.074z"/>
</g>
</svg>
