<?xml version="1.0" encoding="UTF-8"?>
<!-- Generator: Adobe Illustrator 16.0.0, SVG Export Plug-In . SVG Version: 6.00 Build 0)  -->
<!DOCTYPE svg  PUBLIC '-//W3C//DTD SVG 1.1//EN'  'http://www.w3.org/Graphics/SVG/1.1/DTD/svg11.dtd'>
<svg id="svg33" width="1044.4px" height="348.75px" enable-background="new 0 0 1044.4 348.75" version="1.1" viewBox="0 0 1044.4 348.75" xml:space="preserve" xmlns="http://www.w3.org/2000/svg">
<g id="flowRoot4516" transform="matrix(3.7185 0 0 3.7185 -18.084 -708.39)" fill="#fff">
	<path id="path4532" d="m25.957 255.48v6.172c-1.601-0.716-3.164-1.256-4.687-1.621s-2.962-0.547-4.316-0.547c-1.797 0-3.125 0.247-3.984 0.742s-1.289 1.263-1.289 2.305c0 0.782 0.286 1.393 0.859 1.836 0.586 0.43 1.641 0.8 3.164 1.113l3.203 0.645c3.242 0.651 5.547 1.641 6.914 2.969s2.051 3.216 2.051 5.664c0 3.216-0.957 5.612-2.871 7.187-1.901 1.563-4.811 2.344-8.73 2.344-1.849 0-3.704-0.176-5.566-0.527-1.862-0.352-3.724-0.872-5.586-1.563v-6.348c1.862 0.99 3.659 1.738 5.391 2.246 1.745 0.495 3.424 0.742 5.039 0.742 1.641 0 2.897-0.273 3.77-0.82 0.872-0.547 1.309-1.328 1.309-2.344 0-0.911-0.299-1.615-0.898-2.109-0.586-0.495-1.764-0.938-3.535-1.328l-2.91-0.644c-2.917-0.625-5.052-1.621-6.406-2.988-1.341-1.367-2.012-3.21-2.012-5.527 0-2.904 0.937-5.137 2.812-6.699 1.875-1.563 4.57-2.344 8.086-2.344 1.601 0 3.249 0.123 4.941 0.371 1.69 0.233 3.441 0.591 5.251 1.073z"/>
	<path id="path4534" d="m31.016 254.56h26.875v5.684h-9.668v23.477h-7.52v-23.477h-9.687v-5.684z"/>
	<path id="path4536" d="M61.758,254.56h20.293v5.684H69.278v5.429H81.29v5.684H69.278v6.68h13.203v5.684H61.758   V254.56z"/>
	<path id="path4538" d="m89.102 254.56h12.48c3.711 0 6.556 0.827 8.535 2.48 1.992 1.641 2.988 3.984 2.988 7.031 0 3.06-0.996 5.417-2.988 7.07-1.979 1.641-4.824 2.461-8.535 2.461h-4.961v10.117h-7.519v-29.159zm7.52 5.449v8.144h4.16c1.458 0 2.585-0.352 3.379-1.055 0.794-0.716 1.191-1.725 1.191-3.027s-0.397-2.305-1.191-3.008-1.921-1.055-3.379-1.055h-4.16z"/>
	<path id="path4540" d="m132.3 254.56h20.293v5.684h-12.773v5.429h12.012v5.684h-12.012v12.363h-7.52v-29.16z"/>
	<path id="path4542" d="m172.77 278.41h-11.758l-1.856 5.313h-7.559l10.801-29.16h8.965l10.801 29.16h-7.559l-1.835-5.313zm-9.883-5.41h7.988l-3.984-11.602-4.004 11.602z"/>
	<path id="path4544" d="m186.05 254.56h9.57l6.641 15.605 6.68-15.605h9.551v29.16h-7.109v-21.328l-6.719 15.723h-4.766l-6.719-15.723v21.328h-7.129v-29.16z"/>
	<path id="path4546" d="m225.9 254.56h7.52v29.16h-7.52v-29.16z"/>
	<path id="path4548" d="m240.82 254.56h7.519v23.477h13.203v5.684h-20.722v-29.161z"/>
	<path id="path4550" d="m255.98 254.56h8.223l6.641 10.391 6.641-10.391h8.242l-11.113 16.875v12.285h-7.519v-12.285l-11.115-16.875z"/>
</g>
<g id="flowRoot4561" transform="matrix(7.3439 0 0 7.3439 1030.6 5862.4)" fill="#C22634" stroke="#fff" stroke-width="1.4777">
	<path id="path4569" d="m-95.57-783.26 10.117 14.883h-7.832l-6.816-9.961-6.758 9.961h-7.871l10.117-14.883-9.727-14.277h7.852l6.387 9.394 6.367-9.394h7.891l-9.727 14.277z"/>
	<path id="path4571" d="m-64.711-783.26 10.117 14.883h-7.832l-6.816-9.961-6.758 9.961h-7.871l10.117-14.883-9.727-14.277h7.852l6.387 9.394 6.367-9.394h7.891l-9.727 14.277z"/>
	<path id="path4573" d="m-33.852-783.26 10.117 14.883h-7.832l-6.816-9.961-6.758 9.961h-7.871l10.117-14.883-9.727-14.277h7.852l6.387 9.394 6.367-9.394h7.891l-9.727 14.277z"/>
</g>
</svg>
