<svg id="a" enable-background="new 0 0 831.95 348.75" version="1.1" viewBox="0 0 688.76 348.8" xml:space="preserve" xmlns="http://www.w3.org/2000/svg">
<g id="b" transform="matrix(7.3439 0 0 7.3439 852.82 5862.5)" fill="#c22634" stroke="#000" stroke-width="1.4777">
	<path id="c" d="m-95.57-783.26 10.117 14.883h-7.832l-6.816-9.961-6.758 9.961h-7.871l10.117-14.883-9.727-14.277h7.852l6.387 9.394 6.367-9.394h7.891z"/>
	<path id="d" d="m-64.711-783.26 10.117 14.883h-7.832l-6.816-9.961-6.758 9.961h-7.871l10.117-14.883-9.727-14.277h7.852l6.387 9.394 6.367-9.394h7.891z"/>
	<path id="e" d="m-33.852-783.26 10.117 14.883h-7.832l-6.816-9.961-6.758 9.961h-7.871l10.117-14.883-9.727-14.277h7.852l6.387 9.394 6.367-9.394h7.891z"/>
</g>
<g id="f" transform="matrix(3.869 0 0 3.869 4304.8 3326.8)" stroke-width="1px" aria-label="PETITE"><path id="g" d="m-1076.7-789.63q0 1.9531-0.6836 3.8281-0.6836 1.8555-1.9531 3.125-1.7383 1.7188-3.8868 2.5976-2.1289 0.87891-5.3125 0.87891h-4.6679v9.4727h-7.5v-29.082h12.344q2.7735 0 4.668 0.48829 1.9141 0.46875 3.3789 1.4258 1.7578 1.1523 2.6758 2.9492 0.9375 1.7969 0.9375 4.3164zm-7.7539 0.17578q0-1.2305-0.6641-2.1094-0.6641-0.89844-1.543-1.25-1.1718-0.46875-2.2851-0.50781-1.1133-0.0586-2.9688-0.0586h-1.289v8.7109h2.1484q1.9141 0 3.1445-0.23438 1.25-0.23437 2.0899-0.9375 0.7226-0.625 1.0351-1.4844 0.3321-0.87891 0.3321-2.1289z"/><path id="h" d="m-1050.3-769.72h-21.035v-29.082h21.035v5.625h-13.574v5.0195h12.598v5.625h-12.598v7.1875h13.574z"/><path id="i" d="m-1021.3-793.18h-9.082v23.457h-7.5v-23.457h-9.0821v-5.625h25.664z"/><path id="j" d="m-1001-769.72h-17.031v-5.1562h4.7657v-18.77h-4.7657v-5.1562h17.031v5.1562h-4.7656v18.77h4.7656z"/><path id="k" d="m-972.14-793.18h-9.082v23.457h-7.5v-23.457h-9.082v-5.625h25.664z"/><path id="l" d="m-946.59-769.72h-21.035v-29.082h21.035v5.625h-13.574v5.0195h12.598v5.625h-12.598v7.1875h13.574z"/></g></svg>
