<?xml version="1.0" encoding="UTF-8"?>
<!-- Generator: Adobe Illustrator 16.0.0, SVG Export Plug-In . SVG Version: 6.00 Build 0)  -->
<svg id="svg33" width="688.76" height="348.8" enable-background="new 0 0 831.95 348.75" version="1.1" viewBox="0 0 688.76 348.8" xml:space="preserve" xmlns="http://www.w3.org/2000/svg" xmlns:cc="http://creativecommons.org/ns#" xmlns:dc="http://purl.org/dc/elements/1.1/" xmlns:rdf="http://www.w3.org/1999/02/22-rdf-syntax-ns#"><metadata id="metadata19"><rdf:RDF><cc:Work rdf:about=""><dc:format>image/svg+xml</dc:format><dc:type rdf:resource="http://purl.org/dc/dcmitype/StillImage"/><dc:title/></cc:Work></rdf:RDF></metadata>
<g id="flowRoot4561" transform="matrix(7.3439 0 0 7.3439 852.82 5862.5)" fill="#c22634" stroke="#fff" stroke-width="1.4777">
	<path id="path4501" d="m-95.57-783.26 10.117 14.883h-7.832l-6.816-9.961-6.758 9.961h-7.871l10.117-14.883-9.727-14.277h7.852l6.387 9.394 6.367-9.394h7.891z"/>
	<path id="path4503" d="m-64.711-783.26 10.117 14.883h-7.832l-6.816-9.961-6.758 9.961h-7.871l10.117-14.883-9.727-14.277h7.852l6.387 9.394 6.367-9.394h7.891z"/>
	<path id="path4505" d="m-33.852-783.26 10.117 14.883h-7.832l-6.816-9.961-6.758 9.961h-7.871l10.117-14.883-9.727-14.277h7.852l6.387 9.394 6.367-9.394h7.891z"/>
</g>
<g id="flowRoot826" transform="matrix(3.7143 0 0 3.7143 3411.8 2987.9)" fill="#fff" stroke-width="1px" aria-label="BOOTY"><path id="path845" d="m-876.59-720.04q0 2.1094-0.85937 3.7695-0.83985 1.6602-2.3242 2.7539-1.7188 1.2891-3.7891 1.8359-2.0508 0.54688-5.2148 0.54688h-12.695v-29.082h11.289q3.5156 0 5.1367 0.23437 1.6406 0.23438 3.2422 1.0352 1.6602 0.83984 2.4609 2.2656 0.82031 1.4062 0.82031 3.2227 0 2.1094-1.1133 3.7305-1.1133 1.6016-3.1445 2.5v0.15625q2.8516 0.5664 4.5117 2.3438 1.6797 1.7773 1.6797 4.6875zm-9.6094-11.953q0-0.72265-0.3711-1.4453-0.35156-0.72266-1.2695-1.0742-0.82031-0.3125-2.0508-0.33203-1.2109-0.0391-3.418-0.0391h-0.70312v6.1523h1.1719q1.7774 0 3.0274-0.0586t1.9726-0.39063q1.0156-0.44922 1.3281-1.1523 0.3125-0.72266 0.3125-1.6602zm1.8359 11.836q0-1.3867-0.54688-2.1289-0.52734-0.76172-1.8164-1.1328-0.8789-0.25391-2.4219-0.27344-1.543-0.0195-3.2227-0.0195h-1.6406v7.2461h0.54687q3.1641 0 4.5312-0.0195 1.3672-0.0195 2.5195-0.50781 1.1719-0.48828 1.6016-1.2891 0.44922-0.82031 0.44922-1.875z"/><path id="path847" d="m-842.72-725.67q0 6.9531-3.9844 11.055-3.9844 4.082-11.016 4.082-7.0117 0-10.996-4.082-3.9844-4.1016-3.9844-11.055 0-7.0117 3.9844-11.074 3.9844-4.082 10.996-4.082 6.9922 0 10.996 4.082 4.0039 4.0625 4.0039 11.074zm-9.9414 7.3633q1.0938-1.3281 1.6211-3.125 0.52734-1.8164 0.52734-4.2578 0-2.6172-0.60547-4.4531t-1.582-2.9688q-0.99609-1.1719-2.3047-1.6992-1.2891-0.52734-2.6953-0.52734-1.4258 0-2.6953 0.50781-1.25 0.50781-2.3047 1.6797-0.97656 1.0938-1.6016 3.0273-0.60547 1.9141-0.60547 4.4531 0 2.5976 0.58594 4.4336 0.60547 1.8164 1.582 2.9688t2.2852 1.6992q1.3086 0.54687 2.7539 0.54687t2.7539-0.54687q1.3086-0.56641 2.2852-1.7383z"/><path id="path849" d="m-808.74-725.67q0 6.9531-3.9844 11.055-3.9844 4.082-11.016 4.082-7.0117 0-10.996-4.082-3.9844-4.1016-3.9844-11.055 0-7.0117 3.9844-11.074 3.9844-4.082 10.996-4.082 6.9922 0 10.996 4.082 4.0039 4.0625 4.0039 11.074zm-9.9414 7.3633q1.0938-1.3281 1.6211-3.125 0.52735-1.8164 0.52735-4.2578 0-2.6172-0.60547-4.4531t-1.582-2.9688q-0.9961-1.1719-2.3047-1.6992-1.2891-0.52734-2.6953-0.52734-1.4258 0-2.6953 0.50781-1.25 0.50781-2.3047 1.6797-0.97657 1.0938-1.6016 3.0273-0.60546 1.9141-0.60546 4.4531 0 2.5976 0.58593 4.4336 0.60547 1.8164 1.582 2.9688 0.97657 1.1523 2.2852 1.6992 1.3086 0.54687 2.7539 0.54687 1.4453 0 2.7539-0.54687 1.3086-0.56641 2.2852-1.7383z"/><path id="path851" d="m-780.28-734.59h-9.082v23.457h-7.5v-23.457h-9.082v-5.625h25.664z"/><path id="path853" d="m-750.19-740.22-10.723 17.832v11.25h-7.5v-10.898l-10.898-18.184h8.5156l6.2891 11.25 6.0742-11.25z"/></g></svg>
