<?xml version="1.0" encoding="UTF-8"?>
<!-- Generator: Adobe Illustrator 16.0.0, SVG Export Plug-In . SVG Version: 6.00 Build 0)  -->
<svg id="svg33" width="840.72" height="472.55" enable-background="new 0 0 831.95 348.75" shape-rendering="crispEdges" version="1.1" viewBox="0 0 840.72 472.55" xml:space="preserve" xmlns="http://www.w3.org/2000/svg" xmlns:cc="http://creativecommons.org/ns#" xmlns:dc="http://purl.org/dc/elements/1.1/" xmlns:rdf="http://www.w3.org/1999/02/22-rdf-syntax-ns#"><metadata id="metadata19"><rdf:RDF><cc:Work rdf:about=""><dc:format>image/svg+xml</dc:format><dc:type rdf:resource="http://purl.org/dc/dcmitype/StillImage"/><dc:title/></cc:Work></rdf:RDF></metadata><g id="flowRoot4561" transform="matrix(7.3439 0 0 7.3439 928.8 5862.5)" fill="#c22634" stroke="#000" stroke-width="1.4777"><path id="path4501" d="m-95.57-783.26 10.117 14.883h-7.832l-6.816-9.961-6.758 9.961h-7.871l10.117-14.883-9.727-14.277h7.852l6.387 9.394 6.367-9.394h7.891z"/><path id="path4503" d="m-64.711-783.26 10.117 14.883h-7.832l-6.816-9.961-6.758 9.961h-7.871l10.117-14.883-9.727-14.277h7.852l6.387 9.394 6.367-9.394h7.891z"/><path id="path4505" d="m-33.852-783.26 10.117 14.883h-7.832l-6.816-9.961-6.758 9.961h-7.871l10.117-14.883-9.727-14.277h7.852l6.387 9.394 6.367-9.394h7.891z"/></g><flowRoot id="flowRoot4496" transform="translate(408.28 .016045)" fill="#000000" font-family="Arial" font-size="40px" letter-spacing="0px" stroke-width="1px" word-spacing="0px" style="line-height:25px" xml:space="preserve"><flowRegion id="flowRegion4498"><rect id="rect4500" x="-720.63" y="653.41" width="2531" height="536.08"/></flowRegion><flowPara id="flowPara4502"/></flowRoot><g id="g939" transform="translate(27.724 -.04197)"><path id="path866" d="m100.93 292.67q0 15.089-6.8918 27.059-6.8918 11.897-17.411 18.281-7.9074 4.788-17.338 6.6741-9.4308 1.8862-22.344 1.8862h-38.086v-108.02h39.174q13.203 0 22.779 2.2489 9.5759 2.1764 16.105 6.2389 11.172 6.8192 17.556 18.426 6.4565 11.535 6.4565 27.204zm-28.8-0.21766q0-10.664-3.9174-18.209-3.8449-7.6172-12.26-11.897-4.2801-2.1038-8.7779-2.8292-4.4252-0.79798-13.421-0.79798h-7.0368v67.612h7.0368q9.9386 0 14.582-0.87052 4.6429-0.94309 9.0681-3.3371 7.6172-4.3527 11.172-11.607 3.5547-7.327 3.5547-18.064z"/><path id="path868" d="m227.23 292.6q0 25.826-14.799 41.06-14.799 15.162-40.915 15.162-26.044 0-40.843-15.162-14.799-15.234-14.799-41.06 0-26.044 14.799-41.133 14.799-15.162 40.843-15.162 25.971 0 40.843 15.162 14.872 15.089 14.872 41.133zm-36.925 27.349q4.0625-4.933 6.0212-11.607 1.9587-6.7466 1.9587-15.815 0-9.721-2.2489-16.54-2.2489-6.8192-5.8761-11.027-3.6998-4.3527-8.5603-6.3114-4.7879-1.9587-10.011-1.9587-5.2958 0-10.011 1.8862-4.6429 1.8862-8.5603 6.2389-3.6273 4.0625-5.9487 11.244-2.2489 7.1094-2.2489 16.54 0 9.6485 2.1764 16.468 2.2489 6.7467 5.8761 11.027 3.6273 4.2802 8.4878 6.3114 4.8605 2.0313 10.229 2.0313 5.3683 0 10.229-2.0313 4.8605-2.1038 8.4878-6.4565z"/><path id="path870" d="m297.24 348.67q-12.042 0-22.271-3.5547-10.156-3.5547-17.483-10.592-7.327-7.0368-11.39-17.556-3.99-10.519-3.99-24.303 0-12.84 3.8449-23.287 3.8448-10.446 11.172-17.919 7.0368-7.1819 17.411-11.099 10.446-3.9174 22.779-3.9174 6.8192 0 12.26 0.79801 5.5134 0.72544 10.156 1.9587 4.8605 1.3783 8.7779 3.1194 3.99 1.6685 6.9643 3.1194v26.189h-3.192q-2.0312-1.7411-5.1506-4.135-3.0469-2.394-6.9643-4.7154-3.99-2.3214-8.6328-3.9174-4.6429-1.596-9.9386-1.596-5.8762 0-11.172 1.8862-5.2958 1.8136-9.7936 6.0938-4.2801 4.135-6.9643 10.954-2.6116 6.8192-2.6116 16.54 0 10.156 2.8292 16.976 2.9018 6.8192 7.2545 10.737 4.4252 3.99 9.8661 5.731 5.4409 1.6685 10.737 1.6685 5.0782 0 10.011-1.5235 5.0056-1.5234 9.2132-4.135 3.5547-2.1038 6.6016-4.4978 3.0469-2.394 5.0056-4.135h2.9018v25.826q-4.0625 1.8136-7.7623 3.4096-3.6998 1.596-7.7623 2.7567-5.2958 1.5235-9.9386 2.3214-4.6429 0.79801-12.768 0.79801z"/><path id="path872" d="m440.59 259.44h-33.733v87.126h-27.857v-87.126h-33.733v-20.893h95.324z"/><path id="path874" d="m562.39 292.6q0 25.826-14.799 41.06-14.799 15.162-40.915 15.162-26.044 0-40.843-15.162-14.799-15.234-14.799-41.06 0-26.044 14.799-41.133 14.799-15.162 40.843-15.162 25.971 0 40.843 15.162 14.872 15.089 14.872 41.133zm-36.925 27.349q4.0625-4.933 6.0212-11.607 1.9587-6.7466 1.9587-15.815 0-9.721-2.2489-16.54-2.2489-6.8192-5.8761-11.027-3.6998-4.3527-8.5603-6.3114-4.788-1.9587-10.011-1.9587-5.2958 0-10.011 1.8862-4.6429 1.8862-8.5603 6.2389-3.6272 4.0625-5.9487 11.244-2.2489 7.1094-2.2489 16.54 0 9.6485 2.1764 16.468 2.2489 6.7467 5.8761 11.027 3.6272 4.2802 8.4877 6.3114 4.8605 2.0313 10.229 2.0313 5.3683 0 10.229-2.0313 4.8605-2.1038 8.4877-6.4565z"/><path id="path876" d="m644.15 271.63q0-4.0625-1.6685-6.9643-1.6685-2.9018-5.731-4.5703-2.8293-1.1607-6.6016-1.3783-3.7724-0.29009-8.7779-0.29009h-10.084v29.09h8.5603q6.6741 0 11.172-0.65289 4.4978-0.6529 7.5447-2.9743 2.9018-2.2489 4.2076-4.933 1.3784-2.7567 1.3784-7.327zm43.454 74.939h-34.024l-29.453-39.609h-12.84v39.609h-27.712v-108.02h46.719q9.5759 0 16.468 1.0882 6.8918 1.0882 12.913 4.7154 6.0937 3.6272 9.6484 9.4308 3.6272 5.731 3.6272 14.436 0 11.97-5.5859 19.515-5.5134 7.5447-15.815 12.55z"/><path id="path878" d="m786.41 312.62q0 15.96-13.566 25.971-13.493 9.9386-36.708 9.9386-13.421 0-23.432-2.3214-9.9386-2.394-18.644-6.0212v-25.899h3.0469q8.6328 6.8918 19.297 10.592 10.737 3.6998 20.603 3.6998 2.5391 0 6.6741-0.43527 4.135-0.43524 6.7467-1.4509 3.192-1.3058 5.2232-3.2645 2.1038-1.9587 2.1038-5.8036 0-3.5547-3.0469-6.0937-2.9743-2.6116-8.7779-3.99-6.0937-1.4509-12.913-2.6842-6.7467-1.3058-12.695-3.2645-13.638-4.4252-19.66-11.97-5.9487-7.6172-5.9487-18.862 0-15.089 13.493-24.593 13.566-9.5759 34.822-9.5759 10.664 0 21.038 2.1038 10.446 2.0313 18.064 5.1507v24.883h-2.9744q-6.529-5.2232-16.032-8.7054-9.4308-3.5547-19.297-3.5547-3.4822 0-6.9643 0.50782-3.4096 0.43524-6.6016 1.7411-2.8292 1.0882-4.8605 3.337-2.0313 2.1764-2.0313 5.0056 0 4.2801 3.2645 6.6016 3.2645 2.2489 12.333 4.1351 5.9487 1.2332 11.39 2.394 5.5134 1.1607 11.825 3.192 12.405 4.0625 18.281 11.099 5.9487 6.9643 5.9487 18.136z"/></g><g id="g948" transform="translate(-851.34 123.74)"><path id="path880" d="m973.29 346.57h-34.531l-10.084-9.1407q-7.2545 5.731-16.032 8.5603-8.7054 2.8292-18.426 2.8292-20.022 0-31.484-9.2132-11.39-9.2857-11.39-24.157 0-6.1663 1.8136-10.737 1.8136-4.5703 4.788-8.1976 2.8292-3.5547 6.529-6.0938 3.6998-2.5391 7.0369-4.3527-3.0469-2.2489-5.8036-4.7154-2.7567-2.4666-4.788-5.3684-1.9587-2.7567-3.0469-6.1663t-1.0882-7.6897q0-5.0782 2.1764-9.5034 2.1764-4.4978 6.529-8.0525 4.4978-3.6998 12.042-5.9487 7.6172-2.3214 18.064-2.3214 8.7779 0 15.67 1.7411 6.8918 1.7411 11.607 4.9331 4.4252 3.0469 6.7467 7.3995 2.394 4.2802 2.394 9.2857 0 3.3371-1.0156 7.327-0.9431 3.99-3.5547 7.5447-2.8292 3.7723-7.4721 7.0368t-12.695 5.8036l22.199 19.515v-23.359h27.059v8.0525q0 8.5603-2.9018 16.395-2.9018 7.8348-7.9799 12.986l27.64 24.157zm-68.337-83.717q0-3.7724-1.1607-5.9487-1.1607-2.2489-2.8292-3.4096-1.7411-1.1607-3.6272-1.4509-1.8862-0.29009-3.0469-0.29009-1.2332 0-2.8292 0.29009-1.5234 0.29008-3.4096 1.5234-1.5234 1.0156-2.6842 3.0469-1.1607 1.9587-1.1607 5.2232 0 4.2801 3.4822 8.2701t9.0681 8.1976q4.0625-3.192 6.0938-7.0368 2.1038-3.9174 2.1038-8.4152zm10.954 62.316-30.977-27.494q-1.4509 1.4509-3.3371 5.2232-1.8862 3.6998-1.8862 8.2701 0 4.8605 1.8862 8.4152 1.8862 3.4822 4.6429 5.731 2.9018 2.3214 6.4565 3.4822 3.5547 1.1607 6.9643 1.1607 4.9331 0 8.7054-0.94306 3.8449-1.0156 7.5447-3.8449z"/><path id="path882" d="m1133.6 346.57h-26.842l-45.848-74.141v74.141h-25.536v-108.02h33.298l39.392 61.881v-61.881h25.536z"/><path id="path884" d="m1255.9 307.47q0 20.022-12.188 30.686-12.188 10.664-35.91 10.664-23.722 0-35.91-10.664-12.115-10.664-12.115-30.614v-68.99h28.002v67.394q0 11.244 4.7154 16.758 4.7154 5.5134 15.307 5.5134 10.446 0 15.234-5.2958 4.8606-5.2958 4.8606-16.975v-67.394h28.002z"/><path id="path886" d="m1342.6 271.63q0-4.0625-1.6686-6.9643-1.6684-2.9018-5.731-4.5703-2.8292-1.1607-6.6016-1.3783-3.7723-0.29009-8.7779-0.29009h-10.084v29.09h8.5603q6.6741 0 11.172-0.65289 4.4977-0.6529 7.5447-2.9743 2.9017-2.2489 4.2075-4.933 1.3784-2.7567 1.3784-7.327zm43.454 74.939h-34.024l-29.453-39.609h-12.84v39.609h-27.712v-108.02h46.719q9.576 0 16.468 1.0882 6.8918 1.0882 12.913 4.7154 6.0938 3.6272 9.6485 9.4308 3.6272 5.731 3.6272 14.436 0 11.97-5.586 19.515-5.5134 7.5447-15.815 12.55z"/><path id="path888" d="m1484.9 312.62q0 15.96-13.566 25.971-13.493 9.9386-36.708 9.9386-13.421 0-23.432-2.3214-9.9386-2.394-18.644-6.0212v-25.899h3.0469q8.6328 6.8918 19.297 10.592 10.737 3.6998 20.603 3.6998 2.5391 0 6.6742-0.43527 4.135-0.43524 6.7466-1.4509 3.192-1.3058 5.2233-3.2645 2.1038-1.9587 2.1038-5.8036 0-3.5547-3.0469-6.0937-2.9743-2.6116-8.7779-3.99-6.0938-1.4509-12.913-2.6842-6.7467-1.3058-12.695-3.2645-13.638-4.4252-19.66-11.97-5.9487-7.6172-5.9487-18.862 0-15.089 13.493-24.593 13.566-9.5759 34.822-9.5759 10.664 0 21.038 2.1038 10.446 2.0313 18.064 5.1507v24.883h-2.9743q-6.529-5.2232-16.032-8.7054-9.4308-3.5547-19.297-3.5547-3.4822 0-6.9643 0.50782-3.4096 0.43524-6.6016 1.7411-2.8293 1.0882-4.8605 3.337-2.0313 2.1764-2.0313 5.0056 0 4.2801 3.2645 6.6016 3.2646 2.2489 12.333 4.1351 5.9486 1.2332 11.39 2.394 5.5134 1.1607 11.825 3.192 12.405 4.0625 18.281 11.099 5.9487 6.9643 5.9487 18.136z"/><path id="path890" d="m1582.2 346.57h-78.131v-108.02h78.131v20.893h-50.419v18.644h46.791v20.893h-46.791v26.696h50.419z"/><path id="path892" d="m1692.1 312.62q0 15.96-13.566 25.971-13.493 9.9386-36.708 9.9386-13.421 0-23.432-2.3214-9.9386-2.394-18.644-6.0212v-25.899h3.0469q8.6328 6.8918 19.297 10.592 10.737 3.6998 20.603 3.6998 2.5391 0 6.6742-0.43527 4.135-0.43524 6.7466-1.4509 3.192-1.3058 5.2232-3.2645 2.1038-1.9587 2.1038-5.8036 0-3.5547-3.0468-6.0937-2.9744-2.6116-8.7779-3.99-6.0938-1.4509-12.913-2.6842-6.7467-1.3058-12.695-3.2645-13.638-4.4252-19.66-11.97-5.9487-7.6172-5.9487-18.862 0-15.089 13.493-24.593 13.566-9.5759 34.822-9.5759 10.664 0 21.038 2.1038 10.446 2.0313 18.064 5.1507v24.883h-2.9743q-6.5291-5.2232-16.032-8.7054-9.4309-3.5547-19.297-3.5547-3.4821 0-6.9643 0.50782-3.4096 0.43524-6.6015 1.7411-2.8293 1.0882-4.8605 3.337-2.0313 2.1764-2.0313 5.0056 0 4.2801 3.2645 6.6016 3.2645 2.2489 12.333 4.1351 5.9486 1.2332 11.39 2.394 5.5134 1.1607 11.825 3.192 12.405 4.0625 18.281 11.099 5.9486 6.9643 5.9486 18.136z"/></g></svg>
