<svg enable-background="new 0 0 200 154.652" version="1.1" viewBox="0 0 200 154.65" xml:space="preserve" xmlns="http://www.w3.org/2000/svg"><path d="m22.292 31.526 31.026-31.026 46.539 47.278h-54.665l-22.9-16.252z" fill="#73c908"/><path d="m99.857 47.778 46.539-47.278 31.025 31.026-28.81 16.252h-48.754z" fill="#b3fa0a"/><path d="m78.434 86.93-56.142-55.404 77.565 16.252v39.152h-21.423z" fill="#387305"/><path d="m99.857 86.93v-39.152l77.565-16.252-56.142 55.404h-21.423z" fill="#4e9d04"/><path d="m78.434 154.15v-67.223l21.423-39.152v99.726l-21.423 6.6484z" fill="#295001"/><path d="m121.28 154.15-21.423-6.6484v-99.726l21.423 39.152v67.223" fill="#8cdf07"/><path d="m78.434 154.15h42.845v-67.223l56.142-55.404-31.025-31.026-46.539 47.278-46.539-47.278-31.026 31.026 56.142 55.404v67.223z" fill="none"/><path d="m78.434 154.15 21.423-106.37 21.423 106.37h-42.845z" fill="#4b9405"/><path d="m7.5178 93.578v-8.9059l-7.0178-10.999v-4.1028h3.2718l6.3308 10.041 6.3411-10.041h3.2622v4.1442l-7.0178 10.901v8.9628h-5.1703z" fill="#fff"/><path d="m187.31 93.578v-8.9059l-7.0178-10.999v-4.1028h3.2725l6.3308 10.041 6.3419-10.041h3.2614v4.1442l-7.0178 10.901v8.9628h-5.171z" fill="#fff"/><path d="m23.769 93.578v-24.008h17.729v4.4323h-12.558v5.171h11.819v4.4323h-11.819v5.9105h12.558v4.0622h-17.729z" fill="#fff"/><path d="m90.992 93.578v-24.008h17.729v4.4323h-12.558v5.171h11.819v4.4323h-11.819v5.9105h12.558v4.0622h-17.729z" fill="#fff"/><path d="m74.371 93.578v-19.576h-7.7565v-4.4323h20.684v4.4323h-7.7565v19.576h-5.171z" fill="#fff"/><path d="m124.97 73.956h-6.969v5.9563h6.9978c2.881 0 3.4099-1.2987 3.4099-3.1033 7.4e-4 -1.2772-0.59171-2.8847-3.4387-2.8529zm-2.7502 10.387h-4.2188v9.1874h-5.1717v-24.007h12.614c3.6241 0 8.0387 2.3587 8.0387 7.136 0 5.9164-5.4414 7.6841-5.4414 7.6841l4.6894 5.5935v3.6973h-3.3597l-7.15-9.2908z" fill="#fff"/><path d="m137.53 69.57v24.008h10.134c5.9326 0 9.8109-3.3146 9.8109-9.9268v-4.1087c0-6.3744-4.781-9.9734-10.342-9.9734h-9.6033zm29.641 0-8.2175 20.129v3.879h4.0164l1.801-4.4323h10.203l1.6163 4.4323h4.0637v-3.6936l-8.2189-20.315h-5.2641zm-24.468 4.4323h3.6936c3.3523 0 5.909 1.634 5.909 6.2791v3.1853c0 3.6973-1.6459 5.6785-5.909 5.6785h-3.6936v-15.143zm27.055 1.6621 3.5089 9.0485h-6.9254l3.4166-9.0485z" fill="#fff"/><path d="m49.901 85.867h-5.0321c0 5.9843 4.4404 8.496 9.788 8.496 6.6647 0 10.804-2.6897 10.804-7.3421 0-10.571-15.097-5.496-15.097-10.942 0-1.4796 1.2418-2.6778 4.4788-2.6778 2.9696 0.25264 4.3207 1.3563 4.3207 3.5148h5.3557c0-4.1996-3.3575-7.8089-9.5841-7.8089-4.4256 0-9.7414 1.6193-9.7414 6.8338 0 10.548 15.005 4.9944 15.005 11.034 0 1.9539-2.1112 2.9549-5.448 2.9549-4.2284 0-4.8489-4.0629-4.8489-4.0629z" fill="#fff"/></svg>
