<?xml version="1.0" encoding="UTF-8" standalone="no"?>
<!-- Generator: Adobe Illustrator 16.0.0, SVG Export Plug-In . SVG Version: 6.00 Build 0)  -->

<svg
   xmlns:dc="http://purl.org/dc/elements/1.1/"
   xmlns:cc="http://creativecommons.org/ns#"
   xmlns:rdf="http://www.w3.org/1999/02/22-rdf-syntax-ns#"
   xmlns:svg="http://www.w3.org/2000/svg"
   xmlns="http://www.w3.org/2000/svg"
   xmlns:sodipodi="http://sodipodi.sourceforge.net/DTD/sodipodi-0.dtd"
   xmlns:inkscape="http://www.inkscape.org/namespaces/inkscape"
   version="1.1"
   id="svg2"
   sodipodi:docname="Yesterday +1 - Dark.svg"
   inkscape:version="0.91 r13725"
   x="0px"
   y="0px"
   width="1148.4807"
   height="887"
   viewBox="0 0 1148.4807 887.00004"
   enable-background="new 0 0 200 154.652"
   xml:space="preserve"><metadata
     id="metadata32"><rdf:RDF><cc:Work
         rdf:about=""><dc:format>image/svg+xml</dc:format><dc:type
           rdf:resource="http://purl.org/dc/dcmitype/StillImage" /><dc:title></dc:title></cc:Work></rdf:RDF></metadata><defs
     id="defs30" /><sodipodi:namedview
     inkscape:zoom="0.50000001"
     fit-margin-left="0.5"
     fit-margin-top="0.5"
     borderopacity="1"
     guidetolerance="10"
     pagecolor="#ffffff"
     bordercolor="#666666"
     inkscape:cy="182.37993"
     showgrid="false"
     gridtolerance="10"
     inkscape:cx="468.11708"
     objecttolerance="10"
     id="namedview4"
     fit-margin-bottom="0.5"
     inkscape:window-maximized="1"
     inkscape:pageshadow="2"
     inkscape:window-x="-8"
     inkscape:current-layer="svg2"
     fit-margin-right="0.5"
     inkscape:pageopacity="0"
     inkscape:window-height="1017"
     inkscape:window-y="-8"
     inkscape:window-width="1920"><inkscape:grid
       type="xygrid"
       enabled="true"
       visible="true"
       empspacing="5"
       id="grid2998"
       snapvisiblegridlinesonly="true"
       originx="3.7744368e-005"
       originy="0.00051266673" /></sodipodi:namedview><g
     id="g3166"
     transform="matrix(5.7662579,0,0,5.7662579,-2901.0284,-2369.8327)"><g
       id="g3185"
       transform="matrix(0.41493776,0,0,0.41493776,268.54357,338.16598)"><g
         id="g3001"
         transform="matrix(1.7803007,0,0,1.7803007,-441.26004,-426.04417)"><path
           id="path3040"
           inkscape:connector-curvature="0"
           d="m 595,380 42,-42 63,64 -74,0 -31,-22 z"
           style="fill:#73c908" /><path
           id="path3042"
           inkscape:connector-curvature="0"
           d="m 700,402 63,-64 41.999,42 -39,22 -65.999,0 z"
           style="fill:#b3fa0a" /><path
           id="path3036"
           inkscape:connector-curvature="0"
           d="m 670.999,455 -76,-75 105,22 0,53 -29,0 z"
           style="fill:#387305" /><path
           id="path3038"
           inkscape:connector-curvature="0"
           d="m 700,455 0,-53 105,-22 -76,75 -29,0 z"
           style="fill:#4e9d04" /><path
           id="path3032"
           inkscape:connector-curvature="0"
           d="m 670.999,546 0,-91 29,-53 0,135 -29,9 z"
           style="fill:#295001" /><path
           id="path3034"
           inkscape:connector-curvature="0"
           sodipodi:nodetypes="ccccc"
           d="m 728.999,546 -29,-9 0,-135 29,53 0,91"
           style="fill:#8cdf07" /><path
           id="path3028"
           inkscape:connector-curvature="0"
           sodipodi:nodetypes="cccccccccc"
           d="m 670.999,546 58,0 0,-91 76,-75 -41.999,-42 -63,64 -63,-64 -42,42 76,75 0,91 z"
           style="fill:none" /><path
           id="path3030"
           inkscape:connector-curvature="0"
           d="m 670.999,546 29,-144 29,144 -58,0 z"
           style="fill:#4b9405" /><path
           id="path3139"
           inkscape:connector-curvature="0"
           sodipodi:nodetypes="cccccccccccc"
           d="m 575,464 0,-12.056 -9.5,-14.89 0,-5.554 4.429,0 8.57,13.593 8.584,-13.593 4.416,0 0,5.61 -9.5,14.757 0,12.133 -6.999,0 z" /><path
           id="path3141"
           inkscape:connector-curvature="0"
           sodipodi:nodetypes="cccccccccccc"
           d="m 818.386,464 0,-12.056 -9.5,-14.89 0,-5.554 4.43,0 8.57,13.593 8.585,-13.593 4.415,0 0,5.61 -9.5,14.757 0,12.133 -7,0 z" /><path
           id="path3143"
           inkscape:connector-curvature="0"
           sodipodi:nodetypes="ccccccccccccc"
           d="m 597,464 0,-32.5 24,0 0,6 -17,0 0,7 16,0 0,6 -16,0 0,8.001 17,0 0,5.499 -24,0 z" /><path
           id="path3145"
           inkscape:connector-curvature="0"
           sodipodi:nodetypes="ccccccccccccc"
           d="m 688,464 0,-32.5 24,0 0,6 -17,0 0,7 15.999,0 0,6 -15.999,0 0,8.001 17,0 0,5.499 -24,0 z" /><path
           id="path3147"
           inkscape:connector-curvature="0"
           sodipodi:nodetypes="ccccccccc"
           d="m 665.5,464 0,-26.5 -10.5,0 0,-6 28,0 0,6 -10.5,0 0,26.5 -7,0 z" /><path
           id="path3149"
           inkscape:connector-curvature="0"
           sodipodi:nodetypes="cccccccccccccccccc"
           d="m 733.996,437.438 -9.434,0 0,8.063 9.473,0 c 3.9,0 4.616,-1.758 4.616,-4.201 0.001,-1.729 -0.801,-3.905 -4.655,-3.862 z m -3.723,14.061 -5.711,0 0,12.437 -7.001,0 0,-32.499 17.075,0 c 4.906,0 10.882,3.193 10.882,9.66 0,8.009 -7.366,10.402 -7.366,10.402 l 6.348,7.572 0,5.005 -4.548,0 -9.679,-12.577 z" /><path
           id="path3151"
           inkscape:connector-curvature="0"
           d="m 750.999,431.5 0,32.5 13.719,0 c 8.031,0 13.281,-4.487 13.281,-13.438 l 0,-5.562 c 0,-8.629 -6.472,-13.501 -14,-13.501 l -13,0 z m 40.125,0 -11.124,27.249 0,5.251 5.437,0 2.438,-6 13.812,0 2.188,6 5.501,0 0,-5 -11.126,-27.5 -7.126,0 z m -33.123,6 5,0 c 4.538,0 7.999,2.212 7.999,8.5 l 0,4.312 c 0,5.005 -2.228,7.687 -7.999,7.687 l -5,0 0,-20.499 z m 36.624,2.25 4.75,12.249 -9.375,0 4.625,-12.249 z" /><path
           id="path3159"
           inkscape:connector-curvature="0"
           sodipodi:nodetypes="ccccccccccccc"
           d="m 632.375,453.562 -6.812,0 c 0,8.101 6.011,11.501 13.25,11.501 9.022,0 14.625,-3.641 14.625,-9.939 0,-14.31 -20.437,-7.44 -20.437,-14.812 0,-2.003 1.681,-3.625 6.063,-3.625 4.02,0.342 5.849,1.836 5.849,4.758 l 7.25,0 c 0,-5.685 -4.545,-10.571 -12.974,-10.571 -5.991,0 -13.187,2.192 -13.187,9.251 0,14.279 20.312,6.761 20.312,14.937 0,2.645 -2.858,4 -7.375,4 -5.724,0 -6.564,-5.5 -6.564,-5.5 z" /></g></g></g><g
     id="g24"
     transform="matrix(4.6538406,0,0,4.6538406,625.39841,562.35749)"
     style="fill:#339933;fill-opacity:1"><path
       d="m 90.69,26.588 0,-5.395 -5.438,0 0,-3.724 5.438,0 0,-5.395 3.625,0 0,5.395 5.452,0 0,3.724 -5.452,0 0,5.395 -3.625,0 z"
       id="path26"
       inkscape:connector-curvature="0"
       style="fill:#339933;fill-opacity:1" /><path
       d="m 112.397,29.576 -3.979,0 0,-14.995 c -1.453,1.359 -3.167,2.365 -5.14,3.016 l 0,-3.611 c 1.038,-0.34 2.167,-0.984 3.384,-1.933 1.219,-0.948 2.054,-2.055 2.507,-3.32 l 3.229,0 0,20.843 z"
       id="path28"
       inkscape:connector-curvature="0"
       style="fill:#339933;fill-opacity:1" /></g></svg>