<?xml version="1.0" encoding="UTF-8" standalone="no"?>
<svg
   xmlns:dc="http://purl.org/dc/elements/1.1/"
   xmlns:cc="http://creativecommons.org/ns#"
   xmlns:rdf="http://www.w3.org/1999/02/22-rdf-syntax-ns#"
   xmlns:svg="http://www.w3.org/2000/svg"
   xmlns="http://www.w3.org/2000/svg"
   xmlns:sodipodi="http://sodipodi.sourceforge.net/DTD/sodipodi-0.dtd"
   xmlns:inkscape="http://www.inkscape.org/namespaces/inkscape"
   viewBox="0 0 499.99606 208.64722"
   height="208.6483"
   width="499.99606"
   version="1.1"
   id="svg2"
   inkscape:version="0.91 r13725"
   sodipodi:docname="YouTube.svg">
  <metadata
     id="metadata46">
    <rdf:RDF>
      <cc:Work
         rdf:about="">
        <dc:format>image/svg+xml</dc:format>
        <dc:type
           rdf:resource="http://purl.org/dc/dcmitype/StillImage" />
        <dc:title></dc:title>
      </cc:Work>
    </rdf:RDF>
  </metadata>
  <defs
     id="defs44" />
  <sodipodi:namedview
     pagecolor="#ffffff"
     bordercolor="#666666"
     borderopacity="1"
     objecttolerance="10"
     gridtolerance="10"
     guidetolerance="10"
     inkscape:pageopacity="0"
     inkscape:pageshadow="2"
     inkscape:window-width="1920"
     inkscape:window-height="1017"
     id="namedview42"
     showgrid="false"
     fit-margin-top="0"
     fit-margin-left="0"
     fit-margin-right="0"
     fit-margin-bottom="0"
     inkscape:zoom="0.57370518"
     inkscape:cx="249.68605"
     inkscape:cy="104.01038"
     inkscape:window-x="-8"
     inkscape:window-y="-8"
     inkscape:window-maximized="1"
     inkscape:current-layer="svg2" />
  <g
     id="g6"
     transform="matrix(0.5,0,0,0.5,-4.491e-4,-5.4931641e-4)">
    <path
       style="fill:#cd201f"
       inkscape:connector-curvature="0"
       id="path8"
       d="m 994.04,90.026 c 0,0 -5.82,-40.886 -23.693,-58.893 C 947.687,7.507 922.277,7.387 910.627,6 827.227,0 702.127,0 702.127,0 l -0.25999,0 c 0,0 -125.11,0 -208.51,6 -11.653,1.3867 -37.046,1.5067 -59.72,25.133 -17.867,18.007 -23.68,58.893 -23.68,58.893 0,0 -5.9666,48.006 -5.9666,96.019 l 0,45.013 c 0,48.013 5.9666,96.026 5.9666,96.026 0,0 5.8133,40.88 23.68,58.893 22.673,23.633 52.46,22.88 65.72,25.353 47.68,4.56 202.63,5.9666 202.63,5.9666 0,0 125.24,-0.18667 208.64,-6.1866 11.647,-1.3867 37.053,-1.5 59.713,-25.133 17.873,-18.013 23.693,-58.893 23.693,-58.893 0,0 5.96,-48.013 5.96,-96.026 l 0,-45.013 c 0,-48.013 -5.96,-96.019 -5.96,-96.019" />
  </g>
  <g
     id="g10"
     transform="matrix(0.5,0,0,0.5,-4.491e-4,-5.4931641e-4)"
     style="fill:#ffffff;fill-opacity:1">
    <g
       id="g12"
       transform="matrix(6.6666,0,0,-6.6666,373.24,337.7)"
       style="fill:#ffffff;fill-opacity:1">
      <path
         inkscape:connector-curvature="0"
         id="path14"
         d="m 0,0 -5.688,0 0,3.293 c -2.157,-2.472 -3.985,-3.72 -5.978,-3.72 -1.748,0 -2.963,0.824 -3.57,2.315 -0.369,0.906 -0.631,2.321 -0.631,4.399 l 0,23.951 5.687,0 0,-22.454 0,-2.096 c 0.133,-0.839 0.491,-1.147 1.213,-1.147 1.089,0 2.074,0.946 3.279,2.645 l 0,23.052 5.688,0 L 0,0 Z"
         style="fill:#ffffff;fill-opacity:1" />
    </g>
    <g
       id="g16"
       transform="matrix(6.6666,0,0,-6.6666,201.59,277.82)"
       style="fill:#ffffff;fill-opacity:1">
      <path
         inkscape:connector-curvature="0"
         id="path18"
         d="m 0,0 c 0.299,-2.994 -0.63,-4.479 -2.396,-4.479 -1.766,0 -2.694,1.485 -2.394,4.479 l 0,11.976 c -0.3,2.994 0.628,4.397 2.394,4.397 1.767,0 2.698,-1.403 2.399,-4.397 L 0,0 Z m 5.688,11.377 c 0,3.231 -0.649,5.658 -1.796,7.185 -1.516,2.069 -3.892,2.916 -6.288,2.916 -2.71,0 -4.774,-0.847 -6.287,-2.916 -1.166,-1.527 -1.791,-3.98 -1.791,-7.211 L -10.479,0.599 c 0,-3.213 0.556,-5.433 1.721,-6.946 1.514,-2.062 3.968,-3.154 6.362,-3.154 2.396,0 4.892,1.092 6.408,3.154 1.147,1.513 1.676,3.733 1.676,6.946 l 0,10.778 z"
         style="fill:#ffffff;fill-opacity:1" />
    </g>
    <g
       id="g20"
       transform="matrix(6.6666,0,0,-6.6666,89.82,227.92)"
       style="fill:#ffffff;fill-opacity:1">
      <path
         inkscape:connector-curvature="0"
         id="path22"
         d="m 0,0 0,-16.467 -5.988,0 0,16.467 c 0,0 -6.205,20.187 -7.485,23.95 l 6.287,0 4.202,-15.77 4.181,15.77 6.287,0 L 0,0 Z"
         style="fill:#ffffff;fill-opacity:1" />
    </g>
  </g>
  <g
     id="g24"
     style="fill:#ffffff"
     transform="matrix(0.5,0,0,0.5,-4.491e-4,-5.4931641e-4)">
    <g
       id="g26"
       transform="matrix(6.6666,0,0,-6.6666,878.2,191.92)">
      <path
         style="fill:#ffffff"
         inkscape:connector-curvature="0"
         id="path28"
         d="m 0,0 c 0,2.799 0.767,3.562 2.577,3.562 1.797,0 2.512,-0.833 2.512,-3.599 l 0,-3.268 L 0,-3.311 0,0 Z m 10.788,-7.796 -10e-4,6.12 c 0,3.197 -0.63,5.537 -1.764,7.05 C 7.505,7.421 5.347,8.505 2.628,8.505 -0.14,8.505 -2.298,7.421 -3.865,5.374 -5.017,3.861 -5.688,1.39 -5.688,-1.809 l 0,-10.478 c 0,-3.179 0.738,-5.404 1.889,-6.901 1.568,-2.044 3.726,-3.065 6.561,-3.065 2.832,0 5.056,1.07 6.555,3.243 0.66,0.959 1.085,2.046 1.268,3.247 0.049,0.543 0.192,1.78 0.192,3.526 l 0,0.848 -5.688,0 c 0,-2.174 0.011,-3.467 -0.04,-3.762 -0.31,-1.45 -1.087,-2.175 -2.421,-2.175 -1.861,0 -2.648,1.391 -2.628,4.153 l 0,5.377 10.788,0 z" />
    </g>
    <g
       id="g30"
       transform="matrix(6.6666,0,0,-6.6666,778.4,279.82)">
      <path
         style="fill:#ffffff"
         inkscape:connector-curvature="0"
         id="path32"
         d="m 0,0 c 0,-2.994 -0.706,-4.142 -2.269,-4.142 -0.892,0 -1.92,0.459 -2.827,1.366 l 0.006,18.157 c 0.906,0.894 1.929,1.365 2.821,1.365 C -0.706,16.746 0,15.867 0,12.873 L 0,0 Z m 0.631,21.736 c -1.994,0 -3.976,-1.226 -5.727,-3.381 l 0.006,13.081 -5.389,0 0,-40.119 5.389,0 0.008,3.015 c 1.811,-2.241 3.786,-3.4 5.713,-3.4 2.158,0 3.735,1.155 4.459,3.38 0.361,1.268 0.598,3.22 0.598,5.987 l 0,11.975 c 0,2.834 -0.363,4.772 -0.725,5.975 -0.723,2.24 -2.174,3.487 -4.332,3.487" />
    </g>
    <g
       id="g34"
       transform="matrix(6.6666,0,0,-6.6666,678.61,337.7)">
      <path
         style="fill:#ffffff"
         inkscape:connector-curvature="0"
         id="path36"
         d="m 0,0 -5.687,0 0,3.293 c -2.158,-2.472 -3.985,-3.72 -5.978,-3.72 -1.748,0 -2.963,0.824 -3.57,2.315 -0.37,0.906 -0.632,2.321 -0.632,4.399 l 0,23.651 5.688,0 0,-22.154 0,-2.096 c 0.133,-0.839 0.49,-1.147 1.213,-1.147 1.089,0 2.074,0.946 3.279,2.645 l 0,22.752 5.687,0 L 0,0 Z" />
    </g>
    <g
       id="g38"
       transform="matrix(6.6666,0,0,-6.6666,534.9,337.7)">
      <path
         style="fill:#ffffff"
         inkscape:connector-curvature="0"
         id="path40"
         d="m 0,0 -5.987,0 0,34.43 -6.287,0 0,5.681 18.861,0.007 0,-5.688 L 0,34.43 0,0 Z" />
    </g>
  </g>
</svg>
