<?xml version="1.0" encoding="UTF-8"?>
<svg id="svg24" width="800" height="167.55" version="1.1" viewBox="0 0 800 167.55" xmlns="http://www.w3.org/2000/svg" xmlns:cc="http://creativecommons.org/ns#" xmlns:dc="http://purl.org/dc/elements/1.1/" xmlns:rdf="http://www.w3.org/1999/02/22-rdf-syntax-ns#">
 <metadata id="metadata28">
  <rdf:RDF>
   <cc:Work rdf:about="">
    <dc:format>image/svg+xml</dc:format>
    <dc:type rdf:resource="http://purl.org/dc/dcmitype/StillImage"/>
    <dc:title/>
   </cc:Work>
  </rdf:RDF>
 </metadata>
 <g id="Layer_2" transform="scale(6.4992)" data-name="Layer 2">
  <g id="Layer_1-2" data-name="Layer 1">
   <path id="path8" class="cls-1" d="m20.56 5.43-8 8v7.15l-4.56 2.65v-9.78l-8-8h5.43l4.86 4.89 4.86-4.89z" fill="#fff"/>
   <path id="path10" class="cls-1" d="m37.46 17.16-3.46 3.45h-7.84l-3.44-3.45v-14.35l4.58 2.64v11.76h5.59v-11.78h4.58z" fill="#fff"/>
   <path id="path12" class="cls-1" d="m57.41 10.12-4 5.43h-8.63v5.07l-4.58 2.62v-17.81h13.8zm-4.7 0.3-1.2-1.58h-6.73v3.26h6.72z" fill="#fff"/>
   <path id="path14" class="cls-1" d="m76.47 10.12-4 5.43h-9.15v5.07l-4.6 2.61v-17.8h14.28zm-4.7 0.3-1.2-1.58h-7.25v3.26h7.24z" fill="#fff"/>
   <path id="path16" class="cls-2" d="m94.88 5.43-3.37 3.4h-4.51v11.78l-4.58 2.62v-14.4h-4.5l-3.37-3.4z" fill="#f47000"/>
   <path id="path18" class="cls-2" d="m117 5.43-8.25 15.18h-4.27l-8.24-15.18h4.65l5.7 10.4 5.7-10.4z" fill="#f47000"/>
   <path id="path20" class="cls-3" d="m84.6 2.08h34.81v23.7l3.59-6.16 0.09-17.53s0.13-1.92-2.3-2.09h-32.29z" fill="#3ca504"/>
  </g>
 </g>
</svg>
