<?xml version="1.0" encoding="UTF-8" standalone="no"?>
<svg
   xmlns:dc="http://purl.org/dc/elements/1.1/"
   xmlns:cc="http://creativecommons.org/ns#"
   xmlns:rdf="http://www.w3.org/1999/02/22-rdf-syntax-ns#"
   xmlns:svg="http://www.w3.org/2000/svg"
   xmlns="http://www.w3.org/2000/svg"
   xmlns:sodipodi="http://sodipodi.sourceforge.net/DTD/sodipodi-0.dtd"
   xmlns:inkscape="http://www.inkscape.org/namespaces/inkscape"
   width="420.67001pt"
   height="585.72949pt"
   viewBox="0 0 420.67001 585.72949"
   version="1.1"
   id="svg14"
   sodipodi:docname="Zee TV - Dark.svg"
   inkscape:version="0.92.0 r15299">
  <metadata
     id="metadata20">
    <rdf:RDF>
      <cc:Work
         rdf:about="">
        <dc:format>image/svg+xml</dc:format>
        <dc:type
           rdf:resource="http://purl.org/dc/dcmitype/StillImage" />
        <dc:title></dc:title>
      </cc:Work>
    </rdf:RDF>
  </metadata>
  <defs
     id="defs18" />
  <sodipodi:namedview
     pagecolor="#ffffff"
     bordercolor="#666666"
     borderopacity="1"
     objecttolerance="10"
     gridtolerance="10"
     guidetolerance="10"
     inkscape:pageopacity="0"
     inkscape:pageshadow="2"
     inkscape:window-width="1920"
     inkscape:window-height="1017"
     id="namedview16"
     showgrid="false"
     fit-margin-top="0"
     fit-margin-left="0"
     fit-margin-right="0"
     fit-margin-bottom="0"
     inkscape:zoom="0.834386"
     inkscape:cx="-127.49849"
     inkscape:cy="423.63743"
     inkscape:window-x="-8"
     inkscape:window-y="-8"
     inkscape:window-maximized="1"
     inkscape:current-layer="svg14" />
  <g
     id="#ffffffff"
     transform="translate(-96.11,-8.0905035)" />
  <g
     id="#0087caff"
     transform="translate(-96.11,-8.0905035)">
    <path
       d="M 226.05,8.67 C 300.06,8 374.08,8.08 448.1,8.11 c 3.38,0 6.23,2.11 9.09,3.66 13.52,8.01 23.21,21.49 27.99,36.33 6.88,21.05 6.21,43.84 2.1,65.38 -4.76,25.24 -14.96,49.1 -27.32,71.49 -4.37,7.81 -9.77,14.96 -14.56,22.5 -25.2,39.05 -50.85,77.8 -76.02,116.86 2.48,0.57 5.05,0.3 7.58,0.35 46.58,0.19 93.17,0.15 139.76,0.23 -0.07,40.88 -0.04,81.76 -0.02,122.65 -139.77,0.01 -279.55,0.01 -419.32,0 0.18,-15.96 0.27,-32.06 3.47,-47.77 3.31,-15.95 11.13,-30.5 19.88,-44.08 47.39,-73.52 95.41,-146.62 142.93,-220.05 -40.6,-0.52 -81.23,0.12 -121.83,-0.33 0.26,-42 0.47,-84.660004 0.5,-126.6600043 h 83.72 M 463.73,38.76 c -0.44,5.82 -0.93,11.68 -2.47,17.34 -2.74,11.09 -8.25,21.26 -14.49,30.75 -9.36,13.66 -20.51,26.07 -32.96,36.97 -12.84,11.23 -25.71,22.46 -39.27,32.83 -32.59,24.53 -66.43,47.35 -98.97,71.94 -28.11,21.29 -55.76,43.37 -80.77,68.29 -16.13,15.93 -32.08,32.33 -44.33,51.53 -4.76,7.38 -9.81,14.64 -13.35,22.71 -6.41,14.6 -11.35,30.28 -10.84,46.38 1.58,-3.3 2.42,-6.89 4.01,-10.19 5.19,-12.02 13.33,-22.42 21.47,-32.56 6.76,-8.23 13.41,-16.58 20.87,-24.19 17.9,-18.24 37.76,-34.41 57.92,-50.06 33.01,-25.54 67.35,-49.3 101.18,-73.73 24.47,-17.66 48.2,-36.33 70.97,-56.12 13.41,-11.17 26.07,-23.37 36.75,-37.21 14.53,-18.73 26.13,-40.78 28.09,-64.74 0.54,-10.03 0.03,-20.6 -3.81,-29.94 z"
       id="path3"
       inkscape:connector-curvature="0"
       style="opacity:1;fill:#0087ca"
       sodipodi:nodetypes="ccccccccccccccccccccccccccccccccccccc" />
    <path
       d="m 96.11,483.36 c 23.84,-0.04 47.68,-0.02 71.51,-0.01 -0.05,10.73 0.01,21.45 -0.03,32.18 -14.84,18.21 -29.63,36.46 -44.48,54.66 14.87,0.02 29.74,-0.01 44.62,0.02 -0.03,7.86 -0.03,15.72 0,23.59 -16.59,0.04 -33.17,-0.01 -49.75,0.02 -3.36,-0.04 -6.97,0.05 -9.95,-1.77 -6.53,-3.77 -9.6,-11.83 -8.91,-19.12 0.15,-6.24 4.34,-11.27 7.52,-16.3 10.92,-16.73 23.44,-32.31 36.03,-47.79 -15.52,0 -31.03,0.03 -46.55,-0.01 0.02,-8.49 0.05,-16.98 -0.01,-25.47 z"
       id="path5"
       inkscape:connector-curvature="0"
       style="opacity:1;fill:#0087ca" />
    <path
       d="m 190.19,490.13 c 2.02,-3.52 5.47,-6.91 9.8,-6.79 16.1,0.09 32.22,-0.17 48.31,0.13 -0.19,7.67 -0.04,15.34 -0.08,23.01 -9.74,0.01 -19.47,0.01 -29.21,-0.01 -4.71,-0.23 -8.47,4.1 -9.02,8.52 -0.33,3.62 -0.04,7.27 -0.13,10.9 9.62,0.05 19.25,0 28.87,0.02 0.08,7.08 0.04,14.16 0.03,21.24 -9.49,0.01 -18.99,-0.02 -28.48,0.01 0,8.07 0.05,16.14 -0.03,24.22 12.8,0.07 25.61,0 38.42,0.05 -0.04,7.45 -0.03,14.91 -0.01,22.37 -21.26,0 -42.52,0.04 -63.78,-0.02 -0.01,-27.93 0.01,-55.86 -0.01,-83.79 0.12,-6.91 1.95,-13.83 5.32,-19.86 z"
       id="path7"
       inkscape:connector-curvature="0"
       style="opacity:1;fill:#0087ca" />
    <path
       d="m 271.09,489.98 c 2.02,-3.52 5.53,-6.85 9.86,-6.65 16.04,0.04 32.08,-0.05 48.12,0.05 0.03,7.69 -0.05,15.38 0.01,23.07 -9.72,0.08 -19.44,0.02 -29.16,0.02 -4.7,-0.28 -8.53,4.03 -9.12,8.44 -0.27,3.66 -0.03,7.33 -0.1,11 9.63,0.04 19.26,-0.08 28.89,0.05 0.01,7.05 0,14.1 0.02,21.15 -9.5,0.1 -18.99,-0.01 -28.49,0.05 0.01,8.07 0.06,16.15 -0.03,24.23 12.8,0.06 25.6,-0.01 38.39,0.05 -0.04,7.45 0,14.91 -0.02,22.37 -21.25,-0.01 -42.49,0 -63.73,0 -0.01,-27.26 0.01,-54.53 -0.02,-81.79 -0.27,-7.65 1.61,-15.38 5.38,-22.04 z"
       id="path9"
       inkscape:connector-curvature="0"
       style="opacity:1;fill:#0087ca" />
    <path
       d="m 358.45,483.35 c 29.22,-0.02 58.43,0.01 87.64,0 4.23,-0.03 8.84,1.51 11.27,5.17 2.28,3.05 2.73,6.92 3.63,10.51 4.98,21.02 9.93,42.04 14.92,63.06 6.51,-26.17 12.43,-52.51 18.72,-78.74 7.38,-0.01 14.76,-0.03 22.15,0.01 -9.75,36.79 -19.4,73.61 -29.07,110.43 -8.9,0.03 -17.8,0.04 -26.7,-0.02 -6.22,-24 -12.58,-47.96 -18.83,-71.95 -1.37,-5.63 -4.01,-12.45 -10.16,-14.14 -8.39,-0.2 -16.79,-0.04 -25.19,-0.08 0,28.73 -0.04,57.47 -0.02,86.2 -7.22,0.01 -14.44,0.02 -21.66,0 0.07,-28.79 -0.03,-57.57 0.05,-86.35 -8.91,-0.14 -17.83,-0.03 -26.74,-0.06 0.01,-8.01 0.02,-16.03 -0.01,-24.04 z"
       id="path11"
       inkscape:connector-curvature="0"
       style="opacity:1;fill:#0087ca" />
  </g>
</svg>
