<?xml version="1.0" encoding="UTF-8"?>
<!-- Created with Inkscape (http://www.inkscape.org/) -->
<svg id="svg4581" width="467.99mm" height="189.81mm" version="1.1" viewBox="0 0 467.99 189.81" xmlns="http://www.w3.org/2000/svg" xmlns:cc="http://creativecommons.org/ns#" xmlns:dc="http://purl.org/dc/elements/1.1/" xmlns:rdf="http://www.w3.org/1999/02/22-rdf-syntax-ns#">
 <defs id="defs4575">
  <radialGradient id="a" cx="88.495" cy="80.244" r="268.75" gradientTransform="matrix(.94072 .94072 -1.4626 1.4626 152.13 -93.885)" gradientUnits="userSpaceOnUse">
   <stop id="stop2" stop-color="#6fc7b9" offset="0"/>
   <stop id="stop4" stop-color="#68c5b2" offset=".25518"/>
   <stop id="stop6" stop-color="#34ba99" offset=".45137"/>
   <stop id="stop8" stop-color="#0c857c" offset=".74565"/>
   <stop id="stop10" stop-color="#166063" offset=".87283"/>
   <stop id="stop12" stop-color="#1a575a" stop-opacity="0" offset="1"/>
  </radialGradient>
  <radialGradient id="b" cx="88.495" cy="80.244" r="268.75" gradientTransform="matrix(-.94072 -.94072 2.9292 -2.9292 446.85 928.97)" gradientUnits="userSpaceOnUse">
   <stop id="stop15" stop-color="#0eb19c" offset="0"/>
   <stop id="stop17" stop-color="#06a795" offset=".13599"/>
   <stop id="stop19" stop-color="#009987" offset=".24721"/>
   <stop id="stop21" stop-color="#0b746d" offset=".42421"/>
   <stop id="stop23" stop-color="#155557" offset=".56659"/>
   <stop id="stop25" stop-color="#1a575a" stop-opacity="0" offset="1"/>
  </radialGradient>
 </defs>
 <metadata id="metadata4578">
  <rdf:RDF>
   <cc:Work rdf:about="">
    <dc:format>image/svg+xml</dc:format>
    <dc:type rdf:resource="http://purl.org/dc/dcmitype/StillImage"/>
    <dc:title/>
   </cc:Work>
  </rdf:RDF>
 </metadata>
 <path id="path28" transform="scale(.26458)" d="m358.33 0.019531c-197.9-3.5936e-4 -358.33 160.59-358.33 358.7 3.3103e-4 198.1 160.43 358.7 358.33 358.7 167.26-6.1e-4 307.74-114.71 347.24-269.83h-122.69v-180.15l68.508-0.07617 53.545 0.03711c-40.348-153.87-180.23-267.38-346.61-267.38zm-151.02 267.69h146.6v30.41l-99.66 115.73h99.748l0.04883 34.09h-149.8v-30.428l99.375-115.66h-96.307l-0.00391-34.143zm327.06 0.99805v34.025h-98.305v38.576h98.305v34.166h-98.305v38.861h98.305v34.521h-137.17v-180.15l137.17-0.00195zm87.377 32.756v38.576h94.434c-0.66912-13.056-2.041-25.926-4.0684-38.576h-90.365zm0 72.74v38.861h90.824c1.9351-12.745 3.194-25.713 3.752-38.861h-94.576z" fill="#184f54" stroke-width="1.3333"/>
 <path id="path30" transform="scale(.26458)" d="m358.33 0.019531a358.33 358.7 0 0 0-358.33 358.7 358.33 358.7 0 0 0 358.33 358.7 358.33 358.7 0 0 0 346.86-269.83h-122.3v-180.16c36.962-0.04103 82.828-0.07364 121.52-0.00976a358.33 358.7 0 0 0-346.07-267.4zm-151.02 267.69h146.6v30.41l-99.66 115.73h99.748l0.04883 34.09h-149.8v-30.428l99.375-115.66h-96.307l-0.00391-34.143zm258.4 0.91993 68.66 0.07812v34.025h-98.305v38.576h98.305v34.166h-98.305v38.861h98.305v34.521h-137.17v-180.15l68.514-0.08007zm156.04 32.834v38.576h93.979a358.33 358.7 0 0 0-4.0938-38.576h-89.885zm0 72.74v38.861h90.502a358.33 358.7 0 0 0 3.8613-38.861h-94.363z" fill="url(#a)" stroke-width="1.3333"/>
 <path id="path32" transform="scale(.26458)" d="m358.33 0.019531a358.33 358.7 0 0 0-358.33 358.7 358.33 358.7 0 0 0 358.33 358.7 358.33 358.7 0 0 0 346.7-269.83h-122.14v-180.15l121.76-0.01562a358.33 358.7 0 0 0-346.31-267.4zm-151.02 267.69h146.6v30.41l-99.66 115.73h99.748l0.04883 34.09h-149.8v-30.428l99.375-115.66h-96.307l-0.00391-34.143zm258.4 0.91993 68.66 0.07812v34.025h-98.305v38.576h98.305v34.166h-98.305v38.861h98.305v34.521h-137.17v-180.15l68.514-0.08007zm156.04 32.834v38.576h94.252a358.33 358.7 0 0 0-4.1035-38.576h-90.148zm0 72.74v38.861h90.324a358.33 358.7 0 0 0 3.8145-38.861h-94.139z" fill="url(#b)" stroke-width="1.3333"/>
 <g id="g54" transform="scale(.35278)" fill="#4fbe98">
  <path id="path42" d="m668.52 299.58c-8.5176 8.5176-21.294 13.147-32.589 13.147-32.034 0-44.44-22.405-44.625-43.884-0.18516-21.664 13.332-44.995 44.625-44.995 11.295 0 22.775 3.8885 31.293 12.221l16.294-15.739c-13.332-13.147-29.997-19.813-47.587-19.813-46.847 0-68.881 34.441-68.696 68.326 0.18516 33.7 20.553 66.844 68.696 66.844 18.702 0 35.922-6.1104 49.254-19.257z"/>
  <path id="path44" d="m736.02 332.99v-129.83h-24.297v129.83z"/>
  <path id="path46" d="m856.25 283.61-66.464-80.275h-20.734v129.48h25.578v-87.303l71.309 87.488v-0.18496h15.889v-129.66h-25.578z"/>
  <path id="path48" d="m1013.7 308.67h-73.269v-29.457h65.005v-22.931h-65.005v-30.016h73.269v-23.864h-97.691v130.5h97.691z"/>
  <path id="path50" d="m1301.3 332.93h25.244l-55.047-130.79h-25.244l-55.047 130.79h25.069l10.518-24.663h64.162zm-19.634-47.645h-45.58l22.79-55.68z"/>
  <path id="path52" d="m1145.7 332.94h22.861v-130.41h-26.152l-37.929 56.076-37.929-56.076h-26.325v130.41h22.862v-94.827l40.873 60.291 41.739-60.104z"/>
 </g>
</svg>
