<?xml version="1.0" encoding="UTF-8" standalone="no"?>
<svg
   xmlns:dc="http://purl.org/dc/elements/1.1/"
   xmlns:cc="http://creativecommons.org/ns#"
   xmlns:rdf="http://www.w3.org/1999/02/22-rdf-syntax-ns#"
   xmlns:svg="http://www.w3.org/2000/svg"
   xmlns="http://www.w3.org/2000/svg"
   xmlns:sodipodi="http://sodipodi.sourceforge.net/DTD/sodipodi-0.dtd"
   xmlns:inkscape="http://www.inkscape.org/namespaces/inkscape"
   height="837.01"
   width="600"
   version="1.1"
   viewBox="0 0 158.75 221.45939"
   id="svg2"
   inkscape:version="0.91 r13725"
   sodipodi:docname="Zee TV - Dark.svg">
  <metadata
     id="metadata20">
    <rdf:RDF>
      <cc:Work
         rdf:about="">
        <dc:format>image/svg+xml</dc:format>
        <dc:type
           rdf:resource="http://purl.org/dc/dcmitype/StillImage" />
      </cc:Work>
    </rdf:RDF>
  </metadata>
  <defs
     id="defs18" />
  <sodipodi:namedview
     pagecolor="#ffffff"
     bordercolor="#666666"
     borderopacity="1"
     objecttolerance="10"
     gridtolerance="10"
     guidetolerance="10"
     inkscape:pageopacity="0"
     inkscape:pageshadow="2"
     inkscape:window-width="1920"
     inkscape:window-height="1017"
     id="namedview16"
     showgrid="false"
     inkscape:zoom="0.28195601"
     inkscape:cx="300"
     inkscape:cy="418.505"
     inkscape:window-x="-8"
     inkscape:window-y="-8"
     inkscape:window-maximized="1"
     inkscape:current-layer="svg2" />
  <path
     style="fill:#2a6eb0;stroke-width:1.03680003"
     inkscape:connector-curvature="0"
     id="path6"
     d="m 2.82,156.759 c 0.10384,-0.2073 0.20729,-0.51839 0.31113,-0.72577 0.72577,-2.2809 1.5552,-4.4582 2.592,-6.6355 1.2442,-2.592 2.7994,-5.0803 4.7692,-7.3612 2.7994,-3.3178 6.1171,-6.2208 9.5385,-8.9164 5.184,-4.1472 10.679,-7.7759 16.381,-11.301 6.9465,-4.2509 13.997,-8.1906 20.943,-12.442 6.2208,-3.7325 12.338,-7.5686 18.351,-11.405 4.1472,-2.6957 8.398,-5.184 12.442,-7.9833 5.9097,-3.9398 11.612,-8.087 17.107,-12.545 2.592,-2.0736 5.0803,-4.2508 7.3612,-6.6355 l 3.5251,-3.5251 c 3.1104,-3.0067 5.9097,-6.3245 8.6054,-9.6422 2.4883,-3.0067 4.9766,-6.1171 7.0502,-9.4348 3.8362,-6.0134 6.9465,-12.338 8.7091,-19.284 0.93314,-3.6288 1.4515,-7.3612 1.2442,-11.094 -0.2073,-4.2509 -1.0368,-8.2944 -2.7993,-12.234 -0.4147,-0.82941 -0.72576,-1.6589 -1.2442,-2.4883 -0.10385,-0.20729 -0.41471,-0.51839 -0.10385,-0.72576 0.31114,-0.20729 0.51839,0.10384 0.72577,0.31114 2.6957,1.9699 4.7692,4.4582 6.4281,7.3612 2.1772,4.0435 3.3177,8.2944 3.7325,12.856 0.10384,1.3478 0.31114,2.7994 0.31114,4.1472 0.10384,5.3913 -0.62208,10.679 -1.8662,15.967 -1.2442,5.2877 -3.1104,10.368 -5.3914,15.345 -1.4515,3.1104 -3.0067,6.2208 -4.7692,9.2275 -0.72576,1.2442 -1.5552,2.4883 -2.3846,3.7325 -4.4582,6.6355 -8.7091,13.375 -13.064,20.114 -4.7693,7.2576 -9.4348,14.515 -14.204,21.669 -1.1405,1.7626 -2.281,3.5251 -3.4214,5.2877 -0.10384,0.20729 -0.20729,0.31114 -0.31113,0.51839 -0.10385,0.31114 -0.10385,0.41471 0.20729,0.41471 l 0.93314,0 52.669,0 c 1.6589,0 1.5552,-0.10385 1.5552,1.5552 l 0,43.545 c 0,1.3478 0,1.3478 -1.3478,1.5552 l -1.1405,0 -153.96,0 c -0.51839,0 -1.0368,0 -1.6589,-0.10384 -0.41474,0 -0.51843,-0.20729 -0.51843,-0.62208 l 0,-0.62207 0,-5.495 c 0.10384,-4.1472 0.51843,-8.1907 1.3478,-12.234 0.62208,-2.6957 1.6589,-5.2877 2.7994,-7.776 1.5552,-3.214 3.4214,-6.2208 5.3913,-9.2275 4.4582,-6.9465 8.9164,-13.789 13.478,-20.632 3.1104,-4.6656 6.1171,-9.4348 9.2275,-14.1 5.2876,-8.087 10.575,-16.174 15.759,-24.261 3.8362,-5.8061 7.5686,-11.612 11.301,-17.418 1.0368,-1.5552 1.9699,-3.1104 3.0067,-4.6656 0.31114,-0.51843 0.31114,-0.62208 -0.31114,-0.62208 l -0.72576,0 -42.923,0 -0.4147,0 c -1.2442,0 -1.3478,-0.10384 -1.2442,-1.3478 0.10384,-0.72576 0.10384,-1.4515 0.10384,-2.1773 0,-12.442 0,-24.883 0.10384,-37.325 0,-2.0736 0.10384,-4.1472 0.10384,-6.1171 0,-0.72576 0.10345,-0.72576 0.82941,-0.82945 l 0.72577,0 13.997,0 c 9.7459,-0.20729 19.492,0 29.238,-0.20729 9.0201,-0.20729 17.937,0 26.957,-0.20729 1.8662,0 3.7325,0 5.5987,0.10384 4.5619,0.20729 8.9164,1.1405 13.064,3.1104 4.4582,2.1773 7.5686,5.5987 9.4348,10.057 1.4515,3.6288 2.281,7.4649 2.281,11.405 0.10385,5.9097 -1.3478,11.405 -3.8361,16.589 -1.9699,4.2508 -4.6656,8.087 -7.5686,11.716 -3.4214,4.3545 -7.1539,8.5017 -11.094,12.338 -2.4883,2.4883 -5.184,4.6656 -7.9833,6.8428 -5.2877,4.2508 -10.575,8.6054 -15.863,12.856 -4.9766,3.9398 -9.8496,7.9833 -14.826,11.923 -6.2208,4.9766 -12.442,9.9532 -18.559,15.034 -6.5318,5.3914 -13.064,10.783 -19.699,16.07 -2.4883,1.9699 -4.9766,4.0435 -7.1539,6.3245 -3.5251,3.5251 -6.0134,7.6723 -7.6723,12.442 -1.1405,3.2141 -1.7625,6.4281 -2.1772,9.7459 -0.10384,0 -0.10384,0.10384 0,0.20729 -0.10384,0 0,0 0,0 z" />
  <g
     id="g4153">
    <path
       d="m 142.79,202.379 c 0.31114,-0.62208 0.41471,-1.1405 0.51839,-1.6589 1.8662,-6.8428 3.7325,-13.789 5.5987,-20.632 0.20729,-0.93313 0.31113,-1.0368 1.2442,-1.0368 l 7.3612,0 0.51839,0 c 0.41474,0.10385 0.51839,0.2073 0.51839,0.62208 -0.10384,0.31114 -0.20729,0.62208 -0.20729,1.0368 -1.6589,6.6355 -3.4214,13.271 -5.0803,19.906 -1.4515,5.7024 -2.903,11.508 -4.4582,17.211 -0.2073,0.72576 -0.31114,1.5552 -0.62208,2.2809 -0.20729,0.72576 -0.31114,0.82945 -1.0368,0.82945 l -8.8128,0 c -0.72573,0 -0.72573,-0.10385 -0.9331,-0.72577 -0.51839,-1.9699 -1.0368,-3.8361 -1.5552,-5.806 -1.6589,-6.1171 -3.3177,-12.338 -4.9766,-18.455 -0.51839,-2.0736 -1.1405,-4.1472 -1.6589,-6.3245 -0.20729,-0.93309 -0.31113,-0.93309 -1.2442,-0.93309 l -9.1238,0 -0.51839,0 c -0.31113,0 -0.51843,0.20729 -0.51843,0.51839 l 0,0.93313 0,29.549 c 0,1.5552 0,1.5552 -1.5552,1.5552 l -6.7392,0 -0.72576,0 c -0.62208,0 -0.72577,-0.2073 -0.82945,-0.82945 l 0,-0.82945 0,-29.341 c 0,-1.4515 0,-1.4515 -1.4515,-1.4515 l -6.4281,0 -0.72577,0 c -0.4147,0 -0.62207,-0.20729 -0.62207,-0.62207 l 0,-0.72577 0,-7.1539 c 0,-1.2442 0,-1.2442 1.2442,-1.3478 l 27.371,0 3.6288,0 c 2.3846,0 4.2508,1.1405 5.5987,3.0067 0.62208,0.82941 1.0368,1.8662 1.3478,2.903 1.4515,5.495 3.0067,10.99 4.4582,16.485 0.20729,0.31114 0.20729,0.62208 0.4147,1.0368 z"
       id="path8"
       inkscape:connector-curvature="0"
       style="fill:#2a6eb0;stroke-width:1.03680003" />
    <path
       d="m 32.78,203.209 0,-16.589 c 0,-1.8662 0.51839,-3.6288 1.7626,-5.0803 1.3478,-1.5552 3.0067,-2.3846 4.9766,-2.4883 l 1.3478,0 17.211,0 c 1.3478,0 1.3478,0 1.3478,1.3478 l 0,7.0502 0,0.62208 c 0,0.62208 -0.2073,0.72576 -0.82945,0.72576 l -0.72576,0 -13.789,0 -0.62208,0 c -0.9331,0 -0.9331,0.10385 -0.9331,1.0368 l 0,4.1472 c 0,1.0368 0,1.0368 1.0368,1.0368 l 8.5018,0 0.72572,0 c 0.72577,0 0.82945,0.10385 0.82945,0.82941 l 0,8.087 c 0,0.62208 -0.10384,0.72577 -0.82945,0.72577 l -6.0134,0 -3.4214,0 c -0.72576,0 -0.82945,0.10384 -0.82945,0.82945 l 0,4.9766 c 0,0.9331 0.10384,1.0368 1.0368,1.0368 l 12.96,0 2.1773,0 c 0.62207,0 0.82944,0.10384 0.82944,0.82944 l 0,8.087 c 0,0.62207 -0.20729,0.72576 -0.72576,0.82945 l -0.72576,0 -23.846,0 c -1.4515,0 -1.4515,0 -1.4515,-1.4515 l 0,-16.589 z"
       id="path10"
       inkscape:connector-curvature="0"
       style="fill:#2a6eb0;stroke-width:1.03680003" />
    <path
       d="m 63.47,203.109 0,-16.589 c 0,-2.1772 0.72576,-3.9398 2.281,-5.495 1.3478,-1.2442 3.0067,-1.9699 4.8729,-1.9699 l 15.034,0 3.5251,0 c 0.82945,0 0.9331,0.10385 0.9331,0.93314 l 0,7.9833 c 0,0.82945 -0.10385,0.93314 -0.9331,0.93314 l -9.1238,0 -5.7024,0 c -0.82945,0 -0.93314,0.10384 -0.93314,0.9331 l 0,4.1472 c 0,0.93314 0.10384,1.0368 1.1405,1.0368 l 8.5018,0 c 1.4515,0 1.4515,0 1.4515,1.4515 l 0,7.1539 0,0.72576 c 0,0.20729 -0.20729,0.4147 -0.4147,0.4147 l -0.72577,0 -8.398,0 -0.72576,0 c -0.51839,0 -0.62208,0.10385 -0.62208,0.72577 l 0,2.592 0,2.592 c 0,0.93309 0.10385,1.0368 1.0368,1.0368 l 11.612,0 3.3177,0 c 0.72577,0 0.82945,0.10384 0.82945,0.82945 l 0,8.087 c 0,0.72572 -0.10384,0.82941 -0.82945,0.82941 l -0.62207,0 -23.639,0 c -1.4515,0 -1.4515,0 -1.4515,-1.4515 -0.41474,-5.8061 -0.41474,-11.301 -0.41474,-16.9 z"
       id="path12"
       inkscape:connector-curvature="0"
       style="fill:#2a6eb0;stroke-width:1.03680003" />
    <path
       d="m 13.5,178.949 11.612,0 0.4147,0 c 1.1405,0 1.1405,0 1.1405,1.1405 l 0,7.3612 c 0,0.82945 -0.2073,1.5552 -0.62208,2.2809 -1.5552,2.3846 -3.1104,4.7693 -4.6656,7.1539 -3.0067,4.5619 -5.9098,9.2275 -8.9164,13.789 -0.10384,0.10384 -0.10384,0.20729 -0.20729,0.31113 -0.10384,0.31114 -0.10384,0.41471 0.20729,0.41471 l 0.72577,0 11.508,0 0.72572,0 c 1.0368,0 1.0368,0.10384 1.0368,1.0368 l 0,7.5686 0,0.51839 c 0,0.41474 -0.2073,0.51839 -0.62208,0.62208 l -0.72576,0 -18.04,0 c -3.2141,0 -6.1171,-2.1772 -6.8428,-5.2876 -0.4147,-1.8662 -0.31113,-3.8362 0.82945,-5.5987 1.8662,-2.7994 3.6288,-5.7024 5.495,-8.5018 2.592,-4.1472 5.2876,-8.1906 7.8796,-12.338 0.10384,-0.10384 0.20729,-0.2073 0.20729,-0.41471 0.10385,-0.20729 0,-0.4147 -0.20729,-0.4147 l -0.72576,0 -11.923,0 -0.72577,0 c -0.82945,0 -0.93313,-0.10384 -0.93313,-1.0368 l 0,-7.776 c 0,-0.93313 0.10384,-0.93313 0.93313,-0.93313 4.2509,0.10384 8.2943,0.10384 12.442,0.10384 z"
       id="path14"
       inkscape:connector-curvature="0"
       style="fill:#2a6eb0;stroke-width:1.03680003" />
  </g>
</svg>
